0, 0, Header, 1, 14, 480
1, 0, Start_track
1, 0, Title_t, "goodies - ciara (feat. petey pablo)"
1, 0, Copyright_t, "albertm13@excite.com website: www.geocities.com/musichearts2001 "
1, 0, System_exclusive, 5, 126, 127, 9, 1, 247
1, 0, Time_signature, 4, 2, 24, 8
1, 0, Key_signature, 0, "major"
1, 0, Tempo, 582524
1, 0, End_track
2, 0, Start_track
2, 482, Program_c, 0, 79
2, 483, Control_c, 0, 7, 69
2, 483, Control_c, 0, 10, 64
2, 1920, Control_c, 0, 65, 127
2, 7680, Note_on_c, 0, 89, 59
2, 8496, Control_c, 0, 5, 30
2, 8635, Note_on_c, 0, 89, 0
2, 8640, Note_on_c, 0, 77, 59
2, 8696, Control_c, 0, 5, 0
2, 9115, Note_on_c, 0, 77, 0
2, 9120, Note_on_c, 0, 89, 59
2, 9235, Note_on_c, 0, 89, 0
2, 9360, Note_on_c, 0, 89, 59
2, 9440, Control_c, 0, 5, 25
2, 9475, Note_on_c, 0, 89, 0
2, 9600, Note_on_c, 0, 101, 59
2, 9640, Control_c, 0, 5, 0
2, 10416, Control_c, 0, 5, 10
2, 10555, Note_on_c, 0, 101, 0
2, 10560, Note_on_c, 0, 77, 59
2, 10616, Control_c, 0, 5, 0
2, 11035, Note_on_c, 0, 77, 0
2, 11040, Note_on_c, 0, 89, 59
2, 11155, Note_on_c, 0, 89, 0
2, 11280, Note_on_c, 0, 89, 59
2, 11360, Control_c, 0, 5, 25
2, 11395, Note_on_c, 0, 89, 0
2, 11520, Note_on_c, 0, 89, 59
2, 11560, Control_c, 0, 5, 0
2, 12336, Control_c, 0, 5, 30
2, 12475, Note_on_c, 0, 89, 0
2, 12480, Note_on_c, 0, 77, 59
2, 12536, Control_c, 0, 5, 0
2, 12955, Note_on_c, 0, 77, 0
2, 12960, Note_on_c, 0, 89, 59
2, 13075, Note_on_c, 0, 89, 0
2, 13200, Note_on_c, 0, 89, 59
2, 13280, Control_c, 0, 5, 25
2, 13315, Note_on_c, 0, 89, 0
2, 13440, Note_on_c, 0, 101, 59
2, 13480, Control_c, 0, 5, 0
2, 14256, Control_c, 0, 5, 10
2, 14395, Note_on_c, 0, 101, 0
2, 14400, Note_on_c, 0, 77, 59
2, 14456, Control_c, 0, 5, 0
2, 14875, Note_on_c, 0, 77, 0
2, 14880, Note_on_c, 0, 89, 59
2, 14995, Note_on_c, 0, 89, 0
2, 15120, Note_on_c, 0, 89, 59
2, 15200, Control_c, 0, 5, 25
2, 15235, Note_on_c, 0, 89, 0
2, 15360, Note_on_c, 0, 89, 59
2, 15400, Control_c, 0, 5, 0
2, 16176, Control_c, 0, 5, 30
2, 16315, Note_on_c, 0, 89, 0
2, 16320, Note_on_c, 0, 77, 59
2, 16376, Control_c, 0, 5, 0
2, 16795, Note_on_c, 0, 77, 0
2, 16800, Note_on_c, 0, 89, 59
2, 16915, Note_on_c, 0, 89, 0
2, 17040, Note_on_c, 0, 89, 59
2, 17120, Control_c, 0, 5, 25
2, 17155, Note_on_c, 0, 89, 0
2, 17280, Note_on_c, 0, 101, 59
2, 17320, Control_c, 0, 5, 0
2, 18096, Control_c, 0, 5, 10
2, 18235, Note_on_c, 0, 101, 0
2, 18240, Note_on_c, 0, 77, 59
2, 18296, Control_c, 0, 5, 0
2, 18715, Note_on_c, 0, 77, 0
2, 18720, Note_on_c, 0, 89, 59
2, 18835, Note_on_c, 0, 89, 0
2, 18960, Note_on_c, 0, 89, 59
2, 19040, Control_c, 0, 5, 25
2, 19075, Note_on_c, 0, 89, 0
2, 19200, Note_on_c, 0, 89, 59
2, 19240, Control_c, 0, 5, 0
2, 20016, Control_c, 0, 5, 30
2, 20155, Note_on_c, 0, 89, 0
2, 20160, Note_on_c, 0, 77, 59
2, 20216, Control_c, 0, 5, 0
2, 20635, Note_on_c, 0, 77, 0
2, 20640, Note_on_c, 0, 89, 59
2, 20755, Note_on_c, 0, 89, 0
2, 20880, Note_on_c, 0, 89, 59
2, 20960, Control_c, 0, 5, 25
2, 20995, Note_on_c, 0, 89, 0
2, 21120, Note_on_c, 0, 101, 59
2, 21160, Control_c, 0, 5, 0
2, 21936, Control_c, 0, 5, 10
2, 22075, Note_on_c, 0, 101, 0
2, 22080, Note_on_c, 0, 77, 59
2, 22136, Control_c, 0, 5, 0
2, 22555, Note_on_c, 0, 77, 0
2, 22560, Note_on_c, 0, 89, 59
2, 22675, Note_on_c, 0, 89, 0
2, 22800, Note_on_c, 0, 89, 59
2, 22880, Control_c, 0, 5, 25
2, 22915, Note_on_c, 0, 89, 0
2, 23040, Note_on_c, 0, 89, 59
2, 23080, Control_c, 0, 5, 0
2, 23856, Control_c, 0, 5, 30
2, 23995, Note_on_c, 0, 89, 0
2, 24000, Note_on_c, 0, 77, 59
2, 24056, Control_c, 0, 5, 0
2, 24475, Note_on_c, 0, 77, 0
2, 24480, Note_on_c, 0, 89, 59
2, 24595, Note_on_c, 0, 89, 0
2, 24720, Note_on_c, 0, 89, 59
2, 24800, Control_c, 0, 5, 25
2, 24835, Note_on_c, 0, 89, 0
2, 24960, Note_on_c, 0, 101, 59
2, 25000, Control_c, 0, 5, 0
2, 25776, Control_c, 0, 5, 10
2, 25915, Note_on_c, 0, 101, 0
2, 25920, Note_on_c, 0, 77, 59
2, 25976, Control_c, 0, 5, 0
2, 26395, Note_on_c, 0, 77, 0
2, 26400, Note_on_c, 0, 89, 59
2, 26515, Note_on_c, 0, 89, 0
2, 26640, Note_on_c, 0, 89, 59
2, 26720, Control_c, 0, 5, 25
2, 26755, Note_on_c, 0, 89, 0
2, 26880, Note_on_c, 0, 89, 59
2, 26920, Control_c, 0, 5, 0
2, 27696, Control_c, 0, 5, 30
2, 27835, Note_on_c, 0, 89, 0
2, 27840, Note_on_c, 0, 77, 59
2, 27896, Control_c, 0, 5, 0
2, 28315, Note_on_c, 0, 77, 0
2, 28320, Note_on_c, 0, 89, 59
2, 28435, Note_on_c, 0, 89, 0
2, 28560, Note_on_c, 0, 89, 59
2, 28640, Control_c, 0, 5, 25
2, 28675, Note_on_c, 0, 89, 0
2, 28800, Note_on_c, 0, 101, 59
2, 28840, Control_c, 0, 5, 0
2, 29616, Control_c, 0, 5, 10
2, 29755, Note_on_c, 0, 101, 0
2, 29760, Note_on_c, 0, 77, 59
2, 29816, Control_c, 0, 5, 0
2, 30235, Note_on_c, 0, 77, 0
2, 30240, Note_on_c, 0, 89, 59
2, 30355, Note_on_c, 0, 89, 0
2, 30480, Note_on_c, 0, 89, 59
2, 30560, Control_c, 0, 5, 25
2, 30595, Note_on_c, 0, 89, 0
2, 30720, Note_on_c, 0, 89, 59
2, 31536, Control_c, 0, 5, 30
2, 31675, Note_on_c, 0, 89, 0
2, 31680, Note_on_c, 0, 77, 59
2, 31736, Control_c, 0, 5, 0
2, 32155, Note_on_c, 0, 77, 0
2, 32160, Note_on_c, 0, 89, 59
2, 32275, Note_on_c, 0, 89, 0
2, 32400, Note_on_c, 0, 89, 59
2, 32480, Control_c, 0, 5, 25
2, 32515, Note_on_c, 0, 89, 0
2, 32640, Note_on_c, 0, 101, 59
2, 32680, Control_c, 0, 5, 0
2, 33456, Control_c, 0, 5, 10
2, 33595, Note_on_c, 0, 101, 0
2, 33600, Note_on_c, 0, 77, 59
2, 33656, Control_c, 0, 5, 0
2, 34075, Note_on_c, 0, 77, 0
2, 34080, Note_on_c, 0, 89, 59
2, 34195, Note_on_c, 0, 89, 0
2, 34320, Note_on_c, 0, 89, 59
2, 34400, Control_c, 0, 5, 25
2, 34435, Note_on_c, 0, 89, 0
2, 34560, Note_on_c, 0, 89, 59
2, 34600, Control_c, 0, 5, 0
2, 35376, Control_c, 0, 5, 30
2, 35515, Note_on_c, 0, 89, 0
2, 35520, Note_on_c, 0, 77, 59
2, 35576, Control_c, 0, 5, 0
2, 35995, Note_on_c, 0, 77, 0
2, 36000, Note_on_c, 0, 89, 59
2, 36115, Note_on_c, 0, 89, 0
2, 36240, Note_on_c, 0, 89, 59
2, 36320, Control_c, 0, 5, 25
2, 36355, Note_on_c, 0, 89, 0
2, 36480, Note_on_c, 0, 101, 59
2, 36520, Control_c, 0, 5, 0
2, 37296, Control_c, 0, 5, 10
2, 37435, Note_on_c, 0, 101, 0
2, 37440, Note_on_c, 0, 77, 59
2, 37496, Control_c, 0, 5, 0
2, 37915, Note_on_c, 0, 77, 0
2, 37920, Note_on_c, 0, 89, 59
2, 38035, Note_on_c, 0, 89, 0
2, 38160, Note_on_c, 0, 89, 59
2, 38240, Control_c, 0, 5, 25
2, 38275, Note_on_c, 0, 89, 0
2, 38400, Note_on_c, 0, 89, 59
2, 38440, Control_c, 0, 5, 0
2, 39216, Control_c, 0, 5, 30
2, 39355, Note_on_c, 0, 89, 0
2, 39360, Note_on_c, 0, 77, 59
2, 39416, Control_c, 0, 5, 0
2, 39835, Note_on_c, 0, 77, 0
2, 39840, Note_on_c, 0, 89, 59
2, 39955, Note_on_c, 0, 89, 0
2, 40080, Note_on_c, 0, 89, 59
2, 40160, Control_c, 0, 5, 25
2, 40195, Note_on_c, 0, 89, 0
2, 40320, Note_on_c, 0, 101, 59
2, 40360, Control_c, 0, 5, 0
2, 41136, Control_c, 0, 5, 10
2, 41275, Note_on_c, 0, 101, 0
2, 41280, Note_on_c, 0, 77, 59
2, 41336, Control_c, 0, 5, 0
2, 41755, Note_on_c, 0, 77, 0
2, 41760, Note_on_c, 0, 89, 59
2, 41875, Note_on_c, 0, 89, 0
2, 42000, Note_on_c, 0, 89, 59
2, 42080, Control_c, 0, 5, 25
2, 42115, Note_on_c, 0, 89, 0
2, 42240, Note_on_c, 0, 89, 59
2, 42280, Control_c, 0, 5, 0
2, 43056, Control_c, 0, 5, 30
2, 43195, Note_on_c, 0, 89, 0
2, 43200, Note_on_c, 0, 77, 59
2, 43256, Control_c, 0, 5, 0
2, 43675, Note_on_c, 0, 77, 0
2, 43680, Note_on_c, 0, 89, 59
2, 43795, Note_on_c, 0, 89, 0
2, 43920, Note_on_c, 0, 89, 59
2, 44000, Control_c, 0, 5, 25
2, 44035, Note_on_c, 0, 89, 0
2, 44160, Note_on_c, 0, 101, 59
2, 44200, Control_c, 0, 5, 0
2, 44976, Control_c, 0, 5, 10
2, 45115, Note_on_c, 0, 101, 0
2, 45120, Note_on_c, 0, 77, 59
2, 45176, Control_c, 0, 5, 0
2, 45595, Note_on_c, 0, 77, 0
2, 45600, Note_on_c, 0, 89, 59
2, 45715, Note_on_c, 0, 89, 0
2, 45840, Note_on_c, 0, 89, 59
2, 45920, Control_c, 0, 5, 25
2, 45955, Note_on_c, 0, 89, 0
2, 46080, Note_on_c, 0, 89, 59
2, 46896, Control_c, 0, 5, 30
2, 47035, Note_on_c, 0, 89, 0
2, 47040, Note_on_c, 0, 77, 59
2, 47096, Control_c, 0, 5, 0
2, 47515, Note_on_c, 0, 77, 0
2, 47520, Note_on_c, 0, 89, 59
2, 47635, Note_on_c, 0, 89, 0
2, 47760, Note_on_c, 0, 89, 59
2, 47840, Control_c, 0, 5, 25
2, 47875, Note_on_c, 0, 89, 0
2, 48000, Note_on_c, 0, 101, 59
2, 48040, Control_c, 0, 5, 0
2, 48816, Control_c, 0, 5, 10
2, 48955, Note_on_c, 0, 101, 0
2, 48960, Note_on_c, 0, 77, 59
2, 49016, Control_c, 0, 5, 0
2, 49435, Note_on_c, 0, 77, 0
2, 49440, Note_on_c, 0, 89, 59
2, 49555, Note_on_c, 0, 89, 0
2, 49680, Note_on_c, 0, 89, 59
2, 49760, Control_c, 0, 5, 25
2, 49795, Note_on_c, 0, 89, 0
2, 49920, Note_on_c, 0, 89, 59
2, 49960, Control_c, 0, 5, 0
2, 50736, Control_c, 0, 5, 30
2, 50875, Note_on_c, 0, 89, 0
2, 50880, Note_on_c, 0, 77, 59
2, 50936, Control_c, 0, 5, 0
2, 51355, Note_on_c, 0, 77, 0
2, 51360, Note_on_c, 0, 89, 59
2, 51475, Note_on_c, 0, 89, 0
2, 51600, Note_on_c, 0, 89, 59
2, 51680, Control_c, 0, 5, 25
2, 51715, Note_on_c, 0, 89, 0
2, 51840, Note_on_c, 0, 101, 59
2, 51880, Control_c, 0, 5, 0
2, 52656, Control_c, 0, 5, 10
2, 52795, Note_on_c, 0, 101, 0
2, 52800, Note_on_c, 0, 77, 59
2, 52856, Control_c, 0, 5, 0
2, 53275, Note_on_c, 0, 77, 0
2, 53280, Note_on_c, 0, 89, 59
2, 53395, Note_on_c, 0, 89, 0
2, 53520, Note_on_c, 0, 89, 59
2, 53600, Control_c, 0, 5, 25
2, 53635, Note_on_c, 0, 89, 0
2, 53760, Note_on_c, 0, 89, 59
2, 53800, Control_c, 0, 5, 0
2, 54576, Control_c, 0, 5, 30
2, 54715, Note_on_c, 0, 89, 0
2, 54720, Note_on_c, 0, 77, 59
2, 54776, Control_c, 0, 5, 0
2, 55195, Note_on_c, 0, 77, 0
2, 55200, Note_on_c, 0, 89, 59
2, 55315, Note_on_c, 0, 89, 0
2, 55440, Note_on_c, 0, 89, 59
2, 55520, Control_c, 0, 5, 25
2, 55555, Note_on_c, 0, 89, 0
2, 55680, Note_on_c, 0, 101, 59
2, 55720, Control_c, 0, 5, 0
2, 56496, Control_c, 0, 5, 10
2, 56635, Note_on_c, 0, 101, 0
2, 56640, Note_on_c, 0, 77, 59
2, 56696, Control_c, 0, 5, 0
2, 57115, Note_on_c, 0, 77, 0
2, 57120, Note_on_c, 0, 89, 59
2, 57235, Note_on_c, 0, 89, 0
2, 57360, Note_on_c, 0, 89, 59
2, 57440, Control_c, 0, 5, 25
2, 57475, Note_on_c, 0, 89, 0
2, 57600, Note_on_c, 0, 89, 59
2, 57640, Control_c, 0, 5, 0
2, 58416, Control_c, 0, 5, 30
2, 58555, Note_on_c, 0, 89, 0
2, 58560, Note_on_c, 0, 77, 59
2, 58616, Control_c, 0, 5, 0
2, 59035, Note_on_c, 0, 77, 0
2, 59040, Note_on_c, 0, 89, 59
2, 59155, Note_on_c, 0, 89, 0
2, 59280, Note_on_c, 0, 89, 59
2, 59360, Control_c, 0, 5, 25
2, 59395, Note_on_c, 0, 89, 0
2, 59520, Note_on_c, 0, 101, 59
2, 59560, Control_c, 0, 5, 0
2, 60336, Control_c, 0, 5, 10
2, 60475, Note_on_c, 0, 101, 0
2, 60480, Note_on_c, 0, 77, 59
2, 60536, Control_c, 0, 5, 0
2, 60955, Note_on_c, 0, 77, 0
2, 60960, Note_on_c, 0, 89, 59
2, 61075, Note_on_c, 0, 89, 0
2, 61200, Note_on_c, 0, 89, 59
2, 61280, Control_c, 0, 5, 25
2, 61315, Note_on_c, 0, 89, 0
2, 61440, Note_on_c, 0, 89, 59
2, 62256, Control_c, 0, 5, 30
2, 62395, Note_on_c, 0, 89, 0
2, 62400, Note_on_c, 0, 77, 59
2, 62456, Control_c, 0, 5, 0
2, 62875, Note_on_c, 0, 77, 0
2, 62880, Note_on_c, 0, 89, 59
2, 62995, Note_on_c, 0, 89, 0
2, 63120, Note_on_c, 0, 89, 59
2, 63200, Control_c, 0, 5, 25
2, 63235, Note_on_c, 0, 89, 0
2, 63360, Note_on_c, 0, 101, 59
2, 63400, Control_c, 0, 5, 0
2, 64176, Control_c, 0, 5, 10
2, 64315, Note_on_c, 0, 101, 0
2, 64320, Note_on_c, 0, 77, 59
2, 64376, Control_c, 0, 5, 0
2, 64795, Note_on_c, 0, 77, 0
2, 64800, Note_on_c, 0, 89, 59
2, 64915, Note_on_c, 0, 89, 0
2, 65040, Note_on_c, 0, 89, 59
2, 65120, Control_c, 0, 5, 25
2, 65155, Note_on_c, 0, 89, 0
2, 65280, Note_on_c, 0, 89, 59
2, 65320, Control_c, 0, 5, 0
2, 66096, Control_c, 0, 5, 30
2, 66235, Note_on_c, 0, 89, 0
2, 66240, Note_on_c, 0, 77, 59
2, 66296, Control_c, 0, 5, 0
2, 66715, Note_on_c, 0, 77, 0
2, 66720, Note_on_c, 0, 89, 59
2, 66835, Note_on_c, 0, 89, 0
2, 66960, Note_on_c, 0, 89, 59
2, 67040, Control_c, 0, 5, 25
2, 67075, Note_on_c, 0, 89, 0
2, 67200, Note_on_c, 0, 101, 59
2, 67240, Control_c, 0, 5, 0
2, 68016, Control_c, 0, 5, 10
2, 68155, Note_on_c, 0, 101, 0
2, 68160, Note_on_c, 0, 77, 59
2, 68216, Control_c, 0, 5, 0
2, 68635, Note_on_c, 0, 77, 0
2, 68640, Note_on_c, 0, 89, 59
2, 68755, Note_on_c, 0, 89, 0
2, 68880, Note_on_c, 0, 89, 59
2, 68960, Control_c, 0, 5, 25
2, 68995, Note_on_c, 0, 89, 0
2, 69120, Note_on_c, 0, 89, 59
2, 69160, Control_c, 0, 5, 0
2, 69936, Control_c, 0, 5, 30
2, 70075, Note_on_c, 0, 89, 0
2, 70080, Note_on_c, 0, 77, 59
2, 70136, Control_c, 0, 5, 0
2, 70555, Note_on_c, 0, 77, 0
2, 70560, Note_on_c, 0, 89, 59
2, 70675, Note_on_c, 0, 89, 0
2, 70800, Note_on_c, 0, 89, 59
2, 70880, Control_c, 0, 5, 25
2, 70915, Note_on_c, 0, 89, 0
2, 71040, Note_on_c, 0, 101, 59
2, 71080, Control_c, 0, 5, 0
2, 71856, Control_c, 0, 5, 10
2, 71995, Note_on_c, 0, 101, 0
2, 72000, Note_on_c, 0, 77, 59
2, 72056, Control_c, 0, 5, 0
2, 72475, Note_on_c, 0, 77, 0
2, 72480, Note_on_c, 0, 89, 59
2, 72595, Note_on_c, 0, 89, 0
2, 72720, Note_on_c, 0, 89, 59
2, 72800, Control_c, 0, 5, 25
2, 72835, Note_on_c, 0, 89, 0
2, 72960, Note_on_c, 0, 89, 59
2, 73000, Control_c, 0, 5, 0
2, 73776, Control_c, 0, 5, 30
2, 73915, Note_on_c, 0, 89, 0
2, 73920, Note_on_c, 0, 77, 59
2, 73976, Control_c, 0, 5, 0
2, 74395, Note_on_c, 0, 77, 0
2, 74400, Note_on_c, 0, 89, 59
2, 74515, Note_on_c, 0, 89, 0
2, 74640, Note_on_c, 0, 89, 59
2, 74720, Control_c, 0, 5, 25
2, 74755, Note_on_c, 0, 89, 0
2, 74880, Note_on_c, 0, 101, 59
2, 74920, Control_c, 0, 5, 0
2, 75696, Control_c, 0, 5, 10
2, 75835, Note_on_c, 0, 101, 0
2, 75840, Note_on_c, 0, 77, 59
2, 75896, Control_c, 0, 5, 0
2, 76315, Note_on_c, 0, 77, 0
2, 76320, Note_on_c, 0, 89, 59
2, 76435, Note_on_c, 0, 89, 0
2, 76560, Note_on_c, 0, 89, 59
2, 76640, Control_c, 0, 5, 25
2, 76675, Note_on_c, 0, 89, 0
2, 76800, Note_on_c, 0, 89, 59
2, 77616, Control_c, 0, 5, 30
2, 77755, Note_on_c, 0, 89, 0
2, 77760, Note_on_c, 0, 77, 59
2, 77816, Control_c, 0, 5, 0
2, 78235, Note_on_c, 0, 77, 0
2, 78240, Note_on_c, 0, 89, 59
2, 78355, Note_on_c, 0, 89, 0
2, 78480, Note_on_c, 0, 89, 59
2, 78560, Control_c, 0, 5, 25
2, 78595, Note_on_c, 0, 89, 0
2, 78720, Note_on_c, 0, 101, 59
2, 78760, Control_c, 0, 5, 0
2, 79536, Control_c, 0, 5, 10
2, 79675, Note_on_c, 0, 101, 0
2, 79680, Note_on_c, 0, 77, 59
2, 79736, Control_c, 0, 5, 0
2, 80155, Note_on_c, 0, 77, 0
2, 80160, Note_on_c, 0, 89, 59
2, 80275, Note_on_c, 0, 89, 0
2, 80400, Note_on_c, 0, 89, 59
2, 80480, Control_c, 0, 5, 25
2, 80515, Note_on_c, 0, 89, 0
2, 80640, Note_on_c, 0, 89, 59
2, 80680, Control_c, 0, 5, 0
2, 81456, Control_c, 0, 5, 30
2, 81595, Note_on_c, 0, 89, 0
2, 81600, Note_on_c, 0, 77, 59
2, 81656, Control_c, 0, 5, 0
2, 82075, Note_on_c, 0, 77, 0
2, 82080, Note_on_c, 0, 89, 59
2, 82195, Note_on_c, 0, 89, 0
2, 82320, Note_on_c, 0, 89, 59
2, 82400, Control_c, 0, 5, 25
2, 82435, Note_on_c, 0, 89, 0
2, 82560, Note_on_c, 0, 101, 59
2, 82600, Control_c, 0, 5, 0
2, 83376, Control_c, 0, 5, 10
2, 83515, Note_on_c, 0, 101, 0
2, 83520, Note_on_c, 0, 77, 59
2, 83576, Control_c, 0, 5, 0
2, 83995, Note_on_c, 0, 77, 0
2, 84000, Note_on_c, 0, 89, 59
2, 84115, Note_on_c, 0, 89, 0
2, 84240, Note_on_c, 0, 89, 59
2, 84320, Control_c, 0, 5, 25
2, 84355, Note_on_c, 0, 89, 0
2, 84480, Note_on_c, 0, 89, 59
2, 85296, Control_c, 0, 5, 30
2, 85435, Note_on_c, 0, 89, 0
2, 85440, Note_on_c, 0, 77, 59
2, 85496, Control_c, 0, 5, 0
2, 85915, Note_on_c, 0, 77, 0
2, 85920, Note_on_c, 0, 89, 59
2, 86035, Note_on_c, 0, 89, 0
2, 86160, Note_on_c, 0, 89, 59
2, 86240, Control_c, 0, 5, 25
2, 86275, Note_on_c, 0, 89, 0
2, 86400, Note_on_c, 0, 101, 59
2, 86440, Control_c, 0, 5, 0
2, 87216, Control_c, 0, 5, 10
2, 87355, Note_on_c, 0, 101, 0
2, 87360, Note_on_c, 0, 77, 59
2, 87416, Control_c, 0, 5, 0
2, 87835, Note_on_c, 0, 77, 0
2, 87840, Note_on_c, 0, 89, 59
2, 87955, Note_on_c, 0, 89, 0
2, 88080, Note_on_c, 0, 89, 59
2, 88160, Control_c, 0, 5, 25
2, 88195, Note_on_c, 0, 89, 0
2, 88320, Note_on_c, 0, 89, 59
2, 88360, Control_c, 0, 5, 0
2, 89136, Control_c, 0, 5, 30
2, 89275, Note_on_c, 0, 89, 0
2, 89280, Note_on_c, 0, 77, 59
2, 89336, Control_c, 0, 5, 0
2, 89755, Note_on_c, 0, 77, 0
2, 89760, Note_on_c, 0, 89, 59
2, 89875, Note_on_c, 0, 89, 0
2, 90000, Note_on_c, 0, 89, 59
2, 90080, Control_c, 0, 5, 25
2, 90115, Note_on_c, 0, 89, 0
2, 90240, Note_on_c, 0, 101, 59
2, 90280, Control_c, 0, 5, 0
2, 91056, Control_c, 0, 5, 10
2, 91195, Note_on_c, 0, 101, 0
2, 91200, Note_on_c, 0, 77, 59
2, 91256, Control_c, 0, 5, 0
2, 91675, Note_on_c, 0, 77, 0
2, 91680, Note_on_c, 0, 89, 59
2, 91795, Note_on_c, 0, 89, 0
2, 91920, Note_on_c, 0, 89, 59
2, 92000, Control_c, 0, 5, 25
2, 92035, Note_on_c, 0, 89, 0
2, 92160, Note_on_c, 0, 89, 59
2, 92200, Control_c, 0, 5, 0
2, 92976, Control_c, 0, 5, 30
2, 93115, Note_on_c, 0, 89, 0
2, 93120, Note_on_c, 0, 77, 59
2, 93176, Control_c, 0, 5, 0
2, 93595, Note_on_c, 0, 77, 0
2, 93600, Note_on_c, 0, 89, 59
2, 93715, Note_on_c, 0, 89, 0
2, 93840, Note_on_c, 0, 89, 59
2, 93920, Control_c, 0, 5, 25
2, 93955, Note_on_c, 0, 89, 0
2, 94080, Note_on_c, 0, 101, 59
2, 94120, Control_c, 0, 5, 0
2, 94896, Control_c, 0, 5, 10
2, 95035, Note_on_c, 0, 101, 0
2, 95040, Note_on_c, 0, 77, 59
2, 95096, Control_c, 0, 5, 0
2, 95515, Note_on_c, 0, 77, 0
2, 95520, Note_on_c, 0, 89, 59
2, 95635, Note_on_c, 0, 89, 0
2, 95760, Note_on_c, 0, 89, 59
2, 95840, Control_c, 0, 5, 25
2, 95875, Note_on_c, 0, 89, 0
2, 96000, Note_on_c, 0, 89, 59
2, 96040, Control_c, 0, 5, 0
2, 96816, Control_c, 0, 5, 30
2, 96955, Note_on_c, 0, 89, 0
2, 96960, Note_on_c, 0, 77, 59
2, 97016, Control_c, 0, 5, 0
2, 97435, Note_on_c, 0, 77, 0
2, 97440, Note_on_c, 0, 89, 59
2, 97555, Note_on_c, 0, 89, 0
2, 97680, Note_on_c, 0, 89, 59
2, 97760, Control_c, 0, 5, 25
2, 97795, Note_on_c, 0, 89, 0
2, 97920, Note_on_c, 0, 101, 59
2, 97960, Control_c, 0, 5, 0
2, 98736, Control_c, 0, 5, 10
2, 98875, Note_on_c, 0, 101, 0
2, 98880, Note_on_c, 0, 77, 59
2, 98936, Control_c, 0, 5, 0
2, 99355, Note_on_c, 0, 77, 0
2, 99360, Note_on_c, 0, 89, 59
2, 99475, Note_on_c, 0, 89, 0
2, 99600, Note_on_c, 0, 89, 59
2, 99680, Control_c, 0, 5, 25
2, 99715, Note_on_c, 0, 89, 0
2, 99840, Note_on_c, 0, 89, 59
2, 100656, Control_c, 0, 5, 30
2, 100795, Note_on_c, 0, 89, 0
2, 100800, Note_on_c, 0, 77, 59
2, 100856, Control_c, 0, 5, 0
2, 101275, Note_on_c, 0, 77, 0
2, 101280, Note_on_c, 0, 89, 59
2, 101395, Note_on_c, 0, 89, 0
2, 101520, Note_on_c, 0, 89, 59
2, 101600, Control_c, 0, 5, 25
2, 101635, Note_on_c, 0, 89, 0
2, 101760, Note_on_c, 0, 101, 59
2, 101800, Control_c, 0, 5, 0
2, 102576, Control_c, 0, 5, 10
2, 102715, Note_on_c, 0, 101, 0
2, 102720, Note_on_c, 0, 77, 59
2, 102776, Control_c, 0, 5, 0
2, 103195, Note_on_c, 0, 77, 0
2, 103200, Note_on_c, 0, 89, 59
2, 103315, Note_on_c, 0, 89, 0
2, 103440, Note_on_c, 0, 89, 59
2, 103520, Control_c, 0, 5, 25
2, 103555, Note_on_c, 0, 89, 0
2, 103680, Note_on_c, 0, 89, 59
2, 103720, Control_c, 0, 5, 0
2, 104496, Control_c, 0, 5, 30
2, 104635, Note_on_c, 0, 89, 0
2, 104640, Note_on_c, 0, 77, 59
2, 104696, Control_c, 0, 5, 0
2, 105115, Note_on_c, 0, 77, 0
2, 105120, Note_on_c, 0, 89, 59
2, 105235, Note_on_c, 0, 89, 0
2, 105360, Note_on_c, 0, 89, 59
2, 105440, Control_c, 0, 5, 25
2, 105475, Note_on_c, 0, 89, 0
2, 105600, Note_on_c, 0, 101, 59
2, 105640, Control_c, 0, 5, 0
2, 106416, Control_c, 0, 5, 10
2, 106555, Note_on_c, 0, 101, 0
2, 106560, Note_on_c, 0, 77, 59
2, 106616, Control_c, 0, 5, 0
2, 107035, Note_on_c, 0, 77, 0
2, 107040, Note_on_c, 0, 89, 59
2, 107155, Note_on_c, 0, 89, 0
2, 107280, Note_on_c, 0, 89, 59
2, 107360, Control_c, 0, 5, 25
2, 107395, Note_on_c, 0, 89, 0
2, 107520, Note_on_c, 0, 89, 59
2, 107560, Control_c, 0, 5, 0
2, 108336, Control_c, 0, 5, 30
2, 108475, Note_on_c, 0, 89, 0
2, 108480, Note_on_c, 0, 77, 59
2, 108536, Control_c, 0, 5, 0
2, 108955, Note_on_c, 0, 77, 0
2, 108960, Note_on_c, 0, 89, 59
2, 109075, Note_on_c, 0, 89, 0
2, 109200, Note_on_c, 0, 89, 59
2, 109280, Control_c, 0, 5, 25
2, 109315, Note_on_c, 0, 89, 0
2, 109440, Note_on_c, 0, 101, 59
2, 109480, Control_c, 0, 5, 0
2, 110256, Control_c, 0, 5, 10
2, 110395, Note_on_c, 0, 101, 0
2, 110400, Note_on_c, 0, 77, 59
2, 110456, Control_c, 0, 5, 0
2, 110875, Note_on_c, 0, 77, 0
2, 110880, Note_on_c, 0, 89, 59
2, 110995, Note_on_c, 0, 89, 0
2, 111120, Note_on_c, 0, 89, 59
2, 111200, Control_c, 0, 5, 25
2, 111235, Note_on_c, 0, 89, 0
2, 111360, Note_on_c, 0, 89, 59
2, 111400, Control_c, 0, 5, 0
2, 112176, Control_c, 0, 5, 30
2, 112315, Note_on_c, 0, 89, 0
2, 112320, Note_on_c, 0, 77, 59
2, 112376, Control_c, 0, 5, 0
2, 112795, Note_on_c, 0, 77, 0
2, 112800, Note_on_c, 0, 89, 59
2, 112915, Note_on_c, 0, 89, 0
2, 113040, Note_on_c, 0, 89, 59
2, 113120, Control_c, 0, 5, 25
2, 113155, Note_on_c, 0, 89, 0
2, 113280, Note_on_c, 0, 101, 59
2, 113320, Control_c, 0, 5, 0
2, 114096, Control_c, 0, 5, 10
2, 114235, Note_on_c, 0, 101, 0
2, 114240, Note_on_c, 0, 77, 59
2, 114296, Control_c, 0, 5, 0
2, 114715, Note_on_c, 0, 77, 0
2, 114720, Note_on_c, 0, 89, 59
2, 114835, Note_on_c, 0, 89, 0
2, 114960, Note_on_c, 0, 89, 59
2, 115040, Control_c, 0, 5, 25
2, 115075, Note_on_c, 0, 89, 0
2, 115200, Note_on_c, 0, 89, 59
2, 116016, Control_c, 0, 5, 30
2, 116155, Note_on_c, 0, 89, 0
2, 116160, Note_on_c, 0, 77, 59
2, 116216, Control_c, 0, 5, 0
2, 116635, Note_on_c, 0, 77, 0
2, 116640, Note_on_c, 0, 89, 59
2, 116755, Note_on_c, 0, 89, 0
2, 116880, Note_on_c, 0, 89, 59
2, 116960, Control_c, 0, 5, 25
2, 116995, Note_on_c, 0, 89, 0
2, 117120, Note_on_c, 0, 101, 59
2, 117160, Control_c, 0, 5, 0
2, 117936, Control_c, 0, 5, 10
2, 118075, Note_on_c, 0, 101, 0
2, 118080, Note_on_c, 0, 77, 59
2, 118136, Control_c, 0, 5, 0
2, 118555, Note_on_c, 0, 77, 0
2, 118560, Note_on_c, 0, 89, 59
2, 118675, Note_on_c, 0, 89, 0
2, 118800, Note_on_c, 0, 89, 59
2, 118880, Control_c, 0, 5, 25
2, 118915, Note_on_c, 0, 89, 0
2, 119040, Note_on_c, 0, 89, 59
2, 119080, Control_c, 0, 5, 0
2, 119856, Control_c, 0, 5, 30
2, 119995, Note_on_c, 0, 89, 0
2, 120000, Note_on_c, 0, 77, 59
2, 120056, Control_c, 0, 5, 0
2, 120475, Note_on_c, 0, 77, 0
2, 120480, Note_on_c, 0, 89, 59
2, 120595, Note_on_c, 0, 89, 0
2, 120720, Note_on_c, 0, 89, 59
2, 120800, Control_c, 0, 5, 25
2, 120835, Note_on_c, 0, 89, 0
2, 120960, Note_on_c, 0, 101, 59
2, 121000, Control_c, 0, 5, 0
2, 121776, Control_c, 0, 5, 10
2, 121915, Note_on_c, 0, 101, 0
2, 121920, Note_on_c, 0, 77, 59
2, 121976, Control_c, 0, 5, 0
2, 122395, Note_on_c, 0, 77, 0
2, 122400, Note_on_c, 0, 89, 59
2, 122515, Note_on_c, 0, 89, 0
2, 122640, Note_on_c, 0, 89, 59
2, 122720, Control_c, 0, 5, 25
2, 122755, Note_on_c, 0, 89, 0
2, 122880, Note_on_c, 0, 89, 59
2, 123696, Control_c, 0, 5, 30
2, 123835, Note_on_c, 0, 89, 0
2, 123840, Note_on_c, 0, 77, 59
2, 123896, Control_c, 0, 5, 0
2, 124315, Note_on_c, 0, 77, 0
2, 124320, Note_on_c, 0, 89, 59
2, 124435, Note_on_c, 0, 89, 0
2, 124560, Note_on_c, 0, 89, 59
2, 124640, Control_c, 0, 5, 25
2, 124675, Note_on_c, 0, 89, 0
2, 124800, Note_on_c, 0, 101, 59
2, 124840, Control_c, 0, 5, 0
2, 125616, Control_c, 0, 5, 10
2, 125755, Note_on_c, 0, 101, 0
2, 125760, Note_on_c, 0, 77, 59
2, 125816, Control_c, 0, 5, 0
2, 126235, Note_on_c, 0, 77, 0
2, 126240, Note_on_c, 0, 89, 59
2, 126355, Note_on_c, 0, 89, 0
2, 126480, Note_on_c, 0, 89, 59
2, 126560, Control_c, 0, 5, 25
2, 126595, Note_on_c, 0, 89, 0
2, 126720, Note_on_c, 0, 89, 59
2, 126760, Control_c, 0, 5, 0
2, 127536, Control_c, 0, 5, 30
2, 127675, Note_on_c, 0, 89, 0
2, 127680, Note_on_c, 0, 77, 59
2, 127736, Control_c, 0, 5, 0
2, 128155, Note_on_c, 0, 77, 0
2, 128160, Note_on_c, 0, 89, 59
2, 128275, Note_on_c, 0, 89, 0
2, 128400, Note_on_c, 0, 89, 59
2, 128480, Control_c, 0, 5, 25
2, 128515, Note_on_c, 0, 89, 0
2, 128640, Note_on_c, 0, 101, 59
2, 128680, Control_c, 0, 5, 0
2, 129456, Control_c, 0, 5, 10
2, 129595, Note_on_c, 0, 101, 0
2, 129600, Note_on_c, 0, 77, 59
2, 129656, Control_c, 0, 5, 0
2, 130075, Note_on_c, 0, 77, 0
2, 130080, Note_on_c, 0, 89, 59
2, 130195, Note_on_c, 0, 89, 0
2, 130320, Note_on_c, 0, 89, 59
2, 130400, Control_c, 0, 5, 25
2, 130435, Note_on_c, 0, 89, 0
2, 130560, Note_on_c, 0, 89, 59
2, 130600, Control_c, 0, 5, 0
2, 131376, Control_c, 0, 5, 30
2, 131515, Note_on_c, 0, 89, 0
2, 131520, Note_on_c, 0, 77, 59
2, 131576, Control_c, 0, 5, 0
2, 131995, Note_on_c, 0, 77, 0
2, 132000, Note_on_c, 0, 89, 59
2, 132115, Note_on_c, 0, 89, 0
2, 132240, Note_on_c, 0, 89, 59
2, 132320, Control_c, 0, 5, 25
2, 132355, Note_on_c, 0, 89, 0
2, 132480, Note_on_c, 0, 101, 59
2, 132520, Control_c, 0, 5, 0
2, 133296, Control_c, 0, 5, 10
2, 133435, Note_on_c, 0, 101, 0
2, 133440, Note_on_c, 0, 77, 59
2, 133496, Control_c, 0, 5, 0
2, 133915, Note_on_c, 0, 77, 0
2, 133920, Note_on_c, 0, 89, 59
2, 134035, Note_on_c, 0, 89, 0
2, 134160, Note_on_c, 0, 89, 59
2, 134240, Control_c, 0, 5, 25
2, 134275, Note_on_c, 0, 89, 0
2, 134400, Note_on_c, 0, 89, 59
2, 134440, Control_c, 0, 5, 0
2, 135216, Control_c, 0, 5, 30
2, 135355, Note_on_c, 0, 89, 0
2, 135360, Note_on_c, 0, 77, 59
2, 135416, Control_c, 0, 5, 0
2, 135835, Note_on_c, 0, 77, 0
2, 135840, Note_on_c, 0, 89, 59
2, 135955, Note_on_c, 0, 89, 0
2, 136080, Note_on_c, 0, 89, 59
2, 136160, Control_c, 0, 5, 25
2, 136195, Note_on_c, 0, 89, 0
2, 136320, Note_on_c, 0, 101, 59
2, 136360, Control_c, 0, 5, 0
2, 137136, Control_c, 0, 5, 10
2, 137275, Note_on_c, 0, 101, 0
2, 137280, Note_on_c, 0, 77, 59
2, 137336, Control_c, 0, 5, 0
2, 137755, Note_on_c, 0, 77, 0
2, 137760, Note_on_c, 0, 89, 59
2, 137875, Note_on_c, 0, 89, 0
2, 138000, Note_on_c, 0, 89, 59
2, 138080, Control_c, 0, 5, 25
2, 138115, Note_on_c, 0, 89, 0
2, 138240, Note_on_c, 0, 89, 59
2, 139056, Control_c, 0, 5, 30
2, 139195, Note_on_c, 0, 89, 0
2, 139200, Note_on_c, 0, 77, 59
2, 139256, Control_c, 0, 5, 0
2, 139675, Note_on_c, 0, 77, 0
2, 139680, Note_on_c, 0, 89, 59
2, 139795, Note_on_c, 0, 89, 0
2, 139920, Note_on_c, 0, 89, 59
2, 140000, Control_c, 0, 5, 25
2, 140035, Note_on_c, 0, 89, 0
2, 140160, Note_on_c, 0, 101, 59
2, 140200, Control_c, 0, 5, 0
2, 140976, Control_c, 0, 5, 10
2, 141115, Note_on_c, 0, 101, 0
2, 141120, Note_on_c, 0, 77, 59
2, 141176, Control_c, 0, 5, 0
2, 141595, Note_on_c, 0, 77, 0
2, 141600, Note_on_c, 0, 89, 59
2, 141715, Note_on_c, 0, 89, 0
2, 141840, Note_on_c, 0, 89, 59
2, 141920, Control_c, 0, 5, 25
2, 141955, Note_on_c, 0, 89, 0
2, 142080, Note_on_c, 0, 89, 59
2, 142120, Control_c, 0, 5, 0
2, 142896, Control_c, 0, 5, 30
2, 143035, Note_on_c, 0, 89, 0
2, 143040, Note_on_c, 0, 77, 59
2, 143096, Control_c, 0, 5, 0
2, 143515, Note_on_c, 0, 77, 0
2, 143520, Note_on_c, 0, 89, 59
2, 143635, Note_on_c, 0, 89, 0
2, 143760, Note_on_c, 0, 89, 59
2, 143840, Control_c, 0, 5, 25
2, 143875, Note_on_c, 0, 89, 0
2, 144000, Note_on_c, 0, 101, 59
2, 144040, Control_c, 0, 5, 0
2, 144816, Control_c, 0, 5, 10
2, 144955, Note_on_c, 0, 101, 0
2, 144960, Note_on_c, 0, 77, 59
2, 145016, Control_c, 0, 5, 0
2, 145435, Note_on_c, 0, 77, 0
2, 145440, Note_on_c, 0, 89, 59
2, 145555, Note_on_c, 0, 89, 0
2, 145680, Note_on_c, 0, 89, 59
2, 145760, Control_c, 0, 5, 25
2, 145795, Note_on_c, 0, 89, 0
2, 145920, Note_on_c, 0, 89, 59
2, 145960, Control_c, 0, 5, 0
2, 146736, Control_c, 0, 5, 30
2, 146875, Note_on_c, 0, 89, 0
2, 146880, Note_on_c, 0, 77, 59
2, 146936, Control_c, 0, 5, 0
2, 147355, Note_on_c, 0, 77, 0
2, 147360, Note_on_c, 0, 89, 59
2, 147475, Note_on_c, 0, 89, 0
2, 147600, Note_on_c, 0, 89, 59
2, 147680, Control_c, 0, 5, 25
2, 147715, Note_on_c, 0, 89, 0
2, 147840, Note_on_c, 0, 101, 59
2, 147880, Control_c, 0, 5, 0
2, 148656, Control_c, 0, 5, 10
2, 148795, Note_on_c, 0, 101, 0
2, 148800, Note_on_c, 0, 77, 59
2, 148856, Control_c, 0, 5, 0
2, 149275, Note_on_c, 0, 77, 0
2, 149280, Note_on_c, 0, 89, 59
2, 149395, Note_on_c, 0, 89, 0
2, 149520, Note_on_c, 0, 89, 59
2, 149600, Control_c, 0, 5, 25
2, 149635, Note_on_c, 0, 89, 0
2, 149760, Note_on_c, 0, 89, 59
2, 149800, Control_c, 0, 5, 0
2, 150576, Control_c, 0, 5, 30
2, 150715, Note_on_c, 0, 89, 0
2, 150720, Note_on_c, 0, 77, 59
2, 150776, Control_c, 0, 5, 0
2, 151195, Note_on_c, 0, 77, 0
2, 151200, Note_on_c, 0, 89, 59
2, 151315, Note_on_c, 0, 89, 0
2, 151440, Note_on_c, 0, 89, 59
2, 151520, Control_c, 0, 5, 25
2, 151555, Note_on_c, 0, 89, 0
2, 151680, Note_on_c, 0, 101, 59
2, 151720, Control_c, 0, 5, 0
2, 152496, Control_c, 0, 5, 10
2, 152635, Note_on_c, 0, 101, 0
2, 152640, Note_on_c, 0, 77, 59
2, 152696, Control_c, 0, 5, 0
2, 153115, Note_on_c, 0, 77, 0
2, 153120, Note_on_c, 0, 89, 59
2, 153235, Note_on_c, 0, 89, 0
2, 153360, Note_on_c, 0, 89, 59
2, 153440, Control_c, 0, 5, 25
2, 153475, Note_on_c, 0, 89, 0
2, 153600, Note_on_c, 0, 89, 59
2, 154416, Control_c, 0, 5, 30
2, 154555, Note_on_c, 0, 89, 0
2, 154560, Note_on_c, 0, 77, 59
2, 154616, Control_c, 0, 5, 0
2, 155035, Note_on_c, 0, 77, 0
2, 155040, Note_on_c, 0, 89, 59
2, 155155, Note_on_c, 0, 89, 0
2, 155280, Note_on_c, 0, 89, 59
2, 155360, Control_c, 0, 5, 25
2, 155395, Note_on_c, 0, 89, 0
2, 155520, Note_on_c, 0, 101, 59
2, 155560, Control_c, 0, 5, 0
2, 156336, Control_c, 0, 5, 10
2, 156475, Note_on_c, 0, 101, 0
2, 156480, Note_on_c, 0, 77, 59
2, 156536, Control_c, 0, 5, 0
2, 156955, Note_on_c, 0, 77, 0
2, 156960, Note_on_c, 0, 89, 59
2, 157075, Note_on_c, 0, 89, 0
2, 157200, Note_on_c, 0, 89, 59
2, 157280, Control_c, 0, 5, 25
2, 157315, Note_on_c, 0, 89, 0
2, 157440, Note_on_c, 0, 89, 59
2, 157480, Control_c, 0, 5, 0
2, 158256, Control_c, 0, 5, 30
2, 158395, Note_on_c, 0, 89, 0
2, 158400, Note_on_c, 0, 77, 59
2, 158456, Control_c, 0, 5, 0
2, 158875, Note_on_c, 0, 77, 0
2, 158880, Note_on_c, 0, 89, 59
2, 158995, Note_on_c, 0, 89, 0
2, 159120, Note_on_c, 0, 89, 59
2, 159200, Control_c, 0, 5, 25
2, 159235, Note_on_c, 0, 89, 0
2, 159360, Note_on_c, 0, 101, 59
2, 159400, Control_c, 0, 5, 0
2, 160176, Control_c, 0, 5, 10
2, 160315, Note_on_c, 0, 101, 0
2, 160320, Note_on_c, 0, 77, 59
2, 160376, Control_c, 0, 5, 0
2, 160795, Note_on_c, 0, 77, 0
2, 160800, Note_on_c, 0, 89, 59
2, 160915, Note_on_c, 0, 89, 0
2, 161040, Note_on_c, 0, 89, 59
2, 161120, Control_c, 0, 5, 25
2, 161155, Note_on_c, 0, 89, 0
2, 161280, Note_on_c, 0, 89, 59
2, 161320, Control_c, 0, 5, 0
2, 162096, Control_c, 0, 5, 30
2, 162235, Note_on_c, 0, 89, 0
2, 162240, Note_on_c, 0, 77, 59
2, 162296, Control_c, 0, 5, 0
2, 162715, Note_on_c, 0, 77, 0
2, 162720, Note_on_c, 0, 89, 59
2, 162835, Note_on_c, 0, 89, 0
2, 162960, Note_on_c, 0, 89, 59
2, 163040, Control_c, 0, 5, 25
2, 163075, Note_on_c, 0, 89, 0
2, 163200, Note_on_c, 0, 101, 59
2, 163240, Control_c, 0, 5, 0
2, 164016, Control_c, 0, 5, 10
2, 164155, Note_on_c, 0, 101, 0
2, 164160, Note_on_c, 0, 77, 59
2, 164216, Control_c, 0, 5, 0
2, 164635, Note_on_c, 0, 77, 0
2, 164640, Note_on_c, 0, 89, 59
2, 164755, Note_on_c, 0, 89, 0
2, 164880, Note_on_c, 0, 89, 59
2, 164960, Control_c, 0, 5, 25
2, 164995, Note_on_c, 0, 89, 0
2, 165120, Note_on_c, 0, 89, 59
2, 165160, Control_c, 0, 5, 0
2, 165936, Control_c, 0, 5, 30
2, 166075, Note_on_c, 0, 89, 0
2, 166080, Note_on_c, 0, 77, 59
2, 166136, Control_c, 0, 5, 0
2, 166555, Note_on_c, 0, 77, 0
2, 166560, Note_on_c, 0, 89, 59
2, 166675, Note_on_c, 0, 89, 0
2, 166800, Note_on_c, 0, 89, 59
2, 166880, Control_c, 0, 5, 25
2, 166915, Note_on_c, 0, 89, 0
2, 167040, Note_on_c, 0, 101, 59
2, 167080, Control_c, 0, 5, 0
2, 167856, Control_c, 0, 5, 10
2, 167995, Note_on_c, 0, 101, 0
2, 168000, Note_on_c, 0, 77, 59
2, 168056, Control_c, 0, 5, 0
2, 168475, Note_on_c, 0, 77, 0
2, 168480, Note_on_c, 0, 89, 59
2, 168595, Note_on_c, 0, 89, 0
2, 168720, Note_on_c, 0, 89, 59
2, 168800, Control_c, 0, 5, 25
2, 168835, Note_on_c, 0, 89, 0
2, 168960, Note_on_c, 0, 89, 59
2, 169776, Control_c, 0, 5, 30
2, 169915, Note_on_c, 0, 89, 0
2, 169920, Note_on_c, 0, 77, 59
2, 169976, Control_c, 0, 5, 0
2, 170395, Note_on_c, 0, 77, 0
2, 170400, Note_on_c, 0, 89, 59
2, 170515, Note_on_c, 0, 89, 0
2, 170640, Note_on_c, 0, 89, 59
2, 170720, Control_c, 0, 5, 25
2, 170755, Note_on_c, 0, 89, 0
2, 170880, Note_on_c, 0, 101, 59
2, 170920, Control_c, 0, 5, 0
2, 171696, Control_c, 0, 5, 10
2, 171835, Note_on_c, 0, 101, 0
2, 171840, Note_on_c, 0, 77, 59
2, 171896, Control_c, 0, 5, 0
2, 172315, Note_on_c, 0, 77, 0
2, 172320, Note_on_c, 0, 89, 59
2, 172435, Note_on_c, 0, 89, 0
2, 172560, Note_on_c, 0, 89, 59
2, 172640, Control_c, 0, 5, 25
2, 172675, Note_on_c, 0, 89, 0
2, 172800, Note_on_c, 0, 89, 59
2, 172840, Control_c, 0, 5, 0
2, 173616, Control_c, 0, 5, 30
2, 173755, Note_on_c, 0, 89, 0
2, 173760, Note_on_c, 0, 77, 59
2, 173816, Control_c, 0, 5, 0
2, 174235, Note_on_c, 0, 77, 0
2, 174240, Note_on_c, 0, 89, 59
2, 174355, Note_on_c, 0, 89, 0
2, 174480, Note_on_c, 0, 89, 59
2, 174560, Control_c, 0, 5, 25
2, 174595, Note_on_c, 0, 89, 0
2, 174720, Note_on_c, 0, 101, 59
2, 174760, Control_c, 0, 5, 0
2, 175536, Control_c, 0, 5, 10
2, 175675, Note_on_c, 0, 101, 0
2, 175680, Note_on_c, 0, 77, 59
2, 175736, Control_c, 0, 5, 0
2, 176155, Note_on_c, 0, 77, 0
2, 176160, Note_on_c, 0, 89, 59
2, 176275, Note_on_c, 0, 89, 0
2, 176400, Note_on_c, 0, 89, 59
2, 176480, Control_c, 0, 5, 25
2, 176515, Note_on_c, 0, 89, 0
2, 176640, Note_on_c, 0, 89, 59
2, 176680, Control_c, 0, 5, 0
2, 177456, Control_c, 0, 5, 30
2, 177595, Note_on_c, 0, 89, 0
2, 177600, Note_on_c, 0, 77, 59
2, 177656, Control_c, 0, 5, 0
2, 178075, Note_on_c, 0, 77, 0
2, 178080, Note_on_c, 0, 89, 59
2, 178195, Note_on_c, 0, 89, 0
2, 178320, Note_on_c, 0, 89, 59
2, 178400, Control_c, 0, 5, 25
2, 178435, Note_on_c, 0, 89, 0
2, 178560, Note_on_c, 0, 101, 59
2, 178600, Control_c, 0, 5, 0
2, 179376, Control_c, 0, 5, 10
2, 179515, Note_on_c, 0, 101, 0
2, 179520, Note_on_c, 0, 77, 59
2, 179576, Control_c, 0, 5, 0
2, 179995, Note_on_c, 0, 77, 0
2, 180000, Note_on_c, 0, 89, 59
2, 180115, Note_on_c, 0, 89, 0
2, 180240, Note_on_c, 0, 89, 59
2, 180320, Control_c, 0, 5, 25
2, 180355, Note_on_c, 0, 89, 0
2, 180480, Note_on_c, 0, 89, 59
2, 180520, Control_c, 0, 5, 0
2, 181296, Control_c, 0, 5, 30
2, 181435, Note_on_c, 0, 89, 0
2, 181440, Note_on_c, 0, 77, 59
2, 181496, Control_c, 0, 5, 0
2, 181915, Note_on_c, 0, 77, 0
2, 181920, Note_on_c, 0, 89, 59
2, 182035, Note_on_c, 0, 89, 0
2, 182160, Note_on_c, 0, 89, 59
2, 182240, Control_c, 0, 5, 25
2, 182275, Note_on_c, 0, 89, 0
2, 182400, Note_on_c, 0, 101, 59
2, 182440, Control_c, 0, 5, 0
2, 183216, Control_c, 0, 5, 10
2, 183355, Note_on_c, 0, 101, 0
2, 183360, Note_on_c, 0, 77, 59
2, 183416, Control_c, 0, 5, 0
2, 183835, Note_on_c, 0, 77, 0
2, 183840, Note_on_c, 0, 89, 59
2, 183955, Note_on_c, 0, 89, 0
2, 184080, Note_on_c, 0, 89, 59
2, 184160, Control_c, 0, 5, 25
2, 184195, Note_on_c, 0, 89, 0
2, 184320, Note_on_c, 0, 89, 59
2, 185136, Control_c, 0, 5, 30
2, 185275, Note_on_c, 0, 89, 0
2, 185280, Note_on_c, 0, 77, 59
2, 185336, Control_c, 0, 5, 0
2, 185755, Note_on_c, 0, 77, 0
2, 185760, Note_on_c, 0, 89, 59
2, 185875, Note_on_c, 0, 89, 0
2, 186000, Note_on_c, 0, 89, 59
2, 186080, Control_c, 0, 5, 25
2, 186115, Note_on_c, 0, 89, 0
2, 186240, Note_on_c, 0, 101, 59
2, 186280, Control_c, 0, 5, 0
2, 187056, Control_c, 0, 5, 10
2, 187195, Note_on_c, 0, 101, 0
2, 187200, Note_on_c, 0, 77, 59
2, 187256, Control_c, 0, 5, 0
2, 187675, Note_on_c, 0, 77, 0
2, 187680, Note_on_c, 0, 89, 59
2, 187795, Note_on_c, 0, 89, 0
2, 187920, Note_on_c, 0, 89, 59
2, 188000, Control_c, 0, 5, 25
2, 188035, Note_on_c, 0, 89, 0
2, 188160, Note_on_c, 0, 89, 59
2, 188200, Control_c, 0, 5, 0
2, 188976, Control_c, 0, 5, 30
2, 189115, Note_on_c, 0, 89, 0
2, 189120, Note_on_c, 0, 77, 59
2, 189176, Control_c, 0, 5, 0
2, 189595, Note_on_c, 0, 77, 0
2, 189600, Note_on_c, 0, 89, 59
2, 189715, Note_on_c, 0, 89, 0
2, 189840, Note_on_c, 0, 89, 59
2, 189920, Control_c, 0, 5, 25
2, 189955, Note_on_c, 0, 89, 0
2, 190080, Note_on_c, 0, 101, 59
2, 190120, Control_c, 0, 5, 0
2, 190896, Control_c, 0, 5, 10
2, 191035, Note_on_c, 0, 101, 0
2, 191040, Note_on_c, 0, 77, 59
2, 191096, Control_c, 0, 5, 0
2, 191515, Note_on_c, 0, 77, 0
2, 191520, Note_on_c, 0, 89, 59
2, 191635, Note_on_c, 0, 89, 0
2, 191760, Note_on_c, 0, 89, 59
2, 191840, Control_c, 0, 5, 25
2, 191875, Note_on_c, 0, 89, 0
2, 192000, Note_on_c, 0, 89, 59
2, 192040, Control_c, 0, 5, 0
2, 192816, Control_c, 0, 5, 30
2, 192955, Note_on_c, 0, 89, 0
2, 192960, Note_on_c, 0, 77, 59
2, 193016, Control_c, 0, 5, 0
2, 193435, Note_on_c, 0, 77, 0
2, 193440, Note_on_c, 0, 89, 59
2, 193555, Note_on_c, 0, 89, 0
2, 193680, Note_on_c, 0, 89, 59
2, 193760, Control_c, 0, 5, 25
2, 193795, Note_on_c, 0, 89, 0
2, 193920, Note_on_c, 0, 101, 59
2, 193960, Control_c, 0, 5, 0
2, 194736, Control_c, 0, 5, 10
2, 194875, Note_on_c, 0, 101, 0
2, 194880, Note_on_c, 0, 77, 59
2, 194936, Control_c, 0, 5, 0
2, 195355, Note_on_c, 0, 77, 0
2, 195360, Note_on_c, 0, 89, 59
2, 195475, Note_on_c, 0, 89, 0
2, 195600, Note_on_c, 0, 89, 59
2, 195680, Control_c, 0, 5, 25
2, 195715, Note_on_c, 0, 89, 0
2, 195840, Note_on_c, 0, 89, 59
2, 195880, Control_c, 0, 5, 0
2, 196656, Control_c, 0, 5, 30
2, 196795, Note_on_c, 0, 89, 0
2, 196800, Note_on_c, 0, 77, 59
2, 196856, Control_c, 0, 5, 0
2, 197275, Note_on_c, 0, 77, 0
2, 197280, Note_on_c, 0, 89, 59
2, 197395, Note_on_c, 0, 89, 0
2, 197520, Note_on_c, 0, 89, 59
2, 197600, Control_c, 0, 5, 25
2, 197635, Note_on_c, 0, 89, 0
2, 197760, Note_on_c, 0, 101, 59
2, 197800, Control_c, 0, 5, 0
2, 198576, Control_c, 0, 5, 10
2, 198715, Note_on_c, 0, 101, 0
2, 198720, Note_on_c, 0, 77, 59
2, 198776, Control_c, 0, 5, 0
2, 199195, Note_on_c, 0, 77, 0
2, 199200, Note_on_c, 0, 89, 59
2, 199315, Note_on_c, 0, 89, 0
2, 199440, Note_on_c, 0, 89, 59
2, 199520, Control_c, 0, 5, 25
2, 199555, Note_on_c, 0, 89, 0
2, 199680, Note_on_c, 0, 89, 59
2, 200496, Control_c, 0, 5, 30
2, 200635, Note_on_c, 0, 89, 0
2, 200640, Note_on_c, 0, 77, 59
2, 200696, Control_c, 0, 5, 0
2, 201115, Note_on_c, 0, 77, 0
2, 201120, Note_on_c, 0, 89, 59
2, 201235, Note_on_c, 0, 89, 0
2, 201360, Note_on_c, 0, 89, 59
2, 201440, Control_c, 0, 5, 25
2, 201475, Note_on_c, 0, 89, 0
2, 201600, Note_on_c, 0, 101, 59
2, 201640, Control_c, 0, 5, 0
2, 202416, Control_c, 0, 5, 10
2, 202555, Note_on_c, 0, 101, 0
2, 202560, Note_on_c, 0, 77, 59
2, 202616, Control_c, 0, 5, 0
2, 203035, Note_on_c, 0, 77, 0
2, 203040, Note_on_c, 0, 89, 59
2, 203155, Note_on_c, 0, 89, 0
2, 203280, Note_on_c, 0, 89, 59
2, 203360, Control_c, 0, 5, 25
2, 203395, Note_on_c, 0, 89, 0
2, 203520, Note_on_c, 0, 89, 59
2, 203560, Control_c, 0, 5, 0
2, 204336, Control_c, 0, 5, 30
2, 204475, Note_on_c, 0, 89, 0
2, 204480, Note_on_c, 0, 77, 59
2, 204536, Control_c, 0, 5, 0
2, 204955, Note_on_c, 0, 77, 0
2, 204960, Note_on_c, 0, 89, 59
2, 205075, Note_on_c, 0, 89, 0
2, 205200, Note_on_c, 0, 89, 59
2, 205280, Control_c, 0, 5, 25
2, 205315, Note_on_c, 0, 89, 0
2, 205440, Note_on_c, 0, 101, 59
2, 205480, Control_c, 0, 5, 0
2, 206256, Control_c, 0, 5, 10
2, 206395, Note_on_c, 0, 101, 0
2, 206400, Note_on_c, 0, 77, 59
2, 206456, Control_c, 0, 5, 0
2, 206875, Note_on_c, 0, 77, 0
2, 206880, Note_on_c, 0, 89, 59
2, 206995, Note_on_c, 0, 89, 0
2, 207120, Note_on_c, 0, 89, 59
2, 207200, Control_c, 0, 5, 25
2, 207235, Note_on_c, 0, 89, 0
2, 207360, Note_on_c, 0, 89, 59
2, 207400, Control_c, 0, 5, 0
2, 208176, Control_c, 0, 5, 30
2, 208315, Note_on_c, 0, 89, 0
2, 208320, Note_on_c, 0, 77, 59
2, 208376, Control_c, 0, 5, 0
2, 208795, Note_on_c, 0, 77, 0
2, 208800, Note_on_c, 0, 89, 59
2, 208915, Note_on_c, 0, 89, 0
2, 209040, Note_on_c, 0, 89, 59
2, 209120, Control_c, 0, 5, 25
2, 209155, Note_on_c, 0, 89, 0
2, 209280, Note_on_c, 0, 101, 59
2, 209320, Control_c, 0, 5, 0
2, 210096, Control_c, 0, 5, 10
2, 210235, Note_on_c, 0, 101, 0
2, 210240, Note_on_c, 0, 77, 59
2, 210296, Control_c, 0, 5, 0
2, 210715, Note_on_c, 0, 77, 0
2, 210720, Note_on_c, 0, 89, 59
2, 210835, Note_on_c, 0, 89, 0
2, 210960, Note_on_c, 0, 89, 59
2, 211040, Control_c, 0, 5, 25
2, 211075, Note_on_c, 0, 89, 0
2, 211200, Note_on_c, 0, 89, 59
2, 211240, Control_c, 0, 5, 0
2, 212016, Control_c, 0, 5, 30
2, 212155, Note_on_c, 0, 89, 0
2, 212160, Note_on_c, 0, 77, 59
2, 212216, Control_c, 0, 5, 0
2, 212635, Note_on_c, 0, 77, 0
2, 212640, Note_on_c, 0, 89, 59
2, 212755, Note_on_c, 0, 89, 0
2, 212880, Note_on_c, 0, 89, 59
2, 212960, Control_c, 0, 5, 25
2, 212995, Note_on_c, 0, 89, 0
2, 213120, Note_on_c, 0, 101, 59
2, 213160, Control_c, 0, 5, 0
2, 213936, Control_c, 0, 5, 10
2, 214075, Note_on_c, 0, 101, 0
2, 214080, Note_on_c, 0, 77, 59
2, 214136, Control_c, 0, 5, 0
2, 214555, Note_on_c, 0, 77, 0
2, 214560, Note_on_c, 0, 89, 59
2, 214675, Note_on_c, 0, 89, 0
2, 214800, Note_on_c, 0, 89, 59
2, 214880, Control_c, 0, 5, 25
2, 214915, Note_on_c, 0, 89, 0
2, 214915, End_track
3, 0, Start_track
3, 487, Program_c, 1, 33
3, 488, Control_c, 1, 7, 99
3, 488, Control_c, 1, 10, 64
3, 30000, Note_on_c, 1, 29, 120
3, 30115, Note_on_c, 1, 29, 0
3, 30240, Note_on_c, 1, 27, 120
3, 30595, Note_on_c, 1, 27, 0
3, 30720, Note_on_c, 1, 29, 120
3, 31075, Note_on_c, 1, 29, 0
3, 45360, Note_on_c, 1, 29, 120
3, 45475, Note_on_c, 1, 29, 0
3, 45600, Note_on_c, 1, 27, 120
3, 45955, Note_on_c, 1, 27, 0
3, 46080, Note_on_c, 1, 29, 120
3, 46435, Note_on_c, 1, 29, 0
3, 53040, Note_on_c, 1, 29, 120
3, 53155, Note_on_c, 1, 29, 0
3, 53280, Note_on_c, 1, 27, 120
3, 53635, Note_on_c, 1, 27, 0
3, 53760, Note_on_c, 1, 29, 120
3, 54115, Note_on_c, 1, 29, 0
3, 60720, Note_on_c, 1, 29, 120
3, 60835, Note_on_c, 1, 29, 0
3, 60960, Note_on_c, 1, 27, 120
3, 61315, Note_on_c, 1, 27, 0
3, 61440, Note_on_c, 1, 29, 120
3, 61795, Note_on_c, 1, 29, 0
3, 68400, Note_on_c, 1, 29, 120
3, 68515, Note_on_c, 1, 29, 0
3, 68640, Note_on_c, 1, 27, 120
3, 68995, Note_on_c, 1, 27, 0
3, 69120, Note_on_c, 1, 29, 120
3, 69475, Note_on_c, 1, 29, 0
3, 76080, Note_on_c, 1, 29, 120
3, 76195, Note_on_c, 1, 29, 0
3, 76320, Note_on_c, 1, 27, 120
3, 76675, Note_on_c, 1, 27, 0
3, 76800, Note_on_c, 1, 29, 120
3, 77155, Note_on_c, 1, 29, 0
3, 83760, Note_on_c, 1, 29, 120
3, 83875, Note_on_c, 1, 29, 0
3, 84000, Note_on_c, 1, 27, 120
3, 84355, Note_on_c, 1, 27, 0
3, 84480, Note_on_c, 1, 29, 120
3, 84835, Note_on_c, 1, 29, 0
3, 91440, Note_on_c, 1, 29, 120
3, 91555, Note_on_c, 1, 29, 0
3, 91680, Note_on_c, 1, 27, 120
3, 92035, Note_on_c, 1, 27, 0
3, 92160, Note_on_c, 1, 29, 120
3, 92515, Note_on_c, 1, 29, 0
3, 99120, Note_on_c, 1, 29, 120
3, 99235, Note_on_c, 1, 29, 0
3, 99360, Note_on_c, 1, 27, 120
3, 99715, Note_on_c, 1, 27, 0
3, 99840, Note_on_c, 1, 29, 120
3, 100195, Note_on_c, 1, 29, 0
3, 106800, Note_on_c, 1, 29, 120
3, 106915, Note_on_c, 1, 29, 0
3, 107040, Note_on_c, 1, 27, 120
3, 107395, Note_on_c, 1, 27, 0
3, 107520, Note_on_c, 1, 29, 120
3, 107875, Note_on_c, 1, 29, 0
3, 114480, Note_on_c, 1, 29, 120
3, 114595, Note_on_c, 1, 29, 0
3, 114720, Note_on_c, 1, 27, 120
3, 115075, Note_on_c, 1, 27, 0
3, 115200, Note_on_c, 1, 29, 120
3, 115555, Note_on_c, 1, 29, 0
3, 122160, Note_on_c, 1, 29, 120
3, 122275, Note_on_c, 1, 29, 0
3, 122400, Note_on_c, 1, 27, 120
3, 122755, Note_on_c, 1, 27, 0
3, 122880, Note_on_c, 1, 29, 120
3, 123235, Note_on_c, 1, 29, 0
3, 129840, Note_on_c, 1, 29, 120
3, 129955, Note_on_c, 1, 29, 0
3, 130080, Note_on_c, 1, 27, 120
3, 130435, Note_on_c, 1, 27, 0
3, 130560, Note_on_c, 1, 29, 120
3, 130915, Note_on_c, 1, 29, 0
3, 137520, Note_on_c, 1, 29, 120
3, 137635, Note_on_c, 1, 29, 0
3, 137760, Note_on_c, 1, 27, 120
3, 138115, Note_on_c, 1, 27, 0
3, 138240, Note_on_c, 1, 29, 120
3, 138595, Note_on_c, 1, 29, 0
3, 145200, Note_on_c, 1, 29, 120
3, 145315, Note_on_c, 1, 29, 0
3, 145440, Note_on_c, 1, 27, 120
3, 145795, Note_on_c, 1, 27, 0
3, 145920, Note_on_c, 1, 29, 120
3, 146275, Note_on_c, 1, 29, 0
3, 152880, Note_on_c, 1, 29, 120
3, 152995, Note_on_c, 1, 29, 0
3, 153120, Note_on_c, 1, 27, 120
3, 153475, Note_on_c, 1, 27, 0
3, 153600, Note_on_c, 1, 29, 120
3, 153955, Note_on_c, 1, 29, 0
3, 160560, Note_on_c, 1, 29, 120
3, 160675, Note_on_c, 1, 29, 0
3, 160800, Note_on_c, 1, 27, 120
3, 161155, Note_on_c, 1, 27, 0
3, 161280, Note_on_c, 1, 29, 120
3, 161635, Note_on_c, 1, 29, 0
3, 168240, Note_on_c, 1, 29, 120
3, 168355, Note_on_c, 1, 29, 0
3, 168480, Note_on_c, 1, 27, 120
3, 168835, Note_on_c, 1, 27, 0
3, 168960, Note_on_c, 1, 29, 120
3, 169315, Note_on_c, 1, 29, 0
3, 175920, Note_on_c, 1, 29, 120
3, 176035, Note_on_c, 1, 29, 0
3, 176160, Note_on_c, 1, 27, 120
3, 176515, Note_on_c, 1, 27, 0
3, 176640, Note_on_c, 1, 29, 120
3, 176995, Note_on_c, 1, 29, 0
3, 183600, Note_on_c, 1, 29, 120
3, 183715, Note_on_c, 1, 29, 0
3, 183840, Note_on_c, 1, 27, 120
3, 184195, Note_on_c, 1, 27, 0
3, 184320, Note_on_c, 1, 29, 120
3, 184675, Note_on_c, 1, 29, 0
3, 191280, Note_on_c, 1, 29, 120
3, 191395, Note_on_c, 1, 29, 0
3, 191520, Note_on_c, 1, 27, 120
3, 191875, Note_on_c, 1, 27, 0
3, 192000, Note_on_c, 1, 29, 120
3, 192355, Note_on_c, 1, 29, 0
3, 198960, Note_on_c, 1, 29, 120
3, 199075, Note_on_c, 1, 29, 0
3, 199200, Note_on_c, 1, 27, 120
3, 199555, Note_on_c, 1, 27, 0
3, 199680, Note_on_c, 1, 29, 120
3, 200035, Note_on_c, 1, 29, 0
3, 206640, Note_on_c, 1, 29, 120
3, 206755, Note_on_c, 1, 29, 0
3, 206880, Note_on_c, 1, 27, 120
3, 207235, Note_on_c, 1, 27, 0
3, 207360, Note_on_c, 1, 29, 120
3, 207715, Note_on_c, 1, 29, 0
3, 214320, Note_on_c, 1, 29, 120
3, 214435, Note_on_c, 1, 29, 0
3, 214560, Note_on_c, 1, 27, 120
3, 214915, Note_on_c, 1, 27, 0
3, 215040, Note_on_c, 1, 29, 120
3, 215395, Note_on_c, 1, 29, 0
3, 215395, End_track
4, 0, Start_track
4, 492, Program_c, 2, 38
4, 493, Control_c, 2, 7, 79
4, 493, Control_c, 2, 10, 64
4, 30000, Note_on_c, 2, 29, 120
4, 30115, Note_on_c, 2, 29, 0
4, 30240, Note_on_c, 2, 27, 120
4, 30595, Note_on_c, 2, 27, 0
4, 30720, Note_on_c, 2, 29, 120
4, 31075, Note_on_c, 2, 29, 0
4, 45360, Note_on_c, 2, 29, 120
4, 45475, Note_on_c, 2, 29, 0
4, 45600, Note_on_c, 2, 27, 120
4, 45955, Note_on_c, 2, 27, 0
4, 46080, Note_on_c, 2, 29, 120
4, 46435, Note_on_c, 2, 29, 0
4, 53040, Note_on_c, 2, 29, 120
4, 53155, Note_on_c, 2, 29, 0
4, 53280, Note_on_c, 2, 27, 120
4, 53635, Note_on_c, 2, 27, 0
4, 53760, Note_on_c, 2, 29, 120
4, 54115, Note_on_c, 2, 29, 0
4, 60720, Note_on_c, 2, 29, 120
4, 60835, Note_on_c, 2, 29, 0
4, 60960, Note_on_c, 2, 27, 120
4, 61315, Note_on_c, 2, 27, 0
4, 61440, Note_on_c, 2, 29, 120
4, 61795, Note_on_c, 2, 29, 0
4, 68400, Note_on_c, 2, 29, 120
4, 68515, Note_on_c, 2, 29, 0
4, 68640, Note_on_c, 2, 27, 120
4, 68995, Note_on_c, 2, 27, 0
4, 69120, Note_on_c, 2, 29, 120
4, 69475, Note_on_c, 2, 29, 0
4, 76080, Note_on_c, 2, 29, 120
4, 76195, Note_on_c, 2, 29, 0
4, 76320, Note_on_c, 2, 27, 120
4, 76675, Note_on_c, 2, 27, 0
4, 76800, Note_on_c, 2, 29, 120
4, 77155, Note_on_c, 2, 29, 0
4, 83760, Note_on_c, 2, 29, 120
4, 83875, Note_on_c, 2, 29, 0
4, 84000, Note_on_c, 2, 27, 120
4, 84355, Note_on_c, 2, 27, 0
4, 84480, Note_on_c, 2, 29, 120
4, 84835, Note_on_c, 2, 29, 0
4, 91440, Note_on_c, 2, 29, 120
4, 91555, Note_on_c, 2, 29, 0
4, 91680, Note_on_c, 2, 27, 120
4, 92035, Note_on_c, 2, 27, 0
4, 92160, Note_on_c, 2, 29, 120
4, 92515, Note_on_c, 2, 29, 0
4, 99120, Note_on_c, 2, 29, 120
4, 99235, Note_on_c, 2, 29, 0
4, 99360, Note_on_c, 2, 27, 120
4, 99715, Note_on_c, 2, 27, 0
4, 99840, Note_on_c, 2, 29, 120
4, 100195, Note_on_c, 2, 29, 0
4, 106800, Note_on_c, 2, 29, 120
4, 106915, Note_on_c, 2, 29, 0
4, 107040, Note_on_c, 2, 27, 120
4, 107395, Note_on_c, 2, 27, 0
4, 107520, Note_on_c, 2, 29, 120
4, 107875, Note_on_c, 2, 29, 0
4, 114480, Note_on_c, 2, 29, 120
4, 114595, Note_on_c, 2, 29, 0
4, 114720, Note_on_c, 2, 27, 120
4, 115075, Note_on_c, 2, 27, 0
4, 115200, Note_on_c, 2, 29, 120
4, 115555, Note_on_c, 2, 29, 0
4, 122160, Note_on_c, 2, 29, 120
4, 122275, Note_on_c, 2, 29, 0
4, 122400, Note_on_c, 2, 27, 120
4, 122755, Note_on_c, 2, 27, 0
4, 122880, Note_on_c, 2, 29, 120
4, 123235, Note_on_c, 2, 29, 0
4, 129840, Note_on_c, 2, 29, 120
4, 129955, Note_on_c, 2, 29, 0
4, 130080, Note_on_c, 2, 27, 120
4, 130435, Note_on_c, 2, 27, 0
4, 130560, Note_on_c, 2, 29, 120
4, 130915, Note_on_c, 2, 29, 0
4, 137520, Note_on_c, 2, 29, 120
4, 137635, Note_on_c, 2, 29, 0
4, 137760, Note_on_c, 2, 27, 120
4, 138115, Note_on_c, 2, 27, 0
4, 138240, Note_on_c, 2, 29, 120
4, 138595, Note_on_c, 2, 29, 0
4, 145200, Note_on_c, 2, 29, 120
4, 145315, Note_on_c, 2, 29, 0
4, 145440, Note_on_c, 2, 27, 120
4, 145795, Note_on_c, 2, 27, 0
4, 145920, Note_on_c, 2, 29, 120
4, 146275, Note_on_c, 2, 29, 0
4, 152880, Note_on_c, 2, 29, 120
4, 152995, Note_on_c, 2, 29, 0
4, 153120, Note_on_c, 2, 27, 120
4, 153475, Note_on_c, 2, 27, 0
4, 153600, Note_on_c, 2, 29, 120
4, 153955, Note_on_c, 2, 29, 0
4, 160560, Note_on_c, 2, 29, 120
4, 160675, Note_on_c, 2, 29, 0
4, 160800, Note_on_c, 2, 27, 120
4, 161155, Note_on_c, 2, 27, 0
4, 161280, Note_on_c, 2, 29, 120
4, 161635, Note_on_c, 2, 29, 0
4, 168240, Note_on_c, 2, 29, 120
4, 168355, Note_on_c, 2, 29, 0
4, 168480, Note_on_c, 2, 27, 120
4, 168835, Note_on_c, 2, 27, 0
4, 168960, Note_on_c, 2, 29, 120
4, 169315, Note_on_c, 2, 29, 0
4, 175920, Note_on_c, 2, 29, 120
4, 176035, Note_on_c, 2, 29, 0
4, 176160, Note_on_c, 2, 27, 120
4, 176515, Note_on_c, 2, 27, 0
4, 176640, Note_on_c, 2, 29, 120
4, 176995, Note_on_c, 2, 29, 0
4, 183600, Note_on_c, 2, 29, 120
4, 183715, Note_on_c, 2, 29, 0
4, 183840, Note_on_c, 2, 27, 120
4, 184195, Note_on_c, 2, 27, 0
4, 184320, Note_on_c, 2, 29, 120
4, 184675, Note_on_c, 2, 29, 0
4, 191280, Note_on_c, 2, 29, 120
4, 191395, Note_on_c, 2, 29, 0
4, 191520, Note_on_c, 2, 27, 120
4, 191875, Note_on_c, 2, 27, 0
4, 192000, Note_on_c, 2, 29, 120
4, 192355, Note_on_c, 2, 29, 0
4, 198960, Note_on_c, 2, 29, 120
4, 199075, Note_on_c, 2, 29, 0
4, 199200, Note_on_c, 2, 27, 120
4, 199555, Note_on_c, 2, 27, 0
4, 199680, Note_on_c, 2, 29, 120
4, 200035, Note_on_c, 2, 29, 0
4, 206640, Note_on_c, 2, 29, 120
4, 206755, Note_on_c, 2, 29, 0
4, 206880, Note_on_c, 2, 27, 120
4, 207235, Note_on_c, 2, 27, 0
4, 207360, Note_on_c, 2, 29, 120
4, 207715, Note_on_c, 2, 29, 0
4, 214320, Note_on_c, 2, 29, 120
4, 214435, Note_on_c, 2, 29, 0
4, 214560, Note_on_c, 2, 27, 120
4, 214915, Note_on_c, 2, 27, 0
4, 215040, Note_on_c, 2, 29, 120
4, 215395, Note_on_c, 2, 29, 0
4, 215395, End_track
5, 0, Start_track
5, 497, Program_c, 3, 81
5, 498, Control_c, 3, 7, 79
5, 498, Control_c, 3, 10, 64
5, 46080, Note_on_c, 3, 65, 89
5, 46080, Note_on_c, 3, 53, 89
5, 46195, Note_on_c, 3, 53, 0
5, 46195, Note_on_c, 3, 65, 0
5, 46320, Note_on_c, 3, 65, 89
5, 46320, Note_on_c, 3, 53, 89
5, 46435, Note_on_c, 3, 53, 0
5, 46435, Note_on_c, 3, 65, 0
5, 46800, Note_on_c, 3, 65, 89
5, 46800, Note_on_c, 3, 53, 89
5, 46915, Note_on_c, 3, 53, 0
5, 46915, Note_on_c, 3, 65, 0
5, 47040, Note_on_c, 3, 68, 89
5, 47040, Note_on_c, 3, 56, 89
5, 47155, Note_on_c, 3, 56, 0
5, 47155, Note_on_c, 3, 68, 0
5, 47280, Note_on_c, 3, 68, 89
5, 47280, Note_on_c, 3, 56, 89
5, 47395, Note_on_c, 3, 56, 0
5, 47395, Note_on_c, 3, 68, 0
5, 48000, Note_on_c, 3, 65, 89
5, 48000, Note_on_c, 3, 53, 89
5, 48115, Note_on_c, 3, 53, 0
5, 48115, Note_on_c, 3, 65, 0
5, 48720, Note_on_c, 3, 67, 89
5, 48720, Note_on_c, 3, 55, 89
5, 48835, Note_on_c, 3, 55, 0
5, 48835, Note_on_c, 3, 67, 0
5, 48960, Note_on_c, 3, 68, 89
5, 48960, Note_on_c, 3, 56, 89
5, 49075, Note_on_c, 3, 56, 0
5, 49075, Note_on_c, 3, 68, 0
5, 49200, Note_on_c, 3, 68, 89
5, 49200, Note_on_c, 3, 56, 89
5, 49315, Note_on_c, 3, 56, 0
5, 49315, Note_on_c, 3, 68, 0
5, 49680, Note_on_c, 3, 67, 89
5, 49680, Note_on_c, 3, 55, 89
5, 49795, Note_on_c, 3, 55, 0
5, 49795, Note_on_c, 3, 67, 0
5, 49920, Note_on_c, 3, 65, 89
5, 49920, Note_on_c, 3, 53, 89
5, 50035, Note_on_c, 3, 53, 0
5, 50035, Note_on_c, 3, 65, 0
5, 50160, Note_on_c, 3, 65, 89
5, 50160, Note_on_c, 3, 53, 89
5, 50275, Note_on_c, 3, 53, 0
5, 50275, Note_on_c, 3, 65, 0
5, 50640, Note_on_c, 3, 65, 89
5, 50640, Note_on_c, 3, 53, 89
5, 50755, Note_on_c, 3, 53, 0
5, 50755, Note_on_c, 3, 65, 0
5, 50880, Note_on_c, 3, 68, 89
5, 50880, Note_on_c, 3, 56, 89
5, 50995, Note_on_c, 3, 56, 0
5, 50995, Note_on_c, 3, 68, 0
5, 51120, Note_on_c, 3, 68, 89
5, 51120, Note_on_c, 3, 56, 89
5, 51235, Note_on_c, 3, 56, 0
5, 51235, Note_on_c, 3, 68, 0
5, 51840, Note_on_c, 3, 65, 89
5, 51840, Note_on_c, 3, 53, 89
5, 51955, Note_on_c, 3, 53, 0
5, 51955, Note_on_c, 3, 65, 0
5, 52560, Note_on_c, 3, 67, 89
5, 52560, Note_on_c, 3, 55, 89
5, 52675, Note_on_c, 3, 55, 0
5, 52675, Note_on_c, 3, 67, 0
5, 52800, Note_on_c, 3, 68, 89
5, 52800, Note_on_c, 3, 56, 89
5, 52915, Note_on_c, 3, 56, 0
5, 52915, Note_on_c, 3, 68, 0
5, 53040, Note_on_c, 3, 68, 89
5, 53040, Note_on_c, 3, 56, 89
5, 53155, Note_on_c, 3, 56, 0
5, 53155, Note_on_c, 3, 68, 0
5, 53520, Note_on_c, 3, 67, 89
5, 53520, Note_on_c, 3, 55, 89
5, 53635, Note_on_c, 3, 55, 0
5, 53635, Note_on_c, 3, 67, 0
5, 53760, Note_on_c, 3, 65, 89
5, 53760, Note_on_c, 3, 53, 89
5, 53875, Note_on_c, 3, 53, 0
5, 53875, Note_on_c, 3, 65, 0
5, 54000, Note_on_c, 3, 65, 89
5, 54000, Note_on_c, 3, 53, 89
5, 54115, Note_on_c, 3, 53, 0
5, 54115, Note_on_c, 3, 65, 0
5, 54480, Note_on_c, 3, 65, 89
5, 54480, Note_on_c, 3, 53, 89
5, 54595, Note_on_c, 3, 53, 0
5, 54595, Note_on_c, 3, 65, 0
5, 54720, Note_on_c, 3, 68, 89
5, 54720, Note_on_c, 3, 56, 89
5, 54835, Note_on_c, 3, 56, 0
5, 54835, Note_on_c, 3, 68, 0
5, 54960, Note_on_c, 3, 56, 89
5, 54960, Note_on_c, 3, 68, 89
5, 55075, Note_on_c, 3, 68, 0
5, 55075, Note_on_c, 3, 56, 0
5, 55680, Note_on_c, 3, 53, 89
5, 55680, Note_on_c, 3, 65, 89
5, 55795, Note_on_c, 3, 65, 0
5, 55795, Note_on_c, 3, 53, 0
5, 56400, Note_on_c, 3, 55, 89
5, 56400, Note_on_c, 3, 67, 89
5, 56515, Note_on_c, 3, 67, 0
5, 56515, Note_on_c, 3, 55, 0
5, 56640, Note_on_c, 3, 56, 89
5, 56640, Note_on_c, 3, 68, 89
5, 56755, Note_on_c, 3, 68, 0
5, 56755, Note_on_c, 3, 56, 0
5, 56880, Note_on_c, 3, 56, 89
5, 56880, Note_on_c, 3, 68, 89
5, 56995, Note_on_c, 3, 68, 0
5, 56995, Note_on_c, 3, 56, 0
5, 57360, Note_on_c, 3, 55, 89
5, 57360, Note_on_c, 3, 67, 89
5, 57475, Note_on_c, 3, 67, 0
5, 57475, Note_on_c, 3, 55, 0
5, 57600, Note_on_c, 3, 53, 89
5, 57600, Note_on_c, 3, 65, 89
5, 57715, Note_on_c, 3, 65, 0
5, 57715, Note_on_c, 3, 53, 0
5, 57840, Note_on_c, 3, 53, 89
5, 57840, Note_on_c, 3, 65, 89
5, 57955, Note_on_c, 3, 65, 0
5, 57955, Note_on_c, 3, 53, 0
5, 58320, Note_on_c, 3, 53, 89
5, 58320, Note_on_c, 3, 65, 89
5, 58435, Note_on_c, 3, 65, 0
5, 58435, Note_on_c, 3, 53, 0
5, 58560, Note_on_c, 3, 56, 89
5, 58560, Note_on_c, 3, 68, 89
5, 58675, Note_on_c, 3, 68, 0
5, 58675, Note_on_c, 3, 56, 0
5, 58800, Note_on_c, 3, 56, 89
5, 58800, Note_on_c, 3, 68, 89
5, 58915, Note_on_c, 3, 68, 0
5, 58915, Note_on_c, 3, 56, 0
5, 59520, Note_on_c, 3, 53, 89
5, 59520, Note_on_c, 3, 65, 89
5, 59635, Note_on_c, 3, 65, 0
5, 59635, Note_on_c, 3, 53, 0
5, 60240, Note_on_c, 3, 55, 89
5, 60240, Note_on_c, 3, 67, 89
5, 60355, Note_on_c, 3, 67, 0
5, 60355, Note_on_c, 3, 55, 0
5, 60480, Note_on_c, 3, 56, 89
5, 60480, Note_on_c, 3, 68, 89
5, 60595, Note_on_c, 3, 68, 0
5, 60595, Note_on_c, 3, 56, 0
5, 60720, Note_on_c, 3, 56, 89
5, 60720, Note_on_c, 3, 68, 89
5, 60835, Note_on_c, 3, 68, 0
5, 60835, Note_on_c, 3, 56, 0
5, 61200, Note_on_c, 3, 55, 89
5, 61200, Note_on_c, 3, 67, 89
5, 61315, Note_on_c, 3, 67, 0
5, 61315, Note_on_c, 3, 55, 0
5, 84480, Note_on_c, 3, 65, 89
5, 84480, Note_on_c, 3, 53, 89
5, 84595, Note_on_c, 3, 53, 0
5, 84595, Note_on_c, 3, 65, 0
5, 84720, Note_on_c, 3, 65, 89
5, 84720, Note_on_c, 3, 53, 89
5, 84835, Note_on_c, 3, 53, 0
5, 84835, Note_on_c, 3, 65, 0
5, 85200, Note_on_c, 3, 65, 89
5, 85200, Note_on_c, 3, 53, 89
5, 85315, Note_on_c, 3, 53, 0
5, 85315, Note_on_c, 3, 65, 0
5, 85440, Note_on_c, 3, 68, 89
5, 85440, Note_on_c, 3, 56, 89
5, 85555, Note_on_c, 3, 56, 0
5, 85555, Note_on_c, 3, 68, 0
5, 85680, Note_on_c, 3, 68, 89
5, 85680, Note_on_c, 3, 56, 89
5, 85795, Note_on_c, 3, 56, 0
5, 85795, Note_on_c, 3, 68, 0
5, 86400, Note_on_c, 3, 65, 89
5, 86400, Note_on_c, 3, 53, 89
5, 86515, Note_on_c, 3, 53, 0
5, 86515, Note_on_c, 3, 65, 0
5, 87120, Note_on_c, 3, 67, 89
5, 87120, Note_on_c, 3, 55, 89
5, 87235, Note_on_c, 3, 55, 0
5, 87235, Note_on_c, 3, 67, 0
5, 87360, Note_on_c, 3, 68, 89
5, 87360, Note_on_c, 3, 56, 89
5, 87475, Note_on_c, 3, 56, 0
5, 87475, Note_on_c, 3, 68, 0
5, 87600, Note_on_c, 3, 68, 89
5, 87600, Note_on_c, 3, 56, 89
5, 87715, Note_on_c, 3, 56, 0
5, 87715, Note_on_c, 3, 68, 0
5, 88080, Note_on_c, 3, 67, 89
5, 88080, Note_on_c, 3, 55, 89
5, 88195, Note_on_c, 3, 55, 0
5, 88195, Note_on_c, 3, 67, 0
5, 88320, Note_on_c, 3, 65, 89
5, 88320, Note_on_c, 3, 53, 89
5, 88435, Note_on_c, 3, 53, 0
5, 88435, Note_on_c, 3, 65, 0
5, 88560, Note_on_c, 3, 65, 89
5, 88560, Note_on_c, 3, 53, 89
5, 88675, Note_on_c, 3, 53, 0
5, 88675, Note_on_c, 3, 65, 0
5, 89040, Note_on_c, 3, 65, 89
5, 89040, Note_on_c, 3, 53, 89
5, 89155, Note_on_c, 3, 53, 0
5, 89155, Note_on_c, 3, 65, 0
5, 89280, Note_on_c, 3, 68, 89
5, 89280, Note_on_c, 3, 56, 89
5, 89395, Note_on_c, 3, 56, 0
5, 89395, Note_on_c, 3, 68, 0
5, 89520, Note_on_c, 3, 68, 89
5, 89520, Note_on_c, 3, 56, 89
5, 89635, Note_on_c, 3, 56, 0
5, 89635, Note_on_c, 3, 68, 0
5, 90240, Note_on_c, 3, 65, 89
5, 90240, Note_on_c, 3, 53, 89
5, 90355, Note_on_c, 3, 53, 0
5, 90355, Note_on_c, 3, 65, 0
5, 90960, Note_on_c, 3, 67, 89
5, 90960, Note_on_c, 3, 55, 89
5, 91075, Note_on_c, 3, 55, 0
5, 91075, Note_on_c, 3, 67, 0
5, 91200, Note_on_c, 3, 68, 89
5, 91200, Note_on_c, 3, 56, 89
5, 91315, Note_on_c, 3, 56, 0
5, 91315, Note_on_c, 3, 68, 0
5, 91440, Note_on_c, 3, 68, 89
5, 91440, Note_on_c, 3, 56, 89
5, 91555, Note_on_c, 3, 56, 0
5, 91555, Note_on_c, 3, 68, 0
5, 91920, Note_on_c, 3, 67, 89
5, 91920, Note_on_c, 3, 55, 89
5, 92035, Note_on_c, 3, 55, 0
5, 92035, Note_on_c, 3, 67, 0
5, 92160, Note_on_c, 3, 65, 89
5, 92160, Note_on_c, 3, 53, 89
5, 92275, Note_on_c, 3, 53, 0
5, 92275, Note_on_c, 3, 65, 0
5, 92400, Note_on_c, 3, 65, 89
5, 92400, Note_on_c, 3, 53, 89
5, 92515, Note_on_c, 3, 53, 0
5, 92515, Note_on_c, 3, 65, 0
5, 92880, Note_on_c, 3, 65, 89
5, 92880, Note_on_c, 3, 53, 89
5, 92995, Note_on_c, 3, 53, 0
5, 92995, Note_on_c, 3, 65, 0
5, 93120, Note_on_c, 3, 68, 89
5, 93120, Note_on_c, 3, 56, 89
5, 93235, Note_on_c, 3, 56, 0
5, 93235, Note_on_c, 3, 68, 0
5, 93360, Note_on_c, 3, 56, 89
5, 93360, Note_on_c, 3, 68, 89
5, 93475, Note_on_c, 3, 68, 0
5, 93475, Note_on_c, 3, 56, 0
5, 94080, Note_on_c, 3, 53, 89
5, 94080, Note_on_c, 3, 65, 89
5, 94195, Note_on_c, 3, 65, 0
5, 94195, Note_on_c, 3, 53, 0
5, 94800, Note_on_c, 3, 55, 89
5, 94800, Note_on_c, 3, 67, 89
5, 94915, Note_on_c, 3, 67, 0
5, 94915, Note_on_c, 3, 55, 0
5, 95040, Note_on_c, 3, 56, 89
5, 95040, Note_on_c, 3, 68, 89
5, 95155, Note_on_c, 3, 68, 0
5, 95155, Note_on_c, 3, 56, 0
5, 95280, Note_on_c, 3, 56, 89
5, 95280, Note_on_c, 3, 68, 89
5, 95395, Note_on_c, 3, 68, 0
5, 95395, Note_on_c, 3, 56, 0
5, 95760, Note_on_c, 3, 55, 89
5, 95760, Note_on_c, 3, 67, 89
5, 95875, Note_on_c, 3, 67, 0
5, 95875, Note_on_c, 3, 55, 0
5, 96000, Note_on_c, 3, 53, 89
5, 96000, Note_on_c, 3, 65, 89
5, 96115, Note_on_c, 3, 65, 0
5, 96115, Note_on_c, 3, 53, 0
5, 96240, Note_on_c, 3, 53, 89
5, 96240, Note_on_c, 3, 65, 89
5, 96355, Note_on_c, 3, 65, 0
5, 96355, Note_on_c, 3, 53, 0
5, 96720, Note_on_c, 3, 53, 89
5, 96720, Note_on_c, 3, 65, 89
5, 96835, Note_on_c, 3, 65, 0
5, 96835, Note_on_c, 3, 53, 0
5, 96960, Note_on_c, 3, 56, 89
5, 96960, Note_on_c, 3, 68, 89
5, 97075, Note_on_c, 3, 68, 0
5, 97075, Note_on_c, 3, 56, 0
5, 97200, Note_on_c, 3, 56, 89
5, 97200, Note_on_c, 3, 68, 89
5, 97315, Note_on_c, 3, 68, 0
5, 97315, Note_on_c, 3, 56, 0
5, 97920, Note_on_c, 3, 53, 89
5, 97920, Note_on_c, 3, 65, 89
5, 98035, Note_on_c, 3, 65, 0
5, 98035, Note_on_c, 3, 53, 0
5, 98640, Note_on_c, 3, 55, 89
5, 98640, Note_on_c, 3, 67, 89
5, 98755, Note_on_c, 3, 67, 0
5, 98755, Note_on_c, 3, 55, 0
5, 98880, Note_on_c, 3, 56, 89
5, 98880, Note_on_c, 3, 68, 89
5, 98995, Note_on_c, 3, 68, 0
5, 98995, Note_on_c, 3, 56, 0
5, 99120, Note_on_c, 3, 56, 89
5, 99120, Note_on_c, 3, 68, 89
5, 99235, Note_on_c, 3, 68, 0
5, 99235, Note_on_c, 3, 56, 0
5, 99600, Note_on_c, 3, 55, 89
5, 99600, Note_on_c, 3, 67, 89
5, 99715, Note_on_c, 3, 67, 0
5, 99715, Note_on_c, 3, 55, 0
5, 138240, Note_on_c, 3, 65, 89
5, 138240, Note_on_c, 3, 53, 89
5, 138355, Note_on_c, 3, 53, 0
5, 138355, Note_on_c, 3, 65, 0
5, 138480, Note_on_c, 3, 65, 89
5, 138480, Note_on_c, 3, 53, 89
5, 138595, Note_on_c, 3, 53, 0
5, 138595, Note_on_c, 3, 65, 0
5, 138960, Note_on_c, 3, 65, 89
5, 138960, Note_on_c, 3, 53, 89
5, 139075, Note_on_c, 3, 53, 0
5, 139075, Note_on_c, 3, 65, 0
5, 139200, Note_on_c, 3, 68, 89
5, 139200, Note_on_c, 3, 56, 89
5, 139315, Note_on_c, 3, 56, 0
5, 139315, Note_on_c, 3, 68, 0
5, 139440, Note_on_c, 3, 68, 89
5, 139440, Note_on_c, 3, 56, 89
5, 139555, Note_on_c, 3, 56, 0
5, 139555, Note_on_c, 3, 68, 0
5, 140160, Note_on_c, 3, 65, 89
5, 140160, Note_on_c, 3, 53, 89
5, 140275, Note_on_c, 3, 53, 0
5, 140275, Note_on_c, 3, 65, 0
5, 140880, Note_on_c, 3, 67, 89
5, 140880, Note_on_c, 3, 55, 89
5, 140995, Note_on_c, 3, 55, 0
5, 140995, Note_on_c, 3, 67, 0
5, 141120, Note_on_c, 3, 68, 89
5, 141120, Note_on_c, 3, 56, 89
5, 141235, Note_on_c, 3, 56, 0
5, 141235, Note_on_c, 3, 68, 0
5, 141360, Note_on_c, 3, 68, 89
5, 141360, Note_on_c, 3, 56, 89
5, 141475, Note_on_c, 3, 56, 0
5, 141475, Note_on_c, 3, 68, 0
5, 141840, Note_on_c, 3, 67, 89
5, 141840, Note_on_c, 3, 55, 89
5, 141955, Note_on_c, 3, 55, 0
5, 141955, Note_on_c, 3, 67, 0
5, 142080, Note_on_c, 3, 65, 89
5, 142080, Note_on_c, 3, 53, 89
5, 142195, Note_on_c, 3, 53, 0
5, 142195, Note_on_c, 3, 65, 0
5, 142320, Note_on_c, 3, 65, 89
5, 142320, Note_on_c, 3, 53, 89
5, 142435, Note_on_c, 3, 53, 0
5, 142435, Note_on_c, 3, 65, 0
5, 142800, Note_on_c, 3, 65, 89
5, 142800, Note_on_c, 3, 53, 89
5, 142915, Note_on_c, 3, 53, 0
5, 142915, Note_on_c, 3, 65, 0
5, 143040, Note_on_c, 3, 68, 89
5, 143040, Note_on_c, 3, 56, 89
5, 143155, Note_on_c, 3, 56, 0
5, 143155, Note_on_c, 3, 68, 0
5, 143280, Note_on_c, 3, 68, 89
5, 143280, Note_on_c, 3, 56, 89
5, 143395, Note_on_c, 3, 56, 0
5, 143395, Note_on_c, 3, 68, 0
5, 144000, Note_on_c, 3, 65, 89
5, 144000, Note_on_c, 3, 53, 89
5, 144115, Note_on_c, 3, 53, 0
5, 144115, Note_on_c, 3, 65, 0
5, 144720, Note_on_c, 3, 67, 89
5, 144720, Note_on_c, 3, 55, 89
5, 144835, Note_on_c, 3, 55, 0
5, 144835, Note_on_c, 3, 67, 0
5, 144960, Note_on_c, 3, 68, 89
5, 144960, Note_on_c, 3, 56, 89
5, 145075, Note_on_c, 3, 56, 0
5, 145075, Note_on_c, 3, 68, 0
5, 145200, Note_on_c, 3, 68, 89
5, 145200, Note_on_c, 3, 56, 89
5, 145315, Note_on_c, 3, 56, 0
5, 145315, Note_on_c, 3, 68, 0
5, 145680, Note_on_c, 3, 67, 89
5, 145680, Note_on_c, 3, 55, 89
5, 145795, Note_on_c, 3, 55, 0
5, 145795, Note_on_c, 3, 67, 0
5, 145920, Note_on_c, 3, 65, 89
5, 145920, Note_on_c, 3, 53, 89
5, 146035, Note_on_c, 3, 53, 0
5, 146035, Note_on_c, 3, 65, 0
5, 146160, Note_on_c, 3, 65, 89
5, 146160, Note_on_c, 3, 53, 89
5, 146275, Note_on_c, 3, 53, 0
5, 146275, Note_on_c, 3, 65, 0
5, 146640, Note_on_c, 3, 65, 89
5, 146640, Note_on_c, 3, 53, 89
5, 146755, Note_on_c, 3, 53, 0
5, 146755, Note_on_c, 3, 65, 0
5, 146880, Note_on_c, 3, 68, 89
5, 146880, Note_on_c, 3, 56, 89
5, 146995, Note_on_c, 3, 56, 0
5, 146995, Note_on_c, 3, 68, 0
5, 147120, Note_on_c, 3, 56, 89
5, 147120, Note_on_c, 3, 68, 89
5, 147235, Note_on_c, 3, 68, 0
5, 147235, Note_on_c, 3, 56, 0
5, 147840, Note_on_c, 3, 53, 89
5, 147840, Note_on_c, 3, 65, 89
5, 147955, Note_on_c, 3, 65, 0
5, 147955, Note_on_c, 3, 53, 0
5, 148560, Note_on_c, 3, 55, 89
5, 148560, Note_on_c, 3, 67, 89
5, 148675, Note_on_c, 3, 67, 0
5, 148675, Note_on_c, 3, 55, 0
5, 148800, Note_on_c, 3, 56, 89
5, 148800, Note_on_c, 3, 68, 89
5, 148915, Note_on_c, 3, 68, 0
5, 148915, Note_on_c, 3, 56, 0
5, 149040, Note_on_c, 3, 56, 89
5, 149040, Note_on_c, 3, 68, 89
5, 149155, Note_on_c, 3, 68, 0
5, 149155, Note_on_c, 3, 56, 0
5, 149520, Note_on_c, 3, 55, 89
5, 149520, Note_on_c, 3, 67, 89
5, 149635, Note_on_c, 3, 67, 0
5, 149635, Note_on_c, 3, 55, 0
5, 149760, Note_on_c, 3, 53, 89
5, 149760, Note_on_c, 3, 65, 89
5, 149875, Note_on_c, 3, 65, 0
5, 149875, Note_on_c, 3, 53, 0
5, 150000, Note_on_c, 3, 53, 89
5, 150000, Note_on_c, 3, 65, 89
5, 150115, Note_on_c, 3, 65, 0
5, 150115, Note_on_c, 3, 53, 0
5, 150480, Note_on_c, 3, 53, 89
5, 150480, Note_on_c, 3, 65, 89
5, 150595, Note_on_c, 3, 65, 0
5, 150595, Note_on_c, 3, 53, 0
5, 150720, Note_on_c, 3, 56, 89
5, 150720, Note_on_c, 3, 68, 89
5, 150835, Note_on_c, 3, 68, 0
5, 150835, Note_on_c, 3, 56, 0
5, 150960, Note_on_c, 3, 56, 89
5, 150960, Note_on_c, 3, 68, 89
5, 151075, Note_on_c, 3, 68, 0
5, 151075, Note_on_c, 3, 56, 0
5, 151680, Note_on_c, 3, 53, 89
5, 151680, Note_on_c, 3, 65, 89
5, 151795, Note_on_c, 3, 65, 0
5, 151795, Note_on_c, 3, 53, 0
5, 152400, Note_on_c, 3, 55, 89
5, 152400, Note_on_c, 3, 67, 89
5, 152515, Note_on_c, 3, 67, 0
5, 152515, Note_on_c, 3, 55, 0
5, 152640, Note_on_c, 3, 56, 89
5, 152640, Note_on_c, 3, 68, 89
5, 152755, Note_on_c, 3, 68, 0
5, 152755, Note_on_c, 3, 56, 0
5, 152880, Note_on_c, 3, 56, 89
5, 152880, Note_on_c, 3, 68, 89
5, 152995, Note_on_c, 3, 68, 0
5, 152995, Note_on_c, 3, 56, 0
5, 153360, Note_on_c, 3, 55, 89
5, 153360, Note_on_c, 3, 67, 89
5, 153475, Note_on_c, 3, 67, 0
5, 153475, Note_on_c, 3, 55, 0
5, 184320, Note_on_c, 3, 65, 89
5, 184320, Note_on_c, 3, 53, 89
5, 184435, Note_on_c, 3, 53, 0
5, 184435, Note_on_c, 3, 65, 0
5, 184560, Note_on_c, 3, 65, 89
5, 184560, Note_on_c, 3, 53, 89
5, 184675, Note_on_c, 3, 53, 0
5, 184675, Note_on_c, 3, 65, 0
5, 185040, Note_on_c, 3, 65, 89
5, 185040, Note_on_c, 3, 53, 89
5, 185155, Note_on_c, 3, 53, 0
5, 185155, Note_on_c, 3, 65, 0
5, 185280, Note_on_c, 3, 68, 89
5, 185280, Note_on_c, 3, 56, 89
5, 185395, Note_on_c, 3, 56, 0
5, 185395, Note_on_c, 3, 68, 0
5, 185520, Note_on_c, 3, 68, 89
5, 185520, Note_on_c, 3, 56, 89
5, 185635, Note_on_c, 3, 56, 0
5, 185635, Note_on_c, 3, 68, 0
5, 186240, Note_on_c, 3, 65, 89
5, 186240, Note_on_c, 3, 53, 89
5, 186355, Note_on_c, 3, 53, 0
5, 186355, Note_on_c, 3, 65, 0
5, 186960, Note_on_c, 3, 67, 89
5, 186960, Note_on_c, 3, 55, 89
5, 187075, Note_on_c, 3, 55, 0
5, 187075, Note_on_c, 3, 67, 0
5, 187200, Note_on_c, 3, 68, 89
5, 187200, Note_on_c, 3, 56, 89
5, 187315, Note_on_c, 3, 56, 0
5, 187315, Note_on_c, 3, 68, 0
5, 187440, Note_on_c, 3, 68, 89
5, 187440, Note_on_c, 3, 56, 89
5, 187555, Note_on_c, 3, 56, 0
5, 187555, Note_on_c, 3, 68, 0
5, 187920, Note_on_c, 3, 67, 89
5, 187920, Note_on_c, 3, 55, 89
5, 188035, Note_on_c, 3, 55, 0
5, 188035, Note_on_c, 3, 67, 0
5, 188160, Note_on_c, 3, 65, 89
5, 188160, Note_on_c, 3, 53, 89
5, 188275, Note_on_c, 3, 53, 0
5, 188275, Note_on_c, 3, 65, 0
5, 188400, Note_on_c, 3, 65, 89
5, 188400, Note_on_c, 3, 53, 89
5, 188515, Note_on_c, 3, 53, 0
5, 188515, Note_on_c, 3, 65, 0
5, 188880, Note_on_c, 3, 65, 89
5, 188880, Note_on_c, 3, 53, 89
5, 188995, Note_on_c, 3, 53, 0
5, 188995, Note_on_c, 3, 65, 0
5, 189120, Note_on_c, 3, 68, 89
5, 189120, Note_on_c, 3, 56, 89
5, 189235, Note_on_c, 3, 56, 0
5, 189235, Note_on_c, 3, 68, 0
5, 189360, Note_on_c, 3, 68, 89
5, 189360, Note_on_c, 3, 56, 89
5, 189475, Note_on_c, 3, 56, 0
5, 189475, Note_on_c, 3, 68, 0
5, 190080, Note_on_c, 3, 65, 89
5, 190080, Note_on_c, 3, 53, 89
5, 190195, Note_on_c, 3, 53, 0
5, 190195, Note_on_c, 3, 65, 0
5, 190800, Note_on_c, 3, 67, 89
5, 190800, Note_on_c, 3, 55, 89
5, 190915, Note_on_c, 3, 55, 0
5, 190915, Note_on_c, 3, 67, 0
5, 191040, Note_on_c, 3, 68, 89
5, 191040, Note_on_c, 3, 56, 89
5, 191155, Note_on_c, 3, 56, 0
5, 191155, Note_on_c, 3, 68, 0
5, 191280, Note_on_c, 3, 68, 89
5, 191280, Note_on_c, 3, 56, 89
5, 191395, Note_on_c, 3, 56, 0
5, 191395, Note_on_c, 3, 68, 0
5, 191760, Note_on_c, 3, 67, 89
5, 191760, Note_on_c, 3, 55, 89
5, 191875, Note_on_c, 3, 55, 0
5, 191875, Note_on_c, 3, 67, 0
5, 192000, Note_on_c, 3, 65, 89
5, 192000, Note_on_c, 3, 53, 89
5, 192115, Note_on_c, 3, 53, 0
5, 192115, Note_on_c, 3, 65, 0
5, 192240, Note_on_c, 3, 65, 89
5, 192240, Note_on_c, 3, 53, 89
5, 192355, Note_on_c, 3, 53, 0
5, 192355, Note_on_c, 3, 65, 0
5, 192720, Note_on_c, 3, 65, 89
5, 192720, Note_on_c, 3, 53, 89
5, 192835, Note_on_c, 3, 53, 0
5, 192835, Note_on_c, 3, 65, 0
5, 192960, Note_on_c, 3, 68, 89
5, 192960, Note_on_c, 3, 56, 89
5, 193075, Note_on_c, 3, 56, 0
5, 193075, Note_on_c, 3, 68, 0
5, 193200, Note_on_c, 3, 68, 89
5, 193200, Note_on_c, 3, 56, 89
5, 193315, Note_on_c, 3, 56, 0
5, 193315, Note_on_c, 3, 68, 0
5, 193920, Note_on_c, 3, 65, 89
5, 193920, Note_on_c, 3, 53, 89
5, 194035, Note_on_c, 3, 53, 0
5, 194035, Note_on_c, 3, 65, 0
5, 194640, Note_on_c, 3, 67, 89
5, 194640, Note_on_c, 3, 55, 89
5, 194755, Note_on_c, 3, 55, 0
5, 194755, Note_on_c, 3, 67, 0
5, 194880, Note_on_c, 3, 68, 89
5, 194880, Note_on_c, 3, 56, 89
5, 194995, Note_on_c, 3, 56, 0
5, 194995, Note_on_c, 3, 68, 0
5, 195120, Note_on_c, 3, 68, 89
5, 195120, Note_on_c, 3, 56, 89
5, 195235, Note_on_c, 3, 56, 0
5, 195235, Note_on_c, 3, 68, 0
5, 195600, Note_on_c, 3, 67, 89
5, 195600, Note_on_c, 3, 55, 89
5, 195715, Note_on_c, 3, 55, 0
5, 195715, Note_on_c, 3, 67, 0
5, 195840, Note_on_c, 3, 65, 89
5, 195840, Note_on_c, 3, 53, 89
5, 195955, Note_on_c, 3, 53, 0
5, 195955, Note_on_c, 3, 65, 0
5, 196080, Note_on_c, 3, 65, 89
5, 196080, Note_on_c, 3, 53, 89
5, 196195, Note_on_c, 3, 53, 0
5, 196195, Note_on_c, 3, 65, 0
5, 196560, Note_on_c, 3, 65, 89
5, 196560, Note_on_c, 3, 53, 89
5, 196675, Note_on_c, 3, 53, 0
5, 196675, Note_on_c, 3, 65, 0
5, 196800, Note_on_c, 3, 68, 89
5, 196800, Note_on_c, 3, 56, 89
5, 196915, Note_on_c, 3, 56, 0
5, 196915, Note_on_c, 3, 68, 0
5, 197040, Note_on_c, 3, 68, 89
5, 197040, Note_on_c, 3, 56, 89
5, 197155, Note_on_c, 3, 56, 0
5, 197155, Note_on_c, 3, 68, 0
5, 197760, Note_on_c, 3, 65, 89
5, 197760, Note_on_c, 3, 53, 89
5, 197875, Note_on_c, 3, 53, 0
5, 197875, Note_on_c, 3, 65, 0
5, 198480, Note_on_c, 3, 67, 89
5, 198480, Note_on_c, 3, 55, 89
5, 198595, Note_on_c, 3, 55, 0
5, 198595, Note_on_c, 3, 67, 0
5, 198720, Note_on_c, 3, 68, 89
5, 198720, Note_on_c, 3, 56, 89
5, 198835, Note_on_c, 3, 56, 0
5, 198835, Note_on_c, 3, 68, 0
5, 198960, Note_on_c, 3, 68, 89
5, 198960, Note_on_c, 3, 56, 89
5, 199075, Note_on_c, 3, 56, 0
5, 199075, Note_on_c, 3, 68, 0
5, 199440, Note_on_c, 3, 67, 89
5, 199440, Note_on_c, 3, 55, 89
5, 199555, Note_on_c, 3, 55, 0
5, 199555, Note_on_c, 3, 67, 0
5, 199555, End_track
6, 0, Start_track
6, 502, Program_c, 4, 81
6, 503, Control_c, 4, 7, 49
6, 503, Control_c, 4, 10, 64
6, 46080, Note_on_c, 4, 65, 89
6, 46080, Note_on_c, 4, 53, 89
6, 46315, Note_on_c, 4, 53, 0
6, 46315, Note_on_c, 4, 65, 0
6, 46320, Note_on_c, 4, 65, 89
6, 46320, Note_on_c, 4, 53, 89
6, 46555, Note_on_c, 4, 53, 0
6, 46555, Note_on_c, 4, 65, 0
6, 46800, Note_on_c, 4, 65, 89
6, 46800, Note_on_c, 4, 53, 89
6, 47035, Note_on_c, 4, 53, 0
6, 47035, Note_on_c, 4, 65, 0
6, 47040, Note_on_c, 4, 68, 89
6, 47040, Note_on_c, 4, 56, 89
6, 47275, Note_on_c, 4, 56, 0
6, 47275, Note_on_c, 4, 68, 0
6, 47280, Note_on_c, 4, 68, 89
6, 47280, Note_on_c, 4, 56, 89
6, 47515, Note_on_c, 4, 56, 0
6, 47515, Note_on_c, 4, 68, 0
6, 48000, Note_on_c, 4, 65, 89
6, 48000, Note_on_c, 4, 53, 89
6, 48235, Note_on_c, 4, 53, 0
6, 48235, Note_on_c, 4, 65, 0
6, 48720, Note_on_c, 4, 67, 89
6, 48720, Note_on_c, 4, 55, 89
6, 48955, Note_on_c, 4, 55, 0
6, 48955, Note_on_c, 4, 67, 0
6, 48960, Note_on_c, 4, 68, 89
6, 48960, Note_on_c, 4, 56, 89
6, 49195, Note_on_c, 4, 56, 0
6, 49195, Note_on_c, 4, 68, 0
6, 49200, Note_on_c, 4, 68, 89
6, 49200, Note_on_c, 4, 56, 89
6, 49435, Note_on_c, 4, 56, 0
6, 49435, Note_on_c, 4, 68, 0
6, 49680, Note_on_c, 4, 67, 89
6, 49680, Note_on_c, 4, 55, 89
6, 49915, Note_on_c, 4, 55, 0
6, 49915, Note_on_c, 4, 67, 0
6, 49920, Note_on_c, 4, 65, 89
6, 49920, Note_on_c, 4, 53, 89
6, 50155, Note_on_c, 4, 53, 0
6, 50155, Note_on_c, 4, 65, 0
6, 50160, Note_on_c, 4, 65, 89
6, 50160, Note_on_c, 4, 53, 89
6, 50395, Note_on_c, 4, 53, 0
6, 50395, Note_on_c, 4, 65, 0
6, 50640, Note_on_c, 4, 65, 89
6, 50640, Note_on_c, 4, 53, 89
6, 50875, Note_on_c, 4, 53, 0
6, 50875, Note_on_c, 4, 65, 0
6, 50880, Note_on_c, 4, 68, 89
6, 50880, Note_on_c, 4, 56, 89
6, 51115, Note_on_c, 4, 56, 0
6, 51115, Note_on_c, 4, 68, 0
6, 51120, Note_on_c, 4, 68, 89
6, 51120, Note_on_c, 4, 56, 89
6, 51355, Note_on_c, 4, 56, 0
6, 51355, Note_on_c, 4, 68, 0
6, 51840, Note_on_c, 4, 65, 89
6, 51840, Note_on_c, 4, 53, 89
6, 52075, Note_on_c, 4, 53, 0
6, 52075, Note_on_c, 4, 65, 0
6, 52560, Note_on_c, 4, 67, 89
6, 52560, Note_on_c, 4, 55, 89
6, 52795, Note_on_c, 4, 55, 0
6, 52795, Note_on_c, 4, 67, 0
6, 52800, Note_on_c, 4, 68, 89
6, 52800, Note_on_c, 4, 56, 89
6, 53035, Note_on_c, 4, 56, 0
6, 53035, Note_on_c, 4, 68, 0
6, 53040, Note_on_c, 4, 68, 89
6, 53040, Note_on_c, 4, 56, 89
6, 53275, Note_on_c, 4, 56, 0
6, 53275, Note_on_c, 4, 68, 0
6, 53520, Note_on_c, 4, 67, 89
6, 53520, Note_on_c, 4, 55, 89
6, 53755, Note_on_c, 4, 55, 0
6, 53755, Note_on_c, 4, 67, 0
6, 53760, Note_on_c, 4, 65, 89
6, 53760, Note_on_c, 4, 53, 89
6, 53995, Note_on_c, 4, 53, 0
6, 53995, Note_on_c, 4, 65, 0
6, 54000, Note_on_c, 4, 65, 89
6, 54000, Note_on_c, 4, 53, 89
6, 54235, Note_on_c, 4, 53, 0
6, 54235, Note_on_c, 4, 65, 0
6, 54480, Note_on_c, 4, 65, 89
6, 54480, Note_on_c, 4, 53, 89
6, 54715, Note_on_c, 4, 53, 0
6, 54715, Note_on_c, 4, 65, 0
6, 54720, Note_on_c, 4, 68, 89
6, 54720, Note_on_c, 4, 56, 89
6, 54955, Note_on_c, 4, 56, 0
6, 54955, Note_on_c, 4, 68, 0
6, 54960, Note_on_c, 4, 56, 89
6, 54960, Note_on_c, 4, 68, 89
6, 55195, Note_on_c, 4, 68, 0
6, 55195, Note_on_c, 4, 56, 0
6, 55680, Note_on_c, 4, 53, 89
6, 55680, Note_on_c, 4, 65, 89
6, 55915, Note_on_c, 4, 65, 0
6, 55915, Note_on_c, 4, 53, 0
6, 56400, Note_on_c, 4, 55, 89
6, 56400, Note_on_c, 4, 67, 89
6, 56635, Note_on_c, 4, 67, 0
6, 56635, Note_on_c, 4, 55, 0
6, 56640, Note_on_c, 4, 56, 89
6, 56640, Note_on_c, 4, 68, 89
6, 56875, Note_on_c, 4, 68, 0
6, 56875, Note_on_c, 4, 56, 0
6, 56880, Note_on_c, 4, 56, 89
6, 56880, Note_on_c, 4, 68, 89
6, 57115, Note_on_c, 4, 68, 0
6, 57115, Note_on_c, 4, 56, 0
6, 57360, Note_on_c, 4, 55, 89
6, 57360, Note_on_c, 4, 67, 89
6, 57595, Note_on_c, 4, 67, 0
6, 57595, Note_on_c, 4, 55, 0
6, 57600, Note_on_c, 4, 53, 89
6, 57600, Note_on_c, 4, 65, 89
6, 57835, Note_on_c, 4, 65, 0
6, 57835, Note_on_c, 4, 53, 0
6, 57840, Note_on_c, 4, 53, 89
6, 57840, Note_on_c, 4, 65, 89
6, 58075, Note_on_c, 4, 65, 0
6, 58075, Note_on_c, 4, 53, 0
6, 58320, Note_on_c, 4, 53, 89
6, 58320, Note_on_c, 4, 65, 89
6, 58555, Note_on_c, 4, 65, 0
6, 58555, Note_on_c, 4, 53, 0
6, 58560, Note_on_c, 4, 56, 89
6, 58560, Note_on_c, 4, 68, 89
6, 58795, Note_on_c, 4, 68, 0
6, 58795, Note_on_c, 4, 56, 0
6, 58800, Note_on_c, 4, 56, 89
6, 58800, Note_on_c, 4, 68, 89
6, 59035, Note_on_c, 4, 68, 0
6, 59035, Note_on_c, 4, 56, 0
6, 59520, Note_on_c, 4, 53, 89
6, 59520, Note_on_c, 4, 65, 89
6, 59755, Note_on_c, 4, 65, 0
6, 59755, Note_on_c, 4, 53, 0
6, 60240, Note_on_c, 4, 55, 89
6, 60240, Note_on_c, 4, 67, 89
6, 60475, Note_on_c, 4, 67, 0
6, 60475, Note_on_c, 4, 55, 0
6, 60480, Note_on_c, 4, 56, 89
6, 60480, Note_on_c, 4, 68, 89
6, 60715, Note_on_c, 4, 68, 0
6, 60715, Note_on_c, 4, 56, 0
6, 60720, Note_on_c, 4, 56, 89
6, 60720, Note_on_c, 4, 68, 89
6, 60955, Note_on_c, 4, 68, 0
6, 60955, Note_on_c, 4, 56, 0
6, 61200, Note_on_c, 4, 55, 89
6, 61200, Note_on_c, 4, 67, 89
6, 61435, Note_on_c, 4, 67, 0
6, 61435, Note_on_c, 4, 55, 0
6, 84480, Note_on_c, 4, 65, 89
6, 84480, Note_on_c, 4, 53, 89
6, 84715, Note_on_c, 4, 53, 0
6, 84715, Note_on_c, 4, 65, 0
6, 84720, Note_on_c, 4, 65, 89
6, 84720, Note_on_c, 4, 53, 89
6, 84955, Note_on_c, 4, 53, 0
6, 84955, Note_on_c, 4, 65, 0
6, 85200, Note_on_c, 4, 65, 89
6, 85200, Note_on_c, 4, 53, 89
6, 85435, Note_on_c, 4, 53, 0
6, 85435, Note_on_c, 4, 65, 0
6, 85440, Note_on_c, 4, 68, 89
6, 85440, Note_on_c, 4, 56, 89
6, 85675, Note_on_c, 4, 56, 0
6, 85675, Note_on_c, 4, 68, 0
6, 85680, Note_on_c, 4, 68, 89
6, 85680, Note_on_c, 4, 56, 89
6, 85915, Note_on_c, 4, 56, 0
6, 85915, Note_on_c, 4, 68, 0
6, 86400, Note_on_c, 4, 65, 89
6, 86400, Note_on_c, 4, 53, 89
6, 86635, Note_on_c, 4, 53, 0
6, 86635, Note_on_c, 4, 65, 0
6, 87120, Note_on_c, 4, 67, 89
6, 87120, Note_on_c, 4, 55, 89
6, 87355, Note_on_c, 4, 55, 0
6, 87355, Note_on_c, 4, 67, 0
6, 87360, Note_on_c, 4, 68, 89
6, 87360, Note_on_c, 4, 56, 89
6, 87595, Note_on_c, 4, 56, 0
6, 87595, Note_on_c, 4, 68, 0
6, 87600, Note_on_c, 4, 68, 89
6, 87600, Note_on_c, 4, 56, 89
6, 87835, Note_on_c, 4, 56, 0
6, 87835, Note_on_c, 4, 68, 0
6, 88080, Note_on_c, 4, 67, 89
6, 88080, Note_on_c, 4, 55, 89
6, 88315, Note_on_c, 4, 55, 0
6, 88315, Note_on_c, 4, 67, 0
6, 88320, Note_on_c, 4, 65, 89
6, 88320, Note_on_c, 4, 53, 89
6, 88555, Note_on_c, 4, 53, 0
6, 88555, Note_on_c, 4, 65, 0
6, 88560, Note_on_c, 4, 65, 89
6, 88560, Note_on_c, 4, 53, 89
6, 88795, Note_on_c, 4, 53, 0
6, 88795, Note_on_c, 4, 65, 0
6, 89040, Note_on_c, 4, 65, 89
6, 89040, Note_on_c, 4, 53, 89
6, 89275, Note_on_c, 4, 53, 0
6, 89275, Note_on_c, 4, 65, 0
6, 89280, Note_on_c, 4, 68, 89
6, 89280, Note_on_c, 4, 56, 89
6, 89515, Note_on_c, 4, 56, 0
6, 89515, Note_on_c, 4, 68, 0
6, 89520, Note_on_c, 4, 68, 89
6, 89520, Note_on_c, 4, 56, 89
6, 89755, Note_on_c, 4, 56, 0
6, 89755, Note_on_c, 4, 68, 0
6, 90240, Note_on_c, 4, 65, 89
6, 90240, Note_on_c, 4, 53, 89
6, 90475, Note_on_c, 4, 53, 0
6, 90475, Note_on_c, 4, 65, 0
6, 90960, Note_on_c, 4, 67, 89
6, 90960, Note_on_c, 4, 55, 89
6, 91195, Note_on_c, 4, 55, 0
6, 91195, Note_on_c, 4, 67, 0
6, 91200, Note_on_c, 4, 68, 89
6, 91200, Note_on_c, 4, 56, 89
6, 91435, Note_on_c, 4, 56, 0
6, 91435, Note_on_c, 4, 68, 0
6, 91440, Note_on_c, 4, 68, 89
6, 91440, Note_on_c, 4, 56, 89
6, 91675, Note_on_c, 4, 56, 0
6, 91675, Note_on_c, 4, 68, 0
6, 91920, Note_on_c, 4, 67, 89
6, 91920, Note_on_c, 4, 55, 89
6, 92155, Note_on_c, 4, 55, 0
6, 92155, Note_on_c, 4, 67, 0
6, 92160, Note_on_c, 4, 65, 89
6, 92160, Note_on_c, 4, 53, 89
6, 92395, Note_on_c, 4, 53, 0
6, 92395, Note_on_c, 4, 65, 0
6, 92400, Note_on_c, 4, 65, 89
6, 92400, Note_on_c, 4, 53, 89
6, 92635, Note_on_c, 4, 53, 0
6, 92635, Note_on_c, 4, 65, 0
6, 92880, Note_on_c, 4, 65, 89
6, 92880, Note_on_c, 4, 53, 89
6, 93115, Note_on_c, 4, 53, 0
6, 93115, Note_on_c, 4, 65, 0
6, 93120, Note_on_c, 4, 68, 89
6, 93120, Note_on_c, 4, 56, 89
6, 93355, Note_on_c, 4, 56, 0
6, 93355, Note_on_c, 4, 68, 0
6, 93360, Note_on_c, 4, 56, 89
6, 93360, Note_on_c, 4, 68, 89
6, 93595, Note_on_c, 4, 68, 0
6, 93595, Note_on_c, 4, 56, 0
6, 94080, Note_on_c, 4, 53, 89
6, 94080, Note_on_c, 4, 65, 89
6, 94315, Note_on_c, 4, 65, 0
6, 94315, Note_on_c, 4, 53, 0
6, 94800, Note_on_c, 4, 55, 89
6, 94800, Note_on_c, 4, 67, 89
6, 95035, Note_on_c, 4, 67, 0
6, 95035, Note_on_c, 4, 55, 0
6, 95040, Note_on_c, 4, 56, 89
6, 95040, Note_on_c, 4, 68, 89
6, 95275, Note_on_c, 4, 68, 0
6, 95275, Note_on_c, 4, 56, 0
6, 95280, Note_on_c, 4, 56, 89
6, 95280, Note_on_c, 4, 68, 89
6, 95515, Note_on_c, 4, 68, 0
6, 95515, Note_on_c, 4, 56, 0
6, 95760, Note_on_c, 4, 55, 89
6, 95760, Note_on_c, 4, 67, 89
6, 95995, Note_on_c, 4, 67, 0
6, 95995, Note_on_c, 4, 55, 0
6, 96000, Note_on_c, 4, 53, 89
6, 96000, Note_on_c, 4, 65, 89
6, 96235, Note_on_c, 4, 65, 0
6, 96235, Note_on_c, 4, 53, 0
6, 96240, Note_on_c, 4, 53, 89
6, 96240, Note_on_c, 4, 65, 89
6, 96475, Note_on_c, 4, 65, 0
6, 96475, Note_on_c, 4, 53, 0
6, 96720, Note_on_c, 4, 53, 89
6, 96720, Note_on_c, 4, 65, 89
6, 96955, Note_on_c, 4, 65, 0
6, 96955, Note_on_c, 4, 53, 0
6, 96960, Note_on_c, 4, 56, 89
6, 96960, Note_on_c, 4, 68, 89
6, 97195, Note_on_c, 4, 68, 0
6, 97195, Note_on_c, 4, 56, 0
6, 97200, Note_on_c, 4, 56, 89
6, 97200, Note_on_c, 4, 68, 89
6, 97435, Note_on_c, 4, 68, 0
6, 97435, Note_on_c, 4, 56, 0
6, 97920, Note_on_c, 4, 53, 89
6, 97920, Note_on_c, 4, 65, 89
6, 98155, Note_on_c, 4, 65, 0
6, 98155, Note_on_c, 4, 53, 0
6, 98640, Note_on_c, 4, 55, 89
6, 98640, Note_on_c, 4, 67, 89
6, 98875, Note_on_c, 4, 67, 0
6, 98875, Note_on_c, 4, 55, 0
6, 98880, Note_on_c, 4, 56, 89
6, 98880, Note_on_c, 4, 68, 89
6, 99115, Note_on_c, 4, 68, 0
6, 99115, Note_on_c, 4, 56, 0
6, 99120, Note_on_c, 4, 56, 89
6, 99120, Note_on_c, 4, 68, 89
6, 99355, Note_on_c, 4, 68, 0
6, 99355, Note_on_c, 4, 56, 0
6, 99600, Note_on_c, 4, 55, 89
6, 99600, Note_on_c, 4, 67, 89
6, 99835, Note_on_c, 4, 67, 0
6, 99835, Note_on_c, 4, 55, 0
6, 138240, Note_on_c, 4, 65, 89
6, 138240, Note_on_c, 4, 53, 89
6, 138475, Note_on_c, 4, 53, 0
6, 138475, Note_on_c, 4, 65, 0
6, 138480, Note_on_c, 4, 65, 89
6, 138480, Note_on_c, 4, 53, 89
6, 138715, Note_on_c, 4, 53, 0
6, 138715, Note_on_c, 4, 65, 0
6, 138960, Note_on_c, 4, 65, 89
6, 138960, Note_on_c, 4, 53, 89
6, 139195, Note_on_c, 4, 53, 0
6, 139195, Note_on_c, 4, 65, 0
6, 139200, Note_on_c, 4, 68, 89
6, 139200, Note_on_c, 4, 56, 89
6, 139435, Note_on_c, 4, 56, 0
6, 139435, Note_on_c, 4, 68, 0
6, 139440, Note_on_c, 4, 68, 89
6, 139440, Note_on_c, 4, 56, 89
6, 139675, Note_on_c, 4, 56, 0
6, 139675, Note_on_c, 4, 68, 0
6, 140160, Note_on_c, 4, 65, 89
6, 140160, Note_on_c, 4, 53, 89
6, 140395, Note_on_c, 4, 53, 0
6, 140395, Note_on_c, 4, 65, 0
6, 140880, Note_on_c, 4, 67, 89
6, 140880, Note_on_c, 4, 55, 89
6, 141115, Note_on_c, 4, 55, 0
6, 141115, Note_on_c, 4, 67, 0
6, 141120, Note_on_c, 4, 68, 89
6, 141120, Note_on_c, 4, 56, 89
6, 141355, Note_on_c, 4, 56, 0
6, 141355, Note_on_c, 4, 68, 0
6, 141360, Note_on_c, 4, 68, 89
6, 141360, Note_on_c, 4, 56, 89
6, 141595, Note_on_c, 4, 56, 0
6, 141595, Note_on_c, 4, 68, 0
6, 141840, Note_on_c, 4, 67, 89
6, 141840, Note_on_c, 4, 55, 89
6, 142075, Note_on_c, 4, 55, 0
6, 142075, Note_on_c, 4, 67, 0
6, 142080, Note_on_c, 4, 65, 89
6, 142080, Note_on_c, 4, 53, 89
6, 142315, Note_on_c, 4, 53, 0
6, 142315, Note_on_c, 4, 65, 0
6, 142320, Note_on_c, 4, 65, 89
6, 142320, Note_on_c, 4, 53, 89
6, 142555, Note_on_c, 4, 53, 0
6, 142555, Note_on_c, 4, 65, 0
6, 142800, Note_on_c, 4, 65, 89
6, 142800, Note_on_c, 4, 53, 89
6, 143035, Note_on_c, 4, 53, 0
6, 143035, Note_on_c, 4, 65, 0
6, 143040, Note_on_c, 4, 68, 89
6, 143040, Note_on_c, 4, 56, 89
6, 143275, Note_on_c, 4, 56, 0
6, 143275, Note_on_c, 4, 68, 0
6, 143280, Note_on_c, 4, 68, 89
6, 143280, Note_on_c, 4, 56, 89
6, 143515, Note_on_c, 4, 56, 0
6, 143515, Note_on_c, 4, 68, 0
6, 144000, Note_on_c, 4, 65, 89
6, 144000, Note_on_c, 4, 53, 89
6, 144235, Note_on_c, 4, 53, 0
6, 144235, Note_on_c, 4, 65, 0
6, 144720, Note_on_c, 4, 67, 89
6, 144720, Note_on_c, 4, 55, 89
6, 144955, Note_on_c, 4, 55, 0
6, 144955, Note_on_c, 4, 67, 0
6, 144960, Note_on_c, 4, 68, 89
6, 144960, Note_on_c, 4, 56, 89
6, 145195, Note_on_c, 4, 56, 0
6, 145195, Note_on_c, 4, 68, 0
6, 145200, Note_on_c, 4, 68, 89
6, 145200, Note_on_c, 4, 56, 89
6, 145435, Note_on_c, 4, 56, 0
6, 145435, Note_on_c, 4, 68, 0
6, 145680, Note_on_c, 4, 67, 89
6, 145680, Note_on_c, 4, 55, 89
6, 145915, Note_on_c, 4, 55, 0
6, 145915, Note_on_c, 4, 67, 0
6, 145920, Note_on_c, 4, 65, 89
6, 145920, Note_on_c, 4, 53, 89
6, 146155, Note_on_c, 4, 53, 0
6, 146155, Note_on_c, 4, 65, 0
6, 146160, Note_on_c, 4, 65, 89
6, 146160, Note_on_c, 4, 53, 89
6, 146395, Note_on_c, 4, 53, 0
6, 146395, Note_on_c, 4, 65, 0
6, 146640, Note_on_c, 4, 65, 89
6, 146640, Note_on_c, 4, 53, 89
6, 146875, Note_on_c, 4, 53, 0
6, 146875, Note_on_c, 4, 65, 0
6, 146880, Note_on_c, 4, 68, 89
6, 146880, Note_on_c, 4, 56, 89
6, 147115, Note_on_c, 4, 56, 0
6, 147115, Note_on_c, 4, 68, 0
6, 147120, Note_on_c, 4, 56, 89
6, 147120, Note_on_c, 4, 68, 89
6, 147355, Note_on_c, 4, 68, 0
6, 147355, Note_on_c, 4, 56, 0
6, 147840, Note_on_c, 4, 53, 89
6, 147840, Note_on_c, 4, 65, 89
6, 148075, Note_on_c, 4, 65, 0
6, 148075, Note_on_c, 4, 53, 0
6, 148560, Note_on_c, 4, 55, 89
6, 148560, Note_on_c, 4, 67, 89
6, 148795, Note_on_c, 4, 67, 0
6, 148795, Note_on_c, 4, 55, 0
6, 148800, Note_on_c, 4, 56, 89
6, 148800, Note_on_c, 4, 68, 89
6, 149035, Note_on_c, 4, 68, 0
6, 149035, Note_on_c, 4, 56, 0
6, 149040, Note_on_c, 4, 56, 89
6, 149040, Note_on_c, 4, 68, 89
6, 149275, Note_on_c, 4, 68, 0
6, 149275, Note_on_c, 4, 56, 0
6, 149520, Note_on_c, 4, 55, 89
6, 149520, Note_on_c, 4, 67, 89
6, 149755, Note_on_c, 4, 67, 0
6, 149755, Note_on_c, 4, 55, 0
6, 149760, Note_on_c, 4, 53, 89
6, 149760, Note_on_c, 4, 65, 89
6, 149995, Note_on_c, 4, 65, 0
6, 149995, Note_on_c, 4, 53, 0
6, 150000, Note_on_c, 4, 53, 89
6, 150000, Note_on_c, 4, 65, 89
6, 150235, Note_on_c, 4, 65, 0
6, 150235, Note_on_c, 4, 53, 0
6, 150480, Note_on_c, 4, 53, 89
6, 150480, Note_on_c, 4, 65, 89
6, 150715, Note_on_c, 4, 65, 0
6, 150715, Note_on_c, 4, 53, 0
6, 150720, Note_on_c, 4, 56, 89
6, 150720, Note_on_c, 4, 68, 89
6, 150955, Note_on_c, 4, 68, 0
6, 150955, Note_on_c, 4, 56, 0
6, 150960, Note_on_c, 4, 56, 89
6, 150960, Note_on_c, 4, 68, 89
6, 151195, Note_on_c, 4, 68, 0
6, 151195, Note_on_c, 4, 56, 0
6, 151680, Note_on_c, 4, 53, 89
6, 151680, Note_on_c, 4, 65, 89
6, 151915, Note_on_c, 4, 65, 0
6, 151915, Note_on_c, 4, 53, 0
6, 152400, Note_on_c, 4, 55, 89
6, 152400, Note_on_c, 4, 67, 89
6, 152635, Note_on_c, 4, 67, 0
6, 152635, Note_on_c, 4, 55, 0
6, 152640, Note_on_c, 4, 56, 89
6, 152640, Note_on_c, 4, 68, 89
6, 152875, Note_on_c, 4, 68, 0
6, 152875, Note_on_c, 4, 56, 0
6, 152880, Note_on_c, 4, 56, 89
6, 152880, Note_on_c, 4, 68, 89
6, 153115, Note_on_c, 4, 68, 0
6, 153115, Note_on_c, 4, 56, 0
6, 153360, Note_on_c, 4, 55, 89
6, 153360, Note_on_c, 4, 67, 89
6, 153595, Note_on_c, 4, 67, 0
6, 153595, Note_on_c, 4, 55, 0
6, 184320, Note_on_c, 4, 65, 89
6, 184320, Note_on_c, 4, 53, 89
6, 184555, Note_on_c, 4, 53, 0
6, 184555, Note_on_c, 4, 65, 0
6, 184560, Note_on_c, 4, 65, 89
6, 184560, Note_on_c, 4, 53, 89
6, 184795, Note_on_c, 4, 53, 0
6, 184795, Note_on_c, 4, 65, 0
6, 185040, Note_on_c, 4, 65, 89
6, 185040, Note_on_c, 4, 53, 89
6, 185275, Note_on_c, 4, 53, 0
6, 185275, Note_on_c, 4, 65, 0
6, 185280, Note_on_c, 4, 68, 89
6, 185280, Note_on_c, 4, 56, 89
6, 185515, Note_on_c, 4, 56, 0
6, 185515, Note_on_c, 4, 68, 0
6, 185520, Note_on_c, 4, 68, 89
6, 185520, Note_on_c, 4, 56, 89
6, 185755, Note_on_c, 4, 56, 0
6, 185755, Note_on_c, 4, 68, 0
6, 186240, Note_on_c, 4, 65, 89
6, 186240, Note_on_c, 4, 53, 89
6, 186475, Note_on_c, 4, 53, 0
6, 186475, Note_on_c, 4, 65, 0
6, 186960, Note_on_c, 4, 67, 89
6, 186960, Note_on_c, 4, 55, 89
6, 187195, Note_on_c, 4, 55, 0
6, 187195, Note_on_c, 4, 67, 0
6, 187200, Note_on_c, 4, 68, 89
6, 187200, Note_on_c, 4, 56, 89
6, 187435, Note_on_c, 4, 56, 0
6, 187435, Note_on_c, 4, 68, 0
6, 187440, Note_on_c, 4, 68, 89
6, 187440, Note_on_c, 4, 56, 89
6, 187675, Note_on_c, 4, 56, 0
6, 187675, Note_on_c, 4, 68, 0
6, 187920, Note_on_c, 4, 67, 89
6, 187920, Note_on_c, 4, 55, 89
6, 188155, Note_on_c, 4, 55, 0
6, 188155, Note_on_c, 4, 67, 0
6, 188160, Note_on_c, 4, 65, 89
6, 188160, Note_on_c, 4, 53, 89
6, 188395, Note_on_c, 4, 53, 0
6, 188395, Note_on_c, 4, 65, 0
6, 188400, Note_on_c, 4, 65, 89
6, 188400, Note_on_c, 4, 53, 89
6, 188635, Note_on_c, 4, 53, 0
6, 188635, Note_on_c, 4, 65, 0
6, 188880, Note_on_c, 4, 65, 89
6, 188880, Note_on_c, 4, 53, 89
6, 189115, Note_on_c, 4, 53, 0
6, 189115, Note_on_c, 4, 65, 0
6, 189120, Note_on_c, 4, 68, 89
6, 189120, Note_on_c, 4, 56, 89
6, 189355, Note_on_c, 4, 56, 0
6, 189355, Note_on_c, 4, 68, 0
6, 189360, Note_on_c, 4, 68, 89
6, 189360, Note_on_c, 4, 56, 89
6, 189595, Note_on_c, 4, 56, 0
6, 189595, Note_on_c, 4, 68, 0
6, 190080, Note_on_c, 4, 65, 89
6, 190080, Note_on_c, 4, 53, 89
6, 190315, Note_on_c, 4, 53, 0
6, 190315, Note_on_c, 4, 65, 0
6, 190800, Note_on_c, 4, 67, 89
6, 190800, Note_on_c, 4, 55, 89
6, 191035, Note_on_c, 4, 55, 0
6, 191035, Note_on_c, 4, 67, 0
6, 191040, Note_on_c, 4, 68, 89
6, 191040, Note_on_c, 4, 56, 89
6, 191275, Note_on_c, 4, 56, 0
6, 191275, Note_on_c, 4, 68, 0
6, 191280, Note_on_c, 4, 68, 89
6, 191280, Note_on_c, 4, 56, 89
6, 191515, Note_on_c, 4, 56, 0
6, 191515, Note_on_c, 4, 68, 0
6, 191760, Note_on_c, 4, 67, 89
6, 191760, Note_on_c, 4, 55, 89
6, 191995, Note_on_c, 4, 55, 0
6, 191995, Note_on_c, 4, 67, 0
6, 192000, Note_on_c, 4, 65, 89
6, 192000, Note_on_c, 4, 53, 89
6, 192235, Note_on_c, 4, 53, 0
6, 192235, Note_on_c, 4, 65, 0
6, 192240, Note_on_c, 4, 65, 89
6, 192240, Note_on_c, 4, 53, 89
6, 192475, Note_on_c, 4, 53, 0
6, 192475, Note_on_c, 4, 65, 0
6, 192720, Note_on_c, 4, 65, 89
6, 192720, Note_on_c, 4, 53, 89
6, 192955, Note_on_c, 4, 53, 0
6, 192955, Note_on_c, 4, 65, 0
6, 192960, Note_on_c, 4, 68, 89
6, 192960, Note_on_c, 4, 56, 89
6, 193195, Note_on_c, 4, 56, 0
6, 193195, Note_on_c, 4, 68, 0
6, 193200, Note_on_c, 4, 68, 89
6, 193200, Note_on_c, 4, 56, 89
6, 193435, Note_on_c, 4, 56, 0
6, 193435, Note_on_c, 4, 68, 0
6, 193920, Note_on_c, 4, 65, 89
6, 193920, Note_on_c, 4, 53, 89
6, 194155, Note_on_c, 4, 53, 0
6, 194155, Note_on_c, 4, 65, 0
6, 194640, Note_on_c, 4, 67, 89
6, 194640, Note_on_c, 4, 55, 89
6, 194875, Note_on_c, 4, 55, 0
6, 194875, Note_on_c, 4, 67, 0
6, 194880, Note_on_c, 4, 68, 89
6, 194880, Note_on_c, 4, 56, 89
6, 195115, Note_on_c, 4, 56, 0
6, 195115, Note_on_c, 4, 68, 0
6, 195120, Note_on_c, 4, 68, 89
6, 195120, Note_on_c, 4, 56, 89
6, 195355, Note_on_c, 4, 56, 0
6, 195355, Note_on_c, 4, 68, 0
6, 195600, Note_on_c, 4, 67, 89
6, 195600, Note_on_c, 4, 55, 89
6, 195835, Note_on_c, 4, 55, 0
6, 195835, Note_on_c, 4, 67, 0
6, 195840, Note_on_c, 4, 65, 89
6, 195840, Note_on_c, 4, 53, 89
6, 196075, Note_on_c, 4, 53, 0
6, 196075, Note_on_c, 4, 65, 0
6, 196080, Note_on_c, 4, 65, 89
6, 196080, Note_on_c, 4, 53, 89
6, 196315, Note_on_c, 4, 53, 0
6, 196315, Note_on_c, 4, 65, 0
6, 196560, Note_on_c, 4, 65, 89
6, 196560, Note_on_c, 4, 53, 89
6, 196795, Note_on_c, 4, 53, 0
6, 196795, Note_on_c, 4, 65, 0
6, 196800, Note_on_c, 4, 68, 89
6, 196800, Note_on_c, 4, 56, 89
6, 197035, Note_on_c, 4, 56, 0
6, 197035, Note_on_c, 4, 68, 0
6, 197040, Note_on_c, 4, 68, 89
6, 197040, Note_on_c, 4, 56, 89
6, 197275, Note_on_c, 4, 56, 0
6, 197275, Note_on_c, 4, 68, 0
6, 197760, Note_on_c, 4, 65, 89
6, 197760, Note_on_c, 4, 53, 89
6, 197995, Note_on_c, 4, 53, 0
6, 197995, Note_on_c, 4, 65, 0
6, 198480, Note_on_c, 4, 67, 89
6, 198480, Note_on_c, 4, 55, 89
6, 198715, Note_on_c, 4, 55, 0
6, 198715, Note_on_c, 4, 67, 0
6, 198720, Note_on_c, 4, 68, 89
6, 198720, Note_on_c, 4, 56, 89
6, 198955, Note_on_c, 4, 56, 0
6, 198955, Note_on_c, 4, 68, 0
6, 198960, Note_on_c, 4, 68, 89
6, 198960, Note_on_c, 4, 56, 89
6, 199195, Note_on_c, 4, 56, 0
6, 199195, Note_on_c, 4, 68, 0
6, 199440, Note_on_c, 4, 67, 89
6, 199440, Note_on_c, 4, 55, 89
6, 199675, Note_on_c, 4, 55, 0
6, 199675, Note_on_c, 4, 67, 0
6, 199675, End_track
7, 0, Start_track
7, 507, Program_c, 5, 81
7, 508, Control_c, 5, 7, 49
7, 508, Control_c, 5, 10, 64
7, 46080, Note_on_c, 5, 53, 89
7, 46080, Note_on_c, 5, 65, 89
7, 46315, Note_on_c, 5, 65, 0
7, 46315, Note_on_c, 5, 53, 0
7, 46320, Note_on_c, 5, 65, 89
7, 46320, Note_on_c, 5, 53, 89
7, 46795, Note_on_c, 5, 53, 0
7, 46795, Note_on_c, 5, 65, 0
7, 46800, Note_on_c, 5, 65, 89
7, 46800, Note_on_c, 5, 53, 89
7, 47040, Note_on_c, 5, 68, 89
7, 47040, Note_on_c, 5, 56, 89
7, 47275, Note_on_c, 5, 56, 0
7, 47275, Note_on_c, 5, 65, 0
7, 47275, Note_on_c, 5, 53, 0
7, 47275, Note_on_c, 5, 68, 0
7, 47280, Note_on_c, 5, 68, 89
7, 47280, Note_on_c, 5, 56, 89
7, 47755, Note_on_c, 5, 56, 0
7, 47755, Note_on_c, 5, 68, 0
7, 48000, Note_on_c, 5, 65, 89
7, 48000, Note_on_c, 5, 53, 89
7, 48475, Note_on_c, 5, 53, 0
7, 48475, Note_on_c, 5, 65, 0
7, 48720, Note_on_c, 5, 67, 89
7, 48720, Note_on_c, 5, 55, 89
7, 48960, Note_on_c, 5, 68, 89
7, 48960, Note_on_c, 5, 56, 89
7, 49195, Note_on_c, 5, 56, 0
7, 49195, Note_on_c, 5, 67, 0
7, 49195, Note_on_c, 5, 55, 0
7, 49195, Note_on_c, 5, 68, 0
7, 49200, Note_on_c, 5, 68, 89
7, 49200, Note_on_c, 5, 56, 89
7, 49675, Note_on_c, 5, 56, 0
7, 49675, Note_on_c, 5, 68, 0
7, 49680, Note_on_c, 5, 67, 89
7, 49680, Note_on_c, 5, 55, 89
7, 49915, Note_on_c, 5, 55, 0
7, 49915, Note_on_c, 5, 67, 0
7, 49920, Note_on_c, 5, 53, 89
7, 49920, Note_on_c, 5, 65, 89
7, 50155, Note_on_c, 5, 65, 0
7, 50155, Note_on_c, 5, 53, 0
7, 50160, Note_on_c, 5, 65, 89
7, 50160, Note_on_c, 5, 53, 89
7, 50635, Note_on_c, 5, 53, 0
7, 50635, Note_on_c, 5, 65, 0
7, 50640, Note_on_c, 5, 65, 89
7, 50640, Note_on_c, 5, 53, 89
7, 50880, Note_on_c, 5, 68, 89
7, 50880, Note_on_c, 5, 56, 89
7, 51115, Note_on_c, 5, 56, 0
7, 51115, Note_on_c, 5, 65, 0
7, 51115, Note_on_c, 5, 53, 0
7, 51115, Note_on_c, 5, 68, 0
7, 51120, Note_on_c, 5, 68, 89
7, 51120, Note_on_c, 5, 56, 89
7, 51595, Note_on_c, 5, 56, 0
7, 51595, Note_on_c, 5, 68, 0
7, 51840, Note_on_c, 5, 65, 89
7, 51840, Note_on_c, 5, 53, 89
7, 52315, Note_on_c, 5, 53, 0
7, 52315, Note_on_c, 5, 65, 0
7, 52560, Note_on_c, 5, 67, 89
7, 52560, Note_on_c, 5, 55, 89
7, 52800, Note_on_c, 5, 68, 89
7, 52800, Note_on_c, 5, 56, 89
7, 53035, Note_on_c, 5, 56, 0
7, 53035, Note_on_c, 5, 67, 0
7, 53035, Note_on_c, 5, 55, 0
7, 53035, Note_on_c, 5, 68, 0
7, 53040, Note_on_c, 5, 68, 89
7, 53040, Note_on_c, 5, 56, 89
7, 53515, Note_on_c, 5, 56, 0
7, 53515, Note_on_c, 5, 68, 0
7, 53520, Note_on_c, 5, 67, 89
7, 53520, Note_on_c, 5, 55, 89
7, 53755, Note_on_c, 5, 55, 0
7, 53755, Note_on_c, 5, 67, 0
7, 53760, Note_on_c, 5, 53, 89
7, 53760, Note_on_c, 5, 65, 89
7, 53995, Note_on_c, 5, 65, 0
7, 53995, Note_on_c, 5, 53, 0
7, 54000, Note_on_c, 5, 65, 89
7, 54000, Note_on_c, 5, 53, 89
7, 54475, Note_on_c, 5, 53, 0
7, 54475, Note_on_c, 5, 65, 0
7, 54480, Note_on_c, 5, 65, 89
7, 54480, Note_on_c, 5, 53, 89
7, 54720, Note_on_c, 5, 68, 89
7, 54720, Note_on_c, 5, 56, 89
7, 54955, Note_on_c, 5, 56, 0
7, 54955, Note_on_c, 5, 65, 0
7, 54955, Note_on_c, 5, 53, 0
7, 54955, Note_on_c, 5, 68, 0
7, 54960, Note_on_c, 5, 56, 89
7, 54960, Note_on_c, 5, 68, 89
7, 55435, Note_on_c, 5, 68, 0
7, 55435, Note_on_c, 5, 56, 0
7, 55680, Note_on_c, 5, 53, 89
7, 55680, Note_on_c, 5, 65, 89
7, 56155, Note_on_c, 5, 65, 0
7, 56155, Note_on_c, 5, 53, 0
7, 56400, Note_on_c, 5, 55, 89
7, 56400, Note_on_c, 5, 67, 89
7, 56640, Note_on_c, 5, 56, 89
7, 56640, Note_on_c, 5, 68, 89
7, 56875, Note_on_c, 5, 68, 0
7, 56875, Note_on_c, 5, 55, 0
7, 56875, Note_on_c, 5, 67, 0
7, 56875, Note_on_c, 5, 56, 0
7, 56880, Note_on_c, 5, 56, 89
7, 56880, Note_on_c, 5, 68, 89
7, 57355, Note_on_c, 5, 68, 0
7, 57355, Note_on_c, 5, 56, 0
7, 57360, Note_on_c, 5, 55, 89
7, 57360, Note_on_c, 5, 67, 89
7, 57595, Note_on_c, 5, 67, 0
7, 57595, Note_on_c, 5, 55, 0
7, 57600, Note_on_c, 5, 65, 89
7, 57600, Note_on_c, 5, 53, 89
7, 57835, Note_on_c, 5, 53, 0
7, 57835, Note_on_c, 5, 65, 0
7, 57840, Note_on_c, 5, 53, 89
7, 57840, Note_on_c, 5, 65, 89
7, 58315, Note_on_c, 5, 65, 0
7, 58315, Note_on_c, 5, 53, 0
7, 58320, Note_on_c, 5, 53, 89
7, 58320, Note_on_c, 5, 65, 89
7, 58560, Note_on_c, 5, 56, 89
7, 58560, Note_on_c, 5, 68, 89
7, 58795, Note_on_c, 5, 68, 0
7, 58795, Note_on_c, 5, 53, 0
7, 58795, Note_on_c, 5, 65, 0
7, 58795, Note_on_c, 5, 56, 0
7, 58800, Note_on_c, 5, 56, 89
7, 58800, Note_on_c, 5, 68, 89
7, 59275, Note_on_c, 5, 68, 0
7, 59275, Note_on_c, 5, 56, 0
7, 59520, Note_on_c, 5, 53, 89
7, 59520, Note_on_c, 5, 65, 89
7, 59995, Note_on_c, 5, 65, 0
7, 59995, Note_on_c, 5, 53, 0
7, 60240, Note_on_c, 5, 55, 89
7, 60240, Note_on_c, 5, 67, 89
7, 60480, Note_on_c, 5, 56, 89
7, 60480, Note_on_c, 5, 68, 89
7, 60715, Note_on_c, 5, 68, 0
7, 60715, Note_on_c, 5, 55, 0
7, 60715, Note_on_c, 5, 67, 0
7, 60715, Note_on_c, 5, 56, 0
7, 60720, Note_on_c, 5, 56, 89
7, 60720, Note_on_c, 5, 68, 89
7, 61195, Note_on_c, 5, 68, 0
7, 61195, Note_on_c, 5, 56, 0
7, 61200, Note_on_c, 5, 55, 89
7, 61200, Note_on_c, 5, 67, 89
7, 61435, Note_on_c, 5, 67, 0
7, 61435, Note_on_c, 5, 55, 0
7, 84480, Note_on_c, 5, 53, 89
7, 84480, Note_on_c, 5, 65, 89
7, 84715, Note_on_c, 5, 65, 0
7, 84715, Note_on_c, 5, 53, 0
7, 84720, Note_on_c, 5, 65, 89
7, 84720, Note_on_c, 5, 53, 89
7, 85195, Note_on_c, 5, 53, 0
7, 85195, Note_on_c, 5, 65, 0
7, 85200, Note_on_c, 5, 65, 89
7, 85200, Note_on_c, 5, 53, 89
7, 85440, Note_on_c, 5, 68, 89
7, 85440, Note_on_c, 5, 56, 89
7, 85675, Note_on_c, 5, 56, 0
7, 85675, Note_on_c, 5, 65, 0
7, 85675, Note_on_c, 5, 53, 0
7, 85675, Note_on_c, 5, 68, 0
7, 85680, Note_on_c, 5, 68, 89
7, 85680, Note_on_c, 5, 56, 89
7, 86155, Note_on_c, 5, 56, 0
7, 86155, Note_on_c, 5, 68, 0
7, 86400, Note_on_c, 5, 65, 89
7, 86400, Note_on_c, 5, 53, 89
7, 86875, Note_on_c, 5, 53, 0
7, 86875, Note_on_c, 5, 65, 0
7, 87120, Note_on_c, 5, 67, 89
7, 87120, Note_on_c, 5, 55, 89
7, 87360, Note_on_c, 5, 68, 89
7, 87360, Note_on_c, 5, 56, 89
7, 87595, Note_on_c, 5, 56, 0
7, 87595, Note_on_c, 5, 67, 0
7, 87595, Note_on_c, 5, 55, 0
7, 87595, Note_on_c, 5, 68, 0
7, 87600, Note_on_c, 5, 68, 89
7, 87600, Note_on_c, 5, 56, 89
7, 88075, Note_on_c, 5, 56, 0
7, 88075, Note_on_c, 5, 68, 0
7, 88080, Note_on_c, 5, 67, 89
7, 88080, Note_on_c, 5, 55, 89
7, 88315, Note_on_c, 5, 55, 0
7, 88315, Note_on_c, 5, 67, 0
7, 88320, Note_on_c, 5, 53, 89
7, 88320, Note_on_c, 5, 65, 89
7, 88555, Note_on_c, 5, 65, 0
7, 88555, Note_on_c, 5, 53, 0
7, 88560, Note_on_c, 5, 65, 89
7, 88560, Note_on_c, 5, 53, 89
7, 89035, Note_on_c, 5, 53, 0
7, 89035, Note_on_c, 5, 65, 0
7, 89040, Note_on_c, 5, 65, 89
7, 89040, Note_on_c, 5, 53, 89
7, 89280, Note_on_c, 5, 68, 89
7, 89280, Note_on_c, 5, 56, 89
7, 89515, Note_on_c, 5, 56, 0
7, 89515, Note_on_c, 5, 65, 0
7, 89515, Note_on_c, 5, 53, 0
7, 89515, Note_on_c, 5, 68, 0
7, 89520, Note_on_c, 5, 68, 89
7, 89520, Note_on_c, 5, 56, 89
7, 89995, Note_on_c, 5, 56, 0
7, 89995, Note_on_c, 5, 68, 0
7, 90240, Note_on_c, 5, 65, 89
7, 90240, Note_on_c, 5, 53, 89
7, 90715, Note_on_c, 5, 53, 0
7, 90715, Note_on_c, 5, 65, 0
7, 90960, Note_on_c, 5, 67, 89
7, 90960, Note_on_c, 5, 55, 89
7, 91200, Note_on_c, 5, 68, 89
7, 91200, Note_on_c, 5, 56, 89
7, 91435, Note_on_c, 5, 56, 0
7, 91435, Note_on_c, 5, 67, 0
7, 91435, Note_on_c, 5, 55, 0
7, 91435, Note_on_c, 5, 68, 0
7, 91440, Note_on_c, 5, 68, 89
7, 91440, Note_on_c, 5, 56, 89
7, 91915, Note_on_c, 5, 56, 0
7, 91915, Note_on_c, 5, 68, 0
7, 91920, Note_on_c, 5, 67, 89
7, 91920, Note_on_c, 5, 55, 89
7, 92155, Note_on_c, 5, 55, 0
7, 92155, Note_on_c, 5, 67, 0
7, 92160, Note_on_c, 5, 53, 89
7, 92160, Note_on_c, 5, 65, 89
7, 92395, Note_on_c, 5, 65, 0
7, 92395, Note_on_c, 5, 53, 0
7, 92400, Note_on_c, 5, 65, 89
7, 92400, Note_on_c, 5, 53, 89
7, 92875, Note_on_c, 5, 53, 0
7, 92875, Note_on_c, 5, 65, 0
7, 92880, Note_on_c, 5, 65, 89
7, 92880, Note_on_c, 5, 53, 89
7, 93120, Note_on_c, 5, 68, 89
7, 93120, Note_on_c, 5, 56, 89
7, 93355, Note_on_c, 5, 56, 0
7, 93355, Note_on_c, 5, 65, 0
7, 93355, Note_on_c, 5, 53, 0
7, 93355, Note_on_c, 5, 68, 0
7, 93360, Note_on_c, 5, 56, 89
7, 93360, Note_on_c, 5, 68, 89
7, 93835, Note_on_c, 5, 68, 0
7, 93835, Note_on_c, 5, 56, 0
7, 94080, Note_on_c, 5, 53, 89
7, 94080, Note_on_c, 5, 65, 89
7, 94555, Note_on_c, 5, 65, 0
7, 94555, Note_on_c, 5, 53, 0
7, 94800, Note_on_c, 5, 55, 89
7, 94800, Note_on_c, 5, 67, 89
7, 95040, Note_on_c, 5, 56, 89
7, 95040, Note_on_c, 5, 68, 89
7, 95275, Note_on_c, 5, 68, 0
7, 95275, Note_on_c, 5, 55, 0
7, 95275, Note_on_c, 5, 67, 0
7, 95275, Note_on_c, 5, 56, 0
7, 95280, Note_on_c, 5, 56, 89
7, 95280, Note_on_c, 5, 68, 89
7, 95755, Note_on_c, 5, 68, 0
7, 95755, Note_on_c, 5, 56, 0
7, 95760, Note_on_c, 5, 55, 89
7, 95760, Note_on_c, 5, 67, 89
7, 95995, Note_on_c, 5, 67, 0
7, 95995, Note_on_c, 5, 55, 0
7, 96000, Note_on_c, 5, 65, 89
7, 96000, Note_on_c, 5, 53, 89
7, 96235, Note_on_c, 5, 53, 0
7, 96235, Note_on_c, 5, 65, 0
7, 96240, Note_on_c, 5, 53, 89
7, 96240, Note_on_c, 5, 65, 89
7, 96715, Note_on_c, 5, 65, 0
7, 96715, Note_on_c, 5, 53, 0
7, 96720, Note_on_c, 5, 53, 89
7, 96720, Note_on_c, 5, 65, 89
7, 96960, Note_on_c, 5, 56, 89
7, 96960, Note_on_c, 5, 68, 89
7, 97195, Note_on_c, 5, 68, 0
7, 97195, Note_on_c, 5, 53, 0
7, 97195, Note_on_c, 5, 65, 0
7, 97195, Note_on_c, 5, 56, 0
7, 97200, Note_on_c, 5, 56, 89
7, 97200, Note_on_c, 5, 68, 89
7, 97675, Note_on_c, 5, 68, 0
7, 97675, Note_on_c, 5, 56, 0
7, 97920, Note_on_c, 5, 53, 89
7, 97920, Note_on_c, 5, 65, 89
7, 98395, Note_on_c, 5, 65, 0
7, 98395, Note_on_c, 5, 53, 0
7, 98640, Note_on_c, 5, 55, 89
7, 98640, Note_on_c, 5, 67, 89
7, 98880, Note_on_c, 5, 56, 89
7, 98880, Note_on_c, 5, 68, 89
7, 99115, Note_on_c, 5, 68, 0
7, 99115, Note_on_c, 5, 55, 0
7, 99115, Note_on_c, 5, 67, 0
7, 99115, Note_on_c, 5, 56, 0
7, 99120, Note_on_c, 5, 56, 89
7, 99120, Note_on_c, 5, 68, 89
7, 99595, Note_on_c, 5, 68, 0
7, 99595, Note_on_c, 5, 56, 0
7, 99600, Note_on_c, 5, 55, 89
7, 99600, Note_on_c, 5, 67, 89
7, 99835, Note_on_c, 5, 67, 0
7, 99835, Note_on_c, 5, 55, 0
7, 138240, Note_on_c, 5, 53, 89
7, 138240, Note_on_c, 5, 65, 89
7, 138475, Note_on_c, 5, 65, 0
7, 138475, Note_on_c, 5, 53, 0
7, 138480, Note_on_c, 5, 65, 89
7, 138480, Note_on_c, 5, 53, 89
7, 138955, Note_on_c, 5, 53, 0
7, 138955, Note_on_c, 5, 65, 0
7, 138960, Note_on_c, 5, 65, 89
7, 138960, Note_on_c, 5, 53, 89
7, 139200, Note_on_c, 5, 68, 89
7, 139200, Note_on_c, 5, 56, 89
7, 139435, Note_on_c, 5, 56, 0
7, 139435, Note_on_c, 5, 65, 0
7, 139435, Note_on_c, 5, 53, 0
7, 139435, Note_on_c, 5, 68, 0
7, 139440, Note_on_c, 5, 68, 89
7, 139440, Note_on_c, 5, 56, 89
7, 139915, Note_on_c, 5, 56, 0
7, 139915, Note_on_c, 5, 68, 0
7, 140160, Note_on_c, 5, 65, 89
7, 140160, Note_on_c, 5, 53, 89
7, 140635, Note_on_c, 5, 53, 0
7, 140635, Note_on_c, 5, 65, 0
7, 140880, Note_on_c, 5, 67, 89
7, 140880, Note_on_c, 5, 55, 89
7, 141120, Note_on_c, 5, 68, 89
7, 141120, Note_on_c, 5, 56, 89
7, 141355, Note_on_c, 5, 56, 0
7, 141355, Note_on_c, 5, 67, 0
7, 141355, Note_on_c, 5, 55, 0
7, 141355, Note_on_c, 5, 68, 0
7, 141360, Note_on_c, 5, 68, 89
7, 141360, Note_on_c, 5, 56, 89
7, 141835, Note_on_c, 5, 56, 0
7, 141835, Note_on_c, 5, 68, 0
7, 141840, Note_on_c, 5, 67, 89
7, 141840, Note_on_c, 5, 55, 89
7, 142075, Note_on_c, 5, 55, 0
7, 142075, Note_on_c, 5, 67, 0
7, 142080, Note_on_c, 5, 53, 89
7, 142080, Note_on_c, 5, 65, 89
7, 142315, Note_on_c, 5, 65, 0
7, 142315, Note_on_c, 5, 53, 0
7, 142320, Note_on_c, 5, 65, 89
7, 142320, Note_on_c, 5, 53, 89
7, 142795, Note_on_c, 5, 53, 0
7, 142795, Note_on_c, 5, 65, 0
7, 142800, Note_on_c, 5, 65, 89
7, 142800, Note_on_c, 5, 53, 89
7, 143040, Note_on_c, 5, 68, 89
7, 143040, Note_on_c, 5, 56, 89
7, 143275, Note_on_c, 5, 56, 0
7, 143275, Note_on_c, 5, 65, 0
7, 143275, Note_on_c, 5, 53, 0
7, 143275, Note_on_c, 5, 68, 0
7, 143280, Note_on_c, 5, 68, 89
7, 143280, Note_on_c, 5, 56, 89
7, 143755, Note_on_c, 5, 56, 0
7, 143755, Note_on_c, 5, 68, 0
7, 144000, Note_on_c, 5, 65, 89
7, 144000, Note_on_c, 5, 53, 89
7, 144475, Note_on_c, 5, 53, 0
7, 144475, Note_on_c, 5, 65, 0
7, 144720, Note_on_c, 5, 67, 89
7, 144720, Note_on_c, 5, 55, 89
7, 144960, Note_on_c, 5, 68, 89
7, 144960, Note_on_c, 5, 56, 89
7, 145195, Note_on_c, 5, 56, 0
7, 145195, Note_on_c, 5, 67, 0
7, 145195, Note_on_c, 5, 55, 0
7, 145195, Note_on_c, 5, 68, 0
7, 145200, Note_on_c, 5, 68, 89
7, 145200, Note_on_c, 5, 56, 89
7, 145675, Note_on_c, 5, 56, 0
7, 145675, Note_on_c, 5, 68, 0
7, 145680, Note_on_c, 5, 67, 89
7, 145680, Note_on_c, 5, 55, 89
7, 145915, Note_on_c, 5, 55, 0
7, 145915, Note_on_c, 5, 67, 0
7, 145920, Note_on_c, 5, 53, 89
7, 145920, Note_on_c, 5, 65, 89
7, 146155, Note_on_c, 5, 65, 0
7, 146155, Note_on_c, 5, 53, 0
7, 146160, Note_on_c, 5, 65, 89
7, 146160, Note_on_c, 5, 53, 89
7, 146635, Note_on_c, 5, 53, 0
7, 146635, Note_on_c, 5, 65, 0
7, 146640, Note_on_c, 5, 65, 89
7, 146640, Note_on_c, 5, 53, 89
7, 146880, Note_on_c, 5, 68, 89
7, 146880, Note_on_c, 5, 56, 89
7, 147115, Note_on_c, 5, 56, 0
7, 147115, Note_on_c, 5, 65, 0
7, 147115, Note_on_c, 5, 53, 0
7, 147115, Note_on_c, 5, 68, 0
7, 147120, Note_on_c, 5, 56, 89
7, 147120, Note_on_c, 5, 68, 89
7, 147595, Note_on_c, 5, 68, 0
7, 147595, Note_on_c, 5, 56, 0
7, 147840, Note_on_c, 5, 53, 89
7, 147840, Note_on_c, 5, 65, 89
7, 148315, Note_on_c, 5, 65, 0
7, 148315, Note_on_c, 5, 53, 0
7, 148560, Note_on_c, 5, 55, 89
7, 148560, Note_on_c, 5, 67, 89
7, 148800, Note_on_c, 5, 56, 89
7, 148800, Note_on_c, 5, 68, 89
7, 149035, Note_on_c, 5, 68, 0
7, 149035, Note_on_c, 5, 55, 0
7, 149035, Note_on_c, 5, 67, 0
7, 149035, Note_on_c, 5, 56, 0
7, 149040, Note_on_c, 5, 56, 89
7, 149040, Note_on_c, 5, 68, 89
7, 149515, Note_on_c, 5, 68, 0
7, 149515, Note_on_c, 5, 56, 0
7, 149520, Note_on_c, 5, 55, 89
7, 149520, Note_on_c, 5, 67, 89
7, 149755, Note_on_c, 5, 67, 0
7, 149755, Note_on_c, 5, 55, 0
7, 149760, Note_on_c, 5, 65, 89
7, 149760, Note_on_c, 5, 53, 89
7, 149995, Note_on_c, 5, 53, 0
7, 149995, Note_on_c, 5, 65, 0
7, 150000, Note_on_c, 5, 53, 89
7, 150000, Note_on_c, 5, 65, 89
7, 150475, Note_on_c, 5, 65, 0
7, 150475, Note_on_c, 5, 53, 0
7, 150480, Note_on_c, 5, 53, 89
7, 150480, Note_on_c, 5, 65, 89
7, 150720, Note_on_c, 5, 56, 89
7, 150720, Note_on_c, 5, 68, 89
7, 150955, Note_on_c, 5, 68, 0
7, 150955, Note_on_c, 5, 53, 0
7, 150955, Note_on_c, 5, 65, 0
7, 150955, Note_on_c, 5, 56, 0
7, 150960, Note_on_c, 5, 56, 89
7, 150960, Note_on_c, 5, 68, 89
7, 151435, Note_on_c, 5, 68, 0
7, 151435, Note_on_c, 5, 56, 0
7, 151680, Note_on_c, 5, 53, 89
7, 151680, Note_on_c, 5, 65, 89
7, 152155, Note_on_c, 5, 65, 0
7, 152155, Note_on_c, 5, 53, 0
7, 152400, Note_on_c, 5, 55, 89
7, 152400, Note_on_c, 5, 67, 89
7, 152640, Note_on_c, 5, 56, 89
7, 152640, Note_on_c, 5, 68, 89
7, 152875, Note_on_c, 5, 68, 0
7, 152875, Note_on_c, 5, 55, 0
7, 152875, Note_on_c, 5, 67, 0
7, 152875, Note_on_c, 5, 56, 0
7, 152880, Note_on_c, 5, 56, 89
7, 152880, Note_on_c, 5, 68, 89
7, 153355, Note_on_c, 5, 68, 0
7, 153355, Note_on_c, 5, 56, 0
7, 153360, Note_on_c, 5, 55, 89
7, 153360, Note_on_c, 5, 67, 89
7, 153595, Note_on_c, 5, 67, 0
7, 153595, Note_on_c, 5, 55, 0
7, 184320, Note_on_c, 5, 53, 89
7, 184320, Note_on_c, 5, 65, 89
7, 184555, Note_on_c, 5, 65, 0
7, 184555, Note_on_c, 5, 53, 0
7, 184560, Note_on_c, 5, 65, 89
7, 184560, Note_on_c, 5, 53, 89
7, 185035, Note_on_c, 5, 53, 0
7, 185035, Note_on_c, 5, 65, 0
7, 185040, Note_on_c, 5, 65, 89
7, 185040, Note_on_c, 5, 53, 89
7, 185280, Note_on_c, 5, 68, 89
7, 185280, Note_on_c, 5, 56, 89
7, 185515, Note_on_c, 5, 56, 0
7, 185515, Note_on_c, 5, 65, 0
7, 185515, Note_on_c, 5, 53, 0
7, 185515, Note_on_c, 5, 68, 0
7, 185520, Note_on_c, 5, 68, 89
7, 185520, Note_on_c, 5, 56, 89
7, 185995, Note_on_c, 5, 56, 0
7, 185995, Note_on_c, 5, 68, 0
7, 186240, Note_on_c, 5, 65, 89
7, 186240, Note_on_c, 5, 53, 89
7, 186715, Note_on_c, 5, 53, 0
7, 186715, Note_on_c, 5, 65, 0
7, 186960, Note_on_c, 5, 67, 89
7, 186960, Note_on_c, 5, 55, 89
7, 187200, Note_on_c, 5, 68, 89
7, 187200, Note_on_c, 5, 56, 89
7, 187435, Note_on_c, 5, 56, 0
7, 187435, Note_on_c, 5, 67, 0
7, 187435, Note_on_c, 5, 55, 0
7, 187435, Note_on_c, 5, 68, 0
7, 187440, Note_on_c, 5, 68, 89
7, 187440, Note_on_c, 5, 56, 89
7, 187915, Note_on_c, 5, 56, 0
7, 187915, Note_on_c, 5, 68, 0
7, 187920, Note_on_c, 5, 67, 89
7, 187920, Note_on_c, 5, 55, 89
7, 188155, Note_on_c, 5, 55, 0
7, 188155, Note_on_c, 5, 67, 0
7, 188160, Note_on_c, 5, 53, 89
7, 188160, Note_on_c, 5, 65, 89
7, 188395, Note_on_c, 5, 65, 0
7, 188395, Note_on_c, 5, 53, 0
7, 188400, Note_on_c, 5, 65, 89
7, 188400, Note_on_c, 5, 53, 89
7, 188875, Note_on_c, 5, 53, 0
7, 188875, Note_on_c, 5, 65, 0
7, 188880, Note_on_c, 5, 65, 89
7, 188880, Note_on_c, 5, 53, 89
7, 189120, Note_on_c, 5, 68, 89
7, 189120, Note_on_c, 5, 56, 89
7, 189355, Note_on_c, 5, 56, 0
7, 189355, Note_on_c, 5, 65, 0
7, 189355, Note_on_c, 5, 53, 0
7, 189355, Note_on_c, 5, 68, 0
7, 189360, Note_on_c, 5, 68, 89
7, 189360, Note_on_c, 5, 56, 89
7, 189835, Note_on_c, 5, 56, 0
7, 189835, Note_on_c, 5, 68, 0
7, 190080, Note_on_c, 5, 65, 89
7, 190080, Note_on_c, 5, 53, 89
7, 190555, Note_on_c, 5, 53, 0
7, 190555, Note_on_c, 5, 65, 0
7, 190800, Note_on_c, 5, 67, 89
7, 190800, Note_on_c, 5, 55, 89
7, 191040, Note_on_c, 5, 68, 89
7, 191040, Note_on_c, 5, 56, 89
7, 191275, Note_on_c, 5, 56, 0
7, 191275, Note_on_c, 5, 67, 0
7, 191275, Note_on_c, 5, 55, 0
7, 191275, Note_on_c, 5, 68, 0
7, 191280, Note_on_c, 5, 68, 89
7, 191280, Note_on_c, 5, 56, 89
7, 191755, Note_on_c, 5, 56, 0
7, 191755, Note_on_c, 5, 68, 0
7, 191760, Note_on_c, 5, 67, 89
7, 191760, Note_on_c, 5, 55, 89
7, 191995, Note_on_c, 5, 55, 0
7, 191995, Note_on_c, 5, 67, 0
7, 192000, Note_on_c, 5, 53, 89
7, 192000, Note_on_c, 5, 65, 89
7, 192235, Note_on_c, 5, 65, 0
7, 192235, Note_on_c, 5, 53, 0
7, 192240, Note_on_c, 5, 65, 89
7, 192240, Note_on_c, 5, 53, 89
7, 192715, Note_on_c, 5, 53, 0
7, 192715, Note_on_c, 5, 65, 0
7, 192720, Note_on_c, 5, 65, 89
7, 192720, Note_on_c, 5, 53, 89
7, 192960, Note_on_c, 5, 68, 89
7, 192960, Note_on_c, 5, 56, 89
7, 193195, Note_on_c, 5, 56, 0
7, 193195, Note_on_c, 5, 65, 0
7, 193195, Note_on_c, 5, 53, 0
7, 193195, Note_on_c, 5, 68, 0
7, 193200, Note_on_c, 5, 68, 89
7, 193200, Note_on_c, 5, 56, 89
7, 193675, Note_on_c, 5, 56, 0
7, 193675, Note_on_c, 5, 68, 0
7, 193920, Note_on_c, 5, 65, 89
7, 193920, Note_on_c, 5, 53, 89
7, 194395, Note_on_c, 5, 53, 0
7, 194395, Note_on_c, 5, 65, 0
7, 194640, Note_on_c, 5, 67, 89
7, 194640, Note_on_c, 5, 55, 89
7, 194880, Note_on_c, 5, 68, 89
7, 194880, Note_on_c, 5, 56, 89
7, 195115, Note_on_c, 5, 56, 0
7, 195115, Note_on_c, 5, 67, 0
7, 195115, Note_on_c, 5, 55, 0
7, 195115, Note_on_c, 5, 68, 0
7, 195120, Note_on_c, 5, 68, 89
7, 195120, Note_on_c, 5, 56, 89
7, 195595, Note_on_c, 5, 56, 0
7, 195595, Note_on_c, 5, 68, 0
7, 195600, Note_on_c, 5, 67, 89
7, 195600, Note_on_c, 5, 55, 89
7, 195835, Note_on_c, 5, 55, 0
7, 195835, Note_on_c, 5, 67, 0
7, 195840, Note_on_c, 5, 53, 89
7, 195840, Note_on_c, 5, 65, 89
7, 196075, Note_on_c, 5, 65, 0
7, 196075, Note_on_c, 5, 53, 0
7, 196080, Note_on_c, 5, 65, 89
7, 196080, Note_on_c, 5, 53, 89
7, 196555, Note_on_c, 5, 53, 0
7, 196555, Note_on_c, 5, 65, 0
7, 196560, Note_on_c, 5, 65, 89
7, 196560, Note_on_c, 5, 53, 89
7, 196800, Note_on_c, 5, 68, 89
7, 196800, Note_on_c, 5, 56, 89
7, 197035, Note_on_c, 5, 56, 0
7, 197035, Note_on_c, 5, 65, 0
7, 197035, Note_on_c, 5, 53, 0
7, 197035, Note_on_c, 5, 68, 0
7, 197040, Note_on_c, 5, 68, 89
7, 197040, Note_on_c, 5, 56, 89
7, 197515, Note_on_c, 5, 56, 0
7, 197515, Note_on_c, 5, 68, 0
7, 197760, Note_on_c, 5, 65, 89
7, 197760, Note_on_c, 5, 53, 89
7, 198235, Note_on_c, 5, 53, 0
7, 198235, Note_on_c, 5, 65, 0
7, 198480, Note_on_c, 5, 67, 89
7, 198480, Note_on_c, 5, 55, 89
7, 198720, Note_on_c, 5, 68, 89
7, 198720, Note_on_c, 5, 56, 89
7, 198955, Note_on_c, 5, 56, 0
7, 198955, Note_on_c, 5, 67, 0
7, 198955, Note_on_c, 5, 55, 0
7, 198955, Note_on_c, 5, 68, 0
7, 198960, Note_on_c, 5, 68, 89
7, 198960, Note_on_c, 5, 56, 89
7, 199435, Note_on_c, 5, 56, 0
7, 199435, Note_on_c, 5, 68, 0
7, 199440, Note_on_c, 5, 67, 89
7, 199440, Note_on_c, 5, 55, 89
7, 199675, Note_on_c, 5, 55, 0
7, 199675, Note_on_c, 5, 67, 0
7, 199675, End_track
8, 0, Start_track
8, 512, Program_c, 6, 81
8, 513, Control_c, 6, 7, 79
8, 513, Control_c, 6, 10, 64
8, 46320, Note_on_c, 6, 77, 79
8, 46375, Note_on_c, 6, 77, 0
8, 46560, Note_on_c, 6, 77, 79
8, 46735, Note_on_c, 6, 77, 0
8, 46800, Note_on_c, 6, 79, 79
8, 46855, Note_on_c, 6, 79, 0
8, 47040, Note_on_c, 6, 80, 79
8, 47095, Note_on_c, 6, 80, 0
8, 47280, Note_on_c, 6, 80, 79
8, 47335, Note_on_c, 6, 80, 0
8, 47520, Note_on_c, 6, 80, 79
8, 47755, Note_on_c, 6, 80, 0
8, 47760, Note_on_c, 6, 79, 79
8, 47815, Note_on_c, 6, 79, 0
8, 48240, Note_on_c, 6, 77, 79
8, 48295, Note_on_c, 6, 77, 0
8, 48480, Note_on_c, 6, 77, 79
8, 48655, Note_on_c, 6, 77, 0
8, 48720, Note_on_c, 6, 79, 79
8, 48775, Note_on_c, 6, 79, 0
8, 48960, Note_on_c, 6, 80, 79
8, 49015, Note_on_c, 6, 80, 0
8, 49200, Note_on_c, 6, 80, 79
8, 49255, Note_on_c, 6, 80, 0
8, 49440, Note_on_c, 6, 80, 79
8, 49675, Note_on_c, 6, 80, 0
8, 49680, Note_on_c, 6, 79, 79
8, 49735, Note_on_c, 6, 79, 0
8, 50160, Note_on_c, 6, 77, 79
8, 50275, Note_on_c, 6, 77, 0
8, 50400, Note_on_c, 6, 77, 79
8, 50575, Note_on_c, 6, 77, 0
8, 50640, Note_on_c, 6, 79, 79
8, 50695, Note_on_c, 6, 79, 0
8, 50880, Note_on_c, 6, 80, 79
8, 50935, Note_on_c, 6, 80, 0
8, 51120, Note_on_c, 6, 80, 79
8, 51175, Note_on_c, 6, 80, 0
8, 51360, Note_on_c, 6, 80, 79
8, 51595, Note_on_c, 6, 80, 0
8, 51600, Note_on_c, 6, 79, 79
8, 51655, Note_on_c, 6, 79, 0
8, 52080, Note_on_c, 6, 77, 79
8, 52135, Note_on_c, 6, 77, 0
8, 52320, Note_on_c, 6, 77, 79
8, 52555, Note_on_c, 6, 77, 0
8, 52560, Note_on_c, 6, 79, 79
8, 52615, Note_on_c, 6, 79, 0
8, 52800, Note_on_c, 6, 80, 79
8, 52855, Note_on_c, 6, 80, 0
8, 53040, Note_on_c, 6, 80, 79
8, 53095, Note_on_c, 6, 80, 0
8, 53280, Note_on_c, 6, 80, 79
8, 53395, Note_on_c, 6, 80, 0
8, 53520, Note_on_c, 6, 80, 79
8, 53575, Note_on_c, 6, 80, 0
8, 53760, Note_on_c, 6, 77, 79
8, 53760, Note_on_c, 6, 84, 79
8, 53815, Note_on_c, 6, 84, 0
8, 53815, Note_on_c, 6, 77, 0
8, 54000, Note_on_c, 6, 77, 79
8, 54000, Note_on_c, 6, 84, 79
8, 54055, Note_on_c, 6, 84, 0
8, 54055, Note_on_c, 6, 77, 0
8, 54240, Note_on_c, 6, 77, 79
8, 54240, Note_on_c, 6, 84, 79
8, 54295, Note_on_c, 6, 84, 0
8, 54295, Note_on_c, 6, 77, 0
8, 54480, Note_on_c, 6, 77, 79
8, 54480, Note_on_c, 6, 84, 79
8, 54535, Note_on_c, 6, 77, 0
8, 54595, Note_on_c, 6, 84, 0
8, 54720, Note_on_c, 6, 75, 79
8, 54720, Note_on_c, 6, 82, 79
8, 54775, Note_on_c, 6, 82, 0
8, 54775, Note_on_c, 6, 75, 0
8, 54960, Note_on_c, 6, 82, 79
8, 54960, Note_on_c, 6, 75, 79
8, 55015, Note_on_c, 6, 75, 0
8, 55015, Note_on_c, 6, 82, 0
8, 55200, Note_on_c, 6, 82, 79
8, 55200, Note_on_c, 6, 75, 79
8, 55255, Note_on_c, 6, 75, 0
8, 55255, Note_on_c, 6, 82, 0
8, 55440, Note_on_c, 6, 82, 79
8, 55440, Note_on_c, 6, 75, 79
8, 55555, Note_on_c, 6, 82, 0
8, 55615, Note_on_c, 6, 75, 0
8, 55680, Note_on_c, 6, 80, 79
8, 55680, Note_on_c, 6, 77, 79
8, 55735, Note_on_c, 6, 77, 0
8, 55735, Note_on_c, 6, 80, 0
8, 55920, Note_on_c, 6, 80, 79
8, 55920, Note_on_c, 6, 77, 79
8, 55975, Note_on_c, 6, 77, 0
8, 55975, Note_on_c, 6, 80, 0
8, 56160, Note_on_c, 6, 80, 79
8, 56160, Note_on_c, 6, 77, 79
8, 56215, Note_on_c, 6, 77, 0
8, 56215, Note_on_c, 6, 80, 0
8, 56400, Note_on_c, 6, 80, 79
8, 56400, Note_on_c, 6, 77, 79
8, 56455, Note_on_c, 6, 80, 0
8, 56635, Note_on_c, 6, 77, 0
8, 56640, Note_on_c, 6, 79, 79
8, 56640, Note_on_c, 6, 75, 79
8, 56695, Note_on_c, 6, 75, 0
8, 56755, Note_on_c, 6, 79, 0
8, 56880, Note_on_c, 6, 77, 79
8, 56880, Note_on_c, 6, 75, 79
8, 56935, Note_on_c, 6, 75, 0
8, 56935, Note_on_c, 6, 77, 0
8, 57120, Note_on_c, 6, 75, 79
8, 57120, Note_on_c, 6, 75, 79
8, 57175, Note_on_c, 6, 75, 0
8, 57175, Note_on_c, 6, 75, 0
8, 57360, Note_on_c, 6, 79, 79
8, 57360, Note_on_c, 6, 75, 79
8, 57595, Note_on_c, 6, 75, 0
8, 57595, Note_on_c, 6, 79, 0
8, 57600, Note_on_c, 6, 77, 79
8, 58080, Note_on_c, 6, 80, 79
8, 58315, Note_on_c, 6, 80, 0
8, 58315, Note_on_c, 6, 77, 0
8, 58320, Note_on_c, 6, 77, 79
8, 58615, Note_on_c, 6, 77, 0
8, 58800, Note_on_c, 6, 80, 79
8, 59035, Note_on_c, 6, 80, 0
8, 59040, Note_on_c, 6, 77, 79
8, 59395, Note_on_c, 6, 77, 0
8, 60240, Note_on_c, 6, 80, 79
8, 60475, Note_on_c, 6, 80, 0
8, 60480, Note_on_c, 6, 77, 79
8, 60715, Note_on_c, 6, 77, 0
8, 60720, Note_on_c, 6, 80, 79
8, 60955, Note_on_c, 6, 80, 0
8, 60960, Note_on_c, 6, 77, 79
8, 61195, Note_on_c, 6, 77, 0
8, 84720, Note_on_c, 6, 77, 79
8, 84775, Note_on_c, 6, 77, 0
8, 84960, Note_on_c, 6, 77, 79
8, 85135, Note_on_c, 6, 77, 0
8, 85200, Note_on_c, 6, 79, 79
8, 85255, Note_on_c, 6, 79, 0
8, 85440, Note_on_c, 6, 80, 79
8, 85495, Note_on_c, 6, 80, 0
8, 85680, Note_on_c, 6, 80, 79
8, 85735, Note_on_c, 6, 80, 0
8, 85920, Note_on_c, 6, 80, 79
8, 86155, Note_on_c, 6, 80, 0
8, 86160, Note_on_c, 6, 79, 79
8, 86215, Note_on_c, 6, 79, 0
8, 86640, Note_on_c, 6, 77, 79
8, 86695, Note_on_c, 6, 77, 0
8, 86880, Note_on_c, 6, 77, 79
8, 87055, Note_on_c, 6, 77, 0
8, 87120, Note_on_c, 6, 79, 79
8, 87175, Note_on_c, 6, 79, 0
8, 87360, Note_on_c, 6, 80, 79
8, 87415, Note_on_c, 6, 80, 0
8, 87600, Note_on_c, 6, 80, 79
8, 87655, Note_on_c, 6, 80, 0
8, 87840, Note_on_c, 6, 80, 79
8, 88075, Note_on_c, 6, 80, 0
8, 88080, Note_on_c, 6, 79, 79
8, 88135, Note_on_c, 6, 79, 0
8, 88560, Note_on_c, 6, 77, 79
8, 88675, Note_on_c, 6, 77, 0
8, 88800, Note_on_c, 6, 77, 79
8, 88975, Note_on_c, 6, 77, 0
8, 89040, Note_on_c, 6, 79, 79
8, 89095, Note_on_c, 6, 79, 0
8, 89280, Note_on_c, 6, 80, 79
8, 89335, Note_on_c, 6, 80, 0
8, 89520, Note_on_c, 6, 80, 79
8, 89575, Note_on_c, 6, 80, 0
8, 89760, Note_on_c, 6, 80, 79
8, 89995, Note_on_c, 6, 80, 0
8, 90000, Note_on_c, 6, 79, 79
8, 90055, Note_on_c, 6, 79, 0
8, 90480, Note_on_c, 6, 77, 79
8, 90535, Note_on_c, 6, 77, 0
8, 90720, Note_on_c, 6, 77, 79
8, 90955, Note_on_c, 6, 77, 0
8, 90960, Note_on_c, 6, 79, 79
8, 91015, Note_on_c, 6, 79, 0
8, 91200, Note_on_c, 6, 80, 79
8, 91255, Note_on_c, 6, 80, 0
8, 91440, Note_on_c, 6, 80, 79
8, 91495, Note_on_c, 6, 80, 0
8, 91680, Note_on_c, 6, 80, 79
8, 91795, Note_on_c, 6, 80, 0
8, 91920, Note_on_c, 6, 80, 79
8, 91975, Note_on_c, 6, 80, 0
8, 92160, Note_on_c, 6, 77, 79
8, 92160, Note_on_c, 6, 84, 79
8, 92215, Note_on_c, 6, 84, 0
8, 92215, Note_on_c, 6, 77, 0
8, 92400, Note_on_c, 6, 77, 79
8, 92400, Note_on_c, 6, 84, 79
8, 92455, Note_on_c, 6, 84, 0
8, 92455, Note_on_c, 6, 77, 0
8, 92640, Note_on_c, 6, 77, 79
8, 92640, Note_on_c, 6, 84, 79
8, 92695, Note_on_c, 6, 84, 0
8, 92695, Note_on_c, 6, 77, 0
8, 92880, Note_on_c, 6, 77, 79
8, 92880, Note_on_c, 6, 84, 79
8, 92935, Note_on_c, 6, 77, 0
8, 92995, Note_on_c, 6, 84, 0
8, 93120, Note_on_c, 6, 75, 79
8, 93120, Note_on_c, 6, 82, 79
8, 93175, Note_on_c, 6, 82, 0
8, 93175, Note_on_c, 6, 75, 0
8, 93360, Note_on_c, 6, 82, 79
8, 93360, Note_on_c, 6, 75, 79
8, 93415, Note_on_c, 6, 75, 0
8, 93415, Note_on_c, 6, 82, 0
8, 93600, Note_on_c, 6, 82, 79
8, 93600, Note_on_c, 6, 75, 79
8, 93655, Note_on_c, 6, 75, 0
8, 93655, Note_on_c, 6, 82, 0
8, 93840, Note_on_c, 6, 82, 79
8, 93840, Note_on_c, 6, 75, 79
8, 93955, Note_on_c, 6, 82, 0
8, 94015, Note_on_c, 6, 75, 0
8, 94080, Note_on_c, 6, 80, 79
8, 94080, Note_on_c, 6, 77, 79
8, 94135, Note_on_c, 6, 77, 0
8, 94135, Note_on_c, 6, 80, 0
8, 94320, Note_on_c, 6, 80, 79
8, 94320, Note_on_c, 6, 77, 79
8, 94375, Note_on_c, 6, 77, 0
8, 94375, Note_on_c, 6, 80, 0
8, 94560, Note_on_c, 6, 80, 79
8, 94560, Note_on_c, 6, 77, 79
8, 94615, Note_on_c, 6, 77, 0
8, 94615, Note_on_c, 6, 80, 0
8, 94800, Note_on_c, 6, 80, 79
8, 94800, Note_on_c, 6, 77, 79
8, 94855, Note_on_c, 6, 80, 0
8, 95035, Note_on_c, 6, 77, 0
8, 95040, Note_on_c, 6, 79, 79
8, 95040, Note_on_c, 6, 75, 79
8, 95095, Note_on_c, 6, 75, 0
8, 95155, Note_on_c, 6, 79, 0
8, 95280, Note_on_c, 6, 77, 79
8, 95280, Note_on_c, 6, 75, 79
8, 95335, Note_on_c, 6, 75, 0
8, 95335, Note_on_c, 6, 77, 0
8, 95520, Note_on_c, 6, 75, 79
8, 95520, Note_on_c, 6, 75, 79
8, 95575, Note_on_c, 6, 75, 0
8, 95575, Note_on_c, 6, 75, 0
8, 95760, Note_on_c, 6, 79, 79
8, 95760, Note_on_c, 6, 75, 79
8, 95995, Note_on_c, 6, 75, 0
8, 95995, Note_on_c, 6, 79, 0
8, 96000, Note_on_c, 6, 77, 79
8, 96480, Note_on_c, 6, 80, 79
8, 96715, Note_on_c, 6, 80, 0
8, 96715, Note_on_c, 6, 77, 0
8, 96720, Note_on_c, 6, 77, 79
8, 97015, Note_on_c, 6, 77, 0
8, 97200, Note_on_c, 6, 80, 79
8, 97435, Note_on_c, 6, 80, 0
8, 97440, Note_on_c, 6, 77, 79
8, 97795, Note_on_c, 6, 77, 0
8, 98640, Note_on_c, 6, 80, 79
8, 98875, Note_on_c, 6, 80, 0
8, 98880, Note_on_c, 6, 77, 79
8, 99115, Note_on_c, 6, 77, 0
8, 99120, Note_on_c, 6, 80, 79
8, 99355, Note_on_c, 6, 80, 0
8, 99360, Note_on_c, 6, 77, 79
8, 99595, Note_on_c, 6, 77, 0
8, 138480, Note_on_c, 6, 77, 79
8, 138535, Note_on_c, 6, 77, 0
8, 138720, Note_on_c, 6, 77, 79
8, 138895, Note_on_c, 6, 77, 0
8, 138960, Note_on_c, 6, 79, 79
8, 139015, Note_on_c, 6, 79, 0
8, 139200, Note_on_c, 6, 80, 79
8, 139255, Note_on_c, 6, 80, 0
8, 139440, Note_on_c, 6, 80, 79
8, 139495, Note_on_c, 6, 80, 0
8, 139680, Note_on_c, 6, 80, 79
8, 139915, Note_on_c, 6, 80, 0
8, 139920, Note_on_c, 6, 79, 79
8, 139975, Note_on_c, 6, 79, 0
8, 140400, Note_on_c, 6, 77, 79
8, 140455, Note_on_c, 6, 77, 0
8, 140640, Note_on_c, 6, 77, 79
8, 140815, Note_on_c, 6, 77, 0
8, 140880, Note_on_c, 6, 79, 79
8, 140935, Note_on_c, 6, 79, 0
8, 141120, Note_on_c, 6, 80, 79
8, 141175, Note_on_c, 6, 80, 0
8, 141360, Note_on_c, 6, 80, 79
8, 141415, Note_on_c, 6, 80, 0
8, 141600, Note_on_c, 6, 80, 79
8, 141835, Note_on_c, 6, 80, 0
8, 141840, Note_on_c, 6, 79, 79
8, 141895, Note_on_c, 6, 79, 0
8, 142320, Note_on_c, 6, 77, 79
8, 142435, Note_on_c, 6, 77, 0
8, 142560, Note_on_c, 6, 77, 79
8, 142735, Note_on_c, 6, 77, 0
8, 142800, Note_on_c, 6, 79, 79
8, 142855, Note_on_c, 6, 79, 0
8, 143040, Note_on_c, 6, 80, 79
8, 143095, Note_on_c, 6, 80, 0
8, 143280, Note_on_c, 6, 80, 79
8, 143335, Note_on_c, 6, 80, 0
8, 143520, Note_on_c, 6, 80, 79
8, 143755, Note_on_c, 6, 80, 0
8, 143760, Note_on_c, 6, 79, 79
8, 143815, Note_on_c, 6, 79, 0
8, 144240, Note_on_c, 6, 77, 79
8, 144295, Note_on_c, 6, 77, 0
8, 144480, Note_on_c, 6, 77, 79
8, 144715, Note_on_c, 6, 77, 0
8, 144720, Note_on_c, 6, 79, 79
8, 144775, Note_on_c, 6, 79, 0
8, 144960, Note_on_c, 6, 80, 79
8, 145015, Note_on_c, 6, 80, 0
8, 145200, Note_on_c, 6, 80, 79
8, 145255, Note_on_c, 6, 80, 0
8, 145440, Note_on_c, 6, 80, 79
8, 145555, Note_on_c, 6, 80, 0
8, 145680, Note_on_c, 6, 80, 79
8, 145735, Note_on_c, 6, 80, 0
8, 145920, Note_on_c, 6, 77, 79
8, 145920, Note_on_c, 6, 84, 79
8, 145975, Note_on_c, 6, 84, 0
8, 145975, Note_on_c, 6, 77, 0
8, 146160, Note_on_c, 6, 77, 79
8, 146160, Note_on_c, 6, 84, 79
8, 146215, Note_on_c, 6, 84, 0
8, 146215, Note_on_c, 6, 77, 0
8, 146400, Note_on_c, 6, 77, 79
8, 146400, Note_on_c, 6, 84, 79
8, 146455, Note_on_c, 6, 84, 0
8, 146455, Note_on_c, 6, 77, 0
8, 146640, Note_on_c, 6, 77, 79
8, 146640, Note_on_c, 6, 84, 79
8, 146695, Note_on_c, 6, 77, 0
8, 146755, Note_on_c, 6, 84, 0
8, 146880, Note_on_c, 6, 75, 79
8, 146880, Note_on_c, 6, 82, 79
8, 146935, Note_on_c, 6, 82, 0
8, 146935, Note_on_c, 6, 75, 0
8, 147120, Note_on_c, 6, 82, 79
8, 147120, Note_on_c, 6, 75, 79
8, 147175, Note_on_c, 6, 75, 0
8, 147175, Note_on_c, 6, 82, 0
8, 147360, Note_on_c, 6, 82, 79
8, 147360, Note_on_c, 6, 75, 79
8, 147415, Note_on_c, 6, 75, 0
8, 147415, Note_on_c, 6, 82, 0
8, 147600, Note_on_c, 6, 82, 79
8, 147600, Note_on_c, 6, 75, 79
8, 147715, Note_on_c, 6, 82, 0
8, 147775, Note_on_c, 6, 75, 0
8, 147840, Note_on_c, 6, 80, 79
8, 147840, Note_on_c, 6, 77, 79
8, 147895, Note_on_c, 6, 77, 0
8, 147895, Note_on_c, 6, 80, 0
8, 148080, Note_on_c, 6, 80, 79
8, 148080, Note_on_c, 6, 77, 79
8, 148135, Note_on_c, 6, 77, 0
8, 148135, Note_on_c, 6, 80, 0
8, 148320, Note_on_c, 6, 80, 79
8, 148320, Note_on_c, 6, 77, 79
8, 148375, Note_on_c, 6, 77, 0
8, 148375, Note_on_c, 6, 80, 0
8, 148560, Note_on_c, 6, 80, 79
8, 148560, Note_on_c, 6, 77, 79
8, 148615, Note_on_c, 6, 80, 0
8, 148795, Note_on_c, 6, 77, 0
8, 148800, Note_on_c, 6, 79, 79
8, 148800, Note_on_c, 6, 75, 79
8, 148855, Note_on_c, 6, 75, 0
8, 148915, Note_on_c, 6, 79, 0
8, 149040, Note_on_c, 6, 77, 79
8, 149040, Note_on_c, 6, 75, 79
8, 149095, Note_on_c, 6, 75, 0
8, 149095, Note_on_c, 6, 77, 0
8, 149280, Note_on_c, 6, 75, 79
8, 149280, Note_on_c, 6, 75, 79
8, 149335, Note_on_c, 6, 75, 0
8, 149335, Note_on_c, 6, 75, 0
8, 149520, Note_on_c, 6, 79, 79
8, 149520, Note_on_c, 6, 75, 79
8, 149755, Note_on_c, 6, 75, 0
8, 149755, Note_on_c, 6, 79, 0
8, 149760, Note_on_c, 6, 77, 79
8, 150240, Note_on_c, 6, 80, 79
8, 150475, Note_on_c, 6, 80, 0
8, 150475, Note_on_c, 6, 77, 0
8, 150480, Note_on_c, 6, 77, 79
8, 150775, Note_on_c, 6, 77, 0
8, 150960, Note_on_c, 6, 80, 79
8, 151195, Note_on_c, 6, 80, 0
8, 151200, Note_on_c, 6, 77, 79
8, 151555, Note_on_c, 6, 77, 0
8, 152400, Note_on_c, 6, 80, 79
8, 152635, Note_on_c, 6, 80, 0
8, 152640, Note_on_c, 6, 77, 79
8, 152875, Note_on_c, 6, 77, 0
8, 152880, Note_on_c, 6, 80, 79
8, 153115, Note_on_c, 6, 80, 0
8, 153120, Note_on_c, 6, 77, 79
8, 153355, Note_on_c, 6, 77, 0
8, 153840, Note_on_c, 6, 77, 79
8, 153895, Note_on_c, 6, 77, 0
8, 154080, Note_on_c, 6, 77, 79
8, 154255, Note_on_c, 6, 77, 0
8, 154320, Note_on_c, 6, 79, 79
8, 154375, Note_on_c, 6, 79, 0
8, 154560, Note_on_c, 6, 80, 79
8, 154615, Note_on_c, 6, 80, 0
8, 154800, Note_on_c, 6, 80, 79
8, 154855, Note_on_c, 6, 80, 0
8, 155040, Note_on_c, 6, 80, 79
8, 155275, Note_on_c, 6, 80, 0
8, 155280, Note_on_c, 6, 79, 79
8, 155335, Note_on_c, 6, 79, 0
8, 155760, Note_on_c, 6, 77, 79
8, 155815, Note_on_c, 6, 77, 0
8, 156000, Note_on_c, 6, 77, 79
8, 156175, Note_on_c, 6, 77, 0
8, 156240, Note_on_c, 6, 79, 79
8, 156295, Note_on_c, 6, 79, 0
8, 156480, Note_on_c, 6, 80, 79
8, 156535, Note_on_c, 6, 80, 0
8, 156720, Note_on_c, 6, 80, 79
8, 156775, Note_on_c, 6, 80, 0
8, 156960, Note_on_c, 6, 80, 79
8, 157195, Note_on_c, 6, 80, 0
8, 157200, Note_on_c, 6, 79, 79
8, 157255, Note_on_c, 6, 79, 0
8, 157680, Note_on_c, 6, 77, 79
8, 157795, Note_on_c, 6, 77, 0
8, 157920, Note_on_c, 6, 77, 79
8, 158095, Note_on_c, 6, 77, 0
8, 158160, Note_on_c, 6, 79, 79
8, 158215, Note_on_c, 6, 79, 0
8, 158400, Note_on_c, 6, 80, 79
8, 158455, Note_on_c, 6, 80, 0
8, 158640, Note_on_c, 6, 80, 79
8, 158695, Note_on_c, 6, 80, 0
8, 158880, Note_on_c, 6, 80, 79
8, 159115, Note_on_c, 6, 80, 0
8, 159120, Note_on_c, 6, 79, 79
8, 159175, Note_on_c, 6, 79, 0
8, 159600, Note_on_c, 6, 77, 79
8, 159655, Note_on_c, 6, 77, 0
8, 159840, Note_on_c, 6, 77, 79
8, 160075, Note_on_c, 6, 77, 0
8, 160080, Note_on_c, 6, 79, 79
8, 160135, Note_on_c, 6, 79, 0
8, 160320, Note_on_c, 6, 80, 79
8, 160375, Note_on_c, 6, 80, 0
8, 160560, Note_on_c, 6, 80, 79
8, 160615, Note_on_c, 6, 80, 0
8, 160800, Note_on_c, 6, 80, 79
8, 160915, Note_on_c, 6, 80, 0
8, 161040, Note_on_c, 6, 80, 79
8, 161095, Note_on_c, 6, 80, 0
8, 161280, Note_on_c, 6, 77, 79
8, 161280, Note_on_c, 6, 84, 79
8, 161335, Note_on_c, 6, 84, 0
8, 161335, Note_on_c, 6, 77, 0
8, 161520, Note_on_c, 6, 77, 79
8, 161520, Note_on_c, 6, 84, 79
8, 161575, Note_on_c, 6, 84, 0
8, 161575, Note_on_c, 6, 77, 0
8, 161760, Note_on_c, 6, 77, 79
8, 161760, Note_on_c, 6, 84, 79
8, 161815, Note_on_c, 6, 84, 0
8, 161815, Note_on_c, 6, 77, 0
8, 162000, Note_on_c, 6, 77, 79
8, 162000, Note_on_c, 6, 84, 79
8, 162055, Note_on_c, 6, 77, 0
8, 162115, Note_on_c, 6, 84, 0
8, 162240, Note_on_c, 6, 75, 79
8, 162240, Note_on_c, 6, 82, 79
8, 162295, Note_on_c, 6, 82, 0
8, 162295, Note_on_c, 6, 75, 0
8, 162480, Note_on_c, 6, 82, 79
8, 162480, Note_on_c, 6, 75, 79
8, 162535, Note_on_c, 6, 75, 0
8, 162535, Note_on_c, 6, 82, 0
8, 162720, Note_on_c, 6, 82, 79
8, 162720, Note_on_c, 6, 75, 79
8, 162775, Note_on_c, 6, 75, 0
8, 162775, Note_on_c, 6, 82, 0
8, 162960, Note_on_c, 6, 82, 79
8, 162960, Note_on_c, 6, 75, 79
8, 163075, Note_on_c, 6, 82, 0
8, 163135, Note_on_c, 6, 75, 0
8, 163200, Note_on_c, 6, 80, 79
8, 163200, Note_on_c, 6, 77, 79
8, 163255, Note_on_c, 6, 77, 0
8, 163255, Note_on_c, 6, 80, 0
8, 163440, Note_on_c, 6, 80, 79
8, 163440, Note_on_c, 6, 77, 79
8, 163495, Note_on_c, 6, 77, 0
8, 163495, Note_on_c, 6, 80, 0
8, 163680, Note_on_c, 6, 80, 79
8, 163680, Note_on_c, 6, 77, 79
8, 163735, Note_on_c, 6, 77, 0
8, 163735, Note_on_c, 6, 80, 0
8, 163920, Note_on_c, 6, 80, 79
8, 163920, Note_on_c, 6, 77, 79
8, 163975, Note_on_c, 6, 80, 0
8, 164155, Note_on_c, 6, 77, 0
8, 164160, Note_on_c, 6, 79, 79
8, 164160, Note_on_c, 6, 75, 79
8, 164215, Note_on_c, 6, 75, 0
8, 164275, Note_on_c, 6, 79, 0
8, 164400, Note_on_c, 6, 77, 79
8, 164400, Note_on_c, 6, 75, 79
8, 164455, Note_on_c, 6, 75, 0
8, 164455, Note_on_c, 6, 77, 0
8, 164640, Note_on_c, 6, 75, 79
8, 164640, Note_on_c, 6, 75, 79
8, 164695, Note_on_c, 6, 75, 0
8, 164695, Note_on_c, 6, 75, 0
8, 164880, Note_on_c, 6, 79, 79
8, 164880, Note_on_c, 6, 75, 79
8, 165115, Note_on_c, 6, 75, 0
8, 165115, Note_on_c, 6, 79, 0
8, 165120, Note_on_c, 6, 77, 79
8, 165600, Note_on_c, 6, 80, 79
8, 165835, Note_on_c, 6, 80, 0
8, 165835, Note_on_c, 6, 77, 0
8, 165840, Note_on_c, 6, 77, 79
8, 166135, Note_on_c, 6, 77, 0
8, 166320, Note_on_c, 6, 80, 79
8, 166555, Note_on_c, 6, 80, 0
8, 166560, Note_on_c, 6, 77, 79
8, 166915, Note_on_c, 6, 77, 0
8, 167760, Note_on_c, 6, 80, 79
8, 167995, Note_on_c, 6, 80, 0
8, 168000, Note_on_c, 6, 77, 79
8, 168235, Note_on_c, 6, 77, 0
8, 168240, Note_on_c, 6, 80, 79
8, 168475, Note_on_c, 6, 80, 0
8, 168480, Note_on_c, 6, 77, 79
8, 168715, Note_on_c, 6, 77, 0
8, 184560, Note_on_c, 6, 77, 79
8, 184615, Note_on_c, 6, 77, 0
8, 184800, Note_on_c, 6, 77, 79
8, 184975, Note_on_c, 6, 77, 0
8, 185040, Note_on_c, 6, 79, 79
8, 185095, Note_on_c, 6, 79, 0
8, 185280, Note_on_c, 6, 80, 79
8, 185335, Note_on_c, 6, 80, 0
8, 185520, Note_on_c, 6, 80, 79
8, 185575, Note_on_c, 6, 80, 0
8, 185760, Note_on_c, 6, 80, 79
8, 185995, Note_on_c, 6, 80, 0
8, 186000, Note_on_c, 6, 79, 79
8, 186055, Note_on_c, 6, 79, 0
8, 186480, Note_on_c, 6, 77, 79
8, 186535, Note_on_c, 6, 77, 0
8, 186720, Note_on_c, 6, 77, 79
8, 186895, Note_on_c, 6, 77, 0
8, 186960, Note_on_c, 6, 79, 79
8, 187015, Note_on_c, 6, 79, 0
8, 187200, Note_on_c, 6, 80, 79
8, 187255, Note_on_c, 6, 80, 0
8, 187440, Note_on_c, 6, 80, 79
8, 187495, Note_on_c, 6, 80, 0
8, 187680, Note_on_c, 6, 80, 79
8, 187915, Note_on_c, 6, 80, 0
8, 187920, Note_on_c, 6, 79, 79
8, 187975, Note_on_c, 6, 79, 0
8, 188400, Note_on_c, 6, 77, 79
8, 188515, Note_on_c, 6, 77, 0
8, 188640, Note_on_c, 6, 77, 79
8, 188815, Note_on_c, 6, 77, 0
8, 188880, Note_on_c, 6, 79, 79
8, 188935, Note_on_c, 6, 79, 0
8, 189120, Note_on_c, 6, 80, 79
8, 189175, Note_on_c, 6, 80, 0
8, 189360, Note_on_c, 6, 80, 79
8, 189415, Note_on_c, 6, 80, 0
8, 189600, Note_on_c, 6, 80, 79
8, 189835, Note_on_c, 6, 80, 0
8, 189840, Note_on_c, 6, 79, 79
8, 189895, Note_on_c, 6, 79, 0
8, 190320, Note_on_c, 6, 77, 79
8, 190375, Note_on_c, 6, 77, 0
8, 190560, Note_on_c, 6, 77, 79
8, 190795, Note_on_c, 6, 77, 0
8, 190800, Note_on_c, 6, 79, 79
8, 190855, Note_on_c, 6, 79, 0
8, 191040, Note_on_c, 6, 80, 79
8, 191095, Note_on_c, 6, 80, 0
8, 191280, Note_on_c, 6, 80, 79
8, 191335, Note_on_c, 6, 80, 0
8, 191520, Note_on_c, 6, 80, 79
8, 191635, Note_on_c, 6, 80, 0
8, 191760, Note_on_c, 6, 80, 79
8, 191815, Note_on_c, 6, 80, 0
8, 192240, Note_on_c, 6, 77, 79
8, 192295, Note_on_c, 6, 77, 0
8, 192480, Note_on_c, 6, 77, 79
8, 192655, Note_on_c, 6, 77, 0
8, 192720, Note_on_c, 6, 79, 79
8, 192775, Note_on_c, 6, 79, 0
8, 192960, Note_on_c, 6, 80, 79
8, 193015, Note_on_c, 6, 80, 0
8, 193200, Note_on_c, 6, 80, 79
8, 193255, Note_on_c, 6, 80, 0
8, 193440, Note_on_c, 6, 80, 79
8, 193675, Note_on_c, 6, 80, 0
8, 193680, Note_on_c, 6, 79, 79
8, 193735, Note_on_c, 6, 79, 0
8, 194160, Note_on_c, 6, 77, 79
8, 194215, Note_on_c, 6, 77, 0
8, 194400, Note_on_c, 6, 77, 79
8, 194575, Note_on_c, 6, 77, 0
8, 194640, Note_on_c, 6, 79, 79
8, 194695, Note_on_c, 6, 79, 0
8, 194880, Note_on_c, 6, 80, 79
8, 194935, Note_on_c, 6, 80, 0
8, 195120, Note_on_c, 6, 80, 79
8, 195175, Note_on_c, 6, 80, 0
8, 195360, Note_on_c, 6, 80, 79
8, 195595, Note_on_c, 6, 80, 0
8, 195600, Note_on_c, 6, 79, 79
8, 195655, Note_on_c, 6, 79, 0
8, 196080, Note_on_c, 6, 77, 79
8, 196195, Note_on_c, 6, 77, 0
8, 196320, Note_on_c, 6, 77, 79
8, 196495, Note_on_c, 6, 77, 0
8, 196560, Note_on_c, 6, 79, 79
8, 196615, Note_on_c, 6, 79, 0
8, 196800, Note_on_c, 6, 80, 79
8, 196855, Note_on_c, 6, 80, 0
8, 197040, Note_on_c, 6, 80, 79
8, 197095, Note_on_c, 6, 80, 0
8, 197280, Note_on_c, 6, 80, 79
8, 197515, Note_on_c, 6, 80, 0
8, 197520, Note_on_c, 6, 79, 79
8, 197575, Note_on_c, 6, 79, 0
8, 198000, Note_on_c, 6, 77, 79
8, 198055, Note_on_c, 6, 77, 0
8, 198240, Note_on_c, 6, 77, 79
8, 198475, Note_on_c, 6, 77, 0
8, 198480, Note_on_c, 6, 79, 79
8, 198535, Note_on_c, 6, 79, 0
8, 198720, Note_on_c, 6, 80, 79
8, 198775, Note_on_c, 6, 80, 0
8, 198960, Note_on_c, 6, 80, 79
8, 199015, Note_on_c, 6, 80, 0
8, 199200, Note_on_c, 6, 80, 79
8, 199315, Note_on_c, 6, 80, 0
8, 199440, Note_on_c, 6, 80, 79
8, 199495, Note_on_c, 6, 80, 0
8, 199495, End_track
9, 0, Start_track
9, 517, Program_c, 7, 48
9, 518, Control_c, 7, 7, 79
9, 518, Control_c, 7, 10, 64
9, 46080, Note_on_c, 7, 65, 89
9, 46080, Note_on_c, 7, 53, 89
9, 46195, Note_on_c, 7, 53, 0
9, 46195, Note_on_c, 7, 65, 0
9, 46320, Note_on_c, 7, 65, 89
9, 46320, Note_on_c, 7, 53, 89
9, 46435, Note_on_c, 7, 53, 0
9, 46435, Note_on_c, 7, 65, 0
9, 46800, Note_on_c, 7, 65, 89
9, 46800, Note_on_c, 7, 53, 89
9, 46915, Note_on_c, 7, 53, 0
9, 46915, Note_on_c, 7, 65, 0
9, 47040, Note_on_c, 7, 68, 89
9, 47040, Note_on_c, 7, 56, 89
9, 47155, Note_on_c, 7, 56, 0
9, 47155, Note_on_c, 7, 68, 0
9, 47280, Note_on_c, 7, 68, 89
9, 47280, Note_on_c, 7, 56, 89
9, 47395, Note_on_c, 7, 56, 0
9, 47395, Note_on_c, 7, 68, 0
9, 48000, Note_on_c, 7, 65, 89
9, 48000, Note_on_c, 7, 53, 89
9, 48115, Note_on_c, 7, 53, 0
9, 48115, Note_on_c, 7, 65, 0
9, 48720, Note_on_c, 7, 67, 89
9, 48720, Note_on_c, 7, 55, 89
9, 48835, Note_on_c, 7, 55, 0
9, 48835, Note_on_c, 7, 67, 0
9, 48960, Note_on_c, 7, 68, 89
9, 48960, Note_on_c, 7, 56, 89
9, 49075, Note_on_c, 7, 56, 0
9, 49075, Note_on_c, 7, 68, 0
9, 49200, Note_on_c, 7, 68, 89
9, 49200, Note_on_c, 7, 56, 89
9, 49315, Note_on_c, 7, 56, 0
9, 49315, Note_on_c, 7, 68, 0
9, 49680, Note_on_c, 7, 67, 89
9, 49680, Note_on_c, 7, 55, 89
9, 49795, Note_on_c, 7, 55, 0
9, 49795, Note_on_c, 7, 67, 0
9, 49920, Note_on_c, 7, 65, 89
9, 49920, Note_on_c, 7, 53, 89
9, 50035, Note_on_c, 7, 53, 0
9, 50035, Note_on_c, 7, 65, 0
9, 50160, Note_on_c, 7, 65, 89
9, 50160, Note_on_c, 7, 53, 89
9, 50275, Note_on_c, 7, 53, 0
9, 50275, Note_on_c, 7, 65, 0
9, 50640, Note_on_c, 7, 65, 89
9, 50640, Note_on_c, 7, 53, 89
9, 50755, Note_on_c, 7, 53, 0
9, 50755, Note_on_c, 7, 65, 0
9, 50880, Note_on_c, 7, 68, 89
9, 50880, Note_on_c, 7, 56, 89
9, 50995, Note_on_c, 7, 56, 0
9, 50995, Note_on_c, 7, 68, 0
9, 51120, Note_on_c, 7, 68, 89
9, 51120, Note_on_c, 7, 56, 89
9, 51235, Note_on_c, 7, 56, 0
9, 51235, Note_on_c, 7, 68, 0
9, 51840, Note_on_c, 7, 65, 89
9, 51840, Note_on_c, 7, 53, 89
9, 51955, Note_on_c, 7, 53, 0
9, 51955, Note_on_c, 7, 65, 0
9, 52560, Note_on_c, 7, 67, 89
9, 52560, Note_on_c, 7, 55, 89
9, 52675, Note_on_c, 7, 55, 0
9, 52675, Note_on_c, 7, 67, 0
9, 52800, Note_on_c, 7, 68, 89
9, 52800, Note_on_c, 7, 56, 89
9, 52915, Note_on_c, 7, 56, 0
9, 52915, Note_on_c, 7, 68, 0
9, 53040, Note_on_c, 7, 68, 89
9, 53040, Note_on_c, 7, 56, 89
9, 53155, Note_on_c, 7, 56, 0
9, 53155, Note_on_c, 7, 68, 0
9, 53520, Note_on_c, 7, 67, 89
9, 53520, Note_on_c, 7, 55, 89
9, 53635, Note_on_c, 7, 55, 0
9, 53635, Note_on_c, 7, 67, 0
9, 53760, Note_on_c, 7, 65, 89
9, 53760, Note_on_c, 7, 53, 89
9, 53875, Note_on_c, 7, 53, 0
9, 53875, Note_on_c, 7, 65, 0
9, 54000, Note_on_c, 7, 65, 89
9, 54000, Note_on_c, 7, 53, 89
9, 54115, Note_on_c, 7, 53, 0
9, 54115, Note_on_c, 7, 65, 0
9, 54480, Note_on_c, 7, 65, 89
9, 54480, Note_on_c, 7, 53, 89
9, 54595, Note_on_c, 7, 53, 0
9, 54595, Note_on_c, 7, 65, 0
9, 54720, Note_on_c, 7, 68, 89
9, 54720, Note_on_c, 7, 56, 89
9, 54835, Note_on_c, 7, 56, 0
9, 54835, Note_on_c, 7, 68, 0
9, 54960, Note_on_c, 7, 56, 89
9, 54960, Note_on_c, 7, 68, 89
9, 55075, Note_on_c, 7, 68, 0
9, 55075, Note_on_c, 7, 56, 0
9, 55680, Note_on_c, 7, 53, 89
9, 55680, Note_on_c, 7, 65, 89
9, 55795, Note_on_c, 7, 65, 0
9, 55795, Note_on_c, 7, 53, 0
9, 56400, Note_on_c, 7, 55, 89
9, 56400, Note_on_c, 7, 67, 89
9, 56515, Note_on_c, 7, 67, 0
9, 56515, Note_on_c, 7, 55, 0
9, 56640, Note_on_c, 7, 56, 89
9, 56640, Note_on_c, 7, 68, 89
9, 56755, Note_on_c, 7, 68, 0
9, 56755, Note_on_c, 7, 56, 0
9, 56880, Note_on_c, 7, 56, 89
9, 56880, Note_on_c, 7, 68, 89
9, 56995, Note_on_c, 7, 68, 0
9, 56995, Note_on_c, 7, 56, 0
9, 57360, Note_on_c, 7, 55, 89
9, 57360, Note_on_c, 7, 67, 89
9, 57475, Note_on_c, 7, 67, 0
9, 57475, Note_on_c, 7, 55, 0
9, 57600, Note_on_c, 7, 53, 89
9, 57600, Note_on_c, 7, 65, 89
9, 57715, Note_on_c, 7, 65, 0
9, 57715, Note_on_c, 7, 53, 0
9, 57840, Note_on_c, 7, 53, 89
9, 57840, Note_on_c, 7, 65, 89
9, 57955, Note_on_c, 7, 65, 0
9, 57955, Note_on_c, 7, 53, 0
9, 58320, Note_on_c, 7, 53, 89
9, 58320, Note_on_c, 7, 65, 89
9, 58435, Note_on_c, 7, 65, 0
9, 58435, Note_on_c, 7, 53, 0
9, 58560, Note_on_c, 7, 56, 89
9, 58560, Note_on_c, 7, 68, 89
9, 58675, Note_on_c, 7, 68, 0
9, 58675, Note_on_c, 7, 56, 0
9, 58800, Note_on_c, 7, 56, 89
9, 58800, Note_on_c, 7, 68, 89
9, 58915, Note_on_c, 7, 68, 0
9, 58915, Note_on_c, 7, 56, 0
9, 59520, Note_on_c, 7, 53, 89
9, 59520, Note_on_c, 7, 65, 89
9, 59635, Note_on_c, 7, 65, 0
9, 59635, Note_on_c, 7, 53, 0
9, 60240, Note_on_c, 7, 55, 89
9, 60240, Note_on_c, 7, 67, 89
9, 60355, Note_on_c, 7, 67, 0
9, 60355, Note_on_c, 7, 55, 0
9, 60480, Note_on_c, 7, 56, 89
9, 60480, Note_on_c, 7, 68, 89
9, 60595, Note_on_c, 7, 68, 0
9, 60595, Note_on_c, 7, 56, 0
9, 60720, Note_on_c, 7, 56, 89
9, 60720, Note_on_c, 7, 68, 89
9, 60835, Note_on_c, 7, 68, 0
9, 60835, Note_on_c, 7, 56, 0
9, 61200, Note_on_c, 7, 55, 89
9, 61200, Note_on_c, 7, 67, 89
9, 61315, Note_on_c, 7, 67, 0
9, 61315, Note_on_c, 7, 55, 0
9, 84480, Note_on_c, 7, 65, 89
9, 84480, Note_on_c, 7, 53, 89
9, 84595, Note_on_c, 7, 53, 0
9, 84595, Note_on_c, 7, 65, 0
9, 84720, Note_on_c, 7, 65, 89
9, 84720, Note_on_c, 7, 53, 89
9, 84835, Note_on_c, 7, 53, 0
9, 84835, Note_on_c, 7, 65, 0
9, 85200, Note_on_c, 7, 65, 89
9, 85200, Note_on_c, 7, 53, 89
9, 85315, Note_on_c, 7, 53, 0
9, 85315, Note_on_c, 7, 65, 0
9, 85440, Note_on_c, 7, 68, 89
9, 85440, Note_on_c, 7, 56, 89
9, 85555, Note_on_c, 7, 56, 0
9, 85555, Note_on_c, 7, 68, 0
9, 85680, Note_on_c, 7, 68, 89
9, 85680, Note_on_c, 7, 56, 89
9, 85795, Note_on_c, 7, 56, 0
9, 85795, Note_on_c, 7, 68, 0
9, 86400, Note_on_c, 7, 65, 89
9, 86400, Note_on_c, 7, 53, 89
9, 86515, Note_on_c, 7, 53, 0
9, 86515, Note_on_c, 7, 65, 0
9, 87120, Note_on_c, 7, 67, 89
9, 87120, Note_on_c, 7, 55, 89
9, 87235, Note_on_c, 7, 55, 0
9, 87235, Note_on_c, 7, 67, 0
9, 87360, Note_on_c, 7, 68, 89
9, 87360, Note_on_c, 7, 56, 89
9, 87475, Note_on_c, 7, 56, 0
9, 87475, Note_on_c, 7, 68, 0
9, 87600, Note_on_c, 7, 68, 89
9, 87600, Note_on_c, 7, 56, 89
9, 87715, Note_on_c, 7, 56, 0
9, 87715, Note_on_c, 7, 68, 0
9, 88080, Note_on_c, 7, 67, 89
9, 88080, Note_on_c, 7, 55, 89
9, 88195, Note_on_c, 7, 55, 0
9, 88195, Note_on_c, 7, 67, 0
9, 88320, Note_on_c, 7, 65, 89
9, 88320, Note_on_c, 7, 53, 89
9, 88435, Note_on_c, 7, 53, 0
9, 88435, Note_on_c, 7, 65, 0
9, 88560, Note_on_c, 7, 65, 89
9, 88560, Note_on_c, 7, 53, 89
9, 88675, Note_on_c, 7, 53, 0
9, 88675, Note_on_c, 7, 65, 0
9, 89040, Note_on_c, 7, 65, 89
9, 89040, Note_on_c, 7, 53, 89
9, 89155, Note_on_c, 7, 53, 0
9, 89155, Note_on_c, 7, 65, 0
9, 89280, Note_on_c, 7, 68, 89
9, 89280, Note_on_c, 7, 56, 89
9, 89395, Note_on_c, 7, 56, 0
9, 89395, Note_on_c, 7, 68, 0
9, 89520, Note_on_c, 7, 68, 89
9, 89520, Note_on_c, 7, 56, 89
9, 89635, Note_on_c, 7, 56, 0
9, 89635, Note_on_c, 7, 68, 0
9, 90240, Note_on_c, 7, 65, 89
9, 90240, Note_on_c, 7, 53, 89
9, 90355, Note_on_c, 7, 53, 0
9, 90355, Note_on_c, 7, 65, 0
9, 90960, Note_on_c, 7, 67, 89
9, 90960, Note_on_c, 7, 55, 89
9, 91075, Note_on_c, 7, 55, 0
9, 91075, Note_on_c, 7, 67, 0
9, 91200, Note_on_c, 7, 68, 89
9, 91200, Note_on_c, 7, 56, 89
9, 91315, Note_on_c, 7, 56, 0
9, 91315, Note_on_c, 7, 68, 0
9, 91440, Note_on_c, 7, 68, 89
9, 91440, Note_on_c, 7, 56, 89
9, 91555, Note_on_c, 7, 56, 0
9, 91555, Note_on_c, 7, 68, 0
9, 91920, Note_on_c, 7, 67, 89
9, 91920, Note_on_c, 7, 55, 89
9, 92035, Note_on_c, 7, 55, 0
9, 92035, Note_on_c, 7, 67, 0
9, 92160, Note_on_c, 7, 65, 89
9, 92160, Note_on_c, 7, 53, 89
9, 92275, Note_on_c, 7, 53, 0
9, 92275, Note_on_c, 7, 65, 0
9, 92400, Note_on_c, 7, 65, 89
9, 92400, Note_on_c, 7, 53, 89
9, 92515, Note_on_c, 7, 53, 0
9, 92515, Note_on_c, 7, 65, 0
9, 92880, Note_on_c, 7, 65, 89
9, 92880, Note_on_c, 7, 53, 89
9, 92995, Note_on_c, 7, 53, 0
9, 92995, Note_on_c, 7, 65, 0
9, 93120, Note_on_c, 7, 68, 89
9, 93120, Note_on_c, 7, 56, 89
9, 93235, Note_on_c, 7, 56, 0
9, 93235, Note_on_c, 7, 68, 0
9, 93360, Note_on_c, 7, 56, 89
9, 93360, Note_on_c, 7, 68, 89
9, 93475, Note_on_c, 7, 68, 0
9, 93475, Note_on_c, 7, 56, 0
9, 94080, Note_on_c, 7, 53, 89
9, 94080, Note_on_c, 7, 65, 89
9, 94195, Note_on_c, 7, 65, 0
9, 94195, Note_on_c, 7, 53, 0
9, 94800, Note_on_c, 7, 55, 89
9, 94800, Note_on_c, 7, 67, 89
9, 94915, Note_on_c, 7, 67, 0
9, 94915, Note_on_c, 7, 55, 0
9, 95040, Note_on_c, 7, 56, 89
9, 95040, Note_on_c, 7, 68, 89
9, 95155, Note_on_c, 7, 68, 0
9, 95155, Note_on_c, 7, 56, 0
9, 95280, Note_on_c, 7, 56, 89
9, 95280, Note_on_c, 7, 68, 89
9, 95395, Note_on_c, 7, 68, 0
9, 95395, Note_on_c, 7, 56, 0
9, 95760, Note_on_c, 7, 55, 89
9, 95760, Note_on_c, 7, 67, 89
9, 95875, Note_on_c, 7, 67, 0
9, 95875, Note_on_c, 7, 55, 0
9, 96000, Note_on_c, 7, 53, 89
9, 96000, Note_on_c, 7, 65, 89
9, 96115, Note_on_c, 7, 65, 0
9, 96115, Note_on_c, 7, 53, 0
9, 96240, Note_on_c, 7, 53, 89
9, 96240, Note_on_c, 7, 65, 89
9, 96355, Note_on_c, 7, 65, 0
9, 96355, Note_on_c, 7, 53, 0
9, 96720, Note_on_c, 7, 53, 89
9, 96720, Note_on_c, 7, 65, 89
9, 96835, Note_on_c, 7, 65, 0
9, 96835, Note_on_c, 7, 53, 0
9, 96960, Note_on_c, 7, 56, 89
9, 96960, Note_on_c, 7, 68, 89
9, 97075, Note_on_c, 7, 68, 0
9, 97075, Note_on_c, 7, 56, 0
9, 97200, Note_on_c, 7, 56, 89
9, 97200, Note_on_c, 7, 68, 89
9, 97315, Note_on_c, 7, 68, 0
9, 97315, Note_on_c, 7, 56, 0
9, 97920, Note_on_c, 7, 53, 89
9, 97920, Note_on_c, 7, 65, 89
9, 98035, Note_on_c, 7, 65, 0
9, 98035, Note_on_c, 7, 53, 0
9, 98640, Note_on_c, 7, 55, 89
9, 98640, Note_on_c, 7, 67, 89
9, 98755, Note_on_c, 7, 67, 0
9, 98755, Note_on_c, 7, 55, 0
9, 98880, Note_on_c, 7, 56, 89
9, 98880, Note_on_c, 7, 68, 89
9, 98995, Note_on_c, 7, 68, 0
9, 98995, Note_on_c, 7, 56, 0
9, 99120, Note_on_c, 7, 56, 89
9, 99120, Note_on_c, 7, 68, 89
9, 99235, Note_on_c, 7, 68, 0
9, 99235, Note_on_c, 7, 56, 0
9, 99600, Note_on_c, 7, 55, 89
9, 99600, Note_on_c, 7, 67, 89
9, 99715, Note_on_c, 7, 67, 0
9, 99715, Note_on_c, 7, 55, 0
9, 138240, Note_on_c, 7, 65, 89
9, 138240, Note_on_c, 7, 53, 89
9, 138355, Note_on_c, 7, 53, 0
9, 138355, Note_on_c, 7, 65, 0
9, 138480, Note_on_c, 7, 65, 89
9, 138480, Note_on_c, 7, 53, 89
9, 138595, Note_on_c, 7, 53, 0
9, 138595, Note_on_c, 7, 65, 0
9, 138960, Note_on_c, 7, 65, 89
9, 138960, Note_on_c, 7, 53, 89
9, 139075, Note_on_c, 7, 53, 0
9, 139075, Note_on_c, 7, 65, 0
9, 139200, Note_on_c, 7, 68, 89
9, 139200, Note_on_c, 7, 56, 89
9, 139315, Note_on_c, 7, 56, 0
9, 139315, Note_on_c, 7, 68, 0
9, 139440, Note_on_c, 7, 68, 89
9, 139440, Note_on_c, 7, 56, 89
9, 139555, Note_on_c, 7, 56, 0
9, 139555, Note_on_c, 7, 68, 0
9, 140160, Note_on_c, 7, 65, 89
9, 140160, Note_on_c, 7, 53, 89
9, 140275, Note_on_c, 7, 53, 0
9, 140275, Note_on_c, 7, 65, 0
9, 140880, Note_on_c, 7, 67, 89
9, 140880, Note_on_c, 7, 55, 89
9, 140995, Note_on_c, 7, 55, 0
9, 140995, Note_on_c, 7, 67, 0
9, 141120, Note_on_c, 7, 68, 89
9, 141120, Note_on_c, 7, 56, 89
9, 141235, Note_on_c, 7, 56, 0
9, 141235, Note_on_c, 7, 68, 0
9, 141360, Note_on_c, 7, 68, 89
9, 141360, Note_on_c, 7, 56, 89
9, 141475, Note_on_c, 7, 56, 0
9, 141475, Note_on_c, 7, 68, 0
9, 141840, Note_on_c, 7, 67, 89
9, 141840, Note_on_c, 7, 55, 89
9, 141955, Note_on_c, 7, 55, 0
9, 141955, Note_on_c, 7, 67, 0
9, 142080, Note_on_c, 7, 65, 89
9, 142080, Note_on_c, 7, 53, 89
9, 142195, Note_on_c, 7, 53, 0
9, 142195, Note_on_c, 7, 65, 0
9, 142320, Note_on_c, 7, 65, 89
9, 142320, Note_on_c, 7, 53, 89
9, 142435, Note_on_c, 7, 53, 0
9, 142435, Note_on_c, 7, 65, 0
9, 142800, Note_on_c, 7, 65, 89
9, 142800, Note_on_c, 7, 53, 89
9, 142915, Note_on_c, 7, 53, 0
9, 142915, Note_on_c, 7, 65, 0
9, 143040, Note_on_c, 7, 68, 89
9, 143040, Note_on_c, 7, 56, 89
9, 143155, Note_on_c, 7, 56, 0
9, 143155, Note_on_c, 7, 68, 0
9, 143280, Note_on_c, 7, 68, 89
9, 143280, Note_on_c, 7, 56, 89
9, 143395, Note_on_c, 7, 56, 0
9, 143395, Note_on_c, 7, 68, 0
9, 144000, Note_on_c, 7, 65, 89
9, 144000, Note_on_c, 7, 53, 89
9, 144115, Note_on_c, 7, 53, 0
9, 144115, Note_on_c, 7, 65, 0
9, 144720, Note_on_c, 7, 67, 89
9, 144720, Note_on_c, 7, 55, 89
9, 144835, Note_on_c, 7, 55, 0
9, 144835, Note_on_c, 7, 67, 0
9, 144960, Note_on_c, 7, 68, 89
9, 144960, Note_on_c, 7, 56, 89
9, 145075, Note_on_c, 7, 56, 0
9, 145075, Note_on_c, 7, 68, 0
9, 145200, Note_on_c, 7, 68, 89
9, 145200, Note_on_c, 7, 56, 89
9, 145315, Note_on_c, 7, 56, 0
9, 145315, Note_on_c, 7, 68, 0
9, 145680, Note_on_c, 7, 67, 89
9, 145680, Note_on_c, 7, 55, 89
9, 145795, Note_on_c, 7, 55, 0
9, 145795, Note_on_c, 7, 67, 0
9, 145920, Note_on_c, 7, 65, 89
9, 145920, Note_on_c, 7, 53, 89
9, 146035, Note_on_c, 7, 53, 0
9, 146035, Note_on_c, 7, 65, 0
9, 146160, Note_on_c, 7, 65, 89
9, 146160, Note_on_c, 7, 53, 89
9, 146275, Note_on_c, 7, 53, 0
9, 146275, Note_on_c, 7, 65, 0
9, 146640, Note_on_c, 7, 65, 89
9, 146640, Note_on_c, 7, 53, 89
9, 146755, Note_on_c, 7, 53, 0
9, 146755, Note_on_c, 7, 65, 0
9, 146880, Note_on_c, 7, 68, 89
9, 146880, Note_on_c, 7, 56, 89
9, 146995, Note_on_c, 7, 56, 0
9, 146995, Note_on_c, 7, 68, 0
9, 147120, Note_on_c, 7, 56, 89
9, 147120, Note_on_c, 7, 68, 89
9, 147235, Note_on_c, 7, 68, 0
9, 147235, Note_on_c, 7, 56, 0
9, 147840, Note_on_c, 7, 53, 89
9, 147840, Note_on_c, 7, 65, 89
9, 147955, Note_on_c, 7, 65, 0
9, 147955, Note_on_c, 7, 53, 0
9, 148560, Note_on_c, 7, 55, 89
9, 148560, Note_on_c, 7, 67, 89
9, 148675, Note_on_c, 7, 67, 0
9, 148675, Note_on_c, 7, 55, 0
9, 148800, Note_on_c, 7, 56, 89
9, 148800, Note_on_c, 7, 68, 89
9, 148915, Note_on_c, 7, 68, 0
9, 148915, Note_on_c, 7, 56, 0
9, 149040, Note_on_c, 7, 56, 89
9, 149040, Note_on_c, 7, 68, 89
9, 149155, Note_on_c, 7, 68, 0
9, 149155, Note_on_c, 7, 56, 0
9, 149520, Note_on_c, 7, 55, 89
9, 149520, Note_on_c, 7, 67, 89
9, 149635, Note_on_c, 7, 67, 0
9, 149635, Note_on_c, 7, 55, 0
9, 149760, Note_on_c, 7, 53, 89
9, 149760, Note_on_c, 7, 65, 89
9, 149875, Note_on_c, 7, 65, 0
9, 149875, Note_on_c, 7, 53, 0
9, 150000, Note_on_c, 7, 53, 89
9, 150000, Note_on_c, 7, 65, 89
9, 150115, Note_on_c, 7, 65, 0
9, 150115, Note_on_c, 7, 53, 0
9, 150480, Note_on_c, 7, 53, 89
9, 150480, Note_on_c, 7, 65, 89
9, 150595, Note_on_c, 7, 65, 0
9, 150595, Note_on_c, 7, 53, 0
9, 150720, Note_on_c, 7, 56, 89
9, 150720, Note_on_c, 7, 68, 89
9, 150835, Note_on_c, 7, 68, 0
9, 150835, Note_on_c, 7, 56, 0
9, 150960, Note_on_c, 7, 56, 89
9, 150960, Note_on_c, 7, 68, 89
9, 151075, Note_on_c, 7, 68, 0
9, 151075, Note_on_c, 7, 56, 0
9, 151680, Note_on_c, 7, 53, 89
9, 151680, Note_on_c, 7, 65, 89
9, 151795, Note_on_c, 7, 65, 0
9, 151795, Note_on_c, 7, 53, 0
9, 152400, Note_on_c, 7, 55, 89
9, 152400, Note_on_c, 7, 67, 89
9, 152515, Note_on_c, 7, 67, 0
9, 152515, Note_on_c, 7, 55, 0
9, 152640, Note_on_c, 7, 56, 89
9, 152640, Note_on_c, 7, 68, 89
9, 152755, Note_on_c, 7, 68, 0
9, 152755, Note_on_c, 7, 56, 0
9, 152880, Note_on_c, 7, 56, 89
9, 152880, Note_on_c, 7, 68, 89
9, 152995, Note_on_c, 7, 68, 0
9, 152995, Note_on_c, 7, 56, 0
9, 153360, Note_on_c, 7, 55, 89
9, 153360, Note_on_c, 7, 67, 89
9, 153475, Note_on_c, 7, 67, 0
9, 153475, Note_on_c, 7, 55, 0
9, 153600, Note_on_c, 7, 65, 89
9, 153600, Note_on_c, 7, 53, 89
9, 153715, Note_on_c, 7, 53, 0
9, 153715, Note_on_c, 7, 65, 0
9, 153840, Note_on_c, 7, 65, 89
9, 153840, Note_on_c, 7, 53, 89
9, 153955, Note_on_c, 7, 53, 0
9, 153955, Note_on_c, 7, 65, 0
9, 154320, Note_on_c, 7, 65, 89
9, 154320, Note_on_c, 7, 53, 89
9, 154435, Note_on_c, 7, 53, 0
9, 154435, Note_on_c, 7, 65, 0
9, 154560, Note_on_c, 7, 68, 89
9, 154560, Note_on_c, 7, 56, 89
9, 154675, Note_on_c, 7, 56, 0
9, 154675, Note_on_c, 7, 68, 0
9, 154800, Note_on_c, 7, 68, 89
9, 154800, Note_on_c, 7, 56, 89
9, 154915, Note_on_c, 7, 56, 0
9, 154915, Note_on_c, 7, 68, 0
9, 155520, Note_on_c, 7, 65, 89
9, 155520, Note_on_c, 7, 53, 89
9, 155635, Note_on_c, 7, 53, 0
9, 155635, Note_on_c, 7, 65, 0
9, 156240, Note_on_c, 7, 67, 89
9, 156240, Note_on_c, 7, 55, 89
9, 156355, Note_on_c, 7, 55, 0
9, 156355, Note_on_c, 7, 67, 0
9, 156480, Note_on_c, 7, 68, 89
9, 156480, Note_on_c, 7, 56, 89
9, 156595, Note_on_c, 7, 56, 0
9, 156595, Note_on_c, 7, 68, 0
9, 156720, Note_on_c, 7, 68, 89
9, 156720, Note_on_c, 7, 56, 89
9, 156835, Note_on_c, 7, 56, 0
9, 156835, Note_on_c, 7, 68, 0
9, 157200, Note_on_c, 7, 67, 89
9, 157200, Note_on_c, 7, 55, 89
9, 157315, Note_on_c, 7, 55, 0
9, 157315, Note_on_c, 7, 67, 0
9, 157440, Note_on_c, 7, 65, 89
9, 157440, Note_on_c, 7, 53, 89
9, 157555, Note_on_c, 7, 53, 0
9, 157555, Note_on_c, 7, 65, 0
9, 157680, Note_on_c, 7, 65, 89
9, 157680, Note_on_c, 7, 53, 89
9, 157795, Note_on_c, 7, 53, 0
9, 157795, Note_on_c, 7, 65, 0
9, 158160, Note_on_c, 7, 65, 89
9, 158160, Note_on_c, 7, 53, 89
9, 158275, Note_on_c, 7, 53, 0
9, 158275, Note_on_c, 7, 65, 0
9, 158400, Note_on_c, 7, 68, 89
9, 158400, Note_on_c, 7, 56, 89
9, 158515, Note_on_c, 7, 56, 0
9, 158515, Note_on_c, 7, 68, 0
9, 158640, Note_on_c, 7, 68, 89
9, 158640, Note_on_c, 7, 56, 89
9, 158755, Note_on_c, 7, 56, 0
9, 158755, Note_on_c, 7, 68, 0
9, 159360, Note_on_c, 7, 65, 89
9, 159360, Note_on_c, 7, 53, 89
9, 159475, Note_on_c, 7, 53, 0
9, 159475, Note_on_c, 7, 65, 0
9, 160080, Note_on_c, 7, 67, 89
9, 160080, Note_on_c, 7, 55, 89
9, 160195, Note_on_c, 7, 55, 0
9, 160195, Note_on_c, 7, 67, 0
9, 160320, Note_on_c, 7, 68, 89
9, 160320, Note_on_c, 7, 56, 89
9, 160435, Note_on_c, 7, 56, 0
9, 160435, Note_on_c, 7, 68, 0
9, 160560, Note_on_c, 7, 68, 89
9, 160560, Note_on_c, 7, 56, 89
9, 160675, Note_on_c, 7, 56, 0
9, 160675, Note_on_c, 7, 68, 0
9, 161040, Note_on_c, 7, 67, 89
9, 161040, Note_on_c, 7, 55, 89
9, 161155, Note_on_c, 7, 55, 0
9, 161155, Note_on_c, 7, 67, 0
9, 161280, Note_on_c, 7, 65, 89
9, 161280, Note_on_c, 7, 53, 89
9, 161395, Note_on_c, 7, 53, 0
9, 161395, Note_on_c, 7, 65, 0
9, 161520, Note_on_c, 7, 65, 89
9, 161520, Note_on_c, 7, 53, 89
9, 161635, Note_on_c, 7, 53, 0
9, 161635, Note_on_c, 7, 65, 0
9, 162000, Note_on_c, 7, 65, 89
9, 162000, Note_on_c, 7, 53, 89
9, 162115, Note_on_c, 7, 53, 0
9, 162115, Note_on_c, 7, 65, 0
9, 162240, Note_on_c, 7, 68, 89
9, 162240, Note_on_c, 7, 56, 89
9, 162355, Note_on_c, 7, 56, 0
9, 162355, Note_on_c, 7, 68, 0
9, 162480, Note_on_c, 7, 56, 89
9, 162480, Note_on_c, 7, 68, 89
9, 162595, Note_on_c, 7, 68, 0
9, 162595, Note_on_c, 7, 56, 0
9, 163200, Note_on_c, 7, 53, 89
9, 163200, Note_on_c, 7, 65, 89
9, 163315, Note_on_c, 7, 65, 0
9, 163315, Note_on_c, 7, 53, 0
9, 163920, Note_on_c, 7, 55, 89
9, 163920, Note_on_c, 7, 67, 89
9, 164035, Note_on_c, 7, 67, 0
9, 164035, Note_on_c, 7, 55, 0
9, 164160, Note_on_c, 7, 56, 89
9, 164160, Note_on_c, 7, 68, 89
9, 164275, Note_on_c, 7, 68, 0
9, 164275, Note_on_c, 7, 56, 0
9, 164400, Note_on_c, 7, 56, 89
9, 164400, Note_on_c, 7, 68, 89
9, 164515, Note_on_c, 7, 68, 0
9, 164515, Note_on_c, 7, 56, 0
9, 164880, Note_on_c, 7, 55, 89
9, 164880, Note_on_c, 7, 67, 89
9, 164995, Note_on_c, 7, 67, 0
9, 164995, Note_on_c, 7, 55, 0
9, 165120, Note_on_c, 7, 53, 89
9, 165120, Note_on_c, 7, 65, 89
9, 165235, Note_on_c, 7, 65, 0
9, 165235, Note_on_c, 7, 53, 0
9, 165360, Note_on_c, 7, 53, 89
9, 165360, Note_on_c, 7, 65, 89
9, 165475, Note_on_c, 7, 65, 0
9, 165475, Note_on_c, 7, 53, 0
9, 165840, Note_on_c, 7, 53, 89
9, 165840, Note_on_c, 7, 65, 89
9, 165955, Note_on_c, 7, 65, 0
9, 165955, Note_on_c, 7, 53, 0
9, 166080, Note_on_c, 7, 56, 89
9, 166080, Note_on_c, 7, 68, 89
9, 166195, Note_on_c, 7, 68, 0
9, 166195, Note_on_c, 7, 56, 0
9, 166320, Note_on_c, 7, 56, 89
9, 166320, Note_on_c, 7, 68, 89
9, 166435, Note_on_c, 7, 68, 0
9, 166435, Note_on_c, 7, 56, 0
9, 167040, Note_on_c, 7, 53, 89
9, 167040, Note_on_c, 7, 65, 89
9, 167155, Note_on_c, 7, 65, 0
9, 167155, Note_on_c, 7, 53, 0
9, 167760, Note_on_c, 7, 55, 89
9, 167760, Note_on_c, 7, 67, 89
9, 167875, Note_on_c, 7, 67, 0
9, 167875, Note_on_c, 7, 55, 0
9, 168000, Note_on_c, 7, 56, 89
9, 168000, Note_on_c, 7, 68, 89
9, 168115, Note_on_c, 7, 68, 0
9, 168115, Note_on_c, 7, 56, 0
9, 168240, Note_on_c, 7, 56, 89
9, 168240, Note_on_c, 7, 68, 89
9, 168355, Note_on_c, 7, 68, 0
9, 168355, Note_on_c, 7, 56, 0
9, 168720, Note_on_c, 7, 55, 89
9, 168720, Note_on_c, 7, 67, 89
9, 168835, Note_on_c, 7, 67, 0
9, 168835, Note_on_c, 7, 55, 0
9, 184320, Note_on_c, 7, 65, 89
9, 184320, Note_on_c, 7, 53, 89
9, 184435, Note_on_c, 7, 53, 0
9, 184435, Note_on_c, 7, 65, 0
9, 184560, Note_on_c, 7, 65, 89
9, 184560, Note_on_c, 7, 53, 89
9, 184675, Note_on_c, 7, 53, 0
9, 184675, Note_on_c, 7, 65, 0
9, 185040, Note_on_c, 7, 65, 89
9, 185040, Note_on_c, 7, 53, 89
9, 185155, Note_on_c, 7, 53, 0
9, 185155, Note_on_c, 7, 65, 0
9, 185280, Note_on_c, 7, 68, 89
9, 185280, Note_on_c, 7, 56, 89
9, 185395, Note_on_c, 7, 56, 0
9, 185395, Note_on_c, 7, 68, 0
9, 185520, Note_on_c, 7, 68, 89
9, 185520, Note_on_c, 7, 56, 89
9, 185635, Note_on_c, 7, 56, 0
9, 185635, Note_on_c, 7, 68, 0
9, 186240, Note_on_c, 7, 65, 89
9, 186240, Note_on_c, 7, 53, 89
9, 186355, Note_on_c, 7, 53, 0
9, 186355, Note_on_c, 7, 65, 0
9, 186960, Note_on_c, 7, 67, 89
9, 186960, Note_on_c, 7, 55, 89
9, 187075, Note_on_c, 7, 55, 0
9, 187075, Note_on_c, 7, 67, 0
9, 187200, Note_on_c, 7, 68, 89
9, 187200, Note_on_c, 7, 56, 89
9, 187315, Note_on_c, 7, 56, 0
9, 187315, Note_on_c, 7, 68, 0
9, 187440, Note_on_c, 7, 68, 89
9, 187440, Note_on_c, 7, 56, 89
9, 187555, Note_on_c, 7, 56, 0
9, 187555, Note_on_c, 7, 68, 0
9, 187920, Note_on_c, 7, 67, 89
9, 187920, Note_on_c, 7, 55, 89
9, 188035, Note_on_c, 7, 55, 0
9, 188035, Note_on_c, 7, 67, 0
9, 188160, Note_on_c, 7, 65, 89
9, 188160, Note_on_c, 7, 53, 89
9, 188275, Note_on_c, 7, 53, 0
9, 188275, Note_on_c, 7, 65, 0
9, 188400, Note_on_c, 7, 65, 89
9, 188400, Note_on_c, 7, 53, 89
9, 188515, Note_on_c, 7, 53, 0
9, 188515, Note_on_c, 7, 65, 0
9, 188880, Note_on_c, 7, 65, 89
9, 188880, Note_on_c, 7, 53, 89
9, 188995, Note_on_c, 7, 53, 0
9, 188995, Note_on_c, 7, 65, 0
9, 189120, Note_on_c, 7, 68, 89
9, 189120, Note_on_c, 7, 56, 89
9, 189235, Note_on_c, 7, 56, 0
9, 189235, Note_on_c, 7, 68, 0
9, 189360, Note_on_c, 7, 68, 89
9, 189360, Note_on_c, 7, 56, 89
9, 189475, Note_on_c, 7, 56, 0
9, 189475, Note_on_c, 7, 68, 0
9, 190080, Note_on_c, 7, 65, 89
9, 190080, Note_on_c, 7, 53, 89
9, 190195, Note_on_c, 7, 53, 0
9, 190195, Note_on_c, 7, 65, 0
9, 190800, Note_on_c, 7, 67, 89
9, 190800, Note_on_c, 7, 55, 89
9, 190915, Note_on_c, 7, 55, 0
9, 190915, Note_on_c, 7, 67, 0
9, 191040, Note_on_c, 7, 68, 89
9, 191040, Note_on_c, 7, 56, 89
9, 191155, Note_on_c, 7, 56, 0
9, 191155, Note_on_c, 7, 68, 0
9, 191280, Note_on_c, 7, 68, 89
9, 191280, Note_on_c, 7, 56, 89
9, 191395, Note_on_c, 7, 56, 0
9, 191395, Note_on_c, 7, 68, 0
9, 191760, Note_on_c, 7, 67, 89
9, 191760, Note_on_c, 7, 55, 89
9, 191875, Note_on_c, 7, 55, 0
9, 191875, Note_on_c, 7, 67, 0
9, 192000, Note_on_c, 7, 65, 89
9, 192000, Note_on_c, 7, 53, 89
9, 192115, Note_on_c, 7, 53, 0
9, 192115, Note_on_c, 7, 65, 0
9, 192240, Note_on_c, 7, 65, 89
9, 192240, Note_on_c, 7, 53, 89
9, 192355, Note_on_c, 7, 53, 0
9, 192355, Note_on_c, 7, 65, 0
9, 192720, Note_on_c, 7, 65, 89
9, 192720, Note_on_c, 7, 53, 89
9, 192835, Note_on_c, 7, 53, 0
9, 192835, Note_on_c, 7, 65, 0
9, 192960, Note_on_c, 7, 68, 89
9, 192960, Note_on_c, 7, 56, 89
9, 193075, Note_on_c, 7, 56, 0
9, 193075, Note_on_c, 7, 68, 0
9, 193200, Note_on_c, 7, 68, 89
9, 193200, Note_on_c, 7, 56, 89
9, 193315, Note_on_c, 7, 56, 0
9, 193315, Note_on_c, 7, 68, 0
9, 193920, Note_on_c, 7, 65, 89
9, 193920, Note_on_c, 7, 53, 89
9, 194035, Note_on_c, 7, 53, 0
9, 194035, Note_on_c, 7, 65, 0
9, 194640, Note_on_c, 7, 67, 89
9, 194640, Note_on_c, 7, 55, 89
9, 194755, Note_on_c, 7, 55, 0
9, 194755, Note_on_c, 7, 67, 0
9, 194880, Note_on_c, 7, 68, 89
9, 194880, Note_on_c, 7, 56, 89
9, 194995, Note_on_c, 7, 56, 0
9, 194995, Note_on_c, 7, 68, 0
9, 195120, Note_on_c, 7, 68, 89
9, 195120, Note_on_c, 7, 56, 89
9, 195235, Note_on_c, 7, 56, 0
9, 195235, Note_on_c, 7, 68, 0
9, 195600, Note_on_c, 7, 67, 89
9, 195600, Note_on_c, 7, 55, 89
9, 195715, Note_on_c, 7, 55, 0
9, 195715, Note_on_c, 7, 67, 0
9, 195840, Note_on_c, 7, 65, 89
9, 195840, Note_on_c, 7, 53, 89
9, 195955, Note_on_c, 7, 53, 0
9, 195955, Note_on_c, 7, 65, 0
9, 196080, Note_on_c, 7, 65, 89
9, 196080, Note_on_c, 7, 53, 89
9, 196195, Note_on_c, 7, 53, 0
9, 196195, Note_on_c, 7, 65, 0
9, 196560, Note_on_c, 7, 65, 89
9, 196560, Note_on_c, 7, 53, 89
9, 196675, Note_on_c, 7, 53, 0
9, 196675, Note_on_c, 7, 65, 0
9, 196800, Note_on_c, 7, 68, 89
9, 196800, Note_on_c, 7, 56, 89
9, 196915, Note_on_c, 7, 56, 0
9, 196915, Note_on_c, 7, 68, 0
9, 197040, Note_on_c, 7, 68, 89
9, 197040, Note_on_c, 7, 56, 89
9, 197155, Note_on_c, 7, 56, 0
9, 197155, Note_on_c, 7, 68, 0
9, 197760, Note_on_c, 7, 65, 89
9, 197760, Note_on_c, 7, 53, 89
9, 197875, Note_on_c, 7, 53, 0
9, 197875, Note_on_c, 7, 65, 0
9, 198480, Note_on_c, 7, 67, 89
9, 198480, Note_on_c, 7, 55, 89
9, 198595, Note_on_c, 7, 55, 0
9, 198595, Note_on_c, 7, 67, 0
9, 198720, Note_on_c, 7, 68, 89
9, 198720, Note_on_c, 7, 56, 89
9, 198835, Note_on_c, 7, 56, 0
9, 198835, Note_on_c, 7, 68, 0
9, 198960, Note_on_c, 7, 68, 89
9, 198960, Note_on_c, 7, 56, 89
9, 199075, Note_on_c, 7, 56, 0
9, 199075, Note_on_c, 7, 68, 0
9, 199440, Note_on_c, 7, 67, 89
9, 199440, Note_on_c, 7, 55, 89
9, 199555, Note_on_c, 7, 55, 0
9, 199555, Note_on_c, 7, 67, 0
9, 199555, End_track
10, 0, Start_track
10, 522, Program_c, 8, 27
10, 523, Control_c, 8, 7, 99
10, 523, Control_c, 8, 10, 64
10, 99840, Note_on_c, 8, 41, 85
10, 100333, Note_on_c, 8, 41, 0
10, 100560, Note_on_c, 8, 43, 83
10, 100713, Note_on_c, 8, 43, 0
10, 100800, Note_on_c, 8, 44, 72
10, 101280, Note_on_c, 8, 44, 0
10, 101520, Note_on_c, 8, 46, 81
10, 101658, Note_on_c, 8, 46, 0
10, 101760, Note_on_c, 8, 48, 67
10, 102240, Note_on_c, 8, 48, 0
10, 102480, Note_on_c, 8, 49, 66
10, 102619, Note_on_c, 8, 49, 0
10, 102720, Note_on_c, 8, 48, 64
10, 102885, Note_on_c, 8, 48, 0
10, 102960, Note_on_c, 8, 49, 85
10, 103116, Note_on_c, 8, 49, 0
10, 103200, Note_on_c, 8, 48, 75
10, 103364, Note_on_c, 8, 48, 0
10, 103440, Note_on_c, 8, 49, 78
10, 103604, Note_on_c, 8, 49, 0
10, 103680, Note_on_c, 8, 48, 90
10, 103837, Note_on_c, 8, 48, 0
10, 103920, Note_on_c, 8, 44, 72
10, 104101, Note_on_c, 8, 44, 0
10, 104160, Note_on_c, 8, 41, 81
10, 104640, Note_on_c, 8, 41, 0
10, 105360, Note_on_c, 8, 46, 79
10, 105498, Note_on_c, 8, 46, 0
10, 105600, Note_on_c, 8, 48, 80
10, 106080, Note_on_c, 8, 48, 0
10, 169440, Note_on_c, 8, 41, 82
10, 169587, Note_on_c, 8, 41, 0
10, 169680, Note_on_c, 8, 43, 77
10, 169833, Note_on_c, 8, 43, 0
10, 169920, Note_on_c, 8, 44, 83
10, 170400, Note_on_c, 8, 44, 0
10, 170640, Note_on_c, 8, 46, 67
10, 170778, Note_on_c, 8, 46, 0
10, 170880, Note_on_c, 8, 48, 95
10, 171360, Note_on_c, 8, 48, 0
10, 171600, Note_on_c, 8, 49, 79
10, 171739, Note_on_c, 8, 49, 0
10, 171840, Note_on_c, 8, 48, 80
10, 172005, Note_on_c, 8, 48, 0
10, 172080, Note_on_c, 8, 49, 80
10, 172236, Note_on_c, 8, 49, 0
10, 172320, Note_on_c, 8, 48, 90
10, 172484, Note_on_c, 8, 48, 0
10, 172560, Note_on_c, 8, 49, 77
10, 172724, Note_on_c, 8, 49, 0
10, 172800, Note_on_c, 8, 48, 72
10, 172957, Note_on_c, 8, 48, 0
10, 173040, Note_on_c, 8, 44, 85
10, 173221, Note_on_c, 8, 44, 0
10, 173280, Note_on_c, 8, 41, 83
10, 173760, Note_on_c, 8, 41, 0
10, 174480, Note_on_c, 8, 46, 75
10, 174618, Note_on_c, 8, 46, 0
10, 174720, Note_on_c, 8, 48, 62
10, 175200, Note_on_c, 8, 48, 0
10, 177120, Note_on_c, 8, 41, 79
10, 177267, Note_on_c, 8, 41, 0
10, 177360, Note_on_c, 8, 43, 99
10, 177513, Note_on_c, 8, 43, 0
10, 177600, Note_on_c, 8, 44, 78
10, 178080, Note_on_c, 8, 44, 0
10, 178320, Note_on_c, 8, 46, 80
10, 178458, Note_on_c, 8, 46, 0
10, 178560, Note_on_c, 8, 48, 80
10, 179040, Note_on_c, 8, 48, 0
10, 179280, Note_on_c, 8, 49, 86
10, 179419, Note_on_c, 8, 49, 0
10, 179520, Note_on_c, 8, 48, 82
10, 179685, Note_on_c, 8, 48, 0
10, 179760, Note_on_c, 8, 49, 81
10, 179916, Note_on_c, 8, 49, 0
10, 180000, Note_on_c, 8, 48, 76
10, 180164, Note_on_c, 8, 48, 0
10, 180240, Note_on_c, 8, 49, 98
10, 180404, Note_on_c, 8, 49, 0
10, 180480, Note_on_c, 8, 48, 67
10, 180637, Note_on_c, 8, 48, 0
10, 180720, Note_on_c, 8, 44, 89
10, 180901, Note_on_c, 8, 44, 0
10, 180960, Note_on_c, 8, 41, 71
10, 181440, Note_on_c, 8, 41, 0
10, 182160, Note_on_c, 8, 46, 81
10, 182298, Note_on_c, 8, 46, 0
10, 182400, Note_on_c, 8, 48, 86
10, 182880, Note_on_c, 8, 48, 0
10, 182880, End_track
11, 0, Start_track
11, 532, Program_c, 10, 29
11, 533, Control_c, 10, 7, 89
11, 533, Control_c, 10, 10, 64
11, 12000, Control_c, 10, 11, 0
11, 13920, Note_on_c, 10, 41, 119
11, 13920, Note_on_c, 10, 36, 119
11, 13920, Note_on_c, 10, 29, 119
11, 14020, Control_c, 10, 11, 8
11, 14120, Control_c, 10, 11, 16
11, 14220, Control_c, 10, 11, 24
11, 14320, Control_c, 10, 11, 32
11, 14420, Control_c, 10, 11, 41
11, 14520, Control_c, 10, 11, 49
11, 14620, Control_c, 10, 11, 57
11, 14720, Control_c, 10, 11, 65
11, 14820, Control_c, 10, 11, 74
11, 14920, Control_c, 10, 11, 82
11, 15020, Control_c, 10, 11, 90
11, 15120, Control_c, 10, 11, 98
11, 15220, Control_c, 10, 11, 107
11, 15320, Control_c, 10, 11, 115
11, 15376, Control_c, 10, 11, 127
11, 15376, Control_c, 10, 11, 127
11, 15426, Control_c, 10, 11, 112
11, 15476, Control_c, 10, 11, 98
11, 15526, Control_c, 10, 11, 84
11, 15576, Control_c, 10, 11, 70
11, 15626, Control_c, 10, 11, 56
11, 15676, Control_c, 10, 11, 41
11, 15726, Control_c, 10, 11, 27
11, 15776, Control_c, 10, 11, 0
11, 15835, Note_on_c, 10, 29, 0
11, 15835, Note_on_c, 10, 36, 0
11, 15835, Note_on_c, 10, 41, 0
11, 21600, Control_c, 10, 11, 0
11, 21600, Note_on_c, 10, 41, 119
11, 21600, Note_on_c, 10, 36, 119
11, 21600, Note_on_c, 10, 29, 119
11, 21700, Control_c, 10, 11, 8
11, 21800, Control_c, 10, 11, 16
11, 21900, Control_c, 10, 11, 24
11, 22000, Control_c, 10, 11, 32
11, 22100, Control_c, 10, 11, 41
11, 22200, Control_c, 10, 11, 49
11, 22300, Control_c, 10, 11, 57
11, 22400, Control_c, 10, 11, 65
11, 22500, Control_c, 10, 11, 74
11, 22600, Control_c, 10, 11, 82
11, 22700, Control_c, 10, 11, 90
11, 22800, Control_c, 10, 11, 98
11, 22900, Control_c, 10, 11, 107
11, 23000, Control_c, 10, 11, 115
11, 23056, Control_c, 10, 11, 127
11, 23056, Control_c, 10, 11, 127
11, 23106, Control_c, 10, 11, 112
11, 23156, Control_c, 10, 11, 98
11, 23206, Control_c, 10, 11, 84
11, 23256, Control_c, 10, 11, 70
11, 23306, Control_c, 10, 11, 56
11, 23356, Control_c, 10, 11, 41
11, 23406, Control_c, 10, 11, 27
11, 23456, Control_c, 10, 11, 0
11, 23515, Note_on_c, 10, 29, 0
11, 23515, Note_on_c, 10, 36, 0
11, 23515, Note_on_c, 10, 41, 0
11, 29280, Control_c, 10, 11, 0
11, 29280, Note_on_c, 10, 29, 119
11, 29280, Note_on_c, 10, 36, 119
11, 29280, Note_on_c, 10, 41, 119
11, 29380, Control_c, 10, 11, 8
11, 29480, Control_c, 10, 11, 16
11, 29580, Control_c, 10, 11, 24
11, 29680, Control_c, 10, 11, 32
11, 29780, Control_c, 10, 11, 41
11, 29880, Control_c, 10, 11, 49
11, 29980, Control_c, 10, 11, 57
11, 30080, Control_c, 10, 11, 65
11, 30180, Control_c, 10, 11, 74
11, 30280, Control_c, 10, 11, 82
11, 30380, Control_c, 10, 11, 90
11, 30480, Control_c, 10, 11, 98
11, 30580, Control_c, 10, 11, 107
11, 30680, Control_c, 10, 11, 115
11, 30736, Control_c, 10, 11, 127
11, 30736, Control_c, 10, 11, 127
11, 30786, Control_c, 10, 11, 112
11, 30836, Control_c, 10, 11, 98
11, 30886, Control_c, 10, 11, 84
11, 30936, Control_c, 10, 11, 70
11, 30986, Control_c, 10, 11, 56
11, 31036, Control_c, 10, 11, 41
11, 31086, Control_c, 10, 11, 27
11, 31136, Control_c, 10, 11, 0
11, 31195, Note_on_c, 10, 41, 0
11, 31195, Note_on_c, 10, 36, 0
11, 31195, Note_on_c, 10, 29, 0
11, 36960, Control_c, 10, 11, 0
11, 36960, Note_on_c, 10, 29, 119
11, 36960, Note_on_c, 10, 36, 119
11, 36960, Note_on_c, 10, 41, 119
11, 37060, Control_c, 10, 11, 8
11, 37160, Control_c, 10, 11, 16
11, 37260, Control_c, 10, 11, 24
11, 37360, Control_c, 10, 11, 32
11, 37460, Control_c, 10, 11, 41
11, 37560, Control_c, 10, 11, 49
11, 37660, Control_c, 10, 11, 57
11, 37760, Control_c, 10, 11, 65
11, 37860, Control_c, 10, 11, 74
11, 37960, Control_c, 10, 11, 82
11, 38060, Control_c, 10, 11, 90
11, 38160, Control_c, 10, 11, 98
11, 38260, Control_c, 10, 11, 107
11, 38360, Control_c, 10, 11, 115
11, 38416, Control_c, 10, 11, 127
11, 38416, Control_c, 10, 11, 127
11, 38466, Control_c, 10, 11, 112
11, 38516, Control_c, 10, 11, 98
11, 38566, Control_c, 10, 11, 84
11, 38616, Control_c, 10, 11, 70
11, 38666, Control_c, 10, 11, 56
11, 38716, Control_c, 10, 11, 41
11, 38766, Control_c, 10, 11, 27
11, 38816, Control_c, 10, 11, 0
11, 38875, Note_on_c, 10, 41, 0
11, 38875, Note_on_c, 10, 36, 0
11, 38875, Note_on_c, 10, 29, 0
11, 44640, Control_c, 10, 11, 0
11, 44640, Note_on_c, 10, 29, 119
11, 44640, Note_on_c, 10, 36, 119
11, 44640, Note_on_c, 10, 41, 119
11, 44740, Control_c, 10, 11, 8
11, 44840, Control_c, 10, 11, 16
11, 44940, Control_c, 10, 11, 24
11, 45040, Control_c, 10, 11, 32
11, 45140, Control_c, 10, 11, 41
11, 45240, Control_c, 10, 11, 49
11, 45340, Control_c, 10, 11, 57
11, 45440, Control_c, 10, 11, 65
11, 45540, Control_c, 10, 11, 74
11, 45640, Control_c, 10, 11, 82
11, 45740, Control_c, 10, 11, 90
11, 45840, Control_c, 10, 11, 98
11, 45940, Control_c, 10, 11, 107
11, 46040, Control_c, 10, 11, 115
11, 46096, Control_c, 10, 11, 127
11, 46096, Control_c, 10, 11, 127
11, 46146, Control_c, 10, 11, 112
11, 46196, Control_c, 10, 11, 98
11, 46246, Control_c, 10, 11, 84
11, 46296, Control_c, 10, 11, 70
11, 46346, Control_c, 10, 11, 56
11, 46396, Control_c, 10, 11, 41
11, 46446, Control_c, 10, 11, 27
11, 46496, Control_c, 10, 11, 0
11, 46555, Note_on_c, 10, 41, 0
11, 46555, Note_on_c, 10, 36, 0
11, 46555, Note_on_c, 10, 29, 0
11, 52320, Control_c, 10, 11, 0
11, 52320, Note_on_c, 10, 29, 119
11, 52320, Note_on_c, 10, 36, 119
11, 52320, Note_on_c, 10, 41, 119
11, 52420, Control_c, 10, 11, 8
11, 52520, Control_c, 10, 11, 16
11, 52620, Control_c, 10, 11, 24
11, 52720, Control_c, 10, 11, 32
11, 52820, Control_c, 10, 11, 41
11, 52920, Control_c, 10, 11, 49
11, 53020, Control_c, 10, 11, 57
11, 53120, Control_c, 10, 11, 65
11, 53220, Control_c, 10, 11, 74
11, 53320, Control_c, 10, 11, 82
11, 53420, Control_c, 10, 11, 90
11, 53520, Control_c, 10, 11, 98
11, 53620, Control_c, 10, 11, 107
11, 53720, Control_c, 10, 11, 115
11, 53776, Control_c, 10, 11, 127
11, 53776, Control_c, 10, 11, 127
11, 53826, Control_c, 10, 11, 112
11, 53876, Control_c, 10, 11, 98
11, 53926, Control_c, 10, 11, 84
11, 53976, Control_c, 10, 11, 70
11, 54026, Control_c, 10, 11, 56
11, 54076, Control_c, 10, 11, 41
11, 54126, Control_c, 10, 11, 27
11, 54176, Control_c, 10, 11, 0
11, 54235, Note_on_c, 10, 41, 0
11, 54235, Note_on_c, 10, 36, 0
11, 54235, Note_on_c, 10, 29, 0
11, 60000, Control_c, 10, 11, 0
11, 60000, Note_on_c, 10, 29, 119
11, 60000, Note_on_c, 10, 36, 119
11, 60000, Note_on_c, 10, 41, 119
11, 60100, Control_c, 10, 11, 8
11, 60200, Control_c, 10, 11, 16
11, 60300, Control_c, 10, 11, 24
11, 60400, Control_c, 10, 11, 32
11, 60500, Control_c, 10, 11, 41
11, 60600, Control_c, 10, 11, 49
11, 60700, Control_c, 10, 11, 57
11, 60800, Control_c, 10, 11, 65
11, 60900, Control_c, 10, 11, 74
11, 61000, Control_c, 10, 11, 82
11, 61100, Control_c, 10, 11, 90
11, 61200, Control_c, 10, 11, 98
11, 61300, Control_c, 10, 11, 107
11, 61400, Control_c, 10, 11, 115
11, 61456, Control_c, 10, 11, 127
11, 61456, Control_c, 10, 11, 127
11, 61506, Control_c, 10, 11, 112
11, 61556, Control_c, 10, 11, 98
11, 61606, Control_c, 10, 11, 84
11, 61656, Control_c, 10, 11, 70
11, 61706, Control_c, 10, 11, 56
11, 61756, Control_c, 10, 11, 41
11, 61806, Control_c, 10, 11, 27
11, 61856, Control_c, 10, 11, 0
11, 61915, Note_on_c, 10, 41, 0
11, 61915, Note_on_c, 10, 36, 0
11, 61915, Note_on_c, 10, 29, 0
11, 67680, Control_c, 10, 11, 0
11, 67680, Note_on_c, 10, 29, 119
11, 67680, Note_on_c, 10, 36, 119
11, 67680, Note_on_c, 10, 41, 119
11, 67780, Control_c, 10, 11, 8
11, 67880, Control_c, 10, 11, 16
11, 67980, Control_c, 10, 11, 24
11, 68080, Control_c, 10, 11, 32
11, 68180, Control_c, 10, 11, 41
11, 68280, Control_c, 10, 11, 49
11, 68380, Control_c, 10, 11, 57
11, 68480, Control_c, 10, 11, 65
11, 68580, Control_c, 10, 11, 74
11, 68680, Control_c, 10, 11, 82
11, 68780, Control_c, 10, 11, 90
11, 68880, Control_c, 10, 11, 98
11, 68980, Control_c, 10, 11, 107
11, 69080, Control_c, 10, 11, 115
11, 69136, Control_c, 10, 11, 127
11, 69136, Control_c, 10, 11, 127
11, 69186, Control_c, 10, 11, 112
11, 69236, Control_c, 10, 11, 98
11, 69286, Control_c, 10, 11, 84
11, 69336, Control_c, 10, 11, 70
11, 69386, Control_c, 10, 11, 56
11, 69436, Control_c, 10, 11, 41
11, 69486, Control_c, 10, 11, 27
11, 69536, Control_c, 10, 11, 0
11, 69595, Note_on_c, 10, 41, 0
11, 69595, Note_on_c, 10, 36, 0
11, 69595, Note_on_c, 10, 29, 0
11, 75360, Control_c, 10, 11, 0
11, 75360, Note_on_c, 10, 29, 119
11, 75360, Note_on_c, 10, 36, 119
11, 75360, Note_on_c, 10, 41, 119
11, 75460, Control_c, 10, 11, 8
11, 75560, Control_c, 10, 11, 16
11, 75660, Control_c, 10, 11, 24
11, 75760, Control_c, 10, 11, 32
11, 75860, Control_c, 10, 11, 41
11, 75960, Control_c, 10, 11, 49
11, 76060, Control_c, 10, 11, 57
11, 76160, Control_c, 10, 11, 65
11, 76260, Control_c, 10, 11, 74
11, 76360, Control_c, 10, 11, 82
11, 76460, Control_c, 10, 11, 90
11, 76560, Control_c, 10, 11, 98
11, 76660, Control_c, 10, 11, 107
11, 76760, Control_c, 10, 11, 115
11, 76816, Control_c, 10, 11, 127
11, 76816, Control_c, 10, 11, 127
11, 76866, Control_c, 10, 11, 112
11, 76916, Control_c, 10, 11, 98
11, 76966, Control_c, 10, 11, 84
11, 77016, Control_c, 10, 11, 70
11, 77066, Control_c, 10, 11, 56
11, 77116, Control_c, 10, 11, 41
11, 77166, Control_c, 10, 11, 27
11, 77216, Control_c, 10, 11, 0
11, 77275, Note_on_c, 10, 41, 0
11, 77275, Note_on_c, 10, 36, 0
11, 77275, Note_on_c, 10, 29, 0
11, 83040, Control_c, 10, 11, 0
11, 83040, Note_on_c, 10, 29, 119
11, 83040, Note_on_c, 10, 36, 119
11, 83040, Note_on_c, 10, 41, 119
11, 83140, Control_c, 10, 11, 8
11, 83240, Control_c, 10, 11, 16
11, 83340, Control_c, 10, 11, 24
11, 83440, Control_c, 10, 11, 32
11, 83540, Control_c, 10, 11, 41
11, 83640, Control_c, 10, 11, 49
11, 83740, Control_c, 10, 11, 57
11, 83840, Control_c, 10, 11, 65
11, 83940, Control_c, 10, 11, 74
11, 84040, Control_c, 10, 11, 82
11, 84140, Control_c, 10, 11, 90
11, 84240, Control_c, 10, 11, 98
11, 84340, Control_c, 10, 11, 107
11, 84440, Control_c, 10, 11, 115
11, 84496, Control_c, 10, 11, 127
11, 84496, Control_c, 10, 11, 127
11, 84546, Control_c, 10, 11, 112
11, 84596, Control_c, 10, 11, 98
11, 84646, Control_c, 10, 11, 84
11, 84696, Control_c, 10, 11, 70
11, 84746, Control_c, 10, 11, 56
11, 84796, Control_c, 10, 11, 41
11, 84846, Control_c, 10, 11, 27
11, 84896, Control_c, 10, 11, 0
11, 84955, Note_on_c, 10, 41, 0
11, 84955, Note_on_c, 10, 36, 0
11, 84955, Note_on_c, 10, 29, 0
11, 90720, Control_c, 10, 11, 0
11, 90720, Note_on_c, 10, 29, 119
11, 90720, Note_on_c, 10, 36, 119
11, 90720, Note_on_c, 10, 41, 119
11, 90820, Control_c, 10, 11, 8
11, 90920, Control_c, 10, 11, 16
11, 91020, Control_c, 10, 11, 24
11, 91120, Control_c, 10, 11, 32
11, 91220, Control_c, 10, 11, 41
11, 91320, Control_c, 10, 11, 49
11, 91420, Control_c, 10, 11, 57
11, 91520, Control_c, 10, 11, 65
11, 91620, Control_c, 10, 11, 74
11, 91720, Control_c, 10, 11, 82
11, 91820, Control_c, 10, 11, 90
11, 91920, Control_c, 10, 11, 98
11, 92020, Control_c, 10, 11, 107
11, 92120, Control_c, 10, 11, 115
11, 92176, Control_c, 10, 11, 127
11, 92176, Control_c, 10, 11, 127
11, 92226, Control_c, 10, 11, 112
11, 92276, Control_c, 10, 11, 98
11, 92326, Control_c, 10, 11, 84
11, 92376, Control_c, 10, 11, 70
11, 92426, Control_c, 10, 11, 56
11, 92476, Control_c, 10, 11, 41
11, 92526, Control_c, 10, 11, 27
11, 92576, Control_c, 10, 11, 0
11, 92635, Note_on_c, 10, 41, 0
11, 92635, Note_on_c, 10, 36, 0
11, 92635, Note_on_c, 10, 29, 0
11, 98400, Control_c, 10, 11, 0
11, 98400, Note_on_c, 10, 29, 119
11, 98400, Note_on_c, 10, 36, 119
11, 98400, Note_on_c, 10, 41, 119
11, 98500, Control_c, 10, 11, 8
11, 98600, Control_c, 10, 11, 16
11, 98700, Control_c, 10, 11, 24
11, 98800, Control_c, 10, 11, 32
11, 98900, Control_c, 10, 11, 41
11, 99000, Control_c, 10, 11, 49
11, 99100, Control_c, 10, 11, 57
11, 99200, Control_c, 10, 11, 65
11, 99300, Control_c, 10, 11, 74
11, 99400, Control_c, 10, 11, 82
11, 99500, Control_c, 10, 11, 90
11, 99600, Control_c, 10, 11, 98
11, 99700, Control_c, 10, 11, 107
11, 99800, Control_c, 10, 11, 115
11, 99856, Control_c, 10, 11, 127
11, 99856, Control_c, 10, 11, 127
11, 99906, Control_c, 10, 11, 112
11, 99956, Control_c, 10, 11, 98
11, 100006, Control_c, 10, 11, 84
11, 100056, Control_c, 10, 11, 70
11, 100106, Control_c, 10, 11, 56
11, 100156, Control_c, 10, 11, 41
11, 100206, Control_c, 10, 11, 27
11, 100256, Control_c, 10, 11, 0
11, 100315, Note_on_c, 10, 41, 0
11, 100315, Note_on_c, 10, 36, 0
11, 100315, Note_on_c, 10, 29, 0
11, 106080, Control_c, 10, 11, 0
11, 106080, Note_on_c, 10, 29, 119
11, 106080, Note_on_c, 10, 36, 119
11, 106080, Note_on_c, 10, 41, 119
11, 106180, Control_c, 10, 11, 8
11, 106280, Control_c, 10, 11, 16
11, 106380, Control_c, 10, 11, 24
11, 106480, Control_c, 10, 11, 32
11, 106580, Control_c, 10, 11, 41
11, 106680, Control_c, 10, 11, 49
11, 106780, Control_c, 10, 11, 57
11, 106880, Control_c, 10, 11, 65
11, 106980, Control_c, 10, 11, 74
11, 107080, Control_c, 10, 11, 82
11, 107180, Control_c, 10, 11, 90
11, 107280, Control_c, 10, 11, 98
11, 107380, Control_c, 10, 11, 107
11, 107480, Control_c, 10, 11, 115
11, 107536, Control_c, 10, 11, 127
11, 107536, Control_c, 10, 11, 127
11, 107586, Control_c, 10, 11, 112
11, 107636, Control_c, 10, 11, 98
11, 107686, Control_c, 10, 11, 84
11, 107736, Control_c, 10, 11, 70
11, 107786, Control_c, 10, 11, 56
11, 107836, Control_c, 10, 11, 41
11, 107886, Control_c, 10, 11, 27
11, 107936, Control_c, 10, 11, 0
11, 107995, Note_on_c, 10, 41, 0
11, 107995, Note_on_c, 10, 36, 0
11, 107995, Note_on_c, 10, 29, 0
11, 113760, Control_c, 10, 11, 0
11, 113760, Note_on_c, 10, 29, 119
11, 113760, Note_on_c, 10, 36, 119
11, 113760, Note_on_c, 10, 41, 119
11, 113860, Control_c, 10, 11, 8
11, 113960, Control_c, 10, 11, 16
11, 114060, Control_c, 10, 11, 24
11, 114160, Control_c, 10, 11, 32
11, 114260, Control_c, 10, 11, 41
11, 114360, Control_c, 10, 11, 49
11, 114460, Control_c, 10, 11, 57
11, 114560, Control_c, 10, 11, 65
11, 114660, Control_c, 10, 11, 74
11, 114760, Control_c, 10, 11, 82
11, 114860, Control_c, 10, 11, 90
11, 114960, Control_c, 10, 11, 98
11, 115060, Control_c, 10, 11, 107
11, 115160, Control_c, 10, 11, 115
11, 115216, Control_c, 10, 11, 127
11, 115216, Control_c, 10, 11, 127
11, 115266, Control_c, 10, 11, 112
11, 115316, Control_c, 10, 11, 98
11, 115366, Control_c, 10, 11, 84
11, 115416, Control_c, 10, 11, 70
11, 115466, Control_c, 10, 11, 56
11, 115516, Control_c, 10, 11, 41
11, 115566, Control_c, 10, 11, 27
11, 115616, Control_c, 10, 11, 0
11, 115675, Note_on_c, 10, 41, 0
11, 115675, Note_on_c, 10, 36, 0
11, 115675, Note_on_c, 10, 29, 0
11, 121440, Control_c, 10, 11, 0
11, 121440, Note_on_c, 10, 29, 119
11, 121440, Note_on_c, 10, 36, 119
11, 121440, Note_on_c, 10, 41, 119
11, 121540, Control_c, 10, 11, 8
11, 121640, Control_c, 10, 11, 16
11, 121740, Control_c, 10, 11, 24
11, 121840, Control_c, 10, 11, 32
11, 121940, Control_c, 10, 11, 41
11, 122040, Control_c, 10, 11, 49
11, 122140, Control_c, 10, 11, 57
11, 122240, Control_c, 10, 11, 65
11, 122340, Control_c, 10, 11, 74
11, 122440, Control_c, 10, 11, 82
11, 122540, Control_c, 10, 11, 90
11, 122640, Control_c, 10, 11, 98
11, 122740, Control_c, 10, 11, 107
11, 122840, Control_c, 10, 11, 115
11, 122896, Control_c, 10, 11, 127
11, 122896, Control_c, 10, 11, 127
11, 122946, Control_c, 10, 11, 112
11, 122996, Control_c, 10, 11, 98
11, 123046, Control_c, 10, 11, 84
11, 123096, Control_c, 10, 11, 70
11, 123146, Control_c, 10, 11, 56
11, 123196, Control_c, 10, 11, 41
11, 123246, Control_c, 10, 11, 27
11, 123296, Control_c, 10, 11, 0
11, 123355, Note_on_c, 10, 41, 0
11, 123355, Note_on_c, 10, 36, 0
11, 123355, Note_on_c, 10, 29, 0
11, 129120, Control_c, 10, 11, 0
11, 129120, Note_on_c, 10, 29, 119
11, 129120, Note_on_c, 10, 36, 119
11, 129120, Note_on_c, 10, 41, 119
11, 129220, Control_c, 10, 11, 8
11, 129320, Control_c, 10, 11, 16
11, 129420, Control_c, 10, 11, 24
11, 129520, Control_c, 10, 11, 32
11, 129620, Control_c, 10, 11, 41
11, 129720, Control_c, 10, 11, 49
11, 129820, Control_c, 10, 11, 57
11, 129920, Control_c, 10, 11, 65
11, 130020, Control_c, 10, 11, 74
11, 130120, Control_c, 10, 11, 82
11, 130220, Control_c, 10, 11, 90
11, 130320, Control_c, 10, 11, 98
11, 130420, Control_c, 10, 11, 107
11, 130520, Control_c, 10, 11, 115
11, 130576, Control_c, 10, 11, 127
11, 130576, Control_c, 10, 11, 127
11, 130626, Control_c, 10, 11, 112
11, 130676, Control_c, 10, 11, 98
11, 130726, Control_c, 10, 11, 84
11, 130776, Control_c, 10, 11, 70
11, 130826, Control_c, 10, 11, 56
11, 130876, Control_c, 10, 11, 41
11, 130926, Control_c, 10, 11, 27
11, 130976, Control_c, 10, 11, 0
11, 131035, Note_on_c, 10, 41, 0
11, 131035, Note_on_c, 10, 36, 0
11, 131035, Note_on_c, 10, 29, 0
11, 136800, Control_c, 10, 11, 0
11, 136800, Note_on_c, 10, 29, 119
11, 136800, Note_on_c, 10, 36, 119
11, 136800, Note_on_c, 10, 41, 119
11, 136900, Control_c, 10, 11, 8
11, 137000, Control_c, 10, 11, 16
11, 137100, Control_c, 10, 11, 24
11, 137200, Control_c, 10, 11, 32
11, 137300, Control_c, 10, 11, 41
11, 137400, Control_c, 10, 11, 49
11, 137500, Control_c, 10, 11, 57
11, 137600, Control_c, 10, 11, 65
11, 137700, Control_c, 10, 11, 74
11, 137800, Control_c, 10, 11, 82
11, 137900, Control_c, 10, 11, 90
11, 138000, Control_c, 10, 11, 98
11, 138100, Control_c, 10, 11, 107
11, 138200, Control_c, 10, 11, 115
11, 138256, Control_c, 10, 11, 127
11, 138256, Control_c, 10, 11, 127
11, 138306, Control_c, 10, 11, 112
11, 138356, Control_c, 10, 11, 98
11, 138406, Control_c, 10, 11, 84
11, 138456, Control_c, 10, 11, 70
11, 138506, Control_c, 10, 11, 56
11, 138556, Control_c, 10, 11, 41
11, 138606, Control_c, 10, 11, 27
11, 138656, Control_c, 10, 11, 0
11, 138715, Note_on_c, 10, 41, 0
11, 138715, Note_on_c, 10, 36, 0
11, 138715, Note_on_c, 10, 29, 0
11, 144480, Control_c, 10, 11, 0
11, 144480, Note_on_c, 10, 29, 119
11, 144480, Note_on_c, 10, 36, 119
11, 144480, Note_on_c, 10, 41, 119
11, 144580, Control_c, 10, 11, 8
11, 144680, Control_c, 10, 11, 16
11, 144780, Control_c, 10, 11, 24
11, 144880, Control_c, 10, 11, 32
11, 144980, Control_c, 10, 11, 41
11, 145080, Control_c, 10, 11, 49
11, 145180, Control_c, 10, 11, 57
11, 145280, Control_c, 10, 11, 65
11, 145380, Control_c, 10, 11, 74
11, 145480, Control_c, 10, 11, 82
11, 145580, Control_c, 10, 11, 90
11, 145680, Control_c, 10, 11, 98
11, 145780, Control_c, 10, 11, 107
11, 145880, Control_c, 10, 11, 115
11, 145936, Control_c, 10, 11, 127
11, 145936, Control_c, 10, 11, 127
11, 145986, Control_c, 10, 11, 112
11, 146036, Control_c, 10, 11, 98
11, 146086, Control_c, 10, 11, 84
11, 146136, Control_c, 10, 11, 70
11, 146186, Control_c, 10, 11, 56
11, 146236, Control_c, 10, 11, 41
11, 146286, Control_c, 10, 11, 27
11, 146336, Control_c, 10, 11, 0
11, 146395, Note_on_c, 10, 41, 0
11, 146395, Note_on_c, 10, 36, 0
11, 146395, Note_on_c, 10, 29, 0
11, 152160, Control_c, 10, 11, 0
11, 152160, Note_on_c, 10, 29, 119
11, 152160, Note_on_c, 10, 36, 119
11, 152160, Note_on_c, 10, 41, 119
11, 152260, Control_c, 10, 11, 8
11, 152360, Control_c, 10, 11, 16
11, 152460, Control_c, 10, 11, 24
11, 152560, Control_c, 10, 11, 32
11, 152660, Control_c, 10, 11, 41
11, 152760, Control_c, 10, 11, 49
11, 152860, Control_c, 10, 11, 57
11, 152960, Control_c, 10, 11, 65
11, 153060, Control_c, 10, 11, 74
11, 153160, Control_c, 10, 11, 82
11, 153260, Control_c, 10, 11, 90
11, 153360, Control_c, 10, 11, 98
11, 153460, Control_c, 10, 11, 107
11, 153560, Control_c, 10, 11, 115
11, 153616, Control_c, 10, 11, 127
11, 153616, Control_c, 10, 11, 127
11, 153666, Control_c, 10, 11, 112
11, 153716, Control_c, 10, 11, 98
11, 153766, Control_c, 10, 11, 84
11, 153816, Control_c, 10, 11, 70
11, 153866, Control_c, 10, 11, 56
11, 153916, Control_c, 10, 11, 41
11, 153966, Control_c, 10, 11, 27
11, 154016, Control_c, 10, 11, 0
11, 154075, Note_on_c, 10, 41, 0
11, 154075, Note_on_c, 10, 36, 0
11, 154075, Note_on_c, 10, 29, 0
11, 159840, Control_c, 10, 11, 0
11, 159840, Note_on_c, 10, 29, 119
11, 159840, Note_on_c, 10, 36, 119
11, 159840, Note_on_c, 10, 41, 119
11, 159940, Control_c, 10, 11, 8
11, 160040, Control_c, 10, 11, 16
11, 160140, Control_c, 10, 11, 24
11, 160240, Control_c, 10, 11, 32
11, 160340, Control_c, 10, 11, 41
11, 160440, Control_c, 10, 11, 49
11, 160540, Control_c, 10, 11, 57
11, 160640, Control_c, 10, 11, 65
11, 160740, Control_c, 10, 11, 74
11, 160840, Control_c, 10, 11, 82
11, 160940, Control_c, 10, 11, 90
11, 161040, Control_c, 10, 11, 98
11, 161140, Control_c, 10, 11, 107
11, 161240, Control_c, 10, 11, 115
11, 161296, Control_c, 10, 11, 127
11, 161296, Control_c, 10, 11, 127
11, 161346, Control_c, 10, 11, 112
11, 161396, Control_c, 10, 11, 98
11, 161446, Control_c, 10, 11, 84
11, 161496, Control_c, 10, 11, 70
11, 161546, Control_c, 10, 11, 56
11, 161596, Control_c, 10, 11, 41
11, 161646, Control_c, 10, 11, 27
11, 161696, Control_c, 10, 11, 0
11, 161755, Note_on_c, 10, 41, 0
11, 161755, Note_on_c, 10, 36, 0
11, 161755, Note_on_c, 10, 29, 0
11, 167520, Control_c, 10, 11, 0
11, 167520, Note_on_c, 10, 29, 119
11, 167520, Note_on_c, 10, 36, 119
11, 167520, Note_on_c, 10, 41, 119
11, 167620, Control_c, 10, 11, 8
11, 167720, Control_c, 10, 11, 16
11, 167820, Control_c, 10, 11, 24
11, 167920, Control_c, 10, 11, 32
11, 168020, Control_c, 10, 11, 41
11, 168120, Control_c, 10, 11, 49
11, 168220, Control_c, 10, 11, 57
11, 168320, Control_c, 10, 11, 65
11, 168420, Control_c, 10, 11, 74
11, 168520, Control_c, 10, 11, 82
11, 168620, Control_c, 10, 11, 90
11, 168720, Control_c, 10, 11, 98
11, 168820, Control_c, 10, 11, 107
11, 168920, Control_c, 10, 11, 115
11, 168976, Control_c, 10, 11, 127
11, 168976, Control_c, 10, 11, 127
11, 169026, Control_c, 10, 11, 112
11, 169076, Control_c, 10, 11, 98
11, 169126, Control_c, 10, 11, 84
11, 169176, Control_c, 10, 11, 70
11, 169226, Control_c, 10, 11, 56
11, 169276, Control_c, 10, 11, 41
11, 169326, Control_c, 10, 11, 27
11, 169376, Control_c, 10, 11, 0
11, 169435, Note_on_c, 10, 41, 0
11, 169435, Note_on_c, 10, 36, 0
11, 169435, Note_on_c, 10, 29, 0
11, 175200, Control_c, 10, 11, 0
11, 175200, Note_on_c, 10, 29, 119
11, 175200, Note_on_c, 10, 36, 119
11, 175200, Note_on_c, 10, 41, 119
11, 175300, Control_c, 10, 11, 8
11, 175400, Control_c, 10, 11, 16
11, 175500, Control_c, 10, 11, 24
11, 175600, Control_c, 10, 11, 32
11, 175700, Control_c, 10, 11, 41
11, 175800, Control_c, 10, 11, 49
11, 175900, Control_c, 10, 11, 57
11, 176000, Control_c, 10, 11, 65
11, 176100, Control_c, 10, 11, 74
11, 176200, Control_c, 10, 11, 82
11, 176300, Control_c, 10, 11, 90
11, 176400, Control_c, 10, 11, 98
11, 176500, Control_c, 10, 11, 107
11, 176600, Control_c, 10, 11, 115
11, 176656, Control_c, 10, 11, 127
11, 176656, Control_c, 10, 11, 127
11, 176706, Control_c, 10, 11, 112
11, 176756, Control_c, 10, 11, 98
11, 176806, Control_c, 10, 11, 84
11, 176856, Control_c, 10, 11, 70
11, 176906, Control_c, 10, 11, 56
11, 176956, Control_c, 10, 11, 41
11, 177006, Control_c, 10, 11, 27
11, 177056, Control_c, 10, 11, 0
11, 177115, Note_on_c, 10, 41, 0
11, 177115, Note_on_c, 10, 36, 0
11, 177115, Note_on_c, 10, 29, 0
11, 182880, Control_c, 10, 11, 0
11, 182880, Note_on_c, 10, 29, 119
11, 182880, Note_on_c, 10, 36, 119
11, 182880, Note_on_c, 10, 41, 119
11, 182980, Control_c, 10, 11, 8
11, 183080, Control_c, 10, 11, 16
11, 183180, Control_c, 10, 11, 24
11, 183280, Control_c, 10, 11, 32
11, 183380, Control_c, 10, 11, 41
11, 183480, Control_c, 10, 11, 49
11, 183580, Control_c, 10, 11, 57
11, 183680, Control_c, 10, 11, 65
11, 183780, Control_c, 10, 11, 74
11, 183880, Control_c, 10, 11, 82
11, 183980, Control_c, 10, 11, 90
11, 184080, Control_c, 10, 11, 98
11, 184180, Control_c, 10, 11, 107
11, 184280, Control_c, 10, 11, 115
11, 184336, Control_c, 10, 11, 127
11, 184336, Control_c, 10, 11, 127
11, 184386, Control_c, 10, 11, 112
11, 184436, Control_c, 10, 11, 98
11, 184486, Control_c, 10, 11, 84
11, 184536, Control_c, 10, 11, 70
11, 184586, Control_c, 10, 11, 56
11, 184636, Control_c, 10, 11, 41
11, 184686, Control_c, 10, 11, 27
11, 184736, Control_c, 10, 11, 0
11, 184795, Note_on_c, 10, 41, 0
11, 184795, Note_on_c, 10, 36, 0
11, 184795, Note_on_c, 10, 29, 0
11, 190560, Control_c, 10, 11, 0
11, 190560, Note_on_c, 10, 29, 119
11, 190560, Note_on_c, 10, 36, 119
11, 190560, Note_on_c, 10, 41, 119
11, 190660, Control_c, 10, 11, 8
11, 190760, Control_c, 10, 11, 16
11, 190860, Control_c, 10, 11, 24
11, 190960, Control_c, 10, 11, 32
11, 191060, Control_c, 10, 11, 41
11, 191160, Control_c, 10, 11, 49
11, 191260, Control_c, 10, 11, 57
11, 191360, Control_c, 10, 11, 65
11, 191460, Control_c, 10, 11, 74
11, 191560, Control_c, 10, 11, 82
11, 191660, Control_c, 10, 11, 90
11, 191760, Control_c, 10, 11, 98
11, 191860, Control_c, 10, 11, 107
11, 191960, Control_c, 10, 11, 115
11, 192016, Control_c, 10, 11, 127
11, 192016, Control_c, 10, 11, 127
11, 192066, Control_c, 10, 11, 112
11, 192116, Control_c, 10, 11, 98
11, 192166, Control_c, 10, 11, 84
11, 192216, Control_c, 10, 11, 70
11, 192266, Control_c, 10, 11, 56
11, 192316, Control_c, 10, 11, 41
11, 192366, Control_c, 10, 11, 27
11, 192416, Control_c, 10, 11, 0
11, 192475, Note_on_c, 10, 41, 0
11, 192475, Note_on_c, 10, 36, 0
11, 192475, Note_on_c, 10, 29, 0
11, 198240, Control_c, 10, 11, 0
11, 198240, Note_on_c, 10, 29, 119
11, 198240, Note_on_c, 10, 36, 119
11, 198240, Note_on_c, 10, 41, 119
11, 198340, Control_c, 10, 11, 8
11, 198440, Control_c, 10, 11, 16
11, 198540, Control_c, 10, 11, 24
11, 198640, Control_c, 10, 11, 32
11, 198740, Control_c, 10, 11, 41
11, 198840, Control_c, 10, 11, 49
11, 198940, Control_c, 10, 11, 57
11, 199040, Control_c, 10, 11, 65
11, 199140, Control_c, 10, 11, 74
11, 199240, Control_c, 10, 11, 82
11, 199340, Control_c, 10, 11, 90
11, 199440, Control_c, 10, 11, 98
11, 199540, Control_c, 10, 11, 107
11, 199640, Control_c, 10, 11, 115
11, 199696, Control_c, 10, 11, 127
11, 199696, Control_c, 10, 11, 127
11, 199746, Control_c, 10, 11, 112
11, 199796, Control_c, 10, 11, 98
11, 199846, Control_c, 10, 11, 84
11, 199896, Control_c, 10, 11, 70
11, 199946, Control_c, 10, 11, 56
11, 199996, Control_c, 10, 11, 41
11, 200046, Control_c, 10, 11, 27
11, 200096, Control_c, 10, 11, 0
11, 200155, Note_on_c, 10, 41, 0
11, 200155, Note_on_c, 10, 36, 0
11, 200155, Note_on_c, 10, 29, 0
11, 205920, Control_c, 10, 11, 0
11, 205920, Note_on_c, 10, 29, 119
11, 205920, Note_on_c, 10, 36, 119
11, 205920, Note_on_c, 10, 41, 119
11, 206020, Control_c, 10, 11, 8
11, 206120, Control_c, 10, 11, 16
11, 206220, Control_c, 10, 11, 24
11, 206320, Control_c, 10, 11, 32
11, 206420, Control_c, 10, 11, 41
11, 206520, Control_c, 10, 11, 49
11, 206620, Control_c, 10, 11, 57
11, 206720, Control_c, 10, 11, 65
11, 206820, Control_c, 10, 11, 74
11, 206920, Control_c, 10, 11, 82
11, 207020, Control_c, 10, 11, 90
11, 207120, Control_c, 10, 11, 98
11, 207220, Control_c, 10, 11, 107
11, 207320, Control_c, 10, 11, 115
11, 207376, Control_c, 10, 11, 127
11, 207376, Control_c, 10, 11, 127
11, 207426, Control_c, 10, 11, 112
11, 207476, Control_c, 10, 11, 98
11, 207526, Control_c, 10, 11, 84
11, 207576, Control_c, 10, 11, 70
11, 207626, Control_c, 10, 11, 56
11, 207676, Control_c, 10, 11, 41
11, 207726, Control_c, 10, 11, 27
11, 207776, Control_c, 10, 11, 0
11, 207835, Note_on_c, 10, 41, 0
11, 207835, Note_on_c, 10, 36, 0
11, 207835, Note_on_c, 10, 29, 0
11, 213600, Control_c, 10, 11, 0
11, 213600, Note_on_c, 10, 29, 119
11, 213600, Note_on_c, 10, 36, 119
11, 213600, Note_on_c, 10, 41, 119
11, 213700, Control_c, 10, 11, 8
11, 213800, Control_c, 10, 11, 16
11, 213900, Control_c, 10, 11, 24
11, 214000, Control_c, 10, 11, 32
11, 214100, Control_c, 10, 11, 41
11, 214200, Control_c, 10, 11, 49
11, 214300, Control_c, 10, 11, 57
11, 214400, Control_c, 10, 11, 65
11, 214500, Control_c, 10, 11, 74
11, 214600, Control_c, 10, 11, 82
11, 214700, Control_c, 10, 11, 90
11, 214800, Control_c, 10, 11, 98
11, 214900, Control_c, 10, 11, 107
11, 215000, Control_c, 10, 11, 115
11, 215056, Control_c, 10, 11, 127
11, 215056, Control_c, 10, 11, 127
11, 215106, Control_c, 10, 11, 112
11, 215156, Control_c, 10, 11, 98
11, 215206, Control_c, 10, 11, 84
11, 215256, Control_c, 10, 11, 70
11, 215306, Control_c, 10, 11, 56
11, 215356, Control_c, 10, 11, 41
11, 215406, Control_c, 10, 11, 27
11, 215456, Control_c, 10, 11, 0
11, 215515, Note_on_c, 10, 41, 0
11, 215515, Note_on_c, 10, 36, 0
11, 215515, Note_on_c, 10, 29, 0
11, 215515, End_track
12, 0, Start_track
12, 537, Program_c, 11, 30
12, 538, Control_c, 11, 7, 99
12, 538, Control_c, 11, 10, 64
12, 13920, Note_on_c, 11, 41, 119
12, 13920, Note_on_c, 11, 48, 119
12, 13920, Note_on_c, 11, 53, 119
12, 13920, Control_c, 11, 11, 0
12, 14020, Control_c, 11, 11, 8
12, 14120, Control_c, 11, 11, 16
12, 14220, Control_c, 11, 11, 24
12, 14320, Control_c, 11, 11, 32
12, 14420, Control_c, 11, 11, 41
12, 14520, Control_c, 11, 11, 49
12, 14620, Control_c, 11, 11, 57
12, 14720, Control_c, 11, 11, 65
12, 14820, Control_c, 11, 11, 74
12, 14920, Control_c, 11, 11, 82
12, 15020, Control_c, 11, 11, 90
12, 15120, Control_c, 11, 11, 98
12, 15220, Control_c, 11, 11, 107
12, 15320, Control_c, 11, 11, 115
12, 15376, Control_c, 11, 11, 127
12, 15376, Control_c, 11, 11, 127
12, 15426, Control_c, 11, 11, 112
12, 15476, Control_c, 11, 11, 98
12, 15526, Control_c, 11, 11, 84
12, 15576, Control_c, 11, 11, 70
12, 15626, Control_c, 11, 11, 56
12, 15676, Control_c, 11, 11, 41
12, 15726, Control_c, 11, 11, 27
12, 15776, Control_c, 11, 11, 0
12, 15835, Note_on_c, 11, 53, 0
12, 15835, Note_on_c, 11, 48, 0
12, 15835, Note_on_c, 11, 41, 0
12, 21600, Control_c, 11, 11, 0
12, 21600, Note_on_c, 11, 53, 119
12, 21600, Note_on_c, 11, 48, 119
12, 21600, Note_on_c, 11, 41, 119
12, 21700, Control_c, 11, 11, 8
12, 21800, Control_c, 11, 11, 16
12, 21900, Control_c, 11, 11, 24
12, 22000, Control_c, 11, 11, 32
12, 22100, Control_c, 11, 11, 41
12, 22200, Control_c, 11, 11, 49
12, 22300, Control_c, 11, 11, 57
12, 22400, Control_c, 11, 11, 65
12, 22500, Control_c, 11, 11, 74
12, 22600, Control_c, 11, 11, 82
12, 22700, Control_c, 11, 11, 90
12, 22800, Control_c, 11, 11, 98
12, 22900, Control_c, 11, 11, 107
12, 23000, Control_c, 11, 11, 115
12, 23056, Control_c, 11, 11, 127
12, 23056, Control_c, 11, 11, 127
12, 23106, Control_c, 11, 11, 112
12, 23156, Control_c, 11, 11, 98
12, 23206, Control_c, 11, 11, 84
12, 23256, Control_c, 11, 11, 70
12, 23306, Control_c, 11, 11, 56
12, 23356, Control_c, 11, 11, 41
12, 23406, Control_c, 11, 11, 27
12, 23456, Control_c, 11, 11, 0
12, 23515, Note_on_c, 11, 41, 0
12, 23515, Note_on_c, 11, 48, 0
12, 23515, Note_on_c, 11, 53, 0
12, 29280, Control_c, 11, 11, 0
12, 29280, Note_on_c, 11, 41, 119
12, 29280, Note_on_c, 11, 48, 119
12, 29280, Note_on_c, 11, 53, 119
12, 29380, Control_c, 11, 11, 8
12, 29480, Control_c, 11, 11, 16
12, 29580, Control_c, 11, 11, 24
12, 29680, Control_c, 11, 11, 32
12, 29780, Control_c, 11, 11, 41
12, 29880, Control_c, 11, 11, 49
12, 29980, Control_c, 11, 11, 57
12, 30080, Control_c, 11, 11, 65
12, 30180, Control_c, 11, 11, 74
12, 30280, Control_c, 11, 11, 82
12, 30380, Control_c, 11, 11, 90
12, 30480, Control_c, 11, 11, 98
12, 30580, Control_c, 11, 11, 107
12, 30680, Control_c, 11, 11, 115
12, 30736, Control_c, 11, 11, 127
12, 30736, Control_c, 11, 11, 127
12, 30786, Control_c, 11, 11, 112
12, 30836, Control_c, 11, 11, 98
12, 30886, Control_c, 11, 11, 84
12, 30936, Control_c, 11, 11, 70
12, 30986, Control_c, 11, 11, 56
12, 31036, Control_c, 11, 11, 41
12, 31086, Control_c, 11, 11, 27
12, 31136, Control_c, 11, 11, 0
12, 31195, Note_on_c, 11, 53, 0
12, 31195, Note_on_c, 11, 48, 0
12, 31195, Note_on_c, 11, 41, 0
12, 36960, Control_c, 11, 11, 0
12, 36960, Note_on_c, 11, 41, 119
12, 36960, Note_on_c, 11, 48, 119
12, 36960, Note_on_c, 11, 53, 119
12, 37060, Control_c, 11, 11, 8
12, 37160, Control_c, 11, 11, 16
12, 37260, Control_c, 11, 11, 24
12, 37360, Control_c, 11, 11, 32
12, 37460, Control_c, 11, 11, 41
12, 37560, Control_c, 11, 11, 49
12, 37660, Control_c, 11, 11, 57
12, 37760, Control_c, 11, 11, 65
12, 37860, Control_c, 11, 11, 74
12, 37960, Control_c, 11, 11, 82
12, 38060, Control_c, 11, 11, 90
12, 38160, Control_c, 11, 11, 98
12, 38260, Control_c, 11, 11, 107
12, 38360, Control_c, 11, 11, 115
12, 38416, Control_c, 11, 11, 127
12, 38416, Control_c, 11, 11, 127
12, 38466, Control_c, 11, 11, 112
12, 38516, Control_c, 11, 11, 98
12, 38566, Control_c, 11, 11, 84
12, 38616, Control_c, 11, 11, 70
12, 38666, Control_c, 11, 11, 56
12, 38716, Control_c, 11, 11, 41
12, 38766, Control_c, 11, 11, 27
12, 38816, Control_c, 11, 11, 0
12, 38875, Note_on_c, 11, 53, 0
12, 38875, Note_on_c, 11, 48, 0
12, 38875, Note_on_c, 11, 41, 0
12, 44640, Control_c, 11, 11, 0
12, 44640, Note_on_c, 11, 41, 119
12, 44640, Note_on_c, 11, 48, 119
12, 44640, Note_on_c, 11, 53, 119
12, 44740, Control_c, 11, 11, 8
12, 44840, Control_c, 11, 11, 16
12, 44940, Control_c, 11, 11, 24
12, 45040, Control_c, 11, 11, 32
12, 45140, Control_c, 11, 11, 41
12, 45240, Control_c, 11, 11, 49
12, 45340, Control_c, 11, 11, 57
12, 45440, Control_c, 11, 11, 65
12, 45540, Control_c, 11, 11, 74
12, 45640, Control_c, 11, 11, 82
12, 45740, Control_c, 11, 11, 90
12, 45840, Control_c, 11, 11, 98
12, 45940, Control_c, 11, 11, 107
12, 46040, Control_c, 11, 11, 115
12, 46096, Control_c, 11, 11, 127
12, 46096, Control_c, 11, 11, 127
12, 46146, Control_c, 11, 11, 112
12, 46196, Control_c, 11, 11, 98
12, 46246, Control_c, 11, 11, 84
12, 46296, Control_c, 11, 11, 70
12, 46346, Control_c, 11, 11, 56
12, 46396, Control_c, 11, 11, 41
12, 46446, Control_c, 11, 11, 27
12, 46496, Control_c, 11, 11, 0
12, 46555, Note_on_c, 11, 53, 0
12, 46555, Note_on_c, 11, 48, 0
12, 46555, Note_on_c, 11, 41, 0
12, 52320, Control_c, 11, 11, 0
12, 52320, Note_on_c, 11, 41, 119
12, 52320, Note_on_c, 11, 48, 119
12, 52320, Note_on_c, 11, 53, 119
12, 52420, Control_c, 11, 11, 8
12, 52520, Control_c, 11, 11, 16
12, 52620, Control_c, 11, 11, 24
12, 52720, Control_c, 11, 11, 32
12, 52820, Control_c, 11, 11, 41
12, 52920, Control_c, 11, 11, 49
12, 53020, Control_c, 11, 11, 57
12, 53120, Control_c, 11, 11, 65
12, 53220, Control_c, 11, 11, 74
12, 53320, Control_c, 11, 11, 82
12, 53420, Control_c, 11, 11, 90
12, 53520, Control_c, 11, 11, 98
12, 53620, Control_c, 11, 11, 107
12, 53720, Control_c, 11, 11, 115
12, 53776, Control_c, 11, 11, 127
12, 53776, Control_c, 11, 11, 127
12, 53826, Control_c, 11, 11, 112
12, 53876, Control_c, 11, 11, 98
12, 53926, Control_c, 11, 11, 84
12, 53976, Control_c, 11, 11, 70
12, 54026, Control_c, 11, 11, 56
12, 54076, Control_c, 11, 11, 41
12, 54126, Control_c, 11, 11, 27
12, 54176, Control_c, 11, 11, 0
12, 54235, Note_on_c, 11, 53, 0
12, 54235, Note_on_c, 11, 48, 0
12, 54235, Note_on_c, 11, 41, 0
12, 60000, Control_c, 11, 11, 0
12, 60000, Note_on_c, 11, 41, 119
12, 60000, Note_on_c, 11, 48, 119
12, 60000, Note_on_c, 11, 53, 119
12, 60100, Control_c, 11, 11, 8
12, 60200, Control_c, 11, 11, 16
12, 60300, Control_c, 11, 11, 24
12, 60400, Control_c, 11, 11, 32
12, 60500, Control_c, 11, 11, 41
12, 60600, Control_c, 11, 11, 49
12, 60700, Control_c, 11, 11, 57
12, 60800, Control_c, 11, 11, 65
12, 60900, Control_c, 11, 11, 74
12, 61000, Control_c, 11, 11, 82
12, 61100, Control_c, 11, 11, 90
12, 61200, Control_c, 11, 11, 98
12, 61300, Control_c, 11, 11, 107
12, 61400, Control_c, 11, 11, 115
12, 61456, Control_c, 11, 11, 127
12, 61456, Control_c, 11, 11, 127
12, 61506, Control_c, 11, 11, 112
12, 61556, Control_c, 11, 11, 98
12, 61606, Control_c, 11, 11, 84
12, 61656, Control_c, 11, 11, 70
12, 61706, Control_c, 11, 11, 56
12, 61756, Control_c, 11, 11, 41
12, 61806, Control_c, 11, 11, 27
12, 61856, Control_c, 11, 11, 0
12, 61915, Note_on_c, 11, 53, 0
12, 61915, Note_on_c, 11, 48, 0
12, 61915, Note_on_c, 11, 41, 0
12, 67680, Control_c, 11, 11, 0
12, 67680, Note_on_c, 11, 41, 119
12, 67680, Note_on_c, 11, 48, 119
12, 67680, Note_on_c, 11, 53, 119
12, 67780, Control_c, 11, 11, 8
12, 67880, Control_c, 11, 11, 16
12, 67980, Control_c, 11, 11, 24
12, 68080, Control_c, 11, 11, 32
12, 68180, Control_c, 11, 11, 41
12, 68280, Control_c, 11, 11, 49
12, 68380, Control_c, 11, 11, 57
12, 68480, Control_c, 11, 11, 65
12, 68580, Control_c, 11, 11, 74
12, 68680, Control_c, 11, 11, 82
12, 68780, Control_c, 11, 11, 90
12, 68880, Control_c, 11, 11, 98
12, 68980, Control_c, 11, 11, 107
12, 69080, Control_c, 11, 11, 115
12, 69136, Control_c, 11, 11, 127
12, 69136, Control_c, 11, 11, 127
12, 69186, Control_c, 11, 11, 112
12, 69236, Control_c, 11, 11, 98
12, 69286, Control_c, 11, 11, 84
12, 69336, Control_c, 11, 11, 70
12, 69386, Control_c, 11, 11, 56
12, 69436, Control_c, 11, 11, 41
12, 69486, Control_c, 11, 11, 27
12, 69536, Control_c, 11, 11, 0
12, 69595, Note_on_c, 11, 53, 0
12, 69595, Note_on_c, 11, 48, 0
12, 69595, Note_on_c, 11, 41, 0
12, 75360, Control_c, 11, 11, 0
12, 75360, Note_on_c, 11, 41, 119
12, 75360, Note_on_c, 11, 48, 119
12, 75360, Note_on_c, 11, 53, 119
12, 75460, Control_c, 11, 11, 8
12, 75560, Control_c, 11, 11, 16
12, 75660, Control_c, 11, 11, 24
12, 75760, Control_c, 11, 11, 32
12, 75860, Control_c, 11, 11, 41
12, 75960, Control_c, 11, 11, 49
12, 76060, Control_c, 11, 11, 57
12, 76160, Control_c, 11, 11, 65
12, 76260, Control_c, 11, 11, 74
12, 76360, Control_c, 11, 11, 82
12, 76460, Control_c, 11, 11, 90
12, 76560, Control_c, 11, 11, 98
12, 76660, Control_c, 11, 11, 107
12, 76760, Control_c, 11, 11, 115
12, 76816, Control_c, 11, 11, 127
12, 76816, Control_c, 11, 11, 127
12, 76866, Control_c, 11, 11, 112
12, 76916, Control_c, 11, 11, 98
12, 76966, Control_c, 11, 11, 84
12, 77016, Control_c, 11, 11, 70
12, 77066, Control_c, 11, 11, 56
12, 77116, Control_c, 11, 11, 41
12, 77166, Control_c, 11, 11, 27
12, 77216, Control_c, 11, 11, 0
12, 77275, Note_on_c, 11, 53, 0
12, 77275, Note_on_c, 11, 48, 0
12, 77275, Note_on_c, 11, 41, 0
12, 83040, Control_c, 11, 11, 0
12, 83040, Note_on_c, 11, 41, 119
12, 83040, Note_on_c, 11, 48, 119
12, 83040, Note_on_c, 11, 53, 119
12, 83140, Control_c, 11, 11, 8
12, 83240, Control_c, 11, 11, 16
12, 83340, Control_c, 11, 11, 24
12, 83440, Control_c, 11, 11, 32
12, 83540, Control_c, 11, 11, 41
12, 83640, Control_c, 11, 11, 49
12, 83740, Control_c, 11, 11, 57
12, 83840, Control_c, 11, 11, 65
12, 83940, Control_c, 11, 11, 74
12, 84040, Control_c, 11, 11, 82
12, 84140, Control_c, 11, 11, 90
12, 84240, Control_c, 11, 11, 98
12, 84340, Control_c, 11, 11, 107
12, 84440, Control_c, 11, 11, 115
12, 84496, Control_c, 11, 11, 127
12, 84496, Control_c, 11, 11, 127
12, 84546, Control_c, 11, 11, 112
12, 84596, Control_c, 11, 11, 98
12, 84646, Control_c, 11, 11, 84
12, 84696, Control_c, 11, 11, 70
12, 84746, Control_c, 11, 11, 56
12, 84796, Control_c, 11, 11, 41
12, 84846, Control_c, 11, 11, 27
12, 84896, Control_c, 11, 11, 0
12, 84955, Note_on_c, 11, 53, 0
12, 84955, Note_on_c, 11, 48, 0
12, 84955, Note_on_c, 11, 41, 0
12, 90720, Control_c, 11, 11, 0
12, 90720, Note_on_c, 11, 41, 119
12, 90720, Note_on_c, 11, 48, 119
12, 90720, Note_on_c, 11, 53, 119
12, 90820, Control_c, 11, 11, 8
12, 90920, Control_c, 11, 11, 16
12, 91020, Control_c, 11, 11, 24
12, 91120, Control_c, 11, 11, 32
12, 91220, Control_c, 11, 11, 41
12, 91320, Control_c, 11, 11, 49
12, 91420, Control_c, 11, 11, 57
12, 91520, Control_c, 11, 11, 65
12, 91620, Control_c, 11, 11, 74
12, 91720, Control_c, 11, 11, 82
12, 91820, Control_c, 11, 11, 90
12, 91920, Control_c, 11, 11, 98
12, 92020, Control_c, 11, 11, 107
12, 92120, Control_c, 11, 11, 115
12, 92176, Control_c, 11, 11, 127
12, 92176, Control_c, 11, 11, 127
12, 92226, Control_c, 11, 11, 112
12, 92276, Control_c, 11, 11, 98
12, 92326, Control_c, 11, 11, 84
12, 92376, Control_c, 11, 11, 70
12, 92426, Control_c, 11, 11, 56
12, 92476, Control_c, 11, 11, 41
12, 92526, Control_c, 11, 11, 27
12, 92576, Control_c, 11, 11, 0
12, 92635, Note_on_c, 11, 53, 0
12, 92635, Note_on_c, 11, 48, 0
12, 92635, Note_on_c, 11, 41, 0
12, 98400, Control_c, 11, 11, 0
12, 98400, Note_on_c, 11, 41, 119
12, 98400, Note_on_c, 11, 48, 119
12, 98400, Note_on_c, 11, 53, 119
12, 98500, Control_c, 11, 11, 8
12, 98600, Control_c, 11, 11, 16
12, 98700, Control_c, 11, 11, 24
12, 98800, Control_c, 11, 11, 32
12, 98900, Control_c, 11, 11, 41
12, 99000, Control_c, 11, 11, 49
12, 99100, Control_c, 11, 11, 57
12, 99200, Control_c, 11, 11, 65
12, 99300, Control_c, 11, 11, 74
12, 99400, Control_c, 11, 11, 82
12, 99500, Control_c, 11, 11, 90
12, 99600, Control_c, 11, 11, 98
12, 99700, Control_c, 11, 11, 107
12, 99800, Control_c, 11, 11, 115
12, 99856, Control_c, 11, 11, 127
12, 99856, Control_c, 11, 11, 127
12, 99906, Control_c, 11, 11, 112
12, 99956, Control_c, 11, 11, 98
12, 100006, Control_c, 11, 11, 84
12, 100056, Control_c, 11, 11, 70
12, 100106, Control_c, 11, 11, 56
12, 100156, Control_c, 11, 11, 41
12, 100206, Control_c, 11, 11, 27
12, 100256, Control_c, 11, 11, 0
12, 100315, Note_on_c, 11, 53, 0
12, 100315, Note_on_c, 11, 48, 0
12, 100315, Note_on_c, 11, 41, 0
12, 106080, Control_c, 11, 11, 0
12, 106080, Note_on_c, 11, 41, 119
12, 106080, Note_on_c, 11, 48, 119
12, 106080, Note_on_c, 11, 53, 119
12, 106180, Control_c, 11, 11, 8
12, 106280, Control_c, 11, 11, 16
12, 106380, Control_c, 11, 11, 24
12, 106480, Control_c, 11, 11, 32
12, 106580, Control_c, 11, 11, 41
12, 106680, Control_c, 11, 11, 49
12, 106780, Control_c, 11, 11, 57
12, 106880, Control_c, 11, 11, 65
12, 106980, Control_c, 11, 11, 74
12, 107080, Control_c, 11, 11, 82
12, 107180, Control_c, 11, 11, 90
12, 107280, Control_c, 11, 11, 98
12, 107380, Control_c, 11, 11, 107
12, 107480, Control_c, 11, 11, 115
12, 107536, Control_c, 11, 11, 127
12, 107536, Control_c, 11, 11, 127
12, 107586, Control_c, 11, 11, 112
12, 107636, Control_c, 11, 11, 98
12, 107686, Control_c, 11, 11, 84
12, 107736, Control_c, 11, 11, 70
12, 107786, Control_c, 11, 11, 56
12, 107836, Control_c, 11, 11, 41
12, 107886, Control_c, 11, 11, 27
12, 107936, Control_c, 11, 11, 0
12, 107995, Note_on_c, 11, 53, 0
12, 107995, Note_on_c, 11, 48, 0
12, 107995, Note_on_c, 11, 41, 0
12, 113760, Control_c, 11, 11, 0
12, 113760, Note_on_c, 11, 41, 119
12, 113760, Note_on_c, 11, 48, 119
12, 113760, Note_on_c, 11, 53, 119
12, 113860, Control_c, 11, 11, 8
12, 113960, Control_c, 11, 11, 16
12, 114060, Control_c, 11, 11, 24
12, 114160, Control_c, 11, 11, 32
12, 114260, Control_c, 11, 11, 41
12, 114360, Control_c, 11, 11, 49
12, 114460, Control_c, 11, 11, 57
12, 114560, Control_c, 11, 11, 65
12, 114660, Control_c, 11, 11, 74
12, 114760, Control_c, 11, 11, 82
12, 114860, Control_c, 11, 11, 90
12, 114960, Control_c, 11, 11, 98
12, 115060, Control_c, 11, 11, 107
12, 115160, Control_c, 11, 11, 115
12, 115216, Control_c, 11, 11, 127
12, 115216, Control_c, 11, 11, 127
12, 115266, Control_c, 11, 11, 112
12, 115316, Control_c, 11, 11, 98
12, 115366, Control_c, 11, 11, 84
12, 115416, Control_c, 11, 11, 70
12, 115466, Control_c, 11, 11, 56
12, 115516, Control_c, 11, 11, 41
12, 115566, Control_c, 11, 11, 27
12, 115616, Control_c, 11, 11, 0
12, 115675, Note_on_c, 11, 53, 0
12, 115675, Note_on_c, 11, 48, 0
12, 115675, Note_on_c, 11, 41, 0
12, 121440, Control_c, 11, 11, 0
12, 121440, Note_on_c, 11, 41, 119
12, 121440, Note_on_c, 11, 48, 119
12, 121440, Note_on_c, 11, 53, 119
12, 121540, Control_c, 11, 11, 8
12, 121640, Control_c, 11, 11, 16
12, 121740, Control_c, 11, 11, 24
12, 121840, Control_c, 11, 11, 32
12, 121940, Control_c, 11, 11, 41
12, 122040, Control_c, 11, 11, 49
12, 122140, Control_c, 11, 11, 57
12, 122240, Control_c, 11, 11, 65
12, 122340, Control_c, 11, 11, 74
12, 122440, Control_c, 11, 11, 82
12, 122540, Control_c, 11, 11, 90
12, 122640, Control_c, 11, 11, 98
12, 122740, Control_c, 11, 11, 107
12, 122840, Control_c, 11, 11, 115
12, 122896, Control_c, 11, 11, 127
12, 122896, Control_c, 11, 11, 127
12, 122946, Control_c, 11, 11, 112
12, 122996, Control_c, 11, 11, 98
12, 123046, Control_c, 11, 11, 84
12, 123096, Control_c, 11, 11, 70
12, 123146, Control_c, 11, 11, 56
12, 123196, Control_c, 11, 11, 41
12, 123246, Control_c, 11, 11, 27
12, 123296, Control_c, 11, 11, 0
12, 123355, Note_on_c, 11, 53, 0
12, 123355, Note_on_c, 11, 48, 0
12, 123355, Note_on_c, 11, 41, 0
12, 129120, Control_c, 11, 11, 0
12, 129120, Note_on_c, 11, 41, 119
12, 129120, Note_on_c, 11, 48, 119
12, 129120, Note_on_c, 11, 53, 119
12, 129220, Control_c, 11, 11, 8
12, 129320, Control_c, 11, 11, 16
12, 129420, Control_c, 11, 11, 24
12, 129520, Control_c, 11, 11, 32
12, 129620, Control_c, 11, 11, 41
12, 129720, Control_c, 11, 11, 49
12, 129820, Control_c, 11, 11, 57
12, 129920, Control_c, 11, 11, 65
12, 130020, Control_c, 11, 11, 74
12, 130120, Control_c, 11, 11, 82
12, 130220, Control_c, 11, 11, 90
12, 130320, Control_c, 11, 11, 98
12, 130420, Control_c, 11, 11, 107
12, 130520, Control_c, 11, 11, 115
12, 130576, Control_c, 11, 11, 127
12, 130576, Control_c, 11, 11, 127
12, 130626, Control_c, 11, 11, 112
12, 130676, Control_c, 11, 11, 98
12, 130726, Control_c, 11, 11, 84
12, 130776, Control_c, 11, 11, 70
12, 130826, Control_c, 11, 11, 56
12, 130876, Control_c, 11, 11, 41
12, 130926, Control_c, 11, 11, 27
12, 130976, Control_c, 11, 11, 0
12, 131035, Note_on_c, 11, 53, 0
12, 131035, Note_on_c, 11, 48, 0
12, 131035, Note_on_c, 11, 41, 0
12, 136800, Control_c, 11, 11, 0
12, 136800, Note_on_c, 11, 41, 119
12, 136800, Note_on_c, 11, 48, 119
12, 136800, Note_on_c, 11, 53, 119
12, 136900, Control_c, 11, 11, 8
12, 137000, Control_c, 11, 11, 16
12, 137100, Control_c, 11, 11, 24
12, 137200, Control_c, 11, 11, 32
12, 137300, Control_c, 11, 11, 41
12, 137400, Control_c, 11, 11, 49
12, 137500, Control_c, 11, 11, 57
12, 137600, Control_c, 11, 11, 65
12, 137700, Control_c, 11, 11, 74
12, 137800, Control_c, 11, 11, 82
12, 137900, Control_c, 11, 11, 90
12, 138000, Control_c, 11, 11, 98
12, 138100, Control_c, 11, 11, 107
12, 138200, Control_c, 11, 11, 115
12, 138256, Control_c, 11, 11, 127
12, 138256, Control_c, 11, 11, 127
12, 138306, Control_c, 11, 11, 112
12, 138356, Control_c, 11, 11, 98
12, 138406, Control_c, 11, 11, 84
12, 138456, Control_c, 11, 11, 70
12, 138506, Control_c, 11, 11, 56
12, 138556, Control_c, 11, 11, 41
12, 138606, Control_c, 11, 11, 27
12, 138656, Control_c, 11, 11, 0
12, 138715, Note_on_c, 11, 53, 0
12, 138715, Note_on_c, 11, 48, 0
12, 138715, Note_on_c, 11, 41, 0
12, 144480, Control_c, 11, 11, 0
12, 144480, Note_on_c, 11, 41, 119
12, 144480, Note_on_c, 11, 48, 119
12, 144480, Note_on_c, 11, 53, 119
12, 144580, Control_c, 11, 11, 8
12, 144680, Control_c, 11, 11, 16
12, 144780, Control_c, 11, 11, 24
12, 144880, Control_c, 11, 11, 32
12, 144980, Control_c, 11, 11, 41
12, 145080, Control_c, 11, 11, 49
12, 145180, Control_c, 11, 11, 57
12, 145280, Control_c, 11, 11, 65
12, 145380, Control_c, 11, 11, 74
12, 145480, Control_c, 11, 11, 82
12, 145580, Control_c, 11, 11, 90
12, 145680, Control_c, 11, 11, 98
12, 145780, Control_c, 11, 11, 107
12, 145880, Control_c, 11, 11, 115
12, 145936, Control_c, 11, 11, 127
12, 145936, Control_c, 11, 11, 127
12, 145986, Control_c, 11, 11, 112
12, 146036, Control_c, 11, 11, 98
12, 146086, Control_c, 11, 11, 84
12, 146136, Control_c, 11, 11, 70
12, 146186, Control_c, 11, 11, 56
12, 146236, Control_c, 11, 11, 41
12, 146286, Control_c, 11, 11, 27
12, 146336, Control_c, 11, 11, 0
12, 146395, Note_on_c, 11, 53, 0
12, 146395, Note_on_c, 11, 48, 0
12, 146395, Note_on_c, 11, 41, 0
12, 152160, Control_c, 11, 11, 0
12, 152160, Note_on_c, 11, 41, 119
12, 152160, Note_on_c, 11, 48, 119
12, 152160, Note_on_c, 11, 53, 119
12, 152260, Control_c, 11, 11, 8
12, 152360, Control_c, 11, 11, 16
12, 152460, Control_c, 11, 11, 24
12, 152560, Control_c, 11, 11, 32
12, 152660, Control_c, 11, 11, 41
12, 152760, Control_c, 11, 11, 49
12, 152860, Control_c, 11, 11, 57
12, 152960, Control_c, 11, 11, 65
12, 153060, Control_c, 11, 11, 74
12, 153160, Control_c, 11, 11, 82
12, 153260, Control_c, 11, 11, 90
12, 153360, Control_c, 11, 11, 98
12, 153460, Control_c, 11, 11, 107
12, 153560, Control_c, 11, 11, 115
12, 153616, Control_c, 11, 11, 127
12, 153616, Control_c, 11, 11, 127
12, 153666, Control_c, 11, 11, 112
12, 153716, Control_c, 11, 11, 98
12, 153766, Control_c, 11, 11, 84
12, 153816, Control_c, 11, 11, 70
12, 153866, Control_c, 11, 11, 56
12, 153916, Control_c, 11, 11, 41
12, 153966, Control_c, 11, 11, 27
12, 154016, Control_c, 11, 11, 0
12, 154075, Note_on_c, 11, 53, 0
12, 154075, Note_on_c, 11, 48, 0
12, 154075, Note_on_c, 11, 41, 0
12, 159840, Control_c, 11, 11, 0
12, 159840, Note_on_c, 11, 41, 119
12, 159840, Note_on_c, 11, 48, 119
12, 159840, Note_on_c, 11, 53, 119
12, 159940, Control_c, 11, 11, 8
12, 160040, Control_c, 11, 11, 16
12, 160140, Control_c, 11, 11, 24
12, 160240, Control_c, 11, 11, 32
12, 160340, Control_c, 11, 11, 41
12, 160440, Control_c, 11, 11, 49
12, 160540, Control_c, 11, 11, 57
12, 160640, Control_c, 11, 11, 65
12, 160740, Control_c, 11, 11, 74
12, 160840, Control_c, 11, 11, 82
12, 160940, Control_c, 11, 11, 90
12, 161040, Control_c, 11, 11, 98
12, 161140, Control_c, 11, 11, 107
12, 161240, Control_c, 11, 11, 115
12, 161296, Control_c, 11, 11, 127
12, 161296, Control_c, 11, 11, 127
12, 161346, Control_c, 11, 11, 112
12, 161396, Control_c, 11, 11, 98
12, 161446, Control_c, 11, 11, 84
12, 161496, Control_c, 11, 11, 70
12, 161546, Control_c, 11, 11, 56
12, 161596, Control_c, 11, 11, 41
12, 161646, Control_c, 11, 11, 27
12, 161696, Control_c, 11, 11, 0
12, 161755, Note_on_c, 11, 53, 0
12, 161755, Note_on_c, 11, 48, 0
12, 161755, Note_on_c, 11, 41, 0
12, 167520, Control_c, 11, 11, 0
12, 167520, Note_on_c, 11, 41, 119
12, 167520, Note_on_c, 11, 48, 119
12, 167520, Note_on_c, 11, 53, 119
12, 167620, Control_c, 11, 11, 8
12, 167720, Control_c, 11, 11, 16
12, 167820, Control_c, 11, 11, 24
12, 167920, Control_c, 11, 11, 32
12, 168020, Control_c, 11, 11, 41
12, 168120, Control_c, 11, 11, 49
12, 168220, Control_c, 11, 11, 57
12, 168320, Control_c, 11, 11, 65
12, 168420, Control_c, 11, 11, 74
12, 168520, Control_c, 11, 11, 82
12, 168620, Control_c, 11, 11, 90
12, 168720, Control_c, 11, 11, 98
12, 168820, Control_c, 11, 11, 107
12, 168920, Control_c, 11, 11, 115
12, 168976, Control_c, 11, 11, 127
12, 168976, Control_c, 11, 11, 127
12, 169026, Control_c, 11, 11, 112
12, 169076, Control_c, 11, 11, 98
12, 169126, Control_c, 11, 11, 84
12, 169176, Control_c, 11, 11, 70
12, 169226, Control_c, 11, 11, 56
12, 169276, Control_c, 11, 11, 41
12, 169326, Control_c, 11, 11, 27
12, 169376, Control_c, 11, 11, 0
12, 169435, Note_on_c, 11, 53, 0
12, 169435, Note_on_c, 11, 48, 0
12, 169435, Note_on_c, 11, 41, 0
12, 175200, Control_c, 11, 11, 0
12, 175200, Note_on_c, 11, 41, 119
12, 175200, Note_on_c, 11, 48, 119
12, 175200, Note_on_c, 11, 53, 119
12, 175300, Control_c, 11, 11, 8
12, 175400, Control_c, 11, 11, 16
12, 175500, Control_c, 11, 11, 24
12, 175600, Control_c, 11, 11, 32
12, 175700, Control_c, 11, 11, 41
12, 175800, Control_c, 11, 11, 49
12, 175900, Control_c, 11, 11, 57
12, 176000, Control_c, 11, 11, 65
12, 176100, Control_c, 11, 11, 74
12, 176200, Control_c, 11, 11, 82
12, 176300, Control_c, 11, 11, 90
12, 176400, Control_c, 11, 11, 98
12, 176500, Control_c, 11, 11, 107
12, 176600, Control_c, 11, 11, 115
12, 176656, Control_c, 11, 11, 127
12, 176656, Control_c, 11, 11, 127
12, 176706, Control_c, 11, 11, 112
12, 176756, Control_c, 11, 11, 98
12, 176806, Control_c, 11, 11, 84
12, 176856, Control_c, 11, 11, 70
12, 176906, Control_c, 11, 11, 56
12, 176956, Control_c, 11, 11, 41
12, 177006, Control_c, 11, 11, 27
12, 177056, Control_c, 11, 11, 0
12, 177115, Note_on_c, 11, 53, 0
12, 177115, Note_on_c, 11, 48, 0
12, 177115, Note_on_c, 11, 41, 0
12, 182880, Control_c, 11, 11, 0
12, 182880, Note_on_c, 11, 41, 119
12, 182880, Note_on_c, 11, 48, 119
12, 182880, Note_on_c, 11, 53, 119
12, 182980, Control_c, 11, 11, 8
12, 183080, Control_c, 11, 11, 16
12, 183180, Control_c, 11, 11, 24
12, 183280, Control_c, 11, 11, 32
12, 183380, Control_c, 11, 11, 41
12, 183480, Control_c, 11, 11, 49
12, 183580, Control_c, 11, 11, 57
12, 183680, Control_c, 11, 11, 65
12, 183780, Control_c, 11, 11, 74
12, 183880, Control_c, 11, 11, 82
12, 183980, Control_c, 11, 11, 90
12, 184080, Control_c, 11, 11, 98
12, 184180, Control_c, 11, 11, 107
12, 184280, Control_c, 11, 11, 115
12, 184336, Control_c, 11, 11, 127
12, 184336, Control_c, 11, 11, 127
12, 184386, Control_c, 11, 11, 112
12, 184436, Control_c, 11, 11, 98
12, 184486, Control_c, 11, 11, 84
12, 184536, Control_c, 11, 11, 70
12, 184586, Control_c, 11, 11, 56
12, 184636, Control_c, 11, 11, 41
12, 184686, Control_c, 11, 11, 27
12, 184736, Control_c, 11, 11, 0
12, 184795, Note_on_c, 11, 53, 0
12, 184795, Note_on_c, 11, 48, 0
12, 184795, Note_on_c, 11, 41, 0
12, 190560, Control_c, 11, 11, 0
12, 190560, Note_on_c, 11, 41, 119
12, 190560, Note_on_c, 11, 48, 119
12, 190560, Note_on_c, 11, 53, 119
12, 190660, Control_c, 11, 11, 8
12, 190760, Control_c, 11, 11, 16
12, 190860, Control_c, 11, 11, 24
12, 190960, Control_c, 11, 11, 32
12, 191060, Control_c, 11, 11, 41
12, 191160, Control_c, 11, 11, 49
12, 191260, Control_c, 11, 11, 57
12, 191360, Control_c, 11, 11, 65
12, 191460, Control_c, 11, 11, 74
12, 191560, Control_c, 11, 11, 82
12, 191660, Control_c, 11, 11, 90
12, 191760, Control_c, 11, 11, 98
12, 191860, Control_c, 11, 11, 107
12, 191960, Control_c, 11, 11, 115
12, 192016, Control_c, 11, 11, 127
12, 192016, Control_c, 11, 11, 127
12, 192066, Control_c, 11, 11, 112
12, 192116, Control_c, 11, 11, 98
12, 192166, Control_c, 11, 11, 84
12, 192216, Control_c, 11, 11, 70
12, 192266, Control_c, 11, 11, 56
12, 192316, Control_c, 11, 11, 41
12, 192366, Control_c, 11, 11, 27
12, 192416, Control_c, 11, 11, 0
12, 192475, Note_on_c, 11, 53, 0
12, 192475, Note_on_c, 11, 48, 0
12, 192475, Note_on_c, 11, 41, 0
12, 198240, Control_c, 11, 11, 0
12, 198240, Note_on_c, 11, 41, 119
12, 198240, Note_on_c, 11, 48, 119
12, 198240, Note_on_c, 11, 53, 119
12, 198340, Control_c, 11, 11, 8
12, 198440, Control_c, 11, 11, 16
12, 198540, Control_c, 11, 11, 24
12, 198640, Control_c, 11, 11, 32
12, 198740, Control_c, 11, 11, 41
12, 198840, Control_c, 11, 11, 49
12, 198940, Control_c, 11, 11, 57
12, 199040, Control_c, 11, 11, 65
12, 199140, Control_c, 11, 11, 74
12, 199240, Control_c, 11, 11, 82
12, 199340, Control_c, 11, 11, 90
12, 199440, Control_c, 11, 11, 98
12, 199540, Control_c, 11, 11, 107
12, 199640, Control_c, 11, 11, 115
12, 199696, Control_c, 11, 11, 127
12, 199696, Control_c, 11, 11, 127
12, 199746, Control_c, 11, 11, 112
12, 199796, Control_c, 11, 11, 98
12, 199846, Control_c, 11, 11, 84
12, 199896, Control_c, 11, 11, 70
12, 199946, Control_c, 11, 11, 56
12, 199996, Control_c, 11, 11, 41
12, 200046, Control_c, 11, 11, 27
12, 200096, Control_c, 11, 11, 0
12, 200155, Note_on_c, 11, 53, 0
12, 200155, Note_on_c, 11, 48, 0
12, 200155, Note_on_c, 11, 41, 0
12, 205920, Control_c, 11, 11, 0
12, 205920, Note_on_c, 11, 41, 119
12, 205920, Note_on_c, 11, 48, 119
12, 205920, Note_on_c, 11, 53, 119
12, 206020, Control_c, 11, 11, 8
12, 206120, Control_c, 11, 11, 16
12, 206220, Control_c, 11, 11, 24
12, 206320, Control_c, 11, 11, 32
12, 206420, Control_c, 11, 11, 41
12, 206520, Control_c, 11, 11, 49
12, 206620, Control_c, 11, 11, 57
12, 206720, Control_c, 11, 11, 65
12, 206820, Control_c, 11, 11, 74
12, 206920, Control_c, 11, 11, 82
12, 207020, Control_c, 11, 11, 90
12, 207120, Control_c, 11, 11, 98
12, 207220, Control_c, 11, 11, 107
12, 207320, Control_c, 11, 11, 115
12, 207376, Control_c, 11, 11, 127
12, 207376, Control_c, 11, 11, 127
12, 207426, Control_c, 11, 11, 112
12, 207476, Control_c, 11, 11, 98
12, 207526, Control_c, 11, 11, 84
12, 207576, Control_c, 11, 11, 70
12, 207626, Control_c, 11, 11, 56
12, 207676, Control_c, 11, 11, 41
12, 207726, Control_c, 11, 11, 27
12, 207776, Control_c, 11, 11, 0
12, 207835, Note_on_c, 11, 53, 0
12, 207835, Note_on_c, 11, 48, 0
12, 207835, Note_on_c, 11, 41, 0
12, 213600, Control_c, 11, 11, 0
12, 213600, Note_on_c, 11, 41, 119
12, 213600, Note_on_c, 11, 48, 119
12, 213600, Note_on_c, 11, 53, 119
12, 213700, Control_c, 11, 11, 8
12, 213800, Control_c, 11, 11, 16
12, 213900, Control_c, 11, 11, 24
12, 214000, Control_c, 11, 11, 32
12, 214100, Control_c, 11, 11, 41
12, 214200, Control_c, 11, 11, 49
12, 214300, Control_c, 11, 11, 57
12, 214400, Control_c, 11, 11, 65
12, 214500, Control_c, 11, 11, 74
12, 214600, Control_c, 11, 11, 82
12, 214700, Control_c, 11, 11, 90
12, 214800, Control_c, 11, 11, 98
12, 214900, Control_c, 11, 11, 107
12, 215000, Control_c, 11, 11, 115
12, 215056, Control_c, 11, 11, 127
12, 215056, Control_c, 11, 11, 127
12, 215106, Control_c, 11, 11, 112
12, 215156, Control_c, 11, 11, 98
12, 215206, Control_c, 11, 11, 84
12, 215256, Control_c, 11, 11, 70
12, 215306, Control_c, 11, 11, 56
12, 215356, Control_c, 11, 11, 41
12, 215406, Control_c, 11, 11, 27
12, 215456, Control_c, 11, 11, 0
12, 215515, Note_on_c, 11, 53, 0
12, 215515, Note_on_c, 11, 48, 0
12, 215515, Note_on_c, 11, 41, 0
12, 215515, End_track
13, 0, Start_track
13, 542, Program_c, 12, 30
13, 543, Control_c, 12, 7, 79
13, 543, Control_c, 12, 10, 64
13, 15093, Note_on_c, 12, 65, 110
13, 15093, Note_on_c, 12, 53, 110
13, 15120, Note_on_c, 12, 53, 0
13, 15120, Note_on_c, 12, 65, 0
13, 15213, Note_on_c, 12, 65, 110
13, 15213, Note_on_c, 12, 53, 110
13, 15240, Note_on_c, 12, 53, 0
13, 15240, Note_on_c, 12, 65, 0
13, 22320, Note_on_c, 12, 53, 90
13, 22320, Note_on_c, 12, 65, 90
13, 22360, Note_on_c, 12, 65, 0
13, 22360, Note_on_c, 12, 53, 0
13, 22440, Note_on_c, 12, 65, 90
13, 22440, Note_on_c, 12, 53, 90
13, 22480, Note_on_c, 12, 53, 0
13, 22480, Note_on_c, 12, 65, 0
13, 22560, Note_on_c, 12, 65, 90
13, 22560, Note_on_c, 12, 53, 90
13, 22600, Note_on_c, 12, 53, 0
13, 22600, Note_on_c, 12, 65, 0
13, 22680, Note_on_c, 12, 65, 90
13, 22680, Note_on_c, 12, 53, 90
13, 22720, Note_on_c, 12, 53, 0
13, 22720, Note_on_c, 12, 65, 0
13, 22800, Note_on_c, 12, 65, 90
13, 22800, Note_on_c, 12, 53, 90
13, 22840, Note_on_c, 12, 53, 0
13, 22840, Note_on_c, 12, 65, 0
13, 30453, Note_on_c, 12, 65, 110
13, 30453, Note_on_c, 12, 53, 110
13, 30480, Note_on_c, 12, 53, 0
13, 30480, Note_on_c, 12, 65, 0
13, 30573, Note_on_c, 12, 65, 110
13, 30573, Note_on_c, 12, 53, 110
13, 30600, Note_on_c, 12, 53, 0
13, 30600, Note_on_c, 12, 65, 0
13, 45360, Note_on_c, 12, 53, 90
13, 45360, Note_on_c, 12, 65, 90
13, 45400, Note_on_c, 12, 65, 0
13, 45400, Note_on_c, 12, 53, 0
13, 45480, Note_on_c, 12, 65, 90
13, 45480, Note_on_c, 12, 53, 90
13, 45520, Note_on_c, 12, 53, 0
13, 45520, Note_on_c, 12, 65, 0
13, 45600, Note_on_c, 12, 65, 90
13, 45600, Note_on_c, 12, 53, 90
13, 45640, Note_on_c, 12, 53, 0
13, 45640, Note_on_c, 12, 65, 0
13, 45720, Note_on_c, 12, 65, 90
13, 45720, Note_on_c, 12, 53, 90
13, 45760, Note_on_c, 12, 53, 0
13, 45760, Note_on_c, 12, 65, 0
13, 45840, Note_on_c, 12, 65, 90
13, 45840, Note_on_c, 12, 53, 90
13, 45880, Note_on_c, 12, 53, 0
13, 45880, Note_on_c, 12, 65, 0
13, 60720, Note_on_c, 12, 53, 90
13, 60720, Note_on_c, 12, 65, 90
13, 60760, Note_on_c, 12, 65, 0
13, 60760, Note_on_c, 12, 53, 0
13, 60840, Note_on_c, 12, 65, 90
13, 60840, Note_on_c, 12, 53, 90
13, 60880, Note_on_c, 12, 53, 0
13, 60880, Note_on_c, 12, 65, 0
13, 60960, Note_on_c, 12, 65, 90
13, 60960, Note_on_c, 12, 53, 90
13, 61000, Note_on_c, 12, 53, 0
13, 61000, Note_on_c, 12, 65, 0
13, 61080, Note_on_c, 12, 65, 90
13, 61080, Note_on_c, 12, 53, 90
13, 61120, Note_on_c, 12, 53, 0
13, 61120, Note_on_c, 12, 65, 0
13, 61200, Note_on_c, 12, 65, 90
13, 61200, Note_on_c, 12, 53, 90
13, 61240, Note_on_c, 12, 53, 0
13, 61240, Note_on_c, 12, 65, 0
13, 76080, Note_on_c, 12, 53, 90
13, 76080, Note_on_c, 12, 65, 90
13, 76120, Note_on_c, 12, 65, 0
13, 76120, Note_on_c, 12, 53, 0
13, 76200, Note_on_c, 12, 65, 90
13, 76200, Note_on_c, 12, 53, 90
13, 76240, Note_on_c, 12, 53, 0
13, 76240, Note_on_c, 12, 65, 0
13, 76320, Note_on_c, 12, 65, 90
13, 76320, Note_on_c, 12, 53, 90
13, 76360, Note_on_c, 12, 53, 0
13, 76360, Note_on_c, 12, 65, 0
13, 76440, Note_on_c, 12, 65, 90
13, 76440, Note_on_c, 12, 53, 90
13, 76480, Note_on_c, 12, 53, 0
13, 76480, Note_on_c, 12, 65, 0
13, 76560, Note_on_c, 12, 65, 90
13, 76560, Note_on_c, 12, 53, 90
13, 76600, Note_on_c, 12, 53, 0
13, 76600, Note_on_c, 12, 65, 0
13, 83760, Note_on_c, 12, 53, 90
13, 83760, Note_on_c, 12, 65, 90
13, 83800, Note_on_c, 12, 65, 0
13, 83800, Note_on_c, 12, 53, 0
13, 83880, Note_on_c, 12, 65, 90
13, 83880, Note_on_c, 12, 53, 90
13, 83920, Note_on_c, 12, 53, 0
13, 83920, Note_on_c, 12, 65, 0
13, 84000, Note_on_c, 12, 65, 90
13, 84000, Note_on_c, 12, 53, 90
13, 84040, Note_on_c, 12, 53, 0
13, 84040, Note_on_c, 12, 65, 0
13, 84120, Note_on_c, 12, 65, 90
13, 84120, Note_on_c, 12, 53, 90
13, 84160, Note_on_c, 12, 53, 0
13, 84160, Note_on_c, 12, 65, 0
13, 84240, Note_on_c, 12, 65, 90
13, 84240, Note_on_c, 12, 53, 90
13, 84280, Note_on_c, 12, 53, 0
13, 84280, Note_on_c, 12, 65, 0
13, 99573, Note_on_c, 12, 65, 110
13, 99573, Note_on_c, 12, 53, 110
13, 99600, Note_on_c, 12, 53, 0
13, 99600, Note_on_c, 12, 65, 0
13, 99693, Note_on_c, 12, 65, 110
13, 99693, Note_on_c, 12, 53, 110
13, 99720, Note_on_c, 12, 53, 0
13, 99720, Note_on_c, 12, 65, 0
13, 106800, Note_on_c, 12, 53, 90
13, 106800, Note_on_c, 12, 65, 90
13, 106840, Note_on_c, 12, 65, 0
13, 106840, Note_on_c, 12, 53, 0
13, 106920, Note_on_c, 12, 65, 90
13, 106920, Note_on_c, 12, 53, 90
13, 106960, Note_on_c, 12, 53, 0
13, 106960, Note_on_c, 12, 65, 0
13, 107040, Note_on_c, 12, 65, 90
13, 107040, Note_on_c, 12, 53, 90
13, 107080, Note_on_c, 12, 53, 0
13, 107080, Note_on_c, 12, 65, 0
13, 107160, Note_on_c, 12, 65, 90
13, 107160, Note_on_c, 12, 53, 90
13, 107200, Note_on_c, 12, 53, 0
13, 107200, Note_on_c, 12, 65, 0
13, 107280, Note_on_c, 12, 65, 90
13, 107280, Note_on_c, 12, 53, 90
13, 107320, Note_on_c, 12, 53, 0
13, 107320, Note_on_c, 12, 65, 0
13, 122160, Note_on_c, 12, 53, 90
13, 122160, Note_on_c, 12, 65, 90
13, 122200, Note_on_c, 12, 65, 0
13, 122200, Note_on_c, 12, 53, 0
13, 122280, Note_on_c, 12, 65, 90
13, 122280, Note_on_c, 12, 53, 90
13, 122320, Note_on_c, 12, 53, 0
13, 122320, Note_on_c, 12, 65, 0
13, 122400, Note_on_c, 12, 65, 90
13, 122400, Note_on_c, 12, 53, 90
13, 122440, Note_on_c, 12, 53, 0
13, 122440, Note_on_c, 12, 65, 0
13, 122520, Note_on_c, 12, 65, 90
13, 122520, Note_on_c, 12, 53, 90
13, 122560, Note_on_c, 12, 53, 0
13, 122560, Note_on_c, 12, 65, 0
13, 122640, Note_on_c, 12, 65, 90
13, 122640, Note_on_c, 12, 53, 90
13, 122680, Note_on_c, 12, 53, 0
13, 122680, Note_on_c, 12, 65, 0
13, 137520, Note_on_c, 12, 53, 90
13, 137520, Note_on_c, 12, 65, 90
13, 137560, Note_on_c, 12, 65, 0
13, 137560, Note_on_c, 12, 53, 0
13, 137640, Note_on_c, 12, 65, 90
13, 137640, Note_on_c, 12, 53, 90
13, 137680, Note_on_c, 12, 53, 0
13, 137680, Note_on_c, 12, 65, 0
13, 137760, Note_on_c, 12, 65, 90
13, 137760, Note_on_c, 12, 53, 90
13, 137800, Note_on_c, 12, 53, 0
13, 137800, Note_on_c, 12, 65, 0
13, 137880, Note_on_c, 12, 65, 90
13, 137880, Note_on_c, 12, 53, 90
13, 137920, Note_on_c, 12, 53, 0
13, 137920, Note_on_c, 12, 65, 0
13, 138000, Note_on_c, 12, 65, 90
13, 138000, Note_on_c, 12, 53, 90
13, 138040, Note_on_c, 12, 53, 0
13, 138040, Note_on_c, 12, 65, 0
13, 152880, Note_on_c, 12, 53, 90
13, 152880, Note_on_c, 12, 65, 90
13, 152920, Note_on_c, 12, 65, 0
13, 152920, Note_on_c, 12, 53, 0
13, 153000, Note_on_c, 12, 65, 90
13, 153000, Note_on_c, 12, 53, 90
13, 153040, Note_on_c, 12, 53, 0
13, 153040, Note_on_c, 12, 65, 0
13, 153120, Note_on_c, 12, 65, 90
13, 153120, Note_on_c, 12, 53, 90
13, 153160, Note_on_c, 12, 53, 0
13, 153160, Note_on_c, 12, 65, 0
13, 153240, Note_on_c, 12, 65, 90
13, 153240, Note_on_c, 12, 53, 90
13, 153280, Note_on_c, 12, 53, 0
13, 153280, Note_on_c, 12, 65, 0
13, 153360, Note_on_c, 12, 65, 90
13, 153360, Note_on_c, 12, 53, 90
13, 153400, Note_on_c, 12, 53, 0
13, 153400, Note_on_c, 12, 65, 0
13, 168240, Note_on_c, 12, 53, 90
13, 168240, Note_on_c, 12, 65, 90
13, 168280, Note_on_c, 12, 65, 0
13, 168280, Note_on_c, 12, 53, 0
13, 168360, Note_on_c, 12, 65, 90
13, 168360, Note_on_c, 12, 53, 90
13, 168400, Note_on_c, 12, 53, 0
13, 168400, Note_on_c, 12, 65, 0
13, 168480, Note_on_c, 12, 65, 90
13, 168480, Note_on_c, 12, 53, 90
13, 168520, Note_on_c, 12, 53, 0
13, 168520, Note_on_c, 12, 65, 0
13, 168600, Note_on_c, 12, 65, 90
13, 168600, Note_on_c, 12, 53, 90
13, 168640, Note_on_c, 12, 53, 0
13, 168640, Note_on_c, 12, 65, 0
13, 168720, Note_on_c, 12, 65, 90
13, 168720, Note_on_c, 12, 53, 90
13, 168760, Note_on_c, 12, 53, 0
13, 168760, Note_on_c, 12, 65, 0
13, 176373, Note_on_c, 12, 65, 110
13, 176373, Note_on_c, 12, 53, 110
13, 176400, Note_on_c, 12, 53, 0
13, 176400, Note_on_c, 12, 65, 0
13, 176493, Note_on_c, 12, 65, 110
13, 176493, Note_on_c, 12, 53, 110
13, 176520, Note_on_c, 12, 53, 0
13, 176520, Note_on_c, 12, 65, 0
13, 183600, Note_on_c, 12, 53, 90
13, 183600, Note_on_c, 12, 65, 90
13, 183640, Note_on_c, 12, 65, 0
13, 183640, Note_on_c, 12, 53, 0
13, 183720, Note_on_c, 12, 65, 90
13, 183720, Note_on_c, 12, 53, 90
13, 183760, Note_on_c, 12, 53, 0
13, 183760, Note_on_c, 12, 65, 0
13, 183840, Note_on_c, 12, 65, 90
13, 183840, Note_on_c, 12, 53, 90
13, 183880, Note_on_c, 12, 53, 0
13, 183880, Note_on_c, 12, 65, 0
13, 183960, Note_on_c, 12, 65, 90
13, 183960, Note_on_c, 12, 53, 90
13, 184000, Note_on_c, 12, 53, 0
13, 184000, Note_on_c, 12, 65, 0
13, 184080, Note_on_c, 12, 65, 90
13, 184080, Note_on_c, 12, 53, 90
13, 184120, Note_on_c, 12, 53, 0
13, 184120, Note_on_c, 12, 65, 0
13, 198960, Note_on_c, 12, 53, 90
13, 198960, Note_on_c, 12, 65, 90
13, 199000, Note_on_c, 12, 65, 0
13, 199000, Note_on_c, 12, 53, 0
13, 199080, Note_on_c, 12, 65, 90
13, 199080, Note_on_c, 12, 53, 90
13, 199120, Note_on_c, 12, 53, 0
13, 199120, Note_on_c, 12, 65, 0
13, 199200, Note_on_c, 12, 65, 90
13, 199200, Note_on_c, 12, 53, 90
13, 199240, Note_on_c, 12, 53, 0
13, 199240, Note_on_c, 12, 65, 0
13, 199320, Note_on_c, 12, 65, 90
13, 199320, Note_on_c, 12, 53, 90
13, 199360, Note_on_c, 12, 53, 0
13, 199360, Note_on_c, 12, 65, 0
13, 199440, Note_on_c, 12, 65, 90
13, 199440, Note_on_c, 12, 53, 90
13, 199480, Note_on_c, 12, 53, 0
13, 199480, Note_on_c, 12, 65, 0
13, 207093, Note_on_c, 12, 65, 110
13, 207093, Note_on_c, 12, 53, 110
13, 207120, Note_on_c, 12, 53, 0
13, 207120, Note_on_c, 12, 65, 0
13, 207213, Note_on_c, 12, 65, 110
13, 207213, Note_on_c, 12, 53, 110
13, 207240, Note_on_c, 12, 53, 0
13, 207240, Note_on_c, 12, 65, 0
13, 207240, End_track
14, 0, Start_track
14, 527, Program_c, 9, 0
14, 528, Control_c, 9, 7, 119
14, 528, Control_c, 9, 10, 64
14, 1920, Note_on_c, 9, 42, 80
14, 1950, Note_on_c, 9, 42, 0
14, 2400, Note_on_c, 9, 42, 80
14, 2430, Note_on_c, 9, 42, 0
14, 2880, Note_on_c, 9, 42, 80
14, 2910, Note_on_c, 9, 42, 0
14, 3360, Note_on_c, 9, 42, 80
14, 3390, Note_on_c, 9, 42, 0
14, 3840, Note_on_c, 9, 36, 127
14, 3870, Note_on_c, 9, 36, 0
14, 4320, Note_on_c, 9, 36, 127
14, 4350, Note_on_c, 9, 36, 0
14, 4800, Note_on_c, 9, 36, 127
14, 4830, Note_on_c, 9, 36, 0
14, 5280, Note_on_c, 9, 36, 127
14, 5310, Note_on_c, 9, 36, 0
14, 5760, Note_on_c, 9, 36, 127
14, 5790, Note_on_c, 9, 36, 0
14, 6000, Note_on_c, 9, 36, 127
14, 6030, Note_on_c, 9, 36, 0
14, 6240, Note_on_c, 9, 36, 127
14, 6270, Note_on_c, 9, 36, 0
14, 6480, Note_on_c, 9, 36, 127
14, 6510, Note_on_c, 9, 36, 0
14, 6720, Note_on_c, 9, 36, 127
14, 6750, Note_on_c, 9, 36, 0
14, 6960, Note_on_c, 9, 36, 127
14, 6990, Note_on_c, 9, 36, 0
14, 7200, Note_on_c, 9, 36, 127
14, 7230, Note_on_c, 9, 36, 0
14, 7440, Note_on_c, 9, 36, 127
14, 7470, Note_on_c, 9, 36, 0
14, 7680, Note_on_c, 9, 36, 127
14, 7710, Note_on_c, 9, 36, 0
14, 8160, Note_on_c, 9, 46, 99
14, 8160, Note_on_c, 9, 37, 127
14, 8160, Note_on_c, 9, 39, 127
14, 8190, Note_on_c, 9, 39, 0
14, 8190, Note_on_c, 9, 37, 0
14, 8190, Note_on_c, 9, 46, 0
14, 8400, Note_on_c, 9, 36, 127
14, 8430, Note_on_c, 9, 36, 0
14, 8880, Note_on_c, 9, 36, 127
14, 8910, Note_on_c, 9, 36, 0
14, 9120, Note_on_c, 9, 37, 127
14, 9120, Note_on_c, 9, 39, 127
14, 9150, Note_on_c, 9, 39, 0
14, 9150, Note_on_c, 9, 37, 0
14, 9600, Note_on_c, 9, 36, 127
14, 9630, Note_on_c, 9, 36, 0
14, 10080, Note_on_c, 9, 37, 127
14, 10080, Note_on_c, 9, 39, 127
14, 10110, Note_on_c, 9, 39, 0
14, 10110, Note_on_c, 9, 37, 0
14, 10320, Note_on_c, 9, 36, 127
14, 10350, Note_on_c, 9, 36, 0
14, 10800, Note_on_c, 9, 36, 127
14, 10830, Note_on_c, 9, 36, 0
14, 11040, Note_on_c, 9, 37, 127
14, 11040, Note_on_c, 9, 39, 127
14, 11070, Note_on_c, 9, 39, 0
14, 11070, Note_on_c, 9, 37, 0
14, 11520, Note_on_c, 9, 36, 127
14, 11550, Note_on_c, 9, 36, 0
14, 12000, Note_on_c, 9, 46, 99
14, 12000, Note_on_c, 9, 37, 127
14, 12000, Note_on_c, 9, 39, 127
14, 12030, Note_on_c, 9, 39, 0
14, 12030, Note_on_c, 9, 37, 0
14, 12030, Note_on_c, 9, 46, 0
14, 12240, Note_on_c, 9, 36, 127
14, 12270, Note_on_c, 9, 36, 0
14, 12720, Note_on_c, 9, 36, 127
14, 12750, Note_on_c, 9, 36, 0
14, 12960, Note_on_c, 9, 37, 127
14, 12960, Note_on_c, 9, 39, 127
14, 12990, Note_on_c, 9, 39, 0
14, 12990, Note_on_c, 9, 37, 0
14, 13440, Note_on_c, 9, 36, 127
14, 13470, Note_on_c, 9, 36, 0
14, 13920, Note_on_c, 9, 37, 127
14, 13920, Note_on_c, 9, 39, 127
14, 13950, Note_on_c, 9, 39, 0
14, 13950, Note_on_c, 9, 37, 0
14, 14160, Note_on_c, 9, 36, 127
14, 14190, Note_on_c, 9, 36, 0
14, 14640, Note_on_c, 9, 36, 127
14, 14670, Note_on_c, 9, 36, 0
14, 14880, Note_on_c, 9, 37, 127
14, 14880, Note_on_c, 9, 39, 127
14, 14910, Note_on_c, 9, 39, 0
14, 14910, Note_on_c, 9, 37, 0
14, 15360, Note_on_c, 9, 36, 127
14, 15390, Note_on_c, 9, 36, 0
14, 15840, Note_on_c, 9, 46, 99
14, 15840, Note_on_c, 9, 37, 127
14, 15840, Note_on_c, 9, 39, 127
14, 15870, Note_on_c, 9, 39, 0
14, 15870, Note_on_c, 9, 37, 0
14, 15870, Note_on_c, 9, 46, 0
14, 16080, Note_on_c, 9, 36, 127
14, 16110, Note_on_c, 9, 36, 0
14, 16560, Note_on_c, 9, 36, 127
14, 16590, Note_on_c, 9, 36, 0
14, 16800, Note_on_c, 9, 37, 127
14, 16800, Note_on_c, 9, 39, 127
14, 16830, Note_on_c, 9, 39, 0
14, 16830, Note_on_c, 9, 37, 0
14, 17280, Note_on_c, 9, 36, 127
14, 17310, Note_on_c, 9, 36, 0
14, 17760, Note_on_c, 9, 37, 127
14, 17760, Note_on_c, 9, 39, 127
14, 17790, Note_on_c, 9, 39, 0
14, 17790, Note_on_c, 9, 37, 0
14, 18000, Note_on_c, 9, 36, 127
14, 18030, Note_on_c, 9, 36, 0
14, 18480, Note_on_c, 9, 36, 127
14, 18510, Note_on_c, 9, 36, 0
14, 18720, Note_on_c, 9, 37, 127
14, 18720, Note_on_c, 9, 39, 127
14, 18750, Note_on_c, 9, 39, 0
14, 18750, Note_on_c, 9, 37, 0
14, 19200, Note_on_c, 9, 36, 127
14, 19230, Note_on_c, 9, 36, 0
14, 19680, Note_on_c, 9, 46, 99
14, 19680, Note_on_c, 9, 37, 127
14, 19680, Note_on_c, 9, 39, 127
14, 19710, Note_on_c, 9, 39, 0
14, 19710, Note_on_c, 9, 37, 0
14, 19710, Note_on_c, 9, 46, 0
14, 19920, Note_on_c, 9, 36, 127
14, 19950, Note_on_c, 9, 36, 0
14, 20400, Note_on_c, 9, 36, 127
14, 20430, Note_on_c, 9, 36, 0
14, 20640, Note_on_c, 9, 37, 127
14, 20640, Note_on_c, 9, 39, 127
14, 20670, Note_on_c, 9, 39, 0
14, 20670, Note_on_c, 9, 37, 0
14, 21120, Note_on_c, 9, 36, 127
14, 21150, Note_on_c, 9, 36, 0
14, 21600, Note_on_c, 9, 37, 127
14, 21600, Note_on_c, 9, 39, 127
14, 21630, Note_on_c, 9, 39, 0
14, 21630, Note_on_c, 9, 37, 0
14, 21840, Note_on_c, 9, 36, 127
14, 21870, Note_on_c, 9, 36, 0
14, 23040, Note_on_c, 9, 36, 127
14, 23070, Note_on_c, 9, 36, 0
14, 23520, Note_on_c, 9, 46, 99
14, 23520, Note_on_c, 9, 37, 127
14, 23520, Note_on_c, 9, 39, 127
14, 23550, Note_on_c, 9, 39, 0
14, 23550, Note_on_c, 9, 37, 0
14, 23550, Note_on_c, 9, 46, 0
14, 23760, Note_on_c, 9, 36, 127
14, 23790, Note_on_c, 9, 36, 0
14, 24240, Note_on_c, 9, 36, 127
14, 24270, Note_on_c, 9, 36, 0
14, 24480, Note_on_c, 9, 37, 127
14, 24480, Note_on_c, 9, 39, 127
14, 24510, Note_on_c, 9, 39, 0
14, 24510, Note_on_c, 9, 37, 0
14, 24960, Note_on_c, 9, 36, 127
14, 24990, Note_on_c, 9, 36, 0
14, 25440, Note_on_c, 9, 37, 127
14, 25440, Note_on_c, 9, 39, 127
14, 25470, Note_on_c, 9, 39, 0
14, 25470, Note_on_c, 9, 37, 0
14, 25680, Note_on_c, 9, 36, 127
14, 25710, Note_on_c, 9, 36, 0
14, 26160, Note_on_c, 9, 36, 127
14, 26190, Note_on_c, 9, 36, 0
14, 26400, Note_on_c, 9, 37, 127
14, 26400, Note_on_c, 9, 39, 127
14, 26430, Note_on_c, 9, 39, 0
14, 26430, Note_on_c, 9, 37, 0
14, 27360, Note_on_c, 9, 46, 99
14, 27360, Note_on_c, 9, 37, 127
14, 27360, Note_on_c, 9, 39, 127
14, 27390, Note_on_c, 9, 39, 0
14, 27390, Note_on_c, 9, 37, 0
14, 27390, Note_on_c, 9, 46, 0
14, 28320, Note_on_c, 9, 37, 127
14, 28320, Note_on_c, 9, 39, 127
14, 28350, Note_on_c, 9, 39, 0
14, 28350, Note_on_c, 9, 37, 0
14, 29280, Note_on_c, 9, 37, 127
14, 29280, Note_on_c, 9, 39, 127
14, 29310, Note_on_c, 9, 39, 0
14, 29310, Note_on_c, 9, 37, 0
14, 30240, Note_on_c, 9, 37, 127
14, 30240, Note_on_c, 9, 39, 127
14, 30270, Note_on_c, 9, 39, 0
14, 30270, Note_on_c, 9, 37, 0
14, 30720, Note_on_c, 9, 36, 127
14, 30750, Note_on_c, 9, 36, 0
14, 31200, Note_on_c, 9, 46, 99
14, 31200, Note_on_c, 9, 37, 127
14, 31200, Note_on_c, 9, 39, 127
14, 31230, Note_on_c, 9, 39, 0
14, 31230, Note_on_c, 9, 37, 0
14, 31230, Note_on_c, 9, 46, 0
14, 31440, Note_on_c, 9, 36, 127
14, 31470, Note_on_c, 9, 36, 0
14, 31920, Note_on_c, 9, 36, 127
14, 31950, Note_on_c, 9, 36, 0
14, 32160, Note_on_c, 9, 37, 127
14, 32160, Note_on_c, 9, 39, 127
14, 32190, Note_on_c, 9, 39, 0
14, 32190, Note_on_c, 9, 37, 0
14, 32640, Note_on_c, 9, 36, 127
14, 32670, Note_on_c, 9, 36, 0
14, 33120, Note_on_c, 9, 37, 127
14, 33120, Note_on_c, 9, 39, 127
14, 33150, Note_on_c, 9, 39, 0
14, 33150, Note_on_c, 9, 37, 0
14, 33360, Note_on_c, 9, 36, 127
14, 33390, Note_on_c, 9, 36, 0
14, 33840, Note_on_c, 9, 36, 127
14, 33870, Note_on_c, 9, 36, 0
14, 34080, Note_on_c, 9, 37, 127
14, 34080, Note_on_c, 9, 39, 127
14, 34110, Note_on_c, 9, 39, 0
14, 34110, Note_on_c, 9, 37, 0
14, 34560, Note_on_c, 9, 36, 127
14, 34590, Note_on_c, 9, 36, 0
14, 35040, Note_on_c, 9, 46, 99
14, 35040, Note_on_c, 9, 37, 127
14, 35040, Note_on_c, 9, 39, 127
14, 35070, Note_on_c, 9, 39, 0
14, 35070, Note_on_c, 9, 37, 0
14, 35070, Note_on_c, 9, 46, 0
14, 35280, Note_on_c, 9, 36, 127
14, 35310, Note_on_c, 9, 36, 0
14, 35760, Note_on_c, 9, 36, 127
14, 35790, Note_on_c, 9, 36, 0
14, 36000, Note_on_c, 9, 37, 127
14, 36000, Note_on_c, 9, 39, 127
14, 36030, Note_on_c, 9, 39, 0
14, 36030, Note_on_c, 9, 37, 0
14, 36480, Note_on_c, 9, 36, 127
14, 36510, Note_on_c, 9, 36, 0
14, 36960, Note_on_c, 9, 37, 127
14, 36960, Note_on_c, 9, 39, 127
14, 36990, Note_on_c, 9, 39, 0
14, 36990, Note_on_c, 9, 37, 0
14, 37200, Note_on_c, 9, 36, 127
14, 37230, Note_on_c, 9, 36, 0
14, 37680, Note_on_c, 9, 36, 127
14, 37710, Note_on_c, 9, 36, 0
14, 37920, Note_on_c, 9, 37, 127
14, 37920, Note_on_c, 9, 39, 127
14, 37950, Note_on_c, 9, 39, 0
14, 37950, Note_on_c, 9, 37, 0
14, 38400, Note_on_c, 9, 36, 127
14, 38430, Note_on_c, 9, 36, 0
14, 38880, Note_on_c, 9, 46, 99
14, 38880, Note_on_c, 9, 37, 127
14, 38880, Note_on_c, 9, 39, 127
14, 38910, Note_on_c, 9, 39, 0
14, 38910, Note_on_c, 9, 37, 0
14, 38910, Note_on_c, 9, 46, 0
14, 39120, Note_on_c, 9, 36, 127
14, 39150, Note_on_c, 9, 36, 0
14, 39600, Note_on_c, 9, 36, 127
14, 39630, Note_on_c, 9, 36, 0
14, 39840, Note_on_c, 9, 37, 127
14, 39840, Note_on_c, 9, 39, 127
14, 39870, Note_on_c, 9, 39, 0
14, 39870, Note_on_c, 9, 37, 0
14, 40320, Note_on_c, 9, 36, 127
14, 40350, Note_on_c, 9, 36, 0
14, 40800, Note_on_c, 9, 37, 127
14, 40800, Note_on_c, 9, 39, 127
14, 40830, Note_on_c, 9, 39, 0
14, 40830, Note_on_c, 9, 37, 0
14, 41040, Note_on_c, 9, 36, 127
14, 41070, Note_on_c, 9, 36, 0
14, 41520, Note_on_c, 9, 36, 127
14, 41550, Note_on_c, 9, 36, 0
14, 41760, Note_on_c, 9, 37, 127
14, 41760, Note_on_c, 9, 39, 127
14, 41790, Note_on_c, 9, 39, 0
14, 41790, Note_on_c, 9, 37, 0
14, 42240, Note_on_c, 9, 36, 127
14, 42270, Note_on_c, 9, 36, 0
14, 42720, Note_on_c, 9, 46, 99
14, 42720, Note_on_c, 9, 37, 127
14, 42720, Note_on_c, 9, 39, 127
14, 42750, Note_on_c, 9, 39, 0
14, 42750, Note_on_c, 9, 37, 0
14, 42750, Note_on_c, 9, 46, 0
14, 42960, Note_on_c, 9, 36, 127
14, 42990, Note_on_c, 9, 36, 0
14, 43440, Note_on_c, 9, 36, 127
14, 43470, Note_on_c, 9, 36, 0
14, 43680, Note_on_c, 9, 37, 127
14, 43680, Note_on_c, 9, 39, 127
14, 43710, Note_on_c, 9, 39, 0
14, 43710, Note_on_c, 9, 37, 0
14, 44160, Note_on_c, 9, 36, 127
14, 44190, Note_on_c, 9, 36, 0
14, 44640, Note_on_c, 9, 37, 127
14, 44640, Note_on_c, 9, 39, 127
14, 44670, Note_on_c, 9, 39, 0
14, 44670, Note_on_c, 9, 37, 0
14, 44880, Note_on_c, 9, 36, 127
14, 44910, Note_on_c, 9, 36, 0
14, 46080, Note_on_c, 9, 36, 127
14, 46110, Note_on_c, 9, 36, 0
14, 46560, Note_on_c, 9, 46, 99
14, 46560, Note_on_c, 9, 37, 127
14, 46560, Note_on_c, 9, 39, 127
14, 46590, Note_on_c, 9, 39, 0
14, 46590, Note_on_c, 9, 37, 0
14, 46590, Note_on_c, 9, 46, 0
14, 46800, Note_on_c, 9, 36, 127
14, 46830, Note_on_c, 9, 36, 0
14, 47280, Note_on_c, 9, 36, 127
14, 47310, Note_on_c, 9, 36, 0
14, 47520, Note_on_c, 9, 37, 127
14, 47520, Note_on_c, 9, 39, 127
14, 47550, Note_on_c, 9, 39, 0
14, 47550, Note_on_c, 9, 37, 0
14, 48000, Note_on_c, 9, 36, 127
14, 48030, Note_on_c, 9, 36, 0
14, 48480, Note_on_c, 9, 37, 127
14, 48480, Note_on_c, 9, 39, 127
14, 48510, Note_on_c, 9, 39, 0
14, 48510, Note_on_c, 9, 37, 0
14, 48720, Note_on_c, 9, 36, 127
14, 48750, Note_on_c, 9, 36, 0
14, 49200, Note_on_c, 9, 36, 127
14, 49230, Note_on_c, 9, 36, 0
14, 49440, Note_on_c, 9, 37, 127
14, 49440, Note_on_c, 9, 39, 127
14, 49470, Note_on_c, 9, 39, 0
14, 49470, Note_on_c, 9, 37, 0
14, 49920, Note_on_c, 9, 36, 127
14, 49950, Note_on_c, 9, 36, 0
14, 50400, Note_on_c, 9, 46, 99
14, 50400, Note_on_c, 9, 37, 127
14, 50400, Note_on_c, 9, 39, 127
14, 50430, Note_on_c, 9, 39, 0
14, 50430, Note_on_c, 9, 37, 0
14, 50430, Note_on_c, 9, 46, 0
14, 50640, Note_on_c, 9, 36, 127
14, 50670, Note_on_c, 9, 36, 0
14, 51120, Note_on_c, 9, 36, 127
14, 51150, Note_on_c, 9, 36, 0
14, 51360, Note_on_c, 9, 37, 127
14, 51360, Note_on_c, 9, 39, 127
14, 51390, Note_on_c, 9, 39, 0
14, 51390, Note_on_c, 9, 37, 0
14, 51840, Note_on_c, 9, 36, 127
14, 51870, Note_on_c, 9, 36, 0
14, 52320, Note_on_c, 9, 37, 127
14, 52320, Note_on_c, 9, 39, 127
14, 52350, Note_on_c, 9, 39, 0
14, 52350, Note_on_c, 9, 37, 0
14, 52560, Note_on_c, 9, 36, 127
14, 52590, Note_on_c, 9, 36, 0
14, 53040, Note_on_c, 9, 36, 127
14, 53070, Note_on_c, 9, 36, 0
14, 53280, Note_on_c, 9, 37, 127
14, 53280, Note_on_c, 9, 39, 127
14, 53310, Note_on_c, 9, 39, 0
14, 53310, Note_on_c, 9, 37, 0
14, 53760, Note_on_c, 9, 36, 127
14, 53790, Note_on_c, 9, 36, 0
14, 54240, Note_on_c, 9, 46, 99
14, 54240, Note_on_c, 9, 37, 127
14, 54240, Note_on_c, 9, 39, 127
14, 54270, Note_on_c, 9, 39, 0
14, 54270, Note_on_c, 9, 37, 0
14, 54270, Note_on_c, 9, 46, 0
14, 54480, Note_on_c, 9, 36, 127
14, 54510, Note_on_c, 9, 36, 0
14, 54960, Note_on_c, 9, 36, 127
14, 54990, Note_on_c, 9, 36, 0
14, 55200, Note_on_c, 9, 37, 127
14, 55200, Note_on_c, 9, 39, 127
14, 55230, Note_on_c, 9, 39, 0
14, 55230, Note_on_c, 9, 37, 0
14, 55680, Note_on_c, 9, 36, 127
14, 55710, Note_on_c, 9, 36, 0
14, 56160, Note_on_c, 9, 37, 127
14, 56160, Note_on_c, 9, 39, 127
14, 56190, Note_on_c, 9, 39, 0
14, 56190, Note_on_c, 9, 37, 0
14, 56400, Note_on_c, 9, 36, 127
14, 56430, Note_on_c, 9, 36, 0
14, 56880, Note_on_c, 9, 36, 127
14, 56910, Note_on_c, 9, 36, 0
14, 57120, Note_on_c, 9, 37, 127
14, 57120, Note_on_c, 9, 39, 127
14, 57150, Note_on_c, 9, 39, 0
14, 57150, Note_on_c, 9, 37, 0
14, 57600, Note_on_c, 9, 36, 127
14, 57630, Note_on_c, 9, 36, 0
14, 58080, Note_on_c, 9, 46, 99
14, 58080, Note_on_c, 9, 37, 127
14, 58080, Note_on_c, 9, 39, 127
14, 58110, Note_on_c, 9, 39, 0
14, 58110, Note_on_c, 9, 37, 0
14, 58110, Note_on_c, 9, 46, 0
14, 58320, Note_on_c, 9, 36, 127
14, 58350, Note_on_c, 9, 36, 0
14, 58800, Note_on_c, 9, 36, 127
14, 58830, Note_on_c, 9, 36, 0
14, 59040, Note_on_c, 9, 37, 127
14, 59040, Note_on_c, 9, 39, 127
14, 59070, Note_on_c, 9, 39, 0
14, 59070, Note_on_c, 9, 37, 0
14, 59520, Note_on_c, 9, 36, 127
14, 59550, Note_on_c, 9, 36, 0
14, 60000, Note_on_c, 9, 37, 127
14, 60000, Note_on_c, 9, 39, 127
14, 60030, Note_on_c, 9, 39, 0
14, 60030, Note_on_c, 9, 37, 0
14, 60240, Note_on_c, 9, 36, 127
14, 60270, Note_on_c, 9, 36, 0
14, 61440, Note_on_c, 9, 36, 127
14, 61470, Note_on_c, 9, 36, 0
14, 61920, Note_on_c, 9, 46, 99
14, 61920, Note_on_c, 9, 37, 127
14, 61920, Note_on_c, 9, 39, 127
14, 61950, Note_on_c, 9, 39, 0
14, 61950, Note_on_c, 9, 37, 0
14, 61950, Note_on_c, 9, 46, 0
14, 62160, Note_on_c, 9, 36, 127
14, 62190, Note_on_c, 9, 36, 0
14, 62640, Note_on_c, 9, 36, 127
14, 62670, Note_on_c, 9, 36, 0
14, 62880, Note_on_c, 9, 37, 127
14, 62880, Note_on_c, 9, 39, 127
14, 62910, Note_on_c, 9, 39, 0
14, 62910, Note_on_c, 9, 37, 0
14, 63360, Note_on_c, 9, 36, 127
14, 63390, Note_on_c, 9, 36, 0
14, 63840, Note_on_c, 9, 37, 127
14, 63840, Note_on_c, 9, 39, 127
14, 63870, Note_on_c, 9, 39, 0
14, 63870, Note_on_c, 9, 37, 0
14, 64080, Note_on_c, 9, 36, 127
14, 64110, Note_on_c, 9, 36, 0
14, 64560, Note_on_c, 9, 36, 127
14, 64590, Note_on_c, 9, 36, 0
14, 64800, Note_on_c, 9, 37, 127
14, 64800, Note_on_c, 9, 39, 127
14, 64830, Note_on_c, 9, 39, 0
14, 64830, Note_on_c, 9, 37, 0
14, 65280, Note_on_c, 9, 36, 127
14, 65310, Note_on_c, 9, 36, 0
14, 65760, Note_on_c, 9, 46, 99
14, 65760, Note_on_c, 9, 37, 127
14, 65760, Note_on_c, 9, 39, 127
14, 65790, Note_on_c, 9, 39, 0
14, 65790, Note_on_c, 9, 37, 0
14, 65790, Note_on_c, 9, 46, 0
14, 66000, Note_on_c, 9, 36, 127
14, 66030, Note_on_c, 9, 36, 0
14, 66480, Note_on_c, 9, 36, 127
14, 66510, Note_on_c, 9, 36, 0
14, 66720, Note_on_c, 9, 37, 127
14, 66720, Note_on_c, 9, 39, 127
14, 66750, Note_on_c, 9, 39, 0
14, 66750, Note_on_c, 9, 37, 0
14, 67200, Note_on_c, 9, 36, 127
14, 67230, Note_on_c, 9, 36, 0
14, 67680, Note_on_c, 9, 37, 127
14, 67680, Note_on_c, 9, 39, 127
14, 67710, Note_on_c, 9, 39, 0
14, 67710, Note_on_c, 9, 37, 0
14, 67920, Note_on_c, 9, 36, 127
14, 67950, Note_on_c, 9, 36, 0
14, 68400, Note_on_c, 9, 36, 127
14, 68430, Note_on_c, 9, 36, 0
14, 68640, Note_on_c, 9, 37, 127
14, 68640, Note_on_c, 9, 39, 127
14, 68670, Note_on_c, 9, 39, 0
14, 68670, Note_on_c, 9, 37, 0
14, 69120, Note_on_c, 9, 36, 127
14, 69150, Note_on_c, 9, 36, 0
14, 69600, Note_on_c, 9, 46, 99
14, 69600, Note_on_c, 9, 37, 127
14, 69600, Note_on_c, 9, 39, 127
14, 69630, Note_on_c, 9, 39, 0
14, 69630, Note_on_c, 9, 37, 0
14, 69630, Note_on_c, 9, 46, 0
14, 69840, Note_on_c, 9, 36, 127
14, 69870, Note_on_c, 9, 36, 0
14, 70320, Note_on_c, 9, 36, 127
14, 70350, Note_on_c, 9, 36, 0
14, 70560, Note_on_c, 9, 37, 127
14, 70560, Note_on_c, 9, 39, 127
14, 70590, Note_on_c, 9, 39, 0
14, 70590, Note_on_c, 9, 37, 0
14, 71040, Note_on_c, 9, 36, 127
14, 71070, Note_on_c, 9, 36, 0
14, 71520, Note_on_c, 9, 37, 127
14, 71520, Note_on_c, 9, 39, 127
14, 71550, Note_on_c, 9, 39, 0
14, 71550, Note_on_c, 9, 37, 0
14, 71760, Note_on_c, 9, 36, 127
14, 71790, Note_on_c, 9, 36, 0
14, 72240, Note_on_c, 9, 36, 127
14, 72270, Note_on_c, 9, 36, 0
14, 72480, Note_on_c, 9, 37, 127
14, 72480, Note_on_c, 9, 39, 127
14, 72510, Note_on_c, 9, 39, 0
14, 72510, Note_on_c, 9, 37, 0
14, 72960, Note_on_c, 9, 36, 127
14, 72990, Note_on_c, 9, 36, 0
14, 73440, Note_on_c, 9, 46, 99
14, 73440, Note_on_c, 9, 37, 127
14, 73440, Note_on_c, 9, 39, 127
14, 73470, Note_on_c, 9, 39, 0
14, 73470, Note_on_c, 9, 37, 0
14, 73470, Note_on_c, 9, 46, 0
14, 73680, Note_on_c, 9, 36, 127
14, 73710, Note_on_c, 9, 36, 0
14, 74160, Note_on_c, 9, 36, 127
14, 74190, Note_on_c, 9, 36, 0
14, 74400, Note_on_c, 9, 37, 127
14, 74400, Note_on_c, 9, 39, 127
14, 74430, Note_on_c, 9, 39, 0
14, 74430, Note_on_c, 9, 37, 0
14, 75360, Note_on_c, 9, 37, 127
14, 75360, Note_on_c, 9, 39, 127
14, 75390, Note_on_c, 9, 39, 0
14, 75390, Note_on_c, 9, 37, 0
14, 76800, Note_on_c, 9, 36, 127
14, 76830, Note_on_c, 9, 36, 0
14, 77280, Note_on_c, 9, 46, 99
14, 77280, Note_on_c, 9, 37, 127
14, 77280, Note_on_c, 9, 39, 127
14, 77310, Note_on_c, 9, 39, 0
14, 77310, Note_on_c, 9, 37, 0
14, 77310, Note_on_c, 9, 46, 0
14, 77520, Note_on_c, 9, 36, 127
14, 77550, Note_on_c, 9, 36, 0
14, 78000, Note_on_c, 9, 36, 127
14, 78030, Note_on_c, 9, 36, 0
14, 78240, Note_on_c, 9, 37, 127
14, 78240, Note_on_c, 9, 39, 127
14, 78270, Note_on_c, 9, 39, 0
14, 78270, Note_on_c, 9, 37, 0
14, 78720, Note_on_c, 9, 36, 127
14, 78750, Note_on_c, 9, 36, 0
14, 79200, Note_on_c, 9, 37, 127
14, 79200, Note_on_c, 9, 39, 127
14, 79230, Note_on_c, 9, 39, 0
14, 79230, Note_on_c, 9, 37, 0
14, 79440, Note_on_c, 9, 36, 127
14, 79470, Note_on_c, 9, 36, 0
14, 79920, Note_on_c, 9, 36, 127
14, 79950, Note_on_c, 9, 36, 0
14, 80160, Note_on_c, 9, 37, 127
14, 80160, Note_on_c, 9, 39, 127
14, 80190, Note_on_c, 9, 39, 0
14, 80190, Note_on_c, 9, 37, 0
14, 81120, Note_on_c, 9, 46, 99
14, 81120, Note_on_c, 9, 37, 127
14, 81120, Note_on_c, 9, 39, 127
14, 81150, Note_on_c, 9, 39, 0
14, 81150, Note_on_c, 9, 37, 0
14, 81150, Note_on_c, 9, 46, 0
14, 82080, Note_on_c, 9, 37, 127
14, 82080, Note_on_c, 9, 39, 127
14, 82110, Note_on_c, 9, 39, 0
14, 82110, Note_on_c, 9, 37, 0
14, 83040, Note_on_c, 9, 46, 99
14, 83040, Note_on_c, 9, 37, 127
14, 83040, Note_on_c, 9, 39, 127
14, 83070, Note_on_c, 9, 39, 0
14, 83070, Note_on_c, 9, 37, 0
14, 83070, Note_on_c, 9, 46, 0
14, 84000, Note_on_c, 9, 37, 127
14, 84000, Note_on_c, 9, 39, 127
14, 84030, Note_on_c, 9, 39, 0
14, 84030, Note_on_c, 9, 37, 0
14, 84480, Note_on_c, 9, 36, 127
14, 84510, Note_on_c, 9, 36, 0
14, 84960, Note_on_c, 9, 46, 99
14, 84960, Note_on_c, 9, 37, 127
14, 84960, Note_on_c, 9, 39, 127
14, 84990, Note_on_c, 9, 39, 0
14, 84990, Note_on_c, 9, 37, 0
14, 84990, Note_on_c, 9, 46, 0
14, 85200, Note_on_c, 9, 36, 127
14, 85230, Note_on_c, 9, 36, 0
14, 85680, Note_on_c, 9, 36, 127
14, 85710, Note_on_c, 9, 36, 0
14, 85920, Note_on_c, 9, 37, 127
14, 85920, Note_on_c, 9, 39, 127
14, 85950, Note_on_c, 9, 39, 0
14, 85950, Note_on_c, 9, 37, 0
14, 86400, Note_on_c, 9, 36, 127
14, 86430, Note_on_c, 9, 36, 0
14, 86880, Note_on_c, 9, 37, 127
14, 86880, Note_on_c, 9, 39, 127
14, 86910, Note_on_c, 9, 39, 0
14, 86910, Note_on_c, 9, 37, 0
14, 87120, Note_on_c, 9, 36, 127
14, 87150, Note_on_c, 9, 36, 0
14, 87600, Note_on_c, 9, 36, 127
14, 87630, Note_on_c, 9, 36, 0
14, 87840, Note_on_c, 9, 37, 127
14, 87840, Note_on_c, 9, 39, 127
14, 87870, Note_on_c, 9, 39, 0
14, 87870, Note_on_c, 9, 37, 0
14, 88320, Note_on_c, 9, 36, 127
14, 88350, Note_on_c, 9, 36, 0
14, 88800, Note_on_c, 9, 46, 99
14, 88800, Note_on_c, 9, 37, 127
14, 88800, Note_on_c, 9, 39, 127
14, 88830, Note_on_c, 9, 39, 0
14, 88830, Note_on_c, 9, 37, 0
14, 88830, Note_on_c, 9, 46, 0
14, 89040, Note_on_c, 9, 36, 127
14, 89070, Note_on_c, 9, 36, 0
14, 89520, Note_on_c, 9, 36, 127
14, 89550, Note_on_c, 9, 36, 0
14, 89760, Note_on_c, 9, 37, 127
14, 89760, Note_on_c, 9, 39, 127
14, 89790, Note_on_c, 9, 39, 0
14, 89790, Note_on_c, 9, 37, 0
14, 90240, Note_on_c, 9, 36, 127
14, 90270, Note_on_c, 9, 36, 0
14, 90720, Note_on_c, 9, 37, 127
14, 90720, Note_on_c, 9, 39, 127
14, 90750, Note_on_c, 9, 39, 0
14, 90750, Note_on_c, 9, 37, 0
14, 90960, Note_on_c, 9, 36, 127
14, 90990, Note_on_c, 9, 36, 0
14, 91440, Note_on_c, 9, 36, 127
14, 91470, Note_on_c, 9, 36, 0
14, 91680, Note_on_c, 9, 37, 127
14, 91680, Note_on_c, 9, 39, 127
14, 91710, Note_on_c, 9, 39, 0
14, 91710, Note_on_c, 9, 37, 0
14, 92160, Note_on_c, 9, 36, 127
14, 92190, Note_on_c, 9, 36, 0
14, 92640, Note_on_c, 9, 46, 99
14, 92640, Note_on_c, 9, 37, 127
14, 92640, Note_on_c, 9, 39, 127
14, 92670, Note_on_c, 9, 39, 0
14, 92670, Note_on_c, 9, 37, 0
14, 92670, Note_on_c, 9, 46, 0
14, 92880, Note_on_c, 9, 36, 127
14, 92910, Note_on_c, 9, 36, 0
14, 93360, Note_on_c, 9, 36, 127
14, 93390, Note_on_c, 9, 36, 0
14, 93600, Note_on_c, 9, 37, 127
14, 93600, Note_on_c, 9, 39, 127
14, 93630, Note_on_c, 9, 39, 0
14, 93630, Note_on_c, 9, 37, 0
14, 94080, Note_on_c, 9, 36, 127
14, 94110, Note_on_c, 9, 36, 0
14, 94560, Note_on_c, 9, 37, 127
14, 94560, Note_on_c, 9, 39, 127
14, 94590, Note_on_c, 9, 39, 0
14, 94590, Note_on_c, 9, 37, 0
14, 94800, Note_on_c, 9, 36, 127
14, 94830, Note_on_c, 9, 36, 0
14, 95280, Note_on_c, 9, 36, 127
14, 95310, Note_on_c, 9, 36, 0
14, 95520, Note_on_c, 9, 37, 127
14, 95520, Note_on_c, 9, 39, 127
14, 95550, Note_on_c, 9, 39, 0
14, 95550, Note_on_c, 9, 37, 0
14, 96000, Note_on_c, 9, 36, 127
14, 96030, Note_on_c, 9, 36, 0
14, 96480, Note_on_c, 9, 46, 99
14, 96480, Note_on_c, 9, 37, 127
14, 96480, Note_on_c, 9, 39, 127
14, 96510, Note_on_c, 9, 39, 0
14, 96510, Note_on_c, 9, 37, 0
14, 96510, Note_on_c, 9, 46, 0
14, 96720, Note_on_c, 9, 36, 127
14, 96750, Note_on_c, 9, 36, 0
14, 97200, Note_on_c, 9, 36, 127
14, 97230, Note_on_c, 9, 36, 0
14, 97440, Note_on_c, 9, 37, 127
14, 97440, Note_on_c, 9, 39, 127
14, 97470, Note_on_c, 9, 39, 0
14, 97470, Note_on_c, 9, 37, 0
14, 97920, Note_on_c, 9, 36, 127
14, 97950, Note_on_c, 9, 36, 0
14, 98400, Note_on_c, 9, 37, 127
14, 98400, Note_on_c, 9, 39, 127
14, 98430, Note_on_c, 9, 39, 0
14, 98430, Note_on_c, 9, 37, 0
14, 98640, Note_on_c, 9, 36, 127
14, 98670, Note_on_c, 9, 36, 0
14, 99120, Note_on_c, 9, 36, 127
14, 99150, Note_on_c, 9, 36, 0
14, 99360, Note_on_c, 9, 37, 127
14, 99360, Note_on_c, 9, 39, 127
14, 99390, Note_on_c, 9, 39, 0
14, 99390, Note_on_c, 9, 37, 0
14, 99840, Note_on_c, 9, 36, 127
14, 99870, Note_on_c, 9, 36, 0
14, 100320, Note_on_c, 9, 46, 99
14, 100320, Note_on_c, 9, 37, 127
14, 100320, Note_on_c, 9, 39, 127
14, 100350, Note_on_c, 9, 39, 0
14, 100350, Note_on_c, 9, 37, 0
14, 100350, Note_on_c, 9, 46, 0
14, 100560, Note_on_c, 9, 36, 127
14, 100590, Note_on_c, 9, 36, 0
14, 101040, Note_on_c, 9, 36, 127
14, 101070, Note_on_c, 9, 36, 0
14, 101280, Note_on_c, 9, 37, 127
14, 101280, Note_on_c, 9, 39, 127
14, 101310, Note_on_c, 9, 39, 0
14, 101310, Note_on_c, 9, 37, 0
14, 101760, Note_on_c, 9, 36, 127
14, 101790, Note_on_c, 9, 36, 0
14, 102240, Note_on_c, 9, 37, 127
14, 102240, Note_on_c, 9, 39, 127
14, 102270, Note_on_c, 9, 39, 0
14, 102270, Note_on_c, 9, 37, 0
14, 102480, Note_on_c, 9, 36, 127
14, 102510, Note_on_c, 9, 36, 0
14, 102960, Note_on_c, 9, 36, 127
14, 102990, Note_on_c, 9, 36, 0
14, 103200, Note_on_c, 9, 37, 127
14, 103200, Note_on_c, 9, 39, 127
14, 103230, Note_on_c, 9, 39, 0
14, 103230, Note_on_c, 9, 37, 0
14, 103680, Note_on_c, 9, 36, 127
14, 103710, Note_on_c, 9, 36, 0
14, 104160, Note_on_c, 9, 46, 99
14, 104160, Note_on_c, 9, 37, 127
14, 104160, Note_on_c, 9, 39, 127
14, 104190, Note_on_c, 9, 39, 0
14, 104190, Note_on_c, 9, 37, 0
14, 104190, Note_on_c, 9, 46, 0
14, 104400, Note_on_c, 9, 36, 127
14, 104430, Note_on_c, 9, 36, 0
14, 104880, Note_on_c, 9, 36, 127
14, 104910, Note_on_c, 9, 36, 0
14, 105120, Note_on_c, 9, 37, 127
14, 105120, Note_on_c, 9, 39, 127
14, 105150, Note_on_c, 9, 39, 0
14, 105150, Note_on_c, 9, 37, 0
14, 105600, Note_on_c, 9, 36, 127
14, 105630, Note_on_c, 9, 36, 0
14, 106080, Note_on_c, 9, 37, 127
14, 106080, Note_on_c, 9, 39, 127
14, 106110, Note_on_c, 9, 39, 0
14, 106110, Note_on_c, 9, 37, 0
14, 106320, Note_on_c, 9, 36, 127
14, 106350, Note_on_c, 9, 36, 0
14, 106800, Note_on_c, 9, 36, 127
14, 106830, Note_on_c, 9, 36, 0
14, 107040, Note_on_c, 9, 37, 127
14, 107040, Note_on_c, 9, 39, 127
14, 107070, Note_on_c, 9, 39, 0
14, 107070, Note_on_c, 9, 37, 0
14, 107520, Note_on_c, 9, 36, 127
14, 107550, Note_on_c, 9, 36, 0
14, 108000, Note_on_c, 9, 46, 99
14, 108000, Note_on_c, 9, 37, 127
14, 108000, Note_on_c, 9, 39, 127
14, 108030, Note_on_c, 9, 39, 0
14, 108030, Note_on_c, 9, 37, 0
14, 108030, Note_on_c, 9, 46, 0
14, 108240, Note_on_c, 9, 36, 127
14, 108270, Note_on_c, 9, 36, 0
14, 108720, Note_on_c, 9, 36, 127
14, 108750, Note_on_c, 9, 36, 0
14, 108960, Note_on_c, 9, 37, 127
14, 108960, Note_on_c, 9, 39, 127
14, 108990, Note_on_c, 9, 39, 0
14, 108990, Note_on_c, 9, 37, 0
14, 109440, Note_on_c, 9, 36, 127
14, 109470, Note_on_c, 9, 36, 0
14, 109920, Note_on_c, 9, 37, 127
14, 109920, Note_on_c, 9, 39, 127
14, 109950, Note_on_c, 9, 39, 0
14, 109950, Note_on_c, 9, 37, 0
14, 110160, Note_on_c, 9, 36, 127
14, 110190, Note_on_c, 9, 36, 0
14, 110640, Note_on_c, 9, 36, 127
14, 110670, Note_on_c, 9, 36, 0
14, 110880, Note_on_c, 9, 37, 127
14, 110880, Note_on_c, 9, 39, 127
14, 110910, Note_on_c, 9, 39, 0
14, 110910, Note_on_c, 9, 37, 0
14, 111360, Note_on_c, 9, 36, 127
14, 111390, Note_on_c, 9, 36, 0
14, 111840, Note_on_c, 9, 46, 99
14, 111840, Note_on_c, 9, 37, 127
14, 111840, Note_on_c, 9, 39, 127
14, 111870, Note_on_c, 9, 39, 0
14, 111870, Note_on_c, 9, 37, 0
14, 111870, Note_on_c, 9, 46, 0
14, 112080, Note_on_c, 9, 36, 127
14, 112110, Note_on_c, 9, 36, 0
14, 112560, Note_on_c, 9, 36, 127
14, 112590, Note_on_c, 9, 36, 0
14, 112800, Note_on_c, 9, 37, 127
14, 112800, Note_on_c, 9, 39, 127
14, 112830, Note_on_c, 9, 39, 0
14, 112830, Note_on_c, 9, 37, 0
14, 113280, Note_on_c, 9, 36, 127
14, 113310, Note_on_c, 9, 36, 0
14, 113760, Note_on_c, 9, 37, 127
14, 113760, Note_on_c, 9, 39, 127
14, 113790, Note_on_c, 9, 39, 0
14, 113790, Note_on_c, 9, 37, 0
14, 114000, Note_on_c, 9, 36, 127
14, 114030, Note_on_c, 9, 36, 0
14, 114480, Note_on_c, 9, 36, 127
14, 114510, Note_on_c, 9, 36, 0
14, 114720, Note_on_c, 9, 37, 127
14, 114720, Note_on_c, 9, 39, 127
14, 114750, Note_on_c, 9, 39, 0
14, 114750, Note_on_c, 9, 37, 0
14, 115200, Note_on_c, 9, 36, 127
14, 115230, Note_on_c, 9, 36, 0
14, 115680, Note_on_c, 9, 46, 99
14, 115680, Note_on_c, 9, 37, 127
14, 115680, Note_on_c, 9, 39, 127
14, 115710, Note_on_c, 9, 39, 0
14, 115710, Note_on_c, 9, 37, 0
14, 115710, Note_on_c, 9, 46, 0
14, 115920, Note_on_c, 9, 36, 127
14, 115950, Note_on_c, 9, 36, 0
14, 116400, Note_on_c, 9, 36, 127
14, 116430, Note_on_c, 9, 36, 0
14, 116640, Note_on_c, 9, 37, 127
14, 116640, Note_on_c, 9, 39, 127
14, 116670, Note_on_c, 9, 39, 0
14, 116670, Note_on_c, 9, 37, 0
14, 117120, Note_on_c, 9, 36, 127
14, 117150, Note_on_c, 9, 36, 0
14, 117600, Note_on_c, 9, 37, 127
14, 117600, Note_on_c, 9, 39, 127
14, 117630, Note_on_c, 9, 39, 0
14, 117630, Note_on_c, 9, 37, 0
14, 117840, Note_on_c, 9, 36, 127
14, 117870, Note_on_c, 9, 36, 0
14, 118320, Note_on_c, 9, 36, 127
14, 118350, Note_on_c, 9, 36, 0
14, 118560, Note_on_c, 9, 37, 127
14, 118560, Note_on_c, 9, 39, 127
14, 118590, Note_on_c, 9, 39, 0
14, 118590, Note_on_c, 9, 37, 0
14, 119040, Note_on_c, 9, 36, 127
14, 119070, Note_on_c, 9, 36, 0
14, 119520, Note_on_c, 9, 46, 99
14, 119520, Note_on_c, 9, 37, 127
14, 119520, Note_on_c, 9, 39, 127
14, 119550, Note_on_c, 9, 39, 0
14, 119550, Note_on_c, 9, 37, 0
14, 119550, Note_on_c, 9, 46, 0
14, 119760, Note_on_c, 9, 36, 127
14, 119790, Note_on_c, 9, 36, 0
14, 120240, Note_on_c, 9, 36, 127
14, 120270, Note_on_c, 9, 36, 0
14, 120480, Note_on_c, 9, 37, 127
14, 120480, Note_on_c, 9, 39, 127
14, 120510, Note_on_c, 9, 39, 0
14, 120510, Note_on_c, 9, 37, 0
14, 121440, Note_on_c, 9, 37, 127
14, 121440, Note_on_c, 9, 39, 127
14, 121470, Note_on_c, 9, 39, 0
14, 121470, Note_on_c, 9, 37, 0
14, 122400, Note_on_c, 9, 37, 127
14, 122400, Note_on_c, 9, 39, 127
14, 122430, Note_on_c, 9, 39, 0
14, 122430, Note_on_c, 9, 37, 0
14, 122880, Note_on_c, 9, 36, 127
14, 122910, Note_on_c, 9, 36, 0
14, 123360, Note_on_c, 9, 46, 99
14, 123360, Note_on_c, 9, 37, 127
14, 123360, Note_on_c, 9, 39, 127
14, 123390, Note_on_c, 9, 39, 0
14, 123390, Note_on_c, 9, 37, 0
14, 123390, Note_on_c, 9, 46, 0
14, 123600, Note_on_c, 9, 36, 127
14, 123630, Note_on_c, 9, 36, 0
14, 124080, Note_on_c, 9, 36, 127
14, 124110, Note_on_c, 9, 36, 0
14, 124320, Note_on_c, 9, 37, 127
14, 124320, Note_on_c, 9, 39, 127
14, 124350, Note_on_c, 9, 39, 0
14, 124350, Note_on_c, 9, 37, 0
14, 124800, Note_on_c, 9, 36, 127
14, 124830, Note_on_c, 9, 36, 0
14, 125280, Note_on_c, 9, 37, 127
14, 125280, Note_on_c, 9, 39, 127
14, 125310, Note_on_c, 9, 39, 0
14, 125310, Note_on_c, 9, 37, 0
14, 125520, Note_on_c, 9, 36, 127
14, 125550, Note_on_c, 9, 36, 0
14, 126000, Note_on_c, 9, 36, 127
14, 126030, Note_on_c, 9, 36, 0
14, 126240, Note_on_c, 9, 37, 127
14, 126240, Note_on_c, 9, 39, 127
14, 126270, Note_on_c, 9, 39, 0
14, 126270, Note_on_c, 9, 37, 0
14, 126720, Note_on_c, 9, 36, 127
14, 126750, Note_on_c, 9, 36, 0
14, 127200, Note_on_c, 9, 46, 99
14, 127200, Note_on_c, 9, 37, 127
14, 127200, Note_on_c, 9, 39, 127
14, 127230, Note_on_c, 9, 39, 0
14, 127230, Note_on_c, 9, 37, 0
14, 127230, Note_on_c, 9, 46, 0
14, 127440, Note_on_c, 9, 36, 127
14, 127470, Note_on_c, 9, 36, 0
14, 127920, Note_on_c, 9, 36, 127
14, 127950, Note_on_c, 9, 36, 0
14, 128160, Note_on_c, 9, 37, 127
14, 128160, Note_on_c, 9, 39, 127
14, 128190, Note_on_c, 9, 39, 0
14, 128190, Note_on_c, 9, 37, 0
14, 128640, Note_on_c, 9, 36, 127
14, 128670, Note_on_c, 9, 36, 0
14, 129120, Note_on_c, 9, 37, 127
14, 129120, Note_on_c, 9, 39, 127
14, 129150, Note_on_c, 9, 39, 0
14, 129150, Note_on_c, 9, 37, 0
14, 129360, Note_on_c, 9, 36, 127
14, 129390, Note_on_c, 9, 36, 0
14, 129840, Note_on_c, 9, 36, 127
14, 129870, Note_on_c, 9, 36, 0
14, 130080, Note_on_c, 9, 37, 127
14, 130080, Note_on_c, 9, 39, 127
14, 130110, Note_on_c, 9, 39, 0
14, 130110, Note_on_c, 9, 37, 0
14, 130560, Note_on_c, 9, 36, 127
14, 130590, Note_on_c, 9, 36, 0
14, 131040, Note_on_c, 9, 46, 99
14, 131040, Note_on_c, 9, 37, 127
14, 131040, Note_on_c, 9, 39, 127
14, 131070, Note_on_c, 9, 39, 0
14, 131070, Note_on_c, 9, 37, 0
14, 131070, Note_on_c, 9, 46, 0
14, 131280, Note_on_c, 9, 36, 127
14, 131310, Note_on_c, 9, 36, 0
14, 131760, Note_on_c, 9, 36, 127
14, 131790, Note_on_c, 9, 36, 0
14, 132000, Note_on_c, 9, 37, 127
14, 132000, Note_on_c, 9, 39, 127
14, 132030, Note_on_c, 9, 39, 0
14, 132030, Note_on_c, 9, 37, 0
14, 132960, Note_on_c, 9, 37, 127
14, 132960, Note_on_c, 9, 39, 127
14, 132990, Note_on_c, 9, 39, 0
14, 132990, Note_on_c, 9, 37, 0
14, 133200, Note_on_c, 9, 36, 127
14, 133230, Note_on_c, 9, 36, 0
14, 133680, Note_on_c, 9, 36, 127
14, 133710, Note_on_c, 9, 36, 0
14, 133920, Note_on_c, 9, 37, 127
14, 133920, Note_on_c, 9, 39, 127
14, 133950, Note_on_c, 9, 39, 0
14, 133950, Note_on_c, 9, 37, 0
14, 134400, Note_on_c, 9, 36, 127
14, 134430, Note_on_c, 9, 36, 0
14, 134880, Note_on_c, 9, 46, 99
14, 134880, Note_on_c, 9, 37, 127
14, 134880, Note_on_c, 9, 39, 127
14, 134910, Note_on_c, 9, 39, 0
14, 134910, Note_on_c, 9, 37, 0
14, 134910, Note_on_c, 9, 46, 0
14, 135120, Note_on_c, 9, 36, 127
14, 135150, Note_on_c, 9, 36, 0
14, 135600, Note_on_c, 9, 36, 127
14, 135630, Note_on_c, 9, 36, 0
14, 135840, Note_on_c, 9, 37, 127
14, 135840, Note_on_c, 9, 39, 127
14, 135870, Note_on_c, 9, 39, 0
14, 135870, Note_on_c, 9, 37, 0
14, 136800, Note_on_c, 9, 37, 127
14, 136800, Note_on_c, 9, 39, 127
14, 136830, Note_on_c, 9, 39, 0
14, 136830, Note_on_c, 9, 37, 0
14, 137760, Note_on_c, 9, 37, 127
14, 137760, Note_on_c, 9, 39, 127
14, 137790, Note_on_c, 9, 39, 0
14, 137790, Note_on_c, 9, 37, 0
14, 138240, Note_on_c, 9, 36, 127
14, 138270, Note_on_c, 9, 36, 0
14, 138720, Note_on_c, 9, 46, 99
14, 138720, Note_on_c, 9, 37, 127
14, 138720, Note_on_c, 9, 39, 127
14, 138750, Note_on_c, 9, 39, 0
14, 138750, Note_on_c, 9, 37, 0
14, 138750, Note_on_c, 9, 46, 0
14, 138960, Note_on_c, 9, 36, 127
14, 138990, Note_on_c, 9, 36, 0
14, 139440, Note_on_c, 9, 36, 127
14, 139470, Note_on_c, 9, 36, 0
14, 139680, Note_on_c, 9, 37, 127
14, 139680, Note_on_c, 9, 39, 127
14, 139710, Note_on_c, 9, 39, 0
14, 139710, Note_on_c, 9, 37, 0
14, 140160, Note_on_c, 9, 36, 127
14, 140190, Note_on_c, 9, 36, 0
14, 140640, Note_on_c, 9, 37, 127
14, 140640, Note_on_c, 9, 39, 127
14, 140670, Note_on_c, 9, 39, 0
14, 140670, Note_on_c, 9, 37, 0
14, 140880, Note_on_c, 9, 36, 127
14, 140910, Note_on_c, 9, 36, 0
14, 141360, Note_on_c, 9, 36, 127
14, 141390, Note_on_c, 9, 36, 0
14, 141600, Note_on_c, 9, 37, 127
14, 141600, Note_on_c, 9, 39, 127
14, 141630, Note_on_c, 9, 39, 0
14, 141630, Note_on_c, 9, 37, 0
14, 142080, Note_on_c, 9, 36, 127
14, 142110, Note_on_c, 9, 36, 0
14, 142560, Note_on_c, 9, 46, 99
14, 142560, Note_on_c, 9, 37, 127
14, 142560, Note_on_c, 9, 39, 127
14, 142590, Note_on_c, 9, 39, 0
14, 142590, Note_on_c, 9, 37, 0
14, 142590, Note_on_c, 9, 46, 0
14, 142800, Note_on_c, 9, 36, 127
14, 142830, Note_on_c, 9, 36, 0
14, 143280, Note_on_c, 9, 36, 127
14, 143310, Note_on_c, 9, 36, 0
14, 143520, Note_on_c, 9, 37, 127
14, 143520, Note_on_c, 9, 39, 127
14, 143550, Note_on_c, 9, 39, 0
14, 143550, Note_on_c, 9, 37, 0
14, 144000, Note_on_c, 9, 36, 127
14, 144030, Note_on_c, 9, 36, 0
14, 144480, Note_on_c, 9, 37, 127
14, 144480, Note_on_c, 9, 39, 127
14, 144510, Note_on_c, 9, 39, 0
14, 144510, Note_on_c, 9, 37, 0
14, 144720, Note_on_c, 9, 36, 127
14, 144750, Note_on_c, 9, 36, 0
14, 145200, Note_on_c, 9, 36, 127
14, 145230, Note_on_c, 9, 36, 0
14, 145440, Note_on_c, 9, 37, 127
14, 145440, Note_on_c, 9, 39, 127
14, 145470, Note_on_c, 9, 39, 0
14, 145470, Note_on_c, 9, 37, 0
14, 145920, Note_on_c, 9, 36, 127
14, 145950, Note_on_c, 9, 36, 0
14, 146400, Note_on_c, 9, 46, 99
14, 146400, Note_on_c, 9, 37, 127
14, 146400, Note_on_c, 9, 39, 127
14, 146430, Note_on_c, 9, 39, 0
14, 146430, Note_on_c, 9, 37, 0
14, 146430, Note_on_c, 9, 46, 0
14, 146640, Note_on_c, 9, 36, 127
14, 146670, Note_on_c, 9, 36, 0
14, 147120, Note_on_c, 9, 36, 127
14, 147150, Note_on_c, 9, 36, 0
14, 147360, Note_on_c, 9, 37, 127
14, 147360, Note_on_c, 9, 39, 127
14, 147390, Note_on_c, 9, 39, 0
14, 147390, Note_on_c, 9, 37, 0
14, 147840, Note_on_c, 9, 36, 127
14, 147870, Note_on_c, 9, 36, 0
14, 148320, Note_on_c, 9, 37, 127
14, 148320, Note_on_c, 9, 39, 127
14, 148350, Note_on_c, 9, 39, 0
14, 148350, Note_on_c, 9, 37, 0
14, 148560, Note_on_c, 9, 36, 127
14, 148590, Note_on_c, 9, 36, 0
14, 149040, Note_on_c, 9, 36, 127
14, 149070, Note_on_c, 9, 36, 0
14, 149280, Note_on_c, 9, 37, 127
14, 149280, Note_on_c, 9, 39, 127
14, 149310, Note_on_c, 9, 39, 0
14, 149310, Note_on_c, 9, 37, 0
14, 149760, Note_on_c, 9, 36, 127
14, 149790, Note_on_c, 9, 36, 0
14, 150240, Note_on_c, 9, 46, 99
14, 150240, Note_on_c, 9, 37, 127
14, 150240, Note_on_c, 9, 39, 127
14, 150270, Note_on_c, 9, 39, 0
14, 150270, Note_on_c, 9, 37, 0
14, 150270, Note_on_c, 9, 46, 0
14, 150480, Note_on_c, 9, 36, 127
14, 150510, Note_on_c, 9, 36, 0
14, 150960, Note_on_c, 9, 36, 127
14, 150990, Note_on_c, 9, 36, 0
14, 151200, Note_on_c, 9, 37, 127
14, 151200, Note_on_c, 9, 39, 127
14, 151230, Note_on_c, 9, 39, 0
14, 151230, Note_on_c, 9, 37, 0
14, 151680, Note_on_c, 9, 36, 127
14, 151710, Note_on_c, 9, 36, 0
14, 152160, Note_on_c, 9, 37, 127
14, 152160, Note_on_c, 9, 39, 127
14, 152190, Note_on_c, 9, 39, 0
14, 152190, Note_on_c, 9, 37, 0
14, 152400, Note_on_c, 9, 36, 127
14, 152430, Note_on_c, 9, 36, 0
14, 152880, Note_on_c, 9, 36, 127
14, 152910, Note_on_c, 9, 36, 0
14, 153120, Note_on_c, 9, 37, 127
14, 153120, Note_on_c, 9, 39, 127
14, 153150, Note_on_c, 9, 39, 0
14, 153150, Note_on_c, 9, 37, 0
14, 153600, Note_on_c, 9, 36, 127
14, 153630, Note_on_c, 9, 36, 0
14, 154080, Note_on_c, 9, 46, 99
14, 154080, Note_on_c, 9, 37, 127
14, 154080, Note_on_c, 9, 39, 127
14, 154110, Note_on_c, 9, 39, 0
14, 154110, Note_on_c, 9, 37, 0
14, 154110, Note_on_c, 9, 46, 0
14, 154320, Note_on_c, 9, 36, 127
14, 154350, Note_on_c, 9, 36, 0
14, 154800, Note_on_c, 9, 36, 127
14, 154830, Note_on_c, 9, 36, 0
14, 155040, Note_on_c, 9, 37, 127
14, 155040, Note_on_c, 9, 39, 127
14, 155070, Note_on_c, 9, 39, 0
14, 155070, Note_on_c, 9, 37, 0
14, 155520, Note_on_c, 9, 36, 127
14, 155550, Note_on_c, 9, 36, 0
14, 156000, Note_on_c, 9, 37, 127
14, 156000, Note_on_c, 9, 39, 127
14, 156030, Note_on_c, 9, 39, 0
14, 156030, Note_on_c, 9, 37, 0
14, 156240, Note_on_c, 9, 36, 127
14, 156270, Note_on_c, 9, 36, 0
14, 156720, Note_on_c, 9, 36, 127
14, 156750, Note_on_c, 9, 36, 0
14, 156960, Note_on_c, 9, 37, 127
14, 156960, Note_on_c, 9, 39, 127
14, 156990, Note_on_c, 9, 39, 0
14, 156990, Note_on_c, 9, 37, 0
14, 157440, Note_on_c, 9, 36, 127
14, 157470, Note_on_c, 9, 36, 0
14, 157920, Note_on_c, 9, 46, 99
14, 157920, Note_on_c, 9, 37, 127
14, 157920, Note_on_c, 9, 39, 127
14, 157950, Note_on_c, 9, 39, 0
14, 157950, Note_on_c, 9, 37, 0
14, 157950, Note_on_c, 9, 46, 0
14, 158160, Note_on_c, 9, 36, 127
14, 158190, Note_on_c, 9, 36, 0
14, 158640, Note_on_c, 9, 36, 127
14, 158670, Note_on_c, 9, 36, 0
14, 158880, Note_on_c, 9, 37, 127
14, 158880, Note_on_c, 9, 39, 127
14, 158910, Note_on_c, 9, 39, 0
14, 158910, Note_on_c, 9, 37, 0
14, 159360, Note_on_c, 9, 36, 127
14, 159390, Note_on_c, 9, 36, 0
14, 159840, Note_on_c, 9, 37, 127
14, 159840, Note_on_c, 9, 39, 127
14, 159870, Note_on_c, 9, 39, 0
14, 159870, Note_on_c, 9, 37, 0
14, 160080, Note_on_c, 9, 36, 127
14, 160110, Note_on_c, 9, 36, 0
14, 160560, Note_on_c, 9, 36, 127
14, 160590, Note_on_c, 9, 36, 0
14, 160800, Note_on_c, 9, 37, 127
14, 160800, Note_on_c, 9, 39, 127
14, 160830, Note_on_c, 9, 39, 0
14, 160830, Note_on_c, 9, 37, 0
14, 161280, Note_on_c, 9, 36, 127
14, 161310, Note_on_c, 9, 36, 0
14, 161760, Note_on_c, 9, 46, 99
14, 161760, Note_on_c, 9, 37, 127
14, 161760, Note_on_c, 9, 39, 127
14, 161790, Note_on_c, 9, 39, 0
14, 161790, Note_on_c, 9, 37, 0
14, 161790, Note_on_c, 9, 46, 0
14, 162000, Note_on_c, 9, 36, 127
14, 162030, Note_on_c, 9, 36, 0
14, 162480, Note_on_c, 9, 36, 127
14, 162510, Note_on_c, 9, 36, 0
14, 162720, Note_on_c, 9, 37, 127
14, 162720, Note_on_c, 9, 39, 127
14, 162750, Note_on_c, 9, 39, 0
14, 162750, Note_on_c, 9, 37, 0
14, 163200, Note_on_c, 9, 36, 127
14, 163230, Note_on_c, 9, 36, 0
14, 163680, Note_on_c, 9, 37, 127
14, 163680, Note_on_c, 9, 39, 127
14, 163710, Note_on_c, 9, 39, 0
14, 163710, Note_on_c, 9, 37, 0
14, 163920, Note_on_c, 9, 36, 127
14, 163950, Note_on_c, 9, 36, 0
14, 164400, Note_on_c, 9, 36, 127
14, 164430, Note_on_c, 9, 36, 0
14, 164640, Note_on_c, 9, 37, 127
14, 164640, Note_on_c, 9, 39, 127
14, 164670, Note_on_c, 9, 39, 0
14, 164670, Note_on_c, 9, 37, 0
14, 165120, Note_on_c, 9, 36, 127
14, 165150, Note_on_c, 9, 36, 0
14, 165600, Note_on_c, 9, 46, 99
14, 165600, Note_on_c, 9, 37, 127
14, 165600, Note_on_c, 9, 39, 127
14, 165630, Note_on_c, 9, 39, 0
14, 165630, Note_on_c, 9, 37, 0
14, 165630, Note_on_c, 9, 46, 0
14, 165840, Note_on_c, 9, 36, 127
14, 165870, Note_on_c, 9, 36, 0
14, 166320, Note_on_c, 9, 36, 127
14, 166350, Note_on_c, 9, 36, 0
14, 166560, Note_on_c, 9, 37, 127
14, 166560, Note_on_c, 9, 39, 127
14, 166590, Note_on_c, 9, 39, 0
14, 166590, Note_on_c, 9, 37, 0
14, 167040, Note_on_c, 9, 36, 127
14, 167070, Note_on_c, 9, 36, 0
14, 167520, Note_on_c, 9, 37, 127
14, 167520, Note_on_c, 9, 39, 127
14, 167550, Note_on_c, 9, 39, 0
14, 167550, Note_on_c, 9, 37, 0
14, 167760, Note_on_c, 9, 36, 127
14, 167790, Note_on_c, 9, 36, 0
14, 168240, Note_on_c, 9, 36, 127
14, 168270, Note_on_c, 9, 36, 0
14, 168480, Note_on_c, 9, 37, 127
14, 168480, Note_on_c, 9, 39, 127
14, 168510, Note_on_c, 9, 39, 0
14, 168510, Note_on_c, 9, 37, 0
14, 168960, Note_on_c, 9, 36, 127
14, 168990, Note_on_c, 9, 36, 0
14, 169440, Note_on_c, 9, 46, 99
14, 169440, Note_on_c, 9, 37, 127
14, 169440, Note_on_c, 9, 39, 127
14, 169470, Note_on_c, 9, 39, 0
14, 169470, Note_on_c, 9, 37, 0
14, 169470, Note_on_c, 9, 46, 0
14, 169680, Note_on_c, 9, 36, 127
14, 169710, Note_on_c, 9, 36, 0
14, 170160, Note_on_c, 9, 36, 127
14, 170190, Note_on_c, 9, 36, 0
14, 170400, Note_on_c, 9, 37, 127
14, 170400, Note_on_c, 9, 39, 127
14, 170430, Note_on_c, 9, 39, 0
14, 170430, Note_on_c, 9, 37, 0
14, 170880, Note_on_c, 9, 36, 127
14, 170910, Note_on_c, 9, 36, 0
14, 171360, Note_on_c, 9, 37, 127
14, 171360, Note_on_c, 9, 39, 127
14, 171390, Note_on_c, 9, 39, 0
14, 171390, Note_on_c, 9, 37, 0
14, 171600, Note_on_c, 9, 36, 127
14, 171630, Note_on_c, 9, 36, 0
14, 172080, Note_on_c, 9, 36, 127
14, 172110, Note_on_c, 9, 36, 0
14, 172320, Note_on_c, 9, 37, 127
14, 172320, Note_on_c, 9, 39, 127
14, 172350, Note_on_c, 9, 39, 0
14, 172350, Note_on_c, 9, 37, 0
14, 172800, Note_on_c, 9, 36, 127
14, 172830, Note_on_c, 9, 36, 0
14, 173280, Note_on_c, 9, 46, 99
14, 173280, Note_on_c, 9, 37, 127
14, 173280, Note_on_c, 9, 39, 127
14, 173310, Note_on_c, 9, 39, 0
14, 173310, Note_on_c, 9, 37, 0
14, 173310, Note_on_c, 9, 46, 0
14, 173520, Note_on_c, 9, 36, 127
14, 173550, Note_on_c, 9, 36, 0
14, 174000, Note_on_c, 9, 36, 127
14, 174030, Note_on_c, 9, 36, 0
14, 174240, Note_on_c, 9, 37, 127
14, 174240, Note_on_c, 9, 39, 127
14, 174270, Note_on_c, 9, 39, 0
14, 174270, Note_on_c, 9, 37, 0
14, 174720, Note_on_c, 9, 36, 127
14, 174750, Note_on_c, 9, 36, 0
14, 175200, Note_on_c, 9, 37, 127
14, 175200, Note_on_c, 9, 39, 127
14, 175230, Note_on_c, 9, 39, 0
14, 175230, Note_on_c, 9, 37, 0
14, 175440, Note_on_c, 9, 36, 127
14, 175470, Note_on_c, 9, 36, 0
14, 175920, Note_on_c, 9, 36, 127
14, 175950, Note_on_c, 9, 36, 0
14, 176160, Note_on_c, 9, 37, 127
14, 176160, Note_on_c, 9, 39, 127
14, 176190, Note_on_c, 9, 39, 0
14, 176190, Note_on_c, 9, 37, 0
14, 176640, Note_on_c, 9, 36, 127
14, 176670, Note_on_c, 9, 36, 0
14, 177120, Note_on_c, 9, 46, 99
14, 177120, Note_on_c, 9, 37, 127
14, 177120, Note_on_c, 9, 39, 127
14, 177150, Note_on_c, 9, 39, 0
14, 177150, Note_on_c, 9, 37, 0
14, 177150, Note_on_c, 9, 46, 0
14, 177360, Note_on_c, 9, 36, 127
14, 177390, Note_on_c, 9, 36, 0
14, 177840, Note_on_c, 9, 36, 127
14, 177870, Note_on_c, 9, 36, 0
14, 178080, Note_on_c, 9, 37, 127
14, 178080, Note_on_c, 9, 39, 127
14, 178110, Note_on_c, 9, 39, 0
14, 178110, Note_on_c, 9, 37, 0
14, 178560, Note_on_c, 9, 36, 127
14, 178590, Note_on_c, 9, 36, 0
14, 179040, Note_on_c, 9, 37, 127
14, 179040, Note_on_c, 9, 39, 127
14, 179070, Note_on_c, 9, 39, 0
14, 179070, Note_on_c, 9, 37, 0
14, 179280, Note_on_c, 9, 36, 127
14, 179310, Note_on_c, 9, 36, 0
14, 179760, Note_on_c, 9, 36, 127
14, 179790, Note_on_c, 9, 36, 0
14, 180000, Note_on_c, 9, 37, 127
14, 180000, Note_on_c, 9, 39, 127
14, 180030, Note_on_c, 9, 39, 0
14, 180030, Note_on_c, 9, 37, 0
14, 180480, Note_on_c, 9, 36, 127
14, 180510, Note_on_c, 9, 36, 0
14, 180960, Note_on_c, 9, 46, 99
14, 180960, Note_on_c, 9, 37, 127
14, 180960, Note_on_c, 9, 39, 127
14, 180990, Note_on_c, 9, 39, 0
14, 180990, Note_on_c, 9, 37, 0
14, 180990, Note_on_c, 9, 46, 0
14, 181200, Note_on_c, 9, 36, 127
14, 181230, Note_on_c, 9, 36, 0
14, 181680, Note_on_c, 9, 36, 127
14, 181710, Note_on_c, 9, 36, 0
14, 181920, Note_on_c, 9, 37, 127
14, 181920, Note_on_c, 9, 39, 127
14, 181950, Note_on_c, 9, 39, 0
14, 181950, Note_on_c, 9, 37, 0
14, 182400, Note_on_c, 9, 36, 127
14, 182430, Note_on_c, 9, 36, 0
14, 182880, Note_on_c, 9, 37, 127
14, 182880, Note_on_c, 9, 39, 127
14, 182910, Note_on_c, 9, 39, 0
14, 182910, Note_on_c, 9, 37, 0
14, 183120, Note_on_c, 9, 36, 127
14, 183150, Note_on_c, 9, 36, 0
14, 183600, Note_on_c, 9, 36, 127
14, 183630, Note_on_c, 9, 36, 0
14, 183840, Note_on_c, 9, 37, 127
14, 183840, Note_on_c, 9, 39, 127
14, 183870, Note_on_c, 9, 39, 0
14, 183870, Note_on_c, 9, 37, 0
14, 184320, Note_on_c, 9, 36, 127
14, 184350, Note_on_c, 9, 36, 0
14, 184800, Note_on_c, 9, 46, 99
14, 184800, Note_on_c, 9, 37, 127
14, 184800, Note_on_c, 9, 39, 127
14, 184830, Note_on_c, 9, 39, 0
14, 184830, Note_on_c, 9, 37, 0
14, 184830, Note_on_c, 9, 46, 0
14, 185040, Note_on_c, 9, 36, 127
14, 185070, Note_on_c, 9, 36, 0
14, 185520, Note_on_c, 9, 36, 127
14, 185550, Note_on_c, 9, 36, 0
14, 185760, Note_on_c, 9, 37, 127
14, 185760, Note_on_c, 9, 39, 127
14, 185790, Note_on_c, 9, 39, 0
14, 185790, Note_on_c, 9, 37, 0
14, 186240, Note_on_c, 9, 36, 127
14, 186270, Note_on_c, 9, 36, 0
14, 186720, Note_on_c, 9, 37, 127
14, 186720, Note_on_c, 9, 39, 127
14, 186750, Note_on_c, 9, 39, 0
14, 186750, Note_on_c, 9, 37, 0
14, 186960, Note_on_c, 9, 36, 127
14, 186990, Note_on_c, 9, 36, 0
14, 187440, Note_on_c, 9, 36, 127
14, 187470, Note_on_c, 9, 36, 0
14, 187680, Note_on_c, 9, 37, 127
14, 187680, Note_on_c, 9, 39, 127
14, 187710, Note_on_c, 9, 39, 0
14, 187710, Note_on_c, 9, 37, 0
14, 188160, Note_on_c, 9, 36, 127
14, 188190, Note_on_c, 9, 36, 0
14, 188640, Note_on_c, 9, 46, 99
14, 188640, Note_on_c, 9, 37, 127
14, 188640, Note_on_c, 9, 39, 127
14, 188670, Note_on_c, 9, 39, 0
14, 188670, Note_on_c, 9, 37, 0
14, 188670, Note_on_c, 9, 46, 0
14, 188880, Note_on_c, 9, 36, 127
14, 188910, Note_on_c, 9, 36, 0
14, 189360, Note_on_c, 9, 36, 127
14, 189390, Note_on_c, 9, 36, 0
14, 189600, Note_on_c, 9, 37, 127
14, 189600, Note_on_c, 9, 39, 127
14, 189630, Note_on_c, 9, 39, 0
14, 189630, Note_on_c, 9, 37, 0
14, 190080, Note_on_c, 9, 36, 127
14, 190110, Note_on_c, 9, 36, 0
14, 190560, Note_on_c, 9, 37, 127
14, 190560, Note_on_c, 9, 39, 127
14, 190590, Note_on_c, 9, 39, 0
14, 190590, Note_on_c, 9, 37, 0
14, 190800, Note_on_c, 9, 36, 127
14, 190830, Note_on_c, 9, 36, 0
14, 191280, Note_on_c, 9, 36, 127
14, 191310, Note_on_c, 9, 36, 0
14, 191520, Note_on_c, 9, 37, 127
14, 191520, Note_on_c, 9, 39, 127
14, 191550, Note_on_c, 9, 39, 0
14, 191550, Note_on_c, 9, 37, 0
14, 192000, Note_on_c, 9, 36, 127
14, 192030, Note_on_c, 9, 36, 0
14, 192480, Note_on_c, 9, 46, 99
14, 192480, Note_on_c, 9, 37, 127
14, 192480, Note_on_c, 9, 39, 127
14, 192510, Note_on_c, 9, 39, 0
14, 192510, Note_on_c, 9, 37, 0
14, 192510, Note_on_c, 9, 46, 0
14, 192720, Note_on_c, 9, 36, 127
14, 192750, Note_on_c, 9, 36, 0
14, 193200, Note_on_c, 9, 36, 127
14, 193230, Note_on_c, 9, 36, 0
14, 193440, Note_on_c, 9, 37, 127
14, 193440, Note_on_c, 9, 39, 127
14, 193470, Note_on_c, 9, 39, 0
14, 193470, Note_on_c, 9, 37, 0
14, 193920, Note_on_c, 9, 36, 127
14, 193950, Note_on_c, 9, 36, 0
14, 194400, Note_on_c, 9, 37, 127
14, 194400, Note_on_c, 9, 39, 127
14, 194430, Note_on_c, 9, 39, 0
14, 194430, Note_on_c, 9, 37, 0
14, 194640, Note_on_c, 9, 36, 127
14, 194670, Note_on_c, 9, 36, 0
14, 195120, Note_on_c, 9, 36, 127
14, 195150, Note_on_c, 9, 36, 0
14, 195360, Note_on_c, 9, 37, 127
14, 195360, Note_on_c, 9, 39, 127
14, 195390, Note_on_c, 9, 39, 0
14, 195390, Note_on_c, 9, 37, 0
14, 195840, Note_on_c, 9, 36, 127
14, 195870, Note_on_c, 9, 36, 0
14, 196320, Note_on_c, 9, 46, 99
14, 196320, Note_on_c, 9, 37, 127
14, 196320, Note_on_c, 9, 39, 127
14, 196350, Note_on_c, 9, 39, 0
14, 196350, Note_on_c, 9, 37, 0
14, 196350, Note_on_c, 9, 46, 0
14, 196560, Note_on_c, 9, 36, 127
14, 196590, Note_on_c, 9, 36, 0
14, 197040, Note_on_c, 9, 36, 127
14, 197070, Note_on_c, 9, 36, 0
14, 197280, Note_on_c, 9, 37, 127
14, 197280, Note_on_c, 9, 39, 127
14, 197310, Note_on_c, 9, 39, 0
14, 197310, Note_on_c, 9, 37, 0
14, 197760, Note_on_c, 9, 36, 127
14, 197790, Note_on_c, 9, 36, 0
14, 198240, Note_on_c, 9, 37, 127
14, 198240, Note_on_c, 9, 39, 127
14, 198270, Note_on_c, 9, 39, 0
14, 198270, Note_on_c, 9, 37, 0
14, 198480, Note_on_c, 9, 36, 127
14, 198510, Note_on_c, 9, 36, 0
14, 198960, Note_on_c, 9, 36, 127
14, 198990, Note_on_c, 9, 36, 0
14, 199200, Note_on_c, 9, 37, 127
14, 199200, Note_on_c, 9, 39, 127
14, 199230, Note_on_c, 9, 39, 0
14, 199230, Note_on_c, 9, 37, 0
14, 199680, Note_on_c, 9, 36, 127
14, 199710, Note_on_c, 9, 36, 0
14, 200160, Note_on_c, 9, 46, 99
14, 200160, Note_on_c, 9, 37, 127
14, 200160, Note_on_c, 9, 39, 127
14, 200190, Note_on_c, 9, 39, 0
14, 200190, Note_on_c, 9, 37, 0
14, 200190, Note_on_c, 9, 46, 0
14, 200400, Note_on_c, 9, 36, 127
14, 200430, Note_on_c, 9, 36, 0
14, 200880, Note_on_c, 9, 36, 127
14, 200910, Note_on_c, 9, 36, 0
14, 201120, Note_on_c, 9, 37, 127
14, 201120, Note_on_c, 9, 39, 127
14, 201150, Note_on_c, 9, 39, 0
14, 201150, Note_on_c, 9, 37, 0
14, 201600, Note_on_c, 9, 36, 127
14, 201630, Note_on_c, 9, 36, 0
14, 202080, Note_on_c, 9, 37, 127
14, 202080, Note_on_c, 9, 39, 127
14, 202110, Note_on_c, 9, 39, 0
14, 202110, Note_on_c, 9, 37, 0
14, 202320, Note_on_c, 9, 36, 127
14, 202350, Note_on_c, 9, 36, 0
14, 202800, Note_on_c, 9, 36, 127
14, 202830, Note_on_c, 9, 36, 0
14, 203040, Note_on_c, 9, 37, 127
14, 203040, Note_on_c, 9, 39, 127
14, 203070, Note_on_c, 9, 39, 0
14, 203070, Note_on_c, 9, 37, 0
14, 203520, Note_on_c, 9, 36, 127
14, 203550, Note_on_c, 9, 36, 0
14, 204000, Note_on_c, 9, 46, 99
14, 204000, Note_on_c, 9, 37, 127
14, 204000, Note_on_c, 9, 39, 127
14, 204030, Note_on_c, 9, 39, 0
14, 204030, Note_on_c, 9, 37, 0
14, 204030, Note_on_c, 9, 46, 0
14, 204240, Note_on_c, 9, 36, 127
14, 204270, Note_on_c, 9, 36, 0
14, 204720, Note_on_c, 9, 36, 127
14, 204750, Note_on_c, 9, 36, 0
14, 204960, Note_on_c, 9, 37, 127
14, 204960, Note_on_c, 9, 39, 127
14, 204990, Note_on_c, 9, 39, 0
14, 204990, Note_on_c, 9, 37, 0
14, 205440, Note_on_c, 9, 36, 127
14, 205470, Note_on_c, 9, 36, 0
14, 205920, Note_on_c, 9, 37, 127
14, 205920, Note_on_c, 9, 39, 127
14, 205950, Note_on_c, 9, 39, 0
14, 205950, Note_on_c, 9, 37, 0
14, 206160, Note_on_c, 9, 36, 127
14, 206190, Note_on_c, 9, 36, 0
14, 206640, Note_on_c, 9, 36, 127
14, 206670, Note_on_c, 9, 36, 0
14, 206880, Note_on_c, 9, 37, 127
14, 206880, Note_on_c, 9, 39, 127
14, 206910, Note_on_c, 9, 39, 0
14, 206910, Note_on_c, 9, 37, 0
14, 207360, Note_on_c, 9, 36, 127
14, 207390, Note_on_c, 9, 36, 0
14, 207840, Note_on_c, 9, 46, 99
14, 207840, Note_on_c, 9, 37, 127
14, 207840, Note_on_c, 9, 39, 127
14, 207870, Note_on_c, 9, 39, 0
14, 207870, Note_on_c, 9, 37, 0
14, 207870, Note_on_c, 9, 46, 0
14, 208080, Note_on_c, 9, 36, 127
14, 208110, Note_on_c, 9, 36, 0
14, 208560, Note_on_c, 9, 36, 127
14, 208590, Note_on_c, 9, 36, 0
14, 208800, Note_on_c, 9, 37, 127
14, 208800, Note_on_c, 9, 39, 127
14, 208830, Note_on_c, 9, 39, 0
14, 208830, Note_on_c, 9, 37, 0
14, 209280, Note_on_c, 9, 36, 127
14, 209310, Note_on_c, 9, 36, 0
14, 209760, Note_on_c, 9, 37, 127
14, 209760, Note_on_c, 9, 39, 127
14, 209790, Note_on_c, 9, 39, 0
14, 209790, Note_on_c, 9, 37, 0
14, 210000, Note_on_c, 9, 36, 127
14, 210030, Note_on_c, 9, 36, 0
14, 210480, Note_on_c, 9, 36, 127
14, 210510, Note_on_c, 9, 36, 0
14, 210720, Note_on_c, 9, 37, 127
14, 210720, Note_on_c, 9, 39, 127
14, 210750, Note_on_c, 9, 39, 0
14, 210750, Note_on_c, 9, 37, 0
14, 211200, Note_on_c, 9, 36, 127
14, 211230, Note_on_c, 9, 36, 0
14, 211680, Note_on_c, 9, 46, 99
14, 211680, Note_on_c, 9, 37, 127
14, 211680, Note_on_c, 9, 39, 127
14, 211710, Note_on_c, 9, 39, 0
14, 211710, Note_on_c, 9, 37, 0
14, 211710, Note_on_c, 9, 46, 0
14, 211920, Note_on_c, 9, 36, 127
14, 211950, Note_on_c, 9, 36, 0
14, 212400, Note_on_c, 9, 36, 127
14, 212430, Note_on_c, 9, 36, 0
14, 212640, Note_on_c, 9, 37, 127
14, 212640, Note_on_c, 9, 39, 127
14, 212670, Note_on_c, 9, 39, 0
14, 212670, Note_on_c, 9, 37, 0
14, 213120, Note_on_c, 9, 36, 127
14, 213150, Note_on_c, 9, 36, 0
14, 213600, Note_on_c, 9, 37, 127
14, 213600, Note_on_c, 9, 39, 127
14, 213630, Note_on_c, 9, 39, 0
14, 213630, Note_on_c, 9, 37, 0
14, 213840, Note_on_c, 9, 36, 127
14, 213870, Note_on_c, 9, 36, 0
14, 214320, Note_on_c, 9, 36, 127
14, 214350, Note_on_c, 9, 36, 0
14, 214560, Note_on_c, 9, 37, 127
14, 214560, Note_on_c, 9, 39, 127
14, 214590, Note_on_c, 9, 39, 0
14, 214590, Note_on_c, 9, 37, 0
14, 214590, End_track
0, 0, End_of_file
