0, 0, Header, 1, 12, 384
1, 0, Start_track
1, 0, Time_signature, 4, 2, 96, 8
1, 0, Sequencer_specific, 3, 0, 0, 65
1, 0, Tempo, 480000
1, 0, End_track
2, 0, Start_track
2, 0, Title_t, "Vocal Melody"
2, 0, Control_c, 1, 0, 0
2, 0, Program_c, 1, 56
2, 0, Control_c, 1, 7, 110
2, 0, Control_c, 1, 10, 38
2, 0, Control_c, 1, 91, 24
2, 0, Control_c, 1, 93, 17
2, 0, Key_signature, 0, "major"
2, 960, Note_on_c, 1, 50, 112
2, 1024, Note_off_c, 1, 50, 0
2, 1056, Note_on_c, 1, 51, 112
2, 1340, Note_off_c, 1, 51, 0
2, 1344, Note_on_c, 1, 52, 112
2, 1724, Note_off_c, 1, 52, 0
2, 2496, Note_on_c, 1, 51, 112
2, 2684, Note_off_c, 1, 51, 0
2, 2688, Note_on_c, 1, 52, 112
2, 2876, Note_off_c, 1, 52, 0
2, 2880, Note_on_c, 1, 54, 112
2, 3264, Note_off_c, 1, 54, 0
2, 4032, Note_on_c, 1, 52, 112
2, 4220, Note_off_c, 1, 52, 0
2, 4224, Note_on_c, 1, 54, 112
2, 4512, Note_on_c, 1, 55, 112
2, 4604, Note_off_c, 1, 54, 0
2, 5660, Note_off_c, 1, 55, 0
2, 7680, Note_on_c, 1, 50, 112
2, 8060, Note_off_c, 1, 50, 0
2, 8064, Note_on_c, 1, 50, 112
2, 8348, Note_off_c, 1, 50, 0
2, 8352, Note_on_c, 1, 50, 112
2, 8444, Note_off_c, 1, 50, 0
2, 8448, Note_on_c, 1, 50, 112
2, 8828, Note_off_c, 1, 50, 0
2, 8832, Note_on_c, 1, 50, 112
2, 9116, Note_off_c, 1, 50, 0
2, 9120, Note_on_c, 1, 50, 112
2, 9212, Note_off_c, 1, 50, 0
2, 9216, Note_on_c, 1, 52, 112
2, 9404, Note_off_c, 1, 52, 0
2, 9408, Note_on_c, 1, 55, 112
2, 9692, Note_off_c, 1, 55, 0
2, 10752, Note_on_c, 1, 50, 112
2, 11132, Note_off_c, 1, 50, 0
2, 11136, Note_on_c, 1, 50, 112
2, 11420, Note_off_c, 1, 50, 0
2, 11424, Note_on_c, 1, 50, 112
2, 11516, Note_off_c, 1, 50, 0
2, 11520, Note_on_c, 1, 52, 112
2, 11900, Note_off_c, 1, 52, 0
2, 11904, Note_on_c, 1, 50, 112
2, 12092, Note_off_c, 1, 50, 0
2, 12192, Note_on_c, 1, 50, 112
2, 12476, Note_off_c, 1, 50, 0
2, 13824, Note_on_c, 1, 59, 112
2, 14204, Note_off_c, 1, 59, 0
2, 14208, Note_on_c, 1, 59, 112
2, 14492, Note_off_c, 1, 59, 0
2, 14496, Note_on_c, 1, 59, 112
2, 14976, Note_on_c, 1, 57, 112
2, 15068, Note_off_c, 1, 59, 0
2, 15260, Note_off_c, 1, 57, 0
2, 15264, Note_on_c, 1, 59, 112
2, 15356, Note_off_c, 1, 59, 0
2, 15360, Note_on_c, 1, 57, 112
2, 15740, Note_off_c, 1, 57, 0
2, 15744, Note_on_c, 1, 55, 112
2, 16028, Note_off_c, 1, 55, 0
2, 16032, Note_on_c, 1, 55, 112
2, 16412, Note_off_c, 1, 55, 0
2, 16512, Note_on_c, 1, 52, 112
2, 16796, Note_off_c, 1, 52, 0
2, 16800, Note_on_c, 1, 52, 112
2, 16892, Note_off_c, 1, 52, 0
2, 16896, Note_on_c, 1, 50, 112
2, 17276, Note_off_c, 1, 50, 0
2, 17280, Note_on_c, 1, 60, 112
2, 17660, Note_off_c, 1, 60, 0
2, 17664, Note_on_c, 1, 59, 112
2, 17952, Note_on_c, 1, 50, 112
2, 18044, Note_off_c, 1, 59, 0
2, 18044, Note_off_c, 1, 50, 0
2, 18048, Note_on_c, 1, 57, 112
2, 18428, Note_off_c, 1, 57, 0
2, 18432, Note_on_c, 1, 55, 112
2, 18812, Note_off_c, 1, 55, 0
2, 18816, Note_on_c, 1, 50, 112
2, 19100, Note_off_c, 1, 50, 0
2, 19104, Note_on_c, 1, 50, 112
2, 19196, Note_off_c, 1, 50, 0
2, 19200, Note_on_c, 1, 52, 112
2, 19580, Note_off_c, 1, 52, 0
2, 19584, Note_on_c, 1, 50, 112
2, 19964, Note_off_c, 1, 50, 0
2, 19968, Note_on_c, 1, 54, 112
2, 20348, Note_off_c, 1, 54, 0
2, 20352, Note_on_c, 1, 54, 112
2, 20732, Note_off_c, 1, 54, 0
2, 20736, Note_on_c, 1, 54, 112
2, 20924, Note_off_c, 1, 54, 0
2, 20928, Note_on_c, 1, 54, 112
2, 21116, Note_off_c, 1, 54, 0
2, 21504, Note_on_c, 1, 54, 112
2, 21692, Note_off_c, 1, 54, 0
2, 21696, Note_on_c, 1, 54, 112
2, 22076, Note_off_c, 1, 54, 0
2, 22080, Note_on_c, 1, 54, 112
2, 22460, Note_off_c, 1, 54, 0
2, 22464, Note_on_c, 1, 50, 112
2, 22604, Note_off_c, 1, 50, 0
2, 22656, Note_on_c, 1, 52, 112
2, 22848, Note_on_c, 1, 55, 112
2, 22940, Note_off_c, 1, 52, 0
2, 23104, Note_off_c, 1, 55, 0
2, 23424, Note_on_c, 1, 55, 112
2, 23804, Note_off_c, 1, 55, 0
2, 23808, Note_on_c, 1, 55, 112
2, 24188, Note_off_c, 1, 55, 0
2, 24384, Note_on_c, 1, 55, 112
2, 24572, Note_off_c, 1, 55, 0
2, 24576, Note_on_c, 1, 52, 112
2, 24764, Note_off_c, 1, 52, 0
2, 24768, Note_on_c, 1, 50, 112
2, 25152, Note_off_c, 1, 50, 0
2, 25536, Note_on_c, 1, 50, 112
2, 25724, Note_off_c, 1, 50, 0
2, 25728, Note_on_c, 1, 52, 112
2, 26012, Note_off_c, 1, 52, 0
2, 26016, Note_on_c, 1, 50, 112
2, 26112, Note_off_c, 1, 50, 0
2, 26112, Note_on_c, 1, 54, 112
2, 26492, Note_off_c, 1, 54, 0
2, 26496, Note_on_c, 1, 54, 112
2, 26876, Note_off_c, 1, 54, 0
2, 26880, Note_on_c, 1, 54, 112
2, 27068, Note_off_c, 1, 54, 0
2, 27072, Note_on_c, 1, 54, 112
2, 27260, Note_off_c, 1, 54, 0
2, 27648, Note_on_c, 1, 54, 112
2, 27836, Note_off_c, 1, 54, 0
2, 27840, Note_on_c, 1, 54, 112
2, 28220, Note_off_c, 1, 54, 0
2, 28224, Note_on_c, 1, 54, 112
2, 28604, Note_off_c, 1, 54, 0
2, 28608, Note_on_c, 1, 50, 112
2, 28796, Note_off_c, 1, 50, 0
2, 28800, Note_on_c, 1, 51, 112
2, 28988, Note_off_c, 1, 51, 0
2, 28992, Note_on_c, 1, 52, 112
2, 29372, Note_off_c, 1, 52, 0
2, 30144, Note_on_c, 1, 51, 112
2, 30332, Note_off_c, 1, 51, 0
2, 30336, Note_on_c, 1, 52, 112
2, 30524, Note_off_c, 1, 52, 0
2, 30624, Note_on_c, 1, 54, 112
2, 30880, Note_off_c, 1, 54, 0
2, 31680, Note_on_c, 1, 52, 112
2, 31868, Note_off_c, 1, 52, 0
2, 31872, Note_on_c, 1, 54, 112
2, 32160, Note_on_c, 1, 55, 112
2, 32252, Note_off_c, 1, 54, 0
2, 33308, Note_off_c, 1, 55, 0
2, 35328, Note_on_c, 1, 50, 112
2, 35708, Note_off_c, 1, 50, 0
2, 35712, Note_on_c, 1, 50, 112
2, 35996, Note_off_c, 1, 50, 0
2, 36000, Note_on_c, 1, 50, 112
2, 36092, Note_off_c, 1, 50, 0
2, 36096, Note_on_c, 1, 50, 112
2, 36476, Note_off_c, 1, 50, 0
2, 36480, Note_on_c, 1, 50, 112
2, 36764, Note_off_c, 1, 50, 0
2, 36768, Note_on_c, 1, 50, 112
2, 36860, Note_off_c, 1, 50, 0
2, 36864, Note_on_c, 1, 52, 112
2, 37052, Note_off_c, 1, 52, 0
2, 37056, Note_on_c, 1, 55, 112
2, 37312, Note_off_c, 1, 55, 0
2, 38400, Note_on_c, 1, 50, 112
2, 38780, Note_off_c, 1, 50, 0
2, 38784, Note_on_c, 1, 50, 112
2, 39068, Note_off_c, 1, 50, 0
2, 39072, Note_on_c, 1, 50, 112
2, 39164, Note_off_c, 1, 50, 0
2, 39168, Note_on_c, 1, 52, 112
2, 39548, Note_off_c, 1, 52, 0
2, 39552, Note_on_c, 1, 50, 112
2, 39740, Note_off_c, 1, 50, 0
2, 39840, Note_on_c, 1, 50, 112
2, 40224, Note_off_c, 1, 50, 0
2, 41472, Note_on_c, 1, 59, 112
2, 41852, Note_off_c, 1, 59, 0
2, 41856, Note_on_c, 1, 59, 112
2, 42140, Note_off_c, 1, 59, 0
2, 42144, Note_on_c, 1, 59, 112
2, 42616, Note_off_c, 1, 59, 0
2, 42624, Note_on_c, 1, 57, 112
2, 42908, Note_off_c, 1, 57, 0
2, 42912, Note_on_c, 1, 59, 112
2, 43004, Note_off_c, 1, 59, 0
2, 43008, Note_on_c, 1, 57, 112
2, 43388, Note_off_c, 1, 57, 0
2, 43392, Note_on_c, 1, 55, 112
2, 43676, Note_off_c, 1, 55, 0
2, 43680, Note_on_c, 1, 55, 112
2, 44060, Note_off_c, 1, 55, 0
2, 44160, Note_on_c, 1, 52, 112
2, 44444, Note_off_c, 1, 52, 0
2, 44448, Note_on_c, 1, 52, 112
2, 44540, Note_off_c, 1, 52, 0
2, 44544, Note_on_c, 1, 50, 112
2, 44924, Note_off_c, 1, 50, 0
2, 44928, Note_on_c, 1, 60, 112
2, 45308, Note_off_c, 1, 60, 0
2, 45312, Note_on_c, 1, 59, 112
2, 45600, Note_on_c, 1, 50, 112
2, 45692, Note_off_c, 1, 59, 0
2, 45692, Note_off_c, 1, 50, 0
2, 45696, Note_on_c, 1, 57, 112
2, 46076, Note_off_c, 1, 57, 0
2, 46080, Note_on_c, 1, 55, 112
2, 46460, Note_off_c, 1, 55, 0
2, 46464, Note_on_c, 1, 50, 112
2, 46748, Note_off_c, 1, 50, 0
2, 46752, Note_on_c, 1, 50, 112
2, 46844, Note_off_c, 1, 50, 0
2, 46848, Note_on_c, 1, 52, 112
2, 47228, Note_off_c, 1, 52, 0
2, 47232, Note_on_c, 1, 50, 112
2, 47612, Note_off_c, 1, 50, 0
2, 47616, Note_on_c, 1, 54, 112
2, 47996, Note_off_c, 1, 54, 0
2, 48000, Note_on_c, 1, 54, 112
2, 48380, Note_off_c, 1, 54, 0
2, 48384, Note_on_c, 1, 54, 112
2, 48572, Note_off_c, 1, 54, 0
2, 48576, Note_on_c, 1, 54, 112
2, 48764, Note_off_c, 1, 54, 0
2, 49152, Note_on_c, 1, 54, 112
2, 49340, Note_off_c, 1, 54, 0
2, 49344, Note_on_c, 1, 54, 112
2, 49724, Note_off_c, 1, 54, 0
2, 49728, Note_on_c, 1, 54, 112
2, 50108, Note_off_c, 1, 54, 0
2, 50112, Note_on_c, 1, 50, 112
2, 50252, Note_off_c, 1, 50, 0
2, 50304, Note_on_c, 1, 52, 112
2, 50588, Note_off_c, 1, 52, 0
2, 50592, Note_on_c, 1, 55, 112
2, 50784, Note_off_c, 1, 55, 0
2, 51072, Note_on_c, 1, 55, 112
2, 51328, Note_off_c, 1, 55, 0
2, 51456, Note_on_c, 1, 55, 112
2, 52028, Note_off_c, 1, 55, 0
2, 52032, Note_on_c, 1, 55, 112
2, 52220, Note_off_c, 1, 55, 0
2, 52224, Note_on_c, 1, 52, 112
2, 52412, Note_off_c, 1, 52, 0
2, 52416, Note_on_c, 1, 50, 112
2, 52604, Note_off_c, 1, 50, 0
2, 53184, Note_on_c, 1, 50, 112
2, 53372, Note_off_c, 1, 50, 0
2, 53376, Note_on_c, 1, 52, 112
2, 53660, Note_off_c, 1, 52, 0
2, 53664, Note_on_c, 1, 50, 112
2, 53760, Note_off_c, 1, 50, 0
2, 53760, Note_on_c, 1, 54, 112
2, 54140, Note_off_c, 1, 54, 0
2, 54144, Note_on_c, 1, 54, 112
2, 54524, Note_off_c, 1, 54, 0
2, 54528, Note_on_c, 1, 54, 112
2, 54716, Note_off_c, 1, 54, 0
2, 54720, Note_on_c, 1, 54, 112
2, 54908, Note_off_c, 1, 54, 0
2, 55296, Note_on_c, 1, 54, 112
2, 55484, Note_off_c, 1, 54, 0
2, 55488, Note_on_c, 1, 54, 112
2, 55868, Note_off_c, 1, 54, 0
2, 55872, Note_on_c, 1, 54, 112
2, 56252, Note_off_c, 1, 54, 0
2, 56256, Note_on_c, 1, 50, 112
2, 56444, Note_off_c, 1, 50, 0
2, 56448, Note_on_c, 1, 51, 112
2, 56732, Note_off_c, 1, 51, 0
2, 56736, Note_on_c, 1, 52, 112
2, 56992, Note_off_c, 1, 52, 0
2, 57792, Note_on_c, 1, 51, 112
2, 57980, Note_off_c, 1, 51, 0
2, 57984, Note_on_c, 1, 52, 112
2, 58172, Note_off_c, 1, 52, 0
2, 58272, Note_on_c, 1, 54, 112
2, 58528, Note_off_c, 1, 54, 0
2, 59328, Note_on_c, 1, 52, 112
2, 59516, Note_off_c, 1, 52, 0
2, 59520, Note_on_c, 1, 54, 112
2, 59808, Note_on_c, 1, 55, 112
2, 59900, Note_off_c, 1, 54, 0
2, 60956, Note_off_c, 1, 55, 0
2, 62400, Note_on_c, 1, 50, 112
2, 62588, Note_off_c, 1, 50, 0
2, 62592, Note_on_c, 1, 51, 112
2, 62780, Note_off_c, 1, 51, 0
2, 62880, Note_on_c, 1, 52, 112
2, 63136, Note_off_c, 1, 52, 0
2, 63936, Note_on_c, 1, 51, 112
2, 64124, Note_off_c, 1, 51, 0
2, 64128, Note_on_c, 1, 52, 112
2, 64316, Note_off_c, 1, 52, 0
2, 64320, Note_on_c, 1, 54, 112
2, 64576, Note_off_c, 1, 54, 0
2, 65568, Note_on_c, 1, 52, 112
2, 65660, Note_off_c, 1, 52, 0
2, 65664, Note_on_c, 1, 54, 112
2, 65948, Note_off_c, 1, 54, 0
2, 65952, Note_on_c, 1, 55, 112
2, 67100, Note_off_c, 1, 55, 0
2, 70080, Note_on_c, 1, 51, 112
2, 70268, Note_off_c, 1, 51, 0
2, 70272, Note_on_c, 1, 52, 112
2, 70460, Note_off_c, 1, 52, 0
2, 70560, Note_on_c, 1, 54, 112
2, 70752, Note_off_c, 1, 54, 0
2, 71616, Note_on_c, 1, 52, 112
2, 71804, Note_off_c, 1, 52, 0
2, 71808, Note_on_c, 1, 54, 112
2, 72096, Note_on_c, 1, 55, 112
2, 72188, Note_off_c, 1, 54, 0
2, 73244, Note_off_c, 1, 55, 0
2, 75264, Note_on_c, 1, 50, 112
2, 75644, Note_off_c, 1, 50, 0
2, 75648, Note_on_c, 1, 50, 112
2, 75932, Note_off_c, 1, 50, 0
2, 75936, Note_on_c, 1, 50, 112
2, 76028, Note_off_c, 1, 50, 0
2, 76032, Note_on_c, 1, 50, 112
2, 76412, Note_off_c, 1, 50, 0
2, 76416, Note_on_c, 1, 50, 112
2, 76700, Note_off_c, 1, 50, 0
2, 76704, Note_on_c, 1, 50, 112
2, 76796, Note_off_c, 1, 50, 0
2, 76800, Note_on_c, 1, 52, 112
2, 76988, Note_off_c, 1, 52, 0
2, 76992, Note_on_c, 1, 55, 112
2, 77248, Note_off_c, 1, 55, 0
2, 78336, Note_on_c, 1, 50, 112
2, 78716, Note_off_c, 1, 50, 0
2, 78720, Note_on_c, 1, 50, 112
2, 79004, Note_off_c, 1, 50, 0
2, 79008, Note_on_c, 1, 50, 112
2, 79072, Note_off_c, 1, 50, 0
2, 79104, Note_on_c, 1, 52, 112
2, 79484, Note_off_c, 1, 52, 0
2, 79488, Note_on_c, 1, 50, 112
2, 79676, Note_off_c, 1, 50, 0
2, 79776, Note_on_c, 1, 50, 112
2, 80160, Note_off_c, 1, 50, 0
2, 81408, Note_on_c, 1, 59, 112
2, 81788, Note_off_c, 1, 59, 0
2, 81792, Note_on_c, 1, 59, 112
2, 82076, Note_off_c, 1, 59, 0
2, 82080, Note_on_c, 1, 59, 112
2, 82552, Note_off_c, 1, 59, 0
2, 82560, Note_on_c, 1, 57, 112
2, 82844, Note_off_c, 1, 57, 0
2, 82848, Note_on_c, 1, 59, 112
2, 82940, Note_off_c, 1, 59, 0
2, 82944, Note_on_c, 1, 57, 112
2, 83324, Note_off_c, 1, 57, 0
2, 83328, Note_on_c, 1, 55, 112
2, 83612, Note_off_c, 1, 55, 0
2, 83616, Note_on_c, 1, 55, 112
2, 83996, Note_off_c, 1, 55, 0
2, 84096, Note_on_c, 1, 52, 112
2, 84380, Note_off_c, 1, 52, 0
2, 84384, Note_on_c, 1, 52, 112
2, 84476, Note_off_c, 1, 52, 0
2, 84480, Note_on_c, 1, 50, 112
2, 84860, Note_off_c, 1, 50, 0
2, 84864, Note_on_c, 1, 60, 112
2, 85244, Note_off_c, 1, 60, 0
2, 85248, Note_on_c, 1, 59, 112
2, 85536, Note_on_c, 1, 50, 112
2, 85628, Note_off_c, 1, 59, 0
2, 85628, Note_off_c, 1, 50, 0
2, 85632, Note_on_c, 1, 57, 112
2, 86012, Note_off_c, 1, 57, 0
2, 86016, Note_on_c, 1, 55, 112
2, 86396, Note_off_c, 1, 55, 0
2, 86400, Note_on_c, 1, 50, 112
2, 86684, Note_off_c, 1, 50, 0
2, 86688, Note_on_c, 1, 50, 112
2, 86780, Note_off_c, 1, 50, 0
2, 86784, Note_on_c, 1, 52, 112
2, 87164, Note_off_c, 1, 52, 0
2, 87168, Note_on_c, 1, 50, 112
2, 87548, Note_off_c, 1, 50, 0
2, 87552, Note_on_c, 1, 54, 112
2, 87932, Note_off_c, 1, 54, 0
2, 87936, Note_on_c, 1, 54, 112
2, 88316, Note_off_c, 1, 54, 0
2, 88320, Note_on_c, 1, 54, 112
2, 88508, Note_off_c, 1, 54, 0
2, 88512, Note_on_c, 1, 54, 112
2, 88700, Note_off_c, 1, 54, 0
2, 89088, Note_on_c, 1, 54, 112
2, 89276, Note_off_c, 1, 54, 0
2, 89280, Note_on_c, 1, 54, 112
2, 89660, Note_off_c, 1, 54, 0
2, 89664, Note_on_c, 1, 54, 112
2, 90044, Note_off_c, 1, 54, 0
2, 90048, Note_on_c, 1, 50, 112
2, 90188, Note_off_c, 1, 50, 0
2, 90240, Note_on_c, 1, 52, 112
2, 90524, Note_off_c, 1, 52, 0
2, 90528, Note_on_c, 1, 55, 112
2, 90720, Note_off_c, 1, 55, 0
2, 91008, Note_on_c, 1, 55, 112
2, 91388, Note_off_c, 1, 55, 0
2, 91392, Note_on_c, 1, 55, 112
2, 91772, Note_off_c, 1, 55, 0
2, 91968, Note_on_c, 1, 55, 112
2, 92156, Note_off_c, 1, 55, 0
2, 92160, Note_on_c, 1, 52, 112
2, 92348, Note_off_c, 1, 52, 0
2, 92352, Note_on_c, 1, 50, 112
2, 92480, Note_off_c, 1, 50, 0
2, 93120, Note_on_c, 1, 50, 112
2, 93248, Note_off_c, 1, 50, 0
2, 93312, Note_on_c, 1, 52, 112
2, 93596, Note_off_c, 1, 52, 0
2, 93600, Note_on_c, 1, 50, 112
2, 93696, Note_off_c, 1, 50, 0
2, 93696, Note_on_c, 1, 54, 112
2, 94076, Note_off_c, 1, 54, 0
2, 94080, Note_on_c, 1, 54, 112
2, 94460, Note_off_c, 1, 54, 0
2, 94464, Note_on_c, 1, 54, 112
2, 94652, Note_off_c, 1, 54, 0
2, 94656, Note_on_c, 1, 54, 112
2, 94844, Note_off_c, 1, 54, 0
2, 95232, Note_on_c, 1, 54, 112
2, 95420, Note_off_c, 1, 54, 0
2, 95424, Note_on_c, 1, 54, 112
2, 95804, Note_off_c, 1, 54, 0
2, 95808, Note_on_c, 1, 54, 112
2, 96188, Note_off_c, 1, 54, 0
2, 96192, Note_on_c, 1, 50, 112
2, 96380, Note_off_c, 1, 50, 0
2, 96384, Note_on_c, 1, 50, 112
2, 96572, Note_off_c, 1, 50, 0
2, 96576, Note_on_c, 1, 52, 112
2, 96956, Note_off_c, 1, 52, 0
2, 97728, Note_on_c, 1, 51, 112
2, 97916, Note_off_c, 1, 51, 0
2, 97920, Note_on_c, 1, 52, 112
2, 98108, Note_off_c, 1, 52, 0
2, 98208, Note_on_c, 1, 54, 112
2, 98464, Note_off_c, 1, 54, 0
2, 99264, Note_on_c, 1, 52, 112
2, 99452, Note_off_c, 1, 52, 0
2, 99456, Note_on_c, 1, 54, 112
2, 99744, Note_on_c, 1, 55, 112
2, 99836, Note_off_c, 1, 54, 0
2, 100892, Note_off_c, 1, 55, 0
2, 103872, Note_on_c, 1, 51, 116
2, 104060, Note_off_c, 1, 51, 0
2, 104064, Note_on_c, 1, 52, 115
2, 104252, Note_off_c, 1, 52, 0
2, 104352, Note_on_c, 1, 54, 113
2, 104544, Note_off_c, 1, 54, 0
2, 105408, Note_on_c, 1, 52, 97
2, 105596, Note_off_c, 1, 52, 0
2, 105600, Note_on_c, 1, 54, 95
2, 105888, Note_on_c, 1, 55, 94
2, 105980, Note_off_c, 1, 54, 0
2, 107036, Note_off_c, 1, 55, 0
2, 110016, Note_on_c, 1, 51, 68
2, 110204, Note_off_c, 1, 51, 0
2, 110208, Note_on_c, 1, 52, 66
2, 110396, Note_off_c, 1, 52, 0
2, 110496, Note_on_c, 1, 54, 64
2, 110688, Note_off_c, 1, 54, 0
2, 111552, Note_on_c, 1, 52, 58
2, 111740, Note_off_c, 1, 52, 0
2, 111744, Note_on_c, 1, 54, 57
2, 112032, Note_on_c, 1, 55, 55
2, 112124, Note_off_c, 1, 54, 0
2, 113180, Note_off_c, 1, 55, 0
2, 116160, Note_on_c, 1, 51, 29
2, 116348, Note_off_c, 1, 51, 0
2, 116352, Note_on_c, 1, 52, 27
2, 116540, Note_off_c, 1, 52, 0
2, 116640, Note_on_c, 1, 54, 26
2, 116832, Note_off_c, 1, 54, 0
2, 117696, Note_on_c, 1, 52, 19
2, 117884, Note_off_c, 1, 52, 0
2, 117888, Note_on_c, 1, 54, 18
2, 118176, Note_on_c, 1, 55, 16
2, 118268, Note_off_c, 1, 54, 0
2, 119324, Note_off_c, 1, 55, 0
2, 119324, End_track
3, 0, Start_track
3, 0, Title_t, "Elvis"
3, 0, Control_c, 0, 0, 0
3, 0, Program_c, 0, 71
3, 0, Control_c, 0, 7, 120
3, 0, Control_c, 0, 10, 63
3, 0, Control_c, 0, 91, 28
3, 0, Control_c, 0, 93, 17
3, 0, Key_signature, 0, "major"
3, 960, Note_on_c, 0, 50, 118
3, 1024, Note_off_c, 0, 50, 0
3, 1056, Note_on_c, 0, 51, 118
3, 1340, Note_off_c, 0, 51, 0
3, 1344, Note_on_c, 0, 52, 118
3, 1600, Note_off_c, 0, 52, 0
3, 2496, Note_on_c, 0, 51, 118
3, 2684, Note_off_c, 0, 51, 0
3, 2688, Note_on_c, 0, 52, 118
3, 2876, Note_off_c, 0, 52, 0
3, 2880, Note_on_c, 0, 54, 118
3, 3264, Note_off_c, 0, 54, 0
3, 4032, Note_on_c, 0, 52, 106
3, 4032, Note_on_c, 0, 60, 95
3, 4220, Note_off_c, 0, 52, 0
3, 4220, Note_off_c, 0, 60, 0
3, 4224, Note_on_c, 0, 54, 106
3, 4224, Note_on_c, 0, 60, 97
3, 4412, Note_off_c, 0, 60, 0
3, 4512, Note_on_c, 0, 55, 118
3, 4604, Note_off_c, 0, 54, 0
3, 5660, Note_off_c, 0, 55, 0
3, 7680, Note_on_c, 0, 50, 118
3, 8060, Note_off_c, 0, 50, 0
3, 8064, Note_on_c, 0, 50, 118
3, 8348, Note_off_c, 0, 50, 0
3, 8352, Note_on_c, 0, 50, 118
3, 8444, Note_off_c, 0, 50, 0
3, 8448, Note_on_c, 0, 50, 118
3, 8828, Note_off_c, 0, 50, 0
3, 8832, Note_on_c, 0, 50, 118
3, 9116, Note_off_c, 0, 50, 0
3, 9120, Note_on_c, 0, 50, 118
3, 9212, Note_off_c, 0, 50, 0
3, 9216, Note_on_c, 0, 52, 118
3, 9404, Note_off_c, 0, 52, 0
3, 9408, Note_on_c, 0, 55, 118
3, 9692, Note_off_c, 0, 55, 0
3, 10752, Note_on_c, 0, 50, 118
3, 11132, Note_off_c, 0, 50, 0
3, 11136, Note_on_c, 0, 50, 118
3, 11420, Note_off_c, 0, 50, 0
3, 11424, Note_on_c, 0, 50, 118
3, 11516, Note_off_c, 0, 50, 0
3, 11520, Note_on_c, 0, 52, 118
3, 11900, Note_off_c, 0, 52, 0
3, 11904, Note_on_c, 0, 50, 118
3, 12092, Note_off_c, 0, 50, 0
3, 12192, Note_on_c, 0, 50, 118
3, 12476, Note_off_c, 0, 50, 0
3, 13824, Note_on_c, 0, 59, 118
3, 14204, Note_off_c, 0, 59, 0
3, 14208, Note_on_c, 0, 59, 118
3, 14492, Note_off_c, 0, 59, 0
3, 14496, Note_on_c, 0, 59, 118
3, 14976, Note_on_c, 0, 57, 118
3, 15068, Note_off_c, 0, 59, 0
3, 15260, Note_off_c, 0, 57, 0
3, 15264, Note_on_c, 0, 59, 118
3, 15356, Note_off_c, 0, 59, 0
3, 15360, Note_on_c, 0, 57, 118
3, 15740, Note_off_c, 0, 57, 0
3, 15744, Note_on_c, 0, 55, 118
3, 16028, Note_off_c, 0, 55, 0
3, 16032, Note_on_c, 0, 55, 118
3, 16412, Note_off_c, 0, 55, 0
3, 16512, Note_on_c, 0, 52, 118
3, 16796, Note_off_c, 0, 52, 0
3, 16800, Note_on_c, 0, 52, 118
3, 16892, Note_off_c, 0, 52, 0
3, 16896, Note_on_c, 0, 50, 118
3, 17276, Note_off_c, 0, 50, 0
3, 17280, Note_on_c, 0, 60, 118
3, 17660, Note_off_c, 0, 60, 0
3, 17664, Note_on_c, 0, 59, 118
3, 17952, Note_on_c, 0, 50, 118
3, 18044, Note_off_c, 0, 59, 0
3, 18044, Note_off_c, 0, 50, 0
3, 18048, Note_on_c, 0, 57, 118
3, 18428, Note_off_c, 0, 57, 0
3, 18432, Note_on_c, 0, 55, 118
3, 18812, Note_off_c, 0, 55, 0
3, 18816, Note_on_c, 0, 50, 118
3, 19100, Note_off_c, 0, 50, 0
3, 19104, Note_on_c, 0, 50, 118
3, 19196, Note_off_c, 0, 50, 0
3, 19200, Note_on_c, 0, 52, 118
3, 19580, Note_off_c, 0, 52, 0
3, 19584, Note_on_c, 0, 50, 118
3, 19964, Note_off_c, 0, 50, 0
3, 19968, Note_on_c, 0, 54, 118
3, 20348, Note_off_c, 0, 54, 0
3, 20352, Note_on_c, 0, 54, 118
3, 20732, Note_off_c, 0, 54, 0
3, 20736, Note_on_c, 0, 54, 118
3, 20924, Note_off_c, 0, 54, 0
3, 20928, Note_on_c, 0, 54, 118
3, 21116, Note_off_c, 0, 54, 0
3, 21504, Note_on_c, 0, 54, 118
3, 21692, Note_off_c, 0, 54, 0
3, 21696, Note_on_c, 0, 54, 118
3, 22076, Note_off_c, 0, 54, 0
3, 22080, Note_on_c, 0, 54, 118
3, 22460, Note_off_c, 0, 54, 0
3, 22464, Note_on_c, 0, 50, 118
3, 22604, Note_off_c, 0, 50, 0
3, 22656, Note_on_c, 0, 52, 118
3, 22848, Note_on_c, 0, 55, 118
3, 22940, Note_off_c, 0, 52, 0
3, 23104, Note_off_c, 0, 55, 0
3, 23424, Note_on_c, 0, 55, 118
3, 23804, Note_off_c, 0, 55, 0
3, 23808, Note_on_c, 0, 55, 118
3, 24188, Note_off_c, 0, 55, 0
3, 24384, Note_on_c, 0, 55, 118
3, 24572, Note_off_c, 0, 55, 0
3, 24576, Note_on_c, 0, 52, 118
3, 24764, Note_off_c, 0, 52, 0
3, 24768, Note_on_c, 0, 50, 118
3, 25152, Note_off_c, 0, 50, 0
3, 25536, Note_on_c, 0, 50, 118
3, 25724, Note_off_c, 0, 50, 0
3, 25728, Note_on_c, 0, 52, 118
3, 26012, Note_off_c, 0, 52, 0
3, 26016, Note_on_c, 0, 50, 118
3, 26112, Note_off_c, 0, 50, 0
3, 26112, Note_on_c, 0, 54, 118
3, 26492, Note_off_c, 0, 54, 0
3, 26496, Note_on_c, 0, 54, 118
3, 26876, Note_off_c, 0, 54, 0
3, 26880, Note_on_c, 0, 54, 118
3, 27068, Note_off_c, 0, 54, 0
3, 27072, Note_on_c, 0, 54, 118
3, 27260, Note_off_c, 0, 54, 0
3, 27648, Note_on_c, 0, 54, 118
3, 27836, Note_off_c, 0, 54, 0
3, 27840, Note_on_c, 0, 54, 118
3, 28220, Note_off_c, 0, 54, 0
3, 28224, Note_on_c, 0, 54, 118
3, 28604, Note_off_c, 0, 54, 0
3, 28608, Note_on_c, 0, 57, 107
3, 28796, Note_off_c, 0, 57, 0
3, 28800, Note_on_c, 0, 59, 105
3, 28992, Note_off_c, 0, 59, 0
3, 28992, Note_on_c, 0, 61, 95
3, 28992, Note_on_c, 0, 52, 106
3, 29248, Note_off_c, 0, 52, 0
3, 29376, Note_off_c, 0, 61, 0
3, 30144, Note_on_c, 0, 51, 118
3, 30332, Note_off_c, 0, 51, 0
3, 30336, Note_on_c, 0, 52, 118
3, 30524, Note_off_c, 0, 52, 0
3, 30624, Note_on_c, 0, 54, 104
3, 30624, Note_on_c, 0, 60, 96
3, 30880, Note_off_c, 0, 54, 0
3, 30880, Note_off_c, 0, 60, 0
3, 31680, Note_on_c, 0, 52, 118
3, 31868, Note_off_c, 0, 52, 0
3, 31872, Note_on_c, 0, 54, 118
3, 32160, Note_on_c, 0, 59, 93
3, 32160, Note_on_c, 0, 55, 106
3, 32252, Note_off_c, 0, 54, 0
3, 33308, Note_off_c, 0, 55, 0
3, 33308, Note_off_c, 0, 59, 0
3, 35328, Note_on_c, 0, 50, 118
3, 35708, Note_off_c, 0, 50, 0
3, 35712, Note_on_c, 0, 50, 118
3, 35996, Note_off_c, 0, 50, 0
3, 36000, Note_on_c, 0, 50, 118
3, 36092, Note_off_c, 0, 50, 0
3, 36096, Note_on_c, 0, 50, 118
3, 36476, Note_off_c, 0, 50, 0
3, 36480, Note_on_c, 0, 50, 118
3, 36764, Note_off_c, 0, 50, 0
3, 36768, Note_on_c, 0, 50, 118
3, 36860, Note_off_c, 0, 50, 0
3, 36864, Note_on_c, 0, 52, 118
3, 37052, Note_off_c, 0, 52, 0
3, 37056, Note_on_c, 0, 55, 118
3, 37312, Note_off_c, 0, 55, 0
3, 38400, Note_on_c, 0, 50, 118
3, 38780, Note_off_c, 0, 50, 0
3, 38784, Note_on_c, 0, 50, 118
3, 39068, Note_off_c, 0, 50, 0
3, 39072, Note_on_c, 0, 50, 118
3, 39164, Note_off_c, 0, 50, 0
3, 39168, Note_on_c, 0, 52, 118
3, 39548, Note_off_c, 0, 52, 0
3, 39552, Note_on_c, 0, 50, 118
3, 39740, Note_off_c, 0, 50, 0
3, 39840, Note_on_c, 0, 50, 118
3, 40224, Note_off_c, 0, 50, 0
3, 41472, Note_on_c, 0, 59, 118
3, 41852, Note_off_c, 0, 59, 0
3, 41856, Note_on_c, 0, 59, 118
3, 42140, Note_off_c, 0, 59, 0
3, 42144, Note_on_c, 0, 59, 118
3, 42616, Note_off_c, 0, 59, 0
3, 42624, Note_on_c, 0, 57, 118
3, 42908, Note_off_c, 0, 57, 0
3, 42912, Note_on_c, 0, 59, 118
3, 43004, Note_off_c, 0, 59, 0
3, 43008, Note_on_c, 0, 57, 118
3, 43388, Note_off_c, 0, 57, 0
3, 43392, Note_on_c, 0, 55, 118
3, 43676, Note_off_c, 0, 55, 0
3, 43680, Note_on_c, 0, 55, 118
3, 44060, Note_off_c, 0, 55, 0
3, 44160, Note_on_c, 0, 52, 118
3, 44444, Note_off_c, 0, 52, 0
3, 44448, Note_on_c, 0, 52, 118
3, 44540, Note_off_c, 0, 52, 0
3, 44544, Note_on_c, 0, 50, 118
3, 44924, Note_off_c, 0, 50, 0
3, 44928, Note_on_c, 0, 60, 118
3, 45308, Note_off_c, 0, 60, 0
3, 45312, Note_on_c, 0, 59, 118
3, 45600, Note_on_c, 0, 50, 118
3, 45692, Note_off_c, 0, 59, 0
3, 45692, Note_off_c, 0, 50, 0
3, 45696, Note_on_c, 0, 57, 118
3, 46076, Note_off_c, 0, 57, 0
3, 46080, Note_on_c, 0, 55, 118
3, 46460, Note_off_c, 0, 55, 0
3, 46464, Note_on_c, 0, 50, 118
3, 46748, Note_off_c, 0, 50, 0
3, 46752, Note_on_c, 0, 50, 118
3, 46844, Note_off_c, 0, 50, 0
3, 46848, Note_on_c, 0, 52, 118
3, 47228, Note_off_c, 0, 52, 0
3, 47232, Note_on_c, 0, 50, 118
3, 47612, Note_off_c, 0, 50, 0
3, 47616, Note_on_c, 0, 54, 118
3, 47996, Note_off_c, 0, 54, 0
3, 48000, Note_on_c, 0, 54, 118
3, 48380, Note_off_c, 0, 54, 0
3, 48384, Note_on_c, 0, 54, 118
3, 48572, Note_off_c, 0, 54, 0
3, 48576, Note_on_c, 0, 54, 118
3, 48764, Note_off_c, 0, 54, 0
3, 49152, Note_on_c, 0, 54, 118
3, 49340, Note_off_c, 0, 54, 0
3, 49344, Note_on_c, 0, 54, 118
3, 49724, Note_off_c, 0, 54, 0
3, 49728, Note_on_c, 0, 54, 118
3, 50108, Note_off_c, 0, 54, 0
3, 50112, Note_on_c, 0, 50, 118
3, 50252, Note_off_c, 0, 50, 0
3, 50304, Note_on_c, 0, 52, 118
3, 50588, Note_off_c, 0, 52, 0
3, 50592, Note_on_c, 0, 55, 118
3, 50784, Note_off_c, 0, 55, 0
3, 51072, Note_on_c, 0, 55, 118
3, 51328, Note_off_c, 0, 55, 0
3, 51456, Note_on_c, 0, 55, 118
3, 52028, Note_off_c, 0, 55, 0
3, 52032, Note_on_c, 0, 55, 118
3, 52220, Note_off_c, 0, 55, 0
3, 52224, Note_on_c, 0, 52, 118
3, 52412, Note_off_c, 0, 52, 0
3, 52416, Note_on_c, 0, 50, 118
3, 52604, Note_off_c, 0, 50, 0
3, 53184, Note_on_c, 0, 50, 118
3, 53372, Note_off_c, 0, 50, 0
3, 53376, Note_on_c, 0, 52, 118
3, 53660, Note_off_c, 0, 52, 0
3, 53664, Note_on_c, 0, 50, 118
3, 53760, Note_off_c, 0, 50, 0
3, 53760, Note_on_c, 0, 54, 118
3, 54140, Note_off_c, 0, 54, 0
3, 54144, Note_on_c, 0, 54, 118
3, 54524, Note_off_c, 0, 54, 0
3, 54528, Note_on_c, 0, 54, 118
3, 54716, Note_off_c, 0, 54, 0
3, 54720, Note_on_c, 0, 54, 118
3, 54908, Note_off_c, 0, 54, 0
3, 55296, Note_on_c, 0, 54, 118
3, 55484, Note_off_c, 0, 54, 0
3, 55488, Note_on_c, 0, 54, 118
3, 55868, Note_off_c, 0, 54, 0
3, 55872, Note_on_c, 0, 54, 118
3, 56252, Note_off_c, 0, 54, 0
3, 56256, Note_on_c, 0, 50, 118
3, 56444, Note_off_c, 0, 50, 0
3, 56448, Note_on_c, 0, 51, 118
3, 56732, Note_off_c, 0, 51, 0
3, 56736, Note_on_c, 0, 61, 95
3, 56736, Note_on_c, 0, 52, 106
3, 56992, Note_off_c, 0, 52, 0
3, 57120, Note_off_c, 0, 61, 0
3, 57792, Note_on_c, 0, 51, 118
3, 57980, Note_off_c, 0, 51, 0
3, 57984, Note_on_c, 0, 52, 118
3, 58172, Note_off_c, 0, 52, 0
3, 58272, Note_on_c, 0, 60, 95
3, 58272, Note_on_c, 0, 54, 106
3, 58528, Note_off_c, 0, 54, 0
3, 58528, Note_off_c, 0, 60, 0
3, 59328, Note_on_c, 0, 52, 118
3, 59516, Note_off_c, 0, 52, 0
3, 59520, Note_on_c, 0, 54, 118
3, 59808, Note_on_c, 0, 59, 95
3, 59808, Note_on_c, 0, 55, 104
3, 59900, Note_off_c, 0, 54, 0
3, 60956, Note_off_c, 0, 55, 0
3, 60956, Note_off_c, 0, 59, 0
3, 62400, Note_on_c, 0, 50, 118
3, 62588, Note_off_c, 0, 50, 0
3, 62592, Note_on_c, 0, 51, 118
3, 62780, Note_off_c, 0, 51, 0
3, 62880, Note_on_c, 0, 61, 95
3, 62880, Note_on_c, 0, 52, 103
3, 63136, Note_off_c, 0, 52, 0
3, 63264, Note_off_c, 0, 61, 0
3, 63264, Note_on_c, 0, 33, 118
3, 63356, Note_off_c, 0, 33, 0
3, 63360, Note_on_c, 0, 35, 118
3, 63548, Note_off_c, 0, 35, 0
3, 63552, Note_on_c, 0, 37, 118
3, 63740, Note_off_c, 0, 37, 0
3, 63936, Note_on_c, 0, 51, 118
3, 64124, Note_off_c, 0, 51, 0
3, 64128, Note_on_c, 0, 52, 118
3, 64316, Note_off_c, 0, 52, 0
3, 64320, Note_on_c, 0, 60, 93
3, 64320, Note_on_c, 0, 54, 103
3, 64576, Note_off_c, 0, 54, 0
3, 64576, Note_off_c, 0, 60, 0
3, 64800, Note_on_c, 0, 38, 118
3, 64892, Note_off_c, 0, 38, 0
3, 64896, Note_on_c, 0, 40, 118
3, 65088, Note_on_c, 0, 42, 118
3, 65180, Note_off_c, 0, 40, 0
3, 65372, Note_off_c, 0, 42, 0
3, 65568, Note_on_c, 0, 52, 118
3, 65660, Note_off_c, 0, 52, 0
3, 65664, Note_on_c, 0, 54, 118
3, 65948, Note_off_c, 0, 54, 0
3, 65952, Note_on_c, 0, 59, 95
3, 65952, Note_on_c, 0, 55, 106
3, 67100, Note_off_c, 0, 55, 0
3, 67100, Note_off_c, 0, 59, 0
3, 68544, Note_on_c, 0, 50, 105
3, 68544, Note_on_c, 0, 57, 96
3, 68732, Note_off_c, 0, 50, 0
3, 68732, Note_off_c, 0, 57, 0
3, 68736, Note_on_c, 0, 51, 105
3, 68736, Note_on_c, 0, 59, 97
3, 68924, Note_off_c, 0, 51, 0
3, 68924, Note_off_c, 0, 59, 0
3, 69024, Note_on_c, 0, 61, 96
3, 69024, Note_on_c, 0, 52, 106
3, 69280, Note_off_c, 0, 52, 0
3, 69408, Note_off_c, 0, 61, 0
3, 69408, Note_on_c, 0, 33, 118
3, 69500, Note_off_c, 0, 33, 0
3, 69504, Note_on_c, 0, 35, 118
3, 69692, Note_off_c, 0, 35, 0
3, 69696, Note_on_c, 0, 37, 118
3, 69884, Note_off_c, 0, 37, 0
3, 70080, Note_on_c, 0, 51, 95
3, 70080, Note_on_c, 0, 57, 102
3, 70268, Note_off_c, 0, 51, 0
3, 70268, Note_off_c, 0, 57, 0
3, 70272, Note_on_c, 0, 52, 105
3, 70272, Note_on_c, 0, 59, 96
3, 70460, Note_off_c, 0, 52, 0
3, 70460, Note_off_c, 0, 59, 0
3, 70560, Note_on_c, 0, 54, 104
3, 70560, Note_on_c, 0, 60, 95
3, 70752, Note_off_c, 0, 54, 0
3, 70752, Note_off_c, 0, 60, 0
3, 70944, Note_on_c, 0, 38, 118
3, 71036, Note_off_c, 0, 38, 0
3, 71040, Note_on_c, 0, 40, 118
3, 71232, Note_on_c, 0, 42, 118
3, 71324, Note_off_c, 0, 40, 0
3, 71516, Note_off_c, 0, 42, 0
3, 71616, Note_on_c, 0, 52, 96
3, 71616, Note_on_c, 0, 57, 103
3, 71804, Note_off_c, 0, 52, 0
3, 71804, Note_off_c, 0, 57, 0
3, 71808, Note_on_c, 0, 54, 96
3, 71808, Note_on_c, 0, 58, 104
3, 71996, Note_off_c, 0, 58, 0
3, 72096, Note_on_c, 0, 59, 97
3, 72096, Note_on_c, 0, 55, 105
3, 72188, Note_off_c, 0, 54, 0
3, 73244, Note_off_c, 0, 55, 0
3, 73244, Note_off_c, 0, 59, 0
3, 75264, Note_on_c, 0, 50, 118
3, 75644, Note_off_c, 0, 50, 0
3, 75648, Note_on_c, 0, 50, 118
3, 75932, Note_off_c, 0, 50, 0
3, 75936, Note_on_c, 0, 50, 118
3, 76028, Note_off_c, 0, 50, 0
3, 76032, Note_on_c, 0, 50, 118
3, 76412, Note_off_c, 0, 50, 0
3, 76416, Note_on_c, 0, 50, 118
3, 76700, Note_off_c, 0, 50, 0
3, 76704, Note_on_c, 0, 50, 118
3, 76796, Note_off_c, 0, 50, 0
3, 76800, Note_on_c, 0, 52, 118
3, 76988, Note_off_c, 0, 52, 0
3, 76992, Note_on_c, 0, 55, 118
3, 77248, Note_off_c, 0, 55, 0
3, 78336, Note_on_c, 0, 50, 118
3, 78716, Note_off_c, 0, 50, 0
3, 78720, Note_on_c, 0, 50, 118
3, 79004, Note_off_c, 0, 50, 0
3, 79008, Note_on_c, 0, 50, 118
3, 79072, Note_off_c, 0, 50, 0
3, 79104, Note_on_c, 0, 52, 118
3, 79484, Note_off_c, 0, 52, 0
3, 79488, Note_on_c, 0, 50, 118
3, 79676, Note_off_c, 0, 50, 0
3, 79776, Note_on_c, 0, 50, 118
3, 80160, Note_off_c, 0, 50, 0
3, 81408, Note_on_c, 0, 59, 118
3, 81788, Note_off_c, 0, 59, 0
3, 81792, Note_on_c, 0, 59, 118
3, 82076, Note_off_c, 0, 59, 0
3, 82080, Note_on_c, 0, 59, 118
3, 82552, Note_off_c, 0, 59, 0
3, 82560, Note_on_c, 0, 57, 118
3, 82844, Note_off_c, 0, 57, 0
3, 82848, Note_on_c, 0, 59, 118
3, 82940, Note_off_c, 0, 59, 0
3, 82944, Note_on_c, 0, 57, 118
3, 83324, Note_off_c, 0, 57, 0
3, 83328, Note_on_c, 0, 55, 118
3, 83612, Note_off_c, 0, 55, 0
3, 83616, Note_on_c, 0, 55, 118
3, 83996, Note_off_c, 0, 55, 0
3, 84096, Note_on_c, 0, 52, 118
3, 84380, Note_off_c, 0, 52, 0
3, 84384, Note_on_c, 0, 52, 118
3, 84476, Note_off_c, 0, 52, 0
3, 84480, Note_on_c, 0, 50, 118
3, 84860, Note_off_c, 0, 50, 0
3, 84864, Note_on_c, 0, 60, 118
3, 85244, Note_off_c, 0, 60, 0
3, 85248, Note_on_c, 0, 59, 118
3, 85536, Note_on_c, 0, 50, 118
3, 85628, Note_off_c, 0, 59, 0
3, 85628, Note_off_c, 0, 50, 0
3, 85632, Note_on_c, 0, 57, 118
3, 86012, Note_off_c, 0, 57, 0
3, 86016, Note_on_c, 0, 55, 118
3, 86396, Note_off_c, 0, 55, 0
3, 86400, Note_on_c, 0, 50, 118
3, 86684, Note_off_c, 0, 50, 0
3, 86688, Note_on_c, 0, 50, 118
3, 86780, Note_off_c, 0, 50, 0
3, 86784, Note_on_c, 0, 52, 118
3, 87164, Note_off_c, 0, 52, 0
3, 87168, Note_on_c, 0, 50, 118
3, 87548, Note_off_c, 0, 50, 0
3, 87552, Note_on_c, 0, 54, 118
3, 87932, Note_off_c, 0, 54, 0
3, 87936, Note_on_c, 0, 54, 118
3, 88316, Note_off_c, 0, 54, 0
3, 88320, Note_on_c, 0, 54, 118
3, 88508, Note_off_c, 0, 54, 0
3, 88512, Note_on_c, 0, 54, 118
3, 88700, Note_off_c, 0, 54, 0
3, 89088, Note_on_c, 0, 54, 118
3, 89276, Note_off_c, 0, 54, 0
3, 89280, Note_on_c, 0, 54, 118
3, 89660, Note_off_c, 0, 54, 0
3, 89664, Note_on_c, 0, 54, 118
3, 90044, Note_off_c, 0, 54, 0
3, 90048, Note_on_c, 0, 50, 118
3, 90188, Note_off_c, 0, 50, 0
3, 90240, Note_on_c, 0, 52, 118
3, 90524, Note_off_c, 0, 52, 0
3, 90528, Note_on_c, 0, 55, 118
3, 90720, Note_off_c, 0, 55, 0
3, 91008, Note_on_c, 0, 55, 118
3, 91388, Note_off_c, 0, 55, 0
3, 91392, Note_on_c, 0, 55, 118
3, 91772, Note_off_c, 0, 55, 0
3, 91968, Note_on_c, 0, 55, 118
3, 92156, Note_off_c, 0, 55, 0
3, 92160, Note_on_c, 0, 52, 118
3, 92348, Note_off_c, 0, 52, 0
3, 92352, Note_on_c, 0, 50, 118
3, 92480, Note_off_c, 0, 50, 0
3, 93120, Note_on_c, 0, 50, 118
3, 93248, Note_off_c, 0, 50, 0
3, 93312, Note_on_c, 0, 52, 118
3, 93596, Note_off_c, 0, 52, 0
3, 93600, Note_on_c, 0, 50, 118
3, 93696, Note_off_c, 0, 50, 0
3, 93696, Note_on_c, 0, 54, 118
3, 94076, Note_off_c, 0, 54, 0
3, 94080, Note_on_c, 0, 54, 118
3, 94460, Note_off_c, 0, 54, 0
3, 94464, Note_on_c, 0, 54, 118
3, 94652, Note_off_c, 0, 54, 0
3, 94656, Note_on_c, 0, 54, 118
3, 94844, Note_off_c, 0, 54, 0
3, 95232, Note_on_c, 0, 54, 118
3, 95420, Note_off_c, 0, 54, 0
3, 95424, Note_on_c, 0, 54, 118
3, 95804, Note_off_c, 0, 54, 0
3, 95808, Note_on_c, 0, 54, 118
3, 96188, Note_off_c, 0, 54, 0
3, 96192, Note_on_c, 0, 57, 94
3, 96380, Note_off_c, 0, 57, 0
3, 96384, Note_on_c, 0, 59, 94
3, 96576, Note_off_c, 0, 59, 0
3, 96576, Note_on_c, 0, 61, 92
3, 96576, Note_on_c, 0, 52, 103
3, 96832, Note_off_c, 0, 52, 0
3, 96960, Note_off_c, 0, 61, 0
3, 97728, Note_on_c, 0, 51, 93
3, 97728, Note_on_c, 0, 61, 103
3, 97916, Note_off_c, 0, 51, 0
3, 97916, Note_off_c, 0, 61, 0
3, 97920, Note_on_c, 0, 52, 105
3, 97920, Note_on_c, 0, 61, 93
3, 98108, Note_off_c, 0, 52, 0
3, 98204, Note_off_c, 0, 61, 0
3, 98208, Note_on_c, 0, 60, 92
3, 98208, Note_on_c, 0, 54, 103
3, 98464, Note_off_c, 0, 54, 0
3, 98464, Note_off_c, 0, 60, 0
3, 99264, Note_on_c, 0, 52, 92
3, 99264, Note_on_c, 0, 57, 102
3, 99452, Note_off_c, 0, 52, 0
3, 99452, Note_off_c, 0, 57, 0
3, 99456, Note_on_c, 0, 54, 92
3, 99456, Note_on_c, 0, 58, 105
3, 99644, Note_off_c, 0, 58, 0
3, 99744, Note_on_c, 0, 59, 92
3, 99744, Note_on_c, 0, 55, 108
3, 99836, Note_off_c, 0, 54, 0
3, 100892, Note_off_c, 0, 55, 0
3, 100892, Note_off_c, 0, 59, 0
3, 102336, Note_on_c, 0, 50, 103
3, 102336, Note_on_c, 0, 59, 94
3, 102524, Note_off_c, 0, 50, 0
3, 102524, Note_off_c, 0, 59, 0
3, 102528, Note_on_c, 0, 51, 104
3, 102528, Note_on_c, 0, 60, 93
3, 102716, Note_off_c, 0, 51, 0
3, 102716, Note_off_c, 0, 60, 0
3, 102816, Note_on_c, 0, 61, 93
3, 102816, Note_on_c, 0, 52, 102
3, 103072, Note_off_c, 0, 52, 0
3, 103200, Note_off_c, 0, 61, 0
3, 103200, Note_on_c, 0, 33, 92
3, 103292, Note_off_c, 0, 33, 0
3, 103296, Note_on_c, 0, 35, 91
3, 103484, Note_off_c, 0, 35, 0
3, 103488, Note_on_c, 0, 37, 90
3, 103676, Note_off_c, 0, 37, 0
3, 103872, Note_on_c, 0, 51, 105
3, 103872, Note_on_c, 0, 63, 92
3, 104060, Note_off_c, 0, 51, 0
3, 104060, Note_off_c, 0, 63, 0
3, 104064, Note_on_c, 0, 52, 101
3, 104064, Note_on_c, 0, 61, 91
3, 104252, Note_off_c, 0, 52, 0
3, 104252, Note_off_c, 0, 61, 0
3, 104352, Note_on_c, 0, 54, 101
3, 104352, Note_on_c, 0, 60, 92
3, 104544, Note_off_c, 0, 54, 0
3, 104544, Note_off_c, 0, 60, 0
3, 104736, Note_on_c, 0, 38, 106
3, 104828, Note_off_c, 0, 38, 0
3, 104832, Note_on_c, 0, 40, 106
3, 105024, Note_on_c, 0, 42, 104
3, 105116, Note_off_c, 0, 40, 0
3, 105308, Note_off_c, 0, 42, 0
3, 105408, Note_on_c, 0, 52, 102
3, 105408, Note_on_c, 0, 57, 102
3, 105596, Note_off_c, 0, 52, 0
3, 105596, Note_off_c, 0, 57, 0
3, 105600, Note_on_c, 0, 54, 101
3, 105600, Note_on_c, 0, 58, 101
3, 105788, Note_off_c, 0, 58, 0
3, 105888, Note_on_c, 0, 59, 99
3, 105888, Note_on_c, 0, 55, 99
3, 105980, Note_off_c, 0, 54, 0
3, 107036, Note_off_c, 0, 55, 0
3, 107036, Note_off_c, 0, 59, 0
3, 108480, Note_on_c, 0, 50, 81
3, 108480, Note_on_c, 0, 59, 81
3, 108668, Note_off_c, 0, 50, 0
3, 108668, Note_off_c, 0, 59, 0
3, 108672, Note_on_c, 0, 51, 80
3, 108672, Note_on_c, 0, 60, 80
3, 108860, Note_off_c, 0, 51, 0
3, 108860, Note_off_c, 0, 60, 0
3, 108960, Note_on_c, 0, 61, 78
3, 108960, Note_on_c, 0, 52, 78
3, 109216, Note_off_c, 0, 52, 0
3, 109344, Note_off_c, 0, 61, 0
3, 109344, Note_on_c, 0, 33, 75
3, 109436, Note_off_c, 0, 33, 0
3, 109440, Note_on_c, 0, 35, 75
3, 109628, Note_off_c, 0, 35, 0
3, 109632, Note_on_c, 0, 37, 74
3, 109820, Note_off_c, 0, 37, 0
3, 110016, Note_on_c, 0, 51, 71
3, 110016, Note_on_c, 0, 63, 71
3, 110204, Note_off_c, 0, 51, 0
3, 110204, Note_off_c, 0, 63, 0
3, 110208, Note_on_c, 0, 52, 70
3, 110208, Note_on_c, 0, 61, 70
3, 110396, Note_off_c, 0, 52, 0
3, 110396, Note_off_c, 0, 61, 0
3, 110496, Note_on_c, 0, 54, 68
3, 110496, Note_on_c, 0, 60, 68
3, 110688, Note_off_c, 0, 54, 0
3, 110688, Note_off_c, 0, 60, 0
3, 110880, Note_on_c, 0, 38, 65
3, 110972, Note_off_c, 0, 38, 0
3, 110976, Note_on_c, 0, 40, 65
3, 111168, Note_on_c, 0, 42, 63
3, 111260, Note_off_c, 0, 40, 0
3, 111452, Note_off_c, 0, 42, 0
3, 111552, Note_on_c, 0, 52, 61
3, 111552, Note_on_c, 0, 57, 61
3, 111740, Note_off_c, 0, 52, 0
3, 111740, Note_off_c, 0, 57, 0
3, 111744, Note_on_c, 0, 54, 59
3, 111744, Note_on_c, 0, 58, 59
3, 111932, Note_off_c, 0, 58, 0
3, 112032, Note_on_c, 0, 59, 57
3, 112032, Note_on_c, 0, 55, 57
3, 112124, Note_off_c, 0, 54, 0
3, 113180, Note_off_c, 0, 55, 0
3, 113180, Note_off_c, 0, 59, 0
3, 114624, Note_on_c, 0, 50, 40
3, 114624, Note_on_c, 0, 59, 40
3, 114812, Note_off_c, 0, 50, 0
3, 114812, Note_off_c, 0, 59, 0
3, 114816, Note_on_c, 0, 51, 39
3, 114816, Note_on_c, 0, 60, 39
3, 115004, Note_off_c, 0, 51, 0
3, 115004, Note_off_c, 0, 60, 0
3, 115104, Note_on_c, 0, 61, 37
3, 115104, Note_on_c, 0, 52, 37
3, 115360, Note_off_c, 0, 52, 0
3, 115488, Note_off_c, 0, 61, 0
3, 115488, Note_on_c, 0, 33, 34
3, 115580, Note_off_c, 0, 33, 0
3, 115584, Note_on_c, 0, 35, 34
3, 115772, Note_off_c, 0, 35, 0
3, 115776, Note_on_c, 0, 37, 32
3, 115964, Note_off_c, 0, 37, 0
3, 116160, Note_on_c, 0, 51, 30
3, 116160, Note_on_c, 0, 63, 30
3, 116348, Note_off_c, 0, 51, 0
3, 116348, Note_off_c, 0, 63, 0
3, 116352, Note_on_c, 0, 52, 29
3, 116352, Note_on_c, 0, 61, 29
3, 116540, Note_off_c, 0, 52, 0
3, 116540, Note_off_c, 0, 61, 0
3, 116640, Note_on_c, 0, 54, 27
3, 116640, Note_on_c, 0, 60, 27
3, 116832, Note_off_c, 0, 54, 0
3, 116832, Note_off_c, 0, 60, 0
3, 117024, Note_on_c, 0, 38, 24
3, 117116, Note_off_c, 0, 38, 0
3, 117120, Note_on_c, 0, 40, 23
3, 117312, Note_on_c, 0, 42, 22
3, 117404, Note_off_c, 0, 40, 0
3, 117596, Note_off_c, 0, 42, 0
3, 117696, Note_on_c, 0, 52, 20
3, 117696, Note_on_c, 0, 57, 20
3, 117884, Note_off_c, 0, 52, 0
3, 117884, Note_off_c, 0, 57, 0
3, 117888, Note_on_c, 0, 54, 18
3, 117888, Note_on_c, 0, 58, 18
3, 118076, Note_off_c, 0, 58, 0
3, 118176, Note_on_c, 0, 59, 16
3, 118176, Note_on_c, 0, 55, 16
3, 118268, Note_off_c, 0, 54, 0
3, 119324, Note_off_c, 0, 55, 0
3, 119324, Note_off_c, 0, 59, 0
3, 119324, End_track
4, 0, Start_track
4, 0, Title_t, "Jordanaires"
4, 0, Control_c, 5, 0, 0
4, 0, Program_c, 5, 54
4, 0, Control_c, 5, 7, 112
4, 0, Control_c, 5, 10, 78
4, 0, Control_c, 5, 91, 26
4, 0, Control_c, 5, 93, 37
4, 0, Key_signature, 0, "major"
4, 960, Note_on_c, 5, 57, 100
4, 1024, Note_off_c, 5, 57, 0
4, 1056, Note_on_c, 5, 59, 100
4, 1340, Note_off_c, 5, 59, 0
4, 1344, Note_on_c, 5, 61, 100
4, 1728, Note_off_c, 5, 61, 0
4, 2496, Note_on_c, 5, 61, 100
4, 2684, Note_off_c, 5, 61, 0
4, 2688, Note_on_c, 5, 61, 100
4, 2876, Note_off_c, 5, 61, 0
4, 2880, Note_on_c, 5, 60, 100
4, 3264, Note_off_c, 5, 60, 0
4, 4032, Note_on_c, 5, 57, 100
4, 4220, Note_off_c, 5, 57, 0
4, 4224, Note_on_c, 5, 58, 100
4, 4412, Note_off_c, 5, 58, 0
4, 4512, Note_on_c, 5, 59, 100
4, 5660, Note_off_c, 5, 59, 0
4, 13824, Note_on_c, 5, 62, 100
4, 14972, Note_off_c, 5, 62, 0
4, 14976, Note_on_c, 5, 63, 100
4, 15356, Note_off_c, 5, 63, 0
4, 15360, Note_on_c, 5, 64, 100
4, 16892, Note_off_c, 5, 64, 0
4, 19968, Note_on_c, 5, 60, 100
4, 20348, Note_off_c, 5, 60, 0
4, 20352, Note_on_c, 5, 60, 100
4, 20732, Note_off_c, 5, 60, 0
4, 20736, Note_on_c, 5, 60, 100
4, 20924, Note_off_c, 5, 60, 0
4, 20928, Note_on_c, 5, 60, 100
4, 21116, Note_off_c, 5, 60, 0
4, 21504, Note_on_c, 5, 60, 100
4, 21692, Note_off_c, 5, 60, 0
4, 21696, Note_on_c, 5, 60, 100
4, 22076, Note_off_c, 5, 60, 0
4, 22080, Note_on_c, 5, 60, 100
4, 22460, Note_off_c, 5, 60, 0
4, 23424, Note_on_c, 5, 59, 100
4, 23804, Note_off_c, 5, 59, 0
4, 23808, Note_on_c, 5, 59, 100
4, 24380, Note_off_c, 5, 59, 0
4, 24384, Note_on_c, 5, 59, 100
4, 24572, Note_off_c, 5, 59, 0
4, 24576, Note_on_c, 5, 59, 100
4, 24576, Note_on_c, 5, 59, 100
4, 24764, Note_off_c, 5, 59, 0
4, 24768, Note_on_c, 5, 59, 100
4, 25148, Note_off_c, 5, 59, 0
4, 25148, Note_off_c, 5, 59, 0
4, 26112, Note_on_c, 5, 60, 100
4, 26492, Note_off_c, 5, 60, 0
4, 26496, Note_on_c, 5, 60, 100
4, 26876, Note_off_c, 5, 60, 0
4, 26880, Note_on_c, 5, 60, 100
4, 27068, Note_off_c, 5, 60, 0
4, 27072, Note_on_c, 5, 60, 100
4, 27260, Note_off_c, 5, 60, 0
4, 27648, Note_on_c, 5, 60, 100
4, 27836, Note_off_c, 5, 60, 0
4, 27840, Note_on_c, 5, 60, 100
4, 28220, Note_off_c, 5, 60, 0
4, 28224, Note_on_c, 5, 60, 100
4, 28604, Note_off_c, 5, 60, 0
4, 28608, Note_on_c, 5, 57, 100
4, 28796, Note_off_c, 5, 57, 0
4, 28800, Note_on_c, 5, 59, 100
4, 28992, Note_off_c, 5, 59, 0
4, 28992, Note_on_c, 5, 61, 100
4, 29376, Note_off_c, 5, 61, 0
4, 30144, Note_on_c, 5, 62, 100
4, 30332, Note_off_c, 5, 62, 0
4, 30336, Note_on_c, 5, 61, 100
4, 30524, Note_off_c, 5, 61, 0
4, 30624, Note_on_c, 5, 60, 100
4, 30880, Note_off_c, 5, 60, 0
4, 31680, Note_on_c, 5, 57, 100
4, 31868, Note_off_c, 5, 57, 0
4, 31872, Note_on_c, 5, 58, 100
4, 32060, Note_off_c, 5, 58, 0
4, 32160, Note_on_c, 5, 59, 100
4, 33308, Note_off_c, 5, 59, 0
4, 41472, Note_on_c, 5, 62, 100
4, 42620, Note_off_c, 5, 62, 0
4, 42624, Note_on_c, 5, 63, 100
4, 43004, Note_off_c, 5, 63, 0
4, 43008, Note_on_c, 5, 64, 100
4, 44540, Note_off_c, 5, 64, 0
4, 47616, Note_on_c, 5, 60, 100
4, 47996, Note_off_c, 5, 60, 0
4, 48000, Note_on_c, 5, 60, 100
4, 48380, Note_off_c, 5, 60, 0
4, 48384, Note_on_c, 5, 60, 100
4, 48572, Note_off_c, 5, 60, 0
4, 48576, Note_on_c, 5, 60, 100
4, 48764, Note_off_c, 5, 60, 0
4, 49152, Note_on_c, 5, 60, 100
4, 49340, Note_off_c, 5, 60, 0
4, 49344, Note_on_c, 5, 60, 100
4, 49724, Note_off_c, 5, 60, 0
4, 49728, Note_on_c, 5, 60, 100
4, 50108, Note_off_c, 5, 60, 0
4, 51072, Note_on_c, 5, 59, 100
4, 51328, Note_off_c, 5, 59, 0
4, 51456, Note_on_c, 5, 59, 100
4, 52028, Note_off_c, 5, 59, 0
4, 52032, Note_on_c, 5, 59, 100
4, 52220, Note_off_c, 5, 59, 0
4, 52224, Note_on_c, 5, 59, 100
4, 52224, Note_on_c, 5, 59, 100
4, 52412, Note_off_c, 5, 59, 0
4, 52416, Note_on_c, 5, 59, 100
4, 52544, Note_off_c, 5, 59, 0
4, 52604, Note_off_c, 5, 59, 0
4, 53760, Note_on_c, 5, 60, 100
4, 54140, Note_off_c, 5, 60, 0
4, 54144, Note_on_c, 5, 60, 100
4, 54524, Note_off_c, 5, 60, 0
4, 54528, Note_on_c, 5, 60, 100
4, 54716, Note_off_c, 5, 60, 0
4, 54720, Note_on_c, 5, 60, 100
4, 54908, Note_off_c, 5, 60, 0
4, 55296, Note_on_c, 5, 60, 100
4, 55484, Note_off_c, 5, 60, 0
4, 55488, Note_on_c, 5, 60, 100
4, 55868, Note_off_c, 5, 60, 0
4, 55872, Note_on_c, 5, 60, 100
4, 56252, Note_off_c, 5, 60, 0
4, 56256, Note_on_c, 5, 57, 100
4, 56444, Note_off_c, 5, 57, 0
4, 56448, Note_on_c, 5, 59, 100
4, 56636, Note_off_c, 5, 59, 0
4, 56736, Note_on_c, 5, 61, 100
4, 57120, Note_off_c, 5, 61, 0
4, 57792, Note_on_c, 5, 63, 100
4, 57980, Note_off_c, 5, 63, 0
4, 57984, Note_on_c, 5, 61, 100
4, 58172, Note_off_c, 5, 61, 0
4, 58272, Note_on_c, 5, 60, 100
4, 58528, Note_off_c, 5, 60, 0
4, 59328, Note_on_c, 5, 57, 100
4, 59516, Note_off_c, 5, 57, 0
4, 59520, Note_on_c, 5, 58, 100
4, 59708, Note_off_c, 5, 58, 0
4, 59808, Note_on_c, 5, 59, 100
4, 60956, Note_off_c, 5, 59, 0
4, 62400, Note_on_c, 5, 57, 100
4, 62588, Note_off_c, 5, 57, 0
4, 62592, Note_on_c, 5, 59, 100
4, 62780, Note_off_c, 5, 59, 0
4, 62880, Note_on_c, 5, 61, 100
4, 63264, Note_off_c, 5, 61, 0
4, 63936, Note_on_c, 5, 63, 100
4, 64124, Note_off_c, 5, 63, 0
4, 64128, Note_on_c, 5, 61, 100
4, 64316, Note_off_c, 5, 61, 0
4, 64320, Note_on_c, 5, 60, 100
4, 64700, Note_off_c, 5, 60, 0
4, 65568, Note_on_c, 5, 57, 100
4, 65660, Note_off_c, 5, 57, 0
4, 65664, Note_on_c, 5, 58, 100
4, 65948, Note_off_c, 5, 58, 0
4, 65952, Note_on_c, 5, 59, 100
4, 67100, Note_off_c, 5, 59, 0
4, 68544, Note_on_c, 5, 57, 100
4, 68732, Note_off_c, 5, 57, 0
4, 68736, Note_on_c, 5, 59, 100
4, 68924, Note_off_c, 5, 59, 0
4, 69024, Note_on_c, 5, 61, 100
4, 69408, Note_off_c, 5, 61, 0
4, 69408, Note_on_c, 5, 33, 100
4, 69500, Note_off_c, 5, 33, 0
4, 69504, Note_on_c, 5, 35, 100
4, 69692, Note_off_c, 5, 35, 0
4, 69696, Note_on_c, 5, 37, 100
4, 69884, Note_off_c, 5, 37, 0
4, 70080, Note_on_c, 5, 57, 100
4, 70268, Note_off_c, 5, 57, 0
4, 70272, Note_on_c, 5, 59, 100
4, 70460, Note_off_c, 5, 59, 0
4, 70560, Note_on_c, 5, 60, 100
4, 70752, Note_off_c, 5, 60, 0
4, 70944, Note_on_c, 5, 38, 100
4, 71036, Note_off_c, 5, 38, 0
4, 71040, Note_on_c, 5, 40, 100
4, 71232, Note_on_c, 5, 42, 100
4, 71324, Note_off_c, 5, 40, 0
4, 71516, Note_off_c, 5, 42, 0
4, 71616, Note_on_c, 5, 60, 100
4, 71616, Note_on_c, 5, 57, 100
4, 71808, Note_on_c, 5, 58, 100
4, 71900, Note_off_c, 5, 60, 0
4, 71900, Note_off_c, 5, 57, 0
4, 71996, Note_off_c, 5, 58, 0
4, 72096, Note_on_c, 5, 59, 100
4, 73244, Note_off_c, 5, 59, 0
4, 81408, Note_on_c, 5, 59, 100
4, 81408, Note_on_c, 5, 62, 100
4, 82556, Note_off_c, 5, 59, 0
4, 82556, Note_off_c, 5, 62, 0
4, 82560, Note_on_c, 5, 63, 100
4, 82940, Note_off_c, 5, 63, 0
4, 82944, Note_on_c, 5, 64, 100
4, 82944, Note_on_c, 5, 60, 100
4, 84476, Note_off_c, 5, 64, 0
4, 84476, Note_off_c, 5, 60, 0
4, 87552, Note_on_c, 5, 60, 100
4, 87932, Note_off_c, 5, 60, 0
4, 87936, Note_on_c, 5, 60, 100
4, 88316, Note_off_c, 5, 60, 0
4, 88320, Note_on_c, 5, 60, 100
4, 88508, Note_off_c, 5, 60, 0
4, 88512, Note_on_c, 5, 60, 100
4, 88700, Note_off_c, 5, 60, 0
4, 89088, Note_on_c, 5, 60, 100
4, 89276, Note_off_c, 5, 60, 0
4, 89280, Note_on_c, 5, 60, 100
4, 89660, Note_off_c, 5, 60, 0
4, 89664, Note_on_c, 5, 60, 100
4, 90044, Note_off_c, 5, 60, 0
4, 91008, Note_on_c, 5, 59, 100
4, 91388, Note_off_c, 5, 59, 0
4, 91392, Note_on_c, 5, 59, 100
4, 91964, Note_off_c, 5, 59, 0
4, 91968, Note_on_c, 5, 59, 100
4, 92156, Note_off_c, 5, 59, 0
4, 92160, Note_on_c, 5, 59, 100
4, 92160, Note_on_c, 5, 59, 100
4, 92348, Note_off_c, 5, 59, 0
4, 92352, Note_on_c, 5, 59, 100
4, 92480, Note_off_c, 5, 59, 0
4, 92732, Note_off_c, 5, 59, 0
4, 93696, Note_on_c, 5, 60, 100
4, 94076, Note_off_c, 5, 60, 0
4, 94080, Note_on_c, 5, 60, 100
4, 94460, Note_off_c, 5, 60, 0
4, 94464, Note_on_c, 5, 60, 100
4, 94652, Note_off_c, 5, 60, 0
4, 94656, Note_on_c, 5, 60, 100
4, 94844, Note_off_c, 5, 60, 0
4, 95232, Note_on_c, 5, 60, 100
4, 95420, Note_off_c, 5, 60, 0
4, 95424, Note_on_c, 5, 60, 100
4, 95804, Note_off_c, 5, 60, 0
4, 95808, Note_on_c, 5, 60, 100
4, 96188, Note_off_c, 5, 60, 0
4, 96192, Note_on_c, 5, 57, 100
4, 96380, Note_off_c, 5, 57, 0
4, 96384, Note_on_c, 5, 59, 100
4, 96576, Note_off_c, 5, 59, 0
4, 96576, Note_on_c, 5, 61, 100
4, 96960, Note_off_c, 5, 61, 0
4, 97728, Note_on_c, 5, 61, 100
4, 97916, Note_off_c, 5, 61, 0
4, 97920, Note_on_c, 5, 61, 100
4, 98204, Note_off_c, 5, 61, 0
4, 98208, Note_on_c, 5, 60, 100
4, 98464, Note_off_c, 5, 60, 0
4, 99264, Note_on_c, 5, 57, 100
4, 99452, Note_off_c, 5, 57, 0
4, 99456, Note_on_c, 5, 58, 100
4, 99644, Note_off_c, 5, 58, 0
4, 99744, Note_on_c, 5, 59, 100
4, 100892, Note_off_c, 5, 59, 0
4, 102336, Note_on_c, 5, 59, 100
4, 102524, Note_off_c, 5, 59, 0
4, 102528, Note_on_c, 5, 60, 100
4, 102716, Note_off_c, 5, 60, 0
4, 102816, Note_on_c, 5, 61, 100
4, 103200, Note_off_c, 5, 61, 0
4, 103200, Note_on_c, 5, 33, 104
4, 103292, Note_off_c, 5, 33, 0
4, 103296, Note_on_c, 5, 35, 103
4, 103484, Note_off_c, 5, 35, 0
4, 103488, Note_on_c, 5, 37, 102
4, 103676, Note_off_c, 5, 37, 0
4, 103872, Note_on_c, 5, 63, 100
4, 104060, Note_off_c, 5, 63, 0
4, 104064, Note_on_c, 5, 61, 99
4, 104252, Note_off_c, 5, 61, 0
4, 104352, Note_on_c, 5, 60, 98
4, 104544, Note_off_c, 5, 60, 0
4, 104736, Note_on_c, 5, 38, 86
4, 104828, Note_off_c, 5, 38, 0
4, 104832, Note_on_c, 5, 40, 85
4, 105024, Note_on_c, 5, 42, 84
4, 105116, Note_off_c, 5, 40, 0
4, 105308, Note_off_c, 5, 42, 0
4, 105408, Note_on_c, 5, 57, 82
4, 105596, Note_off_c, 5, 57, 0
4, 105600, Note_on_c, 5, 58, 81
4, 105788, Note_off_c, 5, 58, 0
4, 105888, Note_on_c, 5, 59, 80
4, 107036, Note_off_c, 5, 59, 0
4, 108480, Note_on_c, 5, 59, 66
4, 108668, Note_off_c, 5, 59, 0
4, 108672, Note_on_c, 5, 60, 65
4, 108860, Note_off_c, 5, 60, 0
4, 108960, Note_on_c, 5, 61, 63
4, 109344, Note_off_c, 5, 61, 0
4, 110016, Note_on_c, 5, 63, 58
4, 110204, Note_off_c, 5, 63, 0
4, 110208, Note_on_c, 5, 61, 57
4, 110396, Note_off_c, 5, 61, 0
4, 110496, Note_on_c, 5, 60, 55
4, 110688, Note_off_c, 5, 60, 0
4, 111552, Note_on_c, 5, 57, 49
4, 111740, Note_off_c, 5, 57, 0
4, 111744, Note_on_c, 5, 58, 48
4, 111932, Note_off_c, 5, 58, 0
4, 112032, Note_on_c, 5, 59, 47
4, 113180, Note_off_c, 5, 59, 0
4, 114624, Note_on_c, 5, 59, 33
4, 114812, Note_off_c, 5, 59, 0
4, 114816, Note_on_c, 5, 60, 32
4, 115004, Note_off_c, 5, 60, 0
4, 115104, Note_on_c, 5, 61, 31
4, 115488, Note_off_c, 5, 61, 0
4, 116160, Note_on_c, 5, 63, 25
4, 116348, Note_off_c, 5, 63, 0
4, 116352, Note_on_c, 5, 61, 24
4, 116540, Note_off_c, 5, 61, 0
4, 116640, Note_on_c, 5, 60, 22
4, 116832, Note_off_c, 5, 60, 0
4, 117696, Note_on_c, 5, 57, 17
4, 117884, Note_off_c, 5, 57, 0
4, 117888, Note_on_c, 5, 58, 16
4, 118076, Note_off_c, 5, 58, 0
4, 118176, Note_on_c, 5, 59, 14
4, 119324, Note_off_c, 5, 59, 0
4, 119324, End_track
5, 0, Start_track
5, 0, Title_t, "Guitar"
5, 0, Control_c, 2, 0, 0
5, 0, Program_c, 2, 25
5, 0, Control_c, 2, 7, 100
5, 0, Control_c, 2, 10, 35
5, 0, Key_signature, 0, "major"
5, 1920, Note_on_c, 2, 69, 90
5, 1920, Note_on_c, 2, 67, 90
5, 1920, Note_on_c, 2, 61, 90
5, 1920, Note_on_c, 2, 57, 90
5, 2108, Note_off_c, 2, 69, 0
5, 2108, Note_off_c, 2, 67, 0
5, 2108, Note_off_c, 2, 61, 0
5, 2108, Note_off_c, 2, 57, 0
5, 2208, Note_on_c, 2, 69, 90
5, 2208, Note_on_c, 2, 67, 90
5, 2208, Note_on_c, 2, 61, 90
5, 2208, Note_on_c, 2, 57, 90
5, 2588, Note_off_c, 2, 69, 0
5, 2588, Note_off_c, 2, 67, 0
5, 2588, Note_off_c, 2, 61, 0
5, 2588, Note_off_c, 2, 57, 0
5, 2688, Note_on_c, 2, 69, 90
5, 2688, Note_on_c, 2, 67, 90
5, 2688, Note_on_c, 2, 61, 90
5, 2688, Note_on_c, 2, 57, 90
5, 2876, Note_off_c, 2, 69, 0
5, 2876, Note_off_c, 2, 67, 0
5, 2876, Note_off_c, 2, 61, 0
5, 2876, Note_off_c, 2, 57, 0
5, 3456, Note_on_c, 2, 66, 90
5, 3456, Note_on_c, 2, 62, 90
5, 3456, Note_on_c, 2, 60, 90
5, 3456, Note_on_c, 2, 57, 90
5, 3644, Note_off_c, 2, 66, 0
5, 3644, Note_off_c, 2, 62, 0
5, 3644, Note_off_c, 2, 60, 0
5, 3644, Note_off_c, 2, 57, 0
5, 3744, Note_on_c, 2, 62, 90
5, 3744, Note_on_c, 2, 60, 90
5, 3744, Note_on_c, 2, 57, 90
5, 3744, Note_on_c, 2, 66, 90
5, 4508, Note_off_c, 2, 62, 0
5, 4508, Note_off_c, 2, 60, 0
5, 4508, Note_off_c, 2, 57, 0
5, 4508, Note_off_c, 2, 66, 0
5, 4992, Note_on_c, 2, 67, 90
5, 4992, Note_on_c, 2, 62, 90
5, 4992, Note_on_c, 2, 59, 90
5, 5372, Note_off_c, 2, 67, 0
5, 5372, Note_off_c, 2, 62, 0
5, 5372, Note_off_c, 2, 59, 0
5, 5760, Note_on_c, 2, 67, 90
5, 5760, Note_on_c, 2, 62, 90
5, 5760, Note_on_c, 2, 59, 90
5, 5948, Note_off_c, 2, 67, 0
5, 5948, Note_off_c, 2, 62, 0
5, 5948, Note_off_c, 2, 59, 0
5, 6048, Note_on_c, 2, 67, 90
5, 6048, Note_on_c, 2, 62, 90
5, 6048, Note_on_c, 2, 59, 90
5, 6528, Note_on_c, 2, 64, 120
5, 6812, Note_off_c, 2, 64, 0
5, 6816, Note_on_c, 2, 59, 120
5, 6908, Note_off_c, 2, 59, 0
5, 6912, Note_on_c, 2, 62, 120
5, 7196, Note_off_c, 2, 62, 0
5, 7196, Note_off_c, 2, 67, 0
5, 7196, Note_off_c, 2, 59, 0
5, 7196, Note_off_c, 2, 62, 0
5, 7200, Note_on_c, 2, 64, 120
5, 7292, Note_off_c, 2, 64, 0
5, 8064, Note_on_c, 2, 67, 90
5, 8064, Note_on_c, 2, 62, 90
5, 8064, Note_on_c, 2, 59, 90
5, 8252, Note_off_c, 2, 67, 0
5, 8252, Note_off_c, 2, 62, 0
5, 8252, Note_off_c, 2, 59, 0
5, 8832, Note_on_c, 2, 67, 90
5, 8832, Note_on_c, 2, 62, 90
5, 8832, Note_on_c, 2, 59, 90
5, 9020, Note_off_c, 2, 67, 0
5, 9020, Note_off_c, 2, 62, 0
5, 9020, Note_off_c, 2, 59, 0
5, 9600, Note_on_c, 2, 64, 90
5, 9600, Note_on_c, 2, 60, 90
5, 9600, Note_on_c, 2, 55, 90
5, 9788, Note_off_c, 2, 64, 0
5, 9788, Note_off_c, 2, 60, 0
5, 9788, Note_off_c, 2, 55, 0
5, 10368, Note_on_c, 2, 64, 90
5, 10368, Note_on_c, 2, 60, 90
5, 10368, Note_on_c, 2, 55, 90
5, 10556, Note_off_c, 2, 64, 0
5, 10556, Note_off_c, 2, 60, 0
5, 10556, Note_off_c, 2, 55, 0
5, 11136, Note_on_c, 2, 67, 90
5, 11136, Note_on_c, 2, 62, 90
5, 11136, Note_on_c, 2, 59, 90
5, 11324, Note_off_c, 2, 67, 0
5, 11324, Note_off_c, 2, 62, 0
5, 11324, Note_off_c, 2, 59, 0
5, 11904, Note_on_c, 2, 67, 90
5, 11904, Note_on_c, 2, 62, 90
5, 11904, Note_on_c, 2, 59, 90
5, 12092, Note_off_c, 2, 67, 0
5, 12092, Note_off_c, 2, 62, 0
5, 12092, Note_off_c, 2, 59, 0
5, 12672, Note_on_c, 2, 66, 90
5, 12672, Note_on_c, 2, 60, 90
5, 12672, Note_on_c, 2, 57, 90
5, 12860, Note_off_c, 2, 66, 0
5, 12860, Note_off_c, 2, 60, 0
5, 12860, Note_off_c, 2, 57, 0
5, 13440, Note_on_c, 2, 66, 90
5, 13440, Note_on_c, 2, 60, 90
5, 13440, Note_on_c, 2, 57, 90
5, 13628, Note_off_c, 2, 66, 0
5, 13628, Note_off_c, 2, 60, 0
5, 13628, Note_off_c, 2, 57, 0
5, 14208, Note_on_c, 2, 67, 90
5, 14208, Note_on_c, 2, 62, 90
5, 14208, Note_on_c, 2, 59, 90
5, 14396, Note_off_c, 2, 67, 0
5, 14396, Note_off_c, 2, 62, 0
5, 14396, Note_off_c, 2, 59, 0
5, 14976, Note_on_c, 2, 67, 90
5, 14976, Note_on_c, 2, 62, 90
5, 14976, Note_on_c, 2, 59, 90
5, 15164, Note_off_c, 2, 67, 0
5, 15164, Note_off_c, 2, 62, 0
5, 15164, Note_off_c, 2, 59, 0
5, 15744, Note_on_c, 2, 67, 90
5, 15744, Note_on_c, 2, 64, 90
5, 15744, Note_on_c, 2, 60, 90
5, 15932, Note_off_c, 2, 67, 0
5, 15932, Note_off_c, 2, 64, 0
5, 15932, Note_off_c, 2, 60, 0
5, 16512, Note_on_c, 2, 67, 90
5, 16512, Note_on_c, 2, 64, 90
5, 16512, Note_on_c, 2, 60, 90
5, 16700, Note_off_c, 2, 67, 0
5, 16700, Note_off_c, 2, 64, 0
5, 16700, Note_off_c, 2, 60, 0
5, 17280, Note_on_c, 2, 66, 90
5, 17280, Note_on_c, 2, 60, 90
5, 17280, Note_on_c, 2, 57, 90
5, 17468, Note_off_c, 2, 66, 0
5, 17468, Note_off_c, 2, 60, 0
5, 17468, Note_off_c, 2, 57, 0
5, 18048, Note_on_c, 2, 66, 90
5, 18048, Note_on_c, 2, 60, 90
5, 18048, Note_on_c, 2, 57, 90
5, 18236, Note_off_c, 2, 66, 0
5, 18236, Note_off_c, 2, 60, 0
5, 18236, Note_off_c, 2, 57, 0
5, 18432, Note_on_c, 2, 67, 90
5, 18432, Note_on_c, 2, 62, 90
5, 18432, Note_on_c, 2, 59, 90
5, 18620, Note_off_c, 2, 67, 0
5, 18620, Note_off_c, 2, 62, 0
5, 18620, Note_off_c, 2, 59, 0
5, 20352, Note_on_c, 2, 66, 90
5, 20352, Note_on_c, 2, 60, 90
5, 20352, Note_on_c, 2, 57, 90
5, 20540, Note_off_c, 2, 66, 0
5, 20540, Note_off_c, 2, 60, 0
5, 20540, Note_off_c, 2, 57, 0
5, 21120, Note_on_c, 2, 66, 90
5, 21120, Note_on_c, 2, 60, 90
5, 21120, Note_on_c, 2, 57, 90
5, 21308, Note_off_c, 2, 66, 0
5, 21308, Note_off_c, 2, 60, 0
5, 21308, Note_off_c, 2, 57, 0
5, 21888, Note_on_c, 2, 66, 90
5, 21888, Note_on_c, 2, 60, 90
5, 21888, Note_on_c, 2, 57, 90
5, 22076, Note_off_c, 2, 66, 0
5, 22076, Note_off_c, 2, 60, 0
5, 22076, Note_off_c, 2, 57, 0
5, 22656, Note_on_c, 2, 66, 90
5, 22656, Note_on_c, 2, 60, 90
5, 22656, Note_on_c, 2, 57, 90
5, 22844, Note_off_c, 2, 66, 0
5, 22844, Note_off_c, 2, 60, 0
5, 22844, Note_off_c, 2, 57, 0
5, 23424, Note_on_c, 2, 67, 90
5, 23424, Note_on_c, 2, 62, 90
5, 23424, Note_on_c, 2, 59, 90
5, 23612, Note_off_c, 2, 67, 0
5, 23612, Note_off_c, 2, 62, 0
5, 23612, Note_off_c, 2, 59, 0
5, 24192, Note_on_c, 2, 67, 90
5, 24192, Note_on_c, 2, 62, 90
5, 24192, Note_on_c, 2, 59, 90
5, 24380, Note_off_c, 2, 67, 0
5, 24380, Note_off_c, 2, 62, 0
5, 24380, Note_off_c, 2, 59, 0
5, 24960, Note_on_c, 2, 67, 90
5, 24960, Note_on_c, 2, 62, 90
5, 24960, Note_on_c, 2, 59, 90
5, 25148, Note_off_c, 2, 67, 0
5, 25148, Note_off_c, 2, 62, 0
5, 25148, Note_off_c, 2, 59, 0
5, 25728, Note_on_c, 2, 67, 90
5, 25728, Note_on_c, 2, 62, 90
5, 25728, Note_on_c, 2, 59, 90
5, 25916, Note_off_c, 2, 67, 0
5, 25916, Note_off_c, 2, 62, 0
5, 25916, Note_off_c, 2, 59, 0
5, 26496, Note_on_c, 2, 66, 90
5, 26496, Note_on_c, 2, 60, 90
5, 26496, Note_on_c, 2, 57, 90
5, 26684, Note_off_c, 2, 66, 0
5, 26684, Note_off_c, 2, 60, 0
5, 26684, Note_off_c, 2, 57, 0
5, 27264, Note_on_c, 2, 66, 90
5, 27264, Note_on_c, 2, 60, 90
5, 27264, Note_on_c, 2, 57, 90
5, 27452, Note_off_c, 2, 66, 0
5, 27452, Note_off_c, 2, 60, 0
5, 27452, Note_off_c, 2, 57, 0
5, 28032, Note_on_c, 2, 66, 90
5, 28032, Note_on_c, 2, 60, 90
5, 28032, Note_on_c, 2, 57, 90
5, 28220, Note_off_c, 2, 66, 0
5, 28220, Note_off_c, 2, 60, 0
5, 28220, Note_off_c, 2, 57, 0
5, 28800, Note_on_c, 2, 66, 90
5, 28800, Note_on_c, 2, 60, 90
5, 28800, Note_on_c, 2, 57, 90
5, 28988, Note_off_c, 2, 66, 0
5, 28988, Note_off_c, 2, 60, 0
5, 28988, Note_off_c, 2, 57, 0
5, 29568, Note_on_c, 2, 69, 90
5, 29568, Note_on_c, 2, 67, 90
5, 29568, Note_on_c, 2, 61, 90
5, 29568, Note_on_c, 2, 57, 90
5, 29756, Note_off_c, 2, 69, 0
5, 29756, Note_off_c, 2, 67, 0
5, 29756, Note_off_c, 2, 61, 0
5, 29756, Note_off_c, 2, 57, 0
5, 29856, Note_on_c, 2, 69, 90
5, 29856, Note_on_c, 2, 67, 90
5, 29856, Note_on_c, 2, 61, 90
5, 29856, Note_on_c, 2, 57, 90
5, 30620, Note_off_c, 2, 69, 0
5, 30620, Note_off_c, 2, 67, 0
5, 30620, Note_off_c, 2, 61, 0
5, 30620, Note_off_c, 2, 57, 0
5, 30720, Note_on_c, 2, 66, 90
5, 30720, Note_on_c, 2, 60, 90
5, 30720, Note_on_c, 2, 57, 90
5, 30720, Note_on_c, 2, 62, 90
5, 31100, Note_off_c, 2, 66, 0
5, 31100, Note_off_c, 2, 60, 0
5, 31100, Note_off_c, 2, 57, 0
5, 31100, Note_off_c, 2, 62, 0
5, 31104, Note_on_c, 2, 66, 90
5, 31104, Note_on_c, 2, 62, 90
5, 31104, Note_on_c, 2, 60, 90
5, 31104, Note_on_c, 2, 57, 90
5, 31292, Note_off_c, 2, 66, 0
5, 31292, Note_off_c, 2, 62, 0
5, 31292, Note_off_c, 2, 60, 0
5, 31292, Note_off_c, 2, 57, 0
5, 31392, Note_on_c, 2, 62, 90
5, 31392, Note_on_c, 2, 60, 90
5, 31392, Note_on_c, 2, 57, 90
5, 31392, Note_on_c, 2, 66, 90
5, 32156, Note_off_c, 2, 62, 0
5, 32156, Note_off_c, 2, 60, 0
5, 32156, Note_off_c, 2, 57, 0
5, 32156, Note_off_c, 2, 66, 0
5, 32160, Note_on_c, 2, 67, 90
5, 32160, Note_on_c, 2, 62, 90
5, 32160, Note_on_c, 2, 59, 90
5, 32540, Note_off_c, 2, 59, 0
5, 32540, Note_off_c, 2, 62, 0
5, 32540, Note_off_c, 2, 67, 0
5, 32640, Note_on_c, 2, 67, 90
5, 32640, Note_on_c, 2, 62, 90
5, 32640, Note_on_c, 2, 59, 90
5, 33020, Note_off_c, 2, 67, 0
5, 33020, Note_off_c, 2, 62, 0
5, 33020, Note_off_c, 2, 59, 0
5, 33408, Note_on_c, 2, 67, 90
5, 33408, Note_on_c, 2, 62, 90
5, 33408, Note_on_c, 2, 59, 90
5, 33596, Note_off_c, 2, 67, 0
5, 33596, Note_off_c, 2, 62, 0
5, 33596, Note_off_c, 2, 59, 0
5, 33696, Note_on_c, 2, 67, 90
5, 33696, Note_on_c, 2, 62, 90
5, 33696, Note_on_c, 2, 59, 90
5, 34176, Note_on_c, 2, 64, 120
5, 34460, Note_off_c, 2, 64, 0
5, 34464, Note_on_c, 2, 59, 120
5, 34556, Note_off_c, 2, 59, 0
5, 34560, Note_on_c, 2, 62, 120
5, 34844, Note_off_c, 2, 62, 0
5, 34844, Note_off_c, 2, 67, 0
5, 34844, Note_off_c, 2, 59, 0
5, 34844, Note_off_c, 2, 62, 0
5, 34848, Note_on_c, 2, 64, 120
5, 34940, Note_off_c, 2, 64, 0
5, 35712, Note_on_c, 2, 67, 90
5, 35712, Note_on_c, 2, 62, 90
5, 35712, Note_on_c, 2, 59, 90
5, 35900, Note_off_c, 2, 67, 0
5, 35900, Note_off_c, 2, 62, 0
5, 35900, Note_off_c, 2, 59, 0
5, 36480, Note_on_c, 2, 67, 90
5, 36480, Note_on_c, 2, 62, 90
5, 36480, Note_on_c, 2, 59, 90
5, 36668, Note_off_c, 2, 67, 0
5, 36668, Note_off_c, 2, 62, 0
5, 36668, Note_off_c, 2, 59, 0
5, 37248, Note_on_c, 2, 67, 90
5, 37248, Note_on_c, 2, 64, 90
5, 37248, Note_on_c, 2, 60, 90
5, 37436, Note_off_c, 2, 67, 0
5, 37436, Note_off_c, 2, 64, 0
5, 37436, Note_off_c, 2, 60, 0
5, 38016, Note_on_c, 2, 67, 90
5, 38016, Note_on_c, 2, 64, 90
5, 38016, Note_on_c, 2, 60, 90
5, 38204, Note_off_c, 2, 67, 0
5, 38204, Note_off_c, 2, 64, 0
5, 38204, Note_off_c, 2, 60, 0
5, 38784, Note_on_c, 2, 67, 90
5, 38784, Note_on_c, 2, 62, 90
5, 38784, Note_on_c, 2, 59, 90
5, 38972, Note_off_c, 2, 67, 0
5, 38972, Note_off_c, 2, 62, 0
5, 38972, Note_off_c, 2, 59, 0
5, 39552, Note_on_c, 2, 67, 90
5, 39552, Note_on_c, 2, 62, 90
5, 39552, Note_on_c, 2, 59, 90
5, 39740, Note_off_c, 2, 67, 0
5, 39740, Note_off_c, 2, 62, 0
5, 39740, Note_off_c, 2, 59, 0
5, 40320, Note_on_c, 2, 66, 90
5, 40320, Note_on_c, 2, 60, 90
5, 40320, Note_on_c, 2, 57, 90
5, 40508, Note_off_c, 2, 66, 0
5, 40508, Note_off_c, 2, 60, 0
5, 40508, Note_off_c, 2, 57, 0
5, 41088, Note_on_c, 2, 66, 90
5, 41088, Note_on_c, 2, 60, 90
5, 41088, Note_on_c, 2, 57, 90
5, 41276, Note_off_c, 2, 66, 0
5, 41276, Note_off_c, 2, 60, 0
5, 41276, Note_off_c, 2, 57, 0
5, 41856, Note_on_c, 2, 67, 90
5, 41856, Note_on_c, 2, 62, 90
5, 41856, Note_on_c, 2, 59, 90
5, 42044, Note_off_c, 2, 67, 0
5, 42044, Note_off_c, 2, 62, 0
5, 42044, Note_off_c, 2, 59, 0
5, 42624, Note_on_c, 2, 67, 90
5, 42624, Note_on_c, 2, 62, 90
5, 42624, Note_on_c, 2, 59, 90
5, 42812, Note_off_c, 2, 67, 0
5, 42812, Note_off_c, 2, 62, 0
5, 42812, Note_off_c, 2, 59, 0
5, 43392, Note_on_c, 2, 67, 90
5, 43392, Note_on_c, 2, 64, 90
5, 43392, Note_on_c, 2, 60, 90
5, 43580, Note_off_c, 2, 67, 0
5, 43580, Note_off_c, 2, 64, 0
5, 43580, Note_off_c, 2, 60, 0
5, 44160, Note_on_c, 2, 67, 90
5, 44160, Note_on_c, 2, 64, 90
5, 44160, Note_on_c, 2, 60, 90
5, 44348, Note_off_c, 2, 67, 0
5, 44348, Note_off_c, 2, 64, 0
5, 44348, Note_off_c, 2, 60, 0
5, 44928, Note_on_c, 2, 66, 90
5, 44928, Note_on_c, 2, 60, 90
5, 44928, Note_on_c, 2, 57, 90
5, 45116, Note_off_c, 2, 66, 0
5, 45116, Note_off_c, 2, 60, 0
5, 45116, Note_off_c, 2, 57, 0
5, 45696, Note_on_c, 2, 66, 90
5, 45696, Note_on_c, 2, 60, 90
5, 45696, Note_on_c, 2, 57, 90
5, 45884, Note_off_c, 2, 66, 0
5, 45884, Note_off_c, 2, 60, 0
5, 45884, Note_off_c, 2, 57, 0
5, 46080, Note_on_c, 2, 67, 90
5, 46080, Note_on_c, 2, 62, 90
5, 46080, Note_on_c, 2, 59, 90
5, 46460, Note_off_c, 2, 67, 0
5, 46460, Note_off_c, 2, 62, 0
5, 46460, Note_off_c, 2, 59, 0
5, 48000, Note_on_c, 2, 66, 90
5, 48000, Note_on_c, 2, 60, 90
5, 48000, Note_on_c, 2, 57, 90
5, 48188, Note_off_c, 2, 66, 0
5, 48188, Note_off_c, 2, 60, 0
5, 48188, Note_off_c, 2, 57, 0
5, 48768, Note_on_c, 2, 66, 90
5, 48768, Note_on_c, 2, 60, 90
5, 48768, Note_on_c, 2, 57, 90
5, 48956, Note_off_c, 2, 66, 0
5, 48956, Note_off_c, 2, 60, 0
5, 48956, Note_off_c, 2, 57, 0
5, 49536, Note_on_c, 2, 66, 90
5, 49536, Note_on_c, 2, 60, 90
5, 49536, Note_on_c, 2, 57, 90
5, 49724, Note_off_c, 2, 66, 0
5, 49724, Note_off_c, 2, 60, 0
5, 49724, Note_off_c, 2, 57, 0
5, 50304, Note_on_c, 2, 66, 90
5, 50304, Note_on_c, 2, 60, 90
5, 50304, Note_on_c, 2, 57, 90
5, 50492, Note_off_c, 2, 66, 0
5, 50492, Note_off_c, 2, 60, 0
5, 50492, Note_off_c, 2, 57, 0
5, 51072, Note_on_c, 2, 67, 90
5, 51072, Note_on_c, 2, 62, 90
5, 51072, Note_on_c, 2, 59, 90
5, 51260, Note_off_c, 2, 67, 0
5, 51260, Note_off_c, 2, 62, 0
5, 51260, Note_off_c, 2, 59, 0
5, 51840, Note_on_c, 2, 67, 90
5, 51840, Note_on_c, 2, 62, 90
5, 51840, Note_on_c, 2, 59, 90
5, 52028, Note_off_c, 2, 67, 0
5, 52028, Note_off_c, 2, 62, 0
5, 52028, Note_off_c, 2, 59, 0
5, 52608, Note_on_c, 2, 67, 90
5, 52608, Note_on_c, 2, 62, 90
5, 52608, Note_on_c, 2, 59, 90
5, 52796, Note_off_c, 2, 67, 0
5, 52796, Note_off_c, 2, 62, 0
5, 52796, Note_off_c, 2, 59, 0
5, 53376, Note_on_c, 2, 67, 90
5, 53376, Note_on_c, 2, 62, 90
5, 53376, Note_on_c, 2, 59, 90
5, 53564, Note_off_c, 2, 67, 0
5, 53564, Note_off_c, 2, 62, 0
5, 53564, Note_off_c, 2, 59, 0
5, 54144, Note_on_c, 2, 66, 90
5, 54144, Note_on_c, 2, 60, 90
5, 54144, Note_on_c, 2, 57, 90
5, 54332, Note_off_c, 2, 66, 0
5, 54332, Note_off_c, 2, 60, 0
5, 54332, Note_off_c, 2, 57, 0
5, 54912, Note_on_c, 2, 66, 90
5, 54912, Note_on_c, 2, 60, 90
5, 54912, Note_on_c, 2, 57, 90
5, 55100, Note_off_c, 2, 66, 0
5, 55100, Note_off_c, 2, 60, 0
5, 55100, Note_off_c, 2, 57, 0
5, 55680, Note_on_c, 2, 66, 90
5, 55680, Note_on_c, 2, 60, 90
5, 55680, Note_on_c, 2, 57, 90
5, 55868, Note_off_c, 2, 66, 0
5, 55868, Note_off_c, 2, 60, 0
5, 55868, Note_off_c, 2, 57, 0
5, 56448, Note_on_c, 2, 66, 90
5, 56448, Note_on_c, 2, 60, 90
5, 56448, Note_on_c, 2, 57, 90
5, 56636, Note_off_c, 2, 66, 0
5, 56636, Note_off_c, 2, 60, 0
5, 56636, Note_off_c, 2, 57, 0
5, 57216, Note_on_c, 2, 69, 90
5, 57216, Note_on_c, 2, 67, 90
5, 57216, Note_on_c, 2, 61, 90
5, 57216, Note_on_c, 2, 57, 90
5, 57404, Note_off_c, 2, 69, 0
5, 57404, Note_off_c, 2, 67, 0
5, 57404, Note_off_c, 2, 61, 0
5, 57404, Note_off_c, 2, 57, 0
5, 57504, Note_on_c, 2, 69, 90
5, 57504, Note_on_c, 2, 67, 90
5, 57504, Note_on_c, 2, 61, 90
5, 57504, Note_on_c, 2, 57, 90
5, 58268, Note_off_c, 2, 69, 0
5, 58268, Note_off_c, 2, 67, 0
5, 58268, Note_off_c, 2, 61, 0
5, 58268, Note_off_c, 2, 57, 0
5, 58368, Note_on_c, 2, 66, 90
5, 58368, Note_on_c, 2, 60, 90
5, 58368, Note_on_c, 2, 57, 90
5, 58368, Note_on_c, 2, 62, 90
5, 58748, Note_off_c, 2, 66, 0
5, 58748, Note_off_c, 2, 60, 0
5, 58748, Note_off_c, 2, 57, 0
5, 58748, Note_off_c, 2, 62, 0
5, 58752, Note_on_c, 2, 66, 90
5, 58752, Note_on_c, 2, 62, 90
5, 58752, Note_on_c, 2, 60, 90
5, 58752, Note_on_c, 2, 57, 90
5, 58940, Note_off_c, 2, 66, 0
5, 58940, Note_off_c, 2, 62, 0
5, 58940, Note_off_c, 2, 60, 0
5, 58940, Note_off_c, 2, 57, 0
5, 59040, Note_on_c, 2, 62, 90
5, 59040, Note_on_c, 2, 60, 90
5, 59040, Note_on_c, 2, 57, 90
5, 59040, Note_on_c, 2, 66, 90
5, 59804, Note_off_c, 2, 62, 0
5, 59804, Note_off_c, 2, 60, 0
5, 59804, Note_off_c, 2, 57, 0
5, 59804, Note_off_c, 2, 66, 0
5, 59808, Note_on_c, 2, 67, 90
5, 59808, Note_on_c, 2, 62, 90
5, 59808, Note_on_c, 2, 59, 90
5, 60188, Note_off_c, 2, 59, 0
5, 60188, Note_off_c, 2, 62, 0
5, 60188, Note_off_c, 2, 67, 0
5, 60288, Note_on_c, 2, 67, 90
5, 60288, Note_on_c, 2, 62, 90
5, 60288, Note_on_c, 2, 59, 90
5, 60668, Note_off_c, 2, 67, 0
5, 60668, Note_off_c, 2, 62, 0
5, 60668, Note_off_c, 2, 59, 0
5, 61056, Note_on_c, 2, 67, 90
5, 61056, Note_on_c, 2, 62, 90
5, 61056, Note_on_c, 2, 59, 90
5, 61244, Note_off_c, 2, 67, 0
5, 61244, Note_off_c, 2, 62, 0
5, 61244, Note_off_c, 2, 59, 0
5, 61344, Note_on_c, 2, 67, 90
5, 61344, Note_on_c, 2, 62, 90
5, 61344, Note_on_c, 2, 59, 90
5, 61824, Note_on_c, 2, 64, 120
5, 62108, Note_off_c, 2, 64, 0
5, 62112, Note_on_c, 2, 59, 120
5, 62204, Note_off_c, 2, 59, 0
5, 62208, Note_on_c, 2, 62, 120
5, 62492, Note_off_c, 2, 62, 0
5, 62492, Note_off_c, 2, 67, 0
5, 62492, Note_off_c, 2, 59, 0
5, 62492, Note_off_c, 2, 62, 0
5, 62496, Note_on_c, 2, 64, 120
5, 62588, Note_off_c, 2, 64, 0
5, 63360, Note_on_c, 2, 69, 90
5, 63360, Note_on_c, 2, 67, 90
5, 63360, Note_on_c, 2, 61, 90
5, 63360, Note_on_c, 2, 57, 90
5, 63548, Note_off_c, 2, 69, 0
5, 63548, Note_off_c, 2, 67, 0
5, 63548, Note_off_c, 2, 61, 0
5, 63548, Note_off_c, 2, 57, 0
5, 63648, Note_on_c, 2, 69, 90
5, 63648, Note_on_c, 2, 67, 90
5, 63648, Note_on_c, 2, 61, 90
5, 63648, Note_on_c, 2, 57, 90
5, 64412, Note_off_c, 2, 69, 0
5, 64412, Note_off_c, 2, 67, 0
5, 64412, Note_off_c, 2, 61, 0
5, 64412, Note_off_c, 2, 57, 0
5, 64512, Note_on_c, 2, 66, 90
5, 64512, Note_on_c, 2, 60, 90
5, 64512, Note_on_c, 2, 57, 90
5, 64512, Note_on_c, 2, 62, 90
5, 64892, Note_off_c, 2, 66, 0
5, 64892, Note_off_c, 2, 60, 0
5, 64892, Note_off_c, 2, 57, 0
5, 64892, Note_off_c, 2, 62, 0
5, 64896, Note_on_c, 2, 66, 90
5, 64896, Note_on_c, 2, 62, 90
5, 64896, Note_on_c, 2, 60, 90
5, 64896, Note_on_c, 2, 57, 90
5, 65084, Note_off_c, 2, 66, 0
5, 65084, Note_off_c, 2, 62, 0
5, 65084, Note_off_c, 2, 60, 0
5, 65084, Note_off_c, 2, 57, 0
5, 65184, Note_on_c, 2, 62, 90
5, 65184, Note_on_c, 2, 60, 90
5, 65184, Note_on_c, 2, 57, 90
5, 65184, Note_on_c, 2, 66, 90
5, 65948, Note_off_c, 2, 62, 0
5, 65948, Note_off_c, 2, 60, 0
5, 65948, Note_off_c, 2, 57, 0
5, 65948, Note_off_c, 2, 66, 0
5, 65952, Note_on_c, 2, 67, 90
5, 65952, Note_on_c, 2, 62, 90
5, 65952, Note_on_c, 2, 59, 90
5, 66332, Note_off_c, 2, 59, 0
5, 66332, Note_off_c, 2, 62, 0
5, 66332, Note_off_c, 2, 67, 0
5, 66432, Note_on_c, 2, 67, 90
5, 66432, Note_on_c, 2, 62, 90
5, 66432, Note_on_c, 2, 59, 90
5, 66812, Note_off_c, 2, 67, 0
5, 66812, Note_off_c, 2, 62, 0
5, 66812, Note_off_c, 2, 59, 0
5, 67200, Note_on_c, 2, 67, 90
5, 67200, Note_on_c, 2, 62, 90
5, 67200, Note_on_c, 2, 59, 90
5, 67388, Note_off_c, 2, 67, 0
5, 67388, Note_off_c, 2, 62, 0
5, 67388, Note_off_c, 2, 59, 0
5, 67488, Note_on_c, 2, 67, 90
5, 67488, Note_on_c, 2, 62, 90
5, 67488, Note_on_c, 2, 59, 90
5, 67968, Note_on_c, 2, 64, 120
5, 68252, Note_off_c, 2, 64, 0
5, 68256, Note_on_c, 2, 59, 120
5, 68348, Note_off_c, 2, 59, 0
5, 68352, Note_on_c, 2, 62, 120
5, 68636, Note_off_c, 2, 62, 0
5, 68636, Note_off_c, 2, 67, 0
5, 68636, Note_off_c, 2, 59, 0
5, 68636, Note_off_c, 2, 62, 0
5, 68640, Note_on_c, 2, 64, 120
5, 68732, Note_off_c, 2, 64, 0
5, 69504, Note_on_c, 2, 69, 90
5, 69504, Note_on_c, 2, 67, 90
5, 69504, Note_on_c, 2, 61, 90
5, 69504, Note_on_c, 2, 57, 90
5, 69692, Note_off_c, 2, 69, 0
5, 69692, Note_off_c, 2, 67, 0
5, 69692, Note_off_c, 2, 61, 0
5, 69692, Note_off_c, 2, 57, 0
5, 69792, Note_on_c, 2, 69, 90
5, 69792, Note_on_c, 2, 67, 90
5, 69792, Note_on_c, 2, 61, 90
5, 69792, Note_on_c, 2, 57, 90
5, 70556, Note_off_c, 2, 69, 0
5, 70556, Note_off_c, 2, 67, 0
5, 70556, Note_off_c, 2, 61, 0
5, 70556, Note_off_c, 2, 57, 0
5, 70656, Note_on_c, 2, 66, 90
5, 70656, Note_on_c, 2, 60, 90
5, 70656, Note_on_c, 2, 57, 90
5, 70656, Note_on_c, 2, 62, 90
5, 71036, Note_off_c, 2, 66, 0
5, 71036, Note_off_c, 2, 60, 0
5, 71036, Note_off_c, 2, 57, 0
5, 71036, Note_off_c, 2, 62, 0
5, 71040, Note_on_c, 2, 66, 90
5, 71040, Note_on_c, 2, 62, 90
5, 71040, Note_on_c, 2, 60, 90
5, 71040, Note_on_c, 2, 57, 90
5, 71228, Note_off_c, 2, 66, 0
5, 71228, Note_off_c, 2, 62, 0
5, 71228, Note_off_c, 2, 60, 0
5, 71228, Note_off_c, 2, 57, 0
5, 71328, Note_on_c, 2, 62, 90
5, 71328, Note_on_c, 2, 60, 90
5, 71328, Note_on_c, 2, 57, 90
5, 71328, Note_on_c, 2, 66, 90
5, 72092, Note_off_c, 2, 62, 0
5, 72092, Note_off_c, 2, 60, 0
5, 72092, Note_off_c, 2, 57, 0
5, 72092, Note_off_c, 2, 66, 0
5, 72096, Note_on_c, 2, 67, 90
5, 72096, Note_on_c, 2, 62, 90
5, 72096, Note_on_c, 2, 59, 90
5, 72476, Note_off_c, 2, 59, 0
5, 72476, Note_off_c, 2, 62, 0
5, 72476, Note_off_c, 2, 67, 0
5, 72576, Note_on_c, 2, 67, 90
5, 72576, Note_on_c, 2, 62, 90
5, 72576, Note_on_c, 2, 59, 90
5, 72956, Note_off_c, 2, 67, 0
5, 72956, Note_off_c, 2, 62, 0
5, 72956, Note_off_c, 2, 59, 0
5, 73344, Note_on_c, 2, 67, 90
5, 73344, Note_on_c, 2, 62, 90
5, 73344, Note_on_c, 2, 59, 90
5, 73532, Note_off_c, 2, 67, 0
5, 73532, Note_off_c, 2, 62, 0
5, 73532, Note_off_c, 2, 59, 0
5, 73632, Note_on_c, 2, 67, 90
5, 73632, Note_on_c, 2, 62, 90
5, 73632, Note_on_c, 2, 59, 90
5, 74112, Note_on_c, 2, 64, 120
5, 74396, Note_off_c, 2, 64, 0
5, 74400, Note_on_c, 2, 59, 120
5, 74492, Note_off_c, 2, 59, 0
5, 74496, Note_on_c, 2, 62, 120
5, 74780, Note_off_c, 2, 62, 0
5, 74780, Note_off_c, 2, 67, 0
5, 74780, Note_off_c, 2, 59, 0
5, 74780, Note_off_c, 2, 62, 0
5, 74784, Note_on_c, 2, 64, 120
5, 74876, Note_off_c, 2, 64, 0
5, 75648, Note_on_c, 2, 67, 90
5, 75648, Note_on_c, 2, 62, 90
5, 75648, Note_on_c, 2, 59, 90
5, 75836, Note_off_c, 2, 67, 0
5, 75836, Note_off_c, 2, 62, 0
5, 75836, Note_off_c, 2, 59, 0
5, 76416, Note_on_c, 2, 67, 90
5, 76416, Note_on_c, 2, 62, 90
5, 76416, Note_on_c, 2, 59, 90
5, 76604, Note_off_c, 2, 67, 0
5, 76604, Note_off_c, 2, 62, 0
5, 76604, Note_off_c, 2, 59, 0
5, 77184, Note_on_c, 2, 64, 90
5, 77184, Note_on_c, 2, 60, 90
5, 77184, Note_on_c, 2, 55, 90
5, 77372, Note_off_c, 2, 64, 0
5, 77372, Note_off_c, 2, 60, 0
5, 77372, Note_off_c, 2, 55, 0
5, 77952, Note_on_c, 2, 64, 90
5, 77952, Note_on_c, 2, 60, 90
5, 77952, Note_on_c, 2, 55, 90
5, 78140, Note_off_c, 2, 64, 0
5, 78140, Note_off_c, 2, 60, 0
5, 78140, Note_off_c, 2, 55, 0
5, 78720, Note_on_c, 2, 67, 90
5, 78720, Note_on_c, 2, 62, 90
5, 78720, Note_on_c, 2, 59, 90
5, 78908, Note_off_c, 2, 67, 0
5, 78908, Note_off_c, 2, 62, 0
5, 78908, Note_off_c, 2, 59, 0
5, 79488, Note_on_c, 2, 67, 90
5, 79488, Note_on_c, 2, 62, 90
5, 79488, Note_on_c, 2, 59, 90
5, 79676, Note_off_c, 2, 67, 0
5, 79676, Note_off_c, 2, 62, 0
5, 79676, Note_off_c, 2, 59, 0
5, 80256, Note_on_c, 2, 66, 90
5, 80256, Note_on_c, 2, 60, 90
5, 80256, Note_on_c, 2, 57, 90
5, 80444, Note_off_c, 2, 66, 0
5, 80444, Note_off_c, 2, 60, 0
5, 80444, Note_off_c, 2, 57, 0
5, 81024, Note_on_c, 2, 66, 90
5, 81024, Note_on_c, 2, 60, 90
5, 81024, Note_on_c, 2, 57, 90
5, 81212, Note_off_c, 2, 66, 0
5, 81212, Note_off_c, 2, 60, 0
5, 81212, Note_off_c, 2, 57, 0
5, 81792, Note_on_c, 2, 67, 90
5, 81792, Note_on_c, 2, 62, 90
5, 81792, Note_on_c, 2, 59, 90
5, 81980, Note_off_c, 2, 67, 0
5, 81980, Note_off_c, 2, 62, 0
5, 81980, Note_off_c, 2, 59, 0
5, 82560, Note_on_c, 2, 67, 90
5, 82560, Note_on_c, 2, 62, 90
5, 82560, Note_on_c, 2, 59, 90
5, 82748, Note_off_c, 2, 67, 0
5, 82748, Note_off_c, 2, 62, 0
5, 82748, Note_off_c, 2, 59, 0
5, 83328, Note_on_c, 2, 67, 90
5, 83328, Note_on_c, 2, 64, 90
5, 83328, Note_on_c, 2, 60, 90
5, 83516, Note_off_c, 2, 67, 0
5, 83516, Note_off_c, 2, 64, 0
5, 83516, Note_off_c, 2, 60, 0
5, 84096, Note_on_c, 2, 67, 90
5, 84096, Note_on_c, 2, 64, 90
5, 84096, Note_on_c, 2, 60, 90
5, 84284, Note_off_c, 2, 67, 0
5, 84284, Note_off_c, 2, 64, 0
5, 84284, Note_off_c, 2, 60, 0
5, 84864, Note_on_c, 2, 66, 90
5, 84864, Note_on_c, 2, 60, 90
5, 84864, Note_on_c, 2, 57, 90
5, 85052, Note_off_c, 2, 66, 0
5, 85052, Note_off_c, 2, 60, 0
5, 85052, Note_off_c, 2, 57, 0
5, 85632, Note_on_c, 2, 66, 90
5, 85632, Note_on_c, 2, 60, 90
5, 85632, Note_on_c, 2, 57, 90
5, 85820, Note_off_c, 2, 66, 0
5, 85820, Note_off_c, 2, 60, 0
5, 85820, Note_off_c, 2, 57, 0
5, 86016, Note_on_c, 2, 67, 90
5, 86016, Note_on_c, 2, 62, 90
5, 86016, Note_on_c, 2, 59, 90
5, 86204, Note_off_c, 2, 67, 0
5, 86204, Note_off_c, 2, 62, 0
5, 86204, Note_off_c, 2, 59, 0
5, 87936, Note_on_c, 2, 66, 90
5, 87936, Note_on_c, 2, 60, 90
5, 87936, Note_on_c, 2, 57, 90
5, 88124, Note_off_c, 2, 66, 0
5, 88124, Note_off_c, 2, 60, 0
5, 88124, Note_off_c, 2, 57, 0
5, 88704, Note_on_c, 2, 66, 90
5, 88704, Note_on_c, 2, 60, 90
5, 88704, Note_on_c, 2, 57, 90
5, 88892, Note_off_c, 2, 66, 0
5, 88892, Note_off_c, 2, 60, 0
5, 88892, Note_off_c, 2, 57, 0
5, 89472, Note_on_c, 2, 66, 90
5, 89472, Note_on_c, 2, 60, 90
5, 89472, Note_on_c, 2, 57, 90
5, 89660, Note_off_c, 2, 66, 0
5, 89660, Note_off_c, 2, 60, 0
5, 89660, Note_off_c, 2, 57, 0
5, 90240, Note_on_c, 2, 66, 90
5, 90240, Note_on_c, 2, 60, 90
5, 90240, Note_on_c, 2, 57, 90
5, 90428, Note_off_c, 2, 66, 0
5, 90428, Note_off_c, 2, 60, 0
5, 90428, Note_off_c, 2, 57, 0
5, 91008, Note_on_c, 2, 67, 90
5, 91008, Note_on_c, 2, 62, 90
5, 91008, Note_on_c, 2, 59, 90
5, 91196, Note_off_c, 2, 67, 0
5, 91196, Note_off_c, 2, 62, 0
5, 91196, Note_off_c, 2, 59, 0
5, 91776, Note_on_c, 2, 67, 90
5, 91776, Note_on_c, 2, 62, 90
5, 91776, Note_on_c, 2, 59, 90
5, 91964, Note_off_c, 2, 67, 0
5, 91964, Note_off_c, 2, 62, 0
5, 91964, Note_off_c, 2, 59, 0
5, 92544, Note_on_c, 2, 67, 90
5, 92544, Note_on_c, 2, 62, 90
5, 92544, Note_on_c, 2, 59, 90
5, 92732, Note_off_c, 2, 67, 0
5, 92732, Note_off_c, 2, 62, 0
5, 92732, Note_off_c, 2, 59, 0
5, 93312, Note_on_c, 2, 67, 90
5, 93312, Note_on_c, 2, 62, 90
5, 93312, Note_on_c, 2, 59, 90
5, 93500, Note_off_c, 2, 67, 0
5, 93500, Note_off_c, 2, 62, 0
5, 93500, Note_off_c, 2, 59, 0
5, 94080, Note_on_c, 2, 66, 90
5, 94080, Note_on_c, 2, 60, 90
5, 94080, Note_on_c, 2, 57, 90
5, 94268, Note_off_c, 2, 66, 0
5, 94268, Note_off_c, 2, 60, 0
5, 94268, Note_off_c, 2, 57, 0
5, 94848, Note_on_c, 2, 66, 90
5, 94848, Note_on_c, 2, 60, 90
5, 94848, Note_on_c, 2, 57, 90
5, 95036, Note_off_c, 2, 66, 0
5, 95036, Note_off_c, 2, 60, 0
5, 95036, Note_off_c, 2, 57, 0
5, 95616, Note_on_c, 2, 66, 90
5, 95616, Note_on_c, 2, 60, 90
5, 95616, Note_on_c, 2, 57, 90
5, 95804, Note_off_c, 2, 66, 0
5, 95804, Note_off_c, 2, 60, 0
5, 95804, Note_off_c, 2, 57, 0
5, 96384, Note_on_c, 2, 66, 90
5, 96384, Note_on_c, 2, 60, 90
5, 96384, Note_on_c, 2, 57, 90
5, 96572, Note_off_c, 2, 66, 0
5, 96572, Note_off_c, 2, 60, 0
5, 96572, Note_off_c, 2, 57, 0
5, 97152, Note_on_c, 2, 69, 90
5, 97152, Note_on_c, 2, 67, 90
5, 97152, Note_on_c, 2, 61, 90
5, 97152, Note_on_c, 2, 57, 90
5, 97340, Note_off_c, 2, 69, 0
5, 97340, Note_off_c, 2, 67, 0
5, 97340, Note_off_c, 2, 61, 0
5, 97340, Note_off_c, 2, 57, 0
5, 97440, Note_on_c, 2, 69, 90
5, 97440, Note_on_c, 2, 67, 90
5, 97440, Note_on_c, 2, 61, 90
5, 97440, Note_on_c, 2, 57, 90
5, 98204, Note_off_c, 2, 69, 0
5, 98204, Note_off_c, 2, 67, 0
5, 98204, Note_off_c, 2, 61, 0
5, 98204, Note_off_c, 2, 57, 0
5, 98304, Note_on_c, 2, 66, 90
5, 98304, Note_on_c, 2, 60, 90
5, 98304, Note_on_c, 2, 57, 90
5, 98304, Note_on_c, 2, 62, 90
5, 98684, Note_off_c, 2, 66, 0
5, 98684, Note_off_c, 2, 60, 0
5, 98684, Note_off_c, 2, 57, 0
5, 98684, Note_off_c, 2, 62, 0
5, 98688, Note_on_c, 2, 66, 90
5, 98688, Note_on_c, 2, 62, 90
5, 98688, Note_on_c, 2, 60, 90
5, 98688, Note_on_c, 2, 57, 90
5, 98876, Note_off_c, 2, 66, 0
5, 98876, Note_off_c, 2, 62, 0
5, 98876, Note_off_c, 2, 60, 0
5, 98876, Note_off_c, 2, 57, 0
5, 98976, Note_on_c, 2, 62, 90
5, 98976, Note_on_c, 2, 60, 90
5, 98976, Note_on_c, 2, 57, 90
5, 98976, Note_on_c, 2, 66, 90
5, 99740, Note_off_c, 2, 62, 0
5, 99740, Note_off_c, 2, 60, 0
5, 99740, Note_off_c, 2, 57, 0
5, 99740, Note_off_c, 2, 66, 0
5, 99744, Note_on_c, 2, 67, 90
5, 99744, Note_on_c, 2, 62, 90
5, 99744, Note_on_c, 2, 59, 90
5, 100124, Note_off_c, 2, 59, 0
5, 100124, Note_off_c, 2, 62, 0
5, 100124, Note_off_c, 2, 67, 0
5, 100224, Note_on_c, 2, 67, 90
5, 100224, Note_on_c, 2, 62, 90
5, 100224, Note_on_c, 2, 59, 90
5, 100604, Note_off_c, 2, 67, 0
5, 100604, Note_off_c, 2, 62, 0
5, 100604, Note_off_c, 2, 59, 0
5, 100992, Note_on_c, 2, 67, 90
5, 100992, Note_on_c, 2, 62, 90
5, 100992, Note_on_c, 2, 59, 90
5, 101180, Note_off_c, 2, 67, 0
5, 101180, Note_off_c, 2, 62, 0
5, 101180, Note_off_c, 2, 59, 0
5, 101280, Note_on_c, 2, 67, 90
5, 101280, Note_on_c, 2, 62, 90
5, 101280, Note_on_c, 2, 59, 90
5, 101760, Note_on_c, 2, 64, 120
5, 102044, Note_off_c, 2, 64, 0
5, 102048, Note_on_c, 2, 59, 120
5, 102140, Note_off_c, 2, 59, 0
5, 102144, Note_on_c, 2, 62, 120
5, 102428, Note_off_c, 2, 62, 0
5, 102428, Note_off_c, 2, 67, 0
5, 102428, Note_off_c, 2, 59, 0
5, 102428, Note_off_c, 2, 62, 0
5, 102432, Note_on_c, 2, 64, 120
5, 102524, Note_off_c, 2, 64, 0
5, 103296, Note_on_c, 2, 69, 89
5, 103296, Note_on_c, 2, 67, 89
5, 103296, Note_on_c, 2, 61, 89
5, 103296, Note_on_c, 2, 57, 89
5, 103484, Note_off_c, 2, 69, 0
5, 103484, Note_off_c, 2, 67, 0
5, 103484, Note_off_c, 2, 61, 0
5, 103484, Note_off_c, 2, 57, 0
5, 103584, Note_on_c, 2, 69, 87
5, 103584, Note_on_c, 2, 67, 87
5, 103584, Note_on_c, 2, 61, 87
5, 103584, Note_on_c, 2, 57, 87
5, 104348, Note_off_c, 2, 69, 0
5, 104348, Note_off_c, 2, 67, 0
5, 104348, Note_off_c, 2, 61, 0
5, 104348, Note_off_c, 2, 57, 0
5, 104448, Note_on_c, 2, 66, 83
5, 104448, Note_on_c, 2, 60, 83
5, 104448, Note_on_c, 2, 57, 83
5, 104448, Note_on_c, 2, 62, 83
5, 104828, Note_off_c, 2, 66, 0
5, 104828, Note_off_c, 2, 60, 0
5, 104828, Note_off_c, 2, 57, 0
5, 104828, Note_off_c, 2, 62, 0
5, 104832, Note_on_c, 2, 66, 81
5, 104832, Note_on_c, 2, 62, 81
5, 104832, Note_on_c, 2, 60, 81
5, 104832, Note_on_c, 2, 57, 81
5, 105020, Note_off_c, 2, 66, 0
5, 105020, Note_off_c, 2, 62, 0
5, 105020, Note_off_c, 2, 60, 0
5, 105020, Note_off_c, 2, 57, 0
5, 105120, Note_on_c, 2, 62, 79
5, 105120, Note_on_c, 2, 60, 79
5, 105120, Note_on_c, 2, 57, 79
5, 105120, Note_on_c, 2, 66, 79
5, 105884, Note_off_c, 2, 62, 0
5, 105884, Note_off_c, 2, 60, 0
5, 105884, Note_off_c, 2, 57, 0
5, 105884, Note_off_c, 2, 66, 0
5, 105888, Note_on_c, 2, 67, 76
5, 105888, Note_on_c, 2, 62, 76
5, 105888, Note_on_c, 2, 59, 76
5, 106268, Note_off_c, 2, 59, 0
5, 106268, Note_off_c, 2, 62, 0
5, 106268, Note_off_c, 2, 67, 0
5, 106368, Note_on_c, 2, 67, 73
5, 106368, Note_on_c, 2, 62, 73
5, 106368, Note_on_c, 2, 59, 73
5, 106748, Note_off_c, 2, 67, 0
5, 106748, Note_off_c, 2, 62, 0
5, 106748, Note_off_c, 2, 59, 0
5, 107136, Note_on_c, 2, 67, 69
5, 107136, Note_on_c, 2, 62, 69
5, 107136, Note_on_c, 2, 59, 69
5, 107324, Note_off_c, 2, 67, 0
5, 107324, Note_off_c, 2, 62, 0
5, 107324, Note_off_c, 2, 59, 0
5, 107424, Note_on_c, 2, 67, 68
5, 107424, Note_on_c, 2, 62, 68
5, 107424, Note_on_c, 2, 59, 68
5, 107904, Note_on_c, 2, 64, 65
5, 108188, Note_off_c, 2, 64, 0
5, 108192, Note_on_c, 2, 59, 64
5, 108284, Note_off_c, 2, 59, 0
5, 108288, Note_on_c, 2, 62, 63
5, 108572, Note_off_c, 2, 62, 0
5, 108572, Note_off_c, 2, 67, 0
5, 108572, Note_off_c, 2, 59, 0
5, 108572, Note_off_c, 2, 62, 0
5, 108576, Note_on_c, 2, 64, 62
5, 108668, Note_off_c, 2, 64, 0
5, 109440, Note_on_c, 2, 69, 58
5, 109440, Note_on_c, 2, 67, 58
5, 109440, Note_on_c, 2, 61, 58
5, 109440, Note_on_c, 2, 57, 58
5, 109628, Note_off_c, 2, 69, 0
5, 109628, Note_off_c, 2, 67, 0
5, 109628, Note_off_c, 2, 61, 0
5, 109628, Note_off_c, 2, 57, 0
5, 109728, Note_on_c, 2, 69, 56
5, 109728, Note_on_c, 2, 67, 56
5, 109728, Note_on_c, 2, 61, 56
5, 109728, Note_on_c, 2, 57, 56
5, 110492, Note_off_c, 2, 69, 0
5, 110492, Note_off_c, 2, 67, 0
5, 110492, Note_off_c, 2, 61, 0
5, 110492, Note_off_c, 2, 57, 0
5, 110592, Note_on_c, 2, 66, 52
5, 110592, Note_on_c, 2, 60, 52
5, 110592, Note_on_c, 2, 57, 52
5, 110592, Note_on_c, 2, 62, 52
5, 110972, Note_off_c, 2, 66, 0
5, 110972, Note_off_c, 2, 60, 0
5, 110972, Note_off_c, 2, 57, 0
5, 110972, Note_off_c, 2, 62, 0
5, 110976, Note_on_c, 2, 66, 50
5, 110976, Note_on_c, 2, 62, 50
5, 110976, Note_on_c, 2, 60, 50
5, 110976, Note_on_c, 2, 57, 50
5, 111164, Note_off_c, 2, 66, 0
5, 111164, Note_off_c, 2, 62, 0
5, 111164, Note_off_c, 2, 60, 0
5, 111164, Note_off_c, 2, 57, 0
5, 111264, Note_on_c, 2, 62, 48
5, 111264, Note_on_c, 2, 60, 48
5, 111264, Note_on_c, 2, 57, 48
5, 111264, Note_on_c, 2, 66, 48
5, 112028, Note_off_c, 2, 62, 0
5, 112028, Note_off_c, 2, 60, 0
5, 112028, Note_off_c, 2, 57, 0
5, 112028, Note_off_c, 2, 66, 0
5, 112032, Note_on_c, 2, 67, 45
5, 112032, Note_on_c, 2, 62, 45
5, 112032, Note_on_c, 2, 59, 45
5, 112412, Note_off_c, 2, 59, 0
5, 112412, Note_off_c, 2, 62, 0
5, 112412, Note_off_c, 2, 67, 0
5, 112512, Note_on_c, 2, 67, 42
5, 112512, Note_on_c, 2, 62, 42
5, 112512, Note_on_c, 2, 59, 42
5, 112892, Note_off_c, 2, 67, 0
5, 112892, Note_off_c, 2, 62, 0
5, 112892, Note_off_c, 2, 59, 0
5, 113280, Note_on_c, 2, 67, 38
5, 113280, Note_on_c, 2, 62, 38
5, 113280, Note_on_c, 2, 59, 38
5, 113468, Note_off_c, 2, 67, 0
5, 113468, Note_off_c, 2, 62, 0
5, 113468, Note_off_c, 2, 59, 0
5, 113568, Note_on_c, 2, 67, 37
5, 113568, Note_on_c, 2, 62, 37
5, 113568, Note_on_c, 2, 59, 37
5, 114048, Note_on_c, 2, 64, 34
5, 114332, Note_off_c, 2, 64, 0
5, 114336, Note_on_c, 2, 59, 33
5, 114428, Note_off_c, 2, 59, 0
5, 114432, Note_on_c, 2, 62, 33
5, 114716, Note_off_c, 2, 62, 0
5, 114716, Note_off_c, 2, 67, 0
5, 114716, Note_off_c, 2, 59, 0
5, 114716, Note_off_c, 2, 62, 0
5, 114720, Note_on_c, 2, 64, 31
5, 114812, Note_off_c, 2, 64, 0
5, 115584, Note_on_c, 2, 69, 27
5, 115584, Note_on_c, 2, 67, 27
5, 115584, Note_on_c, 2, 61, 27
5, 115584, Note_on_c, 2, 57, 27
5, 115772, Note_off_c, 2, 69, 0
5, 115772, Note_off_c, 2, 67, 0
5, 115772, Note_off_c, 2, 61, 0
5, 115772, Note_off_c, 2, 57, 0
5, 115872, Note_on_c, 2, 69, 25
5, 115872, Note_on_c, 2, 67, 25
5, 115872, Note_on_c, 2, 61, 25
5, 115872, Note_on_c, 2, 57, 25
5, 116636, Note_off_c, 2, 69, 0
5, 116636, Note_off_c, 2, 67, 0
5, 116636, Note_off_c, 2, 61, 0
5, 116636, Note_off_c, 2, 57, 0
5, 116736, Note_on_c, 2, 66, 21
5, 116736, Note_on_c, 2, 60, 21
5, 116736, Note_on_c, 2, 57, 21
5, 116736, Note_on_c, 2, 62, 21
5, 117116, Note_off_c, 2, 66, 0
5, 117116, Note_off_c, 2, 60, 0
5, 117116, Note_off_c, 2, 57, 0
5, 117116, Note_off_c, 2, 62, 0
5, 117120, Note_on_c, 2, 66, 19
5, 117120, Note_on_c, 2, 62, 19
5, 117120, Note_on_c, 2, 60, 19
5, 117120, Note_on_c, 2, 57, 19
5, 117308, Note_off_c, 2, 66, 0
5, 117308, Note_off_c, 2, 62, 0
5, 117308, Note_off_c, 2, 60, 0
5, 117308, Note_off_c, 2, 57, 0
5, 117408, Note_on_c, 2, 62, 18
5, 117408, Note_on_c, 2, 60, 18
5, 117408, Note_on_c, 2, 57, 18
5, 117408, Note_on_c, 2, 66, 18
5, 118172, Note_off_c, 2, 62, 0
5, 118172, Note_off_c, 2, 60, 0
5, 118172, Note_off_c, 2, 57, 0
5, 118172, Note_off_c, 2, 66, 0
5, 118176, Note_on_c, 2, 67, 14
5, 118176, Note_on_c, 2, 62, 14
5, 118176, Note_on_c, 2, 59, 14
5, 118556, Note_off_c, 2, 59, 0
5, 118556, Note_off_c, 2, 62, 0
5, 118556, Note_off_c, 2, 67, 0
5, 118656, Note_on_c, 2, 67, 11
5, 118656, Note_on_c, 2, 62, 11
5, 118656, Note_on_c, 2, 59, 11
5, 119036, Note_off_c, 2, 67, 0
5, 119036, Note_off_c, 2, 62, 0
5, 119036, Note_off_c, 2, 59, 0
5, 119424, Note_on_c, 2, 67, 7
5, 119424, Note_on_c, 2, 62, 7
5, 119424, Note_on_c, 2, 59, 7
5, 119612, Note_off_c, 2, 67, 0
5, 119612, Note_off_c, 2, 62, 0
5, 119612, Note_off_c, 2, 59, 0
5, 119712, Note_on_c, 2, 67, 6
5, 119712, Note_on_c, 2, 62, 6
5, 119712, Note_on_c, 2, 59, 6
5, 119808, Note_off_c, 2, 67, 0
5, 119808, Note_off_c, 2, 62, 0
5, 119808, Note_off_c, 2, 59, 0
5, 119808, End_track
6, 0, Start_track
6, 0, Title_t, "Piano"
6, 0, Control_c, 3, 0, 0
6, 0, Program_c, 3, 0
6, 0, Control_c, 3, 7, 110
6, 0, Control_c, 3, 10, 105
6, 0, Key_signature, 0, "major"
6, 1824, Note_on_c, 3, 67, 80
6, 1824, Note_on_c, 3, 61, 80
6, 1824, Note_on_c, 3, 57, 80
6, 1952, Note_off_c, 3, 67, 0
6, 1952, Note_off_c, 3, 61, 0
6, 1952, Note_off_c, 3, 57, 0
6, 2208, Note_on_c, 3, 67, 80
6, 2208, Note_on_c, 3, 61, 80
6, 2208, Note_on_c, 3, 57, 80
6, 2336, Note_off_c, 3, 67, 0
6, 2336, Note_off_c, 3, 61, 0
6, 2336, Note_off_c, 3, 57, 0
6, 2592, Note_on_c, 3, 67, 80
6, 2592, Note_on_c, 3, 61, 80
6, 2592, Note_on_c, 3, 57, 80
6, 2720, Note_off_c, 3, 67, 0
6, 2720, Note_off_c, 3, 61, 0
6, 2720, Note_off_c, 3, 57, 0
6, 2976, Note_on_c, 3, 67, 80
6, 2976, Note_on_c, 3, 61, 80
6, 2976, Note_on_c, 3, 57, 80
6, 3040, Note_off_c, 3, 67, 0
6, 3040, Note_off_c, 3, 61, 0
6, 3040, Note_off_c, 3, 57, 0
6, 3360, Note_on_c, 3, 60, 80
6, 3360, Note_on_c, 3, 57, 80
6, 3360, Note_on_c, 3, 66, 80
6, 3360, Note_on_c, 3, 57, 80
6, 3360, Note_on_c, 3, 62, 80
6, 3488, Note_off_c, 3, 57, 0
6, 3488, Note_off_c, 3, 62, 0
6, 3740, Note_off_c, 3, 60, 0
6, 3740, Note_off_c, 3, 66, 0
6, 3740, Note_off_c, 3, 57, 0
6, 3744, Note_on_c, 3, 66, 80
6, 3744, Note_on_c, 3, 60, 80
6, 3744, Note_on_c, 3, 62, 80
6, 3744, Note_on_c, 3, 57, 80
6, 3872, Note_off_c, 3, 66, 0
6, 3872, Note_off_c, 3, 60, 0
6, 3872, Note_off_c, 3, 62, 0
6, 3872, Note_off_c, 3, 57, 0
6, 4128, Note_on_c, 3, 66, 80
6, 4128, Note_on_c, 3, 57, 80
6, 4128, Note_on_c, 3, 66, 80
6, 4128, Note_on_c, 3, 60, 80
6, 4128, Note_on_c, 3, 62, 80
6, 4128, Note_on_c, 3, 57, 80
6, 4256, Note_off_c, 3, 66, 0
6, 4256, Note_off_c, 3, 57, 0
6, 4256, Note_off_c, 3, 62, 0
6, 4508, Note_off_c, 3, 66, 0
6, 4508, Note_off_c, 3, 60, 0
6, 4508, Note_off_c, 3, 57, 0
6, 4512, Note_on_c, 3, 66, 80
6, 4512, Note_on_c, 3, 60, 80
6, 4512, Note_on_c, 3, 62, 80
6, 4512, Note_on_c, 3, 57, 80
6, 4640, Note_off_c, 3, 57, 0
6, 4640, Note_off_c, 3, 60, 0
6, 4640, Note_off_c, 3, 62, 0
6, 4640, Note_off_c, 3, 66, 0
6, 4896, Note_on_c, 3, 67, 80
6, 4896, Note_on_c, 3, 64, 80
6, 4896, Note_on_c, 3, 62, 80
6, 4896, Note_on_c, 3, 59, 80
6, 5024, Note_off_c, 3, 67, 0
6, 5024, Note_off_c, 3, 64, 0
6, 5024, Note_off_c, 3, 62, 0
6, 5024, Note_off_c, 3, 59, 0
6, 5280, Note_on_c, 3, 67, 80
6, 5280, Note_on_c, 3, 64, 80
6, 5280, Note_on_c, 3, 62, 80
6, 5280, Note_on_c, 3, 59, 80
6, 5408, Note_off_c, 3, 67, 0
6, 5408, Note_off_c, 3, 64, 0
6, 5408, Note_off_c, 3, 62, 0
6, 5408, Note_off_c, 3, 59, 0
6, 5664, Note_on_c, 3, 67, 80
6, 5664, Note_on_c, 3, 64, 80
6, 5664, Note_on_c, 3, 62, 80
6, 5664, Note_on_c, 3, 59, 80
6, 5792, Note_off_c, 3, 67, 0
6, 5792, Note_off_c, 3, 64, 0
6, 5792, Note_off_c, 3, 62, 0
6, 5792, Note_off_c, 3, 59, 0
6, 6048, Note_on_c, 3, 67, 80
6, 6048, Note_on_c, 3, 64, 80
6, 6048, Note_on_c, 3, 62, 80
6, 6048, Note_on_c, 3, 59, 80
6, 6176, Note_off_c, 3, 59, 0
6, 6176, Note_off_c, 3, 62, 0
6, 6176, Note_off_c, 3, 64, 0
6, 6176, Note_off_c, 3, 67, 0
6, 6432, Note_on_c, 3, 67, 80
6, 6432, Note_on_c, 3, 64, 80
6, 6432, Note_on_c, 3, 62, 80
6, 6432, Note_on_c, 3, 59, 80
6, 6560, Note_off_c, 3, 67, 0
6, 6560, Note_off_c, 3, 64, 0
6, 6560, Note_off_c, 3, 62, 0
6, 6560, Note_off_c, 3, 59, 0
6, 6816, Note_on_c, 3, 67, 80
6, 6816, Note_on_c, 3, 64, 80
6, 6816, Note_on_c, 3, 62, 80
6, 6816, Note_on_c, 3, 59, 80
6, 6944, Note_off_c, 3, 67, 0
6, 6944, Note_off_c, 3, 64, 0
6, 6944, Note_off_c, 3, 62, 0
6, 6944, Note_off_c, 3, 59, 0
6, 7200, Note_on_c, 3, 67, 80
6, 7200, Note_on_c, 3, 64, 80
6, 7200, Note_on_c, 3, 62, 80
6, 7200, Note_on_c, 3, 59, 80
6, 7328, Note_off_c, 3, 67, 0
6, 7328, Note_off_c, 3, 64, 0
6, 7328, Note_off_c, 3, 62, 0
6, 7328, Note_off_c, 3, 59, 0
6, 7584, Note_on_c, 3, 67, 80
6, 7584, Note_on_c, 3, 64, 80
6, 7584, Note_on_c, 3, 62, 80
6, 7584, Note_on_c, 3, 59, 80
6, 7712, Note_off_c, 3, 59, 0
6, 7712, Note_off_c, 3, 62, 0
6, 7712, Note_off_c, 3, 64, 0
6, 7712, Note_off_c, 3, 67, 0
6, 7968, Note_on_c, 3, 67, 80
6, 7968, Note_on_c, 3, 64, 80
6, 7968, Note_on_c, 3, 62, 80
6, 7968, Note_on_c, 3, 59, 80
6, 8096, Note_off_c, 3, 67, 0
6, 8096, Note_off_c, 3, 64, 0
6, 8096, Note_off_c, 3, 62, 0
6, 8096, Note_off_c, 3, 59, 0
6, 8352, Note_on_c, 3, 67, 80
6, 8352, Note_on_c, 3, 64, 80
6, 8352, Note_on_c, 3, 62, 80
6, 8352, Note_on_c, 3, 59, 80
6, 8480, Note_off_c, 3, 67, 0
6, 8480, Note_off_c, 3, 64, 0
6, 8480, Note_off_c, 3, 62, 0
6, 8480, Note_off_c, 3, 59, 0
6, 8736, Note_on_c, 3, 67, 80
6, 8736, Note_on_c, 3, 64, 80
6, 8736, Note_on_c, 3, 62, 80
6, 8736, Note_on_c, 3, 59, 80
6, 8864, Note_off_c, 3, 67, 0
6, 8864, Note_off_c, 3, 64, 0
6, 8864, Note_off_c, 3, 62, 0
6, 8864, Note_off_c, 3, 59, 0
6, 9120, Note_on_c, 3, 67, 80
6, 9120, Note_on_c, 3, 64, 80
6, 9120, Note_on_c, 3, 62, 80
6, 9120, Note_on_c, 3, 59, 80
6, 9248, Note_off_c, 3, 59, 0
6, 9248, Note_off_c, 3, 62, 0
6, 9248, Note_off_c, 3, 64, 0
6, 9248, Note_off_c, 3, 67, 0
6, 9504, Note_on_c, 3, 67, 80
6, 9504, Note_on_c, 3, 69, 80
6, 9504, Note_on_c, 3, 64, 80
6, 9504, Note_on_c, 3, 60, 80
6, 9632, Note_off_c, 3, 67, 0
6, 9632, Note_off_c, 3, 69, 0
6, 9632, Note_off_c, 3, 64, 0
6, 9632, Note_off_c, 3, 60, 0
6, 9888, Note_on_c, 3, 67, 80
6, 9888, Note_on_c, 3, 69, 80
6, 9888, Note_on_c, 3, 64, 80
6, 9888, Note_on_c, 3, 60, 80
6, 10016, Note_off_c, 3, 67, 0
6, 10016, Note_off_c, 3, 69, 0
6, 10016, Note_off_c, 3, 64, 0
6, 10016, Note_off_c, 3, 60, 0
6, 10272, Note_on_c, 3, 67, 80
6, 10272, Note_on_c, 3, 69, 80
6, 10272, Note_on_c, 3, 64, 80
6, 10272, Note_on_c, 3, 60, 80
6, 10400, Note_off_c, 3, 67, 0
6, 10400, Note_off_c, 3, 69, 0
6, 10400, Note_off_c, 3, 64, 0
6, 10400, Note_off_c, 3, 60, 0
6, 10656, Note_on_c, 3, 67, 80
6, 10656, Note_on_c, 3, 69, 80
6, 10656, Note_on_c, 3, 64, 80
6, 10656, Note_on_c, 3, 60, 80
6, 10784, Note_off_c, 3, 60, 0
6, 10784, Note_off_c, 3, 64, 0
6, 10784, Note_off_c, 3, 67, 0
6, 10784, Note_off_c, 3, 69, 0
6, 11040, Note_on_c, 3, 67, 80
6, 11040, Note_on_c, 3, 64, 80
6, 11040, Note_on_c, 3, 62, 80
6, 11040, Note_on_c, 3, 59, 80
6, 11168, Note_off_c, 3, 67, 0
6, 11168, Note_off_c, 3, 64, 0
6, 11168, Note_off_c, 3, 62, 0
6, 11168, Note_off_c, 3, 59, 0
6, 11424, Note_on_c, 3, 67, 80
6, 11424, Note_on_c, 3, 64, 80
6, 11424, Note_on_c, 3, 62, 80
6, 11424, Note_on_c, 3, 59, 80
6, 11552, Note_off_c, 3, 67, 0
6, 11552, Note_off_c, 3, 64, 0
6, 11552, Note_off_c, 3, 62, 0
6, 11552, Note_off_c, 3, 59, 0
6, 11808, Note_on_c, 3, 67, 80
6, 11808, Note_on_c, 3, 64, 80
6, 11808, Note_on_c, 3, 62, 80
6, 11808, Note_on_c, 3, 59, 80
6, 11936, Note_off_c, 3, 67, 0
6, 11936, Note_off_c, 3, 64, 0
6, 11936, Note_off_c, 3, 62, 0
6, 11936, Note_off_c, 3, 59, 0
6, 12192, Note_on_c, 3, 67, 80
6, 12192, Note_on_c, 3, 64, 80
6, 12192, Note_on_c, 3, 62, 80
6, 12192, Note_on_c, 3, 59, 80
6, 12320, Note_off_c, 3, 59, 0
6, 12320, Note_off_c, 3, 62, 0
6, 12320, Note_off_c, 3, 64, 0
6, 12320, Note_off_c, 3, 67, 0
6, 12576, Note_on_c, 3, 66, 80
6, 12576, Note_on_c, 3, 60, 80
6, 12576, Note_on_c, 3, 62, 80
6, 12576, Note_on_c, 3, 57, 80
6, 12704, Note_off_c, 3, 66, 0
6, 12704, Note_off_c, 3, 60, 0
6, 12704, Note_off_c, 3, 62, 0
6, 12704, Note_off_c, 3, 57, 0
6, 12960, Note_on_c, 3, 66, 80
6, 12960, Note_on_c, 3, 60, 80
6, 12960, Note_on_c, 3, 62, 80
6, 12960, Note_on_c, 3, 57, 80
6, 13088, Note_off_c, 3, 66, 0
6, 13088, Note_off_c, 3, 60, 0
6, 13088, Note_off_c, 3, 62, 0
6, 13088, Note_off_c, 3, 57, 0
6, 13344, Note_on_c, 3, 66, 80
6, 13344, Note_on_c, 3, 60, 80
6, 13344, Note_on_c, 3, 62, 80
6, 13344, Note_on_c, 3, 57, 80
6, 13472, Note_off_c, 3, 66, 0
6, 13472, Note_off_c, 3, 60, 0
6, 13472, Note_off_c, 3, 62, 0
6, 13472, Note_off_c, 3, 57, 0
6, 13728, Note_on_c, 3, 66, 80
6, 13728, Note_on_c, 3, 60, 80
6, 13728, Note_on_c, 3, 62, 80
6, 13728, Note_on_c, 3, 57, 80
6, 13856, Note_off_c, 3, 57, 0
6, 13856, Note_off_c, 3, 60, 0
6, 13856, Note_off_c, 3, 62, 0
6, 13856, Note_off_c, 3, 66, 0
6, 14112, Note_on_c, 3, 67, 80
6, 14112, Note_on_c, 3, 64, 80
6, 14112, Note_on_c, 3, 62, 80
6, 14112, Note_on_c, 3, 59, 80
6, 14240, Note_off_c, 3, 67, 0
6, 14240, Note_off_c, 3, 64, 0
6, 14240, Note_off_c, 3, 62, 0
6, 14240, Note_off_c, 3, 59, 0
6, 14496, Note_on_c, 3, 67, 80
6, 14496, Note_on_c, 3, 64, 80
6, 14496, Note_on_c, 3, 62, 80
6, 14496, Note_on_c, 3, 59, 80
6, 14624, Note_off_c, 3, 67, 0
6, 14624, Note_off_c, 3, 64, 0
6, 14624, Note_off_c, 3, 62, 0
6, 14624, Note_off_c, 3, 59, 0
6, 14880, Note_on_c, 3, 67, 80
6, 14880, Note_on_c, 3, 64, 80
6, 14880, Note_on_c, 3, 62, 80
6, 14880, Note_on_c, 3, 59, 80
6, 15008, Note_off_c, 3, 67, 0
6, 15008, Note_off_c, 3, 64, 0
6, 15008, Note_off_c, 3, 62, 0
6, 15008, Note_off_c, 3, 59, 0
6, 15264, Note_on_c, 3, 67, 80
6, 15264, Note_on_c, 3, 64, 80
6, 15264, Note_on_c, 3, 62, 80
6, 15264, Note_on_c, 3, 59, 80
6, 15392, Note_off_c, 3, 59, 0
6, 15392, Note_off_c, 3, 62, 0
6, 15392, Note_off_c, 3, 64, 0
6, 15392, Note_off_c, 3, 67, 0
6, 15648, Note_on_c, 3, 67, 80
6, 15648, Note_on_c, 3, 69, 80
6, 15648, Note_on_c, 3, 64, 80
6, 15648, Note_on_c, 3, 60, 80
6, 15776, Note_off_c, 3, 67, 0
6, 15776, Note_off_c, 3, 69, 0
6, 15776, Note_off_c, 3, 64, 0
6, 15776, Note_off_c, 3, 60, 0
6, 16032, Note_on_c, 3, 67, 80
6, 16032, Note_on_c, 3, 69, 80
6, 16032, Note_on_c, 3, 64, 80
6, 16032, Note_on_c, 3, 60, 80
6, 16160, Note_off_c, 3, 67, 0
6, 16160, Note_off_c, 3, 69, 0
6, 16160, Note_off_c, 3, 64, 0
6, 16160, Note_off_c, 3, 60, 0
6, 16416, Note_on_c, 3, 67, 80
6, 16416, Note_on_c, 3, 69, 80
6, 16416, Note_on_c, 3, 64, 80
6, 16416, Note_on_c, 3, 60, 80
6, 16544, Note_off_c, 3, 67, 0
6, 16544, Note_off_c, 3, 69, 0
6, 16544, Note_off_c, 3, 64, 0
6, 16544, Note_off_c, 3, 60, 0
6, 16800, Note_on_c, 3, 67, 80
6, 16800, Note_on_c, 3, 69, 80
6, 16800, Note_on_c, 3, 64, 80
6, 16800, Note_on_c, 3, 60, 80
6, 16928, Note_off_c, 3, 60, 0
6, 16928, Note_off_c, 3, 64, 0
6, 16928, Note_off_c, 3, 67, 0
6, 16928, Note_off_c, 3, 69, 0
6, 17184, Note_on_c, 3, 66, 80
6, 17184, Note_on_c, 3, 60, 80
6, 17184, Note_on_c, 3, 62, 80
6, 17184, Note_on_c, 3, 57, 80
6, 17312, Note_off_c, 3, 66, 0
6, 17312, Note_off_c, 3, 60, 0
6, 17312, Note_off_c, 3, 62, 0
6, 17312, Note_off_c, 3, 57, 0
6, 17568, Note_on_c, 3, 66, 80
6, 17568, Note_on_c, 3, 60, 80
6, 17568, Note_on_c, 3, 62, 80
6, 17568, Note_on_c, 3, 57, 80
6, 17696, Note_off_c, 3, 66, 0
6, 17696, Note_off_c, 3, 60, 0
6, 17696, Note_off_c, 3, 62, 0
6, 17696, Note_off_c, 3, 57, 0
6, 17952, Note_on_c, 3, 66, 80
6, 17952, Note_on_c, 3, 60, 80
6, 17952, Note_on_c, 3, 62, 80
6, 17952, Note_on_c, 3, 57, 80
6, 18080, Note_off_c, 3, 66, 0
6, 18080, Note_off_c, 3, 60, 0
6, 18080, Note_off_c, 3, 62, 0
6, 18080, Note_off_c, 3, 57, 0
6, 18336, Note_on_c, 3, 66, 80
6, 18336, Note_on_c, 3, 60, 80
6, 18336, Note_on_c, 3, 62, 80
6, 18336, Note_on_c, 3, 57, 80
6, 18432, Note_on_c, 3, 67, 80
6, 18432, Note_on_c, 3, 64, 80
6, 18432, Note_on_c, 3, 62, 80
6, 18432, Note_on_c, 3, 59, 80
6, 18464, Note_off_c, 3, 57, 0
6, 18464, Note_off_c, 3, 60, 0
6, 18464, Note_off_c, 3, 62, 0
6, 18464, Note_off_c, 3, 66, 0
6, 18688, Note_off_c, 3, 67, 0
6, 18688, Note_off_c, 3, 64, 0
6, 18688, Note_off_c, 3, 62, 0
6, 18688, Note_off_c, 3, 59, 0
6, 20256, Note_on_c, 3, 66, 80
6, 20256, Note_on_c, 3, 60, 80
6, 20256, Note_on_c, 3, 62, 80
6, 20256, Note_on_c, 3, 57, 80
6, 20384, Note_off_c, 3, 66, 0
6, 20384, Note_off_c, 3, 60, 0
6, 20384, Note_off_c, 3, 62, 0
6, 20384, Note_off_c, 3, 57, 0
6, 20640, Note_on_c, 3, 66, 80
6, 20640, Note_on_c, 3, 60, 80
6, 20640, Note_on_c, 3, 62, 80
6, 20640, Note_on_c, 3, 57, 80
6, 20768, Note_off_c, 3, 66, 0
6, 20768, Note_off_c, 3, 60, 0
6, 20768, Note_off_c, 3, 62, 0
6, 20768, Note_off_c, 3, 57, 0
6, 21024, Note_on_c, 3, 66, 80
6, 21024, Note_on_c, 3, 60, 80
6, 21024, Note_on_c, 3, 62, 80
6, 21024, Note_on_c, 3, 57, 80
6, 21152, Note_off_c, 3, 66, 0
6, 21152, Note_off_c, 3, 60, 0
6, 21152, Note_off_c, 3, 62, 0
6, 21152, Note_off_c, 3, 57, 0
6, 21408, Note_on_c, 3, 66, 80
6, 21408, Note_on_c, 3, 60, 80
6, 21408, Note_on_c, 3, 62, 80
6, 21408, Note_on_c, 3, 57, 80
6, 21536, Note_off_c, 3, 57, 0
6, 21536, Note_off_c, 3, 60, 0
6, 21536, Note_off_c, 3, 62, 0
6, 21536, Note_off_c, 3, 66, 0
6, 21792, Note_on_c, 3, 66, 80
6, 21792, Note_on_c, 3, 60, 80
6, 21792, Note_on_c, 3, 62, 80
6, 21792, Note_on_c, 3, 57, 80
6, 21920, Note_off_c, 3, 66, 0
6, 21920, Note_off_c, 3, 60, 0
6, 21920, Note_off_c, 3, 62, 0
6, 21920, Note_off_c, 3, 57, 0
6, 22176, Note_on_c, 3, 66, 80
6, 22176, Note_on_c, 3, 60, 80
6, 22176, Note_on_c, 3, 62, 80
6, 22176, Note_on_c, 3, 57, 80
6, 22304, Note_off_c, 3, 66, 0
6, 22304, Note_off_c, 3, 60, 0
6, 22304, Note_off_c, 3, 62, 0
6, 22304, Note_off_c, 3, 57, 0
6, 22560, Note_on_c, 3, 66, 80
6, 22560, Note_on_c, 3, 60, 80
6, 22560, Note_on_c, 3, 62, 80
6, 22560, Note_on_c, 3, 57, 80
6, 22688, Note_off_c, 3, 66, 0
6, 22688, Note_off_c, 3, 60, 0
6, 22688, Note_off_c, 3, 62, 0
6, 22688, Note_off_c, 3, 57, 0
6, 22944, Note_on_c, 3, 66, 80
6, 22944, Note_on_c, 3, 60, 80
6, 22944, Note_on_c, 3, 62, 80
6, 22944, Note_on_c, 3, 57, 80
6, 23072, Note_off_c, 3, 57, 0
6, 23072, Note_off_c, 3, 60, 0
6, 23072, Note_off_c, 3, 62, 0
6, 23072, Note_off_c, 3, 66, 0
6, 23328, Note_on_c, 3, 67, 80
6, 23328, Note_on_c, 3, 64, 80
6, 23328, Note_on_c, 3, 62, 80
6, 23328, Note_on_c, 3, 59, 80
6, 23456, Note_off_c, 3, 67, 0
6, 23456, Note_off_c, 3, 64, 0
6, 23456, Note_off_c, 3, 62, 0
6, 23456, Note_off_c, 3, 59, 0
6, 23712, Note_on_c, 3, 67, 80
6, 23712, Note_on_c, 3, 64, 80
6, 23712, Note_on_c, 3, 62, 80
6, 23712, Note_on_c, 3, 59, 80
6, 23840, Note_off_c, 3, 67, 0
6, 23840, Note_off_c, 3, 64, 0
6, 23840, Note_off_c, 3, 62, 0
6, 23840, Note_off_c, 3, 59, 0
6, 24096, Note_on_c, 3, 67, 80
6, 24096, Note_on_c, 3, 64, 80
6, 24096, Note_on_c, 3, 62, 80
6, 24096, Note_on_c, 3, 59, 80
6, 24224, Note_off_c, 3, 67, 0
6, 24224, Note_off_c, 3, 64, 0
6, 24224, Note_off_c, 3, 62, 0
6, 24224, Note_off_c, 3, 59, 0
6, 24480, Note_on_c, 3, 67, 80
6, 24480, Note_on_c, 3, 64, 80
6, 24480, Note_on_c, 3, 62, 80
6, 24480, Note_on_c, 3, 59, 80
6, 24608, Note_off_c, 3, 59, 0
6, 24608, Note_off_c, 3, 62, 0
6, 24608, Note_off_c, 3, 64, 0
6, 24608, Note_off_c, 3, 67, 0
6, 24864, Note_on_c, 3, 67, 80
6, 24864, Note_on_c, 3, 64, 80
6, 24864, Note_on_c, 3, 62, 80
6, 24864, Note_on_c, 3, 59, 80
6, 24992, Note_off_c, 3, 67, 0
6, 24992, Note_off_c, 3, 64, 0
6, 24992, Note_off_c, 3, 62, 0
6, 24992, Note_off_c, 3, 59, 0
6, 25248, Note_on_c, 3, 67, 80
6, 25248, Note_on_c, 3, 64, 80
6, 25248, Note_on_c, 3, 62, 80
6, 25248, Note_on_c, 3, 59, 80
6, 25376, Note_off_c, 3, 67, 0
6, 25376, Note_off_c, 3, 64, 0
6, 25376, Note_off_c, 3, 62, 0
6, 25376, Note_off_c, 3, 59, 0
6, 25632, Note_on_c, 3, 67, 80
6, 25632, Note_on_c, 3, 64, 80
6, 25632, Note_on_c, 3, 62, 80
6, 25632, Note_on_c, 3, 59, 80
6, 25760, Note_off_c, 3, 67, 0
6, 25760, Note_off_c, 3, 64, 0
6, 25760, Note_off_c, 3, 62, 0
6, 25760, Note_off_c, 3, 59, 0
6, 26016, Note_on_c, 3, 67, 80
6, 26016, Note_on_c, 3, 64, 80
6, 26016, Note_on_c, 3, 62, 80
6, 26016, Note_on_c, 3, 59, 80
6, 26144, Note_off_c, 3, 59, 0
6, 26144, Note_off_c, 3, 62, 0
6, 26144, Note_off_c, 3, 64, 0
6, 26144, Note_off_c, 3, 67, 0
6, 26400, Note_on_c, 3, 66, 80
6, 26400, Note_on_c, 3, 60, 80
6, 26400, Note_on_c, 3, 62, 80
6, 26400, Note_on_c, 3, 57, 80
6, 26528, Note_off_c, 3, 66, 0
6, 26528, Note_off_c, 3, 60, 0
6, 26528, Note_off_c, 3, 62, 0
6, 26528, Note_off_c, 3, 57, 0
6, 26784, Note_on_c, 3, 66, 80
6, 26784, Note_on_c, 3, 60, 80
6, 26784, Note_on_c, 3, 62, 80
6, 26784, Note_on_c, 3, 57, 80
6, 26912, Note_off_c, 3, 66, 0
6, 26912, Note_off_c, 3, 60, 0
6, 26912, Note_off_c, 3, 62, 0
6, 26912, Note_off_c, 3, 57, 0
6, 27168, Note_on_c, 3, 66, 80
6, 27168, Note_on_c, 3, 60, 80
6, 27168, Note_on_c, 3, 62, 80
6, 27168, Note_on_c, 3, 57, 80
6, 27296, Note_off_c, 3, 66, 0
6, 27296, Note_off_c, 3, 60, 0
6, 27296, Note_off_c, 3, 62, 0
6, 27296, Note_off_c, 3, 57, 0
6, 27552, Note_on_c, 3, 66, 80
6, 27552, Note_on_c, 3, 60, 80
6, 27552, Note_on_c, 3, 62, 80
6, 27552, Note_on_c, 3, 57, 80
6, 27680, Note_off_c, 3, 57, 0
6, 27680, Note_off_c, 3, 60, 0
6, 27680, Note_off_c, 3, 62, 0
6, 27680, Note_off_c, 3, 66, 0
6, 27936, Note_on_c, 3, 66, 80
6, 27936, Note_on_c, 3, 60, 80
6, 27936, Note_on_c, 3, 62, 80
6, 27936, Note_on_c, 3, 57, 80
6, 28064, Note_off_c, 3, 66, 0
6, 28064, Note_off_c, 3, 60, 0
6, 28064, Note_off_c, 3, 62, 0
6, 28064, Note_off_c, 3, 57, 0
6, 28320, Note_on_c, 3, 66, 80
6, 28320, Note_on_c, 3, 60, 80
6, 28320, Note_on_c, 3, 62, 80
6, 28320, Note_on_c, 3, 57, 80
6, 28448, Note_off_c, 3, 66, 0
6, 28448, Note_off_c, 3, 60, 0
6, 28448, Note_off_c, 3, 62, 0
6, 28448, Note_off_c, 3, 57, 0
6, 28704, Note_on_c, 3, 66, 80
6, 28704, Note_on_c, 3, 60, 80
6, 28704, Note_on_c, 3, 62, 80
6, 28704, Note_on_c, 3, 57, 80
6, 28832, Note_off_c, 3, 66, 0
6, 28832, Note_off_c, 3, 60, 0
6, 28832, Note_off_c, 3, 62, 0
6, 28832, Note_off_c, 3, 57, 0
6, 29088, Note_on_c, 3, 66, 80
6, 29088, Note_on_c, 3, 60, 80
6, 29088, Note_on_c, 3, 62, 80
6, 29088, Note_on_c, 3, 57, 80
6, 29184, Note_off_c, 3, 66, 0
6, 29184, Note_off_c, 3, 60, 0
6, 29184, Note_off_c, 3, 62, 0
6, 29184, Note_off_c, 3, 57, 0
6, 29472, Note_on_c, 3, 67, 80
6, 29472, Note_on_c, 3, 61, 80
6, 29472, Note_on_c, 3, 57, 80
6, 29600, Note_off_c, 3, 67, 0
6, 29600, Note_off_c, 3, 61, 0
6, 29600, Note_off_c, 3, 57, 0
6, 29856, Note_on_c, 3, 67, 80
6, 29856, Note_on_c, 3, 61, 80
6, 29856, Note_on_c, 3, 57, 80
6, 29984, Note_off_c, 3, 67, 0
6, 29984, Note_off_c, 3, 61, 0
6, 29984, Note_off_c, 3, 57, 0
6, 30240, Note_on_c, 3, 67, 80
6, 30240, Note_on_c, 3, 61, 80
6, 30240, Note_on_c, 3, 57, 80
6, 30368, Note_off_c, 3, 67, 0
6, 30368, Note_off_c, 3, 61, 0
6, 30368, Note_off_c, 3, 57, 0
6, 30624, Note_on_c, 3, 67, 80
6, 30624, Note_on_c, 3, 61, 80
6, 30624, Note_on_c, 3, 57, 80
6, 30688, Note_off_c, 3, 67, 0
6, 30688, Note_off_c, 3, 61, 0
6, 30688, Note_off_c, 3, 57, 0
6, 31008, Note_on_c, 3, 66, 80
6, 31008, Note_on_c, 3, 57, 80
6, 31008, Note_on_c, 3, 62, 80
6, 31136, Note_off_c, 3, 62, 0
6, 31388, Note_off_c, 3, 66, 0
6, 31388, Note_off_c, 3, 57, 0
6, 31392, Note_on_c, 3, 66, 80
6, 31392, Note_on_c, 3, 60, 80
6, 31392, Note_on_c, 3, 62, 80
6, 31392, Note_on_c, 3, 57, 80
6, 31520, Note_off_c, 3, 66, 0
6, 31520, Note_off_c, 3, 60, 0
6, 31520, Note_off_c, 3, 62, 0
6, 31520, Note_off_c, 3, 57, 0
6, 31776, Note_on_c, 3, 66, 80
6, 31776, Note_on_c, 3, 60, 80
6, 31776, Note_on_c, 3, 57, 80
6, 31776, Note_on_c, 3, 66, 80
6, 31776, Note_on_c, 3, 62, 80
6, 31776, Note_on_c, 3, 57, 80
6, 31904, Note_off_c, 3, 66, 0
6, 31904, Note_off_c, 3, 60, 0
6, 31904, Note_off_c, 3, 57, 0
6, 31904, Note_off_c, 3, 62, 0
6, 32156, Note_off_c, 3, 66, 0
6, 32156, Note_off_c, 3, 57, 0
6, 32160, Note_on_c, 3, 66, 80
6, 32160, Note_on_c, 3, 60, 80
6, 32160, Note_on_c, 3, 62, 80
6, 32160, Note_on_c, 3, 57, 80
6, 32288, Note_off_c, 3, 57, 0
6, 32288, Note_off_c, 3, 60, 0
6, 32288, Note_off_c, 3, 62, 0
6, 32288, Note_off_c, 3, 66, 0
6, 32544, Note_on_c, 3, 67, 80
6, 32544, Note_on_c, 3, 64, 80
6, 32544, Note_on_c, 3, 62, 80
6, 32544, Note_on_c, 3, 59, 80
6, 32672, Note_off_c, 3, 67, 0
6, 32672, Note_off_c, 3, 64, 0
6, 32672, Note_off_c, 3, 62, 0
6, 32672, Note_off_c, 3, 59, 0
6, 32928, Note_on_c, 3, 67, 80
6, 32928, Note_on_c, 3, 64, 80
6, 32928, Note_on_c, 3, 62, 80
6, 32928, Note_on_c, 3, 59, 80
6, 33056, Note_off_c, 3, 67, 0
6, 33056, Note_off_c, 3, 64, 0
6, 33056, Note_off_c, 3, 62, 0
6, 33056, Note_off_c, 3, 59, 0
6, 33312, Note_on_c, 3, 67, 80
6, 33312, Note_on_c, 3, 64, 80
6, 33312, Note_on_c, 3, 62, 80
6, 33312, Note_on_c, 3, 59, 80
6, 33440, Note_off_c, 3, 67, 0
6, 33440, Note_off_c, 3, 64, 0
6, 33440, Note_off_c, 3, 62, 0
6, 33440, Note_off_c, 3, 59, 0
6, 33696, Note_on_c, 3, 67, 80
6, 33696, Note_on_c, 3, 64, 80
6, 33696, Note_on_c, 3, 62, 80
6, 33696, Note_on_c, 3, 59, 80
6, 33824, Note_off_c, 3, 59, 0
6, 33824, Note_off_c, 3, 62, 0
6, 33824, Note_off_c, 3, 64, 0
6, 33824, Note_off_c, 3, 67, 0
6, 34080, Note_on_c, 3, 67, 80
6, 34080, Note_on_c, 3, 64, 80
6, 34080, Note_on_c, 3, 62, 80
6, 34080, Note_on_c, 3, 59, 80
6, 34208, Note_off_c, 3, 67, 0
6, 34208, Note_off_c, 3, 64, 0
6, 34208, Note_off_c, 3, 62, 0
6, 34208, Note_off_c, 3, 59, 0
6, 34464, Note_on_c, 3, 67, 80
6, 34464, Note_on_c, 3, 64, 80
6, 34464, Note_on_c, 3, 62, 80
6, 34464, Note_on_c, 3, 59, 80
6, 34592, Note_off_c, 3, 67, 0
6, 34592, Note_off_c, 3, 64, 0
6, 34592, Note_off_c, 3, 62, 0
6, 34592, Note_off_c, 3, 59, 0
6, 34848, Note_on_c, 3, 67, 80
6, 34848, Note_on_c, 3, 64, 80
6, 34848, Note_on_c, 3, 62, 80
6, 34848, Note_on_c, 3, 59, 80
6, 34976, Note_off_c, 3, 67, 0
6, 34976, Note_off_c, 3, 64, 0
6, 34976, Note_off_c, 3, 62, 0
6, 34976, Note_off_c, 3, 59, 0
6, 35232, Note_on_c, 3, 67, 80
6, 35232, Note_on_c, 3, 64, 80
6, 35232, Note_on_c, 3, 62, 80
6, 35232, Note_on_c, 3, 59, 80
6, 35360, Note_off_c, 3, 59, 0
6, 35360, Note_off_c, 3, 62, 0
6, 35360, Note_off_c, 3, 64, 0
6, 35360, Note_off_c, 3, 67, 0
6, 35616, Note_on_c, 3, 67, 80
6, 35616, Note_on_c, 3, 64, 80
6, 35616, Note_on_c, 3, 62, 80
6, 35616, Note_on_c, 3, 59, 80
6, 35744, Note_off_c, 3, 67, 0
6, 35744, Note_off_c, 3, 64, 0
6, 35744, Note_off_c, 3, 62, 0
6, 35744, Note_off_c, 3, 59, 0
6, 36000, Note_on_c, 3, 67, 80
6, 36000, Note_on_c, 3, 64, 80
6, 36000, Note_on_c, 3, 62, 80
6, 36000, Note_on_c, 3, 59, 80
6, 36128, Note_off_c, 3, 67, 0
6, 36128, Note_off_c, 3, 64, 0
6, 36128, Note_off_c, 3, 62, 0
6, 36128, Note_off_c, 3, 59, 0
6, 36384, Note_on_c, 3, 67, 80
6, 36384, Note_on_c, 3, 64, 80
6, 36384, Note_on_c, 3, 62, 80
6, 36384, Note_on_c, 3, 59, 80
6, 36512, Note_off_c, 3, 67, 0
6, 36512, Note_off_c, 3, 64, 0
6, 36512, Note_off_c, 3, 62, 0
6, 36512, Note_off_c, 3, 59, 0
6, 36768, Note_on_c, 3, 67, 80
6, 36768, Note_on_c, 3, 64, 80
6, 36768, Note_on_c, 3, 62, 80
6, 36768, Note_on_c, 3, 59, 80
6, 36896, Note_off_c, 3, 59, 0
6, 36896, Note_off_c, 3, 62, 0
6, 36896, Note_off_c, 3, 64, 0
6, 36896, Note_off_c, 3, 67, 0
6, 37152, Note_on_c, 3, 67, 80
6, 37152, Note_on_c, 3, 69, 80
6, 37152, Note_on_c, 3, 64, 80
6, 37152, Note_on_c, 3, 60, 80
6, 37280, Note_off_c, 3, 67, 0
6, 37280, Note_off_c, 3, 69, 0
6, 37280, Note_off_c, 3, 64, 0
6, 37280, Note_off_c, 3, 60, 0
6, 37536, Note_on_c, 3, 67, 80
6, 37536, Note_on_c, 3, 69, 80
6, 37536, Note_on_c, 3, 64, 80
6, 37536, Note_on_c, 3, 60, 80
6, 37664, Note_off_c, 3, 67, 0
6, 37664, Note_off_c, 3, 69, 0
6, 37664, Note_off_c, 3, 64, 0
6, 37664, Note_off_c, 3, 60, 0
6, 37920, Note_on_c, 3, 67, 80
6, 37920, Note_on_c, 3, 69, 80
6, 37920, Note_on_c, 3, 64, 80
6, 37920, Note_on_c, 3, 60, 80
6, 38048, Note_off_c, 3, 67, 0
6, 38048, Note_off_c, 3, 69, 0
6, 38048, Note_off_c, 3, 64, 0
6, 38048, Note_off_c, 3, 60, 0
6, 38304, Note_on_c, 3, 67, 80
6, 38304, Note_on_c, 3, 69, 80
6, 38304, Note_on_c, 3, 64, 80
6, 38304, Note_on_c, 3, 60, 80
6, 38432, Note_off_c, 3, 60, 0
6, 38432, Note_off_c, 3, 64, 0
6, 38432, Note_off_c, 3, 67, 0
6, 38432, Note_off_c, 3, 69, 0
6, 38688, Note_on_c, 3, 67, 80
6, 38688, Note_on_c, 3, 64, 80
6, 38688, Note_on_c, 3, 62, 80
6, 38688, Note_on_c, 3, 59, 80
6, 38816, Note_off_c, 3, 67, 0
6, 38816, Note_off_c, 3, 64, 0
6, 38816, Note_off_c, 3, 62, 0
6, 38816, Note_off_c, 3, 59, 0
6, 39072, Note_on_c, 3, 67, 80
6, 39072, Note_on_c, 3, 64, 80
6, 39072, Note_on_c, 3, 62, 80
6, 39072, Note_on_c, 3, 59, 80
6, 39200, Note_off_c, 3, 67, 0
6, 39200, Note_off_c, 3, 64, 0
6, 39200, Note_off_c, 3, 62, 0
6, 39200, Note_off_c, 3, 59, 0
6, 39456, Note_on_c, 3, 67, 80
6, 39456, Note_on_c, 3, 64, 80
6, 39456, Note_on_c, 3, 62, 80
6, 39456, Note_on_c, 3, 59, 80
6, 39584, Note_off_c, 3, 67, 0
6, 39584, Note_off_c, 3, 64, 0
6, 39584, Note_off_c, 3, 62, 0
6, 39584, Note_off_c, 3, 59, 0
6, 39840, Note_on_c, 3, 67, 80
6, 39840, Note_on_c, 3, 64, 80
6, 39840, Note_on_c, 3, 62, 80
6, 39840, Note_on_c, 3, 59, 80
6, 39968, Note_off_c, 3, 59, 0
6, 39968, Note_off_c, 3, 62, 0
6, 39968, Note_off_c, 3, 64, 0
6, 39968, Note_off_c, 3, 67, 0
6, 40224, Note_on_c, 3, 66, 80
6, 40224, Note_on_c, 3, 60, 80
6, 40224, Note_on_c, 3, 62, 80
6, 40224, Note_on_c, 3, 57, 80
6, 40352, Note_off_c, 3, 66, 0
6, 40352, Note_off_c, 3, 60, 0
6, 40352, Note_off_c, 3, 62, 0
6, 40352, Note_off_c, 3, 57, 0
6, 40608, Note_on_c, 3, 66, 80
6, 40608, Note_on_c, 3, 60, 80
6, 40608, Note_on_c, 3, 62, 80
6, 40608, Note_on_c, 3, 57, 80
6, 40736, Note_off_c, 3, 66, 0
6, 40736, Note_off_c, 3, 60, 0
6, 40736, Note_off_c, 3, 62, 0
6, 40736, Note_off_c, 3, 57, 0
6, 40992, Note_on_c, 3, 66, 80
6, 40992, Note_on_c, 3, 60, 80
6, 40992, Note_on_c, 3, 62, 80
6, 40992, Note_on_c, 3, 57, 80
6, 41120, Note_off_c, 3, 66, 0
6, 41120, Note_off_c, 3, 60, 0
6, 41120, Note_off_c, 3, 62, 0
6, 41120, Note_off_c, 3, 57, 0
6, 41376, Note_on_c, 3, 66, 80
6, 41376, Note_on_c, 3, 60, 80
6, 41376, Note_on_c, 3, 62, 80
6, 41376, Note_on_c, 3, 57, 80
6, 41504, Note_off_c, 3, 57, 0
6, 41504, Note_off_c, 3, 60, 0
6, 41504, Note_off_c, 3, 62, 0
6, 41504, Note_off_c, 3, 66, 0
6, 41760, Note_on_c, 3, 67, 80
6, 41760, Note_on_c, 3, 64, 80
6, 41760, Note_on_c, 3, 62, 80
6, 41760, Note_on_c, 3, 59, 80
6, 41888, Note_off_c, 3, 67, 0
6, 41888, Note_off_c, 3, 64, 0
6, 41888, Note_off_c, 3, 62, 0
6, 41888, Note_off_c, 3, 59, 0
6, 42144, Note_on_c, 3, 67, 80
6, 42144, Note_on_c, 3, 64, 80
6, 42144, Note_on_c, 3, 62, 80
6, 42144, Note_on_c, 3, 59, 80
6, 42272, Note_off_c, 3, 67, 0
6, 42272, Note_off_c, 3, 64, 0
6, 42272, Note_off_c, 3, 62, 0
6, 42272, Note_off_c, 3, 59, 0
6, 42528, Note_on_c, 3, 67, 80
6, 42528, Note_on_c, 3, 64, 80
6, 42528, Note_on_c, 3, 62, 80
6, 42528, Note_on_c, 3, 59, 80
6, 42656, Note_off_c, 3, 67, 0
6, 42656, Note_off_c, 3, 64, 0
6, 42656, Note_off_c, 3, 62, 0
6, 42656, Note_off_c, 3, 59, 0
6, 42912, Note_on_c, 3, 67, 80
6, 42912, Note_on_c, 3, 64, 80
6, 42912, Note_on_c, 3, 62, 80
6, 42912, Note_on_c, 3, 59, 80
6, 43040, Note_off_c, 3, 59, 0
6, 43040, Note_off_c, 3, 62, 0
6, 43040, Note_off_c, 3, 64, 0
6, 43040, Note_off_c, 3, 67, 0
6, 43296, Note_on_c, 3, 67, 80
6, 43296, Note_on_c, 3, 69, 80
6, 43296, Note_on_c, 3, 64, 80
6, 43296, Note_on_c, 3, 60, 80
6, 43424, Note_off_c, 3, 67, 0
6, 43424, Note_off_c, 3, 69, 0
6, 43424, Note_off_c, 3, 64, 0
6, 43424, Note_off_c, 3, 60, 0
6, 43680, Note_on_c, 3, 67, 80
6, 43680, Note_on_c, 3, 69, 80
6, 43680, Note_on_c, 3, 64, 80
6, 43680, Note_on_c, 3, 60, 80
6, 43808, Note_off_c, 3, 67, 0
6, 43808, Note_off_c, 3, 69, 0
6, 43808, Note_off_c, 3, 64, 0
6, 43808, Note_off_c, 3, 60, 0
6, 44064, Note_on_c, 3, 67, 80
6, 44064, Note_on_c, 3, 69, 80
6, 44064, Note_on_c, 3, 64, 80
6, 44064, Note_on_c, 3, 60, 80
6, 44192, Note_off_c, 3, 67, 0
6, 44192, Note_off_c, 3, 69, 0
6, 44192, Note_off_c, 3, 64, 0
6, 44192, Note_off_c, 3, 60, 0
6, 44448, Note_on_c, 3, 67, 80
6, 44448, Note_on_c, 3, 69, 80
6, 44448, Note_on_c, 3, 64, 80
6, 44448, Note_on_c, 3, 60, 80
6, 44576, Note_off_c, 3, 60, 0
6, 44576, Note_off_c, 3, 64, 0
6, 44576, Note_off_c, 3, 67, 0
6, 44576, Note_off_c, 3, 69, 0
6, 44832, Note_on_c, 3, 66, 80
6, 44832, Note_on_c, 3, 60, 80
6, 44832, Note_on_c, 3, 62, 80
6, 44832, Note_on_c, 3, 57, 80
6, 44960, Note_off_c, 3, 66, 0
6, 44960, Note_off_c, 3, 60, 0
6, 44960, Note_off_c, 3, 62, 0
6, 44960, Note_off_c, 3, 57, 0
6, 45216, Note_on_c, 3, 66, 80
6, 45216, Note_on_c, 3, 60, 80
6, 45216, Note_on_c, 3, 62, 80
6, 45216, Note_on_c, 3, 57, 80
6, 45344, Note_off_c, 3, 66, 0
6, 45344, Note_off_c, 3, 60, 0
6, 45344, Note_off_c, 3, 62, 0
6, 45344, Note_off_c, 3, 57, 0
6, 45600, Note_on_c, 3, 66, 80
6, 45600, Note_on_c, 3, 60, 80
6, 45600, Note_on_c, 3, 62, 80
6, 45600, Note_on_c, 3, 57, 80
6, 45728, Note_off_c, 3, 66, 0
6, 45728, Note_off_c, 3, 60, 0
6, 45728, Note_off_c, 3, 62, 0
6, 45728, Note_off_c, 3, 57, 0
6, 45984, Note_on_c, 3, 66, 80
6, 45984, Note_on_c, 3, 60, 80
6, 45984, Note_on_c, 3, 62, 80
6, 45984, Note_on_c, 3, 57, 80
6, 46080, Note_on_c, 3, 67, 80
6, 46080, Note_on_c, 3, 64, 80
6, 46080, Note_on_c, 3, 62, 80
6, 46080, Note_on_c, 3, 59, 80
6, 46112, Note_off_c, 3, 57, 0
6, 46112, Note_off_c, 3, 60, 0
6, 46112, Note_off_c, 3, 62, 0
6, 46112, Note_off_c, 3, 66, 0
6, 46336, Note_off_c, 3, 67, 0
6, 46336, Note_off_c, 3, 64, 0
6, 46336, Note_off_c, 3, 62, 0
6, 46336, Note_off_c, 3, 59, 0
6, 47904, Note_on_c, 3, 66, 80
6, 47904, Note_on_c, 3, 60, 80
6, 47904, Note_on_c, 3, 62, 80
6, 47904, Note_on_c, 3, 57, 80
6, 48032, Note_off_c, 3, 66, 0
6, 48032, Note_off_c, 3, 60, 0
6, 48032, Note_off_c, 3, 62, 0
6, 48032, Note_off_c, 3, 57, 0
6, 48288, Note_on_c, 3, 66, 80
6, 48288, Note_on_c, 3, 60, 80
6, 48288, Note_on_c, 3, 62, 80
6, 48288, Note_on_c, 3, 57, 80
6, 48416, Note_off_c, 3, 66, 0
6, 48416, Note_off_c, 3, 60, 0
6, 48416, Note_off_c, 3, 62, 0
6, 48416, Note_off_c, 3, 57, 0
6, 48672, Note_on_c, 3, 66, 80
6, 48672, Note_on_c, 3, 60, 80
6, 48672, Note_on_c, 3, 62, 80
6, 48672, Note_on_c, 3, 57, 80
6, 48800, Note_off_c, 3, 66, 0
6, 48800, Note_off_c, 3, 60, 0
6, 48800, Note_off_c, 3, 62, 0
6, 48800, Note_off_c, 3, 57, 0
6, 49056, Note_on_c, 3, 66, 80
6, 49056, Note_on_c, 3, 60, 80
6, 49056, Note_on_c, 3, 62, 80
6, 49056, Note_on_c, 3, 57, 80
6, 49184, Note_off_c, 3, 57, 0
6, 49184, Note_off_c, 3, 60, 0
6, 49184, Note_off_c, 3, 62, 0
6, 49184, Note_off_c, 3, 66, 0
6, 49440, Note_on_c, 3, 66, 80
6, 49440, Note_on_c, 3, 60, 80
6, 49440, Note_on_c, 3, 62, 80
6, 49440, Note_on_c, 3, 57, 80
6, 49568, Note_off_c, 3, 66, 0
6, 49568, Note_off_c, 3, 60, 0
6, 49568, Note_off_c, 3, 62, 0
6, 49568, Note_off_c, 3, 57, 0
6, 49824, Note_on_c, 3, 66, 80
6, 49824, Note_on_c, 3, 60, 80
6, 49824, Note_on_c, 3, 62, 80
6, 49824, Note_on_c, 3, 57, 80
6, 49952, Note_off_c, 3, 66, 0
6, 49952, Note_off_c, 3, 60, 0
6, 49952, Note_off_c, 3, 62, 0
6, 49952, Note_off_c, 3, 57, 0
6, 50208, Note_on_c, 3, 66, 80
6, 50208, Note_on_c, 3, 60, 80
6, 50208, Note_on_c, 3, 62, 80
6, 50208, Note_on_c, 3, 57, 80
6, 50336, Note_off_c, 3, 66, 0
6, 50336, Note_off_c, 3, 60, 0
6, 50336, Note_off_c, 3, 62, 0
6, 50336, Note_off_c, 3, 57, 0
6, 50592, Note_on_c, 3, 66, 80
6, 50592, Note_on_c, 3, 60, 80
6, 50592, Note_on_c, 3, 62, 80
6, 50592, Note_on_c, 3, 57, 80
6, 50720, Note_off_c, 3, 57, 0
6, 50720, Note_off_c, 3, 60, 0
6, 50720, Note_off_c, 3, 62, 0
6, 50720, Note_off_c, 3, 66, 0
6, 50976, Note_on_c, 3, 67, 80
6, 50976, Note_on_c, 3, 64, 80
6, 50976, Note_on_c, 3, 62, 80
6, 50976, Note_on_c, 3, 59, 80
6, 51104, Note_off_c, 3, 67, 0
6, 51104, Note_off_c, 3, 64, 0
6, 51104, Note_off_c, 3, 62, 0
6, 51104, Note_off_c, 3, 59, 0
6, 51360, Note_on_c, 3, 67, 80
6, 51360, Note_on_c, 3, 64, 80
6, 51360, Note_on_c, 3, 62, 80
6, 51360, Note_on_c, 3, 59, 80
6, 51488, Note_off_c, 3, 67, 0
6, 51488, Note_off_c, 3, 64, 0
6, 51488, Note_off_c, 3, 62, 0
6, 51488, Note_off_c, 3, 59, 0
6, 51744, Note_on_c, 3, 67, 80
6, 51744, Note_on_c, 3, 64, 80
6, 51744, Note_on_c, 3, 62, 80
6, 51744, Note_on_c, 3, 59, 80
6, 51872, Note_off_c, 3, 67, 0
6, 51872, Note_off_c, 3, 64, 0
6, 51872, Note_off_c, 3, 62, 0
6, 51872, Note_off_c, 3, 59, 0
6, 52128, Note_on_c, 3, 67, 80
6, 52128, Note_on_c, 3, 64, 80
6, 52128, Note_on_c, 3, 62, 80
6, 52128, Note_on_c, 3, 59, 80
6, 52256, Note_off_c, 3, 59, 0
6, 52256, Note_off_c, 3, 62, 0
6, 52256, Note_off_c, 3, 64, 0
6, 52256, Note_off_c, 3, 67, 0
6, 52512, Note_on_c, 3, 67, 80
6, 52512, Note_on_c, 3, 64, 80
6, 52512, Note_on_c, 3, 62, 80
6, 52512, Note_on_c, 3, 59, 80
6, 52640, Note_off_c, 3, 67, 0
6, 52640, Note_off_c, 3, 64, 0
6, 52640, Note_off_c, 3, 62, 0
6, 52640, Note_off_c, 3, 59, 0
6, 52896, Note_on_c, 3, 67, 80
6, 52896, Note_on_c, 3, 64, 80
6, 52896, Note_on_c, 3, 62, 80
6, 52896, Note_on_c, 3, 59, 80
6, 53024, Note_off_c, 3, 67, 0
6, 53024, Note_off_c, 3, 64, 0
6, 53024, Note_off_c, 3, 62, 0
6, 53024, Note_off_c, 3, 59, 0
6, 53280, Note_on_c, 3, 67, 80
6, 53280, Note_on_c, 3, 64, 80
6, 53280, Note_on_c, 3, 62, 80
6, 53280, Note_on_c, 3, 59, 80
6, 53408, Note_off_c, 3, 67, 0
6, 53408, Note_off_c, 3, 64, 0
6, 53408, Note_off_c, 3, 62, 0
6, 53408, Note_off_c, 3, 59, 0
6, 53664, Note_on_c, 3, 67, 80
6, 53664, Note_on_c, 3, 64, 80
6, 53664, Note_on_c, 3, 62, 80
6, 53664, Note_on_c, 3, 59, 80
6, 53792, Note_off_c, 3, 59, 0
6, 53792, Note_off_c, 3, 62, 0
6, 53792, Note_off_c, 3, 64, 0
6, 53792, Note_off_c, 3, 67, 0
6, 54048, Note_on_c, 3, 66, 80
6, 54048, Note_on_c, 3, 60, 80
6, 54048, Note_on_c, 3, 62, 80
6, 54048, Note_on_c, 3, 57, 80
6, 54176, Note_off_c, 3, 66, 0
6, 54176, Note_off_c, 3, 60, 0
6, 54176, Note_off_c, 3, 62, 0
6, 54176, Note_off_c, 3, 57, 0
6, 54432, Note_on_c, 3, 66, 80
6, 54432, Note_on_c, 3, 60, 80
6, 54432, Note_on_c, 3, 62, 80
6, 54432, Note_on_c, 3, 57, 80
6, 54560, Note_off_c, 3, 66, 0
6, 54560, Note_off_c, 3, 60, 0
6, 54560, Note_off_c, 3, 62, 0
6, 54560, Note_off_c, 3, 57, 0
6, 54816, Note_on_c, 3, 66, 80
6, 54816, Note_on_c, 3, 60, 80
6, 54816, Note_on_c, 3, 62, 80
6, 54816, Note_on_c, 3, 57, 80
6, 54944, Note_off_c, 3, 66, 0
6, 54944, Note_off_c, 3, 60, 0
6, 54944, Note_off_c, 3, 62, 0
6, 54944, Note_off_c, 3, 57, 0
6, 55200, Note_on_c, 3, 66, 80
6, 55200, Note_on_c, 3, 60, 80
6, 55200, Note_on_c, 3, 62, 80
6, 55200, Note_on_c, 3, 57, 80
6, 55328, Note_off_c, 3, 57, 0
6, 55328, Note_off_c, 3, 60, 0
6, 55328, Note_off_c, 3, 62, 0
6, 55328, Note_off_c, 3, 66, 0
6, 55584, Note_on_c, 3, 66, 80
6, 55584, Note_on_c, 3, 60, 80
6, 55584, Note_on_c, 3, 62, 80
6, 55584, Note_on_c, 3, 57, 80
6, 55712, Note_off_c, 3, 66, 0
6, 55712, Note_off_c, 3, 60, 0
6, 55712, Note_off_c, 3, 62, 0
6, 55712, Note_off_c, 3, 57, 0
6, 55968, Note_on_c, 3, 66, 80
6, 55968, Note_on_c, 3, 60, 80
6, 55968, Note_on_c, 3, 62, 80
6, 55968, Note_on_c, 3, 57, 80
6, 56096, Note_off_c, 3, 66, 0
6, 56096, Note_off_c, 3, 60, 0
6, 56096, Note_off_c, 3, 62, 0
6, 56096, Note_off_c, 3, 57, 0
6, 56352, Note_on_c, 3, 66, 80
6, 56352, Note_on_c, 3, 60, 80
6, 56352, Note_on_c, 3, 62, 80
6, 56352, Note_on_c, 3, 57, 80
6, 56480, Note_off_c, 3, 66, 0
6, 56480, Note_off_c, 3, 60, 0
6, 56480, Note_off_c, 3, 62, 0
6, 56480, Note_off_c, 3, 57, 0
6, 56736, Note_on_c, 3, 66, 80
6, 56736, Note_on_c, 3, 60, 80
6, 56736, Note_on_c, 3, 62, 80
6, 56736, Note_on_c, 3, 57, 80
6, 56832, Note_off_c, 3, 66, 0
6, 56832, Note_off_c, 3, 60, 0
6, 56832, Note_off_c, 3, 62, 0
6, 56832, Note_off_c, 3, 57, 0
6, 57120, Note_on_c, 3, 67, 80
6, 57120, Note_on_c, 3, 61, 80
6, 57120, Note_on_c, 3, 57, 80
6, 57248, Note_off_c, 3, 67, 0
6, 57248, Note_off_c, 3, 61, 0
6, 57248, Note_off_c, 3, 57, 0
6, 57504, Note_on_c, 3, 67, 80
6, 57504, Note_on_c, 3, 61, 80
6, 57504, Note_on_c, 3, 57, 80
6, 57632, Note_off_c, 3, 67, 0
6, 57632, Note_off_c, 3, 61, 0
6, 57632, Note_off_c, 3, 57, 0
6, 57888, Note_on_c, 3, 67, 80
6, 57888, Note_on_c, 3, 61, 80
6, 57888, Note_on_c, 3, 57, 80
6, 58016, Note_off_c, 3, 67, 0
6, 58016, Note_off_c, 3, 61, 0
6, 58016, Note_off_c, 3, 57, 0
6, 58272, Note_on_c, 3, 67, 80
6, 58272, Note_on_c, 3, 61, 80
6, 58272, Note_on_c, 3, 57, 80
6, 58336, Note_off_c, 3, 67, 0
6, 58336, Note_off_c, 3, 61, 0
6, 58336, Note_off_c, 3, 57, 0
6, 58656, Note_on_c, 3, 57, 80
6, 58656, Note_on_c, 3, 66, 80
6, 58656, Note_on_c, 3, 57, 80
6, 58784, Note_off_c, 3, 57, 0
6, 59036, Note_off_c, 3, 66, 0
6, 59036, Note_off_c, 3, 57, 0
6, 59040, Note_on_c, 3, 66, 80
6, 59040, Note_on_c, 3, 60, 80
6, 59040, Note_on_c, 3, 62, 80
6, 59040, Note_on_c, 3, 57, 80
6, 59168, Note_off_c, 3, 66, 0
6, 59168, Note_off_c, 3, 60, 0
6, 59168, Note_off_c, 3, 62, 0
6, 59168, Note_off_c, 3, 57, 0
6, 59424, Note_on_c, 3, 66, 80
6, 59424, Note_on_c, 3, 60, 80
6, 59424, Note_on_c, 3, 57, 80
6, 59424, Note_on_c, 3, 66, 80
6, 59424, Note_on_c, 3, 60, 80
6, 59424, Note_on_c, 3, 62, 80
6, 59424, Note_on_c, 3, 57, 80
6, 59552, Note_off_c, 3, 66, 0
6, 59552, Note_off_c, 3, 60, 0
6, 59552, Note_off_c, 3, 57, 0
6, 59552, Note_off_c, 3, 62, 0
6, 59804, Note_off_c, 3, 66, 0
6, 59804, Note_off_c, 3, 60, 0
6, 59804, Note_off_c, 3, 57, 0
6, 59808, Note_on_c, 3, 66, 80
6, 59808, Note_on_c, 3, 60, 80
6, 59808, Note_on_c, 3, 62, 80
6, 59808, Note_on_c, 3, 57, 80
6, 59904, Note_off_c, 3, 66, 0
6, 59904, Note_off_c, 3, 60, 0
6, 59904, Note_off_c, 3, 62, 0
6, 59904, Note_off_c, 3, 57, 0
6, 60192, Note_on_c, 3, 67, 80
6, 60192, Note_on_c, 3, 64, 80
6, 60192, Note_on_c, 3, 62, 80
6, 60192, Note_on_c, 3, 59, 80
6, 60320, Note_off_c, 3, 67, 0
6, 60320, Note_off_c, 3, 64, 0
6, 60320, Note_off_c, 3, 62, 0
6, 60320, Note_off_c, 3, 59, 0
6, 60576, Note_on_c, 3, 67, 80
6, 60576, Note_on_c, 3, 64, 80
6, 60576, Note_on_c, 3, 62, 80
6, 60576, Note_on_c, 3, 59, 80
6, 60704, Note_off_c, 3, 67, 0
6, 60704, Note_off_c, 3, 64, 0
6, 60704, Note_off_c, 3, 62, 0
6, 60704, Note_off_c, 3, 59, 0
6, 60960, Note_on_c, 3, 67, 80
6, 60960, Note_on_c, 3, 64, 80
6, 60960, Note_on_c, 3, 62, 80
6, 60960, Note_on_c, 3, 59, 80
6, 61088, Note_off_c, 3, 67, 0
6, 61088, Note_off_c, 3, 64, 0
6, 61088, Note_off_c, 3, 62, 0
6, 61088, Note_off_c, 3, 59, 0
6, 61344, Note_on_c, 3, 67, 80
6, 61344, Note_on_c, 3, 64, 80
6, 61344, Note_on_c, 3, 62, 80
6, 61344, Note_on_c, 3, 59, 80
6, 61472, Note_off_c, 3, 59, 0
6, 61472, Note_off_c, 3, 62, 0
6, 61472, Note_off_c, 3, 64, 0
6, 61472, Note_off_c, 3, 67, 0
6, 61728, Note_on_c, 3, 67, 80
6, 61728, Note_on_c, 3, 64, 80
6, 61728, Note_on_c, 3, 62, 80
6, 61728, Note_on_c, 3, 59, 80
6, 61856, Note_off_c, 3, 67, 0
6, 61856, Note_off_c, 3, 64, 0
6, 61856, Note_off_c, 3, 62, 0
6, 61856, Note_off_c, 3, 59, 0
6, 62112, Note_on_c, 3, 67, 80
6, 62112, Note_on_c, 3, 64, 80
6, 62112, Note_on_c, 3, 62, 80
6, 62112, Note_on_c, 3, 59, 80
6, 62240, Note_off_c, 3, 67, 0
6, 62240, Note_off_c, 3, 64, 0
6, 62240, Note_off_c, 3, 62, 0
6, 62240, Note_off_c, 3, 59, 0
6, 62496, Note_on_c, 3, 67, 80
6, 62496, Note_on_c, 3, 64, 80
6, 62496, Note_on_c, 3, 62, 80
6, 62496, Note_on_c, 3, 59, 80
6, 62624, Note_off_c, 3, 67, 0
6, 62624, Note_off_c, 3, 64, 0
6, 62624, Note_off_c, 3, 62, 0
6, 62624, Note_off_c, 3, 59, 0
6, 62880, Note_on_c, 3, 67, 80
6, 62880, Note_on_c, 3, 64, 80
6, 62880, Note_on_c, 3, 62, 80
6, 62880, Note_on_c, 3, 59, 80
6, 63008, Note_off_c, 3, 59, 0
6, 63008, Note_off_c, 3, 62, 0
6, 63008, Note_off_c, 3, 64, 0
6, 63008, Note_off_c, 3, 67, 0
6, 63264, Note_on_c, 3, 67, 80
6, 63264, Note_on_c, 3, 61, 80
6, 63264, Note_on_c, 3, 57, 80
6, 63392, Note_off_c, 3, 67, 0
6, 63392, Note_off_c, 3, 61, 0
6, 63392, Note_off_c, 3, 57, 0
6, 63648, Note_on_c, 3, 67, 80
6, 63648, Note_on_c, 3, 61, 80
6, 63648, Note_on_c, 3, 57, 80
6, 63776, Note_off_c, 3, 67, 0
6, 63776, Note_off_c, 3, 61, 0
6, 63776, Note_off_c, 3, 57, 0
6, 64032, Note_on_c, 3, 67, 80
6, 64032, Note_on_c, 3, 61, 80
6, 64032, Note_on_c, 3, 57, 80
6, 64160, Note_off_c, 3, 67, 0
6, 64160, Note_off_c, 3, 61, 0
6, 64160, Note_off_c, 3, 57, 0
6, 64416, Note_on_c, 3, 67, 80
6, 64416, Note_on_c, 3, 61, 80
6, 64416, Note_on_c, 3, 57, 80
6, 64480, Note_off_c, 3, 67, 0
6, 64480, Note_off_c, 3, 61, 0
6, 64480, Note_off_c, 3, 57, 0
6, 64800, Note_on_c, 3, 57, 80
6, 64800, Note_on_c, 3, 66, 80
6, 64800, Note_on_c, 3, 57, 80
6, 64800, Note_on_c, 3, 62, 80
6, 64928, Note_off_c, 3, 57, 0
6, 64928, Note_off_c, 3, 62, 0
6, 65180, Note_off_c, 3, 66, 0
6, 65180, Note_off_c, 3, 57, 0
6, 65184, Note_on_c, 3, 66, 80
6, 65184, Note_on_c, 3, 60, 80
6, 65184, Note_on_c, 3, 62, 80
6, 65184, Note_on_c, 3, 57, 80
6, 65312, Note_off_c, 3, 66, 0
6, 65312, Note_off_c, 3, 60, 0
6, 65312, Note_off_c, 3, 62, 0
6, 65312, Note_off_c, 3, 57, 0
6, 65568, Note_on_c, 3, 66, 80
6, 65568, Note_on_c, 3, 60, 80
6, 65568, Note_on_c, 3, 57, 80
6, 65568, Note_on_c, 3, 66, 80
6, 65568, Note_on_c, 3, 60, 80
6, 65568, Note_on_c, 3, 62, 80
6, 65568, Note_on_c, 3, 57, 80
6, 65696, Note_off_c, 3, 66, 0
6, 65696, Note_off_c, 3, 60, 0
6, 65696, Note_off_c, 3, 57, 0
6, 65696, Note_off_c, 3, 62, 0
6, 65948, Note_off_c, 3, 66, 0
6, 65948, Note_off_c, 3, 60, 0
6, 65948, Note_off_c, 3, 57, 0
6, 65952, Note_on_c, 3, 66, 80
6, 65952, Note_on_c, 3, 60, 80
6, 65952, Note_on_c, 3, 62, 80
6, 65952, Note_on_c, 3, 57, 80
6, 66080, Note_off_c, 3, 57, 0
6, 66080, Note_off_c, 3, 60, 0
6, 66080, Note_off_c, 3, 62, 0
6, 66080, Note_off_c, 3, 66, 0
6, 66336, Note_on_c, 3, 67, 80
6, 66336, Note_on_c, 3, 64, 80
6, 66336, Note_on_c, 3, 62, 80
6, 66336, Note_on_c, 3, 59, 80
6, 66464, Note_off_c, 3, 67, 0
6, 66464, Note_off_c, 3, 64, 0
6, 66464, Note_off_c, 3, 62, 0
6, 66464, Note_off_c, 3, 59, 0
6, 66720, Note_on_c, 3, 67, 80
6, 66720, Note_on_c, 3, 64, 80
6, 66720, Note_on_c, 3, 62, 80
6, 66720, Note_on_c, 3, 59, 80
6, 66848, Note_off_c, 3, 67, 0
6, 66848, Note_off_c, 3, 64, 0
6, 66848, Note_off_c, 3, 62, 0
6, 66848, Note_off_c, 3, 59, 0
6, 67104, Note_on_c, 3, 67, 80
6, 67104, Note_on_c, 3, 64, 80
6, 67104, Note_on_c, 3, 62, 80
6, 67104, Note_on_c, 3, 59, 80
6, 67232, Note_off_c, 3, 67, 0
6, 67232, Note_off_c, 3, 64, 0
6, 67232, Note_off_c, 3, 62, 0
6, 67232, Note_off_c, 3, 59, 0
6, 67488, Note_on_c, 3, 67, 80
6, 67488, Note_on_c, 3, 64, 80
6, 67488, Note_on_c, 3, 62, 80
6, 67488, Note_on_c, 3, 59, 80
6, 67584, Note_off_c, 3, 67, 0
6, 67584, Note_off_c, 3, 64, 0
6, 67584, Note_off_c, 3, 62, 0
6, 67584, Note_off_c, 3, 59, 0
6, 67584, Note_on_c, 3, 59, 80
6, 67584, Note_on_c, 3, 62, 80
6, 67584, Note_on_c, 3, 64, 80
6, 67584, Note_on_c, 3, 67, 80
6, 67616, Note_off_c, 3, 59, 0
6, 67616, Note_off_c, 3, 62, 0
6, 67616, Note_off_c, 3, 64, 0
6, 67616, Note_off_c, 3, 67, 0
6, 67872, Note_on_c, 3, 67, 80
6, 67872, Note_on_c, 3, 64, 80
6, 67872, Note_on_c, 3, 62, 80
6, 67872, Note_on_c, 3, 59, 80
6, 68000, Note_off_c, 3, 67, 0
6, 68000, Note_off_c, 3, 64, 0
6, 68000, Note_off_c, 3, 62, 0
6, 68000, Note_off_c, 3, 59, 0
6, 68256, Note_on_c, 3, 67, 80
6, 68256, Note_on_c, 3, 64, 80
6, 68256, Note_on_c, 3, 62, 80
6, 68256, Note_on_c, 3, 59, 80
6, 68384, Note_off_c, 3, 67, 0
6, 68384, Note_off_c, 3, 64, 0
6, 68384, Note_off_c, 3, 62, 0
6, 68384, Note_off_c, 3, 59, 0
6, 68640, Note_on_c, 3, 67, 80
6, 68640, Note_on_c, 3, 64, 80
6, 68640, Note_on_c, 3, 62, 80
6, 68640, Note_on_c, 3, 59, 80
6, 68768, Note_off_c, 3, 67, 0
6, 68768, Note_off_c, 3, 64, 0
6, 68768, Note_off_c, 3, 62, 0
6, 68768, Note_off_c, 3, 59, 0
6, 69024, Note_on_c, 3, 67, 80
6, 69024, Note_on_c, 3, 64, 80
6, 69024, Note_on_c, 3, 62, 80
6, 69024, Note_on_c, 3, 59, 80
6, 69152, Note_off_c, 3, 59, 0
6, 69152, Note_off_c, 3, 62, 0
6, 69152, Note_off_c, 3, 64, 0
6, 69152, Note_off_c, 3, 67, 0
6, 69408, Note_on_c, 3, 67, 80
6, 69408, Note_on_c, 3, 61, 80
6, 69408, Note_on_c, 3, 57, 80
6, 69536, Note_off_c, 3, 67, 0
6, 69536, Note_off_c, 3, 61, 0
6, 69536, Note_off_c, 3, 57, 0
6, 69792, Note_on_c, 3, 67, 80
6, 69792, Note_on_c, 3, 61, 80
6, 69792, Note_on_c, 3, 57, 80
6, 69920, Note_off_c, 3, 67, 0
6, 69920, Note_off_c, 3, 61, 0
6, 69920, Note_off_c, 3, 57, 0
6, 70176, Note_on_c, 3, 67, 80
6, 70176, Note_on_c, 3, 61, 80
6, 70176, Note_on_c, 3, 57, 80
6, 70304, Note_off_c, 3, 67, 0
6, 70304, Note_off_c, 3, 61, 0
6, 70304, Note_off_c, 3, 57, 0
6, 70560, Note_on_c, 3, 67, 80
6, 70560, Note_on_c, 3, 61, 80
6, 70560, Note_on_c, 3, 57, 80
6, 70624, Note_off_c, 3, 67, 0
6, 70624, Note_off_c, 3, 61, 0
6, 70624, Note_off_c, 3, 57, 0
6, 70656, Note_on_c, 3, 67, 80
6, 70656, Note_on_c, 3, 64, 80
6, 70656, Note_on_c, 3, 62, 80
6, 70656, Note_on_c, 3, 59, 80
6, 70688, Note_off_c, 3, 67, 0
6, 70688, Note_off_c, 3, 64, 0
6, 70688, Note_off_c, 3, 62, 0
6, 70688, Note_off_c, 3, 59, 0
6, 70944, Note_on_c, 3, 60, 80
6, 70944, Note_on_c, 3, 57, 80
6, 70944, Note_on_c, 3, 66, 80
6, 70944, Note_on_c, 3, 64, 80
6, 70944, Note_on_c, 3, 61, 80
6, 70944, Note_on_c, 3, 57, 80
6, 70944, Note_on_c, 3, 62, 80
6, 71072, Note_off_c, 3, 57, 0
6, 71072, Note_off_c, 3, 64, 0
6, 71072, Note_off_c, 3, 61, 0
6, 71072, Note_off_c, 3, 62, 0
6, 71324, Note_off_c, 3, 60, 0
6, 71324, Note_off_c, 3, 66, 0
6, 71324, Note_off_c, 3, 57, 0
6, 71328, Note_on_c, 3, 66, 80
6, 71328, Note_on_c, 3, 60, 80
6, 71328, Note_on_c, 3, 62, 80
6, 71328, Note_on_c, 3, 57, 80
6, 71456, Note_off_c, 3, 66, 0
6, 71456, Note_off_c, 3, 60, 0
6, 71456, Note_off_c, 3, 62, 0
6, 71456, Note_off_c, 3, 57, 0
6, 71712, Note_on_c, 3, 66, 80
6, 71712, Note_on_c, 3, 60, 80
6, 71712, Note_on_c, 3, 57, 80
6, 71712, Note_on_c, 3, 66, 80
6, 71712, Note_on_c, 3, 60, 80
6, 71712, Note_on_c, 3, 62, 80
6, 71712, Note_on_c, 3, 57, 80
6, 71840, Note_off_c, 3, 66, 0
6, 71840, Note_off_c, 3, 60, 0
6, 71840, Note_off_c, 3, 57, 0
6, 71840, Note_off_c, 3, 62, 0
6, 72092, Note_off_c, 3, 66, 0
6, 72092, Note_off_c, 3, 60, 0
6, 72092, Note_off_c, 3, 57, 0
6, 72096, Note_on_c, 3, 66, 80
6, 72096, Note_on_c, 3, 60, 80
6, 72096, Note_on_c, 3, 62, 80
6, 72096, Note_on_c, 3, 57, 80
6, 72224, Note_off_c, 3, 57, 0
6, 72224, Note_off_c, 3, 60, 0
6, 72224, Note_off_c, 3, 62, 0
6, 72224, Note_off_c, 3, 66, 0
6, 72480, Note_on_c, 3, 67, 80
6, 72480, Note_on_c, 3, 64, 80
6, 72480, Note_on_c, 3, 62, 80
6, 72480, Note_on_c, 3, 59, 80
6, 72608, Note_off_c, 3, 67, 0
6, 72608, Note_off_c, 3, 64, 0
6, 72608, Note_off_c, 3, 62, 0
6, 72608, Note_off_c, 3, 59, 0
6, 72864, Note_on_c, 3, 67, 80
6, 72864, Note_on_c, 3, 64, 80
6, 72864, Note_on_c, 3, 62, 80
6, 72864, Note_on_c, 3, 59, 80
6, 72992, Note_off_c, 3, 67, 0
6, 72992, Note_off_c, 3, 64, 0
6, 72992, Note_off_c, 3, 62, 0
6, 72992, Note_off_c, 3, 59, 0
6, 73248, Note_on_c, 3, 67, 80
6, 73248, Note_on_c, 3, 64, 80
6, 73248, Note_on_c, 3, 62, 80
6, 73248, Note_on_c, 3, 59, 80
6, 73376, Note_off_c, 3, 67, 0
6, 73376, Note_off_c, 3, 64, 0
6, 73376, Note_off_c, 3, 62, 0
6, 73376, Note_off_c, 3, 59, 0
6, 73632, Note_on_c, 3, 67, 80
6, 73632, Note_on_c, 3, 64, 80
6, 73632, Note_on_c, 3, 62, 80
6, 73632, Note_on_c, 3, 59, 80
6, 73760, Note_off_c, 3, 59, 0
6, 73760, Note_off_c, 3, 62, 0
6, 73760, Note_off_c, 3, 64, 0
6, 73760, Note_off_c, 3, 67, 0
6, 74016, Note_on_c, 3, 67, 80
6, 74016, Note_on_c, 3, 64, 80
6, 74016, Note_on_c, 3, 62, 80
6, 74016, Note_on_c, 3, 59, 80
6, 74144, Note_off_c, 3, 67, 0
6, 74144, Note_off_c, 3, 64, 0
6, 74144, Note_off_c, 3, 62, 0
6, 74144, Note_off_c, 3, 59, 0
6, 74400, Note_on_c, 3, 67, 80
6, 74400, Note_on_c, 3, 64, 80
6, 74400, Note_on_c, 3, 62, 80
6, 74400, Note_on_c, 3, 59, 80
6, 74528, Note_off_c, 3, 67, 0
6, 74528, Note_off_c, 3, 64, 0
6, 74528, Note_off_c, 3, 62, 0
6, 74528, Note_off_c, 3, 59, 0
6, 74784, Note_on_c, 3, 67, 80
6, 74784, Note_on_c, 3, 64, 80
6, 74784, Note_on_c, 3, 62, 80
6, 74784, Note_on_c, 3, 59, 80
6, 74912, Note_off_c, 3, 67, 0
6, 74912, Note_off_c, 3, 64, 0
6, 74912, Note_off_c, 3, 62, 0
6, 74912, Note_off_c, 3, 59, 0
6, 75168, Note_on_c, 3, 67, 80
6, 75168, Note_on_c, 3, 64, 80
6, 75168, Note_on_c, 3, 62, 80
6, 75168, Note_on_c, 3, 59, 80
6, 75296, Note_off_c, 3, 59, 0
6, 75296, Note_off_c, 3, 62, 0
6, 75296, Note_off_c, 3, 64, 0
6, 75296, Note_off_c, 3, 67, 0
6, 75552, Note_on_c, 3, 67, 80
6, 75552, Note_on_c, 3, 64, 80
6, 75552, Note_on_c, 3, 62, 80
6, 75552, Note_on_c, 3, 59, 80
6, 75680, Note_off_c, 3, 67, 0
6, 75680, Note_off_c, 3, 64, 0
6, 75680, Note_off_c, 3, 62, 0
6, 75680, Note_off_c, 3, 59, 0
6, 75936, Note_on_c, 3, 67, 80
6, 75936, Note_on_c, 3, 64, 80
6, 75936, Note_on_c, 3, 62, 80
6, 75936, Note_on_c, 3, 59, 80
6, 76064, Note_off_c, 3, 67, 0
6, 76064, Note_off_c, 3, 64, 0
6, 76064, Note_off_c, 3, 62, 0
6, 76064, Note_off_c, 3, 59, 0
6, 76320, Note_on_c, 3, 67, 80
6, 76320, Note_on_c, 3, 64, 80
6, 76320, Note_on_c, 3, 62, 80
6, 76320, Note_on_c, 3, 59, 80
6, 76448, Note_off_c, 3, 67, 0
6, 76448, Note_off_c, 3, 64, 0
6, 76448, Note_off_c, 3, 62, 0
6, 76448, Note_off_c, 3, 59, 0
6, 76704, Note_on_c, 3, 67, 80
6, 76704, Note_on_c, 3, 64, 80
6, 76704, Note_on_c, 3, 62, 80
6, 76704, Note_on_c, 3, 59, 80
6, 76832, Note_off_c, 3, 59, 0
6, 76832, Note_off_c, 3, 62, 0
6, 76832, Note_off_c, 3, 64, 0
6, 76832, Note_off_c, 3, 67, 0
6, 77088, Note_on_c, 3, 67, 80
6, 77088, Note_on_c, 3, 69, 80
6, 77088, Note_on_c, 3, 64, 80
6, 77088, Note_on_c, 3, 60, 80
6, 77216, Note_off_c, 3, 67, 0
6, 77216, Note_off_c, 3, 69, 0
6, 77216, Note_off_c, 3, 64, 0
6, 77216, Note_off_c, 3, 60, 0
6, 77472, Note_on_c, 3, 67, 80
6, 77472, Note_on_c, 3, 69, 80
6, 77472, Note_on_c, 3, 64, 80
6, 77472, Note_on_c, 3, 60, 80
6, 77600, Note_off_c, 3, 67, 0
6, 77600, Note_off_c, 3, 69, 0
6, 77600, Note_off_c, 3, 64, 0
6, 77600, Note_off_c, 3, 60, 0
6, 77856, Note_on_c, 3, 67, 80
6, 77856, Note_on_c, 3, 69, 80
6, 77856, Note_on_c, 3, 64, 80
6, 77856, Note_on_c, 3, 60, 80
6, 77984, Note_off_c, 3, 67, 0
6, 77984, Note_off_c, 3, 69, 0
6, 77984, Note_off_c, 3, 64, 0
6, 77984, Note_off_c, 3, 60, 0
6, 78240, Note_on_c, 3, 67, 80
6, 78240, Note_on_c, 3, 69, 80
6, 78240, Note_on_c, 3, 64, 80
6, 78240, Note_on_c, 3, 60, 80
6, 78368, Note_off_c, 3, 60, 0
6, 78368, Note_off_c, 3, 64, 0
6, 78368, Note_off_c, 3, 67, 0
6, 78368, Note_off_c, 3, 69, 0
6, 78624, Note_on_c, 3, 67, 80
6, 78624, Note_on_c, 3, 64, 80
6, 78624, Note_on_c, 3, 62, 80
6, 78624, Note_on_c, 3, 59, 80
6, 78752, Note_off_c, 3, 67, 0
6, 78752, Note_off_c, 3, 64, 0
6, 78752, Note_off_c, 3, 62, 0
6, 78752, Note_off_c, 3, 59, 0
6, 79008, Note_on_c, 3, 67, 80
6, 79008, Note_on_c, 3, 64, 80
6, 79008, Note_on_c, 3, 62, 80
6, 79008, Note_on_c, 3, 59, 80
6, 79136, Note_off_c, 3, 67, 0
6, 79136, Note_off_c, 3, 64, 0
6, 79136, Note_off_c, 3, 62, 0
6, 79136, Note_off_c, 3, 59, 0
6, 79392, Note_on_c, 3, 67, 80
6, 79392, Note_on_c, 3, 64, 80
6, 79392, Note_on_c, 3, 62, 80
6, 79392, Note_on_c, 3, 59, 80
6, 79520, Note_off_c, 3, 67, 0
6, 79520, Note_off_c, 3, 64, 0
6, 79520, Note_off_c, 3, 62, 0
6, 79520, Note_off_c, 3, 59, 0
6, 79776, Note_on_c, 3, 67, 80
6, 79776, Note_on_c, 3, 64, 80
6, 79776, Note_on_c, 3, 62, 80
6, 79776, Note_on_c, 3, 59, 80
6, 79904, Note_off_c, 3, 59, 0
6, 79904, Note_off_c, 3, 62, 0
6, 79904, Note_off_c, 3, 64, 0
6, 79904, Note_off_c, 3, 67, 0
6, 80160, Note_on_c, 3, 66, 80
6, 80160, Note_on_c, 3, 60, 80
6, 80160, Note_on_c, 3, 62, 80
6, 80160, Note_on_c, 3, 57, 80
6, 80288, Note_off_c, 3, 66, 0
6, 80288, Note_off_c, 3, 60, 0
6, 80288, Note_off_c, 3, 62, 0
6, 80288, Note_off_c, 3, 57, 0
6, 80544, Note_on_c, 3, 66, 80
6, 80544, Note_on_c, 3, 60, 80
6, 80544, Note_on_c, 3, 62, 80
6, 80544, Note_on_c, 3, 57, 80
6, 80672, Note_off_c, 3, 66, 0
6, 80672, Note_off_c, 3, 60, 0
6, 80672, Note_off_c, 3, 62, 0
6, 80672, Note_off_c, 3, 57, 0
6, 80928, Note_on_c, 3, 66, 80
6, 80928, Note_on_c, 3, 60, 80
6, 80928, Note_on_c, 3, 62, 80
6, 80928, Note_on_c, 3, 57, 80
6, 81056, Note_off_c, 3, 66, 0
6, 81056, Note_off_c, 3, 60, 0
6, 81056, Note_off_c, 3, 62, 0
6, 81056, Note_off_c, 3, 57, 0
6, 81312, Note_on_c, 3, 66, 80
6, 81312, Note_on_c, 3, 60, 80
6, 81312, Note_on_c, 3, 62, 80
6, 81312, Note_on_c, 3, 57, 80
6, 81440, Note_off_c, 3, 57, 0
6, 81440, Note_off_c, 3, 60, 0
6, 81440, Note_off_c, 3, 62, 0
6, 81440, Note_off_c, 3, 66, 0
6, 81696, Note_on_c, 3, 67, 80
6, 81696, Note_on_c, 3, 64, 80
6, 81696, Note_on_c, 3, 62, 80
6, 81696, Note_on_c, 3, 59, 80
6, 81824, Note_off_c, 3, 67, 0
6, 81824, Note_off_c, 3, 64, 0
6, 81824, Note_off_c, 3, 62, 0
6, 81824, Note_off_c, 3, 59, 0
6, 82080, Note_on_c, 3, 67, 80
6, 82080, Note_on_c, 3, 64, 80
6, 82080, Note_on_c, 3, 62, 80
6, 82080, Note_on_c, 3, 59, 80
6, 82208, Note_off_c, 3, 67, 0
6, 82208, Note_off_c, 3, 64, 0
6, 82208, Note_off_c, 3, 62, 0
6, 82208, Note_off_c, 3, 59, 0
6, 82464, Note_on_c, 3, 67, 80
6, 82464, Note_on_c, 3, 64, 80
6, 82464, Note_on_c, 3, 62, 80
6, 82464, Note_on_c, 3, 59, 80
6, 82592, Note_off_c, 3, 67, 0
6, 82592, Note_off_c, 3, 64, 0
6, 82592, Note_off_c, 3, 62, 0
6, 82592, Note_off_c, 3, 59, 0
6, 82848, Note_on_c, 3, 67, 80
6, 82848, Note_on_c, 3, 64, 80
6, 82848, Note_on_c, 3, 62, 80
6, 82848, Note_on_c, 3, 59, 80
6, 82976, Note_off_c, 3, 59, 0
6, 82976, Note_off_c, 3, 62, 0
6, 82976, Note_off_c, 3, 64, 0
6, 82976, Note_off_c, 3, 67, 0
6, 83232, Note_on_c, 3, 67, 80
6, 83232, Note_on_c, 3, 69, 80
6, 83232, Note_on_c, 3, 64, 80
6, 83232, Note_on_c, 3, 60, 80
6, 83360, Note_off_c, 3, 67, 0
6, 83360, Note_off_c, 3, 69, 0
6, 83360, Note_off_c, 3, 64, 0
6, 83360, Note_off_c, 3, 60, 0
6, 83616, Note_on_c, 3, 67, 80
6, 83616, Note_on_c, 3, 69, 80
6, 83616, Note_on_c, 3, 64, 80
6, 83616, Note_on_c, 3, 60, 80
6, 83744, Note_off_c, 3, 67, 0
6, 83744, Note_off_c, 3, 69, 0
6, 83744, Note_off_c, 3, 64, 0
6, 83744, Note_off_c, 3, 60, 0
6, 84000, Note_on_c, 3, 67, 80
6, 84000, Note_on_c, 3, 69, 80
6, 84000, Note_on_c, 3, 64, 80
6, 84000, Note_on_c, 3, 60, 80
6, 84128, Note_off_c, 3, 67, 0
6, 84128, Note_off_c, 3, 69, 0
6, 84128, Note_off_c, 3, 64, 0
6, 84128, Note_off_c, 3, 60, 0
6, 84384, Note_on_c, 3, 67, 80
6, 84384, Note_on_c, 3, 69, 80
6, 84384, Note_on_c, 3, 64, 80
6, 84384, Note_on_c, 3, 60, 80
6, 84512, Note_off_c, 3, 60, 0
6, 84512, Note_off_c, 3, 64, 0
6, 84512, Note_off_c, 3, 67, 0
6, 84512, Note_off_c, 3, 69, 0
6, 84768, Note_on_c, 3, 66, 80
6, 84768, Note_on_c, 3, 60, 80
6, 84768, Note_on_c, 3, 62, 80
6, 84768, Note_on_c, 3, 57, 80
6, 84896, Note_off_c, 3, 66, 0
6, 84896, Note_off_c, 3, 60, 0
6, 84896, Note_off_c, 3, 62, 0
6, 84896, Note_off_c, 3, 57, 0
6, 85152, Note_on_c, 3, 66, 80
6, 85152, Note_on_c, 3, 60, 80
6, 85152, Note_on_c, 3, 62, 80
6, 85152, Note_on_c, 3, 57, 80
6, 85280, Note_off_c, 3, 66, 0
6, 85280, Note_off_c, 3, 60, 0
6, 85280, Note_off_c, 3, 62, 0
6, 85280, Note_off_c, 3, 57, 0
6, 85536, Note_on_c, 3, 66, 80
6, 85536, Note_on_c, 3, 60, 80
6, 85536, Note_on_c, 3, 62, 80
6, 85536, Note_on_c, 3, 57, 80
6, 85664, Note_off_c, 3, 66, 0
6, 85664, Note_off_c, 3, 60, 0
6, 85664, Note_off_c, 3, 62, 0
6, 85664, Note_off_c, 3, 57, 0
6, 85920, Note_on_c, 3, 66, 80
6, 85920, Note_on_c, 3, 60, 80
6, 85920, Note_on_c, 3, 62, 80
6, 85920, Note_on_c, 3, 57, 80
6, 86016, Note_on_c, 3, 67, 80
6, 86016, Note_on_c, 3, 64, 80
6, 86016, Note_on_c, 3, 62, 80
6, 86016, Note_on_c, 3, 59, 80
6, 86048, Note_off_c, 3, 57, 0
6, 86048, Note_off_c, 3, 60, 0
6, 86048, Note_off_c, 3, 62, 0
6, 86048, Note_off_c, 3, 66, 0
6, 86272, Note_off_c, 3, 67, 0
6, 86272, Note_off_c, 3, 64, 0
6, 86272, Note_off_c, 3, 62, 0
6, 86272, Note_off_c, 3, 59, 0
6, 87840, Note_on_c, 3, 66, 80
6, 87840, Note_on_c, 3, 60, 80
6, 87840, Note_on_c, 3, 62, 80
6, 87840, Note_on_c, 3, 57, 80
6, 87968, Note_off_c, 3, 66, 0
6, 87968, Note_off_c, 3, 60, 0
6, 87968, Note_off_c, 3, 62, 0
6, 87968, Note_off_c, 3, 57, 0
6, 88224, Note_on_c, 3, 66, 80
6, 88224, Note_on_c, 3, 60, 80
6, 88224, Note_on_c, 3, 62, 80
6, 88224, Note_on_c, 3, 57, 80
6, 88352, Note_off_c, 3, 66, 0
6, 88352, Note_off_c, 3, 60, 0
6, 88352, Note_off_c, 3, 62, 0
6, 88352, Note_off_c, 3, 57, 0
6, 88608, Note_on_c, 3, 66, 80
6, 88608, Note_on_c, 3, 60, 80
6, 88608, Note_on_c, 3, 62, 80
6, 88608, Note_on_c, 3, 57, 80
6, 88736, Note_off_c, 3, 66, 0
6, 88736, Note_off_c, 3, 60, 0
6, 88736, Note_off_c, 3, 62, 0
6, 88736, Note_off_c, 3, 57, 0
6, 88992, Note_on_c, 3, 66, 80
6, 88992, Note_on_c, 3, 60, 80
6, 88992, Note_on_c, 3, 62, 80
6, 88992, Note_on_c, 3, 57, 80
6, 89120, Note_off_c, 3, 57, 0
6, 89120, Note_off_c, 3, 60, 0
6, 89120, Note_off_c, 3, 62, 0
6, 89120, Note_off_c, 3, 66, 0
6, 89376, Note_on_c, 3, 66, 80
6, 89376, Note_on_c, 3, 60, 80
6, 89376, Note_on_c, 3, 62, 80
6, 89376, Note_on_c, 3, 57, 80
6, 89504, Note_off_c, 3, 66, 0
6, 89504, Note_off_c, 3, 60, 0
6, 89504, Note_off_c, 3, 62, 0
6, 89504, Note_off_c, 3, 57, 0
6, 89760, Note_on_c, 3, 66, 80
6, 89760, Note_on_c, 3, 60, 80
6, 89760, Note_on_c, 3, 62, 80
6, 89760, Note_on_c, 3, 57, 80
6, 89888, Note_off_c, 3, 66, 0
6, 89888, Note_off_c, 3, 60, 0
6, 89888, Note_off_c, 3, 62, 0
6, 89888, Note_off_c, 3, 57, 0
6, 90144, Note_on_c, 3, 66, 80
6, 90144, Note_on_c, 3, 60, 80
6, 90144, Note_on_c, 3, 62, 80
6, 90144, Note_on_c, 3, 57, 80
6, 90272, Note_off_c, 3, 66, 0
6, 90272, Note_off_c, 3, 60, 0
6, 90272, Note_off_c, 3, 62, 0
6, 90272, Note_off_c, 3, 57, 0
6, 90528, Note_on_c, 3, 66, 80
6, 90528, Note_on_c, 3, 60, 80
6, 90528, Note_on_c, 3, 62, 80
6, 90528, Note_on_c, 3, 57, 80
6, 90656, Note_off_c, 3, 57, 0
6, 90656, Note_off_c, 3, 60, 0
6, 90656, Note_off_c, 3, 62, 0
6, 90656, Note_off_c, 3, 66, 0
6, 90912, Note_on_c, 3, 67, 80
6, 90912, Note_on_c, 3, 64, 80
6, 90912, Note_on_c, 3, 62, 80
6, 90912, Note_on_c, 3, 59, 80
6, 91040, Note_off_c, 3, 67, 0
6, 91040, Note_off_c, 3, 64, 0
6, 91040, Note_off_c, 3, 62, 0
6, 91040, Note_off_c, 3, 59, 0
6, 91296, Note_on_c, 3, 67, 80
6, 91296, Note_on_c, 3, 64, 80
6, 91296, Note_on_c, 3, 62, 80
6, 91296, Note_on_c, 3, 59, 80
6, 91424, Note_off_c, 3, 67, 0
6, 91424, Note_off_c, 3, 64, 0
6, 91424, Note_off_c, 3, 62, 0
6, 91424, Note_off_c, 3, 59, 0
6, 91680, Note_on_c, 3, 67, 80
6, 91680, Note_on_c, 3, 64, 80
6, 91680, Note_on_c, 3, 62, 80
6, 91680, Note_on_c, 3, 59, 80
6, 91808, Note_off_c, 3, 67, 0
6, 91808, Note_off_c, 3, 64, 0
6, 91808, Note_off_c, 3, 62, 0
6, 91808, Note_off_c, 3, 59, 0
6, 92064, Note_on_c, 3, 67, 80
6, 92064, Note_on_c, 3, 64, 80
6, 92064, Note_on_c, 3, 62, 80
6, 92064, Note_on_c, 3, 59, 80
6, 92192, Note_off_c, 3, 59, 0
6, 92192, Note_off_c, 3, 62, 0
6, 92192, Note_off_c, 3, 64, 0
6, 92192, Note_off_c, 3, 67, 0
6, 92448, Note_on_c, 3, 67, 80
6, 92448, Note_on_c, 3, 64, 80
6, 92448, Note_on_c, 3, 62, 80
6, 92448, Note_on_c, 3, 59, 80
6, 92576, Note_off_c, 3, 67, 0
6, 92576, Note_off_c, 3, 64, 0
6, 92576, Note_off_c, 3, 62, 0
6, 92576, Note_off_c, 3, 59, 0
6, 92832, Note_on_c, 3, 67, 80
6, 92832, Note_on_c, 3, 64, 80
6, 92832, Note_on_c, 3, 62, 80
6, 92832, Note_on_c, 3, 59, 80
6, 92960, Note_off_c, 3, 67, 0
6, 92960, Note_off_c, 3, 64, 0
6, 92960, Note_off_c, 3, 62, 0
6, 92960, Note_off_c, 3, 59, 0
6, 93216, Note_on_c, 3, 67, 80
6, 93216, Note_on_c, 3, 64, 80
6, 93216, Note_on_c, 3, 62, 80
6, 93216, Note_on_c, 3, 59, 80
6, 93344, Note_off_c, 3, 67, 0
6, 93344, Note_off_c, 3, 64, 0
6, 93344, Note_off_c, 3, 62, 0
6, 93344, Note_off_c, 3, 59, 0
6, 93600, Note_on_c, 3, 67, 80
6, 93600, Note_on_c, 3, 64, 80
6, 93600, Note_on_c, 3, 62, 80
6, 93600, Note_on_c, 3, 59, 80
6, 93728, Note_off_c, 3, 59, 0
6, 93728, Note_off_c, 3, 62, 0
6, 93728, Note_off_c, 3, 64, 0
6, 93728, Note_off_c, 3, 67, 0
6, 93984, Note_on_c, 3, 66, 80
6, 93984, Note_on_c, 3, 60, 80
6, 93984, Note_on_c, 3, 62, 80
6, 93984, Note_on_c, 3, 57, 80
6, 94112, Note_off_c, 3, 66, 0
6, 94112, Note_off_c, 3, 60, 0
6, 94112, Note_off_c, 3, 62, 0
6, 94112, Note_off_c, 3, 57, 0
6, 94368, Note_on_c, 3, 66, 80
6, 94368, Note_on_c, 3, 60, 80
6, 94368, Note_on_c, 3, 62, 80
6, 94368, Note_on_c, 3, 57, 80
6, 94496, Note_off_c, 3, 66, 0
6, 94496, Note_off_c, 3, 60, 0
6, 94496, Note_off_c, 3, 62, 0
6, 94496, Note_off_c, 3, 57, 0
6, 94752, Note_on_c, 3, 66, 80
6, 94752, Note_on_c, 3, 60, 80
6, 94752, Note_on_c, 3, 62, 80
6, 94752, Note_on_c, 3, 57, 80
6, 94880, Note_off_c, 3, 66, 0
6, 94880, Note_off_c, 3, 60, 0
6, 94880, Note_off_c, 3, 62, 0
6, 94880, Note_off_c, 3, 57, 0
6, 95136, Note_on_c, 3, 66, 80
6, 95136, Note_on_c, 3, 60, 80
6, 95136, Note_on_c, 3, 62, 80
6, 95136, Note_on_c, 3, 57, 80
6, 95264, Note_off_c, 3, 57, 0
6, 95264, Note_off_c, 3, 60, 0
6, 95264, Note_off_c, 3, 62, 0
6, 95264, Note_off_c, 3, 66, 0
6, 95520, Note_on_c, 3, 66, 80
6, 95520, Note_on_c, 3, 60, 80
6, 95520, Note_on_c, 3, 62, 80
6, 95520, Note_on_c, 3, 57, 80
6, 95648, Note_off_c, 3, 66, 0
6, 95648, Note_off_c, 3, 60, 0
6, 95648, Note_off_c, 3, 62, 0
6, 95648, Note_off_c, 3, 57, 0
6, 95904, Note_on_c, 3, 66, 80
6, 95904, Note_on_c, 3, 60, 80
6, 95904, Note_on_c, 3, 62, 80
6, 95904, Note_on_c, 3, 57, 80
6, 96032, Note_off_c, 3, 66, 0
6, 96032, Note_off_c, 3, 60, 0
6, 96032, Note_off_c, 3, 62, 0
6, 96032, Note_off_c, 3, 57, 0
6, 96288, Note_on_c, 3, 66, 80
6, 96288, Note_on_c, 3, 60, 80
6, 96288, Note_on_c, 3, 62, 80
6, 96288, Note_on_c, 3, 57, 80
6, 96416, Note_off_c, 3, 66, 0
6, 96416, Note_off_c, 3, 60, 0
6, 96416, Note_off_c, 3, 62, 0
6, 96416, Note_off_c, 3, 57, 0
6, 96672, Note_on_c, 3, 66, 80
6, 96672, Note_on_c, 3, 60, 80
6, 96672, Note_on_c, 3, 62, 80
6, 96672, Note_on_c, 3, 57, 80
6, 96768, Note_off_c, 3, 66, 0
6, 96768, Note_off_c, 3, 60, 0
6, 96768, Note_off_c, 3, 62, 0
6, 96768, Note_off_c, 3, 57, 0
6, 97056, Note_on_c, 3, 67, 80
6, 97056, Note_on_c, 3, 61, 80
6, 97056, Note_on_c, 3, 57, 80
6, 97184, Note_off_c, 3, 67, 0
6, 97184, Note_off_c, 3, 61, 0
6, 97184, Note_off_c, 3, 57, 0
6, 97440, Note_on_c, 3, 67, 80
6, 97440, Note_on_c, 3, 61, 80
6, 97440, Note_on_c, 3, 57, 80
6, 97568, Note_off_c, 3, 67, 0
6, 97568, Note_off_c, 3, 61, 0
6, 97568, Note_off_c, 3, 57, 0
6, 97824, Note_on_c, 3, 67, 80
6, 97824, Note_on_c, 3, 61, 80
6, 97824, Note_on_c, 3, 57, 80
6, 97952, Note_off_c, 3, 67, 0
6, 97952, Note_off_c, 3, 61, 0
6, 97952, Note_off_c, 3, 57, 0
6, 98208, Note_on_c, 3, 67, 80
6, 98208, Note_on_c, 3, 61, 80
6, 98208, Note_on_c, 3, 57, 80
6, 98272, Note_off_c, 3, 67, 0
6, 98272, Note_off_c, 3, 61, 0
6, 98272, Note_off_c, 3, 57, 0
6, 98592, Note_on_c, 3, 57, 80
6, 98592, Note_on_c, 3, 66, 80
6, 98592, Note_on_c, 3, 60, 80
6, 98592, Note_on_c, 3, 57, 80
6, 98720, Note_off_c, 3, 57, 0
6, 98720, Note_off_c, 3, 60, 0
6, 98972, Note_off_c, 3, 66, 0
6, 98972, Note_off_c, 3, 57, 0
6, 98976, Note_on_c, 3, 66, 80
6, 98976, Note_on_c, 3, 60, 80
6, 98976, Note_on_c, 3, 62, 80
6, 98976, Note_on_c, 3, 57, 80
6, 99104, Note_off_c, 3, 66, 0
6, 99104, Note_off_c, 3, 60, 0
6, 99104, Note_off_c, 3, 62, 0
6, 99104, Note_off_c, 3, 57, 0
6, 99360, Note_on_c, 3, 66, 80
6, 99360, Note_on_c, 3, 60, 80
6, 99360, Note_on_c, 3, 57, 80
6, 99360, Note_on_c, 3, 66, 80
6, 99360, Note_on_c, 3, 60, 80
6, 99360, Note_on_c, 3, 62, 80
6, 99360, Note_on_c, 3, 57, 80
6, 99488, Note_off_c, 3, 66, 0
6, 99488, Note_off_c, 3, 60, 0
6, 99488, Note_off_c, 3, 57, 0
6, 99488, Note_off_c, 3, 62, 0
6, 99740, Note_off_c, 3, 66, 0
6, 99740, Note_off_c, 3, 60, 0
6, 99740, Note_off_c, 3, 57, 0
6, 99744, Note_on_c, 3, 66, 80
6, 99744, Note_on_c, 3, 60, 80
6, 99744, Note_on_c, 3, 62, 80
6, 99744, Note_on_c, 3, 57, 80
6, 99872, Note_off_c, 3, 57, 0
6, 99872, Note_off_c, 3, 60, 0
6, 99872, Note_off_c, 3, 62, 0
6, 99872, Note_off_c, 3, 66, 0
6, 100128, Note_on_c, 3, 67, 80
6, 100128, Note_on_c, 3, 64, 80
6, 100128, Note_on_c, 3, 62, 80
6, 100128, Note_on_c, 3, 59, 80
6, 100256, Note_off_c, 3, 67, 0
6, 100256, Note_off_c, 3, 64, 0
6, 100256, Note_off_c, 3, 62, 0
6, 100256, Note_off_c, 3, 59, 0
6, 100512, Note_on_c, 3, 67, 80
6, 100512, Note_on_c, 3, 64, 80
6, 100512, Note_on_c, 3, 62, 80
6, 100512, Note_on_c, 3, 59, 80
6, 100640, Note_off_c, 3, 67, 0
6, 100640, Note_off_c, 3, 64, 0
6, 100640, Note_off_c, 3, 62, 0
6, 100640, Note_off_c, 3, 59, 0
6, 100896, Note_on_c, 3, 67, 80
6, 100896, Note_on_c, 3, 64, 80
6, 100896, Note_on_c, 3, 62, 80
6, 100896, Note_on_c, 3, 59, 80
6, 101024, Note_off_c, 3, 67, 0
6, 101024, Note_off_c, 3, 64, 0
6, 101024, Note_off_c, 3, 62, 0
6, 101024, Note_off_c, 3, 59, 0
6, 101280, Note_on_c, 3, 67, 80
6, 101280, Note_on_c, 3, 64, 80
6, 101280, Note_on_c, 3, 62, 80
6, 101280, Note_on_c, 3, 59, 80
6, 101376, Note_off_c, 3, 67, 0
6, 101376, Note_off_c, 3, 64, 0
6, 101376, Note_off_c, 3, 62, 0
6, 101376, Note_off_c, 3, 59, 0
6, 101664, Note_on_c, 3, 67, 80
6, 101664, Note_on_c, 3, 64, 80
6, 101664, Note_on_c, 3, 62, 80
6, 101664, Note_on_c, 3, 59, 80
6, 101792, Note_off_c, 3, 67, 0
6, 101792, Note_off_c, 3, 64, 0
6, 101792, Note_off_c, 3, 62, 0
6, 101792, Note_off_c, 3, 59, 0
6, 102048, Note_on_c, 3, 67, 80
6, 102048, Note_on_c, 3, 64, 80
6, 102048, Note_on_c, 3, 62, 80
6, 102048, Note_on_c, 3, 59, 80
6, 102176, Note_off_c, 3, 67, 0
6, 102176, Note_off_c, 3, 64, 0
6, 102176, Note_off_c, 3, 62, 0
6, 102176, Note_off_c, 3, 59, 0
6, 102432, Note_on_c, 3, 67, 80
6, 102432, Note_on_c, 3, 64, 80
6, 102432, Note_on_c, 3, 62, 80
6, 102432, Note_on_c, 3, 59, 80
6, 102560, Note_off_c, 3, 67, 0
6, 102560, Note_off_c, 3, 64, 0
6, 102560, Note_off_c, 3, 62, 0
6, 102560, Note_off_c, 3, 59, 0
6, 102816, Note_on_c, 3, 67, 80
6, 102816, Note_on_c, 3, 64, 80
6, 102816, Note_on_c, 3, 62, 80
6, 102816, Note_on_c, 3, 59, 80
6, 102912, Note_off_c, 3, 67, 0
6, 102912, Note_off_c, 3, 64, 0
6, 102912, Note_off_c, 3, 62, 0
6, 102912, Note_off_c, 3, 59, 0
6, 103200, Note_on_c, 3, 67, 79
6, 103200, Note_on_c, 3, 61, 79
6, 103200, Note_on_c, 3, 57, 79
6, 103328, Note_off_c, 3, 67, 0
6, 103328, Note_off_c, 3, 61, 0
6, 103328, Note_off_c, 3, 57, 0
6, 103584, Note_on_c, 3, 67, 78
6, 103584, Note_on_c, 3, 61, 78
6, 103584, Note_on_c, 3, 57, 78
6, 103712, Note_off_c, 3, 67, 0
6, 103712, Note_off_c, 3, 61, 0
6, 103712, Note_off_c, 3, 57, 0
6, 103968, Note_on_c, 3, 67, 76
6, 103968, Note_on_c, 3, 61, 76
6, 103968, Note_on_c, 3, 57, 76
6, 104096, Note_off_c, 3, 67, 0
6, 104096, Note_off_c, 3, 61, 0
6, 104096, Note_off_c, 3, 57, 0
6, 104352, Note_on_c, 3, 67, 74
6, 104352, Note_on_c, 3, 61, 74
6, 104352, Note_on_c, 3, 57, 74
6, 104416, Note_off_c, 3, 67, 0
6, 104416, Note_off_c, 3, 61, 0
6, 104416, Note_off_c, 3, 57, 0
6, 104736, Note_on_c, 3, 60, 72
6, 104736, Note_on_c, 3, 57, 72
6, 104736, Note_on_c, 3, 66, 72
6, 104736, Note_on_c, 3, 57, 72
6, 104736, Note_on_c, 3, 62, 72
6, 104864, Note_off_c, 3, 57, 0
6, 104864, Note_off_c, 3, 62, 0
6, 105116, Note_off_c, 3, 60, 0
6, 105116, Note_off_c, 3, 66, 0
6, 105116, Note_off_c, 3, 57, 0
6, 105120, Note_on_c, 3, 66, 71
6, 105120, Note_on_c, 3, 60, 71
6, 105120, Note_on_c, 3, 62, 71
6, 105120, Note_on_c, 3, 57, 71
6, 105248, Note_off_c, 3, 66, 0
6, 105248, Note_off_c, 3, 60, 0
6, 105248, Note_off_c, 3, 62, 0
6, 105248, Note_off_c, 3, 57, 0
6, 105504, Note_on_c, 3, 66, 69
6, 105504, Note_on_c, 3, 60, 69
6, 105504, Note_on_c, 3, 57, 69
6, 105504, Note_on_c, 3, 66, 69
6, 105504, Note_on_c, 3, 60, 69
6, 105504, Note_on_c, 3, 62, 69
6, 105504, Note_on_c, 3, 57, 69
6, 105632, Note_off_c, 3, 66, 0
6, 105632, Note_off_c, 3, 60, 0
6, 105632, Note_off_c, 3, 57, 0
6, 105632, Note_off_c, 3, 62, 0
6, 105884, Note_off_c, 3, 66, 0
6, 105884, Note_off_c, 3, 60, 0
6, 105884, Note_off_c, 3, 57, 0
6, 105888, Note_on_c, 3, 66, 67
6, 105888, Note_on_c, 3, 60, 67
6, 105888, Note_on_c, 3, 62, 67
6, 105888, Note_on_c, 3, 57, 67
6, 106016, Note_off_c, 3, 57, 0
6, 106016, Note_off_c, 3, 60, 0
6, 106016, Note_off_c, 3, 62, 0
6, 106016, Note_off_c, 3, 66, 0
6, 106272, Note_on_c, 3, 67, 66
6, 106272, Note_on_c, 3, 64, 66
6, 106272, Note_on_c, 3, 62, 66
6, 106272, Note_on_c, 3, 59, 66
6, 106400, Note_off_c, 3, 67, 0
6, 106400, Note_off_c, 3, 64, 0
6, 106400, Note_off_c, 3, 62, 0
6, 106400, Note_off_c, 3, 59, 0
6, 106656, Note_on_c, 3, 67, 64
6, 106656, Note_on_c, 3, 64, 64
6, 106656, Note_on_c, 3, 62, 64
6, 106656, Note_on_c, 3, 59, 64
6, 106784, Note_off_c, 3, 67, 0
6, 106784, Note_off_c, 3, 64, 0
6, 106784, Note_off_c, 3, 62, 0
6, 106784, Note_off_c, 3, 59, 0
6, 107040, Note_on_c, 3, 67, 62
6, 107040, Note_on_c, 3, 64, 62
6, 107040, Note_on_c, 3, 62, 62
6, 107040, Note_on_c, 3, 59, 62
6, 107168, Note_off_c, 3, 67, 0
6, 107168, Note_off_c, 3, 64, 0
6, 107168, Note_off_c, 3, 62, 0
6, 107168, Note_off_c, 3, 59, 0
6, 107424, Note_on_c, 3, 67, 60
6, 107424, Note_on_c, 3, 64, 60
6, 107424, Note_on_c, 3, 62, 60
6, 107424, Note_on_c, 3, 59, 60
6, 107552, Note_off_c, 3, 59, 0
6, 107552, Note_off_c, 3, 62, 0
6, 107552, Note_off_c, 3, 64, 0
6, 107552, Note_off_c, 3, 67, 0
6, 107808, Note_on_c, 3, 67, 59
6, 107808, Note_on_c, 3, 64, 59
6, 107808, Note_on_c, 3, 62, 59
6, 107808, Note_on_c, 3, 59, 59
6, 107936, Note_off_c, 3, 67, 0
6, 107936, Note_off_c, 3, 64, 0
6, 107936, Note_off_c, 3, 62, 0
6, 107936, Note_off_c, 3, 59, 0
6, 108192, Note_on_c, 3, 67, 57
6, 108192, Note_on_c, 3, 64, 57
6, 108192, Note_on_c, 3, 62, 57
6, 108192, Note_on_c, 3, 59, 57
6, 108320, Note_off_c, 3, 67, 0
6, 108320, Note_off_c, 3, 64, 0
6, 108320, Note_off_c, 3, 62, 0
6, 108320, Note_off_c, 3, 59, 0
6, 108576, Note_on_c, 3, 67, 55
6, 108576, Note_on_c, 3, 64, 55
6, 108576, Note_on_c, 3, 62, 55
6, 108576, Note_on_c, 3, 59, 55
6, 108704, Note_off_c, 3, 67, 0
6, 108704, Note_off_c, 3, 64, 0
6, 108704, Note_off_c, 3, 62, 0
6, 108704, Note_off_c, 3, 59, 0
6, 108960, Note_on_c, 3, 67, 54
6, 108960, Note_on_c, 3, 64, 54
6, 108960, Note_on_c, 3, 62, 54
6, 108960, Note_on_c, 3, 59, 54
6, 109088, Note_off_c, 3, 59, 0
6, 109088, Note_off_c, 3, 62, 0
6, 109088, Note_off_c, 3, 64, 0
6, 109088, Note_off_c, 3, 67, 0
6, 109344, Note_on_c, 3, 67, 52
6, 109344, Note_on_c, 3, 61, 52
6, 109344, Note_on_c, 3, 57, 52
6, 109472, Note_off_c, 3, 67, 0
6, 109472, Note_off_c, 3, 61, 0
6, 109472, Note_off_c, 3, 57, 0
6, 109728, Note_on_c, 3, 67, 50
6, 109728, Note_on_c, 3, 61, 50
6, 109728, Note_on_c, 3, 57, 50
6, 109856, Note_off_c, 3, 67, 0
6, 109856, Note_off_c, 3, 61, 0
6, 109856, Note_off_c, 3, 57, 0
6, 110112, Note_on_c, 3, 67, 49
6, 110112, Note_on_c, 3, 61, 49
6, 110112, Note_on_c, 3, 57, 49
6, 110240, Note_off_c, 3, 67, 0
6, 110240, Note_off_c, 3, 61, 0
6, 110240, Note_off_c, 3, 57, 0
6, 110496, Note_on_c, 3, 67, 47
6, 110496, Note_on_c, 3, 61, 47
6, 110496, Note_on_c, 3, 57, 47
6, 110560, Note_off_c, 3, 67, 0
6, 110560, Note_off_c, 3, 61, 0
6, 110560, Note_off_c, 3, 57, 0
6, 110880, Note_on_c, 3, 60, 45
6, 110880, Note_on_c, 3, 57, 45
6, 110880, Note_on_c, 3, 66, 45
6, 110880, Note_on_c, 3, 57, 45
6, 110880, Note_on_c, 3, 62, 45
6, 111008, Note_off_c, 3, 57, 0
6, 111008, Note_off_c, 3, 62, 0
6, 111260, Note_off_c, 3, 60, 0
6, 111260, Note_off_c, 3, 66, 0
6, 111260, Note_off_c, 3, 57, 0
6, 111264, Note_on_c, 3, 66, 43
6, 111264, Note_on_c, 3, 60, 43
6, 111264, Note_on_c, 3, 62, 43
6, 111264, Note_on_c, 3, 57, 43
6, 111392, Note_off_c, 3, 66, 0
6, 111392, Note_off_c, 3, 60, 0
6, 111392, Note_off_c, 3, 62, 0
6, 111392, Note_off_c, 3, 57, 0
6, 111648, Note_on_c, 3, 66, 42
6, 111648, Note_on_c, 3, 57, 42
6, 111648, Note_on_c, 3, 66, 42
6, 111648, Note_on_c, 3, 60, 42
6, 111648, Note_on_c, 3, 62, 42
6, 111648, Note_on_c, 3, 57, 42
6, 111776, Note_off_c, 3, 66, 0
6, 111776, Note_off_c, 3, 57, 0
6, 111776, Note_off_c, 3, 62, 0
6, 112028, Note_off_c, 3, 66, 0
6, 112028, Note_off_c, 3, 60, 0
6, 112028, Note_off_c, 3, 57, 0
6, 112032, Note_on_c, 3, 66, 40
6, 112032, Note_on_c, 3, 60, 40
6, 112032, Note_on_c, 3, 62, 40
6, 112032, Note_on_c, 3, 57, 40
6, 112160, Note_off_c, 3, 57, 0
6, 112160, Note_off_c, 3, 60, 0
6, 112160, Note_off_c, 3, 62, 0
6, 112160, Note_off_c, 3, 66, 0
6, 112416, Note_on_c, 3, 67, 38
6, 112416, Note_on_c, 3, 64, 38
6, 112416, Note_on_c, 3, 62, 38
6, 112416, Note_on_c, 3, 59, 38
6, 112544, Note_off_c, 3, 67, 0
6, 112544, Note_off_c, 3, 64, 0
6, 112544, Note_off_c, 3, 62, 0
6, 112544, Note_off_c, 3, 59, 0
6, 112800, Note_on_c, 3, 67, 37
6, 112800, Note_on_c, 3, 64, 37
6, 112800, Note_on_c, 3, 62, 37
6, 112800, Note_on_c, 3, 59, 37
6, 112928, Note_off_c, 3, 67, 0
6, 112928, Note_off_c, 3, 64, 0
6, 112928, Note_off_c, 3, 62, 0
6, 112928, Note_off_c, 3, 59, 0
6, 113184, Note_on_c, 3, 67, 35
6, 113184, Note_on_c, 3, 64, 35
6, 113184, Note_on_c, 3, 62, 35
6, 113184, Note_on_c, 3, 59, 35
6, 113312, Note_off_c, 3, 67, 0
6, 113312, Note_off_c, 3, 64, 0
6, 113312, Note_off_c, 3, 62, 0
6, 113312, Note_off_c, 3, 59, 0
6, 113568, Note_on_c, 3, 67, 33
6, 113568, Note_on_c, 3, 64, 33
6, 113568, Note_on_c, 3, 62, 33
6, 113568, Note_on_c, 3, 59, 33
6, 113664, Note_off_c, 3, 67, 0
6, 113664, Note_off_c, 3, 64, 0
6, 113664, Note_off_c, 3, 62, 0
6, 113664, Note_off_c, 3, 59, 0
6, 113952, Note_on_c, 3, 67, 31
6, 113952, Note_on_c, 3, 64, 31
6, 113952, Note_on_c, 3, 62, 31
6, 113952, Note_on_c, 3, 59, 31
6, 114080, Note_off_c, 3, 67, 0
6, 114080, Note_off_c, 3, 64, 0
6, 114080, Note_off_c, 3, 62, 0
6, 114080, Note_off_c, 3, 59, 0
6, 114336, Note_on_c, 3, 67, 30
6, 114336, Note_on_c, 3, 64, 30
6, 114336, Note_on_c, 3, 62, 30
6, 114336, Note_on_c, 3, 59, 30
6, 114464, Note_off_c, 3, 67, 0
6, 114464, Note_off_c, 3, 64, 0
6, 114464, Note_off_c, 3, 62, 0
6, 114464, Note_off_c, 3, 59, 0
6, 114720, Note_on_c, 3, 67, 28
6, 114720, Note_on_c, 3, 64, 28
6, 114720, Note_on_c, 3, 62, 28
6, 114720, Note_on_c, 3, 59, 28
6, 114848, Note_off_c, 3, 67, 0
6, 114848, Note_off_c, 3, 64, 0
6, 114848, Note_off_c, 3, 62, 0
6, 114848, Note_off_c, 3, 59, 0
6, 115104, Note_on_c, 3, 67, 26
6, 115104, Note_on_c, 3, 64, 26
6, 115104, Note_on_c, 3, 62, 26
6, 115104, Note_on_c, 3, 59, 26
6, 115232, Note_off_c, 3, 59, 0
6, 115232, Note_off_c, 3, 62, 0
6, 115232, Note_off_c, 3, 64, 0
6, 115232, Note_off_c, 3, 67, 0
6, 115488, Note_on_c, 3, 67, 25
6, 115488, Note_on_c, 3, 61, 25
6, 115488, Note_on_c, 3, 57, 25
6, 115616, Note_off_c, 3, 67, 0
6, 115616, Note_off_c, 3, 61, 0
6, 115616, Note_off_c, 3, 57, 0
6, 115872, Note_on_c, 3, 67, 23
6, 115872, Note_on_c, 3, 61, 23
6, 115872, Note_on_c, 3, 57, 23
6, 116000, Note_off_c, 3, 67, 0
6, 116000, Note_off_c, 3, 61, 0
6, 116000, Note_off_c, 3, 57, 0
6, 116256, Note_on_c, 3, 67, 21
6, 116256, Note_on_c, 3, 61, 21
6, 116256, Note_on_c, 3, 57, 21
6, 116384, Note_off_c, 3, 67, 0
6, 116384, Note_off_c, 3, 61, 0
6, 116384, Note_off_c, 3, 57, 0
6, 116640, Note_on_c, 3, 67, 20
6, 116640, Note_on_c, 3, 61, 20
6, 116640, Note_on_c, 3, 57, 20
6, 116704, Note_off_c, 3, 67, 0
6, 116704, Note_off_c, 3, 61, 0
6, 116704, Note_off_c, 3, 57, 0
6, 117024, Note_on_c, 3, 60, 18
6, 117024, Note_on_c, 3, 57, 18
6, 117024, Note_on_c, 3, 66, 18
6, 117024, Note_on_c, 3, 57, 18
6, 117024, Note_on_c, 3, 62, 18
6, 117152, Note_off_c, 3, 57, 0
6, 117152, Note_off_c, 3, 62, 0
6, 117404, Note_off_c, 3, 60, 0
6, 117404, Note_off_c, 3, 66, 0
6, 117404, Note_off_c, 3, 57, 0
6, 117408, Note_on_c, 3, 66, 16
6, 117408, Note_on_c, 3, 60, 16
6, 117408, Note_on_c, 3, 62, 16
6, 117408, Note_on_c, 3, 57, 16
6, 117536, Note_off_c, 3, 66, 0
6, 117536, Note_off_c, 3, 60, 0
6, 117536, Note_off_c, 3, 62, 0
6, 117536, Note_off_c, 3, 57, 0
6, 117792, Note_on_c, 3, 66, 14
6, 117792, Note_on_c, 3, 60, 14
6, 117792, Note_on_c, 3, 57, 14
6, 117792, Note_on_c, 3, 66, 14
6, 117792, Note_on_c, 3, 60, 14
6, 117792, Note_on_c, 3, 62, 14
6, 117792, Note_on_c, 3, 57, 14
6, 117920, Note_off_c, 3, 66, 0
6, 117920, Note_off_c, 3, 60, 0
6, 117920, Note_off_c, 3, 57, 0
6, 117920, Note_off_c, 3, 62, 0
6, 118172, Note_off_c, 3, 66, 0
6, 118172, Note_off_c, 3, 60, 0
6, 118172, Note_off_c, 3, 57, 0
6, 118176, Note_on_c, 3, 66, 13
6, 118176, Note_on_c, 3, 60, 13
6, 118176, Note_on_c, 3, 62, 13
6, 118176, Note_on_c, 3, 57, 13
6, 118304, Note_off_c, 3, 57, 0
6, 118304, Note_off_c, 3, 60, 0
6, 118304, Note_off_c, 3, 62, 0
6, 118304, Note_off_c, 3, 66, 0
6, 118560, Note_on_c, 3, 67, 11
6, 118560, Note_on_c, 3, 64, 11
6, 118560, Note_on_c, 3, 62, 11
6, 118560, Note_on_c, 3, 59, 11
6, 118688, Note_off_c, 3, 67, 0
6, 118688, Note_off_c, 3, 64, 0
6, 118688, Note_off_c, 3, 62, 0
6, 118688, Note_off_c, 3, 59, 0
6, 118944, Note_on_c, 3, 67, 9
6, 118944, Note_on_c, 3, 64, 9
6, 118944, Note_on_c, 3, 62, 9
6, 118944, Note_on_c, 3, 59, 9
6, 119072, Note_off_c, 3, 67, 0
6, 119072, Note_off_c, 3, 64, 0
6, 119072, Note_off_c, 3, 62, 0
6, 119072, Note_off_c, 3, 59, 0
6, 119328, Note_on_c, 3, 67, 8
6, 119328, Note_on_c, 3, 64, 8
6, 119328, Note_on_c, 3, 62, 8
6, 119328, Note_on_c, 3, 59, 8
6, 119456, Note_off_c, 3, 67, 0
6, 119456, Note_off_c, 3, 64, 0
6, 119456, Note_off_c, 3, 62, 0
6, 119456, Note_off_c, 3, 59, 0
6, 119712, Note_on_c, 3, 67, 6
6, 119712, Note_on_c, 3, 64, 6
6, 119712, Note_on_c, 3, 62, 6
6, 119712, Note_on_c, 3, 59, 6
6, 119808, Note_off_c, 3, 67, 0
6, 119808, Note_off_c, 3, 64, 0
6, 119808, Note_off_c, 3, 62, 0
6, 119808, Note_off_c, 3, 59, 0
6, 119808, End_track
7, 0, Start_track
7, 0, Title_t, "Piano"
7, 0, Control_c, 3, 0, 0
7, 0, Program_c, 3, 0
7, 0, Control_c, 3, 7, 110
7, 0, Control_c, 3, 10, 105
7, 0, Key_signature, 0, "major"
7, 1536, Note_on_c, 3, 45, 100
7, 1916, Note_off_c, 3, 45, 0
7, 1920, Note_on_c, 3, 48, 100
7, 2300, Note_off_c, 3, 48, 0
7, 2304, Note_on_c, 3, 52, 100
7, 2684, Note_off_c, 3, 52, 0
7, 2688, Note_on_c, 3, 48, 100
7, 3068, Note_off_c, 3, 48, 0
7, 3072, Note_on_c, 3, 38, 100
7, 3072, Note_on_c, 3, 50, 100
7, 3452, Note_off_c, 3, 38, 0
7, 3452, Note_off_c, 3, 50, 0
7, 3456, Note_on_c, 3, 42, 100
7, 3456, Note_on_c, 3, 54, 100
7, 3836, Note_off_c, 3, 42, 0
7, 3836, Note_off_c, 3, 54, 0
7, 3840, Note_on_c, 3, 45, 100
7, 3840, Note_on_c, 3, 57, 100
7, 4220, Note_off_c, 3, 45, 0
7, 4220, Note_off_c, 3, 57, 0
7, 4224, Note_on_c, 3, 42, 100
7, 4224, Note_on_c, 3, 54, 100
7, 4604, Note_off_c, 3, 42, 0
7, 4604, Note_off_c, 3, 54, 0
7, 4608, Note_on_c, 3, 43, 100
7, 4608, Note_on_c, 3, 55, 100
7, 4988, Note_off_c, 3, 43, 0
7, 4988, Note_off_c, 3, 55, 0
7, 4992, Note_on_c, 3, 40, 100
7, 4992, Note_on_c, 3, 52, 100
7, 5372, Note_off_c, 3, 40, 0
7, 5372, Note_off_c, 3, 52, 0
7, 5376, Note_on_c, 3, 38, 100
7, 5376, Note_on_c, 3, 50, 100
7, 5756, Note_off_c, 3, 38, 0
7, 5756, Note_off_c, 3, 50, 0
7, 5760, Note_on_c, 3, 35, 100
7, 5760, Note_on_c, 3, 47, 100
7, 6140, Note_off_c, 3, 35, 0
7, 6140, Note_off_c, 3, 47, 0
7, 6144, Note_on_c, 3, 43, 100
7, 6524, Note_off_c, 3, 43, 0
7, 6528, Note_on_c, 3, 35, 100
7, 6908, Note_off_c, 3, 35, 0
7, 6912, Note_on_c, 3, 38, 100
7, 7292, Note_off_c, 3, 38, 0
7, 7296, Note_on_c, 3, 40, 100
7, 7676, Note_off_c, 3, 40, 0
7, 7680, Note_on_c, 3, 43, 100
7, 8060, Note_off_c, 3, 43, 0
7, 8064, Note_on_c, 3, 47, 100
7, 8444, Note_off_c, 3, 47, 0
7, 8448, Note_on_c, 3, 50, 100
7, 8828, Note_off_c, 3, 50, 0
7, 8832, Note_on_c, 3, 47, 100
7, 9212, Note_off_c, 3, 47, 0
7, 9216, Note_on_c, 3, 48, 100
7, 9596, Note_off_c, 3, 48, 0
7, 9600, Note_on_c, 3, 52, 100
7, 9980, Note_off_c, 3, 52, 0
7, 9984, Note_on_c, 3, 55, 100
7, 10364, Note_off_c, 3, 55, 0
7, 10368, Note_on_c, 3, 52, 100
7, 10748, Note_off_c, 3, 52, 0
7, 10752, Note_on_c, 3, 43, 100
7, 11132, Note_off_c, 3, 43, 0
7, 11136, Note_on_c, 3, 47, 100
7, 11516, Note_off_c, 3, 47, 0
7, 11520, Note_on_c, 3, 50, 100
7, 11900, Note_off_c, 3, 50, 0
7, 11904, Note_on_c, 3, 47, 100
7, 12284, Note_off_c, 3, 47, 0
7, 12288, Note_on_c, 3, 50, 100
7, 12668, Note_off_c, 3, 50, 0
7, 12672, Note_on_c, 3, 54, 100
7, 13052, Note_off_c, 3, 54, 0
7, 13056, Note_on_c, 3, 57, 100
7, 13436, Note_off_c, 3, 57, 0
7, 13440, Note_on_c, 3, 54, 100
7, 13820, Note_off_c, 3, 54, 0
7, 13824, Note_on_c, 3, 43, 100
7, 14204, Note_off_c, 3, 43, 0
7, 14208, Note_on_c, 3, 43, 100
7, 14588, Note_off_c, 3, 43, 0
7, 14592, Note_on_c, 3, 45, 100
7, 14972, Note_off_c, 3, 45, 0
7, 14976, Note_on_c, 3, 47, 100
7, 15356, Note_off_c, 3, 47, 0
7, 15360, Note_on_c, 3, 48, 100
7, 15740, Note_off_c, 3, 48, 0
7, 15744, Note_on_c, 3, 52, 100
7, 16124, Note_off_c, 3, 52, 0
7, 16128, Note_on_c, 3, 55, 100
7, 16508, Note_off_c, 3, 55, 0
7, 16512, Note_on_c, 3, 52, 100
7, 16892, Note_off_c, 3, 52, 0
7, 16896, Note_on_c, 3, 50, 100
7, 17276, Note_off_c, 3, 50, 0
7, 17280, Note_on_c, 3, 54, 100
7, 17660, Note_off_c, 3, 54, 0
7, 17664, Note_on_c, 3, 57, 100
7, 18044, Note_off_c, 3, 57, 0
7, 18048, Note_on_c, 3, 54, 100
7, 18428, Note_off_c, 3, 54, 0
7, 18432, Note_on_c, 3, 55, 100
7, 19004, Note_off_c, 3, 55, 0
7, 19968, Note_on_c, 3, 38, 100
7, 20348, Note_off_c, 3, 38, 0
7, 20352, Note_on_c, 3, 42, 100
7, 20732, Note_off_c, 3, 42, 0
7, 20736, Note_on_c, 3, 45, 100
7, 21116, Note_off_c, 3, 45, 0
7, 21120, Note_on_c, 3, 42, 100
7, 21500, Note_off_c, 3, 42, 0
7, 21504, Note_on_c, 3, 38, 100
7, 21884, Note_off_c, 3, 38, 0
7, 21888, Note_on_c, 3, 38, 100
7, 22268, Note_off_c, 3, 38, 0
7, 22272, Note_on_c, 3, 40, 100
7, 22652, Note_off_c, 3, 40, 0
7, 22656, Note_on_c, 3, 42, 100
7, 23036, Note_off_c, 3, 42, 0
7, 23040, Note_on_c, 3, 43, 100
7, 23420, Note_off_c, 3, 43, 0
7, 23424, Note_on_c, 3, 40, 100
7, 23804, Note_off_c, 3, 40, 0
7, 23808, Note_on_c, 3, 38, 100
7, 24188, Note_off_c, 3, 38, 0
7, 24192, Note_on_c, 3, 35, 100
7, 24572, Note_off_c, 3, 35, 0
7, 24576, Note_on_c, 3, 31, 100
7, 24956, Note_off_c, 3, 31, 0
7, 24960, Note_on_c, 3, 31, 100
7, 25216, Note_off_c, 3, 31, 0
7, 25344, Note_on_c, 3, 35, 100
7, 25600, Note_off_c, 3, 35, 0
7, 25728, Note_on_c, 3, 36, 100
7, 25984, Note_off_c, 3, 36, 0
7, 26112, Note_on_c, 3, 38, 100
7, 26492, Note_off_c, 3, 38, 0
7, 26496, Note_on_c, 3, 42, 100
7, 26876, Note_off_c, 3, 42, 0
7, 26880, Note_on_c, 3, 45, 100
7, 27260, Note_off_c, 3, 45, 0
7, 27264, Note_on_c, 3, 42, 100
7, 27644, Note_off_c, 3, 42, 0
7, 27648, Note_on_c, 3, 38, 100
7, 28028, Note_off_c, 3, 38, 0
7, 28032, Note_on_c, 3, 38, 100
7, 28412, Note_off_c, 3, 38, 0
7, 28416, Note_on_c, 3, 40, 100
7, 28796, Note_off_c, 3, 40, 0
7, 28800, Note_on_c, 3, 42, 100
7, 29180, Note_off_c, 3, 42, 0
7, 29184, Note_on_c, 3, 45, 100
7, 29564, Note_off_c, 3, 45, 0
7, 29568, Note_on_c, 3, 49, 100
7, 29948, Note_off_c, 3, 49, 0
7, 29952, Note_on_c, 3, 52, 100
7, 30332, Note_off_c, 3, 52, 0
7, 30336, Note_on_c, 3, 49, 100
7, 30716, Note_off_c, 3, 49, 0
7, 30720, Note_on_c, 3, 38, 100
7, 30720, Note_on_c, 3, 50, 100
7, 31100, Note_off_c, 3, 38, 0
7, 31100, Note_off_c, 3, 50, 0
7, 31104, Note_on_c, 3, 42, 100
7, 31104, Note_on_c, 3, 54, 100
7, 31484, Note_off_c, 3, 42, 0
7, 31484, Note_off_c, 3, 54, 0
7, 31488, Note_on_c, 3, 45, 100
7, 31488, Note_on_c, 3, 57, 100
7, 31868, Note_off_c, 3, 45, 0
7, 31868, Note_off_c, 3, 57, 0
7, 31872, Note_on_c, 3, 42, 100
7, 31872, Note_on_c, 3, 54, 100
7, 32252, Note_off_c, 3, 42, 0
7, 32252, Note_off_c, 3, 54, 0
7, 32256, Note_on_c, 3, 43, 100
7, 32256, Note_on_c, 3, 55, 100
7, 32636, Note_off_c, 3, 43, 0
7, 32636, Note_off_c, 3, 55, 0
7, 32640, Note_on_c, 3, 40, 100
7, 32640, Note_on_c, 3, 52, 100
7, 33020, Note_off_c, 3, 40, 0
7, 33020, Note_off_c, 3, 52, 0
7, 33024, Note_on_c, 3, 38, 100
7, 33024, Note_on_c, 3, 50, 100
7, 33404, Note_off_c, 3, 38, 0
7, 33404, Note_off_c, 3, 50, 0
7, 33408, Note_on_c, 3, 35, 100
7, 33408, Note_on_c, 3, 47, 100
7, 33788, Note_off_c, 3, 35, 0
7, 33788, Note_off_c, 3, 47, 0
7, 33792, Note_on_c, 3, 31, 100
7, 34172, Note_off_c, 3, 31, 0
7, 34176, Note_on_c, 3, 31, 100
7, 34432, Note_off_c, 3, 31, 0
7, 34560, Note_on_c, 3, 35, 100
7, 34816, Note_off_c, 3, 35, 0
7, 34944, Note_on_c, 3, 36, 100
7, 35200, Note_off_c, 3, 36, 0
7, 35328, Note_on_c, 3, 43, 100
7, 35708, Note_off_c, 3, 43, 0
7, 35712, Note_on_c, 3, 47, 100
7, 36092, Note_off_c, 3, 47, 0
7, 36096, Note_on_c, 3, 50, 100
7, 36476, Note_off_c, 3, 50, 0
7, 36480, Note_on_c, 3, 47, 100
7, 36860, Note_off_c, 3, 47, 0
7, 36864, Note_on_c, 3, 48, 100
7, 37244, Note_off_c, 3, 48, 0
7, 37248, Note_on_c, 3, 52, 100
7, 37628, Note_off_c, 3, 52, 0
7, 37632, Note_on_c, 3, 55, 100
7, 38012, Note_off_c, 3, 55, 0
7, 38016, Note_on_c, 3, 52, 100
7, 38396, Note_off_c, 3, 52, 0
7, 38400, Note_on_c, 3, 43, 100
7, 38780, Note_off_c, 3, 43, 0
7, 38784, Note_on_c, 3, 47, 100
7, 39164, Note_off_c, 3, 47, 0
7, 39168, Note_on_c, 3, 50, 100
7, 39548, Note_off_c, 3, 50, 0
7, 39552, Note_on_c, 3, 47, 100
7, 39932, Note_off_c, 3, 47, 0
7, 39936, Note_on_c, 3, 50, 100
7, 40316, Note_off_c, 3, 50, 0
7, 40320, Note_on_c, 3, 54, 100
7, 40700, Note_off_c, 3, 54, 0
7, 40704, Note_on_c, 3, 57, 100
7, 41084, Note_off_c, 3, 57, 0
7, 41088, Note_on_c, 3, 54, 100
7, 41468, Note_off_c, 3, 54, 0
7, 41472, Note_on_c, 3, 43, 100
7, 41852, Note_off_c, 3, 43, 0
7, 41856, Note_on_c, 3, 43, 100
7, 42236, Note_off_c, 3, 43, 0
7, 42240, Note_on_c, 3, 45, 100
7, 42620, Note_off_c, 3, 45, 0
7, 42624, Note_on_c, 3, 47, 100
7, 43004, Note_off_c, 3, 47, 0
7, 43008, Note_on_c, 3, 48, 100
7, 43388, Note_off_c, 3, 48, 0
7, 43392, Note_on_c, 3, 52, 100
7, 43772, Note_off_c, 3, 52, 0
7, 43776, Note_on_c, 3, 55, 100
7, 44156, Note_off_c, 3, 55, 0
7, 44160, Note_on_c, 3, 52, 100
7, 44540, Note_off_c, 3, 52, 0
7, 44544, Note_on_c, 3, 50, 100
7, 44924, Note_off_c, 3, 50, 0
7, 44928, Note_on_c, 3, 54, 100
7, 45308, Note_off_c, 3, 54, 0
7, 45312, Note_on_c, 3, 57, 100
7, 45692, Note_off_c, 3, 57, 0
7, 45696, Note_on_c, 3, 54, 100
7, 46076, Note_off_c, 3, 54, 0
7, 46080, Note_on_c, 3, 55, 100
7, 46652, Note_off_c, 3, 55, 0
7, 47616, Note_on_c, 3, 38, 100
7, 47996, Note_off_c, 3, 38, 0
7, 48000, Note_on_c, 3, 42, 100
7, 48380, Note_off_c, 3, 42, 0
7, 48384, Note_on_c, 3, 45, 100
7, 48764, Note_off_c, 3, 45, 0
7, 48768, Note_on_c, 3, 42, 100
7, 49148, Note_off_c, 3, 42, 0
7, 49152, Note_on_c, 3, 38, 100
7, 49532, Note_off_c, 3, 38, 0
7, 49536, Note_on_c, 3, 38, 100
7, 49916, Note_off_c, 3, 38, 0
7, 49920, Note_on_c, 3, 40, 100
7, 50300, Note_off_c, 3, 40, 0
7, 50304, Note_on_c, 3, 42, 100
7, 50684, Note_off_c, 3, 42, 0
7, 50688, Note_on_c, 3, 43, 100
7, 51068, Note_off_c, 3, 43, 0
7, 51072, Note_on_c, 3, 40, 100
7, 51452, Note_off_c, 3, 40, 0
7, 51456, Note_on_c, 3, 38, 100
7, 51836, Note_off_c, 3, 38, 0
7, 51840, Note_on_c, 3, 35, 100
7, 52220, Note_off_c, 3, 35, 0
7, 52224, Note_on_c, 3, 31, 100
7, 52604, Note_off_c, 3, 31, 0
7, 52608, Note_on_c, 3, 31, 100
7, 52896, Note_on_c, 3, 31, 100
7, 52988, Note_off_c, 3, 31, 0
7, 52992, Note_on_c, 3, 35, 100
7, 53084, Note_off_c, 3, 31, 0
7, 53248, Note_off_c, 3, 35, 0
7, 53376, Note_on_c, 3, 36, 100
7, 53632, Note_off_c, 3, 36, 0
7, 53760, Note_on_c, 3, 38, 100
7, 54140, Note_off_c, 3, 38, 0
7, 54144, Note_on_c, 3, 42, 100
7, 54524, Note_off_c, 3, 42, 0
7, 54528, Note_on_c, 3, 45, 100
7, 54908, Note_off_c, 3, 45, 0
7, 54912, Note_on_c, 3, 42, 100
7, 55292, Note_off_c, 3, 42, 0
7, 55296, Note_on_c, 3, 38, 100
7, 55676, Note_off_c, 3, 38, 0
7, 55680, Note_on_c, 3, 38, 100
7, 56060, Note_off_c, 3, 38, 0
7, 56064, Note_on_c, 3, 40, 100
7, 56444, Note_off_c, 3, 40, 0
7, 56448, Note_on_c, 3, 42, 100
7, 56828, Note_off_c, 3, 42, 0
7, 56832, Note_on_c, 3, 45, 100
7, 57212, Note_off_c, 3, 45, 0
7, 57216, Note_on_c, 3, 49, 100
7, 57596, Note_off_c, 3, 49, 0
7, 57600, Note_on_c, 3, 52, 100
7, 57980, Note_off_c, 3, 52, 0
7, 57984, Note_on_c, 3, 49, 100
7, 58364, Note_off_c, 3, 49, 0
7, 58368, Note_on_c, 3, 38, 100
7, 58368, Note_on_c, 3, 50, 100
7, 58748, Note_off_c, 3, 38, 0
7, 58748, Note_off_c, 3, 50, 0
7, 58752, Note_on_c, 3, 42, 100
7, 58752, Note_on_c, 3, 54, 100
7, 59132, Note_off_c, 3, 42, 0
7, 59132, Note_off_c, 3, 54, 0
7, 59136, Note_on_c, 3, 45, 100
7, 59136, Note_on_c, 3, 57, 100
7, 59516, Note_off_c, 3, 45, 0
7, 59516, Note_off_c, 3, 57, 0
7, 59520, Note_on_c, 3, 42, 100
7, 59520, Note_on_c, 3, 54, 100
7, 59900, Note_off_c, 3, 42, 0
7, 59900, Note_off_c, 3, 54, 0
7, 59904, Note_on_c, 3, 43, 100
7, 59904, Note_on_c, 3, 55, 100
7, 60284, Note_off_c, 3, 43, 0
7, 60284, Note_off_c, 3, 55, 0
7, 60288, Note_on_c, 3, 40, 100
7, 60288, Note_on_c, 3, 52, 100
7, 60668, Note_off_c, 3, 40, 0
7, 60668, Note_off_c, 3, 52, 0
7, 60672, Note_on_c, 3, 38, 100
7, 60672, Note_on_c, 3, 50, 100
7, 61052, Note_off_c, 3, 38, 0
7, 61052, Note_off_c, 3, 50, 0
7, 61056, Note_on_c, 3, 35, 100
7, 61056, Note_on_c, 3, 47, 100
7, 61436, Note_off_c, 3, 35, 0
7, 61436, Note_off_c, 3, 47, 0
7, 61440, Note_on_c, 3, 43, 100
7, 61820, Note_off_c, 3, 43, 0
7, 61824, Note_on_c, 3, 35, 100
7, 62204, Note_off_c, 3, 35, 0
7, 62208, Note_on_c, 3, 38, 100
7, 62588, Note_off_c, 3, 38, 0
7, 62592, Note_on_c, 3, 40, 100
7, 62972, Note_off_c, 3, 40, 0
7, 62976, Note_on_c, 3, 45, 100
7, 63356, Note_off_c, 3, 45, 0
7, 63360, Note_on_c, 3, 49, 100
7, 63740, Note_off_c, 3, 49, 0
7, 63744, Note_on_c, 3, 52, 100
7, 64124, Note_off_c, 3, 52, 0
7, 64128, Note_on_c, 3, 49, 100
7, 64508, Note_off_c, 3, 49, 0
7, 64512, Note_on_c, 3, 38, 100
7, 64512, Note_on_c, 3, 50, 100
7, 64892, Note_off_c, 3, 38, 0
7, 64892, Note_off_c, 3, 50, 0
7, 64896, Note_on_c, 3, 42, 100
7, 64896, Note_on_c, 3, 54, 100
7, 65276, Note_off_c, 3, 42, 0
7, 65276, Note_off_c, 3, 54, 0
7, 65280, Note_on_c, 3, 45, 100
7, 65280, Note_on_c, 3, 57, 100
7, 65660, Note_off_c, 3, 45, 0
7, 65660, Note_off_c, 3, 57, 0
7, 65664, Note_on_c, 3, 42, 100
7, 65664, Note_on_c, 3, 54, 100
7, 66044, Note_off_c, 3, 42, 0
7, 66044, Note_off_c, 3, 54, 0
7, 66048, Note_on_c, 3, 43, 100
7, 66048, Note_on_c, 3, 55, 100
7, 66428, Note_off_c, 3, 43, 0
7, 66428, Note_off_c, 3, 55, 0
7, 66432, Note_on_c, 3, 40, 100
7, 66432, Note_on_c, 3, 52, 100
7, 66812, Note_off_c, 3, 40, 0
7, 66812, Note_off_c, 3, 52, 0
7, 66816, Note_on_c, 3, 38, 100
7, 66816, Note_on_c, 3, 50, 100
7, 67196, Note_off_c, 3, 38, 0
7, 67196, Note_off_c, 3, 50, 0
7, 67200, Note_on_c, 3, 35, 100
7, 67200, Note_on_c, 3, 47, 100
7, 67580, Note_off_c, 3, 35, 0
7, 67580, Note_off_c, 3, 47, 0
7, 67584, Note_on_c, 3, 31, 100
7, 67964, Note_off_c, 3, 31, 0
7, 67968, Note_on_c, 3, 31, 100
7, 68224, Note_off_c, 3, 31, 0
7, 68352, Note_on_c, 3, 35, 100
7, 68608, Note_off_c, 3, 35, 0
7, 68736, Note_on_c, 3, 36, 100
7, 68992, Note_off_c, 3, 36, 0
7, 69120, Note_on_c, 3, 45, 100
7, 69500, Note_off_c, 3, 45, 0
7, 69504, Note_on_c, 3, 49, 100
7, 69884, Note_off_c, 3, 49, 0
7, 69888, Note_on_c, 3, 52, 100
7, 70268, Note_off_c, 3, 52, 0
7, 70272, Note_on_c, 3, 49, 100
7, 70652, Note_off_c, 3, 49, 0
7, 70656, Note_on_c, 3, 38, 100
7, 70656, Note_on_c, 3, 50, 100
7, 71036, Note_off_c, 3, 38, 0
7, 71036, Note_off_c, 3, 50, 0
7, 71040, Note_on_c, 3, 42, 100
7, 71040, Note_on_c, 3, 54, 100
7, 71420, Note_off_c, 3, 42, 0
7, 71420, Note_off_c, 3, 54, 0
7, 71424, Note_on_c, 3, 45, 100
7, 71424, Note_on_c, 3, 57, 100
7, 71804, Note_off_c, 3, 45, 0
7, 71804, Note_off_c, 3, 57, 0
7, 71808, Note_on_c, 3, 42, 100
7, 71808, Note_on_c, 3, 54, 100
7, 72188, Note_off_c, 3, 42, 0
7, 72188, Note_off_c, 3, 54, 0
7, 72192, Note_on_c, 3, 43, 100
7, 72192, Note_on_c, 3, 55, 100
7, 72572, Note_off_c, 3, 43, 0
7, 72572, Note_off_c, 3, 55, 0
7, 72576, Note_on_c, 3, 40, 100
7, 72576, Note_on_c, 3, 52, 100
7, 72956, Note_off_c, 3, 40, 0
7, 72956, Note_off_c, 3, 52, 0
7, 72960, Note_on_c, 3, 38, 100
7, 72960, Note_on_c, 3, 50, 100
7, 73340, Note_off_c, 3, 38, 0
7, 73340, Note_off_c, 3, 50, 0
7, 73344, Note_on_c, 3, 35, 100
7, 73344, Note_on_c, 3, 47, 100
7, 73724, Note_off_c, 3, 35, 0
7, 73724, Note_off_c, 3, 47, 0
7, 73728, Note_on_c, 3, 43, 100
7, 74108, Note_off_c, 3, 43, 0
7, 74112, Note_on_c, 3, 35, 100
7, 74492, Note_off_c, 3, 35, 0
7, 74496, Note_on_c, 3, 38, 100
7, 74876, Note_off_c, 3, 38, 0
7, 74880, Note_on_c, 3, 40, 100
7, 75260, Note_off_c, 3, 40, 0
7, 75264, Note_on_c, 3, 43, 100
7, 75644, Note_off_c, 3, 43, 0
7, 75648, Note_on_c, 3, 47, 100
7, 76028, Note_off_c, 3, 47, 0
7, 76032, Note_on_c, 3, 50, 100
7, 76412, Note_off_c, 3, 50, 0
7, 76416, Note_on_c, 3, 47, 100
7, 76796, Note_off_c, 3, 47, 0
7, 76800, Note_on_c, 3, 48, 100
7, 77180, Note_off_c, 3, 48, 0
7, 77184, Note_on_c, 3, 52, 100
7, 77564, Note_off_c, 3, 52, 0
7, 77568, Note_on_c, 3, 55, 100
7, 77948, Note_off_c, 3, 55, 0
7, 77952, Note_on_c, 3, 52, 100
7, 78332, Note_off_c, 3, 52, 0
7, 78336, Note_on_c, 3, 43, 100
7, 78716, Note_off_c, 3, 43, 0
7, 78720, Note_on_c, 3, 47, 100
7, 79100, Note_off_c, 3, 47, 0
7, 79104, Note_on_c, 3, 50, 100
7, 79484, Note_off_c, 3, 50, 0
7, 79488, Note_on_c, 3, 47, 100
7, 79868, Note_off_c, 3, 47, 0
7, 79872, Note_on_c, 3, 50, 100
7, 80252, Note_off_c, 3, 50, 0
7, 80256, Note_on_c, 3, 54, 100
7, 80636, Note_off_c, 3, 54, 0
7, 80640, Note_on_c, 3, 57, 100
7, 81020, Note_off_c, 3, 57, 0
7, 81024, Note_on_c, 3, 54, 100
7, 81404, Note_off_c, 3, 54, 0
7, 81408, Note_on_c, 3, 43, 100
7, 81788, Note_off_c, 3, 43, 0
7, 81792, Note_on_c, 3, 43, 100
7, 82172, Note_off_c, 3, 43, 0
7, 82176, Note_on_c, 3, 45, 100
7, 82556, Note_off_c, 3, 45, 0
7, 82560, Note_on_c, 3, 47, 100
7, 82940, Note_off_c, 3, 47, 0
7, 82944, Note_on_c, 3, 48, 100
7, 83324, Note_off_c, 3, 48, 0
7, 83328, Note_on_c, 3, 52, 100
7, 83708, Note_off_c, 3, 52, 0
7, 83712, Note_on_c, 3, 55, 100
7, 84092, Note_off_c, 3, 55, 0
7, 84096, Note_on_c, 3, 52, 100
7, 84476, Note_off_c, 3, 52, 0
7, 84480, Note_on_c, 3, 50, 100
7, 84860, Note_off_c, 3, 50, 0
7, 84864, Note_on_c, 3, 54, 100
7, 85244, Note_off_c, 3, 54, 0
7, 85248, Note_on_c, 3, 57, 100
7, 85628, Note_off_c, 3, 57, 0
7, 85632, Note_on_c, 3, 54, 100
7, 86012, Note_off_c, 3, 54, 0
7, 86016, Note_on_c, 3, 55, 100
7, 86588, Note_off_c, 3, 55, 0
7, 87552, Note_on_c, 3, 38, 100
7, 87932, Note_off_c, 3, 38, 0
7, 87936, Note_on_c, 3, 42, 100
7, 88316, Note_off_c, 3, 42, 0
7, 88320, Note_on_c, 3, 45, 100
7, 88700, Note_off_c, 3, 45, 0
7, 88704, Note_on_c, 3, 42, 100
7, 89084, Note_off_c, 3, 42, 0
7, 89088, Note_on_c, 3, 38, 100
7, 89468, Note_off_c, 3, 38, 0
7, 89472, Note_on_c, 3, 38, 100
7, 89852, Note_off_c, 3, 38, 0
7, 89856, Note_on_c, 3, 40, 100
7, 90236, Note_off_c, 3, 40, 0
7, 90240, Note_on_c, 3, 42, 100
7, 90620, Note_off_c, 3, 42, 0
7, 90624, Note_on_c, 3, 43, 100
7, 91004, Note_off_c, 3, 43, 0
7, 91008, Note_on_c, 3, 40, 100
7, 91388, Note_off_c, 3, 40, 0
7, 91392, Note_on_c, 3, 38, 100
7, 91772, Note_off_c, 3, 38, 0
7, 91776, Note_on_c, 3, 35, 100
7, 92156, Note_off_c, 3, 35, 0
7, 92160, Note_on_c, 3, 31, 100
7, 92540, Note_off_c, 3, 31, 0
7, 92544, Note_on_c, 3, 31, 100
7, 92800, Note_off_c, 3, 31, 0
7, 92928, Note_on_c, 3, 35, 100
7, 93184, Note_off_c, 3, 35, 0
7, 93312, Note_on_c, 3, 36, 100
7, 93568, Note_off_c, 3, 36, 0
7, 93696, Note_on_c, 3, 38, 100
7, 94076, Note_off_c, 3, 38, 0
7, 94080, Note_on_c, 3, 42, 100
7, 94460, Note_off_c, 3, 42, 0
7, 94464, Note_on_c, 3, 45, 100
7, 94844, Note_off_c, 3, 45, 0
7, 94848, Note_on_c, 3, 42, 100
7, 95228, Note_off_c, 3, 42, 0
7, 95232, Note_on_c, 3, 38, 100
7, 95612, Note_off_c, 3, 38, 0
7, 95616, Note_on_c, 3, 38, 100
7, 95996, Note_off_c, 3, 38, 0
7, 96000, Note_on_c, 3, 40, 100
7, 96380, Note_off_c, 3, 40, 0
7, 96384, Note_on_c, 3, 42, 100
7, 96764, Note_off_c, 3, 42, 0
7, 96768, Note_on_c, 3, 45, 100
7, 97148, Note_off_c, 3, 45, 0
7, 97152, Note_on_c, 3, 49, 100
7, 97532, Note_off_c, 3, 49, 0
7, 97536, Note_on_c, 3, 52, 100
7, 97916, Note_off_c, 3, 52, 0
7, 97920, Note_on_c, 3, 49, 100
7, 98300, Note_off_c, 3, 49, 0
7, 98304, Note_on_c, 3, 38, 100
7, 98304, Note_on_c, 3, 50, 100
7, 98684, Note_off_c, 3, 38, 0
7, 98684, Note_off_c, 3, 50, 0
7, 98688, Note_on_c, 3, 42, 100
7, 98688, Note_on_c, 3, 54, 100
7, 99068, Note_off_c, 3, 42, 0
7, 99068, Note_off_c, 3, 54, 0
7, 99072, Note_on_c, 3, 45, 100
7, 99072, Note_on_c, 3, 57, 100
7, 99452, Note_off_c, 3, 45, 0
7, 99452, Note_off_c, 3, 57, 0
7, 99456, Note_on_c, 3, 42, 100
7, 99456, Note_on_c, 3, 54, 100
7, 99836, Note_off_c, 3, 42, 0
7, 99836, Note_off_c, 3, 54, 0
7, 99840, Note_on_c, 3, 43, 100
7, 99840, Note_on_c, 3, 55, 100
7, 100220, Note_off_c, 3, 43, 0
7, 100220, Note_off_c, 3, 55, 0
7, 100224, Note_on_c, 3, 40, 100
7, 100224, Note_on_c, 3, 52, 100
7, 100604, Note_off_c, 3, 40, 0
7, 100604, Note_off_c, 3, 52, 0
7, 100608, Note_on_c, 3, 38, 100
7, 100608, Note_on_c, 3, 50, 100
7, 100988, Note_off_c, 3, 38, 0
7, 100988, Note_off_c, 3, 50, 0
7, 100992, Note_on_c, 3, 35, 100
7, 100992, Note_on_c, 3, 47, 100
7, 101372, Note_off_c, 3, 35, 0
7, 101372, Note_off_c, 3, 47, 0
7, 101376, Note_on_c, 3, 43, 100
7, 101756, Note_off_c, 3, 43, 0
7, 101760, Note_on_c, 3, 35, 100
7, 102140, Note_off_c, 3, 35, 0
7, 102144, Note_on_c, 3, 38, 100
7, 102524, Note_off_c, 3, 38, 0
7, 102528, Note_on_c, 3, 40, 100
7, 102908, Note_off_c, 3, 40, 0
7, 102912, Note_on_c, 3, 45, 100
7, 103292, Note_off_c, 3, 45, 0
7, 103296, Note_on_c, 3, 48, 98
7, 103676, Note_off_c, 3, 48, 0
7, 103680, Note_on_c, 3, 52, 96
7, 104060, Note_off_c, 3, 52, 0
7, 104064, Note_on_c, 3, 48, 94
7, 104444, Note_off_c, 3, 48, 0
7, 104448, Note_on_c, 3, 38, 92
7, 104448, Note_on_c, 3, 50, 92
7, 104828, Note_off_c, 3, 38, 0
7, 104828, Note_off_c, 3, 50, 0
7, 104832, Note_on_c, 3, 42, 90
7, 104832, Note_on_c, 3, 54, 90
7, 105212, Note_off_c, 3, 42, 0
7, 105212, Note_off_c, 3, 54, 0
7, 105216, Note_on_c, 3, 45, 88
7, 105216, Note_on_c, 3, 57, 88
7, 105596, Note_off_c, 3, 45, 0
7, 105596, Note_off_c, 3, 57, 0
7, 105600, Note_on_c, 3, 42, 85
7, 105600, Note_on_c, 3, 54, 85
7, 105980, Note_off_c, 3, 42, 0
7, 105980, Note_off_c, 3, 54, 0
7, 105984, Note_on_c, 3, 43, 83
7, 105984, Note_on_c, 3, 55, 83
7, 106364, Note_off_c, 3, 43, 0
7, 106364, Note_off_c, 3, 55, 0
7, 106368, Note_on_c, 3, 40, 81
7, 106368, Note_on_c, 3, 52, 81
7, 106748, Note_off_c, 3, 40, 0
7, 106748, Note_off_c, 3, 52, 0
7, 106752, Note_on_c, 3, 38, 79
7, 106752, Note_on_c, 3, 50, 79
7, 107132, Note_off_c, 3, 38, 0
7, 107132, Note_off_c, 3, 50, 0
7, 107136, Note_on_c, 3, 35, 77
7, 107136, Note_on_c, 3, 47, 77
7, 107516, Note_off_c, 3, 35, 0
7, 107516, Note_off_c, 3, 47, 0
7, 107520, Note_on_c, 3, 31, 75
7, 107900, Note_off_c, 3, 31, 0
7, 107904, Note_on_c, 3, 31, 72
7, 108160, Note_off_c, 3, 31, 0
7, 108288, Note_on_c, 3, 35, 70
7, 108544, Note_off_c, 3, 35, 0
7, 108672, Note_on_c, 3, 36, 68
7, 108928, Note_off_c, 3, 36, 0
7, 109056, Note_on_c, 3, 45, 66
7, 109436, Note_off_c, 3, 45, 0
7, 109440, Note_on_c, 3, 48, 64
7, 109820, Note_off_c, 3, 48, 0
7, 109824, Note_on_c, 3, 52, 62
7, 110204, Note_off_c, 3, 52, 0
7, 110208, Note_on_c, 3, 48, 59
7, 110588, Note_off_c, 3, 48, 0
7, 110592, Note_on_c, 3, 38, 57
7, 110592, Note_on_c, 3, 50, 57
7, 110972, Note_off_c, 3, 38, 0
7, 110972, Note_off_c, 3, 50, 0
7, 110976, Note_on_c, 3, 42, 55
7, 110976, Note_on_c, 3, 54, 55
7, 111356, Note_off_c, 3, 42, 0
7, 111356, Note_off_c, 3, 54, 0
7, 111360, Note_on_c, 3, 45, 53
7, 111360, Note_on_c, 3, 57, 53
7, 111740, Note_off_c, 3, 45, 0
7, 111740, Note_off_c, 3, 57, 0
7, 111744, Note_on_c, 3, 42, 51
7, 111744, Note_on_c, 3, 54, 51
7, 112124, Note_off_c, 3, 42, 0
7, 112124, Note_off_c, 3, 54, 0
7, 112128, Note_on_c, 3, 43, 49
7, 112128, Note_on_c, 3, 55, 49
7, 112508, Note_off_c, 3, 43, 0
7, 112508, Note_off_c, 3, 55, 0
7, 112512, Note_on_c, 3, 40, 47
7, 112512, Note_on_c, 3, 52, 47
7, 112892, Note_off_c, 3, 40, 0
7, 112892, Note_off_c, 3, 52, 0
7, 112896, Note_on_c, 3, 38, 44
7, 112896, Note_on_c, 3, 50, 44
7, 113276, Note_off_c, 3, 38, 0
7, 113276, Note_off_c, 3, 50, 0
7, 113280, Note_on_c, 3, 35, 42
7, 113280, Note_on_c, 3, 47, 42
7, 113660, Note_off_c, 3, 35, 0
7, 113660, Note_off_c, 3, 47, 0
7, 113664, Note_on_c, 3, 31, 40
7, 114044, Note_off_c, 3, 31, 0
7, 114048, Note_on_c, 3, 31, 38
7, 114304, Note_off_c, 3, 31, 0
7, 114432, Note_on_c, 3, 35, 36
7, 114688, Note_off_c, 3, 35, 0
7, 114816, Note_on_c, 3, 36, 34
7, 115072, Note_off_c, 3, 36, 0
7, 115200, Note_on_c, 3, 45, 31
7, 115580, Note_off_c, 3, 45, 0
7, 115584, Note_on_c, 3, 48, 29
7, 115964, Note_off_c, 3, 48, 0
7, 115968, Note_on_c, 3, 52, 27
7, 116348, Note_off_c, 3, 52, 0
7, 116352, Note_on_c, 3, 48, 25
7, 116732, Note_off_c, 3, 48, 0
7, 116736, Note_on_c, 3, 38, 23
7, 116736, Note_on_c, 3, 50, 23
7, 117116, Note_off_c, 3, 38, 0
7, 117116, Note_off_c, 3, 50, 0
7, 117120, Note_on_c, 3, 42, 21
7, 117120, Note_on_c, 3, 54, 21
7, 117500, Note_off_c, 3, 42, 0
7, 117500, Note_off_c, 3, 54, 0
7, 117504, Note_on_c, 3, 45, 18
7, 117504, Note_on_c, 3, 57, 18
7, 117884, Note_off_c, 3, 45, 0
7, 117884, Note_off_c, 3, 57, 0
7, 117888, Note_on_c, 3, 42, 16
7, 117888, Note_on_c, 3, 54, 16
7, 118268, Note_off_c, 3, 42, 0
7, 118268, Note_off_c, 3, 54, 0
7, 118272, Note_on_c, 3, 43, 14
7, 118272, Note_on_c, 3, 55, 14
7, 118652, Note_off_c, 3, 43, 0
7, 118652, Note_off_c, 3, 55, 0
7, 118656, Note_on_c, 3, 40, 12
7, 118656, Note_on_c, 3, 52, 12
7, 119036, Note_off_c, 3, 40, 0
7, 119036, Note_off_c, 3, 52, 0
7, 119040, Note_on_c, 3, 38, 10
7, 119040, Note_on_c, 3, 50, 10
7, 119420, Note_off_c, 3, 38, 0
7, 119420, Note_off_c, 3, 50, 0
7, 119424, Note_on_c, 3, 35, 8
7, 119424, Note_on_c, 3, 47, 8
7, 119804, Note_off_c, 3, 35, 0
7, 119804, Note_off_c, 3, 47, 0
7, 119804, End_track
8, 0, Start_track
8, 0, Title_t, "Bass"
8, 0, Control_c, 4, 0, 0
8, 0, Program_c, 4, 32
8, 0, Control_c, 4, 7, 115
8, 0, Control_c, 4, 10, 59
8, 0, Key_signature, 0, "major"
8, 1536, Note_on_c, 4, 33, 111
8, 1916, Note_off_c, 4, 33, 0
8, 1920, Note_on_c, 4, 36, 111
8, 2300, Note_off_c, 4, 36, 0
8, 2304, Note_on_c, 4, 40, 111
8, 2684, Note_off_c, 4, 40, 0
8, 2688, Note_on_c, 4, 36, 111
8, 2976, Note_on_c, 4, 33, 111
8, 3068, Note_off_c, 4, 36, 0
8, 3068, Note_off_c, 4, 33, 0
8, 3072, Note_on_c, 4, 38, 111
8, 3452, Note_off_c, 4, 38, 0
8, 3456, Note_on_c, 4, 42, 111
8, 3836, Note_off_c, 4, 42, 0
8, 3840, Note_on_c, 4, 45, 111
8, 4220, Note_off_c, 4, 45, 0
8, 4224, Note_on_c, 4, 42, 111
8, 4512, Note_on_c, 4, 38, 111
8, 4604, Note_off_c, 4, 42, 0
8, 4604, Note_off_c, 4, 38, 0
8, 4608, Note_on_c, 4, 43, 111
8, 4988, Note_off_c, 4, 43, 0
8, 4992, Note_on_c, 4, 40, 111
8, 5372, Note_off_c, 4, 40, 0
8, 5376, Note_on_c, 4, 38, 111
8, 5756, Note_off_c, 4, 38, 0
8, 5760, Note_on_c, 4, 35, 111
8, 6140, Note_off_c, 4, 35, 0
8, 6144, Note_on_c, 4, 43, 111
8, 6144, Note_on_c, 4, 31, 111
8, 6524, Note_off_c, 4, 43, 0
8, 6524, Note_off_c, 4, 31, 0
8, 6528, Note_on_c, 4, 35, 111
8, 6908, Note_off_c, 4, 35, 0
8, 6912, Note_on_c, 4, 38, 111
8, 7292, Note_off_c, 4, 38, 0
8, 7296, Note_on_c, 4, 40, 111
8, 7676, Note_off_c, 4, 40, 0
8, 7680, Note_on_c, 4, 43, 111
8, 8060, Note_off_c, 4, 43, 0
8, 8064, Note_on_c, 4, 47, 111
8, 8444, Note_off_c, 4, 47, 0
8, 8448, Note_on_c, 4, 50, 111
8, 8828, Note_off_c, 4, 50, 0
8, 8832, Note_on_c, 4, 47, 111
8, 9120, Note_on_c, 4, 43, 111
8, 9212, Note_off_c, 4, 47, 0
8, 9212, Note_off_c, 4, 43, 0
8, 9216, Note_on_c, 4, 36, 111
8, 9596, Note_off_c, 4, 36, 0
8, 9600, Note_on_c, 4, 40, 111
8, 9980, Note_off_c, 4, 40, 0
8, 9984, Note_on_c, 4, 43, 111
8, 10364, Note_off_c, 4, 43, 0
8, 10368, Note_on_c, 4, 40, 111
8, 10656, Note_on_c, 4, 38, 111
8, 10748, Note_off_c, 4, 40, 0
8, 10748, Note_off_c, 4, 38, 0
8, 10752, Note_on_c, 4, 31, 111
8, 11132, Note_off_c, 4, 31, 0
8, 11136, Note_on_c, 4, 35, 111
8, 11516, Note_off_c, 4, 35, 0
8, 11520, Note_on_c, 4, 38, 111
8, 11900, Note_off_c, 4, 38, 0
8, 11904, Note_on_c, 4, 35, 111
8, 12192, Note_on_c, 4, 31, 111
8, 12284, Note_off_c, 4, 35, 0
8, 12284, Note_off_c, 4, 31, 0
8, 12288, Note_on_c, 4, 38, 111
8, 12668, Note_off_c, 4, 38, 0
8, 12672, Note_on_c, 4, 42, 111
8, 13052, Note_off_c, 4, 42, 0
8, 13056, Note_on_c, 4, 45, 111
8, 13436, Note_off_c, 4, 45, 0
8, 13440, Note_on_c, 4, 42, 111
8, 13728, Note_on_c, 4, 38, 111
8, 13820, Note_off_c, 4, 42, 0
8, 13820, Note_off_c, 4, 38, 0
8, 13824, Note_on_c, 4, 31, 111
8, 14204, Note_off_c, 4, 31, 0
8, 14208, Note_on_c, 4, 31, 111
8, 14588, Note_off_c, 4, 31, 0
8, 14592, Note_on_c, 4, 33, 111
8, 14972, Note_off_c, 4, 33, 0
8, 14976, Note_on_c, 4, 35, 111
8, 15264, Note_on_c, 4, 31, 111
8, 15356, Note_off_c, 4, 35, 0
8, 15356, Note_off_c, 4, 31, 0
8, 15360, Note_on_c, 4, 36, 111
8, 15740, Note_off_c, 4, 36, 0
8, 15744, Note_on_c, 4, 40, 111
8, 16124, Note_off_c, 4, 40, 0
8, 16128, Note_on_c, 4, 43, 111
8, 16508, Note_off_c, 4, 43, 0
8, 16512, Note_on_c, 4, 40, 111
8, 16800, Note_on_c, 4, 36, 111
8, 16892, Note_off_c, 4, 40, 0
8, 16892, Note_off_c, 4, 36, 0
8, 16896, Note_on_c, 4, 38, 111
8, 17276, Note_off_c, 4, 38, 0
8, 17280, Note_on_c, 4, 42, 111
8, 17660, Note_off_c, 4, 42, 0
8, 17664, Note_on_c, 4, 45, 111
8, 18044, Note_off_c, 4, 45, 0
8, 18048, Note_on_c, 4, 42, 111
8, 18336, Note_on_c, 4, 38, 111
8, 18428, Note_off_c, 4, 42, 0
8, 18428, Note_off_c, 4, 38, 0
8, 18432, Note_on_c, 4, 55, 111
8, 18432, Note_on_c, 4, 31, 111
8, 18432, Note_on_c, 4, 43, 111
8, 18944, Note_off_c, 4, 31, 0
8, 18944, Note_off_c, 4, 43, 0
8, 19004, Note_off_c, 4, 55, 0
8, 19968, Note_on_c, 4, 38, 111
8, 20348, Note_off_c, 4, 38, 0
8, 20352, Note_on_c, 4, 42, 111
8, 20732, Note_off_c, 4, 42, 0
8, 20736, Note_on_c, 4, 45, 111
8, 21116, Note_off_c, 4, 45, 0
8, 21120, Note_on_c, 4, 42, 111
8, 21408, Note_on_c, 4, 45, 111
8, 21500, Note_off_c, 4, 42, 0
8, 21500, Note_off_c, 4, 45, 0
8, 21504, Note_on_c, 4, 38, 111
8, 21884, Note_off_c, 4, 38, 0
8, 21888, Note_on_c, 4, 38, 111
8, 22268, Note_off_c, 4, 38, 0
8, 22272, Note_on_c, 4, 40, 111
8, 22652, Note_off_c, 4, 40, 0
8, 22656, Note_on_c, 4, 42, 111
8, 22944, Note_on_c, 4, 38, 111
8, 23036, Note_off_c, 4, 42, 0
8, 23036, Note_off_c, 4, 38, 0
8, 23040, Note_on_c, 4, 43, 111
8, 23420, Note_off_c, 4, 43, 0
8, 23424, Note_on_c, 4, 40, 111
8, 23804, Note_off_c, 4, 40, 0
8, 23808, Note_on_c, 4, 38, 111
8, 24188, Note_off_c, 4, 38, 0
8, 24192, Note_on_c, 4, 35, 111
8, 24572, Note_off_c, 4, 35, 0
8, 24576, Note_on_c, 4, 31, 111
8, 24956, Note_off_c, 4, 31, 0
8, 24960, Note_on_c, 4, 31, 111
8, 25216, Note_off_c, 4, 31, 0
8, 25344, Note_on_c, 4, 35, 111
8, 25600, Note_off_c, 4, 35, 0
8, 25728, Note_on_c, 4, 36, 111
8, 25984, Note_off_c, 4, 36, 0
8, 26016, Note_on_c, 4, 33, 111
8, 26108, Note_off_c, 4, 33, 0
8, 26112, Note_on_c, 4, 38, 111
8, 26492, Note_off_c, 4, 38, 0
8, 26496, Note_on_c, 4, 42, 111
8, 26876, Note_off_c, 4, 42, 0
8, 26880, Note_on_c, 4, 45, 111
8, 27260, Note_off_c, 4, 45, 0
8, 27264, Note_on_c, 4, 42, 111
8, 27552, Note_on_c, 4, 45, 111
8, 27644, Note_off_c, 4, 42, 0
8, 27644, Note_off_c, 4, 45, 0
8, 27648, Note_on_c, 4, 38, 111
8, 28028, Note_off_c, 4, 38, 0
8, 28032, Note_on_c, 4, 38, 111
8, 28412, Note_off_c, 4, 38, 0
8, 28416, Note_on_c, 4, 40, 111
8, 28796, Note_off_c, 4, 40, 0
8, 28800, Note_on_c, 4, 42, 111
8, 28896, Note_on_c, 4, 40, 111
8, 28988, Note_off_c, 4, 40, 0
8, 28992, Note_on_c, 4, 36, 111
8, 29084, Note_off_c, 4, 36, 0
8, 29088, Note_on_c, 4, 35, 111
8, 29180, Note_off_c, 4, 42, 0
8, 29180, Note_off_c, 4, 35, 0
8, 29184, Note_on_c, 4, 33, 111
8, 29564, Note_off_c, 4, 33, 0
8, 29568, Note_on_c, 4, 37, 111
8, 29948, Note_off_c, 4, 37, 0
8, 29952, Note_on_c, 4, 40, 111
8, 30332, Note_off_c, 4, 40, 0
8, 30336, Note_on_c, 4, 37, 111
8, 30624, Note_on_c, 4, 33, 111
8, 30716, Note_off_c, 4, 37, 0
8, 30716, Note_off_c, 4, 33, 0
8, 30720, Note_on_c, 4, 38, 111
8, 31100, Note_off_c, 4, 38, 0
8, 31104, Note_on_c, 4, 42, 111
8, 31484, Note_off_c, 4, 42, 0
8, 31488, Note_on_c, 4, 45, 111
8, 31868, Note_off_c, 4, 45, 0
8, 31872, Note_on_c, 4, 42, 111
8, 32160, Note_on_c, 4, 38, 111
8, 32252, Note_off_c, 4, 42, 0
8, 32252, Note_off_c, 4, 38, 0
8, 32256, Note_on_c, 4, 43, 111
8, 32636, Note_off_c, 4, 43, 0
8, 32640, Note_on_c, 4, 40, 111
8, 33020, Note_off_c, 4, 40, 0
8, 33024, Note_on_c, 4, 38, 111
8, 33404, Note_off_c, 4, 38, 0
8, 33408, Note_on_c, 4, 35, 111
8, 33696, Note_on_c, 4, 38, 111
8, 33788, Note_off_c, 4, 35, 0
8, 33788, Note_off_c, 4, 38, 0
8, 33792, Note_on_c, 4, 31, 111
8, 34172, Note_off_c, 4, 31, 0
8, 34176, Note_on_c, 4, 31, 111
8, 34432, Note_off_c, 4, 31, 0
8, 34560, Note_on_c, 4, 35, 111
8, 34816, Note_off_c, 4, 35, 0
8, 34944, Note_on_c, 4, 36, 111
8, 35200, Note_off_c, 4, 36, 0
8, 35232, Note_on_c, 4, 42, 111
8, 35324, Note_off_c, 4, 42, 0
8, 35328, Note_on_c, 4, 43, 111
8, 35708, Note_off_c, 4, 43, 0
8, 35712, Note_on_c, 4, 47, 111
8, 36092, Note_off_c, 4, 47, 0
8, 36096, Note_on_c, 4, 50, 111
8, 36476, Note_off_c, 4, 50, 0
8, 36480, Note_on_c, 4, 47, 111
8, 36860, Note_off_c, 4, 47, 0
8, 36864, Note_on_c, 4, 36, 111
8, 37244, Note_off_c, 4, 36, 0
8, 37248, Note_on_c, 4, 40, 111
8, 37628, Note_off_c, 4, 40, 0
8, 37632, Note_on_c, 4, 43, 111
8, 38012, Note_off_c, 4, 43, 0
8, 38016, Note_on_c, 4, 40, 111
8, 38304, Note_on_c, 4, 43, 111
8, 38396, Note_off_c, 4, 40, 0
8, 38396, Note_off_c, 4, 43, 0
8, 38400, Note_on_c, 4, 31, 111
8, 38780, Note_off_c, 4, 31, 0
8, 38784, Note_on_c, 4, 35, 111
8, 39164, Note_off_c, 4, 35, 0
8, 39168, Note_on_c, 4, 38, 111
8, 39548, Note_off_c, 4, 38, 0
8, 39552, Note_on_c, 4, 35, 111
8, 39840, Note_on_c, 4, 31, 111
8, 39932, Note_off_c, 4, 35, 0
8, 39932, Note_off_c, 4, 31, 0
8, 39936, Note_on_c, 4, 38, 111
8, 40316, Note_off_c, 4, 38, 0
8, 40320, Note_on_c, 4, 42, 111
8, 40700, Note_off_c, 4, 42, 0
8, 40704, Note_on_c, 4, 45, 111
8, 41084, Note_off_c, 4, 45, 0
8, 41088, Note_on_c, 4, 42, 111
8, 41376, Note_on_c, 4, 45, 111
8, 41468, Note_off_c, 4, 42, 0
8, 41468, Note_off_c, 4, 45, 0
8, 41472, Note_on_c, 4, 31, 111
8, 41852, Note_off_c, 4, 31, 0
8, 41856, Note_on_c, 4, 31, 111
8, 42236, Note_off_c, 4, 31, 0
8, 42240, Note_on_c, 4, 33, 111
8, 42620, Note_off_c, 4, 33, 0
8, 42624, Note_on_c, 4, 35, 111
8, 42912, Note_on_c, 4, 31, 111
8, 43004, Note_off_c, 4, 35, 0
8, 43004, Note_off_c, 4, 31, 0
8, 43008, Note_on_c, 4, 36, 111
8, 43388, Note_off_c, 4, 36, 0
8, 43392, Note_on_c, 4, 40, 111
8, 43772, Note_off_c, 4, 40, 0
8, 43776, Note_on_c, 4, 43, 111
8, 44156, Note_off_c, 4, 43, 0
8, 44160, Note_on_c, 4, 40, 111
8, 44448, Note_on_c, 4, 36, 111
8, 44540, Note_off_c, 4, 40, 0
8, 44540, Note_off_c, 4, 36, 0
8, 44544, Note_on_c, 4, 38, 111
8, 44924, Note_off_c, 4, 38, 0
8, 44928, Note_on_c, 4, 42, 111
8, 45308, Note_off_c, 4, 42, 0
8, 45312, Note_on_c, 4, 45, 111
8, 45692, Note_off_c, 4, 45, 0
8, 45696, Note_on_c, 4, 42, 111
8, 46076, Note_off_c, 4, 42, 0
8, 46080, Note_on_c, 4, 31, 111
8, 46080, Note_on_c, 4, 43, 111
8, 46592, Note_off_c, 4, 31, 0
8, 46592, Note_off_c, 4, 43, 0
8, 47616, Note_on_c, 4, 38, 111
8, 47996, Note_off_c, 4, 38, 0
8, 48000, Note_on_c, 4, 42, 111
8, 48380, Note_off_c, 4, 42, 0
8, 48384, Note_on_c, 4, 45, 111
8, 48764, Note_off_c, 4, 45, 0
8, 48768, Note_on_c, 4, 42, 111
8, 49056, Note_on_c, 4, 45, 111
8, 49148, Note_off_c, 4, 42, 0
8, 49148, Note_off_c, 4, 45, 0
8, 49152, Note_on_c, 4, 38, 111
8, 49532, Note_off_c, 4, 38, 0
8, 49536, Note_on_c, 4, 38, 111
8, 49916, Note_off_c, 4, 38, 0
8, 49920, Note_on_c, 4, 40, 111
8, 50300, Note_off_c, 4, 40, 0
8, 50304, Note_on_c, 4, 42, 111
8, 50592, Note_on_c, 4, 38, 111
8, 50684, Note_off_c, 4, 42, 0
8, 50684, Note_off_c, 4, 38, 0
8, 50688, Note_on_c, 4, 43, 111
8, 51068, Note_off_c, 4, 43, 0
8, 51072, Note_on_c, 4, 40, 111
8, 51452, Note_off_c, 4, 40, 0
8, 51456, Note_on_c, 4, 38, 111
8, 51836, Note_off_c, 4, 38, 0
8, 51840, Note_on_c, 4, 35, 111
8, 52220, Note_off_c, 4, 35, 0
8, 52224, Note_on_c, 4, 31, 111
8, 52604, Note_off_c, 4, 31, 0
8, 52608, Note_on_c, 4, 31, 111
8, 52896, Note_on_c, 4, 31, 111
8, 52988, Note_off_c, 4, 31, 0
8, 52992, Note_on_c, 4, 35, 111
8, 53084, Note_off_c, 4, 31, 0
8, 53248, Note_off_c, 4, 35, 0
8, 53376, Note_on_c, 4, 36, 111
8, 53632, Note_off_c, 4, 36, 0
8, 53760, Note_on_c, 4, 38, 111
8, 54140, Note_off_c, 4, 38, 0
8, 54144, Note_on_c, 4, 42, 111
8, 54524, Note_off_c, 4, 42, 0
8, 54528, Note_on_c, 4, 45, 111
8, 54908, Note_off_c, 4, 45, 0
8, 54912, Note_on_c, 4, 42, 111
8, 55200, Note_on_c, 4, 45, 111
8, 55292, Note_off_c, 4, 42, 0
8, 55292, Note_off_c, 4, 45, 0
8, 55296, Note_on_c, 4, 38, 111
8, 55676, Note_off_c, 4, 38, 0
8, 55680, Note_on_c, 4, 38, 111
8, 56060, Note_off_c, 4, 38, 0
8, 56064, Note_on_c, 4, 40, 111
8, 56444, Note_off_c, 4, 40, 0
8, 56448, Note_on_c, 4, 42, 111
8, 56544, Note_on_c, 4, 40, 111
8, 56636, Note_off_c, 4, 40, 0
8, 56640, Note_on_c, 4, 36, 111
8, 56732, Note_off_c, 4, 36, 0
8, 56736, Note_on_c, 4, 35, 111
8, 56828, Note_off_c, 4, 42, 0
8, 56828, Note_off_c, 4, 35, 0
8, 56832, Note_on_c, 4, 33, 111
8, 57212, Note_off_c, 4, 33, 0
8, 57216, Note_on_c, 4, 37, 111
8, 57596, Note_off_c, 4, 37, 0
8, 57600, Note_on_c, 4, 40, 111
8, 57980, Note_off_c, 4, 40, 0
8, 57984, Note_on_c, 4, 37, 111
8, 58272, Note_on_c, 4, 33, 111
8, 58364, Note_off_c, 4, 37, 0
8, 58364, Note_off_c, 4, 33, 0
8, 58368, Note_on_c, 4, 38, 111
8, 58748, Note_off_c, 4, 38, 0
8, 58752, Note_on_c, 4, 42, 111
8, 59132, Note_off_c, 4, 42, 0
8, 59136, Note_on_c, 4, 45, 111
8, 59516, Note_off_c, 4, 45, 0
8, 59520, Note_on_c, 4, 42, 111
8, 59808, Note_on_c, 4, 38, 111
8, 59900, Note_off_c, 4, 42, 0
8, 59900, Note_off_c, 4, 38, 0
8, 59904, Note_on_c, 4, 43, 111
8, 60284, Note_off_c, 4, 43, 0
8, 60288, Note_on_c, 4, 40, 111
8, 60668, Note_off_c, 4, 40, 0
8, 60672, Note_on_c, 4, 38, 111
8, 61052, Note_off_c, 4, 38, 0
8, 61056, Note_on_c, 4, 35, 111
8, 61344, Note_on_c, 4, 38, 111
8, 61436, Note_off_c, 4, 35, 0
8, 61436, Note_off_c, 4, 38, 0
8, 61440, Note_on_c, 4, 43, 111
8, 61820, Note_off_c, 4, 43, 0
8, 61824, Note_on_c, 4, 35, 111
8, 62204, Note_off_c, 4, 35, 0
8, 62208, Note_on_c, 4, 38, 111
8, 62588, Note_off_c, 4, 38, 0
8, 62592, Note_on_c, 4, 40, 111
8, 62880, Note_on_c, 4, 38, 111
8, 62972, Note_off_c, 4, 40, 0
8, 62972, Note_off_c, 4, 38, 0
8, 62976, Note_on_c, 4, 33, 111
8, 63356, Note_off_c, 4, 33, 0
8, 63360, Note_on_c, 4, 37, 111
8, 63740, Note_off_c, 4, 37, 0
8, 63744, Note_on_c, 4, 40, 111
8, 64124, Note_off_c, 4, 40, 0
8, 64128, Note_on_c, 4, 37, 111
8, 64416, Note_on_c, 4, 40, 111
8, 64508, Note_off_c, 4, 37, 0
8, 64508, Note_off_c, 4, 40, 0
8, 64512, Note_on_c, 4, 38, 111
8, 64892, Note_off_c, 4, 38, 0
8, 64896, Note_on_c, 4, 42, 111
8, 65276, Note_off_c, 4, 42, 0
8, 65280, Note_on_c, 4, 45, 111
8, 65660, Note_off_c, 4, 45, 0
8, 65664, Note_on_c, 4, 42, 111
8, 65952, Note_on_c, 4, 38, 111
8, 66044, Note_off_c, 4, 42, 0
8, 66044, Note_off_c, 4, 38, 0
8, 66048, Note_on_c, 4, 43, 111
8, 66428, Note_off_c, 4, 43, 0
8, 66432, Note_on_c, 4, 40, 111
8, 66812, Note_off_c, 4, 40, 0
8, 66816, Note_on_c, 4, 38, 111
8, 67196, Note_off_c, 4, 38, 0
8, 67200, Note_on_c, 4, 35, 111
8, 67488, Note_on_c, 4, 38, 111
8, 67580, Note_off_c, 4, 35, 0
8, 67580, Note_off_c, 4, 38, 0
8, 67584, Note_on_c, 4, 31, 111
8, 67964, Note_off_c, 4, 31, 0
8, 67968, Note_on_c, 4, 31, 111
8, 68224, Note_off_c, 4, 31, 0
8, 68352, Note_on_c, 4, 35, 111
8, 68608, Note_off_c, 4, 35, 0
8, 68736, Note_on_c, 4, 36, 111
8, 68992, Note_off_c, 4, 36, 0
8, 69120, Note_on_c, 4, 33, 111
8, 69500, Note_off_c, 4, 33, 0
8, 69504, Note_on_c, 4, 37, 111
8, 69884, Note_off_c, 4, 37, 0
8, 69888, Note_on_c, 4, 40, 111
8, 70268, Note_off_c, 4, 40, 0
8, 70272, Note_on_c, 4, 37, 111
8, 70560, Note_on_c, 4, 33, 111
8, 70652, Note_off_c, 4, 37, 0
8, 70652, Note_off_c, 4, 33, 0
8, 70656, Note_on_c, 4, 38, 111
8, 71036, Note_off_c, 4, 38, 0
8, 71040, Note_on_c, 4, 42, 111
8, 71420, Note_off_c, 4, 42, 0
8, 71424, Note_on_c, 4, 45, 111
8, 71804, Note_off_c, 4, 45, 0
8, 71808, Note_on_c, 4, 42, 111
8, 72096, Note_on_c, 4, 45, 111
8, 72188, Note_off_c, 4, 42, 0
8, 72188, Note_off_c, 4, 45, 0
8, 72192, Note_on_c, 4, 43, 111
8, 72572, Note_off_c, 4, 43, 0
8, 72576, Note_on_c, 4, 40, 111
8, 72956, Note_off_c, 4, 40, 0
8, 72960, Note_on_c, 4, 38, 111
8, 73340, Note_off_c, 4, 38, 0
8, 73344, Note_on_c, 4, 35, 111
8, 73724, Note_off_c, 4, 35, 0
8, 73728, Note_on_c, 4, 31, 111
8, 74108, Note_off_c, 4, 31, 0
8, 74112, Note_on_c, 4, 35, 111
8, 74492, Note_off_c, 4, 35, 0
8, 74496, Note_on_c, 4, 38, 111
8, 74876, Note_off_c, 4, 38, 0
8, 74880, Note_on_c, 4, 40, 111
8, 75168, Note_on_c, 4, 38, 111
8, 75260, Note_off_c, 4, 40, 0
8, 75260, Note_off_c, 4, 38, 0
8, 75264, Note_on_c, 4, 31, 111
8, 75644, Note_off_c, 4, 31, 0
8, 75648, Note_on_c, 4, 35, 111
8, 76028, Note_off_c, 4, 35, 0
8, 76032, Note_on_c, 4, 38, 111
8, 76412, Note_off_c, 4, 38, 0
8, 76416, Note_on_c, 4, 35, 111
8, 76704, Note_on_c, 4, 38, 111
8, 76796, Note_off_c, 4, 35, 0
8, 76796, Note_off_c, 4, 38, 0
8, 76800, Note_on_c, 4, 36, 111
8, 77180, Note_off_c, 4, 36, 0
8, 77184, Note_on_c, 4, 40, 111
8, 77564, Note_off_c, 4, 40, 0
8, 77568, Note_on_c, 4, 43, 111
8, 77948, Note_off_c, 4, 43, 0
8, 77952, Note_on_c, 4, 40, 111
8, 78240, Note_on_c, 4, 43, 111
8, 78332, Note_off_c, 4, 40, 0
8, 78332, Note_off_c, 4, 43, 0
8, 78336, Note_on_c, 4, 31, 111
8, 78716, Note_off_c, 4, 31, 0
8, 78720, Note_on_c, 4, 35, 111
8, 79100, Note_off_c, 4, 35, 0
8, 79104, Note_on_c, 4, 38, 111
8, 79484, Note_off_c, 4, 38, 0
8, 79488, Note_on_c, 4, 35, 111
8, 79776, Note_on_c, 4, 31, 111
8, 79868, Note_off_c, 4, 35, 0
8, 79868, Note_off_c, 4, 31, 0
8, 79872, Note_on_c, 4, 38, 111
8, 80252, Note_off_c, 4, 38, 0
8, 80256, Note_on_c, 4, 42, 111
8, 80636, Note_off_c, 4, 42, 0
8, 80640, Note_on_c, 4, 45, 111
8, 81020, Note_off_c, 4, 45, 0
8, 81024, Note_on_c, 4, 42, 111
8, 81312, Note_on_c, 4, 45, 111
8, 81404, Note_off_c, 4, 42, 0
8, 81404, Note_off_c, 4, 45, 0
8, 81408, Note_on_c, 4, 31, 111
8, 81788, Note_off_c, 4, 31, 0
8, 81792, Note_on_c, 4, 31, 111
8, 82172, Note_off_c, 4, 31, 0
8, 82176, Note_on_c, 4, 33, 111
8, 82556, Note_off_c, 4, 33, 0
8, 82560, Note_on_c, 4, 35, 111
8, 82940, Note_off_c, 4, 35, 0
8, 82944, Note_on_c, 4, 36, 111
8, 83324, Note_off_c, 4, 36, 0
8, 83328, Note_on_c, 4, 40, 111
8, 83708, Note_off_c, 4, 40, 0
8, 83712, Note_on_c, 4, 43, 111
8, 84092, Note_off_c, 4, 43, 0
8, 84096, Note_on_c, 4, 40, 111
8, 84384, Note_on_c, 4, 36, 111
8, 84476, Note_off_c, 4, 40, 0
8, 84476, Note_off_c, 4, 36, 0
8, 84480, Note_on_c, 4, 38, 111
8, 84860, Note_off_c, 4, 38, 0
8, 84864, Note_on_c, 4, 42, 111
8, 85244, Note_off_c, 4, 42, 0
8, 85248, Note_on_c, 4, 45, 111
8, 85628, Note_off_c, 4, 45, 0
8, 85632, Note_on_c, 4, 42, 111
8, 85920, Note_on_c, 4, 38, 111
8, 86012, Note_off_c, 4, 42, 0
8, 86012, Note_off_c, 4, 38, 0
8, 86016, Note_on_c, 4, 55, 111
8, 86016, Note_on_c, 4, 31, 111
8, 86016, Note_on_c, 4, 43, 111
8, 86528, Note_off_c, 4, 31, 0
8, 86528, Note_off_c, 4, 43, 0
8, 86588, Note_off_c, 4, 55, 0
8, 87552, Note_on_c, 4, 38, 111
8, 87932, Note_off_c, 4, 38, 0
8, 87936, Note_on_c, 4, 42, 111
8, 88316, Note_off_c, 4, 42, 0
8, 88320, Note_on_c, 4, 45, 111
8, 88700, Note_off_c, 4, 45, 0
8, 88704, Note_on_c, 4, 42, 111
8, 88992, Note_on_c, 4, 45, 111
8, 89084, Note_off_c, 4, 42, 0
8, 89084, Note_off_c, 4, 45, 0
8, 89088, Note_on_c, 4, 38, 111
8, 89468, Note_off_c, 4, 38, 0
8, 89472, Note_on_c, 4, 38, 111
8, 89852, Note_off_c, 4, 38, 0
8, 89856, Note_on_c, 4, 40, 111
8, 90236, Note_off_c, 4, 40, 0
8, 90240, Note_on_c, 4, 42, 111
8, 90528, Note_on_c, 4, 38, 111
8, 90620, Note_off_c, 4, 42, 0
8, 90620, Note_off_c, 4, 38, 0
8, 90624, Note_on_c, 4, 43, 111
8, 91004, Note_off_c, 4, 43, 0
8, 91008, Note_on_c, 4, 40, 111
8, 91388, Note_off_c, 4, 40, 0
8, 91392, Note_on_c, 4, 38, 111
8, 91772, Note_off_c, 4, 38, 0
8, 91776, Note_on_c, 4, 35, 111
8, 92064, Note_on_c, 4, 38, 111
8, 92156, Note_off_c, 4, 35, 0
8, 92156, Note_off_c, 4, 38, 0
8, 92160, Note_on_c, 4, 31, 111
8, 92540, Note_off_c, 4, 31, 0
8, 92544, Note_on_c, 4, 31, 111
8, 92800, Note_off_c, 4, 31, 0
8, 92928, Note_on_c, 4, 35, 111
8, 93184, Note_off_c, 4, 35, 0
8, 93312, Note_on_c, 4, 36, 111
8, 93568, Note_off_c, 4, 36, 0
8, 93600, Note_on_c, 4, 33, 111
8, 93692, Note_off_c, 4, 33, 0
8, 93696, Note_on_c, 4, 38, 111
8, 94076, Note_off_c, 4, 38, 0
8, 94080, Note_on_c, 4, 42, 111
8, 94460, Note_off_c, 4, 42, 0
8, 94464, Note_on_c, 4, 45, 111
8, 94844, Note_off_c, 4, 45, 0
8, 94848, Note_on_c, 4, 42, 111
8, 95136, Note_on_c, 4, 45, 111
8, 95228, Note_off_c, 4, 42, 0
8, 95228, Note_off_c, 4, 45, 0
8, 95232, Note_on_c, 4, 38, 111
8, 95612, Note_off_c, 4, 38, 0
8, 95616, Note_on_c, 4, 38, 111
8, 95996, Note_off_c, 4, 38, 0
8, 96000, Note_on_c, 4, 40, 111
8, 96380, Note_off_c, 4, 40, 0
8, 96384, Note_on_c, 4, 42, 111
8, 96480, Note_on_c, 4, 40, 111
8, 96572, Note_off_c, 4, 40, 0
8, 96576, Note_on_c, 4, 36, 111
8, 96668, Note_off_c, 4, 36, 0
8, 96672, Note_on_c, 4, 33, 111
8, 96764, Note_off_c, 4, 42, 0
8, 96764, Note_off_c, 4, 33, 0
8, 96768, Note_on_c, 4, 33, 111
8, 97148, Note_off_c, 4, 33, 0
8, 97152, Note_on_c, 4, 37, 111
8, 97532, Note_off_c, 4, 37, 0
8, 97536, Note_on_c, 4, 40, 111
8, 97916, Note_off_c, 4, 40, 0
8, 97920, Note_on_c, 4, 37, 111
8, 98208, Note_on_c, 4, 40, 111
8, 98300, Note_off_c, 4, 37, 0
8, 98300, Note_off_c, 4, 40, 0
8, 98304, Note_on_c, 4, 38, 111
8, 98684, Note_off_c, 4, 38, 0
8, 98688, Note_on_c, 4, 42, 111
8, 99068, Note_off_c, 4, 42, 0
8, 99072, Note_on_c, 4, 45, 111
8, 99452, Note_off_c, 4, 45, 0
8, 99456, Note_on_c, 4, 42, 111
8, 99744, Note_on_c, 4, 45, 111
8, 99836, Note_off_c, 4, 42, 0
8, 99836, Note_off_c, 4, 45, 0
8, 99840, Note_on_c, 4, 43, 111
8, 100220, Note_off_c, 4, 43, 0
8, 100224, Note_on_c, 4, 40, 111
8, 100604, Note_off_c, 4, 40, 0
8, 100608, Note_on_c, 4, 38, 111
8, 100988, Note_off_c, 4, 38, 0
8, 100992, Note_on_c, 4, 35, 111
8, 101280, Note_on_c, 4, 38, 111
8, 101372, Note_off_c, 4, 35, 0
8, 101372, Note_off_c, 4, 38, 0
8, 101376, Note_on_c, 4, 31, 111
8, 101756, Note_off_c, 4, 31, 0
8, 101760, Note_on_c, 4, 35, 111
8, 102140, Note_off_c, 4, 35, 0
8, 102144, Note_on_c, 4, 38, 111
8, 102524, Note_off_c, 4, 38, 0
8, 102528, Note_on_c, 4, 40, 111
8, 102816, Note_on_c, 4, 38, 111
8, 102908, Note_off_c, 4, 40, 0
8, 102908, Note_off_c, 4, 38, 0
8, 102912, Note_on_c, 4, 33, 111
8, 103292, Note_off_c, 4, 33, 0
8, 103296, Note_on_c, 4, 36, 109
8, 103676, Note_off_c, 4, 36, 0
8, 103680, Note_on_c, 4, 40, 107
8, 104060, Note_off_c, 4, 40, 0
8, 104064, Note_on_c, 4, 36, 104
8, 104352, Note_on_c, 4, 40, 102
8, 104444, Note_off_c, 4, 36, 0
8, 104444, Note_off_c, 4, 40, 0
8, 104448, Note_on_c, 4, 38, 102
8, 104828, Note_off_c, 4, 38, 0
8, 104832, Note_on_c, 4, 42, 99
8, 105212, Note_off_c, 4, 42, 0
8, 105216, Note_on_c, 4, 45, 97
8, 105596, Note_off_c, 4, 45, 0
8, 105600, Note_on_c, 4, 42, 95
8, 105888, Note_on_c, 4, 38, 93
8, 105980, Note_off_c, 4, 42, 0
8, 105980, Note_off_c, 4, 38, 0
8, 105984, Note_on_c, 4, 43, 92
8, 106364, Note_off_c, 4, 43, 0
8, 106368, Note_on_c, 4, 40, 90
8, 106748, Note_off_c, 4, 40, 0
8, 106752, Note_on_c, 4, 38, 87
8, 107132, Note_off_c, 4, 38, 0
8, 107136, Note_on_c, 4, 35, 85
8, 107516, Note_off_c, 4, 35, 0
8, 107520, Note_on_c, 4, 31, 83
8, 107900, Note_off_c, 4, 31, 0
8, 107904, Note_on_c, 4, 31, 80
8, 108160, Note_off_c, 4, 31, 0
8, 108288, Note_on_c, 4, 35, 78
8, 108544, Note_off_c, 4, 35, 0
8, 108672, Note_on_c, 4, 36, 75
8, 108928, Note_off_c, 4, 36, 0
8, 109056, Note_on_c, 4, 33, 73
8, 109436, Note_off_c, 4, 33, 0
8, 109440, Note_on_c, 4, 36, 71
8, 109820, Note_off_c, 4, 36, 0
8, 109824, Note_on_c, 4, 40, 68
8, 110204, Note_off_c, 4, 40, 0
8, 110208, Note_on_c, 4, 36, 66
8, 110588, Note_off_c, 4, 36, 0
8, 110592, Note_on_c, 4, 38, 63
8, 110972, Note_off_c, 4, 38, 0
8, 110976, Note_on_c, 4, 42, 61
8, 111356, Note_off_c, 4, 42, 0
8, 111360, Note_on_c, 4, 45, 58
8, 111740, Note_off_c, 4, 45, 0
8, 111744, Note_on_c, 4, 42, 56
8, 112124, Note_off_c, 4, 42, 0
8, 112128, Note_on_c, 4, 43, 54
8, 112508, Note_off_c, 4, 43, 0
8, 112512, Note_on_c, 4, 40, 51
8, 112892, Note_off_c, 4, 40, 0
8, 112896, Note_on_c, 4, 38, 49
8, 113276, Note_off_c, 4, 38, 0
8, 113280, Note_on_c, 4, 35, 46
8, 113660, Note_off_c, 4, 35, 0
8, 113664, Note_on_c, 4, 31, 44
8, 114044, Note_off_c, 4, 31, 0
8, 114048, Note_on_c, 4, 31, 42
8, 114304, Note_off_c, 4, 31, 0
8, 114432, Note_on_c, 4, 35, 39
8, 114688, Note_off_c, 4, 35, 0
8, 114816, Note_on_c, 4, 36, 37
8, 115072, Note_off_c, 4, 36, 0
8, 115200, Note_on_c, 4, 33, 34
8, 115580, Note_off_c, 4, 33, 0
8, 115584, Note_on_c, 4, 36, 32
8, 115964, Note_off_c, 4, 36, 0
8, 115968, Note_on_c, 4, 40, 30
8, 116348, Note_off_c, 4, 40, 0
8, 116352, Note_on_c, 4, 36, 27
8, 116732, Note_off_c, 4, 36, 0
8, 116736, Note_on_c, 4, 38, 25
8, 117116, Note_off_c, 4, 38, 0
8, 117120, Note_on_c, 4, 42, 22
8, 117500, Note_off_c, 4, 42, 0
8, 117504, Note_on_c, 4, 45, 20
8, 117884, Note_off_c, 4, 45, 0
8, 117888, Note_on_c, 4, 42, 18
8, 118268, Note_off_c, 4, 42, 0
8, 118272, Note_on_c, 4, 43, 15
8, 118652, Note_off_c, 4, 43, 0
8, 118656, Note_on_c, 4, 40, 13
8, 119036, Note_off_c, 4, 40, 0
8, 119040, Note_on_c, 4, 38, 10
8, 119420, Note_off_c, 4, 38, 0
8, 119424, Note_on_c, 4, 35, 8
8, 119804, Note_off_c, 4, 35, 0
8, 119804, End_track
9, 0, Start_track
9, 0, Title_t, "Drums"
9, 0, Control_c, 9, 0, 0
9, 0, Program_c, 9, 0
9, 0, Control_c, 9, 7, 105
9, 0, Control_c, 9, 10, 85
9, 0, Key_signature, 0, "major"
9, 1536, Note_on_c, 9, 42, 80
9, 1600, Note_off_c, 9, 42, 0
9, 1824, Note_on_c, 9, 42, 80
9, 1888, Note_off_c, 9, 42, 0
9, 1920, Note_on_c, 9, 38, 80
9, 1920, Note_on_c, 9, 42, 80
9, 1984, Note_off_c, 9, 42, 0
9, 2108, Note_off_c, 9, 38, 0
9, 2208, Note_on_c, 9, 42, 80
9, 2272, Note_off_c, 9, 42, 0
9, 2304, Note_on_c, 9, 42, 80
9, 2368, Note_off_c, 9, 42, 0
9, 2592, Note_on_c, 9, 42, 80
9, 2656, Note_off_c, 9, 42, 0
9, 2688, Note_on_c, 9, 38, 80
9, 2688, Note_on_c, 9, 42, 80
9, 2752, Note_off_c, 9, 42, 0
9, 2876, Note_off_c, 9, 38, 0
9, 2976, Note_on_c, 9, 42, 80
9, 3040, Note_off_c, 9, 42, 0
9, 3072, Note_on_c, 9, 42, 80
9, 3136, Note_off_c, 9, 42, 0
9, 3360, Note_on_c, 9, 42, 80
9, 3424, Note_off_c, 9, 42, 0
9, 3456, Note_on_c, 9, 38, 80
9, 3456, Note_on_c, 9, 42, 80
9, 3520, Note_off_c, 9, 42, 0
9, 3644, Note_off_c, 9, 38, 0
9, 3744, Note_on_c, 9, 42, 80
9, 3808, Note_off_c, 9, 42, 0
9, 3840, Note_on_c, 9, 42, 80
9, 3904, Note_off_c, 9, 42, 0
9, 4128, Note_on_c, 9, 42, 80
9, 4192, Note_off_c, 9, 42, 0
9, 4224, Note_on_c, 9, 38, 80
9, 4224, Note_on_c, 9, 42, 80
9, 4288, Note_off_c, 9, 42, 0
9, 4412, Note_off_c, 9, 38, 0
9, 4512, Note_on_c, 9, 42, 80
9, 4576, Note_off_c, 9, 42, 0
9, 4608, Note_on_c, 9, 42, 80
9, 4672, Note_off_c, 9, 42, 0
9, 4896, Note_on_c, 9, 42, 80
9, 4960, Note_off_c, 9, 42, 0
9, 4992, Note_on_c, 9, 38, 80
9, 4992, Note_on_c, 9, 42, 80
9, 5056, Note_off_c, 9, 42, 0
9, 5180, Note_off_c, 9, 38, 0
9, 5280, Note_on_c, 9, 42, 80
9, 5344, Note_off_c, 9, 42, 0
9, 5376, Note_on_c, 9, 42, 80
9, 5440, Note_off_c, 9, 42, 0
9, 5664, Note_on_c, 9, 42, 80
9, 5728, Note_off_c, 9, 42, 0
9, 5760, Note_on_c, 9, 38, 80
9, 5760, Note_on_c, 9, 42, 80
9, 5824, Note_off_c, 9, 42, 0
9, 5948, Note_off_c, 9, 38, 0
9, 6048, Note_on_c, 9, 42, 80
9, 6112, Note_off_c, 9, 42, 0
9, 6144, Note_on_c, 9, 42, 80
9, 6208, Note_off_c, 9, 42, 0
9, 6432, Note_on_c, 9, 42, 80
9, 6496, Note_off_c, 9, 42, 0
9, 6528, Note_on_c, 9, 38, 80
9, 6528, Note_on_c, 9, 42, 80
9, 6592, Note_off_c, 9, 42, 0
9, 6716, Note_off_c, 9, 38, 0
9, 6816, Note_on_c, 9, 42, 80
9, 6880, Note_off_c, 9, 42, 0
9, 6912, Note_on_c, 9, 42, 80
9, 6976, Note_off_c, 9, 42, 0
9, 7200, Note_on_c, 9, 42, 80
9, 7264, Note_off_c, 9, 42, 0
9, 7296, Note_on_c, 9, 38, 80
9, 7296, Note_on_c, 9, 42, 80
9, 7360, Note_off_c, 9, 42, 0
9, 7484, Note_off_c, 9, 38, 0
9, 7584, Note_on_c, 9, 42, 80
9, 7648, Note_off_c, 9, 42, 0
9, 7680, Note_on_c, 9, 42, 80
9, 7744, Note_off_c, 9, 42, 0
9, 7968, Note_on_c, 9, 42, 80
9, 8032, Note_off_c, 9, 42, 0
9, 8064, Note_on_c, 9, 38, 80
9, 8064, Note_on_c, 9, 42, 80
9, 8128, Note_off_c, 9, 42, 0
9, 8252, Note_off_c, 9, 38, 0
9, 8352, Note_on_c, 9, 42, 80
9, 8416, Note_off_c, 9, 42, 0
9, 8448, Note_on_c, 9, 42, 80
9, 8512, Note_off_c, 9, 42, 0
9, 8736, Note_on_c, 9, 42, 80
9, 8800, Note_off_c, 9, 42, 0
9, 8832, Note_on_c, 9, 38, 80
9, 8832, Note_on_c, 9, 42, 80
9, 8896, Note_off_c, 9, 42, 0
9, 9020, Note_off_c, 9, 38, 0
9, 9120, Note_on_c, 9, 42, 80
9, 9184, Note_off_c, 9, 42, 0
9, 9216, Note_on_c, 9, 42, 80
9, 9280, Note_off_c, 9, 42, 0
9, 9504, Note_on_c, 9, 42, 80
9, 9568, Note_off_c, 9, 42, 0
9, 9600, Note_on_c, 9, 38, 80
9, 9600, Note_on_c, 9, 42, 80
9, 9664, Note_off_c, 9, 42, 0
9, 9788, Note_off_c, 9, 38, 0
9, 9888, Note_on_c, 9, 42, 80
9, 9952, Note_off_c, 9, 42, 0
9, 9984, Note_on_c, 9, 42, 80
9, 10048, Note_off_c, 9, 42, 0
9, 10272, Note_on_c, 9, 42, 80
9, 10336, Note_off_c, 9, 42, 0
9, 10368, Note_on_c, 9, 38, 80
9, 10368, Note_on_c, 9, 42, 80
9, 10432, Note_off_c, 9, 42, 0
9, 10556, Note_off_c, 9, 38, 0
9, 10656, Note_on_c, 9, 42, 80
9, 10720, Note_off_c, 9, 42, 0
9, 10752, Note_on_c, 9, 42, 80
9, 10816, Note_off_c, 9, 42, 0
9, 11040, Note_on_c, 9, 42, 80
9, 11104, Note_off_c, 9, 42, 0
9, 11136, Note_on_c, 9, 38, 80
9, 11136, Note_on_c, 9, 42, 80
9, 11200, Note_off_c, 9, 42, 0
9, 11324, Note_off_c, 9, 38, 0
9, 11424, Note_on_c, 9, 42, 80
9, 11488, Note_off_c, 9, 42, 0
9, 11520, Note_on_c, 9, 42, 80
9, 11584, Note_off_c, 9, 42, 0
9, 11808, Note_on_c, 9, 42, 80
9, 11872, Note_off_c, 9, 42, 0
9, 11904, Note_on_c, 9, 38, 80
9, 11904, Note_on_c, 9, 42, 80
9, 11968, Note_off_c, 9, 42, 0
9, 12092, Note_off_c, 9, 38, 0
9, 12192, Note_on_c, 9, 42, 80
9, 12256, Note_off_c, 9, 42, 0
9, 12288, Note_on_c, 9, 42, 80
9, 12352, Note_off_c, 9, 42, 0
9, 12576, Note_on_c, 9, 42, 80
9, 12640, Note_off_c, 9, 42, 0
9, 12672, Note_on_c, 9, 38, 80
9, 12672, Note_on_c, 9, 42, 80
9, 12736, Note_off_c, 9, 42, 0
9, 12860, Note_off_c, 9, 38, 0
9, 12960, Note_on_c, 9, 42, 80
9, 13024, Note_off_c, 9, 42, 0
9, 13056, Note_on_c, 9, 42, 80
9, 13120, Note_off_c, 9, 42, 0
9, 13344, Note_on_c, 9, 42, 80
9, 13408, Note_off_c, 9, 42, 0
9, 13440, Note_on_c, 9, 38, 80
9, 13440, Note_on_c, 9, 42, 80
9, 13504, Note_off_c, 9, 42, 0
9, 13628, Note_off_c, 9, 38, 0
9, 13728, Note_on_c, 9, 42, 80
9, 13792, Note_off_c, 9, 42, 0
9, 13824, Note_on_c, 9, 42, 80
9, 13888, Note_off_c, 9, 42, 0
9, 14112, Note_on_c, 9, 42, 80
9, 14176, Note_off_c, 9, 42, 0
9, 14208, Note_on_c, 9, 38, 80
9, 14208, Note_on_c, 9, 42, 80
9, 14272, Note_off_c, 9, 42, 0
9, 14396, Note_off_c, 9, 38, 0
9, 14496, Note_on_c, 9, 42, 80
9, 14560, Note_off_c, 9, 42, 0
9, 14592, Note_on_c, 9, 42, 80
9, 14656, Note_off_c, 9, 42, 0
9, 14880, Note_on_c, 9, 42, 80
9, 14944, Note_off_c, 9, 42, 0
9, 14976, Note_on_c, 9, 38, 80
9, 14976, Note_on_c, 9, 42, 80
9, 15040, Note_off_c, 9, 42, 0
9, 15164, Note_off_c, 9, 38, 0
9, 15264, Note_on_c, 9, 42, 80
9, 15328, Note_off_c, 9, 42, 0
9, 15360, Note_on_c, 9, 42, 80
9, 15424, Note_off_c, 9, 42, 0
9, 15648, Note_on_c, 9, 42, 80
9, 15712, Note_off_c, 9, 42, 0
9, 15744, Note_on_c, 9, 38, 80
9, 15744, Note_on_c, 9, 42, 80
9, 15808, Note_off_c, 9, 42, 0
9, 15932, Note_off_c, 9, 38, 0
9, 16032, Note_on_c, 9, 42, 80
9, 16096, Note_off_c, 9, 42, 0
9, 16128, Note_on_c, 9, 42, 80
9, 16192, Note_off_c, 9, 42, 0
9, 16416, Note_on_c, 9, 42, 80
9, 16480, Note_off_c, 9, 42, 0
9, 16512, Note_on_c, 9, 38, 80
9, 16512, Note_on_c, 9, 42, 80
9, 16576, Note_off_c, 9, 42, 0
9, 16700, Note_off_c, 9, 38, 0
9, 16800, Note_on_c, 9, 41, 80
9, 16864, Note_off_c, 9, 41, 0
9, 16896, Note_on_c, 9, 42, 80
9, 16960, Note_off_c, 9, 42, 0
9, 17184, Note_on_c, 9, 42, 80
9, 17248, Note_off_c, 9, 42, 0
9, 17280, Note_on_c, 9, 38, 80
9, 17280, Note_on_c, 9, 42, 80
9, 17344, Note_off_c, 9, 42, 0
9, 17468, Note_off_c, 9, 38, 0
9, 17568, Note_on_c, 9, 42, 80
9, 17632, Note_off_c, 9, 42, 0
9, 17664, Note_on_c, 9, 42, 80
9, 17728, Note_off_c, 9, 42, 0
9, 17952, Note_on_c, 9, 42, 80
9, 18016, Note_off_c, 9, 42, 0
9, 18048, Note_on_c, 9, 38, 80
9, 18048, Note_on_c, 9, 42, 80
9, 18112, Note_off_c, 9, 42, 0
9, 18236, Note_off_c, 9, 38, 0
9, 18336, Note_on_c, 9, 42, 80
9, 18400, Note_off_c, 9, 42, 0
9, 18432, Note_on_c, 9, 42, 80
9, 18496, Note_off_c, 9, 42, 0
9, 18720, Note_on_c, 9, 42, 80
9, 18784, Note_off_c, 9, 42, 0
9, 18816, Note_on_c, 9, 38, 80
9, 18816, Note_on_c, 9, 42, 80
9, 18880, Note_off_c, 9, 42, 0
9, 19004, Note_off_c, 9, 38, 0
9, 19104, Note_on_c, 9, 42, 80
9, 19168, Note_off_c, 9, 42, 0
9, 19200, Note_on_c, 9, 42, 80
9, 19264, Note_off_c, 9, 42, 0
9, 19488, Note_on_c, 9, 41, 80
9, 19552, Note_off_c, 9, 41, 0
9, 19584, Note_on_c, 9, 38, 80
9, 19584, Note_on_c, 9, 42, 80
9, 19648, Note_off_c, 9, 42, 0
9, 19772, Note_off_c, 9, 38, 0
9, 19872, Note_on_c, 9, 41, 80
9, 19936, Note_off_c, 9, 41, 0
9, 19968, Note_on_c, 9, 42, 80
9, 20032, Note_off_c, 9, 42, 0
9, 20256, Note_on_c, 9, 42, 80
9, 20320, Note_off_c, 9, 42, 0
9, 20352, Note_on_c, 9, 38, 80
9, 20352, Note_on_c, 9, 42, 80
9, 20416, Note_off_c, 9, 42, 0
9, 20540, Note_off_c, 9, 38, 0
9, 20640, Note_on_c, 9, 42, 80
9, 20704, Note_off_c, 9, 42, 0
9, 20736, Note_on_c, 9, 42, 80
9, 20800, Note_off_c, 9, 42, 0
9, 21024, Note_on_c, 9, 42, 80
9, 21088, Note_off_c, 9, 42, 0
9, 21120, Note_on_c, 9, 38, 80
9, 21120, Note_on_c, 9, 42, 80
9, 21184, Note_off_c, 9, 42, 0
9, 21308, Note_off_c, 9, 38, 0
9, 21408, Note_on_c, 9, 42, 80
9, 21472, Note_off_c, 9, 42, 0
9, 21504, Note_on_c, 9, 42, 80
9, 21568, Note_off_c, 9, 42, 0
9, 21792, Note_on_c, 9, 42, 80
9, 21856, Note_off_c, 9, 42, 0
9, 21888, Note_on_c, 9, 38, 80
9, 21888, Note_on_c, 9, 42, 80
9, 21952, Note_off_c, 9, 42, 0
9, 22076, Note_off_c, 9, 38, 0
9, 22176, Note_on_c, 9, 42, 80
9, 22240, Note_off_c, 9, 42, 0
9, 22272, Note_on_c, 9, 42, 80
9, 22336, Note_off_c, 9, 42, 0
9, 22560, Note_on_c, 9, 42, 80
9, 22624, Note_off_c, 9, 42, 0
9, 22656, Note_on_c, 9, 38, 80
9, 22656, Note_on_c, 9, 42, 80
9, 22720, Note_off_c, 9, 42, 0
9, 22844, Note_off_c, 9, 38, 0
9, 22944, Note_on_c, 9, 42, 80
9, 23008, Note_off_c, 9, 42, 0
9, 23040, Note_on_c, 9, 42, 80
9, 23104, Note_off_c, 9, 42, 0
9, 23328, Note_on_c, 9, 42, 80
9, 23392, Note_off_c, 9, 42, 0
9, 23424, Note_on_c, 9, 38, 80
9, 23424, Note_on_c, 9, 42, 80
9, 23488, Note_off_c, 9, 42, 0
9, 23612, Note_off_c, 9, 38, 0
9, 23712, Note_on_c, 9, 42, 80
9, 23776, Note_off_c, 9, 42, 0
9, 23808, Note_on_c, 9, 42, 80
9, 23872, Note_off_c, 9, 42, 0
9, 24096, Note_on_c, 9, 42, 80
9, 24160, Note_off_c, 9, 42, 0
9, 24192, Note_on_c, 9, 38, 80
9, 24192, Note_on_c, 9, 42, 80
9, 24256, Note_off_c, 9, 42, 0
9, 24380, Note_off_c, 9, 38, 0
9, 24480, Note_on_c, 9, 42, 80
9, 24544, Note_off_c, 9, 42, 0
9, 24576, Note_on_c, 9, 42, 80
9, 24640, Note_off_c, 9, 42, 0
9, 24864, Note_on_c, 9, 42, 80
9, 24928, Note_off_c, 9, 42, 0
9, 24960, Note_on_c, 9, 38, 80
9, 24960, Note_on_c, 9, 42, 80
9, 25024, Note_off_c, 9, 42, 0
9, 25148, Note_off_c, 9, 38, 0
9, 25248, Note_on_c, 9, 42, 80
9, 25312, Note_off_c, 9, 42, 0
9, 25344, Note_on_c, 9, 42, 80
9, 25408, Note_off_c, 9, 42, 0
9, 25632, Note_on_c, 9, 42, 80
9, 25696, Note_off_c, 9, 42, 0
9, 25728, Note_on_c, 9, 38, 80
9, 25728, Note_on_c, 9, 42, 80
9, 25792, Note_off_c, 9, 42, 0
9, 25916, Note_off_c, 9, 38, 0
9, 26016, Note_on_c, 9, 42, 80
9, 26080, Note_off_c, 9, 42, 0
9, 26112, Note_on_c, 9, 42, 80
9, 26176, Note_off_c, 9, 42, 0
9, 26400, Note_on_c, 9, 42, 80
9, 26464, Note_off_c, 9, 42, 0
9, 26496, Note_on_c, 9, 38, 80
9, 26496, Note_on_c, 9, 42, 80
9, 26560, Note_off_c, 9, 42, 0
9, 26684, Note_off_c, 9, 38, 0
9, 26784, Note_on_c, 9, 42, 80
9, 26848, Note_off_c, 9, 42, 0
9, 26880, Note_on_c, 9, 42, 80
9, 26944, Note_off_c, 9, 42, 0
9, 27168, Note_on_c, 9, 42, 80
9, 27232, Note_off_c, 9, 42, 0
9, 27264, Note_on_c, 9, 38, 80
9, 27264, Note_on_c, 9, 42, 80
9, 27328, Note_off_c, 9, 42, 0
9, 27452, Note_off_c, 9, 38, 0
9, 27552, Note_on_c, 9, 42, 80
9, 27616, Note_off_c, 9, 42, 0
9, 27648, Note_on_c, 9, 42, 80
9, 27712, Note_off_c, 9, 42, 0
9, 27936, Note_on_c, 9, 42, 80
9, 28000, Note_off_c, 9, 42, 0
9, 28032, Note_on_c, 9, 38, 80
9, 28032, Note_on_c, 9, 42, 80
9, 28096, Note_off_c, 9, 42, 0
9, 28220, Note_off_c, 9, 38, 0
9, 28320, Note_on_c, 9, 42, 80
9, 28384, Note_off_c, 9, 42, 0
9, 28416, Note_on_c, 9, 42, 80
9, 28480, Note_off_c, 9, 42, 0
9, 28704, Note_on_c, 9, 42, 80
9, 28768, Note_off_c, 9, 42, 0
9, 28800, Note_on_c, 9, 38, 80
9, 28800, Note_on_c, 9, 42, 80
9, 28864, Note_off_c, 9, 42, 0
9, 28988, Note_off_c, 9, 38, 0
9, 29088, Note_on_c, 9, 42, 80
9, 29152, Note_off_c, 9, 42, 0
9, 29184, Note_on_c, 9, 42, 80
9, 29248, Note_off_c, 9, 42, 0
9, 29472, Note_on_c, 9, 42, 80
9, 29536, Note_off_c, 9, 42, 0
9, 29568, Note_on_c, 9, 38, 80
9, 29568, Note_on_c, 9, 42, 80
9, 29632, Note_off_c, 9, 42, 0
9, 29756, Note_off_c, 9, 38, 0
9, 29856, Note_on_c, 9, 42, 80
9, 29920, Note_off_c, 9, 42, 0
9, 29952, Note_on_c, 9, 42, 80
9, 30016, Note_off_c, 9, 42, 0
9, 30240, Note_on_c, 9, 42, 80
9, 30304, Note_off_c, 9, 42, 0
9, 30336, Note_on_c, 9, 38, 80
9, 30336, Note_on_c, 9, 42, 80
9, 30400, Note_off_c, 9, 42, 0
9, 30524, Note_off_c, 9, 38, 0
9, 30624, Note_on_c, 9, 42, 80
9, 30688, Note_off_c, 9, 42, 0
9, 30720, Note_on_c, 9, 42, 80
9, 30784, Note_off_c, 9, 42, 0
9, 31008, Note_on_c, 9, 42, 80
9, 31072, Note_off_c, 9, 42, 0
9, 31104, Note_on_c, 9, 38, 80
9, 31104, Note_on_c, 9, 42, 80
9, 31168, Note_off_c, 9, 42, 0
9, 31292, Note_off_c, 9, 38, 0
9, 31392, Note_on_c, 9, 42, 80
9, 31456, Note_off_c, 9, 42, 0
9, 31488, Note_on_c, 9, 42, 80
9, 31552, Note_off_c, 9, 42, 0
9, 31776, Note_on_c, 9, 42, 80
9, 31840, Note_off_c, 9, 42, 0
9, 31872, Note_on_c, 9, 38, 80
9, 31872, Note_on_c, 9, 42, 80
9, 31936, Note_off_c, 9, 42, 0
9, 32060, Note_off_c, 9, 38, 0
9, 32160, Note_on_c, 9, 42, 80
9, 32224, Note_off_c, 9, 42, 0
9, 32256, Note_on_c, 9, 42, 80
9, 32320, Note_off_c, 9, 42, 0
9, 32544, Note_on_c, 9, 42, 80
9, 32608, Note_off_c, 9, 42, 0
9, 32640, Note_on_c, 9, 38, 80
9, 32640, Note_on_c, 9, 42, 80
9, 32704, Note_off_c, 9, 42, 0
9, 32828, Note_off_c, 9, 38, 0
9, 32928, Note_on_c, 9, 42, 80
9, 32992, Note_off_c, 9, 42, 0
9, 33024, Note_on_c, 9, 42, 80
9, 33088, Note_off_c, 9, 42, 0
9, 33312, Note_on_c, 9, 42, 80
9, 33376, Note_off_c, 9, 42, 0
9, 33408, Note_on_c, 9, 38, 80
9, 33408, Note_on_c, 9, 42, 80
9, 33472, Note_off_c, 9, 42, 0
9, 33596, Note_off_c, 9, 38, 0
9, 33696, Note_on_c, 9, 41, 80
9, 33760, Note_off_c, 9, 41, 0
9, 33792, Note_on_c, 9, 42, 80
9, 33856, Note_off_c, 9, 42, 0
9, 34080, Note_on_c, 9, 42, 80
9, 34144, Note_off_c, 9, 42, 0
9, 34176, Note_on_c, 9, 38, 80
9, 34176, Note_on_c, 9, 42, 80
9, 34240, Note_off_c, 9, 42, 0
9, 34364, Note_off_c, 9, 38, 0
9, 34464, Note_on_c, 9, 42, 80
9, 34528, Note_off_c, 9, 42, 0
9, 34560, Note_on_c, 9, 42, 80
9, 34624, Note_off_c, 9, 42, 0
9, 34848, Note_on_c, 9, 42, 80
9, 34912, Note_off_c, 9, 42, 0
9, 34944, Note_on_c, 9, 38, 80
9, 34944, Note_on_c, 9, 42, 80
9, 35008, Note_off_c, 9, 42, 0
9, 35132, Note_off_c, 9, 38, 0
9, 35232, Note_on_c, 9, 41, 80
9, 35296, Note_off_c, 9, 41, 0
9, 35328, Note_on_c, 9, 42, 80
9, 35392, Note_off_c, 9, 42, 0
9, 35616, Note_on_c, 9, 42, 80
9, 35680, Note_off_c, 9, 42, 0
9, 35712, Note_on_c, 9, 38, 80
9, 35712, Note_on_c, 9, 42, 80
9, 35776, Note_off_c, 9, 42, 0
9, 35900, Note_off_c, 9, 38, 0
9, 36000, Note_on_c, 9, 42, 80
9, 36064, Note_off_c, 9, 42, 0
9, 36096, Note_on_c, 9, 42, 80
9, 36160, Note_off_c, 9, 42, 0
9, 36384, Note_on_c, 9, 42, 80
9, 36448, Note_off_c, 9, 42, 0
9, 36480, Note_on_c, 9, 38, 80
9, 36480, Note_on_c, 9, 42, 80
9, 36544, Note_off_c, 9, 42, 0
9, 36668, Note_off_c, 9, 38, 0
9, 36768, Note_on_c, 9, 42, 80
9, 36832, Note_off_c, 9, 42, 0
9, 36864, Note_on_c, 9, 42, 80
9, 36928, Note_off_c, 9, 42, 0
9, 37152, Note_on_c, 9, 42, 80
9, 37216, Note_off_c, 9, 42, 0
9, 37248, Note_on_c, 9, 38, 80
9, 37248, Note_on_c, 9, 42, 80
9, 37312, Note_off_c, 9, 42, 0
9, 37436, Note_off_c, 9, 38, 0
9, 37536, Note_on_c, 9, 42, 80
9, 37600, Note_off_c, 9, 42, 0
9, 37632, Note_on_c, 9, 42, 80
9, 37696, Note_off_c, 9, 42, 0
9, 37920, Note_on_c, 9, 42, 80
9, 37984, Note_off_c, 9, 42, 0
9, 38016, Note_on_c, 9, 38, 80
9, 38016, Note_on_c, 9, 42, 80
9, 38080, Note_off_c, 9, 42, 0
9, 38204, Note_off_c, 9, 38, 0
9, 38304, Note_on_c, 9, 42, 80
9, 38368, Note_off_c, 9, 42, 0
9, 38400, Note_on_c, 9, 42, 80
9, 38464, Note_off_c, 9, 42, 0
9, 38688, Note_on_c, 9, 42, 80
9, 38752, Note_off_c, 9, 42, 0
9, 38784, Note_on_c, 9, 38, 80
9, 38784, Note_on_c, 9, 42, 80
9, 38848, Note_off_c, 9, 42, 0
9, 38972, Note_off_c, 9, 38, 0
9, 39072, Note_on_c, 9, 42, 80
9, 39136, Note_off_c, 9, 42, 0
9, 39168, Note_on_c, 9, 42, 80
9, 39232, Note_off_c, 9, 42, 0
9, 39456, Note_on_c, 9, 42, 80
9, 39520, Note_off_c, 9, 42, 0
9, 39552, Note_on_c, 9, 38, 80
9, 39552, Note_on_c, 9, 42, 80
9, 39616, Note_off_c, 9, 42, 0
9, 39740, Note_off_c, 9, 38, 0
9, 39840, Note_on_c, 9, 42, 80
9, 39904, Note_off_c, 9, 42, 0
9, 39936, Note_on_c, 9, 42, 80
9, 40000, Note_off_c, 9, 42, 0
9, 40224, Note_on_c, 9, 42, 80
9, 40288, Note_off_c, 9, 42, 0
9, 40320, Note_on_c, 9, 38, 80
9, 40320, Note_on_c, 9, 42, 80
9, 40384, Note_off_c, 9, 42, 0
9, 40508, Note_off_c, 9, 38, 0
9, 40608, Note_on_c, 9, 42, 80
9, 40672, Note_off_c, 9, 42, 0
9, 40704, Note_on_c, 9, 42, 80
9, 40768, Note_off_c, 9, 42, 0
9, 40992, Note_on_c, 9, 42, 80
9, 41056, Note_off_c, 9, 42, 0
9, 41088, Note_on_c, 9, 38, 80
9, 41088, Note_on_c, 9, 42, 80
9, 41152, Note_off_c, 9, 42, 0
9, 41276, Note_off_c, 9, 38, 0
9, 41376, Note_on_c, 9, 42, 80
9, 41440, Note_off_c, 9, 42, 0
9, 41472, Note_on_c, 9, 42, 80
9, 41536, Note_off_c, 9, 42, 0
9, 41760, Note_on_c, 9, 42, 80
9, 41824, Note_off_c, 9, 42, 0
9, 41856, Note_on_c, 9, 38, 80
9, 41856, Note_on_c, 9, 42, 80
9, 41920, Note_off_c, 9, 42, 0
9, 42044, Note_off_c, 9, 38, 0
9, 42144, Note_on_c, 9, 42, 80
9, 42208, Note_off_c, 9, 42, 0
9, 42240, Note_on_c, 9, 42, 80
9, 42304, Note_off_c, 9, 42, 0
9, 42528, Note_on_c, 9, 42, 80
9, 42592, Note_off_c, 9, 42, 0
9, 42624, Note_on_c, 9, 38, 80
9, 42624, Note_on_c, 9, 42, 80
9, 42688, Note_off_c, 9, 42, 0
9, 42812, Note_off_c, 9, 38, 0
9, 42912, Note_on_c, 9, 42, 80
9, 42976, Note_off_c, 9, 42, 0
9, 43008, Note_on_c, 9, 42, 80
9, 43072, Note_off_c, 9, 42, 0
9, 43296, Note_on_c, 9, 42, 80
9, 43360, Note_off_c, 9, 42, 0
9, 43392, Note_on_c, 9, 38, 80
9, 43392, Note_on_c, 9, 42, 80
9, 43456, Note_off_c, 9, 42, 0
9, 43580, Note_off_c, 9, 38, 0
9, 43680, Note_on_c, 9, 42, 80
9, 43744, Note_off_c, 9, 42, 0
9, 43776, Note_on_c, 9, 42, 80
9, 43840, Note_off_c, 9, 42, 0
9, 44064, Note_on_c, 9, 42, 80
9, 44128, Note_off_c, 9, 42, 0
9, 44160, Note_on_c, 9, 38, 80
9, 44160, Note_on_c, 9, 42, 80
9, 44224, Note_off_c, 9, 42, 0
9, 44348, Note_off_c, 9, 38, 0
9, 44448, Note_on_c, 9, 42, 80
9, 44512, Note_off_c, 9, 42, 0
9, 44544, Note_on_c, 9, 42, 80
9, 44608, Note_off_c, 9, 42, 0
9, 44832, Note_on_c, 9, 42, 80
9, 44896, Note_off_c, 9, 42, 0
9, 44928, Note_on_c, 9, 38, 80
9, 44928, Note_on_c, 9, 42, 80
9, 44992, Note_off_c, 9, 42, 0
9, 45116, Note_off_c, 9, 38, 0
9, 45216, Note_on_c, 9, 42, 80
9, 45280, Note_off_c, 9, 42, 0
9, 45312, Note_on_c, 9, 42, 80
9, 45376, Note_off_c, 9, 42, 0
9, 45600, Note_on_c, 9, 42, 80
9, 45664, Note_off_c, 9, 42, 0
9, 45696, Note_on_c, 9, 38, 80
9, 45696, Note_on_c, 9, 42, 80
9, 45760, Note_off_c, 9, 42, 0
9, 45884, Note_off_c, 9, 38, 0
9, 45984, Note_on_c, 9, 42, 80
9, 46048, Note_off_c, 9, 42, 0
9, 46080, Note_on_c, 9, 42, 80
9, 46144, Note_off_c, 9, 42, 0
9, 46464, Note_on_c, 9, 42, 80
9, 46528, Note_off_c, 9, 42, 0
9, 46848, Note_on_c, 9, 42, 80
9, 46912, Note_off_c, 9, 42, 0
9, 47232, Note_on_c, 9, 42, 80
9, 47296, Note_off_c, 9, 42, 0
9, 47616, Note_on_c, 9, 42, 80
9, 47680, Note_off_c, 9, 42, 0
9, 47904, Note_on_c, 9, 42, 80
9, 47968, Note_off_c, 9, 42, 0
9, 48000, Note_on_c, 9, 38, 80
9, 48000, Note_on_c, 9, 42, 80
9, 48064, Note_off_c, 9, 42, 0
9, 48188, Note_off_c, 9, 38, 0
9, 48288, Note_on_c, 9, 42, 80
9, 48352, Note_off_c, 9, 42, 0
9, 48384, Note_on_c, 9, 42, 80
9, 48448, Note_off_c, 9, 42, 0
9, 48672, Note_on_c, 9, 42, 80
9, 48736, Note_off_c, 9, 42, 0
9, 48768, Note_on_c, 9, 38, 80
9, 48768, Note_on_c, 9, 42, 80
9, 48832, Note_off_c, 9, 42, 0
9, 48956, Note_off_c, 9, 38, 0
9, 49056, Note_on_c, 9, 42, 80
9, 49120, Note_off_c, 9, 42, 0
9, 49152, Note_on_c, 9, 42, 80
9, 49216, Note_off_c, 9, 42, 0
9, 49440, Note_on_c, 9, 42, 80
9, 49504, Note_off_c, 9, 42, 0
9, 49536, Note_on_c, 9, 38, 80
9, 49536, Note_on_c, 9, 42, 80
9, 49600, Note_off_c, 9, 42, 0
9, 49724, Note_off_c, 9, 38, 0
9, 49824, Note_on_c, 9, 42, 80
9, 49888, Note_off_c, 9, 42, 0
9, 49920, Note_on_c, 9, 42, 80
9, 49984, Note_off_c, 9, 42, 0
9, 50208, Note_on_c, 9, 42, 80
9, 50272, Note_off_c, 9, 42, 0
9, 50304, Note_on_c, 9, 38, 80
9, 50304, Note_on_c, 9, 42, 80
9, 50368, Note_off_c, 9, 42, 0
9, 50492, Note_off_c, 9, 38, 0
9, 50592, Note_on_c, 9, 42, 80
9, 50656, Note_off_c, 9, 42, 0
9, 50688, Note_on_c, 9, 42, 80
9, 50752, Note_off_c, 9, 42, 0
9, 50976, Note_on_c, 9, 42, 80
9, 51040, Note_off_c, 9, 42, 0
9, 51072, Note_on_c, 9, 38, 80
9, 51072, Note_on_c, 9, 42, 80
9, 51136, Note_off_c, 9, 42, 0
9, 51260, Note_off_c, 9, 38, 0
9, 51360, Note_on_c, 9, 42, 80
9, 51424, Note_off_c, 9, 42, 0
9, 51456, Note_on_c, 9, 42, 80
9, 51520, Note_off_c, 9, 42, 0
9, 51744, Note_on_c, 9, 42, 80
9, 51808, Note_off_c, 9, 42, 0
9, 51840, Note_on_c, 9, 38, 80
9, 51840, Note_on_c, 9, 42, 80
9, 51904, Note_off_c, 9, 42, 0
9, 52028, Note_off_c, 9, 38, 0
9, 52128, Note_on_c, 9, 42, 80
9, 52192, Note_off_c, 9, 42, 0
9, 52224, Note_on_c, 9, 42, 80
9, 52288, Note_off_c, 9, 42, 0
9, 52512, Note_on_c, 9, 42, 80
9, 52576, Note_off_c, 9, 42, 0
9, 52608, Note_on_c, 9, 38, 80
9, 52608, Note_on_c, 9, 42, 80
9, 52672, Note_off_c, 9, 42, 0
9, 52796, Note_off_c, 9, 38, 0
9, 52896, Note_on_c, 9, 42, 80
9, 52960, Note_off_c, 9, 42, 0
9, 52992, Note_on_c, 9, 42, 80
9, 53056, Note_off_c, 9, 42, 0
9, 53280, Note_on_c, 9, 42, 80
9, 53344, Note_off_c, 9, 42, 0
9, 53376, Note_on_c, 9, 38, 80
9, 53376, Note_on_c, 9, 42, 80
9, 53440, Note_off_c, 9, 42, 0
9, 53564, Note_off_c, 9, 38, 0
9, 53664, Note_on_c, 9, 42, 80
9, 53728, Note_off_c, 9, 42, 0
9, 53760, Note_on_c, 9, 42, 80
9, 53824, Note_off_c, 9, 42, 0
9, 54048, Note_on_c, 9, 42, 80
9, 54112, Note_off_c, 9, 42, 0
9, 54144, Note_on_c, 9, 38, 80
9, 54144, Note_on_c, 9, 42, 80
9, 54208, Note_off_c, 9, 42, 0
9, 54332, Note_off_c, 9, 38, 0
9, 54432, Note_on_c, 9, 42, 80
9, 54496, Note_off_c, 9, 42, 0
9, 54528, Note_on_c, 9, 42, 80
9, 54592, Note_off_c, 9, 42, 0
9, 54816, Note_on_c, 9, 42, 80
9, 54880, Note_off_c, 9, 42, 0
9, 54912, Note_on_c, 9, 38, 80
9, 54912, Note_on_c, 9, 42, 80
9, 54976, Note_off_c, 9, 42, 0
9, 55100, Note_off_c, 9, 38, 0
9, 55200, Note_on_c, 9, 42, 80
9, 55264, Note_off_c, 9, 42, 0
9, 55296, Note_on_c, 9, 42, 80
9, 55360, Note_off_c, 9, 42, 0
9, 55584, Note_on_c, 9, 42, 80
9, 55648, Note_off_c, 9, 42, 0
9, 55680, Note_on_c, 9, 38, 80
9, 55680, Note_on_c, 9, 42, 80
9, 55744, Note_off_c, 9, 42, 0
9, 55868, Note_off_c, 9, 38, 0
9, 55968, Note_on_c, 9, 42, 80
9, 56032, Note_off_c, 9, 42, 0
9, 56064, Note_on_c, 9, 42, 80
9, 56128, Note_off_c, 9, 42, 0
9, 56352, Note_on_c, 9, 42, 80
9, 56416, Note_off_c, 9, 42, 0
9, 56448, Note_on_c, 9, 38, 80
9, 56448, Note_on_c, 9, 42, 80
9, 56512, Note_off_c, 9, 42, 0
9, 56636, Note_off_c, 9, 38, 0
9, 56736, Note_on_c, 9, 42, 80
9, 56800, Note_off_c, 9, 42, 0
9, 56832, Note_on_c, 9, 42, 80
9, 56896, Note_off_c, 9, 42, 0
9, 57120, Note_on_c, 9, 42, 80
9, 57184, Note_off_c, 9, 42, 0
9, 57216, Note_on_c, 9, 38, 80
9, 57216, Note_on_c, 9, 42, 80
9, 57280, Note_off_c, 9, 42, 0
9, 57404, Note_off_c, 9, 38, 0
9, 57504, Note_on_c, 9, 42, 80
9, 57568, Note_off_c, 9, 42, 0
9, 57600, Note_on_c, 9, 42, 80
9, 57664, Note_off_c, 9, 42, 0
9, 57888, Note_on_c, 9, 42, 80
9, 57952, Note_off_c, 9, 42, 0
9, 57984, Note_on_c, 9, 38, 80
9, 57984, Note_on_c, 9, 42, 80
9, 58048, Note_off_c, 9, 42, 0
9, 58172, Note_off_c, 9, 38, 0
9, 58272, Note_on_c, 9, 42, 80
9, 58336, Note_off_c, 9, 42, 0
9, 58368, Note_on_c, 9, 42, 80
9, 58432, Note_off_c, 9, 42, 0
9, 58656, Note_on_c, 9, 42, 80
9, 58720, Note_off_c, 9, 42, 0
9, 58752, Note_on_c, 9, 38, 80
9, 58752, Note_on_c, 9, 42, 80
9, 58816, Note_off_c, 9, 42, 0
9, 58940, Note_off_c, 9, 38, 0
9, 59040, Note_on_c, 9, 42, 80
9, 59104, Note_off_c, 9, 42, 0
9, 59136, Note_on_c, 9, 42, 80
9, 59200, Note_off_c, 9, 42, 0
9, 59424, Note_on_c, 9, 42, 80
9, 59488, Note_off_c, 9, 42, 0
9, 59520, Note_on_c, 9, 38, 80
9, 59520, Note_on_c, 9, 42, 80
9, 59584, Note_off_c, 9, 42, 0
9, 59708, Note_off_c, 9, 38, 0
9, 59808, Note_on_c, 9, 42, 80
9, 59872, Note_off_c, 9, 42, 0
9, 59904, Note_on_c, 9, 42, 80
9, 59968, Note_off_c, 9, 42, 0
9, 60192, Note_on_c, 9, 42, 80
9, 60256, Note_off_c, 9, 42, 0
9, 60288, Note_on_c, 9, 38, 80
9, 60288, Note_on_c, 9, 42, 80
9, 60352, Note_off_c, 9, 42, 0
9, 60476, Note_off_c, 9, 38, 0
9, 60576, Note_on_c, 9, 42, 80
9, 60640, Note_off_c, 9, 42, 0
9, 60672, Note_on_c, 9, 42, 80
9, 60736, Note_off_c, 9, 42, 0
9, 60960, Note_on_c, 9, 42, 80
9, 61024, Note_off_c, 9, 42, 0
9, 61056, Note_on_c, 9, 38, 80
9, 61056, Note_on_c, 9, 42, 80
9, 61120, Note_off_c, 9, 42, 0
9, 61244, Note_off_c, 9, 38, 0
9, 61344, Note_on_c, 9, 42, 80
9, 61408, Note_off_c, 9, 42, 0
9, 61440, Note_on_c, 9, 42, 80
9, 61504, Note_off_c, 9, 42, 0
9, 61728, Note_on_c, 9, 42, 80
9, 61792, Note_off_c, 9, 42, 0
9, 61824, Note_on_c, 9, 38, 80
9, 61824, Note_on_c, 9, 42, 80
9, 61888, Note_off_c, 9, 42, 0
9, 62012, Note_off_c, 9, 38, 0
9, 62112, Note_on_c, 9, 42, 80
9, 62176, Note_off_c, 9, 42, 0
9, 62208, Note_on_c, 9, 42, 80
9, 62272, Note_off_c, 9, 42, 0
9, 62496, Note_on_c, 9, 42, 80
9, 62560, Note_off_c, 9, 42, 0
9, 62592, Note_on_c, 9, 38, 80
9, 62592, Note_on_c, 9, 42, 80
9, 62656, Note_off_c, 9, 42, 0
9, 62780, Note_off_c, 9, 38, 0
9, 62880, Note_on_c, 9, 42, 80
9, 62944, Note_off_c, 9, 42, 0
9, 62976, Note_on_c, 9, 42, 80
9, 63040, Note_off_c, 9, 42, 0
9, 63264, Note_on_c, 9, 42, 80
9, 63328, Note_off_c, 9, 42, 0
9, 63360, Note_on_c, 9, 38, 80
9, 63360, Note_on_c, 9, 42, 80
9, 63424, Note_off_c, 9, 42, 0
9, 63548, Note_off_c, 9, 38, 0
9, 63648, Note_on_c, 9, 42, 80
9, 63712, Note_off_c, 9, 42, 0
9, 63744, Note_on_c, 9, 42, 80
9, 63808, Note_off_c, 9, 42, 0
9, 64032, Note_on_c, 9, 42, 80
9, 64096, Note_off_c, 9, 42, 0
9, 64128, Note_on_c, 9, 38, 80
9, 64128, Note_on_c, 9, 42, 80
9, 64192, Note_off_c, 9, 42, 0
9, 64316, Note_off_c, 9, 38, 0
9, 64416, Note_on_c, 9, 42, 80
9, 64480, Note_off_c, 9, 42, 0
9, 64512, Note_on_c, 9, 42, 80
9, 64576, Note_off_c, 9, 42, 0
9, 64800, Note_on_c, 9, 42, 80
9, 64864, Note_off_c, 9, 42, 0
9, 64896, Note_on_c, 9, 38, 80
9, 64896, Note_on_c, 9, 42, 80
9, 64960, Note_off_c, 9, 42, 0
9, 65084, Note_off_c, 9, 38, 0
9, 65184, Note_on_c, 9, 42, 80
9, 65248, Note_off_c, 9, 42, 0
9, 65280, Note_on_c, 9, 42, 80
9, 65344, Note_off_c, 9, 42, 0
9, 65568, Note_on_c, 9, 42, 80
9, 65632, Note_off_c, 9, 42, 0
9, 65664, Note_on_c, 9, 38, 80
9, 65664, Note_on_c, 9, 42, 80
9, 65728, Note_off_c, 9, 42, 0
9, 65852, Note_off_c, 9, 38, 0
9, 65952, Note_on_c, 9, 42, 80
9, 66016, Note_off_c, 9, 42, 0
9, 66048, Note_on_c, 9, 42, 80
9, 66112, Note_off_c, 9, 42, 0
9, 66336, Note_on_c, 9, 42, 80
9, 66400, Note_off_c, 9, 42, 0
9, 66432, Note_on_c, 9, 38, 80
9, 66432, Note_on_c, 9, 42, 80
9, 66496, Note_off_c, 9, 42, 0
9, 66620, Note_off_c, 9, 38, 0
9, 66720, Note_on_c, 9, 42, 80
9, 66784, Note_off_c, 9, 42, 0
9, 66816, Note_on_c, 9, 42, 80
9, 66880, Note_off_c, 9, 42, 0
9, 67104, Note_on_c, 9, 42, 80
9, 67168, Note_off_c, 9, 42, 0
9, 67200, Note_on_c, 9, 38, 80
9, 67200, Note_on_c, 9, 42, 80
9, 67264, Note_off_c, 9, 42, 0
9, 67388, Note_off_c, 9, 38, 0
9, 67488, Note_on_c, 9, 42, 80
9, 67552, Note_off_c, 9, 42, 0
9, 67584, Note_on_c, 9, 42, 80
9, 67648, Note_off_c, 9, 42, 0
9, 67872, Note_on_c, 9, 42, 80
9, 67936, Note_off_c, 9, 42, 0
9, 67968, Note_on_c, 9, 42, 80
9, 68032, Note_off_c, 9, 42, 0
9, 68256, Note_on_c, 9, 42, 80
9, 68320, Note_off_c, 9, 42, 0
9, 68352, Note_on_c, 9, 42, 80
9, 68416, Note_off_c, 9, 42, 0
9, 68640, Note_on_c, 9, 42, 80
9, 68704, Note_off_c, 9, 42, 0
9, 68736, Note_on_c, 9, 42, 80
9, 68800, Note_off_c, 9, 42, 0
9, 69024, Note_on_c, 9, 42, 80
9, 69088, Note_off_c, 9, 42, 0
9, 69120, Note_on_c, 9, 42, 80
9, 69184, Note_off_c, 9, 42, 0
9, 69408, Note_on_c, 9, 42, 80
9, 69472, Note_off_c, 9, 42, 0
9, 69504, Note_on_c, 9, 38, 80
9, 69504, Note_on_c, 9, 42, 80
9, 69568, Note_off_c, 9, 42, 0
9, 69692, Note_off_c, 9, 38, 0
9, 69792, Note_on_c, 9, 42, 80
9, 69856, Note_off_c, 9, 42, 0
9, 69888, Note_on_c, 9, 42, 80
9, 69952, Note_off_c, 9, 42, 0
9, 70176, Note_on_c, 9, 42, 80
9, 70240, Note_off_c, 9, 42, 0
9, 70272, Note_on_c, 9, 38, 80
9, 70272, Note_on_c, 9, 42, 80
9, 70336, Note_off_c, 9, 42, 0
9, 70460, Note_off_c, 9, 38, 0
9, 70560, Note_on_c, 9, 42, 80
9, 70624, Note_off_c, 9, 42, 0
9, 70656, Note_on_c, 9, 42, 80
9, 70720, Note_off_c, 9, 42, 0
9, 70944, Note_on_c, 9, 42, 80
9, 71008, Note_off_c, 9, 42, 0
9, 71040, Note_on_c, 9, 38, 80
9, 71040, Note_on_c, 9, 42, 80
9, 71104, Note_off_c, 9, 42, 0
9, 71228, Note_off_c, 9, 38, 0
9, 71328, Note_on_c, 9, 42, 80
9, 71392, Note_off_c, 9, 42, 0
9, 71424, Note_on_c, 9, 42, 80
9, 71488, Note_off_c, 9, 42, 0
9, 71712, Note_on_c, 9, 42, 80
9, 71776, Note_off_c, 9, 42, 0
9, 71808, Note_on_c, 9, 38, 80
9, 71808, Note_on_c, 9, 42, 80
9, 71872, Note_off_c, 9, 42, 0
9, 71996, Note_off_c, 9, 38, 0
9, 72096, Note_on_c, 9, 42, 80
9, 72160, Note_off_c, 9, 42, 0
9, 72192, Note_on_c, 9, 42, 80
9, 72256, Note_off_c, 9, 42, 0
9, 72480, Note_on_c, 9, 42, 80
9, 72544, Note_off_c, 9, 42, 0
9, 72576, Note_on_c, 9, 38, 80
9, 72576, Note_on_c, 9, 42, 80
9, 72640, Note_off_c, 9, 42, 0
9, 72764, Note_off_c, 9, 38, 0
9, 72864, Note_on_c, 9, 42, 80
9, 72928, Note_off_c, 9, 42, 0
9, 72960, Note_on_c, 9, 42, 80
9, 73024, Note_off_c, 9, 42, 0
9, 73248, Note_on_c, 9, 42, 80
9, 73312, Note_off_c, 9, 42, 0
9, 73344, Note_on_c, 9, 38, 80
9, 73344, Note_on_c, 9, 42, 80
9, 73408, Note_off_c, 9, 42, 0
9, 73532, Note_off_c, 9, 38, 0
9, 73632, Note_on_c, 9, 42, 80
9, 73696, Note_off_c, 9, 42, 0
9, 73728, Note_on_c, 9, 42, 80
9, 73792, Note_off_c, 9, 42, 0
9, 74016, Note_on_c, 9, 42, 80
9, 74080, Note_off_c, 9, 42, 0
9, 74112, Note_on_c, 9, 38, 80
9, 74112, Note_on_c, 9, 42, 80
9, 74176, Note_off_c, 9, 42, 0
9, 74300, Note_off_c, 9, 38, 0
9, 74400, Note_on_c, 9, 42, 80
9, 74464, Note_off_c, 9, 42, 0
9, 74496, Note_on_c, 9, 42, 80
9, 74560, Note_off_c, 9, 42, 0
9, 74784, Note_on_c, 9, 42, 80
9, 74848, Note_off_c, 9, 42, 0
9, 74880, Note_on_c, 9, 38, 80
9, 74880, Note_on_c, 9, 42, 80
9, 74944, Note_off_c, 9, 42, 0
9, 75068, Note_off_c, 9, 38, 0
9, 75168, Note_on_c, 9, 42, 80
9, 75232, Note_off_c, 9, 42, 0
9, 75264, Note_on_c, 9, 42, 80
9, 75328, Note_off_c, 9, 42, 0
9, 75552, Note_on_c, 9, 42, 80
9, 75616, Note_off_c, 9, 42, 0
9, 75648, Note_on_c, 9, 38, 80
9, 75648, Note_on_c, 9, 42, 80
9, 75712, Note_off_c, 9, 42, 0
9, 75836, Note_off_c, 9, 38, 0
9, 75936, Note_on_c, 9, 42, 80
9, 76000, Note_off_c, 9, 42, 0
9, 76032, Note_on_c, 9, 42, 80
9, 76096, Note_off_c, 9, 42, 0
9, 76320, Note_on_c, 9, 42, 80
9, 76384, Note_off_c, 9, 42, 0
9, 76416, Note_on_c, 9, 38, 80
9, 76416, Note_on_c, 9, 42, 80
9, 76480, Note_off_c, 9, 42, 0
9, 76604, Note_off_c, 9, 38, 0
9, 76704, Note_on_c, 9, 42, 80
9, 76768, Note_off_c, 9, 42, 0
9, 76800, Note_on_c, 9, 42, 80
9, 76864, Note_off_c, 9, 42, 0
9, 77088, Note_on_c, 9, 42, 80
9, 77152, Note_off_c, 9, 42, 0
9, 77184, Note_on_c, 9, 38, 80
9, 77184, Note_on_c, 9, 42, 80
9, 77248, Note_off_c, 9, 42, 0
9, 77372, Note_off_c, 9, 38, 0
9, 77472, Note_on_c, 9, 42, 80
9, 77536, Note_off_c, 9, 42, 0
9, 77568, Note_on_c, 9, 42, 80
9, 77632, Note_off_c, 9, 42, 0
9, 77856, Note_on_c, 9, 42, 80
9, 77920, Note_off_c, 9, 42, 0
9, 77952, Note_on_c, 9, 38, 80
9, 77952, Note_on_c, 9, 42, 80
9, 78016, Note_off_c, 9, 42, 0
9, 78140, Note_off_c, 9, 38, 0
9, 78240, Note_on_c, 9, 42, 80
9, 78304, Note_off_c, 9, 42, 0
9, 78336, Note_on_c, 9, 42, 80
9, 78400, Note_off_c, 9, 42, 0
9, 78624, Note_on_c, 9, 42, 80
9, 78688, Note_off_c, 9, 42, 0
9, 78720, Note_on_c, 9, 38, 80
9, 78720, Note_on_c, 9, 42, 80
9, 78784, Note_off_c, 9, 42, 0
9, 78908, Note_off_c, 9, 38, 0
9, 79008, Note_on_c, 9, 42, 80
9, 79072, Note_off_c, 9, 42, 0
9, 79104, Note_on_c, 9, 42, 80
9, 79168, Note_off_c, 9, 42, 0
9, 79392, Note_on_c, 9, 42, 80
9, 79456, Note_off_c, 9, 42, 0
9, 79488, Note_on_c, 9, 38, 80
9, 79488, Note_on_c, 9, 42, 80
9, 79552, Note_off_c, 9, 42, 0
9, 79676, Note_off_c, 9, 38, 0
9, 79776, Note_on_c, 9, 42, 80
9, 79840, Note_off_c, 9, 42, 0
9, 79872, Note_on_c, 9, 42, 80
9, 79936, Note_off_c, 9, 42, 0
9, 80160, Note_on_c, 9, 42, 80
9, 80224, Note_off_c, 9, 42, 0
9, 80256, Note_on_c, 9, 38, 80
9, 80256, Note_on_c, 9, 42, 80
9, 80320, Note_off_c, 9, 42, 0
9, 80444, Note_off_c, 9, 38, 0
9, 80544, Note_on_c, 9, 42, 80
9, 80608, Note_off_c, 9, 42, 0
9, 80640, Note_on_c, 9, 42, 80
9, 80704, Note_off_c, 9, 42, 0
9, 80928, Note_on_c, 9, 42, 80
9, 80992, Note_off_c, 9, 42, 0
9, 81024, Note_on_c, 9, 38, 80
9, 81024, Note_on_c, 9, 42, 80
9, 81088, Note_off_c, 9, 42, 0
9, 81212, Note_off_c, 9, 38, 0
9, 81312, Note_on_c, 9, 42, 80
9, 81376, Note_off_c, 9, 42, 0
9, 81408, Note_on_c, 9, 42, 80
9, 81472, Note_off_c, 9, 42, 0
9, 81696, Note_on_c, 9, 42, 80
9, 81760, Note_off_c, 9, 42, 0
9, 81792, Note_on_c, 9, 38, 80
9, 81792, Note_on_c, 9, 42, 80
9, 81856, Note_off_c, 9, 42, 0
9, 81980, Note_off_c, 9, 38, 0
9, 82080, Note_on_c, 9, 42, 80
9, 82144, Note_off_c, 9, 42, 0
9, 82176, Note_on_c, 9, 42, 80
9, 82240, Note_off_c, 9, 42, 0
9, 82464, Note_on_c, 9, 42, 80
9, 82528, Note_off_c, 9, 42, 0
9, 82560, Note_on_c, 9, 38, 80
9, 82560, Note_on_c, 9, 42, 80
9, 82624, Note_off_c, 9, 42, 0
9, 82748, Note_off_c, 9, 38, 0
9, 82848, Note_on_c, 9, 42, 80
9, 82912, Note_off_c, 9, 42, 0
9, 82944, Note_on_c, 9, 42, 80
9, 83008, Note_off_c, 9, 42, 0
9, 83232, Note_on_c, 9, 42, 80
9, 83296, Note_off_c, 9, 42, 0
9, 83328, Note_on_c, 9, 38, 80
9, 83328, Note_on_c, 9, 42, 80
9, 83392, Note_off_c, 9, 42, 0
9, 83516, Note_off_c, 9, 38, 0
9, 83616, Note_on_c, 9, 42, 80
9, 83680, Note_off_c, 9, 42, 0
9, 83712, Note_on_c, 9, 42, 80
9, 83776, Note_off_c, 9, 42, 0
9, 84000, Note_on_c, 9, 42, 80
9, 84064, Note_off_c, 9, 42, 0
9, 84096, Note_on_c, 9, 38, 80
9, 84096, Note_on_c, 9, 42, 80
9, 84160, Note_off_c, 9, 42, 0
9, 84284, Note_off_c, 9, 38, 0
9, 84384, Note_on_c, 9, 42, 80
9, 84448, Note_off_c, 9, 42, 0
9, 84480, Note_on_c, 9, 42, 80
9, 84544, Note_off_c, 9, 42, 0
9, 84768, Note_on_c, 9, 42, 80
9, 84832, Note_off_c, 9, 42, 0
9, 84864, Note_on_c, 9, 38, 80
9, 84864, Note_on_c, 9, 42, 80
9, 84928, Note_off_c, 9, 42, 0
9, 85052, Note_off_c, 9, 38, 0
9, 85152, Note_on_c, 9, 42, 80
9, 85216, Note_off_c, 9, 42, 0
9, 85248, Note_on_c, 9, 42, 80
9, 85312, Note_off_c, 9, 42, 0
9, 85536, Note_on_c, 9, 42, 80
9, 85600, Note_off_c, 9, 42, 0
9, 85632, Note_on_c, 9, 38, 80
9, 85632, Note_on_c, 9, 42, 80
9, 85696, Note_off_c, 9, 42, 0
9, 85820, Note_off_c, 9, 38, 0
9, 85920, Note_on_c, 9, 42, 80
9, 85984, Note_off_c, 9, 42, 0
9, 86016, Note_on_c, 9, 42, 80
9, 86080, Note_off_c, 9, 42, 0
9, 86304, Note_on_c, 9, 42, 80
9, 86368, Note_off_c, 9, 42, 0
9, 86400, Note_on_c, 9, 42, 80
9, 86464, Note_off_c, 9, 42, 0
9, 86688, Note_on_c, 9, 42, 80
9, 86752, Note_off_c, 9, 42, 0
9, 86784, Note_on_c, 9, 42, 80
9, 86848, Note_off_c, 9, 42, 0
9, 87072, Note_on_c, 9, 42, 80
9, 87136, Note_off_c, 9, 42, 0
9, 87168, Note_on_c, 9, 42, 80
9, 87232, Note_off_c, 9, 42, 0
9, 87456, Note_on_c, 9, 42, 80
9, 87520, Note_off_c, 9, 42, 0
9, 87552, Note_on_c, 9, 42, 80
9, 87616, Note_off_c, 9, 42, 0
9, 87840, Note_on_c, 9, 42, 80
9, 87904, Note_off_c, 9, 42, 0
9, 87936, Note_on_c, 9, 38, 80
9, 87936, Note_on_c, 9, 42, 80
9, 88000, Note_off_c, 9, 42, 0
9, 88124, Note_off_c, 9, 38, 0
9, 88224, Note_on_c, 9, 42, 80
9, 88288, Note_off_c, 9, 42, 0
9, 88320, Note_on_c, 9, 42, 80
9, 88384, Note_off_c, 9, 42, 0
9, 88608, Note_on_c, 9, 42, 80
9, 88672, Note_off_c, 9, 42, 0
9, 88704, Note_on_c, 9, 38, 80
9, 88704, Note_on_c, 9, 42, 80
9, 88768, Note_off_c, 9, 42, 0
9, 88892, Note_off_c, 9, 38, 0
9, 88992, Note_on_c, 9, 42, 80
9, 89056, Note_off_c, 9, 42, 0
9, 89088, Note_on_c, 9, 42, 80
9, 89152, Note_off_c, 9, 42, 0
9, 89376, Note_on_c, 9, 42, 80
9, 89440, Note_off_c, 9, 42, 0
9, 89472, Note_on_c, 9, 38, 80
9, 89472, Note_on_c, 9, 42, 80
9, 89536, Note_off_c, 9, 42, 0
9, 89660, Note_off_c, 9, 38, 0
9, 89760, Note_on_c, 9, 42, 80
9, 89824, Note_off_c, 9, 42, 0
9, 89856, Note_on_c, 9, 42, 80
9, 89920, Note_off_c, 9, 42, 0
9, 90144, Note_on_c, 9, 42, 80
9, 90208, Note_off_c, 9, 42, 0
9, 90240, Note_on_c, 9, 38, 80
9, 90240, Note_on_c, 9, 42, 80
9, 90304, Note_off_c, 9, 42, 0
9, 90428, Note_off_c, 9, 38, 0
9, 90528, Note_on_c, 9, 42, 80
9, 90592, Note_off_c, 9, 42, 0
9, 90624, Note_on_c, 9, 42, 80
9, 90688, Note_off_c, 9, 42, 0
9, 90912, Note_on_c, 9, 42, 80
9, 90976, Note_off_c, 9, 42, 0
9, 91008, Note_on_c, 9, 38, 80
9, 91008, Note_on_c, 9, 42, 80
9, 91072, Note_off_c, 9, 42, 0
9, 91196, Note_off_c, 9, 38, 0
9, 91296, Note_on_c, 9, 42, 80
9, 91360, Note_off_c, 9, 42, 0
9, 91392, Note_on_c, 9, 42, 80
9, 91456, Note_off_c, 9, 42, 0
9, 91680, Note_on_c, 9, 42, 80
9, 91744, Note_off_c, 9, 42, 0
9, 91776, Note_on_c, 9, 38, 80
9, 91776, Note_on_c, 9, 42, 80
9, 91840, Note_off_c, 9, 42, 0
9, 91964, Note_off_c, 9, 38, 0
9, 92064, Note_on_c, 9, 42, 80
9, 92128, Note_off_c, 9, 42, 0
9, 92160, Note_on_c, 9, 42, 80
9, 92224, Note_off_c, 9, 42, 0
9, 92448, Note_on_c, 9, 42, 80
9, 92512, Note_off_c, 9, 42, 0
9, 92544, Note_on_c, 9, 38, 80
9, 92544, Note_on_c, 9, 42, 80
9, 92608, Note_off_c, 9, 42, 0
9, 92732, Note_off_c, 9, 38, 0
9, 92832, Note_on_c, 9, 42, 80
9, 92896, Note_off_c, 9, 42, 0
9, 92928, Note_on_c, 9, 42, 80
9, 92992, Note_off_c, 9, 42, 0
9, 93216, Note_on_c, 9, 42, 80
9, 93280, Note_off_c, 9, 42, 0
9, 93312, Note_on_c, 9, 38, 80
9, 93312, Note_on_c, 9, 42, 80
9, 93376, Note_off_c, 9, 42, 0
9, 93500, Note_off_c, 9, 38, 0
9, 93600, Note_on_c, 9, 42, 80
9, 93664, Note_off_c, 9, 42, 0
9, 93696, Note_on_c, 9, 42, 80
9, 93760, Note_off_c, 9, 42, 0
9, 93984, Note_on_c, 9, 42, 80
9, 94048, Note_off_c, 9, 42, 0
9, 94080, Note_on_c, 9, 38, 80
9, 94080, Note_on_c, 9, 42, 80
9, 94144, Note_off_c, 9, 42, 0
9, 94268, Note_off_c, 9, 38, 0
9, 94368, Note_on_c, 9, 42, 80
9, 94432, Note_off_c, 9, 42, 0
9, 94464, Note_on_c, 9, 42, 80
9, 94528, Note_off_c, 9, 42, 0
9, 94752, Note_on_c, 9, 42, 80
9, 94816, Note_off_c, 9, 42, 0
9, 94848, Note_on_c, 9, 38, 80
9, 94848, Note_on_c, 9, 42, 80
9, 94912, Note_off_c, 9, 42, 0
9, 95036, Note_off_c, 9, 38, 0
9, 95136, Note_on_c, 9, 42, 80
9, 95200, Note_off_c, 9, 42, 0
9, 95232, Note_on_c, 9, 42, 80
9, 95296, Note_off_c, 9, 42, 0
9, 95520, Note_on_c, 9, 42, 80
9, 95584, Note_off_c, 9, 42, 0
9, 95616, Note_on_c, 9, 38, 80
9, 95616, Note_on_c, 9, 42, 80
9, 95680, Note_off_c, 9, 42, 0
9, 95804, Note_off_c, 9, 38, 0
9, 95904, Note_on_c, 9, 42, 80
9, 95968, Note_off_c, 9, 42, 0
9, 96000, Note_on_c, 9, 42, 80
9, 96064, Note_off_c, 9, 42, 0
9, 96288, Note_on_c, 9, 42, 80
9, 96352, Note_off_c, 9, 42, 0
9, 96384, Note_on_c, 9, 38, 80
9, 96384, Note_on_c, 9, 42, 80
9, 96448, Note_off_c, 9, 42, 0
9, 96572, Note_off_c, 9, 38, 0
9, 96672, Note_on_c, 9, 42, 80
9, 96736, Note_off_c, 9, 42, 0
9, 96768, Note_on_c, 9, 42, 80
9, 96832, Note_off_c, 9, 42, 0
9, 97056, Note_on_c, 9, 42, 80
9, 97120, Note_off_c, 9, 42, 0
9, 97152, Note_on_c, 9, 38, 80
9, 97152, Note_on_c, 9, 42, 80
9, 97216, Note_off_c, 9, 42, 0
9, 97340, Note_off_c, 9, 38, 0
9, 97440, Note_on_c, 9, 42, 80
9, 97504, Note_off_c, 9, 42, 0
9, 97536, Note_on_c, 9, 42, 80
9, 97600, Note_off_c, 9, 42, 0
9, 97824, Note_on_c, 9, 42, 80
9, 97888, Note_off_c, 9, 42, 0
9, 97920, Note_on_c, 9, 38, 80
9, 97920, Note_on_c, 9, 42, 80
9, 97984, Note_off_c, 9, 42, 0
9, 98108, Note_off_c, 9, 38, 0
9, 98208, Note_on_c, 9, 42, 80
9, 98272, Note_off_c, 9, 42, 0
9, 98304, Note_on_c, 9, 42, 80
9, 98368, Note_off_c, 9, 42, 0
9, 98592, Note_on_c, 9, 42, 80
9, 98656, Note_off_c, 9, 42, 0
9, 98688, Note_on_c, 9, 38, 80
9, 98688, Note_on_c, 9, 42, 80
9, 98752, Note_off_c, 9, 42, 0
9, 98876, Note_off_c, 9, 38, 0
9, 98976, Note_on_c, 9, 42, 80
9, 99040, Note_off_c, 9, 42, 0
9, 99072, Note_on_c, 9, 42, 80
9, 99136, Note_off_c, 9, 42, 0
9, 99360, Note_on_c, 9, 42, 80
9, 99424, Note_off_c, 9, 42, 0
9, 99456, Note_on_c, 9, 38, 80
9, 99456, Note_on_c, 9, 42, 80
9, 99520, Note_off_c, 9, 42, 0
9, 99644, Note_off_c, 9, 38, 0
9, 99744, Note_on_c, 9, 42, 80
9, 99808, Note_off_c, 9, 42, 0
9, 99840, Note_on_c, 9, 42, 80
9, 99904, Note_off_c, 9, 42, 0
9, 100128, Note_on_c, 9, 42, 80
9, 100192, Note_off_c, 9, 42, 0
9, 100224, Note_on_c, 9, 38, 80
9, 100224, Note_on_c, 9, 42, 80
9, 100288, Note_off_c, 9, 42, 0
9, 100412, Note_off_c, 9, 38, 0
9, 100512, Note_on_c, 9, 42, 80
9, 100576, Note_off_c, 9, 42, 0
9, 100608, Note_on_c, 9, 42, 80
9, 100672, Note_off_c, 9, 42, 0
9, 100896, Note_on_c, 9, 42, 80
9, 100960, Note_off_c, 9, 42, 0
9, 100992, Note_on_c, 9, 38, 80
9, 100992, Note_on_c, 9, 42, 80
9, 101056, Note_off_c, 9, 42, 0
9, 101180, Note_off_c, 9, 38, 0
9, 101280, Note_on_c, 9, 42, 80
9, 101344, Note_off_c, 9, 42, 0
9, 101376, Note_on_c, 9, 42, 80
9, 101440, Note_off_c, 9, 42, 0
9, 101664, Note_on_c, 9, 42, 80
9, 101728, Note_off_c, 9, 42, 0
9, 101760, Note_on_c, 9, 38, 80
9, 101760, Note_on_c, 9, 42, 80
9, 101824, Note_off_c, 9, 42, 0
9, 101948, Note_off_c, 9, 38, 0
9, 102048, Note_on_c, 9, 42, 80
9, 102112, Note_off_c, 9, 42, 0
9, 102144, Note_on_c, 9, 42, 80
9, 102208, Note_off_c, 9, 42, 0
9, 102432, Note_on_c, 9, 42, 80
9, 102496, Note_off_c, 9, 42, 0
9, 102528, Note_on_c, 9, 38, 80
9, 102528, Note_on_c, 9, 42, 80
9, 102592, Note_off_c, 9, 42, 0
9, 102716, Note_off_c, 9, 38, 0
9, 102816, Note_on_c, 9, 42, 80
9, 102880, Note_off_c, 9, 42, 0
9, 102912, Note_on_c, 9, 42, 80
9, 102976, Note_off_c, 9, 42, 0
9, 103200, Note_on_c, 9, 42, 79
9, 103264, Note_off_c, 9, 42, 0
9, 103296, Note_on_c, 9, 38, 79
9, 103296, Note_on_c, 9, 42, 79
9, 103360, Note_off_c, 9, 42, 0
9, 103484, Note_off_c, 9, 38, 0
9, 103584, Note_on_c, 9, 42, 78
9, 103648, Note_off_c, 9, 42, 0
9, 103680, Note_on_c, 9, 42, 77
9, 103744, Note_off_c, 9, 42, 0
9, 103968, Note_on_c, 9, 42, 76
9, 104032, Note_off_c, 9, 42, 0
9, 104064, Note_on_c, 9, 38, 75
9, 104064, Note_on_c, 9, 42, 75
9, 104128, Note_off_c, 9, 42, 0
9, 104252, Note_off_c, 9, 38, 0
9, 104352, Note_on_c, 9, 42, 74
9, 104416, Note_off_c, 9, 42, 0
9, 104448, Note_on_c, 9, 42, 74
9, 104512, Note_off_c, 9, 42, 0
9, 104736, Note_on_c, 9, 42, 72
9, 104800, Note_off_c, 9, 42, 0
9, 104832, Note_on_c, 9, 38, 72
9, 104832, Note_on_c, 9, 42, 72
9, 104896, Note_off_c, 9, 42, 0
9, 105020, Note_off_c, 9, 38, 0
9, 105120, Note_on_c, 9, 42, 71
9, 105184, Note_off_c, 9, 42, 0
9, 105216, Note_on_c, 9, 42, 70
9, 105280, Note_off_c, 9, 42, 0
9, 105504, Note_on_c, 9, 42, 69
9, 105568, Note_off_c, 9, 42, 0
9, 105600, Note_on_c, 9, 38, 69
9, 105600, Note_on_c, 9, 42, 69
9, 105664, Note_off_c, 9, 42, 0
9, 105788, Note_off_c, 9, 38, 0
9, 105888, Note_on_c, 9, 42, 67
9, 105952, Note_off_c, 9, 42, 0
9, 105984, Note_on_c, 9, 42, 67
9, 106048, Note_off_c, 9, 42, 0
9, 106272, Note_on_c, 9, 42, 66
9, 106336, Note_off_c, 9, 42, 0
9, 106368, Note_on_c, 9, 38, 65
9, 106368, Note_on_c, 9, 42, 65
9, 106432, Note_off_c, 9, 42, 0
9, 106556, Note_off_c, 9, 38, 0
9, 106656, Note_on_c, 9, 42, 64
9, 106720, Note_off_c, 9, 42, 0
9, 106752, Note_on_c, 9, 42, 63
9, 106816, Note_off_c, 9, 42, 0
9, 107040, Note_on_c, 9, 42, 62
9, 107104, Note_off_c, 9, 42, 0
9, 107136, Note_on_c, 9, 38, 62
9, 107136, Note_on_c, 9, 42, 62
9, 107200, Note_off_c, 9, 42, 0
9, 107324, Note_off_c, 9, 38, 0
9, 107424, Note_on_c, 9, 42, 60
9, 107488, Note_off_c, 9, 42, 0
9, 107520, Note_on_c, 9, 42, 60
9, 107584, Note_off_c, 9, 42, 0
9, 107808, Note_on_c, 9, 42, 59
9, 107872, Note_off_c, 9, 42, 0
9, 107904, Note_on_c, 9, 42, 58
9, 107968, Note_off_c, 9, 42, 0
9, 108192, Note_on_c, 9, 42, 57
9, 108256, Note_off_c, 9, 42, 0
9, 108288, Note_on_c, 9, 42, 57
9, 108352, Note_off_c, 9, 42, 0
9, 108576, Note_on_c, 9, 42, 55
9, 108640, Note_off_c, 9, 42, 0
9, 108672, Note_on_c, 9, 42, 55
9, 108736, Note_off_c, 9, 42, 0
9, 108960, Note_on_c, 9, 42, 54
9, 109024, Note_off_c, 9, 42, 0
9, 109056, Note_on_c, 9, 42, 53
9, 109120, Note_off_c, 9, 42, 0
9, 109344, Note_on_c, 9, 42, 52
9, 109408, Note_off_c, 9, 42, 0
9, 109440, Note_on_c, 9, 38, 52
9, 109440, Note_on_c, 9, 42, 52
9, 109504, Note_off_c, 9, 42, 0
9, 109628, Note_off_c, 9, 38, 0
9, 109728, Note_on_c, 9, 42, 50
9, 109792, Note_off_c, 9, 42, 0
9, 109824, Note_on_c, 9, 42, 50
9, 109888, Note_off_c, 9, 42, 0
9, 110112, Note_on_c, 9, 42, 49
9, 110176, Note_off_c, 9, 42, 0
9, 110208, Note_on_c, 9, 38, 48
9, 110208, Note_on_c, 9, 42, 48
9, 110272, Note_off_c, 9, 42, 0
9, 110396, Note_off_c, 9, 38, 0
9, 110496, Note_on_c, 9, 42, 47
9, 110560, Note_off_c, 9, 42, 0
9, 110976, Note_on_c, 9, 38, 45
9, 111164, Note_off_c, 9, 38, 0
9, 111744, Note_on_c, 9, 38, 41
9, 111932, Note_off_c, 9, 38, 0
9, 112512, Note_on_c, 9, 38, 38
9, 112700, Note_off_c, 9, 38, 0
9, 113280, Note_on_c, 9, 38, 34
9, 113468, Note_off_c, 9, 38, 0
9, 115584, Note_on_c, 9, 38, 24
9, 115772, Note_off_c, 9, 38, 0
9, 116352, Note_on_c, 9, 38, 21
9, 116540, Note_off_c, 9, 38, 0
9, 117120, Note_on_c, 9, 38, 17
9, 117308, Note_off_c, 9, 38, 0
9, 117888, Note_on_c, 9, 38, 14
9, 118076, Note_off_c, 9, 38, 0
9, 118656, Note_on_c, 9, 38, 11
9, 118844, Note_off_c, 9, 38, 0
9, 119424, Note_on_c, 9, 38, 7
9, 119612, Note_off_c, 9, 38, 0
9, 119612, End_track
10, 0, Start_track
10, 0, Title_t, "Seq: T.D.Zim'n"
10, 0, Key_signature, 0, "major"
10, 0, End_track
11, 0, Start_track
11, 0, Title_t, "Good Luck Charm"
11, 0, Key_signature, 0, "major"
11, 0, End_track
12, 0, Start_track
12, 0, Title_t, "Elvis Presley"
12, 0, Key_signature, 0, "major"
12, 0, End_track
0, 0, End_of_file
