0, 0, Header, 1, 3, 960
1, 0, Start_track
1, 0, Control_c, 0, 101, 0
1, 0, Control_c, 0, 100, 0
1, 0, Control_c, 0, 6, 12
1, 0, Control_c, 0, 38, 0
1, 0, Control_c, 1, 101, 0
1, 0, Control_c, 1, 100, 0
1, 0, Control_c, 1, 6, 12
1, 0, Control_c, 1, 38, 0
1, 0, Control_c, 2, 101, 0
1, 0, Control_c, 2, 100, 0
1, 0, Control_c, 2, 6, 12
1, 0, Control_c, 2, 38, 0
1, 0, Control_c, 3, 101, 0
1, 0, Control_c, 3, 100, 0
1, 0, Control_c, 3, 6, 12
1, 0, Control_c, 3, 38, 0
1, 0, Control_c, 4, 101, 0
1, 0, Control_c, 4, 100, 0
1, 0, Control_c, 4, 6, 12
1, 0, Control_c, 4, 38, 0
1, 0, Control_c, 5, 101, 0
1, 0, Control_c, 5, 100, 0
1, 0, Control_c, 5, 6, 12
1, 0, Control_c, 5, 38, 0
1, 0, Control_c, 6, 101, 0
1, 0, Control_c, 6, 100, 0
1, 0, Control_c, 6, 6, 12
1, 0, Control_c, 6, 38, 0
1, 0, Control_c, 7, 101, 0
1, 0, Control_c, 7, 100, 0
1, 0, Control_c, 7, 6, 12
1, 0, Control_c, 7, 38, 0
1, 0, Control_c, 8, 101, 0
1, 0, Control_c, 8, 100, 0
1, 0, Control_c, 8, 6, 12
1, 0, Control_c, 8, 38, 0
1, 0, Control_c, 9, 101, 0
1, 0, Control_c, 9, 100, 0
1, 0, Control_c, 9, 6, 12
1, 0, Control_c, 9, 38, 0
1, 0, Control_c, 10, 101, 0
1, 0, Control_c, 10, 100, 0
1, 0, Control_c, 10, 6, 12
1, 0, Control_c, 10, 38, 0
1, 0, Control_c, 11, 101, 0
1, 0, Control_c, 11, 100, 0
1, 0, Control_c, 11, 6, 12
1, 0, Control_c, 11, 38, 0
1, 0, Control_c, 12, 101, 0
1, 0, Control_c, 12, 100, 0
1, 0, Control_c, 12, 6, 12
1, 0, Control_c, 12, 38, 0
1, 0, Control_c, 13, 101, 0
1, 0, Control_c, 13, 100, 0
1, 0, Control_c, 13, 6, 12
1, 0, Control_c, 13, 38, 0
1, 0, Control_c, 14, 101, 0
1, 0, Control_c, 14, 100, 0
1, 0, Control_c, 14, 6, 12
1, 0, Control_c, 14, 38, 0
1, 0, Control_c, 15, 101, 0
1, 0, Control_c, 15, 100, 0
1, 0, Control_c, 15, 6, 12
1, 0, Control_c, 15, 38, 0
1, 0, Time_signature, 4, 2, 24, 8
1, 0, Tempo, 394736
1, 0, End_track
2, 0, Start_track
2, 0, Pitch_bend_c, 0, 8192
2, 0, Control_c, 0, 7, 127
2, 0, Control_c, 0, 10, 0
2, 0, Control_c, 0, 93, 0
2, 0, Control_c, 0, 91, 0
2, 0, Control_c, 0, 95, 0
2, 0, Control_c, 0, 92, 0
2, 0, Control_c, 0, 11, 127
2, 0, Program_c, 0, 29
2, 0, Control_c, 1, 7, 127
2, 0, Control_c, 1, 10, 0
2, 0, Control_c, 1, 93, 0
2, 0, Control_c, 1, 91, 0
2, 0, Control_c, 1, 95, 0
2, 0, Control_c, 1, 92, 0
2, 0, Control_c, 1, 11, 127
2, 0, Program_c, 1, 29
2, 0, Note_on_c, 0, 52, 95
2, 0, Note_on_c, 0, 47, 95
2, 0, Note_on_c, 0, 40, 95
2, 960, Note_off_c, 0, 52, 95
2, 960, Note_off_c, 0, 47, 95
2, 960, Note_off_c, 0, 40, 95
2, 960, Note_on_c, 0, 47, 95
2, 960, Note_on_c, 0, 40, 95
2, 1440, Note_off_c, 0, 47, 95
2, 1440, Note_off_c, 0, 40, 95
2, 1440, Note_on_c, 0, 40, 95
2, 1920, Note_off_c, 0, 40, 95
2, 1920, Note_on_c, 0, 49, 95
2, 1920, Note_on_c, 0, 40, 95
2, 2880, Note_off_c, 0, 49, 95
2, 2880, Note_off_c, 0, 40, 95
2, 2880, Note_on_c, 0, 40, 95
2, 2956, Note_off_c, 0, 40, 95
2, 3360, Note_on_c, 0, 49, 95
2, 3840, Note_off_c, 0, 49, 95
2, 3840, Note_on_c, 0, 50, 70
2, 4320, Note_off_c, 0, 50, 70
2, 4320, Note_on_c, 0, 54, 95
2, 4320, Note_on_c, 0, 50, 95
2, 4800, Note_off_c, 0, 54, 95
2, 4800, Note_off_c, 0, 50, 95
2, 5280, Note_on_c, 0, 47, 95
2, 5280, Note_on_c, 0, 40, 95
2, 5760, Note_off_c, 0, 47, 95
2, 5760, Note_off_c, 0, 40, 95
2, 5760, Note_on_c, 0, 48, 70
2, 6240, Note_off_c, 0, 48, 70
2, 6240, Note_on_c, 0, 48, 95
2, 6240, Note_on_c, 0, 40, 95
2, 6720, Note_off_c, 0, 48, 95
2, 6720, Note_off_c, 0, 40, 95
2, 12000, Note_on_c, 0, 58, 95
2, 12480, Note_off_c, 0, 58, 95
2, 12480, Note_on_c, 0, 59, 70
2, 12960, Note_off_c, 0, 59, 70
2, 12960, Note_on_c, 0, 62, 95
2, 13440, Note_off_c, 0, 62, 95
2, 13440, Note_on_c, 0, 57, 95
2, 13920, Note_off_c, 0, 57, 95
2, 13920, Note_on_c, 0, 55, 95
2, 14400, Note_off_c, 0, 55, 95
2, 14400, Note_on_c, 0, 52, 95
2, 14880, Note_off_c, 0, 52, 95
2, 14880, Note_on_c, 0, 50, 95
2, 15360, Note_off_c, 0, 50, 95
2, 15360, Note_on_c, 0, 52, 95
2, 16320, Note_off_c, 0, 52, 95
2, 16320, Note_on_c, 0, 52, 95
2, 17280, Note_off_c, 0, 52, 95
2, 20160, Note_on_c, 0, 59, 95
2, 20640, Note_off_c, 0, 59, 95
2, 20640, Note_on_c, 0, 62, 95
2, 21960, Note_on_c, 1, 56, 95
2, 22080, Note_off_c, 0, 62, 95
2, 22080, Note_off_c, 1, 56, 95
2, 22080, Note_on_c, 1, 57, 95
2, 22560, Note_off_c, 1, 57, 95
2, 22560, Note_on_c, 0, 55, 95
2, 23040, Note_off_c, 0, 55, 95
2, 23040, Note_on_c, 0, 52, 95
2, 24000, Note_off_c, 0, 52, 95
2, 24000, Note_on_c, 0, 52, 95
2, 24960, Note_off_c, 0, 52, 95
2, 27720, Note_on_c, 1, 58, 95
2, 27840, Note_off_c, 1, 58, 95
2, 27840, Note_on_c, 1, 59, 95
2, 28320, Note_off_c, 1, 59, 95
2, 28320, Note_on_c, 0, 62, 95
2, 28320, Note_on_c, 0, 59, 95
2, 28800, Note_off_c, 0, 62, 95
2, 28800, Note_off_c, 0, 59, 95
2, 28800, Note_on_c, 0, 62, 95
2, 28800, Note_on_c, 0, 59, 95
2, 29280, Note_off_c, 0, 62, 95
2, 29280, Note_off_c, 0, 59, 95
2, 29280, Note_on_c, 0, 62, 95
2, 29280, Note_on_c, 0, 59, 95
2, 29760, Note_off_c, 0, 62, 95
2, 29760, Note_off_c, 0, 59, 95
2, 29760, Note_on_c, 0, 57, 95
2, 30240, Note_off_c, 0, 57, 95
2, 30240, Note_on_c, 0, 55, 95
2, 30720, Note_off_c, 0, 55, 95
2, 30720, Note_on_c, 0, 52, 95
2, 31680, Note_off_c, 0, 52, 95
2, 31680, Note_on_c, 0, 52, 95
2, 32640, Note_off_c, 0, 52, 95
2, 35040, Note_on_c, 0, 58, 95
2, 35520, Note_off_c, 0, 58, 95
2, 35520, Note_on_c, 0, 59, 70
2, 36000, Note_off_c, 0, 59, 70
2, 36000, Note_on_c, 0, 67, 95
2, 36000, Note_on_c, 0, 62, 95
2, 36480, Note_off_c, 0, 67, 95
2, 36480, Note_off_c, 0, 62, 95
2, 36480, Note_on_c, 0, 67, 95
2, 36480, Note_on_c, 0, 62, 95
2, 36960, Note_off_c, 0, 67, 95
2, 36960, Note_off_c, 0, 62, 95
2, 36960, Note_on_c, 0, 62, 95
2, 37440, Note_off_c, 0, 62, 95
2, 37440, Note_on_c, 1, 59, 95
2, 37560, Pitch_bend_c, 1, 7552
2, 37680, Pitch_bend_c, 1, 6784
2, 37680, Pitch_bend_c, 1, 8192
2, 37680, Note_off_c, 1, 59, 95
2, 37680, Note_on_c, 0, 57, 95
2, 37920, Note_off_c, 0, 57, 95
2, 37920, Note_on_c, 0, 55, 95
2, 38400, Note_off_c, 0, 55, 95
2, 38400, Note_on_c, 0, 52, 95
2, 39360, Note_off_c, 0, 52, 95
2, 39360, Note_on_c, 0, 52, 95
2, 40320, Note_off_c, 0, 52, 95
2, 42720, Note_on_c, 0, 62, 95
2, 43200, Note_off_c, 0, 62, 95
2, 43200, Note_on_c, 0, 62, 95
2, 43680, Note_off_c, 0, 62, 95
2, 43680, Note_on_c, 0, 62, 95
2, 44040, Note_on_c, 1, 56, 95
2, 44160, Note_off_c, 0, 62, 95
2, 44160, Note_off_c, 1, 56, 95
2, 44160, Note_on_c, 1, 57, 95
2, 44640, Note_off_c, 1, 57, 95
2, 44640, Note_on_c, 0, 55, 95
2, 45120, Note_off_c, 0, 55, 95
2, 45120, Note_on_c, 0, 52, 95
2, 46080, Note_off_c, 0, 52, 95
2, 46080, Note_on_c, 0, 52, 95
2, 47040, Note_off_c, 0, 52, 95
2, 47040, Note_on_c, 0, 52, 95
2, 48000, Note_off_c, 0, 52, 95
2, 50400, Note_on_c, 0, 58, 95
2, 50880, Note_off_c, 0, 58, 95
2, 50880, Note_on_c, 0, 59, 70
2, 51360, Note_off_c, 0, 59, 70
2, 51360, Note_on_c, 0, 67, 95
2, 51360, Note_on_c, 0, 62, 95
2, 52680, Note_on_c, 1, 59, 95
2, 52800, Note_off_c, 0, 67, 95
2, 52800, Note_off_c, 0, 62, 95
2, 52800, Note_off_c, 1, 59, 95
2, 52800, Note_on_c, 1, 57, 95
2, 53280, Note_off_c, 1, 57, 95
2, 53280, Note_on_c, 0, 55, 95
2, 53760, Note_off_c, 0, 55, 95
2, 53760, Note_on_c, 0, 52, 95
2, 54720, Note_off_c, 0, 52, 95
2, 54720, Note_on_c, 0, 52, 95
2, 55680, Note_off_c, 0, 52, 95
2, 58080, Note_on_c, 0, 62, 95
2, 58560, Note_off_c, 0, 62, 95
2, 58560, Note_on_c, 0, 57, 95
2, 59040, Note_off_c, 0, 57, 95
2, 59040, Note_on_c, 0, 55, 95
2, 59520, Note_off_c, 0, 55, 95
2, 59520, Note_on_c, 0, 57, 95
2, 59760, Note_off_c, 0, 57, 95
2, 59760, Note_on_c, 0, 55, 70
2, 60000, Note_off_c, 0, 55, 70
2, 60000, Note_on_c, 0, 52, 95
2, 60480, Note_off_c, 0, 52, 95
2, 60480, Note_on_c, 0, 57, 95
2, 61440, Note_off_c, 0, 57, 95
2, 61440, Note_on_c, 0, 57, 95
2, 62400, Note_off_c, 0, 57, 95
2, 62400, Note_on_c, 0, 64, 95
2, 62400, Note_on_c, 0, 61, 95
2, 65280, Note_off_c, 0, 64, 95
2, 65280, Note_off_c, 0, 61, 95
2, 65280, Note_on_c, 0, 55, 95
2, 66240, Note_off_c, 0, 55, 95
2, 66240, Note_on_c, 0, 59, 95
2, 66720, Note_off_c, 0, 59, 95
2, 66720, Note_on_c, 0, 62, 95
2, 69120, Note_off_c, 0, 62, 95
2, 69120, Note_on_c, 0, 64, 95
2, 71040, Note_off_c, 0, 64, 95
2, 71040, Note_on_c, 0, 64, 95
2, 72000, Note_off_c, 0, 64, 95
2, 74880, Note_on_c, 0, 57, 95
2, 75360, Note_off_c, 0, 57, 95
2, 75360, Note_on_c, 0, 59, 95
2, 75840, Note_off_c, 0, 59, 95
2, 75840, Note_on_c, 0, 62, 95
2, 76800, Note_off_c, 0, 62, 95
2, 76800, Note_on_c, 0, 57, 95
2, 77760, Note_off_c, 0, 57, 95
2, 77760, Note_on_c, 0, 64, 95
2, 77760, Note_on_c, 0, 61, 95
2, 77760, Note_on_c, 0, 57, 95
2, 80640, Note_off_c, 0, 64, 95
2, 80640, Note_off_c, 0, 61, 95
2, 80640, Note_off_c, 0, 57, 95
2, 80640, Note_on_c, 0, 55, 95
2, 81600, Note_off_c, 0, 55, 95
2, 81600, Note_on_c, 0, 62, 95
2, 81600, Note_on_c, 0, 59, 95
2, 82560, Note_off_c, 0, 62, 95
2, 82560, Note_off_c, 0, 59, 95
2, 82560, Note_on_c, 0, 62, 95
2, 82560, Note_on_c, 0, 59, 95
2, 83520, Note_off_c, 0, 62, 95
2, 83520, Note_off_c, 0, 59, 95
2, 84480, Note_on_c, 0, 40, 95
2, 85440, Note_off_c, 0, 40, 95
2, 85440, Note_on_c, 0, 64, 95
2, 85440, Note_on_c, 0, 59, 95
2, 86400, Note_off_c, 0, 64, 95
2, 86400, Note_off_c, 0, 59, 95
2, 86400, Note_on_c, 0, 59, 95
2, 86400, Note_on_c, 0, 54, 95
2, 86880, Note_off_c, 0, 59, 95
2, 86880, Note_off_c, 0, 54, 95
2, 86880, Note_on_c, 0, 62, 95
2, 86880, Note_on_c, 0, 57, 95
2, 87360, Note_off_c, 0, 62, 95
2, 87360, Note_off_c, 0, 57, 95
2, 87360, Note_on_c, 0, 64, 95
2, 87360, Note_on_c, 0, 59, 95
2, 88320, Note_off_c, 0, 64, 95
2, 88320, Note_off_c, 0, 59, 95
2, 88320, Note_on_c, 0, 64, 95
2, 88320, Note_on_c, 0, 59, 95
2, 88800, Note_off_c, 0, 64, 95
2, 88800, Note_off_c, 0, 59, 95
2, 88800, Note_on_c, 0, 62, 95
2, 88800, Note_on_c, 0, 57, 95
2, 89280, Note_off_c, 0, 62, 95
2, 89280, Note_off_c, 0, 57, 95
2, 92160, Note_on_c, 1, 59, 95
2, 92280, Pitch_bend_c, 1, 8320
2, 92400, Pitch_bend_c, 1, 8448
2, 92520, Pitch_bend_c, 1, 8704
2, 92640, Pitch_bend_c, 1, 8832
2, 92640, Pitch_bend_c, 1, 8192
2, 92640, Note_off_c, 1, 59, 95
2, 92640, Note_on_c, 0, 60, 95
2, 93120, Note_off_c, 0, 60, 95
2, 93120, Note_on_c, 0, 64, 95
2, 93120, Note_on_c, 0, 61, 95
2, 94080, Note_off_c, 0, 64, 95
2, 94080, Note_off_c, 0, 61, 95
2, 94080, Note_on_c, 0, 64, 95
2, 94080, Note_on_c, 0, 61, 95
2, 96000, Note_off_c, 0, 64, 95
2, 96000, Note_off_c, 0, 61, 95
2, 96000, Note_on_c, 0, 58, 95
2, 96480, Note_off_c, 0, 58, 95
2, 96480, Note_on_c, 0, 62, 95
2, 96960, Note_off_c, 0, 62, 95
2, 96960, Note_on_c, 0, 67, 95
2, 96960, Note_on_c, 0, 62, 95
2, 97920, Note_off_c, 0, 67, 95
2, 97920, Note_off_c, 0, 62, 95
2, 97920, Note_on_c, 0, 62, 95
2, 97920, Note_on_c, 0, 58, 95
2, 99840, Note_off_c, 0, 62, 95
2, 99840, Note_off_c, 0, 58, 95
2, 99840, Note_on_c, 1, 62, 95
2, 99840, Note_on_c, 1, 57, 95
2, 99960, Pitch_bend_c, 1, 8448
2, 99960, Pitch_bend_c, 1, 8448
2, 100080, Pitch_bend_c, 1, 8832
2, 100080, Pitch_bend_c, 1, 8832
2, 100200, Pitch_bend_c, 1, 9216
2, 100200, Pitch_bend_c, 1, 9216
2, 100320, Pitch_bend_c, 1, 9600
2, 100320, Pitch_bend_c, 1, 8192
2, 100320, Note_off_c, 1, 62, 95
2, 100320, Pitch_bend_c, 1, 9600
2, 100320, Pitch_bend_c, 1, 8192
2, 100320, Note_off_c, 1, 57, 95
2, 100320, Note_on_c, 0, 64, 95
2, 100320, Note_on_c, 0, 59, 95
2, 100800, Note_off_c, 0, 64, 95
2, 100800, Note_off_c, 0, 59, 95
2, 100800, Note_on_c, 0, 64, 95
2, 100800, Note_on_c, 0, 59, 95
2, 101760, Note_off_c, 0, 64, 95
2, 101760, Note_off_c, 0, 59, 95
2, 101760, Note_on_c, 0, 59, 95
2, 102720, Note_off_c, 0, 59, 95
2, 102720, Note_on_c, 0, 64, 95
2, 103680, Note_off_c, 0, 64, 95
2, 107520, Note_on_c, 0, 61, 95
2, 107520, Note_on_c, 0, 57, 95
2, 109440, Note_off_c, 0, 61, 95
2, 109440, Note_off_c, 0, 57, 95
2, 109440, Note_on_c, 0, 64, 95
2, 109440, Note_on_c, 0, 61, 95
2, 111360, Note_off_c, 0, 64, 95
2, 111360, Note_off_c, 0, 61, 95
2, 111360, Note_on_c, 0, 59, 95
2, 111360, Note_on_c, 0, 55, 95
2, 111840, Note_off_c, 0, 59, 95
2, 111840, Note_off_c, 0, 55, 95
2, 111840, Note_on_c, 0, 62, 95
2, 111840, Note_on_c, 0, 59, 95
2, 112320, Note_off_c, 0, 62, 95
2, 112320, Note_off_c, 0, 59, 95
2, 113280, Note_on_c, 0, 62, 95
2, 113280, Note_on_c, 0, 59, 95
2, 113280, Note_on_c, 0, 55, 95
2, 115200, Note_off_c, 0, 62, 95
2, 115200, Note_off_c, 0, 59, 95
2, 115200, Note_off_c, 0, 55, 95
2, 117120, Note_on_c, 0, 62, 95
2, 117600, Note_off_c, 0, 62, 95
2, 117600, Note_on_c, 0, 64, 95
2, 118080, Note_off_c, 0, 64, 95
2, 118080, Note_on_c, 0, 67, 95
2, 118560, Note_off_c, 0, 67, 95
2, 118560, Note_on_c, 0, 64, 95
2, 119040, Note_off_c, 0, 64, 95
2, 119040, Note_on_c, 0, 69, 95
2, 119520, Note_off_c, 0, 69, 95
2, 119520, Note_on_c, 0, 64, 95
2, 120000, Note_off_c, 0, 64, 95
2, 120000, Note_on_c, 0, 67, 95
2, 120480, Note_off_c, 0, 67, 95
2, 120480, Note_on_c, 0, 64, 95
2, 120960, Note_off_c, 0, 64, 95
2, 120960, Note_on_c, 0, 62, 95
2, 121440, Note_off_c, 0, 62, 95
2, 121440, Note_on_c, 0, 59, 95
2, 121920, Note_off_c, 0, 59, 95
2, 121920, Note_on_c, 0, 57, 95
2, 122400, Note_off_c, 0, 57, 95
2, 122400, Note_on_c, 0, 55, 95
2, 122880, Note_off_c, 0, 55, 95
2, 122880, Note_on_c, 0, 57, 95
2, 122880, Note_on_c, 0, 50, 95
2, 123840, Note_off_c, 0, 57, 95
2, 123840, Note_off_c, 0, 50, 95
2, 123840, Note_on_c, 0, 62, 95
2, 124320, Note_off_c, 0, 62, 95
2, 124320, Note_on_c, 0, 57, 95
2, 124800, Note_off_c, 0, 57, 95
2, 124800, Note_on_c, 0, 62, 95
2, 126720, Note_off_c, 0, 62, 95
2, 127200, Note_on_c, 0, 57, 95
2, 127200, Note_on_c, 0, 52, 95
2, 127680, Note_off_c, 0, 57, 95
2, 127680, Note_off_c, 0, 52, 95
2, 127680, Note_on_c, 0, 61, 95
2, 128160, Note_off_c, 0, 61, 95
2, 128160, Note_on_c, 0, 57, 95
2, 128640, Note_off_c, 0, 57, 95
2, 128640, Note_on_c, 0, 62, 95
2, 129120, Note_off_c, 0, 62, 95
2, 129120, Note_on_c, 0, 61, 95
2, 129600, Note_off_c, 0, 61, 95
2, 129600, Note_on_c, 0, 57, 95
2, 130080, Note_off_c, 0, 57, 95
2, 130080, Note_on_c, 0, 52, 95
2, 130560, Note_off_c, 0, 52, 95
2, 130560, Note_on_c, 0, 59, 95
2, 131040, Note_off_c, 0, 59, 95
2, 131040, Note_on_c, 0, 62, 95
2, 131520, Note_off_c, 0, 62, 95
2, 131520, Note_on_c, 0, 64, 95
2, 132480, Note_off_c, 0, 64, 95
2, 132480, Note_on_c, 0, 64, 95
2, 133920, Note_off_c, 0, 64, 95
2, 133920, Note_on_c, 0, 61, 95
2, 134400, Note_off_c, 0, 61, 95
2, 134400, Note_on_c, 0, 64, 95
2, 134880, Note_off_c, 0, 64, 95
2, 134880, Note_on_c, 0, 61, 95
2, 135360, Note_off_c, 0, 61, 95
2, 135360, Note_on_c, 0, 64, 95
2, 135840, Note_off_c, 0, 64, 95
2, 135840, Note_on_c, 0, 66, 95
2, 136800, Note_off_c, 0, 66, 95
2, 136800, Note_on_c, 0, 61, 95
2, 138240, Note_off_c, 0, 61, 95
2, 140160, Note_on_c, 0, 62, 95
2, 140160, Note_on_c, 0, 57, 95
2, 140160, Note_on_c, 0, 50, 95
2, 142080, Note_off_c, 0, 62, 95
2, 142080, Note_off_c, 0, 57, 95
2, 142080, Note_off_c, 0, 50, 95
2, 143040, Note_on_c, 0, 57, 95
2, 143040, Note_on_c, 0, 52, 95
2, 143520, Note_off_c, 0, 57, 95
2, 143520, Note_off_c, 0, 52, 95
2, 143520, Note_on_c, 0, 61, 95
2, 144000, Note_off_c, 0, 61, 95
2, 144000, Note_on_c, 0, 57, 95
2, 144960, Note_off_c, 0, 57, 95
2, 144960, Note_on_c, 0, 57, 95
2, 145920, Note_off_c, 0, 57, 95
2, 145920, Note_on_c, 0, 47, 95
2, 145920, Note_on_c, 0, 40, 95
2, 146880, Note_off_c, 0, 47, 95
2, 146880, Note_off_c, 0, 40, 95
2, 146880, Note_on_c, 0, 47, 95
2, 146880, Note_on_c, 0, 40, 95
2, 147840, Note_off_c, 0, 47, 95
2, 147840, Note_off_c, 0, 40, 95
2, 147840, Note_on_c, 0, 49, 95
2, 147840, Note_on_c, 0, 40, 95
2, 148800, Note_off_c, 0, 49, 95
2, 148800, Note_off_c, 0, 40, 95
2, 149280, Note_on_c, 0, 47, 95
2, 149760, Note_off_c, 0, 47, 95
2, 149760, Note_on_c, 0, 49, 95
2, 150240, Note_off_c, 0, 49, 95
2, 150240, Note_on_c, 0, 52, 95
2, 150720, Note_off_c, 0, 52, 95
2, 150720, Note_on_c, 0, 49, 95
2, 151200, Note_off_c, 0, 49, 95
2, 151200, Note_on_c, 0, 52, 95
2, 151680, Note_off_c, 0, 52, 95
2, 151680, Note_on_c, 0, 54, 95
2, 152640, Note_off_c, 0, 54, 95
2, 152640, Note_on_c, 0, 52, 95
2, 153600, Note_off_c, 0, 52, 95
2, 155520, Note_on_c, 0, 62, 95
2, 155520, Note_on_c, 0, 57, 95
2, 155520, Note_on_c, 0, 50, 95
2, 156480, Note_off_c, 0, 62, 95
2, 156480, Note_off_c, 0, 57, 95
2, 156480, Note_off_c, 0, 50, 95
2, 156480, Note_on_c, 0, 62, 95
2, 156480, Note_on_c, 0, 57, 95
2, 156480, Note_on_c, 0, 50, 95
2, 156960, Note_off_c, 0, 62, 95
2, 156960, Note_off_c, 0, 57, 95
2, 156960, Note_off_c, 0, 50, 95
2, 156960, Note_on_c, 0, 62, 95
2, 156960, Note_on_c, 0, 57, 95
2, 156960, Note_on_c, 0, 50, 95
2, 157440, Note_off_c, 0, 62, 95
2, 157440, Note_off_c, 0, 57, 95
2, 157440, Note_off_c, 0, 50, 95
2, 157920, Note_on_c, 0, 61, 95
2, 157920, Note_on_c, 0, 57, 95
2, 158400, Note_off_c, 0, 61, 95
2, 158400, Note_off_c, 0, 57, 95
2, 158400, Note_on_c, 0, 61, 95
2, 158400, Note_on_c, 0, 57, 95
2, 158880, Note_off_c, 0, 61, 95
2, 158880, Note_off_c, 0, 57, 95
2, 158880, Note_on_c, 0, 57, 95
2, 158880, Note_on_c, 0, 52, 95
2, 159360, Note_off_c, 0, 57, 95
2, 159360, Note_off_c, 0, 52, 95
2, 159360, Note_on_c, 0, 61, 95
2, 159360, Note_on_c, 0, 57, 95
2, 160320, Note_off_c, 0, 61, 95
2, 160320, Note_off_c, 0, 57, 95
2, 163680, Pitch_bend_c, 1, 8192
2, 163680, Note_on_c, 1, 69, 95
2, 163690, Pitch_bend_c, 1, 8320
2, 163700, Pitch_bend_c, 1, 8448
2, 163710, Pitch_bend_c, 1, 8576
2, 163720, Pitch_bend_c, 1, 8704
2, 163730, Pitch_bend_c, 1, 8832
2, 163740, Pitch_bend_c, 1, 8960
2, 163750, Pitch_bend_c, 1, 9088
2, 163760, Pitch_bend_c, 1, 9216
2, 163770, Pitch_bend_c, 1, 9344
2, 163780, Pitch_bend_c, 1, 9472
2, 163790, Pitch_bend_c, 1, 9600
2, 163800, Pitch_bend_c, 1, 9600
2, 163920, Pitch_bend_c, 1, 9600
2, 163930, Pitch_bend_c, 1, 9472
2, 163940, Pitch_bend_c, 1, 9344
2, 163950, Pitch_bend_c, 1, 9216
2, 163960, Pitch_bend_c, 1, 9088
2, 163970, Pitch_bend_c, 1, 8960
2, 163980, Pitch_bend_c, 1, 8832
2, 163990, Pitch_bend_c, 1, 8704
2, 164000, Pitch_bend_c, 1, 8576
2, 164010, Pitch_bend_c, 1, 8448
2, 164020, Pitch_bend_c, 1, 8320
2, 164030, Pitch_bend_c, 1, 8192
2, 164040, Pitch_bend_c, 1, 8192
2, 164160, Pitch_bend_c, 1, 8192
2, 164160, Pitch_bend_c, 1, 8192
2, 164160, Note_off_c, 1, 69, 95
2, 164160, Note_on_c, 0, 69, 47
2, 165120, Note_off_c, 0, 69, 47
2, 165120, Note_on_c, 0, 74, 95
2, 165600, Note_off_c, 0, 74, 95
2, 165600, Note_on_c, 0, 71, 95
2, 166080, Note_off_c, 0, 71, 95
2, 166080, Pitch_bend_c, 1, 8192
2, 166080, Note_on_c, 1, 69, 95
2, 166104, Pitch_bend_c, 1, 8320
2, 166128, Pitch_bend_c, 1, 8448
2, 166152, Pitch_bend_c, 1, 8576
2, 166176, Pitch_bend_c, 1, 8704
2, 166200, Pitch_bend_c, 1, 8832
2, 166200, Pitch_bend_c, 1, 8832
2, 166320, Pitch_bend_c, 1, 8832
2, 166344, Pitch_bend_c, 1, 8704
2, 166368, Pitch_bend_c, 1, 8576
2, 166392, Pitch_bend_c, 1, 8448
2, 166416, Pitch_bend_c, 1, 8320
2, 166440, Pitch_bend_c, 1, 8192
2, 166440, Pitch_bend_c, 1, 8192
2, 166560, Pitch_bend_c, 1, 8192
2, 166560, Pitch_bend_c, 1, 8192
2, 166560, Note_off_c, 1, 69, 95
2, 166560, Note_on_c, 0, 69, 47
2, 167040, Note_off_c, 0, 69, 47
2, 167040, Pitch_bend_c, 1, 8192
2, 167040, Note_on_c, 1, 67, 95
2, 167280, Pitch_bend_c, 1, 8320
2, 167520, Pitch_bend_c, 1, 8448
2, 167520, Pitch_bend_c, 1, 8448
2, 168000, Pitch_bend_c, 1, 8448
2, 168000, Pitch_bend_c, 1, 8192
2, 168000, Note_off_c, 1, 67, 95
2, 168000, Note_on_c, 1, 64, 95
2, 168960, Note_off_c, 1, 64, 95
2, 169920, Note_on_c, 0, 74, 95
2, 169920, Note_on_c, 0, 69, 95
2, 169920, Note_on_c, 0, 66, 95
2, 169920, Note_on_c, 0, 62, 95
2, 170880, Note_off_c, 0, 74, 95
2, 170880, Note_off_c, 0, 69, 95
2, 170880, Note_off_c, 0, 66, 95
2, 170880, Note_off_c, 0, 62, 95
2, 170880, Note_on_c, 0, 74, 95
2, 170880, Note_on_c, 0, 69, 95
2, 170880, Note_on_c, 0, 66, 95
2, 170880, Note_on_c, 0, 62, 95
2, 171840, Note_off_c, 0, 74, 95
2, 171840, Note_off_c, 0, 69, 95
2, 171840, Note_off_c, 0, 66, 95
2, 171840, Note_off_c, 0, 62, 95
2, 171840, Note_on_c, 0, 74, 95
2, 171840, Note_on_c, 0, 69, 95
2, 171840, Note_on_c, 0, 66, 95
2, 171840, Note_on_c, 0, 62, 95
2, 172800, Note_off_c, 0, 74, 95
2, 172800, Note_off_c, 0, 69, 95
2, 172800, Note_off_c, 0, 66, 95
2, 172800, Note_off_c, 0, 62, 95
2, 173280, Note_on_c, 0, 69, 95
2, 173280, Note_on_c, 0, 64, 95
2, 173280, Note_on_c, 0, 61, 95
2, 173760, Note_off_c, 0, 69, 95
2, 173760, Note_off_c, 0, 64, 95
2, 173760, Note_off_c, 0, 61, 95
2, 173760, Note_on_c, 0, 69, 95
2, 173760, Note_on_c, 0, 64, 95
2, 173760, Note_on_c, 0, 61, 95
2, 174240, Note_off_c, 0, 69, 95
2, 174240, Note_off_c, 0, 64, 95
2, 174240, Note_off_c, 0, 61, 95
2, 174240, Note_on_c, 0, 69, 95
2, 174240, Note_on_c, 0, 64, 95
2, 174240, Note_on_c, 0, 61, 95
2, 174720, Note_off_c, 0, 69, 95
2, 174720, Note_off_c, 0, 64, 95
2, 174720, Note_off_c, 0, 61, 95
2, 174720, Note_on_c, 0, 69, 95
2, 174720, Note_on_c, 0, 64, 95
2, 174720, Note_on_c, 0, 61, 95
2, 175680, Note_off_c, 0, 69, 95
2, 175680, Note_off_c, 0, 64, 95
2, 175680, Note_off_c, 0, 61, 95
2, 175680, Note_on_c, 0, 69, 95
2, 175680, Note_on_c, 0, 64, 95
2, 175680, Note_on_c, 0, 61, 95
2, 176640, Note_off_c, 0, 69, 95
2, 176640, Note_off_c, 0, 64, 95
2, 176640, Note_off_c, 0, 61, 95
2, 179520, Note_on_c, 0, 67, 95
2, 180000, Note_off_c, 0, 67, 95
2, 180000, Note_on_c, 0, 68, 95
2, 180480, Note_off_c, 0, 68, 95
2, 180480, Note_on_c, 0, 71, 95
2, 180960, Note_off_c, 0, 71, 95
2, 180960, Note_on_c, 0, 76, 95
2, 181440, Note_off_c, 0, 76, 95
2, 182400, Pitch_bend_c, 1, 8192
2, 182400, Note_on_c, 1, 79, 95
2, 182421, Pitch_bend_c, 1, 8320
2, 182442, Pitch_bend_c, 1, 8448
2, 182463, Pitch_bend_c, 1, 8576
2, 182484, Pitch_bend_c, 1, 8704
2, 182505, Pitch_bend_c, 1, 8832
2, 182526, Pitch_bend_c, 1, 8960
2, 182547, Pitch_bend_c, 1, 9088
2, 182568, Pitch_bend_c, 1, 9216
2, 182589, Pitch_bend_c, 1, 9344
2, 182610, Pitch_bend_c, 1, 9472
2, 182631, Pitch_bend_c, 1, 9600
2, 182640, Pitch_bend_c, 1, 9600
2, 182880, Pitch_bend_c, 1, 9600
2, 182901, Pitch_bend_c, 1, 9472
2, 182922, Pitch_bend_c, 1, 9344
2, 182943, Pitch_bend_c, 1, 9216
2, 182964, Pitch_bend_c, 1, 9088
2, 182985, Pitch_bend_c, 1, 8960
2, 183006, Pitch_bend_c, 1, 8832
2, 183027, Pitch_bend_c, 1, 8704
2, 183048, Pitch_bend_c, 1, 8576
2, 183069, Pitch_bend_c, 1, 8448
2, 183090, Pitch_bend_c, 1, 8320
2, 183111, Pitch_bend_c, 1, 8192
2, 183120, Pitch_bend_c, 1, 8192
2, 183360, Pitch_bend_c, 1, 8192
2, 183360, Pitch_bend_c, 1, 8192
2, 183360, Note_off_c, 1, 79, 95
2, 183360, Note_on_c, 0, 79, 47
2, 184320, Note_off_c, 0, 79, 47
2, 184320, Note_on_c, 0, 76, 95
2, 188160, Note_off_c, 0, 76, 95
2, 195840, Note_on_c, 0, 71, 95
2, 196080, Note_off_c, 0, 71, 95
2, 196080, Note_on_c, 0, 74, 70
2, 196320, Note_off_c, 0, 74, 70
2, 196320, Note_on_c, 0, 71, 70
2, 196560, Note_off_c, 0, 71, 70
2, 196560, Note_on_c, 0, 69, 95
2, 196800, Note_off_c, 0, 69, 95
2, 196800, Note_on_c, 0, 71, 95
2, 197040, Note_off_c, 0, 71, 95
2, 197040, Note_on_c, 0, 74, 70
2, 197280, Note_off_c, 0, 74, 70
2, 197280, Note_on_c, 0, 71, 70
2, 197520, Note_off_c, 0, 71, 70
2, 197520, Note_on_c, 0, 69, 95
2, 197760, Note_off_c, 0, 69, 95
2, 197760, Note_on_c, 0, 71, 95
2, 198000, Note_off_c, 0, 71, 95
2, 198000, Note_on_c, 0, 69, 95
2, 198240, Note_off_c, 0, 69, 95
2, 198240, Note_on_c, 0, 67, 95
2, 198480, Note_off_c, 0, 67, 95
2, 198480, Note_on_c, 0, 64, 95
2, 198720, Note_off_c, 0, 64, 95
2, 198720, Note_on_c, 0, 69, 95
2, 198960, Note_off_c, 0, 69, 95
2, 198960, Note_on_c, 0, 67, 95
2, 199200, Note_off_c, 0, 67, 95
2, 199200, Note_on_c, 0, 64, 95
2, 199440, Note_off_c, 0, 64, 95
2, 199440, Note_on_c, 0, 62, 95
2, 199680, Note_off_c, 0, 62, 95
2, 199680, Note_on_c, 0, 69, 95
2, 199920, Note_off_c, 0, 69, 95
2, 199920, Note_on_c, 0, 64, 95
2, 203520, Note_off_c, 0, 64, 95
2, 204480, Pitch_bend_c, 1, 8192
2, 204480, Note_on_c, 1, 69, 95
2, 204490, Pitch_bend_c, 1, 8320
2, 204500, Pitch_bend_c, 1, 8448
2, 204510, Pitch_bend_c, 1, 8576
2, 204520, Pitch_bend_c, 1, 8704
2, 204530, Pitch_bend_c, 1, 8832
2, 204540, Pitch_bend_c, 1, 8960
2, 204550, Pitch_bend_c, 1, 9088
2, 204560, Pitch_bend_c, 1, 9216
2, 204570, Pitch_bend_c, 1, 9344
2, 204580, Pitch_bend_c, 1, 9472
2, 204590, Pitch_bend_c, 1, 9600
2, 204600, Pitch_bend_c, 1, 9600
2, 204720, Pitch_bend_c, 1, 9600
2, 204720, Pitch_bend_c, 1, 8192
2, 204720, Note_off_c, 1, 69, 95
2, 204720, Note_on_c, 0, 71, 95
2, 204960, Note_off_c, 0, 71, 95
2, 204960, Note_on_c, 0, 76, 95
2, 205440, Note_off_c, 0, 76, 95
2, 205920, Pitch_bend_c, 1, 8192
2, 205920, Note_on_c, 1, 69, 95
2, 205930, Pitch_bend_c, 1, 8320
2, 205940, Pitch_bend_c, 1, 8448
2, 205950, Pitch_bend_c, 1, 8576
2, 205960, Pitch_bend_c, 1, 8704
2, 205970, Pitch_bend_c, 1, 8832
2, 205980, Pitch_bend_c, 1, 8960
2, 205990, Pitch_bend_c, 1, 9088
2, 206000, Pitch_bend_c, 1, 9216
2, 206010, Pitch_bend_c, 1, 9344
2, 206020, Pitch_bend_c, 1, 9472
2, 206030, Pitch_bend_c, 1, 9600
2, 206040, Pitch_bend_c, 1, 9600
2, 206160, Pitch_bend_c, 1, 9600
2, 206170, Pitch_bend_c, 1, 9472
2, 206180, Pitch_bend_c, 1, 9344
2, 206190, Pitch_bend_c, 1, 9216
2, 206200, Pitch_bend_c, 1, 9088
2, 206210, Pitch_bend_c, 1, 8960
2, 206220, Pitch_bend_c, 1, 8832
2, 206230, Pitch_bend_c, 1, 8704
2, 206240, Pitch_bend_c, 1, 8576
2, 206250, Pitch_bend_c, 1, 8448
2, 206260, Pitch_bend_c, 1, 8320
2, 206270, Pitch_bend_c, 1, 8192
2, 206280, Pitch_bend_c, 1, 8192
2, 206400, Pitch_bend_c, 1, 8192
2, 206400, Pitch_bend_c, 1, 8192
2, 206400, Note_off_c, 1, 69, 95
2, 206400, Note_on_c, 0, 69, 47
2, 206640, Note_off_c, 0, 69, 47
2, 206640, Note_on_c, 0, 67, 95
2, 206880, Note_off_c, 0, 67, 95
2, 206880, Note_on_c, 0, 64, 95
2, 207360, Note_off_c, 0, 64, 95
2, 207360, Note_on_c, 0, 64, 95
2, 207840, Note_off_c, 0, 64, 95
2, 207840, Note_on_c, 0, 67, 95
2, 208080, Note_off_c, 0, 67, 95
2, 208080, Note_on_c, 0, 69, 70
2, 208320, Note_off_c, 0, 69, 70
2, 208320, Note_on_c, 0, 71, 95
2, 208560, Note_off_c, 0, 71, 95
2, 208560, Note_on_c, 0, 76, 95
2, 208800, Note_off_c, 0, 76, 95
2, 208800, Note_on_c, 0, 74, 95
2, 209040, Note_off_c, 0, 74, 95
2, 209040, Note_on_c, 0, 71, 70
2, 209280, Note_off_c, 0, 71, 70
2, 209280, Note_on_c, 0, 69, 95
2, 210240, Note_off_c, 0, 69, 95
2, 212160, Pitch_bend_c, 1, 8192
2, 212160, Note_on_c, 1, 74, 95
2, 212181, Pitch_bend_c, 1, 8320
2, 212202, Pitch_bend_c, 1, 8448
2, 212223, Pitch_bend_c, 1, 8576
2, 212244, Pitch_bend_c, 1, 8704
2, 212265, Pitch_bend_c, 1, 8832
2, 212286, Pitch_bend_c, 1, 8960
2, 212307, Pitch_bend_c, 1, 9088
2, 212328, Pitch_bend_c, 1, 9216
2, 212349, Pitch_bend_c, 1, 9344
2, 212370, Pitch_bend_c, 1, 9472
2, 212391, Pitch_bend_c, 1, 9600
2, 212400, Pitch_bend_c, 1, 9600
2, 212640, Pitch_bend_c, 1, 9600
2, 212661, Pitch_bend_c, 1, 9472
2, 212682, Pitch_bend_c, 1, 9344
2, 212703, Pitch_bend_c, 1, 9216
2, 212724, Pitch_bend_c, 1, 9088
2, 212745, Pitch_bend_c, 1, 8960
2, 212766, Pitch_bend_c, 1, 8832
2, 212787, Pitch_bend_c, 1, 8704
2, 212808, Pitch_bend_c, 1, 8576
2, 212829, Pitch_bend_c, 1, 8448
2, 212850, Pitch_bend_c, 1, 8320
2, 212871, Pitch_bend_c, 1, 8192
2, 212880, Pitch_bend_c, 1, 8192
2, 213120, Pitch_bend_c, 1, 8192
2, 213120, Pitch_bend_c, 1, 8192
2, 213120, Note_off_c, 1, 74, 95
2, 213120, Note_on_c, 0, 74, 47
2, 213600, Note_off_c, 0, 74, 47
2, 213600, Note_on_c, 0, 71, 95
2, 214080, Note_off_c, 0, 71, 95
2, 214080, Note_on_c, 0, 69, 95
2, 214560, Note_off_c, 0, 69, 95
2, 214560, Note_on_c, 0, 67, 95
2, 215040, Note_off_c, 0, 67, 95
2, 215040, Note_on_c, 0, 64, 95
2, 216000, Note_off_c, 0, 64, 95
2, 216000, Note_on_c, 0, 64, 95
2, 216960, Note_off_c, 0, 64, 95
2, 216960, Note_on_c, 0, 64, 95
2, 217920, Note_off_c, 0, 64, 95
2, 217920, Note_on_c, 0, 67, 95
2, 218880, Note_off_c, 0, 67, 95
2, 218880, Note_on_c, 0, 64, 95
2, 219360, Note_off_c, 0, 64, 95
2, 219360, Note_on_c, 0, 64, 95
2, 219840, Note_off_c, 0, 64, 95
2, 219840, Note_on_c, 0, 64, 95
2, 220320, Note_off_c, 0, 64, 95
2, 220320, Note_on_c, 0, 64, 95
2, 220800, Note_off_c, 0, 64, 95
2, 220800, Note_on_c, 0, 64, 95
2, 221280, Note_off_c, 0, 64, 95
2, 221280, Note_on_c, 0, 64, 95
2, 221760, Note_off_c, 0, 64, 95
2, 221760, Note_on_c, 0, 64, 95
2, 222240, Note_off_c, 0, 64, 95
2, 222240, Note_on_c, 0, 64, 95
2, 222720, Note_off_c, 0, 64, 95
2, 222720, Note_on_c, 0, 64, 95
2, 223200, Note_off_c, 0, 64, 95
2, 223200, Note_on_c, 0, 67, 95
2, 223680, Note_off_c, 0, 67, 95
2, 223680, Note_on_c, 0, 64, 95
2, 224160, Note_off_c, 0, 64, 95
2, 224160, Note_on_c, 0, 62, 95
2, 224640, Note_off_c, 0, 62, 95
2, 224640, Note_on_c, 0, 57, 95
2, 225120, Note_off_c, 0, 57, 95
2, 225120, Note_on_c, 0, 55, 95
2, 225600, Note_off_c, 0, 55, 95
2, 225600, Note_on_c, 0, 57, 95
2, 226080, Note_off_c, 0, 57, 95
2, 226080, Note_on_c, 0, 55, 95
2, 226560, Note_off_c, 0, 55, 95
2, 226560, Note_on_c, 1, 52, 95
2, 226680, Pitch_bend_c, 1, 7168
2, 226800, Pitch_bend_c, 1, 6144
2, 226920, Pitch_bend_c, 1, 5120
2, 227040, Pitch_bend_c, 1, 3968
2, 227160, Pitch_bend_c, 1, 2944
2, 227280, Pitch_bend_c, 1, 1920
2, 227400, Pitch_bend_c, 1, 896
2, 227520, Pitch_bend_c, 1, 0
2, 227520, Pitch_bend_c, 1, 8192
2, 227520, Note_off_c, 1, 52, 95
2, 227520, Note_on_c, 0, 40, 95
2, 228000, Note_off_c, 0, 40, 95
2, 228000, Note_on_c, 0, 40, 95
2, 228480, Note_off_c, 0, 40, 95
2, 228480, Note_on_c, 0, 40, 95
2, 228960, Note_off_c, 0, 40, 95
2, 228960, Note_on_c, 0, 40, 95
2, 229440, Note_off_c, 0, 40, 95
2, 229440, Note_on_c, 0, 47, 95
2, 230400, Note_off_c, 0, 47, 95
2, 230400, Note_on_c, 0, 57, 95
2, 231360, Note_off_c, 0, 57, 95
2, 231360, Note_on_c, 0, 64, 95
2, 231360, Note_on_c, 0, 61, 95
2, 234240, Note_off_c, 0, 64, 95
2, 234240, Note_off_c, 0, 61, 95
2, 234240, Note_on_c, 0, 55, 95
2, 235200, Note_off_c, 0, 55, 95
2, 235200, Note_on_c, 0, 59, 95
2, 235680, Note_off_c, 0, 59, 95
2, 235680, Note_on_c, 0, 62, 95
2, 238080, Note_off_c, 0, 62, 95
2, 238080, Note_on_c, 0, 64, 95
2, 240000, Note_off_c, 0, 64, 95
2, 240000, Note_on_c, 0, 64, 95
2, 240960, Note_off_c, 0, 64, 95
2, 243840, Note_on_c, 0, 57, 95
2, 244320, Note_off_c, 0, 57, 95
2, 244320, Note_on_c, 0, 59, 95
2, 244800, Note_off_c, 0, 59, 95
2, 244800, Note_on_c, 0, 62, 95
2, 245760, Note_off_c, 0, 62, 95
2, 245760, Note_on_c, 0, 57, 95
2, 246720, Note_off_c, 0, 57, 95
2, 246720, Note_on_c, 0, 64, 95
2, 246720, Note_on_c, 0, 61, 95
2, 246720, Note_on_c, 0, 57, 95
2, 249600, Note_off_c, 0, 64, 95
2, 249600, Note_off_c, 0, 61, 95
2, 249600, Note_off_c, 0, 57, 95
2, 249600, Note_on_c, 0, 55, 95
2, 250560, Note_off_c, 0, 55, 95
2, 250560, Note_on_c, 0, 62, 95
2, 250560, Note_on_c, 0, 59, 95
2, 251520, Note_off_c, 0, 62, 95
2, 251520, Note_off_c, 0, 59, 95
2, 251520, Note_on_c, 0, 62, 95
2, 251520, Note_on_c, 0, 59, 95
2, 252480, Note_off_c, 0, 62, 95
2, 252480, Note_off_c, 0, 59, 95
2, 253440, Note_on_c, 0, 40, 95
2, 254400, Note_off_c, 0, 40, 95
2, 254400, Note_on_c, 0, 64, 95
2, 254400, Note_on_c, 0, 59, 95
2, 255360, Note_off_c, 0, 64, 95
2, 255360, Note_off_c, 0, 59, 95
2, 255360, Note_on_c, 0, 59, 95
2, 255360, Note_on_c, 0, 54, 95
2, 255840, Note_off_c, 0, 59, 95
2, 255840, Note_off_c, 0, 54, 95
2, 255840, Note_on_c, 0, 62, 95
2, 255840, Note_on_c, 0, 57, 95
2, 256320, Note_off_c, 0, 62, 95
2, 256320, Note_off_c, 0, 57, 95
2, 256320, Note_on_c, 0, 64, 95
2, 256320, Note_on_c, 0, 59, 95
2, 257280, Note_off_c, 0, 64, 95
2, 257280, Note_off_c, 0, 59, 95
2, 257280, Note_on_c, 0, 64, 95
2, 257280, Note_on_c, 0, 59, 95
2, 257760, Note_off_c, 0, 64, 95
2, 257760, Note_off_c, 0, 59, 95
2, 257760, Note_on_c, 0, 62, 95
2, 257760, Note_on_c, 0, 57, 95
2, 258240, Note_off_c, 0, 62, 95
2, 258240, Note_off_c, 0, 57, 95
2, 261120, Note_on_c, 1, 59, 95
2, 261240, Pitch_bend_c, 1, 8320
2, 261360, Pitch_bend_c, 1, 8448
2, 261480, Pitch_bend_c, 1, 8704
2, 261600, Pitch_bend_c, 1, 8832
2, 261600, Pitch_bend_c, 1, 8192
2, 261600, Note_off_c, 1, 59, 95
2, 261600, Note_on_c, 0, 60, 95
2, 262080, Note_off_c, 0, 60, 95
2, 262080, Note_on_c, 0, 64, 95
2, 262080, Note_on_c, 0, 61, 95
2, 263040, Note_off_c, 0, 64, 95
2, 263040, Note_off_c, 0, 61, 95
2, 263040, Note_on_c, 0, 64, 95
2, 263040, Note_on_c, 0, 61, 95
2, 264960, Note_off_c, 0, 64, 95
2, 264960, Note_off_c, 0, 61, 95
2, 264960, Note_on_c, 0, 58, 95
2, 265440, Note_off_c, 0, 58, 95
2, 265440, Note_on_c, 0, 62, 95
2, 265920, Note_off_c, 0, 62, 95
2, 265920, Note_on_c, 0, 67, 95
2, 265920, Note_on_c, 0, 62, 95
2, 266880, Note_off_c, 0, 67, 95
2, 266880, Note_off_c, 0, 62, 95
2, 266880, Note_on_c, 0, 62, 95
2, 266880, Note_on_c, 0, 58, 95
2, 268800, Note_off_c, 0, 62, 95
2, 268800, Note_off_c, 0, 58, 95
2, 268800, Note_on_c, 1, 62, 95
2, 268800, Note_on_c, 1, 57, 95
2, 268920, Pitch_bend_c, 1, 8448
2, 268920, Pitch_bend_c, 1, 8448
2, 269040, Pitch_bend_c, 1, 8832
2, 269040, Pitch_bend_c, 1, 8832
2, 269160, Pitch_bend_c, 1, 9216
2, 269160, Pitch_bend_c, 1, 9216
2, 269280, Pitch_bend_c, 1, 9600
2, 269280, Pitch_bend_c, 1, 8192
2, 269280, Note_off_c, 1, 62, 95
2, 269280, Pitch_bend_c, 1, 9600
2, 269280, Pitch_bend_c, 1, 8192
2, 269280, Note_off_c, 1, 57, 95
2, 269280, Note_on_c, 0, 64, 95
2, 269280, Note_on_c, 0, 59, 95
2, 269760, Note_off_c, 0, 64, 95
2, 269760, Note_off_c, 0, 59, 95
2, 269760, Note_on_c, 0, 64, 95
2, 269760, Note_on_c, 0, 59, 95
2, 270720, Note_off_c, 0, 64, 95
2, 270720, Note_off_c, 0, 59, 95
2, 270720, Note_on_c, 0, 59, 95
2, 271680, Note_off_c, 0, 59, 95
2, 271680, Note_on_c, 0, 64, 95
2, 272640, Note_off_c, 0, 64, 95
2, 276480, Note_on_c, 0, 61, 95
2, 276480, Note_on_c, 0, 57, 95
2, 278400, Note_off_c, 0, 61, 95
2, 278400, Note_off_c, 0, 57, 95
2, 278400, Note_on_c, 0, 64, 95
2, 278400, Note_on_c, 0, 61, 95
2, 280320, Note_off_c, 0, 64, 95
2, 280320, Note_off_c, 0, 61, 95
2, 280320, Note_on_c, 0, 59, 95
2, 280320, Note_on_c, 0, 55, 95
2, 280800, Note_off_c, 0, 59, 95
2, 280800, Note_off_c, 0, 55, 95
2, 280800, Note_on_c, 0, 62, 95
2, 280800, Note_on_c, 0, 59, 95
2, 281280, Note_off_c, 0, 62, 95
2, 281280, Note_off_c, 0, 59, 95
2, 282240, Note_on_c, 0, 62, 95
2, 282240, Note_on_c, 0, 59, 95
2, 282240, Note_on_c, 0, 55, 95
2, 284160, Note_off_c, 0, 62, 95
2, 284160, Note_off_c, 0, 59, 95
2, 284160, Note_off_c, 0, 55, 95
2, 286080, Note_on_c, 0, 62, 95
2, 286560, Note_off_c, 0, 62, 95
2, 286560, Note_on_c, 0, 64, 95
2, 287040, Note_off_c, 0, 64, 95
2, 287040, Note_on_c, 0, 67, 95
2, 287520, Note_off_c, 0, 67, 95
2, 287520, Note_on_c, 0, 64, 95
2, 288000, Note_off_c, 0, 64, 95
2, 288000, Note_on_c, 0, 69, 95
2, 288480, Note_off_c, 0, 69, 95
2, 288480, Note_on_c, 0, 64, 95
2, 288960, Note_off_c, 0, 64, 95
2, 288960, Note_on_c, 0, 67, 95
2, 289440, Note_off_c, 0, 67, 95
2, 289440, Note_on_c, 0, 64, 95
2, 289920, Note_off_c, 0, 64, 95
2, 289920, Note_on_c, 0, 62, 95
2, 290400, Note_off_c, 0, 62, 95
2, 290400, Note_on_c, 0, 59, 95
2, 290880, Note_off_c, 0, 59, 95
2, 290880, Note_on_c, 0, 57, 95
2, 291360, Note_off_c, 0, 57, 95
2, 291360, Note_on_c, 0, 55, 95
2, 291840, Note_off_c, 0, 55, 95
2, 291840, Note_on_c, 0, 57, 95
2, 291840, Note_on_c, 0, 50, 95
2, 292800, Note_off_c, 0, 57, 95
2, 292800, Note_off_c, 0, 50, 95
2, 292800, Note_on_c, 0, 62, 95
2, 293280, Note_off_c, 0, 62, 95
2, 293280, Note_on_c, 0, 57, 95
2, 293760, Note_off_c, 0, 57, 95
2, 293760, Note_on_c, 0, 62, 95
2, 295680, Note_off_c, 0, 62, 95
2, 296160, Note_on_c, 0, 57, 95
2, 296160, Note_on_c, 0, 52, 95
2, 296640, Note_off_c, 0, 57, 95
2, 296640, Note_off_c, 0, 52, 95
2, 296640, Note_on_c, 0, 61, 95
2, 297120, Note_off_c, 0, 61, 95
2, 297120, Note_on_c, 0, 57, 95
2, 297600, Note_off_c, 0, 57, 95
2, 297600, Note_on_c, 0, 62, 95
2, 298080, Note_off_c, 0, 62, 95
2, 298080, Note_on_c, 0, 61, 95
2, 298560, Note_off_c, 0, 61, 95
2, 298560, Note_on_c, 0, 57, 95
2, 299040, Note_off_c, 0, 57, 95
2, 299040, Note_on_c, 0, 52, 95
2, 299520, Note_off_c, 0, 52, 95
2, 299520, Note_on_c, 0, 59, 95
2, 300000, Note_off_c, 0, 59, 95
2, 300000, Note_on_c, 0, 62, 95
2, 300480, Note_off_c, 0, 62, 95
2, 300480, Note_on_c, 0, 64, 95
2, 301440, Note_off_c, 0, 64, 95
2, 301440, Note_on_c, 0, 64, 95
2, 302880, Note_off_c, 0, 64, 95
2, 302880, Note_on_c, 0, 61, 95
2, 303360, Note_off_c, 0, 61, 95
2, 303360, Note_on_c, 0, 64, 95
2, 303840, Note_off_c, 0, 64, 95
2, 303840, Note_on_c, 0, 61, 95
2, 304320, Note_off_c, 0, 61, 95
2, 304320, Note_on_c, 0, 64, 95
2, 304800, Note_off_c, 0, 64, 95
2, 304800, Note_on_c, 0, 66, 95
2, 305760, Note_off_c, 0, 66, 95
2, 305760, Note_on_c, 0, 61, 95
2, 307200, Note_off_c, 0, 61, 95
2, 309120, Note_on_c, 0, 62, 95
2, 309120, Note_on_c, 0, 57, 95
2, 309120, Note_on_c, 0, 50, 95
2, 311040, Note_off_c, 0, 62, 95
2, 311040, Note_off_c, 0, 57, 95
2, 311040, Note_off_c, 0, 50, 95
2, 312000, Note_on_c, 0, 57, 95
2, 312000, Note_on_c, 0, 52, 95
2, 312480, Note_off_c, 0, 57, 95
2, 312480, Note_off_c, 0, 52, 95
2, 312480, Note_on_c, 0, 61, 95
2, 312960, Note_off_c, 0, 61, 95
2, 312960, Note_on_c, 0, 57, 95
2, 313920, Note_off_c, 0, 57, 95
2, 313920, Note_on_c, 0, 57, 95
2, 314880, Note_off_c, 0, 57, 95
2, 314880, Note_on_c, 0, 47, 95
2, 314880, Note_on_c, 0, 40, 95
2, 315840, Note_off_c, 0, 47, 95
2, 315840, Note_off_c, 0, 40, 95
2, 315840, Note_on_c, 0, 47, 95
2, 315840, Note_on_c, 0, 40, 95
2, 316800, Note_off_c, 0, 47, 95
2, 316800, Note_off_c, 0, 40, 95
2, 316800, Note_on_c, 0, 49, 95
2, 316800, Note_on_c, 0, 40, 95
2, 317760, Note_off_c, 0, 49, 95
2, 317760, Note_off_c, 0, 40, 95
2, 318240, Note_on_c, 0, 47, 95
2, 318720, Note_off_c, 0, 47, 95
2, 318720, Note_on_c, 0, 49, 95
2, 319200, Note_off_c, 0, 49, 95
2, 319200, Note_on_c, 0, 52, 95
2, 319680, Note_off_c, 0, 52, 95
2, 319680, Note_on_c, 0, 49, 95
2, 320160, Note_off_c, 0, 49, 95
2, 320160, Note_on_c, 0, 52, 95
2, 320640, Note_off_c, 0, 52, 95
2, 320640, Note_on_c, 0, 54, 95
2, 321600, Note_off_c, 0, 54, 95
2, 321600, Note_on_c, 0, 52, 95
2, 322560, Note_off_c, 0, 52, 95
2, 324480, Note_on_c, 0, 62, 95
2, 324480, Note_on_c, 0, 57, 95
2, 324480, Note_on_c, 0, 50, 95
2, 325440, Note_off_c, 0, 62, 95
2, 325440, Note_off_c, 0, 57, 95
2, 325440, Note_off_c, 0, 50, 95
2, 325440, Note_on_c, 0, 62, 95
2, 325440, Note_on_c, 0, 57, 95
2, 325440, Note_on_c, 0, 50, 95
2, 325920, Note_off_c, 0, 62, 95
2, 325920, Note_off_c, 0, 57, 95
2, 325920, Note_off_c, 0, 50, 95
2, 325920, Note_on_c, 0, 62, 95
2, 325920, Note_on_c, 0, 57, 95
2, 325920, Note_on_c, 0, 50, 95
2, 326400, Note_off_c, 0, 62, 95
2, 326400, Note_off_c, 0, 57, 95
2, 326400, Note_off_c, 0, 50, 95
2, 326880, Note_on_c, 0, 61, 95
2, 326880, Note_on_c, 0, 57, 95
2, 327360, Note_off_c, 0, 61, 95
2, 327360, Note_off_c, 0, 57, 95
2, 327360, Note_on_c, 0, 61, 95
2, 327360, Note_on_c, 0, 57, 95
2, 327840, Note_off_c, 0, 61, 95
2, 327840, Note_off_c, 0, 57, 95
2, 327840, Note_on_c, 0, 57, 95
2, 327840, Note_on_c, 0, 52, 95
2, 328320, Note_off_c, 0, 57, 95
2, 328320, Note_off_c, 0, 52, 95
2, 328320, Note_on_c, 0, 61, 95
2, 328320, Note_on_c, 0, 57, 95
2, 329280, Note_off_c, 0, 61, 95
2, 329280, Note_off_c, 0, 57, 95
2, 332640, Pitch_bend_c, 1, 8192
2, 332640, Note_on_c, 1, 69, 95
2, 332650, Pitch_bend_c, 1, 8320
2, 332660, Pitch_bend_c, 1, 8448
2, 332670, Pitch_bend_c, 1, 8576
2, 332680, Pitch_bend_c, 1, 8704
2, 332690, Pitch_bend_c, 1, 8832
2, 332700, Pitch_bend_c, 1, 8960
2, 332710, Pitch_bend_c, 1, 9088
2, 332720, Pitch_bend_c, 1, 9216
2, 332730, Pitch_bend_c, 1, 9344
2, 332740, Pitch_bend_c, 1, 9472
2, 332750, Pitch_bend_c, 1, 9600
2, 332760, Pitch_bend_c, 1, 9600
2, 332880, Pitch_bend_c, 1, 9600
2, 332890, Pitch_bend_c, 1, 9472
2, 332900, Pitch_bend_c, 1, 9344
2, 332910, Pitch_bend_c, 1, 9216
2, 332920, Pitch_bend_c, 1, 9088
2, 332930, Pitch_bend_c, 1, 8960
2, 332940, Pitch_bend_c, 1, 8832
2, 332950, Pitch_bend_c, 1, 8704
2, 332960, Pitch_bend_c, 1, 8576
2, 332970, Pitch_bend_c, 1, 8448
2, 332980, Pitch_bend_c, 1, 8320
2, 332990, Pitch_bend_c, 1, 8192
2, 333000, Pitch_bend_c, 1, 8192
2, 333120, Pitch_bend_c, 1, 8192
2, 333120, Pitch_bend_c, 1, 8192
2, 333120, Note_off_c, 1, 69, 95
2, 333120, Note_on_c, 0, 69, 47
2, 334080, Note_off_c, 0, 69, 47
2, 334080, Note_on_c, 0, 74, 95
2, 334560, Note_off_c, 0, 74, 95
2, 334560, Note_on_c, 0, 71, 95
2, 335040, Note_off_c, 0, 71, 95
2, 335040, Pitch_bend_c, 1, 8192
2, 335040, Note_on_c, 1, 69, 95
2, 335064, Pitch_bend_c, 1, 8320
2, 335088, Pitch_bend_c, 1, 8448
2, 335112, Pitch_bend_c, 1, 8576
2, 335136, Pitch_bend_c, 1, 8704
2, 335160, Pitch_bend_c, 1, 8832
2, 335160, Pitch_bend_c, 1, 8832
2, 335280, Pitch_bend_c, 1, 8832
2, 335304, Pitch_bend_c, 1, 8704
2, 335328, Pitch_bend_c, 1, 8576
2, 335352, Pitch_bend_c, 1, 8448
2, 335376, Pitch_bend_c, 1, 8320
2, 335400, Pitch_bend_c, 1, 8192
2, 335400, Pitch_bend_c, 1, 8192
2, 335520, Pitch_bend_c, 1, 8192
2, 335520, Pitch_bend_c, 1, 8192
2, 335520, Note_off_c, 1, 69, 95
2, 335520, Note_on_c, 0, 69, 47
2, 336000, Note_off_c, 0, 69, 47
2, 336000, Pitch_bend_c, 1, 8192
2, 336000, Note_on_c, 1, 67, 95
2, 336240, Pitch_bend_c, 1, 8320
2, 336480, Pitch_bend_c, 1, 8448
2, 336480, Pitch_bend_c, 1, 8448
2, 336960, Pitch_bend_c, 1, 8448
2, 336960, Pitch_bend_c, 1, 8192
2, 336960, Note_off_c, 1, 67, 95
2, 336960, Note_on_c, 1, 64, 95
2, 337920, Note_off_c, 1, 64, 95
2, 338880, Note_on_c, 0, 74, 95
2, 338880, Note_on_c, 0, 69, 95
2, 338880, Note_on_c, 0, 66, 95
2, 338880, Note_on_c, 0, 62, 95
2, 339840, Note_off_c, 0, 74, 95
2, 339840, Note_off_c, 0, 69, 95
2, 339840, Note_off_c, 0, 66, 95
2, 339840, Note_off_c, 0, 62, 95
2, 339840, Note_on_c, 0, 74, 95
2, 339840, Note_on_c, 0, 69, 95
2, 339840, Note_on_c, 0, 66, 95
2, 339840, Note_on_c, 0, 62, 95
2, 340800, Note_off_c, 0, 74, 95
2, 340800, Note_off_c, 0, 69, 95
2, 340800, Note_off_c, 0, 66, 95
2, 340800, Note_off_c, 0, 62, 95
2, 340800, Note_on_c, 0, 74, 95
2, 340800, Note_on_c, 0, 69, 95
2, 340800, Note_on_c, 0, 66, 95
2, 340800, Note_on_c, 0, 62, 95
2, 341760, Note_off_c, 0, 74, 95
2, 341760, Note_off_c, 0, 69, 95
2, 341760, Note_off_c, 0, 66, 95
2, 341760, Note_off_c, 0, 62, 95
2, 342240, Note_on_c, 0, 69, 95
2, 342240, Note_on_c, 0, 64, 95
2, 342240, Note_on_c, 0, 61, 95
2, 342720, Note_off_c, 0, 69, 95
2, 342720, Note_off_c, 0, 64, 95
2, 342720, Note_off_c, 0, 61, 95
2, 342720, Note_on_c, 0, 69, 95
2, 342720, Note_on_c, 0, 64, 95
2, 342720, Note_on_c, 0, 61, 95
2, 343200, Note_off_c, 0, 69, 95
2, 343200, Note_off_c, 0, 64, 95
2, 343200, Note_off_c, 0, 61, 95
2, 343200, Note_on_c, 0, 69, 95
2, 343200, Note_on_c, 0, 64, 95
2, 343200, Note_on_c, 0, 61, 95
2, 343680, Note_off_c, 0, 69, 95
2, 343680, Note_off_c, 0, 64, 95
2, 343680, Note_off_c, 0, 61, 95
2, 343680, Note_on_c, 0, 69, 95
2, 343680, Note_on_c, 0, 64, 95
2, 343680, Note_on_c, 0, 61, 95
2, 344640, Note_off_c, 0, 69, 95
2, 344640, Note_off_c, 0, 64, 95
2, 344640, Note_off_c, 0, 61, 95
2, 344640, Note_on_c, 0, 69, 95
2, 344640, Note_on_c, 0, 64, 95
2, 344640, Note_on_c, 0, 61, 95
2, 345600, Note_off_c, 0, 69, 95
2, 345600, Note_off_c, 0, 64, 95
2, 345600, Note_off_c, 0, 61, 95
2, 348480, Note_on_c, 0, 67, 95
2, 348960, Note_off_c, 0, 67, 95
2, 348960, Note_on_c, 0, 68, 95
2, 349440, Note_off_c, 0, 68, 95
2, 349440, Note_on_c, 0, 71, 95
2, 349920, Note_off_c, 0, 71, 95
2, 349920, Note_on_c, 0, 76, 95
2, 350400, Note_off_c, 0, 76, 95
2, 351360, Pitch_bend_c, 1, 8192
2, 351360, Note_on_c, 1, 79, 95
2, 351381, Pitch_bend_c, 1, 8320
2, 351402, Pitch_bend_c, 1, 8448
2, 351423, Pitch_bend_c, 1, 8576
2, 351444, Pitch_bend_c, 1, 8704
2, 351465, Pitch_bend_c, 1, 8832
2, 351486, Pitch_bend_c, 1, 8960
2, 351507, Pitch_bend_c, 1, 9088
2, 351528, Pitch_bend_c, 1, 9216
2, 351549, Pitch_bend_c, 1, 9344
2, 351570, Pitch_bend_c, 1, 9472
2, 351591, Pitch_bend_c, 1, 9600
2, 351600, Pitch_bend_c, 1, 9600
2, 351840, Pitch_bend_c, 1, 9600
2, 351861, Pitch_bend_c, 1, 9472
2, 351882, Pitch_bend_c, 1, 9344
2, 351903, Pitch_bend_c, 1, 9216
2, 351924, Pitch_bend_c, 1, 9088
2, 351945, Pitch_bend_c, 1, 8960
2, 351966, Pitch_bend_c, 1, 8832
2, 351987, Pitch_bend_c, 1, 8704
2, 352008, Pitch_bend_c, 1, 8576
2, 352029, Pitch_bend_c, 1, 8448
2, 352050, Pitch_bend_c, 1, 8320
2, 352071, Pitch_bend_c, 1, 8192
2, 352080, Pitch_bend_c, 1, 8192
2, 352320, Pitch_bend_c, 1, 8192
2, 352320, Pitch_bend_c, 1, 8192
2, 352320, Note_off_c, 1, 79, 95
2, 352320, Note_on_c, 0, 79, 47
2, 353280, Note_off_c, 0, 79, 47
2, 353280, Note_on_c, 0, 76, 95
2, 357120, Note_off_c, 0, 76, 95
2, 364800, Note_on_c, 0, 71, 95
2, 365040, Note_off_c, 0, 71, 95
2, 365040, Note_on_c, 0, 74, 70
2, 365280, Note_off_c, 0, 74, 70
2, 365280, Note_on_c, 0, 71, 70
2, 365520, Note_off_c, 0, 71, 70
2, 365520, Note_on_c, 0, 69, 95
2, 365760, Note_off_c, 0, 69, 95
2, 365760, Note_on_c, 0, 71, 95
2, 366000, Note_off_c, 0, 71, 95
2, 366000, Note_on_c, 0, 74, 70
2, 366240, Note_off_c, 0, 74, 70
2, 366240, Note_on_c, 0, 71, 70
2, 366480, Note_off_c, 0, 71, 70
2, 366480, Note_on_c, 0, 69, 95
2, 366720, Note_off_c, 0, 69, 95
2, 366720, Note_on_c, 0, 71, 95
2, 366960, Note_off_c, 0, 71, 95
2, 366960, Note_on_c, 0, 69, 95
2, 367200, Note_off_c, 0, 69, 95
2, 367200, Note_on_c, 0, 67, 95
2, 367440, Note_off_c, 0, 67, 95
2, 367440, Note_on_c, 0, 64, 95
2, 367680, Note_off_c, 0, 64, 95
2, 367680, Note_on_c, 0, 69, 95
2, 367920, Note_off_c, 0, 69, 95
2, 367920, Note_on_c, 0, 67, 95
2, 368160, Note_off_c, 0, 67, 95
2, 368160, Note_on_c, 0, 64, 95
2, 368400, Note_off_c, 0, 64, 95
2, 368400, Note_on_c, 0, 62, 95
2, 368640, Note_off_c, 0, 62, 95
2, 368640, Note_on_c, 0, 69, 95
2, 368880, Note_off_c, 0, 69, 95
2, 368880, Note_on_c, 0, 64, 95
2, 372480, Note_off_c, 0, 64, 95
2, 373440, Pitch_bend_c, 1, 8192
2, 373440, Note_on_c, 1, 69, 95
2, 373450, Pitch_bend_c, 1, 8320
2, 373460, Pitch_bend_c, 1, 8448
2, 373470, Pitch_bend_c, 1, 8576
2, 373480, Pitch_bend_c, 1, 8704
2, 373490, Pitch_bend_c, 1, 8832
2, 373500, Pitch_bend_c, 1, 8960
2, 373510, Pitch_bend_c, 1, 9088
2, 373520, Pitch_bend_c, 1, 9216
2, 373530, Pitch_bend_c, 1, 9344
2, 373540, Pitch_bend_c, 1, 9472
2, 373550, Pitch_bend_c, 1, 9600
2, 373560, Pitch_bend_c, 1, 9600
2, 373680, Pitch_bend_c, 1, 9600
2, 373680, Pitch_bend_c, 1, 8192
2, 373680, Note_off_c, 1, 69, 95
2, 373680, Note_on_c, 0, 71, 95
2, 373920, Note_off_c, 0, 71, 95
2, 373920, Note_on_c, 0, 76, 95
2, 374400, Note_off_c, 0, 76, 95
2, 374880, Pitch_bend_c, 1, 8192
2, 374880, Note_on_c, 1, 69, 95
2, 374890, Pitch_bend_c, 1, 8320
2, 374900, Pitch_bend_c, 1, 8448
2, 374910, Pitch_bend_c, 1, 8576
2, 374920, Pitch_bend_c, 1, 8704
2, 374930, Pitch_bend_c, 1, 8832
2, 374940, Pitch_bend_c, 1, 8960
2, 374950, Pitch_bend_c, 1, 9088
2, 374960, Pitch_bend_c, 1, 9216
2, 374970, Pitch_bend_c, 1, 9344
2, 374980, Pitch_bend_c, 1, 9472
2, 374990, Pitch_bend_c, 1, 9600
2, 375000, Pitch_bend_c, 1, 9600
2, 375120, Pitch_bend_c, 1, 9600
2, 375130, Pitch_bend_c, 1, 9472
2, 375140, Pitch_bend_c, 1, 9344
2, 375150, Pitch_bend_c, 1, 9216
2, 375160, Pitch_bend_c, 1, 9088
2, 375170, Pitch_bend_c, 1, 8960
2, 375180, Pitch_bend_c, 1, 8832
2, 375190, Pitch_bend_c, 1, 8704
2, 375200, Pitch_bend_c, 1, 8576
2, 375210, Pitch_bend_c, 1, 8448
2, 375220, Pitch_bend_c, 1, 8320
2, 375230, Pitch_bend_c, 1, 8192
2, 375240, Pitch_bend_c, 1, 8192
2, 375360, Pitch_bend_c, 1, 8192
2, 375360, Pitch_bend_c, 1, 8192
2, 375360, Note_off_c, 1, 69, 95
2, 375360, Note_on_c, 0, 69, 47
2, 375600, Note_off_c, 0, 69, 47
2, 375600, Note_on_c, 0, 67, 95
2, 375840, Note_off_c, 0, 67, 95
2, 375840, Note_on_c, 0, 64, 95
2, 376320, Note_off_c, 0, 64, 95
2, 376320, Note_on_c, 0, 64, 95
2, 376800, Note_off_c, 0, 64, 95
2, 376800, Note_on_c, 0, 67, 95
2, 377040, Note_off_c, 0, 67, 95
2, 377040, Note_on_c, 0, 69, 70
2, 377280, Note_off_c, 0, 69, 70
2, 377280, Note_on_c, 0, 71, 95
2, 377520, Note_off_c, 0, 71, 95
2, 377520, Note_on_c, 0, 76, 95
2, 377760, Note_off_c, 0, 76, 95
2, 377760, Note_on_c, 0, 74, 95
2, 378000, Note_off_c, 0, 74, 95
2, 378000, Note_on_c, 0, 71, 70
2, 378240, Note_off_c, 0, 71, 70
2, 378240, Note_on_c, 0, 69, 95
2, 379200, Note_off_c, 0, 69, 95
2, 381120, Pitch_bend_c, 1, 8192
2, 381120, Note_on_c, 1, 74, 95
2, 381141, Pitch_bend_c, 1, 8320
2, 381162, Pitch_bend_c, 1, 8448
2, 381183, Pitch_bend_c, 1, 8576
2, 381204, Pitch_bend_c, 1, 8704
2, 381225, Pitch_bend_c, 1, 8832
2, 381246, Pitch_bend_c, 1, 8960
2, 381267, Pitch_bend_c, 1, 9088
2, 381288, Pitch_bend_c, 1, 9216
2, 381309, Pitch_bend_c, 1, 9344
2, 381330, Pitch_bend_c, 1, 9472
2, 381351, Pitch_bend_c, 1, 9600
2, 381360, Pitch_bend_c, 1, 9600
2, 381600, Pitch_bend_c, 1, 9600
2, 381621, Pitch_bend_c, 1, 9472
2, 381642, Pitch_bend_c, 1, 9344
2, 381663, Pitch_bend_c, 1, 9216
2, 381684, Pitch_bend_c, 1, 9088
2, 381705, Pitch_bend_c, 1, 8960
2, 381726, Pitch_bend_c, 1, 8832
2, 381747, Pitch_bend_c, 1, 8704
2, 381768, Pitch_bend_c, 1, 8576
2, 381789, Pitch_bend_c, 1, 8448
2, 381810, Pitch_bend_c, 1, 8320
2, 381831, Pitch_bend_c, 1, 8192
2, 381840, Pitch_bend_c, 1, 8192
2, 382080, Pitch_bend_c, 1, 8192
2, 382080, Pitch_bend_c, 1, 8192
2, 382080, Note_off_c, 1, 74, 95
2, 382080, Note_on_c, 0, 74, 47
2, 382560, Note_off_c, 0, 74, 47
2, 382560, Note_on_c, 0, 71, 95
2, 383040, Note_off_c, 0, 71, 95
2, 383040, Note_on_c, 0, 69, 95
2, 383520, Note_off_c, 0, 69, 95
2, 383520, Note_on_c, 0, 67, 95
2, 384000, Note_off_c, 0, 67, 95
2, 384000, Note_on_c, 0, 64, 95
2, 384960, Note_off_c, 0, 64, 95
2, 384960, Note_on_c, 0, 64, 95
2, 385920, Note_off_c, 0, 64, 95
2, 385920, Note_on_c, 0, 64, 95
2, 386880, Note_off_c, 0, 64, 95
2, 386880, Note_on_c, 0, 67, 95
2, 387840, Note_off_c, 0, 67, 95
2, 387840, Note_on_c, 0, 64, 95
2, 388320, Note_off_c, 0, 64, 95
2, 388320, Note_on_c, 0, 64, 95
2, 388800, Note_off_c, 0, 64, 95
2, 388800, Note_on_c, 0, 64, 95
2, 389280, Note_off_c, 0, 64, 95
2, 389280, Note_on_c, 0, 64, 95
2, 389760, Note_off_c, 0, 64, 95
2, 389760, Note_on_c, 0, 64, 95
2, 390240, Note_off_c, 0, 64, 95
2, 390240, Note_on_c, 0, 64, 95
2, 390720, Note_off_c, 0, 64, 95
2, 390720, Note_on_c, 0, 64, 95
2, 391200, Note_off_c, 0, 64, 95
2, 391200, Note_on_c, 0, 64, 95
2, 391680, Note_off_c, 0, 64, 95
2, 391680, Note_on_c, 0, 64, 95
2, 392160, Note_off_c, 0, 64, 95
2, 392160, Note_on_c, 0, 67, 95
2, 392640, Note_off_c, 0, 67, 95
2, 392640, Note_on_c, 0, 64, 95
2, 393120, Note_off_c, 0, 64, 95
2, 393120, Note_on_c, 0, 62, 95
2, 393600, Note_off_c, 0, 62, 95
2, 393600, Note_on_c, 0, 57, 95
2, 394080, Note_off_c, 0, 57, 95
2, 394080, Note_on_c, 0, 55, 95
2, 394560, Note_off_c, 0, 55, 95
2, 394560, Note_on_c, 0, 57, 95
2, 395040, Note_off_c, 0, 57, 95
2, 395040, Note_on_c, 0, 55, 95
2, 395520, Note_off_c, 0, 55, 95
2, 395520, Note_on_c, 1, 52, 95
2, 395640, Pitch_bend_c, 1, 7168
2, 395760, Pitch_bend_c, 1, 6144
2, 395880, Pitch_bend_c, 1, 5120
2, 396000, Pitch_bend_c, 1, 3968
2, 396120, Pitch_bend_c, 1, 2944
2, 396240, Pitch_bend_c, 1, 1920
2, 396360, Pitch_bend_c, 1, 896
2, 396480, Pitch_bend_c, 1, 0
2, 396480, Pitch_bend_c, 1, 8192
2, 396480, Note_off_c, 1, 52, 95
2, 396480, Note_on_c, 0, 40, 95
2, 396960, Note_off_c, 0, 40, 95
2, 396960, Note_on_c, 0, 40, 95
2, 397440, Note_off_c, 0, 40, 95
2, 397440, Note_on_c, 0, 40, 95
2, 397920, Note_off_c, 0, 40, 95
2, 397920, Note_on_c, 0, 40, 95
2, 398400, Note_off_c, 0, 40, 95
2, 398400, Note_on_c, 0, 47, 95
2, 399360, Note_off_c, 0, 47, 95
2, 399360, Pitch_bend_c, 1, 8192
2, 399360, Note_on_c, 1, 79, 95
2, 399447, Pitch_bend_c, 1, 8320
2, 399534, Pitch_bend_c, 1, 8448
2, 399621, Pitch_bend_c, 1, 8576
2, 399708, Pitch_bend_c, 1, 8704
2, 399795, Pitch_bend_c, 1, 8832
2, 399882, Pitch_bend_c, 1, 8960
2, 399969, Pitch_bend_c, 1, 9088
2, 400056, Pitch_bend_c, 1, 9216
2, 400143, Pitch_bend_c, 1, 9344
2, 400230, Pitch_bend_c, 1, 9472
2, 400317, Pitch_bend_c, 1, 9600
2, 400320, Pitch_bend_c, 1, 9600
2, 401280, Pitch_bend_c, 1, 9600
2, 401280, Pitch_bend_c, 1, 8192
2, 401280, Note_off_c, 1, 79, 95
2, 401280, Pitch_bend_c, 1, 8192
2, 401280, Note_on_c, 1, 79, 95
2, 401353, Pitch_bend_c, 1, 8320
2, 401426, Pitch_bend_c, 1, 8448
2, 401499, Pitch_bend_c, 1, 8576
2, 401572, Pitch_bend_c, 1, 8704
2, 401645, Pitch_bend_c, 1, 8832
2, 401718, Pitch_bend_c, 1, 8960
2, 401791, Pitch_bend_c, 1, 9088
2, 401864, Pitch_bend_c, 1, 9216
2, 401937, Pitch_bend_c, 1, 9344
2, 402010, Pitch_bend_c, 1, 9472
2, 402083, Pitch_bend_c, 1, 9600
2, 402156, Pitch_bend_c, 1, 9728
2, 402229, Pitch_bend_c, 1, 9856
2, 402240, Pitch_bend_c, 1, 9856
2, 403200, Pitch_bend_c, 1, 9856
2, 403200, Pitch_bend_c, 1, 8192
2, 403200, Note_off_c, 1, 79, 95
2, 405120, Pitch_bend_c, 1, 8192
2, 405120, Note_on_c, 1, 79, 95
2, 405250, Pitch_bend_c, 1, 8320
2, 405380, Pitch_bend_c, 1, 8448
2, 405510, Pitch_bend_c, 1, 8576
2, 405640, Pitch_bend_c, 1, 8704
2, 405770, Pitch_bend_c, 1, 8832
2, 405900, Pitch_bend_c, 1, 8960
2, 406030, Pitch_bend_c, 1, 9088
2, 406160, Pitch_bend_c, 1, 9216
2, 406290, Pitch_bend_c, 1, 9344
2, 406420, Pitch_bend_c, 1, 9472
2, 406550, Pitch_bend_c, 1, 9600
2, 406560, Pitch_bend_c, 1, 9600
2, 408000, Pitch_bend_c, 1, 9600
2, 408000, Pitch_bend_c, 1, 8192
2, 408000, Note_off_c, 1, 79, 95
2, 408000, Note_on_c, 0, 76, 95
2, 408480, Note_off_c, 0, 76, 95
2, 408480, Note_on_c, 0, 74, 95
2, 408960, Note_off_c, 0, 74, 95
2, 408960, Note_on_c, 0, 76, 95
2, 409920, Note_off_c, 0, 76, 95
2, 409920, Note_on_c, 0, 74, 95
2, 410400, Note_off_c, 0, 74, 95
2, 410400, Note_on_c, 0, 71, 95
2, 410880, Note_off_c, 0, 71, 95
2, 410880, Pitch_bend_c, 1, 8192
2, 410880, Note_on_c, 1, 69, 95
2, 410901, Pitch_bend_c, 1, 8320
2, 410922, Pitch_bend_c, 1, 8448
2, 410943, Pitch_bend_c, 1, 8576
2, 410964, Pitch_bend_c, 1, 8704
2, 410985, Pitch_bend_c, 1, 8832
2, 411006, Pitch_bend_c, 1, 8960
2, 411027, Pitch_bend_c, 1, 9088
2, 411048, Pitch_bend_c, 1, 9216
2, 411069, Pitch_bend_c, 1, 9344
2, 411090, Pitch_bend_c, 1, 9472
2, 411111, Pitch_bend_c, 1, 9600
2, 411120, Pitch_bend_c, 1, 9600
2, 411360, Pitch_bend_c, 1, 9600
2, 411360, Pitch_bend_c, 1, 8192
2, 411360, Note_off_c, 1, 69, 95
2, 411360, Note_on_c, 0, 74, 95
2, 411840, Note_off_c, 0, 74, 95
2, 411840, Pitch_bend_c, 1, 8192
2, 411840, Note_on_c, 1, 69, 47
2, 411850, Pitch_bend_c, 1, 8320
2, 411860, Pitch_bend_c, 1, 8448
2, 411870, Pitch_bend_c, 1, 8576
2, 411880, Pitch_bend_c, 1, 8704
2, 411890, Pitch_bend_c, 1, 8832
2, 411900, Pitch_bend_c, 1, 8960
2, 411910, Pitch_bend_c, 1, 9088
2, 411920, Pitch_bend_c, 1, 9216
2, 411930, Pitch_bend_c, 1, 9344
2, 411940, Pitch_bend_c, 1, 9472
2, 411950, Pitch_bend_c, 1, 9600
2, 411960, Pitch_bend_c, 1, 9600
2, 412080, Pitch_bend_c, 1, 9600
2, 412090, Pitch_bend_c, 1, 9472
2, 412100, Pitch_bend_c, 1, 9344
2, 412110, Pitch_bend_c, 1, 9216
2, 412120, Pitch_bend_c, 1, 9088
2, 412130, Pitch_bend_c, 1, 8960
2, 412140, Pitch_bend_c, 1, 8832
2, 412150, Pitch_bend_c, 1, 8704
2, 412160, Pitch_bend_c, 1, 8576
2, 412170, Pitch_bend_c, 1, 8448
2, 412180, Pitch_bend_c, 1, 8320
2, 412190, Pitch_bend_c, 1, 8192
2, 412200, Pitch_bend_c, 1, 8192
2, 412320, Pitch_bend_c, 1, 8192
2, 412320, Pitch_bend_c, 1, 8192
2, 412320, Note_off_c, 1, 69, 47
2, 412320, Note_on_c, 0, 69, 47
2, 412800, Note_off_c, 0, 69, 47
2, 412800, Note_on_c, 0, 67, 95
2, 413280, Note_off_c, 0, 67, 95
2, 413280, Note_on_c, 0, 64, 95
2, 413760, Note_off_c, 0, 64, 95
2, 413760, Note_on_c, 0, 67, 95
2, 414240, Note_off_c, 0, 67, 95
2, 414240, Note_on_c, 0, 69, 95
2, 414720, Note_off_c, 0, 69, 95
2, 414720, Pitch_bend_c, 1, 8192
2, 414720, Note_on_c, 1, 69, 95
2, 414741, Pitch_bend_c, 1, 8320
2, 414762, Pitch_bend_c, 1, 8448
2, 414783, Pitch_bend_c, 1, 8576
2, 414804, Pitch_bend_c, 1, 8704
2, 414825, Pitch_bend_c, 1, 8832
2, 414846, Pitch_bend_c, 1, 8960
2, 414867, Pitch_bend_c, 1, 9088
2, 414888, Pitch_bend_c, 1, 9216
2, 414909, Pitch_bend_c, 1, 9344
2, 414930, Pitch_bend_c, 1, 9472
2, 414951, Pitch_bend_c, 1, 9600
2, 414960, Pitch_bend_c, 1, 9600
2, 415200, Pitch_bend_c, 1, 9600
2, 415200, Pitch_bend_c, 1, 8192
2, 415200, Note_off_c, 1, 69, 95
2, 415200, Note_on_c, 0, 69, 95
2, 415680, Note_off_c, 0, 69, 95
2, 415680, Note_on_c, 0, 76, 95
2, 416160, Note_off_c, 0, 76, 95
2, 416160, Note_on_c, 0, 74, 95
2, 416640, Note_off_c, 0, 74, 95
2, 416640, Pitch_bend_c, 1, 8192
2, 416640, Note_on_c, 1, 73, 95
2, 416640, Pitch_bend_c, 1, 8192
2, 416640, Note_on_c, 1, 69, 95
2, 416736, Pitch_bend_c, 1, 8320
2, 416736, Pitch_bend_c, 1, 8320
2, 416832, Pitch_bend_c, 1, 8448
2, 416832, Pitch_bend_c, 1, 8448
2, 416928, Pitch_bend_c, 1, 8576
2, 416928, Pitch_bend_c, 1, 8576
2, 417024, Pitch_bend_c, 1, 8704
2, 417024, Pitch_bend_c, 1, 8704
2, 417120, Pitch_bend_c, 1, 8832
2, 417120, Pitch_bend_c, 1, 8832
2, 417120, Pitch_bend_c, 1, 8832
2, 417120, Pitch_bend_c, 1, 8832
2, 417600, Pitch_bend_c, 1, 8832
2, 417600, Pitch_bend_c, 1, 8192
2, 417600, Note_off_c, 1, 73, 95
2, 417600, Pitch_bend_c, 1, 8832
2, 417600, Pitch_bend_c, 1, 8192
2, 417600, Note_off_c, 1, 69, 95
2, 418560, Pitch_bend_c, 1, 8192
2, 418560, Note_on_c, 1, 69, 95
2, 418570, Pitch_bend_c, 1, 8320
2, 418580, Pitch_bend_c, 1, 8448
2, 418590, Pitch_bend_c, 1, 8576
2, 418600, Pitch_bend_c, 1, 8704
2, 418610, Pitch_bend_c, 1, 8832
2, 418620, Pitch_bend_c, 1, 8960
2, 418630, Pitch_bend_c, 1, 9088
2, 418640, Pitch_bend_c, 1, 9216
2, 418650, Pitch_bend_c, 1, 9344
2, 418660, Pitch_bend_c, 1, 9472
2, 418670, Pitch_bend_c, 1, 9600
2, 418680, Pitch_bend_c, 1, 9600
2, 418800, Pitch_bend_c, 1, 9600
2, 418810, Pitch_bend_c, 1, 9472
2, 418820, Pitch_bend_c, 1, 9344
2, 418830, Pitch_bend_c, 1, 9216
2, 418840, Pitch_bend_c, 1, 9088
2, 418850, Pitch_bend_c, 1, 8960
2, 418860, Pitch_bend_c, 1, 8832
2, 418870, Pitch_bend_c, 1, 8704
2, 418880, Pitch_bend_c, 1, 8576
2, 418890, Pitch_bend_c, 1, 8448
2, 418900, Pitch_bend_c, 1, 8320
2, 418910, Pitch_bend_c, 1, 8192
2, 418920, Pitch_bend_c, 1, 8192
2, 419040, Pitch_bend_c, 1, 8192
2, 419040, Pitch_bend_c, 1, 8192
2, 419040, Note_off_c, 1, 69, 95
2, 419040, Note_on_c, 0, 69, 47
2, 419520, Note_off_c, 0, 69, 47
2, 419520, Note_on_c, 0, 67, 95
2, 420000, Note_off_c, 0, 67, 95
2, 420000, Note_on_c, 0, 64, 95
2, 420480, Note_off_c, 0, 64, 95
2, 420480, Note_on_c, 0, 71, 95
2, 420480, Note_on_c, 0, 67, 95
2, 420960, Note_off_c, 0, 71, 95
2, 420960, Note_off_c, 0, 67, 95
2, 420960, Note_on_c, 0, 73, 95
2, 420960, Note_on_c, 0, 69, 95
2, 421440, Note_off_c, 0, 73, 95
2, 421440, Note_off_c, 0, 69, 95
2, 421440, Note_on_c, 0, 71, 95
2, 421440, Note_on_c, 0, 67, 95
2, 421920, Note_off_c, 0, 71, 95
2, 421920, Note_off_c, 0, 67, 95
2, 421920, Note_on_c, 0, 67, 95
2, 421920, Note_on_c, 0, 64, 95
2, 422400, Note_off_c, 0, 67, 95
2, 422400, Note_off_c, 0, 64, 95
2, 422400, Note_on_c, 0, 71, 95
2, 422400, Note_on_c, 0, 67, 95
2, 423360, Note_off_c, 0, 71, 95
2, 423360, Note_off_c, 0, 67, 95
2, 423360, Note_on_c, 0, 73, 95
2, 423360, Note_on_c, 0, 69, 95
2, 424320, Note_off_c, 0, 73, 95
2, 424320, Note_off_c, 0, 69, 95
2, 424320, Pitch_bend_c, 1, 8192
2, 424320, Note_on_c, 1, 73, 95
2, 424320, Pitch_bend_c, 1, 8192
2, 424320, Note_on_c, 1, 69, 95
2, 424363, Pitch_bend_c, 1, 8320
2, 424406, Pitch_bend_c, 1, 8448
2, 424416, Pitch_bend_c, 1, 8320
2, 424449, Pitch_bend_c, 1, 8576
2, 424492, Pitch_bend_c, 1, 8704
2, 424512, Pitch_bend_c, 1, 8448
2, 424535, Pitch_bend_c, 1, 8832
2, 424578, Pitch_bend_c, 1, 8960
2, 424608, Pitch_bend_c, 1, 8576
2, 424621, Pitch_bend_c, 1, 9088
2, 424664, Pitch_bend_c, 1, 9216
2, 424704, Pitch_bend_c, 1, 8704
2, 424707, Pitch_bend_c, 1, 9344
2, 424750, Pitch_bend_c, 1, 9472
2, 424793, Pitch_bend_c, 1, 9600
2, 424800, Pitch_bend_c, 1, 8832
2, 424800, Pitch_bend_c, 1, 8832
2, 424800, Pitch_bend_c, 1, 9600
2, 425280, Pitch_bend_c, 1, 8832
2, 425280, Pitch_bend_c, 1, 8192
2, 425280, Note_off_c, 1, 73, 95
2, 425280, Pitch_bend_c, 1, 9600
2, 425280, Pitch_bend_c, 1, 8192
2, 425280, Note_off_c, 1, 69, 95
2, 426720, Pitch_bend_c, 1, 8192
2, 426720, Note_on_c, 1, 69, 95
2, 426741, Pitch_bend_c, 1, 8320
2, 426762, Pitch_bend_c, 1, 8448
2, 426783, Pitch_bend_c, 1, 8576
2, 426804, Pitch_bend_c, 1, 8704
2, 426825, Pitch_bend_c, 1, 8832
2, 426846, Pitch_bend_c, 1, 8960
2, 426867, Pitch_bend_c, 1, 9088
2, 426888, Pitch_bend_c, 1, 9216
2, 426909, Pitch_bend_c, 1, 9344
2, 426930, Pitch_bend_c, 1, 9472
2, 426951, Pitch_bend_c, 1, 9600
2, 426960, Pitch_bend_c, 1, 9600
2, 427200, Pitch_bend_c, 1, 9600
2, 427200, Pitch_bend_c, 1, 8192
2, 427200, Note_off_c, 1, 69, 95
2, 427200, Note_on_c, 0, 71, 95
2, 427680, Note_off_c, 0, 71, 95
2, 427680, Pitch_bend_c, 1, 8192
2, 427680, Note_on_c, 1, 69, 95
2, 427701, Pitch_bend_c, 1, 8320
2, 427722, Pitch_bend_c, 1, 8448
2, 427743, Pitch_bend_c, 1, 8576
2, 427764, Pitch_bend_c, 1, 8704
2, 427785, Pitch_bend_c, 1, 8832
2, 427806, Pitch_bend_c, 1, 8960
2, 427827, Pitch_bend_c, 1, 9088
2, 427848, Pitch_bend_c, 1, 9216
2, 427869, Pitch_bend_c, 1, 9344
2, 427890, Pitch_bend_c, 1, 9472
2, 427911, Pitch_bend_c, 1, 9600
2, 427920, Pitch_bend_c, 1, 9600
2, 428160, Pitch_bend_c, 1, 9600
2, 428160, Pitch_bend_c, 1, 8192
2, 428160, Note_off_c, 1, 69, 95
2, 428160, Note_on_c, 0, 71, 95
2, 429120, Note_off_c, 0, 71, 95
2, 429120, Pitch_bend_c, 1, 8192
2, 429120, Note_on_c, 1, 69, 95
2, 429141, Pitch_bend_c, 1, 8320
2, 429162, Pitch_bend_c, 1, 8448
2, 429183, Pitch_bend_c, 1, 8576
2, 429204, Pitch_bend_c, 1, 8704
2, 429225, Pitch_bend_c, 1, 8832
2, 429246, Pitch_bend_c, 1, 8960
2, 429267, Pitch_bend_c, 1, 9088
2, 429288, Pitch_bend_c, 1, 9216
2, 429309, Pitch_bend_c, 1, 9344
2, 429330, Pitch_bend_c, 1, 9472
2, 429351, Pitch_bend_c, 1, 9600
2, 429360, Pitch_bend_c, 1, 9600
2, 429600, Pitch_bend_c, 1, 9600
2, 429600, Pitch_bend_c, 1, 8192
2, 429600, Note_off_c, 1, 69, 95
2, 429600, Note_on_c, 0, 71, 95
2, 430080, Note_off_c, 0, 71, 95
2, 430080, Note_on_c, 0, 71, 95
2, 430560, Note_off_c, 0, 71, 95
2, 430560, Pitch_bend_c, 1, 8192
2, 430560, Note_on_c, 1, 73, 95
2, 430560, Pitch_bend_c, 1, 8192
2, 430560, Note_on_c, 1, 69, 95
2, 430603, Pitch_bend_c, 1, 8320
2, 430646, Pitch_bend_c, 1, 8448
2, 430656, Pitch_bend_c, 1, 8320
2, 430689, Pitch_bend_c, 1, 8576
2, 430732, Pitch_bend_c, 1, 8704
2, 430752, Pitch_bend_c, 1, 8448
2, 430775, Pitch_bend_c, 1, 8832
2, 430818, Pitch_bend_c, 1, 8960
2, 430848, Pitch_bend_c, 1, 8576
2, 430861, Pitch_bend_c, 1, 9088
2, 430904, Pitch_bend_c, 1, 9216
2, 430944, Pitch_bend_c, 1, 8704
2, 430947, Pitch_bend_c, 1, 9344
2, 430990, Pitch_bend_c, 1, 9472
2, 431033, Pitch_bend_c, 1, 9600
2, 431040, Pitch_bend_c, 1, 8832
2, 431040, Pitch_bend_c, 1, 8832
2, 431040, Pitch_bend_c, 1, 9600
2, 431520, Pitch_bend_c, 1, 8832
2, 431520, Pitch_bend_c, 1, 8192
2, 431520, Note_off_c, 1, 73, 95
2, 431520, Pitch_bend_c, 1, 9600
2, 431520, Pitch_bend_c, 1, 8192
2, 431520, Note_off_c, 1, 69, 95
2, 431520, Note_on_c, 0, 71, 95
2, 432000, Note_off_c, 0, 71, 95
2, 432000, Pitch_bend_c, 1, 8192
2, 432000, Note_on_c, 1, 73, 95
2, 432000, Pitch_bend_c, 1, 8192
2, 432000, Note_on_c, 1, 69, 95
2, 432010, Pitch_bend_c, 1, 8320
2, 432020, Pitch_bend_c, 1, 8448
2, 432024, Pitch_bend_c, 1, 8320
2, 432030, Pitch_bend_c, 1, 8576
2, 432040, Pitch_bend_c, 1, 8704
2, 432048, Pitch_bend_c, 1, 8448
2, 432050, Pitch_bend_c, 1, 8832
2, 432060, Pitch_bend_c, 1, 8960
2, 432070, Pitch_bend_c, 1, 9088
2, 432072, Pitch_bend_c, 1, 8576
2, 432080, Pitch_bend_c, 1, 9216
2, 432090, Pitch_bend_c, 1, 9344
2, 432096, Pitch_bend_c, 1, 8704
2, 432100, Pitch_bend_c, 1, 9472
2, 432110, Pitch_bend_c, 1, 9600
2, 432120, Pitch_bend_c, 1, 8832
2, 432120, Pitch_bend_c, 1, 8832
2, 432120, Pitch_bend_c, 1, 9600
2, 432240, Pitch_bend_c, 1, 8832
2, 432240, Pitch_bend_c, 1, 9600
2, 432250, Pitch_bend_c, 1, 9472
2, 432260, Pitch_bend_c, 1, 9344
2, 432264, Pitch_bend_c, 1, 8704
2, 432270, Pitch_bend_c, 1, 9216
2, 432280, Pitch_bend_c, 1, 9088
2, 432288, Pitch_bend_c, 1, 8576
2, 432290, Pitch_bend_c, 1, 8960
2, 432300, Pitch_bend_c, 1, 8832
2, 432310, Pitch_bend_c, 1, 8704
2, 432312, Pitch_bend_c, 1, 8448
2, 432320, Pitch_bend_c, 1, 8576
2, 432330, Pitch_bend_c, 1, 8448
2, 432336, Pitch_bend_c, 1, 8320
2, 432340, Pitch_bend_c, 1, 8320
2, 432350, Pitch_bend_c, 1, 8192
2, 432360, Pitch_bend_c, 1, 8192
2, 432360, Pitch_bend_c, 1, 8192
2, 432360, Pitch_bend_c, 1, 8192
2, 432480, Pitch_bend_c, 1, 8192
2, 432480, Pitch_bend_c, 1, 8192
2, 432480, Note_off_c, 1, 73, 95
2, 432480, Pitch_bend_c, 1, 8192
2, 432480, Pitch_bend_c, 1, 8192
2, 432480, Note_off_c, 1, 69, 95
2, 432480, Note_on_c, 0, 73, 95
2, 432480, Note_on_c, 0, 69, 95
2, 432960, Note_off_c, 0, 73, 95
2, 432960, Note_off_c, 0, 69, 95
2, 432960, Note_on_c, 0, 59, 95
2, 432960, Note_on_c, 0, 55, 95
2, 433036, Note_off_c, 0, 59, 95
2, 433036, Note_off_c, 0, 55, 95
2, 433440, Pitch_bend_c, 1, 8192
2, 433440, Note_on_c, 1, 73, 95
2, 433440, Pitch_bend_c, 1, 8192
2, 433440, Note_on_c, 1, 69, 95
2, 433461, Pitch_bend_c, 1, 8320
2, 433482, Pitch_bend_c, 1, 8448
2, 433488, Pitch_bend_c, 1, 8320
2, 433503, Pitch_bend_c, 1, 8576
2, 433524, Pitch_bend_c, 1, 8704
2, 433536, Pitch_bend_c, 1, 8448
2, 433545, Pitch_bend_c, 1, 8832
2, 433566, Pitch_bend_c, 1, 8960
2, 433584, Pitch_bend_c, 1, 8576
2, 433587, Pitch_bend_c, 1, 9088
2, 433608, Pitch_bend_c, 1, 9216
2, 433629, Pitch_bend_c, 1, 9344
2, 433632, Pitch_bend_c, 1, 8704
2, 433650, Pitch_bend_c, 1, 9472
2, 433671, Pitch_bend_c, 1, 9600
2, 433680, Pitch_bend_c, 1, 8832
2, 433680, Pitch_bend_c, 1, 8832
2, 433680, Pitch_bend_c, 1, 9600
2, 433920, Pitch_bend_c, 1, 8832
2, 433920, Pitch_bend_c, 1, 8192
2, 433920, Note_off_c, 1, 73, 95
2, 433920, Pitch_bend_c, 1, 9600
2, 433920, Pitch_bend_c, 1, 8192
2, 433920, Note_off_c, 1, 69, 95
2, 433920, Note_on_c, 0, 73, 47
2, 433920, Note_on_c, 0, 69, 47
2, 434400, Note_off_c, 0, 73, 47
2, 434400, Note_off_c, 0, 69, 47
2, 434400, Note_on_c, 0, 59, 95
2, 434400, Note_on_c, 0, 55, 95
2, 434476, Note_off_c, 0, 59, 95
2, 434476, Note_off_c, 0, 55, 95
2, 434880, Pitch_bend_c, 1, 8192
2, 434880, Note_on_c, 1, 73, 95
2, 434880, Pitch_bend_c, 1, 8192
2, 434880, Note_on_c, 1, 69, 95
2, 434901, Pitch_bend_c, 1, 8320
2, 434922, Pitch_bend_c, 1, 8448
2, 434928, Pitch_bend_c, 1, 8320
2, 434943, Pitch_bend_c, 1, 8576
2, 434964, Pitch_bend_c, 1, 8704
2, 434976, Pitch_bend_c, 1, 8448
2, 434985, Pitch_bend_c, 1, 8832
2, 435006, Pitch_bend_c, 1, 8960
2, 435024, Pitch_bend_c, 1, 8576
2, 435027, Pitch_bend_c, 1, 9088
2, 435048, Pitch_bend_c, 1, 9216
2, 435069, Pitch_bend_c, 1, 9344
2, 435072, Pitch_bend_c, 1, 8704
2, 435090, Pitch_bend_c, 1, 9472
2, 435111, Pitch_bend_c, 1, 9600
2, 435120, Pitch_bend_c, 1, 8832
2, 435120, Pitch_bend_c, 1, 8832
2, 435120, Pitch_bend_c, 1, 9600
2, 435360, Pitch_bend_c, 1, 8832
2, 435360, Pitch_bend_c, 1, 8192
2, 435360, Note_off_c, 1, 73, 95
2, 435360, Pitch_bend_c, 1, 9600
2, 435360, Pitch_bend_c, 1, 8192
2, 435360, Note_off_c, 1, 69, 95
2, 435360, Note_on_c, 0, 59, 95
2, 435360, Note_on_c, 0, 55, 95
2, 435436, Note_off_c, 0, 59, 95
2, 435436, Note_off_c, 0, 55, 95
2, 435840, Pitch_bend_c, 1, 8192
2, 435840, Note_on_c, 1, 73, 95
2, 435840, Pitch_bend_c, 1, 8192
2, 435840, Note_on_c, 1, 69, 95
2, 435850, Pitch_bend_c, 1, 8320
2, 435860, Pitch_bend_c, 1, 8448
2, 435864, Pitch_bend_c, 1, 8320
2, 435870, Pitch_bend_c, 1, 8576
2, 435880, Pitch_bend_c, 1, 8704
2, 435888, Pitch_bend_c, 1, 8448
2, 435890, Pitch_bend_c, 1, 8832
2, 435900, Pitch_bend_c, 1, 8960
2, 435910, Pitch_bend_c, 1, 9088
2, 435912, Pitch_bend_c, 1, 8576
2, 435920, Pitch_bend_c, 1, 9216
2, 435930, Pitch_bend_c, 1, 9344
2, 435936, Pitch_bend_c, 1, 8704
2, 435940, Pitch_bend_c, 1, 9472
2, 435950, Pitch_bend_c, 1, 9600
2, 435960, Pitch_bend_c, 1, 8832
2, 435960, Pitch_bend_c, 1, 8832
2, 435960, Pitch_bend_c, 1, 9600
2, 436080, Pitch_bend_c, 1, 8832
2, 436080, Pitch_bend_c, 1, 9600
2, 436090, Pitch_bend_c, 1, 9472
2, 436100, Pitch_bend_c, 1, 9344
2, 436104, Pitch_bend_c, 1, 8704
2, 436110, Pitch_bend_c, 1, 9216
2, 436120, Pitch_bend_c, 1, 9088
2, 436128, Pitch_bend_c, 1, 8576
2, 436130, Pitch_bend_c, 1, 8960
2, 436140, Pitch_bend_c, 1, 8832
2, 436150, Pitch_bend_c, 1, 8704
2, 436152, Pitch_bend_c, 1, 8448
2, 436160, Pitch_bend_c, 1, 8576
2, 436170, Pitch_bend_c, 1, 8448
2, 436176, Pitch_bend_c, 1, 8320
2, 436180, Pitch_bend_c, 1, 8320
2, 436190, Pitch_bend_c, 1, 8192
2, 436200, Pitch_bend_c, 1, 8192
2, 436200, Pitch_bend_c, 1, 8192
2, 436200, Pitch_bend_c, 1, 8192
2, 436320, Pitch_bend_c, 1, 8192
2, 436320, Pitch_bend_c, 1, 8192
2, 436320, Note_off_c, 1, 73, 95
2, 436320, Pitch_bend_c, 1, 8192
2, 436320, Pitch_bend_c, 1, 8192
2, 436320, Note_off_c, 1, 69, 95
2, 436320, Note_on_c, 0, 73, 95
2, 436320, Note_on_c, 0, 69, 95
2, 437280, Note_off_c, 0, 73, 95
2, 437280, Note_off_c, 0, 69, 95
2, 437280, Note_on_c, 0, 59, 95
2, 437280, Note_on_c, 0, 55, 95
2, 437356, Note_off_c, 0, 59, 95
2, 437356, Note_off_c, 0, 55, 95
2, 437760, Pitch_bend_c, 1, 8192
2, 437760, Note_on_c, 1, 73, 95
2, 437760, Pitch_bend_c, 1, 8192
2, 437760, Note_on_c, 1, 69, 95
2, 437803, Pitch_bend_c, 1, 8320
2, 437846, Pitch_bend_c, 1, 8448
2, 437856, Pitch_bend_c, 1, 8320
2, 437889, Pitch_bend_c, 1, 8576
2, 437932, Pitch_bend_c, 1, 8704
2, 437952, Pitch_bend_c, 1, 8448
2, 437975, Pitch_bend_c, 1, 8832
2, 438018, Pitch_bend_c, 1, 8960
2, 438048, Pitch_bend_c, 1, 8576
2, 438061, Pitch_bend_c, 1, 9088
2, 438104, Pitch_bend_c, 1, 9216
2, 438144, Pitch_bend_c, 1, 8704
2, 438147, Pitch_bend_c, 1, 9344
2, 438190, Pitch_bend_c, 1, 9472
2, 438233, Pitch_bend_c, 1, 9600
2, 438240, Pitch_bend_c, 1, 8832
2, 438240, Pitch_bend_c, 1, 8832
2, 438240, Pitch_bend_c, 1, 9600
2, 438720, Pitch_bend_c, 1, 8832
2, 438720, Pitch_bend_c, 1, 8192
2, 438720, Note_off_c, 1, 73, 95
2, 438720, Pitch_bend_c, 1, 9600
2, 438720, Pitch_bend_c, 1, 8192
2, 438720, Note_off_c, 1, 69, 95
2, 438720, Pitch_bend_c, 1, 8192
2, 438720, Note_on_c, 1, 73, 47
2, 438768, Pitch_bend_c, 1, 8320
2, 438816, Pitch_bend_c, 1, 8448
2, 438864, Pitch_bend_c, 1, 8576
2, 438912, Pitch_bend_c, 1, 8704
2, 438960, Pitch_bend_c, 1, 8832
2, 438960, Pitch_bend_c, 1, 8832
2, 439200, Pitch_bend_c, 1, 8832
2, 439200, Pitch_bend_c, 1, 8192
2, 439200, Note_off_c, 1, 73, 47
2, 439200, Pitch_bend_c, 1, 8192
2, 439200, Note_on_c, 1, 73, 95
2, 439200, Pitch_bend_c, 1, 8192
2, 439200, Note_on_c, 1, 69, 95
2, 439243, Pitch_bend_c, 1, 8320
2, 439286, Pitch_bend_c, 1, 8448
2, 439296, Pitch_bend_c, 1, 8320
2, 439329, Pitch_bend_c, 1, 8576
2, 439372, Pitch_bend_c, 1, 8704
2, 439392, Pitch_bend_c, 1, 8448
2, 439415, Pitch_bend_c, 1, 8832
2, 439458, Pitch_bend_c, 1, 8960
2, 439488, Pitch_bend_c, 1, 8576
2, 439501, Pitch_bend_c, 1, 9088
2, 439544, Pitch_bend_c, 1, 9216
2, 439584, Pitch_bend_c, 1, 8704
2, 439587, Pitch_bend_c, 1, 9344
2, 439630, Pitch_bend_c, 1, 9472
2, 439673, Pitch_bend_c, 1, 9600
2, 439680, Pitch_bend_c, 1, 8832
2, 439680, Pitch_bend_c, 1, 8832
2, 439680, Pitch_bend_c, 1, 9600
2, 440160, Pitch_bend_c, 1, 8832
2, 440160, Pitch_bend_c, 1, 8192
2, 440160, Note_off_c, 1, 73, 95
2, 440160, Pitch_bend_c, 1, 9600
2, 440160, Pitch_bend_c, 1, 8192
2, 440160, Note_off_c, 1, 69, 95
2, 440160, Pitch_bend_c, 1, 8192
2, 440160, Note_on_c, 1, 73, 47
2, 440208, Pitch_bend_c, 1, 8320
2, 440256, Pitch_bend_c, 1, 8448
2, 440304, Pitch_bend_c, 1, 8576
2, 440352, Pitch_bend_c, 1, 8704
2, 440400, Pitch_bend_c, 1, 8832
2, 440400, Pitch_bend_c, 1, 8832
2, 440640, Pitch_bend_c, 1, 8832
2, 440640, Pitch_bend_c, 1, 8192
2, 440640, Note_off_c, 1, 73, 47
2, 440640, Pitch_bend_c, 1, 8192
2, 440640, Note_on_c, 1, 73, 95
2, 440640, Pitch_bend_c, 1, 8192
2, 440640, Note_on_c, 1, 69, 95
2, 440683, Pitch_bend_c, 1, 8320
2, 440726, Pitch_bend_c, 1, 8448
2, 440736, Pitch_bend_c, 1, 8320
2, 440769, Pitch_bend_c, 1, 8576
2, 440812, Pitch_bend_c, 1, 8704
2, 440832, Pitch_bend_c, 1, 8448
2, 440855, Pitch_bend_c, 1, 8832
2, 440898, Pitch_bend_c, 1, 8960
2, 440928, Pitch_bend_c, 1, 8576
2, 440941, Pitch_bend_c, 1, 9088
2, 440984, Pitch_bend_c, 1, 9216
2, 441024, Pitch_bend_c, 1, 8704
2, 441027, Pitch_bend_c, 1, 9344
2, 441070, Pitch_bend_c, 1, 9472
2, 441113, Pitch_bend_c, 1, 9600
2, 441120, Pitch_bend_c, 1, 8832
2, 441120, Pitch_bend_c, 1, 8832
2, 441120, Pitch_bend_c, 1, 9600
2, 441600, Pitch_bend_c, 1, 8832
2, 441600, Pitch_bend_c, 1, 8192
2, 441600, Note_off_c, 1, 73, 95
2, 441600, Pitch_bend_c, 1, 9600
2, 441600, Pitch_bend_c, 1, 8192
2, 441600, Note_off_c, 1, 69, 95
2, 441600, Pitch_bend_c, 1, 8192
2, 441600, Note_on_c, 1, 73, 47
2, 441648, Pitch_bend_c, 1, 8320
2, 441696, Pitch_bend_c, 1, 8448
2, 441744, Pitch_bend_c, 1, 8576
2, 441792, Pitch_bend_c, 1, 8704
2, 441840, Pitch_bend_c, 1, 8832
2, 441840, Pitch_bend_c, 1, 8832
2, 442080, Pitch_bend_c, 1, 8832
2, 442080, Pitch_bend_c, 1, 8192
2, 442080, Note_off_c, 1, 73, 47
2, 442080, Pitch_bend_c, 1, 8192
2, 442080, Note_on_c, 1, 73, 95
2, 442080, Pitch_bend_c, 1, 8192
2, 442080, Note_on_c, 1, 69, 95
2, 442123, Pitch_bend_c, 1, 8320
2, 442166, Pitch_bend_c, 1, 8448
2, 442176, Pitch_bend_c, 1, 8320
2, 442209, Pitch_bend_c, 1, 8576
2, 442252, Pitch_bend_c, 1, 8704
2, 442272, Pitch_bend_c, 1, 8448
2, 442295, Pitch_bend_c, 1, 8832
2, 442338, Pitch_bend_c, 1, 8960
2, 442368, Pitch_bend_c, 1, 8576
2, 442381, Pitch_bend_c, 1, 9088
2, 442424, Pitch_bend_c, 1, 9216
2, 442464, Pitch_bend_c, 1, 8704
2, 442467, Pitch_bend_c, 1, 9344
2, 442510, Pitch_bend_c, 1, 9472
2, 442553, Pitch_bend_c, 1, 9600
2, 442560, Pitch_bend_c, 1, 8832
2, 442560, Pitch_bend_c, 1, 8832
2, 442560, Pitch_bend_c, 1, 9600
2, 443040, Pitch_bend_c, 1, 8832
2, 443040, Pitch_bend_c, 1, 8192
2, 443040, Note_off_c, 1, 73, 95
2, 443040, Pitch_bend_c, 1, 9600
2, 443040, Pitch_bend_c, 1, 8192
2, 443040, Note_off_c, 1, 69, 95
2, 443040, Pitch_bend_c, 1, 8192
2, 443040, Note_on_c, 1, 73, 95
2, 443088, Pitch_bend_c, 1, 8320
2, 443136, Pitch_bend_c, 1, 8448
2, 443184, Pitch_bend_c, 1, 8576
2, 443232, Pitch_bend_c, 1, 8704
2, 443280, Pitch_bend_c, 1, 8832
2, 443280, Pitch_bend_c, 1, 8832
2, 443520, Pitch_bend_c, 1, 8832
2, 443520, Pitch_bend_c, 1, 8192
2, 443520, Note_off_c, 1, 73, 95
2, 443520, Pitch_bend_c, 1, 8192
2, 443520, Note_on_c, 1, 73, 95
2, 443520, Pitch_bend_c, 1, 8192
2, 443520, Note_on_c, 1, 69, 95
2, 443530, Pitch_bend_c, 1, 8320
2, 443540, Pitch_bend_c, 1, 8448
2, 443544, Pitch_bend_c, 1, 8320
2, 443550, Pitch_bend_c, 1, 8576
2, 443560, Pitch_bend_c, 1, 8704
2, 443568, Pitch_bend_c, 1, 8448
2, 443570, Pitch_bend_c, 1, 8832
2, 443580, Pitch_bend_c, 1, 8960
2, 443590, Pitch_bend_c, 1, 9088
2, 443592, Pitch_bend_c, 1, 8576
2, 443600, Pitch_bend_c, 1, 9216
2, 443610, Pitch_bend_c, 1, 9344
2, 443616, Pitch_bend_c, 1, 8704
2, 443620, Pitch_bend_c, 1, 9472
2, 443630, Pitch_bend_c, 1, 9600
2, 443640, Pitch_bend_c, 1, 8832
2, 443640, Pitch_bend_c, 1, 8832
2, 443640, Pitch_bend_c, 1, 9600
2, 443760, Pitch_bend_c, 1, 8832
2, 443760, Pitch_bend_c, 1, 9600
2, 443770, Pitch_bend_c, 1, 9472
2, 443780, Pitch_bend_c, 1, 9344
2, 443784, Pitch_bend_c, 1, 8704
2, 443790, Pitch_bend_c, 1, 9216
2, 443800, Pitch_bend_c, 1, 9088
2, 443808, Pitch_bend_c, 1, 8576
2, 443810, Pitch_bend_c, 1, 8960
2, 443820, Pitch_bend_c, 1, 8832
2, 443830, Pitch_bend_c, 1, 8704
2, 443832, Pitch_bend_c, 1, 8448
2, 443840, Pitch_bend_c, 1, 8576
2, 443850, Pitch_bend_c, 1, 8448
2, 443856, Pitch_bend_c, 1, 8320
2, 443860, Pitch_bend_c, 1, 8320
2, 443870, Pitch_bend_c, 1, 8192
2, 443880, Pitch_bend_c, 1, 8192
2, 443880, Pitch_bend_c, 1, 8192
2, 443880, Pitch_bend_c, 1, 8192
2, 444000, Pitch_bend_c, 1, 8192
2, 444000, Pitch_bend_c, 1, 8192
2, 444000, Note_off_c, 1, 73, 95
2, 444000, Pitch_bend_c, 1, 8192
2, 444000, Pitch_bend_c, 1, 8192
2, 444000, Note_off_c, 1, 69, 95
2, 444000, Note_on_c, 0, 73, 47
2, 444000, Note_on_c, 0, 69, 47
2, 444480, Note_off_c, 0, 73, 47
2, 444480, Note_off_c, 0, 69, 47
2, 444480, Note_on_c, 0, 67, 95
2, 444640, Note_off_c, 0, 67, 95
2, 444640, Note_on_c, 0, 69, 70
2, 444800, Note_off_c, 0, 69, 70
2, 444800, Note_on_c, 0, 67, 70
2, 444960, Note_off_c, 0, 67, 70
2, 444960, Note_on_c, 0, 64, 95
2, 445440, Note_off_c, 0, 64, 95
2, 445440, Pitch_bend_c, 1, 8192
2, 445440, Note_on_c, 1, 69, 95
2, 445483, Pitch_bend_c, 1, 8320
2, 445526, Pitch_bend_c, 1, 8448
2, 445569, Pitch_bend_c, 1, 8576
2, 445612, Pitch_bend_c, 1, 8704
2, 445655, Pitch_bend_c, 1, 8832
2, 445698, Pitch_bend_c, 1, 8960
2, 445741, Pitch_bend_c, 1, 9088
2, 445784, Pitch_bend_c, 1, 9216
2, 445827, Pitch_bend_c, 1, 9344
2, 445870, Pitch_bend_c, 1, 9472
2, 445913, Pitch_bend_c, 1, 9600
2, 445920, Pitch_bend_c, 1, 9600
2, 446400, Pitch_bend_c, 1, 9600
2, 446400, Pitch_bend_c, 1, 8192
2, 446400, Note_off_c, 1, 69, 95
2, 446400, Note_on_c, 0, 71, 95
2, 446880, Note_off_c, 0, 71, 95
2, 446880, Pitch_bend_c, 1, 8192
2, 446880, Note_on_c, 1, 69, 95
2, 446890, Pitch_bend_c, 1, 8320
2, 446900, Pitch_bend_c, 1, 8448
2, 446910, Pitch_bend_c, 1, 8576
2, 446920, Pitch_bend_c, 1, 8704
2, 446930, Pitch_bend_c, 1, 8832
2, 446940, Pitch_bend_c, 1, 8960
2, 446950, Pitch_bend_c, 1, 9088
2, 446960, Pitch_bend_c, 1, 9216
2, 446970, Pitch_bend_c, 1, 9344
2, 446980, Pitch_bend_c, 1, 9472
2, 446990, Pitch_bend_c, 1, 9600
2, 447000, Pitch_bend_c, 1, 9600
2, 447120, Pitch_bend_c, 1, 9600
2, 447130, Pitch_bend_c, 1, 9472
2, 447140, Pitch_bend_c, 1, 9344
2, 447150, Pitch_bend_c, 1, 9216
2, 447160, Pitch_bend_c, 1, 9088
2, 447170, Pitch_bend_c, 1, 8960
2, 447180, Pitch_bend_c, 1, 8832
2, 447190, Pitch_bend_c, 1, 8704
2, 447200, Pitch_bend_c, 1, 8576
2, 447210, Pitch_bend_c, 1, 8448
2, 447220, Pitch_bend_c, 1, 8320
2, 447230, Pitch_bend_c, 1, 8192
2, 447240, Pitch_bend_c, 1, 8192
2, 447360, Pitch_bend_c, 1, 8192
2, 447360, Pitch_bend_c, 1, 8192
2, 447360, Note_off_c, 1, 69, 95
2, 447360, Note_on_c, 0, 69, 47
2, 447840, Note_off_c, 0, 69, 47
2, 447840, Note_on_c, 0, 67, 95
2, 448320, Note_off_c, 0, 67, 95
2, 448320, Note_on_c, 0, 66, 95
2, 448800, Note_off_c, 0, 66, 95
2, 448800, Note_on_c, 0, 62, 95
2, 449280, Note_off_c, 0, 62, 95
2, 449280, Note_on_c, 0, 64, 95
2, 450240, Note_off_c, 0, 64, 95
2, 450240, Note_on_c, 0, 67, 95
2, 450720, Note_off_c, 0, 67, 95
2, 450720, Pitch_bend_c, 1, 8192
2, 450720, Note_on_c, 1, 69, 95
2, 450730, Pitch_bend_c, 1, 8320
2, 450740, Pitch_bend_c, 1, 8448
2, 450750, Pitch_bend_c, 1, 8576
2, 450760, Pitch_bend_c, 1, 8704
2, 450770, Pitch_bend_c, 1, 8832
2, 450780, Pitch_bend_c, 1, 8960
2, 450790, Pitch_bend_c, 1, 9088
2, 450800, Pitch_bend_c, 1, 9216
2, 450810, Pitch_bend_c, 1, 9344
2, 450820, Pitch_bend_c, 1, 9472
2, 450830, Pitch_bend_c, 1, 9600
2, 450840, Pitch_bend_c, 1, 9600
2, 450960, Pitch_bend_c, 1, 9600
2, 450970, Pitch_bend_c, 1, 9472
2, 450980, Pitch_bend_c, 1, 9344
2, 450990, Pitch_bend_c, 1, 9216
2, 451000, Pitch_bend_c, 1, 9088
2, 451010, Pitch_bend_c, 1, 8960
2, 451020, Pitch_bend_c, 1, 8832
2, 451030, Pitch_bend_c, 1, 8704
2, 451040, Pitch_bend_c, 1, 8576
2, 451050, Pitch_bend_c, 1, 8448
2, 451060, Pitch_bend_c, 1, 8320
2, 451070, Pitch_bend_c, 1, 8192
2, 451080, Pitch_bend_c, 1, 8192
2, 451200, Pitch_bend_c, 1, 8192
2, 451200, Pitch_bend_c, 1, 8192
2, 451200, Note_off_c, 1, 69, 95
2, 451200, Note_on_c, 0, 69, 47
2, 451680, Note_off_c, 0, 69, 47
2, 451680, Note_on_c, 0, 67, 95
2, 452160, Note_off_c, 0, 67, 95
2, 452160, Note_on_c, 0, 64, 95
2, 453120, Note_off_c, 0, 64, 95
2, 453120, Pitch_bend_c, 1, 8192
2, 453120, Note_on_c, 1, 74, 95
2, 453163, Pitch_bend_c, 1, 8320
2, 453206, Pitch_bend_c, 1, 8448
2, 453249, Pitch_bend_c, 1, 8576
2, 453292, Pitch_bend_c, 1, 8704
2, 453335, Pitch_bend_c, 1, 8832
2, 453378, Pitch_bend_c, 1, 8960
2, 453421, Pitch_bend_c, 1, 9088
2, 453464, Pitch_bend_c, 1, 9216
2, 453507, Pitch_bend_c, 1, 9344
2, 453550, Pitch_bend_c, 1, 9472
2, 453593, Pitch_bend_c, 1, 9600
2, 453600, Pitch_bend_c, 1, 9600
2, 454080, Pitch_bend_c, 1, 9600
2, 454080, Pitch_bend_c, 1, 8192
2, 454080, Note_off_c, 1, 74, 95
2, 454080, Note_on_c, 0, 76, 95
2, 455040, Note_off_c, 0, 76, 95
2, 455040, Pitch_bend_c, 1, 8192
2, 455040, Note_on_c, 1, 74, 95
2, 455083, Pitch_bend_c, 1, 8320
2, 455126, Pitch_bend_c, 1, 8448
2, 455169, Pitch_bend_c, 1, 8576
2, 455212, Pitch_bend_c, 1, 8704
2, 455255, Pitch_bend_c, 1, 8832
2, 455298, Pitch_bend_c, 1, 8960
2, 455341, Pitch_bend_c, 1, 9088
2, 455384, Pitch_bend_c, 1, 9216
2, 455427, Pitch_bend_c, 1, 9344
2, 455470, Pitch_bend_c, 1, 9472
2, 455513, Pitch_bend_c, 1, 9600
2, 455520, Pitch_bend_c, 1, 9600
2, 456000, Pitch_bend_c, 1, 9600
2, 456000, Pitch_bend_c, 1, 8192
2, 456000, Note_off_c, 1, 74, 95
2, 456000, Note_on_c, 0, 76, 95
2, 456960, Note_off_c, 0, 76, 95
2, 456960, Note_on_c, 0, 79, 95
2, 457440, Note_off_c, 0, 79, 95
2, 457440, Note_on_c, 0, 76, 95
2, 457920, Note_off_c, 0, 76, 95
2, 457920, Note_on_c, 0, 79, 95
2, 458400, Note_off_c, 0, 79, 95
2, 458400, Note_on_c, 0, 81, 95
2, 458880, Note_off_c, 0, 81, 95
2, 458880, Pitch_bend_c, 1, 8192
2, 458880, Note_on_c, 1, 81, 95
2, 458923, Pitch_bend_c, 1, 8320
2, 458966, Pitch_bend_c, 1, 8448
2, 459009, Pitch_bend_c, 1, 8576
2, 459052, Pitch_bend_c, 1, 8704
2, 459095, Pitch_bend_c, 1, 8832
2, 459138, Pitch_bend_c, 1, 8960
2, 459181, Pitch_bend_c, 1, 9088
2, 459224, Pitch_bend_c, 1, 9216
2, 459267, Pitch_bend_c, 1, 9344
2, 459310, Pitch_bend_c, 1, 9472
2, 459353, Pitch_bend_c, 1, 9600
2, 459360, Pitch_bend_c, 1, 9600
2, 459840, Pitch_bend_c, 1, 9600
2, 459840, Pitch_bend_c, 1, 8192
2, 459840, Note_off_c, 1, 81, 95
2, 459840, Pitch_bend_c, 1, 8192
2, 459840, Note_on_c, 1, 81, 95
2, 459883, Pitch_bend_c, 1, 8320
2, 459926, Pitch_bend_c, 1, 8448
2, 459969, Pitch_bend_c, 1, 8576
2, 460012, Pitch_bend_c, 1, 8704
2, 460055, Pitch_bend_c, 1, 8832
2, 460098, Pitch_bend_c, 1, 8960
2, 460141, Pitch_bend_c, 1, 9088
2, 460184, Pitch_bend_c, 1, 9216
2, 460227, Pitch_bend_c, 1, 9344
2, 460270, Pitch_bend_c, 1, 9472
2, 460313, Pitch_bend_c, 1, 9600
2, 460320, Pitch_bend_c, 1, 9600
2, 460800, Pitch_bend_c, 1, 9600
2, 460800, Pitch_bend_c, 1, 8192
2, 460800, Note_off_c, 1, 81, 95
2, 460800, Pitch_bend_c, 1, 8192
2, 460800, Note_on_c, 1, 81, 95
2, 460952, Pitch_bend_c, 1, 8320
2, 461104, Pitch_bend_c, 1, 8448
2, 461256, Pitch_bend_c, 1, 8576
2, 461408, Pitch_bend_c, 1, 8704
2, 461560, Pitch_bend_c, 1, 8832
2, 461712, Pitch_bend_c, 1, 8960
2, 461864, Pitch_bend_c, 1, 9088
2, 462016, Pitch_bend_c, 1, 9216
2, 462168, Pitch_bend_c, 1, 9344
2, 462320, Pitch_bend_c, 1, 9472
2, 462472, Pitch_bend_c, 1, 9600
2, 462480, Pitch_bend_c, 1, 9600
2, 464160, Pitch_bend_c, 1, 9600
2, 464160, Pitch_bend_c, 1, 8192
2, 464160, Note_off_c, 1, 81, 95
2, 464160, Note_on_c, 0, 81, 47
2, 464640, Note_off_c, 0, 81, 47
2, 464640, Pitch_bend_c, 1, 8192
2, 464640, Note_on_c, 1, 81, 95
2, 464705, Pitch_bend_c, 1, 8320
2, 464770, Pitch_bend_c, 1, 8448
2, 464835, Pitch_bend_c, 1, 8576
2, 464900, Pitch_bend_c, 1, 8704
2, 464965, Pitch_bend_c, 1, 8832
2, 465030, Pitch_bend_c, 1, 8960
2, 465095, Pitch_bend_c, 1, 9088
2, 465160, Pitch_bend_c, 1, 9216
2, 465225, Pitch_bend_c, 1, 9344
2, 465290, Pitch_bend_c, 1, 9472
2, 465355, Pitch_bend_c, 1, 9600
2, 465360, Pitch_bend_c, 1, 9600
2, 466080, Pitch_bend_c, 1, 9600
2, 466080, Pitch_bend_c, 1, 8192
2, 466080, Note_off_c, 1, 81, 95
2, 466080, Note_on_c, 0, 79, 95
2, 466560, Note_off_c, 0, 79, 95
2, 466560, Note_on_c, 0, 81, 95
2, 467040, Note_off_c, 0, 81, 95
2, 467040, Note_on_c, 0, 76, 95
2, 467520, Note_off_c, 0, 76, 95
2, 467520, Note_on_c, 0, 76, 95
2, 468480, Note_off_c, 0, 76, 95
2, 468480, Note_on_c, 0, 76, 95
2, 469440, Note_off_c, 0, 76, 95
2, 469440, Note_on_c, 0, 79, 95
2, 470400, Note_off_c, 0, 79, 95
2, 470400, Note_on_c, 1, 76, 95
2, 472320, Note_off_c, 1, 76, 95
2, 472800, Note_on_c, 0, 73, 95
2, 473760, Note_off_c, 0, 73, 95
2, 473760, Note_on_c, 0, 76, 95
2, 474240, Note_off_c, 0, 76, 95
2, 474240, Note_on_c, 0, 73, 95
2, 474720, Note_off_c, 0, 73, 95
2, 474720, Note_on_c, 0, 76, 95
2, 475200, Note_off_c, 0, 76, 95
2, 475200, Note_on_c, 0, 73, 95
2, 476160, Note_off_c, 0, 73, 95
2, 476160, Note_on_c, 0, 76, 95
2, 477120, Note_off_c, 0, 76, 95
2, 477120, Note_on_c, 0, 76, 95
2, 478080, Note_off_c, 0, 76, 95
2, 478080, Pitch_bend_c, 1, 8192
2, 478080, Note_on_c, 1, 78, 95
2, 478128, Pitch_bend_c, 1, 8320
2, 478176, Pitch_bend_c, 1, 8448
2, 478224, Pitch_bend_c, 1, 8576
2, 478272, Pitch_bend_c, 1, 8704
2, 478320, Pitch_bend_c, 1, 8832
2, 478320, Pitch_bend_c, 1, 8832
2, 478560, Pitch_bend_c, 1, 8832
2, 478608, Pitch_bend_c, 1, 8704
2, 478656, Pitch_bend_c, 1, 8576
2, 478704, Pitch_bend_c, 1, 8448
2, 478752, Pitch_bend_c, 1, 8320
2, 478800, Pitch_bend_c, 1, 8192
2, 478800, Pitch_bend_c, 1, 8192
2, 479040, Pitch_bend_c, 1, 8192
2, 479040, Pitch_bend_c, 1, 8192
2, 479040, Note_off_c, 1, 78, 95
2, 479040, Note_on_c, 0, 78, 47
2, 480000, Note_off_c, 0, 78, 47
2, 480000, Note_on_c, 0, 76, 95
2, 480960, Note_off_c, 0, 76, 95
2, 480960, Note_on_c, 0, 76, 95
2, 481920, Note_off_c, 0, 76, 95
2, 481920, Note_on_c, 0, 76, 95
2, 482880, Note_off_c, 0, 76, 95
2, 483840, Pitch_bend_c, 1, 8192
2, 483840, Note_on_c, 1, 74, 95
2, 483861, Pitch_bend_c, 1, 8320
2, 483882, Pitch_bend_c, 1, 8448
2, 483903, Pitch_bend_c, 1, 8576
2, 483924, Pitch_bend_c, 1, 8704
2, 483945, Pitch_bend_c, 1, 8832
2, 483966, Pitch_bend_c, 1, 8960
2, 483987, Pitch_bend_c, 1, 9088
2, 484008, Pitch_bend_c, 1, 9216
2, 484029, Pitch_bend_c, 1, 9344
2, 484050, Pitch_bend_c, 1, 9472
2, 484071, Pitch_bend_c, 1, 9600
2, 484080, Pitch_bend_c, 1, 9600
2, 484320, Pitch_bend_c, 1, 9600
2, 484320, Pitch_bend_c, 1, 8192
2, 484320, Note_off_c, 1, 74, 95
2, 484320, Note_on_c, 0, 76, 95
2, 484800, Note_off_c, 0, 76, 95
2, 484800, Note_on_c, 0, 76, 95
2, 485280, Note_off_c, 0, 76, 95
2, 485280, Pitch_bend_c, 1, 8192
2, 485280, Note_on_c, 1, 74, 95
2, 485301, Pitch_bend_c, 1, 8320
2, 485322, Pitch_bend_c, 1, 8448
2, 485343, Pitch_bend_c, 1, 8576
2, 485364, Pitch_bend_c, 1, 8704
2, 485385, Pitch_bend_c, 1, 8832
2, 485406, Pitch_bend_c, 1, 8960
2, 485427, Pitch_bend_c, 1, 9088
2, 485448, Pitch_bend_c, 1, 9216
2, 485469, Pitch_bend_c, 1, 9344
2, 485490, Pitch_bend_c, 1, 9472
2, 485511, Pitch_bend_c, 1, 9600
2, 485520, Pitch_bend_c, 1, 9600
2, 485760, Pitch_bend_c, 1, 9600
2, 485760, Pitch_bend_c, 1, 8192
2, 485760, Note_off_c, 1, 74, 95
2, 485760, Note_on_c, 0, 76, 95
2, 486240, Note_off_c, 0, 76, 95
2, 486240, Note_on_c, 0, 76, 95
2, 486720, Note_off_c, 0, 76, 95
2, 486720, Pitch_bend_c, 1, 8192
2, 486720, Note_on_c, 1, 74, 95
2, 486741, Pitch_bend_c, 1, 8320
2, 486762, Pitch_bend_c, 1, 8448
2, 486783, Pitch_bend_c, 1, 8576
2, 486804, Pitch_bend_c, 1, 8704
2, 486825, Pitch_bend_c, 1, 8832
2, 486846, Pitch_bend_c, 1, 8960
2, 486867, Pitch_bend_c, 1, 9088
2, 486888, Pitch_bend_c, 1, 9216
2, 486909, Pitch_bend_c, 1, 9344
2, 486930, Pitch_bend_c, 1, 9472
2, 486951, Pitch_bend_c, 1, 9600
2, 486960, Pitch_bend_c, 1, 9600
2, 487200, Pitch_bend_c, 1, 9600
2, 487200, Pitch_bend_c, 1, 8192
2, 487200, Note_off_c, 1, 74, 95
2, 487200, Note_on_c, 0, 76, 95
2, 487680, Note_off_c, 0, 76, 95
2, 487680, Note_on_c, 0, 76, 95
2, 488160, Note_off_c, 0, 76, 95
2, 488160, Pitch_bend_c, 1, 8192
2, 488160, Note_on_c, 1, 74, 95
2, 488181, Pitch_bend_c, 1, 8320
2, 488202, Pitch_bend_c, 1, 8448
2, 488223, Pitch_bend_c, 1, 8576
2, 488244, Pitch_bend_c, 1, 8704
2, 488265, Pitch_bend_c, 1, 8832
2, 488286, Pitch_bend_c, 1, 8960
2, 488307, Pitch_bend_c, 1, 9088
2, 488328, Pitch_bend_c, 1, 9216
2, 488349, Pitch_bend_c, 1, 9344
2, 488370, Pitch_bend_c, 1, 9472
2, 488391, Pitch_bend_c, 1, 9600
2, 488400, Pitch_bend_c, 1, 9600
2, 488640, Pitch_bend_c, 1, 9600
2, 488640, Pitch_bend_c, 1, 8192
2, 488640, Note_off_c, 1, 74, 95
2, 488640, Note_on_c, 0, 76, 95
2, 489120, Note_off_c, 0, 76, 95
2, 489120, Note_on_c, 0, 76, 95
2, 489600, Note_off_c, 0, 76, 95
2, 489600, Pitch_bend_c, 1, 8192
2, 489600, Note_on_c, 1, 74, 95
2, 489621, Pitch_bend_c, 1, 8320
2, 489642, Pitch_bend_c, 1, 8448
2, 489663, Pitch_bend_c, 1, 8576
2, 489684, Pitch_bend_c, 1, 8704
2, 489705, Pitch_bend_c, 1, 8832
2, 489726, Pitch_bend_c, 1, 8960
2, 489747, Pitch_bend_c, 1, 9088
2, 489768, Pitch_bend_c, 1, 9216
2, 489789, Pitch_bend_c, 1, 9344
2, 489810, Pitch_bend_c, 1, 9472
2, 489831, Pitch_bend_c, 1, 9600
2, 489840, Pitch_bend_c, 1, 9600
2, 490080, Pitch_bend_c, 1, 9600
2, 490080, Pitch_bend_c, 1, 8192
2, 490080, Note_off_c, 1, 74, 95
2, 490080, Note_on_c, 0, 76, 95
2, 490560, Note_off_c, 0, 76, 95
2, 490560, Note_on_c, 0, 76, 95
2, 491040, Note_off_c, 0, 76, 95
2, 491040, Pitch_bend_c, 1, 8192
2, 491040, Note_on_c, 1, 74, 95
2, 491061, Pitch_bend_c, 1, 8320
2, 491082, Pitch_bend_c, 1, 8448
2, 491103, Pitch_bend_c, 1, 8576
2, 491124, Pitch_bend_c, 1, 8704
2, 491145, Pitch_bend_c, 1, 8832
2, 491166, Pitch_bend_c, 1, 8960
2, 491187, Pitch_bend_c, 1, 9088
2, 491208, Pitch_bend_c, 1, 9216
2, 491229, Pitch_bend_c, 1, 9344
2, 491250, Pitch_bend_c, 1, 9472
2, 491271, Pitch_bend_c, 1, 9600
2, 491280, Pitch_bend_c, 1, 9600
2, 491520, Pitch_bend_c, 1, 9600
2, 491520, Pitch_bend_c, 1, 8192
2, 491520, Note_off_c, 1, 74, 95
2, 491520, Note_on_c, 0, 76, 95
2, 492000, Note_off_c, 0, 76, 95
2, 492000, Note_on_c, 0, 76, 95
2, 492480, Note_off_c, 0, 76, 95
2, 492480, Pitch_bend_c, 1, 8192
2, 492480, Note_on_c, 1, 74, 95
2, 492501, Pitch_bend_c, 1, 8320
2, 492522, Pitch_bend_c, 1, 8448
2, 492543, Pitch_bend_c, 1, 8576
2, 492564, Pitch_bend_c, 1, 8704
2, 492585, Pitch_bend_c, 1, 8832
2, 492606, Pitch_bend_c, 1, 8960
2, 492627, Pitch_bend_c, 1, 9088
2, 492648, Pitch_bend_c, 1, 9216
2, 492669, Pitch_bend_c, 1, 9344
2, 492690, Pitch_bend_c, 1, 9472
2, 492711, Pitch_bend_c, 1, 9600
2, 492720, Pitch_bend_c, 1, 9600
2, 492960, Pitch_bend_c, 1, 9600
2, 492960, Pitch_bend_c, 1, 8192
2, 492960, Note_off_c, 1, 74, 95
2, 492960, Note_on_c, 0, 76, 95
2, 493440, Note_off_c, 0, 76, 95
2, 493440, Note_on_c, 0, 76, 95
2, 493920, Note_off_c, 0, 76, 95
2, 493920, Pitch_bend_c, 1, 8192
2, 493920, Note_on_c, 1, 74, 95
2, 493941, Pitch_bend_c, 1, 8320
2, 493962, Pitch_bend_c, 1, 8448
2, 493983, Pitch_bend_c, 1, 8576
2, 494004, Pitch_bend_c, 1, 8704
2, 494025, Pitch_bend_c, 1, 8832
2, 494046, Pitch_bend_c, 1, 8960
2, 494067, Pitch_bend_c, 1, 9088
2, 494088, Pitch_bend_c, 1, 9216
2, 494109, Pitch_bend_c, 1, 9344
2, 494130, Pitch_bend_c, 1, 9472
2, 494151, Pitch_bend_c, 1, 9600
2, 494160, Pitch_bend_c, 1, 9600
2, 494400, Pitch_bend_c, 1, 9600
2, 494400, Pitch_bend_c, 1, 8192
2, 494400, Note_off_c, 1, 74, 95
2, 494400, Note_on_c, 0, 76, 95
2, 494880, Note_off_c, 0, 76, 95
2, 494880, Note_on_c, 0, 76, 95
2, 495360, Note_off_c, 0, 76, 95
2, 495360, Note_on_c, 0, 79, 95
2, 495680, Note_off_c, 0, 79, 95
2, 495680, Note_on_c, 0, 76, 70
2, 496000, Note_off_c, 0, 76, 70
2, 496000, Note_on_c, 0, 74, 95
2, 496320, Note_off_c, 0, 74, 95
2, 496320, Note_on_c, 0, 79, 95
2, 496640, Note_off_c, 0, 79, 95
2, 496640, Note_on_c, 0, 76, 70
2, 496960, Note_off_c, 0, 76, 70
2, 496960, Note_on_c, 0, 74, 95
2, 497280, Note_off_c, 0, 74, 95
2, 497280, Note_on_c, 0, 79, 95
2, 497600, Note_off_c, 0, 79, 95
2, 497600, Note_on_c, 0, 76, 70
2, 497920, Note_off_c, 0, 76, 70
2, 497920, Note_on_c, 0, 74, 95
2, 498240, Note_off_c, 0, 74, 95
2, 498240, Note_on_c, 0, 79, 95
2, 498560, Note_off_c, 0, 79, 95
2, 498560, Note_on_c, 0, 76, 70
2, 498880, Note_off_c, 0, 76, 70
2, 498880, Note_on_c, 0, 74, 95
2, 499200, Note_off_c, 0, 74, 95
2, 499200, Note_on_c, 0, 79, 95
2, 499520, Note_off_c, 0, 79, 95
2, 499520, Note_on_c, 0, 76, 70
2, 499840, Note_off_c, 0, 76, 70
2, 499840, Note_on_c, 0, 74, 95
2, 500160, Note_off_c, 0, 74, 95
2, 500160, Note_on_c, 0, 79, 95
2, 500480, Note_off_c, 0, 79, 95
2, 500480, Note_on_c, 0, 76, 70
2, 500800, Note_off_c, 0, 76, 70
2, 500800, Note_on_c, 0, 74, 95
2, 501120, Note_off_c, 0, 74, 95
2, 501120, Note_on_c, 0, 79, 95
2, 501440, Note_off_c, 0, 79, 95
2, 501440, Note_on_c, 0, 76, 70
2, 501760, Note_off_c, 0, 76, 70
2, 501760, Note_on_c, 0, 74, 95
2, 502080, Note_off_c, 0, 74, 95
2, 502080, Note_on_c, 0, 79, 95
2, 502400, Note_off_c, 0, 79, 95
2, 502400, Note_on_c, 0, 76, 70
2, 502720, Note_off_c, 0, 76, 70
2, 502720, Note_on_c, 0, 74, 95
2, 503040, Note_off_c, 0, 74, 95
2, 503040, Note_on_c, 0, 79, 95
2, 503360, Note_off_c, 0, 79, 95
2, 503360, Note_on_c, 0, 76, 70
2, 503680, Note_off_c, 0, 76, 70
2, 503680, Note_on_c, 0, 74, 95
2, 504000, Note_off_c, 0, 74, 95
2, 504000, Note_on_c, 0, 79, 95
2, 504320, Note_off_c, 0, 79, 95
2, 504320, Note_on_c, 0, 76, 70
2, 504640, Note_off_c, 0, 76, 70
2, 504640, Note_on_c, 0, 74, 95
2, 504960, Note_off_c, 0, 74, 95
2, 504960, Note_on_c, 0, 79, 95
2, 505280, Note_off_c, 0, 79, 95
2, 505280, Note_on_c, 0, 76, 70
2, 505600, Note_off_c, 0, 76, 70
2, 505600, Note_on_c, 0, 74, 95
2, 505920, Note_off_c, 0, 74, 95
2, 505920, Note_on_c, 0, 74, 95
2, 506400, Note_off_c, 0, 74, 95
2, 506400, Note_on_c, 0, 76, 95
2, 506880, Note_off_c, 0, 76, 95
2, 506880, Pitch_bend_c, 1, 8192
2, 506880, Note_on_c, 1, 84, 95
2, 507010, Pitch_bend_c, 1, 8320
2, 507140, Pitch_bend_c, 1, 8448
2, 507270, Pitch_bend_c, 1, 8576
2, 507400, Pitch_bend_c, 1, 8704
2, 507530, Pitch_bend_c, 1, 8832
2, 507660, Pitch_bend_c, 1, 8960
2, 507790, Pitch_bend_c, 1, 9088
2, 507920, Pitch_bend_c, 1, 9216
2, 508050, Pitch_bend_c, 1, 9344
2, 508180, Pitch_bend_c, 1, 9472
2, 508310, Pitch_bend_c, 1, 9600
2, 508320, Pitch_bend_c, 1, 9600
2, 509760, Pitch_bend_c, 1, 9600
2, 509760, Pitch_bend_c, 1, 8192
2, 509760, Note_off_c, 1, 84, 95
2, 509760, Pitch_bend_c, 1, 8192
2, 509760, Note_on_c, 1, 81, 95
2, 509770, Pitch_bend_c, 1, 8320
2, 509780, Pitch_bend_c, 1, 8448
2, 509790, Pitch_bend_c, 1, 8576
2, 509800, Pitch_bend_c, 1, 8704
2, 509810, Pitch_bend_c, 1, 8832
2, 509820, Pitch_bend_c, 1, 8960
2, 509830, Pitch_bend_c, 1, 9088
2, 509840, Pitch_bend_c, 1, 9216
2, 509850, Pitch_bend_c, 1, 9344
2, 509860, Pitch_bend_c, 1, 9472
2, 509870, Pitch_bend_c, 1, 9600
2, 509880, Pitch_bend_c, 1, 9600
2, 510000, Pitch_bend_c, 1, 9600
2, 510010, Pitch_bend_c, 1, 9472
2, 510020, Pitch_bend_c, 1, 9344
2, 510030, Pitch_bend_c, 1, 9216
2, 510040, Pitch_bend_c, 1, 9088
2, 510050, Pitch_bend_c, 1, 8960
2, 510060, Pitch_bend_c, 1, 8832
2, 510070, Pitch_bend_c, 1, 8704
2, 510080, Pitch_bend_c, 1, 8576
2, 510090, Pitch_bend_c, 1, 8448
2, 510100, Pitch_bend_c, 1, 8320
2, 510110, Pitch_bend_c, 1, 8192
2, 510120, Pitch_bend_c, 1, 8192
2, 510240, Pitch_bend_c, 1, 8192
2, 510240, Pitch_bend_c, 1, 8192
2, 510240, Note_off_c, 1, 81, 95
2, 510240, Note_on_c, 0, 81, 47
2, 510720, Note_off_c, 0, 81, 47
2, 510720, Note_on_c, 0, 81, 95
2, 511680, Note_off_c, 0, 81, 95
2, 511680, Note_on_c, 0, 76, 95
2, 512160, Note_off_c, 0, 76, 95
2, 512160, Note_on_c, 0, 73, 95
2, 512640, Note_off_c, 0, 73, 95
2, 512640, Note_on_c, 0, 76, 95
2, 513600, Note_off_c, 0, 76, 95
2, 513600, Note_on_c, 0, 76, 95
2, 514560, Note_off_c, 0, 76, 95
2, 514560, Pitch_bend_c, 1, 8192
2, 514560, Note_on_c, 1, 74, 95
2, 514603, Pitch_bend_c, 1, 8320
2, 514646, Pitch_bend_c, 1, 8448
2, 514689, Pitch_bend_c, 1, 8576
2, 514732, Pitch_bend_c, 1, 8704
2, 514775, Pitch_bend_c, 1, 8832
2, 514818, Pitch_bend_c, 1, 8960
2, 514861, Pitch_bend_c, 1, 9088
2, 514904, Pitch_bend_c, 1, 9216
2, 514947, Pitch_bend_c, 1, 9344
2, 514990, Pitch_bend_c, 1, 9472
2, 515033, Pitch_bend_c, 1, 9600
2, 515040, Pitch_bend_c, 1, 9600
2, 515520, Pitch_bend_c, 1, 9600
2, 515520, Pitch_bend_c, 1, 8192
2, 515520, Note_off_c, 1, 74, 95
2, 515520, Note_on_c, 0, 76, 95
2, 516480, Note_off_c, 0, 76, 95
2, 516480, Pitch_bend_c, 1, 8192
2, 516480, Note_on_c, 1, 74, 95
2, 516512, Pitch_bend_c, 1, 8320
2, 516544, Pitch_bend_c, 1, 8448
2, 516576, Pitch_bend_c, 1, 8576
2, 516608, Pitch_bend_c, 1, 8704
2, 516640, Pitch_bend_c, 1, 8832
2, 516672, Pitch_bend_c, 1, 8960
2, 516704, Pitch_bend_c, 1, 9088
2, 516736, Pitch_bend_c, 1, 9216
2, 516768, Pitch_bend_c, 1, 9344
2, 516800, Pitch_bend_c, 1, 9472
2, 516832, Pitch_bend_c, 1, 9600
2, 516840, Pitch_bend_c, 1, 9600
2, 517200, Pitch_bend_c, 1, 9600
2, 517200, Pitch_bend_c, 1, 8192
2, 517200, Note_off_c, 1, 74, 95
2, 517200, Note_on_c, 0, 76, 95
2, 517440, Note_off_c, 0, 76, 95
2, 517440, Pitch_bend_c, 1, 8192
2, 517440, Note_on_c, 1, 74, 95
2, 517472, Pitch_bend_c, 1, 8320
2, 517504, Pitch_bend_c, 1, 8448
2, 517536, Pitch_bend_c, 1, 8576
2, 517568, Pitch_bend_c, 1, 8704
2, 517600, Pitch_bend_c, 1, 8832
2, 517632, Pitch_bend_c, 1, 8960
2, 517664, Pitch_bend_c, 1, 9088
2, 517696, Pitch_bend_c, 1, 9216
2, 517728, Pitch_bend_c, 1, 9344
2, 517760, Pitch_bend_c, 1, 9472
2, 517792, Pitch_bend_c, 1, 9600
2, 517800, Pitch_bend_c, 1, 9600
2, 518160, Pitch_bend_c, 1, 9600
2, 518160, Pitch_bend_c, 1, 8192
2, 518160, Note_off_c, 1, 74, 95
2, 518160, Note_on_c, 0, 76, 95
2, 518400, Note_off_c, 0, 76, 95
2, 518400, Pitch_bend_c, 1, 8192
2, 518400, Note_on_c, 1, 74, 95
2, 518432, Pitch_bend_c, 1, 8320
2, 518464, Pitch_bend_c, 1, 8448
2, 518496, Pitch_bend_c, 1, 8576
2, 518528, Pitch_bend_c, 1, 8704
2, 518560, Pitch_bend_c, 1, 8832
2, 518592, Pitch_bend_c, 1, 8960
2, 518624, Pitch_bend_c, 1, 9088
2, 518656, Pitch_bend_c, 1, 9216
2, 518688, Pitch_bend_c, 1, 9344
2, 518720, Pitch_bend_c, 1, 9472
2, 518752, Pitch_bend_c, 1, 9600
2, 518760, Pitch_bend_c, 1, 9600
2, 519120, Pitch_bend_c, 1, 9600
2, 519120, Pitch_bend_c, 1, 8192
2, 519120, Note_off_c, 1, 74, 95
2, 519120, Note_on_c, 0, 76, 95
2, 519360, Note_off_c, 0, 76, 95
2, 519360, Pitch_bend_c, 1, 8192
2, 519360, Note_on_c, 1, 74, 95
2, 519392, Pitch_bend_c, 1, 8320
2, 519424, Pitch_bend_c, 1, 8448
2, 519456, Pitch_bend_c, 1, 8576
2, 519488, Pitch_bend_c, 1, 8704
2, 519520, Pitch_bend_c, 1, 8832
2, 519552, Pitch_bend_c, 1, 8960
2, 519584, Pitch_bend_c, 1, 9088
2, 519616, Pitch_bend_c, 1, 9216
2, 519648, Pitch_bend_c, 1, 9344
2, 519680, Pitch_bend_c, 1, 9472
2, 519712, Pitch_bend_c, 1, 9600
2, 519720, Pitch_bend_c, 1, 9600
2, 520080, Pitch_bend_c, 1, 9600
2, 520080, Pitch_bend_c, 1, 8192
2, 520080, Note_off_c, 1, 74, 95
2, 520080, Note_on_c, 0, 76, 95
2, 520320, Note_off_c, 0, 76, 95
2, 520320, Pitch_bend_c, 1, 8192
2, 520320, Note_on_c, 1, 74, 95
2, 520352, Pitch_bend_c, 1, 8320
2, 520384, Pitch_bend_c, 1, 8448
2, 520416, Pitch_bend_c, 1, 8576
2, 520448, Pitch_bend_c, 1, 8704
2, 520480, Pitch_bend_c, 1, 8832
2, 520512, Pitch_bend_c, 1, 8960
2, 520544, Pitch_bend_c, 1, 9088
2, 520576, Pitch_bend_c, 1, 9216
2, 520608, Pitch_bend_c, 1, 9344
2, 520640, Pitch_bend_c, 1, 9472
2, 520672, Pitch_bend_c, 1, 9600
2, 520680, Pitch_bend_c, 1, 9600
2, 521040, Pitch_bend_c, 1, 9600
2, 521040, Pitch_bend_c, 1, 8192
2, 521040, Note_off_c, 1, 74, 95
2, 521040, Note_on_c, 0, 76, 95
2, 521280, Note_off_c, 0, 76, 95
2, 521280, Pitch_bend_c, 1, 8192
2, 521280, Note_on_c, 1, 74, 95
2, 521312, Pitch_bend_c, 1, 8320
2, 521344, Pitch_bend_c, 1, 8448
2, 521376, Pitch_bend_c, 1, 8576
2, 521408, Pitch_bend_c, 1, 8704
2, 521440, Pitch_bend_c, 1, 8832
2, 521472, Pitch_bend_c, 1, 8960
2, 521504, Pitch_bend_c, 1, 9088
2, 521536, Pitch_bend_c, 1, 9216
2, 521568, Pitch_bend_c, 1, 9344
2, 521600, Pitch_bend_c, 1, 9472
2, 521632, Pitch_bend_c, 1, 9600
2, 521640, Pitch_bend_c, 1, 9600
2, 522000, Pitch_bend_c, 1, 9600
2, 522000, Pitch_bend_c, 1, 8192
2, 522000, Note_off_c, 1, 74, 95
2, 522000, Note_on_c, 0, 76, 95
2, 522240, Note_off_c, 0, 76, 95
2, 522240, Note_on_c, 1, 62, 95
2, 522240, Note_on_c, 1, 59, 95
2, 522240, Note_on_c, 1, 55, 95
2, 522360, Pitch_bend_c, 1, 8448
2, 522360, Pitch_bend_c, 1, 8448
2, 522360, Pitch_bend_c, 1, 8448
2, 522480, Pitch_bend_c, 1, 8832
2, 522480, Pitch_bend_c, 1, 8832
2, 522480, Pitch_bend_c, 1, 8832
2, 522600, Pitch_bend_c, 1, 9216
2, 522600, Pitch_bend_c, 1, 9216
2, 522600, Pitch_bend_c, 1, 9216
2, 522720, Pitch_bend_c, 1, 9600
2, 522720, Pitch_bend_c, 1, 9600
2, 522720, Pitch_bend_c, 1, 9600
2, 522840, Pitch_bend_c, 1, 9856
2, 522840, Pitch_bend_c, 1, 9856
2, 522840, Pitch_bend_c, 1, 9856
2, 522960, Pitch_bend_c, 1, 10240
2, 522960, Pitch_bend_c, 1, 10240
2, 522960, Pitch_bend_c, 1, 10240
2, 523080, Pitch_bend_c, 1, 10624
2, 523080, Pitch_bend_c, 1, 10624
2, 523080, Pitch_bend_c, 1, 10624
2, 523200, Pitch_bend_c, 1, 11008
2, 523200, Pitch_bend_c, 1, 11008
2, 523200, Pitch_bend_c, 1, 11008
2, 523320, Pitch_bend_c, 1, 11264
2, 523320, Pitch_bend_c, 1, 11264
2, 523320, Pitch_bend_c, 1, 11264
2, 523440, Pitch_bend_c, 1, 11648
2, 523440, Pitch_bend_c, 1, 11648
2, 523440, Pitch_bend_c, 1, 11648
2, 523560, Pitch_bend_c, 1, 12032
2, 523560, Pitch_bend_c, 1, 12032
2, 523560, Pitch_bend_c, 1, 12032
2, 523680, Pitch_bend_c, 1, 12416
2, 523680, Pitch_bend_c, 1, 12416
2, 523680, Pitch_bend_c, 1, 12416
2, 523800, Pitch_bend_c, 1, 12672
2, 523800, Pitch_bend_c, 1, 12672
2, 523800, Pitch_bend_c, 1, 12672
2, 523920, Pitch_bend_c, 1, 13056
2, 523920, Pitch_bend_c, 1, 13056
2, 523920, Pitch_bend_c, 1, 13056
2, 524040, Pitch_bend_c, 1, 13440
2, 524040, Pitch_bend_c, 1, 13440
2, 524040, Pitch_bend_c, 1, 13440
2, 524160, Pitch_bend_c, 1, 13824
2, 524160, Pitch_bend_c, 1, 13824
2, 524160, Pitch_bend_c, 1, 13824
2, 524280, Pitch_bend_c, 1, 14080
2, 524280, Pitch_bend_c, 1, 14080
2, 524280, Pitch_bend_c, 1, 14080
2, 524400, Pitch_bend_c, 1, 14464
2, 524400, Pitch_bend_c, 1, 14464
2, 524400, Pitch_bend_c, 1, 14464
2, 524520, Pitch_bend_c, 1, 14848
2, 524520, Pitch_bend_c, 1, 14848
2, 524520, Pitch_bend_c, 1, 14848
2, 524640, Pitch_bend_c, 1, 15232
2, 524640, Pitch_bend_c, 1, 15232
2, 524640, Pitch_bend_c, 1, 15232
2, 524760, Pitch_bend_c, 1, 15488
2, 524760, Pitch_bend_c, 1, 15488
2, 524760, Pitch_bend_c, 1, 15488
2, 524880, Pitch_bend_c, 1, 15872
2, 524880, Pitch_bend_c, 1, 15872
2, 524880, Pitch_bend_c, 1, 15872
2, 525000, Pitch_bend_c, 1, 16256
2, 525000, Pitch_bend_c, 1, 16256
2, 525000, Pitch_bend_c, 1, 16256
2, 525120, Pitch_bend_c, 1, 16256
2, 525120, Pitch_bend_c, 1, 8192
2, 525120, Note_off_c, 1, 62, 95
2, 525120, Pitch_bend_c, 1, 16256
2, 525120, Pitch_bend_c, 1, 8192
2, 525120, Note_off_c, 1, 59, 95
2, 525120, Pitch_bend_c, 1, 16256
2, 525120, Pitch_bend_c, 1, 8192
2, 525120, Note_off_c, 1, 55, 95
2, 525120, Note_on_c, 0, 74, 95
2, 525120, Note_on_c, 0, 71, 95
2, 525120, Note_on_c, 0, 67, 95
2, 526080, Note_off_c, 0, 74, 95
2, 526080, Note_off_c, 0, 71, 95
2, 526080, Note_off_c, 0, 67, 95
2, 526080, Note_on_c, 0, 74, 95
2, 526080, Note_on_c, 0, 71, 95
2, 526080, Note_on_c, 0, 67, 95
2, 527520, Note_off_c, 0, 74, 95
2, 527520, Note_off_c, 0, 71, 95
2, 527520, Note_off_c, 0, 67, 95
2, 527520, Note_on_c, 0, 74, 95
2, 527520, Note_on_c, 0, 71, 95
2, 527520, Note_on_c, 0, 67, 95
2, 528000, Note_off_c, 0, 74, 95
2, 528000, Note_off_c, 0, 71, 95
2, 528000, Note_off_c, 0, 67, 95
2, 528000, Note_on_c, 0, 74, 95
2, 528000, Note_on_c, 0, 71, 95
2, 528000, Note_on_c, 0, 67, 95
2, 528960, Note_off_c, 0, 74, 95
2, 528960, Note_off_c, 0, 71, 95
2, 528960, Note_off_c, 0, 67, 95
2, 528960, Note_on_c, 0, 74, 95
2, 528960, Note_on_c, 0, 71, 95
2, 528960, Note_on_c, 0, 67, 95
2, 529920, Note_off_c, 0, 74, 95
2, 529920, Note_off_c, 0, 71, 95
2, 529920, Note_off_c, 0, 67, 95
2, 529920, Note_on_c, 1, 73, 95
2, 529920, Note_on_c, 1, 70, 95
2, 529920, Note_on_c, 1, 66, 95
2, 530080, Pitch_bend_c, 1, 8192
2, 530080, Pitch_bend_c, 1, 8192
2, 530080, Pitch_bend_c, 1, 8192
2, 530240, Pitch_bend_c, 1, 8320
2, 530240, Pitch_bend_c, 1, 8320
2, 530240, Pitch_bend_c, 1, 8320
2, 530400, Pitch_bend_c, 1, 8192
2, 530400, Pitch_bend_c, 1, 8192
2, 530400, Pitch_bend_c, 1, 8192
2, 530560, Pitch_bend_c, 1, 8320
2, 530560, Pitch_bend_c, 1, 8320
2, 530560, Pitch_bend_c, 1, 8320
2, 530720, Pitch_bend_c, 1, 8192
2, 530720, Pitch_bend_c, 1, 8192
2, 530720, Pitch_bend_c, 1, 8192
2, 530880, Pitch_bend_c, 1, 8320
2, 530880, Pitch_bend_c, 1, 8320
2, 530880, Pitch_bend_c, 1, 8320
2, 531040, Pitch_bend_c, 1, 8192
2, 531040, Pitch_bend_c, 1, 8192
2, 531040, Pitch_bend_c, 1, 8192
2, 531200, Pitch_bend_c, 1, 8320
2, 531200, Pitch_bend_c, 1, 8320
2, 531200, Pitch_bend_c, 1, 8320
2, 531360, Pitch_bend_c, 1, 8192
2, 531360, Pitch_bend_c, 1, 8192
2, 531360, Pitch_bend_c, 1, 8192
2, 531520, Pitch_bend_c, 1, 8320
2, 531520, Pitch_bend_c, 1, 8320
2, 531520, Pitch_bend_c, 1, 8320
2, 531680, Pitch_bend_c, 1, 8192
2, 531680, Pitch_bend_c, 1, 8192
2, 531680, Pitch_bend_c, 1, 8192
2, 531840, Pitch_bend_c, 1, 8320
2, 531840, Pitch_bend_c, 1, 8320
2, 531840, Pitch_bend_c, 1, 8320
2, 532000, Pitch_bend_c, 1, 8192
2, 532000, Pitch_bend_c, 1, 8192
2, 532000, Pitch_bend_c, 1, 8192
2, 532160, Pitch_bend_c, 1, 8320
2, 532160, Pitch_bend_c, 1, 8320
2, 532160, Pitch_bend_c, 1, 8320
2, 532320, Pitch_bend_c, 1, 8192
2, 532320, Pitch_bend_c, 1, 8192
2, 532320, Pitch_bend_c, 1, 8192
2, 532480, Pitch_bend_c, 1, 8320
2, 532480, Pitch_bend_c, 1, 8320
2, 532480, Pitch_bend_c, 1, 8320
2, 532640, Pitch_bend_c, 1, 8192
2, 532640, Pitch_bend_c, 1, 8192
2, 532640, Pitch_bend_c, 1, 8192
2, 532800, Pitch_bend_c, 1, 8320
2, 532800, Pitch_bend_c, 1, 8320
2, 532800, Pitch_bend_c, 1, 8320
2, 532960, Pitch_bend_c, 1, 8192
2, 532960, Pitch_bend_c, 1, 8192
2, 532960, Pitch_bend_c, 1, 8192
2, 533120, Pitch_bend_c, 1, 8320
2, 533120, Pitch_bend_c, 1, 8320
2, 533120, Pitch_bend_c, 1, 8320
2, 533280, Pitch_bend_c, 1, 8192
2, 533280, Pitch_bend_c, 1, 8192
2, 533280, Pitch_bend_c, 1, 8192
2, 533440, Pitch_bend_c, 1, 8320
2, 533440, Pitch_bend_c, 1, 8320
2, 533440, Pitch_bend_c, 1, 8320
2, 533600, Pitch_bend_c, 1, 8192
2, 533600, Pitch_bend_c, 1, 8192
2, 533600, Pitch_bend_c, 1, 8192
2, 533760, Pitch_bend_c, 1, 8320
2, 533760, Pitch_bend_c, 1, 8192
2, 533760, Note_off_c, 1, 73, 95
2, 533760, Pitch_bend_c, 1, 8320
2, 533760, Pitch_bend_c, 1, 8192
2, 533760, Note_off_c, 1, 70, 95
2, 533760, Pitch_bend_c, 1, 8320
2, 533760, Pitch_bend_c, 1, 8192
2, 533760, Note_off_c, 1, 66, 95
2, 533760, Note_on_c, 1, 72, 95
2, 533760, Note_on_c, 1, 69, 95
2, 533760, Note_on_c, 1, 65, 95
2, 533920, Pitch_bend_c, 1, 8192
2, 533920, Pitch_bend_c, 1, 8192
2, 533920, Pitch_bend_c, 1, 8192
2, 534080, Pitch_bend_c, 1, 8320
2, 534080, Pitch_bend_c, 1, 8320
2, 534080, Pitch_bend_c, 1, 8320
2, 534240, Pitch_bend_c, 1, 8192
2, 534240, Pitch_bend_c, 1, 8192
2, 534240, Pitch_bend_c, 1, 8192
2, 534400, Pitch_bend_c, 1, 8320
2, 534400, Pitch_bend_c, 1, 8320
2, 534400, Pitch_bend_c, 1, 8320
2, 534560, Pitch_bend_c, 1, 8192
2, 534560, Pitch_bend_c, 1, 8192
2, 534560, Pitch_bend_c, 1, 8192
2, 534720, Pitch_bend_c, 1, 8320
2, 534720, Pitch_bend_c, 1, 8320
2, 534720, Pitch_bend_c, 1, 8320
2, 534880, Pitch_bend_c, 1, 8192
2, 534880, Pitch_bend_c, 1, 8192
2, 534880, Pitch_bend_c, 1, 8192
2, 535040, Pitch_bend_c, 1, 8320
2, 535040, Pitch_bend_c, 1, 8320
2, 535040, Pitch_bend_c, 1, 8320
2, 535200, Pitch_bend_c, 1, 8192
2, 535200, Pitch_bend_c, 1, 8192
2, 535200, Pitch_bend_c, 1, 8192
2, 535360, Pitch_bend_c, 1, 8320
2, 535360, Pitch_bend_c, 1, 8320
2, 535360, Pitch_bend_c, 1, 8320
2, 535520, Pitch_bend_c, 1, 8192
2, 535520, Pitch_bend_c, 1, 8192
2, 535520, Pitch_bend_c, 1, 8192
2, 535680, Pitch_bend_c, 1, 8320
2, 535680, Pitch_bend_c, 1, 8320
2, 535680, Pitch_bend_c, 1, 8320
2, 535840, Pitch_bend_c, 1, 8192
2, 535840, Pitch_bend_c, 1, 8192
2, 535840, Pitch_bend_c, 1, 8192
2, 536000, Pitch_bend_c, 1, 8320
2, 536000, Pitch_bend_c, 1, 8320
2, 536000, Pitch_bend_c, 1, 8320
2, 536160, Pitch_bend_c, 1, 8192
2, 536160, Pitch_bend_c, 1, 8192
2, 536160, Pitch_bend_c, 1, 8192
2, 536320, Pitch_bend_c, 1, 8320
2, 536320, Pitch_bend_c, 1, 8320
2, 536320, Pitch_bend_c, 1, 8320
2, 536480, Pitch_bend_c, 1, 8192
2, 536480, Pitch_bend_c, 1, 8192
2, 536480, Pitch_bend_c, 1, 8192
2, 536640, Pitch_bend_c, 1, 8320
2, 536640, Pitch_bend_c, 1, 8320
2, 536640, Pitch_bend_c, 1, 8320
2, 536800, Pitch_bend_c, 1, 8192
2, 536800, Pitch_bend_c, 1, 8192
2, 536800, Pitch_bend_c, 1, 8192
2, 536960, Pitch_bend_c, 1, 8320
2, 536960, Pitch_bend_c, 1, 8320
2, 536960, Pitch_bend_c, 1, 8320
2, 537120, Pitch_bend_c, 1, 8192
2, 537120, Pitch_bend_c, 1, 8192
2, 537120, Pitch_bend_c, 1, 8192
2, 537280, Pitch_bend_c, 1, 8320
2, 537280, Pitch_bend_c, 1, 8320
2, 537280, Pitch_bend_c, 1, 8320
2, 537440, Pitch_bend_c, 1, 8192
2, 537440, Pitch_bend_c, 1, 8192
2, 537440, Pitch_bend_c, 1, 8192
2, 537600, Pitch_bend_c, 1, 8320
2, 537600, Pitch_bend_c, 1, 8192
2, 537600, Note_off_c, 1, 72, 95
2, 537600, Pitch_bend_c, 1, 8320
2, 537600, Pitch_bend_c, 1, 8192
2, 537600, Note_off_c, 1, 69, 95
2, 537600, Pitch_bend_c, 1, 8320
2, 537600, Pitch_bend_c, 1, 8192
2, 537600, Note_off_c, 1, 65, 95
2, 537600, Note_on_c, 1, 71, 95
2, 537600, Note_on_c, 1, 68, 95
2, 537600, Note_on_c, 1, 64, 95
2, 538560, Note_off_c, 1, 71, 95
2, 538560, Note_off_c, 1, 68, 95
2, 538560, Note_off_c, 1, 64, 95
2, 541440, Pitch_bend_c, 1, 8192
2, 541440, Note_on_c, 1, 74, 95
2, 541472, Pitch_bend_c, 1, 8320
2, 541504, Pitch_bend_c, 1, 8448
2, 541536, Pitch_bend_c, 1, 8576
2, 541568, Pitch_bend_c, 1, 8704
2, 541600, Pitch_bend_c, 1, 8832
2, 541632, Pitch_bend_c, 1, 8960
2, 541664, Pitch_bend_c, 1, 9088
2, 541696, Pitch_bend_c, 1, 9216
2, 541728, Pitch_bend_c, 1, 9344
2, 541760, Pitch_bend_c, 1, 9472
2, 541792, Pitch_bend_c, 1, 9600
2, 541800, Pitch_bend_c, 1, 9600
2, 542160, Pitch_bend_c, 1, 9600
2, 542160, Pitch_bend_c, 1, 8192
2, 542160, Note_off_c, 1, 74, 95
2, 542160, Note_on_c, 0, 76, 95
2, 542400, Note_off_c, 0, 76, 95
2, 546240, Note_on_c, 0, 79, 95
2, 547200, Note_off_c, 0, 79, 95
2, 547200, Note_on_c, 0, 76, 95
2, 547680, Note_off_c, 0, 76, 95
2, 547680, Note_on_c, 0, 74, 95
2, 548160, Note_off_c, 0, 74, 95
2, 548160, Note_on_c, 0, 74, 95
2, 549120, Note_off_c, 0, 74, 95
2, 549120, Pitch_bend_c, 1, 8192
2, 549120, Note_on_c, 1, 69, 95
2, 549141, Pitch_bend_c, 1, 8320
2, 549162, Pitch_bend_c, 1, 8448
2, 549183, Pitch_bend_c, 1, 8576
2, 549204, Pitch_bend_c, 1, 8704
2, 549225, Pitch_bend_c, 1, 8832
2, 549246, Pitch_bend_c, 1, 8960
2, 549267, Pitch_bend_c, 1, 9088
2, 549288, Pitch_bend_c, 1, 9216
2, 549309, Pitch_bend_c, 1, 9344
2, 549330, Pitch_bend_c, 1, 9472
2, 549351, Pitch_bend_c, 1, 9600
2, 549360, Pitch_bend_c, 1, 9600
2, 549600, Pitch_bend_c, 1, 9600
2, 549600, Pitch_bend_c, 1, 8192
2, 549600, Note_off_c, 1, 69, 95
2, 549600, Note_on_c, 0, 74, 95
2, 550080, Note_off_c, 0, 74, 95
2, 550080, Pitch_bend_c, 1, 9600
2, 550080, Note_on_c, 1, 69, 47
2, 550240, Pitch_bend_c, 1, 9600
2, 550254, Pitch_bend_c, 1, 9472
2, 550268, Pitch_bend_c, 1, 9344
2, 550282, Pitch_bend_c, 1, 9216
2, 550296, Pitch_bend_c, 1, 9088
2, 550310, Pitch_bend_c, 1, 8960
2, 550324, Pitch_bend_c, 1, 8832
2, 550338, Pitch_bend_c, 1, 8704
2, 550352, Pitch_bend_c, 1, 8576
2, 550366, Pitch_bend_c, 1, 8448
2, 550380, Pitch_bend_c, 1, 8320
2, 550394, Pitch_bend_c, 1, 8192
2, 550400, Pitch_bend_c, 1, 8192
2, 550560, Pitch_bend_c, 1, 8192
2, 550560, Pitch_bend_c, 1, 8192
2, 550560, Note_off_c, 1, 69, 47
2, 550560, Note_on_c, 0, 67, 95
2, 551040, Note_off_c, 0, 67, 95
2, 551040, Note_on_c, 0, 64, 95
2, 551520, Note_off_c, 0, 64, 95
2, 551520, Note_on_c, 0, 62, 95
2, 552000, Note_off_c, 0, 62, 95
2, 552000, Note_on_c, 0, 64, 95
2, 552960, Note_off_c, 0, 64, 95
2, 552960, Pitch_bend_c, 1, 8192
2, 552960, Note_on_c, 1, 67, 95
2, 553200, Pitch_bend_c, 1, 8320
2, 553440, Pitch_bend_c, 1, 8448
2, 553440, Pitch_bend_c, 1, 8448
2, 553920, Pitch_bend_c, 1, 8448
2, 553920, Pitch_bend_c, 1, 8192
2, 553920, Note_off_c, 1, 67, 95
2, 553920, Note_on_c, 0, 64, 95
2, 554880, Note_off_c, 0, 64, 95
2, 554880, Note_on_c, 0, 64, 95
2, 555840, Note_off_c, 0, 64, 95
2, 555840, Note_on_c, 0, 62, 95
2, 556800, Note_off_c, 0, 62, 95
2, 557760, Pitch_bend_c, 1, 8192
2, 557760, Note_on_c, 1, 57, 95
2, 557781, Pitch_bend_c, 1, 8320
2, 557802, Pitch_bend_c, 1, 8448
2, 557823, Pitch_bend_c, 1, 8576
2, 557844, Pitch_bend_c, 1, 8704
2, 557865, Pitch_bend_c, 1, 8832
2, 557886, Pitch_bend_c, 1, 8960
2, 557907, Pitch_bend_c, 1, 9088
2, 557928, Pitch_bend_c, 1, 9216
2, 557949, Pitch_bend_c, 1, 9344
2, 557970, Pitch_bend_c, 1, 9472
2, 557991, Pitch_bend_c, 1, 9600
2, 558000, Pitch_bend_c, 1, 9600
2, 558240, Pitch_bend_c, 1, 9600
2, 558240, Pitch_bend_c, 1, 8192
2, 558240, Note_off_c, 1, 57, 95
2, 558240, Note_on_c, 0, 62, 95
2, 558720, Note_off_c, 0, 62, 95
2, 558720, Note_on_c, 0, 57, 95
2, 559200, Note_off_c, 0, 57, 95
2, 559200, Note_on_c, 0, 55, 95
2, 559680, Note_off_c, 0, 55, 95
2, 559680, Note_on_c, 0, 52, 95
2, 560160, Note_off_c, 0, 52, 95
2, 560160, Note_on_c, 0, 50, 95
2, 560640, Note_off_c, 0, 50, 95
2, 560640, Note_on_c, 0, 52, 95
2, 561600, Note_off_c, 0, 52, 95
2, 561600, Note_on_c, 0, 52, 95
2, 562560, Note_off_c, 0, 52, 95
2, 562560, Note_on_c, 0, 49, 95
2, 563040, Note_off_c, 0, 49, 95
2, 563040, Note_on_c, 0, 47, 70
2, 563520, Note_off_c, 0, 47, 70
2, 563520, Note_on_c, 0, 49, 95
2, 564480, Note_off_c, 0, 49, 95
2, 564480, Note_on_c, 0, 52, 95
2, 565440, Note_off_c, 0, 52, 95
2, 565440, Note_on_c, 0, 50, 95
2, 565920, Note_off_c, 0, 50, 95
2, 565920, Note_on_c, 0, 52, 95
2, 566400, Note_off_c, 0, 52, 95
2, 566400, Note_on_c, 0, 55, 95
2, 566880, Note_off_c, 0, 55, 95
2, 566880, Note_on_c, 0, 52, 95
2, 567360, Note_off_c, 0, 52, 95
2, 567360, Note_on_c, 0, 50, 95
2, 567840, Note_off_c, 0, 50, 95
2, 567840, Note_on_c, 0, 52, 95
2, 568320, Note_off_c, 0, 52, 95
2, 568320, Note_on_c, 0, 61, 95
2, 568320, Note_on_c, 0, 57, 95
2, 568320, Note_on_c, 0, 52, 95
2, 568320, Note_on_c, 0, 45, 95
2, 569280, Note_off_c, 0, 61, 95
2, 569280, Note_off_c, 0, 57, 95
2, 569280, Note_off_c, 0, 52, 95
2, 569280, Note_off_c, 0, 45, 95
2, 569280, Note_on_c, 0, 61, 95
2, 569280, Note_on_c, 0, 57, 95
2, 569280, Note_on_c, 0, 52, 95
2, 569280, Note_on_c, 0, 45, 95
2, 570240, Note_off_c, 0, 61, 95
2, 570240, Note_off_c, 0, 57, 95
2, 570240, Note_off_c, 0, 52, 95
2, 570240, Note_off_c, 0, 45, 95
2, 570240, Note_on_c, 0, 54, 95
2, 570720, Note_off_c, 0, 54, 95
2, 570720, Note_on_c, 0, 52, 70
2, 571200, Note_off_c, 0, 52, 70
2, 571200, Note_on_c, 0, 49, 95
2, 572160, Note_off_c, 0, 49, 95
2, 572160, Note_on_c, 0, 59, 95
2, 572160, Note_on_c, 0, 55, 95
2, 572160, Note_on_c, 0, 50, 95
2, 572160, Note_on_c, 0, 47, 95
2, 573120, Note_off_c, 0, 59, 95
2, 573120, Note_off_c, 0, 55, 95
2, 573120, Note_off_c, 0, 50, 95
2, 573120, Note_off_c, 0, 47, 95
2, 573120, Note_on_c, 0, 59, 95
2, 573120, Note_on_c, 0, 55, 95
2, 573120, Note_on_c, 0, 50, 95
2, 573120, Note_on_c, 0, 47, 95
2, 574080, Note_off_c, 0, 59, 95
2, 574080, Note_off_c, 0, 55, 95
2, 574080, Note_off_c, 0, 50, 95
2, 574080, Note_off_c, 0, 47, 95
2, 574080, Note_on_c, 0, 47, 95
2, 576000, Note_off_c, 0, 47, 95
2, 576960, Pitch_bend_c, 1, 8192
2, 576960, Note_on_c, 1, 67, 95
2, 576960, Pitch_bend_c, 1, 8192
2, 576960, Note_on_c, 1, 63, 95
2, 577200, Pitch_bend_c, 1, 8320
2, 577200, Pitch_bend_c, 1, 8320
2, 577440, Pitch_bend_c, 1, 8448
2, 577440, Pitch_bend_c, 1, 8448
2, 577440, Pitch_bend_c, 1, 8448
2, 577440, Pitch_bend_c, 1, 8448
2, 577920, Pitch_bend_c, 1, 8448
2, 577920, Pitch_bend_c, 1, 8192
2, 577920, Note_off_c, 1, 67, 95
2, 577920, Pitch_bend_c, 1, 8448
2, 577920, Pitch_bend_c, 1, 8192
2, 577920, Note_off_c, 1, 63, 95
2, 577920, Note_on_c, 0, 64, 95
2, 579840, Note_off_c, 0, 64, 95
2, 580320, Note_on_c, 0, 71, 95
2, 580320, Note_on_c, 0, 67, 95
2, 580800, Note_off_c, 0, 71, 95
2, 580800, Note_off_c, 0, 67, 95
2, 580800, Note_on_c, 0, 71, 95
2, 580800, Note_on_c, 0, 67, 95
2, 581280, Note_off_c, 0, 71, 95
2, 581280, Note_off_c, 0, 67, 95
2, 581280, Note_on_c, 0, 71, 95
2, 581280, Note_on_c, 0, 67, 95
2, 581760, Note_off_c, 0, 71, 95
2, 581760, Note_off_c, 0, 67, 95
2, 581760, Note_on_c, 0, 71, 95
2, 581760, Note_on_c, 0, 67, 95
2, 582240, Note_off_c, 0, 71, 95
2, 582240, Note_off_c, 0, 67, 95
2, 582240, Note_on_c, 0, 64, 95
2, 583680, Note_off_c, 0, 64, 95
2, 583680, Note_on_c, 1, 67, 95
2, 583680, Note_on_c, 1, 61, 95
2, 583680, Note_on_c, 1, 57, 95
2, 583840, Pitch_bend_c, 1, 8192
2, 583840, Pitch_bend_c, 1, 8192
2, 583840, Pitch_bend_c, 1, 8192
2, 584000, Pitch_bend_c, 1, 8320
2, 584000, Pitch_bend_c, 1, 8320
2, 584000, Pitch_bend_c, 1, 8320
2, 584160, Pitch_bend_c, 1, 8192
2, 584160, Pitch_bend_c, 1, 8192
2, 584160, Pitch_bend_c, 1, 8192
2, 584320, Pitch_bend_c, 1, 8320
2, 584320, Pitch_bend_c, 1, 8320
2, 584320, Pitch_bend_c, 1, 8320
2, 584480, Pitch_bend_c, 1, 8192
2, 584480, Pitch_bend_c, 1, 8192
2, 584480, Pitch_bend_c, 1, 8192
2, 584640, Pitch_bend_c, 1, 8320
2, 584640, Pitch_bend_c, 1, 8320
2, 584640, Pitch_bend_c, 1, 8320
2, 584800, Pitch_bend_c, 1, 8192
2, 584800, Pitch_bend_c, 1, 8192
2, 584800, Pitch_bend_c, 1, 8192
2, 584960, Pitch_bend_c, 1, 8320
2, 584960, Pitch_bend_c, 1, 8320
2, 584960, Pitch_bend_c, 1, 8320
2, 585120, Pitch_bend_c, 1, 8192
2, 585120, Pitch_bend_c, 1, 8192
2, 585120, Pitch_bend_c, 1, 8192
2, 585280, Pitch_bend_c, 1, 8320
2, 585280, Pitch_bend_c, 1, 8320
2, 585280, Pitch_bend_c, 1, 8320
2, 585440, Pitch_bend_c, 1, 8192
2, 585440, Pitch_bend_c, 1, 8192
2, 585440, Pitch_bend_c, 1, 8192
2, 585600, Pitch_bend_c, 1, 8320
2, 585600, Pitch_bend_c, 1, 8320
2, 585600, Pitch_bend_c, 1, 8320
2, 585760, Pitch_bend_c, 1, 8192
2, 585760, Pitch_bend_c, 1, 8192
2, 585760, Pitch_bend_c, 1, 8192
2, 585920, Pitch_bend_c, 1, 8320
2, 585920, Pitch_bend_c, 1, 8320
2, 585920, Pitch_bend_c, 1, 8320
2, 586080, Pitch_bend_c, 1, 8192
2, 586080, Pitch_bend_c, 1, 8192
2, 586080, Pitch_bend_c, 1, 8192
2, 586240, Pitch_bend_c, 1, 8320
2, 586240, Pitch_bend_c, 1, 8320
2, 586240, Pitch_bend_c, 1, 8320
2, 586400, Pitch_bend_c, 1, 8192
2, 586400, Pitch_bend_c, 1, 8192
2, 586400, Pitch_bend_c, 1, 8192
2, 586560, Pitch_bend_c, 1, 8320
2, 586560, Pitch_bend_c, 1, 8320
2, 586560, Pitch_bend_c, 1, 8320
2, 586720, Pitch_bend_c, 1, 8192
2, 586720, Pitch_bend_c, 1, 8192
2, 586720, Pitch_bend_c, 1, 8192
2, 586880, Pitch_bend_c, 1, 8320
2, 586880, Pitch_bend_c, 1, 8320
2, 586880, Pitch_bend_c, 1, 8320
2, 587040, Pitch_bend_c, 1, 8192
2, 587040, Pitch_bend_c, 1, 8192
2, 587040, Pitch_bend_c, 1, 8192
2, 587200, Pitch_bend_c, 1, 8320
2, 587200, Pitch_bend_c, 1, 8320
2, 587200, Pitch_bend_c, 1, 8320
2, 587360, Pitch_bend_c, 1, 8192
2, 587360, Pitch_bend_c, 1, 8192
2, 587360, Pitch_bend_c, 1, 8192
2, 587520, Pitch_bend_c, 1, 8320
2, 587520, Pitch_bend_c, 1, 8192
2, 587520, Note_off_c, 1, 67, 95
2, 587520, Pitch_bend_c, 1, 8320
2, 587520, Pitch_bend_c, 1, 8192
2, 587520, Note_off_c, 1, 61, 95
2, 587520, Pitch_bend_c, 1, 8320
2, 587520, Pitch_bend_c, 1, 8192
2, 587520, Note_off_c, 1, 57, 95
2, 587520, Note_on_c, 1, 62, 95
2, 587520, Note_on_c, 1, 59, 95
2, 587520, Note_on_c, 1, 55, 95
2, 587680, Pitch_bend_c, 1, 8192
2, 587680, Pitch_bend_c, 1, 8192
2, 587680, Pitch_bend_c, 1, 8192
2, 587840, Pitch_bend_c, 1, 8320
2, 587840, Pitch_bend_c, 1, 8320
2, 587840, Pitch_bend_c, 1, 8320
2, 588000, Pitch_bend_c, 1, 8192
2, 588000, Pitch_bend_c, 1, 8192
2, 588000, Pitch_bend_c, 1, 8192
2, 588160, Pitch_bend_c, 1, 8320
2, 588160, Pitch_bend_c, 1, 8320
2, 588160, Pitch_bend_c, 1, 8320
2, 588320, Pitch_bend_c, 1, 8192
2, 588320, Pitch_bend_c, 1, 8192
2, 588320, Pitch_bend_c, 1, 8192
2, 588480, Pitch_bend_c, 1, 8320
2, 588480, Pitch_bend_c, 1, 8320
2, 588480, Pitch_bend_c, 1, 8320
2, 588640, Pitch_bend_c, 1, 8192
2, 588640, Pitch_bend_c, 1, 8192
2, 588640, Pitch_bend_c, 1, 8192
2, 588800, Pitch_bend_c, 1, 8320
2, 588800, Pitch_bend_c, 1, 8320
2, 588800, Pitch_bend_c, 1, 8320
2, 588960, Pitch_bend_c, 1, 8192
2, 588960, Pitch_bend_c, 1, 8192
2, 588960, Pitch_bend_c, 1, 8192
2, 589120, Pitch_bend_c, 1, 8320
2, 589120, Pitch_bend_c, 1, 8320
2, 589120, Pitch_bend_c, 1, 8320
2, 589280, Pitch_bend_c, 1, 8192
2, 589280, Pitch_bend_c, 1, 8192
2, 589280, Pitch_bend_c, 1, 8192
2, 589440, Pitch_bend_c, 1, 8320
2, 589440, Pitch_bend_c, 1, 8320
2, 589440, Pitch_bend_c, 1, 8320
2, 589600, Pitch_bend_c, 1, 8192
2, 589600, Pitch_bend_c, 1, 8192
2, 589600, Pitch_bend_c, 1, 8192
2, 589760, Pitch_bend_c, 1, 8320
2, 589760, Pitch_bend_c, 1, 8320
2, 589760, Pitch_bend_c, 1, 8320
2, 589920, Pitch_bend_c, 1, 8192
2, 589920, Pitch_bend_c, 1, 8192
2, 589920, Pitch_bend_c, 1, 8192
2, 590080, Pitch_bend_c, 1, 8320
2, 590080, Pitch_bend_c, 1, 8320
2, 590080, Pitch_bend_c, 1, 8320
2, 590240, Pitch_bend_c, 1, 8192
2, 590240, Pitch_bend_c, 1, 8192
2, 590240, Pitch_bend_c, 1, 8192
2, 590400, Pitch_bend_c, 1, 8320
2, 590400, Pitch_bend_c, 1, 8320
2, 590400, Pitch_bend_c, 1, 8320
2, 590560, Pitch_bend_c, 1, 8192
2, 590560, Pitch_bend_c, 1, 8192
2, 590560, Pitch_bend_c, 1, 8192
2, 590720, Pitch_bend_c, 1, 8320
2, 590720, Pitch_bend_c, 1, 8320
2, 590720, Pitch_bend_c, 1, 8320
2, 590880, Pitch_bend_c, 1, 8192
2, 590880, Pitch_bend_c, 1, 8192
2, 590880, Pitch_bend_c, 1, 8192
2, 591040, Pitch_bend_c, 1, 8320
2, 591040, Pitch_bend_c, 1, 8320
2, 591040, Pitch_bend_c, 1, 8320
2, 591200, Pitch_bend_c, 1, 8192
2, 591200, Pitch_bend_c, 1, 8192
2, 591200, Pitch_bend_c, 1, 8192
2, 591360, Pitch_bend_c, 1, 8320
2, 591360, Pitch_bend_c, 1, 8192
2, 591360, Note_off_c, 1, 62, 95
2, 591360, Pitch_bend_c, 1, 8320
2, 591360, Pitch_bend_c, 1, 8192
2, 591360, Note_off_c, 1, 59, 95
2, 591360, Pitch_bend_c, 1, 8320
2, 591360, Pitch_bend_c, 1, 8192
2, 591360, Note_off_c, 1, 55, 95
2, 592320, Pitch_bend_c, 1, 8192
2, 592320, Note_on_c, 1, 71, 95
2, 592363, Pitch_bend_c, 1, 8320
2, 592406, Pitch_bend_c, 1, 8448
2, 592449, Pitch_bend_c, 1, 8576
2, 592492, Pitch_bend_c, 1, 8704
2, 592535, Pitch_bend_c, 1, 8832
2, 592578, Pitch_bend_c, 1, 8960
2, 592621, Pitch_bend_c, 1, 9088
2, 592664, Pitch_bend_c, 1, 9216
2, 592707, Pitch_bend_c, 1, 9344
2, 592750, Pitch_bend_c, 1, 9472
2, 592793, Pitch_bend_c, 1, 9600
2, 592800, Pitch_bend_c, 1, 9600
2, 593280, Pitch_bend_c, 1, 9600
2, 593323, Pitch_bend_c, 1, 9472
2, 593366, Pitch_bend_c, 1, 9344
2, 593409, Pitch_bend_c, 1, 9216
2, 593452, Pitch_bend_c, 1, 9088
2, 593495, Pitch_bend_c, 1, 8960
2, 593538, Pitch_bend_c, 1, 8832
2, 593581, Pitch_bend_c, 1, 8704
2, 593624, Pitch_bend_c, 1, 8576
2, 593667, Pitch_bend_c, 1, 8448
2, 593710, Pitch_bend_c, 1, 8320
2, 593753, Pitch_bend_c, 1, 8192
2, 593760, Pitch_bend_c, 1, 8192
2, 594240, Pitch_bend_c, 1, 8192
2, 594240, Pitch_bend_c, 1, 8192
2, 594240, Note_off_c, 1, 71, 95
2, 594240, Note_on_c, 0, 71, 47
2, 595200, Note_off_c, 0, 71, 47
2, 595200, Pitch_bend_c, 1, 8192
2, 595200, Note_on_c, 1, 66, 95
2, 595243, Pitch_bend_c, 1, 8320
2, 595286, Pitch_bend_c, 1, 8448
2, 595329, Pitch_bend_c, 1, 8576
2, 595372, Pitch_bend_c, 1, 8704
2, 595415, Pitch_bend_c, 1, 8832
2, 595458, Pitch_bend_c, 1, 8960
2, 595501, Pitch_bend_c, 1, 9088
2, 595544, Pitch_bend_c, 1, 9216
2, 595587, Pitch_bend_c, 1, 9344
2, 595630, Pitch_bend_c, 1, 9472
2, 595673, Pitch_bend_c, 1, 9600
2, 595680, Pitch_bend_c, 1, 9600
2, 596160, Pitch_bend_c, 1, 9600
2, 596160, Pitch_bend_c, 1, 8192
2, 596160, Note_off_c, 1, 66, 95
2, 596160, Pitch_bend_c, 1, 8192
2, 596160, Note_on_c, 1, 66, 47
2, 596181, Pitch_bend_c, 1, 8320
2, 596202, Pitch_bend_c, 1, 8448
2, 596223, Pitch_bend_c, 1, 8576
2, 596244, Pitch_bend_c, 1, 8704
2, 596265, Pitch_bend_c, 1, 8832
2, 596286, Pitch_bend_c, 1, 8960
2, 596307, Pitch_bend_c, 1, 9088
2, 596328, Pitch_bend_c, 1, 9216
2, 596349, Pitch_bend_c, 1, 9344
2, 596370, Pitch_bend_c, 1, 9472
2, 596391, Pitch_bend_c, 1, 9600
2, 596400, Pitch_bend_c, 1, 9600
2, 596640, Pitch_bend_c, 1, 9600
2, 596640, Pitch_bend_c, 1, 8192
2, 596640, Note_off_c, 1, 66, 47
2, 596640, Pitch_bend_c, 1, 8192
2, 596640, Note_on_c, 1, 66, 47
2, 596661, Pitch_bend_c, 1, 8320
2, 596682, Pitch_bend_c, 1, 8448
2, 596703, Pitch_bend_c, 1, 8576
2, 596724, Pitch_bend_c, 1, 8704
2, 596745, Pitch_bend_c, 1, 8832
2, 596766, Pitch_bend_c, 1, 8960
2, 596787, Pitch_bend_c, 1, 9088
2, 596808, Pitch_bend_c, 1, 9216
2, 596829, Pitch_bend_c, 1, 9344
2, 596850, Pitch_bend_c, 1, 9472
2, 596871, Pitch_bend_c, 1, 9600
2, 596880, Pitch_bend_c, 1, 9600
2, 597120, Pitch_bend_c, 1, 9600
2, 597120, Pitch_bend_c, 1, 8192
2, 597120, Note_off_c, 1, 66, 47
2, 597120, Pitch_bend_c, 1, 8192
2, 597120, Note_on_c, 1, 66, 47
2, 597130, Pitch_bend_c, 1, 8320
2, 597140, Pitch_bend_c, 1, 8448
2, 597150, Pitch_bend_c, 1, 8576
2, 597160, Pitch_bend_c, 1, 8704
2, 597170, Pitch_bend_c, 1, 8832
2, 597180, Pitch_bend_c, 1, 8960
2, 597190, Pitch_bend_c, 1, 9088
2, 597200, Pitch_bend_c, 1, 9216
2, 597210, Pitch_bend_c, 1, 9344
2, 597220, Pitch_bend_c, 1, 9472
2, 597230, Pitch_bend_c, 1, 9600
2, 597240, Pitch_bend_c, 1, 9600
2, 597360, Pitch_bend_c, 1, 9600
2, 597370, Pitch_bend_c, 1, 9472
2, 597380, Pitch_bend_c, 1, 9344
2, 597390, Pitch_bend_c, 1, 9216
2, 597400, Pitch_bend_c, 1, 9088
2, 597410, Pitch_bend_c, 1, 8960
2, 597420, Pitch_bend_c, 1, 8832
2, 597430, Pitch_bend_c, 1, 8704
2, 597440, Pitch_bend_c, 1, 8576
2, 597450, Pitch_bend_c, 1, 8448
2, 597460, Pitch_bend_c, 1, 8320
2, 597470, Pitch_bend_c, 1, 8192
2, 597480, Pitch_bend_c, 1, 8192
2, 597600, Pitch_bend_c, 1, 8192
2, 597600, Pitch_bend_c, 1, 8192
2, 597600, Note_off_c, 1, 66, 47
2, 597600, Note_on_c, 0, 64, 95
2, 598080, Note_off_c, 0, 64, 95
2, 598080, Note_on_c, 0, 61, 95
2, 599040, Note_off_c, 0, 61, 95
2, 600000, Note_on_c, 0, 64, 95
2, 602880, Note_off_c, 0, 64, 95
2, 607680, Note_on_c, 0, 72, 95
2, 608000, Note_off_c, 0, 72, 95
2, 608000, Note_on_c, 0, 76, 70
2, 608320, Note_off_c, 0, 76, 70
2, 608320, Note_on_c, 0, 73, 70
2, 608640, Note_off_c, 0, 73, 70
2, 608640, Note_on_c, 0, 68, 95
2, 608960, Note_off_c, 0, 68, 95
2, 608960, Note_on_c, 0, 71, 70
2, 609280, Note_off_c, 0, 71, 70
2, 609280, Note_on_c, 0, 68, 70
2, 609600, Note_off_c, 0, 68, 70
2, 609600, Note_on_c, 0, 64, 95
2, 609920, Note_off_c, 0, 64, 95
2, 609920, Note_on_c, 0, 66, 70
2, 610240, Note_off_c, 0, 66, 70
2, 610240, Note_on_c, 0, 64, 70
2, 610560, Note_off_c, 0, 64, 70
2, 610560, Note_on_c, 0, 59, 95
2, 610880, Note_off_c, 0, 59, 95
2, 610880, Note_on_c, 0, 61, 70
2, 611200, Note_off_c, 0, 61, 70
2, 611200, Note_on_c, 0, 59, 70
2, 611520, Note_off_c, 0, 59, 70
2, 611520, Note_on_c, 0, 54, 95
2, 611840, Note_off_c, 0, 54, 95
2, 611840, Note_on_c, 0, 55, 70
2, 612160, Note_off_c, 0, 55, 70
2, 612160, Note_on_c, 0, 54, 70
2, 612480, Note_off_c, 0, 54, 70
2, 612480, Note_on_c, 0, 52, 95
2, 613440, Note_off_c, 0, 52, 95
2, 613440, Note_on_c, 0, 49, 95
2, 614400, Note_off_c, 0, 49, 95
2, 615360, Note_on_c, 0, 61, 95
2, 615840, Note_off_c, 0, 61, 95
2, 615840, Note_on_c, 0, 61, 95
2, 616320, Note_off_c, 0, 61, 95
2, 616320, Note_on_c, 0, 64, 95
2, 617280, Note_off_c, 0, 64, 95
2, 617280, Note_on_c, 0, 61, 95
2, 618240, Note_off_c, 0, 61, 95
2, 618240, Note_on_c, 0, 62, 95
2, 618240, Note_on_c, 0, 59, 95
2, 618240, Note_on_c, 0, 55, 95
2, 622080, Note_off_c, 0, 62, 95
2, 622080, Note_off_c, 0, 59, 95
2, 622080, Note_off_c, 0, 55, 95
2, 623040, Note_on_c, 0, 66, 95
2, 623520, Note_off_c, 0, 66, 95
2, 623520, Note_on_c, 0, 67, 95
2, 624000, Note_off_c, 0, 67, 95
2, 624000, Note_on_c, 0, 66, 95
2, 624720, Note_off_c, 0, 66, 95
2, 624720, Note_on_c, 0, 71, 95
2, 624720, Note_on_c, 0, 66, 95
2, 624960, Note_off_c, 0, 71, 95
2, 624960, Note_off_c, 0, 66, 95
2, 624960, Pitch_bend_c, 1, 8192
2, 624960, Note_on_c, 1, 66, 95
2, 624981, Pitch_bend_c, 1, 8320
2, 625002, Pitch_bend_c, 1, 8448
2, 625023, Pitch_bend_c, 1, 8576
2, 625044, Pitch_bend_c, 1, 8704
2, 625065, Pitch_bend_c, 1, 8832
2, 625086, Pitch_bend_c, 1, 8960
2, 625107, Pitch_bend_c, 1, 9088
2, 625128, Pitch_bend_c, 1, 9216
2, 625149, Pitch_bend_c, 1, 9344
2, 625170, Pitch_bend_c, 1, 9472
2, 625191, Pitch_bend_c, 1, 9600
2, 625200, Pitch_bend_c, 1, 9600
2, 625440, Pitch_bend_c, 1, 9600
2, 625461, Pitch_bend_c, 1, 9472
2, 625482, Pitch_bend_c, 1, 9344
2, 625503, Pitch_bend_c, 1, 9216
2, 625524, Pitch_bend_c, 1, 9088
2, 625545, Pitch_bend_c, 1, 8960
2, 625566, Pitch_bend_c, 1, 8832
2, 625587, Pitch_bend_c, 1, 8704
2, 625608, Pitch_bend_c, 1, 8576
2, 625629, Pitch_bend_c, 1, 8448
2, 625650, Pitch_bend_c, 1, 8320
2, 625671, Pitch_bend_c, 1, 8192
2, 625680, Pitch_bend_c, 1, 8192
2, 625920, Pitch_bend_c, 1, 8192
2, 625920, Pitch_bend_c, 1, 8192
2, 625920, Note_off_c, 1, 66, 95
2, 625920, Note_on_c, 0, 66, 95
2, 626400, Note_off_c, 0, 66, 95
2, 626400, Pitch_bend_c, 1, 8192
2, 626400, Note_on_c, 1, 66, 95
2, 626410, Pitch_bend_c, 1, 8320
2, 626420, Pitch_bend_c, 1, 8448
2, 626430, Pitch_bend_c, 1, 8576
2, 626440, Pitch_bend_c, 1, 8704
2, 626450, Pitch_bend_c, 1, 8832
2, 626460, Pitch_bend_c, 1, 8960
2, 626470, Pitch_bend_c, 1, 9088
2, 626480, Pitch_bend_c, 1, 9216
2, 626490, Pitch_bend_c, 1, 9344
2, 626500, Pitch_bend_c, 1, 9472
2, 626510, Pitch_bend_c, 1, 9600
2, 626520, Pitch_bend_c, 1, 9600
2, 626640, Pitch_bend_c, 1, 9600
2, 626650, Pitch_bend_c, 1, 9472
2, 626660, Pitch_bend_c, 1, 9344
2, 626670, Pitch_bend_c, 1, 9216
2, 626680, Pitch_bend_c, 1, 9088
2, 626690, Pitch_bend_c, 1, 8960
2, 626700, Pitch_bend_c, 1, 8832
2, 626710, Pitch_bend_c, 1, 8704
2, 626720, Pitch_bend_c, 1, 8576
2, 626730, Pitch_bend_c, 1, 8448
2, 626740, Pitch_bend_c, 1, 8320
2, 626750, Pitch_bend_c, 1, 8192
2, 626760, Pitch_bend_c, 1, 8192
2, 626880, Pitch_bend_c, 1, 8192
2, 626880, Pitch_bend_c, 1, 8192
2, 626880, Note_off_c, 1, 66, 95
2, 626880, Note_on_c, 0, 66, 47
2, 627360, Note_off_c, 0, 66, 47
2, 627360, Note_on_c, 0, 64, 95
2, 627840, Note_off_c, 0, 64, 95
2, 627840, Note_on_c, 0, 61, 95
2, 628800, Note_off_c, 0, 61, 95
2, 629760, Note_on_c, 0, 57, 95
2, 630720, Note_off_c, 0, 57, 95
2, 630720, Note_on_c, 0, 62, 95
2, 631200, Note_off_c, 0, 62, 95
2, 631200, Note_on_c, 0, 57, 95
2, 631680, Note_off_c, 0, 57, 95
2, 631680, Note_on_c, 0, 62, 95
2, 632640, Note_off_c, 0, 62, 95
2, 632640, Note_on_c, 0, 62, 95
2, 633600, Note_off_c, 0, 62, 95
2, 633600, Note_on_c, 0, 61, 95
2, 634080, Note_off_c, 0, 61, 95
2, 634080, Note_on_c, 0, 57, 95
2, 634560, Note_off_c, 0, 57, 95
2, 634560, Note_on_c, 0, 61, 95
2, 635520, Note_off_c, 0, 61, 95
2, 635520, Note_on_c, 0, 57, 95
2, 637440, Note_off_c, 0, 57, 95
2, 638400, Note_on_c, 0, 74, 95
2, 638880, Note_off_c, 0, 74, 95
2, 638880, Note_on_c, 0, 76, 95
2, 639360, Note_off_c, 0, 76, 95
2, 639360, Note_on_c, 0, 74, 95
2, 639840, Note_off_c, 0, 74, 95
2, 639840, Note_on_c, 0, 76, 95
2, 640320, Note_off_c, 0, 76, 95
2, 640320, Note_on_c, 0, 76, 95
2, 640800, Note_off_c, 0, 76, 95
2, 640800, Note_on_c, 0, 74, 95
2, 641280, Note_off_c, 0, 74, 95
2, 641280, Note_on_c, 0, 76, 95
2, 641760, Note_off_c, 0, 76, 95
2, 641760, Note_on_c, 0, 76, 95
2, 642240, Note_off_c, 0, 76, 95
2, 642240, Note_on_c, 0, 74, 95
2, 642720, Note_off_c, 0, 74, 95
2, 642720, Note_on_c, 0, 76, 95
2, 643200, Note_off_c, 0, 76, 95
2, 643200, Note_on_c, 0, 76, 95
2, 643680, Note_off_c, 0, 76, 95
2, 643680, Note_on_c, 0, 74, 95
2, 644160, Note_off_c, 0, 74, 95
2, 644160, Note_on_c, 0, 76, 95
2, 644640, Note_off_c, 0, 76, 95
2, 644640, Note_on_c, 0, 76, 95
2, 645120, Note_off_c, 0, 76, 95
2, 645120, Note_on_c, 0, 62, 95
2, 646080, Note_off_c, 0, 62, 95
2, 646080, Note_on_c, 0, 62, 95
2, 646560, Note_off_c, 0, 62, 95
2, 646560, Note_on_c, 0, 57, 95
2, 647040, Note_off_c, 0, 57, 95
2, 647040, Note_on_c, 0, 62, 95
2, 648000, Note_off_c, 0, 62, 95
2, 648000, Note_on_c, 0, 62, 95
2, 648960, Note_off_c, 0, 62, 95
2, 648960, Note_on_c, 0, 61, 95
2, 649440, Note_off_c, 0, 61, 95
2, 649440, Note_on_c, 0, 57, 95
2, 649920, Note_off_c, 0, 57, 95
2, 649920, Note_on_c, 0, 61, 95
2, 650880, Note_off_c, 0, 61, 95
2, 650880, Note_on_c, 0, 57, 95
2, 652800, Note_off_c, 0, 57, 95
2, 652800, Note_on_c, 0, 59, 95
2, 653760, Note_off_c, 0, 59, 95
2, 653760, Note_on_c, 0, 59, 95
2, 654720, Note_off_c, 0, 59, 95
2, 656160, Note_on_c, 0, 64, 95
2, 656640, Note_off_c, 0, 64, 95
2, 656640, Note_on_c, 0, 67, 95
2, 657600, Note_off_c, 0, 67, 95
2, 657600, Note_on_c, 0, 69, 95
2, 658560, Note_off_c, 0, 69, 95
2, 658560, Pitch_bend_c, 1, 8192
2, 658560, Note_on_c, 1, 69, 95
2, 658570, Pitch_bend_c, 1, 8320
2, 658580, Pitch_bend_c, 1, 8448
2, 658590, Pitch_bend_c, 1, 8576
2, 658600, Pitch_bend_c, 1, 8704
2, 658610, Pitch_bend_c, 1, 8832
2, 658620, Pitch_bend_c, 1, 8960
2, 658630, Pitch_bend_c, 1, 9088
2, 658640, Pitch_bend_c, 1, 9216
2, 658650, Pitch_bend_c, 1, 9344
2, 658660, Pitch_bend_c, 1, 9472
2, 658670, Pitch_bend_c, 1, 9600
2, 658680, Pitch_bend_c, 1, 9600
2, 658800, Pitch_bend_c, 1, 9600
2, 658810, Pitch_bend_c, 1, 9472
2, 658820, Pitch_bend_c, 1, 9344
2, 658830, Pitch_bend_c, 1, 9216
2, 658840, Pitch_bend_c, 1, 9088
2, 658850, Pitch_bend_c, 1, 8960
2, 658860, Pitch_bend_c, 1, 8832
2, 658870, Pitch_bend_c, 1, 8704
2, 658880, Pitch_bend_c, 1, 8576
2, 658890, Pitch_bend_c, 1, 8448
2, 658900, Pitch_bend_c, 1, 8320
2, 658910, Pitch_bend_c, 1, 8192
2, 658920, Pitch_bend_c, 1, 8192
2, 659040, Pitch_bend_c, 1, 8192
2, 659040, Pitch_bend_c, 1, 8192
2, 659040, Note_off_c, 1, 69, 95
2, 659040, Note_on_c, 0, 69, 47
2, 659520, Note_off_c, 0, 69, 47
2, 659520, Note_on_c, 0, 67, 95
2, 660480, Note_off_c, 0, 67, 95
2, 660480, Note_on_c, 0, 64, 95
2, 661440, Note_off_c, 0, 64, 95
2, 661440, Note_on_c, 0, 64, 95
2, 662400, Note_off_c, 0, 64, 95
2, 662400, Note_on_c, 0, 64, 95
2, 664320, Note_off_c, 0, 64, 95
2, 671040, Pitch_bend_c, 1, 8192
2, 671040, Note_on_c, 1, 66, 95
2, 671064, Pitch_bend_c, 1, 8320
2, 671088, Pitch_bend_c, 1, 8448
2, 671112, Pitch_bend_c, 1, 8576
2, 671136, Pitch_bend_c, 1, 8704
2, 671160, Pitch_bend_c, 1, 8832
2, 671160, Pitch_bend_c, 1, 8832
2, 671280, Pitch_bend_c, 1, 8832
2, 671280, Pitch_bend_c, 1, 8192
2, 671280, Note_off_c, 1, 66, 95
2, 671280, Note_on_c, 0, 67, 95
2, 671520, Note_off_c, 0, 67, 95
2, 671520, Note_on_c, 0, 73, 95
2, 672000, Note_off_c, 0, 73, 95
2, 672000, Note_on_c, 0, 71, 95
2, 672480, Note_off_c, 0, 71, 95
2, 672480, Note_on_c, 0, 66, 95
2, 672960, Note_off_c, 0, 66, 95
2, 672960, Note_on_c, 0, 64, 95
2, 673440, Note_off_c, 0, 64, 95
2, 673440, Note_on_c, 0, 69, 95
2, 673920, Note_off_c, 0, 69, 95
2, 673920, Note_on_c, 0, 61, 95
2, 674160, Note_off_c, 0, 61, 95
2, 674160, Note_on_c, 0, 62, 95
2, 674400, Note_off_c, 0, 62, 95
2, 674400, Note_on_c, 0, 66, 70
2, 674640, Note_off_c, 0, 66, 70
2, 674640, Note_on_c, 0, 64, 70
2, 674880, Note_off_c, 0, 64, 70
2, 674880, Note_on_c, 0, 61, 95
2, 675360, Note_off_c, 0, 61, 95
2, 675360, Note_on_c, 0, 64, 95
2, 675840, Note_off_c, 0, 64, 95
2, 675840, Note_on_c, 0, 64, 95
2, 677760, Note_off_c, 0, 64, 95
2, 677760, Note_on_c, 0, 66, 95
2, 678720, Note_off_c, 0, 66, 95
2, 680640, Pitch_bend_c, 1, 8192
2, 680640, Note_on_c, 1, 71, 95
2, 680683, Pitch_bend_c, 1, 8320
2, 680726, Pitch_bend_c, 1, 8448
2, 680769, Pitch_bend_c, 1, 8576
2, 680812, Pitch_bend_c, 1, 8704
2, 680855, Pitch_bend_c, 1, 8832
2, 680898, Pitch_bend_c, 1, 8960
2, 680941, Pitch_bend_c, 1, 9088
2, 680984, Pitch_bend_c, 1, 9216
2, 681027, Pitch_bend_c, 1, 9344
2, 681070, Pitch_bend_c, 1, 9472
2, 681113, Pitch_bend_c, 1, 9600
2, 681120, Pitch_bend_c, 1, 9600
2, 681600, Pitch_bend_c, 1, 9600
2, 681643, Pitch_bend_c, 1, 9472
2, 681686, Pitch_bend_c, 1, 9344
2, 681729, Pitch_bend_c, 1, 9216
2, 681772, Pitch_bend_c, 1, 9088
2, 681815, Pitch_bend_c, 1, 8960
2, 681858, Pitch_bend_c, 1, 8832
2, 681901, Pitch_bend_c, 1, 8704
2, 681944, Pitch_bend_c, 1, 8576
2, 681987, Pitch_bend_c, 1, 8448
2, 682030, Pitch_bend_c, 1, 8320
2, 682073, Pitch_bend_c, 1, 8192
2, 682080, Pitch_bend_c, 1, 8192
2, 682560, Pitch_bend_c, 1, 8192
2, 682560, Pitch_bend_c, 1, 8192
2, 682560, Note_off_c, 1, 71, 95
2, 682560, Note_on_c, 0, 71, 47
2, 683520, Note_off_c, 0, 71, 47
2, 683520, Note_on_c, 0, 66, 95
2, 684000, Note_off_c, 0, 66, 95
2, 684000, Note_on_c, 0, 64, 95
2, 684480, Note_off_c, 0, 64, 95
2, 684480, Note_on_c, 0, 66, 95
2, 684960, Note_off_c, 0, 66, 95
2, 684960, Note_on_c, 0, 61, 95
2, 686400, Note_off_c, 0, 61, 95
2, 686880, Note_on_c, 0, 64, 95
2, 687240, Note_on_c, 1, 67, 95
2, 687360, Note_off_c, 0, 64, 95
2, 687360, Note_off_c, 1, 67, 95
2, 687360, Note_on_c, 1, 68, 95
2, 687840, Note_off_c, 1, 68, 95
2, 687840, Note_on_c, 0, 71, 95
2, 688320, Note_off_c, 0, 71, 95
2, 688320, Note_on_c, 0, 73, 95
2, 689280, Note_off_c, 0, 73, 95
2, 689280, Pitch_bend_c, 1, 8192
2, 689280, Note_on_c, 1, 74, 95
2, 689323, Pitch_bend_c, 1, 8320
2, 689366, Pitch_bend_c, 1, 8448
2, 689409, Pitch_bend_c, 1, 8576
2, 689452, Pitch_bend_c, 1, 8704
2, 689495, Pitch_bend_c, 1, 8832
2, 689538, Pitch_bend_c, 1, 8960
2, 689581, Pitch_bend_c, 1, 9088
2, 689624, Pitch_bend_c, 1, 9216
2, 689667, Pitch_bend_c, 1, 9344
2, 689710, Pitch_bend_c, 1, 9472
2, 689753, Pitch_bend_c, 1, 9600
2, 689760, Pitch_bend_c, 1, 9600
2, 690240, Pitch_bend_c, 1, 9600
2, 690240, Pitch_bend_c, 1, 8192
2, 690240, Note_off_c, 1, 74, 95
2, 690240, Note_on_c, 0, 76, 95
2, 691200, Note_off_c, 0, 76, 95
2, 696000, Note_on_c, 0, 76, 95
2, 696960, Note_off_c, 0, 76, 95
2, 696960, Note_on_c, 0, 76, 95
2, 697920, Note_off_c, 0, 76, 95
2, 699360, Pitch_bend_c, 1, 8192
2, 699360, Note_on_c, 1, 79, 95
2, 699370, Pitch_bend_c, 1, 8320
2, 699380, Pitch_bend_c, 1, 8448
2, 699390, Pitch_bend_c, 1, 8576
2, 699400, Pitch_bend_c, 1, 8704
2, 699410, Pitch_bend_c, 1, 8832
2, 699420, Pitch_bend_c, 1, 8960
2, 699430, Pitch_bend_c, 1, 9088
2, 699440, Pitch_bend_c, 1, 9216
2, 699450, Pitch_bend_c, 1, 9344
2, 699460, Pitch_bend_c, 1, 9472
2, 699470, Pitch_bend_c, 1, 9600
2, 699480, Pitch_bend_c, 1, 9600
2, 699600, Pitch_bend_c, 1, 9600
2, 699610, Pitch_bend_c, 1, 9472
2, 699620, Pitch_bend_c, 1, 9344
2, 699630, Pitch_bend_c, 1, 9216
2, 699640, Pitch_bend_c, 1, 9088
2, 699650, Pitch_bend_c, 1, 8960
2, 699660, Pitch_bend_c, 1, 8832
2, 699670, Pitch_bend_c, 1, 8704
2, 699680, Pitch_bend_c, 1, 8576
2, 699690, Pitch_bend_c, 1, 8448
2, 699700, Pitch_bend_c, 1, 8320
2, 699710, Pitch_bend_c, 1, 8192
2, 699720, Pitch_bend_c, 1, 8192
2, 699840, Pitch_bend_c, 1, 8192
2, 699840, Pitch_bend_c, 1, 8192
2, 699840, Note_off_c, 1, 79, 95
2, 699840, Note_on_c, 0, 79, 47
2, 700080, Note_off_c, 0, 79, 47
2, 700080, Note_on_c, 0, 76, 70
2, 700320, Note_off_c, 0, 76, 70
2, 700320, Note_on_c, 0, 74, 95
2, 700800, Note_off_c, 0, 74, 95
2, 700800, Pitch_bend_c, 1, 8192
2, 700800, Note_on_c, 1, 79, 95
2, 700810, Pitch_bend_c, 1, 8320
2, 700820, Pitch_bend_c, 1, 8448
2, 700830, Pitch_bend_c, 1, 8576
2, 700840, Pitch_bend_c, 1, 8704
2, 700850, Pitch_bend_c, 1, 8832
2, 700860, Pitch_bend_c, 1, 8960
2, 700870, Pitch_bend_c, 1, 9088
2, 700880, Pitch_bend_c, 1, 9216
2, 700890, Pitch_bend_c, 1, 9344
2, 700900, Pitch_bend_c, 1, 9472
2, 700910, Pitch_bend_c, 1, 9600
2, 700920, Pitch_bend_c, 1, 9600
2, 701040, Pitch_bend_c, 1, 9600
2, 701050, Pitch_bend_c, 1, 9472
2, 701060, Pitch_bend_c, 1, 9344
2, 701070, Pitch_bend_c, 1, 9216
2, 701080, Pitch_bend_c, 1, 9088
2, 701090, Pitch_bend_c, 1, 8960
2, 701100, Pitch_bend_c, 1, 8832
2, 701110, Pitch_bend_c, 1, 8704
2, 701120, Pitch_bend_c, 1, 8576
2, 701130, Pitch_bend_c, 1, 8448
2, 701140, Pitch_bend_c, 1, 8320
2, 701150, Pitch_bend_c, 1, 8192
2, 701160, Pitch_bend_c, 1, 8192
2, 701280, Pitch_bend_c, 1, 8192
2, 701280, Pitch_bend_c, 1, 8192
2, 701280, Note_off_c, 1, 79, 95
2, 701280, Note_on_c, 0, 79, 47
2, 701520, Note_off_c, 0, 79, 47
2, 701520, Note_on_c, 0, 76, 70
2, 701760, Note_off_c, 0, 76, 70
2, 701760, Note_on_c, 0, 74, 95
2, 702240, Note_off_c, 0, 74, 95
2, 702240, Note_on_c, 0, 79, 95
2, 702720, Note_off_c, 0, 79, 95
2, 702720, Note_on_c, 0, 76, 95
2, 703040, Note_off_c, 0, 76, 95
2, 703040, Note_on_c, 0, 74, 95
2, 703360, Note_off_c, 0, 74, 95
2, 703360, Note_on_c, 0, 71, 95
2, 703680, Note_off_c, 0, 71, 95
2, 703680, Note_on_c, 0, 79, 95
2, 704160, Note_off_c, 0, 79, 95
2, 704160, Note_on_c, 0, 76, 70
2, 704400, Note_off_c, 0, 76, 70
2, 704400, Note_on_c, 0, 74, 95
2, 704640, Note_off_c, 0, 74, 95
2, 704640, Note_on_c, 0, 71, 95
2, 705120, Note_off_c, 0, 71, 95
2, 705120, Note_on_c, 0, 79, 95
2, 705600, Note_off_c, 0, 79, 95
2, 705600, Note_on_c, 0, 76, 70
2, 705840, Note_off_c, 0, 76, 70
2, 705840, Note_on_c, 0, 74, 95
2, 706080, Note_off_c, 0, 74, 95
2, 706080, Note_on_c, 0, 71, 95
2, 706560, Note_off_c, 0, 71, 95
2, 706560, Note_on_c, 0, 79, 95
2, 707040, Note_off_c, 0, 79, 95
2, 707040, Note_on_c, 0, 76, 95
2, 708480, Note_off_c, 0, 76, 95
2, 708480, Pitch_bend_c, 1, 8192
2, 708480, Note_on_c, 1, 74, 95
2, 708567, Pitch_bend_c, 1, 8320
2, 708654, Pitch_bend_c, 1, 8448
2, 708741, Pitch_bend_c, 1, 8576
2, 708828, Pitch_bend_c, 1, 8704
2, 708915, Pitch_bend_c, 1, 8832
2, 709002, Pitch_bend_c, 1, 8960
2, 709089, Pitch_bend_c, 1, 9088
2, 709176, Pitch_bend_c, 1, 9216
2, 709263, Pitch_bend_c, 1, 9344
2, 709350, Pitch_bend_c, 1, 9472
2, 709437, Pitch_bend_c, 1, 9600
2, 709440, Pitch_bend_c, 1, 9600
2, 710400, Pitch_bend_c, 1, 9600
2, 710400, Pitch_bend_c, 1, 8192
2, 710400, Note_off_c, 1, 74, 95
2, 710880, Note_on_c, 0, 76, 95
2, 711360, Note_off_c, 0, 76, 95
2, 711360, Note_on_c, 0, 79, 95
2, 711840, Note_off_c, 0, 79, 95
2, 711840, Note_on_c, 0, 80, 95
2, 712320, Note_off_c, 0, 80, 95
2, 712320, Note_on_c, 0, 81, 95
2, 712800, Note_off_c, 0, 81, 95
2, 712800, Note_on_c, 0, 79, 95
2, 713280, Note_off_c, 0, 79, 95
2, 713280, Pitch_bend_c, 1, 8192
2, 713280, Note_on_c, 1, 81, 95
2, 713323, Pitch_bend_c, 1, 8320
2, 713366, Pitch_bend_c, 1, 8448
2, 713409, Pitch_bend_c, 1, 8576
2, 713452, Pitch_bend_c, 1, 8704
2, 713495, Pitch_bend_c, 1, 8832
2, 713538, Pitch_bend_c, 1, 8960
2, 713581, Pitch_bend_c, 1, 9088
2, 713624, Pitch_bend_c, 1, 9216
2, 713667, Pitch_bend_c, 1, 9344
2, 713710, Pitch_bend_c, 1, 9472
2, 713753, Pitch_bend_c, 1, 9600
2, 713760, Pitch_bend_c, 1, 9600
2, 714240, Pitch_bend_c, 1, 9600
2, 714240, Pitch_bend_c, 1, 8192
2, 714240, Note_off_c, 1, 81, 95
2, 714240, Note_on_c, 0, 79, 95
2, 714720, Note_off_c, 0, 79, 95
2, 714720, Pitch_bend_c, 1, 8192
2, 714720, Note_on_c, 1, 79, 95
2, 714768, Pitch_bend_c, 1, 8320
2, 714816, Pitch_bend_c, 1, 8448
2, 714864, Pitch_bend_c, 1, 8576
2, 714912, Pitch_bend_c, 1, 8704
2, 714960, Pitch_bend_c, 1, 8832
2, 714960, Pitch_bend_c, 1, 8832
2, 715200, Pitch_bend_c, 1, 8832
2, 715200, Pitch_bend_c, 1, 8192
2, 715200, Note_off_c, 1, 79, 95
2, 715200, Pitch_bend_c, 1, 8192
2, 715200, Note_on_c, 1, 79, 47
2, 715221, Pitch_bend_c, 1, 8320
2, 715242, Pitch_bend_c, 1, 8448
2, 715263, Pitch_bend_c, 1, 8576
2, 715284, Pitch_bend_c, 1, 8704
2, 715305, Pitch_bend_c, 1, 8832
2, 715326, Pitch_bend_c, 1, 8960
2, 715347, Pitch_bend_c, 1, 9088
2, 715368, Pitch_bend_c, 1, 9216
2, 715389, Pitch_bend_c, 1, 9344
2, 715410, Pitch_bend_c, 1, 9472
2, 715431, Pitch_bend_c, 1, 9600
2, 715440, Pitch_bend_c, 1, 9600
2, 715680, Pitch_bend_c, 1, 9600
2, 715680, Pitch_bend_c, 1, 8192
2, 715680, Note_off_c, 1, 79, 47
2, 715680, Note_on_c, 0, 76, 95
2, 716160, Note_off_c, 0, 76, 95
2, 716640, Note_on_c, 0, 76, 95
2, 717120, Note_off_c, 0, 76, 95
2, 717120, Note_on_c, 0, 74, 70
2, 717600, Note_off_c, 0, 74, 70
2, 717600, Note_on_c, 0, 71, 95
2, 718080, Note_off_c, 0, 71, 95
2, 718080, Note_on_c, 0, 69, 95
2, 718560, Note_off_c, 0, 69, 95
2, 718560, Note_on_c, 0, 67, 95
2, 719040, Note_off_c, 0, 67, 95
2, 719040, Note_on_c, 0, 68, 95
2, 719520, Note_off_c, 0, 68, 95
2, 719520, Note_on_c, 0, 69, 95
2, 720000, Note_off_c, 0, 69, 95
2, 720000, Note_on_c, 0, 71, 95
2, 720480, Note_off_c, 0, 71, 95
2, 720480, Note_on_c, 0, 74, 95
2, 720960, Note_off_c, 0, 74, 95
2, 720960, Note_on_c, 0, 71, 95
2, 721440, Note_off_c, 0, 71, 95
2, 721440, Pitch_bend_c, 1, 8192
2, 721440, Note_on_c, 1, 74, 95
2, 721483, Pitch_bend_c, 1, 8320
2, 721526, Pitch_bend_c, 1, 8448
2, 721569, Pitch_bend_c, 1, 8576
2, 721612, Pitch_bend_c, 1, 8704
2, 721655, Pitch_bend_c, 1, 8832
2, 721698, Pitch_bend_c, 1, 8960
2, 721741, Pitch_bend_c, 1, 9088
2, 721784, Pitch_bend_c, 1, 9216
2, 721827, Pitch_bend_c, 1, 9344
2, 721870, Pitch_bend_c, 1, 9472
2, 721913, Pitch_bend_c, 1, 9600
2, 721920, Pitch_bend_c, 1, 9600
2, 722400, Pitch_bend_c, 1, 9600
2, 722400, Pitch_bend_c, 1, 8192
2, 722400, Note_off_c, 1, 74, 95
2, 722400, Note_on_c, 0, 76, 95
2, 722880, Note_off_c, 0, 76, 95
2, 722880, Pitch_bend_c, 1, 8192
2, 722880, Note_on_c, 1, 74, 95
2, 722923, Pitch_bend_c, 1, 8320
2, 722966, Pitch_bend_c, 1, 8448
2, 723009, Pitch_bend_c, 1, 8576
2, 723052, Pitch_bend_c, 1, 8704
2, 723095, Pitch_bend_c, 1, 8832
2, 723138, Pitch_bend_c, 1, 8960
2, 723181, Pitch_bend_c, 1, 9088
2, 723224, Pitch_bend_c, 1, 9216
2, 723267, Pitch_bend_c, 1, 9344
2, 723310, Pitch_bend_c, 1, 9472
2, 723353, Pitch_bend_c, 1, 9600
2, 723360, Pitch_bend_c, 1, 9600
2, 723840, Pitch_bend_c, 1, 9600
2, 723840, Pitch_bend_c, 1, 8192
2, 723840, Note_off_c, 1, 74, 95
2, 723840, Note_on_c, 0, 76, 95
2, 724320, Note_off_c, 0, 76, 95
2, 724320, Pitch_bend_c, 1, 8192
2, 724320, Note_on_c, 1, 74, 95
2, 724363, Pitch_bend_c, 1, 8320
2, 724406, Pitch_bend_c, 1, 8448
2, 724449, Pitch_bend_c, 1, 8576
2, 724492, Pitch_bend_c, 1, 8704
2, 724535, Pitch_bend_c, 1, 8832
2, 724578, Pitch_bend_c, 1, 8960
2, 724621, Pitch_bend_c, 1, 9088
2, 724664, Pitch_bend_c, 1, 9216
2, 724707, Pitch_bend_c, 1, 9344
2, 724750, Pitch_bend_c, 1, 9472
2, 724793, Pitch_bend_c, 1, 9600
2, 724800, Pitch_bend_c, 1, 9600
2, 725280, Pitch_bend_c, 1, 9600
2, 725280, Pitch_bend_c, 1, 8192
2, 725280, Note_off_c, 1, 74, 95
2, 725280, Note_on_c, 0, 76, 95
2, 725760, Note_off_c, 0, 76, 95
2, 725760, Pitch_bend_c, 1, 8192
2, 725760, Note_on_c, 1, 74, 95
2, 725803, Pitch_bend_c, 1, 8320
2, 725846, Pitch_bend_c, 1, 8448
2, 725889, Pitch_bend_c, 1, 8576
2, 725932, Pitch_bend_c, 1, 8704
2, 725975, Pitch_bend_c, 1, 8832
2, 726018, Pitch_bend_c, 1, 8960
2, 726061, Pitch_bend_c, 1, 9088
2, 726104, Pitch_bend_c, 1, 9216
2, 726147, Pitch_bend_c, 1, 9344
2, 726190, Pitch_bend_c, 1, 9472
2, 726233, Pitch_bend_c, 1, 9600
2, 726240, Pitch_bend_c, 1, 9600
2, 726720, Pitch_bend_c, 1, 9600
2, 726720, Pitch_bend_c, 1, 8192
2, 726720, Note_off_c, 1, 74, 95
2, 726720, Note_on_c, 0, 76, 95
2, 727200, Note_off_c, 0, 76, 95
2, 727200, Pitch_bend_c, 1, 8192
2, 727200, Note_on_c, 1, 74, 95
2, 727243, Pitch_bend_c, 1, 8320
2, 727286, Pitch_bend_c, 1, 8448
2, 727329, Pitch_bend_c, 1, 8576
2, 727372, Pitch_bend_c, 1, 8704
2, 727415, Pitch_bend_c, 1, 8832
2, 727458, Pitch_bend_c, 1, 8960
2, 727501, Pitch_bend_c, 1, 9088
2, 727544, Pitch_bend_c, 1, 9216
2, 727587, Pitch_bend_c, 1, 9344
2, 727630, Pitch_bend_c, 1, 9472
2, 727673, Pitch_bend_c, 1, 9600
2, 727680, Pitch_bend_c, 1, 9600
2, 728160, Pitch_bend_c, 1, 9600
2, 728160, Pitch_bend_c, 1, 8192
2, 728160, Note_off_c, 1, 74, 95
2, 728160, Note_on_c, 0, 76, 95
2, 728640, Note_off_c, 0, 76, 95
2, 728640, Pitch_bend_c, 1, 8192
2, 728640, Note_on_c, 1, 74, 95
2, 728683, Pitch_bend_c, 1, 8320
2, 728726, Pitch_bend_c, 1, 8448
2, 728769, Pitch_bend_c, 1, 8576
2, 728812, Pitch_bend_c, 1, 8704
2, 728855, Pitch_bend_c, 1, 8832
2, 728898, Pitch_bend_c, 1, 8960
2, 728941, Pitch_bend_c, 1, 9088
2, 728984, Pitch_bend_c, 1, 9216
2, 729027, Pitch_bend_c, 1, 9344
2, 729070, Pitch_bend_c, 1, 9472
2, 729113, Pitch_bend_c, 1, 9600
2, 729120, Pitch_bend_c, 1, 9600
2, 729600, Pitch_bend_c, 1, 9600
2, 729600, Pitch_bend_c, 1, 8192
2, 729600, Note_off_c, 1, 74, 95
2, 729600, Note_on_c, 0, 76, 95
2, 730080, Note_off_c, 0, 76, 95
2, 730080, Pitch_bend_c, 1, 8192
2, 730080, Note_on_c, 1, 74, 95
2, 730123, Pitch_bend_c, 1, 8320
2, 730166, Pitch_bend_c, 1, 8448
2, 730209, Pitch_bend_c, 1, 8576
2, 730252, Pitch_bend_c, 1, 8704
2, 730295, Pitch_bend_c, 1, 8832
2, 730338, Pitch_bend_c, 1, 8960
2, 730381, Pitch_bend_c, 1, 9088
2, 730424, Pitch_bend_c, 1, 9216
2, 730467, Pitch_bend_c, 1, 9344
2, 730510, Pitch_bend_c, 1, 9472
2, 730553, Pitch_bend_c, 1, 9600
2, 730560, Pitch_bend_c, 1, 9600
2, 731040, Pitch_bend_c, 1, 9600
2, 731040, Pitch_bend_c, 1, 8192
2, 731040, Note_off_c, 1, 74, 95
2, 731040, Note_on_c, 0, 76, 95
2, 731520, Note_off_c, 0, 76, 95
2, 731520, Note_on_c, 0, 79, 95
2, 731760, Note_off_c, 0, 79, 95
2, 731760, Note_on_c, 0, 76, 70
2, 732000, Note_off_c, 0, 76, 70
2, 732000, Note_on_c, 0, 74, 95
2, 732480, Note_off_c, 0, 74, 95
2, 732480, Note_on_c, 0, 79, 95
2, 732720, Note_off_c, 0, 79, 95
2, 732720, Note_on_c, 0, 76, 70
2, 732960, Note_off_c, 0, 76, 70
2, 732960, Note_on_c, 0, 74, 95
2, 733440, Note_off_c, 0, 74, 95
2, 733440, Note_on_c, 0, 79, 95
2, 733680, Note_off_c, 0, 79, 95
2, 733680, Note_on_c, 0, 76, 70
2, 733920, Note_off_c, 0, 76, 70
2, 733920, Note_on_c, 0, 74, 95
2, 734400, Note_off_c, 0, 74, 95
2, 734400, Note_on_c, 0, 79, 95
2, 734640, Note_off_c, 0, 79, 95
2, 734640, Note_on_c, 0, 76, 70
2, 734880, Note_off_c, 0, 76, 70
2, 734880, Note_on_c, 0, 74, 95
2, 735360, Note_off_c, 0, 74, 95
2, 735360, Note_on_c, 0, 79, 95
2, 735600, Note_off_c, 0, 79, 95
2, 735600, Note_on_c, 0, 76, 70
2, 735840, Note_off_c, 0, 76, 70
2, 735840, Note_on_c, 0, 74, 95
2, 736320, Note_off_c, 0, 74, 95
2, 737280, Pitch_bend_c, 1, 8192
2, 737280, Note_on_c, 1, 79, 95
2, 737323, Pitch_bend_c, 1, 8320
2, 737366, Pitch_bend_c, 1, 8448
2, 737409, Pitch_bend_c, 1, 8576
2, 737452, Pitch_bend_c, 1, 8704
2, 737495, Pitch_bend_c, 1, 8832
2, 737538, Pitch_bend_c, 1, 8960
2, 737581, Pitch_bend_c, 1, 9088
2, 737624, Pitch_bend_c, 1, 9216
2, 737667, Pitch_bend_c, 1, 9344
2, 737710, Pitch_bend_c, 1, 9472
2, 737753, Pitch_bend_c, 1, 9600
2, 737760, Pitch_bend_c, 1, 9600
2, 738240, Pitch_bend_c, 1, 9600
2, 738283, Pitch_bend_c, 1, 9472
2, 738326, Pitch_bend_c, 1, 9344
2, 738369, Pitch_bend_c, 1, 9216
2, 738412, Pitch_bend_c, 1, 9088
2, 738455, Pitch_bend_c, 1, 8960
2, 738498, Pitch_bend_c, 1, 8832
2, 738541, Pitch_bend_c, 1, 8704
2, 738584, Pitch_bend_c, 1, 8576
2, 738627, Pitch_bend_c, 1, 8448
2, 738670, Pitch_bend_c, 1, 8320
2, 738713, Pitch_bend_c, 1, 8192
2, 738720, Pitch_bend_c, 1, 8192
2, 739200, Pitch_bend_c, 1, 8192
2, 739200, Pitch_bend_c, 1, 8192
2, 739200, Note_off_c, 1, 79, 95
2, 739200, Note_on_c, 0, 79, 47
2, 740160, Note_off_c, 0, 79, 47
2, 740160, Note_on_c, 0, 76, 95
2, 740640, Note_off_c, 0, 76, 95
2, 740640, Note_on_c, 0, 74, 95
2, 741120, Note_off_c, 0, 74, 95
2, 741120, Note_on_c, 0, 76, 95
2, 741600, Note_off_c, 0, 76, 95
2, 741600, Pitch_bend_c, 1, 8192
2, 741600, Note_on_c, 1, 74, 95
2, 741621, Pitch_bend_c, 1, 8320
2, 741642, Pitch_bend_c, 1, 8448
2, 741663, Pitch_bend_c, 1, 8576
2, 741684, Pitch_bend_c, 1, 8704
2, 741705, Pitch_bend_c, 1, 8832
2, 741726, Pitch_bend_c, 1, 8960
2, 741747, Pitch_bend_c, 1, 9088
2, 741768, Pitch_bend_c, 1, 9216
2, 741789, Pitch_bend_c, 1, 9344
2, 741810, Pitch_bend_c, 1, 9472
2, 741831, Pitch_bend_c, 1, 9600
2, 741840, Pitch_bend_c, 1, 9600
2, 742080, Pitch_bend_c, 1, 9600
2, 742080, Pitch_bend_c, 1, 8192
2, 742080, Note_off_c, 1, 74, 95
2, 742080, Note_on_c, 1, 74, 47
2, 742240, Pitch_bend_c, 1, 8192
2, 742400, Pitch_bend_c, 1, 8320
2, 742560, Pitch_bend_c, 1, 8192
2, 742720, Pitch_bend_c, 1, 8320
2, 742880, Pitch_bend_c, 1, 8192
2, 743040, Pitch_bend_c, 1, 8320
2, 743040, Pitch_bend_c, 1, 8192
2, 743040, Note_off_c, 1, 74, 47
2, 743040, Note_on_c, 0, 76, 95
2, 743520, Note_off_c, 0, 76, 95
2, 743520, Note_on_c, 0, 71, 95
2, 744000, Note_off_c, 0, 71, 95
2, 744000, Note_on_c, 0, 73, 95
2, 744480, Note_off_c, 0, 73, 95
2, 744480, Note_on_c, 0, 69, 95
2, 744960, Note_off_c, 0, 69, 95
2, 744960, Note_on_c, 0, 69, 95
2, 745440, Note_off_c, 0, 69, 95
2, 745440, Pitch_bend_c, 1, 8192
2, 745440, Note_on_c, 1, 69, 95
2, 745443, Pitch_bend_c, 1, 8320
2, 745446, Pitch_bend_c, 1, 8448
2, 745449, Pitch_bend_c, 1, 8576
2, 745452, Pitch_bend_c, 1, 8704
2, 745455, Pitch_bend_c, 1, 8832
2, 745458, Pitch_bend_c, 1, 8960
2, 745461, Pitch_bend_c, 1, 9088
2, 745464, Pitch_bend_c, 1, 9216
2, 745467, Pitch_bend_c, 1, 9344
2, 745470, Pitch_bend_c, 1, 9472
2, 745473, Pitch_bend_c, 1, 9600
2, 745480, Pitch_bend_c, 1, 9600
2, 745520, Pitch_bend_c, 1, 9600
2, 745523, Pitch_bend_c, 1, 9472
2, 745526, Pitch_bend_c, 1, 9344
2, 745529, Pitch_bend_c, 1, 9216
2, 745532, Pitch_bend_c, 1, 9088
2, 745535, Pitch_bend_c, 1, 8960
2, 745538, Pitch_bend_c, 1, 8832
2, 745541, Pitch_bend_c, 1, 8704
2, 745544, Pitch_bend_c, 1, 8576
2, 745547, Pitch_bend_c, 1, 8448
2, 745550, Pitch_bend_c, 1, 8320
2, 745553, Pitch_bend_c, 1, 8192
2, 745560, Pitch_bend_c, 1, 8192
2, 745600, Pitch_bend_c, 1, 8192
2, 745600, Pitch_bend_c, 1, 8192
2, 745600, Note_off_c, 1, 69, 95
2, 745600, Note_on_c, 0, 69, 47
2, 745760, Note_off_c, 0, 69, 47
2, 745760, Note_on_c, 0, 67, 95
2, 745920, Note_off_c, 0, 67, 95
2, 745920, Note_on_c, 0, 64, 95
2, 746880, Note_off_c, 0, 64, 95
2, 746880, Pitch_bend_c, 1, 8192
2, 746880, Note_on_c, 1, 67, 95
2, 747120, Pitch_bend_c, 1, 8320
2, 747360, Pitch_bend_c, 1, 8448
2, 747360, Pitch_bend_c, 1, 8448
2, 747840, Pitch_bend_c, 1, 8448
2, 747840, Pitch_bend_c, 1, 8192
2, 747840, Note_off_c, 1, 67, 95
2, 747840, Note_on_c, 0, 64, 95
2, 749280, Note_off_c, 0, 64, 95
2, 749280, Pitch_bend_c, 1, 8192
2, 749280, Note_on_c, 1, 69, 95
2, 749301, Pitch_bend_c, 1, 8320
2, 749322, Pitch_bend_c, 1, 8448
2, 749343, Pitch_bend_c, 1, 8576
2, 749364, Pitch_bend_c, 1, 8704
2, 749385, Pitch_bend_c, 1, 8832
2, 749406, Pitch_bend_c, 1, 8960
2, 749427, Pitch_bend_c, 1, 9088
2, 749448, Pitch_bend_c, 1, 9216
2, 749469, Pitch_bend_c, 1, 9344
2, 749490, Pitch_bend_c, 1, 9472
2, 749511, Pitch_bend_c, 1, 9600
2, 749520, Pitch_bend_c, 1, 9600
2, 749760, Pitch_bend_c, 1, 9600
2, 749760, Pitch_bend_c, 1, 8192
2, 749760, Note_off_c, 1, 69, 95
2, 749760, Note_on_c, 0, 71, 95
2, 750240, Note_off_c, 0, 71, 95
2, 750240, Note_on_c, 0, 76, 95
2, 750720, Note_off_c, 0, 76, 95
2, 750720, Pitch_bend_c, 1, 8192
2, 750720, Note_on_c, 1, 69, 95
2, 750741, Pitch_bend_c, 1, 8320
2, 750762, Pitch_bend_c, 1, 8448
2, 750783, Pitch_bend_c, 1, 8576
2, 750804, Pitch_bend_c, 1, 8704
2, 750825, Pitch_bend_c, 1, 8832
2, 750846, Pitch_bend_c, 1, 8960
2, 750867, Pitch_bend_c, 1, 9088
2, 750888, Pitch_bend_c, 1, 9216
2, 750909, Pitch_bend_c, 1, 9344
2, 750930, Pitch_bend_c, 1, 9472
2, 750951, Pitch_bend_c, 1, 9600
2, 750960, Pitch_bend_c, 1, 9600
2, 751200, Pitch_bend_c, 1, 9600
2, 751200, Pitch_bend_c, 1, 8192
2, 751200, Note_off_c, 1, 69, 95
2, 751200, Note_on_c, 0, 71, 95
2, 751680, Note_off_c, 0, 71, 95
2, 751680, Note_on_c, 0, 76, 95
2, 752160, Note_off_c, 0, 76, 95
2, 752160, Pitch_bend_c, 1, 8192
2, 752160, Note_on_c, 1, 69, 95
2, 752181, Pitch_bend_c, 1, 8320
2, 752202, Pitch_bend_c, 1, 8448
2, 752223, Pitch_bend_c, 1, 8576
2, 752244, Pitch_bend_c, 1, 8704
2, 752265, Pitch_bend_c, 1, 8832
2, 752286, Pitch_bend_c, 1, 8960
2, 752307, Pitch_bend_c, 1, 9088
2, 752328, Pitch_bend_c, 1, 9216
2, 752349, Pitch_bend_c, 1, 9344
2, 752370, Pitch_bend_c, 1, 9472
2, 752391, Pitch_bend_c, 1, 9600
2, 752400, Pitch_bend_c, 1, 9600
2, 752640, Pitch_bend_c, 1, 9600
2, 752640, Pitch_bend_c, 1, 8192
2, 752640, Note_off_c, 1, 69, 95
2, 752640, Note_on_c, 0, 71, 95
2, 753120, Note_off_c, 0, 71, 95
2, 753120, Note_on_c, 0, 76, 95
2, 753600, Note_off_c, 0, 76, 95
2, 753600, Pitch_bend_c, 1, 8192
2, 753600, Note_on_c, 1, 74, 95
2, 753643, Pitch_bend_c, 1, 8320
2, 753686, Pitch_bend_c, 1, 8448
2, 753729, Pitch_bend_c, 1, 8576
2, 753772, Pitch_bend_c, 1, 8704
2, 753815, Pitch_bend_c, 1, 8832
2, 753858, Pitch_bend_c, 1, 8960
2, 753901, Pitch_bend_c, 1, 9088
2, 753944, Pitch_bend_c, 1, 9216
2, 753987, Pitch_bend_c, 1, 9344
2, 754030, Pitch_bend_c, 1, 9472
2, 754073, Pitch_bend_c, 1, 9600
2, 754080, Pitch_bend_c, 1, 9600
2, 754560, Pitch_bend_c, 1, 9600
2, 754560, Pitch_bend_c, 1, 8192
2, 754560, Note_off_c, 1, 74, 95
2, 754560, Note_on_c, 1, 74, 47
2, 754720, Pitch_bend_c, 1, 8192
2, 754880, Pitch_bend_c, 1, 8320
2, 755040, Pitch_bend_c, 1, 8192
2, 755200, Pitch_bend_c, 1, 8320
2, 755360, Pitch_bend_c, 1, 8192
2, 755520, Pitch_bend_c, 1, 8320
2, 755520, Pitch_bend_c, 1, 8192
2, 755520, Note_off_c, 1, 74, 47
2, 755520, Note_on_c, 0, 76, 95
2, 756000, Note_off_c, 0, 76, 95
2, 756000, Note_on_c, 0, 74, 95
2, 756480, Note_off_c, 0, 74, 95
2, 756480, Note_on_c, 0, 76, 95
2, 757440, Note_off_c, 0, 76, 95
2, 757440, Note_on_c, 0, 76, 95
2, 757920, Note_off_c, 0, 76, 95
2, 757920, Note_on_c, 0, 74, 95
2, 758400, Note_off_c, 0, 74, 95
2, 758400, Note_on_c, 0, 76, 95
2, 759360, Note_off_c, 0, 76, 95
2, 760320, Note_on_c, 0, 79, 95
2, 760640, Note_off_c, 0, 79, 95
2, 760640, Note_on_c, 0, 76, 70
2, 760960, Note_off_c, 0, 76, 70
2, 760960, Note_on_c, 0, 71, 95
2, 761280, Note_off_c, 0, 71, 95
2, 761280, Note_on_c, 0, 79, 95
2, 761600, Note_off_c, 0, 79, 95
2, 761600, Note_on_c, 0, 76, 70
2, 761920, Note_off_c, 0, 76, 70
2, 761920, Note_on_c, 0, 71, 95
2, 762240, Note_off_c, 0, 71, 95
2, 762240, Note_on_c, 0, 79, 95
2, 762560, Note_off_c, 0, 79, 95
2, 762560, Note_on_c, 0, 76, 70
2, 762880, Note_off_c, 0, 76, 70
2, 762880, Note_on_c, 0, 71, 95
2, 763200, Note_off_c, 0, 71, 95
2, 763200, Note_on_c, 0, 79, 95
2, 763520, Note_off_c, 0, 79, 95
2, 763520, Note_on_c, 0, 76, 70
2, 763840, Note_off_c, 0, 76, 70
2, 763840, Note_on_c, 0, 71, 95
2, 764160, Note_off_c, 0, 71, 95
2, 764160, Note_on_c, 0, 79, 95
2, 764480, Note_off_c, 0, 79, 95
2, 764480, Note_on_c, 0, 76, 70
2, 764800, Note_off_c, 0, 76, 70
2, 764800, Note_on_c, 0, 71, 95
2, 765120, Note_off_c, 0, 71, 95
2, 765120, Note_on_c, 0, 79, 95
2, 765440, Note_off_c, 0, 79, 95
2, 765440, Note_on_c, 0, 76, 70
2, 765760, Note_off_c, 0, 76, 70
2, 765760, Note_on_c, 0, 71, 95
2, 766080, Note_off_c, 0, 71, 95
2, 766080, Note_on_c, 0, 79, 95
2, 766400, Note_off_c, 0, 79, 95
2, 766400, Note_on_c, 0, 76, 70
2, 766720, Note_off_c, 0, 76, 70
2, 766720, Note_on_c, 0, 71, 95
2, 767040, Note_off_c, 0, 71, 95
2, 767040, Note_on_c, 0, 79, 95
2, 767360, Note_off_c, 0, 79, 95
2, 767360, Note_on_c, 0, 76, 70
2, 767680, Note_off_c, 0, 76, 70
2, 767680, Note_on_c, 0, 71, 95
2, 768000, Note_off_c, 0, 71, 95
2, 768000, Note_on_c, 0, 79, 95
2, 768320, Note_off_c, 0, 79, 95
2, 768320, Note_on_c, 0, 76, 70
2, 768640, Note_off_c, 0, 76, 70
2, 768640, Note_on_c, 0, 71, 95
2, 768960, Note_off_c, 0, 71, 95
2, 768960, Note_on_c, 0, 79, 95
2, 769280, Note_off_c, 0, 79, 95
2, 769280, Note_on_c, 0, 76, 70
2, 769600, Note_off_c, 0, 76, 70
2, 769600, Note_on_c, 0, 71, 95
2, 769920, Note_off_c, 0, 71, 95
2, 769920, Note_on_c, 0, 79, 95
2, 770240, Note_off_c, 0, 79, 95
2, 770240, Note_on_c, 0, 76, 70
2, 770560, Note_off_c, 0, 76, 70
2, 770560, Note_on_c, 0, 71, 95
2, 770880, Note_off_c, 0, 71, 95
2, 770880, Note_on_c, 0, 79, 95
2, 771200, Note_off_c, 0, 79, 95
2, 771200, Note_on_c, 0, 76, 70
2, 771520, Note_off_c, 0, 76, 70
2, 771520, Note_on_c, 0, 71, 95
2, 771840, Note_off_c, 0, 71, 95
2, 771840, Note_on_c, 0, 81, 95
2, 772160, Note_off_c, 0, 81, 95
2, 772160, Note_on_c, 0, 79, 70
2, 772480, Note_off_c, 0, 79, 70
2, 772480, Note_on_c, 0, 74, 95
2, 772800, Note_off_c, 0, 74, 95
2, 772800, Note_on_c, 0, 81, 95
2, 773120, Note_off_c, 0, 81, 95
2, 773120, Note_on_c, 0, 79, 70
2, 773440, Note_off_c, 0, 79, 70
2, 773440, Note_on_c, 0, 74, 95
2, 773760, Note_off_c, 0, 74, 95
2, 773760, Note_on_c, 0, 81, 95
2, 774080, Note_off_c, 0, 81, 95
2, 774080, Note_on_c, 0, 79, 70
2, 774400, Note_off_c, 0, 79, 70
2, 774400, Note_on_c, 0, 74, 95
2, 774720, Note_off_c, 0, 74, 95
2, 774720, Note_on_c, 0, 81, 95
2, 775040, Note_off_c, 0, 81, 95
2, 775040, Note_on_c, 0, 79, 70
2, 775360, Note_off_c, 0, 79, 70
2, 775360, Note_on_c, 0, 74, 95
2, 775680, Note_off_c, 0, 74, 95
2, 775680, Note_on_c, 0, 83, 95
2, 776000, Note_off_c, 0, 83, 95
2, 776000, Note_on_c, 0, 81, 70
2, 776320, Note_off_c, 0, 81, 70
2, 776320, Note_on_c, 0, 76, 95
2, 776640, Note_off_c, 0, 76, 95
2, 776640, Note_on_c, 0, 83, 95
2, 776960, Note_off_c, 0, 83, 95
2, 776960, Note_on_c, 0, 81, 70
2, 777280, Note_off_c, 0, 81, 70
2, 777280, Note_on_c, 0, 76, 95
2, 777600, Note_off_c, 0, 76, 95
2, 777600, Note_on_c, 0, 83, 95
2, 777920, Note_off_c, 0, 83, 95
2, 777920, Note_on_c, 0, 81, 70
2, 778240, Note_off_c, 0, 81, 70
2, 778240, Note_on_c, 0, 76, 95
2, 778560, Note_off_c, 0, 76, 95
2, 778560, Note_on_c, 0, 83, 95
2, 778880, Note_off_c, 0, 83, 95
2, 778880, Note_on_c, 0, 81, 70
2, 779200, Note_off_c, 0, 81, 70
2, 779200, Note_on_c, 0, 76, 95
2, 779520, Note_off_c, 0, 76, 95
2, 779520, Note_on_c, 0, 83, 95
2, 779840, Note_off_c, 0, 83, 95
2, 779840, Note_on_c, 0, 81, 70
2, 780160, Note_off_c, 0, 81, 70
2, 780160, Note_on_c, 0, 76, 95
2, 780480, Note_off_c, 0, 76, 95
2, 780480, Pitch_bend_c, 1, 8192
2, 780480, Note_on_c, 1, 83, 95
2, 780570, Pitch_bend_c, 1, 8320
2, 780660, Pitch_bend_c, 1, 8448
2, 780750, Pitch_bend_c, 1, 8576
2, 780840, Pitch_bend_c, 1, 8704
2, 780930, Pitch_bend_c, 1, 8832
2, 781020, Pitch_bend_c, 1, 8960
2, 781110, Pitch_bend_c, 1, 9088
2, 781200, Pitch_bend_c, 1, 9216
2, 781290, Pitch_bend_c, 1, 9344
2, 781380, Pitch_bend_c, 1, 9472
2, 781470, Pitch_bend_c, 1, 9600
2, 781560, Pitch_bend_c, 1, 9728
2, 781650, Pitch_bend_c, 1, 9856
2, 781740, Pitch_bend_c, 1, 9984
2, 781830, Pitch_bend_c, 1, 10112
2, 781920, Pitch_bend_c, 1, 10240
2, 781920, Pitch_bend_c, 1, 10240
2, 783360, Pitch_bend_c, 1, 10240
2, 783360, Pitch_bend_c, 1, 8192
2, 783360, Note_off_c, 1, 83, 95
2, 783360, Note_on_c, 0, 83, 95
2, 783840, Note_off_c, 0, 83, 95
2, 783840, Note_on_c, 0, 81, 95
2, 784320, Note_off_c, 0, 81, 95
2, 784320, Note_on_c, 0, 79, 95
2, 785280, Note_off_c, 0, 79, 95
2, 785280, Note_on_c, 0, 76, 95
2, 786240, Note_off_c, 0, 76, 95
2, 786240, Note_on_c, 0, 76, 95
2, 786720, Note_off_c, 0, 76, 95
2, 786720, Note_on_c, 0, 74, 95
2, 787200, Note_off_c, 0, 74, 95
2, 787200, Note_on_c, 0, 76, 95
2, 788160, Note_off_c, 0, 76, 95
2, 788160, Note_on_c, 0, 76, 95
2, 789120, Note_off_c, 0, 76, 95
2, 789120, Note_on_c, 0, 74, 95
2, 789600, Note_off_c, 0, 74, 95
2, 789600, Note_on_c, 0, 76, 95
2, 790080, Note_off_c, 0, 76, 95
2, 790080, Note_on_c, 0, 76, 95
2, 790560, Note_off_c, 0, 76, 95
2, 790560, Pitch_bend_c, 1, 8192
2, 790560, Note_on_c, 1, 74, 95
2, 790581, Pitch_bend_c, 1, 8320
2, 790602, Pitch_bend_c, 1, 8448
2, 790623, Pitch_bend_c, 1, 8576
2, 790644, Pitch_bend_c, 1, 8704
2, 790665, Pitch_bend_c, 1, 8832
2, 790686, Pitch_bend_c, 1, 8960
2, 790707, Pitch_bend_c, 1, 9088
2, 790728, Pitch_bend_c, 1, 9216
2, 790749, Pitch_bend_c, 1, 9344
2, 790770, Pitch_bend_c, 1, 9472
2, 790791, Pitch_bend_c, 1, 9600
2, 790800, Pitch_bend_c, 1, 9600
2, 791040, Pitch_bend_c, 1, 9600
2, 791040, Pitch_bend_c, 1, 8192
2, 791040, Note_off_c, 1, 74, 95
2, 791040, Note_on_c, 0, 74, 47
2, 791520, Note_off_c, 0, 74, 47
2, 791520, Note_on_c, 0, 76, 95
2, 792000, Note_off_c, 0, 76, 95
2, 792000, Pitch_bend_c, 1, 8192
2, 792000, Note_on_c, 1, 74, 95
2, 792043, Pitch_bend_c, 1, 8320
2, 792086, Pitch_bend_c, 1, 8448
2, 792129, Pitch_bend_c, 1, 8576
2, 792172, Pitch_bend_c, 1, 8704
2, 792215, Pitch_bend_c, 1, 8832
2, 792258, Pitch_bend_c, 1, 8960
2, 792301, Pitch_bend_c, 1, 9088
2, 792344, Pitch_bend_c, 1, 9216
2, 792387, Pitch_bend_c, 1, 9344
2, 792430, Pitch_bend_c, 1, 9472
2, 792473, Pitch_bend_c, 1, 9600
2, 792480, Pitch_bend_c, 1, 9600
2, 792960, Pitch_bend_c, 1, 9600
2, 792960, Pitch_bend_c, 1, 8192
2, 792960, Note_off_c, 1, 74, 95
2, 792960, Note_on_c, 0, 76, 95
2, 793440, Note_off_c, 0, 76, 95
2, 793440, Pitch_bend_c, 1, 8192
2, 793440, Note_on_c, 1, 74, 95
2, 793483, Pitch_bend_c, 1, 8320
2, 793526, Pitch_bend_c, 1, 8448
2, 793569, Pitch_bend_c, 1, 8576
2, 793612, Pitch_bend_c, 1, 8704
2, 793655, Pitch_bend_c, 1, 8832
2, 793698, Pitch_bend_c, 1, 8960
2, 793741, Pitch_bend_c, 1, 9088
2, 793784, Pitch_bend_c, 1, 9216
2, 793827, Pitch_bend_c, 1, 9344
2, 793870, Pitch_bend_c, 1, 9472
2, 793913, Pitch_bend_c, 1, 9600
2, 793920, Pitch_bend_c, 1, 9600
2, 794400, Pitch_bend_c, 1, 9600
2, 794400, Pitch_bend_c, 1, 8192
2, 794400, Note_off_c, 1, 74, 95
2, 794400, Note_on_c, 0, 76, 95
2, 794880, Note_off_c, 0, 76, 95
2, 794880, Pitch_bend_c, 1, 8192
2, 794880, Note_on_c, 1, 79, 95
2, 794901, Pitch_bend_c, 1, 8320
2, 794922, Pitch_bend_c, 1, 8448
2, 794943, Pitch_bend_c, 1, 8576
2, 794964, Pitch_bend_c, 1, 8704
2, 794985, Pitch_bend_c, 1, 8832
2, 795006, Pitch_bend_c, 1, 8960
2, 795027, Pitch_bend_c, 1, 9088
2, 795048, Pitch_bend_c, 1, 9216
2, 795069, Pitch_bend_c, 1, 9344
2, 795090, Pitch_bend_c, 1, 9472
2, 795111, Pitch_bend_c, 1, 9600
2, 795120, Pitch_bend_c, 1, 9600
2, 795360, Pitch_bend_c, 1, 9600
2, 795381, Pitch_bend_c, 1, 9472
2, 795402, Pitch_bend_c, 1, 9344
2, 795423, Pitch_bend_c, 1, 9216
2, 795444, Pitch_bend_c, 1, 9088
2, 795465, Pitch_bend_c, 1, 8960
2, 795486, Pitch_bend_c, 1, 8832
2, 795507, Pitch_bend_c, 1, 8704
2, 795528, Pitch_bend_c, 1, 8576
2, 795549, Pitch_bend_c, 1, 8448
2, 795570, Pitch_bend_c, 1, 8320
2, 795591, Pitch_bend_c, 1, 8192
2, 795600, Pitch_bend_c, 1, 8192
2, 795840, Pitch_bend_c, 1, 8192
2, 795840, Pitch_bend_c, 1, 8192
2, 795840, Note_off_c, 1, 79, 95
2, 795840, Note_on_c, 0, 79, 47
2, 796800, Note_off_c, 0, 79, 47
2, 796800, Note_on_c, 1, 76, 95
2, 797760, Note_off_c, 1, 76, 95
2, 798720, Note_on_c, 0, 67, 95
2, 798720, Note_on_c, 0, 64, 95
2, 799680, Note_off_c, 0, 67, 95
2, 799680, Note_off_c, 0, 64, 95
2, 799680, Note_on_c, 0, 67, 95
2, 799680, Note_on_c, 0, 64, 95
2, 800640, Note_off_c, 0, 67, 95
2, 800640, Note_off_c, 0, 64, 95
2, 800640, Note_on_c, 0, 64, 95
2, 801600, Note_off_c, 0, 64, 95
2, 801600, Note_on_c, 0, 64, 95
2, 802560, Note_off_c, 0, 64, 95
2, 802560, Note_on_c, 0, 64, 95
2, 803280, Note_off_c, 0, 64, 95
2, 803280, Note_on_c, 0, 67, 95
2, 803520, Note_off_c, 0, 67, 95
2, 803520, Note_on_c, 1, 64, 95
2, 803640, Pitch_bend_c, 1, 7680
2, 803760, Pitch_bend_c, 1, 7168
2, 803880, Pitch_bend_c, 1, 6656
2, 804000, Pitch_bend_c, 1, 6144
2, 804000, Pitch_bend_c, 1, 8192
2, 804000, Note_off_c, 1, 64, 95
2, 804000, Note_on_c, 0, 61, 95
2, 804480, Note_off_c, 0, 61, 95
2, 804480, Note_on_c, 0, 59, 95
2, 804960, Note_off_c, 0, 59, 95
2, 804960, Note_on_c, 0, 57, 95
2, 805320, Note_on_c, 1, 59, 95
2, 805440, Note_off_c, 0, 57, 95
2, 805440, Note_off_c, 1, 59, 95
2, 805440, Note_on_c, 1, 57, 95
2, 806400, Note_off_c, 1, 57, 95
2, 806400, Pitch_bend_c, 1, 8192
2, 806400, Note_on_c, 1, 55, 95
2, 806640, Pitch_bend_c, 1, 8320
2, 806880, Pitch_bend_c, 1, 8448
2, 806880, Pitch_bend_c, 1, 8448
2, 807360, Pitch_bend_c, 1, 8448
2, 807360, Pitch_bend_c, 1, 8192
2, 807360, Note_off_c, 1, 55, 95
2, 807360, Note_on_c, 1, 52, 95
2, 808320, Note_off_c, 1, 52, 95
2, 808320, Note_on_c, 0, 52, 95
2, 809280, Note_off_c, 0, 52, 95
2, 809280, Note_on_c, 0, 52, 95
2, 809760, Note_off_c, 0, 52, 95
2, 809760, Note_on_c, 0, 52, 95
2, 810240, Note_off_c, 0, 52, 95
2, 810240, Note_on_c, 0, 52, 95
2, 810720, Note_off_c, 0, 52, 95
2, 810720, Note_on_c, 0, 62, 95
2, 810720, Note_on_c, 0, 57, 95
2, 811200, Note_off_c, 0, 62, 95
2, 811200, Note_off_c, 0, 57, 95
2, 811200, Note_on_c, 0, 62, 95
2, 811200, Note_on_c, 0, 57, 95
2, 811680, Note_off_c, 0, 62, 95
2, 811680, Note_off_c, 0, 57, 95
2, 811680, Note_on_c, 0, 62, 95
2, 811680, Note_on_c, 0, 57, 95
2, 812160, Note_off_c, 0, 62, 95
2, 812160, Note_off_c, 0, 57, 95
2, 812160, Note_on_c, 0, 62, 95
2, 812160, Note_on_c, 0, 57, 95
2, 812640, Note_off_c, 0, 62, 95
2, 812640, Note_off_c, 0, 57, 95
2, 812640, Note_on_c, 0, 62, 95
2, 812640, Note_on_c, 0, 57, 95
2, 813120, Note_off_c, 0, 62, 95
2, 813120, Note_off_c, 0, 57, 95
2, 813120, Note_on_c, 0, 62, 95
2, 813120, Note_on_c, 0, 57, 95
2, 813600, Note_off_c, 0, 62, 95
2, 813600, Note_off_c, 0, 57, 95
2, 813600, Note_on_c, 0, 62, 95
2, 813600, Note_on_c, 0, 57, 95
2, 814080, Note_off_c, 0, 62, 95
2, 814080, Note_off_c, 0, 57, 95
2, 814080, Note_on_c, 0, 62, 95
2, 814080, Note_on_c, 0, 59, 95
2, 814920, Note_on_c, 1, 57, 95
2, 815040, Note_off_c, 0, 62, 95
2, 815040, Note_off_c, 0, 59, 95
2, 815040, Note_off_c, 1, 57, 95
2, 815040, Note_on_c, 1, 58, 95
2, 815520, Note_off_c, 1, 58, 95
2, 815520, Note_on_c, 0, 62, 95
2, 816000, Note_off_c, 0, 62, 95
2, 816000, Note_on_c, 0, 62, 95
2, 816360, Note_on_c, 1, 57, 95
2, 816480, Note_off_c, 0, 62, 95
2, 816480, Note_off_c, 1, 57, 95
2, 816480, Note_on_c, 1, 58, 95
2, 816960, Note_off_c, 1, 58, 95
2, 816960, Note_on_c, 0, 62, 95
2, 817440, Note_off_c, 0, 62, 95
2, 817440, Note_on_c, 0, 62, 95
2, 817920, Note_off_c, 0, 62, 95
2, 817920, Note_on_c, 0, 67, 95
2, 818400, Note_off_c, 0, 67, 95
2, 818400, Note_on_c, 0, 64, 95
2, 818760, Note_on_c, 1, 59, 95
2, 818880, Note_off_c, 0, 64, 95
2, 818880, Note_off_c, 1, 59, 95
2, 818880, Note_on_c, 1, 57, 95
2, 819840, Note_off_c, 1, 57, 95
2, 819840, Note_on_c, 0, 55, 95
2, 820800, Note_off_c, 0, 55, 95
2, 820800, Note_on_c, 0, 57, 95
2, 821280, Note_off_c, 0, 57, 95
2, 821280, Note_on_c, 0, 55, 95
2, 821760, Note_off_c, 0, 55, 95
2, 821760, Note_on_c, 0, 52, 95
2, 822720, Note_off_c, 0, 52, 95
2, 822720, Note_on_c, 0, 52, 95
2, 823680, Note_off_c, 0, 52, 95
2, 823680, Pitch_bend_c, 1, 8192
2, 823680, Note_on_c, 1, 55, 95
2, 823920, Pitch_bend_c, 1, 8320
2, 824160, Pitch_bend_c, 1, 8448
2, 824160, Pitch_bend_c, 1, 8448
2, 824640, Pitch_bend_c, 1, 8448
2, 824640, Pitch_bend_c, 1, 8192
2, 824640, Note_off_c, 1, 55, 95
2, 825600, Note_on_c, 0, 64, 95
2, 826560, Note_off_c, 0, 64, 95
2, 826560, Note_on_c, 0, 67, 95
2, 827040, Note_off_c, 0, 67, 95
2, 827040, Note_on_c, 0, 64, 95
2, 827520, Note_off_c, 0, 64, 95
2, 827520, Pitch_bend_c, 1, 8192
2, 827520, Note_on_c, 1, 69, 95
2, 827563, Pitch_bend_c, 1, 8320
2, 827606, Pitch_bend_c, 1, 8448
2, 827649, Pitch_bend_c, 1, 8576
2, 827692, Pitch_bend_c, 1, 8704
2, 827735, Pitch_bend_c, 1, 8832
2, 827778, Pitch_bend_c, 1, 8960
2, 827821, Pitch_bend_c, 1, 9088
2, 827864, Pitch_bend_c, 1, 9216
2, 827907, Pitch_bend_c, 1, 9344
2, 827950, Pitch_bend_c, 1, 9472
2, 827993, Pitch_bend_c, 1, 9600
2, 828000, Pitch_bend_c, 1, 9600
2, 828480, Pitch_bend_c, 1, 9600
2, 828480, Pitch_bend_c, 1, 8192
2, 828480, Note_off_c, 1, 69, 95
2, 828480, Pitch_bend_c, 1, 8192
2, 828480, Note_on_c, 1, 69, 95
2, 828523, Pitch_bend_c, 1, 8320
2, 828566, Pitch_bend_c, 1, 8448
2, 828609, Pitch_bend_c, 1, 8576
2, 828652, Pitch_bend_c, 1, 8704
2, 828695, Pitch_bend_c, 1, 8832
2, 828738, Pitch_bend_c, 1, 8960
2, 828781, Pitch_bend_c, 1, 9088
2, 828824, Pitch_bend_c, 1, 9216
2, 828867, Pitch_bend_c, 1, 9344
2, 828910, Pitch_bend_c, 1, 9472
2, 828953, Pitch_bend_c, 1, 9600
2, 828960, Pitch_bend_c, 1, 9600
2, 829440, Pitch_bend_c, 1, 9600
2, 829440, Pitch_bend_c, 1, 8192
2, 829440, Note_off_c, 1, 69, 95
2, 829440, Note_on_c, 0, 67, 95
2, 829920, Note_off_c, 0, 67, 95
2, 829920, Note_on_c, 0, 69, 95
2, 830400, Note_off_c, 0, 69, 95
2, 830400, Note_on_c, 0, 71, 95
2, 830880, Note_off_c, 0, 71, 95
2, 830880, Note_on_c, 0, 74, 95
2, 831360, Note_off_c, 0, 74, 95
2, 831360, Note_on_c, 0, 64, 95
2, 832320, Note_off_c, 0, 64, 95
2, 832320, Note_on_c, 0, 64, 95
2, 833280, Note_off_c, 0, 64, 95
2, 833760, Note_on_c, 0, 64, 95
2, 834240, Note_off_c, 0, 64, 95
2, 834240, Note_on_c, 0, 67, 95
2, 834720, Note_off_c, 0, 67, 95
2, 834720, Note_on_c, 0, 64, 95
2, 835200, Note_off_c, 0, 64, 95
2, 835200, Note_on_c, 0, 69, 95
2, 835680, Note_off_c, 0, 69, 95
2, 835680, Note_on_c, 0, 67, 95
2, 836160, Note_off_c, 0, 67, 95
2, 836160, Note_on_c, 0, 64, 95
2, 837120, Note_off_c, 0, 64, 95
2, 837120, Note_on_c, 0, 64, 95
2, 838080, Note_off_c, 0, 64, 95
2, 838080, Note_on_c, 0, 67, 95
2, 839040, Note_off_c, 0, 67, 95
2, 839040, Note_on_c, 0, 67, 95
2, 840000, Note_off_c, 0, 67, 95
2, 841920, Note_on_c, 0, 67, 95
2, 842080, Note_off_c, 0, 67, 95
2, 842080, Note_on_c, 0, 69, 70
2, 842240, Note_off_c, 0, 69, 70
2, 842240, Note_on_c, 0, 71, 95
2, 842400, Note_off_c, 0, 71, 95
2, 842400, Note_on_c, 0, 69, 95
2, 842560, Note_off_c, 0, 69, 95
2, 842560, Note_on_c, 0, 67, 95
2, 842720, Note_off_c, 0, 67, 95
2, 842720, Note_on_c, 0, 68, 95
2, 842880, Note_off_c, 0, 68, 95
2, 844800, Note_on_c, 0, 67, 95
2, 845040, Note_off_c, 0, 67, 95
2, 845040, Note_on_c, 0, 69, 70
2, 845280, Note_off_c, 0, 69, 70
2, 845280, Note_on_c, 0, 71, 95
2, 845760, Note_off_c, 0, 71, 95
2, 852480, Note_on_c, 0, 67, 95
2, 852800, Note_off_c, 0, 67, 95
2, 852800, Note_on_c, 0, 69, 95
2, 853120, Note_off_c, 0, 69, 95
2, 853120, Note_on_c, 0, 72, 95
2, 853440, Note_off_c, 0, 72, 95
2, 853440, Note_on_c, 0, 69, 95
2, 853920, Note_off_c, 0, 69, 95
2, 853920, Note_on_c, 0, 67, 95
2, 854400, Note_off_c, 0, 67, 95
2, 856320, Note_on_c, 0, 67, 95
2, 856640, Note_off_c, 0, 67, 95
2, 856640, Note_on_c, 0, 69, 70
2, 856960, Note_off_c, 0, 69, 70
2, 856960, Note_on_c, 0, 71, 95
2, 857280, Note_off_c, 0, 71, 95
2, 857280, Note_on_c, 0, 67, 95
2, 857600, Note_off_c, 0, 67, 95
2, 857600, Note_on_c, 0, 69, 70
2, 857920, Note_off_c, 0, 69, 70
2, 857920, Note_on_c, 0, 64, 95
2, 858240, Note_off_c, 0, 64, 95
2, 858240, Note_on_c, 0, 67, 95
2, 858560, Note_off_c, 0, 67, 95
2, 858560, Note_on_c, 0, 69, 70
2, 858880, Note_off_c, 0, 69, 70
2, 858880, Note_on_c, 0, 71, 95
2, 859200, Note_off_c, 0, 71, 95
2, 859200, Note_on_c, 0, 67, 95
2, 859520, Note_off_c, 0, 67, 95
2, 859520, Note_on_c, 0, 69, 70
2, 859840, Note_off_c, 0, 69, 70
2, 859840, Note_on_c, 0, 64, 95
2, 860160, Note_off_c, 0, 64, 95
2, 860160, Note_on_c, 0, 67, 95
2, 860480, Note_off_c, 0, 67, 95
2, 860480, Note_on_c, 0, 69, 70
2, 860800, Note_off_c, 0, 69, 70
2, 860800, Note_on_c, 0, 71, 95
2, 861120, Note_off_c, 0, 71, 95
2, 861120, Note_on_c, 0, 67, 95
2, 861440, Note_off_c, 0, 67, 95
2, 861440, Note_on_c, 0, 69, 70
2, 861760, Note_off_c, 0, 69, 70
2, 861760, Note_on_c, 0, 64, 95
2, 862080, Note_off_c, 0, 64, 95
2, 862080, Note_on_c, 0, 67, 95
2, 862400, Note_off_c, 0, 67, 95
2, 862400, Note_on_c, 0, 69, 70
2, 862720, Note_off_c, 0, 69, 70
2, 862720, Note_on_c, 0, 71, 95
2, 863040, Note_off_c, 0, 71, 95
2, 863040, Note_on_c, 0, 67, 95
2, 863360, Note_off_c, 0, 67, 95
2, 863360, Note_on_c, 0, 69, 70
2, 863680, Note_off_c, 0, 69, 70
2, 863680, Note_on_c, 0, 64, 95
2, 864000, Note_off_c, 0, 64, 95
2, 864000, Note_on_c, 0, 67, 95
2, 864320, Note_off_c, 0, 67, 95
2, 864320, Note_on_c, 0, 69, 70
2, 864640, Note_off_c, 0, 69, 70
2, 864640, Note_on_c, 0, 71, 95
2, 864960, Note_off_c, 0, 71, 95
2, 864960, Note_on_c, 0, 67, 95
2, 865280, Note_off_c, 0, 67, 95
2, 865280, Note_on_c, 0, 69, 70
2, 865600, Note_off_c, 0, 69, 70
2, 865600, Note_on_c, 0, 64, 95
2, 865920, Note_off_c, 0, 64, 95
2, 865920, Note_on_c, 0, 67, 95
2, 866240, Note_off_c, 0, 67, 95
2, 866240, Note_on_c, 0, 69, 70
2, 866560, Note_off_c, 0, 69, 70
2, 866560, Note_on_c, 0, 71, 95
2, 866880, Note_off_c, 0, 71, 95
2, 866880, Note_on_c, 0, 67, 95
2, 867200, Note_off_c, 0, 67, 95
2, 867200, Note_on_c, 0, 69, 70
2, 867520, Note_off_c, 0, 69, 70
2, 867520, Note_on_c, 0, 64, 95
2, 867840, Note_off_c, 0, 64, 95
2, 867840, Note_on_c, 0, 67, 95
2, 868160, Note_off_c, 0, 67, 95
2, 868160, Note_on_c, 0, 69, 70
2, 868480, Note_off_c, 0, 69, 70
2, 868480, Note_on_c, 0, 71, 95
2, 868800, Note_off_c, 0, 71, 95
2, 868800, Note_on_c, 0, 67, 95
2, 869120, Note_off_c, 0, 67, 95
2, 869120, Note_on_c, 0, 69, 70
2, 869440, Note_off_c, 0, 69, 70
2, 869440, Note_on_c, 0, 64, 95
2, 869760, Note_off_c, 0, 64, 95
2, 869760, Note_on_c, 0, 67, 95
2, 870080, Note_off_c, 0, 67, 95
2, 870080, Note_on_c, 0, 69, 70
2, 870400, Note_off_c, 0, 69, 70
2, 870400, Note_on_c, 0, 71, 95
2, 870720, Note_off_c, 0, 71, 95
2, 870720, Note_on_c, 0, 67, 95
2, 871040, Note_off_c, 0, 67, 95
2, 871040, Note_on_c, 0, 69, 70
2, 871360, Note_off_c, 0, 69, 70
2, 871360, Note_on_c, 0, 64, 95
2, 871680, Note_off_c, 0, 64, 95
2, 871680, Note_on_c, 0, 74, 95
2, 872000, Note_off_c, 0, 74, 95
2, 872000, Note_on_c, 0, 71, 70
2, 872320, Note_off_c, 0, 71, 70
2, 872320, Note_on_c, 0, 67, 95
2, 872640, Note_off_c, 0, 67, 95
2, 872640, Note_on_c, 0, 74, 95
2, 872960, Note_off_c, 0, 74, 95
2, 872960, Note_on_c, 0, 71, 70
2, 873280, Note_off_c, 0, 71, 70
2, 873280, Note_on_c, 0, 67, 95
2, 873600, Note_off_c, 0, 67, 95
2, 873600, Note_on_c, 0, 74, 95
2, 873920, Note_off_c, 0, 74, 95
2, 873920, Note_on_c, 0, 71, 70
2, 874240, Note_off_c, 0, 71, 70
2, 874240, Note_on_c, 0, 67, 95
2, 874560, Note_off_c, 0, 67, 95
2, 874560, Note_on_c, 0, 74, 95
2, 874880, Note_off_c, 0, 74, 95
2, 874880, Note_on_c, 0, 71, 70
2, 875200, Note_off_c, 0, 71, 70
2, 875200, Note_on_c, 0, 67, 95
2, 875520, Note_off_c, 0, 67, 95
2, 875520, Note_on_c, 0, 79, 95
2, 875840, Note_off_c, 0, 79, 95
2, 875840, Note_on_c, 0, 76, 70
2, 876160, Note_off_c, 0, 76, 70
2, 876160, Note_on_c, 0, 71, 95
2, 876480, Note_off_c, 0, 71, 95
2, 876480, Note_on_c, 0, 79, 95
2, 876800, Note_off_c, 0, 79, 95
2, 876800, Note_on_c, 0, 76, 70
2, 877120, Note_off_c, 0, 76, 70
2, 877120, Note_on_c, 0, 71, 95
2, 877440, Note_off_c, 0, 71, 95
2, 877440, Note_on_c, 0, 79, 95
2, 877760, Note_off_c, 0, 79, 95
2, 877760, Note_on_c, 0, 76, 70
2, 878080, Note_off_c, 0, 76, 70
2, 878080, Note_on_c, 0, 71, 95
2, 878400, Note_off_c, 0, 71, 95
2, 878400, Note_on_c, 0, 79, 95
2, 878720, Note_off_c, 0, 79, 95
2, 878720, Note_on_c, 0, 76, 70
2, 879040, Note_off_c, 0, 76, 70
2, 879040, Note_on_c, 0, 71, 95
2, 879360, Note_off_c, 0, 71, 95
2, 879360, Note_on_c, 0, 79, 95
2, 879680, Note_off_c, 0, 79, 95
2, 879680, Note_on_c, 0, 76, 70
2, 880000, Note_off_c, 0, 76, 70
2, 880000, Note_on_c, 0, 71, 95
2, 880320, Note_off_c, 0, 71, 95
2, 880320, Note_on_c, 0, 79, 95
2, 880640, Note_off_c, 0, 79, 95
2, 880640, Note_on_c, 0, 76, 70
2, 880960, Note_off_c, 0, 76, 70
2, 880960, Note_on_c, 0, 71, 95
2, 881280, Note_off_c, 0, 71, 95
2, 881280, Note_on_c, 0, 74, 95
2, 881600, Note_off_c, 0, 74, 95
2, 881600, Note_on_c, 0, 71, 70
2, 881920, Note_off_c, 0, 71, 70
2, 881920, Note_on_c, 0, 67, 95
2, 882240, Note_off_c, 0, 67, 95
2, 882240, Note_on_c, 0, 74, 95
2, 882560, Note_off_c, 0, 74, 95
2, 882560, Note_on_c, 0, 71, 70
2, 882880, Note_off_c, 0, 71, 70
2, 882880, Note_on_c, 0, 67, 95
2, 883200, Note_off_c, 0, 67, 95
2, 883200, Note_on_c, 0, 69, 95
2, 883520, Note_off_c, 0, 69, 95
2, 883520, Note_on_c, 0, 67, 70
2, 883840, Note_off_c, 0, 67, 70
2, 883840, Note_on_c, 0, 69, 95
2, 884160, Note_off_c, 0, 69, 95
2, 884160, Note_on_c, 0, 71, 95
2, 884480, Note_off_c, 0, 71, 95
2, 884480, Note_on_c, 0, 74, 70
2, 884800, Note_off_c, 0, 74, 70
2, 884800, Note_on_c, 0, 71, 70
2, 885120, Note_off_c, 0, 71, 70
2, 885120, Note_on_c, 0, 69, 95
2, 885440, Note_off_c, 0, 69, 95
2, 885440, Note_on_c, 0, 67, 70
2, 885760, Note_off_c, 0, 67, 70
2, 885760, Note_on_c, 0, 64, 95
2, 886080, Note_off_c, 0, 64, 95
2, 886080, Note_on_c, 0, 62, 95
2, 886400, Note_off_c, 0, 62, 95
2, 886400, Note_on_c, 0, 59, 95
2, 886720, Note_off_c, 0, 59, 95
2, 886720, Note_on_c, 0, 62, 95
2, 887040, Note_off_c, 0, 62, 95
2, 887040, Note_on_c, 0, 69, 95
2, 887360, Note_off_c, 0, 69, 95
2, 887360, Note_on_c, 0, 67, 70
2, 887680, Note_off_c, 0, 67, 70
2, 887680, Note_on_c, 0, 64, 95
2, 888000, Note_off_c, 0, 64, 95
2, 888000, Pitch_bend_c, 1, 8192
2, 888000, Note_on_c, 1, 69, 95
2, 888087, Pitch_bend_c, 1, 8320
2, 888174, Pitch_bend_c, 1, 8448
2, 888261, Pitch_bend_c, 1, 8576
2, 888348, Pitch_bend_c, 1, 8704
2, 888435, Pitch_bend_c, 1, 8832
2, 888522, Pitch_bend_c, 1, 8960
2, 888609, Pitch_bend_c, 1, 9088
2, 888696, Pitch_bend_c, 1, 9216
2, 888783, Pitch_bend_c, 1, 9344
2, 888870, Pitch_bend_c, 1, 9472
2, 888957, Pitch_bend_c, 1, 9600
2, 888960, Pitch_bend_c, 1, 9600
2, 889920, Pitch_bend_c, 1, 9600
2, 889920, Pitch_bend_c, 1, 8192
2, 889920, Note_off_c, 1, 69, 95
2, 889920, Note_on_c, 0, 71, 95
2, 890160, Note_off_c, 0, 71, 95
2, 890160, Note_on_c, 0, 74, 95
2, 890400, Note_off_c, 0, 74, 95
2, 890400, Note_on_c, 0, 79, 95
2, 890640, Note_off_c, 0, 79, 95
2, 890640, Note_on_c, 0, 73, 95
2, 890880, Note_off_c, 0, 73, 95
2, 890880, Note_on_c, 0, 71, 95
2, 891840, Note_off_c, 0, 71, 95
2, 891840, Pitch_bend_c, 1, 8192
2, 891840, Note_on_c, 1, 69, 95
2, 891861, Pitch_bend_c, 1, 8320
2, 891882, Pitch_bend_c, 1, 8448
2, 891903, Pitch_bend_c, 1, 8576
2, 891924, Pitch_bend_c, 1, 8704
2, 891945, Pitch_bend_c, 1, 8832
2, 891966, Pitch_bend_c, 1, 8960
2, 891987, Pitch_bend_c, 1, 9088
2, 892008, Pitch_bend_c, 1, 9216
2, 892029, Pitch_bend_c, 1, 9344
2, 892050, Pitch_bend_c, 1, 9472
2, 892071, Pitch_bend_c, 1, 9600
2, 892080, Pitch_bend_c, 1, 9600
2, 892320, Pitch_bend_c, 1, 9600
2, 892341, Pitch_bend_c, 1, 9472
2, 892362, Pitch_bend_c, 1, 9344
2, 892383, Pitch_bend_c, 1, 9216
2, 892404, Pitch_bend_c, 1, 9088
2, 892425, Pitch_bend_c, 1, 8960
2, 892446, Pitch_bend_c, 1, 8832
2, 892467, Pitch_bend_c, 1, 8704
2, 892488, Pitch_bend_c, 1, 8576
2, 892509, Pitch_bend_c, 1, 8448
2, 892530, Pitch_bend_c, 1, 8320
2, 892551, Pitch_bend_c, 1, 8192
2, 892560, Pitch_bend_c, 1, 8192
2, 892800, Pitch_bend_c, 1, 8192
2, 892800, Pitch_bend_c, 1, 8192
2, 892800, Note_off_c, 1, 69, 95
2, 892800, Note_on_c, 0, 69, 47
2, 893280, Note_off_c, 0, 69, 47
2, 893280, Note_on_c, 0, 67, 95
2, 893760, Note_off_c, 0, 67, 95
2, 893760, Note_on_c, 0, 64, 95
2, 894240, Note_off_c, 0, 64, 95
2, 894240, Note_on_c, 0, 62, 95
2, 894720, Note_off_c, 0, 62, 95
2, 894720, Note_on_c, 0, 64, 95
2, 895680, Note_off_c, 0, 64, 95
2, 895680, Note_on_c, 0, 67, 95
2, 896160, Note_off_c, 0, 67, 95
2, 896160, Note_on_c, 0, 64, 95
2, 896640, Note_off_c, 0, 64, 95
2, 896640, Note_on_c, 0, 67, 95
2, 897120, Note_off_c, 0, 67, 95
2, 897120, Note_on_c, 0, 69, 95
2, 897600, Note_off_c, 0, 69, 95
2, 897600, Pitch_bend_c, 1, 8192
2, 897600, Note_on_c, 1, 69, 95
2, 897643, Pitch_bend_c, 1, 8320
2, 897686, Pitch_bend_c, 1, 8448
2, 897729, Pitch_bend_c, 1, 8576
2, 897772, Pitch_bend_c, 1, 8704
2, 897815, Pitch_bend_c, 1, 8832
2, 897858, Pitch_bend_c, 1, 8960
2, 897901, Pitch_bend_c, 1, 9088
2, 897944, Pitch_bend_c, 1, 9216
2, 897987, Pitch_bend_c, 1, 9344
2, 898030, Pitch_bend_c, 1, 9472
2, 898073, Pitch_bend_c, 1, 9600
2, 898080, Pitch_bend_c, 1, 9600
2, 898560, Pitch_bend_c, 1, 9600
2, 898560, Pitch_bend_c, 1, 8192
2, 898560, Note_off_c, 1, 69, 95
2, 898560, Pitch_bend_c, 1, 8192
2, 898560, Note_on_c, 1, 69, 95
2, 898592, Pitch_bend_c, 1, 8320
2, 898624, Pitch_bend_c, 1, 8448
2, 898656, Pitch_bend_c, 1, 8576
2, 898688, Pitch_bend_c, 1, 8704
2, 898720, Pitch_bend_c, 1, 8832
2, 898752, Pitch_bend_c, 1, 8960
2, 898784, Pitch_bend_c, 1, 9088
2, 898816, Pitch_bend_c, 1, 9216
2, 898848, Pitch_bend_c, 1, 9344
2, 898880, Pitch_bend_c, 1, 9472
2, 898912, Pitch_bend_c, 1, 9600
2, 898920, Pitch_bend_c, 1, 9600
2, 899280, Pitch_bend_c, 1, 9600
2, 899280, Pitch_bend_c, 1, 8192
2, 899280, Note_off_c, 1, 69, 95
2, 899280, Note_on_c, 0, 74, 95
2, 899520, Note_off_c, 0, 74, 95
2, 899520, Pitch_bend_c, 1, 8192
2, 899520, Note_on_c, 1, 69, 95
2, 899552, Pitch_bend_c, 1, 8320
2, 899584, Pitch_bend_c, 1, 8448
2, 899616, Pitch_bend_c, 1, 8576
2, 899648, Pitch_bend_c, 1, 8704
2, 899680, Pitch_bend_c, 1, 8832
2, 899712, Pitch_bend_c, 1, 8960
2, 899744, Pitch_bend_c, 1, 9088
2, 899776, Pitch_bend_c, 1, 9216
2, 899808, Pitch_bend_c, 1, 9344
2, 899840, Pitch_bend_c, 1, 9472
2, 899872, Pitch_bend_c, 1, 9600
2, 899880, Pitch_bend_c, 1, 9600
2, 900240, Pitch_bend_c, 1, 9600
2, 900240, Pitch_bend_c, 1, 8192
2, 900240, Note_off_c, 1, 69, 95
2, 900240, Note_on_c, 0, 74, 95
2, 900480, Note_off_c, 0, 74, 95
2, 900480, Pitch_bend_c, 1, 8192
2, 900480, Note_on_c, 1, 69, 95
2, 900512, Pitch_bend_c, 1, 8320
2, 900544, Pitch_bend_c, 1, 8448
2, 900576, Pitch_bend_c, 1, 8576
2, 900608, Pitch_bend_c, 1, 8704
2, 900640, Pitch_bend_c, 1, 8832
2, 900672, Pitch_bend_c, 1, 8960
2, 900704, Pitch_bend_c, 1, 9088
2, 900736, Pitch_bend_c, 1, 9216
2, 900768, Pitch_bend_c, 1, 9344
2, 900800, Pitch_bend_c, 1, 9472
2, 900832, Pitch_bend_c, 1, 9600
2, 900840, Pitch_bend_c, 1, 9600
2, 901200, Pitch_bend_c, 1, 9600
2, 901200, Pitch_bend_c, 1, 8192
2, 901200, Note_off_c, 1, 69, 95
2, 901200, Note_on_c, 0, 74, 95
2, 901440, Note_off_c, 0, 74, 95
2, 901440, Pitch_bend_c, 1, 8192
2, 901440, Note_on_c, 1, 69, 95
2, 901472, Pitch_bend_c, 1, 8320
2, 901504, Pitch_bend_c, 1, 8448
2, 901536, Pitch_bend_c, 1, 8576
2, 901568, Pitch_bend_c, 1, 8704
2, 901600, Pitch_bend_c, 1, 8832
2, 901632, Pitch_bend_c, 1, 8960
2, 901664, Pitch_bend_c, 1, 9088
2, 901696, Pitch_bend_c, 1, 9216
2, 901728, Pitch_bend_c, 1, 9344
2, 901760, Pitch_bend_c, 1, 9472
2, 901792, Pitch_bend_c, 1, 9600
2, 901800, Pitch_bend_c, 1, 9600
2, 902160, Pitch_bend_c, 1, 9600
2, 902160, Pitch_bend_c, 1, 8192
2, 902160, Note_off_c, 1, 69, 95
2, 902160, Note_on_c, 0, 74, 95
2, 902400, Note_off_c, 0, 74, 95
2, 902400, End_track
3, 0, Start_track
3, 0, Pitch_bend_c, 2, 8192
3, 0, Control_c, 2, 7, 127
3, 0, Control_c, 2, 10, 127
3, 0, Control_c, 2, 93, 0
3, 0, Control_c, 2, 91, 0
3, 0, Control_c, 2, 95, 0
3, 0, Control_c, 2, 92, 0
3, 0, Control_c, 2, 11, 127
3, 0, Program_c, 2, 27
3, 0, Control_c, 3, 7, 127
3, 0, Control_c, 3, 10, 127
3, 0, Control_c, 3, 93, 0
3, 0, Control_c, 3, 91, 0
3, 0, Control_c, 3, 95, 0
3, 0, Control_c, 3, 92, 0
3, 0, Control_c, 3, 11, 127
3, 0, Program_c, 3, 27
3, 0, Note_on_c, 2, 52, 95
3, 0, Note_on_c, 2, 47, 95
3, 0, Note_on_c, 2, 40, 95
3, 960, Note_off_c, 2, 52, 95
3, 960, Note_off_c, 2, 47, 95
3, 960, Note_off_c, 2, 40, 95
3, 960, Note_on_c, 2, 47, 95
3, 960, Note_on_c, 2, 40, 95
3, 1440, Note_off_c, 2, 47, 95
3, 1440, Note_off_c, 2, 40, 95
3, 1440, Note_on_c, 2, 40, 95
3, 1920, Note_off_c, 2, 40, 95
3, 1920, Note_on_c, 2, 49, 95
3, 1920, Note_on_c, 2, 40, 95
3, 2880, Note_off_c, 2, 49, 95
3, 2880, Note_off_c, 2, 40, 95
3, 2880, Note_on_c, 2, 40, 95
3, 2956, Note_off_c, 2, 40, 95
3, 3360, Note_on_c, 2, 49, 95
3, 3840, Note_off_c, 2, 49, 95
3, 3840, Note_on_c, 2, 50, 70
3, 4320, Note_off_c, 2, 50, 70
3, 4320, Note_on_c, 2, 54, 95
3, 4320, Note_on_c, 2, 50, 95
3, 4800, Note_off_c, 2, 54, 95
3, 4800, Note_off_c, 2, 50, 95
3, 5280, Note_on_c, 2, 47, 95
3, 5280, Note_on_c, 2, 40, 95
3, 5760, Note_off_c, 2, 47, 95
3, 5760, Note_off_c, 2, 40, 95
3, 5760, Note_on_c, 2, 48, 70
3, 6240, Note_off_c, 2, 48, 70
3, 6240, Note_on_c, 2, 48, 95
3, 6240, Note_on_c, 2, 40, 95
3, 6720, Note_off_c, 2, 48, 95
3, 6720, Note_off_c, 2, 40, 95
3, 7680, Note_on_c, 2, 52, 95
3, 7680, Note_on_c, 2, 47, 95
3, 7680, Note_on_c, 2, 40, 95
3, 8640, Note_off_c, 2, 52, 95
3, 8640, Note_off_c, 2, 47, 95
3, 8640, Note_off_c, 2, 40, 95
3, 8640, Note_on_c, 2, 47, 95
3, 8640, Note_on_c, 2, 40, 95
3, 9120, Note_off_c, 2, 47, 95
3, 9120, Note_off_c, 2, 40, 95
3, 9120, Note_on_c, 2, 40, 95
3, 9600, Note_off_c, 2, 40, 95
3, 9600, Note_on_c, 2, 49, 95
3, 9600, Note_on_c, 2, 40, 95
3, 10560, Note_off_c, 2, 49, 95
3, 10560, Note_off_c, 2, 40, 95
3, 10560, Note_on_c, 2, 40, 95
3, 10636, Note_off_c, 2, 40, 95
3, 11040, Note_on_c, 2, 49, 95
3, 11520, Note_off_c, 2, 49, 95
3, 11520, Note_on_c, 2, 50, 70
3, 12000, Note_off_c, 2, 50, 70
3, 12000, Note_on_c, 2, 54, 95
3, 12000, Note_on_c, 2, 50, 95
3, 12480, Note_off_c, 2, 54, 95
3, 12480, Note_off_c, 2, 50, 95
3, 12960, Note_on_c, 2, 47, 95
3, 12960, Note_on_c, 2, 40, 95
3, 13440, Note_off_c, 2, 47, 95
3, 13440, Note_off_c, 2, 40, 95
3, 13440, Note_on_c, 2, 48, 70
3, 13920, Note_off_c, 2, 48, 70
3, 13920, Note_on_c, 2, 48, 95
3, 13920, Note_on_c, 2, 40, 95
3, 14400, Note_off_c, 2, 48, 95
3, 14400, Note_off_c, 2, 40, 95
3, 15360, Note_on_c, 2, 52, 95
3, 15360, Note_on_c, 2, 47, 95
3, 15360, Note_on_c, 2, 40, 95
3, 16320, Note_off_c, 2, 52, 95
3, 16320, Note_off_c, 2, 47, 95
3, 16320, Note_off_c, 2, 40, 95
3, 16320, Note_on_c, 2, 47, 95
3, 16320, Note_on_c, 2, 40, 95
3, 16800, Note_off_c, 2, 47, 95
3, 16800, Note_off_c, 2, 40, 95
3, 16800, Note_on_c, 2, 40, 95
3, 17280, Note_off_c, 2, 40, 95
3, 17280, Note_on_c, 2, 49, 95
3, 17280, Note_on_c, 2, 40, 95
3, 18240, Note_off_c, 2, 49, 95
3, 18240, Note_off_c, 2, 40, 95
3, 18240, Note_on_c, 2, 40, 95
3, 18316, Note_off_c, 2, 40, 95
3, 18720, Note_on_c, 2, 49, 95
3, 19200, Note_off_c, 2, 49, 95
3, 19200, Note_on_c, 2, 50, 70
3, 19680, Note_off_c, 2, 50, 70
3, 19680, Note_on_c, 2, 54, 95
3, 19680, Note_on_c, 2, 50, 95
3, 20160, Note_off_c, 2, 54, 95
3, 20160, Note_off_c, 2, 50, 95
3, 20640, Note_on_c, 2, 47, 95
3, 20640, Note_on_c, 2, 40, 95
3, 21120, Note_off_c, 2, 47, 95
3, 21120, Note_off_c, 2, 40, 95
3, 21120, Note_on_c, 2, 48, 70
3, 21600, Note_off_c, 2, 48, 70
3, 21600, Note_on_c, 2, 48, 95
3, 21600, Note_on_c, 2, 40, 95
3, 22080, Note_off_c, 2, 48, 95
3, 22080, Note_off_c, 2, 40, 95
3, 23040, Note_on_c, 2, 52, 95
3, 23040, Note_on_c, 2, 47, 95
3, 23040, Note_on_c, 2, 40, 95
3, 24000, Note_off_c, 2, 52, 95
3, 24000, Note_off_c, 2, 47, 95
3, 24000, Note_off_c, 2, 40, 95
3, 24000, Note_on_c, 2, 47, 95
3, 24000, Note_on_c, 2, 40, 95
3, 24480, Note_off_c, 2, 47, 95
3, 24480, Note_off_c, 2, 40, 95
3, 24480, Note_on_c, 2, 40, 95
3, 24960, Note_off_c, 2, 40, 95
3, 24960, Note_on_c, 2, 49, 95
3, 24960, Note_on_c, 2, 40, 95
3, 25920, Note_off_c, 2, 49, 95
3, 25920, Note_off_c, 2, 40, 95
3, 25920, Note_on_c, 2, 40, 95
3, 25996, Note_off_c, 2, 40, 95
3, 26400, Note_on_c, 2, 49, 95
3, 26880, Note_off_c, 2, 49, 95
3, 26880, Note_on_c, 2, 50, 70
3, 27360, Note_off_c, 2, 50, 70
3, 27360, Note_on_c, 2, 54, 95
3, 27360, Note_on_c, 2, 50, 95
3, 27840, Note_off_c, 2, 54, 95
3, 27840, Note_off_c, 2, 50, 95
3, 28320, Note_on_c, 2, 47, 95
3, 28320, Note_on_c, 2, 40, 95
3, 28800, Note_off_c, 2, 47, 95
3, 28800, Note_off_c, 2, 40, 95
3, 28800, Note_on_c, 2, 48, 70
3, 29280, Note_off_c, 2, 48, 70
3, 29280, Note_on_c, 2, 48, 95
3, 29280, Note_on_c, 2, 40, 95
3, 29760, Note_off_c, 2, 48, 95
3, 29760, Note_off_c, 2, 40, 95
3, 30720, Note_on_c, 2, 52, 95
3, 30720, Note_on_c, 2, 47, 95
3, 30720, Note_on_c, 2, 40, 95
3, 31680, Note_off_c, 2, 52, 95
3, 31680, Note_off_c, 2, 47, 95
3, 31680, Note_off_c, 2, 40, 95
3, 31680, Note_on_c, 2, 47, 95
3, 31680, Note_on_c, 2, 40, 95
3, 32160, Note_off_c, 2, 47, 95
3, 32160, Note_off_c, 2, 40, 95
3, 32160, Note_on_c, 2, 40, 95
3, 32640, Note_off_c, 2, 40, 95
3, 32640, Note_on_c, 2, 49, 95
3, 32640, Note_on_c, 2, 40, 95
3, 33600, Note_off_c, 2, 49, 95
3, 33600, Note_off_c, 2, 40, 95
3, 33600, Note_on_c, 2, 40, 95
3, 33676, Note_off_c, 2, 40, 95
3, 34080, Note_on_c, 2, 49, 95
3, 34560, Note_off_c, 2, 49, 95
3, 34560, Note_on_c, 2, 50, 70
3, 35040, Note_off_c, 2, 50, 70
3, 35040, Note_on_c, 2, 54, 95
3, 35040, Note_on_c, 2, 50, 95
3, 35520, Note_off_c, 2, 54, 95
3, 35520, Note_off_c, 2, 50, 95
3, 36000, Note_on_c, 2, 47, 95
3, 36000, Note_on_c, 2, 40, 95
3, 36480, Note_off_c, 2, 47, 95
3, 36480, Note_off_c, 2, 40, 95
3, 36480, Note_on_c, 2, 48, 70
3, 36960, Note_off_c, 2, 48, 70
3, 36960, Note_on_c, 2, 48, 95
3, 36960, Note_on_c, 2, 40, 95
3, 37440, Note_off_c, 2, 48, 95
3, 37440, Note_off_c, 2, 40, 95
3, 38400, Note_on_c, 2, 52, 95
3, 38400, Note_on_c, 2, 47, 95
3, 38400, Note_on_c, 2, 40, 95
3, 39360, Note_off_c, 2, 52, 95
3, 39360, Note_off_c, 2, 47, 95
3, 39360, Note_off_c, 2, 40, 95
3, 39360, Note_on_c, 2, 47, 95
3, 39360, Note_on_c, 2, 40, 95
3, 39840, Note_off_c, 2, 47, 95
3, 39840, Note_off_c, 2, 40, 95
3, 39840, Note_on_c, 2, 40, 95
3, 40320, Note_off_c, 2, 40, 95
3, 40320, Note_on_c, 2, 49, 95
3, 40320, Note_on_c, 2, 40, 95
3, 41280, Note_off_c, 2, 49, 95
3, 41280, Note_off_c, 2, 40, 95
3, 41280, Note_on_c, 2, 40, 95
3, 41356, Note_off_c, 2, 40, 95
3, 41760, Note_on_c, 2, 49, 95
3, 42240, Note_off_c, 2, 49, 95
3, 42240, Note_on_c, 2, 50, 70
3, 42720, Note_off_c, 2, 50, 70
3, 42720, Note_on_c, 2, 54, 95
3, 42720, Note_on_c, 2, 50, 95
3, 43200, Note_off_c, 2, 54, 95
3, 43200, Note_off_c, 2, 50, 95
3, 43680, Note_on_c, 2, 47, 95
3, 43680, Note_on_c, 2, 40, 95
3, 44160, Note_off_c, 2, 47, 95
3, 44160, Note_off_c, 2, 40, 95
3, 44160, Note_on_c, 2, 48, 70
3, 44640, Note_off_c, 2, 48, 70
3, 44640, Note_on_c, 2, 48, 95
3, 44640, Note_on_c, 2, 40, 95
3, 45120, Note_off_c, 2, 48, 95
3, 45120, Note_off_c, 2, 40, 95
3, 46080, Note_on_c, 2, 52, 95
3, 46080, Note_on_c, 2, 47, 95
3, 46080, Note_on_c, 2, 40, 95
3, 47040, Note_off_c, 2, 52, 95
3, 47040, Note_off_c, 2, 47, 95
3, 47040, Note_off_c, 2, 40, 95
3, 47040, Note_on_c, 2, 47, 95
3, 47040, Note_on_c, 2, 40, 95
3, 47520, Note_off_c, 2, 47, 95
3, 47520, Note_off_c, 2, 40, 95
3, 47520, Note_on_c, 2, 40, 95
3, 48000, Note_off_c, 2, 40, 95
3, 48000, Note_on_c, 2, 49, 95
3, 48000, Note_on_c, 2, 40, 95
3, 48960, Note_off_c, 2, 49, 95
3, 48960, Note_off_c, 2, 40, 95
3, 48960, Note_on_c, 2, 40, 95
3, 49036, Note_off_c, 2, 40, 95
3, 49440, Note_on_c, 2, 49, 95
3, 49920, Note_off_c, 2, 49, 95
3, 49920, Note_on_c, 2, 50, 70
3, 50400, Note_off_c, 2, 50, 70
3, 50400, Note_on_c, 2, 54, 95
3, 50400, Note_on_c, 2, 50, 95
3, 50880, Note_off_c, 2, 54, 95
3, 50880, Note_off_c, 2, 50, 95
3, 51360, Note_on_c, 2, 47, 95
3, 51360, Note_on_c, 2, 40, 95
3, 51840, Note_off_c, 2, 47, 95
3, 51840, Note_off_c, 2, 40, 95
3, 51840, Note_on_c, 2, 48, 70
3, 52320, Note_off_c, 2, 48, 70
3, 52320, Note_on_c, 2, 48, 95
3, 52320, Note_on_c, 2, 40, 95
3, 52800, Note_off_c, 2, 48, 95
3, 52800, Note_off_c, 2, 40, 95
3, 53760, Note_on_c, 2, 52, 95
3, 53760, Note_on_c, 2, 47, 95
3, 53760, Note_on_c, 2, 40, 95
3, 54720, Note_off_c, 2, 52, 95
3, 54720, Note_off_c, 2, 47, 95
3, 54720, Note_off_c, 2, 40, 95
3, 54720, Note_on_c, 2, 47, 95
3, 54720, Note_on_c, 2, 40, 95
3, 55200, Note_off_c, 2, 47, 95
3, 55200, Note_off_c, 2, 40, 95
3, 55200, Note_on_c, 2, 40, 95
3, 55680, Note_off_c, 2, 40, 95
3, 55680, Note_on_c, 2, 49, 95
3, 55680, Note_on_c, 2, 40, 95
3, 56640, Note_off_c, 2, 49, 95
3, 56640, Note_off_c, 2, 40, 95
3, 56640, Note_on_c, 2, 40, 95
3, 56716, Note_off_c, 2, 40, 95
3, 57120, Note_on_c, 2, 49, 95
3, 57600, Note_off_c, 2, 49, 95
3, 57600, Note_on_c, 2, 50, 70
3, 58080, Note_off_c, 2, 50, 70
3, 58080, Note_on_c, 2, 54, 95
3, 58080, Note_on_c, 2, 50, 95
3, 58560, Note_off_c, 2, 54, 95
3, 58560, Note_off_c, 2, 50, 95
3, 59040, Note_on_c, 2, 47, 95
3, 59040, Note_on_c, 2, 40, 95
3, 59520, Note_off_c, 2, 47, 95
3, 59520, Note_off_c, 2, 40, 95
3, 59520, Note_on_c, 2, 48, 70
3, 60000, Note_off_c, 2, 48, 70
3, 60000, Note_on_c, 2, 48, 95
3, 60000, Note_on_c, 2, 40, 95
3, 60480, Note_off_c, 2, 48, 95
3, 60480, Note_off_c, 2, 40, 95
3, 61440, Note_on_c, 2, 45, 95
3, 63360, Note_off_c, 2, 45, 95
3, 65760, Note_on_c, 2, 61, 95
3, 66240, Note_off_c, 2, 61, 95
3, 66240, Note_on_c, 2, 69, 95
3, 67200, Note_off_c, 2, 69, 95
3, 67200, Note_on_c, 2, 67, 95
3, 67200, Note_on_c, 2, 62, 95
3, 67200, Note_on_c, 2, 59, 95
3, 69120, Note_off_c, 2, 67, 95
3, 69120, Note_off_c, 2, 62, 95
3, 69120, Note_off_c, 2, 59, 95
3, 69120, Note_on_c, 2, 59, 95
3, 69196, Note_off_c, 2, 59, 95
3, 70080, Note_on_c, 2, 62, 95
3, 70560, Note_off_c, 2, 62, 95
3, 70560, Note_on_c, 2, 64, 70
3, 72960, Note_off_c, 2, 64, 70
3, 72960, Note_on_c, 2, 64, 95
3, 76800, Note_off_c, 2, 64, 95
3, 76800, Note_on_c, 2, 64, 95
3, 76800, Note_on_c, 2, 61, 95
3, 76800, Note_on_c, 2, 57, 95
3, 77760, Note_off_c, 2, 64, 95
3, 77760, Note_off_c, 2, 61, 95
3, 77760, Note_off_c, 2, 57, 95
3, 77760, Note_on_c, 2, 64, 95
3, 77760, Note_on_c, 2, 61, 95
3, 77760, Note_on_c, 2, 57, 95
3, 78720, Note_off_c, 2, 64, 95
3, 78720, Note_off_c, 2, 61, 95
3, 78720, Note_off_c, 2, 57, 95
3, 79680, Note_on_c, 2, 57, 95
3, 80160, Note_off_c, 2, 57, 95
3, 80160, Note_on_c, 3, 64, 95
3, 80160, Note_on_c, 3, 60, 95
3, 80280, Pitch_bend_c, 3, 7936
3, 80280, Pitch_bend_c, 3, 8064
3, 80400, Pitch_bend_c, 3, 7552
3, 80400, Pitch_bend_c, 3, 7936
3, 80520, Pitch_bend_c, 3, 7168
3, 80520, Pitch_bend_c, 3, 7680
3, 80640, Pitch_bend_c, 3, 6784
3, 80640, Pitch_bend_c, 3, 8192
3, 80640, Note_off_c, 3, 64, 95
3, 80640, Pitch_bend_c, 3, 7552
3, 80640, Pitch_bend_c, 3, 8192
3, 80640, Note_off_c, 3, 60, 95
3, 80640, Note_on_c, 2, 62, 95
3, 80640, Note_on_c, 2, 59, 95
3, 80640, Note_on_c, 2, 55, 95
3, 81600, Note_off_c, 2, 62, 95
3, 81600, Note_off_c, 2, 59, 95
3, 81600, Note_off_c, 2, 55, 95
3, 81600, Note_on_c, 2, 62, 95
3, 81600, Note_on_c, 2, 59, 95
3, 81600, Note_on_c, 2, 55, 95
3, 82560, Note_off_c, 2, 62, 95
3, 82560, Note_off_c, 2, 59, 95
3, 82560, Note_off_c, 2, 55, 95
3, 85440, Note_on_c, 2, 59, 95
3, 85680, Note_off_c, 2, 59, 95
3, 85680, Note_on_c, 2, 61, 70
3, 85920, Note_off_c, 2, 61, 70
3, 85920, Note_on_c, 2, 64, 95
3, 86400, Note_off_c, 2, 64, 95
3, 87360, Note_on_c, 2, 64, 95
3, 87520, Note_off_c, 2, 64, 95
3, 87520, Note_on_c, 2, 66, 70
3, 87680, Note_off_c, 2, 66, 70
3, 87680, Note_on_c, 2, 64, 70
3, 87840, Note_off_c, 2, 64, 70
3, 87840, Note_on_c, 2, 61, 95
3, 88320, Note_off_c, 2, 61, 95
3, 88320, Note_on_c, 2, 64, 95
3, 88480, Note_off_c, 2, 64, 95
3, 88480, Note_on_c, 2, 66, 70
3, 88640, Note_off_c, 2, 66, 70
3, 88640, Note_on_c, 2, 64, 70
3, 88800, Note_off_c, 2, 64, 70
3, 88800, Note_on_c, 2, 61, 95
3, 89280, Note_off_c, 2, 61, 95
3, 91200, Note_on_c, 3, 67, 95
3, 91200, Note_on_c, 3, 63, 95
3, 91320, Pitch_bend_c, 3, 7680
3, 91320, Pitch_bend_c, 3, 7680
3, 91440, Pitch_bend_c, 3, 7168
3, 91440, Pitch_bend_c, 3, 7168
3, 91560, Pitch_bend_c, 3, 6656
3, 91560, Pitch_bend_c, 3, 6656
3, 91680, Pitch_bend_c, 3, 6144
3, 91680, Pitch_bend_c, 3, 6144
3, 91800, Pitch_bend_c, 3, 5632
3, 91800, Pitch_bend_c, 3, 5632
3, 91920, Pitch_bend_c, 3, 5120
3, 91920, Pitch_bend_c, 3, 5120
3, 92040, Pitch_bend_c, 3, 4608
3, 92040, Pitch_bend_c, 3, 4608
3, 92160, Pitch_bend_c, 3, 3968
3, 92160, Pitch_bend_c, 3, 8192
3, 92160, Note_off_c, 3, 67, 95
3, 92160, Pitch_bend_c, 3, 3968
3, 92160, Pitch_bend_c, 3, 8192
3, 92160, Note_off_c, 3, 63, 95
3, 92160, Note_on_c, 2, 61, 95
3, 92160, Note_on_c, 2, 57, 95
3, 93120, Note_off_c, 2, 61, 95
3, 93120, Note_off_c, 2, 57, 95
3, 93120, Note_on_c, 2, 64, 95
3, 94080, Note_off_c, 2, 64, 95
3, 95040, Note_on_c, 3, 64, 95
3, 95040, Note_on_c, 3, 61, 95
3, 95160, Pitch_bend_c, 3, 8064
3, 95160, Pitch_bend_c, 3, 8064
3, 95280, Pitch_bend_c, 3, 7936
3, 95280, Pitch_bend_c, 3, 7936
3, 95400, Pitch_bend_c, 3, 7680
3, 95400, Pitch_bend_c, 3, 7680
3, 95520, Pitch_bend_c, 3, 7552
3, 95520, Pitch_bend_c, 3, 7552
3, 95640, Pitch_bend_c, 3, 7424
3, 95640, Pitch_bend_c, 3, 7424
3, 95760, Pitch_bend_c, 3, 7168
3, 95760, Pitch_bend_c, 3, 7168
3, 95880, Pitch_bend_c, 3, 7040
3, 95880, Pitch_bend_c, 3, 7040
3, 96000, Pitch_bend_c, 3, 6784
3, 96000, Pitch_bend_c, 3, 8192
3, 96000, Note_off_c, 3, 64, 95
3, 96000, Pitch_bend_c, 3, 6784
3, 96000, Pitch_bend_c, 3, 8192
3, 96000, Note_off_c, 3, 61, 95
3, 96000, Note_on_c, 2, 62, 95
3, 96000, Note_on_c, 2, 59, 95
3, 96000, Note_on_c, 2, 55, 95
3, 96960, Note_off_c, 2, 62, 95
3, 96960, Note_off_c, 2, 59, 95
3, 96960, Note_off_c, 2, 55, 95
3, 96960, Note_on_c, 2, 62, 95
3, 96960, Note_on_c, 2, 59, 95
3, 96960, Note_on_c, 2, 55, 95
3, 97920, Note_off_c, 2, 62, 95
3, 97920, Note_off_c, 2, 59, 95
3, 97920, Note_off_c, 2, 55, 95
3, 100800, Note_on_c, 2, 64, 95
3, 100960, Note_off_c, 2, 64, 95
3, 100960, Note_on_c, 2, 66, 70
3, 101120, Note_off_c, 2, 66, 70
3, 101120, Note_on_c, 2, 64, 70
3, 101280, Note_off_c, 2, 64, 70
3, 101280, Note_on_c, 2, 61, 95
3, 101760, Note_off_c, 2, 61, 95
3, 103680, Note_on_c, 2, 64, 95
3, 103840, Note_off_c, 2, 64, 95
3, 103840, Note_on_c, 2, 66, 70
3, 104000, Note_off_c, 2, 66, 70
3, 104000, Note_on_c, 2, 64, 70
3, 104160, Note_off_c, 2, 64, 70
3, 104160, Note_on_c, 2, 61, 95
3, 104640, Note_off_c, 2, 61, 95
3, 104640, Note_on_c, 2, 64, 95
3, 104800, Note_off_c, 2, 64, 95
3, 104800, Note_on_c, 2, 66, 70
3, 104960, Note_off_c, 2, 66, 70
3, 104960, Note_on_c, 2, 64, 70
3, 105120, Note_off_c, 2, 64, 70
3, 105120, Note_on_c, 2, 61, 95
3, 105600, Note_off_c, 2, 61, 95
3, 105600, Note_on_c, 2, 64, 95
3, 105760, Note_off_c, 2, 64, 95
3, 105760, Note_on_c, 2, 66, 70
3, 105920, Note_off_c, 2, 66, 70
3, 105920, Note_on_c, 2, 64, 70
3, 106080, Note_off_c, 2, 64, 70
3, 106080, Note_on_c, 2, 61, 95
3, 106560, Note_off_c, 2, 61, 95
3, 106560, Note_on_c, 2, 64, 95
3, 106720, Note_off_c, 2, 64, 95
3, 106720, Note_on_c, 2, 66, 70
3, 106880, Note_off_c, 2, 66, 70
3, 106880, Note_on_c, 2, 64, 70
3, 107040, Note_off_c, 2, 64, 70
3, 107040, Note_on_c, 2, 61, 95
3, 107520, Note_off_c, 2, 61, 95
3, 107520, Note_on_c, 2, 64, 95
3, 107520, Note_on_c, 2, 61, 95
3, 107520, Note_on_c, 2, 57, 95
3, 108480, Note_off_c, 2, 64, 95
3, 108480, Note_off_c, 2, 61, 95
3, 108480, Note_off_c, 2, 57, 95
3, 108480, Note_on_c, 2, 64, 95
3, 108480, Note_on_c, 2, 61, 95
3, 108480, Note_on_c, 2, 57, 95
3, 109440, Note_off_c, 2, 64, 95
3, 109440, Note_off_c, 2, 61, 95
3, 109440, Note_off_c, 2, 57, 95
3, 109440, Note_on_c, 2, 64, 95
3, 109440, Note_on_c, 2, 61, 95
3, 109440, Note_on_c, 2, 57, 95
3, 110400, Note_off_c, 2, 64, 95
3, 110400, Note_off_c, 2, 61, 95
3, 110400, Note_off_c, 2, 57, 95
3, 110400, Note_on_c, 2, 64, 95
3, 110400, Note_on_c, 2, 61, 95
3, 110400, Note_on_c, 2, 57, 95
3, 110880, Note_off_c, 2, 64, 95
3, 110880, Note_off_c, 2, 61, 95
3, 110880, Note_off_c, 2, 57, 95
3, 110880, Note_on_c, 2, 59, 95
3, 110880, Note_on_c, 2, 55, 95
3, 110880, Note_on_c, 2, 50, 95
3, 110956, Note_off_c, 2, 59, 95
3, 110956, Note_off_c, 2, 55, 95
3, 110956, Note_off_c, 2, 50, 95
3, 111360, Note_on_c, 2, 62, 95
3, 111360, Note_on_c, 2, 59, 95
3, 111360, Note_on_c, 2, 55, 95
3, 112320, Note_off_c, 2, 62, 95
3, 112320, Note_off_c, 2, 59, 95
3, 112320, Note_off_c, 2, 55, 95
3, 112320, Note_on_c, 2, 62, 95
3, 112320, Note_on_c, 2, 59, 95
3, 112320, Note_on_c, 2, 55, 95
3, 113280, Note_off_c, 2, 62, 95
3, 113280, Note_off_c, 2, 59, 95
3, 113280, Note_off_c, 2, 55, 95
3, 113280, Note_on_c, 2, 62, 95
3, 113280, Note_on_c, 2, 59, 95
3, 113280, Note_on_c, 2, 55, 95
3, 114240, Note_off_c, 2, 62, 95
3, 114240, Note_off_c, 2, 59, 95
3, 114240, Note_off_c, 2, 55, 95
3, 114240, Note_on_c, 2, 62, 95
3, 114240, Note_on_c, 2, 59, 95
3, 114240, Note_on_c, 2, 55, 95
3, 114720, Note_off_c, 2, 62, 95
3, 114720, Note_off_c, 2, 59, 95
3, 114720, Note_off_c, 2, 55, 95
3, 114720, Note_on_c, 2, 62, 95
3, 114720, Note_on_c, 2, 59, 95
3, 114720, Note_on_c, 2, 55, 95
3, 115200, Note_off_c, 2, 62, 95
3, 115200, Note_off_c, 2, 59, 95
3, 115200, Note_off_c, 2, 55, 95
3, 115200, Pitch_bend_c, 3, 8192
3, 115200, Note_on_c, 3, 72, 95
3, 115243, Pitch_bend_c, 3, 8320
3, 115286, Pitch_bend_c, 3, 8448
3, 115329, Pitch_bend_c, 3, 8576
3, 115372, Pitch_bend_c, 3, 8704
3, 115415, Pitch_bend_c, 3, 8832
3, 115458, Pitch_bend_c, 3, 8960
3, 115501, Pitch_bend_c, 3, 9088
3, 115544, Pitch_bend_c, 3, 9216
3, 115587, Pitch_bend_c, 3, 9344
3, 115630, Pitch_bend_c, 3, 9472
3, 115673, Pitch_bend_c, 3, 9600
3, 115680, Pitch_bend_c, 3, 9600
3, 116160, Pitch_bend_c, 3, 9600
3, 116160, Pitch_bend_c, 3, 8192
3, 116160, Note_off_c, 3, 72, 95
3, 116160, Note_on_c, 2, 74, 95
3, 117120, Note_off_c, 2, 74, 95
3, 117120, Note_on_c, 2, 71, 95
3, 117600, Note_off_c, 2, 71, 95
3, 117600, Note_on_c, 2, 69, 95
3, 118080, Note_off_c, 2, 69, 95
3, 118080, Note_on_c, 2, 67, 95
3, 118560, Note_off_c, 2, 67, 95
3, 118560, Note_on_c, 2, 62, 95
3, 119040, Note_off_c, 2, 62, 95
3, 119040, Note_on_c, 2, 64, 95
3, 119520, Note_off_c, 2, 64, 95
3, 119520, Note_on_c, 2, 62, 95
3, 120000, Note_off_c, 2, 62, 95
3, 120000, Note_on_c, 2, 64, 95
3, 120960, Note_off_c, 2, 64, 95
3, 120960, Note_on_c, 2, 64, 95
3, 121920, Note_off_c, 2, 64, 95
3, 121920, Note_on_c, 3, 64, 95
3, 122880, Note_off_c, 3, 64, 95
3, 122880, Note_on_c, 2, 62, 95
3, 123840, Note_off_c, 2, 62, 95
3, 123840, Note_on_c, 2, 62, 95
3, 126720, Note_off_c, 2, 62, 95
3, 126720, Note_on_c, 2, 62, 95
3, 127200, Note_off_c, 2, 62, 95
3, 127200, Note_on_c, 2, 61, 95
3, 127680, Note_off_c, 2, 61, 95
3, 127680, Note_on_c, 2, 61, 95
3, 128640, Note_off_c, 2, 61, 95
3, 128640, Note_on_c, 2, 61, 95
3, 129120, Note_off_c, 2, 61, 95
3, 129120, Note_on_c, 2, 62, 95
3, 129600, Note_off_c, 2, 62, 95
3, 129600, Note_on_c, 2, 61, 95
3, 130560, Note_off_c, 2, 61, 95
3, 130560, Note_on_c, 2, 59, 95
3, 133920, Note_off_c, 2, 59, 95
3, 133920, Note_on_c, 2, 59, 95
3, 134400, Note_off_c, 2, 59, 95
3, 134400, Note_on_c, 2, 64, 95
3, 134880, Note_off_c, 2, 64, 95
3, 134880, Note_on_c, 2, 67, 95
3, 135360, Note_off_c, 2, 67, 95
3, 135360, Note_on_c, 2, 64, 95
3, 135840, Note_off_c, 2, 64, 95
3, 135840, Pitch_bend_c, 3, 8192
3, 135840, Note_on_c, 3, 69, 95
3, 135883, Pitch_bend_c, 3, 8320
3, 135926, Pitch_bend_c, 3, 8448
3, 135969, Pitch_bend_c, 3, 8576
3, 136012, Pitch_bend_c, 3, 8704
3, 136055, Pitch_bend_c, 3, 8832
3, 136098, Pitch_bend_c, 3, 8960
3, 136141, Pitch_bend_c, 3, 9088
3, 136184, Pitch_bend_c, 3, 9216
3, 136227, Pitch_bend_c, 3, 9344
3, 136270, Pitch_bend_c, 3, 9472
3, 136313, Pitch_bend_c, 3, 9600
3, 136320, Pitch_bend_c, 3, 9600
3, 136800, Pitch_bend_c, 3, 9600
3, 136800, Pitch_bend_c, 3, 8192
3, 136800, Note_off_c, 3, 69, 95
3, 136800, Note_on_c, 2, 71, 95
3, 137280, Note_off_c, 2, 71, 95
3, 137280, Note_on_c, 2, 67, 95
3, 138240, Note_off_c, 2, 67, 95
3, 138240, Note_on_c, 2, 64, 95
3, 142080, Note_off_c, 2, 64, 95
3, 145920, Note_on_c, 2, 71, 95
3, 146400, Note_off_c, 2, 71, 95
3, 146400, Note_on_c, 2, 73, 95
3, 146880, Note_off_c, 2, 73, 95
3, 146880, Note_on_c, 2, 76, 95
3, 147360, Note_off_c, 2, 76, 95
3, 147360, Pitch_bend_c, 3, 8192
3, 147360, Note_on_c, 3, 73, 95
3, 147403, Pitch_bend_c, 3, 8320
3, 147446, Pitch_bend_c, 3, 8448
3, 147489, Pitch_bend_c, 3, 8576
3, 147532, Pitch_bend_c, 3, 8704
3, 147575, Pitch_bend_c, 3, 8832
3, 147618, Pitch_bend_c, 3, 8960
3, 147661, Pitch_bend_c, 3, 9088
3, 147704, Pitch_bend_c, 3, 9216
3, 147747, Pitch_bend_c, 3, 9344
3, 147790, Pitch_bend_c, 3, 9472
3, 147833, Pitch_bend_c, 3, 9600
3, 147840, Pitch_bend_c, 3, 9600
3, 148320, Pitch_bend_c, 3, 9600
3, 148363, Pitch_bend_c, 3, 9472
3, 148406, Pitch_bend_c, 3, 9344
3, 148449, Pitch_bend_c, 3, 9216
3, 148492, Pitch_bend_c, 3, 9088
3, 148535, Pitch_bend_c, 3, 8960
3, 148578, Pitch_bend_c, 3, 8832
3, 148621, Pitch_bend_c, 3, 8704
3, 148664, Pitch_bend_c, 3, 8576
3, 148707, Pitch_bend_c, 3, 8448
3, 148750, Pitch_bend_c, 3, 8320
3, 148793, Pitch_bend_c, 3, 8192
3, 148800, Pitch_bend_c, 3, 8192
3, 149280, Pitch_bend_c, 3, 8192
3, 149280, Pitch_bend_c, 3, 8192
3, 149280, Note_off_c, 3, 73, 95
3, 149280, Note_on_c, 2, 73, 47
3, 149760, Note_off_c, 2, 73, 47
3, 149760, Note_on_c, 2, 79, 95
3, 150240, Note_off_c, 2, 79, 95
3, 150240, Note_on_c, 2, 76, 95
3, 150720, Note_off_c, 2, 76, 95
3, 150720, Note_on_c, 2, 74, 95
3, 151200, Note_off_c, 2, 74, 95
3, 151200, Note_on_c, 2, 71, 95
3, 151680, Note_off_c, 2, 71, 95
3, 151680, Note_on_c, 2, 70, 95
3, 152160, Note_off_c, 2, 70, 95
3, 152160, Note_on_c, 2, 69, 95
3, 152640, Note_off_c, 2, 69, 95
3, 152640, Note_on_c, 2, 67, 95
3, 152800, Note_off_c, 2, 67, 95
3, 152800, Note_on_c, 2, 69, 95
3, 152960, Note_off_c, 2, 69, 95
3, 152960, Note_on_c, 2, 67, 95
3, 153120, Note_off_c, 2, 67, 95
3, 153120, Note_on_c, 2, 64, 95
3, 153600, Note_off_c, 2, 64, 95
3, 153600, Note_on_c, 2, 67, 95
3, 154560, Note_off_c, 2, 67, 95
3, 154560, Note_on_c, 2, 62, 95
3, 156480, Note_off_c, 2, 62, 95
3, 156480, Note_on_c, 2, 67, 95
3, 157440, Note_off_c, 2, 67, 95
3, 162240, Note_on_c, 2, 81, 95
3, 162560, Note_off_c, 2, 81, 95
3, 162560, Note_on_c, 2, 79, 70
3, 162880, Note_off_c, 2, 79, 70
3, 162880, Note_on_c, 2, 74, 95
3, 163200, Note_off_c, 2, 74, 95
3, 163200, Note_on_c, 2, 81, 95
3, 163520, Note_off_c, 2, 81, 95
3, 163520, Note_on_c, 2, 79, 70
3, 163840, Note_off_c, 2, 79, 70
3, 163840, Note_on_c, 2, 74, 95
3, 164160, Note_off_c, 2, 74, 95
3, 164160, Note_on_c, 2, 81, 95
3, 164480, Note_off_c, 2, 81, 95
3, 164480, Note_on_c, 2, 79, 70
3, 164800, Note_off_c, 2, 79, 70
3, 164800, Note_on_c, 2, 74, 95
3, 165120, Note_off_c, 2, 74, 95
3, 165120, Note_on_c, 2, 81, 95
3, 165440, Note_off_c, 2, 81, 95
3, 165440, Note_on_c, 2, 79, 70
3, 165760, Note_off_c, 2, 79, 70
3, 165760, Note_on_c, 2, 74, 95
3, 166080, Note_off_c, 2, 74, 95
3, 166080, Note_on_c, 2, 79, 95
3, 167040, Note_off_c, 2, 79, 95
3, 167040, Note_on_c, 2, 76, 95
3, 168000, Note_off_c, 2, 76, 95
3, 168000, Note_on_c, 2, 76, 95
3, 168960, Note_off_c, 2, 76, 95
3, 168960, Note_on_c, 2, 79, 95
3, 169440, Note_off_c, 2, 79, 95
3, 169440, Note_on_c, 2, 76, 95
3, 169920, Note_off_c, 2, 76, 95
3, 169920, Pitch_bend_c, 3, 8192
3, 169920, Note_on_c, 3, 81, 95
3, 169963, Pitch_bend_c, 3, 8320
3, 170006, Pitch_bend_c, 3, 8448
3, 170049, Pitch_bend_c, 3, 8576
3, 170092, Pitch_bend_c, 3, 8704
3, 170135, Pitch_bend_c, 3, 8832
3, 170178, Pitch_bend_c, 3, 8960
3, 170221, Pitch_bend_c, 3, 9088
3, 170264, Pitch_bend_c, 3, 9216
3, 170307, Pitch_bend_c, 3, 9344
3, 170350, Pitch_bend_c, 3, 9472
3, 170393, Pitch_bend_c, 3, 9600
3, 170400, Pitch_bend_c, 3, 9600
3, 170880, Pitch_bend_c, 3, 9600
3, 170880, Pitch_bend_c, 3, 8192
3, 170880, Note_off_c, 3, 81, 95
3, 173280, Pitch_bend_c, 3, 8192
3, 173280, Note_on_c, 3, 81, 95
3, 173290, Pitch_bend_c, 3, 8320
3, 173300, Pitch_bend_c, 3, 8448
3, 173310, Pitch_bend_c, 3, 8576
3, 173320, Pitch_bend_c, 3, 8704
3, 173330, Pitch_bend_c, 3, 8832
3, 173340, Pitch_bend_c, 3, 8960
3, 173350, Pitch_bend_c, 3, 9088
3, 173360, Pitch_bend_c, 3, 9216
3, 173370, Pitch_bend_c, 3, 9344
3, 173380, Pitch_bend_c, 3, 9472
3, 173390, Pitch_bend_c, 3, 9600
3, 173400, Pitch_bend_c, 3, 9600
3, 173520, Pitch_bend_c, 3, 9600
3, 173530, Pitch_bend_c, 3, 9472
3, 173540, Pitch_bend_c, 3, 9344
3, 173550, Pitch_bend_c, 3, 9216
3, 173560, Pitch_bend_c, 3, 9088
3, 173570, Pitch_bend_c, 3, 8960
3, 173580, Pitch_bend_c, 3, 8832
3, 173590, Pitch_bend_c, 3, 8704
3, 173600, Pitch_bend_c, 3, 8576
3, 173610, Pitch_bend_c, 3, 8448
3, 173620, Pitch_bend_c, 3, 8320
3, 173630, Pitch_bend_c, 3, 8192
3, 173640, Pitch_bend_c, 3, 8192
3, 173760, Pitch_bend_c, 3, 8192
3, 173760, Pitch_bend_c, 3, 8192
3, 173760, Note_off_c, 3, 81, 95
3, 173760, Note_on_c, 2, 81, 47
3, 174240, Note_off_c, 2, 81, 47
3, 174240, Note_on_c, 2, 79, 70
3, 174720, Note_off_c, 2, 79, 70
3, 174720, Note_on_c, 2, 81, 95
3, 176640, Note_off_c, 2, 81, 95
3, 177600, Note_on_c, 2, 81, 95
3, 177920, Note_off_c, 2, 81, 95
3, 177920, Note_on_c, 2, 79, 70
3, 178240, Note_off_c, 2, 79, 70
3, 178240, Note_on_c, 2, 74, 95
3, 178560, Note_off_c, 2, 74, 95
3, 178560, Note_on_c, 2, 79, 95
3, 179520, Note_off_c, 2, 79, 95
3, 179520, Note_on_c, 2, 76, 95
3, 180480, Note_off_c, 2, 76, 95
3, 180480, Pitch_bend_c, 3, 8192
3, 180480, Note_on_c, 3, 69, 95
3, 180501, Pitch_bend_c, 3, 8320
3, 180522, Pitch_bend_c, 3, 8448
3, 180543, Pitch_bend_c, 3, 8576
3, 180564, Pitch_bend_c, 3, 8704
3, 180585, Pitch_bend_c, 3, 8832
3, 180606, Pitch_bend_c, 3, 8960
3, 180627, Pitch_bend_c, 3, 9088
3, 180648, Pitch_bend_c, 3, 9216
3, 180669, Pitch_bend_c, 3, 9344
3, 180690, Pitch_bend_c, 3, 9472
3, 180711, Pitch_bend_c, 3, 9600
3, 180720, Pitch_bend_c, 3, 9600
3, 180960, Pitch_bend_c, 3, 9600
3, 180960, Pitch_bend_c, 3, 8192
3, 180960, Note_off_c, 3, 69, 95
3, 180960, Note_on_c, 2, 67, 95
3, 181440, Note_off_c, 2, 67, 95
3, 181440, Note_on_c, 2, 69, 95
3, 181920, Note_off_c, 2, 69, 95
3, 181920, Note_on_c, 2, 64, 95
3, 182400, Note_off_c, 2, 64, 95
3, 182400, Note_on_c, 2, 69, 95
3, 182880, Note_off_c, 2, 69, 95
3, 182880, Note_on_c, 2, 70, 95
3, 183360, Note_off_c, 2, 70, 95
3, 183360, Note_on_c, 2, 71, 95
3, 183840, Note_off_c, 2, 71, 95
3, 183840, Note_on_c, 2, 71, 95
3, 184320, Note_off_c, 2, 71, 95
3, 184320, Pitch_bend_c, 3, 8192
3, 184320, Note_on_c, 3, 74, 95
3, 184494, Pitch_bend_c, 3, 8320
3, 184668, Pitch_bend_c, 3, 8448
3, 184842, Pitch_bend_c, 3, 8576
3, 185016, Pitch_bend_c, 3, 8704
3, 185190, Pitch_bend_c, 3, 8832
3, 185364, Pitch_bend_c, 3, 8960
3, 185538, Pitch_bend_c, 3, 9088
3, 185712, Pitch_bend_c, 3, 9216
3, 185886, Pitch_bend_c, 3, 9344
3, 186060, Pitch_bend_c, 3, 9472
3, 186234, Pitch_bend_c, 3, 9600
3, 186240, Pitch_bend_c, 3, 9600
3, 188160, Pitch_bend_c, 3, 9600
3, 188160, Pitch_bend_c, 3, 8192
3, 188160, Note_off_c, 3, 74, 95
3, 188160, Pitch_bend_c, 3, 8192
3, 188160, Note_on_c, 3, 74, 47
3, 188247, Pitch_bend_c, 3, 8320
3, 188334, Pitch_bend_c, 3, 8448
3, 188421, Pitch_bend_c, 3, 8576
3, 188508, Pitch_bend_c, 3, 8704
3, 188595, Pitch_bend_c, 3, 8832
3, 188682, Pitch_bend_c, 3, 8960
3, 188769, Pitch_bend_c, 3, 9088
3, 188856, Pitch_bend_c, 3, 9216
3, 188943, Pitch_bend_c, 3, 9344
3, 189030, Pitch_bend_c, 3, 9472
3, 189117, Pitch_bend_c, 3, 9600
3, 189120, Pitch_bend_c, 3, 9600
3, 190080, Pitch_bend_c, 3, 9600
3, 190080, Pitch_bend_c, 3, 8192
3, 190080, Note_off_c, 3, 74, 47
3, 190080, Pitch_bend_c, 3, 8192
3, 190080, Note_on_c, 3, 73, 47
3, 190095, Pitch_bend_c, 3, 8320
3, 190110, Pitch_bend_c, 3, 8448
3, 190125, Pitch_bend_c, 3, 8576
3, 190140, Pitch_bend_c, 3, 8704
3, 190155, Pitch_bend_c, 3, 8832
3, 190170, Pitch_bend_c, 3, 8960
3, 190185, Pitch_bend_c, 3, 9088
3, 190200, Pitch_bend_c, 3, 9216
3, 190215, Pitch_bend_c, 3, 9344
3, 190230, Pitch_bend_c, 3, 9472
3, 190245, Pitch_bend_c, 3, 9600
3, 190260, Pitch_bend_c, 3, 9728
3, 190275, Pitch_bend_c, 3, 9856
3, 190290, Pitch_bend_c, 3, 9984
3, 190305, Pitch_bend_c, 3, 10112
3, 190320, Pitch_bend_c, 3, 10240
3, 190320, Pitch_bend_c, 3, 10240
3, 190560, Pitch_bend_c, 3, 10240
3, 190560, Pitch_bend_c, 3, 8192
3, 190560, Note_off_c, 3, 73, 47
3, 190560, Note_on_c, 2, 74, 95
3, 192000, Note_off_c, 2, 74, 95
3, 192000, Note_on_c, 2, 73, 95
3, 195840, Note_off_c, 2, 73, 95
3, 195840, Note_on_c, 2, 72, 95
3, 199680, Note_off_c, 2, 72, 95
3, 199680, Pitch_bend_c, 3, 8192
3, 199680, Note_on_c, 3, 69, 95
3, 199723, Pitch_bend_c, 3, 8320
3, 199766, Pitch_bend_c, 3, 8448
3, 199809, Pitch_bend_c, 3, 8576
3, 199852, Pitch_bend_c, 3, 8704
3, 199895, Pitch_bend_c, 3, 8832
3, 199938, Pitch_bend_c, 3, 8960
3, 199981, Pitch_bend_c, 3, 9088
3, 200024, Pitch_bend_c, 3, 9216
3, 200067, Pitch_bend_c, 3, 9344
3, 200110, Pitch_bend_c, 3, 9472
3, 200153, Pitch_bend_c, 3, 9600
3, 200160, Pitch_bend_c, 3, 9600
3, 200640, Pitch_bend_c, 3, 9600
3, 200640, Pitch_bend_c, 3, 8192
3, 200640, Note_off_c, 3, 69, 95
3, 200640, Note_on_c, 2, 71, 95
3, 201600, Note_off_c, 2, 71, 95
3, 202560, Pitch_bend_c, 3, 8192
3, 202560, Note_on_c, 3, 69, 95
3, 202603, Pitch_bend_c, 3, 8320
3, 202646, Pitch_bend_c, 3, 8448
3, 202689, Pitch_bend_c, 3, 8576
3, 202732, Pitch_bend_c, 3, 8704
3, 202775, Pitch_bend_c, 3, 8832
3, 202818, Pitch_bend_c, 3, 8960
3, 202861, Pitch_bend_c, 3, 9088
3, 202904, Pitch_bend_c, 3, 9216
3, 202947, Pitch_bend_c, 3, 9344
3, 202990, Pitch_bend_c, 3, 9472
3, 203033, Pitch_bend_c, 3, 9600
3, 203040, Pitch_bend_c, 3, 9600
3, 203520, Pitch_bend_c, 3, 9600
3, 203520, Pitch_bend_c, 3, 8192
3, 203520, Note_off_c, 3, 69, 95
3, 203520, Note_on_c, 2, 71, 95
3, 204480, Note_off_c, 2, 71, 95
3, 205440, Pitch_bend_c, 3, 8192
3, 205440, Note_on_c, 3, 69, 95
3, 205461, Pitch_bend_c, 3, 8320
3, 205482, Pitch_bend_c, 3, 8448
3, 205503, Pitch_bend_c, 3, 8576
3, 205524, Pitch_bend_c, 3, 8704
3, 205545, Pitch_bend_c, 3, 8832
3, 205566, Pitch_bend_c, 3, 8960
3, 205587, Pitch_bend_c, 3, 9088
3, 205608, Pitch_bend_c, 3, 9216
3, 205629, Pitch_bend_c, 3, 9344
3, 205650, Pitch_bend_c, 3, 9472
3, 205671, Pitch_bend_c, 3, 9600
3, 205680, Pitch_bend_c, 3, 9600
3, 205920, Pitch_bend_c, 3, 9600
3, 205920, Pitch_bend_c, 3, 8192
3, 205920, Note_off_c, 3, 69, 95
3, 205920, Note_on_c, 2, 71, 95
3, 206400, Note_off_c, 2, 71, 95
3, 206400, Note_on_c, 2, 69, 47
3, 206880, Note_off_c, 2, 69, 47
3, 206880, Note_on_c, 2, 67, 95
3, 207360, Note_off_c, 2, 67, 95
3, 207360, Note_on_c, 2, 64, 95
3, 208320, Note_off_c, 2, 64, 95
3, 208320, Note_on_c, 2, 64, 95
3, 209280, Note_off_c, 2, 64, 95
3, 209280, Note_on_c, 2, 67, 95
3, 210240, Note_off_c, 2, 67, 95
3, 211680, Pitch_bend_c, 3, 8192
3, 211680, Note_on_c, 3, 69, 95
3, 211712, Pitch_bend_c, 3, 8320
3, 211744, Pitch_bend_c, 3, 8448
3, 211776, Pitch_bend_c, 3, 8576
3, 211808, Pitch_bend_c, 3, 8704
3, 211840, Pitch_bend_c, 3, 8832
3, 211872, Pitch_bend_c, 3, 8960
3, 211904, Pitch_bend_c, 3, 9088
3, 211936, Pitch_bend_c, 3, 9216
3, 211968, Pitch_bend_c, 3, 9344
3, 212000, Pitch_bend_c, 3, 9472
3, 212032, Pitch_bend_c, 3, 9600
3, 212040, Pitch_bend_c, 3, 9600
3, 212400, Pitch_bend_c, 3, 9600
3, 212432, Pitch_bend_c, 3, 9472
3, 212464, Pitch_bend_c, 3, 9344
3, 212496, Pitch_bend_c, 3, 9216
3, 212528, Pitch_bend_c, 3, 9088
3, 212560, Pitch_bend_c, 3, 8960
3, 212592, Pitch_bend_c, 3, 8832
3, 212624, Pitch_bend_c, 3, 8704
3, 212656, Pitch_bend_c, 3, 8576
3, 212688, Pitch_bend_c, 3, 8448
3, 212720, Pitch_bend_c, 3, 8320
3, 212752, Pitch_bend_c, 3, 8192
3, 212760, Pitch_bend_c, 3, 8192
3, 213120, Pitch_bend_c, 3, 8192
3, 213120, Pitch_bend_c, 3, 8192
3, 213120, Note_off_c, 3, 69, 95
3, 213120, Note_on_c, 2, 69, 47
3, 213600, Note_off_c, 2, 69, 47
3, 213600, Note_on_c, 2, 67, 95
3, 214080, Note_off_c, 2, 67, 95
3, 214080, Note_on_c, 2, 64, 95
3, 214560, Note_off_c, 2, 64, 95
3, 214560, Note_on_c, 2, 62, 95
3, 215040, Note_off_c, 2, 62, 95
3, 215040, Note_on_c, 2, 64, 95
3, 216000, Note_off_c, 2, 64, 95
3, 216000, Note_on_c, 2, 64, 95
3, 216960, Note_off_c, 2, 64, 95
3, 216960, Note_on_c, 2, 67, 95
3, 217440, Note_off_c, 2, 67, 95
3, 217440, Note_on_c, 2, 64, 95
3, 217920, Note_off_c, 2, 64, 95
3, 219840, Note_on_c, 2, 59, 95
3, 220320, Note_off_c, 2, 59, 95
3, 220320, Note_on_c, 2, 62, 95
3, 220680, Note_on_c, 3, 59, 95
3, 220800, Note_off_c, 2, 62, 95
3, 220800, Note_off_c, 3, 59, 95
3, 220800, Note_on_c, 3, 57, 95
3, 221280, Note_off_c, 3, 57, 95
3, 221280, Note_on_c, 2, 55, 95
3, 221760, Note_off_c, 2, 55, 95
3, 221760, Note_on_c, 2, 52, 95
3, 222240, Note_off_c, 2, 52, 95
3, 222240, Note_on_c, 2, 50, 95
3, 222720, Note_off_c, 2, 50, 95
3, 222720, Note_on_c, 2, 52, 95
3, 223680, Note_off_c, 2, 52, 95
3, 223680, Note_on_c, 2, 52, 95
3, 224640, Note_off_c, 2, 52, 95
3, 224640, Note_on_c, 2, 52, 95
3, 225600, Note_off_c, 2, 52, 95
3, 230400, Note_on_c, 2, 45, 95
3, 232320, Note_off_c, 2, 45, 95
3, 234720, Note_on_c, 2, 61, 95
3, 235200, Note_off_c, 2, 61, 95
3, 235200, Note_on_c, 2, 69, 95
3, 236160, Note_off_c, 2, 69, 95
3, 236160, Note_on_c, 2, 67, 95
3, 236160, Note_on_c, 2, 62, 95
3, 236160, Note_on_c, 2, 59, 95
3, 238080, Note_off_c, 2, 67, 95
3, 238080, Note_off_c, 2, 62, 95
3, 238080, Note_off_c, 2, 59, 95
3, 238080, Note_on_c, 2, 59, 95
3, 238156, Note_off_c, 2, 59, 95
3, 239040, Note_on_c, 2, 62, 95
3, 239520, Note_off_c, 2, 62, 95
3, 239520, Note_on_c, 2, 64, 70
3, 241920, Note_off_c, 2, 64, 70
3, 241920, Note_on_c, 2, 64, 95
3, 245760, Note_off_c, 2, 64, 95
3, 245760, Note_on_c, 2, 64, 95
3, 245760, Note_on_c, 2, 61, 95
3, 245760, Note_on_c, 2, 57, 95
3, 246720, Note_off_c, 2, 64, 95
3, 246720, Note_off_c, 2, 61, 95
3, 246720, Note_off_c, 2, 57, 95
3, 246720, Note_on_c, 2, 64, 95
3, 246720, Note_on_c, 2, 61, 95
3, 246720, Note_on_c, 2, 57, 95
3, 247680, Note_off_c, 2, 64, 95
3, 247680, Note_off_c, 2, 61, 95
3, 247680, Note_off_c, 2, 57, 95
3, 248640, Note_on_c, 2, 57, 95
3, 249120, Note_off_c, 2, 57, 95
3, 249120, Note_on_c, 3, 64, 95
3, 249120, Note_on_c, 3, 60, 95
3, 249240, Pitch_bend_c, 3, 7936
3, 249240, Pitch_bend_c, 3, 8064
3, 249360, Pitch_bend_c, 3, 7552
3, 249360, Pitch_bend_c, 3, 7936
3, 249480, Pitch_bend_c, 3, 7168
3, 249480, Pitch_bend_c, 3, 7680
3, 249600, Pitch_bend_c, 3, 6784
3, 249600, Pitch_bend_c, 3, 8192
3, 249600, Note_off_c, 3, 64, 95
3, 249600, Pitch_bend_c, 3, 7552
3, 249600, Pitch_bend_c, 3, 8192
3, 249600, Note_off_c, 3, 60, 95
3, 249600, Note_on_c, 2, 62, 95
3, 249600, Note_on_c, 2, 59, 95
3, 249600, Note_on_c, 2, 55, 95
3, 250560, Note_off_c, 2, 62, 95
3, 250560, Note_off_c, 2, 59, 95
3, 250560, Note_off_c, 2, 55, 95
3, 250560, Note_on_c, 2, 62, 95
3, 250560, Note_on_c, 2, 59, 95
3, 250560, Note_on_c, 2, 55, 95
3, 251520, Note_off_c, 2, 62, 95
3, 251520, Note_off_c, 2, 59, 95
3, 251520, Note_off_c, 2, 55, 95
3, 254400, Note_on_c, 2, 59, 95
3, 254640, Note_off_c, 2, 59, 95
3, 254640, Note_on_c, 2, 61, 70
3, 254880, Note_off_c, 2, 61, 70
3, 254880, Note_on_c, 2, 64, 95
3, 255360, Note_off_c, 2, 64, 95
3, 256320, Note_on_c, 2, 64, 95
3, 256480, Note_off_c, 2, 64, 95
3, 256480, Note_on_c, 2, 66, 70
3, 256640, Note_off_c, 2, 66, 70
3, 256640, Note_on_c, 2, 64, 70
3, 256800, Note_off_c, 2, 64, 70
3, 256800, Note_on_c, 2, 61, 95
3, 257280, Note_off_c, 2, 61, 95
3, 257280, Note_on_c, 2, 64, 95
3, 257440, Note_off_c, 2, 64, 95
3, 257440, Note_on_c, 2, 66, 70
3, 257600, Note_off_c, 2, 66, 70
3, 257600, Note_on_c, 2, 64, 70
3, 257760, Note_off_c, 2, 64, 70
3, 257760, Note_on_c, 2, 61, 95
3, 258240, Note_off_c, 2, 61, 95
3, 260160, Note_on_c, 3, 67, 95
3, 260160, Note_on_c, 3, 63, 95
3, 260280, Pitch_bend_c, 3, 7680
3, 260280, Pitch_bend_c, 3, 7680
3, 260400, Pitch_bend_c, 3, 7168
3, 260400, Pitch_bend_c, 3, 7168
3, 260520, Pitch_bend_c, 3, 6656
3, 260520, Pitch_bend_c, 3, 6656
3, 260640, Pitch_bend_c, 3, 6144
3, 260640, Pitch_bend_c, 3, 6144
3, 260760, Pitch_bend_c, 3, 5632
3, 260760, Pitch_bend_c, 3, 5632
3, 260880, Pitch_bend_c, 3, 5120
3, 260880, Pitch_bend_c, 3, 5120
3, 261000, Pitch_bend_c, 3, 4608
3, 261000, Pitch_bend_c, 3, 4608
3, 261120, Pitch_bend_c, 3, 3968
3, 261120, Pitch_bend_c, 3, 8192
3, 261120, Note_off_c, 3, 67, 95
3, 261120, Pitch_bend_c, 3, 3968
3, 261120, Pitch_bend_c, 3, 8192
3, 261120, Note_off_c, 3, 63, 95
3, 261120, Note_on_c, 2, 61, 95
3, 261120, Note_on_c, 2, 57, 95
3, 262080, Note_off_c, 2, 61, 95
3, 262080, Note_off_c, 2, 57, 95
3, 262080, Note_on_c, 2, 64, 95
3, 263040, Note_off_c, 2, 64, 95
3, 264000, Note_on_c, 3, 64, 95
3, 264000, Note_on_c, 3, 61, 95
3, 264120, Pitch_bend_c, 3, 8064
3, 264120, Pitch_bend_c, 3, 8064
3, 264240, Pitch_bend_c, 3, 7936
3, 264240, Pitch_bend_c, 3, 7936
3, 264360, Pitch_bend_c, 3, 7680
3, 264360, Pitch_bend_c, 3, 7680
3, 264480, Pitch_bend_c, 3, 7552
3, 264480, Pitch_bend_c, 3, 7552
3, 264600, Pitch_bend_c, 3, 7424
3, 264600, Pitch_bend_c, 3, 7424
3, 264720, Pitch_bend_c, 3, 7168
3, 264720, Pitch_bend_c, 3, 7168
3, 264840, Pitch_bend_c, 3, 7040
3, 264840, Pitch_bend_c, 3, 7040
3, 264960, Pitch_bend_c, 3, 6784
3, 264960, Pitch_bend_c, 3, 8192
3, 264960, Note_off_c, 3, 64, 95
3, 264960, Pitch_bend_c, 3, 6784
3, 264960, Pitch_bend_c, 3, 8192
3, 264960, Note_off_c, 3, 61, 95
3, 264960, Note_on_c, 2, 62, 95
3, 264960, Note_on_c, 2, 59, 95
3, 264960, Note_on_c, 2, 55, 95
3, 265920, Note_off_c, 2, 62, 95
3, 265920, Note_off_c, 2, 59, 95
3, 265920, Note_off_c, 2, 55, 95
3, 265920, Note_on_c, 2, 62, 95
3, 265920, Note_on_c, 2, 59, 95
3, 265920, Note_on_c, 2, 55, 95
3, 266880, Note_off_c, 2, 62, 95
3, 266880, Note_off_c, 2, 59, 95
3, 266880, Note_off_c, 2, 55, 95
3, 269760, Note_on_c, 2, 64, 95
3, 269920, Note_off_c, 2, 64, 95
3, 269920, Note_on_c, 2, 66, 70
3, 270080, Note_off_c, 2, 66, 70
3, 270080, Note_on_c, 2, 64, 70
3, 270240, Note_off_c, 2, 64, 70
3, 270240, Note_on_c, 2, 61, 95
3, 270720, Note_off_c, 2, 61, 95
3, 272640, Note_on_c, 2, 64, 95
3, 272800, Note_off_c, 2, 64, 95
3, 272800, Note_on_c, 2, 66, 70
3, 272960, Note_off_c, 2, 66, 70
3, 272960, Note_on_c, 2, 64, 70
3, 273120, Note_off_c, 2, 64, 70
3, 273120, Note_on_c, 2, 61, 95
3, 273600, Note_off_c, 2, 61, 95
3, 273600, Note_on_c, 2, 64, 95
3, 273760, Note_off_c, 2, 64, 95
3, 273760, Note_on_c, 2, 66, 70
3, 273920, Note_off_c, 2, 66, 70
3, 273920, Note_on_c, 2, 64, 70
3, 274080, Note_off_c, 2, 64, 70
3, 274080, Note_on_c, 2, 61, 95
3, 274560, Note_off_c, 2, 61, 95
3, 274560, Note_on_c, 2, 64, 95
3, 274720, Note_off_c, 2, 64, 95
3, 274720, Note_on_c, 2, 66, 70
3, 274880, Note_off_c, 2, 66, 70
3, 274880, Note_on_c, 2, 64, 70
3, 275040, Note_off_c, 2, 64, 70
3, 275040, Note_on_c, 2, 61, 95
3, 275520, Note_off_c, 2, 61, 95
3, 275520, Note_on_c, 2, 64, 95
3, 275680, Note_off_c, 2, 64, 95
3, 275680, Note_on_c, 2, 66, 70
3, 275840, Note_off_c, 2, 66, 70
3, 275840, Note_on_c, 2, 64, 70
3, 276000, Note_off_c, 2, 64, 70
3, 276000, Note_on_c, 2, 61, 95
3, 276480, Note_off_c, 2, 61, 95
3, 276480, Note_on_c, 2, 64, 95
3, 276480, Note_on_c, 2, 61, 95
3, 276480, Note_on_c, 2, 57, 95
3, 277440, Note_off_c, 2, 64, 95
3, 277440, Note_off_c, 2, 61, 95
3, 277440, Note_off_c, 2, 57, 95
3, 277440, Note_on_c, 2, 64, 95
3, 277440, Note_on_c, 2, 61, 95
3, 277440, Note_on_c, 2, 57, 95
3, 278400, Note_off_c, 2, 64, 95
3, 278400, Note_off_c, 2, 61, 95
3, 278400, Note_off_c, 2, 57, 95
3, 278400, Note_on_c, 2, 64, 95
3, 278400, Note_on_c, 2, 61, 95
3, 278400, Note_on_c, 2, 57, 95
3, 279360, Note_off_c, 2, 64, 95
3, 279360, Note_off_c, 2, 61, 95
3, 279360, Note_off_c, 2, 57, 95
3, 279360, Note_on_c, 2, 64, 95
3, 279360, Note_on_c, 2, 61, 95
3, 279360, Note_on_c, 2, 57, 95
3, 279840, Note_off_c, 2, 64, 95
3, 279840, Note_off_c, 2, 61, 95
3, 279840, Note_off_c, 2, 57, 95
3, 279840, Note_on_c, 2, 59, 95
3, 279840, Note_on_c, 2, 55, 95
3, 279840, Note_on_c, 2, 50, 95
3, 279916, Note_off_c, 2, 59, 95
3, 279916, Note_off_c, 2, 55, 95
3, 279916, Note_off_c, 2, 50, 95
3, 280320, Note_on_c, 2, 62, 95
3, 280320, Note_on_c, 2, 59, 95
3, 280320, Note_on_c, 2, 55, 95
3, 281280, Note_off_c, 2, 62, 95
3, 281280, Note_off_c, 2, 59, 95
3, 281280, Note_off_c, 2, 55, 95
3, 281280, Note_on_c, 2, 62, 95
3, 281280, Note_on_c, 2, 59, 95
3, 281280, Note_on_c, 2, 55, 95
3, 282240, Note_off_c, 2, 62, 95
3, 282240, Note_off_c, 2, 59, 95
3, 282240, Note_off_c, 2, 55, 95
3, 282240, Note_on_c, 2, 62, 95
3, 282240, Note_on_c, 2, 59, 95
3, 282240, Note_on_c, 2, 55, 95
3, 283200, Note_off_c, 2, 62, 95
3, 283200, Note_off_c, 2, 59, 95
3, 283200, Note_off_c, 2, 55, 95
3, 283200, Note_on_c, 2, 62, 95
3, 283200, Note_on_c, 2, 59, 95
3, 283200, Note_on_c, 2, 55, 95
3, 283680, Note_off_c, 2, 62, 95
3, 283680, Note_off_c, 2, 59, 95
3, 283680, Note_off_c, 2, 55, 95
3, 283680, Note_on_c, 2, 62, 95
3, 283680, Note_on_c, 2, 59, 95
3, 283680, Note_on_c, 2, 55, 95
3, 284160, Note_off_c, 2, 62, 95
3, 284160, Note_off_c, 2, 59, 95
3, 284160, Note_off_c, 2, 55, 95
3, 284160, Pitch_bend_c, 3, 8192
3, 284160, Note_on_c, 3, 72, 95
3, 284203, Pitch_bend_c, 3, 8320
3, 284246, Pitch_bend_c, 3, 8448
3, 284289, Pitch_bend_c, 3, 8576
3, 284332, Pitch_bend_c, 3, 8704
3, 284375, Pitch_bend_c, 3, 8832
3, 284418, Pitch_bend_c, 3, 8960
3, 284461, Pitch_bend_c, 3, 9088
3, 284504, Pitch_bend_c, 3, 9216
3, 284547, Pitch_bend_c, 3, 9344
3, 284590, Pitch_bend_c, 3, 9472
3, 284633, Pitch_bend_c, 3, 9600
3, 284640, Pitch_bend_c, 3, 9600
3, 285120, Pitch_bend_c, 3, 9600
3, 285120, Pitch_bend_c, 3, 8192
3, 285120, Note_off_c, 3, 72, 95
3, 285120, Note_on_c, 2, 74, 95
3, 286080, Note_off_c, 2, 74, 95
3, 286080, Note_on_c, 2, 71, 95
3, 286560, Note_off_c, 2, 71, 95
3, 286560, Note_on_c, 2, 69, 95
3, 287040, Note_off_c, 2, 69, 95
3, 287040, Note_on_c, 2, 67, 95
3, 287520, Note_off_c, 2, 67, 95
3, 287520, Note_on_c, 2, 62, 95
3, 288000, Note_off_c, 2, 62, 95
3, 288000, Note_on_c, 2, 64, 95
3, 288480, Note_off_c, 2, 64, 95
3, 288480, Note_on_c, 2, 62, 95
3, 288960, Note_off_c, 2, 62, 95
3, 288960, Note_on_c, 2, 64, 95
3, 289920, Note_off_c, 2, 64, 95
3, 289920, Note_on_c, 2, 64, 95
3, 290880, Note_off_c, 2, 64, 95
3, 290880, Note_on_c, 3, 64, 95
3, 291840, Note_off_c, 3, 64, 95
3, 291840, Note_on_c, 2, 62, 95
3, 292800, Note_off_c, 2, 62, 95
3, 292800, Note_on_c, 2, 62, 95
3, 295680, Note_off_c, 2, 62, 95
3, 295680, Note_on_c, 2, 62, 95
3, 296160, Note_off_c, 2, 62, 95
3, 296160, Note_on_c, 2, 61, 95
3, 296640, Note_off_c, 2, 61, 95
3, 296640, Note_on_c, 2, 61, 95
3, 297600, Note_off_c, 2, 61, 95
3, 297600, Note_on_c, 2, 61, 95
3, 298080, Note_off_c, 2, 61, 95
3, 298080, Note_on_c, 2, 62, 95
3, 298560, Note_off_c, 2, 62, 95
3, 298560, Note_on_c, 2, 61, 95
3, 299520, Note_off_c, 2, 61, 95
3, 299520, Note_on_c, 2, 59, 95
3, 302880, Note_off_c, 2, 59, 95
3, 302880, Note_on_c, 2, 59, 95
3, 303360, Note_off_c, 2, 59, 95
3, 303360, Note_on_c, 2, 64, 95
3, 303840, Note_off_c, 2, 64, 95
3, 303840, Note_on_c, 2, 67, 95
3, 304320, Note_off_c, 2, 67, 95
3, 304320, Note_on_c, 2, 64, 95
3, 304800, Note_off_c, 2, 64, 95
3, 304800, Pitch_bend_c, 3, 8192
3, 304800, Note_on_c, 3, 69, 95
3, 304843, Pitch_bend_c, 3, 8320
3, 304886, Pitch_bend_c, 3, 8448
3, 304929, Pitch_bend_c, 3, 8576
3, 304972, Pitch_bend_c, 3, 8704
3, 305015, Pitch_bend_c, 3, 8832
3, 305058, Pitch_bend_c, 3, 8960
3, 305101, Pitch_bend_c, 3, 9088
3, 305144, Pitch_bend_c, 3, 9216
3, 305187, Pitch_bend_c, 3, 9344
3, 305230, Pitch_bend_c, 3, 9472
3, 305273, Pitch_bend_c, 3, 9600
3, 305280, Pitch_bend_c, 3, 9600
3, 305760, Pitch_bend_c, 3, 9600
3, 305760, Pitch_bend_c, 3, 8192
3, 305760, Note_off_c, 3, 69, 95
3, 305760, Note_on_c, 2, 71, 95
3, 306240, Note_off_c, 2, 71, 95
3, 306240, Note_on_c, 2, 67, 95
3, 307200, Note_off_c, 2, 67, 95
3, 307200, Note_on_c, 2, 64, 95
3, 311040, Note_off_c, 2, 64, 95
3, 314880, Note_on_c, 2, 71, 95
3, 315360, Note_off_c, 2, 71, 95
3, 315360, Note_on_c, 2, 73, 95
3, 315840, Note_off_c, 2, 73, 95
3, 315840, Note_on_c, 2, 76, 95
3, 316320, Note_off_c, 2, 76, 95
3, 316320, Pitch_bend_c, 3, 8192
3, 316320, Note_on_c, 3, 73, 95
3, 316363, Pitch_bend_c, 3, 8320
3, 316406, Pitch_bend_c, 3, 8448
3, 316449, Pitch_bend_c, 3, 8576
3, 316492, Pitch_bend_c, 3, 8704
3, 316535, Pitch_bend_c, 3, 8832
3, 316578, Pitch_bend_c, 3, 8960
3, 316621, Pitch_bend_c, 3, 9088
3, 316664, Pitch_bend_c, 3, 9216
3, 316707, Pitch_bend_c, 3, 9344
3, 316750, Pitch_bend_c, 3, 9472
3, 316793, Pitch_bend_c, 3, 9600
3, 316800, Pitch_bend_c, 3, 9600
3, 317280, Pitch_bend_c, 3, 9600
3, 317323, Pitch_bend_c, 3, 9472
3, 317366, Pitch_bend_c, 3, 9344
3, 317409, Pitch_bend_c, 3, 9216
3, 317452, Pitch_bend_c, 3, 9088
3, 317495, Pitch_bend_c, 3, 8960
3, 317538, Pitch_bend_c, 3, 8832
3, 317581, Pitch_bend_c, 3, 8704
3, 317624, Pitch_bend_c, 3, 8576
3, 317667, Pitch_bend_c, 3, 8448
3, 317710, Pitch_bend_c, 3, 8320
3, 317753, Pitch_bend_c, 3, 8192
3, 317760, Pitch_bend_c, 3, 8192
3, 318240, Pitch_bend_c, 3, 8192
3, 318240, Pitch_bend_c, 3, 8192
3, 318240, Note_off_c, 3, 73, 95
3, 318240, Note_on_c, 2, 73, 47
3, 318720, Note_off_c, 2, 73, 47
3, 318720, Note_on_c, 2, 79, 95
3, 319200, Note_off_c, 2, 79, 95
3, 319200, Note_on_c, 2, 76, 95
3, 319680, Note_off_c, 2, 76, 95
3, 319680, Note_on_c, 2, 74, 95
3, 320160, Note_off_c, 2, 74, 95
3, 320160, Note_on_c, 2, 71, 95
3, 320640, Note_off_c, 2, 71, 95
3, 320640, Note_on_c, 2, 70, 95
3, 321120, Note_off_c, 2, 70, 95
3, 321120, Note_on_c, 2, 69, 95
3, 321600, Note_off_c, 2, 69, 95
3, 321600, Note_on_c, 2, 67, 95
3, 321760, Note_off_c, 2, 67, 95
3, 321760, Note_on_c, 2, 69, 95
3, 321920, Note_off_c, 2, 69, 95
3, 321920, Note_on_c, 2, 67, 95
3, 322080, Note_off_c, 2, 67, 95
3, 322080, Note_on_c, 2, 64, 95
3, 322560, Note_off_c, 2, 64, 95
3, 322560, Note_on_c, 2, 67, 95
3, 323520, Note_off_c, 2, 67, 95
3, 323520, Note_on_c, 2, 62, 95
3, 325440, Note_off_c, 2, 62, 95
3, 325440, Note_on_c, 2, 67, 95
3, 326400, Note_off_c, 2, 67, 95
3, 331200, Note_on_c, 2, 81, 95
3, 331520, Note_off_c, 2, 81, 95
3, 331520, Note_on_c, 2, 79, 70
3, 331840, Note_off_c, 2, 79, 70
3, 331840, Note_on_c, 2, 74, 95
3, 332160, Note_off_c, 2, 74, 95
3, 332160, Note_on_c, 2, 81, 95
3, 332480, Note_off_c, 2, 81, 95
3, 332480, Note_on_c, 2, 79, 70
3, 332800, Note_off_c, 2, 79, 70
3, 332800, Note_on_c, 2, 74, 95
3, 333120, Note_off_c, 2, 74, 95
3, 333120, Note_on_c, 2, 81, 95
3, 333440, Note_off_c, 2, 81, 95
3, 333440, Note_on_c, 2, 79, 70
3, 333760, Note_off_c, 2, 79, 70
3, 333760, Note_on_c, 2, 74, 95
3, 334080, Note_off_c, 2, 74, 95
3, 334080, Note_on_c, 2, 81, 95
3, 334400, Note_off_c, 2, 81, 95
3, 334400, Note_on_c, 2, 79, 70
3, 334720, Note_off_c, 2, 79, 70
3, 334720, Note_on_c, 2, 74, 95
3, 335040, Note_off_c, 2, 74, 95
3, 335040, Note_on_c, 2, 79, 95
3, 336000, Note_off_c, 2, 79, 95
3, 336000, Note_on_c, 2, 76, 95
3, 336960, Note_off_c, 2, 76, 95
3, 336960, Note_on_c, 2, 76, 95
3, 337920, Note_off_c, 2, 76, 95
3, 337920, Note_on_c, 2, 79, 95
3, 338400, Note_off_c, 2, 79, 95
3, 338400, Note_on_c, 2, 76, 95
3, 338880, Note_off_c, 2, 76, 95
3, 338880, Pitch_bend_c, 3, 8192
3, 338880, Note_on_c, 3, 81, 95
3, 338923, Pitch_bend_c, 3, 8320
3, 338966, Pitch_bend_c, 3, 8448
3, 339009, Pitch_bend_c, 3, 8576
3, 339052, Pitch_bend_c, 3, 8704
3, 339095, Pitch_bend_c, 3, 8832
3, 339138, Pitch_bend_c, 3, 8960
3, 339181, Pitch_bend_c, 3, 9088
3, 339224, Pitch_bend_c, 3, 9216
3, 339267, Pitch_bend_c, 3, 9344
3, 339310, Pitch_bend_c, 3, 9472
3, 339353, Pitch_bend_c, 3, 9600
3, 339360, Pitch_bend_c, 3, 9600
3, 339840, Pitch_bend_c, 3, 9600
3, 339840, Pitch_bend_c, 3, 8192
3, 339840, Note_off_c, 3, 81, 95
3, 342240, Pitch_bend_c, 3, 8192
3, 342240, Note_on_c, 3, 81, 95
3, 342250, Pitch_bend_c, 3, 8320
3, 342260, Pitch_bend_c, 3, 8448
3, 342270, Pitch_bend_c, 3, 8576
3, 342280, Pitch_bend_c, 3, 8704
3, 342290, Pitch_bend_c, 3, 8832
3, 342300, Pitch_bend_c, 3, 8960
3, 342310, Pitch_bend_c, 3, 9088
3, 342320, Pitch_bend_c, 3, 9216
3, 342330, Pitch_bend_c, 3, 9344
3, 342340, Pitch_bend_c, 3, 9472
3, 342350, Pitch_bend_c, 3, 9600
3, 342360, Pitch_bend_c, 3, 9600
3, 342480, Pitch_bend_c, 3, 9600
3, 342490, Pitch_bend_c, 3, 9472
3, 342500, Pitch_bend_c, 3, 9344
3, 342510, Pitch_bend_c, 3, 9216
3, 342520, Pitch_bend_c, 3, 9088
3, 342530, Pitch_bend_c, 3, 8960
3, 342540, Pitch_bend_c, 3, 8832
3, 342550, Pitch_bend_c, 3, 8704
3, 342560, Pitch_bend_c, 3, 8576
3, 342570, Pitch_bend_c, 3, 8448
3, 342580, Pitch_bend_c, 3, 8320
3, 342590, Pitch_bend_c, 3, 8192
3, 342600, Pitch_bend_c, 3, 8192
3, 342720, Pitch_bend_c, 3, 8192
3, 342720, Pitch_bend_c, 3, 8192
3, 342720, Note_off_c, 3, 81, 95
3, 342720, Note_on_c, 2, 81, 47
3, 343200, Note_off_c, 2, 81, 47
3, 343200, Note_on_c, 2, 79, 70
3, 343680, Note_off_c, 2, 79, 70
3, 343680, Note_on_c, 2, 81, 95
3, 345600, Note_off_c, 2, 81, 95
3, 346560, Note_on_c, 2, 81, 95
3, 346880, Note_off_c, 2, 81, 95
3, 346880, Note_on_c, 2, 79, 70
3, 347200, Note_off_c, 2, 79, 70
3, 347200, Note_on_c, 2, 74, 95
3, 347520, Note_off_c, 2, 74, 95
3, 347520, Note_on_c, 2, 79, 95
3, 348480, Note_off_c, 2, 79, 95
3, 348480, Note_on_c, 2, 76, 95
3, 349440, Note_off_c, 2, 76, 95
3, 349440, Pitch_bend_c, 3, 8192
3, 349440, Note_on_c, 3, 69, 95
3, 349461, Pitch_bend_c, 3, 8320
3, 349482, Pitch_bend_c, 3, 8448
3, 349503, Pitch_bend_c, 3, 8576
3, 349524, Pitch_bend_c, 3, 8704
3, 349545, Pitch_bend_c, 3, 8832
3, 349566, Pitch_bend_c, 3, 8960
3, 349587, Pitch_bend_c, 3, 9088
3, 349608, Pitch_bend_c, 3, 9216
3, 349629, Pitch_bend_c, 3, 9344
3, 349650, Pitch_bend_c, 3, 9472
3, 349671, Pitch_bend_c, 3, 9600
3, 349680, Pitch_bend_c, 3, 9600
3, 349920, Pitch_bend_c, 3, 9600
3, 349920, Pitch_bend_c, 3, 8192
3, 349920, Note_off_c, 3, 69, 95
3, 349920, Note_on_c, 2, 67, 95
3, 350400, Note_off_c, 2, 67, 95
3, 350400, Note_on_c, 2, 69, 95
3, 350880, Note_off_c, 2, 69, 95
3, 350880, Note_on_c, 2, 64, 95
3, 351360, Note_off_c, 2, 64, 95
3, 351360, Note_on_c, 2, 69, 95
3, 351840, Note_off_c, 2, 69, 95
3, 351840, Note_on_c, 2, 70, 95
3, 352320, Note_off_c, 2, 70, 95
3, 352320, Note_on_c, 2, 71, 95
3, 352800, Note_off_c, 2, 71, 95
3, 352800, Note_on_c, 2, 71, 95
3, 353280, Note_off_c, 2, 71, 95
3, 353280, Pitch_bend_c, 3, 8192
3, 353280, Note_on_c, 3, 74, 95
3, 353454, Pitch_bend_c, 3, 8320
3, 353628, Pitch_bend_c, 3, 8448
3, 353802, Pitch_bend_c, 3, 8576
3, 353976, Pitch_bend_c, 3, 8704
3, 354150, Pitch_bend_c, 3, 8832
3, 354324, Pitch_bend_c, 3, 8960
3, 354498, Pitch_bend_c, 3, 9088
3, 354672, Pitch_bend_c, 3, 9216
3, 354846, Pitch_bend_c, 3, 9344
3, 355020, Pitch_bend_c, 3, 9472
3, 355194, Pitch_bend_c, 3, 9600
3, 355200, Pitch_bend_c, 3, 9600
3, 357120, Pitch_bend_c, 3, 9600
3, 357120, Pitch_bend_c, 3, 8192
3, 357120, Note_off_c, 3, 74, 95
3, 357120, Pitch_bend_c, 3, 8192
3, 357120, Note_on_c, 3, 74, 47
3, 357207, Pitch_bend_c, 3, 8320
3, 357294, Pitch_bend_c, 3, 8448
3, 357381, Pitch_bend_c, 3, 8576
3, 357468, Pitch_bend_c, 3, 8704
3, 357555, Pitch_bend_c, 3, 8832
3, 357642, Pitch_bend_c, 3, 8960
3, 357729, Pitch_bend_c, 3, 9088
3, 357816, Pitch_bend_c, 3, 9216
3, 357903, Pitch_bend_c, 3, 9344
3, 357990, Pitch_bend_c, 3, 9472
3, 358077, Pitch_bend_c, 3, 9600
3, 358080, Pitch_bend_c, 3, 9600
3, 359040, Pitch_bend_c, 3, 9600
3, 359040, Pitch_bend_c, 3, 8192
3, 359040, Note_off_c, 3, 74, 47
3, 359040, Pitch_bend_c, 3, 8192
3, 359040, Note_on_c, 3, 73, 47
3, 359055, Pitch_bend_c, 3, 8320
3, 359070, Pitch_bend_c, 3, 8448
3, 359085, Pitch_bend_c, 3, 8576
3, 359100, Pitch_bend_c, 3, 8704
3, 359115, Pitch_bend_c, 3, 8832
3, 359130, Pitch_bend_c, 3, 8960
3, 359145, Pitch_bend_c, 3, 9088
3, 359160, Pitch_bend_c, 3, 9216
3, 359175, Pitch_bend_c, 3, 9344
3, 359190, Pitch_bend_c, 3, 9472
3, 359205, Pitch_bend_c, 3, 9600
3, 359220, Pitch_bend_c, 3, 9728
3, 359235, Pitch_bend_c, 3, 9856
3, 359250, Pitch_bend_c, 3, 9984
3, 359265, Pitch_bend_c, 3, 10112
3, 359280, Pitch_bend_c, 3, 10240
3, 359280, Pitch_bend_c, 3, 10240
3, 359520, Pitch_bend_c, 3, 10240
3, 359520, Pitch_bend_c, 3, 8192
3, 359520, Note_off_c, 3, 73, 47
3, 359520, Note_on_c, 2, 74, 95
3, 360960, Note_off_c, 2, 74, 95
3, 360960, Note_on_c, 2, 73, 95
3, 364800, Note_off_c, 2, 73, 95
3, 364800, Note_on_c, 2, 72, 95
3, 368640, Note_off_c, 2, 72, 95
3, 368640, Pitch_bend_c, 3, 8192
3, 368640, Note_on_c, 3, 69, 95
3, 368683, Pitch_bend_c, 3, 8320
3, 368726, Pitch_bend_c, 3, 8448
3, 368769, Pitch_bend_c, 3, 8576
3, 368812, Pitch_bend_c, 3, 8704
3, 368855, Pitch_bend_c, 3, 8832
3, 368898, Pitch_bend_c, 3, 8960
3, 368941, Pitch_bend_c, 3, 9088
3, 368984, Pitch_bend_c, 3, 9216
3, 369027, Pitch_bend_c, 3, 9344
3, 369070, Pitch_bend_c, 3, 9472
3, 369113, Pitch_bend_c, 3, 9600
3, 369120, Pitch_bend_c, 3, 9600
3, 369600, Pitch_bend_c, 3, 9600
3, 369600, Pitch_bend_c, 3, 8192
3, 369600, Note_off_c, 3, 69, 95
3, 369600, Note_on_c, 2, 71, 95
3, 370560, Note_off_c, 2, 71, 95
3, 371520, Pitch_bend_c, 3, 8192
3, 371520, Note_on_c, 3, 69, 95
3, 371563, Pitch_bend_c, 3, 8320
3, 371606, Pitch_bend_c, 3, 8448
3, 371649, Pitch_bend_c, 3, 8576
3, 371692, Pitch_bend_c, 3, 8704
3, 371735, Pitch_bend_c, 3, 8832
3, 371778, Pitch_bend_c, 3, 8960
3, 371821, Pitch_bend_c, 3, 9088
3, 371864, Pitch_bend_c, 3, 9216
3, 371907, Pitch_bend_c, 3, 9344
3, 371950, Pitch_bend_c, 3, 9472
3, 371993, Pitch_bend_c, 3, 9600
3, 372000, Pitch_bend_c, 3, 9600
3, 372480, Pitch_bend_c, 3, 9600
3, 372480, Pitch_bend_c, 3, 8192
3, 372480, Note_off_c, 3, 69, 95
3, 372480, Note_on_c, 2, 71, 95
3, 373440, Note_off_c, 2, 71, 95
3, 374400, Pitch_bend_c, 3, 8192
3, 374400, Note_on_c, 3, 69, 95
3, 374421, Pitch_bend_c, 3, 8320
3, 374442, Pitch_bend_c, 3, 8448
3, 374463, Pitch_bend_c, 3, 8576
3, 374484, Pitch_bend_c, 3, 8704
3, 374505, Pitch_bend_c, 3, 8832
3, 374526, Pitch_bend_c, 3, 8960
3, 374547, Pitch_bend_c, 3, 9088
3, 374568, Pitch_bend_c, 3, 9216
3, 374589, Pitch_bend_c, 3, 9344
3, 374610, Pitch_bend_c, 3, 9472
3, 374631, Pitch_bend_c, 3, 9600
3, 374640, Pitch_bend_c, 3, 9600
3, 374880, Pitch_bend_c, 3, 9600
3, 374880, Pitch_bend_c, 3, 8192
3, 374880, Note_off_c, 3, 69, 95
3, 374880, Note_on_c, 2, 71, 95
3, 375360, Note_off_c, 2, 71, 95
3, 375360, Note_on_c, 2, 69, 47
3, 375840, Note_off_c, 2, 69, 47
3, 375840, Note_on_c, 2, 67, 95
3, 376320, Note_off_c, 2, 67, 95
3, 376320, Note_on_c, 2, 64, 95
3, 377280, Note_off_c, 2, 64, 95
3, 377280, Note_on_c, 2, 64, 95
3, 378240, Note_off_c, 2, 64, 95
3, 378240, Note_on_c, 2, 67, 95
3, 379200, Note_off_c, 2, 67, 95
3, 380640, Pitch_bend_c, 3, 8192
3, 380640, Note_on_c, 3, 69, 95
3, 380672, Pitch_bend_c, 3, 8320
3, 380704, Pitch_bend_c, 3, 8448
3, 380736, Pitch_bend_c, 3, 8576
3, 380768, Pitch_bend_c, 3, 8704
3, 380800, Pitch_bend_c, 3, 8832
3, 380832, Pitch_bend_c, 3, 8960
3, 380864, Pitch_bend_c, 3, 9088
3, 380896, Pitch_bend_c, 3, 9216
3, 380928, Pitch_bend_c, 3, 9344
3, 380960, Pitch_bend_c, 3, 9472
3, 380992, Pitch_bend_c, 3, 9600
3, 381000, Pitch_bend_c, 3, 9600
3, 381360, Pitch_bend_c, 3, 9600
3, 381392, Pitch_bend_c, 3, 9472
3, 381424, Pitch_bend_c, 3, 9344
3, 381456, Pitch_bend_c, 3, 9216
3, 381488, Pitch_bend_c, 3, 9088
3, 381520, Pitch_bend_c, 3, 8960
3, 381552, Pitch_bend_c, 3, 8832
3, 381584, Pitch_bend_c, 3, 8704
3, 381616, Pitch_bend_c, 3, 8576
3, 381648, Pitch_bend_c, 3, 8448
3, 381680, Pitch_bend_c, 3, 8320
3, 381712, Pitch_bend_c, 3, 8192
3, 381720, Pitch_bend_c, 3, 8192
3, 382080, Pitch_bend_c, 3, 8192
3, 382080, Pitch_bend_c, 3, 8192
3, 382080, Note_off_c, 3, 69, 95
3, 382080, Note_on_c, 2, 69, 47
3, 382560, Note_off_c, 2, 69, 47
3, 382560, Note_on_c, 2, 67, 95
3, 383040, Note_off_c, 2, 67, 95
3, 383040, Note_on_c, 2, 64, 95
3, 383520, Note_off_c, 2, 64, 95
3, 383520, Note_on_c, 2, 62, 95
3, 384000, Note_off_c, 2, 62, 95
3, 384000, Note_on_c, 2, 64, 95
3, 384960, Note_off_c, 2, 64, 95
3, 384960, Note_on_c, 2, 64, 95
3, 385920, Note_off_c, 2, 64, 95
3, 385920, Note_on_c, 2, 67, 95
3, 386400, Note_off_c, 2, 67, 95
3, 386400, Note_on_c, 2, 64, 95
3, 386880, Note_off_c, 2, 64, 95
3, 388800, Note_on_c, 2, 59, 95
3, 389280, Note_off_c, 2, 59, 95
3, 389280, Note_on_c, 2, 62, 95
3, 389640, Note_on_c, 3, 59, 95
3, 389760, Note_off_c, 2, 62, 95
3, 389760, Note_off_c, 3, 59, 95
3, 389760, Note_on_c, 3, 57, 95
3, 390240, Note_off_c, 3, 57, 95
3, 390240, Note_on_c, 2, 55, 95
3, 390720, Note_off_c, 2, 55, 95
3, 390720, Note_on_c, 2, 52, 95
3, 391200, Note_off_c, 2, 52, 95
3, 391200, Note_on_c, 2, 50, 95
3, 391680, Note_off_c, 2, 50, 95
3, 391680, Note_on_c, 2, 52, 95
3, 392640, Note_off_c, 2, 52, 95
3, 392640, Note_on_c, 2, 52, 95
3, 393600, Note_off_c, 2, 52, 95
3, 393600, Note_on_c, 2, 52, 95
3, 394560, Note_off_c, 2, 52, 95
3, 394560, End_track
0, 0, End_of_file
