0, 0, Header, 1, 24, 120
1, 0, Start_track
1, 0, Title_t, "Fleetwood Mac-Go Your Own Way"
1, 0, Title_t, "http://members.tripod.com/jeridu/"
1, 0, Copyright_t, "Sequenced by ChartChai MeeSangNin (jeridu@yahoo.com)."
1, 0, Text_t, "Written by Lindsey Buckingham"
1, 0, Text_t, "Should sound best on a Roland SoundCanvas SC-88 Pro."
1, 0, Text_t, "Sequenced by ChartChai MeeSangNin (jeridu@yahoo.com). \012"
1, 0, System_exclusive, 5, 126, 127, 9, 1, 247
1, 1, System_exclusive, 10, 65, 16, 66, 18, 64, 0, 127, 0, 65, 247
1, 2, System_exclusive, 10, 65, 16, 66, 18, 0, 0, 127, 0, 1, 247
1, 2, Time_signature, 4, 2, 24, 8
1, 2, Key_signature, 0, "major"
1, 2, Tempo, 461538
1, 2, End_track
2, 0, Start_track
2, 0, Title_t, "Fleetwood Mac-Go Your Own Way"
2, 120, Text_t, "Sequenced by ChartChai MeeSangNin"
2, 126, Text_t, "jeridu@yahoo.com"
2, 482, System_exclusive, 40, 65, 16, 69, 18, 16, 0, 0, 71, 111, 32, 89, 111, 117, 114, 32, 79, 119, 110, 32, 87, 97, 121, 32, 40, 70, 108, 101, 101, 116, 119, 111, 111, 100, 32, 77, 97, 99, 41, 123, 247
2, 4202, System_exclusive, 41, 65, 16, 69, 18, 16, 0, 0, 83, 101, 113, 117, 101, 110, 99, 101, 114, 32, 61, 32, 67, 104, 97, 114, 116, 67, 104, 97, 105, 32, 77, 101, 101, 83, 97, 110, 103, 78, 105, 110, 124, 247
2, 8322, System_exclusive, 26, 65, 16, 69, 18, 16, 0, 0, 66, 97, 110, 103, 107, 111, 107, 44, 32, 84, 104, 97, 105, 108, 97, 110, 100, 66, 247
2, 11182, System_exclusive, 36, 65, 16, 69, 18, 16, 0, 0, 69, 109, 97, 105, 108, 58, 32, 106, 101, 114, 105, 100, 117, 64, 103, 101, 111, 99, 105, 116, 105, 101, 115, 46, 99, 111, 109, 66, 247
2, 11182, End_track
3, 0, Start_track
3, 0, Title_t, "Sequenced by ChartChai MeeSandNin"
3, 0, End_track
4, 0, Start_track
4, 0, Title_t, "jeridu@yahoo.com"
4, 0, End_track
5, 0, Start_track
5, 0, Title_t, "http://members.tripod.com/jeridu/"
5, 0, End_track
6, 0, Start_track
6, 0, Title_t, "Revision: August 2001"
6, 0, End_track
7, 0, Start_track
7, 0, Title_t, "<><><><><><><><><><><><><>"
7, 0, End_track
8, 0, Start_track
8, 79, Control_c, 0, 1, 0
8, 120, Control_c, 0, 0, 0
8, 121, Control_c, 0, 32, 1
8, 122, Program_c, 0, 56
8, 123, Control_c, 0, 7, 108
8, 123, Control_c, 0, 10, 84
8, 158, Control_c, 0, 64, 0
8, 237, Control_c, 0, 11, 127
8, 316, Pitch_bend_c, 0, 8192
8, 395, Control_c, 0, 91, 85
8, 474, Control_c, 0, 93, 28
8, 553, Control_c, 0, 94, 0
8, 630, Control_c, 0, 0, 0
8, 631, Control_c, 0, 32, 0
8, 632, Program_c, 0, 56
8, 709, Control_c, 0, 0, 0
8, 710, Control_c, 0, 32, 1
8, 711, Program_c, 0, 56
8, 1622, Lyric_t, "Lov"
8, 2102, Note_on_c, 0, 65, 97
8, 2162, Note_on_c, 0, 67, 104
8, 2162, Lyric_t, "ing "
8, 2163, Note_on_c, 0, 65, 0
8, 2219, Note_on_c, 0, 69, 110
8, 2219, Lyric_t, "you "
8, 2219, Lyric_t, "\015"
8, 2223, Note_on_c, 0, 67, 0
8, 2279, Pitch_bend_c, 0, 8192
8, 2283, Pitch_bend_c, 0, 8192
8, 2287, Pitch_bend_c, 0, 8192
8, 2303, Pitch_bend_c, 0, 8192
8, 2306, Pitch_bend_c, 0, 8192
8, 2311, Pitch_bend_c, 0, 8192
8, 2314, Pitch_bend_c, 0, 8192
8, 2315, Pitch_bend_c, 0, 8192
8, 2317, Pitch_bend_c, 0, 8192
8, 2320, Pitch_bend_c, 0, 7680
8, 2321, Pitch_bend_c, 0, 8192
8, 2323, Pitch_bend_c, 0, 7552
8, 2327, Pitch_bend_c, 0, 7424
8, 2332, Pitch_bend_c, 0, 7296
8, 2333, Pitch_bend_c, 0, 7168
8, 2335, Pitch_bend_c, 0, 7040
8, 2339, Pitch_bend_c, 0, 6912
8, 2342, Pitch_bend_c, 0, 6784
8, 2344, Pitch_bend_c, 0, 6656
8, 2347, Pitch_bend_c, 0, 6528
8, 2349, Pitch_bend_c, 0, 6400
8, 2350, Pitch_bend_c, 0, 6272
8, 2352, Pitch_bend_c, 0, 6016
8, 2355, Pitch_bend_c, 0, 5760
8, 2357, Pitch_bend_c, 0, 5632
8, 2359, Pitch_bend_c, 0, 5504
8, 2361, Pitch_bend_c, 0, 5120
8, 2363, Pitch_bend_c, 0, 4992
8, 2365, Pitch_bend_c, 0, 4736
8, 2367, Pitch_bend_c, 0, 4608
8, 2368, Pitch_bend_c, 0, 4480
8, 2371, Pitch_bend_c, 0, 4224
8, 2373, Pitch_bend_c, 0, 3968
8, 2375, Pitch_bend_c, 0, 3840
8, 2376, Pitch_bend_c, 0, 3712
8, 2378, Pitch_bend_c, 0, 3456
8, 2380, Pitch_bend_c, 0, 3328
8, 2381, Pitch_bend_c, 0, 2944
8, 2384, Pitch_bend_c, 0, 2688
8, 2385, Pitch_bend_c, 0, 2304
8, 2388, Pitch_bend_c, 0, 1920
8, 2389, Pitch_bend_c, 0, 1536
8, 2391, Pitch_bend_c, 0, 1280
8, 2393, Pitch_bend_c, 0, 896
8, 2394, Pitch_bend_c, 0, 640
8, 2396, Pitch_bend_c, 0, 384
8, 2398, Pitch_bend_c, 0, 128
8, 2407, Note_on_c, 0, 69, 0
8, 2426, Pitch_bend_c, 0, 8192
8, 2581, Note_on_c, 0, 65, 99
8, 2581, Lyric_t, "Is"
8, 2638, Note_on_c, 0, 67, 112
8, 2638, Lyric_t, "n't "
8, 2646, Note_on_c, 0, 65, 0
8, 2701, Note_on_c, 0, 69, 98
8, 2701, Lyric_t, "the "
8, 2708, Note_on_c, 0, 67, 0
8, 2821, Note_on_c, 0, 70, 108
8, 2821, Lyric_t, "right "
8, 2827, Note_on_c, 0, 69, 0
8, 2920, Pitch_bend_c, 0, 7680
8, 2940, Pitch_bend_c, 0, 7040
8, 2963, Pitch_bend_c, 0, 8192
8, 2998, Note_on_c, 0, 70, 0
8, 3121, Note_on_c, 0, 69, 101
8, 3121, Lyric_t, "thing "
8, 3241, Note_on_c, 0, 67, 108
8, 3241, Lyric_t, "to "
8, 3243, Note_on_c, 0, 69, 0
8, 3270, Note_on_c, 0, 67, 0
8, 3298, Note_on_c, 0, 67, 104
8, 3298, Lyric_t, "do "
8, 3298, Lyric_t, "\015"
8, 3403, Note_on_c, 0, 67, 0
8, 4021, Note_on_c, 0, 70, 111
8, 4021, Lyric_t, "How "
8, 4079, Note_on_c, 0, 72, 111
8, 4079, Lyric_t, "can "
8, 4081, Note_on_c, 0, 70, 0
8, 4140, Note_on_c, 0, 74, 106
8, 4140, Lyric_t, "I "
8, 4146, Note_on_c, 0, 72, 0
8, 4196, Pitch_bend_c, 0, 7040
8, 4230, Pitch_bend_c, 0, 8192
8, 4267, Note_on_c, 0, 74, 0
8, 4496, Note_on_c, 0, 70, 103
8, 4496, Lyric_t, "e"
8, 4557, Note_on_c, 0, 72, 109
8, 4557, Lyric_t, "v"
8, 4570, Note_on_c, 0, 70, 0
8, 4617, Note_on_c, 0, 74, 99
8, 4617, Lyric_t, "er "
8, 4620, Note_on_c, 0, 72, 0
8, 4734, Note_on_c, 0, 77, 108
8, 4734, Lyric_t, "change "
8, 4736, Note_on_c, 0, 74, 0
8, 4813, Pitch_bend_c, 0, 6400
8, 4846, Pitch_bend_c, 0, 8192
8, 4896, Note_on_c, 0, 77, 0
8, 4917, Note_on_c, 0, 70, 105
8, 4917, Lyric_t, "things "
8, 4981, Note_on_c, 0, 72, 105
8, 4981, Lyric_t, "that "
8, 4986, Note_on_c, 0, 70, 0
8, 5132, Note_on_c, 0, 72, 0
8, 5159, Note_on_c, 0, 74, 106
8, 5159, Lyric_t, "I "
8, 5214, Pitch_bend_c, 0, 8192
8, 5215, Pitch_bend_c, 0, 8192
8, 5215, Pitch_bend_c, 0, 8192
8, 5219, Pitch_bend_c, 0, 7552
8, 5221, Pitch_bend_c, 0, 7296
8, 5224, Pitch_bend_c, 0, 7040
8, 5225, Pitch_bend_c, 0, 6656
8, 5227, Pitch_bend_c, 0, 6400
8, 5228, Pitch_bend_c, 0, 6016
8, 5230, Pitch_bend_c, 0, 5760
8, 5232, Pitch_bend_c, 0, 5504
8, 5235, Pitch_bend_c, 0, 5120
8, 5237, Pitch_bend_c, 0, 4864
8, 5238, Pitch_bend_c, 0, 4608
8, 5240, Pitch_bend_c, 0, 4352
8, 5241, Pitch_bend_c, 0, 4224
8, 5243, Pitch_bend_c, 0, 4096
8, 5245, Pitch_bend_c, 0, 3968
8, 5259, Pitch_bend_c, 0, 4224
8, 5261, Pitch_bend_c, 0, 4608
8, 5263, Pitch_bend_c, 0, 5376
8, 5265, Pitch_bend_c, 0, 6912
8, 5266, Pitch_bend_c, 0, 8192
8, 5279, Note_on_c, 0, 74, 0
8, 5279, Note_on_c, 0, 72, 107
8, 5279, Lyric_t, "feel "
8, 5279, Lyric_t, "\015"
8, 5279, Lyric_t, "\012"
8, 5386, Note_on_c, 0, 72, 0
8, 6417, Note_on_c, 0, 65, 103
8, 6417, Lyric_t, "If "
8, 6477, Note_on_c, 0, 67, 101
8, 6477, Lyric_t, "I "
8, 6483, Note_on_c, 0, 65, 0
8, 6536, Note_on_c, 0, 67, 0
8, 6537, Note_on_c, 0, 69, 104
8, 6537, Lyric_t, "could "
8, 6537, Lyric_t, "\015"
8, 6624, Pitch_bend_c, 0, 8192
8, 6628, Pitch_bend_c, 0, 8192
8, 6636, Pitch_bend_c, 0, 8192
8, 6643, Pitch_bend_c, 0, 8192
8, 6648, Pitch_bend_c, 0, 7680
8, 6652, Pitch_bend_c, 0, 7552
8, 6657, Pitch_bend_c, 0, 7424
8, 6659, Pitch_bend_c, 0, 7296
8, 6663, Pitch_bend_c, 0, 7040
8, 6664, Pitch_bend_c, 0, 6912
8, 6668, Pitch_bend_c, 0, 6784
8, 6671, Pitch_bend_c, 0, 6656
8, 6672, Pitch_bend_c, 0, 6528
8, 6675, Pitch_bend_c, 0, 6272
8, 6677, Pitch_bend_c, 0, 6144
8, 6680, Pitch_bend_c, 0, 6016
8, 6684, Pitch_bend_c, 0, 5760
8, 6685, Pitch_bend_c, 0, 5632
8, 6687, Pitch_bend_c, 0, 5504
8, 6688, Pitch_bend_c, 0, 5376
8, 6690, Pitch_bend_c, 0, 5120
8, 6692, Pitch_bend_c, 0, 4864
8, 6694, Pitch_bend_c, 0, 4608
8, 6697, Pitch_bend_c, 0, 4224
8, 6698, Pitch_bend_c, 0, 3968
8, 6700, Pitch_bend_c, 0, 3584
8, 6701, Pitch_bend_c, 0, 3200
8, 6704, Pitch_bend_c, 0, 2816
8, 6706, Pitch_bend_c, 0, 2432
8, 6707, Pitch_bend_c, 0, 2048
8, 6710, Pitch_bend_c, 0, 1536
8, 6712, Pitch_bend_c, 0, 1152
8, 6713, Pitch_bend_c, 0, 896
8, 6714, Pitch_bend_c, 0, 512
8, 6716, Pitch_bend_c, 0, 256
8, 6718, Pitch_bend_c, 0, 0
8, 6734, Note_on_c, 0, 69, 0
8, 6760, Pitch_bend_c, 0, 8192
8, 6901, Note_on_c, 0, 65, 106
8, 6901, Lyric_t, "May"
8, 6959, Note_on_c, 0, 67, 104
8, 6959, Lyric_t, "be "
8, 6962, Note_on_c, 0, 65, 0
8, 7019, Note_on_c, 0, 69, 110
8, 7019, Lyric_t, "I'd "
8, 7020, Note_on_c, 0, 67, 0
8, 7138, Note_on_c, 0, 70, 100
8, 7138, Lyric_t, "give "
8, 7143, Note_on_c, 0, 69, 0
8, 7260, Pitch_bend_c, 0, 6784
8, 7270, Note_on_c, 0, 70, 0
8, 7290, Pitch_bend_c, 0, 8192
8, 7430, Pitch_bend_c, 0, 6400
8, 7437, Note_on_c, 0, 69, 114
8, 7437, Lyric_t, "you "
8, 7463, Pitch_bend_c, 0, 8192
8, 7559, Note_on_c, 0, 67, 109
8, 7559, Lyric_t, "my "
8, 7560, Note_on_c, 0, 69, 0
8, 7601, Note_on_c, 0, 67, 0
8, 7620, Note_on_c, 0, 67, 97
8, 7620, Lyric_t, "world "
8, 7620, Lyric_t, "\015"
8, 7749, Note_on_c, 0, 67, 0
8, 8339, Note_on_c, 0, 70, 96
8, 8339, Lyric_t, "How "
8, 8399, Note_on_c, 0, 72, 111
8, 8399, Lyric_t, "can "
8, 8410, Note_on_c, 0, 70, 0
8, 8456, Note_on_c, 0, 72, 0
8, 8459, Note_on_c, 0, 74, 110
8, 8459, Lyric_t, "I "
8, 8513, Pitch_bend_c, 0, 6784
8, 8537, Pitch_bend_c, 0, 8192
8, 8590, Note_on_c, 0, 74, 0
8, 8821, Note_on_c, 0, 70, 93
8, 8821, Lyric_t, "when "
8, 8878, Note_on_c, 0, 72, 102
8, 8878, Lyric_t, "you "
8, 8885, Note_on_c, 0, 70, 0
8, 8939, Note_on_c, 0, 74, 99
8, 8939, Lyric_t, "won't "
8, 8947, Note_on_c, 0, 72, 0
8, 9056, Note_on_c, 0, 74, 0
8, 9056, Note_on_c, 0, 77, 101
8, 9056, Lyric_t, "take "
8, 9143, Pitch_bend_c, 0, 6400
8, 9188, Pitch_bend_c, 0, 8192
8, 9238, Note_on_c, 0, 70, 107
8, 9238, Lyric_t, "it "
8, 9248, Note_on_c, 0, 77, 0
8, 9299, Note_on_c, 0, 72, 106
8, 9299, Lyric_t, "from "
8, 9304, Note_on_c, 0, 70, 0
8, 9450, Note_on_c, 0, 72, 0
8, 9478, Note_on_c, 0, 74, 103
8, 9478, Lyric_t, "m"
8, 9528, Pitch_bend_c, 0, 8192
8, 9529, Pitch_bend_c, 0, 8192
8, 9532, Pitch_bend_c, 0, 8192
8, 9536, Pitch_bend_c, 0, 7424
8, 9537, Pitch_bend_c, 0, 7296
8, 9540, Pitch_bend_c, 0, 7040
8, 9541, Pitch_bend_c, 0, 6784
8, 9543, Note_on_c, 0, 74, 0
8, 9543, Pitch_bend_c, 0, 6656
8, 9543, Note_on_c, 0, 72, 110
8, 9543, Lyric_t, "e "
8, 9543, Lyric_t, "\015"
8, 9543, Lyric_t, "\012"
8, 9545, Pitch_bend_c, 0, 6400
8, 9547, Pitch_bend_c, 0, 6272
8, 9549, Pitch_bend_c, 0, 6016
8, 9551, Pitch_bend_c, 0, 5888
8, 9553, Pitch_bend_c, 0, 5632
8, 9554, Pitch_bend_c, 0, 5504
8, 9556, Pitch_bend_c, 0, 5376
8, 9561, Pitch_bend_c, 0, 5120
8, 9572, Pitch_bend_c, 0, 5504
8, 9575, Pitch_bend_c, 0, 5632
8, 9577, Pitch_bend_c, 0, 6016
8, 9578, Pitch_bend_c, 0, 6528
8, 9580, Pitch_bend_c, 0, 8192
8, 9582, Pitch_bend_c, 0, 8192
8, 9670, Note_on_c, 0, 72, 0
8, 10381, Note_on_c, 0, 65, 85
8, 10381, Lyric_t, "You "
8, 10441, Note_on_c, 0, 62, 85
8, 10441, Lyric_t, "can "
8, 10443, Note_on_c, 0, 65, 0
8, 10500, Note_on_c, 0, 62, 0
8, 10500, Note_on_c, 0, 65, 85
8, 10500, Lyric_t, "go "
8, 10622, Note_on_c, 0, 67, 85
8, 10622, Lyric_t, "your "
8, 10630, Note_on_c, 0, 65, 0
8, 10740, Note_on_c, 0, 67, 0
8, 10741, Note_on_c, 0, 70, 84
8, 10741, Lyric_t, "own "
8, 10861, Note_on_c, 0, 72, 84
8, 10861, Lyric_t, "way "
8, 10861, Lyric_t, "\015"
8, 10862, Note_on_c, 0, 76, 71
8, 10863, Note_on_c, 0, 70, 0
8, 11372, Note_on_c, 0, 72, 0
8, 11373, Note_on_c, 0, 76, 0
8, 11436, Pitch_bend_c, 0, 6016
8, 11459, Note_on_c, 0, 81, 105
8, 11459, Lyric_t, "Go "
8, 11480, Pitch_bend_c, 0, 8192
8, 11582, Note_on_c, 0, 79, 105
8, 11582, Lyric_t, "your "
8, 11590, Note_on_c, 0, 81, 0
8, 11701, Note_on_c, 0, 77, 106
8, 11701, Lyric_t, "own "
8, 11706, Note_on_c, 0, 79, 0
8, 11821, Note_on_c, 0, 76, 106
8, 11821, Lyric_t, "way "
8, 11822, Note_on_c, 0, 77, 0
8, 11973, Note_on_c, 0, 77, 94
8, 11978, Note_on_c, 0, 76, 0
8, 11989, Note_on_c, 0, 76, 97
8, 11990, Note_on_c, 0, 77, 0
8, 12005, Note_on_c, 0, 74, 96
8, 12005, Lyric_t, ""
8, 12005, Lyric_t, "\015"
8, 12006, Note_on_c, 0, 76, 0
8, 12113, Note_on_c, 0, 74, 0
8, 12301, Note_on_c, 0, 65, 85
8, 12301, Lyric_t, "You "
8, 12357, Note_on_c, 0, 65, 0
8, 12361, Note_on_c, 0, 62, 85
8, 12361, Lyric_t, "can "
8, 12420, Note_on_c, 0, 62, 0
8, 12420, Note_on_c, 0, 65, 85
8, 12420, Lyric_t, "call "
8, 12541, Note_on_c, 0, 67, 85
8, 12541, Lyric_t, "it "
8, 12543, Note_on_c, 0, 65, 0
8, 12659, Note_on_c, 0, 67, 0
8, 12661, Note_on_c, 0, 70, 84
8, 12661, Lyric_t, "ano"
8, 12781, Note_on_c, 0, 72, 84
8, 12781, Lyric_t, "ther "
8, 12782, Note_on_c, 0, 76, 71
8, 12783, Note_on_c, 0, 70, 0
8, 13022, Note_on_c, 0, 76, 0
8, 13029, Note_on_c, 0, 72, 0
8, 13080, Note_on_c, 0, 76, 87
8, 13080, Lyric_t, "lone"
8, 13139, Note_on_c, 0, 74, 87
8, 13139, Lyric_t, "ly "
8, 13140, Note_on_c, 0, 76, 0
8, 13201, Note_on_c, 0, 77, 87
8, 13201, Lyric_t, "da"
8, 13204, Note_on_c, 0, 74, 0
8, 13262, Note_on_c, 0, 77, 0
8, 13262, Note_on_c, 0, 76, 87
8, 13262, Lyric_t, "y "
8, 13262, Lyric_t, "\015"
8, 13306, Pitch_bend_c, 0, 6272
8, 13323, Note_on_c, 0, 76, 0
8, 13336, Pitch_bend_c, 0, 8192
8, 14221, Note_on_c, 0, 65, 85
8, 14221, Lyric_t, "You "
8, 14276, Note_on_c, 0, 65, 0
8, 14281, Note_on_c, 0, 62, 85
8, 14281, Lyric_t, "can "
8, 14340, Note_on_c, 0, 62, 0
8, 14340, Note_on_c, 0, 65, 85
8, 14340, Lyric_t, "go "
8, 14462, Note_on_c, 0, 67, 85
8, 14462, Lyric_t, "your "
8, 14466, Note_on_c, 0, 65, 0
8, 14581, Note_on_c, 0, 70, 84
8, 14581, Lyric_t, "own "
8, 14586, Note_on_c, 0, 67, 0
8, 14700, Note_on_c, 0, 70, 0
8, 14701, Note_on_c, 0, 72, 84
8, 14701, Lyric_t, "way "
8, 14701, Lyric_t, "\015"
8, 14702, Note_on_c, 0, 76, 71
8, 15212, Note_on_c, 0, 72, 0
8, 15213, Note_on_c, 0, 76, 0
8, 15283, Pitch_bend_c, 0, 6272
8, 15299, Note_on_c, 0, 82, 105
8, 15299, Lyric_t, "Go "
8, 15330, Pitch_bend_c, 0, 8192
8, 15422, Note_on_c, 0, 79, 105
8, 15422, Lyric_t, "your "
8, 15430, Note_on_c, 0, 82, 0
8, 15541, Note_on_c, 0, 76, 106
8, 15541, Lyric_t, "own "
8, 15543, Note_on_c, 0, 79, 0
8, 15661, Note_on_c, 0, 77, 106
8, 15661, Lyric_t, "way "
8, 15661, Lyric_t, "\015"
8, 15661, Lyric_t, "\012"
8, 15662, Note_on_c, 0, 76, 0
8, 15713, Pitch_bend_c, 0, 8192
8, 15716, Pitch_bend_c, 0, 7680
8, 15719, Pitch_bend_c, 0, 7552
8, 15721, Pitch_bend_c, 0, 7296
8, 15723, Pitch_bend_c, 0, 7040
8, 15724, Pitch_bend_c, 0, 6784
8, 15726, Pitch_bend_c, 0, 6400
8, 15728, Pitch_bend_c, 0, 6144
8, 15729, Pitch_bend_c, 0, 5888
8, 15732, Pitch_bend_c, 0, 5632
8, 15733, Pitch_bend_c, 0, 5504
8, 15735, Pitch_bend_c, 0, 5120
8, 15737, Pitch_bend_c, 0, 4992
8, 15739, Pitch_bend_c, 0, 4864
8, 15741, Pitch_bend_c, 0, 4736
8, 15756, Pitch_bend_c, 0, 4992
8, 15758, Pitch_bend_c, 0, 5120
8, 15761, Pitch_bend_c, 0, 5504
8, 15762, Pitch_bend_c, 0, 5760
8, 15764, Pitch_bend_c, 0, 6144
8, 15765, Pitch_bend_c, 0, 6528
8, 15768, Pitch_bend_c, 0, 7040
8, 15769, Pitch_bend_c, 0, 7552
8, 15771, Pitch_bend_c, 0, 8192
8, 15772, Pitch_bend_c, 0, 8192
8, 15773, Pitch_bend_c, 0, 8192
8, 15828, Note_on_c, 0, 77, 0
8, 16022, Note_on_c, 0, 65, 97
8, 16022, Lyric_t, "Tell "
8, 16082, Note_on_c, 0, 67, 104
8, 16082, Lyric_t, "me "
8, 16083, Note_on_c, 0, 65, 0
8, 16139, Note_on_c, 0, 69, 110
8, 16139, Lyric_t, "why "
8, 16139, Lyric_t, "\015"
8, 16140, Note_on_c, 0, 67, 0
8, 16199, Pitch_bend_c, 0, 8192
8, 16203, Pitch_bend_c, 0, 8192
8, 16207, Pitch_bend_c, 0, 8192
8, 16223, Pitch_bend_c, 0, 8192
8, 16226, Pitch_bend_c, 0, 8192
8, 16231, Pitch_bend_c, 0, 8192
8, 16234, Pitch_bend_c, 0, 8192
8, 16235, Pitch_bend_c, 0, 8192
8, 16237, Pitch_bend_c, 0, 8192
8, 16240, Pitch_bend_c, 0, 7680
8, 16241, Pitch_bend_c, 0, 8192
8, 16243, Pitch_bend_c, 0, 7552
8, 16247, Pitch_bend_c, 0, 7424
8, 16252, Pitch_bend_c, 0, 7296
8, 16253, Pitch_bend_c, 0, 7168
8, 16255, Pitch_bend_c, 0, 7040
8, 16259, Pitch_bend_c, 0, 6912
8, 16262, Pitch_bend_c, 0, 6784
8, 16264, Pitch_bend_c, 0, 6656
8, 16267, Pitch_bend_c, 0, 6528
8, 16269, Pitch_bend_c, 0, 6400
8, 16270, Pitch_bend_c, 0, 6272
8, 16272, Pitch_bend_c, 0, 6016
8, 16275, Pitch_bend_c, 0, 5760
8, 16277, Pitch_bend_c, 0, 5632
8, 16279, Pitch_bend_c, 0, 5504
8, 16281, Pitch_bend_c, 0, 5120
8, 16283, Pitch_bend_c, 0, 4992
8, 16285, Pitch_bend_c, 0, 4736
8, 16287, Pitch_bend_c, 0, 4608
8, 16288, Pitch_bend_c, 0, 4480
8, 16291, Pitch_bend_c, 0, 4224
8, 16293, Pitch_bend_c, 0, 3968
8, 16295, Pitch_bend_c, 0, 3840
8, 16296, Pitch_bend_c, 0, 3712
8, 16298, Pitch_bend_c, 0, 3456
8, 16300, Pitch_bend_c, 0, 3328
8, 16301, Pitch_bend_c, 0, 2944
8, 16304, Pitch_bend_c, 0, 2688
8, 16305, Pitch_bend_c, 0, 2304
8, 16308, Pitch_bend_c, 0, 1920
8, 16309, Pitch_bend_c, 0, 1536
8, 16311, Pitch_bend_c, 0, 1280
8, 16313, Pitch_bend_c, 0, 896
8, 16314, Pitch_bend_c, 0, 640
8, 16316, Pitch_bend_c, 0, 384
8, 16318, Pitch_bend_c, 0, 128
8, 16327, Note_on_c, 0, 69, 0
8, 16398, Pitch_bend_c, 0, 8192
8, 16498, Note_on_c, 0, 65, 99
8, 16498, Lyric_t, "Eve"
8, 16557, Note_on_c, 0, 67, 104
8, 16557, Lyric_t, "ry"
8, 16563, Note_on_c, 0, 65, 0
8, 16616, Note_on_c, 0, 69, 105
8, 16616, Lyric_t, "thing "
8, 16623, Note_on_c, 0, 67, 0
8, 16737, Note_on_c, 0, 70, 105
8, 16737, Lyric_t, "just "
8, 16742, Note_on_c, 0, 69, 0
8, 16813, Pitch_bend_c, 0, 7040
8, 16841, Pitch_bend_c, 0, 8192
8, 16914, Note_on_c, 0, 70, 0
8, 17026, Pitch_bend_c, 0, 6784
8, 17041, Note_on_c, 0, 69, 101
8, 17041, Lyric_t, "turned "
8, 17063, Pitch_bend_c, 0, 8192
8, 17154, Note_on_c, 0, 69, 0
8, 17161, Note_on_c, 0, 67, 108
8, 17161, Lyric_t, "a"
8, 17190, Note_on_c, 0, 67, 0
8, 17218, Note_on_c, 0, 67, 109
8, 17218, Lyric_t, "round "
8, 17218, Lyric_t, "\015"
8, 17323, Note_on_c, 0, 67, 0
8, 17941, Note_on_c, 0, 70, 111
8, 17941, Lyric_t, "Pack"
8, 17999, Note_on_c, 0, 72, 111
8, 17999, Lyric_t, "ing "
8, 18001, Note_on_c, 0, 70, 0
8, 18060, Note_on_c, 0, 74, 106
8, 18060, Lyric_t, "up, "
8, 18060, Lyric_t, "\015"
8, 18063, Note_on_c, 0, 72, 0
8, 18121, Pitch_bend_c, 0, 8192
8, 18125, Pitch_bend_c, 0, 8192
8, 18128, Pitch_bend_c, 0, 8842
8, 18130, Pitch_bend_c, 0, 8972
8, 18132, Pitch_bend_c, 0, 9102
8, 18137, Pitch_bend_c, 0, 9362
8, 18148, Pitch_bend_c, 0, 9232
8, 18149, Pitch_bend_c, 0, 9102
8, 18151, Pitch_bend_c, 0, 8972
8, 18154, Pitch_bend_c, 0, 8842
8, 18155, Pitch_bend_c, 0, 8192
8, 18156, Pitch_bend_c, 0, 8192
8, 18158, Pitch_bend_c, 0, 8192
8, 18162, Pitch_bend_c, 0, 8192
8, 18187, Note_on_c, 0, 74, 0
8, 18416, Note_on_c, 0, 70, 103
8, 18416, Lyric_t, "shac"
8, 18477, Note_on_c, 0, 72, 109
8, 18477, Lyric_t, "king "
8, 18490, Note_on_c, 0, 70, 0
8, 18537, Note_on_c, 0, 74, 99
8, 18537, Lyric_t, "up's "
8, 18543, Note_on_c, 0, 72, 0
8, 18654, Note_on_c, 0, 77, 108
8, 18654, Lyric_t, "all "
8, 18666, Note_on_c, 0, 74, 0
8, 18720, Pitch_bend_c, 0, 6528
8, 18750, Pitch_bend_c, 0, 8192
8, 18837, Note_on_c, 0, 77, 0
8, 18837, Note_on_c, 0, 70, 105
8, 18837, Lyric_t, "you "
8, 18901, Note_on_c, 0, 72, 105
8, 18901, Lyric_t, "wan"
8, 18906, Note_on_c, 0, 70, 0
8, 19070, Note_on_c, 0, 72, 0
8, 19079, Note_on_c, 0, 74, 106
8, 19079, Lyric_t, "na "
8, 19134, Pitch_bend_c, 0, 8192
8, 19135, Pitch_bend_c, 0, 8192
8, 19135, Pitch_bend_c, 0, 8192
8, 19139, Pitch_bend_c, 0, 7552
8, 19141, Pitch_bend_c, 0, 7296
8, 19144, Pitch_bend_c, 0, 7040
8, 19145, Pitch_bend_c, 0, 6656
8, 19147, Pitch_bend_c, 0, 6400
8, 19148, Pitch_bend_c, 0, 6016
8, 19150, Pitch_bend_c, 0, 5760
8, 19152, Pitch_bend_c, 0, 5504
8, 19155, Pitch_bend_c, 0, 5120
8, 19157, Pitch_bend_c, 0, 4864
8, 19158, Pitch_bend_c, 0, 4608
8, 19160, Pitch_bend_c, 0, 4352
8, 19161, Pitch_bend_c, 0, 4224
8, 19163, Pitch_bend_c, 0, 4096
8, 19165, Pitch_bend_c, 0, 3968
8, 19179, Pitch_bend_c, 0, 4224
8, 19181, Pitch_bend_c, 0, 4608
8, 19183, Pitch_bend_c, 0, 5376
8, 19185, Pitch_bend_c, 0, 6912
8, 19186, Pitch_bend_c, 0, 8192
8, 19199, Note_on_c, 0, 74, 0
8, 19199, Note_on_c, 0, 72, 107
8, 19199, Lyric_t, "do "
8, 19199, Lyric_t, "\015"
8, 19199, Lyric_t, "\012"
8, 19290, Pitch_bend_c, 0, 7040
8, 19306, Note_on_c, 0, 72, 0
8, 19343, Pitch_bend_c, 0, 8192
8, 20337, Note_on_c, 0, 65, 103
8, 20337, Lyric_t, "If "
8, 20397, Note_on_c, 0, 67, 101
8, 20397, Lyric_t, "I "
8, 20403, Note_on_c, 0, 65, 0
8, 20457, Note_on_c, 0, 69, 104
8, 20457, Lyric_t, "could "
8, 20457, Lyric_t, "\015"
8, 20466, Note_on_c, 0, 67, 0
8, 20544, Pitch_bend_c, 0, 8192
8, 20548, Pitch_bend_c, 0, 8192
8, 20556, Pitch_bend_c, 0, 8192
8, 20563, Pitch_bend_c, 0, 8192
8, 20568, Pitch_bend_c, 0, 7680
8, 20572, Pitch_bend_c, 0, 7552
8, 20577, Pitch_bend_c, 0, 7424
8, 20579, Pitch_bend_c, 0, 7296
8, 20583, Pitch_bend_c, 0, 7040
8, 20584, Pitch_bend_c, 0, 6912
8, 20588, Pitch_bend_c, 0, 6784
8, 20591, Pitch_bend_c, 0, 6656
8, 20592, Pitch_bend_c, 0, 6528
8, 20595, Pitch_bend_c, 0, 6272
8, 20597, Pitch_bend_c, 0, 6144
8, 20600, Pitch_bend_c, 0, 6016
8, 20604, Pitch_bend_c, 0, 5760
8, 20605, Pitch_bend_c, 0, 5632
8, 20607, Pitch_bend_c, 0, 5504
8, 20608, Pitch_bend_c, 0, 5376
8, 20610, Pitch_bend_c, 0, 5120
8, 20612, Pitch_bend_c, 0, 4864
8, 20614, Pitch_bend_c, 0, 4608
8, 20617, Pitch_bend_c, 0, 4224
8, 20618, Pitch_bend_c, 0, 3968
8, 20620, Pitch_bend_c, 0, 3584
8, 20621, Pitch_bend_c, 0, 3200
8, 20624, Pitch_bend_c, 0, 2816
8, 20626, Pitch_bend_c, 0, 2432
8, 20627, Pitch_bend_c, 0, 2048
8, 20630, Pitch_bend_c, 0, 1536
8, 20632, Pitch_bend_c, 0, 1152
8, 20633, Pitch_bend_c, 0, 896
8, 20634, Pitch_bend_c, 0, 512
8, 20636, Pitch_bend_c, 0, 256
8, 20638, Pitch_bend_c, 0, 0
8, 20654, Note_on_c, 0, 69, 0
8, 20752, Pitch_bend_c, 0, 8192
8, 20821, Note_on_c, 0, 65, 106
8, 20821, Lyric_t, "Ba"
8, 20879, Note_on_c, 0, 67, 104
8, 20879, Lyric_t, "by "
8, 20882, Note_on_c, 0, 65, 0
8, 20939, Note_on_c, 0, 69, 110
8, 20939, Lyric_t, "I'd "
8, 20940, Note_on_c, 0, 67, 0
8, 21058, Note_on_c, 0, 70, 100
8, 21058, Lyric_t, "give "
8, 21063, Note_on_c, 0, 69, 0
8, 21170, Pitch_bend_c, 0, 6912
8, 21190, Note_on_c, 0, 70, 0
8, 21200, Pitch_bend_c, 0, 8192
8, 21340, Pitch_bend_c, 0, 6912
8, 21357, Note_on_c, 0, 69, 114
8, 21357, Lyric_t, "you "
8, 21390, Pitch_bend_c, 0, 8192
8, 21479, Note_on_c, 0, 67, 109
8, 21479, Lyric_t, "my "
8, 21480, Note_on_c, 0, 69, 0
8, 21521, Note_on_c, 0, 67, 0
8, 21540, Note_on_c, 0, 67, 97
8, 21540, Lyric_t, "world "
8, 21540, Lyric_t, "\015"
8, 21669, Note_on_c, 0, 67, 0
8, 22259, Note_on_c, 0, 70, 96
8, 22259, Lyric_t, "O"
8, 22319, Note_on_c, 0, 72, 111
8, 22319, Lyric_t, "pen "
8, 22330, Note_on_c, 0, 70, 0
8, 22379, Note_on_c, 0, 74, 110
8, 22379, Lyric_t, "up "
8, 22379, Lyric_t, "\015"
8, 22383, Note_on_c, 0, 72, 0
8, 22429, Pitch_bend_c, 0, 7040
8, 22462, Pitch_bend_c, 0, 8192
8, 22510, Note_on_c, 0, 74, 0
8, 22741, Note_on_c, 0, 70, 93
8, 22741, Lyric_t, "Ev"
8, 22798, Note_on_c, 0, 72, 102
8, 22798, Lyric_t, "ery"
8, 22805, Note_on_c, 0, 70, 0
8, 22859, Note_on_c, 0, 74, 99
8, 22859, Lyric_t, "thing's "
8, 22867, Note_on_c, 0, 72, 0
8, 22976, Note_on_c, 0, 74, 0
8, 22976, Note_on_c, 0, 77, 101
8, 22976, Lyric_t, "wait"
8, 23023, Pitch_bend_c, 0, 6656
8, 23055, Pitch_bend_c, 0, 8192
8, 23158, Note_on_c, 0, 70, 107
8, 23158, Lyric_t, "ing "
8, 23168, Note_on_c, 0, 77, 0
8, 23219, Note_on_c, 0, 72, 106
8, 23219, Lyric_t, "for "
8, 23224, Note_on_c, 0, 70, 0
8, 23373, Note_on_c, 0, 72, 0
8, 23398, Note_on_c, 0, 74, 103
8, 23398, Lyric_t, "yo"
8, 23448, Pitch_bend_c, 0, 8192
8, 23449, Pitch_bend_c, 0, 8192
8, 23452, Pitch_bend_c, 0, 8192
8, 23456, Pitch_bend_c, 0, 7424
8, 23457, Pitch_bend_c, 0, 7296
8, 23460, Pitch_bend_c, 0, 7040
8, 23461, Pitch_bend_c, 0, 6784
8, 23463, Pitch_bend_c, 0, 6656
8, 23463, Note_on_c, 0, 72, 110
8, 23463, Lyric_t, "u "
8, 23463, Lyric_t, "\015"
8, 23463, Lyric_t, "\012"
8, 23465, Pitch_bend_c, 0, 6400
8, 23467, Pitch_bend_c, 0, 6272
8, 23469, Pitch_bend_c, 0, 6016
8, 23470, Note_on_c, 0, 74, 0
8, 23471, Pitch_bend_c, 0, 5888
8, 23473, Pitch_bend_c, 0, 5632
8, 23474, Pitch_bend_c, 0, 5504
8, 23476, Pitch_bend_c, 0, 5376
8, 23481, Pitch_bend_c, 0, 5120
8, 23492, Pitch_bend_c, 0, 5504
8, 23495, Pitch_bend_c, 0, 5632
8, 23497, Pitch_bend_c, 0, 6016
8, 23498, Pitch_bend_c, 0, 6528
8, 23500, Pitch_bend_c, 0, 8192
8, 23502, Pitch_bend_c, 0, 8192
8, 23590, Note_on_c, 0, 72, 0
8, 24301, Note_on_c, 0, 65, 85
8, 24301, Lyric_t, "You "
8, 24360, Note_on_c, 0, 65, 0
8, 24361, Note_on_c, 0, 62, 85
8, 24361, Lyric_t, "can "
8, 24420, Note_on_c, 0, 62, 0
8, 24420, Note_on_c, 0, 65, 85
8, 24420, Lyric_t, "go "
8, 24542, Note_on_c, 0, 67, 85
8, 24542, Lyric_t, "your "
8, 24550, Note_on_c, 0, 65, 0
8, 24661, Note_on_c, 0, 70, 84
8, 24661, Lyric_t, "own "
8, 24663, Note_on_c, 0, 67, 0
8, 24781, Note_on_c, 0, 72, 84
8, 24781, Lyric_t, "way "
8, 24781, Lyric_t, "\015"
8, 24782, Note_on_c, 0, 76, 71
8, 24786, Note_on_c, 0, 70, 0
8, 25292, Note_on_c, 0, 72, 0
8, 25293, Note_on_c, 0, 76, 0
8, 25366, Pitch_bend_c, 0, 6016
8, 25379, Note_on_c, 0, 81, 105
8, 25379, Lyric_t, "Go "
8, 25406, Pitch_bend_c, 0, 8192
8, 25502, Note_on_c, 0, 79, 105
8, 25502, Lyric_t, "your "
8, 25503, Note_on_c, 0, 81, 0
8, 25621, Note_on_c, 0, 77, 106
8, 25621, Lyric_t, "own "
8, 25626, Note_on_c, 0, 79, 0
8, 25741, Note_on_c, 0, 76, 106
8, 25741, Lyric_t, "way "
8, 25742, Note_on_c, 0, 77, 0
8, 25880, Note_on_c, 0, 77, 94
8, 25886, Note_on_c, 0, 76, 0
8, 25905, Note_on_c, 0, 76, 97
8, 25908, Note_on_c, 0, 77, 0
8, 25925, Note_on_c, 0, 74, 96
8, 25925, Lyric_t, ""
8, 25925, Lyric_t, "\015"
8, 25926, Note_on_c, 0, 76, 0
8, 26010, Pitch_bend_c, 0, 6784
8, 26033, Note_on_c, 0, 74, 0
8, 26046, Pitch_bend_c, 0, 8192
8, 26221, Note_on_c, 0, 65, 85
8, 26221, Lyric_t, "You "
8, 26281, Note_on_c, 0, 62, 85
8, 26281, Lyric_t, "can "
8, 26286, Note_on_c, 0, 65, 0
8, 26340, Note_on_c, 0, 62, 0
8, 26340, Note_on_c, 0, 65, 85
8, 26340, Lyric_t, "call "
8, 26461, Note_on_c, 0, 67, 85
8, 26461, Lyric_t, "it "
8, 26463, Note_on_c, 0, 65, 0
8, 26581, Note_on_c, 0, 70, 84
8, 26581, Lyric_t, "ano"
8, 26583, Note_on_c, 0, 67, 0
8, 26701, Note_on_c, 0, 72, 84
8, 26701, Lyric_t, "ther "
8, 26702, Note_on_c, 0, 76, 71
8, 26710, Note_on_c, 0, 70, 0
8, 26942, Note_on_c, 0, 76, 0
8, 26949, Note_on_c, 0, 72, 0
8, 27000, Note_on_c, 0, 76, 87
8, 27000, Lyric_t, "lone"
8, 27059, Note_on_c, 0, 74, 87
8, 27059, Lyric_t, "ly "
8, 27063, Note_on_c, 0, 76, 0
8, 27121, Note_on_c, 0, 77, 87
8, 27121, Lyric_t, "da"
8, 27124, Note_on_c, 0, 74, 0
8, 27182, Note_on_c, 0, 77, 0
8, 27182, Note_on_c, 0, 76, 87
8, 27182, Lyric_t, "y "
8, 27182, Lyric_t, "\015"
8, 27226, Pitch_bend_c, 0, 6656
8, 27243, Note_on_c, 0, 76, 0
8, 27263, Pitch_bend_c, 0, 8192
8, 28141, Note_on_c, 0, 65, 85
8, 28141, Lyric_t, "You "
8, 28201, Note_on_c, 0, 62, 85
8, 28201, Lyric_t, "can "
8, 28206, Note_on_c, 0, 65, 0
8, 28260, Note_on_c, 0, 65, 85
8, 28260, Lyric_t, "go "
8, 28266, Note_on_c, 0, 62, 0
8, 28382, Note_on_c, 0, 67, 85
8, 28382, Lyric_t, "your "
8, 28390, Note_on_c, 0, 65, 0
8, 28500, Note_on_c, 0, 67, 0
8, 28501, Note_on_c, 0, 70, 84
8, 28501, Lyric_t, "own "
8, 28621, Note_on_c, 0, 72, 84
8, 28621, Lyric_t, "way "
8, 28621, Lyric_t, "\015"
8, 28622, Note_on_c, 0, 76, 71
8, 28633, Note_on_c, 0, 70, 0
8, 29132, Note_on_c, 0, 72, 0
8, 29133, Note_on_c, 0, 76, 0
8, 29206, Pitch_bend_c, 0, 6912
8, 29219, Note_on_c, 0, 82, 105
8, 29219, Lyric_t, "Go "
8, 29243, Pitch_bend_c, 0, 8192
8, 29342, Note_on_c, 0, 79, 105
8, 29342, Lyric_t, "your "
8, 29350, Note_on_c, 0, 82, 0
8, 29456, Note_on_c, 0, 79, 0
8, 29461, Note_on_c, 0, 76, 106
8, 29461, Lyric_t, "own "
8, 29581, Note_on_c, 0, 77, 106
8, 29581, Lyric_t, "way "
8, 29581, Lyric_t, "\015"
8, 29581, Lyric_t, "\012"
8, 29582, Note_on_c, 0, 76, 0
8, 29633, Pitch_bend_c, 0, 8192
8, 29636, Pitch_bend_c, 0, 7680
8, 29639, Pitch_bend_c, 0, 7552
8, 29641, Pitch_bend_c, 0, 7296
8, 29643, Pitch_bend_c, 0, 7040
8, 29644, Pitch_bend_c, 0, 6784
8, 29646, Pitch_bend_c, 0, 6400
8, 29648, Pitch_bend_c, 0, 6144
8, 29649, Pitch_bend_c, 0, 5888
8, 29652, Pitch_bend_c, 0, 5632
8, 29653, Pitch_bend_c, 0, 5504
8, 29655, Pitch_bend_c, 0, 5120
8, 29657, Pitch_bend_c, 0, 4992
8, 29659, Pitch_bend_c, 0, 4864
8, 29661, Pitch_bend_c, 0, 4736
8, 29676, Pitch_bend_c, 0, 4992
8, 29678, Pitch_bend_c, 0, 5120
8, 29681, Pitch_bend_c, 0, 5504
8, 29682, Pitch_bend_c, 0, 5760
8, 29684, Pitch_bend_c, 0, 6144
8, 29685, Pitch_bend_c, 0, 6528
8, 29688, Pitch_bend_c, 0, 7040
8, 29689, Pitch_bend_c, 0, 7552
8, 29691, Pitch_bend_c, 0, 8192
8, 29692, Pitch_bend_c, 0, 8192
8, 29693, Pitch_bend_c, 0, 8192
8, 29748, Note_on_c, 0, 77, 0
8, 38221, Note_on_c, 0, 65, 85
8, 38221, Lyric_t, "You "
8, 38281, Note_on_c, 0, 62, 85
8, 38281, Lyric_t, "can "
8, 38283, Note_on_c, 0, 65, 0
8, 38340, Note_on_c, 0, 62, 0
8, 38340, Note_on_c, 0, 65, 85
8, 38340, Lyric_t, "go "
8, 38460, Note_on_c, 0, 65, 0
8, 38462, Note_on_c, 0, 67, 85
8, 38462, Lyric_t, "your "
8, 38581, Note_on_c, 0, 70, 84
8, 38581, Lyric_t, "own "
8, 38590, Note_on_c, 0, 67, 0
8, 38701, Note_on_c, 0, 72, 84
8, 38701, Lyric_t, "way "
8, 38701, Lyric_t, "\015"
8, 38702, Note_on_c, 0, 76, 71
8, 38703, Note_on_c, 0, 70, 0
8, 39212, Note_on_c, 0, 72, 0
8, 39213, Note_on_c, 0, 76, 0
8, 39289, Pitch_bend_c, 0, 4864
8, 39299, Note_on_c, 0, 81, 105
8, 39299, Lyric_t, "Go "
8, 39323, Pitch_bend_c, 0, 8192
8, 39422, Note_on_c, 0, 79, 105
8, 39422, Lyric_t, "your "
8, 39426, Note_on_c, 0, 81, 0
8, 39541, Note_on_c, 0, 77, 106
8, 39541, Lyric_t, "own "
8, 39550, Note_on_c, 0, 79, 0
8, 39661, Note_on_c, 0, 76, 106
8, 39661, Lyric_t, "way "
8, 39662, Note_on_c, 0, 77, 0
8, 39796, Note_on_c, 0, 76, 0
8, 39796, Note_on_c, 0, 77, 94
8, 39815, Note_on_c, 0, 76, 97
8, 39824, Note_on_c, 0, 77, 0
8, 39845, Note_on_c, 0, 74, 96
8, 39845, Lyric_t, ""
8, 39845, Lyric_t, "\015"
8, 39849, Note_on_c, 0, 76, 0
8, 39953, Note_on_c, 0, 74, 0
8, 40141, Note_on_c, 0, 65, 85
8, 40141, Lyric_t, "You "
8, 40201, Note_on_c, 0, 62, 85
8, 40201, Lyric_t, "can "
8, 40203, Note_on_c, 0, 65, 0
8, 40259, Note_on_c, 0, 62, 0
8, 40260, Note_on_c, 0, 65, 85
8, 40260, Lyric_t, "call "
8, 40381, Note_on_c, 0, 67, 85
8, 40381, Lyric_t, "it "
8, 40386, Note_on_c, 0, 65, 0
8, 40499, Note_on_c, 0, 67, 0
8, 40501, Note_on_c, 0, 70, 84
8, 40501, Lyric_t, "ano"
8, 40621, Note_on_c, 0, 72, 84
8, 40621, Lyric_t, "ther "
8, 40622, Note_on_c, 0, 76, 71
8, 40623, Note_on_c, 0, 70, 0
8, 40862, Note_on_c, 0, 76, 0
8, 40869, Note_on_c, 0, 72, 0
8, 40920, Note_on_c, 0, 76, 87
8, 40920, Lyric_t, "lone"
8, 40979, Note_on_c, 0, 74, 87
8, 40979, Lyric_t, "ly "
8, 40983, Note_on_c, 0, 76, 0
8, 41041, Note_on_c, 0, 77, 87
8, 41041, Lyric_t, "da"
8, 41044, Note_on_c, 0, 74, 0
8, 41102, Note_on_c, 0, 77, 0
8, 41102, Note_on_c, 0, 76, 87
8, 41102, Lyric_t, "y "
8, 41102, Lyric_t, "\015"
8, 41163, Note_on_c, 0, 76, 0
8, 41339, Note_on_c, 0, 77, 106
8, 41339, Lyric_t, "And "
8, 41396, Note_on_c, 0, 77, 0
8, 41398, Note_on_c, 0, 79, 112
8, 41398, Lyric_t, "you "
8, 41456, Note_on_c, 0, 79, 0
8, 41457, Note_on_c, 0, 77, 104
8, 41457, Lyric_t, "can "
8, 41506, Note_on_c, 0, 77, 0
8, 41508, Note_on_c, 0, 79, 105
8, 41508, Lyric_t, "go "
8, 41551, Pitch_bend_c, 0, 8192
8, 41552, Pitch_bend_c, 0, 8192
8, 41553, Pitch_bend_c, 0, 8842
8, 41555, Pitch_bend_c, 0, 9492
8, 41556, Pitch_bend_c, 0, 10012
8, 41558, Pitch_bend_c, 0, 10532
8, 41561, Pitch_bend_c, 0, 11052
8, 41562, Pitch_bend_c, 0, 11702
8, 41565, Pitch_bend_c, 0, 12222
8, 41566, Pitch_bend_c, 0, 12612
8, 41568, Pitch_bend_c, 0, 13002
8, 41569, Pitch_bend_c, 0, 13392
8, 41572, Pitch_bend_c, 0, 13652
8, 41574, Pitch_bend_c, 0, 13782
8, 41580, Pitch_bend_c, 0, 13392
8, 41582, Pitch_bend_c, 0, 13002
8, 41583, Pitch_bend_c, 0, 12352
8, 41586, Pitch_bend_c, 0, 11572
8, 41587, Pitch_bend_c, 0, 10662
8, 41590, Pitch_bend_c, 0, 10012
8, 41591, Pitch_bend_c, 0, 9102
8, 41593, Pitch_bend_c, 0, 8192
8, 41594, Pitch_bend_c, 0, 8192
8, 41636, Note_on_c, 0, 79, 0
8, 41642, Note_on_c, 0, 79, 103
8, 41642, Lyric_t, "your "
8, 41702, Note_on_c, 0, 79, 0
8, 41702, Note_on_c, 0, 77, 107
8, 41702, Lyric_t, "own "
8, 41748, Note_on_c, 0, 77, 0
8, 41761, Note_on_c, 0, 77, 97
8, 41761, Lyric_t, "w"
8, 41820, Note_on_c, 0, 74, 117
8, 41820, Lyric_t, "a"
8, 41821, Note_on_c, 0, 77, 0
8, 41862, Note_on_c, 0, 74, 0
8, 41879, Note_on_c, 0, 74, 106
8, 41879, Lyric_t, "y "
8, 41879, Lyric_t, "\015"
8, 41879, Lyric_t, "\012"
8, 41976, Pitch_bend_c, 0, 8192
8, 41978, Pitch_bend_c, 0, 8192
8, 41982, Pitch_bend_c, 0, 7680
8, 41984, Pitch_bend_c, 0, 7424
8, 41985, Pitch_bend_c, 0, 7296
8, 41987, Pitch_bend_c, 0, 7040
8, 41989, Pitch_bend_c, 0, 6912
8, 41991, Pitch_bend_c, 0, 6784
8, 41993, Pitch_bend_c, 0, 6656
8, 41995, Pitch_bend_c, 0, 6528
8, 41998, Pitch_bend_c, 0, 6400
8, 42010, Note_on_c, 0, 74, 0
8, 42011, Pitch_bend_c, 0, 7168
8, 42013, Pitch_bend_c, 0, 8192
8, 42014, Pitch_bend_c, 0, 8192
8, 42061, Note_on_c, 0, 65, 85
8, 42061, Lyric_t, "You "
8, 42121, Note_on_c, 0, 62, 85
8, 42121, Lyric_t, "can "
8, 42126, Note_on_c, 0, 65, 0
8, 42180, Note_on_c, 0, 62, 0
8, 42180, Note_on_c, 0, 65, 85
8, 42180, Lyric_t, "go "
8, 42302, Note_on_c, 0, 67, 85
8, 42302, Lyric_t, "your "
8, 42310, Note_on_c, 0, 65, 0
8, 42421, Note_on_c, 0, 70, 84
8, 42421, Lyric_t, "own "
8, 42433, Note_on_c, 0, 67, 0
8, 42541, Note_on_c, 0, 72, 84
8, 42541, Lyric_t, "way "
8, 42541, Lyric_t, "\015"
8, 42542, Note_on_c, 0, 76, 71
8, 42546, Note_on_c, 0, 70, 0
8, 43052, Note_on_c, 0, 72, 0
8, 43053, Note_on_c, 0, 76, 0
8, 43133, Pitch_bend_c, 0, 5888
8, 43138, Note_on_c, 0, 81, 110
8, 43138, Lyric_t, "Go "
8, 43171, Pitch_bend_c, 0, 8192
8, 43259, Note_on_c, 0, 79, 112
8, 43259, Lyric_t, "your "
8, 43260, Note_on_c, 0, 81, 0
8, 43382, Note_on_c, 0, 77, 106
8, 43382, Lyric_t, "own "
8, 43386, Note_on_c, 0, 79, 0
8, 43500, Note_on_c, 0, 76, 108
8, 43500, Lyric_t, "way "
8, 43501, Note_on_c, 0, 77, 0
8, 43663, Note_on_c, 0, 76, 0
8, 43675, Note_on_c, 0, 77, 95
8, 43695, Note_on_c, 0, 76, 103
8, 43699, Note_on_c, 0, 77, 0
8, 43733, Note_on_c, 0, 76, 0
8, 43734, Note_on_c, 0, 74, 98
8, 43734, Lyric_t, ""
8, 43734, Lyric_t, "\015"
8, 43824, Note_on_c, 0, 74, 0
8, 43981, Note_on_c, 0, 65, 85
8, 43981, Lyric_t, "You "
8, 44041, Note_on_c, 0, 62, 85
8, 44041, Lyric_t, "can "
8, 44046, Note_on_c, 0, 65, 0
8, 44100, Note_on_c, 0, 65, 85
8, 44100, Lyric_t, "call "
8, 44106, Note_on_c, 0, 62, 0
8, 44221, Note_on_c, 0, 67, 85
8, 44221, Lyric_t, "it "
8, 44223, Note_on_c, 0, 65, 0
8, 44341, Note_on_c, 0, 70, 84
8, 44341, Lyric_t, "ano"
8, 44343, Note_on_c, 0, 67, 0
8, 44461, Note_on_c, 0, 72, 84
8, 44461, Lyric_t, "ther "
8, 44462, Note_on_c, 0, 76, 71
8, 44466, Note_on_c, 0, 70, 0
8, 44702, Note_on_c, 0, 76, 0
8, 44709, Note_on_c, 0, 72, 0
8, 44760, Note_on_c, 0, 76, 87
8, 44760, Lyric_t, "lone"
8, 44819, Note_on_c, 0, 74, 87
8, 44819, Lyric_t, "ly "
8, 44823, Note_on_c, 0, 76, 0
8, 44881, Note_on_c, 0, 77, 87
8, 44881, Lyric_t, "da"
8, 44884, Note_on_c, 0, 74, 0
8, 44942, Note_on_c, 0, 77, 0
8, 44942, Note_on_c, 0, 76, 87
8, 44942, Lyric_t, "y "
8, 44942, Lyric_t, "\015"
8, 44942, Lyric_t, "\012"
8, 45003, Note_on_c, 0, 76, 0
8, 63181, Note_on_c, 0, 65, 85
8, 63181, Lyric_t, "You "
8, 63240, Note_on_c, 0, 65, 0
8, 63241, Note_on_c, 0, 62, 85
8, 63241, Lyric_t, "can "
8, 63300, Note_on_c, 0, 62, 0
8, 63300, Note_on_c, 0, 65, 85
8, 63300, Lyric_t, "go "
8, 63422, Note_on_c, 0, 67, 85
8, 63422, Lyric_t, "your "
8, 63430, Note_on_c, 0, 65, 0
8, 63541, Note_on_c, 0, 70, 84
8, 63541, Lyric_t, "own "
8, 63546, Note_on_c, 0, 67, 0
8, 63661, Note_on_c, 0, 72, 84
8, 63661, Lyric_t, "way "
8, 63661, Lyric_t, "\015"
8, 63662, Note_on_c, 0, 76, 71
8, 63666, Note_on_c, 0, 70, 0
8, 64172, Note_on_c, 0, 72, 0
8, 64173, Note_on_c, 0, 76, 0
8, 65101, Note_on_c, 0, 65, 85
8, 65101, Lyric_t, "You "
8, 65160, Note_on_c, 0, 65, 0
8, 65161, Note_on_c, 0, 62, 85
8, 65161, Lyric_t, "can "
8, 65220, Note_on_c, 0, 62, 0
8, 65220, Note_on_c, 0, 65, 85
8, 65220, Lyric_t, "call "
8, 65341, Note_on_c, 0, 67, 85
8, 65341, Lyric_t, "it "
8, 65343, Note_on_c, 0, 65, 0
8, 65459, Note_on_c, 0, 67, 0
8, 65461, Note_on_c, 0, 70, 84
8, 65461, Lyric_t, "ano"
8, 65581, Note_on_c, 0, 72, 84
8, 65581, Lyric_t, "ther "
8, 65582, Note_on_c, 0, 76, 71
8, 65586, Note_on_c, 0, 70, 0
8, 65822, Note_on_c, 0, 76, 0
8, 65829, Note_on_c, 0, 72, 0
8, 65880, Note_on_c, 0, 76, 87
8, 65880, Lyric_t, "lone"
8, 65936, Note_on_c, 0, 76, 0
8, 65939, Note_on_c, 0, 74, 87
8, 65939, Lyric_t, "ly "
8, 66001, Note_on_c, 0, 77, 87
8, 66001, Lyric_t, "da"
8, 66004, Note_on_c, 0, 74, 0
8, 66062, Note_on_c, 0, 77, 0
8, 66062, Note_on_c, 0, 76, 87
8, 66062, Lyric_t, "y "
8, 66062, Lyric_t, "\015"
8, 66123, Note_on_c, 0, 76, 0
8, 67021, Note_on_c, 0, 65, 80
8, 67021, Lyric_t, "You "
8, 67080, Note_on_c, 0, 65, 0
8, 67081, Note_on_c, 0, 62, 80
8, 67081, Lyric_t, "can "
8, 67140, Note_on_c, 0, 65, 80
8, 67140, Lyric_t, "go "
8, 67143, Note_on_c, 0, 62, 0
8, 67262, Note_on_c, 0, 67, 79
8, 67262, Lyric_t, "your "
8, 67270, Note_on_c, 0, 65, 0
8, 67380, Note_on_c, 0, 67, 0
8, 67381, Note_on_c, 0, 70, 76
8, 67381, Lyric_t, "own "
8, 67501, Note_on_c, 0, 72, 75
8, 67501, Lyric_t, "way "
8, 67501, Lyric_t, "\015"
8, 67502, Note_on_c, 0, 76, 64
8, 67515, Note_on_c, 0, 70, 0
8, 68012, Note_on_c, 0, 72, 0
8, 68013, Note_on_c, 0, 76, 0
8, 68941, Note_on_c, 0, 65, 64
8, 68941, Lyric_t, "You "
8, 69001, Note_on_c, 0, 62, 63
8, 69001, Lyric_t, "can "
8, 69003, Note_on_c, 0, 65, 0
8, 69060, Note_on_c, 0, 65, 63
8, 69060, Lyric_t, "call "
8, 69063, Note_on_c, 0, 62, 0
8, 69181, Note_on_c, 0, 67, 61
8, 69181, Lyric_t, "it "
8, 69183, Note_on_c, 0, 65, 0
8, 69299, Note_on_c, 0, 67, 0
8, 69301, Note_on_c, 0, 70, 60
8, 69301, Lyric_t, "ano"
8, 69421, Note_on_c, 0, 72, 59
8, 69421, Lyric_t, "ther "
8, 69422, Note_on_c, 0, 76, 50
8, 69435, Note_on_c, 0, 70, 0
8, 69662, Note_on_c, 0, 76, 0
8, 69669, Note_on_c, 0, 72, 0
8, 69720, Note_on_c, 0, 76, 58
8, 69720, Lyric_t, "lone"
8, 69779, Note_on_c, 0, 74, 57
8, 69779, Lyric_t, "ly "
8, 69780, Note_on_c, 0, 76, 0
8, 69841, Note_on_c, 0, 77, 57
8, 69841, Lyric_t, "da"
8, 69844, Note_on_c, 0, 74, 0
8, 69902, Note_on_c, 0, 77, 0
8, 69902, Note_on_c, 0, 76, 57
8, 69902, Lyric_t, "y "
8, 69902, Lyric_t, "\015"
8, 69963, Note_on_c, 0, 76, 0
8, 70861, Note_on_c, 0, 65, 47
8, 70861, Lyric_t, "You "
8, 70921, Note_on_c, 0, 62, 47
8, 70921, Lyric_t, "can "
8, 70926, Note_on_c, 0, 65, 0
8, 70980, Note_on_c, 0, 62, 0
8, 70980, Note_on_c, 0, 65, 46
8, 70980, Lyric_t, "go "
8, 71102, Note_on_c, 0, 67, 45
8, 71102, Lyric_t, "your "
8, 71103, Note_on_c, 0, 65, 0
8, 71220, Note_on_c, 0, 67, 0
8, 71221, Note_on_c, 0, 70, 44
8, 71221, Lyric_t, "own "
8, 71341, Note_on_c, 0, 72, 42
8, 71341, Lyric_t, "way "
8, 71341, Lyric_t, "\015"
8, 71342, Note_on_c, 0, 76, 35
8, 71355, Note_on_c, 0, 70, 0
8, 71852, Note_on_c, 0, 72, 0
8, 71853, Note_on_c, 0, 76, 0
8, 72781, Note_on_c, 0, 65, 30
8, 72781, Lyric_t, "You "
8, 72840, Note_on_c, 0, 65, 0
8, 72841, Note_on_c, 0, 62, 29
8, 72841, Lyric_t, "can "
8, 72900, Note_on_c, 0, 62, 0
8, 72900, Note_on_c, 0, 65, 29
8, 72900, Lyric_t, "call "
8, 73021, Note_on_c, 0, 67, 28
8, 73021, Lyric_t, "it "
8, 73023, Note_on_c, 0, 65, 0
8, 73139, Note_on_c, 0, 67, 0
8, 73141, Note_on_c, 0, 70, 27
8, 73141, Lyric_t, "ano"
8, 73261, Note_on_c, 0, 72, 26
8, 73261, Lyric_t, "ther "
8, 73262, Note_on_c, 0, 76, 22
8, 73266, Note_on_c, 0, 70, 0
8, 73502, Note_on_c, 0, 76, 0
8, 73509, Note_on_c, 0, 72, 0
8, 73560, Note_on_c, 0, 76, 24
8, 73560, Lyric_t, "lone"
8, 73619, Note_on_c, 0, 74, 23
8, 73619, Lyric_t, "ly "
8, 73620, Note_on_c, 0, 76, 0
8, 73681, Note_on_c, 0, 77, 23
8, 73681, Lyric_t, "da"
8, 73684, Note_on_c, 0, 74, 0
8, 73742, Note_on_c, 0, 77, 0
8, 73742, Note_on_c, 0, 76, 22
8, 73742, Lyric_t, "y "
8, 73742, Lyric_t, "\015"
8, 73803, Note_on_c, 0, 76, 0
8, 74701, Note_on_c, 0, 65, 5
8, 74701, Lyric_t, "You "
8, 74761, Note_on_c, 0, 62, 4
8, 74761, Lyric_t, "can "
8, 74766, Note_on_c, 0, 65, 0
8, 74820, Note_on_c, 0, 62, 0
8, 74820, Note_on_c, 0, 65, 3
8, 74820, Lyric_t, "go "
8, 74942, Note_on_c, 0, 67, 2
8, 74942, Lyric_t, "your "
8, 74950, Note_on_c, 0, 65, 0
8, 75061, Note_on_c, 0, 70, 2
8, 75061, Lyric_t, "own "
8, 75076, Note_on_c, 0, 67, 0
8, 75181, Note_on_c, 0, 72, 1
8, 75181, Lyric_t, "way "
8, 75181, Lyric_t, "\015"
8, 75181, Lyric_t, "\012"
8, 75181, Lyric_t, "\012"
8, 75181, Lyric_t, "\012"
8, 75182, Note_on_c, 0, 76, 1
8, 75182, Note_on_c, 0, 76, 1
8, 75182, Note_on_c, 0, 76, 1
8, 75186, Note_on_c, 0, 70, 0
8, 75692, Note_on_c, 0, 72, 0
8, 75693, Note_on_c, 0, 76, 0
8, 75693, Note_on_c, 0, 76, 0
8, 75693, Note_on_c, 0, 76, 0
8, 75693, End_track
9, 0, Start_track
9, 99, Control_c, 1, 1, 0
9, 125, Control_c, 1, 0, 0
9, 126, Control_c, 1, 32, 3
9, 127, Program_c, 1, 68
9, 128, Control_c, 1, 7, 98
9, 128, Control_c, 1, 10, 24
9, 189, Control_c, 1, 0, 0
9, 190, Control_c, 1, 32, 0
9, 191, Program_c, 1, 68
9, 194, Control_c, 1, 0, 0
9, 195, Control_c, 1, 32, 3
9, 196, Program_c, 1, 68
9, 198, Control_c, 1, 64, 0
9, 297, Control_c, 1, 11, 127
9, 396, Pitch_bend_c, 1, 8192
9, 495, Control_c, 1, 91, 72
9, 594, Control_c, 1, 93, 5
9, 693, Control_c, 1, 94, 0
9, 10378, Note_on_c, 1, 69, 89
9, 10430, Note_on_c, 1, 67, 89
9, 10434, Note_on_c, 1, 69, 0
9, 10492, Note_on_c, 1, 67, 0
9, 10493, Note_on_c, 1, 69, 89
9, 10624, Note_on_c, 1, 72, 89
9, 10626, Note_on_c, 1, 69, 0
9, 10744, Note_on_c, 1, 65, 89
9, 10747, Note_on_c, 1, 72, 0
9, 10869, Note_on_c, 1, 67, 89
9, 10873, Note_on_c, 1, 65, 0
9, 11403, Note_on_c, 1, 67, 0
9, 12300, Note_on_c, 1, 69, 101
9, 12360, Note_on_c, 1, 67, 93
9, 12361, Note_on_c, 1, 69, 0
9, 12420, Note_on_c, 1, 69, 95
9, 12422, Note_on_c, 1, 67, 0
9, 12546, Note_on_c, 1, 69, 0
9, 12547, Note_on_c, 1, 72, 84
9, 12660, Note_on_c, 1, 65, 89
9, 12670, Note_on_c, 1, 72, 0
9, 12777, Note_on_c, 1, 65, 0
9, 12780, Note_on_c, 1, 67, 89
9, 13043, Note_on_c, 1, 67, 0
9, 13083, Note_on_c, 1, 67, 93
9, 13140, Note_on_c, 1, 65, 93
9, 13149, Note_on_c, 1, 67, 0
9, 13198, Note_on_c, 1, 65, 0
9, 13200, Note_on_c, 1, 69, 100
9, 13263, Note_on_c, 1, 69, 0
9, 13263, Note_on_c, 1, 67, 107
9, 13333, Note_on_c, 1, 67, 0
9, 14218, Note_on_c, 1, 69, 89
9, 14270, Note_on_c, 1, 67, 89
9, 14274, Note_on_c, 1, 69, 0
9, 14332, Note_on_c, 1, 67, 0
9, 14333, Note_on_c, 1, 69, 89
9, 14464, Note_on_c, 1, 72, 89
9, 14466, Note_on_c, 1, 69, 0
9, 14584, Note_on_c, 1, 65, 89
9, 14587, Note_on_c, 1, 72, 0
9, 14709, Note_on_c, 1, 67, 89
9, 14713, Note_on_c, 1, 65, 0
9, 15243, Note_on_c, 1, 67, 0
9, 24298, Note_on_c, 1, 69, 89
9, 24350, Note_on_c, 1, 67, 89
9, 24354, Note_on_c, 1, 69, 0
9, 24412, Note_on_c, 1, 67, 0
9, 24413, Note_on_c, 1, 69, 89
9, 24544, Note_on_c, 1, 72, 89
9, 24546, Note_on_c, 1, 69, 0
9, 24664, Note_on_c, 1, 65, 89
9, 24667, Note_on_c, 1, 72, 0
9, 24789, Note_on_c, 1, 67, 89
9, 24793, Note_on_c, 1, 65, 0
9, 25323, Note_on_c, 1, 67, 0
9, 26220, Note_on_c, 1, 69, 101
9, 26280, Note_on_c, 1, 67, 93
9, 26281, Note_on_c, 1, 69, 0
9, 26340, Note_on_c, 1, 69, 95
9, 26342, Note_on_c, 1, 67, 0
9, 26466, Note_on_c, 1, 69, 0
9, 26467, Note_on_c, 1, 72, 84
9, 26580, Note_on_c, 1, 65, 89
9, 26590, Note_on_c, 1, 72, 0
9, 26697, Note_on_c, 1, 65, 0
9, 26700, Note_on_c, 1, 67, 89
9, 26963, Note_on_c, 1, 67, 0
9, 27003, Note_on_c, 1, 67, 93
9, 27060, Note_on_c, 1, 65, 93
9, 27069, Note_on_c, 1, 67, 0
9, 27118, Note_on_c, 1, 65, 0
9, 27120, Note_on_c, 1, 69, 100
9, 27183, Note_on_c, 1, 69, 0
9, 27183, Note_on_c, 1, 67, 107
9, 27253, Note_on_c, 1, 67, 0
9, 28138, Note_on_c, 1, 69, 89
9, 28190, Note_on_c, 1, 67, 89
9, 28194, Note_on_c, 1, 69, 0
9, 28252, Note_on_c, 1, 67, 0
9, 28253, Note_on_c, 1, 69, 89
9, 28384, Note_on_c, 1, 72, 89
9, 28386, Note_on_c, 1, 69, 0
9, 28504, Note_on_c, 1, 65, 89
9, 28507, Note_on_c, 1, 72, 0
9, 28629, Note_on_c, 1, 67, 89
9, 28633, Note_on_c, 1, 65, 0
9, 29163, Note_on_c, 1, 67, 0
9, 38218, Note_on_c, 1, 69, 89
9, 38270, Note_on_c, 1, 67, 89
9, 38274, Note_on_c, 1, 69, 0
9, 38332, Note_on_c, 1, 67, 0
9, 38333, Note_on_c, 1, 69, 89
9, 38464, Note_on_c, 1, 72, 89
9, 38466, Note_on_c, 1, 69, 0
9, 38584, Note_on_c, 1, 65, 89
9, 38587, Note_on_c, 1, 72, 0
9, 38709, Note_on_c, 1, 67, 89
9, 38713, Note_on_c, 1, 65, 0
9, 39243, Note_on_c, 1, 67, 0
9, 40140, Note_on_c, 1, 69, 101
9, 40200, Note_on_c, 1, 67, 93
9, 40201, Note_on_c, 1, 69, 0
9, 40260, Note_on_c, 1, 69, 95
9, 40262, Note_on_c, 1, 67, 0
9, 40386, Note_on_c, 1, 69, 0
9, 40387, Note_on_c, 1, 72, 84
9, 40500, Note_on_c, 1, 65, 89
9, 40510, Note_on_c, 1, 72, 0
9, 40617, Note_on_c, 1, 65, 0
9, 40620, Note_on_c, 1, 67, 89
9, 40883, Note_on_c, 1, 67, 0
9, 40923, Note_on_c, 1, 67, 93
9, 40980, Note_on_c, 1, 65, 93
9, 40989, Note_on_c, 1, 67, 0
9, 41038, Note_on_c, 1, 65, 0
9, 41040, Note_on_c, 1, 69, 100
9, 41103, Note_on_c, 1, 69, 0
9, 41103, Note_on_c, 1, 67, 107
9, 41173, Note_on_c, 1, 67, 0
9, 42058, Note_on_c, 1, 69, 89
9, 42110, Note_on_c, 1, 67, 89
9, 42114, Note_on_c, 1, 69, 0
9, 42172, Note_on_c, 1, 67, 0
9, 42173, Note_on_c, 1, 69, 89
9, 42304, Note_on_c, 1, 72, 89
9, 42306, Note_on_c, 1, 69, 0
9, 42424, Note_on_c, 1, 65, 89
9, 42427, Note_on_c, 1, 72, 0
9, 42549, Note_on_c, 1, 67, 89
9, 42553, Note_on_c, 1, 65, 0
9, 43083, Note_on_c, 1, 67, 0
9, 43980, Note_on_c, 1, 69, 101
9, 44040, Note_on_c, 1, 67, 93
9, 44041, Note_on_c, 1, 69, 0
9, 44100, Note_on_c, 1, 69, 95
9, 44102, Note_on_c, 1, 67, 0
9, 44226, Note_on_c, 1, 69, 0
9, 44227, Note_on_c, 1, 72, 84
9, 44340, Note_on_c, 1, 65, 89
9, 44350, Note_on_c, 1, 72, 0
9, 44457, Note_on_c, 1, 65, 0
9, 44460, Note_on_c, 1, 67, 89
9, 44723, Note_on_c, 1, 67, 0
9, 44763, Note_on_c, 1, 67, 93
9, 44820, Note_on_c, 1, 65, 93
9, 44829, Note_on_c, 1, 67, 0
9, 44878, Note_on_c, 1, 65, 0
9, 44880, Note_on_c, 1, 69, 100
9, 44943, Note_on_c, 1, 69, 0
9, 44943, Note_on_c, 1, 67, 107
9, 45013, Note_on_c, 1, 67, 0
9, 63178, Note_on_c, 1, 69, 89
9, 63230, Note_on_c, 1, 67, 89
9, 63234, Note_on_c, 1, 69, 0
9, 63292, Note_on_c, 1, 67, 0
9, 63293, Note_on_c, 1, 69, 89
9, 63424, Note_on_c, 1, 72, 89
9, 63426, Note_on_c, 1, 69, 0
9, 63544, Note_on_c, 1, 65, 89
9, 63547, Note_on_c, 1, 72, 0
9, 63669, Note_on_c, 1, 67, 89
9, 63673, Note_on_c, 1, 65, 0
9, 64203, Note_on_c, 1, 67, 0
9, 65100, Note_on_c, 1, 69, 101
9, 65160, Note_on_c, 1, 67, 93
9, 65161, Note_on_c, 1, 69, 0
9, 65220, Note_on_c, 1, 69, 95
9, 65222, Note_on_c, 1, 67, 0
9, 65346, Note_on_c, 1, 69, 0
9, 65347, Note_on_c, 1, 72, 84
9, 65460, Note_on_c, 1, 65, 89
9, 65470, Note_on_c, 1, 72, 0
9, 65577, Note_on_c, 1, 65, 0
9, 65580, Note_on_c, 1, 67, 89
9, 65843, Note_on_c, 1, 67, 0
9, 65883, Note_on_c, 1, 67, 93
9, 65940, Note_on_c, 1, 65, 93
9, 65949, Note_on_c, 1, 67, 0
9, 65998, Note_on_c, 1, 65, 0
9, 66000, Note_on_c, 1, 69, 100
9, 66063, Note_on_c, 1, 69, 0
9, 66063, Note_on_c, 1, 67, 107
9, 66133, Note_on_c, 1, 67, 0
9, 67018, Note_on_c, 1, 69, 84
9, 67070, Note_on_c, 1, 67, 84
9, 67074, Note_on_c, 1, 69, 0
9, 67132, Note_on_c, 1, 67, 0
9, 67133, Note_on_c, 1, 69, 83
9, 67264, Note_on_c, 1, 72, 82
9, 67266, Note_on_c, 1, 69, 0
9, 67384, Note_on_c, 1, 65, 81
9, 67387, Note_on_c, 1, 72, 0
9, 67509, Note_on_c, 1, 67, 80
9, 67513, Note_on_c, 1, 65, 0
9, 68043, Note_on_c, 1, 67, 0
9, 68940, Note_on_c, 1, 69, 76
9, 69000, Note_on_c, 1, 67, 69
9, 69001, Note_on_c, 1, 69, 0
9, 69060, Note_on_c, 1, 69, 71
9, 69062, Note_on_c, 1, 67, 0
9, 69186, Note_on_c, 1, 69, 0
9, 69187, Note_on_c, 1, 72, 61
9, 69300, Note_on_c, 1, 65, 64
9, 69310, Note_on_c, 1, 72, 0
9, 69417, Note_on_c, 1, 65, 0
9, 69420, Note_on_c, 1, 67, 63
9, 69683, Note_on_c, 1, 67, 0
9, 69723, Note_on_c, 1, 67, 63
9, 69780, Note_on_c, 1, 65, 62
9, 69789, Note_on_c, 1, 67, 0
9, 69838, Note_on_c, 1, 65, 0
9, 69840, Note_on_c, 1, 69, 67
9, 69903, Note_on_c, 1, 69, 0
9, 69903, Note_on_c, 1, 67, 70
9, 69973, Note_on_c, 1, 67, 0
9, 70858, Note_on_c, 1, 69, 49
9, 70910, Note_on_c, 1, 67, 49
9, 70914, Note_on_c, 1, 69, 0
9, 70972, Note_on_c, 1, 67, 0
9, 70973, Note_on_c, 1, 69, 48
9, 71104, Note_on_c, 1, 72, 48
9, 71106, Note_on_c, 1, 69, 0
9, 71224, Note_on_c, 1, 65, 47
9, 71227, Note_on_c, 1, 72, 0
9, 71349, Note_on_c, 1, 67, 45
9, 71353, Note_on_c, 1, 65, 0
9, 71883, Note_on_c, 1, 67, 0
9, 72780, Note_on_c, 1, 69, 37
9, 72840, Note_on_c, 1, 67, 33
9, 72841, Note_on_c, 1, 69, 0
9, 72900, Note_on_c, 1, 69, 34
9, 72902, Note_on_c, 1, 67, 0
9, 73026, Note_on_c, 1, 69, 0
9, 73027, Note_on_c, 1, 72, 28
9, 73140, Note_on_c, 1, 65, 29
9, 73150, Note_on_c, 1, 72, 0
9, 73257, Note_on_c, 1, 65, 0
9, 73260, Note_on_c, 1, 67, 28
9, 73523, Note_on_c, 1, 67, 0
9, 73563, Note_on_c, 1, 67, 26
9, 73620, Note_on_c, 1, 65, 26
9, 73629, Note_on_c, 1, 67, 0
9, 73678, Note_on_c, 1, 65, 0
9, 73680, Note_on_c, 1, 69, 28
9, 73743, Note_on_c, 1, 69, 0
9, 73743, Note_on_c, 1, 67, 28
9, 73813, Note_on_c, 1, 67, 0
9, 74698, Note_on_c, 1, 69, 5
9, 74750, Note_on_c, 1, 67, 5
9, 74754, Note_on_c, 1, 69, 0
9, 74812, Note_on_c, 1, 67, 0
9, 74813, Note_on_c, 1, 69, 4
9, 74944, Note_on_c, 1, 72, 3
9, 74946, Note_on_c, 1, 69, 0
9, 75064, Note_on_c, 1, 65, 2
9, 75067, Note_on_c, 1, 72, 0
9, 75189, Note_on_c, 1, 67, 1
9, 75193, Note_on_c, 1, 65, 0
9, 75723, Note_on_c, 1, 67, 0
9, 75723, End_track
10, 0, Start_track
10, 85, Control_c, 2, 99, 1
10, 86, Control_c, 2, 98, 100
10, 87, Control_c, 2, 6, 66
10, 88, Control_c, 2, 38, 0
10, 130, Control_c, 2, 0, 0
10, 131, Control_c, 2, 32, 2
10, 132, Program_c, 2, 25
10, 133, Control_c, 2, 7, 103
10, 133, Control_c, 2, 10, 64
10, 176, Control_c, 2, 1, 0
10, 264, Control_c, 2, 64, 0
10, 352, Control_c, 2, 11, 127
10, 440, Pitch_bend_c, 2, 8192
10, 528, Control_c, 2, 91, 70
10, 616, Control_c, 2, 93, 16
10, 704, Control_c, 2, 94, 0
10, 790, Control_c, 2, 0, 0
10, 791, Control_c, 2, 32, 0
10, 792, Program_c, 2, 25
10, 878, Control_c, 2, 0, 0
10, 879, Control_c, 2, 32, 2
10, 880, Program_c, 2, 25
10, 1920, Note_on_c, 2, 69, 71
10, 1920, Note_on_c, 2, 60, 72
10, 1920, Note_on_c, 2, 65, 55
10, 2026, Note_on_c, 2, 69, 0
10, 2040, Note_on_c, 2, 67, 51
10, 2066, Note_on_c, 2, 60, 0
10, 2067, Note_on_c, 2, 65, 0
10, 2085, Note_on_c, 2, 67, 0
10, 2100, Note_on_c, 2, 65, 64
10, 2100, Note_on_c, 2, 60, 75
10, 2100, Note_on_c, 2, 69, 87
10, 2354, Note_on_c, 2, 60, 0
10, 2359, Note_on_c, 2, 69, 0
10, 2362, Note_on_c, 2, 65, 0
10, 2400, Note_on_c, 2, 69, 68
10, 2400, Note_on_c, 2, 60, 75
10, 2400, Note_on_c, 2, 65, 54
10, 2520, Note_on_c, 2, 67, 45
10, 2526, Note_on_c, 2, 69, 0
10, 2538, Note_on_c, 2, 65, 0
10, 2555, Note_on_c, 2, 67, 0
10, 2566, Note_on_c, 2, 60, 0
10, 2580, Note_on_c, 2, 60, 33
10, 2580, Note_on_c, 2, 69, 72
10, 2580, Note_on_c, 2, 65, 70
10, 2792, Note_on_c, 2, 65, 0
10, 2801, Note_on_c, 2, 60, 0
10, 2803, Note_on_c, 2, 69, 0
10, 2880, Note_on_c, 2, 69, 71
10, 2880, Note_on_c, 2, 60, 70
10, 2880, Note_on_c, 2, 65, 57
10, 2983, Note_on_c, 2, 69, 0
10, 3005, Note_on_c, 2, 67, 44
10, 3024, Note_on_c, 2, 65, 0
10, 3040, Note_on_c, 2, 67, 0
10, 3060, Note_on_c, 2, 69, 57
10, 3060, Note_on_c, 2, 65, 40
10, 3179, Note_on_c, 2, 69, 0
10, 3180, Note_on_c, 2, 67, 53
10, 3210, Note_on_c, 2, 67, 0
10, 3211, Note_on_c, 2, 65, 0
10, 3231, Note_on_c, 2, 60, 0
10, 3240, Note_on_c, 2, 70, 66
10, 3240, Note_on_c, 2, 67, 66
10, 3240, Note_on_c, 2, 60, 66
10, 3260, Note_on_c, 2, 70, 0
10, 3266, Note_on_c, 2, 60, 0
10, 3267, Note_on_c, 2, 67, 0
10, 3300, Note_on_c, 2, 70, 66
10, 3300, Note_on_c, 2, 60, 66
10, 3300, Note_on_c, 2, 67, 66
10, 3330, Note_on_c, 2, 70, 0
10, 3339, Note_on_c, 2, 67, 0
10, 3340, Note_on_c, 2, 60, 0
10, 3360, Note_on_c, 2, 60, 65
10, 3360, Note_on_c, 2, 52, 42
10, 3376, Note_on_c, 2, 60, 0
10, 3382, Note_on_c, 2, 52, 0
10, 3420, Note_on_c, 2, 52, 53
10, 3420, Note_on_c, 2, 60, 55
10, 3420, Note_on_c, 2, 55, 57
10, 3438, Note_on_c, 2, 55, 0
10, 3438, Note_on_c, 2, 60, 0
10, 3440, Note_on_c, 2, 52, 0
10, 3480, Note_on_c, 2, 60, 68
10, 3480, Note_on_c, 2, 52, 45
10, 3480, Note_on_c, 2, 55, 55
10, 3480, Note_on_c, 2, 58, 35
10, 3496, Note_on_c, 2, 58, 0
10, 3500, Note_on_c, 2, 55, 0
10, 3510, Note_on_c, 2, 52, 0
10, 3520, Note_on_c, 2, 60, 0
10, 3540, Note_on_c, 2, 60, 62
10, 3540, Note_on_c, 2, 52, 54
10, 3540, Note_on_c, 2, 55, 65
10, 3540, Note_on_c, 2, 58, 50
10, 3564, Note_on_c, 2, 58, 0
10, 3580, Note_on_c, 2, 55, 0
10, 3580, Note_on_c, 2, 60, 0
10, 3584, Note_on_c, 2, 52, 0
10, 3600, Note_on_c, 2, 60, 80
10, 3600, Note_on_c, 2, 52, 68
10, 3600, Note_on_c, 2, 58, 61
10, 3600, Note_on_c, 2, 55, 70
10, 3630, Note_on_c, 2, 58, 0
10, 3640, Note_on_c, 2, 55, 0
10, 3644, Note_on_c, 2, 60, 0
10, 3646, Note_on_c, 2, 52, 0
10, 3660, Note_on_c, 2, 60, 72
10, 3660, Note_on_c, 2, 52, 74
10, 3660, Note_on_c, 2, 58, 61
10, 3660, Note_on_c, 2, 55, 70
10, 3696, Note_on_c, 2, 58, 0
10, 3702, Note_on_c, 2, 55, 0
10, 3706, Note_on_c, 2, 60, 0
10, 3708, Note_on_c, 2, 52, 0
10, 3720, Note_on_c, 2, 60, 76
10, 3720, Note_on_c, 2, 52, 80
10, 3720, Note_on_c, 2, 55, 66
10, 3720, Note_on_c, 2, 58, 62
10, 3742, Note_on_c, 2, 55, 0
10, 3748, Note_on_c, 2, 58, 0
10, 3764, Note_on_c, 2, 60, 0
10, 3768, Note_on_c, 2, 52, 0
10, 3780, Note_on_c, 2, 58, 79
10, 3780, Note_on_c, 2, 62, 82
10, 3780, Note_on_c, 2, 65, 63
10, 3936, Note_on_c, 2, 65, 0
10, 3939, Note_on_c, 2, 62, 0
10, 3939, Note_on_c, 2, 58, 0
10, 3960, Note_on_c, 2, 58, 76
10, 3960, Note_on_c, 2, 65, 65
10, 3960, Note_on_c, 2, 62, 63
10, 3968, Note_on_c, 2, 62, 0
10, 3975, Note_on_c, 2, 65, 0
10, 3980, Note_on_c, 2, 58, 0
10, 4020, Note_on_c, 2, 58, 65
10, 4020, Note_on_c, 2, 65, 53
10, 4020, Note_on_c, 2, 62, 74
10, 4194, Note_on_c, 2, 65, 0
10, 4213, Note_on_c, 2, 62, 0
10, 4217, Note_on_c, 2, 58, 0
10, 4260, Note_on_c, 2, 62, 76
10, 4260, Note_on_c, 2, 65, 56
10, 4260, Note_on_c, 2, 58, 72
10, 4386, Note_on_c, 2, 62, 0
10, 4390, Note_on_c, 2, 65, 0
10, 4395, Note_on_c, 2, 58, 0
10, 4440, Note_on_c, 2, 58, 62
10, 4440, Note_on_c, 2, 65, 57
10, 4440, Note_on_c, 2, 62, 80
10, 4450, Note_on_c, 2, 62, 0
10, 4453, Note_on_c, 2, 65, 0
10, 4458, Note_on_c, 2, 58, 0
10, 4500, Note_on_c, 2, 58, 68
10, 4500, Note_on_c, 2, 65, 57
10, 4500, Note_on_c, 2, 62, 70
10, 4664, Note_on_c, 2, 58, 0
10, 4665, Note_on_c, 2, 62, 0
10, 4666, Note_on_c, 2, 65, 0
10, 4740, Note_on_c, 2, 58, 73
10, 4740, Note_on_c, 2, 62, 84
10, 4740, Note_on_c, 2, 65, 65
10, 4880, Note_on_c, 2, 65, 0
10, 4882, Note_on_c, 2, 58, 0
10, 4885, Note_on_c, 2, 62, 0
10, 4920, Note_on_c, 2, 58, 71
10, 4920, Note_on_c, 2, 62, 57
10, 4920, Note_on_c, 2, 65, 57
10, 4937, Note_on_c, 2, 62, 0
10, 4939, Note_on_c, 2, 65, 0
10, 4940, Note_on_c, 2, 58, 0
10, 4980, Note_on_c, 2, 65, 46
10, 4980, Note_on_c, 2, 58, 59
10, 4980, Note_on_c, 2, 62, 79
10, 5086, Note_on_c, 2, 65, 0
10, 5093, Note_on_c, 2, 62, 0
10, 5095, Note_on_c, 2, 58, 0
10, 5100, Note_on_c, 2, 58, 63
10, 5100, Note_on_c, 2, 65, 73
10, 5100, Note_on_c, 2, 62, 53
10, 5117, Note_on_c, 2, 62, 0
10, 5122, Note_on_c, 2, 65, 0
10, 5122, Note_on_c, 2, 58, 0
10, 5160, Note_on_c, 2, 65, 54
10, 5160, Note_on_c, 2, 58, 59
10, 5160, Note_on_c, 2, 62, 68
10, 5187, Note_on_c, 2, 62, 0
10, 5190, Note_on_c, 2, 58, 0
10, 5192, Note_on_c, 2, 65, 0
10, 5220, Note_on_c, 2, 58, 71
10, 5220, Note_on_c, 2, 65, 64
10, 5220, Note_on_c, 2, 62, 68
10, 5234, Note_on_c, 2, 62, 0
10, 5238, Note_on_c, 2, 58, 0
10, 5240, Note_on_c, 2, 65, 0
10, 5280, Note_on_c, 2, 69, 71
10, 5280, Note_on_c, 2, 60, 72
10, 5280, Note_on_c, 2, 65, 55
10, 5386, Note_on_c, 2, 69, 0
10, 5400, Note_on_c, 2, 67, 51
10, 5426, Note_on_c, 2, 60, 0
10, 5427, Note_on_c, 2, 65, 0
10, 5445, Note_on_c, 2, 67, 0
10, 5460, Note_on_c, 2, 65, 64
10, 5460, Note_on_c, 2, 60, 75
10, 5460, Note_on_c, 2, 69, 87
10, 5714, Note_on_c, 2, 60, 0
10, 5719, Note_on_c, 2, 69, 0
10, 5722, Note_on_c, 2, 65, 0
10, 5760, Note_on_c, 2, 69, 68
10, 5760, Note_on_c, 2, 60, 75
10, 5760, Note_on_c, 2, 65, 54
10, 5880, Note_on_c, 2, 67, 45
10, 5886, Note_on_c, 2, 69, 0
10, 5898, Note_on_c, 2, 65, 0
10, 5915, Note_on_c, 2, 67, 0
10, 5926, Note_on_c, 2, 60, 0
10, 5940, Note_on_c, 2, 60, 33
10, 5940, Note_on_c, 2, 69, 72
10, 5940, Note_on_c, 2, 65, 70
10, 6152, Note_on_c, 2, 65, 0
10, 6161, Note_on_c, 2, 60, 0
10, 6163, Note_on_c, 2, 69, 0
10, 6240, Note_on_c, 2, 69, 71
10, 6240, Note_on_c, 2, 60, 72
10, 6240, Note_on_c, 2, 65, 55
10, 6346, Note_on_c, 2, 69, 0
10, 6360, Note_on_c, 2, 67, 51
10, 6386, Note_on_c, 2, 60, 0
10, 6387, Note_on_c, 2, 65, 0
10, 6405, Note_on_c, 2, 67, 0
10, 6420, Note_on_c, 2, 65, 64
10, 6420, Note_on_c, 2, 60, 75
10, 6420, Note_on_c, 2, 69, 87
10, 6674, Note_on_c, 2, 60, 0
10, 6679, Note_on_c, 2, 69, 0
10, 6682, Note_on_c, 2, 65, 0
10, 6720, Note_on_c, 2, 69, 68
10, 6720, Note_on_c, 2, 60, 75
10, 6720, Note_on_c, 2, 65, 54
10, 6840, Note_on_c, 2, 67, 45
10, 6846, Note_on_c, 2, 69, 0
10, 6858, Note_on_c, 2, 65, 0
10, 6875, Note_on_c, 2, 67, 0
10, 6886, Note_on_c, 2, 60, 0
10, 6900, Note_on_c, 2, 60, 33
10, 6900, Note_on_c, 2, 69, 72
10, 6900, Note_on_c, 2, 65, 70
10, 7112, Note_on_c, 2, 65, 0
10, 7121, Note_on_c, 2, 60, 0
10, 7123, Note_on_c, 2, 69, 0
10, 7200, Note_on_c, 2, 69, 71
10, 7200, Note_on_c, 2, 60, 70
10, 7200, Note_on_c, 2, 65, 57
10, 7303, Note_on_c, 2, 69, 0
10, 7325, Note_on_c, 2, 67, 44
10, 7344, Note_on_c, 2, 65, 0
10, 7360, Note_on_c, 2, 67, 0
10, 7380, Note_on_c, 2, 69, 57
10, 7380, Note_on_c, 2, 65, 40
10, 7499, Note_on_c, 2, 69, 0
10, 7531, Note_on_c, 2, 65, 0
10, 7551, Note_on_c, 2, 60, 0
10, 7560, Note_on_c, 2, 60, 66
10, 7563, Note_on_c, 2, 69, 66
10, 7663, Note_on_c, 2, 69, 0
10, 7663, Note_on_c, 2, 60, 0
10, 7680, Note_on_c, 2, 60, 65
10, 7680, Note_on_c, 2, 52, 42
10, 7696, Note_on_c, 2, 60, 0
10, 7702, Note_on_c, 2, 52, 0
10, 7740, Note_on_c, 2, 52, 53
10, 7740, Note_on_c, 2, 60, 55
10, 7740, Note_on_c, 2, 55, 57
10, 7758, Note_on_c, 2, 55, 0
10, 7758, Note_on_c, 2, 60, 0
10, 7760, Note_on_c, 2, 52, 0
10, 7800, Note_on_c, 2, 60, 68
10, 7800, Note_on_c, 2, 52, 45
10, 7800, Note_on_c, 2, 55, 55
10, 7800, Note_on_c, 2, 58, 35
10, 7816, Note_on_c, 2, 58, 0
10, 7820, Note_on_c, 2, 55, 0
10, 7830, Note_on_c, 2, 52, 0
10, 7840, Note_on_c, 2, 60, 0
10, 7860, Note_on_c, 2, 60, 62
10, 7860, Note_on_c, 2, 52, 54
10, 7860, Note_on_c, 2, 55, 65
10, 7860, Note_on_c, 2, 58, 50
10, 7884, Note_on_c, 2, 58, 0
10, 7900, Note_on_c, 2, 55, 0
10, 7900, Note_on_c, 2, 60, 0
10, 7904, Note_on_c, 2, 52, 0
10, 7920, Note_on_c, 2, 60, 80
10, 7920, Note_on_c, 2, 52, 68
10, 7920, Note_on_c, 2, 58, 61
10, 7920, Note_on_c, 2, 55, 70
10, 7950, Note_on_c, 2, 58, 0
10, 7960, Note_on_c, 2, 55, 0
10, 7964, Note_on_c, 2, 60, 0
10, 7966, Note_on_c, 2, 52, 0
10, 7980, Note_on_c, 2, 60, 72
10, 7980, Note_on_c, 2, 52, 74
10, 7980, Note_on_c, 2, 58, 61
10, 7980, Note_on_c, 2, 55, 70
10, 8016, Note_on_c, 2, 58, 0
10, 8022, Note_on_c, 2, 55, 0
10, 8026, Note_on_c, 2, 60, 0
10, 8028, Note_on_c, 2, 52, 0
10, 8040, Note_on_c, 2, 60, 76
10, 8040, Note_on_c, 2, 52, 80
10, 8040, Note_on_c, 2, 55, 66
10, 8040, Note_on_c, 2, 58, 62
10, 8062, Note_on_c, 2, 55, 0
10, 8068, Note_on_c, 2, 58, 0
10, 8084, Note_on_c, 2, 60, 0
10, 8088, Note_on_c, 2, 52, 0
10, 8100, Note_on_c, 2, 58, 79
10, 8100, Note_on_c, 2, 62, 82
10, 8100, Note_on_c, 2, 65, 63
10, 8256, Note_on_c, 2, 65, 0
10, 8259, Note_on_c, 2, 62, 0
10, 8259, Note_on_c, 2, 58, 0
10, 8280, Note_on_c, 2, 58, 76
10, 8280, Note_on_c, 2, 65, 65
10, 8280, Note_on_c, 2, 62, 63
10, 8288, Note_on_c, 2, 62, 0
10, 8295, Note_on_c, 2, 65, 0
10, 8300, Note_on_c, 2, 58, 0
10, 8340, Note_on_c, 2, 58, 65
10, 8340, Note_on_c, 2, 65, 53
10, 8340, Note_on_c, 2, 62, 74
10, 8514, Note_on_c, 2, 65, 0
10, 8533, Note_on_c, 2, 62, 0
10, 8537, Note_on_c, 2, 58, 0
10, 8580, Note_on_c, 2, 62, 76
10, 8580, Note_on_c, 2, 65, 56
10, 8580, Note_on_c, 2, 58, 72
10, 8706, Note_on_c, 2, 62, 0
10, 8710, Note_on_c, 2, 65, 0
10, 8715, Note_on_c, 2, 58, 0
10, 8760, Note_on_c, 2, 58, 62
10, 8760, Note_on_c, 2, 65, 57
10, 8760, Note_on_c, 2, 62, 80
10, 8770, Note_on_c, 2, 62, 0
10, 8773, Note_on_c, 2, 65, 0
10, 8778, Note_on_c, 2, 58, 0
10, 8820, Note_on_c, 2, 58, 68
10, 8820, Note_on_c, 2, 65, 57
10, 8820, Note_on_c, 2, 62, 70
10, 8984, Note_on_c, 2, 58, 0
10, 8985, Note_on_c, 2, 62, 0
10, 8986, Note_on_c, 2, 65, 0
10, 9060, Note_on_c, 2, 58, 73
10, 9060, Note_on_c, 2, 62, 84
10, 9060, Note_on_c, 2, 65, 65
10, 9200, Note_on_c, 2, 65, 0
10, 9202, Note_on_c, 2, 58, 0
10, 9205, Note_on_c, 2, 62, 0
10, 9240, Note_on_c, 2, 58, 71
10, 9240, Note_on_c, 2, 62, 57
10, 9240, Note_on_c, 2, 65, 57
10, 9257, Note_on_c, 2, 62, 0
10, 9259, Note_on_c, 2, 65, 0
10, 9260, Note_on_c, 2, 58, 0
10, 9300, Note_on_c, 2, 65, 46
10, 9300, Note_on_c, 2, 58, 59
10, 9300, Note_on_c, 2, 62, 79
10, 9406, Note_on_c, 2, 65, 0
10, 9413, Note_on_c, 2, 62, 0
10, 9415, Note_on_c, 2, 58, 0
10, 9420, Note_on_c, 2, 58, 63
10, 9420, Note_on_c, 2, 65, 73
10, 9420, Note_on_c, 2, 62, 53
10, 9437, Note_on_c, 2, 62, 0
10, 9442, Note_on_c, 2, 65, 0
10, 9442, Note_on_c, 2, 58, 0
10, 9480, Note_on_c, 2, 65, 54
10, 9480, Note_on_c, 2, 58, 59
10, 9480, Note_on_c, 2, 62, 68
10, 9507, Note_on_c, 2, 62, 0
10, 9510, Note_on_c, 2, 58, 0
10, 9512, Note_on_c, 2, 65, 0
10, 9540, Note_on_c, 2, 58, 71
10, 9540, Note_on_c, 2, 65, 64
10, 9540, Note_on_c, 2, 62, 68
10, 9554, Note_on_c, 2, 62, 0
10, 9558, Note_on_c, 2, 58, 0
10, 9560, Note_on_c, 2, 65, 0
10, 9600, Note_on_c, 2, 69, 71
10, 9600, Note_on_c, 2, 60, 72
10, 9600, Note_on_c, 2, 65, 55
10, 9706, Note_on_c, 2, 69, 0
10, 9720, Note_on_c, 2, 67, 51
10, 9746, Note_on_c, 2, 60, 0
10, 9747, Note_on_c, 2, 65, 0
10, 9765, Note_on_c, 2, 67, 0
10, 9780, Note_on_c, 2, 65, 64
10, 9780, Note_on_c, 2, 60, 75
10, 9780, Note_on_c, 2, 69, 87
10, 10034, Note_on_c, 2, 60, 0
10, 10039, Note_on_c, 2, 69, 0
10, 10042, Note_on_c, 2, 65, 0
10, 10080, Note_on_c, 2, 57, 63
10, 10080, Note_on_c, 2, 65, 63
10, 10080, Note_on_c, 2, 62, 63
10, 10113, Note_on_c, 2, 57, 0
10, 10114, Note_on_c, 2, 62, 0
10, 10117, Note_on_c, 2, 65, 0
10, 10140, Note_on_c, 2, 65, 40
10, 10140, Note_on_c, 2, 57, 40
10, 10140, Note_on_c, 2, 62, 40
10, 10160, Note_on_c, 2, 62, 0
10, 10168, Note_on_c, 2, 57, 0
10, 10173, Note_on_c, 2, 65, 0
10, 10200, Note_on_c, 2, 57, 65
10, 10200, Note_on_c, 2, 65, 65
10, 10200, Note_on_c, 2, 62, 65
10, 10228, Note_on_c, 2, 62, 0
10, 10234, Note_on_c, 2, 57, 0
10, 10235, Note_on_c, 2, 65, 0
10, 10260, Note_on_c, 2, 65, 44
10, 10260, Note_on_c, 2, 57, 44
10, 10260, Note_on_c, 2, 62, 44
10, 10282, Note_on_c, 2, 62, 0
10, 10286, Note_on_c, 2, 57, 0
10, 10290, Note_on_c, 2, 65, 0
10, 10320, Note_on_c, 2, 65, 50
10, 10320, Note_on_c, 2, 57, 68
10, 10320, Note_on_c, 2, 62, 63
10, 10347, Note_on_c, 2, 62, 0
10, 10351, Note_on_c, 2, 57, 0
10, 10354, Note_on_c, 2, 65, 0
10, 10380, Note_on_c, 2, 65, 41
10, 10380, Note_on_c, 2, 57, 41
10, 10380, Note_on_c, 2, 62, 41
10, 10402, Note_on_c, 2, 62, 0
10, 10404, Note_on_c, 2, 57, 0
10, 10410, Note_on_c, 2, 65, 0
10, 10440, Note_on_c, 2, 65, 64
10, 10440, Note_on_c, 2, 57, 64
10, 10440, Note_on_c, 2, 62, 64
10, 10468, Note_on_c, 2, 62, 0
10, 10472, Note_on_c, 2, 57, 0
10, 10477, Note_on_c, 2, 65, 0
10, 10500, Note_on_c, 2, 65, 49
10, 10500, Note_on_c, 2, 57, 49
10, 10500, Note_on_c, 2, 62, 49
10, 10514, Note_on_c, 2, 62, 0
10, 10521, Note_on_c, 2, 57, 0
10, 10525, Note_on_c, 2, 65, 0
10, 10560, Note_on_c, 2, 58, 55
10, 10560, Note_on_c, 2, 65, 55
10, 10560, Note_on_c, 2, 62, 55
10, 10592, Note_on_c, 2, 62, 0
10, 10599, Note_on_c, 2, 65, 0
10, 10599, Note_on_c, 2, 58, 0
10, 10620, Note_on_c, 2, 65, 49
10, 10620, Note_on_c, 2, 58, 49
10, 10620, Note_on_c, 2, 62, 49
10, 10645, Note_on_c, 2, 62, 0
10, 10651, Note_on_c, 2, 58, 0
10, 10653, Note_on_c, 2, 65, 0
10, 10680, Note_on_c, 2, 58, 57
10, 10680, Note_on_c, 2, 65, 57
10, 10680, Note_on_c, 2, 62, 57
10, 10710, Note_on_c, 2, 62, 0
10, 10712, Note_on_c, 2, 58, 0
10, 10720, Note_on_c, 2, 65, 0
10, 10740, Note_on_c, 2, 58, 44
10, 10740, Note_on_c, 2, 65, 44
10, 10740, Note_on_c, 2, 62, 44
10, 10762, Note_on_c, 2, 62, 0
10, 10769, Note_on_c, 2, 58, 0
10, 10778, Note_on_c, 2, 65, 0
10, 10800, Note_on_c, 2, 58, 61
10, 10800, Note_on_c, 2, 62, 61
10, 10800, Note_on_c, 2, 65, 61
10, 10824, Note_on_c, 2, 62, 0
10, 10832, Note_on_c, 2, 65, 0
10, 10832, Note_on_c, 2, 58, 0
10, 10860, Note_on_c, 2, 58, 53
10, 10860, Note_on_c, 2, 65, 53
10, 10860, Note_on_c, 2, 62, 53
10, 10884, Note_on_c, 2, 62, 0
10, 10887, Note_on_c, 2, 58, 0
10, 10892, Note_on_c, 2, 65, 0
10, 10920, Note_on_c, 2, 58, 59
10, 10920, Note_on_c, 2, 65, 59
10, 10920, Note_on_c, 2, 62, 59
10, 10942, Note_on_c, 2, 62, 0
10, 10953, Note_on_c, 2, 65, 0
10, 10955, Note_on_c, 2, 58, 0
10, 10980, Note_on_c, 2, 58, 44
10, 10980, Note_on_c, 2, 65, 44
10, 10980, Note_on_c, 2, 62, 44
10, 11003, Note_on_c, 2, 62, 0
10, 11003, Note_on_c, 2, 65, 0
10, 11021, Note_on_c, 2, 58, 0
10, 11040, Note_on_c, 2, 60, 57
10, 11040, Note_on_c, 2, 64, 57
10, 11040, Note_on_c, 2, 55, 57
10, 11072, Note_on_c, 2, 55, 0
10, 11075, Note_on_c, 2, 60, 0
10, 11076, Note_on_c, 2, 64, 0
10, 11100, Note_on_c, 2, 55, 42
10, 11100, Note_on_c, 2, 64, 42
10, 11100, Note_on_c, 2, 60, 42
10, 11119, Note_on_c, 2, 60, 0
10, 11123, Note_on_c, 2, 55, 0
10, 11124, Note_on_c, 2, 64, 0
10, 11160, Note_on_c, 2, 55, 50
10, 11160, Note_on_c, 2, 64, 50
10, 11160, Note_on_c, 2, 60, 50
10, 11181, Note_on_c, 2, 60, 0
10, 11186, Note_on_c, 2, 64, 0
10, 11188, Note_on_c, 2, 55, 0
10, 11220, Note_on_c, 2, 55, 42
10, 11220, Note_on_c, 2, 64, 42
10, 11220, Note_on_c, 2, 60, 42
10, 11243, Note_on_c, 2, 60, 0
10, 11245, Note_on_c, 2, 64, 0
10, 11250, Note_on_c, 2, 55, 0
10, 11280, Note_on_c, 2, 55, 59
10, 11280, Note_on_c, 2, 60, 59
10, 11280, Note_on_c, 2, 64, 59
10, 11305, Note_on_c, 2, 60, 0
10, 11307, Note_on_c, 2, 64, 0
10, 11310, Note_on_c, 2, 55, 0
10, 11340, Note_on_c, 2, 55, 44
10, 11340, Note_on_c, 2, 60, 44
10, 11340, Note_on_c, 2, 64, 44
10, 11369, Note_on_c, 2, 60, 0
10, 11373, Note_on_c, 2, 64, 0
10, 11373, Note_on_c, 2, 55, 0
10, 11400, Note_on_c, 2, 55, 57
10, 11400, Note_on_c, 2, 64, 57
10, 11400, Note_on_c, 2, 60, 57
10, 11431, Note_on_c, 2, 55, 0
10, 11432, Note_on_c, 2, 60, 0
10, 11434, Note_on_c, 2, 64, 0
10, 11460, Note_on_c, 2, 55, 41
10, 11460, Note_on_c, 2, 60, 41
10, 11460, Note_on_c, 2, 64, 41
10, 11494, Note_on_c, 2, 60, 0
10, 11495, Note_on_c, 2, 64, 0
10, 11499, Note_on_c, 2, 55, 0
10, 11520, Note_on_c, 2, 55, 61
10, 11520, Note_on_c, 2, 64, 61
10, 11520, Note_on_c, 2, 60, 61
10, 11553, Note_on_c, 2, 60, 0
10, 11556, Note_on_c, 2, 64, 0
10, 11558, Note_on_c, 2, 55, 0
10, 11580, Note_on_c, 2, 55, 47
10, 11580, Note_on_c, 2, 64, 47
10, 11580, Note_on_c, 2, 60, 47
10, 11610, Note_on_c, 2, 60, 0
10, 11614, Note_on_c, 2, 64, 0
10, 11615, Note_on_c, 2, 55, 0
10, 11640, Note_on_c, 2, 55, 51
10, 11640, Note_on_c, 2, 64, 51
10, 11640, Note_on_c, 2, 60, 51
10, 11674, Note_on_c, 2, 60, 0
10, 11677, Note_on_c, 2, 55, 0
10, 11679, Note_on_c, 2, 64, 0
10, 11700, Note_on_c, 2, 55, 44
10, 11700, Note_on_c, 2, 64, 44
10, 11700, Note_on_c, 2, 60, 44
10, 11725, Note_on_c, 2, 60, 0
10, 11731, Note_on_c, 2, 64, 0
10, 11735, Note_on_c, 2, 55, 0
10, 11760, Note_on_c, 2, 55, 55
10, 11760, Note_on_c, 2, 64, 55
10, 11760, Note_on_c, 2, 60, 55
10, 11792, Note_on_c, 2, 60, 0
10, 11794, Note_on_c, 2, 64, 0
10, 11796, Note_on_c, 2, 55, 0
10, 11820, Note_on_c, 2, 55, 42
10, 11820, Note_on_c, 2, 64, 42
10, 11820, Note_on_c, 2, 60, 42
10, 11843, Note_on_c, 2, 60, 0
10, 11851, Note_on_c, 2, 64, 0
10, 11855, Note_on_c, 2, 55, 0
10, 11880, Note_on_c, 2, 55, 55
10, 11880, Note_on_c, 2, 60, 55
10, 11880, Note_on_c, 2, 64, 55
10, 11910, Note_on_c, 2, 60, 0
10, 11912, Note_on_c, 2, 64, 0
10, 11918, Note_on_c, 2, 55, 0
10, 11940, Note_on_c, 2, 55, 47
10, 11940, Note_on_c, 2, 60, 47
10, 11940, Note_on_c, 2, 64, 47
10, 11967, Note_on_c, 2, 64, 0
10, 11968, Note_on_c, 2, 60, 0
10, 11978, Note_on_c, 2, 55, 0
10, 12000, Note_on_c, 2, 57, 63
10, 12000, Note_on_c, 2, 65, 63
10, 12000, Note_on_c, 2, 62, 63
10, 12033, Note_on_c, 2, 57, 0
10, 12034, Note_on_c, 2, 62, 0
10, 12037, Note_on_c, 2, 65, 0
10, 12060, Note_on_c, 2, 65, 40
10, 12060, Note_on_c, 2, 57, 40
10, 12060, Note_on_c, 2, 62, 40
10, 12080, Note_on_c, 2, 62, 0
10, 12088, Note_on_c, 2, 57, 0
10, 12093, Note_on_c, 2, 65, 0
10, 12120, Note_on_c, 2, 57, 65
10, 12120, Note_on_c, 2, 65, 65
10, 12120, Note_on_c, 2, 62, 65
10, 12148, Note_on_c, 2, 62, 0
10, 12154, Note_on_c, 2, 57, 0
10, 12155, Note_on_c, 2, 65, 0
10, 12180, Note_on_c, 2, 65, 44
10, 12180, Note_on_c, 2, 57, 44
10, 12180, Note_on_c, 2, 62, 44
10, 12202, Note_on_c, 2, 62, 0
10, 12206, Note_on_c, 2, 57, 0
10, 12210, Note_on_c, 2, 65, 0
10, 12240, Note_on_c, 2, 65, 50
10, 12240, Note_on_c, 2, 57, 68
10, 12240, Note_on_c, 2, 62, 63
10, 12267, Note_on_c, 2, 62, 0
10, 12271, Note_on_c, 2, 57, 0
10, 12274, Note_on_c, 2, 65, 0
10, 12300, Note_on_c, 2, 65, 41
10, 12300, Note_on_c, 2, 57, 41
10, 12300, Note_on_c, 2, 62, 41
10, 12322, Note_on_c, 2, 62, 0
10, 12324, Note_on_c, 2, 57, 0
10, 12330, Note_on_c, 2, 65, 0
10, 12360, Note_on_c, 2, 65, 64
10, 12360, Note_on_c, 2, 57, 64
10, 12360, Note_on_c, 2, 62, 64
10, 12388, Note_on_c, 2, 62, 0
10, 12392, Note_on_c, 2, 57, 0
10, 12397, Note_on_c, 2, 65, 0
10, 12420, Note_on_c, 2, 65, 49
10, 12420, Note_on_c, 2, 57, 49
10, 12420, Note_on_c, 2, 62, 49
10, 12434, Note_on_c, 2, 62, 0
10, 12441, Note_on_c, 2, 57, 0
10, 12445, Note_on_c, 2, 65, 0
10, 12480, Note_on_c, 2, 58, 55
10, 12480, Note_on_c, 2, 65, 55
10, 12480, Note_on_c, 2, 62, 55
10, 12512, Note_on_c, 2, 62, 0
10, 12519, Note_on_c, 2, 65, 0
10, 12519, Note_on_c, 2, 58, 0
10, 12540, Note_on_c, 2, 65, 49
10, 12540, Note_on_c, 2, 58, 49
10, 12540, Note_on_c, 2, 62, 49
10, 12565, Note_on_c, 2, 62, 0
10, 12571, Note_on_c, 2, 58, 0
10, 12573, Note_on_c, 2, 65, 0
10, 12600, Note_on_c, 2, 58, 57
10, 12600, Note_on_c, 2, 65, 57
10, 12600, Note_on_c, 2, 62, 57
10, 12630, Note_on_c, 2, 62, 0
10, 12632, Note_on_c, 2, 58, 0
10, 12640, Note_on_c, 2, 65, 0
10, 12660, Note_on_c, 2, 58, 44
10, 12660, Note_on_c, 2, 65, 44
10, 12660, Note_on_c, 2, 62, 44
10, 12682, Note_on_c, 2, 62, 0
10, 12689, Note_on_c, 2, 58, 0
10, 12698, Note_on_c, 2, 65, 0
10, 12720, Note_on_c, 2, 58, 61
10, 12720, Note_on_c, 2, 62, 61
10, 12720, Note_on_c, 2, 65, 61
10, 12744, Note_on_c, 2, 62, 0
10, 12752, Note_on_c, 2, 65, 0
10, 12752, Note_on_c, 2, 58, 0
10, 12780, Note_on_c, 2, 58, 53
10, 12780, Note_on_c, 2, 65, 53
10, 12780, Note_on_c, 2, 62, 53
10, 12804, Note_on_c, 2, 62, 0
10, 12807, Note_on_c, 2, 58, 0
10, 12812, Note_on_c, 2, 65, 0
10, 12840, Note_on_c, 2, 58, 59
10, 12840, Note_on_c, 2, 65, 59
10, 12840, Note_on_c, 2, 62, 59
10, 12862, Note_on_c, 2, 62, 0
10, 12873, Note_on_c, 2, 65, 0
10, 12875, Note_on_c, 2, 58, 0
10, 12900, Note_on_c, 2, 58, 44
10, 12900, Note_on_c, 2, 65, 44
10, 12900, Note_on_c, 2, 62, 44
10, 12923, Note_on_c, 2, 62, 0
10, 12923, Note_on_c, 2, 65, 0
10, 12941, Note_on_c, 2, 58, 0
10, 12960, Note_on_c, 2, 60, 57
10, 12960, Note_on_c, 2, 64, 57
10, 12960, Note_on_c, 2, 55, 57
10, 12992, Note_on_c, 2, 55, 0
10, 12995, Note_on_c, 2, 60, 0
10, 12996, Note_on_c, 2, 64, 0
10, 13020, Note_on_c, 2, 55, 42
10, 13020, Note_on_c, 2, 64, 42
10, 13020, Note_on_c, 2, 60, 42
10, 13039, Note_on_c, 2, 60, 0
10, 13043, Note_on_c, 2, 55, 0
10, 13044, Note_on_c, 2, 64, 0
10, 13080, Note_on_c, 2, 55, 50
10, 13080, Note_on_c, 2, 64, 50
10, 13080, Note_on_c, 2, 60, 50
10, 13101, Note_on_c, 2, 60, 0
10, 13106, Note_on_c, 2, 64, 0
10, 13108, Note_on_c, 2, 55, 0
10, 13140, Note_on_c, 2, 55, 42
10, 13140, Note_on_c, 2, 64, 42
10, 13140, Note_on_c, 2, 60, 42
10, 13163, Note_on_c, 2, 60, 0
10, 13165, Note_on_c, 2, 64, 0
10, 13170, Note_on_c, 2, 55, 0
10, 13200, Note_on_c, 2, 55, 59
10, 13200, Note_on_c, 2, 60, 59
10, 13200, Note_on_c, 2, 64, 59
10, 13225, Note_on_c, 2, 60, 0
10, 13227, Note_on_c, 2, 64, 0
10, 13230, Note_on_c, 2, 55, 0
10, 13260, Note_on_c, 2, 55, 44
10, 13260, Note_on_c, 2, 60, 44
10, 13260, Note_on_c, 2, 64, 44
10, 13289, Note_on_c, 2, 60, 0
10, 13293, Note_on_c, 2, 64, 0
10, 13293, Note_on_c, 2, 55, 0
10, 13320, Note_on_c, 2, 55, 57
10, 13320, Note_on_c, 2, 64, 57
10, 13320, Note_on_c, 2, 60, 57
10, 13351, Note_on_c, 2, 55, 0
10, 13352, Note_on_c, 2, 60, 0
10, 13354, Note_on_c, 2, 64, 0
10, 13380, Note_on_c, 2, 55, 41
10, 13380, Note_on_c, 2, 60, 41
10, 13380, Note_on_c, 2, 64, 41
10, 13414, Note_on_c, 2, 60, 0
10, 13415, Note_on_c, 2, 64, 0
10, 13419, Note_on_c, 2, 55, 0
10, 13440, Note_on_c, 2, 55, 61
10, 13440, Note_on_c, 2, 64, 61
10, 13440, Note_on_c, 2, 60, 61
10, 13473, Note_on_c, 2, 60, 0
10, 13476, Note_on_c, 2, 64, 0
10, 13478, Note_on_c, 2, 55, 0
10, 13500, Note_on_c, 2, 55, 47
10, 13500, Note_on_c, 2, 64, 47
10, 13500, Note_on_c, 2, 60, 47
10, 13530, Note_on_c, 2, 60, 0
10, 13534, Note_on_c, 2, 64, 0
10, 13535, Note_on_c, 2, 55, 0
10, 13560, Note_on_c, 2, 55, 51
10, 13560, Note_on_c, 2, 64, 51
10, 13560, Note_on_c, 2, 60, 51
10, 13594, Note_on_c, 2, 60, 0
10, 13597, Note_on_c, 2, 55, 0
10, 13599, Note_on_c, 2, 64, 0
10, 13620, Note_on_c, 2, 55, 44
10, 13620, Note_on_c, 2, 64, 44
10, 13620, Note_on_c, 2, 60, 44
10, 13645, Note_on_c, 2, 60, 0
10, 13651, Note_on_c, 2, 64, 0
10, 13655, Note_on_c, 2, 55, 0
10, 13680, Note_on_c, 2, 55, 55
10, 13680, Note_on_c, 2, 64, 55
10, 13680, Note_on_c, 2, 60, 55
10, 13712, Note_on_c, 2, 60, 0
10, 13714, Note_on_c, 2, 64, 0
10, 13716, Note_on_c, 2, 55, 0
10, 13740, Note_on_c, 2, 55, 42
10, 13740, Note_on_c, 2, 64, 42
10, 13740, Note_on_c, 2, 60, 42
10, 13763, Note_on_c, 2, 60, 0
10, 13771, Note_on_c, 2, 64, 0
10, 13775, Note_on_c, 2, 55, 0
10, 13800, Note_on_c, 2, 55, 55
10, 13800, Note_on_c, 2, 60, 55
10, 13800, Note_on_c, 2, 64, 55
10, 13830, Note_on_c, 2, 60, 0
10, 13832, Note_on_c, 2, 64, 0
10, 13838, Note_on_c, 2, 55, 0
10, 13860, Note_on_c, 2, 55, 47
10, 13860, Note_on_c, 2, 60, 47
10, 13860, Note_on_c, 2, 64, 47
10, 13887, Note_on_c, 2, 64, 0
10, 13888, Note_on_c, 2, 60, 0
10, 13898, Note_on_c, 2, 55, 0
10, 13920, Note_on_c, 2, 57, 63
10, 13920, Note_on_c, 2, 65, 63
10, 13920, Note_on_c, 2, 62, 63
10, 13953, Note_on_c, 2, 57, 0
10, 13954, Note_on_c, 2, 62, 0
10, 13957, Note_on_c, 2, 65, 0
10, 13980, Note_on_c, 2, 65, 40
10, 13980, Note_on_c, 2, 57, 40
10, 13980, Note_on_c, 2, 62, 40
10, 14000, Note_on_c, 2, 62, 0
10, 14008, Note_on_c, 2, 57, 0
10, 14013, Note_on_c, 2, 65, 0
10, 14040, Note_on_c, 2, 57, 65
10, 14040, Note_on_c, 2, 65, 65
10, 14040, Note_on_c, 2, 62, 65
10, 14068, Note_on_c, 2, 62, 0
10, 14074, Note_on_c, 2, 57, 0
10, 14075, Note_on_c, 2, 65, 0
10, 14100, Note_on_c, 2, 65, 44
10, 14100, Note_on_c, 2, 57, 44
10, 14100, Note_on_c, 2, 62, 44
10, 14122, Note_on_c, 2, 62, 0
10, 14126, Note_on_c, 2, 57, 0
10, 14130, Note_on_c, 2, 65, 0
10, 14160, Note_on_c, 2, 65, 50
10, 14160, Note_on_c, 2, 57, 68
10, 14160, Note_on_c, 2, 62, 63
10, 14187, Note_on_c, 2, 62, 0
10, 14191, Note_on_c, 2, 57, 0
10, 14194, Note_on_c, 2, 65, 0
10, 14220, Note_on_c, 2, 65, 41
10, 14220, Note_on_c, 2, 57, 41
10, 14220, Note_on_c, 2, 62, 41
10, 14242, Note_on_c, 2, 62, 0
10, 14244, Note_on_c, 2, 57, 0
10, 14250, Note_on_c, 2, 65, 0
10, 14280, Note_on_c, 2, 65, 64
10, 14280, Note_on_c, 2, 57, 64
10, 14280, Note_on_c, 2, 62, 64
10, 14308, Note_on_c, 2, 62, 0
10, 14312, Note_on_c, 2, 57, 0
10, 14317, Note_on_c, 2, 65, 0
10, 14340, Note_on_c, 2, 65, 49
10, 14340, Note_on_c, 2, 57, 49
10, 14340, Note_on_c, 2, 62, 49
10, 14354, Note_on_c, 2, 62, 0
10, 14361, Note_on_c, 2, 57, 0
10, 14365, Note_on_c, 2, 65, 0
10, 14400, Note_on_c, 2, 58, 55
10, 14400, Note_on_c, 2, 65, 55
10, 14400, Note_on_c, 2, 62, 55
10, 14432, Note_on_c, 2, 62, 0
10, 14439, Note_on_c, 2, 65, 0
10, 14439, Note_on_c, 2, 58, 0
10, 14460, Note_on_c, 2, 65, 49
10, 14460, Note_on_c, 2, 58, 49
10, 14460, Note_on_c, 2, 62, 49
10, 14485, Note_on_c, 2, 62, 0
10, 14491, Note_on_c, 2, 58, 0
10, 14493, Note_on_c, 2, 65, 0
10, 14520, Note_on_c, 2, 58, 57
10, 14520, Note_on_c, 2, 65, 57
10, 14520, Note_on_c, 2, 62, 57
10, 14550, Note_on_c, 2, 62, 0
10, 14552, Note_on_c, 2, 58, 0
10, 14560, Note_on_c, 2, 65, 0
10, 14580, Note_on_c, 2, 58, 44
10, 14580, Note_on_c, 2, 65, 44
10, 14580, Note_on_c, 2, 62, 44
10, 14602, Note_on_c, 2, 62, 0
10, 14609, Note_on_c, 2, 58, 0
10, 14618, Note_on_c, 2, 65, 0
10, 14640, Note_on_c, 2, 58, 61
10, 14640, Note_on_c, 2, 62, 61
10, 14640, Note_on_c, 2, 65, 61
10, 14664, Note_on_c, 2, 62, 0
10, 14672, Note_on_c, 2, 65, 0
10, 14672, Note_on_c, 2, 58, 0
10, 14700, Note_on_c, 2, 58, 53
10, 14700, Note_on_c, 2, 65, 53
10, 14700, Note_on_c, 2, 62, 53
10, 14724, Note_on_c, 2, 62, 0
10, 14727, Note_on_c, 2, 58, 0
10, 14732, Note_on_c, 2, 65, 0
10, 14760, Note_on_c, 2, 58, 59
10, 14760, Note_on_c, 2, 65, 59
10, 14760, Note_on_c, 2, 62, 59
10, 14782, Note_on_c, 2, 62, 0
10, 14793, Note_on_c, 2, 65, 0
10, 14795, Note_on_c, 2, 58, 0
10, 14820, Note_on_c, 2, 58, 44
10, 14820, Note_on_c, 2, 65, 44
10, 14820, Note_on_c, 2, 62, 44
10, 14843, Note_on_c, 2, 62, 0
10, 14843, Note_on_c, 2, 65, 0
10, 14861, Note_on_c, 2, 58, 0
10, 14880, Note_on_c, 2, 60, 57
10, 14880, Note_on_c, 2, 64, 57
10, 14880, Note_on_c, 2, 55, 57
10, 14912, Note_on_c, 2, 55, 0
10, 14915, Note_on_c, 2, 60, 0
10, 14916, Note_on_c, 2, 64, 0
10, 14940, Note_on_c, 2, 55, 42
10, 14940, Note_on_c, 2, 64, 42
10, 14940, Note_on_c, 2, 60, 42
10, 14959, Note_on_c, 2, 60, 0
10, 14963, Note_on_c, 2, 55, 0
10, 14964, Note_on_c, 2, 64, 0
10, 15000, Note_on_c, 2, 55, 50
10, 15000, Note_on_c, 2, 64, 50
10, 15000, Note_on_c, 2, 60, 50
10, 15021, Note_on_c, 2, 60, 0
10, 15026, Note_on_c, 2, 64, 0
10, 15028, Note_on_c, 2, 55, 0
10, 15060, Note_on_c, 2, 55, 42
10, 15060, Note_on_c, 2, 64, 42
10, 15060, Note_on_c, 2, 60, 42
10, 15083, Note_on_c, 2, 60, 0
10, 15085, Note_on_c, 2, 64, 0
10, 15090, Note_on_c, 2, 55, 0
10, 15120, Note_on_c, 2, 55, 59
10, 15120, Note_on_c, 2, 60, 59
10, 15120, Note_on_c, 2, 64, 59
10, 15145, Note_on_c, 2, 60, 0
10, 15147, Note_on_c, 2, 64, 0
10, 15150, Note_on_c, 2, 55, 0
10, 15180, Note_on_c, 2, 55, 44
10, 15180, Note_on_c, 2, 60, 44
10, 15180, Note_on_c, 2, 64, 44
10, 15209, Note_on_c, 2, 60, 0
10, 15213, Note_on_c, 2, 64, 0
10, 15213, Note_on_c, 2, 55, 0
10, 15240, Note_on_c, 2, 55, 57
10, 15240, Note_on_c, 2, 64, 57
10, 15240, Note_on_c, 2, 60, 57
10, 15271, Note_on_c, 2, 55, 0
10, 15272, Note_on_c, 2, 60, 0
10, 15274, Note_on_c, 2, 64, 0
10, 15300, Note_on_c, 2, 55, 41
10, 15300, Note_on_c, 2, 60, 41
10, 15300, Note_on_c, 2, 64, 41
10, 15334, Note_on_c, 2, 60, 0
10, 15335, Note_on_c, 2, 64, 0
10, 15339, Note_on_c, 2, 55, 0
10, 15360, Note_on_c, 2, 55, 61
10, 15360, Note_on_c, 2, 64, 61
10, 15360, Note_on_c, 2, 60, 61
10, 15393, Note_on_c, 2, 60, 0
10, 15396, Note_on_c, 2, 64, 0
10, 15398, Note_on_c, 2, 55, 0
10, 15420, Note_on_c, 2, 55, 47
10, 15420, Note_on_c, 2, 64, 47
10, 15420, Note_on_c, 2, 60, 47
10, 15450, Note_on_c, 2, 60, 0
10, 15454, Note_on_c, 2, 64, 0
10, 15455, Note_on_c, 2, 55, 0
10, 15480, Note_on_c, 2, 55, 51
10, 15480, Note_on_c, 2, 64, 51
10, 15480, Note_on_c, 2, 60, 51
10, 15514, Note_on_c, 2, 60, 0
10, 15517, Note_on_c, 2, 55, 0
10, 15519, Note_on_c, 2, 64, 0
10, 15540, Note_on_c, 2, 55, 44
10, 15540, Note_on_c, 2, 64, 44
10, 15540, Note_on_c, 2, 60, 44
10, 15565, Note_on_c, 2, 60, 0
10, 15571, Note_on_c, 2, 64, 0
10, 15575, Note_on_c, 2, 55, 0
10, 15600, Note_on_c, 2, 55, 55
10, 15600, Note_on_c, 2, 64, 55
10, 15600, Note_on_c, 2, 60, 55
10, 15632, Note_on_c, 2, 60, 0
10, 15634, Note_on_c, 2, 64, 0
10, 15636, Note_on_c, 2, 55, 0
10, 15660, Note_on_c, 2, 55, 42
10, 15660, Note_on_c, 2, 64, 42
10, 15660, Note_on_c, 2, 60, 42
10, 15683, Note_on_c, 2, 60, 0
10, 15691, Note_on_c, 2, 64, 0
10, 15695, Note_on_c, 2, 55, 0
10, 15720, Note_on_c, 2, 55, 55
10, 15720, Note_on_c, 2, 60, 55
10, 15720, Note_on_c, 2, 64, 55
10, 15750, Note_on_c, 2, 60, 0
10, 15752, Note_on_c, 2, 64, 0
10, 15758, Note_on_c, 2, 55, 0
10, 15780, Note_on_c, 2, 55, 47
10, 15780, Note_on_c, 2, 60, 47
10, 15780, Note_on_c, 2, 64, 47
10, 15807, Note_on_c, 2, 64, 0
10, 15808, Note_on_c, 2, 60, 0
10, 15818, Note_on_c, 2, 55, 0
10, 15840, Note_on_c, 2, 69, 71
10, 15840, Note_on_c, 2, 60, 72
10, 15840, Note_on_c, 2, 65, 55
10, 15946, Note_on_c, 2, 69, 0
10, 15960, Note_on_c, 2, 67, 51
10, 15986, Note_on_c, 2, 60, 0
10, 15987, Note_on_c, 2, 65, 0
10, 16005, Note_on_c, 2, 67, 0
10, 16020, Note_on_c, 2, 65, 64
10, 16020, Note_on_c, 2, 60, 75
10, 16020, Note_on_c, 2, 69, 87
10, 16274, Note_on_c, 2, 60, 0
10, 16279, Note_on_c, 2, 69, 0
10, 16282, Note_on_c, 2, 65, 0
10, 16320, Note_on_c, 2, 69, 68
10, 16320, Note_on_c, 2, 60, 75
10, 16320, Note_on_c, 2, 65, 54
10, 16440, Note_on_c, 2, 67, 45
10, 16446, Note_on_c, 2, 69, 0
10, 16458, Note_on_c, 2, 65, 0
10, 16475, Note_on_c, 2, 67, 0
10, 16486, Note_on_c, 2, 60, 0
10, 16500, Note_on_c, 2, 60, 33
10, 16500, Note_on_c, 2, 69, 72
10, 16500, Note_on_c, 2, 65, 70
10, 16712, Note_on_c, 2, 65, 0
10, 16721, Note_on_c, 2, 60, 0
10, 16723, Note_on_c, 2, 69, 0
10, 16800, Note_on_c, 2, 69, 71
10, 16800, Note_on_c, 2, 60, 70
10, 16800, Note_on_c, 2, 65, 57
10, 16903, Note_on_c, 2, 69, 0
10, 16925, Note_on_c, 2, 67, 44
10, 16944, Note_on_c, 2, 65, 0
10, 16960, Note_on_c, 2, 67, 0
10, 16980, Note_on_c, 2, 69, 57
10, 16980, Note_on_c, 2, 65, 40
10, 17099, Note_on_c, 2, 69, 0
10, 17100, Note_on_c, 2, 67, 53
10, 17130, Note_on_c, 2, 67, 0
10, 17131, Note_on_c, 2, 65, 0
10, 17151, Note_on_c, 2, 60, 0
10, 17160, Note_on_c, 2, 70, 66
10, 17160, Note_on_c, 2, 67, 66
10, 17160, Note_on_c, 2, 60, 66
10, 17180, Note_on_c, 2, 70, 0
10, 17186, Note_on_c, 2, 60, 0
10, 17187, Note_on_c, 2, 67, 0
10, 17220, Note_on_c, 2, 70, 66
10, 17220, Note_on_c, 2, 60, 66
10, 17220, Note_on_c, 2, 67, 66
10, 17250, Note_on_c, 2, 70, 0
10, 17259, Note_on_c, 2, 67, 0
10, 17260, Note_on_c, 2, 60, 0
10, 17280, Note_on_c, 2, 60, 65
10, 17280, Note_on_c, 2, 52, 42
10, 17296, Note_on_c, 2, 60, 0
10, 17302, Note_on_c, 2, 52, 0
10, 17340, Note_on_c, 2, 52, 53
10, 17340, Note_on_c, 2, 60, 55
10, 17340, Note_on_c, 2, 55, 57
10, 17358, Note_on_c, 2, 55, 0
10, 17358, Note_on_c, 2, 60, 0
10, 17360, Note_on_c, 2, 52, 0
10, 17400, Note_on_c, 2, 60, 68
10, 17400, Note_on_c, 2, 52, 45
10, 17400, Note_on_c, 2, 55, 55
10, 17400, Note_on_c, 2, 58, 35
10, 17416, Note_on_c, 2, 58, 0
10, 17420, Note_on_c, 2, 55, 0
10, 17430, Note_on_c, 2, 52, 0
10, 17440, Note_on_c, 2, 60, 0
10, 17460, Note_on_c, 2, 60, 62
10, 17460, Note_on_c, 2, 52, 54
10, 17460, Note_on_c, 2, 55, 65
10, 17460, Note_on_c, 2, 58, 50
10, 17484, Note_on_c, 2, 58, 0
10, 17500, Note_on_c, 2, 55, 0
10, 17500, Note_on_c, 2, 60, 0
10, 17504, Note_on_c, 2, 52, 0
10, 17520, Note_on_c, 2, 60, 80
10, 17520, Note_on_c, 2, 52, 68
10, 17520, Note_on_c, 2, 58, 61
10, 17520, Note_on_c, 2, 55, 70
10, 17550, Note_on_c, 2, 58, 0
10, 17560, Note_on_c, 2, 55, 0
10, 17564, Note_on_c, 2, 60, 0
10, 17566, Note_on_c, 2, 52, 0
10, 17580, Note_on_c, 2, 60, 72
10, 17580, Note_on_c, 2, 52, 74
10, 17580, Note_on_c, 2, 58, 61
10, 17580, Note_on_c, 2, 55, 70
10, 17616, Note_on_c, 2, 58, 0
10, 17622, Note_on_c, 2, 55, 0
10, 17626, Note_on_c, 2, 60, 0
10, 17628, Note_on_c, 2, 52, 0
10, 17640, Note_on_c, 2, 60, 76
10, 17640, Note_on_c, 2, 52, 80
10, 17640, Note_on_c, 2, 55, 66
10, 17640, Note_on_c, 2, 58, 62
10, 17662, Note_on_c, 2, 55, 0
10, 17668, Note_on_c, 2, 58, 0
10, 17684, Note_on_c, 2, 60, 0
10, 17688, Note_on_c, 2, 52, 0
10, 17700, Note_on_c, 2, 58, 79
10, 17700, Note_on_c, 2, 62, 82
10, 17700, Note_on_c, 2, 65, 63
10, 17856, Note_on_c, 2, 65, 0
10, 17859, Note_on_c, 2, 62, 0
10, 17859, Note_on_c, 2, 58, 0
10, 17880, Note_on_c, 2, 58, 76
10, 17880, Note_on_c, 2, 65, 65
10, 17880, Note_on_c, 2, 62, 63
10, 17888, Note_on_c, 2, 62, 0
10, 17895, Note_on_c, 2, 65, 0
10, 17900, Note_on_c, 2, 58, 0
10, 17940, Note_on_c, 2, 58, 65
10, 17940, Note_on_c, 2, 65, 53
10, 17940, Note_on_c, 2, 62, 74
10, 18114, Note_on_c, 2, 65, 0
10, 18133, Note_on_c, 2, 62, 0
10, 18137, Note_on_c, 2, 58, 0
10, 18180, Note_on_c, 2, 62, 76
10, 18180, Note_on_c, 2, 65, 56
10, 18180, Note_on_c, 2, 58, 72
10, 18306, Note_on_c, 2, 62, 0
10, 18310, Note_on_c, 2, 65, 0
10, 18315, Note_on_c, 2, 58, 0
10, 18360, Note_on_c, 2, 58, 62
10, 18360, Note_on_c, 2, 65, 57
10, 18360, Note_on_c, 2, 62, 80
10, 18370, Note_on_c, 2, 62, 0
10, 18373, Note_on_c, 2, 65, 0
10, 18378, Note_on_c, 2, 58, 0
10, 18420, Note_on_c, 2, 58, 68
10, 18420, Note_on_c, 2, 65, 57
10, 18420, Note_on_c, 2, 62, 70
10, 18584, Note_on_c, 2, 58, 0
10, 18585, Note_on_c, 2, 62, 0
10, 18586, Note_on_c, 2, 65, 0
10, 18660, Note_on_c, 2, 58, 73
10, 18660, Note_on_c, 2, 62, 84
10, 18660, Note_on_c, 2, 65, 65
10, 18800, Note_on_c, 2, 65, 0
10, 18802, Note_on_c, 2, 58, 0
10, 18805, Note_on_c, 2, 62, 0
10, 18840, Note_on_c, 2, 58, 71
10, 18840, Note_on_c, 2, 62, 57
10, 18840, Note_on_c, 2, 65, 57
10, 18857, Note_on_c, 2, 62, 0
10, 18859, Note_on_c, 2, 65, 0
10, 18860, Note_on_c, 2, 58, 0
10, 18900, Note_on_c, 2, 65, 46
10, 18900, Note_on_c, 2, 58, 59
10, 18900, Note_on_c, 2, 62, 79
10, 19006, Note_on_c, 2, 65, 0
10, 19013, Note_on_c, 2, 62, 0
10, 19015, Note_on_c, 2, 58, 0
10, 19020, Note_on_c, 2, 58, 63
10, 19020, Note_on_c, 2, 65, 73
10, 19020, Note_on_c, 2, 62, 53
10, 19037, Note_on_c, 2, 62, 0
10, 19042, Note_on_c, 2, 65, 0
10, 19042, Note_on_c, 2, 58, 0
10, 19080, Note_on_c, 2, 65, 54
10, 19080, Note_on_c, 2, 58, 59
10, 19080, Note_on_c, 2, 62, 68
10, 19107, Note_on_c, 2, 62, 0
10, 19110, Note_on_c, 2, 58, 0
10, 19112, Note_on_c, 2, 65, 0
10, 19140, Note_on_c, 2, 58, 71
10, 19140, Note_on_c, 2, 65, 64
10, 19140, Note_on_c, 2, 62, 68
10, 19154, Note_on_c, 2, 62, 0
10, 19158, Note_on_c, 2, 58, 0
10, 19160, Note_on_c, 2, 65, 0
10, 19200, Note_on_c, 2, 69, 71
10, 19200, Note_on_c, 2, 60, 72
10, 19200, Note_on_c, 2, 65, 55
10, 19306, Note_on_c, 2, 69, 0
10, 19320, Note_on_c, 2, 67, 51
10, 19346, Note_on_c, 2, 60, 0
10, 19347, Note_on_c, 2, 65, 0
10, 19365, Note_on_c, 2, 67, 0
10, 19380, Note_on_c, 2, 65, 64
10, 19380, Note_on_c, 2, 60, 75
10, 19380, Note_on_c, 2, 69, 87
10, 19634, Note_on_c, 2, 60, 0
10, 19639, Note_on_c, 2, 69, 0
10, 19642, Note_on_c, 2, 65, 0
10, 19680, Note_on_c, 2, 69, 68
10, 19680, Note_on_c, 2, 60, 75
10, 19680, Note_on_c, 2, 65, 54
10, 19800, Note_on_c, 2, 67, 45
10, 19806, Note_on_c, 2, 69, 0
10, 19818, Note_on_c, 2, 65, 0
10, 19835, Note_on_c, 2, 67, 0
10, 19846, Note_on_c, 2, 60, 0
10, 19860, Note_on_c, 2, 60, 33
10, 19860, Note_on_c, 2, 69, 72
10, 19860, Note_on_c, 2, 65, 70
10, 20072, Note_on_c, 2, 65, 0
10, 20081, Note_on_c, 2, 60, 0
10, 20083, Note_on_c, 2, 69, 0
10, 20160, Note_on_c, 2, 69, 71
10, 20160, Note_on_c, 2, 60, 72
10, 20160, Note_on_c, 2, 65, 55
10, 20266, Note_on_c, 2, 69, 0
10, 20280, Note_on_c, 2, 67, 51
10, 20306, Note_on_c, 2, 60, 0
10, 20307, Note_on_c, 2, 65, 0
10, 20325, Note_on_c, 2, 67, 0
10, 20340, Note_on_c, 2, 65, 64
10, 20340, Note_on_c, 2, 60, 75
10, 20340, Note_on_c, 2, 69, 87
10, 20594, Note_on_c, 2, 60, 0
10, 20599, Note_on_c, 2, 69, 0
10, 20602, Note_on_c, 2, 65, 0
10, 20640, Note_on_c, 2, 69, 68
10, 20640, Note_on_c, 2, 60, 75
10, 20640, Note_on_c, 2, 65, 54
10, 20760, Note_on_c, 2, 67, 45
10, 20766, Note_on_c, 2, 69, 0
10, 20778, Note_on_c, 2, 65, 0
10, 20795, Note_on_c, 2, 67, 0
10, 20806, Note_on_c, 2, 60, 0
10, 20820, Note_on_c, 2, 60, 33
10, 20820, Note_on_c, 2, 69, 72
10, 20820, Note_on_c, 2, 65, 70
10, 21032, Note_on_c, 2, 65, 0
10, 21041, Note_on_c, 2, 60, 0
10, 21043, Note_on_c, 2, 69, 0
10, 21120, Note_on_c, 2, 69, 71
10, 21120, Note_on_c, 2, 60, 70
10, 21120, Note_on_c, 2, 65, 57
10, 21223, Note_on_c, 2, 69, 0
10, 21245, Note_on_c, 2, 67, 44
10, 21264, Note_on_c, 2, 65, 0
10, 21280, Note_on_c, 2, 67, 0
10, 21300, Note_on_c, 2, 69, 57
10, 21300, Note_on_c, 2, 65, 40
10, 21419, Note_on_c, 2, 69, 0
10, 21451, Note_on_c, 2, 65, 0
10, 21471, Note_on_c, 2, 60, 0
10, 21480, Note_on_c, 2, 60, 66
10, 21483, Note_on_c, 2, 69, 66
10, 21583, Note_on_c, 2, 69, 0
10, 21583, Note_on_c, 2, 60, 0
10, 21600, Note_on_c, 2, 60, 65
10, 21600, Note_on_c, 2, 52, 42
10, 21616, Note_on_c, 2, 60, 0
10, 21622, Note_on_c, 2, 52, 0
10, 21660, Note_on_c, 2, 52, 53
10, 21660, Note_on_c, 2, 60, 55
10, 21660, Note_on_c, 2, 55, 57
10, 21678, Note_on_c, 2, 55, 0
10, 21678, Note_on_c, 2, 60, 0
10, 21680, Note_on_c, 2, 52, 0
10, 21720, Note_on_c, 2, 60, 68
10, 21720, Note_on_c, 2, 52, 45
10, 21720, Note_on_c, 2, 55, 55
10, 21720, Note_on_c, 2, 58, 35
10, 21736, Note_on_c, 2, 58, 0
10, 21740, Note_on_c, 2, 55, 0
10, 21750, Note_on_c, 2, 52, 0
10, 21760, Note_on_c, 2, 60, 0
10, 21780, Note_on_c, 2, 60, 62
10, 21780, Note_on_c, 2, 52, 54
10, 21780, Note_on_c, 2, 55, 65
10, 21780, Note_on_c, 2, 58, 50
10, 21804, Note_on_c, 2, 58, 0
10, 21820, Note_on_c, 2, 55, 0
10, 21820, Note_on_c, 2, 60, 0
10, 21824, Note_on_c, 2, 52, 0
10, 21840, Note_on_c, 2, 60, 80
10, 21840, Note_on_c, 2, 52, 68
10, 21840, Note_on_c, 2, 58, 61
10, 21840, Note_on_c, 2, 55, 70
10, 21870, Note_on_c, 2, 58, 0
10, 21880, Note_on_c, 2, 55, 0
10, 21884, Note_on_c, 2, 60, 0
10, 21886, Note_on_c, 2, 52, 0
10, 21900, Note_on_c, 2, 60, 72
10, 21900, Note_on_c, 2, 52, 74
10, 21900, Note_on_c, 2, 58, 61
10, 21900, Note_on_c, 2, 55, 70
10, 21936, Note_on_c, 2, 58, 0
10, 21942, Note_on_c, 2, 55, 0
10, 21946, Note_on_c, 2, 60, 0
10, 21948, Note_on_c, 2, 52, 0
10, 21960, Note_on_c, 2, 60, 76
10, 21960, Note_on_c, 2, 52, 80
10, 21960, Note_on_c, 2, 55, 66
10, 21960, Note_on_c, 2, 58, 62
10, 21982, Note_on_c, 2, 55, 0
10, 21988, Note_on_c, 2, 58, 0
10, 22004, Note_on_c, 2, 60, 0
10, 22008, Note_on_c, 2, 52, 0
10, 22020, Note_on_c, 2, 58, 79
10, 22020, Note_on_c, 2, 62, 82
10, 22020, Note_on_c, 2, 65, 63
10, 22176, Note_on_c, 2, 65, 0
10, 22179, Note_on_c, 2, 62, 0
10, 22179, Note_on_c, 2, 58, 0
10, 22200, Note_on_c, 2, 58, 76
10, 22200, Note_on_c, 2, 65, 65
10, 22200, Note_on_c, 2, 62, 63
10, 22208, Note_on_c, 2, 62, 0
10, 22215, Note_on_c, 2, 65, 0
10, 22220, Note_on_c, 2, 58, 0
10, 22260, Note_on_c, 2, 58, 65
10, 22260, Note_on_c, 2, 65, 53
10, 22260, Note_on_c, 2, 62, 74
10, 22434, Note_on_c, 2, 65, 0
10, 22453, Note_on_c, 2, 62, 0
10, 22457, Note_on_c, 2, 58, 0
10, 22500, Note_on_c, 2, 62, 76
10, 22500, Note_on_c, 2, 65, 56
10, 22500, Note_on_c, 2, 58, 72
10, 22626, Note_on_c, 2, 62, 0
10, 22630, Note_on_c, 2, 65, 0
10, 22635, Note_on_c, 2, 58, 0
10, 22680, Note_on_c, 2, 58, 62
10, 22680, Note_on_c, 2, 65, 57
10, 22680, Note_on_c, 2, 62, 80
10, 22690, Note_on_c, 2, 62, 0
10, 22693, Note_on_c, 2, 65, 0
10, 22698, Note_on_c, 2, 58, 0
10, 22740, Note_on_c, 2, 58, 68
10, 22740, Note_on_c, 2, 65, 57
10, 22740, Note_on_c, 2, 62, 70
10, 22904, Note_on_c, 2, 58, 0
10, 22905, Note_on_c, 2, 62, 0
10, 22906, Note_on_c, 2, 65, 0
10, 22980, Note_on_c, 2, 58, 73
10, 22980, Note_on_c, 2, 62, 84
10, 22980, Note_on_c, 2, 65, 65
10, 23120, Note_on_c, 2, 65, 0
10, 23122, Note_on_c, 2, 58, 0
10, 23125, Note_on_c, 2, 62, 0
10, 23160, Note_on_c, 2, 58, 71
10, 23160, Note_on_c, 2, 62, 57
10, 23160, Note_on_c, 2, 65, 57
10, 23177, Note_on_c, 2, 62, 0
10, 23179, Note_on_c, 2, 65, 0
10, 23180, Note_on_c, 2, 58, 0
10, 23220, Note_on_c, 2, 65, 46
10, 23220, Note_on_c, 2, 58, 59
10, 23220, Note_on_c, 2, 62, 79
10, 23326, Note_on_c, 2, 65, 0
10, 23333, Note_on_c, 2, 62, 0
10, 23335, Note_on_c, 2, 58, 0
10, 23340, Note_on_c, 2, 58, 63
10, 23340, Note_on_c, 2, 65, 73
10, 23340, Note_on_c, 2, 62, 53
10, 23357, Note_on_c, 2, 62, 0
10, 23362, Note_on_c, 2, 65, 0
10, 23362, Note_on_c, 2, 58, 0
10, 23400, Note_on_c, 2, 65, 54
10, 23400, Note_on_c, 2, 58, 59
10, 23400, Note_on_c, 2, 62, 68
10, 23427, Note_on_c, 2, 62, 0
10, 23430, Note_on_c, 2, 58, 0
10, 23432, Note_on_c, 2, 65, 0
10, 23460, Note_on_c, 2, 58, 71
10, 23460, Note_on_c, 2, 65, 64
10, 23460, Note_on_c, 2, 62, 68
10, 23474, Note_on_c, 2, 62, 0
10, 23478, Note_on_c, 2, 58, 0
10, 23480, Note_on_c, 2, 65, 0
10, 23520, Note_on_c, 2, 69, 71
10, 23520, Note_on_c, 2, 60, 72
10, 23520, Note_on_c, 2, 65, 55
10, 23626, Note_on_c, 2, 69, 0
10, 23640, Note_on_c, 2, 67, 51
10, 23666, Note_on_c, 2, 60, 0
10, 23667, Note_on_c, 2, 65, 0
10, 23685, Note_on_c, 2, 67, 0
10, 23700, Note_on_c, 2, 65, 64
10, 23700, Note_on_c, 2, 60, 75
10, 23700, Note_on_c, 2, 69, 87
10, 23954, Note_on_c, 2, 60, 0
10, 23959, Note_on_c, 2, 69, 0
10, 23962, Note_on_c, 2, 65, 0
10, 24000, Note_on_c, 2, 57, 63
10, 24000, Note_on_c, 2, 65, 63
10, 24000, Note_on_c, 2, 62, 63
10, 24033, Note_on_c, 2, 57, 0
10, 24034, Note_on_c, 2, 62, 0
10, 24037, Note_on_c, 2, 65, 0
10, 24060, Note_on_c, 2, 65, 40
10, 24060, Note_on_c, 2, 57, 40
10, 24060, Note_on_c, 2, 62, 40
10, 24080, Note_on_c, 2, 62, 0
10, 24088, Note_on_c, 2, 57, 0
10, 24093, Note_on_c, 2, 65, 0
10, 24120, Note_on_c, 2, 57, 65
10, 24120, Note_on_c, 2, 65, 65
10, 24120, Note_on_c, 2, 62, 65
10, 24148, Note_on_c, 2, 62, 0
10, 24154, Note_on_c, 2, 57, 0
10, 24155, Note_on_c, 2, 65, 0
10, 24180, Note_on_c, 2, 65, 44
10, 24180, Note_on_c, 2, 57, 44
10, 24180, Note_on_c, 2, 62, 44
10, 24202, Note_on_c, 2, 62, 0
10, 24206, Note_on_c, 2, 57, 0
10, 24210, Note_on_c, 2, 65, 0
10, 24240, Note_on_c, 2, 65, 50
10, 24240, Note_on_c, 2, 57, 68
10, 24240, Note_on_c, 2, 62, 63
10, 24267, Note_on_c, 2, 62, 0
10, 24271, Note_on_c, 2, 57, 0
10, 24274, Note_on_c, 2, 65, 0
10, 24300, Note_on_c, 2, 65, 41
10, 24300, Note_on_c, 2, 57, 41
10, 24300, Note_on_c, 2, 62, 41
10, 24322, Note_on_c, 2, 62, 0
10, 24324, Note_on_c, 2, 57, 0
10, 24330, Note_on_c, 2, 65, 0
10, 24360, Note_on_c, 2, 65, 64
10, 24360, Note_on_c, 2, 57, 64
10, 24360, Note_on_c, 2, 62, 64
10, 24388, Note_on_c, 2, 62, 0
10, 24392, Note_on_c, 2, 57, 0
10, 24397, Note_on_c, 2, 65, 0
10, 24420, Note_on_c, 2, 65, 49
10, 24420, Note_on_c, 2, 57, 49
10, 24420, Note_on_c, 2, 62, 49
10, 24434, Note_on_c, 2, 62, 0
10, 24441, Note_on_c, 2, 57, 0
10, 24445, Note_on_c, 2, 65, 0
10, 24480, Note_on_c, 2, 58, 55
10, 24480, Note_on_c, 2, 65, 55
10, 24480, Note_on_c, 2, 62, 55
10, 24512, Note_on_c, 2, 62, 0
10, 24519, Note_on_c, 2, 65, 0
10, 24519, Note_on_c, 2, 58, 0
10, 24540, Note_on_c, 2, 65, 49
10, 24540, Note_on_c, 2, 58, 49
10, 24540, Note_on_c, 2, 62, 49
10, 24565, Note_on_c, 2, 62, 0
10, 24571, Note_on_c, 2, 58, 0
10, 24573, Note_on_c, 2, 65, 0
10, 24600, Note_on_c, 2, 58, 57
10, 24600, Note_on_c, 2, 65, 57
10, 24600, Note_on_c, 2, 62, 57
10, 24630, Note_on_c, 2, 62, 0
10, 24632, Note_on_c, 2, 58, 0
10, 24640, Note_on_c, 2, 65, 0
10, 24660, Note_on_c, 2, 58, 44
10, 24660, Note_on_c, 2, 65, 44
10, 24660, Note_on_c, 2, 62, 44
10, 24682, Note_on_c, 2, 62, 0
10, 24689, Note_on_c, 2, 58, 0
10, 24698, Note_on_c, 2, 65, 0
10, 24720, Note_on_c, 2, 58, 61
10, 24720, Note_on_c, 2, 62, 61
10, 24720, Note_on_c, 2, 65, 61
10, 24744, Note_on_c, 2, 62, 0
10, 24752, Note_on_c, 2, 65, 0
10, 24752, Note_on_c, 2, 58, 0
10, 24780, Note_on_c, 2, 58, 53
10, 24780, Note_on_c, 2, 65, 53
10, 24780, Note_on_c, 2, 62, 53
10, 24804, Note_on_c, 2, 62, 0
10, 24807, Note_on_c, 2, 58, 0
10, 24812, Note_on_c, 2, 65, 0
10, 24840, Note_on_c, 2, 58, 59
10, 24840, Note_on_c, 2, 65, 59
10, 24840, Note_on_c, 2, 62, 59
10, 24862, Note_on_c, 2, 62, 0
10, 24873, Note_on_c, 2, 65, 0
10, 24875, Note_on_c, 2, 58, 0
10, 24900, Note_on_c, 2, 58, 44
10, 24900, Note_on_c, 2, 65, 44
10, 24900, Note_on_c, 2, 62, 44
10, 24923, Note_on_c, 2, 62, 0
10, 24923, Note_on_c, 2, 65, 0
10, 24941, Note_on_c, 2, 58, 0
10, 24960, Note_on_c, 2, 60, 57
10, 24960, Note_on_c, 2, 64, 57
10, 24960, Note_on_c, 2, 55, 57
10, 24992, Note_on_c, 2, 55, 0
10, 24995, Note_on_c, 2, 60, 0
10, 24996, Note_on_c, 2, 64, 0
10, 25020, Note_on_c, 2, 55, 42
10, 25020, Note_on_c, 2, 64, 42
10, 25020, Note_on_c, 2, 60, 42
10, 25039, Note_on_c, 2, 60, 0
10, 25043, Note_on_c, 2, 55, 0
10, 25044, Note_on_c, 2, 64, 0
10, 25080, Note_on_c, 2, 55, 50
10, 25080, Note_on_c, 2, 64, 50
10, 25080, Note_on_c, 2, 60, 50
10, 25101, Note_on_c, 2, 60, 0
10, 25106, Note_on_c, 2, 64, 0
10, 25108, Note_on_c, 2, 55, 0
10, 25140, Note_on_c, 2, 55, 42
10, 25140, Note_on_c, 2, 64, 42
10, 25140, Note_on_c, 2, 60, 42
10, 25163, Note_on_c, 2, 60, 0
10, 25165, Note_on_c, 2, 64, 0
10, 25170, Note_on_c, 2, 55, 0
10, 25200, Note_on_c, 2, 55, 59
10, 25200, Note_on_c, 2, 60, 59
10, 25200, Note_on_c, 2, 64, 59
10, 25225, Note_on_c, 2, 60, 0
10, 25227, Note_on_c, 2, 64, 0
10, 25230, Note_on_c, 2, 55, 0
10, 25260, Note_on_c, 2, 55, 44
10, 25260, Note_on_c, 2, 60, 44
10, 25260, Note_on_c, 2, 64, 44
10, 25289, Note_on_c, 2, 60, 0
10, 25293, Note_on_c, 2, 64, 0
10, 25293, Note_on_c, 2, 55, 0
10, 25320, Note_on_c, 2, 55, 57
10, 25320, Note_on_c, 2, 64, 57
10, 25320, Note_on_c, 2, 60, 57
10, 25351, Note_on_c, 2, 55, 0
10, 25352, Note_on_c, 2, 60, 0
10, 25354, Note_on_c, 2, 64, 0
10, 25380, Note_on_c, 2, 55, 41
10, 25380, Note_on_c, 2, 60, 41
10, 25380, Note_on_c, 2, 64, 41
10, 25414, Note_on_c, 2, 60, 0
10, 25415, Note_on_c, 2, 64, 0
10, 25419, Note_on_c, 2, 55, 0
10, 25440, Note_on_c, 2, 55, 61
10, 25440, Note_on_c, 2, 64, 61
10, 25440, Note_on_c, 2, 60, 61
10, 25473, Note_on_c, 2, 60, 0
10, 25476, Note_on_c, 2, 64, 0
10, 25478, Note_on_c, 2, 55, 0
10, 25500, Note_on_c, 2, 55, 47
10, 25500, Note_on_c, 2, 64, 47
10, 25500, Note_on_c, 2, 60, 47
10, 25530, Note_on_c, 2, 60, 0
10, 25534, Note_on_c, 2, 64, 0
10, 25535, Note_on_c, 2, 55, 0
10, 25560, Note_on_c, 2, 55, 51
10, 25560, Note_on_c, 2, 64, 51
10, 25560, Note_on_c, 2, 60, 51
10, 25594, Note_on_c, 2, 60, 0
10, 25597, Note_on_c, 2, 55, 0
10, 25599, Note_on_c, 2, 64, 0
10, 25620, Note_on_c, 2, 55, 44
10, 25620, Note_on_c, 2, 64, 44
10, 25620, Note_on_c, 2, 60, 44
10, 25645, Note_on_c, 2, 60, 0
10, 25651, Note_on_c, 2, 64, 0
10, 25655, Note_on_c, 2, 55, 0
10, 25680, Note_on_c, 2, 55, 55
10, 25680, Note_on_c, 2, 64, 55
10, 25680, Note_on_c, 2, 60, 55
10, 25712, Note_on_c, 2, 60, 0
10, 25714, Note_on_c, 2, 64, 0
10, 25716, Note_on_c, 2, 55, 0
10, 25740, Note_on_c, 2, 55, 42
10, 25740, Note_on_c, 2, 64, 42
10, 25740, Note_on_c, 2, 60, 42
10, 25763, Note_on_c, 2, 60, 0
10, 25771, Note_on_c, 2, 64, 0
10, 25775, Note_on_c, 2, 55, 0
10, 25800, Note_on_c, 2, 55, 55
10, 25800, Note_on_c, 2, 60, 55
10, 25800, Note_on_c, 2, 64, 55
10, 25830, Note_on_c, 2, 60, 0
10, 25832, Note_on_c, 2, 64, 0
10, 25838, Note_on_c, 2, 55, 0
10, 25860, Note_on_c, 2, 55, 47
10, 25860, Note_on_c, 2, 60, 47
10, 25860, Note_on_c, 2, 64, 47
10, 25887, Note_on_c, 2, 64, 0
10, 25888, Note_on_c, 2, 60, 0
10, 25898, Note_on_c, 2, 55, 0
10, 25920, Note_on_c, 2, 57, 63
10, 25920, Note_on_c, 2, 65, 63
10, 25920, Note_on_c, 2, 62, 63
10, 25953, Note_on_c, 2, 57, 0
10, 25954, Note_on_c, 2, 62, 0
10, 25957, Note_on_c, 2, 65, 0
10, 25980, Note_on_c, 2, 65, 40
10, 25980, Note_on_c, 2, 57, 40
10, 25980, Note_on_c, 2, 62, 40
10, 26000, Note_on_c, 2, 62, 0
10, 26008, Note_on_c, 2, 57, 0
10, 26013, Note_on_c, 2, 65, 0
10, 26040, Note_on_c, 2, 57, 65
10, 26040, Note_on_c, 2, 65, 65
10, 26040, Note_on_c, 2, 62, 65
10, 26068, Note_on_c, 2, 62, 0
10, 26074, Note_on_c, 2, 57, 0
10, 26075, Note_on_c, 2, 65, 0
10, 26100, Note_on_c, 2, 65, 44
10, 26100, Note_on_c, 2, 57, 44
10, 26100, Note_on_c, 2, 62, 44
10, 26122, Note_on_c, 2, 62, 0
10, 26126, Note_on_c, 2, 57, 0
10, 26130, Note_on_c, 2, 65, 0
10, 26160, Note_on_c, 2, 65, 50
10, 26160, Note_on_c, 2, 57, 68
10, 26160, Note_on_c, 2, 62, 63
10, 26187, Note_on_c, 2, 62, 0
10, 26191, Note_on_c, 2, 57, 0
10, 26194, Note_on_c, 2, 65, 0
10, 26220, Note_on_c, 2, 65, 41
10, 26220, Note_on_c, 2, 57, 41
10, 26220, Note_on_c, 2, 62, 41
10, 26242, Note_on_c, 2, 62, 0
10, 26244, Note_on_c, 2, 57, 0
10, 26250, Note_on_c, 2, 65, 0
10, 26280, Note_on_c, 2, 65, 64
10, 26280, Note_on_c, 2, 57, 64
10, 26280, Note_on_c, 2, 62, 64
10, 26308, Note_on_c, 2, 62, 0
10, 26312, Note_on_c, 2, 57, 0
10, 26317, Note_on_c, 2, 65, 0
10, 26340, Note_on_c, 2, 65, 49
10, 26340, Note_on_c, 2, 57, 49
10, 26340, Note_on_c, 2, 62, 49
10, 26354, Note_on_c, 2, 62, 0
10, 26361, Note_on_c, 2, 57, 0
10, 26365, Note_on_c, 2, 65, 0
10, 26400, Note_on_c, 2, 58, 55
10, 26400, Note_on_c, 2, 65, 55
10, 26400, Note_on_c, 2, 62, 55
10, 26432, Note_on_c, 2, 62, 0
10, 26439, Note_on_c, 2, 65, 0
10, 26439, Note_on_c, 2, 58, 0
10, 26460, Note_on_c, 2, 65, 49
10, 26460, Note_on_c, 2, 58, 49
10, 26460, Note_on_c, 2, 62, 49
10, 26485, Note_on_c, 2, 62, 0
10, 26491, Note_on_c, 2, 58, 0
10, 26493, Note_on_c, 2, 65, 0
10, 26520, Note_on_c, 2, 58, 57
10, 26520, Note_on_c, 2, 65, 57
10, 26520, Note_on_c, 2, 62, 57
10, 26550, Note_on_c, 2, 62, 0
10, 26552, Note_on_c, 2, 58, 0
10, 26560, Note_on_c, 2, 65, 0
10, 26580, Note_on_c, 2, 58, 44
10, 26580, Note_on_c, 2, 65, 44
10, 26580, Note_on_c, 2, 62, 44
10, 26602, Note_on_c, 2, 62, 0
10, 26609, Note_on_c, 2, 58, 0
10, 26618, Note_on_c, 2, 65, 0
10, 26640, Note_on_c, 2, 58, 61
10, 26640, Note_on_c, 2, 62, 61
10, 26640, Note_on_c, 2, 65, 61
10, 26664, Note_on_c, 2, 62, 0
10, 26672, Note_on_c, 2, 65, 0
10, 26672, Note_on_c, 2, 58, 0
10, 26700, Note_on_c, 2, 58, 53
10, 26700, Note_on_c, 2, 65, 53
10, 26700, Note_on_c, 2, 62, 53
10, 26724, Note_on_c, 2, 62, 0
10, 26727, Note_on_c, 2, 58, 0
10, 26732, Note_on_c, 2, 65, 0
10, 26760, Note_on_c, 2, 58, 59
10, 26760, Note_on_c, 2, 65, 59
10, 26760, Note_on_c, 2, 62, 59
10, 26782, Note_on_c, 2, 62, 0
10, 26793, Note_on_c, 2, 65, 0
10, 26795, Note_on_c, 2, 58, 0
10, 26820, Note_on_c, 2, 58, 44
10, 26820, Note_on_c, 2, 65, 44
10, 26820, Note_on_c, 2, 62, 44
10, 26843, Note_on_c, 2, 62, 0
10, 26843, Note_on_c, 2, 65, 0
10, 26861, Note_on_c, 2, 58, 0
10, 26880, Note_on_c, 2, 60, 57
10, 26880, Note_on_c, 2, 64, 57
10, 26880, Note_on_c, 2, 55, 57
10, 26912, Note_on_c, 2, 55, 0
10, 26915, Note_on_c, 2, 60, 0
10, 26916, Note_on_c, 2, 64, 0
10, 26940, Note_on_c, 2, 55, 42
10, 26940, Note_on_c, 2, 64, 42
10, 26940, Note_on_c, 2, 60, 42
10, 26959, Note_on_c, 2, 60, 0
10, 26963, Note_on_c, 2, 55, 0
10, 26964, Note_on_c, 2, 64, 0
10, 27000, Note_on_c, 2, 55, 50
10, 27000, Note_on_c, 2, 64, 50
10, 27000, Note_on_c, 2, 60, 50
10, 27021, Note_on_c, 2, 60, 0
10, 27026, Note_on_c, 2, 64, 0
10, 27028, Note_on_c, 2, 55, 0
10, 27060, Note_on_c, 2, 55, 42
10, 27060, Note_on_c, 2, 64, 42
10, 27060, Note_on_c, 2, 60, 42
10, 27083, Note_on_c, 2, 60, 0
10, 27085, Note_on_c, 2, 64, 0
10, 27090, Note_on_c, 2, 55, 0
10, 27120, Note_on_c, 2, 55, 59
10, 27120, Note_on_c, 2, 60, 59
10, 27120, Note_on_c, 2, 64, 59
10, 27145, Note_on_c, 2, 60, 0
10, 27147, Note_on_c, 2, 64, 0
10, 27150, Note_on_c, 2, 55, 0
10, 27180, Note_on_c, 2, 55, 44
10, 27180, Note_on_c, 2, 60, 44
10, 27180, Note_on_c, 2, 64, 44
10, 27209, Note_on_c, 2, 60, 0
10, 27213, Note_on_c, 2, 64, 0
10, 27213, Note_on_c, 2, 55, 0
10, 27240, Note_on_c, 2, 55, 57
10, 27240, Note_on_c, 2, 64, 57
10, 27240, Note_on_c, 2, 60, 57
10, 27271, Note_on_c, 2, 55, 0
10, 27272, Note_on_c, 2, 60, 0
10, 27274, Note_on_c, 2, 64, 0
10, 27300, Note_on_c, 2, 55, 41
10, 27300, Note_on_c, 2, 60, 41
10, 27300, Note_on_c, 2, 64, 41
10, 27334, Note_on_c, 2, 60, 0
10, 27335, Note_on_c, 2, 64, 0
10, 27339, Note_on_c, 2, 55, 0
10, 27360, Note_on_c, 2, 55, 61
10, 27360, Note_on_c, 2, 64, 61
10, 27360, Note_on_c, 2, 60, 61
10, 27393, Note_on_c, 2, 60, 0
10, 27396, Note_on_c, 2, 64, 0
10, 27398, Note_on_c, 2, 55, 0
10, 27420, Note_on_c, 2, 55, 47
10, 27420, Note_on_c, 2, 64, 47
10, 27420, Note_on_c, 2, 60, 47
10, 27450, Note_on_c, 2, 60, 0
10, 27454, Note_on_c, 2, 64, 0
10, 27455, Note_on_c, 2, 55, 0
10, 27480, Note_on_c, 2, 55, 51
10, 27480, Note_on_c, 2, 64, 51
10, 27480, Note_on_c, 2, 60, 51
10, 27514, Note_on_c, 2, 60, 0
10, 27517, Note_on_c, 2, 55, 0
10, 27519, Note_on_c, 2, 64, 0
10, 27540, Note_on_c, 2, 55, 44
10, 27540, Note_on_c, 2, 64, 44
10, 27540, Note_on_c, 2, 60, 44
10, 27565, Note_on_c, 2, 60, 0
10, 27571, Note_on_c, 2, 64, 0
10, 27575, Note_on_c, 2, 55, 0
10, 27600, Note_on_c, 2, 55, 55
10, 27600, Note_on_c, 2, 64, 55
10, 27600, Note_on_c, 2, 60, 55
10, 27632, Note_on_c, 2, 60, 0
10, 27634, Note_on_c, 2, 64, 0
10, 27636, Note_on_c, 2, 55, 0
10, 27660, Note_on_c, 2, 55, 42
10, 27660, Note_on_c, 2, 64, 42
10, 27660, Note_on_c, 2, 60, 42
10, 27683, Note_on_c, 2, 60, 0
10, 27691, Note_on_c, 2, 64, 0
10, 27695, Note_on_c, 2, 55, 0
10, 27720, Note_on_c, 2, 55, 55
10, 27720, Note_on_c, 2, 60, 55
10, 27720, Note_on_c, 2, 64, 55
10, 27750, Note_on_c, 2, 60, 0
10, 27752, Note_on_c, 2, 64, 0
10, 27758, Note_on_c, 2, 55, 0
10, 27780, Note_on_c, 2, 55, 47
10, 27780, Note_on_c, 2, 60, 47
10, 27780, Note_on_c, 2, 64, 47
10, 27807, Note_on_c, 2, 64, 0
10, 27808, Note_on_c, 2, 60, 0
10, 27818, Note_on_c, 2, 55, 0
10, 27840, Note_on_c, 2, 57, 63
10, 27840, Note_on_c, 2, 65, 63
10, 27840, Note_on_c, 2, 62, 63
10, 27873, Note_on_c, 2, 57, 0
10, 27874, Note_on_c, 2, 62, 0
10, 27877, Note_on_c, 2, 65, 0
10, 27900, Note_on_c, 2, 65, 40
10, 27900, Note_on_c, 2, 57, 40
10, 27900, Note_on_c, 2, 62, 40
10, 27920, Note_on_c, 2, 62, 0
10, 27928, Note_on_c, 2, 57, 0
10, 27933, Note_on_c, 2, 65, 0
10, 27960, Note_on_c, 2, 57, 65
10, 27960, Note_on_c, 2, 65, 65
10, 27960, Note_on_c, 2, 62, 65
10, 27988, Note_on_c, 2, 62, 0
10, 27994, Note_on_c, 2, 57, 0
10, 27995, Note_on_c, 2, 65, 0
10, 28020, Note_on_c, 2, 65, 44
10, 28020, Note_on_c, 2, 57, 44
10, 28020, Note_on_c, 2, 62, 44
10, 28042, Note_on_c, 2, 62, 0
10, 28046, Note_on_c, 2, 57, 0
10, 28050, Note_on_c, 2, 65, 0
10, 28080, Note_on_c, 2, 65, 50
10, 28080, Note_on_c, 2, 57, 68
10, 28080, Note_on_c, 2, 62, 63
10, 28107, Note_on_c, 2, 62, 0
10, 28111, Note_on_c, 2, 57, 0
10, 28114, Note_on_c, 2, 65, 0
10, 28140, Note_on_c, 2, 65, 41
10, 28140, Note_on_c, 2, 57, 41
10, 28140, Note_on_c, 2, 62, 41
10, 28162, Note_on_c, 2, 62, 0
10, 28164, Note_on_c, 2, 57, 0
10, 28170, Note_on_c, 2, 65, 0
10, 28200, Note_on_c, 2, 65, 64
10, 28200, Note_on_c, 2, 57, 64
10, 28200, Note_on_c, 2, 62, 64
10, 28228, Note_on_c, 2, 62, 0
10, 28232, Note_on_c, 2, 57, 0
10, 28237, Note_on_c, 2, 65, 0
10, 28260, Note_on_c, 2, 65, 49
10, 28260, Note_on_c, 2, 57, 49
10, 28260, Note_on_c, 2, 62, 49
10, 28274, Note_on_c, 2, 62, 0
10, 28281, Note_on_c, 2, 57, 0
10, 28285, Note_on_c, 2, 65, 0
10, 28320, Note_on_c, 2, 58, 55
10, 28320, Note_on_c, 2, 65, 55
10, 28320, Note_on_c, 2, 62, 55
10, 28352, Note_on_c, 2, 62, 0
10, 28359, Note_on_c, 2, 65, 0
10, 28359, Note_on_c, 2, 58, 0
10, 28380, Note_on_c, 2, 65, 49
10, 28380, Note_on_c, 2, 58, 49
10, 28380, Note_on_c, 2, 62, 49
10, 28405, Note_on_c, 2, 62, 0
10, 28411, Note_on_c, 2, 58, 0
10, 28413, Note_on_c, 2, 65, 0
10, 28440, Note_on_c, 2, 58, 57
10, 28440, Note_on_c, 2, 65, 57
10, 28440, Note_on_c, 2, 62, 57
10, 28470, Note_on_c, 2, 62, 0
10, 28472, Note_on_c, 2, 58, 0
10, 28480, Note_on_c, 2, 65, 0
10, 28500, Note_on_c, 2, 58, 44
10, 28500, Note_on_c, 2, 65, 44
10, 28500, Note_on_c, 2, 62, 44
10, 28522, Note_on_c, 2, 62, 0
10, 28529, Note_on_c, 2, 58, 0
10, 28538, Note_on_c, 2, 65, 0
10, 28560, Note_on_c, 2, 58, 61
10, 28560, Note_on_c, 2, 62, 61
10, 28560, Note_on_c, 2, 65, 61
10, 28584, Note_on_c, 2, 62, 0
10, 28592, Note_on_c, 2, 65, 0
10, 28592, Note_on_c, 2, 58, 0
10, 28620, Note_on_c, 2, 58, 53
10, 28620, Note_on_c, 2, 65, 53
10, 28620, Note_on_c, 2, 62, 53
10, 28644, Note_on_c, 2, 62, 0
10, 28647, Note_on_c, 2, 58, 0
10, 28652, Note_on_c, 2, 65, 0
10, 28680, Note_on_c, 2, 58, 59
10, 28680, Note_on_c, 2, 65, 59
10, 28680, Note_on_c, 2, 62, 59
10, 28702, Note_on_c, 2, 62, 0
10, 28713, Note_on_c, 2, 65, 0
10, 28715, Note_on_c, 2, 58, 0
10, 28740, Note_on_c, 2, 58, 44
10, 28740, Note_on_c, 2, 65, 44
10, 28740, Note_on_c, 2, 62, 44
10, 28763, Note_on_c, 2, 62, 0
10, 28763, Note_on_c, 2, 65, 0
10, 28781, Note_on_c, 2, 58, 0
10, 28800, Note_on_c, 2, 60, 57
10, 28800, Note_on_c, 2, 64, 57
10, 28800, Note_on_c, 2, 55, 57
10, 28832, Note_on_c, 2, 55, 0
10, 28835, Note_on_c, 2, 60, 0
10, 28836, Note_on_c, 2, 64, 0
10, 28860, Note_on_c, 2, 55, 42
10, 28860, Note_on_c, 2, 64, 42
10, 28860, Note_on_c, 2, 60, 42
10, 28879, Note_on_c, 2, 60, 0
10, 28883, Note_on_c, 2, 55, 0
10, 28884, Note_on_c, 2, 64, 0
10, 28920, Note_on_c, 2, 55, 50
10, 28920, Note_on_c, 2, 64, 50
10, 28920, Note_on_c, 2, 60, 50
10, 28941, Note_on_c, 2, 60, 0
10, 28946, Note_on_c, 2, 64, 0
10, 28948, Note_on_c, 2, 55, 0
10, 28980, Note_on_c, 2, 55, 42
10, 28980, Note_on_c, 2, 64, 42
10, 28980, Note_on_c, 2, 60, 42
10, 29003, Note_on_c, 2, 60, 0
10, 29005, Note_on_c, 2, 64, 0
10, 29010, Note_on_c, 2, 55, 0
10, 29040, Note_on_c, 2, 55, 59
10, 29040, Note_on_c, 2, 60, 59
10, 29040, Note_on_c, 2, 64, 59
10, 29065, Note_on_c, 2, 60, 0
10, 29067, Note_on_c, 2, 64, 0
10, 29070, Note_on_c, 2, 55, 0
10, 29100, Note_on_c, 2, 55, 44
10, 29100, Note_on_c, 2, 60, 44
10, 29100, Note_on_c, 2, 64, 44
10, 29129, Note_on_c, 2, 60, 0
10, 29133, Note_on_c, 2, 64, 0
10, 29133, Note_on_c, 2, 55, 0
10, 29160, Note_on_c, 2, 55, 57
10, 29160, Note_on_c, 2, 64, 57
10, 29160, Note_on_c, 2, 60, 57
10, 29191, Note_on_c, 2, 55, 0
10, 29192, Note_on_c, 2, 60, 0
10, 29194, Note_on_c, 2, 64, 0
10, 29220, Note_on_c, 2, 55, 41
10, 29220, Note_on_c, 2, 60, 41
10, 29220, Note_on_c, 2, 64, 41
10, 29254, Note_on_c, 2, 60, 0
10, 29255, Note_on_c, 2, 64, 0
10, 29259, Note_on_c, 2, 55, 0
10, 29280, Note_on_c, 2, 55, 61
10, 29280, Note_on_c, 2, 64, 61
10, 29280, Note_on_c, 2, 60, 61
10, 29313, Note_on_c, 2, 60, 0
10, 29316, Note_on_c, 2, 64, 0
10, 29318, Note_on_c, 2, 55, 0
10, 29340, Note_on_c, 2, 55, 47
10, 29340, Note_on_c, 2, 64, 47
10, 29340, Note_on_c, 2, 60, 47
10, 29370, Note_on_c, 2, 60, 0
10, 29374, Note_on_c, 2, 64, 0
10, 29375, Note_on_c, 2, 55, 0
10, 29400, Note_on_c, 2, 55, 51
10, 29400, Note_on_c, 2, 64, 51
10, 29400, Note_on_c, 2, 60, 51
10, 29434, Note_on_c, 2, 60, 0
10, 29437, Note_on_c, 2, 55, 0
10, 29439, Note_on_c, 2, 64, 0
10, 29460, Note_on_c, 2, 55, 44
10, 29460, Note_on_c, 2, 64, 44
10, 29460, Note_on_c, 2, 60, 44
10, 29485, Note_on_c, 2, 60, 0
10, 29491, Note_on_c, 2, 64, 0
10, 29495, Note_on_c, 2, 55, 0
10, 29520, Note_on_c, 2, 55, 55
10, 29520, Note_on_c, 2, 64, 55
10, 29520, Note_on_c, 2, 60, 55
10, 29552, Note_on_c, 2, 60, 0
10, 29554, Note_on_c, 2, 64, 0
10, 29556, Note_on_c, 2, 55, 0
10, 29580, Note_on_c, 2, 55, 42
10, 29580, Note_on_c, 2, 64, 42
10, 29580, Note_on_c, 2, 60, 42
10, 29603, Note_on_c, 2, 60, 0
10, 29611, Note_on_c, 2, 64, 0
10, 29615, Note_on_c, 2, 55, 0
10, 29640, Note_on_c, 2, 55, 55
10, 29640, Note_on_c, 2, 60, 55
10, 29640, Note_on_c, 2, 64, 55
10, 29670, Note_on_c, 2, 60, 0
10, 29672, Note_on_c, 2, 64, 0
10, 29678, Note_on_c, 2, 55, 0
10, 29700, Note_on_c, 2, 55, 47
10, 29700, Note_on_c, 2, 60, 47
10, 29700, Note_on_c, 2, 64, 47
10, 29727, Note_on_c, 2, 64, 0
10, 29728, Note_on_c, 2, 60, 0
10, 29738, Note_on_c, 2, 55, 0
10, 29760, Note_on_c, 2, 69, 71
10, 29760, Note_on_c, 2, 60, 72
10, 29760, Note_on_c, 2, 65, 55
10, 29866, Note_on_c, 2, 69, 0
10, 29880, Note_on_c, 2, 67, 51
10, 29906, Note_on_c, 2, 60, 0
10, 29907, Note_on_c, 2, 65, 0
10, 29925, Note_on_c, 2, 67, 0
10, 29940, Note_on_c, 2, 65, 64
10, 29940, Note_on_c, 2, 60, 75
10, 29940, Note_on_c, 2, 69, 87
10, 30194, Note_on_c, 2, 60, 0
10, 30199, Note_on_c, 2, 69, 0
10, 30202, Note_on_c, 2, 65, 0
10, 30240, Note_on_c, 2, 69, 68
10, 30240, Note_on_c, 2, 60, 75
10, 30240, Note_on_c, 2, 65, 54
10, 30360, Note_on_c, 2, 67, 45
10, 30366, Note_on_c, 2, 69, 0
10, 30378, Note_on_c, 2, 65, 0
10, 30395, Note_on_c, 2, 67, 0
10, 30406, Note_on_c, 2, 60, 0
10, 30420, Note_on_c, 2, 60, 33
10, 30420, Note_on_c, 2, 69, 72
10, 30420, Note_on_c, 2, 65, 70
10, 30632, Note_on_c, 2, 65, 0
10, 30641, Note_on_c, 2, 60, 0
10, 30643, Note_on_c, 2, 69, 0
10, 30720, Note_on_c, 2, 69, 71
10, 30720, Note_on_c, 2, 60, 70
10, 30720, Note_on_c, 2, 65, 57
10, 30823, Note_on_c, 2, 69, 0
10, 30845, Note_on_c, 2, 67, 44
10, 30864, Note_on_c, 2, 65, 0
10, 30880, Note_on_c, 2, 67, 0
10, 30900, Note_on_c, 2, 69, 57
10, 30900, Note_on_c, 2, 65, 40
10, 31019, Note_on_c, 2, 69, 0
10, 31020, Note_on_c, 2, 67, 53
10, 31050, Note_on_c, 2, 67, 0
10, 31051, Note_on_c, 2, 65, 0
10, 31071, Note_on_c, 2, 60, 0
10, 31080, Note_on_c, 2, 69, 66
10, 31080, Note_on_c, 2, 60, 66
10, 31183, Note_on_c, 2, 60, 0
10, 31186, Note_on_c, 2, 69, 0
10, 31200, Note_on_c, 2, 60, 65
10, 31200, Note_on_c, 2, 52, 42
10, 31216, Note_on_c, 2, 60, 0
10, 31222, Note_on_c, 2, 52, 0
10, 31260, Note_on_c, 2, 52, 53
10, 31260, Note_on_c, 2, 60, 55
10, 31260, Note_on_c, 2, 55, 57
10, 31278, Note_on_c, 2, 55, 0
10, 31278, Note_on_c, 2, 60, 0
10, 31280, Note_on_c, 2, 52, 0
10, 31320, Note_on_c, 2, 60, 68
10, 31320, Note_on_c, 2, 52, 45
10, 31320, Note_on_c, 2, 55, 55
10, 31320, Note_on_c, 2, 58, 35
10, 31336, Note_on_c, 2, 58, 0
10, 31340, Note_on_c, 2, 55, 0
10, 31350, Note_on_c, 2, 52, 0
10, 31360, Note_on_c, 2, 60, 0
10, 31380, Note_on_c, 2, 60, 62
10, 31380, Note_on_c, 2, 52, 54
10, 31380, Note_on_c, 2, 55, 65
10, 31380, Note_on_c, 2, 58, 50
10, 31404, Note_on_c, 2, 58, 0
10, 31420, Note_on_c, 2, 55, 0
10, 31420, Note_on_c, 2, 60, 0
10, 31424, Note_on_c, 2, 52, 0
10, 31440, Note_on_c, 2, 60, 80
10, 31440, Note_on_c, 2, 52, 68
10, 31440, Note_on_c, 2, 58, 61
10, 31440, Note_on_c, 2, 55, 70
10, 31470, Note_on_c, 2, 58, 0
10, 31480, Note_on_c, 2, 55, 0
10, 31484, Note_on_c, 2, 60, 0
10, 31486, Note_on_c, 2, 52, 0
10, 31500, Note_on_c, 2, 60, 72
10, 31500, Note_on_c, 2, 52, 74
10, 31500, Note_on_c, 2, 58, 61
10, 31500, Note_on_c, 2, 55, 70
10, 31536, Note_on_c, 2, 58, 0
10, 31542, Note_on_c, 2, 55, 0
10, 31546, Note_on_c, 2, 60, 0
10, 31548, Note_on_c, 2, 52, 0
10, 31560, Note_on_c, 2, 60, 76
10, 31560, Note_on_c, 2, 52, 80
10, 31560, Note_on_c, 2, 55, 66
10, 31560, Note_on_c, 2, 58, 62
10, 31582, Note_on_c, 2, 55, 0
10, 31588, Note_on_c, 2, 58, 0
10, 31604, Note_on_c, 2, 60, 0
10, 31608, Note_on_c, 2, 52, 0
10, 31620, Note_on_c, 2, 58, 79
10, 31620, Note_on_c, 2, 62, 82
10, 31620, Note_on_c, 2, 65, 63
10, 31776, Note_on_c, 2, 65, 0
10, 31779, Note_on_c, 2, 62, 0
10, 31779, Note_on_c, 2, 58, 0
10, 31800, Note_on_c, 2, 58, 76
10, 31800, Note_on_c, 2, 65, 65
10, 31800, Note_on_c, 2, 62, 63
10, 31808, Note_on_c, 2, 62, 0
10, 31815, Note_on_c, 2, 65, 0
10, 31820, Note_on_c, 2, 58, 0
10, 31860, Note_on_c, 2, 58, 65
10, 31860, Note_on_c, 2, 65, 53
10, 31860, Note_on_c, 2, 62, 74
10, 32034, Note_on_c, 2, 65, 0
10, 32053, Note_on_c, 2, 62, 0
10, 32057, Note_on_c, 2, 58, 0
10, 32100, Note_on_c, 2, 62, 76
10, 32100, Note_on_c, 2, 65, 56
10, 32100, Note_on_c, 2, 58, 72
10, 32226, Note_on_c, 2, 62, 0
10, 32230, Note_on_c, 2, 65, 0
10, 32235, Note_on_c, 2, 58, 0
10, 32280, Note_on_c, 2, 58, 62
10, 32280, Note_on_c, 2, 65, 57
10, 32280, Note_on_c, 2, 62, 80
10, 32290, Note_on_c, 2, 62, 0
10, 32293, Note_on_c, 2, 65, 0
10, 32298, Note_on_c, 2, 58, 0
10, 32340, Note_on_c, 2, 58, 68
10, 32340, Note_on_c, 2, 65, 57
10, 32340, Note_on_c, 2, 62, 70
10, 32504, Note_on_c, 2, 58, 0
10, 32505, Note_on_c, 2, 62, 0
10, 32506, Note_on_c, 2, 65, 0
10, 32580, Note_on_c, 2, 58, 73
10, 32580, Note_on_c, 2, 62, 84
10, 32580, Note_on_c, 2, 65, 65
10, 32720, Note_on_c, 2, 65, 0
10, 32722, Note_on_c, 2, 58, 0
10, 32725, Note_on_c, 2, 62, 0
10, 32760, Note_on_c, 2, 58, 71
10, 32760, Note_on_c, 2, 62, 57
10, 32760, Note_on_c, 2, 65, 57
10, 32777, Note_on_c, 2, 62, 0
10, 32779, Note_on_c, 2, 65, 0
10, 32780, Note_on_c, 2, 58, 0
10, 32820, Note_on_c, 2, 65, 46
10, 32820, Note_on_c, 2, 58, 59
10, 32820, Note_on_c, 2, 62, 79
10, 32926, Note_on_c, 2, 65, 0
10, 32933, Note_on_c, 2, 62, 0
10, 32935, Note_on_c, 2, 58, 0
10, 32940, Note_on_c, 2, 58, 63
10, 32940, Note_on_c, 2, 65, 73
10, 32940, Note_on_c, 2, 62, 53
10, 32957, Note_on_c, 2, 62, 0
10, 32962, Note_on_c, 2, 65, 0
10, 32962, Note_on_c, 2, 58, 0
10, 33000, Note_on_c, 2, 65, 54
10, 33000, Note_on_c, 2, 58, 59
10, 33000, Note_on_c, 2, 62, 68
10, 33027, Note_on_c, 2, 62, 0
10, 33030, Note_on_c, 2, 58, 0
10, 33032, Note_on_c, 2, 65, 0
10, 33060, Note_on_c, 2, 58, 71
10, 33060, Note_on_c, 2, 65, 64
10, 33060, Note_on_c, 2, 62, 68
10, 33074, Note_on_c, 2, 62, 0
10, 33078, Note_on_c, 2, 58, 0
10, 33080, Note_on_c, 2, 65, 0
10, 33120, Note_on_c, 2, 69, 71
10, 33120, Note_on_c, 2, 60, 72
10, 33120, Note_on_c, 2, 65, 55
10, 33226, Note_on_c, 2, 69, 0
10, 33240, Note_on_c, 2, 67, 51
10, 33266, Note_on_c, 2, 60, 0
10, 33267, Note_on_c, 2, 65, 0
10, 33285, Note_on_c, 2, 67, 0
10, 33300, Note_on_c, 2, 65, 64
10, 33300, Note_on_c, 2, 60, 75
10, 33300, Note_on_c, 2, 69, 87
10, 33554, Note_on_c, 2, 60, 0
10, 33559, Note_on_c, 2, 69, 0
10, 33562, Note_on_c, 2, 65, 0
10, 33600, Note_on_c, 2, 69, 68
10, 33600, Note_on_c, 2, 60, 75
10, 33600, Note_on_c, 2, 65, 54
10, 33720, Note_on_c, 2, 67, 45
10, 33726, Note_on_c, 2, 69, 0
10, 33738, Note_on_c, 2, 65, 0
10, 33755, Note_on_c, 2, 67, 0
10, 33766, Note_on_c, 2, 60, 0
10, 33780, Note_on_c, 2, 60, 33
10, 33780, Note_on_c, 2, 69, 72
10, 33780, Note_on_c, 2, 65, 70
10, 33992, Note_on_c, 2, 65, 0
10, 34001, Note_on_c, 2, 60, 0
10, 34003, Note_on_c, 2, 69, 0
10, 34080, Note_on_c, 2, 69, 71
10, 34080, Note_on_c, 2, 60, 72
10, 34080, Note_on_c, 2, 65, 55
10, 34186, Note_on_c, 2, 69, 0
10, 34200, Note_on_c, 2, 67, 51
10, 34226, Note_on_c, 2, 60, 0
10, 34227, Note_on_c, 2, 65, 0
10, 34245, Note_on_c, 2, 67, 0
10, 34260, Note_on_c, 2, 65, 64
10, 34260, Note_on_c, 2, 60, 75
10, 34260, Note_on_c, 2, 69, 87
10, 34514, Note_on_c, 2, 60, 0
10, 34519, Note_on_c, 2, 69, 0
10, 34522, Note_on_c, 2, 65, 0
10, 34560, Note_on_c, 2, 69, 68
10, 34560, Note_on_c, 2, 60, 75
10, 34560, Note_on_c, 2, 65, 54
10, 34680, Note_on_c, 2, 67, 45
10, 34686, Note_on_c, 2, 69, 0
10, 34698, Note_on_c, 2, 65, 0
10, 34715, Note_on_c, 2, 67, 0
10, 34726, Note_on_c, 2, 60, 0
10, 34740, Note_on_c, 2, 60, 33
10, 34740, Note_on_c, 2, 69, 72
10, 34740, Note_on_c, 2, 65, 70
10, 34952, Note_on_c, 2, 65, 0
10, 34961, Note_on_c, 2, 60, 0
10, 34963, Note_on_c, 2, 69, 0
10, 35040, Note_on_c, 2, 69, 71
10, 35040, Note_on_c, 2, 60, 70
10, 35040, Note_on_c, 2, 65, 57
10, 35143, Note_on_c, 2, 69, 0
10, 35165, Note_on_c, 2, 67, 44
10, 35184, Note_on_c, 2, 65, 0
10, 35200, Note_on_c, 2, 67, 0
10, 35220, Note_on_c, 2, 69, 57
10, 35220, Note_on_c, 2, 65, 40
10, 35339, Note_on_c, 2, 69, 0
10, 35371, Note_on_c, 2, 65, 0
10, 35391, Note_on_c, 2, 60, 0
10, 35400, Note_on_c, 2, 60, 66
10, 35403, Note_on_c, 2, 69, 66
10, 35503, Note_on_c, 2, 69, 0
10, 35503, Note_on_c, 2, 60, 0
10, 35520, Note_on_c, 2, 60, 65
10, 35520, Note_on_c, 2, 52, 42
10, 35536, Note_on_c, 2, 60, 0
10, 35542, Note_on_c, 2, 52, 0
10, 35580, Note_on_c, 2, 52, 53
10, 35580, Note_on_c, 2, 60, 55
10, 35580, Note_on_c, 2, 55, 57
10, 35598, Note_on_c, 2, 55, 0
10, 35598, Note_on_c, 2, 60, 0
10, 35600, Note_on_c, 2, 52, 0
10, 35640, Note_on_c, 2, 60, 68
10, 35640, Note_on_c, 2, 52, 45
10, 35640, Note_on_c, 2, 55, 55
10, 35640, Note_on_c, 2, 58, 35
10, 35656, Note_on_c, 2, 58, 0
10, 35660, Note_on_c, 2, 55, 0
10, 35670, Note_on_c, 2, 52, 0
10, 35680, Note_on_c, 2, 60, 0
10, 35700, Note_on_c, 2, 60, 62
10, 35700, Note_on_c, 2, 52, 54
10, 35700, Note_on_c, 2, 55, 65
10, 35700, Note_on_c, 2, 58, 50
10, 35724, Note_on_c, 2, 58, 0
10, 35740, Note_on_c, 2, 55, 0
10, 35740, Note_on_c, 2, 60, 0
10, 35744, Note_on_c, 2, 52, 0
10, 35760, Note_on_c, 2, 60, 80
10, 35760, Note_on_c, 2, 52, 68
10, 35760, Note_on_c, 2, 58, 61
10, 35760, Note_on_c, 2, 55, 70
10, 35790, Note_on_c, 2, 58, 0
10, 35800, Note_on_c, 2, 55, 0
10, 35804, Note_on_c, 2, 60, 0
10, 35806, Note_on_c, 2, 52, 0
10, 35820, Note_on_c, 2, 60, 72
10, 35820, Note_on_c, 2, 52, 74
10, 35820, Note_on_c, 2, 58, 61
10, 35820, Note_on_c, 2, 55, 70
10, 35856, Note_on_c, 2, 58, 0
10, 35862, Note_on_c, 2, 55, 0
10, 35866, Note_on_c, 2, 60, 0
10, 35868, Note_on_c, 2, 52, 0
10, 35880, Note_on_c, 2, 60, 76
10, 35880, Note_on_c, 2, 52, 80
10, 35880, Note_on_c, 2, 55, 66
10, 35880, Note_on_c, 2, 58, 62
10, 35902, Note_on_c, 2, 55, 0
10, 35908, Note_on_c, 2, 58, 0
10, 35924, Note_on_c, 2, 60, 0
10, 35928, Note_on_c, 2, 52, 0
10, 35940, Note_on_c, 2, 58, 79
10, 35940, Note_on_c, 2, 62, 82
10, 35940, Note_on_c, 2, 65, 63
10, 36096, Note_on_c, 2, 65, 0
10, 36099, Note_on_c, 2, 62, 0
10, 36099, Note_on_c, 2, 58, 0
10, 36120, Note_on_c, 2, 58, 76
10, 36120, Note_on_c, 2, 65, 65
10, 36120, Note_on_c, 2, 62, 63
10, 36128, Note_on_c, 2, 62, 0
10, 36135, Note_on_c, 2, 65, 0
10, 36140, Note_on_c, 2, 58, 0
10, 36180, Note_on_c, 2, 58, 65
10, 36180, Note_on_c, 2, 65, 53
10, 36180, Note_on_c, 2, 62, 74
10, 36354, Note_on_c, 2, 65, 0
10, 36373, Note_on_c, 2, 62, 0
10, 36377, Note_on_c, 2, 58, 0
10, 36420, Note_on_c, 2, 62, 76
10, 36420, Note_on_c, 2, 65, 56
10, 36420, Note_on_c, 2, 58, 72
10, 36546, Note_on_c, 2, 62, 0
10, 36550, Note_on_c, 2, 65, 0
10, 36555, Note_on_c, 2, 58, 0
10, 36600, Note_on_c, 2, 58, 62
10, 36600, Note_on_c, 2, 65, 57
10, 36600, Note_on_c, 2, 62, 80
10, 36610, Note_on_c, 2, 62, 0
10, 36613, Note_on_c, 2, 65, 0
10, 36618, Note_on_c, 2, 58, 0
10, 36660, Note_on_c, 2, 58, 68
10, 36660, Note_on_c, 2, 65, 57
10, 36660, Note_on_c, 2, 62, 70
10, 36824, Note_on_c, 2, 58, 0
10, 36825, Note_on_c, 2, 62, 0
10, 36826, Note_on_c, 2, 65, 0
10, 36900, Note_on_c, 2, 58, 73
10, 36900, Note_on_c, 2, 62, 84
10, 36900, Note_on_c, 2, 65, 65
10, 37040, Note_on_c, 2, 65, 0
10, 37042, Note_on_c, 2, 58, 0
10, 37045, Note_on_c, 2, 62, 0
10, 37080, Note_on_c, 2, 58, 71
10, 37080, Note_on_c, 2, 62, 57
10, 37080, Note_on_c, 2, 65, 57
10, 37097, Note_on_c, 2, 62, 0
10, 37099, Note_on_c, 2, 65, 0
10, 37100, Note_on_c, 2, 58, 0
10, 37140, Note_on_c, 2, 65, 46
10, 37140, Note_on_c, 2, 58, 59
10, 37140, Note_on_c, 2, 62, 79
10, 37246, Note_on_c, 2, 65, 0
10, 37253, Note_on_c, 2, 62, 0
10, 37255, Note_on_c, 2, 58, 0
10, 37260, Note_on_c, 2, 58, 63
10, 37260, Note_on_c, 2, 65, 73
10, 37260, Note_on_c, 2, 62, 53
10, 37277, Note_on_c, 2, 62, 0
10, 37282, Note_on_c, 2, 65, 0
10, 37282, Note_on_c, 2, 58, 0
10, 37320, Note_on_c, 2, 65, 54
10, 37320, Note_on_c, 2, 58, 59
10, 37320, Note_on_c, 2, 62, 68
10, 37347, Note_on_c, 2, 62, 0
10, 37350, Note_on_c, 2, 58, 0
10, 37352, Note_on_c, 2, 65, 0
10, 37380, Note_on_c, 2, 58, 71
10, 37380, Note_on_c, 2, 65, 64
10, 37380, Note_on_c, 2, 62, 68
10, 37394, Note_on_c, 2, 62, 0
10, 37398, Note_on_c, 2, 58, 0
10, 37400, Note_on_c, 2, 65, 0
10, 37440, Note_on_c, 2, 69, 71
10, 37440, Note_on_c, 2, 60, 72
10, 37440, Note_on_c, 2, 65, 55
10, 37546, Note_on_c, 2, 69, 0
10, 37560, Note_on_c, 2, 67, 51
10, 37586, Note_on_c, 2, 60, 0
10, 37587, Note_on_c, 2, 65, 0
10, 37605, Note_on_c, 2, 67, 0
10, 37620, Note_on_c, 2, 65, 64
10, 37620, Note_on_c, 2, 60, 75
10, 37620, Note_on_c, 2, 69, 87
10, 37874, Note_on_c, 2, 60, 0
10, 37879, Note_on_c, 2, 69, 0
10, 37882, Note_on_c, 2, 65, 0
10, 37920, Note_on_c, 2, 57, 63
10, 37920, Note_on_c, 2, 65, 63
10, 37920, Note_on_c, 2, 62, 63
10, 37953, Note_on_c, 2, 57, 0
10, 37954, Note_on_c, 2, 62, 0
10, 37957, Note_on_c, 2, 65, 0
10, 37980, Note_on_c, 2, 65, 40
10, 37980, Note_on_c, 2, 57, 40
10, 37980, Note_on_c, 2, 62, 40
10, 38000, Note_on_c, 2, 62, 0
10, 38008, Note_on_c, 2, 57, 0
10, 38013, Note_on_c, 2, 65, 0
10, 38040, Note_on_c, 2, 57, 65
10, 38040, Note_on_c, 2, 65, 65
10, 38040, Note_on_c, 2, 62, 65
10, 38068, Note_on_c, 2, 62, 0
10, 38074, Note_on_c, 2, 57, 0
10, 38075, Note_on_c, 2, 65, 0
10, 38100, Note_on_c, 2, 65, 44
10, 38100, Note_on_c, 2, 57, 44
10, 38100, Note_on_c, 2, 62, 44
10, 38122, Note_on_c, 2, 62, 0
10, 38126, Note_on_c, 2, 57, 0
10, 38130, Note_on_c, 2, 65, 0
10, 38160, Note_on_c, 2, 65, 50
10, 38160, Note_on_c, 2, 57, 68
10, 38160, Note_on_c, 2, 62, 63
10, 38187, Note_on_c, 2, 62, 0
10, 38191, Note_on_c, 2, 57, 0
10, 38194, Note_on_c, 2, 65, 0
10, 38220, Note_on_c, 2, 65, 41
10, 38220, Note_on_c, 2, 57, 41
10, 38220, Note_on_c, 2, 62, 41
10, 38242, Note_on_c, 2, 62, 0
10, 38244, Note_on_c, 2, 57, 0
10, 38250, Note_on_c, 2, 65, 0
10, 38280, Note_on_c, 2, 65, 64
10, 38280, Note_on_c, 2, 57, 64
10, 38280, Note_on_c, 2, 62, 64
10, 38308, Note_on_c, 2, 62, 0
10, 38312, Note_on_c, 2, 57, 0
10, 38317, Note_on_c, 2, 65, 0
10, 38340, Note_on_c, 2, 65, 49
10, 38340, Note_on_c, 2, 57, 49
10, 38340, Note_on_c, 2, 62, 49
10, 38354, Note_on_c, 2, 62, 0
10, 38361, Note_on_c, 2, 57, 0
10, 38365, Note_on_c, 2, 65, 0
10, 38400, Note_on_c, 2, 58, 55
10, 38400, Note_on_c, 2, 65, 55
10, 38400, Note_on_c, 2, 62, 55
10, 38432, Note_on_c, 2, 62, 0
10, 38439, Note_on_c, 2, 65, 0
10, 38439, Note_on_c, 2, 58, 0
10, 38460, Note_on_c, 2, 65, 49
10, 38460, Note_on_c, 2, 58, 49
10, 38460, Note_on_c, 2, 62, 49
10, 38485, Note_on_c, 2, 62, 0
10, 38491, Note_on_c, 2, 58, 0
10, 38493, Note_on_c, 2, 65, 0
10, 38520, Note_on_c, 2, 58, 57
10, 38520, Note_on_c, 2, 65, 57
10, 38520, Note_on_c, 2, 62, 57
10, 38550, Note_on_c, 2, 62, 0
10, 38552, Note_on_c, 2, 58, 0
10, 38560, Note_on_c, 2, 65, 0
10, 38580, Note_on_c, 2, 58, 44
10, 38580, Note_on_c, 2, 65, 44
10, 38580, Note_on_c, 2, 62, 44
10, 38602, Note_on_c, 2, 62, 0
10, 38609, Note_on_c, 2, 58, 0
10, 38618, Note_on_c, 2, 65, 0
10, 38640, Note_on_c, 2, 58, 61
10, 38640, Note_on_c, 2, 62, 61
10, 38640, Note_on_c, 2, 65, 61
10, 38664, Note_on_c, 2, 62, 0
10, 38672, Note_on_c, 2, 65, 0
10, 38672, Note_on_c, 2, 58, 0
10, 38700, Note_on_c, 2, 58, 53
10, 38700, Note_on_c, 2, 65, 53
10, 38700, Note_on_c, 2, 62, 53
10, 38724, Note_on_c, 2, 62, 0
10, 38727, Note_on_c, 2, 58, 0
10, 38732, Note_on_c, 2, 65, 0
10, 38760, Note_on_c, 2, 58, 59
10, 38760, Note_on_c, 2, 65, 59
10, 38760, Note_on_c, 2, 62, 59
10, 38782, Note_on_c, 2, 62, 0
10, 38793, Note_on_c, 2, 65, 0
10, 38795, Note_on_c, 2, 58, 0
10, 38820, Note_on_c, 2, 58, 44
10, 38820, Note_on_c, 2, 65, 44
10, 38820, Note_on_c, 2, 62, 44
10, 38843, Note_on_c, 2, 62, 0
10, 38843, Note_on_c, 2, 65, 0
10, 38861, Note_on_c, 2, 58, 0
10, 38880, Note_on_c, 2, 60, 57
10, 38880, Note_on_c, 2, 64, 57
10, 38880, Note_on_c, 2, 55, 57
10, 38912, Note_on_c, 2, 55, 0
10, 38915, Note_on_c, 2, 60, 0
10, 38916, Note_on_c, 2, 64, 0
10, 38940, Note_on_c, 2, 55, 42
10, 38940, Note_on_c, 2, 64, 42
10, 38940, Note_on_c, 2, 60, 42
10, 38959, Note_on_c, 2, 60, 0
10, 38963, Note_on_c, 2, 55, 0
10, 38964, Note_on_c, 2, 64, 0
10, 39000, Note_on_c, 2, 55, 50
10, 39000, Note_on_c, 2, 64, 50
10, 39000, Note_on_c, 2, 60, 50
10, 39021, Note_on_c, 2, 60, 0
10, 39026, Note_on_c, 2, 64, 0
10, 39028, Note_on_c, 2, 55, 0
10, 39060, Note_on_c, 2, 55, 42
10, 39060, Note_on_c, 2, 64, 42
10, 39060, Note_on_c, 2, 60, 42
10, 39083, Note_on_c, 2, 60, 0
10, 39085, Note_on_c, 2, 64, 0
10, 39090, Note_on_c, 2, 55, 0
10, 39120, Note_on_c, 2, 55, 59
10, 39120, Note_on_c, 2, 60, 59
10, 39120, Note_on_c, 2, 64, 59
10, 39145, Note_on_c, 2, 60, 0
10, 39147, Note_on_c, 2, 64, 0
10, 39150, Note_on_c, 2, 55, 0
10, 39180, Note_on_c, 2, 55, 44
10, 39180, Note_on_c, 2, 60, 44
10, 39180, Note_on_c, 2, 64, 44
10, 39209, Note_on_c, 2, 60, 0
10, 39213, Note_on_c, 2, 64, 0
10, 39213, Note_on_c, 2, 55, 0
10, 39240, Note_on_c, 2, 55, 57
10, 39240, Note_on_c, 2, 64, 57
10, 39240, Note_on_c, 2, 60, 57
10, 39271, Note_on_c, 2, 55, 0
10, 39272, Note_on_c, 2, 60, 0
10, 39274, Note_on_c, 2, 64, 0
10, 39300, Note_on_c, 2, 55, 41
10, 39300, Note_on_c, 2, 60, 41
10, 39300, Note_on_c, 2, 64, 41
10, 39334, Note_on_c, 2, 60, 0
10, 39335, Note_on_c, 2, 64, 0
10, 39339, Note_on_c, 2, 55, 0
10, 39360, Note_on_c, 2, 55, 61
10, 39360, Note_on_c, 2, 64, 61
10, 39360, Note_on_c, 2, 60, 61
10, 39393, Note_on_c, 2, 60, 0
10, 39396, Note_on_c, 2, 64, 0
10, 39398, Note_on_c, 2, 55, 0
10, 39420, Note_on_c, 2, 55, 47
10, 39420, Note_on_c, 2, 64, 47
10, 39420, Note_on_c, 2, 60, 47
10, 39450, Note_on_c, 2, 60, 0
10, 39454, Note_on_c, 2, 64, 0
10, 39455, Note_on_c, 2, 55, 0
10, 39480, Note_on_c, 2, 55, 51
10, 39480, Note_on_c, 2, 64, 51
10, 39480, Note_on_c, 2, 60, 51
10, 39514, Note_on_c, 2, 60, 0
10, 39517, Note_on_c, 2, 55, 0
10, 39519, Note_on_c, 2, 64, 0
10, 39540, Note_on_c, 2, 55, 44
10, 39540, Note_on_c, 2, 64, 44
10, 39540, Note_on_c, 2, 60, 44
10, 39565, Note_on_c, 2, 60, 0
10, 39571, Note_on_c, 2, 64, 0
10, 39575, Note_on_c, 2, 55, 0
10, 39600, Note_on_c, 2, 55, 55
10, 39600, Note_on_c, 2, 64, 55
10, 39600, Note_on_c, 2, 60, 55
10, 39632, Note_on_c, 2, 60, 0
10, 39634, Note_on_c, 2, 64, 0
10, 39636, Note_on_c, 2, 55, 0
10, 39660, Note_on_c, 2, 55, 42
10, 39660, Note_on_c, 2, 64, 42
10, 39660, Note_on_c, 2, 60, 42
10, 39683, Note_on_c, 2, 60, 0
10, 39691, Note_on_c, 2, 64, 0
10, 39695, Note_on_c, 2, 55, 0
10, 39720, Note_on_c, 2, 55, 55
10, 39720, Note_on_c, 2, 60, 55
10, 39720, Note_on_c, 2, 64, 55
10, 39750, Note_on_c, 2, 60, 0
10, 39752, Note_on_c, 2, 64, 0
10, 39758, Note_on_c, 2, 55, 0
10, 39780, Note_on_c, 2, 55, 47
10, 39780, Note_on_c, 2, 60, 47
10, 39780, Note_on_c, 2, 64, 47
10, 39807, Note_on_c, 2, 64, 0
10, 39808, Note_on_c, 2, 60, 0
10, 39818, Note_on_c, 2, 55, 0
10, 39840, Note_on_c, 2, 57, 63
10, 39840, Note_on_c, 2, 65, 63
10, 39840, Note_on_c, 2, 62, 63
10, 39873, Note_on_c, 2, 57, 0
10, 39874, Note_on_c, 2, 62, 0
10, 39877, Note_on_c, 2, 65, 0
10, 39900, Note_on_c, 2, 65, 40
10, 39900, Note_on_c, 2, 57, 40
10, 39900, Note_on_c, 2, 62, 40
10, 39920, Note_on_c, 2, 62, 0
10, 39928, Note_on_c, 2, 57, 0
10, 39933, Note_on_c, 2, 65, 0
10, 39960, Note_on_c, 2, 57, 65
10, 39960, Note_on_c, 2, 65, 65
10, 39960, Note_on_c, 2, 62, 65
10, 39988, Note_on_c, 2, 62, 0
10, 39994, Note_on_c, 2, 57, 0
10, 39995, Note_on_c, 2, 65, 0
10, 40020, Note_on_c, 2, 65, 44
10, 40020, Note_on_c, 2, 57, 44
10, 40020, Note_on_c, 2, 62, 44
10, 40042, Note_on_c, 2, 62, 0
10, 40046, Note_on_c, 2, 57, 0
10, 40050, Note_on_c, 2, 65, 0
10, 40080, Note_on_c, 2, 65, 50
10, 40080, Note_on_c, 2, 57, 68
10, 40080, Note_on_c, 2, 62, 63
10, 40107, Note_on_c, 2, 62, 0
10, 40111, Note_on_c, 2, 57, 0
10, 40114, Note_on_c, 2, 65, 0
10, 40140, Note_on_c, 2, 65, 41
10, 40140, Note_on_c, 2, 57, 41
10, 40140, Note_on_c, 2, 62, 41
10, 40162, Note_on_c, 2, 62, 0
10, 40164, Note_on_c, 2, 57, 0
10, 40170, Note_on_c, 2, 65, 0
10, 40200, Note_on_c, 2, 65, 64
10, 40200, Note_on_c, 2, 57, 64
10, 40200, Note_on_c, 2, 62, 64
10, 40228, Note_on_c, 2, 62, 0
10, 40232, Note_on_c, 2, 57, 0
10, 40237, Note_on_c, 2, 65, 0
10, 40260, Note_on_c, 2, 65, 49
10, 40260, Note_on_c, 2, 57, 49
10, 40260, Note_on_c, 2, 62, 49
10, 40274, Note_on_c, 2, 62, 0
10, 40281, Note_on_c, 2, 57, 0
10, 40285, Note_on_c, 2, 65, 0
10, 40320, Note_on_c, 2, 58, 55
10, 40320, Note_on_c, 2, 65, 55
10, 40320, Note_on_c, 2, 62, 55
10, 40352, Note_on_c, 2, 62, 0
10, 40359, Note_on_c, 2, 65, 0
10, 40359, Note_on_c, 2, 58, 0
10, 40380, Note_on_c, 2, 65, 49
10, 40380, Note_on_c, 2, 58, 49
10, 40380, Note_on_c, 2, 62, 49
10, 40405, Note_on_c, 2, 62, 0
10, 40411, Note_on_c, 2, 58, 0
10, 40413, Note_on_c, 2, 65, 0
10, 40440, Note_on_c, 2, 58, 57
10, 40440, Note_on_c, 2, 65, 57
10, 40440, Note_on_c, 2, 62, 57
10, 40470, Note_on_c, 2, 62, 0
10, 40472, Note_on_c, 2, 58, 0
10, 40480, Note_on_c, 2, 65, 0
10, 40500, Note_on_c, 2, 58, 44
10, 40500, Note_on_c, 2, 65, 44
10, 40500, Note_on_c, 2, 62, 44
10, 40522, Note_on_c, 2, 62, 0
10, 40529, Note_on_c, 2, 58, 0
10, 40538, Note_on_c, 2, 65, 0
10, 40560, Note_on_c, 2, 58, 61
10, 40560, Note_on_c, 2, 62, 61
10, 40560, Note_on_c, 2, 65, 61
10, 40584, Note_on_c, 2, 62, 0
10, 40592, Note_on_c, 2, 65, 0
10, 40592, Note_on_c, 2, 58, 0
10, 40620, Note_on_c, 2, 58, 53
10, 40620, Note_on_c, 2, 65, 53
10, 40620, Note_on_c, 2, 62, 53
10, 40644, Note_on_c, 2, 62, 0
10, 40647, Note_on_c, 2, 58, 0
10, 40652, Note_on_c, 2, 65, 0
10, 40680, Note_on_c, 2, 58, 59
10, 40680, Note_on_c, 2, 65, 59
10, 40680, Note_on_c, 2, 62, 59
10, 40702, Note_on_c, 2, 62, 0
10, 40713, Note_on_c, 2, 65, 0
10, 40715, Note_on_c, 2, 58, 0
10, 40740, Note_on_c, 2, 58, 44
10, 40740, Note_on_c, 2, 65, 44
10, 40740, Note_on_c, 2, 62, 44
10, 40763, Note_on_c, 2, 62, 0
10, 40763, Note_on_c, 2, 65, 0
10, 40781, Note_on_c, 2, 58, 0
10, 40800, Note_on_c, 2, 60, 57
10, 40800, Note_on_c, 2, 64, 57
10, 40800, Note_on_c, 2, 55, 57
10, 40832, Note_on_c, 2, 55, 0
10, 40835, Note_on_c, 2, 60, 0
10, 40836, Note_on_c, 2, 64, 0
10, 40860, Note_on_c, 2, 55, 42
10, 40860, Note_on_c, 2, 64, 42
10, 40860, Note_on_c, 2, 60, 42
10, 40879, Note_on_c, 2, 60, 0
10, 40883, Note_on_c, 2, 55, 0
10, 40884, Note_on_c, 2, 64, 0
10, 40920, Note_on_c, 2, 55, 50
10, 40920, Note_on_c, 2, 64, 50
10, 40920, Note_on_c, 2, 60, 50
10, 40941, Note_on_c, 2, 60, 0
10, 40946, Note_on_c, 2, 64, 0
10, 40948, Note_on_c, 2, 55, 0
10, 40980, Note_on_c, 2, 55, 42
10, 40980, Note_on_c, 2, 64, 42
10, 40980, Note_on_c, 2, 60, 42
10, 41003, Note_on_c, 2, 60, 0
10, 41005, Note_on_c, 2, 64, 0
10, 41010, Note_on_c, 2, 55, 0
10, 41040, Note_on_c, 2, 55, 59
10, 41040, Note_on_c, 2, 60, 59
10, 41040, Note_on_c, 2, 64, 59
10, 41065, Note_on_c, 2, 60, 0
10, 41067, Note_on_c, 2, 64, 0
10, 41070, Note_on_c, 2, 55, 0
10, 41100, Note_on_c, 2, 55, 44
10, 41100, Note_on_c, 2, 60, 44
10, 41100, Note_on_c, 2, 64, 44
10, 41129, Note_on_c, 2, 60, 0
10, 41133, Note_on_c, 2, 64, 0
10, 41133, Note_on_c, 2, 55, 0
10, 41160, Note_on_c, 2, 55, 57
10, 41160, Note_on_c, 2, 64, 57
10, 41160, Note_on_c, 2, 60, 57
10, 41191, Note_on_c, 2, 55, 0
10, 41192, Note_on_c, 2, 60, 0
10, 41194, Note_on_c, 2, 64, 0
10, 41220, Note_on_c, 2, 55, 41
10, 41220, Note_on_c, 2, 60, 41
10, 41220, Note_on_c, 2, 64, 41
10, 41254, Note_on_c, 2, 60, 0
10, 41255, Note_on_c, 2, 64, 0
10, 41259, Note_on_c, 2, 55, 0
10, 41280, Note_on_c, 2, 55, 61
10, 41280, Note_on_c, 2, 64, 61
10, 41280, Note_on_c, 2, 60, 61
10, 41313, Note_on_c, 2, 60, 0
10, 41316, Note_on_c, 2, 64, 0
10, 41318, Note_on_c, 2, 55, 0
10, 41340, Note_on_c, 2, 55, 47
10, 41340, Note_on_c, 2, 64, 47
10, 41340, Note_on_c, 2, 60, 47
10, 41370, Note_on_c, 2, 60, 0
10, 41374, Note_on_c, 2, 64, 0
10, 41375, Note_on_c, 2, 55, 0
10, 41400, Note_on_c, 2, 55, 51
10, 41400, Note_on_c, 2, 64, 51
10, 41400, Note_on_c, 2, 60, 51
10, 41434, Note_on_c, 2, 60, 0
10, 41437, Note_on_c, 2, 55, 0
10, 41439, Note_on_c, 2, 64, 0
10, 41460, Note_on_c, 2, 55, 44
10, 41460, Note_on_c, 2, 64, 44
10, 41460, Note_on_c, 2, 60, 44
10, 41485, Note_on_c, 2, 60, 0
10, 41491, Note_on_c, 2, 64, 0
10, 41495, Note_on_c, 2, 55, 0
10, 41520, Note_on_c, 2, 55, 55
10, 41520, Note_on_c, 2, 64, 55
10, 41520, Note_on_c, 2, 60, 55
10, 41552, Note_on_c, 2, 60, 0
10, 41554, Note_on_c, 2, 64, 0
10, 41556, Note_on_c, 2, 55, 0
10, 41580, Note_on_c, 2, 55, 42
10, 41580, Note_on_c, 2, 64, 42
10, 41580, Note_on_c, 2, 60, 42
10, 41603, Note_on_c, 2, 60, 0
10, 41611, Note_on_c, 2, 64, 0
10, 41615, Note_on_c, 2, 55, 0
10, 41640, Note_on_c, 2, 55, 55
10, 41640, Note_on_c, 2, 60, 55
10, 41640, Note_on_c, 2, 64, 55
10, 41670, Note_on_c, 2, 60, 0
10, 41672, Note_on_c, 2, 64, 0
10, 41678, Note_on_c, 2, 55, 0
10, 41700, Note_on_c, 2, 55, 47
10, 41700, Note_on_c, 2, 60, 47
10, 41700, Note_on_c, 2, 64, 47
10, 41727, Note_on_c, 2, 64, 0
10, 41728, Note_on_c, 2, 60, 0
10, 41738, Note_on_c, 2, 55, 0
10, 41760, Note_on_c, 2, 57, 63
10, 41760, Note_on_c, 2, 65, 63
10, 41760, Note_on_c, 2, 62, 63
10, 41793, Note_on_c, 2, 57, 0
10, 41794, Note_on_c, 2, 62, 0
10, 41797, Note_on_c, 2, 65, 0
10, 41820, Note_on_c, 2, 65, 40
10, 41820, Note_on_c, 2, 57, 40
10, 41820, Note_on_c, 2, 62, 40
10, 41840, Note_on_c, 2, 62, 0
10, 41848, Note_on_c, 2, 57, 0
10, 41853, Note_on_c, 2, 65, 0
10, 41880, Note_on_c, 2, 57, 65
10, 41880, Note_on_c, 2, 65, 65
10, 41880, Note_on_c, 2, 62, 65
10, 41908, Note_on_c, 2, 62, 0
10, 41914, Note_on_c, 2, 57, 0
10, 41915, Note_on_c, 2, 65, 0
10, 41940, Note_on_c, 2, 65, 44
10, 41940, Note_on_c, 2, 57, 44
10, 41940, Note_on_c, 2, 62, 44
10, 41962, Note_on_c, 2, 62, 0
10, 41966, Note_on_c, 2, 57, 0
10, 41970, Note_on_c, 2, 65, 0
10, 42000, Note_on_c, 2, 65, 50
10, 42000, Note_on_c, 2, 57, 68
10, 42000, Note_on_c, 2, 62, 63
10, 42027, Note_on_c, 2, 62, 0
10, 42031, Note_on_c, 2, 57, 0
10, 42034, Note_on_c, 2, 65, 0
10, 42060, Note_on_c, 2, 65, 41
10, 42060, Note_on_c, 2, 57, 41
10, 42060, Note_on_c, 2, 62, 41
10, 42082, Note_on_c, 2, 62, 0
10, 42084, Note_on_c, 2, 57, 0
10, 42090, Note_on_c, 2, 65, 0
10, 42120, Note_on_c, 2, 65, 64
10, 42120, Note_on_c, 2, 57, 64
10, 42120, Note_on_c, 2, 62, 64
10, 42148, Note_on_c, 2, 62, 0
10, 42152, Note_on_c, 2, 57, 0
10, 42157, Note_on_c, 2, 65, 0
10, 42180, Note_on_c, 2, 65, 49
10, 42180, Note_on_c, 2, 57, 49
10, 42180, Note_on_c, 2, 62, 49
10, 42194, Note_on_c, 2, 62, 0
10, 42201, Note_on_c, 2, 57, 0
10, 42205, Note_on_c, 2, 65, 0
10, 42240, Note_on_c, 2, 58, 55
10, 42240, Note_on_c, 2, 65, 55
10, 42240, Note_on_c, 2, 62, 55
10, 42272, Note_on_c, 2, 62, 0
10, 42279, Note_on_c, 2, 65, 0
10, 42279, Note_on_c, 2, 58, 0
10, 42300, Note_on_c, 2, 65, 49
10, 42300, Note_on_c, 2, 58, 49
10, 42300, Note_on_c, 2, 62, 49
10, 42325, Note_on_c, 2, 62, 0
10, 42331, Note_on_c, 2, 58, 0
10, 42333, Note_on_c, 2, 65, 0
10, 42360, Note_on_c, 2, 58, 57
10, 42360, Note_on_c, 2, 65, 57
10, 42360, Note_on_c, 2, 62, 57
10, 42390, Note_on_c, 2, 62, 0
10, 42392, Note_on_c, 2, 58, 0
10, 42400, Note_on_c, 2, 65, 0
10, 42420, Note_on_c, 2, 58, 44
10, 42420, Note_on_c, 2, 65, 44
10, 42420, Note_on_c, 2, 62, 44
10, 42442, Note_on_c, 2, 62, 0
10, 42449, Note_on_c, 2, 58, 0
10, 42458, Note_on_c, 2, 65, 0
10, 42480, Note_on_c, 2, 58, 61
10, 42480, Note_on_c, 2, 62, 61
10, 42480, Note_on_c, 2, 65, 61
10, 42504, Note_on_c, 2, 62, 0
10, 42512, Note_on_c, 2, 65, 0
10, 42512, Note_on_c, 2, 58, 0
10, 42540, Note_on_c, 2, 58, 53
10, 42540, Note_on_c, 2, 65, 53
10, 42540, Note_on_c, 2, 62, 53
10, 42564, Note_on_c, 2, 62, 0
10, 42567, Note_on_c, 2, 58, 0
10, 42572, Note_on_c, 2, 65, 0
10, 42600, Note_on_c, 2, 58, 59
10, 42600, Note_on_c, 2, 65, 59
10, 42600, Note_on_c, 2, 62, 59
10, 42622, Note_on_c, 2, 62, 0
10, 42633, Note_on_c, 2, 65, 0
10, 42635, Note_on_c, 2, 58, 0
10, 42660, Note_on_c, 2, 58, 44
10, 42660, Note_on_c, 2, 65, 44
10, 42660, Note_on_c, 2, 62, 44
10, 42683, Note_on_c, 2, 62, 0
10, 42683, Note_on_c, 2, 65, 0
10, 42701, Note_on_c, 2, 58, 0
10, 42720, Note_on_c, 2, 60, 57
10, 42720, Note_on_c, 2, 64, 57
10, 42720, Note_on_c, 2, 55, 57
10, 42752, Note_on_c, 2, 55, 0
10, 42755, Note_on_c, 2, 60, 0
10, 42756, Note_on_c, 2, 64, 0
10, 42780, Note_on_c, 2, 55, 42
10, 42780, Note_on_c, 2, 64, 42
10, 42780, Note_on_c, 2, 60, 42
10, 42799, Note_on_c, 2, 60, 0
10, 42803, Note_on_c, 2, 55, 0
10, 42804, Note_on_c, 2, 64, 0
10, 42840, Note_on_c, 2, 55, 50
10, 42840, Note_on_c, 2, 64, 50
10, 42840, Note_on_c, 2, 60, 50
10, 42861, Note_on_c, 2, 60, 0
10, 42866, Note_on_c, 2, 64, 0
10, 42868, Note_on_c, 2, 55, 0
10, 42900, Note_on_c, 2, 55, 42
10, 42900, Note_on_c, 2, 64, 42
10, 42900, Note_on_c, 2, 60, 42
10, 42923, Note_on_c, 2, 60, 0
10, 42925, Note_on_c, 2, 64, 0
10, 42930, Note_on_c, 2, 55, 0
10, 42960, Note_on_c, 2, 55, 59
10, 42960, Note_on_c, 2, 60, 59
10, 42960, Note_on_c, 2, 64, 59
10, 42985, Note_on_c, 2, 60, 0
10, 42987, Note_on_c, 2, 64, 0
10, 42990, Note_on_c, 2, 55, 0
10, 43020, Note_on_c, 2, 55, 44
10, 43020, Note_on_c, 2, 60, 44
10, 43020, Note_on_c, 2, 64, 44
10, 43049, Note_on_c, 2, 60, 0
10, 43053, Note_on_c, 2, 64, 0
10, 43053, Note_on_c, 2, 55, 0
10, 43080, Note_on_c, 2, 55, 57
10, 43080, Note_on_c, 2, 64, 57
10, 43080, Note_on_c, 2, 60, 57
10, 43111, Note_on_c, 2, 55, 0
10, 43112, Note_on_c, 2, 60, 0
10, 43114, Note_on_c, 2, 64, 0
10, 43140, Note_on_c, 2, 55, 41
10, 43140, Note_on_c, 2, 60, 41
10, 43140, Note_on_c, 2, 64, 41
10, 43174, Note_on_c, 2, 60, 0
10, 43175, Note_on_c, 2, 64, 0
10, 43179, Note_on_c, 2, 55, 0
10, 43200, Note_on_c, 2, 55, 61
10, 43200, Note_on_c, 2, 64, 61
10, 43200, Note_on_c, 2, 60, 61
10, 43233, Note_on_c, 2, 60, 0
10, 43236, Note_on_c, 2, 64, 0
10, 43238, Note_on_c, 2, 55, 0
10, 43260, Note_on_c, 2, 55, 47
10, 43260, Note_on_c, 2, 64, 47
10, 43260, Note_on_c, 2, 60, 47
10, 43290, Note_on_c, 2, 60, 0
10, 43294, Note_on_c, 2, 64, 0
10, 43295, Note_on_c, 2, 55, 0
10, 43320, Note_on_c, 2, 55, 51
10, 43320, Note_on_c, 2, 64, 51
10, 43320, Note_on_c, 2, 60, 51
10, 43354, Note_on_c, 2, 60, 0
10, 43357, Note_on_c, 2, 55, 0
10, 43359, Note_on_c, 2, 64, 0
10, 43380, Note_on_c, 2, 55, 44
10, 43380, Note_on_c, 2, 64, 44
10, 43380, Note_on_c, 2, 60, 44
10, 43405, Note_on_c, 2, 60, 0
10, 43411, Note_on_c, 2, 64, 0
10, 43415, Note_on_c, 2, 55, 0
10, 43440, Note_on_c, 2, 55, 55
10, 43440, Note_on_c, 2, 64, 55
10, 43440, Note_on_c, 2, 60, 55
10, 43472, Note_on_c, 2, 60, 0
10, 43474, Note_on_c, 2, 64, 0
10, 43476, Note_on_c, 2, 55, 0
10, 43500, Note_on_c, 2, 55, 42
10, 43500, Note_on_c, 2, 64, 42
10, 43500, Note_on_c, 2, 60, 42
10, 43523, Note_on_c, 2, 60, 0
10, 43531, Note_on_c, 2, 64, 0
10, 43535, Note_on_c, 2, 55, 0
10, 43560, Note_on_c, 2, 55, 55
10, 43560, Note_on_c, 2, 60, 55
10, 43560, Note_on_c, 2, 64, 55
10, 43590, Note_on_c, 2, 60, 0
10, 43592, Note_on_c, 2, 64, 0
10, 43598, Note_on_c, 2, 55, 0
10, 43620, Note_on_c, 2, 55, 47
10, 43620, Note_on_c, 2, 60, 47
10, 43620, Note_on_c, 2, 64, 47
10, 43647, Note_on_c, 2, 64, 0
10, 43648, Note_on_c, 2, 60, 0
10, 43658, Note_on_c, 2, 55, 0
10, 43680, Note_on_c, 2, 57, 63
10, 43680, Note_on_c, 2, 65, 63
10, 43680, Note_on_c, 2, 62, 63
10, 43713, Note_on_c, 2, 57, 0
10, 43714, Note_on_c, 2, 62, 0
10, 43717, Note_on_c, 2, 65, 0
10, 43740, Note_on_c, 2, 65, 40
10, 43740, Note_on_c, 2, 57, 40
10, 43740, Note_on_c, 2, 62, 40
10, 43760, Note_on_c, 2, 62, 0
10, 43768, Note_on_c, 2, 57, 0
10, 43773, Note_on_c, 2, 65, 0
10, 43800, Note_on_c, 2, 57, 65
10, 43800, Note_on_c, 2, 65, 65
10, 43800, Note_on_c, 2, 62, 65
10, 43828, Note_on_c, 2, 62, 0
10, 43834, Note_on_c, 2, 57, 0
10, 43835, Note_on_c, 2, 65, 0
10, 43860, Note_on_c, 2, 65, 44
10, 43860, Note_on_c, 2, 57, 44
10, 43860, Note_on_c, 2, 62, 44
10, 43882, Note_on_c, 2, 62, 0
10, 43886, Note_on_c, 2, 57, 0
10, 43890, Note_on_c, 2, 65, 0
10, 43920, Note_on_c, 2, 65, 50
10, 43920, Note_on_c, 2, 57, 68
10, 43920, Note_on_c, 2, 62, 63
10, 43947, Note_on_c, 2, 62, 0
10, 43951, Note_on_c, 2, 57, 0
10, 43954, Note_on_c, 2, 65, 0
10, 43980, Note_on_c, 2, 65, 41
10, 43980, Note_on_c, 2, 57, 41
10, 43980, Note_on_c, 2, 62, 41
10, 44002, Note_on_c, 2, 62, 0
10, 44004, Note_on_c, 2, 57, 0
10, 44010, Note_on_c, 2, 65, 0
10, 44040, Note_on_c, 2, 65, 64
10, 44040, Note_on_c, 2, 57, 64
10, 44040, Note_on_c, 2, 62, 64
10, 44068, Note_on_c, 2, 62, 0
10, 44072, Note_on_c, 2, 57, 0
10, 44077, Note_on_c, 2, 65, 0
10, 44100, Note_on_c, 2, 65, 49
10, 44100, Note_on_c, 2, 57, 49
10, 44100, Note_on_c, 2, 62, 49
10, 44114, Note_on_c, 2, 62, 0
10, 44121, Note_on_c, 2, 57, 0
10, 44125, Note_on_c, 2, 65, 0
10, 44160, Note_on_c, 2, 58, 55
10, 44160, Note_on_c, 2, 65, 55
10, 44160, Note_on_c, 2, 62, 55
10, 44192, Note_on_c, 2, 62, 0
10, 44199, Note_on_c, 2, 65, 0
10, 44199, Note_on_c, 2, 58, 0
10, 44220, Note_on_c, 2, 65, 49
10, 44220, Note_on_c, 2, 58, 49
10, 44220, Note_on_c, 2, 62, 49
10, 44245, Note_on_c, 2, 62, 0
10, 44251, Note_on_c, 2, 58, 0
10, 44253, Note_on_c, 2, 65, 0
10, 44280, Note_on_c, 2, 58, 57
10, 44280, Note_on_c, 2, 65, 57
10, 44280, Note_on_c, 2, 62, 57
10, 44310, Note_on_c, 2, 62, 0
10, 44312, Note_on_c, 2, 58, 0
10, 44320, Note_on_c, 2, 65, 0
10, 44340, Note_on_c, 2, 58, 44
10, 44340, Note_on_c, 2, 65, 44
10, 44340, Note_on_c, 2, 62, 44
10, 44362, Note_on_c, 2, 62, 0
10, 44369, Note_on_c, 2, 58, 0
10, 44378, Note_on_c, 2, 65, 0
10, 44400, Note_on_c, 2, 58, 61
10, 44400, Note_on_c, 2, 62, 61
10, 44400, Note_on_c, 2, 65, 61
10, 44424, Note_on_c, 2, 62, 0
10, 44432, Note_on_c, 2, 65, 0
10, 44432, Note_on_c, 2, 58, 0
10, 44460, Note_on_c, 2, 58, 53
10, 44460, Note_on_c, 2, 65, 53
10, 44460, Note_on_c, 2, 62, 53
10, 44484, Note_on_c, 2, 62, 0
10, 44487, Note_on_c, 2, 58, 0
10, 44492, Note_on_c, 2, 65, 0
10, 44520, Note_on_c, 2, 58, 59
10, 44520, Note_on_c, 2, 65, 59
10, 44520, Note_on_c, 2, 62, 59
10, 44542, Note_on_c, 2, 62, 0
10, 44553, Note_on_c, 2, 65, 0
10, 44555, Note_on_c, 2, 58, 0
10, 44580, Note_on_c, 2, 58, 44
10, 44580, Note_on_c, 2, 65, 44
10, 44580, Note_on_c, 2, 62, 44
10, 44603, Note_on_c, 2, 62, 0
10, 44603, Note_on_c, 2, 65, 0
10, 44621, Note_on_c, 2, 58, 0
10, 44640, Note_on_c, 2, 60, 57
10, 44640, Note_on_c, 2, 64, 57
10, 44640, Note_on_c, 2, 55, 57
10, 44672, Note_on_c, 2, 55, 0
10, 44675, Note_on_c, 2, 60, 0
10, 44676, Note_on_c, 2, 64, 0
10, 44700, Note_on_c, 2, 55, 42
10, 44700, Note_on_c, 2, 64, 42
10, 44700, Note_on_c, 2, 60, 42
10, 44719, Note_on_c, 2, 60, 0
10, 44723, Note_on_c, 2, 55, 0
10, 44724, Note_on_c, 2, 64, 0
10, 44760, Note_on_c, 2, 55, 50
10, 44760, Note_on_c, 2, 64, 50
10, 44760, Note_on_c, 2, 60, 50
10, 44781, Note_on_c, 2, 60, 0
10, 44786, Note_on_c, 2, 64, 0
10, 44788, Note_on_c, 2, 55, 0
10, 44820, Note_on_c, 2, 55, 42
10, 44820, Note_on_c, 2, 64, 42
10, 44820, Note_on_c, 2, 60, 42
10, 44843, Note_on_c, 2, 60, 0
10, 44845, Note_on_c, 2, 64, 0
10, 44850, Note_on_c, 2, 55, 0
10, 44880, Note_on_c, 2, 55, 59
10, 44880, Note_on_c, 2, 60, 59
10, 44880, Note_on_c, 2, 64, 59
10, 44905, Note_on_c, 2, 60, 0
10, 44907, Note_on_c, 2, 64, 0
10, 44910, Note_on_c, 2, 55, 0
10, 44940, Note_on_c, 2, 55, 44
10, 44940, Note_on_c, 2, 60, 44
10, 44940, Note_on_c, 2, 64, 44
10, 44969, Note_on_c, 2, 60, 0
10, 44973, Note_on_c, 2, 64, 0
10, 44973, Note_on_c, 2, 55, 0
10, 45000, Note_on_c, 2, 55, 57
10, 45000, Note_on_c, 2, 64, 57
10, 45000, Note_on_c, 2, 60, 57
10, 45031, Note_on_c, 2, 55, 0
10, 45032, Note_on_c, 2, 60, 0
10, 45034, Note_on_c, 2, 64, 0
10, 45060, Note_on_c, 2, 55, 41
10, 45060, Note_on_c, 2, 60, 41
10, 45060, Note_on_c, 2, 64, 41
10, 45094, Note_on_c, 2, 60, 0
10, 45095, Note_on_c, 2, 64, 0
10, 45099, Note_on_c, 2, 55, 0
10, 45120, Note_on_c, 2, 55, 61
10, 45120, Note_on_c, 2, 64, 61
10, 45120, Note_on_c, 2, 60, 61
10, 45153, Note_on_c, 2, 60, 0
10, 45156, Note_on_c, 2, 64, 0
10, 45158, Note_on_c, 2, 55, 0
10, 45180, Note_on_c, 2, 55, 47
10, 45180, Note_on_c, 2, 64, 47
10, 45180, Note_on_c, 2, 60, 47
10, 45210, Note_on_c, 2, 60, 0
10, 45214, Note_on_c, 2, 64, 0
10, 45215, Note_on_c, 2, 55, 0
10, 45240, Note_on_c, 2, 55, 51
10, 45240, Note_on_c, 2, 64, 51
10, 45240, Note_on_c, 2, 60, 51
10, 45274, Note_on_c, 2, 60, 0
10, 45277, Note_on_c, 2, 55, 0
10, 45279, Note_on_c, 2, 64, 0
10, 45300, Note_on_c, 2, 55, 44
10, 45300, Note_on_c, 2, 64, 44
10, 45300, Note_on_c, 2, 60, 44
10, 45325, Note_on_c, 2, 60, 0
10, 45331, Note_on_c, 2, 64, 0
10, 45335, Note_on_c, 2, 55, 0
10, 45360, Note_on_c, 2, 55, 55
10, 45360, Note_on_c, 2, 64, 55
10, 45360, Note_on_c, 2, 60, 55
10, 45392, Note_on_c, 2, 60, 0
10, 45394, Note_on_c, 2, 64, 0
10, 45396, Note_on_c, 2, 55, 0
10, 45420, Note_on_c, 2, 55, 42
10, 45420, Note_on_c, 2, 64, 42
10, 45420, Note_on_c, 2, 60, 42
10, 45443, Note_on_c, 2, 60, 0
10, 45451, Note_on_c, 2, 64, 0
10, 45455, Note_on_c, 2, 55, 0
10, 45480, Note_on_c, 2, 55, 55
10, 45480, Note_on_c, 2, 60, 55
10, 45480, Note_on_c, 2, 64, 55
10, 45510, Note_on_c, 2, 60, 0
10, 45512, Note_on_c, 2, 64, 0
10, 45518, Note_on_c, 2, 55, 0
10, 45540, Note_on_c, 2, 55, 47
10, 45540, Note_on_c, 2, 60, 47
10, 45540, Note_on_c, 2, 64, 47
10, 45567, Note_on_c, 2, 64, 0
10, 45568, Note_on_c, 2, 60, 0
10, 45578, Note_on_c, 2, 55, 0
10, 45600, Note_on_c, 2, 57, 63
10, 45600, Note_on_c, 2, 65, 63
10, 45600, Note_on_c, 2, 62, 63
10, 45633, Note_on_c, 2, 57, 0
10, 45634, Note_on_c, 2, 62, 0
10, 45637, Note_on_c, 2, 65, 0
10, 45660, Note_on_c, 2, 65, 40
10, 45660, Note_on_c, 2, 57, 40
10, 45660, Note_on_c, 2, 62, 40
10, 45680, Note_on_c, 2, 62, 0
10, 45688, Note_on_c, 2, 57, 0
10, 45693, Note_on_c, 2, 65, 0
10, 45720, Note_on_c, 2, 57, 65
10, 45720, Note_on_c, 2, 65, 65
10, 45720, Note_on_c, 2, 62, 65
10, 45748, Note_on_c, 2, 62, 0
10, 45754, Note_on_c, 2, 57, 0
10, 45755, Note_on_c, 2, 65, 0
10, 45780, Note_on_c, 2, 65, 44
10, 45780, Note_on_c, 2, 57, 44
10, 45780, Note_on_c, 2, 62, 44
10, 45802, Note_on_c, 2, 62, 0
10, 45806, Note_on_c, 2, 57, 0
10, 45810, Note_on_c, 2, 65, 0
10, 45840, Note_on_c, 2, 65, 50
10, 45840, Note_on_c, 2, 57, 68
10, 45840, Note_on_c, 2, 62, 63
10, 45867, Note_on_c, 2, 62, 0
10, 45871, Note_on_c, 2, 57, 0
10, 45874, Note_on_c, 2, 65, 0
10, 45900, Note_on_c, 2, 65, 41
10, 45900, Note_on_c, 2, 57, 41
10, 45900, Note_on_c, 2, 62, 41
10, 45922, Note_on_c, 2, 62, 0
10, 45924, Note_on_c, 2, 57, 0
10, 45930, Note_on_c, 2, 65, 0
10, 45960, Note_on_c, 2, 65, 64
10, 45960, Note_on_c, 2, 57, 64
10, 45960, Note_on_c, 2, 62, 64
10, 45988, Note_on_c, 2, 62, 0
10, 45992, Note_on_c, 2, 57, 0
10, 45997, Note_on_c, 2, 65, 0
10, 46020, Note_on_c, 2, 65, 49
10, 46020, Note_on_c, 2, 57, 49
10, 46020, Note_on_c, 2, 62, 49
10, 46034, Note_on_c, 2, 62, 0
10, 46041, Note_on_c, 2, 57, 0
10, 46045, Note_on_c, 2, 65, 0
10, 46080, Note_on_c, 2, 58, 55
10, 46080, Note_on_c, 2, 65, 55
10, 46080, Note_on_c, 2, 62, 55
10, 46112, Note_on_c, 2, 62, 0
10, 46119, Note_on_c, 2, 65, 0
10, 46119, Note_on_c, 2, 58, 0
10, 46140, Note_on_c, 2, 65, 49
10, 46140, Note_on_c, 2, 58, 49
10, 46140, Note_on_c, 2, 62, 49
10, 46165, Note_on_c, 2, 62, 0
10, 46171, Note_on_c, 2, 58, 0
10, 46173, Note_on_c, 2, 65, 0
10, 46200, Note_on_c, 2, 58, 57
10, 46200, Note_on_c, 2, 65, 57
10, 46200, Note_on_c, 2, 62, 57
10, 46230, Note_on_c, 2, 62, 0
10, 46232, Note_on_c, 2, 58, 0
10, 46240, Note_on_c, 2, 65, 0
10, 46260, Note_on_c, 2, 58, 44
10, 46260, Note_on_c, 2, 65, 44
10, 46260, Note_on_c, 2, 62, 44
10, 46282, Note_on_c, 2, 62, 0
10, 46289, Note_on_c, 2, 58, 0
10, 46298, Note_on_c, 2, 65, 0
10, 46320, Note_on_c, 2, 58, 61
10, 46320, Note_on_c, 2, 62, 61
10, 46320, Note_on_c, 2, 65, 61
10, 46344, Note_on_c, 2, 62, 0
10, 46352, Note_on_c, 2, 65, 0
10, 46352, Note_on_c, 2, 58, 0
10, 46380, Note_on_c, 2, 58, 53
10, 46380, Note_on_c, 2, 65, 53
10, 46380, Note_on_c, 2, 62, 53
10, 46404, Note_on_c, 2, 62, 0
10, 46407, Note_on_c, 2, 58, 0
10, 46412, Note_on_c, 2, 65, 0
10, 46440, Note_on_c, 2, 58, 59
10, 46440, Note_on_c, 2, 65, 59
10, 46440, Note_on_c, 2, 62, 59
10, 46462, Note_on_c, 2, 62, 0
10, 46473, Note_on_c, 2, 65, 0
10, 46475, Note_on_c, 2, 58, 0
10, 46500, Note_on_c, 2, 58, 44
10, 46500, Note_on_c, 2, 65, 44
10, 46500, Note_on_c, 2, 62, 44
10, 46523, Note_on_c, 2, 62, 0
10, 46523, Note_on_c, 2, 65, 0
10, 46541, Note_on_c, 2, 58, 0
10, 46560, Note_on_c, 2, 60, 57
10, 46560, Note_on_c, 2, 64, 57
10, 46560, Note_on_c, 2, 55, 57
10, 46592, Note_on_c, 2, 55, 0
10, 46595, Note_on_c, 2, 60, 0
10, 46596, Note_on_c, 2, 64, 0
10, 46620, Note_on_c, 2, 55, 42
10, 46620, Note_on_c, 2, 64, 42
10, 46620, Note_on_c, 2, 60, 42
10, 46639, Note_on_c, 2, 60, 0
10, 46643, Note_on_c, 2, 55, 0
10, 46644, Note_on_c, 2, 64, 0
10, 46680, Note_on_c, 2, 55, 50
10, 46680, Note_on_c, 2, 64, 50
10, 46680, Note_on_c, 2, 60, 50
10, 46701, Note_on_c, 2, 60, 0
10, 46706, Note_on_c, 2, 64, 0
10, 46708, Note_on_c, 2, 55, 0
10, 46740, Note_on_c, 2, 55, 42
10, 46740, Note_on_c, 2, 64, 42
10, 46740, Note_on_c, 2, 60, 42
10, 46763, Note_on_c, 2, 60, 0
10, 46765, Note_on_c, 2, 64, 0
10, 46770, Note_on_c, 2, 55, 0
10, 46800, Note_on_c, 2, 55, 59
10, 46800, Note_on_c, 2, 60, 59
10, 46800, Note_on_c, 2, 64, 59
10, 46825, Note_on_c, 2, 60, 0
10, 46827, Note_on_c, 2, 64, 0
10, 46830, Note_on_c, 2, 55, 0
10, 46860, Note_on_c, 2, 55, 44
10, 46860, Note_on_c, 2, 60, 44
10, 46860, Note_on_c, 2, 64, 44
10, 46889, Note_on_c, 2, 60, 0
10, 46893, Note_on_c, 2, 64, 0
10, 46893, Note_on_c, 2, 55, 0
10, 46920, Note_on_c, 2, 55, 57
10, 46920, Note_on_c, 2, 64, 57
10, 46920, Note_on_c, 2, 60, 57
10, 46951, Note_on_c, 2, 55, 0
10, 46952, Note_on_c, 2, 60, 0
10, 46954, Note_on_c, 2, 64, 0
10, 46980, Note_on_c, 2, 55, 41
10, 46980, Note_on_c, 2, 60, 41
10, 46980, Note_on_c, 2, 64, 41
10, 47014, Note_on_c, 2, 60, 0
10, 47015, Note_on_c, 2, 64, 0
10, 47019, Note_on_c, 2, 55, 0
10, 47040, Note_on_c, 2, 55, 61
10, 47040, Note_on_c, 2, 64, 61
10, 47040, Note_on_c, 2, 60, 61
10, 47073, Note_on_c, 2, 60, 0
10, 47076, Note_on_c, 2, 64, 0
10, 47078, Note_on_c, 2, 55, 0
10, 47100, Note_on_c, 2, 55, 47
10, 47100, Note_on_c, 2, 64, 47
10, 47100, Note_on_c, 2, 60, 47
10, 47130, Note_on_c, 2, 60, 0
10, 47134, Note_on_c, 2, 64, 0
10, 47135, Note_on_c, 2, 55, 0
10, 47160, Note_on_c, 2, 55, 51
10, 47160, Note_on_c, 2, 64, 51
10, 47160, Note_on_c, 2, 60, 51
10, 47194, Note_on_c, 2, 60, 0
10, 47197, Note_on_c, 2, 55, 0
10, 47199, Note_on_c, 2, 64, 0
10, 47220, Note_on_c, 2, 55, 44
10, 47220, Note_on_c, 2, 64, 44
10, 47220, Note_on_c, 2, 60, 44
10, 47245, Note_on_c, 2, 60, 0
10, 47251, Note_on_c, 2, 64, 0
10, 47255, Note_on_c, 2, 55, 0
10, 47280, Note_on_c, 2, 55, 55
10, 47280, Note_on_c, 2, 64, 55
10, 47280, Note_on_c, 2, 60, 55
10, 47312, Note_on_c, 2, 60, 0
10, 47314, Note_on_c, 2, 64, 0
10, 47316, Note_on_c, 2, 55, 0
10, 47340, Note_on_c, 2, 55, 42
10, 47340, Note_on_c, 2, 64, 42
10, 47340, Note_on_c, 2, 60, 42
10, 47363, Note_on_c, 2, 60, 0
10, 47371, Note_on_c, 2, 64, 0
10, 47375, Note_on_c, 2, 55, 0
10, 47400, Note_on_c, 2, 55, 55
10, 47400, Note_on_c, 2, 60, 55
10, 47400, Note_on_c, 2, 64, 55
10, 47430, Note_on_c, 2, 60, 0
10, 47432, Note_on_c, 2, 64, 0
10, 47438, Note_on_c, 2, 55, 0
10, 47460, Note_on_c, 2, 55, 47
10, 47460, Note_on_c, 2, 60, 47
10, 47460, Note_on_c, 2, 64, 47
10, 47487, Note_on_c, 2, 64, 0
10, 47488, Note_on_c, 2, 60, 0
10, 47498, Note_on_c, 2, 55, 0
10, 47520, Note_on_c, 2, 57, 63
10, 47520, Note_on_c, 2, 65, 63
10, 47520, Note_on_c, 2, 62, 63
10, 47553, Note_on_c, 2, 57, 0
10, 47554, Note_on_c, 2, 62, 0
10, 47557, Note_on_c, 2, 65, 0
10, 47580, Note_on_c, 2, 65, 40
10, 47580, Note_on_c, 2, 57, 40
10, 47580, Note_on_c, 2, 62, 40
10, 47600, Note_on_c, 2, 62, 0
10, 47608, Note_on_c, 2, 57, 0
10, 47613, Note_on_c, 2, 65, 0
10, 47640, Note_on_c, 2, 57, 65
10, 47640, Note_on_c, 2, 65, 65
10, 47640, Note_on_c, 2, 62, 65
10, 47668, Note_on_c, 2, 62, 0
10, 47674, Note_on_c, 2, 57, 0
10, 47675, Note_on_c, 2, 65, 0
10, 47700, Note_on_c, 2, 65, 44
10, 47700, Note_on_c, 2, 57, 44
10, 47700, Note_on_c, 2, 62, 44
10, 47722, Note_on_c, 2, 62, 0
10, 47726, Note_on_c, 2, 57, 0
10, 47730, Note_on_c, 2, 65, 0
10, 47760, Note_on_c, 2, 65, 50
10, 47760, Note_on_c, 2, 57, 68
10, 47760, Note_on_c, 2, 62, 63
10, 47787, Note_on_c, 2, 62, 0
10, 47791, Note_on_c, 2, 57, 0
10, 47794, Note_on_c, 2, 65, 0
10, 47820, Note_on_c, 2, 65, 41
10, 47820, Note_on_c, 2, 57, 41
10, 47820, Note_on_c, 2, 62, 41
10, 47842, Note_on_c, 2, 62, 0
10, 47844, Note_on_c, 2, 57, 0
10, 47850, Note_on_c, 2, 65, 0
10, 47880, Note_on_c, 2, 65, 64
10, 47880, Note_on_c, 2, 57, 64
10, 47880, Note_on_c, 2, 62, 64
10, 47908, Note_on_c, 2, 62, 0
10, 47912, Note_on_c, 2, 57, 0
10, 47917, Note_on_c, 2, 65, 0
10, 47940, Note_on_c, 2, 65, 49
10, 47940, Note_on_c, 2, 57, 49
10, 47940, Note_on_c, 2, 62, 49
10, 47954, Note_on_c, 2, 62, 0
10, 47961, Note_on_c, 2, 57, 0
10, 47965, Note_on_c, 2, 65, 0
10, 48000, Note_on_c, 2, 58, 55
10, 48000, Note_on_c, 2, 65, 55
10, 48000, Note_on_c, 2, 62, 55
10, 48032, Note_on_c, 2, 62, 0
10, 48039, Note_on_c, 2, 65, 0
10, 48039, Note_on_c, 2, 58, 0
10, 48060, Note_on_c, 2, 65, 49
10, 48060, Note_on_c, 2, 58, 49
10, 48060, Note_on_c, 2, 62, 49
10, 48085, Note_on_c, 2, 62, 0
10, 48091, Note_on_c, 2, 58, 0
10, 48093, Note_on_c, 2, 65, 0
10, 48120, Note_on_c, 2, 58, 57
10, 48120, Note_on_c, 2, 65, 57
10, 48120, Note_on_c, 2, 62, 57
10, 48150, Note_on_c, 2, 62, 0
10, 48152, Note_on_c, 2, 58, 0
10, 48160, Note_on_c, 2, 65, 0
10, 48180, Note_on_c, 2, 58, 44
10, 48180, Note_on_c, 2, 65, 44
10, 48180, Note_on_c, 2, 62, 44
10, 48202, Note_on_c, 2, 62, 0
10, 48209, Note_on_c, 2, 58, 0
10, 48218, Note_on_c, 2, 65, 0
10, 48240, Note_on_c, 2, 58, 61
10, 48240, Note_on_c, 2, 62, 61
10, 48240, Note_on_c, 2, 65, 61
10, 48264, Note_on_c, 2, 62, 0
10, 48272, Note_on_c, 2, 65, 0
10, 48272, Note_on_c, 2, 58, 0
10, 48300, Note_on_c, 2, 58, 53
10, 48300, Note_on_c, 2, 65, 53
10, 48300, Note_on_c, 2, 62, 53
10, 48324, Note_on_c, 2, 62, 0
10, 48327, Note_on_c, 2, 58, 0
10, 48332, Note_on_c, 2, 65, 0
10, 48360, Note_on_c, 2, 58, 59
10, 48360, Note_on_c, 2, 65, 59
10, 48360, Note_on_c, 2, 62, 59
10, 48382, Note_on_c, 2, 62, 0
10, 48393, Note_on_c, 2, 65, 0
10, 48395, Note_on_c, 2, 58, 0
10, 48420, Note_on_c, 2, 58, 44
10, 48420, Note_on_c, 2, 65, 44
10, 48420, Note_on_c, 2, 62, 44
10, 48443, Note_on_c, 2, 62, 0
10, 48443, Note_on_c, 2, 65, 0
10, 48461, Note_on_c, 2, 58, 0
10, 48480, Note_on_c, 2, 60, 57
10, 48480, Note_on_c, 2, 64, 57
10, 48480, Note_on_c, 2, 55, 57
10, 48512, Note_on_c, 2, 55, 0
10, 48515, Note_on_c, 2, 60, 0
10, 48516, Note_on_c, 2, 64, 0
10, 48540, Note_on_c, 2, 55, 42
10, 48540, Note_on_c, 2, 64, 42
10, 48540, Note_on_c, 2, 60, 42
10, 48559, Note_on_c, 2, 60, 0
10, 48563, Note_on_c, 2, 55, 0
10, 48564, Note_on_c, 2, 64, 0
10, 48600, Note_on_c, 2, 55, 50
10, 48600, Note_on_c, 2, 64, 50
10, 48600, Note_on_c, 2, 60, 50
10, 48621, Note_on_c, 2, 60, 0
10, 48626, Note_on_c, 2, 64, 0
10, 48628, Note_on_c, 2, 55, 0
10, 48660, Note_on_c, 2, 55, 42
10, 48660, Note_on_c, 2, 64, 42
10, 48660, Note_on_c, 2, 60, 42
10, 48683, Note_on_c, 2, 60, 0
10, 48685, Note_on_c, 2, 64, 0
10, 48690, Note_on_c, 2, 55, 0
10, 48720, Note_on_c, 2, 55, 59
10, 48720, Note_on_c, 2, 60, 59
10, 48720, Note_on_c, 2, 64, 59
10, 48745, Note_on_c, 2, 60, 0
10, 48747, Note_on_c, 2, 64, 0
10, 48750, Note_on_c, 2, 55, 0
10, 48780, Note_on_c, 2, 55, 44
10, 48780, Note_on_c, 2, 60, 44
10, 48780, Note_on_c, 2, 64, 44
10, 48809, Note_on_c, 2, 60, 0
10, 48813, Note_on_c, 2, 64, 0
10, 48813, Note_on_c, 2, 55, 0
10, 48840, Note_on_c, 2, 55, 57
10, 48840, Note_on_c, 2, 64, 57
10, 48840, Note_on_c, 2, 60, 57
10, 48871, Note_on_c, 2, 55, 0
10, 48872, Note_on_c, 2, 60, 0
10, 48874, Note_on_c, 2, 64, 0
10, 48900, Note_on_c, 2, 55, 41
10, 48900, Note_on_c, 2, 60, 41
10, 48900, Note_on_c, 2, 64, 41
10, 48934, Note_on_c, 2, 60, 0
10, 48935, Note_on_c, 2, 64, 0
10, 48939, Note_on_c, 2, 55, 0
10, 48960, Note_on_c, 2, 55, 61
10, 48960, Note_on_c, 2, 64, 61
10, 48960, Note_on_c, 2, 60, 61
10, 48993, Note_on_c, 2, 60, 0
10, 48996, Note_on_c, 2, 64, 0
10, 48998, Note_on_c, 2, 55, 0
10, 49020, Note_on_c, 2, 55, 47
10, 49020, Note_on_c, 2, 64, 47
10, 49020, Note_on_c, 2, 60, 47
10, 49050, Note_on_c, 2, 60, 0
10, 49054, Note_on_c, 2, 64, 0
10, 49055, Note_on_c, 2, 55, 0
10, 49080, Note_on_c, 2, 55, 51
10, 49080, Note_on_c, 2, 64, 51
10, 49080, Note_on_c, 2, 60, 51
10, 49114, Note_on_c, 2, 60, 0
10, 49117, Note_on_c, 2, 55, 0
10, 49119, Note_on_c, 2, 64, 0
10, 49140, Note_on_c, 2, 55, 44
10, 49140, Note_on_c, 2, 64, 44
10, 49140, Note_on_c, 2, 60, 44
10, 49165, Note_on_c, 2, 60, 0
10, 49171, Note_on_c, 2, 64, 0
10, 49175, Note_on_c, 2, 55, 0
10, 49200, Note_on_c, 2, 55, 55
10, 49200, Note_on_c, 2, 64, 55
10, 49200, Note_on_c, 2, 60, 55
10, 49232, Note_on_c, 2, 60, 0
10, 49234, Note_on_c, 2, 64, 0
10, 49236, Note_on_c, 2, 55, 0
10, 49260, Note_on_c, 2, 55, 42
10, 49260, Note_on_c, 2, 64, 42
10, 49260, Note_on_c, 2, 60, 42
10, 49283, Note_on_c, 2, 60, 0
10, 49291, Note_on_c, 2, 64, 0
10, 49295, Note_on_c, 2, 55, 0
10, 49320, Note_on_c, 2, 55, 55
10, 49320, Note_on_c, 2, 60, 55
10, 49320, Note_on_c, 2, 64, 55
10, 49350, Note_on_c, 2, 60, 0
10, 49352, Note_on_c, 2, 64, 0
10, 49358, Note_on_c, 2, 55, 0
10, 49380, Note_on_c, 2, 55, 47
10, 49380, Note_on_c, 2, 60, 47
10, 49380, Note_on_c, 2, 64, 47
10, 49407, Note_on_c, 2, 64, 0
10, 49408, Note_on_c, 2, 60, 0
10, 49418, Note_on_c, 2, 55, 0
10, 49440, Note_on_c, 2, 57, 63
10, 49440, Note_on_c, 2, 65, 63
10, 49440, Note_on_c, 2, 62, 63
10, 49473, Note_on_c, 2, 57, 0
10, 49474, Note_on_c, 2, 62, 0
10, 49477, Note_on_c, 2, 65, 0
10, 49500, Note_on_c, 2, 65, 40
10, 49500, Note_on_c, 2, 57, 40
10, 49500, Note_on_c, 2, 62, 40
10, 49520, Note_on_c, 2, 62, 0
10, 49528, Note_on_c, 2, 57, 0
10, 49533, Note_on_c, 2, 65, 0
10, 49560, Note_on_c, 2, 57, 65
10, 49560, Note_on_c, 2, 65, 65
10, 49560, Note_on_c, 2, 62, 65
10, 49588, Note_on_c, 2, 62, 0
10, 49594, Note_on_c, 2, 57, 0
10, 49595, Note_on_c, 2, 65, 0
10, 49620, Note_on_c, 2, 65, 44
10, 49620, Note_on_c, 2, 57, 44
10, 49620, Note_on_c, 2, 62, 44
10, 49642, Note_on_c, 2, 62, 0
10, 49646, Note_on_c, 2, 57, 0
10, 49650, Note_on_c, 2, 65, 0
10, 49680, Note_on_c, 2, 65, 50
10, 49680, Note_on_c, 2, 57, 68
10, 49680, Note_on_c, 2, 62, 63
10, 49707, Note_on_c, 2, 62, 0
10, 49711, Note_on_c, 2, 57, 0
10, 49714, Note_on_c, 2, 65, 0
10, 49740, Note_on_c, 2, 65, 41
10, 49740, Note_on_c, 2, 57, 41
10, 49740, Note_on_c, 2, 62, 41
10, 49762, Note_on_c, 2, 62, 0
10, 49764, Note_on_c, 2, 57, 0
10, 49770, Note_on_c, 2, 65, 0
10, 49800, Note_on_c, 2, 65, 64
10, 49800, Note_on_c, 2, 57, 64
10, 49800, Note_on_c, 2, 62, 64
10, 49828, Note_on_c, 2, 62, 0
10, 49832, Note_on_c, 2, 57, 0
10, 49837, Note_on_c, 2, 65, 0
10, 49860, Note_on_c, 2, 65, 49
10, 49860, Note_on_c, 2, 57, 49
10, 49860, Note_on_c, 2, 62, 49
10, 49874, Note_on_c, 2, 62, 0
10, 49881, Note_on_c, 2, 57, 0
10, 49885, Note_on_c, 2, 65, 0
10, 49920, Note_on_c, 2, 58, 55
10, 49920, Note_on_c, 2, 65, 55
10, 49920, Note_on_c, 2, 62, 55
10, 49952, Note_on_c, 2, 62, 0
10, 49959, Note_on_c, 2, 65, 0
10, 49959, Note_on_c, 2, 58, 0
10, 49980, Note_on_c, 2, 65, 49
10, 49980, Note_on_c, 2, 58, 49
10, 49980, Note_on_c, 2, 62, 49
10, 50005, Note_on_c, 2, 62, 0
10, 50011, Note_on_c, 2, 58, 0
10, 50013, Note_on_c, 2, 65, 0
10, 50040, Note_on_c, 2, 58, 57
10, 50040, Note_on_c, 2, 65, 57
10, 50040, Note_on_c, 2, 62, 57
10, 50070, Note_on_c, 2, 62, 0
10, 50072, Note_on_c, 2, 58, 0
10, 50080, Note_on_c, 2, 65, 0
10, 50100, Note_on_c, 2, 58, 44
10, 50100, Note_on_c, 2, 65, 44
10, 50100, Note_on_c, 2, 62, 44
10, 50122, Note_on_c, 2, 62, 0
10, 50129, Note_on_c, 2, 58, 0
10, 50138, Note_on_c, 2, 65, 0
10, 50160, Note_on_c, 2, 58, 61
10, 50160, Note_on_c, 2, 62, 61
10, 50160, Note_on_c, 2, 65, 61
10, 50184, Note_on_c, 2, 62, 0
10, 50192, Note_on_c, 2, 65, 0
10, 50192, Note_on_c, 2, 58, 0
10, 50220, Note_on_c, 2, 58, 53
10, 50220, Note_on_c, 2, 65, 53
10, 50220, Note_on_c, 2, 62, 53
10, 50244, Note_on_c, 2, 62, 0
10, 50247, Note_on_c, 2, 58, 0
10, 50252, Note_on_c, 2, 65, 0
10, 50280, Note_on_c, 2, 58, 59
10, 50280, Note_on_c, 2, 65, 59
10, 50280, Note_on_c, 2, 62, 59
10, 50302, Note_on_c, 2, 62, 0
10, 50313, Note_on_c, 2, 65, 0
10, 50315, Note_on_c, 2, 58, 0
10, 50340, Note_on_c, 2, 58, 44
10, 50340, Note_on_c, 2, 65, 44
10, 50340, Note_on_c, 2, 62, 44
10, 50363, Note_on_c, 2, 62, 0
10, 50363, Note_on_c, 2, 65, 0
10, 50381, Note_on_c, 2, 58, 0
10, 50400, Note_on_c, 2, 60, 57
10, 50400, Note_on_c, 2, 64, 57
10, 50400, Note_on_c, 2, 55, 57
10, 50432, Note_on_c, 2, 55, 0
10, 50435, Note_on_c, 2, 60, 0
10, 50436, Note_on_c, 2, 64, 0
10, 50460, Note_on_c, 2, 55, 42
10, 50460, Note_on_c, 2, 64, 42
10, 50460, Note_on_c, 2, 60, 42
10, 50479, Note_on_c, 2, 60, 0
10, 50483, Note_on_c, 2, 55, 0
10, 50484, Note_on_c, 2, 64, 0
10, 50520, Note_on_c, 2, 55, 50
10, 50520, Note_on_c, 2, 64, 50
10, 50520, Note_on_c, 2, 60, 50
10, 50541, Note_on_c, 2, 60, 0
10, 50546, Note_on_c, 2, 64, 0
10, 50548, Note_on_c, 2, 55, 0
10, 50580, Note_on_c, 2, 55, 42
10, 50580, Note_on_c, 2, 64, 42
10, 50580, Note_on_c, 2, 60, 42
10, 50603, Note_on_c, 2, 60, 0
10, 50605, Note_on_c, 2, 64, 0
10, 50610, Note_on_c, 2, 55, 0
10, 50640, Note_on_c, 2, 55, 59
10, 50640, Note_on_c, 2, 60, 59
10, 50640, Note_on_c, 2, 64, 59
10, 50665, Note_on_c, 2, 60, 0
10, 50667, Note_on_c, 2, 64, 0
10, 50670, Note_on_c, 2, 55, 0
10, 50700, Note_on_c, 2, 55, 44
10, 50700, Note_on_c, 2, 60, 44
10, 50700, Note_on_c, 2, 64, 44
10, 50729, Note_on_c, 2, 60, 0
10, 50733, Note_on_c, 2, 64, 0
10, 50733, Note_on_c, 2, 55, 0
10, 50760, Note_on_c, 2, 55, 57
10, 50760, Note_on_c, 2, 64, 57
10, 50760, Note_on_c, 2, 60, 57
10, 50791, Note_on_c, 2, 55, 0
10, 50792, Note_on_c, 2, 60, 0
10, 50794, Note_on_c, 2, 64, 0
10, 50820, Note_on_c, 2, 55, 41
10, 50820, Note_on_c, 2, 60, 41
10, 50820, Note_on_c, 2, 64, 41
10, 50854, Note_on_c, 2, 60, 0
10, 50855, Note_on_c, 2, 64, 0
10, 50859, Note_on_c, 2, 55, 0
10, 50880, Note_on_c, 2, 55, 61
10, 50880, Note_on_c, 2, 64, 61
10, 50880, Note_on_c, 2, 60, 61
10, 50913, Note_on_c, 2, 60, 0
10, 50916, Note_on_c, 2, 64, 0
10, 50918, Note_on_c, 2, 55, 0
10, 50940, Note_on_c, 2, 55, 47
10, 50940, Note_on_c, 2, 64, 47
10, 50940, Note_on_c, 2, 60, 47
10, 50970, Note_on_c, 2, 60, 0
10, 50974, Note_on_c, 2, 64, 0
10, 50975, Note_on_c, 2, 55, 0
10, 51000, Note_on_c, 2, 55, 51
10, 51000, Note_on_c, 2, 64, 51
10, 51000, Note_on_c, 2, 60, 51
10, 51034, Note_on_c, 2, 60, 0
10, 51037, Note_on_c, 2, 55, 0
10, 51039, Note_on_c, 2, 64, 0
10, 51060, Note_on_c, 2, 55, 44
10, 51060, Note_on_c, 2, 64, 44
10, 51060, Note_on_c, 2, 60, 44
10, 51085, Note_on_c, 2, 60, 0
10, 51091, Note_on_c, 2, 64, 0
10, 51095, Note_on_c, 2, 55, 0
10, 51120, Note_on_c, 2, 55, 55
10, 51120, Note_on_c, 2, 64, 55
10, 51120, Note_on_c, 2, 60, 55
10, 51152, Note_on_c, 2, 60, 0
10, 51154, Note_on_c, 2, 64, 0
10, 51156, Note_on_c, 2, 55, 0
10, 51180, Note_on_c, 2, 55, 42
10, 51180, Note_on_c, 2, 64, 42
10, 51180, Note_on_c, 2, 60, 42
10, 51203, Note_on_c, 2, 60, 0
10, 51211, Note_on_c, 2, 64, 0
10, 51215, Note_on_c, 2, 55, 0
10, 51240, Note_on_c, 2, 55, 55
10, 51240, Note_on_c, 2, 60, 55
10, 51240, Note_on_c, 2, 64, 55
10, 51270, Note_on_c, 2, 60, 0
10, 51272, Note_on_c, 2, 64, 0
10, 51278, Note_on_c, 2, 55, 0
10, 51300, Note_on_c, 2, 55, 47
10, 51300, Note_on_c, 2, 60, 47
10, 51300, Note_on_c, 2, 64, 47
10, 51327, Note_on_c, 2, 64, 0
10, 51328, Note_on_c, 2, 60, 0
10, 51338, Note_on_c, 2, 55, 0
10, 51360, Note_on_c, 2, 57, 63
10, 51360, Note_on_c, 2, 65, 63
10, 51360, Note_on_c, 2, 62, 63
10, 51393, Note_on_c, 2, 57, 0
10, 51394, Note_on_c, 2, 62, 0
10, 51397, Note_on_c, 2, 65, 0
10, 51420, Note_on_c, 2, 65, 40
10, 51420, Note_on_c, 2, 57, 40
10, 51420, Note_on_c, 2, 62, 40
10, 51440, Note_on_c, 2, 62, 0
10, 51448, Note_on_c, 2, 57, 0
10, 51453, Note_on_c, 2, 65, 0
10, 51480, Note_on_c, 2, 57, 65
10, 51480, Note_on_c, 2, 65, 65
10, 51480, Note_on_c, 2, 62, 65
10, 51508, Note_on_c, 2, 62, 0
10, 51514, Note_on_c, 2, 57, 0
10, 51515, Note_on_c, 2, 65, 0
10, 51540, Note_on_c, 2, 65, 44
10, 51540, Note_on_c, 2, 57, 44
10, 51540, Note_on_c, 2, 62, 44
10, 51562, Note_on_c, 2, 62, 0
10, 51566, Note_on_c, 2, 57, 0
10, 51570, Note_on_c, 2, 65, 0
10, 51600, Note_on_c, 2, 65, 50
10, 51600, Note_on_c, 2, 57, 68
10, 51600, Note_on_c, 2, 62, 63
10, 51627, Note_on_c, 2, 62, 0
10, 51631, Note_on_c, 2, 57, 0
10, 51634, Note_on_c, 2, 65, 0
10, 51660, Note_on_c, 2, 65, 41
10, 51660, Note_on_c, 2, 57, 41
10, 51660, Note_on_c, 2, 62, 41
10, 51682, Note_on_c, 2, 62, 0
10, 51684, Note_on_c, 2, 57, 0
10, 51690, Note_on_c, 2, 65, 0
10, 51720, Note_on_c, 2, 65, 64
10, 51720, Note_on_c, 2, 57, 64
10, 51720, Note_on_c, 2, 62, 64
10, 51748, Note_on_c, 2, 62, 0
10, 51752, Note_on_c, 2, 57, 0
10, 51757, Note_on_c, 2, 65, 0
10, 51780, Note_on_c, 2, 65, 49
10, 51780, Note_on_c, 2, 57, 49
10, 51780, Note_on_c, 2, 62, 49
10, 51794, Note_on_c, 2, 62, 0
10, 51801, Note_on_c, 2, 57, 0
10, 51805, Note_on_c, 2, 65, 0
10, 51840, Note_on_c, 2, 58, 55
10, 51840, Note_on_c, 2, 65, 55
10, 51840, Note_on_c, 2, 62, 55
10, 51872, Note_on_c, 2, 62, 0
10, 51879, Note_on_c, 2, 65, 0
10, 51879, Note_on_c, 2, 58, 0
10, 51900, Note_on_c, 2, 65, 49
10, 51900, Note_on_c, 2, 58, 49
10, 51900, Note_on_c, 2, 62, 49
10, 51925, Note_on_c, 2, 62, 0
10, 51931, Note_on_c, 2, 58, 0
10, 51933, Note_on_c, 2, 65, 0
10, 51960, Note_on_c, 2, 58, 57
10, 51960, Note_on_c, 2, 65, 57
10, 51960, Note_on_c, 2, 62, 57
10, 51990, Note_on_c, 2, 62, 0
10, 51992, Note_on_c, 2, 58, 0
10, 52000, Note_on_c, 2, 65, 0
10, 52020, Note_on_c, 2, 58, 44
10, 52020, Note_on_c, 2, 65, 44
10, 52020, Note_on_c, 2, 62, 44
10, 52042, Note_on_c, 2, 62, 0
10, 52049, Note_on_c, 2, 58, 0
10, 52058, Note_on_c, 2, 65, 0
10, 52080, Note_on_c, 2, 58, 61
10, 52080, Note_on_c, 2, 62, 61
10, 52080, Note_on_c, 2, 65, 61
10, 52104, Note_on_c, 2, 62, 0
10, 52112, Note_on_c, 2, 65, 0
10, 52112, Note_on_c, 2, 58, 0
10, 52140, Note_on_c, 2, 58, 53
10, 52140, Note_on_c, 2, 65, 53
10, 52140, Note_on_c, 2, 62, 53
10, 52164, Note_on_c, 2, 62, 0
10, 52167, Note_on_c, 2, 58, 0
10, 52172, Note_on_c, 2, 65, 0
10, 52200, Note_on_c, 2, 58, 59
10, 52200, Note_on_c, 2, 65, 59
10, 52200, Note_on_c, 2, 62, 59
10, 52222, Note_on_c, 2, 62, 0
10, 52233, Note_on_c, 2, 65, 0
10, 52235, Note_on_c, 2, 58, 0
10, 52260, Note_on_c, 2, 58, 44
10, 52260, Note_on_c, 2, 65, 44
10, 52260, Note_on_c, 2, 62, 44
10, 52283, Note_on_c, 2, 62, 0
10, 52283, Note_on_c, 2, 65, 0
10, 52301, Note_on_c, 2, 58, 0
10, 52320, Note_on_c, 2, 60, 57
10, 52320, Note_on_c, 2, 64, 57
10, 52320, Note_on_c, 2, 55, 57
10, 52352, Note_on_c, 2, 55, 0
10, 52355, Note_on_c, 2, 60, 0
10, 52356, Note_on_c, 2, 64, 0
10, 52380, Note_on_c, 2, 55, 42
10, 52380, Note_on_c, 2, 64, 42
10, 52380, Note_on_c, 2, 60, 42
10, 52399, Note_on_c, 2, 60, 0
10, 52403, Note_on_c, 2, 55, 0
10, 52404, Note_on_c, 2, 64, 0
10, 52440, Note_on_c, 2, 55, 50
10, 52440, Note_on_c, 2, 64, 50
10, 52440, Note_on_c, 2, 60, 50
10, 52461, Note_on_c, 2, 60, 0
10, 52466, Note_on_c, 2, 64, 0
10, 52468, Note_on_c, 2, 55, 0
10, 52500, Note_on_c, 2, 55, 42
10, 52500, Note_on_c, 2, 64, 42
10, 52500, Note_on_c, 2, 60, 42
10, 52523, Note_on_c, 2, 60, 0
10, 52525, Note_on_c, 2, 64, 0
10, 52530, Note_on_c, 2, 55, 0
10, 52560, Note_on_c, 2, 55, 59
10, 52560, Note_on_c, 2, 60, 59
10, 52560, Note_on_c, 2, 64, 59
10, 52585, Note_on_c, 2, 60, 0
10, 52587, Note_on_c, 2, 64, 0
10, 52590, Note_on_c, 2, 55, 0
10, 52620, Note_on_c, 2, 55, 44
10, 52620, Note_on_c, 2, 60, 44
10, 52620, Note_on_c, 2, 64, 44
10, 52649, Note_on_c, 2, 60, 0
10, 52653, Note_on_c, 2, 64, 0
10, 52653, Note_on_c, 2, 55, 0
10, 52680, Note_on_c, 2, 55, 57
10, 52680, Note_on_c, 2, 64, 57
10, 52680, Note_on_c, 2, 60, 57
10, 52711, Note_on_c, 2, 55, 0
10, 52712, Note_on_c, 2, 60, 0
10, 52714, Note_on_c, 2, 64, 0
10, 52740, Note_on_c, 2, 55, 41
10, 52740, Note_on_c, 2, 60, 41
10, 52740, Note_on_c, 2, 64, 41
10, 52774, Note_on_c, 2, 60, 0
10, 52775, Note_on_c, 2, 64, 0
10, 52779, Note_on_c, 2, 55, 0
10, 52800, Note_on_c, 2, 55, 61
10, 52800, Note_on_c, 2, 64, 61
10, 52800, Note_on_c, 2, 60, 61
10, 52833, Note_on_c, 2, 60, 0
10, 52836, Note_on_c, 2, 64, 0
10, 52838, Note_on_c, 2, 55, 0
10, 52860, Note_on_c, 2, 55, 47
10, 52860, Note_on_c, 2, 64, 47
10, 52860, Note_on_c, 2, 60, 47
10, 52890, Note_on_c, 2, 60, 0
10, 52894, Note_on_c, 2, 64, 0
10, 52895, Note_on_c, 2, 55, 0
10, 52920, Note_on_c, 2, 55, 51
10, 52920, Note_on_c, 2, 64, 51
10, 52920, Note_on_c, 2, 60, 51
10, 52954, Note_on_c, 2, 60, 0
10, 52957, Note_on_c, 2, 55, 0
10, 52959, Note_on_c, 2, 64, 0
10, 52980, Note_on_c, 2, 55, 44
10, 52980, Note_on_c, 2, 64, 44
10, 52980, Note_on_c, 2, 60, 44
10, 53005, Note_on_c, 2, 60, 0
10, 53011, Note_on_c, 2, 64, 0
10, 53015, Note_on_c, 2, 55, 0
10, 53040, Note_on_c, 2, 55, 55
10, 53040, Note_on_c, 2, 64, 55
10, 53040, Note_on_c, 2, 60, 55
10, 53072, Note_on_c, 2, 60, 0
10, 53074, Note_on_c, 2, 64, 0
10, 53076, Note_on_c, 2, 55, 0
10, 53100, Note_on_c, 2, 55, 42
10, 53100, Note_on_c, 2, 64, 42
10, 53100, Note_on_c, 2, 60, 42
10, 53123, Note_on_c, 2, 60, 0
10, 53131, Note_on_c, 2, 64, 0
10, 53135, Note_on_c, 2, 55, 0
10, 53160, Note_on_c, 2, 55, 55
10, 53160, Note_on_c, 2, 60, 55
10, 53160, Note_on_c, 2, 64, 55
10, 53190, Note_on_c, 2, 60, 0
10, 53192, Note_on_c, 2, 64, 0
10, 53198, Note_on_c, 2, 55, 0
10, 53220, Note_on_c, 2, 55, 47
10, 53220, Note_on_c, 2, 60, 47
10, 53220, Note_on_c, 2, 64, 47
10, 53247, Note_on_c, 2, 64, 0
10, 53248, Note_on_c, 2, 60, 0
10, 53258, Note_on_c, 2, 55, 0
10, 53280, Note_on_c, 2, 57, 63
10, 53280, Note_on_c, 2, 65, 63
10, 53280, Note_on_c, 2, 62, 63
10, 53313, Note_on_c, 2, 57, 0
10, 53314, Note_on_c, 2, 62, 0
10, 53317, Note_on_c, 2, 65, 0
10, 53340, Note_on_c, 2, 65, 40
10, 53340, Note_on_c, 2, 57, 40
10, 53340, Note_on_c, 2, 62, 40
10, 53360, Note_on_c, 2, 62, 0
10, 53368, Note_on_c, 2, 57, 0
10, 53373, Note_on_c, 2, 65, 0
10, 53400, Note_on_c, 2, 57, 65
10, 53400, Note_on_c, 2, 65, 65
10, 53400, Note_on_c, 2, 62, 65
10, 53428, Note_on_c, 2, 62, 0
10, 53434, Note_on_c, 2, 57, 0
10, 53435, Note_on_c, 2, 65, 0
10, 53460, Note_on_c, 2, 65, 44
10, 53460, Note_on_c, 2, 57, 44
10, 53460, Note_on_c, 2, 62, 44
10, 53482, Note_on_c, 2, 62, 0
10, 53486, Note_on_c, 2, 57, 0
10, 53490, Note_on_c, 2, 65, 0
10, 53520, Note_on_c, 2, 65, 50
10, 53520, Note_on_c, 2, 57, 68
10, 53520, Note_on_c, 2, 62, 63
10, 53547, Note_on_c, 2, 62, 0
10, 53551, Note_on_c, 2, 57, 0
10, 53554, Note_on_c, 2, 65, 0
10, 53580, Note_on_c, 2, 65, 41
10, 53580, Note_on_c, 2, 57, 41
10, 53580, Note_on_c, 2, 62, 41
10, 53602, Note_on_c, 2, 62, 0
10, 53604, Note_on_c, 2, 57, 0
10, 53610, Note_on_c, 2, 65, 0
10, 53640, Note_on_c, 2, 65, 64
10, 53640, Note_on_c, 2, 57, 64
10, 53640, Note_on_c, 2, 62, 64
10, 53668, Note_on_c, 2, 62, 0
10, 53672, Note_on_c, 2, 57, 0
10, 53677, Note_on_c, 2, 65, 0
10, 53700, Note_on_c, 2, 65, 49
10, 53700, Note_on_c, 2, 57, 49
10, 53700, Note_on_c, 2, 62, 49
10, 53714, Note_on_c, 2, 62, 0
10, 53721, Note_on_c, 2, 57, 0
10, 53725, Note_on_c, 2, 65, 0
10, 53760, Note_on_c, 2, 58, 55
10, 53760, Note_on_c, 2, 65, 55
10, 53760, Note_on_c, 2, 62, 55
10, 53792, Note_on_c, 2, 62, 0
10, 53799, Note_on_c, 2, 65, 0
10, 53799, Note_on_c, 2, 58, 0
10, 53820, Note_on_c, 2, 65, 49
10, 53820, Note_on_c, 2, 58, 49
10, 53820, Note_on_c, 2, 62, 49
10, 53845, Note_on_c, 2, 62, 0
10, 53851, Note_on_c, 2, 58, 0
10, 53853, Note_on_c, 2, 65, 0
10, 53880, Note_on_c, 2, 58, 57
10, 53880, Note_on_c, 2, 65, 57
10, 53880, Note_on_c, 2, 62, 57
10, 53910, Note_on_c, 2, 62, 0
10, 53912, Note_on_c, 2, 58, 0
10, 53920, Note_on_c, 2, 65, 0
10, 53940, Note_on_c, 2, 58, 44
10, 53940, Note_on_c, 2, 65, 44
10, 53940, Note_on_c, 2, 62, 44
10, 53962, Note_on_c, 2, 62, 0
10, 53969, Note_on_c, 2, 58, 0
10, 53978, Note_on_c, 2, 65, 0
10, 54000, Note_on_c, 2, 58, 61
10, 54000, Note_on_c, 2, 62, 61
10, 54000, Note_on_c, 2, 65, 61
10, 54024, Note_on_c, 2, 62, 0
10, 54032, Note_on_c, 2, 65, 0
10, 54032, Note_on_c, 2, 58, 0
10, 54060, Note_on_c, 2, 58, 53
10, 54060, Note_on_c, 2, 65, 53
10, 54060, Note_on_c, 2, 62, 53
10, 54084, Note_on_c, 2, 62, 0
10, 54087, Note_on_c, 2, 58, 0
10, 54092, Note_on_c, 2, 65, 0
10, 54120, Note_on_c, 2, 58, 59
10, 54120, Note_on_c, 2, 65, 59
10, 54120, Note_on_c, 2, 62, 59
10, 54142, Note_on_c, 2, 62, 0
10, 54153, Note_on_c, 2, 65, 0
10, 54155, Note_on_c, 2, 58, 0
10, 54180, Note_on_c, 2, 58, 44
10, 54180, Note_on_c, 2, 65, 44
10, 54180, Note_on_c, 2, 62, 44
10, 54203, Note_on_c, 2, 62, 0
10, 54203, Note_on_c, 2, 65, 0
10, 54221, Note_on_c, 2, 58, 0
10, 54240, Note_on_c, 2, 60, 57
10, 54240, Note_on_c, 2, 64, 57
10, 54240, Note_on_c, 2, 55, 57
10, 54272, Note_on_c, 2, 55, 0
10, 54275, Note_on_c, 2, 60, 0
10, 54276, Note_on_c, 2, 64, 0
10, 54300, Note_on_c, 2, 55, 42
10, 54300, Note_on_c, 2, 64, 42
10, 54300, Note_on_c, 2, 60, 42
10, 54319, Note_on_c, 2, 60, 0
10, 54323, Note_on_c, 2, 55, 0
10, 54324, Note_on_c, 2, 64, 0
10, 54360, Note_on_c, 2, 55, 50
10, 54360, Note_on_c, 2, 64, 50
10, 54360, Note_on_c, 2, 60, 50
10, 54381, Note_on_c, 2, 60, 0
10, 54386, Note_on_c, 2, 64, 0
10, 54388, Note_on_c, 2, 55, 0
10, 54420, Note_on_c, 2, 55, 42
10, 54420, Note_on_c, 2, 64, 42
10, 54420, Note_on_c, 2, 60, 42
10, 54443, Note_on_c, 2, 60, 0
10, 54445, Note_on_c, 2, 64, 0
10, 54450, Note_on_c, 2, 55, 0
10, 54480, Note_on_c, 2, 55, 59
10, 54480, Note_on_c, 2, 60, 59
10, 54480, Note_on_c, 2, 64, 59
10, 54505, Note_on_c, 2, 60, 0
10, 54507, Note_on_c, 2, 64, 0
10, 54510, Note_on_c, 2, 55, 0
10, 54540, Note_on_c, 2, 55, 44
10, 54540, Note_on_c, 2, 60, 44
10, 54540, Note_on_c, 2, 64, 44
10, 54569, Note_on_c, 2, 60, 0
10, 54573, Note_on_c, 2, 64, 0
10, 54573, Note_on_c, 2, 55, 0
10, 54600, Note_on_c, 2, 55, 57
10, 54600, Note_on_c, 2, 64, 57
10, 54600, Note_on_c, 2, 60, 57
10, 54631, Note_on_c, 2, 55, 0
10, 54632, Note_on_c, 2, 60, 0
10, 54634, Note_on_c, 2, 64, 0
10, 54660, Note_on_c, 2, 55, 41
10, 54660, Note_on_c, 2, 60, 41
10, 54660, Note_on_c, 2, 64, 41
10, 54694, Note_on_c, 2, 60, 0
10, 54695, Note_on_c, 2, 64, 0
10, 54699, Note_on_c, 2, 55, 0
10, 54720, Note_on_c, 2, 55, 61
10, 54720, Note_on_c, 2, 64, 61
10, 54720, Note_on_c, 2, 60, 61
10, 54753, Note_on_c, 2, 60, 0
10, 54756, Note_on_c, 2, 64, 0
10, 54758, Note_on_c, 2, 55, 0
10, 54780, Note_on_c, 2, 55, 47
10, 54780, Note_on_c, 2, 64, 47
10, 54780, Note_on_c, 2, 60, 47
10, 54810, Note_on_c, 2, 60, 0
10, 54814, Note_on_c, 2, 64, 0
10, 54815, Note_on_c, 2, 55, 0
10, 54840, Note_on_c, 2, 55, 51
10, 54840, Note_on_c, 2, 64, 51
10, 54840, Note_on_c, 2, 60, 51
10, 54874, Note_on_c, 2, 60, 0
10, 54877, Note_on_c, 2, 55, 0
10, 54879, Note_on_c, 2, 64, 0
10, 54900, Note_on_c, 2, 55, 44
10, 54900, Note_on_c, 2, 64, 44
10, 54900, Note_on_c, 2, 60, 44
10, 54925, Note_on_c, 2, 60, 0
10, 54931, Note_on_c, 2, 64, 0
10, 54935, Note_on_c, 2, 55, 0
10, 54960, Note_on_c, 2, 55, 55
10, 54960, Note_on_c, 2, 64, 55
10, 54960, Note_on_c, 2, 60, 55
10, 54992, Note_on_c, 2, 60, 0
10, 54994, Note_on_c, 2, 64, 0
10, 54996, Note_on_c, 2, 55, 0
10, 55020, Note_on_c, 2, 55, 42
10, 55020, Note_on_c, 2, 64, 42
10, 55020, Note_on_c, 2, 60, 42
10, 55043, Note_on_c, 2, 60, 0
10, 55051, Note_on_c, 2, 64, 0
10, 55055, Note_on_c, 2, 55, 0
10, 55080, Note_on_c, 2, 55, 55
10, 55080, Note_on_c, 2, 60, 55
10, 55080, Note_on_c, 2, 64, 55
10, 55110, Note_on_c, 2, 60, 0
10, 55112, Note_on_c, 2, 64, 0
10, 55118, Note_on_c, 2, 55, 0
10, 55140, Note_on_c, 2, 55, 47
10, 55140, Note_on_c, 2, 60, 47
10, 55140, Note_on_c, 2, 64, 47
10, 55167, Note_on_c, 2, 64, 0
10, 55168, Note_on_c, 2, 60, 0
10, 55178, Note_on_c, 2, 55, 0
10, 55200, Note_on_c, 2, 57, 63
10, 55200, Note_on_c, 2, 65, 63
10, 55200, Note_on_c, 2, 62, 63
10, 55233, Note_on_c, 2, 57, 0
10, 55234, Note_on_c, 2, 62, 0
10, 55237, Note_on_c, 2, 65, 0
10, 55260, Note_on_c, 2, 65, 40
10, 55260, Note_on_c, 2, 57, 40
10, 55260, Note_on_c, 2, 62, 40
10, 55280, Note_on_c, 2, 62, 0
10, 55288, Note_on_c, 2, 57, 0
10, 55293, Note_on_c, 2, 65, 0
10, 55320, Note_on_c, 2, 57, 65
10, 55320, Note_on_c, 2, 65, 65
10, 55320, Note_on_c, 2, 62, 65
10, 55348, Note_on_c, 2, 62, 0
10, 55354, Note_on_c, 2, 57, 0
10, 55355, Note_on_c, 2, 65, 0
10, 55380, Note_on_c, 2, 65, 44
10, 55380, Note_on_c, 2, 57, 44
10, 55380, Note_on_c, 2, 62, 44
10, 55402, Note_on_c, 2, 62, 0
10, 55406, Note_on_c, 2, 57, 0
10, 55410, Note_on_c, 2, 65, 0
10, 55440, Note_on_c, 2, 65, 50
10, 55440, Note_on_c, 2, 57, 68
10, 55440, Note_on_c, 2, 62, 63
10, 55467, Note_on_c, 2, 62, 0
10, 55471, Note_on_c, 2, 57, 0
10, 55474, Note_on_c, 2, 65, 0
10, 55500, Note_on_c, 2, 65, 41
10, 55500, Note_on_c, 2, 57, 41
10, 55500, Note_on_c, 2, 62, 41
10, 55522, Note_on_c, 2, 62, 0
10, 55524, Note_on_c, 2, 57, 0
10, 55530, Note_on_c, 2, 65, 0
10, 55560, Note_on_c, 2, 65, 64
10, 55560, Note_on_c, 2, 57, 64
10, 55560, Note_on_c, 2, 62, 64
10, 55588, Note_on_c, 2, 62, 0
10, 55592, Note_on_c, 2, 57, 0
10, 55597, Note_on_c, 2, 65, 0
10, 55620, Note_on_c, 2, 65, 49
10, 55620, Note_on_c, 2, 57, 49
10, 55620, Note_on_c, 2, 62, 49
10, 55634, Note_on_c, 2, 62, 0
10, 55641, Note_on_c, 2, 57, 0
10, 55645, Note_on_c, 2, 65, 0
10, 55680, Note_on_c, 2, 58, 55
10, 55680, Note_on_c, 2, 65, 55
10, 55680, Note_on_c, 2, 62, 55
10, 55712, Note_on_c, 2, 62, 0
10, 55719, Note_on_c, 2, 65, 0
10, 55719, Note_on_c, 2, 58, 0
10, 55740, Note_on_c, 2, 65, 49
10, 55740, Note_on_c, 2, 58, 49
10, 55740, Note_on_c, 2, 62, 49
10, 55765, Note_on_c, 2, 62, 0
10, 55771, Note_on_c, 2, 58, 0
10, 55773, Note_on_c, 2, 65, 0
10, 55800, Note_on_c, 2, 58, 57
10, 55800, Note_on_c, 2, 65, 57
10, 55800, Note_on_c, 2, 62, 57
10, 55830, Note_on_c, 2, 62, 0
10, 55832, Note_on_c, 2, 58, 0
10, 55840, Note_on_c, 2, 65, 0
10, 55860, Note_on_c, 2, 58, 44
10, 55860, Note_on_c, 2, 65, 44
10, 55860, Note_on_c, 2, 62, 44
10, 55882, Note_on_c, 2, 62, 0
10, 55889, Note_on_c, 2, 58, 0
10, 55898, Note_on_c, 2, 65, 0
10, 55920, Note_on_c, 2, 58, 61
10, 55920, Note_on_c, 2, 62, 61
10, 55920, Note_on_c, 2, 65, 61
10, 55944, Note_on_c, 2, 62, 0
10, 55952, Note_on_c, 2, 65, 0
10, 55952, Note_on_c, 2, 58, 0
10, 55980, Note_on_c, 2, 58, 53
10, 55980, Note_on_c, 2, 65, 53
10, 55980, Note_on_c, 2, 62, 53
10, 56004, Note_on_c, 2, 62, 0
10, 56007, Note_on_c, 2, 58, 0
10, 56012, Note_on_c, 2, 65, 0
10, 56040, Note_on_c, 2, 58, 59
10, 56040, Note_on_c, 2, 65, 59
10, 56040, Note_on_c, 2, 62, 59
10, 56062, Note_on_c, 2, 62, 0
10, 56073, Note_on_c, 2, 65, 0
10, 56075, Note_on_c, 2, 58, 0
10, 56100, Note_on_c, 2, 58, 44
10, 56100, Note_on_c, 2, 65, 44
10, 56100, Note_on_c, 2, 62, 44
10, 56123, Note_on_c, 2, 62, 0
10, 56123, Note_on_c, 2, 65, 0
10, 56141, Note_on_c, 2, 58, 0
10, 56160, Note_on_c, 2, 60, 57
10, 56160, Note_on_c, 2, 64, 57
10, 56160, Note_on_c, 2, 55, 57
10, 56192, Note_on_c, 2, 55, 0
10, 56195, Note_on_c, 2, 60, 0
10, 56196, Note_on_c, 2, 64, 0
10, 56220, Note_on_c, 2, 55, 42
10, 56220, Note_on_c, 2, 64, 42
10, 56220, Note_on_c, 2, 60, 42
10, 56239, Note_on_c, 2, 60, 0
10, 56243, Note_on_c, 2, 55, 0
10, 56244, Note_on_c, 2, 64, 0
10, 56280, Note_on_c, 2, 55, 50
10, 56280, Note_on_c, 2, 64, 50
10, 56280, Note_on_c, 2, 60, 50
10, 56301, Note_on_c, 2, 60, 0
10, 56306, Note_on_c, 2, 64, 0
10, 56308, Note_on_c, 2, 55, 0
10, 56340, Note_on_c, 2, 55, 42
10, 56340, Note_on_c, 2, 64, 42
10, 56340, Note_on_c, 2, 60, 42
10, 56363, Note_on_c, 2, 60, 0
10, 56365, Note_on_c, 2, 64, 0
10, 56370, Note_on_c, 2, 55, 0
10, 56400, Note_on_c, 2, 55, 59
10, 56400, Note_on_c, 2, 60, 59
10, 56400, Note_on_c, 2, 64, 59
10, 56425, Note_on_c, 2, 60, 0
10, 56427, Note_on_c, 2, 64, 0
10, 56430, Note_on_c, 2, 55, 0
10, 56460, Note_on_c, 2, 55, 44
10, 56460, Note_on_c, 2, 60, 44
10, 56460, Note_on_c, 2, 64, 44
10, 56489, Note_on_c, 2, 60, 0
10, 56493, Note_on_c, 2, 64, 0
10, 56493, Note_on_c, 2, 55, 0
10, 56520, Note_on_c, 2, 55, 57
10, 56520, Note_on_c, 2, 64, 57
10, 56520, Note_on_c, 2, 60, 57
10, 56551, Note_on_c, 2, 55, 0
10, 56552, Note_on_c, 2, 60, 0
10, 56554, Note_on_c, 2, 64, 0
10, 56580, Note_on_c, 2, 55, 41
10, 56580, Note_on_c, 2, 60, 41
10, 56580, Note_on_c, 2, 64, 41
10, 56614, Note_on_c, 2, 60, 0
10, 56615, Note_on_c, 2, 64, 0
10, 56619, Note_on_c, 2, 55, 0
10, 56640, Note_on_c, 2, 55, 61
10, 56640, Note_on_c, 2, 64, 61
10, 56640, Note_on_c, 2, 60, 61
10, 56673, Note_on_c, 2, 60, 0
10, 56676, Note_on_c, 2, 64, 0
10, 56678, Note_on_c, 2, 55, 0
10, 56700, Note_on_c, 2, 55, 47
10, 56700, Note_on_c, 2, 64, 47
10, 56700, Note_on_c, 2, 60, 47
10, 56730, Note_on_c, 2, 60, 0
10, 56734, Note_on_c, 2, 64, 0
10, 56735, Note_on_c, 2, 55, 0
10, 56760, Note_on_c, 2, 55, 51
10, 56760, Note_on_c, 2, 64, 51
10, 56760, Note_on_c, 2, 60, 51
10, 56794, Note_on_c, 2, 60, 0
10, 56797, Note_on_c, 2, 55, 0
10, 56799, Note_on_c, 2, 64, 0
10, 56820, Note_on_c, 2, 55, 44
10, 56820, Note_on_c, 2, 64, 44
10, 56820, Note_on_c, 2, 60, 44
10, 56845, Note_on_c, 2, 60, 0
10, 56851, Note_on_c, 2, 64, 0
10, 56855, Note_on_c, 2, 55, 0
10, 56880, Note_on_c, 2, 55, 55
10, 56880, Note_on_c, 2, 64, 55
10, 56880, Note_on_c, 2, 60, 55
10, 56912, Note_on_c, 2, 60, 0
10, 56914, Note_on_c, 2, 64, 0
10, 56916, Note_on_c, 2, 55, 0
10, 56940, Note_on_c, 2, 55, 42
10, 56940, Note_on_c, 2, 64, 42
10, 56940, Note_on_c, 2, 60, 42
10, 56963, Note_on_c, 2, 60, 0
10, 56971, Note_on_c, 2, 64, 0
10, 56975, Note_on_c, 2, 55, 0
10, 57000, Note_on_c, 2, 55, 55
10, 57000, Note_on_c, 2, 60, 55
10, 57000, Note_on_c, 2, 64, 55
10, 57030, Note_on_c, 2, 60, 0
10, 57032, Note_on_c, 2, 64, 0
10, 57038, Note_on_c, 2, 55, 0
10, 57060, Note_on_c, 2, 55, 47
10, 57060, Note_on_c, 2, 60, 47
10, 57060, Note_on_c, 2, 64, 47
10, 57087, Note_on_c, 2, 64, 0
10, 57088, Note_on_c, 2, 60, 0
10, 57098, Note_on_c, 2, 55, 0
10, 57120, Note_on_c, 2, 57, 63
10, 57120, Note_on_c, 2, 65, 63
10, 57120, Note_on_c, 2, 62, 63
10, 57153, Note_on_c, 2, 57, 0
10, 57154, Note_on_c, 2, 62, 0
10, 57157, Note_on_c, 2, 65, 0
10, 57180, Note_on_c, 2, 65, 40
10, 57180, Note_on_c, 2, 57, 40
10, 57180, Note_on_c, 2, 62, 40
10, 57200, Note_on_c, 2, 62, 0
10, 57208, Note_on_c, 2, 57, 0
10, 57213, Note_on_c, 2, 65, 0
10, 57240, Note_on_c, 2, 57, 65
10, 57240, Note_on_c, 2, 65, 65
10, 57240, Note_on_c, 2, 62, 65
10, 57268, Note_on_c, 2, 62, 0
10, 57274, Note_on_c, 2, 57, 0
10, 57275, Note_on_c, 2, 65, 0
10, 57300, Note_on_c, 2, 65, 44
10, 57300, Note_on_c, 2, 57, 44
10, 57300, Note_on_c, 2, 62, 44
10, 57322, Note_on_c, 2, 62, 0
10, 57326, Note_on_c, 2, 57, 0
10, 57330, Note_on_c, 2, 65, 0
10, 57360, Note_on_c, 2, 65, 50
10, 57360, Note_on_c, 2, 57, 68
10, 57360, Note_on_c, 2, 62, 63
10, 57387, Note_on_c, 2, 62, 0
10, 57391, Note_on_c, 2, 57, 0
10, 57394, Note_on_c, 2, 65, 0
10, 57420, Note_on_c, 2, 65, 41
10, 57420, Note_on_c, 2, 57, 41
10, 57420, Note_on_c, 2, 62, 41
10, 57442, Note_on_c, 2, 62, 0
10, 57444, Note_on_c, 2, 57, 0
10, 57450, Note_on_c, 2, 65, 0
10, 57480, Note_on_c, 2, 65, 64
10, 57480, Note_on_c, 2, 57, 64
10, 57480, Note_on_c, 2, 62, 64
10, 57508, Note_on_c, 2, 62, 0
10, 57512, Note_on_c, 2, 57, 0
10, 57517, Note_on_c, 2, 65, 0
10, 57540, Note_on_c, 2, 65, 49
10, 57540, Note_on_c, 2, 57, 49
10, 57540, Note_on_c, 2, 62, 49
10, 57554, Note_on_c, 2, 62, 0
10, 57561, Note_on_c, 2, 57, 0
10, 57565, Note_on_c, 2, 65, 0
10, 57600, Note_on_c, 2, 58, 55
10, 57600, Note_on_c, 2, 65, 55
10, 57600, Note_on_c, 2, 62, 55
10, 57632, Note_on_c, 2, 62, 0
10, 57639, Note_on_c, 2, 65, 0
10, 57639, Note_on_c, 2, 58, 0
10, 57660, Note_on_c, 2, 65, 49
10, 57660, Note_on_c, 2, 58, 49
10, 57660, Note_on_c, 2, 62, 49
10, 57685, Note_on_c, 2, 62, 0
10, 57691, Note_on_c, 2, 58, 0
10, 57693, Note_on_c, 2, 65, 0
10, 57720, Note_on_c, 2, 58, 57
10, 57720, Note_on_c, 2, 65, 57
10, 57720, Note_on_c, 2, 62, 57
10, 57750, Note_on_c, 2, 62, 0
10, 57752, Note_on_c, 2, 58, 0
10, 57760, Note_on_c, 2, 65, 0
10, 57780, Note_on_c, 2, 58, 44
10, 57780, Note_on_c, 2, 65, 44
10, 57780, Note_on_c, 2, 62, 44
10, 57802, Note_on_c, 2, 62, 0
10, 57809, Note_on_c, 2, 58, 0
10, 57818, Note_on_c, 2, 65, 0
10, 57840, Note_on_c, 2, 58, 61
10, 57840, Note_on_c, 2, 62, 61
10, 57840, Note_on_c, 2, 65, 61
10, 57864, Note_on_c, 2, 62, 0
10, 57872, Note_on_c, 2, 65, 0
10, 57872, Note_on_c, 2, 58, 0
10, 57900, Note_on_c, 2, 58, 53
10, 57900, Note_on_c, 2, 65, 53
10, 57900, Note_on_c, 2, 62, 53
10, 57924, Note_on_c, 2, 62, 0
10, 57927, Note_on_c, 2, 58, 0
10, 57932, Note_on_c, 2, 65, 0
10, 57960, Note_on_c, 2, 58, 59
10, 57960, Note_on_c, 2, 65, 59
10, 57960, Note_on_c, 2, 62, 59
10, 57982, Note_on_c, 2, 62, 0
10, 57993, Note_on_c, 2, 65, 0
10, 57995, Note_on_c, 2, 58, 0
10, 58020, Note_on_c, 2, 58, 44
10, 58020, Note_on_c, 2, 65, 44
10, 58020, Note_on_c, 2, 62, 44
10, 58043, Note_on_c, 2, 62, 0
10, 58043, Note_on_c, 2, 65, 0
10, 58061, Note_on_c, 2, 58, 0
10, 58080, Note_on_c, 2, 60, 57
10, 58080, Note_on_c, 2, 64, 57
10, 58080, Note_on_c, 2, 55, 57
10, 58112, Note_on_c, 2, 55, 0
10, 58115, Note_on_c, 2, 60, 0
10, 58116, Note_on_c, 2, 64, 0
10, 58140, Note_on_c, 2, 55, 42
10, 58140, Note_on_c, 2, 64, 42
10, 58140, Note_on_c, 2, 60, 42
10, 58159, Note_on_c, 2, 60, 0
10, 58163, Note_on_c, 2, 55, 0
10, 58164, Note_on_c, 2, 64, 0
10, 58200, Note_on_c, 2, 55, 50
10, 58200, Note_on_c, 2, 64, 50
10, 58200, Note_on_c, 2, 60, 50
10, 58221, Note_on_c, 2, 60, 0
10, 58226, Note_on_c, 2, 64, 0
10, 58228, Note_on_c, 2, 55, 0
10, 58260, Note_on_c, 2, 55, 42
10, 58260, Note_on_c, 2, 64, 42
10, 58260, Note_on_c, 2, 60, 42
10, 58283, Note_on_c, 2, 60, 0
10, 58285, Note_on_c, 2, 64, 0
10, 58290, Note_on_c, 2, 55, 0
10, 58320, Note_on_c, 2, 55, 59
10, 58320, Note_on_c, 2, 60, 59
10, 58320, Note_on_c, 2, 64, 59
10, 58345, Note_on_c, 2, 60, 0
10, 58347, Note_on_c, 2, 64, 0
10, 58350, Note_on_c, 2, 55, 0
10, 58380, Note_on_c, 2, 55, 44
10, 58380, Note_on_c, 2, 60, 44
10, 58380, Note_on_c, 2, 64, 44
10, 58409, Note_on_c, 2, 60, 0
10, 58413, Note_on_c, 2, 64, 0
10, 58413, Note_on_c, 2, 55, 0
10, 58440, Note_on_c, 2, 55, 57
10, 58440, Note_on_c, 2, 64, 57
10, 58440, Note_on_c, 2, 60, 57
10, 58471, Note_on_c, 2, 55, 0
10, 58472, Note_on_c, 2, 60, 0
10, 58474, Note_on_c, 2, 64, 0
10, 58500, Note_on_c, 2, 55, 41
10, 58500, Note_on_c, 2, 60, 41
10, 58500, Note_on_c, 2, 64, 41
10, 58534, Note_on_c, 2, 60, 0
10, 58535, Note_on_c, 2, 64, 0
10, 58539, Note_on_c, 2, 55, 0
10, 58560, Note_on_c, 2, 55, 61
10, 58560, Note_on_c, 2, 64, 61
10, 58560, Note_on_c, 2, 60, 61
10, 58593, Note_on_c, 2, 60, 0
10, 58596, Note_on_c, 2, 64, 0
10, 58598, Note_on_c, 2, 55, 0
10, 58620, Note_on_c, 2, 55, 47
10, 58620, Note_on_c, 2, 64, 47
10, 58620, Note_on_c, 2, 60, 47
10, 58650, Note_on_c, 2, 60, 0
10, 58654, Note_on_c, 2, 64, 0
10, 58655, Note_on_c, 2, 55, 0
10, 58680, Note_on_c, 2, 55, 51
10, 58680, Note_on_c, 2, 64, 51
10, 58680, Note_on_c, 2, 60, 51
10, 58714, Note_on_c, 2, 60, 0
10, 58717, Note_on_c, 2, 55, 0
10, 58719, Note_on_c, 2, 64, 0
10, 58740, Note_on_c, 2, 55, 44
10, 58740, Note_on_c, 2, 64, 44
10, 58740, Note_on_c, 2, 60, 44
10, 58765, Note_on_c, 2, 60, 0
10, 58771, Note_on_c, 2, 64, 0
10, 58775, Note_on_c, 2, 55, 0
10, 58800, Note_on_c, 2, 55, 55
10, 58800, Note_on_c, 2, 64, 55
10, 58800, Note_on_c, 2, 60, 55
10, 58832, Note_on_c, 2, 60, 0
10, 58834, Note_on_c, 2, 64, 0
10, 58836, Note_on_c, 2, 55, 0
10, 58860, Note_on_c, 2, 55, 42
10, 58860, Note_on_c, 2, 64, 42
10, 58860, Note_on_c, 2, 60, 42
10, 58883, Note_on_c, 2, 60, 0
10, 58891, Note_on_c, 2, 64, 0
10, 58895, Note_on_c, 2, 55, 0
10, 58920, Note_on_c, 2, 55, 55
10, 58920, Note_on_c, 2, 60, 55
10, 58920, Note_on_c, 2, 64, 55
10, 58950, Note_on_c, 2, 60, 0
10, 58952, Note_on_c, 2, 64, 0
10, 58958, Note_on_c, 2, 55, 0
10, 58980, Note_on_c, 2, 55, 47
10, 58980, Note_on_c, 2, 60, 47
10, 58980, Note_on_c, 2, 64, 47
10, 59007, Note_on_c, 2, 64, 0
10, 59008, Note_on_c, 2, 60, 0
10, 59018, Note_on_c, 2, 55, 0
10, 59040, Note_on_c, 2, 57, 63
10, 59040, Note_on_c, 2, 65, 63
10, 59040, Note_on_c, 2, 62, 63
10, 59073, Note_on_c, 2, 57, 0
10, 59074, Note_on_c, 2, 62, 0
10, 59077, Note_on_c, 2, 65, 0
10, 59100, Note_on_c, 2, 65, 40
10, 59100, Note_on_c, 2, 57, 40
10, 59100, Note_on_c, 2, 62, 40
10, 59120, Note_on_c, 2, 62, 0
10, 59128, Note_on_c, 2, 57, 0
10, 59133, Note_on_c, 2, 65, 0
10, 59160, Note_on_c, 2, 57, 65
10, 59160, Note_on_c, 2, 65, 65
10, 59160, Note_on_c, 2, 62, 65
10, 59188, Note_on_c, 2, 62, 0
10, 59194, Note_on_c, 2, 57, 0
10, 59195, Note_on_c, 2, 65, 0
10, 59220, Note_on_c, 2, 65, 44
10, 59220, Note_on_c, 2, 57, 44
10, 59220, Note_on_c, 2, 62, 44
10, 59242, Note_on_c, 2, 62, 0
10, 59246, Note_on_c, 2, 57, 0
10, 59250, Note_on_c, 2, 65, 0
10, 59280, Note_on_c, 2, 65, 50
10, 59280, Note_on_c, 2, 57, 68
10, 59280, Note_on_c, 2, 62, 63
10, 59307, Note_on_c, 2, 62, 0
10, 59311, Note_on_c, 2, 57, 0
10, 59314, Note_on_c, 2, 65, 0
10, 59340, Note_on_c, 2, 65, 41
10, 59340, Note_on_c, 2, 57, 41
10, 59340, Note_on_c, 2, 62, 41
10, 59362, Note_on_c, 2, 62, 0
10, 59364, Note_on_c, 2, 57, 0
10, 59370, Note_on_c, 2, 65, 0
10, 59400, Note_on_c, 2, 65, 64
10, 59400, Note_on_c, 2, 57, 64
10, 59400, Note_on_c, 2, 62, 64
10, 59428, Note_on_c, 2, 62, 0
10, 59432, Note_on_c, 2, 57, 0
10, 59437, Note_on_c, 2, 65, 0
10, 59460, Note_on_c, 2, 65, 49
10, 59460, Note_on_c, 2, 57, 49
10, 59460, Note_on_c, 2, 62, 49
10, 59474, Note_on_c, 2, 62, 0
10, 59481, Note_on_c, 2, 57, 0
10, 59485, Note_on_c, 2, 65, 0
10, 59520, Note_on_c, 2, 58, 55
10, 59520, Note_on_c, 2, 65, 55
10, 59520, Note_on_c, 2, 62, 55
10, 59552, Note_on_c, 2, 62, 0
10, 59559, Note_on_c, 2, 65, 0
10, 59559, Note_on_c, 2, 58, 0
10, 59580, Note_on_c, 2, 65, 49
10, 59580, Note_on_c, 2, 58, 49
10, 59580, Note_on_c, 2, 62, 49
10, 59605, Note_on_c, 2, 62, 0
10, 59611, Note_on_c, 2, 58, 0
10, 59613, Note_on_c, 2, 65, 0
10, 59640, Note_on_c, 2, 58, 57
10, 59640, Note_on_c, 2, 65, 57
10, 59640, Note_on_c, 2, 62, 57
10, 59670, Note_on_c, 2, 62, 0
10, 59672, Note_on_c, 2, 58, 0
10, 59680, Note_on_c, 2, 65, 0
10, 59700, Note_on_c, 2, 58, 44
10, 59700, Note_on_c, 2, 65, 44
10, 59700, Note_on_c, 2, 62, 44
10, 59722, Note_on_c, 2, 62, 0
10, 59729, Note_on_c, 2, 58, 0
10, 59738, Note_on_c, 2, 65, 0
10, 59760, Note_on_c, 2, 58, 61
10, 59760, Note_on_c, 2, 62, 61
10, 59760, Note_on_c, 2, 65, 61
10, 59784, Note_on_c, 2, 62, 0
10, 59792, Note_on_c, 2, 65, 0
10, 59792, Note_on_c, 2, 58, 0
10, 59820, Note_on_c, 2, 58, 53
10, 59820, Note_on_c, 2, 65, 53
10, 59820, Note_on_c, 2, 62, 53
10, 59844, Note_on_c, 2, 62, 0
10, 59847, Note_on_c, 2, 58, 0
10, 59852, Note_on_c, 2, 65, 0
10, 59880, Note_on_c, 2, 58, 59
10, 59880, Note_on_c, 2, 65, 59
10, 59880, Note_on_c, 2, 62, 59
10, 59902, Note_on_c, 2, 62, 0
10, 59913, Note_on_c, 2, 65, 0
10, 59915, Note_on_c, 2, 58, 0
10, 59940, Note_on_c, 2, 58, 44
10, 59940, Note_on_c, 2, 65, 44
10, 59940, Note_on_c, 2, 62, 44
10, 59963, Note_on_c, 2, 62, 0
10, 59963, Note_on_c, 2, 65, 0
10, 59981, Note_on_c, 2, 58, 0
10, 60000, Note_on_c, 2, 60, 57
10, 60000, Note_on_c, 2, 64, 57
10, 60000, Note_on_c, 2, 55, 57
10, 60032, Note_on_c, 2, 55, 0
10, 60035, Note_on_c, 2, 60, 0
10, 60036, Note_on_c, 2, 64, 0
10, 60060, Note_on_c, 2, 55, 42
10, 60060, Note_on_c, 2, 64, 42
10, 60060, Note_on_c, 2, 60, 42
10, 60079, Note_on_c, 2, 60, 0
10, 60083, Note_on_c, 2, 55, 0
10, 60084, Note_on_c, 2, 64, 0
10, 60120, Note_on_c, 2, 55, 50
10, 60120, Note_on_c, 2, 64, 50
10, 60120, Note_on_c, 2, 60, 50
10, 60141, Note_on_c, 2, 60, 0
10, 60146, Note_on_c, 2, 64, 0
10, 60148, Note_on_c, 2, 55, 0
10, 60180, Note_on_c, 2, 55, 42
10, 60180, Note_on_c, 2, 64, 42
10, 60180, Note_on_c, 2, 60, 42
10, 60203, Note_on_c, 2, 60, 0
10, 60205, Note_on_c, 2, 64, 0
10, 60210, Note_on_c, 2, 55, 0
10, 60240, Note_on_c, 2, 55, 59
10, 60240, Note_on_c, 2, 60, 59
10, 60240, Note_on_c, 2, 64, 59
10, 60265, Note_on_c, 2, 60, 0
10, 60267, Note_on_c, 2, 64, 0
10, 60270, Note_on_c, 2, 55, 0
10, 60300, Note_on_c, 2, 55, 44
10, 60300, Note_on_c, 2, 60, 44
10, 60300, Note_on_c, 2, 64, 44
10, 60329, Note_on_c, 2, 60, 0
10, 60333, Note_on_c, 2, 64, 0
10, 60333, Note_on_c, 2, 55, 0
10, 60360, Note_on_c, 2, 55, 57
10, 60360, Note_on_c, 2, 64, 57
10, 60360, Note_on_c, 2, 60, 57
10, 60391, Note_on_c, 2, 55, 0
10, 60392, Note_on_c, 2, 60, 0
10, 60394, Note_on_c, 2, 64, 0
10, 60420, Note_on_c, 2, 55, 41
10, 60420, Note_on_c, 2, 60, 41
10, 60420, Note_on_c, 2, 64, 41
10, 60454, Note_on_c, 2, 60, 0
10, 60455, Note_on_c, 2, 64, 0
10, 60459, Note_on_c, 2, 55, 0
10, 60480, Note_on_c, 2, 55, 61
10, 60480, Note_on_c, 2, 64, 61
10, 60480, Note_on_c, 2, 60, 61
10, 60513, Note_on_c, 2, 60, 0
10, 60516, Note_on_c, 2, 64, 0
10, 60518, Note_on_c, 2, 55, 0
10, 60540, Note_on_c, 2, 55, 47
10, 60540, Note_on_c, 2, 64, 47
10, 60540, Note_on_c, 2, 60, 47
10, 60570, Note_on_c, 2, 60, 0
10, 60574, Note_on_c, 2, 64, 0
10, 60575, Note_on_c, 2, 55, 0
10, 60600, Note_on_c, 2, 55, 51
10, 60600, Note_on_c, 2, 64, 51
10, 60600, Note_on_c, 2, 60, 51
10, 60634, Note_on_c, 2, 60, 0
10, 60637, Note_on_c, 2, 55, 0
10, 60639, Note_on_c, 2, 64, 0
10, 60660, Note_on_c, 2, 55, 44
10, 60660, Note_on_c, 2, 64, 44
10, 60660, Note_on_c, 2, 60, 44
10, 60685, Note_on_c, 2, 60, 0
10, 60691, Note_on_c, 2, 64, 0
10, 60695, Note_on_c, 2, 55, 0
10, 60720, Note_on_c, 2, 55, 55
10, 60720, Note_on_c, 2, 64, 55
10, 60720, Note_on_c, 2, 60, 55
10, 60752, Note_on_c, 2, 60, 0
10, 60754, Note_on_c, 2, 64, 0
10, 60756, Note_on_c, 2, 55, 0
10, 60780, Note_on_c, 2, 55, 42
10, 60780, Note_on_c, 2, 64, 42
10, 60780, Note_on_c, 2, 60, 42
10, 60803, Note_on_c, 2, 60, 0
10, 60811, Note_on_c, 2, 64, 0
10, 60815, Note_on_c, 2, 55, 0
10, 60840, Note_on_c, 2, 55, 55
10, 60840, Note_on_c, 2, 60, 55
10, 60840, Note_on_c, 2, 64, 55
10, 60870, Note_on_c, 2, 60, 0
10, 60872, Note_on_c, 2, 64, 0
10, 60878, Note_on_c, 2, 55, 0
10, 60900, Note_on_c, 2, 55, 47
10, 60900, Note_on_c, 2, 60, 47
10, 60900, Note_on_c, 2, 64, 47
10, 60927, Note_on_c, 2, 64, 0
10, 60928, Note_on_c, 2, 60, 0
10, 60938, Note_on_c, 2, 55, 0
10, 60960, Note_on_c, 2, 57, 63
10, 60960, Note_on_c, 2, 65, 63
10, 60960, Note_on_c, 2, 62, 63
10, 60993, Note_on_c, 2, 57, 0
10, 60994, Note_on_c, 2, 62, 0
10, 60997, Note_on_c, 2, 65, 0
10, 61020, Note_on_c, 2, 65, 40
10, 61020, Note_on_c, 2, 57, 40
10, 61020, Note_on_c, 2, 62, 40
10, 61040, Note_on_c, 2, 62, 0
10, 61048, Note_on_c, 2, 57, 0
10, 61053, Note_on_c, 2, 65, 0
10, 61080, Note_on_c, 2, 57, 65
10, 61080, Note_on_c, 2, 65, 65
10, 61080, Note_on_c, 2, 62, 65
10, 61108, Note_on_c, 2, 62, 0
10, 61114, Note_on_c, 2, 57, 0
10, 61115, Note_on_c, 2, 65, 0
10, 61140, Note_on_c, 2, 65, 44
10, 61140, Note_on_c, 2, 57, 44
10, 61140, Note_on_c, 2, 62, 44
10, 61162, Note_on_c, 2, 62, 0
10, 61166, Note_on_c, 2, 57, 0
10, 61170, Note_on_c, 2, 65, 0
10, 61200, Note_on_c, 2, 65, 50
10, 61200, Note_on_c, 2, 57, 68
10, 61200, Note_on_c, 2, 62, 63
10, 61227, Note_on_c, 2, 62, 0
10, 61231, Note_on_c, 2, 57, 0
10, 61234, Note_on_c, 2, 65, 0
10, 61260, Note_on_c, 2, 65, 41
10, 61260, Note_on_c, 2, 57, 41
10, 61260, Note_on_c, 2, 62, 41
10, 61282, Note_on_c, 2, 62, 0
10, 61284, Note_on_c, 2, 57, 0
10, 61290, Note_on_c, 2, 65, 0
10, 61320, Note_on_c, 2, 65, 64
10, 61320, Note_on_c, 2, 57, 64
10, 61320, Note_on_c, 2, 62, 64
10, 61348, Note_on_c, 2, 62, 0
10, 61352, Note_on_c, 2, 57, 0
10, 61357, Note_on_c, 2, 65, 0
10, 61380, Note_on_c, 2, 65, 49
10, 61380, Note_on_c, 2, 57, 49
10, 61380, Note_on_c, 2, 62, 49
10, 61394, Note_on_c, 2, 62, 0
10, 61401, Note_on_c, 2, 57, 0
10, 61405, Note_on_c, 2, 65, 0
10, 61440, Note_on_c, 2, 58, 55
10, 61440, Note_on_c, 2, 65, 55
10, 61440, Note_on_c, 2, 62, 55
10, 61472, Note_on_c, 2, 62, 0
10, 61479, Note_on_c, 2, 65, 0
10, 61479, Note_on_c, 2, 58, 0
10, 61500, Note_on_c, 2, 65, 49
10, 61500, Note_on_c, 2, 58, 49
10, 61500, Note_on_c, 2, 62, 49
10, 61525, Note_on_c, 2, 62, 0
10, 61531, Note_on_c, 2, 58, 0
10, 61533, Note_on_c, 2, 65, 0
10, 61560, Note_on_c, 2, 58, 57
10, 61560, Note_on_c, 2, 65, 57
10, 61560, Note_on_c, 2, 62, 57
10, 61590, Note_on_c, 2, 62, 0
10, 61592, Note_on_c, 2, 58, 0
10, 61600, Note_on_c, 2, 65, 0
10, 61620, Note_on_c, 2, 58, 44
10, 61620, Note_on_c, 2, 65, 44
10, 61620, Note_on_c, 2, 62, 44
10, 61642, Note_on_c, 2, 62, 0
10, 61649, Note_on_c, 2, 58, 0
10, 61658, Note_on_c, 2, 65, 0
10, 61680, Note_on_c, 2, 58, 61
10, 61680, Note_on_c, 2, 62, 61
10, 61680, Note_on_c, 2, 65, 61
10, 61704, Note_on_c, 2, 62, 0
10, 61712, Note_on_c, 2, 65, 0
10, 61712, Note_on_c, 2, 58, 0
10, 61740, Note_on_c, 2, 58, 53
10, 61740, Note_on_c, 2, 65, 53
10, 61740, Note_on_c, 2, 62, 53
10, 61764, Note_on_c, 2, 62, 0
10, 61767, Note_on_c, 2, 58, 0
10, 61772, Note_on_c, 2, 65, 0
10, 61800, Note_on_c, 2, 58, 59
10, 61800, Note_on_c, 2, 65, 59
10, 61800, Note_on_c, 2, 62, 59
10, 61822, Note_on_c, 2, 62, 0
10, 61833, Note_on_c, 2, 65, 0
10, 61835, Note_on_c, 2, 58, 0
10, 61860, Note_on_c, 2, 58, 44
10, 61860, Note_on_c, 2, 65, 44
10, 61860, Note_on_c, 2, 62, 44
10, 61883, Note_on_c, 2, 62, 0
10, 61883, Note_on_c, 2, 65, 0
10, 61901, Note_on_c, 2, 58, 0
10, 61920, Note_on_c, 2, 60, 57
10, 61920, Note_on_c, 2, 64, 57
10, 61920, Note_on_c, 2, 55, 57
10, 61952, Note_on_c, 2, 55, 0
10, 61955, Note_on_c, 2, 60, 0
10, 61956, Note_on_c, 2, 64, 0
10, 61980, Note_on_c, 2, 55, 42
10, 61980, Note_on_c, 2, 64, 42
10, 61980, Note_on_c, 2, 60, 42
10, 61999, Note_on_c, 2, 60, 0
10, 62003, Note_on_c, 2, 55, 0
10, 62004, Note_on_c, 2, 64, 0
10, 62040, Note_on_c, 2, 55, 50
10, 62040, Note_on_c, 2, 64, 50
10, 62040, Note_on_c, 2, 60, 50
10, 62061, Note_on_c, 2, 60, 0
10, 62066, Note_on_c, 2, 64, 0
10, 62068, Note_on_c, 2, 55, 0
10, 62100, Note_on_c, 2, 55, 42
10, 62100, Note_on_c, 2, 64, 42
10, 62100, Note_on_c, 2, 60, 42
10, 62123, Note_on_c, 2, 60, 0
10, 62125, Note_on_c, 2, 64, 0
10, 62130, Note_on_c, 2, 55, 0
10, 62160, Note_on_c, 2, 55, 59
10, 62160, Note_on_c, 2, 60, 59
10, 62160, Note_on_c, 2, 64, 59
10, 62185, Note_on_c, 2, 60, 0
10, 62187, Note_on_c, 2, 64, 0
10, 62190, Note_on_c, 2, 55, 0
10, 62220, Note_on_c, 2, 55, 44
10, 62220, Note_on_c, 2, 60, 44
10, 62220, Note_on_c, 2, 64, 44
10, 62249, Note_on_c, 2, 60, 0
10, 62253, Note_on_c, 2, 64, 0
10, 62253, Note_on_c, 2, 55, 0
10, 62280, Note_on_c, 2, 55, 57
10, 62280, Note_on_c, 2, 64, 57
10, 62280, Note_on_c, 2, 60, 57
10, 62311, Note_on_c, 2, 55, 0
10, 62312, Note_on_c, 2, 60, 0
10, 62314, Note_on_c, 2, 64, 0
10, 62340, Note_on_c, 2, 55, 41
10, 62340, Note_on_c, 2, 60, 41
10, 62340, Note_on_c, 2, 64, 41
10, 62374, Note_on_c, 2, 60, 0
10, 62375, Note_on_c, 2, 64, 0
10, 62379, Note_on_c, 2, 55, 0
10, 62400, Note_on_c, 2, 55, 61
10, 62400, Note_on_c, 2, 64, 61
10, 62400, Note_on_c, 2, 60, 61
10, 62433, Note_on_c, 2, 60, 0
10, 62436, Note_on_c, 2, 64, 0
10, 62438, Note_on_c, 2, 55, 0
10, 62460, Note_on_c, 2, 55, 47
10, 62460, Note_on_c, 2, 64, 47
10, 62460, Note_on_c, 2, 60, 47
10, 62490, Note_on_c, 2, 60, 0
10, 62494, Note_on_c, 2, 64, 0
10, 62495, Note_on_c, 2, 55, 0
10, 62520, Note_on_c, 2, 55, 51
10, 62520, Note_on_c, 2, 64, 51
10, 62520, Note_on_c, 2, 60, 51
10, 62554, Note_on_c, 2, 60, 0
10, 62557, Note_on_c, 2, 55, 0
10, 62559, Note_on_c, 2, 64, 0
10, 62580, Note_on_c, 2, 55, 44
10, 62580, Note_on_c, 2, 64, 44
10, 62580, Note_on_c, 2, 60, 44
10, 62605, Note_on_c, 2, 60, 0
10, 62611, Note_on_c, 2, 64, 0
10, 62615, Note_on_c, 2, 55, 0
10, 62640, Note_on_c, 2, 55, 55
10, 62640, Note_on_c, 2, 64, 55
10, 62640, Note_on_c, 2, 60, 55
10, 62672, Note_on_c, 2, 60, 0
10, 62674, Note_on_c, 2, 64, 0
10, 62676, Note_on_c, 2, 55, 0
10, 62700, Note_on_c, 2, 55, 42
10, 62700, Note_on_c, 2, 64, 42
10, 62700, Note_on_c, 2, 60, 42
10, 62723, Note_on_c, 2, 60, 0
10, 62731, Note_on_c, 2, 64, 0
10, 62735, Note_on_c, 2, 55, 0
10, 62760, Note_on_c, 2, 55, 55
10, 62760, Note_on_c, 2, 60, 55
10, 62760, Note_on_c, 2, 64, 55
10, 62790, Note_on_c, 2, 60, 0
10, 62792, Note_on_c, 2, 64, 0
10, 62798, Note_on_c, 2, 55, 0
10, 62820, Note_on_c, 2, 55, 47
10, 62820, Note_on_c, 2, 60, 47
10, 62820, Note_on_c, 2, 64, 47
10, 62847, Note_on_c, 2, 64, 0
10, 62848, Note_on_c, 2, 60, 0
10, 62858, Note_on_c, 2, 55, 0
10, 62880, Note_on_c, 2, 57, 63
10, 62880, Note_on_c, 2, 65, 63
10, 62880, Note_on_c, 2, 62, 63
10, 62913, Note_on_c, 2, 57, 0
10, 62914, Note_on_c, 2, 62, 0
10, 62917, Note_on_c, 2, 65, 0
10, 62940, Note_on_c, 2, 65, 40
10, 62940, Note_on_c, 2, 57, 40
10, 62940, Note_on_c, 2, 62, 40
10, 62960, Note_on_c, 2, 62, 0
10, 62968, Note_on_c, 2, 57, 0
10, 62973, Note_on_c, 2, 65, 0
10, 63000, Note_on_c, 2, 57, 65
10, 63000, Note_on_c, 2, 65, 65
10, 63000, Note_on_c, 2, 62, 65
10, 63028, Note_on_c, 2, 62, 0
10, 63034, Note_on_c, 2, 57, 0
10, 63035, Note_on_c, 2, 65, 0
10, 63060, Note_on_c, 2, 65, 44
10, 63060, Note_on_c, 2, 57, 44
10, 63060, Note_on_c, 2, 62, 44
10, 63082, Note_on_c, 2, 62, 0
10, 63086, Note_on_c, 2, 57, 0
10, 63090, Note_on_c, 2, 65, 0
10, 63120, Note_on_c, 2, 65, 50
10, 63120, Note_on_c, 2, 57, 68
10, 63120, Note_on_c, 2, 62, 63
10, 63147, Note_on_c, 2, 62, 0
10, 63151, Note_on_c, 2, 57, 0
10, 63154, Note_on_c, 2, 65, 0
10, 63180, Note_on_c, 2, 65, 41
10, 63180, Note_on_c, 2, 57, 41
10, 63180, Note_on_c, 2, 62, 41
10, 63202, Note_on_c, 2, 62, 0
10, 63204, Note_on_c, 2, 57, 0
10, 63210, Note_on_c, 2, 65, 0
10, 63240, Note_on_c, 2, 65, 64
10, 63240, Note_on_c, 2, 57, 64
10, 63240, Note_on_c, 2, 62, 64
10, 63268, Note_on_c, 2, 62, 0
10, 63272, Note_on_c, 2, 57, 0
10, 63277, Note_on_c, 2, 65, 0
10, 63300, Note_on_c, 2, 65, 49
10, 63300, Note_on_c, 2, 57, 49
10, 63300, Note_on_c, 2, 62, 49
10, 63314, Note_on_c, 2, 62, 0
10, 63321, Note_on_c, 2, 57, 0
10, 63325, Note_on_c, 2, 65, 0
10, 63360, Note_on_c, 2, 58, 55
10, 63360, Note_on_c, 2, 65, 55
10, 63360, Note_on_c, 2, 62, 55
10, 63392, Note_on_c, 2, 62, 0
10, 63399, Note_on_c, 2, 65, 0
10, 63399, Note_on_c, 2, 58, 0
10, 63420, Note_on_c, 2, 65, 49
10, 63420, Note_on_c, 2, 58, 49
10, 63420, Note_on_c, 2, 62, 49
10, 63445, Note_on_c, 2, 62, 0
10, 63451, Note_on_c, 2, 58, 0
10, 63453, Note_on_c, 2, 65, 0
10, 63480, Note_on_c, 2, 58, 57
10, 63480, Note_on_c, 2, 65, 57
10, 63480, Note_on_c, 2, 62, 57
10, 63510, Note_on_c, 2, 62, 0
10, 63512, Note_on_c, 2, 58, 0
10, 63520, Note_on_c, 2, 65, 0
10, 63540, Note_on_c, 2, 58, 44
10, 63540, Note_on_c, 2, 65, 44
10, 63540, Note_on_c, 2, 62, 44
10, 63562, Note_on_c, 2, 62, 0
10, 63569, Note_on_c, 2, 58, 0
10, 63578, Note_on_c, 2, 65, 0
10, 63600, Note_on_c, 2, 58, 61
10, 63600, Note_on_c, 2, 62, 61
10, 63600, Note_on_c, 2, 65, 61
10, 63624, Note_on_c, 2, 62, 0
10, 63632, Note_on_c, 2, 65, 0
10, 63632, Note_on_c, 2, 58, 0
10, 63660, Note_on_c, 2, 58, 53
10, 63660, Note_on_c, 2, 65, 53
10, 63660, Note_on_c, 2, 62, 53
10, 63684, Note_on_c, 2, 62, 0
10, 63687, Note_on_c, 2, 58, 0
10, 63692, Note_on_c, 2, 65, 0
10, 63720, Note_on_c, 2, 58, 59
10, 63720, Note_on_c, 2, 65, 59
10, 63720, Note_on_c, 2, 62, 59
10, 63742, Note_on_c, 2, 62, 0
10, 63753, Note_on_c, 2, 65, 0
10, 63755, Note_on_c, 2, 58, 0
10, 63780, Note_on_c, 2, 58, 44
10, 63780, Note_on_c, 2, 65, 44
10, 63780, Note_on_c, 2, 62, 44
10, 63803, Note_on_c, 2, 62, 0
10, 63803, Note_on_c, 2, 65, 0
10, 63821, Note_on_c, 2, 58, 0
10, 63840, Note_on_c, 2, 60, 57
10, 63840, Note_on_c, 2, 64, 57
10, 63840, Note_on_c, 2, 55, 57
10, 63872, Note_on_c, 2, 55, 0
10, 63875, Note_on_c, 2, 60, 0
10, 63876, Note_on_c, 2, 64, 0
10, 63900, Note_on_c, 2, 55, 42
10, 63900, Note_on_c, 2, 64, 42
10, 63900, Note_on_c, 2, 60, 42
10, 63919, Note_on_c, 2, 60, 0
10, 63923, Note_on_c, 2, 55, 0
10, 63924, Note_on_c, 2, 64, 0
10, 63960, Note_on_c, 2, 55, 50
10, 63960, Note_on_c, 2, 64, 50
10, 63960, Note_on_c, 2, 60, 50
10, 63981, Note_on_c, 2, 60, 0
10, 63986, Note_on_c, 2, 64, 0
10, 63988, Note_on_c, 2, 55, 0
10, 64020, Note_on_c, 2, 55, 42
10, 64020, Note_on_c, 2, 64, 42
10, 64020, Note_on_c, 2, 60, 42
10, 64043, Note_on_c, 2, 60, 0
10, 64045, Note_on_c, 2, 64, 0
10, 64050, Note_on_c, 2, 55, 0
10, 64080, Note_on_c, 2, 55, 59
10, 64080, Note_on_c, 2, 60, 59
10, 64080, Note_on_c, 2, 64, 59
10, 64105, Note_on_c, 2, 60, 0
10, 64107, Note_on_c, 2, 64, 0
10, 64110, Note_on_c, 2, 55, 0
10, 64140, Note_on_c, 2, 55, 44
10, 64140, Note_on_c, 2, 60, 44
10, 64140, Note_on_c, 2, 64, 44
10, 64169, Note_on_c, 2, 60, 0
10, 64173, Note_on_c, 2, 64, 0
10, 64173, Note_on_c, 2, 55, 0
10, 64200, Note_on_c, 2, 55, 57
10, 64200, Note_on_c, 2, 64, 57
10, 64200, Note_on_c, 2, 60, 57
10, 64231, Note_on_c, 2, 55, 0
10, 64232, Note_on_c, 2, 60, 0
10, 64234, Note_on_c, 2, 64, 0
10, 64260, Note_on_c, 2, 55, 41
10, 64260, Note_on_c, 2, 60, 41
10, 64260, Note_on_c, 2, 64, 41
10, 64294, Note_on_c, 2, 60, 0
10, 64295, Note_on_c, 2, 64, 0
10, 64299, Note_on_c, 2, 55, 0
10, 64320, Note_on_c, 2, 55, 61
10, 64320, Note_on_c, 2, 64, 61
10, 64320, Note_on_c, 2, 60, 61
10, 64353, Note_on_c, 2, 60, 0
10, 64356, Note_on_c, 2, 64, 0
10, 64358, Note_on_c, 2, 55, 0
10, 64380, Note_on_c, 2, 55, 47
10, 64380, Note_on_c, 2, 64, 47
10, 64380, Note_on_c, 2, 60, 47
10, 64410, Note_on_c, 2, 60, 0
10, 64414, Note_on_c, 2, 64, 0
10, 64415, Note_on_c, 2, 55, 0
10, 64440, Note_on_c, 2, 55, 51
10, 64440, Note_on_c, 2, 64, 51
10, 64440, Note_on_c, 2, 60, 51
10, 64474, Note_on_c, 2, 60, 0
10, 64477, Note_on_c, 2, 55, 0
10, 64479, Note_on_c, 2, 64, 0
10, 64500, Note_on_c, 2, 55, 44
10, 64500, Note_on_c, 2, 64, 44
10, 64500, Note_on_c, 2, 60, 44
10, 64525, Note_on_c, 2, 60, 0
10, 64531, Note_on_c, 2, 64, 0
10, 64535, Note_on_c, 2, 55, 0
10, 64560, Note_on_c, 2, 55, 55
10, 64560, Note_on_c, 2, 64, 55
10, 64560, Note_on_c, 2, 60, 55
10, 64592, Note_on_c, 2, 60, 0
10, 64594, Note_on_c, 2, 64, 0
10, 64596, Note_on_c, 2, 55, 0
10, 64620, Note_on_c, 2, 55, 42
10, 64620, Note_on_c, 2, 64, 42
10, 64620, Note_on_c, 2, 60, 42
10, 64643, Note_on_c, 2, 60, 0
10, 64651, Note_on_c, 2, 64, 0
10, 64655, Note_on_c, 2, 55, 0
10, 64680, Note_on_c, 2, 55, 55
10, 64680, Note_on_c, 2, 60, 55
10, 64680, Note_on_c, 2, 64, 55
10, 64710, Note_on_c, 2, 60, 0
10, 64712, Note_on_c, 2, 64, 0
10, 64718, Note_on_c, 2, 55, 0
10, 64740, Note_on_c, 2, 55, 47
10, 64740, Note_on_c, 2, 60, 47
10, 64740, Note_on_c, 2, 64, 47
10, 64767, Note_on_c, 2, 64, 0
10, 64768, Note_on_c, 2, 60, 0
10, 64778, Note_on_c, 2, 55, 0
10, 64800, Note_on_c, 2, 57, 63
10, 64800, Note_on_c, 2, 65, 63
10, 64800, Note_on_c, 2, 62, 63
10, 64833, Note_on_c, 2, 57, 0
10, 64834, Note_on_c, 2, 62, 0
10, 64837, Note_on_c, 2, 65, 0
10, 64860, Note_on_c, 2, 65, 40
10, 64860, Note_on_c, 2, 57, 40
10, 64860, Note_on_c, 2, 62, 40
10, 64880, Note_on_c, 2, 62, 0
10, 64888, Note_on_c, 2, 57, 0
10, 64893, Note_on_c, 2, 65, 0
10, 64920, Note_on_c, 2, 57, 65
10, 64920, Note_on_c, 2, 65, 65
10, 64920, Note_on_c, 2, 62, 65
10, 64948, Note_on_c, 2, 62, 0
10, 64954, Note_on_c, 2, 57, 0
10, 64955, Note_on_c, 2, 65, 0
10, 64980, Note_on_c, 2, 65, 44
10, 64980, Note_on_c, 2, 57, 44
10, 64980, Note_on_c, 2, 62, 44
10, 65002, Note_on_c, 2, 62, 0
10, 65006, Note_on_c, 2, 57, 0
10, 65010, Note_on_c, 2, 65, 0
10, 65040, Note_on_c, 2, 65, 50
10, 65040, Note_on_c, 2, 57, 68
10, 65040, Note_on_c, 2, 62, 63
10, 65067, Note_on_c, 2, 62, 0
10, 65071, Note_on_c, 2, 57, 0
10, 65074, Note_on_c, 2, 65, 0
10, 65100, Note_on_c, 2, 65, 41
10, 65100, Note_on_c, 2, 57, 41
10, 65100, Note_on_c, 2, 62, 41
10, 65122, Note_on_c, 2, 62, 0
10, 65124, Note_on_c, 2, 57, 0
10, 65130, Note_on_c, 2, 65, 0
10, 65160, Note_on_c, 2, 65, 64
10, 65160, Note_on_c, 2, 57, 64
10, 65160, Note_on_c, 2, 62, 64
10, 65188, Note_on_c, 2, 62, 0
10, 65192, Note_on_c, 2, 57, 0
10, 65197, Note_on_c, 2, 65, 0
10, 65220, Note_on_c, 2, 65, 49
10, 65220, Note_on_c, 2, 57, 49
10, 65220, Note_on_c, 2, 62, 49
10, 65234, Note_on_c, 2, 62, 0
10, 65241, Note_on_c, 2, 57, 0
10, 65245, Note_on_c, 2, 65, 0
10, 65280, Note_on_c, 2, 58, 55
10, 65280, Note_on_c, 2, 65, 55
10, 65280, Note_on_c, 2, 62, 55
10, 65312, Note_on_c, 2, 62, 0
10, 65319, Note_on_c, 2, 65, 0
10, 65319, Note_on_c, 2, 58, 0
10, 65340, Note_on_c, 2, 65, 49
10, 65340, Note_on_c, 2, 58, 49
10, 65340, Note_on_c, 2, 62, 49
10, 65365, Note_on_c, 2, 62, 0
10, 65371, Note_on_c, 2, 58, 0
10, 65373, Note_on_c, 2, 65, 0
10, 65400, Note_on_c, 2, 58, 57
10, 65400, Note_on_c, 2, 65, 57
10, 65400, Note_on_c, 2, 62, 57
10, 65430, Note_on_c, 2, 62, 0
10, 65432, Note_on_c, 2, 58, 0
10, 65440, Note_on_c, 2, 65, 0
10, 65460, Note_on_c, 2, 58, 44
10, 65460, Note_on_c, 2, 65, 44
10, 65460, Note_on_c, 2, 62, 44
10, 65482, Note_on_c, 2, 62, 0
10, 65489, Note_on_c, 2, 58, 0
10, 65498, Note_on_c, 2, 65, 0
10, 65520, Note_on_c, 2, 58, 61
10, 65520, Note_on_c, 2, 62, 61
10, 65520, Note_on_c, 2, 65, 61
10, 65544, Note_on_c, 2, 62, 0
10, 65552, Note_on_c, 2, 65, 0
10, 65552, Note_on_c, 2, 58, 0
10, 65580, Note_on_c, 2, 58, 53
10, 65580, Note_on_c, 2, 65, 53
10, 65580, Note_on_c, 2, 62, 53
10, 65604, Note_on_c, 2, 62, 0
10, 65607, Note_on_c, 2, 58, 0
10, 65612, Note_on_c, 2, 65, 0
10, 65640, Note_on_c, 2, 58, 59
10, 65640, Note_on_c, 2, 65, 59
10, 65640, Note_on_c, 2, 62, 59
10, 65662, Note_on_c, 2, 62, 0
10, 65673, Note_on_c, 2, 65, 0
10, 65675, Note_on_c, 2, 58, 0
10, 65700, Note_on_c, 2, 58, 44
10, 65700, Note_on_c, 2, 65, 44
10, 65700, Note_on_c, 2, 62, 44
10, 65723, Note_on_c, 2, 62, 0
10, 65723, Note_on_c, 2, 65, 0
10, 65741, Note_on_c, 2, 58, 0
10, 65760, Note_on_c, 2, 60, 57
10, 65760, Note_on_c, 2, 64, 57
10, 65760, Note_on_c, 2, 55, 57
10, 65792, Note_on_c, 2, 55, 0
10, 65795, Note_on_c, 2, 60, 0
10, 65796, Note_on_c, 2, 64, 0
10, 65820, Note_on_c, 2, 55, 42
10, 65820, Note_on_c, 2, 64, 42
10, 65820, Note_on_c, 2, 60, 42
10, 65839, Note_on_c, 2, 60, 0
10, 65843, Note_on_c, 2, 55, 0
10, 65844, Note_on_c, 2, 64, 0
10, 65880, Note_on_c, 2, 55, 50
10, 65880, Note_on_c, 2, 64, 50
10, 65880, Note_on_c, 2, 60, 50
10, 65901, Note_on_c, 2, 60, 0
10, 65906, Note_on_c, 2, 64, 0
10, 65908, Note_on_c, 2, 55, 0
10, 65940, Note_on_c, 2, 55, 42
10, 65940, Note_on_c, 2, 64, 42
10, 65940, Note_on_c, 2, 60, 42
10, 65963, Note_on_c, 2, 60, 0
10, 65965, Note_on_c, 2, 64, 0
10, 65970, Note_on_c, 2, 55, 0
10, 66000, Note_on_c, 2, 55, 59
10, 66000, Note_on_c, 2, 60, 59
10, 66000, Note_on_c, 2, 64, 59
10, 66025, Note_on_c, 2, 60, 0
10, 66027, Note_on_c, 2, 64, 0
10, 66030, Note_on_c, 2, 55, 0
10, 66060, Note_on_c, 2, 55, 44
10, 66060, Note_on_c, 2, 60, 44
10, 66060, Note_on_c, 2, 64, 44
10, 66089, Note_on_c, 2, 60, 0
10, 66093, Note_on_c, 2, 64, 0
10, 66093, Note_on_c, 2, 55, 0
10, 66120, Note_on_c, 2, 55, 57
10, 66120, Note_on_c, 2, 64, 57
10, 66120, Note_on_c, 2, 60, 57
10, 66151, Note_on_c, 2, 55, 0
10, 66152, Note_on_c, 2, 60, 0
10, 66154, Note_on_c, 2, 64, 0
10, 66180, Note_on_c, 2, 55, 41
10, 66180, Note_on_c, 2, 60, 41
10, 66180, Note_on_c, 2, 64, 41
10, 66214, Note_on_c, 2, 60, 0
10, 66215, Note_on_c, 2, 64, 0
10, 66219, Note_on_c, 2, 55, 0
10, 66240, Note_on_c, 2, 55, 61
10, 66240, Note_on_c, 2, 64, 61
10, 66240, Note_on_c, 2, 60, 61
10, 66273, Note_on_c, 2, 60, 0
10, 66276, Note_on_c, 2, 64, 0
10, 66278, Note_on_c, 2, 55, 0
10, 66300, Note_on_c, 2, 55, 47
10, 66300, Note_on_c, 2, 64, 47
10, 66300, Note_on_c, 2, 60, 47
10, 66330, Note_on_c, 2, 60, 0
10, 66334, Note_on_c, 2, 64, 0
10, 66335, Note_on_c, 2, 55, 0
10, 66360, Note_on_c, 2, 55, 51
10, 66360, Note_on_c, 2, 64, 51
10, 66360, Note_on_c, 2, 60, 51
10, 66394, Note_on_c, 2, 60, 0
10, 66397, Note_on_c, 2, 55, 0
10, 66399, Note_on_c, 2, 64, 0
10, 66420, Note_on_c, 2, 55, 44
10, 66420, Note_on_c, 2, 64, 44
10, 66420, Note_on_c, 2, 60, 44
10, 66445, Note_on_c, 2, 60, 0
10, 66451, Note_on_c, 2, 64, 0
10, 66455, Note_on_c, 2, 55, 0
10, 66480, Note_on_c, 2, 55, 55
10, 66480, Note_on_c, 2, 64, 55
10, 66480, Note_on_c, 2, 60, 55
10, 66512, Note_on_c, 2, 60, 0
10, 66514, Note_on_c, 2, 64, 0
10, 66516, Note_on_c, 2, 55, 0
10, 66540, Note_on_c, 2, 55, 42
10, 66540, Note_on_c, 2, 64, 42
10, 66540, Note_on_c, 2, 60, 42
10, 66563, Note_on_c, 2, 60, 0
10, 66571, Note_on_c, 2, 64, 0
10, 66575, Note_on_c, 2, 55, 0
10, 66600, Note_on_c, 2, 55, 55
10, 66600, Note_on_c, 2, 60, 55
10, 66600, Note_on_c, 2, 64, 55
10, 66630, Note_on_c, 2, 60, 0
10, 66632, Note_on_c, 2, 64, 0
10, 66638, Note_on_c, 2, 55, 0
10, 66660, Note_on_c, 2, 55, 47
10, 66660, Note_on_c, 2, 60, 47
10, 66660, Note_on_c, 2, 64, 47
10, 66687, Note_on_c, 2, 64, 0
10, 66688, Note_on_c, 2, 60, 0
10, 66698, Note_on_c, 2, 55, 0
10, 66720, Note_on_c, 2, 57, 62
10, 66720, Note_on_c, 2, 65, 62
10, 66720, Note_on_c, 2, 62, 62
10, 66753, Note_on_c, 2, 57, 0
10, 66754, Note_on_c, 2, 62, 0
10, 66757, Note_on_c, 2, 65, 0
10, 66780, Note_on_c, 2, 65, 38
10, 66780, Note_on_c, 2, 57, 38
10, 66780, Note_on_c, 2, 62, 38
10, 66800, Note_on_c, 2, 62, 0
10, 66808, Note_on_c, 2, 57, 0
10, 66813, Note_on_c, 2, 65, 0
10, 66840, Note_on_c, 2, 57, 63
10, 66840, Note_on_c, 2, 65, 63
10, 66840, Note_on_c, 2, 62, 63
10, 66868, Note_on_c, 2, 62, 0
10, 66874, Note_on_c, 2, 57, 0
10, 66875, Note_on_c, 2, 65, 0
10, 66900, Note_on_c, 2, 65, 41
10, 66900, Note_on_c, 2, 57, 41
10, 66900, Note_on_c, 2, 62, 41
10, 66922, Note_on_c, 2, 62, 0
10, 66926, Note_on_c, 2, 57, 0
10, 66930, Note_on_c, 2, 65, 0
10, 66960, Note_on_c, 2, 65, 47
10, 66960, Note_on_c, 2, 57, 64
10, 66960, Note_on_c, 2, 62, 61
10, 66987, Note_on_c, 2, 62, 0
10, 66991, Note_on_c, 2, 57, 0
10, 66994, Note_on_c, 2, 65, 0
10, 67020, Note_on_c, 2, 65, 38
10, 67020, Note_on_c, 2, 57, 38
10, 67020, Note_on_c, 2, 62, 38
10, 67042, Note_on_c, 2, 62, 0
10, 67044, Note_on_c, 2, 57, 0
10, 67050, Note_on_c, 2, 65, 0
10, 67080, Note_on_c, 2, 65, 61
10, 67080, Note_on_c, 2, 57, 61
10, 67080, Note_on_c, 2, 62, 61
10, 67108, Note_on_c, 2, 62, 0
10, 67112, Note_on_c, 2, 57, 0
10, 67117, Note_on_c, 2, 65, 0
10, 67140, Note_on_c, 2, 65, 45
10, 67140, Note_on_c, 2, 57, 45
10, 67140, Note_on_c, 2, 62, 45
10, 67154, Note_on_c, 2, 62, 0
10, 67161, Note_on_c, 2, 57, 0
10, 67165, Note_on_c, 2, 65, 0
10, 67200, Note_on_c, 2, 58, 51
10, 67200, Note_on_c, 2, 65, 51
10, 67200, Note_on_c, 2, 62, 51
10, 67232, Note_on_c, 2, 62, 0
10, 67239, Note_on_c, 2, 65, 0
10, 67239, Note_on_c, 2, 58, 0
10, 67260, Note_on_c, 2, 65, 45
10, 67260, Note_on_c, 2, 58, 45
10, 67260, Note_on_c, 2, 62, 45
10, 67285, Note_on_c, 2, 62, 0
10, 67291, Note_on_c, 2, 58, 0
10, 67293, Note_on_c, 2, 65, 0
10, 67320, Note_on_c, 2, 58, 53
10, 67320, Note_on_c, 2, 65, 53
10, 67320, Note_on_c, 2, 62, 53
10, 67350, Note_on_c, 2, 62, 0
10, 67352, Note_on_c, 2, 58, 0
10, 67360, Note_on_c, 2, 65, 0
10, 67380, Note_on_c, 2, 58, 40
10, 67380, Note_on_c, 2, 65, 40
10, 67380, Note_on_c, 2, 62, 40
10, 67402, Note_on_c, 2, 62, 0
10, 67409, Note_on_c, 2, 58, 0
10, 67418, Note_on_c, 2, 65, 0
10, 67440, Note_on_c, 2, 58, 54
10, 67440, Note_on_c, 2, 62, 54
10, 67440, Note_on_c, 2, 65, 54
10, 67464, Note_on_c, 2, 62, 0
10, 67472, Note_on_c, 2, 65, 0
10, 67472, Note_on_c, 2, 58, 0
10, 67500, Note_on_c, 2, 58, 47
10, 67500, Note_on_c, 2, 65, 47
10, 67500, Note_on_c, 2, 62, 47
10, 67524, Note_on_c, 2, 62, 0
10, 67527, Note_on_c, 2, 58, 0
10, 67532, Note_on_c, 2, 65, 0
10, 67560, Note_on_c, 2, 58, 53
10, 67560, Note_on_c, 2, 65, 53
10, 67560, Note_on_c, 2, 62, 53
10, 67582, Note_on_c, 2, 62, 0
10, 67593, Note_on_c, 2, 65, 0
10, 67595, Note_on_c, 2, 58, 0
10, 67620, Note_on_c, 2, 58, 38
10, 67620, Note_on_c, 2, 65, 38
10, 67620, Note_on_c, 2, 62, 38
10, 67643, Note_on_c, 2, 62, 0
10, 67643, Note_on_c, 2, 65, 0
10, 67661, Note_on_c, 2, 58, 0
10, 67680, Note_on_c, 2, 60, 50
10, 67680, Note_on_c, 2, 64, 50
10, 67680, Note_on_c, 2, 55, 50
10, 67712, Note_on_c, 2, 55, 0
10, 67715, Note_on_c, 2, 60, 0
10, 67716, Note_on_c, 2, 64, 0
10, 67740, Note_on_c, 2, 55, 36
10, 67740, Note_on_c, 2, 64, 36
10, 67740, Note_on_c, 2, 60, 36
10, 67759, Note_on_c, 2, 60, 0
10, 67763, Note_on_c, 2, 55, 0
10, 67764, Note_on_c, 2, 64, 0
10, 67800, Note_on_c, 2, 55, 44
10, 67800, Note_on_c, 2, 64, 44
10, 67800, Note_on_c, 2, 60, 44
10, 67821, Note_on_c, 2, 60, 0
10, 67826, Note_on_c, 2, 64, 0
10, 67828, Note_on_c, 2, 55, 0
10, 67860, Note_on_c, 2, 55, 36
10, 67860, Note_on_c, 2, 64, 36
10, 67860, Note_on_c, 2, 60, 36
10, 67883, Note_on_c, 2, 60, 0
10, 67885, Note_on_c, 2, 64, 0
10, 67890, Note_on_c, 2, 55, 0
10, 67920, Note_on_c, 2, 55, 50
10, 67920, Note_on_c, 2, 60, 50
10, 67920, Note_on_c, 2, 64, 50
10, 67945, Note_on_c, 2, 60, 0
10, 67947, Note_on_c, 2, 64, 0
10, 67950, Note_on_c, 2, 55, 0
10, 67980, Note_on_c, 2, 55, 37
10, 67980, Note_on_c, 2, 60, 37
10, 67980, Note_on_c, 2, 64, 37
10, 68009, Note_on_c, 2, 60, 0
10, 68013, Note_on_c, 2, 64, 0
10, 68013, Note_on_c, 2, 55, 0
10, 68040, Note_on_c, 2, 55, 49
10, 68040, Note_on_c, 2, 64, 49
10, 68040, Note_on_c, 2, 60, 49
10, 68071, Note_on_c, 2, 55, 0
10, 68072, Note_on_c, 2, 60, 0
10, 68074, Note_on_c, 2, 64, 0
10, 68100, Note_on_c, 2, 55, 33
10, 68100, Note_on_c, 2, 60, 33
10, 68100, Note_on_c, 2, 64, 33
10, 68134, Note_on_c, 2, 60, 0
10, 68135, Note_on_c, 2, 64, 0
10, 68139, Note_on_c, 2, 55, 0
10, 68160, Note_on_c, 2, 55, 50
10, 68160, Note_on_c, 2, 64, 50
10, 68160, Note_on_c, 2, 60, 50
10, 68193, Note_on_c, 2, 60, 0
10, 68196, Note_on_c, 2, 64, 0
10, 68198, Note_on_c, 2, 55, 0
10, 68220, Note_on_c, 2, 55, 38
10, 68220, Note_on_c, 2, 64, 38
10, 68220, Note_on_c, 2, 60, 38
10, 68250, Note_on_c, 2, 60, 0
10, 68254, Note_on_c, 2, 64, 0
10, 68255, Note_on_c, 2, 55, 0
10, 68280, Note_on_c, 2, 55, 42
10, 68280, Note_on_c, 2, 64, 42
10, 68280, Note_on_c, 2, 60, 42
10, 68314, Note_on_c, 2, 60, 0
10, 68317, Note_on_c, 2, 55, 0
10, 68319, Note_on_c, 2, 64, 0
10, 68340, Note_on_c, 2, 55, 35
10, 68340, Note_on_c, 2, 64, 35
10, 68340, Note_on_c, 2, 60, 35
10, 68365, Note_on_c, 2, 60, 0
10, 68371, Note_on_c, 2, 64, 0
10, 68375, Note_on_c, 2, 55, 0
10, 68400, Note_on_c, 2, 55, 44
10, 68400, Note_on_c, 2, 64, 44
10, 68400, Note_on_c, 2, 60, 44
10, 68432, Note_on_c, 2, 60, 0
10, 68434, Note_on_c, 2, 64, 0
10, 68436, Note_on_c, 2, 55, 0
10, 68460, Note_on_c, 2, 55, 33
10, 68460, Note_on_c, 2, 64, 33
10, 68460, Note_on_c, 2, 60, 33
10, 68483, Note_on_c, 2, 60, 0
10, 68491, Note_on_c, 2, 64, 0
10, 68495, Note_on_c, 2, 55, 0
10, 68520, Note_on_c, 2, 55, 44
10, 68520, Note_on_c, 2, 60, 44
10, 68520, Note_on_c, 2, 64, 44
10, 68550, Note_on_c, 2, 60, 0
10, 68552, Note_on_c, 2, 64, 0
10, 68558, Note_on_c, 2, 55, 0
10, 68580, Note_on_c, 2, 55, 37
10, 68580, Note_on_c, 2, 60, 37
10, 68580, Note_on_c, 2, 64, 37
10, 68607, Note_on_c, 2, 64, 0
10, 68608, Note_on_c, 2, 60, 0
10, 68618, Note_on_c, 2, 55, 0
10, 68640, Note_on_c, 2, 57, 49
10, 68640, Note_on_c, 2, 65, 49
10, 68640, Note_on_c, 2, 62, 49
10, 68673, Note_on_c, 2, 57, 0
10, 68674, Note_on_c, 2, 62, 0
10, 68677, Note_on_c, 2, 65, 0
10, 68700, Note_on_c, 2, 65, 30
10, 68700, Note_on_c, 2, 57, 30
10, 68700, Note_on_c, 2, 62, 30
10, 68720, Note_on_c, 2, 62, 0
10, 68728, Note_on_c, 2, 57, 0
10, 68733, Note_on_c, 2, 65, 0
10, 68760, Note_on_c, 2, 57, 50
10, 68760, Note_on_c, 2, 65, 50
10, 68760, Note_on_c, 2, 62, 50
10, 68788, Note_on_c, 2, 62, 0
10, 68794, Note_on_c, 2, 57, 0
10, 68795, Note_on_c, 2, 65, 0
10, 68820, Note_on_c, 2, 65, 32
10, 68820, Note_on_c, 2, 57, 32
10, 68820, Note_on_c, 2, 62, 32
10, 68842, Note_on_c, 2, 62, 0
10, 68846, Note_on_c, 2, 57, 0
10, 68850, Note_on_c, 2, 65, 0
10, 68880, Note_on_c, 2, 65, 37
10, 68880, Note_on_c, 2, 57, 51
10, 68880, Note_on_c, 2, 62, 47
10, 68907, Note_on_c, 2, 62, 0
10, 68911, Note_on_c, 2, 57, 0
10, 68914, Note_on_c, 2, 65, 0
10, 68940, Note_on_c, 2, 65, 31
10, 68940, Note_on_c, 2, 57, 31
10, 68940, Note_on_c, 2, 62, 31
10, 68962, Note_on_c, 2, 62, 0
10, 68964, Note_on_c, 2, 57, 0
10, 68970, Note_on_c, 2, 65, 0
10, 69000, Note_on_c, 2, 65, 47
10, 69000, Note_on_c, 2, 57, 47
10, 69000, Note_on_c, 2, 62, 47
10, 69028, Note_on_c, 2, 62, 0
10, 69032, Note_on_c, 2, 57, 0
10, 69037, Note_on_c, 2, 65, 0
10, 69060, Note_on_c, 2, 65, 36
10, 69060, Note_on_c, 2, 57, 36
10, 69060, Note_on_c, 2, 62, 36
10, 69074, Note_on_c, 2, 62, 0
10, 69081, Note_on_c, 2, 57, 0
10, 69085, Note_on_c, 2, 65, 0
10, 69120, Note_on_c, 2, 58, 40
10, 69120, Note_on_c, 2, 65, 40
10, 69120, Note_on_c, 2, 62, 40
10, 69152, Note_on_c, 2, 62, 0
10, 69159, Note_on_c, 2, 65, 0
10, 69159, Note_on_c, 2, 58, 0
10, 69180, Note_on_c, 2, 65, 35
10, 69180, Note_on_c, 2, 58, 35
10, 69180, Note_on_c, 2, 62, 35
10, 69205, Note_on_c, 2, 62, 0
10, 69211, Note_on_c, 2, 58, 0
10, 69213, Note_on_c, 2, 65, 0
10, 69240, Note_on_c, 2, 58, 41
10, 69240, Note_on_c, 2, 65, 41
10, 69240, Note_on_c, 2, 62, 41
10, 69270, Note_on_c, 2, 62, 0
10, 69272, Note_on_c, 2, 58, 0
10, 69280, Note_on_c, 2, 65, 0
10, 69300, Note_on_c, 2, 58, 31
10, 69300, Note_on_c, 2, 65, 31
10, 69300, Note_on_c, 2, 62, 31
10, 69322, Note_on_c, 2, 62, 0
10, 69329, Note_on_c, 2, 58, 0
10, 69338, Note_on_c, 2, 65, 0
10, 69360, Note_on_c, 2, 58, 42
10, 69360, Note_on_c, 2, 62, 42
10, 69360, Note_on_c, 2, 65, 42
10, 69384, Note_on_c, 2, 62, 0
10, 69392, Note_on_c, 2, 65, 0
10, 69392, Note_on_c, 2, 58, 0
10, 69420, Note_on_c, 2, 58, 36
10, 69420, Note_on_c, 2, 65, 36
10, 69420, Note_on_c, 2, 62, 36
10, 69444, Note_on_c, 2, 62, 0
10, 69447, Note_on_c, 2, 58, 0
10, 69452, Note_on_c, 2, 65, 0
10, 69480, Note_on_c, 2, 58, 40
10, 69480, Note_on_c, 2, 65, 40
10, 69480, Note_on_c, 2, 62, 40
10, 69502, Note_on_c, 2, 62, 0
10, 69513, Note_on_c, 2, 65, 0
10, 69515, Note_on_c, 2, 58, 0
10, 69540, Note_on_c, 2, 58, 30
10, 69540, Note_on_c, 2, 65, 30
10, 69540, Note_on_c, 2, 62, 30
10, 69563, Note_on_c, 2, 62, 0
10, 69563, Note_on_c, 2, 65, 0
10, 69581, Note_on_c, 2, 58, 0
10, 69600, Note_on_c, 2, 60, 38
10, 69600, Note_on_c, 2, 64, 38
10, 69600, Note_on_c, 2, 55, 38
10, 69632, Note_on_c, 2, 55, 0
10, 69635, Note_on_c, 2, 60, 0
10, 69636, Note_on_c, 2, 64, 0
10, 69660, Note_on_c, 2, 55, 28
10, 69660, Note_on_c, 2, 64, 28
10, 69660, Note_on_c, 2, 60, 28
10, 69679, Note_on_c, 2, 60, 0
10, 69683, Note_on_c, 2, 55, 0
10, 69684, Note_on_c, 2, 64, 0
10, 69720, Note_on_c, 2, 55, 33
10, 69720, Note_on_c, 2, 64, 33
10, 69720, Note_on_c, 2, 60, 33
10, 69741, Note_on_c, 2, 60, 0
10, 69746, Note_on_c, 2, 64, 0
10, 69748, Note_on_c, 2, 55, 0
10, 69780, Note_on_c, 2, 55, 27
10, 69780, Note_on_c, 2, 64, 27
10, 69780, Note_on_c, 2, 60, 27
10, 69803, Note_on_c, 2, 60, 0
10, 69805, Note_on_c, 2, 64, 0
10, 69810, Note_on_c, 2, 55, 0
10, 69840, Note_on_c, 2, 55, 38
10, 69840, Note_on_c, 2, 60, 38
10, 69840, Note_on_c, 2, 64, 38
10, 69865, Note_on_c, 2, 60, 0
10, 69867, Note_on_c, 2, 64, 0
10, 69870, Note_on_c, 2, 55, 0
10, 69900, Note_on_c, 2, 55, 28
10, 69900, Note_on_c, 2, 60, 28
10, 69900, Note_on_c, 2, 64, 28
10, 69929, Note_on_c, 2, 60, 0
10, 69933, Note_on_c, 2, 64, 0
10, 69933, Note_on_c, 2, 55, 0
10, 69960, Note_on_c, 2, 55, 37
10, 69960, Note_on_c, 2, 64, 37
10, 69960, Note_on_c, 2, 60, 37
10, 69991, Note_on_c, 2, 55, 0
10, 69992, Note_on_c, 2, 60, 0
10, 69994, Note_on_c, 2, 64, 0
10, 70020, Note_on_c, 2, 55, 25
10, 70020, Note_on_c, 2, 60, 25
10, 70020, Note_on_c, 2, 64, 25
10, 70054, Note_on_c, 2, 60, 0
10, 70055, Note_on_c, 2, 64, 0
10, 70059, Note_on_c, 2, 55, 0
10, 70080, Note_on_c, 2, 55, 37
10, 70080, Note_on_c, 2, 64, 37
10, 70080, Note_on_c, 2, 60, 37
10, 70113, Note_on_c, 2, 60, 0
10, 70116, Note_on_c, 2, 64, 0
10, 70118, Note_on_c, 2, 55, 0
10, 70140, Note_on_c, 2, 55, 30
10, 70140, Note_on_c, 2, 64, 30
10, 70140, Note_on_c, 2, 60, 30
10, 70170, Note_on_c, 2, 60, 0
10, 70174, Note_on_c, 2, 64, 0
10, 70175, Note_on_c, 2, 55, 0
10, 70200, Note_on_c, 2, 55, 31
10, 70200, Note_on_c, 2, 64, 31
10, 70200, Note_on_c, 2, 60, 31
10, 70234, Note_on_c, 2, 60, 0
10, 70237, Note_on_c, 2, 55, 0
10, 70239, Note_on_c, 2, 64, 0
10, 70260, Note_on_c, 2, 55, 27
10, 70260, Note_on_c, 2, 64, 27
10, 70260, Note_on_c, 2, 60, 27
10, 70285, Note_on_c, 2, 60, 0
10, 70291, Note_on_c, 2, 64, 0
10, 70295, Note_on_c, 2, 55, 0
10, 70320, Note_on_c, 2, 55, 33
10, 70320, Note_on_c, 2, 64, 33
10, 70320, Note_on_c, 2, 60, 33
10, 70352, Note_on_c, 2, 60, 0
10, 70354, Note_on_c, 2, 64, 0
10, 70356, Note_on_c, 2, 55, 0
10, 70380, Note_on_c, 2, 55, 24
10, 70380, Note_on_c, 2, 64, 24
10, 70380, Note_on_c, 2, 60, 24
10, 70403, Note_on_c, 2, 60, 0
10, 70411, Note_on_c, 2, 64, 0
10, 70415, Note_on_c, 2, 55, 0
10, 70440, Note_on_c, 2, 55, 32
10, 70440, Note_on_c, 2, 60, 32
10, 70440, Note_on_c, 2, 64, 32
10, 70470, Note_on_c, 2, 60, 0
10, 70472, Note_on_c, 2, 64, 0
10, 70478, Note_on_c, 2, 55, 0
10, 70500, Note_on_c, 2, 55, 27
10, 70500, Note_on_c, 2, 60, 27
10, 70500, Note_on_c, 2, 64, 27
10, 70527, Note_on_c, 2, 64, 0
10, 70528, Note_on_c, 2, 60, 0
10, 70538, Note_on_c, 2, 55, 0
10, 70560, Note_on_c, 2, 57, 36
10, 70560, Note_on_c, 2, 65, 36
10, 70560, Note_on_c, 2, 62, 36
10, 70593, Note_on_c, 2, 57, 0
10, 70594, Note_on_c, 2, 62, 0
10, 70597, Note_on_c, 2, 65, 0
10, 70620, Note_on_c, 2, 65, 22
10, 70620, Note_on_c, 2, 57, 22
10, 70620, Note_on_c, 2, 62, 22
10, 70640, Note_on_c, 2, 62, 0
10, 70648, Note_on_c, 2, 57, 0
10, 70653, Note_on_c, 2, 65, 0
10, 70680, Note_on_c, 2, 57, 37
10, 70680, Note_on_c, 2, 65, 37
10, 70680, Note_on_c, 2, 62, 37
10, 70708, Note_on_c, 2, 62, 0
10, 70714, Note_on_c, 2, 57, 0
10, 70715, Note_on_c, 2, 65, 0
10, 70740, Note_on_c, 2, 65, 24
10, 70740, Note_on_c, 2, 57, 24
10, 70740, Note_on_c, 2, 62, 24
10, 70762, Note_on_c, 2, 62, 0
10, 70766, Note_on_c, 2, 57, 0
10, 70770, Note_on_c, 2, 65, 0
10, 70800, Note_on_c, 2, 65, 27
10, 70800, Note_on_c, 2, 57, 37
10, 70800, Note_on_c, 2, 62, 35
10, 70827, Note_on_c, 2, 62, 0
10, 70831, Note_on_c, 2, 57, 0
10, 70834, Note_on_c, 2, 65, 0
10, 70860, Note_on_c, 2, 65, 22
10, 70860, Note_on_c, 2, 57, 22
10, 70860, Note_on_c, 2, 62, 22
10, 70882, Note_on_c, 2, 62, 0
10, 70884, Note_on_c, 2, 57, 0
10, 70890, Note_on_c, 2, 65, 0
10, 70920, Note_on_c, 2, 65, 35
10, 70920, Note_on_c, 2, 57, 35
10, 70920, Note_on_c, 2, 62, 35
10, 70948, Note_on_c, 2, 62, 0
10, 70952, Note_on_c, 2, 57, 0
10, 70957, Note_on_c, 2, 65, 0
10, 70980, Note_on_c, 2, 65, 25
10, 70980, Note_on_c, 2, 57, 25
10, 70980, Note_on_c, 2, 62, 25
10, 70994, Note_on_c, 2, 62, 0
10, 71001, Note_on_c, 2, 57, 0
10, 71005, Note_on_c, 2, 65, 0
10, 71040, Note_on_c, 2, 58, 30
10, 71040, Note_on_c, 2, 65, 30
10, 71040, Note_on_c, 2, 62, 30
10, 71072, Note_on_c, 2, 62, 0
10, 71079, Note_on_c, 2, 65, 0
10, 71079, Note_on_c, 2, 58, 0
10, 71100, Note_on_c, 2, 65, 25
10, 71100, Note_on_c, 2, 58, 25
10, 71100, Note_on_c, 2, 62, 25
10, 71125, Note_on_c, 2, 62, 0
10, 71131, Note_on_c, 2, 58, 0
10, 71133, Note_on_c, 2, 65, 0
10, 71160, Note_on_c, 2, 58, 30
10, 71160, Note_on_c, 2, 65, 30
10, 71160, Note_on_c, 2, 62, 30
10, 71190, Note_on_c, 2, 62, 0
10, 71192, Note_on_c, 2, 58, 0
10, 71200, Note_on_c, 2, 65, 0
10, 71220, Note_on_c, 2, 58, 22
10, 71220, Note_on_c, 2, 65, 22
10, 71220, Note_on_c, 2, 62, 22
10, 71242, Note_on_c, 2, 62, 0
10, 71249, Note_on_c, 2, 58, 0
10, 71258, Note_on_c, 2, 65, 0
10, 71280, Note_on_c, 2, 58, 30
10, 71280, Note_on_c, 2, 62, 30
10, 71280, Note_on_c, 2, 65, 30
10, 71304, Note_on_c, 2, 62, 0
10, 71312, Note_on_c, 2, 65, 0
10, 71312, Note_on_c, 2, 58, 0
10, 71340, Note_on_c, 2, 58, 25
10, 71340, Note_on_c, 2, 65, 25
10, 71340, Note_on_c, 2, 62, 25
10, 71364, Note_on_c, 2, 62, 0
10, 71367, Note_on_c, 2, 58, 0
10, 71372, Note_on_c, 2, 65, 0
10, 71400, Note_on_c, 2, 58, 28
10, 71400, Note_on_c, 2, 65, 28
10, 71400, Note_on_c, 2, 62, 28
10, 71422, Note_on_c, 2, 62, 0
10, 71433, Note_on_c, 2, 65, 0
10, 71435, Note_on_c, 2, 58, 0
10, 71460, Note_on_c, 2, 58, 21
10, 71460, Note_on_c, 2, 65, 21
10, 71460, Note_on_c, 2, 62, 21
10, 71483, Note_on_c, 2, 62, 0
10, 71483, Note_on_c, 2, 65, 0
10, 71501, Note_on_c, 2, 58, 0
10, 71520, Note_on_c, 2, 60, 28
10, 71520, Note_on_c, 2, 64, 28
10, 71520, Note_on_c, 2, 55, 28
10, 71552, Note_on_c, 2, 55, 0
10, 71555, Note_on_c, 2, 60, 0
10, 71556, Note_on_c, 2, 64, 0
10, 71580, Note_on_c, 2, 55, 19
10, 71580, Note_on_c, 2, 64, 19
10, 71580, Note_on_c, 2, 60, 19
10, 71599, Note_on_c, 2, 60, 0
10, 71603, Note_on_c, 2, 55, 0
10, 71604, Note_on_c, 2, 64, 0
10, 71640, Note_on_c, 2, 55, 23
10, 71640, Note_on_c, 2, 64, 23
10, 71640, Note_on_c, 2, 60, 23
10, 71661, Note_on_c, 2, 60, 0
10, 71666, Note_on_c, 2, 64, 0
10, 71668, Note_on_c, 2, 55, 0
10, 71700, Note_on_c, 2, 55, 19
10, 71700, Note_on_c, 2, 64, 19
10, 71700, Note_on_c, 2, 60, 19
10, 71723, Note_on_c, 2, 60, 0
10, 71725, Note_on_c, 2, 64, 0
10, 71730, Note_on_c, 2, 55, 0
10, 71760, Note_on_c, 2, 55, 27
10, 71760, Note_on_c, 2, 60, 27
10, 71760, Note_on_c, 2, 64, 27
10, 71785, Note_on_c, 2, 60, 0
10, 71787, Note_on_c, 2, 64, 0
10, 71790, Note_on_c, 2, 55, 0
10, 71820, Note_on_c, 2, 55, 19
10, 71820, Note_on_c, 2, 60, 19
10, 71820, Note_on_c, 2, 64, 19
10, 71849, Note_on_c, 2, 60, 0
10, 71853, Note_on_c, 2, 64, 0
10, 71853, Note_on_c, 2, 55, 0
10, 71880, Note_on_c, 2, 55, 25
10, 71880, Note_on_c, 2, 64, 25
10, 71880, Note_on_c, 2, 60, 25
10, 71911, Note_on_c, 2, 55, 0
10, 71912, Note_on_c, 2, 60, 0
10, 71914, Note_on_c, 2, 64, 0
10, 71940, Note_on_c, 2, 55, 16
10, 71940, Note_on_c, 2, 60, 16
10, 71940, Note_on_c, 2, 64, 16
10, 71974, Note_on_c, 2, 60, 0
10, 71975, Note_on_c, 2, 64, 0
10, 71979, Note_on_c, 2, 55, 0
10, 72000, Note_on_c, 2, 55, 25
10, 72000, Note_on_c, 2, 64, 25
10, 72000, Note_on_c, 2, 60, 25
10, 72033, Note_on_c, 2, 60, 0
10, 72036, Note_on_c, 2, 64, 0
10, 72038, Note_on_c, 2, 55, 0
10, 72060, Note_on_c, 2, 55, 19
10, 72060, Note_on_c, 2, 64, 19
10, 72060, Note_on_c, 2, 60, 19
10, 72090, Note_on_c, 2, 60, 0
10, 72094, Note_on_c, 2, 64, 0
10, 72095, Note_on_c, 2, 55, 0
10, 72120, Note_on_c, 2, 55, 22
10, 72120, Note_on_c, 2, 64, 22
10, 72120, Note_on_c, 2, 60, 22
10, 72154, Note_on_c, 2, 60, 0
10, 72157, Note_on_c, 2, 55, 0
10, 72159, Note_on_c, 2, 64, 0
10, 72180, Note_on_c, 2, 55, 18
10, 72180, Note_on_c, 2, 64, 18
10, 72180, Note_on_c, 2, 60, 18
10, 72205, Note_on_c, 2, 60, 0
10, 72211, Note_on_c, 2, 64, 0
10, 72215, Note_on_c, 2, 55, 0
10, 72240, Note_on_c, 2, 55, 22
10, 72240, Note_on_c, 2, 64, 22
10, 72240, Note_on_c, 2, 60, 22
10, 72272, Note_on_c, 2, 60, 0
10, 72274, Note_on_c, 2, 64, 0
10, 72276, Note_on_c, 2, 55, 0
10, 72300, Note_on_c, 2, 55, 16
10, 72300, Note_on_c, 2, 64, 16
10, 72300, Note_on_c, 2, 60, 16
10, 72323, Note_on_c, 2, 60, 0
10, 72331, Note_on_c, 2, 64, 0
10, 72335, Note_on_c, 2, 55, 0
10, 72360, Note_on_c, 2, 55, 22
10, 72360, Note_on_c, 2, 60, 22
10, 72360, Note_on_c, 2, 64, 22
10, 72390, Note_on_c, 2, 60, 0
10, 72392, Note_on_c, 2, 64, 0
10, 72398, Note_on_c, 2, 55, 0
10, 72420, Note_on_c, 2, 55, 18
10, 72420, Note_on_c, 2, 60, 18
10, 72420, Note_on_c, 2, 64, 18
10, 72447, Note_on_c, 2, 64, 0
10, 72448, Note_on_c, 2, 60, 0
10, 72458, Note_on_c, 2, 55, 0
10, 72480, Note_on_c, 2, 57, 24
10, 72480, Note_on_c, 2, 65, 24
10, 72480, Note_on_c, 2, 62, 24
10, 72513, Note_on_c, 2, 57, 0
10, 72514, Note_on_c, 2, 62, 0
10, 72517, Note_on_c, 2, 65, 0
10, 72540, Note_on_c, 2, 65, 14
10, 72540, Note_on_c, 2, 57, 14
10, 72540, Note_on_c, 2, 62, 14
10, 72560, Note_on_c, 2, 62, 0
10, 72568, Note_on_c, 2, 57, 0
10, 72573, Note_on_c, 2, 65, 0
10, 72600, Note_on_c, 2, 57, 24
10, 72600, Note_on_c, 2, 65, 24
10, 72600, Note_on_c, 2, 62, 24
10, 72628, Note_on_c, 2, 62, 0
10, 72634, Note_on_c, 2, 57, 0
10, 72635, Note_on_c, 2, 65, 0
10, 72660, Note_on_c, 2, 65, 15
10, 72660, Note_on_c, 2, 57, 15
10, 72660, Note_on_c, 2, 62, 15
10, 72682, Note_on_c, 2, 62, 0
10, 72686, Note_on_c, 2, 57, 0
10, 72690, Note_on_c, 2, 65, 0
10, 72720, Note_on_c, 2, 65, 16
10, 72720, Note_on_c, 2, 57, 23
10, 72720, Note_on_c, 2, 62, 22
10, 72747, Note_on_c, 2, 62, 0
10, 72751, Note_on_c, 2, 57, 0
10, 72754, Note_on_c, 2, 65, 0
10, 72780, Note_on_c, 2, 65, 14
10, 72780, Note_on_c, 2, 57, 14
10, 72780, Note_on_c, 2, 62, 14
10, 72802, Note_on_c, 2, 62, 0
10, 72804, Note_on_c, 2, 57, 0
10, 72810, Note_on_c, 2, 65, 0
10, 72840, Note_on_c, 2, 65, 22
10, 72840, Note_on_c, 2, 57, 22
10, 72840, Note_on_c, 2, 62, 22
10, 72868, Note_on_c, 2, 62, 0
10, 72872, Note_on_c, 2, 57, 0
10, 72877, Note_on_c, 2, 65, 0
10, 72900, Note_on_c, 2, 65, 16
10, 72900, Note_on_c, 2, 57, 16
10, 72900, Note_on_c, 2, 62, 16
10, 72914, Note_on_c, 2, 62, 0
10, 72921, Note_on_c, 2, 57, 0
10, 72925, Note_on_c, 2, 65, 0
10, 72960, Note_on_c, 2, 58, 18
10, 72960, Note_on_c, 2, 65, 18
10, 72960, Note_on_c, 2, 62, 18
10, 72992, Note_on_c, 2, 62, 0
10, 72999, Note_on_c, 2, 65, 0
10, 72999, Note_on_c, 2, 58, 0
10, 73020, Note_on_c, 2, 65, 15
10, 73020, Note_on_c, 2, 58, 15
10, 73020, Note_on_c, 2, 62, 15
10, 73045, Note_on_c, 2, 62, 0
10, 73051, Note_on_c, 2, 58, 0
10, 73053, Note_on_c, 2, 65, 0
10, 73080, Note_on_c, 2, 58, 18
10, 73080, Note_on_c, 2, 65, 18
10, 73080, Note_on_c, 2, 62, 18
10, 73110, Note_on_c, 2, 62, 0
10, 73112, Note_on_c, 2, 58, 0
10, 73120, Note_on_c, 2, 65, 0
10, 73140, Note_on_c, 2, 58, 13
10, 73140, Note_on_c, 2, 65, 13
10, 73140, Note_on_c, 2, 62, 13
10, 73162, Note_on_c, 2, 62, 0
10, 73169, Note_on_c, 2, 58, 0
10, 73178, Note_on_c, 2, 65, 0
10, 73200, Note_on_c, 2, 58, 18
10, 73200, Note_on_c, 2, 62, 18
10, 73200, Note_on_c, 2, 65, 18
10, 73224, Note_on_c, 2, 62, 0
10, 73232, Note_on_c, 2, 65, 0
10, 73232, Note_on_c, 2, 58, 0
10, 73260, Note_on_c, 2, 58, 15
10, 73260, Note_on_c, 2, 65, 15
10, 73260, Note_on_c, 2, 62, 15
10, 73284, Note_on_c, 2, 62, 0
10, 73287, Note_on_c, 2, 58, 0
10, 73292, Note_on_c, 2, 65, 0
10, 73320, Note_on_c, 2, 58, 16
10, 73320, Note_on_c, 2, 65, 16
10, 73320, Note_on_c, 2, 62, 16
10, 73342, Note_on_c, 2, 62, 0
10, 73353, Note_on_c, 2, 65, 0
10, 73355, Note_on_c, 2, 58, 0
10, 73380, Note_on_c, 2, 58, 12
10, 73380, Note_on_c, 2, 65, 12
10, 73380, Note_on_c, 2, 62, 12
10, 73403, Note_on_c, 2, 62, 0
10, 73403, Note_on_c, 2, 65, 0
10, 73421, Note_on_c, 2, 58, 0
10, 73440, Note_on_c, 2, 60, 15
10, 73440, Note_on_c, 2, 64, 15
10, 73440, Note_on_c, 2, 55, 15
10, 73472, Note_on_c, 2, 55, 0
10, 73475, Note_on_c, 2, 60, 0
10, 73476, Note_on_c, 2, 64, 0
10, 73500, Note_on_c, 2, 55, 12
10, 73500, Note_on_c, 2, 64, 12
10, 73500, Note_on_c, 2, 60, 12
10, 73519, Note_on_c, 2, 60, 0
10, 73523, Note_on_c, 2, 55, 0
10, 73524, Note_on_c, 2, 64, 0
10, 73560, Note_on_c, 2, 55, 13
10, 73560, Note_on_c, 2, 64, 13
10, 73560, Note_on_c, 2, 60, 13
10, 73581, Note_on_c, 2, 60, 0
10, 73586, Note_on_c, 2, 64, 0
10, 73588, Note_on_c, 2, 55, 0
10, 73620, Note_on_c, 2, 55, 11
10, 73620, Note_on_c, 2, 64, 11
10, 73620, Note_on_c, 2, 60, 11
10, 73643, Note_on_c, 2, 60, 0
10, 73645, Note_on_c, 2, 64, 0
10, 73650, Note_on_c, 2, 55, 0
10, 73680, Note_on_c, 2, 55, 15
10, 73680, Note_on_c, 2, 60, 15
10, 73680, Note_on_c, 2, 64, 15
10, 73705, Note_on_c, 2, 60, 0
10, 73707, Note_on_c, 2, 64, 0
10, 73710, Note_on_c, 2, 55, 0
10, 73740, Note_on_c, 2, 55, 11
10, 73740, Note_on_c, 2, 60, 11
10, 73740, Note_on_c, 2, 64, 11
10, 73769, Note_on_c, 2, 60, 0
10, 73773, Note_on_c, 2, 64, 0
10, 73773, Note_on_c, 2, 55, 0
10, 73800, Note_on_c, 2, 55, 14
10, 73800, Note_on_c, 2, 64, 14
10, 73800, Note_on_c, 2, 60, 14
10, 73831, Note_on_c, 2, 55, 0
10, 73832, Note_on_c, 2, 60, 0
10, 73834, Note_on_c, 2, 64, 0
10, 73860, Note_on_c, 2, 55, 9
10, 73860, Note_on_c, 2, 60, 9
10, 73860, Note_on_c, 2, 64, 9
10, 73894, Note_on_c, 2, 60, 0
10, 73895, Note_on_c, 2, 64, 0
10, 73899, Note_on_c, 2, 55, 0
10, 73920, Note_on_c, 2, 55, 12
10, 73920, Note_on_c, 2, 64, 12
10, 73920, Note_on_c, 2, 60, 12
10, 73953, Note_on_c, 2, 60, 0
10, 73956, Note_on_c, 2, 64, 0
10, 73958, Note_on_c, 2, 55, 0
10, 73980, Note_on_c, 2, 55, 8
10, 73980, Note_on_c, 2, 64, 8
10, 73980, Note_on_c, 2, 60, 8
10, 74010, Note_on_c, 2, 60, 0
10, 74014, Note_on_c, 2, 64, 0
10, 74015, Note_on_c, 2, 55, 0
10, 74040, Note_on_c, 2, 55, 8
10, 74040, Note_on_c, 2, 64, 8
10, 74040, Note_on_c, 2, 60, 8
10, 74074, Note_on_c, 2, 60, 0
10, 74077, Note_on_c, 2, 55, 0
10, 74079, Note_on_c, 2, 64, 0
10, 74100, Note_on_c, 2, 55, 6
10, 74100, Note_on_c, 2, 64, 6
10, 74100, Note_on_c, 2, 60, 6
10, 74125, Note_on_c, 2, 60, 0
10, 74131, Note_on_c, 2, 64, 0
10, 74135, Note_on_c, 2, 55, 0
10, 74160, Note_on_c, 2, 55, 7
10, 74160, Note_on_c, 2, 64, 7
10, 74160, Note_on_c, 2, 60, 7
10, 74192, Note_on_c, 2, 60, 0
10, 74194, Note_on_c, 2, 64, 0
10, 74196, Note_on_c, 2, 55, 0
10, 74220, Note_on_c, 2, 55, 4
10, 74220, Note_on_c, 2, 64, 4
10, 74220, Note_on_c, 2, 60, 4
10, 74243, Note_on_c, 2, 60, 0
10, 74251, Note_on_c, 2, 64, 0
10, 74255, Note_on_c, 2, 55, 0
10, 74280, Note_on_c, 2, 55, 5
10, 74280, Note_on_c, 2, 60, 5
10, 74280, Note_on_c, 2, 64, 5
10, 74310, Note_on_c, 2, 60, 0
10, 74312, Note_on_c, 2, 64, 0
10, 74318, Note_on_c, 2, 55, 0
10, 74340, Note_on_c, 2, 55, 3
10, 74340, Note_on_c, 2, 60, 3
10, 74340, Note_on_c, 2, 64, 3
10, 74367, Note_on_c, 2, 64, 0
10, 74368, Note_on_c, 2, 60, 0
10, 74378, Note_on_c, 2, 55, 0
10, 74400, Note_on_c, 2, 57, 5
10, 74400, Note_on_c, 2, 65, 5
10, 74400, Note_on_c, 2, 62, 5
10, 74433, Note_on_c, 2, 57, 0
10, 74434, Note_on_c, 2, 62, 0
10, 74437, Note_on_c, 2, 65, 0
10, 74460, Note_on_c, 2, 65, 2
10, 74460, Note_on_c, 2, 57, 2
10, 74460, Note_on_c, 2, 62, 2
10, 74480, Note_on_c, 2, 62, 0
10, 74488, Note_on_c, 2, 57, 0
10, 74493, Note_on_c, 2, 65, 0
10, 74520, Note_on_c, 2, 57, 4
10, 74520, Note_on_c, 2, 65, 4
10, 74520, Note_on_c, 2, 62, 4
10, 74548, Note_on_c, 2, 62, 0
10, 74554, Note_on_c, 2, 57, 0
10, 74555, Note_on_c, 2, 65, 0
10, 74580, Note_on_c, 2, 65, 2
10, 74580, Note_on_c, 2, 57, 2
10, 74580, Note_on_c, 2, 62, 2
10, 74602, Note_on_c, 2, 62, 0
10, 74606, Note_on_c, 2, 57, 0
10, 74610, Note_on_c, 2, 65, 0
10, 74640, Note_on_c, 2, 65, 2
10, 74640, Note_on_c, 2, 57, 3
10, 74640, Note_on_c, 2, 62, 3
10, 74667, Note_on_c, 2, 62, 0
10, 74671, Note_on_c, 2, 57, 0
10, 74674, Note_on_c, 2, 65, 0
10, 74700, Note_on_c, 2, 65, 1
10, 74700, Note_on_c, 2, 57, 1
10, 74700, Note_on_c, 2, 62, 1
10, 74722, Note_on_c, 2, 62, 0
10, 74724, Note_on_c, 2, 57, 0
10, 74730, Note_on_c, 2, 65, 0
10, 74760, Note_on_c, 2, 65, 2
10, 74760, Note_on_c, 2, 57, 2
10, 74760, Note_on_c, 2, 62, 2
10, 74788, Note_on_c, 2, 62, 0
10, 74792, Note_on_c, 2, 57, 0
10, 74797, Note_on_c, 2, 65, 0
10, 74820, Note_on_c, 2, 65, 1
10, 74820, Note_on_c, 2, 57, 1
10, 74820, Note_on_c, 2, 62, 1
10, 74834, Note_on_c, 2, 62, 0
10, 74841, Note_on_c, 2, 57, 0
10, 74845, Note_on_c, 2, 65, 0
10, 74880, Note_on_c, 2, 58, 2
10, 74880, Note_on_c, 2, 65, 2
10, 74880, Note_on_c, 2, 62, 2
10, 74912, Note_on_c, 2, 62, 0
10, 74919, Note_on_c, 2, 65, 0
10, 74919, Note_on_c, 2, 58, 0
10, 75000, Note_on_c, 2, 58, 1
10, 75000, Note_on_c, 2, 65, 1
10, 75000, Note_on_c, 2, 62, 1
10, 75030, Note_on_c, 2, 62, 0
10, 75032, Note_on_c, 2, 58, 0
10, 75040, Note_on_c, 2, 65, 0
10, 75040, End_track
11, 0, Start_track
11, 67, Control_c, 3, 1, 0
11, 134, Control_c, 3, 64, 0
11, 135, Control_c, 3, 0, 0
11, 136, Control_c, 3, 32, 3
11, 137, Program_c, 3, 34
11, 138, Control_c, 3, 7, 94
11, 138, Control_c, 3, 10, 74
11, 189, Control_c, 3, 0, 0
11, 190, Control_c, 3, 32, 0
11, 191, Program_c, 3, 34
11, 194, Control_c, 3, 0, 0
11, 195, Control_c, 3, 32, 3
11, 196, Program_c, 3, 34
11, 201, Control_c, 3, 11, 127
11, 268, Pitch_bend_c, 3, 8192
11, 335, Control_c, 3, 91, 30
11, 402, Control_c, 3, 93, 40
11, 469, Control_c, 3, 94, 0
11, 480, Lyric_t, ". "
11, 480, Lyric_t, "\015"
11, 960, Note_on_c, 3, 29, 45
11, 983, Note_on_c, 3, 29, 0
11, 1020, Note_on_c, 3, 29, 46
11, 1043, Note_on_c, 3, 29, 0
11, 1080, Note_on_c, 3, 29, 47
11, 1105, Note_on_c, 3, 29, 0
11, 1140, Note_on_c, 3, 29, 48
11, 1164, Note_on_c, 3, 29, 0
11, 1200, Note_on_c, 3, 29, 49
11, 1225, Note_on_c, 3, 29, 0
11, 1260, Note_on_c, 3, 29, 51
11, 1287, Note_on_c, 3, 29, 0
11, 1320, Note_on_c, 3, 29, 52
11, 1346, Note_on_c, 3, 29, 0
11, 1380, Note_on_c, 3, 29, 53
11, 1407, Note_on_c, 3, 29, 0
11, 1440, Note_on_c, 3, 29, 54
11, 1470, Note_on_c, 3, 29, 0
11, 1500, Note_on_c, 3, 29, 55
11, 1526, Note_on_c, 3, 29, 0
11, 1560, Note_on_c, 3, 29, 56
11, 1589, Note_on_c, 3, 29, 0
11, 1620, Note_on_c, 3, 29, 58
11, 1649, Note_on_c, 3, 29, 0
11, 1680, Note_on_c, 3, 29, 59
11, 1710, Note_on_c, 3, 29, 0
11, 1740, Note_on_c, 3, 29, 60
11, 1766, Note_on_c, 3, 29, 0
11, 1800, Note_on_c, 3, 29, 61
11, 1827, Note_on_c, 3, 29, 0
11, 1860, Note_on_c, 3, 29, 62
11, 1886, Note_on_c, 3, 29, 0
11, 1920, Note_on_c, 3, 29, 63
11, 1946, Note_on_c, 3, 29, 0
11, 1980, Note_on_c, 3, 29, 65
11, 2007, Note_on_c, 3, 29, 0
11, 2040, Note_on_c, 3, 29, 66
11, 2068, Note_on_c, 3, 29, 0
11, 2100, Note_on_c, 3, 29, 67
11, 2131, Note_on_c, 3, 29, 0
11, 2160, Note_on_c, 3, 29, 68
11, 2185, Note_on_c, 3, 29, 0
11, 2220, Note_on_c, 3, 29, 69
11, 2247, Note_on_c, 3, 29, 0
11, 2280, Note_on_c, 3, 29, 71
11, 2306, Note_on_c, 3, 29, 0
11, 2340, Note_on_c, 3, 29, 72
11, 2365, Note_on_c, 3, 29, 0
11, 2400, Note_on_c, 3, 29, 73
11, 2430, Note_on_c, 3, 29, 0
11, 2460, Note_on_c, 3, 29, 74
11, 2485, Note_on_c, 3, 29, 0
11, 2520, Note_on_c, 3, 29, 75
11, 2547, Note_on_c, 3, 29, 0
11, 2580, Note_on_c, 3, 29, 76
11, 2609, Note_on_c, 3, 29, 0
11, 2640, Note_on_c, 3, 29, 78
11, 2663, Note_on_c, 3, 29, 0
11, 2700, Note_on_c, 3, 29, 79
11, 2725, Note_on_c, 3, 29, 0
11, 2760, Note_on_c, 3, 29, 80
11, 2788, Note_on_c, 3, 29, 0
11, 2820, Note_on_c, 3, 29, 81
11, 2854, Note_on_c, 3, 29, 0
11, 2880, Note_on_c, 3, 29, 82
11, 2904, Note_on_c, 3, 29, 0
11, 2940, Note_on_c, 3, 29, 83
11, 2963, Note_on_c, 3, 29, 0
11, 3000, Note_on_c, 3, 29, 85
11, 3026, Note_on_c, 3, 29, 0
11, 3060, Note_on_c, 3, 29, 86
11, 3085, Note_on_c, 3, 29, 0
11, 3120, Note_on_c, 3, 29, 87
11, 3148, Note_on_c, 3, 29, 0
11, 3180, Note_on_c, 3, 29, 88
11, 3208, Note_on_c, 3, 29, 0
11, 3240, Note_on_c, 3, 29, 89
11, 3267, Note_on_c, 3, 29, 0
11, 3300, Note_on_c, 3, 29, 91
11, 3332, Note_on_c, 3, 29, 0
11, 3360, Note_on_c, 3, 36, 92
11, 3381, Note_on_c, 3, 36, 0
11, 3419, Note_on_c, 3, 36, 71
11, 3441, Note_on_c, 3, 36, 0
11, 3479, Note_on_c, 3, 36, 69
11, 3508, Note_on_c, 3, 36, 0
11, 3539, Note_on_c, 3, 36, 73
11, 3569, Note_on_c, 3, 36, 0
11, 3601, Note_on_c, 3, 36, 79
11, 3629, Note_on_c, 3, 36, 0
11, 3659, Note_on_c, 3, 36, 81
11, 3690, Note_on_c, 3, 36, 0
11, 3719, Note_on_c, 3, 36, 87
11, 3747, Note_on_c, 3, 36, 0
11, 3778, Note_on_c, 3, 36, 91
11, 3803, Note_on_c, 3, 36, 0
11, 3840, Note_on_c, 3, 34, 101
11, 3877, Note_on_c, 3, 34, 0
11, 3900, Note_on_c, 3, 34, 77
11, 3946, Note_on_c, 3, 34, 0
11, 3960, Note_on_c, 3, 34, 84
11, 3998, Note_on_c, 3, 34, 0
11, 4020, Note_on_c, 3, 34, 79
11, 4071, Note_on_c, 3, 34, 0
11, 4080, Note_on_c, 3, 34, 98
11, 4116, Note_on_c, 3, 34, 0
11, 4140, Note_on_c, 3, 34, 83
11, 4181, Note_on_c, 3, 34, 0
11, 4200, Note_on_c, 3, 34, 80
11, 4235, Note_on_c, 3, 34, 0
11, 4260, Note_on_c, 3, 34, 89
11, 4297, Note_on_c, 3, 34, 0
11, 4320, Note_on_c, 3, 34, 98
11, 4357, Note_on_c, 3, 34, 0
11, 4380, Note_on_c, 3, 34, 82
11, 4420, Note_on_c, 3, 34, 0
11, 4440, Note_on_c, 3, 34, 84
11, 4480, Note_on_c, 3, 34, 0
11, 4500, Note_on_c, 3, 34, 95
11, 4542, Note_on_c, 3, 34, 0
11, 4560, Note_on_c, 3, 34, 95
11, 4597, Note_on_c, 3, 34, 0
11, 4620, Note_on_c, 3, 34, 82
11, 4663, Note_on_c, 3, 34, 0
11, 4680, Note_on_c, 3, 34, 78
11, 4720, Note_on_c, 3, 34, 0
11, 4740, Note_on_c, 3, 34, 84
11, 4784, Note_on_c, 3, 34, 0
11, 4800, Note_on_c, 3, 34, 98
11, 4841, Note_on_c, 3, 34, 0
11, 4860, Note_on_c, 3, 34, 94
11, 4900, Note_on_c, 3, 34, 0
11, 4920, Note_on_c, 3, 34, 82
11, 4963, Note_on_c, 3, 34, 0
11, 4980, Note_on_c, 3, 34, 98
11, 5020, Note_on_c, 3, 34, 0
11, 5040, Note_on_c, 3, 34, 86
11, 5081, Note_on_c, 3, 34, 0
11, 5100, Note_on_c, 3, 34, 86
11, 5139, Note_on_c, 3, 34, 0
11, 5160, Note_on_c, 3, 34, 77
11, 5201, Note_on_c, 3, 34, 0
11, 5220, Note_on_c, 3, 34, 96
11, 5262, Note_on_c, 3, 34, 0
11, 5280, Note_on_c, 3, 29, 89
11, 5306, Note_on_c, 3, 29, 0
11, 5340, Note_on_c, 3, 29, 92
11, 5367, Note_on_c, 3, 29, 0
11, 5400, Note_on_c, 3, 29, 88
11, 5428, Note_on_c, 3, 29, 0
11, 5460, Note_on_c, 3, 29, 85
11, 5491, Note_on_c, 3, 29, 0
11, 5520, Note_on_c, 3, 29, 85
11, 5545, Note_on_c, 3, 29, 0
11, 5580, Note_on_c, 3, 29, 91
11, 5607, Note_on_c, 3, 29, 0
11, 5640, Note_on_c, 3, 29, 91
11, 5666, Note_on_c, 3, 29, 0
11, 5700, Note_on_c, 3, 29, 91
11, 5725, Note_on_c, 3, 29, 0
11, 5760, Note_on_c, 3, 29, 91
11, 5790, Note_on_c, 3, 29, 0
11, 5820, Note_on_c, 3, 29, 91
11, 5845, Note_on_c, 3, 29, 0
11, 5880, Note_on_c, 3, 29, 91
11, 5907, Note_on_c, 3, 29, 0
11, 5940, Note_on_c, 3, 29, 91
11, 5969, Note_on_c, 3, 29, 0
11, 6000, Note_on_c, 3, 29, 91
11, 6023, Note_on_c, 3, 29, 0
11, 6060, Note_on_c, 3, 29, 91
11, 6085, Note_on_c, 3, 29, 0
11, 6120, Note_on_c, 3, 29, 91
11, 6148, Note_on_c, 3, 29, 0
11, 6180, Note_on_c, 3, 29, 81
11, 6214, Note_on_c, 3, 29, 0
11, 6240, Note_on_c, 3, 29, 80
11, 6266, Note_on_c, 3, 29, 0
11, 6300, Note_on_c, 3, 29, 82
11, 6327, Note_on_c, 3, 29, 0
11, 6360, Note_on_c, 3, 29, 92
11, 6388, Note_on_c, 3, 29, 0
11, 6420, Note_on_c, 3, 29, 92
11, 6451, Note_on_c, 3, 29, 0
11, 6480, Note_on_c, 3, 29, 91
11, 6505, Note_on_c, 3, 29, 0
11, 6540, Note_on_c, 3, 29, 91
11, 6567, Note_on_c, 3, 29, 0
11, 6600, Note_on_c, 3, 29, 90
11, 6626, Note_on_c, 3, 29, 0
11, 6660, Note_on_c, 3, 29, 90
11, 6685, Note_on_c, 3, 29, 0
11, 6720, Note_on_c, 3, 29, 89
11, 6750, Note_on_c, 3, 29, 0
11, 6780, Note_on_c, 3, 29, 89
11, 6805, Note_on_c, 3, 29, 0
11, 6840, Note_on_c, 3, 29, 88
11, 6867, Note_on_c, 3, 29, 0
11, 6900, Note_on_c, 3, 29, 86
11, 6929, Note_on_c, 3, 29, 0
11, 6960, Note_on_c, 3, 29, 86
11, 6983, Note_on_c, 3, 29, 0
11, 7020, Note_on_c, 3, 29, 89
11, 7045, Note_on_c, 3, 29, 0
11, 7080, Note_on_c, 3, 29, 90
11, 7108, Note_on_c, 3, 29, 0
11, 7140, Note_on_c, 3, 29, 90
11, 7174, Note_on_c, 3, 29, 0
11, 7200, Note_on_c, 3, 29, 90
11, 7224, Note_on_c, 3, 29, 0
11, 7260, Note_on_c, 3, 29, 90
11, 7283, Note_on_c, 3, 29, 0
11, 7320, Note_on_c, 3, 29, 85
11, 7346, Note_on_c, 3, 29, 0
11, 7380, Note_on_c, 3, 29, 86
11, 7405, Note_on_c, 3, 29, 0
11, 7440, Note_on_c, 3, 29, 87
11, 7468, Note_on_c, 3, 29, 0
11, 7500, Note_on_c, 3, 29, 88
11, 7528, Note_on_c, 3, 29, 0
11, 7560, Note_on_c, 3, 29, 89
11, 7587, Note_on_c, 3, 29, 0
11, 7620, Note_on_c, 3, 29, 91
11, 7652, Note_on_c, 3, 29, 0
11, 7680, Note_on_c, 3, 36, 92
11, 7701, Note_on_c, 3, 36, 0
11, 7739, Note_on_c, 3, 36, 88
11, 7761, Note_on_c, 3, 36, 0
11, 7799, Note_on_c, 3, 36, 88
11, 7828, Note_on_c, 3, 36, 0
11, 7859, Note_on_c, 3, 36, 88
11, 7889, Note_on_c, 3, 36, 0
11, 7921, Note_on_c, 3, 36, 88
11, 7949, Note_on_c, 3, 36, 0
11, 7979, Note_on_c, 3, 36, 81
11, 8010, Note_on_c, 3, 36, 0
11, 8039, Note_on_c, 3, 36, 87
11, 8067, Note_on_c, 3, 36, 0
11, 8098, Note_on_c, 3, 36, 91
11, 8123, Note_on_c, 3, 36, 0
11, 8160, Note_on_c, 3, 34, 101
11, 8197, Note_on_c, 3, 34, 0
11, 8220, Note_on_c, 3, 34, 77
11, 8266, Note_on_c, 3, 34, 0
11, 8280, Note_on_c, 3, 34, 84
11, 8318, Note_on_c, 3, 34, 0
11, 8340, Note_on_c, 3, 34, 79
11, 8391, Note_on_c, 3, 34, 0
11, 8400, Note_on_c, 3, 34, 98
11, 8436, Note_on_c, 3, 34, 0
11, 8460, Note_on_c, 3, 34, 83
11, 8501, Note_on_c, 3, 34, 0
11, 8520, Note_on_c, 3, 34, 80
11, 8555, Note_on_c, 3, 34, 0
11, 8580, Note_on_c, 3, 34, 89
11, 8617, Note_on_c, 3, 34, 0
11, 8640, Note_on_c, 3, 34, 98
11, 8677, Note_on_c, 3, 34, 0
11, 8700, Note_on_c, 3, 34, 82
11, 8740, Note_on_c, 3, 34, 0
11, 8760, Note_on_c, 3, 34, 84
11, 8800, Note_on_c, 3, 34, 0
11, 8820, Note_on_c, 3, 34, 95
11, 8862, Note_on_c, 3, 34, 0
11, 8880, Note_on_c, 3, 34, 95
11, 8917, Note_on_c, 3, 34, 0
11, 8940, Note_on_c, 3, 34, 82
11, 8983, Note_on_c, 3, 34, 0
11, 9000, Note_on_c, 3, 34, 87
11, 9040, Note_on_c, 3, 34, 0
11, 9060, Note_on_c, 3, 34, 84
11, 9104, Note_on_c, 3, 34, 0
11, 9120, Note_on_c, 3, 34, 98
11, 9161, Note_on_c, 3, 34, 0
11, 9180, Note_on_c, 3, 34, 94
11, 9220, Note_on_c, 3, 34, 0
11, 9240, Note_on_c, 3, 34, 82
11, 9283, Note_on_c, 3, 34, 0
11, 9300, Note_on_c, 3, 34, 98
11, 9340, Note_on_c, 3, 34, 0
11, 9360, Note_on_c, 3, 34, 86
11, 9401, Note_on_c, 3, 34, 0
11, 9420, Note_on_c, 3, 34, 86
11, 9459, Note_on_c, 3, 34, 0
11, 9480, Note_on_c, 3, 34, 77
11, 9521, Note_on_c, 3, 34, 0
11, 9540, Note_on_c, 3, 34, 96
11, 9582, Note_on_c, 3, 34, 0
11, 9600, Note_on_c, 3, 29, 81
11, 9626, Note_on_c, 3, 29, 0
11, 9660, Note_on_c, 3, 29, 83
11, 9687, Note_on_c, 3, 29, 0
11, 9720, Note_on_c, 3, 29, 84
11, 9748, Note_on_c, 3, 29, 0
11, 9780, Note_on_c, 3, 29, 89
11, 9811, Note_on_c, 3, 29, 0
11, 9840, Note_on_c, 3, 29, 88
11, 9865, Note_on_c, 3, 29, 0
11, 9900, Note_on_c, 3, 29, 83
11, 9927, Note_on_c, 3, 29, 0
11, 9960, Note_on_c, 3, 29, 83
11, 9986, Note_on_c, 3, 29, 0
11, 10020, Note_on_c, 3, 29, 72
11, 10045, Note_on_c, 3, 29, 0
11, 10080, Note_on_c, 3, 38, 94
11, 10258, Note_on_c, 3, 38, 0
11, 10259, Note_on_c, 3, 41, 84
11, 10321, Note_on_c, 3, 40, 100
11, 10326, Note_on_c, 3, 41, 0
11, 10380, Note_on_c, 3, 40, 0
11, 10380, Note_on_c, 3, 38, 84
11, 10441, Note_on_c, 3, 38, 0
11, 10441, Note_on_c, 3, 36, 98
11, 10491, Note_on_c, 3, 36, 0
11, 10501, Note_on_c, 3, 33, 94
11, 10552, Note_on_c, 3, 33, 0
11, 10561, Note_on_c, 3, 34, 92
11, 10742, Note_on_c, 3, 43, 95
11, 10745, Note_on_c, 3, 34, 0
11, 10859, Note_on_c, 3, 41, 85
11, 10860, Note_on_c, 3, 43, 0
11, 10918, Note_on_c, 3, 41, 0
11, 10919, Note_on_c, 3, 40, 93
11, 10975, Note_on_c, 3, 40, 0
11, 10979, Note_on_c, 3, 38, 85
11, 11030, Note_on_c, 3, 38, 0
11, 11041, Note_on_c, 3, 36, 96
11, 11074, Note_on_c, 3, 36, 0
11, 11101, Note_on_c, 3, 36, 77
11, 11121, Note_on_c, 3, 36, 0
11, 11161, Note_on_c, 3, 36, 91
11, 11182, Note_on_c, 3, 36, 0
11, 11218, Note_on_c, 3, 36, 93
11, 11305, Note_on_c, 3, 36, 0
11, 11339, Note_on_c, 3, 36, 93
11, 11361, Note_on_c, 3, 36, 0
11, 11399, Note_on_c, 3, 36, 86
11, 11425, Note_on_c, 3, 36, 0
11, 11458, Note_on_c, 3, 36, 94
11, 11483, Note_on_c, 3, 36, 0
11, 11519, Note_on_c, 3, 36, 97
11, 11611, Note_on_c, 3, 36, 0
11, 11639, Note_on_c, 3, 36, 104
11, 11692, Note_on_c, 3, 36, 0
11, 11699, Note_on_c, 3, 45, 97
11, 11818, Note_on_c, 3, 43, 93
11, 11822, Note_on_c, 3, 45, 0
11, 11879, Note_on_c, 3, 41, 93
11, 11883, Note_on_c, 3, 43, 0
11, 11937, Note_on_c, 3, 41, 0
11, 11938, Note_on_c, 3, 40, 97
11, 11997, Note_on_c, 3, 40, 0
11, 12001, Note_on_c, 3, 38, 94
11, 12179, Note_on_c, 3, 38, 0
11, 12179, Note_on_c, 3, 41, 84
11, 12241, Note_on_c, 3, 40, 100
11, 12246, Note_on_c, 3, 41, 0
11, 12300, Note_on_c, 3, 40, 0
11, 12300, Note_on_c, 3, 38, 84
11, 12361, Note_on_c, 3, 38, 0
11, 12361, Note_on_c, 3, 36, 98
11, 12411, Note_on_c, 3, 36, 0
11, 12421, Note_on_c, 3, 33, 94
11, 12472, Note_on_c, 3, 33, 0
11, 12481, Note_on_c, 3, 34, 92
11, 12662, Note_on_c, 3, 43, 95
11, 12665, Note_on_c, 3, 34, 0
11, 12779, Note_on_c, 3, 41, 85
11, 12780, Note_on_c, 3, 43, 0
11, 12838, Note_on_c, 3, 41, 0
11, 12839, Note_on_c, 3, 40, 93
11, 12895, Note_on_c, 3, 40, 0
11, 12899, Note_on_c, 3, 38, 85
11, 12950, Note_on_c, 3, 38, 0
11, 12961, Note_on_c, 3, 36, 96
11, 12994, Note_on_c, 3, 36, 0
11, 13021, Note_on_c, 3, 36, 77
11, 13041, Note_on_c, 3, 36, 0
11, 13081, Note_on_c, 3, 36, 91
11, 13102, Note_on_c, 3, 36, 0
11, 13138, Note_on_c, 3, 36, 93
11, 13225, Note_on_c, 3, 36, 0
11, 13259, Note_on_c, 3, 36, 93
11, 13281, Note_on_c, 3, 36, 0
11, 13319, Note_on_c, 3, 36, 86
11, 13345, Note_on_c, 3, 36, 0
11, 13378, Note_on_c, 3, 36, 94
11, 13403, Note_on_c, 3, 36, 0
11, 13439, Note_on_c, 3, 36, 97
11, 13531, Note_on_c, 3, 36, 0
11, 13559, Note_on_c, 3, 36, 104
11, 13612, Note_on_c, 3, 36, 0
11, 13619, Note_on_c, 3, 45, 97
11, 13738, Note_on_c, 3, 43, 93
11, 13742, Note_on_c, 3, 45, 0
11, 13799, Note_on_c, 3, 41, 93
11, 13803, Note_on_c, 3, 43, 0
11, 13857, Note_on_c, 3, 41, 0
11, 13858, Note_on_c, 3, 40, 97
11, 13917, Note_on_c, 3, 40, 0
11, 13921, Note_on_c, 3, 38, 94
11, 14099, Note_on_c, 3, 38, 0
11, 14099, Note_on_c, 3, 41, 84
11, 14161, Note_on_c, 3, 40, 100
11, 14166, Note_on_c, 3, 41, 0
11, 14220, Note_on_c, 3, 40, 0
11, 14220, Note_on_c, 3, 38, 84
11, 14281, Note_on_c, 3, 38, 0
11, 14281, Note_on_c, 3, 36, 98
11, 14331, Note_on_c, 3, 36, 0
11, 14341, Note_on_c, 3, 33, 94
11, 14392, Note_on_c, 3, 33, 0
11, 14401, Note_on_c, 3, 34, 92
11, 14582, Note_on_c, 3, 43, 95
11, 14585, Note_on_c, 3, 34, 0
11, 14699, Note_on_c, 3, 41, 85
11, 14700, Note_on_c, 3, 43, 0
11, 14758, Note_on_c, 3, 41, 0
11, 14759, Note_on_c, 3, 40, 93
11, 14815, Note_on_c, 3, 40, 0
11, 14819, Note_on_c, 3, 38, 85
11, 14870, Note_on_c, 3, 38, 0
11, 14881, Note_on_c, 3, 36, 96
11, 14914, Note_on_c, 3, 36, 0
11, 14941, Note_on_c, 3, 36, 77
11, 14961, Note_on_c, 3, 36, 0
11, 15001, Note_on_c, 3, 36, 91
11, 15022, Note_on_c, 3, 36, 0
11, 15058, Note_on_c, 3, 36, 93
11, 15145, Note_on_c, 3, 36, 0
11, 15179, Note_on_c, 3, 36, 93
11, 15201, Note_on_c, 3, 36, 0
11, 15239, Note_on_c, 3, 36, 86
11, 15265, Note_on_c, 3, 36, 0
11, 15298, Note_on_c, 3, 36, 94
11, 15323, Note_on_c, 3, 36, 0
11, 15360, Note_on_c, 3, 36, 97
11, 15452, Note_on_c, 3, 36, 0
11, 15479, Note_on_c, 3, 36, 104
11, 15589, Note_on_c, 3, 36, 0
11, 15601, Note_on_c, 3, 36, 106
11, 15648, Note_on_c, 3, 36, 0
11, 15661, Note_on_c, 3, 36, 94
11, 15719, Note_on_c, 3, 36, 0
11, 15719, Note_on_c, 3, 33, 106
11, 15778, Note_on_c, 3, 33, 0
11, 15778, Note_on_c, 3, 31, 101
11, 15838, Note_on_c, 3, 31, 0
11, 15840, Note_on_c, 3, 29, 63
11, 15866, Note_on_c, 3, 29, 0
11, 15900, Note_on_c, 3, 29, 65
11, 15927, Note_on_c, 3, 29, 0
11, 15960, Note_on_c, 3, 29, 66
11, 15988, Note_on_c, 3, 29, 0
11, 16020, Note_on_c, 3, 29, 67
11, 16051, Note_on_c, 3, 29, 0
11, 16080, Note_on_c, 3, 29, 68
11, 16105, Note_on_c, 3, 29, 0
11, 16140, Note_on_c, 3, 29, 69
11, 16167, Note_on_c, 3, 29, 0
11, 16200, Note_on_c, 3, 29, 71
11, 16226, Note_on_c, 3, 29, 0
11, 16260, Note_on_c, 3, 29, 72
11, 16285, Note_on_c, 3, 29, 0
11, 16320, Note_on_c, 3, 29, 73
11, 16350, Note_on_c, 3, 29, 0
11, 16380, Note_on_c, 3, 29, 74
11, 16405, Note_on_c, 3, 29, 0
11, 16440, Note_on_c, 3, 29, 75
11, 16467, Note_on_c, 3, 29, 0
11, 16500, Note_on_c, 3, 29, 76
11, 16529, Note_on_c, 3, 29, 0
11, 16560, Note_on_c, 3, 29, 78
11, 16583, Note_on_c, 3, 29, 0
11, 16620, Note_on_c, 3, 29, 79
11, 16645, Note_on_c, 3, 29, 0
11, 16680, Note_on_c, 3, 29, 80
11, 16708, Note_on_c, 3, 29, 0
11, 16740, Note_on_c, 3, 29, 81
11, 16774, Note_on_c, 3, 29, 0
11, 16800, Note_on_c, 3, 29, 82
11, 16824, Note_on_c, 3, 29, 0
11, 16860, Note_on_c, 3, 29, 83
11, 16883, Note_on_c, 3, 29, 0
11, 16920, Note_on_c, 3, 29, 85
11, 16946, Note_on_c, 3, 29, 0
11, 16980, Note_on_c, 3, 29, 86
11, 17005, Note_on_c, 3, 29, 0
11, 17040, Note_on_c, 3, 29, 87
11, 17068, Note_on_c, 3, 29, 0
11, 17100, Note_on_c, 3, 29, 88
11, 17128, Note_on_c, 3, 29, 0
11, 17160, Note_on_c, 3, 29, 89
11, 17187, Note_on_c, 3, 29, 0
11, 17220, Note_on_c, 3, 29, 91
11, 17252, Note_on_c, 3, 29, 0
11, 17280, Note_on_c, 3, 36, 92
11, 17301, Note_on_c, 3, 36, 0
11, 17339, Note_on_c, 3, 36, 71
11, 17361, Note_on_c, 3, 36, 0
11, 17399, Note_on_c, 3, 36, 69
11, 17428, Note_on_c, 3, 36, 0
11, 17459, Note_on_c, 3, 36, 73
11, 17489, Note_on_c, 3, 36, 0
11, 17521, Note_on_c, 3, 36, 79
11, 17549, Note_on_c, 3, 36, 0
11, 17579, Note_on_c, 3, 36, 81
11, 17610, Note_on_c, 3, 36, 0
11, 17639, Note_on_c, 3, 36, 87
11, 17667, Note_on_c, 3, 36, 0
11, 17698, Note_on_c, 3, 36, 91
11, 17723, Note_on_c, 3, 36, 0
11, 17760, Note_on_c, 3, 34, 101
11, 17797, Note_on_c, 3, 34, 0
11, 17820, Note_on_c, 3, 34, 77
11, 17866, Note_on_c, 3, 34, 0
11, 17880, Note_on_c, 3, 34, 84
11, 17918, Note_on_c, 3, 34, 0
11, 17940, Note_on_c, 3, 34, 79
11, 17991, Note_on_c, 3, 34, 0
11, 18000, Note_on_c, 3, 34, 98
11, 18036, Note_on_c, 3, 34, 0
11, 18060, Note_on_c, 3, 34, 83
11, 18101, Note_on_c, 3, 34, 0
11, 18120, Note_on_c, 3, 34, 80
11, 18155, Note_on_c, 3, 34, 0
11, 18180, Note_on_c, 3, 34, 89
11, 18217, Note_on_c, 3, 34, 0
11, 18240, Note_on_c, 3, 34, 98
11, 18277, Note_on_c, 3, 34, 0
11, 18300, Note_on_c, 3, 34, 82
11, 18340, Note_on_c, 3, 34, 0
11, 18360, Note_on_c, 3, 34, 84
11, 18400, Note_on_c, 3, 34, 0
11, 18420, Note_on_c, 3, 34, 95
11, 18462, Note_on_c, 3, 34, 0
11, 18480, Note_on_c, 3, 34, 95
11, 18517, Note_on_c, 3, 34, 0
11, 18540, Note_on_c, 3, 34, 82
11, 18583, Note_on_c, 3, 34, 0
11, 18600, Note_on_c, 3, 34, 78
11, 18640, Note_on_c, 3, 34, 0
11, 18660, Note_on_c, 3, 34, 84
11, 18704, Note_on_c, 3, 34, 0
11, 18720, Note_on_c, 3, 34, 98
11, 18761, Note_on_c, 3, 34, 0
11, 18780, Note_on_c, 3, 34, 94
11, 18820, Note_on_c, 3, 34, 0
11, 18840, Note_on_c, 3, 34, 82
11, 18883, Note_on_c, 3, 34, 0
11, 18900, Note_on_c, 3, 34, 98
11, 18940, Note_on_c, 3, 34, 0
11, 18960, Note_on_c, 3, 34, 86
11, 19001, Note_on_c, 3, 34, 0
11, 19020, Note_on_c, 3, 34, 86
11, 19059, Note_on_c, 3, 34, 0
11, 19080, Note_on_c, 3, 34, 77
11, 19121, Note_on_c, 3, 34, 0
11, 19140, Note_on_c, 3, 34, 96
11, 19182, Note_on_c, 3, 34, 0
11, 19200, Note_on_c, 3, 29, 89
11, 19226, Note_on_c, 3, 29, 0
11, 19260, Note_on_c, 3, 29, 92
11, 19287, Note_on_c, 3, 29, 0
11, 19320, Note_on_c, 3, 29, 88
11, 19348, Note_on_c, 3, 29, 0
11, 19380, Note_on_c, 3, 29, 85
11, 19411, Note_on_c, 3, 29, 0
11, 19440, Note_on_c, 3, 29, 85
11, 19465, Note_on_c, 3, 29, 0
11, 19500, Note_on_c, 3, 29, 91
11, 19527, Note_on_c, 3, 29, 0
11, 19560, Note_on_c, 3, 29, 91
11, 19586, Note_on_c, 3, 29, 0
11, 19620, Note_on_c, 3, 29, 91
11, 19645, Note_on_c, 3, 29, 0
11, 19680, Note_on_c, 3, 29, 91
11, 19710, Note_on_c, 3, 29, 0
11, 19740, Note_on_c, 3, 29, 91
11, 19765, Note_on_c, 3, 29, 0
11, 19800, Note_on_c, 3, 29, 91
11, 19827, Note_on_c, 3, 29, 0
11, 19860, Note_on_c, 3, 29, 91
11, 19889, Note_on_c, 3, 29, 0
11, 19920, Note_on_c, 3, 29, 91
11, 19943, Note_on_c, 3, 29, 0
11, 19980, Note_on_c, 3, 29, 91
11, 20005, Note_on_c, 3, 29, 0
11, 20040, Note_on_c, 3, 29, 91
11, 20068, Note_on_c, 3, 29, 0
11, 20100, Note_on_c, 3, 29, 81
11, 20134, Note_on_c, 3, 29, 0
11, 20160, Note_on_c, 3, 29, 80
11, 20186, Note_on_c, 3, 29, 0
11, 20220, Note_on_c, 3, 29, 82
11, 20247, Note_on_c, 3, 29, 0
11, 20280, Note_on_c, 3, 29, 92
11, 20308, Note_on_c, 3, 29, 0
11, 20340, Note_on_c, 3, 29, 92
11, 20371, Note_on_c, 3, 29, 0
11, 20400, Note_on_c, 3, 29, 91
11, 20425, Note_on_c, 3, 29, 0
11, 20460, Note_on_c, 3, 29, 91
11, 20487, Note_on_c, 3, 29, 0
11, 20520, Note_on_c, 3, 29, 90
11, 20546, Note_on_c, 3, 29, 0
11, 20580, Note_on_c, 3, 29, 90
11, 20605, Note_on_c, 3, 29, 0
11, 20640, Note_on_c, 3, 29, 89
11, 20670, Note_on_c, 3, 29, 0
11, 20700, Note_on_c, 3, 29, 89
11, 20725, Note_on_c, 3, 29, 0
11, 20760, Note_on_c, 3, 29, 88
11, 20787, Note_on_c, 3, 29, 0
11, 20820, Note_on_c, 3, 29, 86
11, 20849, Note_on_c, 3, 29, 0
11, 20880, Note_on_c, 3, 29, 86
11, 20903, Note_on_c, 3, 29, 0
11, 20940, Note_on_c, 3, 29, 89
11, 20965, Note_on_c, 3, 29, 0
11, 21000, Note_on_c, 3, 29, 90
11, 21028, Note_on_c, 3, 29, 0
11, 21060, Note_on_c, 3, 29, 90
11, 21094, Note_on_c, 3, 29, 0
11, 21120, Note_on_c, 3, 29, 90
11, 21144, Note_on_c, 3, 29, 0
11, 21180, Note_on_c, 3, 29, 90
11, 21203, Note_on_c, 3, 29, 0
11, 21240, Note_on_c, 3, 29, 85
11, 21266, Note_on_c, 3, 29, 0
11, 21300, Note_on_c, 3, 29, 86
11, 21325, Note_on_c, 3, 29, 0
11, 21360, Note_on_c, 3, 29, 87
11, 21388, Note_on_c, 3, 29, 0
11, 21420, Note_on_c, 3, 29, 88
11, 21448, Note_on_c, 3, 29, 0
11, 21480, Note_on_c, 3, 29, 89
11, 21507, Note_on_c, 3, 29, 0
11, 21540, Note_on_c, 3, 29, 91
11, 21572, Note_on_c, 3, 29, 0
11, 21600, Note_on_c, 3, 36, 92
11, 21621, Note_on_c, 3, 36, 0
11, 21659, Note_on_c, 3, 36, 88
11, 21681, Note_on_c, 3, 36, 0
11, 21719, Note_on_c, 3, 36, 88
11, 21748, Note_on_c, 3, 36, 0
11, 21779, Note_on_c, 3, 36, 88
11, 21809, Note_on_c, 3, 36, 0
11, 21841, Note_on_c, 3, 36, 88
11, 21869, Note_on_c, 3, 36, 0
11, 21899, Note_on_c, 3, 36, 81
11, 21930, Note_on_c, 3, 36, 0
11, 21959, Note_on_c, 3, 36, 87
11, 21987, Note_on_c, 3, 36, 0
11, 22018, Note_on_c, 3, 36, 91
11, 22043, Note_on_c, 3, 36, 0
11, 22080, Note_on_c, 3, 34, 101
11, 22117, Note_on_c, 3, 34, 0
11, 22140, Note_on_c, 3, 34, 77
11, 22186, Note_on_c, 3, 34, 0
11, 22200, Note_on_c, 3, 34, 84
11, 22238, Note_on_c, 3, 34, 0
11, 22260, Note_on_c, 3, 34, 79
11, 22311, Note_on_c, 3, 34, 0
11, 22320, Note_on_c, 3, 34, 98
11, 22356, Note_on_c, 3, 34, 0
11, 22380, Note_on_c, 3, 34, 83
11, 22421, Note_on_c, 3, 34, 0
11, 22440, Note_on_c, 3, 34, 80
11, 22475, Note_on_c, 3, 34, 0
11, 22500, Note_on_c, 3, 34, 89
11, 22537, Note_on_c, 3, 34, 0
11, 22560, Note_on_c, 3, 34, 98
11, 22597, Note_on_c, 3, 34, 0
11, 22620, Note_on_c, 3, 34, 82
11, 22660, Note_on_c, 3, 34, 0
11, 22680, Note_on_c, 3, 34, 84
11, 22720, Note_on_c, 3, 34, 0
11, 22740, Note_on_c, 3, 34, 95
11, 22782, Note_on_c, 3, 34, 0
11, 22800, Note_on_c, 3, 34, 95
11, 22837, Note_on_c, 3, 34, 0
11, 22860, Note_on_c, 3, 34, 82
11, 22903, Note_on_c, 3, 34, 0
11, 22920, Note_on_c, 3, 34, 87
11, 22960, Note_on_c, 3, 34, 0
11, 22980, Note_on_c, 3, 34, 84
11, 23024, Note_on_c, 3, 34, 0
11, 23040, Note_on_c, 3, 34, 98
11, 23081, Note_on_c, 3, 34, 0
11, 23100, Note_on_c, 3, 34, 94
11, 23140, Note_on_c, 3, 34, 0
11, 23160, Note_on_c, 3, 34, 82
11, 23203, Note_on_c, 3, 34, 0
11, 23220, Note_on_c, 3, 34, 98
11, 23260, Note_on_c, 3, 34, 0
11, 23280, Note_on_c, 3, 34, 86
11, 23321, Note_on_c, 3, 34, 0
11, 23340, Note_on_c, 3, 34, 86
11, 23379, Note_on_c, 3, 34, 0
11, 23400, Note_on_c, 3, 34, 77
11, 23441, Note_on_c, 3, 34, 0
11, 23460, Note_on_c, 3, 34, 96
11, 23502, Note_on_c, 3, 34, 0
11, 23520, Note_on_c, 3, 29, 81
11, 23546, Note_on_c, 3, 29, 0
11, 23580, Note_on_c, 3, 29, 83
11, 23607, Note_on_c, 3, 29, 0
11, 23640, Note_on_c, 3, 29, 84
11, 23668, Note_on_c, 3, 29, 0
11, 23700, Note_on_c, 3, 29, 89
11, 23731, Note_on_c, 3, 29, 0
11, 23760, Note_on_c, 3, 29, 88
11, 23785, Note_on_c, 3, 29, 0
11, 23820, Note_on_c, 3, 29, 83
11, 23847, Note_on_c, 3, 29, 0
11, 23880, Note_on_c, 3, 29, 83
11, 23906, Note_on_c, 3, 29, 0
11, 23940, Note_on_c, 3, 29, 72
11, 23965, Note_on_c, 3, 29, 0
11, 24000, Note_on_c, 3, 38, 94
11, 24178, Note_on_c, 3, 38, 0
11, 24179, Note_on_c, 3, 41, 84
11, 24241, Note_on_c, 3, 40, 100
11, 24246, Note_on_c, 3, 41, 0
11, 24300, Note_on_c, 3, 40, 0
11, 24300, Note_on_c, 3, 38, 84
11, 24361, Note_on_c, 3, 38, 0
11, 24361, Note_on_c, 3, 36, 98
11, 24411, Note_on_c, 3, 36, 0
11, 24421, Note_on_c, 3, 33, 94
11, 24472, Note_on_c, 3, 33, 0
11, 24481, Note_on_c, 3, 34, 92
11, 24662, Note_on_c, 3, 43, 95
11, 24665, Note_on_c, 3, 34, 0
11, 24779, Note_on_c, 3, 41, 85
11, 24780, Note_on_c, 3, 43, 0
11, 24838, Note_on_c, 3, 41, 0
11, 24839, Note_on_c, 3, 40, 93
11, 24895, Note_on_c, 3, 40, 0
11, 24899, Note_on_c, 3, 38, 85
11, 24950, Note_on_c, 3, 38, 0
11, 24961, Note_on_c, 3, 36, 96
11, 24994, Note_on_c, 3, 36, 0
11, 25021, Note_on_c, 3, 36, 77
11, 25041, Note_on_c, 3, 36, 0
11, 25081, Note_on_c, 3, 36, 91
11, 25102, Note_on_c, 3, 36, 0
11, 25138, Note_on_c, 3, 36, 93
11, 25225, Note_on_c, 3, 36, 0
11, 25259, Note_on_c, 3, 36, 93
11, 25281, Note_on_c, 3, 36, 0
11, 25319, Note_on_c, 3, 36, 86
11, 25345, Note_on_c, 3, 36, 0
11, 25378, Note_on_c, 3, 36, 94
11, 25403, Note_on_c, 3, 36, 0
11, 25439, Note_on_c, 3, 36, 97
11, 25531, Note_on_c, 3, 36, 0
11, 25559, Note_on_c, 3, 36, 104
11, 25612, Note_on_c, 3, 36, 0
11, 25619, Note_on_c, 3, 45, 97
11, 25738, Note_on_c, 3, 43, 93
11, 25742, Note_on_c, 3, 45, 0
11, 25799, Note_on_c, 3, 41, 93
11, 25803, Note_on_c, 3, 43, 0
11, 25857, Note_on_c, 3, 41, 0
11, 25858, Note_on_c, 3, 40, 97
11, 25917, Note_on_c, 3, 40, 0
11, 25921, Note_on_c, 3, 38, 94
11, 26099, Note_on_c, 3, 38, 0
11, 26099, Note_on_c, 3, 41, 84
11, 26161, Note_on_c, 3, 40, 100
11, 26166, Note_on_c, 3, 41, 0
11, 26220, Note_on_c, 3, 40, 0
11, 26220, Note_on_c, 3, 38, 84
11, 26281, Note_on_c, 3, 38, 0
11, 26281, Note_on_c, 3, 36, 98
11, 26331, Note_on_c, 3, 36, 0
11, 26341, Note_on_c, 3, 33, 94
11, 26392, Note_on_c, 3, 33, 0
11, 26401, Note_on_c, 3, 34, 92
11, 26582, Note_on_c, 3, 43, 95
11, 26585, Note_on_c, 3, 34, 0
11, 26699, Note_on_c, 3, 41, 85
11, 26700, Note_on_c, 3, 43, 0
11, 26758, Note_on_c, 3, 41, 0
11, 26759, Note_on_c, 3, 40, 93
11, 26815, Note_on_c, 3, 40, 0
11, 26819, Note_on_c, 3, 38, 85
11, 26870, Note_on_c, 3, 38, 0
11, 26881, Note_on_c, 3, 36, 96
11, 26914, Note_on_c, 3, 36, 0
11, 26941, Note_on_c, 3, 36, 77
11, 26961, Note_on_c, 3, 36, 0
11, 27001, Note_on_c, 3, 36, 91
11, 27022, Note_on_c, 3, 36, 0
11, 27058, Note_on_c, 3, 36, 93
11, 27145, Note_on_c, 3, 36, 0
11, 27179, Note_on_c, 3, 36, 93
11, 27201, Note_on_c, 3, 36, 0
11, 27239, Note_on_c, 3, 36, 86
11, 27265, Note_on_c, 3, 36, 0
11, 27298, Note_on_c, 3, 36, 94
11, 27323, Note_on_c, 3, 36, 0
11, 27359, Note_on_c, 3, 36, 97
11, 27451, Note_on_c, 3, 36, 0
11, 27479, Note_on_c, 3, 36, 104
11, 27532, Note_on_c, 3, 36, 0
11, 27539, Note_on_c, 3, 45, 97
11, 27658, Note_on_c, 3, 43, 93
11, 27662, Note_on_c, 3, 45, 0
11, 27719, Note_on_c, 3, 41, 93
11, 27723, Note_on_c, 3, 43, 0
11, 27777, Note_on_c, 3, 41, 0
11, 27778, Note_on_c, 3, 40, 97
11, 27837, Note_on_c, 3, 40, 0
11, 27841, Note_on_c, 3, 38, 94
11, 28019, Note_on_c, 3, 38, 0
11, 28019, Note_on_c, 3, 41, 84
11, 28081, Note_on_c, 3, 40, 100
11, 28086, Note_on_c, 3, 41, 0
11, 28140, Note_on_c, 3, 40, 0
11, 28140, Note_on_c, 3, 38, 84
11, 28201, Note_on_c, 3, 38, 0
11, 28201, Note_on_c, 3, 36, 98
11, 28251, Note_on_c, 3, 36, 0
11, 28261, Note_on_c, 3, 33, 94
11, 28312, Note_on_c, 3, 33, 0
11, 28321, Note_on_c, 3, 34, 92
11, 28502, Note_on_c, 3, 43, 95
11, 28505, Note_on_c, 3, 34, 0
11, 28619, Note_on_c, 3, 41, 85
11, 28620, Note_on_c, 3, 43, 0
11, 28678, Note_on_c, 3, 41, 0
11, 28679, Note_on_c, 3, 40, 93
11, 28735, Note_on_c, 3, 40, 0
11, 28739, Note_on_c, 3, 38, 85
11, 28790, Note_on_c, 3, 38, 0
11, 28801, Note_on_c, 3, 36, 96
11, 28834, Note_on_c, 3, 36, 0
11, 28861, Note_on_c, 3, 36, 77
11, 28881, Note_on_c, 3, 36, 0
11, 28921, Note_on_c, 3, 36, 91
11, 28942, Note_on_c, 3, 36, 0
11, 28978, Note_on_c, 3, 36, 93
11, 29065, Note_on_c, 3, 36, 0
11, 29099, Note_on_c, 3, 36, 93
11, 29121, Note_on_c, 3, 36, 0
11, 29159, Note_on_c, 3, 36, 86
11, 29185, Note_on_c, 3, 36, 0
11, 29218, Note_on_c, 3, 36, 94
11, 29243, Note_on_c, 3, 36, 0
11, 29280, Note_on_c, 3, 36, 97
11, 29372, Note_on_c, 3, 36, 0
11, 29399, Note_on_c, 3, 36, 104
11, 29509, Note_on_c, 3, 36, 0
11, 29521, Note_on_c, 3, 36, 106
11, 29568, Note_on_c, 3, 36, 0
11, 29581, Note_on_c, 3, 36, 94
11, 29639, Note_on_c, 3, 36, 0
11, 29639, Note_on_c, 3, 33, 106
11, 29698, Note_on_c, 3, 33, 0
11, 29698, Note_on_c, 3, 31, 101
11, 29758, Note_on_c, 3, 31, 0
11, 29760, Note_on_c, 3, 29, 63
11, 29786, Note_on_c, 3, 29, 0
11, 29820, Note_on_c, 3, 29, 65
11, 29847, Note_on_c, 3, 29, 0
11, 29880, Note_on_c, 3, 29, 66
11, 29908, Note_on_c, 3, 29, 0
11, 29940, Note_on_c, 3, 29, 67
11, 29971, Note_on_c, 3, 29, 0
11, 30000, Note_on_c, 3, 29, 68
11, 30025, Note_on_c, 3, 29, 0
11, 30060, Note_on_c, 3, 29, 69
11, 30087, Note_on_c, 3, 29, 0
11, 30120, Note_on_c, 3, 29, 71
11, 30146, Note_on_c, 3, 29, 0
11, 30180, Note_on_c, 3, 29, 72
11, 30205, Note_on_c, 3, 29, 0
11, 30240, Note_on_c, 3, 29, 73
11, 30270, Note_on_c, 3, 29, 0
11, 30300, Note_on_c, 3, 29, 74
11, 30325, Note_on_c, 3, 29, 0
11, 30360, Note_on_c, 3, 29, 75
11, 30387, Note_on_c, 3, 29, 0
11, 30420, Note_on_c, 3, 29, 76
11, 30449, Note_on_c, 3, 29, 0
11, 30480, Note_on_c, 3, 29, 78
11, 30503, Note_on_c, 3, 29, 0
11, 30540, Note_on_c, 3, 29, 79
11, 30565, Note_on_c, 3, 29, 0
11, 30600, Note_on_c, 3, 29, 80
11, 30628, Note_on_c, 3, 29, 0
11, 30660, Note_on_c, 3, 29, 81
11, 30694, Note_on_c, 3, 29, 0
11, 30720, Note_on_c, 3, 29, 82
11, 30744, Note_on_c, 3, 29, 0
11, 30780, Note_on_c, 3, 29, 83
11, 30803, Note_on_c, 3, 29, 0
11, 30840, Note_on_c, 3, 29, 85
11, 30866, Note_on_c, 3, 29, 0
11, 30900, Note_on_c, 3, 29, 86
11, 30925, Note_on_c, 3, 29, 0
11, 30960, Note_on_c, 3, 29, 87
11, 30988, Note_on_c, 3, 29, 0
11, 31020, Note_on_c, 3, 29, 88
11, 31048, Note_on_c, 3, 29, 0
11, 31080, Note_on_c, 3, 29, 89
11, 31107, Note_on_c, 3, 29, 0
11, 31140, Note_on_c, 3, 29, 91
11, 31172, Note_on_c, 3, 29, 0
11, 31200, Note_on_c, 3, 36, 92
11, 31221, Note_on_c, 3, 36, 0
11, 31259, Note_on_c, 3, 36, 71
11, 31281, Note_on_c, 3, 36, 0
11, 31319, Note_on_c, 3, 36, 69
11, 31348, Note_on_c, 3, 36, 0
11, 31379, Note_on_c, 3, 36, 73
11, 31409, Note_on_c, 3, 36, 0
11, 31441, Note_on_c, 3, 36, 79
11, 31469, Note_on_c, 3, 36, 0
11, 31499, Note_on_c, 3, 36, 81
11, 31530, Note_on_c, 3, 36, 0
11, 31559, Note_on_c, 3, 36, 87
11, 31587, Note_on_c, 3, 36, 0
11, 31618, Note_on_c, 3, 36, 91
11, 31643, Note_on_c, 3, 36, 0
11, 31680, Note_on_c, 3, 34, 101
11, 31717, Note_on_c, 3, 34, 0
11, 31740, Note_on_c, 3, 34, 77
11, 31786, Note_on_c, 3, 34, 0
11, 31800, Note_on_c, 3, 34, 84
11, 31838, Note_on_c, 3, 34, 0
11, 31860, Note_on_c, 3, 34, 79
11, 31911, Note_on_c, 3, 34, 0
11, 31920, Note_on_c, 3, 34, 98
11, 31956, Note_on_c, 3, 34, 0
11, 31980, Note_on_c, 3, 34, 83
11, 32021, Note_on_c, 3, 34, 0
11, 32040, Note_on_c, 3, 34, 80
11, 32075, Note_on_c, 3, 34, 0
11, 32100, Note_on_c, 3, 34, 89
11, 32137, Note_on_c, 3, 34, 0
11, 32160, Note_on_c, 3, 34, 98
11, 32197, Note_on_c, 3, 34, 0
11, 32220, Note_on_c, 3, 34, 82
11, 32260, Note_on_c, 3, 34, 0
11, 32280, Note_on_c, 3, 34, 84
11, 32320, Note_on_c, 3, 34, 0
11, 32340, Note_on_c, 3, 34, 95
11, 32382, Note_on_c, 3, 34, 0
11, 32400, Note_on_c, 3, 34, 95
11, 32437, Note_on_c, 3, 34, 0
11, 32460, Note_on_c, 3, 34, 82
11, 32503, Note_on_c, 3, 34, 0
11, 32520, Note_on_c, 3, 34, 78
11, 32560, Note_on_c, 3, 34, 0
11, 32580, Note_on_c, 3, 34, 84
11, 32624, Note_on_c, 3, 34, 0
11, 32640, Note_on_c, 3, 34, 98
11, 32681, Note_on_c, 3, 34, 0
11, 32700, Note_on_c, 3, 34, 94
11, 32740, Note_on_c, 3, 34, 0
11, 32760, Note_on_c, 3, 34, 82
11, 32803, Note_on_c, 3, 34, 0
11, 32820, Note_on_c, 3, 34, 98
11, 32860, Note_on_c, 3, 34, 0
11, 32880, Note_on_c, 3, 34, 86
11, 32921, Note_on_c, 3, 34, 0
11, 32940, Note_on_c, 3, 34, 86
11, 32979, Note_on_c, 3, 34, 0
11, 33000, Note_on_c, 3, 34, 77
11, 33041, Note_on_c, 3, 34, 0
11, 33060, Note_on_c, 3, 34, 96
11, 33102, Note_on_c, 3, 34, 0
11, 33120, Note_on_c, 3, 29, 89
11, 33146, Note_on_c, 3, 29, 0
11, 33180, Note_on_c, 3, 29, 92
11, 33207, Note_on_c, 3, 29, 0
11, 33240, Note_on_c, 3, 29, 88
11, 33268, Note_on_c, 3, 29, 0
11, 33300, Note_on_c, 3, 29, 85
11, 33331, Note_on_c, 3, 29, 0
11, 33360, Note_on_c, 3, 29, 85
11, 33385, Note_on_c, 3, 29, 0
11, 33420, Note_on_c, 3, 29, 91
11, 33447, Note_on_c, 3, 29, 0
11, 33480, Note_on_c, 3, 29, 91
11, 33506, Note_on_c, 3, 29, 0
11, 33540, Note_on_c, 3, 29, 91
11, 33565, Note_on_c, 3, 29, 0
11, 33600, Note_on_c, 3, 29, 91
11, 33630, Note_on_c, 3, 29, 0
11, 33660, Note_on_c, 3, 29, 91
11, 33685, Note_on_c, 3, 29, 0
11, 33720, Note_on_c, 3, 29, 91
11, 33747, Note_on_c, 3, 29, 0
11, 33780, Note_on_c, 3, 29, 91
11, 33809, Note_on_c, 3, 29, 0
11, 33840, Note_on_c, 3, 29, 91
11, 33863, Note_on_c, 3, 29, 0
11, 33900, Note_on_c, 3, 29, 91
11, 33925, Note_on_c, 3, 29, 0
11, 33960, Note_on_c, 3, 29, 91
11, 33988, Note_on_c, 3, 29, 0
11, 34020, Note_on_c, 3, 29, 81
11, 34054, Note_on_c, 3, 29, 0
11, 34080, Note_on_c, 3, 29, 80
11, 34106, Note_on_c, 3, 29, 0
11, 34140, Note_on_c, 3, 29, 82
11, 34167, Note_on_c, 3, 29, 0
11, 34200, Note_on_c, 3, 29, 92
11, 34228, Note_on_c, 3, 29, 0
11, 34260, Note_on_c, 3, 29, 92
11, 34291, Note_on_c, 3, 29, 0
11, 34320, Note_on_c, 3, 29, 91
11, 34345, Note_on_c, 3, 29, 0
11, 34380, Note_on_c, 3, 29, 91
11, 34407, Note_on_c, 3, 29, 0
11, 34440, Note_on_c, 3, 29, 90
11, 34466, Note_on_c, 3, 29, 0
11, 34500, Note_on_c, 3, 29, 90
11, 34525, Note_on_c, 3, 29, 0
11, 34560, Note_on_c, 3, 29, 89
11, 34590, Note_on_c, 3, 29, 0
11, 34620, Note_on_c, 3, 29, 89
11, 34645, Note_on_c, 3, 29, 0
11, 34680, Note_on_c, 3, 29, 88
11, 34707, Note_on_c, 3, 29, 0
11, 34740, Note_on_c, 3, 29, 86
11, 34769, Note_on_c, 3, 29, 0
11, 34800, Note_on_c, 3, 29, 86
11, 34823, Note_on_c, 3, 29, 0
11, 34860, Note_on_c, 3, 29, 89
11, 34885, Note_on_c, 3, 29, 0
11, 34920, Note_on_c, 3, 29, 90
11, 34948, Note_on_c, 3, 29, 0
11, 34980, Note_on_c, 3, 29, 90
11, 35014, Note_on_c, 3, 29, 0
11, 35040, Note_on_c, 3, 29, 90
11, 35064, Note_on_c, 3, 29, 0
11, 35100, Note_on_c, 3, 29, 90
11, 35123, Note_on_c, 3, 29, 0
11, 35160, Note_on_c, 3, 29, 85
11, 35186, Note_on_c, 3, 29, 0
11, 35220, Note_on_c, 3, 29, 86
11, 35245, Note_on_c, 3, 29, 0
11, 35280, Note_on_c, 3, 29, 87
11, 35308, Note_on_c, 3, 29, 0
11, 35340, Note_on_c, 3, 29, 88
11, 35368, Note_on_c, 3, 29, 0
11, 35400, Note_on_c, 3, 29, 89
11, 35427, Note_on_c, 3, 29, 0
11, 35460, Note_on_c, 3, 29, 91
11, 35492, Note_on_c, 3, 29, 0
11, 35520, Note_on_c, 3, 36, 92
11, 35541, Note_on_c, 3, 36, 0
11, 35579, Note_on_c, 3, 36, 88
11, 35601, Note_on_c, 3, 36, 0
11, 35639, Note_on_c, 3, 36, 88
11, 35668, Note_on_c, 3, 36, 0
11, 35699, Note_on_c, 3, 36, 88
11, 35729, Note_on_c, 3, 36, 0
11, 35761, Note_on_c, 3, 36, 88
11, 35789, Note_on_c, 3, 36, 0
11, 35819, Note_on_c, 3, 36, 81
11, 35850, Note_on_c, 3, 36, 0
11, 35879, Note_on_c, 3, 36, 87
11, 35907, Note_on_c, 3, 36, 0
11, 35938, Note_on_c, 3, 36, 91
11, 35963, Note_on_c, 3, 36, 0
11, 36000, Note_on_c, 3, 34, 101
11, 36037, Note_on_c, 3, 34, 0
11, 36060, Note_on_c, 3, 34, 77
11, 36106, Note_on_c, 3, 34, 0
11, 36120, Note_on_c, 3, 34, 84
11, 36158, Note_on_c, 3, 34, 0
11, 36180, Note_on_c, 3, 34, 79
11, 36231, Note_on_c, 3, 34, 0
11, 36240, Note_on_c, 3, 34, 98
11, 36276, Note_on_c, 3, 34, 0
11, 36300, Note_on_c, 3, 34, 83
11, 36341, Note_on_c, 3, 34, 0
11, 36360, Note_on_c, 3, 34, 80
11, 36395, Note_on_c, 3, 34, 0
11, 36420, Note_on_c, 3, 34, 89
11, 36457, Note_on_c, 3, 34, 0
11, 36480, Note_on_c, 3, 34, 98
11, 36517, Note_on_c, 3, 34, 0
11, 36540, Note_on_c, 3, 34, 82
11, 36580, Note_on_c, 3, 34, 0
11, 36600, Note_on_c, 3, 34, 84
11, 36640, Note_on_c, 3, 34, 0
11, 36660, Note_on_c, 3, 34, 95
11, 36702, Note_on_c, 3, 34, 0
11, 36720, Note_on_c, 3, 34, 95
11, 36757, Note_on_c, 3, 34, 0
11, 36780, Note_on_c, 3, 34, 82
11, 36823, Note_on_c, 3, 34, 0
11, 36840, Note_on_c, 3, 34, 87
11, 36880, Note_on_c, 3, 34, 0
11, 36900, Note_on_c, 3, 34, 84
11, 36944, Note_on_c, 3, 34, 0
11, 36960, Note_on_c, 3, 34, 98
11, 37001, Note_on_c, 3, 34, 0
11, 37020, Note_on_c, 3, 34, 94
11, 37060, Note_on_c, 3, 34, 0
11, 37080, Note_on_c, 3, 34, 82
11, 37123, Note_on_c, 3, 34, 0
11, 37140, Note_on_c, 3, 34, 98
11, 37180, Note_on_c, 3, 34, 0
11, 37200, Note_on_c, 3, 34, 86
11, 37241, Note_on_c, 3, 34, 0
11, 37260, Note_on_c, 3, 34, 86
11, 37299, Note_on_c, 3, 34, 0
11, 37320, Note_on_c, 3, 34, 77
11, 37361, Note_on_c, 3, 34, 0
11, 37380, Note_on_c, 3, 34, 96
11, 37422, Note_on_c, 3, 34, 0
11, 37440, Note_on_c, 3, 29, 81
11, 37466, Note_on_c, 3, 29, 0
11, 37500, Note_on_c, 3, 29, 83
11, 37527, Note_on_c, 3, 29, 0
11, 37560, Note_on_c, 3, 29, 84
11, 37588, Note_on_c, 3, 29, 0
11, 37620, Note_on_c, 3, 29, 89
11, 37651, Note_on_c, 3, 29, 0
11, 37680, Note_on_c, 3, 29, 88
11, 37705, Note_on_c, 3, 29, 0
11, 37740, Note_on_c, 3, 29, 83
11, 37767, Note_on_c, 3, 29, 0
11, 37800, Note_on_c, 3, 29, 83
11, 37826, Note_on_c, 3, 29, 0
11, 37860, Note_on_c, 3, 29, 72
11, 37885, Note_on_c, 3, 29, 0
11, 37920, Note_on_c, 3, 38, 94
11, 38098, Note_on_c, 3, 38, 0
11, 38099, Note_on_c, 3, 41, 84
11, 38161, Note_on_c, 3, 40, 100
11, 38166, Note_on_c, 3, 41, 0
11, 38220, Note_on_c, 3, 40, 0
11, 38220, Note_on_c, 3, 38, 84
11, 38281, Note_on_c, 3, 38, 0
11, 38281, Note_on_c, 3, 36, 98
11, 38331, Note_on_c, 3, 36, 0
11, 38341, Note_on_c, 3, 33, 94
11, 38392, Note_on_c, 3, 33, 0
11, 38401, Note_on_c, 3, 34, 92
11, 38582, Note_on_c, 3, 43, 95
11, 38585, Note_on_c, 3, 34, 0
11, 38699, Note_on_c, 3, 41, 85
11, 38700, Note_on_c, 3, 43, 0
11, 38758, Note_on_c, 3, 41, 0
11, 38759, Note_on_c, 3, 40, 93
11, 38815, Note_on_c, 3, 40, 0
11, 38819, Note_on_c, 3, 38, 85
11, 38870, Note_on_c, 3, 38, 0
11, 38881, Note_on_c, 3, 36, 96
11, 38914, Note_on_c, 3, 36, 0
11, 38941, Note_on_c, 3, 36, 77
11, 38961, Note_on_c, 3, 36, 0
11, 39001, Note_on_c, 3, 36, 91
11, 39022, Note_on_c, 3, 36, 0
11, 39058, Note_on_c, 3, 36, 93
11, 39145, Note_on_c, 3, 36, 0
11, 39179, Note_on_c, 3, 36, 93
11, 39201, Note_on_c, 3, 36, 0
11, 39239, Note_on_c, 3, 36, 86
11, 39265, Note_on_c, 3, 36, 0
11, 39298, Note_on_c, 3, 36, 94
11, 39323, Note_on_c, 3, 36, 0
11, 39359, Note_on_c, 3, 36, 97
11, 39451, Note_on_c, 3, 36, 0
11, 39479, Note_on_c, 3, 36, 104
11, 39532, Note_on_c, 3, 36, 0
11, 39539, Note_on_c, 3, 45, 97
11, 39658, Note_on_c, 3, 43, 93
11, 39662, Note_on_c, 3, 45, 0
11, 39719, Note_on_c, 3, 41, 93
11, 39723, Note_on_c, 3, 43, 0
11, 39777, Note_on_c, 3, 41, 0
11, 39778, Note_on_c, 3, 40, 97
11, 39837, Note_on_c, 3, 40, 0
11, 39841, Note_on_c, 3, 38, 94
11, 40019, Note_on_c, 3, 38, 0
11, 40019, Note_on_c, 3, 41, 84
11, 40081, Note_on_c, 3, 40, 100
11, 40086, Note_on_c, 3, 41, 0
11, 40140, Note_on_c, 3, 40, 0
11, 40140, Note_on_c, 3, 38, 84
11, 40201, Note_on_c, 3, 38, 0
11, 40201, Note_on_c, 3, 36, 98
11, 40251, Note_on_c, 3, 36, 0
11, 40261, Note_on_c, 3, 33, 94
11, 40312, Note_on_c, 3, 33, 0
11, 40321, Note_on_c, 3, 34, 92
11, 40502, Note_on_c, 3, 43, 95
11, 40505, Note_on_c, 3, 34, 0
11, 40619, Note_on_c, 3, 41, 85
11, 40620, Note_on_c, 3, 43, 0
11, 40678, Note_on_c, 3, 41, 0
11, 40679, Note_on_c, 3, 40, 93
11, 40735, Note_on_c, 3, 40, 0
11, 40739, Note_on_c, 3, 38, 85
11, 40790, Note_on_c, 3, 38, 0
11, 40801, Note_on_c, 3, 36, 96
11, 40834, Note_on_c, 3, 36, 0
11, 40861, Note_on_c, 3, 36, 77
11, 40881, Note_on_c, 3, 36, 0
11, 40921, Note_on_c, 3, 36, 91
11, 40942, Note_on_c, 3, 36, 0
11, 40978, Note_on_c, 3, 36, 93
11, 41065, Note_on_c, 3, 36, 0
11, 41099, Note_on_c, 3, 36, 93
11, 41121, Note_on_c, 3, 36, 0
11, 41159, Note_on_c, 3, 36, 86
11, 41185, Note_on_c, 3, 36, 0
11, 41218, Note_on_c, 3, 36, 94
11, 41243, Note_on_c, 3, 36, 0
11, 41279, Note_on_c, 3, 36, 97
11, 41371, Note_on_c, 3, 36, 0
11, 41399, Note_on_c, 3, 36, 104
11, 41452, Note_on_c, 3, 36, 0
11, 41459, Note_on_c, 3, 45, 97
11, 41578, Note_on_c, 3, 43, 93
11, 41582, Note_on_c, 3, 45, 0
11, 41639, Note_on_c, 3, 41, 93
11, 41643, Note_on_c, 3, 43, 0
11, 41697, Note_on_c, 3, 41, 0
11, 41698, Note_on_c, 3, 40, 97
11, 41757, Note_on_c, 3, 40, 0
11, 41761, Note_on_c, 3, 38, 94
11, 41939, Note_on_c, 3, 38, 0
11, 41939, Note_on_c, 3, 41, 84
11, 42001, Note_on_c, 3, 40, 100
11, 42006, Note_on_c, 3, 41, 0
11, 42060, Note_on_c, 3, 40, 0
11, 42060, Note_on_c, 3, 38, 84
11, 42121, Note_on_c, 3, 38, 0
11, 42121, Note_on_c, 3, 36, 98
11, 42171, Note_on_c, 3, 36, 0
11, 42181, Note_on_c, 3, 33, 94
11, 42232, Note_on_c, 3, 33, 0
11, 42241, Note_on_c, 3, 34, 92
11, 42422, Note_on_c, 3, 43, 95
11, 42425, Note_on_c, 3, 34, 0
11, 42539, Note_on_c, 3, 41, 85
11, 42540, Note_on_c, 3, 43, 0
11, 42598, Note_on_c, 3, 41, 0
11, 42599, Note_on_c, 3, 40, 93
11, 42655, Note_on_c, 3, 40, 0
11, 42659, Note_on_c, 3, 38, 85
11, 42710, Note_on_c, 3, 38, 0
11, 42721, Note_on_c, 3, 36, 96
11, 42754, Note_on_c, 3, 36, 0
11, 42781, Note_on_c, 3, 36, 77
11, 42801, Note_on_c, 3, 36, 0
11, 42841, Note_on_c, 3, 36, 91
11, 42862, Note_on_c, 3, 36, 0
11, 42898, Note_on_c, 3, 36, 93
11, 42985, Note_on_c, 3, 36, 0
11, 43019, Note_on_c, 3, 36, 93
11, 43041, Note_on_c, 3, 36, 0
11, 43079, Note_on_c, 3, 36, 86
11, 43105, Note_on_c, 3, 36, 0
11, 43138, Note_on_c, 3, 36, 94
11, 43163, Note_on_c, 3, 36, 0
11, 43200, Note_on_c, 3, 36, 97
11, 43292, Note_on_c, 3, 36, 0
11, 43319, Note_on_c, 3, 36, 104
11, 43429, Note_on_c, 3, 36, 0
11, 43441, Note_on_c, 3, 36, 106
11, 43488, Note_on_c, 3, 36, 0
11, 43501, Note_on_c, 3, 36, 94
11, 43559, Note_on_c, 3, 36, 0
11, 43559, Note_on_c, 3, 33, 106
11, 43618, Note_on_c, 3, 33, 0
11, 43618, Note_on_c, 3, 31, 101
11, 43678, Note_on_c, 3, 31, 0
11, 43681, Note_on_c, 3, 38, 94
11, 43859, Note_on_c, 3, 38, 0
11, 43859, Note_on_c, 3, 41, 84
11, 43921, Note_on_c, 3, 40, 100
11, 43926, Note_on_c, 3, 41, 0
11, 43980, Note_on_c, 3, 40, 0
11, 43980, Note_on_c, 3, 38, 84
11, 44041, Note_on_c, 3, 38, 0
11, 44041, Note_on_c, 3, 36, 98
11, 44091, Note_on_c, 3, 36, 0
11, 44101, Note_on_c, 3, 33, 94
11, 44152, Note_on_c, 3, 33, 0
11, 44161, Note_on_c, 3, 34, 92
11, 44342, Note_on_c, 3, 43, 95
11, 44345, Note_on_c, 3, 34, 0
11, 44459, Note_on_c, 3, 41, 85
11, 44460, Note_on_c, 3, 43, 0
11, 44518, Note_on_c, 3, 41, 0
11, 44519, Note_on_c, 3, 40, 93
11, 44575, Note_on_c, 3, 40, 0
11, 44579, Note_on_c, 3, 38, 85
11, 44630, Note_on_c, 3, 38, 0
11, 44641, Note_on_c, 3, 36, 96
11, 44674, Note_on_c, 3, 36, 0
11, 44701, Note_on_c, 3, 36, 77
11, 44721, Note_on_c, 3, 36, 0
11, 44761, Note_on_c, 3, 36, 91
11, 44782, Note_on_c, 3, 36, 0
11, 44818, Note_on_c, 3, 36, 93
11, 44905, Note_on_c, 3, 36, 0
11, 44939, Note_on_c, 3, 36, 93
11, 44961, Note_on_c, 3, 36, 0
11, 44999, Note_on_c, 3, 36, 86
11, 45025, Note_on_c, 3, 36, 0
11, 45058, Note_on_c, 3, 36, 94
11, 45083, Note_on_c, 3, 36, 0
11, 45121, Note_on_c, 3, 36, 97
11, 45213, Note_on_c, 3, 36, 0
11, 45241, Note_on_c, 3, 36, 93
11, 45348, Note_on_c, 3, 36, 0
11, 45360, Note_on_c, 3, 36, 89
11, 45400, Note_on_c, 3, 36, 0
11, 45420, Note_on_c, 3, 36, 75
11, 45460, Note_on_c, 3, 36, 0
11, 45480, Note_on_c, 3, 36, 90
11, 45520, Note_on_c, 3, 36, 0
11, 45540, Note_on_c, 3, 36, 77
11, 45580, Note_on_c, 3, 36, 0
11, 45600, Note_on_c, 3, 38, 92
11, 45687, Note_on_c, 3, 38, 0
11, 45720, Note_on_c, 3, 38, 91
11, 45759, Note_on_c, 3, 38, 0
11, 45780, Note_on_c, 3, 38, 85
11, 45813, Note_on_c, 3, 38, 0
11, 45840, Note_on_c, 3, 38, 92
11, 45937, Note_on_c, 3, 38, 0
11, 45960, Note_on_c, 3, 38, 95
11, 45991, Note_on_c, 3, 38, 0
11, 46020, Note_on_c, 3, 38, 74
11, 46073, Note_on_c, 3, 38, 0
11, 46080, Note_on_c, 3, 34, 94
11, 46185, Note_on_c, 3, 34, 0
11, 46200, Note_on_c, 3, 34, 96
11, 46239, Note_on_c, 3, 34, 0
11, 46260, Note_on_c, 3, 34, 81
11, 46294, Note_on_c, 3, 34, 0
11, 46320, Note_on_c, 3, 34, 93
11, 46417, Note_on_c, 3, 34, 0
11, 46440, Note_on_c, 3, 34, 92
11, 46473, Note_on_c, 3, 34, 0
11, 46500, Note_on_c, 3, 34, 86
11, 46540, Note_on_c, 3, 34, 0
11, 46560, Note_on_c, 3, 36, 93
11, 46657, Note_on_c, 3, 36, 0
11, 46680, Note_on_c, 3, 36, 93
11, 46710, Note_on_c, 3, 36, 0
11, 46740, Note_on_c, 3, 36, 77
11, 46770, Note_on_c, 3, 36, 0
11, 46800, Note_on_c, 3, 36, 91
11, 46889, Note_on_c, 3, 36, 0
11, 46920, Note_on_c, 3, 36, 93
11, 46950, Note_on_c, 3, 36, 0
11, 46980, Note_on_c, 3, 36, 77
11, 47005, Note_on_c, 3, 36, 0
11, 47040, Note_on_c, 3, 36, 100
11, 47131, Note_on_c, 3, 36, 0
11, 47160, Note_on_c, 3, 36, 97
11, 47191, Note_on_c, 3, 36, 0
11, 47220, Note_on_c, 3, 36, 81
11, 47252, Note_on_c, 3, 36, 0
11, 47280, Note_on_c, 3, 36, 88
11, 47309, Note_on_c, 3, 36, 0
11, 47340, Note_on_c, 3, 36, 95
11, 47371, Note_on_c, 3, 36, 0
11, 47400, Note_on_c, 3, 36, 97
11, 47429, Note_on_c, 3, 36, 0
11, 47460, Note_on_c, 3, 36, 89
11, 47494, Note_on_c, 3, 36, 0
11, 47520, Note_on_c, 3, 38, 92
11, 47607, Note_on_c, 3, 38, 0
11, 47640, Note_on_c, 3, 38, 91
11, 47679, Note_on_c, 3, 38, 0
11, 47700, Note_on_c, 3, 38, 85
11, 47733, Note_on_c, 3, 38, 0
11, 47760, Note_on_c, 3, 38, 92
11, 47857, Note_on_c, 3, 38, 0
11, 47880, Note_on_c, 3, 38, 95
11, 47911, Note_on_c, 3, 38, 0
11, 47940, Note_on_c, 3, 38, 74
11, 47993, Note_on_c, 3, 38, 0
11, 48000, Note_on_c, 3, 34, 94
11, 48105, Note_on_c, 3, 34, 0
11, 48120, Note_on_c, 3, 34, 96
11, 48159, Note_on_c, 3, 34, 0
11, 48180, Note_on_c, 3, 34, 81
11, 48214, Note_on_c, 3, 34, 0
11, 48240, Note_on_c, 3, 34, 93
11, 48337, Note_on_c, 3, 34, 0
11, 48360, Note_on_c, 3, 34, 92
11, 48393, Note_on_c, 3, 34, 0
11, 48420, Note_on_c, 3, 34, 86
11, 48460, Note_on_c, 3, 34, 0
11, 48480, Note_on_c, 3, 36, 93
11, 48577, Note_on_c, 3, 36, 0
11, 48600, Note_on_c, 3, 36, 93
11, 48630, Note_on_c, 3, 36, 0
11, 48660, Note_on_c, 3, 36, 77
11, 48690, Note_on_c, 3, 36, 0
11, 48720, Note_on_c, 3, 36, 91
11, 48809, Note_on_c, 3, 36, 0
11, 48840, Note_on_c, 3, 36, 93
11, 48870, Note_on_c, 3, 36, 0
11, 48900, Note_on_c, 3, 36, 77
11, 48925, Note_on_c, 3, 36, 0
11, 48960, Note_on_c, 3, 36, 100
11, 49051, Note_on_c, 3, 36, 0
11, 49080, Note_on_c, 3, 36, 97
11, 49111, Note_on_c, 3, 36, 0
11, 49140, Note_on_c, 3, 36, 81
11, 49172, Note_on_c, 3, 36, 0
11, 49200, Note_on_c, 3, 36, 88
11, 49229, Note_on_c, 3, 36, 0
11, 49260, Note_on_c, 3, 36, 95
11, 49291, Note_on_c, 3, 36, 0
11, 49320, Note_on_c, 3, 36, 97
11, 49349, Note_on_c, 3, 36, 0
11, 49380, Note_on_c, 3, 36, 89
11, 49414, Note_on_c, 3, 36, 0
11, 49440, Note_on_c, 3, 38, 92
11, 49527, Note_on_c, 3, 38, 0
11, 49560, Note_on_c, 3, 38, 91
11, 49599, Note_on_c, 3, 38, 0
11, 49620, Note_on_c, 3, 38, 85
11, 49653, Note_on_c, 3, 38, 0
11, 49680, Note_on_c, 3, 38, 92
11, 49777, Note_on_c, 3, 38, 0
11, 49800, Note_on_c, 3, 38, 95
11, 49831, Note_on_c, 3, 38, 0
11, 49860, Note_on_c, 3, 38, 74
11, 49913, Note_on_c, 3, 38, 0
11, 49920, Note_on_c, 3, 34, 94
11, 50025, Note_on_c, 3, 34, 0
11, 50040, Note_on_c, 3, 34, 96
11, 50079, Note_on_c, 3, 34, 0
11, 50100, Note_on_c, 3, 34, 81
11, 50134, Note_on_c, 3, 34, 0
11, 50160, Note_on_c, 3, 34, 93
11, 50257, Note_on_c, 3, 34, 0
11, 50280, Note_on_c, 3, 34, 92
11, 50313, Note_on_c, 3, 34, 0
11, 50340, Note_on_c, 3, 34, 86
11, 50380, Note_on_c, 3, 34, 0
11, 50400, Note_on_c, 3, 36, 93
11, 50497, Note_on_c, 3, 36, 0
11, 50520, Note_on_c, 3, 36, 93
11, 50550, Note_on_c, 3, 36, 0
11, 50580, Note_on_c, 3, 36, 77
11, 50610, Note_on_c, 3, 36, 0
11, 50640, Note_on_c, 3, 36, 91
11, 50729, Note_on_c, 3, 36, 0
11, 50760, Note_on_c, 3, 36, 93
11, 50790, Note_on_c, 3, 36, 0
11, 50820, Note_on_c, 3, 36, 77
11, 50845, Note_on_c, 3, 36, 0
11, 50880, Note_on_c, 3, 36, 100
11, 50971, Note_on_c, 3, 36, 0
11, 51000, Note_on_c, 3, 36, 97
11, 51031, Note_on_c, 3, 36, 0
11, 51060, Note_on_c, 3, 36, 81
11, 51092, Note_on_c, 3, 36, 0
11, 51120, Note_on_c, 3, 36, 88
11, 51149, Note_on_c, 3, 36, 0
11, 51180, Note_on_c, 3, 36, 95
11, 51211, Note_on_c, 3, 36, 0
11, 51240, Note_on_c, 3, 36, 97
11, 51269, Note_on_c, 3, 36, 0
11, 51300, Note_on_c, 3, 36, 89
11, 51334, Note_on_c, 3, 36, 0
11, 51360, Note_on_c, 3, 38, 92
11, 51447, Note_on_c, 3, 38, 0
11, 51480, Note_on_c, 3, 38, 91
11, 51519, Note_on_c, 3, 38, 0
11, 51540, Note_on_c, 3, 38, 85
11, 51573, Note_on_c, 3, 38, 0
11, 51600, Note_on_c, 3, 38, 92
11, 51697, Note_on_c, 3, 38, 0
11, 51720, Note_on_c, 3, 38, 95
11, 51751, Note_on_c, 3, 38, 0
11, 51780, Note_on_c, 3, 38, 74
11, 51833, Note_on_c, 3, 38, 0
11, 51840, Note_on_c, 3, 34, 94
11, 51945, Note_on_c, 3, 34, 0
11, 51960, Note_on_c, 3, 34, 96
11, 51999, Note_on_c, 3, 34, 0
11, 52020, Note_on_c, 3, 34, 81
11, 52054, Note_on_c, 3, 34, 0
11, 52080, Note_on_c, 3, 34, 93
11, 52177, Note_on_c, 3, 34, 0
11, 52200, Note_on_c, 3, 34, 92
11, 52233, Note_on_c, 3, 34, 0
11, 52260, Note_on_c, 3, 34, 86
11, 52300, Note_on_c, 3, 34, 0
11, 52320, Note_on_c, 3, 36, 93
11, 52417, Note_on_c, 3, 36, 0
11, 52440, Note_on_c, 3, 36, 93
11, 52470, Note_on_c, 3, 36, 0
11, 52500, Note_on_c, 3, 36, 77
11, 52530, Note_on_c, 3, 36, 0
11, 52560, Note_on_c, 3, 36, 91
11, 52649, Note_on_c, 3, 36, 0
11, 52680, Note_on_c, 3, 36, 93
11, 52710, Note_on_c, 3, 36, 0
11, 52740, Note_on_c, 3, 36, 77
11, 52765, Note_on_c, 3, 36, 0
11, 52800, Note_on_c, 3, 36, 100
11, 52891, Note_on_c, 3, 36, 0
11, 52920, Note_on_c, 3, 36, 97
11, 52951, Note_on_c, 3, 36, 0
11, 52980, Note_on_c, 3, 36, 81
11, 53012, Note_on_c, 3, 36, 0
11, 53040, Note_on_c, 3, 36, 88
11, 53069, Note_on_c, 3, 36, 0
11, 53100, Note_on_c, 3, 36, 95
11, 53131, Note_on_c, 3, 36, 0
11, 53160, Note_on_c, 3, 36, 97
11, 53189, Note_on_c, 3, 36, 0
11, 53220, Note_on_c, 3, 36, 89
11, 53254, Note_on_c, 3, 36, 0
11, 53280, Note_on_c, 3, 38, 92
11, 53367, Note_on_c, 3, 38, 0
11, 53400, Note_on_c, 3, 38, 91
11, 53439, Note_on_c, 3, 38, 0
11, 53460, Note_on_c, 3, 38, 85
11, 53493, Note_on_c, 3, 38, 0
11, 53520, Note_on_c, 3, 38, 92
11, 53617, Note_on_c, 3, 38, 0
11, 53640, Note_on_c, 3, 38, 95
11, 53671, Note_on_c, 3, 38, 0
11, 53700, Note_on_c, 3, 38, 74
11, 53753, Note_on_c, 3, 38, 0
11, 53760, Note_on_c, 3, 34, 94
11, 53865, Note_on_c, 3, 34, 0
11, 53880, Note_on_c, 3, 34, 96
11, 53919, Note_on_c, 3, 34, 0
11, 53940, Note_on_c, 3, 34, 81
11, 53974, Note_on_c, 3, 34, 0
11, 54000, Note_on_c, 3, 34, 93
11, 54097, Note_on_c, 3, 34, 0
11, 54120, Note_on_c, 3, 34, 92
11, 54153, Note_on_c, 3, 34, 0
11, 54180, Note_on_c, 3, 34, 86
11, 54220, Note_on_c, 3, 34, 0
11, 54240, Note_on_c, 3, 36, 93
11, 54337, Note_on_c, 3, 36, 0
11, 54360, Note_on_c, 3, 36, 93
11, 54390, Note_on_c, 3, 36, 0
11, 54420, Note_on_c, 3, 36, 77
11, 54450, Note_on_c, 3, 36, 0
11, 54480, Note_on_c, 3, 36, 91
11, 54569, Note_on_c, 3, 36, 0
11, 54600, Note_on_c, 3, 36, 93
11, 54630, Note_on_c, 3, 36, 0
11, 54660, Note_on_c, 3, 36, 77
11, 54685, Note_on_c, 3, 36, 0
11, 54720, Note_on_c, 3, 36, 100
11, 54811, Note_on_c, 3, 36, 0
11, 54840, Note_on_c, 3, 36, 97
11, 54871, Note_on_c, 3, 36, 0
11, 54900, Note_on_c, 3, 36, 81
11, 54932, Note_on_c, 3, 36, 0
11, 54960, Note_on_c, 3, 36, 88
11, 54989, Note_on_c, 3, 36, 0
11, 55020, Note_on_c, 3, 36, 95
11, 55051, Note_on_c, 3, 36, 0
11, 55080, Note_on_c, 3, 36, 97
11, 55109, Note_on_c, 3, 36, 0
11, 55140, Note_on_c, 3, 36, 89
11, 55174, Note_on_c, 3, 36, 0
11, 55200, Note_on_c, 3, 38, 92
11, 55287, Note_on_c, 3, 38, 0
11, 55320, Note_on_c, 3, 38, 91
11, 55359, Note_on_c, 3, 38, 0
11, 55380, Note_on_c, 3, 38, 85
11, 55413, Note_on_c, 3, 38, 0
11, 55440, Note_on_c, 3, 38, 92
11, 55537, Note_on_c, 3, 38, 0
11, 55560, Note_on_c, 3, 38, 95
11, 55591, Note_on_c, 3, 38, 0
11, 55620, Note_on_c, 3, 38, 74
11, 55673, Note_on_c, 3, 38, 0
11, 55680, Note_on_c, 3, 34, 94
11, 55785, Note_on_c, 3, 34, 0
11, 55800, Note_on_c, 3, 34, 96
11, 55839, Note_on_c, 3, 34, 0
11, 55860, Note_on_c, 3, 34, 81
11, 55894, Note_on_c, 3, 34, 0
11, 55920, Note_on_c, 3, 34, 93
11, 56017, Note_on_c, 3, 34, 0
11, 56040, Note_on_c, 3, 34, 92
11, 56073, Note_on_c, 3, 34, 0
11, 56100, Note_on_c, 3, 34, 86
11, 56140, Note_on_c, 3, 34, 0
11, 56160, Note_on_c, 3, 36, 93
11, 56257, Note_on_c, 3, 36, 0
11, 56280, Note_on_c, 3, 36, 93
11, 56310, Note_on_c, 3, 36, 0
11, 56340, Note_on_c, 3, 36, 77
11, 56370, Note_on_c, 3, 36, 0
11, 56400, Note_on_c, 3, 36, 91
11, 56489, Note_on_c, 3, 36, 0
11, 56520, Note_on_c, 3, 36, 93
11, 56550, Note_on_c, 3, 36, 0
11, 56580, Note_on_c, 3, 36, 77
11, 56605, Note_on_c, 3, 36, 0
11, 56640, Note_on_c, 3, 36, 100
11, 56731, Note_on_c, 3, 36, 0
11, 56760, Note_on_c, 3, 36, 97
11, 56791, Note_on_c, 3, 36, 0
11, 56820, Note_on_c, 3, 36, 81
11, 56852, Note_on_c, 3, 36, 0
11, 56880, Note_on_c, 3, 36, 88
11, 56909, Note_on_c, 3, 36, 0
11, 56940, Note_on_c, 3, 36, 95
11, 56971, Note_on_c, 3, 36, 0
11, 57000, Note_on_c, 3, 36, 97
11, 57029, Note_on_c, 3, 36, 0
11, 57060, Note_on_c, 3, 36, 89
11, 57094, Note_on_c, 3, 36, 0
11, 57120, Note_on_c, 3, 38, 92
11, 57207, Note_on_c, 3, 38, 0
11, 57240, Note_on_c, 3, 38, 91
11, 57279, Note_on_c, 3, 38, 0
11, 57300, Note_on_c, 3, 38, 85
11, 57333, Note_on_c, 3, 38, 0
11, 57360, Note_on_c, 3, 38, 92
11, 57457, Note_on_c, 3, 38, 0
11, 57480, Note_on_c, 3, 38, 95
11, 57511, Note_on_c, 3, 38, 0
11, 57540, Note_on_c, 3, 38, 74
11, 57593, Note_on_c, 3, 38, 0
11, 57600, Note_on_c, 3, 34, 94
11, 57705, Note_on_c, 3, 34, 0
11, 57720, Note_on_c, 3, 34, 96
11, 57759, Note_on_c, 3, 34, 0
11, 57780, Note_on_c, 3, 34, 81
11, 57814, Note_on_c, 3, 34, 0
11, 57840, Note_on_c, 3, 34, 93
11, 57937, Note_on_c, 3, 34, 0
11, 57960, Note_on_c, 3, 34, 92
11, 57993, Note_on_c, 3, 34, 0
11, 58020, Note_on_c, 3, 34, 86
11, 58060, Note_on_c, 3, 34, 0
11, 58080, Note_on_c, 3, 36, 93
11, 58177, Note_on_c, 3, 36, 0
11, 58200, Note_on_c, 3, 36, 93
11, 58230, Note_on_c, 3, 36, 0
11, 58260, Note_on_c, 3, 36, 77
11, 58290, Note_on_c, 3, 36, 0
11, 58320, Note_on_c, 3, 36, 91
11, 58409, Note_on_c, 3, 36, 0
11, 58440, Note_on_c, 3, 36, 93
11, 58470, Note_on_c, 3, 36, 0
11, 58500, Note_on_c, 3, 36, 77
11, 58525, Note_on_c, 3, 36, 0
11, 58560, Note_on_c, 3, 36, 100
11, 58651, Note_on_c, 3, 36, 0
11, 58680, Note_on_c, 3, 36, 97
11, 58711, Note_on_c, 3, 36, 0
11, 58740, Note_on_c, 3, 36, 81
11, 58772, Note_on_c, 3, 36, 0
11, 58800, Note_on_c, 3, 36, 88
11, 58829, Note_on_c, 3, 36, 0
11, 58860, Note_on_c, 3, 36, 95
11, 58891, Note_on_c, 3, 36, 0
11, 58920, Note_on_c, 3, 36, 97
11, 58949, Note_on_c, 3, 36, 0
11, 58980, Note_on_c, 3, 36, 89
11, 59014, Note_on_c, 3, 36, 0
11, 59040, Note_on_c, 3, 38, 92
11, 59127, Note_on_c, 3, 38, 0
11, 59160, Note_on_c, 3, 38, 91
11, 59199, Note_on_c, 3, 38, 0
11, 59220, Note_on_c, 3, 38, 85
11, 59253, Note_on_c, 3, 38, 0
11, 59280, Note_on_c, 3, 38, 92
11, 59377, Note_on_c, 3, 38, 0
11, 59400, Note_on_c, 3, 38, 95
11, 59431, Note_on_c, 3, 38, 0
11, 59460, Note_on_c, 3, 38, 74
11, 59513, Note_on_c, 3, 38, 0
11, 59520, Note_on_c, 3, 34, 94
11, 59625, Note_on_c, 3, 34, 0
11, 59640, Note_on_c, 3, 34, 96
11, 59679, Note_on_c, 3, 34, 0
11, 59700, Note_on_c, 3, 34, 81
11, 59734, Note_on_c, 3, 34, 0
11, 59760, Note_on_c, 3, 34, 93
11, 59857, Note_on_c, 3, 34, 0
11, 59880, Note_on_c, 3, 34, 92
11, 59913, Note_on_c, 3, 34, 0
11, 59940, Note_on_c, 3, 34, 86
11, 59980, Note_on_c, 3, 34, 0
11, 60000, Note_on_c, 3, 36, 93
11, 60097, Note_on_c, 3, 36, 0
11, 60120, Note_on_c, 3, 36, 93
11, 60150, Note_on_c, 3, 36, 0
11, 60180, Note_on_c, 3, 36, 77
11, 60210, Note_on_c, 3, 36, 0
11, 60240, Note_on_c, 3, 36, 91
11, 60329, Note_on_c, 3, 36, 0
11, 60360, Note_on_c, 3, 36, 93
11, 60390, Note_on_c, 3, 36, 0
11, 60420, Note_on_c, 3, 36, 77
11, 60445, Note_on_c, 3, 36, 0
11, 60480, Note_on_c, 3, 36, 100
11, 60571, Note_on_c, 3, 36, 0
11, 60600, Note_on_c, 3, 36, 97
11, 60631, Note_on_c, 3, 36, 0
11, 60660, Note_on_c, 3, 36, 81
11, 60692, Note_on_c, 3, 36, 0
11, 60720, Note_on_c, 3, 36, 88
11, 60749, Note_on_c, 3, 36, 0
11, 60780, Note_on_c, 3, 36, 95
11, 60811, Note_on_c, 3, 36, 0
11, 60840, Note_on_c, 3, 36, 97
11, 60869, Note_on_c, 3, 36, 0
11, 60900, Note_on_c, 3, 36, 89
11, 60934, Note_on_c, 3, 36, 0
11, 60960, Note_on_c, 3, 38, 92
11, 61047, Note_on_c, 3, 38, 0
11, 61080, Note_on_c, 3, 38, 91
11, 61119, Note_on_c, 3, 38, 0
11, 61140, Note_on_c, 3, 38, 85
11, 61173, Note_on_c, 3, 38, 0
11, 61200, Note_on_c, 3, 38, 92
11, 61297, Note_on_c, 3, 38, 0
11, 61320, Note_on_c, 3, 38, 95
11, 61351, Note_on_c, 3, 38, 0
11, 61380, Note_on_c, 3, 38, 74
11, 61433, Note_on_c, 3, 38, 0
11, 61440, Note_on_c, 3, 34, 94
11, 61545, Note_on_c, 3, 34, 0
11, 61560, Note_on_c, 3, 34, 96
11, 61599, Note_on_c, 3, 34, 0
11, 61620, Note_on_c, 3, 34, 81
11, 61654, Note_on_c, 3, 34, 0
11, 61680, Note_on_c, 3, 34, 93
11, 61777, Note_on_c, 3, 34, 0
11, 61800, Note_on_c, 3, 34, 92
11, 61833, Note_on_c, 3, 34, 0
11, 61860, Note_on_c, 3, 34, 86
11, 61900, Note_on_c, 3, 34, 0
11, 61920, Note_on_c, 3, 36, 93
11, 62017, Note_on_c, 3, 36, 0
11, 62040, Note_on_c, 3, 36, 93
11, 62070, Note_on_c, 3, 36, 0
11, 62100, Note_on_c, 3, 36, 77
11, 62130, Note_on_c, 3, 36, 0
11, 62160, Note_on_c, 3, 36, 91
11, 62249, Note_on_c, 3, 36, 0
11, 62280, Note_on_c, 3, 36, 93
11, 62310, Note_on_c, 3, 36, 0
11, 62340, Note_on_c, 3, 36, 77
11, 62365, Note_on_c, 3, 36, 0
11, 62400, Note_on_c, 3, 36, 100
11, 62491, Note_on_c, 3, 36, 0
11, 62520, Note_on_c, 3, 36, 97
11, 62551, Note_on_c, 3, 36, 0
11, 62580, Note_on_c, 3, 36, 81
11, 62612, Note_on_c, 3, 36, 0
11, 62640, Note_on_c, 3, 36, 88
11, 62669, Note_on_c, 3, 36, 0
11, 62700, Note_on_c, 3, 36, 95
11, 62731, Note_on_c, 3, 36, 0
11, 62760, Note_on_c, 3, 36, 97
11, 62789, Note_on_c, 3, 36, 0
11, 62820, Note_on_c, 3, 36, 89
11, 62854, Note_on_c, 3, 36, 0
11, 62880, Note_on_c, 3, 38, 92
11, 62967, Note_on_c, 3, 38, 0
11, 63000, Note_on_c, 3, 38, 91
11, 63039, Note_on_c, 3, 38, 0
11, 63060, Note_on_c, 3, 38, 85
11, 63093, Note_on_c, 3, 38, 0
11, 63120, Note_on_c, 3, 38, 92
11, 63217, Note_on_c, 3, 38, 0
11, 63240, Note_on_c, 3, 38, 95
11, 63271, Note_on_c, 3, 38, 0
11, 63300, Note_on_c, 3, 38, 74
11, 63353, Note_on_c, 3, 38, 0
11, 63360, Note_on_c, 3, 34, 94
11, 63465, Note_on_c, 3, 34, 0
11, 63480, Note_on_c, 3, 34, 96
11, 63519, Note_on_c, 3, 34, 0
11, 63540, Note_on_c, 3, 34, 81
11, 63574, Note_on_c, 3, 34, 0
11, 63600, Note_on_c, 3, 34, 93
11, 63697, Note_on_c, 3, 34, 0
11, 63720, Note_on_c, 3, 34, 92
11, 63753, Note_on_c, 3, 34, 0
11, 63780, Note_on_c, 3, 34, 86
11, 63820, Note_on_c, 3, 34, 0
11, 63840, Note_on_c, 3, 36, 93
11, 63937, Note_on_c, 3, 36, 0
11, 63960, Note_on_c, 3, 36, 93
11, 63990, Note_on_c, 3, 36, 0
11, 64020, Note_on_c, 3, 36, 77
11, 64050, Note_on_c, 3, 36, 0
11, 64080, Note_on_c, 3, 36, 91
11, 64169, Note_on_c, 3, 36, 0
11, 64200, Note_on_c, 3, 36, 93
11, 64230, Note_on_c, 3, 36, 0
11, 64260, Note_on_c, 3, 36, 77
11, 64285, Note_on_c, 3, 36, 0
11, 64320, Note_on_c, 3, 36, 100
11, 64411, Note_on_c, 3, 36, 0
11, 64440, Note_on_c, 3, 36, 97
11, 64471, Note_on_c, 3, 36, 0
11, 64500, Note_on_c, 3, 36, 81
11, 64532, Note_on_c, 3, 36, 0
11, 64560, Note_on_c, 3, 36, 88
11, 64589, Note_on_c, 3, 36, 0
11, 64620, Note_on_c, 3, 36, 95
11, 64651, Note_on_c, 3, 36, 0
11, 64680, Note_on_c, 3, 36, 97
11, 64709, Note_on_c, 3, 36, 0
11, 64740, Note_on_c, 3, 36, 89
11, 64774, Note_on_c, 3, 36, 0
11, 64800, Note_on_c, 3, 38, 92
11, 64887, Note_on_c, 3, 38, 0
11, 64920, Note_on_c, 3, 38, 91
11, 64959, Note_on_c, 3, 38, 0
11, 64980, Note_on_c, 3, 38, 85
11, 65013, Note_on_c, 3, 38, 0
11, 65040, Note_on_c, 3, 38, 92
11, 65137, Note_on_c, 3, 38, 0
11, 65160, Note_on_c, 3, 38, 95
11, 65191, Note_on_c, 3, 38, 0
11, 65220, Note_on_c, 3, 38, 74
11, 65273, Note_on_c, 3, 38, 0
11, 65280, Note_on_c, 3, 34, 94
11, 65385, Note_on_c, 3, 34, 0
11, 65400, Note_on_c, 3, 34, 96
11, 65439, Note_on_c, 3, 34, 0
11, 65460, Note_on_c, 3, 34, 81
11, 65494, Note_on_c, 3, 34, 0
11, 65520, Note_on_c, 3, 34, 93
11, 65617, Note_on_c, 3, 34, 0
11, 65640, Note_on_c, 3, 34, 92
11, 65673, Note_on_c, 3, 34, 0
11, 65700, Note_on_c, 3, 34, 86
11, 65740, Note_on_c, 3, 34, 0
11, 65760, Note_on_c, 3, 36, 93
11, 65857, Note_on_c, 3, 36, 0
11, 65880, Note_on_c, 3, 36, 93
11, 65910, Note_on_c, 3, 36, 0
11, 65940, Note_on_c, 3, 36, 77
11, 65970, Note_on_c, 3, 36, 0
11, 66000, Note_on_c, 3, 36, 91
11, 66089, Note_on_c, 3, 36, 0
11, 66120, Note_on_c, 3, 36, 93
11, 66150, Note_on_c, 3, 36, 0
11, 66180, Note_on_c, 3, 36, 77
11, 66205, Note_on_c, 3, 36, 0
11, 66240, Note_on_c, 3, 36, 100
11, 66331, Note_on_c, 3, 36, 0
11, 66360, Note_on_c, 3, 36, 97
11, 66391, Note_on_c, 3, 36, 0
11, 66420, Note_on_c, 3, 36, 81
11, 66452, Note_on_c, 3, 36, 0
11, 66480, Note_on_c, 3, 36, 88
11, 66509, Note_on_c, 3, 36, 0
11, 66540, Note_on_c, 3, 36, 95
11, 66571, Note_on_c, 3, 36, 0
11, 66600, Note_on_c, 3, 36, 97
11, 66629, Note_on_c, 3, 36, 0
11, 66660, Note_on_c, 3, 36, 89
11, 66694, Note_on_c, 3, 36, 0
11, 66720, Note_on_c, 3, 38, 90
11, 66807, Note_on_c, 3, 38, 0
11, 66840, Note_on_c, 3, 38, 88
11, 66879, Note_on_c, 3, 38, 0
11, 66900, Note_on_c, 3, 38, 82
11, 66933, Note_on_c, 3, 38, 0
11, 66960, Note_on_c, 3, 38, 88
11, 67057, Note_on_c, 3, 38, 0
11, 67080, Note_on_c, 3, 38, 90
11, 67111, Note_on_c, 3, 38, 0
11, 67140, Note_on_c, 3, 38, 69
11, 67193, Note_on_c, 3, 38, 0
11, 67200, Note_on_c, 3, 34, 88
11, 67305, Note_on_c, 3, 34, 0
11, 67320, Note_on_c, 3, 34, 88
11, 67359, Note_on_c, 3, 34, 0
11, 67380, Note_on_c, 3, 34, 74
11, 67414, Note_on_c, 3, 34, 0
11, 67440, Note_on_c, 3, 34, 84
11, 67537, Note_on_c, 3, 34, 0
11, 67560, Note_on_c, 3, 34, 82
11, 67593, Note_on_c, 3, 34, 0
11, 67620, Note_on_c, 3, 34, 76
11, 67660, Note_on_c, 3, 34, 0
11, 67680, Note_on_c, 3, 36, 82
11, 67777, Note_on_c, 3, 36, 0
11, 67800, Note_on_c, 3, 36, 81
11, 67830, Note_on_c, 3, 36, 0
11, 67860, Note_on_c, 3, 36, 66
11, 67890, Note_on_c, 3, 36, 0
11, 67920, Note_on_c, 3, 36, 78
11, 68009, Note_on_c, 3, 36, 0
11, 68040, Note_on_c, 3, 36, 79
11, 68070, Note_on_c, 3, 36, 0
11, 68100, Note_on_c, 3, 36, 64
11, 68125, Note_on_c, 3, 36, 0
11, 68160, Note_on_c, 3, 36, 84
11, 68251, Note_on_c, 3, 36, 0
11, 68280, Note_on_c, 3, 36, 80
11, 68311, Note_on_c, 3, 36, 0
11, 68340, Note_on_c, 3, 36, 66
11, 68372, Note_on_c, 3, 36, 0
11, 68400, Note_on_c, 3, 36, 71
11, 68429, Note_on_c, 3, 36, 0
11, 68460, Note_on_c, 3, 36, 76
11, 68491, Note_on_c, 3, 36, 0
11, 68520, Note_on_c, 3, 36, 77
11, 68549, Note_on_c, 3, 36, 0
11, 68580, Note_on_c, 3, 36, 71
11, 68614, Note_on_c, 3, 36, 0
11, 68640, Note_on_c, 3, 38, 72
11, 68727, Note_on_c, 3, 38, 0
11, 68760, Note_on_c, 3, 38, 70
11, 68799, Note_on_c, 3, 38, 0
11, 68820, Note_on_c, 3, 38, 65
11, 68853, Note_on_c, 3, 38, 0
11, 68880, Note_on_c, 3, 38, 70
11, 68977, Note_on_c, 3, 38, 0
11, 69000, Note_on_c, 3, 38, 71
11, 69031, Note_on_c, 3, 38, 0
11, 69060, Note_on_c, 3, 38, 55
11, 69113, Note_on_c, 3, 38, 0
11, 69120, Note_on_c, 3, 34, 69
11, 69225, Note_on_c, 3, 34, 0
11, 69240, Note_on_c, 3, 34, 70
11, 69279, Note_on_c, 3, 34, 0
11, 69300, Note_on_c, 3, 34, 58
11, 69334, Note_on_c, 3, 34, 0
11, 69360, Note_on_c, 3, 34, 66
11, 69457, Note_on_c, 3, 34, 0
11, 69480, Note_on_c, 3, 34, 64
11, 69513, Note_on_c, 3, 34, 0
11, 69540, Note_on_c, 3, 34, 60
11, 69580, Note_on_c, 3, 34, 0
11, 69600, Note_on_c, 3, 36, 64
11, 69697, Note_on_c, 3, 36, 0
11, 69720, Note_on_c, 3, 36, 63
11, 69750, Note_on_c, 3, 36, 0
11, 69780, Note_on_c, 3, 36, 51
11, 69810, Note_on_c, 3, 36, 0
11, 69840, Note_on_c, 3, 36, 60
11, 69929, Note_on_c, 3, 36, 0
11, 69960, Note_on_c, 3, 36, 61
11, 69990, Note_on_c, 3, 36, 0
11, 70020, Note_on_c, 3, 36, 50
11, 70045, Note_on_c, 3, 36, 0
11, 70080, Note_on_c, 3, 36, 64
11, 70171, Note_on_c, 3, 36, 0
11, 70200, Note_on_c, 3, 36, 61
11, 70231, Note_on_c, 3, 36, 0
11, 70260, Note_on_c, 3, 36, 51
11, 70292, Note_on_c, 3, 36, 0
11, 70320, Note_on_c, 3, 36, 54
11, 70349, Note_on_c, 3, 36, 0
11, 70380, Note_on_c, 3, 36, 57
11, 70411, Note_on_c, 3, 36, 0
11, 70440, Note_on_c, 3, 36, 59
11, 70469, Note_on_c, 3, 36, 0
11, 70500, Note_on_c, 3, 36, 53
11, 70534, Note_on_c, 3, 36, 0
11, 70560, Note_on_c, 3, 38, 54
11, 70647, Note_on_c, 3, 38, 0
11, 70680, Note_on_c, 3, 38, 52
11, 70719, Note_on_c, 3, 38, 0
11, 70740, Note_on_c, 3, 38, 49
11, 70773, Note_on_c, 3, 38, 0
11, 70800, Note_on_c, 3, 38, 52
11, 70897, Note_on_c, 3, 38, 0
11, 70920, Note_on_c, 3, 38, 53
11, 70951, Note_on_c, 3, 38, 0
11, 70980, Note_on_c, 3, 38, 40
11, 71033, Note_on_c, 3, 38, 0
11, 71040, Note_on_c, 3, 34, 51
11, 71145, Note_on_c, 3, 34, 0
11, 71160, Note_on_c, 3, 34, 50
11, 71199, Note_on_c, 3, 34, 0
11, 71220, Note_on_c, 3, 34, 42
11, 71254, Note_on_c, 3, 34, 0
11, 71280, Note_on_c, 3, 34, 48
11, 71377, Note_on_c, 3, 34, 0
11, 71400, Note_on_c, 3, 34, 46
11, 71433, Note_on_c, 3, 34, 0
11, 71460, Note_on_c, 3, 34, 43
11, 71500, Note_on_c, 3, 34, 0
11, 71520, Note_on_c, 3, 36, 46
11, 71617, Note_on_c, 3, 36, 0
11, 71640, Note_on_c, 3, 36, 44
11, 71670, Note_on_c, 3, 36, 0
11, 71700, Note_on_c, 3, 36, 36
11, 71730, Note_on_c, 3, 36, 0
11, 71760, Note_on_c, 3, 36, 42
11, 71849, Note_on_c, 3, 36, 0
11, 71880, Note_on_c, 3, 36, 42
11, 71910, Note_on_c, 3, 36, 0
11, 71940, Note_on_c, 3, 36, 34
11, 71965, Note_on_c, 3, 36, 0
11, 72000, Note_on_c, 3, 36, 45
11, 72091, Note_on_c, 3, 36, 0
11, 72120, Note_on_c, 3, 36, 42
11, 72151, Note_on_c, 3, 36, 0
11, 72180, Note_on_c, 3, 36, 34
11, 72212, Note_on_c, 3, 36, 0
11, 72240, Note_on_c, 3, 36, 36
11, 72269, Note_on_c, 3, 36, 0
11, 72300, Note_on_c, 3, 36, 39
11, 72331, Note_on_c, 3, 36, 0
11, 72360, Note_on_c, 3, 36, 39
11, 72389, Note_on_c, 3, 36, 0
11, 72420, Note_on_c, 3, 36, 36
11, 72454, Note_on_c, 3, 36, 0
11, 72480, Note_on_c, 3, 38, 36
11, 72567, Note_on_c, 3, 38, 0
11, 72600, Note_on_c, 3, 38, 35
11, 72639, Note_on_c, 3, 38, 0
11, 72660, Note_on_c, 3, 38, 32
11, 72693, Note_on_c, 3, 38, 0
11, 72720, Note_on_c, 3, 38, 34
11, 72817, Note_on_c, 3, 38, 0
11, 72840, Note_on_c, 3, 38, 34
11, 72871, Note_on_c, 3, 38, 0
11, 72900, Note_on_c, 3, 38, 26
11, 72953, Note_on_c, 3, 38, 0
11, 72960, Note_on_c, 3, 34, 32
11, 73065, Note_on_c, 3, 34, 0
11, 73080, Note_on_c, 3, 34, 32
11, 73119, Note_on_c, 3, 34, 0
11, 73140, Note_on_c, 3, 34, 26
11, 73174, Note_on_c, 3, 34, 0
11, 73200, Note_on_c, 3, 34, 30
11, 73297, Note_on_c, 3, 34, 0
11, 73320, Note_on_c, 3, 34, 28
11, 73353, Note_on_c, 3, 34, 0
11, 73380, Note_on_c, 3, 34, 26
11, 73420, Note_on_c, 3, 34, 0
11, 73440, Note_on_c, 3, 36, 27
11, 73537, Note_on_c, 3, 36, 0
11, 73560, Note_on_c, 3, 36, 26
11, 73590, Note_on_c, 3, 36, 0
11, 73620, Note_on_c, 3, 36, 21
11, 73650, Note_on_c, 3, 36, 0
11, 73680, Note_on_c, 3, 36, 25
11, 73769, Note_on_c, 3, 36, 0
11, 73800, Note_on_c, 3, 36, 25
11, 73830, Note_on_c, 3, 36, 0
11, 73860, Note_on_c, 3, 36, 20
11, 73885, Note_on_c, 3, 36, 0
11, 73920, Note_on_c, 3, 36, 23
11, 74011, Note_on_c, 3, 36, 0
11, 74040, Note_on_c, 3, 36, 19
11, 74071, Note_on_c, 3, 36, 0
11, 74100, Note_on_c, 3, 36, 14
11, 74132, Note_on_c, 3, 36, 0
11, 74160, Note_on_c, 3, 36, 14
11, 74189, Note_on_c, 3, 36, 0
11, 74220, Note_on_c, 3, 36, 14
11, 74251, Note_on_c, 3, 36, 0
11, 74280, Note_on_c, 3, 36, 13
11, 74309, Note_on_c, 3, 36, 0
11, 74340, Note_on_c, 3, 36, 10
11, 74374, Note_on_c, 3, 36, 0
11, 74400, Note_on_c, 3, 38, 10
11, 74487, Note_on_c, 3, 38, 0
11, 74520, Note_on_c, 3, 38, 8
11, 74559, Note_on_c, 3, 38, 0
11, 74580, Note_on_c, 3, 38, 7
11, 74613, Note_on_c, 3, 38, 0
11, 74640, Note_on_c, 3, 38, 6
11, 74737, Note_on_c, 3, 38, 0
11, 74760, Note_on_c, 3, 38, 5
11, 74791, Note_on_c, 3, 38, 0
11, 74820, Note_on_c, 3, 38, 3
11, 74873, Note_on_c, 3, 38, 0
11, 74880, Note_on_c, 3, 34, 4
11, 74985, Note_on_c, 3, 34, 0
11, 75000, Note_on_c, 3, 34, 3
11, 75039, Note_on_c, 3, 34, 0
11, 75060, Note_on_c, 3, 34, 2
11, 75094, Note_on_c, 3, 34, 0
11, 75120, Note_on_c, 3, 34, 1
11, 75217, Note_on_c, 3, 34, 0
11, 75240, Note_on_c, 3, 34, 1
11, 75273, Note_on_c, 3, 34, 0
11, 75273, End_track
12, 0, Start_track
12, 64, Control_c, 4, 1, 0
12, 128, Control_c, 4, 64, 0
12, 140, Control_c, 4, 0, 0
12, 141, Control_c, 4, 32, 3
12, 142, Program_c, 4, 28
12, 143, Control_c, 4, 7, 94
12, 143, Control_c, 4, 10, 34
12, 189, Control_c, 4, 0, 0
12, 190, Control_c, 4, 32, 0
12, 191, Program_c, 4, 28
12, 192, Control_c, 4, 11, 127
12, 194, Control_c, 4, 0, 0
12, 195, Control_c, 4, 32, 3
12, 196, Program_c, 4, 28
12, 256, Pitch_bend_c, 4, 8192
12, 320, Control_c, 4, 91, 72
12, 384, Control_c, 4, 93, 25
12, 448, Control_c, 4, 94, 0
12, 960, Note_on_c, 4, 53, 74
12, 1043, Note_on_c, 4, 53, 0
12, 1080, Note_on_c, 4, 53, 54
12, 1106, Note_on_c, 4, 53, 0
12, 1140, Note_on_c, 4, 53, 70
12, 1236, Note_on_c, 4, 53, 0
12, 1260, Note_on_c, 4, 53, 54
12, 1288, Note_on_c, 4, 53, 0
12, 1320, Note_on_c, 4, 53, 64
12, 1350, Note_on_c, 4, 53, 0
12, 1380, Note_on_c, 4, 53, 52
12, 1405, Note_on_c, 4, 53, 0
12, 1440, Note_on_c, 4, 53, 72
12, 1472, Note_on_c, 4, 53, 0
12, 1500, Note_on_c, 4, 53, 47
12, 1530, Note_on_c, 4, 53, 0
12, 1560, Note_on_c, 4, 53, 50
12, 1588, Note_on_c, 4, 53, 0
12, 1620, Note_on_c, 4, 53, 72
12, 1714, Note_on_c, 4, 53, 0
12, 1740, Note_on_c, 4, 53, 54
12, 1768, Note_on_c, 4, 53, 0
12, 1800, Note_on_c, 4, 53, 54
12, 1828, Note_on_c, 4, 53, 0
12, 1860, Note_on_c, 4, 53, 45
12, 1886, Note_on_c, 4, 53, 0
12, 1920, Note_on_c, 4, 53, 72
12, 1953, Note_on_c, 4, 53, 0
12, 1980, Note_on_c, 4, 53, 50
12, 2009, Note_on_c, 4, 53, 0
12, 2040, Note_on_c, 4, 53, 50
12, 2064, Note_on_c, 4, 53, 0
12, 2100, Note_on_c, 4, 53, 73
12, 2190, Note_on_c, 4, 53, 0
12, 2220, Note_on_c, 4, 53, 51
12, 2245, Note_on_c, 4, 53, 0
12, 2280, Note_on_c, 4, 53, 63
12, 2304, Note_on_c, 4, 53, 0
12, 2340, Note_on_c, 4, 53, 47
12, 2360, Note_on_c, 4, 53, 0
12, 2400, Note_on_c, 4, 53, 75
12, 2430, Note_on_c, 4, 53, 0
12, 2460, Note_on_c, 4, 53, 47
12, 2487, Note_on_c, 4, 53, 0
12, 2520, Note_on_c, 4, 53, 52
12, 2546, Note_on_c, 4, 53, 0
12, 2580, Note_on_c, 4, 53, 69
12, 2671, Note_on_c, 4, 53, 0
12, 2700, Note_on_c, 4, 53, 49
12, 2728, Note_on_c, 4, 53, 0
12, 2760, Note_on_c, 4, 53, 54
12, 2786, Note_on_c, 4, 53, 0
12, 2820, Note_on_c, 4, 53, 49
12, 2841, Note_on_c, 4, 53, 0
12, 2880, Note_on_c, 4, 53, 75
12, 2910, Note_on_c, 4, 53, 0
12, 2940, Note_on_c, 4, 53, 47
12, 2967, Note_on_c, 4, 53, 0
12, 3000, Note_on_c, 4, 53, 52
12, 3026, Note_on_c, 4, 53, 0
12, 3060, Note_on_c, 4, 53, 69
12, 3151, Note_on_c, 4, 53, 0
12, 3180, Note_on_c, 4, 53, 49
12, 3208, Note_on_c, 4, 53, 0
12, 3240, Note_on_c, 4, 53, 54
12, 3266, Note_on_c, 4, 53, 0
12, 3300, Note_on_c, 4, 53, 49
12, 3321, Note_on_c, 4, 53, 0
12, 3420, Note_on_c, 4, 48, 41
12, 3422, Note_on_c, 4, 52, 41
12, 3435, Note_on_c, 4, 52, 0
12, 3440, Note_on_c, 4, 48, 0
12, 3532, Note_on_c, 4, 48, 51
12, 3540, Note_on_c, 4, 52, 52
12, 3551, Note_on_c, 4, 52, 0
12, 3561, Note_on_c, 4, 48, 0
12, 3649, Note_on_c, 4, 48, 56
12, 3652, Note_on_c, 4, 52, 56
12, 3665, Note_on_c, 4, 52, 0
12, 3669, Note_on_c, 4, 48, 0
12, 3758, Note_on_c, 4, 48, 61
12, 3761, Note_on_c, 4, 52, 61
12, 3772, Note_on_c, 4, 52, 0
12, 3772, Note_on_c, 4, 48, 0
12, 3840, Note_on_c, 4, 46, 63
12, 3866, Note_on_c, 4, 46, 0
12, 3900, Note_on_c, 4, 46, 51
12, 3929, Note_on_c, 4, 46, 0
12, 3960, Note_on_c, 4, 46, 62
12, 3984, Note_on_c, 4, 46, 0
12, 4020, Note_on_c, 4, 46, 78
12, 4133, Note_on_c, 4, 46, 0
12, 4140, Note_on_c, 4, 50, 62
12, 4198, Note_on_c, 4, 50, 0
12, 4200, Note_on_c, 4, 46, 51
12, 4227, Note_on_c, 4, 46, 0
12, 4260, Note_on_c, 4, 46, 58
12, 4292, Note_on_c, 4, 46, 0
12, 4320, Note_on_c, 4, 46, 67
12, 4380, Note_on_c, 4, 46, 0
12, 4380, Note_on_c, 4, 50, 52
12, 4429, Note_on_c, 4, 50, 0
12, 4440, Note_on_c, 4, 46, 56
12, 4464, Note_on_c, 4, 46, 0
12, 4500, Note_on_c, 4, 46, 72
12, 4606, Note_on_c, 4, 46, 0
12, 4620, Note_on_c, 4, 50, 61
12, 4657, Note_on_c, 4, 50, 0
12, 4680, Note_on_c, 4, 46, 63
12, 4710, Note_on_c, 4, 46, 0
12, 4740, Note_on_c, 4, 46, 61
12, 4770, Note_on_c, 4, 46, 0
12, 4800, Note_on_c, 4, 46, 69
12, 4860, Note_on_c, 4, 50, 51
12, 4863, Note_on_c, 4, 46, 0
12, 4898, Note_on_c, 4, 50, 0
12, 4920, Note_on_c, 4, 46, 62
12, 4946, Note_on_c, 4, 46, 0
12, 4980, Note_on_c, 4, 46, 70
12, 5089, Note_on_c, 4, 46, 0
12, 5100, Note_on_c, 4, 46, 44
12, 5123, Note_on_c, 4, 46, 0
12, 5160, Note_on_c, 4, 46, 65
12, 5191, Note_on_c, 4, 46, 0
12, 5220, Note_on_c, 4, 46, 60
12, 5233, Note_on_c, 4, 46, 0
12, 5280, Note_on_c, 4, 53, 72
12, 5313, Note_on_c, 4, 53, 0
12, 5340, Note_on_c, 4, 53, 50
12, 5369, Note_on_c, 4, 53, 0
12, 5400, Note_on_c, 4, 53, 50
12, 5424, Note_on_c, 4, 53, 0
12, 5460, Note_on_c, 4, 53, 73
12, 5550, Note_on_c, 4, 53, 0
12, 5580, Note_on_c, 4, 53, 51
12, 5605, Note_on_c, 4, 53, 0
12, 5640, Note_on_c, 4, 53, 63
12, 5664, Note_on_c, 4, 53, 0
12, 5700, Note_on_c, 4, 53, 47
12, 5720, Note_on_c, 4, 53, 0
12, 5760, Note_on_c, 4, 53, 75
12, 5790, Note_on_c, 4, 53, 0
12, 5820, Note_on_c, 4, 53, 47
12, 5847, Note_on_c, 4, 53, 0
12, 5880, Note_on_c, 4, 53, 52
12, 5906, Note_on_c, 4, 53, 0
12, 5940, Note_on_c, 4, 53, 69
12, 6031, Note_on_c, 4, 53, 0
12, 6060, Note_on_c, 4, 53, 49
12, 6088, Note_on_c, 4, 53, 0
12, 6120, Note_on_c, 4, 53, 54
12, 6146, Note_on_c, 4, 53, 0
12, 6180, Note_on_c, 4, 53, 49
12, 6201, Note_on_c, 4, 53, 0
12, 6240, Note_on_c, 4, 53, 72
12, 6273, Note_on_c, 4, 53, 0
12, 6300, Note_on_c, 4, 53, 50
12, 6329, Note_on_c, 4, 53, 0
12, 6360, Note_on_c, 4, 53, 50
12, 6384, Note_on_c, 4, 53, 0
12, 6420, Note_on_c, 4, 53, 73
12, 6510, Note_on_c, 4, 53, 0
12, 6540, Note_on_c, 4, 53, 51
12, 6565, Note_on_c, 4, 53, 0
12, 6600, Note_on_c, 4, 53, 63
12, 6624, Note_on_c, 4, 53, 0
12, 6660, Note_on_c, 4, 53, 47
12, 6680, Note_on_c, 4, 53, 0
12, 6720, Note_on_c, 4, 53, 75
12, 6750, Note_on_c, 4, 53, 0
12, 6780, Note_on_c, 4, 53, 47
12, 6807, Note_on_c, 4, 53, 0
12, 6840, Note_on_c, 4, 53, 52
12, 6866, Note_on_c, 4, 53, 0
12, 6900, Note_on_c, 4, 53, 69
12, 6991, Note_on_c, 4, 53, 0
12, 7020, Note_on_c, 4, 53, 49
12, 7048, Note_on_c, 4, 53, 0
12, 7080, Note_on_c, 4, 53, 54
12, 7106, Note_on_c, 4, 53, 0
12, 7140, Note_on_c, 4, 53, 49
12, 7161, Note_on_c, 4, 53, 0
12, 7200, Note_on_c, 4, 53, 75
12, 7230, Note_on_c, 4, 53, 0
12, 7260, Note_on_c, 4, 53, 47
12, 7287, Note_on_c, 4, 53, 0
12, 7320, Note_on_c, 4, 53, 52
12, 7346, Note_on_c, 4, 53, 0
12, 7380, Note_on_c, 4, 53, 69
12, 7471, Note_on_c, 4, 53, 0
12, 7500, Note_on_c, 4, 53, 49
12, 7528, Note_on_c, 4, 53, 0
12, 7560, Note_on_c, 4, 53, 54
12, 7586, Note_on_c, 4, 53, 0
12, 7620, Note_on_c, 4, 53, 49
12, 7641, Note_on_c, 4, 53, 0
12, 7740, Note_on_c, 4, 48, 41
12, 7742, Note_on_c, 4, 52, 41
12, 7755, Note_on_c, 4, 52, 0
12, 7760, Note_on_c, 4, 48, 0
12, 7852, Note_on_c, 4, 48, 51
12, 7860, Note_on_c, 4, 52, 52
12, 7871, Note_on_c, 4, 52, 0
12, 7881, Note_on_c, 4, 48, 0
12, 7969, Note_on_c, 4, 48, 56
12, 7972, Note_on_c, 4, 52, 56
12, 7985, Note_on_c, 4, 52, 0
12, 7989, Note_on_c, 4, 48, 0
12, 8078, Note_on_c, 4, 48, 61
12, 8081, Note_on_c, 4, 52, 61
12, 8092, Note_on_c, 4, 52, 0
12, 8092, Note_on_c, 4, 48, 0
12, 8160, Note_on_c, 4, 46, 63
12, 8186, Note_on_c, 4, 46, 0
12, 8220, Note_on_c, 4, 46, 51
12, 8249, Note_on_c, 4, 46, 0
12, 8280, Note_on_c, 4, 46, 62
12, 8304, Note_on_c, 4, 46, 0
12, 8340, Note_on_c, 4, 46, 78
12, 8453, Note_on_c, 4, 46, 0
12, 8460, Note_on_c, 4, 50, 62
12, 8518, Note_on_c, 4, 50, 0
12, 8520, Note_on_c, 4, 46, 51
12, 8547, Note_on_c, 4, 46, 0
12, 8580, Note_on_c, 4, 46, 58
12, 8612, Note_on_c, 4, 46, 0
12, 8640, Note_on_c, 4, 46, 67
12, 8700, Note_on_c, 4, 46, 0
12, 8700, Note_on_c, 4, 50, 52
12, 8749, Note_on_c, 4, 50, 0
12, 8760, Note_on_c, 4, 46, 56
12, 8784, Note_on_c, 4, 46, 0
12, 8820, Note_on_c, 4, 46, 72
12, 8926, Note_on_c, 4, 46, 0
12, 8940, Note_on_c, 4, 50, 61
12, 8977, Note_on_c, 4, 50, 0
12, 9000, Note_on_c, 4, 46, 63
12, 9030, Note_on_c, 4, 46, 0
12, 9060, Note_on_c, 4, 46, 61
12, 9090, Note_on_c, 4, 46, 0
12, 9120, Note_on_c, 4, 46, 69
12, 9180, Note_on_c, 4, 50, 51
12, 9183, Note_on_c, 4, 46, 0
12, 9218, Note_on_c, 4, 50, 0
12, 9240, Note_on_c, 4, 46, 62
12, 9266, Note_on_c, 4, 46, 0
12, 9300, Note_on_c, 4, 46, 70
12, 9409, Note_on_c, 4, 46, 0
12, 9420, Note_on_c, 4, 46, 44
12, 9443, Note_on_c, 4, 46, 0
12, 9480, Note_on_c, 4, 46, 65
12, 9511, Note_on_c, 4, 46, 0
12, 9540, Note_on_c, 4, 46, 60
12, 9553, Note_on_c, 4, 46, 0
12, 9600, Note_on_c, 4, 53, 72
12, 9633, Note_on_c, 4, 53, 0
12, 9660, Note_on_c, 4, 53, 50
12, 9689, Note_on_c, 4, 53, 0
12, 9720, Note_on_c, 4, 53, 50
12, 9744, Note_on_c, 4, 53, 0
12, 9780, Note_on_c, 4, 53, 73
12, 9870, Note_on_c, 4, 53, 0
12, 9900, Note_on_c, 4, 53, 51
12, 9925, Note_on_c, 4, 53, 0
12, 9960, Note_on_c, 4, 53, 63
12, 9984, Note_on_c, 4, 53, 0
12, 10020, Note_on_c, 4, 53, 47
12, 10040, Note_on_c, 4, 53, 0
12, 10080, Note_on_c, 4, 65, 63
12, 10080, Note_on_c, 4, 57, 66
12, 10080, Note_on_c, 4, 62, 65
12, 10112, Note_on_c, 4, 62, 0
12, 10114, Note_on_c, 4, 57, 0
12, 10120, Note_on_c, 4, 65, 0
12, 10143, Note_on_c, 4, 57, 63
12, 10143, Note_on_c, 4, 62, 63
12, 10143, Note_on_c, 4, 65, 63
12, 10183, Note_on_c, 4, 65, 0
12, 10183, Note_on_c, 4, 62, 0
12, 10183, Note_on_c, 4, 57, 0
12, 10200, Note_on_c, 4, 57, 63
12, 10200, Note_on_c, 4, 65, 56
12, 10200, Note_on_c, 4, 62, 59
12, 10211, Note_on_c, 4, 62, 0
12, 10221, Note_on_c, 4, 57, 0
12, 10230, Note_on_c, 4, 65, 0
12, 10260, Note_on_c, 4, 65, 52
12, 10260, Note_on_c, 4, 57, 65
12, 10260, Note_on_c, 4, 62, 69
12, 10362, Note_on_c, 4, 62, 0
12, 10363, Note_on_c, 4, 57, 0
12, 10366, Note_on_c, 4, 65, 0
12, 10380, Note_on_c, 4, 65, 51
12, 10380, Note_on_c, 4, 57, 54
12, 10380, Note_on_c, 4, 62, 55
12, 10408, Note_on_c, 4, 57, 0
12, 10410, Note_on_c, 4, 62, 0
12, 10419, Note_on_c, 4, 65, 0
12, 10440, Note_on_c, 4, 57, 69
12, 10440, Note_on_c, 4, 65, 67
12, 10440, Note_on_c, 4, 62, 60
12, 10524, Note_on_c, 4, 62, 0
12, 10530, Note_on_c, 4, 57, 0
12, 10534, Note_on_c, 4, 65, 0
12, 10560, Note_on_c, 4, 65, 60
12, 10560, Note_on_c, 4, 62, 66
12, 10560, Note_on_c, 4, 58, 71
12, 10583, Note_on_c, 4, 58, 0
12, 10587, Note_on_c, 4, 62, 0
12, 10594, Note_on_c, 4, 65, 0
12, 10623, Note_on_c, 4, 58, 63
12, 10626, Note_on_c, 4, 62, 63
12, 10626, Note_on_c, 4, 65, 63
12, 10663, Note_on_c, 4, 58, 0
12, 10666, Note_on_c, 4, 65, 0
12, 10666, Note_on_c, 4, 62, 0
12, 10680, Note_on_c, 4, 65, 59
12, 10680, Note_on_c, 4, 58, 67
12, 10680, Note_on_c, 4, 62, 69
12, 10707, Note_on_c, 4, 62, 0
12, 10708, Note_on_c, 4, 58, 0
12, 10714, Note_on_c, 4, 65, 0
12, 10740, Note_on_c, 4, 58, 72
12, 10740, Note_on_c, 4, 65, 49
12, 10740, Note_on_c, 4, 62, 63
12, 10834, Note_on_c, 4, 58, 0
12, 10837, Note_on_c, 4, 62, 0
12, 10851, Note_on_c, 4, 65, 0
12, 10860, Note_on_c, 4, 58, 62
12, 10860, Note_on_c, 4, 65, 53
12, 10860, Note_on_c, 4, 62, 52
12, 10875, Note_on_c, 4, 62, 0
12, 10888, Note_on_c, 4, 58, 0
12, 10895, Note_on_c, 4, 65, 0
12, 10920, Note_on_c, 4, 58, 63
12, 10920, Note_on_c, 4, 62, 71
12, 10920, Note_on_c, 4, 65, 59
12, 10995, Note_on_c, 4, 65, 0
12, 10995, Note_on_c, 4, 62, 0
12, 11016, Note_on_c, 4, 58, 0
12, 11040, Note_on_c, 4, 55, 80
12, 11040, Note_on_c, 4, 60, 59
12, 11040, Note_on_c, 4, 64, 78
12, 11071, Note_on_c, 4, 64, 0
12, 11072, Note_on_c, 4, 60, 0
12, 11073, Note_on_c, 4, 55, 0
12, 11100, Note_on_c, 4, 55, 63
12, 11100, Note_on_c, 4, 64, 63
12, 11103, Note_on_c, 4, 60, 63
12, 11140, Note_on_c, 4, 64, 0
12, 11140, Note_on_c, 4, 55, 0
12, 11143, Note_on_c, 4, 60, 0
12, 11160, Note_on_c, 4, 55, 71
12, 11160, Note_on_c, 4, 60, 64
12, 11160, Note_on_c, 4, 64, 72
12, 11177, Note_on_c, 4, 64, 0
12, 11181, Note_on_c, 4, 60, 0
12, 11188, Note_on_c, 4, 55, 0
12, 11220, Note_on_c, 4, 60, 66
12, 11220, Note_on_c, 4, 64, 74
12, 11220, Note_on_c, 4, 55, 66
12, 11312, Note_on_c, 4, 55, 0
12, 11313, Note_on_c, 4, 64, 0
12, 11314, Note_on_c, 4, 60, 0
12, 11340, Note_on_c, 4, 64, 60
12, 11340, Note_on_c, 4, 60, 56
12, 11340, Note_on_c, 4, 55, 58
12, 11365, Note_on_c, 4, 60, 0
12, 11366, Note_on_c, 4, 64, 0
12, 11370, Note_on_c, 4, 55, 0
12, 11400, Note_on_c, 4, 60, 66
12, 11400, Note_on_c, 4, 64, 72
12, 11400, Note_on_c, 4, 55, 61
12, 11426, Note_on_c, 4, 64, 0
12, 11427, Note_on_c, 4, 60, 0
12, 11430, Note_on_c, 4, 55, 0
12, 11460, Note_on_c, 4, 55, 52
12, 11460, Note_on_c, 4, 64, 61
12, 11460, Note_on_c, 4, 60, 59
12, 11476, Note_on_c, 4, 60, 0
12, 11479, Note_on_c, 4, 64, 0
12, 11491, Note_on_c, 4, 55, 0
12, 11580, Note_on_c, 4, 55, 66
12, 11580, Note_on_c, 4, 60, 63
12, 11580, Note_on_c, 4, 64, 72
12, 11600, Note_on_c, 4, 64, 0
12, 11601, Note_on_c, 4, 60, 0
12, 11608, Note_on_c, 4, 55, 0
12, 11640, Note_on_c, 4, 55, 65
12, 11640, Note_on_c, 4, 64, 70
12, 11640, Note_on_c, 4, 60, 55
12, 11653, Note_on_c, 4, 64, 0
12, 11655, Note_on_c, 4, 60, 0
12, 11666, Note_on_c, 4, 55, 0
12, 11700, Note_on_c, 4, 64, 73
12, 11700, Note_on_c, 4, 60, 71
12, 11700, Note_on_c, 4, 55, 66
12, 11792, Note_on_c, 4, 60, 0
12, 11793, Note_on_c, 4, 55, 0
12, 11794, Note_on_c, 4, 64, 0
12, 11820, Note_on_c, 4, 64, 59
12, 11820, Note_on_c, 4, 60, 55
12, 11820, Note_on_c, 4, 55, 56
12, 11840, Note_on_c, 4, 60, 0
12, 11844, Note_on_c, 4, 64, 0
12, 11848, Note_on_c, 4, 55, 0
12, 11880, Note_on_c, 4, 64, 80
12, 11880, Note_on_c, 4, 55, 66
12, 11880, Note_on_c, 4, 60, 69
12, 11903, Note_on_c, 4, 60, 0
12, 11906, Note_on_c, 4, 64, 0
12, 11908, Note_on_c, 4, 55, 0
12, 11940, Note_on_c, 4, 60, 69
12, 11940, Note_on_c, 4, 64, 71
12, 11940, Note_on_c, 4, 55, 64
12, 11962, Note_on_c, 4, 64, 0
12, 11964, Note_on_c, 4, 60, 0
12, 11970, Note_on_c, 4, 55, 0
12, 12000, Note_on_c, 4, 65, 63
12, 12000, Note_on_c, 4, 57, 66
12, 12000, Note_on_c, 4, 62, 65
12, 12032, Note_on_c, 4, 62, 0
12, 12034, Note_on_c, 4, 57, 0
12, 12040, Note_on_c, 4, 65, 0
12, 12063, Note_on_c, 4, 57, 63
12, 12063, Note_on_c, 4, 62, 63
12, 12063, Note_on_c, 4, 65, 63
12, 12103, Note_on_c, 4, 65, 0
12, 12103, Note_on_c, 4, 62, 0
12, 12103, Note_on_c, 4, 57, 0
12, 12120, Note_on_c, 4, 57, 63
12, 12120, Note_on_c, 4, 65, 56
12, 12120, Note_on_c, 4, 62, 59
12, 12131, Note_on_c, 4, 62, 0
12, 12141, Note_on_c, 4, 57, 0
12, 12150, Note_on_c, 4, 65, 0
12, 12180, Note_on_c, 4, 65, 52
12, 12180, Note_on_c, 4, 57, 65
12, 12180, Note_on_c, 4, 62, 69
12, 12282, Note_on_c, 4, 62, 0
12, 12283, Note_on_c, 4, 57, 0
12, 12286, Note_on_c, 4, 65, 0
12, 12300, Note_on_c, 4, 65, 51
12, 12300, Note_on_c, 4, 57, 54
12, 12300, Note_on_c, 4, 62, 55
12, 12328, Note_on_c, 4, 57, 0
12, 12330, Note_on_c, 4, 62, 0
12, 12339, Note_on_c, 4, 65, 0
12, 12360, Note_on_c, 4, 57, 69
12, 12360, Note_on_c, 4, 65, 67
12, 12360, Note_on_c, 4, 62, 60
12, 12444, Note_on_c, 4, 62, 0
12, 12450, Note_on_c, 4, 57, 0
12, 12454, Note_on_c, 4, 65, 0
12, 12480, Note_on_c, 4, 65, 60
12, 12480, Note_on_c, 4, 62, 66
12, 12480, Note_on_c, 4, 58, 71
12, 12503, Note_on_c, 4, 58, 0
12, 12507, Note_on_c, 4, 62, 0
12, 12514, Note_on_c, 4, 65, 0
12, 12543, Note_on_c, 4, 58, 63
12, 12546, Note_on_c, 4, 62, 63
12, 12546, Note_on_c, 4, 65, 63
12, 12583, Note_on_c, 4, 58, 0
12, 12586, Note_on_c, 4, 65, 0
12, 12586, Note_on_c, 4, 62, 0
12, 12600, Note_on_c, 4, 65, 59
12, 12600, Note_on_c, 4, 58, 67
12, 12600, Note_on_c, 4, 62, 69
12, 12627, Note_on_c, 4, 62, 0
12, 12628, Note_on_c, 4, 58, 0
12, 12634, Note_on_c, 4, 65, 0
12, 12660, Note_on_c, 4, 58, 72
12, 12660, Note_on_c, 4, 65, 49
12, 12660, Note_on_c, 4, 62, 63
12, 12754, Note_on_c, 4, 58, 0
12, 12757, Note_on_c, 4, 62, 0
12, 12771, Note_on_c, 4, 65, 0
12, 12780, Note_on_c, 4, 58, 62
12, 12780, Note_on_c, 4, 65, 53
12, 12780, Note_on_c, 4, 62, 52
12, 12795, Note_on_c, 4, 62, 0
12, 12808, Note_on_c, 4, 58, 0
12, 12815, Note_on_c, 4, 65, 0
12, 12840, Note_on_c, 4, 58, 63
12, 12840, Note_on_c, 4, 62, 71
12, 12840, Note_on_c, 4, 65, 59
12, 12915, Note_on_c, 4, 65, 0
12, 12915, Note_on_c, 4, 62, 0
12, 12936, Note_on_c, 4, 58, 0
12, 12960, Note_on_c, 4, 55, 80
12, 12960, Note_on_c, 4, 60, 59
12, 12960, Note_on_c, 4, 64, 78
12, 12991, Note_on_c, 4, 64, 0
12, 12992, Note_on_c, 4, 60, 0
12, 12993, Note_on_c, 4, 55, 0
12, 13020, Note_on_c, 4, 55, 63
12, 13020, Note_on_c, 4, 64, 63
12, 13023, Note_on_c, 4, 60, 63
12, 13060, Note_on_c, 4, 64, 0
12, 13060, Note_on_c, 4, 55, 0
12, 13063, Note_on_c, 4, 60, 0
12, 13080, Note_on_c, 4, 55, 71
12, 13080, Note_on_c, 4, 60, 64
12, 13080, Note_on_c, 4, 64, 72
12, 13097, Note_on_c, 4, 64, 0
12, 13101, Note_on_c, 4, 60, 0
12, 13108, Note_on_c, 4, 55, 0
12, 13140, Note_on_c, 4, 60, 66
12, 13140, Note_on_c, 4, 64, 74
12, 13140, Note_on_c, 4, 55, 66
12, 13232, Note_on_c, 4, 55, 0
12, 13233, Note_on_c, 4, 64, 0
12, 13234, Note_on_c, 4, 60, 0
12, 13260, Note_on_c, 4, 64, 60
12, 13260, Note_on_c, 4, 60, 56
12, 13260, Note_on_c, 4, 55, 58
12, 13285, Note_on_c, 4, 60, 0
12, 13286, Note_on_c, 4, 64, 0
12, 13290, Note_on_c, 4, 55, 0
12, 13320, Note_on_c, 4, 60, 66
12, 13320, Note_on_c, 4, 64, 72
12, 13320, Note_on_c, 4, 55, 61
12, 13346, Note_on_c, 4, 64, 0
12, 13347, Note_on_c, 4, 60, 0
12, 13350, Note_on_c, 4, 55, 0
12, 13380, Note_on_c, 4, 55, 52
12, 13380, Note_on_c, 4, 64, 61
12, 13380, Note_on_c, 4, 60, 59
12, 13396, Note_on_c, 4, 60, 0
12, 13399, Note_on_c, 4, 64, 0
12, 13411, Note_on_c, 4, 55, 0
12, 13500, Note_on_c, 4, 55, 66
12, 13500, Note_on_c, 4, 60, 63
12, 13500, Note_on_c, 4, 64, 72
12, 13520, Note_on_c, 4, 64, 0
12, 13521, Note_on_c, 4, 60, 0
12, 13528, Note_on_c, 4, 55, 0
12, 13560, Note_on_c, 4, 55, 65
12, 13560, Note_on_c, 4, 64, 70
12, 13560, Note_on_c, 4, 60, 55
12, 13573, Note_on_c, 4, 64, 0
12, 13575, Note_on_c, 4, 60, 0
12, 13586, Note_on_c, 4, 55, 0
12, 13620, Note_on_c, 4, 64, 73
12, 13620, Note_on_c, 4, 60, 71
12, 13620, Note_on_c, 4, 55, 66
12, 13712, Note_on_c, 4, 60, 0
12, 13713, Note_on_c, 4, 55, 0
12, 13714, Note_on_c, 4, 64, 0
12, 13740, Note_on_c, 4, 64, 59
12, 13740, Note_on_c, 4, 60, 55
12, 13740, Note_on_c, 4, 55, 56
12, 13760, Note_on_c, 4, 60, 0
12, 13764, Note_on_c, 4, 64, 0
12, 13768, Note_on_c, 4, 55, 0
12, 13800, Note_on_c, 4, 64, 80
12, 13800, Note_on_c, 4, 55, 66
12, 13800, Note_on_c, 4, 60, 69
12, 13823, Note_on_c, 4, 60, 0
12, 13826, Note_on_c, 4, 64, 0
12, 13828, Note_on_c, 4, 55, 0
12, 13860, Note_on_c, 4, 60, 69
12, 13860, Note_on_c, 4, 64, 71
12, 13860, Note_on_c, 4, 55, 64
12, 13882, Note_on_c, 4, 64, 0
12, 13884, Note_on_c, 4, 60, 0
12, 13890, Note_on_c, 4, 55, 0
12, 13920, Note_on_c, 4, 65, 63
12, 13920, Note_on_c, 4, 57, 66
12, 13920, Note_on_c, 4, 62, 65
12, 13952, Note_on_c, 4, 62, 0
12, 13954, Note_on_c, 4, 57, 0
12, 13960, Note_on_c, 4, 65, 0
12, 13983, Note_on_c, 4, 57, 63
12, 13983, Note_on_c, 4, 62, 63
12, 13983, Note_on_c, 4, 65, 63
12, 14023, Note_on_c, 4, 65, 0
12, 14023, Note_on_c, 4, 62, 0
12, 14023, Note_on_c, 4, 57, 0
12, 14040, Note_on_c, 4, 57, 63
12, 14040, Note_on_c, 4, 65, 56
12, 14040, Note_on_c, 4, 62, 59
12, 14051, Note_on_c, 4, 62, 0
12, 14061, Note_on_c, 4, 57, 0
12, 14070, Note_on_c, 4, 65, 0
12, 14100, Note_on_c, 4, 65, 52
12, 14100, Note_on_c, 4, 57, 65
12, 14100, Note_on_c, 4, 62, 69
12, 14202, Note_on_c, 4, 62, 0
12, 14203, Note_on_c, 4, 57, 0
12, 14206, Note_on_c, 4, 65, 0
12, 14220, Note_on_c, 4, 65, 51
12, 14220, Note_on_c, 4, 57, 54
12, 14220, Note_on_c, 4, 62, 55
12, 14248, Note_on_c, 4, 57, 0
12, 14250, Note_on_c, 4, 62, 0
12, 14259, Note_on_c, 4, 65, 0
12, 14280, Note_on_c, 4, 57, 69
12, 14280, Note_on_c, 4, 65, 67
12, 14280, Note_on_c, 4, 62, 60
12, 14364, Note_on_c, 4, 62, 0
12, 14370, Note_on_c, 4, 57, 0
12, 14374, Note_on_c, 4, 65, 0
12, 14400, Note_on_c, 4, 65, 60
12, 14400, Note_on_c, 4, 62, 66
12, 14400, Note_on_c, 4, 58, 71
12, 14423, Note_on_c, 4, 58, 0
12, 14427, Note_on_c, 4, 62, 0
12, 14434, Note_on_c, 4, 65, 0
12, 14463, Note_on_c, 4, 58, 63
12, 14466, Note_on_c, 4, 62, 63
12, 14466, Note_on_c, 4, 65, 63
12, 14503, Note_on_c, 4, 58, 0
12, 14506, Note_on_c, 4, 65, 0
12, 14506, Note_on_c, 4, 62, 0
12, 14520, Note_on_c, 4, 65, 59
12, 14520, Note_on_c, 4, 58, 67
12, 14520, Note_on_c, 4, 62, 69
12, 14547, Note_on_c, 4, 62, 0
12, 14548, Note_on_c, 4, 58, 0
12, 14554, Note_on_c, 4, 65, 0
12, 14580, Note_on_c, 4, 58, 72
12, 14580, Note_on_c, 4, 65, 49
12, 14580, Note_on_c, 4, 62, 63
12, 14674, Note_on_c, 4, 58, 0
12, 14677, Note_on_c, 4, 62, 0
12, 14691, Note_on_c, 4, 65, 0
12, 14700, Note_on_c, 4, 58, 62
12, 14700, Note_on_c, 4, 65, 53
12, 14700, Note_on_c, 4, 62, 52
12, 14715, Note_on_c, 4, 62, 0
12, 14728, Note_on_c, 4, 58, 0
12, 14735, Note_on_c, 4, 65, 0
12, 14760, Note_on_c, 4, 58, 63
12, 14760, Note_on_c, 4, 62, 71
12, 14760, Note_on_c, 4, 65, 59
12, 14835, Note_on_c, 4, 65, 0
12, 14835, Note_on_c, 4, 62, 0
12, 14856, Note_on_c, 4, 58, 0
12, 14880, Note_on_c, 4, 55, 80
12, 14880, Note_on_c, 4, 60, 59
12, 14880, Note_on_c, 4, 64, 78
12, 14911, Note_on_c, 4, 64, 0
12, 14912, Note_on_c, 4, 60, 0
12, 14913, Note_on_c, 4, 55, 0
12, 14940, Note_on_c, 4, 55, 63
12, 14940, Note_on_c, 4, 64, 63
12, 14943, Note_on_c, 4, 60, 63
12, 14980, Note_on_c, 4, 64, 0
12, 14980, Note_on_c, 4, 55, 0
12, 14983, Note_on_c, 4, 60, 0
12, 15000, Note_on_c, 4, 55, 71
12, 15000, Note_on_c, 4, 60, 64
12, 15000, Note_on_c, 4, 64, 72
12, 15017, Note_on_c, 4, 64, 0
12, 15021, Note_on_c, 4, 60, 0
12, 15028, Note_on_c, 4, 55, 0
12, 15060, Note_on_c, 4, 60, 66
12, 15060, Note_on_c, 4, 64, 74
12, 15060, Note_on_c, 4, 55, 66
12, 15152, Note_on_c, 4, 55, 0
12, 15153, Note_on_c, 4, 64, 0
12, 15154, Note_on_c, 4, 60, 0
12, 15180, Note_on_c, 4, 64, 60
12, 15180, Note_on_c, 4, 60, 56
12, 15180, Note_on_c, 4, 55, 58
12, 15205, Note_on_c, 4, 60, 0
12, 15206, Note_on_c, 4, 64, 0
12, 15210, Note_on_c, 4, 55, 0
12, 15240, Note_on_c, 4, 60, 66
12, 15240, Note_on_c, 4, 64, 72
12, 15240, Note_on_c, 4, 55, 61
12, 15266, Note_on_c, 4, 64, 0
12, 15267, Note_on_c, 4, 60, 0
12, 15270, Note_on_c, 4, 55, 0
12, 15300, Note_on_c, 4, 55, 52
12, 15300, Note_on_c, 4, 64, 61
12, 15300, Note_on_c, 4, 60, 59
12, 15316, Note_on_c, 4, 60, 0
12, 15319, Note_on_c, 4, 64, 0
12, 15331, Note_on_c, 4, 55, 0
12, 15420, Note_on_c, 4, 55, 66
12, 15420, Note_on_c, 4, 60, 63
12, 15420, Note_on_c, 4, 64, 72
12, 15440, Note_on_c, 4, 64, 0
12, 15441, Note_on_c, 4, 60, 0
12, 15448, Note_on_c, 4, 55, 0
12, 15480, Note_on_c, 4, 55, 65
12, 15480, Note_on_c, 4, 64, 70
12, 15480, Note_on_c, 4, 60, 55
12, 15493, Note_on_c, 4, 64, 0
12, 15495, Note_on_c, 4, 60, 0
12, 15506, Note_on_c, 4, 55, 0
12, 15540, Note_on_c, 4, 64, 73
12, 15540, Note_on_c, 4, 60, 71
12, 15540, Note_on_c, 4, 55, 66
12, 15632, Note_on_c, 4, 60, 0
12, 15633, Note_on_c, 4, 55, 0
12, 15634, Note_on_c, 4, 64, 0
12, 15660, Note_on_c, 4, 64, 59
12, 15660, Note_on_c, 4, 60, 55
12, 15660, Note_on_c, 4, 55, 56
12, 15680, Note_on_c, 4, 60, 0
12, 15684, Note_on_c, 4, 64, 0
12, 15688, Note_on_c, 4, 55, 0
12, 15720, Note_on_c, 4, 64, 80
12, 15720, Note_on_c, 4, 55, 66
12, 15720, Note_on_c, 4, 60, 69
12, 15743, Note_on_c, 4, 60, 0
12, 15746, Note_on_c, 4, 64, 0
12, 15748, Note_on_c, 4, 55, 0
12, 15780, Note_on_c, 4, 60, 69
12, 15780, Note_on_c, 4, 64, 71
12, 15780, Note_on_c, 4, 55, 64
12, 15802, Note_on_c, 4, 64, 0
12, 15804, Note_on_c, 4, 60, 0
12, 15810, Note_on_c, 4, 55, 0
12, 15840, Note_on_c, 4, 53, 72
12, 15873, Note_on_c, 4, 53, 0
12, 15900, Note_on_c, 4, 53, 50
12, 15929, Note_on_c, 4, 53, 0
12, 15960, Note_on_c, 4, 53, 50
12, 15984, Note_on_c, 4, 53, 0
12, 16020, Note_on_c, 4, 53, 73
12, 16110, Note_on_c, 4, 53, 0
12, 16140, Note_on_c, 4, 53, 51
12, 16165, Note_on_c, 4, 53, 0
12, 16200, Note_on_c, 4, 53, 63
12, 16224, Note_on_c, 4, 53, 0
12, 16260, Note_on_c, 4, 53, 47
12, 16280, Note_on_c, 4, 53, 0
12, 16320, Note_on_c, 4, 53, 75
12, 16350, Note_on_c, 4, 53, 0
12, 16380, Note_on_c, 4, 53, 47
12, 16407, Note_on_c, 4, 53, 0
12, 16440, Note_on_c, 4, 53, 52
12, 16466, Note_on_c, 4, 53, 0
12, 16500, Note_on_c, 4, 53, 69
12, 16591, Note_on_c, 4, 53, 0
12, 16620, Note_on_c, 4, 53, 49
12, 16648, Note_on_c, 4, 53, 0
12, 16680, Note_on_c, 4, 53, 54
12, 16706, Note_on_c, 4, 53, 0
12, 16740, Note_on_c, 4, 53, 49
12, 16761, Note_on_c, 4, 53, 0
12, 16800, Note_on_c, 4, 53, 75
12, 16830, Note_on_c, 4, 53, 0
12, 16860, Note_on_c, 4, 53, 47
12, 16887, Note_on_c, 4, 53, 0
12, 16920, Note_on_c, 4, 53, 52
12, 16946, Note_on_c, 4, 53, 0
12, 16980, Note_on_c, 4, 53, 69
12, 17071, Note_on_c, 4, 53, 0
12, 17100, Note_on_c, 4, 53, 49
12, 17128, Note_on_c, 4, 53, 0
12, 17160, Note_on_c, 4, 53, 54
12, 17186, Note_on_c, 4, 53, 0
12, 17220, Note_on_c, 4, 53, 49
12, 17241, Note_on_c, 4, 53, 0
12, 17340, Note_on_c, 4, 48, 41
12, 17342, Note_on_c, 4, 52, 41
12, 17355, Note_on_c, 4, 52, 0
12, 17360, Note_on_c, 4, 48, 0
12, 17452, Note_on_c, 4, 48, 51
12, 17460, Note_on_c, 4, 52, 52
12, 17471, Note_on_c, 4, 52, 0
12, 17481, Note_on_c, 4, 48, 0
12, 17569, Note_on_c, 4, 48, 56
12, 17572, Note_on_c, 4, 52, 56
12, 17585, Note_on_c, 4, 52, 0
12, 17589, Note_on_c, 4, 48, 0
12, 17678, Note_on_c, 4, 48, 61
12, 17681, Note_on_c, 4, 52, 61
12, 17692, Note_on_c, 4, 52, 0
12, 17692, Note_on_c, 4, 48, 0
12, 17760, Note_on_c, 4, 46, 63
12, 17786, Note_on_c, 4, 46, 0
12, 17820, Note_on_c, 4, 46, 51
12, 17849, Note_on_c, 4, 46, 0
12, 17880, Note_on_c, 4, 46, 62
12, 17904, Note_on_c, 4, 46, 0
12, 17940, Note_on_c, 4, 46, 78
12, 18053, Note_on_c, 4, 46, 0
12, 18060, Note_on_c, 4, 50, 62
12, 18118, Note_on_c, 4, 50, 0
12, 18120, Note_on_c, 4, 46, 51
12, 18147, Note_on_c, 4, 46, 0
12, 18180, Note_on_c, 4, 46, 58
12, 18212, Note_on_c, 4, 46, 0
12, 18240, Note_on_c, 4, 46, 67
12, 18300, Note_on_c, 4, 46, 0
12, 18300, Note_on_c, 4, 50, 52
12, 18349, Note_on_c, 4, 50, 0
12, 18360, Note_on_c, 4, 46, 56
12, 18384, Note_on_c, 4, 46, 0
12, 18420, Note_on_c, 4, 46, 72
12, 18526, Note_on_c, 4, 46, 0
12, 18540, Note_on_c, 4, 50, 61
12, 18577, Note_on_c, 4, 50, 0
12, 18600, Note_on_c, 4, 46, 63
12, 18630, Note_on_c, 4, 46, 0
12, 18660, Note_on_c, 4, 46, 61
12, 18690, Note_on_c, 4, 46, 0
12, 18720, Note_on_c, 4, 46, 69
12, 18780, Note_on_c, 4, 50, 51
12, 18783, Note_on_c, 4, 46, 0
12, 18818, Note_on_c, 4, 50, 0
12, 18840, Note_on_c, 4, 46, 62
12, 18866, Note_on_c, 4, 46, 0
12, 18900, Note_on_c, 4, 46, 70
12, 19009, Note_on_c, 4, 46, 0
12, 19020, Note_on_c, 4, 46, 44
12, 19043, Note_on_c, 4, 46, 0
12, 19080, Note_on_c, 4, 46, 65
12, 19111, Note_on_c, 4, 46, 0
12, 19140, Note_on_c, 4, 46, 60
12, 19153, Note_on_c, 4, 46, 0
12, 19200, Note_on_c, 4, 53, 72
12, 19233, Note_on_c, 4, 53, 0
12, 19260, Note_on_c, 4, 53, 50
12, 19289, Note_on_c, 4, 53, 0
12, 19320, Note_on_c, 4, 53, 50
12, 19344, Note_on_c, 4, 53, 0
12, 19380, Note_on_c, 4, 53, 73
12, 19470, Note_on_c, 4, 53, 0
12, 19500, Note_on_c, 4, 53, 51
12, 19525, Note_on_c, 4, 53, 0
12, 19560, Note_on_c, 4, 53, 63
12, 19584, Note_on_c, 4, 53, 0
12, 19620, Note_on_c, 4, 53, 47
12, 19640, Note_on_c, 4, 53, 0
12, 19680, Note_on_c, 4, 53, 75
12, 19710, Note_on_c, 4, 53, 0
12, 19740, Note_on_c, 4, 53, 47
12, 19767, Note_on_c, 4, 53, 0
12, 19800, Note_on_c, 4, 53, 52
12, 19826, Note_on_c, 4, 53, 0
12, 19860, Note_on_c, 4, 53, 69
12, 19951, Note_on_c, 4, 53, 0
12, 19980, Note_on_c, 4, 53, 49
12, 20008, Note_on_c, 4, 53, 0
12, 20040, Note_on_c, 4, 53, 54
12, 20066, Note_on_c, 4, 53, 0
12, 20100, Note_on_c, 4, 53, 49
12, 20121, Note_on_c, 4, 53, 0
12, 20160, Note_on_c, 4, 53, 72
12, 20193, Note_on_c, 4, 53, 0
12, 20220, Note_on_c, 4, 53, 50
12, 20249, Note_on_c, 4, 53, 0
12, 20280, Note_on_c, 4, 53, 50
12, 20304, Note_on_c, 4, 53, 0
12, 20340, Note_on_c, 4, 53, 73
12, 20430, Note_on_c, 4, 53, 0
12, 20460, Note_on_c, 4, 53, 51
12, 20485, Note_on_c, 4, 53, 0
12, 20520, Note_on_c, 4, 53, 63
12, 20544, Note_on_c, 4, 53, 0
12, 20580, Note_on_c, 4, 53, 47
12, 20600, Note_on_c, 4, 53, 0
12, 20640, Note_on_c, 4, 53, 75
12, 20670, Note_on_c, 4, 53, 0
12, 20700, Note_on_c, 4, 53, 47
12, 20727, Note_on_c, 4, 53, 0
12, 20760, Note_on_c, 4, 53, 52
12, 20786, Note_on_c, 4, 53, 0
12, 20820, Note_on_c, 4, 53, 69
12, 20911, Note_on_c, 4, 53, 0
12, 20940, Note_on_c, 4, 53, 49
12, 20968, Note_on_c, 4, 53, 0
12, 21000, Note_on_c, 4, 53, 54
12, 21026, Note_on_c, 4, 53, 0
12, 21060, Note_on_c, 4, 53, 49
12, 21081, Note_on_c, 4, 53, 0
12, 21120, Note_on_c, 4, 53, 75
12, 21150, Note_on_c, 4, 53, 0
12, 21180, Note_on_c, 4, 53, 47
12, 21207, Note_on_c, 4, 53, 0
12, 21240, Note_on_c, 4, 53, 52
12, 21266, Note_on_c, 4, 53, 0
12, 21300, Note_on_c, 4, 53, 69
12, 21391, Note_on_c, 4, 53, 0
12, 21420, Note_on_c, 4, 53, 49
12, 21448, Note_on_c, 4, 53, 0
12, 21480, Note_on_c, 4, 53, 54
12, 21506, Note_on_c, 4, 53, 0
12, 21540, Note_on_c, 4, 53, 49
12, 21561, Note_on_c, 4, 53, 0
12, 21660, Note_on_c, 4, 48, 41
12, 21662, Note_on_c, 4, 52, 41
12, 21675, Note_on_c, 4, 52, 0
12, 21680, Note_on_c, 4, 48, 0
12, 21772, Note_on_c, 4, 48, 51
12, 21780, Note_on_c, 4, 52, 52
12, 21791, Note_on_c, 4, 52, 0
12, 21801, Note_on_c, 4, 48, 0
12, 21889, Note_on_c, 4, 48, 56
12, 21892, Note_on_c, 4, 52, 56
12, 21905, Note_on_c, 4, 52, 0
12, 21909, Note_on_c, 4, 48, 0
12, 21998, Note_on_c, 4, 48, 61
12, 22001, Note_on_c, 4, 52, 61
12, 22012, Note_on_c, 4, 52, 0
12, 22012, Note_on_c, 4, 48, 0
12, 22080, Note_on_c, 4, 46, 63
12, 22106, Note_on_c, 4, 46, 0
12, 22140, Note_on_c, 4, 46, 51
12, 22169, Note_on_c, 4, 46, 0
12, 22200, Note_on_c, 4, 46, 62
12, 22224, Note_on_c, 4, 46, 0
12, 22260, Note_on_c, 4, 46, 78
12, 22373, Note_on_c, 4, 46, 0
12, 22380, Note_on_c, 4, 50, 62
12, 22438, Note_on_c, 4, 50, 0
12, 22440, Note_on_c, 4, 46, 51
12, 22467, Note_on_c, 4, 46, 0
12, 22500, Note_on_c, 4, 46, 58
12, 22532, Note_on_c, 4, 46, 0
12, 22560, Note_on_c, 4, 46, 67
12, 22620, Note_on_c, 4, 46, 0
12, 22620, Note_on_c, 4, 50, 52
12, 22669, Note_on_c, 4, 50, 0
12, 22680, Note_on_c, 4, 46, 56
12, 22704, Note_on_c, 4, 46, 0
12, 22740, Note_on_c, 4, 46, 72
12, 22846, Note_on_c, 4, 46, 0
12, 22860, Note_on_c, 4, 50, 61
12, 22897, Note_on_c, 4, 50, 0
12, 22920, Note_on_c, 4, 46, 63
12, 22950, Note_on_c, 4, 46, 0
12, 22980, Note_on_c, 4, 46, 61
12, 23010, Note_on_c, 4, 46, 0
12, 23040, Note_on_c, 4, 46, 69
12, 23100, Note_on_c, 4, 50, 51
12, 23103, Note_on_c, 4, 46, 0
12, 23138, Note_on_c, 4, 50, 0
12, 23160, Note_on_c, 4, 46, 62
12, 23186, Note_on_c, 4, 46, 0
12, 23220, Note_on_c, 4, 46, 70
12, 23329, Note_on_c, 4, 46, 0
12, 23340, Note_on_c, 4, 46, 44
12, 23363, Note_on_c, 4, 46, 0
12, 23400, Note_on_c, 4, 46, 65
12, 23431, Note_on_c, 4, 46, 0
12, 23460, Note_on_c, 4, 46, 60
12, 23473, Note_on_c, 4, 46, 0
12, 23520, Note_on_c, 4, 53, 72
12, 23553, Note_on_c, 4, 53, 0
12, 23580, Note_on_c, 4, 53, 50
12, 23609, Note_on_c, 4, 53, 0
12, 23640, Note_on_c, 4, 53, 50
12, 23664, Note_on_c, 4, 53, 0
12, 23700, Note_on_c, 4, 53, 73
12, 23790, Note_on_c, 4, 53, 0
12, 23820, Note_on_c, 4, 53, 51
12, 23845, Note_on_c, 4, 53, 0
12, 23880, Note_on_c, 4, 53, 63
12, 23904, Note_on_c, 4, 53, 0
12, 23940, Note_on_c, 4, 53, 47
12, 23960, Note_on_c, 4, 53, 0
12, 24000, Note_on_c, 4, 65, 63
12, 24000, Note_on_c, 4, 57, 66
12, 24000, Note_on_c, 4, 62, 65
12, 24032, Note_on_c, 4, 62, 0
12, 24034, Note_on_c, 4, 57, 0
12, 24040, Note_on_c, 4, 65, 0
12, 24063, Note_on_c, 4, 57, 63
12, 24063, Note_on_c, 4, 62, 63
12, 24063, Note_on_c, 4, 65, 63
12, 24103, Note_on_c, 4, 65, 0
12, 24103, Note_on_c, 4, 62, 0
12, 24103, Note_on_c, 4, 57, 0
12, 24120, Note_on_c, 4, 57, 63
12, 24120, Note_on_c, 4, 65, 56
12, 24120, Note_on_c, 4, 62, 59
12, 24131, Note_on_c, 4, 62, 0
12, 24141, Note_on_c, 4, 57, 0
12, 24150, Note_on_c, 4, 65, 0
12, 24180, Note_on_c, 4, 65, 52
12, 24180, Note_on_c, 4, 57, 65
12, 24180, Note_on_c, 4, 62, 69
12, 24282, Note_on_c, 4, 62, 0
12, 24283, Note_on_c, 4, 57, 0
12, 24286, Note_on_c, 4, 65, 0
12, 24300, Note_on_c, 4, 65, 51
12, 24300, Note_on_c, 4, 57, 54
12, 24300, Note_on_c, 4, 62, 55
12, 24328, Note_on_c, 4, 57, 0
12, 24330, Note_on_c, 4, 62, 0
12, 24339, Note_on_c, 4, 65, 0
12, 24360, Note_on_c, 4, 57, 69
12, 24360, Note_on_c, 4, 65, 67
12, 24360, Note_on_c, 4, 62, 60
12, 24444, Note_on_c, 4, 62, 0
12, 24450, Note_on_c, 4, 57, 0
12, 24454, Note_on_c, 4, 65, 0
12, 24480, Note_on_c, 4, 65, 60
12, 24480, Note_on_c, 4, 62, 66
12, 24480, Note_on_c, 4, 58, 71
12, 24503, Note_on_c, 4, 58, 0
12, 24507, Note_on_c, 4, 62, 0
12, 24514, Note_on_c, 4, 65, 0
12, 24543, Note_on_c, 4, 58, 63
12, 24546, Note_on_c, 4, 62, 63
12, 24546, Note_on_c, 4, 65, 63
12, 24583, Note_on_c, 4, 58, 0
12, 24586, Note_on_c, 4, 65, 0
12, 24586, Note_on_c, 4, 62, 0
12, 24600, Note_on_c, 4, 65, 59
12, 24600, Note_on_c, 4, 58, 67
12, 24600, Note_on_c, 4, 62, 69
12, 24627, Note_on_c, 4, 62, 0
12, 24628, Note_on_c, 4, 58, 0
12, 24634, Note_on_c, 4, 65, 0
12, 24660, Note_on_c, 4, 58, 72
12, 24660, Note_on_c, 4, 65, 49
12, 24660, Note_on_c, 4, 62, 63
12, 24754, Note_on_c, 4, 58, 0
12, 24757, Note_on_c, 4, 62, 0
12, 24771, Note_on_c, 4, 65, 0
12, 24780, Note_on_c, 4, 58, 62
12, 24780, Note_on_c, 4, 65, 53
12, 24780, Note_on_c, 4, 62, 52
12, 24795, Note_on_c, 4, 62, 0
12, 24808, Note_on_c, 4, 58, 0
12, 24815, Note_on_c, 4, 65, 0
12, 24840, Note_on_c, 4, 58, 63
12, 24840, Note_on_c, 4, 62, 71
12, 24840, Note_on_c, 4, 65, 59
12, 24915, Note_on_c, 4, 65, 0
12, 24915, Note_on_c, 4, 62, 0
12, 24936, Note_on_c, 4, 58, 0
12, 24960, Note_on_c, 4, 55, 80
12, 24960, Note_on_c, 4, 60, 59
12, 24960, Note_on_c, 4, 64, 78
12, 24991, Note_on_c, 4, 64, 0
12, 24992, Note_on_c, 4, 60, 0
12, 24993, Note_on_c, 4, 55, 0
12, 25020, Note_on_c, 4, 55, 63
12, 25020, Note_on_c, 4, 64, 63
12, 25023, Note_on_c, 4, 60, 63
12, 25060, Note_on_c, 4, 64, 0
12, 25060, Note_on_c, 4, 55, 0
12, 25063, Note_on_c, 4, 60, 0
12, 25080, Note_on_c, 4, 55, 71
12, 25080, Note_on_c, 4, 60, 64
12, 25080, Note_on_c, 4, 64, 72
12, 25097, Note_on_c, 4, 64, 0
12, 25101, Note_on_c, 4, 60, 0
12, 25108, Note_on_c, 4, 55, 0
12, 25140, Note_on_c, 4, 60, 66
12, 25140, Note_on_c, 4, 64, 74
12, 25140, Note_on_c, 4, 55, 66
12, 25232, Note_on_c, 4, 55, 0
12, 25233, Note_on_c, 4, 64, 0
12, 25234, Note_on_c, 4, 60, 0
12, 25260, Note_on_c, 4, 64, 60
12, 25260, Note_on_c, 4, 60, 56
12, 25260, Note_on_c, 4, 55, 58
12, 25285, Note_on_c, 4, 60, 0
12, 25286, Note_on_c, 4, 64, 0
12, 25290, Note_on_c, 4, 55, 0
12, 25320, Note_on_c, 4, 60, 66
12, 25320, Note_on_c, 4, 64, 72
12, 25320, Note_on_c, 4, 55, 61
12, 25346, Note_on_c, 4, 64, 0
12, 25347, Note_on_c, 4, 60, 0
12, 25350, Note_on_c, 4, 55, 0
12, 25380, Note_on_c, 4, 55, 52
12, 25380, Note_on_c, 4, 64, 61
12, 25380, Note_on_c, 4, 60, 59
12, 25396, Note_on_c, 4, 60, 0
12, 25399, Note_on_c, 4, 64, 0
12, 25411, Note_on_c, 4, 55, 0
12, 25500, Note_on_c, 4, 55, 66
12, 25500, Note_on_c, 4, 60, 63
12, 25500, Note_on_c, 4, 64, 72
12, 25520, Note_on_c, 4, 64, 0
12, 25521, Note_on_c, 4, 60, 0
12, 25528, Note_on_c, 4, 55, 0
12, 25560, Note_on_c, 4, 55, 65
12, 25560, Note_on_c, 4, 64, 70
12, 25560, Note_on_c, 4, 60, 55
12, 25573, Note_on_c, 4, 64, 0
12, 25575, Note_on_c, 4, 60, 0
12, 25586, Note_on_c, 4, 55, 0
12, 25620, Note_on_c, 4, 64, 73
12, 25620, Note_on_c, 4, 60, 71
12, 25620, Note_on_c, 4, 55, 66
12, 25712, Note_on_c, 4, 60, 0
12, 25713, Note_on_c, 4, 55, 0
12, 25714, Note_on_c, 4, 64, 0
12, 25740, Note_on_c, 4, 64, 59
12, 25740, Note_on_c, 4, 60, 55
12, 25740, Note_on_c, 4, 55, 56
12, 25760, Note_on_c, 4, 60, 0
12, 25764, Note_on_c, 4, 64, 0
12, 25768, Note_on_c, 4, 55, 0
12, 25800, Note_on_c, 4, 64, 80
12, 25800, Note_on_c, 4, 55, 66
12, 25800, Note_on_c, 4, 60, 69
12, 25823, Note_on_c, 4, 60, 0
12, 25826, Note_on_c, 4, 64, 0
12, 25828, Note_on_c, 4, 55, 0
12, 25860, Note_on_c, 4, 60, 69
12, 25860, Note_on_c, 4, 64, 71
12, 25860, Note_on_c, 4, 55, 64
12, 25882, Note_on_c, 4, 64, 0
12, 25884, Note_on_c, 4, 60, 0
12, 25890, Note_on_c, 4, 55, 0
12, 25920, Note_on_c, 4, 65, 63
12, 25920, Note_on_c, 4, 57, 66
12, 25920, Note_on_c, 4, 62, 65
12, 25952, Note_on_c, 4, 62, 0
12, 25954, Note_on_c, 4, 57, 0
12, 25960, Note_on_c, 4, 65, 0
12, 25983, Note_on_c, 4, 57, 63
12, 25983, Note_on_c, 4, 62, 63
12, 25983, Note_on_c, 4, 65, 63
12, 26023, Note_on_c, 4, 65, 0
12, 26023, Note_on_c, 4, 62, 0
12, 26023, Note_on_c, 4, 57, 0
12, 26040, Note_on_c, 4, 57, 63
12, 26040, Note_on_c, 4, 65, 56
12, 26040, Note_on_c, 4, 62, 59
12, 26051, Note_on_c, 4, 62, 0
12, 26061, Note_on_c, 4, 57, 0
12, 26070, Note_on_c, 4, 65, 0
12, 26100, Note_on_c, 4, 65, 52
12, 26100, Note_on_c, 4, 57, 65
12, 26100, Note_on_c, 4, 62, 69
12, 26202, Note_on_c, 4, 62, 0
12, 26203, Note_on_c, 4, 57, 0
12, 26206, Note_on_c, 4, 65, 0
12, 26220, Note_on_c, 4, 65, 51
12, 26220, Note_on_c, 4, 57, 54
12, 26220, Note_on_c, 4, 62, 55
12, 26248, Note_on_c, 4, 57, 0
12, 26250, Note_on_c, 4, 62, 0
12, 26259, Note_on_c, 4, 65, 0
12, 26280, Note_on_c, 4, 57, 69
12, 26280, Note_on_c, 4, 65, 67
12, 26280, Note_on_c, 4, 62, 60
12, 26364, Note_on_c, 4, 62, 0
12, 26370, Note_on_c, 4, 57, 0
12, 26374, Note_on_c, 4, 65, 0
12, 26400, Note_on_c, 4, 65, 60
12, 26400, Note_on_c, 4, 62, 66
12, 26400, Note_on_c, 4, 58, 71
12, 26423, Note_on_c, 4, 58, 0
12, 26427, Note_on_c, 4, 62, 0
12, 26434, Note_on_c, 4, 65, 0
12, 26463, Note_on_c, 4, 58, 63
12, 26466, Note_on_c, 4, 62, 63
12, 26466, Note_on_c, 4, 65, 63
12, 26503, Note_on_c, 4, 58, 0
12, 26506, Note_on_c, 4, 65, 0
12, 26506, Note_on_c, 4, 62, 0
12, 26520, Note_on_c, 4, 65, 59
12, 26520, Note_on_c, 4, 58, 67
12, 26520, Note_on_c, 4, 62, 69
12, 26547, Note_on_c, 4, 62, 0
12, 26548, Note_on_c, 4, 58, 0
12, 26554, Note_on_c, 4, 65, 0
12, 26580, Note_on_c, 4, 58, 72
12, 26580, Note_on_c, 4, 65, 49
12, 26580, Note_on_c, 4, 62, 63
12, 26674, Note_on_c, 4, 58, 0
12, 26677, Note_on_c, 4, 62, 0
12, 26691, Note_on_c, 4, 65, 0
12, 26700, Note_on_c, 4, 58, 62
12, 26700, Note_on_c, 4, 65, 53
12, 26700, Note_on_c, 4, 62, 52
12, 26715, Note_on_c, 4, 62, 0
12, 26728, Note_on_c, 4, 58, 0
12, 26735, Note_on_c, 4, 65, 0
12, 26760, Note_on_c, 4, 58, 63
12, 26760, Note_on_c, 4, 62, 71
12, 26760, Note_on_c, 4, 65, 59
12, 26835, Note_on_c, 4, 65, 0
12, 26835, Note_on_c, 4, 62, 0
12, 26856, Note_on_c, 4, 58, 0
12, 26880, Note_on_c, 4, 55, 80
12, 26880, Note_on_c, 4, 60, 59
12, 26880, Note_on_c, 4, 64, 78
12, 26911, Note_on_c, 4, 64, 0
12, 26912, Note_on_c, 4, 60, 0
12, 26913, Note_on_c, 4, 55, 0
12, 26940, Note_on_c, 4, 55, 63
12, 26940, Note_on_c, 4, 64, 63
12, 26943, Note_on_c, 4, 60, 63
12, 26980, Note_on_c, 4, 64, 0
12, 26980, Note_on_c, 4, 55, 0
12, 26983, Note_on_c, 4, 60, 0
12, 27000, Note_on_c, 4, 55, 71
12, 27000, Note_on_c, 4, 60, 64
12, 27000, Note_on_c, 4, 64, 72
12, 27017, Note_on_c, 4, 64, 0
12, 27021, Note_on_c, 4, 60, 0
12, 27028, Note_on_c, 4, 55, 0
12, 27060, Note_on_c, 4, 60, 66
12, 27060, Note_on_c, 4, 64, 74
12, 27060, Note_on_c, 4, 55, 66
12, 27152, Note_on_c, 4, 55, 0
12, 27153, Note_on_c, 4, 64, 0
12, 27154, Note_on_c, 4, 60, 0
12, 27180, Note_on_c, 4, 64, 60
12, 27180, Note_on_c, 4, 60, 56
12, 27180, Note_on_c, 4, 55, 58
12, 27205, Note_on_c, 4, 60, 0
12, 27206, Note_on_c, 4, 64, 0
12, 27210, Note_on_c, 4, 55, 0
12, 27240, Note_on_c, 4, 60, 66
12, 27240, Note_on_c, 4, 64, 72
12, 27240, Note_on_c, 4, 55, 61
12, 27266, Note_on_c, 4, 64, 0
12, 27267, Note_on_c, 4, 60, 0
12, 27270, Note_on_c, 4, 55, 0
12, 27300, Note_on_c, 4, 55, 52
12, 27300, Note_on_c, 4, 64, 61
12, 27300, Note_on_c, 4, 60, 59
12, 27316, Note_on_c, 4, 60, 0
12, 27319, Note_on_c, 4, 64, 0
12, 27331, Note_on_c, 4, 55, 0
12, 27420, Note_on_c, 4, 55, 66
12, 27420, Note_on_c, 4, 60, 63
12, 27420, Note_on_c, 4, 64, 72
12, 27440, Note_on_c, 4, 64, 0
12, 27441, Note_on_c, 4, 60, 0
12, 27448, Note_on_c, 4, 55, 0
12, 27480, Note_on_c, 4, 55, 65
12, 27480, Note_on_c, 4, 64, 70
12, 27480, Note_on_c, 4, 60, 55
12, 27493, Note_on_c, 4, 64, 0
12, 27495, Note_on_c, 4, 60, 0
12, 27506, Note_on_c, 4, 55, 0
12, 27540, Note_on_c, 4, 64, 73
12, 27540, Note_on_c, 4, 60, 71
12, 27540, Note_on_c, 4, 55, 66
12, 27632, Note_on_c, 4, 60, 0
12, 27633, Note_on_c, 4, 55, 0
12, 27634, Note_on_c, 4, 64, 0
12, 27660, Note_on_c, 4, 64, 59
12, 27660, Note_on_c, 4, 60, 55
12, 27660, Note_on_c, 4, 55, 56
12, 27680, Note_on_c, 4, 60, 0
12, 27684, Note_on_c, 4, 64, 0
12, 27688, Note_on_c, 4, 55, 0
12, 27720, Note_on_c, 4, 64, 80
12, 27720, Note_on_c, 4, 55, 66
12, 27720, Note_on_c, 4, 60, 69
12, 27743, Note_on_c, 4, 60, 0
12, 27746, Note_on_c, 4, 64, 0
12, 27748, Note_on_c, 4, 55, 0
12, 27780, Note_on_c, 4, 60, 69
12, 27780, Note_on_c, 4, 64, 71
12, 27780, Note_on_c, 4, 55, 64
12, 27802, Note_on_c, 4, 64, 0
12, 27804, Note_on_c, 4, 60, 0
12, 27810, Note_on_c, 4, 55, 0
12, 27840, Note_on_c, 4, 65, 63
12, 27840, Note_on_c, 4, 57, 66
12, 27840, Note_on_c, 4, 62, 65
12, 27872, Note_on_c, 4, 62, 0
12, 27874, Note_on_c, 4, 57, 0
12, 27880, Note_on_c, 4, 65, 0
12, 27903, Note_on_c, 4, 57, 63
12, 27903, Note_on_c, 4, 62, 63
12, 27903, Note_on_c, 4, 65, 63
12, 27943, Note_on_c, 4, 65, 0
12, 27943, Note_on_c, 4, 62, 0
12, 27943, Note_on_c, 4, 57, 0
12, 27960, Note_on_c, 4, 57, 63
12, 27960, Note_on_c, 4, 65, 56
12, 27960, Note_on_c, 4, 62, 59
12, 27971, Note_on_c, 4, 62, 0
12, 27981, Note_on_c, 4, 57, 0
12, 27990, Note_on_c, 4, 65, 0
12, 28020, Note_on_c, 4, 65, 52
12, 28020, Note_on_c, 4, 57, 65
12, 28020, Note_on_c, 4, 62, 69
12, 28122, Note_on_c, 4, 62, 0
12, 28123, Note_on_c, 4, 57, 0
12, 28126, Note_on_c, 4, 65, 0
12, 28140, Note_on_c, 4, 65, 51
12, 28140, Note_on_c, 4, 57, 54
12, 28140, Note_on_c, 4, 62, 55
12, 28168, Note_on_c, 4, 57, 0
12, 28170, Note_on_c, 4, 62, 0
12, 28179, Note_on_c, 4, 65, 0
12, 28200, Note_on_c, 4, 57, 69
12, 28200, Note_on_c, 4, 65, 67
12, 28200, Note_on_c, 4, 62, 60
12, 28284, Note_on_c, 4, 62, 0
12, 28290, Note_on_c, 4, 57, 0
12, 28294, Note_on_c, 4, 65, 0
12, 28320, Note_on_c, 4, 65, 60
12, 28320, Note_on_c, 4, 62, 66
12, 28320, Note_on_c, 4, 58, 71
12, 28343, Note_on_c, 4, 58, 0
12, 28347, Note_on_c, 4, 62, 0
12, 28354, Note_on_c, 4, 65, 0
12, 28383, Note_on_c, 4, 58, 63
12, 28386, Note_on_c, 4, 62, 63
12, 28386, Note_on_c, 4, 65, 63
12, 28423, Note_on_c, 4, 58, 0
12, 28426, Note_on_c, 4, 65, 0
12, 28426, Note_on_c, 4, 62, 0
12, 28440, Note_on_c, 4, 65, 59
12, 28440, Note_on_c, 4, 58, 67
12, 28440, Note_on_c, 4, 62, 69
12, 28467, Note_on_c, 4, 62, 0
12, 28468, Note_on_c, 4, 58, 0
12, 28474, Note_on_c, 4, 65, 0
12, 28500, Note_on_c, 4, 58, 72
12, 28500, Note_on_c, 4, 65, 49
12, 28500, Note_on_c, 4, 62, 63
12, 28594, Note_on_c, 4, 58, 0
12, 28597, Note_on_c, 4, 62, 0
12, 28611, Note_on_c, 4, 65, 0
12, 28620, Note_on_c, 4, 58, 62
12, 28620, Note_on_c, 4, 65, 53
12, 28620, Note_on_c, 4, 62, 52
12, 28635, Note_on_c, 4, 62, 0
12, 28648, Note_on_c, 4, 58, 0
12, 28655, Note_on_c, 4, 65, 0
12, 28680, Note_on_c, 4, 58, 63
12, 28680, Note_on_c, 4, 62, 71
12, 28680, Note_on_c, 4, 65, 59
12, 28755, Note_on_c, 4, 65, 0
12, 28755, Note_on_c, 4, 62, 0
12, 28776, Note_on_c, 4, 58, 0
12, 28800, Note_on_c, 4, 55, 80
12, 28800, Note_on_c, 4, 60, 59
12, 28800, Note_on_c, 4, 64, 78
12, 28831, Note_on_c, 4, 64, 0
12, 28832, Note_on_c, 4, 60, 0
12, 28833, Note_on_c, 4, 55, 0
12, 28860, Note_on_c, 4, 55, 63
12, 28860, Note_on_c, 4, 64, 63
12, 28863, Note_on_c, 4, 60, 63
12, 28900, Note_on_c, 4, 64, 0
12, 28900, Note_on_c, 4, 55, 0
12, 28903, Note_on_c, 4, 60, 0
12, 28920, Note_on_c, 4, 55, 71
12, 28920, Note_on_c, 4, 60, 64
12, 28920, Note_on_c, 4, 64, 72
12, 28937, Note_on_c, 4, 64, 0
12, 28941, Note_on_c, 4, 60, 0
12, 28948, Note_on_c, 4, 55, 0
12, 28980, Note_on_c, 4, 60, 66
12, 28980, Note_on_c, 4, 64, 74
12, 28980, Note_on_c, 4, 55, 66
12, 29072, Note_on_c, 4, 55, 0
12, 29073, Note_on_c, 4, 64, 0
12, 29074, Note_on_c, 4, 60, 0
12, 29100, Note_on_c, 4, 64, 60
12, 29100, Note_on_c, 4, 60, 56
12, 29100, Note_on_c, 4, 55, 58
12, 29125, Note_on_c, 4, 60, 0
12, 29126, Note_on_c, 4, 64, 0
12, 29130, Note_on_c, 4, 55, 0
12, 29160, Note_on_c, 4, 60, 66
12, 29160, Note_on_c, 4, 64, 72
12, 29160, Note_on_c, 4, 55, 61
12, 29186, Note_on_c, 4, 64, 0
12, 29187, Note_on_c, 4, 60, 0
12, 29190, Note_on_c, 4, 55, 0
12, 29220, Note_on_c, 4, 55, 52
12, 29220, Note_on_c, 4, 64, 61
12, 29220, Note_on_c, 4, 60, 59
12, 29236, Note_on_c, 4, 60, 0
12, 29239, Note_on_c, 4, 64, 0
12, 29251, Note_on_c, 4, 55, 0
12, 29340, Note_on_c, 4, 55, 66
12, 29340, Note_on_c, 4, 60, 63
12, 29340, Note_on_c, 4, 64, 72
12, 29360, Note_on_c, 4, 64, 0
12, 29361, Note_on_c, 4, 60, 0
12, 29368, Note_on_c, 4, 55, 0
12, 29400, Note_on_c, 4, 55, 65
12, 29400, Note_on_c, 4, 64, 70
12, 29400, Note_on_c, 4, 60, 55
12, 29413, Note_on_c, 4, 64, 0
12, 29415, Note_on_c, 4, 60, 0
12, 29426, Note_on_c, 4, 55, 0
12, 29460, Note_on_c, 4, 64, 73
12, 29460, Note_on_c, 4, 60, 71
12, 29460, Note_on_c, 4, 55, 66
12, 29552, Note_on_c, 4, 60, 0
12, 29553, Note_on_c, 4, 55, 0
12, 29554, Note_on_c, 4, 64, 0
12, 29580, Note_on_c, 4, 64, 59
12, 29580, Note_on_c, 4, 60, 55
12, 29580, Note_on_c, 4, 55, 56
12, 29600, Note_on_c, 4, 60, 0
12, 29604, Note_on_c, 4, 64, 0
12, 29608, Note_on_c, 4, 55, 0
12, 29640, Note_on_c, 4, 64, 80
12, 29640, Note_on_c, 4, 55, 66
12, 29640, Note_on_c, 4, 60, 69
12, 29663, Note_on_c, 4, 60, 0
12, 29666, Note_on_c, 4, 64, 0
12, 29668, Note_on_c, 4, 55, 0
12, 29700, Note_on_c, 4, 60, 69
12, 29700, Note_on_c, 4, 64, 71
12, 29700, Note_on_c, 4, 55, 64
12, 29722, Note_on_c, 4, 64, 0
12, 29724, Note_on_c, 4, 60, 0
12, 29730, Note_on_c, 4, 55, 0
12, 29760, Note_on_c, 4, 53, 72
12, 29793, Note_on_c, 4, 53, 0
12, 29820, Note_on_c, 4, 53, 50
12, 29849, Note_on_c, 4, 53, 0
12, 29880, Note_on_c, 4, 53, 50
12, 29904, Note_on_c, 4, 53, 0
12, 29940, Note_on_c, 4, 53, 73
12, 30030, Note_on_c, 4, 53, 0
12, 30060, Note_on_c, 4, 53, 51
12, 30085, Note_on_c, 4, 53, 0
12, 30120, Note_on_c, 4, 53, 63
12, 30144, Note_on_c, 4, 53, 0
12, 30180, Note_on_c, 4, 53, 47
12, 30200, Note_on_c, 4, 53, 0
12, 30240, Note_on_c, 4, 53, 75
12, 30270, Note_on_c, 4, 53, 0
12, 30300, Note_on_c, 4, 53, 47
12, 30327, Note_on_c, 4, 53, 0
12, 30360, Note_on_c, 4, 53, 52
12, 30386, Note_on_c, 4, 53, 0
12, 30420, Note_on_c, 4, 53, 69
12, 30511, Note_on_c, 4, 53, 0
12, 30540, Note_on_c, 4, 53, 49
12, 30568, Note_on_c, 4, 53, 0
12, 30600, Note_on_c, 4, 53, 54
12, 30626, Note_on_c, 4, 53, 0
12, 30660, Note_on_c, 4, 53, 49
12, 30681, Note_on_c, 4, 53, 0
12, 30720, Note_on_c, 4, 53, 75
12, 30750, Note_on_c, 4, 53, 0
12, 30780, Note_on_c, 4, 53, 47
12, 30807, Note_on_c, 4, 53, 0
12, 30840, Note_on_c, 4, 53, 52
12, 30866, Note_on_c, 4, 53, 0
12, 30900, Note_on_c, 4, 53, 69
12, 30991, Note_on_c, 4, 53, 0
12, 31020, Note_on_c, 4, 53, 49
12, 31048, Note_on_c, 4, 53, 0
12, 31080, Note_on_c, 4, 53, 54
12, 31106, Note_on_c, 4, 53, 0
12, 31140, Note_on_c, 4, 53, 49
12, 31161, Note_on_c, 4, 53, 0
12, 31260, Note_on_c, 4, 48, 41
12, 31262, Note_on_c, 4, 52, 41
12, 31275, Note_on_c, 4, 52, 0
12, 31280, Note_on_c, 4, 48, 0
12, 31372, Note_on_c, 4, 48, 51
12, 31380, Note_on_c, 4, 52, 52
12, 31391, Note_on_c, 4, 52, 0
12, 31401, Note_on_c, 4, 48, 0
12, 31489, Note_on_c, 4, 48, 56
12, 31492, Note_on_c, 4, 52, 56
12, 31505, Note_on_c, 4, 52, 0
12, 31509, Note_on_c, 4, 48, 0
12, 31598, Note_on_c, 4, 48, 61
12, 31601, Note_on_c, 4, 52, 61
12, 31612, Note_on_c, 4, 52, 0
12, 31612, Note_on_c, 4, 48, 0
12, 31680, Note_on_c, 4, 46, 63
12, 31706, Note_on_c, 4, 46, 0
12, 31740, Note_on_c, 4, 46, 51
12, 31769, Note_on_c, 4, 46, 0
12, 31800, Note_on_c, 4, 46, 62
12, 31824, Note_on_c, 4, 46, 0
12, 31860, Note_on_c, 4, 46, 78
12, 31973, Note_on_c, 4, 46, 0
12, 31980, Note_on_c, 4, 50, 62
12, 32038, Note_on_c, 4, 50, 0
12, 32040, Note_on_c, 4, 46, 51
12, 32067, Note_on_c, 4, 46, 0
12, 32100, Note_on_c, 4, 46, 58
12, 32132, Note_on_c, 4, 46, 0
12, 32160, Note_on_c, 4, 46, 67
12, 32220, Note_on_c, 4, 46, 0
12, 32220, Note_on_c, 4, 50, 52
12, 32269, Note_on_c, 4, 50, 0
12, 32280, Note_on_c, 4, 46, 56
12, 32304, Note_on_c, 4, 46, 0
12, 32340, Note_on_c, 4, 46, 72
12, 32446, Note_on_c, 4, 46, 0
12, 32460, Note_on_c, 4, 50, 61
12, 32497, Note_on_c, 4, 50, 0
12, 32520, Note_on_c, 4, 46, 63
12, 32550, Note_on_c, 4, 46, 0
12, 32580, Note_on_c, 4, 46, 61
12, 32610, Note_on_c, 4, 46, 0
12, 32640, Note_on_c, 4, 46, 69
12, 32700, Note_on_c, 4, 50, 51
12, 32703, Note_on_c, 4, 46, 0
12, 32738, Note_on_c, 4, 50, 0
12, 32760, Note_on_c, 4, 46, 62
12, 32786, Note_on_c, 4, 46, 0
12, 32820, Note_on_c, 4, 46, 70
12, 32929, Note_on_c, 4, 46, 0
12, 32940, Note_on_c, 4, 46, 44
12, 32963, Note_on_c, 4, 46, 0
12, 33000, Note_on_c, 4, 46, 65
12, 33031, Note_on_c, 4, 46, 0
12, 33060, Note_on_c, 4, 46, 60
12, 33073, Note_on_c, 4, 46, 0
12, 33120, Note_on_c, 4, 53, 72
12, 33153, Note_on_c, 4, 53, 0
12, 33180, Note_on_c, 4, 53, 50
12, 33209, Note_on_c, 4, 53, 0
12, 33240, Note_on_c, 4, 53, 50
12, 33264, Note_on_c, 4, 53, 0
12, 33300, Note_on_c, 4, 53, 73
12, 33390, Note_on_c, 4, 53, 0
12, 33420, Note_on_c, 4, 53, 51
12, 33445, Note_on_c, 4, 53, 0
12, 33480, Note_on_c, 4, 53, 63
12, 33504, Note_on_c, 4, 53, 0
12, 33540, Note_on_c, 4, 53, 47
12, 33560, Note_on_c, 4, 53, 0
12, 33600, Note_on_c, 4, 53, 75
12, 33630, Note_on_c, 4, 53, 0
12, 33660, Note_on_c, 4, 53, 47
12, 33687, Note_on_c, 4, 53, 0
12, 33720, Note_on_c, 4, 53, 52
12, 33746, Note_on_c, 4, 53, 0
12, 33780, Note_on_c, 4, 53, 69
12, 33871, Note_on_c, 4, 53, 0
12, 33900, Note_on_c, 4, 53, 49
12, 33928, Note_on_c, 4, 53, 0
12, 33960, Note_on_c, 4, 53, 54
12, 33986, Note_on_c, 4, 53, 0
12, 34020, Note_on_c, 4, 53, 49
12, 34041, Note_on_c, 4, 53, 0
12, 34080, Note_on_c, 4, 53, 72
12, 34113, Note_on_c, 4, 53, 0
12, 34140, Note_on_c, 4, 53, 50
12, 34169, Note_on_c, 4, 53, 0
12, 34200, Note_on_c, 4, 53, 50
12, 34224, Note_on_c, 4, 53, 0
12, 34260, Note_on_c, 4, 53, 73
12, 34350, Note_on_c, 4, 53, 0
12, 34380, Note_on_c, 4, 53, 51
12, 34405, Note_on_c, 4, 53, 0
12, 34440, Note_on_c, 4, 53, 63
12, 34464, Note_on_c, 4, 53, 0
12, 34500, Note_on_c, 4, 53, 47
12, 34520, Note_on_c, 4, 53, 0
12, 34560, Note_on_c, 4, 53, 75
12, 34590, Note_on_c, 4, 53, 0
12, 34620, Note_on_c, 4, 53, 47
12, 34647, Note_on_c, 4, 53, 0
12, 34680, Note_on_c, 4, 53, 52
12, 34706, Note_on_c, 4, 53, 0
12, 34740, Note_on_c, 4, 53, 69
12, 34831, Note_on_c, 4, 53, 0
12, 34860, Note_on_c, 4, 53, 49
12, 34888, Note_on_c, 4, 53, 0
12, 34920, Note_on_c, 4, 53, 54
12, 34946, Note_on_c, 4, 53, 0
12, 34980, Note_on_c, 4, 53, 49
12, 35001, Note_on_c, 4, 53, 0
12, 35040, Note_on_c, 4, 53, 75
12, 35070, Note_on_c, 4, 53, 0
12, 35100, Note_on_c, 4, 53, 47
12, 35127, Note_on_c, 4, 53, 0
12, 35160, Note_on_c, 4, 53, 52
12, 35186, Note_on_c, 4, 53, 0
12, 35220, Note_on_c, 4, 53, 69
12, 35311, Note_on_c, 4, 53, 0
12, 35340, Note_on_c, 4, 53, 49
12, 35368, Note_on_c, 4, 53, 0
12, 35400, Note_on_c, 4, 53, 54
12, 35426, Note_on_c, 4, 53, 0
12, 35460, Note_on_c, 4, 53, 49
12, 35481, Note_on_c, 4, 53, 0
12, 35580, Note_on_c, 4, 48, 41
12, 35582, Note_on_c, 4, 52, 41
12, 35595, Note_on_c, 4, 52, 0
12, 35600, Note_on_c, 4, 48, 0
12, 35692, Note_on_c, 4, 48, 51
12, 35700, Note_on_c, 4, 52, 52
12, 35711, Note_on_c, 4, 52, 0
12, 35721, Note_on_c, 4, 48, 0
12, 35809, Note_on_c, 4, 48, 56
12, 35812, Note_on_c, 4, 52, 56
12, 35825, Note_on_c, 4, 52, 0
12, 35829, Note_on_c, 4, 48, 0
12, 35918, Note_on_c, 4, 48, 61
12, 35921, Note_on_c, 4, 52, 61
12, 35932, Note_on_c, 4, 52, 0
12, 35932, Note_on_c, 4, 48, 0
12, 36000, Note_on_c, 4, 46, 63
12, 36026, Note_on_c, 4, 46, 0
12, 36060, Note_on_c, 4, 46, 51
12, 36089, Note_on_c, 4, 46, 0
12, 36120, Note_on_c, 4, 46, 62
12, 36144, Note_on_c, 4, 46, 0
12, 36180, Note_on_c, 4, 46, 78
12, 36293, Note_on_c, 4, 46, 0
12, 36300, Note_on_c, 4, 50, 62
12, 36358, Note_on_c, 4, 50, 0
12, 36360, Note_on_c, 4, 46, 51
12, 36387, Note_on_c, 4, 46, 0
12, 36420, Note_on_c, 4, 46, 58
12, 36452, Note_on_c, 4, 46, 0
12, 36480, Note_on_c, 4, 46, 67
12, 36540, Note_on_c, 4, 46, 0
12, 36540, Note_on_c, 4, 50, 52
12, 36589, Note_on_c, 4, 50, 0
12, 36600, Note_on_c, 4, 46, 56
12, 36624, Note_on_c, 4, 46, 0
12, 36660, Note_on_c, 4, 46, 72
12, 36766, Note_on_c, 4, 46, 0
12, 36780, Note_on_c, 4, 50, 61
12, 36817, Note_on_c, 4, 50, 0
12, 36840, Note_on_c, 4, 46, 63
12, 36870, Note_on_c, 4, 46, 0
12, 36900, Note_on_c, 4, 46, 61
12, 36930, Note_on_c, 4, 46, 0
12, 36960, Note_on_c, 4, 46, 69
12, 37020, Note_on_c, 4, 50, 51
12, 37023, Note_on_c, 4, 46, 0
12, 37058, Note_on_c, 4, 50, 0
12, 37080, Note_on_c, 4, 46, 62
12, 37106, Note_on_c, 4, 46, 0
12, 37140, Note_on_c, 4, 46, 70
12, 37249, Note_on_c, 4, 46, 0
12, 37260, Note_on_c, 4, 46, 44
12, 37283, Note_on_c, 4, 46, 0
12, 37320, Note_on_c, 4, 46, 65
12, 37351, Note_on_c, 4, 46, 0
12, 37380, Note_on_c, 4, 46, 60
12, 37393, Note_on_c, 4, 46, 0
12, 37440, Note_on_c, 4, 53, 72
12, 37473, Note_on_c, 4, 53, 0
12, 37500, Note_on_c, 4, 53, 50
12, 37529, Note_on_c, 4, 53, 0
12, 37560, Note_on_c, 4, 53, 50
12, 37584, Note_on_c, 4, 53, 0
12, 37620, Note_on_c, 4, 53, 73
12, 37710, Note_on_c, 4, 53, 0
12, 37740, Note_on_c, 4, 53, 51
12, 37765, Note_on_c, 4, 53, 0
12, 37800, Note_on_c, 4, 53, 63
12, 37824, Note_on_c, 4, 53, 0
12, 37860, Note_on_c, 4, 53, 47
12, 37880, Note_on_c, 4, 53, 0
12, 37920, Note_on_c, 4, 65, 63
12, 37920, Note_on_c, 4, 57, 66
12, 37920, Note_on_c, 4, 62, 65
12, 37952, Note_on_c, 4, 62, 0
12, 37954, Note_on_c, 4, 57, 0
12, 37960, Note_on_c, 4, 65, 0
12, 37983, Note_on_c, 4, 57, 63
12, 37983, Note_on_c, 4, 62, 63
12, 37983, Note_on_c, 4, 65, 63
12, 38023, Note_on_c, 4, 65, 0
12, 38023, Note_on_c, 4, 62, 0
12, 38023, Note_on_c, 4, 57, 0
12, 38040, Note_on_c, 4, 57, 63
12, 38040, Note_on_c, 4, 65, 56
12, 38040, Note_on_c, 4, 62, 59
12, 38051, Note_on_c, 4, 62, 0
12, 38061, Note_on_c, 4, 57, 0
12, 38070, Note_on_c, 4, 65, 0
12, 38100, Note_on_c, 4, 65, 52
12, 38100, Note_on_c, 4, 57, 65
12, 38100, Note_on_c, 4, 62, 69
12, 38202, Note_on_c, 4, 62, 0
12, 38203, Note_on_c, 4, 57, 0
12, 38206, Note_on_c, 4, 65, 0
12, 38220, Note_on_c, 4, 65, 51
12, 38220, Note_on_c, 4, 57, 54
12, 38220, Note_on_c, 4, 62, 55
12, 38248, Note_on_c, 4, 57, 0
12, 38250, Note_on_c, 4, 62, 0
12, 38259, Note_on_c, 4, 65, 0
12, 38280, Note_on_c, 4, 57, 69
12, 38280, Note_on_c, 4, 65, 67
12, 38280, Note_on_c, 4, 62, 60
12, 38364, Note_on_c, 4, 62, 0
12, 38370, Note_on_c, 4, 57, 0
12, 38374, Note_on_c, 4, 65, 0
12, 38400, Note_on_c, 4, 65, 60
12, 38400, Note_on_c, 4, 62, 66
12, 38400, Note_on_c, 4, 58, 71
12, 38423, Note_on_c, 4, 58, 0
12, 38427, Note_on_c, 4, 62, 0
12, 38434, Note_on_c, 4, 65, 0
12, 38463, Note_on_c, 4, 58, 63
12, 38466, Note_on_c, 4, 62, 63
12, 38466, Note_on_c, 4, 65, 63
12, 38503, Note_on_c, 4, 58, 0
12, 38506, Note_on_c, 4, 65, 0
12, 38506, Note_on_c, 4, 62, 0
12, 38520, Note_on_c, 4, 65, 59
12, 38520, Note_on_c, 4, 58, 67
12, 38520, Note_on_c, 4, 62, 69
12, 38547, Note_on_c, 4, 62, 0
12, 38548, Note_on_c, 4, 58, 0
12, 38554, Note_on_c, 4, 65, 0
12, 38580, Note_on_c, 4, 58, 72
12, 38580, Note_on_c, 4, 65, 49
12, 38580, Note_on_c, 4, 62, 63
12, 38674, Note_on_c, 4, 58, 0
12, 38677, Note_on_c, 4, 62, 0
12, 38691, Note_on_c, 4, 65, 0
12, 38700, Note_on_c, 4, 58, 62
12, 38700, Note_on_c, 4, 65, 53
12, 38700, Note_on_c, 4, 62, 52
12, 38715, Note_on_c, 4, 62, 0
12, 38728, Note_on_c, 4, 58, 0
12, 38735, Note_on_c, 4, 65, 0
12, 38760, Note_on_c, 4, 58, 63
12, 38760, Note_on_c, 4, 62, 71
12, 38760, Note_on_c, 4, 65, 59
12, 38835, Note_on_c, 4, 65, 0
12, 38835, Note_on_c, 4, 62, 0
12, 38856, Note_on_c, 4, 58, 0
12, 38880, Note_on_c, 4, 55, 80
12, 38880, Note_on_c, 4, 60, 59
12, 38880, Note_on_c, 4, 64, 78
12, 38911, Note_on_c, 4, 64, 0
12, 38912, Note_on_c, 4, 60, 0
12, 38913, Note_on_c, 4, 55, 0
12, 38940, Note_on_c, 4, 55, 63
12, 38940, Note_on_c, 4, 64, 63
12, 38943, Note_on_c, 4, 60, 63
12, 38980, Note_on_c, 4, 64, 0
12, 38980, Note_on_c, 4, 55, 0
12, 38983, Note_on_c, 4, 60, 0
12, 39000, Note_on_c, 4, 55, 71
12, 39000, Note_on_c, 4, 60, 64
12, 39000, Note_on_c, 4, 64, 72
12, 39017, Note_on_c, 4, 64, 0
12, 39021, Note_on_c, 4, 60, 0
12, 39028, Note_on_c, 4, 55, 0
12, 39060, Note_on_c, 4, 60, 66
12, 39060, Note_on_c, 4, 64, 74
12, 39060, Note_on_c, 4, 55, 66
12, 39152, Note_on_c, 4, 55, 0
12, 39153, Note_on_c, 4, 64, 0
12, 39154, Note_on_c, 4, 60, 0
12, 39180, Note_on_c, 4, 64, 60
12, 39180, Note_on_c, 4, 60, 56
12, 39180, Note_on_c, 4, 55, 58
12, 39205, Note_on_c, 4, 60, 0
12, 39206, Note_on_c, 4, 64, 0
12, 39210, Note_on_c, 4, 55, 0
12, 39240, Note_on_c, 4, 60, 66
12, 39240, Note_on_c, 4, 64, 72
12, 39240, Note_on_c, 4, 55, 61
12, 39266, Note_on_c, 4, 64, 0
12, 39267, Note_on_c, 4, 60, 0
12, 39270, Note_on_c, 4, 55, 0
12, 39300, Note_on_c, 4, 55, 52
12, 39300, Note_on_c, 4, 64, 61
12, 39300, Note_on_c, 4, 60, 59
12, 39316, Note_on_c, 4, 60, 0
12, 39319, Note_on_c, 4, 64, 0
12, 39331, Note_on_c, 4, 55, 0
12, 39420, Note_on_c, 4, 55, 66
12, 39420, Note_on_c, 4, 60, 63
12, 39420, Note_on_c, 4, 64, 72
12, 39440, Note_on_c, 4, 64, 0
12, 39441, Note_on_c, 4, 60, 0
12, 39448, Note_on_c, 4, 55, 0
12, 39480, Note_on_c, 4, 55, 65
12, 39480, Note_on_c, 4, 64, 70
12, 39480, Note_on_c, 4, 60, 55
12, 39493, Note_on_c, 4, 64, 0
12, 39495, Note_on_c, 4, 60, 0
12, 39506, Note_on_c, 4, 55, 0
12, 39540, Note_on_c, 4, 64, 73
12, 39540, Note_on_c, 4, 60, 71
12, 39540, Note_on_c, 4, 55, 66
12, 39632, Note_on_c, 4, 60, 0
12, 39633, Note_on_c, 4, 55, 0
12, 39634, Note_on_c, 4, 64, 0
12, 39660, Note_on_c, 4, 64, 59
12, 39660, Note_on_c, 4, 60, 55
12, 39660, Note_on_c, 4, 55, 56
12, 39680, Note_on_c, 4, 60, 0
12, 39684, Note_on_c, 4, 64, 0
12, 39688, Note_on_c, 4, 55, 0
12, 39720, Note_on_c, 4, 64, 80
12, 39720, Note_on_c, 4, 55, 66
12, 39720, Note_on_c, 4, 60, 69
12, 39743, Note_on_c, 4, 60, 0
12, 39746, Note_on_c, 4, 64, 0
12, 39748, Note_on_c, 4, 55, 0
12, 39780, Note_on_c, 4, 60, 69
12, 39780, Note_on_c, 4, 64, 71
12, 39780, Note_on_c, 4, 55, 64
12, 39802, Note_on_c, 4, 64, 0
12, 39804, Note_on_c, 4, 60, 0
12, 39810, Note_on_c, 4, 55, 0
12, 39840, Note_on_c, 4, 65, 63
12, 39840, Note_on_c, 4, 57, 66
12, 39840, Note_on_c, 4, 62, 65
12, 39872, Note_on_c, 4, 62, 0
12, 39874, Note_on_c, 4, 57, 0
12, 39880, Note_on_c, 4, 65, 0
12, 39903, Note_on_c, 4, 57, 63
12, 39903, Note_on_c, 4, 62, 63
12, 39903, Note_on_c, 4, 65, 63
12, 39943, Note_on_c, 4, 65, 0
12, 39943, Note_on_c, 4, 62, 0
12, 39943, Note_on_c, 4, 57, 0
12, 39960, Note_on_c, 4, 57, 63
12, 39960, Note_on_c, 4, 65, 56
12, 39960, Note_on_c, 4, 62, 59
12, 39971, Note_on_c, 4, 62, 0
12, 39981, Note_on_c, 4, 57, 0
12, 39990, Note_on_c, 4, 65, 0
12, 40020, Note_on_c, 4, 65, 52
12, 40020, Note_on_c, 4, 57, 65
12, 40020, Note_on_c, 4, 62, 69
12, 40122, Note_on_c, 4, 62, 0
12, 40123, Note_on_c, 4, 57, 0
12, 40126, Note_on_c, 4, 65, 0
12, 40140, Note_on_c, 4, 65, 51
12, 40140, Note_on_c, 4, 57, 54
12, 40140, Note_on_c, 4, 62, 55
12, 40168, Note_on_c, 4, 57, 0
12, 40170, Note_on_c, 4, 62, 0
12, 40179, Note_on_c, 4, 65, 0
12, 40200, Note_on_c, 4, 57, 69
12, 40200, Note_on_c, 4, 65, 67
12, 40200, Note_on_c, 4, 62, 60
12, 40284, Note_on_c, 4, 62, 0
12, 40290, Note_on_c, 4, 57, 0
12, 40294, Note_on_c, 4, 65, 0
12, 40320, Note_on_c, 4, 65, 60
12, 40320, Note_on_c, 4, 62, 66
12, 40320, Note_on_c, 4, 58, 71
12, 40343, Note_on_c, 4, 58, 0
12, 40347, Note_on_c, 4, 62, 0
12, 40354, Note_on_c, 4, 65, 0
12, 40383, Note_on_c, 4, 58, 63
12, 40386, Note_on_c, 4, 62, 63
12, 40386, Note_on_c, 4, 65, 63
12, 40423, Note_on_c, 4, 58, 0
12, 40426, Note_on_c, 4, 65, 0
12, 40426, Note_on_c, 4, 62, 0
12, 40440, Note_on_c, 4, 65, 59
12, 40440, Note_on_c, 4, 58, 67
12, 40440, Note_on_c, 4, 62, 69
12, 40467, Note_on_c, 4, 62, 0
12, 40468, Note_on_c, 4, 58, 0
12, 40474, Note_on_c, 4, 65, 0
12, 40500, Note_on_c, 4, 58, 72
12, 40500, Note_on_c, 4, 65, 49
12, 40500, Note_on_c, 4, 62, 63
12, 40594, Note_on_c, 4, 58, 0
12, 40597, Note_on_c, 4, 62, 0
12, 40611, Note_on_c, 4, 65, 0
12, 40620, Note_on_c, 4, 58, 62
12, 40620, Note_on_c, 4, 65, 53
12, 40620, Note_on_c, 4, 62, 52
12, 40635, Note_on_c, 4, 62, 0
12, 40648, Note_on_c, 4, 58, 0
12, 40655, Note_on_c, 4, 65, 0
12, 40680, Note_on_c, 4, 58, 63
12, 40680, Note_on_c, 4, 62, 71
12, 40680, Note_on_c, 4, 65, 59
12, 40755, Note_on_c, 4, 65, 0
12, 40755, Note_on_c, 4, 62, 0
12, 40776, Note_on_c, 4, 58, 0
12, 40800, Note_on_c, 4, 55, 80
12, 40800, Note_on_c, 4, 60, 59
12, 40800, Note_on_c, 4, 64, 78
12, 40831, Note_on_c, 4, 64, 0
12, 40832, Note_on_c, 4, 60, 0
12, 40833, Note_on_c, 4, 55, 0
12, 40860, Note_on_c, 4, 55, 63
12, 40860, Note_on_c, 4, 64, 63
12, 40863, Note_on_c, 4, 60, 63
12, 40900, Note_on_c, 4, 64, 0
12, 40900, Note_on_c, 4, 55, 0
12, 40903, Note_on_c, 4, 60, 0
12, 40920, Note_on_c, 4, 55, 71
12, 40920, Note_on_c, 4, 60, 64
12, 40920, Note_on_c, 4, 64, 72
12, 40937, Note_on_c, 4, 64, 0
12, 40941, Note_on_c, 4, 60, 0
12, 40948, Note_on_c, 4, 55, 0
12, 40980, Note_on_c, 4, 60, 66
12, 40980, Note_on_c, 4, 64, 74
12, 40980, Note_on_c, 4, 55, 66
12, 41072, Note_on_c, 4, 55, 0
12, 41073, Note_on_c, 4, 64, 0
12, 41074, Note_on_c, 4, 60, 0
12, 41100, Note_on_c, 4, 64, 60
12, 41100, Note_on_c, 4, 60, 56
12, 41100, Note_on_c, 4, 55, 58
12, 41125, Note_on_c, 4, 60, 0
12, 41126, Note_on_c, 4, 64, 0
12, 41130, Note_on_c, 4, 55, 0
12, 41160, Note_on_c, 4, 60, 66
12, 41160, Note_on_c, 4, 64, 72
12, 41160, Note_on_c, 4, 55, 61
12, 41186, Note_on_c, 4, 64, 0
12, 41187, Note_on_c, 4, 60, 0
12, 41190, Note_on_c, 4, 55, 0
12, 41220, Note_on_c, 4, 55, 52
12, 41220, Note_on_c, 4, 64, 61
12, 41220, Note_on_c, 4, 60, 59
12, 41236, Note_on_c, 4, 60, 0
12, 41239, Note_on_c, 4, 64, 0
12, 41251, Note_on_c, 4, 55, 0
12, 41340, Note_on_c, 4, 55, 66
12, 41340, Note_on_c, 4, 60, 63
12, 41340, Note_on_c, 4, 64, 72
12, 41360, Note_on_c, 4, 64, 0
12, 41361, Note_on_c, 4, 60, 0
12, 41368, Note_on_c, 4, 55, 0
12, 41400, Note_on_c, 4, 55, 65
12, 41400, Note_on_c, 4, 64, 70
12, 41400, Note_on_c, 4, 60, 55
12, 41413, Note_on_c, 4, 64, 0
12, 41415, Note_on_c, 4, 60, 0
12, 41426, Note_on_c, 4, 55, 0
12, 41460, Note_on_c, 4, 64, 73
12, 41460, Note_on_c, 4, 60, 71
12, 41460, Note_on_c, 4, 55, 66
12, 41552, Note_on_c, 4, 60, 0
12, 41553, Note_on_c, 4, 55, 0
12, 41554, Note_on_c, 4, 64, 0
12, 41580, Note_on_c, 4, 64, 59
12, 41580, Note_on_c, 4, 60, 55
12, 41580, Note_on_c, 4, 55, 56
12, 41600, Note_on_c, 4, 60, 0
12, 41604, Note_on_c, 4, 64, 0
12, 41608, Note_on_c, 4, 55, 0
12, 41640, Note_on_c, 4, 64, 80
12, 41640, Note_on_c, 4, 55, 66
12, 41640, Note_on_c, 4, 60, 69
12, 41663, Note_on_c, 4, 60, 0
12, 41666, Note_on_c, 4, 64, 0
12, 41668, Note_on_c, 4, 55, 0
12, 41700, Note_on_c, 4, 60, 69
12, 41700, Note_on_c, 4, 64, 71
12, 41700, Note_on_c, 4, 55, 64
12, 41722, Note_on_c, 4, 64, 0
12, 41724, Note_on_c, 4, 60, 0
12, 41730, Note_on_c, 4, 55, 0
12, 41760, Note_on_c, 4, 65, 63
12, 41760, Note_on_c, 4, 57, 66
12, 41760, Note_on_c, 4, 62, 65
12, 41792, Note_on_c, 4, 62, 0
12, 41794, Note_on_c, 4, 57, 0
12, 41800, Note_on_c, 4, 65, 0
12, 41823, Note_on_c, 4, 57, 63
12, 41823, Note_on_c, 4, 62, 63
12, 41823, Note_on_c, 4, 65, 63
12, 41863, Note_on_c, 4, 65, 0
12, 41863, Note_on_c, 4, 62, 0
12, 41863, Note_on_c, 4, 57, 0
12, 41880, Note_on_c, 4, 57, 63
12, 41880, Note_on_c, 4, 65, 56
12, 41880, Note_on_c, 4, 62, 59
12, 41891, Note_on_c, 4, 62, 0
12, 41901, Note_on_c, 4, 57, 0
12, 41910, Note_on_c, 4, 65, 0
12, 41940, Note_on_c, 4, 65, 52
12, 41940, Note_on_c, 4, 57, 65
12, 41940, Note_on_c, 4, 62, 69
12, 42042, Note_on_c, 4, 62, 0
12, 42043, Note_on_c, 4, 57, 0
12, 42046, Note_on_c, 4, 65, 0
12, 42060, Note_on_c, 4, 65, 51
12, 42060, Note_on_c, 4, 57, 54
12, 42060, Note_on_c, 4, 62, 55
12, 42088, Note_on_c, 4, 57, 0
12, 42090, Note_on_c, 4, 62, 0
12, 42099, Note_on_c, 4, 65, 0
12, 42120, Note_on_c, 4, 57, 69
12, 42120, Note_on_c, 4, 65, 67
12, 42120, Note_on_c, 4, 62, 60
12, 42204, Note_on_c, 4, 62, 0
12, 42210, Note_on_c, 4, 57, 0
12, 42214, Note_on_c, 4, 65, 0
12, 42240, Note_on_c, 4, 65, 60
12, 42240, Note_on_c, 4, 62, 66
12, 42240, Note_on_c, 4, 58, 71
12, 42263, Note_on_c, 4, 58, 0
12, 42267, Note_on_c, 4, 62, 0
12, 42274, Note_on_c, 4, 65, 0
12, 42303, Note_on_c, 4, 58, 63
12, 42306, Note_on_c, 4, 62, 63
12, 42306, Note_on_c, 4, 65, 63
12, 42343, Note_on_c, 4, 58, 0
12, 42346, Note_on_c, 4, 65, 0
12, 42346, Note_on_c, 4, 62, 0
12, 42360, Note_on_c, 4, 65, 59
12, 42360, Note_on_c, 4, 58, 67
12, 42360, Note_on_c, 4, 62, 69
12, 42387, Note_on_c, 4, 62, 0
12, 42388, Note_on_c, 4, 58, 0
12, 42394, Note_on_c, 4, 65, 0
12, 42420, Note_on_c, 4, 58, 72
12, 42420, Note_on_c, 4, 65, 49
12, 42420, Note_on_c, 4, 62, 63
12, 42514, Note_on_c, 4, 58, 0
12, 42517, Note_on_c, 4, 62, 0
12, 42531, Note_on_c, 4, 65, 0
12, 42540, Note_on_c, 4, 58, 62
12, 42540, Note_on_c, 4, 65, 53
12, 42540, Note_on_c, 4, 62, 52
12, 42555, Note_on_c, 4, 62, 0
12, 42568, Note_on_c, 4, 58, 0
12, 42575, Note_on_c, 4, 65, 0
12, 42600, Note_on_c, 4, 58, 63
12, 42600, Note_on_c, 4, 62, 71
12, 42600, Note_on_c, 4, 65, 59
12, 42675, Note_on_c, 4, 65, 0
12, 42675, Note_on_c, 4, 62, 0
12, 42696, Note_on_c, 4, 58, 0
12, 42720, Note_on_c, 4, 55, 80
12, 42720, Note_on_c, 4, 60, 59
12, 42720, Note_on_c, 4, 64, 78
12, 42751, Note_on_c, 4, 64, 0
12, 42752, Note_on_c, 4, 60, 0
12, 42753, Note_on_c, 4, 55, 0
12, 42780, Note_on_c, 4, 55, 63
12, 42780, Note_on_c, 4, 64, 63
12, 42783, Note_on_c, 4, 60, 63
12, 42820, Note_on_c, 4, 64, 0
12, 42820, Note_on_c, 4, 55, 0
12, 42823, Note_on_c, 4, 60, 0
12, 42840, Note_on_c, 4, 55, 71
12, 42840, Note_on_c, 4, 60, 64
12, 42840, Note_on_c, 4, 64, 72
12, 42857, Note_on_c, 4, 64, 0
12, 42861, Note_on_c, 4, 60, 0
12, 42868, Note_on_c, 4, 55, 0
12, 42900, Note_on_c, 4, 60, 66
12, 42900, Note_on_c, 4, 64, 74
12, 42900, Note_on_c, 4, 55, 66
12, 42992, Note_on_c, 4, 55, 0
12, 42993, Note_on_c, 4, 64, 0
12, 42994, Note_on_c, 4, 60, 0
12, 43020, Note_on_c, 4, 64, 60
12, 43020, Note_on_c, 4, 60, 56
12, 43020, Note_on_c, 4, 55, 58
12, 43045, Note_on_c, 4, 60, 0
12, 43046, Note_on_c, 4, 64, 0
12, 43050, Note_on_c, 4, 55, 0
12, 43080, Note_on_c, 4, 60, 66
12, 43080, Note_on_c, 4, 64, 72
12, 43080, Note_on_c, 4, 55, 61
12, 43106, Note_on_c, 4, 64, 0
12, 43107, Note_on_c, 4, 60, 0
12, 43110, Note_on_c, 4, 55, 0
12, 43140, Note_on_c, 4, 55, 52
12, 43140, Note_on_c, 4, 64, 61
12, 43140, Note_on_c, 4, 60, 59
12, 43156, Note_on_c, 4, 60, 0
12, 43159, Note_on_c, 4, 64, 0
12, 43171, Note_on_c, 4, 55, 0
12, 43260, Note_on_c, 4, 55, 66
12, 43260, Note_on_c, 4, 60, 63
12, 43260, Note_on_c, 4, 64, 72
12, 43280, Note_on_c, 4, 64, 0
12, 43281, Note_on_c, 4, 60, 0
12, 43288, Note_on_c, 4, 55, 0
12, 43320, Note_on_c, 4, 55, 65
12, 43320, Note_on_c, 4, 64, 70
12, 43320, Note_on_c, 4, 60, 55
12, 43333, Note_on_c, 4, 64, 0
12, 43335, Note_on_c, 4, 60, 0
12, 43346, Note_on_c, 4, 55, 0
12, 43380, Note_on_c, 4, 64, 73
12, 43380, Note_on_c, 4, 60, 71
12, 43380, Note_on_c, 4, 55, 66
12, 43472, Note_on_c, 4, 60, 0
12, 43473, Note_on_c, 4, 55, 0
12, 43474, Note_on_c, 4, 64, 0
12, 43500, Note_on_c, 4, 64, 59
12, 43500, Note_on_c, 4, 60, 55
12, 43500, Note_on_c, 4, 55, 56
12, 43520, Note_on_c, 4, 60, 0
12, 43524, Note_on_c, 4, 64, 0
12, 43528, Note_on_c, 4, 55, 0
12, 43560, Note_on_c, 4, 64, 80
12, 43560, Note_on_c, 4, 55, 66
12, 43560, Note_on_c, 4, 60, 69
12, 43583, Note_on_c, 4, 60, 0
12, 43586, Note_on_c, 4, 64, 0
12, 43588, Note_on_c, 4, 55, 0
12, 43620, Note_on_c, 4, 60, 69
12, 43620, Note_on_c, 4, 64, 71
12, 43620, Note_on_c, 4, 55, 64
12, 43642, Note_on_c, 4, 64, 0
12, 43644, Note_on_c, 4, 60, 0
12, 43650, Note_on_c, 4, 55, 0
12, 43680, Note_on_c, 4, 65, 63
12, 43680, Note_on_c, 4, 57, 66
12, 43680, Note_on_c, 4, 62, 65
12, 43712, Note_on_c, 4, 62, 0
12, 43714, Note_on_c, 4, 57, 0
12, 43720, Note_on_c, 4, 65, 0
12, 43743, Note_on_c, 4, 57, 63
12, 43743, Note_on_c, 4, 62, 63
12, 43743, Note_on_c, 4, 65, 63
12, 43783, Note_on_c, 4, 65, 0
12, 43783, Note_on_c, 4, 62, 0
12, 43783, Note_on_c, 4, 57, 0
12, 43800, Note_on_c, 4, 57, 63
12, 43800, Note_on_c, 4, 65, 56
12, 43800, Note_on_c, 4, 62, 59
12, 43811, Note_on_c, 4, 62, 0
12, 43821, Note_on_c, 4, 57, 0
12, 43830, Note_on_c, 4, 65, 0
12, 43860, Note_on_c, 4, 65, 52
12, 43860, Note_on_c, 4, 57, 65
12, 43860, Note_on_c, 4, 62, 69
12, 43962, Note_on_c, 4, 62, 0
12, 43963, Note_on_c, 4, 57, 0
12, 43966, Note_on_c, 4, 65, 0
12, 43980, Note_on_c, 4, 65, 51
12, 43980, Note_on_c, 4, 57, 54
12, 43980, Note_on_c, 4, 62, 55
12, 44008, Note_on_c, 4, 57, 0
12, 44010, Note_on_c, 4, 62, 0
12, 44019, Note_on_c, 4, 65, 0
12, 44040, Note_on_c, 4, 57, 69
12, 44040, Note_on_c, 4, 65, 67
12, 44040, Note_on_c, 4, 62, 60
12, 44124, Note_on_c, 4, 62, 0
12, 44130, Note_on_c, 4, 57, 0
12, 44134, Note_on_c, 4, 65, 0
12, 44160, Note_on_c, 4, 65, 60
12, 44160, Note_on_c, 4, 62, 66
12, 44160, Note_on_c, 4, 58, 71
12, 44183, Note_on_c, 4, 58, 0
12, 44187, Note_on_c, 4, 62, 0
12, 44194, Note_on_c, 4, 65, 0
12, 44223, Note_on_c, 4, 58, 63
12, 44226, Note_on_c, 4, 62, 63
12, 44226, Note_on_c, 4, 65, 63
12, 44263, Note_on_c, 4, 58, 0
12, 44266, Note_on_c, 4, 65, 0
12, 44266, Note_on_c, 4, 62, 0
12, 44280, Note_on_c, 4, 65, 59
12, 44280, Note_on_c, 4, 58, 67
12, 44280, Note_on_c, 4, 62, 69
12, 44307, Note_on_c, 4, 62, 0
12, 44308, Note_on_c, 4, 58, 0
12, 44314, Note_on_c, 4, 65, 0
12, 44340, Note_on_c, 4, 58, 72
12, 44340, Note_on_c, 4, 65, 49
12, 44340, Note_on_c, 4, 62, 63
12, 44434, Note_on_c, 4, 58, 0
12, 44437, Note_on_c, 4, 62, 0
12, 44451, Note_on_c, 4, 65, 0
12, 44460, Note_on_c, 4, 58, 62
12, 44460, Note_on_c, 4, 65, 53
12, 44460, Note_on_c, 4, 62, 52
12, 44475, Note_on_c, 4, 62, 0
12, 44488, Note_on_c, 4, 58, 0
12, 44495, Note_on_c, 4, 65, 0
12, 44520, Note_on_c, 4, 58, 63
12, 44520, Note_on_c, 4, 62, 71
12, 44520, Note_on_c, 4, 65, 59
12, 44595, Note_on_c, 4, 65, 0
12, 44595, Note_on_c, 4, 62, 0
12, 44616, Note_on_c, 4, 58, 0
12, 44640, Note_on_c, 4, 55, 80
12, 44640, Note_on_c, 4, 60, 59
12, 44640, Note_on_c, 4, 64, 78
12, 44671, Note_on_c, 4, 64, 0
12, 44672, Note_on_c, 4, 60, 0
12, 44673, Note_on_c, 4, 55, 0
12, 44700, Note_on_c, 4, 55, 63
12, 44700, Note_on_c, 4, 64, 63
12, 44703, Note_on_c, 4, 60, 63
12, 44740, Note_on_c, 4, 64, 0
12, 44740, Note_on_c, 4, 55, 0
12, 44743, Note_on_c, 4, 60, 0
12, 44760, Note_on_c, 4, 55, 71
12, 44760, Note_on_c, 4, 60, 64
12, 44760, Note_on_c, 4, 64, 72
12, 44777, Note_on_c, 4, 64, 0
12, 44781, Note_on_c, 4, 60, 0
12, 44788, Note_on_c, 4, 55, 0
12, 44820, Note_on_c, 4, 60, 66
12, 44820, Note_on_c, 4, 64, 74
12, 44820, Note_on_c, 4, 55, 66
12, 44912, Note_on_c, 4, 55, 0
12, 44913, Note_on_c, 4, 64, 0
12, 44914, Note_on_c, 4, 60, 0
12, 44940, Note_on_c, 4, 64, 60
12, 44940, Note_on_c, 4, 60, 56
12, 44940, Note_on_c, 4, 55, 58
12, 44965, Note_on_c, 4, 60, 0
12, 44966, Note_on_c, 4, 64, 0
12, 44970, Note_on_c, 4, 55, 0
12, 45000, Note_on_c, 4, 60, 66
12, 45000, Note_on_c, 4, 64, 72
12, 45000, Note_on_c, 4, 55, 61
12, 45026, Note_on_c, 4, 64, 0
12, 45027, Note_on_c, 4, 60, 0
12, 45030, Note_on_c, 4, 55, 0
12, 45060, Note_on_c, 4, 55, 52
12, 45060, Note_on_c, 4, 64, 61
12, 45060, Note_on_c, 4, 60, 59
12, 45076, Note_on_c, 4, 60, 0
12, 45079, Note_on_c, 4, 64, 0
12, 45091, Note_on_c, 4, 55, 0
12, 45180, Note_on_c, 4, 55, 66
12, 45180, Note_on_c, 4, 60, 63
12, 45180, Note_on_c, 4, 64, 72
12, 45200, Note_on_c, 4, 64, 0
12, 45201, Note_on_c, 4, 60, 0
12, 45208, Note_on_c, 4, 55, 0
12, 45240, Note_on_c, 4, 55, 65
12, 45240, Note_on_c, 4, 64, 70
12, 45240, Note_on_c, 4, 60, 55
12, 45253, Note_on_c, 4, 64, 0
12, 45255, Note_on_c, 4, 60, 0
12, 45266, Note_on_c, 4, 55, 0
12, 45300, Note_on_c, 4, 64, 73
12, 45300, Note_on_c, 4, 60, 71
12, 45300, Note_on_c, 4, 55, 66
12, 45392, Note_on_c, 4, 60, 0
12, 45393, Note_on_c, 4, 55, 0
12, 45394, Note_on_c, 4, 64, 0
12, 45420, Note_on_c, 4, 64, 59
12, 45420, Note_on_c, 4, 60, 55
12, 45420, Note_on_c, 4, 55, 56
12, 45440, Note_on_c, 4, 60, 0
12, 45444, Note_on_c, 4, 64, 0
12, 45448, Note_on_c, 4, 55, 0
12, 45480, Note_on_c, 4, 64, 80
12, 45480, Note_on_c, 4, 55, 66
12, 45480, Note_on_c, 4, 60, 69
12, 45503, Note_on_c, 4, 60, 0
12, 45506, Note_on_c, 4, 64, 0
12, 45508, Note_on_c, 4, 55, 0
12, 45540, Note_on_c, 4, 60, 69
12, 45540, Note_on_c, 4, 64, 71
12, 45540, Note_on_c, 4, 55, 64
12, 45562, Note_on_c, 4, 64, 0
12, 45564, Note_on_c, 4, 60, 0
12, 45570, Note_on_c, 4, 55, 0
12, 45600, Note_on_c, 4, 65, 63
12, 45600, Note_on_c, 4, 57, 66
12, 45600, Note_on_c, 4, 62, 65
12, 45632, Note_on_c, 4, 62, 0
12, 45634, Note_on_c, 4, 57, 0
12, 45640, Note_on_c, 4, 65, 0
12, 45663, Note_on_c, 4, 57, 63
12, 45663, Note_on_c, 4, 62, 63
12, 45663, Note_on_c, 4, 65, 63
12, 45703, Note_on_c, 4, 65, 0
12, 45703, Note_on_c, 4, 62, 0
12, 45703, Note_on_c, 4, 57, 0
12, 45720, Note_on_c, 4, 57, 63
12, 45720, Note_on_c, 4, 65, 56
12, 45720, Note_on_c, 4, 62, 59
12, 45731, Note_on_c, 4, 62, 0
12, 45741, Note_on_c, 4, 57, 0
12, 45750, Note_on_c, 4, 65, 0
12, 45780, Note_on_c, 4, 65, 52
12, 45780, Note_on_c, 4, 57, 65
12, 45780, Note_on_c, 4, 62, 69
12, 45882, Note_on_c, 4, 62, 0
12, 45883, Note_on_c, 4, 57, 0
12, 45886, Note_on_c, 4, 65, 0
12, 45900, Note_on_c, 4, 65, 51
12, 45900, Note_on_c, 4, 57, 54
12, 45900, Note_on_c, 4, 62, 55
12, 45928, Note_on_c, 4, 57, 0
12, 45930, Note_on_c, 4, 62, 0
12, 45939, Note_on_c, 4, 65, 0
12, 45960, Note_on_c, 4, 57, 69
12, 45960, Note_on_c, 4, 65, 67
12, 45960, Note_on_c, 4, 62, 60
12, 46044, Note_on_c, 4, 62, 0
12, 46050, Note_on_c, 4, 57, 0
12, 46054, Note_on_c, 4, 65, 0
12, 46080, Note_on_c, 4, 65, 60
12, 46080, Note_on_c, 4, 62, 66
12, 46080, Note_on_c, 4, 58, 71
12, 46103, Note_on_c, 4, 58, 0
12, 46107, Note_on_c, 4, 62, 0
12, 46114, Note_on_c, 4, 65, 0
12, 46143, Note_on_c, 4, 58, 63
12, 46146, Note_on_c, 4, 62, 63
12, 46146, Note_on_c, 4, 65, 63
12, 46183, Note_on_c, 4, 58, 0
12, 46186, Note_on_c, 4, 65, 0
12, 46186, Note_on_c, 4, 62, 0
12, 46200, Note_on_c, 4, 65, 59
12, 46200, Note_on_c, 4, 58, 67
12, 46200, Note_on_c, 4, 62, 69
12, 46227, Note_on_c, 4, 62, 0
12, 46228, Note_on_c, 4, 58, 0
12, 46234, Note_on_c, 4, 65, 0
12, 46260, Note_on_c, 4, 58, 72
12, 46260, Note_on_c, 4, 65, 49
12, 46260, Note_on_c, 4, 62, 63
12, 46354, Note_on_c, 4, 58, 0
12, 46357, Note_on_c, 4, 62, 0
12, 46371, Note_on_c, 4, 65, 0
12, 46380, Note_on_c, 4, 58, 62
12, 46380, Note_on_c, 4, 65, 53
12, 46380, Note_on_c, 4, 62, 52
12, 46395, Note_on_c, 4, 62, 0
12, 46408, Note_on_c, 4, 58, 0
12, 46415, Note_on_c, 4, 65, 0
12, 46440, Note_on_c, 4, 58, 63
12, 46440, Note_on_c, 4, 62, 71
12, 46440, Note_on_c, 4, 65, 59
12, 46515, Note_on_c, 4, 65, 0
12, 46515, Note_on_c, 4, 62, 0
12, 46536, Note_on_c, 4, 58, 0
12, 46560, Note_on_c, 4, 55, 80
12, 46560, Note_on_c, 4, 60, 59
12, 46560, Note_on_c, 4, 64, 78
12, 46591, Note_on_c, 4, 64, 0
12, 46592, Note_on_c, 4, 60, 0
12, 46593, Note_on_c, 4, 55, 0
12, 46620, Note_on_c, 4, 55, 63
12, 46620, Note_on_c, 4, 64, 63
12, 46623, Note_on_c, 4, 60, 63
12, 46660, Note_on_c, 4, 64, 0
12, 46660, Note_on_c, 4, 55, 0
12, 46663, Note_on_c, 4, 60, 0
12, 46680, Note_on_c, 4, 55, 71
12, 46680, Note_on_c, 4, 60, 64
12, 46680, Note_on_c, 4, 64, 72
12, 46697, Note_on_c, 4, 64, 0
12, 46701, Note_on_c, 4, 60, 0
12, 46708, Note_on_c, 4, 55, 0
12, 46740, Note_on_c, 4, 60, 66
12, 46740, Note_on_c, 4, 64, 74
12, 46740, Note_on_c, 4, 55, 66
12, 46832, Note_on_c, 4, 55, 0
12, 46833, Note_on_c, 4, 64, 0
12, 46834, Note_on_c, 4, 60, 0
12, 46860, Note_on_c, 4, 64, 60
12, 46860, Note_on_c, 4, 60, 56
12, 46860, Note_on_c, 4, 55, 58
12, 46885, Note_on_c, 4, 60, 0
12, 46886, Note_on_c, 4, 64, 0
12, 46890, Note_on_c, 4, 55, 0
12, 46920, Note_on_c, 4, 60, 66
12, 46920, Note_on_c, 4, 64, 72
12, 46920, Note_on_c, 4, 55, 61
12, 46946, Note_on_c, 4, 64, 0
12, 46947, Note_on_c, 4, 60, 0
12, 46950, Note_on_c, 4, 55, 0
12, 46980, Note_on_c, 4, 55, 52
12, 46980, Note_on_c, 4, 64, 61
12, 46980, Note_on_c, 4, 60, 59
12, 46996, Note_on_c, 4, 60, 0
12, 46999, Note_on_c, 4, 64, 0
12, 47011, Note_on_c, 4, 55, 0
12, 47100, Note_on_c, 4, 55, 66
12, 47100, Note_on_c, 4, 60, 63
12, 47100, Note_on_c, 4, 64, 72
12, 47120, Note_on_c, 4, 64, 0
12, 47121, Note_on_c, 4, 60, 0
12, 47128, Note_on_c, 4, 55, 0
12, 47160, Note_on_c, 4, 55, 65
12, 47160, Note_on_c, 4, 64, 70
12, 47160, Note_on_c, 4, 60, 55
12, 47173, Note_on_c, 4, 64, 0
12, 47175, Note_on_c, 4, 60, 0
12, 47186, Note_on_c, 4, 55, 0
12, 47220, Note_on_c, 4, 64, 73
12, 47220, Note_on_c, 4, 60, 71
12, 47220, Note_on_c, 4, 55, 66
12, 47312, Note_on_c, 4, 60, 0
12, 47313, Note_on_c, 4, 55, 0
12, 47314, Note_on_c, 4, 64, 0
12, 47340, Note_on_c, 4, 64, 59
12, 47340, Note_on_c, 4, 60, 55
12, 47340, Note_on_c, 4, 55, 56
12, 47360, Note_on_c, 4, 60, 0
12, 47364, Note_on_c, 4, 64, 0
12, 47368, Note_on_c, 4, 55, 0
12, 47400, Note_on_c, 4, 64, 80
12, 47400, Note_on_c, 4, 55, 66
12, 47400, Note_on_c, 4, 60, 69
12, 47423, Note_on_c, 4, 60, 0
12, 47426, Note_on_c, 4, 64, 0
12, 47428, Note_on_c, 4, 55, 0
12, 47460, Note_on_c, 4, 60, 69
12, 47460, Note_on_c, 4, 64, 71
12, 47460, Note_on_c, 4, 55, 64
12, 47482, Note_on_c, 4, 64, 0
12, 47484, Note_on_c, 4, 60, 0
12, 47490, Note_on_c, 4, 55, 0
12, 47520, Note_on_c, 4, 65, 63
12, 47520, Note_on_c, 4, 57, 66
12, 47520, Note_on_c, 4, 62, 65
12, 47552, Note_on_c, 4, 62, 0
12, 47554, Note_on_c, 4, 57, 0
12, 47560, Note_on_c, 4, 65, 0
12, 47583, Note_on_c, 4, 57, 63
12, 47583, Note_on_c, 4, 62, 63
12, 47583, Note_on_c, 4, 65, 63
12, 47623, Note_on_c, 4, 65, 0
12, 47623, Note_on_c, 4, 62, 0
12, 47623, Note_on_c, 4, 57, 0
12, 47640, Note_on_c, 4, 57, 63
12, 47640, Note_on_c, 4, 65, 56
12, 47640, Note_on_c, 4, 62, 59
12, 47651, Note_on_c, 4, 62, 0
12, 47661, Note_on_c, 4, 57, 0
12, 47670, Note_on_c, 4, 65, 0
12, 47700, Note_on_c, 4, 65, 52
12, 47700, Note_on_c, 4, 57, 65
12, 47700, Note_on_c, 4, 62, 69
12, 47802, Note_on_c, 4, 62, 0
12, 47803, Note_on_c, 4, 57, 0
12, 47806, Note_on_c, 4, 65, 0
12, 47820, Note_on_c, 4, 65, 51
12, 47820, Note_on_c, 4, 57, 54
12, 47820, Note_on_c, 4, 62, 55
12, 47848, Note_on_c, 4, 57, 0
12, 47850, Note_on_c, 4, 62, 0
12, 47859, Note_on_c, 4, 65, 0
12, 47880, Note_on_c, 4, 57, 69
12, 47880, Note_on_c, 4, 65, 67
12, 47880, Note_on_c, 4, 62, 60
12, 47964, Note_on_c, 4, 62, 0
12, 47970, Note_on_c, 4, 57, 0
12, 47974, Note_on_c, 4, 65, 0
12, 48000, Note_on_c, 4, 65, 60
12, 48000, Note_on_c, 4, 62, 66
12, 48000, Note_on_c, 4, 58, 71
12, 48023, Note_on_c, 4, 58, 0
12, 48027, Note_on_c, 4, 62, 0
12, 48034, Note_on_c, 4, 65, 0
12, 48063, Note_on_c, 4, 58, 63
12, 48066, Note_on_c, 4, 62, 63
12, 48066, Note_on_c, 4, 65, 63
12, 48103, Note_on_c, 4, 58, 0
12, 48106, Note_on_c, 4, 65, 0
12, 48106, Note_on_c, 4, 62, 0
12, 48120, Note_on_c, 4, 65, 59
12, 48120, Note_on_c, 4, 58, 67
12, 48120, Note_on_c, 4, 62, 69
12, 48147, Note_on_c, 4, 62, 0
12, 48148, Note_on_c, 4, 58, 0
12, 48154, Note_on_c, 4, 65, 0
12, 48180, Note_on_c, 4, 58, 72
12, 48180, Note_on_c, 4, 65, 49
12, 48180, Note_on_c, 4, 62, 63
12, 48274, Note_on_c, 4, 58, 0
12, 48277, Note_on_c, 4, 62, 0
12, 48291, Note_on_c, 4, 65, 0
12, 48300, Note_on_c, 4, 58, 62
12, 48300, Note_on_c, 4, 65, 53
12, 48300, Note_on_c, 4, 62, 52
12, 48315, Note_on_c, 4, 62, 0
12, 48328, Note_on_c, 4, 58, 0
12, 48335, Note_on_c, 4, 65, 0
12, 48360, Note_on_c, 4, 58, 63
12, 48360, Note_on_c, 4, 62, 71
12, 48360, Note_on_c, 4, 65, 59
12, 48435, Note_on_c, 4, 65, 0
12, 48435, Note_on_c, 4, 62, 0
12, 48456, Note_on_c, 4, 58, 0
12, 48480, Note_on_c, 4, 55, 80
12, 48480, Note_on_c, 4, 60, 59
12, 48480, Note_on_c, 4, 64, 78
12, 48511, Note_on_c, 4, 64, 0
12, 48512, Note_on_c, 4, 60, 0
12, 48513, Note_on_c, 4, 55, 0
12, 48540, Note_on_c, 4, 55, 63
12, 48540, Note_on_c, 4, 64, 63
12, 48543, Note_on_c, 4, 60, 63
12, 48580, Note_on_c, 4, 64, 0
12, 48580, Note_on_c, 4, 55, 0
12, 48583, Note_on_c, 4, 60, 0
12, 48600, Note_on_c, 4, 55, 71
12, 48600, Note_on_c, 4, 60, 64
12, 48600, Note_on_c, 4, 64, 72
12, 48617, Note_on_c, 4, 64, 0
12, 48621, Note_on_c, 4, 60, 0
12, 48628, Note_on_c, 4, 55, 0
12, 48660, Note_on_c, 4, 60, 66
12, 48660, Note_on_c, 4, 64, 74
12, 48660, Note_on_c, 4, 55, 66
12, 48752, Note_on_c, 4, 55, 0
12, 48753, Note_on_c, 4, 64, 0
12, 48754, Note_on_c, 4, 60, 0
12, 48780, Note_on_c, 4, 64, 60
12, 48780, Note_on_c, 4, 60, 56
12, 48780, Note_on_c, 4, 55, 58
12, 48805, Note_on_c, 4, 60, 0
12, 48806, Note_on_c, 4, 64, 0
12, 48810, Note_on_c, 4, 55, 0
12, 48840, Note_on_c, 4, 60, 66
12, 48840, Note_on_c, 4, 64, 72
12, 48840, Note_on_c, 4, 55, 61
12, 48866, Note_on_c, 4, 64, 0
12, 48867, Note_on_c, 4, 60, 0
12, 48870, Note_on_c, 4, 55, 0
12, 48900, Note_on_c, 4, 55, 52
12, 48900, Note_on_c, 4, 64, 61
12, 48900, Note_on_c, 4, 60, 59
12, 48916, Note_on_c, 4, 60, 0
12, 48919, Note_on_c, 4, 64, 0
12, 48931, Note_on_c, 4, 55, 0
12, 49020, Note_on_c, 4, 55, 66
12, 49020, Note_on_c, 4, 60, 63
12, 49020, Note_on_c, 4, 64, 72
12, 49040, Note_on_c, 4, 64, 0
12, 49041, Note_on_c, 4, 60, 0
12, 49048, Note_on_c, 4, 55, 0
12, 49080, Note_on_c, 4, 55, 65
12, 49080, Note_on_c, 4, 64, 70
12, 49080, Note_on_c, 4, 60, 55
12, 49093, Note_on_c, 4, 64, 0
12, 49095, Note_on_c, 4, 60, 0
12, 49106, Note_on_c, 4, 55, 0
12, 49140, Note_on_c, 4, 64, 73
12, 49140, Note_on_c, 4, 60, 71
12, 49140, Note_on_c, 4, 55, 66
12, 49232, Note_on_c, 4, 60, 0
12, 49233, Note_on_c, 4, 55, 0
12, 49234, Note_on_c, 4, 64, 0
12, 49260, Note_on_c, 4, 64, 59
12, 49260, Note_on_c, 4, 60, 55
12, 49260, Note_on_c, 4, 55, 56
12, 49280, Note_on_c, 4, 60, 0
12, 49284, Note_on_c, 4, 64, 0
12, 49288, Note_on_c, 4, 55, 0
12, 49320, Note_on_c, 4, 64, 80
12, 49320, Note_on_c, 4, 55, 66
12, 49320, Note_on_c, 4, 60, 69
12, 49343, Note_on_c, 4, 60, 0
12, 49346, Note_on_c, 4, 64, 0
12, 49348, Note_on_c, 4, 55, 0
12, 49380, Note_on_c, 4, 60, 69
12, 49380, Note_on_c, 4, 64, 71
12, 49380, Note_on_c, 4, 55, 64
12, 49402, Note_on_c, 4, 64, 0
12, 49404, Note_on_c, 4, 60, 0
12, 49410, Note_on_c, 4, 55, 0
12, 49440, Note_on_c, 4, 65, 63
12, 49440, Note_on_c, 4, 57, 66
12, 49440, Note_on_c, 4, 62, 65
12, 49472, Note_on_c, 4, 62, 0
12, 49474, Note_on_c, 4, 57, 0
12, 49480, Note_on_c, 4, 65, 0
12, 49503, Note_on_c, 4, 57, 63
12, 49503, Note_on_c, 4, 62, 63
12, 49503, Note_on_c, 4, 65, 63
12, 49543, Note_on_c, 4, 65, 0
12, 49543, Note_on_c, 4, 62, 0
12, 49543, Note_on_c, 4, 57, 0
12, 49560, Note_on_c, 4, 57, 63
12, 49560, Note_on_c, 4, 65, 56
12, 49560, Note_on_c, 4, 62, 59
12, 49571, Note_on_c, 4, 62, 0
12, 49581, Note_on_c, 4, 57, 0
12, 49590, Note_on_c, 4, 65, 0
12, 49620, Note_on_c, 4, 65, 52
12, 49620, Note_on_c, 4, 57, 65
12, 49620, Note_on_c, 4, 62, 69
12, 49722, Note_on_c, 4, 62, 0
12, 49723, Note_on_c, 4, 57, 0
12, 49726, Note_on_c, 4, 65, 0
12, 49740, Note_on_c, 4, 65, 51
12, 49740, Note_on_c, 4, 57, 54
12, 49740, Note_on_c, 4, 62, 55
12, 49768, Note_on_c, 4, 57, 0
12, 49770, Note_on_c, 4, 62, 0
12, 49779, Note_on_c, 4, 65, 0
12, 49800, Note_on_c, 4, 57, 69
12, 49800, Note_on_c, 4, 65, 67
12, 49800, Note_on_c, 4, 62, 60
12, 49884, Note_on_c, 4, 62, 0
12, 49890, Note_on_c, 4, 57, 0
12, 49894, Note_on_c, 4, 65, 0
12, 49920, Note_on_c, 4, 65, 60
12, 49920, Note_on_c, 4, 62, 66
12, 49920, Note_on_c, 4, 58, 71
12, 49943, Note_on_c, 4, 58, 0
12, 49947, Note_on_c, 4, 62, 0
12, 49954, Note_on_c, 4, 65, 0
12, 49983, Note_on_c, 4, 58, 63
12, 49986, Note_on_c, 4, 62, 63
12, 49986, Note_on_c, 4, 65, 63
12, 50023, Note_on_c, 4, 58, 0
12, 50026, Note_on_c, 4, 65, 0
12, 50026, Note_on_c, 4, 62, 0
12, 50040, Note_on_c, 4, 65, 59
12, 50040, Note_on_c, 4, 58, 67
12, 50040, Note_on_c, 4, 62, 69
12, 50067, Note_on_c, 4, 62, 0
12, 50068, Note_on_c, 4, 58, 0
12, 50074, Note_on_c, 4, 65, 0
12, 50100, Note_on_c, 4, 58, 72
12, 50100, Note_on_c, 4, 65, 49
12, 50100, Note_on_c, 4, 62, 63
12, 50194, Note_on_c, 4, 58, 0
12, 50197, Note_on_c, 4, 62, 0
12, 50211, Note_on_c, 4, 65, 0
12, 50220, Note_on_c, 4, 58, 62
12, 50220, Note_on_c, 4, 65, 53
12, 50220, Note_on_c, 4, 62, 52
12, 50235, Note_on_c, 4, 62, 0
12, 50248, Note_on_c, 4, 58, 0
12, 50255, Note_on_c, 4, 65, 0
12, 50280, Note_on_c, 4, 58, 63
12, 50280, Note_on_c, 4, 62, 71
12, 50280, Note_on_c, 4, 65, 59
12, 50355, Note_on_c, 4, 65, 0
12, 50355, Note_on_c, 4, 62, 0
12, 50376, Note_on_c, 4, 58, 0
12, 50400, Note_on_c, 4, 55, 80
12, 50400, Note_on_c, 4, 60, 59
12, 50400, Note_on_c, 4, 64, 78
12, 50431, Note_on_c, 4, 64, 0
12, 50432, Note_on_c, 4, 60, 0
12, 50433, Note_on_c, 4, 55, 0
12, 50460, Note_on_c, 4, 55, 63
12, 50460, Note_on_c, 4, 64, 63
12, 50463, Note_on_c, 4, 60, 63
12, 50500, Note_on_c, 4, 64, 0
12, 50500, Note_on_c, 4, 55, 0
12, 50503, Note_on_c, 4, 60, 0
12, 50520, Note_on_c, 4, 55, 71
12, 50520, Note_on_c, 4, 60, 64
12, 50520, Note_on_c, 4, 64, 72
12, 50537, Note_on_c, 4, 64, 0
12, 50541, Note_on_c, 4, 60, 0
12, 50548, Note_on_c, 4, 55, 0
12, 50580, Note_on_c, 4, 60, 66
12, 50580, Note_on_c, 4, 64, 74
12, 50580, Note_on_c, 4, 55, 66
12, 50672, Note_on_c, 4, 55, 0
12, 50673, Note_on_c, 4, 64, 0
12, 50674, Note_on_c, 4, 60, 0
12, 50700, Note_on_c, 4, 64, 60
12, 50700, Note_on_c, 4, 60, 56
12, 50700, Note_on_c, 4, 55, 58
12, 50725, Note_on_c, 4, 60, 0
12, 50726, Note_on_c, 4, 64, 0
12, 50730, Note_on_c, 4, 55, 0
12, 50760, Note_on_c, 4, 60, 66
12, 50760, Note_on_c, 4, 64, 72
12, 50760, Note_on_c, 4, 55, 61
12, 50786, Note_on_c, 4, 64, 0
12, 50787, Note_on_c, 4, 60, 0
12, 50790, Note_on_c, 4, 55, 0
12, 50820, Note_on_c, 4, 55, 52
12, 50820, Note_on_c, 4, 64, 61
12, 50820, Note_on_c, 4, 60, 59
12, 50836, Note_on_c, 4, 60, 0
12, 50839, Note_on_c, 4, 64, 0
12, 50851, Note_on_c, 4, 55, 0
12, 50940, Note_on_c, 4, 55, 66
12, 50940, Note_on_c, 4, 60, 63
12, 50940, Note_on_c, 4, 64, 72
12, 50960, Note_on_c, 4, 64, 0
12, 50961, Note_on_c, 4, 60, 0
12, 50968, Note_on_c, 4, 55, 0
12, 51000, Note_on_c, 4, 55, 65
12, 51000, Note_on_c, 4, 64, 70
12, 51000, Note_on_c, 4, 60, 55
12, 51013, Note_on_c, 4, 64, 0
12, 51015, Note_on_c, 4, 60, 0
12, 51026, Note_on_c, 4, 55, 0
12, 51060, Note_on_c, 4, 64, 73
12, 51060, Note_on_c, 4, 60, 71
12, 51060, Note_on_c, 4, 55, 66
12, 51152, Note_on_c, 4, 60, 0
12, 51153, Note_on_c, 4, 55, 0
12, 51154, Note_on_c, 4, 64, 0
12, 51180, Note_on_c, 4, 64, 59
12, 51180, Note_on_c, 4, 60, 55
12, 51180, Note_on_c, 4, 55, 56
12, 51200, Note_on_c, 4, 60, 0
12, 51204, Note_on_c, 4, 64, 0
12, 51208, Note_on_c, 4, 55, 0
12, 51240, Note_on_c, 4, 64, 80
12, 51240, Note_on_c, 4, 55, 66
12, 51240, Note_on_c, 4, 60, 69
12, 51263, Note_on_c, 4, 60, 0
12, 51266, Note_on_c, 4, 64, 0
12, 51268, Note_on_c, 4, 55, 0
12, 51300, Note_on_c, 4, 60, 69
12, 51300, Note_on_c, 4, 64, 71
12, 51300, Note_on_c, 4, 55, 64
12, 51322, Note_on_c, 4, 64, 0
12, 51324, Note_on_c, 4, 60, 0
12, 51330, Note_on_c, 4, 55, 0
12, 51360, Note_on_c, 4, 65, 63
12, 51360, Note_on_c, 4, 57, 66
12, 51360, Note_on_c, 4, 62, 65
12, 51392, Note_on_c, 4, 62, 0
12, 51394, Note_on_c, 4, 57, 0
12, 51400, Note_on_c, 4, 65, 0
12, 51423, Note_on_c, 4, 57, 63
12, 51423, Note_on_c, 4, 62, 63
12, 51423, Note_on_c, 4, 65, 63
12, 51463, Note_on_c, 4, 65, 0
12, 51463, Note_on_c, 4, 62, 0
12, 51463, Note_on_c, 4, 57, 0
12, 51480, Note_on_c, 4, 57, 63
12, 51480, Note_on_c, 4, 65, 56
12, 51480, Note_on_c, 4, 62, 59
12, 51491, Note_on_c, 4, 62, 0
12, 51501, Note_on_c, 4, 57, 0
12, 51510, Note_on_c, 4, 65, 0
12, 51540, Note_on_c, 4, 65, 52
12, 51540, Note_on_c, 4, 57, 65
12, 51540, Note_on_c, 4, 62, 69
12, 51642, Note_on_c, 4, 62, 0
12, 51643, Note_on_c, 4, 57, 0
12, 51646, Note_on_c, 4, 65, 0
12, 51660, Note_on_c, 4, 65, 51
12, 51660, Note_on_c, 4, 57, 54
12, 51660, Note_on_c, 4, 62, 55
12, 51688, Note_on_c, 4, 57, 0
12, 51690, Note_on_c, 4, 62, 0
12, 51699, Note_on_c, 4, 65, 0
12, 51720, Note_on_c, 4, 57, 69
12, 51720, Note_on_c, 4, 65, 67
12, 51720, Note_on_c, 4, 62, 60
12, 51804, Note_on_c, 4, 62, 0
12, 51810, Note_on_c, 4, 57, 0
12, 51814, Note_on_c, 4, 65, 0
12, 51840, Note_on_c, 4, 65, 60
12, 51840, Note_on_c, 4, 62, 66
12, 51840, Note_on_c, 4, 58, 71
12, 51863, Note_on_c, 4, 58, 0
12, 51867, Note_on_c, 4, 62, 0
12, 51874, Note_on_c, 4, 65, 0
12, 51903, Note_on_c, 4, 58, 63
12, 51906, Note_on_c, 4, 62, 63
12, 51906, Note_on_c, 4, 65, 63
12, 51943, Note_on_c, 4, 58, 0
12, 51946, Note_on_c, 4, 65, 0
12, 51946, Note_on_c, 4, 62, 0
12, 51960, Note_on_c, 4, 65, 59
12, 51960, Note_on_c, 4, 58, 67
12, 51960, Note_on_c, 4, 62, 69
12, 51987, Note_on_c, 4, 62, 0
12, 51988, Note_on_c, 4, 58, 0
12, 51994, Note_on_c, 4, 65, 0
12, 52020, Note_on_c, 4, 58, 72
12, 52020, Note_on_c, 4, 65, 49
12, 52020, Note_on_c, 4, 62, 63
12, 52114, Note_on_c, 4, 58, 0
12, 52117, Note_on_c, 4, 62, 0
12, 52131, Note_on_c, 4, 65, 0
12, 52140, Note_on_c, 4, 58, 62
12, 52140, Note_on_c, 4, 65, 53
12, 52140, Note_on_c, 4, 62, 52
12, 52155, Note_on_c, 4, 62, 0
12, 52168, Note_on_c, 4, 58, 0
12, 52175, Note_on_c, 4, 65, 0
12, 52200, Note_on_c, 4, 58, 63
12, 52200, Note_on_c, 4, 62, 71
12, 52200, Note_on_c, 4, 65, 59
12, 52275, Note_on_c, 4, 65, 0
12, 52275, Note_on_c, 4, 62, 0
12, 52296, Note_on_c, 4, 58, 0
12, 52320, Note_on_c, 4, 55, 80
12, 52320, Note_on_c, 4, 60, 59
12, 52320, Note_on_c, 4, 64, 78
12, 52351, Note_on_c, 4, 64, 0
12, 52352, Note_on_c, 4, 60, 0
12, 52353, Note_on_c, 4, 55, 0
12, 52380, Note_on_c, 4, 55, 63
12, 52380, Note_on_c, 4, 64, 63
12, 52383, Note_on_c, 4, 60, 63
12, 52420, Note_on_c, 4, 64, 0
12, 52420, Note_on_c, 4, 55, 0
12, 52423, Note_on_c, 4, 60, 0
12, 52440, Note_on_c, 4, 55, 71
12, 52440, Note_on_c, 4, 60, 64
12, 52440, Note_on_c, 4, 64, 72
12, 52457, Note_on_c, 4, 64, 0
12, 52461, Note_on_c, 4, 60, 0
12, 52468, Note_on_c, 4, 55, 0
12, 52500, Note_on_c, 4, 60, 66
12, 52500, Note_on_c, 4, 64, 74
12, 52500, Note_on_c, 4, 55, 66
12, 52592, Note_on_c, 4, 55, 0
12, 52593, Note_on_c, 4, 64, 0
12, 52594, Note_on_c, 4, 60, 0
12, 52620, Note_on_c, 4, 64, 60
12, 52620, Note_on_c, 4, 60, 56
12, 52620, Note_on_c, 4, 55, 58
12, 52645, Note_on_c, 4, 60, 0
12, 52646, Note_on_c, 4, 64, 0
12, 52650, Note_on_c, 4, 55, 0
12, 52680, Note_on_c, 4, 60, 66
12, 52680, Note_on_c, 4, 64, 72
12, 52680, Note_on_c, 4, 55, 61
12, 52706, Note_on_c, 4, 64, 0
12, 52707, Note_on_c, 4, 60, 0
12, 52710, Note_on_c, 4, 55, 0
12, 52740, Note_on_c, 4, 55, 52
12, 52740, Note_on_c, 4, 64, 61
12, 52740, Note_on_c, 4, 60, 59
12, 52756, Note_on_c, 4, 60, 0
12, 52759, Note_on_c, 4, 64, 0
12, 52771, Note_on_c, 4, 55, 0
12, 52860, Note_on_c, 4, 55, 66
12, 52860, Note_on_c, 4, 60, 63
12, 52860, Note_on_c, 4, 64, 72
12, 52880, Note_on_c, 4, 64, 0
12, 52881, Note_on_c, 4, 60, 0
12, 52888, Note_on_c, 4, 55, 0
12, 52920, Note_on_c, 4, 55, 65
12, 52920, Note_on_c, 4, 64, 70
12, 52920, Note_on_c, 4, 60, 55
12, 52933, Note_on_c, 4, 64, 0
12, 52935, Note_on_c, 4, 60, 0
12, 52946, Note_on_c, 4, 55, 0
12, 52980, Note_on_c, 4, 64, 73
12, 52980, Note_on_c, 4, 60, 71
12, 52980, Note_on_c, 4, 55, 66
12, 53072, Note_on_c, 4, 60, 0
12, 53073, Note_on_c, 4, 55, 0
12, 53074, Note_on_c, 4, 64, 0
12, 53100, Note_on_c, 4, 64, 59
12, 53100, Note_on_c, 4, 60, 55
12, 53100, Note_on_c, 4, 55, 56
12, 53120, Note_on_c, 4, 60, 0
12, 53124, Note_on_c, 4, 64, 0
12, 53128, Note_on_c, 4, 55, 0
12, 53160, Note_on_c, 4, 64, 80
12, 53160, Note_on_c, 4, 55, 66
12, 53160, Note_on_c, 4, 60, 69
12, 53183, Note_on_c, 4, 60, 0
12, 53186, Note_on_c, 4, 64, 0
12, 53188, Note_on_c, 4, 55, 0
12, 53220, Note_on_c, 4, 60, 69
12, 53220, Note_on_c, 4, 64, 71
12, 53220, Note_on_c, 4, 55, 64
12, 53242, Note_on_c, 4, 64, 0
12, 53244, Note_on_c, 4, 60, 0
12, 53250, Note_on_c, 4, 55, 0
12, 53280, Note_on_c, 4, 65, 63
12, 53280, Note_on_c, 4, 57, 66
12, 53280, Note_on_c, 4, 62, 65
12, 53312, Note_on_c, 4, 62, 0
12, 53314, Note_on_c, 4, 57, 0
12, 53320, Note_on_c, 4, 65, 0
12, 53343, Note_on_c, 4, 57, 63
12, 53343, Note_on_c, 4, 62, 63
12, 53343, Note_on_c, 4, 65, 63
12, 53383, Note_on_c, 4, 65, 0
12, 53383, Note_on_c, 4, 62, 0
12, 53383, Note_on_c, 4, 57, 0
12, 53400, Note_on_c, 4, 57, 63
12, 53400, Note_on_c, 4, 65, 56
12, 53400, Note_on_c, 4, 62, 59
12, 53411, Note_on_c, 4, 62, 0
12, 53421, Note_on_c, 4, 57, 0
12, 53430, Note_on_c, 4, 65, 0
12, 53460, Note_on_c, 4, 65, 52
12, 53460, Note_on_c, 4, 57, 65
12, 53460, Note_on_c, 4, 62, 69
12, 53562, Note_on_c, 4, 62, 0
12, 53563, Note_on_c, 4, 57, 0
12, 53566, Note_on_c, 4, 65, 0
12, 53580, Note_on_c, 4, 65, 51
12, 53580, Note_on_c, 4, 57, 54
12, 53580, Note_on_c, 4, 62, 55
12, 53608, Note_on_c, 4, 57, 0
12, 53610, Note_on_c, 4, 62, 0
12, 53619, Note_on_c, 4, 65, 0
12, 53640, Note_on_c, 4, 57, 69
12, 53640, Note_on_c, 4, 65, 67
12, 53640, Note_on_c, 4, 62, 60
12, 53724, Note_on_c, 4, 62, 0
12, 53730, Note_on_c, 4, 57, 0
12, 53734, Note_on_c, 4, 65, 0
12, 53760, Note_on_c, 4, 65, 60
12, 53760, Note_on_c, 4, 62, 66
12, 53760, Note_on_c, 4, 58, 71
12, 53783, Note_on_c, 4, 58, 0
12, 53787, Note_on_c, 4, 62, 0
12, 53794, Note_on_c, 4, 65, 0
12, 53823, Note_on_c, 4, 58, 63
12, 53826, Note_on_c, 4, 62, 63
12, 53826, Note_on_c, 4, 65, 63
12, 53863, Note_on_c, 4, 58, 0
12, 53866, Note_on_c, 4, 65, 0
12, 53866, Note_on_c, 4, 62, 0
12, 53880, Note_on_c, 4, 65, 59
12, 53880, Note_on_c, 4, 58, 67
12, 53880, Note_on_c, 4, 62, 69
12, 53907, Note_on_c, 4, 62, 0
12, 53908, Note_on_c, 4, 58, 0
12, 53914, Note_on_c, 4, 65, 0
12, 53940, Note_on_c, 4, 58, 72
12, 53940, Note_on_c, 4, 65, 49
12, 53940, Note_on_c, 4, 62, 63
12, 54034, Note_on_c, 4, 58, 0
12, 54037, Note_on_c, 4, 62, 0
12, 54051, Note_on_c, 4, 65, 0
12, 54060, Note_on_c, 4, 58, 62
12, 54060, Note_on_c, 4, 65, 53
12, 54060, Note_on_c, 4, 62, 52
12, 54075, Note_on_c, 4, 62, 0
12, 54088, Note_on_c, 4, 58, 0
12, 54095, Note_on_c, 4, 65, 0
12, 54120, Note_on_c, 4, 58, 63
12, 54120, Note_on_c, 4, 62, 71
12, 54120, Note_on_c, 4, 65, 59
12, 54195, Note_on_c, 4, 65, 0
12, 54195, Note_on_c, 4, 62, 0
12, 54216, Note_on_c, 4, 58, 0
12, 54240, Note_on_c, 4, 55, 80
12, 54240, Note_on_c, 4, 60, 59
12, 54240, Note_on_c, 4, 64, 78
12, 54271, Note_on_c, 4, 64, 0
12, 54272, Note_on_c, 4, 60, 0
12, 54273, Note_on_c, 4, 55, 0
12, 54300, Note_on_c, 4, 55, 63
12, 54300, Note_on_c, 4, 64, 63
12, 54303, Note_on_c, 4, 60, 63
12, 54340, Note_on_c, 4, 64, 0
12, 54340, Note_on_c, 4, 55, 0
12, 54343, Note_on_c, 4, 60, 0
12, 54360, Note_on_c, 4, 55, 71
12, 54360, Note_on_c, 4, 60, 64
12, 54360, Note_on_c, 4, 64, 72
12, 54377, Note_on_c, 4, 64, 0
12, 54381, Note_on_c, 4, 60, 0
12, 54388, Note_on_c, 4, 55, 0
12, 54420, Note_on_c, 4, 60, 66
12, 54420, Note_on_c, 4, 64, 74
12, 54420, Note_on_c, 4, 55, 66
12, 54512, Note_on_c, 4, 55, 0
12, 54513, Note_on_c, 4, 64, 0
12, 54514, Note_on_c, 4, 60, 0
12, 54540, Note_on_c, 4, 64, 60
12, 54540, Note_on_c, 4, 60, 56
12, 54540, Note_on_c, 4, 55, 58
12, 54565, Note_on_c, 4, 60, 0
12, 54566, Note_on_c, 4, 64, 0
12, 54570, Note_on_c, 4, 55, 0
12, 54600, Note_on_c, 4, 60, 66
12, 54600, Note_on_c, 4, 64, 72
12, 54600, Note_on_c, 4, 55, 61
12, 54626, Note_on_c, 4, 64, 0
12, 54627, Note_on_c, 4, 60, 0
12, 54630, Note_on_c, 4, 55, 0
12, 54660, Note_on_c, 4, 55, 52
12, 54660, Note_on_c, 4, 64, 61
12, 54660, Note_on_c, 4, 60, 59
12, 54676, Note_on_c, 4, 60, 0
12, 54679, Note_on_c, 4, 64, 0
12, 54691, Note_on_c, 4, 55, 0
12, 54780, Note_on_c, 4, 55, 66
12, 54780, Note_on_c, 4, 60, 63
12, 54780, Note_on_c, 4, 64, 72
12, 54800, Note_on_c, 4, 64, 0
12, 54801, Note_on_c, 4, 60, 0
12, 54808, Note_on_c, 4, 55, 0
12, 54840, Note_on_c, 4, 55, 65
12, 54840, Note_on_c, 4, 64, 70
12, 54840, Note_on_c, 4, 60, 55
12, 54853, Note_on_c, 4, 64, 0
12, 54855, Note_on_c, 4, 60, 0
12, 54866, Note_on_c, 4, 55, 0
12, 54900, Note_on_c, 4, 64, 73
12, 54900, Note_on_c, 4, 60, 71
12, 54900, Note_on_c, 4, 55, 66
12, 54992, Note_on_c, 4, 60, 0
12, 54993, Note_on_c, 4, 55, 0
12, 54994, Note_on_c, 4, 64, 0
12, 55020, Note_on_c, 4, 64, 59
12, 55020, Note_on_c, 4, 60, 55
12, 55020, Note_on_c, 4, 55, 56
12, 55040, Note_on_c, 4, 60, 0
12, 55044, Note_on_c, 4, 64, 0
12, 55048, Note_on_c, 4, 55, 0
12, 55080, Note_on_c, 4, 64, 80
12, 55080, Note_on_c, 4, 55, 66
12, 55080, Note_on_c, 4, 60, 69
12, 55103, Note_on_c, 4, 60, 0
12, 55106, Note_on_c, 4, 64, 0
12, 55108, Note_on_c, 4, 55, 0
12, 55140, Note_on_c, 4, 60, 69
12, 55140, Note_on_c, 4, 64, 71
12, 55140, Note_on_c, 4, 55, 64
12, 55162, Note_on_c, 4, 64, 0
12, 55164, Note_on_c, 4, 60, 0
12, 55170, Note_on_c, 4, 55, 0
12, 55200, Note_on_c, 4, 65, 63
12, 55200, Note_on_c, 4, 57, 66
12, 55200, Note_on_c, 4, 62, 65
12, 55232, Note_on_c, 4, 62, 0
12, 55234, Note_on_c, 4, 57, 0
12, 55240, Note_on_c, 4, 65, 0
12, 55263, Note_on_c, 4, 57, 63
12, 55263, Note_on_c, 4, 62, 63
12, 55263, Note_on_c, 4, 65, 63
12, 55303, Note_on_c, 4, 65, 0
12, 55303, Note_on_c, 4, 62, 0
12, 55303, Note_on_c, 4, 57, 0
12, 55320, Note_on_c, 4, 57, 63
12, 55320, Note_on_c, 4, 65, 56
12, 55320, Note_on_c, 4, 62, 59
12, 55331, Note_on_c, 4, 62, 0
12, 55341, Note_on_c, 4, 57, 0
12, 55350, Note_on_c, 4, 65, 0
12, 55380, Note_on_c, 4, 65, 52
12, 55380, Note_on_c, 4, 57, 65
12, 55380, Note_on_c, 4, 62, 69
12, 55482, Note_on_c, 4, 62, 0
12, 55483, Note_on_c, 4, 57, 0
12, 55486, Note_on_c, 4, 65, 0
12, 55500, Note_on_c, 4, 65, 51
12, 55500, Note_on_c, 4, 57, 54
12, 55500, Note_on_c, 4, 62, 55
12, 55528, Note_on_c, 4, 57, 0
12, 55530, Note_on_c, 4, 62, 0
12, 55539, Note_on_c, 4, 65, 0
12, 55560, Note_on_c, 4, 57, 69
12, 55560, Note_on_c, 4, 65, 67
12, 55560, Note_on_c, 4, 62, 60
12, 55644, Note_on_c, 4, 62, 0
12, 55650, Note_on_c, 4, 57, 0
12, 55654, Note_on_c, 4, 65, 0
12, 55680, Note_on_c, 4, 65, 60
12, 55680, Note_on_c, 4, 62, 66
12, 55680, Note_on_c, 4, 58, 71
12, 55703, Note_on_c, 4, 58, 0
12, 55707, Note_on_c, 4, 62, 0
12, 55714, Note_on_c, 4, 65, 0
12, 55743, Note_on_c, 4, 58, 63
12, 55746, Note_on_c, 4, 62, 63
12, 55746, Note_on_c, 4, 65, 63
12, 55783, Note_on_c, 4, 58, 0
12, 55786, Note_on_c, 4, 65, 0
12, 55786, Note_on_c, 4, 62, 0
12, 55800, Note_on_c, 4, 65, 59
12, 55800, Note_on_c, 4, 58, 67
12, 55800, Note_on_c, 4, 62, 69
12, 55827, Note_on_c, 4, 62, 0
12, 55828, Note_on_c, 4, 58, 0
12, 55834, Note_on_c, 4, 65, 0
12, 55860, Note_on_c, 4, 58, 72
12, 55860, Note_on_c, 4, 65, 49
12, 55860, Note_on_c, 4, 62, 63
12, 55954, Note_on_c, 4, 58, 0
12, 55957, Note_on_c, 4, 62, 0
12, 55971, Note_on_c, 4, 65, 0
12, 55980, Note_on_c, 4, 58, 62
12, 55980, Note_on_c, 4, 65, 53
12, 55980, Note_on_c, 4, 62, 52
12, 55995, Note_on_c, 4, 62, 0
12, 56008, Note_on_c, 4, 58, 0
12, 56015, Note_on_c, 4, 65, 0
12, 56040, Note_on_c, 4, 58, 63
12, 56040, Note_on_c, 4, 62, 71
12, 56040, Note_on_c, 4, 65, 59
12, 56115, Note_on_c, 4, 65, 0
12, 56115, Note_on_c, 4, 62, 0
12, 56136, Note_on_c, 4, 58, 0
12, 56160, Note_on_c, 4, 55, 80
12, 56160, Note_on_c, 4, 60, 59
12, 56160, Note_on_c, 4, 64, 78
12, 56191, Note_on_c, 4, 64, 0
12, 56192, Note_on_c, 4, 60, 0
12, 56193, Note_on_c, 4, 55, 0
12, 56220, Note_on_c, 4, 55, 63
12, 56220, Note_on_c, 4, 64, 63
12, 56223, Note_on_c, 4, 60, 63
12, 56260, Note_on_c, 4, 64, 0
12, 56260, Note_on_c, 4, 55, 0
12, 56263, Note_on_c, 4, 60, 0
12, 56280, Note_on_c, 4, 55, 71
12, 56280, Note_on_c, 4, 60, 64
12, 56280, Note_on_c, 4, 64, 72
12, 56297, Note_on_c, 4, 64, 0
12, 56301, Note_on_c, 4, 60, 0
12, 56308, Note_on_c, 4, 55, 0
12, 56340, Note_on_c, 4, 60, 66
12, 56340, Note_on_c, 4, 64, 74
12, 56340, Note_on_c, 4, 55, 66
12, 56432, Note_on_c, 4, 55, 0
12, 56433, Note_on_c, 4, 64, 0
12, 56434, Note_on_c, 4, 60, 0
12, 56460, Note_on_c, 4, 64, 60
12, 56460, Note_on_c, 4, 60, 56
12, 56460, Note_on_c, 4, 55, 58
12, 56485, Note_on_c, 4, 60, 0
12, 56486, Note_on_c, 4, 64, 0
12, 56490, Note_on_c, 4, 55, 0
12, 56520, Note_on_c, 4, 60, 66
12, 56520, Note_on_c, 4, 64, 72
12, 56520, Note_on_c, 4, 55, 61
12, 56546, Note_on_c, 4, 64, 0
12, 56547, Note_on_c, 4, 60, 0
12, 56550, Note_on_c, 4, 55, 0
12, 56580, Note_on_c, 4, 55, 52
12, 56580, Note_on_c, 4, 64, 61
12, 56580, Note_on_c, 4, 60, 59
12, 56596, Note_on_c, 4, 60, 0
12, 56599, Note_on_c, 4, 64, 0
12, 56611, Note_on_c, 4, 55, 0
12, 56700, Note_on_c, 4, 55, 66
12, 56700, Note_on_c, 4, 60, 63
12, 56700, Note_on_c, 4, 64, 72
12, 56720, Note_on_c, 4, 64, 0
12, 56721, Note_on_c, 4, 60, 0
12, 56728, Note_on_c, 4, 55, 0
12, 56760, Note_on_c, 4, 55, 65
12, 56760, Note_on_c, 4, 64, 70
12, 56760, Note_on_c, 4, 60, 55
12, 56773, Note_on_c, 4, 64, 0
12, 56775, Note_on_c, 4, 60, 0
12, 56786, Note_on_c, 4, 55, 0
12, 56820, Note_on_c, 4, 64, 73
12, 56820, Note_on_c, 4, 60, 71
12, 56820, Note_on_c, 4, 55, 66
12, 56912, Note_on_c, 4, 60, 0
12, 56913, Note_on_c, 4, 55, 0
12, 56914, Note_on_c, 4, 64, 0
12, 56940, Note_on_c, 4, 64, 59
12, 56940, Note_on_c, 4, 60, 55
12, 56940, Note_on_c, 4, 55, 56
12, 56960, Note_on_c, 4, 60, 0
12, 56964, Note_on_c, 4, 64, 0
12, 56968, Note_on_c, 4, 55, 0
12, 57000, Note_on_c, 4, 64, 80
12, 57000, Note_on_c, 4, 55, 66
12, 57000, Note_on_c, 4, 60, 69
12, 57023, Note_on_c, 4, 60, 0
12, 57026, Note_on_c, 4, 64, 0
12, 57028, Note_on_c, 4, 55, 0
12, 57060, Note_on_c, 4, 60, 69
12, 57060, Note_on_c, 4, 64, 71
12, 57060, Note_on_c, 4, 55, 64
12, 57082, Note_on_c, 4, 64, 0
12, 57084, Note_on_c, 4, 60, 0
12, 57090, Note_on_c, 4, 55, 0
12, 57120, Note_on_c, 4, 65, 63
12, 57120, Note_on_c, 4, 57, 66
12, 57120, Note_on_c, 4, 62, 65
12, 57152, Note_on_c, 4, 62, 0
12, 57154, Note_on_c, 4, 57, 0
12, 57160, Note_on_c, 4, 65, 0
12, 57183, Note_on_c, 4, 57, 63
12, 57183, Note_on_c, 4, 62, 63
12, 57183, Note_on_c, 4, 65, 63
12, 57223, Note_on_c, 4, 65, 0
12, 57223, Note_on_c, 4, 62, 0
12, 57223, Note_on_c, 4, 57, 0
12, 57240, Note_on_c, 4, 57, 63
12, 57240, Note_on_c, 4, 65, 56
12, 57240, Note_on_c, 4, 62, 59
12, 57251, Note_on_c, 4, 62, 0
12, 57261, Note_on_c, 4, 57, 0
12, 57270, Note_on_c, 4, 65, 0
12, 57300, Note_on_c, 4, 65, 52
12, 57300, Note_on_c, 4, 57, 65
12, 57300, Note_on_c, 4, 62, 69
12, 57402, Note_on_c, 4, 62, 0
12, 57403, Note_on_c, 4, 57, 0
12, 57406, Note_on_c, 4, 65, 0
12, 57420, Note_on_c, 4, 65, 51
12, 57420, Note_on_c, 4, 57, 54
12, 57420, Note_on_c, 4, 62, 55
12, 57448, Note_on_c, 4, 57, 0
12, 57450, Note_on_c, 4, 62, 0
12, 57459, Note_on_c, 4, 65, 0
12, 57480, Note_on_c, 4, 57, 69
12, 57480, Note_on_c, 4, 65, 67
12, 57480, Note_on_c, 4, 62, 60
12, 57564, Note_on_c, 4, 62, 0
12, 57570, Note_on_c, 4, 57, 0
12, 57574, Note_on_c, 4, 65, 0
12, 57600, Note_on_c, 4, 65, 60
12, 57600, Note_on_c, 4, 62, 66
12, 57600, Note_on_c, 4, 58, 71
12, 57623, Note_on_c, 4, 58, 0
12, 57627, Note_on_c, 4, 62, 0
12, 57634, Note_on_c, 4, 65, 0
12, 57663, Note_on_c, 4, 58, 63
12, 57666, Note_on_c, 4, 62, 63
12, 57666, Note_on_c, 4, 65, 63
12, 57703, Note_on_c, 4, 58, 0
12, 57706, Note_on_c, 4, 65, 0
12, 57706, Note_on_c, 4, 62, 0
12, 57720, Note_on_c, 4, 65, 59
12, 57720, Note_on_c, 4, 58, 67
12, 57720, Note_on_c, 4, 62, 69
12, 57747, Note_on_c, 4, 62, 0
12, 57748, Note_on_c, 4, 58, 0
12, 57754, Note_on_c, 4, 65, 0
12, 57780, Note_on_c, 4, 58, 72
12, 57780, Note_on_c, 4, 65, 49
12, 57780, Note_on_c, 4, 62, 63
12, 57874, Note_on_c, 4, 58, 0
12, 57877, Note_on_c, 4, 62, 0
12, 57891, Note_on_c, 4, 65, 0
12, 57900, Note_on_c, 4, 58, 62
12, 57900, Note_on_c, 4, 65, 53
12, 57900, Note_on_c, 4, 62, 52
12, 57915, Note_on_c, 4, 62, 0
12, 57928, Note_on_c, 4, 58, 0
12, 57935, Note_on_c, 4, 65, 0
12, 57960, Note_on_c, 4, 58, 63
12, 57960, Note_on_c, 4, 62, 71
12, 57960, Note_on_c, 4, 65, 59
12, 58035, Note_on_c, 4, 65, 0
12, 58035, Note_on_c, 4, 62, 0
12, 58056, Note_on_c, 4, 58, 0
12, 58080, Note_on_c, 4, 55, 80
12, 58080, Note_on_c, 4, 60, 59
12, 58080, Note_on_c, 4, 64, 78
12, 58111, Note_on_c, 4, 64, 0
12, 58112, Note_on_c, 4, 60, 0
12, 58113, Note_on_c, 4, 55, 0
12, 58140, Note_on_c, 4, 55, 63
12, 58140, Note_on_c, 4, 64, 63
12, 58143, Note_on_c, 4, 60, 63
12, 58180, Note_on_c, 4, 64, 0
12, 58180, Note_on_c, 4, 55, 0
12, 58183, Note_on_c, 4, 60, 0
12, 58200, Note_on_c, 4, 55, 71
12, 58200, Note_on_c, 4, 60, 64
12, 58200, Note_on_c, 4, 64, 72
12, 58217, Note_on_c, 4, 64, 0
12, 58221, Note_on_c, 4, 60, 0
12, 58228, Note_on_c, 4, 55, 0
12, 58260, Note_on_c, 4, 60, 66
12, 58260, Note_on_c, 4, 64, 74
12, 58260, Note_on_c, 4, 55, 66
12, 58352, Note_on_c, 4, 55, 0
12, 58353, Note_on_c, 4, 64, 0
12, 58354, Note_on_c, 4, 60, 0
12, 58380, Note_on_c, 4, 64, 60
12, 58380, Note_on_c, 4, 60, 56
12, 58380, Note_on_c, 4, 55, 58
12, 58405, Note_on_c, 4, 60, 0
12, 58406, Note_on_c, 4, 64, 0
12, 58410, Note_on_c, 4, 55, 0
12, 58440, Note_on_c, 4, 60, 66
12, 58440, Note_on_c, 4, 64, 72
12, 58440, Note_on_c, 4, 55, 61
12, 58466, Note_on_c, 4, 64, 0
12, 58467, Note_on_c, 4, 60, 0
12, 58470, Note_on_c, 4, 55, 0
12, 58500, Note_on_c, 4, 55, 52
12, 58500, Note_on_c, 4, 64, 61
12, 58500, Note_on_c, 4, 60, 59
12, 58516, Note_on_c, 4, 60, 0
12, 58519, Note_on_c, 4, 64, 0
12, 58531, Note_on_c, 4, 55, 0
12, 58620, Note_on_c, 4, 55, 66
12, 58620, Note_on_c, 4, 60, 63
12, 58620, Note_on_c, 4, 64, 72
12, 58640, Note_on_c, 4, 64, 0
12, 58641, Note_on_c, 4, 60, 0
12, 58648, Note_on_c, 4, 55, 0
12, 58680, Note_on_c, 4, 55, 65
12, 58680, Note_on_c, 4, 64, 70
12, 58680, Note_on_c, 4, 60, 55
12, 58693, Note_on_c, 4, 64, 0
12, 58695, Note_on_c, 4, 60, 0
12, 58706, Note_on_c, 4, 55, 0
12, 58740, Note_on_c, 4, 64, 73
12, 58740, Note_on_c, 4, 60, 71
12, 58740, Note_on_c, 4, 55, 66
12, 58832, Note_on_c, 4, 60, 0
12, 58833, Note_on_c, 4, 55, 0
12, 58834, Note_on_c, 4, 64, 0
12, 58860, Note_on_c, 4, 64, 59
12, 58860, Note_on_c, 4, 60, 55
12, 58860, Note_on_c, 4, 55, 56
12, 58880, Note_on_c, 4, 60, 0
12, 58884, Note_on_c, 4, 64, 0
12, 58888, Note_on_c, 4, 55, 0
12, 58920, Note_on_c, 4, 64, 80
12, 58920, Note_on_c, 4, 55, 66
12, 58920, Note_on_c, 4, 60, 69
12, 58943, Note_on_c, 4, 60, 0
12, 58946, Note_on_c, 4, 64, 0
12, 58948, Note_on_c, 4, 55, 0
12, 58980, Note_on_c, 4, 60, 69
12, 58980, Note_on_c, 4, 64, 71
12, 58980, Note_on_c, 4, 55, 64
12, 59002, Note_on_c, 4, 64, 0
12, 59004, Note_on_c, 4, 60, 0
12, 59010, Note_on_c, 4, 55, 0
12, 59040, Note_on_c, 4, 65, 63
12, 59040, Note_on_c, 4, 57, 66
12, 59040, Note_on_c, 4, 62, 65
12, 59072, Note_on_c, 4, 62, 0
12, 59074, Note_on_c, 4, 57, 0
12, 59080, Note_on_c, 4, 65, 0
12, 59103, Note_on_c, 4, 57, 63
12, 59103, Note_on_c, 4, 62, 63
12, 59103, Note_on_c, 4, 65, 63
12, 59143, Note_on_c, 4, 65, 0
12, 59143, Note_on_c, 4, 62, 0
12, 59143, Note_on_c, 4, 57, 0
12, 59160, Note_on_c, 4, 57, 63
12, 59160, Note_on_c, 4, 65, 56
12, 59160, Note_on_c, 4, 62, 59
12, 59171, Note_on_c, 4, 62, 0
12, 59181, Note_on_c, 4, 57, 0
12, 59190, Note_on_c, 4, 65, 0
12, 59220, Note_on_c, 4, 65, 52
12, 59220, Note_on_c, 4, 57, 65
12, 59220, Note_on_c, 4, 62, 69
12, 59322, Note_on_c, 4, 62, 0
12, 59323, Note_on_c, 4, 57, 0
12, 59326, Note_on_c, 4, 65, 0
12, 59340, Note_on_c, 4, 65, 51
12, 59340, Note_on_c, 4, 57, 54
12, 59340, Note_on_c, 4, 62, 55
12, 59368, Note_on_c, 4, 57, 0
12, 59370, Note_on_c, 4, 62, 0
12, 59379, Note_on_c, 4, 65, 0
12, 59400, Note_on_c, 4, 57, 69
12, 59400, Note_on_c, 4, 65, 67
12, 59400, Note_on_c, 4, 62, 60
12, 59484, Note_on_c, 4, 62, 0
12, 59490, Note_on_c, 4, 57, 0
12, 59494, Note_on_c, 4, 65, 0
12, 59520, Note_on_c, 4, 65, 60
12, 59520, Note_on_c, 4, 62, 66
12, 59520, Note_on_c, 4, 58, 71
12, 59543, Note_on_c, 4, 58, 0
12, 59547, Note_on_c, 4, 62, 0
12, 59554, Note_on_c, 4, 65, 0
12, 59583, Note_on_c, 4, 58, 63
12, 59586, Note_on_c, 4, 62, 63
12, 59586, Note_on_c, 4, 65, 63
12, 59623, Note_on_c, 4, 58, 0
12, 59626, Note_on_c, 4, 65, 0
12, 59626, Note_on_c, 4, 62, 0
12, 59640, Note_on_c, 4, 65, 59
12, 59640, Note_on_c, 4, 58, 67
12, 59640, Note_on_c, 4, 62, 69
12, 59667, Note_on_c, 4, 62, 0
12, 59668, Note_on_c, 4, 58, 0
12, 59674, Note_on_c, 4, 65, 0
12, 59700, Note_on_c, 4, 58, 72
12, 59700, Note_on_c, 4, 65, 49
12, 59700, Note_on_c, 4, 62, 63
12, 59794, Note_on_c, 4, 58, 0
12, 59797, Note_on_c, 4, 62, 0
12, 59811, Note_on_c, 4, 65, 0
12, 59820, Note_on_c, 4, 58, 62
12, 59820, Note_on_c, 4, 65, 53
12, 59820, Note_on_c, 4, 62, 52
12, 59835, Note_on_c, 4, 62, 0
12, 59848, Note_on_c, 4, 58, 0
12, 59855, Note_on_c, 4, 65, 0
12, 59880, Note_on_c, 4, 58, 63
12, 59880, Note_on_c, 4, 62, 71
12, 59880, Note_on_c, 4, 65, 59
12, 59955, Note_on_c, 4, 65, 0
12, 59955, Note_on_c, 4, 62, 0
12, 59976, Note_on_c, 4, 58, 0
12, 60000, Note_on_c, 4, 55, 80
12, 60000, Note_on_c, 4, 60, 59
12, 60000, Note_on_c, 4, 64, 78
12, 60031, Note_on_c, 4, 64, 0
12, 60032, Note_on_c, 4, 60, 0
12, 60033, Note_on_c, 4, 55, 0
12, 60060, Note_on_c, 4, 55, 63
12, 60060, Note_on_c, 4, 64, 63
12, 60063, Note_on_c, 4, 60, 63
12, 60100, Note_on_c, 4, 64, 0
12, 60100, Note_on_c, 4, 55, 0
12, 60103, Note_on_c, 4, 60, 0
12, 60120, Note_on_c, 4, 55, 71
12, 60120, Note_on_c, 4, 60, 64
12, 60120, Note_on_c, 4, 64, 72
12, 60137, Note_on_c, 4, 64, 0
12, 60141, Note_on_c, 4, 60, 0
12, 60148, Note_on_c, 4, 55, 0
12, 60180, Note_on_c, 4, 60, 66
12, 60180, Note_on_c, 4, 64, 74
12, 60180, Note_on_c, 4, 55, 66
12, 60272, Note_on_c, 4, 55, 0
12, 60273, Note_on_c, 4, 64, 0
12, 60274, Note_on_c, 4, 60, 0
12, 60300, Note_on_c, 4, 64, 60
12, 60300, Note_on_c, 4, 60, 56
12, 60300, Note_on_c, 4, 55, 58
12, 60325, Note_on_c, 4, 60, 0
12, 60326, Note_on_c, 4, 64, 0
12, 60330, Note_on_c, 4, 55, 0
12, 60360, Note_on_c, 4, 60, 66
12, 60360, Note_on_c, 4, 64, 72
12, 60360, Note_on_c, 4, 55, 61
12, 60386, Note_on_c, 4, 64, 0
12, 60387, Note_on_c, 4, 60, 0
12, 60390, Note_on_c, 4, 55, 0
12, 60420, Note_on_c, 4, 55, 52
12, 60420, Note_on_c, 4, 64, 61
12, 60420, Note_on_c, 4, 60, 59
12, 60436, Note_on_c, 4, 60, 0
12, 60439, Note_on_c, 4, 64, 0
12, 60451, Note_on_c, 4, 55, 0
12, 60540, Note_on_c, 4, 55, 66
12, 60540, Note_on_c, 4, 60, 63
12, 60540, Note_on_c, 4, 64, 72
12, 60560, Note_on_c, 4, 64, 0
12, 60561, Note_on_c, 4, 60, 0
12, 60568, Note_on_c, 4, 55, 0
12, 60600, Note_on_c, 4, 55, 65
12, 60600, Note_on_c, 4, 64, 70
12, 60600, Note_on_c, 4, 60, 55
12, 60613, Note_on_c, 4, 64, 0
12, 60615, Note_on_c, 4, 60, 0
12, 60626, Note_on_c, 4, 55, 0
12, 60660, Note_on_c, 4, 64, 73
12, 60660, Note_on_c, 4, 60, 71
12, 60660, Note_on_c, 4, 55, 66
12, 60752, Note_on_c, 4, 60, 0
12, 60753, Note_on_c, 4, 55, 0
12, 60754, Note_on_c, 4, 64, 0
12, 60780, Note_on_c, 4, 64, 59
12, 60780, Note_on_c, 4, 60, 55
12, 60780, Note_on_c, 4, 55, 56
12, 60800, Note_on_c, 4, 60, 0
12, 60804, Note_on_c, 4, 64, 0
12, 60808, Note_on_c, 4, 55, 0
12, 60840, Note_on_c, 4, 64, 80
12, 60840, Note_on_c, 4, 55, 66
12, 60840, Note_on_c, 4, 60, 69
12, 60863, Note_on_c, 4, 60, 0
12, 60866, Note_on_c, 4, 64, 0
12, 60868, Note_on_c, 4, 55, 0
12, 60900, Note_on_c, 4, 60, 69
12, 60900, Note_on_c, 4, 64, 71
12, 60900, Note_on_c, 4, 55, 64
12, 60922, Note_on_c, 4, 64, 0
12, 60924, Note_on_c, 4, 60, 0
12, 60930, Note_on_c, 4, 55, 0
12, 60960, Note_on_c, 4, 65, 63
12, 60960, Note_on_c, 4, 57, 66
12, 60960, Note_on_c, 4, 62, 65
12, 60992, Note_on_c, 4, 62, 0
12, 60994, Note_on_c, 4, 57, 0
12, 61000, Note_on_c, 4, 65, 0
12, 61023, Note_on_c, 4, 57, 63
12, 61023, Note_on_c, 4, 62, 63
12, 61023, Note_on_c, 4, 65, 63
12, 61063, Note_on_c, 4, 65, 0
12, 61063, Note_on_c, 4, 62, 0
12, 61063, Note_on_c, 4, 57, 0
12, 61080, Note_on_c, 4, 57, 63
12, 61080, Note_on_c, 4, 65, 56
12, 61080, Note_on_c, 4, 62, 59
12, 61091, Note_on_c, 4, 62, 0
12, 61101, Note_on_c, 4, 57, 0
12, 61110, Note_on_c, 4, 65, 0
12, 61140, Note_on_c, 4, 65, 52
12, 61140, Note_on_c, 4, 57, 65
12, 61140, Note_on_c, 4, 62, 69
12, 61242, Note_on_c, 4, 62, 0
12, 61243, Note_on_c, 4, 57, 0
12, 61246, Note_on_c, 4, 65, 0
12, 61260, Note_on_c, 4, 65, 51
12, 61260, Note_on_c, 4, 57, 54
12, 61260, Note_on_c, 4, 62, 55
12, 61288, Note_on_c, 4, 57, 0
12, 61290, Note_on_c, 4, 62, 0
12, 61299, Note_on_c, 4, 65, 0
12, 61320, Note_on_c, 4, 57, 69
12, 61320, Note_on_c, 4, 65, 67
12, 61320, Note_on_c, 4, 62, 60
12, 61404, Note_on_c, 4, 62, 0
12, 61410, Note_on_c, 4, 57, 0
12, 61414, Note_on_c, 4, 65, 0
12, 61440, Note_on_c, 4, 65, 60
12, 61440, Note_on_c, 4, 62, 66
12, 61440, Note_on_c, 4, 58, 71
12, 61463, Note_on_c, 4, 58, 0
12, 61467, Note_on_c, 4, 62, 0
12, 61474, Note_on_c, 4, 65, 0
12, 61503, Note_on_c, 4, 58, 63
12, 61506, Note_on_c, 4, 62, 63
12, 61506, Note_on_c, 4, 65, 63
12, 61543, Note_on_c, 4, 58, 0
12, 61546, Note_on_c, 4, 65, 0
12, 61546, Note_on_c, 4, 62, 0
12, 61560, Note_on_c, 4, 65, 59
12, 61560, Note_on_c, 4, 58, 67
12, 61560, Note_on_c, 4, 62, 69
12, 61587, Note_on_c, 4, 62, 0
12, 61588, Note_on_c, 4, 58, 0
12, 61594, Note_on_c, 4, 65, 0
12, 61620, Note_on_c, 4, 58, 72
12, 61620, Note_on_c, 4, 65, 49
12, 61620, Note_on_c, 4, 62, 63
12, 61714, Note_on_c, 4, 58, 0
12, 61717, Note_on_c, 4, 62, 0
12, 61731, Note_on_c, 4, 65, 0
12, 61740, Note_on_c, 4, 58, 62
12, 61740, Note_on_c, 4, 65, 53
12, 61740, Note_on_c, 4, 62, 52
12, 61755, Note_on_c, 4, 62, 0
12, 61768, Note_on_c, 4, 58, 0
12, 61775, Note_on_c, 4, 65, 0
12, 61800, Note_on_c, 4, 58, 63
12, 61800, Note_on_c, 4, 62, 71
12, 61800, Note_on_c, 4, 65, 59
12, 61875, Note_on_c, 4, 65, 0
12, 61875, Note_on_c, 4, 62, 0
12, 61896, Note_on_c, 4, 58, 0
12, 61920, Note_on_c, 4, 55, 80
12, 61920, Note_on_c, 4, 60, 59
12, 61920, Note_on_c, 4, 64, 78
12, 61951, Note_on_c, 4, 64, 0
12, 61952, Note_on_c, 4, 60, 0
12, 61953, Note_on_c, 4, 55, 0
12, 61980, Note_on_c, 4, 55, 63
12, 61980, Note_on_c, 4, 64, 63
12, 61983, Note_on_c, 4, 60, 63
12, 62020, Note_on_c, 4, 64, 0
12, 62020, Note_on_c, 4, 55, 0
12, 62023, Note_on_c, 4, 60, 0
12, 62040, Note_on_c, 4, 55, 71
12, 62040, Note_on_c, 4, 60, 64
12, 62040, Note_on_c, 4, 64, 72
12, 62057, Note_on_c, 4, 64, 0
12, 62061, Note_on_c, 4, 60, 0
12, 62068, Note_on_c, 4, 55, 0
12, 62100, Note_on_c, 4, 60, 66
12, 62100, Note_on_c, 4, 64, 74
12, 62100, Note_on_c, 4, 55, 66
12, 62192, Note_on_c, 4, 55, 0
12, 62193, Note_on_c, 4, 64, 0
12, 62194, Note_on_c, 4, 60, 0
12, 62220, Note_on_c, 4, 64, 60
12, 62220, Note_on_c, 4, 60, 56
12, 62220, Note_on_c, 4, 55, 58
12, 62245, Note_on_c, 4, 60, 0
12, 62246, Note_on_c, 4, 64, 0
12, 62250, Note_on_c, 4, 55, 0
12, 62280, Note_on_c, 4, 60, 66
12, 62280, Note_on_c, 4, 64, 72
12, 62280, Note_on_c, 4, 55, 61
12, 62306, Note_on_c, 4, 64, 0
12, 62307, Note_on_c, 4, 60, 0
12, 62310, Note_on_c, 4, 55, 0
12, 62340, Note_on_c, 4, 55, 52
12, 62340, Note_on_c, 4, 64, 61
12, 62340, Note_on_c, 4, 60, 59
12, 62356, Note_on_c, 4, 60, 0
12, 62359, Note_on_c, 4, 64, 0
12, 62371, Note_on_c, 4, 55, 0
12, 62460, Note_on_c, 4, 55, 66
12, 62460, Note_on_c, 4, 60, 63
12, 62460, Note_on_c, 4, 64, 72
12, 62480, Note_on_c, 4, 64, 0
12, 62481, Note_on_c, 4, 60, 0
12, 62488, Note_on_c, 4, 55, 0
12, 62520, Note_on_c, 4, 55, 65
12, 62520, Note_on_c, 4, 64, 70
12, 62520, Note_on_c, 4, 60, 55
12, 62533, Note_on_c, 4, 64, 0
12, 62535, Note_on_c, 4, 60, 0
12, 62546, Note_on_c, 4, 55, 0
12, 62580, Note_on_c, 4, 64, 73
12, 62580, Note_on_c, 4, 60, 71
12, 62580, Note_on_c, 4, 55, 66
12, 62672, Note_on_c, 4, 60, 0
12, 62673, Note_on_c, 4, 55, 0
12, 62674, Note_on_c, 4, 64, 0
12, 62700, Note_on_c, 4, 64, 59
12, 62700, Note_on_c, 4, 60, 55
12, 62700, Note_on_c, 4, 55, 56
12, 62720, Note_on_c, 4, 60, 0
12, 62724, Note_on_c, 4, 64, 0
12, 62728, Note_on_c, 4, 55, 0
12, 62760, Note_on_c, 4, 64, 80
12, 62760, Note_on_c, 4, 55, 66
12, 62760, Note_on_c, 4, 60, 69
12, 62783, Note_on_c, 4, 60, 0
12, 62786, Note_on_c, 4, 64, 0
12, 62788, Note_on_c, 4, 55, 0
12, 62820, Note_on_c, 4, 60, 69
12, 62820, Note_on_c, 4, 64, 71
12, 62820, Note_on_c, 4, 55, 64
12, 62842, Note_on_c, 4, 64, 0
12, 62844, Note_on_c, 4, 60, 0
12, 62850, Note_on_c, 4, 55, 0
12, 62880, Note_on_c, 4, 65, 63
12, 62880, Note_on_c, 4, 57, 66
12, 62880, Note_on_c, 4, 62, 65
12, 62912, Note_on_c, 4, 62, 0
12, 62914, Note_on_c, 4, 57, 0
12, 62920, Note_on_c, 4, 65, 0
12, 62943, Note_on_c, 4, 57, 63
12, 62943, Note_on_c, 4, 62, 63
12, 62943, Note_on_c, 4, 65, 63
12, 62983, Note_on_c, 4, 65, 0
12, 62983, Note_on_c, 4, 62, 0
12, 62983, Note_on_c, 4, 57, 0
12, 63000, Note_on_c, 4, 57, 63
12, 63000, Note_on_c, 4, 65, 56
12, 63000, Note_on_c, 4, 62, 59
12, 63011, Note_on_c, 4, 62, 0
12, 63021, Note_on_c, 4, 57, 0
12, 63030, Note_on_c, 4, 65, 0
12, 63060, Note_on_c, 4, 65, 52
12, 63060, Note_on_c, 4, 57, 65
12, 63060, Note_on_c, 4, 62, 69
12, 63162, Note_on_c, 4, 62, 0
12, 63163, Note_on_c, 4, 57, 0
12, 63166, Note_on_c, 4, 65, 0
12, 63180, Note_on_c, 4, 65, 51
12, 63180, Note_on_c, 4, 57, 54
12, 63180, Note_on_c, 4, 62, 55
12, 63208, Note_on_c, 4, 57, 0
12, 63210, Note_on_c, 4, 62, 0
12, 63219, Note_on_c, 4, 65, 0
12, 63240, Note_on_c, 4, 57, 69
12, 63240, Note_on_c, 4, 65, 67
12, 63240, Note_on_c, 4, 62, 60
12, 63324, Note_on_c, 4, 62, 0
12, 63330, Note_on_c, 4, 57, 0
12, 63334, Note_on_c, 4, 65, 0
12, 63360, Note_on_c, 4, 65, 60
12, 63360, Note_on_c, 4, 62, 66
12, 63360, Note_on_c, 4, 58, 71
12, 63383, Note_on_c, 4, 58, 0
12, 63387, Note_on_c, 4, 62, 0
12, 63394, Note_on_c, 4, 65, 0
12, 63423, Note_on_c, 4, 58, 63
12, 63426, Note_on_c, 4, 62, 63
12, 63426, Note_on_c, 4, 65, 63
12, 63463, Note_on_c, 4, 58, 0
12, 63466, Note_on_c, 4, 65, 0
12, 63466, Note_on_c, 4, 62, 0
12, 63480, Note_on_c, 4, 65, 59
12, 63480, Note_on_c, 4, 58, 67
12, 63480, Note_on_c, 4, 62, 69
12, 63507, Note_on_c, 4, 62, 0
12, 63508, Note_on_c, 4, 58, 0
12, 63514, Note_on_c, 4, 65, 0
12, 63540, Note_on_c, 4, 58, 72
12, 63540, Note_on_c, 4, 65, 49
12, 63540, Note_on_c, 4, 62, 63
12, 63634, Note_on_c, 4, 58, 0
12, 63637, Note_on_c, 4, 62, 0
12, 63651, Note_on_c, 4, 65, 0
12, 63660, Note_on_c, 4, 58, 62
12, 63660, Note_on_c, 4, 65, 53
12, 63660, Note_on_c, 4, 62, 52
12, 63675, Note_on_c, 4, 62, 0
12, 63688, Note_on_c, 4, 58, 0
12, 63695, Note_on_c, 4, 65, 0
12, 63720, Note_on_c, 4, 58, 63
12, 63720, Note_on_c, 4, 62, 71
12, 63720, Note_on_c, 4, 65, 59
12, 63795, Note_on_c, 4, 65, 0
12, 63795, Note_on_c, 4, 62, 0
12, 63816, Note_on_c, 4, 58, 0
12, 63840, Note_on_c, 4, 55, 80
12, 63840, Note_on_c, 4, 60, 59
12, 63840, Note_on_c, 4, 64, 78
12, 63871, Note_on_c, 4, 64, 0
12, 63872, Note_on_c, 4, 60, 0
12, 63873, Note_on_c, 4, 55, 0
12, 63900, Note_on_c, 4, 55, 63
12, 63900, Note_on_c, 4, 64, 63
12, 63903, Note_on_c, 4, 60, 63
12, 63940, Note_on_c, 4, 64, 0
12, 63940, Note_on_c, 4, 55, 0
12, 63943, Note_on_c, 4, 60, 0
12, 63960, Note_on_c, 4, 55, 71
12, 63960, Note_on_c, 4, 60, 64
12, 63960, Note_on_c, 4, 64, 72
12, 63977, Note_on_c, 4, 64, 0
12, 63981, Note_on_c, 4, 60, 0
12, 63988, Note_on_c, 4, 55, 0
12, 64020, Note_on_c, 4, 60, 66
12, 64020, Note_on_c, 4, 64, 74
12, 64020, Note_on_c, 4, 55, 66
12, 64112, Note_on_c, 4, 55, 0
12, 64113, Note_on_c, 4, 64, 0
12, 64114, Note_on_c, 4, 60, 0
12, 64140, Note_on_c, 4, 64, 60
12, 64140, Note_on_c, 4, 60, 56
12, 64140, Note_on_c, 4, 55, 58
12, 64165, Note_on_c, 4, 60, 0
12, 64166, Note_on_c, 4, 64, 0
12, 64170, Note_on_c, 4, 55, 0
12, 64200, Note_on_c, 4, 60, 66
12, 64200, Note_on_c, 4, 64, 72
12, 64200, Note_on_c, 4, 55, 61
12, 64226, Note_on_c, 4, 64, 0
12, 64227, Note_on_c, 4, 60, 0
12, 64230, Note_on_c, 4, 55, 0
12, 64260, Note_on_c, 4, 55, 52
12, 64260, Note_on_c, 4, 64, 61
12, 64260, Note_on_c, 4, 60, 59
12, 64276, Note_on_c, 4, 60, 0
12, 64279, Note_on_c, 4, 64, 0
12, 64291, Note_on_c, 4, 55, 0
12, 64380, Note_on_c, 4, 55, 66
12, 64380, Note_on_c, 4, 60, 63
12, 64380, Note_on_c, 4, 64, 72
12, 64400, Note_on_c, 4, 64, 0
12, 64401, Note_on_c, 4, 60, 0
12, 64408, Note_on_c, 4, 55, 0
12, 64440, Note_on_c, 4, 55, 65
12, 64440, Note_on_c, 4, 64, 70
12, 64440, Note_on_c, 4, 60, 55
12, 64453, Note_on_c, 4, 64, 0
12, 64455, Note_on_c, 4, 60, 0
12, 64466, Note_on_c, 4, 55, 0
12, 64500, Note_on_c, 4, 64, 73
12, 64500, Note_on_c, 4, 60, 71
12, 64500, Note_on_c, 4, 55, 66
12, 64592, Note_on_c, 4, 60, 0
12, 64593, Note_on_c, 4, 55, 0
12, 64594, Note_on_c, 4, 64, 0
12, 64620, Note_on_c, 4, 64, 59
12, 64620, Note_on_c, 4, 60, 55
12, 64620, Note_on_c, 4, 55, 56
12, 64640, Note_on_c, 4, 60, 0
12, 64644, Note_on_c, 4, 64, 0
12, 64648, Note_on_c, 4, 55, 0
12, 64680, Note_on_c, 4, 64, 80
12, 64680, Note_on_c, 4, 55, 66
12, 64680, Note_on_c, 4, 60, 69
12, 64703, Note_on_c, 4, 60, 0
12, 64706, Note_on_c, 4, 64, 0
12, 64708, Note_on_c, 4, 55, 0
12, 64740, Note_on_c, 4, 60, 69
12, 64740, Note_on_c, 4, 64, 71
12, 64740, Note_on_c, 4, 55, 64
12, 64762, Note_on_c, 4, 64, 0
12, 64764, Note_on_c, 4, 60, 0
12, 64770, Note_on_c, 4, 55, 0
12, 64800, Note_on_c, 4, 65, 63
12, 64800, Note_on_c, 4, 57, 66
12, 64800, Note_on_c, 4, 62, 65
12, 64832, Note_on_c, 4, 62, 0
12, 64834, Note_on_c, 4, 57, 0
12, 64840, Note_on_c, 4, 65, 0
12, 64863, Note_on_c, 4, 57, 63
12, 64863, Note_on_c, 4, 62, 63
12, 64863, Note_on_c, 4, 65, 63
12, 64903, Note_on_c, 4, 65, 0
12, 64903, Note_on_c, 4, 62, 0
12, 64903, Note_on_c, 4, 57, 0
12, 64920, Note_on_c, 4, 57, 63
12, 64920, Note_on_c, 4, 65, 56
12, 64920, Note_on_c, 4, 62, 59
12, 64931, Note_on_c, 4, 62, 0
12, 64941, Note_on_c, 4, 57, 0
12, 64950, Note_on_c, 4, 65, 0
12, 64980, Note_on_c, 4, 65, 52
12, 64980, Note_on_c, 4, 57, 65
12, 64980, Note_on_c, 4, 62, 69
12, 65082, Note_on_c, 4, 62, 0
12, 65083, Note_on_c, 4, 57, 0
12, 65086, Note_on_c, 4, 65, 0
12, 65100, Note_on_c, 4, 65, 51
12, 65100, Note_on_c, 4, 57, 54
12, 65100, Note_on_c, 4, 62, 55
12, 65128, Note_on_c, 4, 57, 0
12, 65130, Note_on_c, 4, 62, 0
12, 65139, Note_on_c, 4, 65, 0
12, 65160, Note_on_c, 4, 57, 69
12, 65160, Note_on_c, 4, 65, 67
12, 65160, Note_on_c, 4, 62, 60
12, 65244, Note_on_c, 4, 62, 0
12, 65250, Note_on_c, 4, 57, 0
12, 65254, Note_on_c, 4, 65, 0
12, 65280, Note_on_c, 4, 65, 60
12, 65280, Note_on_c, 4, 62, 66
12, 65280, Note_on_c, 4, 58, 71
12, 65303, Note_on_c, 4, 58, 0
12, 65307, Note_on_c, 4, 62, 0
12, 65314, Note_on_c, 4, 65, 0
12, 65343, Note_on_c, 4, 58, 63
12, 65346, Note_on_c, 4, 62, 63
12, 65346, Note_on_c, 4, 65, 63
12, 65383, Note_on_c, 4, 58, 0
12, 65386, Note_on_c, 4, 65, 0
12, 65386, Note_on_c, 4, 62, 0
12, 65400, Note_on_c, 4, 65, 59
12, 65400, Note_on_c, 4, 58, 67
12, 65400, Note_on_c, 4, 62, 69
12, 65427, Note_on_c, 4, 62, 0
12, 65428, Note_on_c, 4, 58, 0
12, 65434, Note_on_c, 4, 65, 0
12, 65460, Note_on_c, 4, 58, 72
12, 65460, Note_on_c, 4, 65, 49
12, 65460, Note_on_c, 4, 62, 63
12, 65554, Note_on_c, 4, 58, 0
12, 65557, Note_on_c, 4, 62, 0
12, 65571, Note_on_c, 4, 65, 0
12, 65580, Note_on_c, 4, 58, 62
12, 65580, Note_on_c, 4, 65, 53
12, 65580, Note_on_c, 4, 62, 52
12, 65595, Note_on_c, 4, 62, 0
12, 65608, Note_on_c, 4, 58, 0
12, 65615, Note_on_c, 4, 65, 0
12, 65640, Note_on_c, 4, 58, 63
12, 65640, Note_on_c, 4, 62, 71
12, 65640, Note_on_c, 4, 65, 59
12, 65715, Note_on_c, 4, 65, 0
12, 65715, Note_on_c, 4, 62, 0
12, 65736, Note_on_c, 4, 58, 0
12, 65760, Note_on_c, 4, 55, 80
12, 65760, Note_on_c, 4, 60, 59
12, 65760, Note_on_c, 4, 64, 78
12, 65791, Note_on_c, 4, 64, 0
12, 65792, Note_on_c, 4, 60, 0
12, 65793, Note_on_c, 4, 55, 0
12, 65820, Note_on_c, 4, 55, 63
12, 65820, Note_on_c, 4, 64, 63
12, 65823, Note_on_c, 4, 60, 63
12, 65860, Note_on_c, 4, 64, 0
12, 65860, Note_on_c, 4, 55, 0
12, 65863, Note_on_c, 4, 60, 0
12, 65880, Note_on_c, 4, 55, 71
12, 65880, Note_on_c, 4, 60, 64
12, 65880, Note_on_c, 4, 64, 72
12, 65897, Note_on_c, 4, 64, 0
12, 65901, Note_on_c, 4, 60, 0
12, 65908, Note_on_c, 4, 55, 0
12, 65940, Note_on_c, 4, 60, 66
12, 65940, Note_on_c, 4, 64, 74
12, 65940, Note_on_c, 4, 55, 66
12, 66032, Note_on_c, 4, 55, 0
12, 66033, Note_on_c, 4, 64, 0
12, 66034, Note_on_c, 4, 60, 0
12, 66060, Note_on_c, 4, 64, 60
12, 66060, Note_on_c, 4, 60, 56
12, 66060, Note_on_c, 4, 55, 58
12, 66085, Note_on_c, 4, 60, 0
12, 66086, Note_on_c, 4, 64, 0
12, 66090, Note_on_c, 4, 55, 0
12, 66120, Note_on_c, 4, 60, 66
12, 66120, Note_on_c, 4, 64, 72
12, 66120, Note_on_c, 4, 55, 61
12, 66146, Note_on_c, 4, 64, 0
12, 66147, Note_on_c, 4, 60, 0
12, 66150, Note_on_c, 4, 55, 0
12, 66180, Note_on_c, 4, 55, 52
12, 66180, Note_on_c, 4, 64, 61
12, 66180, Note_on_c, 4, 60, 59
12, 66196, Note_on_c, 4, 60, 0
12, 66199, Note_on_c, 4, 64, 0
12, 66211, Note_on_c, 4, 55, 0
12, 66300, Note_on_c, 4, 55, 66
12, 66300, Note_on_c, 4, 60, 63
12, 66300, Note_on_c, 4, 64, 72
12, 66320, Note_on_c, 4, 64, 0
12, 66321, Note_on_c, 4, 60, 0
12, 66328, Note_on_c, 4, 55, 0
12, 66360, Note_on_c, 4, 55, 65
12, 66360, Note_on_c, 4, 64, 70
12, 66360, Note_on_c, 4, 60, 55
12, 66373, Note_on_c, 4, 64, 0
12, 66375, Note_on_c, 4, 60, 0
12, 66386, Note_on_c, 4, 55, 0
12, 66420, Note_on_c, 4, 64, 73
12, 66420, Note_on_c, 4, 60, 71
12, 66420, Note_on_c, 4, 55, 66
12, 66512, Note_on_c, 4, 60, 0
12, 66513, Note_on_c, 4, 55, 0
12, 66514, Note_on_c, 4, 64, 0
12, 66540, Note_on_c, 4, 64, 59
12, 66540, Note_on_c, 4, 60, 55
12, 66540, Note_on_c, 4, 55, 56
12, 66560, Note_on_c, 4, 60, 0
12, 66564, Note_on_c, 4, 64, 0
12, 66568, Note_on_c, 4, 55, 0
12, 66600, Note_on_c, 4, 64, 80
12, 66600, Note_on_c, 4, 55, 66
12, 66600, Note_on_c, 4, 60, 69
12, 66623, Note_on_c, 4, 60, 0
12, 66626, Note_on_c, 4, 64, 0
12, 66628, Note_on_c, 4, 55, 0
12, 66660, Note_on_c, 4, 60, 69
12, 66660, Note_on_c, 4, 64, 71
12, 66660, Note_on_c, 4, 55, 64
12, 66682, Note_on_c, 4, 64, 0
12, 66684, Note_on_c, 4, 60, 0
12, 66690, Note_on_c, 4, 55, 0
12, 66720, Note_on_c, 4, 65, 61
12, 66720, Note_on_c, 4, 57, 64
12, 66720, Note_on_c, 4, 62, 63
12, 66752, Note_on_c, 4, 62, 0
12, 66754, Note_on_c, 4, 57, 0
12, 66760, Note_on_c, 4, 65, 0
12, 66783, Note_on_c, 4, 57, 61
12, 66783, Note_on_c, 4, 62, 61
12, 66783, Note_on_c, 4, 65, 61
12, 66823, Note_on_c, 4, 65, 0
12, 66823, Note_on_c, 4, 62, 0
12, 66823, Note_on_c, 4, 57, 0
12, 66840, Note_on_c, 4, 57, 61
12, 66840, Note_on_c, 4, 65, 54
12, 66840, Note_on_c, 4, 62, 56
12, 66851, Note_on_c, 4, 62, 0
12, 66861, Note_on_c, 4, 57, 0
12, 66870, Note_on_c, 4, 65, 0
12, 66900, Note_on_c, 4, 65, 50
12, 66900, Note_on_c, 4, 57, 63
12, 66900, Note_on_c, 4, 62, 66
12, 67002, Note_on_c, 4, 62, 0
12, 67003, Note_on_c, 4, 57, 0
12, 67006, Note_on_c, 4, 65, 0
12, 67020, Note_on_c, 4, 65, 48
12, 67020, Note_on_c, 4, 57, 51
12, 67020, Note_on_c, 4, 62, 52
12, 67048, Note_on_c, 4, 57, 0
12, 67050, Note_on_c, 4, 62, 0
12, 67059, Note_on_c, 4, 65, 0
12, 67080, Note_on_c, 4, 57, 64
12, 67080, Note_on_c, 4, 65, 63
12, 67080, Note_on_c, 4, 62, 56
12, 67164, Note_on_c, 4, 62, 0
12, 67170, Note_on_c, 4, 57, 0
12, 67174, Note_on_c, 4, 65, 0
12, 67200, Note_on_c, 4, 65, 55
12, 67200, Note_on_c, 4, 62, 62
12, 67200, Note_on_c, 4, 58, 66
12, 67223, Note_on_c, 4, 58, 0
12, 67227, Note_on_c, 4, 62, 0
12, 67234, Note_on_c, 4, 65, 0
12, 67263, Note_on_c, 4, 58, 58
12, 67266, Note_on_c, 4, 62, 58
12, 67266, Note_on_c, 4, 65, 58
12, 67303, Note_on_c, 4, 58, 0
12, 67306, Note_on_c, 4, 65, 0
12, 67306, Note_on_c, 4, 62, 0
12, 67320, Note_on_c, 4, 65, 53
12, 67320, Note_on_c, 4, 58, 62
12, 67320, Note_on_c, 4, 62, 62
12, 67347, Note_on_c, 4, 62, 0
12, 67348, Note_on_c, 4, 58, 0
12, 67354, Note_on_c, 4, 65, 0
12, 67380, Note_on_c, 4, 58, 65
12, 67380, Note_on_c, 4, 65, 44
12, 67380, Note_on_c, 4, 62, 58
12, 67474, Note_on_c, 4, 58, 0
12, 67477, Note_on_c, 4, 62, 0
12, 67491, Note_on_c, 4, 65, 0
12, 67500, Note_on_c, 4, 58, 55
12, 67500, Note_on_c, 4, 65, 48
12, 67500, Note_on_c, 4, 62, 47
12, 67515, Note_on_c, 4, 62, 0
12, 67528, Note_on_c, 4, 58, 0
12, 67535, Note_on_c, 4, 65, 0
12, 67560, Note_on_c, 4, 58, 56
12, 67560, Note_on_c, 4, 62, 63
12, 67560, Note_on_c, 4, 65, 52
12, 67635, Note_on_c, 4, 65, 0
12, 67635, Note_on_c, 4, 62, 0
12, 67656, Note_on_c, 4, 58, 0
12, 67680, Note_on_c, 4, 55, 70
12, 67680, Note_on_c, 4, 60, 52
12, 67680, Note_on_c, 4, 64, 70
12, 67711, Note_on_c, 4, 64, 0
12, 67712, Note_on_c, 4, 60, 0
12, 67713, Note_on_c, 4, 55, 0
12, 67740, Note_on_c, 4, 55, 55
12, 67740, Note_on_c, 4, 64, 55
12, 67743, Note_on_c, 4, 60, 55
12, 67780, Note_on_c, 4, 64, 0
12, 67780, Note_on_c, 4, 55, 0
12, 67783, Note_on_c, 4, 60, 0
12, 67800, Note_on_c, 4, 55, 62
12, 67800, Note_on_c, 4, 60, 55
12, 67800, Note_on_c, 4, 64, 63
12, 67817, Note_on_c, 4, 64, 0
12, 67821, Note_on_c, 4, 60, 0
12, 67828, Note_on_c, 4, 55, 0
12, 67860, Note_on_c, 4, 60, 58
12, 67860, Note_on_c, 4, 64, 64
12, 67860, Note_on_c, 4, 55, 58
12, 67952, Note_on_c, 4, 55, 0
12, 67953, Note_on_c, 4, 64, 0
12, 67954, Note_on_c, 4, 60, 0
12, 67980, Note_on_c, 4, 64, 51
12, 67980, Note_on_c, 4, 60, 48
12, 67980, Note_on_c, 4, 55, 49
12, 68005, Note_on_c, 4, 60, 0
12, 68006, Note_on_c, 4, 64, 0
12, 68010, Note_on_c, 4, 55, 0
12, 68040, Note_on_c, 4, 60, 55
12, 68040, Note_on_c, 4, 64, 61
12, 68040, Note_on_c, 4, 55, 51
12, 68066, Note_on_c, 4, 64, 0
12, 68067, Note_on_c, 4, 60, 0
12, 68070, Note_on_c, 4, 55, 0
12, 68100, Note_on_c, 4, 55, 43
12, 68100, Note_on_c, 4, 64, 51
12, 68100, Note_on_c, 4, 60, 49
12, 68116, Note_on_c, 4, 60, 0
12, 68119, Note_on_c, 4, 64, 0
12, 68131, Note_on_c, 4, 55, 0
12, 68220, Note_on_c, 4, 55, 54
12, 68220, Note_on_c, 4, 60, 52
12, 68220, Note_on_c, 4, 64, 59
12, 68240, Note_on_c, 4, 64, 0
12, 68241, Note_on_c, 4, 60, 0
12, 68248, Note_on_c, 4, 55, 0
12, 68280, Note_on_c, 4, 55, 53
12, 68280, Note_on_c, 4, 64, 58
12, 68280, Note_on_c, 4, 60, 45
12, 68293, Note_on_c, 4, 64, 0
12, 68295, Note_on_c, 4, 60, 0
12, 68306, Note_on_c, 4, 55, 0
12, 68340, Note_on_c, 4, 64, 59
12, 68340, Note_on_c, 4, 60, 58
12, 68340, Note_on_c, 4, 55, 54
12, 68432, Note_on_c, 4, 60, 0
12, 68433, Note_on_c, 4, 55, 0
12, 68434, Note_on_c, 4, 64, 0
12, 68460, Note_on_c, 4, 64, 47
12, 68460, Note_on_c, 4, 60, 44
12, 68460, Note_on_c, 4, 55, 45
12, 68480, Note_on_c, 4, 60, 0
12, 68484, Note_on_c, 4, 64, 0
12, 68488, Note_on_c, 4, 55, 0
12, 68520, Note_on_c, 4, 64, 63
12, 68520, Note_on_c, 4, 55, 52
12, 68520, Note_on_c, 4, 60, 54
12, 68543, Note_on_c, 4, 60, 0
12, 68546, Note_on_c, 4, 64, 0
12, 68548, Note_on_c, 4, 55, 0
12, 68580, Note_on_c, 4, 60, 54
12, 68580, Note_on_c, 4, 64, 56
12, 68580, Note_on_c, 4, 55, 51
12, 68602, Note_on_c, 4, 64, 0
12, 68604, Note_on_c, 4, 60, 0
12, 68610, Note_on_c, 4, 55, 0
12, 68640, Note_on_c, 4, 65, 49
12, 68640, Note_on_c, 4, 57, 52
12, 68640, Note_on_c, 4, 62, 51
12, 68672, Note_on_c, 4, 62, 0
12, 68674, Note_on_c, 4, 57, 0
12, 68680, Note_on_c, 4, 65, 0
12, 68703, Note_on_c, 4, 57, 49
12, 68703, Note_on_c, 4, 62, 49
12, 68703, Note_on_c, 4, 65, 49
12, 68743, Note_on_c, 4, 65, 0
12, 68743, Note_on_c, 4, 62, 0
12, 68743, Note_on_c, 4, 57, 0
12, 68760, Note_on_c, 4, 57, 49
12, 68760, Note_on_c, 4, 65, 43
12, 68760, Note_on_c, 4, 62, 45
12, 68771, Note_on_c, 4, 62, 0
12, 68781, Note_on_c, 4, 57, 0
12, 68790, Note_on_c, 4, 65, 0
12, 68820, Note_on_c, 4, 65, 39
12, 68820, Note_on_c, 4, 57, 50
12, 68820, Note_on_c, 4, 62, 52
12, 68922, Note_on_c, 4, 62, 0
12, 68923, Note_on_c, 4, 57, 0
12, 68926, Note_on_c, 4, 65, 0
12, 68940, Note_on_c, 4, 65, 38
12, 68940, Note_on_c, 4, 57, 41
12, 68940, Note_on_c, 4, 62, 41
12, 68968, Note_on_c, 4, 57, 0
12, 68970, Note_on_c, 4, 62, 0
12, 68979, Note_on_c, 4, 65, 0
12, 69000, Note_on_c, 4, 57, 51
12, 69000, Note_on_c, 4, 65, 50
12, 69000, Note_on_c, 4, 62, 44
12, 69084, Note_on_c, 4, 62, 0
12, 69090, Note_on_c, 4, 57, 0
12, 69094, Note_on_c, 4, 65, 0
12, 69120, Note_on_c, 4, 65, 43
12, 69120, Note_on_c, 4, 62, 49
12, 69120, Note_on_c, 4, 58, 52
12, 69143, Note_on_c, 4, 58, 0
12, 69147, Note_on_c, 4, 62, 0
12, 69154, Note_on_c, 4, 65, 0
12, 69183, Note_on_c, 4, 58, 45
12, 69186, Note_on_c, 4, 62, 45
12, 69186, Note_on_c, 4, 65, 45
12, 69223, Note_on_c, 4, 58, 0
12, 69226, Note_on_c, 4, 65, 0
12, 69226, Note_on_c, 4, 62, 0
12, 69240, Note_on_c, 4, 65, 42
12, 69240, Note_on_c, 4, 58, 49
12, 69240, Note_on_c, 4, 62, 49
12, 69267, Note_on_c, 4, 62, 0
12, 69268, Note_on_c, 4, 58, 0
12, 69274, Note_on_c, 4, 65, 0
12, 69300, Note_on_c, 4, 58, 51
12, 69300, Note_on_c, 4, 65, 35
12, 69300, Note_on_c, 4, 62, 44
12, 69394, Note_on_c, 4, 58, 0
12, 69397, Note_on_c, 4, 62, 0
12, 69411, Note_on_c, 4, 65, 0
12, 69420, Note_on_c, 4, 58, 43
12, 69420, Note_on_c, 4, 65, 37
12, 69420, Note_on_c, 4, 62, 37
12, 69435, Note_on_c, 4, 62, 0
12, 69448, Note_on_c, 4, 58, 0
12, 69455, Note_on_c, 4, 65, 0
12, 69480, Note_on_c, 4, 58, 43
12, 69480, Note_on_c, 4, 62, 49
12, 69480, Note_on_c, 4, 65, 40
12, 69555, Note_on_c, 4, 65, 0
12, 69555, Note_on_c, 4, 62, 0
12, 69576, Note_on_c, 4, 58, 0
12, 69600, Note_on_c, 4, 55, 54
12, 69600, Note_on_c, 4, 60, 40
12, 69600, Note_on_c, 4, 64, 53
12, 69631, Note_on_c, 4, 64, 0
12, 69632, Note_on_c, 4, 60, 0
12, 69633, Note_on_c, 4, 55, 0
12, 69660, Note_on_c, 4, 55, 43
12, 69660, Note_on_c, 4, 64, 43
12, 69663, Note_on_c, 4, 60, 43
12, 69700, Note_on_c, 4, 64, 0
12, 69700, Note_on_c, 4, 55, 0
12, 69703, Note_on_c, 4, 60, 0
12, 69720, Note_on_c, 4, 55, 48
12, 69720, Note_on_c, 4, 60, 43
12, 69720, Note_on_c, 4, 64, 48
12, 69737, Note_on_c, 4, 64, 0
12, 69741, Note_on_c, 4, 60, 0
12, 69748, Note_on_c, 4, 55, 0
12, 69780, Note_on_c, 4, 60, 43
12, 69780, Note_on_c, 4, 64, 49
12, 69780, Note_on_c, 4, 55, 43
12, 69872, Note_on_c, 4, 55, 0
12, 69873, Note_on_c, 4, 64, 0
12, 69874, Note_on_c, 4, 60, 0
12, 69900, Note_on_c, 4, 64, 39
12, 69900, Note_on_c, 4, 60, 37
12, 69900, Note_on_c, 4, 55, 37
12, 69925, Note_on_c, 4, 60, 0
12, 69926, Note_on_c, 4, 64, 0
12, 69930, Note_on_c, 4, 55, 0
12, 69960, Note_on_c, 4, 60, 43
12, 69960, Note_on_c, 4, 64, 47
12, 69960, Note_on_c, 4, 55, 39
12, 69986, Note_on_c, 4, 64, 0
12, 69987, Note_on_c, 4, 60, 0
12, 69990, Note_on_c, 4, 55, 0
12, 70020, Note_on_c, 4, 55, 33
12, 70020, Note_on_c, 4, 64, 39
12, 70020, Note_on_c, 4, 60, 38
12, 70036, Note_on_c, 4, 60, 0
12, 70039, Note_on_c, 4, 64, 0
12, 70051, Note_on_c, 4, 55, 0
12, 70140, Note_on_c, 4, 55, 42
12, 70140, Note_on_c, 4, 60, 40
12, 70140, Note_on_c, 4, 64, 45
12, 70160, Note_on_c, 4, 64, 0
12, 70161, Note_on_c, 4, 60, 0
12, 70168, Note_on_c, 4, 55, 0
12, 70200, Note_on_c, 4, 55, 40
12, 70200, Note_on_c, 4, 64, 43
12, 70200, Note_on_c, 4, 60, 35
12, 70213, Note_on_c, 4, 64, 0
12, 70215, Note_on_c, 4, 60, 0
12, 70226, Note_on_c, 4, 55, 0
12, 70260, Note_on_c, 4, 64, 45
12, 70260, Note_on_c, 4, 60, 43
12, 70260, Note_on_c, 4, 55, 41
12, 70352, Note_on_c, 4, 60, 0
12, 70353, Note_on_c, 4, 55, 0
12, 70354, Note_on_c, 4, 64, 0
12, 70380, Note_on_c, 4, 64, 35
12, 70380, Note_on_c, 4, 60, 33
12, 70380, Note_on_c, 4, 55, 33
12, 70400, Note_on_c, 4, 60, 0
12, 70404, Note_on_c, 4, 64, 0
12, 70408, Note_on_c, 4, 55, 0
12, 70440, Note_on_c, 4, 64, 48
12, 70440, Note_on_c, 4, 55, 40
12, 70440, Note_on_c, 4, 60, 41
12, 70463, Note_on_c, 4, 60, 0
12, 70466, Note_on_c, 4, 64, 0
12, 70468, Note_on_c, 4, 55, 0
12, 70500, Note_on_c, 4, 60, 40
12, 70500, Note_on_c, 4, 64, 42
12, 70500, Note_on_c, 4, 55, 38
12, 70522, Note_on_c, 4, 64, 0
12, 70524, Note_on_c, 4, 60, 0
12, 70530, Note_on_c, 4, 55, 0
12, 70560, Note_on_c, 4, 65, 37
12, 70560, Note_on_c, 4, 57, 38
12, 70560, Note_on_c, 4, 62, 38
12, 70592, Note_on_c, 4, 62, 0
12, 70594, Note_on_c, 4, 57, 0
12, 70600, Note_on_c, 4, 65, 0
12, 70623, Note_on_c, 4, 57, 37
12, 70623, Note_on_c, 4, 62, 37
12, 70623, Note_on_c, 4, 65, 37
12, 70663, Note_on_c, 4, 65, 0
12, 70663, Note_on_c, 4, 62, 0
12, 70663, Note_on_c, 4, 57, 0
12, 70680, Note_on_c, 4, 57, 36
12, 70680, Note_on_c, 4, 65, 32
12, 70680, Note_on_c, 4, 62, 33
12, 70691, Note_on_c, 4, 62, 0
12, 70701, Note_on_c, 4, 57, 0
12, 70710, Note_on_c, 4, 65, 0
12, 70740, Note_on_c, 4, 65, 29
12, 70740, Note_on_c, 4, 57, 37
12, 70740, Note_on_c, 4, 62, 39
12, 70842, Note_on_c, 4, 62, 0
12, 70843, Note_on_c, 4, 57, 0
12, 70846, Note_on_c, 4, 65, 0
12, 70860, Note_on_c, 4, 65, 28
12, 70860, Note_on_c, 4, 57, 30
12, 70860, Note_on_c, 4, 62, 30
12, 70888, Note_on_c, 4, 57, 0
12, 70890, Note_on_c, 4, 62, 0
12, 70899, Note_on_c, 4, 65, 0
12, 70920, Note_on_c, 4, 57, 38
12, 70920, Note_on_c, 4, 65, 37
12, 70920, Note_on_c, 4, 62, 32
12, 71004, Note_on_c, 4, 62, 0
12, 71010, Note_on_c, 4, 57, 0
12, 71014, Note_on_c, 4, 65, 0
12, 71040, Note_on_c, 4, 65, 32
12, 71040, Note_on_c, 4, 62, 36
12, 71040, Note_on_c, 4, 58, 38
12, 71063, Note_on_c, 4, 58, 0
12, 71067, Note_on_c, 4, 62, 0
12, 71074, Note_on_c, 4, 65, 0
12, 71103, Note_on_c, 4, 58, 33
12, 71106, Note_on_c, 4, 62, 33
12, 71106, Note_on_c, 4, 65, 33
12, 71143, Note_on_c, 4, 58, 0
12, 71146, Note_on_c, 4, 65, 0
12, 71146, Note_on_c, 4, 62, 0
12, 71160, Note_on_c, 4, 65, 30
12, 71160, Note_on_c, 4, 58, 35
12, 71160, Note_on_c, 4, 62, 36
12, 71187, Note_on_c, 4, 62, 0
12, 71188, Note_on_c, 4, 58, 0
12, 71194, Note_on_c, 4, 65, 0
12, 71220, Note_on_c, 4, 58, 37
12, 71220, Note_on_c, 4, 65, 25
12, 71220, Note_on_c, 4, 62, 32
12, 71314, Note_on_c, 4, 58, 0
12, 71317, Note_on_c, 4, 62, 0
12, 71331, Note_on_c, 4, 65, 0
12, 71340, Note_on_c, 4, 58, 31
12, 71340, Note_on_c, 4, 65, 27
12, 71340, Note_on_c, 4, 62, 26
12, 71355, Note_on_c, 4, 62, 0
12, 71368, Note_on_c, 4, 58, 0
12, 71375, Note_on_c, 4, 65, 0
12, 71400, Note_on_c, 4, 58, 31
12, 71400, Note_on_c, 4, 62, 36
12, 71400, Note_on_c, 4, 65, 29
12, 71475, Note_on_c, 4, 65, 0
12, 71475, Note_on_c, 4, 62, 0
12, 71496, Note_on_c, 4, 58, 0
12, 71520, Note_on_c, 4, 55, 39
12, 71520, Note_on_c, 4, 60, 29
12, 71520, Note_on_c, 4, 64, 39
12, 71551, Note_on_c, 4, 64, 0
12, 71552, Note_on_c, 4, 60, 0
12, 71553, Note_on_c, 4, 55, 0
12, 71580, Note_on_c, 4, 55, 30
12, 71580, Note_on_c, 4, 64, 30
12, 71583, Note_on_c, 4, 60, 30
12, 71620, Note_on_c, 4, 64, 0
12, 71620, Note_on_c, 4, 55, 0
12, 71623, Note_on_c, 4, 60, 0
12, 71640, Note_on_c, 4, 55, 33
12, 71640, Note_on_c, 4, 60, 30
12, 71640, Note_on_c, 4, 64, 33
12, 71657, Note_on_c, 4, 64, 0
12, 71661, Note_on_c, 4, 60, 0
12, 71668, Note_on_c, 4, 55, 0
12, 71700, Note_on_c, 4, 60, 31
12, 71700, Note_on_c, 4, 64, 35
12, 71700, Note_on_c, 4, 55, 31
12, 71792, Note_on_c, 4, 55, 0
12, 71793, Note_on_c, 4, 64, 0
12, 71794, Note_on_c, 4, 60, 0
12, 71820, Note_on_c, 4, 64, 27
12, 71820, Note_on_c, 4, 60, 26
12, 71820, Note_on_c, 4, 55, 26
12, 71845, Note_on_c, 4, 60, 0
12, 71846, Note_on_c, 4, 64, 0
12, 71850, Note_on_c, 4, 55, 0
12, 71880, Note_on_c, 4, 60, 30
12, 71880, Note_on_c, 4, 64, 32
12, 71880, Note_on_c, 4, 55, 27
12, 71906, Note_on_c, 4, 64, 0
12, 71907, Note_on_c, 4, 60, 0
12, 71910, Note_on_c, 4, 55, 0
12, 71940, Note_on_c, 4, 55, 22
12, 71940, Note_on_c, 4, 64, 27
12, 71940, Note_on_c, 4, 60, 26
12, 71956, Note_on_c, 4, 60, 0
12, 71959, Note_on_c, 4, 64, 0
12, 71971, Note_on_c, 4, 55, 0
12, 72060, Note_on_c, 4, 55, 28
12, 72060, Note_on_c, 4, 60, 27
12, 72060, Note_on_c, 4, 64, 31
12, 72080, Note_on_c, 4, 64, 0
12, 72081, Note_on_c, 4, 60, 0
12, 72088, Note_on_c, 4, 55, 0
12, 72120, Note_on_c, 4, 55, 28
12, 72120, Note_on_c, 4, 64, 30
12, 72120, Note_on_c, 4, 60, 24
12, 72133, Note_on_c, 4, 64, 0
12, 72135, Note_on_c, 4, 60, 0
12, 72146, Note_on_c, 4, 55, 0
12, 72180, Note_on_c, 4, 64, 30
12, 72180, Note_on_c, 4, 60, 29
12, 72180, Note_on_c, 4, 55, 28
12, 72272, Note_on_c, 4, 60, 0
12, 72273, Note_on_c, 4, 55, 0
12, 72274, Note_on_c, 4, 64, 0
12, 72300, Note_on_c, 4, 64, 24
12, 72300, Note_on_c, 4, 60, 22
12, 72300, Note_on_c, 4, 55, 22
12, 72320, Note_on_c, 4, 60, 0
12, 72324, Note_on_c, 4, 64, 0
12, 72328, Note_on_c, 4, 55, 0
12, 72360, Note_on_c, 4, 64, 31
12, 72360, Note_on_c, 4, 55, 27
12, 72360, Note_on_c, 4, 60, 27
12, 72383, Note_on_c, 4, 60, 0
12, 72386, Note_on_c, 4, 64, 0
12, 72388, Note_on_c, 4, 55, 0
12, 72420, Note_on_c, 4, 60, 27
12, 72420, Note_on_c, 4, 64, 28
12, 72420, Note_on_c, 4, 55, 26
12, 72442, Note_on_c, 4, 64, 0
12, 72444, Note_on_c, 4, 60, 0
12, 72450, Note_on_c, 4, 55, 0
12, 72480, Note_on_c, 4, 65, 25
12, 72480, Note_on_c, 4, 57, 26
12, 72480, Note_on_c, 4, 62, 26
12, 72512, Note_on_c, 4, 62, 0
12, 72514, Note_on_c, 4, 57, 0
12, 72520, Note_on_c, 4, 65, 0
12, 72543, Note_on_c, 4, 57, 24
12, 72543, Note_on_c, 4, 62, 24
12, 72543, Note_on_c, 4, 65, 24
12, 72583, Note_on_c, 4, 65, 0
12, 72583, Note_on_c, 4, 62, 0
12, 72583, Note_on_c, 4, 57, 0
12, 72600, Note_on_c, 4, 57, 24
12, 72600, Note_on_c, 4, 65, 21
12, 72600, Note_on_c, 4, 62, 22
12, 72611, Note_on_c, 4, 62, 0
12, 72621, Note_on_c, 4, 57, 0
12, 72630, Note_on_c, 4, 65, 0
12, 72660, Note_on_c, 4, 65, 19
12, 72660, Note_on_c, 4, 57, 24
12, 72660, Note_on_c, 4, 62, 25
12, 72762, Note_on_c, 4, 62, 0
12, 72763, Note_on_c, 4, 57, 0
12, 72766, Note_on_c, 4, 65, 0
12, 72780, Note_on_c, 4, 65, 18
12, 72780, Note_on_c, 4, 57, 19
12, 72780, Note_on_c, 4, 62, 19
12, 72808, Note_on_c, 4, 57, 0
12, 72810, Note_on_c, 4, 62, 0
12, 72819, Note_on_c, 4, 65, 0
12, 72840, Note_on_c, 4, 57, 24
12, 72840, Note_on_c, 4, 65, 24
12, 72840, Note_on_c, 4, 62, 20
12, 72924, Note_on_c, 4, 62, 0
12, 72930, Note_on_c, 4, 57, 0
12, 72934, Note_on_c, 4, 65, 0
12, 72960, Note_on_c, 4, 65, 20
12, 72960, Note_on_c, 4, 62, 22
12, 72960, Note_on_c, 4, 58, 24
12, 72983, Note_on_c, 4, 58, 0
12, 72987, Note_on_c, 4, 62, 0
12, 72994, Note_on_c, 4, 65, 0
12, 73023, Note_on_c, 4, 58, 20
12, 73026, Note_on_c, 4, 62, 20
12, 73026, Note_on_c, 4, 65, 20
12, 73063, Note_on_c, 4, 58, 0
12, 73066, Note_on_c, 4, 65, 0
12, 73066, Note_on_c, 4, 62, 0
12, 73080, Note_on_c, 4, 65, 19
12, 73080, Note_on_c, 4, 58, 22
12, 73080, Note_on_c, 4, 62, 22
12, 73107, Note_on_c, 4, 62, 0
12, 73108, Note_on_c, 4, 58, 0
12, 73114, Note_on_c, 4, 65, 0
12, 73140, Note_on_c, 4, 58, 22
12, 73140, Note_on_c, 4, 65, 15
12, 73140, Note_on_c, 4, 62, 20
12, 73234, Note_on_c, 4, 58, 0
12, 73237, Note_on_c, 4, 62, 0
12, 73251, Note_on_c, 4, 65, 0
12, 73260, Note_on_c, 4, 58, 19
12, 73260, Note_on_c, 4, 65, 16
12, 73260, Note_on_c, 4, 62, 16
12, 73275, Note_on_c, 4, 62, 0
12, 73288, Note_on_c, 4, 58, 0
12, 73295, Note_on_c, 4, 65, 0
12, 73320, Note_on_c, 4, 58, 18
12, 73320, Note_on_c, 4, 62, 21
12, 73320, Note_on_c, 4, 65, 17
12, 73395, Note_on_c, 4, 65, 0
12, 73395, Note_on_c, 4, 62, 0
12, 73416, Note_on_c, 4, 58, 0
12, 73440, Note_on_c, 4, 55, 22
12, 73440, Note_on_c, 4, 60, 17
12, 73440, Note_on_c, 4, 64, 22
12, 73471, Note_on_c, 4, 64, 0
12, 73472, Note_on_c, 4, 60, 0
12, 73473, Note_on_c, 4, 55, 0
12, 73500, Note_on_c, 4, 55, 18
12, 73500, Note_on_c, 4, 64, 18
12, 73503, Note_on_c, 4, 60, 18
12, 73540, Note_on_c, 4, 64, 0
12, 73540, Note_on_c, 4, 55, 0
12, 73543, Note_on_c, 4, 60, 0
12, 73560, Note_on_c, 4, 55, 19
12, 73560, Note_on_c, 4, 60, 18
12, 73560, Note_on_c, 4, 64, 20
12, 73577, Note_on_c, 4, 64, 0
12, 73581, Note_on_c, 4, 60, 0
12, 73588, Note_on_c, 4, 55, 0
12, 73620, Note_on_c, 4, 60, 18
12, 73620, Note_on_c, 4, 64, 20
12, 73620, Note_on_c, 4, 55, 18
12, 73712, Note_on_c, 4, 55, 0
12, 73713, Note_on_c, 4, 64, 0
12, 73714, Note_on_c, 4, 60, 0
12, 73740, Note_on_c, 4, 64, 15
12, 73740, Note_on_c, 4, 60, 15
12, 73740, Note_on_c, 4, 55, 15
12, 73765, Note_on_c, 4, 60, 0
12, 73766, Note_on_c, 4, 64, 0
12, 73770, Note_on_c, 4, 55, 0
12, 73800, Note_on_c, 4, 60, 17
12, 73800, Note_on_c, 4, 64, 18
12, 73800, Note_on_c, 4, 55, 16
12, 73826, Note_on_c, 4, 64, 0
12, 73827, Note_on_c, 4, 60, 0
12, 73830, Note_on_c, 4, 55, 0
12, 73860, Note_on_c, 4, 55, 13
12, 73860, Note_on_c, 4, 64, 15
12, 73860, Note_on_c, 4, 60, 15
12, 73876, Note_on_c, 4, 60, 0
12, 73879, Note_on_c, 4, 64, 0
12, 73891, Note_on_c, 4, 55, 0
12, 73980, Note_on_c, 4, 55, 14
12, 73980, Note_on_c, 4, 60, 13
12, 73980, Note_on_c, 4, 64, 15
12, 74000, Note_on_c, 4, 64, 0
12, 74001, Note_on_c, 4, 60, 0
12, 74008, Note_on_c, 4, 55, 0
12, 74040, Note_on_c, 4, 55, 11
12, 74040, Note_on_c, 4, 64, 13
12, 74040, Note_on_c, 4, 60, 10
12, 74053, Note_on_c, 4, 64, 0
12, 74055, Note_on_c, 4, 60, 0
12, 74066, Note_on_c, 4, 55, 0
12, 74100, Note_on_c, 4, 64, 11
12, 74100, Note_on_c, 4, 60, 10
12, 74100, Note_on_c, 4, 55, 10
12, 74192, Note_on_c, 4, 60, 0
12, 74193, Note_on_c, 4, 55, 0
12, 74194, Note_on_c, 4, 64, 0
12, 74220, Note_on_c, 4, 64, 7
12, 74220, Note_on_c, 4, 60, 7
12, 74220, Note_on_c, 4, 55, 7
12, 74240, Note_on_c, 4, 60, 0
12, 74244, Note_on_c, 4, 64, 0
12, 74248, Note_on_c, 4, 55, 0
12, 74280, Note_on_c, 4, 64, 10
12, 74280, Note_on_c, 4, 55, 8
12, 74280, Note_on_c, 4, 60, 8
12, 74303, Note_on_c, 4, 60, 0
12, 74306, Note_on_c, 4, 64, 0
12, 74308, Note_on_c, 4, 55, 0
12, 74340, Note_on_c, 4, 60, 7
12, 74340, Note_on_c, 4, 64, 7
12, 74340, Note_on_c, 4, 55, 6
12, 74362, Note_on_c, 4, 64, 0
12, 74364, Note_on_c, 4, 60, 0
12, 74370, Note_on_c, 4, 55, 0
12, 74400, Note_on_c, 4, 65, 5
12, 74400, Note_on_c, 4, 57, 6
12, 74400, Note_on_c, 4, 62, 6
12, 74432, Note_on_c, 4, 62, 0
12, 74434, Note_on_c, 4, 57, 0
12, 74440, Note_on_c, 4, 65, 0
12, 74463, Note_on_c, 4, 57, 5
12, 74463, Note_on_c, 4, 62, 5
12, 74463, Note_on_c, 4, 65, 5
12, 74503, Note_on_c, 4, 65, 0
12, 74503, Note_on_c, 4, 62, 0
12, 74503, Note_on_c, 4, 57, 0
12, 74520, Note_on_c, 4, 57, 5
12, 74520, Note_on_c, 4, 65, 4
12, 74520, Note_on_c, 4, 62, 4
12, 74531, Note_on_c, 4, 62, 0
12, 74541, Note_on_c, 4, 57, 0
12, 74550, Note_on_c, 4, 65, 0
12, 74580, Note_on_c, 4, 65, 3
12, 74580, Note_on_c, 4, 57, 4
12, 74580, Note_on_c, 4, 62, 4
12, 74682, Note_on_c, 4, 62, 0
12, 74683, Note_on_c, 4, 57, 0
12, 74686, Note_on_c, 4, 65, 0
12, 74700, Note_on_c, 4, 65, 2
12, 74700, Note_on_c, 4, 57, 2
12, 74700, Note_on_c, 4, 62, 2
12, 74728, Note_on_c, 4, 57, 0
12, 74730, Note_on_c, 4, 62, 0
12, 74739, Note_on_c, 4, 65, 0
12, 74760, Note_on_c, 4, 57, 3
12, 74760, Note_on_c, 4, 65, 3
12, 74760, Note_on_c, 4, 62, 2
12, 74844, Note_on_c, 4, 62, 0
12, 74850, Note_on_c, 4, 57, 0
12, 74854, Note_on_c, 4, 65, 0
12, 74880, Note_on_c, 4, 65, 2
12, 74880, Note_on_c, 4, 62, 2
12, 74880, Note_on_c, 4, 58, 2
12, 74903, Note_on_c, 4, 58, 0
12, 74907, Note_on_c, 4, 62, 0
12, 74914, Note_on_c, 4, 65, 0
12, 74943, Note_on_c, 4, 58, 1
12, 74946, Note_on_c, 4, 62, 1
12, 74946, Note_on_c, 4, 65, 1
12, 74983, Note_on_c, 4, 58, 0
12, 74986, Note_on_c, 4, 65, 0
12, 74986, Note_on_c, 4, 62, 0
12, 75000, Note_on_c, 4, 65, 1
12, 75000, Note_on_c, 4, 58, 1
12, 75000, Note_on_c, 4, 62, 1
12, 75027, Note_on_c, 4, 62, 0
12, 75028, Note_on_c, 4, 58, 0
12, 75034, Note_on_c, 4, 65, 0
12, 75060, Note_on_c, 4, 58, 1
12, 75060, Note_on_c, 4, 65, 1
12, 75060, Note_on_c, 4, 62, 1
12, 75154, Note_on_c, 4, 58, 0
12, 75157, Note_on_c, 4, 62, 0
12, 75171, Note_on_c, 4, 65, 0
12, 75171, End_track
13, 0, Start_track
13, 31, Control_c, 5, 1, 0
13, 62, Control_c, 5, 64, 0
13, 93, Control_c, 5, 11, 127
13, 124, Pitch_bend_c, 5, 8192
13, 145, Control_c, 5, 0, 0
13, 146, Control_c, 5, 32, 3
13, 147, Program_c, 5, 26
13, 148, Control_c, 5, 7, 85
13, 148, Control_c, 5, 10, 44
13, 189, Control_c, 5, 0, 0
13, 190, Control_c, 5, 32, 0
13, 191, Program_c, 5, 26
13, 194, Control_c, 5, 0, 0
13, 195, Control_c, 5, 32, 3
13, 196, Program_c, 5, 26
13, 214, Control_c, 5, 99, 1
13, 215, Control_c, 5, 98, 102
13, 216, Control_c, 5, 6, 72
13, 217, Control_c, 5, 38, 0
13, 307, Control_c, 5, 99, 1
13, 308, Control_c, 5, 98, 32
13, 309, Control_c, 5, 6, 68
13, 310, Control_c, 5, 38, 0
13, 403, Control_c, 5, 91, 70
13, 434, Control_c, 5, 93, 16
13, 465, Control_c, 5, 94, 0
13, 960, Note_on_c, 5, 53, 49
13, 960, Note_on_c, 5, 57, 49
13, 1029, Note_on_c, 5, 57, 0
13, 1032, Note_on_c, 5, 53, 0
13, 1140, Note_on_c, 5, 57, 45
13, 1140, Note_on_c, 5, 53, 45
13, 1322, Note_on_c, 5, 53, 0
13, 1329, Note_on_c, 5, 57, 0
13, 1440, Note_on_c, 5, 53, 45
13, 1440, Note_on_c, 5, 57, 45
13, 1477, Note_on_c, 5, 57, 0
13, 1485, Note_on_c, 5, 53, 0
13, 1620, Note_on_c, 5, 53, 47
13, 1620, Note_on_c, 5, 57, 47
13, 1863, Note_on_c, 5, 53, 0
13, 1874, Note_on_c, 5, 57, 0
13, 1920, Note_on_c, 5, 57, 47
13, 1920, Note_on_c, 5, 53, 47
13, 1951, Note_on_c, 5, 53, 0
13, 1951, Note_on_c, 5, 57, 0
13, 2100, Note_on_c, 5, 53, 48
13, 2100, Note_on_c, 5, 57, 48
13, 2355, Note_on_c, 5, 57, 0
13, 2355, Note_on_c, 5, 53, 0
13, 2400, Note_on_c, 5, 53, 57
13, 2400, Note_on_c, 5, 57, 59
13, 2426, Note_on_c, 5, 53, 0
13, 2431, Note_on_c, 5, 57, 0
13, 2580, Note_on_c, 5, 53, 55
13, 2580, Note_on_c, 5, 57, 50
13, 2822, Note_on_c, 5, 57, 0
13, 2826, Note_on_c, 5, 53, 0
13, 2880, Note_on_c, 5, 53, 57
13, 2880, Note_on_c, 5, 57, 59
13, 2906, Note_on_c, 5, 53, 0
13, 2911, Note_on_c, 5, 57, 0
13, 3060, Note_on_c, 5, 53, 55
13, 3060, Note_on_c, 5, 57, 50
13, 3302, Note_on_c, 5, 57, 0
13, 3306, Note_on_c, 5, 53, 0
13, 3420, Note_on_c, 5, 60, 73
13, 3420, Note_on_c, 5, 55, 70
13, 3420, Note_on_c, 5, 58, 51
13, 3430, Note_on_c, 5, 58, 0
13, 3433, Note_on_c, 5, 55, 0
13, 3444, Note_on_c, 5, 60, 0
13, 3480, Note_on_c, 5, 60, 66
13, 3480, Note_on_c, 5, 55, 66
13, 3480, Note_on_c, 5, 58, 53
13, 3493, Note_on_c, 5, 58, 0
13, 3495, Note_on_c, 5, 55, 0
13, 3503, Note_on_c, 5, 60, 0
13, 3540, Note_on_c, 5, 60, 57
13, 3540, Note_on_c, 5, 58, 56
13, 3540, Note_on_c, 5, 55, 64
13, 3553, Note_on_c, 5, 55, 0
13, 3558, Note_on_c, 5, 58, 0
13, 3558, Note_on_c, 5, 60, 0
13, 3600, Note_on_c, 5, 55, 66
13, 3600, Note_on_c, 5, 58, 59
13, 3600, Note_on_c, 5, 60, 57
13, 3614, Note_on_c, 5, 55, 0
13, 3616, Note_on_c, 5, 60, 0
13, 3622, Note_on_c, 5, 58, 0
13, 3660, Note_on_c, 5, 60, 75
13, 3660, Note_on_c, 5, 55, 75
13, 3660, Note_on_c, 5, 58, 75
13, 3673, Note_on_c, 5, 55, 0
13, 3676, Note_on_c, 5, 58, 0
13, 3677, Note_on_c, 5, 60, 0
13, 3720, Note_on_c, 5, 60, 82
13, 3720, Note_on_c, 5, 58, 82
13, 3720, Note_on_c, 5, 55, 82
13, 3753, Note_on_c, 5, 58, 0
13, 3780, Note_on_c, 5, 58, 66
13, 3795, Note_on_c, 5, 55, 0
13, 3801, Note_on_c, 5, 60, 0
13, 3816, Note_on_c, 5, 58, 0
13, 3840, Note_on_c, 5, 58, 57
13, 3840, Note_on_c, 5, 53, 60
13, 3840, Note_on_c, 5, 62, 64
13, 3985, Note_on_c, 5, 53, 0
13, 3985, Note_on_c, 5, 58, 0
13, 3986, Note_on_c, 5, 62, 0
13, 4020, Note_on_c, 5, 58, 67
13, 4020, Note_on_c, 5, 53, 62
13, 4020, Note_on_c, 5, 62, 70
13, 4249, Note_on_c, 5, 62, 0
13, 4250, Note_on_c, 5, 53, 0
13, 4256, Note_on_c, 5, 58, 0
13, 4320, Note_on_c, 5, 58, 70
13, 4320, Note_on_c, 5, 53, 56
13, 4320, Note_on_c, 5, 62, 72
13, 4466, Note_on_c, 5, 62, 0
13, 4469, Note_on_c, 5, 53, 0
13, 4474, Note_on_c, 5, 58, 0
13, 4500, Note_on_c, 5, 53, 67
13, 4500, Note_on_c, 5, 58, 68
13, 4500, Note_on_c, 5, 62, 65
13, 4733, Note_on_c, 5, 53, 0
13, 4735, Note_on_c, 5, 58, 0
13, 4742, Note_on_c, 5, 62, 0
13, 4800, Note_on_c, 5, 58, 56
13, 4800, Note_on_c, 5, 53, 53
13, 4800, Note_on_c, 5, 62, 49
13, 4937, Note_on_c, 5, 53, 0
13, 4938, Note_on_c, 5, 58, 0
13, 4942, Note_on_c, 5, 62, 0
13, 4980, Note_on_c, 5, 58, 70
13, 4980, Note_on_c, 5, 53, 62
13, 4980, Note_on_c, 5, 62, 63
13, 5197, Note_on_c, 5, 53, 0
13, 5202, Note_on_c, 5, 58, 0
13, 5206, Note_on_c, 5, 62, 0
13, 5280, Note_on_c, 5, 57, 59
13, 5280, Note_on_c, 5, 53, 56
13, 5353, Note_on_c, 5, 53, 0
13, 5356, Note_on_c, 5, 57, 0
13, 5400, Note_on_c, 5, 62, 70
13, 5400, Note_on_c, 5, 58, 41
13, 5460, Note_on_c, 5, 58, 0
13, 5460, Note_on_c, 5, 62, 0
13, 5460, Note_on_c, 5, 60, 77
13, 5460, Note_on_c, 5, 53, 53
13, 5460, Note_on_c, 5, 57, 59
13, 5709, Note_on_c, 5, 60, 0
13, 5715, Note_on_c, 5, 57, 0
13, 5715, Note_on_c, 5, 53, 0
13, 5760, Note_on_c, 5, 53, 57
13, 5760, Note_on_c, 5, 57, 59
13, 5843, Note_on_c, 5, 53, 0
13, 5853, Note_on_c, 5, 57, 0
13, 5880, Note_on_c, 5, 62, 55
13, 5940, Note_on_c, 5, 53, 55
13, 5940, Note_on_c, 5, 57, 50
13, 5940, Note_on_c, 5, 60, 52
13, 5946, Note_on_c, 5, 62, 0
13, 6167, Note_on_c, 5, 60, 0
13, 6182, Note_on_c, 5, 57, 0
13, 6186, Note_on_c, 5, 53, 0
13, 6240, Note_on_c, 5, 57, 59
13, 6240, Note_on_c, 5, 53, 56
13, 6303, Note_on_c, 5, 53, 0
13, 6310, Note_on_c, 5, 57, 0
13, 6360, Note_on_c, 5, 62, 69
13, 6360, Note_on_c, 5, 58, 50
13, 6420, Note_on_c, 5, 60, 74
13, 6420, Note_on_c, 5, 53, 53
13, 6420, Note_on_c, 5, 57, 59
13, 6424, Note_on_c, 5, 62, 0
13, 6431, Note_on_c, 5, 58, 0
13, 6667, Note_on_c, 5, 60, 0
13, 6675, Note_on_c, 5, 53, 0
13, 6675, Note_on_c, 5, 57, 0
13, 6720, Note_on_c, 5, 53, 57
13, 6720, Note_on_c, 5, 57, 59
13, 6793, Note_on_c, 5, 57, 0
13, 6796, Note_on_c, 5, 53, 0
13, 6840, Note_on_c, 5, 62, 63
13, 6840, Note_on_c, 5, 58, 45
13, 6900, Note_on_c, 5, 60, 71
13, 6900, Note_on_c, 5, 53, 55
13, 6900, Note_on_c, 5, 57, 50
13, 6903, Note_on_c, 5, 58, 0
13, 6913, Note_on_c, 5, 62, 0
13, 7142, Note_on_c, 5, 57, 0
13, 7146, Note_on_c, 5, 53, 0
13, 7149, Note_on_c, 5, 60, 0
13, 7200, Note_on_c, 5, 53, 57
13, 7200, Note_on_c, 5, 57, 59
13, 7303, Note_on_c, 5, 57, 0
13, 7316, Note_on_c, 5, 53, 0
13, 7320, Note_on_c, 5, 62, 67
13, 7320, Note_on_c, 5, 58, 45
13, 7379, Note_on_c, 5, 58, 0
13, 7380, Note_on_c, 5, 53, 55
13, 7380, Note_on_c, 5, 57, 50
13, 7380, Note_on_c, 5, 60, 65
13, 7386, Note_on_c, 5, 62, 0
13, 7608, Note_on_c, 5, 60, 0
13, 7622, Note_on_c, 5, 57, 0
13, 7626, Note_on_c, 5, 53, 0
13, 7740, Note_on_c, 5, 60, 73
13, 7740, Note_on_c, 5, 55, 70
13, 7740, Note_on_c, 5, 58, 51
13, 7750, Note_on_c, 5, 58, 0
13, 7753, Note_on_c, 5, 55, 0
13, 7764, Note_on_c, 5, 60, 0
13, 7800, Note_on_c, 5, 60, 66
13, 7800, Note_on_c, 5, 55, 66
13, 7800, Note_on_c, 5, 58, 53
13, 7813, Note_on_c, 5, 58, 0
13, 7815, Note_on_c, 5, 55, 0
13, 7823, Note_on_c, 5, 60, 0
13, 7860, Note_on_c, 5, 60, 57
13, 7860, Note_on_c, 5, 58, 56
13, 7860, Note_on_c, 5, 55, 64
13, 7873, Note_on_c, 5, 55, 0
13, 7878, Note_on_c, 5, 58, 0
13, 7878, Note_on_c, 5, 60, 0
13, 7920, Note_on_c, 5, 55, 66
13, 7920, Note_on_c, 5, 58, 59
13, 7920, Note_on_c, 5, 60, 57
13, 7934, Note_on_c, 5, 55, 0
13, 7936, Note_on_c, 5, 60, 0
13, 7942, Note_on_c, 5, 58, 0
13, 7980, Note_on_c, 5, 60, 75
13, 7980, Note_on_c, 5, 55, 75
13, 7980, Note_on_c, 5, 58, 75
13, 7993, Note_on_c, 5, 55, 0
13, 7996, Note_on_c, 5, 58, 0
13, 7997, Note_on_c, 5, 60, 0
13, 8040, Note_on_c, 5, 58, 82
13, 8040, Note_on_c, 5, 60, 82
13, 8040, Note_on_c, 5, 55, 82
13, 8115, Note_on_c, 5, 55, 0
13, 8117, Note_on_c, 5, 58, 0
13, 8121, Note_on_c, 5, 60, 0
13, 8160, Note_on_c, 5, 62, 64
13, 8160, Note_on_c, 5, 53, 60
13, 8160, Note_on_c, 5, 58, 57
13, 8305, Note_on_c, 5, 58, 0
13, 8305, Note_on_c, 5, 53, 0
13, 8306, Note_on_c, 5, 62, 0
13, 8340, Note_on_c, 5, 58, 67
13, 8340, Note_on_c, 5, 53, 62
13, 8340, Note_on_c, 5, 62, 70
13, 8569, Note_on_c, 5, 62, 0
13, 8570, Note_on_c, 5, 53, 0
13, 8576, Note_on_c, 5, 58, 0
13, 8640, Note_on_c, 5, 58, 70
13, 8640, Note_on_c, 5, 53, 56
13, 8640, Note_on_c, 5, 62, 72
13, 8786, Note_on_c, 5, 62, 0
13, 8789, Note_on_c, 5, 53, 0
13, 8794, Note_on_c, 5, 58, 0
13, 8820, Note_on_c, 5, 53, 67
13, 8820, Note_on_c, 5, 58, 68
13, 8820, Note_on_c, 5, 62, 65
13, 9053, Note_on_c, 5, 53, 0
13, 9055, Note_on_c, 5, 58, 0
13, 9062, Note_on_c, 5, 62, 0
13, 9120, Note_on_c, 5, 58, 56
13, 9120, Note_on_c, 5, 53, 53
13, 9120, Note_on_c, 5, 62, 49
13, 9257, Note_on_c, 5, 53, 0
13, 9258, Note_on_c, 5, 58, 0
13, 9262, Note_on_c, 5, 62, 0
13, 9300, Note_on_c, 5, 58, 70
13, 9300, Note_on_c, 5, 53, 62
13, 9300, Note_on_c, 5, 62, 63
13, 9517, Note_on_c, 5, 53, 0
13, 9522, Note_on_c, 5, 58, 0
13, 9526, Note_on_c, 5, 62, 0
13, 9600, Note_on_c, 5, 57, 59
13, 9600, Note_on_c, 5, 53, 56
13, 9703, Note_on_c, 5, 57, 0
13, 9740, Note_on_c, 5, 53, 0
13, 9780, Note_on_c, 5, 53, 53
13, 9780, Note_on_c, 5, 57, 59
13, 10035, Note_on_c, 5, 57, 0
13, 10035, Note_on_c, 5, 53, 0
13, 10080, Note_on_c, 5, 62, 65
13, 10080, Note_on_c, 5, 57, 67
13, 10080, Note_on_c, 5, 53, 59
13, 10097, Note_on_c, 5, 53, 0
13, 10106, Note_on_c, 5, 57, 0
13, 10107, Note_on_c, 5, 62, 0
13, 10200, Note_on_c, 5, 53, 58
13, 10200, Note_on_c, 5, 62, 56
13, 10200, Note_on_c, 5, 57, 66
13, 10219, Note_on_c, 5, 57, 0
13, 10220, Note_on_c, 5, 53, 0
13, 10227, Note_on_c, 5, 62, 0
13, 10320, Note_on_c, 5, 57, 66
13, 10320, Note_on_c, 5, 62, 50
13, 10320, Note_on_c, 5, 53, 55
13, 10526, Note_on_c, 5, 53, 0
13, 10530, Note_on_c, 5, 57, 0
13, 10540, Note_on_c, 5, 62, 0
13, 10560, Note_on_c, 5, 58, 58
13, 10560, Note_on_c, 5, 53, 58
13, 10582, Note_on_c, 5, 53, 0
13, 10588, Note_on_c, 5, 58, 0
13, 10680, Note_on_c, 5, 62, 63
13, 10680, Note_on_c, 5, 58, 66
13, 10680, Note_on_c, 5, 53, 59
13, 10713, Note_on_c, 5, 62, 0
13, 10714, Note_on_c, 5, 53, 0
13, 10715, Note_on_c, 5, 58, 0
13, 10800, Note_on_c, 5, 53, 55
13, 10800, Note_on_c, 5, 62, 55
13, 10800, Note_on_c, 5, 58, 58
13, 11014, Note_on_c, 5, 58, 0
13, 11019, Note_on_c, 5, 53, 0
13, 11022, Note_on_c, 5, 62, 0
13, 11040, Note_on_c, 5, 60, 57
13, 11040, Note_on_c, 5, 55, 57
13, 11040, Note_on_c, 5, 52, 57
13, 11053, Note_on_c, 5, 55, 0
13, 11054, Note_on_c, 5, 52, 0
13, 11065, Note_on_c, 5, 60, 0
13, 11160, Note_on_c, 5, 55, 57
13, 11160, Note_on_c, 5, 60, 57
13, 11160, Note_on_c, 5, 52, 53
13, 11172, Note_on_c, 5, 52, 0
13, 11172, Note_on_c, 5, 55, 0
13, 11178, Note_on_c, 5, 60, 0
13, 11280, Note_on_c, 5, 60, 47
13, 11280, Note_on_c, 5, 55, 57
13, 11280, Note_on_c, 5, 52, 57
13, 11479, Note_on_c, 5, 52, 0
13, 11483, Note_on_c, 5, 55, 0
13, 11484, Note_on_c, 5, 60, 0
13, 11520, Note_on_c, 5, 60, 54
13, 11520, Note_on_c, 5, 55, 44
13, 11520, Note_on_c, 5, 52, 50
13, 11538, Note_on_c, 5, 52, 0
13, 11550, Note_on_c, 5, 55, 0
13, 11557, Note_on_c, 5, 60, 0
13, 11640, Note_on_c, 5, 60, 70
13, 11640, Note_on_c, 5, 55, 62
13, 11640, Note_on_c, 5, 52, 59
13, 11668, Note_on_c, 5, 55, 0
13, 11673, Note_on_c, 5, 52, 0
13, 11674, Note_on_c, 5, 60, 0
13, 11760, Note_on_c, 5, 55, 60
13, 11760, Note_on_c, 5, 60, 46
13, 11760, Note_on_c, 5, 52, 59
13, 11950, Note_on_c, 5, 52, 0
13, 11957, Note_on_c, 5, 55, 0
13, 11964, Note_on_c, 5, 60, 0
13, 12000, Note_on_c, 5, 62, 65
13, 12000, Note_on_c, 5, 57, 67
13, 12000, Note_on_c, 5, 53, 59
13, 12017, Note_on_c, 5, 53, 0
13, 12026, Note_on_c, 5, 57, 0
13, 12027, Note_on_c, 5, 62, 0
13, 12120, Note_on_c, 5, 53, 58
13, 12120, Note_on_c, 5, 62, 56
13, 12120, Note_on_c, 5, 57, 66
13, 12139, Note_on_c, 5, 57, 0
13, 12140, Note_on_c, 5, 53, 0
13, 12147, Note_on_c, 5, 62, 0
13, 12240, Note_on_c, 5, 57, 66
13, 12240, Note_on_c, 5, 62, 50
13, 12240, Note_on_c, 5, 53, 55
13, 12446, Note_on_c, 5, 53, 0
13, 12450, Note_on_c, 5, 57, 0
13, 12460, Note_on_c, 5, 62, 0
13, 12480, Note_on_c, 5, 58, 58
13, 12480, Note_on_c, 5, 53, 58
13, 12502, Note_on_c, 5, 53, 0
13, 12508, Note_on_c, 5, 58, 0
13, 12600, Note_on_c, 5, 62, 63
13, 12600, Note_on_c, 5, 58, 66
13, 12600, Note_on_c, 5, 53, 59
13, 12633, Note_on_c, 5, 62, 0
13, 12634, Note_on_c, 5, 53, 0
13, 12635, Note_on_c, 5, 58, 0
13, 12720, Note_on_c, 5, 53, 55
13, 12720, Note_on_c, 5, 62, 55
13, 12720, Note_on_c, 5, 58, 58
13, 12934, Note_on_c, 5, 58, 0
13, 12939, Note_on_c, 5, 53, 0
13, 12942, Note_on_c, 5, 62, 0
13, 12960, Note_on_c, 5, 60, 57
13, 12960, Note_on_c, 5, 55, 57
13, 12960, Note_on_c, 5, 52, 57
13, 12973, Note_on_c, 5, 55, 0
13, 12974, Note_on_c, 5, 52, 0
13, 12985, Note_on_c, 5, 60, 0
13, 13080, Note_on_c, 5, 55, 57
13, 13080, Note_on_c, 5, 60, 57
13, 13080, Note_on_c, 5, 52, 53
13, 13092, Note_on_c, 5, 52, 0
13, 13092, Note_on_c, 5, 55, 0
13, 13098, Note_on_c, 5, 60, 0
13, 13200, Note_on_c, 5, 60, 47
13, 13200, Note_on_c, 5, 55, 57
13, 13200, Note_on_c, 5, 52, 57
13, 13399, Note_on_c, 5, 52, 0
13, 13403, Note_on_c, 5, 55, 0
13, 13404, Note_on_c, 5, 60, 0
13, 13440, Note_on_c, 5, 60, 54
13, 13440, Note_on_c, 5, 55, 44
13, 13440, Note_on_c, 5, 52, 50
13, 13458, Note_on_c, 5, 52, 0
13, 13470, Note_on_c, 5, 55, 0
13, 13477, Note_on_c, 5, 60, 0
13, 13560, Note_on_c, 5, 60, 70
13, 13560, Note_on_c, 5, 55, 62
13, 13560, Note_on_c, 5, 52, 59
13, 13588, Note_on_c, 5, 55, 0
13, 13593, Note_on_c, 5, 52, 0
13, 13594, Note_on_c, 5, 60, 0
13, 13680, Note_on_c, 5, 55, 60
13, 13680, Note_on_c, 5, 60, 46
13, 13680, Note_on_c, 5, 52, 59
13, 13870, Note_on_c, 5, 52, 0
13, 13877, Note_on_c, 5, 55, 0
13, 13884, Note_on_c, 5, 60, 0
13, 13920, Note_on_c, 5, 62, 65
13, 13920, Note_on_c, 5, 57, 67
13, 13920, Note_on_c, 5, 53, 59
13, 13937, Note_on_c, 5, 53, 0
13, 13946, Note_on_c, 5, 57, 0
13, 13947, Note_on_c, 5, 62, 0
13, 14040, Note_on_c, 5, 53, 58
13, 14040, Note_on_c, 5, 62, 56
13, 14040, Note_on_c, 5, 57, 66
13, 14059, Note_on_c, 5, 57, 0
13, 14060, Note_on_c, 5, 53, 0
13, 14067, Note_on_c, 5, 62, 0
13, 14160, Note_on_c, 5, 57, 66
13, 14160, Note_on_c, 5, 62, 50
13, 14160, Note_on_c, 5, 53, 55
13, 14366, Note_on_c, 5, 53, 0
13, 14370, Note_on_c, 5, 57, 0
13, 14380, Note_on_c, 5, 62, 0
13, 14400, Note_on_c, 5, 58, 58
13, 14400, Note_on_c, 5, 53, 58
13, 14422, Note_on_c, 5, 53, 0
13, 14428, Note_on_c, 5, 58, 0
13, 14520, Note_on_c, 5, 62, 63
13, 14520, Note_on_c, 5, 58, 66
13, 14520, Note_on_c, 5, 53, 59
13, 14553, Note_on_c, 5, 62, 0
13, 14554, Note_on_c, 5, 53, 0
13, 14555, Note_on_c, 5, 58, 0
13, 14640, Note_on_c, 5, 53, 55
13, 14640, Note_on_c, 5, 62, 55
13, 14640, Note_on_c, 5, 58, 58
13, 14854, Note_on_c, 5, 58, 0
13, 14859, Note_on_c, 5, 53, 0
13, 14862, Note_on_c, 5, 62, 0
13, 14880, Note_on_c, 5, 60, 57
13, 14880, Note_on_c, 5, 55, 57
13, 14880, Note_on_c, 5, 52, 57
13, 14893, Note_on_c, 5, 55, 0
13, 14894, Note_on_c, 5, 52, 0
13, 14905, Note_on_c, 5, 60, 0
13, 15000, Note_on_c, 5, 55, 57
13, 15000, Note_on_c, 5, 60, 57
13, 15000, Note_on_c, 5, 52, 53
13, 15012, Note_on_c, 5, 52, 0
13, 15012, Note_on_c, 5, 55, 0
13, 15018, Note_on_c, 5, 60, 0
13, 15120, Note_on_c, 5, 60, 47
13, 15120, Note_on_c, 5, 55, 57
13, 15120, Note_on_c, 5, 52, 57
13, 15319, Note_on_c, 5, 52, 0
13, 15323, Note_on_c, 5, 55, 0
13, 15324, Note_on_c, 5, 60, 0
13, 15360, Note_on_c, 5, 60, 54
13, 15360, Note_on_c, 5, 55, 44
13, 15360, Note_on_c, 5, 52, 50
13, 15378, Note_on_c, 5, 52, 0
13, 15390, Note_on_c, 5, 55, 0
13, 15397, Note_on_c, 5, 60, 0
13, 15480, Note_on_c, 5, 60, 70
13, 15480, Note_on_c, 5, 55, 62
13, 15480, Note_on_c, 5, 52, 59
13, 15508, Note_on_c, 5, 55, 0
13, 15513, Note_on_c, 5, 52, 0
13, 15514, Note_on_c, 5, 60, 0
13, 15600, Note_on_c, 5, 55, 60
13, 15600, Note_on_c, 5, 60, 46
13, 15600, Note_on_c, 5, 52, 59
13, 15790, Note_on_c, 5, 52, 0
13, 15797, Note_on_c, 5, 55, 0
13, 15804, Note_on_c, 5, 60, 0
13, 15840, Note_on_c, 5, 57, 59
13, 15840, Note_on_c, 5, 53, 56
13, 15871, Note_on_c, 5, 53, 0
13, 15871, Note_on_c, 5, 57, 0
13, 16020, Note_on_c, 5, 53, 53
13, 16020, Note_on_c, 5, 57, 59
13, 16275, Note_on_c, 5, 57, 0
13, 16275, Note_on_c, 5, 53, 0
13, 16320, Note_on_c, 5, 53, 57
13, 16320, Note_on_c, 5, 57, 59
13, 16346, Note_on_c, 5, 53, 0
13, 16351, Note_on_c, 5, 57, 0
13, 16500, Note_on_c, 5, 53, 55
13, 16500, Note_on_c, 5, 57, 50
13, 16742, Note_on_c, 5, 57, 0
13, 16746, Note_on_c, 5, 53, 0
13, 16800, Note_on_c, 5, 53, 57
13, 16800, Note_on_c, 5, 57, 59
13, 16826, Note_on_c, 5, 53, 0
13, 16831, Note_on_c, 5, 57, 0
13, 16980, Note_on_c, 5, 53, 55
13, 16980, Note_on_c, 5, 57, 50
13, 17222, Note_on_c, 5, 57, 0
13, 17226, Note_on_c, 5, 53, 0
13, 17340, Note_on_c, 5, 60, 73
13, 17340, Note_on_c, 5, 55, 70
13, 17340, Note_on_c, 5, 58, 51
13, 17350, Note_on_c, 5, 58, 0
13, 17353, Note_on_c, 5, 55, 0
13, 17364, Note_on_c, 5, 60, 0
13, 17400, Note_on_c, 5, 60, 66
13, 17400, Note_on_c, 5, 55, 66
13, 17400, Note_on_c, 5, 58, 53
13, 17413, Note_on_c, 5, 58, 0
13, 17415, Note_on_c, 5, 55, 0
13, 17423, Note_on_c, 5, 60, 0
13, 17460, Note_on_c, 5, 60, 57
13, 17460, Note_on_c, 5, 58, 56
13, 17460, Note_on_c, 5, 55, 64
13, 17473, Note_on_c, 5, 55, 0
13, 17478, Note_on_c, 5, 58, 0
13, 17478, Note_on_c, 5, 60, 0
13, 17520, Note_on_c, 5, 55, 66
13, 17520, Note_on_c, 5, 58, 59
13, 17520, Note_on_c, 5, 60, 57
13, 17534, Note_on_c, 5, 55, 0
13, 17536, Note_on_c, 5, 60, 0
13, 17542, Note_on_c, 5, 58, 0
13, 17580, Note_on_c, 5, 60, 75
13, 17580, Note_on_c, 5, 55, 75
13, 17580, Note_on_c, 5, 58, 75
13, 17593, Note_on_c, 5, 55, 0
13, 17596, Note_on_c, 5, 58, 0
13, 17597, Note_on_c, 5, 60, 0
13, 17640, Note_on_c, 5, 58, 82
13, 17640, Note_on_c, 5, 60, 82
13, 17640, Note_on_c, 5, 55, 82
13, 17715, Note_on_c, 5, 55, 0
13, 17717, Note_on_c, 5, 58, 0
13, 17721, Note_on_c, 5, 60, 0
13, 17760, Note_on_c, 5, 62, 64
13, 17760, Note_on_c, 5, 53, 60
13, 17760, Note_on_c, 5, 58, 57
13, 17905, Note_on_c, 5, 58, 0
13, 17905, Note_on_c, 5, 53, 0
13, 17906, Note_on_c, 5, 62, 0
13, 17940, Note_on_c, 5, 58, 67
13, 17940, Note_on_c, 5, 53, 62
13, 17940, Note_on_c, 5, 62, 70
13, 18169, Note_on_c, 5, 62, 0
13, 18170, Note_on_c, 5, 53, 0
13, 18176, Note_on_c, 5, 58, 0
13, 18240, Note_on_c, 5, 58, 70
13, 18240, Note_on_c, 5, 53, 56
13, 18240, Note_on_c, 5, 62, 72
13, 18386, Note_on_c, 5, 62, 0
13, 18389, Note_on_c, 5, 53, 0
13, 18394, Note_on_c, 5, 58, 0
13, 18420, Note_on_c, 5, 53, 67
13, 18420, Note_on_c, 5, 58, 68
13, 18420, Note_on_c, 5, 62, 65
13, 18653, Note_on_c, 5, 53, 0
13, 18655, Note_on_c, 5, 58, 0
13, 18662, Note_on_c, 5, 62, 0
13, 18720, Note_on_c, 5, 58, 56
13, 18720, Note_on_c, 5, 53, 53
13, 18720, Note_on_c, 5, 62, 49
13, 18857, Note_on_c, 5, 53, 0
13, 18858, Note_on_c, 5, 58, 0
13, 18862, Note_on_c, 5, 62, 0
13, 18900, Note_on_c, 5, 58, 70
13, 18900, Note_on_c, 5, 53, 62
13, 18900, Note_on_c, 5, 62, 63
13, 19117, Note_on_c, 5, 53, 0
13, 19122, Note_on_c, 5, 58, 0
13, 19126, Note_on_c, 5, 62, 0
13, 19200, Note_on_c, 5, 57, 59
13, 19200, Note_on_c, 5, 53, 56
13, 19273, Note_on_c, 5, 53, 0
13, 19276, Note_on_c, 5, 57, 0
13, 19320, Note_on_c, 5, 62, 70
13, 19320, Note_on_c, 5, 58, 41
13, 19376, Note_on_c, 5, 58, 0
13, 19380, Note_on_c, 5, 62, 0
13, 19380, Note_on_c, 5, 60, 77
13, 19380, Note_on_c, 5, 53, 53
13, 19380, Note_on_c, 5, 57, 59
13, 19629, Note_on_c, 5, 60, 0
13, 19635, Note_on_c, 5, 57, 0
13, 19635, Note_on_c, 5, 53, 0
13, 19680, Note_on_c, 5, 53, 57
13, 19680, Note_on_c, 5, 57, 59
13, 19763, Note_on_c, 5, 53, 0
13, 19773, Note_on_c, 5, 57, 0
13, 19800, Note_on_c, 5, 62, 55
13, 19857, Note_on_c, 5, 62, 0
13, 19860, Note_on_c, 5, 53, 55
13, 19860, Note_on_c, 5, 57, 50
13, 19860, Note_on_c, 5, 60, 52
13, 20087, Note_on_c, 5, 60, 0
13, 20102, Note_on_c, 5, 57, 0
13, 20106, Note_on_c, 5, 53, 0
13, 20160, Note_on_c, 5, 57, 59
13, 20160, Note_on_c, 5, 53, 56
13, 20223, Note_on_c, 5, 53, 0
13, 20230, Note_on_c, 5, 57, 0
13, 20280, Note_on_c, 5, 62, 69
13, 20280, Note_on_c, 5, 58, 50
13, 20340, Note_on_c, 5, 60, 74
13, 20340, Note_on_c, 5, 53, 53
13, 20340, Note_on_c, 5, 57, 59
13, 20344, Note_on_c, 5, 62, 0
13, 20351, Note_on_c, 5, 58, 0
13, 20587, Note_on_c, 5, 60, 0
13, 20595, Note_on_c, 5, 53, 0
13, 20595, Note_on_c, 5, 57, 0
13, 20640, Note_on_c, 5, 53, 57
13, 20640, Note_on_c, 5, 57, 59
13, 20713, Note_on_c, 5, 57, 0
13, 20716, Note_on_c, 5, 53, 0
13, 20760, Note_on_c, 5, 62, 63
13, 20760, Note_on_c, 5, 58, 45
13, 20815, Note_on_c, 5, 62, 0
13, 20820, Note_on_c, 5, 60, 71
13, 20820, Note_on_c, 5, 53, 55
13, 20820, Note_on_c, 5, 57, 50
13, 20823, Note_on_c, 5, 58, 0
13, 21062, Note_on_c, 5, 57, 0
13, 21066, Note_on_c, 5, 53, 0
13, 21069, Note_on_c, 5, 60, 0
13, 21120, Note_on_c, 5, 53, 57
13, 21120, Note_on_c, 5, 57, 59
13, 21223, Note_on_c, 5, 57, 0
13, 21236, Note_on_c, 5, 53, 0
13, 21240, Note_on_c, 5, 62, 67
13, 21240, Note_on_c, 5, 58, 45
13, 21291, Note_on_c, 5, 58, 0
13, 21291, Note_on_c, 5, 62, 0
13, 21300, Note_on_c, 5, 53, 55
13, 21300, Note_on_c, 5, 57, 50
13, 21300, Note_on_c, 5, 60, 65
13, 21528, Note_on_c, 5, 60, 0
13, 21542, Note_on_c, 5, 57, 0
13, 21546, Note_on_c, 5, 53, 0
13, 21660, Note_on_c, 5, 60, 73
13, 21660, Note_on_c, 5, 55, 70
13, 21660, Note_on_c, 5, 58, 51
13, 21670, Note_on_c, 5, 58, 0
13, 21673, Note_on_c, 5, 55, 0
13, 21684, Note_on_c, 5, 60, 0
13, 21720, Note_on_c, 5, 60, 66
13, 21720, Note_on_c, 5, 55, 66
13, 21720, Note_on_c, 5, 58, 53
13, 21733, Note_on_c, 5, 58, 0
13, 21735, Note_on_c, 5, 55, 0
13, 21743, Note_on_c, 5, 60, 0
13, 21780, Note_on_c, 5, 60, 57
13, 21780, Note_on_c, 5, 58, 56
13, 21780, Note_on_c, 5, 55, 64
13, 21793, Note_on_c, 5, 55, 0
13, 21798, Note_on_c, 5, 58, 0
13, 21798, Note_on_c, 5, 60, 0
13, 21840, Note_on_c, 5, 55, 66
13, 21840, Note_on_c, 5, 58, 59
13, 21840, Note_on_c, 5, 60, 57
13, 21854, Note_on_c, 5, 55, 0
13, 21856, Note_on_c, 5, 60, 0
13, 21862, Note_on_c, 5, 58, 0
13, 21900, Note_on_c, 5, 60, 75
13, 21900, Note_on_c, 5, 55, 75
13, 21900, Note_on_c, 5, 58, 75
13, 21913, Note_on_c, 5, 55, 0
13, 21916, Note_on_c, 5, 58, 0
13, 21917, Note_on_c, 5, 60, 0
13, 21960, Note_on_c, 5, 58, 82
13, 21960, Note_on_c, 5, 60, 82
13, 21960, Note_on_c, 5, 55, 82
13, 22035, Note_on_c, 5, 55, 0
13, 22037, Note_on_c, 5, 58, 0
13, 22041, Note_on_c, 5, 60, 0
13, 22080, Note_on_c, 5, 62, 64
13, 22080, Note_on_c, 5, 53, 60
13, 22080, Note_on_c, 5, 58, 57
13, 22225, Note_on_c, 5, 58, 0
13, 22225, Note_on_c, 5, 53, 0
13, 22226, Note_on_c, 5, 62, 0
13, 22260, Note_on_c, 5, 58, 67
13, 22260, Note_on_c, 5, 53, 62
13, 22260, Note_on_c, 5, 62, 70
13, 22489, Note_on_c, 5, 62, 0
13, 22490, Note_on_c, 5, 53, 0
13, 22496, Note_on_c, 5, 58, 0
13, 22560, Note_on_c, 5, 58, 70
13, 22560, Note_on_c, 5, 53, 56
13, 22560, Note_on_c, 5, 62, 72
13, 22706, Note_on_c, 5, 62, 0
13, 22709, Note_on_c, 5, 53, 0
13, 22714, Note_on_c, 5, 58, 0
13, 22740, Note_on_c, 5, 53, 67
13, 22740, Note_on_c, 5, 58, 68
13, 22740, Note_on_c, 5, 62, 65
13, 22973, Note_on_c, 5, 53, 0
13, 22975, Note_on_c, 5, 58, 0
13, 22982, Note_on_c, 5, 62, 0
13, 23040, Note_on_c, 5, 58, 56
13, 23040, Note_on_c, 5, 53, 53
13, 23040, Note_on_c, 5, 62, 49
13, 23177, Note_on_c, 5, 53, 0
13, 23178, Note_on_c, 5, 58, 0
13, 23182, Note_on_c, 5, 62, 0
13, 23220, Note_on_c, 5, 58, 70
13, 23220, Note_on_c, 5, 53, 62
13, 23220, Note_on_c, 5, 62, 63
13, 23437, Note_on_c, 5, 53, 0
13, 23442, Note_on_c, 5, 58, 0
13, 23446, Note_on_c, 5, 62, 0
13, 23520, Note_on_c, 5, 57, 59
13, 23520, Note_on_c, 5, 53, 56
13, 23623, Note_on_c, 5, 57, 0
13, 23660, Note_on_c, 5, 53, 0
13, 23700, Note_on_c, 5, 53, 53
13, 23700, Note_on_c, 5, 57, 59
13, 23955, Note_on_c, 5, 57, 0
13, 23955, Note_on_c, 5, 53, 0
13, 24000, Note_on_c, 5, 62, 65
13, 24000, Note_on_c, 5, 57, 67
13, 24000, Note_on_c, 5, 53, 59
13, 24017, Note_on_c, 5, 53, 0
13, 24026, Note_on_c, 5, 57, 0
13, 24027, Note_on_c, 5, 62, 0
13, 24120, Note_on_c, 5, 53, 58
13, 24120, Note_on_c, 5, 62, 56
13, 24120, Note_on_c, 5, 57, 66
13, 24139, Note_on_c, 5, 57, 0
13, 24140, Note_on_c, 5, 53, 0
13, 24147, Note_on_c, 5, 62, 0
13, 24240, Note_on_c, 5, 57, 66
13, 24240, Note_on_c, 5, 62, 50
13, 24240, Note_on_c, 5, 53, 55
13, 24446, Note_on_c, 5, 53, 0
13, 24450, Note_on_c, 5, 57, 0
13, 24460, Note_on_c, 5, 62, 0
13, 24480, Note_on_c, 5, 58, 58
13, 24480, Note_on_c, 5, 53, 58
13, 24502, Note_on_c, 5, 53, 0
13, 24508, Note_on_c, 5, 58, 0
13, 24600, Note_on_c, 5, 62, 63
13, 24600, Note_on_c, 5, 58, 66
13, 24600, Note_on_c, 5, 53, 59
13, 24633, Note_on_c, 5, 62, 0
13, 24634, Note_on_c, 5, 53, 0
13, 24635, Note_on_c, 5, 58, 0
13, 24720, Note_on_c, 5, 53, 55
13, 24720, Note_on_c, 5, 62, 55
13, 24720, Note_on_c, 5, 58, 58
13, 24934, Note_on_c, 5, 58, 0
13, 24939, Note_on_c, 5, 53, 0
13, 24942, Note_on_c, 5, 62, 0
13, 24960, Note_on_c, 5, 60, 57
13, 24960, Note_on_c, 5, 55, 57
13, 24960, Note_on_c, 5, 52, 57
13, 24973, Note_on_c, 5, 55, 0
13, 24974, Note_on_c, 5, 52, 0
13, 24985, Note_on_c, 5, 60, 0
13, 25080, Note_on_c, 5, 55, 57
13, 25080, Note_on_c, 5, 60, 57
13, 25080, Note_on_c, 5, 52, 53
13, 25092, Note_on_c, 5, 52, 0
13, 25092, Note_on_c, 5, 55, 0
13, 25098, Note_on_c, 5, 60, 0
13, 25200, Note_on_c, 5, 60, 47
13, 25200, Note_on_c, 5, 55, 57
13, 25200, Note_on_c, 5, 52, 57
13, 25399, Note_on_c, 5, 52, 0
13, 25403, Note_on_c, 5, 55, 0
13, 25404, Note_on_c, 5, 60, 0
13, 25440, Note_on_c, 5, 60, 54
13, 25440, Note_on_c, 5, 55, 44
13, 25440, Note_on_c, 5, 52, 50
13, 25458, Note_on_c, 5, 52, 0
13, 25470, Note_on_c, 5, 55, 0
13, 25477, Note_on_c, 5, 60, 0
13, 25560, Note_on_c, 5, 60, 70
13, 25560, Note_on_c, 5, 55, 62
13, 25560, Note_on_c, 5, 52, 59
13, 25588, Note_on_c, 5, 55, 0
13, 25593, Note_on_c, 5, 52, 0
13, 25594, Note_on_c, 5, 60, 0
13, 25680, Note_on_c, 5, 55, 60
13, 25680, Note_on_c, 5, 60, 46
13, 25680, Note_on_c, 5, 52, 59
13, 25870, Note_on_c, 5, 52, 0
13, 25877, Note_on_c, 5, 55, 0
13, 25884, Note_on_c, 5, 60, 0
13, 25920, Note_on_c, 5, 62, 65
13, 25920, Note_on_c, 5, 57, 67
13, 25920, Note_on_c, 5, 53, 59
13, 25937, Note_on_c, 5, 53, 0
13, 25946, Note_on_c, 5, 57, 0
13, 25947, Note_on_c, 5, 62, 0
13, 26040, Note_on_c, 5, 53, 58
13, 26040, Note_on_c, 5, 62, 56
13, 26040, Note_on_c, 5, 57, 66
13, 26059, Note_on_c, 5, 57, 0
13, 26060, Note_on_c, 5, 53, 0
13, 26067, Note_on_c, 5, 62, 0
13, 26160, Note_on_c, 5, 57, 66
13, 26160, Note_on_c, 5, 62, 50
13, 26160, Note_on_c, 5, 53, 55
13, 26366, Note_on_c, 5, 53, 0
13, 26370, Note_on_c, 5, 57, 0
13, 26380, Note_on_c, 5, 62, 0
13, 26400, Note_on_c, 5, 58, 58
13, 26400, Note_on_c, 5, 53, 58
13, 26422, Note_on_c, 5, 53, 0
13, 26428, Note_on_c, 5, 58, 0
13, 26520, Note_on_c, 5, 62, 63
13, 26520, Note_on_c, 5, 58, 66
13, 26520, Note_on_c, 5, 53, 59
13, 26553, Note_on_c, 5, 62, 0
13, 26554, Note_on_c, 5, 53, 0
13, 26555, Note_on_c, 5, 58, 0
13, 26640, Note_on_c, 5, 53, 55
13, 26640, Note_on_c, 5, 62, 55
13, 26640, Note_on_c, 5, 58, 58
13, 26854, Note_on_c, 5, 58, 0
13, 26859, Note_on_c, 5, 53, 0
13, 26862, Note_on_c, 5, 62, 0
13, 26880, Note_on_c, 5, 60, 57
13, 26880, Note_on_c, 5, 55, 57
13, 26880, Note_on_c, 5, 52, 57
13, 26893, Note_on_c, 5, 55, 0
13, 26894, Note_on_c, 5, 52, 0
13, 26905, Note_on_c, 5, 60, 0
13, 27000, Note_on_c, 5, 55, 57
13, 27000, Note_on_c, 5, 60, 57
13, 27000, Note_on_c, 5, 52, 53
13, 27012, Note_on_c, 5, 52, 0
13, 27012, Note_on_c, 5, 55, 0
13, 27018, Note_on_c, 5, 60, 0
13, 27120, Note_on_c, 5, 60, 47
13, 27120, Note_on_c, 5, 55, 57
13, 27120, Note_on_c, 5, 52, 57
13, 27319, Note_on_c, 5, 52, 0
13, 27323, Note_on_c, 5, 55, 0
13, 27324, Note_on_c, 5, 60, 0
13, 27360, Note_on_c, 5, 60, 54
13, 27360, Note_on_c, 5, 55, 44
13, 27360, Note_on_c, 5, 52, 50
13, 27378, Note_on_c, 5, 52, 0
13, 27390, Note_on_c, 5, 55, 0
13, 27397, Note_on_c, 5, 60, 0
13, 27480, Note_on_c, 5, 60, 70
13, 27480, Note_on_c, 5, 55, 62
13, 27480, Note_on_c, 5, 52, 59
13, 27508, Note_on_c, 5, 55, 0
13, 27513, Note_on_c, 5, 52, 0
13, 27514, Note_on_c, 5, 60, 0
13, 27600, Note_on_c, 5, 55, 60
13, 27600, Note_on_c, 5, 60, 46
13, 27600, Note_on_c, 5, 52, 59
13, 27790, Note_on_c, 5, 52, 0
13, 27797, Note_on_c, 5, 55, 0
13, 27804, Note_on_c, 5, 60, 0
13, 27840, Note_on_c, 5, 62, 65
13, 27840, Note_on_c, 5, 57, 67
13, 27840, Note_on_c, 5, 53, 59
13, 27857, Note_on_c, 5, 53, 0
13, 27866, Note_on_c, 5, 57, 0
13, 27867, Note_on_c, 5, 62, 0
13, 27960, Note_on_c, 5, 53, 58
13, 27960, Note_on_c, 5, 62, 56
13, 27960, Note_on_c, 5, 57, 66
13, 27979, Note_on_c, 5, 57, 0
13, 27980, Note_on_c, 5, 53, 0
13, 27987, Note_on_c, 5, 62, 0
13, 28080, Note_on_c, 5, 57, 66
13, 28080, Note_on_c, 5, 62, 50
13, 28080, Note_on_c, 5, 53, 55
13, 28286, Note_on_c, 5, 53, 0
13, 28290, Note_on_c, 5, 57, 0
13, 28300, Note_on_c, 5, 62, 0
13, 28320, Note_on_c, 5, 58, 58
13, 28320, Note_on_c, 5, 53, 58
13, 28342, Note_on_c, 5, 53, 0
13, 28348, Note_on_c, 5, 58, 0
13, 28440, Note_on_c, 5, 62, 63
13, 28440, Note_on_c, 5, 58, 66
13, 28440, Note_on_c, 5, 53, 59
13, 28473, Note_on_c, 5, 62, 0
13, 28474, Note_on_c, 5, 53, 0
13, 28475, Note_on_c, 5, 58, 0
13, 28560, Note_on_c, 5, 53, 55
13, 28560, Note_on_c, 5, 62, 55
13, 28560, Note_on_c, 5, 58, 58
13, 28774, Note_on_c, 5, 58, 0
13, 28779, Note_on_c, 5, 53, 0
13, 28782, Note_on_c, 5, 62, 0
13, 28800, Note_on_c, 5, 60, 57
13, 28800, Note_on_c, 5, 55, 57
13, 28800, Note_on_c, 5, 52, 57
13, 28813, Note_on_c, 5, 55, 0
13, 28814, Note_on_c, 5, 52, 0
13, 28825, Note_on_c, 5, 60, 0
13, 28920, Note_on_c, 5, 55, 57
13, 28920, Note_on_c, 5, 60, 57
13, 28920, Note_on_c, 5, 52, 53
13, 28932, Note_on_c, 5, 52, 0
13, 28932, Note_on_c, 5, 55, 0
13, 28938, Note_on_c, 5, 60, 0
13, 29040, Note_on_c, 5, 60, 47
13, 29040, Note_on_c, 5, 55, 57
13, 29040, Note_on_c, 5, 52, 57
13, 29239, Note_on_c, 5, 52, 0
13, 29243, Note_on_c, 5, 55, 0
13, 29244, Note_on_c, 5, 60, 0
13, 29280, Note_on_c, 5, 60, 54
13, 29280, Note_on_c, 5, 55, 44
13, 29280, Note_on_c, 5, 52, 50
13, 29298, Note_on_c, 5, 52, 0
13, 29310, Note_on_c, 5, 55, 0
13, 29317, Note_on_c, 5, 60, 0
13, 29400, Note_on_c, 5, 60, 70
13, 29400, Note_on_c, 5, 55, 62
13, 29400, Note_on_c, 5, 52, 59
13, 29428, Note_on_c, 5, 55, 0
13, 29433, Note_on_c, 5, 52, 0
13, 29434, Note_on_c, 5, 60, 0
13, 29520, Note_on_c, 5, 55, 60
13, 29520, Note_on_c, 5, 60, 46
13, 29520, Note_on_c, 5, 52, 59
13, 29710, Note_on_c, 5, 52, 0
13, 29717, Note_on_c, 5, 55, 0
13, 29724, Note_on_c, 5, 60, 0
13, 29760, Note_on_c, 5, 57, 59
13, 29760, Note_on_c, 5, 53, 56
13, 29791, Note_on_c, 5, 53, 0
13, 29791, Note_on_c, 5, 57, 0
13, 29940, Note_on_c, 5, 53, 53
13, 29940, Note_on_c, 5, 57, 59
13, 30195, Note_on_c, 5, 57, 0
13, 30195, Note_on_c, 5, 53, 0
13, 30240, Note_on_c, 5, 53, 57
13, 30240, Note_on_c, 5, 57, 59
13, 30266, Note_on_c, 5, 53, 0
13, 30271, Note_on_c, 5, 57, 0
13, 30420, Note_on_c, 5, 53, 55
13, 30420, Note_on_c, 5, 57, 50
13, 30662, Note_on_c, 5, 57, 0
13, 30666, Note_on_c, 5, 53, 0
13, 30720, Note_on_c, 5, 53, 57
13, 30720, Note_on_c, 5, 57, 59
13, 30746, Note_on_c, 5, 53, 0
13, 30751, Note_on_c, 5, 57, 0
13, 30900, Note_on_c, 5, 53, 55
13, 30900, Note_on_c, 5, 57, 50
13, 31142, Note_on_c, 5, 57, 0
13, 31146, Note_on_c, 5, 53, 0
13, 31260, Note_on_c, 5, 60, 73
13, 31260, Note_on_c, 5, 55, 70
13, 31260, Note_on_c, 5, 58, 51
13, 31270, Note_on_c, 5, 58, 0
13, 31273, Note_on_c, 5, 55, 0
13, 31284, Note_on_c, 5, 60, 0
13, 31320, Note_on_c, 5, 60, 66
13, 31320, Note_on_c, 5, 55, 66
13, 31320, Note_on_c, 5, 58, 53
13, 31333, Note_on_c, 5, 58, 0
13, 31335, Note_on_c, 5, 55, 0
13, 31343, Note_on_c, 5, 60, 0
13, 31380, Note_on_c, 5, 60, 57
13, 31380, Note_on_c, 5, 58, 56
13, 31380, Note_on_c, 5, 55, 64
13, 31393, Note_on_c, 5, 55, 0
13, 31398, Note_on_c, 5, 58, 0
13, 31398, Note_on_c, 5, 60, 0
13, 31440, Note_on_c, 5, 55, 66
13, 31440, Note_on_c, 5, 58, 59
13, 31440, Note_on_c, 5, 60, 57
13, 31454, Note_on_c, 5, 55, 0
13, 31456, Note_on_c, 5, 60, 0
13, 31462, Note_on_c, 5, 58, 0
13, 31500, Note_on_c, 5, 60, 75
13, 31500, Note_on_c, 5, 55, 75
13, 31500, Note_on_c, 5, 58, 75
13, 31513, Note_on_c, 5, 55, 0
13, 31516, Note_on_c, 5, 58, 0
13, 31517, Note_on_c, 5, 60, 0
13, 31560, Note_on_c, 5, 58, 82
13, 31560, Note_on_c, 5, 60, 82
13, 31560, Note_on_c, 5, 55, 82
13, 31635, Note_on_c, 5, 55, 0
13, 31637, Note_on_c, 5, 58, 0
13, 31641, Note_on_c, 5, 60, 0
13, 31680, Note_on_c, 5, 62, 64
13, 31680, Note_on_c, 5, 53, 60
13, 31680, Note_on_c, 5, 58, 57
13, 31825, Note_on_c, 5, 58, 0
13, 31825, Note_on_c, 5, 53, 0
13, 31826, Note_on_c, 5, 62, 0
13, 31860, Note_on_c, 5, 58, 67
13, 31860, Note_on_c, 5, 53, 62
13, 31860, Note_on_c, 5, 62, 70
13, 32089, Note_on_c, 5, 62, 0
13, 32090, Note_on_c, 5, 53, 0
13, 32096, Note_on_c, 5, 58, 0
13, 32160, Note_on_c, 5, 58, 70
13, 32160, Note_on_c, 5, 53, 56
13, 32160, Note_on_c, 5, 62, 72
13, 32306, Note_on_c, 5, 62, 0
13, 32309, Note_on_c, 5, 53, 0
13, 32314, Note_on_c, 5, 58, 0
13, 32340, Note_on_c, 5, 53, 67
13, 32340, Note_on_c, 5, 58, 68
13, 32340, Note_on_c, 5, 62, 65
13, 32573, Note_on_c, 5, 53, 0
13, 32575, Note_on_c, 5, 58, 0
13, 32582, Note_on_c, 5, 62, 0
13, 32640, Note_on_c, 5, 58, 56
13, 32640, Note_on_c, 5, 53, 53
13, 32640, Note_on_c, 5, 62, 49
13, 32777, Note_on_c, 5, 53, 0
13, 32778, Note_on_c, 5, 58, 0
13, 32782, Note_on_c, 5, 62, 0
13, 32820, Note_on_c, 5, 58, 70
13, 32820, Note_on_c, 5, 53, 62
13, 32820, Note_on_c, 5, 62, 63
13, 33037, Note_on_c, 5, 53, 0
13, 33042, Note_on_c, 5, 58, 0
13, 33046, Note_on_c, 5, 62, 0
13, 33120, Note_on_c, 5, 57, 59
13, 33120, Note_on_c, 5, 53, 56
13, 33193, Note_on_c, 5, 53, 0
13, 33196, Note_on_c, 5, 57, 0
13, 33240, Note_on_c, 5, 62, 70
13, 33240, Note_on_c, 5, 58, 41
13, 33296, Note_on_c, 5, 58, 0
13, 33300, Note_on_c, 5, 62, 0
13, 33300, Note_on_c, 5, 60, 77
13, 33300, Note_on_c, 5, 53, 53
13, 33300, Note_on_c, 5, 57, 59
13, 33549, Note_on_c, 5, 60, 0
13, 33555, Note_on_c, 5, 57, 0
13, 33555, Note_on_c, 5, 53, 0
13, 33600, Note_on_c, 5, 53, 57
13, 33600, Note_on_c, 5, 57, 59
13, 33683, Note_on_c, 5, 53, 0
13, 33693, Note_on_c, 5, 57, 0
13, 33720, Note_on_c, 5, 62, 55
13, 33777, Note_on_c, 5, 62, 0
13, 33780, Note_on_c, 5, 53, 55
13, 33780, Note_on_c, 5, 57, 50
13, 33780, Note_on_c, 5, 60, 52
13, 34007, Note_on_c, 5, 60, 0
13, 34022, Note_on_c, 5, 57, 0
13, 34026, Note_on_c, 5, 53, 0
13, 34080, Note_on_c, 5, 57, 59
13, 34080, Note_on_c, 5, 53, 56
13, 34143, Note_on_c, 5, 53, 0
13, 34150, Note_on_c, 5, 57, 0
13, 34200, Note_on_c, 5, 62, 69
13, 34200, Note_on_c, 5, 58, 50
13, 34260, Note_on_c, 5, 60, 74
13, 34260, Note_on_c, 5, 53, 53
13, 34260, Note_on_c, 5, 57, 59
13, 34264, Note_on_c, 5, 62, 0
13, 34271, Note_on_c, 5, 58, 0
13, 34507, Note_on_c, 5, 60, 0
13, 34515, Note_on_c, 5, 53, 0
13, 34515, Note_on_c, 5, 57, 0
13, 34560, Note_on_c, 5, 53, 57
13, 34560, Note_on_c, 5, 57, 59
13, 34633, Note_on_c, 5, 57, 0
13, 34636, Note_on_c, 5, 53, 0
13, 34680, Note_on_c, 5, 62, 63
13, 34680, Note_on_c, 5, 58, 45
13, 34735, Note_on_c, 5, 62, 0
13, 34740, Note_on_c, 5, 60, 71
13, 34740, Note_on_c, 5, 53, 55
13, 34740, Note_on_c, 5, 57, 50
13, 34743, Note_on_c, 5, 58, 0
13, 34982, Note_on_c, 5, 57, 0
13, 34986, Note_on_c, 5, 53, 0
13, 34989, Note_on_c, 5, 60, 0
13, 35040, Note_on_c, 5, 53, 57
13, 35040, Note_on_c, 5, 57, 59
13, 35143, Note_on_c, 5, 57, 0
13, 35156, Note_on_c, 5, 53, 0
13, 35160, Note_on_c, 5, 62, 67
13, 35160, Note_on_c, 5, 58, 45
13, 35211, Note_on_c, 5, 58, 0
13, 35211, Note_on_c, 5, 62, 0
13, 35220, Note_on_c, 5, 53, 55
13, 35220, Note_on_c, 5, 57, 50
13, 35220, Note_on_c, 5, 60, 65
13, 35448, Note_on_c, 5, 60, 0
13, 35462, Note_on_c, 5, 57, 0
13, 35466, Note_on_c, 5, 53, 0
13, 35580, Note_on_c, 5, 60, 73
13, 35580, Note_on_c, 5, 55, 70
13, 35580, Note_on_c, 5, 58, 51
13, 35590, Note_on_c, 5, 58, 0
13, 35593, Note_on_c, 5, 55, 0
13, 35604, Note_on_c, 5, 60, 0
13, 35640, Note_on_c, 5, 60, 66
13, 35640, Note_on_c, 5, 55, 66
13, 35640, Note_on_c, 5, 58, 53
13, 35653, Note_on_c, 5, 58, 0
13, 35655, Note_on_c, 5, 55, 0
13, 35663, Note_on_c, 5, 60, 0
13, 35700, Note_on_c, 5, 60, 57
13, 35700, Note_on_c, 5, 58, 56
13, 35700, Note_on_c, 5, 55, 64
13, 35713, Note_on_c, 5, 55, 0
13, 35718, Note_on_c, 5, 58, 0
13, 35718, Note_on_c, 5, 60, 0
13, 35760, Note_on_c, 5, 55, 66
13, 35760, Note_on_c, 5, 58, 59
13, 35760, Note_on_c, 5, 60, 57
13, 35774, Note_on_c, 5, 55, 0
13, 35776, Note_on_c, 5, 60, 0
13, 35782, Note_on_c, 5, 58, 0
13, 35820, Note_on_c, 5, 60, 75
13, 35820, Note_on_c, 5, 55, 75
13, 35820, Note_on_c, 5, 58, 75
13, 35833, Note_on_c, 5, 55, 0
13, 35836, Note_on_c, 5, 58, 0
13, 35837, Note_on_c, 5, 60, 0
13, 35880, Note_on_c, 5, 58, 82
13, 35880, Note_on_c, 5, 60, 82
13, 35880, Note_on_c, 5, 55, 82
13, 35955, Note_on_c, 5, 55, 0
13, 35957, Note_on_c, 5, 58, 0
13, 35961, Note_on_c, 5, 60, 0
13, 36000, Note_on_c, 5, 62, 64
13, 36000, Note_on_c, 5, 53, 60
13, 36000, Note_on_c, 5, 58, 57
13, 36145, Note_on_c, 5, 58, 0
13, 36145, Note_on_c, 5, 53, 0
13, 36146, Note_on_c, 5, 62, 0
13, 36180, Note_on_c, 5, 58, 67
13, 36180, Note_on_c, 5, 53, 62
13, 36180, Note_on_c, 5, 62, 70
13, 36409, Note_on_c, 5, 62, 0
13, 36410, Note_on_c, 5, 53, 0
13, 36416, Note_on_c, 5, 58, 0
13, 36480, Note_on_c, 5, 58, 70
13, 36480, Note_on_c, 5, 53, 56
13, 36480, Note_on_c, 5, 62, 72
13, 36626, Note_on_c, 5, 62, 0
13, 36629, Note_on_c, 5, 53, 0
13, 36634, Note_on_c, 5, 58, 0
13, 36660, Note_on_c, 5, 53, 67
13, 36660, Note_on_c, 5, 58, 68
13, 36660, Note_on_c, 5, 62, 65
13, 36893, Note_on_c, 5, 53, 0
13, 36895, Note_on_c, 5, 58, 0
13, 36902, Note_on_c, 5, 62, 0
13, 36960, Note_on_c, 5, 58, 56
13, 36960, Note_on_c, 5, 53, 53
13, 36960, Note_on_c, 5, 62, 49
13, 37097, Note_on_c, 5, 53, 0
13, 37098, Note_on_c, 5, 58, 0
13, 37102, Note_on_c, 5, 62, 0
13, 37140, Note_on_c, 5, 58, 70
13, 37140, Note_on_c, 5, 53, 62
13, 37140, Note_on_c, 5, 62, 63
13, 37357, Note_on_c, 5, 53, 0
13, 37362, Note_on_c, 5, 58, 0
13, 37366, Note_on_c, 5, 62, 0
13, 37440, Note_on_c, 5, 57, 59
13, 37440, Note_on_c, 5, 53, 56
13, 37543, Note_on_c, 5, 57, 0
13, 37580, Note_on_c, 5, 53, 0
13, 37620, Note_on_c, 5, 53, 53
13, 37620, Note_on_c, 5, 57, 59
13, 37875, Note_on_c, 5, 57, 0
13, 37875, Note_on_c, 5, 53, 0
13, 37920, Note_on_c, 5, 62, 65
13, 37920, Note_on_c, 5, 57, 67
13, 37920, Note_on_c, 5, 53, 59
13, 37937, Note_on_c, 5, 53, 0
13, 37946, Note_on_c, 5, 57, 0
13, 37947, Note_on_c, 5, 62, 0
13, 38040, Note_on_c, 5, 53, 58
13, 38040, Note_on_c, 5, 62, 56
13, 38040, Note_on_c, 5, 57, 66
13, 38059, Note_on_c, 5, 57, 0
13, 38060, Note_on_c, 5, 53, 0
13, 38067, Note_on_c, 5, 62, 0
13, 38160, Note_on_c, 5, 57, 66
13, 38160, Note_on_c, 5, 62, 50
13, 38160, Note_on_c, 5, 53, 55
13, 38366, Note_on_c, 5, 53, 0
13, 38370, Note_on_c, 5, 57, 0
13, 38380, Note_on_c, 5, 62, 0
13, 38400, Note_on_c, 5, 58, 58
13, 38400, Note_on_c, 5, 53, 58
13, 38422, Note_on_c, 5, 53, 0
13, 38428, Note_on_c, 5, 58, 0
13, 38520, Note_on_c, 5, 62, 63
13, 38520, Note_on_c, 5, 58, 66
13, 38520, Note_on_c, 5, 53, 59
13, 38553, Note_on_c, 5, 62, 0
13, 38554, Note_on_c, 5, 53, 0
13, 38555, Note_on_c, 5, 58, 0
13, 38640, Note_on_c, 5, 53, 55
13, 38640, Note_on_c, 5, 62, 55
13, 38640, Note_on_c, 5, 58, 58
13, 38854, Note_on_c, 5, 58, 0
13, 38859, Note_on_c, 5, 53, 0
13, 38862, Note_on_c, 5, 62, 0
13, 38880, Note_on_c, 5, 60, 57
13, 38880, Note_on_c, 5, 55, 57
13, 38880, Note_on_c, 5, 52, 57
13, 38893, Note_on_c, 5, 55, 0
13, 38894, Note_on_c, 5, 52, 0
13, 38905, Note_on_c, 5, 60, 0
13, 39000, Note_on_c, 5, 55, 57
13, 39000, Note_on_c, 5, 60, 57
13, 39000, Note_on_c, 5, 52, 53
13, 39012, Note_on_c, 5, 52, 0
13, 39012, Note_on_c, 5, 55, 0
13, 39018, Note_on_c, 5, 60, 0
13, 39120, Note_on_c, 5, 60, 47
13, 39120, Note_on_c, 5, 55, 57
13, 39120, Note_on_c, 5, 52, 57
13, 39319, Note_on_c, 5, 52, 0
13, 39323, Note_on_c, 5, 55, 0
13, 39324, Note_on_c, 5, 60, 0
13, 39360, Note_on_c, 5, 60, 54
13, 39360, Note_on_c, 5, 55, 44
13, 39360, Note_on_c, 5, 52, 50
13, 39378, Note_on_c, 5, 52, 0
13, 39390, Note_on_c, 5, 55, 0
13, 39397, Note_on_c, 5, 60, 0
13, 39480, Note_on_c, 5, 60, 70
13, 39480, Note_on_c, 5, 55, 62
13, 39480, Note_on_c, 5, 52, 59
13, 39508, Note_on_c, 5, 55, 0
13, 39513, Note_on_c, 5, 52, 0
13, 39514, Note_on_c, 5, 60, 0
13, 39600, Note_on_c, 5, 55, 60
13, 39600, Note_on_c, 5, 60, 46
13, 39600, Note_on_c, 5, 52, 59
13, 39790, Note_on_c, 5, 52, 0
13, 39797, Note_on_c, 5, 55, 0
13, 39804, Note_on_c, 5, 60, 0
13, 39840, Note_on_c, 5, 62, 65
13, 39840, Note_on_c, 5, 57, 67
13, 39840, Note_on_c, 5, 53, 59
13, 39857, Note_on_c, 5, 53, 0
13, 39866, Note_on_c, 5, 57, 0
13, 39867, Note_on_c, 5, 62, 0
13, 39960, Note_on_c, 5, 53, 58
13, 39960, Note_on_c, 5, 62, 56
13, 39960, Note_on_c, 5, 57, 66
13, 39979, Note_on_c, 5, 57, 0
13, 39980, Note_on_c, 5, 53, 0
13, 39987, Note_on_c, 5, 62, 0
13, 40080, Note_on_c, 5, 57, 66
13, 40080, Note_on_c, 5, 62, 50
13, 40080, Note_on_c, 5, 53, 55
13, 40286, Note_on_c, 5, 53, 0
13, 40290, Note_on_c, 5, 57, 0
13, 40300, Note_on_c, 5, 62, 0
13, 40320, Note_on_c, 5, 58, 58
13, 40320, Note_on_c, 5, 53, 58
13, 40342, Note_on_c, 5, 53, 0
13, 40348, Note_on_c, 5, 58, 0
13, 40440, Note_on_c, 5, 62, 63
13, 40440, Note_on_c, 5, 58, 66
13, 40440, Note_on_c, 5, 53, 59
13, 40473, Note_on_c, 5, 62, 0
13, 40474, Note_on_c, 5, 53, 0
13, 40475, Note_on_c, 5, 58, 0
13, 40560, Note_on_c, 5, 53, 55
13, 40560, Note_on_c, 5, 62, 55
13, 40560, Note_on_c, 5, 58, 58
13, 40774, Note_on_c, 5, 58, 0
13, 40779, Note_on_c, 5, 53, 0
13, 40782, Note_on_c, 5, 62, 0
13, 40800, Note_on_c, 5, 60, 57
13, 40800, Note_on_c, 5, 55, 57
13, 40800, Note_on_c, 5, 52, 57
13, 40813, Note_on_c, 5, 55, 0
13, 40814, Note_on_c, 5, 52, 0
13, 40825, Note_on_c, 5, 60, 0
13, 40920, Note_on_c, 5, 55, 57
13, 40920, Note_on_c, 5, 60, 57
13, 40920, Note_on_c, 5, 52, 53
13, 40932, Note_on_c, 5, 52, 0
13, 40932, Note_on_c, 5, 55, 0
13, 40938, Note_on_c, 5, 60, 0
13, 41040, Note_on_c, 5, 60, 47
13, 41040, Note_on_c, 5, 55, 57
13, 41040, Note_on_c, 5, 52, 57
13, 41239, Note_on_c, 5, 52, 0
13, 41243, Note_on_c, 5, 55, 0
13, 41244, Note_on_c, 5, 60, 0
13, 41280, Note_on_c, 5, 60, 54
13, 41280, Note_on_c, 5, 55, 44
13, 41280, Note_on_c, 5, 52, 50
13, 41298, Note_on_c, 5, 52, 0
13, 41310, Note_on_c, 5, 55, 0
13, 41317, Note_on_c, 5, 60, 0
13, 41400, Note_on_c, 5, 60, 70
13, 41400, Note_on_c, 5, 55, 62
13, 41400, Note_on_c, 5, 52, 59
13, 41428, Note_on_c, 5, 55, 0
13, 41433, Note_on_c, 5, 52, 0
13, 41434, Note_on_c, 5, 60, 0
13, 41520, Note_on_c, 5, 55, 60
13, 41520, Note_on_c, 5, 60, 46
13, 41520, Note_on_c, 5, 52, 59
13, 41710, Note_on_c, 5, 52, 0
13, 41717, Note_on_c, 5, 55, 0
13, 41724, Note_on_c, 5, 60, 0
13, 41760, Note_on_c, 5, 62, 65
13, 41760, Note_on_c, 5, 57, 67
13, 41760, Note_on_c, 5, 53, 59
13, 41777, Note_on_c, 5, 53, 0
13, 41786, Note_on_c, 5, 57, 0
13, 41787, Note_on_c, 5, 62, 0
13, 41880, Note_on_c, 5, 53, 58
13, 41880, Note_on_c, 5, 62, 56
13, 41880, Note_on_c, 5, 57, 66
13, 41899, Note_on_c, 5, 57, 0
13, 41900, Note_on_c, 5, 53, 0
13, 41907, Note_on_c, 5, 62, 0
13, 42000, Note_on_c, 5, 57, 66
13, 42000, Note_on_c, 5, 62, 50
13, 42000, Note_on_c, 5, 53, 55
13, 42206, Note_on_c, 5, 53, 0
13, 42210, Note_on_c, 5, 57, 0
13, 42220, Note_on_c, 5, 62, 0
13, 42240, Note_on_c, 5, 58, 58
13, 42240, Note_on_c, 5, 53, 58
13, 42262, Note_on_c, 5, 53, 0
13, 42268, Note_on_c, 5, 58, 0
13, 42360, Note_on_c, 5, 62, 63
13, 42360, Note_on_c, 5, 58, 66
13, 42360, Note_on_c, 5, 53, 59
13, 42393, Note_on_c, 5, 62, 0
13, 42394, Note_on_c, 5, 53, 0
13, 42395, Note_on_c, 5, 58, 0
13, 42480, Note_on_c, 5, 53, 55
13, 42480, Note_on_c, 5, 62, 55
13, 42480, Note_on_c, 5, 58, 58
13, 42694, Note_on_c, 5, 58, 0
13, 42699, Note_on_c, 5, 53, 0
13, 42702, Note_on_c, 5, 62, 0
13, 42720, Note_on_c, 5, 60, 57
13, 42720, Note_on_c, 5, 55, 57
13, 42720, Note_on_c, 5, 52, 57
13, 42733, Note_on_c, 5, 55, 0
13, 42734, Note_on_c, 5, 52, 0
13, 42745, Note_on_c, 5, 60, 0
13, 42840, Note_on_c, 5, 55, 57
13, 42840, Note_on_c, 5, 60, 57
13, 42840, Note_on_c, 5, 52, 53
13, 42852, Note_on_c, 5, 52, 0
13, 42852, Note_on_c, 5, 55, 0
13, 42858, Note_on_c, 5, 60, 0
13, 42960, Note_on_c, 5, 60, 47
13, 42960, Note_on_c, 5, 55, 57
13, 42960, Note_on_c, 5, 52, 57
13, 43159, Note_on_c, 5, 52, 0
13, 43163, Note_on_c, 5, 55, 0
13, 43164, Note_on_c, 5, 60, 0
13, 43200, Note_on_c, 5, 60, 54
13, 43200, Note_on_c, 5, 55, 44
13, 43200, Note_on_c, 5, 52, 50
13, 43218, Note_on_c, 5, 52, 0
13, 43230, Note_on_c, 5, 55, 0
13, 43237, Note_on_c, 5, 60, 0
13, 43320, Note_on_c, 5, 60, 70
13, 43320, Note_on_c, 5, 55, 62
13, 43320, Note_on_c, 5, 52, 59
13, 43348, Note_on_c, 5, 55, 0
13, 43353, Note_on_c, 5, 52, 0
13, 43354, Note_on_c, 5, 60, 0
13, 43440, Note_on_c, 5, 55, 60
13, 43440, Note_on_c, 5, 60, 46
13, 43440, Note_on_c, 5, 52, 59
13, 43630, Note_on_c, 5, 52, 0
13, 43637, Note_on_c, 5, 55, 0
13, 43644, Note_on_c, 5, 60, 0
13, 43680, Note_on_c, 5, 62, 65
13, 43680, Note_on_c, 5, 57, 67
13, 43680, Note_on_c, 5, 53, 59
13, 43697, Note_on_c, 5, 53, 0
13, 43706, Note_on_c, 5, 57, 0
13, 43707, Note_on_c, 5, 62, 0
13, 43800, Note_on_c, 5, 53, 58
13, 43800, Note_on_c, 5, 62, 56
13, 43800, Note_on_c, 5, 57, 66
13, 43819, Note_on_c, 5, 57, 0
13, 43820, Note_on_c, 5, 53, 0
13, 43827, Note_on_c, 5, 62, 0
13, 43920, Note_on_c, 5, 57, 66
13, 43920, Note_on_c, 5, 62, 50
13, 43920, Note_on_c, 5, 53, 55
13, 44126, Note_on_c, 5, 53, 0
13, 44130, Note_on_c, 5, 57, 0
13, 44140, Note_on_c, 5, 62, 0
13, 44160, Note_on_c, 5, 58, 58
13, 44160, Note_on_c, 5, 53, 58
13, 44182, Note_on_c, 5, 53, 0
13, 44188, Note_on_c, 5, 58, 0
13, 44280, Note_on_c, 5, 62, 63
13, 44280, Note_on_c, 5, 58, 66
13, 44280, Note_on_c, 5, 53, 59
13, 44313, Note_on_c, 5, 62, 0
13, 44314, Note_on_c, 5, 53, 0
13, 44315, Note_on_c, 5, 58, 0
13, 44400, Note_on_c, 5, 53, 55
13, 44400, Note_on_c, 5, 62, 55
13, 44400, Note_on_c, 5, 58, 58
13, 44614, Note_on_c, 5, 58, 0
13, 44619, Note_on_c, 5, 53, 0
13, 44622, Note_on_c, 5, 62, 0
13, 44640, Note_on_c, 5, 60, 57
13, 44640, Note_on_c, 5, 55, 57
13, 44640, Note_on_c, 5, 52, 57
13, 44653, Note_on_c, 5, 55, 0
13, 44654, Note_on_c, 5, 52, 0
13, 44665, Note_on_c, 5, 60, 0
13, 44760, Note_on_c, 5, 55, 57
13, 44760, Note_on_c, 5, 60, 57
13, 44760, Note_on_c, 5, 52, 53
13, 44772, Note_on_c, 5, 52, 0
13, 44772, Note_on_c, 5, 55, 0
13, 44778, Note_on_c, 5, 60, 0
13, 44880, Note_on_c, 5, 60, 47
13, 44880, Note_on_c, 5, 55, 57
13, 44880, Note_on_c, 5, 52, 57
13, 45079, Note_on_c, 5, 52, 0
13, 45083, Note_on_c, 5, 55, 0
13, 45084, Note_on_c, 5, 60, 0
13, 45120, Note_on_c, 5, 60, 54
13, 45120, Note_on_c, 5, 55, 44
13, 45120, Note_on_c, 5, 52, 50
13, 45138, Note_on_c, 5, 52, 0
13, 45150, Note_on_c, 5, 55, 0
13, 45157, Note_on_c, 5, 60, 0
13, 45240, Note_on_c, 5, 60, 70
13, 45240, Note_on_c, 5, 55, 62
13, 45240, Note_on_c, 5, 52, 59
13, 45268, Note_on_c, 5, 55, 0
13, 45273, Note_on_c, 5, 52, 0
13, 45274, Note_on_c, 5, 60, 0
13, 45360, Note_on_c, 5, 55, 60
13, 45360, Note_on_c, 5, 60, 46
13, 45360, Note_on_c, 5, 52, 59
13, 45550, Note_on_c, 5, 52, 0
13, 45557, Note_on_c, 5, 55, 0
13, 45564, Note_on_c, 5, 60, 0
13, 45600, Note_on_c, 5, 62, 65
13, 45600, Note_on_c, 5, 57, 67
13, 45600, Note_on_c, 5, 53, 59
13, 45617, Note_on_c, 5, 53, 0
13, 45626, Note_on_c, 5, 57, 0
13, 45627, Note_on_c, 5, 62, 0
13, 45720, Note_on_c, 5, 53, 58
13, 45720, Note_on_c, 5, 62, 56
13, 45720, Note_on_c, 5, 57, 66
13, 45739, Note_on_c, 5, 57, 0
13, 45740, Note_on_c, 5, 53, 0
13, 45747, Note_on_c, 5, 62, 0
13, 45840, Note_on_c, 5, 57, 66
13, 45840, Note_on_c, 5, 62, 50
13, 45840, Note_on_c, 5, 53, 55
13, 46046, Note_on_c, 5, 53, 0
13, 46050, Note_on_c, 5, 57, 0
13, 46060, Note_on_c, 5, 62, 0
13, 46080, Note_on_c, 5, 58, 58
13, 46080, Note_on_c, 5, 53, 58
13, 46102, Note_on_c, 5, 53, 0
13, 46108, Note_on_c, 5, 58, 0
13, 46200, Note_on_c, 5, 62, 63
13, 46200, Note_on_c, 5, 58, 66
13, 46200, Note_on_c, 5, 53, 59
13, 46233, Note_on_c, 5, 62, 0
13, 46234, Note_on_c, 5, 53, 0
13, 46235, Note_on_c, 5, 58, 0
13, 46320, Note_on_c, 5, 53, 55
13, 46320, Note_on_c, 5, 62, 55
13, 46320, Note_on_c, 5, 58, 58
13, 46534, Note_on_c, 5, 58, 0
13, 46539, Note_on_c, 5, 53, 0
13, 46542, Note_on_c, 5, 62, 0
13, 46560, Note_on_c, 5, 60, 57
13, 46560, Note_on_c, 5, 55, 57
13, 46560, Note_on_c, 5, 52, 57
13, 46573, Note_on_c, 5, 55, 0
13, 46574, Note_on_c, 5, 52, 0
13, 46585, Note_on_c, 5, 60, 0
13, 46680, Note_on_c, 5, 55, 57
13, 46680, Note_on_c, 5, 60, 57
13, 46680, Note_on_c, 5, 52, 53
13, 46692, Note_on_c, 5, 52, 0
13, 46692, Note_on_c, 5, 55, 0
13, 46698, Note_on_c, 5, 60, 0
13, 46800, Note_on_c, 5, 60, 47
13, 46800, Note_on_c, 5, 55, 57
13, 46800, Note_on_c, 5, 52, 57
13, 46999, Note_on_c, 5, 52, 0
13, 47003, Note_on_c, 5, 55, 0
13, 47004, Note_on_c, 5, 60, 0
13, 47040, Note_on_c, 5, 60, 54
13, 47040, Note_on_c, 5, 55, 44
13, 47040, Note_on_c, 5, 52, 50
13, 47058, Note_on_c, 5, 52, 0
13, 47070, Note_on_c, 5, 55, 0
13, 47077, Note_on_c, 5, 60, 0
13, 47160, Note_on_c, 5, 60, 70
13, 47160, Note_on_c, 5, 55, 62
13, 47160, Note_on_c, 5, 52, 59
13, 47188, Note_on_c, 5, 55, 0
13, 47193, Note_on_c, 5, 52, 0
13, 47194, Note_on_c, 5, 60, 0
13, 47280, Note_on_c, 5, 55, 60
13, 47280, Note_on_c, 5, 60, 46
13, 47280, Note_on_c, 5, 52, 59
13, 47470, Note_on_c, 5, 52, 0
13, 47477, Note_on_c, 5, 55, 0
13, 47484, Note_on_c, 5, 60, 0
13, 47520, Note_on_c, 5, 62, 65
13, 47520, Note_on_c, 5, 57, 67
13, 47520, Note_on_c, 5, 53, 59
13, 47537, Note_on_c, 5, 53, 0
13, 47546, Note_on_c, 5, 57, 0
13, 47547, Note_on_c, 5, 62, 0
13, 47640, Note_on_c, 5, 53, 58
13, 47640, Note_on_c, 5, 62, 56
13, 47640, Note_on_c, 5, 57, 66
13, 47659, Note_on_c, 5, 57, 0
13, 47660, Note_on_c, 5, 53, 0
13, 47667, Note_on_c, 5, 62, 0
13, 47760, Note_on_c, 5, 57, 66
13, 47760, Note_on_c, 5, 62, 50
13, 47760, Note_on_c, 5, 53, 55
13, 47966, Note_on_c, 5, 53, 0
13, 47970, Note_on_c, 5, 57, 0
13, 47980, Note_on_c, 5, 62, 0
13, 48000, Note_on_c, 5, 58, 58
13, 48000, Note_on_c, 5, 53, 58
13, 48022, Note_on_c, 5, 53, 0
13, 48028, Note_on_c, 5, 58, 0
13, 48120, Note_on_c, 5, 62, 63
13, 48120, Note_on_c, 5, 58, 66
13, 48120, Note_on_c, 5, 53, 59
13, 48153, Note_on_c, 5, 62, 0
13, 48154, Note_on_c, 5, 53, 0
13, 48155, Note_on_c, 5, 58, 0
13, 48240, Note_on_c, 5, 53, 55
13, 48240, Note_on_c, 5, 62, 55
13, 48240, Note_on_c, 5, 58, 58
13, 48454, Note_on_c, 5, 58, 0
13, 48459, Note_on_c, 5, 53, 0
13, 48462, Note_on_c, 5, 62, 0
13, 48480, Note_on_c, 5, 60, 57
13, 48480, Note_on_c, 5, 55, 57
13, 48480, Note_on_c, 5, 52, 57
13, 48493, Note_on_c, 5, 55, 0
13, 48494, Note_on_c, 5, 52, 0
13, 48505, Note_on_c, 5, 60, 0
13, 48600, Note_on_c, 5, 55, 57
13, 48600, Note_on_c, 5, 60, 57
13, 48600, Note_on_c, 5, 52, 53
13, 48612, Note_on_c, 5, 52, 0
13, 48612, Note_on_c, 5, 55, 0
13, 48618, Note_on_c, 5, 60, 0
13, 48720, Note_on_c, 5, 60, 47
13, 48720, Note_on_c, 5, 55, 57
13, 48720, Note_on_c, 5, 52, 57
13, 48919, Note_on_c, 5, 52, 0
13, 48923, Note_on_c, 5, 55, 0
13, 48924, Note_on_c, 5, 60, 0
13, 48960, Note_on_c, 5, 60, 54
13, 48960, Note_on_c, 5, 55, 44
13, 48960, Note_on_c, 5, 52, 50
13, 48978, Note_on_c, 5, 52, 0
13, 48990, Note_on_c, 5, 55, 0
13, 48997, Note_on_c, 5, 60, 0
13, 49080, Note_on_c, 5, 60, 70
13, 49080, Note_on_c, 5, 55, 62
13, 49080, Note_on_c, 5, 52, 59
13, 49108, Note_on_c, 5, 55, 0
13, 49113, Note_on_c, 5, 52, 0
13, 49114, Note_on_c, 5, 60, 0
13, 49200, Note_on_c, 5, 55, 60
13, 49200, Note_on_c, 5, 60, 46
13, 49200, Note_on_c, 5, 52, 59
13, 49390, Note_on_c, 5, 52, 0
13, 49397, Note_on_c, 5, 55, 0
13, 49404, Note_on_c, 5, 60, 0
13, 49440, Note_on_c, 5, 62, 65
13, 49440, Note_on_c, 5, 57, 67
13, 49440, Note_on_c, 5, 53, 59
13, 49457, Note_on_c, 5, 53, 0
13, 49466, Note_on_c, 5, 57, 0
13, 49467, Note_on_c, 5, 62, 0
13, 49560, Note_on_c, 5, 53, 58
13, 49560, Note_on_c, 5, 62, 56
13, 49560, Note_on_c, 5, 57, 66
13, 49579, Note_on_c, 5, 57, 0
13, 49580, Note_on_c, 5, 53, 0
13, 49587, Note_on_c, 5, 62, 0
13, 49680, Note_on_c, 5, 57, 66
13, 49680, Note_on_c, 5, 62, 50
13, 49680, Note_on_c, 5, 53, 55
13, 49886, Note_on_c, 5, 53, 0
13, 49890, Note_on_c, 5, 57, 0
13, 49900, Note_on_c, 5, 62, 0
13, 49920, Note_on_c, 5, 58, 58
13, 49920, Note_on_c, 5, 53, 58
13, 49942, Note_on_c, 5, 53, 0
13, 49948, Note_on_c, 5, 58, 0
13, 50040, Note_on_c, 5, 62, 63
13, 50040, Note_on_c, 5, 58, 66
13, 50040, Note_on_c, 5, 53, 59
13, 50073, Note_on_c, 5, 62, 0
13, 50074, Note_on_c, 5, 53, 0
13, 50075, Note_on_c, 5, 58, 0
13, 50160, Note_on_c, 5, 53, 55
13, 50160, Note_on_c, 5, 62, 55
13, 50160, Note_on_c, 5, 58, 58
13, 50374, Note_on_c, 5, 58, 0
13, 50379, Note_on_c, 5, 53, 0
13, 50382, Note_on_c, 5, 62, 0
13, 50400, Note_on_c, 5, 60, 57
13, 50400, Note_on_c, 5, 55, 57
13, 50400, Note_on_c, 5, 52, 57
13, 50413, Note_on_c, 5, 55, 0
13, 50414, Note_on_c, 5, 52, 0
13, 50425, Note_on_c, 5, 60, 0
13, 50520, Note_on_c, 5, 55, 57
13, 50520, Note_on_c, 5, 60, 57
13, 50520, Note_on_c, 5, 52, 53
13, 50532, Note_on_c, 5, 52, 0
13, 50532, Note_on_c, 5, 55, 0
13, 50538, Note_on_c, 5, 60, 0
13, 50640, Note_on_c, 5, 60, 47
13, 50640, Note_on_c, 5, 55, 57
13, 50640, Note_on_c, 5, 52, 57
13, 50839, Note_on_c, 5, 52, 0
13, 50843, Note_on_c, 5, 55, 0
13, 50844, Note_on_c, 5, 60, 0
13, 50880, Note_on_c, 5, 60, 54
13, 50880, Note_on_c, 5, 55, 44
13, 50880, Note_on_c, 5, 52, 50
13, 50898, Note_on_c, 5, 52, 0
13, 50910, Note_on_c, 5, 55, 0
13, 50917, Note_on_c, 5, 60, 0
13, 51000, Note_on_c, 5, 60, 70
13, 51000, Note_on_c, 5, 55, 62
13, 51000, Note_on_c, 5, 52, 59
13, 51028, Note_on_c, 5, 55, 0
13, 51033, Note_on_c, 5, 52, 0
13, 51034, Note_on_c, 5, 60, 0
13, 51120, Note_on_c, 5, 55, 60
13, 51120, Note_on_c, 5, 60, 46
13, 51120, Note_on_c, 5, 52, 59
13, 51310, Note_on_c, 5, 52, 0
13, 51317, Note_on_c, 5, 55, 0
13, 51324, Note_on_c, 5, 60, 0
13, 51360, Note_on_c, 5, 62, 65
13, 51360, Note_on_c, 5, 57, 67
13, 51360, Note_on_c, 5, 53, 59
13, 51377, Note_on_c, 5, 53, 0
13, 51386, Note_on_c, 5, 57, 0
13, 51387, Note_on_c, 5, 62, 0
13, 51480, Note_on_c, 5, 53, 58
13, 51480, Note_on_c, 5, 62, 56
13, 51480, Note_on_c, 5, 57, 66
13, 51499, Note_on_c, 5, 57, 0
13, 51500, Note_on_c, 5, 53, 0
13, 51507, Note_on_c, 5, 62, 0
13, 51600, Note_on_c, 5, 57, 66
13, 51600, Note_on_c, 5, 62, 50
13, 51600, Note_on_c, 5, 53, 55
13, 51806, Note_on_c, 5, 53, 0
13, 51810, Note_on_c, 5, 57, 0
13, 51820, Note_on_c, 5, 62, 0
13, 51840, Note_on_c, 5, 58, 58
13, 51840, Note_on_c, 5, 53, 58
13, 51862, Note_on_c, 5, 53, 0
13, 51868, Note_on_c, 5, 58, 0
13, 51960, Note_on_c, 5, 62, 63
13, 51960, Note_on_c, 5, 58, 66
13, 51960, Note_on_c, 5, 53, 59
13, 51993, Note_on_c, 5, 62, 0
13, 51994, Note_on_c, 5, 53, 0
13, 51995, Note_on_c, 5, 58, 0
13, 52080, Note_on_c, 5, 53, 55
13, 52080, Note_on_c, 5, 62, 55
13, 52080, Note_on_c, 5, 58, 58
13, 52294, Note_on_c, 5, 58, 0
13, 52299, Note_on_c, 5, 53, 0
13, 52302, Note_on_c, 5, 62, 0
13, 52320, Note_on_c, 5, 60, 57
13, 52320, Note_on_c, 5, 55, 57
13, 52320, Note_on_c, 5, 52, 57
13, 52333, Note_on_c, 5, 55, 0
13, 52334, Note_on_c, 5, 52, 0
13, 52345, Note_on_c, 5, 60, 0
13, 52440, Note_on_c, 5, 55, 57
13, 52440, Note_on_c, 5, 60, 57
13, 52440, Note_on_c, 5, 52, 53
13, 52452, Note_on_c, 5, 52, 0
13, 52452, Note_on_c, 5, 55, 0
13, 52458, Note_on_c, 5, 60, 0
13, 52560, Note_on_c, 5, 60, 47
13, 52560, Note_on_c, 5, 55, 57
13, 52560, Note_on_c, 5, 52, 57
13, 52759, Note_on_c, 5, 52, 0
13, 52763, Note_on_c, 5, 55, 0
13, 52764, Note_on_c, 5, 60, 0
13, 52800, Note_on_c, 5, 60, 54
13, 52800, Note_on_c, 5, 55, 44
13, 52800, Note_on_c, 5, 52, 50
13, 52818, Note_on_c, 5, 52, 0
13, 52830, Note_on_c, 5, 55, 0
13, 52837, Note_on_c, 5, 60, 0
13, 52920, Note_on_c, 5, 60, 70
13, 52920, Note_on_c, 5, 55, 62
13, 52920, Note_on_c, 5, 52, 59
13, 52948, Note_on_c, 5, 55, 0
13, 52953, Note_on_c, 5, 52, 0
13, 52954, Note_on_c, 5, 60, 0
13, 53040, Note_on_c, 5, 55, 60
13, 53040, Note_on_c, 5, 60, 46
13, 53040, Note_on_c, 5, 52, 59
13, 53230, Note_on_c, 5, 52, 0
13, 53237, Note_on_c, 5, 55, 0
13, 53244, Note_on_c, 5, 60, 0
13, 53280, Note_on_c, 5, 62, 65
13, 53280, Note_on_c, 5, 57, 67
13, 53280, Note_on_c, 5, 53, 59
13, 53297, Note_on_c, 5, 53, 0
13, 53306, Note_on_c, 5, 57, 0
13, 53307, Note_on_c, 5, 62, 0
13, 53400, Note_on_c, 5, 53, 58
13, 53400, Note_on_c, 5, 62, 56
13, 53400, Note_on_c, 5, 57, 66
13, 53419, Note_on_c, 5, 57, 0
13, 53420, Note_on_c, 5, 53, 0
13, 53427, Note_on_c, 5, 62, 0
13, 53520, Note_on_c, 5, 57, 66
13, 53520, Note_on_c, 5, 62, 50
13, 53520, Note_on_c, 5, 53, 55
13, 53726, Note_on_c, 5, 53, 0
13, 53730, Note_on_c, 5, 57, 0
13, 53740, Note_on_c, 5, 62, 0
13, 53760, Note_on_c, 5, 58, 58
13, 53760, Note_on_c, 5, 53, 58
13, 53782, Note_on_c, 5, 53, 0
13, 53788, Note_on_c, 5, 58, 0
13, 53880, Note_on_c, 5, 62, 63
13, 53880, Note_on_c, 5, 58, 66
13, 53880, Note_on_c, 5, 53, 59
13, 53913, Note_on_c, 5, 62, 0
13, 53914, Note_on_c, 5, 53, 0
13, 53915, Note_on_c, 5, 58, 0
13, 54000, Note_on_c, 5, 53, 55
13, 54000, Note_on_c, 5, 62, 55
13, 54000, Note_on_c, 5, 58, 58
13, 54214, Note_on_c, 5, 58, 0
13, 54219, Note_on_c, 5, 53, 0
13, 54222, Note_on_c, 5, 62, 0
13, 54240, Note_on_c, 5, 60, 57
13, 54240, Note_on_c, 5, 55, 57
13, 54240, Note_on_c, 5, 52, 57
13, 54253, Note_on_c, 5, 55, 0
13, 54254, Note_on_c, 5, 52, 0
13, 54265, Note_on_c, 5, 60, 0
13, 54360, Note_on_c, 5, 55, 57
13, 54360, Note_on_c, 5, 60, 57
13, 54360, Note_on_c, 5, 52, 53
13, 54372, Note_on_c, 5, 52, 0
13, 54372, Note_on_c, 5, 55, 0
13, 54378, Note_on_c, 5, 60, 0
13, 54480, Note_on_c, 5, 60, 47
13, 54480, Note_on_c, 5, 55, 57
13, 54480, Note_on_c, 5, 52, 57
13, 54679, Note_on_c, 5, 52, 0
13, 54683, Note_on_c, 5, 55, 0
13, 54684, Note_on_c, 5, 60, 0
13, 54720, Note_on_c, 5, 60, 54
13, 54720, Note_on_c, 5, 55, 44
13, 54720, Note_on_c, 5, 52, 50
13, 54738, Note_on_c, 5, 52, 0
13, 54750, Note_on_c, 5, 55, 0
13, 54757, Note_on_c, 5, 60, 0
13, 54840, Note_on_c, 5, 60, 70
13, 54840, Note_on_c, 5, 55, 62
13, 54840, Note_on_c, 5, 52, 59
13, 54868, Note_on_c, 5, 55, 0
13, 54873, Note_on_c, 5, 52, 0
13, 54874, Note_on_c, 5, 60, 0
13, 54960, Note_on_c, 5, 55, 60
13, 54960, Note_on_c, 5, 60, 46
13, 54960, Note_on_c, 5, 52, 59
13, 55150, Note_on_c, 5, 52, 0
13, 55157, Note_on_c, 5, 55, 0
13, 55164, Note_on_c, 5, 60, 0
13, 55200, Note_on_c, 5, 62, 65
13, 55200, Note_on_c, 5, 57, 67
13, 55200, Note_on_c, 5, 53, 59
13, 55217, Note_on_c, 5, 53, 0
13, 55226, Note_on_c, 5, 57, 0
13, 55227, Note_on_c, 5, 62, 0
13, 55320, Note_on_c, 5, 53, 58
13, 55320, Note_on_c, 5, 62, 56
13, 55320, Note_on_c, 5, 57, 66
13, 55339, Note_on_c, 5, 57, 0
13, 55340, Note_on_c, 5, 53, 0
13, 55347, Note_on_c, 5, 62, 0
13, 55440, Note_on_c, 5, 57, 66
13, 55440, Note_on_c, 5, 62, 50
13, 55440, Note_on_c, 5, 53, 55
13, 55646, Note_on_c, 5, 53, 0
13, 55650, Note_on_c, 5, 57, 0
13, 55660, Note_on_c, 5, 62, 0
13, 55680, Note_on_c, 5, 58, 58
13, 55680, Note_on_c, 5, 53, 58
13, 55702, Note_on_c, 5, 53, 0
13, 55708, Note_on_c, 5, 58, 0
13, 55800, Note_on_c, 5, 62, 63
13, 55800, Note_on_c, 5, 58, 66
13, 55800, Note_on_c, 5, 53, 59
13, 55833, Note_on_c, 5, 62, 0
13, 55834, Note_on_c, 5, 53, 0
13, 55835, Note_on_c, 5, 58, 0
13, 55920, Note_on_c, 5, 53, 55
13, 55920, Note_on_c, 5, 62, 55
13, 55920, Note_on_c, 5, 58, 58
13, 56134, Note_on_c, 5, 58, 0
13, 56139, Note_on_c, 5, 53, 0
13, 56142, Note_on_c, 5, 62, 0
13, 56160, Note_on_c, 5, 60, 57
13, 56160, Note_on_c, 5, 55, 57
13, 56160, Note_on_c, 5, 52, 57
13, 56173, Note_on_c, 5, 55, 0
13, 56174, Note_on_c, 5, 52, 0
13, 56185, Note_on_c, 5, 60, 0
13, 56280, Note_on_c, 5, 55, 57
13, 56280, Note_on_c, 5, 60, 57
13, 56280, Note_on_c, 5, 52, 53
13, 56292, Note_on_c, 5, 52, 0
13, 56292, Note_on_c, 5, 55, 0
13, 56298, Note_on_c, 5, 60, 0
13, 56400, Note_on_c, 5, 60, 47
13, 56400, Note_on_c, 5, 55, 57
13, 56400, Note_on_c, 5, 52, 57
13, 56599, Note_on_c, 5, 52, 0
13, 56603, Note_on_c, 5, 55, 0
13, 56604, Note_on_c, 5, 60, 0
13, 56640, Note_on_c, 5, 60, 54
13, 56640, Note_on_c, 5, 55, 44
13, 56640, Note_on_c, 5, 52, 50
13, 56658, Note_on_c, 5, 52, 0
13, 56670, Note_on_c, 5, 55, 0
13, 56677, Note_on_c, 5, 60, 0
13, 56760, Note_on_c, 5, 60, 70
13, 56760, Note_on_c, 5, 55, 62
13, 56760, Note_on_c, 5, 52, 59
13, 56788, Note_on_c, 5, 55, 0
13, 56793, Note_on_c, 5, 52, 0
13, 56794, Note_on_c, 5, 60, 0
13, 56880, Note_on_c, 5, 55, 60
13, 56880, Note_on_c, 5, 60, 46
13, 56880, Note_on_c, 5, 52, 59
13, 57070, Note_on_c, 5, 52, 0
13, 57077, Note_on_c, 5, 55, 0
13, 57084, Note_on_c, 5, 60, 0
13, 57120, Note_on_c, 5, 62, 65
13, 57120, Note_on_c, 5, 57, 67
13, 57120, Note_on_c, 5, 53, 59
13, 57137, Note_on_c, 5, 53, 0
13, 57146, Note_on_c, 5, 57, 0
13, 57147, Note_on_c, 5, 62, 0
13, 57240, Note_on_c, 5, 53, 58
13, 57240, Note_on_c, 5, 62, 56
13, 57240, Note_on_c, 5, 57, 66
13, 57259, Note_on_c, 5, 57, 0
13, 57260, Note_on_c, 5, 53, 0
13, 57267, Note_on_c, 5, 62, 0
13, 57360, Note_on_c, 5, 57, 66
13, 57360, Note_on_c, 5, 62, 50
13, 57360, Note_on_c, 5, 53, 55
13, 57566, Note_on_c, 5, 53, 0
13, 57570, Note_on_c, 5, 57, 0
13, 57580, Note_on_c, 5, 62, 0
13, 57600, Note_on_c, 5, 58, 58
13, 57600, Note_on_c, 5, 53, 58
13, 57622, Note_on_c, 5, 53, 0
13, 57628, Note_on_c, 5, 58, 0
13, 57720, Note_on_c, 5, 62, 63
13, 57720, Note_on_c, 5, 58, 66
13, 57720, Note_on_c, 5, 53, 59
13, 57753, Note_on_c, 5, 62, 0
13, 57754, Note_on_c, 5, 53, 0
13, 57755, Note_on_c, 5, 58, 0
13, 57840, Note_on_c, 5, 53, 55
13, 57840, Note_on_c, 5, 62, 55
13, 57840, Note_on_c, 5, 58, 58
13, 58054, Note_on_c, 5, 58, 0
13, 58059, Note_on_c, 5, 53, 0
13, 58062, Note_on_c, 5, 62, 0
13, 58080, Note_on_c, 5, 60, 57
13, 58080, Note_on_c, 5, 55, 57
13, 58080, Note_on_c, 5, 52, 57
13, 58093, Note_on_c, 5, 55, 0
13, 58094, Note_on_c, 5, 52, 0
13, 58105, Note_on_c, 5, 60, 0
13, 58200, Note_on_c, 5, 55, 57
13, 58200, Note_on_c, 5, 60, 57
13, 58200, Note_on_c, 5, 52, 53
13, 58212, Note_on_c, 5, 52, 0
13, 58212, Note_on_c, 5, 55, 0
13, 58218, Note_on_c, 5, 60, 0
13, 58320, Note_on_c, 5, 60, 47
13, 58320, Note_on_c, 5, 55, 57
13, 58320, Note_on_c, 5, 52, 57
13, 58519, Note_on_c, 5, 52, 0
13, 58523, Note_on_c, 5, 55, 0
13, 58524, Note_on_c, 5, 60, 0
13, 58560, Note_on_c, 5, 60, 54
13, 58560, Note_on_c, 5, 55, 44
13, 58560, Note_on_c, 5, 52, 50
13, 58578, Note_on_c, 5, 52, 0
13, 58590, Note_on_c, 5, 55, 0
13, 58597, Note_on_c, 5, 60, 0
13, 58680, Note_on_c, 5, 60, 70
13, 58680, Note_on_c, 5, 55, 62
13, 58680, Note_on_c, 5, 52, 59
13, 58708, Note_on_c, 5, 55, 0
13, 58713, Note_on_c, 5, 52, 0
13, 58714, Note_on_c, 5, 60, 0
13, 58800, Note_on_c, 5, 55, 60
13, 58800, Note_on_c, 5, 60, 46
13, 58800, Note_on_c, 5, 52, 59
13, 58990, Note_on_c, 5, 52, 0
13, 58997, Note_on_c, 5, 55, 0
13, 59004, Note_on_c, 5, 60, 0
13, 59040, Note_on_c, 5, 62, 65
13, 59040, Note_on_c, 5, 57, 67
13, 59040, Note_on_c, 5, 53, 59
13, 59057, Note_on_c, 5, 53, 0
13, 59066, Note_on_c, 5, 57, 0
13, 59067, Note_on_c, 5, 62, 0
13, 59160, Note_on_c, 5, 53, 58
13, 59160, Note_on_c, 5, 62, 56
13, 59160, Note_on_c, 5, 57, 66
13, 59179, Note_on_c, 5, 57, 0
13, 59180, Note_on_c, 5, 53, 0
13, 59187, Note_on_c, 5, 62, 0
13, 59280, Note_on_c, 5, 57, 66
13, 59280, Note_on_c, 5, 62, 50
13, 59280, Note_on_c, 5, 53, 55
13, 59486, Note_on_c, 5, 53, 0
13, 59490, Note_on_c, 5, 57, 0
13, 59500, Note_on_c, 5, 62, 0
13, 59520, Note_on_c, 5, 58, 58
13, 59520, Note_on_c, 5, 53, 58
13, 59542, Note_on_c, 5, 53, 0
13, 59548, Note_on_c, 5, 58, 0
13, 59640, Note_on_c, 5, 62, 63
13, 59640, Note_on_c, 5, 58, 66
13, 59640, Note_on_c, 5, 53, 59
13, 59673, Note_on_c, 5, 62, 0
13, 59674, Note_on_c, 5, 53, 0
13, 59675, Note_on_c, 5, 58, 0
13, 59760, Note_on_c, 5, 53, 55
13, 59760, Note_on_c, 5, 62, 55
13, 59760, Note_on_c, 5, 58, 58
13, 59974, Note_on_c, 5, 58, 0
13, 59979, Note_on_c, 5, 53, 0
13, 59982, Note_on_c, 5, 62, 0
13, 60000, Note_on_c, 5, 60, 57
13, 60000, Note_on_c, 5, 55, 57
13, 60000, Note_on_c, 5, 52, 57
13, 60013, Note_on_c, 5, 55, 0
13, 60014, Note_on_c, 5, 52, 0
13, 60025, Note_on_c, 5, 60, 0
13, 60120, Note_on_c, 5, 55, 57
13, 60120, Note_on_c, 5, 60, 57
13, 60120, Note_on_c, 5, 52, 53
13, 60132, Note_on_c, 5, 52, 0
13, 60132, Note_on_c, 5, 55, 0
13, 60138, Note_on_c, 5, 60, 0
13, 60240, Note_on_c, 5, 60, 47
13, 60240, Note_on_c, 5, 55, 57
13, 60240, Note_on_c, 5, 52, 57
13, 60439, Note_on_c, 5, 52, 0
13, 60443, Note_on_c, 5, 55, 0
13, 60444, Note_on_c, 5, 60, 0
13, 60480, Note_on_c, 5, 60, 54
13, 60480, Note_on_c, 5, 55, 44
13, 60480, Note_on_c, 5, 52, 50
13, 60498, Note_on_c, 5, 52, 0
13, 60510, Note_on_c, 5, 55, 0
13, 60517, Note_on_c, 5, 60, 0
13, 60600, Note_on_c, 5, 60, 70
13, 60600, Note_on_c, 5, 55, 62
13, 60600, Note_on_c, 5, 52, 59
13, 60628, Note_on_c, 5, 55, 0
13, 60633, Note_on_c, 5, 52, 0
13, 60634, Note_on_c, 5, 60, 0
13, 60720, Note_on_c, 5, 55, 60
13, 60720, Note_on_c, 5, 60, 46
13, 60720, Note_on_c, 5, 52, 59
13, 60910, Note_on_c, 5, 52, 0
13, 60917, Note_on_c, 5, 55, 0
13, 60924, Note_on_c, 5, 60, 0
13, 60960, Note_on_c, 5, 62, 65
13, 60960, Note_on_c, 5, 57, 67
13, 60960, Note_on_c, 5, 53, 59
13, 60977, Note_on_c, 5, 53, 0
13, 60986, Note_on_c, 5, 57, 0
13, 60987, Note_on_c, 5, 62, 0
13, 61080, Note_on_c, 5, 53, 58
13, 61080, Note_on_c, 5, 62, 56
13, 61080, Note_on_c, 5, 57, 66
13, 61099, Note_on_c, 5, 57, 0
13, 61100, Note_on_c, 5, 53, 0
13, 61107, Note_on_c, 5, 62, 0
13, 61200, Note_on_c, 5, 57, 66
13, 61200, Note_on_c, 5, 62, 50
13, 61200, Note_on_c, 5, 53, 55
13, 61406, Note_on_c, 5, 53, 0
13, 61410, Note_on_c, 5, 57, 0
13, 61420, Note_on_c, 5, 62, 0
13, 61440, Note_on_c, 5, 58, 58
13, 61440, Note_on_c, 5, 53, 58
13, 61462, Note_on_c, 5, 53, 0
13, 61468, Note_on_c, 5, 58, 0
13, 61560, Note_on_c, 5, 62, 63
13, 61560, Note_on_c, 5, 58, 66
13, 61560, Note_on_c, 5, 53, 59
13, 61593, Note_on_c, 5, 62, 0
13, 61594, Note_on_c, 5, 53, 0
13, 61595, Note_on_c, 5, 58, 0
13, 61680, Note_on_c, 5, 53, 55
13, 61680, Note_on_c, 5, 62, 55
13, 61680, Note_on_c, 5, 58, 58
13, 61894, Note_on_c, 5, 58, 0
13, 61899, Note_on_c, 5, 53, 0
13, 61902, Note_on_c, 5, 62, 0
13, 61920, Note_on_c, 5, 60, 57
13, 61920, Note_on_c, 5, 55, 57
13, 61920, Note_on_c, 5, 52, 57
13, 61933, Note_on_c, 5, 55, 0
13, 61934, Note_on_c, 5, 52, 0
13, 61945, Note_on_c, 5, 60, 0
13, 62040, Note_on_c, 5, 55, 57
13, 62040, Note_on_c, 5, 60, 57
13, 62040, Note_on_c, 5, 52, 53
13, 62052, Note_on_c, 5, 52, 0
13, 62052, Note_on_c, 5, 55, 0
13, 62058, Note_on_c, 5, 60, 0
13, 62160, Note_on_c, 5, 60, 47
13, 62160, Note_on_c, 5, 55, 57
13, 62160, Note_on_c, 5, 52, 57
13, 62359, Note_on_c, 5, 52, 0
13, 62363, Note_on_c, 5, 55, 0
13, 62364, Note_on_c, 5, 60, 0
13, 62400, Note_on_c, 5, 60, 54
13, 62400, Note_on_c, 5, 55, 44
13, 62400, Note_on_c, 5, 52, 50
13, 62418, Note_on_c, 5, 52, 0
13, 62430, Note_on_c, 5, 55, 0
13, 62437, Note_on_c, 5, 60, 0
13, 62520, Note_on_c, 5, 60, 70
13, 62520, Note_on_c, 5, 55, 62
13, 62520, Note_on_c, 5, 52, 59
13, 62548, Note_on_c, 5, 55, 0
13, 62553, Note_on_c, 5, 52, 0
13, 62554, Note_on_c, 5, 60, 0
13, 62640, Note_on_c, 5, 55, 60
13, 62640, Note_on_c, 5, 60, 46
13, 62640, Note_on_c, 5, 52, 59
13, 62830, Note_on_c, 5, 52, 0
13, 62837, Note_on_c, 5, 55, 0
13, 62844, Note_on_c, 5, 60, 0
13, 62880, Note_on_c, 5, 62, 65
13, 62880, Note_on_c, 5, 57, 67
13, 62880, Note_on_c, 5, 53, 59
13, 62897, Note_on_c, 5, 53, 0
13, 62906, Note_on_c, 5, 57, 0
13, 62907, Note_on_c, 5, 62, 0
13, 63000, Note_on_c, 5, 53, 58
13, 63000, Note_on_c, 5, 62, 56
13, 63000, Note_on_c, 5, 57, 66
13, 63019, Note_on_c, 5, 57, 0
13, 63020, Note_on_c, 5, 53, 0
13, 63027, Note_on_c, 5, 62, 0
13, 63120, Note_on_c, 5, 57, 66
13, 63120, Note_on_c, 5, 62, 50
13, 63120, Note_on_c, 5, 53, 55
13, 63326, Note_on_c, 5, 53, 0
13, 63330, Note_on_c, 5, 57, 0
13, 63340, Note_on_c, 5, 62, 0
13, 63360, Note_on_c, 5, 58, 58
13, 63360, Note_on_c, 5, 53, 58
13, 63382, Note_on_c, 5, 53, 0
13, 63388, Note_on_c, 5, 58, 0
13, 63480, Note_on_c, 5, 62, 63
13, 63480, Note_on_c, 5, 58, 66
13, 63480, Note_on_c, 5, 53, 59
13, 63513, Note_on_c, 5, 62, 0
13, 63514, Note_on_c, 5, 53, 0
13, 63515, Note_on_c, 5, 58, 0
13, 63600, Note_on_c, 5, 53, 55
13, 63600, Note_on_c, 5, 62, 55
13, 63600, Note_on_c, 5, 58, 58
13, 63814, Note_on_c, 5, 58, 0
13, 63819, Note_on_c, 5, 53, 0
13, 63822, Note_on_c, 5, 62, 0
13, 63840, Note_on_c, 5, 60, 57
13, 63840, Note_on_c, 5, 55, 57
13, 63840, Note_on_c, 5, 52, 57
13, 63853, Note_on_c, 5, 55, 0
13, 63854, Note_on_c, 5, 52, 0
13, 63865, Note_on_c, 5, 60, 0
13, 63960, Note_on_c, 5, 55, 57
13, 63960, Note_on_c, 5, 60, 57
13, 63960, Note_on_c, 5, 52, 53
13, 63972, Note_on_c, 5, 52, 0
13, 63972, Note_on_c, 5, 55, 0
13, 63978, Note_on_c, 5, 60, 0
13, 64080, Note_on_c, 5, 60, 47
13, 64080, Note_on_c, 5, 55, 57
13, 64080, Note_on_c, 5, 52, 57
13, 64279, Note_on_c, 5, 52, 0
13, 64283, Note_on_c, 5, 55, 0
13, 64284, Note_on_c, 5, 60, 0
13, 64320, Note_on_c, 5, 60, 54
13, 64320, Note_on_c, 5, 55, 44
13, 64320, Note_on_c, 5, 52, 50
13, 64338, Note_on_c, 5, 52, 0
13, 64350, Note_on_c, 5, 55, 0
13, 64357, Note_on_c, 5, 60, 0
13, 64440, Note_on_c, 5, 60, 70
13, 64440, Note_on_c, 5, 55, 62
13, 64440, Note_on_c, 5, 52, 59
13, 64468, Note_on_c, 5, 55, 0
13, 64473, Note_on_c, 5, 52, 0
13, 64474, Note_on_c, 5, 60, 0
13, 64560, Note_on_c, 5, 55, 60
13, 64560, Note_on_c, 5, 60, 46
13, 64560, Note_on_c, 5, 52, 59
13, 64750, Note_on_c, 5, 52, 0
13, 64757, Note_on_c, 5, 55, 0
13, 64764, Note_on_c, 5, 60, 0
13, 64800, Note_on_c, 5, 62, 65
13, 64800, Note_on_c, 5, 57, 67
13, 64800, Note_on_c, 5, 53, 59
13, 64817, Note_on_c, 5, 53, 0
13, 64826, Note_on_c, 5, 57, 0
13, 64827, Note_on_c, 5, 62, 0
13, 64920, Note_on_c, 5, 53, 58
13, 64920, Note_on_c, 5, 62, 56
13, 64920, Note_on_c, 5, 57, 66
13, 64939, Note_on_c, 5, 57, 0
13, 64940, Note_on_c, 5, 53, 0
13, 64947, Note_on_c, 5, 62, 0
13, 65040, Note_on_c, 5, 57, 66
13, 65040, Note_on_c, 5, 62, 50
13, 65040, Note_on_c, 5, 53, 55
13, 65246, Note_on_c, 5, 53, 0
13, 65250, Note_on_c, 5, 57, 0
13, 65260, Note_on_c, 5, 62, 0
13, 65280, Note_on_c, 5, 58, 58
13, 65280, Note_on_c, 5, 53, 58
13, 65302, Note_on_c, 5, 53, 0
13, 65308, Note_on_c, 5, 58, 0
13, 65400, Note_on_c, 5, 62, 63
13, 65400, Note_on_c, 5, 58, 66
13, 65400, Note_on_c, 5, 53, 59
13, 65433, Note_on_c, 5, 62, 0
13, 65434, Note_on_c, 5, 53, 0
13, 65435, Note_on_c, 5, 58, 0
13, 65520, Note_on_c, 5, 53, 55
13, 65520, Note_on_c, 5, 62, 55
13, 65520, Note_on_c, 5, 58, 58
13, 65734, Note_on_c, 5, 58, 0
13, 65739, Note_on_c, 5, 53, 0
13, 65742, Note_on_c, 5, 62, 0
13, 65760, Note_on_c, 5, 60, 57
13, 65760, Note_on_c, 5, 55, 57
13, 65760, Note_on_c, 5, 52, 57
13, 65773, Note_on_c, 5, 55, 0
13, 65774, Note_on_c, 5, 52, 0
13, 65785, Note_on_c, 5, 60, 0
13, 65880, Note_on_c, 5, 55, 57
13, 65880, Note_on_c, 5, 60, 57
13, 65880, Note_on_c, 5, 52, 53
13, 65892, Note_on_c, 5, 52, 0
13, 65892, Note_on_c, 5, 55, 0
13, 65898, Note_on_c, 5, 60, 0
13, 66000, Note_on_c, 5, 60, 47
13, 66000, Note_on_c, 5, 55, 57
13, 66000, Note_on_c, 5, 52, 57
13, 66199, Note_on_c, 5, 52, 0
13, 66203, Note_on_c, 5, 55, 0
13, 66204, Note_on_c, 5, 60, 0
13, 66240, Note_on_c, 5, 60, 54
13, 66240, Note_on_c, 5, 55, 44
13, 66240, Note_on_c, 5, 52, 50
13, 66258, Note_on_c, 5, 52, 0
13, 66270, Note_on_c, 5, 55, 0
13, 66277, Note_on_c, 5, 60, 0
13, 66360, Note_on_c, 5, 60, 70
13, 66360, Note_on_c, 5, 55, 62
13, 66360, Note_on_c, 5, 52, 59
13, 66388, Note_on_c, 5, 55, 0
13, 66393, Note_on_c, 5, 52, 0
13, 66394, Note_on_c, 5, 60, 0
13, 66480, Note_on_c, 5, 55, 60
13, 66480, Note_on_c, 5, 60, 46
13, 66480, Note_on_c, 5, 52, 59
13, 66670, Note_on_c, 5, 52, 0
13, 66677, Note_on_c, 5, 55, 0
13, 66684, Note_on_c, 5, 60, 0
13, 66720, Note_on_c, 5, 62, 63
13, 66720, Note_on_c, 5, 57, 65
13, 66720, Note_on_c, 5, 53, 57
13, 66737, Note_on_c, 5, 53, 0
13, 66746, Note_on_c, 5, 57, 0
13, 66747, Note_on_c, 5, 62, 0
13, 66840, Note_on_c, 5, 53, 56
13, 66840, Note_on_c, 5, 62, 54
13, 66840, Note_on_c, 5, 57, 64
13, 66859, Note_on_c, 5, 57, 0
13, 66860, Note_on_c, 5, 53, 0
13, 66867, Note_on_c, 5, 62, 0
13, 66960, Note_on_c, 5, 57, 63
13, 66960, Note_on_c, 5, 62, 48
13, 66960, Note_on_c, 5, 53, 52
13, 67166, Note_on_c, 5, 53, 0
13, 67170, Note_on_c, 5, 57, 0
13, 67180, Note_on_c, 5, 62, 0
13, 67200, Note_on_c, 5, 58, 54
13, 67200, Note_on_c, 5, 53, 54
13, 67222, Note_on_c, 5, 53, 0
13, 67228, Note_on_c, 5, 58, 0
13, 67320, Note_on_c, 5, 62, 57
13, 67320, Note_on_c, 5, 58, 60
13, 67320, Note_on_c, 5, 53, 54
13, 67353, Note_on_c, 5, 62, 0
13, 67354, Note_on_c, 5, 53, 0
13, 67355, Note_on_c, 5, 58, 0
13, 67440, Note_on_c, 5, 53, 50
13, 67440, Note_on_c, 5, 62, 50
13, 67440, Note_on_c, 5, 58, 52
13, 67654, Note_on_c, 5, 58, 0
13, 67659, Note_on_c, 5, 53, 0
13, 67662, Note_on_c, 5, 62, 0
13, 67680, Note_on_c, 5, 60, 50
13, 67680, Note_on_c, 5, 55, 50
13, 67680, Note_on_c, 5, 52, 50
13, 67693, Note_on_c, 5, 55, 0
13, 67694, Note_on_c, 5, 52, 0
13, 67705, Note_on_c, 5, 60, 0
13, 67800, Note_on_c, 5, 55, 50
13, 67800, Note_on_c, 5, 60, 50
13, 67800, Note_on_c, 5, 52, 46
13, 67812, Note_on_c, 5, 52, 0
13, 67812, Note_on_c, 5, 55, 0
13, 67818, Note_on_c, 5, 60, 0
13, 67920, Note_on_c, 5, 60, 40
13, 67920, Note_on_c, 5, 55, 49
13, 67920, Note_on_c, 5, 52, 49
13, 68119, Note_on_c, 5, 52, 0
13, 68123, Note_on_c, 5, 55, 0
13, 68124, Note_on_c, 5, 60, 0
13, 68160, Note_on_c, 5, 60, 45
13, 68160, Note_on_c, 5, 55, 36
13, 68160, Note_on_c, 5, 52, 42
13, 68178, Note_on_c, 5, 52, 0
13, 68190, Note_on_c, 5, 55, 0
13, 68197, Note_on_c, 5, 60, 0
13, 68280, Note_on_c, 5, 60, 58
13, 68280, Note_on_c, 5, 55, 51
13, 68280, Note_on_c, 5, 52, 48
13, 68308, Note_on_c, 5, 55, 0
13, 68313, Note_on_c, 5, 52, 0
13, 68314, Note_on_c, 5, 60, 0
13, 68400, Note_on_c, 5, 55, 48
13, 68400, Note_on_c, 5, 60, 37
13, 68400, Note_on_c, 5, 52, 47
13, 68590, Note_on_c, 5, 52, 0
13, 68597, Note_on_c, 5, 55, 0
13, 68604, Note_on_c, 5, 60, 0
13, 68640, Note_on_c, 5, 62, 51
13, 68640, Note_on_c, 5, 57, 52
13, 68640, Note_on_c, 5, 53, 46
13, 68657, Note_on_c, 5, 53, 0
13, 68666, Note_on_c, 5, 57, 0
13, 68667, Note_on_c, 5, 62, 0
13, 68760, Note_on_c, 5, 53, 45
13, 68760, Note_on_c, 5, 62, 43
13, 68760, Note_on_c, 5, 57, 51
13, 68779, Note_on_c, 5, 57, 0
13, 68780, Note_on_c, 5, 53, 0
13, 68787, Note_on_c, 5, 62, 0
13, 68880, Note_on_c, 5, 57, 50
13, 68880, Note_on_c, 5, 62, 38
13, 68880, Note_on_c, 5, 53, 42
13, 69086, Note_on_c, 5, 53, 0
13, 69090, Note_on_c, 5, 57, 0
13, 69100, Note_on_c, 5, 62, 0
13, 69120, Note_on_c, 5, 58, 42
13, 69120, Note_on_c, 5, 53, 42
13, 69142, Note_on_c, 5, 53, 0
13, 69148, Note_on_c, 5, 58, 0
13, 69240, Note_on_c, 5, 62, 45
13, 69240, Note_on_c, 5, 58, 48
13, 69240, Note_on_c, 5, 53, 43
13, 69273, Note_on_c, 5, 62, 0
13, 69274, Note_on_c, 5, 53, 0
13, 69275, Note_on_c, 5, 58, 0
13, 69360, Note_on_c, 5, 53, 39
13, 69360, Note_on_c, 5, 62, 39
13, 69360, Note_on_c, 5, 58, 41
13, 69574, Note_on_c, 5, 58, 0
13, 69579, Note_on_c, 5, 53, 0
13, 69582, Note_on_c, 5, 62, 0
13, 69600, Note_on_c, 5, 60, 39
13, 69600, Note_on_c, 5, 55, 39
13, 69600, Note_on_c, 5, 52, 39
13, 69613, Note_on_c, 5, 55, 0
13, 69614, Note_on_c, 5, 52, 0
13, 69625, Note_on_c, 5, 60, 0
13, 69720, Note_on_c, 5, 55, 38
13, 69720, Note_on_c, 5, 60, 38
13, 69720, Note_on_c, 5, 52, 36
13, 69732, Note_on_c, 5, 52, 0
13, 69732, Note_on_c, 5, 55, 0
13, 69738, Note_on_c, 5, 60, 0
13, 69840, Note_on_c, 5, 60, 31
13, 69840, Note_on_c, 5, 55, 38
13, 69840, Note_on_c, 5, 52, 38
13, 70039, Note_on_c, 5, 52, 0
13, 70043, Note_on_c, 5, 55, 0
13, 70044, Note_on_c, 5, 60, 0
13, 70080, Note_on_c, 5, 60, 34
13, 70080, Note_on_c, 5, 55, 28
13, 70080, Note_on_c, 5, 52, 32
13, 70098, Note_on_c, 5, 52, 0
13, 70110, Note_on_c, 5, 55, 0
13, 70117, Note_on_c, 5, 60, 0
13, 70200, Note_on_c, 5, 60, 44
13, 70200, Note_on_c, 5, 55, 39
13, 70200, Note_on_c, 5, 52, 37
13, 70228, Note_on_c, 5, 55, 0
13, 70233, Note_on_c, 5, 52, 0
13, 70234, Note_on_c, 5, 60, 0
13, 70320, Note_on_c, 5, 55, 37
13, 70320, Note_on_c, 5, 60, 28
13, 70320, Note_on_c, 5, 52, 36
13, 70510, Note_on_c, 5, 52, 0
13, 70517, Note_on_c, 5, 55, 0
13, 70524, Note_on_c, 5, 60, 0
13, 70560, Note_on_c, 5, 62, 38
13, 70560, Note_on_c, 5, 57, 39
13, 70560, Note_on_c, 5, 53, 34
13, 70577, Note_on_c, 5, 53, 0
13, 70586, Note_on_c, 5, 57, 0
13, 70587, Note_on_c, 5, 62, 0
13, 70680, Note_on_c, 5, 53, 33
13, 70680, Note_on_c, 5, 62, 32
13, 70680, Note_on_c, 5, 57, 38
13, 70699, Note_on_c, 5, 57, 0
13, 70700, Note_on_c, 5, 53, 0
13, 70707, Note_on_c, 5, 62, 0
13, 70800, Note_on_c, 5, 57, 37
13, 70800, Note_on_c, 5, 62, 28
13, 70800, Note_on_c, 5, 53, 31
13, 71006, Note_on_c, 5, 53, 0
13, 71010, Note_on_c, 5, 57, 0
13, 71020, Note_on_c, 5, 62, 0
13, 71040, Note_on_c, 5, 58, 31
13, 71040, Note_on_c, 5, 53, 31
13, 71062, Note_on_c, 5, 53, 0
13, 71068, Note_on_c, 5, 58, 0
13, 71160, Note_on_c, 5, 62, 33
13, 71160, Note_on_c, 5, 58, 34
13, 71160, Note_on_c, 5, 53, 31
13, 71193, Note_on_c, 5, 62, 0
13, 71194, Note_on_c, 5, 53, 0
13, 71195, Note_on_c, 5, 58, 0
13, 71280, Note_on_c, 5, 53, 28
13, 71280, Note_on_c, 5, 62, 28
13, 71280, Note_on_c, 5, 58, 30
13, 71494, Note_on_c, 5, 58, 0
13, 71499, Note_on_c, 5, 53, 0
13, 71502, Note_on_c, 5, 62, 0
13, 71520, Note_on_c, 5, 60, 28
13, 71520, Note_on_c, 5, 55, 28
13, 71520, Note_on_c, 5, 52, 28
13, 71533, Note_on_c, 5, 55, 0
13, 71534, Note_on_c, 5, 52, 0
13, 71545, Note_on_c, 5, 60, 0
13, 71640, Note_on_c, 5, 55, 27
13, 71640, Note_on_c, 5, 60, 27
13, 71640, Note_on_c, 5, 52, 25
13, 71652, Note_on_c, 5, 52, 0
13, 71652, Note_on_c, 5, 55, 0
13, 71658, Note_on_c, 5, 60, 0
13, 71760, Note_on_c, 5, 60, 22
13, 71760, Note_on_c, 5, 55, 26
13, 71760, Note_on_c, 5, 52, 26
13, 71959, Note_on_c, 5, 52, 0
13, 71963, Note_on_c, 5, 55, 0
13, 71964, Note_on_c, 5, 60, 0
13, 72000, Note_on_c, 5, 60, 24
13, 72000, Note_on_c, 5, 55, 19
13, 72000, Note_on_c, 5, 52, 22
13, 72018, Note_on_c, 5, 52, 0
13, 72030, Note_on_c, 5, 55, 0
13, 72037, Note_on_c, 5, 60, 0
13, 72120, Note_on_c, 5, 60, 30
13, 72120, Note_on_c, 5, 55, 27
13, 72120, Note_on_c, 5, 52, 25
13, 72148, Note_on_c, 5, 55, 0
13, 72153, Note_on_c, 5, 52, 0
13, 72154, Note_on_c, 5, 60, 0
13, 72240, Note_on_c, 5, 55, 25
13, 72240, Note_on_c, 5, 60, 19
13, 72240, Note_on_c, 5, 52, 24
13, 72430, Note_on_c, 5, 52, 0
13, 72437, Note_on_c, 5, 55, 0
13, 72444, Note_on_c, 5, 60, 0
13, 72480, Note_on_c, 5, 62, 26
13, 72480, Note_on_c, 5, 57, 26
13, 72480, Note_on_c, 5, 53, 23
13, 72497, Note_on_c, 5, 53, 0
13, 72506, Note_on_c, 5, 57, 0
13, 72507, Note_on_c, 5, 62, 0
13, 72600, Note_on_c, 5, 53, 22
13, 72600, Note_on_c, 5, 62, 21
13, 72600, Note_on_c, 5, 57, 25
13, 72619, Note_on_c, 5, 57, 0
13, 72620, Note_on_c, 5, 53, 0
13, 72627, Note_on_c, 5, 62, 0
13, 72720, Note_on_c, 5, 57, 24
13, 72720, Note_on_c, 5, 62, 18
13, 72720, Note_on_c, 5, 53, 20
13, 72926, Note_on_c, 5, 53, 0
13, 72930, Note_on_c, 5, 57, 0
13, 72940, Note_on_c, 5, 62, 0
13, 72960, Note_on_c, 5, 58, 20
13, 72960, Note_on_c, 5, 53, 20
13, 72982, Note_on_c, 5, 53, 0
13, 72988, Note_on_c, 5, 58, 0
13, 73080, Note_on_c, 5, 62, 21
13, 73080, Note_on_c, 5, 58, 22
13, 73080, Note_on_c, 5, 53, 20
13, 73113, Note_on_c, 5, 62, 0
13, 73114, Note_on_c, 5, 53, 0
13, 73115, Note_on_c, 5, 58, 0
13, 73200, Note_on_c, 5, 53, 18
13, 73200, Note_on_c, 5, 62, 18
13, 73200, Note_on_c, 5, 58, 19
13, 73414, Note_on_c, 5, 58, 0
13, 73419, Note_on_c, 5, 53, 0
13, 73422, Note_on_c, 5, 62, 0
13, 73440, Note_on_c, 5, 60, 17
13, 73440, Note_on_c, 5, 55, 17
13, 73440, Note_on_c, 5, 52, 17
13, 73453, Note_on_c, 5, 55, 0
13, 73454, Note_on_c, 5, 52, 0
13, 73465, Note_on_c, 5, 60, 0
13, 73560, Note_on_c, 5, 55, 16
13, 73560, Note_on_c, 5, 60, 16
13, 73560, Note_on_c, 5, 52, 15
13, 73572, Note_on_c, 5, 52, 0
13, 73572, Note_on_c, 5, 55, 0
13, 73578, Note_on_c, 5, 60, 0
13, 73680, Note_on_c, 5, 60, 13
13, 73680, Note_on_c, 5, 55, 15
13, 73680, Note_on_c, 5, 52, 15
13, 73879, Note_on_c, 5, 52, 0
13, 73883, Note_on_c, 5, 55, 0
13, 73884, Note_on_c, 5, 60, 0
13, 73920, Note_on_c, 5, 60, 11
13, 73920, Note_on_c, 5, 55, 9
13, 73920, Note_on_c, 5, 52, 10
13, 73938, Note_on_c, 5, 52, 0
13, 73950, Note_on_c, 5, 55, 0
13, 73957, Note_on_c, 5, 60, 0
13, 74040, Note_on_c, 5, 60, 13
13, 74040, Note_on_c, 5, 55, 11
13, 74040, Note_on_c, 5, 52, 11
13, 74068, Note_on_c, 5, 55, 0
13, 74073, Note_on_c, 5, 52, 0
13, 74074, Note_on_c, 5, 60, 0
13, 74160, Note_on_c, 5, 55, 9
13, 74160, Note_on_c, 5, 60, 6
13, 74160, Note_on_c, 5, 52, 9
13, 74350, Note_on_c, 5, 52, 0
13, 74357, Note_on_c, 5, 55, 0
13, 74364, Note_on_c, 5, 60, 0
13, 74400, Note_on_c, 5, 62, 7
13, 74400, Note_on_c, 5, 57, 7
13, 74400, Note_on_c, 5, 53, 5
13, 74417, Note_on_c, 5, 53, 0
13, 74426, Note_on_c, 5, 57, 0
13, 74427, Note_on_c, 5, 62, 0
13, 74520, Note_on_c, 5, 53, 5
13, 74520, Note_on_c, 5, 62, 4
13, 74520, Note_on_c, 5, 57, 5
13, 74539, Note_on_c, 5, 57, 0
13, 74540, Note_on_c, 5, 53, 0
13, 74547, Note_on_c, 5, 62, 0
13, 74640, Note_on_c, 5, 57, 4
13, 74640, Note_on_c, 5, 62, 3
13, 74640, Note_on_c, 5, 53, 3
13, 74846, Note_on_c, 5, 53, 0
13, 74850, Note_on_c, 5, 57, 0
13, 74860, Note_on_c, 5, 62, 0
13, 74880, Note_on_c, 5, 58, 2
13, 74880, Note_on_c, 5, 53, 2
13, 74902, Note_on_c, 5, 53, 0
13, 74908, Note_on_c, 5, 58, 0
13, 75000, Note_on_c, 5, 62, 1
13, 75000, Note_on_c, 5, 58, 1
13, 75000, Note_on_c, 5, 53, 1
13, 75033, Note_on_c, 5, 62, 0
13, 75034, Note_on_c, 5, 53, 0
13, 75035, Note_on_c, 5, 58, 0
13, 75120, Note_on_c, 5, 53, 1
13, 75120, Note_on_c, 5, 62, 1
13, 75120, Note_on_c, 5, 58, 1
13, 75334, Note_on_c, 5, 58, 0
13, 75339, Note_on_c, 5, 53, 0
13, 75342, Note_on_c, 5, 62, 0
13, 75342, End_track
14, 0, Start_track
14, 84, Control_c, 6, 1, 0
14, 150, Control_c, 6, 0, 0
14, 151, Control_c, 6, 32, 3
14, 152, Program_c, 6, 30
14, 153, Control_c, 6, 7, 102
14, 153, Control_c, 6, 10, 64
14, 168, Control_c, 6, 64, 0
14, 189, Control_c, 6, 0, 0
14, 190, Control_c, 6, 32, 0
14, 191, Program_c, 6, 30
14, 194, Control_c, 6, 0, 0
14, 195, Control_c, 6, 32, 3
14, 196, Program_c, 6, 30
14, 252, Control_c, 6, 11, 127
14, 336, Pitch_bend_c, 6, 8192
14, 420, Control_c, 6, 91, 81
14, 504, Control_c, 6, 93, 16
14, 588, Control_c, 6, 94, 0
14, 17336, Note_on_c, 6, 60, 65
14, 17344, Note_on_c, 6, 55, 41
14, 17347, Note_on_c, 6, 60, 0
14, 17354, Note_on_c, 6, 55, 0
14, 17395, Note_on_c, 6, 55, 55
14, 17400, Note_on_c, 6, 60, 49
14, 17409, Note_on_c, 6, 55, 0
14, 17412, Note_on_c, 6, 60, 0
14, 17457, Note_on_c, 6, 60, 57
14, 17458, Note_on_c, 6, 55, 47
14, 17471, Note_on_c, 6, 60, 0
14, 17472, Note_on_c, 6, 55, 0
14, 17521, Note_on_c, 6, 55, 49
14, 17522, Note_on_c, 6, 60, 54
14, 17535, Note_on_c, 6, 55, 0
14, 17537, Note_on_c, 6, 60, 0
14, 17579, Note_on_c, 6, 55, 56
14, 17581, Note_on_c, 6, 60, 61
14, 17591, Note_on_c, 6, 55, 0
14, 17595, Note_on_c, 6, 60, 0
14, 17641, Note_on_c, 6, 60, 64
14, 17644, Note_on_c, 6, 55, 50
14, 17655, Note_on_c, 6, 55, 0
14, 17663, Note_on_c, 6, 60, 0
14, 17693, Note_on_c, 6, 60, 62
14, 17698, Note_on_c, 6, 55, 66
14, 17738, Note_on_c, 6, 60, 0
14, 17754, Note_on_c, 6, 58, 59
14, 17758, Note_on_c, 6, 55, 0
14, 17760, Note_on_c, 6, 53, 50
14, 19193, Note_on_c, 6, 58, 0
14, 19195, Note_on_c, 6, 53, 0
14, 19380, Note_on_c, 6, 53, 57
14, 19380, Note_on_c, 6, 57, 57
14, 19380, Note_on_c, 6, 60, 57
14, 19392, Note_on_c, 6, 60, 0
14, 19393, Note_on_c, 6, 57, 0
14, 19396, Note_on_c, 6, 53, 0
14, 19500, Note_on_c, 6, 57, 62
14, 19500, Note_on_c, 6, 60, 62
14, 19509, Note_on_c, 6, 57, 0
14, 19510, Note_on_c, 6, 60, 0
14, 19740, Note_on_c, 6, 60, 66
14, 19740, Note_on_c, 6, 53, 66
14, 19740, Note_on_c, 6, 57, 66
14, 19752, Note_on_c, 6, 57, 0
14, 19755, Note_on_c, 6, 53, 0
14, 19756, Note_on_c, 6, 60, 0
14, 19860, Note_on_c, 6, 57, 66
14, 19860, Note_on_c, 6, 60, 67
14, 19860, Note_on_c, 6, 53, 67
14, 19868, Note_on_c, 6, 60, 0
14, 19869, Note_on_c, 6, 57, 0
14, 19871, Note_on_c, 6, 53, 0
14, 19980, Note_on_c, 6, 57, 52
14, 19980, Note_on_c, 6, 53, 52
14, 19991, Note_on_c, 6, 53, 0
14, 20001, Note_on_c, 6, 57, 0
14, 20040, Note_on_c, 6, 60, 38
14, 20040, Note_on_c, 6, 53, 38
14, 20040, Note_on_c, 6, 57, 38
14, 21523, Note_on_c, 6, 57, 0
14, 21532, Note_on_c, 6, 53, 0
14, 21533, Note_on_c, 6, 60, 0
14, 21600, Note_on_c, 6, 60, 51
14, 21605, Note_on_c, 6, 55, 39
14, 21613, Note_on_c, 6, 60, 0
14, 21616, Note_on_c, 6, 55, 0
14, 21658, Note_on_c, 6, 60, 56
14, 21662, Note_on_c, 6, 55, 50
14, 21674, Note_on_c, 6, 55, 0
14, 21681, Note_on_c, 6, 60, 0
14, 21717, Note_on_c, 6, 55, 58
14, 21718, Note_on_c, 6, 60, 66
14, 21732, Note_on_c, 6, 55, 0
14, 21737, Note_on_c, 6, 60, 0
14, 21776, Note_on_c, 6, 60, 75
14, 21776, Note_on_c, 6, 55, 66
14, 21792, Note_on_c, 6, 55, 0
14, 21799, Note_on_c, 6, 60, 0
14, 21842, Note_on_c, 6, 60, 63
14, 21843, Note_on_c, 6, 55, 60
14, 21859, Note_on_c, 6, 55, 0
14, 21868, Note_on_c, 6, 60, 0
14, 21905, Note_on_c, 6, 55, 61
14, 21905, Note_on_c, 6, 60, 72
14, 21918, Note_on_c, 6, 55, 0
14, 21926, Note_on_c, 6, 60, 0
14, 21964, Note_on_c, 6, 55, 62
14, 21966, Note_on_c, 6, 60, 62
14, 21987, Note_on_c, 6, 55, 0
14, 21989, Note_on_c, 6, 60, 0
14, 22018, Note_on_c, 6, 60, 61
14, 22019, Note_on_c, 6, 55, 61
14, 22037, Note_on_c, 6, 55, 0
14, 22073, Note_on_c, 6, 53, 61
14, 22074, Note_on_c, 6, 58, 61
14, 22081, Note_on_c, 6, 60, 0
14, 23510, Note_on_c, 6, 58, 0
14, 23510, Note_on_c, 6, 53, 0
14, 23580, Note_on_c, 6, 53, 71
14, 23580, Note_on_c, 6, 57, 71
14, 23592, Note_on_c, 6, 57, 0
14, 23605, Note_on_c, 6, 53, 0
14, 23700, Note_on_c, 6, 53, 72
14, 23700, Note_on_c, 6, 57, 72
14, 23711, Note_on_c, 6, 57, 0
14, 23725, Note_on_c, 6, 53, 0
14, 23820, Note_on_c, 6, 53, 74
14, 23820, Note_on_c, 6, 57, 74
14, 23833, Note_on_c, 6, 57, 0
14, 23841, Note_on_c, 6, 53, 0
14, 23940, Note_on_c, 6, 57, 75
14, 23940, Note_on_c, 6, 53, 75
14, 23950, Note_on_c, 6, 57, 0
14, 23951, Note_on_c, 6, 53, 0
14, 31261, Note_on_c, 6, 48, 93
14, 31318, Note_on_c, 6, 50, 97
14, 31330, Note_on_c, 6, 48, 0
14, 31373, Note_on_c, 6, 53, 105
14, 31387, Note_on_c, 6, 50, 0
14, 31433, Note_on_c, 6, 55, 110
14, 31446, Note_on_c, 6, 53, 0
14, 31499, Note_on_c, 6, 57, 111
14, 31506, Note_on_c, 6, 55, 0
14, 31564, Note_on_c, 6, 55, 111
14, 31573, Note_on_c, 6, 57, 0
14, 31618, Note_on_c, 6, 53, 96
14, 31626, Note_on_c, 6, 55, 0
14, 31683, Note_on_c, 6, 53, 0
14, 31684, Note_on_c, 6, 46, 104
14, 31892, Pitch_bend_c, 6, 8192
14, 31897, Pitch_bend_c, 6, 8192
14, 31904, Pitch_bend_c, 6, 8192
14, 31922, Pitch_bend_c, 6, 8192
14, 31941, Pitch_bend_c, 6, 7680
14, 31956, Pitch_bend_c, 6, 7552
14, 31966, Pitch_bend_c, 6, 7424
14, 31974, Pitch_bend_c, 6, 7296
14, 31982, Pitch_bend_c, 6, 7168
14, 32013, Pitch_bend_c, 6, 7296
14, 32022, Pitch_bend_c, 6, 7424
14, 32030, Pitch_bend_c, 6, 7552
14, 32043, Pitch_bend_c, 6, 7680
14, 32064, Pitch_bend_c, 6, 8192
14, 33123, Note_on_c, 6, 46, 0
14, 33231, Note_on_c, 6, 53, 88
14, 33288, Note_on_c, 6, 55, 93
14, 33295, Note_on_c, 6, 53, 0
14, 33415, Note_on_c, 6, 57, 95
14, 33416, Note_on_c, 6, 55, 0
14, 33476, Note_on_c, 6, 55, 99
14, 33480, Note_on_c, 6, 57, 0
14, 33532, Note_on_c, 6, 55, 0
14, 33533, Note_on_c, 6, 53, 102
14, 33572, Note_on_c, 6, 53, 0
14, 33576, Note_on_c, 6, 55, 95
14, 33583, Note_on_c, 6, 57, 93
14, 33586, Pitch_bend_c, 6, 5888
14, 33598, Note_on_c, 6, 55, 0
14, 33626, Pitch_bend_c, 6, 6016
14, 33666, Pitch_bend_c, 6, 6144
14, 33703, Pitch_bend_c, 6, 6272
14, 33743, Pitch_bend_c, 6, 6400
14, 33783, Pitch_bend_c, 6, 6528
14, 33819, Pitch_bend_c, 6, 6656
14, 33859, Pitch_bend_c, 6, 6784
14, 33896, Pitch_bend_c, 6, 6912
14, 33936, Pitch_bend_c, 6, 7040
14, 33976, Pitch_bend_c, 6, 7168
14, 34013, Pitch_bend_c, 6, 7296
14, 34053, Pitch_bend_c, 6, 7424
14, 34089, Pitch_bend_c, 6, 7552
14, 34129, Pitch_bend_c, 6, 7680
14, 34169, Pitch_bend_c, 6, 7808
14, 34206, Pitch_bend_c, 6, 7936
14, 34246, Pitch_bend_c, 6, 8064
14, 34283, Pitch_bend_c, 6, 8192
14, 34299, Pitch_bend_c, 6, 8192
14, 34483, Pitch_bend_c, 6, 7296
14, 34686, Pitch_bend_c, 6, 8192
14, 34906, Pitch_bend_c, 6, 6912
14, 35133, Pitch_bend_c, 6, 8192
14, 35356, Pitch_bend_c, 6, 6912
14, 35500, Note_on_c, 6, 57, 0
14, 35553, Pitch_bend_c, 6, 8320
14, 35633, Note_on_c, 6, 55, 99
14, 35661, Note_on_c, 6, 55, 0
14, 35693, Note_on_c, 6, 55, 108
14, 35722, Note_on_c, 6, 55, 0
14, 35760, Note_on_c, 6, 55, 108
14, 35793, Pitch_bend_c, 6, 8192
14, 35795, Pitch_bend_c, 6, 8712
14, 35796, Pitch_bend_c, 6, 9362
14, 35799, Pitch_bend_c, 6, 10142
14, 35800, Pitch_bend_c, 6, 10792
14, 35802, Pitch_bend_c, 6, 11572
14, 35804, Pitch_bend_c, 6, 12092
14, 35806, Pitch_bend_c, 6, 12482
14, 35808, Pitch_bend_c, 6, 12612
14, 35814, Pitch_bend_c, 6, 12352
14, 35815, Pitch_bend_c, 6, 11962
14, 35817, Pitch_bend_c, 6, 11702
14, 35819, Pitch_bend_c, 6, 11442
14, 35820, Pitch_bend_c, 6, 10922
14, 35823, Pitch_bend_c, 6, 10662
14, 35825, Pitch_bend_c, 6, 10402
14, 35826, Pitch_bend_c, 6, 10142
14, 35828, Pitch_bend_c, 6, 9752
14, 35829, Pitch_bend_c, 6, 9232
14, 35831, Pitch_bend_c, 6, 8972
14, 35833, Pitch_bend_c, 6, 8842
14, 35840, Pitch_bend_c, 6, 9102
14, 35841, Pitch_bend_c, 6, 9492
14, 35844, Pitch_bend_c, 6, 10012
14, 35845, Pitch_bend_c, 6, 10402
14, 35850, Pitch_bend_c, 6, 9752
14, 35851, Pitch_bend_c, 6, 8192
14, 35852, Pitch_bend_c, 6, 8192
14, 35873, Note_on_c, 6, 53, 104
14, 35876, Note_on_c, 6, 55, 0
14, 35949, Note_on_c, 6, 50, 98
14, 35953, Note_on_c, 6, 53, 0
14, 35983, Note_on_c, 6, 50, 0
14, 35985, Note_on_c, 6, 46, 95
14, 36503, Pitch_bend_c, 6, 7680
14, 36713, Pitch_bend_c, 6, 8192
14, 37423, Note_on_c, 6, 46, 0
14, 37503, Note_on_c, 6, 48, 90
14, 37557, Note_on_c, 6, 50, 104
14, 37561, Note_on_c, 6, 48, 0
14, 37592, Note_on_c, 6, 50, 0
14, 37614, Note_on_c, 6, 53, 106
14, 37649, Note_on_c, 6, 53, 0
14, 37672, Note_on_c, 6, 55, 106
14, 37760, Note_on_c, 6, 55, 0
14, 37760, Note_on_c, 6, 53, 101
14, 37786, Note_on_c, 6, 53, 0
14, 37792, Note_on_c, 6, 53, 102
14, 37974, Pitch_bend_c, 6, 8192
14, 37980, Pitch_bend_c, 6, 8192
14, 37986, Pitch_bend_c, 6, 7680
14, 37993, Pitch_bend_c, 6, 7552
14, 37999, Pitch_bend_c, 6, 7424
14, 38006, Pitch_bend_c, 6, 7296
14, 38011, Pitch_bend_c, 6, 7168
14, 38015, Pitch_bend_c, 6, 7040
14, 38020, Pitch_bend_c, 6, 6912
14, 38030, Pitch_bend_c, 6, 6784
14, 38040, Pitch_bend_c, 6, 6656
14, 38070, Pitch_bend_c, 6, 6784
14, 38076, Pitch_bend_c, 6, 6912
14, 38082, Pitch_bend_c, 6, 7040
14, 38087, Pitch_bend_c, 6, 7168
14, 38098, Pitch_bend_c, 6, 7296
14, 38137, Pitch_bend_c, 6, 7424
14, 38156, Pitch_bend_c, 6, 7552
14, 38326, Pitch_bend_c, 6, 8192
14, 38633, Control_c, 6, 11, 127
14, 38635, Control_c, 6, 11, 122
14, 38640, Control_c, 6, 11, 120
14, 38645, Control_c, 6, 11, 118
14, 38650, Control_c, 6, 11, 116
14, 38655, Control_c, 6, 11, 113
14, 38660, Control_c, 6, 11, 112
14, 38665, Control_c, 6, 11, 111
14, 38670, Control_c, 6, 11, 109
14, 38674, Control_c, 6, 11, 107
14, 38679, Control_c, 6, 11, 104
14, 38684, Control_c, 6, 11, 101
14, 38689, Control_c, 6, 11, 100
14, 38694, Control_c, 6, 11, 98
14, 38699, Control_c, 6, 11, 96
14, 38704, Control_c, 6, 11, 95
14, 38709, Control_c, 6, 11, 93
14, 38714, Control_c, 6, 11, 91
14, 38719, Control_c, 6, 11, 89
14, 38724, Control_c, 6, 11, 87
14, 38729, Control_c, 6, 11, 85
14, 38734, Control_c, 6, 11, 82
14, 38739, Control_c, 6, 11, 81
14, 38744, Control_c, 6, 11, 78
14, 38748, Control_c, 6, 11, 76
14, 38753, Control_c, 6, 11, 74
14, 38758, Control_c, 6, 11, 72
14, 38763, Control_c, 6, 11, 71
14, 38768, Control_c, 6, 11, 67
14, 38773, Control_c, 6, 11, 65
14, 38778, Control_c, 6, 11, 63
14, 38783, Control_c, 6, 11, 62
14, 38788, Control_c, 6, 11, 61
14, 38793, Note_on_c, 6, 53, 0
14, 38793, Control_c, 6, 11, 60
14, 38798, Control_c, 6, 11, 58
14, 38803, Control_c, 6, 11, 55
14, 38808, Control_c, 6, 11, 53
14, 38813, Control_c, 6, 11, 50
14, 38818, Control_c, 6, 11, 49
14, 38823, Control_c, 6, 11, 47
14, 38824, Control_c, 6, 11, 127
14, 40024, Note_on_c, 6, 77, 84
14, 40083, Pitch_bend_c, 6, 8192
14, 40087, Pitch_bend_c, 6, 8192
14, 40096, Pitch_bend_c, 6, 8192
14, 40097, Pitch_bend_c, 6, 8192
14, 40100, Pitch_bend_c, 6, 8192
14, 40153, Pitch_bend_c, 6, 8192
14, 40157, Pitch_bend_c, 6, 8192
14, 40161, Pitch_bend_c, 6, 8192
14, 40183, Pitch_bend_c, 6, 8192
14, 40185, Pitch_bend_c, 6, 7552
14, 40187, Pitch_bend_c, 6, 7424
14, 40188, Pitch_bend_c, 6, 7296
14, 40192, Pitch_bend_c, 6, 7168
14, 40199, Pitch_bend_c, 6, 7296
14, 40201, Pitch_bend_c, 6, 7424
14, 40203, Pitch_bend_c, 6, 7680
14, 40204, Pitch_bend_c, 6, 8192
14, 40205, Pitch_bend_c, 6, 8192
14, 40247, Note_on_c, 6, 77, 0
14, 41394, Note_on_c, 6, 79, 75
14, 41414, Pitch_bend_c, 6, 8192
14, 41415, Pitch_bend_c, 6, 8192
14, 41417, Pitch_bend_c, 6, 8192
14, 41418, Pitch_bend_c, 6, 7552
14, 41420, Pitch_bend_c, 6, 7168
14, 41421, Pitch_bend_c, 6, 6528
14, 41423, Pitch_bend_c, 6, 6016
14, 41426, Pitch_bend_c, 6, 5376
14, 41428, Pitch_bend_c, 6, 4608
14, 41429, Pitch_bend_c, 6, 4096
14, 41431, Pitch_bend_c, 6, 3584
14, 41434, Pitch_bend_c, 6, 3200
14, 41435, Pitch_bend_c, 6, 2816
14, 41436, Pitch_bend_c, 6, 2560
14, 41439, Pitch_bend_c, 6, 2432
14, 41445, Pitch_bend_c, 6, 2816
14, 41447, Pitch_bend_c, 6, 2944
14, 41458, Pitch_bend_c, 6, 2816
14, 41464, Pitch_bend_c, 6, 3200
14, 41466, Pitch_bend_c, 6, 3456
14, 41468, Pitch_bend_c, 6, 3968
14, 41470, Pitch_bend_c, 6, 5120
14, 41471, Pitch_bend_c, 6, 7040
14, 41474, Pitch_bend_c, 6, 8192
14, 41514, Note_on_c, 6, 77, 85
14, 41520, Note_on_c, 6, 79, 0
14, 41572, Note_on_c, 6, 74, 75
14, 41583, Note_on_c, 6, 77, 0
14, 41634, Note_on_c, 6, 72, 73
14, 41636, Note_on_c, 6, 74, 0
14, 41686, Note_on_c, 6, 74, 84
14, 41695, Note_on_c, 6, 72, 0
14, 41734, Pitch_bend_c, 6, 8192
14, 41736, Pitch_bend_c, 6, 8192
14, 41737, Pitch_bend_c, 6, 7680
14, 41739, Pitch_bend_c, 6, 7424
14, 41741, Pitch_bend_c, 6, 7040
14, 41743, Pitch_bend_c, 6, 6784
14, 41745, Pitch_bend_c, 6, 6656
14, 41748, Pitch_bend_c, 6, 6528
14, 41757, Pitch_bend_c, 6, 6784
14, 41758, Pitch_bend_c, 6, 7168
14, 41761, Pitch_bend_c, 6, 7424
14, 41762, Pitch_bend_c, 6, 8192
14, 41763, Pitch_bend_c, 6, 8192
14, 41764, Pitch_bend_c, 6, 8192
14, 41765, Pitch_bend_c, 6, 8192
14, 41778, Pitch_bend_c, 6, 8192
14, 41778, Pitch_bend_c, 6, 8192
14, 41780, Pitch_bend_c, 6, 7680
14, 41782, Pitch_bend_c, 6, 7424
14, 41783, Pitch_bend_c, 6, 6912
14, 41786, Pitch_bend_c, 6, 6528
14, 41787, Pitch_bend_c, 6, 6016
14, 41789, Pitch_bend_c, 6, 5632
14, 41791, Pitch_bend_c, 6, 5376
14, 41793, Pitch_bend_c, 6, 4992
14, 41795, Pitch_bend_c, 6, 4864
14, 41802, Pitch_bend_c, 6, 5120
14, 41804, Pitch_bend_c, 6, 5376
14, 41806, Pitch_bend_c, 6, 5632
14, 41807, Pitch_bend_c, 6, 6016
14, 41809, Pitch_bend_c, 6, 6272
14, 41812, Pitch_bend_c, 6, 6528
14, 41813, Pitch_bend_c, 6, 6784
14, 41815, Pitch_bend_c, 6, 7040
14, 41817, Pitch_bend_c, 6, 7168
14, 41819, Pitch_bend_c, 6, 7296
14, 41824, Pitch_bend_c, 6, 7040
14, 41827, Pitch_bend_c, 6, 6656
14, 41827, Pitch_bend_c, 6, 6272
14, 41829, Pitch_bend_c, 6, 5632
14, 41831, Pitch_bend_c, 6, 5120
14, 41834, Pitch_bend_c, 6, 4864
14, 41836, Pitch_bend_c, 6, 4608
14, 41837, Pitch_bend_c, 6, 4480
14, 41843, Pitch_bend_c, 6, 4736
14, 41845, Pitch_bend_c, 6, 4992
14, 41846, Pitch_bend_c, 6, 5376
14, 41849, Pitch_bend_c, 6, 5760
14, 41850, Pitch_bend_c, 6, 6016
14, 41852, Pitch_bend_c, 6, 6144
14, 41854, Pitch_bend_c, 6, 6400
14, 41856, Pitch_bend_c, 6, 6784
14, 41858, Pitch_bend_c, 6, 7296
14, 41859, Pitch_bend_c, 6, 8192
14, 41860, Pitch_bend_c, 6, 8192
14, 41868, Pitch_bend_c, 6, 8192
14, 41869, Pitch_bend_c, 6, 8192
14, 41870, Pitch_bend_c, 6, 8192
14, 41872, Pitch_bend_c, 6, 7552
14, 41873, Pitch_bend_c, 6, 7296
14, 41876, Pitch_bend_c, 6, 6784
14, 41877, Pitch_bend_c, 6, 6528
14, 41879, Pitch_bend_c, 6, 6400
14, 41881, Pitch_bend_c, 6, 6272
14, 41888, Pitch_bend_c, 6, 6400
14, 41890, Pitch_bend_c, 6, 6912
14, 41891, Pitch_bend_c, 6, 8192
14, 41892, Pitch_bend_c, 6, 8192
14, 41905, Note_on_c, 6, 74, 0
14, 43864, Note_on_c, 6, 77, 84
14, 43923, Pitch_bend_c, 6, 8192
14, 43927, Pitch_bend_c, 6, 8192
14, 43936, Pitch_bend_c, 6, 8192
14, 43937, Pitch_bend_c, 6, 8192
14, 43940, Pitch_bend_c, 6, 8192
14, 43993, Pitch_bend_c, 6, 8192
14, 43997, Pitch_bend_c, 6, 8192
14, 44001, Pitch_bend_c, 6, 8192
14, 44023, Pitch_bend_c, 6, 8192
14, 44025, Pitch_bend_c, 6, 7552
14, 44027, Pitch_bend_c, 6, 7424
14, 44028, Pitch_bend_c, 6, 7296
14, 44032, Pitch_bend_c, 6, 7168
14, 44039, Pitch_bend_c, 6, 7296
14, 44041, Pitch_bend_c, 6, 7424
14, 44043, Pitch_bend_c, 6, 7680
14, 44044, Pitch_bend_c, 6, 8192
14, 44045, Pitch_bend_c, 6, 8192
14, 44087, Note_on_c, 6, 77, 0
14, 45174, Note_on_c, 6, 48, 73
14, 45215, Note_on_c, 6, 48, 0
14, 45237, Note_on_c, 6, 48, 79
14, 45280, Note_on_c, 6, 48, 0
14, 45301, Note_on_c, 6, 48, 91
14, 45338, Note_on_c, 6, 48, 0
14, 45363, Note_on_c, 6, 48, 99
14, 45400, Note_on_c, 6, 48, 0
14, 45423, Note_on_c, 6, 48, 104
14, 45456, Note_on_c, 6, 48, 0
14, 45480, Note_on_c, 6, 48, 109
14, 45527, Pitch_bend_c, 6, 8192
14, 45527, Pitch_bend_c, 6, 8192
14, 45529, Pitch_bend_c, 6, 8972
14, 45531, Pitch_bend_c, 6, 9492
14, 45533, Pitch_bend_c, 6, 10142
14, 45534, Pitch_bend_c, 6, 10662
14, 45537, Pitch_bend_c, 6, 11312
14, 45538, Pitch_bend_c, 6, 11702
14, 45540, Pitch_bend_c, 6, 12222
14, 45542, Pitch_bend_c, 6, 12482
14, 45544, Pitch_bend_c, 6, 12742
14, 45545, Pitch_bend_c, 6, 13002
14, 45548, Pitch_bend_c, 6, 13132
14, 45552, Pitch_bend_c, 6, 13392
14, 45555, Pitch_bend_c, 6, 13522
14, 45559, Pitch_bend_c, 6, 13652
14, 45563, Pitch_bend_c, 6, 13782
14, 45566, Pitch_bend_c, 6, 13912
14, 45569, Pitch_bend_c, 6, 14042
14, 45572, Pitch_bend_c, 6, 14172
14, 45576, Note_on_c, 6, 48, 0
14, 45590, Pitch_bend_c, 6, 13912
14, 45591, Pitch_bend_c, 6, 13782
14, 45593, Pitch_bend_c, 6, 13652
14, 45595, Pitch_bend_c, 6, 13522
14, 45596, Pitch_bend_c, 6, 13262
14, 45598, Pitch_bend_c, 6, 13002
14, 45600, Pitch_bend_c, 6, 12872
14, 45602, Note_on_c, 6, 50, 109
14, 45602, Pitch_bend_c, 6, 12612
14, 45604, Pitch_bend_c, 6, 12352
14, 45605, Pitch_bend_c, 6, 11832
14, 45608, Pitch_bend_c, 6, 10272
14, 45609, Pitch_bend_c, 6, 8192
14, 45610, Pitch_bend_c, 6, 8192
14, 45611, Pitch_bend_c, 6, 8192
14, 45613, Pitch_bend_c, 6, 8192
14, 45711, Note_on_c, 6, 50, 0
14, 45720, Note_on_c, 6, 50, 109
14, 45780, Note_on_c, 6, 50, 0
14, 45786, Note_on_c, 6, 48, 101
14, 45842, Note_on_c, 6, 50, 107
14, 45860, Note_on_c, 6, 48, 0
14, 45906, Note_on_c, 6, 53, 109
14, 45911, Note_on_c, 6, 50, 0
14, 45966, Note_on_c, 6, 53, 0
14, 45968, Note_on_c, 6, 50, 109
14, 46034, Pitch_bend_c, 6, 8192
14, 46036, Pitch_bend_c, 6, 8192
14, 46037, Pitch_bend_c, 6, 7680
14, 46038, Pitch_bend_c, 6, 7296
14, 46040, Pitch_bend_c, 6, 6912
14, 46042, Pitch_bend_c, 6, 6528
14, 46044, Pitch_bend_c, 6, 6144
14, 46046, Pitch_bend_c, 6, 5760
14, 46047, Pitch_bend_c, 6, 5504
14, 46050, Pitch_bend_c, 6, 5120
14, 46051, Pitch_bend_c, 6, 4864
14, 46053, Pitch_bend_c, 6, 4736
14, 46056, Pitch_bend_c, 6, 4608
14, 46057, Pitch_bend_c, 6, 4352
14, 46058, Pitch_bend_c, 6, 4224
14, 46061, Pitch_bend_c, 6, 4096
14, 46063, Pitch_bend_c, 6, 3840
14, 46064, Pitch_bend_c, 6, 3712
14, 46075, Pitch_bend_c, 6, 3968
14, 46078, Pitch_bend_c, 6, 4352
14, 46078, Pitch_bend_c, 6, 4480
14, 46080, Note_on_c, 6, 48, 109
14, 46080, Pitch_bend_c, 6, 4736
14, 46082, Pitch_bend_c, 6, 4992
14, 46083, Note_on_c, 6, 50, 0
14, 46085, Pitch_bend_c, 6, 5376
14, 46086, Pitch_bend_c, 6, 6016
14, 46087, Pitch_bend_c, 6, 7424
14, 46090, Pitch_bend_c, 6, 8192
14, 46140, Note_on_c, 6, 48, 0
14, 46147, Note_on_c, 6, 55, 104
14, 46246, Note_on_c, 6, 55, 0
14, 46261, Note_on_c, 6, 55, 107
14, 46380, Note_on_c, 6, 55, 0
14, 46384, Note_on_c, 6, 53, 101
14, 46419, Note_on_c, 6, 53, 0
14, 46438, Note_on_c, 6, 55, 101
14, 46514, Pitch_bend_c, 6, 8192
14, 46514, Pitch_bend_c, 6, 8192
14, 46516, Pitch_bend_c, 6, 8842
14, 46517, Pitch_bend_c, 6, 9492
14, 46519, Pitch_bend_c, 6, 10012
14, 46521, Pitch_bend_c, 6, 10532
14, 46523, Pitch_bend_c, 6, 11052
14, 46525, Pitch_bend_c, 6, 11702
14, 46527, Pitch_bend_c, 6, 12352
14, 46528, Pitch_bend_c, 6, 12742
14, 46531, Pitch_bend_c, 6, 13132
14, 46532, Pitch_bend_c, 6, 13392
14, 46534, Pitch_bend_c, 6, 13652
14, 46536, Pitch_bend_c, 6, 13912
14, 46538, Pitch_bend_c, 6, 14172
14, 46540, Pitch_bend_c, 6, 14432
14, 46542, Pitch_bend_c, 6, 14562
14, 46543, Pitch_bend_c, 6, 14822
14, 46545, Pitch_bend_c, 6, 14968
14, 46547, Pitch_bend_c, 6, 15082
14, 46549, Pitch_bend_c, 6, 15212
14, 46556, Pitch_bend_c, 6, 14822
14, 46557, Pitch_bend_c, 6, 14432
14, 46559, Pitch_bend_c, 6, 13652
14, 46562, Pitch_bend_c, 6, 12872
14, 46563, Pitch_bend_c, 6, 12222
14, 46565, Pitch_bend_c, 6, 11572
14, 46566, Pitch_bend_c, 6, 10922
14, 46568, Pitch_bend_c, 6, 10402
14, 46570, Pitch_bend_c, 6, 9882
14, 46572, Pitch_bend_c, 6, 9492
14, 46574, Pitch_bend_c, 6, 8972
14, 46576, Pitch_bend_c, 6, 8192
14, 46577, Pitch_bend_c, 6, 8192
14, 46579, Pitch_bend_c, 6, 8192
14, 46583, Pitch_bend_c, 6, 8192
14, 46648, Note_on_c, 6, 55, 0
14, 46686, Note_on_c, 6, 55, 105
14, 46746, Note_on_c, 6, 55, 0
14, 46749, Note_on_c, 6, 53, 105
14, 46784, Note_on_c, 6, 53, 0
14, 46801, Note_on_c, 6, 55, 104
14, 46861, Pitch_bend_c, 6, 8192
14, 46862, Pitch_bend_c, 6, 8842
14, 46865, Pitch_bend_c, 6, 9492
14, 46866, Pitch_bend_c, 6, 10142
14, 46868, Pitch_bend_c, 6, 10662
14, 46869, Pitch_bend_c, 6, 11312
14, 46871, Pitch_bend_c, 6, 11832
14, 46874, Pitch_bend_c, 6, 12352
14, 46875, Pitch_bend_c, 6, 12872
14, 46877, Pitch_bend_c, 6, 13392
14, 46879, Pitch_bend_c, 6, 14042
14, 46880, Pitch_bend_c, 6, 14692
14, 46882, Pitch_bend_c, 6, 15212
14, 46886, Pitch_bend_c, 6, 15862
14, 46886, Pitch_bend_c, 6, 16382
14, 46908, Pitch_bend_c, 6, 15992
14, 46910, Pitch_bend_c, 6, 15472
14, 46912, Pitch_bend_c, 6, 14822
14, 46914, Pitch_bend_c, 6, 14172
14, 46917, Pitch_bend_c, 6, 13522
14, 46918, Pitch_bend_c, 6, 12872
14, 46920, Pitch_bend_c, 6, 12222
14, 46921, Pitch_bend_c, 6, 11572
14, 46923, Pitch_bend_c, 6, 10922
14, 46925, Pitch_bend_c, 6, 10402
14, 46927, Pitch_bend_c, 6, 9882
14, 46928, Pitch_bend_c, 6, 9492
14, 46931, Pitch_bend_c, 6, 8972
14, 46932, Pitch_bend_c, 6, 8192
14, 46933, Pitch_bend_c, 6, 8192
14, 46979, Note_on_c, 6, 55, 0
14, 46980, Note_on_c, 6, 53, 102
14, 47033, Note_on_c, 6, 50, 98
14, 47047, Note_on_c, 6, 53, 0
14, 47149, Note_on_c, 6, 50, 0
14, 47163, Note_on_c, 6, 50, 98
14, 47220, Note_on_c, 6, 48, 98
14, 47223, Note_on_c, 6, 50, 0
14, 47275, Note_on_c, 6, 48, 0
14, 47276, Note_on_c, 6, 50, 99
14, 47332, Note_on_c, 6, 53, 103
14, 47343, Note_on_c, 6, 50, 0
14, 47394, Note_on_c, 6, 55, 104
14, 47401, Note_on_c, 6, 53, 0
14, 47449, Note_on_c, 6, 53, 97
14, 47455, Note_on_c, 6, 55, 0
14, 47487, Note_on_c, 6, 53, 0
14, 47504, Note_on_c, 6, 55, 99
14, 47534, Pitch_bend_c, 6, 8192
14, 47536, Pitch_bend_c, 6, 8712
14, 47538, Pitch_bend_c, 6, 9232
14, 47539, Pitch_bend_c, 6, 9752
14, 47542, Pitch_bend_c, 6, 10272
14, 47543, Pitch_bend_c, 6, 10662
14, 47545, Pitch_bend_c, 6, 11052
14, 47547, Pitch_bend_c, 6, 11572
14, 47549, Pitch_bend_c, 6, 11832
14, 47550, Pitch_bend_c, 6, 12092
14, 47553, Pitch_bend_c, 6, 12352
14, 47554, Pitch_bend_c, 6, 12612
14, 47556, Pitch_bend_c, 6, 12742
14, 47557, Pitch_bend_c, 6, 13002
14, 47560, Pitch_bend_c, 6, 13132
14, 47561, Pitch_bend_c, 6, 13392
14, 47564, Pitch_bend_c, 6, 13522
14, 47565, Pitch_bend_c, 6, 13782
14, 47566, Pitch_bend_c, 6, 14042
14, 47568, Pitch_bend_c, 6, 14172
14, 47571, Pitch_bend_c, 6, 14432
14, 47572, Pitch_bend_c, 6, 14692
14, 47574, Pitch_bend_c, 6, 14968
14, 47576, Pitch_bend_c, 6, 15212
14, 47577, Pitch_bend_c, 6, 15472
14, 47580, Pitch_bend_c, 6, 15602
14, 47588, Pitch_bend_c, 6, 15342
14, 47591, Pitch_bend_c, 6, 15082
14, 47592, Pitch_bend_c, 6, 14822
14, 47593, Pitch_bend_c, 6, 14562
14, 47594, Pitch_bend_c, 6, 14172
14, 47596, Pitch_bend_c, 6, 13782
14, 47599, Pitch_bend_c, 6, 13522
14, 47600, Pitch_bend_c, 6, 13132
14, 47602, Pitch_bend_c, 6, 12872
14, 47604, Pitch_bend_c, 6, 12612
14, 47605, Pitch_bend_c, 6, 12352
14, 47608, Pitch_bend_c, 6, 12222
14, 47609, Pitch_bend_c, 6, 12092
14, 47620, Pitch_bend_c, 6, 12352
14, 47622, Pitch_bend_c, 6, 12482
14, 47624, Pitch_bend_c, 6, 12612
14, 47626, Pitch_bend_c, 6, 12872
14, 47627, Pitch_bend_c, 6, 13132
14, 47630, Pitch_bend_c, 6, 13522
14, 47631, Pitch_bend_c, 6, 13782
14, 47633, Pitch_bend_c, 6, 14042
14, 47634, Pitch_bend_c, 6, 14302
14, 47637, Pitch_bend_c, 6, 14562
14, 47638, Pitch_bend_c, 6, 14822
14, 47641, Pitch_bend_c, 6, 14968
14, 47644, Pitch_bend_c, 6, 15082
14, 47647, Pitch_bend_c, 6, 14968
14, 47649, Pitch_bend_c, 6, 14692
14, 47651, Pitch_bend_c, 6, 14562
14, 47653, Pitch_bend_c, 6, 14172
14, 47654, Pitch_bend_c, 6, 13912
14, 47656, Pitch_bend_c, 6, 13522
14, 47658, Pitch_bend_c, 6, 13262
14, 47660, Pitch_bend_c, 6, 13002
14, 47661, Pitch_bend_c, 6, 12612
14, 47664, Pitch_bend_c, 6, 12352
14, 47665, Pitch_bend_c, 6, 12222
14, 47667, Pitch_bend_c, 6, 11962
14, 47676, Pitch_bend_c, 6, 12222
14, 47677, Pitch_bend_c, 6, 12352
14, 47679, Pitch_bend_c, 6, 12742
14, 47681, Pitch_bend_c, 6, 13002
14, 47682, Pitch_bend_c, 6, 13392
14, 47684, Pitch_bend_c, 6, 13652
14, 47686, Pitch_bend_c, 6, 14042
14, 47688, Pitch_bend_c, 6, 14302
14, 47690, Pitch_bend_c, 6, 14692
14, 47692, Pitch_bend_c, 6, 14968
14, 47693, Pitch_bend_c, 6, 15082
14, 47701, Pitch_bend_c, 6, 14822
14, 47703, Pitch_bend_c, 6, 14692
14, 47706, Pitch_bend_c, 6, 14302
14, 47708, Pitch_bend_c, 6, 14042
14, 47709, Pitch_bend_c, 6, 13782
14, 47710, Pitch_bend_c, 6, 13392
14, 47712, Pitch_bend_c, 6, 13002
14, 47714, Pitch_bend_c, 6, 12872
14, 47717, Pitch_bend_c, 6, 12482
14, 47718, Pitch_bend_c, 6, 12352
14, 47720, Pitch_bend_c, 6, 12092
14, 47721, Pitch_bend_c, 6, 11962
14, 47724, Pitch_bend_c, 6, 11832
14, 47736, Pitch_bend_c, 6, 12092
14, 47738, Pitch_bend_c, 6, 12352
14, 47739, Pitch_bend_c, 6, 12612
14, 47742, Pitch_bend_c, 6, 13002
14, 47743, Pitch_bend_c, 6, 13392
14, 47746, Pitch_bend_c, 6, 13782
14, 47747, Pitch_bend_c, 6, 14172
14, 47749, Pitch_bend_c, 6, 14692
14, 47751, Pitch_bend_c, 6, 14968
14, 47752, Pitch_bend_c, 6, 15212
14, 47754, Pitch_bend_c, 6, 15472
14, 47763, Pitch_bend_c, 6, 15082
14, 47765, Pitch_bend_c, 6, 14822
14, 47766, Pitch_bend_c, 6, 14562
14, 47769, Pitch_bend_c, 6, 14172
14, 47770, Pitch_bend_c, 6, 13782
14, 47773, Pitch_bend_c, 6, 13522
14, 47774, Pitch_bend_c, 6, 13002
14, 47776, Pitch_bend_c, 6, 12742
14, 47777, Pitch_bend_c, 6, 12352
14, 47780, Pitch_bend_c, 6, 12092
14, 47781, Pitch_bend_c, 6, 11832
14, 47784, Pitch_bend_c, 6, 11572
14, 47785, Pitch_bend_c, 6, 11442
14, 47788, Pitch_bend_c, 6, 11312
14, 47791, Pitch_bend_c, 6, 11052
14, 47795, Pitch_bend_c, 6, 10792
14, 47797, Pitch_bend_c, 6, 10662
14, 47798, Pitch_bend_c, 6, 10532
14, 47801, Pitch_bend_c, 6, 10402
14, 47802, Pitch_bend_c, 6, 10272
14, 47804, Pitch_bend_c, 6, 10012
14, 47805, Pitch_bend_c, 6, 9622
14, 47808, Pitch_bend_c, 6, 9362
14, 47809, Pitch_bend_c, 6, 8972
14, 47811, Pitch_bend_c, 6, 8192
14, 47813, Pitch_bend_c, 6, 8192
14, 47817, Note_on_c, 6, 53, 103
14, 47826, Note_on_c, 6, 55, 0
14, 47880, Note_on_c, 6, 53, 0
14, 47883, Note_on_c, 6, 50, 104
14, 47938, Note_on_c, 6, 53, 104
14, 47940, Note_on_c, 6, 50, 0
14, 48060, Note_on_c, 6, 55, 105
14, 48065, Pitch_bend_c, 6, 8842
14, 48067, Note_on_c, 6, 53, 0
14, 48067, Pitch_bend_c, 6, 10012
14, 48069, Pitch_bend_c, 6, 11312
14, 48071, Pitch_bend_c, 6, 12612
14, 48073, Pitch_bend_c, 6, 13522
14, 48075, Pitch_bend_c, 6, 14042
14, 48077, Pitch_bend_c, 6, 14432
14, 48078, Pitch_bend_c, 6, 14692
14, 48081, Pitch_bend_c, 6, 14822
14, 48082, Pitch_bend_c, 6, 14968
14, 48083, Pitch_bend_c, 6, 15082
14, 48092, Pitch_bend_c, 6, 14968
14, 48094, Pitch_bend_c, 6, 14822
14, 48096, Pitch_bend_c, 6, 14562
14, 48097, Pitch_bend_c, 6, 14302
14, 48100, Pitch_bend_c, 6, 14042
14, 48101, Pitch_bend_c, 6, 13652
14, 48103, Pitch_bend_c, 6, 13132
14, 48105, Pitch_bend_c, 6, 12612
14, 48107, Pitch_bend_c, 6, 12092
14, 48108, Pitch_bend_c, 6, 11442
14, 48111, Pitch_bend_c, 6, 10792
14, 48112, Pitch_bend_c, 6, 10142
14, 48114, Pitch_bend_c, 6, 9752
14, 48115, Pitch_bend_c, 6, 9362
14, 48117, Pitch_bend_c, 6, 9102
14, 48120, Pitch_bend_c, 6, 8972
14, 48124, Pitch_bend_c, 6, 8842
14, 48128, Pitch_bend_c, 6, 8192
14, 48129, Pitch_bend_c, 6, 8192
14, 48177, Note_on_c, 6, 53, 105
14, 48180, Note_on_c, 6, 55, 0
14, 48293, Note_on_c, 6, 55, 104
14, 48298, Note_on_c, 6, 53, 0
14, 48412, Note_on_c, 6, 53, 104
14, 48416, Note_on_c, 6, 55, 0
14, 48463, Note_on_c, 6, 53, 0
14, 48463, Note_on_c, 6, 55, 103
14, 48557, Pitch_bend_c, 6, 8192
14, 48570, Pitch_bend_c, 6, 8192
14, 48572, Pitch_bend_c, 6, 8192
14, 48575, Pitch_bend_c, 6, 8712
14, 48576, Pitch_bend_c, 6, 8972
14, 48578, Pitch_bend_c, 6, 9232
14, 48580, Pitch_bend_c, 6, 9752
14, 48582, Pitch_bend_c, 6, 10012
14, 48583, Pitch_bend_c, 6, 10402
14, 48586, Pitch_bend_c, 6, 10662
14, 48587, Pitch_bend_c, 6, 10922
14, 48590, Pitch_bend_c, 6, 11312
14, 48591, Pitch_bend_c, 6, 11442
14, 48593, Pitch_bend_c, 6, 11572
14, 48597, Pitch_bend_c, 6, 11702
14, 48603, Pitch_bend_c, 6, 11572
14, 48605, Pitch_bend_c, 6, 11442
14, 48608, Pitch_bend_c, 6, 11052
14, 48609, Pitch_bend_c, 6, 10922
14, 48610, Pitch_bend_c, 6, 10792
14, 48613, Pitch_bend_c, 6, 10662
14, 48614, Pitch_bend_c, 6, 10532
14, 48625, Pitch_bend_c, 6, 10792
14, 48626, Pitch_bend_c, 6, 10922
14, 48628, Pitch_bend_c, 6, 11312
14, 48630, Pitch_bend_c, 6, 11442
14, 48632, Pitch_bend_c, 6, 11702
14, 48633, Pitch_bend_c, 6, 11962
14, 48636, Pitch_bend_c, 6, 12092
14, 48637, Pitch_bend_c, 6, 12352
14, 48642, Pitch_bend_c, 6, 12482
14, 48649, Pitch_bend_c, 6, 12222
14, 48651, Pitch_bend_c, 6, 12092
14, 48653, Pitch_bend_c, 6, 11832
14, 48654, Pitch_bend_c, 6, 11572
14, 48657, Pitch_bend_c, 6, 11312
14, 48658, Pitch_bend_c, 6, 11052
14, 48661, Pitch_bend_c, 6, 10792
14, 48662, Pitch_bend_c, 6, 10532
14, 48663, Pitch_bend_c, 6, 10402
14, 48667, Pitch_bend_c, 6, 10272
14, 48677, Pitch_bend_c, 6, 10012
14, 48679, Pitch_bend_c, 6, 9882
14, 48681, Pitch_bend_c, 6, 9492
14, 48682, Pitch_bend_c, 6, 8972
14, 48685, Pitch_bend_c, 6, 8192
14, 48685, Pitch_bend_c, 6, 8192
14, 48782, Note_on_c, 6, 53, 102
14, 48790, Note_on_c, 6, 55, 0
14, 48899, Note_on_c, 6, 55, 102
14, 48907, Note_on_c, 6, 53, 0
14, 49093, Pitch_bend_c, 6, 8972
14, 49094, Pitch_bend_c, 6, 9882
14, 49097, Pitch_bend_c, 6, 10792
14, 49099, Pitch_bend_c, 6, 11832
14, 49100, Pitch_bend_c, 6, 12742
14, 49103, Pitch_bend_c, 6, 13392
14, 49103, Pitch_bend_c, 6, 14042
14, 49105, Pitch_bend_c, 6, 14692
14, 49107, Pitch_bend_c, 6, 15082
14, 49109, Pitch_bend_c, 6, 15472
14, 49110, Pitch_bend_c, 6, 15732
14, 49112, Pitch_bend_c, 6, 15862
14, 49121, Pitch_bend_c, 6, 15602
14, 49123, Pitch_bend_c, 6, 15342
14, 49125, Pitch_bend_c, 6, 15082
14, 49127, Pitch_bend_c, 6, 14692
14, 49128, Pitch_bend_c, 6, 14432
14, 49131, Pitch_bend_c, 6, 14042
14, 49133, Pitch_bend_c, 6, 13652
14, 49134, Pitch_bend_c, 6, 13392
14, 49136, Pitch_bend_c, 6, 13002
14, 49138, Pitch_bend_c, 6, 12872
14, 49140, Pitch_bend_c, 6, 12612
14, 49142, Pitch_bend_c, 6, 12482
14, 49151, Pitch_bend_c, 6, 12872
14, 49152, Pitch_bend_c, 6, 13132
14, 49154, Pitch_bend_c, 6, 13522
14, 49155, Pitch_bend_c, 6, 13912
14, 49158, Pitch_bend_c, 6, 14302
14, 49159, Pitch_bend_c, 6, 14562
14, 49161, Pitch_bend_c, 6, 14822
14, 49163, Pitch_bend_c, 6, 14968
14, 49166, Pitch_bend_c, 6, 15082
14, 49166, Pitch_bend_c, 6, 15212
14, 49170, Pitch_bend_c, 6, 15342
14, 49178, Pitch_bend_c, 6, 15212
14, 49180, Pitch_bend_c, 6, 15082
14, 49183, Pitch_bend_c, 6, 14968
14, 49186, Pitch_bend_c, 6, 14822
14, 49191, Pitch_bend_c, 6, 14692
14, 49206, Pitch_bend_c, 6, 14562
14, 49208, Pitch_bend_c, 6, 14172
14, 49210, Pitch_bend_c, 6, 12872
14, 49213, Pitch_bend_c, 6, 10662
14, 49214, Pitch_bend_c, 6, 8192
14, 49215, Pitch_bend_c, 6, 8192
14, 49216, Pitch_bend_c, 6, 8192
14, 49218, Pitch_bend_c, 6, 8192
14, 49256, Note_on_c, 6, 55, 0
14, 49256, Note_on_c, 6, 53, 103
14, 49311, Note_on_c, 6, 55, 109
14, 49317, Note_on_c, 6, 53, 0
14, 49359, Pitch_bend_c, 6, 9232
14, 49360, Pitch_bend_c, 6, 10402
14, 49362, Pitch_bend_c, 6, 11702
14, 49364, Pitch_bend_c, 6, 12612
14, 49366, Pitch_bend_c, 6, 13132
14, 49369, Pitch_bend_c, 6, 13522
14, 49370, Pitch_bend_c, 6, 13782
14, 49371, Pitch_bend_c, 6, 14042
14, 49373, Pitch_bend_c, 6, 14172
14, 49375, Pitch_bend_c, 6, 14432
14, 49377, Pitch_bend_c, 6, 14562
14, 49378, Pitch_bend_c, 6, 14692
14, 49381, Pitch_bend_c, 6, 14822
14, 49382, Pitch_bend_c, 6, 15082
14, 49385, Pitch_bend_c, 6, 15342
14, 49386, Pitch_bend_c, 6, 15732
14, 49388, Pitch_bend_c, 6, 15992
14, 49389, Pitch_bend_c, 6, 16252
14, 49392, Pitch_bend_c, 6, 16382
14, 49419, Pitch_bend_c, 6, 15992
14, 49421, Pitch_bend_c, 6, 15602
14, 49422, Pitch_bend_c, 6, 14968
14, 49424, Pitch_bend_c, 6, 14562
14, 49426, Pitch_bend_c, 6, 14042
14, 49428, Pitch_bend_c, 6, 13652
14, 49430, Pitch_bend_c, 6, 13262
14, 49432, Pitch_bend_c, 6, 13132
14, 49438, Pitch_bend_c, 6, 13392
14, 49440, Pitch_bend_c, 6, 13652
14, 49441, Pitch_bend_c, 6, 14042
14, 49443, Pitch_bend_c, 6, 14432
14, 49445, Pitch_bend_c, 6, 14822
14, 49447, Pitch_bend_c, 6, 15082
14, 49448, Pitch_bend_c, 6, 15472
14, 49451, Pitch_bend_c, 6, 15602
14, 49454, Pitch_bend_c, 6, 15732
14, 49456, Pitch_bend_c, 6, 15602
14, 49459, Pitch_bend_c, 6, 15342
14, 49460, Pitch_bend_c, 6, 15082
14, 49462, Pitch_bend_c, 6, 14692
14, 49463, Pitch_bend_c, 6, 14432
14, 49465, Pitch_bend_c, 6, 14042
14, 49467, Pitch_bend_c, 6, 13782
14, 49469, Pitch_bend_c, 6, 13262
14, 49472, Pitch_bend_c, 6, 12872
14, 49473, Pitch_bend_c, 6, 12352
14, 49475, Pitch_bend_c, 6, 11962
14, 49477, Pitch_bend_c, 6, 11572
14, 49479, Pitch_bend_c, 6, 11442
14, 49480, Pitch_bend_c, 6, 11312
14, 49487, Pitch_bend_c, 6, 11572
14, 49490, Pitch_bend_c, 6, 11832
14, 49491, Pitch_bend_c, 6, 12482
14, 49493, Pitch_bend_c, 6, 13392
14, 49494, Pitch_bend_c, 6, 14302
14, 49497, Pitch_bend_c, 6, 15212
14, 49498, Pitch_bend_c, 6, 15992
14, 49500, Pitch_bend_c, 6, 16382
14, 49519, Pitch_bend_c, 6, 16252
14, 49521, Pitch_bend_c, 6, 16122
14, 49533, Pitch_bend_c, 6, 16382
14, 49567, Pitch_bend_c, 6, 15992
14, 49568, Pitch_bend_c, 6, 15732
14, 49570, Pitch_bend_c, 6, 15342
14, 49571, Pitch_bend_c, 6, 14968
14, 49574, Pitch_bend_c, 6, 14692
14, 49575, Pitch_bend_c, 6, 14432
14, 49578, Pitch_bend_c, 6, 14302
14, 49581, Pitch_bend_c, 6, 14172
14, 49584, Pitch_bend_c, 6, 14432
14, 49586, Pitch_bend_c, 6, 14692
14, 49589, Pitch_bend_c, 6, 14968
14, 49590, Pitch_bend_c, 6, 15212
14, 49592, Pitch_bend_c, 6, 15472
14, 49594, Pitch_bend_c, 6, 15732
14, 49595, Pitch_bend_c, 6, 15992
14, 49597, Pitch_bend_c, 6, 16122
14, 49602, Pitch_bend_c, 6, 16252
14, 49606, Pitch_bend_c, 6, 15992
14, 49609, Pitch_bend_c, 6, 15732
14, 49611, Pitch_bend_c, 6, 15472
14, 49613, Pitch_bend_c, 6, 15342
14, 49615, Pitch_bend_c, 6, 15082
14, 49617, Pitch_bend_c, 6, 14968
14, 49619, Pitch_bend_c, 6, 14822
14, 49629, Pitch_bend_c, 6, 15082
14, 49630, Pitch_bend_c, 6, 15342
14, 49631, Pitch_bend_c, 6, 15602
14, 49634, Pitch_bend_c, 6, 15992
14, 49635, Pitch_bend_c, 6, 16382
14, 49660, Pitch_bend_c, 6, 15992
14, 49663, Pitch_bend_c, 6, 15732
14, 49664, Pitch_bend_c, 6, 15472
14, 49667, Pitch_bend_c, 6, 15212
14, 49675, Pitch_bend_c, 6, 15602
14, 49676, Pitch_bend_c, 6, 15862
14, 49679, Pitch_bend_c, 6, 16122
14, 49681, Pitch_bend_c, 6, 16382
14, 49705, Pitch_bend_c, 6, 15992
14, 49707, Pitch_bend_c, 6, 15732
14, 49708, Pitch_bend_c, 6, 15342
14, 49710, Pitch_bend_c, 6, 15082
14, 49712, Pitch_bend_c, 6, 14968
14, 49714, Pitch_bend_c, 6, 14822
14, 49722, Pitch_bend_c, 6, 15082
14, 49724, Pitch_bend_c, 6, 15342
14, 49725, Pitch_bend_c, 6, 15602
14, 49726, Pitch_bend_c, 6, 15862
14, 49729, Pitch_bend_c, 6, 16122
14, 49730, Pitch_bend_c, 6, 16252
14, 49732, Pitch_bend_c, 6, 16382
14, 49745, Pitch_bend_c, 6, 16122
14, 49747, Pitch_bend_c, 6, 15992
14, 49748, Pitch_bend_c, 6, 15732
14, 49751, Pitch_bend_c, 6, 15342
14, 49752, Pitch_bend_c, 6, 14968
14, 49754, Pitch_bend_c, 6, 14692
14, 49755, Pitch_bend_c, 6, 14562
14, 49758, Pitch_bend_c, 6, 14432
14, 49765, Pitch_bend_c, 6, 14562
14, 49766, Pitch_bend_c, 6, 14822
14, 49769, Pitch_bend_c, 6, 15082
14, 49770, Pitch_bend_c, 6, 15472
14, 49772, Pitch_bend_c, 6, 15732
14, 49774, Pitch_bend_c, 6, 15992
14, 49776, Pitch_bend_c, 6, 16252
14, 49777, Pitch_bend_c, 6, 16382
14, 49789, Pitch_bend_c, 6, 15992
14, 49791, Pitch_bend_c, 6, 15602
14, 49792, Pitch_bend_c, 6, 15082
14, 49793, Pitch_bend_c, 6, 14562
14, 49796, Pitch_bend_c, 6, 14042
14, 49797, Pitch_bend_c, 6, 13652
14, 49801, Pitch_bend_c, 6, 13132
14, 49802, Pitch_bend_c, 6, 12872
14, 49803, Pitch_bend_c, 6, 12482
14, 49804, Pitch_bend_c, 6, 12352
14, 49812, Pitch_bend_c, 6, 12742
14, 49814, Pitch_bend_c, 6, 13002
14, 49815, Pitch_bend_c, 6, 13262
14, 49818, Pitch_bend_c, 6, 13652
14, 49819, Pitch_bend_c, 6, 13782
14, 49821, Pitch_bend_c, 6, 14042
14, 49823, Pitch_bend_c, 6, 14172
14, 49830, Pitch_bend_c, 6, 13782
14, 49832, Pitch_bend_c, 6, 13522
14, 49833, Pitch_bend_c, 6, 13262
14, 49836, Pitch_bend_c, 6, 12872
14, 49837, Pitch_bend_c, 6, 12352
14, 49840, Pitch_bend_c, 6, 11832
14, 49841, Pitch_bend_c, 6, 11442
14, 49843, Pitch_bend_c, 6, 10922
14, 49844, Pitch_bend_c, 6, 10402
14, 49847, Pitch_bend_c, 6, 10142
14, 49848, Pitch_bend_c, 6, 10012
14, 49850, Pitch_bend_c, 6, 9882
14, 49858, Pitch_bend_c, 6, 10012
14, 49860, Pitch_bend_c, 6, 10272
14, 49862, Pitch_bend_c, 6, 10402
14, 49864, Pitch_bend_c, 6, 10662
14, 49865, Pitch_bend_c, 6, 10792
14, 49868, Pitch_bend_c, 6, 11052
14, 49878, Pitch_bend_c, 6, 10792
14, 49880, Pitch_bend_c, 6, 10532
14, 49882, Pitch_bend_c, 6, 10272
14, 49884, Pitch_bend_c, 6, 10012
14, 49886, Pitch_bend_c, 6, 9752
14, 49887, Pitch_bend_c, 6, 9492
14, 49889, Pitch_bend_c, 6, 9102
14, 49891, Pitch_bend_c, 6, 8842
14, 49892, Pitch_bend_c, 6, 8192
14, 49893, Pitch_bend_c, 6, 8192
14, 49894, Pitch_bend_c, 6, 8192
14, 49897, Pitch_bend_c, 6, 8192
14, 49920, Note_on_c, 6, 55, 0
14, 49927, Note_on_c, 6, 53, 101
14, 49977, Note_on_c, 6, 60, 101
14, 49986, Note_on_c, 6, 53, 0
14, 50031, Note_on_c, 6, 62, 102
14, 50036, Note_on_c, 6, 60, 0
14, 50093, Note_on_c, 6, 60, 103
14, 50104, Note_on_c, 6, 62, 0
14, 50150, Note_on_c, 6, 62, 104
14, 50154, Note_on_c, 6, 60, 0
14, 50269, Note_on_c, 6, 65, 94
14, 50278, Note_on_c, 6, 62, 0
14, 50341, Pitch_bend_c, 6, 8192
14, 50342, Pitch_bend_c, 6, 8712
14, 50344, Pitch_bend_c, 6, 9232
14, 50345, Pitch_bend_c, 6, 10012
14, 50347, Pitch_bend_c, 6, 10792
14, 50350, Pitch_bend_c, 6, 11702
14, 50352, Pitch_bend_c, 6, 12482
14, 50354, Pitch_bend_c, 6, 13002
14, 50356, Pitch_bend_c, 6, 13522
14, 50357, Pitch_bend_c, 6, 13912
14, 50358, Pitch_bend_c, 6, 14172
14, 50360, Pitch_bend_c, 6, 14302
14, 50363, Pitch_bend_c, 6, 14432
14, 50376, Pitch_bend_c, 6, 14302
14, 50380, Pitch_bend_c, 6, 14562
14, 50381, Pitch_bend_c, 6, 14822
14, 50383, Pitch_bend_c, 6, 15212
14, 50385, Pitch_bend_c, 6, 15602
14, 50387, Pitch_bend_c, 6, 16122
14, 50389, Pitch_bend_c, 6, 16382
14, 50413, Pitch_bend_c, 6, 15992
14, 50415, Pitch_bend_c, 6, 15472
14, 50417, Pitch_bend_c, 6, 14692
14, 50418, Pitch_bend_c, 6, 13782
14, 50421, Pitch_bend_c, 6, 12742
14, 50422, Pitch_bend_c, 6, 11962
14, 50424, Pitch_bend_c, 6, 11312
14, 50426, Pitch_bend_c, 6, 10662
14, 50428, Pitch_bend_c, 6, 10142
14, 50430, Pitch_bend_c, 6, 9752
14, 50431, Pitch_bend_c, 6, 9492
14, 50434, Pitch_bend_c, 6, 9232
14, 50435, Pitch_bend_c, 6, 8192
14, 50437, Pitch_bend_c, 6, 8192
14, 50510, Note_on_c, 6, 65, 0
14, 50522, Note_on_c, 6, 65, 105
14, 50578, Note_on_c, 6, 67, 95
14, 50583, Note_on_c, 6, 65, 0
14, 50640, Note_on_c, 6, 65, 109
14, 50657, Note_on_c, 6, 67, 0
14, 50701, Note_on_c, 6, 60, 98
14, 50707, Note_on_c, 6, 65, 0
14, 50753, Note_on_c, 6, 65, 108
14, 50757, Note_on_c, 6, 60, 0
14, 50816, Note_on_c, 6, 65, 0
14, 50820, Note_on_c, 6, 67, 108
14, 50873, Note_on_c, 6, 67, 0
14, 50885, Note_on_c, 6, 67, 102
14, 50898, Pitch_bend_c, 6, 9102
14, 50899, Pitch_bend_c, 6, 11052
14, 50902, Pitch_bend_c, 6, 13132
14, 50903, Pitch_bend_c, 6, 14302
14, 50905, Pitch_bend_c, 6, 14968
14, 50907, Pitch_bend_c, 6, 15602
14, 50909, Pitch_bend_c, 6, 15992
14, 50911, Pitch_bend_c, 6, 16122
14, 50913, Pitch_bend_c, 6, 16382
14, 50922, Pitch_bend_c, 6, 16122
14, 50924, Pitch_bend_c, 6, 15992
14, 50925, Pitch_bend_c, 6, 15732
14, 50928, Pitch_bend_c, 6, 15472
14, 50929, Pitch_bend_c, 6, 15082
14, 50931, Pitch_bend_c, 6, 14822
14, 50932, Pitch_bend_c, 6, 14692
14, 50935, Pitch_bend_c, 6, 14562
14, 50941, Pitch_bend_c, 6, 14822
14, 50943, Pitch_bend_c, 6, 15082
14, 50946, Pitch_bend_c, 6, 15472
14, 50947, Pitch_bend_c, 6, 15862
14, 50949, Pitch_bend_c, 6, 16122
14, 50950, Pitch_bend_c, 6, 16382
14, 50975, Pitch_bend_c, 6, 16252
14, 50983, Pitch_bend_c, 6, 16382
14, 51056, Pitch_bend_c, 6, 15992
14, 51058, Pitch_bend_c, 6, 15472
14, 51060, Pitch_bend_c, 6, 14968
14, 51061, Pitch_bend_c, 6, 14432
14, 51063, Pitch_bend_c, 6, 14042
14, 51065, Pitch_bend_c, 6, 13652
14, 51067, Pitch_bend_c, 6, 13392
14, 51069, Pitch_bend_c, 6, 13132
14, 51071, Pitch_bend_c, 6, 13002
14, 51076, Pitch_bend_c, 6, 13262
14, 51078, Pitch_bend_c, 6, 13522
14, 51080, Pitch_bend_c, 6, 13782
14, 51082, Pitch_bend_c, 6, 14172
14, 51084, Pitch_bend_c, 6, 14562
14, 51085, Pitch_bend_c, 6, 14968
14, 51088, Pitch_bend_c, 6, 15472
14, 51089, Pitch_bend_c, 6, 15862
14, 51091, Pitch_bend_c, 6, 16122
14, 51093, Pitch_bend_c, 6, 16382
14, 51102, Pitch_bend_c, 6, 16122
14, 51105, Pitch_bend_c, 6, 15862
14, 51106, Pitch_bend_c, 6, 15602
14, 51108, Pitch_bend_c, 6, 15212
14, 51109, Pitch_bend_c, 6, 14822
14, 51111, Pitch_bend_c, 6, 14562
14, 51113, Pitch_bend_c, 6, 14172
14, 51116, Pitch_bend_c, 6, 14042
14, 51118, Pitch_bend_c, 6, 13912
14, 51125, Pitch_bend_c, 6, 14042
14, 51126, Pitch_bend_c, 6, 14302
14, 51128, Pitch_bend_c, 6, 14692
14, 51131, Pitch_bend_c, 6, 14968
14, 51132, Pitch_bend_c, 6, 15212
14, 51134, Pitch_bend_c, 6, 15472
14, 51135, Pitch_bend_c, 6, 15732
14, 51138, Pitch_bend_c, 6, 15862
14, 51147, Pitch_bend_c, 6, 15602
14, 51150, Pitch_bend_c, 6, 15342
14, 51152, Pitch_bend_c, 6, 15082
14, 51153, Pitch_bend_c, 6, 14822
14, 51155, Pitch_bend_c, 6, 14692
14, 51157, Pitch_bend_c, 6, 14432
14, 51159, Pitch_bend_c, 6, 14172
14, 51160, Pitch_bend_c, 6, 14042
14, 51164, Pitch_bend_c, 6, 13912
14, 51171, Pitch_bend_c, 6, 14042
14, 51172, Pitch_bend_c, 6, 14172
14, 51175, Pitch_bend_c, 6, 14432
14, 51176, Pitch_bend_c, 6, 14562
14, 51178, Pitch_bend_c, 6, 14822
14, 51181, Pitch_bend_c, 6, 14968
14, 51182, Pitch_bend_c, 6, 15212
14, 51184, Pitch_bend_c, 6, 15342
14, 51185, Pitch_bend_c, 6, 15602
14, 51188, Pitch_bend_c, 6, 15732
14, 51194, Pitch_bend_c, 6, 15472
14, 51196, Pitch_bend_c, 6, 15212
14, 51197, Pitch_bend_c, 6, 14822
14, 51200, Pitch_bend_c, 6, 14432
14, 51201, Pitch_bend_c, 6, 13912
14, 51203, Pitch_bend_c, 6, 13522
14, 51205, Pitch_bend_c, 6, 13002
14, 51207, Pitch_bend_c, 6, 12742
14, 51209, Pitch_bend_c, 6, 12482
14, 51211, Pitch_bend_c, 6, 12222
14, 51213, Pitch_bend_c, 6, 12092
14, 51221, Pitch_bend_c, 6, 12352
14, 51222, Pitch_bend_c, 6, 12482
14, 51225, Pitch_bend_c, 6, 12742
14, 51226, Pitch_bend_c, 6, 12872
14, 51228, Pitch_bend_c, 6, 13002
14, 51230, Pitch_bend_c, 6, 13132
14, 51235, Pitch_bend_c, 6, 13262
14, 51247, Pitch_bend_c, 6, 13002
14, 51249, Pitch_bend_c, 6, 12872
14, 51251, Pitch_bend_c, 6, 12482
14, 51253, Pitch_bend_c, 6, 12222
14, 51255, Pitch_bend_c, 6, 11702
14, 51257, Pitch_bend_c, 6, 11312
14, 51258, Pitch_bend_c, 6, 10662
14, 51260, Pitch_bend_c, 6, 10142
14, 51263, Pitch_bend_c, 6, 9492
14, 51264, Pitch_bend_c, 6, 8712
14, 51266, Pitch_bend_c, 6, 8192
14, 51273, Note_on_c, 6, 67, 0
14, 51292, Note_on_c, 6, 67, 103
14, 51303, Pitch_bend_c, 6, 8192
14, 51305, Pitch_bend_c, 6, 8842
14, 51306, Pitch_bend_c, 6, 9492
14, 51308, Pitch_bend_c, 6, 10142
14, 51310, Pitch_bend_c, 6, 10922
14, 51312, Pitch_bend_c, 6, 11702
14, 51314, Pitch_bend_c, 6, 12612
14, 51316, Pitch_bend_c, 6, 13392
14, 51318, Pitch_bend_c, 6, 14042
14, 51319, Pitch_bend_c, 6, 14562
14, 51321, Pitch_bend_c, 6, 14968
14, 51324, Pitch_bend_c, 6, 15342
14, 51325, Pitch_bend_c, 6, 15602
14, 51328, Pitch_bend_c, 6, 15732
14, 51345, Pitch_bend_c, 6, 15472
14, 51348, Pitch_bend_c, 6, 15212
14, 51350, Pitch_bend_c, 6, 15082
14, 51352, Pitch_bend_c, 6, 14968
14, 51355, Pitch_bend_c, 6, 14692
14, 51364, Pitch_bend_c, 6, 14968
14, 51365, Pitch_bend_c, 6, 15212
14, 51367, Pitch_bend_c, 6, 15602
14, 51370, Pitch_bend_c, 6, 15862
14, 51371, Pitch_bend_c, 6, 16122
14, 51373, Pitch_bend_c, 6, 16382
14, 51404, Pitch_bend_c, 6, 16122
14, 51405, Pitch_bend_c, 6, 15862
14, 51407, Pitch_bend_c, 6, 15602
14, 51408, Pitch_bend_c, 6, 15212
14, 51411, Pitch_bend_c, 6, 14822
14, 51413, Pitch_bend_c, 6, 14562
14, 51414, Pitch_bend_c, 6, 14172
14, 51417, Pitch_bend_c, 6, 13782
14, 51418, Pitch_bend_c, 6, 13522
14, 51420, Pitch_bend_c, 6, 13132
14, 51421, Pitch_bend_c, 6, 12872
14, 51423, Pitch_bend_c, 6, 12612
14, 51425, Pitch_bend_c, 6, 12352
14, 51428, Pitch_bend_c, 6, 11962
14, 51430, Pitch_bend_c, 6, 11702
14, 51431, Pitch_bend_c, 6, 11442
14, 51433, Pitch_bend_c, 6, 11312
14, 51435, Pitch_bend_c, 6, 10922
14, 51436, Pitch_bend_c, 6, 10662
14, 51438, Pitch_bend_c, 6, 10402
14, 51440, Pitch_bend_c, 6, 10142
14, 51443, Pitch_bend_c, 6, 9882
14, 51444, Pitch_bend_c, 6, 9492
14, 51446, Pitch_bend_c, 6, 9232
14, 51447, Pitch_bend_c, 6, 8842
14, 51449, Pitch_bend_c, 6, 8192
14, 51450, Pitch_bend_c, 6, 8192
14, 51452, Pitch_bend_c, 6, 8192
14, 51456, Note_on_c, 6, 67, 0
14, 51472, Note_on_c, 6, 67, 106
14, 51476, Pitch_bend_c, 6, 8192
14, 51477, Pitch_bend_c, 6, 8712
14, 51480, Pitch_bend_c, 6, 9362
14, 51482, Pitch_bend_c, 6, 9882
14, 51483, Pitch_bend_c, 6, 10402
14, 51486, Pitch_bend_c, 6, 10792
14, 51487, Pitch_bend_c, 6, 11442
14, 51489, Pitch_bend_c, 6, 11832
14, 51490, Pitch_bend_c, 6, 12352
14, 51493, Pitch_bend_c, 6, 12742
14, 51494, Pitch_bend_c, 6, 13262
14, 51497, Pitch_bend_c, 6, 13652
14, 51499, Pitch_bend_c, 6, 13912
14, 51500, Pitch_bend_c, 6, 14172
14, 51502, Pitch_bend_c, 6, 14432
14, 51503, Pitch_bend_c, 6, 14562
14, 51506, Pitch_bend_c, 6, 14692
14, 51509, Pitch_bend_c, 6, 14822
14, 51513, Pitch_bend_c, 6, 14968
14, 51516, Pitch_bend_c, 6, 15212
14, 51522, Pitch_bend_c, 6, 15342
14, 51525, Pitch_bend_c, 6, 15602
14, 51527, Pitch_bend_c, 6, 15732
14, 51531, Pitch_bend_c, 6, 15862
14, 51535, Pitch_bend_c, 6, 16122
14, 51538, Pitch_bend_c, 6, 16252
14, 51540, Pitch_bend_c, 6, 16382
14, 51556, Pitch_bend_c, 6, 16122
14, 51558, Pitch_bend_c, 6, 15992
14, 51560, Pitch_bend_c, 6, 15602
14, 51562, Pitch_bend_c, 6, 15212
14, 51563, Pitch_bend_c, 6, 14692
14, 51566, Pitch_bend_c, 6, 14302
14, 51567, Pitch_bend_c, 6, 13782
14, 51569, Pitch_bend_c, 6, 13262
14, 51571, Pitch_bend_c, 6, 12742
14, 51573, Pitch_bend_c, 6, 12222
14, 51575, Note_on_c, 6, 67, 0
14, 51575, Pitch_bend_c, 6, 11572
14, 51576, Pitch_bend_c, 6, 10922
14, 51579, Pitch_bend_c, 6, 10272
14, 51580, Pitch_bend_c, 6, 9752
14, 51582, Pitch_bend_c, 6, 9102
14, 51584, Pitch_bend_c, 6, 8712
14, 51587, Pitch_bend_c, 6, 8192
14, 51587, Pitch_bend_c, 6, 8192
14, 51593, Note_on_c, 6, 67, 89
14, 51600, Pitch_bend_c, 6, 8192
14, 51601, Pitch_bend_c, 6, 8712
14, 51603, Pitch_bend_c, 6, 9232
14, 51605, Pitch_bend_c, 6, 9882
14, 51607, Pitch_bend_c, 6, 10272
14, 51608, Pitch_bend_c, 6, 10792
14, 51611, Pitch_bend_c, 6, 11442
14, 51612, Pitch_bend_c, 6, 11962
14, 51614, Pitch_bend_c, 6, 12352
14, 51616, Pitch_bend_c, 6, 12742
14, 51618, Pitch_bend_c, 6, 13132
14, 51620, Pitch_bend_c, 6, 13522
14, 51621, Pitch_bend_c, 6, 13782
14, 51624, Pitch_bend_c, 6, 14172
14, 51625, Pitch_bend_c, 6, 14432
14, 51627, Pitch_bend_c, 6, 14692
14, 51630, Pitch_bend_c, 6, 14822
14, 51631, Pitch_bend_c, 6, 14968
14, 51633, Pitch_bend_c, 6, 15212
14, 51634, Pitch_bend_c, 6, 15342
14, 51637, Pitch_bend_c, 6, 15472
14, 51638, Pitch_bend_c, 6, 15602
14, 51640, Pitch_bend_c, 6, 15732
14, 51644, Pitch_bend_c, 6, 15862
14, 51646, Pitch_bend_c, 6, 15992
14, 51647, Pitch_bend_c, 6, 16122
14, 51650, Pitch_bend_c, 6, 16252
14, 51651, Pitch_bend_c, 6, 16382
14, 51749, Pitch_bend_c, 6, 16122
14, 51752, Pitch_bend_c, 6, 15732
14, 51753, Pitch_bend_c, 6, 15212
14, 51756, Pitch_bend_c, 6, 14692
14, 51757, Pitch_bend_c, 6, 14042
14, 51759, Note_on_c, 6, 67, 0
14, 51759, Pitch_bend_c, 6, 13522
14, 51761, Pitch_bend_c, 6, 12872
14, 51763, Pitch_bend_c, 6, 12092
14, 51764, Pitch_bend_c, 6, 11572
14, 51767, Pitch_bend_c, 6, 10922
14, 51768, Pitch_bend_c, 6, 10402
14, 51770, Pitch_bend_c, 6, 9882
14, 51773, Pitch_bend_c, 6, 9492
14, 51774, Pitch_bend_c, 6, 9102
14, 51776, Pitch_bend_c, 6, 8842
14, 51776, Note_on_c, 6, 67, 96
14, 51778, Pitch_bend_c, 6, 8712
14, 51789, Pitch_bend_c, 6, 9102
14, 51790, Pitch_bend_c, 6, 9492
14, 51791, Pitch_bend_c, 6, 10012
14, 51794, Pitch_bend_c, 6, 10532
14, 51795, Pitch_bend_c, 6, 11312
14, 51797, Pitch_bend_c, 6, 11962
14, 51798, Pitch_bend_c, 6, 12612
14, 51801, Pitch_bend_c, 6, 13262
14, 51803, Pitch_bend_c, 6, 13782
14, 51804, Pitch_bend_c, 6, 14302
14, 51807, Pitch_bend_c, 6, 14692
14, 51808, Pitch_bend_c, 6, 15082
14, 51810, Pitch_bend_c, 6, 15472
14, 51812, Pitch_bend_c, 6, 15732
14, 51814, Pitch_bend_c, 6, 15992
14, 51815, Pitch_bend_c, 6, 16122
14, 51820, Pitch_bend_c, 6, 16252
14, 51821, Pitch_bend_c, 6, 16382
14, 51893, Pitch_bend_c, 6, 16122
14, 51895, Pitch_bend_c, 6, 15992
14, 51897, Pitch_bend_c, 6, 15732
14, 51900, Pitch_bend_c, 6, 15472
14, 51901, Pitch_bend_c, 6, 15212
14, 51903, Pitch_bend_c, 6, 14822
14, 51904, Pitch_bend_c, 6, 14562
14, 51906, Pitch_bend_c, 6, 14302
14, 51908, Pitch_bend_c, 6, 14042
14, 51910, Pitch_bend_c, 6, 13652
14, 51912, Pitch_bend_c, 6, 13392
14, 51914, Pitch_bend_c, 6, 13002
14, 51916, Pitch_bend_c, 6, 12742
14, 51918, Pitch_bend_c, 6, 12352
14, 51919, Pitch_bend_c, 6, 12092
14, 51921, Pitch_bend_c, 6, 11702
14, 51923, Pitch_bend_c, 6, 11312
14, 51926, Note_on_c, 6, 67, 0
14, 51926, Pitch_bend_c, 6, 10922
14, 51927, Pitch_bend_c, 6, 10402
14, 51929, Pitch_bend_c, 6, 10012
14, 51931, Pitch_bend_c, 6, 9622
14, 51933, Pitch_bend_c, 6, 9232
14, 51935, Pitch_bend_c, 6, 8972
14, 51937, Pitch_bend_c, 6, 8712
14, 51938, Pitch_bend_c, 6, 8192
14, 51945, Note_on_c, 6, 67, 101
14, 51946, Pitch_bend_c, 6, 8842
14, 51948, Pitch_bend_c, 6, 9232
14, 51951, Pitch_bend_c, 6, 9752
14, 51952, Pitch_bend_c, 6, 10142
14, 51954, Pitch_bend_c, 6, 10532
14, 51955, Pitch_bend_c, 6, 11052
14, 51957, Pitch_bend_c, 6, 11702
14, 51959, Pitch_bend_c, 6, 12092
14, 51962, Pitch_bend_c, 6, 12612
14, 51964, Pitch_bend_c, 6, 13132
14, 51965, Pitch_bend_c, 6, 13522
14, 51967, Pitch_bend_c, 6, 14042
14, 51968, Pitch_bend_c, 6, 14432
14, 51971, Pitch_bend_c, 6, 14692
14, 51972, Pitch_bend_c, 6, 15082
14, 51974, Pitch_bend_c, 6, 15342
14, 51977, Pitch_bend_c, 6, 15602
14, 51978, Pitch_bend_c, 6, 15862
14, 51980, Pitch_bend_c, 6, 15992
14, 51983, Pitch_bend_c, 6, 16252
14, 51985, Pitch_bend_c, 6, 16382
14, 52027, Pitch_bend_c, 6, 15992
14, 52029, Pitch_bend_c, 6, 15472
14, 52031, Pitch_bend_c, 6, 14968
14, 52033, Pitch_bend_c, 6, 14432
14, 52035, Pitch_bend_c, 6, 13782
14, 52037, Pitch_bend_c, 6, 13262
14, 52038, Pitch_bend_c, 6, 12742
14, 52040, Pitch_bend_c, 6, 12092
14, 52042, Pitch_bend_c, 6, 11572
14, 52044, Pitch_bend_c, 6, 10792
14, 52046, Pitch_bend_c, 6, 10272
14, 52047, Pitch_bend_c, 6, 9752
14, 52050, Pitch_bend_c, 6, 9102
14, 52051, Pitch_bend_c, 6, 8192
14, 52052, Pitch_bend_c, 6, 8192
14, 52054, Note_on_c, 6, 67, 0
14, 52072, Note_on_c, 6, 67, 97
14, 52079, Pitch_bend_c, 6, 8842
14, 52080, Pitch_bend_c, 6, 9492
14, 52083, Pitch_bend_c, 6, 10142
14, 52084, Pitch_bend_c, 6, 10792
14, 52086, Pitch_bend_c, 6, 11442
14, 52088, Pitch_bend_c, 6, 11962
14, 52089, Pitch_bend_c, 6, 12352
14, 52092, Pitch_bend_c, 6, 12872
14, 52093, Pitch_bend_c, 6, 13262
14, 52095, Pitch_bend_c, 6, 13522
14, 52097, Pitch_bend_c, 6, 13782
14, 52099, Pitch_bend_c, 6, 14042
14, 52101, Pitch_bend_c, 6, 14302
14, 52102, Pitch_bend_c, 6, 14562
14, 52105, Pitch_bend_c, 6, 14692
14, 52106, Pitch_bend_c, 6, 14968
14, 52109, Pitch_bend_c, 6, 15082
14, 52110, Pitch_bend_c, 6, 15342
14, 52112, Pitch_bend_c, 6, 15602
14, 52114, Pitch_bend_c, 6, 15862
14, 52115, Pitch_bend_c, 6, 15992
14, 52118, Pitch_bend_c, 6, 16122
14, 52120, Pitch_bend_c, 6, 16252
14, 52121, Pitch_bend_c, 6, 16382
14, 52201, Pitch_bend_c, 6, 16122
14, 52202, Pitch_bend_c, 6, 15862
14, 52204, Pitch_bend_c, 6, 15602
14, 52206, Pitch_bend_c, 6, 15212
14, 52209, Pitch_bend_c, 6, 14822
14, 52210, Pitch_bend_c, 6, 14302
14, 52211, Pitch_bend_c, 6, 13782
14, 52214, Pitch_bend_c, 6, 13262
14, 52216, Pitch_bend_c, 6, 12742
14, 52217, Pitch_bend_c, 6, 12222
14, 52219, Pitch_bend_c, 6, 11572
14, 52221, Pitch_bend_c, 6, 10922
14, 52223, Pitch_bend_c, 6, 10272
14, 52224, Pitch_bend_c, 6, 9622
14, 52227, Pitch_bend_c, 6, 9102
14, 52229, Pitch_bend_c, 6, 8192
14, 52229, Pitch_bend_c, 6, 8192
14, 52236, Note_on_c, 6, 67, 0
14, 52256, Note_on_c, 6, 67, 106
14, 52270, Pitch_bend_c, 6, 8192
14, 52271, Pitch_bend_c, 6, 8712
14, 52275, Pitch_bend_c, 6, 9102
14, 52276, Pitch_bend_c, 6, 9752
14, 52277, Pitch_bend_c, 6, 10142
14, 52280, Pitch_bend_c, 6, 10532
14, 52281, Pitch_bend_c, 6, 11052
14, 52283, Pitch_bend_c, 6, 11572
14, 52284, Pitch_bend_c, 6, 12092
14, 52287, Pitch_bend_c, 6, 12482
14, 52289, Pitch_bend_c, 6, 12872
14, 52290, Pitch_bend_c, 6, 13262
14, 52293, Pitch_bend_c, 6, 13652
14, 52294, Pitch_bend_c, 6, 13912
14, 52296, Pitch_bend_c, 6, 14172
14, 52297, Pitch_bend_c, 6, 14302
14, 52300, Pitch_bend_c, 6, 14562
14, 52302, Pitch_bend_c, 6, 14822
14, 52303, Pitch_bend_c, 6, 14968
14, 52306, Pitch_bend_c, 6, 15082
14, 52307, Pitch_bend_c, 6, 15342
14, 52309, Pitch_bend_c, 6, 15602
14, 52311, Pitch_bend_c, 6, 15732
14, 52313, Pitch_bend_c, 6, 15992
14, 52315, Pitch_bend_c, 6, 16122
14, 52316, Pitch_bend_c, 6, 16382
14, 52343, Pitch_bend_c, 6, 16122
14, 52344, Pitch_bend_c, 6, 15862
14, 52346, Pitch_bend_c, 6, 15602
14, 52348, Pitch_bend_c, 6, 15342
14, 52350, Pitch_bend_c, 6, 14968
14, 52353, Pitch_bend_c, 6, 14692
14, 52354, Pitch_bend_c, 6, 14432
14, 52356, Pitch_bend_c, 6, 14172
14, 52358, Pitch_bend_c, 6, 13912
14, 52359, Pitch_bend_c, 6, 13652
14, 52362, Pitch_bend_c, 6, 13262
14, 52363, Pitch_bend_c, 6, 13002
14, 52365, Pitch_bend_c, 6, 12742
14, 52367, Pitch_bend_c, 6, 12482
14, 52369, Pitch_bend_c, 6, 12222
14, 52371, Pitch_bend_c, 6, 11962
14, 52372, Pitch_bend_c, 6, 11702
14, 52375, Pitch_bend_c, 6, 11442
14, 52376, Pitch_bend_c, 6, 11312
14, 52379, Pitch_bend_c, 6, 10922
14, 52380, Pitch_bend_c, 6, 10662
14, 52382, Pitch_bend_c, 6, 10402
14, 52384, Pitch_bend_c, 6, 10272
14, 52385, Pitch_bend_c, 6, 10012
14, 52387, Pitch_bend_c, 6, 9752
14, 52389, Pitch_bend_c, 6, 9622
14, 52392, Pitch_bend_c, 6, 9362
14, 52393, Pitch_bend_c, 6, 9232
14, 52396, Pitch_bend_c, 6, 9102
14, 52397, Pitch_bend_c, 6, 8972
14, 52406, Pitch_bend_c, 6, 9232
14, 52407, Note_on_c, 6, 67, 0
14, 52408, Pitch_bend_c, 6, 9492
14, 52410, Pitch_bend_c, 6, 9882
14, 52411, Pitch_bend_c, 6, 10272
14, 52413, Pitch_bend_c, 6, 10662
14, 52416, Pitch_bend_c, 6, 11312
14, 52417, Pitch_bend_c, 6, 11832
14, 52420, Pitch_bend_c, 6, 12352
14, 52421, Pitch_bend_c, 6, 13002
14, 52423, Pitch_bend_c, 6, 13652
14, 52425, Pitch_bend_c, 6, 14172
14, 52428, Pitch_bend_c, 6, 14692
14, 52430, Pitch_bend_c, 6, 15082
14, 52431, Pitch_bend_c, 6, 15472
14, 52433, Pitch_bend_c, 6, 15862
14, 52434, Pitch_bend_c, 6, 16122
14, 52435, Note_on_c, 6, 67, 89
14, 52436, Pitch_bend_c, 6, 16252
14, 52438, Pitch_bend_c, 6, 16382
14, 52533, Pitch_bend_c, 6, 16122
14, 52535, Pitch_bend_c, 6, 15862
14, 52537, Pitch_bend_c, 6, 15472
14, 52538, Note_on_c, 6, 67, 0
14, 52538, Pitch_bend_c, 6, 15212
14, 52540, Pitch_bend_c, 6, 14692
14, 52542, Pitch_bend_c, 6, 14302
14, 52544, Pitch_bend_c, 6, 13912
14, 52547, Pitch_bend_c, 6, 13522
14, 52548, Pitch_bend_c, 6, 13002
14, 52550, Pitch_bend_c, 6, 12612
14, 52551, Note_on_c, 6, 67, 102
14, 52552, Pitch_bend_c, 6, 12222
14, 52554, Pitch_bend_c, 6, 11832
14, 52555, Pitch_bend_c, 6, 11572
14, 52557, Pitch_bend_c, 6, 11442
14, 52560, Pitch_bend_c, 6, 11312
14, 52561, Pitch_bend_c, 6, 11052
14, 52573, Pitch_bend_c, 6, 11442
14, 52575, Pitch_bend_c, 6, 11572
14, 52576, Pitch_bend_c, 6, 11962
14, 52578, Pitch_bend_c, 6, 12352
14, 52579, Pitch_bend_c, 6, 12742
14, 52581, Pitch_bend_c, 6, 13132
14, 52583, Pitch_bend_c, 6, 13652
14, 52585, Pitch_bend_c, 6, 14172
14, 52588, Pitch_bend_c, 6, 14562
14, 52589, Pitch_bend_c, 6, 14822
14, 52591, Pitch_bend_c, 6, 15212
14, 52593, Pitch_bend_c, 6, 15602
14, 52594, Pitch_bend_c, 6, 15862
14, 52597, Pitch_bend_c, 6, 15992
14, 52598, Pitch_bend_c, 6, 16122
14, 52601, Pitch_bend_c, 6, 16382
14, 52683, Pitch_bend_c, 6, 16122
14, 52684, Pitch_bend_c, 6, 15992
14, 52687, Pitch_bend_c, 6, 15732
14, 52688, Pitch_bend_c, 6, 15472
14, 52690, Pitch_bend_c, 6, 15212
14, 52693, Pitch_bend_c, 6, 14822
14, 52694, Pitch_bend_c, 6, 14432
14, 52696, Pitch_bend_c, 6, 14042
14, 52697, Pitch_bend_c, 6, 13652
14, 52700, Pitch_bend_c, 6, 13132
14, 52702, Pitch_bend_c, 6, 12612
14, 52703, Pitch_bend_c, 6, 12092
14, 52706, Pitch_bend_c, 6, 11442
14, 52708, Pitch_bend_c, 6, 10532
14, 52709, Pitch_bend_c, 6, 9752
14, 52711, Note_on_c, 6, 67, 0
14, 52711, Pitch_bend_c, 6, 8972
14, 52712, Pitch_bend_c, 6, 8192
14, 52731, Note_on_c, 6, 67, 96
14, 52749, Pitch_bend_c, 6, 8192
14, 52751, Pitch_bend_c, 6, 8712
14, 52753, Pitch_bend_c, 6, 9102
14, 52755, Pitch_bend_c, 6, 9622
14, 52758, Pitch_bend_c, 6, 10012
14, 52759, Pitch_bend_c, 6, 10402
14, 52762, Pitch_bend_c, 6, 10792
14, 52763, Pitch_bend_c, 6, 11312
14, 52764, Pitch_bend_c, 6, 11702
14, 52767, Pitch_bend_c, 6, 12092
14, 52768, Pitch_bend_c, 6, 12482
14, 52771, Pitch_bend_c, 6, 13002
14, 52772, Pitch_bend_c, 6, 13392
14, 52774, Pitch_bend_c, 6, 13652
14, 52775, Pitch_bend_c, 6, 14042
14, 52778, Pitch_bend_c, 6, 14302
14, 52780, Pitch_bend_c, 6, 14692
14, 52781, Pitch_bend_c, 6, 14822
14, 52784, Pitch_bend_c, 6, 15082
14, 52785, Pitch_bend_c, 6, 15342
14, 52787, Pitch_bend_c, 6, 15602
14, 52788, Pitch_bend_c, 6, 15732
14, 52790, Pitch_bend_c, 6, 15862
14, 52794, Pitch_bend_c, 6, 16122
14, 52798, Pitch_bend_c, 6, 16252
14, 52800, Pitch_bend_c, 6, 16382
14, 52862, Pitch_bend_c, 6, 15992
14, 52865, Pitch_bend_c, 6, 15862
14, 52866, Pitch_bend_c, 6, 15602
14, 52868, Pitch_bend_c, 6, 15212
14, 52870, Pitch_bend_c, 6, 14968
14, 52872, Pitch_bend_c, 6, 14692
14, 52874, Pitch_bend_c, 6, 14432
14, 52875, Pitch_bend_c, 6, 14172
14, 52878, Pitch_bend_c, 6, 13912
14, 52879, Pitch_bend_c, 6, 13652
14, 52881, Pitch_bend_c, 6, 13262
14, 52883, Pitch_bend_c, 6, 13002
14, 52885, Pitch_bend_c, 6, 12742
14, 52887, Pitch_bend_c, 6, 12482
14, 52888, Pitch_bend_c, 6, 12092
14, 52891, Pitch_bend_c, 6, 11832
14, 52892, Pitch_bend_c, 6, 11572
14, 52895, Pitch_bend_c, 6, 11312
14, 52897, Pitch_bend_c, 6, 10922
14, 52898, Pitch_bend_c, 6, 10532
14, 52900, Pitch_bend_c, 6, 10272
14, 52902, Pitch_bend_c, 6, 10012
14, 52903, Pitch_bend_c, 6, 9492
14, 52905, Pitch_bend_c, 6, 8192
14, 52906, Pitch_bend_c, 6, 8192
14, 52912, Note_on_c, 6, 65, 105
14, 52913, Note_on_c, 6, 67, 0
14, 52962, Note_on_c, 6, 62, 95
14, 52966, Note_on_c, 6, 65, 0
14, 53016, Note_on_c, 6, 65, 95
14, 53023, Note_on_c, 6, 62, 0
14, 53083, Note_on_c, 6, 67, 96
14, 53098, Note_on_c, 6, 65, 0
14, 53148, Note_on_c, 6, 65, 108
14, 53152, Note_on_c, 6, 67, 0
14, 53214, Note_on_c, 6, 67, 102
14, 53217, Note_on_c, 6, 65, 0
14, 53249, Note_on_c, 6, 67, 0
14, 53267, Note_on_c, 6, 67, 102
14, 53298, Pitch_bend_c, 6, 8712
14, 53300, Pitch_bend_c, 6, 9492
14, 53301, Pitch_bend_c, 6, 10012
14, 53304, Pitch_bend_c, 6, 10402
14, 53306, Pitch_bend_c, 6, 10792
14, 53307, Pitch_bend_c, 6, 11052
14, 53308, Pitch_bend_c, 6, 11442
14, 53310, Pitch_bend_c, 6, 11702
14, 53313, Pitch_bend_c, 6, 11832
14, 53314, Pitch_bend_c, 6, 12092
14, 53317, Pitch_bend_c, 6, 12352
14, 53318, Pitch_bend_c, 6, 12612
14, 53320, Pitch_bend_c, 6, 12872
14, 53322, Pitch_bend_c, 6, 13262
14, 53323, Pitch_bend_c, 6, 13522
14, 53326, Pitch_bend_c, 6, 13912
14, 53327, Pitch_bend_c, 6, 14172
14, 53330, Pitch_bend_c, 6, 14562
14, 53331, Pitch_bend_c, 6, 14822
14, 53333, Pitch_bend_c, 6, 15342
14, 53335, Pitch_bend_c, 6, 15602
14, 53337, Pitch_bend_c, 6, 15862
14, 53339, Pitch_bend_c, 6, 16122
14, 53343, Pitch_bend_c, 6, 16252
14, 53355, Pitch_bend_c, 6, 16122
14, 53357, Pitch_bend_c, 6, 15992
14, 53358, Pitch_bend_c, 6, 15732
14, 53361, Pitch_bend_c, 6, 15342
14, 53362, Pitch_bend_c, 6, 14968
14, 53364, Pitch_bend_c, 6, 14562
14, 53367, Pitch_bend_c, 6, 14042
14, 53368, Pitch_bend_c, 6, 13522
14, 53370, Pitch_bend_c, 6, 13002
14, 53372, Pitch_bend_c, 6, 12612
14, 53373, Pitch_bend_c, 6, 12092
14, 53375, Pitch_bend_c, 6, 11702
14, 53377, Pitch_bend_c, 6, 11312
14, 53380, Pitch_bend_c, 6, 10662
14, 53381, Pitch_bend_c, 6, 10402
14, 53383, Pitch_bend_c, 6, 10012
14, 53385, Pitch_bend_c, 6, 9752
14, 53386, Pitch_bend_c, 6, 9492
14, 53389, Pitch_bend_c, 6, 9362
14, 53394, Pitch_bend_c, 6, 9622
14, 53396, Pitch_bend_c, 6, 10012
14, 53398, Pitch_bend_c, 6, 10532
14, 53399, Pitch_bend_c, 6, 11312
14, 53401, Pitch_bend_c, 6, 12092
14, 53403, Pitch_bend_c, 6, 12742
14, 53406, Pitch_bend_c, 6, 13522
14, 53407, Pitch_bend_c, 6, 14172
14, 53409, Pitch_bend_c, 6, 14692
14, 53411, Pitch_bend_c, 6, 15342
14, 53414, Pitch_bend_c, 6, 15732
14, 53414, Pitch_bend_c, 6, 16122
14, 53416, Pitch_bend_c, 6, 16382
14, 53428, Pitch_bend_c, 6, 16122
14, 53431, Pitch_bend_c, 6, 15862
14, 53432, Pitch_bend_c, 6, 15472
14, 53434, Pitch_bend_c, 6, 14968
14, 53435, Pitch_bend_c, 6, 14692
14, 53437, Pitch_bend_c, 6, 14302
14, 53439, Pitch_bend_c, 6, 14042
14, 53441, Pitch_bend_c, 6, 13912
14, 53444, Pitch_bend_c, 6, 13782
14, 53456, Pitch_bend_c, 6, 14042
14, 53458, Pitch_bend_c, 6, 14172
14, 53460, Pitch_bend_c, 6, 14432
14, 53462, Pitch_bend_c, 6, 14822
14, 53463, Pitch_bend_c, 6, 15082
14, 53465, Pitch_bend_c, 6, 15602
14, 53467, Pitch_bend_c, 6, 15992
14, 53469, Pitch_bend_c, 6, 16122
14, 53471, Pitch_bend_c, 6, 16382
14, 53487, Pitch_bend_c, 6, 16122
14, 53489, Pitch_bend_c, 6, 15992
14, 53490, Pitch_bend_c, 6, 15602
14, 53492, Pitch_bend_c, 6, 15342
14, 53494, Pitch_bend_c, 6, 14968
14, 53496, Note_on_c, 6, 67, 0
14, 53496, Pitch_bend_c, 6, 14562
14, 53499, Pitch_bend_c, 6, 14172
14, 53500, Pitch_bend_c, 6, 13782
14, 53502, Pitch_bend_c, 6, 13262
14, 53503, Pitch_bend_c, 6, 12872
14, 53505, Pitch_bend_c, 6, 12352
14, 53507, Pitch_bend_c, 6, 11702
14, 53509, Pitch_bend_c, 6, 11052
14, 53511, Pitch_bend_c, 6, 10272
14, 53513, Pitch_bend_c, 6, 9362
14, 53515, Pitch_bend_c, 6, 8192
14, 53516, Pitch_bend_c, 6, 8192
14, 53517, Note_on_c, 6, 67, 102
14, 53541, Pitch_bend_c, 6, 8842
14, 53543, Pitch_bend_c, 6, 9622
14, 53545, Pitch_bend_c, 6, 10142
14, 53547, Pitch_bend_c, 6, 10662
14, 53549, Pitch_bend_c, 6, 11052
14, 53550, Pitch_bend_c, 6, 11572
14, 53553, Pitch_bend_c, 6, 11962
14, 53554, Pitch_bend_c, 6, 12352
14, 53556, Pitch_bend_c, 6, 12742
14, 53558, Pitch_bend_c, 6, 13002
14, 53560, Pitch_bend_c, 6, 13262
14, 53562, Pitch_bend_c, 6, 13522
14, 53564, Pitch_bend_c, 6, 13782
14, 53565, Pitch_bend_c, 6, 13912
14, 53567, Pitch_bend_c, 6, 14172
14, 53569, Pitch_bend_c, 6, 14432
14, 53571, Pitch_bend_c, 6, 14562
14, 53573, Pitch_bend_c, 6, 14692
14, 53575, Pitch_bend_c, 6, 14968
14, 53576, Pitch_bend_c, 6, 15082
14, 53578, Pitch_bend_c, 6, 15212
14, 53580, Pitch_bend_c, 6, 15342
14, 53582, Pitch_bend_c, 6, 15472
14, 53584, Pitch_bend_c, 6, 15602
14, 53586, Pitch_bend_c, 6, 15732
14, 53588, Pitch_bend_c, 6, 15992
14, 53589, Pitch_bend_c, 6, 16122
14, 53591, Pitch_bend_c, 6, 16382
14, 53672, Pitch_bend_c, 6, 16122
14, 53674, Pitch_bend_c, 6, 15862
14, 53676, Pitch_bend_c, 6, 15472
14, 53678, Pitch_bend_c, 6, 15082
14, 53680, Pitch_bend_c, 6, 14692
14, 53682, Note_on_c, 6, 67, 0
14, 53682, Pitch_bend_c, 6, 14302
14, 53684, Pitch_bend_c, 6, 13912
14, 53685, Pitch_bend_c, 6, 13522
14, 53687, Pitch_bend_c, 6, 13002
14, 53689, Pitch_bend_c, 6, 12352
14, 53691, Pitch_bend_c, 6, 11702
14, 53693, Pitch_bend_c, 6, 10922
14, 53694, Pitch_bend_c, 6, 10272
14, 53696, Pitch_bend_c, 6, 9362
14, 53698, Pitch_bend_c, 6, 8192
14, 53700, Pitch_bend_c, 6, 8192
14, 53704, Note_on_c, 6, 67, 102
14, 53728, Pitch_bend_c, 6, 8712
14, 53730, Pitch_bend_c, 6, 9622
14, 53732, Pitch_bend_c, 6, 10402
14, 53734, Pitch_bend_c, 6, 11052
14, 53735, Pitch_bend_c, 6, 11832
14, 53737, Pitch_bend_c, 6, 12482
14, 53739, Pitch_bend_c, 6, 13002
14, 53741, Pitch_bend_c, 6, 13522
14, 53744, Pitch_bend_c, 6, 14042
14, 53745, Pitch_bend_c, 6, 14432
14, 53747, Pitch_bend_c, 6, 14822
14, 53748, Pitch_bend_c, 6, 15212
14, 53750, Pitch_bend_c, 6, 15472
14, 53753, Pitch_bend_c, 6, 15862
14, 53754, Pitch_bend_c, 6, 16122
14, 53757, Pitch_bend_c, 6, 16252
14, 53758, Pitch_bend_c, 6, 16382
14, 53827, Pitch_bend_c, 6, 16122
14, 53829, Pitch_bend_c, 6, 15992
14, 53831, Pitch_bend_c, 6, 15862
14, 53833, Pitch_bend_c, 6, 15602
14, 53834, Pitch_bend_c, 6, 15212
14, 53836, Pitch_bend_c, 6, 14968
14, 53839, Pitch_bend_c, 6, 14562
14, 53840, Pitch_bend_c, 6, 14172
14, 53842, Pitch_bend_c, 6, 13782
14, 53843, Pitch_bend_c, 6, 13262
14, 53846, Pitch_bend_c, 6, 12872
14, 53847, Pitch_bend_c, 6, 12352
14, 53849, Pitch_bend_c, 6, 11832
14, 53852, Pitch_bend_c, 6, 11442
14, 53853, Pitch_bend_c, 6, 10922
14, 53855, Pitch_bend_c, 6, 10662
14, 53856, Pitch_bend_c, 6, 10402
14, 53859, Pitch_bend_c, 6, 10012
14, 53860, Pitch_bend_c, 6, 9882
14, 53862, Pitch_bend_c, 6, 9622
14, 53865, Pitch_bend_c, 6, 9362
14, 53866, Pitch_bend_c, 6, 9232
14, 53868, Pitch_bend_c, 6, 9102
14, 53884, Note_on_c, 6, 65, 104
14, 53886, Note_on_c, 6, 67, 0
14, 53887, Pitch_bend_c, 6, 8192
14, 53888, Pitch_bend_c, 6, 8192
14, 53940, Note_on_c, 6, 62, 104
14, 53946, Note_on_c, 6, 65, 0
14, 54002, Note_on_c, 6, 62, 0
14, 54004, Note_on_c, 6, 65, 106
14, 54063, Note_on_c, 6, 67, 100
14, 54070, Note_on_c, 6, 65, 0
14, 54120, Note_on_c, 6, 65, 111
14, 54133, Note_on_c, 6, 67, 0
14, 54178, Note_on_c, 6, 62, 100
14, 54179, Note_on_c, 6, 65, 0
14, 54225, Note_on_c, 6, 62, 0
14, 54231, Note_on_c, 6, 65, 106
14, 54296, Note_on_c, 6, 65, 0
14, 54300, Note_on_c, 6, 62, 90
14, 54333, Note_on_c, 6, 65, 102
14, 54333, Pitch_bend_c, 6, 8192
14, 54334, Note_on_c, 6, 62, 0
14, 54334, Pitch_bend_c, 6, 8712
14, 54337, Pitch_bend_c, 6, 9362
14, 54338, Pitch_bend_c, 6, 10142
14, 54341, Pitch_bend_c, 6, 10792
14, 54342, Pitch_bend_c, 6, 11442
14, 54344, Pitch_bend_c, 6, 11832
14, 54347, Pitch_bend_c, 6, 12352
14, 54348, Pitch_bend_c, 6, 12742
14, 54350, Pitch_bend_c, 6, 13132
14, 54352, Pitch_bend_c, 6, 13522
14, 54354, Note_on_c, 6, 67, 102
14, 54354, Pitch_bend_c, 6, 13782
14, 54356, Pitch_bend_c, 6, 13912
14, 54358, Pitch_bend_c, 6, 14042
14, 54361, Pitch_bend_c, 6, 14172
14, 54366, Pitch_bend_c, 6, 14042
14, 54368, Pitch_bend_c, 6, 13782
14, 54369, Note_on_c, 6, 65, 0
14, 54370, Pitch_bend_c, 6, 13392
14, 54371, Pitch_bend_c, 6, 13002
14, 54374, Pitch_bend_c, 6, 12482
14, 54375, Pitch_bend_c, 6, 11962
14, 54377, Pitch_bend_c, 6, 11442
14, 54380, Pitch_bend_c, 6, 10662
14, 54381, Pitch_bend_c, 6, 10012
14, 54383, Pitch_bend_c, 6, 9492
14, 54384, Pitch_bend_c, 6, 8972
14, 54387, Pitch_bend_c, 6, 8192
14, 54387, Pitch_bend_c, 6, 8192
14, 54413, Note_on_c, 6, 67, 0
14, 54414, Note_on_c, 6, 65, 106
14, 54472, Note_on_c, 6, 67, 105
14, 54480, Note_on_c, 6, 65, 0
14, 54533, Note_on_c, 6, 67, 0
14, 54533, Note_on_c, 6, 65, 111
14, 54598, Note_on_c, 6, 67, 106
14, 54606, Note_on_c, 6, 65, 0
14, 54608, Pitch_bend_c, 6, 8192
14, 54608, Pitch_bend_c, 6, 8712
14, 54611, Pitch_bend_c, 6, 9232
14, 54612, Pitch_bend_c, 6, 9882
14, 54615, Pitch_bend_c, 6, 10402
14, 54616, Pitch_bend_c, 6, 10922
14, 54618, Pitch_bend_c, 6, 11572
14, 54619, Pitch_bend_c, 6, 12092
14, 54621, Pitch_bend_c, 6, 12612
14, 54624, Pitch_bend_c, 6, 13002
14, 54625, Pitch_bend_c, 6, 13522
14, 54628, Pitch_bend_c, 6, 13912
14, 54629, Pitch_bend_c, 6, 14172
14, 54631, Pitch_bend_c, 6, 14432
14, 54633, Pitch_bend_c, 6, 14562
14, 54641, Pitch_bend_c, 6, 14302
14, 54644, Pitch_bend_c, 6, 14042
14, 54645, Pitch_bend_c, 6, 13652
14, 54646, Pitch_bend_c, 6, 13262
14, 54648, Pitch_bend_c, 6, 13002
14, 54650, Pitch_bend_c, 6, 12612
14, 54653, Pitch_bend_c, 6, 12222
14, 54654, Pitch_bend_c, 6, 11962
14, 54656, Pitch_bend_c, 6, 11572
14, 54658, Pitch_bend_c, 6, 11312
14, 54660, Pitch_bend_c, 6, 10922
14, 54662, Pitch_bend_c, 6, 10662
14, 54663, Pitch_bend_c, 6, 10402
14, 54665, Pitch_bend_c, 6, 10142
14, 54668, Pitch_bend_c, 6, 9882
14, 54669, Pitch_bend_c, 6, 9622
14, 54671, Pitch_bend_c, 6, 9362
14, 54672, Pitch_bend_c, 6, 9102
14, 54674, Pitch_bend_c, 6, 8972
14, 54676, Pitch_bend_c, 6, 8842
14, 54676, Note_on_c, 6, 65, 113
14, 54679, Pitch_bend_c, 6, 8192
14, 54680, Note_on_c, 6, 67, 0
14, 54680, Pitch_bend_c, 6, 8192
14, 54682, Pitch_bend_c, 6, 8192
14, 54686, Pitch_bend_c, 6, 8192
14, 54722, Note_on_c, 6, 65, 0
14, 54722, Note_on_c, 6, 67, 112
14, 54731, Pitch_bend_c, 6, 8192
14, 54733, Pitch_bend_c, 6, 8842
14, 54734, Pitch_bend_c, 6, 9622
14, 54736, Pitch_bend_c, 6, 10272
14, 54738, Pitch_bend_c, 6, 10922
14, 54740, Pitch_bend_c, 6, 11702
14, 54742, Pitch_bend_c, 6, 12222
14, 54744, Pitch_bend_c, 6, 12742
14, 54746, Pitch_bend_c, 6, 13132
14, 54747, Pitch_bend_c, 6, 13392
14, 54749, Pitch_bend_c, 6, 13782
14, 54752, Pitch_bend_c, 6, 13912
14, 54753, Pitch_bend_c, 6, 14172
14, 54755, Pitch_bend_c, 6, 14302
14, 54757, Pitch_bend_c, 6, 14562
14, 54760, Pitch_bend_c, 6, 14692
14, 54761, Pitch_bend_c, 6, 14968
14, 54763, Pitch_bend_c, 6, 15342
14, 54765, Pitch_bend_c, 6, 15602
14, 54766, Pitch_bend_c, 6, 15992
14, 54768, Pitch_bend_c, 6, 16252
14, 54770, Pitch_bend_c, 6, 16382
14, 54796, Pitch_bend_c, 6, 15992
14, 54799, Pitch_bend_c, 6, 15602
14, 54800, Pitch_bend_c, 6, 14968
14, 54802, Pitch_bend_c, 6, 14432
14, 54803, Pitch_bend_c, 6, 13912
14, 54805, Pitch_bend_c, 6, 13262
14, 54808, Pitch_bend_c, 6, 12612
14, 54809, Pitch_bend_c, 6, 11962
14, 54812, Pitch_bend_c, 6, 11052
14, 54813, Pitch_bend_c, 6, 10402
14, 54815, Pitch_bend_c, 6, 9622
14, 54816, Pitch_bend_c, 6, 8842
14, 54818, Pitch_bend_c, 6, 8192
14, 54820, Note_on_c, 6, 67, 0
14, 54841, Note_on_c, 6, 67, 107
14, 54852, Pitch_bend_c, 6, 8192
14, 54854, Pitch_bend_c, 6, 8712
14, 54856, Pitch_bend_c, 6, 9102
14, 54857, Pitch_bend_c, 6, 9492
14, 54860, Pitch_bend_c, 6, 9882
14, 54863, Pitch_bend_c, 6, 10142
14, 54863, Pitch_bend_c, 6, 10402
14, 54865, Pitch_bend_c, 6, 10662
14, 54867, Pitch_bend_c, 6, 10922
14, 54869, Pitch_bend_c, 6, 11312
14, 54870, Pitch_bend_c, 6, 11572
14, 54873, Pitch_bend_c, 6, 11832
14, 54874, Pitch_bend_c, 6, 12352
14, 54877, Pitch_bend_c, 6, 12742
14, 54878, Pitch_bend_c, 6, 13262
14, 54880, Pitch_bend_c, 6, 13652
14, 54882, Pitch_bend_c, 6, 14172
14, 54883, Pitch_bend_c, 6, 14822
14, 54886, Pitch_bend_c, 6, 15212
14, 54887, Pitch_bend_c, 6, 15602
14, 54890, Pitch_bend_c, 6, 15862
14, 54892, Pitch_bend_c, 6, 16122
14, 54893, Pitch_bend_c, 6, 16252
14, 54897, Pitch_bend_c, 6, 16382
14, 54906, Pitch_bend_c, 6, 16252
14, 54907, Pitch_bend_c, 6, 16122
14, 54909, Pitch_bend_c, 6, 15992
14, 54912, Pitch_bend_c, 6, 15602
14, 54913, Pitch_bend_c, 6, 15212
14, 54916, Pitch_bend_c, 6, 14822
14, 54917, Pitch_bend_c, 6, 14302
14, 54919, Pitch_bend_c, 6, 13652
14, 54920, Pitch_bend_c, 6, 13132
14, 54922, Pitch_bend_c, 6, 12352
14, 54925, Pitch_bend_c, 6, 11572
14, 54926, Pitch_bend_c, 6, 10662
14, 54929, Pitch_bend_c, 6, 10012
14, 54930, Pitch_bend_c, 6, 9232
14, 54932, Pitch_bend_c, 6, 8192
14, 54933, Pitch_bend_c, 6, 8192
14, 54949, Note_on_c, 6, 67, 0
14, 54959, Pitch_bend_c, 6, 8192
14, 54962, Pitch_bend_c, 6, 8972
14, 54963, Pitch_bend_c, 6, 9882
14, 54964, Note_on_c, 6, 67, 107
14, 54965, Pitch_bend_c, 6, 10792
14, 54967, Pitch_bend_c, 6, 11832
14, 54970, Pitch_bend_c, 6, 12612
14, 54971, Pitch_bend_c, 6, 13392
14, 54973, Pitch_bend_c, 6, 13912
14, 54974, Pitch_bend_c, 6, 14562
14, 54977, Pitch_bend_c, 6, 14968
14, 54979, Pitch_bend_c, 6, 15342
14, 54981, Pitch_bend_c, 6, 15602
14, 54983, Pitch_bend_c, 6, 15862
14, 54984, Pitch_bend_c, 6, 15992
14, 54988, Pitch_bend_c, 6, 16122
14, 55002, Pitch_bend_c, 6, 15992
14, 55024, Pitch_bend_c, 6, 16122
14, 55025, Pitch_bend_c, 6, 16252
14, 55027, Pitch_bend_c, 6, 16382
14, 55067, Note_on_c, 6, 67, 0
14, 55071, Pitch_bend_c, 6, 16122
14, 55073, Pitch_bend_c, 6, 15992
14, 55074, Pitch_bend_c, 6, 15732
14, 55076, Pitch_bend_c, 6, 15472
14, 55079, Pitch_bend_c, 6, 15212
14, 55080, Pitch_bend_c, 6, 14968
14, 55083, Note_on_c, 6, 72, 108
14, 55083, Pitch_bend_c, 6, 14692
14, 55084, Pitch_bend_c, 6, 14432
14, 55086, Pitch_bend_c, 6, 14172
14, 55087, Pitch_bend_c, 6, 13912
14, 55089, Pitch_bend_c, 6, 13652
14, 55092, Pitch_bend_c, 6, 13522
14, 55094, Pitch_bend_c, 6, 13262
14, 55096, Pitch_bend_c, 6, 13132
14, 55098, Pitch_bend_c, 6, 13002
14, 55112, Pitch_bend_c, 6, 13392
14, 55113, Pitch_bend_c, 6, 13782
14, 55115, Pitch_bend_c, 6, 14302
14, 55117, Pitch_bend_c, 6, 14822
14, 55118, Pitch_bend_c, 6, 15602
14, 55121, Pitch_bend_c, 6, 16252
14, 55122, Pitch_bend_c, 6, 16382
14, 55164, Pitch_bend_c, 6, 15732
14, 55165, Pitch_bend_c, 6, 14692
14, 55167, Pitch_bend_c, 6, 13652
14, 55169, Pitch_bend_c, 6, 12482
14, 55170, Pitch_bend_c, 6, 11052
14, 55173, Pitch_bend_c, 6, 9752
14, 55174, Pitch_bend_c, 6, 8192
14, 55175, Pitch_bend_c, 6, 8192
14, 55203, Pitch_bend_c, 6, 8842
14, 55205, Pitch_bend_c, 6, 10012
14, 55206, Pitch_bend_c, 6, 11052
14, 55209, Pitch_bend_c, 6, 12222
14, 55210, Pitch_bend_c, 6, 13132
14, 55212, Pitch_bend_c, 6, 13912
14, 55214, Pitch_bend_c, 6, 14692
14, 55216, Pitch_bend_c, 6, 15212
14, 55217, Pitch_bend_c, 6, 15602
14, 55220, Pitch_bend_c, 6, 15992
14, 55221, Pitch_bend_c, 6, 16122
14, 55225, Pitch_bend_c, 6, 16252
14, 55232, Pitch_bend_c, 6, 16122
14, 55234, Pitch_bend_c, 6, 15992
14, 55238, Pitch_bend_c, 6, 15862
14, 55241, Pitch_bend_c, 6, 15602
14, 55252, Pitch_bend_c, 6, 15472
14, 55310, Pitch_bend_c, 6, 15602
14, 55314, Pitch_bend_c, 6, 15732
14, 55319, Pitch_bend_c, 6, 15862
14, 55352, Pitch_bend_c, 6, 15732
14, 55357, Pitch_bend_c, 6, 15602
14, 55363, Note_on_c, 6, 72, 0
14, 55364, Pitch_bend_c, 6, 15342
14, 55366, Pitch_bend_c, 6, 15212
14, 55368, Pitch_bend_c, 6, 15082
14, 55369, Pitch_bend_c, 6, 14822
14, 55371, Pitch_bend_c, 6, 14692
14, 55373, Pitch_bend_c, 6, 14302
14, 55374, Pitch_bend_c, 6, 14042
14, 55377, Pitch_bend_c, 6, 13782
14, 55378, Pitch_bend_c, 6, 13392
14, 55381, Pitch_bend_c, 6, 13132
14, 55382, Pitch_bend_c, 6, 12872
14, 55384, Pitch_bend_c, 6, 12612
14, 55386, Pitch_bend_c, 6, 12482
14, 55389, Note_on_c, 6, 72, 104
14, 55389, Pitch_bend_c, 6, 12352
14, 55396, Pitch_bend_c, 6, 12612
14, 55397, Pitch_bend_c, 6, 12872
14, 55399, Pitch_bend_c, 6, 13262
14, 55400, Pitch_bend_c, 6, 13652
14, 55403, Pitch_bend_c, 6, 14042
14, 55405, Pitch_bend_c, 6, 14562
14, 55407, Pitch_bend_c, 6, 14822
14, 55409, Pitch_bend_c, 6, 15082
14, 55411, Pitch_bend_c, 6, 15472
14, 55412, Pitch_bend_c, 6, 15602
14, 55415, Pitch_bend_c, 6, 15732
14, 55416, Pitch_bend_c, 6, 15862
14, 55420, Pitch_bend_c, 6, 16122
14, 55425, Pitch_bend_c, 6, 16252
14, 55427, Pitch_bend_c, 6, 16382
14, 55534, Pitch_bend_c, 6, 15992
14, 55536, Pitch_bend_c, 6, 15732
14, 55537, Pitch_bend_c, 6, 15342
14, 55540, Pitch_bend_c, 6, 15082
14, 55541, Pitch_bend_c, 6, 14822
14, 55543, Pitch_bend_c, 6, 14562
14, 55544, Pitch_bend_c, 6, 14302
14, 55547, Pitch_bend_c, 6, 14042
14, 55548, Pitch_bend_c, 6, 13912
14, 55551, Pitch_bend_c, 6, 13782
14, 55553, Pitch_bend_c, 6, 13652
14, 55562, Pitch_bend_c, 6, 13912
14, 55564, Pitch_bend_c, 6, 14172
14, 55566, Pitch_bend_c, 6, 14432
14, 55568, Pitch_bend_c, 6, 14822
14, 55569, Pitch_bend_c, 6, 15212
14, 55572, Pitch_bend_c, 6, 15732
14, 55573, Pitch_bend_c, 6, 16122
14, 55575, Pitch_bend_c, 6, 16382
14, 55596, Note_on_c, 6, 72, 0
14, 55599, Pitch_bend_c, 6, 16122
14, 55602, Pitch_bend_c, 6, 15862
14, 55603, Pitch_bend_c, 6, 15732
14, 55606, Pitch_bend_c, 6, 15472
14, 55607, Pitch_bend_c, 6, 15342
14, 55609, Pitch_bend_c, 6, 15082
14, 55610, Pitch_bend_c, 6, 14968
14, 55615, Pitch_bend_c, 6, 14822
14, 55620, Note_on_c, 6, 72, 95
14, 55627, Pitch_bend_c, 6, 15212
14, 55628, Pitch_bend_c, 6, 15472
14, 55630, Pitch_bend_c, 6, 15862
14, 55633, Pitch_bend_c, 6, 16122
14, 55634, Pitch_bend_c, 6, 16382
14, 55715, Pitch_bend_c, 6, 16122
14, 55718, Pitch_bend_c, 6, 15992
14, 55723, Pitch_bend_c, 6, 15862
14, 55728, Pitch_bend_c, 6, 15732
14, 55733, Pitch_bend_c, 6, 15602
14, 55736, Note_on_c, 6, 72, 0
14, 55737, Pitch_bend_c, 6, 15472
14, 55752, Note_on_c, 6, 72, 109
14, 55803, Pitch_bend_c, 6, 15342
14, 55807, Pitch_bend_c, 6, 15212
14, 55811, Pitch_bend_c, 6, 15082
14, 55812, Pitch_bend_c, 6, 14968
14, 55816, Pitch_bend_c, 6, 14822
14, 55830, Pitch_bend_c, 6, 14968
14, 55831, Pitch_bend_c, 6, 15082
14, 55833, Pitch_bend_c, 6, 15212
14, 55835, Pitch_bend_c, 6, 15342
14, 55838, Pitch_bend_c, 6, 15472
14, 55843, Pitch_bend_c, 6, 15602
14, 55857, Pitch_bend_c, 6, 15472
14, 55861, Pitch_bend_c, 6, 15342
14, 55868, Pitch_bend_c, 6, 15212
14, 55889, Pitch_bend_c, 6, 14968
14, 55892, Pitch_bend_c, 6, 14822
14, 55894, Pitch_bend_c, 6, 14692
14, 55896, Pitch_bend_c, 6, 14432
14, 55898, Pitch_bend_c, 6, 14042
14, 55899, Pitch_bend_c, 6, 13522
14, 55902, Pitch_bend_c, 6, 12742
14, 55903, Pitch_bend_c, 6, 11052
14, 55905, Pitch_bend_c, 6, 8712
14, 55907, Pitch_bend_c, 6, 8192
14, 55908, Pitch_bend_c, 6, 8192
14, 55908, Pitch_bend_c, 6, 8192
14, 55956, Note_on_c, 6, 72, 0
14, 55979, Note_on_c, 6, 72, 108
14, 56006, Note_on_c, 6, 72, 0
14, 56011, Note_on_c, 6, 69, 85
14, 56044, Note_on_c, 6, 67, 108
14, 56048, Note_on_c, 6, 69, 0
14, 56073, Note_on_c, 6, 67, 0
14, 56104, Note_on_c, 6, 65, 85
14, 56130, Note_on_c, 6, 65, 0
14, 56161, Note_on_c, 6, 67, 104
14, 56192, Pitch_bend_c, 6, 8972
14, 56195, Pitch_bend_c, 6, 10142
14, 56196, Pitch_bend_c, 6, 11052
14, 56198, Pitch_bend_c, 6, 11962
14, 56203, Pitch_bend_c, 6, 12482
14, 56203, Pitch_bend_c, 6, 12872
14, 56204, Pitch_bend_c, 6, 13262
14, 56205, Pitch_bend_c, 6, 13522
14, 56208, Pitch_bend_c, 6, 13782
14, 56209, Pitch_bend_c, 6, 13912
14, 56218, Pitch_bend_c, 6, 13652
14, 56220, Pitch_bend_c, 6, 13392
14, 56222, Pitch_bend_c, 6, 13002
14, 56225, Pitch_bend_c, 6, 12742
14, 56226, Pitch_bend_c, 6, 12352
14, 56228, Pitch_bend_c, 6, 11962
14, 56229, Pitch_bend_c, 6, 11572
14, 56231, Pitch_bend_c, 6, 11312
14, 56233, Pitch_bend_c, 6, 11052
14, 56235, Pitch_bend_c, 6, 10792
14, 56239, Pitch_bend_c, 6, 10662
14, 56246, Pitch_bend_c, 6, 10792
14, 56248, Pitch_bend_c, 6, 11052
14, 56250, Pitch_bend_c, 6, 11312
14, 56252, Pitch_bend_c, 6, 11702
14, 56254, Pitch_bend_c, 6, 12092
14, 56255, Pitch_bend_c, 6, 12612
14, 56258, Pitch_bend_c, 6, 13262
14, 56259, Pitch_bend_c, 6, 13782
14, 56261, Pitch_bend_c, 6, 14302
14, 56263, Pitch_bend_c, 6, 14822
14, 56265, Pitch_bend_c, 6, 15082
14, 56267, Pitch_bend_c, 6, 15212
14, 56274, Pitch_bend_c, 6, 14968
14, 56277, Pitch_bend_c, 6, 14692
14, 56279, Pitch_bend_c, 6, 13782
14, 56281, Pitch_bend_c, 6, 11702
14, 56283, Pitch_bend_c, 6, 8972
14, 56284, Pitch_bend_c, 6, 8192
14, 56285, Pitch_bend_c, 6, 8192
14, 56286, Pitch_bend_c, 6, 8192
14, 56287, Pitch_bend_c, 6, 8192
14, 56336, Note_on_c, 6, 65, 99
14, 56340, Note_on_c, 6, 67, 0
14, 56383, Note_on_c, 6, 65, 0
14, 56389, Note_on_c, 6, 67, 104
14, 56462, Pitch_bend_c, 6, 8192
14, 56463, Pitch_bend_c, 6, 8842
14, 56465, Pitch_bend_c, 6, 9492
14, 56466, Pitch_bend_c, 6, 10012
14, 56469, Pitch_bend_c, 6, 10532
14, 56471, Pitch_bend_c, 6, 11312
14, 56472, Pitch_bend_c, 6, 11962
14, 56474, Pitch_bend_c, 6, 12612
14, 56476, Pitch_bend_c, 6, 13262
14, 56478, Pitch_bend_c, 6, 13782
14, 56480, Pitch_bend_c, 6, 14042
14, 56487, Pitch_bend_c, 6, 13782
14, 56489, Pitch_bend_c, 6, 13522
14, 56491, Pitch_bend_c, 6, 13132
14, 56493, Pitch_bend_c, 6, 12742
14, 56494, Pitch_bend_c, 6, 12352
14, 56496, Pitch_bend_c, 6, 11832
14, 56498, Pitch_bend_c, 6, 11572
14, 56501, Pitch_bend_c, 6, 11052
14, 56503, Pitch_bend_c, 6, 10792
14, 56504, Pitch_bend_c, 6, 10532
14, 56505, Pitch_bend_c, 6, 10402
14, 56514, Pitch_bend_c, 6, 10662
14, 56516, Pitch_bend_c, 6, 11052
14, 56517, Pitch_bend_c, 6, 11702
14, 56520, Pitch_bend_c, 6, 12482
14, 56521, Pitch_bend_c, 6, 13392
14, 56523, Pitch_bend_c, 6, 14302
14, 56526, Pitch_bend_c, 6, 15212
14, 56527, Pitch_bend_c, 6, 15992
14, 56529, Pitch_bend_c, 6, 16382
14, 56545, Pitch_bend_c, 6, 15862
14, 56547, Pitch_bend_c, 6, 15212
14, 56549, Pitch_bend_c, 6, 14562
14, 56551, Pitch_bend_c, 6, 13782
14, 56552, Pitch_bend_c, 6, 12872
14, 56554, Pitch_bend_c, 6, 12092
14, 56557, Pitch_bend_c, 6, 11312
14, 56558, Pitch_bend_c, 6, 10402
14, 56560, Pitch_bend_c, 6, 9622
14, 56562, Pitch_bend_c, 6, 8842
14, 56564, Pitch_bend_c, 6, 8192
14, 56576, Note_on_c, 6, 67, 0
14, 56579, Note_on_c, 6, 65, 98
14, 56693, Note_on_c, 6, 67, 103
14, 56700, Note_on_c, 6, 65, 0
14, 56744, Pitch_bend_c, 6, 8192
14, 56747, Pitch_bend_c, 6, 8972
14, 56748, Pitch_bend_c, 6, 9752
14, 56750, Pitch_bend_c, 6, 10792
14, 56751, Pitch_bend_c, 6, 11962
14, 56753, Pitch_bend_c, 6, 12872
14, 56755, Pitch_bend_c, 6, 13522
14, 56757, Pitch_bend_c, 6, 13782
14, 56760, Pitch_bend_c, 6, 14042
14, 56767, Pitch_bend_c, 6, 13782
14, 56769, Pitch_bend_c, 6, 13522
14, 56772, Pitch_bend_c, 6, 13262
14, 56773, Pitch_bend_c, 6, 13002
14, 56775, Pitch_bend_c, 6, 12872
14, 56776, Pitch_bend_c, 6, 12612
14, 56778, Pitch_bend_c, 6, 12482
14, 56782, Pitch_bend_c, 6, 12352
14, 56790, Pitch_bend_c, 6, 12612
14, 56792, Pitch_bend_c, 6, 12872
14, 56794, Pitch_bend_c, 6, 13002
14, 56797, Pitch_bend_c, 6, 13392
14, 56798, Pitch_bend_c, 6, 13652
14, 56800, Pitch_bend_c, 6, 13912
14, 56801, Pitch_bend_c, 6, 14172
14, 56804, Pitch_bend_c, 6, 14302
14, 56806, Pitch_bend_c, 6, 14562
14, 56807, Pitch_bend_c, 6, 14692
14, 56812, Pitch_bend_c, 6, 14822
14, 56820, Pitch_bend_c, 6, 14562
14, 56823, Pitch_bend_c, 6, 13912
14, 56825, Pitch_bend_c, 6, 12482
14, 56826, Pitch_bend_c, 6, 10532
14, 56829, Pitch_bend_c, 6, 9102
14, 56830, Pitch_bend_c, 6, 8192
14, 56887, Note_on_c, 6, 65, 87
14, 56899, Note_on_c, 6, 67, 0
14, 56940, Note_on_c, 6, 65, 0
14, 56941, Pitch_bend_c, 6, 9362
14, 56942, Note_on_c, 6, 67, 107
14, 56943, Pitch_bend_c, 6, 11052
14, 56945, Pitch_bend_c, 6, 12742
14, 56947, Pitch_bend_c, 6, 13782
14, 56948, Pitch_bend_c, 6, 14302
14, 56951, Pitch_bend_c, 6, 14692
14, 56953, Pitch_bend_c, 6, 15082
14, 56954, Pitch_bend_c, 6, 15342
14, 56963, Pitch_bend_c, 6, 15082
14, 56965, Pitch_bend_c, 6, 14822
14, 56967, Pitch_bend_c, 6, 14562
14, 56968, Pitch_bend_c, 6, 14172
14, 56971, Pitch_bend_c, 6, 13782
14, 56972, Pitch_bend_c, 6, 13262
14, 56974, Pitch_bend_c, 6, 12482
14, 56976, Pitch_bend_c, 6, 11702
14, 56978, Pitch_bend_c, 6, 10792
14, 56980, Pitch_bend_c, 6, 10012
14, 56981, Pitch_bend_c, 6, 9102
14, 56984, Pitch_bend_c, 6, 8192
14, 56985, Pitch_bend_c, 6, 8192
14, 56996, Note_on_c, 6, 65, 98
14, 57005, Pitch_bend_c, 6, 8972
14, 57006, Note_on_c, 6, 67, 0
14, 57007, Pitch_bend_c, 6, 10402
14, 57009, Pitch_bend_c, 6, 11702
14, 57011, Pitch_bend_c, 6, 12482
14, 57012, Pitch_bend_c, 6, 12872
14, 57015, Pitch_bend_c, 6, 13392
14, 57016, Pitch_bend_c, 6, 13652
14, 57019, Pitch_bend_c, 6, 14042
14, 57020, Pitch_bend_c, 6, 14302
14, 57022, Pitch_bend_c, 6, 14432
14, 57024, Pitch_bend_c, 6, 14562
14, 57027, Pitch_bend_c, 6, 14692
14, 57036, Pitch_bend_c, 6, 14562
14, 57040, Pitch_bend_c, 6, 14302
14, 57044, Pitch_bend_c, 6, 14172
14, 57046, Pitch_bend_c, 6, 14042
14, 57048, Pitch_bend_c, 6, 13912
14, 57049, Pitch_bend_c, 6, 13652
14, 57052, Pitch_bend_c, 6, 13522
14, 57053, Pitch_bend_c, 6, 13392
14, 57055, Pitch_bend_c, 6, 13262
14, 57057, Pitch_bend_c, 6, 13132
14, 57059, Pitch_bend_c, 6, 13002
14, 57061, Pitch_bend_c, 6, 12872
14, 57062, Pitch_bend_c, 6, 12612
14, 57065, Pitch_bend_c, 6, 12352
14, 57066, Pitch_bend_c, 6, 12092
14, 57068, Pitch_bend_c, 6, 11702
14, 57070, Pitch_bend_c, 6, 11442
14, 57072, Pitch_bend_c, 6, 10922
14, 57074, Pitch_bend_c, 6, 10402
14, 57075, Pitch_bend_c, 6, 10012
14, 57078, Pitch_bend_c, 6, 9622
14, 57079, Pitch_bend_c, 6, 8972
14, 57081, Pitch_bend_c, 6, 8192
14, 57083, Pitch_bend_c, 6, 8192
14, 57128, Note_on_c, 6, 62, 104
14, 57130, Note_on_c, 6, 65, 0
14, 57137, Pitch_bend_c, 6, 8192
14, 57137, Pitch_bend_c, 6, 8192
14, 57140, Pitch_bend_c, 6, 7552
14, 57141, Pitch_bend_c, 6, 7040
14, 57143, Pitch_bend_c, 6, 6528
14, 57145, Pitch_bend_c, 6, 6144
14, 57147, Pitch_bend_c, 6, 5632
14, 57149, Pitch_bend_c, 6, 5376
14, 57150, Pitch_bend_c, 6, 4992
14, 57153, Pitch_bend_c, 6, 4864
14, 57158, Pitch_bend_c, 6, 5120
14, 57161, Pitch_bend_c, 6, 5376
14, 57162, Pitch_bend_c, 6, 5760
14, 57164, Pitch_bend_c, 6, 6272
14, 57166, Pitch_bend_c, 6, 6784
14, 57168, Pitch_bend_c, 6, 7296
14, 57170, Pitch_bend_c, 6, 7680
14, 57171, Pitch_bend_c, 6, 8192
14, 57173, Pitch_bend_c, 6, 8192
14, 57186, Pitch_bend_c, 6, 8192
14, 57187, Pitch_bend_c, 6, 8192
14, 57191, Pitch_bend_c, 6, 7552
14, 57192, Pitch_bend_c, 6, 7296
14, 57194, Pitch_bend_c, 6, 7040
14, 57195, Pitch_bend_c, 6, 6912
14, 57197, Pitch_bend_c, 6, 6784
14, 57207, Pitch_bend_c, 6, 7040
14, 57208, Pitch_bend_c, 6, 7296
14, 57211, Pitch_bend_c, 6, 7552
14, 57212, Pitch_bend_c, 6, 7680
14, 57215, Pitch_bend_c, 6, 8192
14, 57216, Pitch_bend_c, 6, 8192
14, 57218, Pitch_bend_c, 6, 8192
14, 57228, Pitch_bend_c, 6, 8192
14, 57231, Pitch_bend_c, 6, 8192
14, 57233, Pitch_bend_c, 6, 8192
14, 57243, Pitch_bend_c, 6, 8192
14, 57243, Pitch_bend_c, 6, 8192
14, 57245, Pitch_bend_c, 6, 8192
14, 57324, Pitch_bend_c, 6, 8192
14, 57324, Pitch_bend_c, 6, 8192
14, 57327, Pitch_bend_c, 6, 8192
14, 57422, Note_on_c, 6, 60, 91
14, 57426, Note_on_c, 6, 62, 0
14, 57479, Note_on_c, 6, 62, 111
14, 57488, Note_on_c, 6, 60, 0
14, 57535, Note_on_c, 6, 62, 0
14, 57535, Note_on_c, 6, 65, 98
14, 57568, Note_on_c, 6, 65, 0
14, 57589, Note_on_c, 6, 67, 98
14, 57616, Pitch_bend_c, 6, 8192
14, 57617, Pitch_bend_c, 6, 8842
14, 57619, Pitch_bend_c, 6, 9752
14, 57620, Pitch_bend_c, 6, 10402
14, 57621, Pitch_bend_c, 6, 11052
14, 57623, Pitch_bend_c, 6, 11702
14, 57624, Pitch_bend_c, 6, 12222
14, 57625, Pitch_bend_c, 6, 12482
14, 57627, Pitch_bend_c, 6, 12742
14, 57628, Pitch_bend_c, 6, 13002
14, 57629, Pitch_bend_c, 6, 13262
14, 57630, Pitch_bend_c, 6, 13392
14, 57631, Pitch_bend_c, 6, 13652
14, 57633, Pitch_bend_c, 6, 13782
14, 57634, Pitch_bend_c, 6, 13912
14, 57636, Pitch_bend_c, 6, 14042
14, 57645, Pitch_bend_c, 6, 13782
14, 57646, Pitch_bend_c, 6, 13652
14, 57647, Pitch_bend_c, 6, 13522
14, 57648, Pitch_bend_c, 6, 13392
14, 57650, Pitch_bend_c, 6, 13262
14, 57651, Pitch_bend_c, 6, 13002
14, 57652, Pitch_bend_c, 6, 12872
14, 57655, Pitch_bend_c, 6, 12612
14, 57656, Pitch_bend_c, 6, 12352
14, 57658, Pitch_bend_c, 6, 12222
14, 57659, Pitch_bend_c, 6, 11962
14, 57660, Pitch_bend_c, 6, 11832
14, 57663, Pitch_bend_c, 6, 11572
14, 57664, Pitch_bend_c, 6, 11442
14, 57667, Pitch_bend_c, 6, 11312
14, 57670, Pitch_bend_c, 6, 11052
14, 57673, Pitch_bend_c, 6, 10792
14, 57674, Pitch_bend_c, 6, 10662
14, 57675, Pitch_bend_c, 6, 10532
14, 57677, Pitch_bend_c, 6, 10402
14, 57678, Pitch_bend_c, 6, 10272
14, 57679, Pitch_bend_c, 6, 10012
14, 57681, Pitch_bend_c, 6, 9882
14, 57682, Pitch_bend_c, 6, 9622
14, 57683, Pitch_bend_c, 6, 9492
14, 57685, Pitch_bend_c, 6, 9362
14, 57685, Pitch_bend_c, 6, 9232
14, 57688, Pitch_bend_c, 6, 8972
14, 57690, Pitch_bend_c, 6, 8842
14, 57693, Pitch_bend_c, 6, 8712
14, 57695, Pitch_bend_c, 6, 8192
14, 57698, Pitch_bend_c, 6, 8192
14, 57699, Pitch_bend_c, 6, 8192
14, 57750, Note_on_c, 6, 67, 0
14, 57786, Note_on_c, 6, 67, 100
14, 57821, Pitch_bend_c, 6, 8712
14, 57822, Pitch_bend_c, 6, 9752
14, 57824, Pitch_bend_c, 6, 10662
14, 57825, Pitch_bend_c, 6, 11702
14, 57826, Pitch_bend_c, 6, 12482
14, 57828, Pitch_bend_c, 6, 13132
14, 57829, Pitch_bend_c, 6, 13652
14, 57830, Pitch_bend_c, 6, 14172
14, 57832, Pitch_bend_c, 6, 14692
14, 57832, Pitch_bend_c, 6, 14968
14, 57833, Pitch_bend_c, 6, 15342
14, 57836, Pitch_bend_c, 6, 15732
14, 57837, Pitch_bend_c, 6, 15992
14, 57839, Pitch_bend_c, 6, 16252
14, 57840, Pitch_bend_c, 6, 16382
14, 57888, Pitch_bend_c, 6, 16122
14, 57889, Pitch_bend_c, 6, 15992
14, 57891, Pitch_bend_c, 6, 15862
14, 57892, Pitch_bend_c, 6, 15732
14, 57893, Pitch_bend_c, 6, 15472
14, 57894, Pitch_bend_c, 6, 15212
14, 57896, Pitch_bend_c, 6, 14968
14, 57897, Pitch_bend_c, 6, 14692
14, 57898, Pitch_bend_c, 6, 14432
14, 57900, Pitch_bend_c, 6, 14172
14, 57901, Pitch_bend_c, 6, 13782
14, 57902, Pitch_bend_c, 6, 13262
14, 57903, Pitch_bend_c, 6, 12742
14, 57904, Pitch_bend_c, 6, 11962
14, 57906, Pitch_bend_c, 6, 11312
14, 57908, Pitch_bend_c, 6, 10532
14, 57909, Pitch_bend_c, 6, 10012
14, 57910, Pitch_bend_c, 6, 9492
14, 57912, Pitch_bend_c, 6, 8972
14, 57913, Pitch_bend_c, 6, 8712
14, 57914, Pitch_bend_c, 6, 8192
14, 57914, Pitch_bend_c, 6, 8192
14, 57926, Note_on_c, 6, 67, 0
14, 57952, Note_on_c, 6, 67, 100
14, 57962, Pitch_bend_c, 6, 8192
14, 57964, Pitch_bend_c, 6, 8712
14, 57965, Pitch_bend_c, 6, 9102
14, 57966, Pitch_bend_c, 6, 9752
14, 57967, Pitch_bend_c, 6, 10272
14, 57969, Pitch_bend_c, 6, 10792
14, 57970, Pitch_bend_c, 6, 11572
14, 57972, Pitch_bend_c, 6, 12222
14, 57973, Pitch_bend_c, 6, 12872
14, 57974, Pitch_bend_c, 6, 13652
14, 57975, Pitch_bend_c, 6, 14562
14, 57976, Pitch_bend_c, 6, 15342
14, 57978, Pitch_bend_c, 6, 15862
14, 57979, Pitch_bend_c, 6, 16122
14, 57980, Pitch_bend_c, 6, 16252
14, 57982, Pitch_bend_c, 6, 16382
14, 57994, Pitch_bend_c, 6, 16252
14, 57995, Pitch_bend_c, 6, 16122
14, 57998, Pitch_bend_c, 6, 15862
14, 58000, Pitch_bend_c, 6, 15732
14, 58002, Pitch_bend_c, 6, 15472
14, 58004, Pitch_bend_c, 6, 15342
14, 58005, Pitch_bend_c, 6, 15212
14, 58006, Pitch_bend_c, 6, 14968
14, 58007, Pitch_bend_c, 6, 14822
14, 58009, Pitch_bend_c, 6, 14692
14, 58009, Pitch_bend_c, 6, 14432
14, 58011, Pitch_bend_c, 6, 14042
14, 58013, Pitch_bend_c, 6, 13782
14, 58014, Pitch_bend_c, 6, 13392
14, 58015, Pitch_bend_c, 6, 12872
14, 58016, Pitch_bend_c, 6, 12352
14, 58018, Pitch_bend_c, 6, 11832
14, 58019, Pitch_bend_c, 6, 11312
14, 58021, Pitch_bend_c, 6, 10662
14, 58022, Pitch_bend_c, 6, 10142
14, 58023, Pitch_bend_c, 6, 9752
14, 58025, Pitch_bend_c, 6, 9232
14, 58026, Pitch_bend_c, 6, 8712
14, 58027, Pitch_bend_c, 6, 8192
14, 58028, Pitch_bend_c, 6, 8192
14, 58069, Note_on_c, 6, 67, 0
14, 58071, Pitch_bend_c, 6, 8192
14, 58071, Pitch_bend_c, 6, 8972
14, 58072, Note_on_c, 6, 74, 110
14, 58074, Pitch_bend_c, 6, 9492
14, 58075, Pitch_bend_c, 6, 10272
14, 58077, Pitch_bend_c, 6, 10922
14, 58078, Pitch_bend_c, 6, 11832
14, 58079, Pitch_bend_c, 6, 12742
14, 58080, Pitch_bend_c, 6, 13912
14, 58082, Pitch_bend_c, 6, 15342
14, 58083, Pitch_bend_c, 6, 16382
14, 58091, Pitch_bend_c, 6, 14692
14, 58093, Pitch_bend_c, 6, 11572
14, 58094, Pitch_bend_c, 6, 8192
14, 58094, Pitch_bend_c, 6, 8192
14, 58096, Pitch_bend_c, 6, 7680
14, 58097, Pitch_bend_c, 6, 8192
14, 58098, Pitch_bend_c, 6, 8192
14, 58136, Note_on_c, 6, 72, 104
14, 58140, Note_on_c, 6, 74, 0
14, 58199, Note_on_c, 6, 69, 104
14, 58200, Note_on_c, 6, 72, 0
14, 58260, Note_on_c, 6, 69, 0
14, 58264, Note_on_c, 6, 72, 104
14, 58267, Note_on_c, 6, 74, 104
14, 58283, Note_on_c, 6, 72, 0
14, 58320, Note_on_c, 6, 72, 103
14, 58330, Note_on_c, 6, 74, 0
14, 58354, Note_on_c, 6, 69, 78
14, 58359, Note_on_c, 6, 72, 0
14, 58385, Note_on_c, 6, 72, 98
14, 58391, Note_on_c, 6, 69, 0
14, 58400, Note_on_c, 6, 74, 98
14, 58405, Note_on_c, 6, 72, 0
14, 58430, Note_on_c, 6, 72, 102
14, 58441, Note_on_c, 6, 74, 0
14, 58461, Note_on_c, 6, 72, 0
14, 58461, Note_on_c, 6, 74, 98
14, 58489, Note_on_c, 6, 72, 104
14, 58497, Note_on_c, 6, 74, 0
14, 58515, Note_on_c, 6, 74, 98
14, 58517, Note_on_c, 6, 72, 0
14, 58533, Note_on_c, 6, 72, 102
14, 58543, Note_on_c, 6, 74, 0
14, 58561, Note_on_c, 6, 74, 102
14, 58564, Note_on_c, 6, 72, 0
14, 58612, Note_on_c, 6, 72, 102
14, 58620, Note_on_c, 6, 74, 0
14, 58642, Note_on_c, 6, 74, 102
14, 58659, Note_on_c, 6, 72, 0
14, 58660, Note_on_c, 6, 69, 80
14, 58666, Note_on_c, 6, 74, 0
14, 58683, Note_on_c, 6, 72, 102
14, 58691, Note_on_c, 6, 74, 102
14, 58693, Note_on_c, 6, 69, 0
14, 58698, Note_on_c, 6, 72, 0
14, 58737, Note_on_c, 6, 72, 106
14, 58749, Note_on_c, 6, 74, 0
14, 58775, Note_on_c, 6, 69, 114
14, 58779, Note_on_c, 6, 72, 0
14, 58804, Note_on_c, 6, 74, 104
14, 58807, Note_on_c, 6, 69, 0
14, 58833, Note_on_c, 6, 72, 104
14, 58844, Note_on_c, 6, 74, 0
14, 58858, Note_on_c, 6, 69, 90
14, 58859, Note_on_c, 6, 72, 0
14, 58881, Note_on_c, 6, 74, 103
14, 58887, Note_on_c, 6, 69, 0
14, 58907, Note_on_c, 6, 72, 103
14, 58917, Note_on_c, 6, 74, 0
14, 58935, Note_on_c, 6, 69, 85
14, 58939, Note_on_c, 6, 72, 0
14, 58951, Note_on_c, 6, 74, 103
14, 58962, Note_on_c, 6, 69, 0
14, 58974, Note_on_c, 6, 72, 103
14, 58985, Note_on_c, 6, 74, 0
14, 59002, Note_on_c, 6, 69, 106
14, 59003, Note_on_c, 6, 74, 106
14, 59005, Note_on_c, 6, 72, 0
14, 59018, Note_on_c, 6, 69, 0
14, 59024, Note_on_c, 6, 72, 103
14, 59032, Note_on_c, 6, 74, 0
14, 59045, Note_on_c, 6, 74, 103
14, 59049, Note_on_c, 6, 72, 0
14, 59129, Pitch_bend_c, 6, 8192
14, 59131, Pitch_bend_c, 6, 8192
14, 59132, Pitch_bend_c, 6, 7552
14, 59133, Pitch_bend_c, 6, 7168
14, 59135, Pitch_bend_c, 6, 6656
14, 59135, Pitch_bend_c, 6, 6144
14, 59137, Pitch_bend_c, 6, 5632
14, 59139, Pitch_bend_c, 6, 5120
14, 59140, Pitch_bend_c, 6, 4736
14, 59141, Pitch_bend_c, 6, 4608
14, 59142, Pitch_bend_c, 6, 4480
14, 59149, Pitch_bend_c, 6, 4736
14, 59149, Pitch_bend_c, 6, 5120
14, 59151, Pitch_bend_c, 6, 5632
14, 59153, Pitch_bend_c, 6, 6144
14, 59154, Pitch_bend_c, 6, 6656
14, 59155, Pitch_bend_c, 6, 7040
14, 59157, Pitch_bend_c, 6, 7424
14, 59158, Pitch_bend_c, 6, 7680
14, 59158, Pitch_bend_c, 6, 8192
14, 59166, Pitch_bend_c, 6, 7552
14, 59168, Pitch_bend_c, 6, 7296
14, 59169, Pitch_bend_c, 6, 7040
14, 59169, Pitch_bend_c, 6, 6784
14, 59172, Pitch_bend_c, 6, 6528
14, 59173, Pitch_bend_c, 6, 6272
14, 59174, Pitch_bend_c, 6, 6144
14, 59177, Pitch_bend_c, 6, 6016
14, 59181, Pitch_bend_c, 6, 6272
14, 59181, Pitch_bend_c, 6, 6656
14, 59183, Pitch_bend_c, 6, 7040
14, 59184, Pitch_bend_c, 6, 7552
14, 59186, Pitch_bend_c, 6, 8192
14, 59186, Pitch_bend_c, 6, 8192
14, 59204, Pitch_bend_c, 6, 8192
14, 59208, Pitch_bend_c, 6, 8192
14, 59216, Pitch_bend_c, 6, 8192
14, 59218, Pitch_bend_c, 6, 8192
14, 59338, Note_on_c, 6, 72, 100
14, 59346, Note_on_c, 6, 74, 0
14, 59449, Note_on_c, 6, 69, 103
14, 59450, Note_on_c, 6, 72, 0
14, 59470, Note_on_c, 6, 67, 103
14, 59472, Note_on_c, 6, 69, 0
14, 59491, Note_on_c, 6, 69, 103
14, 59493, Note_on_c, 6, 67, 0
14, 59585, Note_on_c, 6, 74, 103
14, 59586, Note_on_c, 6, 69, 0
14, 59692, Pitch_bend_c, 6, 8192
14, 59693, Pitch_bend_c, 6, 8192
14, 59694, Pitch_bend_c, 6, 8712
14, 59695, Pitch_bend_c, 6, 9102
14, 59697, Pitch_bend_c, 6, 9362
14, 59698, Pitch_bend_c, 6, 9622
14, 59699, Pitch_bend_c, 6, 9882
14, 59700, Pitch_bend_c, 6, 10012
14, 59702, Pitch_bend_c, 6, 10142
14, 59703, Pitch_bend_c, 6, 10272
14, 59711, Pitch_bend_c, 6, 10012
14, 59713, Pitch_bend_c, 6, 9752
14, 59714, Pitch_bend_c, 6, 9362
14, 59715, Pitch_bend_c, 6, 8972
14, 59717, Pitch_bend_c, 6, 8192
14, 59717, Pitch_bend_c, 6, 8192
14, 59717, Pitch_bend_c, 6, 8192
14, 59736, Pitch_bend_c, 6, 8842
14, 59737, Pitch_bend_c, 6, 9752
14, 59738, Pitch_bend_c, 6, 10532
14, 59740, Pitch_bend_c, 6, 10792
14, 59741, Pitch_bend_c, 6, 11052
14, 59744, Pitch_bend_c, 6, 11312
14, 59747, Pitch_bend_c, 6, 10922
14, 59749, Pitch_bend_c, 6, 10792
14, 59750, Pitch_bend_c, 6, 10532
14, 59751, Pitch_bend_c, 6, 10402
14, 59753, Pitch_bend_c, 6, 10142
14, 59754, Pitch_bend_c, 6, 10012
14, 59755, Pitch_bend_c, 6, 9752
14, 59756, Pitch_bend_c, 6, 9492
14, 59758, Pitch_bend_c, 6, 9102
14, 59759, Pitch_bend_c, 6, 8712
14, 59761, Pitch_bend_c, 6, 8192
14, 59761, Pitch_bend_c, 6, 8192
14, 59816, Note_on_c, 6, 74, 0
14, 59816, Note_on_c, 6, 72, 103
14, 59875, Note_on_c, 6, 69, 103
14, 59882, Note_on_c, 6, 72, 0
14, 59927, Note_on_c, 6, 67, 103
14, 59935, Note_on_c, 6, 69, 0
14, 59988, Note_on_c, 6, 67, 0
14, 59992, Note_on_c, 6, 69, 103
14, 60039, Pitch_bend_c, 6, 8192
14, 60041, Pitch_bend_c, 6, 8712
14, 60042, Pitch_bend_c, 6, 9232
14, 60043, Pitch_bend_c, 6, 9752
14, 60045, Pitch_bend_c, 6, 10012
14, 60049, Pitch_bend_c, 6, 9752
14, 60051, Pitch_bend_c, 6, 9232
14, 60052, Pitch_bend_c, 6, 8192
14, 60052, Pitch_bend_c, 6, 8192
14, 60103, Note_on_c, 6, 67, 103
14, 60108, Note_on_c, 6, 69, 0
14, 60173, Note_on_c, 6, 65, 103
14, 60182, Note_on_c, 6, 67, 0
14, 60299, Note_on_c, 6, 62, 105
14, 60309, Note_on_c, 6, 65, 0
14, 60350, Note_on_c, 6, 65, 105
14, 60354, Note_on_c, 6, 62, 0
14, 60414, Note_on_c, 6, 67, 98
14, 60418, Note_on_c, 6, 65, 0
14, 60445, Pitch_bend_c, 6, 8712
14, 60446, Pitch_bend_c, 6, 9882
14, 60447, Pitch_bend_c, 6, 10922
14, 60449, Pitch_bend_c, 6, 12092
14, 60450, Pitch_bend_c, 6, 13002
14, 60452, Pitch_bend_c, 6, 13782
14, 60452, Pitch_bend_c, 6, 14172
14, 60454, Pitch_bend_c, 6, 14302
14, 60457, Pitch_bend_c, 6, 14042
14, 60459, Pitch_bend_c, 6, 13782
14, 60459, Pitch_bend_c, 6, 13392
14, 60461, Pitch_bend_c, 6, 13002
14, 60463, Pitch_bend_c, 6, 12742
14, 60464, Pitch_bend_c, 6, 12222
14, 60466, Pitch_bend_c, 6, 11832
14, 60466, Pitch_bend_c, 6, 11572
14, 60468, Pitch_bend_c, 6, 11312
14, 60469, Pitch_bend_c, 6, 10922
14, 60475, Pitch_bend_c, 6, 11442
14, 60476, Pitch_bend_c, 6, 11832
14, 60478, Pitch_bend_c, 6, 12222
14, 60479, Pitch_bend_c, 6, 12612
14, 60480, Pitch_bend_c, 6, 13262
14, 60481, Pitch_bend_c, 6, 13652
14, 60483, Pitch_bend_c, 6, 14042
14, 60484, Pitch_bend_c, 6, 14432
14, 60486, Pitch_bend_c, 6, 14562
14, 60491, Pitch_bend_c, 6, 14302
14, 60492, Pitch_bend_c, 6, 14042
14, 60494, Pitch_bend_c, 6, 13782
14, 60494, Pitch_bend_c, 6, 13262
14, 60497, Pitch_bend_c, 6, 12872
14, 60497, Pitch_bend_c, 6, 12222
14, 60499, Pitch_bend_c, 6, 11572
14, 60501, Pitch_bend_c, 6, 10792
14, 60502, Pitch_bend_c, 6, 10272
14, 60503, Pitch_bend_c, 6, 9882
14, 60504, Pitch_bend_c, 6, 9622
14, 60506, Pitch_bend_c, 6, 9362
14, 60507, Pitch_bend_c, 6, 9102
14, 60508, Pitch_bend_c, 6, 8972
14, 60510, Pitch_bend_c, 6, 8842
14, 60511, Pitch_bend_c, 6, 8712
14, 60512, Pitch_bend_c, 6, 8192
14, 60513, Pitch_bend_c, 6, 8192
14, 60515, Pitch_bend_c, 6, 8192
14, 60516, Pitch_bend_c, 6, 8192
14, 60540, Note_on_c, 6, 65, 107
14, 60548, Note_on_c, 6, 67, 0
14, 60600, Note_on_c, 6, 67, 107
14, 60607, Note_on_c, 6, 65, 0
14, 60719, Pitch_bend_c, 6, 8192
14, 60720, Pitch_bend_c, 6, 8192
14, 60721, Pitch_bend_c, 6, 8972
14, 60722, Pitch_bend_c, 6, 9492
14, 60724, Pitch_bend_c, 6, 9882
14, 60724, Pitch_bend_c, 6, 10272
14, 60726, Pitch_bend_c, 6, 10662
14, 60728, Pitch_bend_c, 6, 10922
14, 60729, Pitch_bend_c, 6, 11052
14, 60731, Pitch_bend_c, 6, 11312
14, 60733, Pitch_bend_c, 6, 11572
14, 60736, Pitch_bend_c, 6, 11702
14, 60739, Pitch_bend_c, 6, 11832
14, 60741, Pitch_bend_c, 6, 11962
14, 60742, Pitch_bend_c, 6, 12092
14, 60744, Pitch_bend_c, 6, 12222
14, 60746, Pitch_bend_c, 6, 12482
14, 60748, Pitch_bend_c, 6, 12612
14, 60749, Pitch_bend_c, 6, 12742
14, 60750, Pitch_bend_c, 6, 12872
14, 60752, Pitch_bend_c, 6, 13002
14, 60754, Pitch_bend_c, 6, 13132
14, 60755, Pitch_bend_c, 6, 13262
14, 60758, Pitch_bend_c, 6, 13522
14, 60759, Pitch_bend_c, 6, 13652
14, 60763, Pitch_bend_c, 6, 13782
14, 60771, Pitch_bend_c, 6, 13522
14, 60773, Pitch_bend_c, 6, 13392
14, 60774, Pitch_bend_c, 6, 13262
14, 60776, Pitch_bend_c, 6, 13002
14, 60777, Pitch_bend_c, 6, 12872
14, 60778, Pitch_bend_c, 6, 12742
14, 60779, Pitch_bend_c, 6, 12482
14, 60781, Pitch_bend_c, 6, 12352
14, 60782, Pitch_bend_c, 6, 12222
14, 60783, Pitch_bend_c, 6, 11962
14, 60785, Pitch_bend_c, 6, 11832
14, 60785, Pitch_bend_c, 6, 11572
14, 60787, Pitch_bend_c, 6, 11442
14, 60789, Pitch_bend_c, 6, 11312
14, 60790, Pitch_bend_c, 6, 11052
14, 60791, Pitch_bend_c, 6, 10792
14, 60792, Pitch_bend_c, 6, 10662
14, 60793, Pitch_bend_c, 6, 10402
14, 60794, Pitch_bend_c, 6, 10142
14, 60796, Pitch_bend_c, 6, 9752
14, 60798, Pitch_bend_c, 6, 9362
14, 60799, Pitch_bend_c, 6, 8972
14, 60800, Pitch_bend_c, 6, 8192
14, 60801, Pitch_bend_c, 6, 8192
14, 60829, Note_on_c, 6, 65, 107
14, 60838, Note_on_c, 6, 67, 0
14, 60860, Note_on_c, 6, 67, 92
14, 60868, Note_on_c, 6, 65, 0
14, 60885, Note_on_c, 6, 65, 107
14, 60892, Note_on_c, 6, 67, 0
14, 60957, Note_on_c, 6, 65, 0
14, 60960, Note_on_c, 6, 67, 107
14, 61010, Note_on_c, 6, 67, 0
14, 61018, Note_on_c, 6, 62, 108
14, 61137, Note_on_c, 6, 60, 104
14, 61140, Note_on_c, 6, 62, 0
14, 61174, Note_on_c, 6, 60, 0
14, 61198, Note_on_c, 6, 62, 112
14, 61236, Note_on_c, 6, 62, 0
14, 61256, Note_on_c, 6, 65, 97
14, 61267, Pitch_bend_c, 6, 8192
14, 61268, Pitch_bend_c, 6, 8712
14, 61269, Pitch_bend_c, 6, 9232
14, 61271, Pitch_bend_c, 6, 9752
14, 61273, Pitch_bend_c, 6, 10142
14, 61273, Pitch_bend_c, 6, 10402
14, 61275, Pitch_bend_c, 6, 10532
14, 61278, Pitch_bend_c, 6, 10272
14, 61280, Pitch_bend_c, 6, 9752
14, 61281, Pitch_bend_c, 6, 8972
14, 61282, Pitch_bend_c, 6, 8192
14, 61283, Pitch_bend_c, 6, 8192
14, 61289, Pitch_bend_c, 6, 8192
14, 61295, Pitch_bend_c, 6, 8192
14, 61304, Pitch_bend_c, 6, 8192
14, 61311, Pitch_bend_c, 6, 8192
14, 61374, Note_on_c, 6, 65, 0
14, 61379, Note_on_c, 6, 62, 113
14, 61506, Note_on_c, 6, 60, 107
14, 61511, Note_on_c, 6, 62, 0
14, 61557, Note_on_c, 6, 60, 0
14, 61564, Note_on_c, 6, 62, 115
14, 61607, Note_on_c, 6, 62, 0
14, 61613, Note_on_c, 6, 65, 109
14, 61623, Pitch_bend_c, 6, 8192
14, 61624, Pitch_bend_c, 6, 9102
14, 61626, Pitch_bend_c, 6, 10012
14, 61627, Pitch_bend_c, 6, 10792
14, 61628, Pitch_bend_c, 6, 11572
14, 61630, Pitch_bend_c, 6, 11962
14, 61630, Pitch_bend_c, 6, 12352
14, 61632, Pitch_bend_c, 6, 12612
14, 61636, Pitch_bend_c, 6, 12222
14, 61637, Pitch_bend_c, 6, 11572
14, 61639, Pitch_bend_c, 6, 10662
14, 61640, Pitch_bend_c, 6, 9752
14, 61641, Pitch_bend_c, 6, 8712
14, 61642, Pitch_bend_c, 6, 8192
14, 61665, Pitch_bend_c, 6, 8192
14, 61666, Pitch_bend_c, 6, 8712
14, 61668, Pitch_bend_c, 6, 9102
14, 61668, Pitch_bend_c, 6, 9362
14, 61686, Pitch_bend_c, 6, 9622
14, 61686, Pitch_bend_c, 6, 9752
14, 61688, Pitch_bend_c, 6, 9882
14, 61689, Pitch_bend_c, 6, 10142
14, 61691, Pitch_bend_c, 6, 10402
14, 61692, Pitch_bend_c, 6, 10662
14, 61693, Pitch_bend_c, 6, 10922
14, 61695, Pitch_bend_c, 6, 11442
14, 61695, Pitch_bend_c, 6, 11702
14, 61697, Pitch_bend_c, 6, 12092
14, 61699, Pitch_bend_c, 6, 12352
14, 61709, Pitch_bend_c, 6, 11832
14, 61710, Pitch_bend_c, 6, 10662
14, 61712, Pitch_bend_c, 6, 9362
14, 61713, Pitch_bend_c, 6, 8192
14, 61730, Note_on_c, 6, 62, 101
14, 61733, Note_on_c, 6, 65, 0
14, 61798, Note_on_c, 6, 60, 101
14, 61800, Note_on_c, 6, 62, 0
14, 61848, Note_on_c, 6, 60, 0
14, 61852, Note_on_c, 6, 62, 104
14, 61910, Note_on_c, 6, 62, 0
14, 61912, Note_on_c, 6, 65, 108
14, 61921, Pitch_bend_c, 6, 8972
14, 61921, Pitch_bend_c, 6, 10012
14, 61923, Pitch_bend_c, 6, 10922
14, 61924, Pitch_bend_c, 6, 11832
14, 61925, Pitch_bend_c, 6, 12612
14, 61927, Pitch_bend_c, 6, 13262
14, 61927, Pitch_bend_c, 6, 13652
14, 61929, Pitch_bend_c, 6, 13912
14, 61931, Pitch_bend_c, 6, 14042
14, 61934, Pitch_bend_c, 6, 13782
14, 61936, Pitch_bend_c, 6, 13392
14, 61937, Pitch_bend_c, 6, 12872
14, 61938, Pitch_bend_c, 6, 12352
14, 61939, Pitch_bend_c, 6, 11702
14, 61941, Pitch_bend_c, 6, 10922
14, 61942, Pitch_bend_c, 6, 10402
14, 61943, Pitch_bend_c, 6, 10012
14, 61945, Pitch_bend_c, 6, 9752
14, 61946, Pitch_bend_c, 6, 9622
14, 61949, Pitch_bend_c, 6, 9492
14, 61957, Pitch_bend_c, 6, 9232
14, 61958, Pitch_bend_c, 6, 9102
14, 61959, Pitch_bend_c, 6, 8972
14, 61960, Pitch_bend_c, 6, 8192
14, 61961, Pitch_bend_c, 6, 8192
14, 61972, Note_on_c, 6, 62, 102
14, 61979, Note_on_c, 6, 65, 0
14, 62035, Note_on_c, 6, 60, 104
14, 62037, Note_on_c, 6, 62, 0
14, 62096, Note_on_c, 6, 60, 0
14, 62099, Note_on_c, 6, 62, 112
14, 62105, Pitch_bend_c, 6, 9102
14, 62106, Note_on_c, 6, 65, 112
14, 62106, Pitch_bend_c, 6, 11052
14, 62107, Pitch_bend_c, 6, 13392
14, 62109, Pitch_bend_c, 6, 14968
14, 62110, Pitch_bend_c, 6, 16122
14, 62111, Pitch_bend_c, 6, 16382
14, 62119, Note_on_c, 6, 62, 0
14, 62122, Pitch_bend_c, 6, 15992
14, 62124, Pitch_bend_c, 6, 15732
14, 62125, Pitch_bend_c, 6, 15472
14, 62126, Pitch_bend_c, 6, 15212
14, 62128, Pitch_bend_c, 6, 14968
14, 62129, Pitch_bend_c, 6, 14432
14, 62130, Pitch_bend_c, 6, 13782
14, 62131, Pitch_bend_c, 6, 13262
14, 62133, Pitch_bend_c, 6, 12872
14, 62134, Pitch_bend_c, 6, 12482
14, 62135, Pitch_bend_c, 6, 11832
14, 62136, Pitch_bend_c, 6, 11052
14, 62138, Pitch_bend_c, 6, 10272
14, 62139, Pitch_bend_c, 6, 9492
14, 62141, Pitch_bend_c, 6, 8712
14, 62141, Pitch_bend_c, 6, 8192
14, 62157, Note_on_c, 6, 62, 99
14, 62171, Note_on_c, 6, 65, 0
14, 62218, Note_on_c, 6, 60, 111
14, 62219, Note_on_c, 6, 62, 0
14, 62266, Note_on_c, 6, 60, 0
14, 62268, Note_on_c, 6, 62, 111
14, 62277, Pitch_bend_c, 6, 8972
14, 62279, Pitch_bend_c, 6, 11312
14, 62280, Pitch_bend_c, 6, 12352
14, 62281, Note_on_c, 6, 65, 117
14, 62282, Pitch_bend_c, 6, 11572
14, 62283, Pitch_bend_c, 6, 12092
14, 62284, Pitch_bend_c, 6, 12352
14, 62287, Pitch_bend_c, 6, 12612
14, 62288, Pitch_bend_c, 6, 12872
14, 62291, Note_on_c, 6, 62, 0
14, 62293, Pitch_bend_c, 6, 12612
14, 62294, Pitch_bend_c, 6, 12352
14, 62296, Pitch_bend_c, 6, 11962
14, 62296, Pitch_bend_c, 6, 11572
14, 62298, Pitch_bend_c, 6, 11312
14, 62299, Pitch_bend_c, 6, 10532
14, 62301, Pitch_bend_c, 6, 9232
14, 62301, Pitch_bend_c, 6, 8192
14, 62334, Note_on_c, 6, 62, 108
14, 62348, Note_on_c, 6, 65, 0
14, 62371, Note_on_c, 6, 60, 108
14, 62376, Note_on_c, 6, 62, 0
14, 62400, Note_on_c, 6, 62, 108
14, 62402, Note_on_c, 6, 60, 0
14, 62402, Note_on_c, 6, 65, 108
14, 62407, Note_on_c, 6, 62, 0
14, 62434, Note_on_c, 6, 62, 103
14, 62453, Note_on_c, 6, 65, 0
14, 62467, Note_on_c, 6, 62, 0
14, 62467, Note_on_c, 6, 65, 73
14, 62491, Note_on_c, 6, 62, 105
14, 62497, Note_on_c, 6, 65, 0
14, 62519, Note_on_c, 6, 65, 105
14, 62520, Note_on_c, 6, 62, 0
14, 62545, Note_on_c, 6, 62, 84
14, 62552, Note_on_c, 6, 65, 0
14, 62575, Note_on_c, 6, 65, 105
14, 62576, Note_on_c, 6, 62, 0
14, 62601, Note_on_c, 6, 62, 97
14, 62611, Note_on_c, 6, 65, 0
14, 62630, Note_on_c, 6, 65, 99
14, 62631, Note_on_c, 6, 62, 0
14, 62652, Note_on_c, 6, 62, 99
14, 62654, Note_on_c, 6, 65, 0
14, 62672, Note_on_c, 6, 65, 105
14, 62676, Note_on_c, 6, 62, 0
14, 62696, Note_on_c, 6, 65, 0
14, 62698, Note_on_c, 6, 62, 105
14, 62713, Note_on_c, 6, 65, 94
14, 62716, Note_on_c, 6, 62, 0
14, 62734, Note_on_c, 6, 62, 102
14, 62735, Note_on_c, 6, 65, 0
14, 62748, Note_on_c, 6, 65, 104
14, 62749, Note_on_c, 6, 62, 0
14, 62765, Note_on_c, 6, 65, 0
14, 62768, Note_on_c, 6, 62, 102
14, 62783, Note_on_c, 6, 62, 0
14, 62784, Note_on_c, 6, 65, 94
14, 62799, Note_on_c, 6, 65, 0
14, 62799, Note_on_c, 6, 62, 94
14, 62813, Note_on_c, 6, 62, 0
14, 62814, Note_on_c, 6, 65, 92
14, 62832, Note_on_c, 6, 65, 0
14, 62832, Note_on_c, 6, 62, 90
14, 62844, Note_on_c, 6, 65, 88
14, 62846, Note_on_c, 6, 62, 0
14, 62864, Note_on_c, 6, 65, 0
14, 62872, Note_on_c, 6, 62, 97
14, 63843, Note_on_c, 6, 62, 0
14, 63843, Note_on_c, 6, 60, 71
14, 63843, Note_on_c, 6, 60, 71
14, 64799, Note_on_c, 6, 62, 63
14, 64814, Note_on_c, 6, 60, 0
14, 64814, Note_on_c, 6, 60, 0
14, 65767, Note_on_c, 6, 60, 67
14, 65775, Note_on_c, 6, 62, 0
14, 66723, Note_on_c, 6, 62, 61
14, 66730, Note_on_c, 6, 60, 0
14, 67680, Control_c, 6, 11, 127
14, 67683, Note_on_c, 6, 60, 67
14, 67686, Note_on_c, 6, 62, 0
14, 67740, Control_c, 6, 11, 122
14, 67801, Control_c, 6, 11, 121
14, 67862, Control_c, 6, 11, 120
14, 67923, Control_c, 6, 11, 119
14, 67984, Control_c, 6, 11, 118
14, 68045, Control_c, 6, 11, 117
14, 68106, Control_c, 6, 11, 116
14, 68167, Control_c, 6, 11, 114
14, 68228, Control_c, 6, 11, 113
14, 68289, Control_c, 6, 11, 112
14, 68350, Control_c, 6, 11, 112
14, 68411, Control_c, 6, 11, 112
14, 68472, Control_c, 6, 11, 111
14, 68533, Control_c, 6, 11, 110
14, 68594, Control_c, 6, 11, 109
14, 68640, Note_on_c, 6, 62, 65
14, 68646, Note_on_c, 6, 60, 0
14, 68655, Control_c, 6, 11, 108
14, 68716, Control_c, 6, 11, 107
14, 68777, Control_c, 6, 11, 105
14, 68837, Control_c, 6, 11, 104
14, 68898, Control_c, 6, 11, 102
14, 68959, Control_c, 6, 11, 101
14, 69020, Control_c, 6, 11, 101
14, 69081, Control_c, 6, 11, 100
14, 69142, Control_c, 6, 11, 99
14, 69203, Control_c, 6, 11, 98
14, 69264, Control_c, 6, 11, 97
14, 69325, Control_c, 6, 11, 96
14, 69386, Control_c, 6, 11, 95
14, 69447, Control_c, 6, 11, 95
14, 69508, Control_c, 6, 11, 94
14, 69569, Control_c, 6, 11, 93
14, 69603, Note_on_c, 6, 62, 0
14, 69603, Note_on_c, 6, 60, 66
14, 69630, Control_c, 6, 11, 93
14, 69691, Control_c, 6, 11, 91
14, 69752, Control_c, 6, 11, 90
14, 69813, Control_c, 6, 11, 89
14, 69874, Control_c, 6, 11, 87
14, 69934, Control_c, 6, 11, 87
14, 69995, Control_c, 6, 11, 86
14, 70056, Control_c, 6, 11, 85
14, 70117, Control_c, 6, 11, 84
14, 70178, Control_c, 6, 11, 82
14, 70239, Control_c, 6, 11, 81
14, 70300, Control_c, 6, 11, 81
14, 70361, Control_c, 6, 11, 79
14, 70422, Control_c, 6, 11, 78
14, 70483, Control_c, 6, 11, 77
14, 70544, Control_c, 6, 11, 76
14, 70560, Note_on_c, 6, 62, 66
14, 70566, Note_on_c, 6, 60, 0
14, 70605, Control_c, 6, 11, 75
14, 70666, Control_c, 6, 11, 74
14, 70727, Control_c, 6, 11, 73
14, 70788, Control_c, 6, 11, 72
14, 70849, Control_c, 6, 11, 71
14, 70910, Control_c, 6, 11, 71
14, 70971, Control_c, 6, 11, 70
14, 71031, Control_c, 6, 11, 67
14, 71092, Control_c, 6, 11, 66
14, 71153, Control_c, 6, 11, 65
14, 71214, Control_c, 6, 11, 64
14, 71275, Control_c, 6, 11, 63
14, 71336, Control_c, 6, 11, 63
14, 71397, Control_c, 6, 11, 62
14, 71458, Control_c, 6, 11, 62
14, 71519, Control_c, 6, 11, 61
14, 71523, Note_on_c, 6, 62, 0
14, 71523, Note_on_c, 6, 60, 66
14, 71580, Control_c, 6, 11, 61
14, 71641, Control_c, 6, 11, 60
14, 71702, Control_c, 6, 11, 59
14, 71763, Control_c, 6, 11, 58
14, 71824, Control_c, 6, 11, 56
14, 71885, Control_c, 6, 11, 55
14, 71946, Control_c, 6, 11, 54
14, 72007, Control_c, 6, 11, 53
14, 72068, Control_c, 6, 11, 51
14, 72128, Control_c, 6, 11, 50
14, 72189, Control_c, 6, 11, 49
14, 72250, Control_c, 6, 11, 49
14, 72311, Control_c, 6, 11, 48
14, 72372, Control_c, 6, 11, 47
14, 72433, Control_c, 6, 11, 45
14, 72480, Note_on_c, 6, 62, 65
14, 72486, Note_on_c, 6, 60, 0
14, 72494, Control_c, 6, 11, 44
14, 72555, Control_c, 6, 11, 43
14, 72616, Control_c, 6, 11, 42
14, 72677, Control_c, 6, 11, 41
14, 72738, Control_c, 6, 11, 39
14, 72799, Control_c, 6, 11, 38
14, 72860, Control_c, 6, 11, 38
14, 72921, Control_c, 6, 11, 37
14, 72982, Control_c, 6, 11, 36
14, 73043, Control_c, 6, 11, 36
14, 73104, Control_c, 6, 11, 35
14, 73165, Control_c, 6, 11, 33
14, 73225, Control_c, 6, 11, 31
14, 73286, Control_c, 6, 11, 31
14, 73347, Control_c, 6, 11, 30
14, 73408, Control_c, 6, 11, 29
14, 73443, Note_on_c, 6, 62, 0
14, 73443, Note_on_c, 6, 60, 66
14, 73469, Control_c, 6, 11, 28
14, 73530, Control_c, 6, 11, 28
14, 73591, Control_c, 6, 11, 27
14, 73652, Control_c, 6, 11, 26
14, 73713, Control_c, 6, 11, 25
14, 73774, Control_c, 6, 11, 24
14, 73835, Control_c, 6, 11, 22
14, 73896, Control_c, 6, 11, 21
14, 73957, Control_c, 6, 11, 20
14, 74018, Control_c, 6, 11, 19
14, 74079, Control_c, 6, 11, 18
14, 74140, Control_c, 6, 11, 18
14, 74201, Control_c, 6, 11, 17
14, 74262, Control_c, 6, 11, 16
14, 74322, Control_c, 6, 11, 14
14, 74383, Control_c, 6, 11, 13
14, 74400, Note_on_c, 6, 62, 65
14, 74406, Note_on_c, 6, 60, 0
14, 74444, Control_c, 6, 11, 12
14, 74505, Control_c, 6, 11, 10
14, 74566, Control_c, 6, 11, 10
14, 74627, Control_c, 6, 11, 9
14, 74688, Control_c, 6, 11, 8
14, 74749, Control_c, 6, 11, 7
14, 74810, Control_c, 6, 11, 7
14, 74871, Control_c, 6, 11, 6
14, 74932, Control_c, 6, 11, 5
14, 74993, Control_c, 6, 11, 4
14, 75054, Control_c, 6, 11, 3
14, 75115, Control_c, 6, 11, 2
14, 75176, Control_c, 6, 11, 1
14, 75237, Control_c, 6, 11, 0
14, 75298, Control_c, 6, 11, 0
14, 75359, Control_c, 6, 11, 0
14, 75363, Note_on_c, 6, 62, 0
14, 75363, End_track
15, 0, Start_track
15, 87, Control_c, 7, 1, 0
15, 155, Control_c, 7, 0, 0
15, 156, Control_c, 7, 32, 3
15, 157, Program_c, 7, 16
15, 158, Control_c, 7, 7, 66
15, 158, Control_c, 7, 10, 64
15, 174, Control_c, 7, 64, 0
15, 189, Control_c, 7, 0, 0
15, 190, Control_c, 7, 32, 0
15, 191, Program_c, 7, 16
15, 194, Control_c, 7, 0, 0
15, 195, Control_c, 7, 32, 3
15, 196, Program_c, 7, 16
15, 261, Control_c, 7, 11, 127
15, 348, Pitch_bend_c, 7, 8192
15, 435, Control_c, 7, 91, 60
15, 522, Control_c, 7, 93, 16
15, 609, Control_c, 7, 94, 0
15, 10080, Note_on_c, 7, 77, 49
15, 10080, Note_on_c, 7, 74, 49
15, 10080, Note_on_c, 7, 81, 49
15, 10560, Note_on_c, 7, 82, 51
15, 10561, Note_on_c, 7, 81, 0
15, 11036, Note_on_c, 7, 77, 0
15, 11036, Note_on_c, 7, 74, 0
15, 11036, Note_on_c, 7, 82, 0
15, 11040, Note_on_c, 7, 72, 51
15, 11040, Note_on_c, 7, 76, 51
15, 11040, Note_on_c, 7, 79, 51
15, 11990, Note_on_c, 7, 79, 0
15, 11996, Note_on_c, 7, 76, 0
15, 11996, Note_on_c, 7, 72, 0
15, 12000, Note_on_c, 7, 77, 49
15, 12000, Note_on_c, 7, 74, 49
15, 12000, Note_on_c, 7, 81, 49
15, 12480, Note_on_c, 7, 82, 51
15, 12481, Note_on_c, 7, 81, 0
15, 12956, Note_on_c, 7, 77, 0
15, 12956, Note_on_c, 7, 74, 0
15, 12956, Note_on_c, 7, 82, 0
15, 12960, Note_on_c, 7, 72, 51
15, 12960, Note_on_c, 7, 76, 51
15, 12960, Note_on_c, 7, 79, 51
15, 13910, Note_on_c, 7, 79, 0
15, 13916, Note_on_c, 7, 76, 0
15, 13916, Note_on_c, 7, 72, 0
15, 13920, Note_on_c, 7, 77, 49
15, 13920, Note_on_c, 7, 74, 49
15, 13920, Note_on_c, 7, 81, 49
15, 14400, Note_on_c, 7, 82, 51
15, 14401, Note_on_c, 7, 81, 0
15, 14876, Note_on_c, 7, 77, 0
15, 14876, Note_on_c, 7, 74, 0
15, 14876, Note_on_c, 7, 82, 0
15, 14880, Note_on_c, 7, 72, 51
15, 14880, Note_on_c, 7, 76, 51
15, 14880, Note_on_c, 7, 79, 51
15, 15830, Note_on_c, 7, 79, 0
15, 15836, Note_on_c, 7, 76, 0
15, 15836, Note_on_c, 7, 72, 0
15, 24000, Note_on_c, 7, 77, 49
15, 24000, Note_on_c, 7, 74, 49
15, 24000, Note_on_c, 7, 81, 49
15, 24480, Note_on_c, 7, 82, 51
15, 24481, Note_on_c, 7, 81, 0
15, 24956, Note_on_c, 7, 77, 0
15, 24956, Note_on_c, 7, 74, 0
15, 24956, Note_on_c, 7, 82, 0
15, 24960, Note_on_c, 7, 72, 51
15, 24960, Note_on_c, 7, 76, 51
15, 24960, Note_on_c, 7, 79, 51
15, 25910, Note_on_c, 7, 79, 0
15, 25916, Note_on_c, 7, 76, 0
15, 25916, Note_on_c, 7, 72, 0
15, 25920, Note_on_c, 7, 77, 49
15, 25920, Note_on_c, 7, 74, 49
15, 25920, Note_on_c, 7, 81, 49
15, 26400, Note_on_c, 7, 82, 51
15, 26401, Note_on_c, 7, 81, 0
15, 26876, Note_on_c, 7, 77, 0
15, 26876, Note_on_c, 7, 74, 0
15, 26876, Note_on_c, 7, 82, 0
15, 26880, Note_on_c, 7, 72, 51
15, 26880, Note_on_c, 7, 76, 51
15, 26880, Note_on_c, 7, 79, 51
15, 27830, Note_on_c, 7, 79, 0
15, 27836, Note_on_c, 7, 76, 0
15, 27836, Note_on_c, 7, 72, 0
15, 27840, Note_on_c, 7, 77, 49
15, 27840, Note_on_c, 7, 74, 49
15, 27840, Note_on_c, 7, 81, 49
15, 28320, Note_on_c, 7, 82, 51
15, 28321, Note_on_c, 7, 81, 0
15, 28796, Note_on_c, 7, 77, 0
15, 28796, Note_on_c, 7, 74, 0
15, 28796, Note_on_c, 7, 82, 0
15, 28800, Note_on_c, 7, 72, 51
15, 28800, Note_on_c, 7, 76, 51
15, 28800, Note_on_c, 7, 79, 51
15, 29750, Note_on_c, 7, 79, 0
15, 29756, Note_on_c, 7, 76, 0
15, 29756, Note_on_c, 7, 72, 0
15, 37920, Note_on_c, 7, 77, 49
15, 37920, Note_on_c, 7, 74, 49
15, 37920, Note_on_c, 7, 81, 49
15, 38400, Note_on_c, 7, 82, 51
15, 38401, Note_on_c, 7, 81, 0
15, 38876, Note_on_c, 7, 77, 0
15, 38876, Note_on_c, 7, 74, 0
15, 38876, Note_on_c, 7, 82, 0
15, 38880, Note_on_c, 7, 72, 51
15, 38880, Note_on_c, 7, 76, 51
15, 38880, Note_on_c, 7, 79, 51
15, 39830, Note_on_c, 7, 79, 0
15, 39836, Note_on_c, 7, 76, 0
15, 39836, Note_on_c, 7, 72, 0
15, 39840, Note_on_c, 7, 77, 49
15, 39840, Note_on_c, 7, 74, 49
15, 39840, Note_on_c, 7, 81, 49
15, 40320, Note_on_c, 7, 82, 51
15, 40321, Note_on_c, 7, 81, 0
15, 40796, Note_on_c, 7, 77, 0
15, 40796, Note_on_c, 7, 74, 0
15, 40796, Note_on_c, 7, 82, 0
15, 40800, Note_on_c, 7, 72, 51
15, 40800, Note_on_c, 7, 76, 51
15, 40800, Note_on_c, 7, 79, 51
15, 41750, Note_on_c, 7, 79, 0
15, 41756, Note_on_c, 7, 76, 0
15, 41756, Note_on_c, 7, 72, 0
15, 41760, Note_on_c, 7, 77, 49
15, 41760, Note_on_c, 7, 74, 49
15, 41760, Note_on_c, 7, 81, 49
15, 42240, Note_on_c, 7, 82, 51
15, 42241, Note_on_c, 7, 81, 0
15, 42716, Note_on_c, 7, 77, 0
15, 42716, Note_on_c, 7, 74, 0
15, 42716, Note_on_c, 7, 82, 0
15, 42720, Note_on_c, 7, 72, 51
15, 42720, Note_on_c, 7, 76, 51
15, 42720, Note_on_c, 7, 79, 51
15, 43670, Note_on_c, 7, 79, 0
15, 43676, Note_on_c, 7, 76, 0
15, 43676, Note_on_c, 7, 72, 0
15, 43680, Note_on_c, 7, 77, 49
15, 43680, Note_on_c, 7, 74, 49
15, 43680, Note_on_c, 7, 81, 49
15, 44160, Note_on_c, 7, 82, 51
15, 44161, Note_on_c, 7, 81, 0
15, 44636, Note_on_c, 7, 77, 0
15, 44636, Note_on_c, 7, 74, 0
15, 44636, Note_on_c, 7, 82, 0
15, 44640, Note_on_c, 7, 72, 51
15, 44640, Note_on_c, 7, 76, 51
15, 44640, Note_on_c, 7, 79, 51
15, 45590, Note_on_c, 7, 79, 0
15, 45596, Note_on_c, 7, 76, 0
15, 45596, Note_on_c, 7, 72, 0
15, 45596, End_track
16, 0, Start_track
16, 92, Control_c, 8, 1, 50
16, 160, Control_c, 8, 0, 0
16, 161, Control_c, 8, 32, 3
16, 162, Program_c, 8, 31
16, 163, Control_c, 8, 7, 85
16, 163, Control_c, 8, 10, 64
16, 184, Control_c, 8, 64, 0
16, 189, Control_c, 8, 0, 0
16, 190, Control_c, 8, 32, 0
16, 191, Program_c, 8, 31
16, 194, Control_c, 8, 0, 0
16, 195, Control_c, 8, 32, 3
16, 196, Program_c, 8, 31
16, 276, Control_c, 8, 11, 9
16, 368, Pitch_bend_c, 8, 8192
16, 641, Control_c, 8, 99, 1
16, 642, Control_c, 8, 98, 33
16, 643, Control_c, 8, 6, 87
16, 644, Control_c, 8, 38, 0
16, 920, Control_c, 8, 91, 81
16, 1012, Control_c, 8, 93, 16
16, 1104, Control_c, 8, 94, 0
16, 15734, Note_on_c, 8, 60, 113
16, 15737, Note_on_c, 8, 48, 113
16, 15760, Control_c, 8, 11, 18
16, 15813, Control_c, 8, 11, 28
16, 15860, Control_c, 8, 11, 36
16, 15880, Control_c, 8, 11, 41
16, 15900, Control_c, 8, 11, 43
16, 15903, Control_c, 8, 11, 44
16, 15930, Control_c, 8, 11, 50
16, 15956, Control_c, 8, 11, 58
16, 15990, Control_c, 8, 11, 62
16, 16010, Control_c, 8, 11, 67
16, 16036, Control_c, 8, 11, 74
16, 16056, Control_c, 8, 11, 76
16, 16060, Control_c, 8, 11, 77
16, 16066, Control_c, 8, 11, 79
16, 16093, Control_c, 8, 11, 86
16, 16100, Control_c, 8, 11, 87
16, 16103, Control_c, 8, 11, 86
16, 16106, Control_c, 8, 11, 87
16, 16116, Control_c, 8, 11, 93
16, 16160, Control_c, 8, 11, 94
16, 16220, Control_c, 8, 11, 102
16, 16266, Control_c, 8, 11, 110
16, 16293, Control_c, 8, 11, 114
16, 16313, Control_c, 8, 11, 117
16, 16333, Control_c, 8, 11, 118
16, 16336, Control_c, 8, 11, 119
16, 16356, Control_c, 8, 11, 120
16, 16363, Control_c, 8, 11, 122
16, 16383, Control_c, 8, 11, 127
16, 17775, Note_on_c, 8, 48, 0
16, 17782, Note_on_c, 8, 60, 0
16, 19986, Control_c, 8, 11, 6
16, 20012, Control_c, 8, 11, 10
16, 20032, Control_c, 8, 11, 18
16, 20052, Control_c, 8, 11, 24
16, 20054, Note_on_c, 8, 60, 113
16, 20057, Note_on_c, 8, 48, 113
16, 20079, Control_c, 8, 11, 29
16, 20106, Control_c, 8, 11, 36
16, 20112, Control_c, 8, 11, 37
16, 20132, Control_c, 8, 11, 38
16, 20152, Control_c, 8, 11, 45
16, 20159, Control_c, 8, 11, 48
16, 20166, Control_c, 8, 11, 49
16, 20186, Control_c, 8, 11, 51
16, 20206, Control_c, 8, 11, 59
16, 20226, Control_c, 8, 11, 61
16, 20232, Control_c, 8, 11, 62
16, 20259, Control_c, 8, 11, 70
16, 20292, Control_c, 8, 11, 75
16, 20319, Control_c, 8, 11, 84
16, 20346, Control_c, 8, 11, 90
16, 20379, Control_c, 8, 11, 97
16, 20406, Control_c, 8, 11, 102
16, 20426, Control_c, 8, 11, 105
16, 20446, Control_c, 8, 11, 112
16, 20452, Control_c, 8, 11, 112
16, 20459, Control_c, 8, 11, 114
16, 20466, Control_c, 8, 11, 117
16, 20469, Control_c, 8, 11, 118
16, 20476, Control_c, 8, 11, 120
16, 20482, Control_c, 8, 11, 121
16, 20486, Control_c, 8, 11, 127
16, 22095, Note_on_c, 8, 48, 0
16, 22102, Note_on_c, 8, 60, 0
16, 22746, Control_c, 8, 11, 96
16, 22746, End_track
17, 0, Start_track
17, 95, Control_c, 9, 1, 0
17, 165, Control_c, 9, 0, 0
17, 166, Control_c, 9, 32, 3
17, 167, Program_c, 9, 0
17, 168, Control_c, 9, 7, 112
17, 168, Control_c, 9, 10, 64
17, 190, Control_c, 9, 64, 0
17, 190, Control_c, 9, 0, 0
17, 190, Control_c, 9, 32, 0
17, 191, Program_c, 9, 0
17, 194, Control_c, 9, 0, 0
17, 195, Control_c, 9, 32, 3
17, 196, Program_c, 9, 0
17, 285, Control_c, 9, 11, 127
17, 380, Pitch_bend_c, 9, 8192
17, 475, Control_c, 9, 91, 41
17, 570, Control_c, 9, 93, 0
17, 665, Control_c, 9, 94, 0
17, 665, End_track
18, 0, Start_track
18, 0, Control_c, 9, 101, 0
18, 1, Control_c, 9, 100, 0
18, 2, Control_c, 9, 6, 2
18, 3, Control_c, 9, 38, 0
18, 165, Control_c, 9, 0, 0
18, 166, Control_c, 9, 32, 3
18, 167, Program_c, 9, 0
18, 3960, Note_on_c, 9, 35, 57
18, 3961, Note_on_c, 9, 35, 0
18, 4200, Note_on_c, 9, 35, 63
18, 4201, Note_on_c, 9, 35, 0
18, 4440, Note_on_c, 9, 35, 50
18, 4441, Note_on_c, 9, 35, 0
18, 4680, Note_on_c, 9, 35, 44
18, 4681, Note_on_c, 9, 35, 0
18, 4920, Note_on_c, 9, 35, 50
18, 4921, Note_on_c, 9, 35, 0
18, 5160, Note_on_c, 9, 35, 44
18, 5161, Note_on_c, 9, 35, 0
18, 5400, Note_on_c, 9, 35, 50
18, 5401, Note_on_c, 9, 35, 0
18, 5640, Note_on_c, 9, 35, 44
18, 5641, Note_on_c, 9, 35, 0
18, 5880, Note_on_c, 9, 35, 50
18, 5881, Note_on_c, 9, 35, 0
18, 6120, Note_on_c, 9, 35, 44
18, 6121, Note_on_c, 9, 35, 0
18, 6360, Note_on_c, 9, 35, 57
18, 6361, Note_on_c, 9, 35, 0
18, 6600, Note_on_c, 9, 35, 63
18, 6601, Note_on_c, 9, 35, 0
18, 6840, Note_on_c, 9, 35, 50
18, 6841, Note_on_c, 9, 35, 0
18, 7080, Note_on_c, 9, 35, 44
18, 7081, Note_on_c, 9, 35, 0
18, 7320, Note_on_c, 9, 35, 50
18, 7321, Note_on_c, 9, 35, 0
18, 7560, Note_on_c, 9, 35, 44
18, 7561, Note_on_c, 9, 35, 0
18, 7800, Note_on_c, 9, 35, 50
18, 7801, Note_on_c, 9, 35, 0
18, 8040, Note_on_c, 9, 35, 44
18, 8041, Note_on_c, 9, 35, 0
18, 8280, Note_on_c, 9, 35, 50
18, 8281, Note_on_c, 9, 35, 0
18, 8520, Note_on_c, 9, 35, 44
18, 8521, Note_on_c, 9, 35, 0
18, 8760, Note_on_c, 9, 35, 50
18, 8761, Note_on_c, 9, 35, 0
18, 9000, Note_on_c, 9, 35, 44
18, 9001, Note_on_c, 9, 35, 0
18, 9240, Note_on_c, 9, 35, 50
18, 9241, Note_on_c, 9, 35, 0
18, 9480, Note_on_c, 9, 35, 44
18, 9481, Note_on_c, 9, 35, 0
18, 9720, Note_on_c, 9, 35, 50
18, 9721, Note_on_c, 9, 35, 0
18, 9960, Note_on_c, 9, 35, 44
18, 9961, Note_on_c, 9, 35, 0
18, 15960, Note_on_c, 9, 35, 50
18, 15961, Note_on_c, 9, 35, 0
18, 16200, Note_on_c, 9, 35, 44
18, 16201, Note_on_c, 9, 35, 0
18, 16440, Note_on_c, 9, 35, 50
18, 16441, Note_on_c, 9, 35, 0
18, 16680, Note_on_c, 9, 35, 44
18, 16681, Note_on_c, 9, 35, 0
18, 16920, Note_on_c, 9, 35, 50
18, 16921, Note_on_c, 9, 35, 0
18, 17160, Note_on_c, 9, 35, 44
18, 17161, Note_on_c, 9, 35, 0
18, 17400, Note_on_c, 9, 35, 50
18, 17401, Note_on_c, 9, 35, 0
18, 17640, Note_on_c, 9, 35, 44
18, 17641, Note_on_c, 9, 35, 0
18, 17880, Note_on_c, 9, 35, 57
18, 17881, Note_on_c, 9, 35, 0
18, 18120, Note_on_c, 9, 35, 63
18, 18121, Note_on_c, 9, 35, 0
18, 18360, Note_on_c, 9, 35, 50
18, 18361, Note_on_c, 9, 35, 0
18, 18600, Note_on_c, 9, 35, 44
18, 18601, Note_on_c, 9, 35, 0
18, 18840, Note_on_c, 9, 35, 50
18, 18841, Note_on_c, 9, 35, 0
18, 19080, Note_on_c, 9, 35, 44
18, 19081, Note_on_c, 9, 35, 0
18, 19320, Note_on_c, 9, 35, 50
18, 19321, Note_on_c, 9, 35, 0
18, 19560, Note_on_c, 9, 35, 44
18, 19561, Note_on_c, 9, 35, 0
18, 19800, Note_on_c, 9, 35, 50
18, 19801, Note_on_c, 9, 35, 0
18, 20040, Note_on_c, 9, 35, 44
18, 20041, Note_on_c, 9, 35, 0
18, 20280, Note_on_c, 9, 35, 57
18, 20281, Note_on_c, 9, 35, 0
18, 20520, Note_on_c, 9, 35, 63
18, 20521, Note_on_c, 9, 35, 0
18, 20760, Note_on_c, 9, 35, 50
18, 20761, Note_on_c, 9, 35, 0
18, 21000, Note_on_c, 9, 35, 44
18, 21001, Note_on_c, 9, 35, 0
18, 21240, Note_on_c, 9, 35, 50
18, 21241, Note_on_c, 9, 35, 0
18, 21480, Note_on_c, 9, 35, 44
18, 21481, Note_on_c, 9, 35, 0
18, 21720, Note_on_c, 9, 35, 50
18, 21721, Note_on_c, 9, 35, 0
18, 21960, Note_on_c, 9, 35, 44
18, 21961, Note_on_c, 9, 35, 0
18, 22200, Note_on_c, 9, 35, 50
18, 22201, Note_on_c, 9, 35, 0
18, 22440, Note_on_c, 9, 35, 44
18, 22441, Note_on_c, 9, 35, 0
18, 22680, Note_on_c, 9, 35, 50
18, 22681, Note_on_c, 9, 35, 0
18, 22920, Note_on_c, 9, 35, 44
18, 22921, Note_on_c, 9, 35, 0
18, 23160, Note_on_c, 9, 35, 50
18, 23161, Note_on_c, 9, 35, 0
18, 23400, Note_on_c, 9, 35, 44
18, 23401, Note_on_c, 9, 35, 0
18, 23640, Note_on_c, 9, 35, 50
18, 23641, Note_on_c, 9, 35, 0
18, 23880, Note_on_c, 9, 35, 44
18, 23881, Note_on_c, 9, 35, 0
18, 29880, Note_on_c, 9, 35, 50
18, 29881, Note_on_c, 9, 35, 0
18, 30120, Note_on_c, 9, 35, 44
18, 30121, Note_on_c, 9, 35, 0
18, 30360, Note_on_c, 9, 35, 50
18, 30361, Note_on_c, 9, 35, 0
18, 30600, Note_on_c, 9, 35, 44
18, 30601, Note_on_c, 9, 35, 0
18, 30840, Note_on_c, 9, 35, 50
18, 30841, Note_on_c, 9, 35, 0
18, 31080, Note_on_c, 9, 35, 44
18, 31081, Note_on_c, 9, 35, 0
18, 31320, Note_on_c, 9, 35, 50
18, 31321, Note_on_c, 9, 35, 0
18, 31560, Note_on_c, 9, 35, 44
18, 31561, Note_on_c, 9, 35, 0
18, 31800, Note_on_c, 9, 35, 57
18, 31801, Note_on_c, 9, 35, 0
18, 32040, Note_on_c, 9, 35, 63
18, 32041, Note_on_c, 9, 35, 0
18, 32280, Note_on_c, 9, 35, 50
18, 32281, Note_on_c, 9, 35, 0
18, 32520, Note_on_c, 9, 35, 44
18, 32521, Note_on_c, 9, 35, 0
18, 32760, Note_on_c, 9, 35, 50
18, 32761, Note_on_c, 9, 35, 0
18, 33000, Note_on_c, 9, 35, 44
18, 33001, Note_on_c, 9, 35, 0
18, 33240, Note_on_c, 9, 35, 50
18, 33241, Note_on_c, 9, 35, 0
18, 33480, Note_on_c, 9, 35, 44
18, 33481, Note_on_c, 9, 35, 0
18, 33720, Note_on_c, 9, 35, 50
18, 33721, Note_on_c, 9, 35, 0
18, 33960, Note_on_c, 9, 35, 44
18, 33961, Note_on_c, 9, 35, 0
18, 34200, Note_on_c, 9, 35, 57
18, 34201, Note_on_c, 9, 35, 0
18, 34440, Note_on_c, 9, 35, 63
18, 34441, Note_on_c, 9, 35, 0
18, 34680, Note_on_c, 9, 35, 50
18, 34681, Note_on_c, 9, 35, 0
18, 34920, Note_on_c, 9, 35, 44
18, 34921, Note_on_c, 9, 35, 0
18, 35160, Note_on_c, 9, 35, 50
18, 35161, Note_on_c, 9, 35, 0
18, 35400, Note_on_c, 9, 35, 44
18, 35401, Note_on_c, 9, 35, 0
18, 35640, Note_on_c, 9, 35, 50
18, 35641, Note_on_c, 9, 35, 0
18, 35880, Note_on_c, 9, 35, 44
18, 35881, Note_on_c, 9, 35, 0
18, 36120, Note_on_c, 9, 35, 50
18, 36121, Note_on_c, 9, 35, 0
18, 36360, Note_on_c, 9, 35, 44
18, 36361, Note_on_c, 9, 35, 0
18, 36600, Note_on_c, 9, 35, 50
18, 36601, Note_on_c, 9, 35, 0
18, 36840, Note_on_c, 9, 35, 44
18, 36841, Note_on_c, 9, 35, 0
18, 37080, Note_on_c, 9, 35, 50
18, 37081, Note_on_c, 9, 35, 0
18, 37320, Note_on_c, 9, 35, 44
18, 37321, Note_on_c, 9, 35, 0
18, 37560, Note_on_c, 9, 35, 50
18, 37561, Note_on_c, 9, 35, 0
18, 37800, Note_on_c, 9, 35, 44
18, 37801, Note_on_c, 9, 35, 0
18, 45720, Note_on_c, 9, 35, 69
18, 45721, Note_on_c, 9, 35, 0
18, 45960, Note_on_c, 9, 35, 74
18, 45961, Note_on_c, 9, 35, 0
18, 46200, Note_on_c, 9, 35, 65
18, 46201, Note_on_c, 9, 35, 0
18, 46440, Note_on_c, 9, 35, 76
18, 46441, Note_on_c, 9, 35, 0
18, 46680, Note_on_c, 9, 35, 76
18, 46681, Note_on_c, 9, 35, 0
18, 46740, Note_on_c, 9, 35, 71
18, 46741, Note_on_c, 9, 35, 0
18, 46920, Note_on_c, 9, 35, 67
18, 46921, Note_on_c, 9, 35, 0
18, 47160, Note_on_c, 9, 35, 65
18, 47161, Note_on_c, 9, 35, 0
18, 47340, Note_on_c, 9, 35, 84
18, 47341, Note_on_c, 9, 35, 0
18, 47400, Note_on_c, 9, 35, 75
18, 47401, Note_on_c, 9, 35, 0
18, 47640, Note_on_c, 9, 35, 69
18, 47641, Note_on_c, 9, 35, 0
18, 47880, Note_on_c, 9, 35, 74
18, 47881, Note_on_c, 9, 35, 0
18, 48120, Note_on_c, 9, 35, 65
18, 48121, Note_on_c, 9, 35, 0
18, 48360, Note_on_c, 9, 35, 76
18, 48361, Note_on_c, 9, 35, 0
18, 48600, Note_on_c, 9, 35, 76
18, 48601, Note_on_c, 9, 35, 0
18, 48660, Note_on_c, 9, 35, 71
18, 48661, Note_on_c, 9, 35, 0
18, 48840, Note_on_c, 9, 35, 67
18, 48841, Note_on_c, 9, 35, 0
18, 49080, Note_on_c, 9, 35, 65
18, 49081, Note_on_c, 9, 35, 0
18, 49260, Note_on_c, 9, 35, 84
18, 49261, Note_on_c, 9, 35, 0
18, 49320, Note_on_c, 9, 35, 75
18, 49321, Note_on_c, 9, 35, 0
18, 49560, Note_on_c, 9, 35, 69
18, 49561, Note_on_c, 9, 35, 0
18, 49800, Note_on_c, 9, 35, 74
18, 49801, Note_on_c, 9, 35, 0
18, 50040, Note_on_c, 9, 35, 65
18, 50041, Note_on_c, 9, 35, 0
18, 50280, Note_on_c, 9, 35, 76
18, 50281, Note_on_c, 9, 35, 0
18, 50520, Note_on_c, 9, 35, 76
18, 50521, Note_on_c, 9, 35, 0
18, 50580, Note_on_c, 9, 35, 71
18, 50581, Note_on_c, 9, 35, 0
18, 50760, Note_on_c, 9, 35, 67
18, 50761, Note_on_c, 9, 35, 0
18, 51000, Note_on_c, 9, 35, 65
18, 51001, Note_on_c, 9, 35, 0
18, 51180, Note_on_c, 9, 35, 84
18, 51181, Note_on_c, 9, 35, 0
18, 51240, Note_on_c, 9, 35, 75
18, 51241, Note_on_c, 9, 35, 0
18, 51480, Note_on_c, 9, 35, 69
18, 51481, Note_on_c, 9, 35, 0
18, 51720, Note_on_c, 9, 35, 74
18, 51721, Note_on_c, 9, 35, 0
18, 51960, Note_on_c, 9, 35, 65
18, 51961, Note_on_c, 9, 35, 0
18, 52200, Note_on_c, 9, 35, 76
18, 52201, Note_on_c, 9, 35, 0
18, 52440, Note_on_c, 9, 35, 76
18, 52441, Note_on_c, 9, 35, 0
18, 52500, Note_on_c, 9, 35, 71
18, 52501, Note_on_c, 9, 35, 0
18, 52680, Note_on_c, 9, 35, 67
18, 52681, Note_on_c, 9, 35, 0
18, 52920, Note_on_c, 9, 35, 65
18, 52921, Note_on_c, 9, 35, 0
18, 53100, Note_on_c, 9, 35, 84
18, 53101, Note_on_c, 9, 35, 0
18, 53160, Note_on_c, 9, 35, 75
18, 53161, Note_on_c, 9, 35, 0
18, 53400, Note_on_c, 9, 35, 69
18, 53401, Note_on_c, 9, 35, 0
18, 53640, Note_on_c, 9, 35, 74
18, 53641, Note_on_c, 9, 35, 0
18, 53880, Note_on_c, 9, 35, 65
18, 53881, Note_on_c, 9, 35, 0
18, 54120, Note_on_c, 9, 35, 76
18, 54121, Note_on_c, 9, 35, 0
18, 54360, Note_on_c, 9, 35, 76
18, 54361, Note_on_c, 9, 35, 0
18, 54420, Note_on_c, 9, 35, 71
18, 54421, Note_on_c, 9, 35, 0
18, 54600, Note_on_c, 9, 35, 67
18, 54601, Note_on_c, 9, 35, 0
18, 54840, Note_on_c, 9, 35, 65
18, 54841, Note_on_c, 9, 35, 0
18, 55020, Note_on_c, 9, 35, 84
18, 55021, Note_on_c, 9, 35, 0
18, 55080, Note_on_c, 9, 35, 75
18, 55081, Note_on_c, 9, 35, 0
18, 55320, Note_on_c, 9, 35, 69
18, 55321, Note_on_c, 9, 35, 0
18, 55560, Note_on_c, 9, 35, 74
18, 55561, Note_on_c, 9, 35, 0
18, 55800, Note_on_c, 9, 35, 65
18, 55801, Note_on_c, 9, 35, 0
18, 56040, Note_on_c, 9, 35, 76
18, 56041, Note_on_c, 9, 35, 0
18, 56280, Note_on_c, 9, 35, 76
18, 56281, Note_on_c, 9, 35, 0
18, 56340, Note_on_c, 9, 35, 71
18, 56341, Note_on_c, 9, 35, 0
18, 56520, Note_on_c, 9, 35, 67
18, 56521, Note_on_c, 9, 35, 0
18, 56760, Note_on_c, 9, 35, 65
18, 56761, Note_on_c, 9, 35, 0
18, 56940, Note_on_c, 9, 35, 84
18, 56941, Note_on_c, 9, 35, 0
18, 57000, Note_on_c, 9, 35, 75
18, 57001, Note_on_c, 9, 35, 0
18, 57240, Note_on_c, 9, 35, 69
18, 57241, Note_on_c, 9, 35, 0
18, 57480, Note_on_c, 9, 35, 74
18, 57481, Note_on_c, 9, 35, 0
18, 57720, Note_on_c, 9, 35, 65
18, 57721, Note_on_c, 9, 35, 0
18, 57960, Note_on_c, 9, 35, 76
18, 57961, Note_on_c, 9, 35, 0
18, 58200, Note_on_c, 9, 35, 76
18, 58201, Note_on_c, 9, 35, 0
18, 58260, Note_on_c, 9, 35, 71
18, 58261, Note_on_c, 9, 35, 0
18, 58440, Note_on_c, 9, 35, 67
18, 58441, Note_on_c, 9, 35, 0
18, 58680, Note_on_c, 9, 35, 65
18, 58681, Note_on_c, 9, 35, 0
18, 58860, Note_on_c, 9, 35, 84
18, 58861, Note_on_c, 9, 35, 0
18, 58920, Note_on_c, 9, 35, 75
18, 58921, Note_on_c, 9, 35, 0
18, 59160, Note_on_c, 9, 35, 69
18, 59161, Note_on_c, 9, 35, 0
18, 59400, Note_on_c, 9, 35, 74
18, 59401, Note_on_c, 9, 35, 0
18, 59640, Note_on_c, 9, 35, 65
18, 59641, Note_on_c, 9, 35, 0
18, 59880, Note_on_c, 9, 35, 76
18, 59881, Note_on_c, 9, 35, 0
18, 60120, Note_on_c, 9, 35, 76
18, 60121, Note_on_c, 9, 35, 0
18, 60180, Note_on_c, 9, 35, 71
18, 60181, Note_on_c, 9, 35, 0
18, 60360, Note_on_c, 9, 35, 67
18, 60361, Note_on_c, 9, 35, 0
18, 60600, Note_on_c, 9, 35, 65
18, 60601, Note_on_c, 9, 35, 0
18, 60780, Note_on_c, 9, 35, 84
18, 60781, Note_on_c, 9, 35, 0
18, 60840, Note_on_c, 9, 35, 75
18, 60841, Note_on_c, 9, 35, 0
18, 61080, Note_on_c, 9, 35, 69
18, 61081, Note_on_c, 9, 35, 0
18, 61320, Note_on_c, 9, 35, 74
18, 61321, Note_on_c, 9, 35, 0
18, 61560, Note_on_c, 9, 35, 65
18, 61561, Note_on_c, 9, 35, 0
18, 61800, Note_on_c, 9, 35, 76
18, 61801, Note_on_c, 9, 35, 0
18, 62040, Note_on_c, 9, 35, 76
18, 62041, Note_on_c, 9, 35, 0
18, 62100, Note_on_c, 9, 35, 71
18, 62101, Note_on_c, 9, 35, 0
18, 62280, Note_on_c, 9, 35, 67
18, 62281, Note_on_c, 9, 35, 0
18, 62520, Note_on_c, 9, 35, 65
18, 62521, Note_on_c, 9, 35, 0
18, 62700, Note_on_c, 9, 35, 84
18, 62701, Note_on_c, 9, 35, 0
18, 62760, Note_on_c, 9, 35, 75
18, 62761, Note_on_c, 9, 35, 0
18, 63000, Note_on_c, 9, 35, 69
18, 63001, Note_on_c, 9, 35, 0
18, 63240, Note_on_c, 9, 35, 74
18, 63241, Note_on_c, 9, 35, 0
18, 63480, Note_on_c, 9, 35, 65
18, 63481, Note_on_c, 9, 35, 0
18, 63720, Note_on_c, 9, 35, 76
18, 63721, Note_on_c, 9, 35, 0
18, 63960, Note_on_c, 9, 35, 76
18, 63961, Note_on_c, 9, 35, 0
18, 64020, Note_on_c, 9, 35, 71
18, 64021, Note_on_c, 9, 35, 0
18, 64200, Note_on_c, 9, 35, 67
18, 64201, Note_on_c, 9, 35, 0
18, 64440, Note_on_c, 9, 35, 65
18, 64441, Note_on_c, 9, 35, 0
18, 64620, Note_on_c, 9, 35, 84
18, 64621, Note_on_c, 9, 35, 0
18, 64680, Note_on_c, 9, 35, 75
18, 64681, Note_on_c, 9, 35, 0
18, 64920, Note_on_c, 9, 35, 69
18, 64921, Note_on_c, 9, 35, 0
18, 65160, Note_on_c, 9, 35, 74
18, 65161, Note_on_c, 9, 35, 0
18, 65400, Note_on_c, 9, 35, 65
18, 65401, Note_on_c, 9, 35, 0
18, 65640, Note_on_c, 9, 35, 76
18, 65641, Note_on_c, 9, 35, 0
18, 65880, Note_on_c, 9, 35, 76
18, 65881, Note_on_c, 9, 35, 0
18, 65940, Note_on_c, 9, 35, 71
18, 65941, Note_on_c, 9, 35, 0
18, 66120, Note_on_c, 9, 35, 67
18, 66121, Note_on_c, 9, 35, 0
18, 66360, Note_on_c, 9, 35, 65
18, 66361, Note_on_c, 9, 35, 0
18, 66540, Note_on_c, 9, 35, 84
18, 66541, Note_on_c, 9, 35, 0
18, 66600, Note_on_c, 9, 35, 75
18, 66601, Note_on_c, 9, 35, 0
18, 66840, Note_on_c, 9, 35, 67
18, 66841, Note_on_c, 9, 35, 0
18, 67080, Note_on_c, 9, 35, 69
18, 67081, Note_on_c, 9, 35, 0
18, 67320, Note_on_c, 9, 35, 59
18, 67321, Note_on_c, 9, 35, 0
18, 67560, Note_on_c, 9, 35, 68
18, 67561, Note_on_c, 9, 35, 0
18, 67800, Note_on_c, 9, 35, 67
18, 67801, Note_on_c, 9, 35, 0
18, 67860, Note_on_c, 9, 35, 62
18, 67861, Note_on_c, 9, 35, 0
18, 68040, Note_on_c, 9, 35, 56
18, 68041, Note_on_c, 9, 35, 0
18, 68280, Note_on_c, 9, 35, 53
18, 68281, Note_on_c, 9, 35, 0
18, 68460, Note_on_c, 9, 35, 67
18, 68461, Note_on_c, 9, 35, 0
18, 68520, Note_on_c, 9, 35, 59
18, 68521, Note_on_c, 9, 35, 0
18, 68760, Note_on_c, 9, 35, 53
18, 68761, Note_on_c, 9, 35, 0
18, 69000, Note_on_c, 9, 35, 55
18, 69001, Note_on_c, 9, 35, 0
18, 69240, Note_on_c, 9, 35, 47
18, 69241, Note_on_c, 9, 35, 0
18, 69480, Note_on_c, 9, 35, 52
18, 69481, Note_on_c, 9, 35, 0
18, 69720, Note_on_c, 9, 35, 51
18, 69721, Note_on_c, 9, 35, 0
18, 69780, Note_on_c, 9, 35, 47
18, 69781, Note_on_c, 9, 35, 0
18, 69960, Note_on_c, 9, 35, 43
18, 69961, Note_on_c, 9, 35, 0
18, 70200, Note_on_c, 9, 35, 40
18, 70201, Note_on_c, 9, 35, 0
18, 70380, Note_on_c, 9, 35, 50
18, 70381, Note_on_c, 9, 35, 0
18, 70440, Note_on_c, 9, 35, 45
18, 70441, Note_on_c, 9, 35, 0
18, 70680, Note_on_c, 9, 35, 39
18, 70681, Note_on_c, 9, 35, 0
18, 70920, Note_on_c, 9, 35, 40
18, 70921, Note_on_c, 9, 35, 0
18, 71160, Note_on_c, 9, 35, 34
18, 71161, Note_on_c, 9, 35, 0
18, 71400, Note_on_c, 9, 35, 38
18, 71401, Note_on_c, 9, 35, 0
18, 71640, Note_on_c, 9, 35, 35
18, 71641, Note_on_c, 9, 35, 0
18, 71700, Note_on_c, 9, 35, 33
18, 71701, Note_on_c, 9, 35, 0
18, 71880, Note_on_c, 9, 35, 29
18, 71881, Note_on_c, 9, 35, 0
18, 72120, Note_on_c, 9, 35, 28
18, 72121, Note_on_c, 9, 35, 0
18, 72300, Note_on_c, 9, 35, 34
18, 72301, Note_on_c, 9, 35, 0
18, 72360, Note_on_c, 9, 35, 29
18, 72361, Note_on_c, 9, 35, 0
18, 72600, Note_on_c, 9, 35, 26
18, 72601, Note_on_c, 9, 35, 0
18, 72840, Note_on_c, 9, 35, 26
18, 72841, Note_on_c, 9, 35, 0
18, 73080, Note_on_c, 9, 35, 21
18, 73081, Note_on_c, 9, 35, 0
18, 73320, Note_on_c, 9, 35, 22
18, 73321, Note_on_c, 9, 35, 0
18, 73560, Note_on_c, 9, 35, 21
18, 73561, Note_on_c, 9, 35, 0
18, 73620, Note_on_c, 9, 35, 19
18, 73621, Note_on_c, 9, 35, 0
18, 73800, Note_on_c, 9, 35, 17
18, 73801, Note_on_c, 9, 35, 0
18, 74040, Note_on_c, 9, 35, 13
18, 74041, Note_on_c, 9, 35, 0
18, 74220, Note_on_c, 9, 35, 10
18, 74221, Note_on_c, 9, 35, 0
18, 74280, Note_on_c, 9, 35, 9
18, 74281, Note_on_c, 9, 35, 0
18, 74520, Note_on_c, 9, 35, 5
18, 74521, Note_on_c, 9, 35, 0
18, 74760, Note_on_c, 9, 35, 3
18, 74761, Note_on_c, 9, 35, 0
18, 75000, Note_on_c, 9, 35, 1
18, 75001, Note_on_c, 9, 35, 0
18, 75001, End_track
19, 0, Start_track
19, 165, Control_c, 9, 0, 0
19, 166, Control_c, 9, 32, 3
19, 167, Program_c, 9, 0
19, 3360, Note_on_c, 9, 36, 80
19, 3361, Note_on_c, 9, 36, 0
19, 3600, Note_on_c, 9, 36, 81
19, 3601, Note_on_c, 9, 36, 0
19, 3840, Note_on_c, 9, 36, 80
19, 3841, Note_on_c, 9, 36, 0
19, 4080, Note_on_c, 9, 36, 81
19, 4081, Note_on_c, 9, 36, 0
19, 4320, Note_on_c, 9, 36, 80
19, 4321, Note_on_c, 9, 36, 0
19, 4560, Note_on_c, 9, 36, 81
19, 4561, Note_on_c, 9, 36, 0
19, 4800, Note_on_c, 9, 36, 80
19, 4801, Note_on_c, 9, 36, 0
19, 5040, Note_on_c, 9, 36, 81
19, 5041, Note_on_c, 9, 36, 0
19, 5280, Note_on_c, 9, 36, 80
19, 5281, Note_on_c, 9, 36, 0
19, 5520, Note_on_c, 9, 36, 81
19, 5521, Note_on_c, 9, 36, 0
19, 5760, Note_on_c, 9, 36, 80
19, 5761, Note_on_c, 9, 36, 0
19, 6000, Note_on_c, 9, 36, 81
19, 6001, Note_on_c, 9, 36, 0
19, 6240, Note_on_c, 9, 36, 80
19, 6241, Note_on_c, 9, 36, 0
19, 6480, Note_on_c, 9, 36, 81
19, 6481, Note_on_c, 9, 36, 0
19, 6720, Note_on_c, 9, 36, 80
19, 6721, Note_on_c, 9, 36, 0
19, 6960, Note_on_c, 9, 36, 81
19, 6961, Note_on_c, 9, 36, 0
19, 7200, Note_on_c, 9, 36, 80
19, 7201, Note_on_c, 9, 36, 0
19, 7440, Note_on_c, 9, 36, 81
19, 7441, Note_on_c, 9, 36, 0
19, 7680, Note_on_c, 9, 36, 80
19, 7681, Note_on_c, 9, 36, 0
19, 7920, Note_on_c, 9, 36, 81
19, 7921, Note_on_c, 9, 36, 0
19, 8160, Note_on_c, 9, 36, 80
19, 8161, Note_on_c, 9, 36, 0
19, 8400, Note_on_c, 9, 36, 81
19, 8401, Note_on_c, 9, 36, 0
19, 8640, Note_on_c, 9, 36, 80
19, 8641, Note_on_c, 9, 36, 0
19, 8880, Note_on_c, 9, 36, 81
19, 8881, Note_on_c, 9, 36, 0
19, 9120, Note_on_c, 9, 36, 80
19, 9121, Note_on_c, 9, 36, 0
19, 9360, Note_on_c, 9, 36, 81
19, 9361, Note_on_c, 9, 36, 0
19, 9600, Note_on_c, 9, 36, 80
19, 9601, Note_on_c, 9, 36, 0
19, 9840, Note_on_c, 9, 36, 81
19, 9841, Note_on_c, 9, 36, 0
19, 10080, Note_on_c, 9, 36, 80
19, 10081, Note_on_c, 9, 36, 0
19, 10320, Note_on_c, 9, 36, 84
19, 10321, Note_on_c, 9, 36, 0
19, 10560, Note_on_c, 9, 36, 80
19, 10561, Note_on_c, 9, 36, 0
19, 10800, Note_on_c, 9, 36, 84
19, 10801, Note_on_c, 9, 36, 0
19, 11040, Note_on_c, 9, 36, 80
19, 11041, Note_on_c, 9, 36, 0
19, 11280, Note_on_c, 9, 36, 84
19, 11281, Note_on_c, 9, 36, 0
19, 11520, Note_on_c, 9, 36, 80
19, 11521, Note_on_c, 9, 36, 0
19, 11760, Note_on_c, 9, 36, 84
19, 11761, Note_on_c, 9, 36, 0
19, 12000, Note_on_c, 9, 36, 80
19, 12001, Note_on_c, 9, 36, 0
19, 12240, Note_on_c, 9, 36, 84
19, 12241, Note_on_c, 9, 36, 0
19, 12480, Note_on_c, 9, 36, 80
19, 12481, Note_on_c, 9, 36, 0
19, 12720, Note_on_c, 9, 36, 84
19, 12721, Note_on_c, 9, 36, 0
19, 12960, Note_on_c, 9, 36, 80
19, 12961, Note_on_c, 9, 36, 0
19, 13200, Note_on_c, 9, 36, 84
19, 13201, Note_on_c, 9, 36, 0
19, 13440, Note_on_c, 9, 36, 80
19, 13441, Note_on_c, 9, 36, 0
19, 13680, Note_on_c, 9, 36, 84
19, 13681, Note_on_c, 9, 36, 0
19, 13920, Note_on_c, 9, 36, 80
19, 13921, Note_on_c, 9, 36, 0
19, 14160, Note_on_c, 9, 36, 84
19, 14161, Note_on_c, 9, 36, 0
19, 14400, Note_on_c, 9, 36, 80
19, 14401, Note_on_c, 9, 36, 0
19, 14640, Note_on_c, 9, 36, 84
19, 14641, Note_on_c, 9, 36, 0
19, 14880, Note_on_c, 9, 36, 80
19, 14881, Note_on_c, 9, 36, 0
19, 15120, Note_on_c, 9, 36, 84
19, 15121, Note_on_c, 9, 36, 0
19, 15360, Note_on_c, 9, 36, 80
19, 15361, Note_on_c, 9, 36, 0
19, 15600, Note_on_c, 9, 36, 84
19, 15601, Note_on_c, 9, 36, 0
19, 15840, Note_on_c, 9, 36, 80
19, 15841, Note_on_c, 9, 36, 0
19, 16080, Note_on_c, 9, 36, 81
19, 16081, Note_on_c, 9, 36, 0
19, 16320, Note_on_c, 9, 36, 80
19, 16321, Note_on_c, 9, 36, 0
19, 16560, Note_on_c, 9, 36, 81
19, 16561, Note_on_c, 9, 36, 0
19, 16800, Note_on_c, 9, 36, 80
19, 16801, Note_on_c, 9, 36, 0
19, 17040, Note_on_c, 9, 36, 81
19, 17041, Note_on_c, 9, 36, 0
19, 17280, Note_on_c, 9, 36, 80
19, 17281, Note_on_c, 9, 36, 0
19, 17520, Note_on_c, 9, 36, 81
19, 17521, Note_on_c, 9, 36, 0
19, 17760, Note_on_c, 9, 36, 80
19, 17761, Note_on_c, 9, 36, 0
19, 18000, Note_on_c, 9, 36, 81
19, 18001, Note_on_c, 9, 36, 0
19, 18240, Note_on_c, 9, 36, 80
19, 18241, Note_on_c, 9, 36, 0
19, 18480, Note_on_c, 9, 36, 81
19, 18481, Note_on_c, 9, 36, 0
19, 18720, Note_on_c, 9, 36, 80
19, 18721, Note_on_c, 9, 36, 0
19, 18960, Note_on_c, 9, 36, 81
19, 18961, Note_on_c, 9, 36, 0
19, 19200, Note_on_c, 9, 36, 80
19, 19201, Note_on_c, 9, 36, 0
19, 19440, Note_on_c, 9, 36, 81
19, 19441, Note_on_c, 9, 36, 0
19, 19680, Note_on_c, 9, 36, 80
19, 19681, Note_on_c, 9, 36, 0
19, 19920, Note_on_c, 9, 36, 81
19, 19921, Note_on_c, 9, 36, 0
19, 20160, Note_on_c, 9, 36, 80
19, 20161, Note_on_c, 9, 36, 0
19, 20400, Note_on_c, 9, 36, 81
19, 20401, Note_on_c, 9, 36, 0
19, 20640, Note_on_c, 9, 36, 80
19, 20641, Note_on_c, 9, 36, 0
19, 20880, Note_on_c, 9, 36, 81
19, 20881, Note_on_c, 9, 36, 0
19, 21120, Note_on_c, 9, 36, 80
19, 21121, Note_on_c, 9, 36, 0
19, 21360, Note_on_c, 9, 36, 81
19, 21361, Note_on_c, 9, 36, 0
19, 21600, Note_on_c, 9, 36, 80
19, 21601, Note_on_c, 9, 36, 0
19, 21840, Note_on_c, 9, 36, 81
19, 21841, Note_on_c, 9, 36, 0
19, 22080, Note_on_c, 9, 36, 80
19, 22081, Note_on_c, 9, 36, 0
19, 22320, Note_on_c, 9, 36, 81
19, 22321, Note_on_c, 9, 36, 0
19, 22560, Note_on_c, 9, 36, 80
19, 22561, Note_on_c, 9, 36, 0
19, 22800, Note_on_c, 9, 36, 81
19, 22801, Note_on_c, 9, 36, 0
19, 23040, Note_on_c, 9, 36, 80
19, 23041, Note_on_c, 9, 36, 0
19, 23280, Note_on_c, 9, 36, 81
19, 23281, Note_on_c, 9, 36, 0
19, 23520, Note_on_c, 9, 36, 80
19, 23521, Note_on_c, 9, 36, 0
19, 23760, Note_on_c, 9, 36, 81
19, 23761, Note_on_c, 9, 36, 0
19, 24000, Note_on_c, 9, 36, 80
19, 24001, Note_on_c, 9, 36, 0
19, 24240, Note_on_c, 9, 36, 84
19, 24241, Note_on_c, 9, 36, 0
19, 24480, Note_on_c, 9, 36, 80
19, 24481, Note_on_c, 9, 36, 0
19, 24720, Note_on_c, 9, 36, 84
19, 24721, Note_on_c, 9, 36, 0
19, 24960, Note_on_c, 9, 36, 80
19, 24961, Note_on_c, 9, 36, 0
19, 25200, Note_on_c, 9, 36, 84
19, 25201, Note_on_c, 9, 36, 0
19, 25440, Note_on_c, 9, 36, 80
19, 25441, Note_on_c, 9, 36, 0
19, 25680, Note_on_c, 9, 36, 84
19, 25681, Note_on_c, 9, 36, 0
19, 25920, Note_on_c, 9, 36, 80
19, 25921, Note_on_c, 9, 36, 0
19, 26160, Note_on_c, 9, 36, 84
19, 26161, Note_on_c, 9, 36, 0
19, 26400, Note_on_c, 9, 36, 80
19, 26401, Note_on_c, 9, 36, 0
19, 26640, Note_on_c, 9, 36, 84
19, 26641, Note_on_c, 9, 36, 0
19, 26880, Note_on_c, 9, 36, 80
19, 26881, Note_on_c, 9, 36, 0
19, 27120, Note_on_c, 9, 36, 84
19, 27121, Note_on_c, 9, 36, 0
19, 27360, Note_on_c, 9, 36, 80
19, 27361, Note_on_c, 9, 36, 0
19, 27600, Note_on_c, 9, 36, 84
19, 27601, Note_on_c, 9, 36, 0
19, 27840, Note_on_c, 9, 36, 80
19, 27841, Note_on_c, 9, 36, 0
19, 28080, Note_on_c, 9, 36, 84
19, 28081, Note_on_c, 9, 36, 0
19, 28320, Note_on_c, 9, 36, 80
19, 28321, Note_on_c, 9, 36, 0
19, 28560, Note_on_c, 9, 36, 84
19, 28561, Note_on_c, 9, 36, 0
19, 28800, Note_on_c, 9, 36, 80
19, 28801, Note_on_c, 9, 36, 0
19, 29040, Note_on_c, 9, 36, 84
19, 29041, Note_on_c, 9, 36, 0
19, 29280, Note_on_c, 9, 36, 80
19, 29281, Note_on_c, 9, 36, 0
19, 29520, Note_on_c, 9, 36, 84
19, 29521, Note_on_c, 9, 36, 0
19, 29760, Note_on_c, 9, 36, 80
19, 29761, Note_on_c, 9, 36, 0
19, 30000, Note_on_c, 9, 36, 81
19, 30001, Note_on_c, 9, 36, 0
19, 30240, Note_on_c, 9, 36, 80
19, 30241, Note_on_c, 9, 36, 0
19, 30480, Note_on_c, 9, 36, 81
19, 30481, Note_on_c, 9, 36, 0
19, 30720, Note_on_c, 9, 36, 80
19, 30721, Note_on_c, 9, 36, 0
19, 30960, Note_on_c, 9, 36, 81
19, 30961, Note_on_c, 9, 36, 0
19, 31200, Note_on_c, 9, 36, 80
19, 31201, Note_on_c, 9, 36, 0
19, 31440, Note_on_c, 9, 36, 81
19, 31441, Note_on_c, 9, 36, 0
19, 31680, Note_on_c, 9, 36, 80
19, 31681, Note_on_c, 9, 36, 0
19, 31920, Note_on_c, 9, 36, 81
19, 31921, Note_on_c, 9, 36, 0
19, 32160, Note_on_c, 9, 36, 80
19, 32161, Note_on_c, 9, 36, 0
19, 32400, Note_on_c, 9, 36, 81
19, 32401, Note_on_c, 9, 36, 0
19, 32640, Note_on_c, 9, 36, 80
19, 32641, Note_on_c, 9, 36, 0
19, 32880, Note_on_c, 9, 36, 81
19, 32881, Note_on_c, 9, 36, 0
19, 33120, Note_on_c, 9, 36, 80
19, 33121, Note_on_c, 9, 36, 0
19, 33360, Note_on_c, 9, 36, 81
19, 33361, Note_on_c, 9, 36, 0
19, 33600, Note_on_c, 9, 36, 80
19, 33601, Note_on_c, 9, 36, 0
19, 33840, Note_on_c, 9, 36, 81
19, 33841, Note_on_c, 9, 36, 0
19, 34080, Note_on_c, 9, 36, 80
19, 34081, Note_on_c, 9, 36, 0
19, 34320, Note_on_c, 9, 36, 81
19, 34321, Note_on_c, 9, 36, 0
19, 34560, Note_on_c, 9, 36, 80
19, 34561, Note_on_c, 9, 36, 0
19, 34800, Note_on_c, 9, 36, 81
19, 34801, Note_on_c, 9, 36, 0
19, 35040, Note_on_c, 9, 36, 80
19, 35041, Note_on_c, 9, 36, 0
19, 35280, Note_on_c, 9, 36, 81
19, 35281, Note_on_c, 9, 36, 0
19, 35520, Note_on_c, 9, 36, 80
19, 35521, Note_on_c, 9, 36, 0
19, 35760, Note_on_c, 9, 36, 81
19, 35761, Note_on_c, 9, 36, 0
19, 36000, Note_on_c, 9, 36, 80
19, 36001, Note_on_c, 9, 36, 0
19, 36240, Note_on_c, 9, 36, 81
19, 36241, Note_on_c, 9, 36, 0
19, 36480, Note_on_c, 9, 36, 80
19, 36481, Note_on_c, 9, 36, 0
19, 36720, Note_on_c, 9, 36, 81
19, 36721, Note_on_c, 9, 36, 0
19, 36960, Note_on_c, 9, 36, 80
19, 36961, Note_on_c, 9, 36, 0
19, 37200, Note_on_c, 9, 36, 81
19, 37201, Note_on_c, 9, 36, 0
19, 37440, Note_on_c, 9, 36, 80
19, 37441, Note_on_c, 9, 36, 0
19, 37680, Note_on_c, 9, 36, 81
19, 37681, Note_on_c, 9, 36, 0
19, 37920, Note_on_c, 9, 36, 80
19, 37921, Note_on_c, 9, 36, 0
19, 38160, Note_on_c, 9, 36, 84
19, 38161, Note_on_c, 9, 36, 0
19, 38400, Note_on_c, 9, 36, 80
19, 38401, Note_on_c, 9, 36, 0
19, 38640, Note_on_c, 9, 36, 84
19, 38641, Note_on_c, 9, 36, 0
19, 38880, Note_on_c, 9, 36, 80
19, 38881, Note_on_c, 9, 36, 0
19, 39120, Note_on_c, 9, 36, 84
19, 39121, Note_on_c, 9, 36, 0
19, 39360, Note_on_c, 9, 36, 80
19, 39361, Note_on_c, 9, 36, 0
19, 39600, Note_on_c, 9, 36, 84
19, 39601, Note_on_c, 9, 36, 0
19, 39840, Note_on_c, 9, 36, 80
19, 39841, Note_on_c, 9, 36, 0
19, 40080, Note_on_c, 9, 36, 84
19, 40081, Note_on_c, 9, 36, 0
19, 40320, Note_on_c, 9, 36, 80
19, 40321, Note_on_c, 9, 36, 0
19, 40560, Note_on_c, 9, 36, 84
19, 40561, Note_on_c, 9, 36, 0
19, 40800, Note_on_c, 9, 36, 80
19, 40801, Note_on_c, 9, 36, 0
19, 41040, Note_on_c, 9, 36, 84
19, 41041, Note_on_c, 9, 36, 0
19, 41280, Note_on_c, 9, 36, 80
19, 41281, Note_on_c, 9, 36, 0
19, 41520, Note_on_c, 9, 36, 84
19, 41521, Note_on_c, 9, 36, 0
19, 41760, Note_on_c, 9, 36, 80
19, 41761, Note_on_c, 9, 36, 0
19, 42000, Note_on_c, 9, 36, 84
19, 42001, Note_on_c, 9, 36, 0
19, 42240, Note_on_c, 9, 36, 80
19, 42241, Note_on_c, 9, 36, 0
19, 42480, Note_on_c, 9, 36, 84
19, 42481, Note_on_c, 9, 36, 0
19, 42720, Note_on_c, 9, 36, 80
19, 42721, Note_on_c, 9, 36, 0
19, 42960, Note_on_c, 9, 36, 84
19, 42961, Note_on_c, 9, 36, 0
19, 43200, Note_on_c, 9, 36, 80
19, 43201, Note_on_c, 9, 36, 0
19, 43440, Note_on_c, 9, 36, 84
19, 43441, Note_on_c, 9, 36, 0
19, 43680, Note_on_c, 9, 36, 80
19, 43681, Note_on_c, 9, 36, 0
19, 43920, Note_on_c, 9, 36, 84
19, 43921, Note_on_c, 9, 36, 0
19, 44160, Note_on_c, 9, 36, 80
19, 44161, Note_on_c, 9, 36, 0
19, 44400, Note_on_c, 9, 36, 84
19, 44401, Note_on_c, 9, 36, 0
19, 44640, Note_on_c, 9, 36, 80
19, 44641, Note_on_c, 9, 36, 0
19, 44880, Note_on_c, 9, 36, 84
19, 44881, Note_on_c, 9, 36, 0
19, 45120, Note_on_c, 9, 36, 80
19, 45121, Note_on_c, 9, 36, 0
19, 45360, Note_on_c, 9, 36, 84
19, 45361, Note_on_c, 9, 36, 0
19, 45600, Note_on_c, 9, 36, 80
19, 45601, Note_on_c, 9, 36, 0
19, 45840, Note_on_c, 9, 36, 84
19, 45841, Note_on_c, 9, 36, 0
19, 46080, Note_on_c, 9, 36, 80
19, 46081, Note_on_c, 9, 36, 0
19, 46320, Note_on_c, 9, 36, 84
19, 46321, Note_on_c, 9, 36, 0
19, 46560, Note_on_c, 9, 36, 80
19, 46561, Note_on_c, 9, 36, 0
19, 46800, Note_on_c, 9, 36, 84
19, 46801, Note_on_c, 9, 36, 0
19, 47040, Note_on_c, 9, 36, 80
19, 47041, Note_on_c, 9, 36, 0
19, 47280, Note_on_c, 9, 36, 84
19, 47281, Note_on_c, 9, 36, 0
19, 47520, Note_on_c, 9, 36, 80
19, 47521, Note_on_c, 9, 36, 0
19, 47760, Note_on_c, 9, 36, 84
19, 47761, Note_on_c, 9, 36, 0
19, 48000, Note_on_c, 9, 36, 80
19, 48001, Note_on_c, 9, 36, 0
19, 48240, Note_on_c, 9, 36, 84
19, 48241, Note_on_c, 9, 36, 0
19, 48480, Note_on_c, 9, 36, 80
19, 48481, Note_on_c, 9, 36, 0
19, 48720, Note_on_c, 9, 36, 84
19, 48721, Note_on_c, 9, 36, 0
19, 48960, Note_on_c, 9, 36, 80
19, 48961, Note_on_c, 9, 36, 0
19, 49200, Note_on_c, 9, 36, 84
19, 49201, Note_on_c, 9, 36, 0
19, 49440, Note_on_c, 9, 36, 80
19, 49441, Note_on_c, 9, 36, 0
19, 49680, Note_on_c, 9, 36, 84
19, 49681, Note_on_c, 9, 36, 0
19, 49920, Note_on_c, 9, 36, 80
19, 49921, Note_on_c, 9, 36, 0
19, 50160, Note_on_c, 9, 36, 84
19, 50161, Note_on_c, 9, 36, 0
19, 50400, Note_on_c, 9, 36, 80
19, 50401, Note_on_c, 9, 36, 0
19, 50640, Note_on_c, 9, 36, 84
19, 50641, Note_on_c, 9, 36, 0
19, 50880, Note_on_c, 9, 36, 80
19, 50881, Note_on_c, 9, 36, 0
19, 51120, Note_on_c, 9, 36, 84
19, 51121, Note_on_c, 9, 36, 0
19, 51360, Note_on_c, 9, 36, 80
19, 51361, Note_on_c, 9, 36, 0
19, 51600, Note_on_c, 9, 36, 84
19, 51601, Note_on_c, 9, 36, 0
19, 51840, Note_on_c, 9, 36, 80
19, 51841, Note_on_c, 9, 36, 0
19, 52080, Note_on_c, 9, 36, 84
19, 52081, Note_on_c, 9, 36, 0
19, 52320, Note_on_c, 9, 36, 80
19, 52321, Note_on_c, 9, 36, 0
19, 52560, Note_on_c, 9, 36, 84
19, 52561, Note_on_c, 9, 36, 0
19, 52800, Note_on_c, 9, 36, 80
19, 52801, Note_on_c, 9, 36, 0
19, 53040, Note_on_c, 9, 36, 84
19, 53041, Note_on_c, 9, 36, 0
19, 53280, Note_on_c, 9, 36, 80
19, 53281, Note_on_c, 9, 36, 0
19, 53520, Note_on_c, 9, 36, 84
19, 53521, Note_on_c, 9, 36, 0
19, 53760, Note_on_c, 9, 36, 80
19, 53761, Note_on_c, 9, 36, 0
19, 54000, Note_on_c, 9, 36, 84
19, 54001, Note_on_c, 9, 36, 0
19, 54240, Note_on_c, 9, 36, 80
19, 54241, Note_on_c, 9, 36, 0
19, 54480, Note_on_c, 9, 36, 84
19, 54481, Note_on_c, 9, 36, 0
19, 54720, Note_on_c, 9, 36, 80
19, 54721, Note_on_c, 9, 36, 0
19, 54960, Note_on_c, 9, 36, 84
19, 54961, Note_on_c, 9, 36, 0
19, 55200, Note_on_c, 9, 36, 80
19, 55201, Note_on_c, 9, 36, 0
19, 55440, Note_on_c, 9, 36, 84
19, 55441, Note_on_c, 9, 36, 0
19, 55680, Note_on_c, 9, 36, 80
19, 55681, Note_on_c, 9, 36, 0
19, 55920, Note_on_c, 9, 36, 84
19, 55921, Note_on_c, 9, 36, 0
19, 56160, Note_on_c, 9, 36, 80
19, 56161, Note_on_c, 9, 36, 0
19, 56400, Note_on_c, 9, 36, 84
19, 56401, Note_on_c, 9, 36, 0
19, 56640, Note_on_c, 9, 36, 80
19, 56641, Note_on_c, 9, 36, 0
19, 56880, Note_on_c, 9, 36, 84
19, 56881, Note_on_c, 9, 36, 0
19, 57120, Note_on_c, 9, 36, 80
19, 57121, Note_on_c, 9, 36, 0
19, 57360, Note_on_c, 9, 36, 84
19, 57361, Note_on_c, 9, 36, 0
19, 57600, Note_on_c, 9, 36, 80
19, 57601, Note_on_c, 9, 36, 0
19, 57840, Note_on_c, 9, 36, 84
19, 57841, Note_on_c, 9, 36, 0
19, 58080, Note_on_c, 9, 36, 80
19, 58081, Note_on_c, 9, 36, 0
19, 58320, Note_on_c, 9, 36, 84
19, 58321, Note_on_c, 9, 36, 0
19, 58560, Note_on_c, 9, 36, 80
19, 58561, Note_on_c, 9, 36, 0
19, 58800, Note_on_c, 9, 36, 84
19, 58801, Note_on_c, 9, 36, 0
19, 59040, Note_on_c, 9, 36, 80
19, 59041, Note_on_c, 9, 36, 0
19, 59280, Note_on_c, 9, 36, 84
19, 59281, Note_on_c, 9, 36, 0
19, 59520, Note_on_c, 9, 36, 80
19, 59521, Note_on_c, 9, 36, 0
19, 59760, Note_on_c, 9, 36, 84
19, 59761, Note_on_c, 9, 36, 0
19, 60000, Note_on_c, 9, 36, 80
19, 60001, Note_on_c, 9, 36, 0
19, 60240, Note_on_c, 9, 36, 84
19, 60241, Note_on_c, 9, 36, 0
19, 60480, Note_on_c, 9, 36, 80
19, 60481, Note_on_c, 9, 36, 0
19, 60720, Note_on_c, 9, 36, 84
19, 60721, Note_on_c, 9, 36, 0
19, 60960, Note_on_c, 9, 36, 80
19, 60961, Note_on_c, 9, 36, 0
19, 61200, Note_on_c, 9, 36, 84
19, 61201, Note_on_c, 9, 36, 0
19, 61440, Note_on_c, 9, 36, 80
19, 61441, Note_on_c, 9, 36, 0
19, 61680, Note_on_c, 9, 36, 84
19, 61681, Note_on_c, 9, 36, 0
19, 61920, Note_on_c, 9, 36, 80
19, 61921, Note_on_c, 9, 36, 0
19, 62160, Note_on_c, 9, 36, 84
19, 62161, Note_on_c, 9, 36, 0
19, 62400, Note_on_c, 9, 36, 80
19, 62401, Note_on_c, 9, 36, 0
19, 62640, Note_on_c, 9, 36, 84
19, 62641, Note_on_c, 9, 36, 0
19, 62880, Note_on_c, 9, 36, 80
19, 62881, Note_on_c, 9, 36, 0
19, 63120, Note_on_c, 9, 36, 84
19, 63121, Note_on_c, 9, 36, 0
19, 63360, Note_on_c, 9, 36, 80
19, 63361, Note_on_c, 9, 36, 0
19, 63600, Note_on_c, 9, 36, 84
19, 63601, Note_on_c, 9, 36, 0
19, 63840, Note_on_c, 9, 36, 80
19, 63841, Note_on_c, 9, 36, 0
19, 64080, Note_on_c, 9, 36, 84
19, 64081, Note_on_c, 9, 36, 0
19, 64320, Note_on_c, 9, 36, 80
19, 64321, Note_on_c, 9, 36, 0
19, 64560, Note_on_c, 9, 36, 84
19, 64561, Note_on_c, 9, 36, 0
19, 64800, Note_on_c, 9, 36, 80
19, 64801, Note_on_c, 9, 36, 0
19, 65040, Note_on_c, 9, 36, 84
19, 65041, Note_on_c, 9, 36, 0
19, 65280, Note_on_c, 9, 36, 80
19, 65281, Note_on_c, 9, 36, 0
19, 65520, Note_on_c, 9, 36, 84
19, 65521, Note_on_c, 9, 36, 0
19, 65760, Note_on_c, 9, 36, 80
19, 65761, Note_on_c, 9, 36, 0
19, 66000, Note_on_c, 9, 36, 84
19, 66001, Note_on_c, 9, 36, 0
19, 66240, Note_on_c, 9, 36, 80
19, 66241, Note_on_c, 9, 36, 0
19, 66480, Note_on_c, 9, 36, 84
19, 66481, Note_on_c, 9, 36, 0
19, 66720, Note_on_c, 9, 36, 78
19, 66721, Note_on_c, 9, 36, 0
19, 66960, Note_on_c, 9, 36, 79
19, 66961, Note_on_c, 9, 36, 0
19, 67200, Note_on_c, 9, 36, 75
19, 67201, Note_on_c, 9, 36, 0
19, 67440, Note_on_c, 9, 36, 75
19, 67441, Note_on_c, 9, 36, 0
19, 67680, Note_on_c, 9, 36, 71
19, 67681, Note_on_c, 9, 36, 0
19, 67920, Note_on_c, 9, 36, 72
19, 67921, Note_on_c, 9, 36, 0
19, 68160, Note_on_c, 9, 36, 66
19, 68161, Note_on_c, 9, 36, 0
19, 68400, Note_on_c, 9, 36, 66
19, 68401, Note_on_c, 9, 36, 0
19, 68640, Note_on_c, 9, 36, 62
19, 68641, Note_on_c, 9, 36, 0
19, 68880, Note_on_c, 9, 36, 63
19, 68881, Note_on_c, 9, 36, 0
19, 69120, Note_on_c, 9, 36, 59
19, 69121, Note_on_c, 9, 36, 0
19, 69360, Note_on_c, 9, 36, 60
19, 69361, Note_on_c, 9, 36, 0
19, 69600, Note_on_c, 9, 36, 54
19, 69601, Note_on_c, 9, 36, 0
19, 69840, Note_on_c, 9, 36, 54
19, 69841, Note_on_c, 9, 36, 0
19, 70080, Note_on_c, 9, 36, 50
19, 70081, Note_on_c, 9, 36, 0
19, 70320, Note_on_c, 9, 36, 50
19, 70321, Note_on_c, 9, 36, 0
19, 70560, Note_on_c, 9, 36, 47
19, 70561, Note_on_c, 9, 36, 0
19, 70800, Note_on_c, 9, 36, 47
19, 70801, Note_on_c, 9, 36, 0
19, 71040, Note_on_c, 9, 36, 44
19, 71041, Note_on_c, 9, 36, 0
19, 71280, Note_on_c, 9, 36, 43
19, 71281, Note_on_c, 9, 36, 0
19, 71520, Note_on_c, 9, 36, 39
19, 71521, Note_on_c, 9, 36, 0
19, 71760, Note_on_c, 9, 36, 37
19, 71761, Note_on_c, 9, 36, 0
19, 72000, Note_on_c, 9, 36, 35
19, 72001, Note_on_c, 9, 36, 0
19, 72240, Note_on_c, 9, 36, 34
19, 72241, Note_on_c, 9, 36, 0
19, 72480, Note_on_c, 9, 36, 31
19, 72481, Note_on_c, 9, 36, 0
19, 72720, Note_on_c, 9, 36, 30
19, 72721, Note_on_c, 9, 36, 0
19, 72960, Note_on_c, 9, 36, 26
19, 72961, Note_on_c, 9, 36, 0
19, 73200, Note_on_c, 9, 36, 26
19, 73201, Note_on_c, 9, 36, 0
19, 73440, Note_on_c, 9, 36, 23
19, 73441, Note_on_c, 9, 36, 0
19, 73680, Note_on_c, 9, 36, 22
19, 73681, Note_on_c, 9, 36, 0
19, 73920, Note_on_c, 9, 36, 17
19, 73921, Note_on_c, 9, 36, 0
19, 74160, Note_on_c, 9, 36, 12
19, 74161, Note_on_c, 9, 36, 0
19, 74400, Note_on_c, 9, 36, 8
19, 74401, Note_on_c, 9, 36, 0
19, 74640, Note_on_c, 9, 36, 5
19, 74641, Note_on_c, 9, 36, 0
19, 74880, Note_on_c, 9, 36, 3
19, 74881, Note_on_c, 9, 36, 0
19, 75120, Note_on_c, 9, 36, 1
19, 75121, Note_on_c, 9, 36, 0
19, 75121, End_track
20, 0, Start_track
20, 165, Control_c, 9, 0, 0
20, 166, Control_c, 9, 32, 3
20, 167, Program_c, 9, 0
20, 3342, Note_on_c, 9, 38, 60
20, 3343, Note_on_c, 9, 38, 0
20, 3480, Note_on_c, 9, 38, 42
20, 3481, Note_on_c, 9, 38, 0
20, 3960, Note_on_c, 9, 38, 56
20, 3961, Note_on_c, 9, 38, 0
20, 4440, Note_on_c, 9, 38, 56
20, 4441, Note_on_c, 9, 38, 0
20, 4920, Note_on_c, 9, 38, 56
20, 4921, Note_on_c, 9, 38, 0
20, 5400, Note_on_c, 9, 38, 56
20, 5401, Note_on_c, 9, 38, 0
20, 5880, Note_on_c, 9, 38, 56
20, 5881, Note_on_c, 9, 38, 0
20, 6360, Note_on_c, 9, 38, 56
20, 6361, Note_on_c, 9, 38, 0
20, 6840, Note_on_c, 9, 38, 56
20, 6841, Note_on_c, 9, 38, 0
20, 7320, Note_on_c, 9, 38, 56
20, 7321, Note_on_c, 9, 38, 0
20, 7800, Note_on_c, 9, 38, 56
20, 7801, Note_on_c, 9, 38, 0
20, 7980, Note_on_c, 9, 38, 48
20, 7981, Note_on_c, 9, 38, 0
20, 8010, Note_on_c, 9, 38, 63
20, 8011, Note_on_c, 9, 38, 0
20, 8040, Note_on_c, 9, 38, 48
20, 8041, Note_on_c, 9, 38, 0
20, 8070, Note_on_c, 9, 38, 66
20, 8071, Note_on_c, 9, 38, 0
20, 8100, Note_on_c, 9, 38, 68
20, 8101, Note_on_c, 9, 38, 0
20, 8130, Note_on_c, 9, 38, 54
20, 8131, Note_on_c, 9, 38, 0
20, 8280, Note_on_c, 9, 38, 56
20, 8281, Note_on_c, 9, 38, 0
20, 8760, Note_on_c, 9, 38, 56
20, 8761, Note_on_c, 9, 38, 0
20, 9240, Note_on_c, 9, 38, 56
20, 9241, Note_on_c, 9, 38, 0
20, 9720, Note_on_c, 9, 38, 56
20, 9721, Note_on_c, 9, 38, 0
20, 9900, Note_on_c, 9, 38, 46
20, 9901, Note_on_c, 9, 38, 0
20, 9960, Note_on_c, 9, 38, 58
20, 9961, Note_on_c, 9, 38, 0
20, 9990, Note_on_c, 9, 38, 59
20, 9991, Note_on_c, 9, 38, 0
20, 10020, Note_on_c, 9, 38, 65
20, 10021, Note_on_c, 9, 38, 0
20, 10050, Note_on_c, 9, 38, 76
20, 10051, Note_on_c, 9, 38, 0
20, 10200, Note_on_c, 9, 38, 75
20, 10201, Note_on_c, 9, 38, 0
20, 10440, Note_on_c, 9, 38, 76
20, 10441, Note_on_c, 9, 38, 0
20, 10680, Note_on_c, 9, 38, 75
20, 10681, Note_on_c, 9, 38, 0
20, 10920, Note_on_c, 9, 38, 76
20, 10921, Note_on_c, 9, 38, 0
20, 11160, Note_on_c, 9, 38, 75
20, 11161, Note_on_c, 9, 38, 0
20, 11400, Note_on_c, 9, 38, 76
20, 11401, Note_on_c, 9, 38, 0
20, 11640, Note_on_c, 9, 38, 75
20, 11641, Note_on_c, 9, 38, 0
20, 11880, Note_on_c, 9, 38, 76
20, 11881, Note_on_c, 9, 38, 0
20, 11940, Note_on_c, 9, 38, 62
20, 11941, Note_on_c, 9, 38, 0
20, 12120, Note_on_c, 9, 38, 75
20, 12121, Note_on_c, 9, 38, 0
20, 12360, Note_on_c, 9, 38, 76
20, 12361, Note_on_c, 9, 38, 0
20, 12600, Note_on_c, 9, 38, 75
20, 12601, Note_on_c, 9, 38, 0
20, 12840, Note_on_c, 9, 38, 76
20, 12841, Note_on_c, 9, 38, 0
20, 13080, Note_on_c, 9, 38, 75
20, 13081, Note_on_c, 9, 38, 0
20, 13320, Note_on_c, 9, 38, 76
20, 13321, Note_on_c, 9, 38, 0
20, 13560, Note_on_c, 9, 38, 75
20, 13561, Note_on_c, 9, 38, 0
20, 13800, Note_on_c, 9, 38, 76
20, 13801, Note_on_c, 9, 38, 0
20, 13860, Note_on_c, 9, 38, 62
20, 13861, Note_on_c, 9, 38, 0
20, 14040, Note_on_c, 9, 38, 75
20, 14041, Note_on_c, 9, 38, 0
20, 14280, Note_on_c, 9, 38, 76
20, 14281, Note_on_c, 9, 38, 0
20, 14520, Note_on_c, 9, 38, 75
20, 14521, Note_on_c, 9, 38, 0
20, 14760, Note_on_c, 9, 38, 76
20, 14761, Note_on_c, 9, 38, 0
20, 15000, Note_on_c, 9, 38, 75
20, 15001, Note_on_c, 9, 38, 0
20, 15240, Note_on_c, 9, 38, 76
20, 15241, Note_on_c, 9, 38, 0
20, 15480, Note_on_c, 9, 38, 75
20, 15481, Note_on_c, 9, 38, 0
20, 15720, Note_on_c, 9, 38, 76
20, 15721, Note_on_c, 9, 38, 0
20, 15780, Note_on_c, 9, 38, 62
20, 15781, Note_on_c, 9, 38, 0
20, 15960, Note_on_c, 9, 38, 56
20, 15961, Note_on_c, 9, 38, 0
20, 16440, Note_on_c, 9, 38, 56
20, 16441, Note_on_c, 9, 38, 0
20, 16920, Note_on_c, 9, 38, 56
20, 16921, Note_on_c, 9, 38, 0
20, 17400, Note_on_c, 9, 38, 42
20, 17401, Note_on_c, 9, 38, 0
20, 17880, Note_on_c, 9, 38, 56
20, 17881, Note_on_c, 9, 38, 0
20, 18360, Note_on_c, 9, 38, 56
20, 18361, Note_on_c, 9, 38, 0
20, 18840, Note_on_c, 9, 38, 56
20, 18841, Note_on_c, 9, 38, 0
20, 19320, Note_on_c, 9, 38, 56
20, 19321, Note_on_c, 9, 38, 0
20, 19800, Note_on_c, 9, 38, 56
20, 19801, Note_on_c, 9, 38, 0
20, 20280, Note_on_c, 9, 38, 56
20, 20281, Note_on_c, 9, 38, 0
20, 20760, Note_on_c, 9, 38, 56
20, 20761, Note_on_c, 9, 38, 0
20, 21240, Note_on_c, 9, 38, 56
20, 21241, Note_on_c, 9, 38, 0
20, 21720, Note_on_c, 9, 38, 56
20, 21721, Note_on_c, 9, 38, 0
20, 21900, Note_on_c, 9, 38, 58
20, 21901, Note_on_c, 9, 38, 0
20, 21930, Note_on_c, 9, 38, 61
20, 21931, Note_on_c, 9, 38, 0
20, 21960, Note_on_c, 9, 38, 65
20, 21961, Note_on_c, 9, 38, 0
20, 21990, Note_on_c, 9, 38, 69
20, 21991, Note_on_c, 9, 38, 0
20, 22020, Note_on_c, 9, 38, 73
20, 22021, Note_on_c, 9, 38, 0
20, 22050, Note_on_c, 9, 38, 64
20, 22051, Note_on_c, 9, 38, 0
20, 22200, Note_on_c, 9, 38, 56
20, 22201, Note_on_c, 9, 38, 0
20, 22680, Note_on_c, 9, 38, 56
20, 22681, Note_on_c, 9, 38, 0
20, 23160, Note_on_c, 9, 38, 56
20, 23161, Note_on_c, 9, 38, 0
20, 23640, Note_on_c, 9, 38, 56
20, 23641, Note_on_c, 9, 38, 0
20, 23820, Note_on_c, 9, 38, 46
20, 23821, Note_on_c, 9, 38, 0
20, 23880, Note_on_c, 9, 38, 57
20, 23881, Note_on_c, 9, 38, 0
20, 23910, Note_on_c, 9, 38, 59
20, 23911, Note_on_c, 9, 38, 0
20, 23940, Note_on_c, 9, 38, 62
20, 23941, Note_on_c, 9, 38, 0
20, 23970, Note_on_c, 9, 38, 68
20, 23971, Note_on_c, 9, 38, 0
20, 24120, Note_on_c, 9, 38, 75
20, 24121, Note_on_c, 9, 38, 0
20, 24360, Note_on_c, 9, 38, 76
20, 24361, Note_on_c, 9, 38, 0
20, 24600, Note_on_c, 9, 38, 75
20, 24601, Note_on_c, 9, 38, 0
20, 24840, Note_on_c, 9, 38, 76
20, 24841, Note_on_c, 9, 38, 0
20, 25080, Note_on_c, 9, 38, 75
20, 25081, Note_on_c, 9, 38, 0
20, 25320, Note_on_c, 9, 38, 76
20, 25321, Note_on_c, 9, 38, 0
20, 25560, Note_on_c, 9, 38, 75
20, 25561, Note_on_c, 9, 38, 0
20, 25800, Note_on_c, 9, 38, 76
20, 25801, Note_on_c, 9, 38, 0
20, 25860, Note_on_c, 9, 38, 62
20, 25861, Note_on_c, 9, 38, 0
20, 26040, Note_on_c, 9, 38, 75
20, 26041, Note_on_c, 9, 38, 0
20, 26280, Note_on_c, 9, 38, 76
20, 26281, Note_on_c, 9, 38, 0
20, 26520, Note_on_c, 9, 38, 75
20, 26521, Note_on_c, 9, 38, 0
20, 26760, Note_on_c, 9, 38, 76
20, 26761, Note_on_c, 9, 38, 0
20, 27000, Note_on_c, 9, 38, 75
20, 27001, Note_on_c, 9, 38, 0
20, 27240, Note_on_c, 9, 38, 76
20, 27241, Note_on_c, 9, 38, 0
20, 27480, Note_on_c, 9, 38, 75
20, 27481, Note_on_c, 9, 38, 0
20, 27720, Note_on_c, 9, 38, 76
20, 27721, Note_on_c, 9, 38, 0
20, 27780, Note_on_c, 9, 38, 62
20, 27781, Note_on_c, 9, 38, 0
20, 27960, Note_on_c, 9, 38, 75
20, 27961, Note_on_c, 9, 38, 0
20, 28200, Note_on_c, 9, 38, 76
20, 28201, Note_on_c, 9, 38, 0
20, 28440, Note_on_c, 9, 38, 75
20, 28441, Note_on_c, 9, 38, 0
20, 28680, Note_on_c, 9, 38, 76
20, 28681, Note_on_c, 9, 38, 0
20, 28920, Note_on_c, 9, 38, 75
20, 28921, Note_on_c, 9, 38, 0
20, 29160, Note_on_c, 9, 38, 76
20, 29161, Note_on_c, 9, 38, 0
20, 29400, Note_on_c, 9, 38, 75
20, 29401, Note_on_c, 9, 38, 0
20, 29580, Note_on_c, 9, 38, 58
20, 29581, Note_on_c, 9, 38, 0
20, 29640, Note_on_c, 9, 38, 71
20, 29641, Note_on_c, 9, 38, 0
20, 29670, Note_on_c, 9, 38, 71
20, 29671, Note_on_c, 9, 38, 0
20, 29700, Note_on_c, 9, 38, 62
20, 29701, Note_on_c, 9, 38, 0
20, 29730, Note_on_c, 9, 38, 62
20, 29731, Note_on_c, 9, 38, 0
20, 29880, Note_on_c, 9, 38, 69
20, 29881, Note_on_c, 9, 38, 0
20, 30120, Note_on_c, 9, 38, 73
20, 30121, Note_on_c, 9, 38, 0
20, 30360, Note_on_c, 9, 38, 70
20, 30361, Note_on_c, 9, 38, 0
20, 30600, Note_on_c, 9, 38, 78
20, 30601, Note_on_c, 9, 38, 0
20, 30840, Note_on_c, 9, 38, 69
20, 30841, Note_on_c, 9, 38, 0
20, 31080, Note_on_c, 9, 38, 75
20, 31081, Note_on_c, 9, 38, 0
20, 31320, Note_on_c, 9, 38, 76
20, 31321, Note_on_c, 9, 38, 0
20, 31500, Note_on_c, 9, 38, 78
20, 31501, Note_on_c, 9, 38, 0
20, 31560, Note_on_c, 9, 38, 65
20, 31561, Note_on_c, 9, 38, 0
20, 31590, Note_on_c, 9, 38, 78
20, 31591, Note_on_c, 9, 38, 0
20, 31620, Note_on_c, 9, 38, 62
20, 31621, Note_on_c, 9, 38, 0
20, 31650, Note_on_c, 9, 38, 66
20, 31651, Note_on_c, 9, 38, 0
20, 31800, Note_on_c, 9, 38, 68
20, 31801, Note_on_c, 9, 38, 0
20, 32043, Note_on_c, 9, 38, 72
20, 32044, Note_on_c, 9, 38, 0
20, 32280, Note_on_c, 9, 38, 72
20, 32281, Note_on_c, 9, 38, 0
20, 32520, Note_on_c, 9, 38, 78
20, 32521, Note_on_c, 9, 38, 0
20, 32760, Note_on_c, 9, 38, 73
20, 32761, Note_on_c, 9, 38, 0
20, 32996, Note_on_c, 9, 38, 69
20, 32997, Note_on_c, 9, 38, 0
20, 33240, Note_on_c, 9, 38, 69
20, 33241, Note_on_c, 9, 38, 0
20, 33480, Note_on_c, 9, 38, 73
20, 33481, Note_on_c, 9, 38, 0
20, 33720, Note_on_c, 9, 38, 70
20, 33721, Note_on_c, 9, 38, 0
20, 33963, Note_on_c, 9, 38, 73
20, 33964, Note_on_c, 9, 38, 0
20, 34200, Note_on_c, 9, 38, 66
20, 34201, Note_on_c, 9, 38, 0
20, 34440, Note_on_c, 9, 38, 73
20, 34441, Note_on_c, 9, 38, 0
20, 34680, Note_on_c, 9, 38, 66
20, 34681, Note_on_c, 9, 38, 0
20, 34923, Note_on_c, 9, 38, 73
20, 34924, Note_on_c, 9, 38, 0
20, 35160, Note_on_c, 9, 38, 69
20, 35161, Note_on_c, 9, 38, 0
20, 35400, Note_on_c, 9, 38, 73
20, 35401, Note_on_c, 9, 38, 0
20, 35640, Note_on_c, 9, 38, 71
20, 35641, Note_on_c, 9, 38, 0
20, 35820, Note_on_c, 9, 38, 54
20, 35821, Note_on_c, 9, 38, 0
20, 35850, Note_on_c, 9, 38, 42
20, 35851, Note_on_c, 9, 38, 0
20, 35880, Note_on_c, 9, 38, 58
20, 35881, Note_on_c, 9, 38, 0
20, 35910, Note_on_c, 9, 38, 59
20, 35911, Note_on_c, 9, 38, 0
20, 35940, Note_on_c, 9, 38, 74
20, 35941, Note_on_c, 9, 38, 0
20, 35970, Note_on_c, 9, 38, 85
20, 35971, Note_on_c, 9, 38, 0
20, 36120, Note_on_c, 9, 38, 60
20, 36121, Note_on_c, 9, 38, 0
20, 36356, Note_on_c, 9, 38, 73
20, 36357, Note_on_c, 9, 38, 0
20, 36600, Note_on_c, 9, 38, 65
20, 36601, Note_on_c, 9, 38, 0
20, 36843, Note_on_c, 9, 38, 66
20, 36844, Note_on_c, 9, 38, 0
20, 37080, Note_on_c, 9, 38, 56
20, 37081, Note_on_c, 9, 38, 0
20, 37320, Note_on_c, 9, 38, 73
20, 37321, Note_on_c, 9, 38, 0
20, 37560, Note_on_c, 9, 38, 68
20, 37561, Note_on_c, 9, 38, 0
20, 37740, Note_on_c, 9, 38, 60
20, 37741, Note_on_c, 9, 38, 0
20, 37800, Note_on_c, 9, 38, 65
20, 37801, Note_on_c, 9, 38, 0
20, 37830, Note_on_c, 9, 38, 66
20, 37831, Note_on_c, 9, 38, 0
20, 37860, Note_on_c, 9, 38, 77
20, 37861, Note_on_c, 9, 38, 0
20, 37890, Note_on_c, 9, 38, 74
20, 37891, Note_on_c, 9, 38, 0
20, 38040, Note_on_c, 9, 38, 75
20, 38041, Note_on_c, 9, 38, 0
20, 38280, Note_on_c, 9, 38, 76
20, 38281, Note_on_c, 9, 38, 0
20, 38520, Note_on_c, 9, 38, 75
20, 38521, Note_on_c, 9, 38, 0
20, 38760, Note_on_c, 9, 38, 76
20, 38761, Note_on_c, 9, 38, 0
20, 39000, Note_on_c, 9, 38, 75
20, 39001, Note_on_c, 9, 38, 0
20, 39240, Note_on_c, 9, 38, 76
20, 39241, Note_on_c, 9, 38, 0
20, 39480, Note_on_c, 9, 38, 75
20, 39481, Note_on_c, 9, 38, 0
20, 39720, Note_on_c, 9, 38, 76
20, 39721, Note_on_c, 9, 38, 0
20, 39780, Note_on_c, 9, 38, 62
20, 39781, Note_on_c, 9, 38, 0
20, 39960, Note_on_c, 9, 38, 75
20, 39961, Note_on_c, 9, 38, 0
20, 40200, Note_on_c, 9, 38, 76
20, 40201, Note_on_c, 9, 38, 0
20, 40440, Note_on_c, 9, 38, 75
20, 40441, Note_on_c, 9, 38, 0
20, 40680, Note_on_c, 9, 38, 76
20, 40681, Note_on_c, 9, 38, 0
20, 40920, Note_on_c, 9, 38, 75
20, 40921, Note_on_c, 9, 38, 0
20, 41160, Note_on_c, 9, 38, 76
20, 41161, Note_on_c, 9, 38, 0
20, 41400, Note_on_c, 9, 38, 75
20, 41401, Note_on_c, 9, 38, 0
20, 41640, Note_on_c, 9, 38, 76
20, 41641, Note_on_c, 9, 38, 0
20, 41700, Note_on_c, 9, 38, 62
20, 41701, Note_on_c, 9, 38, 0
20, 41880, Note_on_c, 9, 38, 75
20, 41881, Note_on_c, 9, 38, 0
20, 42120, Note_on_c, 9, 38, 76
20, 42121, Note_on_c, 9, 38, 0
20, 42360, Note_on_c, 9, 38, 75
20, 42361, Note_on_c, 9, 38, 0
20, 42600, Note_on_c, 9, 38, 76
20, 42601, Note_on_c, 9, 38, 0
20, 42840, Note_on_c, 9, 38, 75
20, 42841, Note_on_c, 9, 38, 0
20, 43080, Note_on_c, 9, 38, 76
20, 43081, Note_on_c, 9, 38, 0
20, 43320, Note_on_c, 9, 38, 75
20, 43321, Note_on_c, 9, 38, 0
20, 43560, Note_on_c, 9, 38, 76
20, 43561, Note_on_c, 9, 38, 0
20, 43620, Note_on_c, 9, 38, 62
20, 43621, Note_on_c, 9, 38, 0
20, 43800, Note_on_c, 9, 38, 75
20, 43801, Note_on_c, 9, 38, 0
20, 44040, Note_on_c, 9, 38, 76
20, 44041, Note_on_c, 9, 38, 0
20, 44280, Note_on_c, 9, 38, 75
20, 44281, Note_on_c, 9, 38, 0
20, 44520, Note_on_c, 9, 38, 76
20, 44521, Note_on_c, 9, 38, 0
20, 44760, Note_on_c, 9, 38, 75
20, 44761, Note_on_c, 9, 38, 0
20, 45000, Note_on_c, 9, 38, 76
20, 45001, Note_on_c, 9, 38, 0
20, 45240, Note_on_c, 9, 38, 75
20, 45241, Note_on_c, 9, 38, 0
20, 45480, Note_on_c, 9, 38, 76
20, 45481, Note_on_c, 9, 38, 0
20, 45720, Note_on_c, 9, 38, 66
20, 45721, Note_on_c, 9, 38, 0
20, 45960, Note_on_c, 9, 38, 66
20, 45961, Note_on_c, 9, 38, 0
20, 46200, Note_on_c, 9, 38, 70
20, 46201, Note_on_c, 9, 38, 0
20, 46440, Note_on_c, 9, 38, 70
20, 46441, Note_on_c, 9, 38, 0
20, 46680, Note_on_c, 9, 38, 70
20, 46681, Note_on_c, 9, 38, 0
20, 46920, Note_on_c, 9, 38, 71
20, 46921, Note_on_c, 9, 38, 0
20, 47160, Note_on_c, 9, 38, 71
20, 47161, Note_on_c, 9, 38, 0
20, 47400, Note_on_c, 9, 38, 66
20, 47401, Note_on_c, 9, 38, 0
20, 47640, Note_on_c, 9, 38, 66
20, 47641, Note_on_c, 9, 38, 0
20, 47880, Note_on_c, 9, 38, 66
20, 47881, Note_on_c, 9, 38, 0
20, 48120, Note_on_c, 9, 38, 70
20, 48121, Note_on_c, 9, 38, 0
20, 48360, Note_on_c, 9, 38, 70
20, 48361, Note_on_c, 9, 38, 0
20, 48600, Note_on_c, 9, 38, 70
20, 48601, Note_on_c, 9, 38, 0
20, 48840, Note_on_c, 9, 38, 71
20, 48841, Note_on_c, 9, 38, 0
20, 49080, Note_on_c, 9, 38, 71
20, 49081, Note_on_c, 9, 38, 0
20, 49320, Note_on_c, 9, 38, 66
20, 49321, Note_on_c, 9, 38, 0
20, 49380, Note_on_c, 9, 38, 69
20, 49381, Note_on_c, 9, 38, 0
20, 49410, Note_on_c, 9, 38, 52
20, 49411, Note_on_c, 9, 38, 0
20, 49560, Note_on_c, 9, 38, 66
20, 49561, Note_on_c, 9, 38, 0
20, 49800, Note_on_c, 9, 38, 66
20, 49801, Note_on_c, 9, 38, 0
20, 50040, Note_on_c, 9, 38, 70
20, 50041, Note_on_c, 9, 38, 0
20, 50280, Note_on_c, 9, 38, 70
20, 50281, Note_on_c, 9, 38, 0
20, 50520, Note_on_c, 9, 38, 70
20, 50521, Note_on_c, 9, 38, 0
20, 50760, Note_on_c, 9, 38, 71
20, 50761, Note_on_c, 9, 38, 0
20, 51000, Note_on_c, 9, 38, 71
20, 51001, Note_on_c, 9, 38, 0
20, 51240, Note_on_c, 9, 38, 66
20, 51241, Note_on_c, 9, 38, 0
20, 51480, Note_on_c, 9, 38, 66
20, 51481, Note_on_c, 9, 38, 0
20, 51720, Note_on_c, 9, 38, 66
20, 51721, Note_on_c, 9, 38, 0
20, 51960, Note_on_c, 9, 38, 70
20, 51961, Note_on_c, 9, 38, 0
20, 52200, Note_on_c, 9, 38, 70
20, 52201, Note_on_c, 9, 38, 0
20, 52440, Note_on_c, 9, 38, 70
20, 52441, Note_on_c, 9, 38, 0
20, 52680, Note_on_c, 9, 38, 71
20, 52681, Note_on_c, 9, 38, 0
20, 52920, Note_on_c, 9, 38, 71
20, 52921, Note_on_c, 9, 38, 0
20, 53160, Note_on_c, 9, 38, 66
20, 53161, Note_on_c, 9, 38, 0
20, 53250, Note_on_c, 9, 38, 65
20, 53251, Note_on_c, 9, 38, 0
20, 53400, Note_on_c, 9, 38, 66
20, 53401, Note_on_c, 9, 38, 0
20, 53640, Note_on_c, 9, 38, 66
20, 53641, Note_on_c, 9, 38, 0
20, 53880, Note_on_c, 9, 38, 70
20, 53881, Note_on_c, 9, 38, 0
20, 54120, Note_on_c, 9, 38, 70
20, 54121, Note_on_c, 9, 38, 0
20, 54360, Note_on_c, 9, 38, 70
20, 54361, Note_on_c, 9, 38, 0
20, 54600, Note_on_c, 9, 38, 71
20, 54601, Note_on_c, 9, 38, 0
20, 54840, Note_on_c, 9, 38, 71
20, 54841, Note_on_c, 9, 38, 0
20, 55080, Note_on_c, 9, 38, 66
20, 55081, Note_on_c, 9, 38, 0
20, 55320, Note_on_c, 9, 38, 66
20, 55321, Note_on_c, 9, 38, 0
20, 55560, Note_on_c, 9, 38, 66
20, 55561, Note_on_c, 9, 38, 0
20, 55800, Note_on_c, 9, 38, 70
20, 55801, Note_on_c, 9, 38, 0
20, 56040, Note_on_c, 9, 38, 70
20, 56041, Note_on_c, 9, 38, 0
20, 56280, Note_on_c, 9, 38, 70
20, 56281, Note_on_c, 9, 38, 0
20, 56520, Note_on_c, 9, 38, 71
20, 56521, Note_on_c, 9, 38, 0
20, 56760, Note_on_c, 9, 38, 71
20, 56761, Note_on_c, 9, 38, 0
20, 57000, Note_on_c, 9, 38, 66
20, 57001, Note_on_c, 9, 38, 0
20, 57240, Note_on_c, 9, 38, 66
20, 57241, Note_on_c, 9, 38, 0
20, 57480, Note_on_c, 9, 38, 66
20, 57481, Note_on_c, 9, 38, 0
20, 57720, Note_on_c, 9, 38, 70
20, 57721, Note_on_c, 9, 38, 0
20, 57960, Note_on_c, 9, 38, 70
20, 57961, Note_on_c, 9, 38, 0
20, 58200, Note_on_c, 9, 38, 70
20, 58201, Note_on_c, 9, 38, 0
20, 58440, Note_on_c, 9, 38, 71
20, 58441, Note_on_c, 9, 38, 0
20, 58680, Note_on_c, 9, 38, 71
20, 58681, Note_on_c, 9, 38, 0
20, 58920, Note_on_c, 9, 38, 66
20, 58921, Note_on_c, 9, 38, 0
20, 59160, Note_on_c, 9, 38, 66
20, 59161, Note_on_c, 9, 38, 0
20, 59400, Note_on_c, 9, 38, 66
20, 59401, Note_on_c, 9, 38, 0
20, 59640, Note_on_c, 9, 38, 70
20, 59641, Note_on_c, 9, 38, 0
20, 59880, Note_on_c, 9, 38, 70
20, 59881, Note_on_c, 9, 38, 0
20, 60120, Note_on_c, 9, 38, 70
20, 60121, Note_on_c, 9, 38, 0
20, 60360, Note_on_c, 9, 38, 71
20, 60361, Note_on_c, 9, 38, 0
20, 60600, Note_on_c, 9, 38, 71
20, 60601, Note_on_c, 9, 38, 0
20, 60840, Note_on_c, 9, 38, 66
20, 60841, Note_on_c, 9, 38, 0
20, 61080, Note_on_c, 9, 38, 66
20, 61081, Note_on_c, 9, 38, 0
20, 61320, Note_on_c, 9, 38, 66
20, 61321, Note_on_c, 9, 38, 0
20, 61560, Note_on_c, 9, 38, 70
20, 61561, Note_on_c, 9, 38, 0
20, 61800, Note_on_c, 9, 38, 70
20, 61801, Note_on_c, 9, 38, 0
20, 62040, Note_on_c, 9, 38, 70
20, 62041, Note_on_c, 9, 38, 0
20, 62220, Note_on_c, 9, 38, 78
20, 62221, Note_on_c, 9, 38, 0
20, 62280, Note_on_c, 9, 38, 71
20, 62281, Note_on_c, 9, 38, 0
20, 62520, Note_on_c, 9, 38, 71
20, 62521, Note_on_c, 9, 38, 0
20, 62760, Note_on_c, 9, 38, 66
20, 62761, Note_on_c, 9, 38, 0
20, 62813, Note_on_c, 9, 38, 78
20, 62814, Note_on_c, 9, 38, 0
20, 62833, Note_on_c, 9, 38, 78
20, 62834, Note_on_c, 9, 38, 0
20, 62850, Note_on_c, 9, 38, 78
20, 62851, Note_on_c, 9, 38, 0
20, 63000, Note_on_c, 9, 38, 66
20, 63001, Note_on_c, 9, 38, 0
20, 63240, Note_on_c, 9, 38, 66
20, 63241, Note_on_c, 9, 38, 0
20, 63480, Note_on_c, 9, 38, 70
20, 63481, Note_on_c, 9, 38, 0
20, 63720, Note_on_c, 9, 38, 70
20, 63721, Note_on_c, 9, 38, 0
20, 63960, Note_on_c, 9, 38, 70
20, 63961, Note_on_c, 9, 38, 0
20, 64200, Note_on_c, 9, 38, 71
20, 64201, Note_on_c, 9, 38, 0
20, 64440, Note_on_c, 9, 38, 71
20, 64441, Note_on_c, 9, 38, 0
20, 64680, Note_on_c, 9, 38, 66
20, 64681, Note_on_c, 9, 38, 0
20, 64920, Note_on_c, 9, 38, 66
20, 64921, Note_on_c, 9, 38, 0
20, 65160, Note_on_c, 9, 38, 66
20, 65161, Note_on_c, 9, 38, 0
20, 65400, Note_on_c, 9, 38, 70
20, 65401, Note_on_c, 9, 38, 0
20, 65640, Note_on_c, 9, 38, 70
20, 65641, Note_on_c, 9, 38, 0
20, 65880, Note_on_c, 9, 38, 70
20, 65881, Note_on_c, 9, 38, 0
20, 66120, Note_on_c, 9, 38, 71
20, 66121, Note_on_c, 9, 38, 0
20, 66360, Note_on_c, 9, 38, 71
20, 66361, Note_on_c, 9, 38, 0
20, 66600, Note_on_c, 9, 38, 66
20, 66601, Note_on_c, 9, 38, 0
20, 66840, Note_on_c, 9, 38, 64
20, 66841, Note_on_c, 9, 38, 0
20, 67080, Note_on_c, 9, 38, 62
20, 67081, Note_on_c, 9, 38, 0
20, 67320, Note_on_c, 9, 38, 62
20, 67321, Note_on_c, 9, 38, 0
20, 67560, Note_on_c, 9, 38, 62
20, 67561, Note_on_c, 9, 38, 0
20, 67800, Note_on_c, 9, 38, 60
20, 67801, Note_on_c, 9, 38, 0
20, 68040, Note_on_c, 9, 38, 60
20, 68041, Note_on_c, 9, 38, 0
20, 68280, Note_on_c, 9, 38, 58
20, 68281, Note_on_c, 9, 38, 0
20, 68520, Note_on_c, 9, 38, 54
20, 68521, Note_on_c, 9, 38, 0
20, 68760, Note_on_c, 9, 38, 52
20, 68761, Note_on_c, 9, 38, 0
20, 69000, Note_on_c, 9, 38, 49
20, 69001, Note_on_c, 9, 38, 0
20, 69240, Note_on_c, 9, 38, 49
20, 69241, Note_on_c, 9, 38, 0
20, 69480, Note_on_c, 9, 38, 47
20, 69481, Note_on_c, 9, 38, 0
20, 69720, Note_on_c, 9, 38, 45
20, 69721, Note_on_c, 9, 38, 0
20, 69960, Note_on_c, 9, 38, 45
20, 69961, Note_on_c, 9, 38, 0
20, 70200, Note_on_c, 9, 38, 43
20, 70201, Note_on_c, 9, 38, 0
20, 70440, Note_on_c, 9, 38, 40
20, 70441, Note_on_c, 9, 38, 0
20, 70680, Note_on_c, 9, 38, 38
20, 70681, Note_on_c, 9, 38, 0
20, 70920, Note_on_c, 9, 38, 37
20, 70921, Note_on_c, 9, 38, 0
20, 71160, Note_on_c, 9, 38, 36
20, 71161, Note_on_c, 9, 38, 0
20, 71400, Note_on_c, 9, 38, 35
20, 71401, Note_on_c, 9, 38, 0
20, 71640, Note_on_c, 9, 38, 32
20, 71641, Note_on_c, 9, 38, 0
20, 71880, Note_on_c, 9, 38, 31
20, 71881, Note_on_c, 9, 38, 0
20, 72120, Note_on_c, 9, 38, 29
20, 72121, Note_on_c, 9, 38, 0
20, 72360, Note_on_c, 9, 38, 26
20, 72361, Note_on_c, 9, 38, 0
20, 72600, Note_on_c, 9, 38, 25
20, 72601, Note_on_c, 9, 38, 0
20, 72840, Note_on_c, 9, 38, 23
20, 72841, Note_on_c, 9, 38, 0
20, 73080, Note_on_c, 9, 38, 22
20, 73081, Note_on_c, 9, 38, 0
20, 73320, Note_on_c, 9, 38, 21
20, 73321, Note_on_c, 9, 38, 0
20, 73560, Note_on_c, 9, 38, 19
20, 73561, Note_on_c, 9, 38, 0
20, 73800, Note_on_c, 9, 38, 18
20, 73801, Note_on_c, 9, 38, 0
20, 74040, Note_on_c, 9, 38, 11
20, 74041, Note_on_c, 9, 38, 0
20, 74280, Note_on_c, 9, 38, 8
20, 74281, Note_on_c, 9, 38, 0
20, 74520, Note_on_c, 9, 38, 5
20, 74521, Note_on_c, 9, 38, 0
20, 74760, Note_on_c, 9, 38, 2
20, 74761, Note_on_c, 9, 38, 0
20, 75000, Note_on_c, 9, 38, 2
20, 75001, Note_on_c, 9, 38, 0
20, 75001, End_track
21, 0, Start_track
21, 165, Control_c, 9, 0, 0
21, 166, Control_c, 9, 32, 3
21, 167, Program_c, 9, 0
21, 3360, Note_on_c, 9, 40, 68
21, 3361, Note_on_c, 9, 40, 0
21, 3600, Note_on_c, 9, 40, 72
21, 3601, Note_on_c, 9, 40, 0
21, 3720, Note_on_c, 9, 40, 90
21, 3721, Note_on_c, 9, 40, 0
21, 17280, Note_on_c, 9, 40, 68
21, 17281, Note_on_c, 9, 40, 0
21, 17520, Note_on_c, 9, 40, 72
21, 17521, Note_on_c, 9, 40, 0
21, 17640, Note_on_c, 9, 40, 90
21, 17641, Note_on_c, 9, 40, 0
21, 31200, Note_on_c, 9, 40, 68
21, 31201, Note_on_c, 9, 40, 0
21, 31440, Note_on_c, 9, 40, 72
21, 31441, Note_on_c, 9, 40, 0
21, 31560, Note_on_c, 9, 40, 90
21, 31561, Note_on_c, 9, 40, 0
21, 50700, Note_on_c, 9, 40, 83
21, 50701, Note_on_c, 9, 40, 0
21, 53190, Note_on_c, 9, 40, 71
21, 53191, Note_on_c, 9, 40, 0
21, 53220, Note_on_c, 9, 40, 78
21, 53221, Note_on_c, 9, 40, 0
21, 58980, Note_on_c, 9, 40, 88
21, 58981, Note_on_c, 9, 40, 0
21, 60870, Note_on_c, 9, 40, 83
21, 60871, Note_on_c, 9, 40, 0
21, 60900, Note_on_c, 9, 40, 96
21, 60901, Note_on_c, 9, 40, 0
21, 60930, Note_on_c, 9, 40, 83
21, 60931, Note_on_c, 9, 40, 0
21, 64380, Note_on_c, 9, 40, 66
21, 64381, Note_on_c, 9, 40, 0
21, 64500, Note_on_c, 9, 40, 68
21, 64501, Note_on_c, 9, 40, 0
21, 64620, Note_on_c, 9, 40, 73
21, 64621, Note_on_c, 9, 40, 0
21, 64710, Note_on_c, 9, 40, 59
21, 64711, Note_on_c, 9, 40, 0
21, 64740, Note_on_c, 9, 40, 87
21, 64741, Note_on_c, 9, 40, 0
21, 64770, Note_on_c, 9, 40, 64
21, 64771, Note_on_c, 9, 40, 0
21, 69300, Note_on_c, 9, 40, 51
21, 69301, Note_on_c, 9, 40, 0
21, 70350, Note_on_c, 9, 40, 40
21, 70351, Note_on_c, 9, 40, 0
21, 70380, Note_on_c, 9, 40, 50
21, 70381, Note_on_c, 9, 40, 0
21, 70500, Note_on_c, 9, 40, 42
21, 70501, Note_on_c, 9, 40, 0
21, 72390, Note_on_c, 9, 40, 28
21, 72391, Note_on_c, 9, 40, 0
21, 72420, Note_on_c, 9, 40, 37
21, 72421, Note_on_c, 9, 40, 0
21, 72450, Note_on_c, 9, 40, 28
21, 72451, Note_on_c, 9, 40, 0
21, 74790, Note_on_c, 9, 40, 2
21, 74791, Note_on_c, 9, 40, 0
21, 74820, Note_on_c, 9, 40, 3
21, 74821, Note_on_c, 9, 40, 0
21, 74850, Note_on_c, 9, 40, 3
21, 74851, Note_on_c, 9, 40, 0
21, 74851, End_track
22, 0, Start_track
22, 165, Control_c, 9, 0, 0
22, 166, Control_c, 9, 32, 3
22, 167, Program_c, 9, 0
22, 10080, Note_on_c, 9, 42, 79
22, 10081, Note_on_c, 9, 42, 0
22, 10140, Note_on_c, 9, 42, 44
22, 10141, Note_on_c, 9, 42, 0
22, 10200, Note_on_c, 9, 42, 79
22, 10201, Note_on_c, 9, 42, 0
22, 10260, Note_on_c, 9, 42, 60
22, 10261, Note_on_c, 9, 42, 0
22, 10320, Note_on_c, 9, 42, 80
22, 10321, Note_on_c, 9, 42, 0
22, 10380, Note_on_c, 9, 42, 54
22, 10381, Note_on_c, 9, 42, 0
22, 10440, Note_on_c, 9, 42, 82
22, 10441, Note_on_c, 9, 42, 0
22, 10500, Note_on_c, 9, 42, 68
22, 10501, Note_on_c, 9, 42, 0
22, 10560, Note_on_c, 9, 42, 79
22, 10561, Note_on_c, 9, 42, 0
22, 10620, Note_on_c, 9, 42, 44
22, 10621, Note_on_c, 9, 42, 0
22, 10680, Note_on_c, 9, 42, 79
22, 10681, Note_on_c, 9, 42, 0
22, 10740, Note_on_c, 9, 42, 60
22, 10741, Note_on_c, 9, 42, 0
22, 10800, Note_on_c, 9, 42, 80
22, 10801, Note_on_c, 9, 42, 0
22, 10860, Note_on_c, 9, 42, 54
22, 10861, Note_on_c, 9, 42, 0
22, 10920, Note_on_c, 9, 42, 82
22, 10921, Note_on_c, 9, 42, 0
22, 10980, Note_on_c, 9, 42, 68
22, 10981, Note_on_c, 9, 42, 0
22, 11040, Note_on_c, 9, 42, 79
22, 11041, Note_on_c, 9, 42, 0
22, 11100, Note_on_c, 9, 42, 44
22, 11101, Note_on_c, 9, 42, 0
22, 11160, Note_on_c, 9, 42, 79
22, 11161, Note_on_c, 9, 42, 0
22, 11220, Note_on_c, 9, 42, 60
22, 11221, Note_on_c, 9, 42, 0
22, 11280, Note_on_c, 9, 42, 80
22, 11281, Note_on_c, 9, 42, 0
22, 11340, Note_on_c, 9, 42, 54
22, 11341, Note_on_c, 9, 42, 0
22, 11400, Note_on_c, 9, 42, 82
22, 11401, Note_on_c, 9, 42, 0
22, 11460, Note_on_c, 9, 42, 68
22, 11461, Note_on_c, 9, 42, 0
22, 11520, Note_on_c, 9, 42, 79
22, 11521, Note_on_c, 9, 42, 0
22, 11580, Note_on_c, 9, 42, 44
22, 11581, Note_on_c, 9, 42, 0
22, 11640, Note_on_c, 9, 42, 79
22, 11641, Note_on_c, 9, 42, 0
22, 11700, Note_on_c, 9, 42, 60
22, 11701, Note_on_c, 9, 42, 0
22, 11760, Note_on_c, 9, 42, 80
22, 11761, Note_on_c, 9, 42, 0
22, 11820, Note_on_c, 9, 42, 54
22, 11821, Note_on_c, 9, 42, 0
22, 11880, Note_on_c, 9, 42, 82
22, 11881, Note_on_c, 9, 42, 0
22, 11940, Note_on_c, 9, 42, 68
22, 11941, Note_on_c, 9, 42, 0
22, 12000, Note_on_c, 9, 42, 79
22, 12001, Note_on_c, 9, 42, 0
22, 12060, Note_on_c, 9, 42, 44
22, 12061, Note_on_c, 9, 42, 0
22, 12120, Note_on_c, 9, 42, 79
22, 12121, Note_on_c, 9, 42, 0
22, 12180, Note_on_c, 9, 42, 60
22, 12181, Note_on_c, 9, 42, 0
22, 12240, Note_on_c, 9, 42, 80
22, 12241, Note_on_c, 9, 42, 0
22, 12300, Note_on_c, 9, 42, 54
22, 12301, Note_on_c, 9, 42, 0
22, 12360, Note_on_c, 9, 42, 82
22, 12361, Note_on_c, 9, 42, 0
22, 12420, Note_on_c, 9, 42, 68
22, 12421, Note_on_c, 9, 42, 0
22, 12480, Note_on_c, 9, 42, 79
22, 12481, Note_on_c, 9, 42, 0
22, 12540, Note_on_c, 9, 42, 44
22, 12541, Note_on_c, 9, 42, 0
22, 12600, Note_on_c, 9, 42, 79
22, 12601, Note_on_c, 9, 42, 0
22, 12660, Note_on_c, 9, 42, 60
22, 12661, Note_on_c, 9, 42, 0
22, 12720, Note_on_c, 9, 42, 80
22, 12721, Note_on_c, 9, 42, 0
22, 12780, Note_on_c, 9, 42, 54
22, 12781, Note_on_c, 9, 42, 0
22, 12840, Note_on_c, 9, 42, 82
22, 12841, Note_on_c, 9, 42, 0
22, 12900, Note_on_c, 9, 42, 68
22, 12901, Note_on_c, 9, 42, 0
22, 12960, Note_on_c, 9, 42, 79
22, 12961, Note_on_c, 9, 42, 0
22, 13020, Note_on_c, 9, 42, 44
22, 13021, Note_on_c, 9, 42, 0
22, 13080, Note_on_c, 9, 42, 79
22, 13081, Note_on_c, 9, 42, 0
22, 13140, Note_on_c, 9, 42, 60
22, 13141, Note_on_c, 9, 42, 0
22, 13200, Note_on_c, 9, 42, 80
22, 13201, Note_on_c, 9, 42, 0
22, 13260, Note_on_c, 9, 42, 54
22, 13261, Note_on_c, 9, 42, 0
22, 13320, Note_on_c, 9, 42, 82
22, 13321, Note_on_c, 9, 42, 0
22, 13380, Note_on_c, 9, 42, 68
22, 13381, Note_on_c, 9, 42, 0
22, 13440, Note_on_c, 9, 42, 79
22, 13441, Note_on_c, 9, 42, 0
22, 13500, Note_on_c, 9, 42, 44
22, 13501, Note_on_c, 9, 42, 0
22, 13560, Note_on_c, 9, 42, 79
22, 13561, Note_on_c, 9, 42, 0
22, 13620, Note_on_c, 9, 42, 60
22, 13621, Note_on_c, 9, 42, 0
22, 13680, Note_on_c, 9, 42, 80
22, 13681, Note_on_c, 9, 42, 0
22, 13740, Note_on_c, 9, 42, 54
22, 13741, Note_on_c, 9, 42, 0
22, 13800, Note_on_c, 9, 42, 82
22, 13801, Note_on_c, 9, 42, 0
22, 13860, Note_on_c, 9, 42, 68
22, 13861, Note_on_c, 9, 42, 0
22, 13920, Note_on_c, 9, 42, 79
22, 13921, Note_on_c, 9, 42, 0
22, 13980, Note_on_c, 9, 42, 44
22, 13981, Note_on_c, 9, 42, 0
22, 14040, Note_on_c, 9, 42, 79
22, 14041, Note_on_c, 9, 42, 0
22, 14100, Note_on_c, 9, 42, 60
22, 14101, Note_on_c, 9, 42, 0
22, 14160, Note_on_c, 9, 42, 80
22, 14161, Note_on_c, 9, 42, 0
22, 14220, Note_on_c, 9, 42, 54
22, 14221, Note_on_c, 9, 42, 0
22, 14280, Note_on_c, 9, 42, 82
22, 14281, Note_on_c, 9, 42, 0
22, 14340, Note_on_c, 9, 42, 68
22, 14341, Note_on_c, 9, 42, 0
22, 14400, Note_on_c, 9, 42, 79
22, 14401, Note_on_c, 9, 42, 0
22, 14460, Note_on_c, 9, 42, 44
22, 14461, Note_on_c, 9, 42, 0
22, 14520, Note_on_c, 9, 42, 79
22, 14521, Note_on_c, 9, 42, 0
22, 14580, Note_on_c, 9, 42, 60
22, 14581, Note_on_c, 9, 42, 0
22, 14640, Note_on_c, 9, 42, 80
22, 14641, Note_on_c, 9, 42, 0
22, 14700, Note_on_c, 9, 42, 54
22, 14701, Note_on_c, 9, 42, 0
22, 14760, Note_on_c, 9, 42, 82
22, 14761, Note_on_c, 9, 42, 0
22, 14820, Note_on_c, 9, 42, 68
22, 14821, Note_on_c, 9, 42, 0
22, 14880, Note_on_c, 9, 42, 79
22, 14881, Note_on_c, 9, 42, 0
22, 14940, Note_on_c, 9, 42, 44
22, 14941, Note_on_c, 9, 42, 0
22, 15000, Note_on_c, 9, 42, 79
22, 15001, Note_on_c, 9, 42, 0
22, 15060, Note_on_c, 9, 42, 60
22, 15061, Note_on_c, 9, 42, 0
22, 15120, Note_on_c, 9, 42, 80
22, 15121, Note_on_c, 9, 42, 0
22, 15180, Note_on_c, 9, 42, 54
22, 15181, Note_on_c, 9, 42, 0
22, 15240, Note_on_c, 9, 42, 82
22, 15241, Note_on_c, 9, 42, 0
22, 15300, Note_on_c, 9, 42, 68
22, 15301, Note_on_c, 9, 42, 0
22, 15360, Note_on_c, 9, 42, 79
22, 15361, Note_on_c, 9, 42, 0
22, 15420, Note_on_c, 9, 42, 44
22, 15421, Note_on_c, 9, 42, 0
22, 15480, Note_on_c, 9, 42, 79
22, 15481, Note_on_c, 9, 42, 0
22, 15540, Note_on_c, 9, 42, 60
22, 15541, Note_on_c, 9, 42, 0
22, 15600, Note_on_c, 9, 42, 80
22, 15601, Note_on_c, 9, 42, 0
22, 15660, Note_on_c, 9, 42, 54
22, 15661, Note_on_c, 9, 42, 0
22, 15720, Note_on_c, 9, 42, 82
22, 15721, Note_on_c, 9, 42, 0
22, 15780, Note_on_c, 9, 42, 68
22, 15781, Note_on_c, 9, 42, 0
22, 24000, Note_on_c, 9, 42, 79
22, 24001, Note_on_c, 9, 42, 0
22, 24060, Note_on_c, 9, 42, 44
22, 24061, Note_on_c, 9, 42, 0
22, 24120, Note_on_c, 9, 42, 79
22, 24121, Note_on_c, 9, 42, 0
22, 24180, Note_on_c, 9, 42, 60
22, 24181, Note_on_c, 9, 42, 0
22, 24240, Note_on_c, 9, 42, 80
22, 24241, Note_on_c, 9, 42, 0
22, 24300, Note_on_c, 9, 42, 54
22, 24301, Note_on_c, 9, 42, 0
22, 24360, Note_on_c, 9, 42, 82
22, 24361, Note_on_c, 9, 42, 0
22, 24420, Note_on_c, 9, 42, 68
22, 24421, Note_on_c, 9, 42, 0
22, 24480, Note_on_c, 9, 42, 79
22, 24481, Note_on_c, 9, 42, 0
22, 24540, Note_on_c, 9, 42, 44
22, 24541, Note_on_c, 9, 42, 0
22, 24600, Note_on_c, 9, 42, 79
22, 24601, Note_on_c, 9, 42, 0
22, 24660, Note_on_c, 9, 42, 60
22, 24661, Note_on_c, 9, 42, 0
22, 24720, Note_on_c, 9, 42, 80
22, 24721, Note_on_c, 9, 42, 0
22, 24780, Note_on_c, 9, 42, 54
22, 24781, Note_on_c, 9, 42, 0
22, 24840, Note_on_c, 9, 42, 82
22, 24841, Note_on_c, 9, 42, 0
22, 24900, Note_on_c, 9, 42, 68
22, 24901, Note_on_c, 9, 42, 0
22, 24960, Note_on_c, 9, 42, 79
22, 24961, Note_on_c, 9, 42, 0
22, 25020, Note_on_c, 9, 42, 44
22, 25021, Note_on_c, 9, 42, 0
22, 25080, Note_on_c, 9, 42, 79
22, 25081, Note_on_c, 9, 42, 0
22, 25140, Note_on_c, 9, 42, 60
22, 25141, Note_on_c, 9, 42, 0
22, 25200, Note_on_c, 9, 42, 80
22, 25201, Note_on_c, 9, 42, 0
22, 25260, Note_on_c, 9, 42, 54
22, 25261, Note_on_c, 9, 42, 0
22, 25320, Note_on_c, 9, 42, 82
22, 25321, Note_on_c, 9, 42, 0
22, 25380, Note_on_c, 9, 42, 68
22, 25381, Note_on_c, 9, 42, 0
22, 25440, Note_on_c, 9, 42, 79
22, 25441, Note_on_c, 9, 42, 0
22, 25500, Note_on_c, 9, 42, 44
22, 25501, Note_on_c, 9, 42, 0
22, 25560, Note_on_c, 9, 42, 79
22, 25561, Note_on_c, 9, 42, 0
22, 25620, Note_on_c, 9, 42, 60
22, 25621, Note_on_c, 9, 42, 0
22, 25680, Note_on_c, 9, 42, 80
22, 25681, Note_on_c, 9, 42, 0
22, 25740, Note_on_c, 9, 42, 54
22, 25741, Note_on_c, 9, 42, 0
22, 25800, Note_on_c, 9, 42, 82
22, 25801, Note_on_c, 9, 42, 0
22, 25860, Note_on_c, 9, 42, 68
22, 25861, Note_on_c, 9, 42, 0
22, 25920, Note_on_c, 9, 42, 79
22, 25921, Note_on_c, 9, 42, 0
22, 25980, Note_on_c, 9, 42, 44
22, 25981, Note_on_c, 9, 42, 0
22, 26040, Note_on_c, 9, 42, 79
22, 26041, Note_on_c, 9, 42, 0
22, 26100, Note_on_c, 9, 42, 60
22, 26101, Note_on_c, 9, 42, 0
22, 26160, Note_on_c, 9, 42, 80
22, 26161, Note_on_c, 9, 42, 0
22, 26220, Note_on_c, 9, 42, 54
22, 26221, Note_on_c, 9, 42, 0
22, 26280, Note_on_c, 9, 42, 82
22, 26281, Note_on_c, 9, 42, 0
22, 26340, Note_on_c, 9, 42, 68
22, 26341, Note_on_c, 9, 42, 0
22, 26400, Note_on_c, 9, 42, 79
22, 26401, Note_on_c, 9, 42, 0
22, 26460, Note_on_c, 9, 42, 44
22, 26461, Note_on_c, 9, 42, 0
22, 26520, Note_on_c, 9, 42, 79
22, 26521, Note_on_c, 9, 42, 0
22, 26580, Note_on_c, 9, 42, 60
22, 26581, Note_on_c, 9, 42, 0
22, 26640, Note_on_c, 9, 42, 80
22, 26641, Note_on_c, 9, 42, 0
22, 26700, Note_on_c, 9, 42, 54
22, 26701, Note_on_c, 9, 42, 0
22, 26760, Note_on_c, 9, 42, 82
22, 26761, Note_on_c, 9, 42, 0
22, 26820, Note_on_c, 9, 42, 68
22, 26821, Note_on_c, 9, 42, 0
22, 26880, Note_on_c, 9, 42, 79
22, 26881, Note_on_c, 9, 42, 0
22, 26940, Note_on_c, 9, 42, 44
22, 26941, Note_on_c, 9, 42, 0
22, 27000, Note_on_c, 9, 42, 79
22, 27001, Note_on_c, 9, 42, 0
22, 27060, Note_on_c, 9, 42, 60
22, 27061, Note_on_c, 9, 42, 0
22, 27120, Note_on_c, 9, 42, 80
22, 27121, Note_on_c, 9, 42, 0
22, 27180, Note_on_c, 9, 42, 54
22, 27181, Note_on_c, 9, 42, 0
22, 27240, Note_on_c, 9, 42, 82
22, 27241, Note_on_c, 9, 42, 0
22, 27300, Note_on_c, 9, 42, 68
22, 27301, Note_on_c, 9, 42, 0
22, 27360, Note_on_c, 9, 42, 79
22, 27361, Note_on_c, 9, 42, 0
22, 27420, Note_on_c, 9, 42, 44
22, 27421, Note_on_c, 9, 42, 0
22, 27480, Note_on_c, 9, 42, 79
22, 27481, Note_on_c, 9, 42, 0
22, 27540, Note_on_c, 9, 42, 60
22, 27541, Note_on_c, 9, 42, 0
22, 27600, Note_on_c, 9, 42, 80
22, 27601, Note_on_c, 9, 42, 0
22, 27660, Note_on_c, 9, 42, 54
22, 27661, Note_on_c, 9, 42, 0
22, 27720, Note_on_c, 9, 42, 82
22, 27721, Note_on_c, 9, 42, 0
22, 27780, Note_on_c, 9, 42, 68
22, 27781, Note_on_c, 9, 42, 0
22, 27840, Note_on_c, 9, 42, 79
22, 27841, Note_on_c, 9, 42, 0
22, 27900, Note_on_c, 9, 42, 44
22, 27901, Note_on_c, 9, 42, 0
22, 27960, Note_on_c, 9, 42, 79
22, 27961, Note_on_c, 9, 42, 0
22, 28020, Note_on_c, 9, 42, 60
22, 28021, Note_on_c, 9, 42, 0
22, 28080, Note_on_c, 9, 42, 80
22, 28081, Note_on_c, 9, 42, 0
22, 28140, Note_on_c, 9, 42, 54
22, 28141, Note_on_c, 9, 42, 0
22, 28200, Note_on_c, 9, 42, 82
22, 28201, Note_on_c, 9, 42, 0
22, 28260, Note_on_c, 9, 42, 68
22, 28261, Note_on_c, 9, 42, 0
22, 28320, Note_on_c, 9, 42, 79
22, 28321, Note_on_c, 9, 42, 0
22, 28380, Note_on_c, 9, 42, 44
22, 28381, Note_on_c, 9, 42, 0
22, 28440, Note_on_c, 9, 42, 79
22, 28441, Note_on_c, 9, 42, 0
22, 28500, Note_on_c, 9, 42, 60
22, 28501, Note_on_c, 9, 42, 0
22, 28560, Note_on_c, 9, 42, 80
22, 28561, Note_on_c, 9, 42, 0
22, 28620, Note_on_c, 9, 42, 54
22, 28621, Note_on_c, 9, 42, 0
22, 28680, Note_on_c, 9, 42, 82
22, 28681, Note_on_c, 9, 42, 0
22, 28740, Note_on_c, 9, 42, 68
22, 28741, Note_on_c, 9, 42, 0
22, 28800, Note_on_c, 9, 42, 79
22, 28801, Note_on_c, 9, 42, 0
22, 28860, Note_on_c, 9, 42, 44
22, 28861, Note_on_c, 9, 42, 0
22, 28920, Note_on_c, 9, 42, 79
22, 28921, Note_on_c, 9, 42, 0
22, 28980, Note_on_c, 9, 42, 60
22, 28981, Note_on_c, 9, 42, 0
22, 29040, Note_on_c, 9, 42, 80
22, 29041, Note_on_c, 9, 42, 0
22, 29100, Note_on_c, 9, 42, 54
22, 29101, Note_on_c, 9, 42, 0
22, 29160, Note_on_c, 9, 42, 82
22, 29161, Note_on_c, 9, 42, 0
22, 29220, Note_on_c, 9, 42, 68
22, 29221, Note_on_c, 9, 42, 0
22, 29280, Note_on_c, 9, 42, 79
22, 29281, Note_on_c, 9, 42, 0
22, 29340, Note_on_c, 9, 42, 44
22, 29341, Note_on_c, 9, 42, 0
22, 29400, Note_on_c, 9, 42, 79
22, 29401, Note_on_c, 9, 42, 0
22, 29460, Note_on_c, 9, 42, 60
22, 29461, Note_on_c, 9, 42, 0
22, 29520, Note_on_c, 9, 42, 80
22, 29521, Note_on_c, 9, 42, 0
22, 29580, Note_on_c, 9, 42, 54
22, 29581, Note_on_c, 9, 42, 0
22, 29640, Note_on_c, 9, 42, 82
22, 29641, Note_on_c, 9, 42, 0
22, 29700, Note_on_c, 9, 42, 68
22, 29701, Note_on_c, 9, 42, 0
22, 37920, Note_on_c, 9, 42, 79
22, 37921, Note_on_c, 9, 42, 0
22, 37980, Note_on_c, 9, 42, 44
22, 37981, Note_on_c, 9, 42, 0
22, 38040, Note_on_c, 9, 42, 79
22, 38041, Note_on_c, 9, 42, 0
22, 38100, Note_on_c, 9, 42, 60
22, 38101, Note_on_c, 9, 42, 0
22, 38160, Note_on_c, 9, 42, 80
22, 38161, Note_on_c, 9, 42, 0
22, 38220, Note_on_c, 9, 42, 54
22, 38221, Note_on_c, 9, 42, 0
22, 38280, Note_on_c, 9, 42, 82
22, 38281, Note_on_c, 9, 42, 0
22, 38340, Note_on_c, 9, 42, 68
22, 38341, Note_on_c, 9, 42, 0
22, 38400, Note_on_c, 9, 42, 79
22, 38401, Note_on_c, 9, 42, 0
22, 38460, Note_on_c, 9, 42, 44
22, 38461, Note_on_c, 9, 42, 0
22, 38520, Note_on_c, 9, 42, 79
22, 38521, Note_on_c, 9, 42, 0
22, 38580, Note_on_c, 9, 42, 60
22, 38581, Note_on_c, 9, 42, 0
22, 38640, Note_on_c, 9, 42, 80
22, 38641, Note_on_c, 9, 42, 0
22, 38700, Note_on_c, 9, 42, 54
22, 38701, Note_on_c, 9, 42, 0
22, 38760, Note_on_c, 9, 42, 82
22, 38761, Note_on_c, 9, 42, 0
22, 38820, Note_on_c, 9, 42, 68
22, 38821, Note_on_c, 9, 42, 0
22, 38880, Note_on_c, 9, 42, 79
22, 38881, Note_on_c, 9, 42, 0
22, 38940, Note_on_c, 9, 42, 44
22, 38941, Note_on_c, 9, 42, 0
22, 39000, Note_on_c, 9, 42, 79
22, 39001, Note_on_c, 9, 42, 0
22, 39060, Note_on_c, 9, 42, 60
22, 39061, Note_on_c, 9, 42, 0
22, 39120, Note_on_c, 9, 42, 80
22, 39121, Note_on_c, 9, 42, 0
22, 39180, Note_on_c, 9, 42, 54
22, 39181, Note_on_c, 9, 42, 0
22, 39240, Note_on_c, 9, 42, 82
22, 39241, Note_on_c, 9, 42, 0
22, 39300, Note_on_c, 9, 42, 68
22, 39301, Note_on_c, 9, 42, 0
22, 39360, Note_on_c, 9, 42, 79
22, 39361, Note_on_c, 9, 42, 0
22, 39420, Note_on_c, 9, 42, 44
22, 39421, Note_on_c, 9, 42, 0
22, 39480, Note_on_c, 9, 42, 79
22, 39481, Note_on_c, 9, 42, 0
22, 39540, Note_on_c, 9, 42, 60
22, 39541, Note_on_c, 9, 42, 0
22, 39600, Note_on_c, 9, 42, 80
22, 39601, Note_on_c, 9, 42, 0
22, 39660, Note_on_c, 9, 42, 54
22, 39661, Note_on_c, 9, 42, 0
22, 39720, Note_on_c, 9, 42, 82
22, 39721, Note_on_c, 9, 42, 0
22, 39780, Note_on_c, 9, 42, 68
22, 39781, Note_on_c, 9, 42, 0
22, 39840, Note_on_c, 9, 42, 79
22, 39841, Note_on_c, 9, 42, 0
22, 39900, Note_on_c, 9, 42, 44
22, 39901, Note_on_c, 9, 42, 0
22, 39960, Note_on_c, 9, 42, 79
22, 39961, Note_on_c, 9, 42, 0
22, 40020, Note_on_c, 9, 42, 60
22, 40021, Note_on_c, 9, 42, 0
22, 40080, Note_on_c, 9, 42, 80
22, 40081, Note_on_c, 9, 42, 0
22, 40140, Note_on_c, 9, 42, 54
22, 40141, Note_on_c, 9, 42, 0
22, 40200, Note_on_c, 9, 42, 82
22, 40201, Note_on_c, 9, 42, 0
22, 40260, Note_on_c, 9, 42, 68
22, 40261, Note_on_c, 9, 42, 0
22, 40320, Note_on_c, 9, 42, 79
22, 40321, Note_on_c, 9, 42, 0
22, 40380, Note_on_c, 9, 42, 44
22, 40381, Note_on_c, 9, 42, 0
22, 40440, Note_on_c, 9, 42, 79
22, 40441, Note_on_c, 9, 42, 0
22, 40500, Note_on_c, 9, 42, 60
22, 40501, Note_on_c, 9, 42, 0
22, 40560, Note_on_c, 9, 42, 80
22, 40561, Note_on_c, 9, 42, 0
22, 40620, Note_on_c, 9, 42, 54
22, 40621, Note_on_c, 9, 42, 0
22, 40680, Note_on_c, 9, 42, 82
22, 40681, Note_on_c, 9, 42, 0
22, 40740, Note_on_c, 9, 42, 68
22, 40741, Note_on_c, 9, 42, 0
22, 40800, Note_on_c, 9, 42, 79
22, 40801, Note_on_c, 9, 42, 0
22, 40860, Note_on_c, 9, 42, 44
22, 40861, Note_on_c, 9, 42, 0
22, 40920, Note_on_c, 9, 42, 79
22, 40921, Note_on_c, 9, 42, 0
22, 40980, Note_on_c, 9, 42, 60
22, 40981, Note_on_c, 9, 42, 0
22, 41040, Note_on_c, 9, 42, 80
22, 41041, Note_on_c, 9, 42, 0
22, 41100, Note_on_c, 9, 42, 54
22, 41101, Note_on_c, 9, 42, 0
22, 41160, Note_on_c, 9, 42, 82
22, 41161, Note_on_c, 9, 42, 0
22, 41220, Note_on_c, 9, 42, 68
22, 41221, Note_on_c, 9, 42, 0
22, 41280, Note_on_c, 9, 42, 79
22, 41281, Note_on_c, 9, 42, 0
22, 41340, Note_on_c, 9, 42, 44
22, 41341, Note_on_c, 9, 42, 0
22, 41400, Note_on_c, 9, 42, 79
22, 41401, Note_on_c, 9, 42, 0
22, 41460, Note_on_c, 9, 42, 60
22, 41461, Note_on_c, 9, 42, 0
22, 41520, Note_on_c, 9, 42, 80
22, 41521, Note_on_c, 9, 42, 0
22, 41580, Note_on_c, 9, 42, 54
22, 41581, Note_on_c, 9, 42, 0
22, 41640, Note_on_c, 9, 42, 82
22, 41641, Note_on_c, 9, 42, 0
22, 41700, Note_on_c, 9, 42, 68
22, 41701, Note_on_c, 9, 42, 0
22, 41760, Note_on_c, 9, 42, 79
22, 41761, Note_on_c, 9, 42, 0
22, 41820, Note_on_c, 9, 42, 44
22, 41821, Note_on_c, 9, 42, 0
22, 41880, Note_on_c, 9, 42, 79
22, 41881, Note_on_c, 9, 42, 0
22, 41940, Note_on_c, 9, 42, 60
22, 41941, Note_on_c, 9, 42, 0
22, 42000, Note_on_c, 9, 42, 80
22, 42001, Note_on_c, 9, 42, 0
22, 42060, Note_on_c, 9, 42, 54
22, 42061, Note_on_c, 9, 42, 0
22, 42120, Note_on_c, 9, 42, 82
22, 42121, Note_on_c, 9, 42, 0
22, 42180, Note_on_c, 9, 42, 68
22, 42181, Note_on_c, 9, 42, 0
22, 42240, Note_on_c, 9, 42, 79
22, 42241, Note_on_c, 9, 42, 0
22, 42300, Note_on_c, 9, 42, 44
22, 42301, Note_on_c, 9, 42, 0
22, 42360, Note_on_c, 9, 42, 79
22, 42361, Note_on_c, 9, 42, 0
22, 42420, Note_on_c, 9, 42, 60
22, 42421, Note_on_c, 9, 42, 0
22, 42480, Note_on_c, 9, 42, 80
22, 42481, Note_on_c, 9, 42, 0
22, 42540, Note_on_c, 9, 42, 54
22, 42541, Note_on_c, 9, 42, 0
22, 42600, Note_on_c, 9, 42, 82
22, 42601, Note_on_c, 9, 42, 0
22, 42660, Note_on_c, 9, 42, 68
22, 42661, Note_on_c, 9, 42, 0
22, 42720, Note_on_c, 9, 42, 79
22, 42721, Note_on_c, 9, 42, 0
22, 42780, Note_on_c, 9, 42, 44
22, 42781, Note_on_c, 9, 42, 0
22, 42840, Note_on_c, 9, 42, 79
22, 42841, Note_on_c, 9, 42, 0
22, 42900, Note_on_c, 9, 42, 60
22, 42901, Note_on_c, 9, 42, 0
22, 42960, Note_on_c, 9, 42, 80
22, 42961, Note_on_c, 9, 42, 0
22, 43020, Note_on_c, 9, 42, 54
22, 43021, Note_on_c, 9, 42, 0
22, 43080, Note_on_c, 9, 42, 82
22, 43081, Note_on_c, 9, 42, 0
22, 43140, Note_on_c, 9, 42, 68
22, 43141, Note_on_c, 9, 42, 0
22, 43200, Note_on_c, 9, 42, 79
22, 43201, Note_on_c, 9, 42, 0
22, 43260, Note_on_c, 9, 42, 44
22, 43261, Note_on_c, 9, 42, 0
22, 43320, Note_on_c, 9, 42, 79
22, 43321, Note_on_c, 9, 42, 0
22, 43380, Note_on_c, 9, 42, 60
22, 43381, Note_on_c, 9, 42, 0
22, 43440, Note_on_c, 9, 42, 80
22, 43441, Note_on_c, 9, 42, 0
22, 43500, Note_on_c, 9, 42, 54
22, 43501, Note_on_c, 9, 42, 0
22, 43560, Note_on_c, 9, 42, 82
22, 43561, Note_on_c, 9, 42, 0
22, 43620, Note_on_c, 9, 42, 68
22, 43621, Note_on_c, 9, 42, 0
22, 43680, Note_on_c, 9, 42, 79
22, 43681, Note_on_c, 9, 42, 0
22, 43740, Note_on_c, 9, 42, 44
22, 43741, Note_on_c, 9, 42, 0
22, 43800, Note_on_c, 9, 42, 79
22, 43801, Note_on_c, 9, 42, 0
22, 43860, Note_on_c, 9, 42, 60
22, 43861, Note_on_c, 9, 42, 0
22, 43920, Note_on_c, 9, 42, 80
22, 43921, Note_on_c, 9, 42, 0
22, 43980, Note_on_c, 9, 42, 54
22, 43981, Note_on_c, 9, 42, 0
22, 44040, Note_on_c, 9, 42, 82
22, 44041, Note_on_c, 9, 42, 0
22, 44100, Note_on_c, 9, 42, 68
22, 44101, Note_on_c, 9, 42, 0
22, 44160, Note_on_c, 9, 42, 79
22, 44161, Note_on_c, 9, 42, 0
22, 44220, Note_on_c, 9, 42, 44
22, 44221, Note_on_c, 9, 42, 0
22, 44280, Note_on_c, 9, 42, 79
22, 44281, Note_on_c, 9, 42, 0
22, 44340, Note_on_c, 9, 42, 60
22, 44341, Note_on_c, 9, 42, 0
22, 44400, Note_on_c, 9, 42, 80
22, 44401, Note_on_c, 9, 42, 0
22, 44460, Note_on_c, 9, 42, 54
22, 44461, Note_on_c, 9, 42, 0
22, 44520, Note_on_c, 9, 42, 82
22, 44521, Note_on_c, 9, 42, 0
22, 44580, Note_on_c, 9, 42, 68
22, 44581, Note_on_c, 9, 42, 0
22, 44640, Note_on_c, 9, 42, 79
22, 44641, Note_on_c, 9, 42, 0
22, 44700, Note_on_c, 9, 42, 44
22, 44701, Note_on_c, 9, 42, 0
22, 44760, Note_on_c, 9, 42, 79
22, 44761, Note_on_c, 9, 42, 0
22, 44820, Note_on_c, 9, 42, 60
22, 44821, Note_on_c, 9, 42, 0
22, 44880, Note_on_c, 9, 42, 80
22, 44881, Note_on_c, 9, 42, 0
22, 44940, Note_on_c, 9, 42, 54
22, 44941, Note_on_c, 9, 42, 0
22, 45000, Note_on_c, 9, 42, 82
22, 45001, Note_on_c, 9, 42, 0
22, 45060, Note_on_c, 9, 42, 68
22, 45061, Note_on_c, 9, 42, 0
22, 45120, Note_on_c, 9, 42, 79
22, 45121, Note_on_c, 9, 42, 0
22, 45180, Note_on_c, 9, 42, 44
22, 45181, Note_on_c, 9, 42, 0
22, 45240, Note_on_c, 9, 42, 79
22, 45241, Note_on_c, 9, 42, 0
22, 45300, Note_on_c, 9, 42, 60
22, 45301, Note_on_c, 9, 42, 0
22, 45360, Note_on_c, 9, 42, 80
22, 45361, Note_on_c, 9, 42, 0
22, 45420, Note_on_c, 9, 42, 54
22, 45421, Note_on_c, 9, 42, 0
22, 45480, Note_on_c, 9, 42, 82
22, 45481, Note_on_c, 9, 42, 0
22, 45540, Note_on_c, 9, 42, 68
22, 45541, Note_on_c, 9, 42, 0
22, 45600, Note_on_c, 9, 42, 79
22, 45601, Note_on_c, 9, 42, 0
22, 45660, Note_on_c, 9, 42, 44
22, 45661, Note_on_c, 9, 42, 0
22, 45720, Note_on_c, 9, 42, 79
22, 45721, Note_on_c, 9, 42, 0
22, 45780, Note_on_c, 9, 42, 60
22, 45781, Note_on_c, 9, 42, 0
22, 45840, Note_on_c, 9, 42, 80
22, 45841, Note_on_c, 9, 42, 0
22, 45900, Note_on_c, 9, 42, 54
22, 45901, Note_on_c, 9, 42, 0
22, 45960, Note_on_c, 9, 42, 82
22, 45961, Note_on_c, 9, 42, 0
22, 46020, Note_on_c, 9, 42, 68
22, 46021, Note_on_c, 9, 42, 0
22, 46080, Note_on_c, 9, 42, 79
22, 46081, Note_on_c, 9, 42, 0
22, 46140, Note_on_c, 9, 42, 44
22, 46141, Note_on_c, 9, 42, 0
22, 46200, Note_on_c, 9, 42, 79
22, 46201, Note_on_c, 9, 42, 0
22, 46260, Note_on_c, 9, 42, 60
22, 46261, Note_on_c, 9, 42, 0
22, 46320, Note_on_c, 9, 42, 80
22, 46321, Note_on_c, 9, 42, 0
22, 46380, Note_on_c, 9, 42, 54
22, 46381, Note_on_c, 9, 42, 0
22, 46440, Note_on_c, 9, 42, 82
22, 46441, Note_on_c, 9, 42, 0
22, 46500, Note_on_c, 9, 42, 68
22, 46501, Note_on_c, 9, 42, 0
22, 46560, Note_on_c, 9, 42, 79
22, 46561, Note_on_c, 9, 42, 0
22, 46620, Note_on_c, 9, 42, 44
22, 46621, Note_on_c, 9, 42, 0
22, 46680, Note_on_c, 9, 42, 79
22, 46681, Note_on_c, 9, 42, 0
22, 46740, Note_on_c, 9, 42, 60
22, 46741, Note_on_c, 9, 42, 0
22, 46800, Note_on_c, 9, 42, 80
22, 46801, Note_on_c, 9, 42, 0
22, 46860, Note_on_c, 9, 42, 54
22, 46861, Note_on_c, 9, 42, 0
22, 46920, Note_on_c, 9, 42, 82
22, 46921, Note_on_c, 9, 42, 0
22, 46980, Note_on_c, 9, 42, 68
22, 46981, Note_on_c, 9, 42, 0
22, 47040, Note_on_c, 9, 42, 79
22, 47041, Note_on_c, 9, 42, 0
22, 47100, Note_on_c, 9, 42, 44
22, 47101, Note_on_c, 9, 42, 0
22, 47160, Note_on_c, 9, 42, 79
22, 47161, Note_on_c, 9, 42, 0
22, 47220, Note_on_c, 9, 42, 60
22, 47221, Note_on_c, 9, 42, 0
22, 47280, Note_on_c, 9, 42, 80
22, 47281, Note_on_c, 9, 42, 0
22, 47340, Note_on_c, 9, 42, 54
22, 47341, Note_on_c, 9, 42, 0
22, 47400, Note_on_c, 9, 42, 82
22, 47401, Note_on_c, 9, 42, 0
22, 47460, Note_on_c, 9, 42, 68
22, 47461, Note_on_c, 9, 42, 0
22, 47520, Note_on_c, 9, 42, 79
22, 47521, Note_on_c, 9, 42, 0
22, 47580, Note_on_c, 9, 42, 44
22, 47581, Note_on_c, 9, 42, 0
22, 47640, Note_on_c, 9, 42, 79
22, 47641, Note_on_c, 9, 42, 0
22, 47700, Note_on_c, 9, 42, 60
22, 47701, Note_on_c, 9, 42, 0
22, 47760, Note_on_c, 9, 42, 80
22, 47761, Note_on_c, 9, 42, 0
22, 47820, Note_on_c, 9, 42, 54
22, 47821, Note_on_c, 9, 42, 0
22, 47880, Note_on_c, 9, 42, 82
22, 47881, Note_on_c, 9, 42, 0
22, 47940, Note_on_c, 9, 42, 68
22, 47941, Note_on_c, 9, 42, 0
22, 48000, Note_on_c, 9, 42, 79
22, 48001, Note_on_c, 9, 42, 0
22, 48060, Note_on_c, 9, 42, 44
22, 48061, Note_on_c, 9, 42, 0
22, 48120, Note_on_c, 9, 42, 79
22, 48121, Note_on_c, 9, 42, 0
22, 48180, Note_on_c, 9, 42, 60
22, 48181, Note_on_c, 9, 42, 0
22, 48240, Note_on_c, 9, 42, 80
22, 48241, Note_on_c, 9, 42, 0
22, 48300, Note_on_c, 9, 42, 54
22, 48301, Note_on_c, 9, 42, 0
22, 48360, Note_on_c, 9, 42, 82
22, 48361, Note_on_c, 9, 42, 0
22, 48420, Note_on_c, 9, 42, 68
22, 48421, Note_on_c, 9, 42, 0
22, 48480, Note_on_c, 9, 42, 79
22, 48481, Note_on_c, 9, 42, 0
22, 48540, Note_on_c, 9, 42, 44
22, 48541, Note_on_c, 9, 42, 0
22, 48600, Note_on_c, 9, 42, 79
22, 48601, Note_on_c, 9, 42, 0
22, 48660, Note_on_c, 9, 42, 60
22, 48661, Note_on_c, 9, 42, 0
22, 48720, Note_on_c, 9, 42, 80
22, 48721, Note_on_c, 9, 42, 0
22, 48780, Note_on_c, 9, 42, 54
22, 48781, Note_on_c, 9, 42, 0
22, 48840, Note_on_c, 9, 42, 82
22, 48841, Note_on_c, 9, 42, 0
22, 48900, Note_on_c, 9, 42, 68
22, 48901, Note_on_c, 9, 42, 0
22, 48960, Note_on_c, 9, 42, 79
22, 48961, Note_on_c, 9, 42, 0
22, 49020, Note_on_c, 9, 42, 44
22, 49021, Note_on_c, 9, 42, 0
22, 49080, Note_on_c, 9, 42, 79
22, 49081, Note_on_c, 9, 42, 0
22, 49140, Note_on_c, 9, 42, 60
22, 49141, Note_on_c, 9, 42, 0
22, 49200, Note_on_c, 9, 42, 80
22, 49201, Note_on_c, 9, 42, 0
22, 49260, Note_on_c, 9, 42, 54
22, 49261, Note_on_c, 9, 42, 0
22, 49320, Note_on_c, 9, 42, 82
22, 49321, Note_on_c, 9, 42, 0
22, 49380, Note_on_c, 9, 42, 68
22, 49381, Note_on_c, 9, 42, 0
22, 49440, Note_on_c, 9, 42, 79
22, 49441, Note_on_c, 9, 42, 0
22, 49500, Note_on_c, 9, 42, 44
22, 49501, Note_on_c, 9, 42, 0
22, 49560, Note_on_c, 9, 42, 79
22, 49561, Note_on_c, 9, 42, 0
22, 49620, Note_on_c, 9, 42, 60
22, 49621, Note_on_c, 9, 42, 0
22, 49680, Note_on_c, 9, 42, 80
22, 49681, Note_on_c, 9, 42, 0
22, 49740, Note_on_c, 9, 42, 54
22, 49741, Note_on_c, 9, 42, 0
22, 49800, Note_on_c, 9, 42, 82
22, 49801, Note_on_c, 9, 42, 0
22, 49860, Note_on_c, 9, 42, 68
22, 49861, Note_on_c, 9, 42, 0
22, 49920, Note_on_c, 9, 42, 79
22, 49921, Note_on_c, 9, 42, 0
22, 49980, Note_on_c, 9, 42, 44
22, 49981, Note_on_c, 9, 42, 0
22, 50040, Note_on_c, 9, 42, 79
22, 50041, Note_on_c, 9, 42, 0
22, 50100, Note_on_c, 9, 42, 60
22, 50101, Note_on_c, 9, 42, 0
22, 50160, Note_on_c, 9, 42, 80
22, 50161, Note_on_c, 9, 42, 0
22, 50220, Note_on_c, 9, 42, 54
22, 50221, Note_on_c, 9, 42, 0
22, 50280, Note_on_c, 9, 42, 82
22, 50281, Note_on_c, 9, 42, 0
22, 50340, Note_on_c, 9, 42, 68
22, 50341, Note_on_c, 9, 42, 0
22, 50400, Note_on_c, 9, 42, 79
22, 50401, Note_on_c, 9, 42, 0
22, 50460, Note_on_c, 9, 42, 44
22, 50461, Note_on_c, 9, 42, 0
22, 50520, Note_on_c, 9, 42, 79
22, 50521, Note_on_c, 9, 42, 0
22, 50580, Note_on_c, 9, 42, 60
22, 50581, Note_on_c, 9, 42, 0
22, 50640, Note_on_c, 9, 42, 80
22, 50641, Note_on_c, 9, 42, 0
22, 50700, Note_on_c, 9, 42, 54
22, 50701, Note_on_c, 9, 42, 0
22, 50760, Note_on_c, 9, 42, 82
22, 50761, Note_on_c, 9, 42, 0
22, 50820, Note_on_c, 9, 42, 68
22, 50821, Note_on_c, 9, 42, 0
22, 50880, Note_on_c, 9, 42, 79
22, 50881, Note_on_c, 9, 42, 0
22, 50940, Note_on_c, 9, 42, 44
22, 50941, Note_on_c, 9, 42, 0
22, 51000, Note_on_c, 9, 42, 79
22, 51001, Note_on_c, 9, 42, 0
22, 51060, Note_on_c, 9, 42, 60
22, 51061, Note_on_c, 9, 42, 0
22, 51120, Note_on_c, 9, 42, 80
22, 51121, Note_on_c, 9, 42, 0
22, 51180, Note_on_c, 9, 42, 54
22, 51181, Note_on_c, 9, 42, 0
22, 51240, Note_on_c, 9, 42, 82
22, 51241, Note_on_c, 9, 42, 0
22, 51300, Note_on_c, 9, 42, 68
22, 51301, Note_on_c, 9, 42, 0
22, 51360, Note_on_c, 9, 42, 79
22, 51361, Note_on_c, 9, 42, 0
22, 51420, Note_on_c, 9, 42, 44
22, 51421, Note_on_c, 9, 42, 0
22, 51480, Note_on_c, 9, 42, 79
22, 51481, Note_on_c, 9, 42, 0
22, 51540, Note_on_c, 9, 42, 60
22, 51541, Note_on_c, 9, 42, 0
22, 51600, Note_on_c, 9, 42, 80
22, 51601, Note_on_c, 9, 42, 0
22, 51660, Note_on_c, 9, 42, 54
22, 51661, Note_on_c, 9, 42, 0
22, 51720, Note_on_c, 9, 42, 82
22, 51721, Note_on_c, 9, 42, 0
22, 51780, Note_on_c, 9, 42, 68
22, 51781, Note_on_c, 9, 42, 0
22, 51840, Note_on_c, 9, 42, 79
22, 51841, Note_on_c, 9, 42, 0
22, 51900, Note_on_c, 9, 42, 44
22, 51901, Note_on_c, 9, 42, 0
22, 51960, Note_on_c, 9, 42, 79
22, 51961, Note_on_c, 9, 42, 0
22, 52020, Note_on_c, 9, 42, 60
22, 52021, Note_on_c, 9, 42, 0
22, 52080, Note_on_c, 9, 42, 80
22, 52081, Note_on_c, 9, 42, 0
22, 52140, Note_on_c, 9, 42, 54
22, 52141, Note_on_c, 9, 42, 0
22, 52200, Note_on_c, 9, 42, 82
22, 52201, Note_on_c, 9, 42, 0
22, 52260, Note_on_c, 9, 42, 68
22, 52261, Note_on_c, 9, 42, 0
22, 52320, Note_on_c, 9, 42, 79
22, 52321, Note_on_c, 9, 42, 0
22, 52380, Note_on_c, 9, 42, 44
22, 52381, Note_on_c, 9, 42, 0
22, 52440, Note_on_c, 9, 42, 79
22, 52441, Note_on_c, 9, 42, 0
22, 52500, Note_on_c, 9, 42, 60
22, 52501, Note_on_c, 9, 42, 0
22, 52560, Note_on_c, 9, 42, 80
22, 52561, Note_on_c, 9, 42, 0
22, 52620, Note_on_c, 9, 42, 54
22, 52621, Note_on_c, 9, 42, 0
22, 52680, Note_on_c, 9, 42, 82
22, 52681, Note_on_c, 9, 42, 0
22, 52740, Note_on_c, 9, 42, 68
22, 52741, Note_on_c, 9, 42, 0
22, 52800, Note_on_c, 9, 42, 79
22, 52801, Note_on_c, 9, 42, 0
22, 52860, Note_on_c, 9, 42, 44
22, 52861, Note_on_c, 9, 42, 0
22, 52920, Note_on_c, 9, 42, 79
22, 52921, Note_on_c, 9, 42, 0
22, 52980, Note_on_c, 9, 42, 60
22, 52981, Note_on_c, 9, 42, 0
22, 53040, Note_on_c, 9, 42, 80
22, 53041, Note_on_c, 9, 42, 0
22, 53100, Note_on_c, 9, 42, 54
22, 53101, Note_on_c, 9, 42, 0
22, 53160, Note_on_c, 9, 42, 82
22, 53161, Note_on_c, 9, 42, 0
22, 53220, Note_on_c, 9, 42, 68
22, 53221, Note_on_c, 9, 42, 0
22, 53280, Note_on_c, 9, 42, 79
22, 53281, Note_on_c, 9, 42, 0
22, 53340, Note_on_c, 9, 42, 44
22, 53341, Note_on_c, 9, 42, 0
22, 53400, Note_on_c, 9, 42, 79
22, 53401, Note_on_c, 9, 42, 0
22, 53460, Note_on_c, 9, 42, 60
22, 53461, Note_on_c, 9, 42, 0
22, 53520, Note_on_c, 9, 42, 80
22, 53521, Note_on_c, 9, 42, 0
22, 53580, Note_on_c, 9, 42, 54
22, 53581, Note_on_c, 9, 42, 0
22, 53640, Note_on_c, 9, 42, 82
22, 53641, Note_on_c, 9, 42, 0
22, 53700, Note_on_c, 9, 42, 68
22, 53701, Note_on_c, 9, 42, 0
22, 53760, Note_on_c, 9, 42, 79
22, 53761, Note_on_c, 9, 42, 0
22, 53820, Note_on_c, 9, 42, 44
22, 53821, Note_on_c, 9, 42, 0
22, 53880, Note_on_c, 9, 42, 79
22, 53881, Note_on_c, 9, 42, 0
22, 53940, Note_on_c, 9, 42, 60
22, 53941, Note_on_c, 9, 42, 0
22, 54000, Note_on_c, 9, 42, 80
22, 54001, Note_on_c, 9, 42, 0
22, 54060, Note_on_c, 9, 42, 54
22, 54061, Note_on_c, 9, 42, 0
22, 54120, Note_on_c, 9, 42, 82
22, 54121, Note_on_c, 9, 42, 0
22, 54180, Note_on_c, 9, 42, 68
22, 54181, Note_on_c, 9, 42, 0
22, 54240, Note_on_c, 9, 42, 79
22, 54241, Note_on_c, 9, 42, 0
22, 54300, Note_on_c, 9, 42, 44
22, 54301, Note_on_c, 9, 42, 0
22, 54360, Note_on_c, 9, 42, 79
22, 54361, Note_on_c, 9, 42, 0
22, 54420, Note_on_c, 9, 42, 60
22, 54421, Note_on_c, 9, 42, 0
22, 54480, Note_on_c, 9, 42, 80
22, 54481, Note_on_c, 9, 42, 0
22, 54540, Note_on_c, 9, 42, 54
22, 54541, Note_on_c, 9, 42, 0
22, 54600, Note_on_c, 9, 42, 82
22, 54601, Note_on_c, 9, 42, 0
22, 54660, Note_on_c, 9, 42, 68
22, 54661, Note_on_c, 9, 42, 0
22, 54720, Note_on_c, 9, 42, 79
22, 54721, Note_on_c, 9, 42, 0
22, 54780, Note_on_c, 9, 42, 44
22, 54781, Note_on_c, 9, 42, 0
22, 54840, Note_on_c, 9, 42, 79
22, 54841, Note_on_c, 9, 42, 0
22, 54900, Note_on_c, 9, 42, 60
22, 54901, Note_on_c, 9, 42, 0
22, 54960, Note_on_c, 9, 42, 80
22, 54961, Note_on_c, 9, 42, 0
22, 55020, Note_on_c, 9, 42, 54
22, 55021, Note_on_c, 9, 42, 0
22, 55080, Note_on_c, 9, 42, 82
22, 55081, Note_on_c, 9, 42, 0
22, 55140, Note_on_c, 9, 42, 68
22, 55141, Note_on_c, 9, 42, 0
22, 55200, Note_on_c, 9, 42, 79
22, 55201, Note_on_c, 9, 42, 0
22, 55260, Note_on_c, 9, 42, 44
22, 55261, Note_on_c, 9, 42, 0
22, 55320, Note_on_c, 9, 42, 79
22, 55321, Note_on_c, 9, 42, 0
22, 55380, Note_on_c, 9, 42, 60
22, 55381, Note_on_c, 9, 42, 0
22, 55440, Note_on_c, 9, 42, 80
22, 55441, Note_on_c, 9, 42, 0
22, 55500, Note_on_c, 9, 42, 54
22, 55501, Note_on_c, 9, 42, 0
22, 55560, Note_on_c, 9, 42, 82
22, 55561, Note_on_c, 9, 42, 0
22, 55620, Note_on_c, 9, 42, 68
22, 55621, Note_on_c, 9, 42, 0
22, 55680, Note_on_c, 9, 42, 79
22, 55681, Note_on_c, 9, 42, 0
22, 55740, Note_on_c, 9, 42, 44
22, 55741, Note_on_c, 9, 42, 0
22, 55800, Note_on_c, 9, 42, 79
22, 55801, Note_on_c, 9, 42, 0
22, 55860, Note_on_c, 9, 42, 60
22, 55861, Note_on_c, 9, 42, 0
22, 55920, Note_on_c, 9, 42, 80
22, 55921, Note_on_c, 9, 42, 0
22, 55980, Note_on_c, 9, 42, 54
22, 55981, Note_on_c, 9, 42, 0
22, 56040, Note_on_c, 9, 42, 82
22, 56041, Note_on_c, 9, 42, 0
22, 56100, Note_on_c, 9, 42, 68
22, 56101, Note_on_c, 9, 42, 0
22, 56160, Note_on_c, 9, 42, 79
22, 56161, Note_on_c, 9, 42, 0
22, 56220, Note_on_c, 9, 42, 44
22, 56221, Note_on_c, 9, 42, 0
22, 56280, Note_on_c, 9, 42, 79
22, 56281, Note_on_c, 9, 42, 0
22, 56340, Note_on_c, 9, 42, 60
22, 56341, Note_on_c, 9, 42, 0
22, 56400, Note_on_c, 9, 42, 80
22, 56401, Note_on_c, 9, 42, 0
22, 56460, Note_on_c, 9, 42, 54
22, 56461, Note_on_c, 9, 42, 0
22, 56520, Note_on_c, 9, 42, 82
22, 56521, Note_on_c, 9, 42, 0
22, 56580, Note_on_c, 9, 42, 68
22, 56581, Note_on_c, 9, 42, 0
22, 56640, Note_on_c, 9, 42, 79
22, 56641, Note_on_c, 9, 42, 0
22, 56700, Note_on_c, 9, 42, 44
22, 56701, Note_on_c, 9, 42, 0
22, 56760, Note_on_c, 9, 42, 79
22, 56761, Note_on_c, 9, 42, 0
22, 56820, Note_on_c, 9, 42, 60
22, 56821, Note_on_c, 9, 42, 0
22, 56880, Note_on_c, 9, 42, 80
22, 56881, Note_on_c, 9, 42, 0
22, 56940, Note_on_c, 9, 42, 54
22, 56941, Note_on_c, 9, 42, 0
22, 57000, Note_on_c, 9, 42, 82
22, 57001, Note_on_c, 9, 42, 0
22, 57060, Note_on_c, 9, 42, 68
22, 57061, Note_on_c, 9, 42, 0
22, 57120, Note_on_c, 9, 42, 79
22, 57121, Note_on_c, 9, 42, 0
22, 57180, Note_on_c, 9, 42, 44
22, 57181, Note_on_c, 9, 42, 0
22, 57240, Note_on_c, 9, 42, 79
22, 57241, Note_on_c, 9, 42, 0
22, 57300, Note_on_c, 9, 42, 60
22, 57301, Note_on_c, 9, 42, 0
22, 57360, Note_on_c, 9, 42, 80
22, 57361, Note_on_c, 9, 42, 0
22, 57420, Note_on_c, 9, 42, 54
22, 57421, Note_on_c, 9, 42, 0
22, 57480, Note_on_c, 9, 42, 82
22, 57481, Note_on_c, 9, 42, 0
22, 57540, Note_on_c, 9, 42, 68
22, 57541, Note_on_c, 9, 42, 0
22, 57600, Note_on_c, 9, 42, 79
22, 57601, Note_on_c, 9, 42, 0
22, 57660, Note_on_c, 9, 42, 44
22, 57661, Note_on_c, 9, 42, 0
22, 57720, Note_on_c, 9, 42, 79
22, 57721, Note_on_c, 9, 42, 0
22, 57780, Note_on_c, 9, 42, 60
22, 57781, Note_on_c, 9, 42, 0
22, 57840, Note_on_c, 9, 42, 80
22, 57841, Note_on_c, 9, 42, 0
22, 57900, Note_on_c, 9, 42, 54
22, 57901, Note_on_c, 9, 42, 0
22, 57960, Note_on_c, 9, 42, 82
22, 57961, Note_on_c, 9, 42, 0
22, 58020, Note_on_c, 9, 42, 68
22, 58021, Note_on_c, 9, 42, 0
22, 58080, Note_on_c, 9, 42, 79
22, 58081, Note_on_c, 9, 42, 0
22, 58140, Note_on_c, 9, 42, 44
22, 58141, Note_on_c, 9, 42, 0
22, 58200, Note_on_c, 9, 42, 79
22, 58201, Note_on_c, 9, 42, 0
22, 58260, Note_on_c, 9, 42, 60
22, 58261, Note_on_c, 9, 42, 0
22, 58320, Note_on_c, 9, 42, 80
22, 58321, Note_on_c, 9, 42, 0
22, 58380, Note_on_c, 9, 42, 54
22, 58381, Note_on_c, 9, 42, 0
22, 58440, Note_on_c, 9, 42, 82
22, 58441, Note_on_c, 9, 42, 0
22, 58500, Note_on_c, 9, 42, 68
22, 58501, Note_on_c, 9, 42, 0
22, 58560, Note_on_c, 9, 42, 79
22, 58561, Note_on_c, 9, 42, 0
22, 58620, Note_on_c, 9, 42, 44
22, 58621, Note_on_c, 9, 42, 0
22, 58680, Note_on_c, 9, 42, 79
22, 58681, Note_on_c, 9, 42, 0
22, 58740, Note_on_c, 9, 42, 60
22, 58741, Note_on_c, 9, 42, 0
22, 58800, Note_on_c, 9, 42, 80
22, 58801, Note_on_c, 9, 42, 0
22, 58860, Note_on_c, 9, 42, 54
22, 58861, Note_on_c, 9, 42, 0
22, 58920, Note_on_c, 9, 42, 82
22, 58921, Note_on_c, 9, 42, 0
22, 58980, Note_on_c, 9, 42, 68
22, 58981, Note_on_c, 9, 42, 0
22, 59040, Note_on_c, 9, 42, 79
22, 59041, Note_on_c, 9, 42, 0
22, 59100, Note_on_c, 9, 42, 44
22, 59101, Note_on_c, 9, 42, 0
22, 59160, Note_on_c, 9, 42, 79
22, 59161, Note_on_c, 9, 42, 0
22, 59220, Note_on_c, 9, 42, 60
22, 59221, Note_on_c, 9, 42, 0
22, 59280, Note_on_c, 9, 42, 80
22, 59281, Note_on_c, 9, 42, 0
22, 59340, Note_on_c, 9, 42, 54
22, 59341, Note_on_c, 9, 42, 0
22, 59400, Note_on_c, 9, 42, 82
22, 59401, Note_on_c, 9, 42, 0
22, 59460, Note_on_c, 9, 42, 68
22, 59461, Note_on_c, 9, 42, 0
22, 59520, Note_on_c, 9, 42, 79
22, 59521, Note_on_c, 9, 42, 0
22, 59580, Note_on_c, 9, 42, 44
22, 59581, Note_on_c, 9, 42, 0
22, 59640, Note_on_c, 9, 42, 79
22, 59641, Note_on_c, 9, 42, 0
22, 59700, Note_on_c, 9, 42, 60
22, 59701, Note_on_c, 9, 42, 0
22, 59760, Note_on_c, 9, 42, 80
22, 59761, Note_on_c, 9, 42, 0
22, 59820, Note_on_c, 9, 42, 54
22, 59821, Note_on_c, 9, 42, 0
22, 59880, Note_on_c, 9, 42, 82
22, 59881, Note_on_c, 9, 42, 0
22, 59940, Note_on_c, 9, 42, 68
22, 59941, Note_on_c, 9, 42, 0
22, 60000, Note_on_c, 9, 42, 79
22, 60001, Note_on_c, 9, 42, 0
22, 60060, Note_on_c, 9, 42, 44
22, 60061, Note_on_c, 9, 42, 0
22, 60120, Note_on_c, 9, 42, 79
22, 60121, Note_on_c, 9, 42, 0
22, 60180, Note_on_c, 9, 42, 60
22, 60181, Note_on_c, 9, 42, 0
22, 60240, Note_on_c, 9, 42, 80
22, 60241, Note_on_c, 9, 42, 0
22, 60300, Note_on_c, 9, 42, 54
22, 60301, Note_on_c, 9, 42, 0
22, 60360, Note_on_c, 9, 42, 82
22, 60361, Note_on_c, 9, 42, 0
22, 60420, Note_on_c, 9, 42, 68
22, 60421, Note_on_c, 9, 42, 0
22, 60480, Note_on_c, 9, 42, 79
22, 60481, Note_on_c, 9, 42, 0
22, 60540, Note_on_c, 9, 42, 44
22, 60541, Note_on_c, 9, 42, 0
22, 60600, Note_on_c, 9, 42, 79
22, 60601, Note_on_c, 9, 42, 0
22, 60660, Note_on_c, 9, 42, 60
22, 60661, Note_on_c, 9, 42, 0
22, 60720, Note_on_c, 9, 42, 80
22, 60721, Note_on_c, 9, 42, 0
22, 60780, Note_on_c, 9, 42, 54
22, 60781, Note_on_c, 9, 42, 0
22, 60840, Note_on_c, 9, 42, 82
22, 60841, Note_on_c, 9, 42, 0
22, 60900, Note_on_c, 9, 42, 68
22, 60901, Note_on_c, 9, 42, 0
22, 60960, Note_on_c, 9, 42, 79
22, 60961, Note_on_c, 9, 42, 0
22, 61020, Note_on_c, 9, 42, 44
22, 61021, Note_on_c, 9, 42, 0
22, 61080, Note_on_c, 9, 42, 79
22, 61081, Note_on_c, 9, 42, 0
22, 61140, Note_on_c, 9, 42, 60
22, 61141, Note_on_c, 9, 42, 0
22, 61200, Note_on_c, 9, 42, 80
22, 61201, Note_on_c, 9, 42, 0
22, 61260, Note_on_c, 9, 42, 54
22, 61261, Note_on_c, 9, 42, 0
22, 61320, Note_on_c, 9, 42, 82
22, 61321, Note_on_c, 9, 42, 0
22, 61380, Note_on_c, 9, 42, 68
22, 61381, Note_on_c, 9, 42, 0
22, 61440, Note_on_c, 9, 42, 79
22, 61441, Note_on_c, 9, 42, 0
22, 61500, Note_on_c, 9, 42, 44
22, 61501, Note_on_c, 9, 42, 0
22, 61560, Note_on_c, 9, 42, 79
22, 61561, Note_on_c, 9, 42, 0
22, 61620, Note_on_c, 9, 42, 60
22, 61621, Note_on_c, 9, 42, 0
22, 61680, Note_on_c, 9, 42, 80
22, 61681, Note_on_c, 9, 42, 0
22, 61740, Note_on_c, 9, 42, 54
22, 61741, Note_on_c, 9, 42, 0
22, 61800, Note_on_c, 9, 42, 82
22, 61801, Note_on_c, 9, 42, 0
22, 61860, Note_on_c, 9, 42, 68
22, 61861, Note_on_c, 9, 42, 0
22, 61920, Note_on_c, 9, 42, 79
22, 61921, Note_on_c, 9, 42, 0
22, 61980, Note_on_c, 9, 42, 44
22, 61981, Note_on_c, 9, 42, 0
22, 62040, Note_on_c, 9, 42, 79
22, 62041, Note_on_c, 9, 42, 0
22, 62100, Note_on_c, 9, 42, 60
22, 62101, Note_on_c, 9, 42, 0
22, 62160, Note_on_c, 9, 42, 80
22, 62161, Note_on_c, 9, 42, 0
22, 62220, Note_on_c, 9, 42, 54
22, 62221, Note_on_c, 9, 42, 0
22, 62280, Note_on_c, 9, 42, 82
22, 62281, Note_on_c, 9, 42, 0
22, 62340, Note_on_c, 9, 42, 68
22, 62341, Note_on_c, 9, 42, 0
22, 62400, Note_on_c, 9, 42, 79
22, 62401, Note_on_c, 9, 42, 0
22, 62460, Note_on_c, 9, 42, 44
22, 62461, Note_on_c, 9, 42, 0
22, 62520, Note_on_c, 9, 42, 79
22, 62521, Note_on_c, 9, 42, 0
22, 62580, Note_on_c, 9, 42, 60
22, 62581, Note_on_c, 9, 42, 0
22, 62640, Note_on_c, 9, 42, 80
22, 62641, Note_on_c, 9, 42, 0
22, 62700, Note_on_c, 9, 42, 54
22, 62701, Note_on_c, 9, 42, 0
22, 62760, Note_on_c, 9, 42, 82
22, 62761, Note_on_c, 9, 42, 0
22, 62820, Note_on_c, 9, 42, 68
22, 62821, Note_on_c, 9, 42, 0
22, 62880, Note_on_c, 9, 42, 79
22, 62881, Note_on_c, 9, 42, 0
22, 62940, Note_on_c, 9, 42, 44
22, 62941, Note_on_c, 9, 42, 0
22, 63000, Note_on_c, 9, 42, 79
22, 63001, Note_on_c, 9, 42, 0
22, 63060, Note_on_c, 9, 42, 60
22, 63061, Note_on_c, 9, 42, 0
22, 63120, Note_on_c, 9, 42, 80
22, 63121, Note_on_c, 9, 42, 0
22, 63180, Note_on_c, 9, 42, 54
22, 63181, Note_on_c, 9, 42, 0
22, 63240, Note_on_c, 9, 42, 82
22, 63241, Note_on_c, 9, 42, 0
22, 63300, Note_on_c, 9, 42, 68
22, 63301, Note_on_c, 9, 42, 0
22, 63360, Note_on_c, 9, 42, 79
22, 63361, Note_on_c, 9, 42, 0
22, 63420, Note_on_c, 9, 42, 44
22, 63421, Note_on_c, 9, 42, 0
22, 63480, Note_on_c, 9, 42, 79
22, 63481, Note_on_c, 9, 42, 0
22, 63540, Note_on_c, 9, 42, 60
22, 63541, Note_on_c, 9, 42, 0
22, 63600, Note_on_c, 9, 42, 80
22, 63601, Note_on_c, 9, 42, 0
22, 63660, Note_on_c, 9, 42, 54
22, 63661, Note_on_c, 9, 42, 0
22, 63720, Note_on_c, 9, 42, 82
22, 63721, Note_on_c, 9, 42, 0
22, 63780, Note_on_c, 9, 42, 68
22, 63781, Note_on_c, 9, 42, 0
22, 63840, Note_on_c, 9, 42, 79
22, 63841, Note_on_c, 9, 42, 0
22, 63900, Note_on_c, 9, 42, 44
22, 63901, Note_on_c, 9, 42, 0
22, 63960, Note_on_c, 9, 42, 79
22, 63961, Note_on_c, 9, 42, 0
22, 64020, Note_on_c, 9, 42, 60
22, 64021, Note_on_c, 9, 42, 0
22, 64080, Note_on_c, 9, 42, 80
22, 64081, Note_on_c, 9, 42, 0
22, 64140, Note_on_c, 9, 42, 54
22, 64141, Note_on_c, 9, 42, 0
22, 64200, Note_on_c, 9, 42, 82
22, 64201, Note_on_c, 9, 42, 0
22, 64260, Note_on_c, 9, 42, 68
22, 64261, Note_on_c, 9, 42, 0
22, 64320, Note_on_c, 9, 42, 79
22, 64321, Note_on_c, 9, 42, 0
22, 64380, Note_on_c, 9, 42, 44
22, 64381, Note_on_c, 9, 42, 0
22, 64440, Note_on_c, 9, 42, 79
22, 64441, Note_on_c, 9, 42, 0
22, 64500, Note_on_c, 9, 42, 60
22, 64501, Note_on_c, 9, 42, 0
22, 64560, Note_on_c, 9, 42, 80
22, 64561, Note_on_c, 9, 42, 0
22, 64620, Note_on_c, 9, 42, 54
22, 64621, Note_on_c, 9, 42, 0
22, 64680, Note_on_c, 9, 42, 82
22, 64681, Note_on_c, 9, 42, 0
22, 64740, Note_on_c, 9, 42, 68
22, 64741, Note_on_c, 9, 42, 0
22, 64800, Note_on_c, 9, 42, 79
22, 64801, Note_on_c, 9, 42, 0
22, 64860, Note_on_c, 9, 42, 44
22, 64861, Note_on_c, 9, 42, 0
22, 64920, Note_on_c, 9, 42, 79
22, 64921, Note_on_c, 9, 42, 0
22, 64980, Note_on_c, 9, 42, 60
22, 64981, Note_on_c, 9, 42, 0
22, 65040, Note_on_c, 9, 42, 80
22, 65041, Note_on_c, 9, 42, 0
22, 65100, Note_on_c, 9, 42, 54
22, 65101, Note_on_c, 9, 42, 0
22, 65160, Note_on_c, 9, 42, 82
22, 65161, Note_on_c, 9, 42, 0
22, 65220, Note_on_c, 9, 42, 68
22, 65221, Note_on_c, 9, 42, 0
22, 65280, Note_on_c, 9, 42, 79
22, 65281, Note_on_c, 9, 42, 0
22, 65340, Note_on_c, 9, 42, 44
22, 65341, Note_on_c, 9, 42, 0
22, 65400, Note_on_c, 9, 42, 79
22, 65401, Note_on_c, 9, 42, 0
22, 65460, Note_on_c, 9, 42, 60
22, 65461, Note_on_c, 9, 42, 0
22, 65520, Note_on_c, 9, 42, 80
22, 65521, Note_on_c, 9, 42, 0
22, 65580, Note_on_c, 9, 42, 54
22, 65581, Note_on_c, 9, 42, 0
22, 65640, Note_on_c, 9, 42, 82
22, 65641, Note_on_c, 9, 42, 0
22, 65700, Note_on_c, 9, 42, 68
22, 65701, Note_on_c, 9, 42, 0
22, 65760, Note_on_c, 9, 42, 79
22, 65761, Note_on_c, 9, 42, 0
22, 65820, Note_on_c, 9, 42, 44
22, 65821, Note_on_c, 9, 42, 0
22, 65880, Note_on_c, 9, 42, 79
22, 65881, Note_on_c, 9, 42, 0
22, 65940, Note_on_c, 9, 42, 60
22, 65941, Note_on_c, 9, 42, 0
22, 66000, Note_on_c, 9, 42, 80
22, 66001, Note_on_c, 9, 42, 0
22, 66060, Note_on_c, 9, 42, 54
22, 66061, Note_on_c, 9, 42, 0
22, 66120, Note_on_c, 9, 42, 82
22, 66121, Note_on_c, 9, 42, 0
22, 66180, Note_on_c, 9, 42, 68
22, 66181, Note_on_c, 9, 42, 0
22, 66240, Note_on_c, 9, 42, 79
22, 66241, Note_on_c, 9, 42, 0
22, 66300, Note_on_c, 9, 42, 44
22, 66301, Note_on_c, 9, 42, 0
22, 66360, Note_on_c, 9, 42, 79
22, 66361, Note_on_c, 9, 42, 0
22, 66420, Note_on_c, 9, 42, 60
22, 66421, Note_on_c, 9, 42, 0
22, 66480, Note_on_c, 9, 42, 80
22, 66481, Note_on_c, 9, 42, 0
22, 66540, Note_on_c, 9, 42, 54
22, 66541, Note_on_c, 9, 42, 0
22, 66600, Note_on_c, 9, 42, 82
22, 66601, Note_on_c, 9, 42, 0
22, 66660, Note_on_c, 9, 42, 68
22, 66661, Note_on_c, 9, 42, 0
22, 66720, Note_on_c, 9, 42, 77
22, 66721, Note_on_c, 9, 42, 0
22, 66780, Note_on_c, 9, 42, 43
22, 66781, Note_on_c, 9, 42, 0
22, 66840, Note_on_c, 9, 42, 76
22, 66841, Note_on_c, 9, 42, 0
22, 66900, Note_on_c, 9, 42, 58
22, 66901, Note_on_c, 9, 42, 0
22, 66960, Note_on_c, 9, 42, 76
22, 66961, Note_on_c, 9, 42, 0
22, 67020, Note_on_c, 9, 42, 51
22, 67021, Note_on_c, 9, 42, 0
22, 67080, Note_on_c, 9, 42, 77
22, 67081, Note_on_c, 9, 42, 0
22, 67140, Note_on_c, 9, 42, 64
22, 67141, Note_on_c, 9, 42, 0
22, 67200, Note_on_c, 9, 42, 74
22, 67201, Note_on_c, 9, 42, 0
22, 67260, Note_on_c, 9, 42, 40
22, 67261, Note_on_c, 9, 42, 0
22, 67320, Note_on_c, 9, 42, 72
22, 67321, Note_on_c, 9, 42, 0
22, 67380, Note_on_c, 9, 42, 55
22, 67381, Note_on_c, 9, 42, 0
22, 67440, Note_on_c, 9, 42, 72
22, 67441, Note_on_c, 9, 42, 0
22, 67500, Note_on_c, 9, 42, 49
22, 67501, Note_on_c, 9, 42, 0
22, 67560, Note_on_c, 9, 42, 73
22, 67561, Note_on_c, 9, 42, 0
22, 67620, Note_on_c, 9, 42, 60
22, 67621, Note_on_c, 9, 42, 0
22, 67680, Note_on_c, 9, 42, 70
22, 67681, Note_on_c, 9, 42, 0
22, 67740, Note_on_c, 9, 42, 38
22, 67741, Note_on_c, 9, 42, 0
22, 67800, Note_on_c, 9, 42, 69
22, 67801, Note_on_c, 9, 42, 0
22, 67860, Note_on_c, 9, 42, 52
22, 67861, Note_on_c, 9, 42, 0
22, 67920, Note_on_c, 9, 42, 68
22, 67921, Note_on_c, 9, 42, 0
22, 67980, Note_on_c, 9, 42, 46
22, 67981, Note_on_c, 9, 42, 0
22, 68040, Note_on_c, 9, 42, 69
22, 68041, Note_on_c, 9, 42, 0
22, 68100, Note_on_c, 9, 42, 57
22, 68101, Note_on_c, 9, 42, 0
22, 68160, Note_on_c, 9, 42, 66
22, 68161, Note_on_c, 9, 42, 0
22, 68220, Note_on_c, 9, 42, 36
22, 68221, Note_on_c, 9, 42, 0
22, 68280, Note_on_c, 9, 42, 65
22, 68281, Note_on_c, 9, 42, 0
22, 68340, Note_on_c, 9, 42, 49
22, 68341, Note_on_c, 9, 42, 0
22, 68400, Note_on_c, 9, 42, 64
22, 68401, Note_on_c, 9, 42, 0
22, 68460, Note_on_c, 9, 42, 44
22, 68461, Note_on_c, 9, 42, 0
22, 68520, Note_on_c, 9, 42, 65
22, 68521, Note_on_c, 9, 42, 0
22, 68580, Note_on_c, 9, 42, 54
22, 68581, Note_on_c, 9, 42, 0
22, 68640, Note_on_c, 9, 42, 62
22, 68641, Note_on_c, 9, 42, 0
22, 68700, Note_on_c, 9, 42, 34
22, 68701, Note_on_c, 9, 42, 0
22, 68760, Note_on_c, 9, 42, 61
22, 68761, Note_on_c, 9, 42, 0
22, 68820, Note_on_c, 9, 42, 46
22, 68821, Note_on_c, 9, 42, 0
22, 68880, Note_on_c, 9, 42, 61
22, 68881, Note_on_c, 9, 42, 0
22, 68940, Note_on_c, 9, 42, 41
22, 68941, Note_on_c, 9, 42, 0
22, 69000, Note_on_c, 9, 42, 60
22, 69001, Note_on_c, 9, 42, 0
22, 69060, Note_on_c, 9, 42, 51
22, 69061, Note_on_c, 9, 42, 0
22, 69120, Note_on_c, 9, 42, 58
22, 69121, Note_on_c, 9, 42, 0
22, 69180, Note_on_c, 9, 42, 31
22, 69181, Note_on_c, 9, 42, 0
22, 69240, Note_on_c, 9, 42, 57
22, 69241, Note_on_c, 9, 42, 0
22, 69300, Note_on_c, 9, 42, 43
22, 69301, Note_on_c, 9, 42, 0
22, 69360, Note_on_c, 9, 42, 57
22, 69361, Note_on_c, 9, 42, 0
22, 69420, Note_on_c, 9, 42, 38
22, 69421, Note_on_c, 9, 42, 0
22, 69480, Note_on_c, 9, 42, 57
22, 69481, Note_on_c, 9, 42, 0
22, 69540, Note_on_c, 9, 42, 47
22, 69541, Note_on_c, 9, 42, 0
22, 69600, Note_on_c, 9, 42, 54
22, 69601, Note_on_c, 9, 42, 0
22, 69660, Note_on_c, 9, 42, 30
22, 69661, Note_on_c, 9, 42, 0
22, 69720, Note_on_c, 9, 42, 53
22, 69721, Note_on_c, 9, 42, 0
22, 69780, Note_on_c, 9, 42, 40
22, 69781, Note_on_c, 9, 42, 0
22, 69840, Note_on_c, 9, 42, 52
22, 69841, Note_on_c, 9, 42, 0
22, 69900, Note_on_c, 9, 42, 35
22, 69901, Note_on_c, 9, 42, 0
22, 69960, Note_on_c, 9, 42, 53
22, 69961, Note_on_c, 9, 42, 0
22, 70020, Note_on_c, 9, 42, 44
22, 70021, Note_on_c, 9, 42, 0
22, 70080, Note_on_c, 9, 42, 50
22, 70081, Note_on_c, 9, 42, 0
22, 70140, Note_on_c, 9, 42, 28
22, 70141, Note_on_c, 9, 42, 0
22, 70200, Note_on_c, 9, 42, 49
22, 70201, Note_on_c, 9, 42, 0
22, 70260, Note_on_c, 9, 42, 37
22, 70261, Note_on_c, 9, 42, 0
22, 70320, Note_on_c, 9, 42, 49
22, 70321, Note_on_c, 9, 42, 0
22, 70380, Note_on_c, 9, 42, 32
22, 70381, Note_on_c, 9, 42, 0
22, 70440, Note_on_c, 9, 42, 49
22, 70441, Note_on_c, 9, 42, 0
22, 70500, Note_on_c, 9, 42, 40
22, 70501, Note_on_c, 9, 42, 0
22, 70560, Note_on_c, 9, 42, 46
22, 70561, Note_on_c, 9, 42, 0
22, 70620, Note_on_c, 9, 42, 25
22, 70621, Note_on_c, 9, 42, 0
22, 70680, Note_on_c, 9, 42, 45
22, 70681, Note_on_c, 9, 42, 0
22, 70740, Note_on_c, 9, 42, 35
22, 70741, Note_on_c, 9, 42, 0
22, 70800, Note_on_c, 9, 42, 45
22, 70801, Note_on_c, 9, 42, 0
22, 70860, Note_on_c, 9, 42, 30
22, 70861, Note_on_c, 9, 42, 0
22, 70920, Note_on_c, 9, 42, 45
22, 70921, Note_on_c, 9, 42, 0
22, 70980, Note_on_c, 9, 42, 37
22, 70981, Note_on_c, 9, 42, 0
22, 71040, Note_on_c, 9, 42, 43
22, 71041, Note_on_c, 9, 42, 0
22, 71100, Note_on_c, 9, 42, 23
22, 71101, Note_on_c, 9, 42, 0
22, 71160, Note_on_c, 9, 42, 41
22, 71161, Note_on_c, 9, 42, 0
22, 71220, Note_on_c, 9, 42, 31
22, 71221, Note_on_c, 9, 42, 0
22, 71280, Note_on_c, 9, 42, 41
22, 71281, Note_on_c, 9, 42, 0
22, 71340, Note_on_c, 9, 42, 28
22, 71341, Note_on_c, 9, 42, 0
22, 71400, Note_on_c, 9, 42, 41
22, 71401, Note_on_c, 9, 42, 0
22, 71460, Note_on_c, 9, 42, 34
22, 71461, Note_on_c, 9, 42, 0
22, 71520, Note_on_c, 9, 42, 39
22, 71521, Note_on_c, 9, 42, 0
22, 71580, Note_on_c, 9, 42, 21
22, 71581, Note_on_c, 9, 42, 0
22, 71640, Note_on_c, 9, 42, 37
22, 71641, Note_on_c, 9, 42, 0
22, 71700, Note_on_c, 9, 42, 29
22, 71701, Note_on_c, 9, 42, 0
22, 71760, Note_on_c, 9, 42, 37
22, 71761, Note_on_c, 9, 42, 0
22, 71820, Note_on_c, 9, 42, 25
22, 71821, Note_on_c, 9, 42, 0
22, 71880, Note_on_c, 9, 42, 37
22, 71881, Note_on_c, 9, 42, 0
22, 71940, Note_on_c, 9, 42, 30
22, 71941, Note_on_c, 9, 42, 0
22, 72000, Note_on_c, 9, 42, 35
22, 72001, Note_on_c, 9, 42, 0
22, 72060, Note_on_c, 9, 42, 19
22, 72061, Note_on_c, 9, 42, 0
22, 72120, Note_on_c, 9, 42, 34
22, 72121, Note_on_c, 9, 42, 0
22, 72180, Note_on_c, 9, 42, 25
22, 72181, Note_on_c, 9, 42, 0
22, 72240, Note_on_c, 9, 42, 33
22, 72241, Note_on_c, 9, 42, 0
22, 72300, Note_on_c, 9, 42, 23
22, 72301, Note_on_c, 9, 42, 0
22, 72360, Note_on_c, 9, 42, 33
22, 72361, Note_on_c, 9, 42, 0
22, 72420, Note_on_c, 9, 42, 27
22, 72421, Note_on_c, 9, 42, 0
22, 72480, Note_on_c, 9, 42, 31
22, 72481, Note_on_c, 9, 42, 0
22, 72540, Note_on_c, 9, 42, 16
22, 72541, Note_on_c, 9, 42, 0
22, 72600, Note_on_c, 9, 42, 30
22, 72601, Note_on_c, 9, 42, 0
22, 72660, Note_on_c, 9, 42, 23
22, 72661, Note_on_c, 9, 42, 0
22, 72720, Note_on_c, 9, 42, 29
22, 72721, Note_on_c, 9, 42, 0
22, 72780, Note_on_c, 9, 42, 19
22, 72781, Note_on_c, 9, 42, 0
22, 72840, Note_on_c, 9, 42, 29
22, 72841, Note_on_c, 9, 42, 0
22, 72900, Note_on_c, 9, 42, 24
22, 72901, Note_on_c, 9, 42, 0
22, 72960, Note_on_c, 9, 42, 27
22, 72961, Note_on_c, 9, 42, 0
22, 73020, Note_on_c, 9, 42, 15
22, 73021, Note_on_c, 9, 42, 0
22, 73080, Note_on_c, 9, 42, 26
22, 73081, Note_on_c, 9, 42, 0
22, 73140, Note_on_c, 9, 42, 19
22, 73141, Note_on_c, 9, 42, 0
22, 73200, Note_on_c, 9, 42, 26
22, 73201, Note_on_c, 9, 42, 0
22, 73260, Note_on_c, 9, 42, 16
22, 73261, Note_on_c, 9, 42, 0
22, 73320, Note_on_c, 9, 42, 24
22, 73321, Note_on_c, 9, 42, 0
22, 73380, Note_on_c, 9, 42, 21
22, 73381, Note_on_c, 9, 42, 0
22, 73440, Note_on_c, 9, 42, 23
22, 73441, Note_on_c, 9, 42, 0
22, 73500, Note_on_c, 9, 42, 13
22, 73501, Note_on_c, 9, 42, 0
22, 73560, Note_on_c, 9, 42, 23
22, 73561, Note_on_c, 9, 42, 0
22, 73620, Note_on_c, 9, 42, 16
22, 73621, Note_on_c, 9, 42, 0
22, 73680, Note_on_c, 9, 42, 22
22, 73681, Note_on_c, 9, 42, 0
22, 73740, Note_on_c, 9, 42, 14
22, 73741, Note_on_c, 9, 42, 0
22, 73800, Note_on_c, 9, 42, 22
22, 73801, Note_on_c, 9, 42, 0
22, 73860, Note_on_c, 9, 42, 17
22, 73861, Note_on_c, 9, 42, 0
22, 73920, Note_on_c, 9, 42, 17
22, 73921, Note_on_c, 9, 42, 0
22, 73980, Note_on_c, 9, 42, 8
22, 73981, Note_on_c, 9, 42, 0
22, 74040, Note_on_c, 9, 42, 14
22, 74041, Note_on_c, 9, 42, 0
22, 74100, Note_on_c, 9, 42, 9
22, 74101, Note_on_c, 9, 42, 0
22, 74160, Note_on_c, 9, 42, 12
22, 74161, Note_on_c, 9, 42, 0
22, 74220, Note_on_c, 9, 42, 7
22, 74221, Note_on_c, 9, 42, 0
22, 74280, Note_on_c, 9, 42, 11
22, 74281, Note_on_c, 9, 42, 0
22, 74340, Note_on_c, 9, 42, 7
22, 74341, Note_on_c, 9, 42, 0
22, 74400, Note_on_c, 9, 42, 8
22, 74401, Note_on_c, 9, 42, 0
22, 74460, Note_on_c, 9, 42, 4
22, 74461, Note_on_c, 9, 42, 0
22, 74520, Note_on_c, 9, 42, 6
22, 74521, Note_on_c, 9, 42, 0
22, 74580, Note_on_c, 9, 42, 5
22, 74581, Note_on_c, 9, 42, 0
22, 74640, Note_on_c, 9, 42, 5
22, 74641, Note_on_c, 9, 42, 0
22, 74700, Note_on_c, 9, 42, 2
22, 74701, Note_on_c, 9, 42, 0
22, 74760, Note_on_c, 9, 42, 4
22, 74761, Note_on_c, 9, 42, 0
22, 74820, Note_on_c, 9, 42, 3
22, 74821, Note_on_c, 9, 42, 0
22, 74880, Note_on_c, 9, 42, 3
22, 74881, Note_on_c, 9, 42, 0
22, 75000, Note_on_c, 9, 42, 2
22, 75001, Note_on_c, 9, 42, 0
22, 75060, Note_on_c, 9, 42, 1
22, 75061, Note_on_c, 9, 42, 0
22, 75120, Note_on_c, 9, 42, 1
22, 75121, Note_on_c, 9, 42, 0
22, 75121, End_track
23, 0, Start_track
23, 165, Control_c, 9, 0, 0
23, 166, Control_c, 9, 32, 3
23, 167, Program_c, 9, 0
23, 3901, Note_on_c, 9, 48, 39
23, 3902, Note_on_c, 9, 48, 0
23, 4023, Note_on_c, 9, 48, 33
23, 4024, Note_on_c, 9, 48, 0
23, 4148, Note_on_c, 9, 48, 34
23, 4149, Note_on_c, 9, 48, 0
23, 4259, Note_on_c, 9, 48, 35
23, 4260, Note_on_c, 9, 48, 0
23, 4380, Note_on_c, 9, 48, 40
23, 4381, Note_on_c, 9, 48, 0
23, 4500, Note_on_c, 9, 48, 38
23, 4501, Note_on_c, 9, 48, 0
23, 4620, Note_on_c, 9, 48, 39
23, 4621, Note_on_c, 9, 48, 0
23, 4740, Note_on_c, 9, 48, 41
23, 4741, Note_on_c, 9, 48, 0
23, 4860, Note_on_c, 9, 48, 40
23, 4861, Note_on_c, 9, 48, 0
23, 4980, Note_on_c, 9, 48, 38
23, 4981, Note_on_c, 9, 48, 0
23, 5100, Note_on_c, 9, 48, 39
23, 5101, Note_on_c, 9, 48, 0
23, 5220, Note_on_c, 9, 48, 41
23, 5221, Note_on_c, 9, 48, 0
23, 5340, Note_on_c, 9, 48, 40
23, 5341, Note_on_c, 9, 48, 0
23, 5460, Note_on_c, 9, 48, 38
23, 5461, Note_on_c, 9, 48, 0
23, 5580, Note_on_c, 9, 48, 39
23, 5581, Note_on_c, 9, 48, 0
23, 5700, Note_on_c, 9, 48, 41
23, 5701, Note_on_c, 9, 48, 0
23, 5820, Note_on_c, 9, 48, 40
23, 5821, Note_on_c, 9, 48, 0
23, 5940, Note_on_c, 9, 48, 38
23, 5941, Note_on_c, 9, 48, 0
23, 6060, Note_on_c, 9, 48, 39
23, 6061, Note_on_c, 9, 48, 0
23, 6180, Note_on_c, 9, 48, 41
23, 6181, Note_on_c, 9, 48, 0
23, 6301, Note_on_c, 9, 48, 39
23, 6302, Note_on_c, 9, 48, 0
23, 6423, Note_on_c, 9, 48, 33
23, 6424, Note_on_c, 9, 48, 0
23, 6548, Note_on_c, 9, 48, 34
23, 6549, Note_on_c, 9, 48, 0
23, 6659, Note_on_c, 9, 48, 35
23, 6660, Note_on_c, 9, 48, 0
23, 6780, Note_on_c, 9, 48, 40
23, 6781, Note_on_c, 9, 48, 0
23, 6900, Note_on_c, 9, 48, 38
23, 6901, Note_on_c, 9, 48, 0
23, 7020, Note_on_c, 9, 48, 39
23, 7021, Note_on_c, 9, 48, 0
23, 7140, Note_on_c, 9, 48, 41
23, 7141, Note_on_c, 9, 48, 0
23, 7260, Note_on_c, 9, 48, 40
23, 7261, Note_on_c, 9, 48, 0
23, 7380, Note_on_c, 9, 48, 38
23, 7381, Note_on_c, 9, 48, 0
23, 7500, Note_on_c, 9, 48, 39
23, 7501, Note_on_c, 9, 48, 0
23, 7620, Note_on_c, 9, 48, 41
23, 7621, Note_on_c, 9, 48, 0
23, 7740, Note_on_c, 9, 48, 40
23, 7741, Note_on_c, 9, 48, 0
23, 7860, Note_on_c, 9, 48, 38
23, 7861, Note_on_c, 9, 48, 0
23, 7980, Note_on_c, 9, 48, 39
23, 7981, Note_on_c, 9, 48, 0
23, 8100, Note_on_c, 9, 48, 41
23, 8101, Note_on_c, 9, 48, 0
23, 8220, Note_on_c, 9, 48, 40
23, 8221, Note_on_c, 9, 48, 0
23, 8340, Note_on_c, 9, 48, 38
23, 8341, Note_on_c, 9, 48, 0
23, 8460, Note_on_c, 9, 48, 39
23, 8461, Note_on_c, 9, 48, 0
23, 8580, Note_on_c, 9, 48, 41
23, 8581, Note_on_c, 9, 48, 0
23, 8700, Note_on_c, 9, 48, 40
23, 8701, Note_on_c, 9, 48, 0
23, 8820, Note_on_c, 9, 48, 38
23, 8821, Note_on_c, 9, 48, 0
23, 8940, Note_on_c, 9, 48, 39
23, 8941, Note_on_c, 9, 48, 0
23, 9060, Note_on_c, 9, 48, 41
23, 9061, Note_on_c, 9, 48, 0
23, 9180, Note_on_c, 9, 48, 40
23, 9181, Note_on_c, 9, 48, 0
23, 9300, Note_on_c, 9, 48, 38
23, 9301, Note_on_c, 9, 48, 0
23, 9420, Note_on_c, 9, 48, 39
23, 9421, Note_on_c, 9, 48, 0
23, 9540, Note_on_c, 9, 48, 41
23, 9541, Note_on_c, 9, 48, 0
23, 9660, Note_on_c, 9, 48, 40
23, 9661, Note_on_c, 9, 48, 0
23, 9780, Note_on_c, 9, 48, 38
23, 9781, Note_on_c, 9, 48, 0
23, 9900, Note_on_c, 9, 48, 39
23, 9901, Note_on_c, 9, 48, 0
23, 10020, Note_on_c, 9, 48, 41
23, 10021, Note_on_c, 9, 48, 0
23, 11820, Note_on_c, 9, 48, 71
23, 11821, Note_on_c, 9, 48, 0
23, 13740, Note_on_c, 9, 48, 71
23, 13741, Note_on_c, 9, 48, 0
23, 15660, Note_on_c, 9, 48, 71
23, 15661, Note_on_c, 9, 48, 0
23, 15900, Note_on_c, 9, 48, 40
23, 15901, Note_on_c, 9, 48, 0
23, 16020, Note_on_c, 9, 48, 38
23, 16021, Note_on_c, 9, 48, 0
23, 16140, Note_on_c, 9, 48, 39
23, 16141, Note_on_c, 9, 48, 0
23, 16260, Note_on_c, 9, 48, 41
23, 16261, Note_on_c, 9, 48, 0
23, 16380, Note_on_c, 9, 48, 40
23, 16381, Note_on_c, 9, 48, 0
23, 16500, Note_on_c, 9, 48, 38
23, 16501, Note_on_c, 9, 48, 0
23, 16620, Note_on_c, 9, 48, 39
23, 16621, Note_on_c, 9, 48, 0
23, 16740, Note_on_c, 9, 48, 41
23, 16741, Note_on_c, 9, 48, 0
23, 16860, Note_on_c, 9, 48, 40
23, 16861, Note_on_c, 9, 48, 0
23, 16980, Note_on_c, 9, 48, 38
23, 16981, Note_on_c, 9, 48, 0
23, 17100, Note_on_c, 9, 48, 39
23, 17101, Note_on_c, 9, 48, 0
23, 17220, Note_on_c, 9, 48, 41
23, 17221, Note_on_c, 9, 48, 0
23, 17340, Note_on_c, 9, 48, 40
23, 17341, Note_on_c, 9, 48, 0
23, 17460, Note_on_c, 9, 48, 38
23, 17461, Note_on_c, 9, 48, 0
23, 17580, Note_on_c, 9, 48, 39
23, 17581, Note_on_c, 9, 48, 0
23, 17700, Note_on_c, 9, 48, 41
23, 17701, Note_on_c, 9, 48, 0
23, 17821, Note_on_c, 9, 48, 39
23, 17822, Note_on_c, 9, 48, 0
23, 17943, Note_on_c, 9, 48, 33
23, 17944, Note_on_c, 9, 48, 0
23, 18068, Note_on_c, 9, 48, 34
23, 18069, Note_on_c, 9, 48, 0
23, 18179, Note_on_c, 9, 48, 35
23, 18180, Note_on_c, 9, 48, 0
23, 18300, Note_on_c, 9, 48, 40
23, 18301, Note_on_c, 9, 48, 0
23, 18420, Note_on_c, 9, 48, 38
23, 18421, Note_on_c, 9, 48, 0
23, 18540, Note_on_c, 9, 48, 39
23, 18541, Note_on_c, 9, 48, 0
23, 18660, Note_on_c, 9, 48, 41
23, 18661, Note_on_c, 9, 48, 0
23, 18780, Note_on_c, 9, 48, 40
23, 18781, Note_on_c, 9, 48, 0
23, 18900, Note_on_c, 9, 48, 38
23, 18901, Note_on_c, 9, 48, 0
23, 19020, Note_on_c, 9, 48, 39
23, 19021, Note_on_c, 9, 48, 0
23, 19140, Note_on_c, 9, 48, 41
23, 19141, Note_on_c, 9, 48, 0
23, 19260, Note_on_c, 9, 48, 40
23, 19261, Note_on_c, 9, 48, 0
23, 19380, Note_on_c, 9, 48, 38
23, 19381, Note_on_c, 9, 48, 0
23, 19500, Note_on_c, 9, 48, 39
23, 19501, Note_on_c, 9, 48, 0
23, 19620, Note_on_c, 9, 48, 41
23, 19621, Note_on_c, 9, 48, 0
23, 19740, Note_on_c, 9, 48, 40
23, 19741, Note_on_c, 9, 48, 0
23, 19860, Note_on_c, 9, 48, 38
23, 19861, Note_on_c, 9, 48, 0
23, 19980, Note_on_c, 9, 48, 39
23, 19981, Note_on_c, 9, 48, 0
23, 20100, Note_on_c, 9, 48, 41
23, 20101, Note_on_c, 9, 48, 0
23, 20221, Note_on_c, 9, 48, 39
23, 20222, Note_on_c, 9, 48, 0
23, 20343, Note_on_c, 9, 48, 33
23, 20344, Note_on_c, 9, 48, 0
23, 20468, Note_on_c, 9, 48, 34
23, 20469, Note_on_c, 9, 48, 0
23, 20579, Note_on_c, 9, 48, 35
23, 20580, Note_on_c, 9, 48, 0
23, 20700, Note_on_c, 9, 48, 40
23, 20701, Note_on_c, 9, 48, 0
23, 20820, Note_on_c, 9, 48, 38
23, 20821, Note_on_c, 9, 48, 0
23, 20940, Note_on_c, 9, 48, 39
23, 20941, Note_on_c, 9, 48, 0
23, 21060, Note_on_c, 9, 48, 41
23, 21061, Note_on_c, 9, 48, 0
23, 21180, Note_on_c, 9, 48, 40
23, 21181, Note_on_c, 9, 48, 0
23, 21300, Note_on_c, 9, 48, 38
23, 21301, Note_on_c, 9, 48, 0
23, 21420, Note_on_c, 9, 48, 39
23, 21421, Note_on_c, 9, 48, 0
23, 21540, Note_on_c, 9, 48, 41
23, 21541, Note_on_c, 9, 48, 0
23, 21660, Note_on_c, 9, 48, 40
23, 21661, Note_on_c, 9, 48, 0
23, 21780, Note_on_c, 9, 48, 38
23, 21781, Note_on_c, 9, 48, 0
23, 21900, Note_on_c, 9, 48, 39
23, 21901, Note_on_c, 9, 48, 0
23, 22020, Note_on_c, 9, 48, 41
23, 22021, Note_on_c, 9, 48, 0
23, 22140, Note_on_c, 9, 48, 40
23, 22141, Note_on_c, 9, 48, 0
23, 22260, Note_on_c, 9, 48, 38
23, 22261, Note_on_c, 9, 48, 0
23, 22380, Note_on_c, 9, 48, 39
23, 22381, Note_on_c, 9, 48, 0
23, 22500, Note_on_c, 9, 48, 41
23, 22501, Note_on_c, 9, 48, 0
23, 22620, Note_on_c, 9, 48, 40
23, 22621, Note_on_c, 9, 48, 0
23, 22740, Note_on_c, 9, 48, 38
23, 22741, Note_on_c, 9, 48, 0
23, 22860, Note_on_c, 9, 48, 39
23, 22861, Note_on_c, 9, 48, 0
23, 22980, Note_on_c, 9, 48, 41
23, 22981, Note_on_c, 9, 48, 0
23, 23100, Note_on_c, 9, 48, 40
23, 23101, Note_on_c, 9, 48, 0
23, 23220, Note_on_c, 9, 48, 38
23, 23221, Note_on_c, 9, 48, 0
23, 23340, Note_on_c, 9, 48, 39
23, 23341, Note_on_c, 9, 48, 0
23, 23460, Note_on_c, 9, 48, 41
23, 23461, Note_on_c, 9, 48, 0
23, 23580, Note_on_c, 9, 48, 40
23, 23581, Note_on_c, 9, 48, 0
23, 23700, Note_on_c, 9, 48, 38
23, 23701, Note_on_c, 9, 48, 0
23, 23820, Note_on_c, 9, 48, 39
23, 23821, Note_on_c, 9, 48, 0
23, 23940, Note_on_c, 9, 48, 41
23, 23941, Note_on_c, 9, 48, 0
23, 25740, Note_on_c, 9, 48, 71
23, 25741, Note_on_c, 9, 48, 0
23, 27660, Note_on_c, 9, 48, 71
23, 27661, Note_on_c, 9, 48, 0
23, 29580, Note_on_c, 9, 48, 71
23, 29581, Note_on_c, 9, 48, 0
23, 29820, Note_on_c, 9, 48, 40
23, 29821, Note_on_c, 9, 48, 0
23, 29940, Note_on_c, 9, 48, 38
23, 29941, Note_on_c, 9, 48, 0
23, 30060, Note_on_c, 9, 48, 39
23, 30061, Note_on_c, 9, 48, 0
23, 30180, Note_on_c, 9, 48, 41
23, 30181, Note_on_c, 9, 48, 0
23, 30300, Note_on_c, 9, 48, 40
23, 30301, Note_on_c, 9, 48, 0
23, 30420, Note_on_c, 9, 48, 38
23, 30421, Note_on_c, 9, 48, 0
23, 30540, Note_on_c, 9, 48, 39
23, 30541, Note_on_c, 9, 48, 0
23, 30660, Note_on_c, 9, 48, 41
23, 30661, Note_on_c, 9, 48, 0
23, 30780, Note_on_c, 9, 48, 40
23, 30781, Note_on_c, 9, 48, 0
23, 30900, Note_on_c, 9, 48, 38
23, 30901, Note_on_c, 9, 48, 0
23, 31020, Note_on_c, 9, 48, 39
23, 31021, Note_on_c, 9, 48, 0
23, 31140, Note_on_c, 9, 48, 41
23, 31141, Note_on_c, 9, 48, 0
23, 31260, Note_on_c, 9, 48, 40
23, 31261, Note_on_c, 9, 48, 0
23, 31380, Note_on_c, 9, 48, 38
23, 31381, Note_on_c, 9, 48, 0
23, 31500, Note_on_c, 9, 48, 39
23, 31501, Note_on_c, 9, 48, 0
23, 31620, Note_on_c, 9, 48, 41
23, 31621, Note_on_c, 9, 48, 0
23, 31741, Note_on_c, 9, 48, 39
23, 31742, Note_on_c, 9, 48, 0
23, 31863, Note_on_c, 9, 48, 33
23, 31864, Note_on_c, 9, 48, 0
23, 31988, Note_on_c, 9, 48, 34
23, 31989, Note_on_c, 9, 48, 0
23, 32099, Note_on_c, 9, 48, 35
23, 32100, Note_on_c, 9, 48, 0
23, 32220, Note_on_c, 9, 48, 40
23, 32221, Note_on_c, 9, 48, 0
23, 32340, Note_on_c, 9, 48, 38
23, 32341, Note_on_c, 9, 48, 0
23, 32460, Note_on_c, 9, 48, 39
23, 32461, Note_on_c, 9, 48, 0
23, 32580, Note_on_c, 9, 48, 41
23, 32581, Note_on_c, 9, 48, 0
23, 32700, Note_on_c, 9, 48, 40
23, 32701, Note_on_c, 9, 48, 0
23, 32820, Note_on_c, 9, 48, 38
23, 32821, Note_on_c, 9, 48, 0
23, 32940, Note_on_c, 9, 48, 39
23, 32941, Note_on_c, 9, 48, 0
23, 33060, Note_on_c, 9, 48, 41
23, 33061, Note_on_c, 9, 48, 0
23, 33180, Note_on_c, 9, 48, 40
23, 33181, Note_on_c, 9, 48, 0
23, 33300, Note_on_c, 9, 48, 38
23, 33301, Note_on_c, 9, 48, 0
23, 33420, Note_on_c, 9, 48, 39
23, 33421, Note_on_c, 9, 48, 0
23, 33540, Note_on_c, 9, 48, 41
23, 33541, Note_on_c, 9, 48, 0
23, 33660, Note_on_c, 9, 48, 40
23, 33661, Note_on_c, 9, 48, 0
23, 33780, Note_on_c, 9, 48, 38
23, 33781, Note_on_c, 9, 48, 0
23, 33900, Note_on_c, 9, 48, 39
23, 33901, Note_on_c, 9, 48, 0
23, 34020, Note_on_c, 9, 48, 41
23, 34021, Note_on_c, 9, 48, 0
23, 34141, Note_on_c, 9, 48, 39
23, 34142, Note_on_c, 9, 48, 0
23, 34263, Note_on_c, 9, 48, 33
23, 34264, Note_on_c, 9, 48, 0
23, 34388, Note_on_c, 9, 48, 34
23, 34389, Note_on_c, 9, 48, 0
23, 34499, Note_on_c, 9, 48, 35
23, 34500, Note_on_c, 9, 48, 0
23, 34620, Note_on_c, 9, 48, 40
23, 34621, Note_on_c, 9, 48, 0
23, 34740, Note_on_c, 9, 48, 38
23, 34741, Note_on_c, 9, 48, 0
23, 34860, Note_on_c, 9, 48, 39
23, 34861, Note_on_c, 9, 48, 0
23, 34980, Note_on_c, 9, 48, 41
23, 34981, Note_on_c, 9, 48, 0
23, 35100, Note_on_c, 9, 48, 40
23, 35101, Note_on_c, 9, 48, 0
23, 35220, Note_on_c, 9, 48, 38
23, 35221, Note_on_c, 9, 48, 0
23, 35340, Note_on_c, 9, 48, 39
23, 35341, Note_on_c, 9, 48, 0
23, 35460, Note_on_c, 9, 48, 41
23, 35461, Note_on_c, 9, 48, 0
23, 35580, Note_on_c, 9, 48, 40
23, 35581, Note_on_c, 9, 48, 0
23, 35700, Note_on_c, 9, 48, 38
23, 35701, Note_on_c, 9, 48, 0
23, 35820, Note_on_c, 9, 48, 39
23, 35821, Note_on_c, 9, 48, 0
23, 35940, Note_on_c, 9, 48, 41
23, 35941, Note_on_c, 9, 48, 0
23, 36060, Note_on_c, 9, 48, 40
23, 36061, Note_on_c, 9, 48, 0
23, 36180, Note_on_c, 9, 48, 38
23, 36181, Note_on_c, 9, 48, 0
23, 36300, Note_on_c, 9, 48, 39
23, 36301, Note_on_c, 9, 48, 0
23, 36420, Note_on_c, 9, 48, 41
23, 36421, Note_on_c, 9, 48, 0
23, 36540, Note_on_c, 9, 48, 40
23, 36541, Note_on_c, 9, 48, 0
23, 36660, Note_on_c, 9, 48, 38
23, 36661, Note_on_c, 9, 48, 0
23, 36780, Note_on_c, 9, 48, 39
23, 36781, Note_on_c, 9, 48, 0
23, 36900, Note_on_c, 9, 48, 41
23, 36901, Note_on_c, 9, 48, 0
23, 37020, Note_on_c, 9, 48, 40
23, 37021, Note_on_c, 9, 48, 0
23, 37140, Note_on_c, 9, 48, 38
23, 37141, Note_on_c, 9, 48, 0
23, 37260, Note_on_c, 9, 48, 39
23, 37261, Note_on_c, 9, 48, 0
23, 37380, Note_on_c, 9, 48, 41
23, 37381, Note_on_c, 9, 48, 0
23, 37500, Note_on_c, 9, 48, 40
23, 37501, Note_on_c, 9, 48, 0
23, 37620, Note_on_c, 9, 48, 38
23, 37621, Note_on_c, 9, 48, 0
23, 37740, Note_on_c, 9, 48, 39
23, 37741, Note_on_c, 9, 48, 0
23, 37860, Note_on_c, 9, 48, 41
23, 37861, Note_on_c, 9, 48, 0
23, 39660, Note_on_c, 9, 48, 71
23, 39661, Note_on_c, 9, 48, 0
23, 41580, Note_on_c, 9, 48, 71
23, 41581, Note_on_c, 9, 48, 0
23, 43500, Note_on_c, 9, 48, 71
23, 43501, Note_on_c, 9, 48, 0
23, 43501, End_track
24, 0, Start_track
24, 165, Control_c, 9, 0, 0
24, 166, Control_c, 9, 32, 3
24, 167, Program_c, 9, 0
24, 45474, Note_on_c, 9, 49, 71
24, 45475, Note_on_c, 9, 49, 0
24, 48360, Note_on_c, 9, 49, 70
24, 48361, Note_on_c, 9, 49, 0
24, 51240, Note_on_c, 9, 49, 67
24, 51241, Note_on_c, 9, 49, 0
24, 53880, Note_on_c, 9, 49, 34
24, 53881, Note_on_c, 9, 49, 0
24, 54000, Note_on_c, 9, 49, 34
24, 54001, Note_on_c, 9, 49, 0
24, 54120, Note_on_c, 9, 49, 33
24, 54121, Note_on_c, 9, 49, 0
24, 57960, Note_on_c, 9, 49, 39
24, 57961, Note_on_c, 9, 49, 0
24, 58440, Note_on_c, 9, 49, 35
24, 58441, Note_on_c, 9, 49, 0
24, 58920, Note_on_c, 9, 49, 56
24, 58921, Note_on_c, 9, 49, 0
24, 60960, Note_on_c, 9, 49, 67
24, 60961, Note_on_c, 9, 49, 0
24, 62520, Note_on_c, 9, 49, 31
24, 62521, Note_on_c, 9, 49, 0
24, 62640, Note_on_c, 9, 49, 23
24, 62641, Note_on_c, 9, 49, 0
24, 62760, Note_on_c, 9, 49, 34
24, 62761, Note_on_c, 9, 49, 0
24, 64800, Note_on_c, 9, 49, 73
24, 64801, Note_on_c, 9, 49, 0
24, 66600, Note_on_c, 9, 49, 52
24, 66601, Note_on_c, 9, 49, 0
24, 68520, Note_on_c, 9, 49, 40
24, 68521, Note_on_c, 9, 49, 0
24, 70560, Note_on_c, 9, 49, 40
24, 70561, Note_on_c, 9, 49, 0
24, 74280, Note_on_c, 9, 49, 10
24, 74281, Note_on_c, 9, 49, 0
24, 74281, End_track
0, 0, End_of_file
