0, 0, Header, 1, 5, 960
1, 0, Start_track
1, 0, Control_c, 0, 101, 0
1, 0, Control_c, 0, 100, 0
1, 0, Control_c, 0, 6, 12
1, 0, Control_c, 0, 38, 0
1, 0, Control_c, 1, 101, 0
1, 0, Control_c, 1, 100, 0
1, 0, Control_c, 1, 6, 12
1, 0, Control_c, 1, 38, 0
1, 0, Control_c, 2, 101, 0
1, 0, Control_c, 2, 100, 0
1, 0, Control_c, 2, 6, 12
1, 0, Control_c, 2, 38, 0
1, 0, Control_c, 3, 101, 0
1, 0, Control_c, 3, 100, 0
1, 0, Control_c, 3, 6, 12
1, 0, Control_c, 3, 38, 0
1, 0, Control_c, 4, 101, 0
1, 0, Control_c, 4, 100, 0
1, 0, Control_c, 4, 6, 12
1, 0, Control_c, 4, 38, 0
1, 0, Control_c, 5, 101, 0
1, 0, Control_c, 5, 100, 0
1, 0, Control_c, 5, 6, 12
1, 0, Control_c, 5, 38, 0
1, 0, Control_c, 6, 101, 0
1, 0, Control_c, 6, 100, 0
1, 0, Control_c, 6, 6, 12
1, 0, Control_c, 6, 38, 0
1, 0, Control_c, 7, 101, 0
1, 0, Control_c, 7, 100, 0
1, 0, Control_c, 7, 6, 12
1, 0, Control_c, 7, 38, 0
1, 0, Control_c, 8, 101, 0
1, 0, Control_c, 8, 100, 0
1, 0, Control_c, 8, 6, 12
1, 0, Control_c, 8, 38, 0
1, 0, Control_c, 9, 101, 0
1, 0, Control_c, 9, 100, 0
1, 0, Control_c, 9, 6, 12
1, 0, Control_c, 9, 38, 0
1, 0, Control_c, 10, 101, 0
1, 0, Control_c, 10, 100, 0
1, 0, Control_c, 10, 6, 12
1, 0, Control_c, 10, 38, 0
1, 0, Control_c, 11, 101, 0
1, 0, Control_c, 11, 100, 0
1, 0, Control_c, 11, 6, 12
1, 0, Control_c, 11, 38, 0
1, 0, Control_c, 12, 101, 0
1, 0, Control_c, 12, 100, 0
1, 0, Control_c, 12, 6, 12
1, 0, Control_c, 12, 38, 0
1, 0, Control_c, 13, 101, 0
1, 0, Control_c, 13, 100, 0
1, 0, Control_c, 13, 6, 12
1, 0, Control_c, 13, 38, 0
1, 0, Control_c, 14, 101, 0
1, 0, Control_c, 14, 100, 0
1, 0, Control_c, 14, 6, 12
1, 0, Control_c, 14, 38, 0
1, 0, Control_c, 15, 101, 0
1, 0, Control_c, 15, 100, 0
1, 0, Control_c, 15, 6, 12
1, 0, Control_c, 15, 38, 0
1, 0, Time_signature, 6, 3, 12, 8
1, 0, Tempo, 612244
1, 0, End_track
2, 0, Start_track
2, 0, Pitch_bend_c, 0, 8192
2, 0, Control_c, 0, 7, 103
2, 0, Control_c, 0, 10, 63
2, 0, Control_c, 0, 93, 0
2, 0, Control_c, 0, 91, 0
2, 0, Control_c, 0, 95, 0
2, 0, Control_c, 0, 92, 0
2, 0, Control_c, 0, 11, 127
2, 0, Program_c, 0, 27
2, 0, Control_c, 1, 7, 103
2, 0, Control_c, 1, 10, 63
2, 0, Control_c, 1, 93, 0
2, 0, Control_c, 1, 91, 0
2, 0, Control_c, 1, 95, 0
2, 0, Control_c, 1, 92, 0
2, 0, Control_c, 1, 11, 127
2, 0, Program_c, 1, 27
2, 0, Note_on_c, 0, 53, 95
2, 240, Note_off_c, 0, 53, 95
2, 240, Note_on_c, 0, 56, 95
2, 480, Note_off_c, 0, 56, 95
2, 480, Note_on_c, 0, 60, 95
2, 720, Note_off_c, 0, 60, 95
2, 720, Note_on_c, 0, 65, 95
2, 960, Note_off_c, 0, 65, 95
2, 960, Note_on_c, 0, 62, 95
2, 1200, Note_off_c, 0, 62, 95
2, 1200, Note_on_c, 0, 60, 70
2, 1440, Note_off_c, 0, 60, 70
2, 1440, Note_on_c, 0, 58, 95
2, 1680, Note_off_c, 0, 58, 95
2, 1680, Note_on_c, 0, 56, 70
2, 1920, Note_off_c, 0, 56, 70
2, 1920, Note_on_c, 0, 58, 95
2, 2160, Note_off_c, 0, 58, 95
2, 2160, Note_on_c, 0, 56, 70
2, 2400, Note_off_c, 0, 56, 70
2, 2400, Note_on_c, 0, 58, 95
2, 2640, Note_off_c, 0, 58, 95
2, 2640, Note_on_c, 0, 56, 70
2, 2880, Note_off_c, 0, 56, 70
2, 2880, Note_on_c, 0, 53, 95
2, 3120, Note_off_c, 0, 53, 95
2, 3120, Note_on_c, 0, 56, 95
2, 3360, Note_off_c, 0, 56, 95
2, 3360, Note_on_c, 0, 60, 95
2, 3600, Note_off_c, 0, 60, 95
2, 3600, Note_on_c, 0, 65, 95
2, 3840, Note_off_c, 0, 65, 95
2, 3840, Note_on_c, 0, 62, 95
2, 4080, Note_off_c, 0, 62, 95
2, 4080, Note_on_c, 0, 60, 70
2, 4320, Note_off_c, 0, 60, 70
2, 4320, Note_on_c, 0, 67, 95
2, 4560, Note_off_c, 0, 67, 95
2, 4560, Note_on_c, 0, 65, 70
2, 4800, Note_off_c, 0, 65, 70
2, 4800, Note_on_c, 0, 62, 95
2, 5040, Note_off_c, 0, 62, 95
2, 5040, Note_on_c, 0, 60, 70
2, 5280, Note_off_c, 0, 60, 70
2, 5280, Note_on_c, 0, 58, 95
2, 5520, Note_off_c, 0, 58, 95
2, 5520, Note_on_c, 0, 56, 70
2, 5760, Note_off_c, 0, 56, 70
2, 5760, Note_on_c, 0, 55, 95
2, 6000, Note_off_c, 0, 55, 95
2, 6000, Note_on_c, 0, 58, 95
2, 6240, Note_off_c, 0, 58, 95
2, 6240, Note_on_c, 0, 62, 95
2, 6480, Note_off_c, 0, 62, 95
2, 6480, Note_on_c, 0, 67, 95
2, 6720, Note_off_c, 0, 67, 95
2, 6720, Note_on_c, 0, 64, 95
2, 6960, Note_off_c, 0, 64, 95
2, 6960, Note_on_c, 0, 62, 70
2, 7200, Note_off_c, 0, 62, 70
2, 7200, Note_on_c, 0, 60, 95
2, 7440, Note_off_c, 0, 60, 95
2, 7440, Note_on_c, 0, 58, 70
2, 7680, Note_off_c, 0, 58, 70
2, 7680, Note_on_c, 0, 60, 95
2, 7920, Note_off_c, 0, 60, 95
2, 7920, Note_on_c, 0, 58, 70
2, 8160, Note_off_c, 0, 58, 70
2, 8160, Note_on_c, 0, 60, 95
2, 8400, Note_off_c, 0, 60, 95
2, 8400, Note_on_c, 0, 58, 70
2, 8640, Note_off_c, 0, 58, 70
2, 8640, Note_on_c, 0, 55, 95
2, 8880, Note_off_c, 0, 55, 95
2, 8880, Note_on_c, 0, 58, 95
2, 9120, Note_off_c, 0, 58, 95
2, 9120, Note_on_c, 0, 62, 95
2, 9360, Note_off_c, 0, 62, 95
2, 9360, Note_on_c, 0, 67, 95
2, 9600, Note_off_c, 0, 67, 95
2, 9600, Note_on_c, 0, 64, 95
2, 9840, Note_off_c, 0, 64, 95
2, 9840, Note_on_c, 0, 62, 70
2, 10080, Note_off_c, 0, 62, 70
2, 10080, Note_on_c, 0, 69, 95
2, 10320, Note_off_c, 0, 69, 95
2, 10320, Note_on_c, 0, 67, 70
2, 10560, Note_off_c, 0, 67, 70
2, 10560, Note_on_c, 0, 64, 95
2, 10800, Note_off_c, 0, 64, 95
2, 10800, Note_on_c, 0, 62, 70
2, 11040, Note_off_c, 0, 62, 70
2, 11040, Note_on_c, 0, 60, 95
2, 11280, Note_off_c, 0, 60, 95
2, 11280, Note_on_c, 0, 58, 70
2, 11520, Note_off_c, 0, 58, 70
2, 11520, Note_on_c, 0, 64, 95
2, 11520, Note_on_c, 0, 59, 95
2, 11520, Note_on_c, 0, 55, 95
2, 11520, Note_on_c, 0, 52, 95
2, 11520, Note_on_c, 0, 47, 95
2, 11520, Note_on_c, 0, 40, 95
2, 17280, Note_off_c, 0, 64, 95
2, 17280, Note_off_c, 0, 59, 95
2, 17280, Note_off_c, 0, 55, 95
2, 17280, Note_off_c, 0, 52, 95
2, 17280, Note_off_c, 0, 47, 95
2, 17280, Note_off_c, 0, 40, 95
2, 17280, Note_on_c, 0, 73, 95
2, 17280, Note_on_c, 0, 69, 95
2, 17280, Note_on_c, 0, 64, 95
2, 17280, Note_on_c, 0, 45, 63
2, 17280, Note_on_c, 0, 38, 63
2, 17520, Note_off_c, 0, 73, 95
2, 17520, Note_off_c, 0, 69, 95
2, 17520, Note_off_c, 0, 64, 95
2, 17520, Note_off_c, 0, 45, 63
2, 17520, Note_off_c, 0, 38, 63
2, 17520, Note_on_c, 0, 74, 70
2, 17520, Note_on_c, 0, 66, 70
2, 17760, Note_off_c, 0, 74, 70
2, 17760, Note_off_c, 0, 66, 70
2, 17760, Note_on_c, 0, 74, 95
2, 17760, Note_on_c, 0, 69, 95
2, 17760, Note_on_c, 0, 66, 95
2, 18000, Note_off_c, 0, 74, 95
2, 18000, Note_off_c, 0, 69, 95
2, 18000, Note_off_c, 0, 66, 95
2, 18000, Note_on_c, 0, 73, 95
2, 18000, Note_on_c, 0, 69, 95
2, 18000, Note_on_c, 0, 64, 95
2, 18240, Note_off_c, 0, 73, 95
2, 18240, Note_off_c, 0, 69, 95
2, 18240, Note_off_c, 0, 64, 95
2, 18240, Note_on_c, 0, 59, 95
2, 18240, Note_on_c, 0, 55, 95
2, 18240, Note_on_c, 0, 50, 95
2, 18289, Note_off_c, 0, 59, 95
2, 18289, Note_off_c, 0, 55, 95
2, 18289, Note_off_c, 0, 50, 95
2, 18480, Note_on_c, 0, 73, 95
2, 18480, Note_on_c, 0, 69, 95
2, 18480, Note_on_c, 0, 64, 95
2, 18720, Note_off_c, 0, 73, 95
2, 18720, Note_off_c, 0, 69, 95
2, 18720, Note_off_c, 0, 64, 95
2, 18720, Note_on_c, 0, 73, 95
2, 18720, Note_on_c, 0, 69, 95
2, 18720, Note_on_c, 0, 64, 95
2, 18960, Note_off_c, 0, 73, 95
2, 18960, Note_off_c, 0, 69, 95
2, 18960, Note_off_c, 0, 64, 95
2, 18960, Note_on_c, 0, 74, 70
2, 18960, Note_on_c, 0, 66, 70
2, 19200, Note_off_c, 0, 74, 70
2, 19200, Note_off_c, 0, 66, 70
2, 19200, Note_on_c, 0, 74, 95
2, 19200, Note_on_c, 0, 69, 95
2, 19200, Note_on_c, 0, 66, 95
2, 19440, Note_off_c, 0, 74, 95
2, 19440, Note_off_c, 0, 69, 95
2, 19440, Note_off_c, 0, 66, 95
2, 19440, Note_on_c, 0, 73, 95
2, 19440, Note_on_c, 0, 69, 95
2, 19440, Note_on_c, 0, 64, 95
2, 19680, Note_off_c, 0, 73, 95
2, 19680, Note_off_c, 0, 69, 95
2, 19680, Note_off_c, 0, 64, 95
2, 19680, Note_on_c, 0, 59, 95
2, 19680, Note_on_c, 0, 55, 95
2, 19680, Note_on_c, 0, 50, 95
2, 19729, Note_off_c, 0, 59, 95
2, 19729, Note_off_c, 0, 55, 95
2, 19729, Note_off_c, 0, 50, 95
2, 19920, Note_on_c, 0, 73, 95
2, 19920, Note_on_c, 0, 69, 95
2, 19920, Note_on_c, 0, 64, 95
2, 20160, Note_off_c, 0, 73, 95
2, 20160, Note_off_c, 0, 69, 95
2, 20160, Note_off_c, 0, 64, 95
2, 20160, Note_on_c, 0, 73, 95
2, 20160, Note_on_c, 0, 69, 95
2, 20160, Note_on_c, 0, 64, 95
2, 20400, Note_off_c, 0, 73, 95
2, 20400, Note_off_c, 0, 69, 95
2, 20400, Note_off_c, 0, 64, 95
2, 20400, Note_on_c, 0, 74, 70
2, 20400, Note_on_c, 0, 66, 70
2, 20640, Note_off_c, 0, 74, 70
2, 20640, Note_off_c, 0, 66, 70
2, 20640, Note_on_c, 0, 81, 95
2, 20640, Note_on_c, 0, 74, 95
2, 20640, Note_on_c, 0, 69, 95
2, 20880, Note_off_c, 0, 81, 95
2, 20880, Note_off_c, 0, 74, 95
2, 20880, Note_off_c, 0, 69, 95
2, 20880, Note_on_c, 0, 81, 95
2, 20880, Note_on_c, 0, 74, 95
2, 20880, Note_on_c, 0, 69, 95
2, 21120, Note_off_c, 0, 81, 95
2, 21120, Note_off_c, 0, 74, 95
2, 21120, Note_off_c, 0, 69, 95
2, 21120, Note_on_c, 0, 81, 95
2, 21120, Note_on_c, 0, 74, 95
2, 21120, Note_on_c, 0, 69, 95
2, 21360, Note_off_c, 0, 81, 95
2, 21360, Note_off_c, 0, 74, 95
2, 21360, Note_off_c, 0, 69, 95
2, 21360, Note_on_c, 0, 73, 95
2, 21360, Note_on_c, 0, 69, 95
2, 21600, Note_off_c, 0, 73, 95
2, 21600, Note_off_c, 0, 69, 95
2, 21600, Note_on_c, 0, 79, 95
2, 21600, Note_on_c, 0, 73, 95
2, 21600, Note_on_c, 0, 69, 95
2, 21840, Note_off_c, 0, 79, 95
2, 21840, Note_off_c, 0, 73, 95
2, 21840, Note_off_c, 0, 69, 95
2, 21840, Note_on_c, 0, 73, 95
2, 21840, Note_on_c, 0, 69, 95
2, 22080, Note_off_c, 0, 73, 95
2, 22080, Note_off_c, 0, 69, 95
2, 22080, Note_on_c, 0, 76, 95
2, 22080, Note_on_c, 0, 69, 95
2, 22320, Note_off_c, 0, 76, 95
2, 22320, Note_off_c, 0, 69, 95
2, 22320, Note_on_c, 0, 73, 95
2, 22320, Note_on_c, 0, 69, 95
2, 22560, Note_off_c, 0, 73, 95
2, 22560, Note_off_c, 0, 69, 95
2, 22560, Note_on_c, 0, 73, 95
2, 22560, Note_on_c, 0, 69, 95
2, 22800, Note_off_c, 0, 73, 95
2, 22800, Note_off_c, 0, 69, 95
2, 22800, Note_on_c, 0, 69, 95
2, 22800, Note_on_c, 0, 64, 95
2, 23040, Note_off_c, 0, 69, 95
2, 23040, Note_off_c, 0, 64, 95
2, 23040, Note_on_c, 0, 73, 95
2, 23040, Note_on_c, 0, 69, 95
2, 23040, Note_on_c, 0, 64, 95
2, 23040, Note_on_c, 0, 45, 63
2, 23040, Note_on_c, 0, 38, 63
2, 23280, Note_off_c, 0, 73, 95
2, 23280, Note_off_c, 0, 69, 95
2, 23280, Note_off_c, 0, 64, 95
2, 23280, Note_off_c, 0, 45, 63
2, 23280, Note_off_c, 0, 38, 63
2, 23280, Note_on_c, 0, 74, 70
2, 23280, Note_on_c, 0, 66, 70
2, 23520, Note_off_c, 0, 74, 70
2, 23520, Note_off_c, 0, 66, 70
2, 23520, Note_on_c, 0, 74, 95
2, 23520, Note_on_c, 0, 69, 95
2, 23520, Note_on_c, 0, 66, 95
2, 23760, Note_off_c, 0, 74, 95
2, 23760, Note_off_c, 0, 69, 95
2, 23760, Note_off_c, 0, 66, 95
2, 23760, Note_on_c, 0, 73, 95
2, 23760, Note_on_c, 0, 69, 95
2, 23760, Note_on_c, 0, 64, 95
2, 24000, Note_off_c, 0, 73, 95
2, 24000, Note_off_c, 0, 69, 95
2, 24000, Note_off_c, 0, 64, 95
2, 24000, Note_on_c, 0, 59, 95
2, 24000, Note_on_c, 0, 55, 95
2, 24000, Note_on_c, 0, 50, 95
2, 24049, Note_off_c, 0, 59, 95
2, 24049, Note_off_c, 0, 55, 95
2, 24049, Note_off_c, 0, 50, 95
2, 24240, Note_on_c, 0, 73, 95
2, 24240, Note_on_c, 0, 69, 95
2, 24240, Note_on_c, 0, 64, 95
2, 24480, Note_off_c, 0, 73, 95
2, 24480, Note_off_c, 0, 69, 95
2, 24480, Note_off_c, 0, 64, 95
2, 24480, Note_on_c, 0, 73, 95
2, 24480, Note_on_c, 0, 69, 95
2, 24480, Note_on_c, 0, 64, 95
2, 24720, Note_off_c, 0, 73, 95
2, 24720, Note_off_c, 0, 69, 95
2, 24720, Note_off_c, 0, 64, 95
2, 24720, Note_on_c, 0, 74, 70
2, 24720, Note_on_c, 0, 66, 70
2, 24960, Note_off_c, 0, 74, 70
2, 24960, Note_off_c, 0, 66, 70
2, 24960, Note_on_c, 0, 74, 95
2, 24960, Note_on_c, 0, 69, 95
2, 24960, Note_on_c, 0, 66, 95
2, 25200, Note_off_c, 0, 74, 95
2, 25200, Note_off_c, 0, 69, 95
2, 25200, Note_off_c, 0, 66, 95
2, 25200, Note_on_c, 0, 73, 95
2, 25200, Note_on_c, 0, 69, 95
2, 25200, Note_on_c, 0, 64, 95
2, 25440, Note_off_c, 0, 73, 95
2, 25440, Note_off_c, 0, 69, 95
2, 25440, Note_off_c, 0, 64, 95
2, 25440, Note_on_c, 0, 59, 95
2, 25440, Note_on_c, 0, 55, 95
2, 25440, Note_on_c, 0, 50, 95
2, 25489, Note_off_c, 0, 59, 95
2, 25489, Note_off_c, 0, 55, 95
2, 25489, Note_off_c, 0, 50, 95
2, 25680, Note_on_c, 0, 73, 95
2, 25680, Note_on_c, 0, 69, 95
2, 25680, Note_on_c, 0, 64, 95
2, 25920, Note_off_c, 0, 73, 95
2, 25920, Note_off_c, 0, 69, 95
2, 25920, Note_off_c, 0, 64, 95
2, 25920, Note_on_c, 0, 73, 95
2, 25920, Note_on_c, 0, 69, 95
2, 25920, Note_on_c, 0, 64, 95
2, 26160, Note_off_c, 0, 73, 95
2, 26160, Note_off_c, 0, 69, 95
2, 26160, Note_off_c, 0, 64, 95
2, 26160, Note_on_c, 0, 74, 70
2, 26160, Note_on_c, 0, 66, 70
2, 26400, Note_off_c, 0, 74, 70
2, 26400, Note_off_c, 0, 66, 70
2, 26400, Note_on_c, 0, 81, 95
2, 26400, Note_on_c, 0, 74, 95
2, 26400, Note_on_c, 0, 69, 95
2, 26640, Note_off_c, 0, 81, 95
2, 26640, Note_off_c, 0, 74, 95
2, 26640, Note_off_c, 0, 69, 95
2, 26640, Note_on_c, 0, 81, 95
2, 26640, Note_on_c, 0, 74, 95
2, 26640, Note_on_c, 0, 69, 95
2, 26880, Note_off_c, 0, 81, 95
2, 26880, Note_off_c, 0, 74, 95
2, 26880, Note_off_c, 0, 69, 95
2, 26880, Note_on_c, 0, 81, 95
2, 26880, Note_on_c, 0, 74, 95
2, 26880, Note_on_c, 0, 69, 95
2, 27120, Note_off_c, 0, 81, 95
2, 27120, Note_off_c, 0, 74, 95
2, 27120, Note_off_c, 0, 69, 95
2, 27120, Note_on_c, 0, 73, 95
2, 27120, Note_on_c, 0, 69, 95
2, 27360, Note_off_c, 0, 73, 95
2, 27360, Note_off_c, 0, 69, 95
2, 27360, Note_on_c, 0, 79, 95
2, 27360, Note_on_c, 0, 73, 95
2, 27360, Note_on_c, 0, 69, 95
2, 27600, Note_off_c, 0, 79, 95
2, 27600, Note_off_c, 0, 73, 95
2, 27600, Note_off_c, 0, 69, 95
2, 27600, Note_on_c, 0, 73, 95
2, 27600, Note_on_c, 0, 69, 95
2, 27840, Note_off_c, 0, 73, 95
2, 27840, Note_off_c, 0, 69, 95
2, 27840, Note_on_c, 0, 76, 95
2, 27840, Note_on_c, 0, 69, 95
2, 28080, Note_off_c, 0, 76, 95
2, 28080, Note_off_c, 0, 69, 95
2, 28080, Note_on_c, 0, 73, 95
2, 28080, Note_on_c, 0, 69, 95
2, 28320, Note_off_c, 0, 73, 95
2, 28320, Note_off_c, 0, 69, 95
2, 28320, Note_on_c, 0, 73, 95
2, 28320, Note_on_c, 0, 69, 95
2, 28560, Note_off_c, 0, 73, 95
2, 28560, Note_off_c, 0, 69, 95
2, 28560, Note_on_c, 0, 69, 95
2, 28560, Note_on_c, 0, 64, 95
2, 28800, Note_off_c, 0, 69, 95
2, 28800, Note_off_c, 0, 64, 95
2, 28800, Note_on_c, 0, 73, 95
2, 28800, Note_on_c, 0, 69, 95
2, 28800, Note_on_c, 0, 64, 95
2, 28800, Note_on_c, 0, 45, 63
2, 28800, Note_on_c, 0, 38, 63
2, 29040, Note_off_c, 0, 73, 95
2, 29040, Note_off_c, 0, 69, 95
2, 29040, Note_off_c, 0, 64, 95
2, 29040, Note_off_c, 0, 45, 63
2, 29040, Note_off_c, 0, 38, 63
2, 29040, Note_on_c, 0, 74, 70
2, 29040, Note_on_c, 0, 66, 70
2, 29280, Note_off_c, 0, 74, 70
2, 29280, Note_off_c, 0, 66, 70
2, 29280, Note_on_c, 0, 74, 95
2, 29280, Note_on_c, 0, 69, 95
2, 29280, Note_on_c, 0, 66, 95
2, 29520, Note_off_c, 0, 74, 95
2, 29520, Note_off_c, 0, 69, 95
2, 29520, Note_off_c, 0, 66, 95
2, 29520, Note_on_c, 0, 73, 95
2, 29520, Note_on_c, 0, 69, 95
2, 29520, Note_on_c, 0, 64, 95
2, 29760, Note_off_c, 0, 73, 95
2, 29760, Note_off_c, 0, 69, 95
2, 29760, Note_off_c, 0, 64, 95
2, 29760, Note_on_c, 0, 59, 95
2, 29760, Note_on_c, 0, 55, 95
2, 29760, Note_on_c, 0, 50, 95
2, 29809, Note_off_c, 0, 59, 95
2, 29809, Note_off_c, 0, 55, 95
2, 29809, Note_off_c, 0, 50, 95
2, 30000, Note_on_c, 0, 73, 95
2, 30000, Note_on_c, 0, 69, 95
2, 30000, Note_on_c, 0, 64, 95
2, 30240, Note_off_c, 0, 73, 95
2, 30240, Note_off_c, 0, 69, 95
2, 30240, Note_off_c, 0, 64, 95
2, 30240, Note_on_c, 0, 73, 95
2, 30240, Note_on_c, 0, 69, 95
2, 30240, Note_on_c, 0, 64, 95
2, 30480, Note_off_c, 0, 73, 95
2, 30480, Note_off_c, 0, 69, 95
2, 30480, Note_off_c, 0, 64, 95
2, 30480, Note_on_c, 0, 74, 70
2, 30480, Note_on_c, 0, 66, 70
2, 30720, Note_off_c, 0, 74, 70
2, 30720, Note_off_c, 0, 66, 70
2, 30720, Note_on_c, 0, 74, 95
2, 30720, Note_on_c, 0, 69, 95
2, 30720, Note_on_c, 0, 66, 95
2, 30960, Note_off_c, 0, 74, 95
2, 30960, Note_off_c, 0, 69, 95
2, 30960, Note_off_c, 0, 66, 95
2, 30960, Note_on_c, 0, 73, 95
2, 30960, Note_on_c, 0, 69, 95
2, 30960, Note_on_c, 0, 64, 95
2, 31200, Note_off_c, 0, 73, 95
2, 31200, Note_off_c, 0, 69, 95
2, 31200, Note_off_c, 0, 64, 95
2, 31200, Note_on_c, 0, 59, 95
2, 31200, Note_on_c, 0, 55, 95
2, 31200, Note_on_c, 0, 50, 95
2, 31249, Note_off_c, 0, 59, 95
2, 31249, Note_off_c, 0, 55, 95
2, 31249, Note_off_c, 0, 50, 95
2, 31440, Note_on_c, 0, 73, 95
2, 31440, Note_on_c, 0, 69, 95
2, 31440, Note_on_c, 0, 64, 95
2, 31680, Note_off_c, 0, 73, 95
2, 31680, Note_off_c, 0, 69, 95
2, 31680, Note_off_c, 0, 64, 95
2, 31680, Note_on_c, 0, 73, 95
2, 31680, Note_on_c, 0, 69, 95
2, 31680, Note_on_c, 0, 64, 95
2, 31920, Note_off_c, 0, 73, 95
2, 31920, Note_off_c, 0, 69, 95
2, 31920, Note_off_c, 0, 64, 95
2, 31920, Note_on_c, 0, 74, 70
2, 31920, Note_on_c, 0, 66, 70
2, 32160, Note_off_c, 0, 74, 70
2, 32160, Note_off_c, 0, 66, 70
2, 32160, Note_on_c, 0, 81, 95
2, 32160, Note_on_c, 0, 74, 95
2, 32160, Note_on_c, 0, 69, 95
2, 32400, Note_off_c, 0, 81, 95
2, 32400, Note_off_c, 0, 74, 95
2, 32400, Note_off_c, 0, 69, 95
2, 32400, Note_on_c, 0, 81, 95
2, 32400, Note_on_c, 0, 74, 95
2, 32400, Note_on_c, 0, 69, 95
2, 32640, Note_off_c, 0, 81, 95
2, 32640, Note_off_c, 0, 74, 95
2, 32640, Note_off_c, 0, 69, 95
2, 32640, Note_on_c, 0, 81, 95
2, 32640, Note_on_c, 0, 74, 95
2, 32640, Note_on_c, 0, 69, 95
2, 32880, Note_off_c, 0, 81, 95
2, 32880, Note_off_c, 0, 74, 95
2, 32880, Note_off_c, 0, 69, 95
2, 32880, Note_on_c, 0, 73, 95
2, 32880, Note_on_c, 0, 69, 95
2, 33120, Note_off_c, 0, 73, 95
2, 33120, Note_off_c, 0, 69, 95
2, 33120, Note_on_c, 0, 79, 95
2, 33120, Note_on_c, 0, 73, 95
2, 33120, Note_on_c, 0, 69, 95
2, 33360, Note_off_c, 0, 79, 95
2, 33360, Note_off_c, 0, 73, 95
2, 33360, Note_off_c, 0, 69, 95
2, 33360, Note_on_c, 0, 73, 95
2, 33360, Note_on_c, 0, 69, 95
2, 33600, Note_off_c, 0, 73, 95
2, 33600, Note_off_c, 0, 69, 95
2, 33600, Note_on_c, 0, 76, 95
2, 33600, Note_on_c, 0, 69, 95
2, 33840, Note_off_c, 0, 76, 95
2, 33840, Note_off_c, 0, 69, 95
2, 33840, Note_on_c, 0, 73, 95
2, 33840, Note_on_c, 0, 69, 95
2, 34080, Note_off_c, 0, 73, 95
2, 34080, Note_off_c, 0, 69, 95
2, 34080, Note_on_c, 0, 73, 95
2, 34080, Note_on_c, 0, 69, 95
2, 34320, Note_off_c, 0, 73, 95
2, 34320, Note_off_c, 0, 69, 95
2, 34320, Note_on_c, 0, 69, 95
2, 34320, Note_on_c, 0, 64, 95
2, 34560, Note_off_c, 0, 69, 95
2, 34560, Note_off_c, 0, 64, 95
2, 34560, Note_on_c, 0, 73, 95
2, 34560, Note_on_c, 0, 69, 95
2, 34560, Note_on_c, 0, 64, 95
2, 34560, Note_on_c, 0, 45, 63
2, 34560, Note_on_c, 0, 38, 63
2, 34800, Note_off_c, 0, 73, 95
2, 34800, Note_off_c, 0, 69, 95
2, 34800, Note_off_c, 0, 64, 95
2, 34800, Note_off_c, 0, 45, 63
2, 34800, Note_off_c, 0, 38, 63
2, 34800, Note_on_c, 0, 74, 70
2, 34800, Note_on_c, 0, 66, 70
2, 35040, Note_off_c, 0, 74, 70
2, 35040, Note_off_c, 0, 66, 70
2, 35040, Note_on_c, 0, 74, 95
2, 35040, Note_on_c, 0, 69, 95
2, 35040, Note_on_c, 0, 66, 95
2, 35280, Note_off_c, 0, 74, 95
2, 35280, Note_off_c, 0, 69, 95
2, 35280, Note_off_c, 0, 66, 95
2, 35280, Note_on_c, 0, 73, 95
2, 35280, Note_on_c, 0, 69, 95
2, 35280, Note_on_c, 0, 64, 95
2, 35520, Note_off_c, 0, 73, 95
2, 35520, Note_off_c, 0, 69, 95
2, 35520, Note_off_c, 0, 64, 95
2, 35520, Note_on_c, 0, 59, 95
2, 35520, Note_on_c, 0, 55, 95
2, 35520, Note_on_c, 0, 50, 95
2, 35569, Note_off_c, 0, 59, 95
2, 35569, Note_off_c, 0, 55, 95
2, 35569, Note_off_c, 0, 50, 95
2, 35760, Note_on_c, 0, 73, 95
2, 35760, Note_on_c, 0, 69, 95
2, 35760, Note_on_c, 0, 64, 95
2, 36000, Note_off_c, 0, 73, 95
2, 36000, Note_off_c, 0, 69, 95
2, 36000, Note_off_c, 0, 64, 95
2, 36000, Note_on_c, 0, 73, 95
2, 36000, Note_on_c, 0, 69, 95
2, 36000, Note_on_c, 0, 64, 95
2, 36240, Note_off_c, 0, 73, 95
2, 36240, Note_off_c, 0, 69, 95
2, 36240, Note_off_c, 0, 64, 95
2, 36240, Note_on_c, 0, 74, 70
2, 36240, Note_on_c, 0, 66, 70
2, 36480, Note_off_c, 0, 74, 70
2, 36480, Note_off_c, 0, 66, 70
2, 36480, Note_on_c, 0, 74, 95
2, 36480, Note_on_c, 0, 69, 95
2, 36480, Note_on_c, 0, 66, 95
2, 36720, Note_off_c, 0, 74, 95
2, 36720, Note_off_c, 0, 69, 95
2, 36720, Note_off_c, 0, 66, 95
2, 36720, Note_on_c, 0, 73, 95
2, 36720, Note_on_c, 0, 69, 95
2, 36720, Note_on_c, 0, 64, 95
2, 36960, Note_off_c, 0, 73, 95
2, 36960, Note_off_c, 0, 69, 95
2, 36960, Note_off_c, 0, 64, 95
2, 36960, Note_on_c, 0, 59, 95
2, 36960, Note_on_c, 0, 55, 95
2, 36960, Note_on_c, 0, 50, 95
2, 37009, Note_off_c, 0, 59, 95
2, 37009, Note_off_c, 0, 55, 95
2, 37009, Note_off_c, 0, 50, 95
2, 37200, Note_on_c, 0, 73, 95
2, 37200, Note_on_c, 0, 69, 95
2, 37200, Note_on_c, 0, 64, 95
2, 37440, Note_off_c, 0, 73, 95
2, 37440, Note_off_c, 0, 69, 95
2, 37440, Note_off_c, 0, 64, 95
2, 37440, Note_on_c, 0, 74, 95
2, 37440, Note_on_c, 0, 55, 95
2, 37440, Note_on_c, 0, 50, 95
2, 37920, Note_off_c, 0, 74, 95
2, 37920, Note_off_c, 0, 55, 95
2, 37920, Note_off_c, 0, 50, 95
2, 37920, Note_on_c, 0, 74, 95
2, 37920, Note_on_c, 0, 55, 95
2, 37920, Note_on_c, 0, 50, 95
2, 38160, Note_off_c, 0, 74, 95
2, 38160, Note_off_c, 0, 55, 95
2, 38160, Note_off_c, 0, 50, 95
2, 38160, Note_on_c, 0, 74, 95
2, 38160, Note_on_c, 0, 55, 95
2, 38160, Note_on_c, 0, 50, 95
2, 38640, Note_off_c, 0, 74, 95
2, 38640, Note_off_c, 0, 55, 95
2, 38640, Note_off_c, 0, 50, 95
2, 38640, Note_on_c, 0, 74, 95
2, 38640, Note_on_c, 0, 55, 95
2, 38640, Note_on_c, 0, 50, 95
2, 38880, Note_off_c, 0, 74, 95
2, 38880, Note_off_c, 0, 55, 95
2, 38880, Note_off_c, 0, 50, 95
2, 38880, Note_on_c, 0, 74, 95
2, 38880, Note_on_c, 0, 55, 95
2, 38880, Note_on_c, 0, 50, 95
2, 40320, Note_off_c, 0, 74, 95
2, 40320, Note_off_c, 0, 55, 95
2, 40320, Note_off_c, 0, 50, 95
2, 40320, Note_on_c, 0, 40, 95
2, 40800, Note_off_c, 0, 40, 95
2, 40800, Note_on_c, 0, 47, 95
2, 41280, Note_off_c, 0, 47, 95
2, 41280, Note_on_c, 0, 52, 95
2, 41760, Note_off_c, 0, 52, 95
2, 41760, Note_on_c, 0, 55, 95
2, 42240, Note_off_c, 0, 55, 95
2, 42240, Note_on_c, 0, 52, 95
2, 42720, Note_off_c, 0, 52, 95
2, 42720, Note_on_c, 0, 47, 95
2, 43200, Note_off_c, 0, 47, 95
2, 43200, Note_on_c, 0, 40, 95
2, 43680, Note_off_c, 0, 40, 95
2, 43680, Note_on_c, 0, 47, 95
2, 44160, Note_off_c, 0, 47, 95
2, 44160, Note_on_c, 0, 52, 95
2, 44640, Note_off_c, 0, 52, 95
2, 44640, Note_on_c, 0, 55, 95
2, 45120, Note_off_c, 0, 55, 95
2, 45120, Note_on_c, 0, 52, 95
2, 45600, Note_off_c, 0, 52, 95
2, 45600, Note_on_c, 0, 47, 95
2, 46080, Note_off_c, 0, 47, 95
2, 46080, Note_on_c, 0, 41, 95
2, 46560, Note_off_c, 0, 41, 95
2, 46560, Note_on_c, 0, 48, 95
2, 47040, Note_off_c, 0, 48, 95
2, 47040, Note_on_c, 0, 53, 95
2, 47520, Note_off_c, 0, 53, 95
2, 47520, Note_on_c, 0, 55, 95
2, 48000, Note_off_c, 0, 55, 95
2, 48000, Note_on_c, 0, 53, 95
2, 48480, Note_off_c, 0, 53, 95
2, 48480, Note_on_c, 0, 48, 95
2, 48960, Note_off_c, 0, 48, 95
2, 48960, Note_on_c, 0, 40, 95
2, 49440, Note_off_c, 0, 40, 95
2, 49440, Note_on_c, 0, 47, 95
2, 49920, Note_off_c, 0, 47, 95
2, 49920, Note_on_c, 0, 52, 95
2, 50400, Note_off_c, 0, 52, 95
2, 50400, Note_on_c, 0, 55, 95
2, 50880, Note_off_c, 0, 55, 95
2, 50880, Note_on_c, 0, 52, 95
2, 51360, Note_off_c, 0, 52, 95
2, 51360, Note_on_c, 0, 47, 95
2, 51840, Note_off_c, 0, 47, 95
2, 51840, Note_on_c, 0, 39, 95
2, 52320, Note_off_c, 0, 39, 95
2, 52320, Note_on_c, 0, 46, 95
2, 52800, Note_off_c, 0, 46, 95
2, 52800, Note_on_c, 0, 51, 95
2, 53280, Note_off_c, 0, 51, 95
2, 53280, Note_on_c, 0, 55, 95
2, 53760, Note_off_c, 0, 55, 95
2, 53760, Note_on_c, 0, 51, 95
2, 54240, Note_off_c, 0, 51, 95
2, 54240, Note_on_c, 0, 46, 95
2, 54720, Note_off_c, 0, 46, 95
2, 54720, Note_on_c, 0, 39, 95
2, 55200, Note_off_c, 0, 39, 95
2, 55200, Note_on_c, 0, 46, 95
2, 55680, Note_off_c, 0, 46, 95
2, 55680, Note_on_c, 0, 51, 95
2, 56160, Note_off_c, 0, 51, 95
2, 56160, Note_on_c, 0, 55, 95
2, 56640, Note_off_c, 0, 55, 95
2, 56640, Note_on_c, 0, 51, 95
2, 57120, Note_off_c, 0, 51, 95
2, 57120, Note_on_c, 0, 46, 95
2, 57600, Note_off_c, 0, 46, 95
2, 57600, Note_on_c, 0, 41, 95
2, 58080, Note_off_c, 0, 41, 95
2, 58080, Note_on_c, 0, 48, 95
2, 58560, Note_off_c, 0, 48, 95
2, 58560, Note_on_c, 0, 53, 95
2, 59040, Note_off_c, 0, 53, 95
2, 59040, Note_on_c, 0, 55, 95
2, 59520, Note_off_c, 0, 55, 95
2, 59520, Note_on_c, 0, 53, 95
2, 60000, Note_off_c, 0, 53, 95
2, 60000, Note_on_c, 0, 48, 95
2, 60480, Note_off_c, 0, 48, 95
2, 60480, Note_on_c, 0, 40, 95
2, 60960, Note_off_c, 0, 40, 95
2, 60960, Note_on_c, 0, 47, 95
2, 61440, Note_off_c, 0, 47, 95
2, 61440, Note_on_c, 0, 52, 95
2, 61920, Note_off_c, 0, 52, 95
2, 61920, Note_on_c, 0, 55, 95
2, 62400, Note_off_c, 0, 55, 95
2, 62400, Note_on_c, 0, 52, 95
2, 62880, Note_off_c, 0, 52, 95
2, 62880, Note_on_c, 0, 47, 95
2, 63360, Note_off_c, 0, 47, 95
2, 63360, Note_on_c, 0, 39, 95
2, 63840, Note_off_c, 0, 39, 95
2, 63840, Note_on_c, 0, 46, 95
2, 64320, Note_off_c, 0, 46, 95
2, 64320, Note_on_c, 0, 51, 95
2, 64800, Note_off_c, 0, 51, 95
2, 64800, Note_on_c, 0, 55, 95
2, 65280, Note_off_c, 0, 55, 95
2, 65280, Note_on_c, 0, 51, 95
2, 65760, Note_off_c, 0, 51, 95
2, 65760, Note_on_c, 0, 46, 95
2, 66240, Note_off_c, 0, 46, 95
2, 66240, Note_on_c, 0, 39, 95
2, 66720, Note_off_c, 0, 39, 95
2, 66720, Note_on_c, 0, 46, 95
2, 67200, Note_off_c, 0, 46, 95
2, 67200, Note_on_c, 0, 51, 95
2, 67680, Note_off_c, 0, 51, 95
2, 67680, Note_on_c, 0, 55, 95
2, 68160, Note_off_c, 0, 55, 95
2, 68160, Note_on_c, 0, 51, 95
2, 68640, Note_off_c, 0, 51, 95
2, 68640, Note_on_c, 0, 46, 95
2, 69120, Note_off_c, 0, 46, 95
2, 69120, Note_on_c, 0, 40, 95
2, 69600, Note_off_c, 0, 40, 95
2, 69600, Note_on_c, 0, 47, 95
2, 70080, Note_off_c, 0, 47, 95
2, 70080, Note_on_c, 0, 52, 95
2, 70560, Note_off_c, 0, 52, 95
2, 70560, Note_on_c, 0, 55, 95
2, 71040, Note_off_c, 0, 55, 95
2, 71040, Note_on_c, 0, 52, 95
2, 71520, Note_off_c, 0, 52, 95
2, 71520, Note_on_c, 0, 47, 95
2, 72000, Note_off_c, 0, 47, 95
2, 72000, Note_on_c, 0, 40, 95
2, 72480, Note_off_c, 0, 40, 95
2, 72480, Note_on_c, 0, 47, 95
2, 72960, Note_off_c, 0, 47, 95
2, 72960, Note_on_c, 0, 52, 95
2, 73440, Note_off_c, 0, 52, 95
2, 73440, Note_on_c, 0, 55, 95
2, 73920, Note_off_c, 0, 55, 95
2, 73920, Note_on_c, 0, 52, 95
2, 74400, Note_off_c, 0, 52, 95
2, 74400, Note_on_c, 0, 47, 95
2, 74880, Note_off_c, 0, 47, 95
2, 74880, Note_on_c, 0, 59, 95
2, 74880, Note_on_c, 0, 55, 95
2, 74880, Note_on_c, 0, 52, 95
2, 74880, Note_on_c, 0, 47, 95
2, 74880, Note_on_c, 0, 40, 95
2, 75360, Note_off_c, 0, 59, 95
2, 75360, Note_off_c, 0, 55, 95
2, 75360, Note_off_c, 0, 52, 95
2, 75360, Note_off_c, 0, 47, 95
2, 75360, Note_off_c, 0, 40, 95
2, 75360, Note_on_c, 0, 59, 95
2, 75360, Note_on_c, 0, 55, 95
2, 75360, Note_on_c, 0, 52, 95
2, 75600, Note_off_c, 0, 59, 95
2, 75600, Note_off_c, 0, 55, 95
2, 75600, Note_off_c, 0, 52, 95
2, 75600, Note_on_c, 0, 59, 95
2, 75600, Note_on_c, 0, 55, 95
2, 75600, Note_on_c, 0, 52, 95
2, 75840, Note_off_c, 0, 59, 95
2, 75840, Note_off_c, 0, 55, 95
2, 75840, Note_off_c, 0, 52, 95
2, 75840, Note_on_c, 0, 59, 95
2, 75840, Note_on_c, 0, 55, 95
2, 75840, Note_on_c, 0, 52, 95
2, 76080, Note_off_c, 0, 59, 95
2, 76080, Note_off_c, 0, 55, 95
2, 76080, Note_off_c, 0, 52, 95
2, 76080, Note_on_c, 0, 59, 95
2, 76080, Note_on_c, 0, 55, 95
2, 76080, Note_on_c, 0, 52, 95
2, 76320, Note_off_c, 0, 59, 95
2, 76320, Note_off_c, 0, 55, 95
2, 76320, Note_off_c, 0, 52, 95
2, 76320, Note_on_c, 0, 63, 95
2, 76320, Note_on_c, 0, 57, 95
2, 76320, Note_on_c, 0, 54, 95
2, 76320, Note_on_c, 0, 42, 95
2, 76800, Note_off_c, 0, 63, 95
2, 76800, Note_off_c, 0, 57, 95
2, 76800, Note_off_c, 0, 54, 95
2, 76800, Note_off_c, 0, 42, 95
2, 76800, Note_on_c, 0, 63, 95
2, 76800, Note_on_c, 0, 57, 95
2, 76800, Note_on_c, 0, 54, 95
2, 77040, Note_off_c, 0, 63, 95
2, 77040, Note_off_c, 0, 57, 95
2, 77040, Note_off_c, 0, 54, 95
2, 77040, Note_on_c, 0, 63, 95
2, 77040, Note_on_c, 0, 57, 95
2, 77040, Note_on_c, 0, 54, 95
2, 77280, Note_off_c, 0, 63, 95
2, 77280, Note_off_c, 0, 57, 95
2, 77280, Note_off_c, 0, 54, 95
2, 77280, Note_on_c, 0, 63, 95
2, 77280, Note_on_c, 0, 57, 95
2, 77280, Note_on_c, 0, 54, 95
2, 77520, Note_off_c, 0, 63, 95
2, 77520, Note_off_c, 0, 57, 95
2, 77520, Note_off_c, 0, 54, 95
2, 77520, Note_on_c, 0, 63, 95
2, 77520, Note_on_c, 0, 57, 95
2, 77520, Note_on_c, 0, 54, 95
2, 77760, Note_off_c, 0, 63, 95
2, 77760, Note_off_c, 0, 57, 95
2, 77760, Note_off_c, 0, 54, 95
2, 77760, Note_on_c, 0, 64, 95
2, 77760, Note_on_c, 0, 59, 95
2, 77760, Note_on_c, 0, 55, 95
2, 77760, Note_on_c, 0, 43, 95
2, 78240, Note_off_c, 0, 64, 95
2, 78240, Note_off_c, 0, 59, 95
2, 78240, Note_off_c, 0, 55, 95
2, 78240, Note_off_c, 0, 43, 95
2, 78240, Note_on_c, 0, 64, 95
2, 78240, Note_on_c, 0, 59, 95
2, 78240, Note_on_c, 0, 55, 95
2, 78480, Note_off_c, 0, 64, 95
2, 78480, Note_off_c, 0, 59, 95
2, 78480, Note_off_c, 0, 55, 95
2, 78480, Note_on_c, 0, 64, 95
2, 78480, Note_on_c, 0, 59, 95
2, 78480, Note_on_c, 0, 55, 95
2, 78720, Note_off_c, 0, 64, 95
2, 78720, Note_off_c, 0, 59, 95
2, 78720, Note_off_c, 0, 55, 95
2, 78720, Note_on_c, 0, 64, 95
2, 78720, Note_on_c, 0, 59, 95
2, 78720, Note_on_c, 0, 55, 95
2, 78960, Note_off_c, 0, 64, 95
2, 78960, Note_off_c, 0, 59, 95
2, 78960, Note_off_c, 0, 55, 95
2, 78960, Note_on_c, 0, 64, 95
2, 78960, Note_on_c, 0, 59, 95
2, 78960, Note_on_c, 0, 55, 95
2, 79200, Note_off_c, 0, 64, 95
2, 79200, Note_off_c, 0, 59, 95
2, 79200, Note_off_c, 0, 55, 95
2, 79200, Note_on_c, 1, 64, 95
2, 79200, Note_on_c, 1, 59, 95
2, 79200, Note_on_c, 1, 55, 95
2, 79200, Note_on_c, 1, 43, 95
2, 79320, Pitch_bend_c, 1, 8832
2, 79320, Pitch_bend_c, 1, 8832
2, 79320, Pitch_bend_c, 1, 8832
2, 79320, Pitch_bend_c, 1, 8832
2, 79440, Pitch_bend_c, 1, 9600
2, 79440, Pitch_bend_c, 1, 8192
2, 79440, Note_off_c, 1, 64, 95
2, 79440, Pitch_bend_c, 1, 9600
2, 79440, Pitch_bend_c, 1, 8192
2, 79440, Note_off_c, 1, 59, 95
2, 79440, Pitch_bend_c, 1, 9600
2, 79440, Pitch_bend_c, 1, 8192
2, 79440, Note_off_c, 1, 55, 95
2, 79440, Pitch_bend_c, 1, 9600
2, 79440, Pitch_bend_c, 1, 8192
2, 79440, Note_off_c, 1, 43, 95
2, 79440, Note_on_c, 0, 66, 95
2, 79440, Note_on_c, 0, 61, 95
2, 79440, Note_on_c, 0, 57, 95
2, 79440, Note_on_c, 0, 45, 95
2, 79680, Note_off_c, 0, 66, 95
2, 79680, Note_off_c, 0, 61, 95
2, 79680, Note_off_c, 0, 57, 95
2, 79680, Note_off_c, 0, 45, 95
2, 79680, Note_on_c, 0, 66, 95
2, 79680, Note_on_c, 0, 61, 95
2, 79680, Note_on_c, 0, 57, 95
2, 79920, Note_off_c, 0, 66, 95
2, 79920, Note_off_c, 0, 61, 95
2, 79920, Note_off_c, 0, 57, 95
2, 79920, Note_on_c, 0, 66, 95
2, 79920, Note_on_c, 0, 61, 95
2, 79920, Note_on_c, 0, 57, 95
2, 80160, Note_off_c, 0, 66, 95
2, 80160, Note_off_c, 0, 61, 95
2, 80160, Note_off_c, 0, 57, 95
2, 80160, Note_on_c, 0, 66, 95
2, 80160, Note_on_c, 0, 61, 95
2, 80160, Note_on_c, 0, 57, 95
2, 80400, Note_off_c, 0, 66, 95
2, 80400, Note_off_c, 0, 61, 95
2, 80400, Note_off_c, 0, 57, 95
2, 80400, Note_on_c, 0, 66, 95
2, 80400, Note_on_c, 0, 61, 95
2, 80400, Note_on_c, 0, 57, 95
2, 80640, Note_off_c, 0, 66, 95
2, 80640, Note_off_c, 0, 61, 95
2, 80640, Note_off_c, 0, 57, 95
2, 80640, Note_on_c, 0, 66, 95
2, 80640, Note_on_c, 0, 62, 95
2, 80640, Note_on_c, 0, 59, 95
2, 80640, Note_on_c, 0, 47, 95
2, 81120, Note_off_c, 0, 66, 95
2, 81120, Note_off_c, 0, 62, 95
2, 81120, Note_off_c, 0, 59, 95
2, 81120, Note_off_c, 0, 47, 95
2, 81120, Note_on_c, 0, 66, 95
2, 81120, Note_on_c, 0, 62, 95
2, 81120, Note_on_c, 0, 59, 95
2, 81360, Note_off_c, 0, 66, 95
2, 81360, Note_off_c, 0, 62, 95
2, 81360, Note_off_c, 0, 59, 95
2, 81360, Note_on_c, 0, 66, 95
2, 81360, Note_on_c, 0, 62, 95
2, 81360, Note_on_c, 0, 59, 95
2, 81600, Note_off_c, 0, 66, 95
2, 81600, Note_off_c, 0, 62, 95
2, 81600, Note_off_c, 0, 59, 95
2, 81600, Note_on_c, 0, 66, 95
2, 81600, Note_on_c, 0, 62, 95
2, 81600, Note_on_c, 0, 59, 95
2, 81840, Note_off_c, 0, 66, 95
2, 81840, Note_off_c, 0, 62, 95
2, 81840, Note_off_c, 0, 59, 95
2, 81840, Note_on_c, 0, 66, 95
2, 81840, Note_on_c, 0, 62, 95
2, 81840, Note_on_c, 0, 59, 95
2, 82080, Note_off_c, 0, 66, 95
2, 82080, Note_off_c, 0, 62, 95
2, 82080, Note_off_c, 0, 59, 95
2, 82080, Note_on_c, 0, 66, 95
2, 82080, Note_on_c, 0, 62, 95
2, 82080, Note_on_c, 0, 59, 95
2, 82080, Note_on_c, 0, 47, 95
2, 82560, Note_off_c, 0, 66, 95
2, 82560, Note_off_c, 0, 62, 95
2, 82560, Note_off_c, 0, 59, 95
2, 82560, Note_off_c, 0, 47, 95
2, 82560, Note_on_c, 0, 66, 95
2, 82560, Note_on_c, 0, 62, 95
2, 82560, Note_on_c, 0, 59, 95
2, 82800, Note_off_c, 0, 66, 95
2, 82800, Note_off_c, 0, 62, 95
2, 82800, Note_off_c, 0, 59, 95
2, 82800, Note_on_c, 0, 66, 95
2, 82800, Note_on_c, 0, 62, 95
2, 82800, Note_on_c, 0, 59, 95
2, 83040, Note_off_c, 0, 66, 95
2, 83040, Note_off_c, 0, 62, 95
2, 83040, Note_off_c, 0, 59, 95
2, 83040, Note_on_c, 0, 66, 95
2, 83040, Note_on_c, 0, 62, 95
2, 83040, Note_on_c, 0, 59, 95
2, 83280, Note_off_c, 0, 66, 95
2, 83280, Note_off_c, 0, 62, 95
2, 83280, Note_off_c, 0, 59, 95
2, 83280, Note_on_c, 0, 66, 95
2, 83280, Note_on_c, 0, 62, 95
2, 83280, Note_on_c, 0, 59, 95
2, 83520, Note_off_c, 0, 66, 95
2, 83520, Note_off_c, 0, 62, 95
2, 83520, Note_off_c, 0, 59, 95
2, 83520, Note_on_c, 0, 66, 95
2, 83520, Note_on_c, 0, 61, 95
2, 83520, Note_on_c, 0, 59, 95
2, 83520, Note_on_c, 0, 45, 95
2, 84000, Note_off_c, 0, 66, 95
2, 84000, Note_off_c, 0, 61, 95
2, 84000, Note_off_c, 0, 59, 95
2, 84000, Note_off_c, 0, 45, 95
2, 84000, Note_on_c, 0, 66, 95
2, 84000, Note_on_c, 0, 61, 95
2, 84000, Note_on_c, 0, 59, 95
2, 84240, Note_off_c, 0, 66, 95
2, 84240, Note_off_c, 0, 61, 95
2, 84240, Note_off_c, 0, 59, 95
2, 84240, Note_on_c, 0, 66, 95
2, 84240, Note_on_c, 0, 61, 95
2, 84240, Note_on_c, 0, 59, 95
2, 84480, Note_off_c, 0, 66, 95
2, 84480, Note_off_c, 0, 61, 95
2, 84480, Note_off_c, 0, 59, 95
2, 84480, Note_on_c, 0, 66, 95
2, 84480, Note_on_c, 0, 61, 95
2, 84480, Note_on_c, 0, 59, 95
2, 84720, Note_off_c, 0, 66, 95
2, 84720, Note_off_c, 0, 61, 95
2, 84720, Note_off_c, 0, 59, 95
2, 84720, Note_on_c, 0, 66, 95
2, 84720, Note_on_c, 0, 61, 95
2, 84720, Note_on_c, 0, 59, 95
2, 84960, Note_off_c, 0, 66, 95
2, 84960, Note_off_c, 0, 61, 95
2, 84960, Note_off_c, 0, 59, 95
2, 84960, Note_on_c, 0, 66, 95
2, 84960, Note_on_c, 0, 61, 95
2, 84960, Note_on_c, 0, 59, 95
2, 84960, Note_on_c, 0, 45, 95
2, 85440, Note_off_c, 0, 66, 95
2, 85440, Note_off_c, 0, 61, 95
2, 85440, Note_off_c, 0, 59, 95
2, 85440, Note_off_c, 0, 45, 95
2, 85440, Note_on_c, 0, 66, 95
2, 85440, Note_on_c, 0, 61, 95
2, 85440, Note_on_c, 0, 59, 95
2, 85680, Note_off_c, 0, 66, 95
2, 85680, Note_off_c, 0, 61, 95
2, 85680, Note_off_c, 0, 59, 95
2, 85680, Note_on_c, 0, 66, 95
2, 85680, Note_on_c, 0, 61, 95
2, 85680, Note_on_c, 0, 59, 95
2, 85920, Note_off_c, 0, 66, 95
2, 85920, Note_off_c, 0, 61, 95
2, 85920, Note_off_c, 0, 59, 95
2, 85920, Note_on_c, 0, 66, 95
2, 85920, Note_on_c, 0, 61, 95
2, 85920, Note_on_c, 0, 59, 95
2, 86160, Note_off_c, 0, 66, 95
2, 86160, Note_off_c, 0, 61, 95
2, 86160, Note_off_c, 0, 59, 95
2, 86160, Note_on_c, 0, 59, 95
2, 86160, Note_on_c, 0, 55, 95
2, 86160, Note_on_c, 0, 50, 95
2, 86400, Note_off_c, 0, 59, 95
2, 86400, Note_off_c, 0, 55, 95
2, 86400, Note_off_c, 0, 50, 95
2, 86400, Note_on_c, 0, 59, 95
2, 86400, Note_on_c, 0, 55, 95
2, 86400, Note_on_c, 0, 52, 95
2, 86400, Note_on_c, 0, 47, 95
2, 86400, Note_on_c, 0, 40, 95
2, 86880, Note_off_c, 0, 59, 95
2, 86880, Note_off_c, 0, 55, 95
2, 86880, Note_off_c, 0, 52, 95
2, 86880, Note_off_c, 0, 47, 95
2, 86880, Note_off_c, 0, 40, 95
2, 86880, Note_on_c, 0, 59, 95
2, 86880, Note_on_c, 0, 55, 95
2, 86880, Note_on_c, 0, 52, 95
2, 86880, Note_on_c, 0, 47, 95
2, 87120, Note_off_c, 0, 59, 95
2, 87120, Note_off_c, 0, 55, 95
2, 87120, Note_off_c, 0, 52, 95
2, 87120, Note_off_c, 0, 47, 95
2, 87120, Note_on_c, 0, 59, 95
2, 87120, Note_on_c, 0, 55, 95
2, 87120, Note_on_c, 0, 52, 95
2, 87120, Note_on_c, 0, 47, 95
2, 87360, Note_off_c, 0, 59, 95
2, 87360, Note_off_c, 0, 55, 95
2, 87360, Note_off_c, 0, 52, 95
2, 87360, Note_off_c, 0, 47, 95
2, 87360, Note_on_c, 0, 59, 95
2, 87360, Note_on_c, 0, 55, 95
2, 87360, Note_on_c, 0, 52, 95
2, 87360, Note_on_c, 0, 47, 95
2, 87600, Note_off_c, 0, 59, 95
2, 87600, Note_off_c, 0, 55, 95
2, 87600, Note_off_c, 0, 52, 95
2, 87600, Note_off_c, 0, 47, 95
2, 87600, Note_on_c, 0, 59, 95
2, 87600, Note_on_c, 0, 55, 95
2, 87600, Note_on_c, 0, 52, 95
2, 87600, Note_on_c, 0, 47, 95
2, 87840, Note_off_c, 0, 59, 95
2, 87840, Note_off_c, 0, 55, 95
2, 87840, Note_off_c, 0, 52, 95
2, 87840, Note_off_c, 0, 47, 95
2, 87840, Note_on_c, 0, 64, 95
2, 87840, Note_on_c, 0, 59, 95
2, 87840, Note_on_c, 0, 55, 95
2, 87840, Note_on_c, 0, 52, 95
2, 87840, Note_on_c, 0, 47, 95
2, 87840, Note_on_c, 0, 40, 95
2, 88320, Note_off_c, 0, 64, 95
2, 88320, Note_off_c, 0, 59, 95
2, 88320, Note_off_c, 0, 55, 95
2, 88320, Note_off_c, 0, 52, 95
2, 88320, Note_off_c, 0, 47, 95
2, 88320, Note_off_c, 0, 40, 95
2, 88320, Note_on_c, 0, 59, 95
2, 88320, Note_on_c, 0, 55, 95
2, 88320, Note_on_c, 0, 52, 95
2, 88320, Note_on_c, 0, 47, 95
2, 88560, Note_off_c, 0, 59, 95
2, 88560, Note_off_c, 0, 55, 95
2, 88560, Note_off_c, 0, 52, 95
2, 88560, Note_off_c, 0, 47, 95
2, 88560, Note_on_c, 0, 59, 95
2, 88560, Note_on_c, 0, 55, 95
2, 88560, Note_on_c, 0, 52, 95
2, 88560, Note_on_c, 0, 47, 95
2, 88800, Note_off_c, 0, 59, 95
2, 88800, Note_off_c, 0, 55, 95
2, 88800, Note_off_c, 0, 52, 95
2, 88800, Note_off_c, 0, 47, 95
2, 88800, Note_on_c, 0, 50, 95
2, 89040, Note_off_c, 0, 50, 95
2, 89040, Note_on_c, 0, 52, 95
2, 89280, Note_off_c, 0, 52, 95
2, 89280, Note_on_c, 0, 38, 95
2, 89520, Note_off_c, 0, 38, 95
2, 89520, Note_on_c, 0, 40, 70
2, 89760, Note_off_c, 0, 40, 70
2, 89760, Note_on_c, 0, 59, 95
2, 89760, Note_on_c, 0, 55, 95
2, 89760, Note_on_c, 0, 52, 95
2, 89760, Note_on_c, 0, 47, 95
2, 90000, Note_off_c, 0, 59, 95
2, 90000, Note_off_c, 0, 55, 95
2, 90000, Note_off_c, 0, 52, 95
2, 90000, Note_off_c, 0, 47, 95
2, 90000, Note_on_c, 0, 59, 95
2, 90000, Note_on_c, 0, 55, 95
2, 90000, Note_on_c, 0, 52, 95
2, 90000, Note_on_c, 0, 47, 95
2, 90240, Note_off_c, 0, 59, 95
2, 90240, Note_off_c, 0, 55, 95
2, 90240, Note_off_c, 0, 52, 95
2, 90240, Note_off_c, 0, 47, 95
2, 90240, Note_on_c, 0, 59, 95
2, 90240, Note_on_c, 0, 55, 95
2, 90240, Note_on_c, 0, 52, 95
2, 90240, Note_on_c, 0, 47, 95
2, 90480, Note_off_c, 0, 59, 95
2, 90480, Note_off_c, 0, 55, 95
2, 90480, Note_off_c, 0, 52, 95
2, 90480, Note_off_c, 0, 47, 95
2, 90480, Note_on_c, 0, 59, 95
2, 90480, Note_on_c, 0, 55, 95
2, 90480, Note_on_c, 0, 52, 95
2, 90480, Note_on_c, 0, 47, 95
2, 90720, Note_off_c, 0, 59, 95
2, 90720, Note_off_c, 0, 55, 95
2, 90720, Note_off_c, 0, 52, 95
2, 90720, Note_off_c, 0, 47, 95
2, 90720, Note_on_c, 0, 64, 95
2, 90720, Note_on_c, 0, 59, 95
2, 90720, Note_on_c, 0, 55, 95
2, 90720, Note_on_c, 0, 52, 95
2, 90720, Note_on_c, 0, 47, 95
2, 90720, Note_on_c, 0, 40, 95
2, 91200, Note_off_c, 0, 64, 95
2, 91200, Note_off_c, 0, 59, 95
2, 91200, Note_off_c, 0, 55, 95
2, 91200, Note_off_c, 0, 52, 95
2, 91200, Note_off_c, 0, 47, 95
2, 91200, Note_off_c, 0, 40, 95
2, 91200, Note_on_c, 0, 59, 95
2, 91200, Note_on_c, 0, 55, 95
2, 91200, Note_on_c, 0, 52, 95
2, 91200, Note_on_c, 0, 47, 95
2, 91440, Note_off_c, 0, 59, 95
2, 91440, Note_off_c, 0, 55, 95
2, 91440, Note_off_c, 0, 52, 95
2, 91440, Note_off_c, 0, 47, 95
2, 91440, Note_on_c, 0, 59, 95
2, 91440, Note_on_c, 0, 55, 95
2, 91440, Note_on_c, 0, 52, 95
2, 91440, Note_on_c, 0, 47, 95
2, 91680, Note_off_c, 0, 59, 95
2, 91680, Note_off_c, 0, 55, 95
2, 91680, Note_off_c, 0, 52, 95
2, 91680, Note_off_c, 0, 47, 95
2, 91680, Note_on_c, 0, 59, 95
2, 91680, Note_on_c, 0, 55, 95
2, 91680, Note_on_c, 0, 52, 95
2, 91680, Note_on_c, 0, 47, 95
2, 91920, Note_off_c, 0, 59, 95
2, 91920, Note_off_c, 0, 55, 95
2, 91920, Note_off_c, 0, 52, 95
2, 91920, Note_off_c, 0, 47, 95
2, 91920, Note_on_c, 0, 59, 95
2, 91920, Note_on_c, 0, 55, 95
2, 91920, Note_on_c, 0, 52, 95
2, 91920, Note_on_c, 0, 47, 95
2, 92160, Note_off_c, 0, 59, 95
2, 92160, Note_off_c, 0, 55, 95
2, 92160, Note_off_c, 0, 52, 95
2, 92160, Note_off_c, 0, 47, 95
2, 92160, Note_on_c, 0, 59, 95
2, 92160, Note_on_c, 0, 55, 95
2, 92160, Note_on_c, 0, 52, 95
2, 92160, Note_on_c, 0, 47, 95
2, 92160, Note_on_c, 0, 40, 95
2, 92640, Note_off_c, 0, 59, 95
2, 92640, Note_off_c, 0, 55, 95
2, 92640, Note_off_c, 0, 52, 95
2, 92640, Note_off_c, 0, 47, 95
2, 92640, Note_off_c, 0, 40, 95
2, 92640, Note_on_c, 0, 59, 95
2, 92640, Note_on_c, 0, 55, 95
2, 92640, Note_on_c, 0, 52, 95
2, 92880, Note_off_c, 0, 59, 95
2, 92880, Note_off_c, 0, 55, 95
2, 92880, Note_off_c, 0, 52, 95
2, 92880, Note_on_c, 0, 59, 95
2, 92880, Note_on_c, 0, 55, 95
2, 92880, Note_on_c, 0, 52, 95
2, 93120, Note_off_c, 0, 59, 95
2, 93120, Note_off_c, 0, 55, 95
2, 93120, Note_off_c, 0, 52, 95
2, 93120, Note_on_c, 0, 59, 95
2, 93120, Note_on_c, 0, 55, 95
2, 93120, Note_on_c, 0, 52, 95
2, 93360, Note_off_c, 0, 59, 95
2, 93360, Note_off_c, 0, 55, 95
2, 93360, Note_off_c, 0, 52, 95
2, 93360, Note_on_c, 0, 59, 95
2, 93360, Note_on_c, 0, 55, 95
2, 93360, Note_on_c, 0, 52, 95
2, 93600, Note_off_c, 0, 59, 95
2, 93600, Note_off_c, 0, 55, 95
2, 93600, Note_off_c, 0, 52, 95
2, 93600, Note_on_c, 0, 63, 95
2, 93600, Note_on_c, 0, 57, 95
2, 93600, Note_on_c, 0, 54, 95
2, 93600, Note_on_c, 0, 42, 95
2, 94080, Note_off_c, 0, 63, 95
2, 94080, Note_off_c, 0, 57, 95
2, 94080, Note_off_c, 0, 54, 95
2, 94080, Note_off_c, 0, 42, 95
2, 94080, Note_on_c, 0, 63, 95
2, 94080, Note_on_c, 0, 57, 95
2, 94080, Note_on_c, 0, 54, 95
2, 94320, Note_off_c, 0, 63, 95
2, 94320, Note_off_c, 0, 57, 95
2, 94320, Note_off_c, 0, 54, 95
2, 94320, Note_on_c, 0, 63, 95
2, 94320, Note_on_c, 0, 57, 95
2, 94320, Note_on_c, 0, 54, 95
2, 94560, Note_off_c, 0, 63, 95
2, 94560, Note_off_c, 0, 57, 95
2, 94560, Note_off_c, 0, 54, 95
2, 94560, Note_on_c, 0, 63, 95
2, 94560, Note_on_c, 0, 57, 95
2, 94560, Note_on_c, 0, 54, 95
2, 94800, Note_off_c, 0, 63, 95
2, 94800, Note_off_c, 0, 57, 95
2, 94800, Note_off_c, 0, 54, 95
2, 94800, Note_on_c, 0, 63, 95
2, 94800, Note_on_c, 0, 57, 95
2, 94800, Note_on_c, 0, 54, 95
2, 95040, Note_off_c, 0, 63, 95
2, 95040, Note_off_c, 0, 57, 95
2, 95040, Note_off_c, 0, 54, 95
2, 95040, Note_on_c, 0, 64, 95
2, 95040, Note_on_c, 0, 59, 95
2, 95040, Note_on_c, 0, 55, 95
2, 95040, Note_on_c, 0, 43, 95
2, 95520, Note_off_c, 0, 64, 95
2, 95520, Note_off_c, 0, 59, 95
2, 95520, Note_off_c, 0, 55, 95
2, 95520, Note_off_c, 0, 43, 95
2, 95520, Note_on_c, 0, 64, 95
2, 95520, Note_on_c, 0, 59, 95
2, 95520, Note_on_c, 0, 55, 95
2, 95760, Note_off_c, 0, 64, 95
2, 95760, Note_off_c, 0, 59, 95
2, 95760, Note_off_c, 0, 55, 95
2, 95760, Note_on_c, 0, 64, 95
2, 95760, Note_on_c, 0, 59, 95
2, 95760, Note_on_c, 0, 55, 95
2, 96000, Note_off_c, 0, 64, 95
2, 96000, Note_off_c, 0, 59, 95
2, 96000, Note_off_c, 0, 55, 95
2, 96000, Note_on_c, 0, 64, 95
2, 96000, Note_on_c, 0, 59, 95
2, 96000, Note_on_c, 0, 55, 95
2, 96240, Note_off_c, 0, 64, 95
2, 96240, Note_off_c, 0, 59, 95
2, 96240, Note_off_c, 0, 55, 95
2, 96240, Note_on_c, 0, 64, 95
2, 96240, Note_on_c, 0, 59, 95
2, 96240, Note_on_c, 0, 55, 95
2, 96480, Note_off_c, 0, 64, 95
2, 96480, Note_off_c, 0, 59, 95
2, 96480, Note_off_c, 0, 55, 95
2, 96480, Note_on_c, 1, 64, 95
2, 96480, Note_on_c, 1, 59, 95
2, 96480, Note_on_c, 1, 55, 95
2, 96480, Note_on_c, 1, 43, 95
2, 96600, Pitch_bend_c, 1, 8832
2, 96600, Pitch_bend_c, 1, 8832
2, 96600, Pitch_bend_c, 1, 8832
2, 96600, Pitch_bend_c, 1, 8832
2, 96720, Pitch_bend_c, 1, 9600
2, 96720, Pitch_bend_c, 1, 8192
2, 96720, Note_off_c, 1, 64, 95
2, 96720, Pitch_bend_c, 1, 9600
2, 96720, Pitch_bend_c, 1, 8192
2, 96720, Note_off_c, 1, 59, 95
2, 96720, Pitch_bend_c, 1, 9600
2, 96720, Pitch_bend_c, 1, 8192
2, 96720, Note_off_c, 1, 55, 95
2, 96720, Pitch_bend_c, 1, 9600
2, 96720, Pitch_bend_c, 1, 8192
2, 96720, Note_off_c, 1, 43, 95
2, 96720, Note_on_c, 0, 66, 95
2, 96720, Note_on_c, 0, 61, 95
2, 96720, Note_on_c, 0, 57, 95
2, 96720, Note_on_c, 0, 45, 95
2, 96960, Note_off_c, 0, 66, 95
2, 96960, Note_off_c, 0, 61, 95
2, 96960, Note_off_c, 0, 57, 95
2, 96960, Note_off_c, 0, 45, 95
2, 96960, Note_on_c, 0, 66, 95
2, 96960, Note_on_c, 0, 61, 95
2, 96960, Note_on_c, 0, 57, 95
2, 97200, Note_off_c, 0, 66, 95
2, 97200, Note_off_c, 0, 61, 95
2, 97200, Note_off_c, 0, 57, 95
2, 97200, Note_on_c, 0, 66, 95
2, 97200, Note_on_c, 0, 61, 95
2, 97200, Note_on_c, 0, 57, 95
2, 97440, Note_off_c, 0, 66, 95
2, 97440, Note_off_c, 0, 61, 95
2, 97440, Note_off_c, 0, 57, 95
2, 97440, Note_on_c, 0, 66, 95
2, 97440, Note_on_c, 0, 61, 95
2, 97440, Note_on_c, 0, 57, 95
2, 97680, Note_off_c, 0, 66, 95
2, 97680, Note_off_c, 0, 61, 95
2, 97680, Note_off_c, 0, 57, 95
2, 97680, Note_on_c, 0, 66, 95
2, 97680, Note_on_c, 0, 61, 95
2, 97680, Note_on_c, 0, 57, 95
2, 97920, Note_off_c, 0, 66, 95
2, 97920, Note_off_c, 0, 61, 95
2, 97920, Note_off_c, 0, 57, 95
2, 97920, Note_on_c, 0, 69, 95
2, 97920, Note_on_c, 0, 62, 95
2, 97920, Note_on_c, 0, 59, 95
2, 97920, Note_on_c, 0, 47, 95
2, 98400, Note_off_c, 0, 69, 95
2, 98400, Note_off_c, 0, 62, 95
2, 98400, Note_off_c, 0, 59, 95
2, 98400, Note_off_c, 0, 47, 95
2, 98400, Note_on_c, 0, 69, 95
2, 98400, Note_on_c, 0, 62, 95
2, 98400, Note_on_c, 0, 59, 95
2, 98640, Note_off_c, 0, 69, 95
2, 98640, Note_off_c, 0, 62, 95
2, 98640, Note_off_c, 0, 59, 95
2, 98640, Note_on_c, 0, 69, 95
2, 98640, Note_on_c, 0, 62, 95
2, 98640, Note_on_c, 0, 59, 95
2, 98880, Note_off_c, 0, 69, 95
2, 98880, Note_off_c, 0, 62, 95
2, 98880, Note_off_c, 0, 59, 95
2, 98880, Note_on_c, 0, 69, 95
2, 98880, Note_on_c, 0, 62, 95
2, 98880, Note_on_c, 0, 59, 95
2, 99120, Note_off_c, 0, 69, 95
2, 99120, Note_off_c, 0, 62, 95
2, 99120, Note_off_c, 0, 59, 95
2, 99120, Note_on_c, 0, 69, 95
2, 99120, Note_on_c, 0, 62, 95
2, 99120, Note_on_c, 0, 59, 95
2, 99360, Note_off_c, 0, 69, 95
2, 99360, Note_off_c, 0, 62, 95
2, 99360, Note_off_c, 0, 59, 95
2, 99360, Note_on_c, 0, 69, 95
2, 99360, Note_on_c, 0, 62, 95
2, 99360, Note_on_c, 0, 59, 95
2, 99360, Note_on_c, 0, 47, 95
2, 99840, Note_off_c, 0, 69, 95
2, 99840, Note_off_c, 0, 62, 95
2, 99840, Note_off_c, 0, 59, 95
2, 99840, Note_off_c, 0, 47, 95
2, 99840, Note_on_c, 0, 69, 95
2, 99840, Note_on_c, 0, 62, 95
2, 99840, Note_on_c, 0, 59, 95
2, 100080, Note_off_c, 0, 69, 95
2, 100080, Note_off_c, 0, 62, 95
2, 100080, Note_off_c, 0, 59, 95
2, 100080, Note_on_c, 0, 69, 95
2, 100080, Note_on_c, 0, 62, 95
2, 100080, Note_on_c, 0, 59, 95
2, 100320, Note_off_c, 0, 69, 95
2, 100320, Note_off_c, 0, 62, 95
2, 100320, Note_off_c, 0, 59, 95
2, 100320, Note_on_c, 0, 69, 95
2, 100320, Note_on_c, 0, 62, 95
2, 100320, Note_on_c, 0, 59, 95
2, 100560, Note_off_c, 0, 69, 95
2, 100560, Note_off_c, 0, 62, 95
2, 100560, Note_off_c, 0, 59, 95
2, 100560, Note_on_c, 0, 69, 95
2, 100560, Note_on_c, 0, 62, 95
2, 100560, Note_on_c, 0, 59, 95
2, 100800, Note_off_c, 0, 69, 95
2, 100800, Note_off_c, 0, 62, 95
2, 100800, Note_off_c, 0, 59, 95
2, 100800, Note_on_c, 0, 66, 95
2, 100800, Note_on_c, 0, 61, 95
2, 100800, Note_on_c, 0, 59, 95
2, 100800, Note_on_c, 0, 45, 95
2, 101280, Note_off_c, 0, 66, 95
2, 101280, Note_off_c, 0, 61, 95
2, 101280, Note_off_c, 0, 59, 95
2, 101280, Note_off_c, 0, 45, 95
2, 101280, Note_on_c, 0, 66, 95
2, 101280, Note_on_c, 0, 61, 95
2, 101280, Note_on_c, 0, 59, 95
2, 101520, Note_off_c, 0, 66, 95
2, 101520, Note_off_c, 0, 61, 95
2, 101520, Note_off_c, 0, 59, 95
2, 101520, Note_on_c, 0, 66, 95
2, 101520, Note_on_c, 0, 61, 95
2, 101520, Note_on_c, 0, 59, 95
2, 101760, Note_off_c, 0, 66, 95
2, 101760, Note_off_c, 0, 61, 95
2, 101760, Note_off_c, 0, 59, 95
2, 101760, Note_on_c, 0, 66, 95
2, 101760, Note_on_c, 0, 61, 95
2, 101760, Note_on_c, 0, 59, 95
2, 102000, Note_off_c, 0, 66, 95
2, 102000, Note_off_c, 0, 61, 95
2, 102000, Note_off_c, 0, 59, 95
2, 102000, Note_on_c, 0, 67, 95
2, 102000, Note_on_c, 0, 61, 95
2, 102000, Note_on_c, 0, 59, 95
2, 102240, Note_off_c, 0, 67, 95
2, 102240, Note_off_c, 0, 61, 95
2, 102240, Note_off_c, 0, 59, 95
2, 102240, Note_on_c, 0, 66, 95
2, 102240, Note_on_c, 0, 61, 95
2, 102240, Note_on_c, 0, 59, 95
2, 102240, Note_on_c, 0, 45, 95
2, 102720, Note_off_c, 0, 66, 95
2, 102720, Note_off_c, 0, 61, 95
2, 102720, Note_off_c, 0, 59, 95
2, 102720, Note_off_c, 0, 45, 95
2, 102720, Note_on_c, 0, 66, 95
2, 102720, Note_on_c, 0, 61, 95
2, 102720, Note_on_c, 0, 59, 95
2, 102960, Note_off_c, 0, 66, 95
2, 102960, Note_off_c, 0, 61, 95
2, 102960, Note_off_c, 0, 59, 95
2, 102960, Note_on_c, 0, 66, 95
2, 102960, Note_on_c, 0, 61, 95
2, 102960, Note_on_c, 0, 59, 95
2, 103200, Note_off_c, 0, 66, 95
2, 103200, Note_off_c, 0, 61, 95
2, 103200, Note_off_c, 0, 59, 95
2, 103200, Note_on_c, 0, 66, 95
2, 103200, Note_on_c, 0, 61, 95
2, 103200, Note_on_c, 0, 59, 95
2, 103440, Note_off_c, 0, 66, 95
2, 103440, Note_off_c, 0, 61, 95
2, 103440, Note_off_c, 0, 59, 95
2, 103440, Note_on_c, 0, 59, 95
2, 103440, Note_on_c, 0, 55, 95
2, 103440, Note_on_c, 0, 50, 95
2, 103680, Note_off_c, 0, 59, 95
2, 103680, Note_off_c, 0, 55, 95
2, 103680, Note_off_c, 0, 50, 95
2, 103680, Note_on_c, 0, 59, 95
2, 103680, Note_on_c, 0, 55, 95
2, 103680, Note_on_c, 0, 52, 95
2, 103680, Note_on_c, 0, 47, 95
2, 103680, Note_on_c, 0, 40, 95
2, 104160, Note_off_c, 0, 59, 95
2, 104160, Note_off_c, 0, 55, 95
2, 104160, Note_off_c, 0, 52, 95
2, 104160, Note_off_c, 0, 47, 95
2, 104160, Note_off_c, 0, 40, 95
2, 104160, Note_on_c, 0, 59, 95
2, 104160, Note_on_c, 0, 55, 95
2, 104160, Note_on_c, 0, 52, 95
2, 104160, Note_on_c, 0, 47, 95
2, 104400, Note_off_c, 0, 59, 95
2, 104400, Note_off_c, 0, 55, 95
2, 104400, Note_off_c, 0, 52, 95
2, 104400, Note_off_c, 0, 47, 95
2, 104400, Note_on_c, 0, 59, 95
2, 104400, Note_on_c, 0, 55, 95
2, 104400, Note_on_c, 0, 52, 95
2, 104400, Note_on_c, 0, 47, 95
2, 104640, Note_off_c, 0, 59, 95
2, 104640, Note_off_c, 0, 55, 95
2, 104640, Note_off_c, 0, 52, 95
2, 104640, Note_off_c, 0, 47, 95
2, 104640, Note_on_c, 0, 59, 95
2, 104640, Note_on_c, 0, 55, 95
2, 104640, Note_on_c, 0, 52, 95
2, 104640, Note_on_c, 0, 47, 95
2, 104880, Note_off_c, 0, 59, 95
2, 104880, Note_off_c, 0, 55, 95
2, 104880, Note_off_c, 0, 52, 95
2, 104880, Note_off_c, 0, 47, 95
2, 104880, Note_on_c, 0, 59, 95
2, 104880, Note_on_c, 0, 55, 95
2, 104880, Note_on_c, 0, 52, 95
2, 104880, Note_on_c, 0, 47, 95
2, 105120, Note_off_c, 0, 59, 95
2, 105120, Note_off_c, 0, 55, 95
2, 105120, Note_off_c, 0, 52, 95
2, 105120, Note_off_c, 0, 47, 95
2, 105120, Note_on_c, 0, 64, 95
2, 105120, Note_on_c, 0, 59, 95
2, 105120, Note_on_c, 0, 55, 95
2, 105120, Note_on_c, 0, 52, 95
2, 105120, Note_on_c, 0, 47, 95
2, 105120, Note_on_c, 0, 40, 95
2, 105600, Note_off_c, 0, 64, 95
2, 105600, Note_off_c, 0, 59, 95
2, 105600, Note_off_c, 0, 55, 95
2, 105600, Note_off_c, 0, 52, 95
2, 105600, Note_off_c, 0, 47, 95
2, 105600, Note_off_c, 0, 40, 95
2, 105600, Note_on_c, 0, 59, 95
2, 105600, Note_on_c, 0, 55, 95
2, 105600, Note_on_c, 0, 50, 95
2, 105840, Note_off_c, 0, 59, 95
2, 105840, Note_off_c, 0, 55, 95
2, 105840, Note_off_c, 0, 50, 95
2, 105840, Note_on_c, 0, 59, 95
2, 105840, Note_on_c, 0, 55, 95
2, 105840, Note_on_c, 0, 50, 95
2, 106080, Note_off_c, 0, 59, 95
2, 106080, Note_off_c, 0, 55, 95
2, 106080, Note_off_c, 0, 50, 95
2, 106080, Note_on_c, 0, 59, 95
2, 106080, Note_on_c, 0, 55, 95
2, 106080, Note_on_c, 0, 50, 95
2, 106320, Note_off_c, 0, 59, 95
2, 106320, Note_off_c, 0, 55, 95
2, 106320, Note_off_c, 0, 50, 95
2, 106320, Note_on_c, 0, 59, 95
2, 106320, Note_on_c, 0, 55, 95
2, 106320, Note_on_c, 0, 50, 95
2, 106560, Note_off_c, 0, 59, 95
2, 106560, Note_off_c, 0, 55, 95
2, 106560, Note_off_c, 0, 50, 95
2, 106560, Note_on_c, 0, 59, 95
2, 106560, Note_on_c, 0, 55, 95
2, 106560, Note_on_c, 0, 52, 95
2, 106560, Note_on_c, 0, 47, 95
2, 106560, Note_on_c, 0, 40, 95
2, 107040, Note_off_c, 0, 59, 95
2, 107040, Note_off_c, 0, 55, 95
2, 107040, Note_off_c, 0, 52, 95
2, 107040, Note_off_c, 0, 47, 95
2, 107040, Note_off_c, 0, 40, 95
2, 107040, Note_on_c, 0, 59, 95
2, 107040, Note_on_c, 0, 55, 95
2, 107040, Note_on_c, 0, 52, 95
2, 107040, Note_on_c, 0, 47, 95
2, 107280, Note_off_c, 0, 59, 95
2, 107280, Note_off_c, 0, 55, 95
2, 107280, Note_off_c, 0, 52, 95
2, 107280, Note_off_c, 0, 47, 95
2, 107280, Note_on_c, 0, 59, 95
2, 107280, Note_on_c, 0, 55, 95
2, 107280, Note_on_c, 0, 52, 95
2, 107280, Note_on_c, 0, 47, 95
2, 107520, Note_off_c, 0, 59, 95
2, 107520, Note_off_c, 0, 55, 95
2, 107520, Note_off_c, 0, 52, 95
2, 107520, Note_off_c, 0, 47, 95
2, 107520, Note_on_c, 0, 59, 95
2, 107520, Note_on_c, 0, 55, 95
2, 107520, Note_on_c, 0, 52, 95
2, 107520, Note_on_c, 0, 47, 95
2, 107760, Note_off_c, 0, 59, 95
2, 107760, Note_off_c, 0, 55, 95
2, 107760, Note_off_c, 0, 52, 95
2, 107760, Note_off_c, 0, 47, 95
2, 107760, Note_on_c, 0, 59, 95
2, 107760, Note_on_c, 0, 55, 95
2, 107760, Note_on_c, 0, 52, 95
2, 107760, Note_on_c, 0, 47, 95
2, 108000, Note_off_c, 0, 59, 95
2, 108000, Note_off_c, 0, 55, 95
2, 108000, Note_off_c, 0, 52, 95
2, 108000, Note_off_c, 0, 47, 95
2, 108000, Note_on_c, 0, 64, 95
2, 108000, Note_on_c, 0, 59, 95
2, 108000, Note_on_c, 0, 55, 95
2, 108000, Note_on_c, 0, 52, 95
2, 108000, Note_on_c, 0, 47, 95
2, 108000, Note_on_c, 0, 40, 95
2, 108480, Note_off_c, 0, 64, 95
2, 108480, Note_off_c, 0, 59, 95
2, 108480, Note_off_c, 0, 55, 95
2, 108480, Note_off_c, 0, 52, 95
2, 108480, Note_off_c, 0, 47, 95
2, 108480, Note_off_c, 0, 40, 95
2, 108480, Note_on_c, 0, 59, 95
2, 108480, Note_on_c, 0, 55, 95
2, 108480, Note_on_c, 0, 52, 95
2, 108480, Note_on_c, 0, 47, 95
2, 108720, Note_off_c, 0, 59, 95
2, 108720, Note_off_c, 0, 55, 95
2, 108720, Note_off_c, 0, 52, 95
2, 108720, Note_off_c, 0, 47, 95
2, 108720, Note_on_c, 0, 59, 95
2, 108720, Note_on_c, 0, 55, 95
2, 108720, Note_on_c, 0, 52, 95
2, 108720, Note_on_c, 0, 47, 95
2, 108960, Note_off_c, 0, 59, 95
2, 108960, Note_off_c, 0, 55, 95
2, 108960, Note_off_c, 0, 52, 95
2, 108960, Note_off_c, 0, 47, 95
2, 108960, Note_on_c, 0, 59, 95
2, 108960, Note_on_c, 0, 55, 95
2, 108960, Note_on_c, 0, 52, 95
2, 108960, Note_on_c, 0, 47, 95
2, 109200, Note_off_c, 0, 59, 95
2, 109200, Note_off_c, 0, 55, 95
2, 109200, Note_off_c, 0, 52, 95
2, 109200, Note_off_c, 0, 47, 95
2, 109200, Note_on_c, 0, 59, 95
2, 109200, Note_on_c, 0, 55, 95
2, 109200, Note_on_c, 0, 52, 95
2, 109200, Note_on_c, 0, 47, 95
2, 109440, Note_off_c, 0, 59, 95
2, 109440, Note_off_c, 0, 55, 95
2, 109440, Note_off_c, 0, 52, 95
2, 109440, Note_off_c, 0, 47, 95
2, 109440, Note_on_c, 0, 55, 95
2, 109440, Note_on_c, 0, 53, 95
2, 109440, Note_on_c, 0, 48, 95
2, 109440, Note_on_c, 0, 41, 95
2, 109920, Note_off_c, 0, 55, 95
2, 109920, Note_off_c, 0, 53, 95
2, 109920, Note_off_c, 0, 48, 95
2, 109920, Note_off_c, 0, 41, 95
2, 109920, Note_on_c, 0, 55, 95
2, 109920, Note_on_c, 0, 53, 95
2, 109920, Note_on_c, 0, 48, 95
2, 109920, Note_on_c, 0, 41, 95
2, 110160, Note_off_c, 0, 55, 95
2, 110160, Note_off_c, 0, 53, 95
2, 110160, Note_off_c, 0, 48, 95
2, 110160, Note_off_c, 0, 41, 95
2, 110160, Note_on_c, 0, 55, 95
2, 110160, Note_on_c, 0, 53, 95
2, 110160, Note_on_c, 0, 48, 95
2, 110160, Note_on_c, 0, 41, 95
2, 110400, Note_off_c, 0, 55, 95
2, 110400, Note_off_c, 0, 53, 95
2, 110400, Note_off_c, 0, 48, 95
2, 110400, Note_off_c, 0, 41, 95
2, 110400, Note_on_c, 0, 55, 95
2, 110400, Note_on_c, 0, 53, 95
2, 110400, Note_on_c, 0, 48, 95
2, 110400, Note_on_c, 0, 41, 95
2, 110640, Note_off_c, 0, 55, 95
2, 110640, Note_off_c, 0, 53, 95
2, 110640, Note_off_c, 0, 48, 95
2, 110640, Note_off_c, 0, 41, 95
2, 110640, Note_on_c, 0, 55, 95
2, 110640, Note_on_c, 0, 53, 95
2, 110640, Note_on_c, 0, 48, 95
2, 110640, Note_on_c, 0, 41, 95
2, 110880, Note_off_c, 0, 55, 95
2, 110880, Note_off_c, 0, 53, 95
2, 110880, Note_off_c, 0, 48, 95
2, 110880, Note_off_c, 0, 41, 95
2, 110880, Note_on_c, 0, 64, 95
2, 110880, Note_on_c, 0, 59, 95
2, 110880, Note_on_c, 0, 55, 95
2, 110880, Note_on_c, 0, 53, 95
2, 110880, Note_on_c, 0, 48, 95
2, 110880, Note_on_c, 0, 41, 95
2, 111360, Note_off_c, 0, 64, 95
2, 111360, Note_off_c, 0, 59, 95
2, 111360, Note_off_c, 0, 55, 95
2, 111360, Note_off_c, 0, 53, 95
2, 111360, Note_off_c, 0, 48, 95
2, 111360, Note_off_c, 0, 41, 95
2, 111360, Note_on_c, 0, 55, 95
2, 111360, Note_on_c, 0, 53, 95
2, 111360, Note_on_c, 0, 48, 95
2, 111360, Note_on_c, 0, 41, 95
2, 111600, Note_off_c, 0, 55, 95
2, 111600, Note_off_c, 0, 53, 95
2, 111600, Note_off_c, 0, 48, 95
2, 111600, Note_off_c, 0, 41, 95
2, 111600, Note_on_c, 0, 55, 95
2, 111600, Note_on_c, 0, 53, 95
2, 111600, Note_on_c, 0, 48, 95
2, 111600, Note_on_c, 0, 41, 95
2, 111840, Note_off_c, 0, 55, 95
2, 111840, Note_off_c, 0, 53, 95
2, 111840, Note_off_c, 0, 48, 95
2, 111840, Note_off_c, 0, 41, 95
2, 111840, Note_on_c, 0, 55, 95
2, 111840, Note_on_c, 0, 53, 95
2, 111840, Note_on_c, 0, 48, 95
2, 111840, Note_on_c, 0, 41, 95
2, 112080, Note_off_c, 0, 55, 95
2, 112080, Note_off_c, 0, 53, 95
2, 112080, Note_off_c, 0, 48, 95
2, 112080, Note_off_c, 0, 41, 95
2, 112080, Note_on_c, 0, 55, 95
2, 112080, Note_on_c, 0, 53, 95
2, 112080, Note_on_c, 0, 48, 95
2, 112080, Note_on_c, 0, 41, 95
2, 112320, Note_off_c, 0, 55, 95
2, 112320, Note_off_c, 0, 53, 95
2, 112320, Note_off_c, 0, 48, 95
2, 112320, Note_off_c, 0, 41, 95
2, 112320, Note_on_c, 0, 55, 95
2, 112320, Note_on_c, 0, 52, 95
2, 112320, Note_on_c, 0, 47, 95
2, 112320, Note_on_c, 0, 40, 95
2, 112800, Note_off_c, 0, 55, 95
2, 112800, Note_off_c, 0, 52, 95
2, 112800, Note_off_c, 0, 47, 95
2, 112800, Note_off_c, 0, 40, 95
2, 112800, Note_on_c, 0, 55, 95
2, 112800, Note_on_c, 0, 52, 95
2, 112800, Note_on_c, 0, 47, 95
2, 112800, Note_on_c, 0, 40, 95
2, 113040, Note_off_c, 0, 55, 95
2, 113040, Note_off_c, 0, 52, 95
2, 113040, Note_off_c, 0, 47, 95
2, 113040, Note_off_c, 0, 40, 95
2, 113040, Note_on_c, 0, 55, 95
2, 113040, Note_on_c, 0, 52, 95
2, 113040, Note_on_c, 0, 47, 95
2, 113040, Note_on_c, 0, 40, 95
2, 113280, Note_off_c, 0, 55, 95
2, 113280, Note_off_c, 0, 52, 95
2, 113280, Note_off_c, 0, 47, 95
2, 113280, Note_off_c, 0, 40, 95
2, 113280, Note_on_c, 0, 55, 95
2, 113280, Note_on_c, 0, 52, 95
2, 113280, Note_on_c, 0, 47, 95
2, 113280, Note_on_c, 0, 40, 95
2, 113520, Note_off_c, 0, 55, 95
2, 113520, Note_off_c, 0, 52, 95
2, 113520, Note_off_c, 0, 47, 95
2, 113520, Note_off_c, 0, 40, 95
2, 113520, Note_on_c, 0, 55, 95
2, 113520, Note_on_c, 0, 52, 95
2, 113520, Note_on_c, 0, 47, 95
2, 113520, Note_on_c, 0, 40, 95
2, 113760, Note_off_c, 0, 55, 95
2, 113760, Note_off_c, 0, 52, 95
2, 113760, Note_off_c, 0, 47, 95
2, 113760, Note_off_c, 0, 40, 95
2, 113760, Note_on_c, 0, 64, 95
2, 113760, Note_on_c, 0, 59, 95
2, 113760, Note_on_c, 0, 55, 95
2, 113760, Note_on_c, 0, 52, 95
2, 113760, Note_on_c, 0, 47, 95
2, 113760, Note_on_c, 0, 40, 95
2, 114240, Note_off_c, 0, 64, 95
2, 114240, Note_off_c, 0, 59, 95
2, 114240, Note_off_c, 0, 55, 95
2, 114240, Note_off_c, 0, 52, 95
2, 114240, Note_off_c, 0, 47, 95
2, 114240, Note_off_c, 0, 40, 95
2, 114240, Note_on_c, 0, 55, 95
2, 114240, Note_on_c, 0, 52, 95
2, 114240, Note_on_c, 0, 47, 95
2, 114240, Note_on_c, 0, 40, 95
2, 114480, Note_off_c, 0, 55, 95
2, 114480, Note_off_c, 0, 52, 95
2, 114480, Note_off_c, 0, 47, 95
2, 114480, Note_off_c, 0, 40, 95
2, 114480, Note_on_c, 0, 55, 95
2, 114480, Note_on_c, 0, 52, 95
2, 114480, Note_on_c, 0, 47, 95
2, 114480, Note_on_c, 0, 40, 95
2, 114720, Note_off_c, 0, 55, 95
2, 114720, Note_off_c, 0, 52, 95
2, 114720, Note_off_c, 0, 47, 95
2, 114720, Note_off_c, 0, 40, 95
2, 114720, Note_on_c, 0, 55, 95
2, 114720, Note_on_c, 0, 52, 95
2, 114720, Note_on_c, 0, 47, 95
2, 114720, Note_on_c, 0, 40, 95
2, 114960, Note_off_c, 0, 55, 95
2, 114960, Note_off_c, 0, 52, 95
2, 114960, Note_off_c, 0, 47, 95
2, 114960, Note_off_c, 0, 40, 95
2, 114960, Note_on_c, 0, 55, 95
2, 114960, Note_on_c, 0, 52, 95
2, 114960, Note_on_c, 0, 47, 95
2, 114960, Note_on_c, 0, 40, 95
2, 115200, Note_off_c, 0, 55, 95
2, 115200, Note_off_c, 0, 52, 95
2, 115200, Note_off_c, 0, 47, 95
2, 115200, Note_off_c, 0, 40, 95
2, 115200, Note_on_c, 0, 55, 95
2, 115200, Note_on_c, 0, 51, 95
2, 115200, Note_on_c, 0, 46, 95
2, 115200, Note_on_c, 0, 39, 95
2, 115680, Note_off_c, 0, 55, 95
2, 115680, Note_off_c, 0, 51, 95
2, 115680, Note_off_c, 0, 46, 95
2, 115680, Note_off_c, 0, 39, 95
2, 115680, Note_on_c, 0, 55, 95
2, 115680, Note_on_c, 0, 51, 95
2, 115680, Note_on_c, 0, 46, 95
2, 115680, Note_on_c, 0, 39, 95
2, 115920, Note_off_c, 0, 55, 95
2, 115920, Note_off_c, 0, 51, 95
2, 115920, Note_off_c, 0, 46, 95
2, 115920, Note_off_c, 0, 39, 95
2, 115920, Note_on_c, 0, 55, 95
2, 115920, Note_on_c, 0, 51, 95
2, 115920, Note_on_c, 0, 46, 95
2, 115920, Note_on_c, 0, 39, 95
2, 116160, Note_off_c, 0, 55, 95
2, 116160, Note_off_c, 0, 51, 95
2, 116160, Note_off_c, 0, 46, 95
2, 116160, Note_off_c, 0, 39, 95
2, 116160, Note_on_c, 0, 55, 95
2, 116160, Note_on_c, 0, 51, 95
2, 116160, Note_on_c, 0, 46, 95
2, 116160, Note_on_c, 0, 39, 95
2, 116400, Note_off_c, 0, 55, 95
2, 116400, Note_off_c, 0, 51, 95
2, 116400, Note_off_c, 0, 46, 95
2, 116400, Note_off_c, 0, 39, 95
2, 116400, Note_on_c, 0, 55, 95
2, 116400, Note_on_c, 0, 51, 95
2, 116400, Note_on_c, 0, 46, 95
2, 116400, Note_on_c, 0, 39, 95
2, 116640, Note_off_c, 0, 55, 95
2, 116640, Note_off_c, 0, 51, 95
2, 116640, Note_off_c, 0, 46, 95
2, 116640, Note_off_c, 0, 39, 95
2, 116640, Note_on_c, 0, 64, 95
2, 116640, Note_on_c, 0, 59, 95
2, 116640, Note_on_c, 0, 55, 95
2, 116640, Note_on_c, 0, 51, 95
2, 116640, Note_on_c, 0, 46, 95
2, 116640, Note_on_c, 0, 39, 95
2, 117120, Note_off_c, 0, 64, 95
2, 117120, Note_off_c, 0, 59, 95
2, 117120, Note_off_c, 0, 55, 95
2, 117120, Note_off_c, 0, 51, 95
2, 117120, Note_off_c, 0, 46, 95
2, 117120, Note_off_c, 0, 39, 95
2, 117120, Note_on_c, 0, 55, 95
2, 117120, Note_on_c, 0, 51, 95
2, 117120, Note_on_c, 0, 46, 95
2, 117120, Note_on_c, 0, 39, 95
2, 117360, Note_off_c, 0, 55, 95
2, 117360, Note_off_c, 0, 51, 95
2, 117360, Note_off_c, 0, 46, 95
2, 117360, Note_off_c, 0, 39, 95
2, 117360, Note_on_c, 0, 55, 95
2, 117360, Note_on_c, 0, 51, 95
2, 117360, Note_on_c, 0, 46, 95
2, 117360, Note_on_c, 0, 39, 95
2, 117600, Note_off_c, 0, 55, 95
2, 117600, Note_off_c, 0, 51, 95
2, 117600, Note_off_c, 0, 46, 95
2, 117600, Note_off_c, 0, 39, 95
2, 117600, Note_on_c, 0, 55, 95
2, 117600, Note_on_c, 0, 51, 95
2, 117600, Note_on_c, 0, 46, 95
2, 117600, Note_on_c, 0, 39, 95
2, 117840, Note_off_c, 0, 55, 95
2, 117840, Note_off_c, 0, 51, 95
2, 117840, Note_off_c, 0, 46, 95
2, 117840, Note_off_c, 0, 39, 95
2, 117840, Note_on_c, 0, 55, 95
2, 117840, Note_on_c, 0, 51, 95
2, 117840, Note_on_c, 0, 46, 95
2, 117840, Note_on_c, 0, 39, 95
2, 118080, Note_off_c, 0, 55, 95
2, 118080, Note_off_c, 0, 51, 95
2, 118080, Note_off_c, 0, 46, 95
2, 118080, Note_off_c, 0, 39, 95
2, 118080, Note_on_c, 0, 55, 95
2, 118080, Note_on_c, 0, 51, 95
2, 118080, Note_on_c, 0, 46, 95
2, 118080, Note_on_c, 0, 39, 95
2, 118560, Note_off_c, 0, 55, 95
2, 118560, Note_off_c, 0, 51, 95
2, 118560, Note_off_c, 0, 46, 95
2, 118560, Note_off_c, 0, 39, 95
2, 118560, Note_on_c, 0, 55, 95
2, 118560, Note_on_c, 0, 51, 95
2, 118560, Note_on_c, 0, 46, 95
2, 118560, Note_on_c, 0, 39, 95
2, 118800, Note_off_c, 0, 55, 95
2, 118800, Note_off_c, 0, 51, 95
2, 118800, Note_off_c, 0, 46, 95
2, 118800, Note_off_c, 0, 39, 95
2, 118800, Note_on_c, 0, 55, 95
2, 118800, Note_on_c, 0, 51, 95
2, 118800, Note_on_c, 0, 46, 95
2, 118800, Note_on_c, 0, 39, 95
2, 119040, Note_off_c, 0, 55, 95
2, 119040, Note_off_c, 0, 51, 95
2, 119040, Note_off_c, 0, 46, 95
2, 119040, Note_off_c, 0, 39, 95
2, 119040, Note_on_c, 0, 55, 95
2, 119040, Note_on_c, 0, 51, 95
2, 119040, Note_on_c, 0, 46, 95
2, 119040, Note_on_c, 0, 39, 95
2, 119280, Note_off_c, 0, 55, 95
2, 119280, Note_off_c, 0, 51, 95
2, 119280, Note_off_c, 0, 46, 95
2, 119280, Note_off_c, 0, 39, 95
2, 119280, Note_on_c, 0, 55, 95
2, 119280, Note_on_c, 0, 51, 95
2, 119280, Note_on_c, 0, 46, 95
2, 119280, Note_on_c, 0, 39, 95
2, 119520, Note_off_c, 0, 55, 95
2, 119520, Note_off_c, 0, 51, 95
2, 119520, Note_off_c, 0, 46, 95
2, 119520, Note_off_c, 0, 39, 95
2, 119520, Note_on_c, 0, 64, 95
2, 119520, Note_on_c, 0, 59, 95
2, 119520, Note_on_c, 0, 55, 95
2, 119520, Note_on_c, 0, 51, 95
2, 119520, Note_on_c, 0, 46, 95
2, 119520, Note_on_c, 0, 39, 95
2, 120000, Note_off_c, 0, 64, 95
2, 120000, Note_off_c, 0, 59, 95
2, 120000, Note_off_c, 0, 55, 95
2, 120000, Note_off_c, 0, 51, 95
2, 120000, Note_off_c, 0, 46, 95
2, 120000, Note_off_c, 0, 39, 95
2, 120000, Note_on_c, 0, 55, 95
2, 120000, Note_on_c, 0, 51, 95
2, 120000, Note_on_c, 0, 46, 95
2, 120000, Note_on_c, 0, 39, 95
2, 120240, Note_off_c, 0, 55, 95
2, 120240, Note_off_c, 0, 51, 95
2, 120240, Note_off_c, 0, 46, 95
2, 120240, Note_off_c, 0, 39, 95
2, 120240, Note_on_c, 0, 55, 95
2, 120240, Note_on_c, 0, 51, 95
2, 120240, Note_on_c, 0, 46, 95
2, 120240, Note_on_c, 0, 39, 95
2, 120480, Note_off_c, 0, 55, 95
2, 120480, Note_off_c, 0, 51, 95
2, 120480, Note_off_c, 0, 46, 95
2, 120480, Note_off_c, 0, 39, 95
2, 120480, Note_on_c, 0, 55, 95
2, 120480, Note_on_c, 0, 51, 95
2, 120480, Note_on_c, 0, 46, 95
2, 120480, Note_on_c, 0, 39, 95
2, 120720, Note_off_c, 0, 55, 95
2, 120720, Note_off_c, 0, 51, 95
2, 120720, Note_off_c, 0, 46, 95
2, 120720, Note_off_c, 0, 39, 95
2, 120720, Note_on_c, 0, 55, 95
2, 120720, Note_on_c, 0, 51, 95
2, 120720, Note_on_c, 0, 46, 95
2, 120720, Note_on_c, 0, 39, 95
2, 120960, Note_off_c, 0, 55, 95
2, 120960, Note_off_c, 0, 51, 95
2, 120960, Note_off_c, 0, 46, 95
2, 120960, Note_off_c, 0, 39, 95
2, 120960, Note_on_c, 0, 55, 95
2, 120960, Note_on_c, 0, 53, 95
2, 120960, Note_on_c, 0, 48, 95
2, 120960, Note_on_c, 0, 41, 95
2, 121440, Note_off_c, 0, 55, 95
2, 121440, Note_off_c, 0, 53, 95
2, 121440, Note_off_c, 0, 48, 95
2, 121440, Note_off_c, 0, 41, 95
2, 121440, Note_on_c, 0, 55, 95
2, 121440, Note_on_c, 0, 53, 95
2, 121440, Note_on_c, 0, 48, 95
2, 121440, Note_on_c, 0, 41, 95
2, 121680, Note_off_c, 0, 55, 95
2, 121680, Note_off_c, 0, 53, 95
2, 121680, Note_off_c, 0, 48, 95
2, 121680, Note_off_c, 0, 41, 95
2, 121680, Note_on_c, 0, 55, 95
2, 121680, Note_on_c, 0, 53, 95
2, 121680, Note_on_c, 0, 48, 95
2, 121680, Note_on_c, 0, 41, 95
2, 121920, Note_off_c, 0, 55, 95
2, 121920, Note_off_c, 0, 53, 95
2, 121920, Note_off_c, 0, 48, 95
2, 121920, Note_off_c, 0, 41, 95
2, 121920, Note_on_c, 0, 55, 95
2, 121920, Note_on_c, 0, 53, 95
2, 121920, Note_on_c, 0, 48, 95
2, 121920, Note_on_c, 0, 41, 95
2, 122160, Note_off_c, 0, 55, 95
2, 122160, Note_off_c, 0, 53, 95
2, 122160, Note_off_c, 0, 48, 95
2, 122160, Note_off_c, 0, 41, 95
2, 122160, Note_on_c, 0, 55, 95
2, 122160, Note_on_c, 0, 53, 95
2, 122160, Note_on_c, 0, 48, 95
2, 122160, Note_on_c, 0, 41, 95
2, 122400, Note_off_c, 0, 55, 95
2, 122400, Note_off_c, 0, 53, 95
2, 122400, Note_off_c, 0, 48, 95
2, 122400, Note_off_c, 0, 41, 95
2, 122400, Note_on_c, 0, 64, 95
2, 122400, Note_on_c, 0, 59, 95
2, 122400, Note_on_c, 0, 55, 95
2, 122400, Note_on_c, 0, 53, 95
2, 122400, Note_on_c, 0, 48, 95
2, 122400, Note_on_c, 0, 41, 95
2, 122880, Note_off_c, 0, 64, 95
2, 122880, Note_off_c, 0, 59, 95
2, 122880, Note_off_c, 0, 55, 95
2, 122880, Note_off_c, 0, 53, 95
2, 122880, Note_off_c, 0, 48, 95
2, 122880, Note_off_c, 0, 41, 95
2, 122880, Note_on_c, 0, 55, 95
2, 122880, Note_on_c, 0, 53, 95
2, 122880, Note_on_c, 0, 48, 95
2, 122880, Note_on_c, 0, 41, 95
2, 123120, Note_off_c, 0, 55, 95
2, 123120, Note_off_c, 0, 53, 95
2, 123120, Note_off_c, 0, 48, 95
2, 123120, Note_off_c, 0, 41, 95
2, 123120, Note_on_c, 0, 55, 95
2, 123120, Note_on_c, 0, 53, 95
2, 123120, Note_on_c, 0, 48, 95
2, 123120, Note_on_c, 0, 41, 95
2, 123360, Note_off_c, 0, 55, 95
2, 123360, Note_off_c, 0, 53, 95
2, 123360, Note_off_c, 0, 48, 95
2, 123360, Note_off_c, 0, 41, 95
2, 123360, Note_on_c, 0, 55, 95
2, 123360, Note_on_c, 0, 53, 95
2, 123360, Note_on_c, 0, 48, 95
2, 123360, Note_on_c, 0, 41, 95
2, 123600, Note_off_c, 0, 55, 95
2, 123600, Note_off_c, 0, 53, 95
2, 123600, Note_off_c, 0, 48, 95
2, 123600, Note_off_c, 0, 41, 95
2, 123600, Note_on_c, 0, 55, 95
2, 123600, Note_on_c, 0, 53, 95
2, 123600, Note_on_c, 0, 48, 95
2, 123600, Note_on_c, 0, 41, 95
2, 123840, Note_off_c, 0, 55, 95
2, 123840, Note_off_c, 0, 53, 95
2, 123840, Note_off_c, 0, 48, 95
2, 123840, Note_off_c, 0, 41, 95
2, 123840, Note_on_c, 0, 55, 95
2, 123840, Note_on_c, 0, 52, 95
2, 123840, Note_on_c, 0, 47, 95
2, 123840, Note_on_c, 0, 40, 95
2, 124320, Note_off_c, 0, 55, 95
2, 124320, Note_off_c, 0, 52, 95
2, 124320, Note_off_c, 0, 47, 95
2, 124320, Note_off_c, 0, 40, 95
2, 124320, Note_on_c, 0, 55, 95
2, 124320, Note_on_c, 0, 52, 95
2, 124320, Note_on_c, 0, 47, 95
2, 124320, Note_on_c, 0, 40, 95
2, 124560, Note_off_c, 0, 55, 95
2, 124560, Note_off_c, 0, 52, 95
2, 124560, Note_off_c, 0, 47, 95
2, 124560, Note_off_c, 0, 40, 95
2, 124560, Note_on_c, 0, 55, 95
2, 124560, Note_on_c, 0, 52, 95
2, 124560, Note_on_c, 0, 47, 95
2, 124560, Note_on_c, 0, 40, 95
2, 124800, Note_off_c, 0, 55, 95
2, 124800, Note_off_c, 0, 52, 95
2, 124800, Note_off_c, 0, 47, 95
2, 124800, Note_off_c, 0, 40, 95
2, 124800, Note_on_c, 0, 55, 95
2, 124800, Note_on_c, 0, 52, 95
2, 124800, Note_on_c, 0, 47, 95
2, 124800, Note_on_c, 0, 40, 95
2, 125040, Note_off_c, 0, 55, 95
2, 125040, Note_off_c, 0, 52, 95
2, 125040, Note_off_c, 0, 47, 95
2, 125040, Note_off_c, 0, 40, 95
2, 125040, Note_on_c, 0, 55, 95
2, 125040, Note_on_c, 0, 52, 95
2, 125040, Note_on_c, 0, 47, 95
2, 125040, Note_on_c, 0, 40, 95
2, 125280, Note_off_c, 0, 55, 95
2, 125280, Note_off_c, 0, 52, 95
2, 125280, Note_off_c, 0, 47, 95
2, 125280, Note_off_c, 0, 40, 95
2, 125280, Note_on_c, 0, 64, 95
2, 125280, Note_on_c, 0, 59, 95
2, 125280, Note_on_c, 0, 55, 95
2, 125280, Note_on_c, 0, 52, 95
2, 125280, Note_on_c, 0, 47, 95
2, 125280, Note_on_c, 0, 40, 95
2, 125760, Note_off_c, 0, 64, 95
2, 125760, Note_off_c, 0, 59, 95
2, 125760, Note_off_c, 0, 55, 95
2, 125760, Note_off_c, 0, 52, 95
2, 125760, Note_off_c, 0, 47, 95
2, 125760, Note_off_c, 0, 40, 95
2, 125760, Note_on_c, 0, 55, 95
2, 125760, Note_on_c, 0, 52, 95
2, 125760, Note_on_c, 0, 47, 95
2, 125760, Note_on_c, 0, 40, 95
2, 126000, Note_off_c, 0, 55, 95
2, 126000, Note_off_c, 0, 52, 95
2, 126000, Note_off_c, 0, 47, 95
2, 126000, Note_off_c, 0, 40, 95
2, 126000, Note_on_c, 0, 55, 95
2, 126000, Note_on_c, 0, 52, 95
2, 126000, Note_on_c, 0, 47, 95
2, 126000, Note_on_c, 0, 40, 95
2, 126240, Note_off_c, 0, 55, 95
2, 126240, Note_off_c, 0, 52, 95
2, 126240, Note_off_c, 0, 47, 95
2, 126240, Note_off_c, 0, 40, 95
2, 126240, Note_on_c, 0, 55, 95
2, 126240, Note_on_c, 0, 52, 95
2, 126240, Note_on_c, 0, 47, 95
2, 126240, Note_on_c, 0, 40, 95
2, 126480, Note_off_c, 0, 55, 95
2, 126480, Note_off_c, 0, 52, 95
2, 126480, Note_off_c, 0, 47, 95
2, 126480, Note_off_c, 0, 40, 95
2, 126480, Note_on_c, 0, 55, 95
2, 126480, Note_on_c, 0, 52, 95
2, 126480, Note_on_c, 0, 47, 95
2, 126480, Note_on_c, 0, 40, 95
2, 126720, Note_off_c, 0, 55, 95
2, 126720, Note_off_c, 0, 52, 95
2, 126720, Note_off_c, 0, 47, 95
2, 126720, Note_off_c, 0, 40, 95
2, 126720, Note_on_c, 0, 55, 95
2, 126720, Note_on_c, 0, 51, 95
2, 126720, Note_on_c, 0, 46, 95
2, 126720, Note_on_c, 0, 39, 95
2, 127200, Note_off_c, 0, 55, 95
2, 127200, Note_off_c, 0, 51, 95
2, 127200, Note_off_c, 0, 46, 95
2, 127200, Note_off_c, 0, 39, 95
2, 127200, Note_on_c, 0, 55, 95
2, 127200, Note_on_c, 0, 51, 95
2, 127200, Note_on_c, 0, 46, 95
2, 127440, Note_off_c, 0, 55, 95
2, 127440, Note_off_c, 0, 51, 95
2, 127440, Note_off_c, 0, 46, 95
2, 127440, Note_on_c, 0, 55, 95
2, 127440, Note_on_c, 0, 51, 95
2, 127440, Note_on_c, 0, 46, 95
2, 127680, Note_off_c, 0, 55, 95
2, 127680, Note_off_c, 0, 51, 95
2, 127680, Note_off_c, 0, 46, 95
2, 127680, Note_on_c, 0, 55, 95
2, 127680, Note_on_c, 0, 51, 95
2, 127680, Note_on_c, 0, 46, 95
2, 127920, Note_off_c, 0, 55, 95
2, 127920, Note_off_c, 0, 51, 95
2, 127920, Note_off_c, 0, 46, 95
2, 127920, Note_on_c, 0, 55, 95
2, 127920, Note_on_c, 0, 51, 95
2, 127920, Note_on_c, 0, 46, 95
2, 128160, Note_off_c, 0, 55, 95
2, 128160, Note_off_c, 0, 51, 95
2, 128160, Note_off_c, 0, 46, 95
2, 128160, Note_on_c, 0, 64, 95
2, 128160, Note_on_c, 0, 59, 95
2, 128160, Note_on_c, 0, 55, 95
2, 128160, Note_on_c, 0, 51, 95
2, 128160, Note_on_c, 0, 46, 95
2, 128160, Note_on_c, 0, 39, 95
2, 128640, Note_off_c, 0, 64, 95
2, 128640, Note_off_c, 0, 59, 95
2, 128640, Note_off_c, 0, 55, 95
2, 128640, Note_off_c, 0, 51, 95
2, 128640, Note_off_c, 0, 46, 95
2, 128640, Note_off_c, 0, 39, 95
2, 128640, Note_on_c, 0, 55, 95
2, 128640, Note_on_c, 0, 51, 95
2, 128640, Note_on_c, 0, 46, 95
2, 128640, Note_on_c, 0, 39, 95
2, 128880, Note_off_c, 0, 55, 95
2, 128880, Note_off_c, 0, 51, 95
2, 128880, Note_off_c, 0, 46, 95
2, 128880, Note_off_c, 0, 39, 95
2, 128880, Note_on_c, 0, 55, 95
2, 128880, Note_on_c, 0, 51, 95
2, 128880, Note_on_c, 0, 46, 95
2, 128880, Note_on_c, 0, 39, 95
2, 129120, Note_off_c, 0, 55, 95
2, 129120, Note_off_c, 0, 51, 95
2, 129120, Note_off_c, 0, 46, 95
2, 129120, Note_off_c, 0, 39, 95
2, 129120, Note_on_c, 0, 55, 95
2, 129120, Note_on_c, 0, 51, 95
2, 129120, Note_on_c, 0, 46, 95
2, 129120, Note_on_c, 0, 39, 95
2, 129360, Note_off_c, 0, 55, 95
2, 129360, Note_off_c, 0, 51, 95
2, 129360, Note_off_c, 0, 46, 95
2, 129360, Note_off_c, 0, 39, 95
2, 129360, Note_on_c, 0, 55, 95
2, 129360, Note_on_c, 0, 51, 95
2, 129360, Note_on_c, 0, 46, 95
2, 129360, Note_on_c, 0, 39, 95
2, 129600, Note_off_c, 0, 55, 95
2, 129600, Note_off_c, 0, 51, 95
2, 129600, Note_off_c, 0, 46, 95
2, 129600, Note_off_c, 0, 39, 95
2, 129600, Note_on_c, 0, 55, 95
2, 129600, Note_on_c, 0, 51, 95
2, 129600, Note_on_c, 0, 46, 95
2, 129600, Note_on_c, 0, 39, 95
2, 130080, Note_off_c, 0, 55, 95
2, 130080, Note_off_c, 0, 51, 95
2, 130080, Note_off_c, 0, 46, 95
2, 130080, Note_off_c, 0, 39, 95
2, 130080, Note_on_c, 0, 55, 95
2, 130080, Note_on_c, 0, 51, 95
2, 130080, Note_on_c, 0, 46, 95
2, 130080, Note_on_c, 0, 39, 95
2, 130320, Note_off_c, 0, 55, 95
2, 130320, Note_off_c, 0, 51, 95
2, 130320, Note_off_c, 0, 46, 95
2, 130320, Note_off_c, 0, 39, 95
2, 130320, Note_on_c, 0, 55, 95
2, 130320, Note_on_c, 0, 51, 95
2, 130320, Note_on_c, 0, 46, 95
2, 130320, Note_on_c, 0, 39, 95
2, 130560, Note_off_c, 0, 55, 95
2, 130560, Note_off_c, 0, 51, 95
2, 130560, Note_off_c, 0, 46, 95
2, 130560, Note_off_c, 0, 39, 95
2, 130560, Note_on_c, 0, 55, 95
2, 130560, Note_on_c, 0, 51, 95
2, 130560, Note_on_c, 0, 46, 95
2, 130560, Note_on_c, 0, 39, 95
2, 130800, Note_off_c, 0, 55, 95
2, 130800, Note_off_c, 0, 51, 95
2, 130800, Note_off_c, 0, 46, 95
2, 130800, Note_off_c, 0, 39, 95
2, 130800, Note_on_c, 0, 55, 95
2, 130800, Note_on_c, 0, 51, 95
2, 130800, Note_on_c, 0, 46, 95
2, 130800, Note_on_c, 0, 39, 95
2, 131040, Note_off_c, 0, 55, 95
2, 131040, Note_off_c, 0, 51, 95
2, 131040, Note_off_c, 0, 46, 95
2, 131040, Note_off_c, 0, 39, 95
2, 131040, Note_on_c, 0, 64, 95
2, 131040, Note_on_c, 0, 59, 95
2, 131040, Note_on_c, 0, 55, 95
2, 131040, Note_on_c, 0, 51, 95
2, 131040, Note_on_c, 0, 46, 95
2, 131040, Note_on_c, 0, 39, 95
2, 131520, Note_off_c, 0, 64, 95
2, 131520, Note_off_c, 0, 59, 95
2, 131520, Note_off_c, 0, 55, 95
2, 131520, Note_off_c, 0, 51, 95
2, 131520, Note_off_c, 0, 46, 95
2, 131520, Note_off_c, 0, 39, 95
2, 131520, Note_on_c, 0, 55, 95
2, 131520, Note_on_c, 0, 51, 95
2, 131520, Note_on_c, 0, 46, 95
2, 131520, Note_on_c, 0, 39, 95
2, 131760, Note_off_c, 0, 55, 95
2, 131760, Note_off_c, 0, 51, 95
2, 131760, Note_off_c, 0, 46, 95
2, 131760, Note_off_c, 0, 39, 95
2, 131760, Note_on_c, 0, 55, 95
2, 131760, Note_on_c, 0, 51, 95
2, 131760, Note_on_c, 0, 46, 95
2, 131760, Note_on_c, 0, 39, 95
2, 132000, Note_off_c, 0, 55, 95
2, 132000, Note_off_c, 0, 51, 95
2, 132000, Note_off_c, 0, 46, 95
2, 132000, Note_off_c, 0, 39, 95
2, 132000, Note_on_c, 0, 55, 95
2, 132000, Note_on_c, 0, 51, 95
2, 132000, Note_on_c, 0, 46, 95
2, 132000, Note_on_c, 0, 39, 95
2, 132240, Note_off_c, 0, 55, 95
2, 132240, Note_off_c, 0, 51, 95
2, 132240, Note_off_c, 0, 46, 95
2, 132240, Note_off_c, 0, 39, 95
2, 132240, Note_on_c, 0, 55, 95
2, 132240, Note_on_c, 0, 51, 95
2, 132240, Note_on_c, 0, 46, 95
2, 132240, Note_on_c, 0, 39, 95
2, 132480, Note_off_c, 0, 55, 95
2, 132480, Note_off_c, 0, 51, 95
2, 132480, Note_off_c, 0, 46, 95
2, 132480, Note_off_c, 0, 39, 95
2, 132480, Note_on_c, 0, 55, 95
2, 132480, Note_on_c, 0, 52, 95
2, 132480, Note_on_c, 0, 47, 95
2, 132480, Note_on_c, 0, 40, 95
2, 132960, Note_off_c, 0, 55, 95
2, 132960, Note_off_c, 0, 52, 95
2, 132960, Note_off_c, 0, 47, 95
2, 132960, Note_off_c, 0, 40, 95
2, 132960, Note_on_c, 0, 55, 95
2, 132960, Note_on_c, 0, 52, 95
2, 132960, Note_on_c, 0, 47, 95
2, 132960, Note_on_c, 0, 40, 95
2, 133200, Note_off_c, 0, 55, 95
2, 133200, Note_off_c, 0, 52, 95
2, 133200, Note_off_c, 0, 47, 95
2, 133200, Note_off_c, 0, 40, 95
2, 133200, Note_on_c, 0, 55, 95
2, 133200, Note_on_c, 0, 52, 95
2, 133200, Note_on_c, 0, 47, 95
2, 133200, Note_on_c, 0, 40, 95
2, 133440, Note_off_c, 0, 55, 95
2, 133440, Note_off_c, 0, 52, 95
2, 133440, Note_off_c, 0, 47, 95
2, 133440, Note_off_c, 0, 40, 95
2, 133440, Note_on_c, 0, 55, 95
2, 133440, Note_on_c, 0, 52, 95
2, 133440, Note_on_c, 0, 47, 95
2, 133440, Note_on_c, 0, 40, 95
2, 133680, Note_off_c, 0, 55, 95
2, 133680, Note_off_c, 0, 52, 95
2, 133680, Note_off_c, 0, 47, 95
2, 133680, Note_off_c, 0, 40, 95
2, 133680, Note_on_c, 0, 55, 95
2, 133680, Note_on_c, 0, 52, 95
2, 133680, Note_on_c, 0, 47, 95
2, 133680, Note_on_c, 0, 40, 95
2, 133920, Note_off_c, 0, 55, 95
2, 133920, Note_off_c, 0, 52, 95
2, 133920, Note_off_c, 0, 47, 95
2, 133920, Note_off_c, 0, 40, 95
2, 133920, Note_on_c, 0, 64, 95
2, 133920, Note_on_c, 0, 59, 95
2, 133920, Note_on_c, 0, 55, 95
2, 133920, Note_on_c, 0, 52, 95
2, 133920, Note_on_c, 0, 47, 95
2, 133920, Note_on_c, 0, 40, 95
2, 134400, Note_off_c, 0, 64, 95
2, 134400, Note_off_c, 0, 59, 95
2, 134400, Note_off_c, 0, 55, 95
2, 134400, Note_off_c, 0, 52, 95
2, 134400, Note_off_c, 0, 47, 95
2, 134400, Note_off_c, 0, 40, 95
2, 134400, Note_on_c, 0, 55, 95
2, 134400, Note_on_c, 0, 52, 95
2, 134400, Note_on_c, 0, 47, 95
2, 134400, Note_on_c, 0, 40, 95
2, 134640, Note_off_c, 0, 55, 95
2, 134640, Note_off_c, 0, 52, 95
2, 134640, Note_off_c, 0, 47, 95
2, 134640, Note_off_c, 0, 40, 95
2, 134640, Note_on_c, 0, 55, 95
2, 134640, Note_on_c, 0, 52, 95
2, 134640, Note_on_c, 0, 47, 95
2, 134640, Note_on_c, 0, 40, 95
2, 134880, Note_off_c, 0, 55, 95
2, 134880, Note_off_c, 0, 52, 95
2, 134880, Note_off_c, 0, 47, 95
2, 134880, Note_off_c, 0, 40, 95
2, 134880, Note_on_c, 0, 55, 95
2, 134880, Note_on_c, 0, 52, 95
2, 134880, Note_on_c, 0, 47, 95
2, 134880, Note_on_c, 0, 40, 95
2, 135120, Note_off_c, 0, 55, 95
2, 135120, Note_off_c, 0, 52, 95
2, 135120, Note_off_c, 0, 47, 95
2, 135120, Note_off_c, 0, 40, 95
2, 135120, Note_on_c, 0, 55, 95
2, 135120, Note_on_c, 0, 52, 95
2, 135120, Note_on_c, 0, 47, 95
2, 135120, Note_on_c, 0, 40, 95
2, 135360, Note_off_c, 0, 55, 95
2, 135360, Note_off_c, 0, 52, 95
2, 135360, Note_off_c, 0, 47, 95
2, 135360, Note_off_c, 0, 40, 95
2, 135360, Note_on_c, 0, 55, 95
2, 135360, Note_on_c, 0, 52, 95
2, 135360, Note_on_c, 0, 47, 95
2, 135360, Note_on_c, 0, 40, 95
2, 135840, Note_off_c, 0, 55, 95
2, 135840, Note_off_c, 0, 52, 95
2, 135840, Note_off_c, 0, 47, 95
2, 135840, Note_off_c, 0, 40, 95
2, 135840, Note_on_c, 0, 55, 95
2, 135840, Note_on_c, 0, 52, 95
2, 135840, Note_on_c, 0, 47, 95
2, 135840, Note_on_c, 0, 40, 95
2, 136080, Note_off_c, 0, 55, 95
2, 136080, Note_off_c, 0, 52, 95
2, 136080, Note_off_c, 0, 47, 95
2, 136080, Note_off_c, 0, 40, 95
2, 136080, Note_on_c, 0, 55, 95
2, 136080, Note_on_c, 0, 52, 95
2, 136080, Note_on_c, 0, 47, 95
2, 136080, Note_on_c, 0, 40, 95
2, 136320, Note_off_c, 0, 55, 95
2, 136320, Note_off_c, 0, 52, 95
2, 136320, Note_off_c, 0, 47, 95
2, 136320, Note_off_c, 0, 40, 95
2, 136320, Note_on_c, 0, 55, 95
2, 136320, Note_on_c, 0, 52, 95
2, 136320, Note_on_c, 0, 47, 95
2, 136320, Note_on_c, 0, 40, 95
2, 136560, Note_off_c, 0, 55, 95
2, 136560, Note_off_c, 0, 52, 95
2, 136560, Note_off_c, 0, 47, 95
2, 136560, Note_off_c, 0, 40, 95
2, 136560, Note_on_c, 0, 55, 95
2, 136560, Note_on_c, 0, 52, 95
2, 136560, Note_on_c, 0, 47, 95
2, 136560, Note_on_c, 0, 40, 95
2, 136800, Note_off_c, 0, 55, 95
2, 136800, Note_off_c, 0, 52, 95
2, 136800, Note_off_c, 0, 47, 95
2, 136800, Note_off_c, 0, 40, 95
2, 136800, Note_on_c, 0, 64, 95
2, 136800, Note_on_c, 0, 59, 95
2, 136800, Note_on_c, 0, 55, 95
2, 136800, Note_on_c, 0, 52, 95
2, 136800, Note_on_c, 0, 47, 95
2, 136800, Note_on_c, 0, 40, 95
2, 137280, Note_off_c, 0, 64, 95
2, 137280, Note_off_c, 0, 59, 95
2, 137280, Note_off_c, 0, 55, 95
2, 137280, Note_off_c, 0, 52, 95
2, 137280, Note_off_c, 0, 47, 95
2, 137280, Note_off_c, 0, 40, 95
2, 137280, Note_on_c, 0, 55, 95
2, 137280, Note_on_c, 0, 52, 95
2, 137280, Note_on_c, 0, 47, 95
2, 137280, Note_on_c, 0, 40, 95
2, 137520, Note_off_c, 0, 55, 95
2, 137520, Note_off_c, 0, 52, 95
2, 137520, Note_off_c, 0, 47, 95
2, 137520, Note_off_c, 0, 40, 95
2, 137520, Note_on_c, 0, 55, 95
2, 137520, Note_on_c, 0, 52, 95
2, 137520, Note_on_c, 0, 47, 95
2, 137520, Note_on_c, 0, 40, 95
2, 137760, Note_off_c, 0, 55, 95
2, 137760, Note_off_c, 0, 52, 95
2, 137760, Note_off_c, 0, 47, 95
2, 137760, Note_off_c, 0, 40, 95
2, 137760, Note_on_c, 0, 55, 95
2, 137760, Note_on_c, 0, 52, 95
2, 137760, Note_on_c, 0, 47, 95
2, 137760, Note_on_c, 0, 40, 95
2, 138000, Note_off_c, 0, 55, 95
2, 138000, Note_off_c, 0, 52, 95
2, 138000, Note_off_c, 0, 47, 95
2, 138000, Note_off_c, 0, 40, 95
2, 138000, Note_on_c, 0, 55, 95
2, 138000, Note_on_c, 0, 52, 95
2, 138000, Note_on_c, 0, 47, 95
2, 138000, Note_on_c, 0, 40, 95
2, 138240, Note_off_c, 0, 55, 95
2, 138240, Note_off_c, 0, 52, 95
2, 138240, Note_off_c, 0, 47, 95
2, 138240, Note_off_c, 0, 40, 95
2, 138240, Note_on_c, 0, 53, 95
2, 138480, Note_off_c, 0, 53, 95
2, 138480, Note_on_c, 0, 56, 95
2, 138720, Note_off_c, 0, 56, 95
2, 138720, Note_on_c, 0, 60, 95
2, 138960, Note_off_c, 0, 60, 95
2, 138960, Note_on_c, 0, 65, 95
2, 139200, Note_off_c, 0, 65, 95
2, 139200, Note_on_c, 0, 62, 95
2, 139440, Note_off_c, 0, 62, 95
2, 139440, Note_on_c, 0, 60, 70
2, 139680, Note_off_c, 0, 60, 70
2, 139680, Note_on_c, 0, 58, 95
2, 139920, Note_off_c, 0, 58, 95
2, 139920, Note_on_c, 0, 56, 70
2, 140160, Note_off_c, 0, 56, 70
2, 140160, Note_on_c, 0, 58, 95
2, 140400, Note_off_c, 0, 58, 95
2, 140400, Note_on_c, 0, 56, 70
2, 140640, Note_off_c, 0, 56, 70
2, 140640, Note_on_c, 0, 58, 95
2, 140880, Note_off_c, 0, 58, 95
2, 140880, Note_on_c, 0, 56, 70
2, 141120, Note_off_c, 0, 56, 70
2, 141120, Note_on_c, 0, 53, 95
2, 141360, Note_off_c, 0, 53, 95
2, 141360, Note_on_c, 0, 56, 95
2, 141600, Note_off_c, 0, 56, 95
2, 141600, Note_on_c, 0, 60, 95
2, 141840, Note_off_c, 0, 60, 95
2, 141840, Note_on_c, 0, 65, 95
2, 142080, Note_off_c, 0, 65, 95
2, 142080, Note_on_c, 0, 62, 95
2, 142320, Note_off_c, 0, 62, 95
2, 142320, Note_on_c, 0, 60, 70
2, 142560, Note_off_c, 0, 60, 70
2, 142560, Note_on_c, 0, 67, 95
2, 142800, Note_off_c, 0, 67, 95
2, 142800, Note_on_c, 0, 65, 70
2, 143040, Note_off_c, 0, 65, 70
2, 143040, Note_on_c, 0, 62, 95
2, 143280, Note_off_c, 0, 62, 95
2, 143280, Note_on_c, 0, 60, 70
2, 143520, Note_off_c, 0, 60, 70
2, 143520, Note_on_c, 0, 58, 95
2, 143760, Note_off_c, 0, 58, 95
2, 143760, Note_on_c, 0, 56, 70
2, 144000, Note_off_c, 0, 56, 70
2, 144000, Note_on_c, 0, 55, 95
2, 144240, Note_off_c, 0, 55, 95
2, 144240, Note_on_c, 0, 58, 95
2, 144480, Note_off_c, 0, 58, 95
2, 144480, Note_on_c, 0, 62, 95
2, 144720, Note_off_c, 0, 62, 95
2, 144720, Note_on_c, 0, 67, 95
2, 144960, Note_off_c, 0, 67, 95
2, 144960, Note_on_c, 0, 64, 95
2, 145200, Note_off_c, 0, 64, 95
2, 145200, Note_on_c, 0, 62, 70
2, 145440, Note_off_c, 0, 62, 70
2, 145440, Note_on_c, 0, 60, 95
2, 145680, Note_off_c, 0, 60, 95
2, 145680, Note_on_c, 0, 58, 70
2, 145920, Note_off_c, 0, 58, 70
2, 145920, Note_on_c, 0, 60, 95
2, 146160, Note_off_c, 0, 60, 95
2, 146160, Note_on_c, 0, 58, 70
2, 146400, Note_off_c, 0, 58, 70
2, 146400, Note_on_c, 0, 60, 95
2, 146640, Note_off_c, 0, 60, 95
2, 146640, Note_on_c, 0, 58, 70
2, 146880, Note_off_c, 0, 58, 70
2, 146880, Note_on_c, 0, 55, 95
2, 147120, Note_off_c, 0, 55, 95
2, 147120, Note_on_c, 0, 58, 95
2, 147360, Note_off_c, 0, 58, 95
2, 147360, Note_on_c, 0, 62, 95
2, 147600, Note_off_c, 0, 62, 95
2, 147600, Note_on_c, 0, 67, 95
2, 147840, Note_off_c, 0, 67, 95
2, 147840, Note_on_c, 0, 64, 95
2, 148080, Note_off_c, 0, 64, 95
2, 148080, Note_on_c, 0, 62, 70
2, 148320, Note_off_c, 0, 62, 70
2, 148320, Note_on_c, 0, 69, 95
2, 148560, Note_off_c, 0, 69, 95
2, 148560, Note_on_c, 0, 67, 70
2, 148800, Note_off_c, 0, 67, 70
2, 148800, Note_on_c, 0, 64, 95
2, 149040, Note_off_c, 0, 64, 95
2, 149040, Note_on_c, 0, 62, 70
2, 149280, Note_off_c, 0, 62, 70
2, 149280, Note_on_c, 0, 60, 95
2, 149520, Note_off_c, 0, 60, 95
2, 149520, Note_on_c, 0, 58, 70
2, 149760, Note_off_c, 0, 58, 70
2, 149760, Note_on_c, 0, 64, 95
2, 149760, Note_on_c, 0, 59, 95
2, 149760, Note_on_c, 0, 55, 95
2, 149760, Note_on_c, 0, 52, 95
2, 149760, Note_on_c, 0, 47, 95
2, 149760, Note_on_c, 0, 40, 95
2, 155520, Note_off_c, 0, 64, 95
2, 155520, Note_off_c, 0, 59, 95
2, 155520, Note_off_c, 0, 55, 95
2, 155520, Note_off_c, 0, 52, 95
2, 155520, Note_off_c, 0, 47, 95
2, 155520, Note_off_c, 0, 40, 95
2, 155520, Note_on_c, 0, 73, 95
2, 155520, Note_on_c, 0, 69, 95
2, 155520, Note_on_c, 0, 64, 95
2, 155520, Note_on_c, 0, 45, 63
2, 155520, Note_on_c, 0, 38, 63
2, 155760, Note_off_c, 0, 73, 95
2, 155760, Note_off_c, 0, 69, 95
2, 155760, Note_off_c, 0, 64, 95
2, 155760, Note_off_c, 0, 45, 63
2, 155760, Note_off_c, 0, 38, 63
2, 155760, Note_on_c, 0, 74, 70
2, 155760, Note_on_c, 0, 66, 70
2, 156000, Note_off_c, 0, 74, 70
2, 156000, Note_off_c, 0, 66, 70
2, 156000, Note_on_c, 0, 74, 95
2, 156000, Note_on_c, 0, 69, 95
2, 156000, Note_on_c, 0, 66, 95
2, 156240, Note_off_c, 0, 74, 95
2, 156240, Note_off_c, 0, 69, 95
2, 156240, Note_off_c, 0, 66, 95
2, 156240, Note_on_c, 0, 73, 95
2, 156240, Note_on_c, 0, 69, 95
2, 156240, Note_on_c, 0, 64, 95
2, 156480, Note_off_c, 0, 73, 95
2, 156480, Note_off_c, 0, 69, 95
2, 156480, Note_off_c, 0, 64, 95
2, 156480, Note_on_c, 0, 59, 95
2, 156480, Note_on_c, 0, 55, 95
2, 156480, Note_on_c, 0, 50, 95
2, 156529, Note_off_c, 0, 59, 95
2, 156529, Note_off_c, 0, 55, 95
2, 156529, Note_off_c, 0, 50, 95
2, 156720, Note_on_c, 0, 73, 95
2, 156720, Note_on_c, 0, 69, 95
2, 156720, Note_on_c, 0, 64, 95
2, 156960, Note_off_c, 0, 73, 95
2, 156960, Note_off_c, 0, 69, 95
2, 156960, Note_off_c, 0, 64, 95
2, 156960, Note_on_c, 0, 73, 95
2, 156960, Note_on_c, 0, 69, 95
2, 156960, Note_on_c, 0, 64, 95
2, 157200, Note_off_c, 0, 73, 95
2, 157200, Note_off_c, 0, 69, 95
2, 157200, Note_off_c, 0, 64, 95
2, 157200, Note_on_c, 0, 74, 70
2, 157200, Note_on_c, 0, 66, 70
2, 157440, Note_off_c, 0, 74, 70
2, 157440, Note_off_c, 0, 66, 70
2, 157440, Note_on_c, 0, 74, 95
2, 157440, Note_on_c, 0, 69, 95
2, 157440, Note_on_c, 0, 66, 95
2, 157680, Note_off_c, 0, 74, 95
2, 157680, Note_off_c, 0, 69, 95
2, 157680, Note_off_c, 0, 66, 95
2, 157680, Note_on_c, 0, 73, 95
2, 157680, Note_on_c, 0, 69, 95
2, 157680, Note_on_c, 0, 64, 95
2, 157920, Note_off_c, 0, 73, 95
2, 157920, Note_off_c, 0, 69, 95
2, 157920, Note_off_c, 0, 64, 95
2, 157920, Note_on_c, 0, 59, 95
2, 157920, Note_on_c, 0, 55, 95
2, 157920, Note_on_c, 0, 50, 95
2, 157969, Note_off_c, 0, 59, 95
2, 157969, Note_off_c, 0, 55, 95
2, 157969, Note_off_c, 0, 50, 95
2, 158160, Note_on_c, 0, 73, 95
2, 158160, Note_on_c, 0, 69, 95
2, 158160, Note_on_c, 0, 64, 95
2, 158400, Note_off_c, 0, 73, 95
2, 158400, Note_off_c, 0, 69, 95
2, 158400, Note_off_c, 0, 64, 95
2, 158400, Note_on_c, 0, 73, 95
2, 158400, Note_on_c, 0, 69, 95
2, 158400, Note_on_c, 0, 64, 95
2, 158640, Note_off_c, 0, 73, 95
2, 158640, Note_off_c, 0, 69, 95
2, 158640, Note_off_c, 0, 64, 95
2, 158640, Note_on_c, 0, 74, 70
2, 158640, Note_on_c, 0, 66, 70
2, 158880, Note_off_c, 0, 74, 70
2, 158880, Note_off_c, 0, 66, 70
2, 158880, Note_on_c, 0, 81, 95
2, 158880, Note_on_c, 0, 74, 95
2, 158880, Note_on_c, 0, 69, 95
2, 159120, Note_off_c, 0, 81, 95
2, 159120, Note_off_c, 0, 74, 95
2, 159120, Note_off_c, 0, 69, 95
2, 159120, Note_on_c, 0, 81, 95
2, 159120, Note_on_c, 0, 74, 95
2, 159120, Note_on_c, 0, 69, 95
2, 159360, Note_off_c, 0, 81, 95
2, 159360, Note_off_c, 0, 74, 95
2, 159360, Note_off_c, 0, 69, 95
2, 159360, Note_on_c, 0, 81, 95
2, 159360, Note_on_c, 0, 74, 95
2, 159360, Note_on_c, 0, 69, 95
2, 159600, Note_off_c, 0, 81, 95
2, 159600, Note_off_c, 0, 74, 95
2, 159600, Note_off_c, 0, 69, 95
2, 159600, Note_on_c, 0, 73, 95
2, 159600, Note_on_c, 0, 69, 95
2, 159840, Note_off_c, 0, 73, 95
2, 159840, Note_off_c, 0, 69, 95
2, 159840, Note_on_c, 0, 79, 95
2, 159840, Note_on_c, 0, 73, 95
2, 159840, Note_on_c, 0, 69, 95
2, 160080, Note_off_c, 0, 79, 95
2, 160080, Note_off_c, 0, 73, 95
2, 160080, Note_off_c, 0, 69, 95
2, 160080, Note_on_c, 0, 73, 95
2, 160080, Note_on_c, 0, 69, 95
2, 160320, Note_off_c, 0, 73, 95
2, 160320, Note_off_c, 0, 69, 95
2, 160320, Note_on_c, 0, 76, 95
2, 160320, Note_on_c, 0, 69, 95
2, 160560, Note_off_c, 0, 76, 95
2, 160560, Note_off_c, 0, 69, 95
2, 160560, Note_on_c, 0, 73, 95
2, 160560, Note_on_c, 0, 69, 95
2, 160800, Note_off_c, 0, 73, 95
2, 160800, Note_off_c, 0, 69, 95
2, 160800, Note_on_c, 0, 73, 95
2, 160800, Note_on_c, 0, 69, 95
2, 161040, Note_off_c, 0, 73, 95
2, 161040, Note_off_c, 0, 69, 95
2, 161040, Note_on_c, 0, 69, 95
2, 161040, Note_on_c, 0, 64, 95
2, 161280, Note_off_c, 0, 69, 95
2, 161280, Note_off_c, 0, 64, 95
2, 161280, Note_on_c, 0, 73, 95
2, 161280, Note_on_c, 0, 69, 95
2, 161280, Note_on_c, 0, 64, 95
2, 161280, Note_on_c, 0, 45, 63
2, 161280, Note_on_c, 0, 38, 63
2, 161520, Note_off_c, 0, 73, 95
2, 161520, Note_off_c, 0, 69, 95
2, 161520, Note_off_c, 0, 64, 95
2, 161520, Note_off_c, 0, 45, 63
2, 161520, Note_off_c, 0, 38, 63
2, 161520, Note_on_c, 0, 74, 70
2, 161520, Note_on_c, 0, 66, 70
2, 161760, Note_off_c, 0, 74, 70
2, 161760, Note_off_c, 0, 66, 70
2, 161760, Note_on_c, 0, 74, 95
2, 161760, Note_on_c, 0, 69, 95
2, 161760, Note_on_c, 0, 66, 95
2, 162000, Note_off_c, 0, 74, 95
2, 162000, Note_off_c, 0, 69, 95
2, 162000, Note_off_c, 0, 66, 95
2, 162000, Note_on_c, 0, 73, 95
2, 162000, Note_on_c, 0, 69, 95
2, 162000, Note_on_c, 0, 64, 95
2, 162240, Note_off_c, 0, 73, 95
2, 162240, Note_off_c, 0, 69, 95
2, 162240, Note_off_c, 0, 64, 95
2, 162240, Note_on_c, 0, 59, 95
2, 162240, Note_on_c, 0, 55, 95
2, 162240, Note_on_c, 0, 50, 95
2, 162289, Note_off_c, 0, 59, 95
2, 162289, Note_off_c, 0, 55, 95
2, 162289, Note_off_c, 0, 50, 95
2, 162480, Note_on_c, 0, 73, 95
2, 162480, Note_on_c, 0, 69, 95
2, 162480, Note_on_c, 0, 64, 95
2, 162720, Note_off_c, 0, 73, 95
2, 162720, Note_off_c, 0, 69, 95
2, 162720, Note_off_c, 0, 64, 95
2, 162720, Note_on_c, 0, 73, 95
2, 162720, Note_on_c, 0, 69, 95
2, 162720, Note_on_c, 0, 64, 95
2, 162960, Note_off_c, 0, 73, 95
2, 162960, Note_off_c, 0, 69, 95
2, 162960, Note_off_c, 0, 64, 95
2, 162960, Note_on_c, 0, 74, 70
2, 162960, Note_on_c, 0, 66, 70
2, 163200, Note_off_c, 0, 74, 70
2, 163200, Note_off_c, 0, 66, 70
2, 163200, Note_on_c, 0, 74, 95
2, 163200, Note_on_c, 0, 69, 95
2, 163200, Note_on_c, 0, 66, 95
2, 163440, Note_off_c, 0, 74, 95
2, 163440, Note_off_c, 0, 69, 95
2, 163440, Note_off_c, 0, 66, 95
2, 163440, Note_on_c, 0, 73, 95
2, 163440, Note_on_c, 0, 69, 95
2, 163440, Note_on_c, 0, 64, 95
2, 163680, Note_off_c, 0, 73, 95
2, 163680, Note_off_c, 0, 69, 95
2, 163680, Note_off_c, 0, 64, 95
2, 163680, Note_on_c, 0, 59, 95
2, 163680, Note_on_c, 0, 55, 95
2, 163680, Note_on_c, 0, 50, 95
2, 163729, Note_off_c, 0, 59, 95
2, 163729, Note_off_c, 0, 55, 95
2, 163729, Note_off_c, 0, 50, 95
2, 163920, Note_on_c, 0, 73, 95
2, 163920, Note_on_c, 0, 69, 95
2, 163920, Note_on_c, 0, 64, 95
2, 164160, Note_off_c, 0, 73, 95
2, 164160, Note_off_c, 0, 69, 95
2, 164160, Note_off_c, 0, 64, 95
2, 164160, Note_on_c, 0, 73, 95
2, 164160, Note_on_c, 0, 69, 95
2, 164160, Note_on_c, 0, 64, 95
2, 164400, Note_off_c, 0, 73, 95
2, 164400, Note_off_c, 0, 69, 95
2, 164400, Note_off_c, 0, 64, 95
2, 164400, Note_on_c, 0, 74, 70
2, 164400, Note_on_c, 0, 66, 70
2, 164640, Note_off_c, 0, 74, 70
2, 164640, Note_off_c, 0, 66, 70
2, 164640, Note_on_c, 0, 81, 95
2, 164640, Note_on_c, 0, 74, 95
2, 164640, Note_on_c, 0, 69, 95
2, 164880, Note_off_c, 0, 81, 95
2, 164880, Note_off_c, 0, 74, 95
2, 164880, Note_off_c, 0, 69, 95
2, 164880, Note_on_c, 0, 81, 95
2, 164880, Note_on_c, 0, 74, 95
2, 164880, Note_on_c, 0, 69, 95
2, 165120, Note_off_c, 0, 81, 95
2, 165120, Note_off_c, 0, 74, 95
2, 165120, Note_off_c, 0, 69, 95
2, 165120, Note_on_c, 0, 81, 95
2, 165120, Note_on_c, 0, 74, 95
2, 165120, Note_on_c, 0, 69, 95
2, 165360, Note_off_c, 0, 81, 95
2, 165360, Note_off_c, 0, 74, 95
2, 165360, Note_off_c, 0, 69, 95
2, 165360, Note_on_c, 0, 73, 95
2, 165360, Note_on_c, 0, 69, 95
2, 165600, Note_off_c, 0, 73, 95
2, 165600, Note_off_c, 0, 69, 95
2, 165600, Note_on_c, 0, 79, 95
2, 165600, Note_on_c, 0, 73, 95
2, 165600, Note_on_c, 0, 69, 95
2, 165840, Note_off_c, 0, 79, 95
2, 165840, Note_off_c, 0, 73, 95
2, 165840, Note_off_c, 0, 69, 95
2, 165840, Note_on_c, 0, 73, 95
2, 165840, Note_on_c, 0, 69, 95
2, 166080, Note_off_c, 0, 73, 95
2, 166080, Note_off_c, 0, 69, 95
2, 166080, Note_on_c, 0, 76, 95
2, 166080, Note_on_c, 0, 69, 95
2, 166320, Note_off_c, 0, 76, 95
2, 166320, Note_off_c, 0, 69, 95
2, 166320, Note_on_c, 0, 73, 95
2, 166320, Note_on_c, 0, 69, 95
2, 166560, Note_off_c, 0, 73, 95
2, 166560, Note_off_c, 0, 69, 95
2, 166560, Note_on_c, 0, 73, 95
2, 166560, Note_on_c, 0, 69, 95
2, 166800, Note_off_c, 0, 73, 95
2, 166800, Note_off_c, 0, 69, 95
2, 166800, Note_on_c, 0, 69, 95
2, 166800, Note_on_c, 0, 64, 95
2, 167040, Note_off_c, 0, 69, 95
2, 167040, Note_off_c, 0, 64, 95
2, 167040, Note_on_c, 0, 73, 95
2, 167040, Note_on_c, 0, 69, 95
2, 167040, Note_on_c, 0, 64, 95
2, 167040, Note_on_c, 0, 45, 63
2, 167040, Note_on_c, 0, 38, 63
2, 167280, Note_off_c, 0, 73, 95
2, 167280, Note_off_c, 0, 69, 95
2, 167280, Note_off_c, 0, 64, 95
2, 167280, Note_off_c, 0, 45, 63
2, 167280, Note_off_c, 0, 38, 63
2, 167280, Note_on_c, 0, 74, 70
2, 167280, Note_on_c, 0, 66, 70
2, 167520, Note_off_c, 0, 74, 70
2, 167520, Note_off_c, 0, 66, 70
2, 167520, Note_on_c, 0, 74, 95
2, 167520, Note_on_c, 0, 69, 95
2, 167520, Note_on_c, 0, 66, 95
2, 167760, Note_off_c, 0, 74, 95
2, 167760, Note_off_c, 0, 69, 95
2, 167760, Note_off_c, 0, 66, 95
2, 167760, Note_on_c, 0, 73, 95
2, 167760, Note_on_c, 0, 69, 95
2, 167760, Note_on_c, 0, 64, 95
2, 168000, Note_off_c, 0, 73, 95
2, 168000, Note_off_c, 0, 69, 95
2, 168000, Note_off_c, 0, 64, 95
2, 168000, Note_on_c, 0, 59, 95
2, 168000, Note_on_c, 0, 55, 95
2, 168000, Note_on_c, 0, 50, 95
2, 168049, Note_off_c, 0, 59, 95
2, 168049, Note_off_c, 0, 55, 95
2, 168049, Note_off_c, 0, 50, 95
2, 168240, Note_on_c, 0, 73, 95
2, 168240, Note_on_c, 0, 69, 95
2, 168240, Note_on_c, 0, 64, 95
2, 168480, Note_off_c, 0, 73, 95
2, 168480, Note_off_c, 0, 69, 95
2, 168480, Note_off_c, 0, 64, 95
2, 168480, Note_on_c, 0, 73, 95
2, 168480, Note_on_c, 0, 69, 95
2, 168480, Note_on_c, 0, 64, 95
2, 168720, Note_off_c, 0, 73, 95
2, 168720, Note_off_c, 0, 69, 95
2, 168720, Note_off_c, 0, 64, 95
2, 168720, Note_on_c, 0, 74, 70
2, 168720, Note_on_c, 0, 66, 70
2, 168960, Note_off_c, 0, 74, 70
2, 168960, Note_off_c, 0, 66, 70
2, 168960, Note_on_c, 0, 74, 95
2, 168960, Note_on_c, 0, 69, 95
2, 168960, Note_on_c, 0, 66, 95
2, 169200, Note_off_c, 0, 74, 95
2, 169200, Note_off_c, 0, 69, 95
2, 169200, Note_off_c, 0, 66, 95
2, 169200, Note_on_c, 0, 73, 95
2, 169200, Note_on_c, 0, 69, 95
2, 169200, Note_on_c, 0, 64, 95
2, 169440, Note_off_c, 0, 73, 95
2, 169440, Note_off_c, 0, 69, 95
2, 169440, Note_off_c, 0, 64, 95
2, 169440, Note_on_c, 0, 59, 95
2, 169440, Note_on_c, 0, 55, 95
2, 169440, Note_on_c, 0, 50, 95
2, 169489, Note_off_c, 0, 59, 95
2, 169489, Note_off_c, 0, 55, 95
2, 169489, Note_off_c, 0, 50, 95
2, 169680, Note_on_c, 0, 73, 95
2, 169680, Note_on_c, 0, 69, 95
2, 169680, Note_on_c, 0, 64, 95
2, 169920, Note_off_c, 0, 73, 95
2, 169920, Note_off_c, 0, 69, 95
2, 169920, Note_off_c, 0, 64, 95
2, 169920, Note_on_c, 0, 73, 95
2, 169920, Note_on_c, 0, 69, 95
2, 169920, Note_on_c, 0, 64, 95
2, 170160, Note_off_c, 0, 73, 95
2, 170160, Note_off_c, 0, 69, 95
2, 170160, Note_off_c, 0, 64, 95
2, 170160, Note_on_c, 0, 74, 70
2, 170160, Note_on_c, 0, 66, 70
2, 170400, Note_off_c, 0, 74, 70
2, 170400, Note_off_c, 0, 66, 70
2, 170400, Note_on_c, 0, 81, 95
2, 170400, Note_on_c, 0, 74, 95
2, 170400, Note_on_c, 0, 69, 95
2, 170640, Note_off_c, 0, 81, 95
2, 170640, Note_off_c, 0, 74, 95
2, 170640, Note_off_c, 0, 69, 95
2, 170640, Note_on_c, 0, 81, 95
2, 170640, Note_on_c, 0, 74, 95
2, 170640, Note_on_c, 0, 69, 95
2, 170880, Note_off_c, 0, 81, 95
2, 170880, Note_off_c, 0, 74, 95
2, 170880, Note_off_c, 0, 69, 95
2, 170880, Note_on_c, 0, 81, 95
2, 170880, Note_on_c, 0, 74, 95
2, 170880, Note_on_c, 0, 69, 95
2, 171120, Note_off_c, 0, 81, 95
2, 171120, Note_off_c, 0, 74, 95
2, 171120, Note_off_c, 0, 69, 95
2, 171120, Note_on_c, 0, 73, 95
2, 171120, Note_on_c, 0, 69, 95
2, 171360, Note_off_c, 0, 73, 95
2, 171360, Note_off_c, 0, 69, 95
2, 171360, Note_on_c, 0, 79, 95
2, 171360, Note_on_c, 0, 73, 95
2, 171360, Note_on_c, 0, 69, 95
2, 171600, Note_off_c, 0, 79, 95
2, 171600, Note_off_c, 0, 73, 95
2, 171600, Note_off_c, 0, 69, 95
2, 171600, Note_on_c, 0, 73, 95
2, 171600, Note_on_c, 0, 69, 95
2, 171840, Note_off_c, 0, 73, 95
2, 171840, Note_off_c, 0, 69, 95
2, 171840, Note_on_c, 0, 76, 95
2, 171840, Note_on_c, 0, 69, 95
2, 172080, Note_off_c, 0, 76, 95
2, 172080, Note_off_c, 0, 69, 95
2, 172080, Note_on_c, 0, 73, 95
2, 172080, Note_on_c, 0, 69, 95
2, 172320, Note_off_c, 0, 73, 95
2, 172320, Note_off_c, 0, 69, 95
2, 172320, Note_on_c, 0, 73, 95
2, 172320, Note_on_c, 0, 69, 95
2, 172560, Note_off_c, 0, 73, 95
2, 172560, Note_off_c, 0, 69, 95
2, 172560, Note_on_c, 0, 69, 95
2, 172560, Note_on_c, 0, 64, 95
2, 172800, Note_off_c, 0, 69, 95
2, 172800, Note_off_c, 0, 64, 95
2, 172800, Note_on_c, 0, 73, 95
2, 172800, Note_on_c, 0, 69, 95
2, 172800, Note_on_c, 0, 64, 95
2, 172800, Note_on_c, 0, 45, 63
2, 172800, Note_on_c, 0, 38, 63
2, 173040, Note_off_c, 0, 73, 95
2, 173040, Note_off_c, 0, 69, 95
2, 173040, Note_off_c, 0, 64, 95
2, 173040, Note_off_c, 0, 45, 63
2, 173040, Note_off_c, 0, 38, 63
2, 173040, Note_on_c, 0, 74, 70
2, 173040, Note_on_c, 0, 66, 70
2, 173280, Note_off_c, 0, 74, 70
2, 173280, Note_off_c, 0, 66, 70
2, 173280, Note_on_c, 0, 74, 95
2, 173280, Note_on_c, 0, 69, 95
2, 173280, Note_on_c, 0, 66, 95
2, 173520, Note_off_c, 0, 74, 95
2, 173520, Note_off_c, 0, 69, 95
2, 173520, Note_off_c, 0, 66, 95
2, 173520, Note_on_c, 0, 73, 95
2, 173520, Note_on_c, 0, 69, 95
2, 173520, Note_on_c, 0, 64, 95
2, 173760, Note_off_c, 0, 73, 95
2, 173760, Note_off_c, 0, 69, 95
2, 173760, Note_off_c, 0, 64, 95
2, 173760, Note_on_c, 0, 59, 95
2, 173760, Note_on_c, 0, 55, 95
2, 173760, Note_on_c, 0, 50, 95
2, 173809, Note_off_c, 0, 59, 95
2, 173809, Note_off_c, 0, 55, 95
2, 173809, Note_off_c, 0, 50, 95
2, 174000, Note_on_c, 0, 73, 95
2, 174000, Note_on_c, 0, 69, 95
2, 174000, Note_on_c, 0, 64, 95
2, 174240, Note_off_c, 0, 73, 95
2, 174240, Note_off_c, 0, 69, 95
2, 174240, Note_off_c, 0, 64, 95
2, 174240, Note_on_c, 0, 73, 95
2, 174240, Note_on_c, 0, 69, 95
2, 174240, Note_on_c, 0, 64, 95
2, 174480, Note_off_c, 0, 73, 95
2, 174480, Note_off_c, 0, 69, 95
2, 174480, Note_off_c, 0, 64, 95
2, 174480, Note_on_c, 0, 74, 70
2, 174480, Note_on_c, 0, 66, 70
2, 174720, Note_off_c, 0, 74, 70
2, 174720, Note_off_c, 0, 66, 70
2, 174720, Note_on_c, 0, 74, 95
2, 174720, Note_on_c, 0, 69, 95
2, 174720, Note_on_c, 0, 66, 95
2, 174960, Note_off_c, 0, 74, 95
2, 174960, Note_off_c, 0, 69, 95
2, 174960, Note_off_c, 0, 66, 95
2, 174960, Note_on_c, 0, 73, 95
2, 174960, Note_on_c, 0, 69, 95
2, 174960, Note_on_c, 0, 64, 95
2, 175200, Note_off_c, 0, 73, 95
2, 175200, Note_off_c, 0, 69, 95
2, 175200, Note_off_c, 0, 64, 95
2, 175200, Note_on_c, 0, 59, 95
2, 175200, Note_on_c, 0, 55, 95
2, 175200, Note_on_c, 0, 50, 95
2, 175249, Note_off_c, 0, 59, 95
2, 175249, Note_off_c, 0, 55, 95
2, 175249, Note_off_c, 0, 50, 95
2, 175440, Note_on_c, 0, 73, 95
2, 175440, Note_on_c, 0, 69, 95
2, 175440, Note_on_c, 0, 64, 95
2, 175680, Note_off_c, 0, 73, 95
2, 175680, Note_off_c, 0, 69, 95
2, 175680, Note_off_c, 0, 64, 95
2, 175680, Note_on_c, 0, 74, 95
2, 175680, Note_on_c, 0, 55, 95
2, 175680, Note_on_c, 0, 50, 95
2, 176160, Note_off_c, 0, 74, 95
2, 176160, Note_off_c, 0, 55, 95
2, 176160, Note_off_c, 0, 50, 95
2, 176160, Note_on_c, 0, 74, 95
2, 176160, Note_on_c, 0, 55, 95
2, 176160, Note_on_c, 0, 50, 95
2, 176400, Note_off_c, 0, 74, 95
2, 176400, Note_off_c, 0, 55, 95
2, 176400, Note_off_c, 0, 50, 95
2, 176400, Note_on_c, 0, 74, 95
2, 176400, Note_on_c, 0, 55, 95
2, 176400, Note_on_c, 0, 50, 95
2, 176880, Note_off_c, 0, 74, 95
2, 176880, Note_off_c, 0, 55, 95
2, 176880, Note_off_c, 0, 50, 95
2, 176880, Note_on_c, 0, 74, 95
2, 176880, Note_on_c, 0, 55, 95
2, 176880, Note_on_c, 0, 50, 95
2, 177120, Note_off_c, 0, 74, 95
2, 177120, Note_off_c, 0, 55, 95
2, 177120, Note_off_c, 0, 50, 95
2, 177120, Note_on_c, 0, 74, 95
2, 177120, Note_on_c, 0, 55, 95
2, 177120, Note_on_c, 0, 50, 95
2, 178560, Note_off_c, 0, 74, 95
2, 178560, Note_off_c, 0, 55, 95
2, 178560, Note_off_c, 0, 50, 95
2, 178560, Note_on_c, 0, 40, 95
2, 179040, Note_off_c, 0, 40, 95
2, 179040, Note_on_c, 0, 47, 95
2, 179520, Note_off_c, 0, 47, 95
2, 179520, Note_on_c, 0, 52, 95
2, 180000, Note_off_c, 0, 52, 95
2, 180000, Note_on_c, 0, 55, 95
2, 180480, Note_off_c, 0, 55, 95
2, 180480, Note_on_c, 0, 52, 95
2, 180960, Note_off_c, 0, 52, 95
2, 180960, Note_on_c, 0, 47, 95
2, 181440, Note_off_c, 0, 47, 95
2, 181440, Note_on_c, 0, 40, 95
2, 181920, Note_off_c, 0, 40, 95
2, 181920, Note_on_c, 0, 47, 95
2, 182400, Note_off_c, 0, 47, 95
2, 182400, Note_on_c, 0, 52, 95
2, 182880, Note_off_c, 0, 52, 95
2, 182880, Note_on_c, 0, 55, 95
2, 183360, Note_off_c, 0, 55, 95
2, 183360, Note_on_c, 0, 52, 95
2, 183840, Note_off_c, 0, 52, 95
2, 183840, Note_on_c, 0, 47, 95
2, 184320, Note_off_c, 0, 47, 95
2, 184320, Note_on_c, 0, 41, 95
2, 184800, Note_off_c, 0, 41, 95
2, 184800, Note_on_c, 0, 48, 95
2, 185280, Note_off_c, 0, 48, 95
2, 185280, Note_on_c, 0, 53, 95
2, 185760, Note_off_c, 0, 53, 95
2, 185760, Note_on_c, 0, 55, 95
2, 186240, Note_off_c, 0, 55, 95
2, 186240, Note_on_c, 0, 53, 95
2, 186720, Note_off_c, 0, 53, 95
2, 186720, Note_on_c, 0, 48, 95
2, 187200, Note_off_c, 0, 48, 95
2, 187200, Note_on_c, 0, 40, 95
2, 187680, Note_off_c, 0, 40, 95
2, 187680, Note_on_c, 0, 47, 95
2, 188160, Note_off_c, 0, 47, 95
2, 188160, Note_on_c, 0, 52, 95
2, 188640, Note_off_c, 0, 52, 95
2, 188640, Note_on_c, 0, 55, 95
2, 189120, Note_off_c, 0, 55, 95
2, 189120, Note_on_c, 0, 52, 95
2, 189600, Note_off_c, 0, 52, 95
2, 189600, Note_on_c, 0, 47, 95
2, 190080, Note_off_c, 0, 47, 95
2, 190080, Note_on_c, 0, 39, 95
2, 190560, Note_off_c, 0, 39, 95
2, 190560, Note_on_c, 0, 46, 95
2, 191040, Note_off_c, 0, 46, 95
2, 191040, Note_on_c, 0, 51, 95
2, 191520, Note_off_c, 0, 51, 95
2, 191520, Note_on_c, 0, 55, 95
2, 192000, Note_off_c, 0, 55, 95
2, 192000, Note_on_c, 0, 51, 95
2, 192480, Note_off_c, 0, 51, 95
2, 192480, Note_on_c, 0, 46, 95
2, 192960, Note_off_c, 0, 46, 95
2, 192960, Note_on_c, 0, 39, 95
2, 193440, Note_off_c, 0, 39, 95
2, 193440, Note_on_c, 0, 46, 95
2, 193920, Note_off_c, 0, 46, 95
2, 193920, Note_on_c, 0, 51, 95
2, 194400, Note_off_c, 0, 51, 95
2, 194400, Note_on_c, 0, 55, 95
2, 194880, Note_off_c, 0, 55, 95
2, 194880, Note_on_c, 0, 51, 95
2, 195360, Note_off_c, 0, 51, 95
2, 195360, Note_on_c, 0, 46, 95
2, 195840, Note_off_c, 0, 46, 95
2, 195840, Note_on_c, 0, 41, 95
2, 196320, Note_off_c, 0, 41, 95
2, 196320, Note_on_c, 0, 48, 95
2, 196800, Note_off_c, 0, 48, 95
2, 196800, Note_on_c, 0, 53, 95
2, 197280, Note_off_c, 0, 53, 95
2, 197280, Note_on_c, 0, 55, 95
2, 197760, Note_off_c, 0, 55, 95
2, 197760, Note_on_c, 0, 53, 95
2, 198240, Note_off_c, 0, 53, 95
2, 198240, Note_on_c, 0, 48, 95
2, 198720, Note_off_c, 0, 48, 95
2, 198720, Note_on_c, 0, 40, 95
2, 199200, Note_off_c, 0, 40, 95
2, 199200, Note_on_c, 0, 47, 95
2, 199680, Note_off_c, 0, 47, 95
2, 199680, Note_on_c, 0, 52, 95
2, 200160, Note_off_c, 0, 52, 95
2, 200160, Note_on_c, 0, 55, 95
2, 200640, Note_off_c, 0, 55, 95
2, 200640, Note_on_c, 0, 52, 95
2, 201120, Note_off_c, 0, 52, 95
2, 201120, Note_on_c, 0, 47, 95
2, 201600, Note_off_c, 0, 47, 95
2, 201600, Note_on_c, 0, 39, 95
2, 202080, Note_off_c, 0, 39, 95
2, 202080, Note_on_c, 0, 46, 95
2, 202560, Note_off_c, 0, 46, 95
2, 202560, Note_on_c, 0, 51, 95
2, 203040, Note_off_c, 0, 51, 95
2, 203040, Note_on_c, 0, 55, 95
2, 203520, Note_off_c, 0, 55, 95
2, 203520, Note_on_c, 0, 51, 95
2, 204000, Note_off_c, 0, 51, 95
2, 204000, Note_on_c, 0, 46, 95
2, 204480, Note_off_c, 0, 46, 95
2, 204480, Note_on_c, 0, 39, 95
2, 204960, Note_off_c, 0, 39, 95
2, 204960, Note_on_c, 0, 46, 95
2, 205440, Note_off_c, 0, 46, 95
2, 205440, Note_on_c, 0, 51, 95
2, 205920, Note_off_c, 0, 51, 95
2, 205920, Note_on_c, 0, 55, 95
2, 206400, Note_off_c, 0, 55, 95
2, 206400, Note_on_c, 0, 51, 95
2, 206880, Note_off_c, 0, 51, 95
2, 206880, Note_on_c, 0, 46, 95
2, 207360, Note_off_c, 0, 46, 95
2, 207360, Note_on_c, 0, 40, 95
2, 207840, Note_off_c, 0, 40, 95
2, 207840, Note_on_c, 0, 47, 95
2, 208320, Note_off_c, 0, 47, 95
2, 208320, Note_on_c, 0, 52, 95
2, 208800, Note_off_c, 0, 52, 95
2, 208800, Note_on_c, 0, 55, 95
2, 209280, Note_off_c, 0, 55, 95
2, 209280, Note_on_c, 0, 52, 95
2, 209760, Note_off_c, 0, 52, 95
2, 209760, Note_on_c, 0, 47, 95
2, 210240, Note_off_c, 0, 47, 95
2, 210240, Note_on_c, 0, 40, 95
2, 210720, Note_off_c, 0, 40, 95
2, 210720, Note_on_c, 0, 47, 95
2, 211200, Note_off_c, 0, 47, 95
2, 211200, Note_on_c, 0, 52, 95
2, 211680, Note_off_c, 0, 52, 95
2, 211680, Note_on_c, 0, 55, 95
2, 212160, Note_off_c, 0, 55, 95
2, 212160, Note_on_c, 0, 52, 95
2, 212640, Note_off_c, 0, 52, 95
2, 212640, Note_on_c, 0, 47, 95
2, 213120, Note_off_c, 0, 47, 95
2, 213120, Note_on_c, 0, 59, 95
2, 213120, Note_on_c, 0, 55, 95
2, 213120, Note_on_c, 0, 52, 95
2, 213120, Note_on_c, 0, 47, 95
2, 213120, Note_on_c, 0, 40, 95
2, 213600, Note_off_c, 0, 59, 95
2, 213600, Note_off_c, 0, 55, 95
2, 213600, Note_off_c, 0, 52, 95
2, 213600, Note_off_c, 0, 47, 95
2, 213600, Note_off_c, 0, 40, 95
2, 213600, Note_on_c, 0, 59, 95
2, 213600, Note_on_c, 0, 55, 95
2, 213600, Note_on_c, 0, 52, 95
2, 213840, Note_off_c, 0, 59, 95
2, 213840, Note_off_c, 0, 55, 95
2, 213840, Note_off_c, 0, 52, 95
2, 213840, Note_on_c, 0, 59, 95
2, 213840, Note_on_c, 0, 55, 95
2, 213840, Note_on_c, 0, 52, 95
2, 214080, Note_off_c, 0, 59, 95
2, 214080, Note_off_c, 0, 55, 95
2, 214080, Note_off_c, 0, 52, 95
2, 214080, Note_on_c, 0, 59, 95
2, 214080, Note_on_c, 0, 55, 95
2, 214080, Note_on_c, 0, 52, 95
2, 214320, Note_off_c, 0, 59, 95
2, 214320, Note_off_c, 0, 55, 95
2, 214320, Note_off_c, 0, 52, 95
2, 214320, Note_on_c, 0, 59, 95
2, 214320, Note_on_c, 0, 55, 95
2, 214320, Note_on_c, 0, 52, 95
2, 214560, Note_off_c, 0, 59, 95
2, 214560, Note_off_c, 0, 55, 95
2, 214560, Note_off_c, 0, 52, 95
2, 214560, Note_on_c, 0, 63, 95
2, 214560, Note_on_c, 0, 57, 95
2, 214560, Note_on_c, 0, 54, 95
2, 214560, Note_on_c, 0, 42, 95
2, 215040, Note_off_c, 0, 63, 95
2, 215040, Note_off_c, 0, 57, 95
2, 215040, Note_off_c, 0, 54, 95
2, 215040, Note_off_c, 0, 42, 95
2, 215040, Note_on_c, 0, 63, 95
2, 215040, Note_on_c, 0, 57, 95
2, 215040, Note_on_c, 0, 54, 95
2, 215280, Note_off_c, 0, 63, 95
2, 215280, Note_off_c, 0, 57, 95
2, 215280, Note_off_c, 0, 54, 95
2, 215280, Note_on_c, 0, 63, 95
2, 215280, Note_on_c, 0, 57, 95
2, 215280, Note_on_c, 0, 54, 95
2, 215520, Note_off_c, 0, 63, 95
2, 215520, Note_off_c, 0, 57, 95
2, 215520, Note_off_c, 0, 54, 95
2, 215520, Note_on_c, 0, 63, 95
2, 215520, Note_on_c, 0, 57, 95
2, 215520, Note_on_c, 0, 54, 95
2, 215760, Note_off_c, 0, 63, 95
2, 215760, Note_off_c, 0, 57, 95
2, 215760, Note_off_c, 0, 54, 95
2, 215760, Note_on_c, 0, 63, 95
2, 215760, Note_on_c, 0, 57, 95
2, 215760, Note_on_c, 0, 54, 95
2, 216000, Note_off_c, 0, 63, 95
2, 216000, Note_off_c, 0, 57, 95
2, 216000, Note_off_c, 0, 54, 95
2, 216000, Note_on_c, 0, 64, 95
2, 216000, Note_on_c, 0, 59, 95
2, 216000, Note_on_c, 0, 55, 95
2, 216000, Note_on_c, 0, 43, 95
2, 216480, Note_off_c, 0, 64, 95
2, 216480, Note_off_c, 0, 59, 95
2, 216480, Note_off_c, 0, 55, 95
2, 216480, Note_off_c, 0, 43, 95
2, 216480, Note_on_c, 0, 64, 95
2, 216480, Note_on_c, 0, 59, 95
2, 216480, Note_on_c, 0, 55, 95
2, 216720, Note_off_c, 0, 64, 95
2, 216720, Note_off_c, 0, 59, 95
2, 216720, Note_off_c, 0, 55, 95
2, 216720, Note_on_c, 0, 64, 95
2, 216720, Note_on_c, 0, 59, 95
2, 216720, Note_on_c, 0, 55, 95
2, 216960, Note_off_c, 0, 64, 95
2, 216960, Note_off_c, 0, 59, 95
2, 216960, Note_off_c, 0, 55, 95
2, 216960, Note_on_c, 0, 64, 95
2, 216960, Note_on_c, 0, 59, 95
2, 216960, Note_on_c, 0, 55, 95
2, 217200, Note_off_c, 0, 64, 95
2, 217200, Note_off_c, 0, 59, 95
2, 217200, Note_off_c, 0, 55, 95
2, 217200, Note_on_c, 0, 64, 95
2, 217200, Note_on_c, 0, 59, 95
2, 217200, Note_on_c, 0, 55, 95
2, 217440, Note_off_c, 0, 64, 95
2, 217440, Note_off_c, 0, 59, 95
2, 217440, Note_off_c, 0, 55, 95
2, 217440, Note_on_c, 1, 64, 95
2, 217440, Note_on_c, 1, 59, 95
2, 217440, Note_on_c, 1, 55, 95
2, 217440, Note_on_c, 1, 43, 95
2, 217560, Pitch_bend_c, 1, 8832
2, 217560, Pitch_bend_c, 1, 8832
2, 217560, Pitch_bend_c, 1, 8832
2, 217560, Pitch_bend_c, 1, 8832
2, 217680, Pitch_bend_c, 1, 9600
2, 217680, Pitch_bend_c, 1, 8192
2, 217680, Note_off_c, 1, 64, 95
2, 217680, Pitch_bend_c, 1, 9600
2, 217680, Pitch_bend_c, 1, 8192
2, 217680, Note_off_c, 1, 59, 95
2, 217680, Pitch_bend_c, 1, 9600
2, 217680, Pitch_bend_c, 1, 8192
2, 217680, Note_off_c, 1, 55, 95
2, 217680, Pitch_bend_c, 1, 9600
2, 217680, Pitch_bend_c, 1, 8192
2, 217680, Note_off_c, 1, 43, 95
2, 217680, Note_on_c, 0, 66, 95
2, 217680, Note_on_c, 0, 61, 95
2, 217680, Note_on_c, 0, 57, 95
2, 217680, Note_on_c, 0, 45, 95
2, 217920, Note_off_c, 0, 66, 95
2, 217920, Note_off_c, 0, 61, 95
2, 217920, Note_off_c, 0, 57, 95
2, 217920, Note_off_c, 0, 45, 95
2, 217920, Note_on_c, 0, 66, 95
2, 217920, Note_on_c, 0, 61, 95
2, 217920, Note_on_c, 0, 57, 95
2, 218160, Note_off_c, 0, 66, 95
2, 218160, Note_off_c, 0, 61, 95
2, 218160, Note_off_c, 0, 57, 95
2, 218160, Note_on_c, 0, 66, 95
2, 218160, Note_on_c, 0, 61, 95
2, 218160, Note_on_c, 0, 57, 95
2, 218400, Note_off_c, 0, 66, 95
2, 218400, Note_off_c, 0, 61, 95
2, 218400, Note_off_c, 0, 57, 95
2, 218400, Note_on_c, 0, 66, 95
2, 218400, Note_on_c, 0, 61, 95
2, 218400, Note_on_c, 0, 57, 95
2, 218640, Note_off_c, 0, 66, 95
2, 218640, Note_off_c, 0, 61, 95
2, 218640, Note_off_c, 0, 57, 95
2, 218640, Note_on_c, 0, 66, 95
2, 218640, Note_on_c, 0, 61, 95
2, 218640, Note_on_c, 0, 57, 95
2, 218880, Note_off_c, 0, 66, 95
2, 218880, Note_off_c, 0, 61, 95
2, 218880, Note_off_c, 0, 57, 95
2, 218880, Note_on_c, 0, 66, 95
2, 218880, Note_on_c, 0, 62, 95
2, 218880, Note_on_c, 0, 59, 95
2, 218880, Note_on_c, 0, 47, 95
2, 219360, Note_off_c, 0, 66, 95
2, 219360, Note_off_c, 0, 62, 95
2, 219360, Note_off_c, 0, 59, 95
2, 219360, Note_off_c, 0, 47, 95
2, 219360, Note_on_c, 0, 66, 95
2, 219360, Note_on_c, 0, 62, 95
2, 219360, Note_on_c, 0, 59, 95
2, 219600, Note_off_c, 0, 66, 95
2, 219600, Note_off_c, 0, 62, 95
2, 219600, Note_off_c, 0, 59, 95
2, 219600, Note_on_c, 0, 66, 95
2, 219600, Note_on_c, 0, 62, 95
2, 219600, Note_on_c, 0, 59, 95
2, 219840, Note_off_c, 0, 66, 95
2, 219840, Note_off_c, 0, 62, 95
2, 219840, Note_off_c, 0, 59, 95
2, 219840, Note_on_c, 0, 66, 95
2, 219840, Note_on_c, 0, 62, 95
2, 219840, Note_on_c, 0, 59, 95
2, 220080, Note_off_c, 0, 66, 95
2, 220080, Note_off_c, 0, 62, 95
2, 220080, Note_off_c, 0, 59, 95
2, 220080, Note_on_c, 0, 66, 95
2, 220080, Note_on_c, 0, 62, 95
2, 220080, Note_on_c, 0, 59, 95
2, 220320, Note_off_c, 0, 66, 95
2, 220320, Note_off_c, 0, 62, 95
2, 220320, Note_off_c, 0, 59, 95
2, 220320, Note_on_c, 0, 66, 95
2, 220320, Note_on_c, 0, 62, 95
2, 220320, Note_on_c, 0, 59, 95
2, 220320, Note_on_c, 0, 47, 95
2, 220800, Note_off_c, 0, 66, 95
2, 220800, Note_off_c, 0, 62, 95
2, 220800, Note_off_c, 0, 59, 95
2, 220800, Note_off_c, 0, 47, 95
2, 220800, Note_on_c, 0, 66, 95
2, 220800, Note_on_c, 0, 62, 95
2, 220800, Note_on_c, 0, 59, 95
2, 221040, Note_off_c, 0, 66, 95
2, 221040, Note_off_c, 0, 62, 95
2, 221040, Note_off_c, 0, 59, 95
2, 221040, Note_on_c, 0, 66, 95
2, 221040, Note_on_c, 0, 62, 95
2, 221040, Note_on_c, 0, 59, 95
2, 221280, Note_off_c, 0, 66, 95
2, 221280, Note_off_c, 0, 62, 95
2, 221280, Note_off_c, 0, 59, 95
2, 221280, Note_on_c, 0, 66, 95
2, 221280, Note_on_c, 0, 62, 95
2, 221280, Note_on_c, 0, 59, 95
2, 221520, Note_off_c, 0, 66, 95
2, 221520, Note_off_c, 0, 62, 95
2, 221520, Note_off_c, 0, 59, 95
2, 221520, Note_on_c, 0, 66, 95
2, 221520, Note_on_c, 0, 62, 95
2, 221520, Note_on_c, 0, 59, 95
2, 221760, Note_off_c, 0, 66, 95
2, 221760, Note_off_c, 0, 62, 95
2, 221760, Note_off_c, 0, 59, 95
2, 221760, Note_on_c, 0, 66, 95
2, 221760, Note_on_c, 0, 61, 95
2, 221760, Note_on_c, 0, 59, 95
2, 221760, Note_on_c, 0, 45, 95
2, 222240, Note_off_c, 0, 66, 95
2, 222240, Note_off_c, 0, 61, 95
2, 222240, Note_off_c, 0, 59, 95
2, 222240, Note_off_c, 0, 45, 95
2, 222240, Note_on_c, 0, 66, 95
2, 222240, Note_on_c, 0, 61, 95
2, 222240, Note_on_c, 0, 59, 95
2, 222480, Note_off_c, 0, 66, 95
2, 222480, Note_off_c, 0, 61, 95
2, 222480, Note_off_c, 0, 59, 95
2, 222480, Note_on_c, 0, 66, 95
2, 222480, Note_on_c, 0, 61, 95
2, 222480, Note_on_c, 0, 59, 95
2, 222720, Note_off_c, 0, 66, 95
2, 222720, Note_off_c, 0, 61, 95
2, 222720, Note_off_c, 0, 59, 95
2, 222720, Note_on_c, 0, 66, 95
2, 222720, Note_on_c, 0, 61, 95
2, 222720, Note_on_c, 0, 59, 95
2, 222960, Note_off_c, 0, 66, 95
2, 222960, Note_off_c, 0, 61, 95
2, 222960, Note_off_c, 0, 59, 95
2, 222960, Note_on_c, 0, 66, 95
2, 222960, Note_on_c, 0, 61, 95
2, 222960, Note_on_c, 0, 59, 95
2, 223200, Note_off_c, 0, 66, 95
2, 223200, Note_off_c, 0, 61, 95
2, 223200, Note_off_c, 0, 59, 95
2, 223200, Note_on_c, 0, 66, 95
2, 223200, Note_on_c, 0, 61, 95
2, 223200, Note_on_c, 0, 59, 95
2, 223200, Note_on_c, 0, 45, 95
2, 223680, Note_off_c, 0, 66, 95
2, 223680, Note_off_c, 0, 61, 95
2, 223680, Note_off_c, 0, 59, 95
2, 223680, Note_off_c, 0, 45, 95
2, 223680, Note_on_c, 0, 66, 95
2, 223680, Note_on_c, 0, 61, 95
2, 223680, Note_on_c, 0, 59, 95
2, 223920, Note_off_c, 0, 66, 95
2, 223920, Note_off_c, 0, 61, 95
2, 223920, Note_off_c, 0, 59, 95
2, 223920, Note_on_c, 0, 66, 95
2, 223920, Note_on_c, 0, 61, 95
2, 223920, Note_on_c, 0, 59, 95
2, 224160, Note_off_c, 0, 66, 95
2, 224160, Note_off_c, 0, 61, 95
2, 224160, Note_off_c, 0, 59, 95
2, 224160, Note_on_c, 0, 66, 95
2, 224160, Note_on_c, 0, 61, 95
2, 224160, Note_on_c, 0, 59, 95
2, 224400, Note_off_c, 0, 66, 95
2, 224400, Note_off_c, 0, 61, 95
2, 224400, Note_off_c, 0, 59, 95
2, 224400, Note_on_c, 0, 59, 95
2, 224400, Note_on_c, 0, 55, 95
2, 224400, Note_on_c, 0, 50, 95
2, 224640, Note_off_c, 0, 59, 95
2, 224640, Note_off_c, 0, 55, 95
2, 224640, Note_off_c, 0, 50, 95
2, 224640, Note_on_c, 0, 59, 95
2, 224640, Note_on_c, 0, 55, 95
2, 224640, Note_on_c, 0, 52, 95
2, 224640, Note_on_c, 0, 47, 95
2, 224640, Note_on_c, 0, 40, 95
2, 225120, Note_off_c, 0, 59, 95
2, 225120, Note_off_c, 0, 55, 95
2, 225120, Note_off_c, 0, 52, 95
2, 225120, Note_off_c, 0, 47, 95
2, 225120, Note_off_c, 0, 40, 95
2, 225120, Note_on_c, 0, 59, 95
2, 225120, Note_on_c, 0, 55, 95
2, 225120, Note_on_c, 0, 52, 95
2, 225120, Note_on_c, 0, 47, 95
2, 225360, Note_off_c, 0, 59, 95
2, 225360, Note_off_c, 0, 55, 95
2, 225360, Note_off_c, 0, 52, 95
2, 225360, Note_off_c, 0, 47, 95
2, 225360, Note_on_c, 0, 59, 95
2, 225360, Note_on_c, 0, 55, 95
2, 225360, Note_on_c, 0, 52, 95
2, 225360, Note_on_c, 0, 47, 95
2, 225600, Note_off_c, 0, 59, 95
2, 225600, Note_off_c, 0, 55, 95
2, 225600, Note_off_c, 0, 52, 95
2, 225600, Note_off_c, 0, 47, 95
2, 225600, Note_on_c, 0, 59, 95
2, 225600, Note_on_c, 0, 55, 95
2, 225600, Note_on_c, 0, 52, 95
2, 225600, Note_on_c, 0, 47, 95
2, 225840, Note_off_c, 0, 59, 95
2, 225840, Note_off_c, 0, 55, 95
2, 225840, Note_off_c, 0, 52, 95
2, 225840, Note_off_c, 0, 47, 95
2, 225840, Note_on_c, 0, 59, 95
2, 225840, Note_on_c, 0, 55, 95
2, 225840, Note_on_c, 0, 52, 95
2, 225840, Note_on_c, 0, 47, 95
2, 226080, Note_off_c, 0, 59, 95
2, 226080, Note_off_c, 0, 55, 95
2, 226080, Note_off_c, 0, 52, 95
2, 226080, Note_off_c, 0, 47, 95
2, 226080, Note_on_c, 0, 64, 95
2, 226080, Note_on_c, 0, 59, 95
2, 226080, Note_on_c, 0, 55, 95
2, 226080, Note_on_c, 0, 52, 95
2, 226080, Note_on_c, 0, 47, 95
2, 226080, Note_on_c, 0, 40, 95
2, 226560, Note_off_c, 0, 64, 95
2, 226560, Note_off_c, 0, 59, 95
2, 226560, Note_off_c, 0, 55, 95
2, 226560, Note_off_c, 0, 52, 95
2, 226560, Note_off_c, 0, 47, 95
2, 226560, Note_off_c, 0, 40, 95
2, 226560, Note_on_c, 0, 59, 95
2, 226560, Note_on_c, 0, 55, 95
2, 226560, Note_on_c, 0, 52, 95
2, 226560, Note_on_c, 0, 47, 95
2, 226800, Note_off_c, 0, 59, 95
2, 226800, Note_off_c, 0, 55, 95
2, 226800, Note_off_c, 0, 52, 95
2, 226800, Note_off_c, 0, 47, 95
2, 226800, Note_on_c, 0, 59, 95
2, 226800, Note_on_c, 0, 55, 95
2, 226800, Note_on_c, 0, 52, 95
2, 226800, Note_on_c, 0, 47, 95
2, 227040, Note_off_c, 0, 59, 95
2, 227040, Note_off_c, 0, 55, 95
2, 227040, Note_off_c, 0, 52, 95
2, 227040, Note_off_c, 0, 47, 95
2, 227040, Note_on_c, 0, 50, 95
2, 227280, Note_off_c, 0, 50, 95
2, 227280, Note_on_c, 0, 52, 95
2, 227520, Note_off_c, 0, 52, 95
2, 227520, Note_on_c, 0, 38, 95
2, 227760, Note_off_c, 0, 38, 95
2, 227760, Note_on_c, 0, 40, 70
2, 228000, Note_off_c, 0, 40, 70
2, 228000, Note_on_c, 0, 59, 95
2, 228000, Note_on_c, 0, 55, 95
2, 228000, Note_on_c, 0, 52, 95
2, 228000, Note_on_c, 0, 47, 95
2, 228240, Note_off_c, 0, 59, 95
2, 228240, Note_off_c, 0, 55, 95
2, 228240, Note_off_c, 0, 52, 95
2, 228240, Note_off_c, 0, 47, 95
2, 228240, Note_on_c, 0, 59, 95
2, 228240, Note_on_c, 0, 55, 95
2, 228240, Note_on_c, 0, 52, 95
2, 228240, Note_on_c, 0, 47, 95
2, 228480, Note_off_c, 0, 59, 95
2, 228480, Note_off_c, 0, 55, 95
2, 228480, Note_off_c, 0, 52, 95
2, 228480, Note_off_c, 0, 47, 95
2, 228480, Note_on_c, 0, 59, 95
2, 228480, Note_on_c, 0, 55, 95
2, 228480, Note_on_c, 0, 52, 95
2, 228480, Note_on_c, 0, 47, 95
2, 228720, Note_off_c, 0, 59, 95
2, 228720, Note_off_c, 0, 55, 95
2, 228720, Note_off_c, 0, 52, 95
2, 228720, Note_off_c, 0, 47, 95
2, 228720, Note_on_c, 0, 59, 95
2, 228720, Note_on_c, 0, 55, 95
2, 228720, Note_on_c, 0, 52, 95
2, 228720, Note_on_c, 0, 47, 95
2, 228960, Note_off_c, 0, 59, 95
2, 228960, Note_off_c, 0, 55, 95
2, 228960, Note_off_c, 0, 52, 95
2, 228960, Note_off_c, 0, 47, 95
2, 228960, Note_on_c, 0, 64, 95
2, 228960, Note_on_c, 0, 59, 95
2, 228960, Note_on_c, 0, 55, 95
2, 228960, Note_on_c, 0, 52, 95
2, 228960, Note_on_c, 0, 47, 95
2, 228960, Note_on_c, 0, 40, 95
2, 229440, Note_off_c, 0, 64, 95
2, 229440, Note_off_c, 0, 59, 95
2, 229440, Note_off_c, 0, 55, 95
2, 229440, Note_off_c, 0, 52, 95
2, 229440, Note_off_c, 0, 47, 95
2, 229440, Note_off_c, 0, 40, 95
2, 229440, Note_on_c, 0, 59, 95
2, 229440, Note_on_c, 0, 55, 95
2, 229440, Note_on_c, 0, 52, 95
2, 229440, Note_on_c, 0, 47, 95
2, 229680, Note_off_c, 0, 59, 95
2, 229680, Note_off_c, 0, 55, 95
2, 229680, Note_off_c, 0, 52, 95
2, 229680, Note_off_c, 0, 47, 95
2, 229680, Note_on_c, 0, 59, 95
2, 229680, Note_on_c, 0, 55, 95
2, 229680, Note_on_c, 0, 52, 95
2, 229680, Note_on_c, 0, 47, 95
2, 229920, Note_off_c, 0, 59, 95
2, 229920, Note_off_c, 0, 55, 95
2, 229920, Note_off_c, 0, 52, 95
2, 229920, Note_off_c, 0, 47, 95
2, 229920, Note_on_c, 0, 59, 95
2, 229920, Note_on_c, 0, 55, 95
2, 229920, Note_on_c, 0, 52, 95
2, 229920, Note_on_c, 0, 47, 95
2, 230160, Note_off_c, 0, 59, 95
2, 230160, Note_off_c, 0, 55, 95
2, 230160, Note_off_c, 0, 52, 95
2, 230160, Note_off_c, 0, 47, 95
2, 230160, Note_on_c, 0, 59, 95
2, 230160, Note_on_c, 0, 55, 95
2, 230160, Note_on_c, 0, 52, 95
2, 230160, Note_on_c, 0, 47, 95
2, 230400, Note_off_c, 0, 59, 95
2, 230400, Note_off_c, 0, 55, 95
2, 230400, Note_off_c, 0, 52, 95
2, 230400, Note_off_c, 0, 47, 95
2, 230400, Note_on_c, 0, 59, 95
2, 230400, Note_on_c, 0, 55, 95
2, 230400, Note_on_c, 0, 52, 95
2, 230400, Note_on_c, 0, 47, 95
2, 230400, Note_on_c, 0, 40, 95
2, 230880, Note_off_c, 0, 59, 95
2, 230880, Note_off_c, 0, 55, 95
2, 230880, Note_off_c, 0, 52, 95
2, 230880, Note_off_c, 0, 47, 95
2, 230880, Note_off_c, 0, 40, 95
2, 230880, Note_on_c, 0, 59, 95
2, 230880, Note_on_c, 0, 55, 95
2, 230880, Note_on_c, 0, 52, 95
2, 231120, Note_off_c, 0, 59, 95
2, 231120, Note_off_c, 0, 55, 95
2, 231120, Note_off_c, 0, 52, 95
2, 231120, Note_on_c, 0, 59, 95
2, 231120, Note_on_c, 0, 55, 95
2, 231120, Note_on_c, 0, 52, 95
2, 231360, Note_off_c, 0, 59, 95
2, 231360, Note_off_c, 0, 55, 95
2, 231360, Note_off_c, 0, 52, 95
2, 231360, Note_on_c, 0, 59, 95
2, 231360, Note_on_c, 0, 55, 95
2, 231360, Note_on_c, 0, 52, 95
2, 231600, Note_off_c, 0, 59, 95
2, 231600, Note_off_c, 0, 55, 95
2, 231600, Note_off_c, 0, 52, 95
2, 231600, Note_on_c, 0, 59, 95
2, 231600, Note_on_c, 0, 55, 95
2, 231600, Note_on_c, 0, 52, 95
2, 231840, Note_off_c, 0, 59, 95
2, 231840, Note_off_c, 0, 55, 95
2, 231840, Note_off_c, 0, 52, 95
2, 231840, Note_on_c, 0, 63, 95
2, 231840, Note_on_c, 0, 57, 95
2, 231840, Note_on_c, 0, 54, 95
2, 231840, Note_on_c, 0, 42, 95
2, 232320, Note_off_c, 0, 63, 95
2, 232320, Note_off_c, 0, 57, 95
2, 232320, Note_off_c, 0, 54, 95
2, 232320, Note_off_c, 0, 42, 95
2, 232320, Note_on_c, 0, 63, 95
2, 232320, Note_on_c, 0, 57, 95
2, 232320, Note_on_c, 0, 54, 95
2, 232560, Note_off_c, 0, 63, 95
2, 232560, Note_off_c, 0, 57, 95
2, 232560, Note_off_c, 0, 54, 95
2, 232560, Note_on_c, 0, 63, 95
2, 232560, Note_on_c, 0, 57, 95
2, 232560, Note_on_c, 0, 54, 95
2, 232800, Note_off_c, 0, 63, 95
2, 232800, Note_off_c, 0, 57, 95
2, 232800, Note_off_c, 0, 54, 95
2, 232800, Note_on_c, 0, 63, 95
2, 232800, Note_on_c, 0, 57, 95
2, 232800, Note_on_c, 0, 54, 95
2, 233040, Note_off_c, 0, 63, 95
2, 233040, Note_off_c, 0, 57, 95
2, 233040, Note_off_c, 0, 54, 95
2, 233040, Note_on_c, 0, 63, 95
2, 233040, Note_on_c, 0, 57, 95
2, 233040, Note_on_c, 0, 54, 95
2, 233280, Note_off_c, 0, 63, 95
2, 233280, Note_off_c, 0, 57, 95
2, 233280, Note_off_c, 0, 54, 95
2, 233280, Note_on_c, 0, 64, 95
2, 233280, Note_on_c, 0, 59, 95
2, 233280, Note_on_c, 0, 55, 95
2, 233280, Note_on_c, 0, 43, 95
2, 233760, Note_off_c, 0, 64, 95
2, 233760, Note_off_c, 0, 59, 95
2, 233760, Note_off_c, 0, 55, 95
2, 233760, Note_off_c, 0, 43, 95
2, 233760, Note_on_c, 0, 64, 95
2, 233760, Note_on_c, 0, 59, 95
2, 233760, Note_on_c, 0, 55, 95
2, 234000, Note_off_c, 0, 64, 95
2, 234000, Note_off_c, 0, 59, 95
2, 234000, Note_off_c, 0, 55, 95
2, 234000, Note_on_c, 0, 64, 95
2, 234000, Note_on_c, 0, 59, 95
2, 234000, Note_on_c, 0, 55, 95
2, 234240, Note_off_c, 0, 64, 95
2, 234240, Note_off_c, 0, 59, 95
2, 234240, Note_off_c, 0, 55, 95
2, 234240, Note_on_c, 0, 64, 95
2, 234240, Note_on_c, 0, 59, 95
2, 234240, Note_on_c, 0, 55, 95
2, 234480, Note_off_c, 0, 64, 95
2, 234480, Note_off_c, 0, 59, 95
2, 234480, Note_off_c, 0, 55, 95
2, 234480, Note_on_c, 0, 64, 95
2, 234480, Note_on_c, 0, 59, 95
2, 234480, Note_on_c, 0, 55, 95
2, 234720, Note_off_c, 0, 64, 95
2, 234720, Note_off_c, 0, 59, 95
2, 234720, Note_off_c, 0, 55, 95
2, 234720, Note_on_c, 1, 64, 95
2, 234720, Note_on_c, 1, 59, 95
2, 234720, Note_on_c, 1, 55, 95
2, 234720, Note_on_c, 1, 43, 95
2, 234840, Pitch_bend_c, 1, 8832
2, 234840, Pitch_bend_c, 1, 8832
2, 234840, Pitch_bend_c, 1, 8832
2, 234840, Pitch_bend_c, 1, 8832
2, 234960, Pitch_bend_c, 1, 9600
2, 234960, Pitch_bend_c, 1, 8192
2, 234960, Note_off_c, 1, 64, 95
2, 234960, Pitch_bend_c, 1, 9600
2, 234960, Pitch_bend_c, 1, 8192
2, 234960, Note_off_c, 1, 59, 95
2, 234960, Pitch_bend_c, 1, 9600
2, 234960, Pitch_bend_c, 1, 8192
2, 234960, Note_off_c, 1, 55, 95
2, 234960, Pitch_bend_c, 1, 9600
2, 234960, Pitch_bend_c, 1, 8192
2, 234960, Note_off_c, 1, 43, 95
2, 234960, Note_on_c, 0, 66, 95
2, 234960, Note_on_c, 0, 61, 95
2, 234960, Note_on_c, 0, 57, 95
2, 234960, Note_on_c, 0, 45, 95
2, 235200, Note_off_c, 0, 66, 95
2, 235200, Note_off_c, 0, 61, 95
2, 235200, Note_off_c, 0, 57, 95
2, 235200, Note_off_c, 0, 45, 95
2, 235200, Note_on_c, 0, 66, 95
2, 235200, Note_on_c, 0, 61, 95
2, 235200, Note_on_c, 0, 57, 95
2, 235440, Note_off_c, 0, 66, 95
2, 235440, Note_off_c, 0, 61, 95
2, 235440, Note_off_c, 0, 57, 95
2, 235440, Note_on_c, 0, 66, 95
2, 235440, Note_on_c, 0, 61, 95
2, 235440, Note_on_c, 0, 57, 95
2, 235680, Note_off_c, 0, 66, 95
2, 235680, Note_off_c, 0, 61, 95
2, 235680, Note_off_c, 0, 57, 95
2, 235680, Note_on_c, 0, 66, 95
2, 235680, Note_on_c, 0, 61, 95
2, 235680, Note_on_c, 0, 57, 95
2, 235920, Note_off_c, 0, 66, 95
2, 235920, Note_off_c, 0, 61, 95
2, 235920, Note_off_c, 0, 57, 95
2, 235920, Note_on_c, 0, 66, 95
2, 235920, Note_on_c, 0, 61, 95
2, 235920, Note_on_c, 0, 57, 95
2, 236160, Note_off_c, 0, 66, 95
2, 236160, Note_off_c, 0, 61, 95
2, 236160, Note_off_c, 0, 57, 95
2, 236160, Note_on_c, 0, 69, 95
2, 236160, Note_on_c, 0, 62, 95
2, 236160, Note_on_c, 0, 59, 95
2, 236160, Note_on_c, 0, 47, 95
2, 236640, Note_off_c, 0, 69, 95
2, 236640, Note_off_c, 0, 62, 95
2, 236640, Note_off_c, 0, 59, 95
2, 236640, Note_off_c, 0, 47, 95
2, 236640, Note_on_c, 0, 69, 95
2, 236640, Note_on_c, 0, 62, 95
2, 236640, Note_on_c, 0, 59, 95
2, 236880, Note_off_c, 0, 69, 95
2, 236880, Note_off_c, 0, 62, 95
2, 236880, Note_off_c, 0, 59, 95
2, 236880, Note_on_c, 0, 69, 95
2, 236880, Note_on_c, 0, 62, 95
2, 236880, Note_on_c, 0, 59, 95
2, 237120, Note_off_c, 0, 69, 95
2, 237120, Note_off_c, 0, 62, 95
2, 237120, Note_off_c, 0, 59, 95
2, 237120, Note_on_c, 0, 69, 95
2, 237120, Note_on_c, 0, 62, 95
2, 237120, Note_on_c, 0, 59, 95
2, 237360, Note_off_c, 0, 69, 95
2, 237360, Note_off_c, 0, 62, 95
2, 237360, Note_off_c, 0, 59, 95
2, 237360, Note_on_c, 0, 69, 95
2, 237360, Note_on_c, 0, 62, 95
2, 237360, Note_on_c, 0, 59, 95
2, 237600, Note_off_c, 0, 69, 95
2, 237600, Note_off_c, 0, 62, 95
2, 237600, Note_off_c, 0, 59, 95
2, 237600, Note_on_c, 0, 69, 95
2, 237600, Note_on_c, 0, 62, 95
2, 237600, Note_on_c, 0, 59, 95
2, 237600, Note_on_c, 0, 47, 95
2, 238080, Note_off_c, 0, 69, 95
2, 238080, Note_off_c, 0, 62, 95
2, 238080, Note_off_c, 0, 59, 95
2, 238080, Note_off_c, 0, 47, 95
2, 238080, Note_on_c, 0, 69, 95
2, 238080, Note_on_c, 0, 62, 95
2, 238080, Note_on_c, 0, 59, 95
2, 238320, Note_off_c, 0, 69, 95
2, 238320, Note_off_c, 0, 62, 95
2, 238320, Note_off_c, 0, 59, 95
2, 238320, Note_on_c, 0, 69, 95
2, 238320, Note_on_c, 0, 62, 95
2, 238320, Note_on_c, 0, 59, 95
2, 238560, Note_off_c, 0, 69, 95
2, 238560, Note_off_c, 0, 62, 95
2, 238560, Note_off_c, 0, 59, 95
2, 238560, Note_on_c, 0, 69, 95
2, 238560, Note_on_c, 0, 62, 95
2, 238560, Note_on_c, 0, 59, 95
2, 238800, Note_off_c, 0, 69, 95
2, 238800, Note_off_c, 0, 62, 95
2, 238800, Note_off_c, 0, 59, 95
2, 238800, Note_on_c, 0, 69, 95
2, 238800, Note_on_c, 0, 62, 95
2, 238800, Note_on_c, 0, 59, 95
2, 239040, Note_off_c, 0, 69, 95
2, 239040, Note_off_c, 0, 62, 95
2, 239040, Note_off_c, 0, 59, 95
2, 239040, Note_on_c, 0, 66, 95
2, 239040, Note_on_c, 0, 61, 95
2, 239040, Note_on_c, 0, 59, 95
2, 239040, Note_on_c, 0, 45, 95
2, 239520, Note_off_c, 0, 66, 95
2, 239520, Note_off_c, 0, 61, 95
2, 239520, Note_off_c, 0, 59, 95
2, 239520, Note_off_c, 0, 45, 95
2, 239520, Note_on_c, 0, 66, 95
2, 239520, Note_on_c, 0, 61, 95
2, 239520, Note_on_c, 0, 59, 95
2, 239760, Note_off_c, 0, 66, 95
2, 239760, Note_off_c, 0, 61, 95
2, 239760, Note_off_c, 0, 59, 95
2, 239760, Note_on_c, 0, 66, 95
2, 239760, Note_on_c, 0, 61, 95
2, 239760, Note_on_c, 0, 59, 95
2, 240000, Note_off_c, 0, 66, 95
2, 240000, Note_off_c, 0, 61, 95
2, 240000, Note_off_c, 0, 59, 95
2, 240000, Note_on_c, 0, 66, 95
2, 240000, Note_on_c, 0, 61, 95
2, 240000, Note_on_c, 0, 59, 95
2, 240240, Note_off_c, 0, 66, 95
2, 240240, Note_off_c, 0, 61, 95
2, 240240, Note_off_c, 0, 59, 95
2, 240240, Note_on_c, 0, 67, 95
2, 240240, Note_on_c, 0, 61, 95
2, 240240, Note_on_c, 0, 59, 95
2, 240480, Note_off_c, 0, 67, 95
2, 240480, Note_off_c, 0, 61, 95
2, 240480, Note_off_c, 0, 59, 95
2, 240480, Note_on_c, 0, 66, 95
2, 240480, Note_on_c, 0, 61, 95
2, 240480, Note_on_c, 0, 59, 95
2, 240480, Note_on_c, 0, 45, 95
2, 240960, Note_off_c, 0, 66, 95
2, 240960, Note_off_c, 0, 61, 95
2, 240960, Note_off_c, 0, 59, 95
2, 240960, Note_off_c, 0, 45, 95
2, 240960, Note_on_c, 0, 66, 95
2, 240960, Note_on_c, 0, 61, 95
2, 240960, Note_on_c, 0, 59, 95
2, 241200, Note_off_c, 0, 66, 95
2, 241200, Note_off_c, 0, 61, 95
2, 241200, Note_off_c, 0, 59, 95
2, 241200, Note_on_c, 0, 66, 95
2, 241200, Note_on_c, 0, 61, 95
2, 241200, Note_on_c, 0, 59, 95
2, 241440, Note_off_c, 0, 66, 95
2, 241440, Note_off_c, 0, 61, 95
2, 241440, Note_off_c, 0, 59, 95
2, 241440, Note_on_c, 0, 66, 95
2, 241440, Note_on_c, 0, 61, 95
2, 241440, Note_on_c, 0, 59, 95
2, 241680, Note_off_c, 0, 66, 95
2, 241680, Note_off_c, 0, 61, 95
2, 241680, Note_off_c, 0, 59, 95
2, 241680, Note_on_c, 0, 59, 95
2, 241680, Note_on_c, 0, 55, 95
2, 241680, Note_on_c, 0, 50, 95
2, 241920, Note_off_c, 0, 59, 95
2, 241920, Note_off_c, 0, 55, 95
2, 241920, Note_off_c, 0, 50, 95
2, 241920, Note_on_c, 0, 59, 95
2, 241920, Note_on_c, 0, 55, 95
2, 241920, Note_on_c, 0, 52, 95
2, 241920, Note_on_c, 0, 47, 95
2, 241920, Note_on_c, 0, 40, 95
2, 242400, Note_off_c, 0, 59, 95
2, 242400, Note_off_c, 0, 55, 95
2, 242400, Note_off_c, 0, 52, 95
2, 242400, Note_off_c, 0, 47, 95
2, 242400, Note_off_c, 0, 40, 95
2, 242400, Note_on_c, 0, 59, 95
2, 242400, Note_on_c, 0, 55, 95
2, 242400, Note_on_c, 0, 52, 95
2, 242400, Note_on_c, 0, 47, 95
2, 242640, Note_off_c, 0, 59, 95
2, 242640, Note_off_c, 0, 55, 95
2, 242640, Note_off_c, 0, 52, 95
2, 242640, Note_off_c, 0, 47, 95
2, 242640, Note_on_c, 0, 59, 95
2, 242640, Note_on_c, 0, 55, 95
2, 242640, Note_on_c, 0, 52, 95
2, 242640, Note_on_c, 0, 47, 95
2, 242880, Note_off_c, 0, 59, 95
2, 242880, Note_off_c, 0, 55, 95
2, 242880, Note_off_c, 0, 52, 95
2, 242880, Note_off_c, 0, 47, 95
2, 242880, Note_on_c, 0, 59, 95
2, 242880, Note_on_c, 0, 55, 95
2, 242880, Note_on_c, 0, 52, 95
2, 242880, Note_on_c, 0, 47, 95
2, 243120, Note_off_c, 0, 59, 95
2, 243120, Note_off_c, 0, 55, 95
2, 243120, Note_off_c, 0, 52, 95
2, 243120, Note_off_c, 0, 47, 95
2, 243120, Note_on_c, 0, 59, 95
2, 243120, Note_on_c, 0, 55, 95
2, 243120, Note_on_c, 0, 52, 95
2, 243120, Note_on_c, 0, 47, 95
2, 243360, Note_off_c, 0, 59, 95
2, 243360, Note_off_c, 0, 55, 95
2, 243360, Note_off_c, 0, 52, 95
2, 243360, Note_off_c, 0, 47, 95
2, 243360, Note_on_c, 0, 64, 95
2, 243360, Note_on_c, 0, 59, 95
2, 243360, Note_on_c, 0, 55, 95
2, 243360, Note_on_c, 0, 52, 95
2, 243360, Note_on_c, 0, 47, 95
2, 243360, Note_on_c, 0, 40, 95
2, 243840, Note_off_c, 0, 64, 95
2, 243840, Note_off_c, 0, 59, 95
2, 243840, Note_off_c, 0, 55, 95
2, 243840, Note_off_c, 0, 52, 95
2, 243840, Note_off_c, 0, 47, 95
2, 243840, Note_off_c, 0, 40, 95
2, 243840, Note_on_c, 0, 59, 95
2, 243840, Note_on_c, 0, 55, 95
2, 243840, Note_on_c, 0, 50, 95
2, 244080, Note_off_c, 0, 59, 95
2, 244080, Note_off_c, 0, 55, 95
2, 244080, Note_off_c, 0, 50, 95
2, 244080, Note_on_c, 0, 59, 95
2, 244080, Note_on_c, 0, 55, 95
2, 244080, Note_on_c, 0, 50, 95
2, 244320, Note_off_c, 0, 59, 95
2, 244320, Note_off_c, 0, 55, 95
2, 244320, Note_off_c, 0, 50, 95
2, 244320, Note_on_c, 0, 59, 95
2, 244320, Note_on_c, 0, 55, 95
2, 244320, Note_on_c, 0, 50, 95
2, 244560, Note_off_c, 0, 59, 95
2, 244560, Note_off_c, 0, 55, 95
2, 244560, Note_off_c, 0, 50, 95
2, 244560, Note_on_c, 0, 59, 95
2, 244560, Note_on_c, 0, 55, 95
2, 244560, Note_on_c, 0, 50, 95
2, 244800, Note_off_c, 0, 59, 95
2, 244800, Note_off_c, 0, 55, 95
2, 244800, Note_off_c, 0, 50, 95
2, 244800, Note_on_c, 0, 59, 95
2, 244800, Note_on_c, 0, 55, 95
2, 244800, Note_on_c, 0, 52, 95
2, 244800, Note_on_c, 0, 47, 95
2, 244800, Note_on_c, 0, 40, 95
2, 245280, Note_off_c, 0, 59, 95
2, 245280, Note_off_c, 0, 55, 95
2, 245280, Note_off_c, 0, 52, 95
2, 245280, Note_off_c, 0, 47, 95
2, 245280, Note_off_c, 0, 40, 95
2, 245280, Note_on_c, 0, 59, 95
2, 245280, Note_on_c, 0, 55, 95
2, 245280, Note_on_c, 0, 52, 95
2, 245280, Note_on_c, 0, 47, 95
2, 245520, Note_off_c, 0, 59, 95
2, 245520, Note_off_c, 0, 55, 95
2, 245520, Note_off_c, 0, 52, 95
2, 245520, Note_off_c, 0, 47, 95
2, 245520, Note_on_c, 0, 59, 95
2, 245520, Note_on_c, 0, 55, 95
2, 245520, Note_on_c, 0, 52, 95
2, 245520, Note_on_c, 0, 47, 95
2, 245760, Note_off_c, 0, 59, 95
2, 245760, Note_off_c, 0, 55, 95
2, 245760, Note_off_c, 0, 52, 95
2, 245760, Note_off_c, 0, 47, 95
2, 245760, Note_on_c, 0, 59, 95
2, 245760, Note_on_c, 0, 55, 95
2, 245760, Note_on_c, 0, 52, 95
2, 245760, Note_on_c, 0, 47, 95
2, 246000, Note_off_c, 0, 59, 95
2, 246000, Note_off_c, 0, 55, 95
2, 246000, Note_off_c, 0, 52, 95
2, 246000, Note_off_c, 0, 47, 95
2, 246000, Note_on_c, 0, 59, 95
2, 246000, Note_on_c, 0, 55, 95
2, 246000, Note_on_c, 0, 52, 95
2, 246000, Note_on_c, 0, 47, 95
2, 246240, Note_off_c, 0, 59, 95
2, 246240, Note_off_c, 0, 55, 95
2, 246240, Note_off_c, 0, 52, 95
2, 246240, Note_off_c, 0, 47, 95
2, 246240, Note_on_c, 0, 64, 95
2, 246240, Note_on_c, 0, 59, 95
2, 246240, Note_on_c, 0, 55, 95
2, 246240, Note_on_c, 0, 52, 95
2, 246240, Note_on_c, 0, 47, 95
2, 246240, Note_on_c, 0, 40, 95
2, 246720, Note_off_c, 0, 64, 95
2, 246720, Note_off_c, 0, 59, 95
2, 246720, Note_off_c, 0, 55, 95
2, 246720, Note_off_c, 0, 52, 95
2, 246720, Note_off_c, 0, 47, 95
2, 246720, Note_off_c, 0, 40, 95
2, 246720, Note_on_c, 0, 59, 95
2, 246720, Note_on_c, 0, 55, 95
2, 246720, Note_on_c, 0, 52, 95
2, 246720, Note_on_c, 0, 47, 95
2, 246960, Note_off_c, 0, 59, 95
2, 246960, Note_off_c, 0, 55, 95
2, 246960, Note_off_c, 0, 52, 95
2, 246960, Note_off_c, 0, 47, 95
2, 246960, Note_on_c, 0, 59, 95
2, 246960, Note_on_c, 0, 55, 95
2, 246960, Note_on_c, 0, 52, 95
2, 246960, Note_on_c, 0, 47, 95
2, 247200, Note_off_c, 0, 59, 95
2, 247200, Note_off_c, 0, 55, 95
2, 247200, Note_off_c, 0, 52, 95
2, 247200, Note_off_c, 0, 47, 95
2, 247200, Note_on_c, 0, 59, 95
2, 247200, Note_on_c, 0, 55, 95
2, 247200, Note_on_c, 0, 52, 95
2, 247200, Note_on_c, 0, 47, 95
2, 247440, Note_off_c, 0, 59, 95
2, 247440, Note_off_c, 0, 55, 95
2, 247440, Note_off_c, 0, 52, 95
2, 247440, Note_off_c, 0, 47, 95
2, 247440, Note_on_c, 0, 59, 95
2, 247440, Note_on_c, 0, 55, 95
2, 247440, Note_on_c, 0, 52, 95
2, 247440, Note_on_c, 0, 47, 95
2, 247680, Note_off_c, 0, 59, 95
2, 247680, Note_off_c, 0, 55, 95
2, 247680, Note_off_c, 0, 52, 95
2, 247680, Note_off_c, 0, 47, 95
2, 247680, Note_on_c, 0, 55, 95
2, 247680, Note_on_c, 0, 53, 95
2, 247680, Note_on_c, 0, 48, 95
2, 247680, Note_on_c, 0, 41, 95
2, 248160, Note_off_c, 0, 55, 95
2, 248160, Note_off_c, 0, 53, 95
2, 248160, Note_off_c, 0, 48, 95
2, 248160, Note_off_c, 0, 41, 95
2, 248160, Note_on_c, 0, 55, 95
2, 248160, Note_on_c, 0, 53, 95
2, 248160, Note_on_c, 0, 48, 95
2, 248160, Note_on_c, 0, 41, 95
2, 248400, Note_off_c, 0, 55, 95
2, 248400, Note_off_c, 0, 53, 95
2, 248400, Note_off_c, 0, 48, 95
2, 248400, Note_off_c, 0, 41, 95
2, 248400, Note_on_c, 0, 55, 95
2, 248400, Note_on_c, 0, 53, 95
2, 248400, Note_on_c, 0, 48, 95
2, 248400, Note_on_c, 0, 41, 95
2, 248640, Note_off_c, 0, 55, 95
2, 248640, Note_off_c, 0, 53, 95
2, 248640, Note_off_c, 0, 48, 95
2, 248640, Note_off_c, 0, 41, 95
2, 248640, Note_on_c, 0, 55, 95
2, 248640, Note_on_c, 0, 53, 95
2, 248640, Note_on_c, 0, 48, 95
2, 248640, Note_on_c, 0, 41, 95
2, 248880, Note_off_c, 0, 55, 95
2, 248880, Note_off_c, 0, 53, 95
2, 248880, Note_off_c, 0, 48, 95
2, 248880, Note_off_c, 0, 41, 95
2, 248880, Note_on_c, 0, 55, 95
2, 248880, Note_on_c, 0, 53, 95
2, 248880, Note_on_c, 0, 48, 95
2, 248880, Note_on_c, 0, 41, 95
2, 249120, Note_off_c, 0, 55, 95
2, 249120, Note_off_c, 0, 53, 95
2, 249120, Note_off_c, 0, 48, 95
2, 249120, Note_off_c, 0, 41, 95
2, 249120, Note_on_c, 0, 64, 95
2, 249120, Note_on_c, 0, 59, 95
2, 249120, Note_on_c, 0, 55, 95
2, 249120, Note_on_c, 0, 53, 95
2, 249120, Note_on_c, 0, 48, 95
2, 249120, Note_on_c, 0, 41, 95
2, 249600, Note_off_c, 0, 64, 95
2, 249600, Note_off_c, 0, 59, 95
2, 249600, Note_off_c, 0, 55, 95
2, 249600, Note_off_c, 0, 53, 95
2, 249600, Note_off_c, 0, 48, 95
2, 249600, Note_off_c, 0, 41, 95
2, 249600, Note_on_c, 0, 55, 95
2, 249600, Note_on_c, 0, 53, 95
2, 249600, Note_on_c, 0, 48, 95
2, 249600, Note_on_c, 0, 41, 95
2, 249840, Note_off_c, 0, 55, 95
2, 249840, Note_off_c, 0, 53, 95
2, 249840, Note_off_c, 0, 48, 95
2, 249840, Note_off_c, 0, 41, 95
2, 249840, Note_on_c, 0, 55, 95
2, 249840, Note_on_c, 0, 53, 95
2, 249840, Note_on_c, 0, 48, 95
2, 249840, Note_on_c, 0, 41, 95
2, 250080, Note_off_c, 0, 55, 95
2, 250080, Note_off_c, 0, 53, 95
2, 250080, Note_off_c, 0, 48, 95
2, 250080, Note_off_c, 0, 41, 95
2, 250080, Note_on_c, 0, 55, 95
2, 250080, Note_on_c, 0, 53, 95
2, 250080, Note_on_c, 0, 48, 95
2, 250080, Note_on_c, 0, 41, 95
2, 250320, Note_off_c, 0, 55, 95
2, 250320, Note_off_c, 0, 53, 95
2, 250320, Note_off_c, 0, 48, 95
2, 250320, Note_off_c, 0, 41, 95
2, 250320, Note_on_c, 0, 55, 95
2, 250320, Note_on_c, 0, 53, 95
2, 250320, Note_on_c, 0, 48, 95
2, 250320, Note_on_c, 0, 41, 95
2, 250560, Note_off_c, 0, 55, 95
2, 250560, Note_off_c, 0, 53, 95
2, 250560, Note_off_c, 0, 48, 95
2, 250560, Note_off_c, 0, 41, 95
2, 250560, Note_on_c, 0, 55, 95
2, 250560, Note_on_c, 0, 52, 95
2, 250560, Note_on_c, 0, 47, 95
2, 250560, Note_on_c, 0, 40, 95
2, 251040, Note_off_c, 0, 55, 95
2, 251040, Note_off_c, 0, 52, 95
2, 251040, Note_off_c, 0, 47, 95
2, 251040, Note_off_c, 0, 40, 95
2, 251040, Note_on_c, 0, 55, 95
2, 251040, Note_on_c, 0, 52, 95
2, 251040, Note_on_c, 0, 47, 95
2, 251040, Note_on_c, 0, 40, 95
2, 251280, Note_off_c, 0, 55, 95
2, 251280, Note_off_c, 0, 52, 95
2, 251280, Note_off_c, 0, 47, 95
2, 251280, Note_off_c, 0, 40, 95
2, 251280, Note_on_c, 0, 55, 95
2, 251280, Note_on_c, 0, 52, 95
2, 251280, Note_on_c, 0, 47, 95
2, 251280, Note_on_c, 0, 40, 95
2, 251520, Note_off_c, 0, 55, 95
2, 251520, Note_off_c, 0, 52, 95
2, 251520, Note_off_c, 0, 47, 95
2, 251520, Note_off_c, 0, 40, 95
2, 251520, Note_on_c, 0, 55, 95
2, 251520, Note_on_c, 0, 52, 95
2, 251520, Note_on_c, 0, 47, 95
2, 251520, Note_on_c, 0, 40, 95
2, 251760, Note_off_c, 0, 55, 95
2, 251760, Note_off_c, 0, 52, 95
2, 251760, Note_off_c, 0, 47, 95
2, 251760, Note_off_c, 0, 40, 95
2, 251760, Note_on_c, 0, 55, 95
2, 251760, Note_on_c, 0, 52, 95
2, 251760, Note_on_c, 0, 47, 95
2, 251760, Note_on_c, 0, 40, 95
2, 252000, Note_off_c, 0, 55, 95
2, 252000, Note_off_c, 0, 52, 95
2, 252000, Note_off_c, 0, 47, 95
2, 252000, Note_off_c, 0, 40, 95
2, 252000, Note_on_c, 0, 64, 95
2, 252000, Note_on_c, 0, 59, 95
2, 252000, Note_on_c, 0, 55, 95
2, 252000, Note_on_c, 0, 52, 95
2, 252000, Note_on_c, 0, 47, 95
2, 252000, Note_on_c, 0, 40, 95
2, 252480, Note_off_c, 0, 64, 95
2, 252480, Note_off_c, 0, 59, 95
2, 252480, Note_off_c, 0, 55, 95
2, 252480, Note_off_c, 0, 52, 95
2, 252480, Note_off_c, 0, 47, 95
2, 252480, Note_off_c, 0, 40, 95
2, 252480, Note_on_c, 0, 55, 95
2, 252480, Note_on_c, 0, 52, 95
2, 252480, Note_on_c, 0, 47, 95
2, 252480, Note_on_c, 0, 40, 95
2, 252720, Note_off_c, 0, 55, 95
2, 252720, Note_off_c, 0, 52, 95
2, 252720, Note_off_c, 0, 47, 95
2, 252720, Note_off_c, 0, 40, 95
2, 252720, Note_on_c, 0, 55, 95
2, 252720, Note_on_c, 0, 52, 95
2, 252720, Note_on_c, 0, 47, 95
2, 252720, Note_on_c, 0, 40, 95
2, 252960, Note_off_c, 0, 55, 95
2, 252960, Note_off_c, 0, 52, 95
2, 252960, Note_off_c, 0, 47, 95
2, 252960, Note_off_c, 0, 40, 95
2, 252960, Note_on_c, 0, 55, 95
2, 252960, Note_on_c, 0, 52, 95
2, 252960, Note_on_c, 0, 47, 95
2, 252960, Note_on_c, 0, 40, 95
2, 253200, Note_off_c, 0, 55, 95
2, 253200, Note_off_c, 0, 52, 95
2, 253200, Note_off_c, 0, 47, 95
2, 253200, Note_off_c, 0, 40, 95
2, 253200, Note_on_c, 0, 55, 95
2, 253200, Note_on_c, 0, 52, 95
2, 253200, Note_on_c, 0, 47, 95
2, 253200, Note_on_c, 0, 40, 95
2, 253440, Note_off_c, 0, 55, 95
2, 253440, Note_off_c, 0, 52, 95
2, 253440, Note_off_c, 0, 47, 95
2, 253440, Note_off_c, 0, 40, 95
2, 253440, Note_on_c, 0, 55, 95
2, 253440, Note_on_c, 0, 51, 95
2, 253440, Note_on_c, 0, 46, 95
2, 253440, Note_on_c, 0, 39, 95
2, 253920, Note_off_c, 0, 55, 95
2, 253920, Note_off_c, 0, 51, 95
2, 253920, Note_off_c, 0, 46, 95
2, 253920, Note_off_c, 0, 39, 95
2, 253920, Note_on_c, 0, 55, 95
2, 253920, Note_on_c, 0, 51, 95
2, 253920, Note_on_c, 0, 46, 95
2, 253920, Note_on_c, 0, 39, 95
2, 254160, Note_off_c, 0, 55, 95
2, 254160, Note_off_c, 0, 51, 95
2, 254160, Note_off_c, 0, 46, 95
2, 254160, Note_off_c, 0, 39, 95
2, 254160, Note_on_c, 0, 55, 95
2, 254160, Note_on_c, 0, 51, 95
2, 254160, Note_on_c, 0, 46, 95
2, 254160, Note_on_c, 0, 39, 95
2, 254400, Note_off_c, 0, 55, 95
2, 254400, Note_off_c, 0, 51, 95
2, 254400, Note_off_c, 0, 46, 95
2, 254400, Note_off_c, 0, 39, 95
2, 254400, Note_on_c, 0, 55, 95
2, 254400, Note_on_c, 0, 51, 95
2, 254400, Note_on_c, 0, 46, 95
2, 254400, Note_on_c, 0, 39, 95
2, 254640, Note_off_c, 0, 55, 95
2, 254640, Note_off_c, 0, 51, 95
2, 254640, Note_off_c, 0, 46, 95
2, 254640, Note_off_c, 0, 39, 95
2, 254640, Note_on_c, 0, 55, 95
2, 254640, Note_on_c, 0, 51, 95
2, 254640, Note_on_c, 0, 46, 95
2, 254640, Note_on_c, 0, 39, 95
2, 254880, Note_off_c, 0, 55, 95
2, 254880, Note_off_c, 0, 51, 95
2, 254880, Note_off_c, 0, 46, 95
2, 254880, Note_off_c, 0, 39, 95
2, 254880, Note_on_c, 0, 64, 95
2, 254880, Note_on_c, 0, 59, 95
2, 254880, Note_on_c, 0, 55, 95
2, 254880, Note_on_c, 0, 51, 95
2, 254880, Note_on_c, 0, 46, 95
2, 254880, Note_on_c, 0, 39, 95
2, 255360, Note_off_c, 0, 64, 95
2, 255360, Note_off_c, 0, 59, 95
2, 255360, Note_off_c, 0, 55, 95
2, 255360, Note_off_c, 0, 51, 95
2, 255360, Note_off_c, 0, 46, 95
2, 255360, Note_off_c, 0, 39, 95
2, 255360, Note_on_c, 0, 55, 95
2, 255360, Note_on_c, 0, 51, 95
2, 255360, Note_on_c, 0, 46, 95
2, 255360, Note_on_c, 0, 39, 95
2, 255600, Note_off_c, 0, 55, 95
2, 255600, Note_off_c, 0, 51, 95
2, 255600, Note_off_c, 0, 46, 95
2, 255600, Note_off_c, 0, 39, 95
2, 255600, Note_on_c, 0, 55, 95
2, 255600, Note_on_c, 0, 51, 95
2, 255600, Note_on_c, 0, 46, 95
2, 255600, Note_on_c, 0, 39, 95
2, 255840, Note_off_c, 0, 55, 95
2, 255840, Note_off_c, 0, 51, 95
2, 255840, Note_off_c, 0, 46, 95
2, 255840, Note_off_c, 0, 39, 95
2, 255840, Note_on_c, 0, 55, 95
2, 255840, Note_on_c, 0, 51, 95
2, 255840, Note_on_c, 0, 46, 95
2, 255840, Note_on_c, 0, 39, 95
2, 256080, Note_off_c, 0, 55, 95
2, 256080, Note_off_c, 0, 51, 95
2, 256080, Note_off_c, 0, 46, 95
2, 256080, Note_off_c, 0, 39, 95
2, 256080, Note_on_c, 0, 55, 95
2, 256080, Note_on_c, 0, 51, 95
2, 256080, Note_on_c, 0, 46, 95
2, 256080, Note_on_c, 0, 39, 95
2, 256320, Note_off_c, 0, 55, 95
2, 256320, Note_off_c, 0, 51, 95
2, 256320, Note_off_c, 0, 46, 95
2, 256320, Note_off_c, 0, 39, 95
2, 256320, Note_on_c, 0, 55, 95
2, 256320, Note_on_c, 0, 51, 95
2, 256320, Note_on_c, 0, 46, 95
2, 256320, Note_on_c, 0, 39, 95
2, 256800, Note_off_c, 0, 55, 95
2, 256800, Note_off_c, 0, 51, 95
2, 256800, Note_off_c, 0, 46, 95
2, 256800, Note_off_c, 0, 39, 95
2, 256800, Note_on_c, 0, 55, 95
2, 256800, Note_on_c, 0, 51, 95
2, 256800, Note_on_c, 0, 46, 95
2, 256800, Note_on_c, 0, 39, 95
2, 257040, Note_off_c, 0, 55, 95
2, 257040, Note_off_c, 0, 51, 95
2, 257040, Note_off_c, 0, 46, 95
2, 257040, Note_off_c, 0, 39, 95
2, 257040, Note_on_c, 0, 55, 95
2, 257040, Note_on_c, 0, 51, 95
2, 257040, Note_on_c, 0, 46, 95
2, 257040, Note_on_c, 0, 39, 95
2, 257280, Note_off_c, 0, 55, 95
2, 257280, Note_off_c, 0, 51, 95
2, 257280, Note_off_c, 0, 46, 95
2, 257280, Note_off_c, 0, 39, 95
2, 257280, Note_on_c, 0, 55, 95
2, 257280, Note_on_c, 0, 51, 95
2, 257280, Note_on_c, 0, 46, 95
2, 257280, Note_on_c, 0, 39, 95
2, 257520, Note_off_c, 0, 55, 95
2, 257520, Note_off_c, 0, 51, 95
2, 257520, Note_off_c, 0, 46, 95
2, 257520, Note_off_c, 0, 39, 95
2, 257520, Note_on_c, 0, 55, 95
2, 257520, Note_on_c, 0, 51, 95
2, 257520, Note_on_c, 0, 46, 95
2, 257520, Note_on_c, 0, 39, 95
2, 257760, Note_off_c, 0, 55, 95
2, 257760, Note_off_c, 0, 51, 95
2, 257760, Note_off_c, 0, 46, 95
2, 257760, Note_off_c, 0, 39, 95
2, 257760, Note_on_c, 0, 64, 95
2, 257760, Note_on_c, 0, 59, 95
2, 257760, Note_on_c, 0, 55, 95
2, 257760, Note_on_c, 0, 51, 95
2, 257760, Note_on_c, 0, 46, 95
2, 257760, Note_on_c, 0, 39, 95
2, 258240, Note_off_c, 0, 64, 95
2, 258240, Note_off_c, 0, 59, 95
2, 258240, Note_off_c, 0, 55, 95
2, 258240, Note_off_c, 0, 51, 95
2, 258240, Note_off_c, 0, 46, 95
2, 258240, Note_off_c, 0, 39, 95
2, 258240, Note_on_c, 0, 55, 95
2, 258240, Note_on_c, 0, 51, 95
2, 258240, Note_on_c, 0, 46, 95
2, 258240, Note_on_c, 0, 39, 95
2, 258480, Note_off_c, 0, 55, 95
2, 258480, Note_off_c, 0, 51, 95
2, 258480, Note_off_c, 0, 46, 95
2, 258480, Note_off_c, 0, 39, 95
2, 258480, Note_on_c, 0, 55, 95
2, 258480, Note_on_c, 0, 51, 95
2, 258480, Note_on_c, 0, 46, 95
2, 258480, Note_on_c, 0, 39, 95
2, 258720, Note_off_c, 0, 55, 95
2, 258720, Note_off_c, 0, 51, 95
2, 258720, Note_off_c, 0, 46, 95
2, 258720, Note_off_c, 0, 39, 95
2, 258720, Note_on_c, 0, 55, 95
2, 258720, Note_on_c, 0, 51, 95
2, 258720, Note_on_c, 0, 46, 95
2, 258720, Note_on_c, 0, 39, 95
2, 258960, Note_off_c, 0, 55, 95
2, 258960, Note_off_c, 0, 51, 95
2, 258960, Note_off_c, 0, 46, 95
2, 258960, Note_off_c, 0, 39, 95
2, 258960, Note_on_c, 0, 55, 95
2, 258960, Note_on_c, 0, 51, 95
2, 258960, Note_on_c, 0, 46, 95
2, 258960, Note_on_c, 0, 39, 95
2, 259200, Note_off_c, 0, 55, 95
2, 259200, Note_off_c, 0, 51, 95
2, 259200, Note_off_c, 0, 46, 95
2, 259200, Note_off_c, 0, 39, 95
2, 259200, Note_on_c, 0, 55, 95
2, 259200, Note_on_c, 0, 53, 95
2, 259200, Note_on_c, 0, 48, 95
2, 259200, Note_on_c, 0, 41, 95
2, 259680, Note_off_c, 0, 55, 95
2, 259680, Note_off_c, 0, 53, 95
2, 259680, Note_off_c, 0, 48, 95
2, 259680, Note_off_c, 0, 41, 95
2, 259680, Note_on_c, 0, 55, 95
2, 259680, Note_on_c, 0, 53, 95
2, 259680, Note_on_c, 0, 48, 95
2, 259680, Note_on_c, 0, 41, 95
2, 259920, Note_off_c, 0, 55, 95
2, 259920, Note_off_c, 0, 53, 95
2, 259920, Note_off_c, 0, 48, 95
2, 259920, Note_off_c, 0, 41, 95
2, 259920, Note_on_c, 0, 55, 95
2, 259920, Note_on_c, 0, 53, 95
2, 259920, Note_on_c, 0, 48, 95
2, 259920, Note_on_c, 0, 41, 95
2, 260160, Note_off_c, 0, 55, 95
2, 260160, Note_off_c, 0, 53, 95
2, 260160, Note_off_c, 0, 48, 95
2, 260160, Note_off_c, 0, 41, 95
2, 260160, Note_on_c, 0, 55, 95
2, 260160, Note_on_c, 0, 53, 95
2, 260160, Note_on_c, 0, 48, 95
2, 260160, Note_on_c, 0, 41, 95
2, 260400, Note_off_c, 0, 55, 95
2, 260400, Note_off_c, 0, 53, 95
2, 260400, Note_off_c, 0, 48, 95
2, 260400, Note_off_c, 0, 41, 95
2, 260400, Note_on_c, 0, 55, 95
2, 260400, Note_on_c, 0, 53, 95
2, 260400, Note_on_c, 0, 48, 95
2, 260400, Note_on_c, 0, 41, 95
2, 260640, Note_off_c, 0, 55, 95
2, 260640, Note_off_c, 0, 53, 95
2, 260640, Note_off_c, 0, 48, 95
2, 260640, Note_off_c, 0, 41, 95
2, 260640, Note_on_c, 0, 64, 95
2, 260640, Note_on_c, 0, 59, 95
2, 260640, Note_on_c, 0, 55, 95
2, 260640, Note_on_c, 0, 53, 95
2, 260640, Note_on_c, 0, 48, 95
2, 260640, Note_on_c, 0, 41, 95
2, 261120, Note_off_c, 0, 64, 95
2, 261120, Note_off_c, 0, 59, 95
2, 261120, Note_off_c, 0, 55, 95
2, 261120, Note_off_c, 0, 53, 95
2, 261120, Note_off_c, 0, 48, 95
2, 261120, Note_off_c, 0, 41, 95
2, 261120, Note_on_c, 0, 55, 95
2, 261120, Note_on_c, 0, 53, 95
2, 261120, Note_on_c, 0, 48, 95
2, 261120, Note_on_c, 0, 41, 95
2, 261360, Note_off_c, 0, 55, 95
2, 261360, Note_off_c, 0, 53, 95
2, 261360, Note_off_c, 0, 48, 95
2, 261360, Note_off_c, 0, 41, 95
2, 261360, Note_on_c, 0, 55, 95
2, 261360, Note_on_c, 0, 53, 95
2, 261360, Note_on_c, 0, 48, 95
2, 261360, Note_on_c, 0, 41, 95
2, 261600, Note_off_c, 0, 55, 95
2, 261600, Note_off_c, 0, 53, 95
2, 261600, Note_off_c, 0, 48, 95
2, 261600, Note_off_c, 0, 41, 95
2, 261600, Note_on_c, 0, 55, 95
2, 261600, Note_on_c, 0, 53, 95
2, 261600, Note_on_c, 0, 48, 95
2, 261600, Note_on_c, 0, 41, 95
2, 261840, Note_off_c, 0, 55, 95
2, 261840, Note_off_c, 0, 53, 95
2, 261840, Note_off_c, 0, 48, 95
2, 261840, Note_off_c, 0, 41, 95
2, 261840, Note_on_c, 0, 55, 95
2, 261840, Note_on_c, 0, 53, 95
2, 261840, Note_on_c, 0, 48, 95
2, 261840, Note_on_c, 0, 41, 95
2, 262080, Note_off_c, 0, 55, 95
2, 262080, Note_off_c, 0, 53, 95
2, 262080, Note_off_c, 0, 48, 95
2, 262080, Note_off_c, 0, 41, 95
2, 262080, Note_on_c, 0, 55, 95
2, 262080, Note_on_c, 0, 52, 95
2, 262080, Note_on_c, 0, 47, 95
2, 262080, Note_on_c, 0, 40, 95
2, 262560, Note_off_c, 0, 55, 95
2, 262560, Note_off_c, 0, 52, 95
2, 262560, Note_off_c, 0, 47, 95
2, 262560, Note_off_c, 0, 40, 95
2, 262560, Note_on_c, 0, 55, 95
2, 262560, Note_on_c, 0, 52, 95
2, 262560, Note_on_c, 0, 47, 95
2, 262560, Note_on_c, 0, 40, 95
2, 262800, Note_off_c, 0, 55, 95
2, 262800, Note_off_c, 0, 52, 95
2, 262800, Note_off_c, 0, 47, 95
2, 262800, Note_off_c, 0, 40, 95
2, 262800, Note_on_c, 0, 55, 95
2, 262800, Note_on_c, 0, 52, 95
2, 262800, Note_on_c, 0, 47, 95
2, 262800, Note_on_c, 0, 40, 95
2, 263040, Note_off_c, 0, 55, 95
2, 263040, Note_off_c, 0, 52, 95
2, 263040, Note_off_c, 0, 47, 95
2, 263040, Note_off_c, 0, 40, 95
2, 263040, Note_on_c, 0, 55, 95
2, 263040, Note_on_c, 0, 52, 95
2, 263040, Note_on_c, 0, 47, 95
2, 263040, Note_on_c, 0, 40, 95
2, 263280, Note_off_c, 0, 55, 95
2, 263280, Note_off_c, 0, 52, 95
2, 263280, Note_off_c, 0, 47, 95
2, 263280, Note_off_c, 0, 40, 95
2, 263280, Note_on_c, 0, 55, 95
2, 263280, Note_on_c, 0, 52, 95
2, 263280, Note_on_c, 0, 47, 95
2, 263280, Note_on_c, 0, 40, 95
2, 263520, Note_off_c, 0, 55, 95
2, 263520, Note_off_c, 0, 52, 95
2, 263520, Note_off_c, 0, 47, 95
2, 263520, Note_off_c, 0, 40, 95
2, 263520, Note_on_c, 0, 64, 95
2, 263520, Note_on_c, 0, 59, 95
2, 263520, Note_on_c, 0, 55, 95
2, 263520, Note_on_c, 0, 52, 95
2, 263520, Note_on_c, 0, 47, 95
2, 263520, Note_on_c, 0, 40, 95
2, 264000, Note_off_c, 0, 64, 95
2, 264000, Note_off_c, 0, 59, 95
2, 264000, Note_off_c, 0, 55, 95
2, 264000, Note_off_c, 0, 52, 95
2, 264000, Note_off_c, 0, 47, 95
2, 264000, Note_off_c, 0, 40, 95
2, 264000, Note_on_c, 0, 55, 95
2, 264000, Note_on_c, 0, 52, 95
2, 264000, Note_on_c, 0, 47, 95
2, 264000, Note_on_c, 0, 40, 95
2, 264240, Note_off_c, 0, 55, 95
2, 264240, Note_off_c, 0, 52, 95
2, 264240, Note_off_c, 0, 47, 95
2, 264240, Note_off_c, 0, 40, 95
2, 264240, Note_on_c, 0, 55, 95
2, 264240, Note_on_c, 0, 52, 95
2, 264240, Note_on_c, 0, 47, 95
2, 264240, Note_on_c, 0, 40, 95
2, 264480, Note_off_c, 0, 55, 95
2, 264480, Note_off_c, 0, 52, 95
2, 264480, Note_off_c, 0, 47, 95
2, 264480, Note_off_c, 0, 40, 95
2, 264480, Note_on_c, 0, 55, 95
2, 264480, Note_on_c, 0, 52, 95
2, 264480, Note_on_c, 0, 47, 95
2, 264480, Note_on_c, 0, 40, 95
2, 264720, Note_off_c, 0, 55, 95
2, 264720, Note_off_c, 0, 52, 95
2, 264720, Note_off_c, 0, 47, 95
2, 264720, Note_off_c, 0, 40, 95
2, 264720, Note_on_c, 0, 55, 95
2, 264720, Note_on_c, 0, 52, 95
2, 264720, Note_on_c, 0, 47, 95
2, 264720, Note_on_c, 0, 40, 95
2, 264960, Note_off_c, 0, 55, 95
2, 264960, Note_off_c, 0, 52, 95
2, 264960, Note_off_c, 0, 47, 95
2, 264960, Note_off_c, 0, 40, 95
2, 264960, Note_on_c, 0, 55, 95
2, 264960, Note_on_c, 0, 51, 95
2, 264960, Note_on_c, 0, 46, 95
2, 264960, Note_on_c, 0, 39, 95
2, 265440, Note_off_c, 0, 55, 95
2, 265440, Note_off_c, 0, 51, 95
2, 265440, Note_off_c, 0, 46, 95
2, 265440, Note_off_c, 0, 39, 95
2, 265440, Note_on_c, 0, 55, 95
2, 265440, Note_on_c, 0, 51, 95
2, 265440, Note_on_c, 0, 46, 95
2, 265680, Note_off_c, 0, 55, 95
2, 265680, Note_off_c, 0, 51, 95
2, 265680, Note_off_c, 0, 46, 95
2, 265680, Note_on_c, 0, 55, 95
2, 265680, Note_on_c, 0, 51, 95
2, 265680, Note_on_c, 0, 46, 95
2, 265920, Note_off_c, 0, 55, 95
2, 265920, Note_off_c, 0, 51, 95
2, 265920, Note_off_c, 0, 46, 95
2, 265920, Note_on_c, 0, 55, 95
2, 265920, Note_on_c, 0, 51, 95
2, 265920, Note_on_c, 0, 46, 95
2, 266160, Note_off_c, 0, 55, 95
2, 266160, Note_off_c, 0, 51, 95
2, 266160, Note_off_c, 0, 46, 95
2, 266160, Note_on_c, 0, 55, 95
2, 266160, Note_on_c, 0, 51, 95
2, 266160, Note_on_c, 0, 46, 95
2, 266400, Note_off_c, 0, 55, 95
2, 266400, Note_off_c, 0, 51, 95
2, 266400, Note_off_c, 0, 46, 95
2, 266400, Note_on_c, 0, 64, 95
2, 266400, Note_on_c, 0, 59, 95
2, 266400, Note_on_c, 0, 55, 95
2, 266400, Note_on_c, 0, 51, 95
2, 266400, Note_on_c, 0, 46, 95
2, 266400, Note_on_c, 0, 39, 95
2, 266880, Note_off_c, 0, 64, 95
2, 266880, Note_off_c, 0, 59, 95
2, 266880, Note_off_c, 0, 55, 95
2, 266880, Note_off_c, 0, 51, 95
2, 266880, Note_off_c, 0, 46, 95
2, 266880, Note_off_c, 0, 39, 95
2, 266880, Note_on_c, 0, 55, 95
2, 266880, Note_on_c, 0, 51, 95
2, 266880, Note_on_c, 0, 46, 95
2, 266880, Note_on_c, 0, 39, 95
2, 267120, Note_off_c, 0, 55, 95
2, 267120, Note_off_c, 0, 51, 95
2, 267120, Note_off_c, 0, 46, 95
2, 267120, Note_off_c, 0, 39, 95
2, 267120, Note_on_c, 0, 55, 95
2, 267120, Note_on_c, 0, 51, 95
2, 267120, Note_on_c, 0, 46, 95
2, 267120, Note_on_c, 0, 39, 95
2, 267360, Note_off_c, 0, 55, 95
2, 267360, Note_off_c, 0, 51, 95
2, 267360, Note_off_c, 0, 46, 95
2, 267360, Note_off_c, 0, 39, 95
2, 267360, Note_on_c, 0, 55, 95
2, 267360, Note_on_c, 0, 51, 95
2, 267360, Note_on_c, 0, 46, 95
2, 267360, Note_on_c, 0, 39, 95
2, 267600, Note_off_c, 0, 55, 95
2, 267600, Note_off_c, 0, 51, 95
2, 267600, Note_off_c, 0, 46, 95
2, 267600, Note_off_c, 0, 39, 95
2, 267600, Note_on_c, 0, 55, 95
2, 267600, Note_on_c, 0, 51, 95
2, 267600, Note_on_c, 0, 46, 95
2, 267600, Note_on_c, 0, 39, 95
2, 267840, Note_off_c, 0, 55, 95
2, 267840, Note_off_c, 0, 51, 95
2, 267840, Note_off_c, 0, 46, 95
2, 267840, Note_off_c, 0, 39, 95
2, 267840, Note_on_c, 0, 55, 95
2, 267840, Note_on_c, 0, 51, 95
2, 267840, Note_on_c, 0, 46, 95
2, 267840, Note_on_c, 0, 39, 95
2, 268320, Note_off_c, 0, 55, 95
2, 268320, Note_off_c, 0, 51, 95
2, 268320, Note_off_c, 0, 46, 95
2, 268320, Note_off_c, 0, 39, 95
2, 268320, Note_on_c, 0, 55, 95
2, 268320, Note_on_c, 0, 51, 95
2, 268320, Note_on_c, 0, 46, 95
2, 268320, Note_on_c, 0, 39, 95
2, 268560, Note_off_c, 0, 55, 95
2, 268560, Note_off_c, 0, 51, 95
2, 268560, Note_off_c, 0, 46, 95
2, 268560, Note_off_c, 0, 39, 95
2, 268560, Note_on_c, 0, 55, 95
2, 268560, Note_on_c, 0, 51, 95
2, 268560, Note_on_c, 0, 46, 95
2, 268560, Note_on_c, 0, 39, 95
2, 268800, Note_off_c, 0, 55, 95
2, 268800, Note_off_c, 0, 51, 95
2, 268800, Note_off_c, 0, 46, 95
2, 268800, Note_off_c, 0, 39, 95
2, 268800, Note_on_c, 0, 55, 95
2, 268800, Note_on_c, 0, 51, 95
2, 268800, Note_on_c, 0, 46, 95
2, 268800, Note_on_c, 0, 39, 95
2, 269040, Note_off_c, 0, 55, 95
2, 269040, Note_off_c, 0, 51, 95
2, 269040, Note_off_c, 0, 46, 95
2, 269040, Note_off_c, 0, 39, 95
2, 269040, Note_on_c, 0, 55, 95
2, 269040, Note_on_c, 0, 51, 95
2, 269040, Note_on_c, 0, 46, 95
2, 269040, Note_on_c, 0, 39, 95
2, 269280, Note_off_c, 0, 55, 95
2, 269280, Note_off_c, 0, 51, 95
2, 269280, Note_off_c, 0, 46, 95
2, 269280, Note_off_c, 0, 39, 95
2, 269280, Note_on_c, 0, 64, 95
2, 269280, Note_on_c, 0, 59, 95
2, 269280, Note_on_c, 0, 55, 95
2, 269280, Note_on_c, 0, 51, 95
2, 269280, Note_on_c, 0, 46, 95
2, 269280, Note_on_c, 0, 39, 95
2, 269760, Note_off_c, 0, 64, 95
2, 269760, Note_off_c, 0, 59, 95
2, 269760, Note_off_c, 0, 55, 95
2, 269760, Note_off_c, 0, 51, 95
2, 269760, Note_off_c, 0, 46, 95
2, 269760, Note_off_c, 0, 39, 95
2, 269760, Note_on_c, 0, 55, 95
2, 269760, Note_on_c, 0, 51, 95
2, 269760, Note_on_c, 0, 46, 95
2, 269760, Note_on_c, 0, 39, 95
2, 270000, Note_off_c, 0, 55, 95
2, 270000, Note_off_c, 0, 51, 95
2, 270000, Note_off_c, 0, 46, 95
2, 270000, Note_off_c, 0, 39, 95
2, 270000, Note_on_c, 0, 55, 95
2, 270000, Note_on_c, 0, 51, 95
2, 270000, Note_on_c, 0, 46, 95
2, 270000, Note_on_c, 0, 39, 95
2, 270240, Note_off_c, 0, 55, 95
2, 270240, Note_off_c, 0, 51, 95
2, 270240, Note_off_c, 0, 46, 95
2, 270240, Note_off_c, 0, 39, 95
2, 270240, Note_on_c, 0, 55, 95
2, 270240, Note_on_c, 0, 51, 95
2, 270240, Note_on_c, 0, 46, 95
2, 270240, Note_on_c, 0, 39, 95
2, 270480, Note_off_c, 0, 55, 95
2, 270480, Note_off_c, 0, 51, 95
2, 270480, Note_off_c, 0, 46, 95
2, 270480, Note_off_c, 0, 39, 95
2, 270480, Note_on_c, 0, 55, 95
2, 270480, Note_on_c, 0, 51, 95
2, 270480, Note_on_c, 0, 46, 95
2, 270480, Note_on_c, 0, 39, 95
2, 270720, Note_off_c, 0, 55, 95
2, 270720, Note_off_c, 0, 51, 95
2, 270720, Note_off_c, 0, 46, 95
2, 270720, Note_off_c, 0, 39, 95
2, 270720, Note_on_c, 0, 55, 95
2, 270720, Note_on_c, 0, 52, 95
2, 270720, Note_on_c, 0, 47, 95
2, 270720, Note_on_c, 0, 40, 95
2, 271200, Note_off_c, 0, 55, 95
2, 271200, Note_off_c, 0, 52, 95
2, 271200, Note_off_c, 0, 47, 95
2, 271200, Note_off_c, 0, 40, 95
2, 271200, Note_on_c, 0, 55, 95
2, 271200, Note_on_c, 0, 52, 95
2, 271200, Note_on_c, 0, 47, 95
2, 271200, Note_on_c, 0, 40, 95
2, 271440, Note_off_c, 0, 55, 95
2, 271440, Note_off_c, 0, 52, 95
2, 271440, Note_off_c, 0, 47, 95
2, 271440, Note_off_c, 0, 40, 95
2, 271440, Note_on_c, 0, 55, 95
2, 271440, Note_on_c, 0, 52, 95
2, 271440, Note_on_c, 0, 47, 95
2, 271440, Note_on_c, 0, 40, 95
2, 271680, Note_off_c, 0, 55, 95
2, 271680, Note_off_c, 0, 52, 95
2, 271680, Note_off_c, 0, 47, 95
2, 271680, Note_off_c, 0, 40, 95
2, 271680, Note_on_c, 0, 55, 95
2, 271680, Note_on_c, 0, 52, 95
2, 271680, Note_on_c, 0, 47, 95
2, 271680, Note_on_c, 0, 40, 95
2, 271920, Note_off_c, 0, 55, 95
2, 271920, Note_off_c, 0, 52, 95
2, 271920, Note_off_c, 0, 47, 95
2, 271920, Note_off_c, 0, 40, 95
2, 271920, Note_on_c, 0, 55, 95
2, 271920, Note_on_c, 0, 52, 95
2, 271920, Note_on_c, 0, 47, 95
2, 271920, Note_on_c, 0, 40, 95
2, 272160, Note_off_c, 0, 55, 95
2, 272160, Note_off_c, 0, 52, 95
2, 272160, Note_off_c, 0, 47, 95
2, 272160, Note_off_c, 0, 40, 95
2, 272160, Note_on_c, 0, 64, 95
2, 272160, Note_on_c, 0, 59, 95
2, 272160, Note_on_c, 0, 55, 95
2, 272160, Note_on_c, 0, 52, 95
2, 272160, Note_on_c, 0, 47, 95
2, 272160, Note_on_c, 0, 40, 95
2, 272640, Note_off_c, 0, 64, 95
2, 272640, Note_off_c, 0, 59, 95
2, 272640, Note_off_c, 0, 55, 95
2, 272640, Note_off_c, 0, 52, 95
2, 272640, Note_off_c, 0, 47, 95
2, 272640, Note_off_c, 0, 40, 95
2, 272640, Note_on_c, 0, 55, 95
2, 272640, Note_on_c, 0, 52, 95
2, 272640, Note_on_c, 0, 47, 95
2, 272640, Note_on_c, 0, 40, 95
2, 272880, Note_off_c, 0, 55, 95
2, 272880, Note_off_c, 0, 52, 95
2, 272880, Note_off_c, 0, 47, 95
2, 272880, Note_off_c, 0, 40, 95
2, 272880, Note_on_c, 0, 55, 95
2, 272880, Note_on_c, 0, 52, 95
2, 272880, Note_on_c, 0, 47, 95
2, 272880, Note_on_c, 0, 40, 95
2, 273120, Note_off_c, 0, 55, 95
2, 273120, Note_off_c, 0, 52, 95
2, 273120, Note_off_c, 0, 47, 95
2, 273120, Note_off_c, 0, 40, 95
2, 273120, Note_on_c, 0, 55, 95
2, 273120, Note_on_c, 0, 52, 95
2, 273120, Note_on_c, 0, 47, 95
2, 273120, Note_on_c, 0, 40, 95
2, 273360, Note_off_c, 0, 55, 95
2, 273360, Note_off_c, 0, 52, 95
2, 273360, Note_off_c, 0, 47, 95
2, 273360, Note_off_c, 0, 40, 95
2, 273360, Note_on_c, 0, 55, 95
2, 273360, Note_on_c, 0, 52, 95
2, 273360, Note_on_c, 0, 47, 95
2, 273360, Note_on_c, 0, 40, 95
2, 273600, Note_off_c, 0, 55, 95
2, 273600, Note_off_c, 0, 52, 95
2, 273600, Note_off_c, 0, 47, 95
2, 273600, Note_off_c, 0, 40, 95
2, 273600, Note_on_c, 0, 55, 95
2, 273600, Note_on_c, 0, 52, 95
2, 273600, Note_on_c, 0, 47, 95
2, 273600, Note_on_c, 0, 40, 95
2, 274080, Note_off_c, 0, 55, 95
2, 274080, Note_off_c, 0, 52, 95
2, 274080, Note_off_c, 0, 47, 95
2, 274080, Note_off_c, 0, 40, 95
2, 274080, Note_on_c, 0, 55, 95
2, 274080, Note_on_c, 0, 52, 95
2, 274080, Note_on_c, 0, 47, 95
2, 274080, Note_on_c, 0, 40, 95
2, 274320, Note_off_c, 0, 55, 95
2, 274320, Note_off_c, 0, 52, 95
2, 274320, Note_off_c, 0, 47, 95
2, 274320, Note_off_c, 0, 40, 95
2, 274320, Note_on_c, 0, 55, 95
2, 274320, Note_on_c, 0, 52, 95
2, 274320, Note_on_c, 0, 47, 95
2, 274320, Note_on_c, 0, 40, 95
2, 274560, Note_off_c, 0, 55, 95
2, 274560, Note_off_c, 0, 52, 95
2, 274560, Note_off_c, 0, 47, 95
2, 274560, Note_off_c, 0, 40, 95
2, 274560, Note_on_c, 0, 55, 95
2, 274560, Note_on_c, 0, 52, 95
2, 274560, Note_on_c, 0, 47, 95
2, 274560, Note_on_c, 0, 40, 95
2, 274800, Note_off_c, 0, 55, 95
2, 274800, Note_off_c, 0, 52, 95
2, 274800, Note_off_c, 0, 47, 95
2, 274800, Note_off_c, 0, 40, 95
2, 274800, Note_on_c, 0, 55, 95
2, 274800, Note_on_c, 0, 52, 95
2, 274800, Note_on_c, 0, 47, 95
2, 274800, Note_on_c, 0, 40, 95
2, 275040, Note_off_c, 0, 55, 95
2, 275040, Note_off_c, 0, 52, 95
2, 275040, Note_off_c, 0, 47, 95
2, 275040, Note_off_c, 0, 40, 95
2, 275040, Note_on_c, 0, 64, 95
2, 275040, Note_on_c, 0, 59, 95
2, 275040, Note_on_c, 0, 55, 95
2, 275040, Note_on_c, 0, 52, 95
2, 275040, Note_on_c, 0, 47, 95
2, 275040, Note_on_c, 0, 40, 95
2, 275520, Note_off_c, 0, 64, 95
2, 275520, Note_off_c, 0, 59, 95
2, 275520, Note_off_c, 0, 55, 95
2, 275520, Note_off_c, 0, 52, 95
2, 275520, Note_off_c, 0, 47, 95
2, 275520, Note_off_c, 0, 40, 95
2, 275520, Note_on_c, 0, 55, 95
2, 275520, Note_on_c, 0, 52, 95
2, 275520, Note_on_c, 0, 47, 95
2, 275520, Note_on_c, 0, 40, 95
2, 275760, Note_off_c, 0, 55, 95
2, 275760, Note_off_c, 0, 52, 95
2, 275760, Note_off_c, 0, 47, 95
2, 275760, Note_off_c, 0, 40, 95
2, 275760, Note_on_c, 0, 55, 95
2, 275760, Note_on_c, 0, 52, 95
2, 275760, Note_on_c, 0, 47, 95
2, 275760, Note_on_c, 0, 40, 95
2, 276000, Note_off_c, 0, 55, 95
2, 276000, Note_off_c, 0, 52, 95
2, 276000, Note_off_c, 0, 47, 95
2, 276000, Note_off_c, 0, 40, 95
2, 276000, Note_on_c, 0, 55, 95
2, 276000, Note_on_c, 0, 52, 95
2, 276000, Note_on_c, 0, 47, 95
2, 276000, Note_on_c, 0, 40, 95
2, 276240, Note_off_c, 0, 55, 95
2, 276240, Note_off_c, 0, 52, 95
2, 276240, Note_off_c, 0, 47, 95
2, 276240, Note_off_c, 0, 40, 95
2, 276240, Note_on_c, 0, 55, 95
2, 276240, Note_on_c, 0, 52, 95
2, 276240, Note_on_c, 0, 47, 95
2, 276240, Note_on_c, 0, 40, 95
2, 276480, Note_off_c, 0, 55, 95
2, 276480, Note_off_c, 0, 52, 95
2, 276480, Note_off_c, 0, 47, 95
2, 276480, Note_off_c, 0, 40, 95
2, 276480, Note_on_c, 0, 55, 95
2, 276480, Note_on_c, 0, 52, 95
2, 276480, Note_on_c, 0, 47, 95
2, 276480, Note_on_c, 0, 40, 95
2, 276960, Note_off_c, 0, 55, 95
2, 276960, Note_off_c, 0, 52, 95
2, 276960, Note_off_c, 0, 47, 95
2, 276960, Note_off_c, 0, 40, 95
2, 276960, Note_on_c, 0, 55, 95
2, 276960, Note_on_c, 0, 52, 95
2, 276960, Note_on_c, 0, 47, 95
2, 276960, Note_on_c, 0, 40, 95
2, 277200, Note_off_c, 0, 55, 95
2, 277200, Note_off_c, 0, 52, 95
2, 277200, Note_off_c, 0, 47, 95
2, 277200, Note_off_c, 0, 40, 95
2, 277200, Note_on_c, 0, 55, 95
2, 277200, Note_on_c, 0, 52, 95
2, 277200, Note_on_c, 0, 47, 95
2, 277200, Note_on_c, 0, 40, 95
2, 277440, Note_off_c, 0, 55, 95
2, 277440, Note_off_c, 0, 52, 95
2, 277440, Note_off_c, 0, 47, 95
2, 277440, Note_off_c, 0, 40, 95
2, 277440, Note_on_c, 0, 55, 95
2, 277440, Note_on_c, 0, 52, 95
2, 277440, Note_on_c, 0, 47, 95
2, 277440, Note_on_c, 0, 40, 95
2, 277680, Note_off_c, 0, 55, 95
2, 277680, Note_off_c, 0, 52, 95
2, 277680, Note_off_c, 0, 47, 95
2, 277680, Note_off_c, 0, 40, 95
2, 277680, Note_on_c, 0, 55, 95
2, 277680, Note_on_c, 0, 52, 95
2, 277680, Note_on_c, 0, 47, 95
2, 277680, Note_on_c, 0, 40, 95
2, 277920, Note_off_c, 0, 55, 95
2, 277920, Note_off_c, 0, 52, 95
2, 277920, Note_off_c, 0, 47, 95
2, 277920, Note_off_c, 0, 40, 95
2, 277920, Note_on_c, 0, 64, 95
2, 277920, Note_on_c, 0, 59, 95
2, 277920, Note_on_c, 0, 55, 95
2, 277920, Note_on_c, 0, 52, 95
2, 277920, Note_on_c, 0, 47, 95
2, 277920, Note_on_c, 0, 40, 95
2, 278400, Note_off_c, 0, 64, 95
2, 278400, Note_off_c, 0, 59, 95
2, 278400, Note_off_c, 0, 55, 95
2, 278400, Note_off_c, 0, 52, 95
2, 278400, Note_off_c, 0, 47, 95
2, 278400, Note_off_c, 0, 40, 95
2, 278400, Note_on_c, 0, 55, 95
2, 278400, Note_on_c, 0, 52, 95
2, 278400, Note_on_c, 0, 47, 95
2, 278400, Note_on_c, 0, 40, 95
2, 278640, Note_off_c, 0, 55, 95
2, 278640, Note_off_c, 0, 52, 95
2, 278640, Note_off_c, 0, 47, 95
2, 278640, Note_off_c, 0, 40, 95
2, 278640, Note_on_c, 0, 55, 95
2, 278640, Note_on_c, 0, 52, 95
2, 278640, Note_on_c, 0, 47, 95
2, 278640, Note_on_c, 0, 40, 95
2, 278880, Note_off_c, 0, 55, 95
2, 278880, Note_off_c, 0, 52, 95
2, 278880, Note_off_c, 0, 47, 95
2, 278880, Note_off_c, 0, 40, 95
2, 278880, Note_on_c, 0, 55, 95
2, 278880, Note_on_c, 0, 52, 95
2, 278880, Note_on_c, 0, 47, 95
2, 278880, Note_on_c, 0, 40, 95
2, 279120, Note_off_c, 0, 55, 95
2, 279120, Note_off_c, 0, 52, 95
2, 279120, Note_off_c, 0, 47, 95
2, 279120, Note_off_c, 0, 40, 95
2, 279120, Note_on_c, 0, 55, 95
2, 279120, Note_on_c, 0, 52, 95
2, 279120, Note_on_c, 0, 47, 95
2, 279120, Note_on_c, 0, 40, 95
2, 279360, Note_off_c, 0, 55, 95
2, 279360, Note_off_c, 0, 52, 95
2, 279360, Note_off_c, 0, 47, 95
2, 279360, Note_off_c, 0, 40, 95
2, 279360, Note_on_c, 0, 55, 95
2, 279360, Note_on_c, 0, 52, 95
2, 279360, Note_on_c, 0, 47, 95
2, 279360, Note_on_c, 0, 40, 95
2, 280080, Note_off_c, 0, 55, 95
2, 280080, Note_off_c, 0, 52, 95
2, 280080, Note_off_c, 0, 47, 95
2, 280080, Note_off_c, 0, 40, 95
2, 280080, Note_on_c, 0, 55, 95
2, 280080, Note_on_c, 0, 52, 95
2, 280080, Note_on_c, 0, 47, 95
2, 280080, Note_on_c, 0, 40, 95
2, 280560, Note_off_c, 0, 55, 95
2, 280560, Note_off_c, 0, 52, 95
2, 280560, Note_off_c, 0, 47, 95
2, 280560, Note_off_c, 0, 40, 95
2, 280560, Note_on_c, 0, 55, 95
2, 280560, Note_on_c, 0, 52, 95
2, 280560, Note_on_c, 0, 47, 95
2, 280560, Note_on_c, 0, 40, 95
2, 280800, Note_off_c, 0, 55, 95
2, 280800, Note_off_c, 0, 52, 95
2, 280800, Note_off_c, 0, 47, 95
2, 280800, Note_off_c, 0, 40, 95
2, 280800, Note_on_c, 0, 55, 95
2, 280800, Note_on_c, 0, 52, 95
2, 280800, Note_on_c, 0, 47, 95
2, 280800, Note_on_c, 0, 40, 95
2, 281280, Note_off_c, 0, 55, 95
2, 281280, Note_off_c, 0, 52, 95
2, 281280, Note_off_c, 0, 47, 95
2, 281280, Note_off_c, 0, 40, 95
2, 281280, Note_on_c, 0, 55, 95
2, 281280, Note_on_c, 0, 50, 95
2, 281280, Note_on_c, 0, 45, 95
2, 281280, Note_on_c, 0, 38, 95
2, 281329, Note_off_c, 0, 55, 95
2, 281329, Note_off_c, 0, 50, 95
2, 281329, Note_off_c, 0, 45, 95
2, 281329, Note_off_c, 0, 38, 95
2, 281520, Note_on_c, 0, 55, 95
2, 281520, Note_on_c, 0, 50, 95
2, 281520, Note_on_c, 0, 45, 95
2, 281520, Note_on_c, 0, 38, 95
2, 281569, Note_off_c, 0, 55, 95
2, 281569, Note_off_c, 0, 50, 95
2, 281569, Note_off_c, 0, 45, 95
2, 281569, Note_off_c, 0, 38, 95
2, 281760, Note_on_c, 0, 55, 95
2, 281760, Note_on_c, 0, 50, 95
2, 281760, Note_on_c, 0, 45, 95
2, 281760, Note_on_c, 0, 38, 95
2, 281809, Note_off_c, 0, 55, 95
2, 281809, Note_off_c, 0, 50, 95
2, 281809, Note_off_c, 0, 45, 95
2, 281809, Note_off_c, 0, 38, 95
2, 282000, Note_on_c, 0, 55, 95
2, 282000, Note_on_c, 0, 50, 95
2, 282000, Note_on_c, 0, 45, 95
2, 282000, Note_on_c, 0, 38, 95
2, 282049, Note_off_c, 0, 55, 95
2, 282049, Note_off_c, 0, 50, 95
2, 282049, Note_off_c, 0, 45, 95
2, 282049, Note_off_c, 0, 38, 95
2, 282240, Note_on_c, 0, 55, 95
2, 282240, Note_on_c, 0, 51, 95
2, 282240, Note_on_c, 0, 46, 95
2, 282240, Note_on_c, 0, 39, 95
2, 282720, Note_off_c, 0, 55, 95
2, 282720, Note_off_c, 0, 51, 95
2, 282720, Note_off_c, 0, 46, 95
2, 282720, Note_off_c, 0, 39, 95
2, 282720, Note_on_c, 0, 55, 95
2, 282720, Note_on_c, 0, 51, 95
2, 282720, Note_on_c, 0, 46, 95
2, 282720, Note_on_c, 0, 39, 95
2, 282960, Note_off_c, 0, 55, 95
2, 282960, Note_off_c, 0, 51, 95
2, 282960, Note_off_c, 0, 46, 95
2, 282960, Note_off_c, 0, 39, 95
2, 282960, Note_on_c, 0, 55, 95
2, 282960, Note_on_c, 0, 51, 95
2, 282960, Note_on_c, 0, 46, 95
2, 282960, Note_on_c, 0, 39, 95
2, 283440, Note_off_c, 0, 55, 95
2, 283440, Note_off_c, 0, 51, 95
2, 283440, Note_off_c, 0, 46, 95
2, 283440, Note_off_c, 0, 39, 95
2, 283440, Note_on_c, 0, 55, 95
2, 283440, Note_on_c, 0, 51, 95
2, 283440, Note_on_c, 0, 46, 95
2, 283440, Note_on_c, 0, 39, 95
2, 283680, Note_off_c, 0, 55, 95
2, 283680, Note_off_c, 0, 51, 95
2, 283680, Note_off_c, 0, 46, 95
2, 283680, Note_off_c, 0, 39, 95
2, 283680, Note_on_c, 0, 64, 95
2, 283680, Note_on_c, 0, 59, 95
2, 283680, Note_on_c, 0, 55, 95
2, 283680, Note_on_c, 0, 51, 95
2, 283680, Note_on_c, 0, 46, 95
2, 283680, Note_on_c, 0, 39, 95
2, 284160, Note_off_c, 0, 64, 95
2, 284160, Note_off_c, 0, 59, 95
2, 284160, Note_off_c, 0, 55, 95
2, 284160, Note_off_c, 0, 51, 95
2, 284160, Note_off_c, 0, 46, 95
2, 284160, Note_off_c, 0, 39, 95
2, 284160, Note_on_c, 0, 55, 95
2, 284160, Note_on_c, 0, 51, 95
2, 284160, Note_on_c, 0, 46, 95
2, 284160, Note_on_c, 0, 39, 95
2, 284640, Note_off_c, 0, 55, 95
2, 284640, Note_off_c, 0, 51, 95
2, 284640, Note_off_c, 0, 46, 95
2, 284640, Note_off_c, 0, 39, 95
2, 284640, Note_on_c, 0, 55, 95
2, 284640, Note_on_c, 0, 51, 95
2, 284640, Note_on_c, 0, 46, 95
2, 284640, Note_on_c, 0, 39, 95
2, 284880, Note_off_c, 0, 55, 95
2, 284880, Note_off_c, 0, 51, 95
2, 284880, Note_off_c, 0, 46, 95
2, 284880, Note_off_c, 0, 39, 95
2, 284880, Note_on_c, 0, 55, 95
2, 284880, Note_on_c, 0, 51, 95
2, 284880, Note_on_c, 0, 46, 95
2, 284880, Note_on_c, 0, 39, 95
2, 285120, Note_off_c, 0, 55, 95
2, 285120, Note_off_c, 0, 51, 95
2, 285120, Note_off_c, 0, 46, 95
2, 285120, Note_off_c, 0, 39, 95
2, 285120, Note_on_c, 0, 55, 95
2, 285120, Note_on_c, 0, 53, 95
2, 285120, Note_on_c, 0, 48, 95
2, 285120, Note_on_c, 0, 41, 95
2, 285600, Note_off_c, 0, 55, 95
2, 285600, Note_off_c, 0, 53, 95
2, 285600, Note_off_c, 0, 48, 95
2, 285600, Note_off_c, 0, 41, 95
2, 285600, Note_on_c, 0, 55, 95
2, 285600, Note_on_c, 0, 53, 95
2, 285600, Note_on_c, 0, 48, 95
2, 285600, Note_on_c, 0, 41, 95
2, 285840, Note_off_c, 0, 55, 95
2, 285840, Note_off_c, 0, 53, 95
2, 285840, Note_off_c, 0, 48, 95
2, 285840, Note_off_c, 0, 41, 95
2, 285840, Note_on_c, 0, 55, 95
2, 285840, Note_on_c, 0, 53, 95
2, 285840, Note_on_c, 0, 48, 95
2, 285840, Note_on_c, 0, 41, 95
2, 286320, Note_off_c, 0, 55, 95
2, 286320, Note_off_c, 0, 53, 95
2, 286320, Note_off_c, 0, 48, 95
2, 286320, Note_off_c, 0, 41, 95
2, 286320, Note_on_c, 0, 55, 95
2, 286320, Note_on_c, 0, 53, 95
2, 286320, Note_on_c, 0, 48, 95
2, 286320, Note_on_c, 0, 41, 95
2, 286560, Note_off_c, 0, 55, 95
2, 286560, Note_off_c, 0, 53, 95
2, 286560, Note_off_c, 0, 48, 95
2, 286560, Note_off_c, 0, 41, 95
2, 286560, Note_on_c, 0, 64, 95
2, 286560, Note_on_c, 0, 59, 95
2, 286560, Note_on_c, 0, 55, 95
2, 286560, Note_on_c, 0, 53, 95
2, 286560, Note_on_c, 0, 48, 95
2, 286560, Note_on_c, 0, 41, 95
2, 287040, Note_off_c, 0, 64, 95
2, 287040, Note_off_c, 0, 59, 95
2, 287040, Note_off_c, 0, 55, 95
2, 287040, Note_off_c, 0, 53, 95
2, 287040, Note_off_c, 0, 48, 95
2, 287040, Note_off_c, 0, 41, 95
2, 287040, Note_on_c, 0, 55, 95
2, 287040, Note_on_c, 0, 53, 95
2, 287040, Note_on_c, 0, 48, 95
2, 287040, Note_on_c, 0, 41, 95
2, 287520, Note_off_c, 0, 55, 95
2, 287520, Note_off_c, 0, 53, 95
2, 287520, Note_off_c, 0, 48, 95
2, 287520, Note_off_c, 0, 41, 95
2, 287520, Note_on_c, 0, 55, 95
2, 287520, Note_on_c, 0, 53, 95
2, 287520, Note_on_c, 0, 48, 95
2, 287520, Note_on_c, 0, 41, 95
2, 287760, Note_off_c, 0, 55, 95
2, 287760, Note_off_c, 0, 53, 95
2, 287760, Note_off_c, 0, 48, 95
2, 287760, Note_off_c, 0, 41, 95
2, 287760, Note_on_c, 0, 55, 95
2, 287760, Note_on_c, 0, 53, 95
2, 287760, Note_on_c, 0, 48, 95
2, 287760, Note_on_c, 0, 41, 95
2, 288000, Note_off_c, 0, 55, 95
2, 288000, Note_off_c, 0, 53, 95
2, 288000, Note_off_c, 0, 48, 95
2, 288000, Note_off_c, 0, 41, 95
2, 288000, Note_on_c, 0, 55, 95
2, 288000, Note_on_c, 0, 55, 95
2, 288000, Note_on_c, 0, 50, 95
2, 288000, Note_on_c, 0, 43, 95
2, 288480, Note_off_c, 0, 55, 95
2, 288480, Note_off_c, 0, 55, 95
2, 288480, Note_off_c, 0, 50, 95
2, 288480, Note_off_c, 0, 43, 95
2, 288480, Note_on_c, 0, 55, 95
2, 288480, Note_on_c, 0, 55, 95
2, 288480, Note_on_c, 0, 50, 95
2, 288480, Note_on_c, 0, 43, 95
2, 288720, Note_off_c, 0, 55, 95
2, 288720, Note_off_c, 0, 55, 95
2, 288720, Note_off_c, 0, 50, 95
2, 288720, Note_off_c, 0, 43, 95
2, 288720, Note_on_c, 0, 55, 95
2, 288720, Note_on_c, 0, 55, 95
2, 288720, Note_on_c, 0, 50, 95
2, 288720, Note_on_c, 0, 43, 95
2, 289200, Note_off_c, 0, 55, 95
2, 289200, Note_off_c, 0, 55, 95
2, 289200, Note_off_c, 0, 50, 95
2, 289200, Note_off_c, 0, 43, 95
2, 289200, Note_on_c, 0, 55, 95
2, 289200, Note_on_c, 0, 55, 95
2, 289200, Note_on_c, 0, 50, 95
2, 289200, Note_on_c, 0, 43, 95
2, 289440, Note_off_c, 0, 55, 95
2, 289440, Note_off_c, 0, 55, 95
2, 289440, Note_off_c, 0, 50, 95
2, 289440, Note_off_c, 0, 43, 95
2, 289440, Note_on_c, 0, 64, 95
2, 289440, Note_on_c, 0, 59, 95
2, 289440, Note_on_c, 0, 55, 95
2, 289440, Note_on_c, 0, 55, 95
2, 289440, Note_on_c, 0, 50, 95
2, 289440, Note_on_c, 0, 43, 95
2, 289920, Note_off_c, 0, 64, 95
2, 289920, Note_off_c, 0, 59, 95
2, 289920, Note_off_c, 0, 55, 95
2, 289920, Note_off_c, 0, 55, 95
2, 289920, Note_off_c, 0, 50, 95
2, 289920, Note_off_c, 0, 43, 95
2, 289920, Note_on_c, 0, 55, 95
2, 289920, Note_on_c, 0, 55, 95
2, 289920, Note_on_c, 0, 50, 95
2, 289920, Note_on_c, 0, 43, 95
2, 290400, Note_off_c, 0, 55, 95
2, 290400, Note_off_c, 0, 55, 95
2, 290400, Note_off_c, 0, 50, 95
2, 290400, Note_off_c, 0, 43, 95
2, 290400, Note_on_c, 0, 55, 95
2, 290400, Note_on_c, 0, 55, 95
2, 290400, Note_on_c, 0, 50, 95
2, 290400, Note_on_c, 0, 43, 95
2, 290640, Note_off_c, 0, 55, 95
2, 290640, Note_off_c, 0, 55, 95
2, 290640, Note_off_c, 0, 50, 95
2, 290640, Note_off_c, 0, 43, 95
2, 290640, Note_on_c, 0, 55, 95
2, 290640, Note_on_c, 0, 55, 95
2, 290640, Note_on_c, 0, 50, 95
2, 290640, Note_on_c, 0, 43, 95
2, 290880, Note_off_c, 0, 55, 95
2, 290880, Note_off_c, 0, 55, 95
2, 290880, Note_off_c, 0, 50, 95
2, 290880, Note_off_c, 0, 43, 95
2, 290880, Note_on_c, 0, 55, 95
2, 290880, Note_on_c, 0, 55, 95
2, 290880, Note_on_c, 0, 50, 95
2, 290880, Note_on_c, 0, 43, 95
2, 291360, Note_off_c, 0, 55, 95
2, 291360, Note_off_c, 0, 55, 95
2, 291360, Note_off_c, 0, 50, 95
2, 291360, Note_off_c, 0, 43, 95
2, 291360, Note_on_c, 0, 55, 95
2, 291360, Note_on_c, 0, 55, 95
2, 291360, Note_on_c, 0, 50, 95
2, 291360, Note_on_c, 0, 43, 95
2, 291600, Note_off_c, 0, 55, 95
2, 291600, Note_off_c, 0, 55, 95
2, 291600, Note_off_c, 0, 50, 95
2, 291600, Note_off_c, 0, 43, 95
2, 291600, Note_on_c, 0, 55, 95
2, 291600, Note_on_c, 0, 55, 95
2, 291600, Note_on_c, 0, 50, 95
2, 291600, Note_on_c, 0, 43, 95
2, 292080, Note_off_c, 0, 55, 95
2, 292080, Note_off_c, 0, 55, 95
2, 292080, Note_off_c, 0, 50, 95
2, 292080, Note_off_c, 0, 43, 95
2, 292080, Note_on_c, 0, 55, 95
2, 292080, Note_on_c, 0, 55, 95
2, 292080, Note_on_c, 0, 50, 95
2, 292080, Note_on_c, 0, 43, 95
2, 292320, Note_off_c, 0, 55, 95
2, 292320, Note_off_c, 0, 55, 95
2, 292320, Note_off_c, 0, 50, 95
2, 292320, Note_off_c, 0, 43, 95
2, 292320, Note_on_c, 0, 64, 95
2, 292320, Note_on_c, 0, 59, 95
2, 292320, Note_on_c, 0, 55, 95
2, 292320, Note_on_c, 0, 55, 95
2, 292320, Note_on_c, 0, 50, 95
2, 292320, Note_on_c, 0, 43, 95
2, 293040, Note_off_c, 0, 64, 95
2, 293040, Note_off_c, 0, 59, 95
2, 293040, Note_off_c, 0, 55, 95
2, 293040, Note_off_c, 0, 55, 95
2, 293040, Note_off_c, 0, 50, 95
2, 293040, Note_off_c, 0, 43, 95
2, 293040, Note_on_c, 0, 55, 95
2, 293040, Note_on_c, 0, 55, 95
2, 293040, Note_on_c, 0, 50, 95
2, 293040, Note_on_c, 0, 43, 95
2, 293280, Note_off_c, 0, 55, 95
2, 293280, Note_off_c, 0, 55, 95
2, 293280, Note_off_c, 0, 50, 95
2, 293280, Note_off_c, 0, 43, 95
2, 293280, Note_on_c, 0, 55, 95
2, 293280, Note_on_c, 0, 55, 95
2, 293280, Note_on_c, 0, 50, 95
2, 293280, Note_on_c, 0, 43, 95
2, 293520, Note_off_c, 0, 55, 95
2, 293520, Note_off_c, 0, 55, 95
2, 293520, Note_off_c, 0, 50, 95
2, 293520, Note_off_c, 0, 43, 95
2, 293520, Note_on_c, 0, 55, 95
2, 293520, Note_on_c, 0, 55, 95
2, 293520, Note_on_c, 0, 50, 95
2, 293520, Note_on_c, 0, 43, 95
2, 293760, Note_off_c, 0, 55, 95
2, 293760, Note_off_c, 0, 55, 95
2, 293760, Note_off_c, 0, 50, 95
2, 293760, Note_off_c, 0, 43, 95
2, 293760, Note_on_c, 0, 55, 95
2, 293760, Note_on_c, 0, 54, 95
2, 293760, Note_on_c, 0, 49, 95
2, 293760, Note_on_c, 0, 42, 95
2, 294240, Note_off_c, 0, 55, 95
2, 294240, Note_off_c, 0, 54, 95
2, 294240, Note_off_c, 0, 49, 95
2, 294240, Note_off_c, 0, 42, 95
2, 294240, Note_on_c, 0, 55, 95
2, 294240, Note_on_c, 0, 54, 95
2, 294240, Note_on_c, 0, 49, 95
2, 294240, Note_on_c, 0, 42, 95
2, 294480, Note_off_c, 0, 55, 95
2, 294480, Note_off_c, 0, 54, 95
2, 294480, Note_off_c, 0, 49, 95
2, 294480, Note_off_c, 0, 42, 95
2, 294480, Note_on_c, 0, 55, 95
2, 294480, Note_on_c, 0, 54, 95
2, 294480, Note_on_c, 0, 49, 95
2, 294480, Note_on_c, 0, 42, 95
2, 294960, Note_off_c, 0, 55, 95
2, 294960, Note_off_c, 0, 54, 95
2, 294960, Note_off_c, 0, 49, 95
2, 294960, Note_off_c, 0, 42, 95
2, 294960, Note_on_c, 0, 55, 95
2, 294960, Note_on_c, 0, 54, 95
2, 294960, Note_on_c, 0, 49, 95
2, 294960, Note_on_c, 0, 42, 95
2, 295200, Note_off_c, 0, 55, 95
2, 295200, Note_off_c, 0, 54, 95
2, 295200, Note_off_c, 0, 49, 95
2, 295200, Note_off_c, 0, 42, 95
2, 295200, Note_on_c, 0, 64, 95
2, 295200, Note_on_c, 0, 59, 95
2, 295200, Note_on_c, 0, 55, 95
2, 295200, Note_on_c, 0, 54, 95
2, 295200, Note_on_c, 0, 49, 95
2, 295200, Note_on_c, 0, 42, 95
2, 295920, Note_off_c, 0, 64, 95
2, 295920, Note_off_c, 0, 59, 95
2, 295920, Note_off_c, 0, 55, 95
2, 295920, Note_off_c, 0, 54, 95
2, 295920, Note_off_c, 0, 49, 95
2, 295920, Note_off_c, 0, 42, 95
2, 295920, Note_on_c, 0, 55, 95
2, 295920, Note_on_c, 0, 54, 95
2, 295920, Note_on_c, 0, 49, 95
2, 295920, Note_on_c, 0, 42, 95
2, 296160, Note_off_c, 0, 55, 95
2, 296160, Note_off_c, 0, 54, 95
2, 296160, Note_off_c, 0, 49, 95
2, 296160, Note_off_c, 0, 42, 95
2, 296160, Note_on_c, 0, 55, 95
2, 296160, Note_on_c, 0, 54, 95
2, 296160, Note_on_c, 0, 49, 95
2, 296160, Note_on_c, 0, 42, 95
2, 296400, Note_off_c, 0, 55, 95
2, 296400, Note_off_c, 0, 54, 95
2, 296400, Note_off_c, 0, 49, 95
2, 296400, Note_off_c, 0, 42, 95
2, 296400, Note_on_c, 0, 55, 95
2, 296400, Note_on_c, 0, 54, 95
2, 296400, Note_on_c, 0, 49, 95
2, 296400, Note_on_c, 0, 42, 95
2, 296640, Note_off_c, 0, 55, 95
2, 296640, Note_off_c, 0, 54, 95
2, 296640, Note_off_c, 0, 49, 95
2, 296640, Note_off_c, 0, 42, 95
2, 296640, Note_on_c, 0, 55, 95
2, 296640, Note_on_c, 0, 53, 95
2, 296640, Note_on_c, 0, 48, 95
2, 296640, Note_on_c, 0, 41, 95
2, 297120, Note_off_c, 0, 55, 95
2, 297120, Note_off_c, 0, 53, 95
2, 297120, Note_off_c, 0, 48, 95
2, 297120, Note_off_c, 0, 41, 95
2, 297120, Note_on_c, 0, 55, 95
2, 297120, Note_on_c, 0, 53, 95
2, 297120, Note_on_c, 0, 48, 95
2, 297120, Note_on_c, 0, 41, 95
2, 297360, Note_off_c, 0, 55, 95
2, 297360, Note_off_c, 0, 53, 95
2, 297360, Note_off_c, 0, 48, 95
2, 297360, Note_off_c, 0, 41, 95
2, 297360, Note_on_c, 0, 55, 95
2, 297360, Note_on_c, 0, 53, 95
2, 297360, Note_on_c, 0, 48, 95
2, 297360, Note_on_c, 0, 41, 95
2, 297600, Note_off_c, 0, 55, 95
2, 297600, Note_off_c, 0, 53, 95
2, 297600, Note_off_c, 0, 48, 95
2, 297600, Note_off_c, 0, 41, 95
2, 297600, Note_on_c, 0, 55, 95
2, 297600, Note_on_c, 0, 53, 95
2, 297600, Note_on_c, 0, 48, 95
2, 297600, Note_on_c, 0, 41, 95
2, 297840, Note_off_c, 0, 55, 95
2, 297840, Note_off_c, 0, 53, 95
2, 297840, Note_off_c, 0, 48, 95
2, 297840, Note_off_c, 0, 41, 95
2, 297840, Note_on_c, 0, 55, 95
2, 297840, Note_on_c, 0, 53, 95
2, 297840, Note_on_c, 0, 48, 95
2, 297840, Note_on_c, 0, 41, 95
2, 298080, Note_off_c, 0, 55, 95
2, 298080, Note_off_c, 0, 53, 95
2, 298080, Note_off_c, 0, 48, 95
2, 298080, Note_off_c, 0, 41, 95
2, 298080, Note_on_c, 0, 55, 95
2, 298080, Note_on_c, 0, 52, 95
2, 298080, Note_on_c, 0, 47, 95
2, 298080, Note_on_c, 0, 40, 95
2, 298560, Note_off_c, 0, 55, 95
2, 298560, Note_off_c, 0, 52, 95
2, 298560, Note_off_c, 0, 47, 95
2, 298560, Note_off_c, 0, 40, 95
2, 298560, Note_on_c, 0, 55, 95
2, 298560, Note_on_c, 0, 52, 95
2, 298560, Note_on_c, 0, 47, 95
2, 298560, Note_on_c, 0, 40, 95
2, 298800, Note_off_c, 0, 55, 95
2, 298800, Note_off_c, 0, 52, 95
2, 298800, Note_off_c, 0, 47, 95
2, 298800, Note_off_c, 0, 40, 95
2, 298800, Note_on_c, 0, 55, 95
2, 298800, Note_on_c, 0, 52, 95
2, 298800, Note_on_c, 0, 47, 95
2, 298800, Note_on_c, 0, 40, 95
2, 299040, Note_off_c, 0, 55, 95
2, 299040, Note_off_c, 0, 52, 95
2, 299040, Note_off_c, 0, 47, 95
2, 299040, Note_off_c, 0, 40, 95
2, 299040, Note_on_c, 0, 55, 95
2, 299040, Note_on_c, 0, 52, 95
2, 299040, Note_on_c, 0, 47, 95
2, 299040, Note_on_c, 0, 40, 95
2, 299280, Note_off_c, 0, 55, 95
2, 299280, Note_off_c, 0, 52, 95
2, 299280, Note_off_c, 0, 47, 95
2, 299280, Note_off_c, 0, 40, 95
2, 299280, Note_on_c, 0, 55, 95
2, 299280, Note_on_c, 0, 52, 95
2, 299280, Note_on_c, 0, 47, 95
2, 299280, Note_on_c, 0, 40, 95
2, 299520, Note_off_c, 0, 55, 95
2, 299520, Note_off_c, 0, 52, 95
2, 299520, Note_off_c, 0, 47, 95
2, 299520, Note_off_c, 0, 40, 95
2, 299520, Note_on_c, 0, 55, 95
2, 299520, Note_on_c, 0, 52, 95
2, 299520, Note_on_c, 0, 47, 95
2, 299520, Note_on_c, 0, 40, 95
2, 300000, Note_off_c, 0, 55, 95
2, 300000, Note_off_c, 0, 52, 95
2, 300000, Note_off_c, 0, 47, 95
2, 300000, Note_off_c, 0, 40, 95
2, 300000, Note_on_c, 0, 55, 95
2, 300000, Note_on_c, 0, 52, 95
2, 300000, Note_on_c, 0, 47, 95
2, 300000, Note_on_c, 0, 40, 95
2, 300240, Note_off_c, 0, 55, 95
2, 300240, Note_off_c, 0, 52, 95
2, 300240, Note_off_c, 0, 47, 95
2, 300240, Note_off_c, 0, 40, 95
2, 300240, Note_on_c, 0, 55, 95
2, 300240, Note_on_c, 0, 52, 95
2, 300240, Note_on_c, 0, 47, 95
2, 300240, Note_on_c, 0, 40, 95
2, 300480, Note_off_c, 0, 55, 95
2, 300480, Note_off_c, 0, 52, 95
2, 300480, Note_off_c, 0, 47, 95
2, 300480, Note_off_c, 0, 40, 95
2, 300480, Note_on_c, 0, 55, 95
2, 300480, Note_on_c, 0, 52, 95
2, 300480, Note_on_c, 0, 47, 95
2, 300480, Note_on_c, 0, 40, 95
2, 300720, Note_off_c, 0, 55, 95
2, 300720, Note_off_c, 0, 52, 95
2, 300720, Note_off_c, 0, 47, 95
2, 300720, Note_off_c, 0, 40, 95
2, 300720, Note_on_c, 0, 55, 95
2, 300720, Note_on_c, 0, 52, 95
2, 300720, Note_on_c, 0, 47, 95
2, 300720, Note_on_c, 0, 40, 95
2, 300960, Note_off_c, 0, 55, 95
2, 300960, Note_off_c, 0, 52, 95
2, 300960, Note_off_c, 0, 47, 95
2, 300960, Note_off_c, 0, 40, 95
2, 300960, Note_on_c, 0, 64, 95
2, 300960, Note_on_c, 0, 59, 95
2, 300960, Note_on_c, 0, 55, 95
2, 300960, Note_on_c, 0, 52, 95
2, 300960, Note_on_c, 0, 47, 95
2, 300960, Note_on_c, 0, 40, 95
2, 301440, Note_off_c, 0, 64, 95
2, 301440, Note_off_c, 0, 59, 95
2, 301440, Note_off_c, 0, 55, 95
2, 301440, Note_off_c, 0, 52, 95
2, 301440, Note_off_c, 0, 47, 95
2, 301440, Note_off_c, 0, 40, 95
2, 301440, Note_on_c, 0, 55, 95
2, 301440, Note_on_c, 0, 52, 95
2, 301440, Note_on_c, 0, 47, 95
2, 301440, Note_on_c, 0, 40, 95
2, 301680, Note_off_c, 0, 55, 95
2, 301680, Note_off_c, 0, 52, 95
2, 301680, Note_off_c, 0, 47, 95
2, 301680, Note_off_c, 0, 40, 95
2, 301680, Note_on_c, 0, 55, 95
2, 301680, Note_on_c, 0, 52, 95
2, 301680, Note_on_c, 0, 47, 95
2, 301680, Note_on_c, 0, 40, 95
2, 301920, Note_off_c, 0, 55, 95
2, 301920, Note_off_c, 0, 52, 95
2, 301920, Note_off_c, 0, 47, 95
2, 301920, Note_off_c, 0, 40, 95
2, 301920, Note_on_c, 0, 55, 95
2, 301920, Note_on_c, 0, 52, 95
2, 301920, Note_on_c, 0, 47, 95
2, 301920, Note_on_c, 0, 40, 95
2, 302160, Note_off_c, 0, 55, 95
2, 302160, Note_off_c, 0, 52, 95
2, 302160, Note_off_c, 0, 47, 95
2, 302160, Note_off_c, 0, 40, 95
2, 302160, Note_on_c, 0, 55, 95
2, 302160, Note_on_c, 0, 52, 95
2, 302160, Note_on_c, 0, 47, 95
2, 302160, Note_on_c, 0, 40, 95
2, 302400, Note_off_c, 0, 55, 95
2, 302400, Note_off_c, 0, 52, 95
2, 302400, Note_off_c, 0, 47, 95
2, 302400, Note_off_c, 0, 40, 95
2, 302400, Note_on_c, 0, 55, 95
2, 302400, Note_on_c, 0, 52, 95
2, 302400, Note_on_c, 0, 47, 95
2, 302400, Note_on_c, 0, 40, 95
2, 302880, Note_off_c, 0, 55, 95
2, 302880, Note_off_c, 0, 52, 95
2, 302880, Note_off_c, 0, 47, 95
2, 302880, Note_off_c, 0, 40, 95
2, 302880, Note_on_c, 0, 55, 95
2, 302880, Note_on_c, 0, 52, 95
2, 302880, Note_on_c, 0, 47, 95
2, 302880, Note_on_c, 0, 40, 95
2, 303120, Note_off_c, 0, 55, 95
2, 303120, Note_off_c, 0, 52, 95
2, 303120, Note_off_c, 0, 47, 95
2, 303120, Note_off_c, 0, 40, 95
2, 303120, Note_on_c, 0, 55, 95
2, 303120, Note_on_c, 0, 55, 95
2, 303120, Note_on_c, 0, 50, 95
2, 303120, Note_on_c, 0, 43, 95
2, 303600, Note_off_c, 0, 55, 95
2, 303600, Note_off_c, 0, 55, 95
2, 303600, Note_off_c, 0, 50, 95
2, 303600, Note_off_c, 0, 43, 95
2, 303600, Note_on_c, 0, 55, 95
2, 303600, Note_on_c, 0, 55, 95
2, 303600, Note_on_c, 0, 50, 95
2, 303600, Note_on_c, 0, 43, 95
2, 303840, Note_off_c, 0, 55, 95
2, 303840, Note_off_c, 0, 55, 95
2, 303840, Note_off_c, 0, 50, 95
2, 303840, Note_off_c, 0, 43, 95
2, 303840, Note_on_c, 0, 55, 95
2, 303840, Note_on_c, 0, 57, 95
2, 303840, Note_on_c, 0, 52, 95
2, 303840, Note_on_c, 0, 45, 95
2, 304320, Note_off_c, 0, 55, 95
2, 304320, Note_off_c, 0, 57, 95
2, 304320, Note_off_c, 0, 52, 95
2, 304320, Note_off_c, 0, 45, 95
2, 304320, Note_on_c, 0, 55, 95
2, 304320, Note_on_c, 0, 57, 95
2, 304320, Note_on_c, 0, 52, 95
2, 304320, Note_on_c, 0, 45, 95
2, 304560, Note_off_c, 0, 55, 95
2, 304560, Note_off_c, 0, 57, 95
2, 304560, Note_off_c, 0, 52, 95
2, 304560, Note_off_c, 0, 45, 95
2, 304560, Note_on_c, 0, 55, 95
2, 304560, Note_on_c, 0, 59, 95
2, 304560, Note_on_c, 0, 54, 95
2, 304560, Note_on_c, 0, 47, 95
2, 305280, Note_off_c, 0, 55, 95
2, 305280, Note_off_c, 0, 59, 95
2, 305280, Note_off_c, 0, 54, 95
2, 305280, Note_off_c, 0, 47, 95
2, 305280, Note_on_c, 0, 59, 95
2, 305280, Note_on_c, 0, 55, 95
2, 305280, Note_on_c, 0, 52, 95
2, 305280, Note_on_c, 0, 47, 95
2, 305280, Note_on_c, 0, 40, 95
2, 305760, Note_off_c, 0, 59, 95
2, 305760, Note_off_c, 0, 55, 95
2, 305760, Note_off_c, 0, 52, 95
2, 305760, Note_off_c, 0, 47, 95
2, 305760, Note_off_c, 0, 40, 95
2, 305760, Note_on_c, 0, 59, 95
2, 305760, Note_on_c, 0, 55, 95
2, 305760, Note_on_c, 0, 52, 95
2, 306000, Note_off_c, 0, 59, 95
2, 306000, Note_off_c, 0, 55, 95
2, 306000, Note_off_c, 0, 52, 95
2, 306000, Note_on_c, 0, 59, 95
2, 306000, Note_on_c, 0, 55, 95
2, 306000, Note_on_c, 0, 52, 95
2, 306240, Note_off_c, 0, 59, 95
2, 306240, Note_off_c, 0, 55, 95
2, 306240, Note_off_c, 0, 52, 95
2, 306240, Note_on_c, 0, 59, 95
2, 306240, Note_on_c, 0, 55, 95
2, 306240, Note_on_c, 0, 52, 95
2, 306480, Note_off_c, 0, 59, 95
2, 306480, Note_off_c, 0, 55, 95
2, 306480, Note_off_c, 0, 52, 95
2, 306480, Note_on_c, 0, 59, 95
2, 306480, Note_on_c, 0, 55, 95
2, 306480, Note_on_c, 0, 52, 95
2, 306720, Note_off_c, 0, 59, 95
2, 306720, Note_off_c, 0, 55, 95
2, 306720, Note_off_c, 0, 52, 95
2, 306720, Note_on_c, 0, 63, 95
2, 306720, Note_on_c, 0, 57, 95
2, 306720, Note_on_c, 0, 54, 95
2, 306720, Note_on_c, 0, 42, 95
2, 307200, Note_off_c, 0, 63, 95
2, 307200, Note_off_c, 0, 57, 95
2, 307200, Note_off_c, 0, 54, 95
2, 307200, Note_off_c, 0, 42, 95
2, 307200, Note_on_c, 0, 63, 95
2, 307200, Note_on_c, 0, 57, 95
2, 307200, Note_on_c, 0, 54, 95
2, 307440, Note_off_c, 0, 63, 95
2, 307440, Note_off_c, 0, 57, 95
2, 307440, Note_off_c, 0, 54, 95
2, 307440, Note_on_c, 0, 63, 95
2, 307440, Note_on_c, 0, 57, 95
2, 307440, Note_on_c, 0, 54, 95
2, 307680, Note_off_c, 0, 63, 95
2, 307680, Note_off_c, 0, 57, 95
2, 307680, Note_off_c, 0, 54, 95
2, 307680, Note_on_c, 0, 63, 95
2, 307680, Note_on_c, 0, 57, 95
2, 307680, Note_on_c, 0, 54, 95
2, 307920, Note_off_c, 0, 63, 95
2, 307920, Note_off_c, 0, 57, 95
2, 307920, Note_off_c, 0, 54, 95
2, 307920, Note_on_c, 0, 63, 95
2, 307920, Note_on_c, 0, 57, 95
2, 307920, Note_on_c, 0, 54, 95
2, 308160, Note_off_c, 0, 63, 95
2, 308160, Note_off_c, 0, 57, 95
2, 308160, Note_off_c, 0, 54, 95
2, 308160, Note_on_c, 0, 64, 95
2, 308160, Note_on_c, 0, 59, 95
2, 308160, Note_on_c, 0, 55, 95
2, 308160, Note_on_c, 0, 43, 95
2, 308640, Note_off_c, 0, 64, 95
2, 308640, Note_off_c, 0, 59, 95
2, 308640, Note_off_c, 0, 55, 95
2, 308640, Note_off_c, 0, 43, 95
2, 308640, Note_on_c, 0, 64, 95
2, 308640, Note_on_c, 0, 59, 95
2, 308640, Note_on_c, 0, 55, 95
2, 308880, Note_off_c, 0, 64, 95
2, 308880, Note_off_c, 0, 59, 95
2, 308880, Note_off_c, 0, 55, 95
2, 308880, Note_on_c, 0, 64, 95
2, 308880, Note_on_c, 0, 59, 95
2, 308880, Note_on_c, 0, 55, 95
2, 309120, Note_off_c, 0, 64, 95
2, 309120, Note_off_c, 0, 59, 95
2, 309120, Note_off_c, 0, 55, 95
2, 309120, Note_on_c, 0, 64, 95
2, 309120, Note_on_c, 0, 59, 95
2, 309120, Note_on_c, 0, 55, 95
2, 309360, Note_off_c, 0, 64, 95
2, 309360, Note_off_c, 0, 59, 95
2, 309360, Note_off_c, 0, 55, 95
2, 309360, Note_on_c, 0, 64, 95
2, 309360, Note_on_c, 0, 59, 95
2, 309360, Note_on_c, 0, 55, 95
2, 309600, Note_off_c, 0, 64, 95
2, 309600, Note_off_c, 0, 59, 95
2, 309600, Note_off_c, 0, 55, 95
2, 309600, Note_on_c, 1, 64, 95
2, 309600, Note_on_c, 1, 59, 95
2, 309600, Note_on_c, 1, 55, 95
2, 309600, Note_on_c, 1, 43, 95
2, 309720, Pitch_bend_c, 1, 8832
2, 309720, Pitch_bend_c, 1, 8832
2, 309720, Pitch_bend_c, 1, 8832
2, 309720, Pitch_bend_c, 1, 8832
2, 309840, Pitch_bend_c, 1, 9600
2, 309840, Pitch_bend_c, 1, 8192
2, 309840, Note_off_c, 1, 64, 95
2, 309840, Pitch_bend_c, 1, 9600
2, 309840, Pitch_bend_c, 1, 8192
2, 309840, Note_off_c, 1, 59, 95
2, 309840, Pitch_bend_c, 1, 9600
2, 309840, Pitch_bend_c, 1, 8192
2, 309840, Note_off_c, 1, 55, 95
2, 309840, Pitch_bend_c, 1, 9600
2, 309840, Pitch_bend_c, 1, 8192
2, 309840, Note_off_c, 1, 43, 95
2, 309840, Note_on_c, 0, 66, 95
2, 309840, Note_on_c, 0, 61, 95
2, 309840, Note_on_c, 0, 57, 95
2, 309840, Note_on_c, 0, 45, 95
2, 310080, Note_off_c, 0, 66, 95
2, 310080, Note_off_c, 0, 61, 95
2, 310080, Note_off_c, 0, 57, 95
2, 310080, Note_off_c, 0, 45, 95
2, 310080, Note_on_c, 0, 66, 95
2, 310080, Note_on_c, 0, 61, 95
2, 310080, Note_on_c, 0, 57, 95
2, 310320, Note_off_c, 0, 66, 95
2, 310320, Note_off_c, 0, 61, 95
2, 310320, Note_off_c, 0, 57, 95
2, 310320, Note_on_c, 0, 66, 95
2, 310320, Note_on_c, 0, 61, 95
2, 310320, Note_on_c, 0, 57, 95
2, 310560, Note_off_c, 0, 66, 95
2, 310560, Note_off_c, 0, 61, 95
2, 310560, Note_off_c, 0, 57, 95
2, 310560, Note_on_c, 0, 66, 95
2, 310560, Note_on_c, 0, 61, 95
2, 310560, Note_on_c, 0, 57, 95
2, 310800, Note_off_c, 0, 66, 95
2, 310800, Note_off_c, 0, 61, 95
2, 310800, Note_off_c, 0, 57, 95
2, 310800, Note_on_c, 0, 66, 95
2, 310800, Note_on_c, 0, 61, 95
2, 310800, Note_on_c, 0, 57, 95
2, 311040, Note_off_c, 0, 66, 95
2, 311040, Note_off_c, 0, 61, 95
2, 311040, Note_off_c, 0, 57, 95
2, 311040, Note_on_c, 0, 66, 95
2, 311040, Note_on_c, 0, 62, 95
2, 311040, Note_on_c, 0, 57, 95
2, 311040, Note_on_c, 0, 47, 95
2, 311280, Note_off_c, 0, 66, 95
2, 311280, Note_off_c, 0, 62, 95
2, 311280, Note_off_c, 0, 57, 95
2, 311280, Note_off_c, 0, 47, 95
2, 311280, Note_on_c, 0, 59, 70
2, 311520, Note_off_c, 0, 59, 70
2, 311520, Note_on_c, 0, 47, 95
2, 311760, Note_off_c, 0, 47, 95
2, 311760, Note_on_c, 0, 64, 95
2, 311760, Note_on_c, 0, 59, 95
2, 311760, Note_on_c, 0, 62, 95
2, 311760, Note_on_c, 0, 59, 95
2, 312240, Note_off_c, 0, 64, 95
2, 312240, Note_off_c, 0, 59, 95
2, 312240, Note_off_c, 0, 62, 95
2, 312240, Note_off_c, 0, 59, 95
2, 312240, Note_on_c, 0, 64, 95
2, 312240, Note_on_c, 0, 59, 95
2, 312240, Note_on_c, 0, 62, 95
2, 312240, Note_on_c, 0, 59, 95
2, 312480, Note_off_c, 0, 64, 95
2, 312480, Note_off_c, 0, 59, 95
2, 312480, Note_off_c, 0, 62, 95
2, 312480, Note_off_c, 0, 59, 95
2, 312480, Note_on_c, 0, 64, 95
2, 312480, Note_on_c, 0, 59, 95
2, 312480, Note_on_c, 0, 62, 95
2, 312480, Note_on_c, 0, 59, 95
2, 312480, Note_on_c, 0, 47, 95
2, 312960, Note_off_c, 0, 64, 95
2, 312960, Note_off_c, 0, 59, 95
2, 312960, Note_off_c, 0, 62, 95
2, 312960, Note_off_c, 0, 59, 95
2, 312960, Note_off_c, 0, 47, 95
2, 312960, Note_on_c, 0, 64, 95
2, 312960, Note_on_c, 0, 59, 95
2, 312960, Note_on_c, 0, 62, 95
2, 312960, Note_on_c, 0, 59, 95
2, 313200, Note_off_c, 0, 64, 95
2, 313200, Note_off_c, 0, 59, 95
2, 313200, Note_off_c, 0, 62, 95
2, 313200, Note_off_c, 0, 59, 95
2, 313200, Note_on_c, 0, 64, 95
2, 313200, Note_on_c, 0, 59, 95
2, 313200, Note_on_c, 0, 62, 95
2, 313200, Note_on_c, 0, 59, 95
2, 313440, Note_off_c, 0, 64, 95
2, 313440, Note_off_c, 0, 59, 95
2, 313440, Note_off_c, 0, 62, 95
2, 313440, Note_off_c, 0, 59, 95
2, 313440, Note_on_c, 0, 64, 95
2, 313440, Note_on_c, 0, 59, 95
2, 313440, Note_on_c, 0, 62, 95
2, 313440, Note_on_c, 0, 59, 95
2, 313680, Note_off_c, 0, 64, 95
2, 313680, Note_off_c, 0, 59, 95
2, 313680, Note_off_c, 0, 62, 95
2, 313680, Note_off_c, 0, 59, 95
2, 313680, Note_on_c, 0, 64, 95
2, 313680, Note_on_c, 0, 59, 95
2, 313680, Note_on_c, 0, 62, 95
2, 313680, Note_on_c, 0, 59, 95
2, 313920, Note_off_c, 0, 64, 95
2, 313920, Note_off_c, 0, 59, 95
2, 313920, Note_off_c, 0, 62, 95
2, 313920, Note_off_c, 0, 59, 95
2, 313920, Note_on_c, 0, 64, 95
2, 313920, Note_on_c, 0, 59, 95
2, 313920, Note_on_c, 0, 61, 95
2, 313920, Note_on_c, 0, 57, 95
2, 313920, Note_on_c, 0, 45, 95
2, 314400, Note_off_c, 0, 64, 95
2, 314400, Note_off_c, 0, 59, 95
2, 314400, Note_off_c, 0, 61, 95
2, 314400, Note_off_c, 0, 57, 95
2, 314400, Note_off_c, 0, 45, 95
2, 314400, Note_on_c, 0, 64, 95
2, 314400, Note_on_c, 0, 59, 95
2, 314400, Note_on_c, 0, 61, 95
2, 314400, Note_on_c, 0, 57, 95
2, 314640, Note_off_c, 0, 64, 95
2, 314640, Note_off_c, 0, 59, 95
2, 314640, Note_off_c, 0, 61, 95
2, 314640, Note_off_c, 0, 57, 95
2, 314640, Note_on_c, 0, 64, 95
2, 314640, Note_on_c, 0, 59, 95
2, 314640, Note_on_c, 0, 61, 95
2, 314640, Note_on_c, 0, 57, 95
2, 314880, Note_off_c, 0, 64, 95
2, 314880, Note_off_c, 0, 59, 95
2, 314880, Note_off_c, 0, 61, 95
2, 314880, Note_off_c, 0, 57, 95
2, 314880, Note_on_c, 0, 64, 95
2, 314880, Note_on_c, 0, 59, 95
2, 314880, Note_on_c, 0, 61, 95
2, 314880, Note_on_c, 0, 57, 95
2, 315120, Note_off_c, 0, 64, 95
2, 315120, Note_off_c, 0, 59, 95
2, 315120, Note_off_c, 0, 61, 95
2, 315120, Note_off_c, 0, 57, 95
2, 315120, Note_on_c, 0, 62, 95
2, 315120, Note_on_c, 0, 57, 95
2, 315360, Note_off_c, 0, 62, 95
2, 315360, Note_off_c, 0, 57, 95
2, 315360, Note_on_c, 0, 64, 95
2, 315360, Note_on_c, 0, 59, 95
2, 315360, Note_on_c, 0, 61, 95
2, 315360, Note_on_c, 0, 57, 95
2, 315360, Note_on_c, 0, 45, 95
2, 315840, Note_off_c, 0, 64, 95
2, 315840, Note_off_c, 0, 59, 95
2, 315840, Note_off_c, 0, 61, 95
2, 315840, Note_off_c, 0, 57, 95
2, 315840, Note_off_c, 0, 45, 95
2, 315840, Note_on_c, 0, 64, 95
2, 315840, Note_on_c, 0, 59, 95
2, 315840, Note_on_c, 0, 61, 95
2, 315840, Note_on_c, 0, 57, 95
2, 316080, Note_off_c, 0, 64, 95
2, 316080, Note_off_c, 0, 59, 95
2, 316080, Note_off_c, 0, 61, 95
2, 316080, Note_off_c, 0, 57, 95
2, 316080, Note_on_c, 0, 64, 95
2, 316080, Note_on_c, 0, 59, 95
2, 316080, Note_on_c, 0, 61, 95
2, 316080, Note_on_c, 0, 57, 95
2, 316320, Note_off_c, 0, 64, 95
2, 316320, Note_off_c, 0, 59, 95
2, 316320, Note_off_c, 0, 61, 95
2, 316320, Note_off_c, 0, 57, 95
2, 316320, Note_on_c, 0, 64, 95
2, 316320, Note_on_c, 0, 59, 95
2, 316320, Note_on_c, 0, 61, 95
2, 316320, Note_on_c, 0, 57, 95
2, 316560, Note_off_c, 0, 64, 95
2, 316560, Note_off_c, 0, 59, 95
2, 316560, Note_off_c, 0, 61, 95
2, 316560, Note_off_c, 0, 57, 95
2, 316560, Note_on_c, 0, 59, 95
2, 316560, Note_on_c, 0, 55, 95
2, 316560, Note_on_c, 0, 50, 95
2, 316800, Note_off_c, 0, 59, 95
2, 316800, Note_off_c, 0, 55, 95
2, 316800, Note_off_c, 0, 50, 95
2, 316800, Note_on_c, 0, 59, 95
2, 316800, Note_on_c, 0, 55, 95
2, 316800, Note_on_c, 0, 52, 95
2, 316800, Note_on_c, 0, 47, 95
2, 316800, Note_on_c, 0, 40, 95
2, 317280, Note_off_c, 0, 59, 95
2, 317280, Note_off_c, 0, 55, 95
2, 317280, Note_off_c, 0, 52, 95
2, 317280, Note_off_c, 0, 47, 95
2, 317280, Note_off_c, 0, 40, 95
2, 317280, Note_on_c, 0, 59, 95
2, 317280, Note_on_c, 0, 55, 95
2, 317280, Note_on_c, 0, 52, 95
2, 317520, Note_off_c, 0, 59, 95
2, 317520, Note_off_c, 0, 55, 95
2, 317520, Note_off_c, 0, 52, 95
2, 317520, Note_on_c, 0, 59, 95
2, 317520, Note_on_c, 0, 55, 95
2, 317520, Note_on_c, 0, 52, 95
2, 317760, Note_off_c, 0, 59, 95
2, 317760, Note_off_c, 0, 55, 95
2, 317760, Note_off_c, 0, 52, 95
2, 317760, Note_on_c, 0, 59, 95
2, 317760, Note_on_c, 0, 55, 95
2, 317760, Note_on_c, 0, 52, 95
2, 318000, Note_off_c, 0, 59, 95
2, 318000, Note_off_c, 0, 55, 95
2, 318000, Note_off_c, 0, 52, 95
2, 318000, Note_on_c, 0, 59, 95
2, 318000, Note_on_c, 0, 55, 95
2, 318000, Note_on_c, 0, 52, 95
2, 318240, Note_off_c, 0, 59, 95
2, 318240, Note_off_c, 0, 55, 95
2, 318240, Note_off_c, 0, 52, 95
2, 318240, Note_on_c, 0, 63, 95
2, 318240, Note_on_c, 0, 57, 95
2, 318240, Note_on_c, 0, 54, 95
2, 318240, Note_on_c, 0, 42, 95
2, 318720, Note_off_c, 0, 63, 95
2, 318720, Note_off_c, 0, 57, 95
2, 318720, Note_off_c, 0, 54, 95
2, 318720, Note_off_c, 0, 42, 95
2, 318720, Note_on_c, 0, 63, 95
2, 318720, Note_on_c, 0, 57, 95
2, 318720, Note_on_c, 0, 54, 95
2, 318960, Note_off_c, 0, 63, 95
2, 318960, Note_off_c, 0, 57, 95
2, 318960, Note_off_c, 0, 54, 95
2, 318960, Note_on_c, 0, 63, 95
2, 318960, Note_on_c, 0, 57, 95
2, 318960, Note_on_c, 0, 54, 95
2, 319200, Note_off_c, 0, 63, 95
2, 319200, Note_off_c, 0, 57, 95
2, 319200, Note_off_c, 0, 54, 95
2, 319200, Note_on_c, 0, 63, 95
2, 319200, Note_on_c, 0, 57, 95
2, 319200, Note_on_c, 0, 54, 95
2, 319440, Note_off_c, 0, 63, 95
2, 319440, Note_off_c, 0, 57, 95
2, 319440, Note_off_c, 0, 54, 95
2, 319440, Note_on_c, 0, 63, 95
2, 319440, Note_on_c, 0, 57, 95
2, 319440, Note_on_c, 0, 54, 95
2, 319680, Note_off_c, 0, 63, 95
2, 319680, Note_off_c, 0, 57, 95
2, 319680, Note_off_c, 0, 54, 95
2, 319680, Note_on_c, 0, 64, 95
2, 319680, Note_on_c, 0, 59, 95
2, 319680, Note_on_c, 0, 55, 95
2, 319680, Note_on_c, 0, 43, 95
2, 320160, Note_off_c, 0, 64, 95
2, 320160, Note_off_c, 0, 59, 95
2, 320160, Note_off_c, 0, 55, 95
2, 320160, Note_off_c, 0, 43, 95
2, 320160, Note_on_c, 0, 64, 95
2, 320160, Note_on_c, 0, 59, 95
2, 320160, Note_on_c, 0, 55, 95
2, 320400, Note_off_c, 0, 64, 95
2, 320400, Note_off_c, 0, 59, 95
2, 320400, Note_off_c, 0, 55, 95
2, 320400, Note_on_c, 0, 64, 95
2, 320400, Note_on_c, 0, 59, 95
2, 320400, Note_on_c, 0, 55, 95
2, 320640, Note_off_c, 0, 64, 95
2, 320640, Note_off_c, 0, 59, 95
2, 320640, Note_off_c, 0, 55, 95
2, 320640, Note_on_c, 0, 64, 95
2, 320640, Note_on_c, 0, 59, 95
2, 320640, Note_on_c, 0, 55, 95
2, 320880, Note_off_c, 0, 64, 95
2, 320880, Note_off_c, 0, 59, 95
2, 320880, Note_off_c, 0, 55, 95
2, 320880, Note_on_c, 0, 64, 95
2, 320880, Note_on_c, 0, 59, 95
2, 320880, Note_on_c, 0, 55, 95
2, 321120, Note_off_c, 0, 64, 95
2, 321120, Note_off_c, 0, 59, 95
2, 321120, Note_off_c, 0, 55, 95
2, 321120, Note_on_c, 1, 64, 95
2, 321120, Note_on_c, 1, 59, 95
2, 321120, Note_on_c, 1, 55, 95
2, 321120, Note_on_c, 1, 43, 95
2, 321240, Pitch_bend_c, 1, 8832
2, 321240, Pitch_bend_c, 1, 8832
2, 321240, Pitch_bend_c, 1, 8832
2, 321240, Pitch_bend_c, 1, 8832
2, 321360, Pitch_bend_c, 1, 9600
2, 321360, Pitch_bend_c, 1, 8192
2, 321360, Note_off_c, 1, 64, 95
2, 321360, Pitch_bend_c, 1, 9600
2, 321360, Pitch_bend_c, 1, 8192
2, 321360, Note_off_c, 1, 59, 95
2, 321360, Pitch_bend_c, 1, 9600
2, 321360, Pitch_bend_c, 1, 8192
2, 321360, Note_off_c, 1, 55, 95
2, 321360, Pitch_bend_c, 1, 9600
2, 321360, Pitch_bend_c, 1, 8192
2, 321360, Note_off_c, 1, 43, 95
2, 321360, Note_on_c, 0, 66, 95
2, 321360, Note_on_c, 0, 61, 95
2, 321360, Note_on_c, 0, 57, 95
2, 321360, Note_on_c, 0, 45, 95
2, 321600, Note_off_c, 0, 66, 95
2, 321600, Note_off_c, 0, 61, 95
2, 321600, Note_off_c, 0, 57, 95
2, 321600, Note_off_c, 0, 45, 95
2, 321600, Note_on_c, 0, 66, 95
2, 321600, Note_on_c, 0, 61, 95
2, 321600, Note_on_c, 0, 57, 95
2, 321840, Note_off_c, 0, 66, 95
2, 321840, Note_off_c, 0, 61, 95
2, 321840, Note_off_c, 0, 57, 95
2, 321840, Note_on_c, 0, 66, 95
2, 321840, Note_on_c, 0, 61, 95
2, 321840, Note_on_c, 0, 57, 95
2, 322080, Note_off_c, 0, 66, 95
2, 322080, Note_off_c, 0, 61, 95
2, 322080, Note_off_c, 0, 57, 95
2, 322080, Note_on_c, 0, 66, 95
2, 322080, Note_on_c, 0, 61, 95
2, 322080, Note_on_c, 0, 57, 95
2, 322320, Note_off_c, 0, 66, 95
2, 322320, Note_off_c, 0, 61, 95
2, 322320, Note_off_c, 0, 57, 95
2, 322320, Note_on_c, 0, 66, 95
2, 322320, Note_on_c, 0, 61, 95
2, 322320, Note_on_c, 0, 57, 95
2, 322560, Note_off_c, 0, 66, 95
2, 322560, Note_off_c, 0, 61, 95
2, 322560, Note_off_c, 0, 57, 95
2, 322560, Note_on_c, 0, 66, 95
2, 322560, Note_on_c, 0, 62, 95
2, 322560, Note_on_c, 0, 57, 95
2, 322560, Note_on_c, 0, 47, 95
2, 322800, Note_off_c, 0, 66, 95
2, 322800, Note_off_c, 0, 62, 95
2, 322800, Note_off_c, 0, 57, 95
2, 322800, Note_off_c, 0, 47, 95
2, 322800, Note_on_c, 0, 59, 70
2, 323040, Note_off_c, 0, 59, 70
2, 323040, Note_on_c, 0, 47, 95
2, 323280, Note_off_c, 0, 47, 95
2, 323280, Note_on_c, 0, 64, 95
2, 323280, Note_on_c, 0, 59, 95
2, 323280, Note_on_c, 0, 62, 95
2, 323280, Note_on_c, 0, 59, 95
2, 323760, Note_off_c, 0, 64, 95
2, 323760, Note_off_c, 0, 59, 95
2, 323760, Note_off_c, 0, 62, 95
2, 323760, Note_off_c, 0, 59, 95
2, 323760, Note_on_c, 0, 64, 95
2, 323760, Note_on_c, 0, 59, 95
2, 323760, Note_on_c, 0, 62, 95
2, 323760, Note_on_c, 0, 59, 95
2, 324000, Note_off_c, 0, 64, 95
2, 324000, Note_off_c, 0, 59, 95
2, 324000, Note_off_c, 0, 62, 95
2, 324000, Note_off_c, 0, 59, 95
2, 324000, Note_on_c, 0, 64, 95
2, 324000, Note_on_c, 0, 59, 95
2, 324000, Note_on_c, 0, 62, 95
2, 324000, Note_on_c, 0, 59, 95
2, 324000, Note_on_c, 0, 47, 95
2, 324480, Note_off_c, 0, 64, 95
2, 324480, Note_off_c, 0, 59, 95
2, 324480, Note_off_c, 0, 62, 95
2, 324480, Note_off_c, 0, 59, 95
2, 324480, Note_off_c, 0, 47, 95
2, 324480, Note_on_c, 0, 64, 95
2, 324480, Note_on_c, 0, 59, 95
2, 324480, Note_on_c, 0, 62, 95
2, 324480, Note_on_c, 0, 59, 95
2, 324720, Note_off_c, 0, 64, 95
2, 324720, Note_off_c, 0, 59, 95
2, 324720, Note_off_c, 0, 62, 95
2, 324720, Note_off_c, 0, 59, 95
2, 324720, Note_on_c, 0, 64, 95
2, 324720, Note_on_c, 0, 59, 95
2, 324720, Note_on_c, 0, 62, 95
2, 324720, Note_on_c, 0, 59, 95
2, 324960, Note_off_c, 0, 64, 95
2, 324960, Note_off_c, 0, 59, 95
2, 324960, Note_off_c, 0, 62, 95
2, 324960, Note_off_c, 0, 59, 95
2, 324960, Note_on_c, 0, 64, 95
2, 324960, Note_on_c, 0, 59, 95
2, 324960, Note_on_c, 0, 62, 95
2, 324960, Note_on_c, 0, 59, 95
2, 325200, Note_off_c, 0, 64, 95
2, 325200, Note_off_c, 0, 59, 95
2, 325200, Note_off_c, 0, 62, 95
2, 325200, Note_off_c, 0, 59, 95
2, 325200, Note_on_c, 0, 64, 95
2, 325200, Note_on_c, 0, 59, 95
2, 325200, Note_on_c, 0, 62, 95
2, 325200, Note_on_c, 0, 59, 95
2, 325440, Note_off_c, 0, 64, 95
2, 325440, Note_off_c, 0, 59, 95
2, 325440, Note_off_c, 0, 62, 95
2, 325440, Note_off_c, 0, 59, 95
2, 325440, Note_on_c, 0, 64, 95
2, 325440, Note_on_c, 0, 59, 95
2, 325440, Note_on_c, 0, 61, 95
2, 325440, Note_on_c, 0, 57, 95
2, 325440, Note_on_c, 0, 45, 95
2, 325920, Note_off_c, 0, 64, 95
2, 325920, Note_off_c, 0, 59, 95
2, 325920, Note_off_c, 0, 61, 95
2, 325920, Note_off_c, 0, 57, 95
2, 325920, Note_off_c, 0, 45, 95
2, 325920, Note_on_c, 0, 64, 95
2, 325920, Note_on_c, 0, 59, 95
2, 325920, Note_on_c, 0, 61, 95
2, 325920, Note_on_c, 0, 57, 95
2, 326160, Note_off_c, 0, 64, 95
2, 326160, Note_off_c, 0, 59, 95
2, 326160, Note_off_c, 0, 61, 95
2, 326160, Note_off_c, 0, 57, 95
2, 326160, Note_on_c, 0, 64, 95
2, 326160, Note_on_c, 0, 59, 95
2, 326160, Note_on_c, 0, 61, 95
2, 326160, Note_on_c, 0, 57, 95
2, 326400, Note_off_c, 0, 64, 95
2, 326400, Note_off_c, 0, 59, 95
2, 326400, Note_off_c, 0, 61, 95
2, 326400, Note_off_c, 0, 57, 95
2, 326400, Note_on_c, 0, 64, 95
2, 326400, Note_on_c, 0, 59, 95
2, 326400, Note_on_c, 0, 61, 95
2, 326400, Note_on_c, 0, 57, 95
2, 326640, Note_off_c, 0, 64, 95
2, 326640, Note_off_c, 0, 59, 95
2, 326640, Note_off_c, 0, 61, 95
2, 326640, Note_off_c, 0, 57, 95
2, 326640, Note_on_c, 0, 62, 95
2, 326640, Note_on_c, 0, 57, 95
2, 326880, Note_off_c, 0, 62, 95
2, 326880, Note_off_c, 0, 57, 95
2, 326880, Note_on_c, 0, 64, 95
2, 326880, Note_on_c, 0, 59, 95
2, 326880, Note_on_c, 0, 61, 95
2, 326880, Note_on_c, 0, 57, 95
2, 326880, Note_on_c, 0, 45, 95
2, 327360, Note_off_c, 0, 64, 95
2, 327360, Note_off_c, 0, 59, 95
2, 327360, Note_off_c, 0, 61, 95
2, 327360, Note_off_c, 0, 57, 95
2, 327360, Note_off_c, 0, 45, 95
2, 327360, Note_on_c, 0, 64, 95
2, 327360, Note_on_c, 0, 59, 95
2, 327360, Note_on_c, 0, 61, 95
2, 327360, Note_on_c, 0, 57, 95
2, 327600, Note_off_c, 0, 64, 95
2, 327600, Note_off_c, 0, 59, 95
2, 327600, Note_off_c, 0, 61, 95
2, 327600, Note_off_c, 0, 57, 95
2, 327600, Note_on_c, 0, 64, 95
2, 327600, Note_on_c, 0, 59, 95
2, 327600, Note_on_c, 0, 61, 95
2, 327600, Note_on_c, 0, 57, 95
2, 327840, Note_off_c, 0, 64, 95
2, 327840, Note_off_c, 0, 59, 95
2, 327840, Note_off_c, 0, 61, 95
2, 327840, Note_off_c, 0, 57, 95
2, 327840, Note_on_c, 0, 64, 95
2, 327840, Note_on_c, 0, 59, 95
2, 327840, Note_on_c, 0, 61, 95
2, 327840, Note_on_c, 0, 57, 95
2, 328080, Note_off_c, 0, 64, 95
2, 328080, Note_off_c, 0, 59, 95
2, 328080, Note_off_c, 0, 61, 95
2, 328080, Note_off_c, 0, 57, 95
2, 328080, Note_on_c, 0, 59, 95
2, 328080, Note_on_c, 0, 55, 95
2, 328080, Note_on_c, 0, 50, 95
2, 328320, Note_off_c, 0, 59, 95
2, 328320, Note_off_c, 0, 55, 95
2, 328320, Note_off_c, 0, 50, 95
2, 328320, Note_on_c, 0, 59, 95
2, 328320, Note_on_c, 0, 55, 95
2, 328320, Note_on_c, 0, 52, 95
2, 328320, Note_on_c, 0, 47, 95
2, 328320, Note_on_c, 0, 40, 95
2, 328800, Note_off_c, 0, 59, 95
2, 328800, Note_off_c, 0, 55, 95
2, 328800, Note_off_c, 0, 52, 95
2, 328800, Note_off_c, 0, 47, 95
2, 328800, Note_off_c, 0, 40, 95
2, 328800, Note_on_c, 0, 59, 95
2, 328800, Note_on_c, 0, 55, 95
2, 328800, Note_on_c, 0, 52, 95
2, 329040, Note_off_c, 0, 59, 95
2, 329040, Note_off_c, 0, 55, 95
2, 329040, Note_off_c, 0, 52, 95
2, 329040, Note_on_c, 0, 59, 95
2, 329040, Note_on_c, 0, 55, 95
2, 329040, Note_on_c, 0, 52, 95
2, 329280, Note_off_c, 0, 59, 95
2, 329280, Note_off_c, 0, 55, 95
2, 329280, Note_off_c, 0, 52, 95
2, 329280, Note_on_c, 0, 59, 95
2, 329280, Note_on_c, 0, 55, 95
2, 329280, Note_on_c, 0, 52, 95
2, 329520, Note_off_c, 0, 59, 95
2, 329520, Note_off_c, 0, 55, 95
2, 329520, Note_off_c, 0, 52, 95
2, 329520, Note_on_c, 0, 59, 95
2, 329520, Note_on_c, 0, 55, 95
2, 329520, Note_on_c, 0, 52, 95
2, 329760, Note_off_c, 0, 59, 95
2, 329760, Note_off_c, 0, 55, 95
2, 329760, Note_off_c, 0, 52, 95
2, 329760, Note_on_c, 0, 63, 95
2, 329760, Note_on_c, 0, 57, 95
2, 329760, Note_on_c, 0, 54, 95
2, 329760, Note_on_c, 0, 42, 95
2, 330240, Note_off_c, 0, 63, 95
2, 330240, Note_off_c, 0, 57, 95
2, 330240, Note_off_c, 0, 54, 95
2, 330240, Note_off_c, 0, 42, 95
2, 330240, Note_on_c, 0, 63, 95
2, 330240, Note_on_c, 0, 57, 95
2, 330240, Note_on_c, 0, 54, 95
2, 330480, Note_off_c, 0, 63, 95
2, 330480, Note_off_c, 0, 57, 95
2, 330480, Note_off_c, 0, 54, 95
2, 330480, Note_on_c, 0, 63, 95
2, 330480, Note_on_c, 0, 57, 95
2, 330480, Note_on_c, 0, 54, 95
2, 330720, Note_off_c, 0, 63, 95
2, 330720, Note_off_c, 0, 57, 95
2, 330720, Note_off_c, 0, 54, 95
2, 330720, Note_on_c, 0, 63, 95
2, 330720, Note_on_c, 0, 57, 95
2, 330720, Note_on_c, 0, 54, 95
2, 330960, Note_off_c, 0, 63, 95
2, 330960, Note_off_c, 0, 57, 95
2, 330960, Note_off_c, 0, 54, 95
2, 330960, Note_on_c, 0, 63, 95
2, 330960, Note_on_c, 0, 57, 95
2, 330960, Note_on_c, 0, 54, 95
2, 331200, Note_off_c, 0, 63, 95
2, 331200, Note_off_c, 0, 57, 95
2, 331200, Note_off_c, 0, 54, 95
2, 331200, Note_on_c, 0, 64, 95
2, 331200, Note_on_c, 0, 59, 95
2, 331200, Note_on_c, 0, 55, 95
2, 331200, Note_on_c, 0, 43, 95
2, 331680, Note_off_c, 0, 64, 95
2, 331680, Note_off_c, 0, 59, 95
2, 331680, Note_off_c, 0, 55, 95
2, 331680, Note_off_c, 0, 43, 95
2, 331680, Note_on_c, 0, 64, 95
2, 331680, Note_on_c, 0, 59, 95
2, 331680, Note_on_c, 0, 55, 95
2, 331920, Note_off_c, 0, 64, 95
2, 331920, Note_off_c, 0, 59, 95
2, 331920, Note_off_c, 0, 55, 95
2, 331920, Note_on_c, 0, 64, 95
2, 331920, Note_on_c, 0, 59, 95
2, 331920, Note_on_c, 0, 55, 95
2, 332160, Note_off_c, 0, 64, 95
2, 332160, Note_off_c, 0, 59, 95
2, 332160, Note_off_c, 0, 55, 95
2, 332160, Note_on_c, 0, 64, 95
2, 332160, Note_on_c, 0, 59, 95
2, 332160, Note_on_c, 0, 55, 95
2, 332400, Note_off_c, 0, 64, 95
2, 332400, Note_off_c, 0, 59, 95
2, 332400, Note_off_c, 0, 55, 95
2, 332400, Note_on_c, 0, 64, 95
2, 332400, Note_on_c, 0, 59, 95
2, 332400, Note_on_c, 0, 55, 95
2, 332640, Note_off_c, 0, 64, 95
2, 332640, Note_off_c, 0, 59, 95
2, 332640, Note_off_c, 0, 55, 95
2, 332640, Note_on_c, 1, 64, 95
2, 332640, Note_on_c, 1, 59, 95
2, 332640, Note_on_c, 1, 55, 95
2, 332640, Note_on_c, 1, 43, 95
2, 332760, Pitch_bend_c, 1, 8832
2, 332760, Pitch_bend_c, 1, 8832
2, 332760, Pitch_bend_c, 1, 8832
2, 332760, Pitch_bend_c, 1, 8832
2, 332880, Pitch_bend_c, 1, 9600
2, 332880, Pitch_bend_c, 1, 8192
2, 332880, Note_off_c, 1, 64, 95
2, 332880, Pitch_bend_c, 1, 9600
2, 332880, Pitch_bend_c, 1, 8192
2, 332880, Note_off_c, 1, 59, 95
2, 332880, Pitch_bend_c, 1, 9600
2, 332880, Pitch_bend_c, 1, 8192
2, 332880, Note_off_c, 1, 55, 95
2, 332880, Pitch_bend_c, 1, 9600
2, 332880, Pitch_bend_c, 1, 8192
2, 332880, Note_off_c, 1, 43, 95
2, 332880, Note_on_c, 0, 66, 95
2, 332880, Note_on_c, 0, 61, 95
2, 332880, Note_on_c, 0, 57, 95
2, 332880, Note_on_c, 0, 45, 95
2, 333120, Note_off_c, 0, 66, 95
2, 333120, Note_off_c, 0, 61, 95
2, 333120, Note_off_c, 0, 57, 95
2, 333120, Note_off_c, 0, 45, 95
2, 333120, Note_on_c, 0, 66, 95
2, 333120, Note_on_c, 0, 61, 95
2, 333120, Note_on_c, 0, 57, 95
2, 333360, Note_off_c, 0, 66, 95
2, 333360, Note_off_c, 0, 61, 95
2, 333360, Note_off_c, 0, 57, 95
2, 333360, Note_on_c, 0, 66, 95
2, 333360, Note_on_c, 0, 61, 95
2, 333360, Note_on_c, 0, 57, 95
2, 333600, Note_off_c, 0, 66, 95
2, 333600, Note_off_c, 0, 61, 95
2, 333600, Note_off_c, 0, 57, 95
2, 333600, Note_on_c, 0, 66, 95
2, 333600, Note_on_c, 0, 61, 95
2, 333600, Note_on_c, 0, 57, 95
2, 333840, Note_off_c, 0, 66, 95
2, 333840, Note_off_c, 0, 61, 95
2, 333840, Note_off_c, 0, 57, 95
2, 333840, Note_on_c, 0, 66, 95
2, 333840, Note_on_c, 0, 61, 95
2, 333840, Note_on_c, 0, 57, 95
2, 334080, Note_off_c, 0, 66, 95
2, 334080, Note_off_c, 0, 61, 95
2, 334080, Note_off_c, 0, 57, 95
2, 334080, Note_on_c, 0, 66, 95
2, 334080, Note_on_c, 0, 62, 95
2, 334080, Note_on_c, 0, 57, 95
2, 334080, Note_on_c, 0, 47, 95
2, 334320, Note_off_c, 0, 66, 95
2, 334320, Note_off_c, 0, 62, 95
2, 334320, Note_off_c, 0, 57, 95
2, 334320, Note_off_c, 0, 47, 95
2, 334320, Note_on_c, 0, 59, 70
2, 334560, Note_off_c, 0, 59, 70
2, 334560, Note_on_c, 0, 47, 95
2, 334800, Note_off_c, 0, 47, 95
2, 334800, Note_on_c, 0, 64, 95
2, 334800, Note_on_c, 0, 59, 95
2, 334800, Note_on_c, 0, 62, 95
2, 334800, Note_on_c, 0, 59, 95
2, 335280, Note_off_c, 0, 64, 95
2, 335280, Note_off_c, 0, 59, 95
2, 335280, Note_off_c, 0, 62, 95
2, 335280, Note_off_c, 0, 59, 95
2, 335280, Note_on_c, 0, 64, 95
2, 335280, Note_on_c, 0, 59, 95
2, 335280, Note_on_c, 0, 62, 95
2, 335280, Note_on_c, 0, 59, 95
2, 335520, Note_off_c, 0, 64, 95
2, 335520, Note_off_c, 0, 59, 95
2, 335520, Note_off_c, 0, 62, 95
2, 335520, Note_off_c, 0, 59, 95
2, 335520, Note_on_c, 0, 64, 95
2, 335520, Note_on_c, 0, 59, 95
2, 335520, Note_on_c, 0, 62, 95
2, 335520, Note_on_c, 0, 59, 95
2, 335520, Note_on_c, 0, 47, 95
2, 336000, Note_off_c, 0, 64, 95
2, 336000, Note_off_c, 0, 59, 95
2, 336000, Note_off_c, 0, 62, 95
2, 336000, Note_off_c, 0, 59, 95
2, 336000, Note_off_c, 0, 47, 95
2, 336000, Note_on_c, 0, 64, 95
2, 336000, Note_on_c, 0, 59, 95
2, 336000, Note_on_c, 0, 62, 95
2, 336000, Note_on_c, 0, 59, 95
2, 336240, Note_off_c, 0, 64, 95
2, 336240, Note_off_c, 0, 59, 95
2, 336240, Note_off_c, 0, 62, 95
2, 336240, Note_off_c, 0, 59, 95
2, 336240, Note_on_c, 0, 64, 95
2, 336240, Note_on_c, 0, 59, 95
2, 336240, Note_on_c, 0, 62, 95
2, 336240, Note_on_c, 0, 59, 95
2, 336480, Note_off_c, 0, 64, 95
2, 336480, Note_off_c, 0, 59, 95
2, 336480, Note_off_c, 0, 62, 95
2, 336480, Note_off_c, 0, 59, 95
2, 336480, Note_on_c, 0, 64, 95
2, 336480, Note_on_c, 0, 59, 95
2, 336480, Note_on_c, 0, 62, 95
2, 336480, Note_on_c, 0, 59, 95
2, 336720, Note_off_c, 0, 64, 95
2, 336720, Note_off_c, 0, 59, 95
2, 336720, Note_off_c, 0, 62, 95
2, 336720, Note_off_c, 0, 59, 95
2, 336720, Note_on_c, 0, 64, 95
2, 336720, Note_on_c, 0, 59, 95
2, 336720, Note_on_c, 0, 62, 95
2, 336720, Note_on_c, 0, 59, 95
2, 336960, Note_off_c, 0, 64, 95
2, 336960, Note_off_c, 0, 59, 95
2, 336960, Note_off_c, 0, 62, 95
2, 336960, Note_off_c, 0, 59, 95
2, 336960, Note_on_c, 0, 64, 95
2, 336960, Note_on_c, 0, 59, 95
2, 336960, Note_on_c, 0, 61, 95
2, 336960, Note_on_c, 0, 57, 95
2, 336960, Note_on_c, 0, 45, 95
2, 337440, Note_off_c, 0, 64, 95
2, 337440, Note_off_c, 0, 59, 95
2, 337440, Note_off_c, 0, 61, 95
2, 337440, Note_off_c, 0, 57, 95
2, 337440, Note_off_c, 0, 45, 95
2, 337440, Note_on_c, 0, 64, 95
2, 337440, Note_on_c, 0, 59, 95
2, 337440, Note_on_c, 0, 61, 95
2, 337440, Note_on_c, 0, 57, 95
2, 337680, Note_off_c, 0, 64, 95
2, 337680, Note_off_c, 0, 59, 95
2, 337680, Note_off_c, 0, 61, 95
2, 337680, Note_off_c, 0, 57, 95
2, 337680, Note_on_c, 0, 64, 95
2, 337680, Note_on_c, 0, 59, 95
2, 337680, Note_on_c, 0, 61, 95
2, 337680, Note_on_c, 0, 57, 95
2, 337920, Note_off_c, 0, 64, 95
2, 337920, Note_off_c, 0, 59, 95
2, 337920, Note_off_c, 0, 61, 95
2, 337920, Note_off_c, 0, 57, 95
2, 337920, Note_on_c, 0, 64, 95
2, 337920, Note_on_c, 0, 59, 95
2, 337920, Note_on_c, 0, 61, 95
2, 337920, Note_on_c, 0, 57, 95
2, 338160, Note_off_c, 0, 64, 95
2, 338160, Note_off_c, 0, 59, 95
2, 338160, Note_off_c, 0, 61, 95
2, 338160, Note_off_c, 0, 57, 95
2, 338160, Note_on_c, 0, 62, 95
2, 338160, Note_on_c, 0, 57, 95
2, 338400, Note_off_c, 0, 62, 95
2, 338400, Note_off_c, 0, 57, 95
2, 338400, Note_on_c, 0, 64, 95
2, 338400, Note_on_c, 0, 59, 95
2, 338400, Note_on_c, 0, 61, 95
2, 338400, Note_on_c, 0, 57, 95
2, 338400, Note_on_c, 0, 45, 95
2, 338880, Note_off_c, 0, 64, 95
2, 338880, Note_off_c, 0, 59, 95
2, 338880, Note_off_c, 0, 61, 95
2, 338880, Note_off_c, 0, 57, 95
2, 338880, Note_off_c, 0, 45, 95
2, 338880, Note_on_c, 0, 64, 95
2, 338880, Note_on_c, 0, 59, 95
2, 338880, Note_on_c, 0, 61, 95
2, 338880, Note_on_c, 0, 57, 95
2, 339120, Note_off_c, 0, 64, 95
2, 339120, Note_off_c, 0, 59, 95
2, 339120, Note_off_c, 0, 61, 95
2, 339120, Note_off_c, 0, 57, 95
2, 339120, Note_on_c, 0, 64, 95
2, 339120, Note_on_c, 0, 59, 95
2, 339120, Note_on_c, 0, 61, 95
2, 339120, Note_on_c, 0, 57, 95
2, 339360, Note_off_c, 0, 64, 95
2, 339360, Note_off_c, 0, 59, 95
2, 339360, Note_off_c, 0, 61, 95
2, 339360, Note_off_c, 0, 57, 95
2, 339360, Note_on_c, 0, 64, 95
2, 339360, Note_on_c, 0, 59, 95
2, 339360, Note_on_c, 0, 61, 95
2, 339360, Note_on_c, 0, 57, 95
2, 339600, Note_off_c, 0, 64, 95
2, 339600, Note_off_c, 0, 59, 95
2, 339600, Note_off_c, 0, 61, 95
2, 339600, Note_off_c, 0, 57, 95
2, 339600, Note_on_c, 0, 59, 95
2, 339600, Note_on_c, 0, 55, 95
2, 339600, Note_on_c, 0, 50, 95
2, 339840, Note_off_c, 0, 59, 95
2, 339840, Note_off_c, 0, 55, 95
2, 339840, Note_off_c, 0, 50, 95
2, 339840, Note_on_c, 0, 59, 95
2, 339840, Note_on_c, 0, 55, 95
2, 339840, Note_on_c, 0, 52, 95
2, 339840, Note_on_c, 0, 47, 95
2, 339840, Note_on_c, 0, 40, 95
2, 340320, Note_off_c, 0, 59, 95
2, 340320, Note_off_c, 0, 55, 95
2, 340320, Note_off_c, 0, 52, 95
2, 340320, Note_off_c, 0, 47, 95
2, 340320, Note_off_c, 0, 40, 95
2, 340320, Note_on_c, 0, 59, 95
2, 340320, Note_on_c, 0, 55, 95
2, 340320, Note_on_c, 0, 52, 95
2, 340320, Note_on_c, 0, 47, 95
2, 340560, Note_off_c, 0, 59, 95
2, 340560, Note_off_c, 0, 55, 95
2, 340560, Note_off_c, 0, 52, 95
2, 340560, Note_off_c, 0, 47, 95
2, 340560, Note_on_c, 0, 59, 95
2, 340560, Note_on_c, 0, 55, 95
2, 340560, Note_on_c, 0, 52, 95
2, 340560, Note_on_c, 0, 47, 95
2, 340800, Note_off_c, 0, 59, 95
2, 340800, Note_off_c, 0, 55, 95
2, 340800, Note_off_c, 0, 52, 95
2, 340800, Note_off_c, 0, 47, 95
2, 340800, Note_on_c, 0, 59, 95
2, 340800, Note_on_c, 0, 55, 95
2, 340800, Note_on_c, 0, 52, 95
2, 340800, Note_on_c, 0, 47, 95
2, 341040, Note_off_c, 0, 59, 95
2, 341040, Note_off_c, 0, 55, 95
2, 341040, Note_off_c, 0, 52, 95
2, 341040, Note_off_c, 0, 47, 95
2, 341040, Note_on_c, 0, 59, 95
2, 341040, Note_on_c, 0, 55, 95
2, 341040, Note_on_c, 0, 52, 95
2, 341040, Note_on_c, 0, 47, 95
2, 341280, Note_off_c, 0, 59, 95
2, 341280, Note_off_c, 0, 55, 95
2, 341280, Note_off_c, 0, 52, 95
2, 341280, Note_off_c, 0, 47, 95
2, 341280, Note_on_c, 0, 64, 95
2, 341280, Note_on_c, 0, 59, 95
2, 341280, Note_on_c, 0, 55, 95
2, 341280, Note_on_c, 0, 52, 95
2, 341280, Note_on_c, 0, 47, 95
2, 341280, Note_on_c, 0, 40, 95
2, 341760, Note_off_c, 0, 64, 95
2, 341760, Note_off_c, 0, 59, 95
2, 341760, Note_off_c, 0, 55, 95
2, 341760, Note_off_c, 0, 52, 95
2, 341760, Note_off_c, 0, 47, 95
2, 341760, Note_off_c, 0, 40, 95
2, 341760, Note_on_c, 0, 59, 95
2, 341760, Note_on_c, 0, 55, 95
2, 341760, Note_on_c, 0, 52, 95
2, 341760, Note_on_c, 0, 47, 95
2, 342000, Note_off_c, 0, 59, 95
2, 342000, Note_off_c, 0, 55, 95
2, 342000, Note_off_c, 0, 52, 95
2, 342000, Note_off_c, 0, 47, 95
2, 342000, Note_on_c, 0, 59, 95
2, 342000, Note_on_c, 0, 55, 95
2, 342000, Note_on_c, 0, 52, 95
2, 342000, Note_on_c, 0, 47, 95
2, 342240, Note_off_c, 0, 59, 95
2, 342240, Note_off_c, 0, 55, 95
2, 342240, Note_off_c, 0, 52, 95
2, 342240, Note_off_c, 0, 47, 95
2, 342240, Note_on_c, 0, 59, 95
2, 342240, Note_on_c, 0, 55, 95
2, 342240, Note_on_c, 0, 52, 95
2, 342240, Note_on_c, 0, 47, 95
2, 342480, Note_off_c, 0, 59, 95
2, 342480, Note_off_c, 0, 55, 95
2, 342480, Note_off_c, 0, 52, 95
2, 342480, Note_off_c, 0, 47, 95
2, 342480, Note_on_c, 0, 59, 95
2, 342480, Note_on_c, 0, 55, 95
2, 342480, Note_on_c, 0, 52, 95
2, 342480, Note_on_c, 0, 47, 95
2, 342720, Note_off_c, 0, 59, 95
2, 342720, Note_off_c, 0, 55, 95
2, 342720, Note_off_c, 0, 52, 95
2, 342720, Note_off_c, 0, 47, 95
2, 342720, Note_on_c, 0, 59, 95
2, 342720, Note_on_c, 0, 55, 95
2, 342720, Note_on_c, 0, 52, 95
2, 342720, Note_on_c, 0, 47, 95
2, 342720, Note_on_c, 0, 40, 95
2, 343200, Note_off_c, 0, 59, 95
2, 343200, Note_off_c, 0, 55, 95
2, 343200, Note_off_c, 0, 52, 95
2, 343200, Note_off_c, 0, 47, 95
2, 343200, Note_off_c, 0, 40, 95
2, 343200, Note_on_c, 0, 59, 95
2, 343200, Note_on_c, 0, 55, 95
2, 343200, Note_on_c, 0, 52, 95
2, 343200, Note_on_c, 0, 47, 95
2, 343440, Note_off_c, 0, 59, 95
2, 343440, Note_off_c, 0, 55, 95
2, 343440, Note_off_c, 0, 52, 95
2, 343440, Note_off_c, 0, 47, 95
2, 343440, Note_on_c, 0, 59, 95
2, 343440, Note_on_c, 0, 55, 95
2, 343440, Note_on_c, 0, 52, 95
2, 343440, Note_on_c, 0, 47, 95
2, 343680, Note_off_c, 0, 59, 95
2, 343680, Note_off_c, 0, 55, 95
2, 343680, Note_off_c, 0, 52, 95
2, 343680, Note_off_c, 0, 47, 95
2, 343680, Note_on_c, 0, 59, 95
2, 343680, Note_on_c, 0, 55, 95
2, 343680, Note_on_c, 0, 52, 95
2, 343680, Note_on_c, 0, 47, 95
2, 343920, Note_off_c, 0, 59, 95
2, 343920, Note_off_c, 0, 55, 95
2, 343920, Note_off_c, 0, 52, 95
2, 343920, Note_off_c, 0, 47, 95
2, 343920, Note_on_c, 0, 59, 95
2, 343920, Note_on_c, 0, 55, 95
2, 343920, Note_on_c, 0, 52, 95
2, 343920, Note_on_c, 0, 47, 95
2, 344160, Note_off_c, 0, 59, 95
2, 344160, Note_off_c, 0, 55, 95
2, 344160, Note_off_c, 0, 52, 95
2, 344160, Note_off_c, 0, 47, 95
2, 344160, Note_on_c, 0, 64, 95
2, 344160, Note_on_c, 0, 59, 95
2, 344160, Note_on_c, 0, 55, 95
2, 344160, Note_on_c, 0, 52, 95
2, 344160, Note_on_c, 0, 47, 95
2, 344160, Note_on_c, 0, 40, 95
2, 344640, Note_off_c, 0, 64, 95
2, 344640, Note_off_c, 0, 59, 95
2, 344640, Note_off_c, 0, 55, 95
2, 344640, Note_off_c, 0, 52, 95
2, 344640, Note_off_c, 0, 47, 95
2, 344640, Note_off_c, 0, 40, 95
2, 344640, Note_on_c, 0, 59, 95
2, 344640, Note_on_c, 0, 55, 95
2, 344640, Note_on_c, 0, 52, 95
2, 344640, Note_on_c, 0, 47, 95
2, 344880, Note_off_c, 0, 59, 95
2, 344880, Note_off_c, 0, 55, 95
2, 344880, Note_off_c, 0, 52, 95
2, 344880, Note_off_c, 0, 47, 95
2, 344880, Note_on_c, 0, 59, 95
2, 344880, Note_on_c, 0, 55, 95
2, 344880, Note_on_c, 0, 52, 95
2, 344880, Note_on_c, 0, 47, 95
2, 345120, Note_off_c, 0, 59, 95
2, 345120, Note_off_c, 0, 55, 95
2, 345120, Note_off_c, 0, 52, 95
2, 345120, Note_off_c, 0, 47, 95
2, 345120, Note_on_c, 0, 59, 95
2, 345120, Note_on_c, 0, 55, 95
2, 345120, Note_on_c, 0, 52, 95
2, 345120, Note_on_c, 0, 47, 95
2, 345360, Note_off_c, 0, 59, 95
2, 345360, Note_off_c, 0, 55, 95
2, 345360, Note_off_c, 0, 52, 95
2, 345360, Note_off_c, 0, 47, 95
2, 345360, Note_on_c, 0, 59, 95
2, 345360, Note_on_c, 0, 55, 95
2, 345360, Note_on_c, 0, 52, 95
2, 345360, Note_on_c, 0, 47, 95
2, 345600, Note_off_c, 0, 59, 95
2, 345600, Note_off_c, 0, 55, 95
2, 345600, Note_off_c, 0, 52, 95
2, 345600, Note_off_c, 0, 47, 95
2, 345600, Note_on_c, 0, 53, 95
2, 345840, Note_off_c, 0, 53, 95
2, 345840, Note_on_c, 0, 56, 95
2, 346080, Note_off_c, 0, 56, 95
2, 346080, Note_on_c, 0, 60, 95
2, 346320, Note_off_c, 0, 60, 95
2, 346320, Note_on_c, 0, 65, 95
2, 346560, Note_off_c, 0, 65, 95
2, 346560, Note_on_c, 0, 62, 95
2, 346800, Note_off_c, 0, 62, 95
2, 346800, Note_on_c, 0, 60, 70
2, 347040, Note_off_c, 0, 60, 70
2, 347040, Note_on_c, 0, 58, 95
2, 347280, Note_off_c, 0, 58, 95
2, 347280, Note_on_c, 0, 56, 70
2, 347520, Note_off_c, 0, 56, 70
2, 347520, Note_on_c, 0, 58, 95
2, 347760, Note_off_c, 0, 58, 95
2, 347760, Note_on_c, 0, 56, 70
2, 348000, Note_off_c, 0, 56, 70
2, 348000, Note_on_c, 0, 58, 95
2, 348240, Note_off_c, 0, 58, 95
2, 348240, Note_on_c, 0, 56, 70
2, 348480, Note_off_c, 0, 56, 70
2, 348480, Note_on_c, 0, 53, 95
2, 348720, Note_off_c, 0, 53, 95
2, 348720, Note_on_c, 0, 56, 95
2, 348960, Note_off_c, 0, 56, 95
2, 348960, Note_on_c, 0, 60, 95
2, 349200, Note_off_c, 0, 60, 95
2, 349200, Note_on_c, 0, 65, 95
2, 349440, Note_off_c, 0, 65, 95
2, 349440, Note_on_c, 0, 62, 95
2, 349680, Note_off_c, 0, 62, 95
2, 349680, Note_on_c, 0, 60, 70
2, 349920, Note_off_c, 0, 60, 70
2, 349920, Note_on_c, 0, 67, 95
2, 350160, Note_off_c, 0, 67, 95
2, 350160, Note_on_c, 0, 65, 70
2, 350400, Note_off_c, 0, 65, 70
2, 350400, Note_on_c, 0, 62, 95
2, 350640, Note_off_c, 0, 62, 95
2, 350640, Note_on_c, 0, 60, 70
2, 350880, Note_off_c, 0, 60, 70
2, 350880, Note_on_c, 0, 58, 95
2, 351120, Note_off_c, 0, 58, 95
2, 351120, Note_on_c, 0, 56, 70
2, 351360, Note_off_c, 0, 56, 70
2, 351360, Note_on_c, 0, 55, 95
2, 351600, Note_off_c, 0, 55, 95
2, 351600, Note_on_c, 0, 58, 95
2, 351840, Note_off_c, 0, 58, 95
2, 351840, Note_on_c, 0, 62, 95
2, 352080, Note_off_c, 0, 62, 95
2, 352080, Note_on_c, 0, 67, 95
2, 352320, Note_off_c, 0, 67, 95
2, 352320, Note_on_c, 0, 64, 95
2, 352560, Note_off_c, 0, 64, 95
2, 352560, Note_on_c, 0, 62, 70
2, 352800, Note_off_c, 0, 62, 70
2, 352800, Note_on_c, 0, 60, 95
2, 353040, Note_off_c, 0, 60, 95
2, 353040, Note_on_c, 0, 58, 70
2, 353280, Note_off_c, 0, 58, 70
2, 353280, Note_on_c, 0, 60, 95
2, 353520, Note_off_c, 0, 60, 95
2, 353520, Note_on_c, 0, 58, 70
2, 353760, Note_off_c, 0, 58, 70
2, 353760, Note_on_c, 0, 60, 95
2, 354000, Note_off_c, 0, 60, 95
2, 354000, Note_on_c, 0, 58, 70
2, 354240, Note_off_c, 0, 58, 70
2, 354240, Note_on_c, 0, 55, 95
2, 354480, Note_off_c, 0, 55, 95
2, 354480, Note_on_c, 0, 58, 95
2, 354720, Note_off_c, 0, 58, 95
2, 354720, Note_on_c, 0, 62, 95
2, 354960, Note_off_c, 0, 62, 95
2, 354960, Note_on_c, 0, 67, 95
2, 355200, Note_off_c, 0, 67, 95
2, 355200, Note_on_c, 0, 64, 95
2, 355440, Note_off_c, 0, 64, 95
2, 355440, Note_on_c, 0, 62, 70
2, 355680, Note_off_c, 0, 62, 70
2, 355680, Note_on_c, 0, 69, 95
2, 355920, Note_off_c, 0, 69, 95
2, 355920, Note_on_c, 0, 67, 70
2, 356160, Note_off_c, 0, 67, 70
2, 356160, Note_on_c, 0, 64, 95
2, 356400, Note_off_c, 0, 64, 95
2, 356400, Note_on_c, 0, 62, 70
2, 356640, Note_off_c, 0, 62, 70
2, 356640, Note_on_c, 0, 60, 95
2, 356880, Note_off_c, 0, 60, 95
2, 356880, Note_on_c, 0, 58, 70
2, 357120, Note_off_c, 0, 58, 70
2, 357120, Note_on_c, 0, 64, 95
2, 357120, Note_on_c, 0, 59, 95
2, 357120, Note_on_c, 0, 55, 95
2, 357120, Note_on_c, 0, 52, 95
2, 357120, Note_on_c, 0, 47, 95
2, 357120, Note_on_c, 0, 40, 95
2, 362880, Note_off_c, 0, 64, 95
2, 362880, Note_off_c, 0, 59, 95
2, 362880, Note_off_c, 0, 55, 95
2, 362880, Note_off_c, 0, 52, 95
2, 362880, Note_off_c, 0, 47, 95
2, 362880, Note_off_c, 0, 40, 95
2, 362880, Note_on_c, 0, 73, 95
2, 362880, Note_on_c, 0, 69, 95
2, 362880, Note_on_c, 0, 64, 95
2, 362880, Note_on_c, 0, 45, 63
2, 362880, Note_on_c, 0, 38, 63
2, 363120, Note_off_c, 0, 73, 95
2, 363120, Note_off_c, 0, 69, 95
2, 363120, Note_off_c, 0, 64, 95
2, 363120, Note_off_c, 0, 45, 63
2, 363120, Note_off_c, 0, 38, 63
2, 363120, Note_on_c, 0, 74, 70
2, 363120, Note_on_c, 0, 66, 70
2, 363360, Note_off_c, 0, 74, 70
2, 363360, Note_off_c, 0, 66, 70
2, 363360, Note_on_c, 0, 74, 95
2, 363360, Note_on_c, 0, 69, 95
2, 363360, Note_on_c, 0, 66, 95
2, 363600, Note_off_c, 0, 74, 95
2, 363600, Note_off_c, 0, 69, 95
2, 363600, Note_off_c, 0, 66, 95
2, 363600, Note_on_c, 0, 73, 95
2, 363600, Note_on_c, 0, 69, 95
2, 363600, Note_on_c, 0, 64, 95
2, 363840, Note_off_c, 0, 73, 95
2, 363840, Note_off_c, 0, 69, 95
2, 363840, Note_off_c, 0, 64, 95
2, 363840, Note_on_c, 0, 59, 95
2, 363840, Note_on_c, 0, 55, 95
2, 363840, Note_on_c, 0, 50, 95
2, 363889, Note_off_c, 0, 59, 95
2, 363889, Note_off_c, 0, 55, 95
2, 363889, Note_off_c, 0, 50, 95
2, 364080, Note_on_c, 0, 73, 95
2, 364080, Note_on_c, 0, 69, 95
2, 364080, Note_on_c, 0, 64, 95
2, 364320, Note_off_c, 0, 73, 95
2, 364320, Note_off_c, 0, 69, 95
2, 364320, Note_off_c, 0, 64, 95
2, 364320, Note_on_c, 0, 73, 95
2, 364320, Note_on_c, 0, 69, 95
2, 364320, Note_on_c, 0, 64, 95
2, 364560, Note_off_c, 0, 73, 95
2, 364560, Note_off_c, 0, 69, 95
2, 364560, Note_off_c, 0, 64, 95
2, 364560, Note_on_c, 0, 74, 70
2, 364560, Note_on_c, 0, 66, 70
2, 364800, Note_off_c, 0, 74, 70
2, 364800, Note_off_c, 0, 66, 70
2, 364800, Note_on_c, 0, 74, 95
2, 364800, Note_on_c, 0, 69, 95
2, 364800, Note_on_c, 0, 66, 95
2, 365040, Note_off_c, 0, 74, 95
2, 365040, Note_off_c, 0, 69, 95
2, 365040, Note_off_c, 0, 66, 95
2, 365040, Note_on_c, 0, 73, 95
2, 365040, Note_on_c, 0, 69, 95
2, 365040, Note_on_c, 0, 64, 95
2, 365280, Note_off_c, 0, 73, 95
2, 365280, Note_off_c, 0, 69, 95
2, 365280, Note_off_c, 0, 64, 95
2, 365280, Note_on_c, 0, 59, 95
2, 365280, Note_on_c, 0, 55, 95
2, 365280, Note_on_c, 0, 50, 95
2, 365329, Note_off_c, 0, 59, 95
2, 365329, Note_off_c, 0, 55, 95
2, 365329, Note_off_c, 0, 50, 95
2, 365520, Note_on_c, 0, 73, 95
2, 365520, Note_on_c, 0, 69, 95
2, 365520, Note_on_c, 0, 64, 95
2, 365760, Note_off_c, 0, 73, 95
2, 365760, Note_off_c, 0, 69, 95
2, 365760, Note_off_c, 0, 64, 95
2, 365760, Note_on_c, 0, 73, 95
2, 365760, Note_on_c, 0, 69, 95
2, 365760, Note_on_c, 0, 64, 95
2, 366000, Note_off_c, 0, 73, 95
2, 366000, Note_off_c, 0, 69, 95
2, 366000, Note_off_c, 0, 64, 95
2, 366000, Note_on_c, 0, 74, 70
2, 366000, Note_on_c, 0, 66, 70
2, 366240, Note_off_c, 0, 74, 70
2, 366240, Note_off_c, 0, 66, 70
2, 366240, Note_on_c, 0, 81, 95
2, 366240, Note_on_c, 0, 74, 95
2, 366240, Note_on_c, 0, 69, 95
2, 366480, Note_off_c, 0, 81, 95
2, 366480, Note_off_c, 0, 74, 95
2, 366480, Note_off_c, 0, 69, 95
2, 366480, Note_on_c, 0, 81, 95
2, 366480, Note_on_c, 0, 74, 95
2, 366480, Note_on_c, 0, 69, 95
2, 366720, Note_off_c, 0, 81, 95
2, 366720, Note_off_c, 0, 74, 95
2, 366720, Note_off_c, 0, 69, 95
2, 366720, Note_on_c, 0, 81, 95
2, 366720, Note_on_c, 0, 74, 95
2, 366720, Note_on_c, 0, 69, 95
2, 366960, Note_off_c, 0, 81, 95
2, 366960, Note_off_c, 0, 74, 95
2, 366960, Note_off_c, 0, 69, 95
2, 366960, Note_on_c, 0, 73, 95
2, 366960, Note_on_c, 0, 69, 95
2, 367200, Note_off_c, 0, 73, 95
2, 367200, Note_off_c, 0, 69, 95
2, 367200, Note_on_c, 0, 79, 95
2, 367200, Note_on_c, 0, 73, 95
2, 367200, Note_on_c, 0, 69, 95
2, 367440, Note_off_c, 0, 79, 95
2, 367440, Note_off_c, 0, 73, 95
2, 367440, Note_off_c, 0, 69, 95
2, 367440, Note_on_c, 0, 73, 95
2, 367440, Note_on_c, 0, 69, 95
2, 367680, Note_off_c, 0, 73, 95
2, 367680, Note_off_c, 0, 69, 95
2, 367680, Note_on_c, 0, 76, 95
2, 367680, Note_on_c, 0, 69, 95
2, 367920, Note_off_c, 0, 76, 95
2, 367920, Note_off_c, 0, 69, 95
2, 367920, Note_on_c, 0, 73, 95
2, 367920, Note_on_c, 0, 69, 95
2, 368160, Note_off_c, 0, 73, 95
2, 368160, Note_off_c, 0, 69, 95
2, 368160, Note_on_c, 0, 73, 95
2, 368160, Note_on_c, 0, 69, 95
2, 368400, Note_off_c, 0, 73, 95
2, 368400, Note_off_c, 0, 69, 95
2, 368400, Note_on_c, 0, 69, 95
2, 368400, Note_on_c, 0, 64, 95
2, 368640, Note_off_c, 0, 69, 95
2, 368640, Note_off_c, 0, 64, 95
2, 368640, Note_on_c, 0, 73, 95
2, 368640, Note_on_c, 0, 69, 95
2, 368640, Note_on_c, 0, 64, 95
2, 368640, Note_on_c, 0, 45, 63
2, 368640, Note_on_c, 0, 38, 63
2, 368880, Note_off_c, 0, 73, 95
2, 368880, Note_off_c, 0, 69, 95
2, 368880, Note_off_c, 0, 64, 95
2, 368880, Note_off_c, 0, 45, 63
2, 368880, Note_off_c, 0, 38, 63
2, 368880, Note_on_c, 0, 74, 70
2, 368880, Note_on_c, 0, 66, 70
2, 369120, Note_off_c, 0, 74, 70
2, 369120, Note_off_c, 0, 66, 70
2, 369120, Note_on_c, 0, 74, 95
2, 369120, Note_on_c, 0, 69, 95
2, 369120, Note_on_c, 0, 66, 95
2, 369360, Note_off_c, 0, 74, 95
2, 369360, Note_off_c, 0, 69, 95
2, 369360, Note_off_c, 0, 66, 95
2, 369360, Note_on_c, 0, 73, 95
2, 369360, Note_on_c, 0, 69, 95
2, 369360, Note_on_c, 0, 64, 95
2, 369600, Note_off_c, 0, 73, 95
2, 369600, Note_off_c, 0, 69, 95
2, 369600, Note_off_c, 0, 64, 95
2, 369600, Note_on_c, 0, 59, 95
2, 369600, Note_on_c, 0, 55, 95
2, 369600, Note_on_c, 0, 50, 95
2, 369649, Note_off_c, 0, 59, 95
2, 369649, Note_off_c, 0, 55, 95
2, 369649, Note_off_c, 0, 50, 95
2, 369840, Note_on_c, 0, 73, 95
2, 369840, Note_on_c, 0, 69, 95
2, 369840, Note_on_c, 0, 64, 95
2, 370080, Note_off_c, 0, 73, 95
2, 370080, Note_off_c, 0, 69, 95
2, 370080, Note_off_c, 0, 64, 95
2, 370080, Note_on_c, 0, 73, 95
2, 370080, Note_on_c, 0, 69, 95
2, 370080, Note_on_c, 0, 64, 95
2, 370320, Note_off_c, 0, 73, 95
2, 370320, Note_off_c, 0, 69, 95
2, 370320, Note_off_c, 0, 64, 95
2, 370320, Note_on_c, 0, 74, 70
2, 370320, Note_on_c, 0, 66, 70
2, 370560, Note_off_c, 0, 74, 70
2, 370560, Note_off_c, 0, 66, 70
2, 370560, Note_on_c, 0, 74, 95
2, 370560, Note_on_c, 0, 69, 95
2, 370560, Note_on_c, 0, 66, 95
2, 370800, Note_off_c, 0, 74, 95
2, 370800, Note_off_c, 0, 69, 95
2, 370800, Note_off_c, 0, 66, 95
2, 370800, Note_on_c, 0, 73, 95
2, 370800, Note_on_c, 0, 69, 95
2, 370800, Note_on_c, 0, 64, 95
2, 371040, Note_off_c, 0, 73, 95
2, 371040, Note_off_c, 0, 69, 95
2, 371040, Note_off_c, 0, 64, 95
2, 371040, Note_on_c, 0, 59, 95
2, 371040, Note_on_c, 0, 55, 95
2, 371040, Note_on_c, 0, 50, 95
2, 371089, Note_off_c, 0, 59, 95
2, 371089, Note_off_c, 0, 55, 95
2, 371089, Note_off_c, 0, 50, 95
2, 371280, Note_on_c, 0, 73, 95
2, 371280, Note_on_c, 0, 69, 95
2, 371280, Note_on_c, 0, 64, 95
2, 371520, Note_off_c, 0, 73, 95
2, 371520, Note_off_c, 0, 69, 95
2, 371520, Note_off_c, 0, 64, 95
2, 371520, Note_on_c, 0, 73, 95
2, 371520, Note_on_c, 0, 69, 95
2, 371520, Note_on_c, 0, 64, 95
2, 371760, Note_off_c, 0, 73, 95
2, 371760, Note_off_c, 0, 69, 95
2, 371760, Note_off_c, 0, 64, 95
2, 371760, Note_on_c, 0, 74, 70
2, 371760, Note_on_c, 0, 66, 70
2, 372000, Note_off_c, 0, 74, 70
2, 372000, Note_off_c, 0, 66, 70
2, 372000, Note_on_c, 0, 81, 95
2, 372000, Note_on_c, 0, 74, 95
2, 372000, Note_on_c, 0, 69, 95
2, 372240, Note_off_c, 0, 81, 95
2, 372240, Note_off_c, 0, 74, 95
2, 372240, Note_off_c, 0, 69, 95
2, 372240, Note_on_c, 0, 81, 95
2, 372240, Note_on_c, 0, 74, 95
2, 372240, Note_on_c, 0, 69, 95
2, 372480, Note_off_c, 0, 81, 95
2, 372480, Note_off_c, 0, 74, 95
2, 372480, Note_off_c, 0, 69, 95
2, 372480, Note_on_c, 0, 81, 95
2, 372480, Note_on_c, 0, 74, 95
2, 372480, Note_on_c, 0, 69, 95
2, 372720, Note_off_c, 0, 81, 95
2, 372720, Note_off_c, 0, 74, 95
2, 372720, Note_off_c, 0, 69, 95
2, 372720, Note_on_c, 0, 73, 95
2, 372720, Note_on_c, 0, 69, 95
2, 372960, Note_off_c, 0, 73, 95
2, 372960, Note_off_c, 0, 69, 95
2, 372960, Note_on_c, 0, 79, 95
2, 372960, Note_on_c, 0, 73, 95
2, 372960, Note_on_c, 0, 69, 95
2, 373200, Note_off_c, 0, 79, 95
2, 373200, Note_off_c, 0, 73, 95
2, 373200, Note_off_c, 0, 69, 95
2, 373200, Note_on_c, 0, 73, 95
2, 373200, Note_on_c, 0, 69, 95
2, 373440, Note_off_c, 0, 73, 95
2, 373440, Note_off_c, 0, 69, 95
2, 373440, Note_on_c, 0, 76, 95
2, 373440, Note_on_c, 0, 69, 95
2, 373680, Note_off_c, 0, 76, 95
2, 373680, Note_off_c, 0, 69, 95
2, 373680, Note_on_c, 0, 73, 95
2, 373680, Note_on_c, 0, 69, 95
2, 373920, Note_off_c, 0, 73, 95
2, 373920, Note_off_c, 0, 69, 95
2, 373920, Note_on_c, 0, 73, 95
2, 373920, Note_on_c, 0, 69, 95
2, 374160, Note_off_c, 0, 73, 95
2, 374160, Note_off_c, 0, 69, 95
2, 374160, Note_on_c, 0, 69, 95
2, 374160, Note_on_c, 0, 64, 95
2, 374400, Note_off_c, 0, 69, 95
2, 374400, Note_off_c, 0, 64, 95
2, 374400, Note_on_c, 0, 73, 95
2, 374400, Note_on_c, 0, 69, 95
2, 374400, Note_on_c, 0, 64, 95
2, 374400, Note_on_c, 0, 45, 63
2, 374400, Note_on_c, 0, 38, 63
2, 374640, Note_off_c, 0, 73, 95
2, 374640, Note_off_c, 0, 69, 95
2, 374640, Note_off_c, 0, 64, 95
2, 374640, Note_off_c, 0, 45, 63
2, 374640, Note_off_c, 0, 38, 63
2, 374640, Note_on_c, 0, 74, 70
2, 374640, Note_on_c, 0, 66, 70
2, 374880, Note_off_c, 0, 74, 70
2, 374880, Note_off_c, 0, 66, 70
2, 374880, Note_on_c, 0, 74, 95
2, 374880, Note_on_c, 0, 69, 95
2, 374880, Note_on_c, 0, 66, 95
2, 375120, Note_off_c, 0, 74, 95
2, 375120, Note_off_c, 0, 69, 95
2, 375120, Note_off_c, 0, 66, 95
2, 375120, Note_on_c, 0, 73, 95
2, 375120, Note_on_c, 0, 69, 95
2, 375120, Note_on_c, 0, 64, 95
2, 375360, Note_off_c, 0, 73, 95
2, 375360, Note_off_c, 0, 69, 95
2, 375360, Note_off_c, 0, 64, 95
2, 375360, Note_on_c, 0, 59, 95
2, 375360, Note_on_c, 0, 55, 95
2, 375360, Note_on_c, 0, 50, 95
2, 375409, Note_off_c, 0, 59, 95
2, 375409, Note_off_c, 0, 55, 95
2, 375409, Note_off_c, 0, 50, 95
2, 375600, Note_on_c, 0, 73, 95
2, 375600, Note_on_c, 0, 69, 95
2, 375600, Note_on_c, 0, 64, 95
2, 375840, Note_off_c, 0, 73, 95
2, 375840, Note_off_c, 0, 69, 95
2, 375840, Note_off_c, 0, 64, 95
2, 375840, Note_on_c, 0, 73, 95
2, 375840, Note_on_c, 0, 69, 95
2, 375840, Note_on_c, 0, 64, 95
2, 376080, Note_off_c, 0, 73, 95
2, 376080, Note_off_c, 0, 69, 95
2, 376080, Note_off_c, 0, 64, 95
2, 376080, Note_on_c, 0, 74, 70
2, 376080, Note_on_c, 0, 66, 70
2, 376320, Note_off_c, 0, 74, 70
2, 376320, Note_off_c, 0, 66, 70
2, 376320, Note_on_c, 0, 74, 95
2, 376320, Note_on_c, 0, 69, 95
2, 376320, Note_on_c, 0, 66, 95
2, 376560, Note_off_c, 0, 74, 95
2, 376560, Note_off_c, 0, 69, 95
2, 376560, Note_off_c, 0, 66, 95
2, 376560, Note_on_c, 0, 73, 95
2, 376560, Note_on_c, 0, 69, 95
2, 376560, Note_on_c, 0, 64, 95
2, 376800, Note_off_c, 0, 73, 95
2, 376800, Note_off_c, 0, 69, 95
2, 376800, Note_off_c, 0, 64, 95
2, 376800, Note_on_c, 0, 59, 95
2, 376800, Note_on_c, 0, 55, 95
2, 376800, Note_on_c, 0, 50, 95
2, 376849, Note_off_c, 0, 59, 95
2, 376849, Note_off_c, 0, 55, 95
2, 376849, Note_off_c, 0, 50, 95
2, 377040, Note_on_c, 0, 73, 95
2, 377040, Note_on_c, 0, 69, 95
2, 377040, Note_on_c, 0, 64, 95
2, 377280, Note_off_c, 0, 73, 95
2, 377280, Note_off_c, 0, 69, 95
2, 377280, Note_off_c, 0, 64, 95
2, 377280, Note_on_c, 0, 73, 95
2, 377280, Note_on_c, 0, 69, 95
2, 377280, Note_on_c, 0, 64, 95
2, 377520, Note_off_c, 0, 73, 95
2, 377520, Note_off_c, 0, 69, 95
2, 377520, Note_off_c, 0, 64, 95
2, 377520, Note_on_c, 0, 74, 70
2, 377520, Note_on_c, 0, 66, 70
2, 377760, Note_off_c, 0, 74, 70
2, 377760, Note_off_c, 0, 66, 70
2, 377760, Note_on_c, 0, 81, 95
2, 377760, Note_on_c, 0, 74, 95
2, 377760, Note_on_c, 0, 69, 95
2, 378000, Note_off_c, 0, 81, 95
2, 378000, Note_off_c, 0, 74, 95
2, 378000, Note_off_c, 0, 69, 95
2, 378000, Note_on_c, 0, 81, 95
2, 378000, Note_on_c, 0, 74, 95
2, 378000, Note_on_c, 0, 69, 95
2, 378240, Note_off_c, 0, 81, 95
2, 378240, Note_off_c, 0, 74, 95
2, 378240, Note_off_c, 0, 69, 95
2, 378240, Note_on_c, 0, 81, 95
2, 378240, Note_on_c, 0, 74, 95
2, 378240, Note_on_c, 0, 69, 95
2, 378480, Note_off_c, 0, 81, 95
2, 378480, Note_off_c, 0, 74, 95
2, 378480, Note_off_c, 0, 69, 95
2, 378480, Note_on_c, 0, 73, 95
2, 378480, Note_on_c, 0, 69, 95
2, 378720, Note_off_c, 0, 73, 95
2, 378720, Note_off_c, 0, 69, 95
2, 378720, Note_on_c, 0, 79, 95
2, 378720, Note_on_c, 0, 73, 95
2, 378720, Note_on_c, 0, 69, 95
2, 378960, Note_off_c, 0, 79, 95
2, 378960, Note_off_c, 0, 73, 95
2, 378960, Note_off_c, 0, 69, 95
2, 378960, Note_on_c, 0, 73, 95
2, 378960, Note_on_c, 0, 69, 95
2, 379200, Note_off_c, 0, 73, 95
2, 379200, Note_off_c, 0, 69, 95
2, 379200, Note_on_c, 0, 76, 95
2, 379200, Note_on_c, 0, 69, 95
2, 379440, Note_off_c, 0, 76, 95
2, 379440, Note_off_c, 0, 69, 95
2, 379440, Note_on_c, 0, 73, 95
2, 379440, Note_on_c, 0, 69, 95
2, 379680, Note_off_c, 0, 73, 95
2, 379680, Note_off_c, 0, 69, 95
2, 379680, Note_on_c, 0, 73, 95
2, 379680, Note_on_c, 0, 69, 95
2, 379920, Note_off_c, 0, 73, 95
2, 379920, Note_off_c, 0, 69, 95
2, 379920, Note_on_c, 0, 69, 95
2, 379920, Note_on_c, 0, 64, 95
2, 380160, Note_off_c, 0, 69, 95
2, 380160, Note_off_c, 0, 64, 95
2, 380160, Note_on_c, 0, 73, 95
2, 380160, Note_on_c, 0, 69, 95
2, 380160, Note_on_c, 0, 64, 95
2, 380160, Note_on_c, 0, 45, 63
2, 380160, Note_on_c, 0, 38, 63
2, 380400, Note_off_c, 0, 73, 95
2, 380400, Note_off_c, 0, 69, 95
2, 380400, Note_off_c, 0, 64, 95
2, 380400, Note_off_c, 0, 45, 63
2, 380400, Note_off_c, 0, 38, 63
2, 380400, Note_on_c, 0, 74, 70
2, 380400, Note_on_c, 0, 66, 70
2, 380640, Note_off_c, 0, 74, 70
2, 380640, Note_off_c, 0, 66, 70
2, 380640, Note_on_c, 0, 74, 95
2, 380640, Note_on_c, 0, 69, 95
2, 380640, Note_on_c, 0, 66, 95
2, 380880, Note_off_c, 0, 74, 95
2, 380880, Note_off_c, 0, 69, 95
2, 380880, Note_off_c, 0, 66, 95
2, 380880, Note_on_c, 0, 73, 95
2, 380880, Note_on_c, 0, 69, 95
2, 380880, Note_on_c, 0, 64, 95
2, 381120, Note_off_c, 0, 73, 95
2, 381120, Note_off_c, 0, 69, 95
2, 381120, Note_off_c, 0, 64, 95
2, 381120, Note_on_c, 0, 59, 95
2, 381120, Note_on_c, 0, 55, 95
2, 381120, Note_on_c, 0, 50, 95
2, 381169, Note_off_c, 0, 59, 95
2, 381169, Note_off_c, 0, 55, 95
2, 381169, Note_off_c, 0, 50, 95
2, 381360, Note_on_c, 0, 73, 95
2, 381360, Note_on_c, 0, 69, 95
2, 381360, Note_on_c, 0, 64, 95
2, 381600, Note_off_c, 0, 73, 95
2, 381600, Note_off_c, 0, 69, 95
2, 381600, Note_off_c, 0, 64, 95
2, 381600, Note_on_c, 0, 73, 95
2, 381600, Note_on_c, 0, 69, 95
2, 381600, Note_on_c, 0, 64, 95
2, 381840, Note_off_c, 0, 73, 95
2, 381840, Note_off_c, 0, 69, 95
2, 381840, Note_off_c, 0, 64, 95
2, 381840, Note_on_c, 0, 74, 70
2, 381840, Note_on_c, 0, 66, 70
2, 382080, Note_off_c, 0, 74, 70
2, 382080, Note_off_c, 0, 66, 70
2, 382080, Note_on_c, 0, 74, 95
2, 382080, Note_on_c, 0, 69, 95
2, 382080, Note_on_c, 0, 66, 95
2, 382320, Note_off_c, 0, 74, 95
2, 382320, Note_off_c, 0, 69, 95
2, 382320, Note_off_c, 0, 66, 95
2, 382320, Note_on_c, 0, 73, 95
2, 382320, Note_on_c, 0, 69, 95
2, 382320, Note_on_c, 0, 64, 95
2, 382560, Note_off_c, 0, 73, 95
2, 382560, Note_off_c, 0, 69, 95
2, 382560, Note_off_c, 0, 64, 95
2, 382560, Note_on_c, 0, 59, 95
2, 382560, Note_on_c, 0, 55, 95
2, 382560, Note_on_c, 0, 50, 95
2, 382609, Note_off_c, 0, 59, 95
2, 382609, Note_off_c, 0, 55, 95
2, 382609, Note_off_c, 0, 50, 95
2, 382800, Note_on_c, 0, 73, 95
2, 382800, Note_on_c, 0, 69, 95
2, 382800, Note_on_c, 0, 64, 95
2, 383040, Note_off_c, 0, 73, 95
2, 383040, Note_off_c, 0, 69, 95
2, 383040, Note_off_c, 0, 64, 95
2, 383040, Note_on_c, 0, 74, 95
2, 383040, Note_on_c, 0, 55, 95
2, 383040, Note_on_c, 0, 50, 95
2, 383520, Note_off_c, 0, 74, 95
2, 383520, Note_off_c, 0, 55, 95
2, 383520, Note_off_c, 0, 50, 95
2, 383520, Note_on_c, 0, 74, 95
2, 383520, Note_on_c, 0, 55, 95
2, 383520, Note_on_c, 0, 50, 95
2, 383760, Note_off_c, 0, 74, 95
2, 383760, Note_off_c, 0, 55, 95
2, 383760, Note_off_c, 0, 50, 95
2, 383760, Note_on_c, 0, 74, 95
2, 383760, Note_on_c, 0, 55, 95
2, 383760, Note_on_c, 0, 50, 95
2, 384240, Note_off_c, 0, 74, 95
2, 384240, Note_off_c, 0, 55, 95
2, 384240, Note_off_c, 0, 50, 95
2, 384240, Note_on_c, 0, 74, 95
2, 384240, Note_on_c, 0, 55, 95
2, 384240, Note_on_c, 0, 50, 95
2, 384480, Note_off_c, 0, 74, 95
2, 384480, Note_off_c, 0, 55, 95
2, 384480, Note_off_c, 0, 50, 95
2, 384480, Note_on_c, 0, 74, 95
2, 384480, Note_on_c, 0, 55, 95
2, 384480, Note_on_c, 0, 50, 95
2, 385920, Note_off_c, 0, 74, 95
2, 385920, Note_off_c, 0, 55, 95
2, 385920, Note_off_c, 0, 50, 95
2, 385920, Note_on_c, 0, 40, 95
2, 386400, Note_off_c, 0, 40, 95
2, 386400, Note_on_c, 0, 47, 95
2, 386880, Note_off_c, 0, 47, 95
2, 386880, Note_on_c, 0, 52, 95
2, 387360, Note_off_c, 0, 52, 95
2, 387360, Note_on_c, 0, 55, 95
2, 387840, Note_off_c, 0, 55, 95
2, 387840, Note_on_c, 0, 52, 95
2, 388320, Note_off_c, 0, 52, 95
2, 388320, Note_on_c, 0, 47, 95
2, 388800, Note_off_c, 0, 47, 95
2, 388800, Note_on_c, 0, 40, 95
2, 389280, Note_off_c, 0, 40, 95
2, 389280, Note_on_c, 0, 47, 95
2, 389760, Note_off_c, 0, 47, 95
2, 389760, Note_on_c, 0, 52, 95
2, 390240, Note_off_c, 0, 52, 95
2, 390240, Note_on_c, 0, 55, 95
2, 390720, Note_off_c, 0, 55, 95
2, 390720, Note_on_c, 0, 52, 95
2, 391200, Note_off_c, 0, 52, 95
2, 391200, Note_on_c, 0, 47, 95
2, 391680, Note_off_c, 0, 47, 95
2, 391680, Note_on_c, 0, 41, 95
2, 392160, Note_off_c, 0, 41, 95
2, 392160, Note_on_c, 0, 48, 95
2, 392640, Note_off_c, 0, 48, 95
2, 392640, Note_on_c, 0, 53, 95
2, 393120, Note_off_c, 0, 53, 95
2, 393120, Note_on_c, 0, 55, 95
2, 393600, Note_off_c, 0, 55, 95
2, 393600, Note_on_c, 0, 53, 95
2, 394080, Note_off_c, 0, 53, 95
2, 394080, Note_on_c, 0, 48, 95
2, 394560, Note_off_c, 0, 48, 95
2, 394560, Note_on_c, 0, 40, 95
2, 395040, Note_off_c, 0, 40, 95
2, 395040, Note_on_c, 0, 47, 95
2, 395520, Note_off_c, 0, 47, 95
2, 395520, Note_on_c, 0, 52, 95
2, 396000, Note_off_c, 0, 52, 95
2, 396000, Note_on_c, 0, 55, 95
2, 396480, Note_off_c, 0, 55, 95
2, 396480, Note_on_c, 0, 52, 95
2, 396960, Note_off_c, 0, 52, 95
2, 396960, Note_on_c, 0, 47, 95
2, 397440, Note_off_c, 0, 47, 95
2, 397440, Note_on_c, 0, 39, 95
2, 397920, Note_off_c, 0, 39, 95
2, 397920, Note_on_c, 0, 46, 95
2, 398400, Note_off_c, 0, 46, 95
2, 398400, Note_on_c, 0, 51, 95
2, 398880, Note_off_c, 0, 51, 95
2, 398880, Note_on_c, 0, 55, 95
2, 399360, Note_off_c, 0, 55, 95
2, 399360, Note_on_c, 0, 51, 95
2, 399840, Note_off_c, 0, 51, 95
2, 399840, Note_on_c, 0, 46, 95
2, 400320, Note_off_c, 0, 46, 95
2, 400320, Note_on_c, 0, 39, 95
2, 400800, Note_off_c, 0, 39, 95
2, 400800, Note_on_c, 0, 46, 95
2, 401280, Note_off_c, 0, 46, 95
2, 401280, Note_on_c, 0, 51, 95
2, 401760, Note_off_c, 0, 51, 95
2, 401760, Note_on_c, 0, 55, 95
2, 402240, Note_off_c, 0, 55, 95
2, 402240, Note_on_c, 0, 51, 95
2, 402720, Note_off_c, 0, 51, 95
2, 402720, Note_on_c, 0, 46, 95
2, 403200, Note_off_c, 0, 46, 95
2, 403200, Note_on_c, 0, 41, 95
2, 403680, Note_off_c, 0, 41, 95
2, 403680, Note_on_c, 0, 48, 95
2, 404160, Note_off_c, 0, 48, 95
2, 404160, Note_on_c, 0, 53, 95
2, 404640, Note_off_c, 0, 53, 95
2, 404640, Note_on_c, 0, 55, 95
2, 405120, Note_off_c, 0, 55, 95
2, 405120, Note_on_c, 0, 53, 95
2, 405600, Note_off_c, 0, 53, 95
2, 405600, Note_on_c, 0, 48, 95
2, 406080, Note_off_c, 0, 48, 95
2, 406080, Note_on_c, 0, 40, 95
2, 406560, Note_off_c, 0, 40, 95
2, 406560, Note_on_c, 0, 47, 95
2, 407040, Note_off_c, 0, 47, 95
2, 407040, Note_on_c, 0, 52, 95
2, 407520, Note_off_c, 0, 52, 95
2, 407520, Note_on_c, 0, 55, 95
2, 408000, Note_off_c, 0, 55, 95
2, 408000, Note_on_c, 0, 52, 95
2, 408480, Note_off_c, 0, 52, 95
2, 408480, Note_on_c, 0, 47, 95
2, 408960, Note_off_c, 0, 47, 95
2, 408960, Note_on_c, 0, 39, 95
2, 409440, Note_off_c, 0, 39, 95
2, 409440, Note_on_c, 0, 46, 95
2, 409920, Note_off_c, 0, 46, 95
2, 409920, Note_on_c, 0, 51, 95
2, 410400, Note_off_c, 0, 51, 95
2, 410400, Note_on_c, 0, 55, 95
2, 410880, Note_off_c, 0, 55, 95
2, 410880, Note_on_c, 0, 51, 95
2, 411360, Note_off_c, 0, 51, 95
2, 411360, Note_on_c, 0, 46, 95
2, 411840, Note_off_c, 0, 46, 95
2, 411840, Note_on_c, 0, 39, 95
2, 412320, Note_off_c, 0, 39, 95
2, 412320, Note_on_c, 0, 46, 95
2, 412800, Note_off_c, 0, 46, 95
2, 412800, Note_on_c, 0, 51, 95
2, 413280, Note_off_c, 0, 51, 95
2, 413280, Note_on_c, 0, 55, 95
2, 413760, Note_off_c, 0, 55, 95
2, 413760, Note_on_c, 0, 51, 95
2, 414240, Note_off_c, 0, 51, 95
2, 414240, Note_on_c, 0, 46, 95
2, 414720, Note_off_c, 0, 46, 95
2, 414720, Note_on_c, 0, 39, 95
2, 415200, Note_off_c, 0, 39, 95
2, 415200, Note_on_c, 0, 46, 95
2, 415680, Note_off_c, 0, 46, 95
2, 415680, Note_on_c, 0, 51, 95
2, 416160, Note_off_c, 0, 51, 95
2, 416160, Note_on_c, 0, 55, 95
2, 416640, Note_off_c, 0, 55, 95
2, 416640, Note_on_c, 0, 51, 95
2, 417120, Note_off_c, 0, 51, 95
2, 417120, Note_on_c, 0, 46, 95
2, 417600, Note_off_c, 0, 46, 95
2, 417600, Note_on_c, 0, 64, 95
2, 417600, Note_on_c, 0, 59, 95
2, 417600, Note_on_c, 0, 55, 95
2, 417600, Note_on_c, 0, 53, 95
2, 417600, Note_on_c, 0, 48, 95
2, 417600, Note_on_c, 0, 41, 95
2, 417840, Note_off_c, 0, 64, 95
2, 417840, Note_off_c, 0, 59, 95
2, 417840, Note_off_c, 0, 55, 95
2, 417840, Note_off_c, 0, 53, 95
2, 417840, Note_off_c, 0, 48, 95
2, 417840, Note_off_c, 0, 41, 95
2, 417840, Note_on_c, 0, 64, 95
2, 417840, Note_on_c, 0, 59, 95
2, 417840, Note_on_c, 0, 55, 95
2, 417840, Note_on_c, 0, 53, 95
2, 417840, Note_on_c, 0, 48, 95
2, 417840, Note_on_c, 0, 41, 95
2, 418080, Note_off_c, 0, 64, 95
2, 418080, Note_off_c, 0, 59, 95
2, 418080, Note_off_c, 0, 55, 95
2, 418080, Note_off_c, 0, 53, 95
2, 418080, Note_off_c, 0, 48, 95
2, 418080, Note_off_c, 0, 41, 95
2, 418080, Note_on_c, 0, 64, 95
2, 418080, Note_on_c, 0, 59, 95
2, 418080, Note_on_c, 0, 55, 95
2, 418080, Note_on_c, 0, 53, 95
2, 418080, Note_on_c, 0, 48, 95
2, 418080, Note_on_c, 0, 41, 95
2, 418320, Note_off_c, 0, 64, 95
2, 418320, Note_off_c, 0, 59, 95
2, 418320, Note_off_c, 0, 55, 95
2, 418320, Note_off_c, 0, 53, 95
2, 418320, Note_off_c, 0, 48, 95
2, 418320, Note_off_c, 0, 41, 95
2, 418320, Note_on_c, 0, 64, 95
2, 418320, Note_on_c, 0, 59, 95
2, 418320, Note_on_c, 0, 55, 95
2, 418320, Note_on_c, 0, 53, 95
2, 418320, Note_on_c, 0, 48, 95
2, 418320, Note_on_c, 0, 41, 95
2, 418800, Note_off_c, 0, 64, 95
2, 418800, Note_off_c, 0, 59, 95
2, 418800, Note_off_c, 0, 55, 95
2, 418800, Note_off_c, 0, 53, 95
2, 418800, Note_off_c, 0, 48, 95
2, 418800, Note_off_c, 0, 41, 95
2, 418800, Note_on_c, 0, 64, 95
2, 418800, Note_on_c, 0, 59, 95
2, 418800, Note_on_c, 0, 55, 95
2, 418800, Note_on_c, 0, 53, 95
2, 418800, Note_on_c, 0, 48, 95
2, 418800, Note_on_c, 0, 41, 95
2, 419040, Note_off_c, 0, 64, 95
2, 419040, Note_off_c, 0, 59, 95
2, 419040, Note_off_c, 0, 55, 95
2, 419040, Note_off_c, 0, 53, 95
2, 419040, Note_off_c, 0, 48, 95
2, 419040, Note_off_c, 0, 41, 95
2, 419040, Note_on_c, 0, 64, 95
2, 419040, Note_on_c, 0, 59, 95
2, 419040, Note_on_c, 0, 55, 95
2, 419040, Note_on_c, 0, 53, 95
2, 419040, Note_on_c, 0, 48, 95
2, 419040, Note_on_c, 0, 41, 95
2, 419520, Note_off_c, 0, 64, 95
2, 419520, Note_off_c, 0, 59, 95
2, 419520, Note_off_c, 0, 55, 95
2, 419520, Note_off_c, 0, 53, 95
2, 419520, Note_off_c, 0, 48, 95
2, 419520, Note_off_c, 0, 41, 95
2, 419520, Note_on_c, 0, 64, 95
2, 419520, Note_on_c, 0, 59, 95
2, 419520, Note_on_c, 0, 55, 95
2, 419520, Note_on_c, 0, 53, 95
2, 419520, Note_on_c, 0, 48, 95
2, 419520, Note_on_c, 0, 41, 95
2, 420000, Note_off_c, 0, 64, 95
2, 420000, Note_off_c, 0, 59, 95
2, 420000, Note_off_c, 0, 55, 95
2, 420000, Note_off_c, 0, 53, 95
2, 420000, Note_off_c, 0, 48, 95
2, 420000, Note_off_c, 0, 41, 95
2, 420000, Note_on_c, 0, 64, 95
2, 420000, Note_on_c, 0, 59, 95
2, 420000, Note_on_c, 0, 55, 95
2, 420000, Note_on_c, 0, 53, 95
2, 420000, Note_on_c, 0, 48, 95
2, 420000, Note_on_c, 0, 41, 95
2, 420240, Note_off_c, 0, 64, 95
2, 420240, Note_off_c, 0, 59, 95
2, 420240, Note_off_c, 0, 55, 95
2, 420240, Note_off_c, 0, 53, 95
2, 420240, Note_off_c, 0, 48, 95
2, 420240, Note_off_c, 0, 41, 95
2, 420240, Note_on_c, 0, 64, 95
2, 420240, Note_on_c, 0, 59, 95
2, 420240, Note_on_c, 0, 55, 95
2, 420240, Note_on_c, 0, 53, 95
2, 420240, Note_on_c, 0, 48, 95
2, 420240, Note_on_c, 0, 41, 95
2, 420480, Note_off_c, 0, 64, 95
2, 420480, Note_off_c, 0, 59, 95
2, 420480, Note_off_c, 0, 55, 95
2, 420480, Note_off_c, 0, 53, 95
2, 420480, Note_off_c, 0, 48, 95
2, 420480, Note_off_c, 0, 41, 95
2, 420480, Note_on_c, 0, 64, 95
2, 420480, Note_on_c, 0, 59, 95
2, 420480, Note_on_c, 0, 55, 95
2, 420480, Note_on_c, 0, 52, 95
2, 420480, Note_on_c, 0, 47, 95
2, 420480, Note_on_c, 0, 40, 95
2, 420720, Note_off_c, 0, 64, 95
2, 420720, Note_off_c, 0, 59, 95
2, 420720, Note_off_c, 0, 55, 95
2, 420720, Note_off_c, 0, 52, 95
2, 420720, Note_off_c, 0, 47, 95
2, 420720, Note_off_c, 0, 40, 95
2, 420720, Note_on_c, 0, 64, 95
2, 420720, Note_on_c, 0, 59, 95
2, 420720, Note_on_c, 0, 55, 95
2, 420720, Note_on_c, 0, 52, 95
2, 420720, Note_on_c, 0, 47, 95
2, 420720, Note_on_c, 0, 40, 95
2, 420960, Note_off_c, 0, 64, 95
2, 420960, Note_off_c, 0, 59, 95
2, 420960, Note_off_c, 0, 55, 95
2, 420960, Note_off_c, 0, 52, 95
2, 420960, Note_off_c, 0, 47, 95
2, 420960, Note_off_c, 0, 40, 95
2, 420960, Note_on_c, 0, 64, 95
2, 420960, Note_on_c, 0, 59, 95
2, 420960, Note_on_c, 0, 55, 95
2, 420960, Note_on_c, 0, 52, 95
2, 420960, Note_on_c, 0, 47, 95
2, 420960, Note_on_c, 0, 40, 95
2, 421200, Note_off_c, 0, 64, 95
2, 421200, Note_off_c, 0, 59, 95
2, 421200, Note_off_c, 0, 55, 95
2, 421200, Note_off_c, 0, 52, 95
2, 421200, Note_off_c, 0, 47, 95
2, 421200, Note_off_c, 0, 40, 95
2, 421200, Note_on_c, 0, 64, 95
2, 421200, Note_on_c, 0, 59, 95
2, 421200, Note_on_c, 0, 55, 95
2, 421200, Note_on_c, 0, 52, 95
2, 421200, Note_on_c, 0, 47, 95
2, 421200, Note_on_c, 0, 40, 95
2, 421680, Note_off_c, 0, 64, 95
2, 421680, Note_off_c, 0, 59, 95
2, 421680, Note_off_c, 0, 55, 95
2, 421680, Note_off_c, 0, 52, 95
2, 421680, Note_off_c, 0, 47, 95
2, 421680, Note_off_c, 0, 40, 95
2, 421680, Note_on_c, 0, 64, 95
2, 421680, Note_on_c, 0, 59, 95
2, 421680, Note_on_c, 0, 55, 95
2, 421680, Note_on_c, 0, 52, 95
2, 421680, Note_on_c, 0, 47, 95
2, 421680, Note_on_c, 0, 40, 95
2, 421920, Note_off_c, 0, 64, 95
2, 421920, Note_off_c, 0, 59, 95
2, 421920, Note_off_c, 0, 55, 95
2, 421920, Note_off_c, 0, 52, 95
2, 421920, Note_off_c, 0, 47, 95
2, 421920, Note_off_c, 0, 40, 95
2, 421920, Note_on_c, 0, 64, 95
2, 421920, Note_on_c, 0, 59, 95
2, 421920, Note_on_c, 0, 55, 95
2, 421920, Note_on_c, 0, 52, 95
2, 421920, Note_on_c, 0, 47, 95
2, 421920, Note_on_c, 0, 40, 95
2, 422400, Note_off_c, 0, 64, 95
2, 422400, Note_off_c, 0, 59, 95
2, 422400, Note_off_c, 0, 55, 95
2, 422400, Note_off_c, 0, 52, 95
2, 422400, Note_off_c, 0, 47, 95
2, 422400, Note_off_c, 0, 40, 95
2, 422400, Note_on_c, 0, 64, 95
2, 422400, Note_on_c, 0, 59, 95
2, 422400, Note_on_c, 0, 55, 95
2, 422400, Note_on_c, 0, 52, 95
2, 422400, Note_on_c, 0, 47, 95
2, 422400, Note_on_c, 0, 40, 95
2, 422880, Note_off_c, 0, 64, 95
2, 422880, Note_off_c, 0, 59, 95
2, 422880, Note_off_c, 0, 55, 95
2, 422880, Note_off_c, 0, 52, 95
2, 422880, Note_off_c, 0, 47, 95
2, 422880, Note_off_c, 0, 40, 95
2, 422880, Note_on_c, 0, 64, 95
2, 422880, Note_on_c, 0, 59, 95
2, 422880, Note_on_c, 0, 55, 95
2, 422880, Note_on_c, 0, 52, 95
2, 422880, Note_on_c, 0, 47, 95
2, 422880, Note_on_c, 0, 40, 95
2, 423120, Note_off_c, 0, 64, 95
2, 423120, Note_off_c, 0, 59, 95
2, 423120, Note_off_c, 0, 55, 95
2, 423120, Note_off_c, 0, 52, 95
2, 423120, Note_off_c, 0, 47, 95
2, 423120, Note_off_c, 0, 40, 95
2, 423120, Note_on_c, 0, 64, 95
2, 423120, Note_on_c, 0, 59, 95
2, 423120, Note_on_c, 0, 55, 95
2, 423120, Note_on_c, 0, 52, 95
2, 423120, Note_on_c, 0, 47, 95
2, 423120, Note_on_c, 0, 40, 95
2, 423360, Note_off_c, 0, 64, 95
2, 423360, Note_off_c, 0, 59, 95
2, 423360, Note_off_c, 0, 55, 95
2, 423360, Note_off_c, 0, 52, 95
2, 423360, Note_off_c, 0, 47, 95
2, 423360, Note_off_c, 0, 40, 95
2, 423360, Note_on_c, 0, 64, 95
2, 423360, Note_on_c, 0, 59, 95
2, 423360, Note_on_c, 0, 55, 95
2, 423360, Note_on_c, 0, 51, 95
2, 423360, Note_on_c, 0, 46, 95
2, 423360, Note_on_c, 0, 39, 95
2, 423600, Note_off_c, 0, 64, 95
2, 423600, Note_off_c, 0, 59, 95
2, 423600, Note_off_c, 0, 55, 95
2, 423600, Note_off_c, 0, 51, 95
2, 423600, Note_off_c, 0, 46, 95
2, 423600, Note_off_c, 0, 39, 95
2, 423600, Note_on_c, 0, 64, 95
2, 423600, Note_on_c, 0, 59, 95
2, 423600, Note_on_c, 0, 55, 95
2, 423600, Note_on_c, 0, 51, 95
2, 423600, Note_on_c, 0, 46, 95
2, 423600, Note_on_c, 0, 39, 95
2, 423840, Note_off_c, 0, 64, 95
2, 423840, Note_off_c, 0, 59, 95
2, 423840, Note_off_c, 0, 55, 95
2, 423840, Note_off_c, 0, 51, 95
2, 423840, Note_off_c, 0, 46, 95
2, 423840, Note_off_c, 0, 39, 95
2, 423840, Note_on_c, 0, 64, 95
2, 423840, Note_on_c, 0, 59, 95
2, 423840, Note_on_c, 0, 55, 95
2, 423840, Note_on_c, 0, 51, 95
2, 423840, Note_on_c, 0, 46, 95
2, 423840, Note_on_c, 0, 39, 95
2, 424080, Note_off_c, 0, 64, 95
2, 424080, Note_off_c, 0, 59, 95
2, 424080, Note_off_c, 0, 55, 95
2, 424080, Note_off_c, 0, 51, 95
2, 424080, Note_off_c, 0, 46, 95
2, 424080, Note_off_c, 0, 39, 95
2, 424080, Note_on_c, 0, 64, 95
2, 424080, Note_on_c, 0, 59, 95
2, 424080, Note_on_c, 0, 55, 95
2, 424080, Note_on_c, 0, 51, 95
2, 424080, Note_on_c, 0, 46, 95
2, 424080, Note_on_c, 0, 39, 95
2, 424560, Note_off_c, 0, 64, 95
2, 424560, Note_off_c, 0, 59, 95
2, 424560, Note_off_c, 0, 55, 95
2, 424560, Note_off_c, 0, 51, 95
2, 424560, Note_off_c, 0, 46, 95
2, 424560, Note_off_c, 0, 39, 95
2, 424560, Note_on_c, 0, 64, 95
2, 424560, Note_on_c, 0, 59, 95
2, 424560, Note_on_c, 0, 55, 95
2, 424560, Note_on_c, 0, 51, 95
2, 424560, Note_on_c, 0, 46, 95
2, 424560, Note_on_c, 0, 39, 95
2, 424800, Note_off_c, 0, 64, 95
2, 424800, Note_off_c, 0, 59, 95
2, 424800, Note_off_c, 0, 55, 95
2, 424800, Note_off_c, 0, 51, 95
2, 424800, Note_off_c, 0, 46, 95
2, 424800, Note_off_c, 0, 39, 95
2, 424800, Note_on_c, 0, 64, 95
2, 424800, Note_on_c, 0, 59, 95
2, 424800, Note_on_c, 0, 55, 95
2, 424800, Note_on_c, 0, 51, 95
2, 424800, Note_on_c, 0, 46, 95
2, 424800, Note_on_c, 0, 39, 95
2, 425280, Note_off_c, 0, 64, 95
2, 425280, Note_off_c, 0, 59, 95
2, 425280, Note_off_c, 0, 55, 95
2, 425280, Note_off_c, 0, 51, 95
2, 425280, Note_off_c, 0, 46, 95
2, 425280, Note_off_c, 0, 39, 95
2, 425280, Note_on_c, 0, 64, 95
2, 425280, Note_on_c, 0, 59, 95
2, 425280, Note_on_c, 0, 55, 95
2, 425280, Note_on_c, 0, 51, 95
2, 425280, Note_on_c, 0, 46, 95
2, 425280, Note_on_c, 0, 39, 95
2, 425760, Note_off_c, 0, 64, 95
2, 425760, Note_off_c, 0, 59, 95
2, 425760, Note_off_c, 0, 55, 95
2, 425760, Note_off_c, 0, 51, 95
2, 425760, Note_off_c, 0, 46, 95
2, 425760, Note_off_c, 0, 39, 95
2, 425760, Note_on_c, 0, 64, 95
2, 425760, Note_on_c, 0, 59, 95
2, 425760, Note_on_c, 0, 55, 95
2, 425760, Note_on_c, 0, 51, 95
2, 425760, Note_on_c, 0, 46, 95
2, 425760, Note_on_c, 0, 39, 95
2, 426000, Note_off_c, 0, 64, 95
2, 426000, Note_off_c, 0, 59, 95
2, 426000, Note_off_c, 0, 55, 95
2, 426000, Note_off_c, 0, 51, 95
2, 426000, Note_off_c, 0, 46, 95
2, 426000, Note_off_c, 0, 39, 95
2, 426000, Note_on_c, 0, 64, 95
2, 426000, Note_on_c, 0, 59, 95
2, 426000, Note_on_c, 0, 55, 95
2, 426000, Note_on_c, 0, 51, 95
2, 426000, Note_on_c, 0, 46, 95
2, 426000, Note_on_c, 0, 39, 95
2, 426240, Note_off_c, 0, 64, 95
2, 426240, Note_off_c, 0, 59, 95
2, 426240, Note_off_c, 0, 55, 95
2, 426240, Note_off_c, 0, 51, 95
2, 426240, Note_off_c, 0, 46, 95
2, 426240, Note_off_c, 0, 39, 95
2, 426240, Note_on_c, 0, 64, 95
2, 426240, Note_on_c, 0, 59, 95
2, 426240, Note_on_c, 0, 55, 95
2, 426240, Note_on_c, 0, 51, 95
2, 426240, Note_on_c, 0, 46, 95
2, 426240, Note_on_c, 0, 39, 95
2, 426480, Note_off_c, 0, 64, 95
2, 426480, Note_off_c, 0, 59, 95
2, 426480, Note_off_c, 0, 55, 95
2, 426480, Note_off_c, 0, 51, 95
2, 426480, Note_off_c, 0, 46, 95
2, 426480, Note_off_c, 0, 39, 95
2, 426480, Note_on_c, 0, 64, 95
2, 426480, Note_on_c, 0, 59, 95
2, 426480, Note_on_c, 0, 55, 95
2, 426480, Note_on_c, 0, 51, 95
2, 426480, Note_on_c, 0, 46, 95
2, 426480, Note_on_c, 0, 39, 95
2, 426720, Note_off_c, 0, 64, 95
2, 426720, Note_off_c, 0, 59, 95
2, 426720, Note_off_c, 0, 55, 95
2, 426720, Note_off_c, 0, 51, 95
2, 426720, Note_off_c, 0, 46, 95
2, 426720, Note_off_c, 0, 39, 95
2, 426720, Note_on_c, 0, 64, 95
2, 426720, Note_on_c, 0, 59, 95
2, 426720, Note_on_c, 0, 55, 95
2, 426720, Note_on_c, 0, 51, 95
2, 426720, Note_on_c, 0, 46, 95
2, 426720, Note_on_c, 0, 39, 95
2, 426960, Note_off_c, 0, 64, 95
2, 426960, Note_off_c, 0, 59, 95
2, 426960, Note_off_c, 0, 55, 95
2, 426960, Note_off_c, 0, 51, 95
2, 426960, Note_off_c, 0, 46, 95
2, 426960, Note_off_c, 0, 39, 95
2, 426960, Note_on_c, 0, 64, 95
2, 426960, Note_on_c, 0, 59, 95
2, 426960, Note_on_c, 0, 55, 95
2, 426960, Note_on_c, 0, 51, 95
2, 426960, Note_on_c, 0, 46, 95
2, 426960, Note_on_c, 0, 39, 95
2, 427440, Note_off_c, 0, 64, 95
2, 427440, Note_off_c, 0, 59, 95
2, 427440, Note_off_c, 0, 55, 95
2, 427440, Note_off_c, 0, 51, 95
2, 427440, Note_off_c, 0, 46, 95
2, 427440, Note_off_c, 0, 39, 95
2, 427440, Note_on_c, 0, 64, 95
2, 427440, Note_on_c, 0, 59, 95
2, 427440, Note_on_c, 0, 55, 95
2, 427440, Note_on_c, 0, 51, 95
2, 427440, Note_on_c, 0, 46, 95
2, 427440, Note_on_c, 0, 39, 95
2, 427680, Note_off_c, 0, 64, 95
2, 427680, Note_off_c, 0, 59, 95
2, 427680, Note_off_c, 0, 55, 95
2, 427680, Note_off_c, 0, 51, 95
2, 427680, Note_off_c, 0, 46, 95
2, 427680, Note_off_c, 0, 39, 95
2, 427680, Note_on_c, 0, 64, 95
2, 427680, Note_on_c, 0, 59, 95
2, 427680, Note_on_c, 0, 55, 95
2, 427680, Note_on_c, 0, 51, 95
2, 427680, Note_on_c, 0, 46, 95
2, 427680, Note_on_c, 0, 39, 95
2, 428160, Note_off_c, 0, 64, 95
2, 428160, Note_off_c, 0, 59, 95
2, 428160, Note_off_c, 0, 55, 95
2, 428160, Note_off_c, 0, 51, 95
2, 428160, Note_off_c, 0, 46, 95
2, 428160, Note_off_c, 0, 39, 95
2, 428160, Note_on_c, 0, 64, 95
2, 428160, Note_on_c, 0, 59, 95
2, 428160, Note_on_c, 0, 55, 95
2, 428160, Note_on_c, 0, 51, 95
2, 428160, Note_on_c, 0, 46, 95
2, 428160, Note_on_c, 0, 39, 95
2, 428640, Note_off_c, 0, 64, 95
2, 428640, Note_off_c, 0, 59, 95
2, 428640, Note_off_c, 0, 55, 95
2, 428640, Note_off_c, 0, 51, 95
2, 428640, Note_off_c, 0, 46, 95
2, 428640, Note_off_c, 0, 39, 95
2, 428640, Note_on_c, 0, 64, 95
2, 428640, Note_on_c, 0, 59, 95
2, 428640, Note_on_c, 0, 55, 95
2, 428640, Note_on_c, 0, 51, 95
2, 428640, Note_on_c, 0, 46, 95
2, 428640, Note_on_c, 0, 39, 95
2, 428880, Note_off_c, 0, 64, 95
2, 428880, Note_off_c, 0, 59, 95
2, 428880, Note_off_c, 0, 55, 95
2, 428880, Note_off_c, 0, 51, 95
2, 428880, Note_off_c, 0, 46, 95
2, 428880, Note_off_c, 0, 39, 95
2, 428880, Note_on_c, 0, 64, 95
2, 428880, Note_on_c, 0, 59, 95
2, 428880, Note_on_c, 0, 55, 95
2, 428880, Note_on_c, 0, 51, 95
2, 428880, Note_on_c, 0, 46, 95
2, 428880, Note_on_c, 0, 39, 95
2, 429120, Note_off_c, 0, 64, 95
2, 429120, Note_off_c, 0, 59, 95
2, 429120, Note_off_c, 0, 55, 95
2, 429120, Note_off_c, 0, 51, 95
2, 429120, Note_off_c, 0, 46, 95
2, 429120, Note_off_c, 0, 39, 95
2, 429120, Note_on_c, 0, 64, 95
2, 429120, Note_on_c, 0, 59, 95
2, 429120, Note_on_c, 0, 55, 95
2, 429120, Note_on_c, 0, 53, 95
2, 429120, Note_on_c, 0, 48, 95
2, 429120, Note_on_c, 0, 41, 95
2, 429360, Note_off_c, 0, 64, 95
2, 429360, Note_off_c, 0, 59, 95
2, 429360, Note_off_c, 0, 55, 95
2, 429360, Note_off_c, 0, 53, 95
2, 429360, Note_off_c, 0, 48, 95
2, 429360, Note_off_c, 0, 41, 95
2, 429360, Note_on_c, 0, 64, 95
2, 429360, Note_on_c, 0, 59, 95
2, 429360, Note_on_c, 0, 55, 95
2, 429360, Note_on_c, 0, 53, 95
2, 429360, Note_on_c, 0, 48, 95
2, 429360, Note_on_c, 0, 41, 95
2, 429600, Note_off_c, 0, 64, 95
2, 429600, Note_off_c, 0, 59, 95
2, 429600, Note_off_c, 0, 55, 95
2, 429600, Note_off_c, 0, 53, 95
2, 429600, Note_off_c, 0, 48, 95
2, 429600, Note_off_c, 0, 41, 95
2, 429600, Note_on_c, 0, 64, 95
2, 429600, Note_on_c, 0, 59, 95
2, 429600, Note_on_c, 0, 55, 95
2, 429600, Note_on_c, 0, 53, 95
2, 429600, Note_on_c, 0, 48, 95
2, 429600, Note_on_c, 0, 41, 95
2, 429840, Note_off_c, 0, 64, 95
2, 429840, Note_off_c, 0, 59, 95
2, 429840, Note_off_c, 0, 55, 95
2, 429840, Note_off_c, 0, 53, 95
2, 429840, Note_off_c, 0, 48, 95
2, 429840, Note_off_c, 0, 41, 95
2, 429840, Note_on_c, 0, 64, 95
2, 429840, Note_on_c, 0, 59, 95
2, 429840, Note_on_c, 0, 55, 95
2, 429840, Note_on_c, 0, 53, 95
2, 429840, Note_on_c, 0, 48, 95
2, 429840, Note_on_c, 0, 41, 95
2, 430320, Note_off_c, 0, 64, 95
2, 430320, Note_off_c, 0, 59, 95
2, 430320, Note_off_c, 0, 55, 95
2, 430320, Note_off_c, 0, 53, 95
2, 430320, Note_off_c, 0, 48, 95
2, 430320, Note_off_c, 0, 41, 95
2, 430320, Note_on_c, 0, 64, 95
2, 430320, Note_on_c, 0, 59, 95
2, 430320, Note_on_c, 0, 55, 95
2, 430320, Note_on_c, 0, 53, 95
2, 430320, Note_on_c, 0, 48, 95
2, 430320, Note_on_c, 0, 41, 95
2, 430560, Note_off_c, 0, 64, 95
2, 430560, Note_off_c, 0, 59, 95
2, 430560, Note_off_c, 0, 55, 95
2, 430560, Note_off_c, 0, 53, 95
2, 430560, Note_off_c, 0, 48, 95
2, 430560, Note_off_c, 0, 41, 95
2, 430560, Note_on_c, 0, 64, 95
2, 430560, Note_on_c, 0, 59, 95
2, 430560, Note_on_c, 0, 55, 95
2, 430560, Note_on_c, 0, 53, 95
2, 430560, Note_on_c, 0, 48, 95
2, 430560, Note_on_c, 0, 41, 95
2, 431040, Note_off_c, 0, 64, 95
2, 431040, Note_off_c, 0, 59, 95
2, 431040, Note_off_c, 0, 55, 95
2, 431040, Note_off_c, 0, 53, 95
2, 431040, Note_off_c, 0, 48, 95
2, 431040, Note_off_c, 0, 41, 95
2, 431040, Note_on_c, 0, 64, 95
2, 431040, Note_on_c, 0, 59, 95
2, 431040, Note_on_c, 0, 55, 95
2, 431040, Note_on_c, 0, 53, 95
2, 431040, Note_on_c, 0, 48, 95
2, 431040, Note_on_c, 0, 41, 95
2, 431520, Note_off_c, 0, 64, 95
2, 431520, Note_off_c, 0, 59, 95
2, 431520, Note_off_c, 0, 55, 95
2, 431520, Note_off_c, 0, 53, 95
2, 431520, Note_off_c, 0, 48, 95
2, 431520, Note_off_c, 0, 41, 95
2, 431520, Note_on_c, 0, 64, 95
2, 431520, Note_on_c, 0, 59, 95
2, 431520, Note_on_c, 0, 55, 95
2, 431520, Note_on_c, 0, 53, 95
2, 431520, Note_on_c, 0, 48, 95
2, 431520, Note_on_c, 0, 41, 95
2, 431760, Note_off_c, 0, 64, 95
2, 431760, Note_off_c, 0, 59, 95
2, 431760, Note_off_c, 0, 55, 95
2, 431760, Note_off_c, 0, 53, 95
2, 431760, Note_off_c, 0, 48, 95
2, 431760, Note_off_c, 0, 41, 95
2, 431760, Note_on_c, 0, 64, 95
2, 431760, Note_on_c, 0, 59, 95
2, 431760, Note_on_c, 0, 55, 95
2, 431760, Note_on_c, 0, 53, 95
2, 431760, Note_on_c, 0, 48, 95
2, 431760, Note_on_c, 0, 41, 95
2, 432000, Note_off_c, 0, 64, 95
2, 432000, Note_off_c, 0, 59, 95
2, 432000, Note_off_c, 0, 55, 95
2, 432000, Note_off_c, 0, 53, 95
2, 432000, Note_off_c, 0, 48, 95
2, 432000, Note_off_c, 0, 41, 95
2, 432000, Note_on_c, 0, 64, 95
2, 432000, Note_on_c, 0, 59, 95
2, 432000, Note_on_c, 0, 55, 95
2, 432000, Note_on_c, 0, 52, 95
2, 432000, Note_on_c, 0, 47, 95
2, 432000, Note_on_c, 0, 40, 95
2, 432240, Note_off_c, 0, 64, 95
2, 432240, Note_off_c, 0, 59, 95
2, 432240, Note_off_c, 0, 55, 95
2, 432240, Note_off_c, 0, 52, 95
2, 432240, Note_off_c, 0, 47, 95
2, 432240, Note_off_c, 0, 40, 95
2, 432240, Note_on_c, 0, 64, 95
2, 432240, Note_on_c, 0, 59, 95
2, 432240, Note_on_c, 0, 55, 95
2, 432240, Note_on_c, 0, 52, 95
2, 432240, Note_on_c, 0, 47, 95
2, 432240, Note_on_c, 0, 40, 95
2, 432480, Note_off_c, 0, 64, 95
2, 432480, Note_off_c, 0, 59, 95
2, 432480, Note_off_c, 0, 55, 95
2, 432480, Note_off_c, 0, 52, 95
2, 432480, Note_off_c, 0, 47, 95
2, 432480, Note_off_c, 0, 40, 95
2, 432480, Note_on_c, 0, 64, 95
2, 432480, Note_on_c, 0, 59, 95
2, 432480, Note_on_c, 0, 55, 95
2, 432480, Note_on_c, 0, 52, 95
2, 432480, Note_on_c, 0, 47, 95
2, 432480, Note_on_c, 0, 40, 95
2, 432720, Note_off_c, 0, 64, 95
2, 432720, Note_off_c, 0, 59, 95
2, 432720, Note_off_c, 0, 55, 95
2, 432720, Note_off_c, 0, 52, 95
2, 432720, Note_off_c, 0, 47, 95
2, 432720, Note_off_c, 0, 40, 95
2, 432720, Note_on_c, 0, 64, 95
2, 432720, Note_on_c, 0, 59, 95
2, 432720, Note_on_c, 0, 55, 95
2, 432720, Note_on_c, 0, 52, 95
2, 432720, Note_on_c, 0, 47, 95
2, 432720, Note_on_c, 0, 40, 95
2, 433200, Note_off_c, 0, 64, 95
2, 433200, Note_off_c, 0, 59, 95
2, 433200, Note_off_c, 0, 55, 95
2, 433200, Note_off_c, 0, 52, 95
2, 433200, Note_off_c, 0, 47, 95
2, 433200, Note_off_c, 0, 40, 95
2, 433200, Note_on_c, 0, 64, 95
2, 433200, Note_on_c, 0, 59, 95
2, 433200, Note_on_c, 0, 55, 95
2, 433200, Note_on_c, 0, 52, 95
2, 433200, Note_on_c, 0, 47, 95
2, 433200, Note_on_c, 0, 40, 95
2, 433440, Note_off_c, 0, 64, 95
2, 433440, Note_off_c, 0, 59, 95
2, 433440, Note_off_c, 0, 55, 95
2, 433440, Note_off_c, 0, 52, 95
2, 433440, Note_off_c, 0, 47, 95
2, 433440, Note_off_c, 0, 40, 95
2, 433440, Note_on_c, 0, 64, 95
2, 433440, Note_on_c, 0, 59, 95
2, 433440, Note_on_c, 0, 55, 95
2, 433440, Note_on_c, 0, 52, 95
2, 433440, Note_on_c, 0, 47, 95
2, 433440, Note_on_c, 0, 40, 95
2, 433920, Note_off_c, 0, 64, 95
2, 433920, Note_off_c, 0, 59, 95
2, 433920, Note_off_c, 0, 55, 95
2, 433920, Note_off_c, 0, 52, 95
2, 433920, Note_off_c, 0, 47, 95
2, 433920, Note_off_c, 0, 40, 95
2, 433920, Note_on_c, 0, 64, 95
2, 433920, Note_on_c, 0, 59, 95
2, 433920, Note_on_c, 0, 55, 95
2, 433920, Note_on_c, 0, 52, 95
2, 433920, Note_on_c, 0, 47, 95
2, 433920, Note_on_c, 0, 40, 95
2, 434400, Note_off_c, 0, 64, 95
2, 434400, Note_off_c, 0, 59, 95
2, 434400, Note_off_c, 0, 55, 95
2, 434400, Note_off_c, 0, 52, 95
2, 434400, Note_off_c, 0, 47, 95
2, 434400, Note_off_c, 0, 40, 95
2, 434400, Note_on_c, 0, 64, 95
2, 434400, Note_on_c, 0, 59, 95
2, 434400, Note_on_c, 0, 55, 95
2, 434400, Note_on_c, 0, 52, 95
2, 434400, Note_on_c, 0, 47, 95
2, 434400, Note_on_c, 0, 40, 95
2, 434640, Note_off_c, 0, 64, 95
2, 434640, Note_off_c, 0, 59, 95
2, 434640, Note_off_c, 0, 55, 95
2, 434640, Note_off_c, 0, 52, 95
2, 434640, Note_off_c, 0, 47, 95
2, 434640, Note_off_c, 0, 40, 95
2, 434640, Note_on_c, 0, 64, 95
2, 434640, Note_on_c, 0, 59, 95
2, 434640, Note_on_c, 0, 55, 95
2, 434640, Note_on_c, 0, 52, 95
2, 434640, Note_on_c, 0, 47, 95
2, 434640, Note_on_c, 0, 40, 95
2, 434880, Note_off_c, 0, 64, 95
2, 434880, Note_off_c, 0, 59, 95
2, 434880, Note_off_c, 0, 55, 95
2, 434880, Note_off_c, 0, 52, 95
2, 434880, Note_off_c, 0, 47, 95
2, 434880, Note_off_c, 0, 40, 95
2, 434880, Note_on_c, 0, 64, 95
2, 434880, Note_on_c, 0, 59, 95
2, 434880, Note_on_c, 0, 55, 95
2, 434880, Note_on_c, 0, 51, 95
2, 434880, Note_on_c, 0, 46, 95
2, 434880, Note_on_c, 0, 39, 95
2, 435120, Note_off_c, 0, 64, 95
2, 435120, Note_off_c, 0, 59, 95
2, 435120, Note_off_c, 0, 55, 95
2, 435120, Note_off_c, 0, 51, 95
2, 435120, Note_off_c, 0, 46, 95
2, 435120, Note_off_c, 0, 39, 95
2, 435120, Note_on_c, 0, 64, 95
2, 435120, Note_on_c, 0, 59, 95
2, 435120, Note_on_c, 0, 55, 95
2, 435120, Note_on_c, 0, 51, 95
2, 435120, Note_on_c, 0, 46, 95
2, 435120, Note_on_c, 0, 39, 95
2, 435360, Note_off_c, 0, 64, 95
2, 435360, Note_off_c, 0, 59, 95
2, 435360, Note_off_c, 0, 55, 95
2, 435360, Note_off_c, 0, 51, 95
2, 435360, Note_off_c, 0, 46, 95
2, 435360, Note_off_c, 0, 39, 95
2, 435360, Note_on_c, 0, 64, 95
2, 435360, Note_on_c, 0, 59, 95
2, 435360, Note_on_c, 0, 55, 95
2, 435360, Note_on_c, 0, 51, 95
2, 435360, Note_on_c, 0, 46, 95
2, 435360, Note_on_c, 0, 39, 95
2, 435600, Note_off_c, 0, 64, 95
2, 435600, Note_off_c, 0, 59, 95
2, 435600, Note_off_c, 0, 55, 95
2, 435600, Note_off_c, 0, 51, 95
2, 435600, Note_off_c, 0, 46, 95
2, 435600, Note_off_c, 0, 39, 95
2, 435600, Note_on_c, 0, 64, 95
2, 435600, Note_on_c, 0, 59, 95
2, 435600, Note_on_c, 0, 55, 95
2, 435600, Note_on_c, 0, 51, 95
2, 435600, Note_on_c, 0, 46, 95
2, 435600, Note_on_c, 0, 39, 95
2, 436080, Note_off_c, 0, 64, 95
2, 436080, Note_off_c, 0, 59, 95
2, 436080, Note_off_c, 0, 55, 95
2, 436080, Note_off_c, 0, 51, 95
2, 436080, Note_off_c, 0, 46, 95
2, 436080, Note_off_c, 0, 39, 95
2, 436080, Note_on_c, 0, 64, 95
2, 436080, Note_on_c, 0, 59, 95
2, 436080, Note_on_c, 0, 55, 95
2, 436080, Note_on_c, 0, 51, 95
2, 436080, Note_on_c, 0, 46, 95
2, 436080, Note_on_c, 0, 39, 95
2, 436320, Note_off_c, 0, 64, 95
2, 436320, Note_off_c, 0, 59, 95
2, 436320, Note_off_c, 0, 55, 95
2, 436320, Note_off_c, 0, 51, 95
2, 436320, Note_off_c, 0, 46, 95
2, 436320, Note_off_c, 0, 39, 95
2, 436320, Note_on_c, 0, 64, 95
2, 436320, Note_on_c, 0, 59, 95
2, 436320, Note_on_c, 0, 55, 95
2, 436320, Note_on_c, 0, 51, 95
2, 436320, Note_on_c, 0, 46, 95
2, 436320, Note_on_c, 0, 39, 95
2, 436800, Note_off_c, 0, 64, 95
2, 436800, Note_off_c, 0, 59, 95
2, 436800, Note_off_c, 0, 55, 95
2, 436800, Note_off_c, 0, 51, 95
2, 436800, Note_off_c, 0, 46, 95
2, 436800, Note_off_c, 0, 39, 95
2, 436800, Note_on_c, 0, 64, 95
2, 436800, Note_on_c, 0, 59, 95
2, 436800, Note_on_c, 0, 55, 95
2, 436800, Note_on_c, 0, 51, 95
2, 436800, Note_on_c, 0, 46, 95
2, 436800, Note_on_c, 0, 39, 95
2, 437280, Note_off_c, 0, 64, 95
2, 437280, Note_off_c, 0, 59, 95
2, 437280, Note_off_c, 0, 55, 95
2, 437280, Note_off_c, 0, 51, 95
2, 437280, Note_off_c, 0, 46, 95
2, 437280, Note_off_c, 0, 39, 95
2, 437280, Note_on_c, 0, 64, 95
2, 437280, Note_on_c, 0, 59, 95
2, 437280, Note_on_c, 0, 55, 95
2, 437280, Note_on_c, 0, 51, 95
2, 437280, Note_on_c, 0, 46, 95
2, 437280, Note_on_c, 0, 39, 95
2, 437520, Note_off_c, 0, 64, 95
2, 437520, Note_off_c, 0, 59, 95
2, 437520, Note_off_c, 0, 55, 95
2, 437520, Note_off_c, 0, 51, 95
2, 437520, Note_off_c, 0, 46, 95
2, 437520, Note_off_c, 0, 39, 95
2, 437520, Note_on_c, 0, 64, 95
2, 437520, Note_on_c, 0, 59, 95
2, 437520, Note_on_c, 0, 55, 95
2, 437520, Note_on_c, 0, 51, 95
2, 437520, Note_on_c, 0, 46, 95
2, 437520, Note_on_c, 0, 39, 95
2, 437760, Note_off_c, 0, 64, 95
2, 437760, Note_off_c, 0, 59, 95
2, 437760, Note_off_c, 0, 55, 95
2, 437760, Note_off_c, 0, 51, 95
2, 437760, Note_off_c, 0, 46, 95
2, 437760, Note_off_c, 0, 39, 95
2, 437760, Note_on_c, 0, 64, 95
2, 437760, Note_on_c, 0, 59, 95
2, 437760, Note_on_c, 0, 55, 95
2, 437760, Note_on_c, 0, 51, 95
2, 437760, Note_on_c, 0, 46, 95
2, 437760, Note_on_c, 0, 39, 95
2, 438000, Note_off_c, 0, 64, 95
2, 438000, Note_off_c, 0, 59, 95
2, 438000, Note_off_c, 0, 55, 95
2, 438000, Note_off_c, 0, 51, 95
2, 438000, Note_off_c, 0, 46, 95
2, 438000, Note_off_c, 0, 39, 95
2, 438000, Note_on_c, 0, 64, 95
2, 438000, Note_on_c, 0, 59, 95
2, 438000, Note_on_c, 0, 55, 95
2, 438000, Note_on_c, 0, 51, 95
2, 438000, Note_on_c, 0, 46, 95
2, 438000, Note_on_c, 0, 39, 95
2, 438240, Note_off_c, 0, 64, 95
2, 438240, Note_off_c, 0, 59, 95
2, 438240, Note_off_c, 0, 55, 95
2, 438240, Note_off_c, 0, 51, 95
2, 438240, Note_off_c, 0, 46, 95
2, 438240, Note_off_c, 0, 39, 95
2, 438240, Note_on_c, 0, 64, 95
2, 438240, Note_on_c, 0, 59, 95
2, 438240, Note_on_c, 0, 55, 95
2, 438240, Note_on_c, 0, 51, 95
2, 438240, Note_on_c, 0, 46, 95
2, 438240, Note_on_c, 0, 39, 95
2, 438480, Note_off_c, 0, 64, 95
2, 438480, Note_off_c, 0, 59, 95
2, 438480, Note_off_c, 0, 55, 95
2, 438480, Note_off_c, 0, 51, 95
2, 438480, Note_off_c, 0, 46, 95
2, 438480, Note_off_c, 0, 39, 95
2, 438480, Note_on_c, 0, 64, 95
2, 438480, Note_on_c, 0, 59, 95
2, 438480, Note_on_c, 0, 55, 95
2, 438480, Note_on_c, 0, 51, 95
2, 438480, Note_on_c, 0, 46, 95
2, 438480, Note_on_c, 0, 39, 95
2, 438960, Note_off_c, 0, 64, 95
2, 438960, Note_off_c, 0, 59, 95
2, 438960, Note_off_c, 0, 55, 95
2, 438960, Note_off_c, 0, 51, 95
2, 438960, Note_off_c, 0, 46, 95
2, 438960, Note_off_c, 0, 39, 95
2, 438960, Note_on_c, 0, 64, 95
2, 438960, Note_on_c, 0, 59, 95
2, 438960, Note_on_c, 0, 55, 95
2, 438960, Note_on_c, 0, 51, 95
2, 438960, Note_on_c, 0, 46, 95
2, 438960, Note_on_c, 0, 39, 95
2, 439200, Note_off_c, 0, 64, 95
2, 439200, Note_off_c, 0, 59, 95
2, 439200, Note_off_c, 0, 55, 95
2, 439200, Note_off_c, 0, 51, 95
2, 439200, Note_off_c, 0, 46, 95
2, 439200, Note_off_c, 0, 39, 95
2, 439200, Note_on_c, 0, 64, 95
2, 439200, Note_on_c, 0, 59, 95
2, 439200, Note_on_c, 0, 55, 95
2, 439200, Note_on_c, 0, 51, 95
2, 439200, Note_on_c, 0, 46, 95
2, 439200, Note_on_c, 0, 39, 95
2, 439680, Note_off_c, 0, 64, 95
2, 439680, Note_off_c, 0, 59, 95
2, 439680, Note_off_c, 0, 55, 95
2, 439680, Note_off_c, 0, 51, 95
2, 439680, Note_off_c, 0, 46, 95
2, 439680, Note_off_c, 0, 39, 95
2, 439680, Note_on_c, 0, 64, 95
2, 439680, Note_on_c, 0, 59, 95
2, 439680, Note_on_c, 0, 55, 95
2, 439680, Note_on_c, 0, 51, 95
2, 439680, Note_on_c, 0, 46, 95
2, 439680, Note_on_c, 0, 39, 95
2, 440160, Note_off_c, 0, 64, 95
2, 440160, Note_off_c, 0, 59, 95
2, 440160, Note_off_c, 0, 55, 95
2, 440160, Note_off_c, 0, 51, 95
2, 440160, Note_off_c, 0, 46, 95
2, 440160, Note_off_c, 0, 39, 95
2, 440160, Note_on_c, 0, 64, 95
2, 440160, Note_on_c, 0, 59, 95
2, 440160, Note_on_c, 0, 55, 95
2, 440160, Note_on_c, 0, 51, 95
2, 440160, Note_on_c, 0, 46, 95
2, 440160, Note_on_c, 0, 39, 95
2, 440400, Note_off_c, 0, 64, 95
2, 440400, Note_off_c, 0, 59, 95
2, 440400, Note_off_c, 0, 55, 95
2, 440400, Note_off_c, 0, 51, 95
2, 440400, Note_off_c, 0, 46, 95
2, 440400, Note_off_c, 0, 39, 95
2, 440400, Note_on_c, 0, 64, 95
2, 440400, Note_on_c, 0, 59, 95
2, 440400, Note_on_c, 0, 55, 95
2, 440400, Note_on_c, 0, 51, 95
2, 440400, Note_on_c, 0, 46, 95
2, 440400, Note_on_c, 0, 39, 95
2, 440640, Note_off_c, 0, 64, 95
2, 440640, Note_off_c, 0, 59, 95
2, 440640, Note_off_c, 0, 55, 95
2, 440640, Note_off_c, 0, 51, 95
2, 440640, Note_off_c, 0, 46, 95
2, 440640, Note_off_c, 0, 39, 95
2, 440640, Note_on_c, 0, 64, 95
2, 440640, Note_on_c, 0, 59, 95
2, 440640, Note_on_c, 0, 55, 95
2, 440640, Note_on_c, 0, 53, 95
2, 440640, Note_on_c, 0, 48, 95
2, 440640, Note_on_c, 0, 41, 95
2, 440880, Note_off_c, 0, 64, 95
2, 440880, Note_off_c, 0, 59, 95
2, 440880, Note_off_c, 0, 55, 95
2, 440880, Note_off_c, 0, 53, 95
2, 440880, Note_off_c, 0, 48, 95
2, 440880, Note_off_c, 0, 41, 95
2, 440880, Note_on_c, 0, 64, 95
2, 440880, Note_on_c, 0, 59, 95
2, 440880, Note_on_c, 0, 55, 95
2, 440880, Note_on_c, 0, 53, 95
2, 440880, Note_on_c, 0, 48, 95
2, 440880, Note_on_c, 0, 41, 95
2, 441120, Note_off_c, 0, 64, 95
2, 441120, Note_off_c, 0, 59, 95
2, 441120, Note_off_c, 0, 55, 95
2, 441120, Note_off_c, 0, 53, 95
2, 441120, Note_off_c, 0, 48, 95
2, 441120, Note_off_c, 0, 41, 95
2, 441120, Note_on_c, 0, 64, 95
2, 441120, Note_on_c, 0, 59, 95
2, 441120, Note_on_c, 0, 55, 95
2, 441120, Note_on_c, 0, 53, 95
2, 441120, Note_on_c, 0, 48, 95
2, 441120, Note_on_c, 0, 41, 95
2, 441360, Note_off_c, 0, 64, 95
2, 441360, Note_off_c, 0, 59, 95
2, 441360, Note_off_c, 0, 55, 95
2, 441360, Note_off_c, 0, 53, 95
2, 441360, Note_off_c, 0, 48, 95
2, 441360, Note_off_c, 0, 41, 95
2, 441360, Note_on_c, 0, 64, 95
2, 441360, Note_on_c, 0, 59, 95
2, 441360, Note_on_c, 0, 55, 95
2, 441360, Note_on_c, 0, 53, 95
2, 441360, Note_on_c, 0, 48, 95
2, 441360, Note_on_c, 0, 41, 95
2, 441840, Note_off_c, 0, 64, 95
2, 441840, Note_off_c, 0, 59, 95
2, 441840, Note_off_c, 0, 55, 95
2, 441840, Note_off_c, 0, 53, 95
2, 441840, Note_off_c, 0, 48, 95
2, 441840, Note_off_c, 0, 41, 95
2, 441840, Note_on_c, 0, 64, 95
2, 441840, Note_on_c, 0, 59, 95
2, 441840, Note_on_c, 0, 55, 95
2, 441840, Note_on_c, 0, 53, 95
2, 441840, Note_on_c, 0, 48, 95
2, 441840, Note_on_c, 0, 41, 95
2, 442080, Note_off_c, 0, 64, 95
2, 442080, Note_off_c, 0, 59, 95
2, 442080, Note_off_c, 0, 55, 95
2, 442080, Note_off_c, 0, 53, 95
2, 442080, Note_off_c, 0, 48, 95
2, 442080, Note_off_c, 0, 41, 95
2, 442080, Note_on_c, 0, 64, 95
2, 442080, Note_on_c, 0, 59, 95
2, 442080, Note_on_c, 0, 55, 95
2, 442080, Note_on_c, 0, 53, 95
2, 442080, Note_on_c, 0, 48, 95
2, 442080, Note_on_c, 0, 41, 95
2, 442560, Note_off_c, 0, 64, 95
2, 442560, Note_off_c, 0, 59, 95
2, 442560, Note_off_c, 0, 55, 95
2, 442560, Note_off_c, 0, 53, 95
2, 442560, Note_off_c, 0, 48, 95
2, 442560, Note_off_c, 0, 41, 95
2, 442560, Note_on_c, 0, 64, 95
2, 442560, Note_on_c, 0, 59, 95
2, 442560, Note_on_c, 0, 55, 95
2, 442560, Note_on_c, 0, 53, 95
2, 442560, Note_on_c, 0, 48, 95
2, 442560, Note_on_c, 0, 41, 95
2, 443040, Note_off_c, 0, 64, 95
2, 443040, Note_off_c, 0, 59, 95
2, 443040, Note_off_c, 0, 55, 95
2, 443040, Note_off_c, 0, 53, 95
2, 443040, Note_off_c, 0, 48, 95
2, 443040, Note_off_c, 0, 41, 95
2, 443040, Note_on_c, 0, 64, 95
2, 443040, Note_on_c, 0, 59, 95
2, 443040, Note_on_c, 0, 55, 95
2, 443040, Note_on_c, 0, 53, 95
2, 443040, Note_on_c, 0, 48, 95
2, 443040, Note_on_c, 0, 41, 95
2, 443280, Note_off_c, 0, 64, 95
2, 443280, Note_off_c, 0, 59, 95
2, 443280, Note_off_c, 0, 55, 95
2, 443280, Note_off_c, 0, 53, 95
2, 443280, Note_off_c, 0, 48, 95
2, 443280, Note_off_c, 0, 41, 95
2, 443280, Note_on_c, 0, 64, 95
2, 443280, Note_on_c, 0, 59, 95
2, 443280, Note_on_c, 0, 55, 95
2, 443280, Note_on_c, 0, 53, 95
2, 443280, Note_on_c, 0, 48, 95
2, 443280, Note_on_c, 0, 41, 95
2, 443520, Note_off_c, 0, 64, 95
2, 443520, Note_off_c, 0, 59, 95
2, 443520, Note_off_c, 0, 55, 95
2, 443520, Note_off_c, 0, 53, 95
2, 443520, Note_off_c, 0, 48, 95
2, 443520, Note_off_c, 0, 41, 95
2, 443520, Note_on_c, 0, 64, 95
2, 443520, Note_on_c, 0, 59, 95
2, 443520, Note_on_c, 0, 55, 95
2, 443520, Note_on_c, 0, 52, 95
2, 443520, Note_on_c, 0, 47, 95
2, 443520, Note_on_c, 0, 40, 95
2, 443760, Note_off_c, 0, 64, 95
2, 443760, Note_off_c, 0, 59, 95
2, 443760, Note_off_c, 0, 55, 95
2, 443760, Note_off_c, 0, 52, 95
2, 443760, Note_off_c, 0, 47, 95
2, 443760, Note_off_c, 0, 40, 95
2, 443760, Note_on_c, 0, 64, 95
2, 443760, Note_on_c, 0, 59, 95
2, 443760, Note_on_c, 0, 55, 95
2, 443760, Note_on_c, 0, 52, 95
2, 443760, Note_on_c, 0, 47, 95
2, 443760, Note_on_c, 0, 40, 95
2, 444000, Note_off_c, 0, 64, 95
2, 444000, Note_off_c, 0, 59, 95
2, 444000, Note_off_c, 0, 55, 95
2, 444000, Note_off_c, 0, 52, 95
2, 444000, Note_off_c, 0, 47, 95
2, 444000, Note_off_c, 0, 40, 95
2, 444000, Note_on_c, 0, 64, 95
2, 444000, Note_on_c, 0, 59, 95
2, 444000, Note_on_c, 0, 55, 95
2, 444000, Note_on_c, 0, 52, 95
2, 444000, Note_on_c, 0, 47, 95
2, 444000, Note_on_c, 0, 40, 95
2, 444240, Note_off_c, 0, 64, 95
2, 444240, Note_off_c, 0, 59, 95
2, 444240, Note_off_c, 0, 55, 95
2, 444240, Note_off_c, 0, 52, 95
2, 444240, Note_off_c, 0, 47, 95
2, 444240, Note_off_c, 0, 40, 95
2, 444240, Note_on_c, 0, 64, 95
2, 444240, Note_on_c, 0, 59, 95
2, 444240, Note_on_c, 0, 55, 95
2, 444240, Note_on_c, 0, 52, 95
2, 444240, Note_on_c, 0, 47, 95
2, 444240, Note_on_c, 0, 40, 95
2, 444720, Note_off_c, 0, 64, 95
2, 444720, Note_off_c, 0, 59, 95
2, 444720, Note_off_c, 0, 55, 95
2, 444720, Note_off_c, 0, 52, 95
2, 444720, Note_off_c, 0, 47, 95
2, 444720, Note_off_c, 0, 40, 95
2, 444720, Note_on_c, 0, 64, 95
2, 444720, Note_on_c, 0, 59, 95
2, 444720, Note_on_c, 0, 55, 95
2, 444720, Note_on_c, 0, 52, 95
2, 444720, Note_on_c, 0, 47, 95
2, 444720, Note_on_c, 0, 40, 95
2, 444960, Note_off_c, 0, 64, 95
2, 444960, Note_off_c, 0, 59, 95
2, 444960, Note_off_c, 0, 55, 95
2, 444960, Note_off_c, 0, 52, 95
2, 444960, Note_off_c, 0, 47, 95
2, 444960, Note_off_c, 0, 40, 95
2, 444960, Note_on_c, 0, 64, 95
2, 444960, Note_on_c, 0, 59, 95
2, 444960, Note_on_c, 0, 55, 95
2, 444960, Note_on_c, 0, 52, 95
2, 444960, Note_on_c, 0, 47, 95
2, 444960, Note_on_c, 0, 40, 95
2, 445440, Note_off_c, 0, 64, 95
2, 445440, Note_off_c, 0, 59, 95
2, 445440, Note_off_c, 0, 55, 95
2, 445440, Note_off_c, 0, 52, 95
2, 445440, Note_off_c, 0, 47, 95
2, 445440, Note_off_c, 0, 40, 95
2, 445440, Note_on_c, 0, 64, 95
2, 445440, Note_on_c, 0, 59, 95
2, 445440, Note_on_c, 0, 55, 95
2, 445440, Note_on_c, 0, 52, 95
2, 445440, Note_on_c, 0, 47, 95
2, 445440, Note_on_c, 0, 40, 95
2, 445920, Note_off_c, 0, 64, 95
2, 445920, Note_off_c, 0, 59, 95
2, 445920, Note_off_c, 0, 55, 95
2, 445920, Note_off_c, 0, 52, 95
2, 445920, Note_off_c, 0, 47, 95
2, 445920, Note_off_c, 0, 40, 95
2, 445920, Note_on_c, 0, 64, 95
2, 445920, Note_on_c, 0, 59, 95
2, 445920, Note_on_c, 0, 55, 95
2, 445920, Note_on_c, 0, 52, 95
2, 445920, Note_on_c, 0, 47, 95
2, 445920, Note_on_c, 0, 40, 95
2, 446160, Note_off_c, 0, 64, 95
2, 446160, Note_off_c, 0, 59, 95
2, 446160, Note_off_c, 0, 55, 95
2, 446160, Note_off_c, 0, 52, 95
2, 446160, Note_off_c, 0, 47, 95
2, 446160, Note_off_c, 0, 40, 95
2, 446160, Note_on_c, 0, 64, 95
2, 446160, Note_on_c, 0, 59, 95
2, 446160, Note_on_c, 0, 55, 95
2, 446160, Note_on_c, 0, 52, 95
2, 446160, Note_on_c, 0, 47, 95
2, 446160, Note_on_c, 0, 40, 95
2, 446400, Note_off_c, 0, 64, 95
2, 446400, Note_off_c, 0, 59, 95
2, 446400, Note_off_c, 0, 55, 95
2, 446400, Note_off_c, 0, 52, 95
2, 446400, Note_off_c, 0, 47, 95
2, 446400, Note_off_c, 0, 40, 95
2, 446400, Note_on_c, 0, 64, 95
2, 446400, Note_on_c, 0, 59, 95
2, 446400, Note_on_c, 0, 55, 95
2, 446400, Note_on_c, 0, 51, 95
2, 446400, Note_on_c, 0, 46, 95
2, 446400, Note_on_c, 0, 39, 95
2, 446640, Note_off_c, 0, 64, 95
2, 446640, Note_off_c, 0, 59, 95
2, 446640, Note_off_c, 0, 55, 95
2, 446640, Note_off_c, 0, 51, 95
2, 446640, Note_off_c, 0, 46, 95
2, 446640, Note_off_c, 0, 39, 95
2, 446640, Note_on_c, 0, 64, 95
2, 446640, Note_on_c, 0, 59, 95
2, 446640, Note_on_c, 0, 55, 95
2, 446640, Note_on_c, 0, 51, 95
2, 446640, Note_on_c, 0, 46, 95
2, 446640, Note_on_c, 0, 39, 95
2, 446880, Note_off_c, 0, 64, 95
2, 446880, Note_off_c, 0, 59, 95
2, 446880, Note_off_c, 0, 55, 95
2, 446880, Note_off_c, 0, 51, 95
2, 446880, Note_off_c, 0, 46, 95
2, 446880, Note_off_c, 0, 39, 95
2, 446880, Note_on_c, 0, 64, 95
2, 446880, Note_on_c, 0, 59, 95
2, 446880, Note_on_c, 0, 55, 95
2, 446880, Note_on_c, 0, 51, 95
2, 446880, Note_on_c, 0, 46, 95
2, 446880, Note_on_c, 0, 39, 95
2, 447120, Note_off_c, 0, 64, 95
2, 447120, Note_off_c, 0, 59, 95
2, 447120, Note_off_c, 0, 55, 95
2, 447120, Note_off_c, 0, 51, 95
2, 447120, Note_off_c, 0, 46, 95
2, 447120, Note_off_c, 0, 39, 95
2, 447120, Note_on_c, 0, 64, 95
2, 447120, Note_on_c, 0, 59, 95
2, 447120, Note_on_c, 0, 55, 95
2, 447120, Note_on_c, 0, 51, 95
2, 447120, Note_on_c, 0, 46, 95
2, 447120, Note_on_c, 0, 39, 95
2, 447600, Note_off_c, 0, 64, 95
2, 447600, Note_off_c, 0, 59, 95
2, 447600, Note_off_c, 0, 55, 95
2, 447600, Note_off_c, 0, 51, 95
2, 447600, Note_off_c, 0, 46, 95
2, 447600, Note_off_c, 0, 39, 95
2, 447600, Note_on_c, 0, 64, 95
2, 447600, Note_on_c, 0, 59, 95
2, 447600, Note_on_c, 0, 55, 95
2, 447600, Note_on_c, 0, 51, 95
2, 447600, Note_on_c, 0, 46, 95
2, 447600, Note_on_c, 0, 39, 95
2, 447840, Note_off_c, 0, 64, 95
2, 447840, Note_off_c, 0, 59, 95
2, 447840, Note_off_c, 0, 55, 95
2, 447840, Note_off_c, 0, 51, 95
2, 447840, Note_off_c, 0, 46, 95
2, 447840, Note_off_c, 0, 39, 95
2, 447840, Note_on_c, 0, 64, 95
2, 447840, Note_on_c, 0, 59, 95
2, 447840, Note_on_c, 0, 55, 95
2, 447840, Note_on_c, 0, 51, 95
2, 447840, Note_on_c, 0, 46, 95
2, 447840, Note_on_c, 0, 39, 95
2, 448320, Note_off_c, 0, 64, 95
2, 448320, Note_off_c, 0, 59, 95
2, 448320, Note_off_c, 0, 55, 95
2, 448320, Note_off_c, 0, 51, 95
2, 448320, Note_off_c, 0, 46, 95
2, 448320, Note_off_c, 0, 39, 95
2, 448320, Note_on_c, 0, 64, 95
2, 448320, Note_on_c, 0, 59, 95
2, 448320, Note_on_c, 0, 55, 95
2, 448320, Note_on_c, 0, 51, 95
2, 448320, Note_on_c, 0, 46, 95
2, 448320, Note_on_c, 0, 39, 95
2, 448800, Note_off_c, 0, 64, 95
2, 448800, Note_off_c, 0, 59, 95
2, 448800, Note_off_c, 0, 55, 95
2, 448800, Note_off_c, 0, 51, 95
2, 448800, Note_off_c, 0, 46, 95
2, 448800, Note_off_c, 0, 39, 95
2, 448800, Note_on_c, 0, 64, 95
2, 448800, Note_on_c, 0, 59, 95
2, 448800, Note_on_c, 0, 55, 95
2, 448800, Note_on_c, 0, 51, 95
2, 448800, Note_on_c, 0, 46, 95
2, 448800, Note_on_c, 0, 39, 95
2, 449040, Note_off_c, 0, 64, 95
2, 449040, Note_off_c, 0, 59, 95
2, 449040, Note_off_c, 0, 55, 95
2, 449040, Note_off_c, 0, 51, 95
2, 449040, Note_off_c, 0, 46, 95
2, 449040, Note_off_c, 0, 39, 95
2, 449040, Note_on_c, 0, 64, 95
2, 449040, Note_on_c, 0, 59, 95
2, 449040, Note_on_c, 0, 55, 95
2, 449040, Note_on_c, 0, 51, 95
2, 449040, Note_on_c, 0, 46, 95
2, 449040, Note_on_c, 0, 39, 95
2, 449280, Note_off_c, 0, 64, 95
2, 449280, Note_off_c, 0, 59, 95
2, 449280, Note_off_c, 0, 55, 95
2, 449280, Note_off_c, 0, 51, 95
2, 449280, Note_off_c, 0, 46, 95
2, 449280, Note_off_c, 0, 39, 95
2, 449280, Note_on_c, 0, 64, 95
2, 449280, Note_on_c, 0, 59, 95
2, 449280, Note_on_c, 0, 55, 95
2, 449280, Note_on_c, 0, 51, 95
2, 449280, Note_on_c, 0, 46, 95
2, 449280, Note_on_c, 0, 39, 95
2, 449520, Note_off_c, 0, 64, 95
2, 449520, Note_off_c, 0, 59, 95
2, 449520, Note_off_c, 0, 55, 95
2, 449520, Note_off_c, 0, 51, 95
2, 449520, Note_off_c, 0, 46, 95
2, 449520, Note_off_c, 0, 39, 95
2, 449520, Note_on_c, 0, 64, 95
2, 449520, Note_on_c, 0, 59, 95
2, 449520, Note_on_c, 0, 55, 95
2, 449520, Note_on_c, 0, 51, 95
2, 449520, Note_on_c, 0, 46, 95
2, 449520, Note_on_c, 0, 39, 95
2, 449760, Note_off_c, 0, 64, 95
2, 449760, Note_off_c, 0, 59, 95
2, 449760, Note_off_c, 0, 55, 95
2, 449760, Note_off_c, 0, 51, 95
2, 449760, Note_off_c, 0, 46, 95
2, 449760, Note_off_c, 0, 39, 95
2, 449760, Note_on_c, 0, 64, 95
2, 449760, Note_on_c, 0, 59, 95
2, 449760, Note_on_c, 0, 55, 95
2, 449760, Note_on_c, 0, 51, 95
2, 449760, Note_on_c, 0, 46, 95
2, 449760, Note_on_c, 0, 39, 95
2, 450000, Note_off_c, 0, 64, 95
2, 450000, Note_off_c, 0, 59, 95
2, 450000, Note_off_c, 0, 55, 95
2, 450000, Note_off_c, 0, 51, 95
2, 450000, Note_off_c, 0, 46, 95
2, 450000, Note_off_c, 0, 39, 95
2, 450000, Note_on_c, 0, 64, 95
2, 450000, Note_on_c, 0, 59, 95
2, 450000, Note_on_c, 0, 55, 95
2, 450000, Note_on_c, 0, 51, 95
2, 450000, Note_on_c, 0, 46, 95
2, 450000, Note_on_c, 0, 39, 95
2, 450480, Note_off_c, 0, 64, 95
2, 450480, Note_off_c, 0, 59, 95
2, 450480, Note_off_c, 0, 55, 95
2, 450480, Note_off_c, 0, 51, 95
2, 450480, Note_off_c, 0, 46, 95
2, 450480, Note_off_c, 0, 39, 95
2, 450480, Note_on_c, 0, 64, 95
2, 450480, Note_on_c, 0, 59, 95
2, 450480, Note_on_c, 0, 55, 95
2, 450480, Note_on_c, 0, 51, 95
2, 450480, Note_on_c, 0, 46, 95
2, 450480, Note_on_c, 0, 39, 95
2, 450720, Note_off_c, 0, 64, 95
2, 450720, Note_off_c, 0, 59, 95
2, 450720, Note_off_c, 0, 55, 95
2, 450720, Note_off_c, 0, 51, 95
2, 450720, Note_off_c, 0, 46, 95
2, 450720, Note_off_c, 0, 39, 95
2, 450720, Note_on_c, 0, 64, 95
2, 450720, Note_on_c, 0, 59, 95
2, 450720, Note_on_c, 0, 55, 95
2, 450720, Note_on_c, 0, 51, 95
2, 450720, Note_on_c, 0, 46, 95
2, 450720, Note_on_c, 0, 39, 95
2, 451200, Note_off_c, 0, 64, 95
2, 451200, Note_off_c, 0, 59, 95
2, 451200, Note_off_c, 0, 55, 95
2, 451200, Note_off_c, 0, 51, 95
2, 451200, Note_off_c, 0, 46, 95
2, 451200, Note_off_c, 0, 39, 95
2, 451200, Note_on_c, 0, 64, 95
2, 451200, Note_on_c, 0, 59, 95
2, 451200, Note_on_c, 0, 55, 95
2, 451200, Note_on_c, 0, 51, 95
2, 451200, Note_on_c, 0, 46, 95
2, 451200, Note_on_c, 0, 39, 95
2, 451680, Note_off_c, 0, 64, 95
2, 451680, Note_off_c, 0, 59, 95
2, 451680, Note_off_c, 0, 55, 95
2, 451680, Note_off_c, 0, 51, 95
2, 451680, Note_off_c, 0, 46, 95
2, 451680, Note_off_c, 0, 39, 95
2, 451680, Note_on_c, 0, 64, 95
2, 451680, Note_on_c, 0, 59, 95
2, 451680, Note_on_c, 0, 55, 95
2, 451680, Note_on_c, 0, 51, 95
2, 451680, Note_on_c, 0, 46, 95
2, 451680, Note_on_c, 0, 39, 95
2, 451920, Note_off_c, 0, 64, 95
2, 451920, Note_off_c, 0, 59, 95
2, 451920, Note_off_c, 0, 55, 95
2, 451920, Note_off_c, 0, 51, 95
2, 451920, Note_off_c, 0, 46, 95
2, 451920, Note_off_c, 0, 39, 95
2, 451920, Note_on_c, 0, 64, 95
2, 451920, Note_on_c, 0, 59, 95
2, 451920, Note_on_c, 0, 55, 95
2, 451920, Note_on_c, 0, 51, 95
2, 451920, Note_on_c, 0, 46, 95
2, 451920, Note_on_c, 0, 39, 95
2, 452160, Note_off_c, 0, 64, 95
2, 452160, Note_off_c, 0, 59, 95
2, 452160, Note_off_c, 0, 55, 95
2, 452160, Note_off_c, 0, 51, 95
2, 452160, Note_off_c, 0, 46, 95
2, 452160, Note_off_c, 0, 39, 95
2, 452160, Note_on_c, 0, 64, 95
2, 452160, Note_on_c, 0, 59, 95
2, 452160, Note_on_c, 0, 55, 95
2, 452160, Note_on_c, 0, 53, 95
2, 452160, Note_on_c, 0, 48, 95
2, 452160, Note_on_c, 0, 41, 95
2, 452400, Note_off_c, 0, 64, 95
2, 452400, Note_off_c, 0, 59, 95
2, 452400, Note_off_c, 0, 55, 95
2, 452400, Note_off_c, 0, 53, 95
2, 452400, Note_off_c, 0, 48, 95
2, 452400, Note_off_c, 0, 41, 95
2, 452400, Note_on_c, 0, 64, 95
2, 452400, Note_on_c, 0, 59, 95
2, 452400, Note_on_c, 0, 55, 95
2, 452400, Note_on_c, 0, 53, 95
2, 452400, Note_on_c, 0, 48, 95
2, 452400, Note_on_c, 0, 41, 95
2, 452640, Note_off_c, 0, 64, 95
2, 452640, Note_off_c, 0, 59, 95
2, 452640, Note_off_c, 0, 55, 95
2, 452640, Note_off_c, 0, 53, 95
2, 452640, Note_off_c, 0, 48, 95
2, 452640, Note_off_c, 0, 41, 95
2, 452640, Note_on_c, 0, 64, 95
2, 452640, Note_on_c, 0, 59, 95
2, 452640, Note_on_c, 0, 55, 95
2, 452640, Note_on_c, 0, 53, 95
2, 452640, Note_on_c, 0, 48, 95
2, 452640, Note_on_c, 0, 41, 95
2, 452880, Note_off_c, 0, 64, 95
2, 452880, Note_off_c, 0, 59, 95
2, 452880, Note_off_c, 0, 55, 95
2, 452880, Note_off_c, 0, 53, 95
2, 452880, Note_off_c, 0, 48, 95
2, 452880, Note_off_c, 0, 41, 95
2, 452880, Note_on_c, 0, 64, 95
2, 452880, Note_on_c, 0, 59, 95
2, 452880, Note_on_c, 0, 55, 95
2, 452880, Note_on_c, 0, 53, 95
2, 452880, Note_on_c, 0, 48, 95
2, 452880, Note_on_c, 0, 41, 95
2, 453360, Note_off_c, 0, 64, 95
2, 453360, Note_off_c, 0, 59, 95
2, 453360, Note_off_c, 0, 55, 95
2, 453360, Note_off_c, 0, 53, 95
2, 453360, Note_off_c, 0, 48, 95
2, 453360, Note_off_c, 0, 41, 95
2, 453360, Note_on_c, 0, 64, 95
2, 453360, Note_on_c, 0, 59, 95
2, 453360, Note_on_c, 0, 55, 95
2, 453360, Note_on_c, 0, 53, 95
2, 453360, Note_on_c, 0, 48, 95
2, 453360, Note_on_c, 0, 41, 95
2, 453600, Note_off_c, 0, 64, 95
2, 453600, Note_off_c, 0, 59, 95
2, 453600, Note_off_c, 0, 55, 95
2, 453600, Note_off_c, 0, 53, 95
2, 453600, Note_off_c, 0, 48, 95
2, 453600, Note_off_c, 0, 41, 95
2, 453600, Note_on_c, 0, 64, 95
2, 453600, Note_on_c, 0, 59, 95
2, 453600, Note_on_c, 0, 55, 95
2, 453600, Note_on_c, 0, 53, 95
2, 453600, Note_on_c, 0, 48, 95
2, 453600, Note_on_c, 0, 41, 95
2, 454080, Note_off_c, 0, 64, 95
2, 454080, Note_off_c, 0, 59, 95
2, 454080, Note_off_c, 0, 55, 95
2, 454080, Note_off_c, 0, 53, 95
2, 454080, Note_off_c, 0, 48, 95
2, 454080, Note_off_c, 0, 41, 95
2, 454080, Note_on_c, 0, 64, 95
2, 454080, Note_on_c, 0, 59, 95
2, 454080, Note_on_c, 0, 55, 95
2, 454080, Note_on_c, 0, 53, 95
2, 454080, Note_on_c, 0, 48, 95
2, 454080, Note_on_c, 0, 41, 95
2, 454560, Note_off_c, 0, 64, 95
2, 454560, Note_off_c, 0, 59, 95
2, 454560, Note_off_c, 0, 55, 95
2, 454560, Note_off_c, 0, 53, 95
2, 454560, Note_off_c, 0, 48, 95
2, 454560, Note_off_c, 0, 41, 95
2, 454560, Note_on_c, 0, 64, 95
2, 454560, Note_on_c, 0, 59, 95
2, 454560, Note_on_c, 0, 55, 95
2, 454560, Note_on_c, 0, 53, 95
2, 454560, Note_on_c, 0, 48, 95
2, 454560, Note_on_c, 0, 41, 95
2, 454800, Note_off_c, 0, 64, 95
2, 454800, Note_off_c, 0, 59, 95
2, 454800, Note_off_c, 0, 55, 95
2, 454800, Note_off_c, 0, 53, 95
2, 454800, Note_off_c, 0, 48, 95
2, 454800, Note_off_c, 0, 41, 95
2, 454800, Note_on_c, 0, 64, 95
2, 454800, Note_on_c, 0, 59, 95
2, 454800, Note_on_c, 0, 55, 95
2, 454800, Note_on_c, 0, 53, 95
2, 454800, Note_on_c, 0, 48, 95
2, 454800, Note_on_c, 0, 41, 95
2, 455040, Note_off_c, 0, 64, 95
2, 455040, Note_off_c, 0, 59, 95
2, 455040, Note_off_c, 0, 55, 95
2, 455040, Note_off_c, 0, 53, 95
2, 455040, Note_off_c, 0, 48, 95
2, 455040, Note_off_c, 0, 41, 95
2, 455040, Note_on_c, 0, 64, 95
2, 455040, Note_on_c, 0, 59, 95
2, 455040, Note_on_c, 0, 55, 95
2, 455040, Note_on_c, 0, 52, 95
2, 455040, Note_on_c, 0, 47, 95
2, 455040, Note_on_c, 0, 40, 95
2, 455280, Note_off_c, 0, 64, 95
2, 455280, Note_off_c, 0, 59, 95
2, 455280, Note_off_c, 0, 55, 95
2, 455280, Note_off_c, 0, 52, 95
2, 455280, Note_off_c, 0, 47, 95
2, 455280, Note_off_c, 0, 40, 95
2, 455280, Note_on_c, 0, 64, 95
2, 455280, Note_on_c, 0, 59, 95
2, 455280, Note_on_c, 0, 55, 95
2, 455280, Note_on_c, 0, 52, 95
2, 455280, Note_on_c, 0, 47, 95
2, 455280, Note_on_c, 0, 40, 95
2, 455520, Note_off_c, 0, 64, 95
2, 455520, Note_off_c, 0, 59, 95
2, 455520, Note_off_c, 0, 55, 95
2, 455520, Note_off_c, 0, 52, 95
2, 455520, Note_off_c, 0, 47, 95
2, 455520, Note_off_c, 0, 40, 95
2, 455520, Note_on_c, 0, 64, 95
2, 455520, Note_on_c, 0, 59, 95
2, 455520, Note_on_c, 0, 55, 95
2, 455520, Note_on_c, 0, 52, 95
2, 455520, Note_on_c, 0, 47, 95
2, 455520, Note_on_c, 0, 40, 95
2, 455760, Note_off_c, 0, 64, 95
2, 455760, Note_off_c, 0, 59, 95
2, 455760, Note_off_c, 0, 55, 95
2, 455760, Note_off_c, 0, 52, 95
2, 455760, Note_off_c, 0, 47, 95
2, 455760, Note_off_c, 0, 40, 95
2, 455760, Note_on_c, 0, 64, 95
2, 455760, Note_on_c, 0, 59, 95
2, 455760, Note_on_c, 0, 55, 95
2, 455760, Note_on_c, 0, 52, 95
2, 455760, Note_on_c, 0, 47, 95
2, 455760, Note_on_c, 0, 40, 95
2, 456240, Note_off_c, 0, 64, 95
2, 456240, Note_off_c, 0, 59, 95
2, 456240, Note_off_c, 0, 55, 95
2, 456240, Note_off_c, 0, 52, 95
2, 456240, Note_off_c, 0, 47, 95
2, 456240, Note_off_c, 0, 40, 95
2, 456240, Note_on_c, 0, 64, 95
2, 456240, Note_on_c, 0, 59, 95
2, 456240, Note_on_c, 0, 55, 95
2, 456240, Note_on_c, 0, 52, 95
2, 456240, Note_on_c, 0, 47, 95
2, 456240, Note_on_c, 0, 40, 95
2, 456480, Note_off_c, 0, 64, 95
2, 456480, Note_off_c, 0, 59, 95
2, 456480, Note_off_c, 0, 55, 95
2, 456480, Note_off_c, 0, 52, 95
2, 456480, Note_off_c, 0, 47, 95
2, 456480, Note_off_c, 0, 40, 95
2, 456480, Note_on_c, 0, 64, 95
2, 456480, Note_on_c, 0, 59, 95
2, 456480, Note_on_c, 0, 55, 95
2, 456480, Note_on_c, 0, 52, 95
2, 456480, Note_on_c, 0, 47, 95
2, 456480, Note_on_c, 0, 40, 95
2, 456960, Note_off_c, 0, 64, 95
2, 456960, Note_off_c, 0, 59, 95
2, 456960, Note_off_c, 0, 55, 95
2, 456960, Note_off_c, 0, 52, 95
2, 456960, Note_off_c, 0, 47, 95
2, 456960, Note_off_c, 0, 40, 95
2, 456960, Note_on_c, 0, 64, 95
2, 456960, Note_on_c, 0, 59, 95
2, 456960, Note_on_c, 0, 55, 95
2, 456960, Note_on_c, 0, 52, 95
2, 456960, Note_on_c, 0, 47, 95
2, 456960, Note_on_c, 0, 40, 95
2, 457440, Note_off_c, 0, 64, 95
2, 457440, Note_off_c, 0, 59, 95
2, 457440, Note_off_c, 0, 55, 95
2, 457440, Note_off_c, 0, 52, 95
2, 457440, Note_off_c, 0, 47, 95
2, 457440, Note_off_c, 0, 40, 95
2, 457440, Note_on_c, 0, 64, 95
2, 457440, Note_on_c, 0, 59, 95
2, 457440, Note_on_c, 0, 55, 95
2, 457440, Note_on_c, 0, 52, 95
2, 457440, Note_on_c, 0, 47, 95
2, 457440, Note_on_c, 0, 40, 95
2, 457680, Note_off_c, 0, 64, 95
2, 457680, Note_off_c, 0, 59, 95
2, 457680, Note_off_c, 0, 55, 95
2, 457680, Note_off_c, 0, 52, 95
2, 457680, Note_off_c, 0, 47, 95
2, 457680, Note_off_c, 0, 40, 95
2, 457680, Note_on_c, 0, 64, 95
2, 457680, Note_on_c, 0, 59, 95
2, 457680, Note_on_c, 0, 55, 95
2, 457680, Note_on_c, 0, 52, 95
2, 457680, Note_on_c, 0, 47, 95
2, 457680, Note_on_c, 0, 40, 95
2, 457920, Note_off_c, 0, 64, 95
2, 457920, Note_off_c, 0, 59, 95
2, 457920, Note_off_c, 0, 55, 95
2, 457920, Note_off_c, 0, 52, 95
2, 457920, Note_off_c, 0, 47, 95
2, 457920, Note_off_c, 0, 40, 95
2, 457920, Note_on_c, 0, 64, 95
2, 457920, Note_on_c, 0, 59, 95
2, 457920, Note_on_c, 0, 55, 95
2, 457920, Note_on_c, 0, 51, 95
2, 457920, Note_on_c, 0, 46, 95
2, 457920, Note_on_c, 0, 39, 95
2, 458160, Note_off_c, 0, 64, 95
2, 458160, Note_off_c, 0, 59, 95
2, 458160, Note_off_c, 0, 55, 95
2, 458160, Note_off_c, 0, 51, 95
2, 458160, Note_off_c, 0, 46, 95
2, 458160, Note_off_c, 0, 39, 95
2, 458160, Note_on_c, 0, 64, 95
2, 458160, Note_on_c, 0, 59, 95
2, 458160, Note_on_c, 0, 55, 95
2, 458160, Note_on_c, 0, 51, 95
2, 458160, Note_on_c, 0, 46, 95
2, 458160, Note_on_c, 0, 39, 95
2, 458400, Note_off_c, 0, 64, 95
2, 458400, Note_off_c, 0, 59, 95
2, 458400, Note_off_c, 0, 55, 95
2, 458400, Note_off_c, 0, 51, 95
2, 458400, Note_off_c, 0, 46, 95
2, 458400, Note_off_c, 0, 39, 95
2, 458400, Note_on_c, 0, 64, 95
2, 458400, Note_on_c, 0, 59, 95
2, 458400, Note_on_c, 0, 55, 95
2, 458400, Note_on_c, 0, 51, 95
2, 458400, Note_on_c, 0, 46, 95
2, 458400, Note_on_c, 0, 39, 95
2, 458640, Note_off_c, 0, 64, 95
2, 458640, Note_off_c, 0, 59, 95
2, 458640, Note_off_c, 0, 55, 95
2, 458640, Note_off_c, 0, 51, 95
2, 458640, Note_off_c, 0, 46, 95
2, 458640, Note_off_c, 0, 39, 95
2, 458640, Note_on_c, 0, 64, 95
2, 458640, Note_on_c, 0, 59, 95
2, 458640, Note_on_c, 0, 55, 95
2, 458640, Note_on_c, 0, 51, 95
2, 458640, Note_on_c, 0, 46, 95
2, 458640, Note_on_c, 0, 39, 95
2, 459120, Note_off_c, 0, 64, 95
2, 459120, Note_off_c, 0, 59, 95
2, 459120, Note_off_c, 0, 55, 95
2, 459120, Note_off_c, 0, 51, 95
2, 459120, Note_off_c, 0, 46, 95
2, 459120, Note_off_c, 0, 39, 95
2, 459120, Note_on_c, 0, 64, 95
2, 459120, Note_on_c, 0, 59, 95
2, 459120, Note_on_c, 0, 55, 95
2, 459120, Note_on_c, 0, 51, 95
2, 459120, Note_on_c, 0, 46, 95
2, 459120, Note_on_c, 0, 39, 95
2, 459360, Note_off_c, 0, 64, 95
2, 459360, Note_off_c, 0, 59, 95
2, 459360, Note_off_c, 0, 55, 95
2, 459360, Note_off_c, 0, 51, 95
2, 459360, Note_off_c, 0, 46, 95
2, 459360, Note_off_c, 0, 39, 95
2, 459360, Note_on_c, 0, 64, 95
2, 459360, Note_on_c, 0, 59, 95
2, 459360, Note_on_c, 0, 55, 95
2, 459360, Note_on_c, 0, 51, 95
2, 459360, Note_on_c, 0, 46, 95
2, 459360, Note_on_c, 0, 39, 95
2, 459840, Note_off_c, 0, 64, 95
2, 459840, Note_off_c, 0, 59, 95
2, 459840, Note_off_c, 0, 55, 95
2, 459840, Note_off_c, 0, 51, 95
2, 459840, Note_off_c, 0, 46, 95
2, 459840, Note_off_c, 0, 39, 95
2, 459840, Note_on_c, 0, 64, 95
2, 459840, Note_on_c, 0, 59, 95
2, 459840, Note_on_c, 0, 55, 95
2, 459840, Note_on_c, 0, 51, 95
2, 459840, Note_on_c, 0, 46, 95
2, 459840, Note_on_c, 0, 39, 95
2, 460320, Note_off_c, 0, 64, 95
2, 460320, Note_off_c, 0, 59, 95
2, 460320, Note_off_c, 0, 55, 95
2, 460320, Note_off_c, 0, 51, 95
2, 460320, Note_off_c, 0, 46, 95
2, 460320, Note_off_c, 0, 39, 95
2, 460320, Note_on_c, 0, 64, 95
2, 460320, Note_on_c, 0, 59, 95
2, 460320, Note_on_c, 0, 55, 95
2, 460320, Note_on_c, 0, 51, 95
2, 460320, Note_on_c, 0, 46, 95
2, 460320, Note_on_c, 0, 39, 95
2, 460560, Note_off_c, 0, 64, 95
2, 460560, Note_off_c, 0, 59, 95
2, 460560, Note_off_c, 0, 55, 95
2, 460560, Note_off_c, 0, 51, 95
2, 460560, Note_off_c, 0, 46, 95
2, 460560, Note_off_c, 0, 39, 95
2, 460560, Note_on_c, 0, 64, 95
2, 460560, Note_on_c, 0, 59, 95
2, 460560, Note_on_c, 0, 55, 95
2, 460560, Note_on_c, 0, 51, 95
2, 460560, Note_on_c, 0, 46, 95
2, 460560, Note_on_c, 0, 39, 95
2, 460800, Note_off_c, 0, 64, 95
2, 460800, Note_off_c, 0, 59, 95
2, 460800, Note_off_c, 0, 55, 95
2, 460800, Note_off_c, 0, 51, 95
2, 460800, Note_off_c, 0, 46, 95
2, 460800, Note_off_c, 0, 39, 95
2, 460800, Note_on_c, 0, 64, 95
2, 460800, Note_on_c, 0, 59, 95
2, 460800, Note_on_c, 0, 55, 95
2, 460800, Note_on_c, 0, 51, 95
2, 460800, Note_on_c, 0, 46, 95
2, 460800, Note_on_c, 0, 39, 95
2, 461040, Note_off_c, 0, 64, 95
2, 461040, Note_off_c, 0, 59, 95
2, 461040, Note_off_c, 0, 55, 95
2, 461040, Note_off_c, 0, 51, 95
2, 461040, Note_off_c, 0, 46, 95
2, 461040, Note_off_c, 0, 39, 95
2, 461040, Note_on_c, 0, 64, 95
2, 461040, Note_on_c, 0, 59, 95
2, 461040, Note_on_c, 0, 55, 95
2, 461040, Note_on_c, 0, 51, 95
2, 461040, Note_on_c, 0, 46, 95
2, 461040, Note_on_c, 0, 39, 95
2, 461280, Note_off_c, 0, 64, 95
2, 461280, Note_off_c, 0, 59, 95
2, 461280, Note_off_c, 0, 55, 95
2, 461280, Note_off_c, 0, 51, 95
2, 461280, Note_off_c, 0, 46, 95
2, 461280, Note_off_c, 0, 39, 95
2, 461280, Note_on_c, 0, 64, 95
2, 461280, Note_on_c, 0, 59, 95
2, 461280, Note_on_c, 0, 55, 95
2, 461280, Note_on_c, 0, 51, 95
2, 461280, Note_on_c, 0, 46, 95
2, 461280, Note_on_c, 0, 39, 95
2, 461520, Note_off_c, 0, 64, 95
2, 461520, Note_off_c, 0, 59, 95
2, 461520, Note_off_c, 0, 55, 95
2, 461520, Note_off_c, 0, 51, 95
2, 461520, Note_off_c, 0, 46, 95
2, 461520, Note_off_c, 0, 39, 95
2, 461520, Note_on_c, 0, 64, 95
2, 461520, Note_on_c, 0, 59, 95
2, 461520, Note_on_c, 0, 55, 95
2, 461520, Note_on_c, 0, 51, 95
2, 461520, Note_on_c, 0, 46, 95
2, 461520, Note_on_c, 0, 39, 95
2, 462000, Note_off_c, 0, 64, 95
2, 462000, Note_off_c, 0, 59, 95
2, 462000, Note_off_c, 0, 55, 95
2, 462000, Note_off_c, 0, 51, 95
2, 462000, Note_off_c, 0, 46, 95
2, 462000, Note_off_c, 0, 39, 95
2, 462000, Note_on_c, 0, 64, 95
2, 462000, Note_on_c, 0, 59, 95
2, 462000, Note_on_c, 0, 55, 95
2, 462000, Note_on_c, 0, 51, 95
2, 462000, Note_on_c, 0, 46, 95
2, 462000, Note_on_c, 0, 39, 95
2, 462240, Note_off_c, 0, 64, 95
2, 462240, Note_off_c, 0, 59, 95
2, 462240, Note_off_c, 0, 55, 95
2, 462240, Note_off_c, 0, 51, 95
2, 462240, Note_off_c, 0, 46, 95
2, 462240, Note_off_c, 0, 39, 95
2, 462240, Note_on_c, 0, 64, 95
2, 462240, Note_on_c, 0, 59, 95
2, 462240, Note_on_c, 0, 55, 95
2, 462240, Note_on_c, 0, 51, 95
2, 462240, Note_on_c, 0, 46, 95
2, 462240, Note_on_c, 0, 39, 95
2, 462720, Note_off_c, 0, 64, 95
2, 462720, Note_off_c, 0, 59, 95
2, 462720, Note_off_c, 0, 55, 95
2, 462720, Note_off_c, 0, 51, 95
2, 462720, Note_off_c, 0, 46, 95
2, 462720, Note_off_c, 0, 39, 95
2, 462720, Note_on_c, 0, 64, 95
2, 462720, Note_on_c, 0, 59, 95
2, 462720, Note_on_c, 0, 55, 95
2, 462720, Note_on_c, 0, 51, 95
2, 462720, Note_on_c, 0, 46, 95
2, 462720, Note_on_c, 0, 39, 95
2, 463200, Note_off_c, 0, 64, 95
2, 463200, Note_off_c, 0, 59, 95
2, 463200, Note_off_c, 0, 55, 95
2, 463200, Note_off_c, 0, 51, 95
2, 463200, Note_off_c, 0, 46, 95
2, 463200, Note_off_c, 0, 39, 95
2, 463200, Note_on_c, 0, 64, 95
2, 463200, Note_on_c, 0, 59, 95
2, 463200, Note_on_c, 0, 55, 95
2, 463200, Note_on_c, 0, 51, 95
2, 463200, Note_on_c, 0, 46, 95
2, 463200, Note_on_c, 0, 39, 95
2, 463440, Note_off_c, 0, 64, 95
2, 463440, Note_off_c, 0, 59, 95
2, 463440, Note_off_c, 0, 55, 95
2, 463440, Note_off_c, 0, 51, 95
2, 463440, Note_off_c, 0, 46, 95
2, 463440, Note_off_c, 0, 39, 95
2, 463440, Note_on_c, 0, 64, 95
2, 463440, Note_on_c, 0, 59, 95
2, 463440, Note_on_c, 0, 55, 95
2, 463440, Note_on_c, 0, 51, 95
2, 463440, Note_on_c, 0, 46, 95
2, 463440, Note_on_c, 0, 39, 95
2, 463680, Note_off_c, 0, 64, 95
2, 463680, Note_off_c, 0, 59, 95
2, 463680, Note_off_c, 0, 55, 95
2, 463680, Note_off_c, 0, 51, 95
2, 463680, Note_off_c, 0, 46, 95
2, 463680, Note_off_c, 0, 39, 95
2, 463680, Note_on_c, 0, 64, 95
2, 463680, Note_on_c, 0, 59, 95
2, 463680, Note_on_c, 0, 55, 95
2, 463680, Note_on_c, 0, 53, 95
2, 463680, Note_on_c, 0, 48, 95
2, 463680, Note_on_c, 0, 41, 95
2, 463920, Note_off_c, 0, 64, 95
2, 463920, Note_off_c, 0, 59, 95
2, 463920, Note_off_c, 0, 55, 95
2, 463920, Note_off_c, 0, 53, 95
2, 463920, Note_off_c, 0, 48, 95
2, 463920, Note_off_c, 0, 41, 95
2, 463920, Note_on_c, 0, 64, 95
2, 463920, Note_on_c, 0, 59, 95
2, 463920, Note_on_c, 0, 55, 95
2, 463920, Note_on_c, 0, 53, 95
2, 463920, Note_on_c, 0, 48, 95
2, 463920, Note_on_c, 0, 41, 95
2, 464160, Note_off_c, 0, 64, 95
2, 464160, Note_off_c, 0, 59, 95
2, 464160, Note_off_c, 0, 55, 95
2, 464160, Note_off_c, 0, 53, 95
2, 464160, Note_off_c, 0, 48, 95
2, 464160, Note_off_c, 0, 41, 95
2, 464160, Note_on_c, 0, 64, 95
2, 464160, Note_on_c, 0, 59, 95
2, 464160, Note_on_c, 0, 55, 95
2, 464160, Note_on_c, 0, 53, 95
2, 464160, Note_on_c, 0, 48, 95
2, 464160, Note_on_c, 0, 41, 95
2, 464400, Note_off_c, 0, 64, 95
2, 464400, Note_off_c, 0, 59, 95
2, 464400, Note_off_c, 0, 55, 95
2, 464400, Note_off_c, 0, 53, 95
2, 464400, Note_off_c, 0, 48, 95
2, 464400, Note_off_c, 0, 41, 95
2, 464400, Note_on_c, 0, 64, 95
2, 464400, Note_on_c, 0, 59, 95
2, 464400, Note_on_c, 0, 55, 95
2, 464400, Note_on_c, 0, 53, 95
2, 464400, Note_on_c, 0, 48, 95
2, 464400, Note_on_c, 0, 41, 95
2, 464880, Note_off_c, 0, 64, 95
2, 464880, Note_off_c, 0, 59, 95
2, 464880, Note_off_c, 0, 55, 95
2, 464880, Note_off_c, 0, 53, 95
2, 464880, Note_off_c, 0, 48, 95
2, 464880, Note_off_c, 0, 41, 95
2, 464880, Note_on_c, 0, 64, 95
2, 464880, Note_on_c, 0, 59, 95
2, 464880, Note_on_c, 0, 55, 95
2, 464880, Note_on_c, 0, 53, 95
2, 464880, Note_on_c, 0, 48, 95
2, 464880, Note_on_c, 0, 41, 95
2, 465120, Note_off_c, 0, 64, 95
2, 465120, Note_off_c, 0, 59, 95
2, 465120, Note_off_c, 0, 55, 95
2, 465120, Note_off_c, 0, 53, 95
2, 465120, Note_off_c, 0, 48, 95
2, 465120, Note_off_c, 0, 41, 95
2, 465120, Note_on_c, 0, 64, 95
2, 465120, Note_on_c, 0, 59, 95
2, 465120, Note_on_c, 0, 55, 95
2, 465120, Note_on_c, 0, 53, 95
2, 465120, Note_on_c, 0, 48, 95
2, 465120, Note_on_c, 0, 41, 95
2, 465600, Note_off_c, 0, 64, 95
2, 465600, Note_off_c, 0, 59, 95
2, 465600, Note_off_c, 0, 55, 95
2, 465600, Note_off_c, 0, 53, 95
2, 465600, Note_off_c, 0, 48, 95
2, 465600, Note_off_c, 0, 41, 95
2, 465600, Note_on_c, 0, 64, 95
2, 465600, Note_on_c, 0, 59, 95
2, 465600, Note_on_c, 0, 55, 95
2, 465600, Note_on_c, 0, 53, 95
2, 465600, Note_on_c, 0, 48, 95
2, 465600, Note_on_c, 0, 41, 95
2, 466080, Note_off_c, 0, 64, 95
2, 466080, Note_off_c, 0, 59, 95
2, 466080, Note_off_c, 0, 55, 95
2, 466080, Note_off_c, 0, 53, 95
2, 466080, Note_off_c, 0, 48, 95
2, 466080, Note_off_c, 0, 41, 95
2, 466080, Note_on_c, 0, 64, 95
2, 466080, Note_on_c, 0, 59, 95
2, 466080, Note_on_c, 0, 55, 95
2, 466080, Note_on_c, 0, 53, 95
2, 466080, Note_on_c, 0, 48, 95
2, 466080, Note_on_c, 0, 41, 95
2, 466320, Note_off_c, 0, 64, 95
2, 466320, Note_off_c, 0, 59, 95
2, 466320, Note_off_c, 0, 55, 95
2, 466320, Note_off_c, 0, 53, 95
2, 466320, Note_off_c, 0, 48, 95
2, 466320, Note_off_c, 0, 41, 95
2, 466320, Note_on_c, 0, 64, 95
2, 466320, Note_on_c, 0, 59, 95
2, 466320, Note_on_c, 0, 55, 95
2, 466320, Note_on_c, 0, 53, 95
2, 466320, Note_on_c, 0, 48, 95
2, 466320, Note_on_c, 0, 41, 95
2, 466560, Note_off_c, 0, 64, 95
2, 466560, Note_off_c, 0, 59, 95
2, 466560, Note_off_c, 0, 55, 95
2, 466560, Note_off_c, 0, 53, 95
2, 466560, Note_off_c, 0, 48, 95
2, 466560, Note_off_c, 0, 41, 95
2, 466560, Note_on_c, 0, 64, 95
2, 466560, Note_on_c, 0, 59, 95
2, 466560, Note_on_c, 0, 55, 95
2, 466560, Note_on_c, 0, 52, 95
2, 466560, Note_on_c, 0, 47, 95
2, 466560, Note_on_c, 0, 40, 95
2, 466800, Note_off_c, 0, 64, 95
2, 466800, Note_off_c, 0, 59, 95
2, 466800, Note_off_c, 0, 55, 95
2, 466800, Note_off_c, 0, 52, 95
2, 466800, Note_off_c, 0, 47, 95
2, 466800, Note_off_c, 0, 40, 95
2, 466800, Note_on_c, 0, 64, 95
2, 466800, Note_on_c, 0, 59, 95
2, 466800, Note_on_c, 0, 55, 95
2, 466800, Note_on_c, 0, 52, 95
2, 466800, Note_on_c, 0, 47, 95
2, 466800, Note_on_c, 0, 40, 95
2, 467040, Note_off_c, 0, 64, 95
2, 467040, Note_off_c, 0, 59, 95
2, 467040, Note_off_c, 0, 55, 95
2, 467040, Note_off_c, 0, 52, 95
2, 467040, Note_off_c, 0, 47, 95
2, 467040, Note_off_c, 0, 40, 95
2, 467040, Note_on_c, 0, 64, 95
2, 467040, Note_on_c, 0, 59, 95
2, 467040, Note_on_c, 0, 55, 95
2, 467040, Note_on_c, 0, 52, 95
2, 467040, Note_on_c, 0, 47, 95
2, 467040, Note_on_c, 0, 40, 95
2, 467280, Note_off_c, 0, 64, 95
2, 467280, Note_off_c, 0, 59, 95
2, 467280, Note_off_c, 0, 55, 95
2, 467280, Note_off_c, 0, 52, 95
2, 467280, Note_off_c, 0, 47, 95
2, 467280, Note_off_c, 0, 40, 95
2, 467280, Note_on_c, 0, 64, 95
2, 467280, Note_on_c, 0, 59, 95
2, 467280, Note_on_c, 0, 55, 95
2, 467280, Note_on_c, 0, 52, 95
2, 467280, Note_on_c, 0, 47, 95
2, 467280, Note_on_c, 0, 40, 95
2, 467760, Note_off_c, 0, 64, 95
2, 467760, Note_off_c, 0, 59, 95
2, 467760, Note_off_c, 0, 55, 95
2, 467760, Note_off_c, 0, 52, 95
2, 467760, Note_off_c, 0, 47, 95
2, 467760, Note_off_c, 0, 40, 95
2, 467760, Note_on_c, 0, 64, 95
2, 467760, Note_on_c, 0, 59, 95
2, 467760, Note_on_c, 0, 55, 95
2, 467760, Note_on_c, 0, 52, 95
2, 467760, Note_on_c, 0, 47, 95
2, 467760, Note_on_c, 0, 40, 95
2, 468000, Note_off_c, 0, 64, 95
2, 468000, Note_off_c, 0, 59, 95
2, 468000, Note_off_c, 0, 55, 95
2, 468000, Note_off_c, 0, 52, 95
2, 468000, Note_off_c, 0, 47, 95
2, 468000, Note_off_c, 0, 40, 95
2, 468000, Note_on_c, 0, 64, 95
2, 468000, Note_on_c, 0, 59, 95
2, 468000, Note_on_c, 0, 55, 95
2, 468000, Note_on_c, 0, 52, 95
2, 468000, Note_on_c, 0, 47, 95
2, 468000, Note_on_c, 0, 40, 95
2, 468480, Note_off_c, 0, 64, 95
2, 468480, Note_off_c, 0, 59, 95
2, 468480, Note_off_c, 0, 55, 95
2, 468480, Note_off_c, 0, 52, 95
2, 468480, Note_off_c, 0, 47, 95
2, 468480, Note_off_c, 0, 40, 95
2, 468480, Note_on_c, 0, 64, 95
2, 468480, Note_on_c, 0, 59, 95
2, 468480, Note_on_c, 0, 55, 95
2, 468480, Note_on_c, 0, 52, 95
2, 468480, Note_on_c, 0, 47, 95
2, 468480, Note_on_c, 0, 40, 95
2, 468960, Note_off_c, 0, 64, 95
2, 468960, Note_off_c, 0, 59, 95
2, 468960, Note_off_c, 0, 55, 95
2, 468960, Note_off_c, 0, 52, 95
2, 468960, Note_off_c, 0, 47, 95
2, 468960, Note_off_c, 0, 40, 95
2, 468960, Note_on_c, 0, 64, 95
2, 468960, Note_on_c, 0, 59, 95
2, 468960, Note_on_c, 0, 55, 95
2, 468960, Note_on_c, 0, 52, 95
2, 468960, Note_on_c, 0, 47, 95
2, 468960, Note_on_c, 0, 40, 95
2, 469200, Note_off_c, 0, 64, 95
2, 469200, Note_off_c, 0, 59, 95
2, 469200, Note_off_c, 0, 55, 95
2, 469200, Note_off_c, 0, 52, 95
2, 469200, Note_off_c, 0, 47, 95
2, 469200, Note_off_c, 0, 40, 95
2, 469200, Note_on_c, 0, 64, 95
2, 469200, Note_on_c, 0, 59, 95
2, 469200, Note_on_c, 0, 55, 95
2, 469200, Note_on_c, 0, 52, 95
2, 469200, Note_on_c, 0, 47, 95
2, 469200, Note_on_c, 0, 40, 95
2, 469440, Note_off_c, 0, 64, 95
2, 469440, Note_off_c, 0, 59, 95
2, 469440, Note_off_c, 0, 55, 95
2, 469440, Note_off_c, 0, 52, 95
2, 469440, Note_off_c, 0, 47, 95
2, 469440, Note_off_c, 0, 40, 95
2, 469440, Note_on_c, 0, 64, 95
2, 469440, Note_on_c, 0, 59, 95
2, 469440, Note_on_c, 0, 55, 95
2, 469440, Note_on_c, 0, 51, 95
2, 469440, Note_on_c, 0, 46, 95
2, 469440, Note_on_c, 0, 39, 95
2, 469680, Note_off_c, 0, 64, 95
2, 469680, Note_off_c, 0, 59, 95
2, 469680, Note_off_c, 0, 55, 95
2, 469680, Note_off_c, 0, 51, 95
2, 469680, Note_off_c, 0, 46, 95
2, 469680, Note_off_c, 0, 39, 95
2, 469680, Note_on_c, 0, 64, 95
2, 469680, Note_on_c, 0, 59, 95
2, 469680, Note_on_c, 0, 55, 95
2, 469680, Note_on_c, 0, 51, 95
2, 469680, Note_on_c, 0, 46, 95
2, 469680, Note_on_c, 0, 39, 95
2, 469920, Note_off_c, 0, 64, 95
2, 469920, Note_off_c, 0, 59, 95
2, 469920, Note_off_c, 0, 55, 95
2, 469920, Note_off_c, 0, 51, 95
2, 469920, Note_off_c, 0, 46, 95
2, 469920, Note_off_c, 0, 39, 95
2, 469920, Note_on_c, 0, 64, 95
2, 469920, Note_on_c, 0, 59, 95
2, 469920, Note_on_c, 0, 55, 95
2, 469920, Note_on_c, 0, 51, 95
2, 469920, Note_on_c, 0, 46, 95
2, 469920, Note_on_c, 0, 39, 95
2, 470160, Note_off_c, 0, 64, 95
2, 470160, Note_off_c, 0, 59, 95
2, 470160, Note_off_c, 0, 55, 95
2, 470160, Note_off_c, 0, 51, 95
2, 470160, Note_off_c, 0, 46, 95
2, 470160, Note_off_c, 0, 39, 95
2, 470160, Note_on_c, 0, 64, 95
2, 470160, Note_on_c, 0, 59, 95
2, 470160, Note_on_c, 0, 55, 95
2, 470160, Note_on_c, 0, 51, 95
2, 470160, Note_on_c, 0, 46, 95
2, 470160, Note_on_c, 0, 39, 95
2, 470640, Note_off_c, 0, 64, 95
2, 470640, Note_off_c, 0, 59, 95
2, 470640, Note_off_c, 0, 55, 95
2, 470640, Note_off_c, 0, 51, 95
2, 470640, Note_off_c, 0, 46, 95
2, 470640, Note_off_c, 0, 39, 95
2, 470640, Note_on_c, 0, 64, 95
2, 470640, Note_on_c, 0, 59, 95
2, 470640, Note_on_c, 0, 55, 95
2, 470640, Note_on_c, 0, 51, 95
2, 470640, Note_on_c, 0, 46, 95
2, 470640, Note_on_c, 0, 39, 95
2, 470880, Note_off_c, 0, 64, 95
2, 470880, Note_off_c, 0, 59, 95
2, 470880, Note_off_c, 0, 55, 95
2, 470880, Note_off_c, 0, 51, 95
2, 470880, Note_off_c, 0, 46, 95
2, 470880, Note_off_c, 0, 39, 95
2, 470880, Note_on_c, 0, 64, 95
2, 470880, Note_on_c, 0, 59, 95
2, 470880, Note_on_c, 0, 55, 95
2, 470880, Note_on_c, 0, 51, 95
2, 470880, Note_on_c, 0, 46, 95
2, 470880, Note_on_c, 0, 39, 95
2, 471360, Note_off_c, 0, 64, 95
2, 471360, Note_off_c, 0, 59, 95
2, 471360, Note_off_c, 0, 55, 95
2, 471360, Note_off_c, 0, 51, 95
2, 471360, Note_off_c, 0, 46, 95
2, 471360, Note_off_c, 0, 39, 95
2, 471360, Note_on_c, 0, 64, 95
2, 471360, Note_on_c, 0, 59, 95
2, 471360, Note_on_c, 0, 55, 95
2, 471360, Note_on_c, 0, 51, 95
2, 471360, Note_on_c, 0, 46, 95
2, 471360, Note_on_c, 0, 39, 95
2, 471840, Note_off_c, 0, 64, 95
2, 471840, Note_off_c, 0, 59, 95
2, 471840, Note_off_c, 0, 55, 95
2, 471840, Note_off_c, 0, 51, 95
2, 471840, Note_off_c, 0, 46, 95
2, 471840, Note_off_c, 0, 39, 95
2, 471840, Note_on_c, 0, 64, 95
2, 471840, Note_on_c, 0, 59, 95
2, 471840, Note_on_c, 0, 55, 95
2, 471840, Note_on_c, 0, 51, 95
2, 471840, Note_on_c, 0, 46, 95
2, 471840, Note_on_c, 0, 39, 95
2, 472080, Note_off_c, 0, 64, 95
2, 472080, Note_off_c, 0, 59, 95
2, 472080, Note_off_c, 0, 55, 95
2, 472080, Note_off_c, 0, 51, 95
2, 472080, Note_off_c, 0, 46, 95
2, 472080, Note_off_c, 0, 39, 95
2, 472080, Note_on_c, 0, 64, 95
2, 472080, Note_on_c, 0, 59, 95
2, 472080, Note_on_c, 0, 55, 95
2, 472080, Note_on_c, 0, 51, 95
2, 472080, Note_on_c, 0, 46, 95
2, 472080, Note_on_c, 0, 39, 95
2, 472320, Note_off_c, 0, 64, 95
2, 472320, Note_off_c, 0, 59, 95
2, 472320, Note_off_c, 0, 55, 95
2, 472320, Note_off_c, 0, 51, 95
2, 472320, Note_off_c, 0, 46, 95
2, 472320, Note_off_c, 0, 39, 95
2, 472320, Note_on_c, 0, 64, 95
2, 472320, Note_on_c, 0, 59, 95
2, 472320, Note_on_c, 0, 55, 95
2, 472320, Note_on_c, 0, 51, 95
2, 472320, Note_on_c, 0, 46, 95
2, 472320, Note_on_c, 0, 39, 95
2, 472560, Note_off_c, 0, 64, 95
2, 472560, Note_off_c, 0, 59, 95
2, 472560, Note_off_c, 0, 55, 95
2, 472560, Note_off_c, 0, 51, 95
2, 472560, Note_off_c, 0, 46, 95
2, 472560, Note_off_c, 0, 39, 95
2, 472560, Note_on_c, 0, 64, 95
2, 472560, Note_on_c, 0, 59, 95
2, 472560, Note_on_c, 0, 55, 95
2, 472560, Note_on_c, 0, 51, 95
2, 472560, Note_on_c, 0, 46, 95
2, 472560, Note_on_c, 0, 39, 95
2, 472800, Note_off_c, 0, 64, 95
2, 472800, Note_off_c, 0, 59, 95
2, 472800, Note_off_c, 0, 55, 95
2, 472800, Note_off_c, 0, 51, 95
2, 472800, Note_off_c, 0, 46, 95
2, 472800, Note_off_c, 0, 39, 95
2, 472800, Note_on_c, 0, 64, 95
2, 472800, Note_on_c, 0, 59, 95
2, 472800, Note_on_c, 0, 55, 95
2, 472800, Note_on_c, 0, 51, 95
2, 472800, Note_on_c, 0, 46, 95
2, 472800, Note_on_c, 0, 39, 95
2, 473040, Note_off_c, 0, 64, 95
2, 473040, Note_off_c, 0, 59, 95
2, 473040, Note_off_c, 0, 55, 95
2, 473040, Note_off_c, 0, 51, 95
2, 473040, Note_off_c, 0, 46, 95
2, 473040, Note_off_c, 0, 39, 95
2, 473040, Note_on_c, 0, 64, 95
2, 473040, Note_on_c, 0, 59, 95
2, 473040, Note_on_c, 0, 55, 95
2, 473040, Note_on_c, 0, 51, 95
2, 473040, Note_on_c, 0, 46, 95
2, 473040, Note_on_c, 0, 39, 95
2, 473520, Note_off_c, 0, 64, 95
2, 473520, Note_off_c, 0, 59, 95
2, 473520, Note_off_c, 0, 55, 95
2, 473520, Note_off_c, 0, 51, 95
2, 473520, Note_off_c, 0, 46, 95
2, 473520, Note_off_c, 0, 39, 95
2, 473520, Note_on_c, 0, 64, 95
2, 473520, Note_on_c, 0, 59, 95
2, 473520, Note_on_c, 0, 55, 95
2, 473520, Note_on_c, 0, 51, 95
2, 473520, Note_on_c, 0, 46, 95
2, 473520, Note_on_c, 0, 39, 95
2, 473760, Note_off_c, 0, 64, 95
2, 473760, Note_off_c, 0, 59, 95
2, 473760, Note_off_c, 0, 55, 95
2, 473760, Note_off_c, 0, 51, 95
2, 473760, Note_off_c, 0, 46, 95
2, 473760, Note_off_c, 0, 39, 95
2, 473760, Note_on_c, 0, 64, 95
2, 473760, Note_on_c, 0, 59, 95
2, 473760, Note_on_c, 0, 55, 95
2, 473760, Note_on_c, 0, 51, 95
2, 473760, Note_on_c, 0, 46, 95
2, 473760, Note_on_c, 0, 39, 95
2, 474240, Note_off_c, 0, 64, 95
2, 474240, Note_off_c, 0, 59, 95
2, 474240, Note_off_c, 0, 55, 95
2, 474240, Note_off_c, 0, 51, 95
2, 474240, Note_off_c, 0, 46, 95
2, 474240, Note_off_c, 0, 39, 95
2, 474240, Note_on_c, 0, 64, 95
2, 474240, Note_on_c, 0, 59, 95
2, 474240, Note_on_c, 0, 55, 95
2, 474240, Note_on_c, 0, 51, 95
2, 474240, Note_on_c, 0, 46, 95
2, 474240, Note_on_c, 0, 39, 95
2, 474720, Note_off_c, 0, 64, 95
2, 474720, Note_off_c, 0, 59, 95
2, 474720, Note_off_c, 0, 55, 95
2, 474720, Note_off_c, 0, 51, 95
2, 474720, Note_off_c, 0, 46, 95
2, 474720, Note_off_c, 0, 39, 95
2, 474720, Note_on_c, 0, 64, 95
2, 474720, Note_on_c, 0, 59, 95
2, 474720, Note_on_c, 0, 55, 95
2, 474720, Note_on_c, 0, 51, 95
2, 474720, Note_on_c, 0, 46, 95
2, 474720, Note_on_c, 0, 39, 95
2, 474960, Note_off_c, 0, 64, 95
2, 474960, Note_off_c, 0, 59, 95
2, 474960, Note_off_c, 0, 55, 95
2, 474960, Note_off_c, 0, 51, 95
2, 474960, Note_off_c, 0, 46, 95
2, 474960, Note_off_c, 0, 39, 95
2, 474960, Note_on_c, 0, 64, 95
2, 474960, Note_on_c, 0, 59, 95
2, 474960, Note_on_c, 0, 55, 95
2, 474960, Note_on_c, 0, 51, 95
2, 474960, Note_on_c, 0, 46, 95
2, 474960, Note_on_c, 0, 39, 95
2, 475200, Note_off_c, 0, 64, 95
2, 475200, Note_off_c, 0, 59, 95
2, 475200, Note_off_c, 0, 55, 95
2, 475200, Note_off_c, 0, 51, 95
2, 475200, Note_off_c, 0, 46, 95
2, 475200, Note_off_c, 0, 39, 95
2, 475200, Note_on_c, 0, 64, 95
2, 475200, Note_on_c, 0, 59, 95
2, 475200, Note_on_c, 0, 55, 95
2, 475200, Note_on_c, 0, 53, 95
2, 475200, Note_on_c, 0, 48, 95
2, 475200, Note_on_c, 0, 41, 95
2, 475440, Note_off_c, 0, 64, 95
2, 475440, Note_off_c, 0, 59, 95
2, 475440, Note_off_c, 0, 55, 95
2, 475440, Note_off_c, 0, 53, 95
2, 475440, Note_off_c, 0, 48, 95
2, 475440, Note_off_c, 0, 41, 95
2, 475440, Note_on_c, 0, 64, 95
2, 475440, Note_on_c, 0, 59, 95
2, 475440, Note_on_c, 0, 55, 95
2, 475440, Note_on_c, 0, 53, 95
2, 475440, Note_on_c, 0, 48, 95
2, 475440, Note_on_c, 0, 41, 95
2, 475680, Note_off_c, 0, 64, 95
2, 475680, Note_off_c, 0, 59, 95
2, 475680, Note_off_c, 0, 55, 95
2, 475680, Note_off_c, 0, 53, 95
2, 475680, Note_off_c, 0, 48, 95
2, 475680, Note_off_c, 0, 41, 95
2, 475680, Note_on_c, 0, 64, 95
2, 475680, Note_on_c, 0, 59, 95
2, 475680, Note_on_c, 0, 55, 95
2, 475680, Note_on_c, 0, 53, 95
2, 475680, Note_on_c, 0, 48, 95
2, 475680, Note_on_c, 0, 41, 95
2, 475920, Note_off_c, 0, 64, 95
2, 475920, Note_off_c, 0, 59, 95
2, 475920, Note_off_c, 0, 55, 95
2, 475920, Note_off_c, 0, 53, 95
2, 475920, Note_off_c, 0, 48, 95
2, 475920, Note_off_c, 0, 41, 95
2, 475920, Note_on_c, 0, 64, 95
2, 475920, Note_on_c, 0, 59, 95
2, 475920, Note_on_c, 0, 55, 95
2, 475920, Note_on_c, 0, 53, 95
2, 475920, Note_on_c, 0, 48, 95
2, 475920, Note_on_c, 0, 41, 95
2, 476400, Note_off_c, 0, 64, 95
2, 476400, Note_off_c, 0, 59, 95
2, 476400, Note_off_c, 0, 55, 95
2, 476400, Note_off_c, 0, 53, 95
2, 476400, Note_off_c, 0, 48, 95
2, 476400, Note_off_c, 0, 41, 95
2, 476400, Note_on_c, 0, 64, 95
2, 476400, Note_on_c, 0, 59, 95
2, 476400, Note_on_c, 0, 55, 95
2, 476400, Note_on_c, 0, 53, 95
2, 476400, Note_on_c, 0, 48, 95
2, 476400, Note_on_c, 0, 41, 95
2, 476640, Note_off_c, 0, 64, 95
2, 476640, Note_off_c, 0, 59, 95
2, 476640, Note_off_c, 0, 55, 95
2, 476640, Note_off_c, 0, 53, 95
2, 476640, Note_off_c, 0, 48, 95
2, 476640, Note_off_c, 0, 41, 95
2, 476640, Note_on_c, 0, 64, 95
2, 476640, Note_on_c, 0, 59, 95
2, 476640, Note_on_c, 0, 55, 95
2, 476640, Note_on_c, 0, 53, 95
2, 476640, Note_on_c, 0, 48, 95
2, 476640, Note_on_c, 0, 41, 95
2, 477120, Note_off_c, 0, 64, 95
2, 477120, Note_off_c, 0, 59, 95
2, 477120, Note_off_c, 0, 55, 95
2, 477120, Note_off_c, 0, 53, 95
2, 477120, Note_off_c, 0, 48, 95
2, 477120, Note_off_c, 0, 41, 95
2, 477120, Note_on_c, 0, 64, 95
2, 477120, Note_on_c, 0, 59, 95
2, 477120, Note_on_c, 0, 55, 95
2, 477120, Note_on_c, 0, 53, 95
2, 477120, Note_on_c, 0, 48, 95
2, 477120, Note_on_c, 0, 41, 95
2, 477600, Note_off_c, 0, 64, 95
2, 477600, Note_off_c, 0, 59, 95
2, 477600, Note_off_c, 0, 55, 95
2, 477600, Note_off_c, 0, 53, 95
2, 477600, Note_off_c, 0, 48, 95
2, 477600, Note_off_c, 0, 41, 95
2, 477600, Note_on_c, 0, 64, 95
2, 477600, Note_on_c, 0, 59, 95
2, 477600, Note_on_c, 0, 55, 95
2, 477600, Note_on_c, 0, 53, 95
2, 477600, Note_on_c, 0, 48, 95
2, 477600, Note_on_c, 0, 41, 95
2, 477840, Note_off_c, 0, 64, 95
2, 477840, Note_off_c, 0, 59, 95
2, 477840, Note_off_c, 0, 55, 95
2, 477840, Note_off_c, 0, 53, 95
2, 477840, Note_off_c, 0, 48, 95
2, 477840, Note_off_c, 0, 41, 95
2, 477840, Note_on_c, 0, 64, 95
2, 477840, Note_on_c, 0, 59, 95
2, 477840, Note_on_c, 0, 55, 95
2, 477840, Note_on_c, 0, 53, 95
2, 477840, Note_on_c, 0, 48, 95
2, 477840, Note_on_c, 0, 41, 95
2, 478080, Note_off_c, 0, 64, 95
2, 478080, Note_off_c, 0, 59, 95
2, 478080, Note_off_c, 0, 55, 95
2, 478080, Note_off_c, 0, 53, 95
2, 478080, Note_off_c, 0, 48, 95
2, 478080, Note_off_c, 0, 41, 95
2, 478080, Note_on_c, 0, 64, 95
2, 478080, Note_on_c, 0, 59, 95
2, 478080, Note_on_c, 0, 55, 95
2, 478080, Note_on_c, 0, 52, 95
2, 478080, Note_on_c, 0, 47, 95
2, 478080, Note_on_c, 0, 40, 95
2, 478320, Note_off_c, 0, 64, 95
2, 478320, Note_off_c, 0, 59, 95
2, 478320, Note_off_c, 0, 55, 95
2, 478320, Note_off_c, 0, 52, 95
2, 478320, Note_off_c, 0, 47, 95
2, 478320, Note_off_c, 0, 40, 95
2, 478320, Note_on_c, 0, 64, 95
2, 478320, Note_on_c, 0, 59, 95
2, 478320, Note_on_c, 0, 55, 95
2, 478320, Note_on_c, 0, 52, 95
2, 478320, Note_on_c, 0, 47, 95
2, 478320, Note_on_c, 0, 40, 95
2, 478560, Note_off_c, 0, 64, 95
2, 478560, Note_off_c, 0, 59, 95
2, 478560, Note_off_c, 0, 55, 95
2, 478560, Note_off_c, 0, 52, 95
2, 478560, Note_off_c, 0, 47, 95
2, 478560, Note_off_c, 0, 40, 95
2, 478560, Note_on_c, 0, 64, 95
2, 478560, Note_on_c, 0, 59, 95
2, 478560, Note_on_c, 0, 55, 95
2, 478560, Note_on_c, 0, 52, 95
2, 478560, Note_on_c, 0, 47, 95
2, 478560, Note_on_c, 0, 40, 95
2, 478800, Note_off_c, 0, 64, 95
2, 478800, Note_off_c, 0, 59, 95
2, 478800, Note_off_c, 0, 55, 95
2, 478800, Note_off_c, 0, 52, 95
2, 478800, Note_off_c, 0, 47, 95
2, 478800, Note_off_c, 0, 40, 95
2, 478800, Note_on_c, 0, 64, 95
2, 478800, Note_on_c, 0, 59, 95
2, 478800, Note_on_c, 0, 55, 95
2, 478800, Note_on_c, 0, 52, 95
2, 478800, Note_on_c, 0, 47, 95
2, 478800, Note_on_c, 0, 40, 95
2, 479280, Note_off_c, 0, 64, 95
2, 479280, Note_off_c, 0, 59, 95
2, 479280, Note_off_c, 0, 55, 95
2, 479280, Note_off_c, 0, 52, 95
2, 479280, Note_off_c, 0, 47, 95
2, 479280, Note_off_c, 0, 40, 95
2, 479280, Note_on_c, 0, 64, 95
2, 479280, Note_on_c, 0, 59, 95
2, 479280, Note_on_c, 0, 55, 95
2, 479280, Note_on_c, 0, 52, 95
2, 479280, Note_on_c, 0, 47, 95
2, 479280, Note_on_c, 0, 40, 95
2, 479520, Note_off_c, 0, 64, 95
2, 479520, Note_off_c, 0, 59, 95
2, 479520, Note_off_c, 0, 55, 95
2, 479520, Note_off_c, 0, 52, 95
2, 479520, Note_off_c, 0, 47, 95
2, 479520, Note_off_c, 0, 40, 95
2, 479520, Note_on_c, 0, 64, 95
2, 479520, Note_on_c, 0, 59, 95
2, 479520, Note_on_c, 0, 55, 95
2, 479520, Note_on_c, 0, 52, 95
2, 479520, Note_on_c, 0, 47, 95
2, 479520, Note_on_c, 0, 40, 95
2, 480000, Note_off_c, 0, 64, 95
2, 480000, Note_off_c, 0, 59, 95
2, 480000, Note_off_c, 0, 55, 95
2, 480000, Note_off_c, 0, 52, 95
2, 480000, Note_off_c, 0, 47, 95
2, 480000, Note_off_c, 0, 40, 95
2, 480000, Note_on_c, 0, 64, 95
2, 480000, Note_on_c, 0, 59, 95
2, 480000, Note_on_c, 0, 55, 95
2, 480000, Note_on_c, 0, 52, 95
2, 480000, Note_on_c, 0, 47, 95
2, 480000, Note_on_c, 0, 40, 95
2, 480480, Note_off_c, 0, 64, 95
2, 480480, Note_off_c, 0, 59, 95
2, 480480, Note_off_c, 0, 55, 95
2, 480480, Note_off_c, 0, 52, 95
2, 480480, Note_off_c, 0, 47, 95
2, 480480, Note_off_c, 0, 40, 95
2, 480480, Note_on_c, 0, 64, 95
2, 480480, Note_on_c, 0, 59, 95
2, 480480, Note_on_c, 0, 55, 95
2, 480480, Note_on_c, 0, 52, 95
2, 480480, Note_on_c, 0, 47, 95
2, 480480, Note_on_c, 0, 40, 95
2, 480720, Note_off_c, 0, 64, 95
2, 480720, Note_off_c, 0, 59, 95
2, 480720, Note_off_c, 0, 55, 95
2, 480720, Note_off_c, 0, 52, 95
2, 480720, Note_off_c, 0, 47, 95
2, 480720, Note_off_c, 0, 40, 95
2, 480720, Note_on_c, 0, 64, 95
2, 480720, Note_on_c, 0, 59, 95
2, 480720, Note_on_c, 0, 55, 95
2, 480720, Note_on_c, 0, 52, 95
2, 480720, Note_on_c, 0, 47, 95
2, 480720, Note_on_c, 0, 40, 95
2, 480960, Note_off_c, 0, 64, 95
2, 480960, Note_off_c, 0, 59, 95
2, 480960, Note_off_c, 0, 55, 95
2, 480960, Note_off_c, 0, 52, 95
2, 480960, Note_off_c, 0, 47, 95
2, 480960, Note_off_c, 0, 40, 95
2, 480960, Note_on_c, 0, 64, 95
2, 480960, Note_on_c, 0, 59, 95
2, 480960, Note_on_c, 0, 55, 95
2, 480960, Note_on_c, 0, 51, 95
2, 480960, Note_on_c, 0, 46, 95
2, 480960, Note_on_c, 0, 39, 95
2, 481200, Note_off_c, 0, 64, 95
2, 481200, Note_off_c, 0, 59, 95
2, 481200, Note_off_c, 0, 55, 95
2, 481200, Note_off_c, 0, 51, 95
2, 481200, Note_off_c, 0, 46, 95
2, 481200, Note_off_c, 0, 39, 95
2, 481200, Note_on_c, 0, 64, 95
2, 481200, Note_on_c, 0, 59, 95
2, 481200, Note_on_c, 0, 55, 95
2, 481200, Note_on_c, 0, 51, 95
2, 481200, Note_on_c, 0, 46, 95
2, 481200, Note_on_c, 0, 39, 95
2, 481440, Note_off_c, 0, 64, 95
2, 481440, Note_off_c, 0, 59, 95
2, 481440, Note_off_c, 0, 55, 95
2, 481440, Note_off_c, 0, 51, 95
2, 481440, Note_off_c, 0, 46, 95
2, 481440, Note_off_c, 0, 39, 95
2, 481440, Note_on_c, 0, 64, 95
2, 481440, Note_on_c, 0, 59, 95
2, 481440, Note_on_c, 0, 55, 95
2, 481440, Note_on_c, 0, 51, 95
2, 481440, Note_on_c, 0, 46, 95
2, 481440, Note_on_c, 0, 39, 95
2, 481680, Note_off_c, 0, 64, 95
2, 481680, Note_off_c, 0, 59, 95
2, 481680, Note_off_c, 0, 55, 95
2, 481680, Note_off_c, 0, 51, 95
2, 481680, Note_off_c, 0, 46, 95
2, 481680, Note_off_c, 0, 39, 95
2, 481680, Note_on_c, 0, 64, 95
2, 481680, Note_on_c, 0, 59, 95
2, 481680, Note_on_c, 0, 55, 95
2, 481680, Note_on_c, 0, 51, 95
2, 481680, Note_on_c, 0, 46, 95
2, 481680, Note_on_c, 0, 39, 95
2, 482160, Note_off_c, 0, 64, 95
2, 482160, Note_off_c, 0, 59, 95
2, 482160, Note_off_c, 0, 55, 95
2, 482160, Note_off_c, 0, 51, 95
2, 482160, Note_off_c, 0, 46, 95
2, 482160, Note_off_c, 0, 39, 95
2, 482160, Note_on_c, 0, 64, 95
2, 482160, Note_on_c, 0, 59, 95
2, 482160, Note_on_c, 0, 55, 95
2, 482160, Note_on_c, 0, 51, 95
2, 482160, Note_on_c, 0, 46, 95
2, 482160, Note_on_c, 0, 39, 95
2, 482400, Note_off_c, 0, 64, 95
2, 482400, Note_off_c, 0, 59, 95
2, 482400, Note_off_c, 0, 55, 95
2, 482400, Note_off_c, 0, 51, 95
2, 482400, Note_off_c, 0, 46, 95
2, 482400, Note_off_c, 0, 39, 95
2, 482400, Note_on_c, 0, 64, 95
2, 482400, Note_on_c, 0, 59, 95
2, 482400, Note_on_c, 0, 55, 95
2, 482400, Note_on_c, 0, 51, 95
2, 482400, Note_on_c, 0, 46, 95
2, 482400, Note_on_c, 0, 39, 95
2, 482880, Note_off_c, 0, 64, 95
2, 482880, Note_off_c, 0, 59, 95
2, 482880, Note_off_c, 0, 55, 95
2, 482880, Note_off_c, 0, 51, 95
2, 482880, Note_off_c, 0, 46, 95
2, 482880, Note_off_c, 0, 39, 95
2, 482880, Note_on_c, 0, 64, 95
2, 482880, Note_on_c, 0, 59, 95
2, 482880, Note_on_c, 0, 55, 95
2, 482880, Note_on_c, 0, 51, 95
2, 482880, Note_on_c, 0, 46, 95
2, 482880, Note_on_c, 0, 39, 95
2, 483360, Note_off_c, 0, 64, 95
2, 483360, Note_off_c, 0, 59, 95
2, 483360, Note_off_c, 0, 55, 95
2, 483360, Note_off_c, 0, 51, 95
2, 483360, Note_off_c, 0, 46, 95
2, 483360, Note_off_c, 0, 39, 95
2, 483360, Note_on_c, 0, 64, 95
2, 483360, Note_on_c, 0, 59, 95
2, 483360, Note_on_c, 0, 55, 95
2, 483360, Note_on_c, 0, 51, 95
2, 483360, Note_on_c, 0, 46, 95
2, 483360, Note_on_c, 0, 39, 95
2, 483600, Note_off_c, 0, 64, 95
2, 483600, Note_off_c, 0, 59, 95
2, 483600, Note_off_c, 0, 55, 95
2, 483600, Note_off_c, 0, 51, 95
2, 483600, Note_off_c, 0, 46, 95
2, 483600, Note_off_c, 0, 39, 95
2, 483600, Note_on_c, 0, 64, 95
2, 483600, Note_on_c, 0, 59, 95
2, 483600, Note_on_c, 0, 55, 95
2, 483600, Note_on_c, 0, 51, 95
2, 483600, Note_on_c, 0, 46, 95
2, 483600, Note_on_c, 0, 39, 95
2, 483840, Note_off_c, 0, 64, 95
2, 483840, Note_off_c, 0, 59, 95
2, 483840, Note_off_c, 0, 55, 95
2, 483840, Note_off_c, 0, 51, 95
2, 483840, Note_off_c, 0, 46, 95
2, 483840, Note_off_c, 0, 39, 95
2, 483840, Note_on_c, 0, 64, 95
2, 483840, Note_on_c, 0, 59, 95
2, 483840, Note_on_c, 0, 55, 95
2, 483840, Note_on_c, 0, 51, 95
2, 483840, Note_on_c, 0, 46, 95
2, 483840, Note_on_c, 0, 39, 95
2, 484080, Note_off_c, 0, 64, 95
2, 484080, Note_off_c, 0, 59, 95
2, 484080, Note_off_c, 0, 55, 95
2, 484080, Note_off_c, 0, 51, 95
2, 484080, Note_off_c, 0, 46, 95
2, 484080, Note_off_c, 0, 39, 95
2, 484080, Note_on_c, 0, 64, 95
2, 484080, Note_on_c, 0, 59, 95
2, 484080, Note_on_c, 0, 55, 95
2, 484080, Note_on_c, 0, 51, 95
2, 484080, Note_on_c, 0, 46, 95
2, 484080, Note_on_c, 0, 39, 95
2, 484320, Note_off_c, 0, 64, 95
2, 484320, Note_off_c, 0, 59, 95
2, 484320, Note_off_c, 0, 55, 95
2, 484320, Note_off_c, 0, 51, 95
2, 484320, Note_off_c, 0, 46, 95
2, 484320, Note_off_c, 0, 39, 95
2, 484320, Note_on_c, 0, 64, 95
2, 484320, Note_on_c, 0, 59, 95
2, 484320, Note_on_c, 0, 55, 95
2, 484320, Note_on_c, 0, 51, 95
2, 484320, Note_on_c, 0, 46, 95
2, 484320, Note_on_c, 0, 39, 95
2, 484560, Note_off_c, 0, 64, 95
2, 484560, Note_off_c, 0, 59, 95
2, 484560, Note_off_c, 0, 55, 95
2, 484560, Note_off_c, 0, 51, 95
2, 484560, Note_off_c, 0, 46, 95
2, 484560, Note_off_c, 0, 39, 95
2, 484560, Note_on_c, 0, 64, 95
2, 484560, Note_on_c, 0, 59, 95
2, 484560, Note_on_c, 0, 55, 95
2, 484560, Note_on_c, 0, 51, 95
2, 484560, Note_on_c, 0, 46, 95
2, 484560, Note_on_c, 0, 39, 95
2, 485040, Note_off_c, 0, 64, 95
2, 485040, Note_off_c, 0, 59, 95
2, 485040, Note_off_c, 0, 55, 95
2, 485040, Note_off_c, 0, 51, 95
2, 485040, Note_off_c, 0, 46, 95
2, 485040, Note_off_c, 0, 39, 95
2, 485040, Note_on_c, 0, 64, 95
2, 485040, Note_on_c, 0, 59, 95
2, 485040, Note_on_c, 0, 55, 95
2, 485040, Note_on_c, 0, 51, 95
2, 485040, Note_on_c, 0, 46, 95
2, 485040, Note_on_c, 0, 39, 95
2, 485280, Note_off_c, 0, 64, 95
2, 485280, Note_off_c, 0, 59, 95
2, 485280, Note_off_c, 0, 55, 95
2, 485280, Note_off_c, 0, 51, 95
2, 485280, Note_off_c, 0, 46, 95
2, 485280, Note_off_c, 0, 39, 95
2, 485280, Note_on_c, 0, 64, 95
2, 485280, Note_on_c, 0, 59, 95
2, 485280, Note_on_c, 0, 55, 95
2, 485280, Note_on_c, 0, 51, 95
2, 485280, Note_on_c, 0, 46, 95
2, 485280, Note_on_c, 0, 39, 95
2, 485760, Note_off_c, 0, 64, 95
2, 485760, Note_off_c, 0, 59, 95
2, 485760, Note_off_c, 0, 55, 95
2, 485760, Note_off_c, 0, 51, 95
2, 485760, Note_off_c, 0, 46, 95
2, 485760, Note_off_c, 0, 39, 95
2, 485760, Note_on_c, 0, 64, 95
2, 485760, Note_on_c, 0, 59, 95
2, 485760, Note_on_c, 0, 55, 95
2, 485760, Note_on_c, 0, 51, 95
2, 485760, Note_on_c, 0, 46, 95
2, 485760, Note_on_c, 0, 39, 95
2, 486240, Note_off_c, 0, 64, 95
2, 486240, Note_off_c, 0, 59, 95
2, 486240, Note_off_c, 0, 55, 95
2, 486240, Note_off_c, 0, 51, 95
2, 486240, Note_off_c, 0, 46, 95
2, 486240, Note_off_c, 0, 39, 95
2, 486240, Note_on_c, 0, 64, 95
2, 486240, Note_on_c, 0, 59, 95
2, 486240, Note_on_c, 0, 55, 95
2, 486240, Note_on_c, 0, 51, 95
2, 486240, Note_on_c, 0, 46, 95
2, 486240, Note_on_c, 0, 39, 95
2, 486480, Note_off_c, 0, 64, 95
2, 486480, Note_off_c, 0, 59, 95
2, 486480, Note_off_c, 0, 55, 95
2, 486480, Note_off_c, 0, 51, 95
2, 486480, Note_off_c, 0, 46, 95
2, 486480, Note_off_c, 0, 39, 95
2, 486480, Note_on_c, 0, 64, 95
2, 486480, Note_on_c, 0, 59, 95
2, 486480, Note_on_c, 0, 55, 95
2, 486480, Note_on_c, 0, 51, 95
2, 486480, Note_on_c, 0, 46, 95
2, 486480, Note_on_c, 0, 39, 95
2, 486720, Note_off_c, 0, 64, 95
2, 486720, Note_off_c, 0, 59, 95
2, 486720, Note_off_c, 0, 55, 95
2, 486720, Note_off_c, 0, 51, 95
2, 486720, Note_off_c, 0, 46, 95
2, 486720, Note_off_c, 0, 39, 95
2, 486720, Note_on_c, 0, 64, 95
2, 486720, Note_on_c, 0, 59, 95
2, 486720, Note_on_c, 0, 55, 95
2, 486720, Note_on_c, 0, 53, 95
2, 486720, Note_on_c, 0, 48, 95
2, 486720, Note_on_c, 0, 41, 95
2, 486960, Note_off_c, 0, 64, 95
2, 486960, Note_off_c, 0, 59, 95
2, 486960, Note_off_c, 0, 55, 95
2, 486960, Note_off_c, 0, 53, 95
2, 486960, Note_off_c, 0, 48, 95
2, 486960, Note_off_c, 0, 41, 95
2, 486960, Note_on_c, 0, 64, 95
2, 486960, Note_on_c, 0, 59, 95
2, 486960, Note_on_c, 0, 55, 95
2, 486960, Note_on_c, 0, 53, 95
2, 486960, Note_on_c, 0, 48, 95
2, 486960, Note_on_c, 0, 41, 95
2, 487200, Note_off_c, 0, 64, 95
2, 487200, Note_off_c, 0, 59, 95
2, 487200, Note_off_c, 0, 55, 95
2, 487200, Note_off_c, 0, 53, 95
2, 487200, Note_off_c, 0, 48, 95
2, 487200, Note_off_c, 0, 41, 95
2, 487200, Note_on_c, 0, 64, 95
2, 487200, Note_on_c, 0, 59, 95
2, 487200, Note_on_c, 0, 55, 95
2, 487200, Note_on_c, 0, 53, 95
2, 487200, Note_on_c, 0, 48, 95
2, 487200, Note_on_c, 0, 41, 95
2, 487440, Note_off_c, 0, 64, 95
2, 487440, Note_off_c, 0, 59, 95
2, 487440, Note_off_c, 0, 55, 95
2, 487440, Note_off_c, 0, 53, 95
2, 487440, Note_off_c, 0, 48, 95
2, 487440, Note_off_c, 0, 41, 95
2, 487440, Note_on_c, 0, 64, 95
2, 487440, Note_on_c, 0, 59, 95
2, 487440, Note_on_c, 0, 55, 95
2, 487440, Note_on_c, 0, 53, 95
2, 487440, Note_on_c, 0, 48, 95
2, 487440, Note_on_c, 0, 41, 95
2, 487920, Note_off_c, 0, 64, 95
2, 487920, Note_off_c, 0, 59, 95
2, 487920, Note_off_c, 0, 55, 95
2, 487920, Note_off_c, 0, 53, 95
2, 487920, Note_off_c, 0, 48, 95
2, 487920, Note_off_c, 0, 41, 95
2, 487920, Note_on_c, 0, 64, 95
2, 487920, Note_on_c, 0, 59, 95
2, 487920, Note_on_c, 0, 55, 95
2, 487920, Note_on_c, 0, 53, 95
2, 487920, Note_on_c, 0, 48, 95
2, 487920, Note_on_c, 0, 41, 95
2, 488160, Note_off_c, 0, 64, 95
2, 488160, Note_off_c, 0, 59, 95
2, 488160, Note_off_c, 0, 55, 95
2, 488160, Note_off_c, 0, 53, 95
2, 488160, Note_off_c, 0, 48, 95
2, 488160, Note_off_c, 0, 41, 95
2, 488160, Note_on_c, 0, 64, 95
2, 488160, Note_on_c, 0, 59, 95
2, 488160, Note_on_c, 0, 55, 95
2, 488160, Note_on_c, 0, 53, 95
2, 488160, Note_on_c, 0, 48, 95
2, 488160, Note_on_c, 0, 41, 95
2, 488640, Note_off_c, 0, 64, 95
2, 488640, Note_off_c, 0, 59, 95
2, 488640, Note_off_c, 0, 55, 95
2, 488640, Note_off_c, 0, 53, 95
2, 488640, Note_off_c, 0, 48, 95
2, 488640, Note_off_c, 0, 41, 95
2, 488640, Note_on_c, 0, 64, 95
2, 488640, Note_on_c, 0, 59, 95
2, 488640, Note_on_c, 0, 55, 95
2, 488640, Note_on_c, 0, 53, 95
2, 488640, Note_on_c, 0, 48, 95
2, 488640, Note_on_c, 0, 41, 95
2, 489120, Note_off_c, 0, 64, 95
2, 489120, Note_off_c, 0, 59, 95
2, 489120, Note_off_c, 0, 55, 95
2, 489120, Note_off_c, 0, 53, 95
2, 489120, Note_off_c, 0, 48, 95
2, 489120, Note_off_c, 0, 41, 95
2, 489120, Note_on_c, 0, 64, 95
2, 489120, Note_on_c, 0, 59, 95
2, 489120, Note_on_c, 0, 55, 95
2, 489120, Note_on_c, 0, 53, 95
2, 489120, Note_on_c, 0, 48, 95
2, 489120, Note_on_c, 0, 41, 95
2, 489360, Note_off_c, 0, 64, 95
2, 489360, Note_off_c, 0, 59, 95
2, 489360, Note_off_c, 0, 55, 95
2, 489360, Note_off_c, 0, 53, 95
2, 489360, Note_off_c, 0, 48, 95
2, 489360, Note_off_c, 0, 41, 95
2, 489360, Note_on_c, 0, 64, 95
2, 489360, Note_on_c, 0, 59, 95
2, 489360, Note_on_c, 0, 55, 95
2, 489360, Note_on_c, 0, 53, 95
2, 489360, Note_on_c, 0, 48, 95
2, 489360, Note_on_c, 0, 41, 95
2, 489600, Note_off_c, 0, 64, 95
2, 489600, Note_off_c, 0, 59, 95
2, 489600, Note_off_c, 0, 55, 95
2, 489600, Note_off_c, 0, 53, 95
2, 489600, Note_off_c, 0, 48, 95
2, 489600, Note_off_c, 0, 41, 95
2, 489600, Note_on_c, 0, 64, 95
2, 489600, Note_on_c, 0, 59, 95
2, 489600, Note_on_c, 0, 55, 95
2, 489600, Note_on_c, 0, 52, 95
2, 489600, Note_on_c, 0, 47, 95
2, 489600, Note_on_c, 0, 40, 95
2, 489840, Note_off_c, 0, 64, 95
2, 489840, Note_off_c, 0, 59, 95
2, 489840, Note_off_c, 0, 55, 95
2, 489840, Note_off_c, 0, 52, 95
2, 489840, Note_off_c, 0, 47, 95
2, 489840, Note_off_c, 0, 40, 95
2, 489840, Note_on_c, 0, 64, 95
2, 489840, Note_on_c, 0, 59, 95
2, 489840, Note_on_c, 0, 55, 95
2, 489840, Note_on_c, 0, 52, 95
2, 489840, Note_on_c, 0, 47, 95
2, 489840, Note_on_c, 0, 40, 95
2, 490080, Note_off_c, 0, 64, 95
2, 490080, Note_off_c, 0, 59, 95
2, 490080, Note_off_c, 0, 55, 95
2, 490080, Note_off_c, 0, 52, 95
2, 490080, Note_off_c, 0, 47, 95
2, 490080, Note_off_c, 0, 40, 95
2, 490080, Note_on_c, 0, 64, 95
2, 490080, Note_on_c, 0, 59, 95
2, 490080, Note_on_c, 0, 55, 95
2, 490080, Note_on_c, 0, 52, 95
2, 490080, Note_on_c, 0, 47, 95
2, 490080, Note_on_c, 0, 40, 95
2, 490320, Note_off_c, 0, 64, 95
2, 490320, Note_off_c, 0, 59, 95
2, 490320, Note_off_c, 0, 55, 95
2, 490320, Note_off_c, 0, 52, 95
2, 490320, Note_off_c, 0, 47, 95
2, 490320, Note_off_c, 0, 40, 95
2, 490320, Note_on_c, 0, 64, 95
2, 490320, Note_on_c, 0, 59, 95
2, 490320, Note_on_c, 0, 55, 95
2, 490320, Note_on_c, 0, 52, 95
2, 490320, Note_on_c, 0, 47, 95
2, 490320, Note_on_c, 0, 40, 95
2, 490800, Note_off_c, 0, 64, 95
2, 490800, Note_off_c, 0, 59, 95
2, 490800, Note_off_c, 0, 55, 95
2, 490800, Note_off_c, 0, 52, 95
2, 490800, Note_off_c, 0, 47, 95
2, 490800, Note_off_c, 0, 40, 95
2, 490800, Note_on_c, 0, 64, 95
2, 490800, Note_on_c, 0, 59, 95
2, 490800, Note_on_c, 0, 55, 95
2, 490800, Note_on_c, 0, 52, 95
2, 490800, Note_on_c, 0, 47, 95
2, 490800, Note_on_c, 0, 40, 95
2, 491040, Note_off_c, 0, 64, 95
2, 491040, Note_off_c, 0, 59, 95
2, 491040, Note_off_c, 0, 55, 95
2, 491040, Note_off_c, 0, 52, 95
2, 491040, Note_off_c, 0, 47, 95
2, 491040, Note_off_c, 0, 40, 95
2, 491040, Note_on_c, 0, 64, 95
2, 491040, Note_on_c, 0, 59, 95
2, 491040, Note_on_c, 0, 55, 95
2, 491040, Note_on_c, 0, 52, 95
2, 491040, Note_on_c, 0, 47, 95
2, 491040, Note_on_c, 0, 40, 95
2, 491520, Note_off_c, 0, 64, 95
2, 491520, Note_off_c, 0, 59, 95
2, 491520, Note_off_c, 0, 55, 95
2, 491520, Note_off_c, 0, 52, 95
2, 491520, Note_off_c, 0, 47, 95
2, 491520, Note_off_c, 0, 40, 95
2, 491520, Note_on_c, 0, 64, 95
2, 491520, Note_on_c, 0, 59, 95
2, 491520, Note_on_c, 0, 55, 95
2, 491520, Note_on_c, 0, 52, 95
2, 491520, Note_on_c, 0, 47, 95
2, 491520, Note_on_c, 0, 40, 95
2, 492000, Note_off_c, 0, 64, 95
2, 492000, Note_off_c, 0, 59, 95
2, 492000, Note_off_c, 0, 55, 95
2, 492000, Note_off_c, 0, 52, 95
2, 492000, Note_off_c, 0, 47, 95
2, 492000, Note_off_c, 0, 40, 95
2, 492000, Note_on_c, 0, 64, 95
2, 492000, Note_on_c, 0, 59, 95
2, 492000, Note_on_c, 0, 55, 95
2, 492000, Note_on_c, 0, 52, 95
2, 492000, Note_on_c, 0, 47, 95
2, 492000, Note_on_c, 0, 40, 95
2, 492240, Note_off_c, 0, 64, 95
2, 492240, Note_off_c, 0, 59, 95
2, 492240, Note_off_c, 0, 55, 95
2, 492240, Note_off_c, 0, 52, 95
2, 492240, Note_off_c, 0, 47, 95
2, 492240, Note_off_c, 0, 40, 95
2, 492240, Note_on_c, 0, 64, 95
2, 492240, Note_on_c, 0, 59, 95
2, 492240, Note_on_c, 0, 55, 95
2, 492240, Note_on_c, 0, 52, 95
2, 492240, Note_on_c, 0, 47, 95
2, 492240, Note_on_c, 0, 40, 95
2, 492480, Note_off_c, 0, 64, 95
2, 492480, Note_off_c, 0, 59, 95
2, 492480, Note_off_c, 0, 55, 95
2, 492480, Note_off_c, 0, 52, 95
2, 492480, Note_off_c, 0, 47, 95
2, 492480, Note_off_c, 0, 40, 95
2, 492480, Note_on_c, 0, 64, 95
2, 492480, Note_on_c, 0, 59, 95
2, 492480, Note_on_c, 0, 55, 95
2, 492480, Note_on_c, 0, 51, 95
2, 492480, Note_on_c, 0, 46, 95
2, 492480, Note_on_c, 0, 39, 95
2, 492720, Note_off_c, 0, 64, 95
2, 492720, Note_off_c, 0, 59, 95
2, 492720, Note_off_c, 0, 55, 95
2, 492720, Note_off_c, 0, 51, 95
2, 492720, Note_off_c, 0, 46, 95
2, 492720, Note_off_c, 0, 39, 95
2, 492720, Note_on_c, 0, 64, 95
2, 492720, Note_on_c, 0, 59, 95
2, 492720, Note_on_c, 0, 55, 95
2, 492720, Note_on_c, 0, 51, 95
2, 492720, Note_on_c, 0, 46, 95
2, 492720, Note_on_c, 0, 39, 95
2, 492960, Note_off_c, 0, 64, 95
2, 492960, Note_off_c, 0, 59, 95
2, 492960, Note_off_c, 0, 55, 95
2, 492960, Note_off_c, 0, 51, 95
2, 492960, Note_off_c, 0, 46, 95
2, 492960, Note_off_c, 0, 39, 95
2, 492960, Note_on_c, 0, 64, 95
2, 492960, Note_on_c, 0, 59, 95
2, 492960, Note_on_c, 0, 55, 95
2, 492960, Note_on_c, 0, 51, 95
2, 492960, Note_on_c, 0, 46, 95
2, 492960, Note_on_c, 0, 39, 95
2, 493200, Note_off_c, 0, 64, 95
2, 493200, Note_off_c, 0, 59, 95
2, 493200, Note_off_c, 0, 55, 95
2, 493200, Note_off_c, 0, 51, 95
2, 493200, Note_off_c, 0, 46, 95
2, 493200, Note_off_c, 0, 39, 95
2, 493200, Note_on_c, 0, 64, 95
2, 493200, Note_on_c, 0, 59, 95
2, 493200, Note_on_c, 0, 55, 95
2, 493200, Note_on_c, 0, 51, 95
2, 493200, Note_on_c, 0, 46, 95
2, 493200, Note_on_c, 0, 39, 95
2, 493680, Note_off_c, 0, 64, 95
2, 493680, Note_off_c, 0, 59, 95
2, 493680, Note_off_c, 0, 55, 95
2, 493680, Note_off_c, 0, 51, 95
2, 493680, Note_off_c, 0, 46, 95
2, 493680, Note_off_c, 0, 39, 95
2, 493680, Note_on_c, 0, 64, 95
2, 493680, Note_on_c, 0, 59, 95
2, 493680, Note_on_c, 0, 55, 95
2, 493680, Note_on_c, 0, 51, 95
2, 493680, Note_on_c, 0, 46, 95
2, 493680, Note_on_c, 0, 39, 95
2, 493920, Note_off_c, 0, 64, 95
2, 493920, Note_off_c, 0, 59, 95
2, 493920, Note_off_c, 0, 55, 95
2, 493920, Note_off_c, 0, 51, 95
2, 493920, Note_off_c, 0, 46, 95
2, 493920, Note_off_c, 0, 39, 95
2, 493920, Note_on_c, 0, 64, 95
2, 493920, Note_on_c, 0, 59, 95
2, 493920, Note_on_c, 0, 55, 95
2, 493920, Note_on_c, 0, 51, 95
2, 493920, Note_on_c, 0, 46, 95
2, 493920, Note_on_c, 0, 39, 95
2, 494400, Note_off_c, 0, 64, 95
2, 494400, Note_off_c, 0, 59, 95
2, 494400, Note_off_c, 0, 55, 95
2, 494400, Note_off_c, 0, 51, 95
2, 494400, Note_off_c, 0, 46, 95
2, 494400, Note_off_c, 0, 39, 95
2, 494400, Note_on_c, 0, 64, 95
2, 494400, Note_on_c, 0, 59, 95
2, 494400, Note_on_c, 0, 55, 95
2, 494400, Note_on_c, 0, 51, 95
2, 494400, Note_on_c, 0, 46, 95
2, 494400, Note_on_c, 0, 39, 95
2, 494880, Note_off_c, 0, 64, 95
2, 494880, Note_off_c, 0, 59, 95
2, 494880, Note_off_c, 0, 55, 95
2, 494880, Note_off_c, 0, 51, 95
2, 494880, Note_off_c, 0, 46, 95
2, 494880, Note_off_c, 0, 39, 95
2, 494880, Note_on_c, 0, 64, 95
2, 494880, Note_on_c, 0, 59, 95
2, 494880, Note_on_c, 0, 55, 95
2, 494880, Note_on_c, 0, 51, 95
2, 494880, Note_on_c, 0, 46, 95
2, 494880, Note_on_c, 0, 39, 95
2, 495120, Note_off_c, 0, 64, 95
2, 495120, Note_off_c, 0, 59, 95
2, 495120, Note_off_c, 0, 55, 95
2, 495120, Note_off_c, 0, 51, 95
2, 495120, Note_off_c, 0, 46, 95
2, 495120, Note_off_c, 0, 39, 95
2, 495120, Note_on_c, 0, 64, 95
2, 495120, Note_on_c, 0, 59, 95
2, 495120, Note_on_c, 0, 55, 95
2, 495120, Note_on_c, 0, 51, 95
2, 495120, Note_on_c, 0, 46, 95
2, 495120, Note_on_c, 0, 39, 95
2, 495360, Note_off_c, 0, 64, 95
2, 495360, Note_off_c, 0, 59, 95
2, 495360, Note_off_c, 0, 55, 95
2, 495360, Note_off_c, 0, 51, 95
2, 495360, Note_off_c, 0, 46, 95
2, 495360, Note_off_c, 0, 39, 95
2, 495360, Note_on_c, 0, 64, 95
2, 495360, Note_on_c, 0, 59, 95
2, 495360, Note_on_c, 0, 55, 95
2, 495360, Note_on_c, 0, 51, 95
2, 495360, Note_on_c, 0, 46, 95
2, 495360, Note_on_c, 0, 39, 95
2, 501120, Note_off_c, 0, 64, 95
2, 501120, Note_off_c, 0, 59, 95
2, 501120, Note_off_c, 0, 55, 95
2, 501120, Note_off_c, 0, 51, 95
2, 501120, Note_off_c, 0, 46, 95
2, 501120, Note_off_c, 0, 39, 95
2, 501120, End_track
3, 0, Start_track
3, 0, Pitch_bend_c, 2, 8192
3, 0, Control_c, 2, 7, 103
3, 0, Control_c, 2, 10, 63
3, 0, Control_c, 2, 93, 0
3, 0, Control_c, 2, 91, 0
3, 0, Control_c, 2, 95, 0
3, 0, Control_c, 2, 92, 0
3, 0, Control_c, 2, 11, 127
3, 0, Program_c, 2, 27
3, 0, Control_c, 3, 7, 103
3, 0, Control_c, 3, 10, 63
3, 0, Control_c, 3, 93, 0
3, 0, Control_c, 3, 91, 0
3, 0, Control_c, 3, 95, 0
3, 0, Control_c, 3, 92, 0
3, 0, Control_c, 3, 11, 127
3, 0, Program_c, 3, 27
3, 0, Note_on_c, 2, 53, 95
3, 240, Note_off_c, 2, 53, 95
3, 240, Note_on_c, 2, 56, 95
3, 480, Note_off_c, 2, 56, 95
3, 480, Note_on_c, 2, 60, 95
3, 720, Note_off_c, 2, 60, 95
3, 720, Note_on_c, 2, 65, 95
3, 960, Note_off_c, 2, 65, 95
3, 960, Note_on_c, 2, 62, 95
3, 1200, Note_off_c, 2, 62, 95
3, 1200, Note_on_c, 2, 60, 70
3, 1440, Note_off_c, 2, 60, 70
3, 1440, Note_on_c, 2, 58, 95
3, 1680, Note_off_c, 2, 58, 95
3, 1680, Note_on_c, 2, 56, 70
3, 1920, Note_off_c, 2, 56, 70
3, 1920, Note_on_c, 2, 58, 95
3, 2160, Note_off_c, 2, 58, 95
3, 2160, Note_on_c, 2, 56, 70
3, 2400, Note_off_c, 2, 56, 70
3, 2400, Note_on_c, 2, 58, 95
3, 2640, Note_off_c, 2, 58, 95
3, 2640, Note_on_c, 2, 56, 70
3, 2880, Note_off_c, 2, 56, 70
3, 2880, Note_on_c, 2, 53, 95
3, 3120, Note_off_c, 2, 53, 95
3, 3120, Note_on_c, 2, 56, 95
3, 3360, Note_off_c, 2, 56, 95
3, 3360, Note_on_c, 2, 60, 95
3, 3600, Note_off_c, 2, 60, 95
3, 3600, Note_on_c, 2, 65, 95
3, 3840, Note_off_c, 2, 65, 95
3, 3840, Note_on_c, 2, 62, 95
3, 4080, Note_off_c, 2, 62, 95
3, 4080, Note_on_c, 2, 60, 70
3, 4320, Note_off_c, 2, 60, 70
3, 4320, Note_on_c, 2, 67, 95
3, 4560, Note_off_c, 2, 67, 95
3, 4560, Note_on_c, 2, 65, 70
3, 4800, Note_off_c, 2, 65, 70
3, 4800, Note_on_c, 2, 62, 95
3, 5040, Note_off_c, 2, 62, 95
3, 5040, Note_on_c, 2, 60, 70
3, 5280, Note_off_c, 2, 60, 70
3, 5280, Note_on_c, 2, 58, 95
3, 5520, Note_off_c, 2, 58, 95
3, 5520, Note_on_c, 2, 56, 70
3, 5760, Note_off_c, 2, 56, 70
3, 5760, Note_on_c, 2, 55, 95
3, 6000, Note_off_c, 2, 55, 95
3, 6000, Note_on_c, 2, 58, 95
3, 6240, Note_off_c, 2, 58, 95
3, 6240, Note_on_c, 2, 62, 95
3, 6480, Note_off_c, 2, 62, 95
3, 6480, Note_on_c, 2, 67, 95
3, 6720, Note_off_c, 2, 67, 95
3, 6720, Note_on_c, 2, 64, 95
3, 6960, Note_off_c, 2, 64, 95
3, 6960, Note_on_c, 2, 62, 70
3, 7200, Note_off_c, 2, 62, 70
3, 7200, Note_on_c, 2, 60, 95
3, 7440, Note_off_c, 2, 60, 95
3, 7440, Note_on_c, 2, 58, 70
3, 7680, Note_off_c, 2, 58, 70
3, 7680, Note_on_c, 2, 60, 95
3, 7920, Note_off_c, 2, 60, 95
3, 7920, Note_on_c, 2, 58, 70
3, 8160, Note_off_c, 2, 58, 70
3, 8160, Note_on_c, 2, 60, 95
3, 8400, Note_off_c, 2, 60, 95
3, 8400, Note_on_c, 2, 58, 70
3, 8640, Note_off_c, 2, 58, 70
3, 8640, Note_on_c, 2, 55, 95
3, 8880, Note_off_c, 2, 55, 95
3, 8880, Note_on_c, 2, 58, 95
3, 9120, Note_off_c, 2, 58, 95
3, 9120, Note_on_c, 2, 62, 95
3, 9360, Note_off_c, 2, 62, 95
3, 9360, Note_on_c, 2, 67, 95
3, 9600, Note_off_c, 2, 67, 95
3, 9600, Note_on_c, 2, 64, 95
3, 9840, Note_off_c, 2, 64, 95
3, 9840, Note_on_c, 2, 62, 70
3, 10080, Note_off_c, 2, 62, 70
3, 10080, Note_on_c, 2, 69, 95
3, 10320, Note_off_c, 2, 69, 95
3, 10320, Note_on_c, 2, 67, 70
3, 10560, Note_off_c, 2, 67, 70
3, 10560, Note_on_c, 2, 64, 95
3, 10800, Note_off_c, 2, 64, 95
3, 10800, Note_on_c, 2, 62, 70
3, 11040, Note_off_c, 2, 62, 70
3, 11040, Note_on_c, 2, 60, 95
3, 11280, Note_off_c, 2, 60, 95
3, 11280, Note_on_c, 2, 58, 70
3, 11520, Note_off_c, 2, 58, 70
3, 11520, Note_on_c, 2, 64, 95
3, 11520, Note_on_c, 2, 59, 95
3, 11520, Note_on_c, 2, 55, 95
3, 11520, Note_on_c, 2, 52, 95
3, 11520, Note_on_c, 2, 47, 95
3, 11520, Note_on_c, 2, 40, 95
3, 17280, Note_off_c, 2, 64, 95
3, 17280, Note_off_c, 2, 59, 95
3, 17280, Note_off_c, 2, 55, 95
3, 17280, Note_off_c, 2, 52, 95
3, 17280, Note_off_c, 2, 47, 95
3, 17280, Note_off_c, 2, 40, 95
3, 138240, Note_on_c, 2, 53, 95
3, 138480, Note_off_c, 2, 53, 95
3, 138480, Note_on_c, 2, 56, 95
3, 138720, Note_off_c, 2, 56, 95
3, 138720, Note_on_c, 2, 60, 95
3, 138960, Note_off_c, 2, 60, 95
3, 138960, Note_on_c, 2, 65, 95
3, 139200, Note_off_c, 2, 65, 95
3, 139200, Note_on_c, 2, 62, 95
3, 139440, Note_off_c, 2, 62, 95
3, 139440, Note_on_c, 2, 60, 70
3, 139680, Note_off_c, 2, 60, 70
3, 139680, Note_on_c, 2, 58, 95
3, 139920, Note_off_c, 2, 58, 95
3, 139920, Note_on_c, 2, 56, 70
3, 140160, Note_off_c, 2, 56, 70
3, 140160, Note_on_c, 2, 58, 95
3, 140400, Note_off_c, 2, 58, 95
3, 140400, Note_on_c, 2, 56, 70
3, 140640, Note_off_c, 2, 56, 70
3, 140640, Note_on_c, 2, 58, 95
3, 140880, Note_off_c, 2, 58, 95
3, 140880, Note_on_c, 2, 56, 70
3, 141120, Note_off_c, 2, 56, 70
3, 141120, Note_on_c, 2, 53, 95
3, 141360, Note_off_c, 2, 53, 95
3, 141360, Note_on_c, 2, 56, 95
3, 141600, Note_off_c, 2, 56, 95
3, 141600, Note_on_c, 2, 60, 95
3, 141840, Note_off_c, 2, 60, 95
3, 141840, Note_on_c, 2, 65, 95
3, 142080, Note_off_c, 2, 65, 95
3, 142080, Note_on_c, 2, 62, 95
3, 142320, Note_off_c, 2, 62, 95
3, 142320, Note_on_c, 2, 60, 70
3, 142560, Note_off_c, 2, 60, 70
3, 142560, Note_on_c, 2, 67, 95
3, 142800, Note_off_c, 2, 67, 95
3, 142800, Note_on_c, 2, 65, 70
3, 143040, Note_off_c, 2, 65, 70
3, 143040, Note_on_c, 2, 62, 95
3, 143280, Note_off_c, 2, 62, 95
3, 143280, Note_on_c, 2, 60, 70
3, 143520, Note_off_c, 2, 60, 70
3, 143520, Note_on_c, 2, 58, 95
3, 143760, Note_off_c, 2, 58, 95
3, 143760, Note_on_c, 2, 56, 70
3, 144000, Note_off_c, 2, 56, 70
3, 144000, Note_on_c, 2, 55, 95
3, 144240, Note_off_c, 2, 55, 95
3, 144240, Note_on_c, 2, 58, 95
3, 144480, Note_off_c, 2, 58, 95
3, 144480, Note_on_c, 2, 62, 95
3, 144720, Note_off_c, 2, 62, 95
3, 144720, Note_on_c, 2, 67, 95
3, 144960, Note_off_c, 2, 67, 95
3, 144960, Note_on_c, 2, 64, 95
3, 145200, Note_off_c, 2, 64, 95
3, 145200, Note_on_c, 2, 62, 70
3, 145440, Note_off_c, 2, 62, 70
3, 145440, Note_on_c, 2, 60, 95
3, 145680, Note_off_c, 2, 60, 95
3, 145680, Note_on_c, 2, 58, 70
3, 145920, Note_off_c, 2, 58, 70
3, 145920, Note_on_c, 2, 60, 95
3, 146160, Note_off_c, 2, 60, 95
3, 146160, Note_on_c, 2, 58, 70
3, 146400, Note_off_c, 2, 58, 70
3, 146400, Note_on_c, 2, 60, 95
3, 146640, Note_off_c, 2, 60, 95
3, 146640, Note_on_c, 2, 58, 70
3, 146880, Note_off_c, 2, 58, 70
3, 146880, Note_on_c, 2, 55, 95
3, 147120, Note_off_c, 2, 55, 95
3, 147120, Note_on_c, 2, 58, 95
3, 147360, Note_off_c, 2, 58, 95
3, 147360, Note_on_c, 2, 62, 95
3, 147600, Note_off_c, 2, 62, 95
3, 147600, Note_on_c, 2, 67, 95
3, 147840, Note_off_c, 2, 67, 95
3, 147840, Note_on_c, 2, 64, 95
3, 148080, Note_off_c, 2, 64, 95
3, 148080, Note_on_c, 2, 62, 70
3, 148320, Note_off_c, 2, 62, 70
3, 148320, Note_on_c, 2, 69, 95
3, 148560, Note_off_c, 2, 69, 95
3, 148560, Note_on_c, 2, 67, 70
3, 148800, Note_off_c, 2, 67, 70
3, 148800, Note_on_c, 2, 64, 95
3, 149040, Note_off_c, 2, 64, 95
3, 149040, Note_on_c, 2, 62, 70
3, 149280, Note_off_c, 2, 62, 70
3, 149280, Note_on_c, 2, 60, 95
3, 149520, Note_off_c, 2, 60, 95
3, 149520, Note_on_c, 2, 58, 70
3, 149760, Note_off_c, 2, 58, 70
3, 149760, Note_on_c, 2, 64, 95
3, 149760, Note_on_c, 2, 59, 95
3, 149760, Note_on_c, 2, 55, 95
3, 149760, Note_on_c, 2, 52, 95
3, 149760, Note_on_c, 2, 47, 95
3, 149760, Note_on_c, 2, 40, 95
3, 155520, Note_off_c, 2, 64, 95
3, 155520, Note_off_c, 2, 59, 95
3, 155520, Note_off_c, 2, 55, 95
3, 155520, Note_off_c, 2, 52, 95
3, 155520, Note_off_c, 2, 47, 95
3, 155520, Note_off_c, 2, 40, 95
3, 282240, Note_on_c, 2, 55, 95
3, 282240, Note_on_c, 2, 51, 95
3, 282240, Note_on_c, 2, 46, 95
3, 282240, Note_on_c, 2, 39, 95
3, 282720, Note_off_c, 2, 55, 95
3, 282720, Note_off_c, 2, 51, 95
3, 282720, Note_off_c, 2, 46, 95
3, 282720, Note_off_c, 2, 39, 95
3, 282720, Note_on_c, 2, 55, 95
3, 282720, Note_on_c, 2, 51, 95
3, 282720, Note_on_c, 2, 46, 95
3, 282720, Note_on_c, 2, 39, 95
3, 282960, Note_off_c, 2, 55, 95
3, 282960, Note_off_c, 2, 51, 95
3, 282960, Note_off_c, 2, 46, 95
3, 282960, Note_off_c, 2, 39, 95
3, 282960, Note_on_c, 2, 55, 95
3, 282960, Note_on_c, 2, 51, 95
3, 282960, Note_on_c, 2, 46, 95
3, 282960, Note_on_c, 2, 39, 95
3, 283440, Note_off_c, 2, 55, 95
3, 283440, Note_off_c, 2, 51, 95
3, 283440, Note_off_c, 2, 46, 95
3, 283440, Note_off_c, 2, 39, 95
3, 283440, Note_on_c, 2, 55, 95
3, 283440, Note_on_c, 2, 51, 95
3, 283440, Note_on_c, 2, 46, 95
3, 283440, Note_on_c, 2, 39, 95
3, 283680, Note_off_c, 2, 55, 95
3, 283680, Note_off_c, 2, 51, 95
3, 283680, Note_off_c, 2, 46, 95
3, 283680, Note_off_c, 2, 39, 95
3, 283680, Note_on_c, 2, 64, 95
3, 283680, Note_on_c, 2, 59, 95
3, 283680, Note_on_c, 2, 55, 95
3, 283680, Note_on_c, 2, 51, 95
3, 283680, Note_on_c, 2, 46, 95
3, 283680, Note_on_c, 2, 39, 95
3, 284160, Note_off_c, 2, 64, 95
3, 284160, Note_off_c, 2, 59, 95
3, 284160, Note_off_c, 2, 55, 95
3, 284160, Note_off_c, 2, 51, 95
3, 284160, Note_off_c, 2, 46, 95
3, 284160, Note_off_c, 2, 39, 95
3, 284160, Note_on_c, 2, 55, 95
3, 284160, Note_on_c, 2, 51, 95
3, 284160, Note_on_c, 2, 46, 95
3, 284160, Note_on_c, 2, 39, 95
3, 284640, Note_off_c, 2, 55, 95
3, 284640, Note_off_c, 2, 51, 95
3, 284640, Note_off_c, 2, 46, 95
3, 284640, Note_off_c, 2, 39, 95
3, 284640, Note_on_c, 2, 55, 95
3, 284640, Note_on_c, 2, 51, 95
3, 284640, Note_on_c, 2, 46, 95
3, 284640, Note_on_c, 2, 39, 95
3, 284880, Note_off_c, 2, 55, 95
3, 284880, Note_off_c, 2, 51, 95
3, 284880, Note_off_c, 2, 46, 95
3, 284880, Note_off_c, 2, 39, 95
3, 284880, Note_on_c, 2, 55, 95
3, 284880, Note_on_c, 2, 51, 95
3, 284880, Note_on_c, 2, 46, 95
3, 284880, Note_on_c, 2, 39, 95
3, 285120, Note_off_c, 2, 55, 95
3, 285120, Note_off_c, 2, 51, 95
3, 285120, Note_off_c, 2, 46, 95
3, 285120, Note_off_c, 2, 39, 95
3, 285120, Note_on_c, 2, 55, 95
3, 285120, Note_on_c, 2, 53, 95
3, 285120, Note_on_c, 2, 48, 95
3, 285120, Note_on_c, 2, 41, 95
3, 285600, Note_off_c, 2, 55, 95
3, 285600, Note_off_c, 2, 53, 95
3, 285600, Note_off_c, 2, 48, 95
3, 285600, Note_off_c, 2, 41, 95
3, 285600, Note_on_c, 2, 55, 95
3, 285600, Note_on_c, 2, 53, 95
3, 285600, Note_on_c, 2, 48, 95
3, 285600, Note_on_c, 2, 41, 95
3, 285840, Note_off_c, 2, 55, 95
3, 285840, Note_off_c, 2, 53, 95
3, 285840, Note_off_c, 2, 48, 95
3, 285840, Note_off_c, 2, 41, 95
3, 285840, Note_on_c, 2, 55, 95
3, 285840, Note_on_c, 2, 53, 95
3, 285840, Note_on_c, 2, 48, 95
3, 285840, Note_on_c, 2, 41, 95
3, 286320, Note_off_c, 2, 55, 95
3, 286320, Note_off_c, 2, 53, 95
3, 286320, Note_off_c, 2, 48, 95
3, 286320, Note_off_c, 2, 41, 95
3, 286320, Note_on_c, 2, 55, 95
3, 286320, Note_on_c, 2, 53, 95
3, 286320, Note_on_c, 2, 48, 95
3, 286320, Note_on_c, 2, 41, 95
3, 286560, Note_off_c, 2, 55, 95
3, 286560, Note_off_c, 2, 53, 95
3, 286560, Note_off_c, 2, 48, 95
3, 286560, Note_off_c, 2, 41, 95
3, 286560, Note_on_c, 2, 64, 95
3, 286560, Note_on_c, 2, 59, 95
3, 286560, Note_on_c, 2, 55, 95
3, 286560, Note_on_c, 2, 53, 95
3, 286560, Note_on_c, 2, 48, 95
3, 286560, Note_on_c, 2, 41, 95
3, 287040, Note_off_c, 2, 64, 95
3, 287040, Note_off_c, 2, 59, 95
3, 287040, Note_off_c, 2, 55, 95
3, 287040, Note_off_c, 2, 53, 95
3, 287040, Note_off_c, 2, 48, 95
3, 287040, Note_off_c, 2, 41, 95
3, 287040, Note_on_c, 2, 55, 95
3, 287040, Note_on_c, 2, 53, 95
3, 287040, Note_on_c, 2, 48, 95
3, 287040, Note_on_c, 2, 41, 95
3, 287520, Note_off_c, 2, 55, 95
3, 287520, Note_off_c, 2, 53, 95
3, 287520, Note_off_c, 2, 48, 95
3, 287520, Note_off_c, 2, 41, 95
3, 287520, Note_on_c, 2, 55, 95
3, 287520, Note_on_c, 2, 53, 95
3, 287520, Note_on_c, 2, 48, 95
3, 287520, Note_on_c, 2, 41, 95
3, 287760, Note_off_c, 2, 55, 95
3, 287760, Note_off_c, 2, 53, 95
3, 287760, Note_off_c, 2, 48, 95
3, 287760, Note_off_c, 2, 41, 95
3, 287760, Note_on_c, 2, 55, 95
3, 287760, Note_on_c, 2, 53, 95
3, 287760, Note_on_c, 2, 48, 95
3, 287760, Note_on_c, 2, 41, 95
3, 288000, Note_off_c, 2, 55, 95
3, 288000, Note_off_c, 2, 53, 95
3, 288000, Note_off_c, 2, 48, 95
3, 288000, Note_off_c, 2, 41, 95
3, 288000, Note_on_c, 2, 55, 95
3, 288000, Note_on_c, 2, 55, 95
3, 288000, Note_on_c, 2, 50, 95
3, 288000, Note_on_c, 2, 43, 95
3, 288480, Note_off_c, 2, 55, 95
3, 288480, Note_off_c, 2, 55, 95
3, 288480, Note_off_c, 2, 50, 95
3, 288480, Note_off_c, 2, 43, 95
3, 288480, Note_on_c, 2, 55, 95
3, 288480, Note_on_c, 2, 55, 95
3, 288480, Note_on_c, 2, 50, 95
3, 288480, Note_on_c, 2, 43, 95
3, 288720, Note_off_c, 2, 55, 95
3, 288720, Note_off_c, 2, 55, 95
3, 288720, Note_off_c, 2, 50, 95
3, 288720, Note_off_c, 2, 43, 95
3, 288720, Note_on_c, 2, 55, 95
3, 288720, Note_on_c, 2, 55, 95
3, 288720, Note_on_c, 2, 50, 95
3, 288720, Note_on_c, 2, 43, 95
3, 289200, Note_off_c, 2, 55, 95
3, 289200, Note_off_c, 2, 55, 95
3, 289200, Note_off_c, 2, 50, 95
3, 289200, Note_off_c, 2, 43, 95
3, 289200, Note_on_c, 2, 55, 95
3, 289200, Note_on_c, 2, 55, 95
3, 289200, Note_on_c, 2, 50, 95
3, 289200, Note_on_c, 2, 43, 95
3, 289440, Note_off_c, 2, 55, 95
3, 289440, Note_off_c, 2, 55, 95
3, 289440, Note_off_c, 2, 50, 95
3, 289440, Note_off_c, 2, 43, 95
3, 289440, Note_on_c, 2, 64, 95
3, 289440, Note_on_c, 2, 59, 95
3, 289440, Note_on_c, 2, 55, 95
3, 289440, Note_on_c, 2, 55, 95
3, 289440, Note_on_c, 2, 50, 95
3, 289440, Note_on_c, 2, 43, 95
3, 289920, Note_off_c, 2, 64, 95
3, 289920, Note_off_c, 2, 59, 95
3, 289920, Note_off_c, 2, 55, 95
3, 289920, Note_off_c, 2, 55, 95
3, 289920, Note_off_c, 2, 50, 95
3, 289920, Note_off_c, 2, 43, 95
3, 289920, Note_on_c, 2, 55, 95
3, 289920, Note_on_c, 2, 55, 95
3, 289920, Note_on_c, 2, 50, 95
3, 289920, Note_on_c, 2, 43, 95
3, 290400, Note_off_c, 2, 55, 95
3, 290400, Note_off_c, 2, 55, 95
3, 290400, Note_off_c, 2, 50, 95
3, 290400, Note_off_c, 2, 43, 95
3, 290400, Note_on_c, 2, 55, 95
3, 290400, Note_on_c, 2, 55, 95
3, 290400, Note_on_c, 2, 50, 95
3, 290400, Note_on_c, 2, 43, 95
3, 290640, Note_off_c, 2, 55, 95
3, 290640, Note_off_c, 2, 55, 95
3, 290640, Note_off_c, 2, 50, 95
3, 290640, Note_off_c, 2, 43, 95
3, 290640, Note_on_c, 2, 55, 95
3, 290640, Note_on_c, 2, 55, 95
3, 290640, Note_on_c, 2, 50, 95
3, 290640, Note_on_c, 2, 43, 95
3, 290880, Note_off_c, 2, 55, 95
3, 290880, Note_off_c, 2, 55, 95
3, 290880, Note_off_c, 2, 50, 95
3, 290880, Note_off_c, 2, 43, 95
3, 290880, Note_on_c, 2, 55, 95
3, 290880, Note_on_c, 2, 55, 95
3, 290880, Note_on_c, 2, 50, 95
3, 290880, Note_on_c, 2, 43, 95
3, 291360, Note_off_c, 2, 55, 95
3, 291360, Note_off_c, 2, 55, 95
3, 291360, Note_off_c, 2, 50, 95
3, 291360, Note_off_c, 2, 43, 95
3, 291360, Note_on_c, 2, 55, 95
3, 291360, Note_on_c, 2, 55, 95
3, 291360, Note_on_c, 2, 50, 95
3, 291360, Note_on_c, 2, 43, 95
3, 291600, Note_off_c, 2, 55, 95
3, 291600, Note_off_c, 2, 55, 95
3, 291600, Note_off_c, 2, 50, 95
3, 291600, Note_off_c, 2, 43, 95
3, 291600, Note_on_c, 2, 55, 95
3, 291600, Note_on_c, 2, 55, 95
3, 291600, Note_on_c, 2, 50, 95
3, 291600, Note_on_c, 2, 43, 95
3, 292080, Note_off_c, 2, 55, 95
3, 292080, Note_off_c, 2, 55, 95
3, 292080, Note_off_c, 2, 50, 95
3, 292080, Note_off_c, 2, 43, 95
3, 292080, Note_on_c, 2, 55, 95
3, 292080, Note_on_c, 2, 55, 95
3, 292080, Note_on_c, 2, 50, 95
3, 292080, Note_on_c, 2, 43, 95
3, 292320, Note_off_c, 2, 55, 95
3, 292320, Note_off_c, 2, 55, 95
3, 292320, Note_off_c, 2, 50, 95
3, 292320, Note_off_c, 2, 43, 95
3, 292320, Note_on_c, 2, 64, 95
3, 292320, Note_on_c, 2, 59, 95
3, 292320, Note_on_c, 2, 55, 95
3, 292320, Note_on_c, 2, 55, 95
3, 292320, Note_on_c, 2, 50, 95
3, 292320, Note_on_c, 2, 43, 95
3, 293040, Note_off_c, 2, 64, 95
3, 293040, Note_off_c, 2, 59, 95
3, 293040, Note_off_c, 2, 55, 95
3, 293040, Note_off_c, 2, 55, 95
3, 293040, Note_off_c, 2, 50, 95
3, 293040, Note_off_c, 2, 43, 95
3, 293040, Note_on_c, 2, 55, 95
3, 293040, Note_on_c, 2, 55, 95
3, 293040, Note_on_c, 2, 50, 95
3, 293040, Note_on_c, 2, 43, 95
3, 293280, Note_off_c, 2, 55, 95
3, 293280, Note_off_c, 2, 55, 95
3, 293280, Note_off_c, 2, 50, 95
3, 293280, Note_off_c, 2, 43, 95
3, 293280, Note_on_c, 2, 55, 95
3, 293280, Note_on_c, 2, 55, 95
3, 293280, Note_on_c, 2, 50, 95
3, 293280, Note_on_c, 2, 43, 95
3, 293520, Note_off_c, 2, 55, 95
3, 293520, Note_off_c, 2, 55, 95
3, 293520, Note_off_c, 2, 50, 95
3, 293520, Note_off_c, 2, 43, 95
3, 293520, Note_on_c, 2, 55, 95
3, 293520, Note_on_c, 2, 55, 95
3, 293520, Note_on_c, 2, 50, 95
3, 293520, Note_on_c, 2, 43, 95
3, 293760, Note_off_c, 2, 55, 95
3, 293760, Note_off_c, 2, 55, 95
3, 293760, Note_off_c, 2, 50, 95
3, 293760, Note_off_c, 2, 43, 95
3, 293760, Note_on_c, 2, 55, 95
3, 293760, Note_on_c, 2, 54, 95
3, 293760, Note_on_c, 2, 49, 95
3, 293760, Note_on_c, 2, 42, 95
3, 294240, Note_off_c, 2, 55, 95
3, 294240, Note_off_c, 2, 54, 95
3, 294240, Note_off_c, 2, 49, 95
3, 294240, Note_off_c, 2, 42, 95
3, 294240, Note_on_c, 2, 55, 95
3, 294240, Note_on_c, 2, 54, 95
3, 294240, Note_on_c, 2, 49, 95
3, 294240, Note_on_c, 2, 42, 95
3, 294480, Note_off_c, 2, 55, 95
3, 294480, Note_off_c, 2, 54, 95
3, 294480, Note_off_c, 2, 49, 95
3, 294480, Note_off_c, 2, 42, 95
3, 294480, Note_on_c, 2, 55, 95
3, 294480, Note_on_c, 2, 54, 95
3, 294480, Note_on_c, 2, 49, 95
3, 294480, Note_on_c, 2, 42, 95
3, 294960, Note_off_c, 2, 55, 95
3, 294960, Note_off_c, 2, 54, 95
3, 294960, Note_off_c, 2, 49, 95
3, 294960, Note_off_c, 2, 42, 95
3, 294960, Note_on_c, 2, 55, 95
3, 294960, Note_on_c, 2, 54, 95
3, 294960, Note_on_c, 2, 49, 95
3, 294960, Note_on_c, 2, 42, 95
3, 295200, Note_off_c, 2, 55, 95
3, 295200, Note_off_c, 2, 54, 95
3, 295200, Note_off_c, 2, 49, 95
3, 295200, Note_off_c, 2, 42, 95
3, 295200, Note_on_c, 2, 64, 95
3, 295200, Note_on_c, 2, 59, 95
3, 295200, Note_on_c, 2, 55, 95
3, 295200, Note_on_c, 2, 54, 95
3, 295200, Note_on_c, 2, 49, 95
3, 295200, Note_on_c, 2, 42, 95
3, 295920, Note_off_c, 2, 64, 95
3, 295920, Note_off_c, 2, 59, 95
3, 295920, Note_off_c, 2, 55, 95
3, 295920, Note_off_c, 2, 54, 95
3, 295920, Note_off_c, 2, 49, 95
3, 295920, Note_off_c, 2, 42, 95
3, 295920, Note_on_c, 2, 55, 95
3, 295920, Note_on_c, 2, 54, 95
3, 295920, Note_on_c, 2, 49, 95
3, 295920, Note_on_c, 2, 42, 95
3, 296160, Note_off_c, 2, 55, 95
3, 296160, Note_off_c, 2, 54, 95
3, 296160, Note_off_c, 2, 49, 95
3, 296160, Note_off_c, 2, 42, 95
3, 296160, Note_on_c, 2, 55, 95
3, 296160, Note_on_c, 2, 54, 95
3, 296160, Note_on_c, 2, 49, 95
3, 296160, Note_on_c, 2, 42, 95
3, 296400, Note_off_c, 2, 55, 95
3, 296400, Note_off_c, 2, 54, 95
3, 296400, Note_off_c, 2, 49, 95
3, 296400, Note_off_c, 2, 42, 95
3, 296400, Note_on_c, 2, 55, 95
3, 296400, Note_on_c, 2, 54, 95
3, 296400, Note_on_c, 2, 49, 95
3, 296400, Note_on_c, 2, 42, 95
3, 296640, Note_off_c, 2, 55, 95
3, 296640, Note_off_c, 2, 54, 95
3, 296640, Note_off_c, 2, 49, 95
3, 296640, Note_off_c, 2, 42, 95
3, 296640, Note_on_c, 2, 55, 95
3, 296640, Note_on_c, 2, 53, 95
3, 296640, Note_on_c, 2, 48, 95
3, 296640, Note_on_c, 2, 41, 95
3, 297120, Note_off_c, 2, 55, 95
3, 297120, Note_off_c, 2, 53, 95
3, 297120, Note_off_c, 2, 48, 95
3, 297120, Note_off_c, 2, 41, 95
3, 297120, Note_on_c, 2, 55, 95
3, 297120, Note_on_c, 2, 53, 95
3, 297120, Note_on_c, 2, 48, 95
3, 297120, Note_on_c, 2, 41, 95
3, 297360, Note_off_c, 2, 55, 95
3, 297360, Note_off_c, 2, 53, 95
3, 297360, Note_off_c, 2, 48, 95
3, 297360, Note_off_c, 2, 41, 95
3, 297360, Note_on_c, 2, 55, 95
3, 297360, Note_on_c, 2, 53, 95
3, 297360, Note_on_c, 2, 48, 95
3, 297360, Note_on_c, 2, 41, 95
3, 297600, Note_off_c, 2, 55, 95
3, 297600, Note_off_c, 2, 53, 95
3, 297600, Note_off_c, 2, 48, 95
3, 297600, Note_off_c, 2, 41, 95
3, 297600, Note_on_c, 2, 55, 95
3, 297600, Note_on_c, 2, 53, 95
3, 297600, Note_on_c, 2, 48, 95
3, 297600, Note_on_c, 2, 41, 95
3, 297840, Note_off_c, 2, 55, 95
3, 297840, Note_off_c, 2, 53, 95
3, 297840, Note_off_c, 2, 48, 95
3, 297840, Note_off_c, 2, 41, 95
3, 297840, Note_on_c, 2, 55, 95
3, 297840, Note_on_c, 2, 53, 95
3, 297840, Note_on_c, 2, 48, 95
3, 297840, Note_on_c, 2, 41, 95
3, 298080, Note_off_c, 2, 55, 95
3, 298080, Note_off_c, 2, 53, 95
3, 298080, Note_off_c, 2, 48, 95
3, 298080, Note_off_c, 2, 41, 95
3, 298080, Note_on_c, 2, 55, 95
3, 298080, Note_on_c, 2, 52, 95
3, 298080, Note_on_c, 2, 47, 95
3, 298080, Note_on_c, 2, 40, 95
3, 298560, Note_off_c, 2, 55, 95
3, 298560, Note_off_c, 2, 52, 95
3, 298560, Note_off_c, 2, 47, 95
3, 298560, Note_off_c, 2, 40, 95
3, 298560, Note_on_c, 2, 55, 95
3, 298560, Note_on_c, 2, 52, 95
3, 298560, Note_on_c, 2, 47, 95
3, 298560, Note_on_c, 2, 40, 95
3, 298800, Note_off_c, 2, 55, 95
3, 298800, Note_off_c, 2, 52, 95
3, 298800, Note_off_c, 2, 47, 95
3, 298800, Note_off_c, 2, 40, 95
3, 298800, Note_on_c, 2, 55, 95
3, 298800, Note_on_c, 2, 52, 95
3, 298800, Note_on_c, 2, 47, 95
3, 298800, Note_on_c, 2, 40, 95
3, 299040, Note_off_c, 2, 55, 95
3, 299040, Note_off_c, 2, 52, 95
3, 299040, Note_off_c, 2, 47, 95
3, 299040, Note_off_c, 2, 40, 95
3, 299040, Note_on_c, 2, 55, 95
3, 299040, Note_on_c, 2, 52, 95
3, 299040, Note_on_c, 2, 47, 95
3, 299040, Note_on_c, 2, 40, 95
3, 299280, Note_off_c, 2, 55, 95
3, 299280, Note_off_c, 2, 52, 95
3, 299280, Note_off_c, 2, 47, 95
3, 299280, Note_off_c, 2, 40, 95
3, 299280, Note_on_c, 2, 55, 95
3, 299280, Note_on_c, 2, 52, 95
3, 299280, Note_on_c, 2, 47, 95
3, 299280, Note_on_c, 2, 40, 95
3, 299520, Note_off_c, 2, 55, 95
3, 299520, Note_off_c, 2, 52, 95
3, 299520, Note_off_c, 2, 47, 95
3, 299520, Note_off_c, 2, 40, 95
3, 299520, Note_on_c, 2, 55, 95
3, 299520, Note_on_c, 2, 52, 95
3, 299520, Note_on_c, 2, 47, 95
3, 299520, Note_on_c, 2, 40, 95
3, 300000, Note_off_c, 2, 55, 95
3, 300000, Note_off_c, 2, 52, 95
3, 300000, Note_off_c, 2, 47, 95
3, 300000, Note_off_c, 2, 40, 95
3, 300000, Note_on_c, 2, 55, 95
3, 300000, Note_on_c, 2, 52, 95
3, 300000, Note_on_c, 2, 47, 95
3, 300000, Note_on_c, 2, 40, 95
3, 300240, Note_off_c, 2, 55, 95
3, 300240, Note_off_c, 2, 52, 95
3, 300240, Note_off_c, 2, 47, 95
3, 300240, Note_off_c, 2, 40, 95
3, 300240, Note_on_c, 2, 55, 95
3, 300240, Note_on_c, 2, 52, 95
3, 300240, Note_on_c, 2, 47, 95
3, 300240, Note_on_c, 2, 40, 95
3, 300480, Note_off_c, 2, 55, 95
3, 300480, Note_off_c, 2, 52, 95
3, 300480, Note_off_c, 2, 47, 95
3, 300480, Note_off_c, 2, 40, 95
3, 300480, Note_on_c, 2, 55, 95
3, 300480, Note_on_c, 2, 52, 95
3, 300480, Note_on_c, 2, 47, 95
3, 300480, Note_on_c, 2, 40, 95
3, 300720, Note_off_c, 2, 55, 95
3, 300720, Note_off_c, 2, 52, 95
3, 300720, Note_off_c, 2, 47, 95
3, 300720, Note_off_c, 2, 40, 95
3, 300720, Note_on_c, 2, 55, 95
3, 300720, Note_on_c, 2, 52, 95
3, 300720, Note_on_c, 2, 47, 95
3, 300720, Note_on_c, 2, 40, 95
3, 300960, Note_off_c, 2, 55, 95
3, 300960, Note_off_c, 2, 52, 95
3, 300960, Note_off_c, 2, 47, 95
3, 300960, Note_off_c, 2, 40, 95
3, 300960, Note_on_c, 2, 64, 95
3, 300960, Note_on_c, 2, 59, 95
3, 300960, Note_on_c, 2, 55, 95
3, 300960, Note_on_c, 2, 52, 95
3, 300960, Note_on_c, 2, 47, 95
3, 300960, Note_on_c, 2, 40, 95
3, 301440, Note_off_c, 2, 64, 95
3, 301440, Note_off_c, 2, 59, 95
3, 301440, Note_off_c, 2, 55, 95
3, 301440, Note_off_c, 2, 52, 95
3, 301440, Note_off_c, 2, 47, 95
3, 301440, Note_off_c, 2, 40, 95
3, 301440, Note_on_c, 2, 55, 95
3, 301440, Note_on_c, 2, 52, 95
3, 301440, Note_on_c, 2, 47, 95
3, 301440, Note_on_c, 2, 40, 95
3, 301680, Note_off_c, 2, 55, 95
3, 301680, Note_off_c, 2, 52, 95
3, 301680, Note_off_c, 2, 47, 95
3, 301680, Note_off_c, 2, 40, 95
3, 301680, Note_on_c, 2, 55, 95
3, 301680, Note_on_c, 2, 52, 95
3, 301680, Note_on_c, 2, 47, 95
3, 301680, Note_on_c, 2, 40, 95
3, 301920, Note_off_c, 2, 55, 95
3, 301920, Note_off_c, 2, 52, 95
3, 301920, Note_off_c, 2, 47, 95
3, 301920, Note_off_c, 2, 40, 95
3, 301920, Note_on_c, 2, 55, 95
3, 301920, Note_on_c, 2, 52, 95
3, 301920, Note_on_c, 2, 47, 95
3, 301920, Note_on_c, 2, 40, 95
3, 302160, Note_off_c, 2, 55, 95
3, 302160, Note_off_c, 2, 52, 95
3, 302160, Note_off_c, 2, 47, 95
3, 302160, Note_off_c, 2, 40, 95
3, 302160, Note_on_c, 2, 55, 95
3, 302160, Note_on_c, 2, 52, 95
3, 302160, Note_on_c, 2, 47, 95
3, 302160, Note_on_c, 2, 40, 95
3, 302400, Note_off_c, 2, 55, 95
3, 302400, Note_off_c, 2, 52, 95
3, 302400, Note_off_c, 2, 47, 95
3, 302400, Note_off_c, 2, 40, 95
3, 302400, Note_on_c, 2, 55, 95
3, 302400, Note_on_c, 2, 52, 95
3, 302400, Note_on_c, 2, 47, 95
3, 302400, Note_on_c, 2, 40, 95
3, 302880, Note_off_c, 2, 55, 95
3, 302880, Note_off_c, 2, 52, 95
3, 302880, Note_off_c, 2, 47, 95
3, 302880, Note_off_c, 2, 40, 95
3, 302880, Note_on_c, 2, 55, 95
3, 302880, Note_on_c, 2, 52, 95
3, 302880, Note_on_c, 2, 47, 95
3, 302880, Note_on_c, 2, 40, 95
3, 303120, Note_off_c, 2, 55, 95
3, 303120, Note_off_c, 2, 52, 95
3, 303120, Note_off_c, 2, 47, 95
3, 303120, Note_off_c, 2, 40, 95
3, 303120, Note_on_c, 2, 55, 95
3, 303120, Note_on_c, 2, 55, 95
3, 303120, Note_on_c, 2, 50, 95
3, 303120, Note_on_c, 2, 43, 95
3, 303600, Note_off_c, 2, 55, 95
3, 303600, Note_off_c, 2, 55, 95
3, 303600, Note_off_c, 2, 50, 95
3, 303600, Note_off_c, 2, 43, 95
3, 303600, Note_on_c, 2, 55, 95
3, 303600, Note_on_c, 2, 55, 95
3, 303600, Note_on_c, 2, 50, 95
3, 303600, Note_on_c, 2, 43, 95
3, 303840, Note_off_c, 2, 55, 95
3, 303840, Note_off_c, 2, 55, 95
3, 303840, Note_off_c, 2, 50, 95
3, 303840, Note_off_c, 2, 43, 95
3, 303840, Note_on_c, 2, 55, 95
3, 303840, Note_on_c, 2, 57, 95
3, 303840, Note_on_c, 2, 52, 95
3, 303840, Note_on_c, 2, 45, 95
3, 304320, Note_off_c, 2, 55, 95
3, 304320, Note_off_c, 2, 57, 95
3, 304320, Note_off_c, 2, 52, 95
3, 304320, Note_off_c, 2, 45, 95
3, 304320, Note_on_c, 2, 55, 95
3, 304320, Note_on_c, 2, 57, 95
3, 304320, Note_on_c, 2, 52, 95
3, 304320, Note_on_c, 2, 45, 95
3, 304560, Note_off_c, 2, 55, 95
3, 304560, Note_off_c, 2, 57, 95
3, 304560, Note_off_c, 2, 52, 95
3, 304560, Note_off_c, 2, 45, 95
3, 304560, Note_on_c, 2, 55, 95
3, 304560, Note_on_c, 2, 59, 95
3, 304560, Note_on_c, 2, 54, 95
3, 304560, Note_on_c, 2, 47, 95
3, 305280, Note_off_c, 2, 55, 95
3, 305280, Note_off_c, 2, 59, 95
3, 305280, Note_off_c, 2, 54, 95
3, 305280, Note_off_c, 2, 47, 95
3, 305280, Note_on_c, 2, 59, 95
3, 305280, Note_on_c, 2, 55, 95
3, 305280, Note_on_c, 2, 52, 95
3, 305280, Note_on_c, 2, 47, 95
3, 305280, Note_on_c, 2, 40, 95
3, 305760, Note_off_c, 2, 59, 95
3, 305760, Note_off_c, 2, 55, 95
3, 305760, Note_off_c, 2, 52, 95
3, 305760, Note_off_c, 2, 47, 95
3, 305760, Note_off_c, 2, 40, 95
3, 305760, Note_on_c, 2, 59, 95
3, 305760, Note_on_c, 2, 55, 95
3, 305760, Note_on_c, 2, 52, 95
3, 306000, Note_off_c, 2, 59, 95
3, 306000, Note_off_c, 2, 55, 95
3, 306000, Note_off_c, 2, 52, 95
3, 306000, Note_on_c, 2, 59, 95
3, 306000, Note_on_c, 2, 55, 95
3, 306000, Note_on_c, 2, 52, 95
3, 306240, Note_off_c, 2, 59, 95
3, 306240, Note_off_c, 2, 55, 95
3, 306240, Note_off_c, 2, 52, 95
3, 306240, Note_on_c, 2, 59, 95
3, 306240, Note_on_c, 2, 55, 95
3, 306240, Note_on_c, 2, 52, 95
3, 306480, Note_off_c, 2, 59, 95
3, 306480, Note_off_c, 2, 55, 95
3, 306480, Note_off_c, 2, 52, 95
3, 306480, Note_on_c, 2, 59, 95
3, 306480, Note_on_c, 2, 55, 95
3, 306480, Note_on_c, 2, 52, 95
3, 306720, Note_off_c, 2, 59, 95
3, 306720, Note_off_c, 2, 55, 95
3, 306720, Note_off_c, 2, 52, 95
3, 306720, Note_on_c, 2, 63, 95
3, 306720, Note_on_c, 2, 57, 95
3, 306720, Note_on_c, 2, 54, 95
3, 306720, Note_on_c, 2, 42, 95
3, 307200, Note_off_c, 2, 63, 95
3, 307200, Note_off_c, 2, 57, 95
3, 307200, Note_off_c, 2, 54, 95
3, 307200, Note_off_c, 2, 42, 95
3, 307200, Note_on_c, 2, 63, 95
3, 307200, Note_on_c, 2, 57, 95
3, 307200, Note_on_c, 2, 54, 95
3, 307440, Note_off_c, 2, 63, 95
3, 307440, Note_off_c, 2, 57, 95
3, 307440, Note_off_c, 2, 54, 95
3, 307440, Note_on_c, 2, 63, 95
3, 307440, Note_on_c, 2, 57, 95
3, 307440, Note_on_c, 2, 54, 95
3, 307680, Note_off_c, 2, 63, 95
3, 307680, Note_off_c, 2, 57, 95
3, 307680, Note_off_c, 2, 54, 95
3, 307680, Note_on_c, 2, 63, 95
3, 307680, Note_on_c, 2, 57, 95
3, 307680, Note_on_c, 2, 54, 95
3, 307920, Note_off_c, 2, 63, 95
3, 307920, Note_off_c, 2, 57, 95
3, 307920, Note_off_c, 2, 54, 95
3, 307920, Note_on_c, 2, 63, 95
3, 307920, Note_on_c, 2, 57, 95
3, 307920, Note_on_c, 2, 54, 95
3, 308160, Note_off_c, 2, 63, 95
3, 308160, Note_off_c, 2, 57, 95
3, 308160, Note_off_c, 2, 54, 95
3, 308160, Note_on_c, 2, 64, 95
3, 308160, Note_on_c, 2, 59, 95
3, 308160, Note_on_c, 2, 55, 95
3, 308160, Note_on_c, 2, 43, 95
3, 308640, Note_off_c, 2, 64, 95
3, 308640, Note_off_c, 2, 59, 95
3, 308640, Note_off_c, 2, 55, 95
3, 308640, Note_off_c, 2, 43, 95
3, 308640, Note_on_c, 2, 64, 95
3, 308640, Note_on_c, 2, 59, 95
3, 308640, Note_on_c, 2, 55, 95
3, 308880, Note_off_c, 2, 64, 95
3, 308880, Note_off_c, 2, 59, 95
3, 308880, Note_off_c, 2, 55, 95
3, 308880, Note_on_c, 2, 64, 95
3, 308880, Note_on_c, 2, 59, 95
3, 308880, Note_on_c, 2, 55, 95
3, 309120, Note_off_c, 2, 64, 95
3, 309120, Note_off_c, 2, 59, 95
3, 309120, Note_off_c, 2, 55, 95
3, 309120, Note_on_c, 2, 64, 95
3, 309120, Note_on_c, 2, 59, 95
3, 309120, Note_on_c, 2, 55, 95
3, 309360, Note_off_c, 2, 64, 95
3, 309360, Note_off_c, 2, 59, 95
3, 309360, Note_off_c, 2, 55, 95
3, 309360, Note_on_c, 2, 64, 95
3, 309360, Note_on_c, 2, 59, 95
3, 309360, Note_on_c, 2, 55, 95
3, 309600, Note_off_c, 2, 64, 95
3, 309600, Note_off_c, 2, 59, 95
3, 309600, Note_off_c, 2, 55, 95
3, 309600, Note_on_c, 3, 64, 95
3, 309600, Note_on_c, 3, 59, 95
3, 309600, Note_on_c, 3, 55, 95
3, 309600, Note_on_c, 3, 43, 95
3, 309720, Pitch_bend_c, 3, 8832
3, 309720, Pitch_bend_c, 3, 8832
3, 309720, Pitch_bend_c, 3, 8832
3, 309720, Pitch_bend_c, 3, 8832
3, 309840, Pitch_bend_c, 3, 9600
3, 309840, Pitch_bend_c, 3, 8192
3, 309840, Note_off_c, 3, 64, 95
3, 309840, Pitch_bend_c, 3, 9600
3, 309840, Pitch_bend_c, 3, 8192
3, 309840, Note_off_c, 3, 59, 95
3, 309840, Pitch_bend_c, 3, 9600
3, 309840, Pitch_bend_c, 3, 8192
3, 309840, Note_off_c, 3, 55, 95
3, 309840, Pitch_bend_c, 3, 9600
3, 309840, Pitch_bend_c, 3, 8192
3, 309840, Note_off_c, 3, 43, 95
3, 309840, Note_on_c, 2, 66, 95
3, 309840, Note_on_c, 2, 61, 95
3, 309840, Note_on_c, 2, 57, 95
3, 309840, Note_on_c, 2, 45, 95
3, 310080, Note_off_c, 2, 66, 95
3, 310080, Note_off_c, 2, 61, 95
3, 310080, Note_off_c, 2, 57, 95
3, 310080, Note_off_c, 2, 45, 95
3, 310080, Note_on_c, 2, 66, 95
3, 310080, Note_on_c, 2, 61, 95
3, 310080, Note_on_c, 2, 57, 95
3, 310320, Note_off_c, 2, 66, 95
3, 310320, Note_off_c, 2, 61, 95
3, 310320, Note_off_c, 2, 57, 95
3, 310320, Note_on_c, 2, 66, 95
3, 310320, Note_on_c, 2, 61, 95
3, 310320, Note_on_c, 2, 57, 95
3, 310560, Note_off_c, 2, 66, 95
3, 310560, Note_off_c, 2, 61, 95
3, 310560, Note_off_c, 2, 57, 95
3, 310560, Note_on_c, 2, 66, 95
3, 310560, Note_on_c, 2, 61, 95
3, 310560, Note_on_c, 2, 57, 95
3, 310800, Note_off_c, 2, 66, 95
3, 310800, Note_off_c, 2, 61, 95
3, 310800, Note_off_c, 2, 57, 95
3, 310800, Note_on_c, 2, 66, 95
3, 310800, Note_on_c, 2, 61, 95
3, 310800, Note_on_c, 2, 57, 95
3, 311040, Note_off_c, 2, 66, 95
3, 311040, Note_off_c, 2, 61, 95
3, 311040, Note_off_c, 2, 57, 95
3, 311040, Note_on_c, 2, 66, 95
3, 311040, Note_on_c, 2, 62, 95
3, 311040, Note_on_c, 2, 57, 95
3, 311040, Note_on_c, 2, 47, 95
3, 311280, Note_off_c, 2, 66, 95
3, 311280, Note_off_c, 2, 62, 95
3, 311280, Note_off_c, 2, 57, 95
3, 311280, Note_off_c, 2, 47, 95
3, 311280, Note_on_c, 2, 59, 70
3, 311520, Note_off_c, 2, 59, 70
3, 311520, Note_on_c, 2, 47, 95
3, 311760, Note_off_c, 2, 47, 95
3, 311760, Note_on_c, 2, 64, 95
3, 311760, Note_on_c, 2, 59, 95
3, 311760, Note_on_c, 2, 62, 95
3, 311760, Note_on_c, 2, 59, 95
3, 312240, Note_off_c, 2, 64, 95
3, 312240, Note_off_c, 2, 59, 95
3, 312240, Note_off_c, 2, 62, 95
3, 312240, Note_off_c, 2, 59, 95
3, 312240, Note_on_c, 2, 64, 95
3, 312240, Note_on_c, 2, 59, 95
3, 312240, Note_on_c, 2, 62, 95
3, 312240, Note_on_c, 2, 59, 95
3, 312480, Note_off_c, 2, 64, 95
3, 312480, Note_off_c, 2, 59, 95
3, 312480, Note_off_c, 2, 62, 95
3, 312480, Note_off_c, 2, 59, 95
3, 312480, Note_on_c, 2, 64, 95
3, 312480, Note_on_c, 2, 59, 95
3, 312480, Note_on_c, 2, 62, 95
3, 312480, Note_on_c, 2, 59, 95
3, 312480, Note_on_c, 2, 47, 95
3, 312960, Note_off_c, 2, 64, 95
3, 312960, Note_off_c, 2, 59, 95
3, 312960, Note_off_c, 2, 62, 95
3, 312960, Note_off_c, 2, 59, 95
3, 312960, Note_off_c, 2, 47, 95
3, 312960, Note_on_c, 2, 64, 95
3, 312960, Note_on_c, 2, 59, 95
3, 312960, Note_on_c, 2, 62, 95
3, 312960, Note_on_c, 2, 59, 95
3, 313200, Note_off_c, 2, 64, 95
3, 313200, Note_off_c, 2, 59, 95
3, 313200, Note_off_c, 2, 62, 95
3, 313200, Note_off_c, 2, 59, 95
3, 313200, Note_on_c, 2, 64, 95
3, 313200, Note_on_c, 2, 59, 95
3, 313200, Note_on_c, 2, 62, 95
3, 313200, Note_on_c, 2, 59, 95
3, 313440, Note_off_c, 2, 64, 95
3, 313440, Note_off_c, 2, 59, 95
3, 313440, Note_off_c, 2, 62, 95
3, 313440, Note_off_c, 2, 59, 95
3, 313440, Note_on_c, 2, 64, 95
3, 313440, Note_on_c, 2, 59, 95
3, 313440, Note_on_c, 2, 62, 95
3, 313440, Note_on_c, 2, 59, 95
3, 313680, Note_off_c, 2, 64, 95
3, 313680, Note_off_c, 2, 59, 95
3, 313680, Note_off_c, 2, 62, 95
3, 313680, Note_off_c, 2, 59, 95
3, 313680, Note_on_c, 2, 64, 95
3, 313680, Note_on_c, 2, 59, 95
3, 313680, Note_on_c, 2, 62, 95
3, 313680, Note_on_c, 2, 59, 95
3, 313920, Note_off_c, 2, 64, 95
3, 313920, Note_off_c, 2, 59, 95
3, 313920, Note_off_c, 2, 62, 95
3, 313920, Note_off_c, 2, 59, 95
3, 313920, Note_on_c, 2, 64, 95
3, 313920, Note_on_c, 2, 59, 95
3, 313920, Note_on_c, 2, 61, 95
3, 313920, Note_on_c, 2, 57, 95
3, 313920, Note_on_c, 2, 45, 95
3, 314400, Note_off_c, 2, 64, 95
3, 314400, Note_off_c, 2, 59, 95
3, 314400, Note_off_c, 2, 61, 95
3, 314400, Note_off_c, 2, 57, 95
3, 314400, Note_off_c, 2, 45, 95
3, 314400, Note_on_c, 2, 64, 95
3, 314400, Note_on_c, 2, 59, 95
3, 314400, Note_on_c, 2, 61, 95
3, 314400, Note_on_c, 2, 57, 95
3, 314640, Note_off_c, 2, 64, 95
3, 314640, Note_off_c, 2, 59, 95
3, 314640, Note_off_c, 2, 61, 95
3, 314640, Note_off_c, 2, 57, 95
3, 314640, Note_on_c, 2, 64, 95
3, 314640, Note_on_c, 2, 59, 95
3, 314640, Note_on_c, 2, 61, 95
3, 314640, Note_on_c, 2, 57, 95
3, 314880, Note_off_c, 2, 64, 95
3, 314880, Note_off_c, 2, 59, 95
3, 314880, Note_off_c, 2, 61, 95
3, 314880, Note_off_c, 2, 57, 95
3, 314880, Note_on_c, 2, 64, 95
3, 314880, Note_on_c, 2, 59, 95
3, 314880, Note_on_c, 2, 61, 95
3, 314880, Note_on_c, 2, 57, 95
3, 315120, Note_off_c, 2, 64, 95
3, 315120, Note_off_c, 2, 59, 95
3, 315120, Note_off_c, 2, 61, 95
3, 315120, Note_off_c, 2, 57, 95
3, 315120, Note_on_c, 2, 62, 95
3, 315120, Note_on_c, 2, 57, 95
3, 315360, Note_off_c, 2, 62, 95
3, 315360, Note_off_c, 2, 57, 95
3, 315360, Note_on_c, 2, 64, 95
3, 315360, Note_on_c, 2, 59, 95
3, 315360, Note_on_c, 2, 61, 95
3, 315360, Note_on_c, 2, 57, 95
3, 315360, Note_on_c, 2, 45, 95
3, 315840, Note_off_c, 2, 64, 95
3, 315840, Note_off_c, 2, 59, 95
3, 315840, Note_off_c, 2, 61, 95
3, 315840, Note_off_c, 2, 57, 95
3, 315840, Note_off_c, 2, 45, 95
3, 315840, Note_on_c, 2, 64, 95
3, 315840, Note_on_c, 2, 59, 95
3, 315840, Note_on_c, 2, 61, 95
3, 315840, Note_on_c, 2, 57, 95
3, 316080, Note_off_c, 2, 64, 95
3, 316080, Note_off_c, 2, 59, 95
3, 316080, Note_off_c, 2, 61, 95
3, 316080, Note_off_c, 2, 57, 95
3, 316080, Note_on_c, 2, 64, 95
3, 316080, Note_on_c, 2, 59, 95
3, 316080, Note_on_c, 2, 61, 95
3, 316080, Note_on_c, 2, 57, 95
3, 316320, Note_off_c, 2, 64, 95
3, 316320, Note_off_c, 2, 59, 95
3, 316320, Note_off_c, 2, 61, 95
3, 316320, Note_off_c, 2, 57, 95
3, 316320, Note_on_c, 2, 64, 95
3, 316320, Note_on_c, 2, 59, 95
3, 316320, Note_on_c, 2, 61, 95
3, 316320, Note_on_c, 2, 57, 95
3, 316560, Note_off_c, 2, 64, 95
3, 316560, Note_off_c, 2, 59, 95
3, 316560, Note_off_c, 2, 61, 95
3, 316560, Note_off_c, 2, 57, 95
3, 316560, Note_on_c, 2, 59, 95
3, 316560, Note_on_c, 2, 55, 95
3, 316560, Note_on_c, 2, 50, 95
3, 316800, Note_off_c, 2, 59, 95
3, 316800, Note_off_c, 2, 55, 95
3, 316800, Note_off_c, 2, 50, 95
3, 316800, Note_on_c, 2, 59, 95
3, 316800, Note_on_c, 2, 55, 95
3, 316800, Note_on_c, 2, 52, 95
3, 316800, Note_on_c, 2, 47, 95
3, 316800, Note_on_c, 2, 40, 95
3, 317280, Note_off_c, 2, 59, 95
3, 317280, Note_off_c, 2, 55, 95
3, 317280, Note_off_c, 2, 52, 95
3, 317280, Note_off_c, 2, 47, 95
3, 317280, Note_off_c, 2, 40, 95
3, 317280, Note_on_c, 2, 59, 95
3, 317280, Note_on_c, 2, 55, 95
3, 317280, Note_on_c, 2, 52, 95
3, 317520, Note_off_c, 2, 59, 95
3, 317520, Note_off_c, 2, 55, 95
3, 317520, Note_off_c, 2, 52, 95
3, 317520, Note_on_c, 2, 59, 95
3, 317520, Note_on_c, 2, 55, 95
3, 317520, Note_on_c, 2, 52, 95
3, 317760, Note_off_c, 2, 59, 95
3, 317760, Note_off_c, 2, 55, 95
3, 317760, Note_off_c, 2, 52, 95
3, 317760, Note_on_c, 2, 59, 95
3, 317760, Note_on_c, 2, 55, 95
3, 317760, Note_on_c, 2, 52, 95
3, 318000, Note_off_c, 2, 59, 95
3, 318000, Note_off_c, 2, 55, 95
3, 318000, Note_off_c, 2, 52, 95
3, 318000, Note_on_c, 2, 59, 95
3, 318000, Note_on_c, 2, 55, 95
3, 318000, Note_on_c, 2, 52, 95
3, 318240, Note_off_c, 2, 59, 95
3, 318240, Note_off_c, 2, 55, 95
3, 318240, Note_off_c, 2, 52, 95
3, 318240, Note_on_c, 2, 63, 95
3, 318240, Note_on_c, 2, 57, 95
3, 318240, Note_on_c, 2, 54, 95
3, 318240, Note_on_c, 2, 42, 95
3, 318720, Note_off_c, 2, 63, 95
3, 318720, Note_off_c, 2, 57, 95
3, 318720, Note_off_c, 2, 54, 95
3, 318720, Note_off_c, 2, 42, 95
3, 318720, Note_on_c, 2, 63, 95
3, 318720, Note_on_c, 2, 57, 95
3, 318720, Note_on_c, 2, 54, 95
3, 318960, Note_off_c, 2, 63, 95
3, 318960, Note_off_c, 2, 57, 95
3, 318960, Note_off_c, 2, 54, 95
3, 318960, Note_on_c, 2, 63, 95
3, 318960, Note_on_c, 2, 57, 95
3, 318960, Note_on_c, 2, 54, 95
3, 319200, Note_off_c, 2, 63, 95
3, 319200, Note_off_c, 2, 57, 95
3, 319200, Note_off_c, 2, 54, 95
3, 319200, Note_on_c, 2, 63, 95
3, 319200, Note_on_c, 2, 57, 95
3, 319200, Note_on_c, 2, 54, 95
3, 319440, Note_off_c, 2, 63, 95
3, 319440, Note_off_c, 2, 57, 95
3, 319440, Note_off_c, 2, 54, 95
3, 319440, Note_on_c, 2, 63, 95
3, 319440, Note_on_c, 2, 57, 95
3, 319440, Note_on_c, 2, 54, 95
3, 319680, Note_off_c, 2, 63, 95
3, 319680, Note_off_c, 2, 57, 95
3, 319680, Note_off_c, 2, 54, 95
3, 319680, Note_on_c, 2, 64, 95
3, 319680, Note_on_c, 2, 59, 95
3, 319680, Note_on_c, 2, 55, 95
3, 319680, Note_on_c, 2, 43, 95
3, 320160, Note_off_c, 2, 64, 95
3, 320160, Note_off_c, 2, 59, 95
3, 320160, Note_off_c, 2, 55, 95
3, 320160, Note_off_c, 2, 43, 95
3, 320160, Note_on_c, 2, 64, 95
3, 320160, Note_on_c, 2, 59, 95
3, 320160, Note_on_c, 2, 55, 95
3, 320400, Note_off_c, 2, 64, 95
3, 320400, Note_off_c, 2, 59, 95
3, 320400, Note_off_c, 2, 55, 95
3, 320400, Note_on_c, 2, 64, 95
3, 320400, Note_on_c, 2, 59, 95
3, 320400, Note_on_c, 2, 55, 95
3, 320640, Note_off_c, 2, 64, 95
3, 320640, Note_off_c, 2, 59, 95
3, 320640, Note_off_c, 2, 55, 95
3, 320640, Note_on_c, 2, 64, 95
3, 320640, Note_on_c, 2, 59, 95
3, 320640, Note_on_c, 2, 55, 95
3, 320880, Note_off_c, 2, 64, 95
3, 320880, Note_off_c, 2, 59, 95
3, 320880, Note_off_c, 2, 55, 95
3, 320880, Note_on_c, 2, 64, 95
3, 320880, Note_on_c, 2, 59, 95
3, 320880, Note_on_c, 2, 55, 95
3, 321120, Note_off_c, 2, 64, 95
3, 321120, Note_off_c, 2, 59, 95
3, 321120, Note_off_c, 2, 55, 95
3, 321120, Note_on_c, 3, 64, 95
3, 321120, Note_on_c, 3, 59, 95
3, 321120, Note_on_c, 3, 55, 95
3, 321120, Note_on_c, 3, 43, 95
3, 321240, Pitch_bend_c, 3, 8832
3, 321240, Pitch_bend_c, 3, 8832
3, 321240, Pitch_bend_c, 3, 8832
3, 321240, Pitch_bend_c, 3, 8832
3, 321360, Pitch_bend_c, 3, 9600
3, 321360, Pitch_bend_c, 3, 8192
3, 321360, Note_off_c, 3, 64, 95
3, 321360, Pitch_bend_c, 3, 9600
3, 321360, Pitch_bend_c, 3, 8192
3, 321360, Note_off_c, 3, 59, 95
3, 321360, Pitch_bend_c, 3, 9600
3, 321360, Pitch_bend_c, 3, 8192
3, 321360, Note_off_c, 3, 55, 95
3, 321360, Pitch_bend_c, 3, 9600
3, 321360, Pitch_bend_c, 3, 8192
3, 321360, Note_off_c, 3, 43, 95
3, 321360, Note_on_c, 2, 66, 95
3, 321360, Note_on_c, 2, 61, 95
3, 321360, Note_on_c, 2, 57, 95
3, 321360, Note_on_c, 2, 45, 95
3, 321600, Note_off_c, 2, 66, 95
3, 321600, Note_off_c, 2, 61, 95
3, 321600, Note_off_c, 2, 57, 95
3, 321600, Note_off_c, 2, 45, 95
3, 321600, Note_on_c, 2, 66, 95
3, 321600, Note_on_c, 2, 61, 95
3, 321600, Note_on_c, 2, 57, 95
3, 321840, Note_off_c, 2, 66, 95
3, 321840, Note_off_c, 2, 61, 95
3, 321840, Note_off_c, 2, 57, 95
3, 321840, Note_on_c, 2, 66, 95
3, 321840, Note_on_c, 2, 61, 95
3, 321840, Note_on_c, 2, 57, 95
3, 322080, Note_off_c, 2, 66, 95
3, 322080, Note_off_c, 2, 61, 95
3, 322080, Note_off_c, 2, 57, 95
3, 322080, Note_on_c, 2, 66, 95
3, 322080, Note_on_c, 2, 61, 95
3, 322080, Note_on_c, 2, 57, 95
3, 322320, Note_off_c, 2, 66, 95
3, 322320, Note_off_c, 2, 61, 95
3, 322320, Note_off_c, 2, 57, 95
3, 322320, Note_on_c, 2, 66, 95
3, 322320, Note_on_c, 2, 61, 95
3, 322320, Note_on_c, 2, 57, 95
3, 322560, Note_off_c, 2, 66, 95
3, 322560, Note_off_c, 2, 61, 95
3, 322560, Note_off_c, 2, 57, 95
3, 322560, Note_on_c, 2, 66, 95
3, 322560, Note_on_c, 2, 62, 95
3, 322560, Note_on_c, 2, 57, 95
3, 322560, Note_on_c, 2, 47, 95
3, 322800, Note_off_c, 2, 66, 95
3, 322800, Note_off_c, 2, 62, 95
3, 322800, Note_off_c, 2, 57, 95
3, 322800, Note_off_c, 2, 47, 95
3, 322800, Note_on_c, 2, 59, 70
3, 323040, Note_off_c, 2, 59, 70
3, 323040, Note_on_c, 2, 47, 95
3, 323280, Note_off_c, 2, 47, 95
3, 323280, Note_on_c, 2, 64, 95
3, 323280, Note_on_c, 2, 59, 95
3, 323280, Note_on_c, 2, 62, 95
3, 323280, Note_on_c, 2, 59, 95
3, 323760, Note_off_c, 2, 64, 95
3, 323760, Note_off_c, 2, 59, 95
3, 323760, Note_off_c, 2, 62, 95
3, 323760, Note_off_c, 2, 59, 95
3, 323760, Note_on_c, 2, 64, 95
3, 323760, Note_on_c, 2, 59, 95
3, 323760, Note_on_c, 2, 62, 95
3, 323760, Note_on_c, 2, 59, 95
3, 324000, Note_off_c, 2, 64, 95
3, 324000, Note_off_c, 2, 59, 95
3, 324000, Note_off_c, 2, 62, 95
3, 324000, Note_off_c, 2, 59, 95
3, 324000, Note_on_c, 2, 64, 95
3, 324000, Note_on_c, 2, 59, 95
3, 324000, Note_on_c, 2, 62, 95
3, 324000, Note_on_c, 2, 59, 95
3, 324000, Note_on_c, 2, 47, 95
3, 324480, Note_off_c, 2, 64, 95
3, 324480, Note_off_c, 2, 59, 95
3, 324480, Note_off_c, 2, 62, 95
3, 324480, Note_off_c, 2, 59, 95
3, 324480, Note_off_c, 2, 47, 95
3, 324480, Note_on_c, 2, 64, 95
3, 324480, Note_on_c, 2, 59, 95
3, 324480, Note_on_c, 2, 62, 95
3, 324480, Note_on_c, 2, 59, 95
3, 324720, Note_off_c, 2, 64, 95
3, 324720, Note_off_c, 2, 59, 95
3, 324720, Note_off_c, 2, 62, 95
3, 324720, Note_off_c, 2, 59, 95
3, 324720, Note_on_c, 2, 64, 95
3, 324720, Note_on_c, 2, 59, 95
3, 324720, Note_on_c, 2, 62, 95
3, 324720, Note_on_c, 2, 59, 95
3, 324960, Note_off_c, 2, 64, 95
3, 324960, Note_off_c, 2, 59, 95
3, 324960, Note_off_c, 2, 62, 95
3, 324960, Note_off_c, 2, 59, 95
3, 324960, Note_on_c, 2, 64, 95
3, 324960, Note_on_c, 2, 59, 95
3, 324960, Note_on_c, 2, 62, 95
3, 324960, Note_on_c, 2, 59, 95
3, 325200, Note_off_c, 2, 64, 95
3, 325200, Note_off_c, 2, 59, 95
3, 325200, Note_off_c, 2, 62, 95
3, 325200, Note_off_c, 2, 59, 95
3, 325200, Note_on_c, 2, 64, 95
3, 325200, Note_on_c, 2, 59, 95
3, 325200, Note_on_c, 2, 62, 95
3, 325200, Note_on_c, 2, 59, 95
3, 325440, Note_off_c, 2, 64, 95
3, 325440, Note_off_c, 2, 59, 95
3, 325440, Note_off_c, 2, 62, 95
3, 325440, Note_off_c, 2, 59, 95
3, 325440, Note_on_c, 2, 64, 95
3, 325440, Note_on_c, 2, 59, 95
3, 325440, Note_on_c, 2, 61, 95
3, 325440, Note_on_c, 2, 57, 95
3, 325440, Note_on_c, 2, 45, 95
3, 325920, Note_off_c, 2, 64, 95
3, 325920, Note_off_c, 2, 59, 95
3, 325920, Note_off_c, 2, 61, 95
3, 325920, Note_off_c, 2, 57, 95
3, 325920, Note_off_c, 2, 45, 95
3, 325920, Note_on_c, 2, 64, 95
3, 325920, Note_on_c, 2, 59, 95
3, 325920, Note_on_c, 2, 61, 95
3, 325920, Note_on_c, 2, 57, 95
3, 326160, Note_off_c, 2, 64, 95
3, 326160, Note_off_c, 2, 59, 95
3, 326160, Note_off_c, 2, 61, 95
3, 326160, Note_off_c, 2, 57, 95
3, 326160, Note_on_c, 2, 64, 95
3, 326160, Note_on_c, 2, 59, 95
3, 326160, Note_on_c, 2, 61, 95
3, 326160, Note_on_c, 2, 57, 95
3, 326400, Note_off_c, 2, 64, 95
3, 326400, Note_off_c, 2, 59, 95
3, 326400, Note_off_c, 2, 61, 95
3, 326400, Note_off_c, 2, 57, 95
3, 326400, Note_on_c, 2, 64, 95
3, 326400, Note_on_c, 2, 59, 95
3, 326400, Note_on_c, 2, 61, 95
3, 326400, Note_on_c, 2, 57, 95
3, 326640, Note_off_c, 2, 64, 95
3, 326640, Note_off_c, 2, 59, 95
3, 326640, Note_off_c, 2, 61, 95
3, 326640, Note_off_c, 2, 57, 95
3, 326640, Note_on_c, 2, 62, 95
3, 326640, Note_on_c, 2, 57, 95
3, 326880, Note_off_c, 2, 62, 95
3, 326880, Note_off_c, 2, 57, 95
3, 326880, Note_on_c, 2, 64, 95
3, 326880, Note_on_c, 2, 59, 95
3, 326880, Note_on_c, 2, 61, 95
3, 326880, Note_on_c, 2, 57, 95
3, 326880, Note_on_c, 2, 45, 95
3, 327360, Note_off_c, 2, 64, 95
3, 327360, Note_off_c, 2, 59, 95
3, 327360, Note_off_c, 2, 61, 95
3, 327360, Note_off_c, 2, 57, 95
3, 327360, Note_off_c, 2, 45, 95
3, 327360, Note_on_c, 2, 64, 95
3, 327360, Note_on_c, 2, 59, 95
3, 327360, Note_on_c, 2, 61, 95
3, 327360, Note_on_c, 2, 57, 95
3, 327600, Note_off_c, 2, 64, 95
3, 327600, Note_off_c, 2, 59, 95
3, 327600, Note_off_c, 2, 61, 95
3, 327600, Note_off_c, 2, 57, 95
3, 327600, Note_on_c, 2, 64, 95
3, 327600, Note_on_c, 2, 59, 95
3, 327600, Note_on_c, 2, 61, 95
3, 327600, Note_on_c, 2, 57, 95
3, 327840, Note_off_c, 2, 64, 95
3, 327840, Note_off_c, 2, 59, 95
3, 327840, Note_off_c, 2, 61, 95
3, 327840, Note_off_c, 2, 57, 95
3, 327840, Note_on_c, 2, 64, 95
3, 327840, Note_on_c, 2, 59, 95
3, 327840, Note_on_c, 2, 61, 95
3, 327840, Note_on_c, 2, 57, 95
3, 328080, Note_off_c, 2, 64, 95
3, 328080, Note_off_c, 2, 59, 95
3, 328080, Note_off_c, 2, 61, 95
3, 328080, Note_off_c, 2, 57, 95
3, 328080, Note_on_c, 2, 59, 95
3, 328080, Note_on_c, 2, 55, 95
3, 328080, Note_on_c, 2, 50, 95
3, 328320, Note_off_c, 2, 59, 95
3, 328320, Note_off_c, 2, 55, 95
3, 328320, Note_off_c, 2, 50, 95
3, 328320, Note_on_c, 2, 59, 95
3, 328320, Note_on_c, 2, 55, 95
3, 328320, Note_on_c, 2, 52, 95
3, 328320, Note_on_c, 2, 47, 95
3, 328320, Note_on_c, 2, 40, 95
3, 328800, Note_off_c, 2, 59, 95
3, 328800, Note_off_c, 2, 55, 95
3, 328800, Note_off_c, 2, 52, 95
3, 328800, Note_off_c, 2, 47, 95
3, 328800, Note_off_c, 2, 40, 95
3, 328800, Note_on_c, 2, 59, 95
3, 328800, Note_on_c, 2, 55, 95
3, 328800, Note_on_c, 2, 52, 95
3, 329040, Note_off_c, 2, 59, 95
3, 329040, Note_off_c, 2, 55, 95
3, 329040, Note_off_c, 2, 52, 95
3, 329040, Note_on_c, 2, 59, 95
3, 329040, Note_on_c, 2, 55, 95
3, 329040, Note_on_c, 2, 52, 95
3, 329280, Note_off_c, 2, 59, 95
3, 329280, Note_off_c, 2, 55, 95
3, 329280, Note_off_c, 2, 52, 95
3, 329280, Note_on_c, 2, 59, 95
3, 329280, Note_on_c, 2, 55, 95
3, 329280, Note_on_c, 2, 52, 95
3, 329520, Note_off_c, 2, 59, 95
3, 329520, Note_off_c, 2, 55, 95
3, 329520, Note_off_c, 2, 52, 95
3, 329520, Note_on_c, 2, 59, 95
3, 329520, Note_on_c, 2, 55, 95
3, 329520, Note_on_c, 2, 52, 95
3, 329760, Note_off_c, 2, 59, 95
3, 329760, Note_off_c, 2, 55, 95
3, 329760, Note_off_c, 2, 52, 95
3, 329760, Note_on_c, 2, 63, 95
3, 329760, Note_on_c, 2, 57, 95
3, 329760, Note_on_c, 2, 54, 95
3, 329760, Note_on_c, 2, 42, 95
3, 330240, Note_off_c, 2, 63, 95
3, 330240, Note_off_c, 2, 57, 95
3, 330240, Note_off_c, 2, 54, 95
3, 330240, Note_off_c, 2, 42, 95
3, 330240, Note_on_c, 2, 63, 95
3, 330240, Note_on_c, 2, 57, 95
3, 330240, Note_on_c, 2, 54, 95
3, 330480, Note_off_c, 2, 63, 95
3, 330480, Note_off_c, 2, 57, 95
3, 330480, Note_off_c, 2, 54, 95
3, 330480, Note_on_c, 2, 63, 95
3, 330480, Note_on_c, 2, 57, 95
3, 330480, Note_on_c, 2, 54, 95
3, 330720, Note_off_c, 2, 63, 95
3, 330720, Note_off_c, 2, 57, 95
3, 330720, Note_off_c, 2, 54, 95
3, 330720, Note_on_c, 2, 63, 95
3, 330720, Note_on_c, 2, 57, 95
3, 330720, Note_on_c, 2, 54, 95
3, 330960, Note_off_c, 2, 63, 95
3, 330960, Note_off_c, 2, 57, 95
3, 330960, Note_off_c, 2, 54, 95
3, 330960, Note_on_c, 2, 63, 95
3, 330960, Note_on_c, 2, 57, 95
3, 330960, Note_on_c, 2, 54, 95
3, 331200, Note_off_c, 2, 63, 95
3, 331200, Note_off_c, 2, 57, 95
3, 331200, Note_off_c, 2, 54, 95
3, 331200, Note_on_c, 2, 64, 95
3, 331200, Note_on_c, 2, 59, 95
3, 331200, Note_on_c, 2, 55, 95
3, 331200, Note_on_c, 2, 43, 95
3, 331680, Note_off_c, 2, 64, 95
3, 331680, Note_off_c, 2, 59, 95
3, 331680, Note_off_c, 2, 55, 95
3, 331680, Note_off_c, 2, 43, 95
3, 331680, Note_on_c, 2, 64, 95
3, 331680, Note_on_c, 2, 59, 95
3, 331680, Note_on_c, 2, 55, 95
3, 331920, Note_off_c, 2, 64, 95
3, 331920, Note_off_c, 2, 59, 95
3, 331920, Note_off_c, 2, 55, 95
3, 331920, Note_on_c, 2, 64, 95
3, 331920, Note_on_c, 2, 59, 95
3, 331920, Note_on_c, 2, 55, 95
3, 332160, Note_off_c, 2, 64, 95
3, 332160, Note_off_c, 2, 59, 95
3, 332160, Note_off_c, 2, 55, 95
3, 332160, Note_on_c, 2, 64, 95
3, 332160, Note_on_c, 2, 59, 95
3, 332160, Note_on_c, 2, 55, 95
3, 332400, Note_off_c, 2, 64, 95
3, 332400, Note_off_c, 2, 59, 95
3, 332400, Note_off_c, 2, 55, 95
3, 332400, Note_on_c, 2, 64, 95
3, 332400, Note_on_c, 2, 59, 95
3, 332400, Note_on_c, 2, 55, 95
3, 332640, Note_off_c, 2, 64, 95
3, 332640, Note_off_c, 2, 59, 95
3, 332640, Note_off_c, 2, 55, 95
3, 332640, Note_on_c, 3, 64, 95
3, 332640, Note_on_c, 3, 59, 95
3, 332640, Note_on_c, 3, 55, 95
3, 332640, Note_on_c, 3, 43, 95
3, 332760, Pitch_bend_c, 3, 8832
3, 332760, Pitch_bend_c, 3, 8832
3, 332760, Pitch_bend_c, 3, 8832
3, 332760, Pitch_bend_c, 3, 8832
3, 332880, Pitch_bend_c, 3, 9600
3, 332880, Pitch_bend_c, 3, 8192
3, 332880, Note_off_c, 3, 64, 95
3, 332880, Pitch_bend_c, 3, 9600
3, 332880, Pitch_bend_c, 3, 8192
3, 332880, Note_off_c, 3, 59, 95
3, 332880, Pitch_bend_c, 3, 9600
3, 332880, Pitch_bend_c, 3, 8192
3, 332880, Note_off_c, 3, 55, 95
3, 332880, Pitch_bend_c, 3, 9600
3, 332880, Pitch_bend_c, 3, 8192
3, 332880, Note_off_c, 3, 43, 95
3, 332880, Note_on_c, 2, 66, 95
3, 332880, Note_on_c, 2, 61, 95
3, 332880, Note_on_c, 2, 57, 95
3, 332880, Note_on_c, 2, 45, 95
3, 333120, Note_off_c, 2, 66, 95
3, 333120, Note_off_c, 2, 61, 95
3, 333120, Note_off_c, 2, 57, 95
3, 333120, Note_off_c, 2, 45, 95
3, 333120, Note_on_c, 2, 66, 95
3, 333120, Note_on_c, 2, 61, 95
3, 333120, Note_on_c, 2, 57, 95
3, 333360, Note_off_c, 2, 66, 95
3, 333360, Note_off_c, 2, 61, 95
3, 333360, Note_off_c, 2, 57, 95
3, 333360, Note_on_c, 2, 66, 95
3, 333360, Note_on_c, 2, 61, 95
3, 333360, Note_on_c, 2, 57, 95
3, 333600, Note_off_c, 2, 66, 95
3, 333600, Note_off_c, 2, 61, 95
3, 333600, Note_off_c, 2, 57, 95
3, 333600, Note_on_c, 2, 66, 95
3, 333600, Note_on_c, 2, 61, 95
3, 333600, Note_on_c, 2, 57, 95
3, 333840, Note_off_c, 2, 66, 95
3, 333840, Note_off_c, 2, 61, 95
3, 333840, Note_off_c, 2, 57, 95
3, 333840, Note_on_c, 2, 66, 95
3, 333840, Note_on_c, 2, 61, 95
3, 333840, Note_on_c, 2, 57, 95
3, 334080, Note_off_c, 2, 66, 95
3, 334080, Note_off_c, 2, 61, 95
3, 334080, Note_off_c, 2, 57, 95
3, 334080, Note_on_c, 2, 66, 95
3, 334080, Note_on_c, 2, 62, 95
3, 334080, Note_on_c, 2, 57, 95
3, 334080, Note_on_c, 2, 47, 95
3, 334320, Note_off_c, 2, 66, 95
3, 334320, Note_off_c, 2, 62, 95
3, 334320, Note_off_c, 2, 57, 95
3, 334320, Note_off_c, 2, 47, 95
3, 334320, Note_on_c, 2, 59, 70
3, 334560, Note_off_c, 2, 59, 70
3, 334560, Note_on_c, 2, 47, 95
3, 334800, Note_off_c, 2, 47, 95
3, 334800, Note_on_c, 2, 64, 95
3, 334800, Note_on_c, 2, 59, 95
3, 334800, Note_on_c, 2, 62, 95
3, 334800, Note_on_c, 2, 59, 95
3, 335280, Note_off_c, 2, 64, 95
3, 335280, Note_off_c, 2, 59, 95
3, 335280, Note_off_c, 2, 62, 95
3, 335280, Note_off_c, 2, 59, 95
3, 335280, Note_on_c, 2, 64, 95
3, 335280, Note_on_c, 2, 59, 95
3, 335280, Note_on_c, 2, 62, 95
3, 335280, Note_on_c, 2, 59, 95
3, 335520, Note_off_c, 2, 64, 95
3, 335520, Note_off_c, 2, 59, 95
3, 335520, Note_off_c, 2, 62, 95
3, 335520, Note_off_c, 2, 59, 95
3, 335520, Note_on_c, 2, 64, 95
3, 335520, Note_on_c, 2, 59, 95
3, 335520, Note_on_c, 2, 62, 95
3, 335520, Note_on_c, 2, 59, 95
3, 335520, Note_on_c, 2, 47, 95
3, 336000, Note_off_c, 2, 64, 95
3, 336000, Note_off_c, 2, 59, 95
3, 336000, Note_off_c, 2, 62, 95
3, 336000, Note_off_c, 2, 59, 95
3, 336000, Note_off_c, 2, 47, 95
3, 336000, Note_on_c, 2, 64, 95
3, 336000, Note_on_c, 2, 59, 95
3, 336000, Note_on_c, 2, 62, 95
3, 336000, Note_on_c, 2, 59, 95
3, 336240, Note_off_c, 2, 64, 95
3, 336240, Note_off_c, 2, 59, 95
3, 336240, Note_off_c, 2, 62, 95
3, 336240, Note_off_c, 2, 59, 95
3, 336240, Note_on_c, 2, 64, 95
3, 336240, Note_on_c, 2, 59, 95
3, 336240, Note_on_c, 2, 62, 95
3, 336240, Note_on_c, 2, 59, 95
3, 336480, Note_off_c, 2, 64, 95
3, 336480, Note_off_c, 2, 59, 95
3, 336480, Note_off_c, 2, 62, 95
3, 336480, Note_off_c, 2, 59, 95
3, 336480, Note_on_c, 2, 64, 95
3, 336480, Note_on_c, 2, 59, 95
3, 336480, Note_on_c, 2, 62, 95
3, 336480, Note_on_c, 2, 59, 95
3, 336720, Note_off_c, 2, 64, 95
3, 336720, Note_off_c, 2, 59, 95
3, 336720, Note_off_c, 2, 62, 95
3, 336720, Note_off_c, 2, 59, 95
3, 336720, Note_on_c, 2, 64, 95
3, 336720, Note_on_c, 2, 59, 95
3, 336720, Note_on_c, 2, 62, 95
3, 336720, Note_on_c, 2, 59, 95
3, 336960, Note_off_c, 2, 64, 95
3, 336960, Note_off_c, 2, 59, 95
3, 336960, Note_off_c, 2, 62, 95
3, 336960, Note_off_c, 2, 59, 95
3, 336960, Note_on_c, 2, 64, 95
3, 336960, Note_on_c, 2, 59, 95
3, 336960, Note_on_c, 2, 61, 95
3, 336960, Note_on_c, 2, 57, 95
3, 336960, Note_on_c, 2, 45, 95
3, 337440, Note_off_c, 2, 64, 95
3, 337440, Note_off_c, 2, 59, 95
3, 337440, Note_off_c, 2, 61, 95
3, 337440, Note_off_c, 2, 57, 95
3, 337440, Note_off_c, 2, 45, 95
3, 337440, Note_on_c, 2, 64, 95
3, 337440, Note_on_c, 2, 59, 95
3, 337440, Note_on_c, 2, 61, 95
3, 337440, Note_on_c, 2, 57, 95
3, 337680, Note_off_c, 2, 64, 95
3, 337680, Note_off_c, 2, 59, 95
3, 337680, Note_off_c, 2, 61, 95
3, 337680, Note_off_c, 2, 57, 95
3, 337680, Note_on_c, 2, 64, 95
3, 337680, Note_on_c, 2, 59, 95
3, 337680, Note_on_c, 2, 61, 95
3, 337680, Note_on_c, 2, 57, 95
3, 337920, Note_off_c, 2, 64, 95
3, 337920, Note_off_c, 2, 59, 95
3, 337920, Note_off_c, 2, 61, 95
3, 337920, Note_off_c, 2, 57, 95
3, 337920, Note_on_c, 2, 64, 95
3, 337920, Note_on_c, 2, 59, 95
3, 337920, Note_on_c, 2, 61, 95
3, 337920, Note_on_c, 2, 57, 95
3, 338160, Note_off_c, 2, 64, 95
3, 338160, Note_off_c, 2, 59, 95
3, 338160, Note_off_c, 2, 61, 95
3, 338160, Note_off_c, 2, 57, 95
3, 338160, Note_on_c, 2, 62, 95
3, 338160, Note_on_c, 2, 57, 95
3, 338400, Note_off_c, 2, 62, 95
3, 338400, Note_off_c, 2, 57, 95
3, 338400, Note_on_c, 2, 64, 95
3, 338400, Note_on_c, 2, 59, 95
3, 338400, Note_on_c, 2, 61, 95
3, 338400, Note_on_c, 2, 57, 95
3, 338400, Note_on_c, 2, 45, 95
3, 338880, Note_off_c, 2, 64, 95
3, 338880, Note_off_c, 2, 59, 95
3, 338880, Note_off_c, 2, 61, 95
3, 338880, Note_off_c, 2, 57, 95
3, 338880, Note_off_c, 2, 45, 95
3, 338880, Note_on_c, 2, 64, 95
3, 338880, Note_on_c, 2, 59, 95
3, 338880, Note_on_c, 2, 61, 95
3, 338880, Note_on_c, 2, 57, 95
3, 339120, Note_off_c, 2, 64, 95
3, 339120, Note_off_c, 2, 59, 95
3, 339120, Note_off_c, 2, 61, 95
3, 339120, Note_off_c, 2, 57, 95
3, 339120, Note_on_c, 2, 64, 95
3, 339120, Note_on_c, 2, 59, 95
3, 339120, Note_on_c, 2, 61, 95
3, 339120, Note_on_c, 2, 57, 95
3, 339360, Note_off_c, 2, 64, 95
3, 339360, Note_off_c, 2, 59, 95
3, 339360, Note_off_c, 2, 61, 95
3, 339360, Note_off_c, 2, 57, 95
3, 339360, Note_on_c, 2, 64, 95
3, 339360, Note_on_c, 2, 59, 95
3, 339360, Note_on_c, 2, 61, 95
3, 339360, Note_on_c, 2, 57, 95
3, 339600, Note_off_c, 2, 64, 95
3, 339600, Note_off_c, 2, 59, 95
3, 339600, Note_off_c, 2, 61, 95
3, 339600, Note_off_c, 2, 57, 95
3, 339600, Note_on_c, 2, 59, 95
3, 339600, Note_on_c, 2, 55, 95
3, 339600, Note_on_c, 2, 50, 95
3, 339840, Note_off_c, 2, 59, 95
3, 339840, Note_off_c, 2, 55, 95
3, 339840, Note_off_c, 2, 50, 95
3, 339840, Note_on_c, 2, 59, 95
3, 339840, Note_on_c, 2, 55, 95
3, 339840, Note_on_c, 2, 52, 95
3, 339840, Note_on_c, 2, 47, 95
3, 339840, Note_on_c, 2, 40, 95
3, 340320, Note_off_c, 2, 59, 95
3, 340320, Note_off_c, 2, 55, 95
3, 340320, Note_off_c, 2, 52, 95
3, 340320, Note_off_c, 2, 47, 95
3, 340320, Note_off_c, 2, 40, 95
3, 340320, Note_on_c, 2, 59, 95
3, 340320, Note_on_c, 2, 55, 95
3, 340320, Note_on_c, 2, 52, 95
3, 340320, Note_on_c, 2, 47, 95
3, 340560, Note_off_c, 2, 59, 95
3, 340560, Note_off_c, 2, 55, 95
3, 340560, Note_off_c, 2, 52, 95
3, 340560, Note_off_c, 2, 47, 95
3, 340560, Note_on_c, 2, 59, 95
3, 340560, Note_on_c, 2, 55, 95
3, 340560, Note_on_c, 2, 52, 95
3, 340560, Note_on_c, 2, 47, 95
3, 340800, Note_off_c, 2, 59, 95
3, 340800, Note_off_c, 2, 55, 95
3, 340800, Note_off_c, 2, 52, 95
3, 340800, Note_off_c, 2, 47, 95
3, 340800, Note_on_c, 2, 59, 95
3, 340800, Note_on_c, 2, 55, 95
3, 340800, Note_on_c, 2, 52, 95
3, 340800, Note_on_c, 2, 47, 95
3, 341040, Note_off_c, 2, 59, 95
3, 341040, Note_off_c, 2, 55, 95
3, 341040, Note_off_c, 2, 52, 95
3, 341040, Note_off_c, 2, 47, 95
3, 341040, Note_on_c, 2, 59, 95
3, 341040, Note_on_c, 2, 55, 95
3, 341040, Note_on_c, 2, 52, 95
3, 341040, Note_on_c, 2, 47, 95
3, 341280, Note_off_c, 2, 59, 95
3, 341280, Note_off_c, 2, 55, 95
3, 341280, Note_off_c, 2, 52, 95
3, 341280, Note_off_c, 2, 47, 95
3, 341280, Note_on_c, 2, 64, 95
3, 341280, Note_on_c, 2, 59, 95
3, 341280, Note_on_c, 2, 55, 95
3, 341280, Note_on_c, 2, 52, 95
3, 341280, Note_on_c, 2, 47, 95
3, 341280, Note_on_c, 2, 40, 95
3, 341760, Note_off_c, 2, 64, 95
3, 341760, Note_off_c, 2, 59, 95
3, 341760, Note_off_c, 2, 55, 95
3, 341760, Note_off_c, 2, 52, 95
3, 341760, Note_off_c, 2, 47, 95
3, 341760, Note_off_c, 2, 40, 95
3, 341760, Note_on_c, 2, 59, 95
3, 341760, Note_on_c, 2, 55, 95
3, 341760, Note_on_c, 2, 52, 95
3, 341760, Note_on_c, 2, 47, 95
3, 342000, Note_off_c, 2, 59, 95
3, 342000, Note_off_c, 2, 55, 95
3, 342000, Note_off_c, 2, 52, 95
3, 342000, Note_off_c, 2, 47, 95
3, 342000, Note_on_c, 2, 59, 95
3, 342000, Note_on_c, 2, 55, 95
3, 342000, Note_on_c, 2, 52, 95
3, 342000, Note_on_c, 2, 47, 95
3, 342240, Note_off_c, 2, 59, 95
3, 342240, Note_off_c, 2, 55, 95
3, 342240, Note_off_c, 2, 52, 95
3, 342240, Note_off_c, 2, 47, 95
3, 342240, Note_on_c, 2, 59, 95
3, 342240, Note_on_c, 2, 55, 95
3, 342240, Note_on_c, 2, 52, 95
3, 342240, Note_on_c, 2, 47, 95
3, 342480, Note_off_c, 2, 59, 95
3, 342480, Note_off_c, 2, 55, 95
3, 342480, Note_off_c, 2, 52, 95
3, 342480, Note_off_c, 2, 47, 95
3, 342480, Note_on_c, 2, 59, 95
3, 342480, Note_on_c, 2, 55, 95
3, 342480, Note_on_c, 2, 52, 95
3, 342480, Note_on_c, 2, 47, 95
3, 342720, Note_off_c, 2, 59, 95
3, 342720, Note_off_c, 2, 55, 95
3, 342720, Note_off_c, 2, 52, 95
3, 342720, Note_off_c, 2, 47, 95
3, 342720, Note_on_c, 2, 59, 95
3, 342720, Note_on_c, 2, 55, 95
3, 342720, Note_on_c, 2, 52, 95
3, 342720, Note_on_c, 2, 47, 95
3, 342720, Note_on_c, 2, 40, 95
3, 343200, Note_off_c, 2, 59, 95
3, 343200, Note_off_c, 2, 55, 95
3, 343200, Note_off_c, 2, 52, 95
3, 343200, Note_off_c, 2, 47, 95
3, 343200, Note_off_c, 2, 40, 95
3, 343200, Note_on_c, 2, 59, 95
3, 343200, Note_on_c, 2, 55, 95
3, 343200, Note_on_c, 2, 52, 95
3, 343200, Note_on_c, 2, 47, 95
3, 343440, Note_off_c, 2, 59, 95
3, 343440, Note_off_c, 2, 55, 95
3, 343440, Note_off_c, 2, 52, 95
3, 343440, Note_off_c, 2, 47, 95
3, 343440, Note_on_c, 2, 59, 95
3, 343440, Note_on_c, 2, 55, 95
3, 343440, Note_on_c, 2, 52, 95
3, 343440, Note_on_c, 2, 47, 95
3, 343680, Note_off_c, 2, 59, 95
3, 343680, Note_off_c, 2, 55, 95
3, 343680, Note_off_c, 2, 52, 95
3, 343680, Note_off_c, 2, 47, 95
3, 343680, Note_on_c, 2, 59, 95
3, 343680, Note_on_c, 2, 55, 95
3, 343680, Note_on_c, 2, 52, 95
3, 343680, Note_on_c, 2, 47, 95
3, 343920, Note_off_c, 2, 59, 95
3, 343920, Note_off_c, 2, 55, 95
3, 343920, Note_off_c, 2, 52, 95
3, 343920, Note_off_c, 2, 47, 95
3, 343920, Note_on_c, 2, 59, 95
3, 343920, Note_on_c, 2, 55, 95
3, 343920, Note_on_c, 2, 52, 95
3, 343920, Note_on_c, 2, 47, 95
3, 344160, Note_off_c, 2, 59, 95
3, 344160, Note_off_c, 2, 55, 95
3, 344160, Note_off_c, 2, 52, 95
3, 344160, Note_off_c, 2, 47, 95
3, 344160, Note_on_c, 2, 64, 95
3, 344160, Note_on_c, 2, 59, 95
3, 344160, Note_on_c, 2, 55, 95
3, 344160, Note_on_c, 2, 52, 95
3, 344160, Note_on_c, 2, 47, 95
3, 344160, Note_on_c, 2, 40, 95
3, 344640, Note_off_c, 2, 64, 95
3, 344640, Note_off_c, 2, 59, 95
3, 344640, Note_off_c, 2, 55, 95
3, 344640, Note_off_c, 2, 52, 95
3, 344640, Note_off_c, 2, 47, 95
3, 344640, Note_off_c, 2, 40, 95
3, 344640, Note_on_c, 2, 59, 95
3, 344640, Note_on_c, 2, 55, 95
3, 344640, Note_on_c, 2, 52, 95
3, 344640, Note_on_c, 2, 47, 95
3, 344880, Note_off_c, 2, 59, 95
3, 344880, Note_off_c, 2, 55, 95
3, 344880, Note_off_c, 2, 52, 95
3, 344880, Note_off_c, 2, 47, 95
3, 344880, Note_on_c, 2, 59, 95
3, 344880, Note_on_c, 2, 55, 95
3, 344880, Note_on_c, 2, 52, 95
3, 344880, Note_on_c, 2, 47, 95
3, 345120, Note_off_c, 2, 59, 95
3, 345120, Note_off_c, 2, 55, 95
3, 345120, Note_off_c, 2, 52, 95
3, 345120, Note_off_c, 2, 47, 95
3, 345120, Note_on_c, 2, 59, 95
3, 345120, Note_on_c, 2, 55, 95
3, 345120, Note_on_c, 2, 52, 95
3, 345120, Note_on_c, 2, 47, 95
3, 345360, Note_off_c, 2, 59, 95
3, 345360, Note_off_c, 2, 55, 95
3, 345360, Note_off_c, 2, 52, 95
3, 345360, Note_off_c, 2, 47, 95
3, 345360, Note_on_c, 2, 59, 95
3, 345360, Note_on_c, 2, 55, 95
3, 345360, Note_on_c, 2, 52, 95
3, 345360, Note_on_c, 2, 47, 95
3, 345600, Note_off_c, 2, 59, 95
3, 345600, Note_off_c, 2, 55, 95
3, 345600, Note_off_c, 2, 52, 95
3, 345600, Note_off_c, 2, 47, 95
3, 345600, Note_on_c, 2, 53, 95
3, 345840, Note_off_c, 2, 53, 95
3, 345840, Note_on_c, 2, 56, 95
3, 346080, Note_off_c, 2, 56, 95
3, 346080, Note_on_c, 2, 60, 95
3, 346320, Note_off_c, 2, 60, 95
3, 346320, Note_on_c, 2, 65, 95
3, 346560, Note_off_c, 2, 65, 95
3, 346560, Note_on_c, 2, 62, 95
3, 346800, Note_off_c, 2, 62, 95
3, 346800, Note_on_c, 2, 60, 70
3, 347040, Note_off_c, 2, 60, 70
3, 347040, Note_on_c, 2, 58, 95
3, 347280, Note_off_c, 2, 58, 95
3, 347280, Note_on_c, 2, 56, 70
3, 347520, Note_off_c, 2, 56, 70
3, 347520, Note_on_c, 2, 58, 95
3, 347760, Note_off_c, 2, 58, 95
3, 347760, Note_on_c, 2, 56, 70
3, 348000, Note_off_c, 2, 56, 70
3, 348000, Note_on_c, 2, 58, 95
3, 348240, Note_off_c, 2, 58, 95
3, 348240, Note_on_c, 2, 56, 70
3, 348480, Note_off_c, 2, 56, 70
3, 348480, Note_on_c, 2, 53, 95
3, 348720, Note_off_c, 2, 53, 95
3, 348720, Note_on_c, 2, 56, 95
3, 348960, Note_off_c, 2, 56, 95
3, 348960, Note_on_c, 2, 60, 95
3, 349200, Note_off_c, 2, 60, 95
3, 349200, Note_on_c, 2, 65, 95
3, 349440, Note_off_c, 2, 65, 95
3, 349440, Note_on_c, 2, 62, 95
3, 349680, Note_off_c, 2, 62, 95
3, 349680, Note_on_c, 2, 60, 70
3, 349920, Note_off_c, 2, 60, 70
3, 349920, Note_on_c, 2, 67, 95
3, 350160, Note_off_c, 2, 67, 95
3, 350160, Note_on_c, 2, 65, 70
3, 350400, Note_off_c, 2, 65, 70
3, 350400, Note_on_c, 2, 62, 95
3, 350640, Note_off_c, 2, 62, 95
3, 350640, Note_on_c, 2, 60, 70
3, 350880, Note_off_c, 2, 60, 70
3, 350880, Note_on_c, 2, 58, 95
3, 351120, Note_off_c, 2, 58, 95
3, 351120, Note_on_c, 2, 56, 70
3, 351360, Note_off_c, 2, 56, 70
3, 351360, Note_on_c, 2, 55, 95
3, 351600, Note_off_c, 2, 55, 95
3, 351600, Note_on_c, 2, 58, 95
3, 351840, Note_off_c, 2, 58, 95
3, 351840, Note_on_c, 2, 62, 95
3, 352080, Note_off_c, 2, 62, 95
3, 352080, Note_on_c, 2, 67, 95
3, 352320, Note_off_c, 2, 67, 95
3, 352320, Note_on_c, 2, 64, 95
3, 352560, Note_off_c, 2, 64, 95
3, 352560, Note_on_c, 2, 62, 70
3, 352800, Note_off_c, 2, 62, 70
3, 352800, Note_on_c, 2, 60, 95
3, 353040, Note_off_c, 2, 60, 95
3, 353040, Note_on_c, 2, 58, 70
3, 353280, Note_off_c, 2, 58, 70
3, 353280, Note_on_c, 2, 60, 95
3, 353520, Note_off_c, 2, 60, 95
3, 353520, Note_on_c, 2, 58, 70
3, 353760, Note_off_c, 2, 58, 70
3, 353760, Note_on_c, 2, 60, 95
3, 354000, Note_off_c, 2, 60, 95
3, 354000, Note_on_c, 2, 58, 70
3, 354240, Note_off_c, 2, 58, 70
3, 354240, Note_on_c, 2, 55, 95
3, 354480, Note_off_c, 2, 55, 95
3, 354480, Note_on_c, 2, 58, 95
3, 354720, Note_off_c, 2, 58, 95
3, 354720, Note_on_c, 2, 62, 95
3, 354960, Note_off_c, 2, 62, 95
3, 354960, Note_on_c, 2, 67, 95
3, 355200, Note_off_c, 2, 67, 95
3, 355200, Note_on_c, 2, 64, 95
3, 355440, Note_off_c, 2, 64, 95
3, 355440, Note_on_c, 2, 62, 70
3, 355680, Note_off_c, 2, 62, 70
3, 355680, Note_on_c, 2, 69, 95
3, 355920, Note_off_c, 2, 69, 95
3, 355920, Note_on_c, 2, 67, 70
3, 356160, Note_off_c, 2, 67, 70
3, 356160, Note_on_c, 2, 64, 95
3, 356400, Note_off_c, 2, 64, 95
3, 356400, Note_on_c, 2, 62, 70
3, 356640, Note_off_c, 2, 62, 70
3, 356640, Note_on_c, 2, 60, 95
3, 356880, Note_off_c, 2, 60, 95
3, 356880, Note_on_c, 2, 58, 70
3, 357120, Note_off_c, 2, 58, 70
3, 357120, Note_on_c, 2, 64, 95
3, 357120, Note_on_c, 2, 59, 95
3, 357120, Note_on_c, 2, 55, 95
3, 357120, Note_on_c, 2, 52, 95
3, 357120, Note_on_c, 2, 47, 95
3, 357120, Note_on_c, 2, 40, 95
3, 362880, Note_off_c, 2, 64, 95
3, 362880, Note_off_c, 2, 59, 95
3, 362880, Note_off_c, 2, 55, 95
3, 362880, Note_off_c, 2, 52, 95
3, 362880, Note_off_c, 2, 47, 95
3, 362880, Note_off_c, 2, 40, 95
3, 362880, End_track
4, 0, Start_track
4, 0, Pitch_bend_c, 4, 8192
4, 0, Control_c, 4, 7, 63
4, 0, Control_c, 4, 10, 63
4, 0, Control_c, 4, 93, 0
4, 0, Control_c, 4, 91, 0
4, 0, Control_c, 4, 95, 0
4, 0, Control_c, 4, 92, 0
4, 0, Control_c, 4, 11, 127
4, 0, Program_c, 4, 25
4, 0, Control_c, 5, 7, 63
4, 0, Control_c, 5, 10, 63
4, 0, Control_c, 5, 93, 0
4, 0, Control_c, 5, 91, 0
4, 0, Control_c, 5, 95, 0
4, 0, Control_c, 5, 92, 0
4, 0, Control_c, 5, 11, 127
4, 0, Program_c, 5, 25
4, 11520, Note_on_c, 4, 64, 95
4, 11520, Note_on_c, 4, 59, 95
4, 11520, Note_on_c, 4, 55, 95
4, 11520, Note_on_c, 4, 52, 95
4, 11520, Note_on_c, 4, 47, 95
4, 11520, Note_on_c, 4, 40, 95
4, 17280, Note_off_c, 4, 64, 95
4, 17280, Note_off_c, 4, 59, 95
4, 17280, Note_off_c, 4, 55, 95
4, 17280, Note_off_c, 4, 52, 95
4, 17280, Note_off_c, 4, 47, 95
4, 17280, Note_off_c, 4, 40, 95
4, 17280, Note_on_c, 4, 66, 95
4, 17280, Note_on_c, 4, 62, 95
4, 17280, Note_on_c, 4, 57, 95
4, 17280, Note_on_c, 4, 50, 95
4, 17760, Note_off_c, 4, 66, 95
4, 17760, Note_off_c, 4, 62, 95
4, 17760, Note_off_c, 4, 57, 95
4, 17760, Note_off_c, 4, 50, 95
4, 17760, Note_on_c, 4, 66, 95
4, 17760, Note_on_c, 4, 62, 95
4, 17760, Note_on_c, 4, 57, 95
4, 17760, Note_on_c, 4, 50, 95
4, 18000, Note_off_c, 4, 66, 95
4, 18000, Note_off_c, 4, 62, 95
4, 18000, Note_off_c, 4, 57, 95
4, 18000, Note_off_c, 4, 50, 95
4, 18000, Note_on_c, 4, 66, 95
4, 18000, Note_on_c, 4, 62, 95
4, 18000, Note_on_c, 4, 57, 95
4, 18000, Note_on_c, 4, 50, 95
4, 18480, Note_off_c, 4, 66, 95
4, 18480, Note_off_c, 4, 62, 95
4, 18480, Note_off_c, 4, 57, 95
4, 18480, Note_off_c, 4, 50, 95
4, 18480, Note_on_c, 4, 66, 95
4, 18480, Note_on_c, 4, 62, 95
4, 18480, Note_on_c, 4, 57, 95
4, 18480, Note_on_c, 4, 50, 95
4, 18720, Note_off_c, 4, 66, 95
4, 18720, Note_off_c, 4, 62, 95
4, 18720, Note_off_c, 4, 57, 95
4, 18720, Note_off_c, 4, 50, 95
4, 18720, Note_on_c, 4, 66, 95
4, 18720, Note_on_c, 4, 62, 95
4, 18720, Note_on_c, 4, 57, 95
4, 18720, Note_on_c, 4, 50, 95
4, 19200, Note_off_c, 4, 66, 95
4, 19200, Note_off_c, 4, 62, 95
4, 19200, Note_off_c, 4, 57, 95
4, 19200, Note_off_c, 4, 50, 95
4, 19200, Note_on_c, 4, 66, 95
4, 19200, Note_on_c, 4, 62, 95
4, 19200, Note_on_c, 4, 57, 95
4, 19200, Note_on_c, 4, 50, 95
4, 19440, Note_off_c, 4, 66, 95
4, 19440, Note_off_c, 4, 62, 95
4, 19440, Note_off_c, 4, 57, 95
4, 19440, Note_off_c, 4, 50, 95
4, 19440, Note_on_c, 4, 66, 95
4, 19440, Note_on_c, 4, 62, 95
4, 19440, Note_on_c, 4, 57, 95
4, 19440, Note_on_c, 4, 50, 95
4, 19920, Note_off_c, 4, 66, 95
4, 19920, Note_off_c, 4, 62, 95
4, 19920, Note_off_c, 4, 57, 95
4, 19920, Note_off_c, 4, 50, 95
4, 19920, Note_on_c, 4, 66, 95
4, 19920, Note_on_c, 4, 62, 95
4, 19920, Note_on_c, 4, 57, 95
4, 19920, Note_on_c, 4, 50, 95
4, 20160, Note_off_c, 4, 66, 95
4, 20160, Note_off_c, 4, 62, 95
4, 20160, Note_off_c, 4, 57, 95
4, 20160, Note_off_c, 4, 50, 95
4, 20160, Note_on_c, 4, 66, 95
4, 20160, Note_on_c, 4, 62, 95
4, 20160, Note_on_c, 4, 57, 95
4, 20160, Note_on_c, 4, 50, 95
4, 20640, Note_off_c, 4, 66, 95
4, 20640, Note_off_c, 4, 62, 95
4, 20640, Note_off_c, 4, 57, 95
4, 20640, Note_off_c, 4, 50, 95
4, 20640, Note_on_c, 4, 66, 95
4, 20640, Note_on_c, 4, 62, 95
4, 20640, Note_on_c, 4, 57, 95
4, 20640, Note_on_c, 4, 50, 95
4, 20880, Note_off_c, 4, 66, 95
4, 20880, Note_off_c, 4, 62, 95
4, 20880, Note_off_c, 4, 57, 95
4, 20880, Note_off_c, 4, 50, 95
4, 20880, Note_on_c, 4, 66, 95
4, 20880, Note_on_c, 4, 62, 95
4, 20880, Note_on_c, 4, 57, 95
4, 20880, Note_on_c, 4, 50, 95
4, 21120, Note_off_c, 4, 66, 95
4, 21120, Note_off_c, 4, 62, 95
4, 21120, Note_off_c, 4, 57, 95
4, 21120, Note_off_c, 4, 50, 95
4, 21120, Note_on_c, 4, 66, 95
4, 21120, Note_on_c, 4, 62, 95
4, 21120, Note_on_c, 4, 57, 95
4, 21120, Note_on_c, 4, 50, 95
4, 21360, Note_off_c, 4, 66, 95
4, 21360, Note_off_c, 4, 62, 95
4, 21360, Note_off_c, 4, 57, 95
4, 21360, Note_off_c, 4, 50, 95
4, 21360, Note_on_c, 4, 66, 95
4, 21360, Note_on_c, 4, 62, 95
4, 21360, Note_on_c, 4, 57, 95
4, 21360, Note_on_c, 4, 50, 95
4, 21600, Note_off_c, 4, 66, 95
4, 21600, Note_off_c, 4, 62, 95
4, 21600, Note_off_c, 4, 57, 95
4, 21600, Note_off_c, 4, 50, 95
4, 21600, Note_on_c, 4, 67, 95
4, 21600, Note_on_c, 4, 59, 95
4, 21600, Note_on_c, 4, 57, 95
4, 21600, Note_on_c, 4, 50, 95
4, 21840, Note_off_c, 4, 67, 95
4, 21840, Note_off_c, 4, 59, 95
4, 21840, Note_off_c, 4, 57, 95
4, 21840, Note_off_c, 4, 50, 95
4, 21840, Note_on_c, 4, 67, 95
4, 21840, Note_on_c, 4, 59, 95
4, 21840, Note_on_c, 4, 57, 95
4, 21840, Note_on_c, 4, 50, 95
4, 22320, Note_off_c, 4, 67, 95
4, 22320, Note_off_c, 4, 59, 95
4, 22320, Note_off_c, 4, 57, 95
4, 22320, Note_off_c, 4, 50, 95
4, 22320, Note_on_c, 4, 67, 95
4, 22320, Note_on_c, 4, 59, 95
4, 22320, Note_on_c, 4, 57, 95
4, 22320, Note_on_c, 4, 50, 95
4, 22800, Note_off_c, 4, 67, 95
4, 22800, Note_off_c, 4, 59, 95
4, 22800, Note_off_c, 4, 57, 95
4, 22800, Note_off_c, 4, 50, 95
4, 22800, Note_on_c, 4, 67, 95
4, 22800, Note_on_c, 4, 59, 95
4, 22800, Note_on_c, 4, 57, 95
4, 22800, Note_on_c, 4, 50, 95
4, 23040, Note_off_c, 4, 67, 95
4, 23040, Note_off_c, 4, 59, 95
4, 23040, Note_off_c, 4, 57, 95
4, 23040, Note_off_c, 4, 50, 95
4, 23040, Note_on_c, 4, 66, 95
4, 23040, Note_on_c, 4, 62, 95
4, 23040, Note_on_c, 4, 57, 95
4, 23040, Note_on_c, 4, 50, 95
4, 23520, Note_off_c, 4, 66, 95
4, 23520, Note_off_c, 4, 62, 95
4, 23520, Note_off_c, 4, 57, 95
4, 23520, Note_off_c, 4, 50, 95
4, 23520, Note_on_c, 4, 66, 95
4, 23520, Note_on_c, 4, 62, 95
4, 23520, Note_on_c, 4, 57, 95
4, 23520, Note_on_c, 4, 50, 95
4, 23760, Note_off_c, 4, 66, 95
4, 23760, Note_off_c, 4, 62, 95
4, 23760, Note_off_c, 4, 57, 95
4, 23760, Note_off_c, 4, 50, 95
4, 23760, Note_on_c, 4, 66, 95
4, 23760, Note_on_c, 4, 62, 95
4, 23760, Note_on_c, 4, 57, 95
4, 23760, Note_on_c, 4, 50, 95
4, 24240, Note_off_c, 4, 66, 95
4, 24240, Note_off_c, 4, 62, 95
4, 24240, Note_off_c, 4, 57, 95
4, 24240, Note_off_c, 4, 50, 95
4, 24240, Note_on_c, 4, 66, 95
4, 24240, Note_on_c, 4, 62, 95
4, 24240, Note_on_c, 4, 57, 95
4, 24240, Note_on_c, 4, 50, 95
4, 24480, Note_off_c, 4, 66, 95
4, 24480, Note_off_c, 4, 62, 95
4, 24480, Note_off_c, 4, 57, 95
4, 24480, Note_off_c, 4, 50, 95
4, 24480, Note_on_c, 4, 66, 95
4, 24480, Note_on_c, 4, 62, 95
4, 24480, Note_on_c, 4, 57, 95
4, 24480, Note_on_c, 4, 50, 95
4, 24960, Note_off_c, 4, 66, 95
4, 24960, Note_off_c, 4, 62, 95
4, 24960, Note_off_c, 4, 57, 95
4, 24960, Note_off_c, 4, 50, 95
4, 24960, Note_on_c, 4, 66, 95
4, 24960, Note_on_c, 4, 62, 95
4, 24960, Note_on_c, 4, 57, 95
4, 24960, Note_on_c, 4, 50, 95
4, 25200, Note_off_c, 4, 66, 95
4, 25200, Note_off_c, 4, 62, 95
4, 25200, Note_off_c, 4, 57, 95
4, 25200, Note_off_c, 4, 50, 95
4, 25200, Note_on_c, 4, 66, 95
4, 25200, Note_on_c, 4, 62, 95
4, 25200, Note_on_c, 4, 57, 95
4, 25200, Note_on_c, 4, 50, 95
4, 25680, Note_off_c, 4, 66, 95
4, 25680, Note_off_c, 4, 62, 95
4, 25680, Note_off_c, 4, 57, 95
4, 25680, Note_off_c, 4, 50, 95
4, 25680, Note_on_c, 4, 66, 95
4, 25680, Note_on_c, 4, 62, 95
4, 25680, Note_on_c, 4, 57, 95
4, 25680, Note_on_c, 4, 50, 95
4, 25920, Note_off_c, 4, 66, 95
4, 25920, Note_off_c, 4, 62, 95
4, 25920, Note_off_c, 4, 57, 95
4, 25920, Note_off_c, 4, 50, 95
4, 25920, Note_on_c, 4, 66, 95
4, 25920, Note_on_c, 4, 62, 95
4, 25920, Note_on_c, 4, 57, 95
4, 25920, Note_on_c, 4, 50, 95
4, 26400, Note_off_c, 4, 66, 95
4, 26400, Note_off_c, 4, 62, 95
4, 26400, Note_off_c, 4, 57, 95
4, 26400, Note_off_c, 4, 50, 95
4, 26400, Note_on_c, 4, 66, 95
4, 26400, Note_on_c, 4, 62, 95
4, 26400, Note_on_c, 4, 57, 95
4, 26400, Note_on_c, 4, 50, 95
4, 26640, Note_off_c, 4, 66, 95
4, 26640, Note_off_c, 4, 62, 95
4, 26640, Note_off_c, 4, 57, 95
4, 26640, Note_off_c, 4, 50, 95
4, 26640, Note_on_c, 4, 66, 95
4, 26640, Note_on_c, 4, 62, 95
4, 26640, Note_on_c, 4, 57, 95
4, 26640, Note_on_c, 4, 50, 95
4, 26880, Note_off_c, 4, 66, 95
4, 26880, Note_off_c, 4, 62, 95
4, 26880, Note_off_c, 4, 57, 95
4, 26880, Note_off_c, 4, 50, 95
4, 26880, Note_on_c, 4, 66, 95
4, 26880, Note_on_c, 4, 62, 95
4, 26880, Note_on_c, 4, 57, 95
4, 26880, Note_on_c, 4, 50, 95
4, 27120, Note_off_c, 4, 66, 95
4, 27120, Note_off_c, 4, 62, 95
4, 27120, Note_off_c, 4, 57, 95
4, 27120, Note_off_c, 4, 50, 95
4, 27120, Note_on_c, 4, 66, 95
4, 27120, Note_on_c, 4, 62, 95
4, 27120, Note_on_c, 4, 57, 95
4, 27120, Note_on_c, 4, 50, 95
4, 27360, Note_off_c, 4, 66, 95
4, 27360, Note_off_c, 4, 62, 95
4, 27360, Note_off_c, 4, 57, 95
4, 27360, Note_off_c, 4, 50, 95
4, 27360, Note_on_c, 4, 67, 95
4, 27360, Note_on_c, 4, 59, 95
4, 27360, Note_on_c, 4, 57, 95
4, 27360, Note_on_c, 4, 50, 95
4, 27600, Note_off_c, 4, 67, 95
4, 27600, Note_off_c, 4, 59, 95
4, 27600, Note_off_c, 4, 57, 95
4, 27600, Note_off_c, 4, 50, 95
4, 27600, Note_on_c, 4, 67, 95
4, 27600, Note_on_c, 4, 59, 95
4, 27600, Note_on_c, 4, 57, 95
4, 27600, Note_on_c, 4, 50, 95
4, 28080, Note_off_c, 4, 67, 95
4, 28080, Note_off_c, 4, 59, 95
4, 28080, Note_off_c, 4, 57, 95
4, 28080, Note_off_c, 4, 50, 95
4, 28080, Note_on_c, 4, 67, 95
4, 28080, Note_on_c, 4, 59, 95
4, 28080, Note_on_c, 4, 57, 95
4, 28080, Note_on_c, 4, 50, 95
4, 28560, Note_off_c, 4, 67, 95
4, 28560, Note_off_c, 4, 59, 95
4, 28560, Note_off_c, 4, 57, 95
4, 28560, Note_off_c, 4, 50, 95
4, 28560, Note_on_c, 4, 67, 95
4, 28560, Note_on_c, 4, 59, 95
4, 28560, Note_on_c, 4, 57, 95
4, 28560, Note_on_c, 4, 50, 95
4, 28800, Note_off_c, 4, 67, 95
4, 28800, Note_off_c, 4, 59, 95
4, 28800, Note_off_c, 4, 57, 95
4, 28800, Note_off_c, 4, 50, 95
4, 28800, Note_on_c, 4, 66, 95
4, 28800, Note_on_c, 4, 62, 95
4, 28800, Note_on_c, 4, 57, 95
4, 28800, Note_on_c, 4, 50, 95
4, 29280, Note_off_c, 4, 66, 95
4, 29280, Note_off_c, 4, 62, 95
4, 29280, Note_off_c, 4, 57, 95
4, 29280, Note_off_c, 4, 50, 95
4, 29280, Note_on_c, 4, 66, 95
4, 29280, Note_on_c, 4, 62, 95
4, 29280, Note_on_c, 4, 57, 95
4, 29280, Note_on_c, 4, 50, 95
4, 29520, Note_off_c, 4, 66, 95
4, 29520, Note_off_c, 4, 62, 95
4, 29520, Note_off_c, 4, 57, 95
4, 29520, Note_off_c, 4, 50, 95
4, 29520, Note_on_c, 4, 66, 95
4, 29520, Note_on_c, 4, 62, 95
4, 29520, Note_on_c, 4, 57, 95
4, 29520, Note_on_c, 4, 50, 95
4, 30000, Note_off_c, 4, 66, 95
4, 30000, Note_off_c, 4, 62, 95
4, 30000, Note_off_c, 4, 57, 95
4, 30000, Note_off_c, 4, 50, 95
4, 30000, Note_on_c, 4, 66, 95
4, 30000, Note_on_c, 4, 62, 95
4, 30000, Note_on_c, 4, 57, 95
4, 30000, Note_on_c, 4, 50, 95
4, 30240, Note_off_c, 4, 66, 95
4, 30240, Note_off_c, 4, 62, 95
4, 30240, Note_off_c, 4, 57, 95
4, 30240, Note_off_c, 4, 50, 95
4, 30240, Note_on_c, 4, 66, 95
4, 30240, Note_on_c, 4, 62, 95
4, 30240, Note_on_c, 4, 57, 95
4, 30240, Note_on_c, 4, 50, 95
4, 30720, Note_off_c, 4, 66, 95
4, 30720, Note_off_c, 4, 62, 95
4, 30720, Note_off_c, 4, 57, 95
4, 30720, Note_off_c, 4, 50, 95
4, 30720, Note_on_c, 4, 66, 95
4, 30720, Note_on_c, 4, 62, 95
4, 30720, Note_on_c, 4, 57, 95
4, 30720, Note_on_c, 4, 50, 95
4, 30960, Note_off_c, 4, 66, 95
4, 30960, Note_off_c, 4, 62, 95
4, 30960, Note_off_c, 4, 57, 95
4, 30960, Note_off_c, 4, 50, 95
4, 30960, Note_on_c, 4, 66, 95
4, 30960, Note_on_c, 4, 62, 95
4, 30960, Note_on_c, 4, 57, 95
4, 30960, Note_on_c, 4, 50, 95
4, 31440, Note_off_c, 4, 66, 95
4, 31440, Note_off_c, 4, 62, 95
4, 31440, Note_off_c, 4, 57, 95
4, 31440, Note_off_c, 4, 50, 95
4, 31440, Note_on_c, 4, 66, 95
4, 31440, Note_on_c, 4, 62, 95
4, 31440, Note_on_c, 4, 57, 95
4, 31440, Note_on_c, 4, 50, 95
4, 31680, Note_off_c, 4, 66, 95
4, 31680, Note_off_c, 4, 62, 95
4, 31680, Note_off_c, 4, 57, 95
4, 31680, Note_off_c, 4, 50, 95
4, 31680, Note_on_c, 4, 66, 95
4, 31680, Note_on_c, 4, 62, 95
4, 31680, Note_on_c, 4, 57, 95
4, 31680, Note_on_c, 4, 50, 95
4, 32160, Note_off_c, 4, 66, 95
4, 32160, Note_off_c, 4, 62, 95
4, 32160, Note_off_c, 4, 57, 95
4, 32160, Note_off_c, 4, 50, 95
4, 32160, Note_on_c, 4, 66, 95
4, 32160, Note_on_c, 4, 62, 95
4, 32160, Note_on_c, 4, 57, 95
4, 32160, Note_on_c, 4, 50, 95
4, 32400, Note_off_c, 4, 66, 95
4, 32400, Note_off_c, 4, 62, 95
4, 32400, Note_off_c, 4, 57, 95
4, 32400, Note_off_c, 4, 50, 95
4, 32400, Note_on_c, 4, 66, 95
4, 32400, Note_on_c, 4, 62, 95
4, 32400, Note_on_c, 4, 57, 95
4, 32400, Note_on_c, 4, 50, 95
4, 32640, Note_off_c, 4, 66, 95
4, 32640, Note_off_c, 4, 62, 95
4, 32640, Note_off_c, 4, 57, 95
4, 32640, Note_off_c, 4, 50, 95
4, 32640, Note_on_c, 4, 66, 95
4, 32640, Note_on_c, 4, 62, 95
4, 32640, Note_on_c, 4, 57, 95
4, 32640, Note_on_c, 4, 50, 95
4, 32880, Note_off_c, 4, 66, 95
4, 32880, Note_off_c, 4, 62, 95
4, 32880, Note_off_c, 4, 57, 95
4, 32880, Note_off_c, 4, 50, 95
4, 32880, Note_on_c, 4, 66, 95
4, 32880, Note_on_c, 4, 62, 95
4, 32880, Note_on_c, 4, 57, 95
4, 32880, Note_on_c, 4, 50, 95
4, 33120, Note_off_c, 4, 66, 95
4, 33120, Note_off_c, 4, 62, 95
4, 33120, Note_off_c, 4, 57, 95
4, 33120, Note_off_c, 4, 50, 95
4, 33120, Note_on_c, 4, 67, 95
4, 33120, Note_on_c, 4, 59, 95
4, 33120, Note_on_c, 4, 57, 95
4, 33120, Note_on_c, 4, 50, 95
4, 33360, Note_off_c, 4, 67, 95
4, 33360, Note_off_c, 4, 59, 95
4, 33360, Note_off_c, 4, 57, 95
4, 33360, Note_off_c, 4, 50, 95
4, 33360, Note_on_c, 4, 67, 95
4, 33360, Note_on_c, 4, 59, 95
4, 33360, Note_on_c, 4, 57, 95
4, 33360, Note_on_c, 4, 50, 95
4, 33840, Note_off_c, 4, 67, 95
4, 33840, Note_off_c, 4, 59, 95
4, 33840, Note_off_c, 4, 57, 95
4, 33840, Note_off_c, 4, 50, 95
4, 33840, Note_on_c, 4, 67, 95
4, 33840, Note_on_c, 4, 59, 95
4, 33840, Note_on_c, 4, 57, 95
4, 33840, Note_on_c, 4, 50, 95
4, 34320, Note_off_c, 4, 67, 95
4, 34320, Note_off_c, 4, 59, 95
4, 34320, Note_off_c, 4, 57, 95
4, 34320, Note_off_c, 4, 50, 95
4, 34320, Note_on_c, 4, 67, 95
4, 34320, Note_on_c, 4, 59, 95
4, 34320, Note_on_c, 4, 57, 95
4, 34320, Note_on_c, 4, 50, 95
4, 34560, Note_off_c, 4, 67, 95
4, 34560, Note_off_c, 4, 59, 95
4, 34560, Note_off_c, 4, 57, 95
4, 34560, Note_off_c, 4, 50, 95
4, 34560, Note_on_c, 4, 66, 95
4, 34560, Note_on_c, 4, 62, 95
4, 34560, Note_on_c, 4, 57, 95
4, 34560, Note_on_c, 4, 50, 95
4, 35040, Note_off_c, 4, 66, 95
4, 35040, Note_off_c, 4, 62, 95
4, 35040, Note_off_c, 4, 57, 95
4, 35040, Note_off_c, 4, 50, 95
4, 35040, Note_on_c, 4, 66, 95
4, 35040, Note_on_c, 4, 62, 95
4, 35040, Note_on_c, 4, 57, 95
4, 35040, Note_on_c, 4, 50, 95
4, 35280, Note_off_c, 4, 66, 95
4, 35280, Note_off_c, 4, 62, 95
4, 35280, Note_off_c, 4, 57, 95
4, 35280, Note_off_c, 4, 50, 95
4, 35280, Note_on_c, 4, 66, 95
4, 35280, Note_on_c, 4, 62, 95
4, 35280, Note_on_c, 4, 57, 95
4, 35280, Note_on_c, 4, 50, 95
4, 35760, Note_off_c, 4, 66, 95
4, 35760, Note_off_c, 4, 62, 95
4, 35760, Note_off_c, 4, 57, 95
4, 35760, Note_off_c, 4, 50, 95
4, 35760, Note_on_c, 4, 66, 95
4, 35760, Note_on_c, 4, 62, 95
4, 35760, Note_on_c, 4, 57, 95
4, 35760, Note_on_c, 4, 50, 95
4, 36000, Note_off_c, 4, 66, 95
4, 36000, Note_off_c, 4, 62, 95
4, 36000, Note_off_c, 4, 57, 95
4, 36000, Note_off_c, 4, 50, 95
4, 36000, Note_on_c, 4, 66, 95
4, 36000, Note_on_c, 4, 62, 95
4, 36000, Note_on_c, 4, 57, 95
4, 36000, Note_on_c, 4, 50, 95
4, 36480, Note_off_c, 4, 66, 95
4, 36480, Note_off_c, 4, 62, 95
4, 36480, Note_off_c, 4, 57, 95
4, 36480, Note_off_c, 4, 50, 95
4, 36480, Note_on_c, 4, 66, 95
4, 36480, Note_on_c, 4, 62, 95
4, 36480, Note_on_c, 4, 57, 95
4, 36480, Note_on_c, 4, 50, 95
4, 36720, Note_off_c, 4, 66, 95
4, 36720, Note_off_c, 4, 62, 95
4, 36720, Note_off_c, 4, 57, 95
4, 36720, Note_off_c, 4, 50, 95
4, 36720, Note_on_c, 4, 66, 95
4, 36720, Note_on_c, 4, 62, 95
4, 36720, Note_on_c, 4, 57, 95
4, 36720, Note_on_c, 4, 50, 95
4, 37200, Note_off_c, 4, 66, 95
4, 37200, Note_off_c, 4, 62, 95
4, 37200, Note_off_c, 4, 57, 95
4, 37200, Note_off_c, 4, 50, 95
4, 37200, Note_on_c, 4, 66, 95
4, 37200, Note_on_c, 4, 62, 95
4, 37200, Note_on_c, 4, 57, 95
4, 37200, Note_on_c, 4, 50, 95
4, 37440, Note_off_c, 4, 66, 95
4, 37440, Note_off_c, 4, 62, 95
4, 37440, Note_off_c, 4, 57, 95
4, 37440, Note_off_c, 4, 50, 95
4, 37440, Note_on_c, 4, 67, 95
4, 37440, Note_on_c, 4, 59, 95
4, 37440, Note_on_c, 4, 57, 95
4, 37440, Note_on_c, 4, 50, 95
4, 37920, Note_off_c, 4, 67, 95
4, 37920, Note_off_c, 4, 59, 95
4, 37920, Note_off_c, 4, 57, 95
4, 37920, Note_off_c, 4, 50, 95
4, 37920, Note_on_c, 4, 67, 95
4, 37920, Note_on_c, 4, 59, 95
4, 37920, Note_on_c, 4, 57, 95
4, 37920, Note_on_c, 4, 50, 95
4, 38160, Note_off_c, 4, 67, 95
4, 38160, Note_off_c, 4, 59, 95
4, 38160, Note_off_c, 4, 57, 95
4, 38160, Note_off_c, 4, 50, 95
4, 38160, Note_on_c, 4, 67, 95
4, 38160, Note_on_c, 4, 59, 95
4, 38160, Note_on_c, 4, 57, 95
4, 38160, Note_on_c, 4, 50, 95
4, 38400, Note_off_c, 4, 67, 95
4, 38400, Note_off_c, 4, 59, 95
4, 38400, Note_off_c, 4, 57, 95
4, 38400, Note_off_c, 4, 50, 95
4, 38400, Note_on_c, 4, 67, 95
4, 38400, Note_on_c, 4, 59, 95
4, 38400, Note_on_c, 4, 57, 95
4, 38400, Note_on_c, 4, 50, 95
4, 38640, Note_off_c, 4, 67, 95
4, 38640, Note_off_c, 4, 59, 95
4, 38640, Note_off_c, 4, 57, 95
4, 38640, Note_off_c, 4, 50, 95
4, 38640, Note_on_c, 4, 67, 95
4, 38640, Note_on_c, 4, 59, 95
4, 38640, Note_on_c, 4, 57, 95
4, 38640, Note_on_c, 4, 50, 95
4, 38880, Note_off_c, 4, 67, 95
4, 38880, Note_off_c, 4, 59, 95
4, 38880, Note_off_c, 4, 57, 95
4, 38880, Note_off_c, 4, 50, 95
4, 38880, Note_on_c, 4, 67, 95
4, 38880, Note_on_c, 4, 59, 95
4, 38880, Note_on_c, 4, 57, 95
4, 38880, Note_on_c, 4, 50, 95
4, 39120, Note_off_c, 4, 67, 95
4, 39120, Note_off_c, 4, 59, 95
4, 39120, Note_off_c, 4, 57, 95
4, 39120, Note_off_c, 4, 50, 95
4, 39120, Note_on_c, 4, 67, 95
4, 39120, Note_on_c, 4, 59, 95
4, 39120, Note_on_c, 4, 57, 95
4, 39120, Note_on_c, 4, 50, 95
4, 39360, Note_off_c, 4, 67, 95
4, 39360, Note_off_c, 4, 59, 95
4, 39360, Note_off_c, 4, 57, 95
4, 39360, Note_off_c, 4, 50, 95
4, 39360, Note_on_c, 4, 67, 95
4, 39360, Note_on_c, 4, 59, 95
4, 39360, Note_on_c, 4, 57, 95
4, 39360, Note_on_c, 4, 50, 95
4, 39600, Note_off_c, 4, 67, 95
4, 39600, Note_off_c, 4, 59, 95
4, 39600, Note_off_c, 4, 57, 95
4, 39600, Note_off_c, 4, 50, 95
4, 39600, Note_on_c, 4, 67, 95
4, 39600, Note_on_c, 4, 59, 95
4, 39600, Note_on_c, 4, 57, 95
4, 39600, Note_on_c, 4, 50, 95
4, 39840, Note_off_c, 4, 67, 95
4, 39840, Note_off_c, 4, 59, 95
4, 39840, Note_off_c, 4, 57, 95
4, 39840, Note_off_c, 4, 50, 95
4, 39840, Note_on_c, 4, 67, 95
4, 39840, Note_on_c, 4, 59, 95
4, 39840, Note_on_c, 4, 57, 95
4, 39840, Note_on_c, 4, 50, 95
4, 40080, Note_off_c, 4, 67, 95
4, 40080, Note_off_c, 4, 59, 95
4, 40080, Note_off_c, 4, 57, 95
4, 40080, Note_off_c, 4, 50, 95
4, 40080, Note_on_c, 4, 67, 95
4, 40080, Note_on_c, 4, 59, 95
4, 40080, Note_on_c, 4, 57, 95
4, 40080, Note_on_c, 4, 50, 95
4, 40320, Note_off_c, 4, 67, 95
4, 40320, Note_off_c, 4, 59, 95
4, 40320, Note_off_c, 4, 57, 95
4, 40320, Note_off_c, 4, 50, 95
4, 40320, Note_on_c, 4, 64, 95
4, 40320, Note_on_c, 4, 59, 95
4, 40320, Note_on_c, 4, 55, 95
4, 40320, Note_on_c, 4, 52, 95
4, 40320, Note_on_c, 4, 47, 95
4, 40320, Note_on_c, 4, 40, 95
4, 40800, Note_off_c, 4, 64, 95
4, 40800, Note_off_c, 4, 59, 95
4, 40800, Note_off_c, 4, 55, 95
4, 40800, Note_off_c, 4, 52, 95
4, 40800, Note_off_c, 4, 47, 95
4, 40800, Note_off_c, 4, 40, 95
4, 40800, Note_on_c, 4, 64, 95
4, 40800, Note_on_c, 4, 59, 95
4, 40800, Note_on_c, 4, 55, 95
4, 40800, Note_on_c, 4, 52, 95
4, 40800, Note_on_c, 4, 47, 95
4, 40800, Note_on_c, 4, 40, 95
4, 41040, Note_off_c, 4, 64, 95
4, 41040, Note_off_c, 4, 59, 95
4, 41040, Note_off_c, 4, 55, 95
4, 41040, Note_off_c, 4, 52, 95
4, 41040, Note_off_c, 4, 47, 95
4, 41040, Note_off_c, 4, 40, 95
4, 41040, Note_on_c, 4, 64, 95
4, 41040, Note_on_c, 4, 59, 95
4, 41040, Note_on_c, 4, 55, 95
4, 41040, Note_on_c, 4, 52, 95
4, 41040, Note_on_c, 4, 47, 95
4, 41040, Note_on_c, 4, 40, 95
4, 41280, Note_off_c, 4, 64, 95
4, 41280, Note_off_c, 4, 59, 95
4, 41280, Note_off_c, 4, 55, 95
4, 41280, Note_off_c, 4, 52, 95
4, 41280, Note_off_c, 4, 47, 95
4, 41280, Note_off_c, 4, 40, 95
4, 41280, Note_on_c, 4, 64, 95
4, 41280, Note_on_c, 4, 59, 95
4, 41280, Note_on_c, 4, 55, 95
4, 41280, Note_on_c, 4, 52, 95
4, 41280, Note_on_c, 4, 47, 95
4, 41280, Note_on_c, 4, 40, 95
4, 41520, Note_off_c, 4, 64, 95
4, 41520, Note_off_c, 4, 59, 95
4, 41520, Note_off_c, 4, 55, 95
4, 41520, Note_off_c, 4, 52, 95
4, 41520, Note_off_c, 4, 47, 95
4, 41520, Note_off_c, 4, 40, 95
4, 41520, Note_on_c, 4, 64, 95
4, 41520, Note_on_c, 4, 59, 95
4, 41520, Note_on_c, 4, 55, 95
4, 41520, Note_on_c, 4, 52, 95
4, 41520, Note_on_c, 4, 47, 95
4, 41520, Note_on_c, 4, 40, 95
4, 41760, Note_off_c, 4, 64, 95
4, 41760, Note_off_c, 4, 59, 95
4, 41760, Note_off_c, 4, 55, 95
4, 41760, Note_off_c, 4, 52, 95
4, 41760, Note_off_c, 4, 47, 95
4, 41760, Note_off_c, 4, 40, 95
4, 41760, Note_on_c, 4, 64, 95
4, 41760, Note_on_c, 4, 59, 95
4, 41760, Note_on_c, 4, 55, 95
4, 41760, Note_on_c, 4, 52, 95
4, 41760, Note_on_c, 4, 47, 95
4, 41760, Note_on_c, 4, 40, 95
4, 42240, Note_off_c, 4, 64, 95
4, 42240, Note_off_c, 4, 59, 95
4, 42240, Note_off_c, 4, 55, 95
4, 42240, Note_off_c, 4, 52, 95
4, 42240, Note_off_c, 4, 47, 95
4, 42240, Note_off_c, 4, 40, 95
4, 42240, Note_on_c, 4, 64, 111
4, 42240, Note_on_c, 4, 59, 111
4, 42240, Note_on_c, 4, 55, 111
4, 42240, Note_on_c, 4, 52, 111
4, 42240, Note_on_c, 4, 47, 111
4, 42240, Note_on_c, 4, 40, 111
4, 42480, Note_off_c, 4, 64, 111
4, 42480, Note_off_c, 4, 59, 111
4, 42480, Note_off_c, 4, 55, 111
4, 42480, Note_off_c, 4, 52, 111
4, 42480, Note_off_c, 4, 47, 111
4, 42480, Note_off_c, 4, 40, 111
4, 42480, Note_on_c, 4, 64, 95
4, 42480, Note_on_c, 4, 59, 95
4, 42480, Note_on_c, 4, 55, 95
4, 42480, Note_on_c, 4, 52, 95
4, 42480, Note_on_c, 4, 47, 95
4, 42480, Note_on_c, 4, 40, 95
4, 42720, Note_off_c, 4, 64, 95
4, 42720, Note_off_c, 4, 59, 95
4, 42720, Note_off_c, 4, 55, 95
4, 42720, Note_off_c, 4, 52, 95
4, 42720, Note_off_c, 4, 47, 95
4, 42720, Note_off_c, 4, 40, 95
4, 42720, Note_on_c, 4, 64, 95
4, 42720, Note_on_c, 4, 59, 95
4, 42720, Note_on_c, 4, 55, 95
4, 42720, Note_on_c, 4, 52, 95
4, 42720, Note_on_c, 4, 47, 95
4, 42720, Note_on_c, 4, 40, 95
4, 42960, Note_off_c, 4, 64, 95
4, 42960, Note_off_c, 4, 59, 95
4, 42960, Note_off_c, 4, 55, 95
4, 42960, Note_off_c, 4, 52, 95
4, 42960, Note_off_c, 4, 47, 95
4, 42960, Note_off_c, 4, 40, 95
4, 42960, Note_on_c, 4, 64, 95
4, 42960, Note_on_c, 4, 59, 95
4, 42960, Note_on_c, 4, 55, 95
4, 42960, Note_on_c, 4, 52, 95
4, 42960, Note_on_c, 4, 47, 95
4, 42960, Note_on_c, 4, 40, 95
4, 43200, Note_off_c, 4, 64, 95
4, 43200, Note_off_c, 4, 59, 95
4, 43200, Note_off_c, 4, 55, 95
4, 43200, Note_off_c, 4, 52, 95
4, 43200, Note_off_c, 4, 47, 95
4, 43200, Note_off_c, 4, 40, 95
4, 43200, Note_on_c, 4, 64, 95
4, 43200, Note_on_c, 4, 59, 95
4, 43200, Note_on_c, 4, 55, 95
4, 43200, Note_on_c, 4, 52, 95
4, 43200, Note_on_c, 4, 47, 95
4, 43200, Note_on_c, 4, 40, 95
4, 43680, Note_off_c, 4, 64, 95
4, 43680, Note_off_c, 4, 59, 95
4, 43680, Note_off_c, 4, 55, 95
4, 43680, Note_off_c, 4, 52, 95
4, 43680, Note_off_c, 4, 47, 95
4, 43680, Note_off_c, 4, 40, 95
4, 43680, Note_on_c, 4, 64, 95
4, 43680, Note_on_c, 4, 59, 95
4, 43680, Note_on_c, 4, 55, 95
4, 43680, Note_on_c, 4, 52, 95
4, 43680, Note_on_c, 4, 47, 95
4, 43680, Note_on_c, 4, 40, 95
4, 43920, Note_off_c, 4, 64, 95
4, 43920, Note_off_c, 4, 59, 95
4, 43920, Note_off_c, 4, 55, 95
4, 43920, Note_off_c, 4, 52, 95
4, 43920, Note_off_c, 4, 47, 95
4, 43920, Note_off_c, 4, 40, 95
4, 43920, Note_on_c, 4, 64, 95
4, 43920, Note_on_c, 4, 59, 95
4, 43920, Note_on_c, 4, 55, 95
4, 43920, Note_on_c, 4, 52, 95
4, 43920, Note_on_c, 4, 47, 95
4, 43920, Note_on_c, 4, 40, 95
4, 44160, Note_off_c, 4, 64, 95
4, 44160, Note_off_c, 4, 59, 95
4, 44160, Note_off_c, 4, 55, 95
4, 44160, Note_off_c, 4, 52, 95
4, 44160, Note_off_c, 4, 47, 95
4, 44160, Note_off_c, 4, 40, 95
4, 44160, Note_on_c, 4, 64, 95
4, 44160, Note_on_c, 4, 59, 95
4, 44160, Note_on_c, 4, 55, 95
4, 44160, Note_on_c, 4, 52, 95
4, 44160, Note_on_c, 4, 47, 95
4, 44160, Note_on_c, 4, 40, 95
4, 44400, Note_off_c, 4, 64, 95
4, 44400, Note_off_c, 4, 59, 95
4, 44400, Note_off_c, 4, 55, 95
4, 44400, Note_off_c, 4, 52, 95
4, 44400, Note_off_c, 4, 47, 95
4, 44400, Note_off_c, 4, 40, 95
4, 44400, Note_on_c, 4, 64, 95
4, 44400, Note_on_c, 4, 59, 95
4, 44400, Note_on_c, 4, 55, 95
4, 44400, Note_on_c, 4, 52, 95
4, 44400, Note_on_c, 4, 47, 95
4, 44400, Note_on_c, 4, 40, 95
4, 44640, Note_off_c, 4, 64, 95
4, 44640, Note_off_c, 4, 59, 95
4, 44640, Note_off_c, 4, 55, 95
4, 44640, Note_off_c, 4, 52, 95
4, 44640, Note_off_c, 4, 47, 95
4, 44640, Note_off_c, 4, 40, 95
4, 44640, Note_on_c, 4, 64, 95
4, 44640, Note_on_c, 4, 59, 95
4, 44640, Note_on_c, 4, 55, 95
4, 44640, Note_on_c, 4, 52, 95
4, 44640, Note_on_c, 4, 47, 95
4, 44640, Note_on_c, 4, 40, 95
4, 45120, Note_off_c, 4, 64, 95
4, 45120, Note_off_c, 4, 59, 95
4, 45120, Note_off_c, 4, 55, 95
4, 45120, Note_off_c, 4, 52, 95
4, 45120, Note_off_c, 4, 47, 95
4, 45120, Note_off_c, 4, 40, 95
4, 45120, Note_on_c, 4, 64, 111
4, 45120, Note_on_c, 4, 59, 111
4, 45120, Note_on_c, 4, 55, 111
4, 45120, Note_on_c, 4, 52, 111
4, 45120, Note_on_c, 4, 47, 111
4, 45120, Note_on_c, 4, 40, 111
4, 45360, Note_off_c, 4, 64, 111
4, 45360, Note_off_c, 4, 59, 111
4, 45360, Note_off_c, 4, 55, 111
4, 45360, Note_off_c, 4, 52, 111
4, 45360, Note_off_c, 4, 47, 111
4, 45360, Note_off_c, 4, 40, 111
4, 45360, Note_on_c, 4, 64, 95
4, 45360, Note_on_c, 4, 59, 95
4, 45360, Note_on_c, 4, 55, 95
4, 45360, Note_on_c, 4, 52, 95
4, 45360, Note_on_c, 4, 47, 95
4, 45360, Note_on_c, 4, 40, 95
4, 45600, Note_off_c, 4, 64, 95
4, 45600, Note_off_c, 4, 59, 95
4, 45600, Note_off_c, 4, 55, 95
4, 45600, Note_off_c, 4, 52, 95
4, 45600, Note_off_c, 4, 47, 95
4, 45600, Note_off_c, 4, 40, 95
4, 45600, Note_on_c, 4, 64, 95
4, 45600, Note_on_c, 4, 59, 95
4, 45600, Note_on_c, 4, 55, 95
4, 45600, Note_on_c, 4, 52, 95
4, 45600, Note_on_c, 4, 47, 95
4, 45600, Note_on_c, 4, 40, 95
4, 45840, Note_off_c, 4, 64, 95
4, 45840, Note_off_c, 4, 59, 95
4, 45840, Note_off_c, 4, 55, 95
4, 45840, Note_off_c, 4, 52, 95
4, 45840, Note_off_c, 4, 47, 95
4, 45840, Note_off_c, 4, 40, 95
4, 45840, Note_on_c, 4, 64, 95
4, 45840, Note_on_c, 4, 59, 95
4, 45840, Note_on_c, 4, 55, 95
4, 45840, Note_on_c, 4, 52, 95
4, 45840, Note_on_c, 4, 47, 95
4, 45840, Note_on_c, 4, 40, 95
4, 46080, Note_off_c, 4, 64, 95
4, 46080, Note_off_c, 4, 59, 95
4, 46080, Note_off_c, 4, 55, 95
4, 46080, Note_off_c, 4, 52, 95
4, 46080, Note_off_c, 4, 47, 95
4, 46080, Note_off_c, 4, 40, 95
4, 46080, Note_on_c, 4, 64, 95
4, 46080, Note_on_c, 4, 55, 95
4, 46080, Note_on_c, 4, 53, 95
4, 46080, Note_on_c, 4, 48, 95
4, 46080, Note_on_c, 4, 41, 95
4, 46560, Note_off_c, 4, 64, 95
4, 46560, Note_off_c, 4, 55, 95
4, 46560, Note_off_c, 4, 53, 95
4, 46560, Note_off_c, 4, 48, 95
4, 46560, Note_off_c, 4, 41, 95
4, 46560, Note_on_c, 4, 64, 95
4, 46560, Note_on_c, 4, 55, 95
4, 46560, Note_on_c, 4, 53, 95
4, 46560, Note_on_c, 4, 48, 95
4, 46560, Note_on_c, 4, 41, 95
4, 46800, Note_off_c, 4, 64, 95
4, 46800, Note_off_c, 4, 55, 95
4, 46800, Note_off_c, 4, 53, 95
4, 46800, Note_off_c, 4, 48, 95
4, 46800, Note_off_c, 4, 41, 95
4, 46800, Note_on_c, 4, 64, 95
4, 46800, Note_on_c, 4, 55, 95
4, 46800, Note_on_c, 4, 53, 95
4, 46800, Note_on_c, 4, 48, 95
4, 46800, Note_on_c, 4, 41, 95
4, 47040, Note_off_c, 4, 64, 95
4, 47040, Note_off_c, 4, 55, 95
4, 47040, Note_off_c, 4, 53, 95
4, 47040, Note_off_c, 4, 48, 95
4, 47040, Note_off_c, 4, 41, 95
4, 47040, Note_on_c, 4, 64, 95
4, 47040, Note_on_c, 4, 55, 95
4, 47040, Note_on_c, 4, 53, 95
4, 47040, Note_on_c, 4, 48, 95
4, 47040, Note_on_c, 4, 41, 95
4, 47280, Note_off_c, 4, 64, 95
4, 47280, Note_off_c, 4, 55, 95
4, 47280, Note_off_c, 4, 53, 95
4, 47280, Note_off_c, 4, 48, 95
4, 47280, Note_off_c, 4, 41, 95
4, 47280, Note_on_c, 4, 64, 95
4, 47280, Note_on_c, 4, 55, 95
4, 47280, Note_on_c, 4, 53, 95
4, 47280, Note_on_c, 4, 48, 95
4, 47280, Note_on_c, 4, 41, 95
4, 47520, Note_off_c, 4, 64, 95
4, 47520, Note_off_c, 4, 55, 95
4, 47520, Note_off_c, 4, 53, 95
4, 47520, Note_off_c, 4, 48, 95
4, 47520, Note_off_c, 4, 41, 95
4, 47520, Note_on_c, 4, 64, 95
4, 47520, Note_on_c, 4, 55, 95
4, 47520, Note_on_c, 4, 53, 95
4, 47520, Note_on_c, 4, 48, 95
4, 47520, Note_on_c, 4, 41, 95
4, 48000, Note_off_c, 4, 64, 95
4, 48000, Note_off_c, 4, 55, 95
4, 48000, Note_off_c, 4, 53, 95
4, 48000, Note_off_c, 4, 48, 95
4, 48000, Note_off_c, 4, 41, 95
4, 48000, Note_on_c, 4, 64, 111
4, 48000, Note_on_c, 4, 55, 111
4, 48000, Note_on_c, 4, 53, 111
4, 48000, Note_on_c, 4, 48, 111
4, 48000, Note_on_c, 4, 41, 111
4, 48240, Note_off_c, 4, 64, 111
4, 48240, Note_off_c, 4, 55, 111
4, 48240, Note_off_c, 4, 53, 111
4, 48240, Note_off_c, 4, 48, 111
4, 48240, Note_off_c, 4, 41, 111
4, 48240, Note_on_c, 4, 64, 95
4, 48240, Note_on_c, 4, 55, 95
4, 48240, Note_on_c, 4, 53, 95
4, 48240, Note_on_c, 4, 48, 95
4, 48240, Note_on_c, 4, 41, 95
4, 48480, Note_off_c, 4, 64, 95
4, 48480, Note_off_c, 4, 55, 95
4, 48480, Note_off_c, 4, 53, 95
4, 48480, Note_off_c, 4, 48, 95
4, 48480, Note_off_c, 4, 41, 95
4, 48480, Note_on_c, 4, 64, 95
4, 48480, Note_on_c, 4, 55, 95
4, 48480, Note_on_c, 4, 53, 95
4, 48480, Note_on_c, 4, 48, 95
4, 48480, Note_on_c, 4, 41, 95
4, 48720, Note_off_c, 4, 64, 95
4, 48720, Note_off_c, 4, 55, 95
4, 48720, Note_off_c, 4, 53, 95
4, 48720, Note_off_c, 4, 48, 95
4, 48720, Note_off_c, 4, 41, 95
4, 48720, Note_on_c, 4, 64, 95
4, 48720, Note_on_c, 4, 55, 95
4, 48720, Note_on_c, 4, 53, 95
4, 48720, Note_on_c, 4, 48, 95
4, 48720, Note_on_c, 4, 41, 95
4, 48960, Note_off_c, 4, 64, 95
4, 48960, Note_off_c, 4, 55, 95
4, 48960, Note_off_c, 4, 53, 95
4, 48960, Note_off_c, 4, 48, 95
4, 48960, Note_off_c, 4, 41, 95
4, 48960, Note_on_c, 4, 64, 95
4, 48960, Note_on_c, 4, 59, 95
4, 48960, Note_on_c, 4, 55, 95
4, 48960, Note_on_c, 4, 52, 95
4, 48960, Note_on_c, 4, 47, 95
4, 48960, Note_on_c, 4, 40, 95
4, 49440, Note_off_c, 4, 64, 95
4, 49440, Note_off_c, 4, 59, 95
4, 49440, Note_off_c, 4, 55, 95
4, 49440, Note_off_c, 4, 52, 95
4, 49440, Note_off_c, 4, 47, 95
4, 49440, Note_off_c, 4, 40, 95
4, 49440, Note_on_c, 4, 64, 95
4, 49440, Note_on_c, 4, 59, 95
4, 49440, Note_on_c, 4, 55, 95
4, 49440, Note_on_c, 4, 52, 95
4, 49440, Note_on_c, 4, 47, 95
4, 49440, Note_on_c, 4, 40, 95
4, 49680, Note_off_c, 4, 64, 95
4, 49680, Note_off_c, 4, 59, 95
4, 49680, Note_off_c, 4, 55, 95
4, 49680, Note_off_c, 4, 52, 95
4, 49680, Note_off_c, 4, 47, 95
4, 49680, Note_off_c, 4, 40, 95
4, 49680, Note_on_c, 4, 64, 95
4, 49680, Note_on_c, 4, 59, 95
4, 49680, Note_on_c, 4, 55, 95
4, 49680, Note_on_c, 4, 52, 95
4, 49680, Note_on_c, 4, 47, 95
4, 49680, Note_on_c, 4, 40, 95
4, 49920, Note_off_c, 4, 64, 95
4, 49920, Note_off_c, 4, 59, 95
4, 49920, Note_off_c, 4, 55, 95
4, 49920, Note_off_c, 4, 52, 95
4, 49920, Note_off_c, 4, 47, 95
4, 49920, Note_off_c, 4, 40, 95
4, 49920, Note_on_c, 4, 64, 95
4, 49920, Note_on_c, 4, 59, 95
4, 49920, Note_on_c, 4, 55, 95
4, 49920, Note_on_c, 4, 52, 95
4, 49920, Note_on_c, 4, 47, 95
4, 49920, Note_on_c, 4, 40, 95
4, 50160, Note_off_c, 4, 64, 95
4, 50160, Note_off_c, 4, 59, 95
4, 50160, Note_off_c, 4, 55, 95
4, 50160, Note_off_c, 4, 52, 95
4, 50160, Note_off_c, 4, 47, 95
4, 50160, Note_off_c, 4, 40, 95
4, 50160, Note_on_c, 4, 64, 95
4, 50160, Note_on_c, 4, 59, 95
4, 50160, Note_on_c, 4, 55, 95
4, 50160, Note_on_c, 4, 52, 95
4, 50160, Note_on_c, 4, 47, 95
4, 50160, Note_on_c, 4, 40, 95
4, 50400, Note_off_c, 4, 64, 95
4, 50400, Note_off_c, 4, 59, 95
4, 50400, Note_off_c, 4, 55, 95
4, 50400, Note_off_c, 4, 52, 95
4, 50400, Note_off_c, 4, 47, 95
4, 50400, Note_off_c, 4, 40, 95
4, 50400, Note_on_c, 4, 64, 95
4, 50400, Note_on_c, 4, 59, 95
4, 50400, Note_on_c, 4, 55, 95
4, 50400, Note_on_c, 4, 52, 95
4, 50400, Note_on_c, 4, 47, 95
4, 50400, Note_on_c, 4, 40, 95
4, 50880, Note_off_c, 4, 64, 95
4, 50880, Note_off_c, 4, 59, 95
4, 50880, Note_off_c, 4, 55, 95
4, 50880, Note_off_c, 4, 52, 95
4, 50880, Note_off_c, 4, 47, 95
4, 50880, Note_off_c, 4, 40, 95
4, 50880, Note_on_c, 4, 64, 111
4, 50880, Note_on_c, 4, 59, 111
4, 50880, Note_on_c, 4, 55, 111
4, 50880, Note_on_c, 4, 52, 111
4, 50880, Note_on_c, 4, 47, 111
4, 50880, Note_on_c, 4, 40, 111
4, 51120, Note_off_c, 4, 64, 111
4, 51120, Note_off_c, 4, 59, 111
4, 51120, Note_off_c, 4, 55, 111
4, 51120, Note_off_c, 4, 52, 111
4, 51120, Note_off_c, 4, 47, 111
4, 51120, Note_off_c, 4, 40, 111
4, 51120, Note_on_c, 4, 64, 95
4, 51120, Note_on_c, 4, 59, 95
4, 51120, Note_on_c, 4, 55, 95
4, 51120, Note_on_c, 4, 52, 95
4, 51120, Note_on_c, 4, 47, 95
4, 51120, Note_on_c, 4, 40, 95
4, 51360, Note_off_c, 4, 64, 95
4, 51360, Note_off_c, 4, 59, 95
4, 51360, Note_off_c, 4, 55, 95
4, 51360, Note_off_c, 4, 52, 95
4, 51360, Note_off_c, 4, 47, 95
4, 51360, Note_off_c, 4, 40, 95
4, 51360, Note_on_c, 4, 64, 95
4, 51360, Note_on_c, 4, 59, 95
4, 51360, Note_on_c, 4, 55, 95
4, 51360, Note_on_c, 4, 52, 95
4, 51360, Note_on_c, 4, 47, 95
4, 51360, Note_on_c, 4, 40, 95
4, 51600, Note_off_c, 4, 64, 95
4, 51600, Note_off_c, 4, 59, 95
4, 51600, Note_off_c, 4, 55, 95
4, 51600, Note_off_c, 4, 52, 95
4, 51600, Note_off_c, 4, 47, 95
4, 51600, Note_off_c, 4, 40, 95
4, 51600, Note_on_c, 4, 64, 95
4, 51600, Note_on_c, 4, 59, 95
4, 51600, Note_on_c, 4, 55, 95
4, 51600, Note_on_c, 4, 52, 95
4, 51600, Note_on_c, 4, 47, 95
4, 51600, Note_on_c, 4, 40, 95
4, 51840, Note_off_c, 4, 64, 95
4, 51840, Note_off_c, 4, 59, 95
4, 51840, Note_off_c, 4, 55, 95
4, 51840, Note_off_c, 4, 52, 95
4, 51840, Note_off_c, 4, 47, 95
4, 51840, Note_off_c, 4, 40, 95
4, 51840, Note_on_c, 4, 64, 95
4, 51840, Note_on_c, 4, 59, 95
4, 51840, Note_on_c, 4, 55, 95
4, 51840, Note_on_c, 4, 51, 95
4, 51840, Note_on_c, 4, 46, 95
4, 51840, Note_on_c, 4, 39, 95
4, 52320, Note_off_c, 4, 64, 95
4, 52320, Note_off_c, 4, 59, 95
4, 52320, Note_off_c, 4, 55, 95
4, 52320, Note_off_c, 4, 51, 95
4, 52320, Note_off_c, 4, 46, 95
4, 52320, Note_off_c, 4, 39, 95
4, 52320, Note_on_c, 4, 64, 95
4, 52320, Note_on_c, 4, 59, 95
4, 52320, Note_on_c, 4, 55, 95
4, 52320, Note_on_c, 4, 51, 95
4, 52320, Note_on_c, 4, 46, 95
4, 52320, Note_on_c, 4, 39, 95
4, 52560, Note_off_c, 4, 64, 95
4, 52560, Note_off_c, 4, 59, 95
4, 52560, Note_off_c, 4, 55, 95
4, 52560, Note_off_c, 4, 51, 95
4, 52560, Note_off_c, 4, 46, 95
4, 52560, Note_off_c, 4, 39, 95
4, 52560, Note_on_c, 4, 64, 95
4, 52560, Note_on_c, 4, 59, 95
4, 52560, Note_on_c, 4, 55, 95
4, 52560, Note_on_c, 4, 51, 95
4, 52560, Note_on_c, 4, 46, 95
4, 52560, Note_on_c, 4, 39, 95
4, 52800, Note_off_c, 4, 64, 95
4, 52800, Note_off_c, 4, 59, 95
4, 52800, Note_off_c, 4, 55, 95
4, 52800, Note_off_c, 4, 51, 95
4, 52800, Note_off_c, 4, 46, 95
4, 52800, Note_off_c, 4, 39, 95
4, 52800, Note_on_c, 4, 64, 95
4, 52800, Note_on_c, 4, 59, 95
4, 52800, Note_on_c, 4, 55, 95
4, 52800, Note_on_c, 4, 51, 95
4, 52800, Note_on_c, 4, 46, 95
4, 52800, Note_on_c, 4, 39, 95
4, 53040, Note_off_c, 4, 64, 95
4, 53040, Note_off_c, 4, 59, 95
4, 53040, Note_off_c, 4, 55, 95
4, 53040, Note_off_c, 4, 51, 95
4, 53040, Note_off_c, 4, 46, 95
4, 53040, Note_off_c, 4, 39, 95
4, 53040, Note_on_c, 4, 64, 95
4, 53040, Note_on_c, 4, 59, 95
4, 53040, Note_on_c, 4, 55, 95
4, 53040, Note_on_c, 4, 51, 95
4, 53040, Note_on_c, 4, 46, 95
4, 53040, Note_on_c, 4, 39, 95
4, 53280, Note_off_c, 4, 64, 95
4, 53280, Note_off_c, 4, 59, 95
4, 53280, Note_off_c, 4, 55, 95
4, 53280, Note_off_c, 4, 51, 95
4, 53280, Note_off_c, 4, 46, 95
4, 53280, Note_off_c, 4, 39, 95
4, 53280, Note_on_c, 4, 64, 95
4, 53280, Note_on_c, 4, 59, 95
4, 53280, Note_on_c, 4, 55, 95
4, 53280, Note_on_c, 4, 51, 95
4, 53280, Note_on_c, 4, 46, 95
4, 53280, Note_on_c, 4, 39, 95
4, 53760, Note_off_c, 4, 64, 95
4, 53760, Note_off_c, 4, 59, 95
4, 53760, Note_off_c, 4, 55, 95
4, 53760, Note_off_c, 4, 51, 95
4, 53760, Note_off_c, 4, 46, 95
4, 53760, Note_off_c, 4, 39, 95
4, 53760, Note_on_c, 4, 64, 111
4, 53760, Note_on_c, 4, 59, 111
4, 53760, Note_on_c, 4, 55, 111
4, 53760, Note_on_c, 4, 51, 111
4, 53760, Note_on_c, 4, 46, 111
4, 53760, Note_on_c, 4, 39, 111
4, 54000, Note_off_c, 4, 64, 111
4, 54000, Note_off_c, 4, 59, 111
4, 54000, Note_off_c, 4, 55, 111
4, 54000, Note_off_c, 4, 51, 111
4, 54000, Note_off_c, 4, 46, 111
4, 54000, Note_off_c, 4, 39, 111
4, 54000, Note_on_c, 4, 64, 95
4, 54000, Note_on_c, 4, 59, 95
4, 54000, Note_on_c, 4, 55, 95
4, 54000, Note_on_c, 4, 51, 95
4, 54000, Note_on_c, 4, 46, 95
4, 54000, Note_on_c, 4, 39, 95
4, 54240, Note_off_c, 4, 64, 95
4, 54240, Note_off_c, 4, 59, 95
4, 54240, Note_off_c, 4, 55, 95
4, 54240, Note_off_c, 4, 51, 95
4, 54240, Note_off_c, 4, 46, 95
4, 54240, Note_off_c, 4, 39, 95
4, 54240, Note_on_c, 4, 64, 95
4, 54240, Note_on_c, 4, 59, 95
4, 54240, Note_on_c, 4, 55, 95
4, 54240, Note_on_c, 4, 51, 95
4, 54240, Note_on_c, 4, 46, 95
4, 54240, Note_on_c, 4, 39, 95
4, 54480, Note_off_c, 4, 64, 95
4, 54480, Note_off_c, 4, 59, 95
4, 54480, Note_off_c, 4, 55, 95
4, 54480, Note_off_c, 4, 51, 95
4, 54480, Note_off_c, 4, 46, 95
4, 54480, Note_off_c, 4, 39, 95
4, 54480, Note_on_c, 4, 64, 95
4, 54480, Note_on_c, 4, 59, 95
4, 54480, Note_on_c, 4, 55, 95
4, 54480, Note_on_c, 4, 51, 95
4, 54480, Note_on_c, 4, 46, 95
4, 54480, Note_on_c, 4, 39, 95
4, 54720, Note_off_c, 4, 64, 95
4, 54720, Note_off_c, 4, 59, 95
4, 54720, Note_off_c, 4, 55, 95
4, 54720, Note_off_c, 4, 51, 95
4, 54720, Note_off_c, 4, 46, 95
4, 54720, Note_off_c, 4, 39, 95
4, 54720, Note_on_c, 4, 64, 95
4, 54720, Note_on_c, 4, 59, 95
4, 54720, Note_on_c, 4, 55, 95
4, 54720, Note_on_c, 4, 51, 95
4, 54720, Note_on_c, 4, 46, 95
4, 54720, Note_on_c, 4, 39, 95
4, 55200, Note_off_c, 4, 64, 95
4, 55200, Note_off_c, 4, 59, 95
4, 55200, Note_off_c, 4, 55, 95
4, 55200, Note_off_c, 4, 51, 95
4, 55200, Note_off_c, 4, 46, 95
4, 55200, Note_off_c, 4, 39, 95
4, 55200, Note_on_c, 4, 64, 95
4, 55200, Note_on_c, 4, 59, 95
4, 55200, Note_on_c, 4, 55, 95
4, 55200, Note_on_c, 4, 51, 95
4, 55200, Note_on_c, 4, 46, 95
4, 55200, Note_on_c, 4, 39, 95
4, 55440, Note_off_c, 4, 64, 95
4, 55440, Note_off_c, 4, 59, 95
4, 55440, Note_off_c, 4, 55, 95
4, 55440, Note_off_c, 4, 51, 95
4, 55440, Note_off_c, 4, 46, 95
4, 55440, Note_off_c, 4, 39, 95
4, 55440, Note_on_c, 4, 64, 95
4, 55440, Note_on_c, 4, 59, 95
4, 55440, Note_on_c, 4, 55, 95
4, 55440, Note_on_c, 4, 51, 95
4, 55440, Note_on_c, 4, 46, 95
4, 55440, Note_on_c, 4, 39, 95
4, 55680, Note_off_c, 4, 64, 95
4, 55680, Note_off_c, 4, 59, 95
4, 55680, Note_off_c, 4, 55, 95
4, 55680, Note_off_c, 4, 51, 95
4, 55680, Note_off_c, 4, 46, 95
4, 55680, Note_off_c, 4, 39, 95
4, 55680, Note_on_c, 4, 64, 95
4, 55680, Note_on_c, 4, 59, 95
4, 55680, Note_on_c, 4, 55, 95
4, 55680, Note_on_c, 4, 51, 95
4, 55680, Note_on_c, 4, 46, 95
4, 55680, Note_on_c, 4, 39, 95
4, 55920, Note_off_c, 4, 64, 95
4, 55920, Note_off_c, 4, 59, 95
4, 55920, Note_off_c, 4, 55, 95
4, 55920, Note_off_c, 4, 51, 95
4, 55920, Note_off_c, 4, 46, 95
4, 55920, Note_off_c, 4, 39, 95
4, 55920, Note_on_c, 4, 64, 95
4, 55920, Note_on_c, 4, 59, 95
4, 55920, Note_on_c, 4, 55, 95
4, 55920, Note_on_c, 4, 51, 95
4, 55920, Note_on_c, 4, 46, 95
4, 55920, Note_on_c, 4, 39, 95
4, 56160, Note_off_c, 4, 64, 95
4, 56160, Note_off_c, 4, 59, 95
4, 56160, Note_off_c, 4, 55, 95
4, 56160, Note_off_c, 4, 51, 95
4, 56160, Note_off_c, 4, 46, 95
4, 56160, Note_off_c, 4, 39, 95
4, 56160, Note_on_c, 4, 64, 95
4, 56160, Note_on_c, 4, 59, 95
4, 56160, Note_on_c, 4, 55, 95
4, 56160, Note_on_c, 4, 51, 95
4, 56160, Note_on_c, 4, 46, 95
4, 56160, Note_on_c, 4, 39, 95
4, 56640, Note_off_c, 4, 64, 95
4, 56640, Note_off_c, 4, 59, 95
4, 56640, Note_off_c, 4, 55, 95
4, 56640, Note_off_c, 4, 51, 95
4, 56640, Note_off_c, 4, 46, 95
4, 56640, Note_off_c, 4, 39, 95
4, 56640, Note_on_c, 4, 64, 111
4, 56640, Note_on_c, 4, 59, 111
4, 56640, Note_on_c, 4, 55, 111
4, 56640, Note_on_c, 4, 51, 111
4, 56640, Note_on_c, 4, 46, 111
4, 56640, Note_on_c, 4, 39, 111
4, 56880, Note_off_c, 4, 64, 111
4, 56880, Note_off_c, 4, 59, 111
4, 56880, Note_off_c, 4, 55, 111
4, 56880, Note_off_c, 4, 51, 111
4, 56880, Note_off_c, 4, 46, 111
4, 56880, Note_off_c, 4, 39, 111
4, 56880, Note_on_c, 4, 64, 95
4, 56880, Note_on_c, 4, 59, 95
4, 56880, Note_on_c, 4, 55, 95
4, 56880, Note_on_c, 4, 51, 95
4, 56880, Note_on_c, 4, 46, 95
4, 56880, Note_on_c, 4, 39, 95
4, 57120, Note_off_c, 4, 64, 95
4, 57120, Note_off_c, 4, 59, 95
4, 57120, Note_off_c, 4, 55, 95
4, 57120, Note_off_c, 4, 51, 95
4, 57120, Note_off_c, 4, 46, 95
4, 57120, Note_off_c, 4, 39, 95
4, 57120, Note_on_c, 4, 64, 95
4, 57120, Note_on_c, 4, 59, 95
4, 57120, Note_on_c, 4, 55, 95
4, 57120, Note_on_c, 4, 51, 95
4, 57120, Note_on_c, 4, 46, 95
4, 57120, Note_on_c, 4, 39, 95
4, 57360, Note_off_c, 4, 64, 95
4, 57360, Note_off_c, 4, 59, 95
4, 57360, Note_off_c, 4, 55, 95
4, 57360, Note_off_c, 4, 51, 95
4, 57360, Note_off_c, 4, 46, 95
4, 57360, Note_off_c, 4, 39, 95
4, 57360, Note_on_c, 4, 64, 95
4, 57360, Note_on_c, 4, 59, 95
4, 57360, Note_on_c, 4, 55, 95
4, 57360, Note_on_c, 4, 51, 95
4, 57360, Note_on_c, 4, 46, 95
4, 57360, Note_on_c, 4, 39, 95
4, 57600, Note_off_c, 4, 64, 95
4, 57600, Note_off_c, 4, 59, 95
4, 57600, Note_off_c, 4, 55, 95
4, 57600, Note_off_c, 4, 51, 95
4, 57600, Note_off_c, 4, 46, 95
4, 57600, Note_off_c, 4, 39, 95
4, 57600, Note_on_c, 4, 64, 95
4, 57600, Note_on_c, 4, 59, 95
4, 57600, Note_on_c, 4, 55, 95
4, 57600, Note_on_c, 4, 53, 95
4, 57600, Note_on_c, 4, 48, 95
4, 57600, Note_on_c, 4, 41, 95
4, 58080, Note_off_c, 4, 64, 95
4, 58080, Note_off_c, 4, 59, 95
4, 58080, Note_off_c, 4, 55, 95
4, 58080, Note_off_c, 4, 53, 95
4, 58080, Note_off_c, 4, 48, 95
4, 58080, Note_off_c, 4, 41, 95
4, 58080, Note_on_c, 4, 64, 95
4, 58080, Note_on_c, 4, 59, 95
4, 58080, Note_on_c, 4, 55, 95
4, 58080, Note_on_c, 4, 53, 95
4, 58080, Note_on_c, 4, 48, 95
4, 58080, Note_on_c, 4, 41, 95
4, 58320, Note_off_c, 4, 64, 95
4, 58320, Note_off_c, 4, 59, 95
4, 58320, Note_off_c, 4, 55, 95
4, 58320, Note_off_c, 4, 53, 95
4, 58320, Note_off_c, 4, 48, 95
4, 58320, Note_off_c, 4, 41, 95
4, 58320, Note_on_c, 4, 64, 95
4, 58320, Note_on_c, 4, 59, 95
4, 58320, Note_on_c, 4, 55, 95
4, 58320, Note_on_c, 4, 53, 95
4, 58320, Note_on_c, 4, 48, 95
4, 58320, Note_on_c, 4, 41, 95
4, 58560, Note_off_c, 4, 64, 95
4, 58560, Note_off_c, 4, 59, 95
4, 58560, Note_off_c, 4, 55, 95
4, 58560, Note_off_c, 4, 53, 95
4, 58560, Note_off_c, 4, 48, 95
4, 58560, Note_off_c, 4, 41, 95
4, 58560, Note_on_c, 4, 64, 95
4, 58560, Note_on_c, 4, 59, 95
4, 58560, Note_on_c, 4, 55, 95
4, 58560, Note_on_c, 4, 53, 95
4, 58560, Note_on_c, 4, 48, 95
4, 58560, Note_on_c, 4, 41, 95
4, 58800, Note_off_c, 4, 64, 95
4, 58800, Note_off_c, 4, 59, 95
4, 58800, Note_off_c, 4, 55, 95
4, 58800, Note_off_c, 4, 53, 95
4, 58800, Note_off_c, 4, 48, 95
4, 58800, Note_off_c, 4, 41, 95
4, 58800, Note_on_c, 4, 64, 95
4, 58800, Note_on_c, 4, 59, 95
4, 58800, Note_on_c, 4, 55, 95
4, 58800, Note_on_c, 4, 53, 95
4, 58800, Note_on_c, 4, 48, 95
4, 58800, Note_on_c, 4, 41, 95
4, 59040, Note_off_c, 4, 64, 95
4, 59040, Note_off_c, 4, 59, 95
4, 59040, Note_off_c, 4, 55, 95
4, 59040, Note_off_c, 4, 53, 95
4, 59040, Note_off_c, 4, 48, 95
4, 59040, Note_off_c, 4, 41, 95
4, 59040, Note_on_c, 4, 64, 95
4, 59040, Note_on_c, 4, 59, 95
4, 59040, Note_on_c, 4, 55, 95
4, 59040, Note_on_c, 4, 53, 95
4, 59040, Note_on_c, 4, 48, 95
4, 59040, Note_on_c, 4, 41, 95
4, 59520, Note_off_c, 4, 64, 95
4, 59520, Note_off_c, 4, 59, 95
4, 59520, Note_off_c, 4, 55, 95
4, 59520, Note_off_c, 4, 53, 95
4, 59520, Note_off_c, 4, 48, 95
4, 59520, Note_off_c, 4, 41, 95
4, 59520, Note_on_c, 4, 64, 111
4, 59520, Note_on_c, 4, 59, 95
4, 59520, Note_on_c, 4, 55, 111
4, 59520, Note_on_c, 4, 53, 111
4, 59520, Note_on_c, 4, 48, 111
4, 59520, Note_on_c, 4, 41, 111
4, 59760, Note_off_c, 4, 64, 111
4, 59760, Note_off_c, 4, 59, 95
4, 59760, Note_off_c, 4, 55, 111
4, 59760, Note_off_c, 4, 53, 111
4, 59760, Note_off_c, 4, 48, 111
4, 59760, Note_off_c, 4, 41, 111
4, 59760, Note_on_c, 4, 64, 95
4, 59760, Note_on_c, 4, 59, 95
4, 59760, Note_on_c, 4, 55, 95
4, 59760, Note_on_c, 4, 53, 95
4, 59760, Note_on_c, 4, 48, 95
4, 59760, Note_on_c, 4, 41, 95
4, 60000, Note_off_c, 4, 64, 95
4, 60000, Note_off_c, 4, 59, 95
4, 60000, Note_off_c, 4, 55, 95
4, 60000, Note_off_c, 4, 53, 95
4, 60000, Note_off_c, 4, 48, 95
4, 60000, Note_off_c, 4, 41, 95
4, 60000, Note_on_c, 4, 64, 95
4, 60000, Note_on_c, 4, 59, 95
4, 60000, Note_on_c, 4, 55, 95
4, 60000, Note_on_c, 4, 53, 95
4, 60000, Note_on_c, 4, 48, 95
4, 60000, Note_on_c, 4, 41, 95
4, 60240, Note_off_c, 4, 64, 95
4, 60240, Note_off_c, 4, 59, 95
4, 60240, Note_off_c, 4, 55, 95
4, 60240, Note_off_c, 4, 53, 95
4, 60240, Note_off_c, 4, 48, 95
4, 60240, Note_off_c, 4, 41, 95
4, 60240, Note_on_c, 4, 64, 95
4, 60240, Note_on_c, 4, 59, 95
4, 60240, Note_on_c, 4, 55, 95
4, 60240, Note_on_c, 4, 53, 95
4, 60240, Note_on_c, 4, 48, 95
4, 60240, Note_on_c, 4, 41, 95
4, 60480, Note_off_c, 4, 64, 95
4, 60480, Note_off_c, 4, 59, 95
4, 60480, Note_off_c, 4, 55, 95
4, 60480, Note_off_c, 4, 53, 95
4, 60480, Note_off_c, 4, 48, 95
4, 60480, Note_off_c, 4, 41, 95
4, 60480, Note_on_c, 4, 64, 95
4, 60480, Note_on_c, 4, 59, 95
4, 60480, Note_on_c, 4, 55, 95
4, 60480, Note_on_c, 4, 52, 95
4, 60480, Note_on_c, 4, 47, 95
4, 60480, Note_on_c, 4, 40, 95
4, 60960, Note_off_c, 4, 64, 95
4, 60960, Note_off_c, 4, 59, 95
4, 60960, Note_off_c, 4, 55, 95
4, 60960, Note_off_c, 4, 52, 95
4, 60960, Note_off_c, 4, 47, 95
4, 60960, Note_off_c, 4, 40, 95
4, 60960, Note_on_c, 4, 64, 95
4, 60960, Note_on_c, 4, 59, 95
4, 60960, Note_on_c, 4, 55, 95
4, 60960, Note_on_c, 4, 52, 95
4, 60960, Note_on_c, 4, 47, 95
4, 60960, Note_on_c, 4, 40, 95
4, 61200, Note_off_c, 4, 64, 95
4, 61200, Note_off_c, 4, 59, 95
4, 61200, Note_off_c, 4, 55, 95
4, 61200, Note_off_c, 4, 52, 95
4, 61200, Note_off_c, 4, 47, 95
4, 61200, Note_off_c, 4, 40, 95
4, 61200, Note_on_c, 4, 64, 95
4, 61200, Note_on_c, 4, 59, 95
4, 61200, Note_on_c, 4, 55, 95
4, 61200, Note_on_c, 4, 52, 95
4, 61200, Note_on_c, 4, 47, 95
4, 61200, Note_on_c, 4, 40, 95
4, 61440, Note_off_c, 4, 64, 95
4, 61440, Note_off_c, 4, 59, 95
4, 61440, Note_off_c, 4, 55, 95
4, 61440, Note_off_c, 4, 52, 95
4, 61440, Note_off_c, 4, 47, 95
4, 61440, Note_off_c, 4, 40, 95
4, 61440, Note_on_c, 4, 64, 95
4, 61440, Note_on_c, 4, 59, 95
4, 61440, Note_on_c, 4, 55, 95
4, 61440, Note_on_c, 4, 52, 95
4, 61440, Note_on_c, 4, 47, 95
4, 61440, Note_on_c, 4, 40, 95
4, 61680, Note_off_c, 4, 64, 95
4, 61680, Note_off_c, 4, 59, 95
4, 61680, Note_off_c, 4, 55, 95
4, 61680, Note_off_c, 4, 52, 95
4, 61680, Note_off_c, 4, 47, 95
4, 61680, Note_off_c, 4, 40, 95
4, 61680, Note_on_c, 4, 64, 95
4, 61680, Note_on_c, 4, 59, 95
4, 61680, Note_on_c, 4, 55, 95
4, 61680, Note_on_c, 4, 52, 95
4, 61680, Note_on_c, 4, 47, 95
4, 61680, Note_on_c, 4, 40, 95
4, 61920, Note_off_c, 4, 64, 95
4, 61920, Note_off_c, 4, 59, 95
4, 61920, Note_off_c, 4, 55, 95
4, 61920, Note_off_c, 4, 52, 95
4, 61920, Note_off_c, 4, 47, 95
4, 61920, Note_off_c, 4, 40, 95
4, 61920, Note_on_c, 4, 64, 95
4, 61920, Note_on_c, 4, 59, 95
4, 61920, Note_on_c, 4, 55, 95
4, 61920, Note_on_c, 4, 52, 95
4, 61920, Note_on_c, 4, 47, 95
4, 61920, Note_on_c, 4, 40, 95
4, 62400, Note_off_c, 4, 64, 95
4, 62400, Note_off_c, 4, 59, 95
4, 62400, Note_off_c, 4, 55, 95
4, 62400, Note_off_c, 4, 52, 95
4, 62400, Note_off_c, 4, 47, 95
4, 62400, Note_off_c, 4, 40, 95
4, 62400, Note_on_c, 4, 64, 111
4, 62400, Note_on_c, 4, 59, 111
4, 62400, Note_on_c, 4, 55, 111
4, 62400, Note_on_c, 4, 52, 111
4, 62400, Note_on_c, 4, 47, 111
4, 62400, Note_on_c, 4, 40, 111
4, 62640, Note_off_c, 4, 64, 111
4, 62640, Note_off_c, 4, 59, 111
4, 62640, Note_off_c, 4, 55, 111
4, 62640, Note_off_c, 4, 52, 111
4, 62640, Note_off_c, 4, 47, 111
4, 62640, Note_off_c, 4, 40, 111
4, 62640, Note_on_c, 4, 64, 95
4, 62640, Note_on_c, 4, 59, 95
4, 62640, Note_on_c, 4, 55, 95
4, 62640, Note_on_c, 4, 52, 95
4, 62640, Note_on_c, 4, 47, 95
4, 62640, Note_on_c, 4, 40, 95
4, 62880, Note_off_c, 4, 64, 95
4, 62880, Note_off_c, 4, 59, 95
4, 62880, Note_off_c, 4, 55, 95
4, 62880, Note_off_c, 4, 52, 95
4, 62880, Note_off_c, 4, 47, 95
4, 62880, Note_off_c, 4, 40, 95
4, 62880, Note_on_c, 4, 64, 95
4, 62880, Note_on_c, 4, 59, 95
4, 62880, Note_on_c, 4, 55, 95
4, 62880, Note_on_c, 4, 52, 95
4, 62880, Note_on_c, 4, 47, 95
4, 62880, Note_on_c, 4, 40, 95
4, 63120, Note_off_c, 4, 64, 95
4, 63120, Note_off_c, 4, 59, 95
4, 63120, Note_off_c, 4, 55, 95
4, 63120, Note_off_c, 4, 52, 95
4, 63120, Note_off_c, 4, 47, 95
4, 63120, Note_off_c, 4, 40, 95
4, 63120, Note_on_c, 4, 64, 95
4, 63120, Note_on_c, 4, 59, 95
4, 63120, Note_on_c, 4, 55, 95
4, 63120, Note_on_c, 4, 52, 95
4, 63120, Note_on_c, 4, 47, 95
4, 63120, Note_on_c, 4, 40, 95
4, 63360, Note_off_c, 4, 64, 95
4, 63360, Note_off_c, 4, 59, 95
4, 63360, Note_off_c, 4, 55, 95
4, 63360, Note_off_c, 4, 52, 95
4, 63360, Note_off_c, 4, 47, 95
4, 63360, Note_off_c, 4, 40, 95
4, 63360, Note_on_c, 4, 64, 95
4, 63360, Note_on_c, 4, 59, 95
4, 63360, Note_on_c, 4, 55, 95
4, 63360, Note_on_c, 4, 51, 95
4, 63360, Note_on_c, 4, 46, 95
4, 63360, Note_on_c, 4, 39, 95
4, 63840, Note_off_c, 4, 64, 95
4, 63840, Note_off_c, 4, 59, 95
4, 63840, Note_off_c, 4, 55, 95
4, 63840, Note_off_c, 4, 51, 95
4, 63840, Note_off_c, 4, 46, 95
4, 63840, Note_off_c, 4, 39, 95
4, 63840, Note_on_c, 4, 64, 95
4, 63840, Note_on_c, 4, 59, 95
4, 63840, Note_on_c, 4, 55, 95
4, 63840, Note_on_c, 4, 51, 95
4, 63840, Note_on_c, 4, 46, 95
4, 63840, Note_on_c, 4, 39, 95
4, 64080, Note_off_c, 4, 64, 95
4, 64080, Note_off_c, 4, 59, 95
4, 64080, Note_off_c, 4, 55, 95
4, 64080, Note_off_c, 4, 51, 95
4, 64080, Note_off_c, 4, 46, 95
4, 64080, Note_off_c, 4, 39, 95
4, 64080, Note_on_c, 4, 64, 95
4, 64080, Note_on_c, 4, 59, 95
4, 64080, Note_on_c, 4, 55, 95
4, 64080, Note_on_c, 4, 51, 95
4, 64080, Note_on_c, 4, 46, 95
4, 64080, Note_on_c, 4, 39, 95
4, 64320, Note_off_c, 4, 64, 95
4, 64320, Note_off_c, 4, 59, 95
4, 64320, Note_off_c, 4, 55, 95
4, 64320, Note_off_c, 4, 51, 95
4, 64320, Note_off_c, 4, 46, 95
4, 64320, Note_off_c, 4, 39, 95
4, 64320, Note_on_c, 4, 64, 95
4, 64320, Note_on_c, 4, 59, 95
4, 64320, Note_on_c, 4, 55, 95
4, 64320, Note_on_c, 4, 51, 95
4, 64320, Note_on_c, 4, 46, 95
4, 64320, Note_on_c, 4, 39, 95
4, 64560, Note_off_c, 4, 64, 95
4, 64560, Note_off_c, 4, 59, 95
4, 64560, Note_off_c, 4, 55, 95
4, 64560, Note_off_c, 4, 51, 95
4, 64560, Note_off_c, 4, 46, 95
4, 64560, Note_off_c, 4, 39, 95
4, 64560, Note_on_c, 4, 64, 95
4, 64560, Note_on_c, 4, 59, 95
4, 64560, Note_on_c, 4, 55, 95
4, 64560, Note_on_c, 4, 51, 95
4, 64560, Note_on_c, 4, 46, 95
4, 64560, Note_on_c, 4, 39, 95
4, 64800, Note_off_c, 4, 64, 95
4, 64800, Note_off_c, 4, 59, 95
4, 64800, Note_off_c, 4, 55, 95
4, 64800, Note_off_c, 4, 51, 95
4, 64800, Note_off_c, 4, 46, 95
4, 64800, Note_off_c, 4, 39, 95
4, 64800, Note_on_c, 4, 64, 95
4, 64800, Note_on_c, 4, 59, 95
4, 64800, Note_on_c, 4, 55, 95
4, 64800, Note_on_c, 4, 51, 95
4, 64800, Note_on_c, 4, 46, 95
4, 64800, Note_on_c, 4, 39, 95
4, 65280, Note_off_c, 4, 64, 95
4, 65280, Note_off_c, 4, 59, 95
4, 65280, Note_off_c, 4, 55, 95
4, 65280, Note_off_c, 4, 51, 95
4, 65280, Note_off_c, 4, 46, 95
4, 65280, Note_off_c, 4, 39, 95
4, 65280, Note_on_c, 4, 64, 111
4, 65280, Note_on_c, 4, 59, 111
4, 65280, Note_on_c, 4, 55, 111
4, 65280, Note_on_c, 4, 51, 111
4, 65280, Note_on_c, 4, 46, 111
4, 65280, Note_on_c, 4, 39, 111
4, 65520, Note_off_c, 4, 64, 111
4, 65520, Note_off_c, 4, 59, 111
4, 65520, Note_off_c, 4, 55, 111
4, 65520, Note_off_c, 4, 51, 111
4, 65520, Note_off_c, 4, 46, 111
4, 65520, Note_off_c, 4, 39, 111
4, 65520, Note_on_c, 4, 64, 95
4, 65520, Note_on_c, 4, 59, 95
4, 65520, Note_on_c, 4, 55, 95
4, 65520, Note_on_c, 4, 51, 95
4, 65520, Note_on_c, 4, 46, 95
4, 65520, Note_on_c, 4, 39, 95
4, 65760, Note_off_c, 4, 64, 95
4, 65760, Note_off_c, 4, 59, 95
4, 65760, Note_off_c, 4, 55, 95
4, 65760, Note_off_c, 4, 51, 95
4, 65760, Note_off_c, 4, 46, 95
4, 65760, Note_off_c, 4, 39, 95
4, 65760, Note_on_c, 4, 64, 95
4, 65760, Note_on_c, 4, 59, 95
4, 65760, Note_on_c, 4, 55, 95
4, 65760, Note_on_c, 4, 51, 95
4, 65760, Note_on_c, 4, 46, 95
4, 65760, Note_on_c, 4, 39, 95
4, 66000, Note_off_c, 4, 64, 95
4, 66000, Note_off_c, 4, 59, 95
4, 66000, Note_off_c, 4, 55, 95
4, 66000, Note_off_c, 4, 51, 95
4, 66000, Note_off_c, 4, 46, 95
4, 66000, Note_off_c, 4, 39, 95
4, 66000, Note_on_c, 4, 64, 95
4, 66000, Note_on_c, 4, 59, 95
4, 66000, Note_on_c, 4, 55, 95
4, 66000, Note_on_c, 4, 51, 95
4, 66000, Note_on_c, 4, 46, 95
4, 66000, Note_on_c, 4, 39, 95
4, 66240, Note_off_c, 4, 64, 95
4, 66240, Note_off_c, 4, 59, 95
4, 66240, Note_off_c, 4, 55, 95
4, 66240, Note_off_c, 4, 51, 95
4, 66240, Note_off_c, 4, 46, 95
4, 66240, Note_off_c, 4, 39, 95
4, 66240, Note_on_c, 4, 64, 95
4, 66240, Note_on_c, 4, 59, 95
4, 66240, Note_on_c, 4, 55, 95
4, 66240, Note_on_c, 4, 51, 95
4, 66240, Note_on_c, 4, 46, 95
4, 66240, Note_on_c, 4, 39, 95
4, 66720, Note_off_c, 4, 64, 95
4, 66720, Note_off_c, 4, 59, 95
4, 66720, Note_off_c, 4, 55, 95
4, 66720, Note_off_c, 4, 51, 95
4, 66720, Note_off_c, 4, 46, 95
4, 66720, Note_off_c, 4, 39, 95
4, 66720, Note_on_c, 4, 64, 95
4, 66720, Note_on_c, 4, 59, 95
4, 66720, Note_on_c, 4, 55, 95
4, 66720, Note_on_c, 4, 51, 95
4, 66720, Note_on_c, 4, 46, 95
4, 66720, Note_on_c, 4, 39, 95
4, 66960, Note_off_c, 4, 64, 95
4, 66960, Note_off_c, 4, 59, 95
4, 66960, Note_off_c, 4, 55, 95
4, 66960, Note_off_c, 4, 51, 95
4, 66960, Note_off_c, 4, 46, 95
4, 66960, Note_off_c, 4, 39, 95
4, 66960, Note_on_c, 4, 64, 95
4, 66960, Note_on_c, 4, 59, 95
4, 66960, Note_on_c, 4, 55, 95
4, 66960, Note_on_c, 4, 51, 95
4, 66960, Note_on_c, 4, 46, 95
4, 66960, Note_on_c, 4, 39, 95
4, 67200, Note_off_c, 4, 64, 95
4, 67200, Note_off_c, 4, 59, 95
4, 67200, Note_off_c, 4, 55, 95
4, 67200, Note_off_c, 4, 51, 95
4, 67200, Note_off_c, 4, 46, 95
4, 67200, Note_off_c, 4, 39, 95
4, 67200, Note_on_c, 4, 64, 95
4, 67200, Note_on_c, 4, 59, 95
4, 67200, Note_on_c, 4, 55, 95
4, 67200, Note_on_c, 4, 51, 95
4, 67200, Note_on_c, 4, 46, 95
4, 67200, Note_on_c, 4, 39, 95
4, 67440, Note_off_c, 4, 64, 95
4, 67440, Note_off_c, 4, 59, 95
4, 67440, Note_off_c, 4, 55, 95
4, 67440, Note_off_c, 4, 51, 95
4, 67440, Note_off_c, 4, 46, 95
4, 67440, Note_off_c, 4, 39, 95
4, 67440, Note_on_c, 4, 64, 95
4, 67440, Note_on_c, 4, 59, 95
4, 67440, Note_on_c, 4, 55, 95
4, 67440, Note_on_c, 4, 51, 95
4, 67440, Note_on_c, 4, 46, 95
4, 67440, Note_on_c, 4, 39, 95
4, 67680, Note_off_c, 4, 64, 95
4, 67680, Note_off_c, 4, 59, 95
4, 67680, Note_off_c, 4, 55, 95
4, 67680, Note_off_c, 4, 51, 95
4, 67680, Note_off_c, 4, 46, 95
4, 67680, Note_off_c, 4, 39, 95
4, 67680, Note_on_c, 4, 64, 95
4, 67680, Note_on_c, 4, 59, 95
4, 67680, Note_on_c, 4, 55, 95
4, 67680, Note_on_c, 4, 51, 95
4, 67680, Note_on_c, 4, 46, 95
4, 67680, Note_on_c, 4, 39, 95
4, 68160, Note_off_c, 4, 64, 95
4, 68160, Note_off_c, 4, 59, 95
4, 68160, Note_off_c, 4, 55, 95
4, 68160, Note_off_c, 4, 51, 95
4, 68160, Note_off_c, 4, 46, 95
4, 68160, Note_off_c, 4, 39, 95
4, 68160, Note_on_c, 4, 64, 111
4, 68160, Note_on_c, 4, 59, 111
4, 68160, Note_on_c, 4, 55, 111
4, 68160, Note_on_c, 4, 51, 111
4, 68160, Note_on_c, 4, 46, 111
4, 68160, Note_on_c, 4, 39, 111
4, 68400, Note_off_c, 4, 64, 111
4, 68400, Note_off_c, 4, 59, 111
4, 68400, Note_off_c, 4, 55, 111
4, 68400, Note_off_c, 4, 51, 111
4, 68400, Note_off_c, 4, 46, 111
4, 68400, Note_off_c, 4, 39, 111
4, 68400, Note_on_c, 4, 64, 95
4, 68400, Note_on_c, 4, 59, 95
4, 68400, Note_on_c, 4, 55, 95
4, 68400, Note_on_c, 4, 51, 95
4, 68400, Note_on_c, 4, 46, 95
4, 68400, Note_on_c, 4, 39, 95
4, 68640, Note_off_c, 4, 64, 95
4, 68640, Note_off_c, 4, 59, 95
4, 68640, Note_off_c, 4, 55, 95
4, 68640, Note_off_c, 4, 51, 95
4, 68640, Note_off_c, 4, 46, 95
4, 68640, Note_off_c, 4, 39, 95
4, 68640, Note_on_c, 4, 64, 95
4, 68640, Note_on_c, 4, 59, 95
4, 68640, Note_on_c, 4, 55, 95
4, 68640, Note_on_c, 4, 51, 95
4, 68640, Note_on_c, 4, 46, 95
4, 68640, Note_on_c, 4, 39, 95
4, 68880, Note_off_c, 4, 64, 95
4, 68880, Note_off_c, 4, 59, 95
4, 68880, Note_off_c, 4, 55, 95
4, 68880, Note_off_c, 4, 51, 95
4, 68880, Note_off_c, 4, 46, 95
4, 68880, Note_off_c, 4, 39, 95
4, 68880, Note_on_c, 4, 64, 95
4, 68880, Note_on_c, 4, 59, 95
4, 68880, Note_on_c, 4, 55, 95
4, 68880, Note_on_c, 4, 51, 95
4, 68880, Note_on_c, 4, 46, 95
4, 68880, Note_on_c, 4, 39, 95
4, 69120, Note_off_c, 4, 64, 95
4, 69120, Note_off_c, 4, 59, 95
4, 69120, Note_off_c, 4, 55, 95
4, 69120, Note_off_c, 4, 51, 95
4, 69120, Note_off_c, 4, 46, 95
4, 69120, Note_off_c, 4, 39, 95
4, 69120, Note_on_c, 4, 64, 95
4, 69120, Note_on_c, 4, 59, 95
4, 69120, Note_on_c, 4, 55, 95
4, 69120, Note_on_c, 4, 52, 95
4, 69120, Note_on_c, 4, 47, 95
4, 69120, Note_on_c, 4, 40, 95
4, 69600, Note_off_c, 4, 64, 95
4, 69600, Note_off_c, 4, 59, 95
4, 69600, Note_off_c, 4, 55, 95
4, 69600, Note_off_c, 4, 52, 95
4, 69600, Note_off_c, 4, 47, 95
4, 69600, Note_off_c, 4, 40, 95
4, 69600, Note_on_c, 4, 64, 95
4, 69600, Note_on_c, 4, 59, 95
4, 69600, Note_on_c, 4, 55, 95
4, 69600, Note_on_c, 4, 52, 95
4, 69600, Note_on_c, 4, 47, 95
4, 69600, Note_on_c, 4, 40, 95
4, 69840, Note_off_c, 4, 64, 95
4, 69840, Note_off_c, 4, 59, 95
4, 69840, Note_off_c, 4, 55, 95
4, 69840, Note_off_c, 4, 52, 95
4, 69840, Note_off_c, 4, 47, 95
4, 69840, Note_off_c, 4, 40, 95
4, 69840, Note_on_c, 4, 64, 95
4, 69840, Note_on_c, 4, 59, 95
4, 69840, Note_on_c, 4, 55, 95
4, 69840, Note_on_c, 4, 52, 95
4, 69840, Note_on_c, 4, 47, 95
4, 69840, Note_on_c, 4, 40, 95
4, 70080, Note_off_c, 4, 64, 95
4, 70080, Note_off_c, 4, 59, 95
4, 70080, Note_off_c, 4, 55, 95
4, 70080, Note_off_c, 4, 52, 95
4, 70080, Note_off_c, 4, 47, 95
4, 70080, Note_off_c, 4, 40, 95
4, 70080, Note_on_c, 4, 64, 95
4, 70080, Note_on_c, 4, 59, 95
4, 70080, Note_on_c, 4, 55, 95
4, 70080, Note_on_c, 4, 52, 95
4, 70080, Note_on_c, 4, 47, 95
4, 70080, Note_on_c, 4, 40, 95
4, 70320, Note_off_c, 4, 64, 95
4, 70320, Note_off_c, 4, 59, 95
4, 70320, Note_off_c, 4, 55, 95
4, 70320, Note_off_c, 4, 52, 95
4, 70320, Note_off_c, 4, 47, 95
4, 70320, Note_off_c, 4, 40, 95
4, 70320, Note_on_c, 4, 64, 95
4, 70320, Note_on_c, 4, 59, 95
4, 70320, Note_on_c, 4, 55, 95
4, 70320, Note_on_c, 4, 52, 95
4, 70320, Note_on_c, 4, 47, 95
4, 70320, Note_on_c, 4, 40, 95
4, 70560, Note_off_c, 4, 64, 95
4, 70560, Note_off_c, 4, 59, 95
4, 70560, Note_off_c, 4, 55, 95
4, 70560, Note_off_c, 4, 52, 95
4, 70560, Note_off_c, 4, 47, 95
4, 70560, Note_off_c, 4, 40, 95
4, 70560, Note_on_c, 4, 64, 95
4, 70560, Note_on_c, 4, 59, 95
4, 70560, Note_on_c, 4, 55, 95
4, 70560, Note_on_c, 4, 52, 95
4, 70560, Note_on_c, 4, 47, 95
4, 70560, Note_on_c, 4, 40, 95
4, 71040, Note_off_c, 4, 64, 95
4, 71040, Note_off_c, 4, 59, 95
4, 71040, Note_off_c, 4, 55, 95
4, 71040, Note_off_c, 4, 52, 95
4, 71040, Note_off_c, 4, 47, 95
4, 71040, Note_off_c, 4, 40, 95
4, 71040, Note_on_c, 4, 64, 111
4, 71040, Note_on_c, 4, 59, 111
4, 71040, Note_on_c, 4, 55, 111
4, 71040, Note_on_c, 4, 52, 111
4, 71040, Note_on_c, 4, 47, 111
4, 71040, Note_on_c, 4, 40, 111
4, 71280, Note_off_c, 4, 64, 111
4, 71280, Note_off_c, 4, 59, 111
4, 71280, Note_off_c, 4, 55, 111
4, 71280, Note_off_c, 4, 52, 111
4, 71280, Note_off_c, 4, 47, 111
4, 71280, Note_off_c, 4, 40, 111
4, 71280, Note_on_c, 4, 64, 95
4, 71280, Note_on_c, 4, 59, 95
4, 71280, Note_on_c, 4, 55, 95
4, 71280, Note_on_c, 4, 52, 95
4, 71280, Note_on_c, 4, 47, 95
4, 71280, Note_on_c, 4, 40, 95
4, 71520, Note_off_c, 4, 64, 95
4, 71520, Note_off_c, 4, 59, 95
4, 71520, Note_off_c, 4, 55, 95
4, 71520, Note_off_c, 4, 52, 95
4, 71520, Note_off_c, 4, 47, 95
4, 71520, Note_off_c, 4, 40, 95
4, 71520, Note_on_c, 4, 64, 95
4, 71520, Note_on_c, 4, 59, 95
4, 71520, Note_on_c, 4, 55, 95
4, 71520, Note_on_c, 4, 52, 95
4, 71520, Note_on_c, 4, 47, 95
4, 71520, Note_on_c, 4, 40, 95
4, 71760, Note_off_c, 4, 64, 95
4, 71760, Note_off_c, 4, 59, 95
4, 71760, Note_off_c, 4, 55, 95
4, 71760, Note_off_c, 4, 52, 95
4, 71760, Note_off_c, 4, 47, 95
4, 71760, Note_off_c, 4, 40, 95
4, 71760, Note_on_c, 4, 64, 95
4, 71760, Note_on_c, 4, 59, 95
4, 71760, Note_on_c, 4, 55, 95
4, 71760, Note_on_c, 4, 52, 95
4, 71760, Note_on_c, 4, 47, 95
4, 71760, Note_on_c, 4, 40, 95
4, 72000, Note_off_c, 4, 64, 95
4, 72000, Note_off_c, 4, 59, 95
4, 72000, Note_off_c, 4, 55, 95
4, 72000, Note_off_c, 4, 52, 95
4, 72000, Note_off_c, 4, 47, 95
4, 72000, Note_off_c, 4, 40, 95
4, 72000, Note_on_c, 4, 64, 95
4, 72000, Note_on_c, 4, 59, 95
4, 72000, Note_on_c, 4, 55, 95
4, 72000, Note_on_c, 4, 52, 95
4, 72000, Note_on_c, 4, 47, 95
4, 72000, Note_on_c, 4, 40, 95
4, 72480, Note_off_c, 4, 64, 95
4, 72480, Note_off_c, 4, 59, 95
4, 72480, Note_off_c, 4, 55, 95
4, 72480, Note_off_c, 4, 52, 95
4, 72480, Note_off_c, 4, 47, 95
4, 72480, Note_off_c, 4, 40, 95
4, 72480, Note_on_c, 4, 64, 95
4, 72480, Note_on_c, 4, 59, 95
4, 72480, Note_on_c, 4, 55, 95
4, 72480, Note_on_c, 4, 52, 95
4, 72480, Note_on_c, 4, 47, 95
4, 72480, Note_on_c, 4, 40, 95
4, 72720, Note_off_c, 4, 64, 95
4, 72720, Note_off_c, 4, 59, 95
4, 72720, Note_off_c, 4, 55, 95
4, 72720, Note_off_c, 4, 52, 95
4, 72720, Note_off_c, 4, 47, 95
4, 72720, Note_off_c, 4, 40, 95
4, 72720, Note_on_c, 4, 64, 95
4, 72720, Note_on_c, 4, 59, 95
4, 72720, Note_on_c, 4, 55, 95
4, 72720, Note_on_c, 4, 52, 95
4, 72720, Note_on_c, 4, 47, 95
4, 72720, Note_on_c, 4, 40, 95
4, 72960, Note_off_c, 4, 64, 95
4, 72960, Note_off_c, 4, 59, 95
4, 72960, Note_off_c, 4, 55, 95
4, 72960, Note_off_c, 4, 52, 95
4, 72960, Note_off_c, 4, 47, 95
4, 72960, Note_off_c, 4, 40, 95
4, 72960, Note_on_c, 4, 64, 95
4, 72960, Note_on_c, 4, 59, 95
4, 72960, Note_on_c, 4, 55, 95
4, 72960, Note_on_c, 4, 52, 95
4, 72960, Note_on_c, 4, 47, 95
4, 72960, Note_on_c, 4, 40, 95
4, 73200, Note_off_c, 4, 64, 95
4, 73200, Note_off_c, 4, 59, 95
4, 73200, Note_off_c, 4, 55, 95
4, 73200, Note_off_c, 4, 52, 95
4, 73200, Note_off_c, 4, 47, 95
4, 73200, Note_off_c, 4, 40, 95
4, 73200, Note_on_c, 4, 64, 95
4, 73200, Note_on_c, 4, 59, 95
4, 73200, Note_on_c, 4, 55, 95
4, 73200, Note_on_c, 4, 52, 95
4, 73200, Note_on_c, 4, 47, 95
4, 73200, Note_on_c, 4, 40, 95
4, 73440, Note_off_c, 4, 64, 95
4, 73440, Note_off_c, 4, 59, 95
4, 73440, Note_off_c, 4, 55, 95
4, 73440, Note_off_c, 4, 52, 95
4, 73440, Note_off_c, 4, 47, 95
4, 73440, Note_off_c, 4, 40, 95
4, 73440, Note_on_c, 4, 64, 95
4, 73440, Note_on_c, 4, 59, 95
4, 73440, Note_on_c, 4, 55, 95
4, 73440, Note_on_c, 4, 52, 95
4, 73440, Note_on_c, 4, 47, 95
4, 73440, Note_on_c, 4, 40, 95
4, 73920, Note_off_c, 4, 64, 95
4, 73920, Note_off_c, 4, 59, 95
4, 73920, Note_off_c, 4, 55, 95
4, 73920, Note_off_c, 4, 52, 95
4, 73920, Note_off_c, 4, 47, 95
4, 73920, Note_off_c, 4, 40, 95
4, 73920, Note_on_c, 4, 64, 111
4, 73920, Note_on_c, 4, 59, 111
4, 73920, Note_on_c, 4, 55, 111
4, 73920, Note_on_c, 4, 52, 111
4, 73920, Note_on_c, 4, 47, 111
4, 73920, Note_on_c, 4, 40, 111
4, 74160, Note_off_c, 4, 64, 111
4, 74160, Note_off_c, 4, 59, 111
4, 74160, Note_off_c, 4, 55, 111
4, 74160, Note_off_c, 4, 52, 111
4, 74160, Note_off_c, 4, 47, 111
4, 74160, Note_off_c, 4, 40, 111
4, 74160, Note_on_c, 4, 64, 95
4, 74160, Note_on_c, 4, 59, 95
4, 74160, Note_on_c, 4, 55, 95
4, 74160, Note_on_c, 4, 52, 95
4, 74160, Note_on_c, 4, 47, 95
4, 74160, Note_on_c, 4, 40, 95
4, 74400, Note_off_c, 4, 64, 95
4, 74400, Note_off_c, 4, 59, 95
4, 74400, Note_off_c, 4, 55, 95
4, 74400, Note_off_c, 4, 52, 95
4, 74400, Note_off_c, 4, 47, 95
4, 74400, Note_off_c, 4, 40, 95
4, 74400, Note_on_c, 4, 64, 95
4, 74400, Note_on_c, 4, 59, 95
4, 74400, Note_on_c, 4, 55, 95
4, 74400, Note_on_c, 4, 52, 95
4, 74400, Note_on_c, 4, 47, 95
4, 74400, Note_on_c, 4, 40, 95
4, 74640, Note_off_c, 4, 64, 95
4, 74640, Note_off_c, 4, 59, 95
4, 74640, Note_off_c, 4, 55, 95
4, 74640, Note_off_c, 4, 52, 95
4, 74640, Note_off_c, 4, 47, 95
4, 74640, Note_off_c, 4, 40, 95
4, 74640, Note_on_c, 4, 64, 95
4, 74640, Note_on_c, 4, 59, 95
4, 74640, Note_on_c, 4, 55, 95
4, 74640, Note_on_c, 4, 52, 95
4, 74640, Note_on_c, 4, 47, 95
4, 74640, Note_on_c, 4, 40, 95
4, 74880, Note_off_c, 4, 64, 95
4, 74880, Note_off_c, 4, 59, 95
4, 74880, Note_off_c, 4, 55, 95
4, 74880, Note_off_c, 4, 52, 95
4, 74880, Note_off_c, 4, 47, 95
4, 74880, Note_off_c, 4, 40, 95
4, 74880, Note_on_c, 4, 64, 95
4, 74880, Note_on_c, 4, 59, 95
4, 74880, Note_on_c, 4, 55, 95
4, 74880, Note_on_c, 4, 52, 95
4, 74880, Note_on_c, 4, 47, 95
4, 74880, Note_on_c, 4, 40, 95
4, 75360, Note_off_c, 4, 64, 95
4, 75360, Note_off_c, 4, 59, 95
4, 75360, Note_off_c, 4, 55, 95
4, 75360, Note_off_c, 4, 52, 95
4, 75360, Note_off_c, 4, 47, 95
4, 75360, Note_off_c, 4, 40, 95
4, 75360, Note_on_c, 4, 64, 95
4, 75360, Note_on_c, 4, 59, 95
4, 75360, Note_on_c, 4, 55, 95
4, 75360, Note_on_c, 4, 52, 95
4, 75360, Note_on_c, 4, 47, 95
4, 75360, Note_on_c, 4, 40, 95
4, 75600, Note_off_c, 4, 64, 95
4, 75600, Note_off_c, 4, 59, 95
4, 75600, Note_off_c, 4, 55, 95
4, 75600, Note_off_c, 4, 52, 95
4, 75600, Note_off_c, 4, 47, 95
4, 75600, Note_off_c, 4, 40, 95
4, 75600, Note_on_c, 4, 64, 95
4, 75600, Note_on_c, 4, 59, 95
4, 75600, Note_on_c, 4, 55, 95
4, 75600, Note_on_c, 4, 52, 95
4, 75600, Note_on_c, 4, 47, 95
4, 75600, Note_on_c, 4, 40, 95
4, 75840, Note_off_c, 4, 64, 95
4, 75840, Note_off_c, 4, 59, 95
4, 75840, Note_off_c, 4, 55, 95
4, 75840, Note_off_c, 4, 52, 95
4, 75840, Note_off_c, 4, 47, 95
4, 75840, Note_off_c, 4, 40, 95
4, 75840, Note_on_c, 4, 64, 95
4, 75840, Note_on_c, 4, 59, 95
4, 75840, Note_on_c, 4, 55, 95
4, 75840, Note_on_c, 4, 52, 95
4, 75840, Note_on_c, 4, 47, 95
4, 75840, Note_on_c, 4, 40, 95
4, 76080, Note_off_c, 4, 64, 95
4, 76080, Note_off_c, 4, 59, 95
4, 76080, Note_off_c, 4, 55, 95
4, 76080, Note_off_c, 4, 52, 95
4, 76080, Note_off_c, 4, 47, 95
4, 76080, Note_off_c, 4, 40, 95
4, 76080, Note_on_c, 4, 64, 95
4, 76080, Note_on_c, 4, 59, 95
4, 76080, Note_on_c, 4, 55, 95
4, 76080, Note_on_c, 4, 52, 95
4, 76080, Note_on_c, 4, 47, 95
4, 76080, Note_on_c, 4, 40, 95
4, 76320, Note_off_c, 4, 64, 95
4, 76320, Note_off_c, 4, 59, 95
4, 76320, Note_off_c, 4, 55, 95
4, 76320, Note_off_c, 4, 52, 95
4, 76320, Note_off_c, 4, 47, 95
4, 76320, Note_off_c, 4, 40, 95
4, 76320, Note_on_c, 4, 63, 95
4, 76320, Note_on_c, 4, 57, 95
4, 76320, Note_on_c, 4, 54, 95
4, 76320, Note_on_c, 4, 42, 95
4, 76800, Note_off_c, 4, 63, 95
4, 76800, Note_off_c, 4, 57, 95
4, 76800, Note_off_c, 4, 54, 95
4, 76800, Note_off_c, 4, 42, 95
4, 76800, Note_on_c, 4, 63, 111
4, 76800, Note_on_c, 4, 57, 111
4, 76800, Note_on_c, 4, 54, 111
4, 76800, Note_on_c, 4, 42, 111
4, 77040, Note_off_c, 4, 63, 111
4, 77040, Note_off_c, 4, 57, 111
4, 77040, Note_off_c, 4, 54, 111
4, 77040, Note_off_c, 4, 42, 111
4, 77040, Note_on_c, 4, 63, 95
4, 77040, Note_on_c, 4, 57, 95
4, 77040, Note_on_c, 4, 54, 95
4, 77040, Note_on_c, 4, 42, 95
4, 77280, Note_off_c, 4, 63, 95
4, 77280, Note_off_c, 4, 57, 95
4, 77280, Note_off_c, 4, 54, 95
4, 77280, Note_off_c, 4, 42, 95
4, 77280, Note_on_c, 4, 63, 95
4, 77280, Note_on_c, 4, 57, 95
4, 77280, Note_on_c, 4, 54, 95
4, 77280, Note_on_c, 4, 42, 95
4, 77520, Note_off_c, 4, 63, 95
4, 77520, Note_off_c, 4, 57, 95
4, 77520, Note_off_c, 4, 54, 95
4, 77520, Note_off_c, 4, 42, 95
4, 77520, Note_on_c, 4, 63, 95
4, 77520, Note_on_c, 4, 57, 95
4, 77520, Note_on_c, 4, 54, 95
4, 77520, Note_on_c, 4, 42, 95
4, 77760, Note_off_c, 4, 63, 95
4, 77760, Note_off_c, 4, 57, 95
4, 77760, Note_off_c, 4, 54, 95
4, 77760, Note_off_c, 4, 42, 95
4, 77760, Note_on_c, 4, 64, 95
4, 77760, Note_on_c, 4, 59, 95
4, 77760, Note_on_c, 4, 55, 95
4, 77760, Note_on_c, 4, 43, 95
4, 78240, Note_off_c, 4, 64, 95
4, 78240, Note_off_c, 4, 59, 95
4, 78240, Note_off_c, 4, 55, 95
4, 78240, Note_off_c, 4, 43, 95
4, 78240, Note_on_c, 4, 64, 95
4, 78240, Note_on_c, 4, 59, 95
4, 78240, Note_on_c, 4, 55, 95
4, 78240, Note_on_c, 4, 43, 95
4, 78480, Note_off_c, 4, 64, 95
4, 78480, Note_off_c, 4, 59, 95
4, 78480, Note_off_c, 4, 55, 95
4, 78480, Note_off_c, 4, 43, 95
4, 78480, Note_on_c, 4, 64, 95
4, 78480, Note_on_c, 4, 59, 95
4, 78480, Note_on_c, 4, 55, 95
4, 78480, Note_on_c, 4, 43, 95
4, 78720, Note_off_c, 4, 64, 95
4, 78720, Note_off_c, 4, 59, 95
4, 78720, Note_off_c, 4, 55, 95
4, 78720, Note_off_c, 4, 43, 95
4, 78720, Note_on_c, 4, 64, 95
4, 78720, Note_on_c, 4, 59, 95
4, 78720, Note_on_c, 4, 55, 95
4, 78720, Note_on_c, 4, 43, 95
4, 78960, Note_off_c, 4, 64, 95
4, 78960, Note_off_c, 4, 59, 95
4, 78960, Note_off_c, 4, 55, 95
4, 78960, Note_off_c, 4, 43, 95
4, 78960, Note_on_c, 4, 64, 95
4, 78960, Note_on_c, 4, 59, 95
4, 78960, Note_on_c, 4, 55, 95
4, 78960, Note_on_c, 4, 43, 95
4, 79200, Note_off_c, 4, 64, 95
4, 79200, Note_off_c, 4, 59, 95
4, 79200, Note_off_c, 4, 55, 95
4, 79200, Note_off_c, 4, 43, 95
4, 79200, Note_on_c, 4, 66, 95
4, 79200, Note_on_c, 4, 61, 95
4, 79200, Note_on_c, 4, 57, 95
4, 79200, Note_on_c, 4, 45, 95
4, 79680, Note_off_c, 4, 66, 95
4, 79680, Note_off_c, 4, 61, 95
4, 79680, Note_off_c, 4, 57, 95
4, 79680, Note_off_c, 4, 45, 95
4, 79680, Note_on_c, 4, 66, 111
4, 79680, Note_on_c, 4, 61, 111
4, 79680, Note_on_c, 4, 57, 111
4, 79680, Note_on_c, 4, 45, 111
4, 79920, Note_off_c, 4, 66, 111
4, 79920, Note_off_c, 4, 61, 111
4, 79920, Note_off_c, 4, 57, 111
4, 79920, Note_off_c, 4, 45, 111
4, 79920, Note_on_c, 4, 66, 95
4, 79920, Note_on_c, 4, 61, 95
4, 79920, Note_on_c, 4, 57, 95
4, 79920, Note_on_c, 4, 45, 95
4, 80160, Note_off_c, 4, 66, 95
4, 80160, Note_off_c, 4, 61, 95
4, 80160, Note_off_c, 4, 57, 95
4, 80160, Note_off_c, 4, 45, 95
4, 80160, Note_on_c, 4, 66, 95
4, 80160, Note_on_c, 4, 61, 95
4, 80160, Note_on_c, 4, 57, 95
4, 80160, Note_on_c, 4, 45, 95
4, 80400, Note_off_c, 4, 66, 95
4, 80400, Note_off_c, 4, 61, 95
4, 80400, Note_off_c, 4, 57, 95
4, 80400, Note_off_c, 4, 45, 95
4, 80400, Note_on_c, 4, 66, 95
4, 80400, Note_on_c, 4, 61, 95
4, 80400, Note_on_c, 4, 57, 95
4, 80400, Note_on_c, 4, 45, 95
4, 80640, Note_off_c, 4, 66, 95
4, 80640, Note_off_c, 4, 61, 95
4, 80640, Note_off_c, 4, 57, 95
4, 80640, Note_off_c, 4, 45, 95
4, 80640, Note_on_c, 4, 66, 95
4, 80640, Note_on_c, 4, 62, 95
4, 80640, Note_on_c, 4, 59, 95
4, 80640, Note_on_c, 4, 47, 95
4, 81120, Note_off_c, 4, 66, 95
4, 81120, Note_off_c, 4, 62, 95
4, 81120, Note_off_c, 4, 59, 95
4, 81120, Note_off_c, 4, 47, 95
4, 81120, Note_on_c, 4, 66, 95
4, 81120, Note_on_c, 4, 62, 95
4, 81120, Note_on_c, 4, 59, 95
4, 81120, Note_on_c, 4, 47, 95
4, 81360, Note_off_c, 4, 66, 95
4, 81360, Note_off_c, 4, 62, 95
4, 81360, Note_off_c, 4, 59, 95
4, 81360, Note_off_c, 4, 47, 95
4, 81360, Note_on_c, 4, 66, 95
4, 81360, Note_on_c, 4, 62, 95
4, 81360, Note_on_c, 4, 59, 95
4, 81360, Note_on_c, 4, 47, 95
4, 81600, Note_off_c, 4, 66, 95
4, 81600, Note_off_c, 4, 62, 95
4, 81600, Note_off_c, 4, 59, 95
4, 81600, Note_off_c, 4, 47, 95
4, 81600, Note_on_c, 4, 66, 95
4, 81600, Note_on_c, 4, 62, 95
4, 81600, Note_on_c, 4, 59, 95
4, 81600, Note_on_c, 4, 47, 95
4, 81840, Note_off_c, 4, 66, 95
4, 81840, Note_off_c, 4, 62, 95
4, 81840, Note_off_c, 4, 59, 95
4, 81840, Note_off_c, 4, 47, 95
4, 81840, Note_on_c, 4, 66, 95
4, 81840, Note_on_c, 4, 62, 95
4, 81840, Note_on_c, 4, 59, 95
4, 81840, Note_on_c, 4, 47, 95
4, 82080, Note_off_c, 4, 66, 95
4, 82080, Note_off_c, 4, 62, 95
4, 82080, Note_off_c, 4, 59, 95
4, 82080, Note_off_c, 4, 47, 95
4, 82080, Note_on_c, 4, 66, 95
4, 82080, Note_on_c, 4, 62, 95
4, 82080, Note_on_c, 4, 59, 95
4, 82080, Note_on_c, 4, 47, 95
4, 82560, Note_off_c, 4, 66, 95
4, 82560, Note_off_c, 4, 62, 95
4, 82560, Note_off_c, 4, 59, 95
4, 82560, Note_off_c, 4, 47, 95
4, 82560, Note_on_c, 4, 66, 111
4, 82560, Note_on_c, 4, 62, 111
4, 82560, Note_on_c, 4, 59, 111
4, 82560, Note_on_c, 4, 47, 111
4, 82800, Note_off_c, 4, 66, 111
4, 82800, Note_off_c, 4, 62, 111
4, 82800, Note_off_c, 4, 59, 111
4, 82800, Note_off_c, 4, 47, 111
4, 82800, Note_on_c, 4, 66, 95
4, 82800, Note_on_c, 4, 62, 95
4, 82800, Note_on_c, 4, 59, 95
4, 82800, Note_on_c, 4, 47, 95
4, 83040, Note_off_c, 4, 66, 95
4, 83040, Note_off_c, 4, 62, 95
4, 83040, Note_off_c, 4, 59, 95
4, 83040, Note_off_c, 4, 47, 95
4, 83040, Note_on_c, 4, 66, 95
4, 83040, Note_on_c, 4, 62, 95
4, 83040, Note_on_c, 4, 59, 95
4, 83040, Note_on_c, 4, 47, 95
4, 83280, Note_off_c, 4, 66, 95
4, 83280, Note_off_c, 4, 62, 95
4, 83280, Note_off_c, 4, 59, 95
4, 83280, Note_off_c, 4, 47, 95
4, 83280, Note_on_c, 4, 66, 95
4, 83280, Note_on_c, 4, 62, 95
4, 83280, Note_on_c, 4, 59, 95
4, 83280, Note_on_c, 4, 47, 95
4, 83520, Note_off_c, 4, 66, 95
4, 83520, Note_off_c, 4, 62, 95
4, 83520, Note_off_c, 4, 59, 95
4, 83520, Note_off_c, 4, 47, 95
4, 83520, Note_on_c, 4, 66, 95
4, 83520, Note_on_c, 4, 61, 95
4, 83520, Note_on_c, 4, 59, 95
4, 83520, Note_on_c, 4, 45, 95
4, 84000, Note_off_c, 4, 66, 95
4, 84000, Note_off_c, 4, 61, 95
4, 84000, Note_off_c, 4, 59, 95
4, 84000, Note_off_c, 4, 45, 95
4, 84000, Note_on_c, 4, 66, 95
4, 84000, Note_on_c, 4, 61, 95
4, 84000, Note_on_c, 4, 59, 95
4, 84000, Note_on_c, 4, 45, 95
4, 84240, Note_off_c, 4, 66, 95
4, 84240, Note_off_c, 4, 61, 95
4, 84240, Note_off_c, 4, 59, 95
4, 84240, Note_off_c, 4, 45, 95
4, 84240, Note_on_c, 4, 66, 95
4, 84240, Note_on_c, 4, 61, 95
4, 84240, Note_on_c, 4, 59, 95
4, 84240, Note_on_c, 4, 45, 95
4, 84480, Note_off_c, 4, 66, 95
4, 84480, Note_off_c, 4, 61, 95
4, 84480, Note_off_c, 4, 59, 95
4, 84480, Note_off_c, 4, 45, 95
4, 84480, Note_on_c, 4, 66, 95
4, 84480, Note_on_c, 4, 61, 95
4, 84480, Note_on_c, 4, 59, 95
4, 84480, Note_on_c, 4, 45, 95
4, 84720, Note_off_c, 4, 66, 95
4, 84720, Note_off_c, 4, 61, 95
4, 84720, Note_off_c, 4, 59, 95
4, 84720, Note_off_c, 4, 45, 95
4, 84720, Note_on_c, 4, 66, 95
4, 84720, Note_on_c, 4, 61, 95
4, 84720, Note_on_c, 4, 59, 95
4, 84720, Note_on_c, 4, 45, 95
4, 84960, Note_off_c, 4, 66, 95
4, 84960, Note_off_c, 4, 61, 95
4, 84960, Note_off_c, 4, 59, 95
4, 84960, Note_off_c, 4, 45, 95
4, 84960, Note_on_c, 4, 66, 95
4, 84960, Note_on_c, 4, 61, 95
4, 84960, Note_on_c, 4, 59, 95
4, 84960, Note_on_c, 4, 45, 95
4, 85440, Note_off_c, 4, 66, 95
4, 85440, Note_off_c, 4, 61, 95
4, 85440, Note_off_c, 4, 59, 95
4, 85440, Note_off_c, 4, 45, 95
4, 85440, Note_on_c, 4, 66, 111
4, 85440, Note_on_c, 4, 61, 111
4, 85440, Note_on_c, 4, 59, 111
4, 85440, Note_on_c, 4, 45, 95
4, 85680, Note_off_c, 4, 66, 111
4, 85680, Note_off_c, 4, 61, 111
4, 85680, Note_off_c, 4, 59, 111
4, 85680, Note_off_c, 4, 45, 95
4, 85680, Note_on_c, 4, 66, 95
4, 85680, Note_on_c, 4, 61, 95
4, 85680, Note_on_c, 4, 59, 95
4, 85680, Note_on_c, 4, 45, 95
4, 85920, Note_off_c, 4, 66, 95
4, 85920, Note_off_c, 4, 61, 95
4, 85920, Note_off_c, 4, 59, 95
4, 85920, Note_off_c, 4, 45, 95
4, 85920, Note_on_c, 4, 66, 95
4, 85920, Note_on_c, 4, 61, 95
4, 85920, Note_on_c, 4, 59, 95
4, 85920, Note_on_c, 4, 45, 95
4, 86160, Note_off_c, 4, 66, 95
4, 86160, Note_off_c, 4, 61, 95
4, 86160, Note_off_c, 4, 59, 95
4, 86160, Note_off_c, 4, 45, 95
4, 86160, Note_on_c, 4, 66, 95
4, 86160, Note_on_c, 4, 61, 95
4, 86160, Note_on_c, 4, 59, 95
4, 86160, Note_on_c, 4, 45, 95
4, 86400, Note_off_c, 4, 66, 95
4, 86400, Note_off_c, 4, 61, 95
4, 86400, Note_off_c, 4, 59, 95
4, 86400, Note_off_c, 4, 45, 95
4, 86400, Note_on_c, 4, 64, 95
4, 86400, Note_on_c, 4, 59, 95
4, 86400, Note_on_c, 4, 55, 95
4, 86400, Note_on_c, 4, 52, 95
4, 86400, Note_on_c, 4, 47, 95
4, 86400, Note_on_c, 4, 40, 95
4, 86880, Note_off_c, 4, 64, 95
4, 86880, Note_off_c, 4, 59, 95
4, 86880, Note_off_c, 4, 55, 95
4, 86880, Note_off_c, 4, 52, 95
4, 86880, Note_off_c, 4, 47, 95
4, 86880, Note_off_c, 4, 40, 95
4, 86880, Note_on_c, 4, 64, 95
4, 86880, Note_on_c, 4, 59, 95
4, 86880, Note_on_c, 4, 55, 95
4, 86880, Note_on_c, 4, 52, 95
4, 86880, Note_on_c, 4, 47, 95
4, 86880, Note_on_c, 4, 40, 95
4, 87120, Note_off_c, 4, 64, 95
4, 87120, Note_off_c, 4, 59, 95
4, 87120, Note_off_c, 4, 55, 95
4, 87120, Note_off_c, 4, 52, 95
4, 87120, Note_off_c, 4, 47, 95
4, 87120, Note_off_c, 4, 40, 95
4, 87120, Note_on_c, 4, 64, 95
4, 87120, Note_on_c, 4, 59, 95
4, 87120, Note_on_c, 4, 55, 95
4, 87120, Note_on_c, 4, 52, 95
4, 87120, Note_on_c, 4, 47, 95
4, 87120, Note_on_c, 4, 40, 95
4, 87360, Note_off_c, 4, 64, 95
4, 87360, Note_off_c, 4, 59, 95
4, 87360, Note_off_c, 4, 55, 95
4, 87360, Note_off_c, 4, 52, 95
4, 87360, Note_off_c, 4, 47, 95
4, 87360, Note_off_c, 4, 40, 95
4, 87360, Note_on_c, 4, 64, 95
4, 87360, Note_on_c, 4, 59, 95
4, 87360, Note_on_c, 4, 55, 95
4, 87360, Note_on_c, 4, 52, 95
4, 87360, Note_on_c, 4, 47, 95
4, 87360, Note_on_c, 4, 40, 95
4, 87600, Note_off_c, 4, 64, 95
4, 87600, Note_off_c, 4, 59, 95
4, 87600, Note_off_c, 4, 55, 95
4, 87600, Note_off_c, 4, 52, 95
4, 87600, Note_off_c, 4, 47, 95
4, 87600, Note_off_c, 4, 40, 95
4, 87600, Note_on_c, 4, 64, 95
4, 87600, Note_on_c, 4, 59, 95
4, 87600, Note_on_c, 4, 55, 95
4, 87600, Note_on_c, 4, 52, 95
4, 87600, Note_on_c, 4, 47, 95
4, 87600, Note_on_c, 4, 40, 95
4, 87840, Note_off_c, 4, 64, 95
4, 87840, Note_off_c, 4, 59, 95
4, 87840, Note_off_c, 4, 55, 95
4, 87840, Note_off_c, 4, 52, 95
4, 87840, Note_off_c, 4, 47, 95
4, 87840, Note_off_c, 4, 40, 95
4, 87840, Note_on_c, 4, 64, 95
4, 87840, Note_on_c, 4, 59, 95
4, 87840, Note_on_c, 4, 55, 95
4, 87840, Note_on_c, 4, 52, 95
4, 87840, Note_on_c, 4, 47, 95
4, 87840, Note_on_c, 4, 40, 95
4, 88320, Note_off_c, 4, 64, 95
4, 88320, Note_off_c, 4, 59, 95
4, 88320, Note_off_c, 4, 55, 95
4, 88320, Note_off_c, 4, 52, 95
4, 88320, Note_off_c, 4, 47, 95
4, 88320, Note_off_c, 4, 40, 95
4, 88320, Note_on_c, 4, 64, 111
4, 88320, Note_on_c, 4, 59, 111
4, 88320, Note_on_c, 4, 55, 111
4, 88320, Note_on_c, 4, 52, 111
4, 88320, Note_on_c, 4, 47, 111
4, 88320, Note_on_c, 4, 40, 111
4, 88560, Note_off_c, 4, 64, 111
4, 88560, Note_off_c, 4, 59, 111
4, 88560, Note_off_c, 4, 55, 111
4, 88560, Note_off_c, 4, 52, 111
4, 88560, Note_off_c, 4, 47, 111
4, 88560, Note_off_c, 4, 40, 111
4, 88560, Note_on_c, 4, 64, 95
4, 88560, Note_on_c, 4, 59, 95
4, 88560, Note_on_c, 4, 55, 95
4, 88560, Note_on_c, 4, 52, 95
4, 88560, Note_on_c, 4, 47, 95
4, 88560, Note_on_c, 4, 40, 95
4, 88800, Note_off_c, 4, 64, 95
4, 88800, Note_off_c, 4, 59, 95
4, 88800, Note_off_c, 4, 55, 95
4, 88800, Note_off_c, 4, 52, 95
4, 88800, Note_off_c, 4, 47, 95
4, 88800, Note_off_c, 4, 40, 95
4, 88800, Note_on_c, 4, 64, 95
4, 88800, Note_on_c, 4, 59, 95
4, 88800, Note_on_c, 4, 55, 95
4, 88800, Note_on_c, 4, 52, 95
4, 88800, Note_on_c, 4, 47, 95
4, 88800, Note_on_c, 4, 40, 95
4, 89040, Note_off_c, 4, 64, 95
4, 89040, Note_off_c, 4, 59, 95
4, 89040, Note_off_c, 4, 55, 95
4, 89040, Note_off_c, 4, 52, 95
4, 89040, Note_off_c, 4, 47, 95
4, 89040, Note_off_c, 4, 40, 95
4, 89040, Note_on_c, 4, 64, 95
4, 89040, Note_on_c, 4, 59, 95
4, 89040, Note_on_c, 4, 55, 95
4, 89040, Note_on_c, 4, 52, 95
4, 89040, Note_on_c, 4, 47, 95
4, 89040, Note_on_c, 4, 40, 95
4, 89280, Note_off_c, 4, 64, 95
4, 89280, Note_off_c, 4, 59, 95
4, 89280, Note_off_c, 4, 55, 95
4, 89280, Note_off_c, 4, 52, 95
4, 89280, Note_off_c, 4, 47, 95
4, 89280, Note_off_c, 4, 40, 95
4, 89280, Note_on_c, 4, 64, 95
4, 89280, Note_on_c, 4, 59, 95
4, 89280, Note_on_c, 4, 55, 95
4, 89280, Note_on_c, 4, 52, 95
4, 89280, Note_on_c, 4, 47, 95
4, 89280, Note_on_c, 4, 40, 95
4, 89760, Note_off_c, 4, 64, 95
4, 89760, Note_off_c, 4, 59, 95
4, 89760, Note_off_c, 4, 55, 95
4, 89760, Note_off_c, 4, 52, 95
4, 89760, Note_off_c, 4, 47, 95
4, 89760, Note_off_c, 4, 40, 95
4, 89760, Note_on_c, 4, 64, 95
4, 89760, Note_on_c, 4, 59, 95
4, 89760, Note_on_c, 4, 55, 95
4, 89760, Note_on_c, 4, 52, 95
4, 89760, Note_on_c, 4, 47, 95
4, 89760, Note_on_c, 4, 40, 95
4, 90000, Note_off_c, 4, 64, 95
4, 90000, Note_off_c, 4, 59, 95
4, 90000, Note_off_c, 4, 55, 95
4, 90000, Note_off_c, 4, 52, 95
4, 90000, Note_off_c, 4, 47, 95
4, 90000, Note_off_c, 4, 40, 95
4, 90000, Note_on_c, 4, 64, 95
4, 90000, Note_on_c, 4, 59, 95
4, 90000, Note_on_c, 4, 55, 95
4, 90000, Note_on_c, 4, 52, 95
4, 90000, Note_on_c, 4, 47, 95
4, 90000, Note_on_c, 4, 40, 95
4, 90240, Note_off_c, 4, 64, 95
4, 90240, Note_off_c, 4, 59, 95
4, 90240, Note_off_c, 4, 55, 95
4, 90240, Note_off_c, 4, 52, 95
4, 90240, Note_off_c, 4, 47, 95
4, 90240, Note_off_c, 4, 40, 95
4, 90240, Note_on_c, 4, 64, 95
4, 90240, Note_on_c, 4, 59, 95
4, 90240, Note_on_c, 4, 55, 95
4, 90240, Note_on_c, 4, 52, 95
4, 90240, Note_on_c, 4, 47, 95
4, 90240, Note_on_c, 4, 40, 95
4, 90480, Note_off_c, 4, 64, 95
4, 90480, Note_off_c, 4, 59, 95
4, 90480, Note_off_c, 4, 55, 95
4, 90480, Note_off_c, 4, 52, 95
4, 90480, Note_off_c, 4, 47, 95
4, 90480, Note_off_c, 4, 40, 95
4, 90480, Note_on_c, 4, 64, 95
4, 90480, Note_on_c, 4, 59, 95
4, 90480, Note_on_c, 4, 55, 95
4, 90480, Note_on_c, 4, 52, 95
4, 90480, Note_on_c, 4, 47, 95
4, 90480, Note_on_c, 4, 40, 95
4, 90720, Note_off_c, 4, 64, 95
4, 90720, Note_off_c, 4, 59, 95
4, 90720, Note_off_c, 4, 55, 95
4, 90720, Note_off_c, 4, 52, 95
4, 90720, Note_off_c, 4, 47, 95
4, 90720, Note_off_c, 4, 40, 95
4, 90720, Note_on_c, 4, 64, 95
4, 90720, Note_on_c, 4, 59, 95
4, 90720, Note_on_c, 4, 55, 95
4, 90720, Note_on_c, 4, 52, 95
4, 90720, Note_on_c, 4, 47, 95
4, 90720, Note_on_c, 4, 40, 95
4, 91200, Note_off_c, 4, 64, 95
4, 91200, Note_off_c, 4, 59, 95
4, 91200, Note_off_c, 4, 55, 95
4, 91200, Note_off_c, 4, 52, 95
4, 91200, Note_off_c, 4, 47, 95
4, 91200, Note_off_c, 4, 40, 95
4, 91200, Note_on_c, 4, 64, 111
4, 91200, Note_on_c, 4, 59, 111
4, 91200, Note_on_c, 4, 55, 111
4, 91200, Note_on_c, 4, 52, 111
4, 91200, Note_on_c, 4, 47, 111
4, 91200, Note_on_c, 4, 40, 111
4, 91440, Note_off_c, 4, 64, 111
4, 91440, Note_off_c, 4, 59, 111
4, 91440, Note_off_c, 4, 55, 111
4, 91440, Note_off_c, 4, 52, 111
4, 91440, Note_off_c, 4, 47, 111
4, 91440, Note_off_c, 4, 40, 111
4, 91440, Note_on_c, 4, 64, 95
4, 91440, Note_on_c, 4, 59, 95
4, 91440, Note_on_c, 4, 55, 95
4, 91440, Note_on_c, 4, 52, 95
4, 91440, Note_on_c, 4, 47, 95
4, 91440, Note_on_c, 4, 40, 95
4, 91680, Note_off_c, 4, 64, 95
4, 91680, Note_off_c, 4, 59, 95
4, 91680, Note_off_c, 4, 55, 95
4, 91680, Note_off_c, 4, 52, 95
4, 91680, Note_off_c, 4, 47, 95
4, 91680, Note_off_c, 4, 40, 95
4, 91680, Note_on_c, 4, 64, 95
4, 91680, Note_on_c, 4, 59, 95
4, 91680, Note_on_c, 4, 55, 95
4, 91680, Note_on_c, 4, 52, 95
4, 91680, Note_on_c, 4, 47, 95
4, 91680, Note_on_c, 4, 40, 95
4, 91920, Note_off_c, 4, 64, 95
4, 91920, Note_off_c, 4, 59, 95
4, 91920, Note_off_c, 4, 55, 95
4, 91920, Note_off_c, 4, 52, 95
4, 91920, Note_off_c, 4, 47, 95
4, 91920, Note_off_c, 4, 40, 95
4, 91920, Note_on_c, 4, 64, 95
4, 91920, Note_on_c, 4, 59, 95
4, 91920, Note_on_c, 4, 55, 95
4, 91920, Note_on_c, 4, 52, 95
4, 91920, Note_on_c, 4, 47, 95
4, 91920, Note_on_c, 4, 40, 95
4, 92160, Note_off_c, 4, 64, 95
4, 92160, Note_off_c, 4, 59, 95
4, 92160, Note_off_c, 4, 55, 95
4, 92160, Note_off_c, 4, 52, 95
4, 92160, Note_off_c, 4, 47, 95
4, 92160, Note_off_c, 4, 40, 95
4, 92160, Note_on_c, 4, 64, 95
4, 92160, Note_on_c, 4, 59, 95
4, 92160, Note_on_c, 4, 55, 95
4, 92160, Note_on_c, 4, 52, 95
4, 92160, Note_on_c, 4, 47, 95
4, 92160, Note_on_c, 4, 40, 95
4, 92640, Note_off_c, 4, 64, 95
4, 92640, Note_off_c, 4, 59, 95
4, 92640, Note_off_c, 4, 55, 95
4, 92640, Note_off_c, 4, 52, 95
4, 92640, Note_off_c, 4, 47, 95
4, 92640, Note_off_c, 4, 40, 95
4, 92640, Note_on_c, 4, 64, 95
4, 92640, Note_on_c, 4, 59, 95
4, 92640, Note_on_c, 4, 55, 95
4, 92640, Note_on_c, 4, 52, 95
4, 92640, Note_on_c, 4, 47, 95
4, 92640, Note_on_c, 4, 40, 95
4, 92880, Note_off_c, 4, 64, 95
4, 92880, Note_off_c, 4, 59, 95
4, 92880, Note_off_c, 4, 55, 95
4, 92880, Note_off_c, 4, 52, 95
4, 92880, Note_off_c, 4, 47, 95
4, 92880, Note_off_c, 4, 40, 95
4, 92880, Note_on_c, 4, 64, 95
4, 92880, Note_on_c, 4, 59, 95
4, 92880, Note_on_c, 4, 55, 95
4, 92880, Note_on_c, 4, 52, 95
4, 92880, Note_on_c, 4, 47, 95
4, 92880, Note_on_c, 4, 40, 95
4, 93120, Note_off_c, 4, 64, 95
4, 93120, Note_off_c, 4, 59, 95
4, 93120, Note_off_c, 4, 55, 95
4, 93120, Note_off_c, 4, 52, 95
4, 93120, Note_off_c, 4, 47, 95
4, 93120, Note_off_c, 4, 40, 95
4, 93120, Note_on_c, 4, 64, 95
4, 93120, Note_on_c, 4, 59, 95
4, 93120, Note_on_c, 4, 55, 95
4, 93120, Note_on_c, 4, 52, 95
4, 93120, Note_on_c, 4, 47, 95
4, 93120, Note_on_c, 4, 40, 95
4, 93360, Note_off_c, 4, 64, 95
4, 93360, Note_off_c, 4, 59, 95
4, 93360, Note_off_c, 4, 55, 95
4, 93360, Note_off_c, 4, 52, 95
4, 93360, Note_off_c, 4, 47, 95
4, 93360, Note_off_c, 4, 40, 95
4, 93360, Note_on_c, 4, 64, 95
4, 93360, Note_on_c, 4, 59, 95
4, 93360, Note_on_c, 4, 55, 95
4, 93360, Note_on_c, 4, 52, 95
4, 93360, Note_on_c, 4, 47, 95
4, 93360, Note_on_c, 4, 40, 95
4, 93600, Note_off_c, 4, 64, 95
4, 93600, Note_off_c, 4, 59, 95
4, 93600, Note_off_c, 4, 55, 95
4, 93600, Note_off_c, 4, 52, 95
4, 93600, Note_off_c, 4, 47, 95
4, 93600, Note_off_c, 4, 40, 95
4, 93600, Note_on_c, 4, 63, 95
4, 93600, Note_on_c, 4, 57, 95
4, 93600, Note_on_c, 4, 54, 95
4, 93600, Note_on_c, 4, 42, 95
4, 94080, Note_off_c, 4, 63, 95
4, 94080, Note_off_c, 4, 57, 95
4, 94080, Note_off_c, 4, 54, 95
4, 94080, Note_off_c, 4, 42, 95
4, 94080, Note_on_c, 4, 63, 111
4, 94080, Note_on_c, 4, 57, 111
4, 94080, Note_on_c, 4, 54, 111
4, 94080, Note_on_c, 4, 42, 111
4, 94320, Note_off_c, 4, 63, 111
4, 94320, Note_off_c, 4, 57, 111
4, 94320, Note_off_c, 4, 54, 111
4, 94320, Note_off_c, 4, 42, 111
4, 94320, Note_on_c, 4, 63, 95
4, 94320, Note_on_c, 4, 57, 95
4, 94320, Note_on_c, 4, 54, 95
4, 94320, Note_on_c, 4, 42, 95
4, 94560, Note_off_c, 4, 63, 95
4, 94560, Note_off_c, 4, 57, 95
4, 94560, Note_off_c, 4, 54, 95
4, 94560, Note_off_c, 4, 42, 95
4, 94560, Note_on_c, 4, 63, 95
4, 94560, Note_on_c, 4, 57, 95
4, 94560, Note_on_c, 4, 54, 95
4, 94560, Note_on_c, 4, 42, 95
4, 94800, Note_off_c, 4, 63, 95
4, 94800, Note_off_c, 4, 57, 95
4, 94800, Note_off_c, 4, 54, 95
4, 94800, Note_off_c, 4, 42, 95
4, 94800, Note_on_c, 4, 63, 95
4, 94800, Note_on_c, 4, 57, 95
4, 94800, Note_on_c, 4, 54, 95
4, 94800, Note_on_c, 4, 42, 95
4, 95040, Note_off_c, 4, 63, 95
4, 95040, Note_off_c, 4, 57, 95
4, 95040, Note_off_c, 4, 54, 95
4, 95040, Note_off_c, 4, 42, 95
4, 95040, Note_on_c, 4, 64, 95
4, 95040, Note_on_c, 4, 59, 95
4, 95040, Note_on_c, 4, 55, 95
4, 95040, Note_on_c, 4, 43, 95
4, 95520, Note_off_c, 4, 64, 95
4, 95520, Note_off_c, 4, 59, 95
4, 95520, Note_off_c, 4, 55, 95
4, 95520, Note_off_c, 4, 43, 95
4, 95520, Note_on_c, 4, 64, 95
4, 95520, Note_on_c, 4, 59, 95
4, 95520, Note_on_c, 4, 55, 95
4, 95520, Note_on_c, 4, 43, 95
4, 95760, Note_off_c, 4, 64, 95
4, 95760, Note_off_c, 4, 59, 95
4, 95760, Note_off_c, 4, 55, 95
4, 95760, Note_off_c, 4, 43, 95
4, 95760, Note_on_c, 4, 64, 95
4, 95760, Note_on_c, 4, 59, 95
4, 95760, Note_on_c, 4, 55, 95
4, 95760, Note_on_c, 4, 43, 95
4, 96000, Note_off_c, 4, 64, 95
4, 96000, Note_off_c, 4, 59, 95
4, 96000, Note_off_c, 4, 55, 95
4, 96000, Note_off_c, 4, 43, 95
4, 96000, Note_on_c, 4, 64, 95
4, 96000, Note_on_c, 4, 59, 95
4, 96000, Note_on_c, 4, 55, 95
4, 96000, Note_on_c, 4, 43, 95
4, 96240, Note_off_c, 4, 64, 95
4, 96240, Note_off_c, 4, 59, 95
4, 96240, Note_off_c, 4, 55, 95
4, 96240, Note_off_c, 4, 43, 95
4, 96240, Note_on_c, 4, 64, 95
4, 96240, Note_on_c, 4, 59, 95
4, 96240, Note_on_c, 4, 55, 95
4, 96240, Note_on_c, 4, 43, 95
4, 96480, Note_off_c, 4, 64, 95
4, 96480, Note_off_c, 4, 59, 95
4, 96480, Note_off_c, 4, 55, 95
4, 96480, Note_off_c, 4, 43, 95
4, 96480, Note_on_c, 4, 66, 95
4, 96480, Note_on_c, 4, 61, 95
4, 96480, Note_on_c, 4, 57, 95
4, 96480, Note_on_c, 4, 45, 95
4, 96960, Note_off_c, 4, 66, 95
4, 96960, Note_off_c, 4, 61, 95
4, 96960, Note_off_c, 4, 57, 95
4, 96960, Note_off_c, 4, 45, 95
4, 96960, Note_on_c, 4, 66, 111
4, 96960, Note_on_c, 4, 61, 111
4, 96960, Note_on_c, 4, 57, 111
4, 96960, Note_on_c, 4, 45, 111
4, 97200, Note_off_c, 4, 66, 111
4, 97200, Note_off_c, 4, 61, 111
4, 97200, Note_off_c, 4, 57, 111
4, 97200, Note_off_c, 4, 45, 111
4, 97200, Note_on_c, 4, 66, 95
4, 97200, Note_on_c, 4, 61, 95
4, 97200, Note_on_c, 4, 57, 95
4, 97200, Note_on_c, 4, 45, 95
4, 97440, Note_off_c, 4, 66, 95
4, 97440, Note_off_c, 4, 61, 95
4, 97440, Note_off_c, 4, 57, 95
4, 97440, Note_off_c, 4, 45, 95
4, 97440, Note_on_c, 4, 66, 95
4, 97440, Note_on_c, 4, 61, 95
4, 97440, Note_on_c, 4, 57, 95
4, 97440, Note_on_c, 4, 45, 95
4, 97680, Note_off_c, 4, 66, 95
4, 97680, Note_off_c, 4, 61, 95
4, 97680, Note_off_c, 4, 57, 95
4, 97680, Note_off_c, 4, 45, 95
4, 97680, Note_on_c, 4, 66, 95
4, 97680, Note_on_c, 4, 61, 95
4, 97680, Note_on_c, 4, 57, 95
4, 97680, Note_on_c, 4, 45, 95
4, 97920, Note_off_c, 4, 66, 95
4, 97920, Note_off_c, 4, 61, 95
4, 97920, Note_off_c, 4, 57, 95
4, 97920, Note_off_c, 4, 45, 95
4, 97920, Note_on_c, 4, 66, 95
4, 97920, Note_on_c, 4, 62, 95
4, 97920, Note_on_c, 4, 59, 95
4, 97920, Note_on_c, 4, 47, 95
4, 98400, Note_off_c, 4, 66, 95
4, 98400, Note_off_c, 4, 62, 95
4, 98400, Note_off_c, 4, 59, 95
4, 98400, Note_off_c, 4, 47, 95
4, 98400, Note_on_c, 4, 66, 95
4, 98400, Note_on_c, 4, 62, 95
4, 98400, Note_on_c, 4, 59, 95
4, 98400, Note_on_c, 4, 47, 95
4, 98640, Note_off_c, 4, 66, 95
4, 98640, Note_off_c, 4, 62, 95
4, 98640, Note_off_c, 4, 59, 95
4, 98640, Note_off_c, 4, 47, 95
4, 98640, Note_on_c, 4, 66, 95
4, 98640, Note_on_c, 4, 62, 95
4, 98640, Note_on_c, 4, 59, 95
4, 98640, Note_on_c, 4, 47, 95
4, 98880, Note_off_c, 4, 66, 95
4, 98880, Note_off_c, 4, 62, 95
4, 98880, Note_off_c, 4, 59, 95
4, 98880, Note_off_c, 4, 47, 95
4, 98880, Note_on_c, 4, 66, 95
4, 98880, Note_on_c, 4, 62, 95
4, 98880, Note_on_c, 4, 59, 95
4, 98880, Note_on_c, 4, 47, 95
4, 99120, Note_off_c, 4, 66, 95
4, 99120, Note_off_c, 4, 62, 95
4, 99120, Note_off_c, 4, 59, 95
4, 99120, Note_off_c, 4, 47, 95
4, 99120, Note_on_c, 4, 66, 95
4, 99120, Note_on_c, 4, 62, 95
4, 99120, Note_on_c, 4, 59, 95
4, 99120, Note_on_c, 4, 47, 95
4, 99360, Note_off_c, 4, 66, 95
4, 99360, Note_off_c, 4, 62, 95
4, 99360, Note_off_c, 4, 59, 95
4, 99360, Note_off_c, 4, 47, 95
4, 99360, Note_on_c, 4, 66, 95
4, 99360, Note_on_c, 4, 62, 95
4, 99360, Note_on_c, 4, 59, 95
4, 99360, Note_on_c, 4, 47, 95
4, 99840, Note_off_c, 4, 66, 95
4, 99840, Note_off_c, 4, 62, 95
4, 99840, Note_off_c, 4, 59, 95
4, 99840, Note_off_c, 4, 47, 95
4, 99840, Note_on_c, 4, 66, 111
4, 99840, Note_on_c, 4, 62, 111
4, 99840, Note_on_c, 4, 59, 111
4, 99840, Note_on_c, 4, 47, 111
4, 100080, Note_off_c, 4, 66, 111
4, 100080, Note_off_c, 4, 62, 111
4, 100080, Note_off_c, 4, 59, 111
4, 100080, Note_off_c, 4, 47, 111
4, 100080, Note_on_c, 4, 66, 95
4, 100080, Note_on_c, 4, 62, 95
4, 100080, Note_on_c, 4, 59, 95
4, 100080, Note_on_c, 4, 47, 95
4, 100320, Note_off_c, 4, 66, 95
4, 100320, Note_off_c, 4, 62, 95
4, 100320, Note_off_c, 4, 59, 95
4, 100320, Note_off_c, 4, 47, 95
4, 100320, Note_on_c, 4, 66, 95
4, 100320, Note_on_c, 4, 62, 95
4, 100320, Note_on_c, 4, 59, 95
4, 100320, Note_on_c, 4, 47, 95
4, 100560, Note_off_c, 4, 66, 95
4, 100560, Note_off_c, 4, 62, 95
4, 100560, Note_off_c, 4, 59, 95
4, 100560, Note_off_c, 4, 47, 95
4, 100560, Note_on_c, 4, 66, 95
4, 100560, Note_on_c, 4, 62, 95
4, 100560, Note_on_c, 4, 59, 95
4, 100560, Note_on_c, 4, 47, 95
4, 100800, Note_off_c, 4, 66, 95
4, 100800, Note_off_c, 4, 62, 95
4, 100800, Note_off_c, 4, 59, 95
4, 100800, Note_off_c, 4, 47, 95
4, 100800, Note_on_c, 4, 66, 95
4, 100800, Note_on_c, 4, 61, 95
4, 100800, Note_on_c, 4, 59, 95
4, 100800, Note_on_c, 4, 45, 95
4, 101280, Note_off_c, 4, 66, 95
4, 101280, Note_off_c, 4, 61, 95
4, 101280, Note_off_c, 4, 59, 95
4, 101280, Note_off_c, 4, 45, 95
4, 101280, Note_on_c, 4, 66, 95
4, 101280, Note_on_c, 4, 61, 95
4, 101280, Note_on_c, 4, 59, 95
4, 101280, Note_on_c, 4, 45, 95
4, 101520, Note_off_c, 4, 66, 95
4, 101520, Note_off_c, 4, 61, 95
4, 101520, Note_off_c, 4, 59, 95
4, 101520, Note_off_c, 4, 45, 95
4, 101520, Note_on_c, 4, 66, 95
4, 101520, Note_on_c, 4, 61, 95
4, 101520, Note_on_c, 4, 59, 95
4, 101520, Note_on_c, 4, 45, 95
4, 101760, Note_off_c, 4, 66, 95
4, 101760, Note_off_c, 4, 61, 95
4, 101760, Note_off_c, 4, 59, 95
4, 101760, Note_off_c, 4, 45, 95
4, 101760, Note_on_c, 4, 66, 95
4, 101760, Note_on_c, 4, 61, 95
4, 101760, Note_on_c, 4, 59, 95
4, 101760, Note_on_c, 4, 45, 95
4, 102000, Note_off_c, 4, 66, 95
4, 102000, Note_off_c, 4, 61, 95
4, 102000, Note_off_c, 4, 59, 95
4, 102000, Note_off_c, 4, 45, 95
4, 102000, Note_on_c, 4, 66, 95
4, 102000, Note_on_c, 4, 61, 95
4, 102000, Note_on_c, 4, 59, 95
4, 102000, Note_on_c, 4, 45, 95
4, 102240, Note_off_c, 4, 66, 95
4, 102240, Note_off_c, 4, 61, 95
4, 102240, Note_off_c, 4, 59, 95
4, 102240, Note_off_c, 4, 45, 95
4, 102240, Note_on_c, 4, 66, 95
4, 102240, Note_on_c, 4, 61, 95
4, 102240, Note_on_c, 4, 59, 95
4, 102240, Note_on_c, 4, 45, 95
4, 102720, Note_off_c, 4, 66, 95
4, 102720, Note_off_c, 4, 61, 95
4, 102720, Note_off_c, 4, 59, 95
4, 102720, Note_off_c, 4, 45, 95
4, 102720, Note_on_c, 4, 66, 111
4, 102720, Note_on_c, 4, 61, 111
4, 102720, Note_on_c, 4, 59, 111
4, 102720, Note_on_c, 4, 45, 95
4, 102960, Note_off_c, 4, 66, 111
4, 102960, Note_off_c, 4, 61, 111
4, 102960, Note_off_c, 4, 59, 111
4, 102960, Note_off_c, 4, 45, 95
4, 102960, Note_on_c, 4, 66, 95
4, 102960, Note_on_c, 4, 61, 95
4, 102960, Note_on_c, 4, 59, 95
4, 102960, Note_on_c, 4, 45, 95
4, 103200, Note_off_c, 4, 66, 95
4, 103200, Note_off_c, 4, 61, 95
4, 103200, Note_off_c, 4, 59, 95
4, 103200, Note_off_c, 4, 45, 95
4, 103200, Note_on_c, 4, 66, 95
4, 103200, Note_on_c, 4, 61, 95
4, 103200, Note_on_c, 4, 59, 95
4, 103200, Note_on_c, 4, 45, 95
4, 103440, Note_off_c, 4, 66, 95
4, 103440, Note_off_c, 4, 61, 95
4, 103440, Note_off_c, 4, 59, 95
4, 103440, Note_off_c, 4, 45, 95
4, 103440, Note_on_c, 4, 66, 95
4, 103440, Note_on_c, 4, 61, 95
4, 103440, Note_on_c, 4, 59, 95
4, 103440, Note_on_c, 4, 45, 95
4, 103680, Note_off_c, 4, 66, 95
4, 103680, Note_off_c, 4, 61, 95
4, 103680, Note_off_c, 4, 59, 95
4, 103680, Note_off_c, 4, 45, 95
4, 103680, Note_on_c, 4, 64, 95
4, 103680, Note_on_c, 4, 59, 95
4, 103680, Note_on_c, 4, 55, 95
4, 103680, Note_on_c, 4, 52, 95
4, 103680, Note_on_c, 4, 47, 95
4, 103680, Note_on_c, 4, 40, 95
4, 104160, Note_off_c, 4, 64, 95
4, 104160, Note_off_c, 4, 59, 95
4, 104160, Note_off_c, 4, 55, 95
4, 104160, Note_off_c, 4, 52, 95
4, 104160, Note_off_c, 4, 47, 95
4, 104160, Note_off_c, 4, 40, 95
4, 104160, Note_on_c, 4, 64, 95
4, 104160, Note_on_c, 4, 59, 95
4, 104160, Note_on_c, 4, 55, 95
4, 104160, Note_on_c, 4, 52, 95
4, 104160, Note_on_c, 4, 47, 95
4, 104160, Note_on_c, 4, 40, 95
4, 104400, Note_off_c, 4, 64, 95
4, 104400, Note_off_c, 4, 59, 95
4, 104400, Note_off_c, 4, 55, 95
4, 104400, Note_off_c, 4, 52, 95
4, 104400, Note_off_c, 4, 47, 95
4, 104400, Note_off_c, 4, 40, 95
4, 104400, Note_on_c, 4, 64, 95
4, 104400, Note_on_c, 4, 59, 95
4, 104400, Note_on_c, 4, 55, 95
4, 104400, Note_on_c, 4, 52, 95
4, 104400, Note_on_c, 4, 47, 95
4, 104400, Note_on_c, 4, 40, 95
4, 104640, Note_off_c, 4, 64, 95
4, 104640, Note_off_c, 4, 59, 95
4, 104640, Note_off_c, 4, 55, 95
4, 104640, Note_off_c, 4, 52, 95
4, 104640, Note_off_c, 4, 47, 95
4, 104640, Note_off_c, 4, 40, 95
4, 104640, Note_on_c, 4, 64, 95
4, 104640, Note_on_c, 4, 59, 95
4, 104640, Note_on_c, 4, 55, 95
4, 104640, Note_on_c, 4, 52, 95
4, 104640, Note_on_c, 4, 47, 95
4, 104640, Note_on_c, 4, 40, 95
4, 104880, Note_off_c, 4, 64, 95
4, 104880, Note_off_c, 4, 59, 95
4, 104880, Note_off_c, 4, 55, 95
4, 104880, Note_off_c, 4, 52, 95
4, 104880, Note_off_c, 4, 47, 95
4, 104880, Note_off_c, 4, 40, 95
4, 104880, Note_on_c, 4, 64, 95
4, 104880, Note_on_c, 4, 59, 95
4, 104880, Note_on_c, 4, 55, 95
4, 104880, Note_on_c, 4, 52, 95
4, 104880, Note_on_c, 4, 47, 95
4, 104880, Note_on_c, 4, 40, 95
4, 105120, Note_off_c, 4, 64, 95
4, 105120, Note_off_c, 4, 59, 95
4, 105120, Note_off_c, 4, 55, 95
4, 105120, Note_off_c, 4, 52, 95
4, 105120, Note_off_c, 4, 47, 95
4, 105120, Note_off_c, 4, 40, 95
4, 105120, Note_on_c, 4, 64, 95
4, 105120, Note_on_c, 4, 59, 95
4, 105120, Note_on_c, 4, 55, 95
4, 105120, Note_on_c, 4, 52, 95
4, 105120, Note_on_c, 4, 47, 95
4, 105120, Note_on_c, 4, 40, 95
4, 105600, Note_off_c, 4, 64, 95
4, 105600, Note_off_c, 4, 59, 95
4, 105600, Note_off_c, 4, 55, 95
4, 105600, Note_off_c, 4, 52, 95
4, 105600, Note_off_c, 4, 47, 95
4, 105600, Note_off_c, 4, 40, 95
4, 105600, Note_on_c, 4, 64, 111
4, 105600, Note_on_c, 4, 59, 111
4, 105600, Note_on_c, 4, 55, 111
4, 105600, Note_on_c, 4, 52, 111
4, 105600, Note_on_c, 4, 47, 111
4, 105600, Note_on_c, 4, 40, 111
4, 105840, Note_off_c, 4, 64, 111
4, 105840, Note_off_c, 4, 59, 111
4, 105840, Note_off_c, 4, 55, 111
4, 105840, Note_off_c, 4, 52, 111
4, 105840, Note_off_c, 4, 47, 111
4, 105840, Note_off_c, 4, 40, 111
4, 105840, Note_on_c, 4, 64, 95
4, 105840, Note_on_c, 4, 59, 95
4, 105840, Note_on_c, 4, 55, 95
4, 105840, Note_on_c, 4, 52, 95
4, 105840, Note_on_c, 4, 47, 95
4, 105840, Note_on_c, 4, 40, 95
4, 106080, Note_off_c, 4, 64, 95
4, 106080, Note_off_c, 4, 59, 95
4, 106080, Note_off_c, 4, 55, 95
4, 106080, Note_off_c, 4, 52, 95
4, 106080, Note_off_c, 4, 47, 95
4, 106080, Note_off_c, 4, 40, 95
4, 106080, Note_on_c, 4, 64, 95
4, 106080, Note_on_c, 4, 59, 95
4, 106080, Note_on_c, 4, 55, 95
4, 106080, Note_on_c, 4, 52, 95
4, 106080, Note_on_c, 4, 47, 95
4, 106080, Note_on_c, 4, 40, 95
4, 106320, Note_off_c, 4, 64, 95
4, 106320, Note_off_c, 4, 59, 95
4, 106320, Note_off_c, 4, 55, 95
4, 106320, Note_off_c, 4, 52, 95
4, 106320, Note_off_c, 4, 47, 95
4, 106320, Note_off_c, 4, 40, 95
4, 106320, Note_on_c, 4, 64, 95
4, 106320, Note_on_c, 4, 59, 95
4, 106320, Note_on_c, 4, 55, 95
4, 106320, Note_on_c, 4, 52, 95
4, 106320, Note_on_c, 4, 47, 95
4, 106320, Note_on_c, 4, 40, 95
4, 106560, Note_off_c, 4, 64, 95
4, 106560, Note_off_c, 4, 59, 95
4, 106560, Note_off_c, 4, 55, 95
4, 106560, Note_off_c, 4, 52, 95
4, 106560, Note_off_c, 4, 47, 95
4, 106560, Note_off_c, 4, 40, 95
4, 106560, Note_on_c, 4, 64, 95
4, 106560, Note_on_c, 4, 59, 95
4, 106560, Note_on_c, 4, 55, 95
4, 106560, Note_on_c, 4, 52, 95
4, 106560, Note_on_c, 4, 47, 95
4, 106560, Note_on_c, 4, 40, 95
4, 107040, Note_off_c, 4, 64, 95
4, 107040, Note_off_c, 4, 59, 95
4, 107040, Note_off_c, 4, 55, 95
4, 107040, Note_off_c, 4, 52, 95
4, 107040, Note_off_c, 4, 47, 95
4, 107040, Note_off_c, 4, 40, 95
4, 107040, Note_on_c, 4, 64, 95
4, 107040, Note_on_c, 4, 59, 95
4, 107040, Note_on_c, 4, 55, 95
4, 107040, Note_on_c, 4, 52, 95
4, 107040, Note_on_c, 4, 47, 95
4, 107040, Note_on_c, 4, 40, 95
4, 107280, Note_off_c, 4, 64, 95
4, 107280, Note_off_c, 4, 59, 95
4, 107280, Note_off_c, 4, 55, 95
4, 107280, Note_off_c, 4, 52, 95
4, 107280, Note_off_c, 4, 47, 95
4, 107280, Note_off_c, 4, 40, 95
4, 107280, Note_on_c, 4, 64, 95
4, 107280, Note_on_c, 4, 59, 95
4, 107280, Note_on_c, 4, 55, 95
4, 107280, Note_on_c, 4, 52, 95
4, 107280, Note_on_c, 4, 47, 95
4, 107280, Note_on_c, 4, 40, 95
4, 107520, Note_off_c, 4, 64, 95
4, 107520, Note_off_c, 4, 59, 95
4, 107520, Note_off_c, 4, 55, 95
4, 107520, Note_off_c, 4, 52, 95
4, 107520, Note_off_c, 4, 47, 95
4, 107520, Note_off_c, 4, 40, 95
4, 107520, Note_on_c, 4, 64, 95
4, 107520, Note_on_c, 4, 59, 95
4, 107520, Note_on_c, 4, 55, 95
4, 107520, Note_on_c, 4, 52, 95
4, 107520, Note_on_c, 4, 47, 95
4, 107520, Note_on_c, 4, 40, 95
4, 107760, Note_off_c, 4, 64, 95
4, 107760, Note_off_c, 4, 59, 95
4, 107760, Note_off_c, 4, 55, 95
4, 107760, Note_off_c, 4, 52, 95
4, 107760, Note_off_c, 4, 47, 95
4, 107760, Note_off_c, 4, 40, 95
4, 107760, Note_on_c, 4, 64, 95
4, 107760, Note_on_c, 4, 59, 95
4, 107760, Note_on_c, 4, 55, 95
4, 107760, Note_on_c, 4, 52, 95
4, 107760, Note_on_c, 4, 47, 95
4, 107760, Note_on_c, 4, 40, 95
4, 108000, Note_off_c, 4, 64, 95
4, 108000, Note_off_c, 4, 59, 95
4, 108000, Note_off_c, 4, 55, 95
4, 108000, Note_off_c, 4, 52, 95
4, 108000, Note_off_c, 4, 47, 95
4, 108000, Note_off_c, 4, 40, 95
4, 108000, Note_on_c, 4, 64, 95
4, 108000, Note_on_c, 4, 59, 95
4, 108000, Note_on_c, 4, 55, 95
4, 108000, Note_on_c, 4, 52, 95
4, 108000, Note_on_c, 4, 47, 95
4, 108000, Note_on_c, 4, 40, 95
4, 108480, Note_off_c, 4, 64, 95
4, 108480, Note_off_c, 4, 59, 95
4, 108480, Note_off_c, 4, 55, 95
4, 108480, Note_off_c, 4, 52, 95
4, 108480, Note_off_c, 4, 47, 95
4, 108480, Note_off_c, 4, 40, 95
4, 108480, Note_on_c, 4, 64, 111
4, 108480, Note_on_c, 4, 59, 111
4, 108480, Note_on_c, 4, 55, 111
4, 108480, Note_on_c, 4, 52, 111
4, 108480, Note_on_c, 4, 47, 111
4, 108480, Note_on_c, 4, 40, 111
4, 108720, Note_off_c, 4, 64, 111
4, 108720, Note_off_c, 4, 59, 111
4, 108720, Note_off_c, 4, 55, 111
4, 108720, Note_off_c, 4, 52, 111
4, 108720, Note_off_c, 4, 47, 111
4, 108720, Note_off_c, 4, 40, 111
4, 108720, Note_on_c, 4, 64, 95
4, 108720, Note_on_c, 4, 59, 95
4, 108720, Note_on_c, 4, 55, 95
4, 108720, Note_on_c, 4, 52, 95
4, 108720, Note_on_c, 4, 47, 95
4, 108720, Note_on_c, 4, 40, 95
4, 108960, Note_off_c, 4, 64, 95
4, 108960, Note_off_c, 4, 59, 95
4, 108960, Note_off_c, 4, 55, 95
4, 108960, Note_off_c, 4, 52, 95
4, 108960, Note_off_c, 4, 47, 95
4, 108960, Note_off_c, 4, 40, 95
4, 108960, Note_on_c, 4, 64, 95
4, 108960, Note_on_c, 4, 59, 95
4, 108960, Note_on_c, 4, 55, 95
4, 108960, Note_on_c, 4, 52, 95
4, 108960, Note_on_c, 4, 47, 95
4, 108960, Note_on_c, 4, 40, 95
4, 109200, Note_off_c, 4, 64, 95
4, 109200, Note_off_c, 4, 59, 95
4, 109200, Note_off_c, 4, 55, 95
4, 109200, Note_off_c, 4, 52, 95
4, 109200, Note_off_c, 4, 47, 95
4, 109200, Note_off_c, 4, 40, 95
4, 109200, Note_on_c, 4, 64, 95
4, 109200, Note_on_c, 4, 59, 95
4, 109200, Note_on_c, 4, 55, 95
4, 109200, Note_on_c, 4, 52, 95
4, 109200, Note_on_c, 4, 47, 95
4, 109200, Note_on_c, 4, 40, 95
4, 109440, Note_off_c, 4, 64, 95
4, 109440, Note_off_c, 4, 59, 95
4, 109440, Note_off_c, 4, 55, 95
4, 109440, Note_off_c, 4, 52, 95
4, 109440, Note_off_c, 4, 47, 95
4, 109440, Note_off_c, 4, 40, 95
4, 109440, Note_on_c, 4, 64, 95
4, 109440, Note_on_c, 4, 59, 95
4, 109440, Note_on_c, 4, 55, 95
4, 109440, Note_on_c, 4, 53, 95
4, 109440, Note_on_c, 4, 48, 95
4, 109440, Note_on_c, 4, 41, 95
4, 109920, Note_off_c, 4, 64, 95
4, 109920, Note_off_c, 4, 59, 95
4, 109920, Note_off_c, 4, 55, 95
4, 109920, Note_off_c, 4, 53, 95
4, 109920, Note_off_c, 4, 48, 95
4, 109920, Note_off_c, 4, 41, 95
4, 109920, Note_on_c, 4, 64, 95
4, 109920, Note_on_c, 4, 59, 95
4, 109920, Note_on_c, 4, 55, 95
4, 109920, Note_on_c, 4, 53, 95
4, 109920, Note_on_c, 4, 48, 95
4, 109920, Note_on_c, 4, 41, 95
4, 110160, Note_off_c, 4, 64, 95
4, 110160, Note_off_c, 4, 59, 95
4, 110160, Note_off_c, 4, 55, 95
4, 110160, Note_off_c, 4, 53, 95
4, 110160, Note_off_c, 4, 48, 95
4, 110160, Note_off_c, 4, 41, 95
4, 110160, Note_on_c, 4, 64, 95
4, 110160, Note_on_c, 4, 59, 95
4, 110160, Note_on_c, 4, 55, 95
4, 110160, Note_on_c, 4, 53, 95
4, 110160, Note_on_c, 4, 48, 95
4, 110160, Note_on_c, 4, 41, 95
4, 110400, Note_off_c, 4, 64, 95
4, 110400, Note_off_c, 4, 59, 95
4, 110400, Note_off_c, 4, 55, 95
4, 110400, Note_off_c, 4, 53, 95
4, 110400, Note_off_c, 4, 48, 95
4, 110400, Note_off_c, 4, 41, 95
4, 110400, Note_on_c, 4, 64, 95
4, 110400, Note_on_c, 4, 59, 95
4, 110400, Note_on_c, 4, 55, 95
4, 110400, Note_on_c, 4, 53, 95
4, 110400, Note_on_c, 4, 48, 95
4, 110400, Note_on_c, 4, 41, 95
4, 110640, Note_off_c, 4, 64, 95
4, 110640, Note_off_c, 4, 59, 95
4, 110640, Note_off_c, 4, 55, 95
4, 110640, Note_off_c, 4, 53, 95
4, 110640, Note_off_c, 4, 48, 95
4, 110640, Note_off_c, 4, 41, 95
4, 110640, Note_on_c, 4, 64, 95
4, 110640, Note_on_c, 4, 59, 95
4, 110640, Note_on_c, 4, 55, 95
4, 110640, Note_on_c, 4, 53, 95
4, 110640, Note_on_c, 4, 48, 95
4, 110640, Note_on_c, 4, 41, 95
4, 110880, Note_off_c, 4, 64, 95
4, 110880, Note_off_c, 4, 59, 95
4, 110880, Note_off_c, 4, 55, 95
4, 110880, Note_off_c, 4, 53, 95
4, 110880, Note_off_c, 4, 48, 95
4, 110880, Note_off_c, 4, 41, 95
4, 110880, Note_on_c, 4, 64, 95
4, 110880, Note_on_c, 4, 59, 95
4, 110880, Note_on_c, 4, 55, 95
4, 110880, Note_on_c, 4, 53, 95
4, 110880, Note_on_c, 4, 48, 95
4, 110880, Note_on_c, 4, 41, 95
4, 111360, Note_off_c, 4, 64, 95
4, 111360, Note_off_c, 4, 59, 95
4, 111360, Note_off_c, 4, 55, 95
4, 111360, Note_off_c, 4, 53, 95
4, 111360, Note_off_c, 4, 48, 95
4, 111360, Note_off_c, 4, 41, 95
4, 111360, Note_on_c, 4, 64, 111
4, 111360, Note_on_c, 4, 59, 111
4, 111360, Note_on_c, 4, 55, 111
4, 111360, Note_on_c, 4, 53, 111
4, 111360, Note_on_c, 4, 48, 111
4, 111360, Note_on_c, 4, 41, 111
4, 111600, Note_off_c, 4, 64, 111
4, 111600, Note_off_c, 4, 59, 111
4, 111600, Note_off_c, 4, 55, 111
4, 111600, Note_off_c, 4, 53, 111
4, 111600, Note_off_c, 4, 48, 111
4, 111600, Note_off_c, 4, 41, 111
4, 111600, Note_on_c, 4, 64, 95
4, 111600, Note_on_c, 4, 59, 95
4, 111600, Note_on_c, 4, 55, 95
4, 111600, Note_on_c, 4, 53, 95
4, 111600, Note_on_c, 4, 48, 95
4, 111600, Note_on_c, 4, 41, 95
4, 111840, Note_off_c, 4, 64, 95
4, 111840, Note_off_c, 4, 59, 95
4, 111840, Note_off_c, 4, 55, 95
4, 111840, Note_off_c, 4, 53, 95
4, 111840, Note_off_c, 4, 48, 95
4, 111840, Note_off_c, 4, 41, 95
4, 111840, Note_on_c, 4, 64, 95
4, 111840, Note_on_c, 4, 59, 95
4, 111840, Note_on_c, 4, 55, 95
4, 111840, Note_on_c, 4, 53, 95
4, 111840, Note_on_c, 4, 48, 95
4, 111840, Note_on_c, 4, 41, 95
4, 112080, Note_off_c, 4, 64, 95
4, 112080, Note_off_c, 4, 59, 95
4, 112080, Note_off_c, 4, 55, 95
4, 112080, Note_off_c, 4, 53, 95
4, 112080, Note_off_c, 4, 48, 95
4, 112080, Note_off_c, 4, 41, 95
4, 112080, Note_on_c, 4, 64, 95
4, 112080, Note_on_c, 4, 59, 95
4, 112080, Note_on_c, 4, 55, 95
4, 112080, Note_on_c, 4, 53, 95
4, 112080, Note_on_c, 4, 48, 95
4, 112080, Note_on_c, 4, 41, 95
4, 112320, Note_off_c, 4, 64, 95
4, 112320, Note_off_c, 4, 59, 95
4, 112320, Note_off_c, 4, 55, 95
4, 112320, Note_off_c, 4, 53, 95
4, 112320, Note_off_c, 4, 48, 95
4, 112320, Note_off_c, 4, 41, 95
4, 112320, Note_on_c, 4, 64, 95
4, 112320, Note_on_c, 4, 59, 95
4, 112320, Note_on_c, 4, 55, 95
4, 112320, Note_on_c, 4, 52, 95
4, 112320, Note_on_c, 4, 47, 95
4, 112320, Note_on_c, 4, 40, 95
4, 112800, Note_off_c, 4, 64, 95
4, 112800, Note_off_c, 4, 59, 95
4, 112800, Note_off_c, 4, 55, 95
4, 112800, Note_off_c, 4, 52, 95
4, 112800, Note_off_c, 4, 47, 95
4, 112800, Note_off_c, 4, 40, 95
4, 112800, Note_on_c, 4, 64, 95
4, 112800, Note_on_c, 4, 59, 95
4, 112800, Note_on_c, 4, 55, 95
4, 112800, Note_on_c, 4, 52, 95
4, 112800, Note_on_c, 4, 47, 95
4, 112800, Note_on_c, 4, 40, 95
4, 113040, Note_off_c, 4, 64, 95
4, 113040, Note_off_c, 4, 59, 95
4, 113040, Note_off_c, 4, 55, 95
4, 113040, Note_off_c, 4, 52, 95
4, 113040, Note_off_c, 4, 47, 95
4, 113040, Note_off_c, 4, 40, 95
4, 113040, Note_on_c, 4, 64, 95
4, 113040, Note_on_c, 4, 59, 95
4, 113040, Note_on_c, 4, 55, 95
4, 113040, Note_on_c, 4, 52, 95
4, 113040, Note_on_c, 4, 47, 95
4, 113040, Note_on_c, 4, 40, 95
4, 113280, Note_off_c, 4, 64, 95
4, 113280, Note_off_c, 4, 59, 95
4, 113280, Note_off_c, 4, 55, 95
4, 113280, Note_off_c, 4, 52, 95
4, 113280, Note_off_c, 4, 47, 95
4, 113280, Note_off_c, 4, 40, 95
4, 113280, Note_on_c, 4, 64, 95
4, 113280, Note_on_c, 4, 59, 95
4, 113280, Note_on_c, 4, 55, 95
4, 113280, Note_on_c, 4, 52, 95
4, 113280, Note_on_c, 4, 47, 95
4, 113280, Note_on_c, 4, 40, 95
4, 113520, Note_off_c, 4, 64, 95
4, 113520, Note_off_c, 4, 59, 95
4, 113520, Note_off_c, 4, 55, 95
4, 113520, Note_off_c, 4, 52, 95
4, 113520, Note_off_c, 4, 47, 95
4, 113520, Note_off_c, 4, 40, 95
4, 113520, Note_on_c, 4, 64, 95
4, 113520, Note_on_c, 4, 59, 95
4, 113520, Note_on_c, 4, 55, 95
4, 113520, Note_on_c, 4, 52, 95
4, 113520, Note_on_c, 4, 47, 95
4, 113520, Note_on_c, 4, 40, 95
4, 113760, Note_off_c, 4, 64, 95
4, 113760, Note_off_c, 4, 59, 95
4, 113760, Note_off_c, 4, 55, 95
4, 113760, Note_off_c, 4, 52, 95
4, 113760, Note_off_c, 4, 47, 95
4, 113760, Note_off_c, 4, 40, 95
4, 113760, Note_on_c, 4, 64, 95
4, 113760, Note_on_c, 4, 59, 95
4, 113760, Note_on_c, 4, 55, 95
4, 113760, Note_on_c, 4, 52, 95
4, 113760, Note_on_c, 4, 47, 95
4, 113760, Note_on_c, 4, 40, 95
4, 114240, Note_off_c, 4, 64, 95
4, 114240, Note_off_c, 4, 59, 95
4, 114240, Note_off_c, 4, 55, 95
4, 114240, Note_off_c, 4, 52, 95
4, 114240, Note_off_c, 4, 47, 95
4, 114240, Note_off_c, 4, 40, 95
4, 114240, Note_on_c, 4, 64, 111
4, 114240, Note_on_c, 4, 59, 111
4, 114240, Note_on_c, 4, 55, 111
4, 114240, Note_on_c, 4, 52, 111
4, 114240, Note_on_c, 4, 47, 111
4, 114240, Note_on_c, 4, 40, 111
4, 114480, Note_off_c, 4, 64, 111
4, 114480, Note_off_c, 4, 59, 111
4, 114480, Note_off_c, 4, 55, 111
4, 114480, Note_off_c, 4, 52, 111
4, 114480, Note_off_c, 4, 47, 111
4, 114480, Note_off_c, 4, 40, 111
4, 114480, Note_on_c, 4, 64, 95
4, 114480, Note_on_c, 4, 59, 95
4, 114480, Note_on_c, 4, 55, 95
4, 114480, Note_on_c, 4, 52, 95
4, 114480, Note_on_c, 4, 47, 95
4, 114480, Note_on_c, 4, 40, 95
4, 114720, Note_off_c, 4, 64, 95
4, 114720, Note_off_c, 4, 59, 95
4, 114720, Note_off_c, 4, 55, 95
4, 114720, Note_off_c, 4, 52, 95
4, 114720, Note_off_c, 4, 47, 95
4, 114720, Note_off_c, 4, 40, 95
4, 114720, Note_on_c, 4, 64, 95
4, 114720, Note_on_c, 4, 59, 95
4, 114720, Note_on_c, 4, 55, 95
4, 114720, Note_on_c, 4, 52, 95
4, 114720, Note_on_c, 4, 47, 95
4, 114720, Note_on_c, 4, 40, 95
4, 114960, Note_off_c, 4, 64, 95
4, 114960, Note_off_c, 4, 59, 95
4, 114960, Note_off_c, 4, 55, 95
4, 114960, Note_off_c, 4, 52, 95
4, 114960, Note_off_c, 4, 47, 95
4, 114960, Note_off_c, 4, 40, 95
4, 114960, Note_on_c, 4, 64, 95
4, 114960, Note_on_c, 4, 59, 95
4, 114960, Note_on_c, 4, 55, 95
4, 114960, Note_on_c, 4, 52, 95
4, 114960, Note_on_c, 4, 47, 95
4, 114960, Note_on_c, 4, 40, 95
4, 115200, Note_off_c, 4, 64, 95
4, 115200, Note_off_c, 4, 59, 95
4, 115200, Note_off_c, 4, 55, 95
4, 115200, Note_off_c, 4, 52, 95
4, 115200, Note_off_c, 4, 47, 95
4, 115200, Note_off_c, 4, 40, 95
4, 115200, Note_on_c, 4, 64, 95
4, 115200, Note_on_c, 4, 59, 95
4, 115200, Note_on_c, 4, 55, 95
4, 115200, Note_on_c, 4, 51, 95
4, 115200, Note_on_c, 4, 46, 95
4, 115200, Note_on_c, 4, 39, 95
4, 115680, Note_off_c, 4, 64, 95
4, 115680, Note_off_c, 4, 59, 95
4, 115680, Note_off_c, 4, 55, 95
4, 115680, Note_off_c, 4, 51, 95
4, 115680, Note_off_c, 4, 46, 95
4, 115680, Note_off_c, 4, 39, 95
4, 115680, Note_on_c, 4, 64, 95
4, 115680, Note_on_c, 4, 59, 95
4, 115680, Note_on_c, 4, 55, 95
4, 115680, Note_on_c, 4, 51, 95
4, 115680, Note_on_c, 4, 46, 95
4, 115680, Note_on_c, 4, 39, 95
4, 115920, Note_off_c, 4, 64, 95
4, 115920, Note_off_c, 4, 59, 95
4, 115920, Note_off_c, 4, 55, 95
4, 115920, Note_off_c, 4, 51, 95
4, 115920, Note_off_c, 4, 46, 95
4, 115920, Note_off_c, 4, 39, 95
4, 115920, Note_on_c, 4, 64, 95
4, 115920, Note_on_c, 4, 59, 95
4, 115920, Note_on_c, 4, 55, 95
4, 115920, Note_on_c, 4, 51, 95
4, 115920, Note_on_c, 4, 46, 95
4, 115920, Note_on_c, 4, 39, 95
4, 116160, Note_off_c, 4, 64, 95
4, 116160, Note_off_c, 4, 59, 95
4, 116160, Note_off_c, 4, 55, 95
4, 116160, Note_off_c, 4, 51, 95
4, 116160, Note_off_c, 4, 46, 95
4, 116160, Note_off_c, 4, 39, 95
4, 116160, Note_on_c, 4, 64, 95
4, 116160, Note_on_c, 4, 59, 95
4, 116160, Note_on_c, 4, 55, 95
4, 116160, Note_on_c, 4, 51, 95
4, 116160, Note_on_c, 4, 46, 95
4, 116160, Note_on_c, 4, 39, 95
4, 116400, Note_off_c, 4, 64, 95
4, 116400, Note_off_c, 4, 59, 95
4, 116400, Note_off_c, 4, 55, 95
4, 116400, Note_off_c, 4, 51, 95
4, 116400, Note_off_c, 4, 46, 95
4, 116400, Note_off_c, 4, 39, 95
4, 116400, Note_on_c, 4, 64, 95
4, 116400, Note_on_c, 4, 59, 95
4, 116400, Note_on_c, 4, 55, 95
4, 116400, Note_on_c, 4, 51, 95
4, 116400, Note_on_c, 4, 46, 95
4, 116400, Note_on_c, 4, 39, 95
4, 116640, Note_off_c, 4, 64, 95
4, 116640, Note_off_c, 4, 59, 95
4, 116640, Note_off_c, 4, 55, 95
4, 116640, Note_off_c, 4, 51, 95
4, 116640, Note_off_c, 4, 46, 95
4, 116640, Note_off_c, 4, 39, 95
4, 116640, Note_on_c, 4, 64, 95
4, 116640, Note_on_c, 4, 59, 95
4, 116640, Note_on_c, 4, 55, 95
4, 116640, Note_on_c, 4, 51, 95
4, 116640, Note_on_c, 4, 46, 95
4, 116640, Note_on_c, 4, 39, 95
4, 117120, Note_off_c, 4, 64, 95
4, 117120, Note_off_c, 4, 59, 95
4, 117120, Note_off_c, 4, 55, 95
4, 117120, Note_off_c, 4, 51, 95
4, 117120, Note_off_c, 4, 46, 95
4, 117120, Note_off_c, 4, 39, 95
4, 117120, Note_on_c, 4, 64, 111
4, 117120, Note_on_c, 4, 59, 111
4, 117120, Note_on_c, 4, 55, 111
4, 117120, Note_on_c, 4, 51, 111
4, 117120, Note_on_c, 4, 46, 111
4, 117120, Note_on_c, 4, 39, 111
4, 117360, Note_off_c, 4, 64, 111
4, 117360, Note_off_c, 4, 59, 111
4, 117360, Note_off_c, 4, 55, 111
4, 117360, Note_off_c, 4, 51, 111
4, 117360, Note_off_c, 4, 46, 111
4, 117360, Note_off_c, 4, 39, 111
4, 117360, Note_on_c, 4, 64, 95
4, 117360, Note_on_c, 4, 59, 95
4, 117360, Note_on_c, 4, 55, 95
4, 117360, Note_on_c, 4, 51, 95
4, 117360, Note_on_c, 4, 46, 95
4, 117360, Note_on_c, 4, 39, 95
4, 117600, Note_off_c, 4, 64, 95
4, 117600, Note_off_c, 4, 59, 95
4, 117600, Note_off_c, 4, 55, 95
4, 117600, Note_off_c, 4, 51, 95
4, 117600, Note_off_c, 4, 46, 95
4, 117600, Note_off_c, 4, 39, 95
4, 117600, Note_on_c, 4, 64, 95
4, 117600, Note_on_c, 4, 59, 95
4, 117600, Note_on_c, 4, 55, 95
4, 117600, Note_on_c, 4, 51, 95
4, 117600, Note_on_c, 4, 46, 95
4, 117600, Note_on_c, 4, 39, 95
4, 117840, Note_off_c, 4, 64, 95
4, 117840, Note_off_c, 4, 59, 95
4, 117840, Note_off_c, 4, 55, 95
4, 117840, Note_off_c, 4, 51, 95
4, 117840, Note_off_c, 4, 46, 95
4, 117840, Note_off_c, 4, 39, 95
4, 117840, Note_on_c, 4, 64, 95
4, 117840, Note_on_c, 4, 59, 95
4, 117840, Note_on_c, 4, 55, 95
4, 117840, Note_on_c, 4, 51, 95
4, 117840, Note_on_c, 4, 46, 95
4, 117840, Note_on_c, 4, 39, 95
4, 118080, Note_off_c, 4, 64, 95
4, 118080, Note_off_c, 4, 59, 95
4, 118080, Note_off_c, 4, 55, 95
4, 118080, Note_off_c, 4, 51, 95
4, 118080, Note_off_c, 4, 46, 95
4, 118080, Note_off_c, 4, 39, 95
4, 118080, Note_on_c, 4, 64, 95
4, 118080, Note_on_c, 4, 59, 95
4, 118080, Note_on_c, 4, 55, 95
4, 118080, Note_on_c, 4, 51, 95
4, 118080, Note_on_c, 4, 46, 95
4, 118080, Note_on_c, 4, 39, 95
4, 118560, Note_off_c, 4, 64, 95
4, 118560, Note_off_c, 4, 59, 95
4, 118560, Note_off_c, 4, 55, 95
4, 118560, Note_off_c, 4, 51, 95
4, 118560, Note_off_c, 4, 46, 95
4, 118560, Note_off_c, 4, 39, 95
4, 118560, Note_on_c, 4, 64, 95
4, 118560, Note_on_c, 4, 59, 95
4, 118560, Note_on_c, 4, 55, 95
4, 118560, Note_on_c, 4, 51, 95
4, 118560, Note_on_c, 4, 46, 95
4, 118560, Note_on_c, 4, 39, 95
4, 118800, Note_off_c, 4, 64, 95
4, 118800, Note_off_c, 4, 59, 95
4, 118800, Note_off_c, 4, 55, 95
4, 118800, Note_off_c, 4, 51, 95
4, 118800, Note_off_c, 4, 46, 95
4, 118800, Note_off_c, 4, 39, 95
4, 118800, Note_on_c, 4, 64, 95
4, 118800, Note_on_c, 4, 59, 95
4, 118800, Note_on_c, 4, 55, 95
4, 118800, Note_on_c, 4, 51, 95
4, 118800, Note_on_c, 4, 46, 95
4, 118800, Note_on_c, 4, 39, 95
4, 119040, Note_off_c, 4, 64, 95
4, 119040, Note_off_c, 4, 59, 95
4, 119040, Note_off_c, 4, 55, 95
4, 119040, Note_off_c, 4, 51, 95
4, 119040, Note_off_c, 4, 46, 95
4, 119040, Note_off_c, 4, 39, 95
4, 119040, Note_on_c, 4, 64, 95
4, 119040, Note_on_c, 4, 59, 95
4, 119040, Note_on_c, 4, 55, 95
4, 119040, Note_on_c, 4, 51, 95
4, 119040, Note_on_c, 4, 46, 95
4, 119040, Note_on_c, 4, 39, 95
4, 119280, Note_off_c, 4, 64, 95
4, 119280, Note_off_c, 4, 59, 95
4, 119280, Note_off_c, 4, 55, 95
4, 119280, Note_off_c, 4, 51, 95
4, 119280, Note_off_c, 4, 46, 95
4, 119280, Note_off_c, 4, 39, 95
4, 119280, Note_on_c, 4, 64, 95
4, 119280, Note_on_c, 4, 59, 95
4, 119280, Note_on_c, 4, 55, 95
4, 119280, Note_on_c, 4, 51, 95
4, 119280, Note_on_c, 4, 46, 95
4, 119280, Note_on_c, 4, 39, 95
4, 119520, Note_off_c, 4, 64, 95
4, 119520, Note_off_c, 4, 59, 95
4, 119520, Note_off_c, 4, 55, 95
4, 119520, Note_off_c, 4, 51, 95
4, 119520, Note_off_c, 4, 46, 95
4, 119520, Note_off_c, 4, 39, 95
4, 119520, Note_on_c, 4, 64, 95
4, 119520, Note_on_c, 4, 59, 95
4, 119520, Note_on_c, 4, 55, 95
4, 119520, Note_on_c, 4, 51, 95
4, 119520, Note_on_c, 4, 46, 95
4, 119520, Note_on_c, 4, 39, 95
4, 120000, Note_off_c, 4, 64, 95
4, 120000, Note_off_c, 4, 59, 95
4, 120000, Note_off_c, 4, 55, 95
4, 120000, Note_off_c, 4, 51, 95
4, 120000, Note_off_c, 4, 46, 95
4, 120000, Note_off_c, 4, 39, 95
4, 120000, Note_on_c, 4, 64, 111
4, 120000, Note_on_c, 4, 59, 111
4, 120000, Note_on_c, 4, 55, 111
4, 120000, Note_on_c, 4, 51, 111
4, 120000, Note_on_c, 4, 46, 111
4, 120000, Note_on_c, 4, 39, 111
4, 120240, Note_off_c, 4, 64, 111
4, 120240, Note_off_c, 4, 59, 111
4, 120240, Note_off_c, 4, 55, 111
4, 120240, Note_off_c, 4, 51, 111
4, 120240, Note_off_c, 4, 46, 111
4, 120240, Note_off_c, 4, 39, 111
4, 120240, Note_on_c, 4, 64, 95
4, 120240, Note_on_c, 4, 59, 95
4, 120240, Note_on_c, 4, 55, 95
4, 120240, Note_on_c, 4, 51, 95
4, 120240, Note_on_c, 4, 46, 95
4, 120240, Note_on_c, 4, 39, 95
4, 120480, Note_off_c, 4, 64, 95
4, 120480, Note_off_c, 4, 59, 95
4, 120480, Note_off_c, 4, 55, 95
4, 120480, Note_off_c, 4, 51, 95
4, 120480, Note_off_c, 4, 46, 95
4, 120480, Note_off_c, 4, 39, 95
4, 120480, Note_on_c, 4, 64, 95
4, 120480, Note_on_c, 4, 59, 95
4, 120480, Note_on_c, 4, 55, 95
4, 120480, Note_on_c, 4, 51, 95
4, 120480, Note_on_c, 4, 46, 95
4, 120480, Note_on_c, 4, 39, 95
4, 120720, Note_off_c, 4, 64, 95
4, 120720, Note_off_c, 4, 59, 95
4, 120720, Note_off_c, 4, 55, 95
4, 120720, Note_off_c, 4, 51, 95
4, 120720, Note_off_c, 4, 46, 95
4, 120720, Note_off_c, 4, 39, 95
4, 120720, Note_on_c, 4, 64, 95
4, 120720, Note_on_c, 4, 59, 95
4, 120720, Note_on_c, 4, 55, 95
4, 120720, Note_on_c, 4, 51, 95
4, 120720, Note_on_c, 4, 46, 95
4, 120720, Note_on_c, 4, 39, 95
4, 120960, Note_off_c, 4, 64, 95
4, 120960, Note_off_c, 4, 59, 95
4, 120960, Note_off_c, 4, 55, 95
4, 120960, Note_off_c, 4, 51, 95
4, 120960, Note_off_c, 4, 46, 95
4, 120960, Note_off_c, 4, 39, 95
4, 120960, Note_on_c, 4, 64, 95
4, 120960, Note_on_c, 4, 59, 95
4, 120960, Note_on_c, 4, 55, 95
4, 120960, Note_on_c, 4, 53, 95
4, 120960, Note_on_c, 4, 48, 95
4, 120960, Note_on_c, 4, 41, 95
4, 121440, Note_off_c, 4, 64, 95
4, 121440, Note_off_c, 4, 59, 95
4, 121440, Note_off_c, 4, 55, 95
4, 121440, Note_off_c, 4, 53, 95
4, 121440, Note_off_c, 4, 48, 95
4, 121440, Note_off_c, 4, 41, 95
4, 121440, Note_on_c, 4, 64, 95
4, 121440, Note_on_c, 4, 59, 95
4, 121440, Note_on_c, 4, 55, 95
4, 121440, Note_on_c, 4, 53, 95
4, 121440, Note_on_c, 4, 48, 95
4, 121440, Note_on_c, 4, 41, 95
4, 121680, Note_off_c, 4, 64, 95
4, 121680, Note_off_c, 4, 59, 95
4, 121680, Note_off_c, 4, 55, 95
4, 121680, Note_off_c, 4, 53, 95
4, 121680, Note_off_c, 4, 48, 95
4, 121680, Note_off_c, 4, 41, 95
4, 121680, Note_on_c, 4, 64, 95
4, 121680, Note_on_c, 4, 59, 95
4, 121680, Note_on_c, 4, 55, 95
4, 121680, Note_on_c, 4, 53, 95
4, 121680, Note_on_c, 4, 48, 95
4, 121680, Note_on_c, 4, 41, 95
4, 121920, Note_off_c, 4, 64, 95
4, 121920, Note_off_c, 4, 59, 95
4, 121920, Note_off_c, 4, 55, 95
4, 121920, Note_off_c, 4, 53, 95
4, 121920, Note_off_c, 4, 48, 95
4, 121920, Note_off_c, 4, 41, 95
4, 121920, Note_on_c, 4, 64, 95
4, 121920, Note_on_c, 4, 59, 95
4, 121920, Note_on_c, 4, 55, 95
4, 121920, Note_on_c, 4, 53, 95
4, 121920, Note_on_c, 4, 48, 95
4, 121920, Note_on_c, 4, 41, 95
4, 122160, Note_off_c, 4, 64, 95
4, 122160, Note_off_c, 4, 59, 95
4, 122160, Note_off_c, 4, 55, 95
4, 122160, Note_off_c, 4, 53, 95
4, 122160, Note_off_c, 4, 48, 95
4, 122160, Note_off_c, 4, 41, 95
4, 122160, Note_on_c, 4, 64, 95
4, 122160, Note_on_c, 4, 59, 95
4, 122160, Note_on_c, 4, 55, 95
4, 122160, Note_on_c, 4, 53, 95
4, 122160, Note_on_c, 4, 48, 95
4, 122160, Note_on_c, 4, 41, 95
4, 122400, Note_off_c, 4, 64, 95
4, 122400, Note_off_c, 4, 59, 95
4, 122400, Note_off_c, 4, 55, 95
4, 122400, Note_off_c, 4, 53, 95
4, 122400, Note_off_c, 4, 48, 95
4, 122400, Note_off_c, 4, 41, 95
4, 122400, Note_on_c, 4, 64, 95
4, 122400, Note_on_c, 4, 59, 95
4, 122400, Note_on_c, 4, 55, 95
4, 122400, Note_on_c, 4, 53, 95
4, 122400, Note_on_c, 4, 48, 95
4, 122400, Note_on_c, 4, 41, 95
4, 122880, Note_off_c, 4, 64, 95
4, 122880, Note_off_c, 4, 59, 95
4, 122880, Note_off_c, 4, 55, 95
4, 122880, Note_off_c, 4, 53, 95
4, 122880, Note_off_c, 4, 48, 95
4, 122880, Note_off_c, 4, 41, 95
4, 122880, Note_on_c, 4, 64, 111
4, 122880, Note_on_c, 4, 59, 111
4, 122880, Note_on_c, 4, 55, 111
4, 122880, Note_on_c, 4, 53, 111
4, 122880, Note_on_c, 4, 48, 111
4, 122880, Note_on_c, 4, 41, 111
4, 123120, Note_off_c, 4, 64, 111
4, 123120, Note_off_c, 4, 59, 111
4, 123120, Note_off_c, 4, 55, 111
4, 123120, Note_off_c, 4, 53, 111
4, 123120, Note_off_c, 4, 48, 111
4, 123120, Note_off_c, 4, 41, 111
4, 123120, Note_on_c, 4, 64, 95
4, 123120, Note_on_c, 4, 59, 95
4, 123120, Note_on_c, 4, 55, 95
4, 123120, Note_on_c, 4, 53, 95
4, 123120, Note_on_c, 4, 48, 95
4, 123120, Note_on_c, 4, 41, 95
4, 123360, Note_off_c, 4, 64, 95
4, 123360, Note_off_c, 4, 59, 95
4, 123360, Note_off_c, 4, 55, 95
4, 123360, Note_off_c, 4, 53, 95
4, 123360, Note_off_c, 4, 48, 95
4, 123360, Note_off_c, 4, 41, 95
4, 123360, Note_on_c, 4, 64, 95
4, 123360, Note_on_c, 4, 59, 95
4, 123360, Note_on_c, 4, 55, 95
4, 123360, Note_on_c, 4, 53, 95
4, 123360, Note_on_c, 4, 48, 95
4, 123360, Note_on_c, 4, 41, 95
4, 123600, Note_off_c, 4, 64, 95
4, 123600, Note_off_c, 4, 59, 95
4, 123600, Note_off_c, 4, 55, 95
4, 123600, Note_off_c, 4, 53, 95
4, 123600, Note_off_c, 4, 48, 95
4, 123600, Note_off_c, 4, 41, 95
4, 123600, Note_on_c, 4, 64, 95
4, 123600, Note_on_c, 4, 59, 95
4, 123600, Note_on_c, 4, 55, 95
4, 123600, Note_on_c, 4, 53, 95
4, 123600, Note_on_c, 4, 48, 95
4, 123600, Note_on_c, 4, 41, 95
4, 123840, Note_off_c, 4, 64, 95
4, 123840, Note_off_c, 4, 59, 95
4, 123840, Note_off_c, 4, 55, 95
4, 123840, Note_off_c, 4, 53, 95
4, 123840, Note_off_c, 4, 48, 95
4, 123840, Note_off_c, 4, 41, 95
4, 123840, Note_on_c, 4, 64, 95
4, 123840, Note_on_c, 4, 59, 95
4, 123840, Note_on_c, 4, 55, 95
4, 123840, Note_on_c, 4, 52, 95
4, 123840, Note_on_c, 4, 47, 95
4, 123840, Note_on_c, 4, 40, 95
4, 124320, Note_off_c, 4, 64, 95
4, 124320, Note_off_c, 4, 59, 95
4, 124320, Note_off_c, 4, 55, 95
4, 124320, Note_off_c, 4, 52, 95
4, 124320, Note_off_c, 4, 47, 95
4, 124320, Note_off_c, 4, 40, 95
4, 124320, Note_on_c, 4, 64, 95
4, 124320, Note_on_c, 4, 59, 95
4, 124320, Note_on_c, 4, 55, 95
4, 124320, Note_on_c, 4, 52, 95
4, 124320, Note_on_c, 4, 47, 95
4, 124320, Note_on_c, 4, 40, 95
4, 124560, Note_off_c, 4, 64, 95
4, 124560, Note_off_c, 4, 59, 95
4, 124560, Note_off_c, 4, 55, 95
4, 124560, Note_off_c, 4, 52, 95
4, 124560, Note_off_c, 4, 47, 95
4, 124560, Note_off_c, 4, 40, 95
4, 124560, Note_on_c, 4, 64, 95
4, 124560, Note_on_c, 4, 59, 95
4, 124560, Note_on_c, 4, 55, 95
4, 124560, Note_on_c, 4, 52, 95
4, 124560, Note_on_c, 4, 47, 95
4, 124560, Note_on_c, 4, 40, 95
4, 124800, Note_off_c, 4, 64, 95
4, 124800, Note_off_c, 4, 59, 95
4, 124800, Note_off_c, 4, 55, 95
4, 124800, Note_off_c, 4, 52, 95
4, 124800, Note_off_c, 4, 47, 95
4, 124800, Note_off_c, 4, 40, 95
4, 124800, Note_on_c, 4, 64, 95
4, 124800, Note_on_c, 4, 59, 95
4, 124800, Note_on_c, 4, 55, 95
4, 124800, Note_on_c, 4, 52, 95
4, 124800, Note_on_c, 4, 47, 95
4, 124800, Note_on_c, 4, 40, 95
4, 125040, Note_off_c, 4, 64, 95
4, 125040, Note_off_c, 4, 59, 95
4, 125040, Note_off_c, 4, 55, 95
4, 125040, Note_off_c, 4, 52, 95
4, 125040, Note_off_c, 4, 47, 95
4, 125040, Note_off_c, 4, 40, 95
4, 125040, Note_on_c, 4, 64, 95
4, 125040, Note_on_c, 4, 59, 95
4, 125040, Note_on_c, 4, 55, 95
4, 125040, Note_on_c, 4, 52, 95
4, 125040, Note_on_c, 4, 47, 95
4, 125040, Note_on_c, 4, 40, 95
4, 125280, Note_off_c, 4, 64, 95
4, 125280, Note_off_c, 4, 59, 95
4, 125280, Note_off_c, 4, 55, 95
4, 125280, Note_off_c, 4, 52, 95
4, 125280, Note_off_c, 4, 47, 95
4, 125280, Note_off_c, 4, 40, 95
4, 125280, Note_on_c, 4, 64, 95
4, 125280, Note_on_c, 4, 59, 95
4, 125280, Note_on_c, 4, 55, 95
4, 125280, Note_on_c, 4, 52, 95
4, 125280, Note_on_c, 4, 47, 95
4, 125280, Note_on_c, 4, 40, 95
4, 125760, Note_off_c, 4, 64, 95
4, 125760, Note_off_c, 4, 59, 95
4, 125760, Note_off_c, 4, 55, 95
4, 125760, Note_off_c, 4, 52, 95
4, 125760, Note_off_c, 4, 47, 95
4, 125760, Note_off_c, 4, 40, 95
4, 125760, Note_on_c, 4, 64, 111
4, 125760, Note_on_c, 4, 59, 111
4, 125760, Note_on_c, 4, 55, 111
4, 125760, Note_on_c, 4, 52, 111
4, 125760, Note_on_c, 4, 47, 111
4, 125760, Note_on_c, 4, 40, 111
4, 126000, Note_off_c, 4, 64, 111
4, 126000, Note_off_c, 4, 59, 111
4, 126000, Note_off_c, 4, 55, 111
4, 126000, Note_off_c, 4, 52, 111
4, 126000, Note_off_c, 4, 47, 111
4, 126000, Note_off_c, 4, 40, 111
4, 126000, Note_on_c, 4, 64, 95
4, 126000, Note_on_c, 4, 59, 95
4, 126000, Note_on_c, 4, 55, 95
4, 126000, Note_on_c, 4, 52, 95
4, 126000, Note_on_c, 4, 47, 95
4, 126000, Note_on_c, 4, 40, 95
4, 126240, Note_off_c, 4, 64, 95
4, 126240, Note_off_c, 4, 59, 95
4, 126240, Note_off_c, 4, 55, 95
4, 126240, Note_off_c, 4, 52, 95
4, 126240, Note_off_c, 4, 47, 95
4, 126240, Note_off_c, 4, 40, 95
4, 126240, Note_on_c, 4, 64, 95
4, 126240, Note_on_c, 4, 59, 95
4, 126240, Note_on_c, 4, 55, 95
4, 126240, Note_on_c, 4, 52, 95
4, 126240, Note_on_c, 4, 47, 95
4, 126240, Note_on_c, 4, 40, 95
4, 126480, Note_off_c, 4, 64, 95
4, 126480, Note_off_c, 4, 59, 95
4, 126480, Note_off_c, 4, 55, 95
4, 126480, Note_off_c, 4, 52, 95
4, 126480, Note_off_c, 4, 47, 95
4, 126480, Note_off_c, 4, 40, 95
4, 126480, Note_on_c, 4, 64, 95
4, 126480, Note_on_c, 4, 59, 95
4, 126480, Note_on_c, 4, 55, 95
4, 126480, Note_on_c, 4, 52, 95
4, 126480, Note_on_c, 4, 47, 95
4, 126480, Note_on_c, 4, 40, 95
4, 126720, Note_off_c, 4, 64, 95
4, 126720, Note_off_c, 4, 59, 95
4, 126720, Note_off_c, 4, 55, 95
4, 126720, Note_off_c, 4, 52, 95
4, 126720, Note_off_c, 4, 47, 95
4, 126720, Note_off_c, 4, 40, 95
4, 126720, Note_on_c, 4, 64, 95
4, 126720, Note_on_c, 4, 59, 95
4, 126720, Note_on_c, 4, 55, 95
4, 126720, Note_on_c, 4, 51, 95
4, 126720, Note_on_c, 4, 46, 95
4, 126720, Note_on_c, 4, 39, 95
4, 127200, Note_off_c, 4, 64, 95
4, 127200, Note_off_c, 4, 59, 95
4, 127200, Note_off_c, 4, 55, 95
4, 127200, Note_off_c, 4, 51, 95
4, 127200, Note_off_c, 4, 46, 95
4, 127200, Note_off_c, 4, 39, 95
4, 127200, Note_on_c, 4, 64, 95
4, 127200, Note_on_c, 4, 59, 95
4, 127200, Note_on_c, 4, 55, 95
4, 127200, Note_on_c, 4, 51, 95
4, 127200, Note_on_c, 4, 46, 95
4, 127200, Note_on_c, 4, 39, 95
4, 127440, Note_off_c, 4, 64, 95
4, 127440, Note_off_c, 4, 59, 95
4, 127440, Note_off_c, 4, 55, 95
4, 127440, Note_off_c, 4, 51, 95
4, 127440, Note_off_c, 4, 46, 95
4, 127440, Note_off_c, 4, 39, 95
4, 127440, Note_on_c, 4, 64, 95
4, 127440, Note_on_c, 4, 59, 95
4, 127440, Note_on_c, 4, 55, 95
4, 127440, Note_on_c, 4, 51, 95
4, 127440, Note_on_c, 4, 46, 95
4, 127440, Note_on_c, 4, 39, 95
4, 127680, Note_off_c, 4, 64, 95
4, 127680, Note_off_c, 4, 59, 95
4, 127680, Note_off_c, 4, 55, 95
4, 127680, Note_off_c, 4, 51, 95
4, 127680, Note_off_c, 4, 46, 95
4, 127680, Note_off_c, 4, 39, 95
4, 127680, Note_on_c, 4, 64, 95
4, 127680, Note_on_c, 4, 59, 95
4, 127680, Note_on_c, 4, 55, 95
4, 127680, Note_on_c, 4, 51, 95
4, 127680, Note_on_c, 4, 46, 95
4, 127680, Note_on_c, 4, 39, 95
4, 127920, Note_off_c, 4, 64, 95
4, 127920, Note_off_c, 4, 59, 95
4, 127920, Note_off_c, 4, 55, 95
4, 127920, Note_off_c, 4, 51, 95
4, 127920, Note_off_c, 4, 46, 95
4, 127920, Note_off_c, 4, 39, 95
4, 127920, Note_on_c, 4, 64, 95
4, 127920, Note_on_c, 4, 59, 95
4, 127920, Note_on_c, 4, 55, 95
4, 127920, Note_on_c, 4, 51, 95
4, 127920, Note_on_c, 4, 46, 95
4, 127920, Note_on_c, 4, 39, 95
4, 128160, Note_off_c, 4, 64, 95
4, 128160, Note_off_c, 4, 59, 95
4, 128160, Note_off_c, 4, 55, 95
4, 128160, Note_off_c, 4, 51, 95
4, 128160, Note_off_c, 4, 46, 95
4, 128160, Note_off_c, 4, 39, 95
4, 128160, Note_on_c, 4, 64, 95
4, 128160, Note_on_c, 4, 59, 95
4, 128160, Note_on_c, 4, 55, 95
4, 128160, Note_on_c, 4, 51, 95
4, 128160, Note_on_c, 4, 46, 95
4, 128160, Note_on_c, 4, 39, 95
4, 128640, Note_off_c, 4, 64, 95
4, 128640, Note_off_c, 4, 59, 95
4, 128640, Note_off_c, 4, 55, 95
4, 128640, Note_off_c, 4, 51, 95
4, 128640, Note_off_c, 4, 46, 95
4, 128640, Note_off_c, 4, 39, 95
4, 128640, Note_on_c, 4, 64, 111
4, 128640, Note_on_c, 4, 59, 111
4, 128640, Note_on_c, 4, 55, 111
4, 128640, Note_on_c, 4, 51, 111
4, 128640, Note_on_c, 4, 46, 111
4, 128640, Note_on_c, 4, 39, 111
4, 128880, Note_off_c, 4, 64, 111
4, 128880, Note_off_c, 4, 59, 111
4, 128880, Note_off_c, 4, 55, 111
4, 128880, Note_off_c, 4, 51, 111
4, 128880, Note_off_c, 4, 46, 111
4, 128880, Note_off_c, 4, 39, 111
4, 128880, Note_on_c, 4, 64, 95
4, 128880, Note_on_c, 4, 59, 95
4, 128880, Note_on_c, 4, 55, 95
4, 128880, Note_on_c, 4, 51, 95
4, 128880, Note_on_c, 4, 46, 95
4, 128880, Note_on_c, 4, 39, 95
4, 129120, Note_off_c, 4, 64, 95
4, 129120, Note_off_c, 4, 59, 95
4, 129120, Note_off_c, 4, 55, 95
4, 129120, Note_off_c, 4, 51, 95
4, 129120, Note_off_c, 4, 46, 95
4, 129120, Note_off_c, 4, 39, 95
4, 129120, Note_on_c, 4, 64, 95
4, 129120, Note_on_c, 4, 59, 95
4, 129120, Note_on_c, 4, 55, 95
4, 129120, Note_on_c, 4, 51, 95
4, 129120, Note_on_c, 4, 46, 95
4, 129120, Note_on_c, 4, 39, 95
4, 129360, Note_off_c, 4, 64, 95
4, 129360, Note_off_c, 4, 59, 95
4, 129360, Note_off_c, 4, 55, 95
4, 129360, Note_off_c, 4, 51, 95
4, 129360, Note_off_c, 4, 46, 95
4, 129360, Note_off_c, 4, 39, 95
4, 129360, Note_on_c, 4, 64, 95
4, 129360, Note_on_c, 4, 59, 95
4, 129360, Note_on_c, 4, 55, 95
4, 129360, Note_on_c, 4, 51, 95
4, 129360, Note_on_c, 4, 46, 95
4, 129360, Note_on_c, 4, 39, 95
4, 129600, Note_off_c, 4, 64, 95
4, 129600, Note_off_c, 4, 59, 95
4, 129600, Note_off_c, 4, 55, 95
4, 129600, Note_off_c, 4, 51, 95
4, 129600, Note_off_c, 4, 46, 95
4, 129600, Note_off_c, 4, 39, 95
4, 129600, Note_on_c, 4, 64, 95
4, 129600, Note_on_c, 4, 59, 95
4, 129600, Note_on_c, 4, 55, 95
4, 129600, Note_on_c, 4, 51, 95
4, 129600, Note_on_c, 4, 46, 95
4, 129600, Note_on_c, 4, 39, 95
4, 130080, Note_off_c, 4, 64, 95
4, 130080, Note_off_c, 4, 59, 95
4, 130080, Note_off_c, 4, 55, 95
4, 130080, Note_off_c, 4, 51, 95
4, 130080, Note_off_c, 4, 46, 95
4, 130080, Note_off_c, 4, 39, 95
4, 130080, Note_on_c, 4, 64, 95
4, 130080, Note_on_c, 4, 59, 95
4, 130080, Note_on_c, 4, 55, 95
4, 130080, Note_on_c, 4, 51, 95
4, 130080, Note_on_c, 4, 46, 95
4, 130080, Note_on_c, 4, 39, 95
4, 130320, Note_off_c, 4, 64, 95
4, 130320, Note_off_c, 4, 59, 95
4, 130320, Note_off_c, 4, 55, 95
4, 130320, Note_off_c, 4, 51, 95
4, 130320, Note_off_c, 4, 46, 95
4, 130320, Note_off_c, 4, 39, 95
4, 130320, Note_on_c, 4, 64, 95
4, 130320, Note_on_c, 4, 59, 95
4, 130320, Note_on_c, 4, 55, 95
4, 130320, Note_on_c, 4, 51, 95
4, 130320, Note_on_c, 4, 46, 95
4, 130320, Note_on_c, 4, 39, 95
4, 130560, Note_off_c, 4, 64, 95
4, 130560, Note_off_c, 4, 59, 95
4, 130560, Note_off_c, 4, 55, 95
4, 130560, Note_off_c, 4, 51, 95
4, 130560, Note_off_c, 4, 46, 95
4, 130560, Note_off_c, 4, 39, 95
4, 130560, Note_on_c, 4, 64, 95
4, 130560, Note_on_c, 4, 59, 95
4, 130560, Note_on_c, 4, 55, 95
4, 130560, Note_on_c, 4, 51, 95
4, 130560, Note_on_c, 4, 46, 95
4, 130560, Note_on_c, 4, 39, 95
4, 130800, Note_off_c, 4, 64, 95
4, 130800, Note_off_c, 4, 59, 95
4, 130800, Note_off_c, 4, 55, 95
4, 130800, Note_off_c, 4, 51, 95
4, 130800, Note_off_c, 4, 46, 95
4, 130800, Note_off_c, 4, 39, 95
4, 130800, Note_on_c, 4, 64, 95
4, 130800, Note_on_c, 4, 59, 95
4, 130800, Note_on_c, 4, 55, 95
4, 130800, Note_on_c, 4, 51, 95
4, 130800, Note_on_c, 4, 46, 95
4, 130800, Note_on_c, 4, 39, 95
4, 131040, Note_off_c, 4, 64, 95
4, 131040, Note_off_c, 4, 59, 95
4, 131040, Note_off_c, 4, 55, 95
4, 131040, Note_off_c, 4, 51, 95
4, 131040, Note_off_c, 4, 46, 95
4, 131040, Note_off_c, 4, 39, 95
4, 131040, Note_on_c, 4, 64, 95
4, 131040, Note_on_c, 4, 59, 95
4, 131040, Note_on_c, 4, 55, 95
4, 131040, Note_on_c, 4, 51, 95
4, 131040, Note_on_c, 4, 46, 95
4, 131040, Note_on_c, 4, 39, 95
4, 131520, Note_off_c, 4, 64, 95
4, 131520, Note_off_c, 4, 59, 95
4, 131520, Note_off_c, 4, 55, 95
4, 131520, Note_off_c, 4, 51, 95
4, 131520, Note_off_c, 4, 46, 95
4, 131520, Note_off_c, 4, 39, 95
4, 131520, Note_on_c, 4, 64, 111
4, 131520, Note_on_c, 4, 59, 111
4, 131520, Note_on_c, 4, 55, 111
4, 131520, Note_on_c, 4, 51, 111
4, 131520, Note_on_c, 4, 46, 111
4, 131520, Note_on_c, 4, 39, 111
4, 131760, Note_off_c, 4, 64, 111
4, 131760, Note_off_c, 4, 59, 111
4, 131760, Note_off_c, 4, 55, 111
4, 131760, Note_off_c, 4, 51, 111
4, 131760, Note_off_c, 4, 46, 111
4, 131760, Note_off_c, 4, 39, 111
4, 131760, Note_on_c, 4, 64, 95
4, 131760, Note_on_c, 4, 59, 95
4, 131760, Note_on_c, 4, 55, 95
4, 131760, Note_on_c, 4, 51, 95
4, 131760, Note_on_c, 4, 46, 95
4, 131760, Note_on_c, 4, 39, 95
4, 132000, Note_off_c, 4, 64, 95
4, 132000, Note_off_c, 4, 59, 95
4, 132000, Note_off_c, 4, 55, 95
4, 132000, Note_off_c, 4, 51, 95
4, 132000, Note_off_c, 4, 46, 95
4, 132000, Note_off_c, 4, 39, 95
4, 132000, Note_on_c, 4, 64, 95
4, 132000, Note_on_c, 4, 59, 95
4, 132000, Note_on_c, 4, 55, 95
4, 132000, Note_on_c, 4, 51, 95
4, 132000, Note_on_c, 4, 46, 95
4, 132000, Note_on_c, 4, 39, 95
4, 132240, Note_off_c, 4, 64, 95
4, 132240, Note_off_c, 4, 59, 95
4, 132240, Note_off_c, 4, 55, 95
4, 132240, Note_off_c, 4, 51, 95
4, 132240, Note_off_c, 4, 46, 95
4, 132240, Note_off_c, 4, 39, 95
4, 132240, Note_on_c, 4, 64, 95
4, 132240, Note_on_c, 4, 59, 95
4, 132240, Note_on_c, 4, 55, 95
4, 132240, Note_on_c, 4, 51, 95
4, 132240, Note_on_c, 4, 46, 95
4, 132240, Note_on_c, 4, 39, 95
4, 132480, Note_off_c, 4, 64, 95
4, 132480, Note_off_c, 4, 59, 95
4, 132480, Note_off_c, 4, 55, 95
4, 132480, Note_off_c, 4, 51, 95
4, 132480, Note_off_c, 4, 46, 95
4, 132480, Note_off_c, 4, 39, 95
4, 132480, Note_on_c, 4, 64, 95
4, 132480, Note_on_c, 4, 59, 95
4, 132480, Note_on_c, 4, 55, 95
4, 132480, Note_on_c, 4, 52, 95
4, 132480, Note_on_c, 4, 47, 95
4, 132480, Note_on_c, 4, 40, 95
4, 132960, Note_off_c, 4, 64, 95
4, 132960, Note_off_c, 4, 59, 95
4, 132960, Note_off_c, 4, 55, 95
4, 132960, Note_off_c, 4, 52, 95
4, 132960, Note_off_c, 4, 47, 95
4, 132960, Note_off_c, 4, 40, 95
4, 132960, Note_on_c, 4, 64, 95
4, 132960, Note_on_c, 4, 59, 95
4, 132960, Note_on_c, 4, 55, 95
4, 132960, Note_on_c, 4, 52, 95
4, 132960, Note_on_c, 4, 47, 95
4, 132960, Note_on_c, 4, 40, 95
4, 133200, Note_off_c, 4, 64, 95
4, 133200, Note_off_c, 4, 59, 95
4, 133200, Note_off_c, 4, 55, 95
4, 133200, Note_off_c, 4, 52, 95
4, 133200, Note_off_c, 4, 47, 95
4, 133200, Note_off_c, 4, 40, 95
4, 133200, Note_on_c, 4, 64, 95
4, 133200, Note_on_c, 4, 59, 95
4, 133200, Note_on_c, 4, 55, 95
4, 133200, Note_on_c, 4, 52, 95
4, 133200, Note_on_c, 4, 47, 95
4, 133200, Note_on_c, 4, 40, 95
4, 133440, Note_off_c, 4, 64, 95
4, 133440, Note_off_c, 4, 59, 95
4, 133440, Note_off_c, 4, 55, 95
4, 133440, Note_off_c, 4, 52, 95
4, 133440, Note_off_c, 4, 47, 95
4, 133440, Note_off_c, 4, 40, 95
4, 133440, Note_on_c, 4, 64, 95
4, 133440, Note_on_c, 4, 59, 95
4, 133440, Note_on_c, 4, 55, 95
4, 133440, Note_on_c, 4, 52, 95
4, 133440, Note_on_c, 4, 47, 95
4, 133440, Note_on_c, 4, 40, 95
4, 133680, Note_off_c, 4, 64, 95
4, 133680, Note_off_c, 4, 59, 95
4, 133680, Note_off_c, 4, 55, 95
4, 133680, Note_off_c, 4, 52, 95
4, 133680, Note_off_c, 4, 47, 95
4, 133680, Note_off_c, 4, 40, 95
4, 133680, Note_on_c, 4, 64, 95
4, 133680, Note_on_c, 4, 59, 95
4, 133680, Note_on_c, 4, 55, 95
4, 133680, Note_on_c, 4, 52, 95
4, 133680, Note_on_c, 4, 47, 95
4, 133680, Note_on_c, 4, 40, 95
4, 133920, Note_off_c, 4, 64, 95
4, 133920, Note_off_c, 4, 59, 95
4, 133920, Note_off_c, 4, 55, 95
4, 133920, Note_off_c, 4, 52, 95
4, 133920, Note_off_c, 4, 47, 95
4, 133920, Note_off_c, 4, 40, 95
4, 133920, Note_on_c, 4, 64, 95
4, 133920, Note_on_c, 4, 59, 95
4, 133920, Note_on_c, 4, 55, 95
4, 133920, Note_on_c, 4, 52, 95
4, 133920, Note_on_c, 4, 47, 95
4, 133920, Note_on_c, 4, 40, 95
4, 134400, Note_off_c, 4, 64, 95
4, 134400, Note_off_c, 4, 59, 95
4, 134400, Note_off_c, 4, 55, 95
4, 134400, Note_off_c, 4, 52, 95
4, 134400, Note_off_c, 4, 47, 95
4, 134400, Note_off_c, 4, 40, 95
4, 134400, Note_on_c, 4, 64, 111
4, 134400, Note_on_c, 4, 59, 111
4, 134400, Note_on_c, 4, 55, 111
4, 134400, Note_on_c, 4, 52, 111
4, 134400, Note_on_c, 4, 47, 111
4, 134400, Note_on_c, 4, 40, 111
4, 134640, Note_off_c, 4, 64, 111
4, 134640, Note_off_c, 4, 59, 111
4, 134640, Note_off_c, 4, 55, 111
4, 134640, Note_off_c, 4, 52, 111
4, 134640, Note_off_c, 4, 47, 111
4, 134640, Note_off_c, 4, 40, 111
4, 134640, Note_on_c, 4, 64, 95
4, 134640, Note_on_c, 4, 59, 95
4, 134640, Note_on_c, 4, 55, 95
4, 134640, Note_on_c, 4, 52, 95
4, 134640, Note_on_c, 4, 47, 95
4, 134640, Note_on_c, 4, 40, 95
4, 134880, Note_off_c, 4, 64, 95
4, 134880, Note_off_c, 4, 59, 95
4, 134880, Note_off_c, 4, 55, 95
4, 134880, Note_off_c, 4, 52, 95
4, 134880, Note_off_c, 4, 47, 95
4, 134880, Note_off_c, 4, 40, 95
4, 134880, Note_on_c, 4, 64, 95
4, 134880, Note_on_c, 4, 59, 95
4, 134880, Note_on_c, 4, 55, 95
4, 134880, Note_on_c, 4, 52, 95
4, 134880, Note_on_c, 4, 47, 95
4, 134880, Note_on_c, 4, 40, 95
4, 135120, Note_off_c, 4, 64, 95
4, 135120, Note_off_c, 4, 59, 95
4, 135120, Note_off_c, 4, 55, 95
4, 135120, Note_off_c, 4, 52, 95
4, 135120, Note_off_c, 4, 47, 95
4, 135120, Note_off_c, 4, 40, 95
4, 135120, Note_on_c, 4, 64, 95
4, 135120, Note_on_c, 4, 59, 95
4, 135120, Note_on_c, 4, 55, 95
4, 135120, Note_on_c, 4, 52, 95
4, 135120, Note_on_c, 4, 47, 95
4, 135120, Note_on_c, 4, 40, 95
4, 135360, Note_off_c, 4, 64, 95
4, 135360, Note_off_c, 4, 59, 95
4, 135360, Note_off_c, 4, 55, 95
4, 135360, Note_off_c, 4, 52, 95
4, 135360, Note_off_c, 4, 47, 95
4, 135360, Note_off_c, 4, 40, 95
4, 135360, Note_on_c, 4, 64, 95
4, 135360, Note_on_c, 4, 59, 95
4, 135360, Note_on_c, 4, 55, 95
4, 135360, Note_on_c, 4, 52, 95
4, 135360, Note_on_c, 4, 47, 95
4, 135360, Note_on_c, 4, 40, 95
4, 135840, Note_off_c, 4, 64, 95
4, 135840, Note_off_c, 4, 59, 95
4, 135840, Note_off_c, 4, 55, 95
4, 135840, Note_off_c, 4, 52, 95
4, 135840, Note_off_c, 4, 47, 95
4, 135840, Note_off_c, 4, 40, 95
4, 135840, Note_on_c, 4, 64, 95
4, 135840, Note_on_c, 4, 59, 95
4, 135840, Note_on_c, 4, 55, 95
4, 135840, Note_on_c, 4, 52, 95
4, 135840, Note_on_c, 4, 47, 95
4, 135840, Note_on_c, 4, 40, 95
4, 136080, Note_off_c, 4, 64, 95
4, 136080, Note_off_c, 4, 59, 95
4, 136080, Note_off_c, 4, 55, 95
4, 136080, Note_off_c, 4, 52, 95
4, 136080, Note_off_c, 4, 47, 95
4, 136080, Note_off_c, 4, 40, 95
4, 136080, Note_on_c, 4, 64, 95
4, 136080, Note_on_c, 4, 59, 95
4, 136080, Note_on_c, 4, 55, 95
4, 136080, Note_on_c, 4, 52, 95
4, 136080, Note_on_c, 4, 47, 95
4, 136080, Note_on_c, 4, 40, 95
4, 136320, Note_off_c, 4, 64, 95
4, 136320, Note_off_c, 4, 59, 95
4, 136320, Note_off_c, 4, 55, 95
4, 136320, Note_off_c, 4, 52, 95
4, 136320, Note_off_c, 4, 47, 95
4, 136320, Note_off_c, 4, 40, 95
4, 136320, Note_on_c, 4, 64, 95
4, 136320, Note_on_c, 4, 59, 95
4, 136320, Note_on_c, 4, 55, 95
4, 136320, Note_on_c, 4, 52, 95
4, 136320, Note_on_c, 4, 47, 95
4, 136320, Note_on_c, 4, 40, 95
4, 136560, Note_off_c, 4, 64, 95
4, 136560, Note_off_c, 4, 59, 95
4, 136560, Note_off_c, 4, 55, 95
4, 136560, Note_off_c, 4, 52, 95
4, 136560, Note_off_c, 4, 47, 95
4, 136560, Note_off_c, 4, 40, 95
4, 136560, Note_on_c, 4, 64, 95
4, 136560, Note_on_c, 4, 59, 95
4, 136560, Note_on_c, 4, 55, 95
4, 136560, Note_on_c, 4, 52, 95
4, 136560, Note_on_c, 4, 47, 95
4, 136560, Note_on_c, 4, 40, 95
4, 136800, Note_off_c, 4, 64, 95
4, 136800, Note_off_c, 4, 59, 95
4, 136800, Note_off_c, 4, 55, 95
4, 136800, Note_off_c, 4, 52, 95
4, 136800, Note_off_c, 4, 47, 95
4, 136800, Note_off_c, 4, 40, 95
4, 136800, Note_on_c, 4, 64, 95
4, 136800, Note_on_c, 4, 59, 95
4, 136800, Note_on_c, 4, 55, 95
4, 136800, Note_on_c, 4, 52, 95
4, 136800, Note_on_c, 4, 47, 95
4, 136800, Note_on_c, 4, 40, 95
4, 137280, Note_off_c, 4, 64, 95
4, 137280, Note_off_c, 4, 59, 95
4, 137280, Note_off_c, 4, 55, 95
4, 137280, Note_off_c, 4, 52, 95
4, 137280, Note_off_c, 4, 47, 95
4, 137280, Note_off_c, 4, 40, 95
4, 137280, Note_on_c, 4, 64, 111
4, 137280, Note_on_c, 4, 59, 111
4, 137280, Note_on_c, 4, 55, 111
4, 137280, Note_on_c, 4, 52, 111
4, 137280, Note_on_c, 4, 47, 111
4, 137280, Note_on_c, 4, 40, 111
4, 137520, Note_off_c, 4, 64, 111
4, 137520, Note_off_c, 4, 59, 111
4, 137520, Note_off_c, 4, 55, 111
4, 137520, Note_off_c, 4, 52, 111
4, 137520, Note_off_c, 4, 47, 111
4, 137520, Note_off_c, 4, 40, 111
4, 137520, Note_on_c, 4, 64, 95
4, 137520, Note_on_c, 4, 59, 95
4, 137520, Note_on_c, 4, 55, 95
4, 137520, Note_on_c, 4, 52, 95
4, 137520, Note_on_c, 4, 47, 95
4, 137520, Note_on_c, 4, 40, 95
4, 137760, Note_off_c, 4, 64, 95
4, 137760, Note_off_c, 4, 59, 95
4, 137760, Note_off_c, 4, 55, 95
4, 137760, Note_off_c, 4, 52, 95
4, 137760, Note_off_c, 4, 47, 95
4, 137760, Note_off_c, 4, 40, 95
4, 137760, Note_on_c, 4, 64, 95
4, 137760, Note_on_c, 4, 59, 95
4, 137760, Note_on_c, 4, 55, 95
4, 137760, Note_on_c, 4, 52, 95
4, 137760, Note_on_c, 4, 47, 95
4, 137760, Note_on_c, 4, 40, 95
4, 138000, Note_off_c, 4, 64, 95
4, 138000, Note_off_c, 4, 59, 95
4, 138000, Note_off_c, 4, 55, 95
4, 138000, Note_off_c, 4, 52, 95
4, 138000, Note_off_c, 4, 47, 95
4, 138000, Note_off_c, 4, 40, 95
4, 138000, Note_on_c, 4, 64, 95
4, 138000, Note_on_c, 4, 59, 95
4, 138000, Note_on_c, 4, 55, 95
4, 138000, Note_on_c, 4, 52, 95
4, 138000, Note_on_c, 4, 47, 95
4, 138000, Note_on_c, 4, 40, 95
4, 138240, Note_off_c, 4, 64, 95
4, 138240, Note_off_c, 4, 59, 95
4, 138240, Note_off_c, 4, 55, 95
4, 138240, Note_off_c, 4, 52, 95
4, 138240, Note_off_c, 4, 47, 95
4, 138240, Note_off_c, 4, 40, 95
4, 149760, Note_on_c, 4, 64, 95
4, 149760, Note_on_c, 4, 59, 95
4, 149760, Note_on_c, 4, 55, 95
4, 149760, Note_on_c, 4, 52, 95
4, 149760, Note_on_c, 4, 47, 95
4, 149760, Note_on_c, 4, 40, 95
4, 155520, Note_off_c, 4, 64, 95
4, 155520, Note_off_c, 4, 59, 95
4, 155520, Note_off_c, 4, 55, 95
4, 155520, Note_off_c, 4, 52, 95
4, 155520, Note_off_c, 4, 47, 95
4, 155520, Note_off_c, 4, 40, 95
4, 155520, Note_on_c, 4, 66, 95
4, 155520, Note_on_c, 4, 62, 95
4, 155520, Note_on_c, 4, 57, 95
4, 155520, Note_on_c, 4, 50, 95
4, 156000, Note_off_c, 4, 66, 95
4, 156000, Note_off_c, 4, 62, 95
4, 156000, Note_off_c, 4, 57, 95
4, 156000, Note_off_c, 4, 50, 95
4, 156000, Note_on_c, 4, 66, 95
4, 156000, Note_on_c, 4, 62, 95
4, 156000, Note_on_c, 4, 57, 95
4, 156000, Note_on_c, 4, 50, 95
4, 156240, Note_off_c, 4, 66, 95
4, 156240, Note_off_c, 4, 62, 95
4, 156240, Note_off_c, 4, 57, 95
4, 156240, Note_off_c, 4, 50, 95
4, 156240, Note_on_c, 4, 66, 95
4, 156240, Note_on_c, 4, 62, 95
4, 156240, Note_on_c, 4, 57, 95
4, 156240, Note_on_c, 4, 50, 95
4, 156720, Note_off_c, 4, 66, 95
4, 156720, Note_off_c, 4, 62, 95
4, 156720, Note_off_c, 4, 57, 95
4, 156720, Note_off_c, 4, 50, 95
4, 156720, Note_on_c, 4, 66, 95
4, 156720, Note_on_c, 4, 62, 95
4, 156720, Note_on_c, 4, 57, 95
4, 156720, Note_on_c, 4, 50, 95
4, 156960, Note_off_c, 4, 66, 95
4, 156960, Note_off_c, 4, 62, 95
4, 156960, Note_off_c, 4, 57, 95
4, 156960, Note_off_c, 4, 50, 95
4, 156960, Note_on_c, 4, 66, 95
4, 156960, Note_on_c, 4, 62, 95
4, 156960, Note_on_c, 4, 57, 95
4, 156960, Note_on_c, 4, 50, 95
4, 157440, Note_off_c, 4, 66, 95
4, 157440, Note_off_c, 4, 62, 95
4, 157440, Note_off_c, 4, 57, 95
4, 157440, Note_off_c, 4, 50, 95
4, 157440, Note_on_c, 4, 66, 95
4, 157440, Note_on_c, 4, 62, 95
4, 157440, Note_on_c, 4, 57, 95
4, 157440, Note_on_c, 4, 50, 95
4, 157680, Note_off_c, 4, 66, 95
4, 157680, Note_off_c, 4, 62, 95
4, 157680, Note_off_c, 4, 57, 95
4, 157680, Note_off_c, 4, 50, 95
4, 157680, Note_on_c, 4, 66, 95
4, 157680, Note_on_c, 4, 62, 95
4, 157680, Note_on_c, 4, 57, 95
4, 157680, Note_on_c, 4, 50, 95
4, 158160, Note_off_c, 4, 66, 95
4, 158160, Note_off_c, 4, 62, 95
4, 158160, Note_off_c, 4, 57, 95
4, 158160, Note_off_c, 4, 50, 95
4, 158160, Note_on_c, 4, 66, 95
4, 158160, Note_on_c, 4, 62, 95
4, 158160, Note_on_c, 4, 57, 95
4, 158160, Note_on_c, 4, 50, 95
4, 158400, Note_off_c, 4, 66, 95
4, 158400, Note_off_c, 4, 62, 95
4, 158400, Note_off_c, 4, 57, 95
4, 158400, Note_off_c, 4, 50, 95
4, 158400, Note_on_c, 4, 66, 95
4, 158400, Note_on_c, 4, 62, 95
4, 158400, Note_on_c, 4, 57, 95
4, 158400, Note_on_c, 4, 50, 95
4, 158880, Note_off_c, 4, 66, 95
4, 158880, Note_off_c, 4, 62, 95
4, 158880, Note_off_c, 4, 57, 95
4, 158880, Note_off_c, 4, 50, 95
4, 158880, Note_on_c, 4, 66, 95
4, 158880, Note_on_c, 4, 62, 95
4, 158880, Note_on_c, 4, 57, 95
4, 158880, Note_on_c, 4, 50, 95
4, 159120, Note_off_c, 4, 66, 95
4, 159120, Note_off_c, 4, 62, 95
4, 159120, Note_off_c, 4, 57, 95
4, 159120, Note_off_c, 4, 50, 95
4, 159120, Note_on_c, 4, 66, 95
4, 159120, Note_on_c, 4, 62, 95
4, 159120, Note_on_c, 4, 57, 95
4, 159120, Note_on_c, 4, 50, 95
4, 159360, Note_off_c, 4, 66, 95
4, 159360, Note_off_c, 4, 62, 95
4, 159360, Note_off_c, 4, 57, 95
4, 159360, Note_off_c, 4, 50, 95
4, 159360, Note_on_c, 4, 66, 95
4, 159360, Note_on_c, 4, 62, 95
4, 159360, Note_on_c, 4, 57, 95
4, 159360, Note_on_c, 4, 50, 95
4, 159600, Note_off_c, 4, 66, 95
4, 159600, Note_off_c, 4, 62, 95
4, 159600, Note_off_c, 4, 57, 95
4, 159600, Note_off_c, 4, 50, 95
4, 159600, Note_on_c, 4, 66, 95
4, 159600, Note_on_c, 4, 62, 95
4, 159600, Note_on_c, 4, 57, 95
4, 159600, Note_on_c, 4, 50, 95
4, 159840, Note_off_c, 4, 66, 95
4, 159840, Note_off_c, 4, 62, 95
4, 159840, Note_off_c, 4, 57, 95
4, 159840, Note_off_c, 4, 50, 95
4, 159840, Note_on_c, 4, 67, 95
4, 159840, Note_on_c, 4, 59, 95
4, 159840, Note_on_c, 4, 57, 95
4, 159840, Note_on_c, 4, 50, 95
4, 160080, Note_off_c, 4, 67, 95
4, 160080, Note_off_c, 4, 59, 95
4, 160080, Note_off_c, 4, 57, 95
4, 160080, Note_off_c, 4, 50, 95
4, 160080, Note_on_c, 4, 67, 95
4, 160080, Note_on_c, 4, 59, 95
4, 160080, Note_on_c, 4, 57, 95
4, 160080, Note_on_c, 4, 50, 95
4, 160560, Note_off_c, 4, 67, 95
4, 160560, Note_off_c, 4, 59, 95
4, 160560, Note_off_c, 4, 57, 95
4, 160560, Note_off_c, 4, 50, 95
4, 160560, Note_on_c, 4, 67, 95
4, 160560, Note_on_c, 4, 59, 95
4, 160560, Note_on_c, 4, 57, 95
4, 160560, Note_on_c, 4, 50, 95
4, 161040, Note_off_c, 4, 67, 95
4, 161040, Note_off_c, 4, 59, 95
4, 161040, Note_off_c, 4, 57, 95
4, 161040, Note_off_c, 4, 50, 95
4, 161040, Note_on_c, 4, 67, 95
4, 161040, Note_on_c, 4, 59, 95
4, 161040, Note_on_c, 4, 57, 95
4, 161040, Note_on_c, 4, 50, 95
4, 161280, Note_off_c, 4, 67, 95
4, 161280, Note_off_c, 4, 59, 95
4, 161280, Note_off_c, 4, 57, 95
4, 161280, Note_off_c, 4, 50, 95
4, 161280, Note_on_c, 4, 66, 95
4, 161280, Note_on_c, 4, 62, 95
4, 161280, Note_on_c, 4, 57, 95
4, 161280, Note_on_c, 4, 50, 95
4, 161760, Note_off_c, 4, 66, 95
4, 161760, Note_off_c, 4, 62, 95
4, 161760, Note_off_c, 4, 57, 95
4, 161760, Note_off_c, 4, 50, 95
4, 161760, Note_on_c, 4, 66, 95
4, 161760, Note_on_c, 4, 62, 95
4, 161760, Note_on_c, 4, 57, 95
4, 161760, Note_on_c, 4, 50, 95
4, 162000, Note_off_c, 4, 66, 95
4, 162000, Note_off_c, 4, 62, 95
4, 162000, Note_off_c, 4, 57, 95
4, 162000, Note_off_c, 4, 50, 95
4, 162000, Note_on_c, 4, 66, 95
4, 162000, Note_on_c, 4, 62, 95
4, 162000, Note_on_c, 4, 57, 95
4, 162000, Note_on_c, 4, 50, 95
4, 162480, Note_off_c, 4, 66, 95
4, 162480, Note_off_c, 4, 62, 95
4, 162480, Note_off_c, 4, 57, 95
4, 162480, Note_off_c, 4, 50, 95
4, 162480, Note_on_c, 4, 66, 95
4, 162480, Note_on_c, 4, 62, 95
4, 162480, Note_on_c, 4, 57, 95
4, 162480, Note_on_c, 4, 50, 95
4, 162720, Note_off_c, 4, 66, 95
4, 162720, Note_off_c, 4, 62, 95
4, 162720, Note_off_c, 4, 57, 95
4, 162720, Note_off_c, 4, 50, 95
4, 162720, Note_on_c, 4, 66, 95
4, 162720, Note_on_c, 4, 62, 95
4, 162720, Note_on_c, 4, 57, 95
4, 162720, Note_on_c, 4, 50, 95
4, 163200, Note_off_c, 4, 66, 95
4, 163200, Note_off_c, 4, 62, 95
4, 163200, Note_off_c, 4, 57, 95
4, 163200, Note_off_c, 4, 50, 95
4, 163200, Note_on_c, 4, 66, 95
4, 163200, Note_on_c, 4, 62, 95
4, 163200, Note_on_c, 4, 57, 95
4, 163200, Note_on_c, 4, 50, 95
4, 163440, Note_off_c, 4, 66, 95
4, 163440, Note_off_c, 4, 62, 95
4, 163440, Note_off_c, 4, 57, 95
4, 163440, Note_off_c, 4, 50, 95
4, 163440, Note_on_c, 4, 66, 95
4, 163440, Note_on_c, 4, 62, 95
4, 163440, Note_on_c, 4, 57, 95
4, 163440, Note_on_c, 4, 50, 95
4, 163920, Note_off_c, 4, 66, 95
4, 163920, Note_off_c, 4, 62, 95
4, 163920, Note_off_c, 4, 57, 95
4, 163920, Note_off_c, 4, 50, 95
4, 163920, Note_on_c, 4, 66, 95
4, 163920, Note_on_c, 4, 62, 95
4, 163920, Note_on_c, 4, 57, 95
4, 163920, Note_on_c, 4, 50, 95
4, 164160, Note_off_c, 4, 66, 95
4, 164160, Note_off_c, 4, 62, 95
4, 164160, Note_off_c, 4, 57, 95
4, 164160, Note_off_c, 4, 50, 95
4, 164160, Note_on_c, 4, 66, 95
4, 164160, Note_on_c, 4, 62, 95
4, 164160, Note_on_c, 4, 57, 95
4, 164160, Note_on_c, 4, 50, 95
4, 164640, Note_off_c, 4, 66, 95
4, 164640, Note_off_c, 4, 62, 95
4, 164640, Note_off_c, 4, 57, 95
4, 164640, Note_off_c, 4, 50, 95
4, 164640, Note_on_c, 4, 66, 95
4, 164640, Note_on_c, 4, 62, 95
4, 164640, Note_on_c, 4, 57, 95
4, 164640, Note_on_c, 4, 50, 95
4, 164880, Note_off_c, 4, 66, 95
4, 164880, Note_off_c, 4, 62, 95
4, 164880, Note_off_c, 4, 57, 95
4, 164880, Note_off_c, 4, 50, 95
4, 164880, Note_on_c, 4, 66, 95
4, 164880, Note_on_c, 4, 62, 95
4, 164880, Note_on_c, 4, 57, 95
4, 164880, Note_on_c, 4, 50, 95
4, 165120, Note_off_c, 4, 66, 95
4, 165120, Note_off_c, 4, 62, 95
4, 165120, Note_off_c, 4, 57, 95
4, 165120, Note_off_c, 4, 50, 95
4, 165120, Note_on_c, 4, 66, 95
4, 165120, Note_on_c, 4, 62, 95
4, 165120, Note_on_c, 4, 57, 95
4, 165120, Note_on_c, 4, 50, 95
4, 165360, Note_off_c, 4, 66, 95
4, 165360, Note_off_c, 4, 62, 95
4, 165360, Note_off_c, 4, 57, 95
4, 165360, Note_off_c, 4, 50, 95
4, 165360, Note_on_c, 4, 66, 95
4, 165360, Note_on_c, 4, 62, 95
4, 165360, Note_on_c, 4, 57, 95
4, 165360, Note_on_c, 4, 50, 95
4, 165600, Note_off_c, 4, 66, 95
4, 165600, Note_off_c, 4, 62, 95
4, 165600, Note_off_c, 4, 57, 95
4, 165600, Note_off_c, 4, 50, 95
4, 165600, Note_on_c, 4, 67, 95
4, 165600, Note_on_c, 4, 59, 95
4, 165600, Note_on_c, 4, 57, 95
4, 165600, Note_on_c, 4, 50, 95
4, 165840, Note_off_c, 4, 67, 95
4, 165840, Note_off_c, 4, 59, 95
4, 165840, Note_off_c, 4, 57, 95
4, 165840, Note_off_c, 4, 50, 95
4, 165840, Note_on_c, 4, 67, 95
4, 165840, Note_on_c, 4, 59, 95
4, 165840, Note_on_c, 4, 57, 95
4, 165840, Note_on_c, 4, 50, 95
4, 166320, Note_off_c, 4, 67, 95
4, 166320, Note_off_c, 4, 59, 95
4, 166320, Note_off_c, 4, 57, 95
4, 166320, Note_off_c, 4, 50, 95
4, 166320, Note_on_c, 4, 67, 95
4, 166320, Note_on_c, 4, 59, 95
4, 166320, Note_on_c, 4, 57, 95
4, 166320, Note_on_c, 4, 50, 95
4, 166800, Note_off_c, 4, 67, 95
4, 166800, Note_off_c, 4, 59, 95
4, 166800, Note_off_c, 4, 57, 95
4, 166800, Note_off_c, 4, 50, 95
4, 166800, Note_on_c, 4, 67, 95
4, 166800, Note_on_c, 4, 59, 95
4, 166800, Note_on_c, 4, 57, 95
4, 166800, Note_on_c, 4, 50, 95
4, 167040, Note_off_c, 4, 67, 95
4, 167040, Note_off_c, 4, 59, 95
4, 167040, Note_off_c, 4, 57, 95
4, 167040, Note_off_c, 4, 50, 95
4, 167040, Note_on_c, 4, 66, 95
4, 167040, Note_on_c, 4, 62, 95
4, 167040, Note_on_c, 4, 57, 95
4, 167040, Note_on_c, 4, 50, 95
4, 167520, Note_off_c, 4, 66, 95
4, 167520, Note_off_c, 4, 62, 95
4, 167520, Note_off_c, 4, 57, 95
4, 167520, Note_off_c, 4, 50, 95
4, 167520, Note_on_c, 4, 66, 95
4, 167520, Note_on_c, 4, 62, 95
4, 167520, Note_on_c, 4, 57, 95
4, 167520, Note_on_c, 4, 50, 95
4, 167760, Note_off_c, 4, 66, 95
4, 167760, Note_off_c, 4, 62, 95
4, 167760, Note_off_c, 4, 57, 95
4, 167760, Note_off_c, 4, 50, 95
4, 167760, Note_on_c, 4, 66, 95
4, 167760, Note_on_c, 4, 62, 95
4, 167760, Note_on_c, 4, 57, 95
4, 167760, Note_on_c, 4, 50, 95
4, 168240, Note_off_c, 4, 66, 95
4, 168240, Note_off_c, 4, 62, 95
4, 168240, Note_off_c, 4, 57, 95
4, 168240, Note_off_c, 4, 50, 95
4, 168240, Note_on_c, 4, 66, 95
4, 168240, Note_on_c, 4, 62, 95
4, 168240, Note_on_c, 4, 57, 95
4, 168240, Note_on_c, 4, 50, 95
4, 168480, Note_off_c, 4, 66, 95
4, 168480, Note_off_c, 4, 62, 95
4, 168480, Note_off_c, 4, 57, 95
4, 168480, Note_off_c, 4, 50, 95
4, 168480, Note_on_c, 4, 66, 95
4, 168480, Note_on_c, 4, 62, 95
4, 168480, Note_on_c, 4, 57, 95
4, 168480, Note_on_c, 4, 50, 95
4, 168960, Note_off_c, 4, 66, 95
4, 168960, Note_off_c, 4, 62, 95
4, 168960, Note_off_c, 4, 57, 95
4, 168960, Note_off_c, 4, 50, 95
4, 168960, Note_on_c, 4, 66, 95
4, 168960, Note_on_c, 4, 62, 95
4, 168960, Note_on_c, 4, 57, 95
4, 168960, Note_on_c, 4, 50, 95
4, 169200, Note_off_c, 4, 66, 95
4, 169200, Note_off_c, 4, 62, 95
4, 169200, Note_off_c, 4, 57, 95
4, 169200, Note_off_c, 4, 50, 95
4, 169200, Note_on_c, 4, 66, 95
4, 169200, Note_on_c, 4, 62, 95
4, 169200, Note_on_c, 4, 57, 95
4, 169200, Note_on_c, 4, 50, 95
4, 169680, Note_off_c, 4, 66, 95
4, 169680, Note_off_c, 4, 62, 95
4, 169680, Note_off_c, 4, 57, 95
4, 169680, Note_off_c, 4, 50, 95
4, 169680, Note_on_c, 4, 66, 95
4, 169680, Note_on_c, 4, 62, 95
4, 169680, Note_on_c, 4, 57, 95
4, 169680, Note_on_c, 4, 50, 95
4, 169920, Note_off_c, 4, 66, 95
4, 169920, Note_off_c, 4, 62, 95
4, 169920, Note_off_c, 4, 57, 95
4, 169920, Note_off_c, 4, 50, 95
4, 169920, Note_on_c, 4, 66, 95
4, 169920, Note_on_c, 4, 62, 95
4, 169920, Note_on_c, 4, 57, 95
4, 169920, Note_on_c, 4, 50, 95
4, 170400, Note_off_c, 4, 66, 95
4, 170400, Note_off_c, 4, 62, 95
4, 170400, Note_off_c, 4, 57, 95
4, 170400, Note_off_c, 4, 50, 95
4, 170400, Note_on_c, 4, 66, 95
4, 170400, Note_on_c, 4, 62, 95
4, 170400, Note_on_c, 4, 57, 95
4, 170400, Note_on_c, 4, 50, 95
4, 170640, Note_off_c, 4, 66, 95
4, 170640, Note_off_c, 4, 62, 95
4, 170640, Note_off_c, 4, 57, 95
4, 170640, Note_off_c, 4, 50, 95
4, 170640, Note_on_c, 4, 66, 95
4, 170640, Note_on_c, 4, 62, 95
4, 170640, Note_on_c, 4, 57, 95
4, 170640, Note_on_c, 4, 50, 95
4, 170880, Note_off_c, 4, 66, 95
4, 170880, Note_off_c, 4, 62, 95
4, 170880, Note_off_c, 4, 57, 95
4, 170880, Note_off_c, 4, 50, 95
4, 170880, Note_on_c, 4, 66, 95
4, 170880, Note_on_c, 4, 62, 95
4, 170880, Note_on_c, 4, 57, 95
4, 170880, Note_on_c, 4, 50, 95
4, 171120, Note_off_c, 4, 66, 95
4, 171120, Note_off_c, 4, 62, 95
4, 171120, Note_off_c, 4, 57, 95
4, 171120, Note_off_c, 4, 50, 95
4, 171120, Note_on_c, 4, 66, 95
4, 171120, Note_on_c, 4, 62, 95
4, 171120, Note_on_c, 4, 57, 95
4, 171120, Note_on_c, 4, 50, 95
4, 171360, Note_off_c, 4, 66, 95
4, 171360, Note_off_c, 4, 62, 95
4, 171360, Note_off_c, 4, 57, 95
4, 171360, Note_off_c, 4, 50, 95
4, 171360, Note_on_c, 4, 67, 95
4, 171360, Note_on_c, 4, 59, 95
4, 171360, Note_on_c, 4, 57, 95
4, 171360, Note_on_c, 4, 50, 95
4, 171600, Note_off_c, 4, 67, 95
4, 171600, Note_off_c, 4, 59, 95
4, 171600, Note_off_c, 4, 57, 95
4, 171600, Note_off_c, 4, 50, 95
4, 171600, Note_on_c, 4, 67, 95
4, 171600, Note_on_c, 4, 59, 95
4, 171600, Note_on_c, 4, 57, 95
4, 171600, Note_on_c, 4, 50, 95
4, 172080, Note_off_c, 4, 67, 95
4, 172080, Note_off_c, 4, 59, 95
4, 172080, Note_off_c, 4, 57, 95
4, 172080, Note_off_c, 4, 50, 95
4, 172080, Note_on_c, 4, 67, 95
4, 172080, Note_on_c, 4, 59, 95
4, 172080, Note_on_c, 4, 57, 95
4, 172080, Note_on_c, 4, 50, 95
4, 172560, Note_off_c, 4, 67, 95
4, 172560, Note_off_c, 4, 59, 95
4, 172560, Note_off_c, 4, 57, 95
4, 172560, Note_off_c, 4, 50, 95
4, 172560, Note_on_c, 4, 67, 95
4, 172560, Note_on_c, 4, 59, 95
4, 172560, Note_on_c, 4, 57, 95
4, 172560, Note_on_c, 4, 50, 95
4, 172800, Note_off_c, 4, 67, 95
4, 172800, Note_off_c, 4, 59, 95
4, 172800, Note_off_c, 4, 57, 95
4, 172800, Note_off_c, 4, 50, 95
4, 172800, Note_on_c, 4, 66, 95
4, 172800, Note_on_c, 4, 62, 95
4, 172800, Note_on_c, 4, 57, 95
4, 172800, Note_on_c, 4, 50, 95
4, 173280, Note_off_c, 4, 66, 95
4, 173280, Note_off_c, 4, 62, 95
4, 173280, Note_off_c, 4, 57, 95
4, 173280, Note_off_c, 4, 50, 95
4, 173280, Note_on_c, 4, 66, 95
4, 173280, Note_on_c, 4, 62, 95
4, 173280, Note_on_c, 4, 57, 95
4, 173280, Note_on_c, 4, 50, 95
4, 173520, Note_off_c, 4, 66, 95
4, 173520, Note_off_c, 4, 62, 95
4, 173520, Note_off_c, 4, 57, 95
4, 173520, Note_off_c, 4, 50, 95
4, 173520, Note_on_c, 4, 66, 95
4, 173520, Note_on_c, 4, 62, 95
4, 173520, Note_on_c, 4, 57, 95
4, 173520, Note_on_c, 4, 50, 95
4, 174000, Note_off_c, 4, 66, 95
4, 174000, Note_off_c, 4, 62, 95
4, 174000, Note_off_c, 4, 57, 95
4, 174000, Note_off_c, 4, 50, 95
4, 174000, Note_on_c, 4, 66, 95
4, 174000, Note_on_c, 4, 62, 95
4, 174000, Note_on_c, 4, 57, 95
4, 174000, Note_on_c, 4, 50, 95
4, 174240, Note_off_c, 4, 66, 95
4, 174240, Note_off_c, 4, 62, 95
4, 174240, Note_off_c, 4, 57, 95
4, 174240, Note_off_c, 4, 50, 95
4, 174240, Note_on_c, 4, 66, 95
4, 174240, Note_on_c, 4, 62, 95
4, 174240, Note_on_c, 4, 57, 95
4, 174240, Note_on_c, 4, 50, 95
4, 174720, Note_off_c, 4, 66, 95
4, 174720, Note_off_c, 4, 62, 95
4, 174720, Note_off_c, 4, 57, 95
4, 174720, Note_off_c, 4, 50, 95
4, 174720, Note_on_c, 4, 66, 95
4, 174720, Note_on_c, 4, 62, 95
4, 174720, Note_on_c, 4, 57, 95
4, 174720, Note_on_c, 4, 50, 95
4, 174960, Note_off_c, 4, 66, 95
4, 174960, Note_off_c, 4, 62, 95
4, 174960, Note_off_c, 4, 57, 95
4, 174960, Note_off_c, 4, 50, 95
4, 174960, Note_on_c, 4, 66, 95
4, 174960, Note_on_c, 4, 62, 95
4, 174960, Note_on_c, 4, 57, 95
4, 174960, Note_on_c, 4, 50, 95
4, 175440, Note_off_c, 4, 66, 95
4, 175440, Note_off_c, 4, 62, 95
4, 175440, Note_off_c, 4, 57, 95
4, 175440, Note_off_c, 4, 50, 95
4, 175440, Note_on_c, 4, 66, 95
4, 175440, Note_on_c, 4, 62, 95
4, 175440, Note_on_c, 4, 57, 95
4, 175440, Note_on_c, 4, 50, 95
4, 175680, Note_off_c, 4, 66, 95
4, 175680, Note_off_c, 4, 62, 95
4, 175680, Note_off_c, 4, 57, 95
4, 175680, Note_off_c, 4, 50, 95
4, 175680, Note_on_c, 4, 67, 95
4, 175680, Note_on_c, 4, 59, 95
4, 175680, Note_on_c, 4, 57, 95
4, 175680, Note_on_c, 4, 50, 95
4, 176160, Note_off_c, 4, 67, 95
4, 176160, Note_off_c, 4, 59, 95
4, 176160, Note_off_c, 4, 57, 95
4, 176160, Note_off_c, 4, 50, 95
4, 176160, Note_on_c, 4, 67, 95
4, 176160, Note_on_c, 4, 59, 95
4, 176160, Note_on_c, 4, 57, 95
4, 176160, Note_on_c, 4, 50, 95
4, 176400, Note_off_c, 4, 67, 95
4, 176400, Note_off_c, 4, 59, 95
4, 176400, Note_off_c, 4, 57, 95
4, 176400, Note_off_c, 4, 50, 95
4, 176400, Note_on_c, 4, 67, 95
4, 176400, Note_on_c, 4, 59, 95
4, 176400, Note_on_c, 4, 57, 95
4, 176400, Note_on_c, 4, 50, 95
4, 176640, Note_off_c, 4, 67, 95
4, 176640, Note_off_c, 4, 59, 95
4, 176640, Note_off_c, 4, 57, 95
4, 176640, Note_off_c, 4, 50, 95
4, 176640, Note_on_c, 4, 67, 95
4, 176640, Note_on_c, 4, 59, 95
4, 176640, Note_on_c, 4, 57, 95
4, 176640, Note_on_c, 4, 50, 95
4, 176880, Note_off_c, 4, 67, 95
4, 176880, Note_off_c, 4, 59, 95
4, 176880, Note_off_c, 4, 57, 95
4, 176880, Note_off_c, 4, 50, 95
4, 176880, Note_on_c, 4, 67, 95
4, 176880, Note_on_c, 4, 59, 95
4, 176880, Note_on_c, 4, 57, 95
4, 176880, Note_on_c, 4, 50, 95
4, 177120, Note_off_c, 4, 67, 95
4, 177120, Note_off_c, 4, 59, 95
4, 177120, Note_off_c, 4, 57, 95
4, 177120, Note_off_c, 4, 50, 95
4, 177120, Note_on_c, 4, 67, 95
4, 177120, Note_on_c, 4, 59, 95
4, 177120, Note_on_c, 4, 57, 95
4, 177120, Note_on_c, 4, 50, 95
4, 177360, Note_off_c, 4, 67, 95
4, 177360, Note_off_c, 4, 59, 95
4, 177360, Note_off_c, 4, 57, 95
4, 177360, Note_off_c, 4, 50, 95
4, 177360, Note_on_c, 4, 67, 95
4, 177360, Note_on_c, 4, 59, 95
4, 177360, Note_on_c, 4, 57, 95
4, 177360, Note_on_c, 4, 50, 95
4, 177600, Note_off_c, 4, 67, 95
4, 177600, Note_off_c, 4, 59, 95
4, 177600, Note_off_c, 4, 57, 95
4, 177600, Note_off_c, 4, 50, 95
4, 177600, Note_on_c, 4, 67, 95
4, 177600, Note_on_c, 4, 59, 95
4, 177600, Note_on_c, 4, 57, 95
4, 177600, Note_on_c, 4, 50, 95
4, 177840, Note_off_c, 4, 67, 95
4, 177840, Note_off_c, 4, 59, 95
4, 177840, Note_off_c, 4, 57, 95
4, 177840, Note_off_c, 4, 50, 95
4, 177840, Note_on_c, 4, 67, 95
4, 177840, Note_on_c, 4, 59, 95
4, 177840, Note_on_c, 4, 57, 95
4, 177840, Note_on_c, 4, 50, 95
4, 178080, Note_off_c, 4, 67, 95
4, 178080, Note_off_c, 4, 59, 95
4, 178080, Note_off_c, 4, 57, 95
4, 178080, Note_off_c, 4, 50, 95
4, 178080, Note_on_c, 4, 67, 95
4, 178080, Note_on_c, 4, 59, 95
4, 178080, Note_on_c, 4, 57, 95
4, 178080, Note_on_c, 4, 50, 95
4, 178320, Note_off_c, 4, 67, 95
4, 178320, Note_off_c, 4, 59, 95
4, 178320, Note_off_c, 4, 57, 95
4, 178320, Note_off_c, 4, 50, 95
4, 178320, Note_on_c, 4, 67, 95
4, 178320, Note_on_c, 4, 59, 95
4, 178320, Note_on_c, 4, 57, 95
4, 178320, Note_on_c, 4, 50, 95
4, 178560, Note_off_c, 4, 67, 95
4, 178560, Note_off_c, 4, 59, 95
4, 178560, Note_off_c, 4, 57, 95
4, 178560, Note_off_c, 4, 50, 95
4, 178560, Note_on_c, 4, 64, 95
4, 178560, Note_on_c, 4, 59, 95
4, 178560, Note_on_c, 4, 55, 95
4, 178560, Note_on_c, 4, 52, 95
4, 178560, Note_on_c, 4, 47, 95
4, 178560, Note_on_c, 4, 40, 95
4, 179040, Note_off_c, 4, 64, 95
4, 179040, Note_off_c, 4, 59, 95
4, 179040, Note_off_c, 4, 55, 95
4, 179040, Note_off_c, 4, 52, 95
4, 179040, Note_off_c, 4, 47, 95
4, 179040, Note_off_c, 4, 40, 95
4, 179040, Note_on_c, 4, 64, 95
4, 179040, Note_on_c, 4, 59, 95
4, 179040, Note_on_c, 4, 55, 95
4, 179040, Note_on_c, 4, 52, 95
4, 179040, Note_on_c, 4, 47, 95
4, 179040, Note_on_c, 4, 40, 95
4, 179280, Note_off_c, 4, 64, 95
4, 179280, Note_off_c, 4, 59, 95
4, 179280, Note_off_c, 4, 55, 95
4, 179280, Note_off_c, 4, 52, 95
4, 179280, Note_off_c, 4, 47, 95
4, 179280, Note_off_c, 4, 40, 95
4, 179280, Note_on_c, 4, 64, 95
4, 179280, Note_on_c, 4, 59, 95
4, 179280, Note_on_c, 4, 55, 95
4, 179280, Note_on_c, 4, 52, 95
4, 179280, Note_on_c, 4, 47, 95
4, 179280, Note_on_c, 4, 40, 95
4, 179520, Note_off_c, 4, 64, 95
4, 179520, Note_off_c, 4, 59, 95
4, 179520, Note_off_c, 4, 55, 95
4, 179520, Note_off_c, 4, 52, 95
4, 179520, Note_off_c, 4, 47, 95
4, 179520, Note_off_c, 4, 40, 95
4, 179520, Note_on_c, 4, 64, 95
4, 179520, Note_on_c, 4, 59, 95
4, 179520, Note_on_c, 4, 55, 95
4, 179520, Note_on_c, 4, 52, 95
4, 179520, Note_on_c, 4, 47, 95
4, 179520, Note_on_c, 4, 40, 95
4, 179760, Note_off_c, 4, 64, 95
4, 179760, Note_off_c, 4, 59, 95
4, 179760, Note_off_c, 4, 55, 95
4, 179760, Note_off_c, 4, 52, 95
4, 179760, Note_off_c, 4, 47, 95
4, 179760, Note_off_c, 4, 40, 95
4, 179760, Note_on_c, 4, 64, 95
4, 179760, Note_on_c, 4, 59, 95
4, 179760, Note_on_c, 4, 55, 95
4, 179760, Note_on_c, 4, 52, 95
4, 179760, Note_on_c, 4, 47, 95
4, 179760, Note_on_c, 4, 40, 95
4, 180000, Note_off_c, 4, 64, 95
4, 180000, Note_off_c, 4, 59, 95
4, 180000, Note_off_c, 4, 55, 95
4, 180000, Note_off_c, 4, 52, 95
4, 180000, Note_off_c, 4, 47, 95
4, 180000, Note_off_c, 4, 40, 95
4, 180000, Note_on_c, 4, 64, 95
4, 180000, Note_on_c, 4, 59, 95
4, 180000, Note_on_c, 4, 55, 95
4, 180000, Note_on_c, 4, 52, 95
4, 180000, Note_on_c, 4, 47, 95
4, 180000, Note_on_c, 4, 40, 95
4, 180480, Note_off_c, 4, 64, 95
4, 180480, Note_off_c, 4, 59, 95
4, 180480, Note_off_c, 4, 55, 95
4, 180480, Note_off_c, 4, 52, 95
4, 180480, Note_off_c, 4, 47, 95
4, 180480, Note_off_c, 4, 40, 95
4, 180480, Note_on_c, 4, 64, 111
4, 180480, Note_on_c, 4, 59, 111
4, 180480, Note_on_c, 4, 55, 111
4, 180480, Note_on_c, 4, 52, 111
4, 180480, Note_on_c, 4, 47, 111
4, 180480, Note_on_c, 4, 40, 111
4, 180720, Note_off_c, 4, 64, 111
4, 180720, Note_off_c, 4, 59, 111
4, 180720, Note_off_c, 4, 55, 111
4, 180720, Note_off_c, 4, 52, 111
4, 180720, Note_off_c, 4, 47, 111
4, 180720, Note_off_c, 4, 40, 111
4, 180720, Note_on_c, 4, 64, 95
4, 180720, Note_on_c, 4, 59, 95
4, 180720, Note_on_c, 4, 55, 95
4, 180720, Note_on_c, 4, 52, 95
4, 180720, Note_on_c, 4, 47, 95
4, 180720, Note_on_c, 4, 40, 95
4, 180960, Note_off_c, 4, 64, 95
4, 180960, Note_off_c, 4, 59, 95
4, 180960, Note_off_c, 4, 55, 95
4, 180960, Note_off_c, 4, 52, 95
4, 180960, Note_off_c, 4, 47, 95
4, 180960, Note_off_c, 4, 40, 95
4, 180960, Note_on_c, 4, 64, 95
4, 180960, Note_on_c, 4, 59, 95
4, 180960, Note_on_c, 4, 55, 95
4, 180960, Note_on_c, 4, 52, 95
4, 180960, Note_on_c, 4, 47, 95
4, 180960, Note_on_c, 4, 40, 95
4, 181200, Note_off_c, 4, 64, 95
4, 181200, Note_off_c, 4, 59, 95
4, 181200, Note_off_c, 4, 55, 95
4, 181200, Note_off_c, 4, 52, 95
4, 181200, Note_off_c, 4, 47, 95
4, 181200, Note_off_c, 4, 40, 95
4, 181200, Note_on_c, 4, 64, 95
4, 181200, Note_on_c, 4, 59, 95
4, 181200, Note_on_c, 4, 55, 95
4, 181200, Note_on_c, 4, 52, 95
4, 181200, Note_on_c, 4, 47, 95
4, 181200, Note_on_c, 4, 40, 95
4, 181440, Note_off_c, 4, 64, 95
4, 181440, Note_off_c, 4, 59, 95
4, 181440, Note_off_c, 4, 55, 95
4, 181440, Note_off_c, 4, 52, 95
4, 181440, Note_off_c, 4, 47, 95
4, 181440, Note_off_c, 4, 40, 95
4, 181440, Note_on_c, 4, 64, 95
4, 181440, Note_on_c, 4, 59, 95
4, 181440, Note_on_c, 4, 55, 95
4, 181440, Note_on_c, 4, 52, 95
4, 181440, Note_on_c, 4, 47, 95
4, 181440, Note_on_c, 4, 40, 95
4, 181920, Note_off_c, 4, 64, 95
4, 181920, Note_off_c, 4, 59, 95
4, 181920, Note_off_c, 4, 55, 95
4, 181920, Note_off_c, 4, 52, 95
4, 181920, Note_off_c, 4, 47, 95
4, 181920, Note_off_c, 4, 40, 95
4, 181920, Note_on_c, 4, 64, 95
4, 181920, Note_on_c, 4, 59, 95
4, 181920, Note_on_c, 4, 55, 95
4, 181920, Note_on_c, 4, 52, 95
4, 181920, Note_on_c, 4, 47, 95
4, 181920, Note_on_c, 4, 40, 95
4, 182160, Note_off_c, 4, 64, 95
4, 182160, Note_off_c, 4, 59, 95
4, 182160, Note_off_c, 4, 55, 95
4, 182160, Note_off_c, 4, 52, 95
4, 182160, Note_off_c, 4, 47, 95
4, 182160, Note_off_c, 4, 40, 95
4, 182160, Note_on_c, 4, 64, 95
4, 182160, Note_on_c, 4, 59, 95
4, 182160, Note_on_c, 4, 55, 95
4, 182160, Note_on_c, 4, 52, 95
4, 182160, Note_on_c, 4, 47, 95
4, 182160, Note_on_c, 4, 40, 95
4, 182400, Note_off_c, 4, 64, 95
4, 182400, Note_off_c, 4, 59, 95
4, 182400, Note_off_c, 4, 55, 95
4, 182400, Note_off_c, 4, 52, 95
4, 182400, Note_off_c, 4, 47, 95
4, 182400, Note_off_c, 4, 40, 95
4, 182400, Note_on_c, 4, 64, 95
4, 182400, Note_on_c, 4, 59, 95
4, 182400, Note_on_c, 4, 55, 95
4, 182400, Note_on_c, 4, 52, 95
4, 182400, Note_on_c, 4, 47, 95
4, 182400, Note_on_c, 4, 40, 95
4, 182640, Note_off_c, 4, 64, 95
4, 182640, Note_off_c, 4, 59, 95
4, 182640, Note_off_c, 4, 55, 95
4, 182640, Note_off_c, 4, 52, 95
4, 182640, Note_off_c, 4, 47, 95
4, 182640, Note_off_c, 4, 40, 95
4, 182640, Note_on_c, 4, 64, 95
4, 182640, Note_on_c, 4, 59, 95
4, 182640, Note_on_c, 4, 55, 95
4, 182640, Note_on_c, 4, 52, 95
4, 182640, Note_on_c, 4, 47, 95
4, 182640, Note_on_c, 4, 40, 95
4, 182880, Note_off_c, 4, 64, 95
4, 182880, Note_off_c, 4, 59, 95
4, 182880, Note_off_c, 4, 55, 95
4, 182880, Note_off_c, 4, 52, 95
4, 182880, Note_off_c, 4, 47, 95
4, 182880, Note_off_c, 4, 40, 95
4, 182880, Note_on_c, 4, 64, 95
4, 182880, Note_on_c, 4, 59, 95
4, 182880, Note_on_c, 4, 55, 95
4, 182880, Note_on_c, 4, 52, 95
4, 182880, Note_on_c, 4, 47, 95
4, 182880, Note_on_c, 4, 40, 95
4, 183360, Note_off_c, 4, 64, 95
4, 183360, Note_off_c, 4, 59, 95
4, 183360, Note_off_c, 4, 55, 95
4, 183360, Note_off_c, 4, 52, 95
4, 183360, Note_off_c, 4, 47, 95
4, 183360, Note_off_c, 4, 40, 95
4, 183360, Note_on_c, 4, 64, 111
4, 183360, Note_on_c, 4, 59, 111
4, 183360, Note_on_c, 4, 55, 111
4, 183360, Note_on_c, 4, 52, 111
4, 183360, Note_on_c, 4, 47, 111
4, 183360, Note_on_c, 4, 40, 111
4, 183600, Note_off_c, 4, 64, 111
4, 183600, Note_off_c, 4, 59, 111
4, 183600, Note_off_c, 4, 55, 111
4, 183600, Note_off_c, 4, 52, 111
4, 183600, Note_off_c, 4, 47, 111
4, 183600, Note_off_c, 4, 40, 111
4, 183600, Note_on_c, 4, 64, 95
4, 183600, Note_on_c, 4, 59, 95
4, 183600, Note_on_c, 4, 55, 95
4, 183600, Note_on_c, 4, 52, 95
4, 183600, Note_on_c, 4, 47, 95
4, 183600, Note_on_c, 4, 40, 95
4, 183840, Note_off_c, 4, 64, 95
4, 183840, Note_off_c, 4, 59, 95
4, 183840, Note_off_c, 4, 55, 95
4, 183840, Note_off_c, 4, 52, 95
4, 183840, Note_off_c, 4, 47, 95
4, 183840, Note_off_c, 4, 40, 95
4, 183840, Note_on_c, 4, 64, 95
4, 183840, Note_on_c, 4, 59, 95
4, 183840, Note_on_c, 4, 55, 95
4, 183840, Note_on_c, 4, 52, 95
4, 183840, Note_on_c, 4, 47, 95
4, 183840, Note_on_c, 4, 40, 95
4, 184080, Note_off_c, 4, 64, 95
4, 184080, Note_off_c, 4, 59, 95
4, 184080, Note_off_c, 4, 55, 95
4, 184080, Note_off_c, 4, 52, 95
4, 184080, Note_off_c, 4, 47, 95
4, 184080, Note_off_c, 4, 40, 95
4, 184080, Note_on_c, 4, 64, 95
4, 184080, Note_on_c, 4, 59, 95
4, 184080, Note_on_c, 4, 55, 95
4, 184080, Note_on_c, 4, 52, 95
4, 184080, Note_on_c, 4, 47, 95
4, 184080, Note_on_c, 4, 40, 95
4, 184320, Note_off_c, 4, 64, 95
4, 184320, Note_off_c, 4, 59, 95
4, 184320, Note_off_c, 4, 55, 95
4, 184320, Note_off_c, 4, 52, 95
4, 184320, Note_off_c, 4, 47, 95
4, 184320, Note_off_c, 4, 40, 95
4, 184320, Note_on_c, 4, 64, 95
4, 184320, Note_on_c, 4, 55, 95
4, 184320, Note_on_c, 4, 53, 95
4, 184320, Note_on_c, 4, 48, 95
4, 184320, Note_on_c, 4, 41, 95
4, 184800, Note_off_c, 4, 64, 95
4, 184800, Note_off_c, 4, 55, 95
4, 184800, Note_off_c, 4, 53, 95
4, 184800, Note_off_c, 4, 48, 95
4, 184800, Note_off_c, 4, 41, 95
4, 184800, Note_on_c, 4, 64, 95
4, 184800, Note_on_c, 4, 55, 95
4, 184800, Note_on_c, 4, 53, 95
4, 184800, Note_on_c, 4, 48, 95
4, 184800, Note_on_c, 4, 41, 95
4, 185040, Note_off_c, 4, 64, 95
4, 185040, Note_off_c, 4, 55, 95
4, 185040, Note_off_c, 4, 53, 95
4, 185040, Note_off_c, 4, 48, 95
4, 185040, Note_off_c, 4, 41, 95
4, 185040, Note_on_c, 4, 64, 95
4, 185040, Note_on_c, 4, 55, 95
4, 185040, Note_on_c, 4, 53, 95
4, 185040, Note_on_c, 4, 48, 95
4, 185040, Note_on_c, 4, 41, 95
4, 185280, Note_off_c, 4, 64, 95
4, 185280, Note_off_c, 4, 55, 95
4, 185280, Note_off_c, 4, 53, 95
4, 185280, Note_off_c, 4, 48, 95
4, 185280, Note_off_c, 4, 41, 95
4, 185280, Note_on_c, 4, 64, 95
4, 185280, Note_on_c, 4, 55, 95
4, 185280, Note_on_c, 4, 53, 95
4, 185280, Note_on_c, 4, 48, 95
4, 185280, Note_on_c, 4, 41, 95
4, 185520, Note_off_c, 4, 64, 95
4, 185520, Note_off_c, 4, 55, 95
4, 185520, Note_off_c, 4, 53, 95
4, 185520, Note_off_c, 4, 48, 95
4, 185520, Note_off_c, 4, 41, 95
4, 185520, Note_on_c, 4, 64, 95
4, 185520, Note_on_c, 4, 55, 95
4, 185520, Note_on_c, 4, 53, 95
4, 185520, Note_on_c, 4, 48, 95
4, 185520, Note_on_c, 4, 41, 95
4, 185760, Note_off_c, 4, 64, 95
4, 185760, Note_off_c, 4, 55, 95
4, 185760, Note_off_c, 4, 53, 95
4, 185760, Note_off_c, 4, 48, 95
4, 185760, Note_off_c, 4, 41, 95
4, 185760, Note_on_c, 4, 64, 95
4, 185760, Note_on_c, 4, 55, 95
4, 185760, Note_on_c, 4, 53, 95
4, 185760, Note_on_c, 4, 48, 95
4, 185760, Note_on_c, 4, 41, 95
4, 186240, Note_off_c, 4, 64, 95
4, 186240, Note_off_c, 4, 55, 95
4, 186240, Note_off_c, 4, 53, 95
4, 186240, Note_off_c, 4, 48, 95
4, 186240, Note_off_c, 4, 41, 95
4, 186240, Note_on_c, 4, 64, 111
4, 186240, Note_on_c, 4, 55, 111
4, 186240, Note_on_c, 4, 53, 111
4, 186240, Note_on_c, 4, 48, 111
4, 186240, Note_on_c, 4, 41, 111
4, 186480, Note_off_c, 4, 64, 111
4, 186480, Note_off_c, 4, 55, 111
4, 186480, Note_off_c, 4, 53, 111
4, 186480, Note_off_c, 4, 48, 111
4, 186480, Note_off_c, 4, 41, 111
4, 186480, Note_on_c, 4, 64, 95
4, 186480, Note_on_c, 4, 55, 95
4, 186480, Note_on_c, 4, 53, 95
4, 186480, Note_on_c, 4, 48, 95
4, 186480, Note_on_c, 4, 41, 95
4, 186720, Note_off_c, 4, 64, 95
4, 186720, Note_off_c, 4, 55, 95
4, 186720, Note_off_c, 4, 53, 95
4, 186720, Note_off_c, 4, 48, 95
4, 186720, Note_off_c, 4, 41, 95
4, 186720, Note_on_c, 4, 64, 95
4, 186720, Note_on_c, 4, 55, 95
4, 186720, Note_on_c, 4, 53, 95
4, 186720, Note_on_c, 4, 48, 95
4, 186720, Note_on_c, 4, 41, 95
4, 186960, Note_off_c, 4, 64, 95
4, 186960, Note_off_c, 4, 55, 95
4, 186960, Note_off_c, 4, 53, 95
4, 186960, Note_off_c, 4, 48, 95
4, 186960, Note_off_c, 4, 41, 95
4, 186960, Note_on_c, 4, 64, 95
4, 186960, Note_on_c, 4, 55, 95
4, 186960, Note_on_c, 4, 53, 95
4, 186960, Note_on_c, 4, 48, 95
4, 186960, Note_on_c, 4, 41, 95
4, 187200, Note_off_c, 4, 64, 95
4, 187200, Note_off_c, 4, 55, 95
4, 187200, Note_off_c, 4, 53, 95
4, 187200, Note_off_c, 4, 48, 95
4, 187200, Note_off_c, 4, 41, 95
4, 187200, Note_on_c, 4, 64, 95
4, 187200, Note_on_c, 4, 59, 95
4, 187200, Note_on_c, 4, 55, 95
4, 187200, Note_on_c, 4, 52, 95
4, 187200, Note_on_c, 4, 47, 95
4, 187200, Note_on_c, 4, 40, 95
4, 187680, Note_off_c, 4, 64, 95
4, 187680, Note_off_c, 4, 59, 95
4, 187680, Note_off_c, 4, 55, 95
4, 187680, Note_off_c, 4, 52, 95
4, 187680, Note_off_c, 4, 47, 95
4, 187680, Note_off_c, 4, 40, 95
4, 187680, Note_on_c, 4, 64, 95
4, 187680, Note_on_c, 4, 59, 95
4, 187680, Note_on_c, 4, 55, 95
4, 187680, Note_on_c, 4, 52, 95
4, 187680, Note_on_c, 4, 47, 95
4, 187680, Note_on_c, 4, 40, 95
4, 187920, Note_off_c, 4, 64, 95
4, 187920, Note_off_c, 4, 59, 95
4, 187920, Note_off_c, 4, 55, 95
4, 187920, Note_off_c, 4, 52, 95
4, 187920, Note_off_c, 4, 47, 95
4, 187920, Note_off_c, 4, 40, 95
4, 187920, Note_on_c, 4, 64, 95
4, 187920, Note_on_c, 4, 59, 95
4, 187920, Note_on_c, 4, 55, 95
4, 187920, Note_on_c, 4, 52, 95
4, 187920, Note_on_c, 4, 47, 95
4, 187920, Note_on_c, 4, 40, 95
4, 188160, Note_off_c, 4, 64, 95
4, 188160, Note_off_c, 4, 59, 95
4, 188160, Note_off_c, 4, 55, 95
4, 188160, Note_off_c, 4, 52, 95
4, 188160, Note_off_c, 4, 47, 95
4, 188160, Note_off_c, 4, 40, 95
4, 188160, Note_on_c, 4, 64, 95
4, 188160, Note_on_c, 4, 59, 95
4, 188160, Note_on_c, 4, 55, 95
4, 188160, Note_on_c, 4, 52, 95
4, 188160, Note_on_c, 4, 47, 95
4, 188160, Note_on_c, 4, 40, 95
4, 188400, Note_off_c, 4, 64, 95
4, 188400, Note_off_c, 4, 59, 95
4, 188400, Note_off_c, 4, 55, 95
4, 188400, Note_off_c, 4, 52, 95
4, 188400, Note_off_c, 4, 47, 95
4, 188400, Note_off_c, 4, 40, 95
4, 188400, Note_on_c, 4, 64, 95
4, 188400, Note_on_c, 4, 59, 95
4, 188400, Note_on_c, 4, 55, 95
4, 188400, Note_on_c, 4, 52, 95
4, 188400, Note_on_c, 4, 47, 95
4, 188400, Note_on_c, 4, 40, 95
4, 188640, Note_off_c, 4, 64, 95
4, 188640, Note_off_c, 4, 59, 95
4, 188640, Note_off_c, 4, 55, 95
4, 188640, Note_off_c, 4, 52, 95
4, 188640, Note_off_c, 4, 47, 95
4, 188640, Note_off_c, 4, 40, 95
4, 188640, Note_on_c, 4, 64, 95
4, 188640, Note_on_c, 4, 59, 95
4, 188640, Note_on_c, 4, 55, 95
4, 188640, Note_on_c, 4, 52, 95
4, 188640, Note_on_c, 4, 47, 95
4, 188640, Note_on_c, 4, 40, 95
4, 189120, Note_off_c, 4, 64, 95
4, 189120, Note_off_c, 4, 59, 95
4, 189120, Note_off_c, 4, 55, 95
4, 189120, Note_off_c, 4, 52, 95
4, 189120, Note_off_c, 4, 47, 95
4, 189120, Note_off_c, 4, 40, 95
4, 189120, Note_on_c, 4, 64, 111
4, 189120, Note_on_c, 4, 59, 111
4, 189120, Note_on_c, 4, 55, 111
4, 189120, Note_on_c, 4, 52, 111
4, 189120, Note_on_c, 4, 47, 111
4, 189120, Note_on_c, 4, 40, 111
4, 189360, Note_off_c, 4, 64, 111
4, 189360, Note_off_c, 4, 59, 111
4, 189360, Note_off_c, 4, 55, 111
4, 189360, Note_off_c, 4, 52, 111
4, 189360, Note_off_c, 4, 47, 111
4, 189360, Note_off_c, 4, 40, 111
4, 189360, Note_on_c, 4, 64, 95
4, 189360, Note_on_c, 4, 59, 95
4, 189360, Note_on_c, 4, 55, 95
4, 189360, Note_on_c, 4, 52, 95
4, 189360, Note_on_c, 4, 47, 95
4, 189360, Note_on_c, 4, 40, 95
4, 189600, Note_off_c, 4, 64, 95
4, 189600, Note_off_c, 4, 59, 95
4, 189600, Note_off_c, 4, 55, 95
4, 189600, Note_off_c, 4, 52, 95
4, 189600, Note_off_c, 4, 47, 95
4, 189600, Note_off_c, 4, 40, 95
4, 189600, Note_on_c, 4, 64, 95
4, 189600, Note_on_c, 4, 59, 95
4, 189600, Note_on_c, 4, 55, 95
4, 189600, Note_on_c, 4, 52, 95
4, 189600, Note_on_c, 4, 47, 95
4, 189600, Note_on_c, 4, 40, 95
4, 189840, Note_off_c, 4, 64, 95
4, 189840, Note_off_c, 4, 59, 95
4, 189840, Note_off_c, 4, 55, 95
4, 189840, Note_off_c, 4, 52, 95
4, 189840, Note_off_c, 4, 47, 95
4, 189840, Note_off_c, 4, 40, 95
4, 189840, Note_on_c, 4, 64, 95
4, 189840, Note_on_c, 4, 59, 95
4, 189840, Note_on_c, 4, 55, 95
4, 189840, Note_on_c, 4, 52, 95
4, 189840, Note_on_c, 4, 47, 95
4, 189840, Note_on_c, 4, 40, 95
4, 190080, Note_off_c, 4, 64, 95
4, 190080, Note_off_c, 4, 59, 95
4, 190080, Note_off_c, 4, 55, 95
4, 190080, Note_off_c, 4, 52, 95
4, 190080, Note_off_c, 4, 47, 95
4, 190080, Note_off_c, 4, 40, 95
4, 190080, Note_on_c, 4, 64, 95
4, 190080, Note_on_c, 4, 59, 95
4, 190080, Note_on_c, 4, 55, 95
4, 190080, Note_on_c, 4, 51, 95
4, 190080, Note_on_c, 4, 46, 95
4, 190080, Note_on_c, 4, 39, 95
4, 190560, Note_off_c, 4, 64, 95
4, 190560, Note_off_c, 4, 59, 95
4, 190560, Note_off_c, 4, 55, 95
4, 190560, Note_off_c, 4, 51, 95
4, 190560, Note_off_c, 4, 46, 95
4, 190560, Note_off_c, 4, 39, 95
4, 190560, Note_on_c, 4, 64, 95
4, 190560, Note_on_c, 4, 59, 95
4, 190560, Note_on_c, 4, 55, 95
4, 190560, Note_on_c, 4, 51, 95
4, 190560, Note_on_c, 4, 46, 95
4, 190560, Note_on_c, 4, 39, 95
4, 190800, Note_off_c, 4, 64, 95
4, 190800, Note_off_c, 4, 59, 95
4, 190800, Note_off_c, 4, 55, 95
4, 190800, Note_off_c, 4, 51, 95
4, 190800, Note_off_c, 4, 46, 95
4, 190800, Note_off_c, 4, 39, 95
4, 190800, Note_on_c, 4, 64, 95
4, 190800, Note_on_c, 4, 59, 95
4, 190800, Note_on_c, 4, 55, 95
4, 190800, Note_on_c, 4, 51, 95
4, 190800, Note_on_c, 4, 46, 95
4, 190800, Note_on_c, 4, 39, 95
4, 191040, Note_off_c, 4, 64, 95
4, 191040, Note_off_c, 4, 59, 95
4, 191040, Note_off_c, 4, 55, 95
4, 191040, Note_off_c, 4, 51, 95
4, 191040, Note_off_c, 4, 46, 95
4, 191040, Note_off_c, 4, 39, 95
4, 191040, Note_on_c, 4, 64, 95
4, 191040, Note_on_c, 4, 59, 95
4, 191040, Note_on_c, 4, 55, 95
4, 191040, Note_on_c, 4, 51, 95
4, 191040, Note_on_c, 4, 46, 95
4, 191040, Note_on_c, 4, 39, 95
4, 191280, Note_off_c, 4, 64, 95
4, 191280, Note_off_c, 4, 59, 95
4, 191280, Note_off_c, 4, 55, 95
4, 191280, Note_off_c, 4, 51, 95
4, 191280, Note_off_c, 4, 46, 95
4, 191280, Note_off_c, 4, 39, 95
4, 191280, Note_on_c, 4, 64, 95
4, 191280, Note_on_c, 4, 59, 95
4, 191280, Note_on_c, 4, 55, 95
4, 191280, Note_on_c, 4, 51, 95
4, 191280, Note_on_c, 4, 46, 95
4, 191280, Note_on_c, 4, 39, 95
4, 191520, Note_off_c, 4, 64, 95
4, 191520, Note_off_c, 4, 59, 95
4, 191520, Note_off_c, 4, 55, 95
4, 191520, Note_off_c, 4, 51, 95
4, 191520, Note_off_c, 4, 46, 95
4, 191520, Note_off_c, 4, 39, 95
4, 191520, Note_on_c, 4, 64, 95
4, 191520, Note_on_c, 4, 59, 95
4, 191520, Note_on_c, 4, 55, 95
4, 191520, Note_on_c, 4, 51, 95
4, 191520, Note_on_c, 4, 46, 95
4, 191520, Note_on_c, 4, 39, 95
4, 192000, Note_off_c, 4, 64, 95
4, 192000, Note_off_c, 4, 59, 95
4, 192000, Note_off_c, 4, 55, 95
4, 192000, Note_off_c, 4, 51, 95
4, 192000, Note_off_c, 4, 46, 95
4, 192000, Note_off_c, 4, 39, 95
4, 192000, Note_on_c, 4, 64, 111
4, 192000, Note_on_c, 4, 59, 111
4, 192000, Note_on_c, 4, 55, 111
4, 192000, Note_on_c, 4, 51, 111
4, 192000, Note_on_c, 4, 46, 111
4, 192000, Note_on_c, 4, 39, 111
4, 192240, Note_off_c, 4, 64, 111
4, 192240, Note_off_c, 4, 59, 111
4, 192240, Note_off_c, 4, 55, 111
4, 192240, Note_off_c, 4, 51, 111
4, 192240, Note_off_c, 4, 46, 111
4, 192240, Note_off_c, 4, 39, 111
4, 192240, Note_on_c, 4, 64, 95
4, 192240, Note_on_c, 4, 59, 95
4, 192240, Note_on_c, 4, 55, 95
4, 192240, Note_on_c, 4, 51, 95
4, 192240, Note_on_c, 4, 46, 95
4, 192240, Note_on_c, 4, 39, 95
4, 192480, Note_off_c, 4, 64, 95
4, 192480, Note_off_c, 4, 59, 95
4, 192480, Note_off_c, 4, 55, 95
4, 192480, Note_off_c, 4, 51, 95
4, 192480, Note_off_c, 4, 46, 95
4, 192480, Note_off_c, 4, 39, 95
4, 192480, Note_on_c, 4, 64, 95
4, 192480, Note_on_c, 4, 59, 95
4, 192480, Note_on_c, 4, 55, 95
4, 192480, Note_on_c, 4, 51, 95
4, 192480, Note_on_c, 4, 46, 95
4, 192480, Note_on_c, 4, 39, 95
4, 192720, Note_off_c, 4, 64, 95
4, 192720, Note_off_c, 4, 59, 95
4, 192720, Note_off_c, 4, 55, 95
4, 192720, Note_off_c, 4, 51, 95
4, 192720, Note_off_c, 4, 46, 95
4, 192720, Note_off_c, 4, 39, 95
4, 192720, Note_on_c, 4, 64, 95
4, 192720, Note_on_c, 4, 59, 95
4, 192720, Note_on_c, 4, 55, 95
4, 192720, Note_on_c, 4, 51, 95
4, 192720, Note_on_c, 4, 46, 95
4, 192720, Note_on_c, 4, 39, 95
4, 192960, Note_off_c, 4, 64, 95
4, 192960, Note_off_c, 4, 59, 95
4, 192960, Note_off_c, 4, 55, 95
4, 192960, Note_off_c, 4, 51, 95
4, 192960, Note_off_c, 4, 46, 95
4, 192960, Note_off_c, 4, 39, 95
4, 192960, Note_on_c, 4, 64, 95
4, 192960, Note_on_c, 4, 59, 95
4, 192960, Note_on_c, 4, 55, 95
4, 192960, Note_on_c, 4, 51, 95
4, 192960, Note_on_c, 4, 46, 95
4, 192960, Note_on_c, 4, 39, 95
4, 193440, Note_off_c, 4, 64, 95
4, 193440, Note_off_c, 4, 59, 95
4, 193440, Note_off_c, 4, 55, 95
4, 193440, Note_off_c, 4, 51, 95
4, 193440, Note_off_c, 4, 46, 95
4, 193440, Note_off_c, 4, 39, 95
4, 193440, Note_on_c, 4, 64, 95
4, 193440, Note_on_c, 4, 59, 95
4, 193440, Note_on_c, 4, 55, 95
4, 193440, Note_on_c, 4, 51, 95
4, 193440, Note_on_c, 4, 46, 95
4, 193440, Note_on_c, 4, 39, 95
4, 193680, Note_off_c, 4, 64, 95
4, 193680, Note_off_c, 4, 59, 95
4, 193680, Note_off_c, 4, 55, 95
4, 193680, Note_off_c, 4, 51, 95
4, 193680, Note_off_c, 4, 46, 95
4, 193680, Note_off_c, 4, 39, 95
4, 193680, Note_on_c, 4, 64, 95
4, 193680, Note_on_c, 4, 59, 95
4, 193680, Note_on_c, 4, 55, 95
4, 193680, Note_on_c, 4, 51, 95
4, 193680, Note_on_c, 4, 46, 95
4, 193680, Note_on_c, 4, 39, 95
4, 193920, Note_off_c, 4, 64, 95
4, 193920, Note_off_c, 4, 59, 95
4, 193920, Note_off_c, 4, 55, 95
4, 193920, Note_off_c, 4, 51, 95
4, 193920, Note_off_c, 4, 46, 95
4, 193920, Note_off_c, 4, 39, 95
4, 193920, Note_on_c, 4, 64, 95
4, 193920, Note_on_c, 4, 59, 95
4, 193920, Note_on_c, 4, 55, 95
4, 193920, Note_on_c, 4, 51, 95
4, 193920, Note_on_c, 4, 46, 95
4, 193920, Note_on_c, 4, 39, 95
4, 194160, Note_off_c, 4, 64, 95
4, 194160, Note_off_c, 4, 59, 95
4, 194160, Note_off_c, 4, 55, 95
4, 194160, Note_off_c, 4, 51, 95
4, 194160, Note_off_c, 4, 46, 95
4, 194160, Note_off_c, 4, 39, 95
4, 194160, Note_on_c, 4, 64, 95
4, 194160, Note_on_c, 4, 59, 95
4, 194160, Note_on_c, 4, 55, 95
4, 194160, Note_on_c, 4, 51, 95
4, 194160, Note_on_c, 4, 46, 95
4, 194160, Note_on_c, 4, 39, 95
4, 194400, Note_off_c, 4, 64, 95
4, 194400, Note_off_c, 4, 59, 95
4, 194400, Note_off_c, 4, 55, 95
4, 194400, Note_off_c, 4, 51, 95
4, 194400, Note_off_c, 4, 46, 95
4, 194400, Note_off_c, 4, 39, 95
4, 194400, Note_on_c, 4, 64, 95
4, 194400, Note_on_c, 4, 59, 95
4, 194400, Note_on_c, 4, 55, 95
4, 194400, Note_on_c, 4, 51, 95
4, 194400, Note_on_c, 4, 46, 95
4, 194400, Note_on_c, 4, 39, 95
4, 194880, Note_off_c, 4, 64, 95
4, 194880, Note_off_c, 4, 59, 95
4, 194880, Note_off_c, 4, 55, 95
4, 194880, Note_off_c, 4, 51, 95
4, 194880, Note_off_c, 4, 46, 95
4, 194880, Note_off_c, 4, 39, 95
4, 194880, Note_on_c, 4, 64, 111
4, 194880, Note_on_c, 4, 59, 111
4, 194880, Note_on_c, 4, 55, 111
4, 194880, Note_on_c, 4, 51, 111
4, 194880, Note_on_c, 4, 46, 111
4, 194880, Note_on_c, 4, 39, 111
4, 195120, Note_off_c, 4, 64, 111
4, 195120, Note_off_c, 4, 59, 111
4, 195120, Note_off_c, 4, 55, 111
4, 195120, Note_off_c, 4, 51, 111
4, 195120, Note_off_c, 4, 46, 111
4, 195120, Note_off_c, 4, 39, 111
4, 195120, Note_on_c, 4, 64, 95
4, 195120, Note_on_c, 4, 59, 95
4, 195120, Note_on_c, 4, 55, 95
4, 195120, Note_on_c, 4, 51, 95
4, 195120, Note_on_c, 4, 46, 95
4, 195120, Note_on_c, 4, 39, 95
4, 195360, Note_off_c, 4, 64, 95
4, 195360, Note_off_c, 4, 59, 95
4, 195360, Note_off_c, 4, 55, 95
4, 195360, Note_off_c, 4, 51, 95
4, 195360, Note_off_c, 4, 46, 95
4, 195360, Note_off_c, 4, 39, 95
4, 195360, Note_on_c, 4, 64, 95
4, 195360, Note_on_c, 4, 59, 95
4, 195360, Note_on_c, 4, 55, 95
4, 195360, Note_on_c, 4, 51, 95
4, 195360, Note_on_c, 4, 46, 95
4, 195360, Note_on_c, 4, 39, 95
4, 195600, Note_off_c, 4, 64, 95
4, 195600, Note_off_c, 4, 59, 95
4, 195600, Note_off_c, 4, 55, 95
4, 195600, Note_off_c, 4, 51, 95
4, 195600, Note_off_c, 4, 46, 95
4, 195600, Note_off_c, 4, 39, 95
4, 195600, Note_on_c, 4, 64, 95
4, 195600, Note_on_c, 4, 59, 95
4, 195600, Note_on_c, 4, 55, 95
4, 195600, Note_on_c, 4, 51, 95
4, 195600, Note_on_c, 4, 46, 95
4, 195600, Note_on_c, 4, 39, 95
4, 195840, Note_off_c, 4, 64, 95
4, 195840, Note_off_c, 4, 59, 95
4, 195840, Note_off_c, 4, 55, 95
4, 195840, Note_off_c, 4, 51, 95
4, 195840, Note_off_c, 4, 46, 95
4, 195840, Note_off_c, 4, 39, 95
4, 195840, Note_on_c, 4, 64, 95
4, 195840, Note_on_c, 4, 59, 95
4, 195840, Note_on_c, 4, 55, 95
4, 195840, Note_on_c, 4, 53, 95
4, 195840, Note_on_c, 4, 48, 95
4, 195840, Note_on_c, 4, 41, 95
4, 196320, Note_off_c, 4, 64, 95
4, 196320, Note_off_c, 4, 59, 95
4, 196320, Note_off_c, 4, 55, 95
4, 196320, Note_off_c, 4, 53, 95
4, 196320, Note_off_c, 4, 48, 95
4, 196320, Note_off_c, 4, 41, 95
4, 196320, Note_on_c, 4, 64, 95
4, 196320, Note_on_c, 4, 59, 95
4, 196320, Note_on_c, 4, 55, 95
4, 196320, Note_on_c, 4, 53, 95
4, 196320, Note_on_c, 4, 48, 95
4, 196320, Note_on_c, 4, 41, 95
4, 196560, Note_off_c, 4, 64, 95
4, 196560, Note_off_c, 4, 59, 95
4, 196560, Note_off_c, 4, 55, 95
4, 196560, Note_off_c, 4, 53, 95
4, 196560, Note_off_c, 4, 48, 95
4, 196560, Note_off_c, 4, 41, 95
4, 196560, Note_on_c, 4, 64, 95
4, 196560, Note_on_c, 4, 59, 95
4, 196560, Note_on_c, 4, 55, 95
4, 196560, Note_on_c, 4, 53, 95
4, 196560, Note_on_c, 4, 48, 95
4, 196560, Note_on_c, 4, 41, 95
4, 196800, Note_off_c, 4, 64, 95
4, 196800, Note_off_c, 4, 59, 95
4, 196800, Note_off_c, 4, 55, 95
4, 196800, Note_off_c, 4, 53, 95
4, 196800, Note_off_c, 4, 48, 95
4, 196800, Note_off_c, 4, 41, 95
4, 196800, Note_on_c, 4, 64, 95
4, 196800, Note_on_c, 4, 59, 95
4, 196800, Note_on_c, 4, 55, 95
4, 196800, Note_on_c, 4, 53, 95
4, 196800, Note_on_c, 4, 48, 95
4, 196800, Note_on_c, 4, 41, 95
4, 197040, Note_off_c, 4, 64, 95
4, 197040, Note_off_c, 4, 59, 95
4, 197040, Note_off_c, 4, 55, 95
4, 197040, Note_off_c, 4, 53, 95
4, 197040, Note_off_c, 4, 48, 95
4, 197040, Note_off_c, 4, 41, 95
4, 197040, Note_on_c, 4, 64, 95
4, 197040, Note_on_c, 4, 59, 95
4, 197040, Note_on_c, 4, 55, 95
4, 197040, Note_on_c, 4, 53, 95
4, 197040, Note_on_c, 4, 48, 95
4, 197040, Note_on_c, 4, 41, 95
4, 197280, Note_off_c, 4, 64, 95
4, 197280, Note_off_c, 4, 59, 95
4, 197280, Note_off_c, 4, 55, 95
4, 197280, Note_off_c, 4, 53, 95
4, 197280, Note_off_c, 4, 48, 95
4, 197280, Note_off_c, 4, 41, 95
4, 197280, Note_on_c, 4, 64, 95
4, 197280, Note_on_c, 4, 59, 95
4, 197280, Note_on_c, 4, 55, 95
4, 197280, Note_on_c, 4, 53, 95
4, 197280, Note_on_c, 4, 48, 95
4, 197280, Note_on_c, 4, 41, 95
4, 197760, Note_off_c, 4, 64, 95
4, 197760, Note_off_c, 4, 59, 95
4, 197760, Note_off_c, 4, 55, 95
4, 197760, Note_off_c, 4, 53, 95
4, 197760, Note_off_c, 4, 48, 95
4, 197760, Note_off_c, 4, 41, 95
4, 197760, Note_on_c, 4, 64, 111
4, 197760, Note_on_c, 4, 59, 95
4, 197760, Note_on_c, 4, 55, 111
4, 197760, Note_on_c, 4, 53, 111
4, 197760, Note_on_c, 4, 48, 111
4, 197760, Note_on_c, 4, 41, 111
4, 198000, Note_off_c, 4, 64, 111
4, 198000, Note_off_c, 4, 59, 95
4, 198000, Note_off_c, 4, 55, 111
4, 198000, Note_off_c, 4, 53, 111
4, 198000, Note_off_c, 4, 48, 111
4, 198000, Note_off_c, 4, 41, 111
4, 198000, Note_on_c, 4, 64, 95
4, 198000, Note_on_c, 4, 59, 95
4, 198000, Note_on_c, 4, 55, 95
4, 198000, Note_on_c, 4, 53, 95
4, 198000, Note_on_c, 4, 48, 95
4, 198000, Note_on_c, 4, 41, 95
4, 198240, Note_off_c, 4, 64, 95
4, 198240, Note_off_c, 4, 59, 95
4, 198240, Note_off_c, 4, 55, 95
4, 198240, Note_off_c, 4, 53, 95
4, 198240, Note_off_c, 4, 48, 95
4, 198240, Note_off_c, 4, 41, 95
4, 198240, Note_on_c, 4, 64, 95
4, 198240, Note_on_c, 4, 59, 95
4, 198240, Note_on_c, 4, 55, 95
4, 198240, Note_on_c, 4, 53, 95
4, 198240, Note_on_c, 4, 48, 95
4, 198240, Note_on_c, 4, 41, 95
4, 198480, Note_off_c, 4, 64, 95
4, 198480, Note_off_c, 4, 59, 95
4, 198480, Note_off_c, 4, 55, 95
4, 198480, Note_off_c, 4, 53, 95
4, 198480, Note_off_c, 4, 48, 95
4, 198480, Note_off_c, 4, 41, 95
4, 198480, Note_on_c, 4, 64, 95
4, 198480, Note_on_c, 4, 59, 95
4, 198480, Note_on_c, 4, 55, 95
4, 198480, Note_on_c, 4, 53, 95
4, 198480, Note_on_c, 4, 48, 95
4, 198480, Note_on_c, 4, 41, 95
4, 198720, Note_off_c, 4, 64, 95
4, 198720, Note_off_c, 4, 59, 95
4, 198720, Note_off_c, 4, 55, 95
4, 198720, Note_off_c, 4, 53, 95
4, 198720, Note_off_c, 4, 48, 95
4, 198720, Note_off_c, 4, 41, 95
4, 198720, Note_on_c, 4, 64, 95
4, 198720, Note_on_c, 4, 59, 95
4, 198720, Note_on_c, 4, 55, 95
4, 198720, Note_on_c, 4, 52, 95
4, 198720, Note_on_c, 4, 47, 95
4, 198720, Note_on_c, 4, 40, 95
4, 199200, Note_off_c, 4, 64, 95
4, 199200, Note_off_c, 4, 59, 95
4, 199200, Note_off_c, 4, 55, 95
4, 199200, Note_off_c, 4, 52, 95
4, 199200, Note_off_c, 4, 47, 95
4, 199200, Note_off_c, 4, 40, 95
4, 199200, Note_on_c, 4, 64, 95
4, 199200, Note_on_c, 4, 59, 95
4, 199200, Note_on_c, 4, 55, 95
4, 199200, Note_on_c, 4, 52, 95
4, 199200, Note_on_c, 4, 47, 95
4, 199200, Note_on_c, 4, 40, 95
4, 199440, Note_off_c, 4, 64, 95
4, 199440, Note_off_c, 4, 59, 95
4, 199440, Note_off_c, 4, 55, 95
4, 199440, Note_off_c, 4, 52, 95
4, 199440, Note_off_c, 4, 47, 95
4, 199440, Note_off_c, 4, 40, 95
4, 199440, Note_on_c, 4, 64, 95
4, 199440, Note_on_c, 4, 59, 95
4, 199440, Note_on_c, 4, 55, 95
4, 199440, Note_on_c, 4, 52, 95
4, 199440, Note_on_c, 4, 47, 95
4, 199440, Note_on_c, 4, 40, 95
4, 199680, Note_off_c, 4, 64, 95
4, 199680, Note_off_c, 4, 59, 95
4, 199680, Note_off_c, 4, 55, 95
4, 199680, Note_off_c, 4, 52, 95
4, 199680, Note_off_c, 4, 47, 95
4, 199680, Note_off_c, 4, 40, 95
4, 199680, Note_on_c, 4, 64, 95
4, 199680, Note_on_c, 4, 59, 95
4, 199680, Note_on_c, 4, 55, 95
4, 199680, Note_on_c, 4, 52, 95
4, 199680, Note_on_c, 4, 47, 95
4, 199680, Note_on_c, 4, 40, 95
4, 199920, Note_off_c, 4, 64, 95
4, 199920, Note_off_c, 4, 59, 95
4, 199920, Note_off_c, 4, 55, 95
4, 199920, Note_off_c, 4, 52, 95
4, 199920, Note_off_c, 4, 47, 95
4, 199920, Note_off_c, 4, 40, 95
4, 199920, Note_on_c, 4, 64, 95
4, 199920, Note_on_c, 4, 59, 95
4, 199920, Note_on_c, 4, 55, 95
4, 199920, Note_on_c, 4, 52, 95
4, 199920, Note_on_c, 4, 47, 95
4, 199920, Note_on_c, 4, 40, 95
4, 200160, Note_off_c, 4, 64, 95
4, 200160, Note_off_c, 4, 59, 95
4, 200160, Note_off_c, 4, 55, 95
4, 200160, Note_off_c, 4, 52, 95
4, 200160, Note_off_c, 4, 47, 95
4, 200160, Note_off_c, 4, 40, 95
4, 200160, Note_on_c, 4, 64, 95
4, 200160, Note_on_c, 4, 59, 95
4, 200160, Note_on_c, 4, 55, 95
4, 200160, Note_on_c, 4, 52, 95
4, 200160, Note_on_c, 4, 47, 95
4, 200160, Note_on_c, 4, 40, 95
4, 200640, Note_off_c, 4, 64, 95
4, 200640, Note_off_c, 4, 59, 95
4, 200640, Note_off_c, 4, 55, 95
4, 200640, Note_off_c, 4, 52, 95
4, 200640, Note_off_c, 4, 47, 95
4, 200640, Note_off_c, 4, 40, 95
4, 200640, Note_on_c, 4, 64, 111
4, 200640, Note_on_c, 4, 59, 111
4, 200640, Note_on_c, 4, 55, 111
4, 200640, Note_on_c, 4, 52, 111
4, 200640, Note_on_c, 4, 47, 111
4, 200640, Note_on_c, 4, 40, 111
4, 200880, Note_off_c, 4, 64, 111
4, 200880, Note_off_c, 4, 59, 111
4, 200880, Note_off_c, 4, 55, 111
4, 200880, Note_off_c, 4, 52, 111
4, 200880, Note_off_c, 4, 47, 111
4, 200880, Note_off_c, 4, 40, 111
4, 200880, Note_on_c, 4, 64, 95
4, 200880, Note_on_c, 4, 59, 95
4, 200880, Note_on_c, 4, 55, 95
4, 200880, Note_on_c, 4, 52, 95
4, 200880, Note_on_c, 4, 47, 95
4, 200880, Note_on_c, 4, 40, 95
4, 201120, Note_off_c, 4, 64, 95
4, 201120, Note_off_c, 4, 59, 95
4, 201120, Note_off_c, 4, 55, 95
4, 201120, Note_off_c, 4, 52, 95
4, 201120, Note_off_c, 4, 47, 95
4, 201120, Note_off_c, 4, 40, 95
4, 201120, Note_on_c, 4, 64, 95
4, 201120, Note_on_c, 4, 59, 95
4, 201120, Note_on_c, 4, 55, 95
4, 201120, Note_on_c, 4, 52, 95
4, 201120, Note_on_c, 4, 47, 95
4, 201120, Note_on_c, 4, 40, 95
4, 201360, Note_off_c, 4, 64, 95
4, 201360, Note_off_c, 4, 59, 95
4, 201360, Note_off_c, 4, 55, 95
4, 201360, Note_off_c, 4, 52, 95
4, 201360, Note_off_c, 4, 47, 95
4, 201360, Note_off_c, 4, 40, 95
4, 201360, Note_on_c, 4, 64, 95
4, 201360, Note_on_c, 4, 59, 95
4, 201360, Note_on_c, 4, 55, 95
4, 201360, Note_on_c, 4, 52, 95
4, 201360, Note_on_c, 4, 47, 95
4, 201360, Note_on_c, 4, 40, 95
4, 201600, Note_off_c, 4, 64, 95
4, 201600, Note_off_c, 4, 59, 95
4, 201600, Note_off_c, 4, 55, 95
4, 201600, Note_off_c, 4, 52, 95
4, 201600, Note_off_c, 4, 47, 95
4, 201600, Note_off_c, 4, 40, 95
4, 201600, Note_on_c, 4, 64, 95
4, 201600, Note_on_c, 4, 59, 95
4, 201600, Note_on_c, 4, 55, 95
4, 201600, Note_on_c, 4, 51, 95
4, 201600, Note_on_c, 4, 46, 95
4, 201600, Note_on_c, 4, 39, 95
4, 202080, Note_off_c, 4, 64, 95
4, 202080, Note_off_c, 4, 59, 95
4, 202080, Note_off_c, 4, 55, 95
4, 202080, Note_off_c, 4, 51, 95
4, 202080, Note_off_c, 4, 46, 95
4, 202080, Note_off_c, 4, 39, 95
4, 202080, Note_on_c, 4, 64, 95
4, 202080, Note_on_c, 4, 59, 95
4, 202080, Note_on_c, 4, 55, 95
4, 202080, Note_on_c, 4, 51, 95
4, 202080, Note_on_c, 4, 46, 95
4, 202080, Note_on_c, 4, 39, 95
4, 202320, Note_off_c, 4, 64, 95
4, 202320, Note_off_c, 4, 59, 95
4, 202320, Note_off_c, 4, 55, 95
4, 202320, Note_off_c, 4, 51, 95
4, 202320, Note_off_c, 4, 46, 95
4, 202320, Note_off_c, 4, 39, 95
4, 202320, Note_on_c, 4, 64, 95
4, 202320, Note_on_c, 4, 59, 95
4, 202320, Note_on_c, 4, 55, 95
4, 202320, Note_on_c, 4, 51, 95
4, 202320, Note_on_c, 4, 46, 95
4, 202320, Note_on_c, 4, 39, 95
4, 202560, Note_off_c, 4, 64, 95
4, 202560, Note_off_c, 4, 59, 95
4, 202560, Note_off_c, 4, 55, 95
4, 202560, Note_off_c, 4, 51, 95
4, 202560, Note_off_c, 4, 46, 95
4, 202560, Note_off_c, 4, 39, 95
4, 202560, Note_on_c, 4, 64, 95
4, 202560, Note_on_c, 4, 59, 95
4, 202560, Note_on_c, 4, 55, 95
4, 202560, Note_on_c, 4, 51, 95
4, 202560, Note_on_c, 4, 46, 95
4, 202560, Note_on_c, 4, 39, 95
4, 202800, Note_off_c, 4, 64, 95
4, 202800, Note_off_c, 4, 59, 95
4, 202800, Note_off_c, 4, 55, 95
4, 202800, Note_off_c, 4, 51, 95
4, 202800, Note_off_c, 4, 46, 95
4, 202800, Note_off_c, 4, 39, 95
4, 202800, Note_on_c, 4, 64, 95
4, 202800, Note_on_c, 4, 59, 95
4, 202800, Note_on_c, 4, 55, 95
4, 202800, Note_on_c, 4, 51, 95
4, 202800, Note_on_c, 4, 46, 95
4, 202800, Note_on_c, 4, 39, 95
4, 203040, Note_off_c, 4, 64, 95
4, 203040, Note_off_c, 4, 59, 95
4, 203040, Note_off_c, 4, 55, 95
4, 203040, Note_off_c, 4, 51, 95
4, 203040, Note_off_c, 4, 46, 95
4, 203040, Note_off_c, 4, 39, 95
4, 203040, Note_on_c, 4, 64, 95
4, 203040, Note_on_c, 4, 59, 95
4, 203040, Note_on_c, 4, 55, 95
4, 203040, Note_on_c, 4, 51, 95
4, 203040, Note_on_c, 4, 46, 95
4, 203040, Note_on_c, 4, 39, 95
4, 203520, Note_off_c, 4, 64, 95
4, 203520, Note_off_c, 4, 59, 95
4, 203520, Note_off_c, 4, 55, 95
4, 203520, Note_off_c, 4, 51, 95
4, 203520, Note_off_c, 4, 46, 95
4, 203520, Note_off_c, 4, 39, 95
4, 203520, Note_on_c, 4, 64, 111
4, 203520, Note_on_c, 4, 59, 111
4, 203520, Note_on_c, 4, 55, 111
4, 203520, Note_on_c, 4, 51, 111
4, 203520, Note_on_c, 4, 46, 111
4, 203520, Note_on_c, 4, 39, 111
4, 203760, Note_off_c, 4, 64, 111
4, 203760, Note_off_c, 4, 59, 111
4, 203760, Note_off_c, 4, 55, 111
4, 203760, Note_off_c, 4, 51, 111
4, 203760, Note_off_c, 4, 46, 111
4, 203760, Note_off_c, 4, 39, 111
4, 203760, Note_on_c, 4, 64, 95
4, 203760, Note_on_c, 4, 59, 95
4, 203760, Note_on_c, 4, 55, 95
4, 203760, Note_on_c, 4, 51, 95
4, 203760, Note_on_c, 4, 46, 95
4, 203760, Note_on_c, 4, 39, 95
4, 204000, Note_off_c, 4, 64, 95
4, 204000, Note_off_c, 4, 59, 95
4, 204000, Note_off_c, 4, 55, 95
4, 204000, Note_off_c, 4, 51, 95
4, 204000, Note_off_c, 4, 46, 95
4, 204000, Note_off_c, 4, 39, 95
4, 204000, Note_on_c, 4, 64, 95
4, 204000, Note_on_c, 4, 59, 95
4, 204000, Note_on_c, 4, 55, 95
4, 204000, Note_on_c, 4, 51, 95
4, 204000, Note_on_c, 4, 46, 95
4, 204000, Note_on_c, 4, 39, 95
4, 204240, Note_off_c, 4, 64, 95
4, 204240, Note_off_c, 4, 59, 95
4, 204240, Note_off_c, 4, 55, 95
4, 204240, Note_off_c, 4, 51, 95
4, 204240, Note_off_c, 4, 46, 95
4, 204240, Note_off_c, 4, 39, 95
4, 204240, Note_on_c, 4, 64, 95
4, 204240, Note_on_c, 4, 59, 95
4, 204240, Note_on_c, 4, 55, 95
4, 204240, Note_on_c, 4, 51, 95
4, 204240, Note_on_c, 4, 46, 95
4, 204240, Note_on_c, 4, 39, 95
4, 204480, Note_off_c, 4, 64, 95
4, 204480, Note_off_c, 4, 59, 95
4, 204480, Note_off_c, 4, 55, 95
4, 204480, Note_off_c, 4, 51, 95
4, 204480, Note_off_c, 4, 46, 95
4, 204480, Note_off_c, 4, 39, 95
4, 204480, Note_on_c, 4, 64, 95
4, 204480, Note_on_c, 4, 59, 95
4, 204480, Note_on_c, 4, 55, 95
4, 204480, Note_on_c, 4, 51, 95
4, 204480, Note_on_c, 4, 46, 95
4, 204480, Note_on_c, 4, 39, 95
4, 204960, Note_off_c, 4, 64, 95
4, 204960, Note_off_c, 4, 59, 95
4, 204960, Note_off_c, 4, 55, 95
4, 204960, Note_off_c, 4, 51, 95
4, 204960, Note_off_c, 4, 46, 95
4, 204960, Note_off_c, 4, 39, 95
4, 204960, Note_on_c, 4, 64, 95
4, 204960, Note_on_c, 4, 59, 95
4, 204960, Note_on_c, 4, 55, 95
4, 204960, Note_on_c, 4, 51, 95
4, 204960, Note_on_c, 4, 46, 95
4, 204960, Note_on_c, 4, 39, 95
4, 205200, Note_off_c, 4, 64, 95
4, 205200, Note_off_c, 4, 59, 95
4, 205200, Note_off_c, 4, 55, 95
4, 205200, Note_off_c, 4, 51, 95
4, 205200, Note_off_c, 4, 46, 95
4, 205200, Note_off_c, 4, 39, 95
4, 205200, Note_on_c, 4, 64, 95
4, 205200, Note_on_c, 4, 59, 95
4, 205200, Note_on_c, 4, 55, 95
4, 205200, Note_on_c, 4, 51, 95
4, 205200, Note_on_c, 4, 46, 95
4, 205200, Note_on_c, 4, 39, 95
4, 205440, Note_off_c, 4, 64, 95
4, 205440, Note_off_c, 4, 59, 95
4, 205440, Note_off_c, 4, 55, 95
4, 205440, Note_off_c, 4, 51, 95
4, 205440, Note_off_c, 4, 46, 95
4, 205440, Note_off_c, 4, 39, 95
4, 205440, Note_on_c, 4, 64, 95
4, 205440, Note_on_c, 4, 59, 95
4, 205440, Note_on_c, 4, 55, 95
4, 205440, Note_on_c, 4, 51, 95
4, 205440, Note_on_c, 4, 46, 95
4, 205440, Note_on_c, 4, 39, 95
4, 205680, Note_off_c, 4, 64, 95
4, 205680, Note_off_c, 4, 59, 95
4, 205680, Note_off_c, 4, 55, 95
4, 205680, Note_off_c, 4, 51, 95
4, 205680, Note_off_c, 4, 46, 95
4, 205680, Note_off_c, 4, 39, 95
4, 205680, Note_on_c, 4, 64, 95
4, 205680, Note_on_c, 4, 59, 95
4, 205680, Note_on_c, 4, 55, 95
4, 205680, Note_on_c, 4, 51, 95
4, 205680, Note_on_c, 4, 46, 95
4, 205680, Note_on_c, 4, 39, 95
4, 205920, Note_off_c, 4, 64, 95
4, 205920, Note_off_c, 4, 59, 95
4, 205920, Note_off_c, 4, 55, 95
4, 205920, Note_off_c, 4, 51, 95
4, 205920, Note_off_c, 4, 46, 95
4, 205920, Note_off_c, 4, 39, 95
4, 205920, Note_on_c, 4, 64, 95
4, 205920, Note_on_c, 4, 59, 95
4, 205920, Note_on_c, 4, 55, 95
4, 205920, Note_on_c, 4, 51, 95
4, 205920, Note_on_c, 4, 46, 95
4, 205920, Note_on_c, 4, 39, 95
4, 206400, Note_off_c, 4, 64, 95
4, 206400, Note_off_c, 4, 59, 95
4, 206400, Note_off_c, 4, 55, 95
4, 206400, Note_off_c, 4, 51, 95
4, 206400, Note_off_c, 4, 46, 95
4, 206400, Note_off_c, 4, 39, 95
4, 206400, Note_on_c, 4, 64, 111
4, 206400, Note_on_c, 4, 59, 111
4, 206400, Note_on_c, 4, 55, 111
4, 206400, Note_on_c, 4, 51, 111
4, 206400, Note_on_c, 4, 46, 111
4, 206400, Note_on_c, 4, 39, 111
4, 206640, Note_off_c, 4, 64, 111
4, 206640, Note_off_c, 4, 59, 111
4, 206640, Note_off_c, 4, 55, 111
4, 206640, Note_off_c, 4, 51, 111
4, 206640, Note_off_c, 4, 46, 111
4, 206640, Note_off_c, 4, 39, 111
4, 206640, Note_on_c, 4, 64, 95
4, 206640, Note_on_c, 4, 59, 95
4, 206640, Note_on_c, 4, 55, 95
4, 206640, Note_on_c, 4, 51, 95
4, 206640, Note_on_c, 4, 46, 95
4, 206640, Note_on_c, 4, 39, 95
4, 206880, Note_off_c, 4, 64, 95
4, 206880, Note_off_c, 4, 59, 95
4, 206880, Note_off_c, 4, 55, 95
4, 206880, Note_off_c, 4, 51, 95
4, 206880, Note_off_c, 4, 46, 95
4, 206880, Note_off_c, 4, 39, 95
4, 206880, Note_on_c, 4, 64, 95
4, 206880, Note_on_c, 4, 59, 95
4, 206880, Note_on_c, 4, 55, 95
4, 206880, Note_on_c, 4, 51, 95
4, 206880, Note_on_c, 4, 46, 95
4, 206880, Note_on_c, 4, 39, 95
4, 207120, Note_off_c, 4, 64, 95
4, 207120, Note_off_c, 4, 59, 95
4, 207120, Note_off_c, 4, 55, 95
4, 207120, Note_off_c, 4, 51, 95
4, 207120, Note_off_c, 4, 46, 95
4, 207120, Note_off_c, 4, 39, 95
4, 207120, Note_on_c, 4, 64, 95
4, 207120, Note_on_c, 4, 59, 95
4, 207120, Note_on_c, 4, 55, 95
4, 207120, Note_on_c, 4, 51, 95
4, 207120, Note_on_c, 4, 46, 95
4, 207120, Note_on_c, 4, 39, 95
4, 207360, Note_off_c, 4, 64, 95
4, 207360, Note_off_c, 4, 59, 95
4, 207360, Note_off_c, 4, 55, 95
4, 207360, Note_off_c, 4, 51, 95
4, 207360, Note_off_c, 4, 46, 95
4, 207360, Note_off_c, 4, 39, 95
4, 207360, Note_on_c, 4, 64, 95
4, 207360, Note_on_c, 4, 59, 95
4, 207360, Note_on_c, 4, 55, 95
4, 207360, Note_on_c, 4, 52, 95
4, 207360, Note_on_c, 4, 47, 95
4, 207360, Note_on_c, 4, 40, 95
4, 207840, Note_off_c, 4, 64, 95
4, 207840, Note_off_c, 4, 59, 95
4, 207840, Note_off_c, 4, 55, 95
4, 207840, Note_off_c, 4, 52, 95
4, 207840, Note_off_c, 4, 47, 95
4, 207840, Note_off_c, 4, 40, 95
4, 207840, Note_on_c, 4, 64, 95
4, 207840, Note_on_c, 4, 59, 95
4, 207840, Note_on_c, 4, 55, 95
4, 207840, Note_on_c, 4, 52, 95
4, 207840, Note_on_c, 4, 47, 95
4, 207840, Note_on_c, 4, 40, 95
4, 208080, Note_off_c, 4, 64, 95
4, 208080, Note_off_c, 4, 59, 95
4, 208080, Note_off_c, 4, 55, 95
4, 208080, Note_off_c, 4, 52, 95
4, 208080, Note_off_c, 4, 47, 95
4, 208080, Note_off_c, 4, 40, 95
4, 208080, Note_on_c, 4, 64, 95
4, 208080, Note_on_c, 4, 59, 95
4, 208080, Note_on_c, 4, 55, 95
4, 208080, Note_on_c, 4, 52, 95
4, 208080, Note_on_c, 4, 47, 95
4, 208080, Note_on_c, 4, 40, 95
4, 208320, Note_off_c, 4, 64, 95
4, 208320, Note_off_c, 4, 59, 95
4, 208320, Note_off_c, 4, 55, 95
4, 208320, Note_off_c, 4, 52, 95
4, 208320, Note_off_c, 4, 47, 95
4, 208320, Note_off_c, 4, 40, 95
4, 208320, Note_on_c, 4, 64, 95
4, 208320, Note_on_c, 4, 59, 95
4, 208320, Note_on_c, 4, 55, 95
4, 208320, Note_on_c, 4, 52, 95
4, 208320, Note_on_c, 4, 47, 95
4, 208320, Note_on_c, 4, 40, 95
4, 208560, Note_off_c, 4, 64, 95
4, 208560, Note_off_c, 4, 59, 95
4, 208560, Note_off_c, 4, 55, 95
4, 208560, Note_off_c, 4, 52, 95
4, 208560, Note_off_c, 4, 47, 95
4, 208560, Note_off_c, 4, 40, 95
4, 208560, Note_on_c, 4, 64, 95
4, 208560, Note_on_c, 4, 59, 95
4, 208560, Note_on_c, 4, 55, 95
4, 208560, Note_on_c, 4, 52, 95
4, 208560, Note_on_c, 4, 47, 95
4, 208560, Note_on_c, 4, 40, 95
4, 208800, Note_off_c, 4, 64, 95
4, 208800, Note_off_c, 4, 59, 95
4, 208800, Note_off_c, 4, 55, 95
4, 208800, Note_off_c, 4, 52, 95
4, 208800, Note_off_c, 4, 47, 95
4, 208800, Note_off_c, 4, 40, 95
4, 208800, Note_on_c, 4, 64, 95
4, 208800, Note_on_c, 4, 59, 95
4, 208800, Note_on_c, 4, 55, 95
4, 208800, Note_on_c, 4, 52, 95
4, 208800, Note_on_c, 4, 47, 95
4, 208800, Note_on_c, 4, 40, 95
4, 209280, Note_off_c, 4, 64, 95
4, 209280, Note_off_c, 4, 59, 95
4, 209280, Note_off_c, 4, 55, 95
4, 209280, Note_off_c, 4, 52, 95
4, 209280, Note_off_c, 4, 47, 95
4, 209280, Note_off_c, 4, 40, 95
4, 209280, Note_on_c, 4, 64, 111
4, 209280, Note_on_c, 4, 59, 111
4, 209280, Note_on_c, 4, 55, 111
4, 209280, Note_on_c, 4, 52, 111
4, 209280, Note_on_c, 4, 47, 111
4, 209280, Note_on_c, 4, 40, 111
4, 209520, Note_off_c, 4, 64, 111
4, 209520, Note_off_c, 4, 59, 111
4, 209520, Note_off_c, 4, 55, 111
4, 209520, Note_off_c, 4, 52, 111
4, 209520, Note_off_c, 4, 47, 111
4, 209520, Note_off_c, 4, 40, 111
4, 209520, Note_on_c, 4, 64, 95
4, 209520, Note_on_c, 4, 59, 95
4, 209520, Note_on_c, 4, 55, 95
4, 209520, Note_on_c, 4, 52, 95
4, 209520, Note_on_c, 4, 47, 95
4, 209520, Note_on_c, 4, 40, 95
4, 209760, Note_off_c, 4, 64, 95
4, 209760, Note_off_c, 4, 59, 95
4, 209760, Note_off_c, 4, 55, 95
4, 209760, Note_off_c, 4, 52, 95
4, 209760, Note_off_c, 4, 47, 95
4, 209760, Note_off_c, 4, 40, 95
4, 209760, Note_on_c, 4, 64, 95
4, 209760, Note_on_c, 4, 59, 95
4, 209760, Note_on_c, 4, 55, 95
4, 209760, Note_on_c, 4, 52, 95
4, 209760, Note_on_c, 4, 47, 95
4, 209760, Note_on_c, 4, 40, 95
4, 210000, Note_off_c, 4, 64, 95
4, 210000, Note_off_c, 4, 59, 95
4, 210000, Note_off_c, 4, 55, 95
4, 210000, Note_off_c, 4, 52, 95
4, 210000, Note_off_c, 4, 47, 95
4, 210000, Note_off_c, 4, 40, 95
4, 210000, Note_on_c, 4, 64, 95
4, 210000, Note_on_c, 4, 59, 95
4, 210000, Note_on_c, 4, 55, 95
4, 210000, Note_on_c, 4, 52, 95
4, 210000, Note_on_c, 4, 47, 95
4, 210000, Note_on_c, 4, 40, 95
4, 210240, Note_off_c, 4, 64, 95
4, 210240, Note_off_c, 4, 59, 95
4, 210240, Note_off_c, 4, 55, 95
4, 210240, Note_off_c, 4, 52, 95
4, 210240, Note_off_c, 4, 47, 95
4, 210240, Note_off_c, 4, 40, 95
4, 210240, Note_on_c, 4, 64, 95
4, 210240, Note_on_c, 4, 59, 95
4, 210240, Note_on_c, 4, 55, 95
4, 210240, Note_on_c, 4, 52, 95
4, 210240, Note_on_c, 4, 47, 95
4, 210240, Note_on_c, 4, 40, 95
4, 210720, Note_off_c, 4, 64, 95
4, 210720, Note_off_c, 4, 59, 95
4, 210720, Note_off_c, 4, 55, 95
4, 210720, Note_off_c, 4, 52, 95
4, 210720, Note_off_c, 4, 47, 95
4, 210720, Note_off_c, 4, 40, 95
4, 210720, Note_on_c, 4, 64, 95
4, 210720, Note_on_c, 4, 59, 95
4, 210720, Note_on_c, 4, 55, 95
4, 210720, Note_on_c, 4, 52, 95
4, 210720, Note_on_c, 4, 47, 95
4, 210720, Note_on_c, 4, 40, 95
4, 210960, Note_off_c, 4, 64, 95
4, 210960, Note_off_c, 4, 59, 95
4, 210960, Note_off_c, 4, 55, 95
4, 210960, Note_off_c, 4, 52, 95
4, 210960, Note_off_c, 4, 47, 95
4, 210960, Note_off_c, 4, 40, 95
4, 210960, Note_on_c, 4, 64, 95
4, 210960, Note_on_c, 4, 59, 95
4, 210960, Note_on_c, 4, 55, 95
4, 210960, Note_on_c, 4, 52, 95
4, 210960, Note_on_c, 4, 47, 95
4, 210960, Note_on_c, 4, 40, 95
4, 211200, Note_off_c, 4, 64, 95
4, 211200, Note_off_c, 4, 59, 95
4, 211200, Note_off_c, 4, 55, 95
4, 211200, Note_off_c, 4, 52, 95
4, 211200, Note_off_c, 4, 47, 95
4, 211200, Note_off_c, 4, 40, 95
4, 211200, Note_on_c, 4, 64, 95
4, 211200, Note_on_c, 4, 59, 95
4, 211200, Note_on_c, 4, 55, 95
4, 211200, Note_on_c, 4, 52, 95
4, 211200, Note_on_c, 4, 47, 95
4, 211200, Note_on_c, 4, 40, 95
4, 211440, Note_off_c, 4, 64, 95
4, 211440, Note_off_c, 4, 59, 95
4, 211440, Note_off_c, 4, 55, 95
4, 211440, Note_off_c, 4, 52, 95
4, 211440, Note_off_c, 4, 47, 95
4, 211440, Note_off_c, 4, 40, 95
4, 211440, Note_on_c, 4, 64, 95
4, 211440, Note_on_c, 4, 59, 95
4, 211440, Note_on_c, 4, 55, 95
4, 211440, Note_on_c, 4, 52, 95
4, 211440, Note_on_c, 4, 47, 95
4, 211440, Note_on_c, 4, 40, 95
4, 211680, Note_off_c, 4, 64, 95
4, 211680, Note_off_c, 4, 59, 95
4, 211680, Note_off_c, 4, 55, 95
4, 211680, Note_off_c, 4, 52, 95
4, 211680, Note_off_c, 4, 47, 95
4, 211680, Note_off_c, 4, 40, 95
4, 211680, Note_on_c, 4, 64, 95
4, 211680, Note_on_c, 4, 59, 95
4, 211680, Note_on_c, 4, 55, 95
4, 211680, Note_on_c, 4, 52, 95
4, 211680, Note_on_c, 4, 47, 95
4, 211680, Note_on_c, 4, 40, 95
4, 212160, Note_off_c, 4, 64, 95
4, 212160, Note_off_c, 4, 59, 95
4, 212160, Note_off_c, 4, 55, 95
4, 212160, Note_off_c, 4, 52, 95
4, 212160, Note_off_c, 4, 47, 95
4, 212160, Note_off_c, 4, 40, 95
4, 212160, Note_on_c, 4, 64, 111
4, 212160, Note_on_c, 4, 59, 111
4, 212160, Note_on_c, 4, 55, 111
4, 212160, Note_on_c, 4, 52, 111
4, 212160, Note_on_c, 4, 47, 111
4, 212160, Note_on_c, 4, 40, 111
4, 212400, Note_off_c, 4, 64, 111
4, 212400, Note_off_c, 4, 59, 111
4, 212400, Note_off_c, 4, 55, 111
4, 212400, Note_off_c, 4, 52, 111
4, 212400, Note_off_c, 4, 47, 111
4, 212400, Note_off_c, 4, 40, 111
4, 212400, Note_on_c, 4, 64, 95
4, 212400, Note_on_c, 4, 59, 95
4, 212400, Note_on_c, 4, 55, 95
4, 212400, Note_on_c, 4, 52, 95
4, 212400, Note_on_c, 4, 47, 95
4, 212400, Note_on_c, 4, 40, 95
4, 212640, Note_off_c, 4, 64, 95
4, 212640, Note_off_c, 4, 59, 95
4, 212640, Note_off_c, 4, 55, 95
4, 212640, Note_off_c, 4, 52, 95
4, 212640, Note_off_c, 4, 47, 95
4, 212640, Note_off_c, 4, 40, 95
4, 212640, Note_on_c, 4, 64, 95
4, 212640, Note_on_c, 4, 59, 95
4, 212640, Note_on_c, 4, 55, 95
4, 212640, Note_on_c, 4, 52, 95
4, 212640, Note_on_c, 4, 47, 95
4, 212640, Note_on_c, 4, 40, 95
4, 212880, Note_off_c, 4, 64, 95
4, 212880, Note_off_c, 4, 59, 95
4, 212880, Note_off_c, 4, 55, 95
4, 212880, Note_off_c, 4, 52, 95
4, 212880, Note_off_c, 4, 47, 95
4, 212880, Note_off_c, 4, 40, 95
4, 212880, Note_on_c, 4, 64, 95
4, 212880, Note_on_c, 4, 59, 95
4, 212880, Note_on_c, 4, 55, 95
4, 212880, Note_on_c, 4, 52, 95
4, 212880, Note_on_c, 4, 47, 95
4, 212880, Note_on_c, 4, 40, 95
4, 213120, Note_off_c, 4, 64, 95
4, 213120, Note_off_c, 4, 59, 95
4, 213120, Note_off_c, 4, 55, 95
4, 213120, Note_off_c, 4, 52, 95
4, 213120, Note_off_c, 4, 47, 95
4, 213120, Note_off_c, 4, 40, 95
4, 213120, Note_on_c, 4, 64, 95
4, 213120, Note_on_c, 4, 59, 95
4, 213120, Note_on_c, 4, 55, 95
4, 213120, Note_on_c, 4, 52, 95
4, 213120, Note_on_c, 4, 47, 95
4, 213120, Note_on_c, 4, 40, 95
4, 213600, Note_off_c, 4, 64, 95
4, 213600, Note_off_c, 4, 59, 95
4, 213600, Note_off_c, 4, 55, 95
4, 213600, Note_off_c, 4, 52, 95
4, 213600, Note_off_c, 4, 47, 95
4, 213600, Note_off_c, 4, 40, 95
4, 213600, Note_on_c, 4, 64, 95
4, 213600, Note_on_c, 4, 59, 95
4, 213600, Note_on_c, 4, 55, 95
4, 213600, Note_on_c, 4, 52, 95
4, 213600, Note_on_c, 4, 47, 95
4, 213600, Note_on_c, 4, 40, 95
4, 213840, Note_off_c, 4, 64, 95
4, 213840, Note_off_c, 4, 59, 95
4, 213840, Note_off_c, 4, 55, 95
4, 213840, Note_off_c, 4, 52, 95
4, 213840, Note_off_c, 4, 47, 95
4, 213840, Note_off_c, 4, 40, 95
4, 213840, Note_on_c, 4, 64, 95
4, 213840, Note_on_c, 4, 59, 95
4, 213840, Note_on_c, 4, 55, 95
4, 213840, Note_on_c, 4, 52, 95
4, 213840, Note_on_c, 4, 47, 95
4, 213840, Note_on_c, 4, 40, 95
4, 214080, Note_off_c, 4, 64, 95
4, 214080, Note_off_c, 4, 59, 95
4, 214080, Note_off_c, 4, 55, 95
4, 214080, Note_off_c, 4, 52, 95
4, 214080, Note_off_c, 4, 47, 95
4, 214080, Note_off_c, 4, 40, 95
4, 214080, Note_on_c, 4, 64, 95
4, 214080, Note_on_c, 4, 59, 95
4, 214080, Note_on_c, 4, 55, 95
4, 214080, Note_on_c, 4, 52, 95
4, 214080, Note_on_c, 4, 47, 95
4, 214080, Note_on_c, 4, 40, 95
4, 214320, Note_off_c, 4, 64, 95
4, 214320, Note_off_c, 4, 59, 95
4, 214320, Note_off_c, 4, 55, 95
4, 214320, Note_off_c, 4, 52, 95
4, 214320, Note_off_c, 4, 47, 95
4, 214320, Note_off_c, 4, 40, 95
4, 214320, Note_on_c, 4, 64, 95
4, 214320, Note_on_c, 4, 59, 95
4, 214320, Note_on_c, 4, 55, 95
4, 214320, Note_on_c, 4, 52, 95
4, 214320, Note_on_c, 4, 47, 95
4, 214320, Note_on_c, 4, 40, 95
4, 214560, Note_off_c, 4, 64, 95
4, 214560, Note_off_c, 4, 59, 95
4, 214560, Note_off_c, 4, 55, 95
4, 214560, Note_off_c, 4, 52, 95
4, 214560, Note_off_c, 4, 47, 95
4, 214560, Note_off_c, 4, 40, 95
4, 214560, Note_on_c, 4, 63, 95
4, 214560, Note_on_c, 4, 57, 95
4, 214560, Note_on_c, 4, 54, 95
4, 214560, Note_on_c, 4, 42, 95
4, 215040, Note_off_c, 4, 63, 95
4, 215040, Note_off_c, 4, 57, 95
4, 215040, Note_off_c, 4, 54, 95
4, 215040, Note_off_c, 4, 42, 95
4, 215040, Note_on_c, 4, 63, 111
4, 215040, Note_on_c, 4, 57, 111
4, 215040, Note_on_c, 4, 54, 111
4, 215040, Note_on_c, 4, 42, 111
4, 215280, Note_off_c, 4, 63, 111
4, 215280, Note_off_c, 4, 57, 111
4, 215280, Note_off_c, 4, 54, 111
4, 215280, Note_off_c, 4, 42, 111
4, 215280, Note_on_c, 4, 63, 95
4, 215280, Note_on_c, 4, 57, 95
4, 215280, Note_on_c, 4, 54, 95
4, 215280, Note_on_c, 4, 42, 95
4, 215520, Note_off_c, 4, 63, 95
4, 215520, Note_off_c, 4, 57, 95
4, 215520, Note_off_c, 4, 54, 95
4, 215520, Note_off_c, 4, 42, 95
4, 215520, Note_on_c, 4, 63, 95
4, 215520, Note_on_c, 4, 57, 95
4, 215520, Note_on_c, 4, 54, 95
4, 215520, Note_on_c, 4, 42, 95
4, 215760, Note_off_c, 4, 63, 95
4, 215760, Note_off_c, 4, 57, 95
4, 215760, Note_off_c, 4, 54, 95
4, 215760, Note_off_c, 4, 42, 95
4, 215760, Note_on_c, 4, 63, 95
4, 215760, Note_on_c, 4, 57, 95
4, 215760, Note_on_c, 4, 54, 95
4, 215760, Note_on_c, 4, 42, 95
4, 216000, Note_off_c, 4, 63, 95
4, 216000, Note_off_c, 4, 57, 95
4, 216000, Note_off_c, 4, 54, 95
4, 216000, Note_off_c, 4, 42, 95
4, 216000, Note_on_c, 4, 64, 95
4, 216000, Note_on_c, 4, 59, 95
4, 216000, Note_on_c, 4, 55, 95
4, 216000, Note_on_c, 4, 43, 95
4, 216480, Note_off_c, 4, 64, 95
4, 216480, Note_off_c, 4, 59, 95
4, 216480, Note_off_c, 4, 55, 95
4, 216480, Note_off_c, 4, 43, 95
4, 216480, Note_on_c, 4, 64, 95
4, 216480, Note_on_c, 4, 59, 95
4, 216480, Note_on_c, 4, 55, 95
4, 216480, Note_on_c, 4, 43, 95
4, 216720, Note_off_c, 4, 64, 95
4, 216720, Note_off_c, 4, 59, 95
4, 216720, Note_off_c, 4, 55, 95
4, 216720, Note_off_c, 4, 43, 95
4, 216720, Note_on_c, 4, 64, 95
4, 216720, Note_on_c, 4, 59, 95
4, 216720, Note_on_c, 4, 55, 95
4, 216720, Note_on_c, 4, 43, 95
4, 216960, Note_off_c, 4, 64, 95
4, 216960, Note_off_c, 4, 59, 95
4, 216960, Note_off_c, 4, 55, 95
4, 216960, Note_off_c, 4, 43, 95
4, 216960, Note_on_c, 4, 64, 95
4, 216960, Note_on_c, 4, 59, 95
4, 216960, Note_on_c, 4, 55, 95
4, 216960, Note_on_c, 4, 43, 95
4, 217200, Note_off_c, 4, 64, 95
4, 217200, Note_off_c, 4, 59, 95
4, 217200, Note_off_c, 4, 55, 95
4, 217200, Note_off_c, 4, 43, 95
4, 217200, Note_on_c, 4, 64, 95
4, 217200, Note_on_c, 4, 59, 95
4, 217200, Note_on_c, 4, 55, 95
4, 217200, Note_on_c, 4, 43, 95
4, 217440, Note_off_c, 4, 64, 95
4, 217440, Note_off_c, 4, 59, 95
4, 217440, Note_off_c, 4, 55, 95
4, 217440, Note_off_c, 4, 43, 95
4, 217440, Note_on_c, 4, 66, 95
4, 217440, Note_on_c, 4, 61, 95
4, 217440, Note_on_c, 4, 57, 95
4, 217440, Note_on_c, 4, 45, 95
4, 217920, Note_off_c, 4, 66, 95
4, 217920, Note_off_c, 4, 61, 95
4, 217920, Note_off_c, 4, 57, 95
4, 217920, Note_off_c, 4, 45, 95
4, 217920, Note_on_c, 4, 66, 111
4, 217920, Note_on_c, 4, 61, 111
4, 217920, Note_on_c, 4, 57, 111
4, 217920, Note_on_c, 4, 45, 111
4, 218160, Note_off_c, 4, 66, 111
4, 218160, Note_off_c, 4, 61, 111
4, 218160, Note_off_c, 4, 57, 111
4, 218160, Note_off_c, 4, 45, 111
4, 218160, Note_on_c, 4, 66, 95
4, 218160, Note_on_c, 4, 61, 95
4, 218160, Note_on_c, 4, 57, 95
4, 218160, Note_on_c, 4, 45, 95
4, 218400, Note_off_c, 4, 66, 95
4, 218400, Note_off_c, 4, 61, 95
4, 218400, Note_off_c, 4, 57, 95
4, 218400, Note_off_c, 4, 45, 95
4, 218400, Note_on_c, 4, 66, 95
4, 218400, Note_on_c, 4, 61, 95
4, 218400, Note_on_c, 4, 57, 95
4, 218400, Note_on_c, 4, 45, 95
4, 218640, Note_off_c, 4, 66, 95
4, 218640, Note_off_c, 4, 61, 95
4, 218640, Note_off_c, 4, 57, 95
4, 218640, Note_off_c, 4, 45, 95
4, 218640, Note_on_c, 4, 66, 95
4, 218640, Note_on_c, 4, 61, 95
4, 218640, Note_on_c, 4, 57, 95
4, 218640, Note_on_c, 4, 45, 95
4, 218880, Note_off_c, 4, 66, 95
4, 218880, Note_off_c, 4, 61, 95
4, 218880, Note_off_c, 4, 57, 95
4, 218880, Note_off_c, 4, 45, 95
4, 218880, Note_on_c, 4, 66, 95
4, 218880, Note_on_c, 4, 62, 95
4, 218880, Note_on_c, 4, 59, 95
4, 218880, Note_on_c, 4, 47, 95
4, 219360, Note_off_c, 4, 66, 95
4, 219360, Note_off_c, 4, 62, 95
4, 219360, Note_off_c, 4, 59, 95
4, 219360, Note_off_c, 4, 47, 95
4, 219360, Note_on_c, 4, 66, 95
4, 219360, Note_on_c, 4, 62, 95
4, 219360, Note_on_c, 4, 59, 95
4, 219360, Note_on_c, 4, 47, 95
4, 219600, Note_off_c, 4, 66, 95
4, 219600, Note_off_c, 4, 62, 95
4, 219600, Note_off_c, 4, 59, 95
4, 219600, Note_off_c, 4, 47, 95
4, 219600, Note_on_c, 4, 66, 95
4, 219600, Note_on_c, 4, 62, 95
4, 219600, Note_on_c, 4, 59, 95
4, 219600, Note_on_c, 4, 47, 95
4, 219840, Note_off_c, 4, 66, 95
4, 219840, Note_off_c, 4, 62, 95
4, 219840, Note_off_c, 4, 59, 95
4, 219840, Note_off_c, 4, 47, 95
4, 219840, Note_on_c, 4, 66, 95
4, 219840, Note_on_c, 4, 62, 95
4, 219840, Note_on_c, 4, 59, 95
4, 219840, Note_on_c, 4, 47, 95
4, 220080, Note_off_c, 4, 66, 95
4, 220080, Note_off_c, 4, 62, 95
4, 220080, Note_off_c, 4, 59, 95
4, 220080, Note_off_c, 4, 47, 95
4, 220080, Note_on_c, 4, 66, 95
4, 220080, Note_on_c, 4, 62, 95
4, 220080, Note_on_c, 4, 59, 95
4, 220080, Note_on_c, 4, 47, 95
4, 220320, Note_off_c, 4, 66, 95
4, 220320, Note_off_c, 4, 62, 95
4, 220320, Note_off_c, 4, 59, 95
4, 220320, Note_off_c, 4, 47, 95
4, 220320, Note_on_c, 4, 66, 95
4, 220320, Note_on_c, 4, 62, 95
4, 220320, Note_on_c, 4, 59, 95
4, 220320, Note_on_c, 4, 47, 95
4, 220800, Note_off_c, 4, 66, 95
4, 220800, Note_off_c, 4, 62, 95
4, 220800, Note_off_c, 4, 59, 95
4, 220800, Note_off_c, 4, 47, 95
4, 220800, Note_on_c, 4, 66, 111
4, 220800, Note_on_c, 4, 62, 111
4, 220800, Note_on_c, 4, 59, 111
4, 220800, Note_on_c, 4, 47, 111
4, 221040, Note_off_c, 4, 66, 111
4, 221040, Note_off_c, 4, 62, 111
4, 221040, Note_off_c, 4, 59, 111
4, 221040, Note_off_c, 4, 47, 111
4, 221040, Note_on_c, 4, 66, 95
4, 221040, Note_on_c, 4, 62, 95
4, 221040, Note_on_c, 4, 59, 95
4, 221040, Note_on_c, 4, 47, 95
4, 221280, Note_off_c, 4, 66, 95
4, 221280, Note_off_c, 4, 62, 95
4, 221280, Note_off_c, 4, 59, 95
4, 221280, Note_off_c, 4, 47, 95
4, 221280, Note_on_c, 4, 66, 95
4, 221280, Note_on_c, 4, 62, 95
4, 221280, Note_on_c, 4, 59, 95
4, 221280, Note_on_c, 4, 47, 95
4, 221520, Note_off_c, 4, 66, 95
4, 221520, Note_off_c, 4, 62, 95
4, 221520, Note_off_c, 4, 59, 95
4, 221520, Note_off_c, 4, 47, 95
4, 221520, Note_on_c, 4, 66, 95
4, 221520, Note_on_c, 4, 62, 95
4, 221520, Note_on_c, 4, 59, 95
4, 221520, Note_on_c, 4, 47, 95
4, 221760, Note_off_c, 4, 66, 95
4, 221760, Note_off_c, 4, 62, 95
4, 221760, Note_off_c, 4, 59, 95
4, 221760, Note_off_c, 4, 47, 95
4, 221760, Note_on_c, 4, 66, 95
4, 221760, Note_on_c, 4, 61, 95
4, 221760, Note_on_c, 4, 59, 95
4, 221760, Note_on_c, 4, 45, 95
4, 222240, Note_off_c, 4, 66, 95
4, 222240, Note_off_c, 4, 61, 95
4, 222240, Note_off_c, 4, 59, 95
4, 222240, Note_off_c, 4, 45, 95
4, 222240, Note_on_c, 4, 66, 95
4, 222240, Note_on_c, 4, 61, 95
4, 222240, Note_on_c, 4, 59, 95
4, 222240, Note_on_c, 4, 45, 95
4, 222480, Note_off_c, 4, 66, 95
4, 222480, Note_off_c, 4, 61, 95
4, 222480, Note_off_c, 4, 59, 95
4, 222480, Note_off_c, 4, 45, 95
4, 222480, Note_on_c, 4, 66, 95
4, 222480, Note_on_c, 4, 61, 95
4, 222480, Note_on_c, 4, 59, 95
4, 222480, Note_on_c, 4, 45, 95
4, 222720, Note_off_c, 4, 66, 95
4, 222720, Note_off_c, 4, 61, 95
4, 222720, Note_off_c, 4, 59, 95
4, 222720, Note_off_c, 4, 45, 95
4, 222720, Note_on_c, 4, 66, 95
4, 222720, Note_on_c, 4, 61, 95
4, 222720, Note_on_c, 4, 59, 95
4, 222720, Note_on_c, 4, 45, 95
4, 222960, Note_off_c, 4, 66, 95
4, 222960, Note_off_c, 4, 61, 95
4, 222960, Note_off_c, 4, 59, 95
4, 222960, Note_off_c, 4, 45, 95
4, 222960, Note_on_c, 4, 66, 95
4, 222960, Note_on_c, 4, 61, 95
4, 222960, Note_on_c, 4, 59, 95
4, 222960, Note_on_c, 4, 45, 95
4, 223200, Note_off_c, 4, 66, 95
4, 223200, Note_off_c, 4, 61, 95
4, 223200, Note_off_c, 4, 59, 95
4, 223200, Note_off_c, 4, 45, 95
4, 223200, Note_on_c, 4, 66, 95
4, 223200, Note_on_c, 4, 61, 95
4, 223200, Note_on_c, 4, 59, 95
4, 223200, Note_on_c, 4, 45, 95
4, 223680, Note_off_c, 4, 66, 95
4, 223680, Note_off_c, 4, 61, 95
4, 223680, Note_off_c, 4, 59, 95
4, 223680, Note_off_c, 4, 45, 95
4, 223680, Note_on_c, 4, 66, 111
4, 223680, Note_on_c, 4, 61, 111
4, 223680, Note_on_c, 4, 59, 111
4, 223680, Note_on_c, 4, 45, 95
4, 223920, Note_off_c, 4, 66, 111
4, 223920, Note_off_c, 4, 61, 111
4, 223920, Note_off_c, 4, 59, 111
4, 223920, Note_off_c, 4, 45, 95
4, 223920, Note_on_c, 4, 66, 95
4, 223920, Note_on_c, 4, 61, 95
4, 223920, Note_on_c, 4, 59, 95
4, 223920, Note_on_c, 4, 45, 95
4, 224160, Note_off_c, 4, 66, 95
4, 224160, Note_off_c, 4, 61, 95
4, 224160, Note_off_c, 4, 59, 95
4, 224160, Note_off_c, 4, 45, 95
4, 224160, Note_on_c, 4, 66, 95
4, 224160, Note_on_c, 4, 61, 95
4, 224160, Note_on_c, 4, 59, 95
4, 224160, Note_on_c, 4, 45, 95
4, 224400, Note_off_c, 4, 66, 95
4, 224400, Note_off_c, 4, 61, 95
4, 224400, Note_off_c, 4, 59, 95
4, 224400, Note_off_c, 4, 45, 95
4, 224400, Note_on_c, 4, 66, 95
4, 224400, Note_on_c, 4, 61, 95
4, 224400, Note_on_c, 4, 59, 95
4, 224400, Note_on_c, 4, 45, 95
4, 224640, Note_off_c, 4, 66, 95
4, 224640, Note_off_c, 4, 61, 95
4, 224640, Note_off_c, 4, 59, 95
4, 224640, Note_off_c, 4, 45, 95
4, 224640, Note_on_c, 4, 64, 95
4, 224640, Note_on_c, 4, 59, 95
4, 224640, Note_on_c, 4, 55, 95
4, 224640, Note_on_c, 4, 52, 95
4, 224640, Note_on_c, 4, 47, 95
4, 224640, Note_on_c, 4, 40, 95
4, 225120, Note_off_c, 4, 64, 95
4, 225120, Note_off_c, 4, 59, 95
4, 225120, Note_off_c, 4, 55, 95
4, 225120, Note_off_c, 4, 52, 95
4, 225120, Note_off_c, 4, 47, 95
4, 225120, Note_off_c, 4, 40, 95
4, 225120, Note_on_c, 4, 64, 95
4, 225120, Note_on_c, 4, 59, 95
4, 225120, Note_on_c, 4, 55, 95
4, 225120, Note_on_c, 4, 52, 95
4, 225120, Note_on_c, 4, 47, 95
4, 225120, Note_on_c, 4, 40, 95
4, 225360, Note_off_c, 4, 64, 95
4, 225360, Note_off_c, 4, 59, 95
4, 225360, Note_off_c, 4, 55, 95
4, 225360, Note_off_c, 4, 52, 95
4, 225360, Note_off_c, 4, 47, 95
4, 225360, Note_off_c, 4, 40, 95
4, 225360, Note_on_c, 4, 64, 95
4, 225360, Note_on_c, 4, 59, 95
4, 225360, Note_on_c, 4, 55, 95
4, 225360, Note_on_c, 4, 52, 95
4, 225360, Note_on_c, 4, 47, 95
4, 225360, Note_on_c, 4, 40, 95
4, 225600, Note_off_c, 4, 64, 95
4, 225600, Note_off_c, 4, 59, 95
4, 225600, Note_off_c, 4, 55, 95
4, 225600, Note_off_c, 4, 52, 95
4, 225600, Note_off_c, 4, 47, 95
4, 225600, Note_off_c, 4, 40, 95
4, 225600, Note_on_c, 4, 64, 95
4, 225600, Note_on_c, 4, 59, 95
4, 225600, Note_on_c, 4, 55, 95
4, 225600, Note_on_c, 4, 52, 95
4, 225600, Note_on_c, 4, 47, 95
4, 225600, Note_on_c, 4, 40, 95
4, 225840, Note_off_c, 4, 64, 95
4, 225840, Note_off_c, 4, 59, 95
4, 225840, Note_off_c, 4, 55, 95
4, 225840, Note_off_c, 4, 52, 95
4, 225840, Note_off_c, 4, 47, 95
4, 225840, Note_off_c, 4, 40, 95
4, 225840, Note_on_c, 4, 64, 95
4, 225840, Note_on_c, 4, 59, 95
4, 225840, Note_on_c, 4, 55, 95
4, 225840, Note_on_c, 4, 52, 95
4, 225840, Note_on_c, 4, 47, 95
4, 225840, Note_on_c, 4, 40, 95
4, 226080, Note_off_c, 4, 64, 95
4, 226080, Note_off_c, 4, 59, 95
4, 226080, Note_off_c, 4, 55, 95
4, 226080, Note_off_c, 4, 52, 95
4, 226080, Note_off_c, 4, 47, 95
4, 226080, Note_off_c, 4, 40, 95
4, 226080, Note_on_c, 4, 64, 95
4, 226080, Note_on_c, 4, 59, 95
4, 226080, Note_on_c, 4, 55, 95
4, 226080, Note_on_c, 4, 52, 95
4, 226080, Note_on_c, 4, 47, 95
4, 226080, Note_on_c, 4, 40, 95
4, 226560, Note_off_c, 4, 64, 95
4, 226560, Note_off_c, 4, 59, 95
4, 226560, Note_off_c, 4, 55, 95
4, 226560, Note_off_c, 4, 52, 95
4, 226560, Note_off_c, 4, 47, 95
4, 226560, Note_off_c, 4, 40, 95
4, 226560, Note_on_c, 4, 64, 111
4, 226560, Note_on_c, 4, 59, 111
4, 226560, Note_on_c, 4, 55, 111
4, 226560, Note_on_c, 4, 52, 111
4, 226560, Note_on_c, 4, 47, 111
4, 226560, Note_on_c, 4, 40, 111
4, 226800, Note_off_c, 4, 64, 111
4, 226800, Note_off_c, 4, 59, 111
4, 226800, Note_off_c, 4, 55, 111
4, 226800, Note_off_c, 4, 52, 111
4, 226800, Note_off_c, 4, 47, 111
4, 226800, Note_off_c, 4, 40, 111
4, 226800, Note_on_c, 4, 64, 95
4, 226800, Note_on_c, 4, 59, 95
4, 226800, Note_on_c, 4, 55, 95
4, 226800, Note_on_c, 4, 52, 95
4, 226800, Note_on_c, 4, 47, 95
4, 226800, Note_on_c, 4, 40, 95
4, 227040, Note_off_c, 4, 64, 95
4, 227040, Note_off_c, 4, 59, 95
4, 227040, Note_off_c, 4, 55, 95
4, 227040, Note_off_c, 4, 52, 95
4, 227040, Note_off_c, 4, 47, 95
4, 227040, Note_off_c, 4, 40, 95
4, 227040, Note_on_c, 4, 64, 95
4, 227040, Note_on_c, 4, 59, 95
4, 227040, Note_on_c, 4, 55, 95
4, 227040, Note_on_c, 4, 52, 95
4, 227040, Note_on_c, 4, 47, 95
4, 227040, Note_on_c, 4, 40, 95
4, 227280, Note_off_c, 4, 64, 95
4, 227280, Note_off_c, 4, 59, 95
4, 227280, Note_off_c, 4, 55, 95
4, 227280, Note_off_c, 4, 52, 95
4, 227280, Note_off_c, 4, 47, 95
4, 227280, Note_off_c, 4, 40, 95
4, 227280, Note_on_c, 4, 64, 95
4, 227280, Note_on_c, 4, 59, 95
4, 227280, Note_on_c, 4, 55, 95
4, 227280, Note_on_c, 4, 52, 95
4, 227280, Note_on_c, 4, 47, 95
4, 227280, Note_on_c, 4, 40, 95
4, 227520, Note_off_c, 4, 64, 95
4, 227520, Note_off_c, 4, 59, 95
4, 227520, Note_off_c, 4, 55, 95
4, 227520, Note_off_c, 4, 52, 95
4, 227520, Note_off_c, 4, 47, 95
4, 227520, Note_off_c, 4, 40, 95
4, 227520, Note_on_c, 4, 64, 95
4, 227520, Note_on_c, 4, 59, 95
4, 227520, Note_on_c, 4, 55, 95
4, 227520, Note_on_c, 4, 52, 95
4, 227520, Note_on_c, 4, 47, 95
4, 227520, Note_on_c, 4, 40, 95
4, 228000, Note_off_c, 4, 64, 95
4, 228000, Note_off_c, 4, 59, 95
4, 228000, Note_off_c, 4, 55, 95
4, 228000, Note_off_c, 4, 52, 95
4, 228000, Note_off_c, 4, 47, 95
4, 228000, Note_off_c, 4, 40, 95
4, 228000, Note_on_c, 4, 64, 95
4, 228000, Note_on_c, 4, 59, 95
4, 228000, Note_on_c, 4, 55, 95
4, 228000, Note_on_c, 4, 52, 95
4, 228000, Note_on_c, 4, 47, 95
4, 228000, Note_on_c, 4, 40, 95
4, 228240, Note_off_c, 4, 64, 95
4, 228240, Note_off_c, 4, 59, 95
4, 228240, Note_off_c, 4, 55, 95
4, 228240, Note_off_c, 4, 52, 95
4, 228240, Note_off_c, 4, 47, 95
4, 228240, Note_off_c, 4, 40, 95
4, 228240, Note_on_c, 4, 64, 95
4, 228240, Note_on_c, 4, 59, 95
4, 228240, Note_on_c, 4, 55, 95
4, 228240, Note_on_c, 4, 52, 95
4, 228240, Note_on_c, 4, 47, 95
4, 228240, Note_on_c, 4, 40, 95
4, 228480, Note_off_c, 4, 64, 95
4, 228480, Note_off_c, 4, 59, 95
4, 228480, Note_off_c, 4, 55, 95
4, 228480, Note_off_c, 4, 52, 95
4, 228480, Note_off_c, 4, 47, 95
4, 228480, Note_off_c, 4, 40, 95
4, 228480, Note_on_c, 4, 64, 95
4, 228480, Note_on_c, 4, 59, 95
4, 228480, Note_on_c, 4, 55, 95
4, 228480, Note_on_c, 4, 52, 95
4, 228480, Note_on_c, 4, 47, 95
4, 228480, Note_on_c, 4, 40, 95
4, 228720, Note_off_c, 4, 64, 95
4, 228720, Note_off_c, 4, 59, 95
4, 228720, Note_off_c, 4, 55, 95
4, 228720, Note_off_c, 4, 52, 95
4, 228720, Note_off_c, 4, 47, 95
4, 228720, Note_off_c, 4, 40, 95
4, 228720, Note_on_c, 4, 64, 95
4, 228720, Note_on_c, 4, 59, 95
4, 228720, Note_on_c, 4, 55, 95
4, 228720, Note_on_c, 4, 52, 95
4, 228720, Note_on_c, 4, 47, 95
4, 228720, Note_on_c, 4, 40, 95
4, 228960, Note_off_c, 4, 64, 95
4, 228960, Note_off_c, 4, 59, 95
4, 228960, Note_off_c, 4, 55, 95
4, 228960, Note_off_c, 4, 52, 95
4, 228960, Note_off_c, 4, 47, 95
4, 228960, Note_off_c, 4, 40, 95
4, 228960, Note_on_c, 4, 64, 95
4, 228960, Note_on_c, 4, 59, 95
4, 228960, Note_on_c, 4, 55, 95
4, 228960, Note_on_c, 4, 52, 95
4, 228960, Note_on_c, 4, 47, 95
4, 228960, Note_on_c, 4, 40, 95
4, 229440, Note_off_c, 4, 64, 95
4, 229440, Note_off_c, 4, 59, 95
4, 229440, Note_off_c, 4, 55, 95
4, 229440, Note_off_c, 4, 52, 95
4, 229440, Note_off_c, 4, 47, 95
4, 229440, Note_off_c, 4, 40, 95
4, 229440, Note_on_c, 4, 64, 111
4, 229440, Note_on_c, 4, 59, 111
4, 229440, Note_on_c, 4, 55, 111
4, 229440, Note_on_c, 4, 52, 111
4, 229440, Note_on_c, 4, 47, 111
4, 229440, Note_on_c, 4, 40, 111
4, 229680, Note_off_c, 4, 64, 111
4, 229680, Note_off_c, 4, 59, 111
4, 229680, Note_off_c, 4, 55, 111
4, 229680, Note_off_c, 4, 52, 111
4, 229680, Note_off_c, 4, 47, 111
4, 229680, Note_off_c, 4, 40, 111
4, 229680, Note_on_c, 4, 64, 95
4, 229680, Note_on_c, 4, 59, 95
4, 229680, Note_on_c, 4, 55, 95
4, 229680, Note_on_c, 4, 52, 95
4, 229680, Note_on_c, 4, 47, 95
4, 229680, Note_on_c, 4, 40, 95
4, 229920, Note_off_c, 4, 64, 95
4, 229920, Note_off_c, 4, 59, 95
4, 229920, Note_off_c, 4, 55, 95
4, 229920, Note_off_c, 4, 52, 95
4, 229920, Note_off_c, 4, 47, 95
4, 229920, Note_off_c, 4, 40, 95
4, 229920, Note_on_c, 4, 64, 95
4, 229920, Note_on_c, 4, 59, 95
4, 229920, Note_on_c, 4, 55, 95
4, 229920, Note_on_c, 4, 52, 95
4, 229920, Note_on_c, 4, 47, 95
4, 229920, Note_on_c, 4, 40, 95
4, 230160, Note_off_c, 4, 64, 95
4, 230160, Note_off_c, 4, 59, 95
4, 230160, Note_off_c, 4, 55, 95
4, 230160, Note_off_c, 4, 52, 95
4, 230160, Note_off_c, 4, 47, 95
4, 230160, Note_off_c, 4, 40, 95
4, 230160, Note_on_c, 4, 64, 95
4, 230160, Note_on_c, 4, 59, 95
4, 230160, Note_on_c, 4, 55, 95
4, 230160, Note_on_c, 4, 52, 95
4, 230160, Note_on_c, 4, 47, 95
4, 230160, Note_on_c, 4, 40, 95
4, 230400, Note_off_c, 4, 64, 95
4, 230400, Note_off_c, 4, 59, 95
4, 230400, Note_off_c, 4, 55, 95
4, 230400, Note_off_c, 4, 52, 95
4, 230400, Note_off_c, 4, 47, 95
4, 230400, Note_off_c, 4, 40, 95
4, 230400, Note_on_c, 4, 64, 95
4, 230400, Note_on_c, 4, 59, 95
4, 230400, Note_on_c, 4, 55, 95
4, 230400, Note_on_c, 4, 52, 95
4, 230400, Note_on_c, 4, 47, 95
4, 230400, Note_on_c, 4, 40, 95
4, 230880, Note_off_c, 4, 64, 95
4, 230880, Note_off_c, 4, 59, 95
4, 230880, Note_off_c, 4, 55, 95
4, 230880, Note_off_c, 4, 52, 95
4, 230880, Note_off_c, 4, 47, 95
4, 230880, Note_off_c, 4, 40, 95
4, 230880, Note_on_c, 4, 64, 95
4, 230880, Note_on_c, 4, 59, 95
4, 230880, Note_on_c, 4, 55, 95
4, 230880, Note_on_c, 4, 52, 95
4, 230880, Note_on_c, 4, 47, 95
4, 230880, Note_on_c, 4, 40, 95
4, 231120, Note_off_c, 4, 64, 95
4, 231120, Note_off_c, 4, 59, 95
4, 231120, Note_off_c, 4, 55, 95
4, 231120, Note_off_c, 4, 52, 95
4, 231120, Note_off_c, 4, 47, 95
4, 231120, Note_off_c, 4, 40, 95
4, 231120, Note_on_c, 4, 64, 95
4, 231120, Note_on_c, 4, 59, 95
4, 231120, Note_on_c, 4, 55, 95
4, 231120, Note_on_c, 4, 52, 95
4, 231120, Note_on_c, 4, 47, 95
4, 231120, Note_on_c, 4, 40, 95
4, 231360, Note_off_c, 4, 64, 95
4, 231360, Note_off_c, 4, 59, 95
4, 231360, Note_off_c, 4, 55, 95
4, 231360, Note_off_c, 4, 52, 95
4, 231360, Note_off_c, 4, 47, 95
4, 231360, Note_off_c, 4, 40, 95
4, 231360, Note_on_c, 4, 64, 95
4, 231360, Note_on_c, 4, 59, 95
4, 231360, Note_on_c, 4, 55, 95
4, 231360, Note_on_c, 4, 52, 95
4, 231360, Note_on_c, 4, 47, 95
4, 231360, Note_on_c, 4, 40, 95
4, 231600, Note_off_c, 4, 64, 95
4, 231600, Note_off_c, 4, 59, 95
4, 231600, Note_off_c, 4, 55, 95
4, 231600, Note_off_c, 4, 52, 95
4, 231600, Note_off_c, 4, 47, 95
4, 231600, Note_off_c, 4, 40, 95
4, 231600, Note_on_c, 4, 64, 95
4, 231600, Note_on_c, 4, 59, 95
4, 231600, Note_on_c, 4, 55, 95
4, 231600, Note_on_c, 4, 52, 95
4, 231600, Note_on_c, 4, 47, 95
4, 231600, Note_on_c, 4, 40, 95
4, 231840, Note_off_c, 4, 64, 95
4, 231840, Note_off_c, 4, 59, 95
4, 231840, Note_off_c, 4, 55, 95
4, 231840, Note_off_c, 4, 52, 95
4, 231840, Note_off_c, 4, 47, 95
4, 231840, Note_off_c, 4, 40, 95
4, 231840, Note_on_c, 4, 63, 95
4, 231840, Note_on_c, 4, 57, 95
4, 231840, Note_on_c, 4, 54, 95
4, 231840, Note_on_c, 4, 42, 95
4, 232320, Note_off_c, 4, 63, 95
4, 232320, Note_off_c, 4, 57, 95
4, 232320, Note_off_c, 4, 54, 95
4, 232320, Note_off_c, 4, 42, 95
4, 232320, Note_on_c, 4, 63, 111
4, 232320, Note_on_c, 4, 57, 111
4, 232320, Note_on_c, 4, 54, 111
4, 232320, Note_on_c, 4, 42, 111
4, 232560, Note_off_c, 4, 63, 111
4, 232560, Note_off_c, 4, 57, 111
4, 232560, Note_off_c, 4, 54, 111
4, 232560, Note_off_c, 4, 42, 111
4, 232560, Note_on_c, 4, 63, 95
4, 232560, Note_on_c, 4, 57, 95
4, 232560, Note_on_c, 4, 54, 95
4, 232560, Note_on_c, 4, 42, 95
4, 232800, Note_off_c, 4, 63, 95
4, 232800, Note_off_c, 4, 57, 95
4, 232800, Note_off_c, 4, 54, 95
4, 232800, Note_off_c, 4, 42, 95
4, 232800, Note_on_c, 4, 63, 95
4, 232800, Note_on_c, 4, 57, 95
4, 232800, Note_on_c, 4, 54, 95
4, 232800, Note_on_c, 4, 42, 95
4, 233040, Note_off_c, 4, 63, 95
4, 233040, Note_off_c, 4, 57, 95
4, 233040, Note_off_c, 4, 54, 95
4, 233040, Note_off_c, 4, 42, 95
4, 233040, Note_on_c, 4, 63, 95
4, 233040, Note_on_c, 4, 57, 95
4, 233040, Note_on_c, 4, 54, 95
4, 233040, Note_on_c, 4, 42, 95
4, 233280, Note_off_c, 4, 63, 95
4, 233280, Note_off_c, 4, 57, 95
4, 233280, Note_off_c, 4, 54, 95
4, 233280, Note_off_c, 4, 42, 95
4, 233280, Note_on_c, 4, 64, 95
4, 233280, Note_on_c, 4, 59, 95
4, 233280, Note_on_c, 4, 55, 95
4, 233280, Note_on_c, 4, 43, 95
4, 233760, Note_off_c, 4, 64, 95
4, 233760, Note_off_c, 4, 59, 95
4, 233760, Note_off_c, 4, 55, 95
4, 233760, Note_off_c, 4, 43, 95
4, 233760, Note_on_c, 4, 64, 95
4, 233760, Note_on_c, 4, 59, 95
4, 233760, Note_on_c, 4, 55, 95
4, 233760, Note_on_c, 4, 43, 95
4, 234000, Note_off_c, 4, 64, 95
4, 234000, Note_off_c, 4, 59, 95
4, 234000, Note_off_c, 4, 55, 95
4, 234000, Note_off_c, 4, 43, 95
4, 234000, Note_on_c, 4, 64, 95
4, 234000, Note_on_c, 4, 59, 95
4, 234000, Note_on_c, 4, 55, 95
4, 234000, Note_on_c, 4, 43, 95
4, 234240, Note_off_c, 4, 64, 95
4, 234240, Note_off_c, 4, 59, 95
4, 234240, Note_off_c, 4, 55, 95
4, 234240, Note_off_c, 4, 43, 95
4, 234240, Note_on_c, 4, 64, 95
4, 234240, Note_on_c, 4, 59, 95
4, 234240, Note_on_c, 4, 55, 95
4, 234240, Note_on_c, 4, 43, 95
4, 234480, Note_off_c, 4, 64, 95
4, 234480, Note_off_c, 4, 59, 95
4, 234480, Note_off_c, 4, 55, 95
4, 234480, Note_off_c, 4, 43, 95
4, 234480, Note_on_c, 4, 64, 95
4, 234480, Note_on_c, 4, 59, 95
4, 234480, Note_on_c, 4, 55, 95
4, 234480, Note_on_c, 4, 43, 95
4, 234720, Note_off_c, 4, 64, 95
4, 234720, Note_off_c, 4, 59, 95
4, 234720, Note_off_c, 4, 55, 95
4, 234720, Note_off_c, 4, 43, 95
4, 234720, Note_on_c, 4, 66, 95
4, 234720, Note_on_c, 4, 61, 95
4, 234720, Note_on_c, 4, 57, 95
4, 234720, Note_on_c, 4, 45, 95
4, 235200, Note_off_c, 4, 66, 95
4, 235200, Note_off_c, 4, 61, 95
4, 235200, Note_off_c, 4, 57, 95
4, 235200, Note_off_c, 4, 45, 95
4, 235200, Note_on_c, 4, 66, 111
4, 235200, Note_on_c, 4, 61, 111
4, 235200, Note_on_c, 4, 57, 111
4, 235200, Note_on_c, 4, 45, 111
4, 235440, Note_off_c, 4, 66, 111
4, 235440, Note_off_c, 4, 61, 111
4, 235440, Note_off_c, 4, 57, 111
4, 235440, Note_off_c, 4, 45, 111
4, 235440, Note_on_c, 4, 66, 95
4, 235440, Note_on_c, 4, 61, 95
4, 235440, Note_on_c, 4, 57, 95
4, 235440, Note_on_c, 4, 45, 95
4, 235680, Note_off_c, 4, 66, 95
4, 235680, Note_off_c, 4, 61, 95
4, 235680, Note_off_c, 4, 57, 95
4, 235680, Note_off_c, 4, 45, 95
4, 235680, Note_on_c, 4, 66, 95
4, 235680, Note_on_c, 4, 61, 95
4, 235680, Note_on_c, 4, 57, 95
4, 235680, Note_on_c, 4, 45, 95
4, 235920, Note_off_c, 4, 66, 95
4, 235920, Note_off_c, 4, 61, 95
4, 235920, Note_off_c, 4, 57, 95
4, 235920, Note_off_c, 4, 45, 95
4, 235920, Note_on_c, 4, 66, 95
4, 235920, Note_on_c, 4, 61, 95
4, 235920, Note_on_c, 4, 57, 95
4, 235920, Note_on_c, 4, 45, 95
4, 236160, Note_off_c, 4, 66, 95
4, 236160, Note_off_c, 4, 61, 95
4, 236160, Note_off_c, 4, 57, 95
4, 236160, Note_off_c, 4, 45, 95
4, 236160, Note_on_c, 4, 66, 95
4, 236160, Note_on_c, 4, 62, 95
4, 236160, Note_on_c, 4, 59, 95
4, 236160, Note_on_c, 4, 47, 95
4, 236640, Note_off_c, 4, 66, 95
4, 236640, Note_off_c, 4, 62, 95
4, 236640, Note_off_c, 4, 59, 95
4, 236640, Note_off_c, 4, 47, 95
4, 236640, Note_on_c, 4, 66, 95
4, 236640, Note_on_c, 4, 62, 95
4, 236640, Note_on_c, 4, 59, 95
4, 236640, Note_on_c, 4, 47, 95
4, 236880, Note_off_c, 4, 66, 95
4, 236880, Note_off_c, 4, 62, 95
4, 236880, Note_off_c, 4, 59, 95
4, 236880, Note_off_c, 4, 47, 95
4, 236880, Note_on_c, 4, 66, 95
4, 236880, Note_on_c, 4, 62, 95
4, 236880, Note_on_c, 4, 59, 95
4, 236880, Note_on_c, 4, 47, 95
4, 237120, Note_off_c, 4, 66, 95
4, 237120, Note_off_c, 4, 62, 95
4, 237120, Note_off_c, 4, 59, 95
4, 237120, Note_off_c, 4, 47, 95
4, 237120, Note_on_c, 4, 66, 95
4, 237120, Note_on_c, 4, 62, 95
4, 237120, Note_on_c, 4, 59, 95
4, 237120, Note_on_c, 4, 47, 95
4, 237360, Note_off_c, 4, 66, 95
4, 237360, Note_off_c, 4, 62, 95
4, 237360, Note_off_c, 4, 59, 95
4, 237360, Note_off_c, 4, 47, 95
4, 237360, Note_on_c, 4, 66, 95
4, 237360, Note_on_c, 4, 62, 95
4, 237360, Note_on_c, 4, 59, 95
4, 237360, Note_on_c, 4, 47, 95
4, 237600, Note_off_c, 4, 66, 95
4, 237600, Note_off_c, 4, 62, 95
4, 237600, Note_off_c, 4, 59, 95
4, 237600, Note_off_c, 4, 47, 95
4, 237600, Note_on_c, 4, 66, 95
4, 237600, Note_on_c, 4, 62, 95
4, 237600, Note_on_c, 4, 59, 95
4, 237600, Note_on_c, 4, 47, 95
4, 238080, Note_off_c, 4, 66, 95
4, 238080, Note_off_c, 4, 62, 95
4, 238080, Note_off_c, 4, 59, 95
4, 238080, Note_off_c, 4, 47, 95
4, 238080, Note_on_c, 4, 66, 111
4, 238080, Note_on_c, 4, 62, 111
4, 238080, Note_on_c, 4, 59, 111
4, 238080, Note_on_c, 4, 47, 111
4, 238320, Note_off_c, 4, 66, 111
4, 238320, Note_off_c, 4, 62, 111
4, 238320, Note_off_c, 4, 59, 111
4, 238320, Note_off_c, 4, 47, 111
4, 238320, Note_on_c, 4, 66, 95
4, 238320, Note_on_c, 4, 62, 95
4, 238320, Note_on_c, 4, 59, 95
4, 238320, Note_on_c, 4, 47, 95
4, 238560, Note_off_c, 4, 66, 95
4, 238560, Note_off_c, 4, 62, 95
4, 238560, Note_off_c, 4, 59, 95
4, 238560, Note_off_c, 4, 47, 95
4, 238560, Note_on_c, 4, 66, 95
4, 238560, Note_on_c, 4, 62, 95
4, 238560, Note_on_c, 4, 59, 95
4, 238560, Note_on_c, 4, 47, 95
4, 238800, Note_off_c, 4, 66, 95
4, 238800, Note_off_c, 4, 62, 95
4, 238800, Note_off_c, 4, 59, 95
4, 238800, Note_off_c, 4, 47, 95
4, 238800, Note_on_c, 4, 66, 95
4, 238800, Note_on_c, 4, 62, 95
4, 238800, Note_on_c, 4, 59, 95
4, 238800, Note_on_c, 4, 47, 95
4, 239040, Note_off_c, 4, 66, 95
4, 239040, Note_off_c, 4, 62, 95
4, 239040, Note_off_c, 4, 59, 95
4, 239040, Note_off_c, 4, 47, 95
4, 239040, Note_on_c, 4, 66, 95
4, 239040, Note_on_c, 4, 61, 95
4, 239040, Note_on_c, 4, 59, 95
4, 239040, Note_on_c, 4, 45, 95
4, 239520, Note_off_c, 4, 66, 95
4, 239520, Note_off_c, 4, 61, 95
4, 239520, Note_off_c, 4, 59, 95
4, 239520, Note_off_c, 4, 45, 95
4, 239520, Note_on_c, 4, 66, 95
4, 239520, Note_on_c, 4, 61, 95
4, 239520, Note_on_c, 4, 59, 95
4, 239520, Note_on_c, 4, 45, 95
4, 239760, Note_off_c, 4, 66, 95
4, 239760, Note_off_c, 4, 61, 95
4, 239760, Note_off_c, 4, 59, 95
4, 239760, Note_off_c, 4, 45, 95
4, 239760, Note_on_c, 4, 66, 95
4, 239760, Note_on_c, 4, 61, 95
4, 239760, Note_on_c, 4, 59, 95
4, 239760, Note_on_c, 4, 45, 95
4, 240000, Note_off_c, 4, 66, 95
4, 240000, Note_off_c, 4, 61, 95
4, 240000, Note_off_c, 4, 59, 95
4, 240000, Note_off_c, 4, 45, 95
4, 240000, Note_on_c, 4, 66, 95
4, 240000, Note_on_c, 4, 61, 95
4, 240000, Note_on_c, 4, 59, 95
4, 240000, Note_on_c, 4, 45, 95
4, 240240, Note_off_c, 4, 66, 95
4, 240240, Note_off_c, 4, 61, 95
4, 240240, Note_off_c, 4, 59, 95
4, 240240, Note_off_c, 4, 45, 95
4, 240240, Note_on_c, 4, 66, 95
4, 240240, Note_on_c, 4, 61, 95
4, 240240, Note_on_c, 4, 59, 95
4, 240240, Note_on_c, 4, 45, 95
4, 240480, Note_off_c, 4, 66, 95
4, 240480, Note_off_c, 4, 61, 95
4, 240480, Note_off_c, 4, 59, 95
4, 240480, Note_off_c, 4, 45, 95
4, 240480, Note_on_c, 4, 66, 95
4, 240480, Note_on_c, 4, 61, 95
4, 240480, Note_on_c, 4, 59, 95
4, 240480, Note_on_c, 4, 45, 95
4, 240960, Note_off_c, 4, 66, 95
4, 240960, Note_off_c, 4, 61, 95
4, 240960, Note_off_c, 4, 59, 95
4, 240960, Note_off_c, 4, 45, 95
4, 240960, Note_on_c, 4, 66, 111
4, 240960, Note_on_c, 4, 61, 111
4, 240960, Note_on_c, 4, 59, 111
4, 240960, Note_on_c, 4, 45, 95
4, 241200, Note_off_c, 4, 66, 111
4, 241200, Note_off_c, 4, 61, 111
4, 241200, Note_off_c, 4, 59, 111
4, 241200, Note_off_c, 4, 45, 95
4, 241200, Note_on_c, 4, 66, 95
4, 241200, Note_on_c, 4, 61, 95
4, 241200, Note_on_c, 4, 59, 95
4, 241200, Note_on_c, 4, 45, 95
4, 241440, Note_off_c, 4, 66, 95
4, 241440, Note_off_c, 4, 61, 95
4, 241440, Note_off_c, 4, 59, 95
4, 241440, Note_off_c, 4, 45, 95
4, 241440, Note_on_c, 4, 66, 95
4, 241440, Note_on_c, 4, 61, 95
4, 241440, Note_on_c, 4, 59, 95
4, 241440, Note_on_c, 4, 45, 95
4, 241680, Note_off_c, 4, 66, 95
4, 241680, Note_off_c, 4, 61, 95
4, 241680, Note_off_c, 4, 59, 95
4, 241680, Note_off_c, 4, 45, 95
4, 241680, Note_on_c, 4, 66, 95
4, 241680, Note_on_c, 4, 61, 95
4, 241680, Note_on_c, 4, 59, 95
4, 241680, Note_on_c, 4, 45, 95
4, 241920, Note_off_c, 4, 66, 95
4, 241920, Note_off_c, 4, 61, 95
4, 241920, Note_off_c, 4, 59, 95
4, 241920, Note_off_c, 4, 45, 95
4, 241920, Note_on_c, 4, 64, 95
4, 241920, Note_on_c, 4, 59, 95
4, 241920, Note_on_c, 4, 55, 95
4, 241920, Note_on_c, 4, 52, 95
4, 241920, Note_on_c, 4, 47, 95
4, 241920, Note_on_c, 4, 40, 95
4, 242400, Note_off_c, 4, 64, 95
4, 242400, Note_off_c, 4, 59, 95
4, 242400, Note_off_c, 4, 55, 95
4, 242400, Note_off_c, 4, 52, 95
4, 242400, Note_off_c, 4, 47, 95
4, 242400, Note_off_c, 4, 40, 95
4, 242400, Note_on_c, 4, 64, 95
4, 242400, Note_on_c, 4, 59, 95
4, 242400, Note_on_c, 4, 55, 95
4, 242400, Note_on_c, 4, 52, 95
4, 242400, Note_on_c, 4, 47, 95
4, 242400, Note_on_c, 4, 40, 95
4, 242640, Note_off_c, 4, 64, 95
4, 242640, Note_off_c, 4, 59, 95
4, 242640, Note_off_c, 4, 55, 95
4, 242640, Note_off_c, 4, 52, 95
4, 242640, Note_off_c, 4, 47, 95
4, 242640, Note_off_c, 4, 40, 95
4, 242640, Note_on_c, 4, 64, 95
4, 242640, Note_on_c, 4, 59, 95
4, 242640, Note_on_c, 4, 55, 95
4, 242640, Note_on_c, 4, 52, 95
4, 242640, Note_on_c, 4, 47, 95
4, 242640, Note_on_c, 4, 40, 95
4, 242880, Note_off_c, 4, 64, 95
4, 242880, Note_off_c, 4, 59, 95
4, 242880, Note_off_c, 4, 55, 95
4, 242880, Note_off_c, 4, 52, 95
4, 242880, Note_off_c, 4, 47, 95
4, 242880, Note_off_c, 4, 40, 95
4, 242880, Note_on_c, 4, 64, 95
4, 242880, Note_on_c, 4, 59, 95
4, 242880, Note_on_c, 4, 55, 95
4, 242880, Note_on_c, 4, 52, 95
4, 242880, Note_on_c, 4, 47, 95
4, 242880, Note_on_c, 4, 40, 95
4, 243120, Note_off_c, 4, 64, 95
4, 243120, Note_off_c, 4, 59, 95
4, 243120, Note_off_c, 4, 55, 95
4, 243120, Note_off_c, 4, 52, 95
4, 243120, Note_off_c, 4, 47, 95
4, 243120, Note_off_c, 4, 40, 95
4, 243120, Note_on_c, 4, 64, 95
4, 243120, Note_on_c, 4, 59, 95
4, 243120, Note_on_c, 4, 55, 95
4, 243120, Note_on_c, 4, 52, 95
4, 243120, Note_on_c, 4, 47, 95
4, 243120, Note_on_c, 4, 40, 95
4, 243360, Note_off_c, 4, 64, 95
4, 243360, Note_off_c, 4, 59, 95
4, 243360, Note_off_c, 4, 55, 95
4, 243360, Note_off_c, 4, 52, 95
4, 243360, Note_off_c, 4, 47, 95
4, 243360, Note_off_c, 4, 40, 95
4, 243360, Note_on_c, 4, 64, 95
4, 243360, Note_on_c, 4, 59, 95
4, 243360, Note_on_c, 4, 55, 95
4, 243360, Note_on_c, 4, 52, 95
4, 243360, Note_on_c, 4, 47, 95
4, 243360, Note_on_c, 4, 40, 95
4, 243840, Note_off_c, 4, 64, 95
4, 243840, Note_off_c, 4, 59, 95
4, 243840, Note_off_c, 4, 55, 95
4, 243840, Note_off_c, 4, 52, 95
4, 243840, Note_off_c, 4, 47, 95
4, 243840, Note_off_c, 4, 40, 95
4, 243840, Note_on_c, 4, 64, 111
4, 243840, Note_on_c, 4, 59, 111
4, 243840, Note_on_c, 4, 55, 111
4, 243840, Note_on_c, 4, 52, 111
4, 243840, Note_on_c, 4, 47, 111
4, 243840, Note_on_c, 4, 40, 111
4, 244080, Note_off_c, 4, 64, 111
4, 244080, Note_off_c, 4, 59, 111
4, 244080, Note_off_c, 4, 55, 111
4, 244080, Note_off_c, 4, 52, 111
4, 244080, Note_off_c, 4, 47, 111
4, 244080, Note_off_c, 4, 40, 111
4, 244080, Note_on_c, 4, 64, 95
4, 244080, Note_on_c, 4, 59, 95
4, 244080, Note_on_c, 4, 55, 95
4, 244080, Note_on_c, 4, 52, 95
4, 244080, Note_on_c, 4, 47, 95
4, 244080, Note_on_c, 4, 40, 95
4, 244320, Note_off_c, 4, 64, 95
4, 244320, Note_off_c, 4, 59, 95
4, 244320, Note_off_c, 4, 55, 95
4, 244320, Note_off_c, 4, 52, 95
4, 244320, Note_off_c, 4, 47, 95
4, 244320, Note_off_c, 4, 40, 95
4, 244320, Note_on_c, 4, 64, 95
4, 244320, Note_on_c, 4, 59, 95
4, 244320, Note_on_c, 4, 55, 95
4, 244320, Note_on_c, 4, 52, 95
4, 244320, Note_on_c, 4, 47, 95
4, 244320, Note_on_c, 4, 40, 95
4, 244560, Note_off_c, 4, 64, 95
4, 244560, Note_off_c, 4, 59, 95
4, 244560, Note_off_c, 4, 55, 95
4, 244560, Note_off_c, 4, 52, 95
4, 244560, Note_off_c, 4, 47, 95
4, 244560, Note_off_c, 4, 40, 95
4, 244560, Note_on_c, 4, 64, 95
4, 244560, Note_on_c, 4, 59, 95
4, 244560, Note_on_c, 4, 55, 95
4, 244560, Note_on_c, 4, 52, 95
4, 244560, Note_on_c, 4, 47, 95
4, 244560, Note_on_c, 4, 40, 95
4, 244800, Note_off_c, 4, 64, 95
4, 244800, Note_off_c, 4, 59, 95
4, 244800, Note_off_c, 4, 55, 95
4, 244800, Note_off_c, 4, 52, 95
4, 244800, Note_off_c, 4, 47, 95
4, 244800, Note_off_c, 4, 40, 95
4, 244800, Note_on_c, 4, 64, 95
4, 244800, Note_on_c, 4, 59, 95
4, 244800, Note_on_c, 4, 55, 95
4, 244800, Note_on_c, 4, 52, 95
4, 244800, Note_on_c, 4, 47, 95
4, 244800, Note_on_c, 4, 40, 95
4, 245280, Note_off_c, 4, 64, 95
4, 245280, Note_off_c, 4, 59, 95
4, 245280, Note_off_c, 4, 55, 95
4, 245280, Note_off_c, 4, 52, 95
4, 245280, Note_off_c, 4, 47, 95
4, 245280, Note_off_c, 4, 40, 95
4, 245280, Note_on_c, 4, 64, 95
4, 245280, Note_on_c, 4, 59, 95
4, 245280, Note_on_c, 4, 55, 95
4, 245280, Note_on_c, 4, 52, 95
4, 245280, Note_on_c, 4, 47, 95
4, 245280, Note_on_c, 4, 40, 95
4, 245520, Note_off_c, 4, 64, 95
4, 245520, Note_off_c, 4, 59, 95
4, 245520, Note_off_c, 4, 55, 95
4, 245520, Note_off_c, 4, 52, 95
4, 245520, Note_off_c, 4, 47, 95
4, 245520, Note_off_c, 4, 40, 95
4, 245520, Note_on_c, 4, 64, 95
4, 245520, Note_on_c, 4, 59, 95
4, 245520, Note_on_c, 4, 55, 95
4, 245520, Note_on_c, 4, 52, 95
4, 245520, Note_on_c, 4, 47, 95
4, 245520, Note_on_c, 4, 40, 95
4, 245760, Note_off_c, 4, 64, 95
4, 245760, Note_off_c, 4, 59, 95
4, 245760, Note_off_c, 4, 55, 95
4, 245760, Note_off_c, 4, 52, 95
4, 245760, Note_off_c, 4, 47, 95
4, 245760, Note_off_c, 4, 40, 95
4, 245760, Note_on_c, 4, 64, 95
4, 245760, Note_on_c, 4, 59, 95
4, 245760, Note_on_c, 4, 55, 95
4, 245760, Note_on_c, 4, 52, 95
4, 245760, Note_on_c, 4, 47, 95
4, 245760, Note_on_c, 4, 40, 95
4, 246000, Note_off_c, 4, 64, 95
4, 246000, Note_off_c, 4, 59, 95
4, 246000, Note_off_c, 4, 55, 95
4, 246000, Note_off_c, 4, 52, 95
4, 246000, Note_off_c, 4, 47, 95
4, 246000, Note_off_c, 4, 40, 95
4, 246000, Note_on_c, 4, 64, 95
4, 246000, Note_on_c, 4, 59, 95
4, 246000, Note_on_c, 4, 55, 95
4, 246000, Note_on_c, 4, 52, 95
4, 246000, Note_on_c, 4, 47, 95
4, 246000, Note_on_c, 4, 40, 95
4, 246240, Note_off_c, 4, 64, 95
4, 246240, Note_off_c, 4, 59, 95
4, 246240, Note_off_c, 4, 55, 95
4, 246240, Note_off_c, 4, 52, 95
4, 246240, Note_off_c, 4, 47, 95
4, 246240, Note_off_c, 4, 40, 95
4, 246240, Note_on_c, 4, 64, 95
4, 246240, Note_on_c, 4, 59, 95
4, 246240, Note_on_c, 4, 55, 95
4, 246240, Note_on_c, 4, 52, 95
4, 246240, Note_on_c, 4, 47, 95
4, 246240, Note_on_c, 4, 40, 95
4, 246720, Note_off_c, 4, 64, 95
4, 246720, Note_off_c, 4, 59, 95
4, 246720, Note_off_c, 4, 55, 95
4, 246720, Note_off_c, 4, 52, 95
4, 246720, Note_off_c, 4, 47, 95
4, 246720, Note_off_c, 4, 40, 95
4, 246720, Note_on_c, 4, 64, 111
4, 246720, Note_on_c, 4, 59, 111
4, 246720, Note_on_c, 4, 55, 111
4, 246720, Note_on_c, 4, 52, 111
4, 246720, Note_on_c, 4, 47, 111
4, 246720, Note_on_c, 4, 40, 111
4, 246960, Note_off_c, 4, 64, 111
4, 246960, Note_off_c, 4, 59, 111
4, 246960, Note_off_c, 4, 55, 111
4, 246960, Note_off_c, 4, 52, 111
4, 246960, Note_off_c, 4, 47, 111
4, 246960, Note_off_c, 4, 40, 111
4, 246960, Note_on_c, 4, 64, 95
4, 246960, Note_on_c, 4, 59, 95
4, 246960, Note_on_c, 4, 55, 95
4, 246960, Note_on_c, 4, 52, 95
4, 246960, Note_on_c, 4, 47, 95
4, 246960, Note_on_c, 4, 40, 95
4, 247200, Note_off_c, 4, 64, 95
4, 247200, Note_off_c, 4, 59, 95
4, 247200, Note_off_c, 4, 55, 95
4, 247200, Note_off_c, 4, 52, 95
4, 247200, Note_off_c, 4, 47, 95
4, 247200, Note_off_c, 4, 40, 95
4, 247200, Note_on_c, 4, 64, 95
4, 247200, Note_on_c, 4, 59, 95
4, 247200, Note_on_c, 4, 55, 95
4, 247200, Note_on_c, 4, 52, 95
4, 247200, Note_on_c, 4, 47, 95
4, 247200, Note_on_c, 4, 40, 95
4, 247440, Note_off_c, 4, 64, 95
4, 247440, Note_off_c, 4, 59, 95
4, 247440, Note_off_c, 4, 55, 95
4, 247440, Note_off_c, 4, 52, 95
4, 247440, Note_off_c, 4, 47, 95
4, 247440, Note_off_c, 4, 40, 95
4, 247440, Note_on_c, 4, 64, 95
4, 247440, Note_on_c, 4, 59, 95
4, 247440, Note_on_c, 4, 55, 95
4, 247440, Note_on_c, 4, 52, 95
4, 247440, Note_on_c, 4, 47, 95
4, 247440, Note_on_c, 4, 40, 95
4, 247680, Note_off_c, 4, 64, 95
4, 247680, Note_off_c, 4, 59, 95
4, 247680, Note_off_c, 4, 55, 95
4, 247680, Note_off_c, 4, 52, 95
4, 247680, Note_off_c, 4, 47, 95
4, 247680, Note_off_c, 4, 40, 95
4, 247680, Note_on_c, 4, 64, 95
4, 247680, Note_on_c, 4, 59, 95
4, 247680, Note_on_c, 4, 55, 95
4, 247680, Note_on_c, 4, 53, 95
4, 247680, Note_on_c, 4, 48, 95
4, 247680, Note_on_c, 4, 41, 95
4, 248160, Note_off_c, 4, 64, 95
4, 248160, Note_off_c, 4, 59, 95
4, 248160, Note_off_c, 4, 55, 95
4, 248160, Note_off_c, 4, 53, 95
4, 248160, Note_off_c, 4, 48, 95
4, 248160, Note_off_c, 4, 41, 95
4, 248160, Note_on_c, 4, 64, 95
4, 248160, Note_on_c, 4, 59, 95
4, 248160, Note_on_c, 4, 55, 95
4, 248160, Note_on_c, 4, 53, 95
4, 248160, Note_on_c, 4, 48, 95
4, 248160, Note_on_c, 4, 41, 95
4, 248400, Note_off_c, 4, 64, 95
4, 248400, Note_off_c, 4, 59, 95
4, 248400, Note_off_c, 4, 55, 95
4, 248400, Note_off_c, 4, 53, 95
4, 248400, Note_off_c, 4, 48, 95
4, 248400, Note_off_c, 4, 41, 95
4, 248400, Note_on_c, 4, 64, 95
4, 248400, Note_on_c, 4, 59, 95
4, 248400, Note_on_c, 4, 55, 95
4, 248400, Note_on_c, 4, 53, 95
4, 248400, Note_on_c, 4, 48, 95
4, 248400, Note_on_c, 4, 41, 95
4, 248640, Note_off_c, 4, 64, 95
4, 248640, Note_off_c, 4, 59, 95
4, 248640, Note_off_c, 4, 55, 95
4, 248640, Note_off_c, 4, 53, 95
4, 248640, Note_off_c, 4, 48, 95
4, 248640, Note_off_c, 4, 41, 95
4, 248640, Note_on_c, 4, 64, 95
4, 248640, Note_on_c, 4, 59, 95
4, 248640, Note_on_c, 4, 55, 95
4, 248640, Note_on_c, 4, 53, 95
4, 248640, Note_on_c, 4, 48, 95
4, 248640, Note_on_c, 4, 41, 95
4, 248880, Note_off_c, 4, 64, 95
4, 248880, Note_off_c, 4, 59, 95
4, 248880, Note_off_c, 4, 55, 95
4, 248880, Note_off_c, 4, 53, 95
4, 248880, Note_off_c, 4, 48, 95
4, 248880, Note_off_c, 4, 41, 95
4, 248880, Note_on_c, 4, 64, 95
4, 248880, Note_on_c, 4, 59, 95
4, 248880, Note_on_c, 4, 55, 95
4, 248880, Note_on_c, 4, 53, 95
4, 248880, Note_on_c, 4, 48, 95
4, 248880, Note_on_c, 4, 41, 95
4, 249120, Note_off_c, 4, 64, 95
4, 249120, Note_off_c, 4, 59, 95
4, 249120, Note_off_c, 4, 55, 95
4, 249120, Note_off_c, 4, 53, 95
4, 249120, Note_off_c, 4, 48, 95
4, 249120, Note_off_c, 4, 41, 95
4, 249120, Note_on_c, 4, 64, 95
4, 249120, Note_on_c, 4, 59, 95
4, 249120, Note_on_c, 4, 55, 95
4, 249120, Note_on_c, 4, 53, 95
4, 249120, Note_on_c, 4, 48, 95
4, 249120, Note_on_c, 4, 41, 95
4, 249600, Note_off_c, 4, 64, 95
4, 249600, Note_off_c, 4, 59, 95
4, 249600, Note_off_c, 4, 55, 95
4, 249600, Note_off_c, 4, 53, 95
4, 249600, Note_off_c, 4, 48, 95
4, 249600, Note_off_c, 4, 41, 95
4, 249600, Note_on_c, 4, 64, 111
4, 249600, Note_on_c, 4, 59, 111
4, 249600, Note_on_c, 4, 55, 111
4, 249600, Note_on_c, 4, 53, 111
4, 249600, Note_on_c, 4, 48, 111
4, 249600, Note_on_c, 4, 41, 111
4, 249840, Note_off_c, 4, 64, 111
4, 249840, Note_off_c, 4, 59, 111
4, 249840, Note_off_c, 4, 55, 111
4, 249840, Note_off_c, 4, 53, 111
4, 249840, Note_off_c, 4, 48, 111
4, 249840, Note_off_c, 4, 41, 111
4, 249840, Note_on_c, 4, 64, 95
4, 249840, Note_on_c, 4, 59, 95
4, 249840, Note_on_c, 4, 55, 95
4, 249840, Note_on_c, 4, 53, 95
4, 249840, Note_on_c, 4, 48, 95
4, 249840, Note_on_c, 4, 41, 95
4, 250080, Note_off_c, 4, 64, 95
4, 250080, Note_off_c, 4, 59, 95
4, 250080, Note_off_c, 4, 55, 95
4, 250080, Note_off_c, 4, 53, 95
4, 250080, Note_off_c, 4, 48, 95
4, 250080, Note_off_c, 4, 41, 95
4, 250080, Note_on_c, 4, 64, 95
4, 250080, Note_on_c, 4, 59, 95
4, 250080, Note_on_c, 4, 55, 95
4, 250080, Note_on_c, 4, 53, 95
4, 250080, Note_on_c, 4, 48, 95
4, 250080, Note_on_c, 4, 41, 95
4, 250320, Note_off_c, 4, 64, 95
4, 250320, Note_off_c, 4, 59, 95
4, 250320, Note_off_c, 4, 55, 95
4, 250320, Note_off_c, 4, 53, 95
4, 250320, Note_off_c, 4, 48, 95
4, 250320, Note_off_c, 4, 41, 95
4, 250320, Note_on_c, 4, 64, 95
4, 250320, Note_on_c, 4, 59, 95
4, 250320, Note_on_c, 4, 55, 95
4, 250320, Note_on_c, 4, 53, 95
4, 250320, Note_on_c, 4, 48, 95
4, 250320, Note_on_c, 4, 41, 95
4, 250560, Note_off_c, 4, 64, 95
4, 250560, Note_off_c, 4, 59, 95
4, 250560, Note_off_c, 4, 55, 95
4, 250560, Note_off_c, 4, 53, 95
4, 250560, Note_off_c, 4, 48, 95
4, 250560, Note_off_c, 4, 41, 95
4, 250560, Note_on_c, 4, 64, 95
4, 250560, Note_on_c, 4, 59, 95
4, 250560, Note_on_c, 4, 55, 95
4, 250560, Note_on_c, 4, 52, 95
4, 250560, Note_on_c, 4, 47, 95
4, 250560, Note_on_c, 4, 40, 95
4, 251040, Note_off_c, 4, 64, 95
4, 251040, Note_off_c, 4, 59, 95
4, 251040, Note_off_c, 4, 55, 95
4, 251040, Note_off_c, 4, 52, 95
4, 251040, Note_off_c, 4, 47, 95
4, 251040, Note_off_c, 4, 40, 95
4, 251040, Note_on_c, 4, 64, 95
4, 251040, Note_on_c, 4, 59, 95
4, 251040, Note_on_c, 4, 55, 95
4, 251040, Note_on_c, 4, 52, 95
4, 251040, Note_on_c, 4, 47, 95
4, 251040, Note_on_c, 4, 40, 95
4, 251280, Note_off_c, 4, 64, 95
4, 251280, Note_off_c, 4, 59, 95
4, 251280, Note_off_c, 4, 55, 95
4, 251280, Note_off_c, 4, 52, 95
4, 251280, Note_off_c, 4, 47, 95
4, 251280, Note_off_c, 4, 40, 95
4, 251280, Note_on_c, 4, 64, 95
4, 251280, Note_on_c, 4, 59, 95
4, 251280, Note_on_c, 4, 55, 95
4, 251280, Note_on_c, 4, 52, 95
4, 251280, Note_on_c, 4, 47, 95
4, 251280, Note_on_c, 4, 40, 95
4, 251520, Note_off_c, 4, 64, 95
4, 251520, Note_off_c, 4, 59, 95
4, 251520, Note_off_c, 4, 55, 95
4, 251520, Note_off_c, 4, 52, 95
4, 251520, Note_off_c, 4, 47, 95
4, 251520, Note_off_c, 4, 40, 95
4, 251520, Note_on_c, 4, 64, 95
4, 251520, Note_on_c, 4, 59, 95
4, 251520, Note_on_c, 4, 55, 95
4, 251520, Note_on_c, 4, 52, 95
4, 251520, Note_on_c, 4, 47, 95
4, 251520, Note_on_c, 4, 40, 95
4, 251760, Note_off_c, 4, 64, 95
4, 251760, Note_off_c, 4, 59, 95
4, 251760, Note_off_c, 4, 55, 95
4, 251760, Note_off_c, 4, 52, 95
4, 251760, Note_off_c, 4, 47, 95
4, 251760, Note_off_c, 4, 40, 95
4, 251760, Note_on_c, 4, 64, 95
4, 251760, Note_on_c, 4, 59, 95
4, 251760, Note_on_c, 4, 55, 95
4, 251760, Note_on_c, 4, 52, 95
4, 251760, Note_on_c, 4, 47, 95
4, 251760, Note_on_c, 4, 40, 95
4, 252000, Note_off_c, 4, 64, 95
4, 252000, Note_off_c, 4, 59, 95
4, 252000, Note_off_c, 4, 55, 95
4, 252000, Note_off_c, 4, 52, 95
4, 252000, Note_off_c, 4, 47, 95
4, 252000, Note_off_c, 4, 40, 95
4, 252000, Note_on_c, 4, 64, 95
4, 252000, Note_on_c, 4, 59, 95
4, 252000, Note_on_c, 4, 55, 95
4, 252000, Note_on_c, 4, 52, 95
4, 252000, Note_on_c, 4, 47, 95
4, 252000, Note_on_c, 4, 40, 95
4, 252480, Note_off_c, 4, 64, 95
4, 252480, Note_off_c, 4, 59, 95
4, 252480, Note_off_c, 4, 55, 95
4, 252480, Note_off_c, 4, 52, 95
4, 252480, Note_off_c, 4, 47, 95
4, 252480, Note_off_c, 4, 40, 95
4, 252480, Note_on_c, 4, 64, 111
4, 252480, Note_on_c, 4, 59, 111
4, 252480, Note_on_c, 4, 55, 111
4, 252480, Note_on_c, 4, 52, 111
4, 252480, Note_on_c, 4, 47, 111
4, 252480, Note_on_c, 4, 40, 111
4, 252720, Note_off_c, 4, 64, 111
4, 252720, Note_off_c, 4, 59, 111
4, 252720, Note_off_c, 4, 55, 111
4, 252720, Note_off_c, 4, 52, 111
4, 252720, Note_off_c, 4, 47, 111
4, 252720, Note_off_c, 4, 40, 111
4, 252720, Note_on_c, 4, 64, 95
4, 252720, Note_on_c, 4, 59, 95
4, 252720, Note_on_c, 4, 55, 95
4, 252720, Note_on_c, 4, 52, 95
4, 252720, Note_on_c, 4, 47, 95
4, 252720, Note_on_c, 4, 40, 95
4, 252960, Note_off_c, 4, 64, 95
4, 252960, Note_off_c, 4, 59, 95
4, 252960, Note_off_c, 4, 55, 95
4, 252960, Note_off_c, 4, 52, 95
4, 252960, Note_off_c, 4, 47, 95
4, 252960, Note_off_c, 4, 40, 95
4, 252960, Note_on_c, 4, 64, 95
4, 252960, Note_on_c, 4, 59, 95
4, 252960, Note_on_c, 4, 55, 95
4, 252960, Note_on_c, 4, 52, 95
4, 252960, Note_on_c, 4, 47, 95
4, 252960, Note_on_c, 4, 40, 95
4, 253200, Note_off_c, 4, 64, 95
4, 253200, Note_off_c, 4, 59, 95
4, 253200, Note_off_c, 4, 55, 95
4, 253200, Note_off_c, 4, 52, 95
4, 253200, Note_off_c, 4, 47, 95
4, 253200, Note_off_c, 4, 40, 95
4, 253200, Note_on_c, 4, 64, 95
4, 253200, Note_on_c, 4, 59, 95
4, 253200, Note_on_c, 4, 55, 95
4, 253200, Note_on_c, 4, 52, 95
4, 253200, Note_on_c, 4, 47, 95
4, 253200, Note_on_c, 4, 40, 95
4, 253440, Note_off_c, 4, 64, 95
4, 253440, Note_off_c, 4, 59, 95
4, 253440, Note_off_c, 4, 55, 95
4, 253440, Note_off_c, 4, 52, 95
4, 253440, Note_off_c, 4, 47, 95
4, 253440, Note_off_c, 4, 40, 95
4, 253440, Note_on_c, 4, 64, 95
4, 253440, Note_on_c, 4, 59, 95
4, 253440, Note_on_c, 4, 55, 95
4, 253440, Note_on_c, 4, 51, 95
4, 253440, Note_on_c, 4, 46, 95
4, 253440, Note_on_c, 4, 39, 95
4, 253920, Note_off_c, 4, 64, 95
4, 253920, Note_off_c, 4, 59, 95
4, 253920, Note_off_c, 4, 55, 95
4, 253920, Note_off_c, 4, 51, 95
4, 253920, Note_off_c, 4, 46, 95
4, 253920, Note_off_c, 4, 39, 95
4, 253920, Note_on_c, 4, 64, 95
4, 253920, Note_on_c, 4, 59, 95
4, 253920, Note_on_c, 4, 55, 95
4, 253920, Note_on_c, 4, 51, 95
4, 253920, Note_on_c, 4, 46, 95
4, 253920, Note_on_c, 4, 39, 95
4, 254160, Note_off_c, 4, 64, 95
4, 254160, Note_off_c, 4, 59, 95
4, 254160, Note_off_c, 4, 55, 95
4, 254160, Note_off_c, 4, 51, 95
4, 254160, Note_off_c, 4, 46, 95
4, 254160, Note_off_c, 4, 39, 95
4, 254160, Note_on_c, 4, 64, 95
4, 254160, Note_on_c, 4, 59, 95
4, 254160, Note_on_c, 4, 55, 95
4, 254160, Note_on_c, 4, 51, 95
4, 254160, Note_on_c, 4, 46, 95
4, 254160, Note_on_c, 4, 39, 95
4, 254400, Note_off_c, 4, 64, 95
4, 254400, Note_off_c, 4, 59, 95
4, 254400, Note_off_c, 4, 55, 95
4, 254400, Note_off_c, 4, 51, 95
4, 254400, Note_off_c, 4, 46, 95
4, 254400, Note_off_c, 4, 39, 95
4, 254400, Note_on_c, 4, 64, 95
4, 254400, Note_on_c, 4, 59, 95
4, 254400, Note_on_c, 4, 55, 95
4, 254400, Note_on_c, 4, 51, 95
4, 254400, Note_on_c, 4, 46, 95
4, 254400, Note_on_c, 4, 39, 95
4, 254640, Note_off_c, 4, 64, 95
4, 254640, Note_off_c, 4, 59, 95
4, 254640, Note_off_c, 4, 55, 95
4, 254640, Note_off_c, 4, 51, 95
4, 254640, Note_off_c, 4, 46, 95
4, 254640, Note_off_c, 4, 39, 95
4, 254640, Note_on_c, 4, 64, 95
4, 254640, Note_on_c, 4, 59, 95
4, 254640, Note_on_c, 4, 55, 95
4, 254640, Note_on_c, 4, 51, 95
4, 254640, Note_on_c, 4, 46, 95
4, 254640, Note_on_c, 4, 39, 95
4, 254880, Note_off_c, 4, 64, 95
4, 254880, Note_off_c, 4, 59, 95
4, 254880, Note_off_c, 4, 55, 95
4, 254880, Note_off_c, 4, 51, 95
4, 254880, Note_off_c, 4, 46, 95
4, 254880, Note_off_c, 4, 39, 95
4, 254880, Note_on_c, 4, 64, 95
4, 254880, Note_on_c, 4, 59, 95
4, 254880, Note_on_c, 4, 55, 95
4, 254880, Note_on_c, 4, 51, 95
4, 254880, Note_on_c, 4, 46, 95
4, 254880, Note_on_c, 4, 39, 95
4, 255360, Note_off_c, 4, 64, 95
4, 255360, Note_off_c, 4, 59, 95
4, 255360, Note_off_c, 4, 55, 95
4, 255360, Note_off_c, 4, 51, 95
4, 255360, Note_off_c, 4, 46, 95
4, 255360, Note_off_c, 4, 39, 95
4, 255360, Note_on_c, 4, 64, 111
4, 255360, Note_on_c, 4, 59, 111
4, 255360, Note_on_c, 4, 55, 111
4, 255360, Note_on_c, 4, 51, 111
4, 255360, Note_on_c, 4, 46, 111
4, 255360, Note_on_c, 4, 39, 111
4, 255600, Note_off_c, 4, 64, 111
4, 255600, Note_off_c, 4, 59, 111
4, 255600, Note_off_c, 4, 55, 111
4, 255600, Note_off_c, 4, 51, 111
4, 255600, Note_off_c, 4, 46, 111
4, 255600, Note_off_c, 4, 39, 111
4, 255600, Note_on_c, 4, 64, 95
4, 255600, Note_on_c, 4, 59, 95
4, 255600, Note_on_c, 4, 55, 95
4, 255600, Note_on_c, 4, 51, 95
4, 255600, Note_on_c, 4, 46, 95
4, 255600, Note_on_c, 4, 39, 95
4, 255840, Note_off_c, 4, 64, 95
4, 255840, Note_off_c, 4, 59, 95
4, 255840, Note_off_c, 4, 55, 95
4, 255840, Note_off_c, 4, 51, 95
4, 255840, Note_off_c, 4, 46, 95
4, 255840, Note_off_c, 4, 39, 95
4, 255840, Note_on_c, 4, 64, 95
4, 255840, Note_on_c, 4, 59, 95
4, 255840, Note_on_c, 4, 55, 95
4, 255840, Note_on_c, 4, 51, 95
4, 255840, Note_on_c, 4, 46, 95
4, 255840, Note_on_c, 4, 39, 95
4, 256080, Note_off_c, 4, 64, 95
4, 256080, Note_off_c, 4, 59, 95
4, 256080, Note_off_c, 4, 55, 95
4, 256080, Note_off_c, 4, 51, 95
4, 256080, Note_off_c, 4, 46, 95
4, 256080, Note_off_c, 4, 39, 95
4, 256080, Note_on_c, 4, 64, 95
4, 256080, Note_on_c, 4, 59, 95
4, 256080, Note_on_c, 4, 55, 95
4, 256080, Note_on_c, 4, 51, 95
4, 256080, Note_on_c, 4, 46, 95
4, 256080, Note_on_c, 4, 39, 95
4, 256320, Note_off_c, 4, 64, 95
4, 256320, Note_off_c, 4, 59, 95
4, 256320, Note_off_c, 4, 55, 95
4, 256320, Note_off_c, 4, 51, 95
4, 256320, Note_off_c, 4, 46, 95
4, 256320, Note_off_c, 4, 39, 95
4, 256320, Note_on_c, 4, 64, 95
4, 256320, Note_on_c, 4, 59, 95
4, 256320, Note_on_c, 4, 55, 95
4, 256320, Note_on_c, 4, 51, 95
4, 256320, Note_on_c, 4, 46, 95
4, 256320, Note_on_c, 4, 39, 95
4, 256800, Note_off_c, 4, 64, 95
4, 256800, Note_off_c, 4, 59, 95
4, 256800, Note_off_c, 4, 55, 95
4, 256800, Note_off_c, 4, 51, 95
4, 256800, Note_off_c, 4, 46, 95
4, 256800, Note_off_c, 4, 39, 95
4, 256800, Note_on_c, 4, 64, 95
4, 256800, Note_on_c, 4, 59, 95
4, 256800, Note_on_c, 4, 55, 95
4, 256800, Note_on_c, 4, 51, 95
4, 256800, Note_on_c, 4, 46, 95
4, 256800, Note_on_c, 4, 39, 95
4, 257040, Note_off_c, 4, 64, 95
4, 257040, Note_off_c, 4, 59, 95
4, 257040, Note_off_c, 4, 55, 95
4, 257040, Note_off_c, 4, 51, 95
4, 257040, Note_off_c, 4, 46, 95
4, 257040, Note_off_c, 4, 39, 95
4, 257040, Note_on_c, 4, 64, 95
4, 257040, Note_on_c, 4, 59, 95
4, 257040, Note_on_c, 4, 55, 95
4, 257040, Note_on_c, 4, 51, 95
4, 257040, Note_on_c, 4, 46, 95
4, 257040, Note_on_c, 4, 39, 95
4, 257280, Note_off_c, 4, 64, 95
4, 257280, Note_off_c, 4, 59, 95
4, 257280, Note_off_c, 4, 55, 95
4, 257280, Note_off_c, 4, 51, 95
4, 257280, Note_off_c, 4, 46, 95
4, 257280, Note_off_c, 4, 39, 95
4, 257280, Note_on_c, 4, 64, 95
4, 257280, Note_on_c, 4, 59, 95
4, 257280, Note_on_c, 4, 55, 95
4, 257280, Note_on_c, 4, 51, 95
4, 257280, Note_on_c, 4, 46, 95
4, 257280, Note_on_c, 4, 39, 95
4, 257520, Note_off_c, 4, 64, 95
4, 257520, Note_off_c, 4, 59, 95
4, 257520, Note_off_c, 4, 55, 95
4, 257520, Note_off_c, 4, 51, 95
4, 257520, Note_off_c, 4, 46, 95
4, 257520, Note_off_c, 4, 39, 95
4, 257520, Note_on_c, 4, 64, 95
4, 257520, Note_on_c, 4, 59, 95
4, 257520, Note_on_c, 4, 55, 95
4, 257520, Note_on_c, 4, 51, 95
4, 257520, Note_on_c, 4, 46, 95
4, 257520, Note_on_c, 4, 39, 95
4, 257760, Note_off_c, 4, 64, 95
4, 257760, Note_off_c, 4, 59, 95
4, 257760, Note_off_c, 4, 55, 95
4, 257760, Note_off_c, 4, 51, 95
4, 257760, Note_off_c, 4, 46, 95
4, 257760, Note_off_c, 4, 39, 95
4, 257760, Note_on_c, 4, 64, 95
4, 257760, Note_on_c, 4, 59, 95
4, 257760, Note_on_c, 4, 55, 95
4, 257760, Note_on_c, 4, 51, 95
4, 257760, Note_on_c, 4, 46, 95
4, 257760, Note_on_c, 4, 39, 95
4, 258240, Note_off_c, 4, 64, 95
4, 258240, Note_off_c, 4, 59, 95
4, 258240, Note_off_c, 4, 55, 95
4, 258240, Note_off_c, 4, 51, 95
4, 258240, Note_off_c, 4, 46, 95
4, 258240, Note_off_c, 4, 39, 95
4, 258240, Note_on_c, 4, 64, 111
4, 258240, Note_on_c, 4, 59, 111
4, 258240, Note_on_c, 4, 55, 111
4, 258240, Note_on_c, 4, 51, 111
4, 258240, Note_on_c, 4, 46, 111
4, 258240, Note_on_c, 4, 39, 111
4, 258480, Note_off_c, 4, 64, 111
4, 258480, Note_off_c, 4, 59, 111
4, 258480, Note_off_c, 4, 55, 111
4, 258480, Note_off_c, 4, 51, 111
4, 258480, Note_off_c, 4, 46, 111
4, 258480, Note_off_c, 4, 39, 111
4, 258480, Note_on_c, 4, 64, 95
4, 258480, Note_on_c, 4, 59, 95
4, 258480, Note_on_c, 4, 55, 95
4, 258480, Note_on_c, 4, 51, 95
4, 258480, Note_on_c, 4, 46, 95
4, 258480, Note_on_c, 4, 39, 95
4, 258720, Note_off_c, 4, 64, 95
4, 258720, Note_off_c, 4, 59, 95
4, 258720, Note_off_c, 4, 55, 95
4, 258720, Note_off_c, 4, 51, 95
4, 258720, Note_off_c, 4, 46, 95
4, 258720, Note_off_c, 4, 39, 95
4, 258720, Note_on_c, 4, 64, 95
4, 258720, Note_on_c, 4, 59, 95
4, 258720, Note_on_c, 4, 55, 95
4, 258720, Note_on_c, 4, 51, 95
4, 258720, Note_on_c, 4, 46, 95
4, 258720, Note_on_c, 4, 39, 95
4, 258960, Note_off_c, 4, 64, 95
4, 258960, Note_off_c, 4, 59, 95
4, 258960, Note_off_c, 4, 55, 95
4, 258960, Note_off_c, 4, 51, 95
4, 258960, Note_off_c, 4, 46, 95
4, 258960, Note_off_c, 4, 39, 95
4, 258960, Note_on_c, 4, 64, 95
4, 258960, Note_on_c, 4, 59, 95
4, 258960, Note_on_c, 4, 55, 95
4, 258960, Note_on_c, 4, 51, 95
4, 258960, Note_on_c, 4, 46, 95
4, 258960, Note_on_c, 4, 39, 95
4, 259200, Note_off_c, 4, 64, 95
4, 259200, Note_off_c, 4, 59, 95
4, 259200, Note_off_c, 4, 55, 95
4, 259200, Note_off_c, 4, 51, 95
4, 259200, Note_off_c, 4, 46, 95
4, 259200, Note_off_c, 4, 39, 95
4, 259200, Note_on_c, 4, 64, 95
4, 259200, Note_on_c, 4, 59, 95
4, 259200, Note_on_c, 4, 55, 95
4, 259200, Note_on_c, 4, 53, 95
4, 259200, Note_on_c, 4, 48, 95
4, 259200, Note_on_c, 4, 41, 95
4, 259680, Note_off_c, 4, 64, 95
4, 259680, Note_off_c, 4, 59, 95
4, 259680, Note_off_c, 4, 55, 95
4, 259680, Note_off_c, 4, 53, 95
4, 259680, Note_off_c, 4, 48, 95
4, 259680, Note_off_c, 4, 41, 95
4, 259680, Note_on_c, 4, 64, 95
4, 259680, Note_on_c, 4, 59, 95
4, 259680, Note_on_c, 4, 55, 95
4, 259680, Note_on_c, 4, 53, 95
4, 259680, Note_on_c, 4, 48, 95
4, 259680, Note_on_c, 4, 41, 95
4, 259920, Note_off_c, 4, 64, 95
4, 259920, Note_off_c, 4, 59, 95
4, 259920, Note_off_c, 4, 55, 95
4, 259920, Note_off_c, 4, 53, 95
4, 259920, Note_off_c, 4, 48, 95
4, 259920, Note_off_c, 4, 41, 95
4, 259920, Note_on_c, 4, 64, 95
4, 259920, Note_on_c, 4, 59, 95
4, 259920, Note_on_c, 4, 55, 95
4, 259920, Note_on_c, 4, 53, 95
4, 259920, Note_on_c, 4, 48, 95
4, 259920, Note_on_c, 4, 41, 95
4, 260160, Note_off_c, 4, 64, 95
4, 260160, Note_off_c, 4, 59, 95
4, 260160, Note_off_c, 4, 55, 95
4, 260160, Note_off_c, 4, 53, 95
4, 260160, Note_off_c, 4, 48, 95
4, 260160, Note_off_c, 4, 41, 95
4, 260160, Note_on_c, 4, 64, 95
4, 260160, Note_on_c, 4, 59, 95
4, 260160, Note_on_c, 4, 55, 95
4, 260160, Note_on_c, 4, 53, 95
4, 260160, Note_on_c, 4, 48, 95
4, 260160, Note_on_c, 4, 41, 95
4, 260400, Note_off_c, 4, 64, 95
4, 260400, Note_off_c, 4, 59, 95
4, 260400, Note_off_c, 4, 55, 95
4, 260400, Note_off_c, 4, 53, 95
4, 260400, Note_off_c, 4, 48, 95
4, 260400, Note_off_c, 4, 41, 95
4, 260400, Note_on_c, 4, 64, 95
4, 260400, Note_on_c, 4, 59, 95
4, 260400, Note_on_c, 4, 55, 95
4, 260400, Note_on_c, 4, 53, 95
4, 260400, Note_on_c, 4, 48, 95
4, 260400, Note_on_c, 4, 41, 95
4, 260640, Note_off_c, 4, 64, 95
4, 260640, Note_off_c, 4, 59, 95
4, 260640, Note_off_c, 4, 55, 95
4, 260640, Note_off_c, 4, 53, 95
4, 260640, Note_off_c, 4, 48, 95
4, 260640, Note_off_c, 4, 41, 95
4, 260640, Note_on_c, 4, 64, 95
4, 260640, Note_on_c, 4, 59, 95
4, 260640, Note_on_c, 4, 55, 95
4, 260640, Note_on_c, 4, 53, 95
4, 260640, Note_on_c, 4, 48, 95
4, 260640, Note_on_c, 4, 41, 95
4, 261120, Note_off_c, 4, 64, 95
4, 261120, Note_off_c, 4, 59, 95
4, 261120, Note_off_c, 4, 55, 95
4, 261120, Note_off_c, 4, 53, 95
4, 261120, Note_off_c, 4, 48, 95
4, 261120, Note_off_c, 4, 41, 95
4, 261120, Note_on_c, 4, 64, 111
4, 261120, Note_on_c, 4, 59, 111
4, 261120, Note_on_c, 4, 55, 111
4, 261120, Note_on_c, 4, 53, 111
4, 261120, Note_on_c, 4, 48, 111
4, 261120, Note_on_c, 4, 41, 111
4, 261360, Note_off_c, 4, 64, 111
4, 261360, Note_off_c, 4, 59, 111
4, 261360, Note_off_c, 4, 55, 111
4, 261360, Note_off_c, 4, 53, 111
4, 261360, Note_off_c, 4, 48, 111
4, 261360, Note_off_c, 4, 41, 111
4, 261360, Note_on_c, 4, 64, 95
4, 261360, Note_on_c, 4, 59, 95
4, 261360, Note_on_c, 4, 55, 95
4, 261360, Note_on_c, 4, 53, 95
4, 261360, Note_on_c, 4, 48, 95
4, 261360, Note_on_c, 4, 41, 95
4, 261600, Note_off_c, 4, 64, 95
4, 261600, Note_off_c, 4, 59, 95
4, 261600, Note_off_c, 4, 55, 95
4, 261600, Note_off_c, 4, 53, 95
4, 261600, Note_off_c, 4, 48, 95
4, 261600, Note_off_c, 4, 41, 95
4, 261600, Note_on_c, 4, 64, 95
4, 261600, Note_on_c, 4, 59, 95
4, 261600, Note_on_c, 4, 55, 95
4, 261600, Note_on_c, 4, 53, 95
4, 261600, Note_on_c, 4, 48, 95
4, 261600, Note_on_c, 4, 41, 95
4, 261840, Note_off_c, 4, 64, 95
4, 261840, Note_off_c, 4, 59, 95
4, 261840, Note_off_c, 4, 55, 95
4, 261840, Note_off_c, 4, 53, 95
4, 261840, Note_off_c, 4, 48, 95
4, 261840, Note_off_c, 4, 41, 95
4, 261840, Note_on_c, 4, 64, 95
4, 261840, Note_on_c, 4, 59, 95
4, 261840, Note_on_c, 4, 55, 95
4, 261840, Note_on_c, 4, 53, 95
4, 261840, Note_on_c, 4, 48, 95
4, 261840, Note_on_c, 4, 41, 95
4, 262080, Note_off_c, 4, 64, 95
4, 262080, Note_off_c, 4, 59, 95
4, 262080, Note_off_c, 4, 55, 95
4, 262080, Note_off_c, 4, 53, 95
4, 262080, Note_off_c, 4, 48, 95
4, 262080, Note_off_c, 4, 41, 95
4, 262080, Note_on_c, 4, 64, 95
4, 262080, Note_on_c, 4, 59, 95
4, 262080, Note_on_c, 4, 55, 95
4, 262080, Note_on_c, 4, 52, 95
4, 262080, Note_on_c, 4, 47, 95
4, 262080, Note_on_c, 4, 40, 95
4, 262560, Note_off_c, 4, 64, 95
4, 262560, Note_off_c, 4, 59, 95
4, 262560, Note_off_c, 4, 55, 95
4, 262560, Note_off_c, 4, 52, 95
4, 262560, Note_off_c, 4, 47, 95
4, 262560, Note_off_c, 4, 40, 95
4, 262560, Note_on_c, 4, 64, 95
4, 262560, Note_on_c, 4, 59, 95
4, 262560, Note_on_c, 4, 55, 95
4, 262560, Note_on_c, 4, 52, 95
4, 262560, Note_on_c, 4, 47, 95
4, 262560, Note_on_c, 4, 40, 95
4, 262800, Note_off_c, 4, 64, 95
4, 262800, Note_off_c, 4, 59, 95
4, 262800, Note_off_c, 4, 55, 95
4, 262800, Note_off_c, 4, 52, 95
4, 262800, Note_off_c, 4, 47, 95
4, 262800, Note_off_c, 4, 40, 95
4, 262800, Note_on_c, 4, 64, 95
4, 262800, Note_on_c, 4, 59, 95
4, 262800, Note_on_c, 4, 55, 95
4, 262800, Note_on_c, 4, 52, 95
4, 262800, Note_on_c, 4, 47, 95
4, 262800, Note_on_c, 4, 40, 95
4, 263040, Note_off_c, 4, 64, 95
4, 263040, Note_off_c, 4, 59, 95
4, 263040, Note_off_c, 4, 55, 95
4, 263040, Note_off_c, 4, 52, 95
4, 263040, Note_off_c, 4, 47, 95
4, 263040, Note_off_c, 4, 40, 95
4, 263040, Note_on_c, 4, 64, 95
4, 263040, Note_on_c, 4, 59, 95
4, 263040, Note_on_c, 4, 55, 95
4, 263040, Note_on_c, 4, 52, 95
4, 263040, Note_on_c, 4, 47, 95
4, 263040, Note_on_c, 4, 40, 95
4, 263280, Note_off_c, 4, 64, 95
4, 263280, Note_off_c, 4, 59, 95
4, 263280, Note_off_c, 4, 55, 95
4, 263280, Note_off_c, 4, 52, 95
4, 263280, Note_off_c, 4, 47, 95
4, 263280, Note_off_c, 4, 40, 95
4, 263280, Note_on_c, 4, 64, 95
4, 263280, Note_on_c, 4, 59, 95
4, 263280, Note_on_c, 4, 55, 95
4, 263280, Note_on_c, 4, 52, 95
4, 263280, Note_on_c, 4, 47, 95
4, 263280, Note_on_c, 4, 40, 95
4, 263520, Note_off_c, 4, 64, 95
4, 263520, Note_off_c, 4, 59, 95
4, 263520, Note_off_c, 4, 55, 95
4, 263520, Note_off_c, 4, 52, 95
4, 263520, Note_off_c, 4, 47, 95
4, 263520, Note_off_c, 4, 40, 95
4, 263520, Note_on_c, 4, 64, 95
4, 263520, Note_on_c, 4, 59, 95
4, 263520, Note_on_c, 4, 55, 95
4, 263520, Note_on_c, 4, 52, 95
4, 263520, Note_on_c, 4, 47, 95
4, 263520, Note_on_c, 4, 40, 95
4, 264000, Note_off_c, 4, 64, 95
4, 264000, Note_off_c, 4, 59, 95
4, 264000, Note_off_c, 4, 55, 95
4, 264000, Note_off_c, 4, 52, 95
4, 264000, Note_off_c, 4, 47, 95
4, 264000, Note_off_c, 4, 40, 95
4, 264000, Note_on_c, 4, 64, 111
4, 264000, Note_on_c, 4, 59, 111
4, 264000, Note_on_c, 4, 55, 111
4, 264000, Note_on_c, 4, 52, 111
4, 264000, Note_on_c, 4, 47, 111
4, 264000, Note_on_c, 4, 40, 111
4, 264240, Note_off_c, 4, 64, 111
4, 264240, Note_off_c, 4, 59, 111
4, 264240, Note_off_c, 4, 55, 111
4, 264240, Note_off_c, 4, 52, 111
4, 264240, Note_off_c, 4, 47, 111
4, 264240, Note_off_c, 4, 40, 111
4, 264240, Note_on_c, 4, 64, 95
4, 264240, Note_on_c, 4, 59, 95
4, 264240, Note_on_c, 4, 55, 95
4, 264240, Note_on_c, 4, 52, 95
4, 264240, Note_on_c, 4, 47, 95
4, 264240, Note_on_c, 4, 40, 95
4, 264480, Note_off_c, 4, 64, 95
4, 264480, Note_off_c, 4, 59, 95
4, 264480, Note_off_c, 4, 55, 95
4, 264480, Note_off_c, 4, 52, 95
4, 264480, Note_off_c, 4, 47, 95
4, 264480, Note_off_c, 4, 40, 95
4, 264480, Note_on_c, 4, 64, 95
4, 264480, Note_on_c, 4, 59, 95
4, 264480, Note_on_c, 4, 55, 95
4, 264480, Note_on_c, 4, 52, 95
4, 264480, Note_on_c, 4, 47, 95
4, 264480, Note_on_c, 4, 40, 95
4, 264720, Note_off_c, 4, 64, 95
4, 264720, Note_off_c, 4, 59, 95
4, 264720, Note_off_c, 4, 55, 95
4, 264720, Note_off_c, 4, 52, 95
4, 264720, Note_off_c, 4, 47, 95
4, 264720, Note_off_c, 4, 40, 95
4, 264720, Note_on_c, 4, 64, 95
4, 264720, Note_on_c, 4, 59, 95
4, 264720, Note_on_c, 4, 55, 95
4, 264720, Note_on_c, 4, 52, 95
4, 264720, Note_on_c, 4, 47, 95
4, 264720, Note_on_c, 4, 40, 95
4, 264960, Note_off_c, 4, 64, 95
4, 264960, Note_off_c, 4, 59, 95
4, 264960, Note_off_c, 4, 55, 95
4, 264960, Note_off_c, 4, 52, 95
4, 264960, Note_off_c, 4, 47, 95
4, 264960, Note_off_c, 4, 40, 95
4, 264960, Note_on_c, 4, 64, 95
4, 264960, Note_on_c, 4, 59, 95
4, 264960, Note_on_c, 4, 55, 95
4, 264960, Note_on_c, 4, 51, 95
4, 264960, Note_on_c, 4, 46, 95
4, 264960, Note_on_c, 4, 39, 95
4, 265440, Note_off_c, 4, 64, 95
4, 265440, Note_off_c, 4, 59, 95
4, 265440, Note_off_c, 4, 55, 95
4, 265440, Note_off_c, 4, 51, 95
4, 265440, Note_off_c, 4, 46, 95
4, 265440, Note_off_c, 4, 39, 95
4, 265440, Note_on_c, 4, 64, 95
4, 265440, Note_on_c, 4, 59, 95
4, 265440, Note_on_c, 4, 55, 95
4, 265440, Note_on_c, 4, 51, 95
4, 265440, Note_on_c, 4, 46, 95
4, 265440, Note_on_c, 4, 39, 95
4, 265680, Note_off_c, 4, 64, 95
4, 265680, Note_off_c, 4, 59, 95
4, 265680, Note_off_c, 4, 55, 95
4, 265680, Note_off_c, 4, 51, 95
4, 265680, Note_off_c, 4, 46, 95
4, 265680, Note_off_c, 4, 39, 95
4, 265680, Note_on_c, 4, 64, 95
4, 265680, Note_on_c, 4, 59, 95
4, 265680, Note_on_c, 4, 55, 95
4, 265680, Note_on_c, 4, 51, 95
4, 265680, Note_on_c, 4, 46, 95
4, 265680, Note_on_c, 4, 39, 95
4, 265920, Note_off_c, 4, 64, 95
4, 265920, Note_off_c, 4, 59, 95
4, 265920, Note_off_c, 4, 55, 95
4, 265920, Note_off_c, 4, 51, 95
4, 265920, Note_off_c, 4, 46, 95
4, 265920, Note_off_c, 4, 39, 95
4, 265920, Note_on_c, 4, 64, 95
4, 265920, Note_on_c, 4, 59, 95
4, 265920, Note_on_c, 4, 55, 95
4, 265920, Note_on_c, 4, 51, 95
4, 265920, Note_on_c, 4, 46, 95
4, 265920, Note_on_c, 4, 39, 95
4, 266160, Note_off_c, 4, 64, 95
4, 266160, Note_off_c, 4, 59, 95
4, 266160, Note_off_c, 4, 55, 95
4, 266160, Note_off_c, 4, 51, 95
4, 266160, Note_off_c, 4, 46, 95
4, 266160, Note_off_c, 4, 39, 95
4, 266160, Note_on_c, 4, 64, 95
4, 266160, Note_on_c, 4, 59, 95
4, 266160, Note_on_c, 4, 55, 95
4, 266160, Note_on_c, 4, 51, 95
4, 266160, Note_on_c, 4, 46, 95
4, 266160, Note_on_c, 4, 39, 95
4, 266400, Note_off_c, 4, 64, 95
4, 266400, Note_off_c, 4, 59, 95
4, 266400, Note_off_c, 4, 55, 95
4, 266400, Note_off_c, 4, 51, 95
4, 266400, Note_off_c, 4, 46, 95
4, 266400, Note_off_c, 4, 39, 95
4, 266400, Note_on_c, 4, 64, 95
4, 266400, Note_on_c, 4, 59, 95
4, 266400, Note_on_c, 4, 55, 95
4, 266400, Note_on_c, 4, 51, 95
4, 266400, Note_on_c, 4, 46, 95
4, 266400, Note_on_c, 4, 39, 95
4, 266880, Note_off_c, 4, 64, 95
4, 266880, Note_off_c, 4, 59, 95
4, 266880, Note_off_c, 4, 55, 95
4, 266880, Note_off_c, 4, 51, 95
4, 266880, Note_off_c, 4, 46, 95
4, 266880, Note_off_c, 4, 39, 95
4, 266880, Note_on_c, 4, 64, 111
4, 266880, Note_on_c, 4, 59, 111
4, 266880, Note_on_c, 4, 55, 111
4, 266880, Note_on_c, 4, 51, 111
4, 266880, Note_on_c, 4, 46, 111
4, 266880, Note_on_c, 4, 39, 111
4, 267120, Note_off_c, 4, 64, 111
4, 267120, Note_off_c, 4, 59, 111
4, 267120, Note_off_c, 4, 55, 111
4, 267120, Note_off_c, 4, 51, 111
4, 267120, Note_off_c, 4, 46, 111
4, 267120, Note_off_c, 4, 39, 111
4, 267120, Note_on_c, 4, 64, 95
4, 267120, Note_on_c, 4, 59, 95
4, 267120, Note_on_c, 4, 55, 95
4, 267120, Note_on_c, 4, 51, 95
4, 267120, Note_on_c, 4, 46, 95
4, 267120, Note_on_c, 4, 39, 95
4, 267360, Note_off_c, 4, 64, 95
4, 267360, Note_off_c, 4, 59, 95
4, 267360, Note_off_c, 4, 55, 95
4, 267360, Note_off_c, 4, 51, 95
4, 267360, Note_off_c, 4, 46, 95
4, 267360, Note_off_c, 4, 39, 95
4, 267360, Note_on_c, 4, 64, 95
4, 267360, Note_on_c, 4, 59, 95
4, 267360, Note_on_c, 4, 55, 95
4, 267360, Note_on_c, 4, 51, 95
4, 267360, Note_on_c, 4, 46, 95
4, 267360, Note_on_c, 4, 39, 95
4, 267600, Note_off_c, 4, 64, 95
4, 267600, Note_off_c, 4, 59, 95
4, 267600, Note_off_c, 4, 55, 95
4, 267600, Note_off_c, 4, 51, 95
4, 267600, Note_off_c, 4, 46, 95
4, 267600, Note_off_c, 4, 39, 95
4, 267600, Note_on_c, 4, 64, 95
4, 267600, Note_on_c, 4, 59, 95
4, 267600, Note_on_c, 4, 55, 95
4, 267600, Note_on_c, 4, 51, 95
4, 267600, Note_on_c, 4, 46, 95
4, 267600, Note_on_c, 4, 39, 95
4, 267840, Note_off_c, 4, 64, 95
4, 267840, Note_off_c, 4, 59, 95
4, 267840, Note_off_c, 4, 55, 95
4, 267840, Note_off_c, 4, 51, 95
4, 267840, Note_off_c, 4, 46, 95
4, 267840, Note_off_c, 4, 39, 95
4, 267840, Note_on_c, 4, 64, 95
4, 267840, Note_on_c, 4, 59, 95
4, 267840, Note_on_c, 4, 55, 95
4, 267840, Note_on_c, 4, 51, 95
4, 267840, Note_on_c, 4, 46, 95
4, 267840, Note_on_c, 4, 39, 95
4, 268320, Note_off_c, 4, 64, 95
4, 268320, Note_off_c, 4, 59, 95
4, 268320, Note_off_c, 4, 55, 95
4, 268320, Note_off_c, 4, 51, 95
4, 268320, Note_off_c, 4, 46, 95
4, 268320, Note_off_c, 4, 39, 95
4, 268320, Note_on_c, 4, 64, 95
4, 268320, Note_on_c, 4, 59, 95
4, 268320, Note_on_c, 4, 55, 95
4, 268320, Note_on_c, 4, 51, 95
4, 268320, Note_on_c, 4, 46, 95
4, 268320, Note_on_c, 4, 39, 95
4, 268560, Note_off_c, 4, 64, 95
4, 268560, Note_off_c, 4, 59, 95
4, 268560, Note_off_c, 4, 55, 95
4, 268560, Note_off_c, 4, 51, 95
4, 268560, Note_off_c, 4, 46, 95
4, 268560, Note_off_c, 4, 39, 95
4, 268560, Note_on_c, 4, 64, 95
4, 268560, Note_on_c, 4, 59, 95
4, 268560, Note_on_c, 4, 55, 95
4, 268560, Note_on_c, 4, 51, 95
4, 268560, Note_on_c, 4, 46, 95
4, 268560, Note_on_c, 4, 39, 95
4, 268800, Note_off_c, 4, 64, 95
4, 268800, Note_off_c, 4, 59, 95
4, 268800, Note_off_c, 4, 55, 95
4, 268800, Note_off_c, 4, 51, 95
4, 268800, Note_off_c, 4, 46, 95
4, 268800, Note_off_c, 4, 39, 95
4, 268800, Note_on_c, 4, 64, 95
4, 268800, Note_on_c, 4, 59, 95
4, 268800, Note_on_c, 4, 55, 95
4, 268800, Note_on_c, 4, 51, 95
4, 268800, Note_on_c, 4, 46, 95
4, 268800, Note_on_c, 4, 39, 95
4, 269040, Note_off_c, 4, 64, 95
4, 269040, Note_off_c, 4, 59, 95
4, 269040, Note_off_c, 4, 55, 95
4, 269040, Note_off_c, 4, 51, 95
4, 269040, Note_off_c, 4, 46, 95
4, 269040, Note_off_c, 4, 39, 95
4, 269040, Note_on_c, 4, 64, 95
4, 269040, Note_on_c, 4, 59, 95
4, 269040, Note_on_c, 4, 55, 95
4, 269040, Note_on_c, 4, 51, 95
4, 269040, Note_on_c, 4, 46, 95
4, 269040, Note_on_c, 4, 39, 95
4, 269280, Note_off_c, 4, 64, 95
4, 269280, Note_off_c, 4, 59, 95
4, 269280, Note_off_c, 4, 55, 95
4, 269280, Note_off_c, 4, 51, 95
4, 269280, Note_off_c, 4, 46, 95
4, 269280, Note_off_c, 4, 39, 95
4, 269280, Note_on_c, 4, 64, 95
4, 269280, Note_on_c, 4, 59, 95
4, 269280, Note_on_c, 4, 55, 95
4, 269280, Note_on_c, 4, 51, 95
4, 269280, Note_on_c, 4, 46, 95
4, 269280, Note_on_c, 4, 39, 95
4, 269760, Note_off_c, 4, 64, 95
4, 269760, Note_off_c, 4, 59, 95
4, 269760, Note_off_c, 4, 55, 95
4, 269760, Note_off_c, 4, 51, 95
4, 269760, Note_off_c, 4, 46, 95
4, 269760, Note_off_c, 4, 39, 95
4, 269760, Note_on_c, 4, 64, 111
4, 269760, Note_on_c, 4, 59, 111
4, 269760, Note_on_c, 4, 55, 111
4, 269760, Note_on_c, 4, 51, 111
4, 269760, Note_on_c, 4, 46, 111
4, 269760, Note_on_c, 4, 39, 111
4, 270000, Note_off_c, 4, 64, 111
4, 270000, Note_off_c, 4, 59, 111
4, 270000, Note_off_c, 4, 55, 111
4, 270000, Note_off_c, 4, 51, 111
4, 270000, Note_off_c, 4, 46, 111
4, 270000, Note_off_c, 4, 39, 111
4, 270000, Note_on_c, 4, 64, 95
4, 270000, Note_on_c, 4, 59, 95
4, 270000, Note_on_c, 4, 55, 95
4, 270000, Note_on_c, 4, 51, 95
4, 270000, Note_on_c, 4, 46, 95
4, 270000, Note_on_c, 4, 39, 95
4, 270240, Note_off_c, 4, 64, 95
4, 270240, Note_off_c, 4, 59, 95
4, 270240, Note_off_c, 4, 55, 95
4, 270240, Note_off_c, 4, 51, 95
4, 270240, Note_off_c, 4, 46, 95
4, 270240, Note_off_c, 4, 39, 95
4, 270240, Note_on_c, 4, 64, 95
4, 270240, Note_on_c, 4, 59, 95
4, 270240, Note_on_c, 4, 55, 95
4, 270240, Note_on_c, 4, 51, 95
4, 270240, Note_on_c, 4, 46, 95
4, 270240, Note_on_c, 4, 39, 95
4, 270480, Note_off_c, 4, 64, 95
4, 270480, Note_off_c, 4, 59, 95
4, 270480, Note_off_c, 4, 55, 95
4, 270480, Note_off_c, 4, 51, 95
4, 270480, Note_off_c, 4, 46, 95
4, 270480, Note_off_c, 4, 39, 95
4, 270480, Note_on_c, 4, 64, 95
4, 270480, Note_on_c, 4, 59, 95
4, 270480, Note_on_c, 4, 55, 95
4, 270480, Note_on_c, 4, 51, 95
4, 270480, Note_on_c, 4, 46, 95
4, 270480, Note_on_c, 4, 39, 95
4, 270720, Note_off_c, 4, 64, 95
4, 270720, Note_off_c, 4, 59, 95
4, 270720, Note_off_c, 4, 55, 95
4, 270720, Note_off_c, 4, 51, 95
4, 270720, Note_off_c, 4, 46, 95
4, 270720, Note_off_c, 4, 39, 95
4, 270720, Note_on_c, 4, 64, 95
4, 270720, Note_on_c, 4, 59, 95
4, 270720, Note_on_c, 4, 55, 95
4, 270720, Note_on_c, 4, 52, 95
4, 270720, Note_on_c, 4, 47, 95
4, 270720, Note_on_c, 4, 40, 95
4, 271200, Note_off_c, 4, 64, 95
4, 271200, Note_off_c, 4, 59, 95
4, 271200, Note_off_c, 4, 55, 95
4, 271200, Note_off_c, 4, 52, 95
4, 271200, Note_off_c, 4, 47, 95
4, 271200, Note_off_c, 4, 40, 95
4, 271200, Note_on_c, 4, 64, 95
4, 271200, Note_on_c, 4, 59, 95
4, 271200, Note_on_c, 4, 55, 95
4, 271200, Note_on_c, 4, 52, 95
4, 271200, Note_on_c, 4, 47, 95
4, 271200, Note_on_c, 4, 40, 95
4, 271440, Note_off_c, 4, 64, 95
4, 271440, Note_off_c, 4, 59, 95
4, 271440, Note_off_c, 4, 55, 95
4, 271440, Note_off_c, 4, 52, 95
4, 271440, Note_off_c, 4, 47, 95
4, 271440, Note_off_c, 4, 40, 95
4, 271440, Note_on_c, 4, 64, 95
4, 271440, Note_on_c, 4, 59, 95
4, 271440, Note_on_c, 4, 55, 95
4, 271440, Note_on_c, 4, 52, 95
4, 271440, Note_on_c, 4, 47, 95
4, 271440, Note_on_c, 4, 40, 95
4, 271680, Note_off_c, 4, 64, 95
4, 271680, Note_off_c, 4, 59, 95
4, 271680, Note_off_c, 4, 55, 95
4, 271680, Note_off_c, 4, 52, 95
4, 271680, Note_off_c, 4, 47, 95
4, 271680, Note_off_c, 4, 40, 95
4, 271680, Note_on_c, 4, 64, 95
4, 271680, Note_on_c, 4, 59, 95
4, 271680, Note_on_c, 4, 55, 95
4, 271680, Note_on_c, 4, 52, 95
4, 271680, Note_on_c, 4, 47, 95
4, 271680, Note_on_c, 4, 40, 95
4, 271920, Note_off_c, 4, 64, 95
4, 271920, Note_off_c, 4, 59, 95
4, 271920, Note_off_c, 4, 55, 95
4, 271920, Note_off_c, 4, 52, 95
4, 271920, Note_off_c, 4, 47, 95
4, 271920, Note_off_c, 4, 40, 95
4, 271920, Note_on_c, 4, 64, 95
4, 271920, Note_on_c, 4, 59, 95
4, 271920, Note_on_c, 4, 55, 95
4, 271920, Note_on_c, 4, 52, 95
4, 271920, Note_on_c, 4, 47, 95
4, 271920, Note_on_c, 4, 40, 95
4, 272160, Note_off_c, 4, 64, 95
4, 272160, Note_off_c, 4, 59, 95
4, 272160, Note_off_c, 4, 55, 95
4, 272160, Note_off_c, 4, 52, 95
4, 272160, Note_off_c, 4, 47, 95
4, 272160, Note_off_c, 4, 40, 95
4, 272160, Note_on_c, 4, 64, 95
4, 272160, Note_on_c, 4, 59, 95
4, 272160, Note_on_c, 4, 55, 95
4, 272160, Note_on_c, 4, 52, 95
4, 272160, Note_on_c, 4, 47, 95
4, 272160, Note_on_c, 4, 40, 95
4, 272640, Note_off_c, 4, 64, 95
4, 272640, Note_off_c, 4, 59, 95
4, 272640, Note_off_c, 4, 55, 95
4, 272640, Note_off_c, 4, 52, 95
4, 272640, Note_off_c, 4, 47, 95
4, 272640, Note_off_c, 4, 40, 95
4, 272640, Note_on_c, 4, 64, 111
4, 272640, Note_on_c, 4, 59, 111
4, 272640, Note_on_c, 4, 55, 111
4, 272640, Note_on_c, 4, 52, 111
4, 272640, Note_on_c, 4, 47, 111
4, 272640, Note_on_c, 4, 40, 111
4, 272880, Note_off_c, 4, 64, 111
4, 272880, Note_off_c, 4, 59, 111
4, 272880, Note_off_c, 4, 55, 111
4, 272880, Note_off_c, 4, 52, 111
4, 272880, Note_off_c, 4, 47, 111
4, 272880, Note_off_c, 4, 40, 111
4, 272880, Note_on_c, 4, 64, 95
4, 272880, Note_on_c, 4, 59, 95
4, 272880, Note_on_c, 4, 55, 95
4, 272880, Note_on_c, 4, 52, 95
4, 272880, Note_on_c, 4, 47, 95
4, 272880, Note_on_c, 4, 40, 95
4, 273120, Note_off_c, 4, 64, 95
4, 273120, Note_off_c, 4, 59, 95
4, 273120, Note_off_c, 4, 55, 95
4, 273120, Note_off_c, 4, 52, 95
4, 273120, Note_off_c, 4, 47, 95
4, 273120, Note_off_c, 4, 40, 95
4, 273120, Note_on_c, 4, 64, 95
4, 273120, Note_on_c, 4, 59, 95
4, 273120, Note_on_c, 4, 55, 95
4, 273120, Note_on_c, 4, 52, 95
4, 273120, Note_on_c, 4, 47, 95
4, 273120, Note_on_c, 4, 40, 95
4, 273360, Note_off_c, 4, 64, 95
4, 273360, Note_off_c, 4, 59, 95
4, 273360, Note_off_c, 4, 55, 95
4, 273360, Note_off_c, 4, 52, 95
4, 273360, Note_off_c, 4, 47, 95
4, 273360, Note_off_c, 4, 40, 95
4, 273360, Note_on_c, 4, 64, 95
4, 273360, Note_on_c, 4, 59, 95
4, 273360, Note_on_c, 4, 55, 95
4, 273360, Note_on_c, 4, 52, 95
4, 273360, Note_on_c, 4, 47, 95
4, 273360, Note_on_c, 4, 40, 95
4, 273600, Note_off_c, 4, 64, 95
4, 273600, Note_off_c, 4, 59, 95
4, 273600, Note_off_c, 4, 55, 95
4, 273600, Note_off_c, 4, 52, 95
4, 273600, Note_off_c, 4, 47, 95
4, 273600, Note_off_c, 4, 40, 95
4, 273600, Note_on_c, 4, 64, 95
4, 273600, Note_on_c, 4, 59, 95
4, 273600, Note_on_c, 4, 55, 95
4, 273600, Note_on_c, 4, 52, 95
4, 273600, Note_on_c, 4, 47, 95
4, 273600, Note_on_c, 4, 40, 95
4, 274080, Note_off_c, 4, 64, 95
4, 274080, Note_off_c, 4, 59, 95
4, 274080, Note_off_c, 4, 55, 95
4, 274080, Note_off_c, 4, 52, 95
4, 274080, Note_off_c, 4, 47, 95
4, 274080, Note_off_c, 4, 40, 95
4, 274080, Note_on_c, 4, 64, 95
4, 274080, Note_on_c, 4, 59, 95
4, 274080, Note_on_c, 4, 55, 95
4, 274080, Note_on_c, 4, 52, 95
4, 274080, Note_on_c, 4, 47, 95
4, 274080, Note_on_c, 4, 40, 95
4, 274320, Note_off_c, 4, 64, 95
4, 274320, Note_off_c, 4, 59, 95
4, 274320, Note_off_c, 4, 55, 95
4, 274320, Note_off_c, 4, 52, 95
4, 274320, Note_off_c, 4, 47, 95
4, 274320, Note_off_c, 4, 40, 95
4, 274320, Note_on_c, 4, 64, 95
4, 274320, Note_on_c, 4, 59, 95
4, 274320, Note_on_c, 4, 55, 95
4, 274320, Note_on_c, 4, 52, 95
4, 274320, Note_on_c, 4, 47, 95
4, 274320, Note_on_c, 4, 40, 95
4, 274560, Note_off_c, 4, 64, 95
4, 274560, Note_off_c, 4, 59, 95
4, 274560, Note_off_c, 4, 55, 95
4, 274560, Note_off_c, 4, 52, 95
4, 274560, Note_off_c, 4, 47, 95
4, 274560, Note_off_c, 4, 40, 95
4, 274560, Note_on_c, 4, 64, 95
4, 274560, Note_on_c, 4, 59, 95
4, 274560, Note_on_c, 4, 55, 95
4, 274560, Note_on_c, 4, 52, 95
4, 274560, Note_on_c, 4, 47, 95
4, 274560, Note_on_c, 4, 40, 95
4, 274800, Note_off_c, 4, 64, 95
4, 274800, Note_off_c, 4, 59, 95
4, 274800, Note_off_c, 4, 55, 95
4, 274800, Note_off_c, 4, 52, 95
4, 274800, Note_off_c, 4, 47, 95
4, 274800, Note_off_c, 4, 40, 95
4, 274800, Note_on_c, 4, 64, 95
4, 274800, Note_on_c, 4, 59, 95
4, 274800, Note_on_c, 4, 55, 95
4, 274800, Note_on_c, 4, 52, 95
4, 274800, Note_on_c, 4, 47, 95
4, 274800, Note_on_c, 4, 40, 95
4, 275040, Note_off_c, 4, 64, 95
4, 275040, Note_off_c, 4, 59, 95
4, 275040, Note_off_c, 4, 55, 95
4, 275040, Note_off_c, 4, 52, 95
4, 275040, Note_off_c, 4, 47, 95
4, 275040, Note_off_c, 4, 40, 95
4, 275040, Note_on_c, 4, 64, 95
4, 275040, Note_on_c, 4, 59, 95
4, 275040, Note_on_c, 4, 55, 95
4, 275040, Note_on_c, 4, 52, 95
4, 275040, Note_on_c, 4, 47, 95
4, 275040, Note_on_c, 4, 40, 95
4, 275520, Note_off_c, 4, 64, 95
4, 275520, Note_off_c, 4, 59, 95
4, 275520, Note_off_c, 4, 55, 95
4, 275520, Note_off_c, 4, 52, 95
4, 275520, Note_off_c, 4, 47, 95
4, 275520, Note_off_c, 4, 40, 95
4, 275520, Note_on_c, 4, 64, 111
4, 275520, Note_on_c, 4, 59, 111
4, 275520, Note_on_c, 4, 55, 111
4, 275520, Note_on_c, 4, 52, 111
4, 275520, Note_on_c, 4, 47, 111
4, 275520, Note_on_c, 4, 40, 111
4, 275760, Note_off_c, 4, 64, 111
4, 275760, Note_off_c, 4, 59, 111
4, 275760, Note_off_c, 4, 55, 111
4, 275760, Note_off_c, 4, 52, 111
4, 275760, Note_off_c, 4, 47, 111
4, 275760, Note_off_c, 4, 40, 111
4, 275760, Note_on_c, 4, 64, 95
4, 275760, Note_on_c, 4, 59, 95
4, 275760, Note_on_c, 4, 55, 95
4, 275760, Note_on_c, 4, 52, 95
4, 275760, Note_on_c, 4, 47, 95
4, 275760, Note_on_c, 4, 40, 95
4, 276000, Note_off_c, 4, 64, 95
4, 276000, Note_off_c, 4, 59, 95
4, 276000, Note_off_c, 4, 55, 95
4, 276000, Note_off_c, 4, 52, 95
4, 276000, Note_off_c, 4, 47, 95
4, 276000, Note_off_c, 4, 40, 95
4, 276000, Note_on_c, 4, 64, 95
4, 276000, Note_on_c, 4, 59, 95
4, 276000, Note_on_c, 4, 55, 95
4, 276000, Note_on_c, 4, 52, 95
4, 276000, Note_on_c, 4, 47, 95
4, 276000, Note_on_c, 4, 40, 95
4, 276240, Note_off_c, 4, 64, 95
4, 276240, Note_off_c, 4, 59, 95
4, 276240, Note_off_c, 4, 55, 95
4, 276240, Note_off_c, 4, 52, 95
4, 276240, Note_off_c, 4, 47, 95
4, 276240, Note_off_c, 4, 40, 95
4, 276240, Note_on_c, 4, 64, 95
4, 276240, Note_on_c, 4, 59, 95
4, 276240, Note_on_c, 4, 55, 95
4, 276240, Note_on_c, 4, 52, 95
4, 276240, Note_on_c, 4, 47, 95
4, 276240, Note_on_c, 4, 40, 95
4, 276480, Note_off_c, 4, 64, 95
4, 276480, Note_off_c, 4, 59, 95
4, 276480, Note_off_c, 4, 55, 95
4, 276480, Note_off_c, 4, 52, 95
4, 276480, Note_off_c, 4, 47, 95
4, 276480, Note_off_c, 4, 40, 95
4, 276480, Note_on_c, 4, 64, 95
4, 276480, Note_on_c, 4, 59, 95
4, 276480, Note_on_c, 4, 55, 95
4, 276480, Note_on_c, 4, 52, 95
4, 276480, Note_on_c, 4, 47, 95
4, 276480, Note_on_c, 4, 40, 95
4, 276960, Note_off_c, 4, 64, 95
4, 276960, Note_off_c, 4, 59, 95
4, 276960, Note_off_c, 4, 55, 95
4, 276960, Note_off_c, 4, 52, 95
4, 276960, Note_off_c, 4, 47, 95
4, 276960, Note_off_c, 4, 40, 95
4, 276960, Note_on_c, 4, 64, 95
4, 276960, Note_on_c, 4, 59, 95
4, 276960, Note_on_c, 4, 55, 95
4, 276960, Note_on_c, 4, 52, 95
4, 276960, Note_on_c, 4, 47, 95
4, 276960, Note_on_c, 4, 40, 95
4, 277200, Note_off_c, 4, 64, 95
4, 277200, Note_off_c, 4, 59, 95
4, 277200, Note_off_c, 4, 55, 95
4, 277200, Note_off_c, 4, 52, 95
4, 277200, Note_off_c, 4, 47, 95
4, 277200, Note_off_c, 4, 40, 95
4, 277200, Note_on_c, 4, 64, 95
4, 277200, Note_on_c, 4, 59, 95
4, 277200, Note_on_c, 4, 55, 95
4, 277200, Note_on_c, 4, 52, 95
4, 277200, Note_on_c, 4, 47, 95
4, 277200, Note_on_c, 4, 40, 95
4, 277440, Note_off_c, 4, 64, 95
4, 277440, Note_off_c, 4, 59, 95
4, 277440, Note_off_c, 4, 55, 95
4, 277440, Note_off_c, 4, 52, 95
4, 277440, Note_off_c, 4, 47, 95
4, 277440, Note_off_c, 4, 40, 95
4, 277440, Note_on_c, 4, 64, 95
4, 277440, Note_on_c, 4, 59, 95
4, 277440, Note_on_c, 4, 55, 95
4, 277440, Note_on_c, 4, 52, 95
4, 277440, Note_on_c, 4, 47, 95
4, 277440, Note_on_c, 4, 40, 95
4, 277680, Note_off_c, 4, 64, 95
4, 277680, Note_off_c, 4, 59, 95
4, 277680, Note_off_c, 4, 55, 95
4, 277680, Note_off_c, 4, 52, 95
4, 277680, Note_off_c, 4, 47, 95
4, 277680, Note_off_c, 4, 40, 95
4, 277680, Note_on_c, 4, 64, 95
4, 277680, Note_on_c, 4, 59, 95
4, 277680, Note_on_c, 4, 55, 95
4, 277680, Note_on_c, 4, 52, 95
4, 277680, Note_on_c, 4, 47, 95
4, 277680, Note_on_c, 4, 40, 95
4, 277920, Note_off_c, 4, 64, 95
4, 277920, Note_off_c, 4, 59, 95
4, 277920, Note_off_c, 4, 55, 95
4, 277920, Note_off_c, 4, 52, 95
4, 277920, Note_off_c, 4, 47, 95
4, 277920, Note_off_c, 4, 40, 95
4, 277920, Note_on_c, 4, 64, 95
4, 277920, Note_on_c, 4, 59, 95
4, 277920, Note_on_c, 4, 55, 95
4, 277920, Note_on_c, 4, 52, 95
4, 277920, Note_on_c, 4, 47, 95
4, 277920, Note_on_c, 4, 40, 95
4, 278400, Note_off_c, 4, 64, 95
4, 278400, Note_off_c, 4, 59, 95
4, 278400, Note_off_c, 4, 55, 95
4, 278400, Note_off_c, 4, 52, 95
4, 278400, Note_off_c, 4, 47, 95
4, 278400, Note_off_c, 4, 40, 95
4, 278400, Note_on_c, 4, 64, 111
4, 278400, Note_on_c, 4, 59, 111
4, 278400, Note_on_c, 4, 55, 111
4, 278400, Note_on_c, 4, 52, 111
4, 278400, Note_on_c, 4, 47, 111
4, 278400, Note_on_c, 4, 40, 111
4, 278640, Note_off_c, 4, 64, 111
4, 278640, Note_off_c, 4, 59, 111
4, 278640, Note_off_c, 4, 55, 111
4, 278640, Note_off_c, 4, 52, 111
4, 278640, Note_off_c, 4, 47, 111
4, 278640, Note_off_c, 4, 40, 111
4, 278640, Note_on_c, 4, 64, 95
4, 278640, Note_on_c, 4, 59, 95
4, 278640, Note_on_c, 4, 55, 95
4, 278640, Note_on_c, 4, 52, 95
4, 278640, Note_on_c, 4, 47, 95
4, 278640, Note_on_c, 4, 40, 95
4, 278880, Note_off_c, 4, 64, 95
4, 278880, Note_off_c, 4, 59, 95
4, 278880, Note_off_c, 4, 55, 95
4, 278880, Note_off_c, 4, 52, 95
4, 278880, Note_off_c, 4, 47, 95
4, 278880, Note_off_c, 4, 40, 95
4, 278880, Note_on_c, 4, 64, 95
4, 278880, Note_on_c, 4, 59, 95
4, 278880, Note_on_c, 4, 55, 95
4, 278880, Note_on_c, 4, 52, 95
4, 278880, Note_on_c, 4, 47, 95
4, 278880, Note_on_c, 4, 40, 95
4, 279120, Note_off_c, 4, 64, 95
4, 279120, Note_off_c, 4, 59, 95
4, 279120, Note_off_c, 4, 55, 95
4, 279120, Note_off_c, 4, 52, 95
4, 279120, Note_off_c, 4, 47, 95
4, 279120, Note_off_c, 4, 40, 95
4, 279120, Note_on_c, 4, 64, 95
4, 279120, Note_on_c, 4, 59, 95
4, 279120, Note_on_c, 4, 55, 95
4, 279120, Note_on_c, 4, 52, 95
4, 279120, Note_on_c, 4, 47, 95
4, 279120, Note_on_c, 4, 40, 95
4, 279360, Note_off_c, 4, 64, 95
4, 279360, Note_off_c, 4, 59, 95
4, 279360, Note_off_c, 4, 55, 95
4, 279360, Note_off_c, 4, 52, 95
4, 279360, Note_off_c, 4, 47, 95
4, 279360, Note_off_c, 4, 40, 95
4, 279360, Note_on_c, 4, 64, 95
4, 279360, Note_on_c, 4, 59, 95
4, 279360, Note_on_c, 4, 55, 95
4, 279360, Note_on_c, 4, 52, 95
4, 279360, Note_on_c, 4, 47, 95
4, 279360, Note_on_c, 4, 40, 95
4, 279840, Note_off_c, 4, 64, 95
4, 279840, Note_off_c, 4, 59, 95
4, 279840, Note_off_c, 4, 55, 95
4, 279840, Note_off_c, 4, 52, 95
4, 279840, Note_off_c, 4, 47, 95
4, 279840, Note_off_c, 4, 40, 95
4, 279840, Note_on_c, 4, 64, 95
4, 279840, Note_on_c, 4, 59, 95
4, 279840, Note_on_c, 4, 55, 95
4, 279840, Note_on_c, 4, 52, 95
4, 279840, Note_on_c, 4, 47, 95
4, 279840, Note_on_c, 4, 40, 95
4, 280080, Note_off_c, 4, 64, 95
4, 280080, Note_off_c, 4, 59, 95
4, 280080, Note_off_c, 4, 55, 95
4, 280080, Note_off_c, 4, 52, 95
4, 280080, Note_off_c, 4, 47, 95
4, 280080, Note_off_c, 4, 40, 95
4, 280080, Note_on_c, 4, 64, 95
4, 280080, Note_on_c, 4, 59, 95
4, 280080, Note_on_c, 4, 55, 95
4, 280080, Note_on_c, 4, 52, 95
4, 280080, Note_on_c, 4, 47, 95
4, 280080, Note_on_c, 4, 40, 95
4, 280320, Note_off_c, 4, 64, 95
4, 280320, Note_off_c, 4, 59, 95
4, 280320, Note_off_c, 4, 55, 95
4, 280320, Note_off_c, 4, 52, 95
4, 280320, Note_off_c, 4, 47, 95
4, 280320, Note_off_c, 4, 40, 95
4, 280320, Note_on_c, 4, 64, 95
4, 280320, Note_on_c, 4, 59, 95
4, 280320, Note_on_c, 4, 55, 95
4, 280320, Note_on_c, 4, 52, 95
4, 280320, Note_on_c, 4, 47, 95
4, 280320, Note_on_c, 4, 40, 95
4, 280560, Note_off_c, 4, 64, 95
4, 280560, Note_off_c, 4, 59, 95
4, 280560, Note_off_c, 4, 55, 95
4, 280560, Note_off_c, 4, 52, 95
4, 280560, Note_off_c, 4, 47, 95
4, 280560, Note_off_c, 4, 40, 95
4, 280560, Note_on_c, 4, 64, 95
4, 280560, Note_on_c, 4, 59, 95
4, 280560, Note_on_c, 4, 55, 95
4, 280560, Note_on_c, 4, 52, 95
4, 280560, Note_on_c, 4, 47, 95
4, 280560, Note_on_c, 4, 40, 95
4, 280800, Note_off_c, 4, 64, 95
4, 280800, Note_off_c, 4, 59, 95
4, 280800, Note_off_c, 4, 55, 95
4, 280800, Note_off_c, 4, 52, 95
4, 280800, Note_off_c, 4, 47, 95
4, 280800, Note_off_c, 4, 40, 95
4, 280800, Note_on_c, 4, 64, 95
4, 280800, Note_on_c, 4, 59, 95
4, 280800, Note_on_c, 4, 55, 95
4, 280800, Note_on_c, 4, 52, 95
4, 280800, Note_on_c, 4, 47, 95
4, 280800, Note_on_c, 4, 40, 95
4, 281280, Note_off_c, 4, 64, 95
4, 281280, Note_off_c, 4, 59, 95
4, 281280, Note_off_c, 4, 55, 95
4, 281280, Note_off_c, 4, 52, 95
4, 281280, Note_off_c, 4, 47, 95
4, 281280, Note_off_c, 4, 40, 95
4, 281280, Note_on_c, 4, 64, 111
4, 281280, Note_on_c, 4, 59, 111
4, 281280, Note_on_c, 4, 55, 111
4, 281280, Note_on_c, 4, 52, 111
4, 281280, Note_on_c, 4, 47, 111
4, 281280, Note_on_c, 4, 40, 111
4, 281520, Note_off_c, 4, 64, 111
4, 281520, Note_off_c, 4, 59, 111
4, 281520, Note_off_c, 4, 55, 111
4, 281520, Note_off_c, 4, 52, 111
4, 281520, Note_off_c, 4, 47, 111
4, 281520, Note_off_c, 4, 40, 111
4, 281520, Note_on_c, 4, 64, 95
4, 281520, Note_on_c, 4, 59, 95
4, 281520, Note_on_c, 4, 55, 95
4, 281520, Note_on_c, 4, 52, 95
4, 281520, Note_on_c, 4, 47, 95
4, 281520, Note_on_c, 4, 40, 95
4, 281760, Note_off_c, 4, 64, 95
4, 281760, Note_off_c, 4, 59, 95
4, 281760, Note_off_c, 4, 55, 95
4, 281760, Note_off_c, 4, 52, 95
4, 281760, Note_off_c, 4, 47, 95
4, 281760, Note_off_c, 4, 40, 95
4, 281760, Note_on_c, 4, 64, 95
4, 281760, Note_on_c, 4, 59, 95
4, 281760, Note_on_c, 4, 55, 95
4, 281760, Note_on_c, 4, 52, 95
4, 281760, Note_on_c, 4, 47, 95
4, 281760, Note_on_c, 4, 40, 95
4, 282000, Note_off_c, 4, 64, 95
4, 282000, Note_off_c, 4, 59, 95
4, 282000, Note_off_c, 4, 55, 95
4, 282000, Note_off_c, 4, 52, 95
4, 282000, Note_off_c, 4, 47, 95
4, 282000, Note_off_c, 4, 40, 95
4, 282000, Note_on_c, 4, 64, 95
4, 282000, Note_on_c, 4, 59, 95
4, 282000, Note_on_c, 4, 55, 95
4, 282000, Note_on_c, 4, 52, 95
4, 282000, Note_on_c, 4, 47, 95
4, 282000, Note_on_c, 4, 40, 95
4, 282240, Note_off_c, 4, 64, 95
4, 282240, Note_off_c, 4, 59, 95
4, 282240, Note_off_c, 4, 55, 95
4, 282240, Note_off_c, 4, 52, 95
4, 282240, Note_off_c, 4, 47, 95
4, 282240, Note_off_c, 4, 40, 95
4, 282240, Note_on_c, 4, 55, 95
4, 282240, Note_on_c, 4, 51, 95
4, 282240, Note_on_c, 4, 46, 95
4, 282240, Note_on_c, 4, 39, 95
4, 282720, Note_off_c, 4, 55, 95
4, 282720, Note_off_c, 4, 51, 95
4, 282720, Note_off_c, 4, 46, 95
4, 282720, Note_off_c, 4, 39, 95
4, 282720, Note_on_c, 4, 55, 95
4, 282720, Note_on_c, 4, 51, 95
4, 282720, Note_on_c, 4, 46, 95
4, 282720, Note_on_c, 4, 39, 95
4, 282960, Note_off_c, 4, 55, 95
4, 282960, Note_off_c, 4, 51, 95
4, 282960, Note_off_c, 4, 46, 95
4, 282960, Note_off_c, 4, 39, 95
4, 282960, Note_on_c, 4, 55, 95
4, 282960, Note_on_c, 4, 51, 95
4, 282960, Note_on_c, 4, 46, 95
4, 282960, Note_on_c, 4, 39, 95
4, 283440, Note_off_c, 4, 55, 95
4, 283440, Note_off_c, 4, 51, 95
4, 283440, Note_off_c, 4, 46, 95
4, 283440, Note_off_c, 4, 39, 95
4, 283440, Note_on_c, 4, 55, 95
4, 283440, Note_on_c, 4, 51, 95
4, 283440, Note_on_c, 4, 46, 95
4, 283440, Note_on_c, 4, 39, 95
4, 283680, Note_off_c, 4, 55, 95
4, 283680, Note_off_c, 4, 51, 95
4, 283680, Note_off_c, 4, 46, 95
4, 283680, Note_off_c, 4, 39, 95
4, 283680, Note_on_c, 4, 64, 95
4, 283680, Note_on_c, 4, 59, 95
4, 283680, Note_on_c, 4, 55, 95
4, 283680, Note_on_c, 4, 51, 95
4, 283680, Note_on_c, 4, 46, 95
4, 283680, Note_on_c, 4, 39, 95
4, 284160, Note_off_c, 4, 64, 95
4, 284160, Note_off_c, 4, 59, 95
4, 284160, Note_off_c, 4, 55, 95
4, 284160, Note_off_c, 4, 51, 95
4, 284160, Note_off_c, 4, 46, 95
4, 284160, Note_off_c, 4, 39, 95
4, 284160, Note_on_c, 4, 55, 95
4, 284160, Note_on_c, 4, 51, 95
4, 284160, Note_on_c, 4, 46, 95
4, 284160, Note_on_c, 4, 39, 95
4, 284640, Note_off_c, 4, 55, 95
4, 284640, Note_off_c, 4, 51, 95
4, 284640, Note_off_c, 4, 46, 95
4, 284640, Note_off_c, 4, 39, 95
4, 284640, Note_on_c, 4, 55, 95
4, 284640, Note_on_c, 4, 51, 95
4, 284640, Note_on_c, 4, 46, 95
4, 284640, Note_on_c, 4, 39, 95
4, 284880, Note_off_c, 4, 55, 95
4, 284880, Note_off_c, 4, 51, 95
4, 284880, Note_off_c, 4, 46, 95
4, 284880, Note_off_c, 4, 39, 95
4, 284880, Note_on_c, 4, 55, 95
4, 284880, Note_on_c, 4, 51, 95
4, 284880, Note_on_c, 4, 46, 95
4, 284880, Note_on_c, 4, 39, 95
4, 285120, Note_off_c, 4, 55, 95
4, 285120, Note_off_c, 4, 51, 95
4, 285120, Note_off_c, 4, 46, 95
4, 285120, Note_off_c, 4, 39, 95
4, 285120, Note_on_c, 4, 55, 95
4, 285120, Note_on_c, 4, 53, 95
4, 285120, Note_on_c, 4, 48, 95
4, 285120, Note_on_c, 4, 41, 95
4, 285600, Note_off_c, 4, 55, 95
4, 285600, Note_off_c, 4, 53, 95
4, 285600, Note_off_c, 4, 48, 95
4, 285600, Note_off_c, 4, 41, 95
4, 285600, Note_on_c, 4, 55, 95
4, 285600, Note_on_c, 4, 53, 95
4, 285600, Note_on_c, 4, 48, 95
4, 285600, Note_on_c, 4, 41, 95
4, 285840, Note_off_c, 4, 55, 95
4, 285840, Note_off_c, 4, 53, 95
4, 285840, Note_off_c, 4, 48, 95
4, 285840, Note_off_c, 4, 41, 95
4, 285840, Note_on_c, 4, 55, 95
4, 285840, Note_on_c, 4, 53, 95
4, 285840, Note_on_c, 4, 48, 95
4, 285840, Note_on_c, 4, 41, 95
4, 286320, Note_off_c, 4, 55, 95
4, 286320, Note_off_c, 4, 53, 95
4, 286320, Note_off_c, 4, 48, 95
4, 286320, Note_off_c, 4, 41, 95
4, 286320, Note_on_c, 4, 55, 95
4, 286320, Note_on_c, 4, 53, 95
4, 286320, Note_on_c, 4, 48, 95
4, 286320, Note_on_c, 4, 41, 95
4, 286560, Note_off_c, 4, 55, 95
4, 286560, Note_off_c, 4, 53, 95
4, 286560, Note_off_c, 4, 48, 95
4, 286560, Note_off_c, 4, 41, 95
4, 286560, Note_on_c, 4, 64, 95
4, 286560, Note_on_c, 4, 59, 95
4, 286560, Note_on_c, 4, 55, 95
4, 286560, Note_on_c, 4, 53, 95
4, 286560, Note_on_c, 4, 48, 95
4, 286560, Note_on_c, 4, 41, 95
4, 287040, Note_off_c, 4, 64, 95
4, 287040, Note_off_c, 4, 59, 95
4, 287040, Note_off_c, 4, 55, 95
4, 287040, Note_off_c, 4, 53, 95
4, 287040, Note_off_c, 4, 48, 95
4, 287040, Note_off_c, 4, 41, 95
4, 287040, Note_on_c, 4, 55, 95
4, 287040, Note_on_c, 4, 53, 95
4, 287040, Note_on_c, 4, 48, 95
4, 287040, Note_on_c, 4, 41, 95
4, 287520, Note_off_c, 4, 55, 95
4, 287520, Note_off_c, 4, 53, 95
4, 287520, Note_off_c, 4, 48, 95
4, 287520, Note_off_c, 4, 41, 95
4, 287520, Note_on_c, 4, 55, 95
4, 287520, Note_on_c, 4, 53, 95
4, 287520, Note_on_c, 4, 48, 95
4, 287520, Note_on_c, 4, 41, 95
4, 287760, Note_off_c, 4, 55, 95
4, 287760, Note_off_c, 4, 53, 95
4, 287760, Note_off_c, 4, 48, 95
4, 287760, Note_off_c, 4, 41, 95
4, 287760, Note_on_c, 4, 55, 95
4, 287760, Note_on_c, 4, 53, 95
4, 287760, Note_on_c, 4, 48, 95
4, 287760, Note_on_c, 4, 41, 95
4, 288000, Note_off_c, 4, 55, 95
4, 288000, Note_off_c, 4, 53, 95
4, 288000, Note_off_c, 4, 48, 95
4, 288000, Note_off_c, 4, 41, 95
4, 288000, Note_on_c, 4, 55, 95
4, 288000, Note_on_c, 4, 55, 95
4, 288000, Note_on_c, 4, 50, 95
4, 288000, Note_on_c, 4, 43, 95
4, 288480, Note_off_c, 4, 55, 95
4, 288480, Note_off_c, 4, 55, 95
4, 288480, Note_off_c, 4, 50, 95
4, 288480, Note_off_c, 4, 43, 95
4, 288480, Note_on_c, 4, 55, 95
4, 288480, Note_on_c, 4, 55, 95
4, 288480, Note_on_c, 4, 50, 95
4, 288480, Note_on_c, 4, 43, 95
4, 288720, Note_off_c, 4, 55, 95
4, 288720, Note_off_c, 4, 55, 95
4, 288720, Note_off_c, 4, 50, 95
4, 288720, Note_off_c, 4, 43, 95
4, 288720, Note_on_c, 4, 55, 95
4, 288720, Note_on_c, 4, 55, 95
4, 288720, Note_on_c, 4, 50, 95
4, 288720, Note_on_c, 4, 43, 95
4, 289200, Note_off_c, 4, 55, 95
4, 289200, Note_off_c, 4, 55, 95
4, 289200, Note_off_c, 4, 50, 95
4, 289200, Note_off_c, 4, 43, 95
4, 289200, Note_on_c, 4, 55, 95
4, 289200, Note_on_c, 4, 55, 95
4, 289200, Note_on_c, 4, 50, 95
4, 289200, Note_on_c, 4, 43, 95
4, 289440, Note_off_c, 4, 55, 95
4, 289440, Note_off_c, 4, 55, 95
4, 289440, Note_off_c, 4, 50, 95
4, 289440, Note_off_c, 4, 43, 95
4, 289440, Note_on_c, 4, 64, 95
4, 289440, Note_on_c, 4, 59, 95
4, 289440, Note_on_c, 4, 55, 95
4, 289440, Note_on_c, 4, 55, 95
4, 289440, Note_on_c, 4, 50, 95
4, 289440, Note_on_c, 4, 43, 95
4, 289920, Note_off_c, 4, 64, 95
4, 289920, Note_off_c, 4, 59, 95
4, 289920, Note_off_c, 4, 55, 95
4, 289920, Note_off_c, 4, 55, 95
4, 289920, Note_off_c, 4, 50, 95
4, 289920, Note_off_c, 4, 43, 95
4, 289920, Note_on_c, 4, 55, 95
4, 289920, Note_on_c, 4, 55, 95
4, 289920, Note_on_c, 4, 50, 95
4, 289920, Note_on_c, 4, 43, 95
4, 290400, Note_off_c, 4, 55, 95
4, 290400, Note_off_c, 4, 55, 95
4, 290400, Note_off_c, 4, 50, 95
4, 290400, Note_off_c, 4, 43, 95
4, 290400, Note_on_c, 4, 55, 95
4, 290400, Note_on_c, 4, 55, 95
4, 290400, Note_on_c, 4, 50, 95
4, 290400, Note_on_c, 4, 43, 95
4, 290640, Note_off_c, 4, 55, 95
4, 290640, Note_off_c, 4, 55, 95
4, 290640, Note_off_c, 4, 50, 95
4, 290640, Note_off_c, 4, 43, 95
4, 290640, Note_on_c, 4, 55, 95
4, 290640, Note_on_c, 4, 55, 95
4, 290640, Note_on_c, 4, 50, 95
4, 290640, Note_on_c, 4, 43, 95
4, 290880, Note_off_c, 4, 55, 95
4, 290880, Note_off_c, 4, 55, 95
4, 290880, Note_off_c, 4, 50, 95
4, 290880, Note_off_c, 4, 43, 95
4, 290880, Note_on_c, 4, 55, 95
4, 290880, Note_on_c, 4, 55, 95
4, 290880, Note_on_c, 4, 50, 95
4, 290880, Note_on_c, 4, 43, 95
4, 291360, Note_off_c, 4, 55, 95
4, 291360, Note_off_c, 4, 55, 95
4, 291360, Note_off_c, 4, 50, 95
4, 291360, Note_off_c, 4, 43, 95
4, 291360, Note_on_c, 4, 55, 95
4, 291360, Note_on_c, 4, 55, 95
4, 291360, Note_on_c, 4, 50, 95
4, 291360, Note_on_c, 4, 43, 95
4, 291600, Note_off_c, 4, 55, 95
4, 291600, Note_off_c, 4, 55, 95
4, 291600, Note_off_c, 4, 50, 95
4, 291600, Note_off_c, 4, 43, 95
4, 291600, Note_on_c, 4, 55, 95
4, 291600, Note_on_c, 4, 55, 95
4, 291600, Note_on_c, 4, 50, 95
4, 291600, Note_on_c, 4, 43, 95
4, 292080, Note_off_c, 4, 55, 95
4, 292080, Note_off_c, 4, 55, 95
4, 292080, Note_off_c, 4, 50, 95
4, 292080, Note_off_c, 4, 43, 95
4, 292080, Note_on_c, 4, 55, 95
4, 292080, Note_on_c, 4, 55, 95
4, 292080, Note_on_c, 4, 50, 95
4, 292080, Note_on_c, 4, 43, 95
4, 292320, Note_off_c, 4, 55, 95
4, 292320, Note_off_c, 4, 55, 95
4, 292320, Note_off_c, 4, 50, 95
4, 292320, Note_off_c, 4, 43, 95
4, 292320, Note_on_c, 4, 64, 95
4, 292320, Note_on_c, 4, 59, 95
4, 292320, Note_on_c, 4, 55, 95
4, 292320, Note_on_c, 4, 55, 95
4, 292320, Note_on_c, 4, 50, 95
4, 292320, Note_on_c, 4, 43, 95
4, 293040, Note_off_c, 4, 64, 95
4, 293040, Note_off_c, 4, 59, 95
4, 293040, Note_off_c, 4, 55, 95
4, 293040, Note_off_c, 4, 55, 95
4, 293040, Note_off_c, 4, 50, 95
4, 293040, Note_off_c, 4, 43, 95
4, 293040, Note_on_c, 4, 55, 95
4, 293040, Note_on_c, 4, 55, 95
4, 293040, Note_on_c, 4, 50, 95
4, 293040, Note_on_c, 4, 43, 95
4, 293280, Note_off_c, 4, 55, 95
4, 293280, Note_off_c, 4, 55, 95
4, 293280, Note_off_c, 4, 50, 95
4, 293280, Note_off_c, 4, 43, 95
4, 293280, Note_on_c, 4, 55, 95
4, 293280, Note_on_c, 4, 55, 95
4, 293280, Note_on_c, 4, 50, 95
4, 293280, Note_on_c, 4, 43, 95
4, 293520, Note_off_c, 4, 55, 95
4, 293520, Note_off_c, 4, 55, 95
4, 293520, Note_off_c, 4, 50, 95
4, 293520, Note_off_c, 4, 43, 95
4, 293520, Note_on_c, 4, 55, 95
4, 293520, Note_on_c, 4, 55, 95
4, 293520, Note_on_c, 4, 50, 95
4, 293520, Note_on_c, 4, 43, 95
4, 293760, Note_off_c, 4, 55, 95
4, 293760, Note_off_c, 4, 55, 95
4, 293760, Note_off_c, 4, 50, 95
4, 293760, Note_off_c, 4, 43, 95
4, 293760, Note_on_c, 4, 55, 95
4, 293760, Note_on_c, 4, 54, 95
4, 293760, Note_on_c, 4, 49, 95
4, 293760, Note_on_c, 4, 42, 95
4, 294240, Note_off_c, 4, 55, 95
4, 294240, Note_off_c, 4, 54, 95
4, 294240, Note_off_c, 4, 49, 95
4, 294240, Note_off_c, 4, 42, 95
4, 294240, Note_on_c, 4, 55, 95
4, 294240, Note_on_c, 4, 54, 95
4, 294240, Note_on_c, 4, 49, 95
4, 294240, Note_on_c, 4, 42, 95
4, 294480, Note_off_c, 4, 55, 95
4, 294480, Note_off_c, 4, 54, 95
4, 294480, Note_off_c, 4, 49, 95
4, 294480, Note_off_c, 4, 42, 95
4, 294480, Note_on_c, 4, 55, 95
4, 294480, Note_on_c, 4, 54, 95
4, 294480, Note_on_c, 4, 49, 95
4, 294480, Note_on_c, 4, 42, 95
4, 294960, Note_off_c, 4, 55, 95
4, 294960, Note_off_c, 4, 54, 95
4, 294960, Note_off_c, 4, 49, 95
4, 294960, Note_off_c, 4, 42, 95
4, 294960, Note_on_c, 4, 55, 95
4, 294960, Note_on_c, 4, 54, 95
4, 294960, Note_on_c, 4, 49, 95
4, 294960, Note_on_c, 4, 42, 95
4, 295200, Note_off_c, 4, 55, 95
4, 295200, Note_off_c, 4, 54, 95
4, 295200, Note_off_c, 4, 49, 95
4, 295200, Note_off_c, 4, 42, 95
4, 295200, Note_on_c, 4, 64, 95
4, 295200, Note_on_c, 4, 59, 95
4, 295200, Note_on_c, 4, 55, 95
4, 295200, Note_on_c, 4, 54, 95
4, 295200, Note_on_c, 4, 49, 95
4, 295200, Note_on_c, 4, 42, 95
4, 295920, Note_off_c, 4, 64, 95
4, 295920, Note_off_c, 4, 59, 95
4, 295920, Note_off_c, 4, 55, 95
4, 295920, Note_off_c, 4, 54, 95
4, 295920, Note_off_c, 4, 49, 95
4, 295920, Note_off_c, 4, 42, 95
4, 295920, Note_on_c, 4, 55, 95
4, 295920, Note_on_c, 4, 54, 95
4, 295920, Note_on_c, 4, 49, 95
4, 295920, Note_on_c, 4, 42, 95
4, 296160, Note_off_c, 4, 55, 95
4, 296160, Note_off_c, 4, 54, 95
4, 296160, Note_off_c, 4, 49, 95
4, 296160, Note_off_c, 4, 42, 95
4, 296160, Note_on_c, 4, 55, 95
4, 296160, Note_on_c, 4, 54, 95
4, 296160, Note_on_c, 4, 49, 95
4, 296160, Note_on_c, 4, 42, 95
4, 296400, Note_off_c, 4, 55, 95
4, 296400, Note_off_c, 4, 54, 95
4, 296400, Note_off_c, 4, 49, 95
4, 296400, Note_off_c, 4, 42, 95
4, 296400, Note_on_c, 4, 55, 95
4, 296400, Note_on_c, 4, 54, 95
4, 296400, Note_on_c, 4, 49, 95
4, 296400, Note_on_c, 4, 42, 95
4, 296640, Note_off_c, 4, 55, 95
4, 296640, Note_off_c, 4, 54, 95
4, 296640, Note_off_c, 4, 49, 95
4, 296640, Note_off_c, 4, 42, 95
4, 296640, Note_on_c, 4, 55, 95
4, 296640, Note_on_c, 4, 53, 95
4, 296640, Note_on_c, 4, 48, 95
4, 296640, Note_on_c, 4, 41, 95
4, 297120, Note_off_c, 4, 55, 95
4, 297120, Note_off_c, 4, 53, 95
4, 297120, Note_off_c, 4, 48, 95
4, 297120, Note_off_c, 4, 41, 95
4, 297120, Note_on_c, 4, 55, 95
4, 297120, Note_on_c, 4, 53, 95
4, 297120, Note_on_c, 4, 48, 95
4, 297120, Note_on_c, 4, 41, 95
4, 297360, Note_off_c, 4, 55, 95
4, 297360, Note_off_c, 4, 53, 95
4, 297360, Note_off_c, 4, 48, 95
4, 297360, Note_off_c, 4, 41, 95
4, 297360, Note_on_c, 4, 55, 95
4, 297360, Note_on_c, 4, 53, 95
4, 297360, Note_on_c, 4, 48, 95
4, 297360, Note_on_c, 4, 41, 95
4, 297600, Note_off_c, 4, 55, 95
4, 297600, Note_off_c, 4, 53, 95
4, 297600, Note_off_c, 4, 48, 95
4, 297600, Note_off_c, 4, 41, 95
4, 297600, Note_on_c, 4, 55, 95
4, 297600, Note_on_c, 4, 53, 95
4, 297600, Note_on_c, 4, 48, 95
4, 297600, Note_on_c, 4, 41, 95
4, 297840, Note_off_c, 4, 55, 95
4, 297840, Note_off_c, 4, 53, 95
4, 297840, Note_off_c, 4, 48, 95
4, 297840, Note_off_c, 4, 41, 95
4, 297840, Note_on_c, 4, 55, 95
4, 297840, Note_on_c, 4, 53, 95
4, 297840, Note_on_c, 4, 48, 95
4, 297840, Note_on_c, 4, 41, 95
4, 298080, Note_off_c, 4, 55, 95
4, 298080, Note_off_c, 4, 53, 95
4, 298080, Note_off_c, 4, 48, 95
4, 298080, Note_off_c, 4, 41, 95
4, 298080, Note_on_c, 4, 55, 95
4, 298080, Note_on_c, 4, 52, 95
4, 298080, Note_on_c, 4, 47, 95
4, 298080, Note_on_c, 4, 40, 95
4, 298560, Note_off_c, 4, 55, 95
4, 298560, Note_off_c, 4, 52, 95
4, 298560, Note_off_c, 4, 47, 95
4, 298560, Note_off_c, 4, 40, 95
4, 298560, Note_on_c, 4, 55, 95
4, 298560, Note_on_c, 4, 52, 95
4, 298560, Note_on_c, 4, 47, 95
4, 298560, Note_on_c, 4, 40, 95
4, 298800, Note_off_c, 4, 55, 95
4, 298800, Note_off_c, 4, 52, 95
4, 298800, Note_off_c, 4, 47, 95
4, 298800, Note_off_c, 4, 40, 95
4, 298800, Note_on_c, 4, 55, 95
4, 298800, Note_on_c, 4, 52, 95
4, 298800, Note_on_c, 4, 47, 95
4, 298800, Note_on_c, 4, 40, 95
4, 299040, Note_off_c, 4, 55, 95
4, 299040, Note_off_c, 4, 52, 95
4, 299040, Note_off_c, 4, 47, 95
4, 299040, Note_off_c, 4, 40, 95
4, 299040, Note_on_c, 4, 55, 95
4, 299040, Note_on_c, 4, 52, 95
4, 299040, Note_on_c, 4, 47, 95
4, 299040, Note_on_c, 4, 40, 95
4, 299280, Note_off_c, 4, 55, 95
4, 299280, Note_off_c, 4, 52, 95
4, 299280, Note_off_c, 4, 47, 95
4, 299280, Note_off_c, 4, 40, 95
4, 299280, Note_on_c, 4, 55, 95
4, 299280, Note_on_c, 4, 52, 95
4, 299280, Note_on_c, 4, 47, 95
4, 299280, Note_on_c, 4, 40, 95
4, 299520, Note_off_c, 4, 55, 95
4, 299520, Note_off_c, 4, 52, 95
4, 299520, Note_off_c, 4, 47, 95
4, 299520, Note_off_c, 4, 40, 95
4, 299520, Note_on_c, 4, 55, 95
4, 299520, Note_on_c, 4, 52, 95
4, 299520, Note_on_c, 4, 47, 95
4, 299520, Note_on_c, 4, 40, 95
4, 300000, Note_off_c, 4, 55, 95
4, 300000, Note_off_c, 4, 52, 95
4, 300000, Note_off_c, 4, 47, 95
4, 300000, Note_off_c, 4, 40, 95
4, 300000, Note_on_c, 4, 55, 95
4, 300000, Note_on_c, 4, 52, 95
4, 300000, Note_on_c, 4, 47, 95
4, 300000, Note_on_c, 4, 40, 95
4, 300240, Note_off_c, 4, 55, 95
4, 300240, Note_off_c, 4, 52, 95
4, 300240, Note_off_c, 4, 47, 95
4, 300240, Note_off_c, 4, 40, 95
4, 300240, Note_on_c, 4, 55, 95
4, 300240, Note_on_c, 4, 52, 95
4, 300240, Note_on_c, 4, 47, 95
4, 300240, Note_on_c, 4, 40, 95
4, 300480, Note_off_c, 4, 55, 95
4, 300480, Note_off_c, 4, 52, 95
4, 300480, Note_off_c, 4, 47, 95
4, 300480, Note_off_c, 4, 40, 95
4, 300480, Note_on_c, 4, 55, 95
4, 300480, Note_on_c, 4, 52, 95
4, 300480, Note_on_c, 4, 47, 95
4, 300480, Note_on_c, 4, 40, 95
4, 300720, Note_off_c, 4, 55, 95
4, 300720, Note_off_c, 4, 52, 95
4, 300720, Note_off_c, 4, 47, 95
4, 300720, Note_off_c, 4, 40, 95
4, 300720, Note_on_c, 4, 55, 95
4, 300720, Note_on_c, 4, 52, 95
4, 300720, Note_on_c, 4, 47, 95
4, 300720, Note_on_c, 4, 40, 95
4, 300960, Note_off_c, 4, 55, 95
4, 300960, Note_off_c, 4, 52, 95
4, 300960, Note_off_c, 4, 47, 95
4, 300960, Note_off_c, 4, 40, 95
4, 300960, Note_on_c, 4, 64, 95
4, 300960, Note_on_c, 4, 59, 95
4, 300960, Note_on_c, 4, 55, 95
4, 300960, Note_on_c, 4, 52, 95
4, 300960, Note_on_c, 4, 47, 95
4, 300960, Note_on_c, 4, 40, 95
4, 301440, Note_off_c, 4, 64, 95
4, 301440, Note_off_c, 4, 59, 95
4, 301440, Note_off_c, 4, 55, 95
4, 301440, Note_off_c, 4, 52, 95
4, 301440, Note_off_c, 4, 47, 95
4, 301440, Note_off_c, 4, 40, 95
4, 301440, Note_on_c, 4, 55, 95
4, 301440, Note_on_c, 4, 52, 95
4, 301440, Note_on_c, 4, 47, 95
4, 301440, Note_on_c, 4, 40, 95
4, 301680, Note_off_c, 4, 55, 95
4, 301680, Note_off_c, 4, 52, 95
4, 301680, Note_off_c, 4, 47, 95
4, 301680, Note_off_c, 4, 40, 95
4, 301680, Note_on_c, 4, 55, 95
4, 301680, Note_on_c, 4, 52, 95
4, 301680, Note_on_c, 4, 47, 95
4, 301680, Note_on_c, 4, 40, 95
4, 301920, Note_off_c, 4, 55, 95
4, 301920, Note_off_c, 4, 52, 95
4, 301920, Note_off_c, 4, 47, 95
4, 301920, Note_off_c, 4, 40, 95
4, 301920, Note_on_c, 4, 55, 95
4, 301920, Note_on_c, 4, 52, 95
4, 301920, Note_on_c, 4, 47, 95
4, 301920, Note_on_c, 4, 40, 95
4, 302160, Note_off_c, 4, 55, 95
4, 302160, Note_off_c, 4, 52, 95
4, 302160, Note_off_c, 4, 47, 95
4, 302160, Note_off_c, 4, 40, 95
4, 302160, Note_on_c, 4, 55, 95
4, 302160, Note_on_c, 4, 52, 95
4, 302160, Note_on_c, 4, 47, 95
4, 302160, Note_on_c, 4, 40, 95
4, 302400, Note_off_c, 4, 55, 95
4, 302400, Note_off_c, 4, 52, 95
4, 302400, Note_off_c, 4, 47, 95
4, 302400, Note_off_c, 4, 40, 95
4, 302400, Note_on_c, 4, 55, 95
4, 302400, Note_on_c, 4, 52, 95
4, 302400, Note_on_c, 4, 47, 95
4, 302400, Note_on_c, 4, 40, 95
4, 302880, Note_off_c, 4, 55, 95
4, 302880, Note_off_c, 4, 52, 95
4, 302880, Note_off_c, 4, 47, 95
4, 302880, Note_off_c, 4, 40, 95
4, 302880, Note_on_c, 4, 55, 95
4, 302880, Note_on_c, 4, 52, 95
4, 302880, Note_on_c, 4, 47, 95
4, 302880, Note_on_c, 4, 40, 95
4, 303120, Note_off_c, 4, 55, 95
4, 303120, Note_off_c, 4, 52, 95
4, 303120, Note_off_c, 4, 47, 95
4, 303120, Note_off_c, 4, 40, 95
4, 303120, Note_on_c, 4, 55, 95
4, 303120, Note_on_c, 4, 55, 95
4, 303120, Note_on_c, 4, 50, 95
4, 303120, Note_on_c, 4, 43, 95
4, 303600, Note_off_c, 4, 55, 95
4, 303600, Note_off_c, 4, 55, 95
4, 303600, Note_off_c, 4, 50, 95
4, 303600, Note_off_c, 4, 43, 95
4, 303600, Note_on_c, 4, 55, 95
4, 303600, Note_on_c, 4, 55, 95
4, 303600, Note_on_c, 4, 50, 95
4, 303600, Note_on_c, 4, 43, 95
4, 303840, Note_off_c, 4, 55, 95
4, 303840, Note_off_c, 4, 55, 95
4, 303840, Note_off_c, 4, 50, 95
4, 303840, Note_off_c, 4, 43, 95
4, 303840, Note_on_c, 4, 55, 95
4, 303840, Note_on_c, 4, 57, 95
4, 303840, Note_on_c, 4, 52, 95
4, 303840, Note_on_c, 4, 45, 95
4, 304320, Note_off_c, 4, 55, 95
4, 304320, Note_off_c, 4, 57, 95
4, 304320, Note_off_c, 4, 52, 95
4, 304320, Note_off_c, 4, 45, 95
4, 304320, Note_on_c, 4, 55, 95
4, 304320, Note_on_c, 4, 57, 95
4, 304320, Note_on_c, 4, 52, 95
4, 304320, Note_on_c, 4, 45, 95
4, 304560, Note_off_c, 4, 55, 95
4, 304560, Note_off_c, 4, 57, 95
4, 304560, Note_off_c, 4, 52, 95
4, 304560, Note_off_c, 4, 45, 95
4, 304560, Note_on_c, 4, 55, 95
4, 304560, Note_on_c, 4, 59, 95
4, 304560, Note_on_c, 4, 54, 95
4, 304560, Note_on_c, 4, 47, 95
4, 305280, Note_off_c, 4, 55, 95
4, 305280, Note_off_c, 4, 59, 95
4, 305280, Note_off_c, 4, 54, 95
4, 305280, Note_off_c, 4, 47, 95
4, 305280, Note_on_c, 4, 59, 95
4, 305280, Note_on_c, 4, 55, 95
4, 305280, Note_on_c, 4, 52, 95
4, 305280, Note_on_c, 4, 47, 95
4, 305280, Note_on_c, 4, 40, 95
4, 305760, Note_off_c, 4, 59, 95
4, 305760, Note_off_c, 4, 55, 95
4, 305760, Note_off_c, 4, 52, 95
4, 305760, Note_off_c, 4, 47, 95
4, 305760, Note_off_c, 4, 40, 95
4, 305760, Note_on_c, 4, 59, 95
4, 305760, Note_on_c, 4, 55, 95
4, 305760, Note_on_c, 4, 52, 95
4, 306000, Note_off_c, 4, 59, 95
4, 306000, Note_off_c, 4, 55, 95
4, 306000, Note_off_c, 4, 52, 95
4, 306000, Note_on_c, 4, 59, 95
4, 306000, Note_on_c, 4, 55, 95
4, 306000, Note_on_c, 4, 52, 95
4, 306240, Note_off_c, 4, 59, 95
4, 306240, Note_off_c, 4, 55, 95
4, 306240, Note_off_c, 4, 52, 95
4, 306240, Note_on_c, 4, 59, 95
4, 306240, Note_on_c, 4, 55, 95
4, 306240, Note_on_c, 4, 52, 95
4, 306480, Note_off_c, 4, 59, 95
4, 306480, Note_off_c, 4, 55, 95
4, 306480, Note_off_c, 4, 52, 95
4, 306480, Note_on_c, 4, 59, 95
4, 306480, Note_on_c, 4, 55, 95
4, 306480, Note_on_c, 4, 52, 95
4, 306720, Note_off_c, 4, 59, 95
4, 306720, Note_off_c, 4, 55, 95
4, 306720, Note_off_c, 4, 52, 95
4, 306720, Note_on_c, 4, 63, 95
4, 306720, Note_on_c, 4, 57, 95
4, 306720, Note_on_c, 4, 54, 95
4, 306720, Note_on_c, 4, 42, 95
4, 307200, Note_off_c, 4, 63, 95
4, 307200, Note_off_c, 4, 57, 95
4, 307200, Note_off_c, 4, 54, 95
4, 307200, Note_off_c, 4, 42, 95
4, 307200, Note_on_c, 4, 63, 95
4, 307200, Note_on_c, 4, 57, 95
4, 307200, Note_on_c, 4, 54, 95
4, 307440, Note_off_c, 4, 63, 95
4, 307440, Note_off_c, 4, 57, 95
4, 307440, Note_off_c, 4, 54, 95
4, 307440, Note_on_c, 4, 63, 95
4, 307440, Note_on_c, 4, 57, 95
4, 307440, Note_on_c, 4, 54, 95
4, 307680, Note_off_c, 4, 63, 95
4, 307680, Note_off_c, 4, 57, 95
4, 307680, Note_off_c, 4, 54, 95
4, 307680, Note_on_c, 4, 63, 95
4, 307680, Note_on_c, 4, 57, 95
4, 307680, Note_on_c, 4, 54, 95
4, 307920, Note_off_c, 4, 63, 95
4, 307920, Note_off_c, 4, 57, 95
4, 307920, Note_off_c, 4, 54, 95
4, 307920, Note_on_c, 4, 63, 95
4, 307920, Note_on_c, 4, 57, 95
4, 307920, Note_on_c, 4, 54, 95
4, 308160, Note_off_c, 4, 63, 95
4, 308160, Note_off_c, 4, 57, 95
4, 308160, Note_off_c, 4, 54, 95
4, 308160, Note_on_c, 4, 64, 95
4, 308160, Note_on_c, 4, 59, 95
4, 308160, Note_on_c, 4, 55, 95
4, 308160, Note_on_c, 4, 43, 95
4, 308640, Note_off_c, 4, 64, 95
4, 308640, Note_off_c, 4, 59, 95
4, 308640, Note_off_c, 4, 55, 95
4, 308640, Note_off_c, 4, 43, 95
4, 308640, Note_on_c, 4, 64, 95
4, 308640, Note_on_c, 4, 59, 95
4, 308640, Note_on_c, 4, 55, 95
4, 308880, Note_off_c, 4, 64, 95
4, 308880, Note_off_c, 4, 59, 95
4, 308880, Note_off_c, 4, 55, 95
4, 308880, Note_on_c, 4, 64, 95
4, 308880, Note_on_c, 4, 59, 95
4, 308880, Note_on_c, 4, 55, 95
4, 309120, Note_off_c, 4, 64, 95
4, 309120, Note_off_c, 4, 59, 95
4, 309120, Note_off_c, 4, 55, 95
4, 309120, Note_on_c, 4, 64, 95
4, 309120, Note_on_c, 4, 59, 95
4, 309120, Note_on_c, 4, 55, 95
4, 309360, Note_off_c, 4, 64, 95
4, 309360, Note_off_c, 4, 59, 95
4, 309360, Note_off_c, 4, 55, 95
4, 309360, Note_on_c, 4, 64, 95
4, 309360, Note_on_c, 4, 59, 95
4, 309360, Note_on_c, 4, 55, 95
4, 309600, Note_off_c, 4, 64, 95
4, 309600, Note_off_c, 4, 59, 95
4, 309600, Note_off_c, 4, 55, 95
4, 309600, Note_on_c, 5, 64, 95
4, 309600, Note_on_c, 5, 59, 95
4, 309600, Note_on_c, 5, 55, 95
4, 309600, Note_on_c, 5, 43, 95
4, 309720, Pitch_bend_c, 5, 8832
4, 309720, Pitch_bend_c, 5, 8832
4, 309720, Pitch_bend_c, 5, 8832
4, 309720, Pitch_bend_c, 5, 8832
4, 309840, Pitch_bend_c, 5, 9600
4, 309840, Pitch_bend_c, 5, 8192
4, 309840, Note_off_c, 5, 64, 95
4, 309840, Pitch_bend_c, 5, 9600
4, 309840, Pitch_bend_c, 5, 8192
4, 309840, Note_off_c, 5, 59, 95
4, 309840, Pitch_bend_c, 5, 9600
4, 309840, Pitch_bend_c, 5, 8192
4, 309840, Note_off_c, 5, 55, 95
4, 309840, Pitch_bend_c, 5, 9600
4, 309840, Pitch_bend_c, 5, 8192
4, 309840, Note_off_c, 5, 43, 95
4, 309840, Note_on_c, 4, 66, 95
4, 309840, Note_on_c, 4, 61, 95
4, 309840, Note_on_c, 4, 57, 95
4, 309840, Note_on_c, 4, 45, 95
4, 310080, Note_off_c, 4, 66, 95
4, 310080, Note_off_c, 4, 61, 95
4, 310080, Note_off_c, 4, 57, 95
4, 310080, Note_off_c, 4, 45, 95
4, 310080, Note_on_c, 4, 66, 95
4, 310080, Note_on_c, 4, 61, 95
4, 310080, Note_on_c, 4, 57, 95
4, 310320, Note_off_c, 4, 66, 95
4, 310320, Note_off_c, 4, 61, 95
4, 310320, Note_off_c, 4, 57, 95
4, 310320, Note_on_c, 4, 66, 95
4, 310320, Note_on_c, 4, 61, 95
4, 310320, Note_on_c, 4, 57, 95
4, 310560, Note_off_c, 4, 66, 95
4, 310560, Note_off_c, 4, 61, 95
4, 310560, Note_off_c, 4, 57, 95
4, 310560, Note_on_c, 4, 66, 95
4, 310560, Note_on_c, 4, 61, 95
4, 310560, Note_on_c, 4, 57, 95
4, 310800, Note_off_c, 4, 66, 95
4, 310800, Note_off_c, 4, 61, 95
4, 310800, Note_off_c, 4, 57, 95
4, 310800, Note_on_c, 4, 66, 95
4, 310800, Note_on_c, 4, 61, 95
4, 310800, Note_on_c, 4, 57, 95
4, 311040, Note_off_c, 4, 66, 95
4, 311040, Note_off_c, 4, 61, 95
4, 311040, Note_off_c, 4, 57, 95
4, 311040, Note_on_c, 4, 66, 95
4, 311040, Note_on_c, 4, 62, 95
4, 311040, Note_on_c, 4, 57, 95
4, 311040, Note_on_c, 4, 47, 95
4, 311280, Note_off_c, 4, 66, 95
4, 311280, Note_off_c, 4, 62, 95
4, 311280, Note_off_c, 4, 57, 95
4, 311280, Note_off_c, 4, 47, 95
4, 311280, Note_on_c, 4, 59, 70
4, 311520, Note_off_c, 4, 59, 70
4, 311520, Note_on_c, 4, 47, 95
4, 311760, Note_off_c, 4, 47, 95
4, 311760, Note_on_c, 4, 64, 95
4, 311760, Note_on_c, 4, 59, 95
4, 311760, Note_on_c, 4, 62, 95
4, 311760, Note_on_c, 4, 59, 95
4, 312240, Note_off_c, 4, 64, 95
4, 312240, Note_off_c, 4, 59, 95
4, 312240, Note_off_c, 4, 62, 95
4, 312240, Note_off_c, 4, 59, 95
4, 312240, Note_on_c, 4, 64, 95
4, 312240, Note_on_c, 4, 59, 95
4, 312240, Note_on_c, 4, 62, 95
4, 312240, Note_on_c, 4, 59, 95
4, 312480, Note_off_c, 4, 64, 95
4, 312480, Note_off_c, 4, 59, 95
4, 312480, Note_off_c, 4, 62, 95
4, 312480, Note_off_c, 4, 59, 95
4, 312480, Note_on_c, 4, 64, 95
4, 312480, Note_on_c, 4, 59, 95
4, 312480, Note_on_c, 4, 62, 95
4, 312480, Note_on_c, 4, 59, 95
4, 312480, Note_on_c, 4, 47, 95
4, 312960, Note_off_c, 4, 64, 95
4, 312960, Note_off_c, 4, 59, 95
4, 312960, Note_off_c, 4, 62, 95
4, 312960, Note_off_c, 4, 59, 95
4, 312960, Note_off_c, 4, 47, 95
4, 312960, Note_on_c, 4, 64, 95
4, 312960, Note_on_c, 4, 59, 95
4, 312960, Note_on_c, 4, 62, 95
4, 312960, Note_on_c, 4, 59, 95
4, 313200, Note_off_c, 4, 64, 95
4, 313200, Note_off_c, 4, 59, 95
4, 313200, Note_off_c, 4, 62, 95
4, 313200, Note_off_c, 4, 59, 95
4, 313200, Note_on_c, 4, 64, 95
4, 313200, Note_on_c, 4, 59, 95
4, 313200, Note_on_c, 4, 62, 95
4, 313200, Note_on_c, 4, 59, 95
4, 313440, Note_off_c, 4, 64, 95
4, 313440, Note_off_c, 4, 59, 95
4, 313440, Note_off_c, 4, 62, 95
4, 313440, Note_off_c, 4, 59, 95
4, 313440, Note_on_c, 4, 64, 95
4, 313440, Note_on_c, 4, 59, 95
4, 313440, Note_on_c, 4, 62, 95
4, 313440, Note_on_c, 4, 59, 95
4, 313680, Note_off_c, 4, 64, 95
4, 313680, Note_off_c, 4, 59, 95
4, 313680, Note_off_c, 4, 62, 95
4, 313680, Note_off_c, 4, 59, 95
4, 313680, Note_on_c, 4, 64, 95
4, 313680, Note_on_c, 4, 59, 95
4, 313680, Note_on_c, 4, 62, 95
4, 313680, Note_on_c, 4, 59, 95
4, 313920, Note_off_c, 4, 64, 95
4, 313920, Note_off_c, 4, 59, 95
4, 313920, Note_off_c, 4, 62, 95
4, 313920, Note_off_c, 4, 59, 95
4, 313920, Note_on_c, 4, 64, 95
4, 313920, Note_on_c, 4, 59, 95
4, 313920, Note_on_c, 4, 61, 95
4, 313920, Note_on_c, 4, 57, 95
4, 313920, Note_on_c, 4, 45, 95
4, 314400, Note_off_c, 4, 64, 95
4, 314400, Note_off_c, 4, 59, 95
4, 314400, Note_off_c, 4, 61, 95
4, 314400, Note_off_c, 4, 57, 95
4, 314400, Note_off_c, 4, 45, 95
4, 314400, Note_on_c, 4, 64, 95
4, 314400, Note_on_c, 4, 59, 95
4, 314400, Note_on_c, 4, 61, 95
4, 314400, Note_on_c, 4, 57, 95
4, 314640, Note_off_c, 4, 64, 95
4, 314640, Note_off_c, 4, 59, 95
4, 314640, Note_off_c, 4, 61, 95
4, 314640, Note_off_c, 4, 57, 95
4, 314640, Note_on_c, 4, 64, 95
4, 314640, Note_on_c, 4, 59, 95
4, 314640, Note_on_c, 4, 61, 95
4, 314640, Note_on_c, 4, 57, 95
4, 314880, Note_off_c, 4, 64, 95
4, 314880, Note_off_c, 4, 59, 95
4, 314880, Note_off_c, 4, 61, 95
4, 314880, Note_off_c, 4, 57, 95
4, 314880, Note_on_c, 4, 64, 95
4, 314880, Note_on_c, 4, 59, 95
4, 314880, Note_on_c, 4, 61, 95
4, 314880, Note_on_c, 4, 57, 95
4, 315120, Note_off_c, 4, 64, 95
4, 315120, Note_off_c, 4, 59, 95
4, 315120, Note_off_c, 4, 61, 95
4, 315120, Note_off_c, 4, 57, 95
4, 315120, Note_on_c, 4, 62, 95
4, 315120, Note_on_c, 4, 57, 95
4, 315360, Note_off_c, 4, 62, 95
4, 315360, Note_off_c, 4, 57, 95
4, 315360, Note_on_c, 4, 64, 95
4, 315360, Note_on_c, 4, 59, 95
4, 315360, Note_on_c, 4, 61, 95
4, 315360, Note_on_c, 4, 57, 95
4, 315360, Note_on_c, 4, 45, 95
4, 315840, Note_off_c, 4, 64, 95
4, 315840, Note_off_c, 4, 59, 95
4, 315840, Note_off_c, 4, 61, 95
4, 315840, Note_off_c, 4, 57, 95
4, 315840, Note_off_c, 4, 45, 95
4, 315840, Note_on_c, 4, 64, 95
4, 315840, Note_on_c, 4, 59, 95
4, 315840, Note_on_c, 4, 61, 95
4, 315840, Note_on_c, 4, 57, 95
4, 316080, Note_off_c, 4, 64, 95
4, 316080, Note_off_c, 4, 59, 95
4, 316080, Note_off_c, 4, 61, 95
4, 316080, Note_off_c, 4, 57, 95
4, 316080, Note_on_c, 4, 64, 95
4, 316080, Note_on_c, 4, 59, 95
4, 316080, Note_on_c, 4, 61, 95
4, 316080, Note_on_c, 4, 57, 95
4, 316320, Note_off_c, 4, 64, 95
4, 316320, Note_off_c, 4, 59, 95
4, 316320, Note_off_c, 4, 61, 95
4, 316320, Note_off_c, 4, 57, 95
4, 316320, Note_on_c, 4, 64, 95
4, 316320, Note_on_c, 4, 59, 95
4, 316320, Note_on_c, 4, 61, 95
4, 316320, Note_on_c, 4, 57, 95
4, 316560, Note_off_c, 4, 64, 95
4, 316560, Note_off_c, 4, 59, 95
4, 316560, Note_off_c, 4, 61, 95
4, 316560, Note_off_c, 4, 57, 95
4, 316560, Note_on_c, 4, 59, 95
4, 316560, Note_on_c, 4, 55, 95
4, 316560, Note_on_c, 4, 50, 95
4, 316800, Note_off_c, 4, 59, 95
4, 316800, Note_off_c, 4, 55, 95
4, 316800, Note_off_c, 4, 50, 95
4, 316800, Note_on_c, 4, 59, 95
4, 316800, Note_on_c, 4, 55, 95
4, 316800, Note_on_c, 4, 52, 95
4, 316800, Note_on_c, 4, 47, 95
4, 316800, Note_on_c, 4, 40, 95
4, 317280, Note_off_c, 4, 59, 95
4, 317280, Note_off_c, 4, 55, 95
4, 317280, Note_off_c, 4, 52, 95
4, 317280, Note_off_c, 4, 47, 95
4, 317280, Note_off_c, 4, 40, 95
4, 317280, Note_on_c, 4, 59, 95
4, 317280, Note_on_c, 4, 55, 95
4, 317280, Note_on_c, 4, 52, 95
4, 317520, Note_off_c, 4, 59, 95
4, 317520, Note_off_c, 4, 55, 95
4, 317520, Note_off_c, 4, 52, 95
4, 317520, Note_on_c, 4, 59, 95
4, 317520, Note_on_c, 4, 55, 95
4, 317520, Note_on_c, 4, 52, 95
4, 317760, Note_off_c, 4, 59, 95
4, 317760, Note_off_c, 4, 55, 95
4, 317760, Note_off_c, 4, 52, 95
4, 317760, Note_on_c, 4, 59, 95
4, 317760, Note_on_c, 4, 55, 95
4, 317760, Note_on_c, 4, 52, 95
4, 318000, Note_off_c, 4, 59, 95
4, 318000, Note_off_c, 4, 55, 95
4, 318000, Note_off_c, 4, 52, 95
4, 318000, Note_on_c, 4, 59, 95
4, 318000, Note_on_c, 4, 55, 95
4, 318000, Note_on_c, 4, 52, 95
4, 318240, Note_off_c, 4, 59, 95
4, 318240, Note_off_c, 4, 55, 95
4, 318240, Note_off_c, 4, 52, 95
4, 318240, Note_on_c, 4, 63, 95
4, 318240, Note_on_c, 4, 57, 95
4, 318240, Note_on_c, 4, 54, 95
4, 318240, Note_on_c, 4, 42, 95
4, 318720, Note_off_c, 4, 63, 95
4, 318720, Note_off_c, 4, 57, 95
4, 318720, Note_off_c, 4, 54, 95
4, 318720, Note_off_c, 4, 42, 95
4, 318720, Note_on_c, 4, 63, 95
4, 318720, Note_on_c, 4, 57, 95
4, 318720, Note_on_c, 4, 54, 95
4, 318960, Note_off_c, 4, 63, 95
4, 318960, Note_off_c, 4, 57, 95
4, 318960, Note_off_c, 4, 54, 95
4, 318960, Note_on_c, 4, 63, 95
4, 318960, Note_on_c, 4, 57, 95
4, 318960, Note_on_c, 4, 54, 95
4, 319200, Note_off_c, 4, 63, 95
4, 319200, Note_off_c, 4, 57, 95
4, 319200, Note_off_c, 4, 54, 95
4, 319200, Note_on_c, 4, 63, 95
4, 319200, Note_on_c, 4, 57, 95
4, 319200, Note_on_c, 4, 54, 95
4, 319440, Note_off_c, 4, 63, 95
4, 319440, Note_off_c, 4, 57, 95
4, 319440, Note_off_c, 4, 54, 95
4, 319440, Note_on_c, 4, 63, 95
4, 319440, Note_on_c, 4, 57, 95
4, 319440, Note_on_c, 4, 54, 95
4, 319680, Note_off_c, 4, 63, 95
4, 319680, Note_off_c, 4, 57, 95
4, 319680, Note_off_c, 4, 54, 95
4, 319680, Note_on_c, 4, 64, 95
4, 319680, Note_on_c, 4, 59, 95
4, 319680, Note_on_c, 4, 55, 95
4, 319680, Note_on_c, 4, 43, 95
4, 320160, Note_off_c, 4, 64, 95
4, 320160, Note_off_c, 4, 59, 95
4, 320160, Note_off_c, 4, 55, 95
4, 320160, Note_off_c, 4, 43, 95
4, 320160, Note_on_c, 4, 64, 95
4, 320160, Note_on_c, 4, 59, 95
4, 320160, Note_on_c, 4, 55, 95
4, 320400, Note_off_c, 4, 64, 95
4, 320400, Note_off_c, 4, 59, 95
4, 320400, Note_off_c, 4, 55, 95
4, 320400, Note_on_c, 4, 64, 95
4, 320400, Note_on_c, 4, 59, 95
4, 320400, Note_on_c, 4, 55, 95
4, 320640, Note_off_c, 4, 64, 95
4, 320640, Note_off_c, 4, 59, 95
4, 320640, Note_off_c, 4, 55, 95
4, 320640, Note_on_c, 4, 64, 95
4, 320640, Note_on_c, 4, 59, 95
4, 320640, Note_on_c, 4, 55, 95
4, 320880, Note_off_c, 4, 64, 95
4, 320880, Note_off_c, 4, 59, 95
4, 320880, Note_off_c, 4, 55, 95
4, 320880, Note_on_c, 4, 64, 95
4, 320880, Note_on_c, 4, 59, 95
4, 320880, Note_on_c, 4, 55, 95
4, 321120, Note_off_c, 4, 64, 95
4, 321120, Note_off_c, 4, 59, 95
4, 321120, Note_off_c, 4, 55, 95
4, 321120, Note_on_c, 5, 64, 95
4, 321120, Note_on_c, 5, 59, 95
4, 321120, Note_on_c, 5, 55, 95
4, 321120, Note_on_c, 5, 43, 95
4, 321240, Pitch_bend_c, 5, 8832
4, 321240, Pitch_bend_c, 5, 8832
4, 321240, Pitch_bend_c, 5, 8832
4, 321240, Pitch_bend_c, 5, 8832
4, 321360, Pitch_bend_c, 5, 9600
4, 321360, Pitch_bend_c, 5, 8192
4, 321360, Note_off_c, 5, 64, 95
4, 321360, Pitch_bend_c, 5, 9600
4, 321360, Pitch_bend_c, 5, 8192
4, 321360, Note_off_c, 5, 59, 95
4, 321360, Pitch_bend_c, 5, 9600
4, 321360, Pitch_bend_c, 5, 8192
4, 321360, Note_off_c, 5, 55, 95
4, 321360, Pitch_bend_c, 5, 9600
4, 321360, Pitch_bend_c, 5, 8192
4, 321360, Note_off_c, 5, 43, 95
4, 321360, Note_on_c, 4, 66, 95
4, 321360, Note_on_c, 4, 61, 95
4, 321360, Note_on_c, 4, 57, 95
4, 321360, Note_on_c, 4, 45, 95
4, 321600, Note_off_c, 4, 66, 95
4, 321600, Note_off_c, 4, 61, 95
4, 321600, Note_off_c, 4, 57, 95
4, 321600, Note_off_c, 4, 45, 95
4, 321600, Note_on_c, 4, 66, 95
4, 321600, Note_on_c, 4, 61, 95
4, 321600, Note_on_c, 4, 57, 95
4, 321840, Note_off_c, 4, 66, 95
4, 321840, Note_off_c, 4, 61, 95
4, 321840, Note_off_c, 4, 57, 95
4, 321840, Note_on_c, 4, 66, 95
4, 321840, Note_on_c, 4, 61, 95
4, 321840, Note_on_c, 4, 57, 95
4, 322080, Note_off_c, 4, 66, 95
4, 322080, Note_off_c, 4, 61, 95
4, 322080, Note_off_c, 4, 57, 95
4, 322080, Note_on_c, 4, 66, 95
4, 322080, Note_on_c, 4, 61, 95
4, 322080, Note_on_c, 4, 57, 95
4, 322320, Note_off_c, 4, 66, 95
4, 322320, Note_off_c, 4, 61, 95
4, 322320, Note_off_c, 4, 57, 95
4, 322320, Note_on_c, 4, 66, 95
4, 322320, Note_on_c, 4, 61, 95
4, 322320, Note_on_c, 4, 57, 95
4, 322560, Note_off_c, 4, 66, 95
4, 322560, Note_off_c, 4, 61, 95
4, 322560, Note_off_c, 4, 57, 95
4, 322560, Note_on_c, 4, 66, 95
4, 322560, Note_on_c, 4, 62, 95
4, 322560, Note_on_c, 4, 57, 95
4, 322560, Note_on_c, 4, 47, 95
4, 322800, Note_off_c, 4, 66, 95
4, 322800, Note_off_c, 4, 62, 95
4, 322800, Note_off_c, 4, 57, 95
4, 322800, Note_off_c, 4, 47, 95
4, 322800, Note_on_c, 4, 59, 70
4, 323040, Note_off_c, 4, 59, 70
4, 323040, Note_on_c, 4, 47, 95
4, 323280, Note_off_c, 4, 47, 95
4, 323280, Note_on_c, 4, 64, 95
4, 323280, Note_on_c, 4, 59, 95
4, 323280, Note_on_c, 4, 62, 95
4, 323280, Note_on_c, 4, 59, 95
4, 323760, Note_off_c, 4, 64, 95
4, 323760, Note_off_c, 4, 59, 95
4, 323760, Note_off_c, 4, 62, 95
4, 323760, Note_off_c, 4, 59, 95
4, 323760, Note_on_c, 4, 64, 95
4, 323760, Note_on_c, 4, 59, 95
4, 323760, Note_on_c, 4, 62, 95
4, 323760, Note_on_c, 4, 59, 95
4, 324000, Note_off_c, 4, 64, 95
4, 324000, Note_off_c, 4, 59, 95
4, 324000, Note_off_c, 4, 62, 95
4, 324000, Note_off_c, 4, 59, 95
4, 324000, Note_on_c, 4, 64, 95
4, 324000, Note_on_c, 4, 59, 95
4, 324000, Note_on_c, 4, 62, 95
4, 324000, Note_on_c, 4, 59, 95
4, 324000, Note_on_c, 4, 47, 95
4, 324480, Note_off_c, 4, 64, 95
4, 324480, Note_off_c, 4, 59, 95
4, 324480, Note_off_c, 4, 62, 95
4, 324480, Note_off_c, 4, 59, 95
4, 324480, Note_off_c, 4, 47, 95
4, 324480, Note_on_c, 4, 64, 95
4, 324480, Note_on_c, 4, 59, 95
4, 324480, Note_on_c, 4, 62, 95
4, 324480, Note_on_c, 4, 59, 95
4, 324720, Note_off_c, 4, 64, 95
4, 324720, Note_off_c, 4, 59, 95
4, 324720, Note_off_c, 4, 62, 95
4, 324720, Note_off_c, 4, 59, 95
4, 324720, Note_on_c, 4, 64, 95
4, 324720, Note_on_c, 4, 59, 95
4, 324720, Note_on_c, 4, 62, 95
4, 324720, Note_on_c, 4, 59, 95
4, 324960, Note_off_c, 4, 64, 95
4, 324960, Note_off_c, 4, 59, 95
4, 324960, Note_off_c, 4, 62, 95
4, 324960, Note_off_c, 4, 59, 95
4, 324960, Note_on_c, 4, 64, 95
4, 324960, Note_on_c, 4, 59, 95
4, 324960, Note_on_c, 4, 62, 95
4, 324960, Note_on_c, 4, 59, 95
4, 325200, Note_off_c, 4, 64, 95
4, 325200, Note_off_c, 4, 59, 95
4, 325200, Note_off_c, 4, 62, 95
4, 325200, Note_off_c, 4, 59, 95
4, 325200, Note_on_c, 4, 64, 95
4, 325200, Note_on_c, 4, 59, 95
4, 325200, Note_on_c, 4, 62, 95
4, 325200, Note_on_c, 4, 59, 95
4, 325440, Note_off_c, 4, 64, 95
4, 325440, Note_off_c, 4, 59, 95
4, 325440, Note_off_c, 4, 62, 95
4, 325440, Note_off_c, 4, 59, 95
4, 325440, Note_on_c, 4, 64, 95
4, 325440, Note_on_c, 4, 59, 95
4, 325440, Note_on_c, 4, 61, 95
4, 325440, Note_on_c, 4, 57, 95
4, 325440, Note_on_c, 4, 45, 95
4, 325920, Note_off_c, 4, 64, 95
4, 325920, Note_off_c, 4, 59, 95
4, 325920, Note_off_c, 4, 61, 95
4, 325920, Note_off_c, 4, 57, 95
4, 325920, Note_off_c, 4, 45, 95
4, 325920, Note_on_c, 4, 64, 95
4, 325920, Note_on_c, 4, 59, 95
4, 325920, Note_on_c, 4, 61, 95
4, 325920, Note_on_c, 4, 57, 95
4, 326160, Note_off_c, 4, 64, 95
4, 326160, Note_off_c, 4, 59, 95
4, 326160, Note_off_c, 4, 61, 95
4, 326160, Note_off_c, 4, 57, 95
4, 326160, Note_on_c, 4, 64, 95
4, 326160, Note_on_c, 4, 59, 95
4, 326160, Note_on_c, 4, 61, 95
4, 326160, Note_on_c, 4, 57, 95
4, 326400, Note_off_c, 4, 64, 95
4, 326400, Note_off_c, 4, 59, 95
4, 326400, Note_off_c, 4, 61, 95
4, 326400, Note_off_c, 4, 57, 95
4, 326400, Note_on_c, 4, 64, 95
4, 326400, Note_on_c, 4, 59, 95
4, 326400, Note_on_c, 4, 61, 95
4, 326400, Note_on_c, 4, 57, 95
4, 326640, Note_off_c, 4, 64, 95
4, 326640, Note_off_c, 4, 59, 95
4, 326640, Note_off_c, 4, 61, 95
4, 326640, Note_off_c, 4, 57, 95
4, 326640, Note_on_c, 4, 62, 95
4, 326640, Note_on_c, 4, 57, 95
4, 326880, Note_off_c, 4, 62, 95
4, 326880, Note_off_c, 4, 57, 95
4, 326880, Note_on_c, 4, 64, 95
4, 326880, Note_on_c, 4, 59, 95
4, 326880, Note_on_c, 4, 61, 95
4, 326880, Note_on_c, 4, 57, 95
4, 326880, Note_on_c, 4, 45, 95
4, 327360, Note_off_c, 4, 64, 95
4, 327360, Note_off_c, 4, 59, 95
4, 327360, Note_off_c, 4, 61, 95
4, 327360, Note_off_c, 4, 57, 95
4, 327360, Note_off_c, 4, 45, 95
4, 327360, Note_on_c, 4, 64, 95
4, 327360, Note_on_c, 4, 59, 95
4, 327360, Note_on_c, 4, 61, 95
4, 327360, Note_on_c, 4, 57, 95
4, 327600, Note_off_c, 4, 64, 95
4, 327600, Note_off_c, 4, 59, 95
4, 327600, Note_off_c, 4, 61, 95
4, 327600, Note_off_c, 4, 57, 95
4, 327600, Note_on_c, 4, 64, 95
4, 327600, Note_on_c, 4, 59, 95
4, 327600, Note_on_c, 4, 61, 95
4, 327600, Note_on_c, 4, 57, 95
4, 327840, Note_off_c, 4, 64, 95
4, 327840, Note_off_c, 4, 59, 95
4, 327840, Note_off_c, 4, 61, 95
4, 327840, Note_off_c, 4, 57, 95
4, 327840, Note_on_c, 4, 64, 95
4, 327840, Note_on_c, 4, 59, 95
4, 327840, Note_on_c, 4, 61, 95
4, 327840, Note_on_c, 4, 57, 95
4, 328080, Note_off_c, 4, 64, 95
4, 328080, Note_off_c, 4, 59, 95
4, 328080, Note_off_c, 4, 61, 95
4, 328080, Note_off_c, 4, 57, 95
4, 328080, Note_on_c, 4, 59, 95
4, 328080, Note_on_c, 4, 55, 95
4, 328080, Note_on_c, 4, 50, 95
4, 328320, Note_off_c, 4, 59, 95
4, 328320, Note_off_c, 4, 55, 95
4, 328320, Note_off_c, 4, 50, 95
4, 328320, Note_on_c, 4, 59, 95
4, 328320, Note_on_c, 4, 55, 95
4, 328320, Note_on_c, 4, 52, 95
4, 328320, Note_on_c, 4, 47, 95
4, 328320, Note_on_c, 4, 40, 95
4, 328800, Note_off_c, 4, 59, 95
4, 328800, Note_off_c, 4, 55, 95
4, 328800, Note_off_c, 4, 52, 95
4, 328800, Note_off_c, 4, 47, 95
4, 328800, Note_off_c, 4, 40, 95
4, 328800, Note_on_c, 4, 59, 95
4, 328800, Note_on_c, 4, 55, 95
4, 328800, Note_on_c, 4, 52, 95
4, 329040, Note_off_c, 4, 59, 95
4, 329040, Note_off_c, 4, 55, 95
4, 329040, Note_off_c, 4, 52, 95
4, 329040, Note_on_c, 4, 59, 95
4, 329040, Note_on_c, 4, 55, 95
4, 329040, Note_on_c, 4, 52, 95
4, 329280, Note_off_c, 4, 59, 95
4, 329280, Note_off_c, 4, 55, 95
4, 329280, Note_off_c, 4, 52, 95
4, 329280, Note_on_c, 4, 59, 95
4, 329280, Note_on_c, 4, 55, 95
4, 329280, Note_on_c, 4, 52, 95
4, 329520, Note_off_c, 4, 59, 95
4, 329520, Note_off_c, 4, 55, 95
4, 329520, Note_off_c, 4, 52, 95
4, 329520, Note_on_c, 4, 59, 95
4, 329520, Note_on_c, 4, 55, 95
4, 329520, Note_on_c, 4, 52, 95
4, 329760, Note_off_c, 4, 59, 95
4, 329760, Note_off_c, 4, 55, 95
4, 329760, Note_off_c, 4, 52, 95
4, 329760, Note_on_c, 4, 63, 95
4, 329760, Note_on_c, 4, 57, 95
4, 329760, Note_on_c, 4, 54, 95
4, 329760, Note_on_c, 4, 42, 95
4, 330240, Note_off_c, 4, 63, 95
4, 330240, Note_off_c, 4, 57, 95
4, 330240, Note_off_c, 4, 54, 95
4, 330240, Note_off_c, 4, 42, 95
4, 330240, Note_on_c, 4, 63, 95
4, 330240, Note_on_c, 4, 57, 95
4, 330240, Note_on_c, 4, 54, 95
4, 330480, Note_off_c, 4, 63, 95
4, 330480, Note_off_c, 4, 57, 95
4, 330480, Note_off_c, 4, 54, 95
4, 330480, Note_on_c, 4, 63, 95
4, 330480, Note_on_c, 4, 57, 95
4, 330480, Note_on_c, 4, 54, 95
4, 330720, Note_off_c, 4, 63, 95
4, 330720, Note_off_c, 4, 57, 95
4, 330720, Note_off_c, 4, 54, 95
4, 330720, Note_on_c, 4, 63, 95
4, 330720, Note_on_c, 4, 57, 95
4, 330720, Note_on_c, 4, 54, 95
4, 330960, Note_off_c, 4, 63, 95
4, 330960, Note_off_c, 4, 57, 95
4, 330960, Note_off_c, 4, 54, 95
4, 330960, Note_on_c, 4, 63, 95
4, 330960, Note_on_c, 4, 57, 95
4, 330960, Note_on_c, 4, 54, 95
4, 331200, Note_off_c, 4, 63, 95
4, 331200, Note_off_c, 4, 57, 95
4, 331200, Note_off_c, 4, 54, 95
4, 331200, Note_on_c, 4, 64, 95
4, 331200, Note_on_c, 4, 59, 95
4, 331200, Note_on_c, 4, 55, 95
4, 331200, Note_on_c, 4, 43, 95
4, 331680, Note_off_c, 4, 64, 95
4, 331680, Note_off_c, 4, 59, 95
4, 331680, Note_off_c, 4, 55, 95
4, 331680, Note_off_c, 4, 43, 95
4, 331680, Note_on_c, 4, 64, 95
4, 331680, Note_on_c, 4, 59, 95
4, 331680, Note_on_c, 4, 55, 95
4, 331920, Note_off_c, 4, 64, 95
4, 331920, Note_off_c, 4, 59, 95
4, 331920, Note_off_c, 4, 55, 95
4, 331920, Note_on_c, 4, 64, 95
4, 331920, Note_on_c, 4, 59, 95
4, 331920, Note_on_c, 4, 55, 95
4, 332160, Note_off_c, 4, 64, 95
4, 332160, Note_off_c, 4, 59, 95
4, 332160, Note_off_c, 4, 55, 95
4, 332160, Note_on_c, 4, 64, 95
4, 332160, Note_on_c, 4, 59, 95
4, 332160, Note_on_c, 4, 55, 95
4, 332400, Note_off_c, 4, 64, 95
4, 332400, Note_off_c, 4, 59, 95
4, 332400, Note_off_c, 4, 55, 95
4, 332400, Note_on_c, 4, 64, 95
4, 332400, Note_on_c, 4, 59, 95
4, 332400, Note_on_c, 4, 55, 95
4, 332640, Note_off_c, 4, 64, 95
4, 332640, Note_off_c, 4, 59, 95
4, 332640, Note_off_c, 4, 55, 95
4, 332640, Note_on_c, 5, 64, 95
4, 332640, Note_on_c, 5, 59, 95
4, 332640, Note_on_c, 5, 55, 95
4, 332640, Note_on_c, 5, 43, 95
4, 332760, Pitch_bend_c, 5, 8832
4, 332760, Pitch_bend_c, 5, 8832
4, 332760, Pitch_bend_c, 5, 8832
4, 332760, Pitch_bend_c, 5, 8832
4, 332880, Pitch_bend_c, 5, 9600
4, 332880, Pitch_bend_c, 5, 8192
4, 332880, Note_off_c, 5, 64, 95
4, 332880, Pitch_bend_c, 5, 9600
4, 332880, Pitch_bend_c, 5, 8192
4, 332880, Note_off_c, 5, 59, 95
4, 332880, Pitch_bend_c, 5, 9600
4, 332880, Pitch_bend_c, 5, 8192
4, 332880, Note_off_c, 5, 55, 95
4, 332880, Pitch_bend_c, 5, 9600
4, 332880, Pitch_bend_c, 5, 8192
4, 332880, Note_off_c, 5, 43, 95
4, 332880, Note_on_c, 4, 66, 95
4, 332880, Note_on_c, 4, 61, 95
4, 332880, Note_on_c, 4, 57, 95
4, 332880, Note_on_c, 4, 45, 95
4, 333120, Note_off_c, 4, 66, 95
4, 333120, Note_off_c, 4, 61, 95
4, 333120, Note_off_c, 4, 57, 95
4, 333120, Note_off_c, 4, 45, 95
4, 333120, Note_on_c, 4, 66, 95
4, 333120, Note_on_c, 4, 61, 95
4, 333120, Note_on_c, 4, 57, 95
4, 333360, Note_off_c, 4, 66, 95
4, 333360, Note_off_c, 4, 61, 95
4, 333360, Note_off_c, 4, 57, 95
4, 333360, Note_on_c, 4, 66, 95
4, 333360, Note_on_c, 4, 61, 95
4, 333360, Note_on_c, 4, 57, 95
4, 333600, Note_off_c, 4, 66, 95
4, 333600, Note_off_c, 4, 61, 95
4, 333600, Note_off_c, 4, 57, 95
4, 333600, Note_on_c, 4, 66, 95
4, 333600, Note_on_c, 4, 61, 95
4, 333600, Note_on_c, 4, 57, 95
4, 333840, Note_off_c, 4, 66, 95
4, 333840, Note_off_c, 4, 61, 95
4, 333840, Note_off_c, 4, 57, 95
4, 333840, Note_on_c, 4, 66, 95
4, 333840, Note_on_c, 4, 61, 95
4, 333840, Note_on_c, 4, 57, 95
4, 334080, Note_off_c, 4, 66, 95
4, 334080, Note_off_c, 4, 61, 95
4, 334080, Note_off_c, 4, 57, 95
4, 334080, Note_on_c, 4, 66, 95
4, 334080, Note_on_c, 4, 62, 95
4, 334080, Note_on_c, 4, 57, 95
4, 334080, Note_on_c, 4, 47, 95
4, 334320, Note_off_c, 4, 66, 95
4, 334320, Note_off_c, 4, 62, 95
4, 334320, Note_off_c, 4, 57, 95
4, 334320, Note_off_c, 4, 47, 95
4, 334320, Note_on_c, 4, 59, 70
4, 334560, Note_off_c, 4, 59, 70
4, 334560, Note_on_c, 4, 47, 95
4, 334800, Note_off_c, 4, 47, 95
4, 334800, Note_on_c, 4, 64, 95
4, 334800, Note_on_c, 4, 59, 95
4, 334800, Note_on_c, 4, 62, 95
4, 334800, Note_on_c, 4, 59, 95
4, 335280, Note_off_c, 4, 64, 95
4, 335280, Note_off_c, 4, 59, 95
4, 335280, Note_off_c, 4, 62, 95
4, 335280, Note_off_c, 4, 59, 95
4, 335280, Note_on_c, 4, 64, 95
4, 335280, Note_on_c, 4, 59, 95
4, 335280, Note_on_c, 4, 62, 95
4, 335280, Note_on_c, 4, 59, 95
4, 335520, Note_off_c, 4, 64, 95
4, 335520, Note_off_c, 4, 59, 95
4, 335520, Note_off_c, 4, 62, 95
4, 335520, Note_off_c, 4, 59, 95
4, 335520, Note_on_c, 4, 64, 95
4, 335520, Note_on_c, 4, 59, 95
4, 335520, Note_on_c, 4, 62, 95
4, 335520, Note_on_c, 4, 59, 95
4, 335520, Note_on_c, 4, 47, 95
4, 336000, Note_off_c, 4, 64, 95
4, 336000, Note_off_c, 4, 59, 95
4, 336000, Note_off_c, 4, 62, 95
4, 336000, Note_off_c, 4, 59, 95
4, 336000, Note_off_c, 4, 47, 95
4, 336000, Note_on_c, 4, 64, 95
4, 336000, Note_on_c, 4, 59, 95
4, 336000, Note_on_c, 4, 62, 95
4, 336000, Note_on_c, 4, 59, 95
4, 336240, Note_off_c, 4, 64, 95
4, 336240, Note_off_c, 4, 59, 95
4, 336240, Note_off_c, 4, 62, 95
4, 336240, Note_off_c, 4, 59, 95
4, 336240, Note_on_c, 4, 64, 95
4, 336240, Note_on_c, 4, 59, 95
4, 336240, Note_on_c, 4, 62, 95
4, 336240, Note_on_c, 4, 59, 95
4, 336480, Note_off_c, 4, 64, 95
4, 336480, Note_off_c, 4, 59, 95
4, 336480, Note_off_c, 4, 62, 95
4, 336480, Note_off_c, 4, 59, 95
4, 336480, Note_on_c, 4, 64, 95
4, 336480, Note_on_c, 4, 59, 95
4, 336480, Note_on_c, 4, 62, 95
4, 336480, Note_on_c, 4, 59, 95
4, 336720, Note_off_c, 4, 64, 95
4, 336720, Note_off_c, 4, 59, 95
4, 336720, Note_off_c, 4, 62, 95
4, 336720, Note_off_c, 4, 59, 95
4, 336720, Note_on_c, 4, 64, 95
4, 336720, Note_on_c, 4, 59, 95
4, 336720, Note_on_c, 4, 62, 95
4, 336720, Note_on_c, 4, 59, 95
4, 336960, Note_off_c, 4, 64, 95
4, 336960, Note_off_c, 4, 59, 95
4, 336960, Note_off_c, 4, 62, 95
4, 336960, Note_off_c, 4, 59, 95
4, 336960, Note_on_c, 4, 64, 95
4, 336960, Note_on_c, 4, 59, 95
4, 336960, Note_on_c, 4, 61, 95
4, 336960, Note_on_c, 4, 57, 95
4, 336960, Note_on_c, 4, 45, 95
4, 337440, Note_off_c, 4, 64, 95
4, 337440, Note_off_c, 4, 59, 95
4, 337440, Note_off_c, 4, 61, 95
4, 337440, Note_off_c, 4, 57, 95
4, 337440, Note_off_c, 4, 45, 95
4, 337440, Note_on_c, 4, 64, 95
4, 337440, Note_on_c, 4, 59, 95
4, 337440, Note_on_c, 4, 61, 95
4, 337440, Note_on_c, 4, 57, 95
4, 337680, Note_off_c, 4, 64, 95
4, 337680, Note_off_c, 4, 59, 95
4, 337680, Note_off_c, 4, 61, 95
4, 337680, Note_off_c, 4, 57, 95
4, 337680, Note_on_c, 4, 64, 95
4, 337680, Note_on_c, 4, 59, 95
4, 337680, Note_on_c, 4, 61, 95
4, 337680, Note_on_c, 4, 57, 95
4, 337920, Note_off_c, 4, 64, 95
4, 337920, Note_off_c, 4, 59, 95
4, 337920, Note_off_c, 4, 61, 95
4, 337920, Note_off_c, 4, 57, 95
4, 337920, Note_on_c, 4, 64, 95
4, 337920, Note_on_c, 4, 59, 95
4, 337920, Note_on_c, 4, 61, 95
4, 337920, Note_on_c, 4, 57, 95
4, 338160, Note_off_c, 4, 64, 95
4, 338160, Note_off_c, 4, 59, 95
4, 338160, Note_off_c, 4, 61, 95
4, 338160, Note_off_c, 4, 57, 95
4, 338160, Note_on_c, 4, 62, 95
4, 338160, Note_on_c, 4, 57, 95
4, 338400, Note_off_c, 4, 62, 95
4, 338400, Note_off_c, 4, 57, 95
4, 338400, Note_on_c, 4, 64, 95
4, 338400, Note_on_c, 4, 59, 95
4, 338400, Note_on_c, 4, 61, 95
4, 338400, Note_on_c, 4, 57, 95
4, 338400, Note_on_c, 4, 45, 95
4, 338880, Note_off_c, 4, 64, 95
4, 338880, Note_off_c, 4, 59, 95
4, 338880, Note_off_c, 4, 61, 95
4, 338880, Note_off_c, 4, 57, 95
4, 338880, Note_off_c, 4, 45, 95
4, 338880, Note_on_c, 4, 64, 95
4, 338880, Note_on_c, 4, 59, 95
4, 338880, Note_on_c, 4, 61, 95
4, 338880, Note_on_c, 4, 57, 95
4, 339120, Note_off_c, 4, 64, 95
4, 339120, Note_off_c, 4, 59, 95
4, 339120, Note_off_c, 4, 61, 95
4, 339120, Note_off_c, 4, 57, 95
4, 339120, Note_on_c, 4, 64, 95
4, 339120, Note_on_c, 4, 59, 95
4, 339120, Note_on_c, 4, 61, 95
4, 339120, Note_on_c, 4, 57, 95
4, 339360, Note_off_c, 4, 64, 95
4, 339360, Note_off_c, 4, 59, 95
4, 339360, Note_off_c, 4, 61, 95
4, 339360, Note_off_c, 4, 57, 95
4, 339360, Note_on_c, 4, 64, 95
4, 339360, Note_on_c, 4, 59, 95
4, 339360, Note_on_c, 4, 61, 95
4, 339360, Note_on_c, 4, 57, 95
4, 339600, Note_off_c, 4, 64, 95
4, 339600, Note_off_c, 4, 59, 95
4, 339600, Note_off_c, 4, 61, 95
4, 339600, Note_off_c, 4, 57, 95
4, 339600, Note_on_c, 4, 59, 95
4, 339600, Note_on_c, 4, 55, 95
4, 339600, Note_on_c, 4, 50, 95
4, 339840, Note_off_c, 4, 59, 95
4, 339840, Note_off_c, 4, 55, 95
4, 339840, Note_off_c, 4, 50, 95
4, 339840, Note_on_c, 4, 59, 95
4, 339840, Note_on_c, 4, 55, 95
4, 339840, Note_on_c, 4, 52, 95
4, 339840, Note_on_c, 4, 47, 95
4, 339840, Note_on_c, 4, 40, 95
4, 340320, Note_off_c, 4, 59, 95
4, 340320, Note_off_c, 4, 55, 95
4, 340320, Note_off_c, 4, 52, 95
4, 340320, Note_off_c, 4, 47, 95
4, 340320, Note_off_c, 4, 40, 95
4, 340320, Note_on_c, 4, 59, 95
4, 340320, Note_on_c, 4, 55, 95
4, 340320, Note_on_c, 4, 52, 95
4, 340320, Note_on_c, 4, 47, 95
4, 340560, Note_off_c, 4, 59, 95
4, 340560, Note_off_c, 4, 55, 95
4, 340560, Note_off_c, 4, 52, 95
4, 340560, Note_off_c, 4, 47, 95
4, 340560, Note_on_c, 4, 59, 95
4, 340560, Note_on_c, 4, 55, 95
4, 340560, Note_on_c, 4, 52, 95
4, 340560, Note_on_c, 4, 47, 95
4, 340800, Note_off_c, 4, 59, 95
4, 340800, Note_off_c, 4, 55, 95
4, 340800, Note_off_c, 4, 52, 95
4, 340800, Note_off_c, 4, 47, 95
4, 340800, Note_on_c, 4, 59, 95
4, 340800, Note_on_c, 4, 55, 95
4, 340800, Note_on_c, 4, 52, 95
4, 340800, Note_on_c, 4, 47, 95
4, 341040, Note_off_c, 4, 59, 95
4, 341040, Note_off_c, 4, 55, 95
4, 341040, Note_off_c, 4, 52, 95
4, 341040, Note_off_c, 4, 47, 95
4, 341040, Note_on_c, 4, 59, 95
4, 341040, Note_on_c, 4, 55, 95
4, 341040, Note_on_c, 4, 52, 95
4, 341040, Note_on_c, 4, 47, 95
4, 341280, Note_off_c, 4, 59, 95
4, 341280, Note_off_c, 4, 55, 95
4, 341280, Note_off_c, 4, 52, 95
4, 341280, Note_off_c, 4, 47, 95
4, 341280, Note_on_c, 4, 64, 95
4, 341280, Note_on_c, 4, 59, 95
4, 341280, Note_on_c, 4, 55, 95
4, 341280, Note_on_c, 4, 52, 95
4, 341280, Note_on_c, 4, 47, 95
4, 341280, Note_on_c, 4, 40, 95
4, 341760, Note_off_c, 4, 64, 95
4, 341760, Note_off_c, 4, 59, 95
4, 341760, Note_off_c, 4, 55, 95
4, 341760, Note_off_c, 4, 52, 95
4, 341760, Note_off_c, 4, 47, 95
4, 341760, Note_off_c, 4, 40, 95
4, 341760, Note_on_c, 4, 59, 95
4, 341760, Note_on_c, 4, 55, 95
4, 341760, Note_on_c, 4, 52, 95
4, 341760, Note_on_c, 4, 47, 95
4, 342000, Note_off_c, 4, 59, 95
4, 342000, Note_off_c, 4, 55, 95
4, 342000, Note_off_c, 4, 52, 95
4, 342000, Note_off_c, 4, 47, 95
4, 342000, Note_on_c, 4, 59, 95
4, 342000, Note_on_c, 4, 55, 95
4, 342000, Note_on_c, 4, 52, 95
4, 342000, Note_on_c, 4, 47, 95
4, 342240, Note_off_c, 4, 59, 95
4, 342240, Note_off_c, 4, 55, 95
4, 342240, Note_off_c, 4, 52, 95
4, 342240, Note_off_c, 4, 47, 95
4, 342240, Note_on_c, 4, 59, 95
4, 342240, Note_on_c, 4, 55, 95
4, 342240, Note_on_c, 4, 52, 95
4, 342240, Note_on_c, 4, 47, 95
4, 342480, Note_off_c, 4, 59, 95
4, 342480, Note_off_c, 4, 55, 95
4, 342480, Note_off_c, 4, 52, 95
4, 342480, Note_off_c, 4, 47, 95
4, 342480, Note_on_c, 4, 59, 95
4, 342480, Note_on_c, 4, 55, 95
4, 342480, Note_on_c, 4, 52, 95
4, 342480, Note_on_c, 4, 47, 95
4, 342720, Note_off_c, 4, 59, 95
4, 342720, Note_off_c, 4, 55, 95
4, 342720, Note_off_c, 4, 52, 95
4, 342720, Note_off_c, 4, 47, 95
4, 342720, Note_on_c, 4, 59, 95
4, 342720, Note_on_c, 4, 55, 95
4, 342720, Note_on_c, 4, 52, 95
4, 342720, Note_on_c, 4, 47, 95
4, 342720, Note_on_c, 4, 40, 95
4, 343200, Note_off_c, 4, 59, 95
4, 343200, Note_off_c, 4, 55, 95
4, 343200, Note_off_c, 4, 52, 95
4, 343200, Note_off_c, 4, 47, 95
4, 343200, Note_off_c, 4, 40, 95
4, 343200, Note_on_c, 4, 59, 95
4, 343200, Note_on_c, 4, 55, 95
4, 343200, Note_on_c, 4, 52, 95
4, 343200, Note_on_c, 4, 47, 95
4, 343440, Note_off_c, 4, 59, 95
4, 343440, Note_off_c, 4, 55, 95
4, 343440, Note_off_c, 4, 52, 95
4, 343440, Note_off_c, 4, 47, 95
4, 343440, Note_on_c, 4, 59, 95
4, 343440, Note_on_c, 4, 55, 95
4, 343440, Note_on_c, 4, 52, 95
4, 343440, Note_on_c, 4, 47, 95
4, 343680, Note_off_c, 4, 59, 95
4, 343680, Note_off_c, 4, 55, 95
4, 343680, Note_off_c, 4, 52, 95
4, 343680, Note_off_c, 4, 47, 95
4, 343680, Note_on_c, 4, 59, 95
4, 343680, Note_on_c, 4, 55, 95
4, 343680, Note_on_c, 4, 52, 95
4, 343680, Note_on_c, 4, 47, 95
4, 343920, Note_off_c, 4, 59, 95
4, 343920, Note_off_c, 4, 55, 95
4, 343920, Note_off_c, 4, 52, 95
4, 343920, Note_off_c, 4, 47, 95
4, 343920, Note_on_c, 4, 59, 95
4, 343920, Note_on_c, 4, 55, 95
4, 343920, Note_on_c, 4, 52, 95
4, 343920, Note_on_c, 4, 47, 95
4, 344160, Note_off_c, 4, 59, 95
4, 344160, Note_off_c, 4, 55, 95
4, 344160, Note_off_c, 4, 52, 95
4, 344160, Note_off_c, 4, 47, 95
4, 344160, Note_on_c, 4, 64, 95
4, 344160, Note_on_c, 4, 59, 95
4, 344160, Note_on_c, 4, 55, 95
4, 344160, Note_on_c, 4, 52, 95
4, 344160, Note_on_c, 4, 47, 95
4, 344160, Note_on_c, 4, 40, 95
4, 344640, Note_off_c, 4, 64, 95
4, 344640, Note_off_c, 4, 59, 95
4, 344640, Note_off_c, 4, 55, 95
4, 344640, Note_off_c, 4, 52, 95
4, 344640, Note_off_c, 4, 47, 95
4, 344640, Note_off_c, 4, 40, 95
4, 344640, Note_on_c, 4, 59, 95
4, 344640, Note_on_c, 4, 55, 95
4, 344640, Note_on_c, 4, 52, 95
4, 344640, Note_on_c, 4, 47, 95
4, 344880, Note_off_c, 4, 59, 95
4, 344880, Note_off_c, 4, 55, 95
4, 344880, Note_off_c, 4, 52, 95
4, 344880, Note_off_c, 4, 47, 95
4, 344880, Note_on_c, 4, 59, 95
4, 344880, Note_on_c, 4, 55, 95
4, 344880, Note_on_c, 4, 52, 95
4, 344880, Note_on_c, 4, 47, 95
4, 345120, Note_off_c, 4, 59, 95
4, 345120, Note_off_c, 4, 55, 95
4, 345120, Note_off_c, 4, 52, 95
4, 345120, Note_off_c, 4, 47, 95
4, 345120, Note_on_c, 4, 59, 95
4, 345120, Note_on_c, 4, 55, 95
4, 345120, Note_on_c, 4, 52, 95
4, 345120, Note_on_c, 4, 47, 95
4, 345360, Note_off_c, 4, 59, 95
4, 345360, Note_off_c, 4, 55, 95
4, 345360, Note_off_c, 4, 52, 95
4, 345360, Note_off_c, 4, 47, 95
4, 345360, Note_on_c, 4, 59, 95
4, 345360, Note_on_c, 4, 55, 95
4, 345360, Note_on_c, 4, 52, 95
4, 345360, Note_on_c, 4, 47, 95
4, 345600, Note_off_c, 4, 59, 95
4, 345600, Note_off_c, 4, 55, 95
4, 345600, Note_off_c, 4, 52, 95
4, 345600, Note_off_c, 4, 47, 95
4, 357120, Note_on_c, 4, 64, 95
4, 357120, Note_on_c, 4, 59, 95
4, 357120, Note_on_c, 4, 55, 95
4, 357120, Note_on_c, 4, 52, 95
4, 357120, Note_on_c, 4, 47, 95
4, 357120, Note_on_c, 4, 40, 95
4, 361680, Note_off_c, 4, 64, 95
4, 361680, Note_off_c, 4, 59, 95
4, 361680, Note_off_c, 4, 55, 95
4, 361680, Note_off_c, 4, 52, 95
4, 361680, Note_off_c, 4, 47, 95
4, 361680, Note_off_c, 4, 40, 95
4, 361680, Note_on_c, 4, 50, 95
4, 361680, Note_on_c, 4, 45, 95
4, 361680, Note_on_c, 4, 38, 95
4, 361920, Note_off_c, 4, 50, 95
4, 361920, Note_off_c, 4, 45, 95
4, 361920, Note_off_c, 4, 38, 95
4, 361920, Note_on_c, 4, 55, 95
4, 361920, Note_on_c, 4, 55, 95
4, 361920, Note_on_c, 4, 50, 95
4, 361920, Note_on_c, 4, 43, 95
4, 362400, Note_off_c, 4, 55, 95
4, 362400, Note_off_c, 4, 55, 95
4, 362400, Note_off_c, 4, 50, 95
4, 362400, Note_off_c, 4, 43, 95
4, 362400, Note_on_c, 4, 55, 95
4, 362400, Note_on_c, 4, 55, 95
4, 362400, Note_on_c, 4, 50, 95
4, 362400, Note_on_c, 4, 43, 95
4, 362640, Note_off_c, 4, 55, 95
4, 362640, Note_off_c, 4, 55, 95
4, 362640, Note_off_c, 4, 50, 95
4, 362640, Note_off_c, 4, 43, 95
4, 362640, Note_on_c, 4, 50, 95
4, 362640, Note_on_c, 4, 45, 95
4, 362640, Note_on_c, 4, 38, 95
4, 362880, Note_off_c, 4, 50, 95
4, 362880, Note_off_c, 4, 45, 95
4, 362880, Note_off_c, 4, 38, 95
4, 362880, Note_on_c, 4, 66, 95
4, 362880, Note_on_c, 4, 62, 95
4, 362880, Note_on_c, 4, 57, 95
4, 362880, Note_on_c, 4, 50, 95
4, 363360, Note_off_c, 4, 66, 95
4, 363360, Note_off_c, 4, 62, 95
4, 363360, Note_off_c, 4, 57, 95
4, 363360, Note_off_c, 4, 50, 95
4, 363360, Note_on_c, 4, 66, 95
4, 363360, Note_on_c, 4, 62, 95
4, 363360, Note_on_c, 4, 57, 95
4, 363360, Note_on_c, 4, 50, 95
4, 363600, Note_off_c, 4, 66, 95
4, 363600, Note_off_c, 4, 62, 95
4, 363600, Note_off_c, 4, 57, 95
4, 363600, Note_off_c, 4, 50, 95
4, 363600, Note_on_c, 4, 66, 95
4, 363600, Note_on_c, 4, 62, 95
4, 363600, Note_on_c, 4, 57, 95
4, 363600, Note_on_c, 4, 50, 95
4, 364080, Note_off_c, 4, 66, 95
4, 364080, Note_off_c, 4, 62, 95
4, 364080, Note_off_c, 4, 57, 95
4, 364080, Note_off_c, 4, 50, 95
4, 364080, Note_on_c, 4, 66, 95
4, 364080, Note_on_c, 4, 62, 95
4, 364080, Note_on_c, 4, 57, 95
4, 364080, Note_on_c, 4, 50, 95
4, 364320, Note_off_c, 4, 66, 95
4, 364320, Note_off_c, 4, 62, 95
4, 364320, Note_off_c, 4, 57, 95
4, 364320, Note_off_c, 4, 50, 95
4, 364320, Note_on_c, 4, 66, 95
4, 364320, Note_on_c, 4, 62, 95
4, 364320, Note_on_c, 4, 57, 95
4, 364320, Note_on_c, 4, 50, 95
4, 364800, Note_off_c, 4, 66, 95
4, 364800, Note_off_c, 4, 62, 95
4, 364800, Note_off_c, 4, 57, 95
4, 364800, Note_off_c, 4, 50, 95
4, 364800, Note_on_c, 4, 66, 95
4, 364800, Note_on_c, 4, 62, 95
4, 364800, Note_on_c, 4, 57, 95
4, 364800, Note_on_c, 4, 50, 95
4, 365040, Note_off_c, 4, 66, 95
4, 365040, Note_off_c, 4, 62, 95
4, 365040, Note_off_c, 4, 57, 95
4, 365040, Note_off_c, 4, 50, 95
4, 365040, Note_on_c, 4, 66, 95
4, 365040, Note_on_c, 4, 62, 95
4, 365040, Note_on_c, 4, 57, 95
4, 365040, Note_on_c, 4, 50, 95
4, 365520, Note_off_c, 4, 66, 95
4, 365520, Note_off_c, 4, 62, 95
4, 365520, Note_off_c, 4, 57, 95
4, 365520, Note_off_c, 4, 50, 95
4, 365520, Note_on_c, 4, 66, 95
4, 365520, Note_on_c, 4, 62, 95
4, 365520, Note_on_c, 4, 57, 95
4, 365520, Note_on_c, 4, 50, 95
4, 365760, Note_off_c, 4, 66, 95
4, 365760, Note_off_c, 4, 62, 95
4, 365760, Note_off_c, 4, 57, 95
4, 365760, Note_off_c, 4, 50, 95
4, 365760, Note_on_c, 4, 66, 95
4, 365760, Note_on_c, 4, 62, 95
4, 365760, Note_on_c, 4, 57, 95
4, 365760, Note_on_c, 4, 50, 95
4, 366240, Note_off_c, 4, 66, 95
4, 366240, Note_off_c, 4, 62, 95
4, 366240, Note_off_c, 4, 57, 95
4, 366240, Note_off_c, 4, 50, 95
4, 366240, Note_on_c, 4, 66, 95
4, 366240, Note_on_c, 4, 62, 95
4, 366240, Note_on_c, 4, 57, 95
4, 366240, Note_on_c, 4, 50, 95
4, 366480, Note_off_c, 4, 66, 95
4, 366480, Note_off_c, 4, 62, 95
4, 366480, Note_off_c, 4, 57, 95
4, 366480, Note_off_c, 4, 50, 95
4, 366480, Note_on_c, 4, 66, 95
4, 366480, Note_on_c, 4, 62, 95
4, 366480, Note_on_c, 4, 57, 95
4, 366480, Note_on_c, 4, 50, 95
4, 366720, Note_off_c, 4, 66, 95
4, 366720, Note_off_c, 4, 62, 95
4, 366720, Note_off_c, 4, 57, 95
4, 366720, Note_off_c, 4, 50, 95
4, 366720, Note_on_c, 4, 66, 95
4, 366720, Note_on_c, 4, 62, 95
4, 366720, Note_on_c, 4, 57, 95
4, 366720, Note_on_c, 4, 50, 95
4, 366960, Note_off_c, 4, 66, 95
4, 366960, Note_off_c, 4, 62, 95
4, 366960, Note_off_c, 4, 57, 95
4, 366960, Note_off_c, 4, 50, 95
4, 366960, Note_on_c, 4, 66, 95
4, 366960, Note_on_c, 4, 62, 95
4, 366960, Note_on_c, 4, 57, 95
4, 366960, Note_on_c, 4, 50, 95
4, 367200, Note_off_c, 4, 66, 95
4, 367200, Note_off_c, 4, 62, 95
4, 367200, Note_off_c, 4, 57, 95
4, 367200, Note_off_c, 4, 50, 95
4, 367200, Note_on_c, 4, 67, 95
4, 367200, Note_on_c, 4, 59, 95
4, 367200, Note_on_c, 4, 57, 95
4, 367200, Note_on_c, 4, 50, 95
4, 367440, Note_off_c, 4, 67, 95
4, 367440, Note_off_c, 4, 59, 95
4, 367440, Note_off_c, 4, 57, 95
4, 367440, Note_off_c, 4, 50, 95
4, 367440, Note_on_c, 4, 67, 95
4, 367440, Note_on_c, 4, 59, 95
4, 367440, Note_on_c, 4, 57, 95
4, 367440, Note_on_c, 4, 50, 95
4, 367920, Note_off_c, 4, 67, 95
4, 367920, Note_off_c, 4, 59, 95
4, 367920, Note_off_c, 4, 57, 95
4, 367920, Note_off_c, 4, 50, 95
4, 367920, Note_on_c, 4, 67, 95
4, 367920, Note_on_c, 4, 59, 95
4, 367920, Note_on_c, 4, 57, 95
4, 367920, Note_on_c, 4, 50, 95
4, 368400, Note_off_c, 4, 67, 95
4, 368400, Note_off_c, 4, 59, 95
4, 368400, Note_off_c, 4, 57, 95
4, 368400, Note_off_c, 4, 50, 95
4, 368400, Note_on_c, 4, 67, 95
4, 368400, Note_on_c, 4, 59, 95
4, 368400, Note_on_c, 4, 57, 95
4, 368400, Note_on_c, 4, 50, 95
4, 368640, Note_off_c, 4, 67, 95
4, 368640, Note_off_c, 4, 59, 95
4, 368640, Note_off_c, 4, 57, 95
4, 368640, Note_off_c, 4, 50, 95
4, 368640, Note_on_c, 4, 66, 95
4, 368640, Note_on_c, 4, 62, 95
4, 368640, Note_on_c, 4, 57, 95
4, 368640, Note_on_c, 4, 50, 95
4, 369120, Note_off_c, 4, 66, 95
4, 369120, Note_off_c, 4, 62, 95
4, 369120, Note_off_c, 4, 57, 95
4, 369120, Note_off_c, 4, 50, 95
4, 369120, Note_on_c, 4, 66, 95
4, 369120, Note_on_c, 4, 62, 95
4, 369120, Note_on_c, 4, 57, 95
4, 369120, Note_on_c, 4, 50, 95
4, 369360, Note_off_c, 4, 66, 95
4, 369360, Note_off_c, 4, 62, 95
4, 369360, Note_off_c, 4, 57, 95
4, 369360, Note_off_c, 4, 50, 95
4, 369360, Note_on_c, 4, 66, 95
4, 369360, Note_on_c, 4, 62, 95
4, 369360, Note_on_c, 4, 57, 95
4, 369360, Note_on_c, 4, 50, 95
4, 369840, Note_off_c, 4, 66, 95
4, 369840, Note_off_c, 4, 62, 95
4, 369840, Note_off_c, 4, 57, 95
4, 369840, Note_off_c, 4, 50, 95
4, 369840, Note_on_c, 4, 66, 95
4, 369840, Note_on_c, 4, 62, 95
4, 369840, Note_on_c, 4, 57, 95
4, 369840, Note_on_c, 4, 50, 95
4, 370080, Note_off_c, 4, 66, 95
4, 370080, Note_off_c, 4, 62, 95
4, 370080, Note_off_c, 4, 57, 95
4, 370080, Note_off_c, 4, 50, 95
4, 370080, Note_on_c, 4, 66, 95
4, 370080, Note_on_c, 4, 62, 95
4, 370080, Note_on_c, 4, 57, 95
4, 370080, Note_on_c, 4, 50, 95
4, 370560, Note_off_c, 4, 66, 95
4, 370560, Note_off_c, 4, 62, 95
4, 370560, Note_off_c, 4, 57, 95
4, 370560, Note_off_c, 4, 50, 95
4, 370560, Note_on_c, 4, 66, 95
4, 370560, Note_on_c, 4, 62, 95
4, 370560, Note_on_c, 4, 57, 95
4, 370560, Note_on_c, 4, 50, 95
4, 370800, Note_off_c, 4, 66, 95
4, 370800, Note_off_c, 4, 62, 95
4, 370800, Note_off_c, 4, 57, 95
4, 370800, Note_off_c, 4, 50, 95
4, 370800, Note_on_c, 4, 66, 95
4, 370800, Note_on_c, 4, 62, 95
4, 370800, Note_on_c, 4, 57, 95
4, 370800, Note_on_c, 4, 50, 95
4, 371280, Note_off_c, 4, 66, 95
4, 371280, Note_off_c, 4, 62, 95
4, 371280, Note_off_c, 4, 57, 95
4, 371280, Note_off_c, 4, 50, 95
4, 371280, Note_on_c, 4, 66, 95
4, 371280, Note_on_c, 4, 62, 95
4, 371280, Note_on_c, 4, 57, 95
4, 371280, Note_on_c, 4, 50, 95
4, 371520, Note_off_c, 4, 66, 95
4, 371520, Note_off_c, 4, 62, 95
4, 371520, Note_off_c, 4, 57, 95
4, 371520, Note_off_c, 4, 50, 95
4, 371520, Note_on_c, 4, 66, 95
4, 371520, Note_on_c, 4, 62, 95
4, 371520, Note_on_c, 4, 57, 95
4, 371520, Note_on_c, 4, 50, 95
4, 372000, Note_off_c, 4, 66, 95
4, 372000, Note_off_c, 4, 62, 95
4, 372000, Note_off_c, 4, 57, 95
4, 372000, Note_off_c, 4, 50, 95
4, 372000, Note_on_c, 4, 66, 95
4, 372000, Note_on_c, 4, 62, 95
4, 372000, Note_on_c, 4, 57, 95
4, 372000, Note_on_c, 4, 50, 95
4, 372240, Note_off_c, 4, 66, 95
4, 372240, Note_off_c, 4, 62, 95
4, 372240, Note_off_c, 4, 57, 95
4, 372240, Note_off_c, 4, 50, 95
4, 372240, Note_on_c, 4, 66, 95
4, 372240, Note_on_c, 4, 62, 95
4, 372240, Note_on_c, 4, 57, 95
4, 372240, Note_on_c, 4, 50, 95
4, 372480, Note_off_c, 4, 66, 95
4, 372480, Note_off_c, 4, 62, 95
4, 372480, Note_off_c, 4, 57, 95
4, 372480, Note_off_c, 4, 50, 95
4, 372480, Note_on_c, 4, 66, 95
4, 372480, Note_on_c, 4, 62, 95
4, 372480, Note_on_c, 4, 57, 95
4, 372480, Note_on_c, 4, 50, 95
4, 372720, Note_off_c, 4, 66, 95
4, 372720, Note_off_c, 4, 62, 95
4, 372720, Note_off_c, 4, 57, 95
4, 372720, Note_off_c, 4, 50, 95
4, 372720, Note_on_c, 4, 66, 95
4, 372720, Note_on_c, 4, 62, 95
4, 372720, Note_on_c, 4, 57, 95
4, 372720, Note_on_c, 4, 50, 95
4, 372960, Note_off_c, 4, 66, 95
4, 372960, Note_off_c, 4, 62, 95
4, 372960, Note_off_c, 4, 57, 95
4, 372960, Note_off_c, 4, 50, 95
4, 372960, Note_on_c, 4, 67, 95
4, 372960, Note_on_c, 4, 59, 95
4, 372960, Note_on_c, 4, 57, 95
4, 372960, Note_on_c, 4, 50, 95
4, 373200, Note_off_c, 4, 67, 95
4, 373200, Note_off_c, 4, 59, 95
4, 373200, Note_off_c, 4, 57, 95
4, 373200, Note_off_c, 4, 50, 95
4, 373200, Note_on_c, 4, 67, 95
4, 373200, Note_on_c, 4, 59, 95
4, 373200, Note_on_c, 4, 57, 95
4, 373200, Note_on_c, 4, 50, 95
4, 373680, Note_off_c, 4, 67, 95
4, 373680, Note_off_c, 4, 59, 95
4, 373680, Note_off_c, 4, 57, 95
4, 373680, Note_off_c, 4, 50, 95
4, 373680, Note_on_c, 4, 67, 95
4, 373680, Note_on_c, 4, 59, 95
4, 373680, Note_on_c, 4, 57, 95
4, 373680, Note_on_c, 4, 50, 95
4, 374160, Note_off_c, 4, 67, 95
4, 374160, Note_off_c, 4, 59, 95
4, 374160, Note_off_c, 4, 57, 95
4, 374160, Note_off_c, 4, 50, 95
4, 374160, Note_on_c, 4, 67, 95
4, 374160, Note_on_c, 4, 59, 95
4, 374160, Note_on_c, 4, 57, 95
4, 374160, Note_on_c, 4, 50, 95
4, 374400, Note_off_c, 4, 67, 95
4, 374400, Note_off_c, 4, 59, 95
4, 374400, Note_off_c, 4, 57, 95
4, 374400, Note_off_c, 4, 50, 95
4, 374400, Note_on_c, 4, 66, 95
4, 374400, Note_on_c, 4, 62, 95
4, 374400, Note_on_c, 4, 57, 95
4, 374400, Note_on_c, 4, 50, 95
4, 374880, Note_off_c, 4, 66, 95
4, 374880, Note_off_c, 4, 62, 95
4, 374880, Note_off_c, 4, 57, 95
4, 374880, Note_off_c, 4, 50, 95
4, 374880, Note_on_c, 4, 66, 95
4, 374880, Note_on_c, 4, 62, 95
4, 374880, Note_on_c, 4, 57, 95
4, 374880, Note_on_c, 4, 50, 95
4, 375120, Note_off_c, 4, 66, 95
4, 375120, Note_off_c, 4, 62, 95
4, 375120, Note_off_c, 4, 57, 95
4, 375120, Note_off_c, 4, 50, 95
4, 375120, Note_on_c, 4, 66, 95
4, 375120, Note_on_c, 4, 62, 95
4, 375120, Note_on_c, 4, 57, 95
4, 375120, Note_on_c, 4, 50, 95
4, 375600, Note_off_c, 4, 66, 95
4, 375600, Note_off_c, 4, 62, 95
4, 375600, Note_off_c, 4, 57, 95
4, 375600, Note_off_c, 4, 50, 95
4, 375600, Note_on_c, 4, 66, 95
4, 375600, Note_on_c, 4, 62, 95
4, 375600, Note_on_c, 4, 57, 95
4, 375600, Note_on_c, 4, 50, 95
4, 375840, Note_off_c, 4, 66, 95
4, 375840, Note_off_c, 4, 62, 95
4, 375840, Note_off_c, 4, 57, 95
4, 375840, Note_off_c, 4, 50, 95
4, 375840, Note_on_c, 4, 66, 95
4, 375840, Note_on_c, 4, 62, 95
4, 375840, Note_on_c, 4, 57, 95
4, 375840, Note_on_c, 4, 50, 95
4, 376320, Note_off_c, 4, 66, 95
4, 376320, Note_off_c, 4, 62, 95
4, 376320, Note_off_c, 4, 57, 95
4, 376320, Note_off_c, 4, 50, 95
4, 376320, Note_on_c, 4, 66, 95
4, 376320, Note_on_c, 4, 62, 95
4, 376320, Note_on_c, 4, 57, 95
4, 376320, Note_on_c, 4, 50, 95
4, 376560, Note_off_c, 4, 66, 95
4, 376560, Note_off_c, 4, 62, 95
4, 376560, Note_off_c, 4, 57, 95
4, 376560, Note_off_c, 4, 50, 95
4, 376560, Note_on_c, 4, 66, 95
4, 376560, Note_on_c, 4, 62, 95
4, 376560, Note_on_c, 4, 57, 95
4, 376560, Note_on_c, 4, 50, 95
4, 377040, Note_off_c, 4, 66, 95
4, 377040, Note_off_c, 4, 62, 95
4, 377040, Note_off_c, 4, 57, 95
4, 377040, Note_off_c, 4, 50, 95
4, 377040, Note_on_c, 4, 66, 95
4, 377040, Note_on_c, 4, 62, 95
4, 377040, Note_on_c, 4, 57, 95
4, 377040, Note_on_c, 4, 50, 95
4, 377280, Note_off_c, 4, 66, 95
4, 377280, Note_off_c, 4, 62, 95
4, 377280, Note_off_c, 4, 57, 95
4, 377280, Note_off_c, 4, 50, 95
4, 377280, Note_on_c, 4, 66, 95
4, 377280, Note_on_c, 4, 62, 95
4, 377280, Note_on_c, 4, 57, 95
4, 377280, Note_on_c, 4, 50, 95
4, 377760, Note_off_c, 4, 66, 95
4, 377760, Note_off_c, 4, 62, 95
4, 377760, Note_off_c, 4, 57, 95
4, 377760, Note_off_c, 4, 50, 95
4, 377760, Note_on_c, 4, 66, 95
4, 377760, Note_on_c, 4, 62, 95
4, 377760, Note_on_c, 4, 57, 95
4, 377760, Note_on_c, 4, 50, 95
4, 378000, Note_off_c, 4, 66, 95
4, 378000, Note_off_c, 4, 62, 95
4, 378000, Note_off_c, 4, 57, 95
4, 378000, Note_off_c, 4, 50, 95
4, 378000, Note_on_c, 4, 66, 95
4, 378000, Note_on_c, 4, 62, 95
4, 378000, Note_on_c, 4, 57, 95
4, 378000, Note_on_c, 4, 50, 95
4, 378240, Note_off_c, 4, 66, 95
4, 378240, Note_off_c, 4, 62, 95
4, 378240, Note_off_c, 4, 57, 95
4, 378240, Note_off_c, 4, 50, 95
4, 378240, Note_on_c, 4, 66, 95
4, 378240, Note_on_c, 4, 62, 95
4, 378240, Note_on_c, 4, 57, 95
4, 378240, Note_on_c, 4, 50, 95
4, 378480, Note_off_c, 4, 66, 95
4, 378480, Note_off_c, 4, 62, 95
4, 378480, Note_off_c, 4, 57, 95
4, 378480, Note_off_c, 4, 50, 95
4, 378480, Note_on_c, 4, 66, 95
4, 378480, Note_on_c, 4, 62, 95
4, 378480, Note_on_c, 4, 57, 95
4, 378480, Note_on_c, 4, 50, 95
4, 378720, Note_off_c, 4, 66, 95
4, 378720, Note_off_c, 4, 62, 95
4, 378720, Note_off_c, 4, 57, 95
4, 378720, Note_off_c, 4, 50, 95
4, 378720, Note_on_c, 4, 67, 95
4, 378720, Note_on_c, 4, 59, 95
4, 378720, Note_on_c, 4, 57, 95
4, 378720, Note_on_c, 4, 50, 95
4, 378960, Note_off_c, 4, 67, 95
4, 378960, Note_off_c, 4, 59, 95
4, 378960, Note_off_c, 4, 57, 95
4, 378960, Note_off_c, 4, 50, 95
4, 378960, Note_on_c, 4, 67, 95
4, 378960, Note_on_c, 4, 59, 95
4, 378960, Note_on_c, 4, 57, 95
4, 378960, Note_on_c, 4, 50, 95
4, 379440, Note_off_c, 4, 67, 95
4, 379440, Note_off_c, 4, 59, 95
4, 379440, Note_off_c, 4, 57, 95
4, 379440, Note_off_c, 4, 50, 95
4, 379440, Note_on_c, 4, 67, 95
4, 379440, Note_on_c, 4, 59, 95
4, 379440, Note_on_c, 4, 57, 95
4, 379440, Note_on_c, 4, 50, 95
4, 379920, Note_off_c, 4, 67, 95
4, 379920, Note_off_c, 4, 59, 95
4, 379920, Note_off_c, 4, 57, 95
4, 379920, Note_off_c, 4, 50, 95
4, 379920, Note_on_c, 4, 67, 95
4, 379920, Note_on_c, 4, 59, 95
4, 379920, Note_on_c, 4, 57, 95
4, 379920, Note_on_c, 4, 50, 95
4, 380160, Note_off_c, 4, 67, 95
4, 380160, Note_off_c, 4, 59, 95
4, 380160, Note_off_c, 4, 57, 95
4, 380160, Note_off_c, 4, 50, 95
4, 380160, Note_on_c, 4, 66, 95
4, 380160, Note_on_c, 4, 62, 95
4, 380160, Note_on_c, 4, 57, 95
4, 380160, Note_on_c, 4, 50, 95
4, 380640, Note_off_c, 4, 66, 95
4, 380640, Note_off_c, 4, 62, 95
4, 380640, Note_off_c, 4, 57, 95
4, 380640, Note_off_c, 4, 50, 95
4, 380640, Note_on_c, 4, 66, 95
4, 380640, Note_on_c, 4, 62, 95
4, 380640, Note_on_c, 4, 57, 95
4, 380640, Note_on_c, 4, 50, 95
4, 380880, Note_off_c, 4, 66, 95
4, 380880, Note_off_c, 4, 62, 95
4, 380880, Note_off_c, 4, 57, 95
4, 380880, Note_off_c, 4, 50, 95
4, 380880, Note_on_c, 4, 66, 95
4, 380880, Note_on_c, 4, 62, 95
4, 380880, Note_on_c, 4, 57, 95
4, 380880, Note_on_c, 4, 50, 95
4, 381360, Note_off_c, 4, 66, 95
4, 381360, Note_off_c, 4, 62, 95
4, 381360, Note_off_c, 4, 57, 95
4, 381360, Note_off_c, 4, 50, 95
4, 381360, Note_on_c, 4, 66, 95
4, 381360, Note_on_c, 4, 62, 95
4, 381360, Note_on_c, 4, 57, 95
4, 381360, Note_on_c, 4, 50, 95
4, 381600, Note_off_c, 4, 66, 95
4, 381600, Note_off_c, 4, 62, 95
4, 381600, Note_off_c, 4, 57, 95
4, 381600, Note_off_c, 4, 50, 95
4, 381600, Note_on_c, 4, 66, 95
4, 381600, Note_on_c, 4, 62, 95
4, 381600, Note_on_c, 4, 57, 95
4, 381600, Note_on_c, 4, 50, 95
4, 382080, Note_off_c, 4, 66, 95
4, 382080, Note_off_c, 4, 62, 95
4, 382080, Note_off_c, 4, 57, 95
4, 382080, Note_off_c, 4, 50, 95
4, 382080, Note_on_c, 4, 66, 95
4, 382080, Note_on_c, 4, 62, 95
4, 382080, Note_on_c, 4, 57, 95
4, 382080, Note_on_c, 4, 50, 95
4, 382320, Note_off_c, 4, 66, 95
4, 382320, Note_off_c, 4, 62, 95
4, 382320, Note_off_c, 4, 57, 95
4, 382320, Note_off_c, 4, 50, 95
4, 382320, Note_on_c, 4, 66, 95
4, 382320, Note_on_c, 4, 62, 95
4, 382320, Note_on_c, 4, 57, 95
4, 382320, Note_on_c, 4, 50, 95
4, 382800, Note_off_c, 4, 66, 95
4, 382800, Note_off_c, 4, 62, 95
4, 382800, Note_off_c, 4, 57, 95
4, 382800, Note_off_c, 4, 50, 95
4, 382800, Note_on_c, 4, 66, 95
4, 382800, Note_on_c, 4, 62, 95
4, 382800, Note_on_c, 4, 57, 95
4, 382800, Note_on_c, 4, 50, 95
4, 383040, Note_off_c, 4, 66, 95
4, 383040, Note_off_c, 4, 62, 95
4, 383040, Note_off_c, 4, 57, 95
4, 383040, Note_off_c, 4, 50, 95
4, 383040, Note_on_c, 4, 67, 95
4, 383040, Note_on_c, 4, 59, 95
4, 383040, Note_on_c, 4, 57, 95
4, 383040, Note_on_c, 4, 50, 95
4, 383520, Note_off_c, 4, 67, 95
4, 383520, Note_off_c, 4, 59, 95
4, 383520, Note_off_c, 4, 57, 95
4, 383520, Note_off_c, 4, 50, 95
4, 383520, Note_on_c, 4, 67, 95
4, 383520, Note_on_c, 4, 59, 95
4, 383520, Note_on_c, 4, 57, 95
4, 383520, Note_on_c, 4, 50, 95
4, 383760, Note_off_c, 4, 67, 95
4, 383760, Note_off_c, 4, 59, 95
4, 383760, Note_off_c, 4, 57, 95
4, 383760, Note_off_c, 4, 50, 95
4, 383760, Note_on_c, 4, 67, 95
4, 383760, Note_on_c, 4, 59, 95
4, 383760, Note_on_c, 4, 57, 95
4, 383760, Note_on_c, 4, 50, 95
4, 384000, Note_off_c, 4, 67, 95
4, 384000, Note_off_c, 4, 59, 95
4, 384000, Note_off_c, 4, 57, 95
4, 384000, Note_off_c, 4, 50, 95
4, 384000, Note_on_c, 4, 67, 95
4, 384000, Note_on_c, 4, 59, 95
4, 384000, Note_on_c, 4, 57, 95
4, 384000, Note_on_c, 4, 50, 95
4, 384240, Note_off_c, 4, 67, 95
4, 384240, Note_off_c, 4, 59, 95
4, 384240, Note_off_c, 4, 57, 95
4, 384240, Note_off_c, 4, 50, 95
4, 384240, Note_on_c, 4, 67, 95
4, 384240, Note_on_c, 4, 59, 95
4, 384240, Note_on_c, 4, 57, 95
4, 384240, Note_on_c, 4, 50, 95
4, 384480, Note_off_c, 4, 67, 95
4, 384480, Note_off_c, 4, 59, 95
4, 384480, Note_off_c, 4, 57, 95
4, 384480, Note_off_c, 4, 50, 95
4, 384480, Note_on_c, 4, 67, 95
4, 384480, Note_on_c, 4, 59, 95
4, 384480, Note_on_c, 4, 57, 95
4, 384480, Note_on_c, 4, 50, 95
4, 384720, Note_off_c, 4, 67, 95
4, 384720, Note_off_c, 4, 59, 95
4, 384720, Note_off_c, 4, 57, 95
4, 384720, Note_off_c, 4, 50, 95
4, 384720, Note_on_c, 4, 67, 95
4, 384720, Note_on_c, 4, 59, 95
4, 384720, Note_on_c, 4, 57, 95
4, 384720, Note_on_c, 4, 50, 95
4, 384960, Note_off_c, 4, 67, 95
4, 384960, Note_off_c, 4, 59, 95
4, 384960, Note_off_c, 4, 57, 95
4, 384960, Note_off_c, 4, 50, 95
4, 384960, Note_on_c, 4, 67, 95
4, 384960, Note_on_c, 4, 59, 95
4, 384960, Note_on_c, 4, 57, 95
4, 384960, Note_on_c, 4, 50, 95
4, 385200, Note_off_c, 4, 67, 95
4, 385200, Note_off_c, 4, 59, 95
4, 385200, Note_off_c, 4, 57, 95
4, 385200, Note_off_c, 4, 50, 95
4, 385200, Note_on_c, 4, 67, 95
4, 385200, Note_on_c, 4, 59, 95
4, 385200, Note_on_c, 4, 57, 95
4, 385200, Note_on_c, 4, 50, 95
4, 385440, Note_off_c, 4, 67, 95
4, 385440, Note_off_c, 4, 59, 95
4, 385440, Note_off_c, 4, 57, 95
4, 385440, Note_off_c, 4, 50, 95
4, 385440, Note_on_c, 4, 67, 95
4, 385440, Note_on_c, 4, 59, 95
4, 385440, Note_on_c, 4, 57, 95
4, 385440, Note_on_c, 4, 50, 95
4, 385680, Note_off_c, 4, 67, 95
4, 385680, Note_off_c, 4, 59, 95
4, 385680, Note_off_c, 4, 57, 95
4, 385680, Note_off_c, 4, 50, 95
4, 385680, Note_on_c, 4, 67, 95
4, 385680, Note_on_c, 4, 59, 95
4, 385680, Note_on_c, 4, 57, 95
4, 385680, Note_on_c, 4, 50, 95
4, 385920, Note_off_c, 4, 67, 95
4, 385920, Note_off_c, 4, 59, 95
4, 385920, Note_off_c, 4, 57, 95
4, 385920, Note_off_c, 4, 50, 95
4, 385920, Note_on_c, 4, 64, 95
4, 385920, Note_on_c, 4, 59, 95
4, 385920, Note_on_c, 4, 55, 95
4, 385920, Note_on_c, 4, 52, 95
4, 385920, Note_on_c, 4, 47, 95
4, 385920, Note_on_c, 4, 40, 95
4, 386400, Note_off_c, 4, 64, 95
4, 386400, Note_off_c, 4, 59, 95
4, 386400, Note_off_c, 4, 55, 95
4, 386400, Note_off_c, 4, 52, 95
4, 386400, Note_off_c, 4, 47, 95
4, 386400, Note_off_c, 4, 40, 95
4, 386400, Note_on_c, 4, 64, 95
4, 386400, Note_on_c, 4, 59, 95
4, 386400, Note_on_c, 4, 55, 95
4, 386400, Note_on_c, 4, 52, 95
4, 386400, Note_on_c, 4, 47, 95
4, 386400, Note_on_c, 4, 40, 95
4, 386640, Note_off_c, 4, 64, 95
4, 386640, Note_off_c, 4, 59, 95
4, 386640, Note_off_c, 4, 55, 95
4, 386640, Note_off_c, 4, 52, 95
4, 386640, Note_off_c, 4, 47, 95
4, 386640, Note_off_c, 4, 40, 95
4, 386640, Note_on_c, 4, 64, 95
4, 386640, Note_on_c, 4, 59, 95
4, 386640, Note_on_c, 4, 55, 95
4, 386640, Note_on_c, 4, 52, 95
4, 386640, Note_on_c, 4, 47, 95
4, 386640, Note_on_c, 4, 40, 95
4, 386880, Note_off_c, 4, 64, 95
4, 386880, Note_off_c, 4, 59, 95
4, 386880, Note_off_c, 4, 55, 95
4, 386880, Note_off_c, 4, 52, 95
4, 386880, Note_off_c, 4, 47, 95
4, 386880, Note_off_c, 4, 40, 95
4, 386880, Note_on_c, 4, 64, 95
4, 386880, Note_on_c, 4, 59, 95
4, 386880, Note_on_c, 4, 55, 95
4, 386880, Note_on_c, 4, 52, 95
4, 386880, Note_on_c, 4, 47, 95
4, 386880, Note_on_c, 4, 40, 95
4, 387120, Note_off_c, 4, 64, 95
4, 387120, Note_off_c, 4, 59, 95
4, 387120, Note_off_c, 4, 55, 95
4, 387120, Note_off_c, 4, 52, 95
4, 387120, Note_off_c, 4, 47, 95
4, 387120, Note_off_c, 4, 40, 95
4, 387120, Note_on_c, 4, 64, 95
4, 387120, Note_on_c, 4, 59, 95
4, 387120, Note_on_c, 4, 55, 95
4, 387120, Note_on_c, 4, 52, 95
4, 387120, Note_on_c, 4, 47, 95
4, 387120, Note_on_c, 4, 40, 95
4, 387360, Note_off_c, 4, 64, 95
4, 387360, Note_off_c, 4, 59, 95
4, 387360, Note_off_c, 4, 55, 95
4, 387360, Note_off_c, 4, 52, 95
4, 387360, Note_off_c, 4, 47, 95
4, 387360, Note_off_c, 4, 40, 95
4, 387360, Note_on_c, 4, 64, 95
4, 387360, Note_on_c, 4, 59, 95
4, 387360, Note_on_c, 4, 55, 95
4, 387360, Note_on_c, 4, 52, 95
4, 387360, Note_on_c, 4, 47, 95
4, 387360, Note_on_c, 4, 40, 95
4, 387840, Note_off_c, 4, 64, 95
4, 387840, Note_off_c, 4, 59, 95
4, 387840, Note_off_c, 4, 55, 95
4, 387840, Note_off_c, 4, 52, 95
4, 387840, Note_off_c, 4, 47, 95
4, 387840, Note_off_c, 4, 40, 95
4, 387840, Note_on_c, 4, 64, 111
4, 387840, Note_on_c, 4, 59, 111
4, 387840, Note_on_c, 4, 55, 111
4, 387840, Note_on_c, 4, 52, 111
4, 387840, Note_on_c, 4, 47, 111
4, 387840, Note_on_c, 4, 40, 111
4, 388080, Note_off_c, 4, 64, 111
4, 388080, Note_off_c, 4, 59, 111
4, 388080, Note_off_c, 4, 55, 111
4, 388080, Note_off_c, 4, 52, 111
4, 388080, Note_off_c, 4, 47, 111
4, 388080, Note_off_c, 4, 40, 111
4, 388080, Note_on_c, 4, 64, 95
4, 388080, Note_on_c, 4, 59, 95
4, 388080, Note_on_c, 4, 55, 95
4, 388080, Note_on_c, 4, 52, 95
4, 388080, Note_on_c, 4, 47, 95
4, 388080, Note_on_c, 4, 40, 95
4, 388320, Note_off_c, 4, 64, 95
4, 388320, Note_off_c, 4, 59, 95
4, 388320, Note_off_c, 4, 55, 95
4, 388320, Note_off_c, 4, 52, 95
4, 388320, Note_off_c, 4, 47, 95
4, 388320, Note_off_c, 4, 40, 95
4, 388320, Note_on_c, 4, 64, 95
4, 388320, Note_on_c, 4, 59, 95
4, 388320, Note_on_c, 4, 55, 95
4, 388320, Note_on_c, 4, 52, 95
4, 388320, Note_on_c, 4, 47, 95
4, 388320, Note_on_c, 4, 40, 95
4, 388560, Note_off_c, 4, 64, 95
4, 388560, Note_off_c, 4, 59, 95
4, 388560, Note_off_c, 4, 55, 95
4, 388560, Note_off_c, 4, 52, 95
4, 388560, Note_off_c, 4, 47, 95
4, 388560, Note_off_c, 4, 40, 95
4, 388560, Note_on_c, 4, 64, 95
4, 388560, Note_on_c, 4, 59, 95
4, 388560, Note_on_c, 4, 55, 95
4, 388560, Note_on_c, 4, 52, 95
4, 388560, Note_on_c, 4, 47, 95
4, 388560, Note_on_c, 4, 40, 95
4, 388800, Note_off_c, 4, 64, 95
4, 388800, Note_off_c, 4, 59, 95
4, 388800, Note_off_c, 4, 55, 95
4, 388800, Note_off_c, 4, 52, 95
4, 388800, Note_off_c, 4, 47, 95
4, 388800, Note_off_c, 4, 40, 95
4, 388800, Note_on_c, 4, 64, 95
4, 388800, Note_on_c, 4, 59, 95
4, 388800, Note_on_c, 4, 55, 95
4, 388800, Note_on_c, 4, 52, 95
4, 388800, Note_on_c, 4, 47, 95
4, 388800, Note_on_c, 4, 40, 95
4, 389280, Note_off_c, 4, 64, 95
4, 389280, Note_off_c, 4, 59, 95
4, 389280, Note_off_c, 4, 55, 95
4, 389280, Note_off_c, 4, 52, 95
4, 389280, Note_off_c, 4, 47, 95
4, 389280, Note_off_c, 4, 40, 95
4, 389280, Note_on_c, 4, 64, 95
4, 389280, Note_on_c, 4, 59, 95
4, 389280, Note_on_c, 4, 55, 95
4, 389280, Note_on_c, 4, 52, 95
4, 389280, Note_on_c, 4, 47, 95
4, 389280, Note_on_c, 4, 40, 95
4, 389520, Note_off_c, 4, 64, 95
4, 389520, Note_off_c, 4, 59, 95
4, 389520, Note_off_c, 4, 55, 95
4, 389520, Note_off_c, 4, 52, 95
4, 389520, Note_off_c, 4, 47, 95
4, 389520, Note_off_c, 4, 40, 95
4, 389520, Note_on_c, 4, 64, 95
4, 389520, Note_on_c, 4, 59, 95
4, 389520, Note_on_c, 4, 55, 95
4, 389520, Note_on_c, 4, 52, 95
4, 389520, Note_on_c, 4, 47, 95
4, 389520, Note_on_c, 4, 40, 95
4, 389760, Note_off_c, 4, 64, 95
4, 389760, Note_off_c, 4, 59, 95
4, 389760, Note_off_c, 4, 55, 95
4, 389760, Note_off_c, 4, 52, 95
4, 389760, Note_off_c, 4, 47, 95
4, 389760, Note_off_c, 4, 40, 95
4, 389760, Note_on_c, 4, 64, 95
4, 389760, Note_on_c, 4, 59, 95
4, 389760, Note_on_c, 4, 55, 95
4, 389760, Note_on_c, 4, 52, 95
4, 389760, Note_on_c, 4, 47, 95
4, 389760, Note_on_c, 4, 40, 95
4, 390000, Note_off_c, 4, 64, 95
4, 390000, Note_off_c, 4, 59, 95
4, 390000, Note_off_c, 4, 55, 95
4, 390000, Note_off_c, 4, 52, 95
4, 390000, Note_off_c, 4, 47, 95
4, 390000, Note_off_c, 4, 40, 95
4, 390000, Note_on_c, 4, 64, 95
4, 390000, Note_on_c, 4, 59, 95
4, 390000, Note_on_c, 4, 55, 95
4, 390000, Note_on_c, 4, 52, 95
4, 390000, Note_on_c, 4, 47, 95
4, 390000, Note_on_c, 4, 40, 95
4, 390240, Note_off_c, 4, 64, 95
4, 390240, Note_off_c, 4, 59, 95
4, 390240, Note_off_c, 4, 55, 95
4, 390240, Note_off_c, 4, 52, 95
4, 390240, Note_off_c, 4, 47, 95
4, 390240, Note_off_c, 4, 40, 95
4, 390240, Note_on_c, 4, 64, 95
4, 390240, Note_on_c, 4, 59, 95
4, 390240, Note_on_c, 4, 55, 95
4, 390240, Note_on_c, 4, 52, 95
4, 390240, Note_on_c, 4, 47, 95
4, 390240, Note_on_c, 4, 40, 95
4, 390720, Note_off_c, 4, 64, 95
4, 390720, Note_off_c, 4, 59, 95
4, 390720, Note_off_c, 4, 55, 95
4, 390720, Note_off_c, 4, 52, 95
4, 390720, Note_off_c, 4, 47, 95
4, 390720, Note_off_c, 4, 40, 95
4, 390720, Note_on_c, 4, 64, 111
4, 390720, Note_on_c, 4, 59, 111
4, 390720, Note_on_c, 4, 55, 111
4, 390720, Note_on_c, 4, 52, 111
4, 390720, Note_on_c, 4, 47, 111
4, 390720, Note_on_c, 4, 40, 111
4, 390960, Note_off_c, 4, 64, 111
4, 390960, Note_off_c, 4, 59, 111
4, 390960, Note_off_c, 4, 55, 111
4, 390960, Note_off_c, 4, 52, 111
4, 390960, Note_off_c, 4, 47, 111
4, 390960, Note_off_c, 4, 40, 111
4, 390960, Note_on_c, 4, 64, 95
4, 390960, Note_on_c, 4, 59, 95
4, 390960, Note_on_c, 4, 55, 95
4, 390960, Note_on_c, 4, 52, 95
4, 390960, Note_on_c, 4, 47, 95
4, 390960, Note_on_c, 4, 40, 95
4, 391200, Note_off_c, 4, 64, 95
4, 391200, Note_off_c, 4, 59, 95
4, 391200, Note_off_c, 4, 55, 95
4, 391200, Note_off_c, 4, 52, 95
4, 391200, Note_off_c, 4, 47, 95
4, 391200, Note_off_c, 4, 40, 95
4, 391200, Note_on_c, 4, 64, 95
4, 391200, Note_on_c, 4, 59, 95
4, 391200, Note_on_c, 4, 55, 95
4, 391200, Note_on_c, 4, 52, 95
4, 391200, Note_on_c, 4, 47, 95
4, 391200, Note_on_c, 4, 40, 95
4, 391440, Note_off_c, 4, 64, 95
4, 391440, Note_off_c, 4, 59, 95
4, 391440, Note_off_c, 4, 55, 95
4, 391440, Note_off_c, 4, 52, 95
4, 391440, Note_off_c, 4, 47, 95
4, 391440, Note_off_c, 4, 40, 95
4, 391440, Note_on_c, 4, 64, 95
4, 391440, Note_on_c, 4, 59, 95
4, 391440, Note_on_c, 4, 55, 95
4, 391440, Note_on_c, 4, 52, 95
4, 391440, Note_on_c, 4, 47, 95
4, 391440, Note_on_c, 4, 40, 95
4, 391680, Note_off_c, 4, 64, 95
4, 391680, Note_off_c, 4, 59, 95
4, 391680, Note_off_c, 4, 55, 95
4, 391680, Note_off_c, 4, 52, 95
4, 391680, Note_off_c, 4, 47, 95
4, 391680, Note_off_c, 4, 40, 95
4, 391680, Note_on_c, 4, 64, 95
4, 391680, Note_on_c, 4, 55, 95
4, 391680, Note_on_c, 4, 53, 95
4, 391680, Note_on_c, 4, 48, 95
4, 391680, Note_on_c, 4, 41, 95
4, 392160, Note_off_c, 4, 64, 95
4, 392160, Note_off_c, 4, 55, 95
4, 392160, Note_off_c, 4, 53, 95
4, 392160, Note_off_c, 4, 48, 95
4, 392160, Note_off_c, 4, 41, 95
4, 392160, Note_on_c, 4, 64, 95
4, 392160, Note_on_c, 4, 55, 95
4, 392160, Note_on_c, 4, 53, 95
4, 392160, Note_on_c, 4, 48, 95
4, 392160, Note_on_c, 4, 41, 95
4, 392400, Note_off_c, 4, 64, 95
4, 392400, Note_off_c, 4, 55, 95
4, 392400, Note_off_c, 4, 53, 95
4, 392400, Note_off_c, 4, 48, 95
4, 392400, Note_off_c, 4, 41, 95
4, 392400, Note_on_c, 4, 64, 95
4, 392400, Note_on_c, 4, 55, 95
4, 392400, Note_on_c, 4, 53, 95
4, 392400, Note_on_c, 4, 48, 95
4, 392400, Note_on_c, 4, 41, 95
4, 392640, Note_off_c, 4, 64, 95
4, 392640, Note_off_c, 4, 55, 95
4, 392640, Note_off_c, 4, 53, 95
4, 392640, Note_off_c, 4, 48, 95
4, 392640, Note_off_c, 4, 41, 95
4, 392640, Note_on_c, 4, 64, 95
4, 392640, Note_on_c, 4, 55, 95
4, 392640, Note_on_c, 4, 53, 95
4, 392640, Note_on_c, 4, 48, 95
4, 392640, Note_on_c, 4, 41, 95
4, 392880, Note_off_c, 4, 64, 95
4, 392880, Note_off_c, 4, 55, 95
4, 392880, Note_off_c, 4, 53, 95
4, 392880, Note_off_c, 4, 48, 95
4, 392880, Note_off_c, 4, 41, 95
4, 392880, Note_on_c, 4, 64, 95
4, 392880, Note_on_c, 4, 55, 95
4, 392880, Note_on_c, 4, 53, 95
4, 392880, Note_on_c, 4, 48, 95
4, 392880, Note_on_c, 4, 41, 95
4, 393120, Note_off_c, 4, 64, 95
4, 393120, Note_off_c, 4, 55, 95
4, 393120, Note_off_c, 4, 53, 95
4, 393120, Note_off_c, 4, 48, 95
4, 393120, Note_off_c, 4, 41, 95
4, 393120, Note_on_c, 4, 64, 95
4, 393120, Note_on_c, 4, 55, 95
4, 393120, Note_on_c, 4, 53, 95
4, 393120, Note_on_c, 4, 48, 95
4, 393120, Note_on_c, 4, 41, 95
4, 393600, Note_off_c, 4, 64, 95
4, 393600, Note_off_c, 4, 55, 95
4, 393600, Note_off_c, 4, 53, 95
4, 393600, Note_off_c, 4, 48, 95
4, 393600, Note_off_c, 4, 41, 95
4, 393600, Note_on_c, 4, 64, 111
4, 393600, Note_on_c, 4, 55, 111
4, 393600, Note_on_c, 4, 53, 111
4, 393600, Note_on_c, 4, 48, 111
4, 393600, Note_on_c, 4, 41, 111
4, 393840, Note_off_c, 4, 64, 111
4, 393840, Note_off_c, 4, 55, 111
4, 393840, Note_off_c, 4, 53, 111
4, 393840, Note_off_c, 4, 48, 111
4, 393840, Note_off_c, 4, 41, 111
4, 393840, Note_on_c, 4, 64, 95
4, 393840, Note_on_c, 4, 55, 95
4, 393840, Note_on_c, 4, 53, 95
4, 393840, Note_on_c, 4, 48, 95
4, 393840, Note_on_c, 4, 41, 95
4, 394080, Note_off_c, 4, 64, 95
4, 394080, Note_off_c, 4, 55, 95
4, 394080, Note_off_c, 4, 53, 95
4, 394080, Note_off_c, 4, 48, 95
4, 394080, Note_off_c, 4, 41, 95
4, 394080, Note_on_c, 4, 64, 95
4, 394080, Note_on_c, 4, 55, 95
4, 394080, Note_on_c, 4, 53, 95
4, 394080, Note_on_c, 4, 48, 95
4, 394080, Note_on_c, 4, 41, 95
4, 394320, Note_off_c, 4, 64, 95
4, 394320, Note_off_c, 4, 55, 95
4, 394320, Note_off_c, 4, 53, 95
4, 394320, Note_off_c, 4, 48, 95
4, 394320, Note_off_c, 4, 41, 95
4, 394320, Note_on_c, 4, 64, 95
4, 394320, Note_on_c, 4, 55, 95
4, 394320, Note_on_c, 4, 53, 95
4, 394320, Note_on_c, 4, 48, 95
4, 394320, Note_on_c, 4, 41, 95
4, 394560, Note_off_c, 4, 64, 95
4, 394560, Note_off_c, 4, 55, 95
4, 394560, Note_off_c, 4, 53, 95
4, 394560, Note_off_c, 4, 48, 95
4, 394560, Note_off_c, 4, 41, 95
4, 394560, Note_on_c, 4, 64, 95
4, 394560, Note_on_c, 4, 59, 95
4, 394560, Note_on_c, 4, 55, 95
4, 394560, Note_on_c, 4, 52, 95
4, 394560, Note_on_c, 4, 47, 95
4, 394560, Note_on_c, 4, 40, 95
4, 395040, Note_off_c, 4, 64, 95
4, 395040, Note_off_c, 4, 59, 95
4, 395040, Note_off_c, 4, 55, 95
4, 395040, Note_off_c, 4, 52, 95
4, 395040, Note_off_c, 4, 47, 95
4, 395040, Note_off_c, 4, 40, 95
4, 395040, Note_on_c, 4, 64, 95
4, 395040, Note_on_c, 4, 59, 95
4, 395040, Note_on_c, 4, 55, 95
4, 395040, Note_on_c, 4, 52, 95
4, 395040, Note_on_c, 4, 47, 95
4, 395040, Note_on_c, 4, 40, 95
4, 395280, Note_off_c, 4, 64, 95
4, 395280, Note_off_c, 4, 59, 95
4, 395280, Note_off_c, 4, 55, 95
4, 395280, Note_off_c, 4, 52, 95
4, 395280, Note_off_c, 4, 47, 95
4, 395280, Note_off_c, 4, 40, 95
4, 395280, Note_on_c, 4, 64, 95
4, 395280, Note_on_c, 4, 59, 95
4, 395280, Note_on_c, 4, 55, 95
4, 395280, Note_on_c, 4, 52, 95
4, 395280, Note_on_c, 4, 47, 95
4, 395280, Note_on_c, 4, 40, 95
4, 395520, Note_off_c, 4, 64, 95
4, 395520, Note_off_c, 4, 59, 95
4, 395520, Note_off_c, 4, 55, 95
4, 395520, Note_off_c, 4, 52, 95
4, 395520, Note_off_c, 4, 47, 95
4, 395520, Note_off_c, 4, 40, 95
4, 395520, Note_on_c, 4, 64, 95
4, 395520, Note_on_c, 4, 59, 95
4, 395520, Note_on_c, 4, 55, 95
4, 395520, Note_on_c, 4, 52, 95
4, 395520, Note_on_c, 4, 47, 95
4, 395520, Note_on_c, 4, 40, 95
4, 395760, Note_off_c, 4, 64, 95
4, 395760, Note_off_c, 4, 59, 95
4, 395760, Note_off_c, 4, 55, 95
4, 395760, Note_off_c, 4, 52, 95
4, 395760, Note_off_c, 4, 47, 95
4, 395760, Note_off_c, 4, 40, 95
4, 395760, Note_on_c, 4, 64, 95
4, 395760, Note_on_c, 4, 59, 95
4, 395760, Note_on_c, 4, 55, 95
4, 395760, Note_on_c, 4, 52, 95
4, 395760, Note_on_c, 4, 47, 95
4, 395760, Note_on_c, 4, 40, 95
4, 396000, Note_off_c, 4, 64, 95
4, 396000, Note_off_c, 4, 59, 95
4, 396000, Note_off_c, 4, 55, 95
4, 396000, Note_off_c, 4, 52, 95
4, 396000, Note_off_c, 4, 47, 95
4, 396000, Note_off_c, 4, 40, 95
4, 396000, Note_on_c, 4, 64, 95
4, 396000, Note_on_c, 4, 59, 95
4, 396000, Note_on_c, 4, 55, 95
4, 396000, Note_on_c, 4, 52, 95
4, 396000, Note_on_c, 4, 47, 95
4, 396000, Note_on_c, 4, 40, 95
4, 396480, Note_off_c, 4, 64, 95
4, 396480, Note_off_c, 4, 59, 95
4, 396480, Note_off_c, 4, 55, 95
4, 396480, Note_off_c, 4, 52, 95
4, 396480, Note_off_c, 4, 47, 95
4, 396480, Note_off_c, 4, 40, 95
4, 396480, Note_on_c, 4, 64, 111
4, 396480, Note_on_c, 4, 59, 111
4, 396480, Note_on_c, 4, 55, 111
4, 396480, Note_on_c, 4, 52, 111
4, 396480, Note_on_c, 4, 47, 111
4, 396480, Note_on_c, 4, 40, 111
4, 396720, Note_off_c, 4, 64, 111
4, 396720, Note_off_c, 4, 59, 111
4, 396720, Note_off_c, 4, 55, 111
4, 396720, Note_off_c, 4, 52, 111
4, 396720, Note_off_c, 4, 47, 111
4, 396720, Note_off_c, 4, 40, 111
4, 396720, Note_on_c, 4, 64, 95
4, 396720, Note_on_c, 4, 59, 95
4, 396720, Note_on_c, 4, 55, 95
4, 396720, Note_on_c, 4, 52, 95
4, 396720, Note_on_c, 4, 47, 95
4, 396720, Note_on_c, 4, 40, 95
4, 396960, Note_off_c, 4, 64, 95
4, 396960, Note_off_c, 4, 59, 95
4, 396960, Note_off_c, 4, 55, 95
4, 396960, Note_off_c, 4, 52, 95
4, 396960, Note_off_c, 4, 47, 95
4, 396960, Note_off_c, 4, 40, 95
4, 396960, Note_on_c, 4, 64, 95
4, 396960, Note_on_c, 4, 59, 95
4, 396960, Note_on_c, 4, 55, 95
4, 396960, Note_on_c, 4, 52, 95
4, 396960, Note_on_c, 4, 47, 95
4, 396960, Note_on_c, 4, 40, 95
4, 397200, Note_off_c, 4, 64, 95
4, 397200, Note_off_c, 4, 59, 95
4, 397200, Note_off_c, 4, 55, 95
4, 397200, Note_off_c, 4, 52, 95
4, 397200, Note_off_c, 4, 47, 95
4, 397200, Note_off_c, 4, 40, 95
4, 397200, Note_on_c, 4, 64, 95
4, 397200, Note_on_c, 4, 59, 95
4, 397200, Note_on_c, 4, 55, 95
4, 397200, Note_on_c, 4, 52, 95
4, 397200, Note_on_c, 4, 47, 95
4, 397200, Note_on_c, 4, 40, 95
4, 397440, Note_off_c, 4, 64, 95
4, 397440, Note_off_c, 4, 59, 95
4, 397440, Note_off_c, 4, 55, 95
4, 397440, Note_off_c, 4, 52, 95
4, 397440, Note_off_c, 4, 47, 95
4, 397440, Note_off_c, 4, 40, 95
4, 397440, Note_on_c, 4, 64, 95
4, 397440, Note_on_c, 4, 59, 95
4, 397440, Note_on_c, 4, 55, 95
4, 397440, Note_on_c, 4, 51, 95
4, 397440, Note_on_c, 4, 46, 95
4, 397440, Note_on_c, 4, 39, 95
4, 397920, Note_off_c, 4, 64, 95
4, 397920, Note_off_c, 4, 59, 95
4, 397920, Note_off_c, 4, 55, 95
4, 397920, Note_off_c, 4, 51, 95
4, 397920, Note_off_c, 4, 46, 95
4, 397920, Note_off_c, 4, 39, 95
4, 397920, Note_on_c, 4, 64, 95
4, 397920, Note_on_c, 4, 59, 95
4, 397920, Note_on_c, 4, 55, 95
4, 397920, Note_on_c, 4, 51, 95
4, 397920, Note_on_c, 4, 46, 95
4, 397920, Note_on_c, 4, 39, 95
4, 398160, Note_off_c, 4, 64, 95
4, 398160, Note_off_c, 4, 59, 95
4, 398160, Note_off_c, 4, 55, 95
4, 398160, Note_off_c, 4, 51, 95
4, 398160, Note_off_c, 4, 46, 95
4, 398160, Note_off_c, 4, 39, 95
4, 398160, Note_on_c, 4, 64, 95
4, 398160, Note_on_c, 4, 59, 95
4, 398160, Note_on_c, 4, 55, 95
4, 398160, Note_on_c, 4, 51, 95
4, 398160, Note_on_c, 4, 46, 95
4, 398160, Note_on_c, 4, 39, 95
4, 398400, Note_off_c, 4, 64, 95
4, 398400, Note_off_c, 4, 59, 95
4, 398400, Note_off_c, 4, 55, 95
4, 398400, Note_off_c, 4, 51, 95
4, 398400, Note_off_c, 4, 46, 95
4, 398400, Note_off_c, 4, 39, 95
4, 398400, Note_on_c, 4, 64, 95
4, 398400, Note_on_c, 4, 59, 95
4, 398400, Note_on_c, 4, 55, 95
4, 398400, Note_on_c, 4, 51, 95
4, 398400, Note_on_c, 4, 46, 95
4, 398400, Note_on_c, 4, 39, 95
4, 398640, Note_off_c, 4, 64, 95
4, 398640, Note_off_c, 4, 59, 95
4, 398640, Note_off_c, 4, 55, 95
4, 398640, Note_off_c, 4, 51, 95
4, 398640, Note_off_c, 4, 46, 95
4, 398640, Note_off_c, 4, 39, 95
4, 398640, Note_on_c, 4, 64, 95
4, 398640, Note_on_c, 4, 59, 95
4, 398640, Note_on_c, 4, 55, 95
4, 398640, Note_on_c, 4, 51, 95
4, 398640, Note_on_c, 4, 46, 95
4, 398640, Note_on_c, 4, 39, 95
4, 398880, Note_off_c, 4, 64, 95
4, 398880, Note_off_c, 4, 59, 95
4, 398880, Note_off_c, 4, 55, 95
4, 398880, Note_off_c, 4, 51, 95
4, 398880, Note_off_c, 4, 46, 95
4, 398880, Note_off_c, 4, 39, 95
4, 398880, Note_on_c, 4, 64, 95
4, 398880, Note_on_c, 4, 59, 95
4, 398880, Note_on_c, 4, 55, 95
4, 398880, Note_on_c, 4, 51, 95
4, 398880, Note_on_c, 4, 46, 95
4, 398880, Note_on_c, 4, 39, 95
4, 399360, Note_off_c, 4, 64, 95
4, 399360, Note_off_c, 4, 59, 95
4, 399360, Note_off_c, 4, 55, 95
4, 399360, Note_off_c, 4, 51, 95
4, 399360, Note_off_c, 4, 46, 95
4, 399360, Note_off_c, 4, 39, 95
4, 399360, Note_on_c, 4, 64, 111
4, 399360, Note_on_c, 4, 59, 111
4, 399360, Note_on_c, 4, 55, 111
4, 399360, Note_on_c, 4, 51, 111
4, 399360, Note_on_c, 4, 46, 111
4, 399360, Note_on_c, 4, 39, 111
4, 399600, Note_off_c, 4, 64, 111
4, 399600, Note_off_c, 4, 59, 111
4, 399600, Note_off_c, 4, 55, 111
4, 399600, Note_off_c, 4, 51, 111
4, 399600, Note_off_c, 4, 46, 111
4, 399600, Note_off_c, 4, 39, 111
4, 399600, Note_on_c, 4, 64, 95
4, 399600, Note_on_c, 4, 59, 95
4, 399600, Note_on_c, 4, 55, 95
4, 399600, Note_on_c, 4, 51, 95
4, 399600, Note_on_c, 4, 46, 95
4, 399600, Note_on_c, 4, 39, 95
4, 399840, Note_off_c, 4, 64, 95
4, 399840, Note_off_c, 4, 59, 95
4, 399840, Note_off_c, 4, 55, 95
4, 399840, Note_off_c, 4, 51, 95
4, 399840, Note_off_c, 4, 46, 95
4, 399840, Note_off_c, 4, 39, 95
4, 399840, Note_on_c, 4, 64, 95
4, 399840, Note_on_c, 4, 59, 95
4, 399840, Note_on_c, 4, 55, 95
4, 399840, Note_on_c, 4, 51, 95
4, 399840, Note_on_c, 4, 46, 95
4, 399840, Note_on_c, 4, 39, 95
4, 400080, Note_off_c, 4, 64, 95
4, 400080, Note_off_c, 4, 59, 95
4, 400080, Note_off_c, 4, 55, 95
4, 400080, Note_off_c, 4, 51, 95
4, 400080, Note_off_c, 4, 46, 95
4, 400080, Note_off_c, 4, 39, 95
4, 400080, Note_on_c, 4, 64, 95
4, 400080, Note_on_c, 4, 59, 95
4, 400080, Note_on_c, 4, 55, 95
4, 400080, Note_on_c, 4, 51, 95
4, 400080, Note_on_c, 4, 46, 95
4, 400080, Note_on_c, 4, 39, 95
4, 400320, Note_off_c, 4, 64, 95
4, 400320, Note_off_c, 4, 59, 95
4, 400320, Note_off_c, 4, 55, 95
4, 400320, Note_off_c, 4, 51, 95
4, 400320, Note_off_c, 4, 46, 95
4, 400320, Note_off_c, 4, 39, 95
4, 400320, Note_on_c, 4, 64, 95
4, 400320, Note_on_c, 4, 59, 95
4, 400320, Note_on_c, 4, 55, 95
4, 400320, Note_on_c, 4, 51, 95
4, 400320, Note_on_c, 4, 46, 95
4, 400320, Note_on_c, 4, 39, 95
4, 400800, Note_off_c, 4, 64, 95
4, 400800, Note_off_c, 4, 59, 95
4, 400800, Note_off_c, 4, 55, 95
4, 400800, Note_off_c, 4, 51, 95
4, 400800, Note_off_c, 4, 46, 95
4, 400800, Note_off_c, 4, 39, 95
4, 400800, Note_on_c, 4, 64, 95
4, 400800, Note_on_c, 4, 59, 95
4, 400800, Note_on_c, 4, 55, 95
4, 400800, Note_on_c, 4, 51, 95
4, 400800, Note_on_c, 4, 46, 95
4, 400800, Note_on_c, 4, 39, 95
4, 401040, Note_off_c, 4, 64, 95
4, 401040, Note_off_c, 4, 59, 95
4, 401040, Note_off_c, 4, 55, 95
4, 401040, Note_off_c, 4, 51, 95
4, 401040, Note_off_c, 4, 46, 95
4, 401040, Note_off_c, 4, 39, 95
4, 401040, Note_on_c, 4, 64, 95
4, 401040, Note_on_c, 4, 59, 95
4, 401040, Note_on_c, 4, 55, 95
4, 401040, Note_on_c, 4, 51, 95
4, 401040, Note_on_c, 4, 46, 95
4, 401040, Note_on_c, 4, 39, 95
4, 401280, Note_off_c, 4, 64, 95
4, 401280, Note_off_c, 4, 59, 95
4, 401280, Note_off_c, 4, 55, 95
4, 401280, Note_off_c, 4, 51, 95
4, 401280, Note_off_c, 4, 46, 95
4, 401280, Note_off_c, 4, 39, 95
4, 401280, Note_on_c, 4, 64, 95
4, 401280, Note_on_c, 4, 59, 95
4, 401280, Note_on_c, 4, 55, 95
4, 401280, Note_on_c, 4, 51, 95
4, 401280, Note_on_c, 4, 46, 95
4, 401280, Note_on_c, 4, 39, 95
4, 401520, Note_off_c, 4, 64, 95
4, 401520, Note_off_c, 4, 59, 95
4, 401520, Note_off_c, 4, 55, 95
4, 401520, Note_off_c, 4, 51, 95
4, 401520, Note_off_c, 4, 46, 95
4, 401520, Note_off_c, 4, 39, 95
4, 401520, Note_on_c, 4, 64, 95
4, 401520, Note_on_c, 4, 59, 95
4, 401520, Note_on_c, 4, 55, 95
4, 401520, Note_on_c, 4, 51, 95
4, 401520, Note_on_c, 4, 46, 95
4, 401520, Note_on_c, 4, 39, 95
4, 401760, Note_off_c, 4, 64, 95
4, 401760, Note_off_c, 4, 59, 95
4, 401760, Note_off_c, 4, 55, 95
4, 401760, Note_off_c, 4, 51, 95
4, 401760, Note_off_c, 4, 46, 95
4, 401760, Note_off_c, 4, 39, 95
4, 401760, Note_on_c, 4, 64, 95
4, 401760, Note_on_c, 4, 59, 95
4, 401760, Note_on_c, 4, 55, 95
4, 401760, Note_on_c, 4, 51, 95
4, 401760, Note_on_c, 4, 46, 95
4, 401760, Note_on_c, 4, 39, 95
4, 402240, Note_off_c, 4, 64, 95
4, 402240, Note_off_c, 4, 59, 95
4, 402240, Note_off_c, 4, 55, 95
4, 402240, Note_off_c, 4, 51, 95
4, 402240, Note_off_c, 4, 46, 95
4, 402240, Note_off_c, 4, 39, 95
4, 402240, Note_on_c, 4, 64, 111
4, 402240, Note_on_c, 4, 59, 111
4, 402240, Note_on_c, 4, 55, 111
4, 402240, Note_on_c, 4, 51, 111
4, 402240, Note_on_c, 4, 46, 111
4, 402240, Note_on_c, 4, 39, 111
4, 402480, Note_off_c, 4, 64, 111
4, 402480, Note_off_c, 4, 59, 111
4, 402480, Note_off_c, 4, 55, 111
4, 402480, Note_off_c, 4, 51, 111
4, 402480, Note_off_c, 4, 46, 111
4, 402480, Note_off_c, 4, 39, 111
4, 402480, Note_on_c, 4, 64, 95
4, 402480, Note_on_c, 4, 59, 95
4, 402480, Note_on_c, 4, 55, 95
4, 402480, Note_on_c, 4, 51, 95
4, 402480, Note_on_c, 4, 46, 95
4, 402480, Note_on_c, 4, 39, 95
4, 402720, Note_off_c, 4, 64, 95
4, 402720, Note_off_c, 4, 59, 95
4, 402720, Note_off_c, 4, 55, 95
4, 402720, Note_off_c, 4, 51, 95
4, 402720, Note_off_c, 4, 46, 95
4, 402720, Note_off_c, 4, 39, 95
4, 402720, Note_on_c, 4, 64, 95
4, 402720, Note_on_c, 4, 59, 95
4, 402720, Note_on_c, 4, 55, 95
4, 402720, Note_on_c, 4, 51, 95
4, 402720, Note_on_c, 4, 46, 95
4, 402720, Note_on_c, 4, 39, 95
4, 402960, Note_off_c, 4, 64, 95
4, 402960, Note_off_c, 4, 59, 95
4, 402960, Note_off_c, 4, 55, 95
4, 402960, Note_off_c, 4, 51, 95
4, 402960, Note_off_c, 4, 46, 95
4, 402960, Note_off_c, 4, 39, 95
4, 402960, Note_on_c, 4, 64, 95
4, 402960, Note_on_c, 4, 59, 95
4, 402960, Note_on_c, 4, 55, 95
4, 402960, Note_on_c, 4, 51, 95
4, 402960, Note_on_c, 4, 46, 95
4, 402960, Note_on_c, 4, 39, 95
4, 403200, Note_off_c, 4, 64, 95
4, 403200, Note_off_c, 4, 59, 95
4, 403200, Note_off_c, 4, 55, 95
4, 403200, Note_off_c, 4, 51, 95
4, 403200, Note_off_c, 4, 46, 95
4, 403200, Note_off_c, 4, 39, 95
4, 403200, Note_on_c, 4, 64, 95
4, 403200, Note_on_c, 4, 59, 95
4, 403200, Note_on_c, 4, 55, 95
4, 403200, Note_on_c, 4, 53, 95
4, 403200, Note_on_c, 4, 48, 95
4, 403200, Note_on_c, 4, 41, 95
4, 403680, Note_off_c, 4, 64, 95
4, 403680, Note_off_c, 4, 59, 95
4, 403680, Note_off_c, 4, 55, 95
4, 403680, Note_off_c, 4, 53, 95
4, 403680, Note_off_c, 4, 48, 95
4, 403680, Note_off_c, 4, 41, 95
4, 403680, Note_on_c, 4, 64, 95
4, 403680, Note_on_c, 4, 59, 95
4, 403680, Note_on_c, 4, 55, 95
4, 403680, Note_on_c, 4, 53, 95
4, 403680, Note_on_c, 4, 48, 95
4, 403680, Note_on_c, 4, 41, 95
4, 403920, Note_off_c, 4, 64, 95
4, 403920, Note_off_c, 4, 59, 95
4, 403920, Note_off_c, 4, 55, 95
4, 403920, Note_off_c, 4, 53, 95
4, 403920, Note_off_c, 4, 48, 95
4, 403920, Note_off_c, 4, 41, 95
4, 403920, Note_on_c, 4, 64, 95
4, 403920, Note_on_c, 4, 59, 95
4, 403920, Note_on_c, 4, 55, 95
4, 403920, Note_on_c, 4, 53, 95
4, 403920, Note_on_c, 4, 48, 95
4, 403920, Note_on_c, 4, 41, 95
4, 404160, Note_off_c, 4, 64, 95
4, 404160, Note_off_c, 4, 59, 95
4, 404160, Note_off_c, 4, 55, 95
4, 404160, Note_off_c, 4, 53, 95
4, 404160, Note_off_c, 4, 48, 95
4, 404160, Note_off_c, 4, 41, 95
4, 404160, Note_on_c, 4, 64, 95
4, 404160, Note_on_c, 4, 59, 95
4, 404160, Note_on_c, 4, 55, 95
4, 404160, Note_on_c, 4, 53, 95
4, 404160, Note_on_c, 4, 48, 95
4, 404160, Note_on_c, 4, 41, 95
4, 404400, Note_off_c, 4, 64, 95
4, 404400, Note_off_c, 4, 59, 95
4, 404400, Note_off_c, 4, 55, 95
4, 404400, Note_off_c, 4, 53, 95
4, 404400, Note_off_c, 4, 48, 95
4, 404400, Note_off_c, 4, 41, 95
4, 404400, Note_on_c, 4, 64, 95
4, 404400, Note_on_c, 4, 59, 95
4, 404400, Note_on_c, 4, 55, 95
4, 404400, Note_on_c, 4, 53, 95
4, 404400, Note_on_c, 4, 48, 95
4, 404400, Note_on_c, 4, 41, 95
4, 404640, Note_off_c, 4, 64, 95
4, 404640, Note_off_c, 4, 59, 95
4, 404640, Note_off_c, 4, 55, 95
4, 404640, Note_off_c, 4, 53, 95
4, 404640, Note_off_c, 4, 48, 95
4, 404640, Note_off_c, 4, 41, 95
4, 404640, Note_on_c, 4, 64, 95
4, 404640, Note_on_c, 4, 59, 95
4, 404640, Note_on_c, 4, 55, 95
4, 404640, Note_on_c, 4, 53, 95
4, 404640, Note_on_c, 4, 48, 95
4, 404640, Note_on_c, 4, 41, 95
4, 405120, Note_off_c, 4, 64, 95
4, 405120, Note_off_c, 4, 59, 95
4, 405120, Note_off_c, 4, 55, 95
4, 405120, Note_off_c, 4, 53, 95
4, 405120, Note_off_c, 4, 48, 95
4, 405120, Note_off_c, 4, 41, 95
4, 405120, Note_on_c, 4, 64, 111
4, 405120, Note_on_c, 4, 59, 95
4, 405120, Note_on_c, 4, 55, 111
4, 405120, Note_on_c, 4, 53, 111
4, 405120, Note_on_c, 4, 48, 111
4, 405120, Note_on_c, 4, 41, 111
4, 405360, Note_off_c, 4, 64, 111
4, 405360, Note_off_c, 4, 59, 95
4, 405360, Note_off_c, 4, 55, 111
4, 405360, Note_off_c, 4, 53, 111
4, 405360, Note_off_c, 4, 48, 111
4, 405360, Note_off_c, 4, 41, 111
4, 405360, Note_on_c, 4, 64, 95
4, 405360, Note_on_c, 4, 59, 95
4, 405360, Note_on_c, 4, 55, 95
4, 405360, Note_on_c, 4, 53, 95
4, 405360, Note_on_c, 4, 48, 95
4, 405360, Note_on_c, 4, 41, 95
4, 405600, Note_off_c, 4, 64, 95
4, 405600, Note_off_c, 4, 59, 95
4, 405600, Note_off_c, 4, 55, 95
4, 405600, Note_off_c, 4, 53, 95
4, 405600, Note_off_c, 4, 48, 95
4, 405600, Note_off_c, 4, 41, 95
4, 405600, Note_on_c, 4, 64, 95
4, 405600, Note_on_c, 4, 59, 95
4, 405600, Note_on_c, 4, 55, 95
4, 405600, Note_on_c, 4, 53, 95
4, 405600, Note_on_c, 4, 48, 95
4, 405600, Note_on_c, 4, 41, 95
4, 405840, Note_off_c, 4, 64, 95
4, 405840, Note_off_c, 4, 59, 95
4, 405840, Note_off_c, 4, 55, 95
4, 405840, Note_off_c, 4, 53, 95
4, 405840, Note_off_c, 4, 48, 95
4, 405840, Note_off_c, 4, 41, 95
4, 405840, Note_on_c, 4, 64, 95
4, 405840, Note_on_c, 4, 59, 95
4, 405840, Note_on_c, 4, 55, 95
4, 405840, Note_on_c, 4, 53, 95
4, 405840, Note_on_c, 4, 48, 95
4, 405840, Note_on_c, 4, 41, 95
4, 406080, Note_off_c, 4, 64, 95
4, 406080, Note_off_c, 4, 59, 95
4, 406080, Note_off_c, 4, 55, 95
4, 406080, Note_off_c, 4, 53, 95
4, 406080, Note_off_c, 4, 48, 95
4, 406080, Note_off_c, 4, 41, 95
4, 406080, Note_on_c, 4, 64, 95
4, 406080, Note_on_c, 4, 59, 95
4, 406080, Note_on_c, 4, 55, 95
4, 406080, Note_on_c, 4, 52, 95
4, 406080, Note_on_c, 4, 47, 95
4, 406080, Note_on_c, 4, 40, 95
4, 406560, Note_off_c, 4, 64, 95
4, 406560, Note_off_c, 4, 59, 95
4, 406560, Note_off_c, 4, 55, 95
4, 406560, Note_off_c, 4, 52, 95
4, 406560, Note_off_c, 4, 47, 95
4, 406560, Note_off_c, 4, 40, 95
4, 406560, Note_on_c, 4, 64, 95
4, 406560, Note_on_c, 4, 59, 95
4, 406560, Note_on_c, 4, 55, 95
4, 406560, Note_on_c, 4, 52, 95
4, 406560, Note_on_c, 4, 47, 95
4, 406560, Note_on_c, 4, 40, 95
4, 406800, Note_off_c, 4, 64, 95
4, 406800, Note_off_c, 4, 59, 95
4, 406800, Note_off_c, 4, 55, 95
4, 406800, Note_off_c, 4, 52, 95
4, 406800, Note_off_c, 4, 47, 95
4, 406800, Note_off_c, 4, 40, 95
4, 406800, Note_on_c, 4, 64, 95
4, 406800, Note_on_c, 4, 59, 95
4, 406800, Note_on_c, 4, 55, 95
4, 406800, Note_on_c, 4, 52, 95
4, 406800, Note_on_c, 4, 47, 95
4, 406800, Note_on_c, 4, 40, 95
4, 407040, Note_off_c, 4, 64, 95
4, 407040, Note_off_c, 4, 59, 95
4, 407040, Note_off_c, 4, 55, 95
4, 407040, Note_off_c, 4, 52, 95
4, 407040, Note_off_c, 4, 47, 95
4, 407040, Note_off_c, 4, 40, 95
4, 407040, Note_on_c, 4, 64, 95
4, 407040, Note_on_c, 4, 59, 95
4, 407040, Note_on_c, 4, 55, 95
4, 407040, Note_on_c, 4, 52, 95
4, 407040, Note_on_c, 4, 47, 95
4, 407040, Note_on_c, 4, 40, 95
4, 407280, Note_off_c, 4, 64, 95
4, 407280, Note_off_c, 4, 59, 95
4, 407280, Note_off_c, 4, 55, 95
4, 407280, Note_off_c, 4, 52, 95
4, 407280, Note_off_c, 4, 47, 95
4, 407280, Note_off_c, 4, 40, 95
4, 407280, Note_on_c, 4, 64, 95
4, 407280, Note_on_c, 4, 59, 95
4, 407280, Note_on_c, 4, 55, 95
4, 407280, Note_on_c, 4, 52, 95
4, 407280, Note_on_c, 4, 47, 95
4, 407280, Note_on_c, 4, 40, 95
4, 407520, Note_off_c, 4, 64, 95
4, 407520, Note_off_c, 4, 59, 95
4, 407520, Note_off_c, 4, 55, 95
4, 407520, Note_off_c, 4, 52, 95
4, 407520, Note_off_c, 4, 47, 95
4, 407520, Note_off_c, 4, 40, 95
4, 407520, Note_on_c, 4, 64, 95
4, 407520, Note_on_c, 4, 59, 95
4, 407520, Note_on_c, 4, 55, 95
4, 407520, Note_on_c, 4, 52, 95
4, 407520, Note_on_c, 4, 47, 95
4, 407520, Note_on_c, 4, 40, 95
4, 408000, Note_off_c, 4, 64, 95
4, 408000, Note_off_c, 4, 59, 95
4, 408000, Note_off_c, 4, 55, 95
4, 408000, Note_off_c, 4, 52, 95
4, 408000, Note_off_c, 4, 47, 95
4, 408000, Note_off_c, 4, 40, 95
4, 408000, Note_on_c, 4, 64, 111
4, 408000, Note_on_c, 4, 59, 111
4, 408000, Note_on_c, 4, 55, 111
4, 408000, Note_on_c, 4, 52, 111
4, 408000, Note_on_c, 4, 47, 111
4, 408000, Note_on_c, 4, 40, 111
4, 408240, Note_off_c, 4, 64, 111
4, 408240, Note_off_c, 4, 59, 111
4, 408240, Note_off_c, 4, 55, 111
4, 408240, Note_off_c, 4, 52, 111
4, 408240, Note_off_c, 4, 47, 111
4, 408240, Note_off_c, 4, 40, 111
4, 408240, Note_on_c, 4, 64, 95
4, 408240, Note_on_c, 4, 59, 95
4, 408240, Note_on_c, 4, 55, 95
4, 408240, Note_on_c, 4, 52, 95
4, 408240, Note_on_c, 4, 47, 95
4, 408240, Note_on_c, 4, 40, 95
4, 408480, Note_off_c, 4, 64, 95
4, 408480, Note_off_c, 4, 59, 95
4, 408480, Note_off_c, 4, 55, 95
4, 408480, Note_off_c, 4, 52, 95
4, 408480, Note_off_c, 4, 47, 95
4, 408480, Note_off_c, 4, 40, 95
4, 408480, Note_on_c, 4, 64, 95
4, 408480, Note_on_c, 4, 59, 95
4, 408480, Note_on_c, 4, 55, 95
4, 408480, Note_on_c, 4, 52, 95
4, 408480, Note_on_c, 4, 47, 95
4, 408480, Note_on_c, 4, 40, 95
4, 408720, Note_off_c, 4, 64, 95
4, 408720, Note_off_c, 4, 59, 95
4, 408720, Note_off_c, 4, 55, 95
4, 408720, Note_off_c, 4, 52, 95
4, 408720, Note_off_c, 4, 47, 95
4, 408720, Note_off_c, 4, 40, 95
4, 408720, Note_on_c, 4, 64, 95
4, 408720, Note_on_c, 4, 59, 95
4, 408720, Note_on_c, 4, 55, 95
4, 408720, Note_on_c, 4, 52, 95
4, 408720, Note_on_c, 4, 47, 95
4, 408720, Note_on_c, 4, 40, 95
4, 408960, Note_off_c, 4, 64, 95
4, 408960, Note_off_c, 4, 59, 95
4, 408960, Note_off_c, 4, 55, 95
4, 408960, Note_off_c, 4, 52, 95
4, 408960, Note_off_c, 4, 47, 95
4, 408960, Note_off_c, 4, 40, 95
4, 408960, Note_on_c, 4, 64, 95
4, 408960, Note_on_c, 4, 59, 95
4, 408960, Note_on_c, 4, 55, 95
4, 408960, Note_on_c, 4, 51, 95
4, 408960, Note_on_c, 4, 46, 95
4, 408960, Note_on_c, 4, 39, 95
4, 409440, Note_off_c, 4, 64, 95
4, 409440, Note_off_c, 4, 59, 95
4, 409440, Note_off_c, 4, 55, 95
4, 409440, Note_off_c, 4, 51, 95
4, 409440, Note_off_c, 4, 46, 95
4, 409440, Note_off_c, 4, 39, 95
4, 409440, Note_on_c, 4, 64, 95
4, 409440, Note_on_c, 4, 59, 95
4, 409440, Note_on_c, 4, 55, 95
4, 409440, Note_on_c, 4, 51, 95
4, 409440, Note_on_c, 4, 46, 95
4, 409440, Note_on_c, 4, 39, 95
4, 409680, Note_off_c, 4, 64, 95
4, 409680, Note_off_c, 4, 59, 95
4, 409680, Note_off_c, 4, 55, 95
4, 409680, Note_off_c, 4, 51, 95
4, 409680, Note_off_c, 4, 46, 95
4, 409680, Note_off_c, 4, 39, 95
4, 409680, Note_on_c, 4, 64, 95
4, 409680, Note_on_c, 4, 59, 95
4, 409680, Note_on_c, 4, 55, 95
4, 409680, Note_on_c, 4, 51, 95
4, 409680, Note_on_c, 4, 46, 95
4, 409680, Note_on_c, 4, 39, 95
4, 409920, Note_off_c, 4, 64, 95
4, 409920, Note_off_c, 4, 59, 95
4, 409920, Note_off_c, 4, 55, 95
4, 409920, Note_off_c, 4, 51, 95
4, 409920, Note_off_c, 4, 46, 95
4, 409920, Note_off_c, 4, 39, 95
4, 409920, Note_on_c, 4, 64, 95
4, 409920, Note_on_c, 4, 59, 95
4, 409920, Note_on_c, 4, 55, 95
4, 409920, Note_on_c, 4, 51, 95
4, 409920, Note_on_c, 4, 46, 95
4, 409920, Note_on_c, 4, 39, 95
4, 410160, Note_off_c, 4, 64, 95
4, 410160, Note_off_c, 4, 59, 95
4, 410160, Note_off_c, 4, 55, 95
4, 410160, Note_off_c, 4, 51, 95
4, 410160, Note_off_c, 4, 46, 95
4, 410160, Note_off_c, 4, 39, 95
4, 410160, Note_on_c, 4, 64, 95
4, 410160, Note_on_c, 4, 59, 95
4, 410160, Note_on_c, 4, 55, 95
4, 410160, Note_on_c, 4, 51, 95
4, 410160, Note_on_c, 4, 46, 95
4, 410160, Note_on_c, 4, 39, 95
4, 410400, Note_off_c, 4, 64, 95
4, 410400, Note_off_c, 4, 59, 95
4, 410400, Note_off_c, 4, 55, 95
4, 410400, Note_off_c, 4, 51, 95
4, 410400, Note_off_c, 4, 46, 95
4, 410400, Note_off_c, 4, 39, 95
4, 410400, Note_on_c, 4, 64, 95
4, 410400, Note_on_c, 4, 59, 95
4, 410400, Note_on_c, 4, 55, 95
4, 410400, Note_on_c, 4, 51, 95
4, 410400, Note_on_c, 4, 46, 95
4, 410400, Note_on_c, 4, 39, 95
4, 410880, Note_off_c, 4, 64, 95
4, 410880, Note_off_c, 4, 59, 95
4, 410880, Note_off_c, 4, 55, 95
4, 410880, Note_off_c, 4, 51, 95
4, 410880, Note_off_c, 4, 46, 95
4, 410880, Note_off_c, 4, 39, 95
4, 410880, Note_on_c, 4, 64, 111
4, 410880, Note_on_c, 4, 59, 111
4, 410880, Note_on_c, 4, 55, 111
4, 410880, Note_on_c, 4, 51, 111
4, 410880, Note_on_c, 4, 46, 111
4, 410880, Note_on_c, 4, 39, 111
4, 411120, Note_off_c, 4, 64, 111
4, 411120, Note_off_c, 4, 59, 111
4, 411120, Note_off_c, 4, 55, 111
4, 411120, Note_off_c, 4, 51, 111
4, 411120, Note_off_c, 4, 46, 111
4, 411120, Note_off_c, 4, 39, 111
4, 411120, Note_on_c, 4, 64, 95
4, 411120, Note_on_c, 4, 59, 95
4, 411120, Note_on_c, 4, 55, 95
4, 411120, Note_on_c, 4, 51, 95
4, 411120, Note_on_c, 4, 46, 95
4, 411120, Note_on_c, 4, 39, 95
4, 411360, Note_off_c, 4, 64, 95
4, 411360, Note_off_c, 4, 59, 95
4, 411360, Note_off_c, 4, 55, 95
4, 411360, Note_off_c, 4, 51, 95
4, 411360, Note_off_c, 4, 46, 95
4, 411360, Note_off_c, 4, 39, 95
4, 411360, Note_on_c, 4, 64, 95
4, 411360, Note_on_c, 4, 59, 95
4, 411360, Note_on_c, 4, 55, 95
4, 411360, Note_on_c, 4, 51, 95
4, 411360, Note_on_c, 4, 46, 95
4, 411360, Note_on_c, 4, 39, 95
4, 411600, Note_off_c, 4, 64, 95
4, 411600, Note_off_c, 4, 59, 95
4, 411600, Note_off_c, 4, 55, 95
4, 411600, Note_off_c, 4, 51, 95
4, 411600, Note_off_c, 4, 46, 95
4, 411600, Note_off_c, 4, 39, 95
4, 411600, Note_on_c, 4, 64, 95
4, 411600, Note_on_c, 4, 59, 95
4, 411600, Note_on_c, 4, 55, 95
4, 411600, Note_on_c, 4, 51, 95
4, 411600, Note_on_c, 4, 46, 95
4, 411600, Note_on_c, 4, 39, 95
4, 411840, Note_off_c, 4, 64, 95
4, 411840, Note_off_c, 4, 59, 95
4, 411840, Note_off_c, 4, 55, 95
4, 411840, Note_off_c, 4, 51, 95
4, 411840, Note_off_c, 4, 46, 95
4, 411840, Note_off_c, 4, 39, 95
4, 411840, Note_on_c, 4, 64, 95
4, 411840, Note_on_c, 4, 59, 95
4, 411840, Note_on_c, 4, 55, 95
4, 411840, Note_on_c, 4, 51, 95
4, 411840, Note_on_c, 4, 46, 95
4, 411840, Note_on_c, 4, 39, 95
4, 412320, Note_off_c, 4, 64, 95
4, 412320, Note_off_c, 4, 59, 95
4, 412320, Note_off_c, 4, 55, 95
4, 412320, Note_off_c, 4, 51, 95
4, 412320, Note_off_c, 4, 46, 95
4, 412320, Note_off_c, 4, 39, 95
4, 412320, Note_on_c, 4, 64, 95
4, 412320, Note_on_c, 4, 59, 95
4, 412320, Note_on_c, 4, 55, 95
4, 412320, Note_on_c, 4, 51, 95
4, 412320, Note_on_c, 4, 46, 95
4, 412320, Note_on_c, 4, 39, 95
4, 412560, Note_off_c, 4, 64, 95
4, 412560, Note_off_c, 4, 59, 95
4, 412560, Note_off_c, 4, 55, 95
4, 412560, Note_off_c, 4, 51, 95
4, 412560, Note_off_c, 4, 46, 95
4, 412560, Note_off_c, 4, 39, 95
4, 412560, Note_on_c, 4, 64, 95
4, 412560, Note_on_c, 4, 59, 95
4, 412560, Note_on_c, 4, 55, 95
4, 412560, Note_on_c, 4, 51, 95
4, 412560, Note_on_c, 4, 46, 95
4, 412560, Note_on_c, 4, 39, 95
4, 412800, Note_off_c, 4, 64, 95
4, 412800, Note_off_c, 4, 59, 95
4, 412800, Note_off_c, 4, 55, 95
4, 412800, Note_off_c, 4, 51, 95
4, 412800, Note_off_c, 4, 46, 95
4, 412800, Note_off_c, 4, 39, 95
4, 412800, Note_on_c, 4, 64, 95
4, 412800, Note_on_c, 4, 59, 95
4, 412800, Note_on_c, 4, 55, 95
4, 412800, Note_on_c, 4, 51, 95
4, 412800, Note_on_c, 4, 46, 95
4, 412800, Note_on_c, 4, 39, 95
4, 413040, Note_off_c, 4, 64, 95
4, 413040, Note_off_c, 4, 59, 95
4, 413040, Note_off_c, 4, 55, 95
4, 413040, Note_off_c, 4, 51, 95
4, 413040, Note_off_c, 4, 46, 95
4, 413040, Note_off_c, 4, 39, 95
4, 413040, Note_on_c, 4, 64, 95
4, 413040, Note_on_c, 4, 59, 95
4, 413040, Note_on_c, 4, 55, 95
4, 413040, Note_on_c, 4, 51, 95
4, 413040, Note_on_c, 4, 46, 95
4, 413040, Note_on_c, 4, 39, 95
4, 413280, Note_off_c, 4, 64, 95
4, 413280, Note_off_c, 4, 59, 95
4, 413280, Note_off_c, 4, 55, 95
4, 413280, Note_off_c, 4, 51, 95
4, 413280, Note_off_c, 4, 46, 95
4, 413280, Note_off_c, 4, 39, 95
4, 413280, Note_on_c, 4, 64, 95
4, 413280, Note_on_c, 4, 59, 95
4, 413280, Note_on_c, 4, 55, 95
4, 413280, Note_on_c, 4, 51, 95
4, 413280, Note_on_c, 4, 46, 95
4, 413280, Note_on_c, 4, 39, 95
4, 413760, Note_off_c, 4, 64, 95
4, 413760, Note_off_c, 4, 59, 95
4, 413760, Note_off_c, 4, 55, 95
4, 413760, Note_off_c, 4, 51, 95
4, 413760, Note_off_c, 4, 46, 95
4, 413760, Note_off_c, 4, 39, 95
4, 413760, Note_on_c, 4, 64, 111
4, 413760, Note_on_c, 4, 59, 111
4, 413760, Note_on_c, 4, 55, 111
4, 413760, Note_on_c, 4, 51, 111
4, 413760, Note_on_c, 4, 46, 111
4, 413760, Note_on_c, 4, 39, 111
4, 414000, Note_off_c, 4, 64, 111
4, 414000, Note_off_c, 4, 59, 111
4, 414000, Note_off_c, 4, 55, 111
4, 414000, Note_off_c, 4, 51, 111
4, 414000, Note_off_c, 4, 46, 111
4, 414000, Note_off_c, 4, 39, 111
4, 414000, Note_on_c, 4, 64, 95
4, 414000, Note_on_c, 4, 59, 95
4, 414000, Note_on_c, 4, 55, 95
4, 414000, Note_on_c, 4, 51, 95
4, 414000, Note_on_c, 4, 46, 95
4, 414000, Note_on_c, 4, 39, 95
4, 414240, Note_off_c, 4, 64, 95
4, 414240, Note_off_c, 4, 59, 95
4, 414240, Note_off_c, 4, 55, 95
4, 414240, Note_off_c, 4, 51, 95
4, 414240, Note_off_c, 4, 46, 95
4, 414240, Note_off_c, 4, 39, 95
4, 414240, Note_on_c, 4, 64, 95
4, 414240, Note_on_c, 4, 59, 95
4, 414240, Note_on_c, 4, 55, 95
4, 414240, Note_on_c, 4, 51, 95
4, 414240, Note_on_c, 4, 46, 95
4, 414240, Note_on_c, 4, 39, 95
4, 414480, Note_off_c, 4, 64, 95
4, 414480, Note_off_c, 4, 59, 95
4, 414480, Note_off_c, 4, 55, 95
4, 414480, Note_off_c, 4, 51, 95
4, 414480, Note_off_c, 4, 46, 95
4, 414480, Note_off_c, 4, 39, 95
4, 414480, Note_on_c, 4, 64, 95
4, 414480, Note_on_c, 4, 59, 95
4, 414480, Note_on_c, 4, 55, 95
4, 414480, Note_on_c, 4, 51, 95
4, 414480, Note_on_c, 4, 46, 95
4, 414480, Note_on_c, 4, 39, 95
4, 414720, Note_off_c, 4, 64, 95
4, 414720, Note_off_c, 4, 59, 95
4, 414720, Note_off_c, 4, 55, 95
4, 414720, Note_off_c, 4, 51, 95
4, 414720, Note_off_c, 4, 46, 95
4, 414720, Note_off_c, 4, 39, 95
4, 414720, Note_on_c, 4, 64, 95
4, 414720, Note_on_c, 4, 59, 95
4, 414720, Note_on_c, 4, 55, 95
4, 414720, Note_on_c, 4, 51, 95
4, 414720, Note_on_c, 4, 46, 95
4, 414720, Note_on_c, 4, 39, 95
4, 415200, Note_off_c, 4, 64, 95
4, 415200, Note_off_c, 4, 59, 95
4, 415200, Note_off_c, 4, 55, 95
4, 415200, Note_off_c, 4, 51, 95
4, 415200, Note_off_c, 4, 46, 95
4, 415200, Note_off_c, 4, 39, 95
4, 415200, Note_on_c, 4, 64, 95
4, 415200, Note_on_c, 4, 59, 95
4, 415200, Note_on_c, 4, 55, 95
4, 415200, Note_on_c, 4, 51, 95
4, 415200, Note_on_c, 4, 46, 95
4, 415200, Note_on_c, 4, 39, 95
4, 415440, Note_off_c, 4, 64, 95
4, 415440, Note_off_c, 4, 59, 95
4, 415440, Note_off_c, 4, 55, 95
4, 415440, Note_off_c, 4, 51, 95
4, 415440, Note_off_c, 4, 46, 95
4, 415440, Note_off_c, 4, 39, 95
4, 415440, Note_on_c, 4, 64, 95
4, 415440, Note_on_c, 4, 59, 95
4, 415440, Note_on_c, 4, 55, 95
4, 415440, Note_on_c, 4, 51, 95
4, 415440, Note_on_c, 4, 46, 95
4, 415440, Note_on_c, 4, 39, 95
4, 415680, Note_off_c, 4, 64, 95
4, 415680, Note_off_c, 4, 59, 95
4, 415680, Note_off_c, 4, 55, 95
4, 415680, Note_off_c, 4, 51, 95
4, 415680, Note_off_c, 4, 46, 95
4, 415680, Note_off_c, 4, 39, 95
4, 415680, Note_on_c, 4, 64, 95
4, 415680, Note_on_c, 4, 59, 95
4, 415680, Note_on_c, 4, 55, 95
4, 415680, Note_on_c, 4, 51, 95
4, 415680, Note_on_c, 4, 46, 95
4, 415680, Note_on_c, 4, 39, 95
4, 415920, Note_off_c, 4, 64, 95
4, 415920, Note_off_c, 4, 59, 95
4, 415920, Note_off_c, 4, 55, 95
4, 415920, Note_off_c, 4, 51, 95
4, 415920, Note_off_c, 4, 46, 95
4, 415920, Note_off_c, 4, 39, 95
4, 415920, Note_on_c, 4, 64, 95
4, 415920, Note_on_c, 4, 59, 95
4, 415920, Note_on_c, 4, 55, 95
4, 415920, Note_on_c, 4, 51, 95
4, 415920, Note_on_c, 4, 46, 95
4, 415920, Note_on_c, 4, 39, 95
4, 416160, Note_off_c, 4, 64, 95
4, 416160, Note_off_c, 4, 59, 95
4, 416160, Note_off_c, 4, 55, 95
4, 416160, Note_off_c, 4, 51, 95
4, 416160, Note_off_c, 4, 46, 95
4, 416160, Note_off_c, 4, 39, 95
4, 416160, Note_on_c, 4, 64, 95
4, 416160, Note_on_c, 4, 59, 95
4, 416160, Note_on_c, 4, 55, 95
4, 416160, Note_on_c, 4, 51, 95
4, 416160, Note_on_c, 4, 46, 95
4, 416160, Note_on_c, 4, 39, 95
4, 416640, Note_off_c, 4, 64, 95
4, 416640, Note_off_c, 4, 59, 95
4, 416640, Note_off_c, 4, 55, 95
4, 416640, Note_off_c, 4, 51, 95
4, 416640, Note_off_c, 4, 46, 95
4, 416640, Note_off_c, 4, 39, 95
4, 416640, Note_on_c, 4, 64, 111
4, 416640, Note_on_c, 4, 59, 111
4, 416640, Note_on_c, 4, 55, 111
4, 416640, Note_on_c, 4, 51, 111
4, 416640, Note_on_c, 4, 46, 111
4, 416640, Note_on_c, 4, 39, 111
4, 416880, Note_off_c, 4, 64, 111
4, 416880, Note_off_c, 4, 59, 111
4, 416880, Note_off_c, 4, 55, 111
4, 416880, Note_off_c, 4, 51, 111
4, 416880, Note_off_c, 4, 46, 111
4, 416880, Note_off_c, 4, 39, 111
4, 416880, Note_on_c, 4, 64, 95
4, 416880, Note_on_c, 4, 59, 95
4, 416880, Note_on_c, 4, 55, 95
4, 416880, Note_on_c, 4, 51, 95
4, 416880, Note_on_c, 4, 46, 95
4, 416880, Note_on_c, 4, 39, 95
4, 417120, Note_off_c, 4, 64, 95
4, 417120, Note_off_c, 4, 59, 95
4, 417120, Note_off_c, 4, 55, 95
4, 417120, Note_off_c, 4, 51, 95
4, 417120, Note_off_c, 4, 46, 95
4, 417120, Note_off_c, 4, 39, 95
4, 417120, Note_on_c, 4, 64, 95
4, 417120, Note_on_c, 4, 59, 95
4, 417120, Note_on_c, 4, 55, 95
4, 417120, Note_on_c, 4, 51, 95
4, 417120, Note_on_c, 4, 46, 95
4, 417120, Note_on_c, 4, 39, 95
4, 417360, Note_off_c, 4, 64, 95
4, 417360, Note_off_c, 4, 59, 95
4, 417360, Note_off_c, 4, 55, 95
4, 417360, Note_off_c, 4, 51, 95
4, 417360, Note_off_c, 4, 46, 95
4, 417360, Note_off_c, 4, 39, 95
4, 417360, Note_on_c, 4, 64, 95
4, 417360, Note_on_c, 4, 59, 95
4, 417360, Note_on_c, 4, 55, 95
4, 417360, Note_on_c, 4, 51, 95
4, 417360, Note_on_c, 4, 46, 95
4, 417360, Note_on_c, 4, 39, 95
4, 417600, Note_off_c, 4, 64, 95
4, 417600, Note_off_c, 4, 59, 95
4, 417600, Note_off_c, 4, 55, 95
4, 417600, Note_off_c, 4, 51, 95
4, 417600, Note_off_c, 4, 46, 95
4, 417600, Note_off_c, 4, 39, 95
4, 417600, End_track
5, 0, Start_track
5, 0, Pitch_bend_c, 6, 8192
5, 0, Control_c, 6, 7, 63
5, 0, Control_c, 6, 10, 63
5, 0, Control_c, 6, 93, 0
5, 0, Control_c, 6, 91, 0
5, 0, Control_c, 6, 95, 0
5, 0, Control_c, 6, 92, 0
5, 0, Control_c, 6, 11, 127
5, 0, Program_c, 6, 25
5, 0, Control_c, 7, 7, 63
5, 0, Control_c, 7, 10, 63
5, 0, Control_c, 7, 93, 0
5, 0, Control_c, 7, 91, 0
5, 0, Control_c, 7, 95, 0
5, 0, Control_c, 7, 92, 0
5, 0, Control_c, 7, 11, 127
5, 0, Program_c, 7, 25
5, 11520, Note_on_c, 6, 64, 95
5, 11520, Note_on_c, 6, 59, 95
5, 11520, Note_on_c, 6, 55, 95
5, 11520, Note_on_c, 6, 52, 95
5, 11520, Note_on_c, 6, 47, 95
5, 11520, Note_on_c, 6, 40, 95
5, 17280, Note_off_c, 6, 64, 95
5, 17280, Note_off_c, 6, 59, 95
5, 17280, Note_off_c, 6, 55, 95
5, 17280, Note_off_c, 6, 52, 95
5, 17280, Note_off_c, 6, 47, 95
5, 17280, Note_off_c, 6, 40, 95
5, 17280, Note_on_c, 6, 66, 95
5, 17280, Note_on_c, 6, 62, 95
5, 17280, Note_on_c, 6, 57, 95
5, 17280, Note_on_c, 6, 50, 95
5, 17760, Note_off_c, 6, 66, 95
5, 17760, Note_off_c, 6, 62, 95
5, 17760, Note_off_c, 6, 57, 95
5, 17760, Note_off_c, 6, 50, 95
5, 17760, Note_on_c, 6, 66, 95
5, 17760, Note_on_c, 6, 62, 95
5, 17760, Note_on_c, 6, 57, 95
5, 17760, Note_on_c, 6, 50, 95
5, 18000, Note_off_c, 6, 66, 95
5, 18000, Note_off_c, 6, 62, 95
5, 18000, Note_off_c, 6, 57, 95
5, 18000, Note_off_c, 6, 50, 95
5, 18000, Note_on_c, 6, 66, 95
5, 18000, Note_on_c, 6, 62, 95
5, 18000, Note_on_c, 6, 57, 95
5, 18000, Note_on_c, 6, 50, 95
5, 18480, Note_off_c, 6, 66, 95
5, 18480, Note_off_c, 6, 62, 95
5, 18480, Note_off_c, 6, 57, 95
5, 18480, Note_off_c, 6, 50, 95
5, 18480, Note_on_c, 6, 66, 95
5, 18480, Note_on_c, 6, 62, 95
5, 18480, Note_on_c, 6, 57, 95
5, 18480, Note_on_c, 6, 50, 95
5, 18720, Note_off_c, 6, 66, 95
5, 18720, Note_off_c, 6, 62, 95
5, 18720, Note_off_c, 6, 57, 95
5, 18720, Note_off_c, 6, 50, 95
5, 18720, Note_on_c, 6, 66, 95
5, 18720, Note_on_c, 6, 62, 95
5, 18720, Note_on_c, 6, 57, 95
5, 18720, Note_on_c, 6, 50, 95
5, 19200, Note_off_c, 6, 66, 95
5, 19200, Note_off_c, 6, 62, 95
5, 19200, Note_off_c, 6, 57, 95
5, 19200, Note_off_c, 6, 50, 95
5, 19200, Note_on_c, 6, 66, 95
5, 19200, Note_on_c, 6, 62, 95
5, 19200, Note_on_c, 6, 57, 95
5, 19200, Note_on_c, 6, 50, 95
5, 19440, Note_off_c, 6, 66, 95
5, 19440, Note_off_c, 6, 62, 95
5, 19440, Note_off_c, 6, 57, 95
5, 19440, Note_off_c, 6, 50, 95
5, 19440, Note_on_c, 6, 66, 95
5, 19440, Note_on_c, 6, 62, 95
5, 19440, Note_on_c, 6, 57, 95
5, 19440, Note_on_c, 6, 50, 95
5, 19920, Note_off_c, 6, 66, 95
5, 19920, Note_off_c, 6, 62, 95
5, 19920, Note_off_c, 6, 57, 95
5, 19920, Note_off_c, 6, 50, 95
5, 19920, Note_on_c, 6, 66, 95
5, 19920, Note_on_c, 6, 62, 95
5, 19920, Note_on_c, 6, 57, 95
5, 19920, Note_on_c, 6, 50, 95
5, 20160, Note_off_c, 6, 66, 95
5, 20160, Note_off_c, 6, 62, 95
5, 20160, Note_off_c, 6, 57, 95
5, 20160, Note_off_c, 6, 50, 95
5, 20160, Note_on_c, 6, 66, 95
5, 20160, Note_on_c, 6, 62, 95
5, 20160, Note_on_c, 6, 57, 95
5, 20160, Note_on_c, 6, 50, 95
5, 20640, Note_off_c, 6, 66, 95
5, 20640, Note_off_c, 6, 62, 95
5, 20640, Note_off_c, 6, 57, 95
5, 20640, Note_off_c, 6, 50, 95
5, 20640, Note_on_c, 6, 66, 95
5, 20640, Note_on_c, 6, 62, 95
5, 20640, Note_on_c, 6, 57, 95
5, 20640, Note_on_c, 6, 50, 95
5, 20880, Note_off_c, 6, 66, 95
5, 20880, Note_off_c, 6, 62, 95
5, 20880, Note_off_c, 6, 57, 95
5, 20880, Note_off_c, 6, 50, 95
5, 20880, Note_on_c, 6, 66, 95
5, 20880, Note_on_c, 6, 62, 95
5, 20880, Note_on_c, 6, 57, 95
5, 20880, Note_on_c, 6, 50, 95
5, 21120, Note_off_c, 6, 66, 95
5, 21120, Note_off_c, 6, 62, 95
5, 21120, Note_off_c, 6, 57, 95
5, 21120, Note_off_c, 6, 50, 95
5, 21120, Note_on_c, 6, 66, 95
5, 21120, Note_on_c, 6, 62, 95
5, 21120, Note_on_c, 6, 57, 95
5, 21120, Note_on_c, 6, 50, 95
5, 21360, Note_off_c, 6, 66, 95
5, 21360, Note_off_c, 6, 62, 95
5, 21360, Note_off_c, 6, 57, 95
5, 21360, Note_off_c, 6, 50, 95
5, 21360, Note_on_c, 6, 66, 95
5, 21360, Note_on_c, 6, 62, 95
5, 21360, Note_on_c, 6, 57, 95
5, 21360, Note_on_c, 6, 50, 95
5, 21600, Note_off_c, 6, 66, 95
5, 21600, Note_off_c, 6, 62, 95
5, 21600, Note_off_c, 6, 57, 95
5, 21600, Note_off_c, 6, 50, 95
5, 21600, Note_on_c, 6, 67, 95
5, 21600, Note_on_c, 6, 59, 95
5, 21600, Note_on_c, 6, 57, 95
5, 21600, Note_on_c, 6, 50, 95
5, 21840, Note_off_c, 6, 67, 95
5, 21840, Note_off_c, 6, 59, 95
5, 21840, Note_off_c, 6, 57, 95
5, 21840, Note_off_c, 6, 50, 95
5, 21840, Note_on_c, 6, 67, 95
5, 21840, Note_on_c, 6, 59, 95
5, 21840, Note_on_c, 6, 57, 95
5, 21840, Note_on_c, 6, 50, 95
5, 22320, Note_off_c, 6, 67, 95
5, 22320, Note_off_c, 6, 59, 95
5, 22320, Note_off_c, 6, 57, 95
5, 22320, Note_off_c, 6, 50, 95
5, 22320, Note_on_c, 6, 67, 95
5, 22320, Note_on_c, 6, 59, 95
5, 22320, Note_on_c, 6, 57, 95
5, 22320, Note_on_c, 6, 50, 95
5, 22800, Note_off_c, 6, 67, 95
5, 22800, Note_off_c, 6, 59, 95
5, 22800, Note_off_c, 6, 57, 95
5, 22800, Note_off_c, 6, 50, 95
5, 22800, Note_on_c, 6, 67, 95
5, 22800, Note_on_c, 6, 59, 95
5, 22800, Note_on_c, 6, 57, 95
5, 22800, Note_on_c, 6, 50, 95
5, 23040, Note_off_c, 6, 67, 95
5, 23040, Note_off_c, 6, 59, 95
5, 23040, Note_off_c, 6, 57, 95
5, 23040, Note_off_c, 6, 50, 95
5, 23040, Note_on_c, 6, 66, 95
5, 23040, Note_on_c, 6, 62, 95
5, 23040, Note_on_c, 6, 57, 95
5, 23040, Note_on_c, 6, 50, 95
5, 23520, Note_off_c, 6, 66, 95
5, 23520, Note_off_c, 6, 62, 95
5, 23520, Note_off_c, 6, 57, 95
5, 23520, Note_off_c, 6, 50, 95
5, 23520, Note_on_c, 6, 66, 95
5, 23520, Note_on_c, 6, 62, 95
5, 23520, Note_on_c, 6, 57, 95
5, 23520, Note_on_c, 6, 50, 95
5, 23760, Note_off_c, 6, 66, 95
5, 23760, Note_off_c, 6, 62, 95
5, 23760, Note_off_c, 6, 57, 95
5, 23760, Note_off_c, 6, 50, 95
5, 23760, Note_on_c, 6, 66, 95
5, 23760, Note_on_c, 6, 62, 95
5, 23760, Note_on_c, 6, 57, 95
5, 23760, Note_on_c, 6, 50, 95
5, 24240, Note_off_c, 6, 66, 95
5, 24240, Note_off_c, 6, 62, 95
5, 24240, Note_off_c, 6, 57, 95
5, 24240, Note_off_c, 6, 50, 95
5, 24240, Note_on_c, 6, 66, 95
5, 24240, Note_on_c, 6, 62, 95
5, 24240, Note_on_c, 6, 57, 95
5, 24240, Note_on_c, 6, 50, 95
5, 24480, Note_off_c, 6, 66, 95
5, 24480, Note_off_c, 6, 62, 95
5, 24480, Note_off_c, 6, 57, 95
5, 24480, Note_off_c, 6, 50, 95
5, 24480, Note_on_c, 6, 66, 95
5, 24480, Note_on_c, 6, 62, 95
5, 24480, Note_on_c, 6, 57, 95
5, 24480, Note_on_c, 6, 50, 95
5, 24960, Note_off_c, 6, 66, 95
5, 24960, Note_off_c, 6, 62, 95
5, 24960, Note_off_c, 6, 57, 95
5, 24960, Note_off_c, 6, 50, 95
5, 24960, Note_on_c, 6, 66, 95
5, 24960, Note_on_c, 6, 62, 95
5, 24960, Note_on_c, 6, 57, 95
5, 24960, Note_on_c, 6, 50, 95
5, 25200, Note_off_c, 6, 66, 95
5, 25200, Note_off_c, 6, 62, 95
5, 25200, Note_off_c, 6, 57, 95
5, 25200, Note_off_c, 6, 50, 95
5, 25200, Note_on_c, 6, 66, 95
5, 25200, Note_on_c, 6, 62, 95
5, 25200, Note_on_c, 6, 57, 95
5, 25200, Note_on_c, 6, 50, 95
5, 25680, Note_off_c, 6, 66, 95
5, 25680, Note_off_c, 6, 62, 95
5, 25680, Note_off_c, 6, 57, 95
5, 25680, Note_off_c, 6, 50, 95
5, 25680, Note_on_c, 6, 66, 95
5, 25680, Note_on_c, 6, 62, 95
5, 25680, Note_on_c, 6, 57, 95
5, 25680, Note_on_c, 6, 50, 95
5, 25920, Note_off_c, 6, 66, 95
5, 25920, Note_off_c, 6, 62, 95
5, 25920, Note_off_c, 6, 57, 95
5, 25920, Note_off_c, 6, 50, 95
5, 25920, Note_on_c, 6, 66, 95
5, 25920, Note_on_c, 6, 62, 95
5, 25920, Note_on_c, 6, 57, 95
5, 25920, Note_on_c, 6, 50, 95
5, 26400, Note_off_c, 6, 66, 95
5, 26400, Note_off_c, 6, 62, 95
5, 26400, Note_off_c, 6, 57, 95
5, 26400, Note_off_c, 6, 50, 95
5, 26400, Note_on_c, 6, 66, 95
5, 26400, Note_on_c, 6, 62, 95
5, 26400, Note_on_c, 6, 57, 95
5, 26400, Note_on_c, 6, 50, 95
5, 26640, Note_off_c, 6, 66, 95
5, 26640, Note_off_c, 6, 62, 95
5, 26640, Note_off_c, 6, 57, 95
5, 26640, Note_off_c, 6, 50, 95
5, 26640, Note_on_c, 6, 66, 95
5, 26640, Note_on_c, 6, 62, 95
5, 26640, Note_on_c, 6, 57, 95
5, 26640, Note_on_c, 6, 50, 95
5, 26880, Note_off_c, 6, 66, 95
5, 26880, Note_off_c, 6, 62, 95
5, 26880, Note_off_c, 6, 57, 95
5, 26880, Note_off_c, 6, 50, 95
5, 26880, Note_on_c, 6, 66, 95
5, 26880, Note_on_c, 6, 62, 95
5, 26880, Note_on_c, 6, 57, 95
5, 26880, Note_on_c, 6, 50, 95
5, 27120, Note_off_c, 6, 66, 95
5, 27120, Note_off_c, 6, 62, 95
5, 27120, Note_off_c, 6, 57, 95
5, 27120, Note_off_c, 6, 50, 95
5, 27120, Note_on_c, 6, 66, 95
5, 27120, Note_on_c, 6, 62, 95
5, 27120, Note_on_c, 6, 57, 95
5, 27120, Note_on_c, 6, 50, 95
5, 27360, Note_off_c, 6, 66, 95
5, 27360, Note_off_c, 6, 62, 95
5, 27360, Note_off_c, 6, 57, 95
5, 27360, Note_off_c, 6, 50, 95
5, 27360, Note_on_c, 6, 67, 95
5, 27360, Note_on_c, 6, 59, 95
5, 27360, Note_on_c, 6, 57, 95
5, 27360, Note_on_c, 6, 50, 95
5, 27600, Note_off_c, 6, 67, 95
5, 27600, Note_off_c, 6, 59, 95
5, 27600, Note_off_c, 6, 57, 95
5, 27600, Note_off_c, 6, 50, 95
5, 27600, Note_on_c, 6, 67, 95
5, 27600, Note_on_c, 6, 59, 95
5, 27600, Note_on_c, 6, 57, 95
5, 27600, Note_on_c, 6, 50, 95
5, 28080, Note_off_c, 6, 67, 95
5, 28080, Note_off_c, 6, 59, 95
5, 28080, Note_off_c, 6, 57, 95
5, 28080, Note_off_c, 6, 50, 95
5, 28080, Note_on_c, 6, 67, 95
5, 28080, Note_on_c, 6, 59, 95
5, 28080, Note_on_c, 6, 57, 95
5, 28080, Note_on_c, 6, 50, 95
5, 28560, Note_off_c, 6, 67, 95
5, 28560, Note_off_c, 6, 59, 95
5, 28560, Note_off_c, 6, 57, 95
5, 28560, Note_off_c, 6, 50, 95
5, 28560, Note_on_c, 6, 67, 95
5, 28560, Note_on_c, 6, 59, 95
5, 28560, Note_on_c, 6, 57, 95
5, 28560, Note_on_c, 6, 50, 95
5, 28800, Note_off_c, 6, 67, 95
5, 28800, Note_off_c, 6, 59, 95
5, 28800, Note_off_c, 6, 57, 95
5, 28800, Note_off_c, 6, 50, 95
5, 28800, Note_on_c, 6, 66, 95
5, 28800, Note_on_c, 6, 62, 95
5, 28800, Note_on_c, 6, 57, 95
5, 28800, Note_on_c, 6, 50, 95
5, 29280, Note_off_c, 6, 66, 95
5, 29280, Note_off_c, 6, 62, 95
5, 29280, Note_off_c, 6, 57, 95
5, 29280, Note_off_c, 6, 50, 95
5, 29280, Note_on_c, 6, 66, 95
5, 29280, Note_on_c, 6, 62, 95
5, 29280, Note_on_c, 6, 57, 95
5, 29280, Note_on_c, 6, 50, 95
5, 29520, Note_off_c, 6, 66, 95
5, 29520, Note_off_c, 6, 62, 95
5, 29520, Note_off_c, 6, 57, 95
5, 29520, Note_off_c, 6, 50, 95
5, 29520, Note_on_c, 6, 66, 95
5, 29520, Note_on_c, 6, 62, 95
5, 29520, Note_on_c, 6, 57, 95
5, 29520, Note_on_c, 6, 50, 95
5, 30000, Note_off_c, 6, 66, 95
5, 30000, Note_off_c, 6, 62, 95
5, 30000, Note_off_c, 6, 57, 95
5, 30000, Note_off_c, 6, 50, 95
5, 30000, Note_on_c, 6, 66, 95
5, 30000, Note_on_c, 6, 62, 95
5, 30000, Note_on_c, 6, 57, 95
5, 30000, Note_on_c, 6, 50, 95
5, 30240, Note_off_c, 6, 66, 95
5, 30240, Note_off_c, 6, 62, 95
5, 30240, Note_off_c, 6, 57, 95
5, 30240, Note_off_c, 6, 50, 95
5, 30240, Note_on_c, 6, 66, 95
5, 30240, Note_on_c, 6, 62, 95
5, 30240, Note_on_c, 6, 57, 95
5, 30240, Note_on_c, 6, 50, 95
5, 30720, Note_off_c, 6, 66, 95
5, 30720, Note_off_c, 6, 62, 95
5, 30720, Note_off_c, 6, 57, 95
5, 30720, Note_off_c, 6, 50, 95
5, 30720, Note_on_c, 6, 66, 95
5, 30720, Note_on_c, 6, 62, 95
5, 30720, Note_on_c, 6, 57, 95
5, 30720, Note_on_c, 6, 50, 95
5, 30960, Note_off_c, 6, 66, 95
5, 30960, Note_off_c, 6, 62, 95
5, 30960, Note_off_c, 6, 57, 95
5, 30960, Note_off_c, 6, 50, 95
5, 30960, Note_on_c, 6, 66, 95
5, 30960, Note_on_c, 6, 62, 95
5, 30960, Note_on_c, 6, 57, 95
5, 30960, Note_on_c, 6, 50, 95
5, 31440, Note_off_c, 6, 66, 95
5, 31440, Note_off_c, 6, 62, 95
5, 31440, Note_off_c, 6, 57, 95
5, 31440, Note_off_c, 6, 50, 95
5, 31440, Note_on_c, 6, 66, 95
5, 31440, Note_on_c, 6, 62, 95
5, 31440, Note_on_c, 6, 57, 95
5, 31440, Note_on_c, 6, 50, 95
5, 31680, Note_off_c, 6, 66, 95
5, 31680, Note_off_c, 6, 62, 95
5, 31680, Note_off_c, 6, 57, 95
5, 31680, Note_off_c, 6, 50, 95
5, 31680, Note_on_c, 6, 66, 95
5, 31680, Note_on_c, 6, 62, 95
5, 31680, Note_on_c, 6, 57, 95
5, 31680, Note_on_c, 6, 50, 95
5, 32160, Note_off_c, 6, 66, 95
5, 32160, Note_off_c, 6, 62, 95
5, 32160, Note_off_c, 6, 57, 95
5, 32160, Note_off_c, 6, 50, 95
5, 32160, Note_on_c, 6, 66, 95
5, 32160, Note_on_c, 6, 62, 95
5, 32160, Note_on_c, 6, 57, 95
5, 32160, Note_on_c, 6, 50, 95
5, 32400, Note_off_c, 6, 66, 95
5, 32400, Note_off_c, 6, 62, 95
5, 32400, Note_off_c, 6, 57, 95
5, 32400, Note_off_c, 6, 50, 95
5, 32400, Note_on_c, 6, 66, 95
5, 32400, Note_on_c, 6, 62, 95
5, 32400, Note_on_c, 6, 57, 95
5, 32400, Note_on_c, 6, 50, 95
5, 32640, Note_off_c, 6, 66, 95
5, 32640, Note_off_c, 6, 62, 95
5, 32640, Note_off_c, 6, 57, 95
5, 32640, Note_off_c, 6, 50, 95
5, 32640, Note_on_c, 6, 66, 95
5, 32640, Note_on_c, 6, 62, 95
5, 32640, Note_on_c, 6, 57, 95
5, 32640, Note_on_c, 6, 50, 95
5, 32880, Note_off_c, 6, 66, 95
5, 32880, Note_off_c, 6, 62, 95
5, 32880, Note_off_c, 6, 57, 95
5, 32880, Note_off_c, 6, 50, 95
5, 32880, Note_on_c, 6, 66, 95
5, 32880, Note_on_c, 6, 62, 95
5, 32880, Note_on_c, 6, 57, 95
5, 32880, Note_on_c, 6, 50, 95
5, 33120, Note_off_c, 6, 66, 95
5, 33120, Note_off_c, 6, 62, 95
5, 33120, Note_off_c, 6, 57, 95
5, 33120, Note_off_c, 6, 50, 95
5, 33120, Note_on_c, 6, 67, 95
5, 33120, Note_on_c, 6, 59, 95
5, 33120, Note_on_c, 6, 57, 95
5, 33120, Note_on_c, 6, 50, 95
5, 33360, Note_off_c, 6, 67, 95
5, 33360, Note_off_c, 6, 59, 95
5, 33360, Note_off_c, 6, 57, 95
5, 33360, Note_off_c, 6, 50, 95
5, 33360, Note_on_c, 6, 67, 95
5, 33360, Note_on_c, 6, 59, 95
5, 33360, Note_on_c, 6, 57, 95
5, 33360, Note_on_c, 6, 50, 95
5, 33840, Note_off_c, 6, 67, 95
5, 33840, Note_off_c, 6, 59, 95
5, 33840, Note_off_c, 6, 57, 95
5, 33840, Note_off_c, 6, 50, 95
5, 33840, Note_on_c, 6, 67, 95
5, 33840, Note_on_c, 6, 59, 95
5, 33840, Note_on_c, 6, 57, 95
5, 33840, Note_on_c, 6, 50, 95
5, 34320, Note_off_c, 6, 67, 95
5, 34320, Note_off_c, 6, 59, 95
5, 34320, Note_off_c, 6, 57, 95
5, 34320, Note_off_c, 6, 50, 95
5, 34320, Note_on_c, 6, 67, 95
5, 34320, Note_on_c, 6, 59, 95
5, 34320, Note_on_c, 6, 57, 95
5, 34320, Note_on_c, 6, 50, 95
5, 34560, Note_off_c, 6, 67, 95
5, 34560, Note_off_c, 6, 59, 95
5, 34560, Note_off_c, 6, 57, 95
5, 34560, Note_off_c, 6, 50, 95
5, 34560, Note_on_c, 6, 66, 95
5, 34560, Note_on_c, 6, 62, 95
5, 34560, Note_on_c, 6, 57, 95
5, 34560, Note_on_c, 6, 50, 95
5, 35040, Note_off_c, 6, 66, 95
5, 35040, Note_off_c, 6, 62, 95
5, 35040, Note_off_c, 6, 57, 95
5, 35040, Note_off_c, 6, 50, 95
5, 35040, Note_on_c, 6, 66, 95
5, 35040, Note_on_c, 6, 62, 95
5, 35040, Note_on_c, 6, 57, 95
5, 35040, Note_on_c, 6, 50, 95
5, 35280, Note_off_c, 6, 66, 95
5, 35280, Note_off_c, 6, 62, 95
5, 35280, Note_off_c, 6, 57, 95
5, 35280, Note_off_c, 6, 50, 95
5, 35280, Note_on_c, 6, 66, 95
5, 35280, Note_on_c, 6, 62, 95
5, 35280, Note_on_c, 6, 57, 95
5, 35280, Note_on_c, 6, 50, 95
5, 35760, Note_off_c, 6, 66, 95
5, 35760, Note_off_c, 6, 62, 95
5, 35760, Note_off_c, 6, 57, 95
5, 35760, Note_off_c, 6, 50, 95
5, 35760, Note_on_c, 6, 66, 95
5, 35760, Note_on_c, 6, 62, 95
5, 35760, Note_on_c, 6, 57, 95
5, 35760, Note_on_c, 6, 50, 95
5, 36000, Note_off_c, 6, 66, 95
5, 36000, Note_off_c, 6, 62, 95
5, 36000, Note_off_c, 6, 57, 95
5, 36000, Note_off_c, 6, 50, 95
5, 36000, Note_on_c, 6, 66, 95
5, 36000, Note_on_c, 6, 62, 95
5, 36000, Note_on_c, 6, 57, 95
5, 36000, Note_on_c, 6, 50, 95
5, 36480, Note_off_c, 6, 66, 95
5, 36480, Note_off_c, 6, 62, 95
5, 36480, Note_off_c, 6, 57, 95
5, 36480, Note_off_c, 6, 50, 95
5, 36480, Note_on_c, 6, 66, 95
5, 36480, Note_on_c, 6, 62, 95
5, 36480, Note_on_c, 6, 57, 95
5, 36480, Note_on_c, 6, 50, 95
5, 36720, Note_off_c, 6, 66, 95
5, 36720, Note_off_c, 6, 62, 95
5, 36720, Note_off_c, 6, 57, 95
5, 36720, Note_off_c, 6, 50, 95
5, 36720, Note_on_c, 6, 66, 95
5, 36720, Note_on_c, 6, 62, 95
5, 36720, Note_on_c, 6, 57, 95
5, 36720, Note_on_c, 6, 50, 95
5, 37200, Note_off_c, 6, 66, 95
5, 37200, Note_off_c, 6, 62, 95
5, 37200, Note_off_c, 6, 57, 95
5, 37200, Note_off_c, 6, 50, 95
5, 37200, Note_on_c, 6, 66, 95
5, 37200, Note_on_c, 6, 62, 95
5, 37200, Note_on_c, 6, 57, 95
5, 37200, Note_on_c, 6, 50, 95
5, 37440, Note_off_c, 6, 66, 95
5, 37440, Note_off_c, 6, 62, 95
5, 37440, Note_off_c, 6, 57, 95
5, 37440, Note_off_c, 6, 50, 95
5, 37440, Note_on_c, 6, 67, 95
5, 37440, Note_on_c, 6, 59, 95
5, 37440, Note_on_c, 6, 57, 95
5, 37440, Note_on_c, 6, 50, 95
5, 37920, Note_off_c, 6, 67, 95
5, 37920, Note_off_c, 6, 59, 95
5, 37920, Note_off_c, 6, 57, 95
5, 37920, Note_off_c, 6, 50, 95
5, 37920, Note_on_c, 6, 67, 95
5, 37920, Note_on_c, 6, 59, 95
5, 37920, Note_on_c, 6, 57, 95
5, 37920, Note_on_c, 6, 50, 95
5, 38160, Note_off_c, 6, 67, 95
5, 38160, Note_off_c, 6, 59, 95
5, 38160, Note_off_c, 6, 57, 95
5, 38160, Note_off_c, 6, 50, 95
5, 38160, Note_on_c, 6, 67, 95
5, 38160, Note_on_c, 6, 59, 95
5, 38160, Note_on_c, 6, 57, 95
5, 38160, Note_on_c, 6, 50, 95
5, 38400, Note_off_c, 6, 67, 95
5, 38400, Note_off_c, 6, 59, 95
5, 38400, Note_off_c, 6, 57, 95
5, 38400, Note_off_c, 6, 50, 95
5, 38400, Note_on_c, 6, 67, 95
5, 38400, Note_on_c, 6, 59, 95
5, 38400, Note_on_c, 6, 57, 95
5, 38400, Note_on_c, 6, 50, 95
5, 38640, Note_off_c, 6, 67, 95
5, 38640, Note_off_c, 6, 59, 95
5, 38640, Note_off_c, 6, 57, 95
5, 38640, Note_off_c, 6, 50, 95
5, 38640, Note_on_c, 6, 67, 95
5, 38640, Note_on_c, 6, 59, 95
5, 38640, Note_on_c, 6, 57, 95
5, 38640, Note_on_c, 6, 50, 95
5, 38880, Note_off_c, 6, 67, 95
5, 38880, Note_off_c, 6, 59, 95
5, 38880, Note_off_c, 6, 57, 95
5, 38880, Note_off_c, 6, 50, 95
5, 38880, Note_on_c, 6, 67, 95
5, 38880, Note_on_c, 6, 59, 95
5, 38880, Note_on_c, 6, 57, 95
5, 38880, Note_on_c, 6, 50, 95
5, 39120, Note_off_c, 6, 67, 95
5, 39120, Note_off_c, 6, 59, 95
5, 39120, Note_off_c, 6, 57, 95
5, 39120, Note_off_c, 6, 50, 95
5, 39120, Note_on_c, 6, 67, 95
5, 39120, Note_on_c, 6, 59, 95
5, 39120, Note_on_c, 6, 57, 95
5, 39120, Note_on_c, 6, 50, 95
5, 39360, Note_off_c, 6, 67, 95
5, 39360, Note_off_c, 6, 59, 95
5, 39360, Note_off_c, 6, 57, 95
5, 39360, Note_off_c, 6, 50, 95
5, 39360, Note_on_c, 6, 67, 95
5, 39360, Note_on_c, 6, 59, 95
5, 39360, Note_on_c, 6, 57, 95
5, 39360, Note_on_c, 6, 50, 95
5, 39600, Note_off_c, 6, 67, 95
5, 39600, Note_off_c, 6, 59, 95
5, 39600, Note_off_c, 6, 57, 95
5, 39600, Note_off_c, 6, 50, 95
5, 39600, Note_on_c, 6, 67, 95
5, 39600, Note_on_c, 6, 59, 95
5, 39600, Note_on_c, 6, 57, 95
5, 39600, Note_on_c, 6, 50, 95
5, 39840, Note_off_c, 6, 67, 95
5, 39840, Note_off_c, 6, 59, 95
5, 39840, Note_off_c, 6, 57, 95
5, 39840, Note_off_c, 6, 50, 95
5, 39840, Note_on_c, 6, 67, 95
5, 39840, Note_on_c, 6, 59, 95
5, 39840, Note_on_c, 6, 57, 95
5, 39840, Note_on_c, 6, 50, 95
5, 40080, Note_off_c, 6, 67, 95
5, 40080, Note_off_c, 6, 59, 95
5, 40080, Note_off_c, 6, 57, 95
5, 40080, Note_off_c, 6, 50, 95
5, 40080, Note_on_c, 6, 67, 95
5, 40080, Note_on_c, 6, 59, 95
5, 40080, Note_on_c, 6, 57, 95
5, 40080, Note_on_c, 6, 50, 95
5, 40320, Note_off_c, 6, 67, 95
5, 40320, Note_off_c, 6, 59, 95
5, 40320, Note_off_c, 6, 57, 95
5, 40320, Note_off_c, 6, 50, 95
5, 40320, Note_on_c, 6, 64, 95
5, 40320, Note_on_c, 6, 59, 95
5, 40320, Note_on_c, 6, 55, 95
5, 40320, Note_on_c, 6, 52, 95
5, 40320, Note_on_c, 6, 47, 95
5, 40320, Note_on_c, 6, 40, 95
5, 40800, Note_off_c, 6, 64, 95
5, 40800, Note_off_c, 6, 59, 95
5, 40800, Note_off_c, 6, 55, 95
5, 40800, Note_off_c, 6, 52, 95
5, 40800, Note_off_c, 6, 47, 95
5, 40800, Note_off_c, 6, 40, 95
5, 40800, Note_on_c, 6, 64, 95
5, 40800, Note_on_c, 6, 59, 95
5, 40800, Note_on_c, 6, 55, 95
5, 40800, Note_on_c, 6, 52, 95
5, 40800, Note_on_c, 6, 47, 95
5, 40800, Note_on_c, 6, 40, 95
5, 41040, Note_off_c, 6, 64, 95
5, 41040, Note_off_c, 6, 59, 95
5, 41040, Note_off_c, 6, 55, 95
5, 41040, Note_off_c, 6, 52, 95
5, 41040, Note_off_c, 6, 47, 95
5, 41040, Note_off_c, 6, 40, 95
5, 41040, Note_on_c, 6, 64, 95
5, 41040, Note_on_c, 6, 59, 95
5, 41040, Note_on_c, 6, 55, 95
5, 41040, Note_on_c, 6, 52, 95
5, 41040, Note_on_c, 6, 47, 95
5, 41040, Note_on_c, 6, 40, 95
5, 41280, Note_off_c, 6, 64, 95
5, 41280, Note_off_c, 6, 59, 95
5, 41280, Note_off_c, 6, 55, 95
5, 41280, Note_off_c, 6, 52, 95
5, 41280, Note_off_c, 6, 47, 95
5, 41280, Note_off_c, 6, 40, 95
5, 41280, Note_on_c, 6, 64, 95
5, 41280, Note_on_c, 6, 59, 95
5, 41280, Note_on_c, 6, 55, 95
5, 41280, Note_on_c, 6, 52, 95
5, 41280, Note_on_c, 6, 47, 95
5, 41280, Note_on_c, 6, 40, 95
5, 41520, Note_off_c, 6, 64, 95
5, 41520, Note_off_c, 6, 59, 95
5, 41520, Note_off_c, 6, 55, 95
5, 41520, Note_off_c, 6, 52, 95
5, 41520, Note_off_c, 6, 47, 95
5, 41520, Note_off_c, 6, 40, 95
5, 41520, Note_on_c, 6, 64, 95
5, 41520, Note_on_c, 6, 59, 95
5, 41520, Note_on_c, 6, 55, 95
5, 41520, Note_on_c, 6, 52, 95
5, 41520, Note_on_c, 6, 47, 95
5, 41520, Note_on_c, 6, 40, 95
5, 41760, Note_off_c, 6, 64, 95
5, 41760, Note_off_c, 6, 59, 95
5, 41760, Note_off_c, 6, 55, 95
5, 41760, Note_off_c, 6, 52, 95
5, 41760, Note_off_c, 6, 47, 95
5, 41760, Note_off_c, 6, 40, 95
5, 41760, Note_on_c, 6, 64, 95
5, 41760, Note_on_c, 6, 59, 95
5, 41760, Note_on_c, 6, 55, 95
5, 41760, Note_on_c, 6, 52, 95
5, 41760, Note_on_c, 6, 47, 95
5, 41760, Note_on_c, 6, 40, 95
5, 42240, Note_off_c, 6, 64, 95
5, 42240, Note_off_c, 6, 59, 95
5, 42240, Note_off_c, 6, 55, 95
5, 42240, Note_off_c, 6, 52, 95
5, 42240, Note_off_c, 6, 47, 95
5, 42240, Note_off_c, 6, 40, 95
5, 42240, Note_on_c, 6, 64, 111
5, 42240, Note_on_c, 6, 59, 111
5, 42240, Note_on_c, 6, 55, 111
5, 42240, Note_on_c, 6, 52, 111
5, 42240, Note_on_c, 6, 47, 111
5, 42240, Note_on_c, 6, 40, 111
5, 42480, Note_off_c, 6, 64, 111
5, 42480, Note_off_c, 6, 59, 111
5, 42480, Note_off_c, 6, 55, 111
5, 42480, Note_off_c, 6, 52, 111
5, 42480, Note_off_c, 6, 47, 111
5, 42480, Note_off_c, 6, 40, 111
5, 42480, Note_on_c, 6, 64, 95
5, 42480, Note_on_c, 6, 59, 95
5, 42480, Note_on_c, 6, 55, 95
5, 42480, Note_on_c, 6, 52, 95
5, 42480, Note_on_c, 6, 47, 95
5, 42480, Note_on_c, 6, 40, 95
5, 42720, Note_off_c, 6, 64, 95
5, 42720, Note_off_c, 6, 59, 95
5, 42720, Note_off_c, 6, 55, 95
5, 42720, Note_off_c, 6, 52, 95
5, 42720, Note_off_c, 6, 47, 95
5, 42720, Note_off_c, 6, 40, 95
5, 42720, Note_on_c, 6, 64, 95
5, 42720, Note_on_c, 6, 59, 95
5, 42720, Note_on_c, 6, 55, 95
5, 42720, Note_on_c, 6, 52, 95
5, 42720, Note_on_c, 6, 47, 95
5, 42720, Note_on_c, 6, 40, 95
5, 42960, Note_off_c, 6, 64, 95
5, 42960, Note_off_c, 6, 59, 95
5, 42960, Note_off_c, 6, 55, 95
5, 42960, Note_off_c, 6, 52, 95
5, 42960, Note_off_c, 6, 47, 95
5, 42960, Note_off_c, 6, 40, 95
5, 42960, Note_on_c, 6, 64, 95
5, 42960, Note_on_c, 6, 59, 95
5, 42960, Note_on_c, 6, 55, 95
5, 42960, Note_on_c, 6, 52, 95
5, 42960, Note_on_c, 6, 47, 95
5, 42960, Note_on_c, 6, 40, 95
5, 43200, Note_off_c, 6, 64, 95
5, 43200, Note_off_c, 6, 59, 95
5, 43200, Note_off_c, 6, 55, 95
5, 43200, Note_off_c, 6, 52, 95
5, 43200, Note_off_c, 6, 47, 95
5, 43200, Note_off_c, 6, 40, 95
5, 43200, Note_on_c, 6, 64, 95
5, 43200, Note_on_c, 6, 59, 95
5, 43200, Note_on_c, 6, 55, 95
5, 43200, Note_on_c, 6, 52, 95
5, 43200, Note_on_c, 6, 47, 95
5, 43200, Note_on_c, 6, 40, 95
5, 43680, Note_off_c, 6, 64, 95
5, 43680, Note_off_c, 6, 59, 95
5, 43680, Note_off_c, 6, 55, 95
5, 43680, Note_off_c, 6, 52, 95
5, 43680, Note_off_c, 6, 47, 95
5, 43680, Note_off_c, 6, 40, 95
5, 43680, Note_on_c, 6, 64, 95
5, 43680, Note_on_c, 6, 59, 95
5, 43680, Note_on_c, 6, 55, 95
5, 43680, Note_on_c, 6, 52, 95
5, 43680, Note_on_c, 6, 47, 95
5, 43680, Note_on_c, 6, 40, 95
5, 43920, Note_off_c, 6, 64, 95
5, 43920, Note_off_c, 6, 59, 95
5, 43920, Note_off_c, 6, 55, 95
5, 43920, Note_off_c, 6, 52, 95
5, 43920, Note_off_c, 6, 47, 95
5, 43920, Note_off_c, 6, 40, 95
5, 43920, Note_on_c, 6, 64, 95
5, 43920, Note_on_c, 6, 59, 95
5, 43920, Note_on_c, 6, 55, 95
5, 43920, Note_on_c, 6, 52, 95
5, 43920, Note_on_c, 6, 47, 95
5, 43920, Note_on_c, 6, 40, 95
5, 44160, Note_off_c, 6, 64, 95
5, 44160, Note_off_c, 6, 59, 95
5, 44160, Note_off_c, 6, 55, 95
5, 44160, Note_off_c, 6, 52, 95
5, 44160, Note_off_c, 6, 47, 95
5, 44160, Note_off_c, 6, 40, 95
5, 44160, Note_on_c, 6, 64, 95
5, 44160, Note_on_c, 6, 59, 95
5, 44160, Note_on_c, 6, 55, 95
5, 44160, Note_on_c, 6, 52, 95
5, 44160, Note_on_c, 6, 47, 95
5, 44160, Note_on_c, 6, 40, 95
5, 44400, Note_off_c, 6, 64, 95
5, 44400, Note_off_c, 6, 59, 95
5, 44400, Note_off_c, 6, 55, 95
5, 44400, Note_off_c, 6, 52, 95
5, 44400, Note_off_c, 6, 47, 95
5, 44400, Note_off_c, 6, 40, 95
5, 44400, Note_on_c, 6, 64, 95
5, 44400, Note_on_c, 6, 59, 95
5, 44400, Note_on_c, 6, 55, 95
5, 44400, Note_on_c, 6, 52, 95
5, 44400, Note_on_c, 6, 47, 95
5, 44400, Note_on_c, 6, 40, 95
5, 44640, Note_off_c, 6, 64, 95
5, 44640, Note_off_c, 6, 59, 95
5, 44640, Note_off_c, 6, 55, 95
5, 44640, Note_off_c, 6, 52, 95
5, 44640, Note_off_c, 6, 47, 95
5, 44640, Note_off_c, 6, 40, 95
5, 44640, Note_on_c, 6, 64, 95
5, 44640, Note_on_c, 6, 59, 95
5, 44640, Note_on_c, 6, 55, 95
5, 44640, Note_on_c, 6, 52, 95
5, 44640, Note_on_c, 6, 47, 95
5, 44640, Note_on_c, 6, 40, 95
5, 45120, Note_off_c, 6, 64, 95
5, 45120, Note_off_c, 6, 59, 95
5, 45120, Note_off_c, 6, 55, 95
5, 45120, Note_off_c, 6, 52, 95
5, 45120, Note_off_c, 6, 47, 95
5, 45120, Note_off_c, 6, 40, 95
5, 45120, Note_on_c, 6, 64, 111
5, 45120, Note_on_c, 6, 59, 111
5, 45120, Note_on_c, 6, 55, 111
5, 45120, Note_on_c, 6, 52, 111
5, 45120, Note_on_c, 6, 47, 111
5, 45120, Note_on_c, 6, 40, 111
5, 45360, Note_off_c, 6, 64, 111
5, 45360, Note_off_c, 6, 59, 111
5, 45360, Note_off_c, 6, 55, 111
5, 45360, Note_off_c, 6, 52, 111
5, 45360, Note_off_c, 6, 47, 111
5, 45360, Note_off_c, 6, 40, 111
5, 45360, Note_on_c, 6, 64, 95
5, 45360, Note_on_c, 6, 59, 95
5, 45360, Note_on_c, 6, 55, 95
5, 45360, Note_on_c, 6, 52, 95
5, 45360, Note_on_c, 6, 47, 95
5, 45360, Note_on_c, 6, 40, 95
5, 45600, Note_off_c, 6, 64, 95
5, 45600, Note_off_c, 6, 59, 95
5, 45600, Note_off_c, 6, 55, 95
5, 45600, Note_off_c, 6, 52, 95
5, 45600, Note_off_c, 6, 47, 95
5, 45600, Note_off_c, 6, 40, 95
5, 45600, Note_on_c, 6, 64, 95
5, 45600, Note_on_c, 6, 59, 95
5, 45600, Note_on_c, 6, 55, 95
5, 45600, Note_on_c, 6, 52, 95
5, 45600, Note_on_c, 6, 47, 95
5, 45600, Note_on_c, 6, 40, 95
5, 45840, Note_off_c, 6, 64, 95
5, 45840, Note_off_c, 6, 59, 95
5, 45840, Note_off_c, 6, 55, 95
5, 45840, Note_off_c, 6, 52, 95
5, 45840, Note_off_c, 6, 47, 95
5, 45840, Note_off_c, 6, 40, 95
5, 45840, Note_on_c, 6, 64, 95
5, 45840, Note_on_c, 6, 59, 95
5, 45840, Note_on_c, 6, 55, 95
5, 45840, Note_on_c, 6, 52, 95
5, 45840, Note_on_c, 6, 47, 95
5, 45840, Note_on_c, 6, 40, 95
5, 46080, Note_off_c, 6, 64, 95
5, 46080, Note_off_c, 6, 59, 95
5, 46080, Note_off_c, 6, 55, 95
5, 46080, Note_off_c, 6, 52, 95
5, 46080, Note_off_c, 6, 47, 95
5, 46080, Note_off_c, 6, 40, 95
5, 46080, Note_on_c, 6, 64, 95
5, 46080, Note_on_c, 6, 55, 95
5, 46080, Note_on_c, 6, 53, 95
5, 46080, Note_on_c, 6, 48, 95
5, 46080, Note_on_c, 6, 41, 95
5, 46560, Note_off_c, 6, 64, 95
5, 46560, Note_off_c, 6, 55, 95
5, 46560, Note_off_c, 6, 53, 95
5, 46560, Note_off_c, 6, 48, 95
5, 46560, Note_off_c, 6, 41, 95
5, 46560, Note_on_c, 6, 64, 95
5, 46560, Note_on_c, 6, 55, 95
5, 46560, Note_on_c, 6, 53, 95
5, 46560, Note_on_c, 6, 48, 95
5, 46560, Note_on_c, 6, 41, 95
5, 46800, Note_off_c, 6, 64, 95
5, 46800, Note_off_c, 6, 55, 95
5, 46800, Note_off_c, 6, 53, 95
5, 46800, Note_off_c, 6, 48, 95
5, 46800, Note_off_c, 6, 41, 95
5, 46800, Note_on_c, 6, 64, 95
5, 46800, Note_on_c, 6, 55, 95
5, 46800, Note_on_c, 6, 53, 95
5, 46800, Note_on_c, 6, 48, 95
5, 46800, Note_on_c, 6, 41, 95
5, 47040, Note_off_c, 6, 64, 95
5, 47040, Note_off_c, 6, 55, 95
5, 47040, Note_off_c, 6, 53, 95
5, 47040, Note_off_c, 6, 48, 95
5, 47040, Note_off_c, 6, 41, 95
5, 47040, Note_on_c, 6, 64, 95
5, 47040, Note_on_c, 6, 55, 95
5, 47040, Note_on_c, 6, 53, 95
5, 47040, Note_on_c, 6, 48, 95
5, 47040, Note_on_c, 6, 41, 95
5, 47280, Note_off_c, 6, 64, 95
5, 47280, Note_off_c, 6, 55, 95
5, 47280, Note_off_c, 6, 53, 95
5, 47280, Note_off_c, 6, 48, 95
5, 47280, Note_off_c, 6, 41, 95
5, 47280, Note_on_c, 6, 64, 95
5, 47280, Note_on_c, 6, 55, 95
5, 47280, Note_on_c, 6, 53, 95
5, 47280, Note_on_c, 6, 48, 95
5, 47280, Note_on_c, 6, 41, 95
5, 47520, Note_off_c, 6, 64, 95
5, 47520, Note_off_c, 6, 55, 95
5, 47520, Note_off_c, 6, 53, 95
5, 47520, Note_off_c, 6, 48, 95
5, 47520, Note_off_c, 6, 41, 95
5, 47520, Note_on_c, 6, 64, 95
5, 47520, Note_on_c, 6, 55, 95
5, 47520, Note_on_c, 6, 53, 95
5, 47520, Note_on_c, 6, 48, 95
5, 47520, Note_on_c, 6, 41, 95
5, 48000, Note_off_c, 6, 64, 95
5, 48000, Note_off_c, 6, 55, 95
5, 48000, Note_off_c, 6, 53, 95
5, 48000, Note_off_c, 6, 48, 95
5, 48000, Note_off_c, 6, 41, 95
5, 48000, Note_on_c, 6, 64, 111
5, 48000, Note_on_c, 6, 55, 111
5, 48000, Note_on_c, 6, 53, 111
5, 48000, Note_on_c, 6, 48, 111
5, 48000, Note_on_c, 6, 41, 111
5, 48240, Note_off_c, 6, 64, 111
5, 48240, Note_off_c, 6, 55, 111
5, 48240, Note_off_c, 6, 53, 111
5, 48240, Note_off_c, 6, 48, 111
5, 48240, Note_off_c, 6, 41, 111
5, 48240, Note_on_c, 6, 64, 95
5, 48240, Note_on_c, 6, 55, 95
5, 48240, Note_on_c, 6, 53, 95
5, 48240, Note_on_c, 6, 48, 95
5, 48240, Note_on_c, 6, 41, 95
5, 48480, Note_off_c, 6, 64, 95
5, 48480, Note_off_c, 6, 55, 95
5, 48480, Note_off_c, 6, 53, 95
5, 48480, Note_off_c, 6, 48, 95
5, 48480, Note_off_c, 6, 41, 95
5, 48480, Note_on_c, 6, 64, 95
5, 48480, Note_on_c, 6, 55, 95
5, 48480, Note_on_c, 6, 53, 95
5, 48480, Note_on_c, 6, 48, 95
5, 48480, Note_on_c, 6, 41, 95
5, 48720, Note_off_c, 6, 64, 95
5, 48720, Note_off_c, 6, 55, 95
5, 48720, Note_off_c, 6, 53, 95
5, 48720, Note_off_c, 6, 48, 95
5, 48720, Note_off_c, 6, 41, 95
5, 48720, Note_on_c, 6, 64, 95
5, 48720, Note_on_c, 6, 55, 95
5, 48720, Note_on_c, 6, 53, 95
5, 48720, Note_on_c, 6, 48, 95
5, 48720, Note_on_c, 6, 41, 95
5, 48960, Note_off_c, 6, 64, 95
5, 48960, Note_off_c, 6, 55, 95
5, 48960, Note_off_c, 6, 53, 95
5, 48960, Note_off_c, 6, 48, 95
5, 48960, Note_off_c, 6, 41, 95
5, 48960, Note_on_c, 6, 64, 95
5, 48960, Note_on_c, 6, 59, 95
5, 48960, Note_on_c, 6, 55, 95
5, 48960, Note_on_c, 6, 52, 95
5, 48960, Note_on_c, 6, 47, 95
5, 48960, Note_on_c, 6, 40, 95
5, 49440, Note_off_c, 6, 64, 95
5, 49440, Note_off_c, 6, 59, 95
5, 49440, Note_off_c, 6, 55, 95
5, 49440, Note_off_c, 6, 52, 95
5, 49440, Note_off_c, 6, 47, 95
5, 49440, Note_off_c, 6, 40, 95
5, 49440, Note_on_c, 6, 64, 95
5, 49440, Note_on_c, 6, 59, 95
5, 49440, Note_on_c, 6, 55, 95
5, 49440, Note_on_c, 6, 52, 95
5, 49440, Note_on_c, 6, 47, 95
5, 49440, Note_on_c, 6, 40, 95
5, 49680, Note_off_c, 6, 64, 95
5, 49680, Note_off_c, 6, 59, 95
5, 49680, Note_off_c, 6, 55, 95
5, 49680, Note_off_c, 6, 52, 95
5, 49680, Note_off_c, 6, 47, 95
5, 49680, Note_off_c, 6, 40, 95
5, 49680, Note_on_c, 6, 64, 95
5, 49680, Note_on_c, 6, 59, 95
5, 49680, Note_on_c, 6, 55, 95
5, 49680, Note_on_c, 6, 52, 95
5, 49680, Note_on_c, 6, 47, 95
5, 49680, Note_on_c, 6, 40, 95
5, 49920, Note_off_c, 6, 64, 95
5, 49920, Note_off_c, 6, 59, 95
5, 49920, Note_off_c, 6, 55, 95
5, 49920, Note_off_c, 6, 52, 95
5, 49920, Note_off_c, 6, 47, 95
5, 49920, Note_off_c, 6, 40, 95
5, 49920, Note_on_c, 6, 64, 95
5, 49920, Note_on_c, 6, 59, 95
5, 49920, Note_on_c, 6, 55, 95
5, 49920, Note_on_c, 6, 52, 95
5, 49920, Note_on_c, 6, 47, 95
5, 49920, Note_on_c, 6, 40, 95
5, 50160, Note_off_c, 6, 64, 95
5, 50160, Note_off_c, 6, 59, 95
5, 50160, Note_off_c, 6, 55, 95
5, 50160, Note_off_c, 6, 52, 95
5, 50160, Note_off_c, 6, 47, 95
5, 50160, Note_off_c, 6, 40, 95
5, 50160, Note_on_c, 6, 64, 95
5, 50160, Note_on_c, 6, 59, 95
5, 50160, Note_on_c, 6, 55, 95
5, 50160, Note_on_c, 6, 52, 95
5, 50160, Note_on_c, 6, 47, 95
5, 50160, Note_on_c, 6, 40, 95
5, 50400, Note_off_c, 6, 64, 95
5, 50400, Note_off_c, 6, 59, 95
5, 50400, Note_off_c, 6, 55, 95
5, 50400, Note_off_c, 6, 52, 95
5, 50400, Note_off_c, 6, 47, 95
5, 50400, Note_off_c, 6, 40, 95
5, 50400, Note_on_c, 6, 64, 95
5, 50400, Note_on_c, 6, 59, 95
5, 50400, Note_on_c, 6, 55, 95
5, 50400, Note_on_c, 6, 52, 95
5, 50400, Note_on_c, 6, 47, 95
5, 50400, Note_on_c, 6, 40, 95
5, 50880, Note_off_c, 6, 64, 95
5, 50880, Note_off_c, 6, 59, 95
5, 50880, Note_off_c, 6, 55, 95
5, 50880, Note_off_c, 6, 52, 95
5, 50880, Note_off_c, 6, 47, 95
5, 50880, Note_off_c, 6, 40, 95
5, 50880, Note_on_c, 6, 64, 111
5, 50880, Note_on_c, 6, 59, 111
5, 50880, Note_on_c, 6, 55, 111
5, 50880, Note_on_c, 6, 52, 111
5, 50880, Note_on_c, 6, 47, 111
5, 50880, Note_on_c, 6, 40, 111
5, 51120, Note_off_c, 6, 64, 111
5, 51120, Note_off_c, 6, 59, 111
5, 51120, Note_off_c, 6, 55, 111
5, 51120, Note_off_c, 6, 52, 111
5, 51120, Note_off_c, 6, 47, 111
5, 51120, Note_off_c, 6, 40, 111
5, 51120, Note_on_c, 6, 64, 95
5, 51120, Note_on_c, 6, 59, 95
5, 51120, Note_on_c, 6, 55, 95
5, 51120, Note_on_c, 6, 52, 95
5, 51120, Note_on_c, 6, 47, 95
5, 51120, Note_on_c, 6, 40, 95
5, 51360, Note_off_c, 6, 64, 95
5, 51360, Note_off_c, 6, 59, 95
5, 51360, Note_off_c, 6, 55, 95
5, 51360, Note_off_c, 6, 52, 95
5, 51360, Note_off_c, 6, 47, 95
5, 51360, Note_off_c, 6, 40, 95
5, 51360, Note_on_c, 6, 64, 95
5, 51360, Note_on_c, 6, 59, 95
5, 51360, Note_on_c, 6, 55, 95
5, 51360, Note_on_c, 6, 52, 95
5, 51360, Note_on_c, 6, 47, 95
5, 51360, Note_on_c, 6, 40, 95
5, 51600, Note_off_c, 6, 64, 95
5, 51600, Note_off_c, 6, 59, 95
5, 51600, Note_off_c, 6, 55, 95
5, 51600, Note_off_c, 6, 52, 95
5, 51600, Note_off_c, 6, 47, 95
5, 51600, Note_off_c, 6, 40, 95
5, 51600, Note_on_c, 6, 64, 95
5, 51600, Note_on_c, 6, 59, 95
5, 51600, Note_on_c, 6, 55, 95
5, 51600, Note_on_c, 6, 52, 95
5, 51600, Note_on_c, 6, 47, 95
5, 51600, Note_on_c, 6, 40, 95
5, 51840, Note_off_c, 6, 64, 95
5, 51840, Note_off_c, 6, 59, 95
5, 51840, Note_off_c, 6, 55, 95
5, 51840, Note_off_c, 6, 52, 95
5, 51840, Note_off_c, 6, 47, 95
5, 51840, Note_off_c, 6, 40, 95
5, 51840, Note_on_c, 6, 64, 95
5, 51840, Note_on_c, 6, 59, 95
5, 51840, Note_on_c, 6, 55, 95
5, 51840, Note_on_c, 6, 51, 95
5, 51840, Note_on_c, 6, 46, 95
5, 51840, Note_on_c, 6, 39, 95
5, 52320, Note_off_c, 6, 64, 95
5, 52320, Note_off_c, 6, 59, 95
5, 52320, Note_off_c, 6, 55, 95
5, 52320, Note_off_c, 6, 51, 95
5, 52320, Note_off_c, 6, 46, 95
5, 52320, Note_off_c, 6, 39, 95
5, 52320, Note_on_c, 6, 64, 95
5, 52320, Note_on_c, 6, 59, 95
5, 52320, Note_on_c, 6, 55, 95
5, 52320, Note_on_c, 6, 51, 95
5, 52320, Note_on_c, 6, 46, 95
5, 52320, Note_on_c, 6, 39, 95
5, 52560, Note_off_c, 6, 64, 95
5, 52560, Note_off_c, 6, 59, 95
5, 52560, Note_off_c, 6, 55, 95
5, 52560, Note_off_c, 6, 51, 95
5, 52560, Note_off_c, 6, 46, 95
5, 52560, Note_off_c, 6, 39, 95
5, 52560, Note_on_c, 6, 64, 95
5, 52560, Note_on_c, 6, 59, 95
5, 52560, Note_on_c, 6, 55, 95
5, 52560, Note_on_c, 6, 51, 95
5, 52560, Note_on_c, 6, 46, 95
5, 52560, Note_on_c, 6, 39, 95
5, 52800, Note_off_c, 6, 64, 95
5, 52800, Note_off_c, 6, 59, 95
5, 52800, Note_off_c, 6, 55, 95
5, 52800, Note_off_c, 6, 51, 95
5, 52800, Note_off_c, 6, 46, 95
5, 52800, Note_off_c, 6, 39, 95
5, 52800, Note_on_c, 6, 64, 95
5, 52800, Note_on_c, 6, 59, 95
5, 52800, Note_on_c, 6, 55, 95
5, 52800, Note_on_c, 6, 51, 95
5, 52800, Note_on_c, 6, 46, 95
5, 52800, Note_on_c, 6, 39, 95
5, 53040, Note_off_c, 6, 64, 95
5, 53040, Note_off_c, 6, 59, 95
5, 53040, Note_off_c, 6, 55, 95
5, 53040, Note_off_c, 6, 51, 95
5, 53040, Note_off_c, 6, 46, 95
5, 53040, Note_off_c, 6, 39, 95
5, 53040, Note_on_c, 6, 64, 95
5, 53040, Note_on_c, 6, 59, 95
5, 53040, Note_on_c, 6, 55, 95
5, 53040, Note_on_c, 6, 51, 95
5, 53040, Note_on_c, 6, 46, 95
5, 53040, Note_on_c, 6, 39, 95
5, 53280, Note_off_c, 6, 64, 95
5, 53280, Note_off_c, 6, 59, 95
5, 53280, Note_off_c, 6, 55, 95
5, 53280, Note_off_c, 6, 51, 95
5, 53280, Note_off_c, 6, 46, 95
5, 53280, Note_off_c, 6, 39, 95
5, 53280, Note_on_c, 6, 64, 95
5, 53280, Note_on_c, 6, 59, 95
5, 53280, Note_on_c, 6, 55, 95
5, 53280, Note_on_c, 6, 51, 95
5, 53280, Note_on_c, 6, 46, 95
5, 53280, Note_on_c, 6, 39, 95
5, 53760, Note_off_c, 6, 64, 95
5, 53760, Note_off_c, 6, 59, 95
5, 53760, Note_off_c, 6, 55, 95
5, 53760, Note_off_c, 6, 51, 95
5, 53760, Note_off_c, 6, 46, 95
5, 53760, Note_off_c, 6, 39, 95
5, 53760, Note_on_c, 6, 64, 111
5, 53760, Note_on_c, 6, 59, 111
5, 53760, Note_on_c, 6, 55, 111
5, 53760, Note_on_c, 6, 51, 111
5, 53760, Note_on_c, 6, 46, 111
5, 53760, Note_on_c, 6, 39, 111
5, 54000, Note_off_c, 6, 64, 111
5, 54000, Note_off_c, 6, 59, 111
5, 54000, Note_off_c, 6, 55, 111
5, 54000, Note_off_c, 6, 51, 111
5, 54000, Note_off_c, 6, 46, 111
5, 54000, Note_off_c, 6, 39, 111
5, 54000, Note_on_c, 6, 64, 95
5, 54000, Note_on_c, 6, 59, 95
5, 54000, Note_on_c, 6, 55, 95
5, 54000, Note_on_c, 6, 51, 95
5, 54000, Note_on_c, 6, 46, 95
5, 54000, Note_on_c, 6, 39, 95
5, 54240, Note_off_c, 6, 64, 95
5, 54240, Note_off_c, 6, 59, 95
5, 54240, Note_off_c, 6, 55, 95
5, 54240, Note_off_c, 6, 51, 95
5, 54240, Note_off_c, 6, 46, 95
5, 54240, Note_off_c, 6, 39, 95
5, 54240, Note_on_c, 6, 64, 95
5, 54240, Note_on_c, 6, 59, 95
5, 54240, Note_on_c, 6, 55, 95
5, 54240, Note_on_c, 6, 51, 95
5, 54240, Note_on_c, 6, 46, 95
5, 54240, Note_on_c, 6, 39, 95
5, 54480, Note_off_c, 6, 64, 95
5, 54480, Note_off_c, 6, 59, 95
5, 54480, Note_off_c, 6, 55, 95
5, 54480, Note_off_c, 6, 51, 95
5, 54480, Note_off_c, 6, 46, 95
5, 54480, Note_off_c, 6, 39, 95
5, 54480, Note_on_c, 6, 64, 95
5, 54480, Note_on_c, 6, 59, 95
5, 54480, Note_on_c, 6, 55, 95
5, 54480, Note_on_c, 6, 51, 95
5, 54480, Note_on_c, 6, 46, 95
5, 54480, Note_on_c, 6, 39, 95
5, 54720, Note_off_c, 6, 64, 95
5, 54720, Note_off_c, 6, 59, 95
5, 54720, Note_off_c, 6, 55, 95
5, 54720, Note_off_c, 6, 51, 95
5, 54720, Note_off_c, 6, 46, 95
5, 54720, Note_off_c, 6, 39, 95
5, 54720, Note_on_c, 6, 64, 95
5, 54720, Note_on_c, 6, 59, 95
5, 54720, Note_on_c, 6, 55, 95
5, 54720, Note_on_c, 6, 51, 95
5, 54720, Note_on_c, 6, 46, 95
5, 54720, Note_on_c, 6, 39, 95
5, 55200, Note_off_c, 6, 64, 95
5, 55200, Note_off_c, 6, 59, 95
5, 55200, Note_off_c, 6, 55, 95
5, 55200, Note_off_c, 6, 51, 95
5, 55200, Note_off_c, 6, 46, 95
5, 55200, Note_off_c, 6, 39, 95
5, 55200, Note_on_c, 6, 64, 95
5, 55200, Note_on_c, 6, 59, 95
5, 55200, Note_on_c, 6, 55, 95
5, 55200, Note_on_c, 6, 51, 95
5, 55200, Note_on_c, 6, 46, 95
5, 55200, Note_on_c, 6, 39, 95
5, 55440, Note_off_c, 6, 64, 95
5, 55440, Note_off_c, 6, 59, 95
5, 55440, Note_off_c, 6, 55, 95
5, 55440, Note_off_c, 6, 51, 95
5, 55440, Note_off_c, 6, 46, 95
5, 55440, Note_off_c, 6, 39, 95
5, 55440, Note_on_c, 6, 64, 95
5, 55440, Note_on_c, 6, 59, 95
5, 55440, Note_on_c, 6, 55, 95
5, 55440, Note_on_c, 6, 51, 95
5, 55440, Note_on_c, 6, 46, 95
5, 55440, Note_on_c, 6, 39, 95
5, 55680, Note_off_c, 6, 64, 95
5, 55680, Note_off_c, 6, 59, 95
5, 55680, Note_off_c, 6, 55, 95
5, 55680, Note_off_c, 6, 51, 95
5, 55680, Note_off_c, 6, 46, 95
5, 55680, Note_off_c, 6, 39, 95
5, 55680, Note_on_c, 6, 64, 95
5, 55680, Note_on_c, 6, 59, 95
5, 55680, Note_on_c, 6, 55, 95
5, 55680, Note_on_c, 6, 51, 95
5, 55680, Note_on_c, 6, 46, 95
5, 55680, Note_on_c, 6, 39, 95
5, 55920, Note_off_c, 6, 64, 95
5, 55920, Note_off_c, 6, 59, 95
5, 55920, Note_off_c, 6, 55, 95
5, 55920, Note_off_c, 6, 51, 95
5, 55920, Note_off_c, 6, 46, 95
5, 55920, Note_off_c, 6, 39, 95
5, 55920, Note_on_c, 6, 64, 95
5, 55920, Note_on_c, 6, 59, 95
5, 55920, Note_on_c, 6, 55, 95
5, 55920, Note_on_c, 6, 51, 95
5, 55920, Note_on_c, 6, 46, 95
5, 55920, Note_on_c, 6, 39, 95
5, 56160, Note_off_c, 6, 64, 95
5, 56160, Note_off_c, 6, 59, 95
5, 56160, Note_off_c, 6, 55, 95
5, 56160, Note_off_c, 6, 51, 95
5, 56160, Note_off_c, 6, 46, 95
5, 56160, Note_off_c, 6, 39, 95
5, 56160, Note_on_c, 6, 64, 95
5, 56160, Note_on_c, 6, 59, 95
5, 56160, Note_on_c, 6, 55, 95
5, 56160, Note_on_c, 6, 51, 95
5, 56160, Note_on_c, 6, 46, 95
5, 56160, Note_on_c, 6, 39, 95
5, 56640, Note_off_c, 6, 64, 95
5, 56640, Note_off_c, 6, 59, 95
5, 56640, Note_off_c, 6, 55, 95
5, 56640, Note_off_c, 6, 51, 95
5, 56640, Note_off_c, 6, 46, 95
5, 56640, Note_off_c, 6, 39, 95
5, 56640, Note_on_c, 6, 64, 111
5, 56640, Note_on_c, 6, 59, 111
5, 56640, Note_on_c, 6, 55, 111
5, 56640, Note_on_c, 6, 51, 111
5, 56640, Note_on_c, 6, 46, 111
5, 56640, Note_on_c, 6, 39, 111
5, 56880, Note_off_c, 6, 64, 111
5, 56880, Note_off_c, 6, 59, 111
5, 56880, Note_off_c, 6, 55, 111
5, 56880, Note_off_c, 6, 51, 111
5, 56880, Note_off_c, 6, 46, 111
5, 56880, Note_off_c, 6, 39, 111
5, 56880, Note_on_c, 6, 64, 95
5, 56880, Note_on_c, 6, 59, 95
5, 56880, Note_on_c, 6, 55, 95
5, 56880, Note_on_c, 6, 51, 95
5, 56880, Note_on_c, 6, 46, 95
5, 56880, Note_on_c, 6, 39, 95
5, 57120, Note_off_c, 6, 64, 95
5, 57120, Note_off_c, 6, 59, 95
5, 57120, Note_off_c, 6, 55, 95
5, 57120, Note_off_c, 6, 51, 95
5, 57120, Note_off_c, 6, 46, 95
5, 57120, Note_off_c, 6, 39, 95
5, 57120, Note_on_c, 6, 64, 95
5, 57120, Note_on_c, 6, 59, 95
5, 57120, Note_on_c, 6, 55, 95
5, 57120, Note_on_c, 6, 51, 95
5, 57120, Note_on_c, 6, 46, 95
5, 57120, Note_on_c, 6, 39, 95
5, 57360, Note_off_c, 6, 64, 95
5, 57360, Note_off_c, 6, 59, 95
5, 57360, Note_off_c, 6, 55, 95
5, 57360, Note_off_c, 6, 51, 95
5, 57360, Note_off_c, 6, 46, 95
5, 57360, Note_off_c, 6, 39, 95
5, 57360, Note_on_c, 6, 64, 95
5, 57360, Note_on_c, 6, 59, 95
5, 57360, Note_on_c, 6, 55, 95
5, 57360, Note_on_c, 6, 51, 95
5, 57360, Note_on_c, 6, 46, 95
5, 57360, Note_on_c, 6, 39, 95
5, 57600, Note_off_c, 6, 64, 95
5, 57600, Note_off_c, 6, 59, 95
5, 57600, Note_off_c, 6, 55, 95
5, 57600, Note_off_c, 6, 51, 95
5, 57600, Note_off_c, 6, 46, 95
5, 57600, Note_off_c, 6, 39, 95
5, 57600, Note_on_c, 6, 64, 95
5, 57600, Note_on_c, 6, 59, 95
5, 57600, Note_on_c, 6, 55, 95
5, 57600, Note_on_c, 6, 53, 95
5, 57600, Note_on_c, 6, 48, 95
5, 57600, Note_on_c, 6, 41, 95
5, 58080, Note_off_c, 6, 64, 95
5, 58080, Note_off_c, 6, 59, 95
5, 58080, Note_off_c, 6, 55, 95
5, 58080, Note_off_c, 6, 53, 95
5, 58080, Note_off_c, 6, 48, 95
5, 58080, Note_off_c, 6, 41, 95
5, 58080, Note_on_c, 6, 64, 95
5, 58080, Note_on_c, 6, 59, 95
5, 58080, Note_on_c, 6, 55, 95
5, 58080, Note_on_c, 6, 53, 95
5, 58080, Note_on_c, 6, 48, 95
5, 58080, Note_on_c, 6, 41, 95
5, 58320, Note_off_c, 6, 64, 95
5, 58320, Note_off_c, 6, 59, 95
5, 58320, Note_off_c, 6, 55, 95
5, 58320, Note_off_c, 6, 53, 95
5, 58320, Note_off_c, 6, 48, 95
5, 58320, Note_off_c, 6, 41, 95
5, 58320, Note_on_c, 6, 64, 95
5, 58320, Note_on_c, 6, 59, 95
5, 58320, Note_on_c, 6, 55, 95
5, 58320, Note_on_c, 6, 53, 95
5, 58320, Note_on_c, 6, 48, 95
5, 58320, Note_on_c, 6, 41, 95
5, 58560, Note_off_c, 6, 64, 95
5, 58560, Note_off_c, 6, 59, 95
5, 58560, Note_off_c, 6, 55, 95
5, 58560, Note_off_c, 6, 53, 95
5, 58560, Note_off_c, 6, 48, 95
5, 58560, Note_off_c, 6, 41, 95
5, 58560, Note_on_c, 6, 64, 95
5, 58560, Note_on_c, 6, 59, 95
5, 58560, Note_on_c, 6, 55, 95
5, 58560, Note_on_c, 6, 53, 95
5, 58560, Note_on_c, 6, 48, 95
5, 58560, Note_on_c, 6, 41, 95
5, 58800, Note_off_c, 6, 64, 95
5, 58800, Note_off_c, 6, 59, 95
5, 58800, Note_off_c, 6, 55, 95
5, 58800, Note_off_c, 6, 53, 95
5, 58800, Note_off_c, 6, 48, 95
5, 58800, Note_off_c, 6, 41, 95
5, 58800, Note_on_c, 6, 64, 95
5, 58800, Note_on_c, 6, 59, 95
5, 58800, Note_on_c, 6, 55, 95
5, 58800, Note_on_c, 6, 53, 95
5, 58800, Note_on_c, 6, 48, 95
5, 58800, Note_on_c, 6, 41, 95
5, 59040, Note_off_c, 6, 64, 95
5, 59040, Note_off_c, 6, 59, 95
5, 59040, Note_off_c, 6, 55, 95
5, 59040, Note_off_c, 6, 53, 95
5, 59040, Note_off_c, 6, 48, 95
5, 59040, Note_off_c, 6, 41, 95
5, 59040, Note_on_c, 6, 64, 95
5, 59040, Note_on_c, 6, 59, 95
5, 59040, Note_on_c, 6, 55, 95
5, 59040, Note_on_c, 6, 53, 95
5, 59040, Note_on_c, 6, 48, 95
5, 59040, Note_on_c, 6, 41, 95
5, 59520, Note_off_c, 6, 64, 95
5, 59520, Note_off_c, 6, 59, 95
5, 59520, Note_off_c, 6, 55, 95
5, 59520, Note_off_c, 6, 53, 95
5, 59520, Note_off_c, 6, 48, 95
5, 59520, Note_off_c, 6, 41, 95
5, 59520, Note_on_c, 6, 64, 111
5, 59520, Note_on_c, 6, 59, 95
5, 59520, Note_on_c, 6, 55, 111
5, 59520, Note_on_c, 6, 53, 111
5, 59520, Note_on_c, 6, 48, 111
5, 59520, Note_on_c, 6, 41, 111
5, 59760, Note_off_c, 6, 64, 111
5, 59760, Note_off_c, 6, 59, 95
5, 59760, Note_off_c, 6, 55, 111
5, 59760, Note_off_c, 6, 53, 111
5, 59760, Note_off_c, 6, 48, 111
5, 59760, Note_off_c, 6, 41, 111
5, 59760, Note_on_c, 6, 64, 95
5, 59760, Note_on_c, 6, 59, 95
5, 59760, Note_on_c, 6, 55, 95
5, 59760, Note_on_c, 6, 53, 95
5, 59760, Note_on_c, 6, 48, 95
5, 59760, Note_on_c, 6, 41, 95
5, 60000, Note_off_c, 6, 64, 95
5, 60000, Note_off_c, 6, 59, 95
5, 60000, Note_off_c, 6, 55, 95
5, 60000, Note_off_c, 6, 53, 95
5, 60000, Note_off_c, 6, 48, 95
5, 60000, Note_off_c, 6, 41, 95
5, 60000, Note_on_c, 6, 64, 95
5, 60000, Note_on_c, 6, 59, 95
5, 60000, Note_on_c, 6, 55, 95
5, 60000, Note_on_c, 6, 53, 95
5, 60000, Note_on_c, 6, 48, 95
5, 60000, Note_on_c, 6, 41, 95
5, 60240, Note_off_c, 6, 64, 95
5, 60240, Note_off_c, 6, 59, 95
5, 60240, Note_off_c, 6, 55, 95
5, 60240, Note_off_c, 6, 53, 95
5, 60240, Note_off_c, 6, 48, 95
5, 60240, Note_off_c, 6, 41, 95
5, 60240, Note_on_c, 6, 64, 95
5, 60240, Note_on_c, 6, 59, 95
5, 60240, Note_on_c, 6, 55, 95
5, 60240, Note_on_c, 6, 53, 95
5, 60240, Note_on_c, 6, 48, 95
5, 60240, Note_on_c, 6, 41, 95
5, 60480, Note_off_c, 6, 64, 95
5, 60480, Note_off_c, 6, 59, 95
5, 60480, Note_off_c, 6, 55, 95
5, 60480, Note_off_c, 6, 53, 95
5, 60480, Note_off_c, 6, 48, 95
5, 60480, Note_off_c, 6, 41, 95
5, 60480, Note_on_c, 6, 64, 95
5, 60480, Note_on_c, 6, 59, 95
5, 60480, Note_on_c, 6, 55, 95
5, 60480, Note_on_c, 6, 52, 95
5, 60480, Note_on_c, 6, 47, 95
5, 60480, Note_on_c, 6, 40, 95
5, 60960, Note_off_c, 6, 64, 95
5, 60960, Note_off_c, 6, 59, 95
5, 60960, Note_off_c, 6, 55, 95
5, 60960, Note_off_c, 6, 52, 95
5, 60960, Note_off_c, 6, 47, 95
5, 60960, Note_off_c, 6, 40, 95
5, 60960, Note_on_c, 6, 64, 95
5, 60960, Note_on_c, 6, 59, 95
5, 60960, Note_on_c, 6, 55, 95
5, 60960, Note_on_c, 6, 52, 95
5, 60960, Note_on_c, 6, 47, 95
5, 60960, Note_on_c, 6, 40, 95
5, 61200, Note_off_c, 6, 64, 95
5, 61200, Note_off_c, 6, 59, 95
5, 61200, Note_off_c, 6, 55, 95
5, 61200, Note_off_c, 6, 52, 95
5, 61200, Note_off_c, 6, 47, 95
5, 61200, Note_off_c, 6, 40, 95
5, 61200, Note_on_c, 6, 64, 95
5, 61200, Note_on_c, 6, 59, 95
5, 61200, Note_on_c, 6, 55, 95
5, 61200, Note_on_c, 6, 52, 95
5, 61200, Note_on_c, 6, 47, 95
5, 61200, Note_on_c, 6, 40, 95
5, 61440, Note_off_c, 6, 64, 95
5, 61440, Note_off_c, 6, 59, 95
5, 61440, Note_off_c, 6, 55, 95
5, 61440, Note_off_c, 6, 52, 95
5, 61440, Note_off_c, 6, 47, 95
5, 61440, Note_off_c, 6, 40, 95
5, 61440, Note_on_c, 6, 64, 95
5, 61440, Note_on_c, 6, 59, 95
5, 61440, Note_on_c, 6, 55, 95
5, 61440, Note_on_c, 6, 52, 95
5, 61440, Note_on_c, 6, 47, 95
5, 61440, Note_on_c, 6, 40, 95
5, 61680, Note_off_c, 6, 64, 95
5, 61680, Note_off_c, 6, 59, 95
5, 61680, Note_off_c, 6, 55, 95
5, 61680, Note_off_c, 6, 52, 95
5, 61680, Note_off_c, 6, 47, 95
5, 61680, Note_off_c, 6, 40, 95
5, 61680, Note_on_c, 6, 64, 95
5, 61680, Note_on_c, 6, 59, 95
5, 61680, Note_on_c, 6, 55, 95
5, 61680, Note_on_c, 6, 52, 95
5, 61680, Note_on_c, 6, 47, 95
5, 61680, Note_on_c, 6, 40, 95
5, 61920, Note_off_c, 6, 64, 95
5, 61920, Note_off_c, 6, 59, 95
5, 61920, Note_off_c, 6, 55, 95
5, 61920, Note_off_c, 6, 52, 95
5, 61920, Note_off_c, 6, 47, 95
5, 61920, Note_off_c, 6, 40, 95
5, 61920, Note_on_c, 6, 64, 95
5, 61920, Note_on_c, 6, 59, 95
5, 61920, Note_on_c, 6, 55, 95
5, 61920, Note_on_c, 6, 52, 95
5, 61920, Note_on_c, 6, 47, 95
5, 61920, Note_on_c, 6, 40, 95
5, 62400, Note_off_c, 6, 64, 95
5, 62400, Note_off_c, 6, 59, 95
5, 62400, Note_off_c, 6, 55, 95
5, 62400, Note_off_c, 6, 52, 95
5, 62400, Note_off_c, 6, 47, 95
5, 62400, Note_off_c, 6, 40, 95
5, 62400, Note_on_c, 6, 64, 111
5, 62400, Note_on_c, 6, 59, 111
5, 62400, Note_on_c, 6, 55, 111
5, 62400, Note_on_c, 6, 52, 111
5, 62400, Note_on_c, 6, 47, 111
5, 62400, Note_on_c, 6, 40, 111
5, 62640, Note_off_c, 6, 64, 111
5, 62640, Note_off_c, 6, 59, 111
5, 62640, Note_off_c, 6, 55, 111
5, 62640, Note_off_c, 6, 52, 111
5, 62640, Note_off_c, 6, 47, 111
5, 62640, Note_off_c, 6, 40, 111
5, 62640, Note_on_c, 6, 64, 95
5, 62640, Note_on_c, 6, 59, 95
5, 62640, Note_on_c, 6, 55, 95
5, 62640, Note_on_c, 6, 52, 95
5, 62640, Note_on_c, 6, 47, 95
5, 62640, Note_on_c, 6, 40, 95
5, 62880, Note_off_c, 6, 64, 95
5, 62880, Note_off_c, 6, 59, 95
5, 62880, Note_off_c, 6, 55, 95
5, 62880, Note_off_c, 6, 52, 95
5, 62880, Note_off_c, 6, 47, 95
5, 62880, Note_off_c, 6, 40, 95
5, 62880, Note_on_c, 6, 64, 95
5, 62880, Note_on_c, 6, 59, 95
5, 62880, Note_on_c, 6, 55, 95
5, 62880, Note_on_c, 6, 52, 95
5, 62880, Note_on_c, 6, 47, 95
5, 62880, Note_on_c, 6, 40, 95
5, 63120, Note_off_c, 6, 64, 95
5, 63120, Note_off_c, 6, 59, 95
5, 63120, Note_off_c, 6, 55, 95
5, 63120, Note_off_c, 6, 52, 95
5, 63120, Note_off_c, 6, 47, 95
5, 63120, Note_off_c, 6, 40, 95
5, 63120, Note_on_c, 6, 64, 95
5, 63120, Note_on_c, 6, 59, 95
5, 63120, Note_on_c, 6, 55, 95
5, 63120, Note_on_c, 6, 52, 95
5, 63120, Note_on_c, 6, 47, 95
5, 63120, Note_on_c, 6, 40, 95
5, 63360, Note_off_c, 6, 64, 95
5, 63360, Note_off_c, 6, 59, 95
5, 63360, Note_off_c, 6, 55, 95
5, 63360, Note_off_c, 6, 52, 95
5, 63360, Note_off_c, 6, 47, 95
5, 63360, Note_off_c, 6, 40, 95
5, 63360, Note_on_c, 6, 64, 95
5, 63360, Note_on_c, 6, 59, 95
5, 63360, Note_on_c, 6, 55, 95
5, 63360, Note_on_c, 6, 51, 95
5, 63360, Note_on_c, 6, 46, 95
5, 63360, Note_on_c, 6, 39, 95
5, 63840, Note_off_c, 6, 64, 95
5, 63840, Note_off_c, 6, 59, 95
5, 63840, Note_off_c, 6, 55, 95
5, 63840, Note_off_c, 6, 51, 95
5, 63840, Note_off_c, 6, 46, 95
5, 63840, Note_off_c, 6, 39, 95
5, 63840, Note_on_c, 6, 64, 95
5, 63840, Note_on_c, 6, 59, 95
5, 63840, Note_on_c, 6, 55, 95
5, 63840, Note_on_c, 6, 51, 95
5, 63840, Note_on_c, 6, 46, 95
5, 63840, Note_on_c, 6, 39, 95
5, 64080, Note_off_c, 6, 64, 95
5, 64080, Note_off_c, 6, 59, 95
5, 64080, Note_off_c, 6, 55, 95
5, 64080, Note_off_c, 6, 51, 95
5, 64080, Note_off_c, 6, 46, 95
5, 64080, Note_off_c, 6, 39, 95
5, 64080, Note_on_c, 6, 64, 95
5, 64080, Note_on_c, 6, 59, 95
5, 64080, Note_on_c, 6, 55, 95
5, 64080, Note_on_c, 6, 51, 95
5, 64080, Note_on_c, 6, 46, 95
5, 64080, Note_on_c, 6, 39, 95
5, 64320, Note_off_c, 6, 64, 95
5, 64320, Note_off_c, 6, 59, 95
5, 64320, Note_off_c, 6, 55, 95
5, 64320, Note_off_c, 6, 51, 95
5, 64320, Note_off_c, 6, 46, 95
5, 64320, Note_off_c, 6, 39, 95
5, 64320, Note_on_c, 6, 64, 95
5, 64320, Note_on_c, 6, 59, 95
5, 64320, Note_on_c, 6, 55, 95
5, 64320, Note_on_c, 6, 51, 95
5, 64320, Note_on_c, 6, 46, 95
5, 64320, Note_on_c, 6, 39, 95
5, 64560, Note_off_c, 6, 64, 95
5, 64560, Note_off_c, 6, 59, 95
5, 64560, Note_off_c, 6, 55, 95
5, 64560, Note_off_c, 6, 51, 95
5, 64560, Note_off_c, 6, 46, 95
5, 64560, Note_off_c, 6, 39, 95
5, 64560, Note_on_c, 6, 64, 95
5, 64560, Note_on_c, 6, 59, 95
5, 64560, Note_on_c, 6, 55, 95
5, 64560, Note_on_c, 6, 51, 95
5, 64560, Note_on_c, 6, 46, 95
5, 64560, Note_on_c, 6, 39, 95
5, 64800, Note_off_c, 6, 64, 95
5, 64800, Note_off_c, 6, 59, 95
5, 64800, Note_off_c, 6, 55, 95
5, 64800, Note_off_c, 6, 51, 95
5, 64800, Note_off_c, 6, 46, 95
5, 64800, Note_off_c, 6, 39, 95
5, 64800, Note_on_c, 6, 64, 95
5, 64800, Note_on_c, 6, 59, 95
5, 64800, Note_on_c, 6, 55, 95
5, 64800, Note_on_c, 6, 51, 95
5, 64800, Note_on_c, 6, 46, 95
5, 64800, Note_on_c, 6, 39, 95
5, 65280, Note_off_c, 6, 64, 95
5, 65280, Note_off_c, 6, 59, 95
5, 65280, Note_off_c, 6, 55, 95
5, 65280, Note_off_c, 6, 51, 95
5, 65280, Note_off_c, 6, 46, 95
5, 65280, Note_off_c, 6, 39, 95
5, 65280, Note_on_c, 6, 64, 111
5, 65280, Note_on_c, 6, 59, 111
5, 65280, Note_on_c, 6, 55, 111
5, 65280, Note_on_c, 6, 51, 111
5, 65280, Note_on_c, 6, 46, 111
5, 65280, Note_on_c, 6, 39, 111
5, 65520, Note_off_c, 6, 64, 111
5, 65520, Note_off_c, 6, 59, 111
5, 65520, Note_off_c, 6, 55, 111
5, 65520, Note_off_c, 6, 51, 111
5, 65520, Note_off_c, 6, 46, 111
5, 65520, Note_off_c, 6, 39, 111
5, 65520, Note_on_c, 6, 64, 95
5, 65520, Note_on_c, 6, 59, 95
5, 65520, Note_on_c, 6, 55, 95
5, 65520, Note_on_c, 6, 51, 95
5, 65520, Note_on_c, 6, 46, 95
5, 65520, Note_on_c, 6, 39, 95
5, 65760, Note_off_c, 6, 64, 95
5, 65760, Note_off_c, 6, 59, 95
5, 65760, Note_off_c, 6, 55, 95
5, 65760, Note_off_c, 6, 51, 95
5, 65760, Note_off_c, 6, 46, 95
5, 65760, Note_off_c, 6, 39, 95
5, 65760, Note_on_c, 6, 64, 95
5, 65760, Note_on_c, 6, 59, 95
5, 65760, Note_on_c, 6, 55, 95
5, 65760, Note_on_c, 6, 51, 95
5, 65760, Note_on_c, 6, 46, 95
5, 65760, Note_on_c, 6, 39, 95
5, 66000, Note_off_c, 6, 64, 95
5, 66000, Note_off_c, 6, 59, 95
5, 66000, Note_off_c, 6, 55, 95
5, 66000, Note_off_c, 6, 51, 95
5, 66000, Note_off_c, 6, 46, 95
5, 66000, Note_off_c, 6, 39, 95
5, 66000, Note_on_c, 6, 64, 95
5, 66000, Note_on_c, 6, 59, 95
5, 66000, Note_on_c, 6, 55, 95
5, 66000, Note_on_c, 6, 51, 95
5, 66000, Note_on_c, 6, 46, 95
5, 66000, Note_on_c, 6, 39, 95
5, 66240, Note_off_c, 6, 64, 95
5, 66240, Note_off_c, 6, 59, 95
5, 66240, Note_off_c, 6, 55, 95
5, 66240, Note_off_c, 6, 51, 95
5, 66240, Note_off_c, 6, 46, 95
5, 66240, Note_off_c, 6, 39, 95
5, 66240, Note_on_c, 6, 64, 95
5, 66240, Note_on_c, 6, 59, 95
5, 66240, Note_on_c, 6, 55, 95
5, 66240, Note_on_c, 6, 51, 95
5, 66240, Note_on_c, 6, 46, 95
5, 66240, Note_on_c, 6, 39, 95
5, 66720, Note_off_c, 6, 64, 95
5, 66720, Note_off_c, 6, 59, 95
5, 66720, Note_off_c, 6, 55, 95
5, 66720, Note_off_c, 6, 51, 95
5, 66720, Note_off_c, 6, 46, 95
5, 66720, Note_off_c, 6, 39, 95
5, 66720, Note_on_c, 6, 64, 95
5, 66720, Note_on_c, 6, 59, 95
5, 66720, Note_on_c, 6, 55, 95
5, 66720, Note_on_c, 6, 51, 95
5, 66720, Note_on_c, 6, 46, 95
5, 66720, Note_on_c, 6, 39, 95
5, 66960, Note_off_c, 6, 64, 95
5, 66960, Note_off_c, 6, 59, 95
5, 66960, Note_off_c, 6, 55, 95
5, 66960, Note_off_c, 6, 51, 95
5, 66960, Note_off_c, 6, 46, 95
5, 66960, Note_off_c, 6, 39, 95
5, 66960, Note_on_c, 6, 64, 95
5, 66960, Note_on_c, 6, 59, 95
5, 66960, Note_on_c, 6, 55, 95
5, 66960, Note_on_c, 6, 51, 95
5, 66960, Note_on_c, 6, 46, 95
5, 66960, Note_on_c, 6, 39, 95
5, 67200, Note_off_c, 6, 64, 95
5, 67200, Note_off_c, 6, 59, 95
5, 67200, Note_off_c, 6, 55, 95
5, 67200, Note_off_c, 6, 51, 95
5, 67200, Note_off_c, 6, 46, 95
5, 67200, Note_off_c, 6, 39, 95
5, 67200, Note_on_c, 6, 64, 95
5, 67200, Note_on_c, 6, 59, 95
5, 67200, Note_on_c, 6, 55, 95
5, 67200, Note_on_c, 6, 51, 95
5, 67200, Note_on_c, 6, 46, 95
5, 67200, Note_on_c, 6, 39, 95
5, 67440, Note_off_c, 6, 64, 95
5, 67440, Note_off_c, 6, 59, 95
5, 67440, Note_off_c, 6, 55, 95
5, 67440, Note_off_c, 6, 51, 95
5, 67440, Note_off_c, 6, 46, 95
5, 67440, Note_off_c, 6, 39, 95
5, 67440, Note_on_c, 6, 64, 95
5, 67440, Note_on_c, 6, 59, 95
5, 67440, Note_on_c, 6, 55, 95
5, 67440, Note_on_c, 6, 51, 95
5, 67440, Note_on_c, 6, 46, 95
5, 67440, Note_on_c, 6, 39, 95
5, 67680, Note_off_c, 6, 64, 95
5, 67680, Note_off_c, 6, 59, 95
5, 67680, Note_off_c, 6, 55, 95
5, 67680, Note_off_c, 6, 51, 95
5, 67680, Note_off_c, 6, 46, 95
5, 67680, Note_off_c, 6, 39, 95
5, 67680, Note_on_c, 6, 64, 95
5, 67680, Note_on_c, 6, 59, 95
5, 67680, Note_on_c, 6, 55, 95
5, 67680, Note_on_c, 6, 51, 95
5, 67680, Note_on_c, 6, 46, 95
5, 67680, Note_on_c, 6, 39, 95
5, 68160, Note_off_c, 6, 64, 95
5, 68160, Note_off_c, 6, 59, 95
5, 68160, Note_off_c, 6, 55, 95
5, 68160, Note_off_c, 6, 51, 95
5, 68160, Note_off_c, 6, 46, 95
5, 68160, Note_off_c, 6, 39, 95
5, 68160, Note_on_c, 6, 64, 111
5, 68160, Note_on_c, 6, 59, 111
5, 68160, Note_on_c, 6, 55, 111
5, 68160, Note_on_c, 6, 51, 111
5, 68160, Note_on_c, 6, 46, 111
5, 68160, Note_on_c, 6, 39, 111
5, 68400, Note_off_c, 6, 64, 111
5, 68400, Note_off_c, 6, 59, 111
5, 68400, Note_off_c, 6, 55, 111
5, 68400, Note_off_c, 6, 51, 111
5, 68400, Note_off_c, 6, 46, 111
5, 68400, Note_off_c, 6, 39, 111
5, 68400, Note_on_c, 6, 64, 95
5, 68400, Note_on_c, 6, 59, 95
5, 68400, Note_on_c, 6, 55, 95
5, 68400, Note_on_c, 6, 51, 95
5, 68400, Note_on_c, 6, 46, 95
5, 68400, Note_on_c, 6, 39, 95
5, 68640, Note_off_c, 6, 64, 95
5, 68640, Note_off_c, 6, 59, 95
5, 68640, Note_off_c, 6, 55, 95
5, 68640, Note_off_c, 6, 51, 95
5, 68640, Note_off_c, 6, 46, 95
5, 68640, Note_off_c, 6, 39, 95
5, 68640, Note_on_c, 6, 64, 95
5, 68640, Note_on_c, 6, 59, 95
5, 68640, Note_on_c, 6, 55, 95
5, 68640, Note_on_c, 6, 51, 95
5, 68640, Note_on_c, 6, 46, 95
5, 68640, Note_on_c, 6, 39, 95
5, 68880, Note_off_c, 6, 64, 95
5, 68880, Note_off_c, 6, 59, 95
5, 68880, Note_off_c, 6, 55, 95
5, 68880, Note_off_c, 6, 51, 95
5, 68880, Note_off_c, 6, 46, 95
5, 68880, Note_off_c, 6, 39, 95
5, 68880, Note_on_c, 6, 64, 95
5, 68880, Note_on_c, 6, 59, 95
5, 68880, Note_on_c, 6, 55, 95
5, 68880, Note_on_c, 6, 51, 95
5, 68880, Note_on_c, 6, 46, 95
5, 68880, Note_on_c, 6, 39, 95
5, 69120, Note_off_c, 6, 64, 95
5, 69120, Note_off_c, 6, 59, 95
5, 69120, Note_off_c, 6, 55, 95
5, 69120, Note_off_c, 6, 51, 95
5, 69120, Note_off_c, 6, 46, 95
5, 69120, Note_off_c, 6, 39, 95
5, 69120, Note_on_c, 6, 64, 95
5, 69120, Note_on_c, 6, 59, 95
5, 69120, Note_on_c, 6, 55, 95
5, 69120, Note_on_c, 6, 52, 95
5, 69120, Note_on_c, 6, 47, 95
5, 69120, Note_on_c, 6, 40, 95
5, 69600, Note_off_c, 6, 64, 95
5, 69600, Note_off_c, 6, 59, 95
5, 69600, Note_off_c, 6, 55, 95
5, 69600, Note_off_c, 6, 52, 95
5, 69600, Note_off_c, 6, 47, 95
5, 69600, Note_off_c, 6, 40, 95
5, 69600, Note_on_c, 6, 64, 95
5, 69600, Note_on_c, 6, 59, 95
5, 69600, Note_on_c, 6, 55, 95
5, 69600, Note_on_c, 6, 52, 95
5, 69600, Note_on_c, 6, 47, 95
5, 69600, Note_on_c, 6, 40, 95
5, 69840, Note_off_c, 6, 64, 95
5, 69840, Note_off_c, 6, 59, 95
5, 69840, Note_off_c, 6, 55, 95
5, 69840, Note_off_c, 6, 52, 95
5, 69840, Note_off_c, 6, 47, 95
5, 69840, Note_off_c, 6, 40, 95
5, 69840, Note_on_c, 6, 64, 95
5, 69840, Note_on_c, 6, 59, 95
5, 69840, Note_on_c, 6, 55, 95
5, 69840, Note_on_c, 6, 52, 95
5, 69840, Note_on_c, 6, 47, 95
5, 69840, Note_on_c, 6, 40, 95
5, 70080, Note_off_c, 6, 64, 95
5, 70080, Note_off_c, 6, 59, 95
5, 70080, Note_off_c, 6, 55, 95
5, 70080, Note_off_c, 6, 52, 95
5, 70080, Note_off_c, 6, 47, 95
5, 70080, Note_off_c, 6, 40, 95
5, 70080, Note_on_c, 6, 64, 95
5, 70080, Note_on_c, 6, 59, 95
5, 70080, Note_on_c, 6, 55, 95
5, 70080, Note_on_c, 6, 52, 95
5, 70080, Note_on_c, 6, 47, 95
5, 70080, Note_on_c, 6, 40, 95
5, 70320, Note_off_c, 6, 64, 95
5, 70320, Note_off_c, 6, 59, 95
5, 70320, Note_off_c, 6, 55, 95
5, 70320, Note_off_c, 6, 52, 95
5, 70320, Note_off_c, 6, 47, 95
5, 70320, Note_off_c, 6, 40, 95
5, 70320, Note_on_c, 6, 64, 95
5, 70320, Note_on_c, 6, 59, 95
5, 70320, Note_on_c, 6, 55, 95
5, 70320, Note_on_c, 6, 52, 95
5, 70320, Note_on_c, 6, 47, 95
5, 70320, Note_on_c, 6, 40, 95
5, 70560, Note_off_c, 6, 64, 95
5, 70560, Note_off_c, 6, 59, 95
5, 70560, Note_off_c, 6, 55, 95
5, 70560, Note_off_c, 6, 52, 95
5, 70560, Note_off_c, 6, 47, 95
5, 70560, Note_off_c, 6, 40, 95
5, 70560, Note_on_c, 6, 64, 95
5, 70560, Note_on_c, 6, 59, 95
5, 70560, Note_on_c, 6, 55, 95
5, 70560, Note_on_c, 6, 52, 95
5, 70560, Note_on_c, 6, 47, 95
5, 70560, Note_on_c, 6, 40, 95
5, 71040, Note_off_c, 6, 64, 95
5, 71040, Note_off_c, 6, 59, 95
5, 71040, Note_off_c, 6, 55, 95
5, 71040, Note_off_c, 6, 52, 95
5, 71040, Note_off_c, 6, 47, 95
5, 71040, Note_off_c, 6, 40, 95
5, 71040, Note_on_c, 6, 64, 111
5, 71040, Note_on_c, 6, 59, 111
5, 71040, Note_on_c, 6, 55, 111
5, 71040, Note_on_c, 6, 52, 111
5, 71040, Note_on_c, 6, 47, 111
5, 71040, Note_on_c, 6, 40, 111
5, 71280, Note_off_c, 6, 64, 111
5, 71280, Note_off_c, 6, 59, 111
5, 71280, Note_off_c, 6, 55, 111
5, 71280, Note_off_c, 6, 52, 111
5, 71280, Note_off_c, 6, 47, 111
5, 71280, Note_off_c, 6, 40, 111
5, 71280, Note_on_c, 6, 64, 95
5, 71280, Note_on_c, 6, 59, 95
5, 71280, Note_on_c, 6, 55, 95
5, 71280, Note_on_c, 6, 52, 95
5, 71280, Note_on_c, 6, 47, 95
5, 71280, Note_on_c, 6, 40, 95
5, 71520, Note_off_c, 6, 64, 95
5, 71520, Note_off_c, 6, 59, 95
5, 71520, Note_off_c, 6, 55, 95
5, 71520, Note_off_c, 6, 52, 95
5, 71520, Note_off_c, 6, 47, 95
5, 71520, Note_off_c, 6, 40, 95
5, 71520, Note_on_c, 6, 64, 95
5, 71520, Note_on_c, 6, 59, 95
5, 71520, Note_on_c, 6, 55, 95
5, 71520, Note_on_c, 6, 52, 95
5, 71520, Note_on_c, 6, 47, 95
5, 71520, Note_on_c, 6, 40, 95
5, 71760, Note_off_c, 6, 64, 95
5, 71760, Note_off_c, 6, 59, 95
5, 71760, Note_off_c, 6, 55, 95
5, 71760, Note_off_c, 6, 52, 95
5, 71760, Note_off_c, 6, 47, 95
5, 71760, Note_off_c, 6, 40, 95
5, 71760, Note_on_c, 6, 64, 95
5, 71760, Note_on_c, 6, 59, 95
5, 71760, Note_on_c, 6, 55, 95
5, 71760, Note_on_c, 6, 52, 95
5, 71760, Note_on_c, 6, 47, 95
5, 71760, Note_on_c, 6, 40, 95
5, 72000, Note_off_c, 6, 64, 95
5, 72000, Note_off_c, 6, 59, 95
5, 72000, Note_off_c, 6, 55, 95
5, 72000, Note_off_c, 6, 52, 95
5, 72000, Note_off_c, 6, 47, 95
5, 72000, Note_off_c, 6, 40, 95
5, 72000, Note_on_c, 6, 64, 95
5, 72000, Note_on_c, 6, 59, 95
5, 72000, Note_on_c, 6, 55, 95
5, 72000, Note_on_c, 6, 52, 95
5, 72000, Note_on_c, 6, 47, 95
5, 72000, Note_on_c, 6, 40, 95
5, 72480, Note_off_c, 6, 64, 95
5, 72480, Note_off_c, 6, 59, 95
5, 72480, Note_off_c, 6, 55, 95
5, 72480, Note_off_c, 6, 52, 95
5, 72480, Note_off_c, 6, 47, 95
5, 72480, Note_off_c, 6, 40, 95
5, 72480, Note_on_c, 6, 64, 95
5, 72480, Note_on_c, 6, 59, 95
5, 72480, Note_on_c, 6, 55, 95
5, 72480, Note_on_c, 6, 52, 95
5, 72480, Note_on_c, 6, 47, 95
5, 72480, Note_on_c, 6, 40, 95
5, 72720, Note_off_c, 6, 64, 95
5, 72720, Note_off_c, 6, 59, 95
5, 72720, Note_off_c, 6, 55, 95
5, 72720, Note_off_c, 6, 52, 95
5, 72720, Note_off_c, 6, 47, 95
5, 72720, Note_off_c, 6, 40, 95
5, 72720, Note_on_c, 6, 64, 95
5, 72720, Note_on_c, 6, 59, 95
5, 72720, Note_on_c, 6, 55, 95
5, 72720, Note_on_c, 6, 52, 95
5, 72720, Note_on_c, 6, 47, 95
5, 72720, Note_on_c, 6, 40, 95
5, 72960, Note_off_c, 6, 64, 95
5, 72960, Note_off_c, 6, 59, 95
5, 72960, Note_off_c, 6, 55, 95
5, 72960, Note_off_c, 6, 52, 95
5, 72960, Note_off_c, 6, 47, 95
5, 72960, Note_off_c, 6, 40, 95
5, 72960, Note_on_c, 6, 64, 95
5, 72960, Note_on_c, 6, 59, 95
5, 72960, Note_on_c, 6, 55, 95
5, 72960, Note_on_c, 6, 52, 95
5, 72960, Note_on_c, 6, 47, 95
5, 72960, Note_on_c, 6, 40, 95
5, 73200, Note_off_c, 6, 64, 95
5, 73200, Note_off_c, 6, 59, 95
5, 73200, Note_off_c, 6, 55, 95
5, 73200, Note_off_c, 6, 52, 95
5, 73200, Note_off_c, 6, 47, 95
5, 73200, Note_off_c, 6, 40, 95
5, 73200, Note_on_c, 6, 64, 95
5, 73200, Note_on_c, 6, 59, 95
5, 73200, Note_on_c, 6, 55, 95
5, 73200, Note_on_c, 6, 52, 95
5, 73200, Note_on_c, 6, 47, 95
5, 73200, Note_on_c, 6, 40, 95
5, 73440, Note_off_c, 6, 64, 95
5, 73440, Note_off_c, 6, 59, 95
5, 73440, Note_off_c, 6, 55, 95
5, 73440, Note_off_c, 6, 52, 95
5, 73440, Note_off_c, 6, 47, 95
5, 73440, Note_off_c, 6, 40, 95
5, 73440, Note_on_c, 6, 64, 95
5, 73440, Note_on_c, 6, 59, 95
5, 73440, Note_on_c, 6, 55, 95
5, 73440, Note_on_c, 6, 52, 95
5, 73440, Note_on_c, 6, 47, 95
5, 73440, Note_on_c, 6, 40, 95
5, 73920, Note_off_c, 6, 64, 95
5, 73920, Note_off_c, 6, 59, 95
5, 73920, Note_off_c, 6, 55, 95
5, 73920, Note_off_c, 6, 52, 95
5, 73920, Note_off_c, 6, 47, 95
5, 73920, Note_off_c, 6, 40, 95
5, 73920, Note_on_c, 6, 64, 111
5, 73920, Note_on_c, 6, 59, 111
5, 73920, Note_on_c, 6, 55, 111
5, 73920, Note_on_c, 6, 52, 111
5, 73920, Note_on_c, 6, 47, 111
5, 73920, Note_on_c, 6, 40, 111
5, 74160, Note_off_c, 6, 64, 111
5, 74160, Note_off_c, 6, 59, 111
5, 74160, Note_off_c, 6, 55, 111
5, 74160, Note_off_c, 6, 52, 111
5, 74160, Note_off_c, 6, 47, 111
5, 74160, Note_off_c, 6, 40, 111
5, 74160, Note_on_c, 6, 64, 95
5, 74160, Note_on_c, 6, 59, 95
5, 74160, Note_on_c, 6, 55, 95
5, 74160, Note_on_c, 6, 52, 95
5, 74160, Note_on_c, 6, 47, 95
5, 74160, Note_on_c, 6, 40, 95
5, 74400, Note_off_c, 6, 64, 95
5, 74400, Note_off_c, 6, 59, 95
5, 74400, Note_off_c, 6, 55, 95
5, 74400, Note_off_c, 6, 52, 95
5, 74400, Note_off_c, 6, 47, 95
5, 74400, Note_off_c, 6, 40, 95
5, 74400, Note_on_c, 6, 64, 95
5, 74400, Note_on_c, 6, 59, 95
5, 74400, Note_on_c, 6, 55, 95
5, 74400, Note_on_c, 6, 52, 95
5, 74400, Note_on_c, 6, 47, 95
5, 74400, Note_on_c, 6, 40, 95
5, 74640, Note_off_c, 6, 64, 95
5, 74640, Note_off_c, 6, 59, 95
5, 74640, Note_off_c, 6, 55, 95
5, 74640, Note_off_c, 6, 52, 95
5, 74640, Note_off_c, 6, 47, 95
5, 74640, Note_off_c, 6, 40, 95
5, 74640, Note_on_c, 6, 64, 95
5, 74640, Note_on_c, 6, 59, 95
5, 74640, Note_on_c, 6, 55, 95
5, 74640, Note_on_c, 6, 52, 95
5, 74640, Note_on_c, 6, 47, 95
5, 74640, Note_on_c, 6, 40, 95
5, 74880, Note_off_c, 6, 64, 95
5, 74880, Note_off_c, 6, 59, 95
5, 74880, Note_off_c, 6, 55, 95
5, 74880, Note_off_c, 6, 52, 95
5, 74880, Note_off_c, 6, 47, 95
5, 74880, Note_off_c, 6, 40, 95
5, 74880, Note_on_c, 6, 64, 95
5, 74880, Note_on_c, 6, 59, 95
5, 74880, Note_on_c, 6, 55, 95
5, 74880, Note_on_c, 6, 52, 95
5, 74880, Note_on_c, 6, 47, 95
5, 74880, Note_on_c, 6, 40, 95
5, 75360, Note_off_c, 6, 64, 95
5, 75360, Note_off_c, 6, 59, 95
5, 75360, Note_off_c, 6, 55, 95
5, 75360, Note_off_c, 6, 52, 95
5, 75360, Note_off_c, 6, 47, 95
5, 75360, Note_off_c, 6, 40, 95
5, 75360, Note_on_c, 6, 64, 95
5, 75360, Note_on_c, 6, 59, 95
5, 75360, Note_on_c, 6, 55, 95
5, 75360, Note_on_c, 6, 52, 95
5, 75360, Note_on_c, 6, 47, 95
5, 75360, Note_on_c, 6, 40, 95
5, 75600, Note_off_c, 6, 64, 95
5, 75600, Note_off_c, 6, 59, 95
5, 75600, Note_off_c, 6, 55, 95
5, 75600, Note_off_c, 6, 52, 95
5, 75600, Note_off_c, 6, 47, 95
5, 75600, Note_off_c, 6, 40, 95
5, 75600, Note_on_c, 6, 64, 95
5, 75600, Note_on_c, 6, 59, 95
5, 75600, Note_on_c, 6, 55, 95
5, 75600, Note_on_c, 6, 52, 95
5, 75600, Note_on_c, 6, 47, 95
5, 75600, Note_on_c, 6, 40, 95
5, 75840, Note_off_c, 6, 64, 95
5, 75840, Note_off_c, 6, 59, 95
5, 75840, Note_off_c, 6, 55, 95
5, 75840, Note_off_c, 6, 52, 95
5, 75840, Note_off_c, 6, 47, 95
5, 75840, Note_off_c, 6, 40, 95
5, 75840, Note_on_c, 6, 64, 95
5, 75840, Note_on_c, 6, 59, 95
5, 75840, Note_on_c, 6, 55, 95
5, 75840, Note_on_c, 6, 52, 95
5, 75840, Note_on_c, 6, 47, 95
5, 75840, Note_on_c, 6, 40, 95
5, 76080, Note_off_c, 6, 64, 95
5, 76080, Note_off_c, 6, 59, 95
5, 76080, Note_off_c, 6, 55, 95
5, 76080, Note_off_c, 6, 52, 95
5, 76080, Note_off_c, 6, 47, 95
5, 76080, Note_off_c, 6, 40, 95
5, 76080, Note_on_c, 6, 64, 95
5, 76080, Note_on_c, 6, 59, 95
5, 76080, Note_on_c, 6, 55, 95
5, 76080, Note_on_c, 6, 52, 95
5, 76080, Note_on_c, 6, 47, 95
5, 76080, Note_on_c, 6, 40, 95
5, 76320, Note_off_c, 6, 64, 95
5, 76320, Note_off_c, 6, 59, 95
5, 76320, Note_off_c, 6, 55, 95
5, 76320, Note_off_c, 6, 52, 95
5, 76320, Note_off_c, 6, 47, 95
5, 76320, Note_off_c, 6, 40, 95
5, 76320, Note_on_c, 6, 63, 95
5, 76320, Note_on_c, 6, 57, 95
5, 76320, Note_on_c, 6, 54, 95
5, 76320, Note_on_c, 6, 42, 95
5, 76800, Note_off_c, 6, 63, 95
5, 76800, Note_off_c, 6, 57, 95
5, 76800, Note_off_c, 6, 54, 95
5, 76800, Note_off_c, 6, 42, 95
5, 76800, Note_on_c, 6, 63, 111
5, 76800, Note_on_c, 6, 57, 111
5, 76800, Note_on_c, 6, 54, 111
5, 76800, Note_on_c, 6, 42, 111
5, 77040, Note_off_c, 6, 63, 111
5, 77040, Note_off_c, 6, 57, 111
5, 77040, Note_off_c, 6, 54, 111
5, 77040, Note_off_c, 6, 42, 111
5, 77040, Note_on_c, 6, 63, 95
5, 77040, Note_on_c, 6, 57, 95
5, 77040, Note_on_c, 6, 54, 95
5, 77040, Note_on_c, 6, 42, 95
5, 77280, Note_off_c, 6, 63, 95
5, 77280, Note_off_c, 6, 57, 95
5, 77280, Note_off_c, 6, 54, 95
5, 77280, Note_off_c, 6, 42, 95
5, 77280, Note_on_c, 6, 63, 95
5, 77280, Note_on_c, 6, 57, 95
5, 77280, Note_on_c, 6, 54, 95
5, 77280, Note_on_c, 6, 42, 95
5, 77520, Note_off_c, 6, 63, 95
5, 77520, Note_off_c, 6, 57, 95
5, 77520, Note_off_c, 6, 54, 95
5, 77520, Note_off_c, 6, 42, 95
5, 77520, Note_on_c, 6, 63, 95
5, 77520, Note_on_c, 6, 57, 95
5, 77520, Note_on_c, 6, 54, 95
5, 77520, Note_on_c, 6, 42, 95
5, 77760, Note_off_c, 6, 63, 95
5, 77760, Note_off_c, 6, 57, 95
5, 77760, Note_off_c, 6, 54, 95
5, 77760, Note_off_c, 6, 42, 95
5, 77760, Note_on_c, 6, 64, 95
5, 77760, Note_on_c, 6, 59, 95
5, 77760, Note_on_c, 6, 55, 95
5, 77760, Note_on_c, 6, 43, 95
5, 78240, Note_off_c, 6, 64, 95
5, 78240, Note_off_c, 6, 59, 95
5, 78240, Note_off_c, 6, 55, 95
5, 78240, Note_off_c, 6, 43, 95
5, 78240, Note_on_c, 6, 64, 95
5, 78240, Note_on_c, 6, 59, 95
5, 78240, Note_on_c, 6, 55, 95
5, 78240, Note_on_c, 6, 43, 95
5, 78480, Note_off_c, 6, 64, 95
5, 78480, Note_off_c, 6, 59, 95
5, 78480, Note_off_c, 6, 55, 95
5, 78480, Note_off_c, 6, 43, 95
5, 78480, Note_on_c, 6, 64, 95
5, 78480, Note_on_c, 6, 59, 95
5, 78480, Note_on_c, 6, 55, 95
5, 78480, Note_on_c, 6, 43, 95
5, 78720, Note_off_c, 6, 64, 95
5, 78720, Note_off_c, 6, 59, 95
5, 78720, Note_off_c, 6, 55, 95
5, 78720, Note_off_c, 6, 43, 95
5, 78720, Note_on_c, 6, 64, 95
5, 78720, Note_on_c, 6, 59, 95
5, 78720, Note_on_c, 6, 55, 95
5, 78720, Note_on_c, 6, 43, 95
5, 78960, Note_off_c, 6, 64, 95
5, 78960, Note_off_c, 6, 59, 95
5, 78960, Note_off_c, 6, 55, 95
5, 78960, Note_off_c, 6, 43, 95
5, 78960, Note_on_c, 6, 64, 95
5, 78960, Note_on_c, 6, 59, 95
5, 78960, Note_on_c, 6, 55, 95
5, 78960, Note_on_c, 6, 43, 95
5, 79200, Note_off_c, 6, 64, 95
5, 79200, Note_off_c, 6, 59, 95
5, 79200, Note_off_c, 6, 55, 95
5, 79200, Note_off_c, 6, 43, 95
5, 79200, Note_on_c, 6, 66, 95
5, 79200, Note_on_c, 6, 61, 95
5, 79200, Note_on_c, 6, 57, 95
5, 79200, Note_on_c, 6, 45, 95
5, 79680, Note_off_c, 6, 66, 95
5, 79680, Note_off_c, 6, 61, 95
5, 79680, Note_off_c, 6, 57, 95
5, 79680, Note_off_c, 6, 45, 95
5, 79680, Note_on_c, 6, 66, 111
5, 79680, Note_on_c, 6, 61, 111
5, 79680, Note_on_c, 6, 57, 111
5, 79680, Note_on_c, 6, 45, 111
5, 79920, Note_off_c, 6, 66, 111
5, 79920, Note_off_c, 6, 61, 111
5, 79920, Note_off_c, 6, 57, 111
5, 79920, Note_off_c, 6, 45, 111
5, 79920, Note_on_c, 6, 66, 95
5, 79920, Note_on_c, 6, 61, 95
5, 79920, Note_on_c, 6, 57, 95
5, 79920, Note_on_c, 6, 45, 95
5, 80160, Note_off_c, 6, 66, 95
5, 80160, Note_off_c, 6, 61, 95
5, 80160, Note_off_c, 6, 57, 95
5, 80160, Note_off_c, 6, 45, 95
5, 80160, Note_on_c, 6, 66, 95
5, 80160, Note_on_c, 6, 61, 95
5, 80160, Note_on_c, 6, 57, 95
5, 80160, Note_on_c, 6, 45, 95
5, 80400, Note_off_c, 6, 66, 95
5, 80400, Note_off_c, 6, 61, 95
5, 80400, Note_off_c, 6, 57, 95
5, 80400, Note_off_c, 6, 45, 95
5, 80400, Note_on_c, 6, 66, 95
5, 80400, Note_on_c, 6, 61, 95
5, 80400, Note_on_c, 6, 57, 95
5, 80400, Note_on_c, 6, 45, 95
5, 80640, Note_off_c, 6, 66, 95
5, 80640, Note_off_c, 6, 61, 95
5, 80640, Note_off_c, 6, 57, 95
5, 80640, Note_off_c, 6, 45, 95
5, 80640, Note_on_c, 6, 66, 95
5, 80640, Note_on_c, 6, 62, 95
5, 80640, Note_on_c, 6, 59, 95
5, 80640, Note_on_c, 6, 47, 95
5, 81120, Note_off_c, 6, 66, 95
5, 81120, Note_off_c, 6, 62, 95
5, 81120, Note_off_c, 6, 59, 95
5, 81120, Note_off_c, 6, 47, 95
5, 81120, Note_on_c, 6, 66, 95
5, 81120, Note_on_c, 6, 62, 95
5, 81120, Note_on_c, 6, 59, 95
5, 81120, Note_on_c, 6, 47, 95
5, 81360, Note_off_c, 6, 66, 95
5, 81360, Note_off_c, 6, 62, 95
5, 81360, Note_off_c, 6, 59, 95
5, 81360, Note_off_c, 6, 47, 95
5, 81360, Note_on_c, 6, 66, 95
5, 81360, Note_on_c, 6, 62, 95
5, 81360, Note_on_c, 6, 59, 95
5, 81360, Note_on_c, 6, 47, 95
5, 81600, Note_off_c, 6, 66, 95
5, 81600, Note_off_c, 6, 62, 95
5, 81600, Note_off_c, 6, 59, 95
5, 81600, Note_off_c, 6, 47, 95
5, 81600, Note_on_c, 6, 66, 95
5, 81600, Note_on_c, 6, 62, 95
5, 81600, Note_on_c, 6, 59, 95
5, 81600, Note_on_c, 6, 47, 95
5, 81840, Note_off_c, 6, 66, 95
5, 81840, Note_off_c, 6, 62, 95
5, 81840, Note_off_c, 6, 59, 95
5, 81840, Note_off_c, 6, 47, 95
5, 81840, Note_on_c, 6, 66, 95
5, 81840, Note_on_c, 6, 62, 95
5, 81840, Note_on_c, 6, 59, 95
5, 81840, Note_on_c, 6, 47, 95
5, 82080, Note_off_c, 6, 66, 95
5, 82080, Note_off_c, 6, 62, 95
5, 82080, Note_off_c, 6, 59, 95
5, 82080, Note_off_c, 6, 47, 95
5, 82080, Note_on_c, 6, 66, 95
5, 82080, Note_on_c, 6, 62, 95
5, 82080, Note_on_c, 6, 59, 95
5, 82080, Note_on_c, 6, 47, 95
5, 82560, Note_off_c, 6, 66, 95
5, 82560, Note_off_c, 6, 62, 95
5, 82560, Note_off_c, 6, 59, 95
5, 82560, Note_off_c, 6, 47, 95
5, 82560, Note_on_c, 6, 66, 111
5, 82560, Note_on_c, 6, 62, 111
5, 82560, Note_on_c, 6, 59, 111
5, 82560, Note_on_c, 6, 47, 111
5, 82800, Note_off_c, 6, 66, 111
5, 82800, Note_off_c, 6, 62, 111
5, 82800, Note_off_c, 6, 59, 111
5, 82800, Note_off_c, 6, 47, 111
5, 82800, Note_on_c, 6, 66, 95
5, 82800, Note_on_c, 6, 62, 95
5, 82800, Note_on_c, 6, 59, 95
5, 82800, Note_on_c, 6, 47, 95
5, 83040, Note_off_c, 6, 66, 95
5, 83040, Note_off_c, 6, 62, 95
5, 83040, Note_off_c, 6, 59, 95
5, 83040, Note_off_c, 6, 47, 95
5, 83040, Note_on_c, 6, 66, 95
5, 83040, Note_on_c, 6, 62, 95
5, 83040, Note_on_c, 6, 59, 95
5, 83040, Note_on_c, 6, 47, 95
5, 83280, Note_off_c, 6, 66, 95
5, 83280, Note_off_c, 6, 62, 95
5, 83280, Note_off_c, 6, 59, 95
5, 83280, Note_off_c, 6, 47, 95
5, 83280, Note_on_c, 6, 66, 95
5, 83280, Note_on_c, 6, 62, 95
5, 83280, Note_on_c, 6, 59, 95
5, 83280, Note_on_c, 6, 47, 95
5, 83520, Note_off_c, 6, 66, 95
5, 83520, Note_off_c, 6, 62, 95
5, 83520, Note_off_c, 6, 59, 95
5, 83520, Note_off_c, 6, 47, 95
5, 83520, Note_on_c, 6, 66, 95
5, 83520, Note_on_c, 6, 61, 95
5, 83520, Note_on_c, 6, 59, 95
5, 83520, Note_on_c, 6, 45, 95
5, 84000, Note_off_c, 6, 66, 95
5, 84000, Note_off_c, 6, 61, 95
5, 84000, Note_off_c, 6, 59, 95
5, 84000, Note_off_c, 6, 45, 95
5, 84000, Note_on_c, 6, 66, 95
5, 84000, Note_on_c, 6, 61, 95
5, 84000, Note_on_c, 6, 59, 95
5, 84000, Note_on_c, 6, 45, 95
5, 84240, Note_off_c, 6, 66, 95
5, 84240, Note_off_c, 6, 61, 95
5, 84240, Note_off_c, 6, 59, 95
5, 84240, Note_off_c, 6, 45, 95
5, 84240, Note_on_c, 6, 66, 95
5, 84240, Note_on_c, 6, 61, 95
5, 84240, Note_on_c, 6, 59, 95
5, 84240, Note_on_c, 6, 45, 95
5, 84480, Note_off_c, 6, 66, 95
5, 84480, Note_off_c, 6, 61, 95
5, 84480, Note_off_c, 6, 59, 95
5, 84480, Note_off_c, 6, 45, 95
5, 84480, Note_on_c, 6, 66, 95
5, 84480, Note_on_c, 6, 61, 95
5, 84480, Note_on_c, 6, 59, 95
5, 84480, Note_on_c, 6, 45, 95
5, 84720, Note_off_c, 6, 66, 95
5, 84720, Note_off_c, 6, 61, 95
5, 84720, Note_off_c, 6, 59, 95
5, 84720, Note_off_c, 6, 45, 95
5, 84720, Note_on_c, 6, 66, 95
5, 84720, Note_on_c, 6, 61, 95
5, 84720, Note_on_c, 6, 59, 95
5, 84720, Note_on_c, 6, 45, 95
5, 84960, Note_off_c, 6, 66, 95
5, 84960, Note_off_c, 6, 61, 95
5, 84960, Note_off_c, 6, 59, 95
5, 84960, Note_off_c, 6, 45, 95
5, 84960, Note_on_c, 6, 66, 95
5, 84960, Note_on_c, 6, 61, 95
5, 84960, Note_on_c, 6, 59, 95
5, 84960, Note_on_c, 6, 45, 95
5, 85440, Note_off_c, 6, 66, 95
5, 85440, Note_off_c, 6, 61, 95
5, 85440, Note_off_c, 6, 59, 95
5, 85440, Note_off_c, 6, 45, 95
5, 85440, Note_on_c, 6, 66, 111
5, 85440, Note_on_c, 6, 61, 111
5, 85440, Note_on_c, 6, 59, 111
5, 85440, Note_on_c, 6, 45, 95
5, 85680, Note_off_c, 6, 66, 111
5, 85680, Note_off_c, 6, 61, 111
5, 85680, Note_off_c, 6, 59, 111
5, 85680, Note_off_c, 6, 45, 95
5, 85680, Note_on_c, 6, 66, 95
5, 85680, Note_on_c, 6, 61, 95
5, 85680, Note_on_c, 6, 59, 95
5, 85680, Note_on_c, 6, 45, 95
5, 85920, Note_off_c, 6, 66, 95
5, 85920, Note_off_c, 6, 61, 95
5, 85920, Note_off_c, 6, 59, 95
5, 85920, Note_off_c, 6, 45, 95
5, 85920, Note_on_c, 6, 66, 95
5, 85920, Note_on_c, 6, 61, 95
5, 85920, Note_on_c, 6, 59, 95
5, 85920, Note_on_c, 6, 45, 95
5, 86160, Note_off_c, 6, 66, 95
5, 86160, Note_off_c, 6, 61, 95
5, 86160, Note_off_c, 6, 59, 95
5, 86160, Note_off_c, 6, 45, 95
5, 86160, Note_on_c, 6, 66, 95
5, 86160, Note_on_c, 6, 61, 95
5, 86160, Note_on_c, 6, 59, 95
5, 86160, Note_on_c, 6, 45, 95
5, 86400, Note_off_c, 6, 66, 95
5, 86400, Note_off_c, 6, 61, 95
5, 86400, Note_off_c, 6, 59, 95
5, 86400, Note_off_c, 6, 45, 95
5, 86400, Note_on_c, 6, 64, 95
5, 86400, Note_on_c, 6, 59, 95
5, 86400, Note_on_c, 6, 55, 95
5, 86400, Note_on_c, 6, 52, 95
5, 86400, Note_on_c, 6, 47, 95
5, 86400, Note_on_c, 6, 40, 95
5, 86880, Note_off_c, 6, 64, 95
5, 86880, Note_off_c, 6, 59, 95
5, 86880, Note_off_c, 6, 55, 95
5, 86880, Note_off_c, 6, 52, 95
5, 86880, Note_off_c, 6, 47, 95
5, 86880, Note_off_c, 6, 40, 95
5, 86880, Note_on_c, 6, 64, 95
5, 86880, Note_on_c, 6, 59, 95
5, 86880, Note_on_c, 6, 55, 95
5, 86880, Note_on_c, 6, 52, 95
5, 86880, Note_on_c, 6, 47, 95
5, 86880, Note_on_c, 6, 40, 95
5, 87120, Note_off_c, 6, 64, 95
5, 87120, Note_off_c, 6, 59, 95
5, 87120, Note_off_c, 6, 55, 95
5, 87120, Note_off_c, 6, 52, 95
5, 87120, Note_off_c, 6, 47, 95
5, 87120, Note_off_c, 6, 40, 95
5, 87120, Note_on_c, 6, 64, 95
5, 87120, Note_on_c, 6, 59, 95
5, 87120, Note_on_c, 6, 55, 95
5, 87120, Note_on_c, 6, 52, 95
5, 87120, Note_on_c, 6, 47, 95
5, 87120, Note_on_c, 6, 40, 95
5, 87360, Note_off_c, 6, 64, 95
5, 87360, Note_off_c, 6, 59, 95
5, 87360, Note_off_c, 6, 55, 95
5, 87360, Note_off_c, 6, 52, 95
5, 87360, Note_off_c, 6, 47, 95
5, 87360, Note_off_c, 6, 40, 95
5, 87360, Note_on_c, 6, 64, 95
5, 87360, Note_on_c, 6, 59, 95
5, 87360, Note_on_c, 6, 55, 95
5, 87360, Note_on_c, 6, 52, 95
5, 87360, Note_on_c, 6, 47, 95
5, 87360, Note_on_c, 6, 40, 95
5, 87600, Note_off_c, 6, 64, 95
5, 87600, Note_off_c, 6, 59, 95
5, 87600, Note_off_c, 6, 55, 95
5, 87600, Note_off_c, 6, 52, 95
5, 87600, Note_off_c, 6, 47, 95
5, 87600, Note_off_c, 6, 40, 95
5, 87600, Note_on_c, 6, 64, 95
5, 87600, Note_on_c, 6, 59, 95
5, 87600, Note_on_c, 6, 55, 95
5, 87600, Note_on_c, 6, 52, 95
5, 87600, Note_on_c, 6, 47, 95
5, 87600, Note_on_c, 6, 40, 95
5, 87840, Note_off_c, 6, 64, 95
5, 87840, Note_off_c, 6, 59, 95
5, 87840, Note_off_c, 6, 55, 95
5, 87840, Note_off_c, 6, 52, 95
5, 87840, Note_off_c, 6, 47, 95
5, 87840, Note_off_c, 6, 40, 95
5, 87840, Note_on_c, 6, 64, 95
5, 87840, Note_on_c, 6, 59, 95
5, 87840, Note_on_c, 6, 55, 95
5, 87840, Note_on_c, 6, 52, 95
5, 87840, Note_on_c, 6, 47, 95
5, 87840, Note_on_c, 6, 40, 95
5, 88320, Note_off_c, 6, 64, 95
5, 88320, Note_off_c, 6, 59, 95
5, 88320, Note_off_c, 6, 55, 95
5, 88320, Note_off_c, 6, 52, 95
5, 88320, Note_off_c, 6, 47, 95
5, 88320, Note_off_c, 6, 40, 95
5, 88320, Note_on_c, 6, 64, 111
5, 88320, Note_on_c, 6, 59, 111
5, 88320, Note_on_c, 6, 55, 111
5, 88320, Note_on_c, 6, 52, 111
5, 88320, Note_on_c, 6, 47, 111
5, 88320, Note_on_c, 6, 40, 111
5, 88560, Note_off_c, 6, 64, 111
5, 88560, Note_off_c, 6, 59, 111
5, 88560, Note_off_c, 6, 55, 111
5, 88560, Note_off_c, 6, 52, 111
5, 88560, Note_off_c, 6, 47, 111
5, 88560, Note_off_c, 6, 40, 111
5, 88560, Note_on_c, 6, 64, 95
5, 88560, Note_on_c, 6, 59, 95
5, 88560, Note_on_c, 6, 55, 95
5, 88560, Note_on_c, 6, 52, 95
5, 88560, Note_on_c, 6, 47, 95
5, 88560, Note_on_c, 6, 40, 95
5, 88800, Note_off_c, 6, 64, 95
5, 88800, Note_off_c, 6, 59, 95
5, 88800, Note_off_c, 6, 55, 95
5, 88800, Note_off_c, 6, 52, 95
5, 88800, Note_off_c, 6, 47, 95
5, 88800, Note_off_c, 6, 40, 95
5, 88800, Note_on_c, 6, 64, 95
5, 88800, Note_on_c, 6, 59, 95
5, 88800, Note_on_c, 6, 55, 95
5, 88800, Note_on_c, 6, 52, 95
5, 88800, Note_on_c, 6, 47, 95
5, 88800, Note_on_c, 6, 40, 95
5, 89040, Note_off_c, 6, 64, 95
5, 89040, Note_off_c, 6, 59, 95
5, 89040, Note_off_c, 6, 55, 95
5, 89040, Note_off_c, 6, 52, 95
5, 89040, Note_off_c, 6, 47, 95
5, 89040, Note_off_c, 6, 40, 95
5, 89040, Note_on_c, 6, 64, 95
5, 89040, Note_on_c, 6, 59, 95
5, 89040, Note_on_c, 6, 55, 95
5, 89040, Note_on_c, 6, 52, 95
5, 89040, Note_on_c, 6, 47, 95
5, 89040, Note_on_c, 6, 40, 95
5, 89280, Note_off_c, 6, 64, 95
5, 89280, Note_off_c, 6, 59, 95
5, 89280, Note_off_c, 6, 55, 95
5, 89280, Note_off_c, 6, 52, 95
5, 89280, Note_off_c, 6, 47, 95
5, 89280, Note_off_c, 6, 40, 95
5, 89280, Note_on_c, 6, 64, 95
5, 89280, Note_on_c, 6, 59, 95
5, 89280, Note_on_c, 6, 55, 95
5, 89280, Note_on_c, 6, 52, 95
5, 89280, Note_on_c, 6, 47, 95
5, 89280, Note_on_c, 6, 40, 95
5, 89760, Note_off_c, 6, 64, 95
5, 89760, Note_off_c, 6, 59, 95
5, 89760, Note_off_c, 6, 55, 95
5, 89760, Note_off_c, 6, 52, 95
5, 89760, Note_off_c, 6, 47, 95
5, 89760, Note_off_c, 6, 40, 95
5, 89760, Note_on_c, 6, 64, 95
5, 89760, Note_on_c, 6, 59, 95
5, 89760, Note_on_c, 6, 55, 95
5, 89760, Note_on_c, 6, 52, 95
5, 89760, Note_on_c, 6, 47, 95
5, 89760, Note_on_c, 6, 40, 95
5, 90000, Note_off_c, 6, 64, 95
5, 90000, Note_off_c, 6, 59, 95
5, 90000, Note_off_c, 6, 55, 95
5, 90000, Note_off_c, 6, 52, 95
5, 90000, Note_off_c, 6, 47, 95
5, 90000, Note_off_c, 6, 40, 95
5, 90000, Note_on_c, 6, 64, 95
5, 90000, Note_on_c, 6, 59, 95
5, 90000, Note_on_c, 6, 55, 95
5, 90000, Note_on_c, 6, 52, 95
5, 90000, Note_on_c, 6, 47, 95
5, 90000, Note_on_c, 6, 40, 95
5, 90240, Note_off_c, 6, 64, 95
5, 90240, Note_off_c, 6, 59, 95
5, 90240, Note_off_c, 6, 55, 95
5, 90240, Note_off_c, 6, 52, 95
5, 90240, Note_off_c, 6, 47, 95
5, 90240, Note_off_c, 6, 40, 95
5, 90240, Note_on_c, 6, 64, 95
5, 90240, Note_on_c, 6, 59, 95
5, 90240, Note_on_c, 6, 55, 95
5, 90240, Note_on_c, 6, 52, 95
5, 90240, Note_on_c, 6, 47, 95
5, 90240, Note_on_c, 6, 40, 95
5, 90480, Note_off_c, 6, 64, 95
5, 90480, Note_off_c, 6, 59, 95
5, 90480, Note_off_c, 6, 55, 95
5, 90480, Note_off_c, 6, 52, 95
5, 90480, Note_off_c, 6, 47, 95
5, 90480, Note_off_c, 6, 40, 95
5, 90480, Note_on_c, 6, 64, 95
5, 90480, Note_on_c, 6, 59, 95
5, 90480, Note_on_c, 6, 55, 95
5, 90480, Note_on_c, 6, 52, 95
5, 90480, Note_on_c, 6, 47, 95
5, 90480, Note_on_c, 6, 40, 95
5, 90720, Note_off_c, 6, 64, 95
5, 90720, Note_off_c, 6, 59, 95
5, 90720, Note_off_c, 6, 55, 95
5, 90720, Note_off_c, 6, 52, 95
5, 90720, Note_off_c, 6, 47, 95
5, 90720, Note_off_c, 6, 40, 95
5, 90720, Note_on_c, 6, 64, 95
5, 90720, Note_on_c, 6, 59, 95
5, 90720, Note_on_c, 6, 55, 95
5, 90720, Note_on_c, 6, 52, 95
5, 90720, Note_on_c, 6, 47, 95
5, 90720, Note_on_c, 6, 40, 95
5, 91200, Note_off_c, 6, 64, 95
5, 91200, Note_off_c, 6, 59, 95
5, 91200, Note_off_c, 6, 55, 95
5, 91200, Note_off_c, 6, 52, 95
5, 91200, Note_off_c, 6, 47, 95
5, 91200, Note_off_c, 6, 40, 95
5, 91200, Note_on_c, 6, 64, 111
5, 91200, Note_on_c, 6, 59, 111
5, 91200, Note_on_c, 6, 55, 111
5, 91200, Note_on_c, 6, 52, 111
5, 91200, Note_on_c, 6, 47, 111
5, 91200, Note_on_c, 6, 40, 111
5, 91440, Note_off_c, 6, 64, 111
5, 91440, Note_off_c, 6, 59, 111
5, 91440, Note_off_c, 6, 55, 111
5, 91440, Note_off_c, 6, 52, 111
5, 91440, Note_off_c, 6, 47, 111
5, 91440, Note_off_c, 6, 40, 111
5, 91440, Note_on_c, 6, 64, 95
5, 91440, Note_on_c, 6, 59, 95
5, 91440, Note_on_c, 6, 55, 95
5, 91440, Note_on_c, 6, 52, 95
5, 91440, Note_on_c, 6, 47, 95
5, 91440, Note_on_c, 6, 40, 95
5, 91680, Note_off_c, 6, 64, 95
5, 91680, Note_off_c, 6, 59, 95
5, 91680, Note_off_c, 6, 55, 95
5, 91680, Note_off_c, 6, 52, 95
5, 91680, Note_off_c, 6, 47, 95
5, 91680, Note_off_c, 6, 40, 95
5, 91680, Note_on_c, 6, 64, 95
5, 91680, Note_on_c, 6, 59, 95
5, 91680, Note_on_c, 6, 55, 95
5, 91680, Note_on_c, 6, 52, 95
5, 91680, Note_on_c, 6, 47, 95
5, 91680, Note_on_c, 6, 40, 95
5, 91920, Note_off_c, 6, 64, 95
5, 91920, Note_off_c, 6, 59, 95
5, 91920, Note_off_c, 6, 55, 95
5, 91920, Note_off_c, 6, 52, 95
5, 91920, Note_off_c, 6, 47, 95
5, 91920, Note_off_c, 6, 40, 95
5, 91920, Note_on_c, 6, 64, 95
5, 91920, Note_on_c, 6, 59, 95
5, 91920, Note_on_c, 6, 55, 95
5, 91920, Note_on_c, 6, 52, 95
5, 91920, Note_on_c, 6, 47, 95
5, 91920, Note_on_c, 6, 40, 95
5, 92160, Note_off_c, 6, 64, 95
5, 92160, Note_off_c, 6, 59, 95
5, 92160, Note_off_c, 6, 55, 95
5, 92160, Note_off_c, 6, 52, 95
5, 92160, Note_off_c, 6, 47, 95
5, 92160, Note_off_c, 6, 40, 95
5, 92160, Note_on_c, 6, 64, 95
5, 92160, Note_on_c, 6, 59, 95
5, 92160, Note_on_c, 6, 55, 95
5, 92160, Note_on_c, 6, 52, 95
5, 92160, Note_on_c, 6, 47, 95
5, 92160, Note_on_c, 6, 40, 95
5, 92640, Note_off_c, 6, 64, 95
5, 92640, Note_off_c, 6, 59, 95
5, 92640, Note_off_c, 6, 55, 95
5, 92640, Note_off_c, 6, 52, 95
5, 92640, Note_off_c, 6, 47, 95
5, 92640, Note_off_c, 6, 40, 95
5, 92640, Note_on_c, 6, 64, 95
5, 92640, Note_on_c, 6, 59, 95
5, 92640, Note_on_c, 6, 55, 95
5, 92640, Note_on_c, 6, 52, 95
5, 92640, Note_on_c, 6, 47, 95
5, 92640, Note_on_c, 6, 40, 95
5, 92880, Note_off_c, 6, 64, 95
5, 92880, Note_off_c, 6, 59, 95
5, 92880, Note_off_c, 6, 55, 95
5, 92880, Note_off_c, 6, 52, 95
5, 92880, Note_off_c, 6, 47, 95
5, 92880, Note_off_c, 6, 40, 95
5, 92880, Note_on_c, 6, 64, 95
5, 92880, Note_on_c, 6, 59, 95
5, 92880, Note_on_c, 6, 55, 95
5, 92880, Note_on_c, 6, 52, 95
5, 92880, Note_on_c, 6, 47, 95
5, 92880, Note_on_c, 6, 40, 95
5, 93120, Note_off_c, 6, 64, 95
5, 93120, Note_off_c, 6, 59, 95
5, 93120, Note_off_c, 6, 55, 95
5, 93120, Note_off_c, 6, 52, 95
5, 93120, Note_off_c, 6, 47, 95
5, 93120, Note_off_c, 6, 40, 95
5, 93120, Note_on_c, 6, 64, 95
5, 93120, Note_on_c, 6, 59, 95
5, 93120, Note_on_c, 6, 55, 95
5, 93120, Note_on_c, 6, 52, 95
5, 93120, Note_on_c, 6, 47, 95
5, 93120, Note_on_c, 6, 40, 95
5, 93360, Note_off_c, 6, 64, 95
5, 93360, Note_off_c, 6, 59, 95
5, 93360, Note_off_c, 6, 55, 95
5, 93360, Note_off_c, 6, 52, 95
5, 93360, Note_off_c, 6, 47, 95
5, 93360, Note_off_c, 6, 40, 95
5, 93360, Note_on_c, 6, 64, 95
5, 93360, Note_on_c, 6, 59, 95
5, 93360, Note_on_c, 6, 55, 95
5, 93360, Note_on_c, 6, 52, 95
5, 93360, Note_on_c, 6, 47, 95
5, 93360, Note_on_c, 6, 40, 95
5, 93600, Note_off_c, 6, 64, 95
5, 93600, Note_off_c, 6, 59, 95
5, 93600, Note_off_c, 6, 55, 95
5, 93600, Note_off_c, 6, 52, 95
5, 93600, Note_off_c, 6, 47, 95
5, 93600, Note_off_c, 6, 40, 95
5, 93600, Note_on_c, 6, 63, 95
5, 93600, Note_on_c, 6, 57, 95
5, 93600, Note_on_c, 6, 54, 95
5, 93600, Note_on_c, 6, 42, 95
5, 94080, Note_off_c, 6, 63, 95
5, 94080, Note_off_c, 6, 57, 95
5, 94080, Note_off_c, 6, 54, 95
5, 94080, Note_off_c, 6, 42, 95
5, 94080, Note_on_c, 6, 63, 111
5, 94080, Note_on_c, 6, 57, 111
5, 94080, Note_on_c, 6, 54, 111
5, 94080, Note_on_c, 6, 42, 111
5, 94320, Note_off_c, 6, 63, 111
5, 94320, Note_off_c, 6, 57, 111
5, 94320, Note_off_c, 6, 54, 111
5, 94320, Note_off_c, 6, 42, 111
5, 94320, Note_on_c, 6, 63, 95
5, 94320, Note_on_c, 6, 57, 95
5, 94320, Note_on_c, 6, 54, 95
5, 94320, Note_on_c, 6, 42, 95
5, 94560, Note_off_c, 6, 63, 95
5, 94560, Note_off_c, 6, 57, 95
5, 94560, Note_off_c, 6, 54, 95
5, 94560, Note_off_c, 6, 42, 95
5, 94560, Note_on_c, 6, 63, 95
5, 94560, Note_on_c, 6, 57, 95
5, 94560, Note_on_c, 6, 54, 95
5, 94560, Note_on_c, 6, 42, 95
5, 94800, Note_off_c, 6, 63, 95
5, 94800, Note_off_c, 6, 57, 95
5, 94800, Note_off_c, 6, 54, 95
5, 94800, Note_off_c, 6, 42, 95
5, 94800, Note_on_c, 6, 63, 95
5, 94800, Note_on_c, 6, 57, 95
5, 94800, Note_on_c, 6, 54, 95
5, 94800, Note_on_c, 6, 42, 95
5, 95040, Note_off_c, 6, 63, 95
5, 95040, Note_off_c, 6, 57, 95
5, 95040, Note_off_c, 6, 54, 95
5, 95040, Note_off_c, 6, 42, 95
5, 95040, Note_on_c, 6, 64, 95
5, 95040, Note_on_c, 6, 59, 95
5, 95040, Note_on_c, 6, 55, 95
5, 95040, Note_on_c, 6, 43, 95
5, 95520, Note_off_c, 6, 64, 95
5, 95520, Note_off_c, 6, 59, 95
5, 95520, Note_off_c, 6, 55, 95
5, 95520, Note_off_c, 6, 43, 95
5, 95520, Note_on_c, 6, 64, 95
5, 95520, Note_on_c, 6, 59, 95
5, 95520, Note_on_c, 6, 55, 95
5, 95520, Note_on_c, 6, 43, 95
5, 95760, Note_off_c, 6, 64, 95
5, 95760, Note_off_c, 6, 59, 95
5, 95760, Note_off_c, 6, 55, 95
5, 95760, Note_off_c, 6, 43, 95
5, 95760, Note_on_c, 6, 64, 95
5, 95760, Note_on_c, 6, 59, 95
5, 95760, Note_on_c, 6, 55, 95
5, 95760, Note_on_c, 6, 43, 95
5, 96000, Note_off_c, 6, 64, 95
5, 96000, Note_off_c, 6, 59, 95
5, 96000, Note_off_c, 6, 55, 95
5, 96000, Note_off_c, 6, 43, 95
5, 96000, Note_on_c, 6, 64, 95
5, 96000, Note_on_c, 6, 59, 95
5, 96000, Note_on_c, 6, 55, 95
5, 96000, Note_on_c, 6, 43, 95
5, 96240, Note_off_c, 6, 64, 95
5, 96240, Note_off_c, 6, 59, 95
5, 96240, Note_off_c, 6, 55, 95
5, 96240, Note_off_c, 6, 43, 95
5, 96240, Note_on_c, 6, 64, 95
5, 96240, Note_on_c, 6, 59, 95
5, 96240, Note_on_c, 6, 55, 95
5, 96240, Note_on_c, 6, 43, 95
5, 96480, Note_off_c, 6, 64, 95
5, 96480, Note_off_c, 6, 59, 95
5, 96480, Note_off_c, 6, 55, 95
5, 96480, Note_off_c, 6, 43, 95
5, 96480, Note_on_c, 6, 66, 95
5, 96480, Note_on_c, 6, 61, 95
5, 96480, Note_on_c, 6, 57, 95
5, 96480, Note_on_c, 6, 45, 95
5, 96960, Note_off_c, 6, 66, 95
5, 96960, Note_off_c, 6, 61, 95
5, 96960, Note_off_c, 6, 57, 95
5, 96960, Note_off_c, 6, 45, 95
5, 96960, Note_on_c, 6, 66, 111
5, 96960, Note_on_c, 6, 61, 111
5, 96960, Note_on_c, 6, 57, 111
5, 96960, Note_on_c, 6, 45, 111
5, 97200, Note_off_c, 6, 66, 111
5, 97200, Note_off_c, 6, 61, 111
5, 97200, Note_off_c, 6, 57, 111
5, 97200, Note_off_c, 6, 45, 111
5, 97200, Note_on_c, 6, 66, 95
5, 97200, Note_on_c, 6, 61, 95
5, 97200, Note_on_c, 6, 57, 95
5, 97200, Note_on_c, 6, 45, 95
5, 97440, Note_off_c, 6, 66, 95
5, 97440, Note_off_c, 6, 61, 95
5, 97440, Note_off_c, 6, 57, 95
5, 97440, Note_off_c, 6, 45, 95
5, 97440, Note_on_c, 6, 66, 95
5, 97440, Note_on_c, 6, 61, 95
5, 97440, Note_on_c, 6, 57, 95
5, 97440, Note_on_c, 6, 45, 95
5, 97680, Note_off_c, 6, 66, 95
5, 97680, Note_off_c, 6, 61, 95
5, 97680, Note_off_c, 6, 57, 95
5, 97680, Note_off_c, 6, 45, 95
5, 97680, Note_on_c, 6, 66, 95
5, 97680, Note_on_c, 6, 61, 95
5, 97680, Note_on_c, 6, 57, 95
5, 97680, Note_on_c, 6, 45, 95
5, 97920, Note_off_c, 6, 66, 95
5, 97920, Note_off_c, 6, 61, 95
5, 97920, Note_off_c, 6, 57, 95
5, 97920, Note_off_c, 6, 45, 95
5, 97920, Note_on_c, 6, 66, 95
5, 97920, Note_on_c, 6, 62, 95
5, 97920, Note_on_c, 6, 59, 95
5, 97920, Note_on_c, 6, 47, 95
5, 98400, Note_off_c, 6, 66, 95
5, 98400, Note_off_c, 6, 62, 95
5, 98400, Note_off_c, 6, 59, 95
5, 98400, Note_off_c, 6, 47, 95
5, 98400, Note_on_c, 6, 66, 95
5, 98400, Note_on_c, 6, 62, 95
5, 98400, Note_on_c, 6, 59, 95
5, 98400, Note_on_c, 6, 47, 95
5, 98640, Note_off_c, 6, 66, 95
5, 98640, Note_off_c, 6, 62, 95
5, 98640, Note_off_c, 6, 59, 95
5, 98640, Note_off_c, 6, 47, 95
5, 98640, Note_on_c, 6, 66, 95
5, 98640, Note_on_c, 6, 62, 95
5, 98640, Note_on_c, 6, 59, 95
5, 98640, Note_on_c, 6, 47, 95
5, 98880, Note_off_c, 6, 66, 95
5, 98880, Note_off_c, 6, 62, 95
5, 98880, Note_off_c, 6, 59, 95
5, 98880, Note_off_c, 6, 47, 95
5, 98880, Note_on_c, 6, 66, 95
5, 98880, Note_on_c, 6, 62, 95
5, 98880, Note_on_c, 6, 59, 95
5, 98880, Note_on_c, 6, 47, 95
5, 99120, Note_off_c, 6, 66, 95
5, 99120, Note_off_c, 6, 62, 95
5, 99120, Note_off_c, 6, 59, 95
5, 99120, Note_off_c, 6, 47, 95
5, 99120, Note_on_c, 6, 66, 95
5, 99120, Note_on_c, 6, 62, 95
5, 99120, Note_on_c, 6, 59, 95
5, 99120, Note_on_c, 6, 47, 95
5, 99360, Note_off_c, 6, 66, 95
5, 99360, Note_off_c, 6, 62, 95
5, 99360, Note_off_c, 6, 59, 95
5, 99360, Note_off_c, 6, 47, 95
5, 99360, Note_on_c, 6, 66, 95
5, 99360, Note_on_c, 6, 62, 95
5, 99360, Note_on_c, 6, 59, 95
5, 99360, Note_on_c, 6, 47, 95
5, 99840, Note_off_c, 6, 66, 95
5, 99840, Note_off_c, 6, 62, 95
5, 99840, Note_off_c, 6, 59, 95
5, 99840, Note_off_c, 6, 47, 95
5, 99840, Note_on_c, 6, 66, 111
5, 99840, Note_on_c, 6, 62, 111
5, 99840, Note_on_c, 6, 59, 111
5, 99840, Note_on_c, 6, 47, 111
5, 100080, Note_off_c, 6, 66, 111
5, 100080, Note_off_c, 6, 62, 111
5, 100080, Note_off_c, 6, 59, 111
5, 100080, Note_off_c, 6, 47, 111
5, 100080, Note_on_c, 6, 66, 95
5, 100080, Note_on_c, 6, 62, 95
5, 100080, Note_on_c, 6, 59, 95
5, 100080, Note_on_c, 6, 47, 95
5, 100320, Note_off_c, 6, 66, 95
5, 100320, Note_off_c, 6, 62, 95
5, 100320, Note_off_c, 6, 59, 95
5, 100320, Note_off_c, 6, 47, 95
5, 100320, Note_on_c, 6, 66, 95
5, 100320, Note_on_c, 6, 62, 95
5, 100320, Note_on_c, 6, 59, 95
5, 100320, Note_on_c, 6, 47, 95
5, 100560, Note_off_c, 6, 66, 95
5, 100560, Note_off_c, 6, 62, 95
5, 100560, Note_off_c, 6, 59, 95
5, 100560, Note_off_c, 6, 47, 95
5, 100560, Note_on_c, 6, 66, 95
5, 100560, Note_on_c, 6, 62, 95
5, 100560, Note_on_c, 6, 59, 95
5, 100560, Note_on_c, 6, 47, 95
5, 100800, Note_off_c, 6, 66, 95
5, 100800, Note_off_c, 6, 62, 95
5, 100800, Note_off_c, 6, 59, 95
5, 100800, Note_off_c, 6, 47, 95
5, 100800, Note_on_c, 6, 66, 95
5, 100800, Note_on_c, 6, 61, 95
5, 100800, Note_on_c, 6, 59, 95
5, 100800, Note_on_c, 6, 45, 95
5, 101280, Note_off_c, 6, 66, 95
5, 101280, Note_off_c, 6, 61, 95
5, 101280, Note_off_c, 6, 59, 95
5, 101280, Note_off_c, 6, 45, 95
5, 101280, Note_on_c, 6, 66, 95
5, 101280, Note_on_c, 6, 61, 95
5, 101280, Note_on_c, 6, 59, 95
5, 101280, Note_on_c, 6, 45, 95
5, 101520, Note_off_c, 6, 66, 95
5, 101520, Note_off_c, 6, 61, 95
5, 101520, Note_off_c, 6, 59, 95
5, 101520, Note_off_c, 6, 45, 95
5, 101520, Note_on_c, 6, 66, 95
5, 101520, Note_on_c, 6, 61, 95
5, 101520, Note_on_c, 6, 59, 95
5, 101520, Note_on_c, 6, 45, 95
5, 101760, Note_off_c, 6, 66, 95
5, 101760, Note_off_c, 6, 61, 95
5, 101760, Note_off_c, 6, 59, 95
5, 101760, Note_off_c, 6, 45, 95
5, 101760, Note_on_c, 6, 66, 95
5, 101760, Note_on_c, 6, 61, 95
5, 101760, Note_on_c, 6, 59, 95
5, 101760, Note_on_c, 6, 45, 95
5, 102000, Note_off_c, 6, 66, 95
5, 102000, Note_off_c, 6, 61, 95
5, 102000, Note_off_c, 6, 59, 95
5, 102000, Note_off_c, 6, 45, 95
5, 102000, Note_on_c, 6, 66, 95
5, 102000, Note_on_c, 6, 61, 95
5, 102000, Note_on_c, 6, 59, 95
5, 102000, Note_on_c, 6, 45, 95
5, 102240, Note_off_c, 6, 66, 95
5, 102240, Note_off_c, 6, 61, 95
5, 102240, Note_off_c, 6, 59, 95
5, 102240, Note_off_c, 6, 45, 95
5, 102240, Note_on_c, 6, 66, 95
5, 102240, Note_on_c, 6, 61, 95
5, 102240, Note_on_c, 6, 59, 95
5, 102240, Note_on_c, 6, 45, 95
5, 102720, Note_off_c, 6, 66, 95
5, 102720, Note_off_c, 6, 61, 95
5, 102720, Note_off_c, 6, 59, 95
5, 102720, Note_off_c, 6, 45, 95
5, 102720, Note_on_c, 6, 66, 111
5, 102720, Note_on_c, 6, 61, 111
5, 102720, Note_on_c, 6, 59, 111
5, 102720, Note_on_c, 6, 45, 95
5, 102960, Note_off_c, 6, 66, 111
5, 102960, Note_off_c, 6, 61, 111
5, 102960, Note_off_c, 6, 59, 111
5, 102960, Note_off_c, 6, 45, 95
5, 102960, Note_on_c, 6, 66, 95
5, 102960, Note_on_c, 6, 61, 95
5, 102960, Note_on_c, 6, 59, 95
5, 102960, Note_on_c, 6, 45, 95
5, 103200, Note_off_c, 6, 66, 95
5, 103200, Note_off_c, 6, 61, 95
5, 103200, Note_off_c, 6, 59, 95
5, 103200, Note_off_c, 6, 45, 95
5, 103200, Note_on_c, 6, 66, 95
5, 103200, Note_on_c, 6, 61, 95
5, 103200, Note_on_c, 6, 59, 95
5, 103200, Note_on_c, 6, 45, 95
5, 103440, Note_off_c, 6, 66, 95
5, 103440, Note_off_c, 6, 61, 95
5, 103440, Note_off_c, 6, 59, 95
5, 103440, Note_off_c, 6, 45, 95
5, 103440, Note_on_c, 6, 66, 95
5, 103440, Note_on_c, 6, 61, 95
5, 103440, Note_on_c, 6, 59, 95
5, 103440, Note_on_c, 6, 45, 95
5, 103680, Note_off_c, 6, 66, 95
5, 103680, Note_off_c, 6, 61, 95
5, 103680, Note_off_c, 6, 59, 95
5, 103680, Note_off_c, 6, 45, 95
5, 103680, Note_on_c, 6, 64, 95
5, 103680, Note_on_c, 6, 59, 95
5, 103680, Note_on_c, 6, 55, 95
5, 103680, Note_on_c, 6, 52, 95
5, 103680, Note_on_c, 6, 47, 95
5, 103680, Note_on_c, 6, 40, 95
5, 104160, Note_off_c, 6, 64, 95
5, 104160, Note_off_c, 6, 59, 95
5, 104160, Note_off_c, 6, 55, 95
5, 104160, Note_off_c, 6, 52, 95
5, 104160, Note_off_c, 6, 47, 95
5, 104160, Note_off_c, 6, 40, 95
5, 104160, Note_on_c, 6, 64, 95
5, 104160, Note_on_c, 6, 59, 95
5, 104160, Note_on_c, 6, 55, 95
5, 104160, Note_on_c, 6, 52, 95
5, 104160, Note_on_c, 6, 47, 95
5, 104160, Note_on_c, 6, 40, 95
5, 104400, Note_off_c, 6, 64, 95
5, 104400, Note_off_c, 6, 59, 95
5, 104400, Note_off_c, 6, 55, 95
5, 104400, Note_off_c, 6, 52, 95
5, 104400, Note_off_c, 6, 47, 95
5, 104400, Note_off_c, 6, 40, 95
5, 104400, Note_on_c, 6, 64, 95
5, 104400, Note_on_c, 6, 59, 95
5, 104400, Note_on_c, 6, 55, 95
5, 104400, Note_on_c, 6, 52, 95
5, 104400, Note_on_c, 6, 47, 95
5, 104400, Note_on_c, 6, 40, 95
5, 104640, Note_off_c, 6, 64, 95
5, 104640, Note_off_c, 6, 59, 95
5, 104640, Note_off_c, 6, 55, 95
5, 104640, Note_off_c, 6, 52, 95
5, 104640, Note_off_c, 6, 47, 95
5, 104640, Note_off_c, 6, 40, 95
5, 104640, Note_on_c, 6, 64, 95
5, 104640, Note_on_c, 6, 59, 95
5, 104640, Note_on_c, 6, 55, 95
5, 104640, Note_on_c, 6, 52, 95
5, 104640, Note_on_c, 6, 47, 95
5, 104640, Note_on_c, 6, 40, 95
5, 104880, Note_off_c, 6, 64, 95
5, 104880, Note_off_c, 6, 59, 95
5, 104880, Note_off_c, 6, 55, 95
5, 104880, Note_off_c, 6, 52, 95
5, 104880, Note_off_c, 6, 47, 95
5, 104880, Note_off_c, 6, 40, 95
5, 104880, Note_on_c, 6, 64, 95
5, 104880, Note_on_c, 6, 59, 95
5, 104880, Note_on_c, 6, 55, 95
5, 104880, Note_on_c, 6, 52, 95
5, 104880, Note_on_c, 6, 47, 95
5, 104880, Note_on_c, 6, 40, 95
5, 105120, Note_off_c, 6, 64, 95
5, 105120, Note_off_c, 6, 59, 95
5, 105120, Note_off_c, 6, 55, 95
5, 105120, Note_off_c, 6, 52, 95
5, 105120, Note_off_c, 6, 47, 95
5, 105120, Note_off_c, 6, 40, 95
5, 105120, Note_on_c, 6, 64, 95
5, 105120, Note_on_c, 6, 59, 95
5, 105120, Note_on_c, 6, 55, 95
5, 105120, Note_on_c, 6, 52, 95
5, 105120, Note_on_c, 6, 47, 95
5, 105120, Note_on_c, 6, 40, 95
5, 105600, Note_off_c, 6, 64, 95
5, 105600, Note_off_c, 6, 59, 95
5, 105600, Note_off_c, 6, 55, 95
5, 105600, Note_off_c, 6, 52, 95
5, 105600, Note_off_c, 6, 47, 95
5, 105600, Note_off_c, 6, 40, 95
5, 105600, Note_on_c, 6, 64, 111
5, 105600, Note_on_c, 6, 59, 111
5, 105600, Note_on_c, 6, 55, 111
5, 105600, Note_on_c, 6, 52, 111
5, 105600, Note_on_c, 6, 47, 111
5, 105600, Note_on_c, 6, 40, 111
5, 105840, Note_off_c, 6, 64, 111
5, 105840, Note_off_c, 6, 59, 111
5, 105840, Note_off_c, 6, 55, 111
5, 105840, Note_off_c, 6, 52, 111
5, 105840, Note_off_c, 6, 47, 111
5, 105840, Note_off_c, 6, 40, 111
5, 105840, Note_on_c, 6, 64, 95
5, 105840, Note_on_c, 6, 59, 95
5, 105840, Note_on_c, 6, 55, 95
5, 105840, Note_on_c, 6, 52, 95
5, 105840, Note_on_c, 6, 47, 95
5, 105840, Note_on_c, 6, 40, 95
5, 106080, Note_off_c, 6, 64, 95
5, 106080, Note_off_c, 6, 59, 95
5, 106080, Note_off_c, 6, 55, 95
5, 106080, Note_off_c, 6, 52, 95
5, 106080, Note_off_c, 6, 47, 95
5, 106080, Note_off_c, 6, 40, 95
5, 106080, Note_on_c, 6, 64, 95
5, 106080, Note_on_c, 6, 59, 95
5, 106080, Note_on_c, 6, 55, 95
5, 106080, Note_on_c, 6, 52, 95
5, 106080, Note_on_c, 6, 47, 95
5, 106080, Note_on_c, 6, 40, 95
5, 106320, Note_off_c, 6, 64, 95
5, 106320, Note_off_c, 6, 59, 95
5, 106320, Note_off_c, 6, 55, 95
5, 106320, Note_off_c, 6, 52, 95
5, 106320, Note_off_c, 6, 47, 95
5, 106320, Note_off_c, 6, 40, 95
5, 106320, Note_on_c, 6, 64, 95
5, 106320, Note_on_c, 6, 59, 95
5, 106320, Note_on_c, 6, 55, 95
5, 106320, Note_on_c, 6, 52, 95
5, 106320, Note_on_c, 6, 47, 95
5, 106320, Note_on_c, 6, 40, 95
5, 106560, Note_off_c, 6, 64, 95
5, 106560, Note_off_c, 6, 59, 95
5, 106560, Note_off_c, 6, 55, 95
5, 106560, Note_off_c, 6, 52, 95
5, 106560, Note_off_c, 6, 47, 95
5, 106560, Note_off_c, 6, 40, 95
5, 106560, Note_on_c, 6, 64, 95
5, 106560, Note_on_c, 6, 59, 95
5, 106560, Note_on_c, 6, 55, 95
5, 106560, Note_on_c, 6, 52, 95
5, 106560, Note_on_c, 6, 47, 95
5, 106560, Note_on_c, 6, 40, 95
5, 107040, Note_off_c, 6, 64, 95
5, 107040, Note_off_c, 6, 59, 95
5, 107040, Note_off_c, 6, 55, 95
5, 107040, Note_off_c, 6, 52, 95
5, 107040, Note_off_c, 6, 47, 95
5, 107040, Note_off_c, 6, 40, 95
5, 107040, Note_on_c, 6, 64, 95
5, 107040, Note_on_c, 6, 59, 95
5, 107040, Note_on_c, 6, 55, 95
5, 107040, Note_on_c, 6, 52, 95
5, 107040, Note_on_c, 6, 47, 95
5, 107040, Note_on_c, 6, 40, 95
5, 107280, Note_off_c, 6, 64, 95
5, 107280, Note_off_c, 6, 59, 95
5, 107280, Note_off_c, 6, 55, 95
5, 107280, Note_off_c, 6, 52, 95
5, 107280, Note_off_c, 6, 47, 95
5, 107280, Note_off_c, 6, 40, 95
5, 107280, Note_on_c, 6, 64, 95
5, 107280, Note_on_c, 6, 59, 95
5, 107280, Note_on_c, 6, 55, 95
5, 107280, Note_on_c, 6, 52, 95
5, 107280, Note_on_c, 6, 47, 95
5, 107280, Note_on_c, 6, 40, 95
5, 107520, Note_off_c, 6, 64, 95
5, 107520, Note_off_c, 6, 59, 95
5, 107520, Note_off_c, 6, 55, 95
5, 107520, Note_off_c, 6, 52, 95
5, 107520, Note_off_c, 6, 47, 95
5, 107520, Note_off_c, 6, 40, 95
5, 107520, Note_on_c, 6, 64, 95
5, 107520, Note_on_c, 6, 59, 95
5, 107520, Note_on_c, 6, 55, 95
5, 107520, Note_on_c, 6, 52, 95
5, 107520, Note_on_c, 6, 47, 95
5, 107520, Note_on_c, 6, 40, 95
5, 107760, Note_off_c, 6, 64, 95
5, 107760, Note_off_c, 6, 59, 95
5, 107760, Note_off_c, 6, 55, 95
5, 107760, Note_off_c, 6, 52, 95
5, 107760, Note_off_c, 6, 47, 95
5, 107760, Note_off_c, 6, 40, 95
5, 107760, Note_on_c, 6, 64, 95
5, 107760, Note_on_c, 6, 59, 95
5, 107760, Note_on_c, 6, 55, 95
5, 107760, Note_on_c, 6, 52, 95
5, 107760, Note_on_c, 6, 47, 95
5, 107760, Note_on_c, 6, 40, 95
5, 108000, Note_off_c, 6, 64, 95
5, 108000, Note_off_c, 6, 59, 95
5, 108000, Note_off_c, 6, 55, 95
5, 108000, Note_off_c, 6, 52, 95
5, 108000, Note_off_c, 6, 47, 95
5, 108000, Note_off_c, 6, 40, 95
5, 108000, Note_on_c, 6, 64, 95
5, 108000, Note_on_c, 6, 59, 95
5, 108000, Note_on_c, 6, 55, 95
5, 108000, Note_on_c, 6, 52, 95
5, 108000, Note_on_c, 6, 47, 95
5, 108000, Note_on_c, 6, 40, 95
5, 108480, Note_off_c, 6, 64, 95
5, 108480, Note_off_c, 6, 59, 95
5, 108480, Note_off_c, 6, 55, 95
5, 108480, Note_off_c, 6, 52, 95
5, 108480, Note_off_c, 6, 47, 95
5, 108480, Note_off_c, 6, 40, 95
5, 108480, Note_on_c, 6, 64, 111
5, 108480, Note_on_c, 6, 59, 111
5, 108480, Note_on_c, 6, 55, 111
5, 108480, Note_on_c, 6, 52, 111
5, 108480, Note_on_c, 6, 47, 111
5, 108480, Note_on_c, 6, 40, 111
5, 108720, Note_off_c, 6, 64, 111
5, 108720, Note_off_c, 6, 59, 111
5, 108720, Note_off_c, 6, 55, 111
5, 108720, Note_off_c, 6, 52, 111
5, 108720, Note_off_c, 6, 47, 111
5, 108720, Note_off_c, 6, 40, 111
5, 108720, Note_on_c, 6, 64, 95
5, 108720, Note_on_c, 6, 59, 95
5, 108720, Note_on_c, 6, 55, 95
5, 108720, Note_on_c, 6, 52, 95
5, 108720, Note_on_c, 6, 47, 95
5, 108720, Note_on_c, 6, 40, 95
5, 108960, Note_off_c, 6, 64, 95
5, 108960, Note_off_c, 6, 59, 95
5, 108960, Note_off_c, 6, 55, 95
5, 108960, Note_off_c, 6, 52, 95
5, 108960, Note_off_c, 6, 47, 95
5, 108960, Note_off_c, 6, 40, 95
5, 108960, Note_on_c, 6, 64, 95
5, 108960, Note_on_c, 6, 59, 95
5, 108960, Note_on_c, 6, 55, 95
5, 108960, Note_on_c, 6, 52, 95
5, 108960, Note_on_c, 6, 47, 95
5, 108960, Note_on_c, 6, 40, 95
5, 109200, Note_off_c, 6, 64, 95
5, 109200, Note_off_c, 6, 59, 95
5, 109200, Note_off_c, 6, 55, 95
5, 109200, Note_off_c, 6, 52, 95
5, 109200, Note_off_c, 6, 47, 95
5, 109200, Note_off_c, 6, 40, 95
5, 109200, Note_on_c, 6, 64, 95
5, 109200, Note_on_c, 6, 59, 95
5, 109200, Note_on_c, 6, 55, 95
5, 109200, Note_on_c, 6, 52, 95
5, 109200, Note_on_c, 6, 47, 95
5, 109200, Note_on_c, 6, 40, 95
5, 109440, Note_off_c, 6, 64, 95
5, 109440, Note_off_c, 6, 59, 95
5, 109440, Note_off_c, 6, 55, 95
5, 109440, Note_off_c, 6, 52, 95
5, 109440, Note_off_c, 6, 47, 95
5, 109440, Note_off_c, 6, 40, 95
5, 109440, Note_on_c, 6, 64, 95
5, 109440, Note_on_c, 6, 59, 95
5, 109440, Note_on_c, 6, 55, 95
5, 109440, Note_on_c, 6, 53, 95
5, 109440, Note_on_c, 6, 48, 95
5, 109440, Note_on_c, 6, 41, 95
5, 109920, Note_off_c, 6, 64, 95
5, 109920, Note_off_c, 6, 59, 95
5, 109920, Note_off_c, 6, 55, 95
5, 109920, Note_off_c, 6, 53, 95
5, 109920, Note_off_c, 6, 48, 95
5, 109920, Note_off_c, 6, 41, 95
5, 109920, Note_on_c, 6, 64, 95
5, 109920, Note_on_c, 6, 59, 95
5, 109920, Note_on_c, 6, 55, 95
5, 109920, Note_on_c, 6, 53, 95
5, 109920, Note_on_c, 6, 48, 95
5, 109920, Note_on_c, 6, 41, 95
5, 110160, Note_off_c, 6, 64, 95
5, 110160, Note_off_c, 6, 59, 95
5, 110160, Note_off_c, 6, 55, 95
5, 110160, Note_off_c, 6, 53, 95
5, 110160, Note_off_c, 6, 48, 95
5, 110160, Note_off_c, 6, 41, 95
5, 110160, Note_on_c, 6, 64, 95
5, 110160, Note_on_c, 6, 59, 95
5, 110160, Note_on_c, 6, 55, 95
5, 110160, Note_on_c, 6, 53, 95
5, 110160, Note_on_c, 6, 48, 95
5, 110160, Note_on_c, 6, 41, 95
5, 110400, Note_off_c, 6, 64, 95
5, 110400, Note_off_c, 6, 59, 95
5, 110400, Note_off_c, 6, 55, 95
5, 110400, Note_off_c, 6, 53, 95
5, 110400, Note_off_c, 6, 48, 95
5, 110400, Note_off_c, 6, 41, 95
5, 110400, Note_on_c, 6, 64, 95
5, 110400, Note_on_c, 6, 59, 95
5, 110400, Note_on_c, 6, 55, 95
5, 110400, Note_on_c, 6, 53, 95
5, 110400, Note_on_c, 6, 48, 95
5, 110400, Note_on_c, 6, 41, 95
5, 110640, Note_off_c, 6, 64, 95
5, 110640, Note_off_c, 6, 59, 95
5, 110640, Note_off_c, 6, 55, 95
5, 110640, Note_off_c, 6, 53, 95
5, 110640, Note_off_c, 6, 48, 95
5, 110640, Note_off_c, 6, 41, 95
5, 110640, Note_on_c, 6, 64, 95
5, 110640, Note_on_c, 6, 59, 95
5, 110640, Note_on_c, 6, 55, 95
5, 110640, Note_on_c, 6, 53, 95
5, 110640, Note_on_c, 6, 48, 95
5, 110640, Note_on_c, 6, 41, 95
5, 110880, Note_off_c, 6, 64, 95
5, 110880, Note_off_c, 6, 59, 95
5, 110880, Note_off_c, 6, 55, 95
5, 110880, Note_off_c, 6, 53, 95
5, 110880, Note_off_c, 6, 48, 95
5, 110880, Note_off_c, 6, 41, 95
5, 110880, Note_on_c, 6, 64, 95
5, 110880, Note_on_c, 6, 59, 95
5, 110880, Note_on_c, 6, 55, 95
5, 110880, Note_on_c, 6, 53, 95
5, 110880, Note_on_c, 6, 48, 95
5, 110880, Note_on_c, 6, 41, 95
5, 111360, Note_off_c, 6, 64, 95
5, 111360, Note_off_c, 6, 59, 95
5, 111360, Note_off_c, 6, 55, 95
5, 111360, Note_off_c, 6, 53, 95
5, 111360, Note_off_c, 6, 48, 95
5, 111360, Note_off_c, 6, 41, 95
5, 111360, Note_on_c, 6, 64, 111
5, 111360, Note_on_c, 6, 59, 111
5, 111360, Note_on_c, 6, 55, 111
5, 111360, Note_on_c, 6, 53, 111
5, 111360, Note_on_c, 6, 48, 111
5, 111360, Note_on_c, 6, 41, 111
5, 111600, Note_off_c, 6, 64, 111
5, 111600, Note_off_c, 6, 59, 111
5, 111600, Note_off_c, 6, 55, 111
5, 111600, Note_off_c, 6, 53, 111
5, 111600, Note_off_c, 6, 48, 111
5, 111600, Note_off_c, 6, 41, 111
5, 111600, Note_on_c, 6, 64, 95
5, 111600, Note_on_c, 6, 59, 95
5, 111600, Note_on_c, 6, 55, 95
5, 111600, Note_on_c, 6, 53, 95
5, 111600, Note_on_c, 6, 48, 95
5, 111600, Note_on_c, 6, 41, 95
5, 111840, Note_off_c, 6, 64, 95
5, 111840, Note_off_c, 6, 59, 95
5, 111840, Note_off_c, 6, 55, 95
5, 111840, Note_off_c, 6, 53, 95
5, 111840, Note_off_c, 6, 48, 95
5, 111840, Note_off_c, 6, 41, 95
5, 111840, Note_on_c, 6, 64, 95
5, 111840, Note_on_c, 6, 59, 95
5, 111840, Note_on_c, 6, 55, 95
5, 111840, Note_on_c, 6, 53, 95
5, 111840, Note_on_c, 6, 48, 95
5, 111840, Note_on_c, 6, 41, 95
5, 112080, Note_off_c, 6, 64, 95
5, 112080, Note_off_c, 6, 59, 95
5, 112080, Note_off_c, 6, 55, 95
5, 112080, Note_off_c, 6, 53, 95
5, 112080, Note_off_c, 6, 48, 95
5, 112080, Note_off_c, 6, 41, 95
5, 112080, Note_on_c, 6, 64, 95
5, 112080, Note_on_c, 6, 59, 95
5, 112080, Note_on_c, 6, 55, 95
5, 112080, Note_on_c, 6, 53, 95
5, 112080, Note_on_c, 6, 48, 95
5, 112080, Note_on_c, 6, 41, 95
5, 112320, Note_off_c, 6, 64, 95
5, 112320, Note_off_c, 6, 59, 95
5, 112320, Note_off_c, 6, 55, 95
5, 112320, Note_off_c, 6, 53, 95
5, 112320, Note_off_c, 6, 48, 95
5, 112320, Note_off_c, 6, 41, 95
5, 112320, Note_on_c, 6, 64, 95
5, 112320, Note_on_c, 6, 59, 95
5, 112320, Note_on_c, 6, 55, 95
5, 112320, Note_on_c, 6, 52, 95
5, 112320, Note_on_c, 6, 47, 95
5, 112320, Note_on_c, 6, 40, 95
5, 112800, Note_off_c, 6, 64, 95
5, 112800, Note_off_c, 6, 59, 95
5, 112800, Note_off_c, 6, 55, 95
5, 112800, Note_off_c, 6, 52, 95
5, 112800, Note_off_c, 6, 47, 95
5, 112800, Note_off_c, 6, 40, 95
5, 112800, Note_on_c, 6, 64, 95
5, 112800, Note_on_c, 6, 59, 95
5, 112800, Note_on_c, 6, 55, 95
5, 112800, Note_on_c, 6, 52, 95
5, 112800, Note_on_c, 6, 47, 95
5, 112800, Note_on_c, 6, 40, 95
5, 113040, Note_off_c, 6, 64, 95
5, 113040, Note_off_c, 6, 59, 95
5, 113040, Note_off_c, 6, 55, 95
5, 113040, Note_off_c, 6, 52, 95
5, 113040, Note_off_c, 6, 47, 95
5, 113040, Note_off_c, 6, 40, 95
5, 113040, Note_on_c, 6, 64, 95
5, 113040, Note_on_c, 6, 59, 95
5, 113040, Note_on_c, 6, 55, 95
5, 113040, Note_on_c, 6, 52, 95
5, 113040, Note_on_c, 6, 47, 95
5, 113040, Note_on_c, 6, 40, 95
5, 113280, Note_off_c, 6, 64, 95
5, 113280, Note_off_c, 6, 59, 95
5, 113280, Note_off_c, 6, 55, 95
5, 113280, Note_off_c, 6, 52, 95
5, 113280, Note_off_c, 6, 47, 95
5, 113280, Note_off_c, 6, 40, 95
5, 113280, Note_on_c, 6, 64, 95
5, 113280, Note_on_c, 6, 59, 95
5, 113280, Note_on_c, 6, 55, 95
5, 113280, Note_on_c, 6, 52, 95
5, 113280, Note_on_c, 6, 47, 95
5, 113280, Note_on_c, 6, 40, 95
5, 113520, Note_off_c, 6, 64, 95
5, 113520, Note_off_c, 6, 59, 95
5, 113520, Note_off_c, 6, 55, 95
5, 113520, Note_off_c, 6, 52, 95
5, 113520, Note_off_c, 6, 47, 95
5, 113520, Note_off_c, 6, 40, 95
5, 113520, Note_on_c, 6, 64, 95
5, 113520, Note_on_c, 6, 59, 95
5, 113520, Note_on_c, 6, 55, 95
5, 113520, Note_on_c, 6, 52, 95
5, 113520, Note_on_c, 6, 47, 95
5, 113520, Note_on_c, 6, 40, 95
5, 113760, Note_off_c, 6, 64, 95
5, 113760, Note_off_c, 6, 59, 95
5, 113760, Note_off_c, 6, 55, 95
5, 113760, Note_off_c, 6, 52, 95
5, 113760, Note_off_c, 6, 47, 95
5, 113760, Note_off_c, 6, 40, 95
5, 113760, Note_on_c, 6, 64, 95
5, 113760, Note_on_c, 6, 59, 95
5, 113760, Note_on_c, 6, 55, 95
5, 113760, Note_on_c, 6, 52, 95
5, 113760, Note_on_c, 6, 47, 95
5, 113760, Note_on_c, 6, 40, 95
5, 114240, Note_off_c, 6, 64, 95
5, 114240, Note_off_c, 6, 59, 95
5, 114240, Note_off_c, 6, 55, 95
5, 114240, Note_off_c, 6, 52, 95
5, 114240, Note_off_c, 6, 47, 95
5, 114240, Note_off_c, 6, 40, 95
5, 114240, Note_on_c, 6, 64, 111
5, 114240, Note_on_c, 6, 59, 111
5, 114240, Note_on_c, 6, 55, 111
5, 114240, Note_on_c, 6, 52, 111
5, 114240, Note_on_c, 6, 47, 111
5, 114240, Note_on_c, 6, 40, 111
5, 114480, Note_off_c, 6, 64, 111
5, 114480, Note_off_c, 6, 59, 111
5, 114480, Note_off_c, 6, 55, 111
5, 114480, Note_off_c, 6, 52, 111
5, 114480, Note_off_c, 6, 47, 111
5, 114480, Note_off_c, 6, 40, 111
5, 114480, Note_on_c, 6, 64, 95
5, 114480, Note_on_c, 6, 59, 95
5, 114480, Note_on_c, 6, 55, 95
5, 114480, Note_on_c, 6, 52, 95
5, 114480, Note_on_c, 6, 47, 95
5, 114480, Note_on_c, 6, 40, 95
5, 114720, Note_off_c, 6, 64, 95
5, 114720, Note_off_c, 6, 59, 95
5, 114720, Note_off_c, 6, 55, 95
5, 114720, Note_off_c, 6, 52, 95
5, 114720, Note_off_c, 6, 47, 95
5, 114720, Note_off_c, 6, 40, 95
5, 114720, Note_on_c, 6, 64, 95
5, 114720, Note_on_c, 6, 59, 95
5, 114720, Note_on_c, 6, 55, 95
5, 114720, Note_on_c, 6, 52, 95
5, 114720, Note_on_c, 6, 47, 95
5, 114720, Note_on_c, 6, 40, 95
5, 114960, Note_off_c, 6, 64, 95
5, 114960, Note_off_c, 6, 59, 95
5, 114960, Note_off_c, 6, 55, 95
5, 114960, Note_off_c, 6, 52, 95
5, 114960, Note_off_c, 6, 47, 95
5, 114960, Note_off_c, 6, 40, 95
5, 114960, Note_on_c, 6, 64, 95
5, 114960, Note_on_c, 6, 59, 95
5, 114960, Note_on_c, 6, 55, 95
5, 114960, Note_on_c, 6, 52, 95
5, 114960, Note_on_c, 6, 47, 95
5, 114960, Note_on_c, 6, 40, 95
5, 115200, Note_off_c, 6, 64, 95
5, 115200, Note_off_c, 6, 59, 95
5, 115200, Note_off_c, 6, 55, 95
5, 115200, Note_off_c, 6, 52, 95
5, 115200, Note_off_c, 6, 47, 95
5, 115200, Note_off_c, 6, 40, 95
5, 115200, Note_on_c, 6, 64, 95
5, 115200, Note_on_c, 6, 59, 95
5, 115200, Note_on_c, 6, 55, 95
5, 115200, Note_on_c, 6, 51, 95
5, 115200, Note_on_c, 6, 46, 95
5, 115200, Note_on_c, 6, 39, 95
5, 115680, Note_off_c, 6, 64, 95
5, 115680, Note_off_c, 6, 59, 95
5, 115680, Note_off_c, 6, 55, 95
5, 115680, Note_off_c, 6, 51, 95
5, 115680, Note_off_c, 6, 46, 95
5, 115680, Note_off_c, 6, 39, 95
5, 115680, Note_on_c, 6, 64, 95
5, 115680, Note_on_c, 6, 59, 95
5, 115680, Note_on_c, 6, 55, 95
5, 115680, Note_on_c, 6, 51, 95
5, 115680, Note_on_c, 6, 46, 95
5, 115680, Note_on_c, 6, 39, 95
5, 115920, Note_off_c, 6, 64, 95
5, 115920, Note_off_c, 6, 59, 95
5, 115920, Note_off_c, 6, 55, 95
5, 115920, Note_off_c, 6, 51, 95
5, 115920, Note_off_c, 6, 46, 95
5, 115920, Note_off_c, 6, 39, 95
5, 115920, Note_on_c, 6, 64, 95
5, 115920, Note_on_c, 6, 59, 95
5, 115920, Note_on_c, 6, 55, 95
5, 115920, Note_on_c, 6, 51, 95
5, 115920, Note_on_c, 6, 46, 95
5, 115920, Note_on_c, 6, 39, 95
5, 116160, Note_off_c, 6, 64, 95
5, 116160, Note_off_c, 6, 59, 95
5, 116160, Note_off_c, 6, 55, 95
5, 116160, Note_off_c, 6, 51, 95
5, 116160, Note_off_c, 6, 46, 95
5, 116160, Note_off_c, 6, 39, 95
5, 116160, Note_on_c, 6, 64, 95
5, 116160, Note_on_c, 6, 59, 95
5, 116160, Note_on_c, 6, 55, 95
5, 116160, Note_on_c, 6, 51, 95
5, 116160, Note_on_c, 6, 46, 95
5, 116160, Note_on_c, 6, 39, 95
5, 116400, Note_off_c, 6, 64, 95
5, 116400, Note_off_c, 6, 59, 95
5, 116400, Note_off_c, 6, 55, 95
5, 116400, Note_off_c, 6, 51, 95
5, 116400, Note_off_c, 6, 46, 95
5, 116400, Note_off_c, 6, 39, 95
5, 116400, Note_on_c, 6, 64, 95
5, 116400, Note_on_c, 6, 59, 95
5, 116400, Note_on_c, 6, 55, 95
5, 116400, Note_on_c, 6, 51, 95
5, 116400, Note_on_c, 6, 46, 95
5, 116400, Note_on_c, 6, 39, 95
5, 116640, Note_off_c, 6, 64, 95
5, 116640, Note_off_c, 6, 59, 95
5, 116640, Note_off_c, 6, 55, 95
5, 116640, Note_off_c, 6, 51, 95
5, 116640, Note_off_c, 6, 46, 95
5, 116640, Note_off_c, 6, 39, 95
5, 116640, Note_on_c, 6, 64, 95
5, 116640, Note_on_c, 6, 59, 95
5, 116640, Note_on_c, 6, 55, 95
5, 116640, Note_on_c, 6, 51, 95
5, 116640, Note_on_c, 6, 46, 95
5, 116640, Note_on_c, 6, 39, 95
5, 117120, Note_off_c, 6, 64, 95
5, 117120, Note_off_c, 6, 59, 95
5, 117120, Note_off_c, 6, 55, 95
5, 117120, Note_off_c, 6, 51, 95
5, 117120, Note_off_c, 6, 46, 95
5, 117120, Note_off_c, 6, 39, 95
5, 117120, Note_on_c, 6, 64, 111
5, 117120, Note_on_c, 6, 59, 111
5, 117120, Note_on_c, 6, 55, 111
5, 117120, Note_on_c, 6, 51, 111
5, 117120, Note_on_c, 6, 46, 111
5, 117120, Note_on_c, 6, 39, 111
5, 117360, Note_off_c, 6, 64, 111
5, 117360, Note_off_c, 6, 59, 111
5, 117360, Note_off_c, 6, 55, 111
5, 117360, Note_off_c, 6, 51, 111
5, 117360, Note_off_c, 6, 46, 111
5, 117360, Note_off_c, 6, 39, 111
5, 117360, Note_on_c, 6, 64, 95
5, 117360, Note_on_c, 6, 59, 95
5, 117360, Note_on_c, 6, 55, 95
5, 117360, Note_on_c, 6, 51, 95
5, 117360, Note_on_c, 6, 46, 95
5, 117360, Note_on_c, 6, 39, 95
5, 117600, Note_off_c, 6, 64, 95
5, 117600, Note_off_c, 6, 59, 95
5, 117600, Note_off_c, 6, 55, 95
5, 117600, Note_off_c, 6, 51, 95
5, 117600, Note_off_c, 6, 46, 95
5, 117600, Note_off_c, 6, 39, 95
5, 117600, Note_on_c, 6, 64, 95
5, 117600, Note_on_c, 6, 59, 95
5, 117600, Note_on_c, 6, 55, 95
5, 117600, Note_on_c, 6, 51, 95
5, 117600, Note_on_c, 6, 46, 95
5, 117600, Note_on_c, 6, 39, 95
5, 117840, Note_off_c, 6, 64, 95
5, 117840, Note_off_c, 6, 59, 95
5, 117840, Note_off_c, 6, 55, 95
5, 117840, Note_off_c, 6, 51, 95
5, 117840, Note_off_c, 6, 46, 95
5, 117840, Note_off_c, 6, 39, 95
5, 117840, Note_on_c, 6, 64, 95
5, 117840, Note_on_c, 6, 59, 95
5, 117840, Note_on_c, 6, 55, 95
5, 117840, Note_on_c, 6, 51, 95
5, 117840, Note_on_c, 6, 46, 95
5, 117840, Note_on_c, 6, 39, 95
5, 118080, Note_off_c, 6, 64, 95
5, 118080, Note_off_c, 6, 59, 95
5, 118080, Note_off_c, 6, 55, 95
5, 118080, Note_off_c, 6, 51, 95
5, 118080, Note_off_c, 6, 46, 95
5, 118080, Note_off_c, 6, 39, 95
5, 118080, Note_on_c, 6, 64, 95
5, 118080, Note_on_c, 6, 59, 95
5, 118080, Note_on_c, 6, 55, 95
5, 118080, Note_on_c, 6, 51, 95
5, 118080, Note_on_c, 6, 46, 95
5, 118080, Note_on_c, 6, 39, 95
5, 118560, Note_off_c, 6, 64, 95
5, 118560, Note_off_c, 6, 59, 95
5, 118560, Note_off_c, 6, 55, 95
5, 118560, Note_off_c, 6, 51, 95
5, 118560, Note_off_c, 6, 46, 95
5, 118560, Note_off_c, 6, 39, 95
5, 118560, Note_on_c, 6, 64, 95
5, 118560, Note_on_c, 6, 59, 95
5, 118560, Note_on_c, 6, 55, 95
5, 118560, Note_on_c, 6, 51, 95
5, 118560, Note_on_c, 6, 46, 95
5, 118560, Note_on_c, 6, 39, 95
5, 118800, Note_off_c, 6, 64, 95
5, 118800, Note_off_c, 6, 59, 95
5, 118800, Note_off_c, 6, 55, 95
5, 118800, Note_off_c, 6, 51, 95
5, 118800, Note_off_c, 6, 46, 95
5, 118800, Note_off_c, 6, 39, 95
5, 118800, Note_on_c, 6, 64, 95
5, 118800, Note_on_c, 6, 59, 95
5, 118800, Note_on_c, 6, 55, 95
5, 118800, Note_on_c, 6, 51, 95
5, 118800, Note_on_c, 6, 46, 95
5, 118800, Note_on_c, 6, 39, 95
5, 119040, Note_off_c, 6, 64, 95
5, 119040, Note_off_c, 6, 59, 95
5, 119040, Note_off_c, 6, 55, 95
5, 119040, Note_off_c, 6, 51, 95
5, 119040, Note_off_c, 6, 46, 95
5, 119040, Note_off_c, 6, 39, 95
5, 119040, Note_on_c, 6, 64, 95
5, 119040, Note_on_c, 6, 59, 95
5, 119040, Note_on_c, 6, 55, 95
5, 119040, Note_on_c, 6, 51, 95
5, 119040, Note_on_c, 6, 46, 95
5, 119040, Note_on_c, 6, 39, 95
5, 119280, Note_off_c, 6, 64, 95
5, 119280, Note_off_c, 6, 59, 95
5, 119280, Note_off_c, 6, 55, 95
5, 119280, Note_off_c, 6, 51, 95
5, 119280, Note_off_c, 6, 46, 95
5, 119280, Note_off_c, 6, 39, 95
5, 119280, Note_on_c, 6, 64, 95
5, 119280, Note_on_c, 6, 59, 95
5, 119280, Note_on_c, 6, 55, 95
5, 119280, Note_on_c, 6, 51, 95
5, 119280, Note_on_c, 6, 46, 95
5, 119280, Note_on_c, 6, 39, 95
5, 119520, Note_off_c, 6, 64, 95
5, 119520, Note_off_c, 6, 59, 95
5, 119520, Note_off_c, 6, 55, 95
5, 119520, Note_off_c, 6, 51, 95
5, 119520, Note_off_c, 6, 46, 95
5, 119520, Note_off_c, 6, 39, 95
5, 119520, Note_on_c, 6, 64, 95
5, 119520, Note_on_c, 6, 59, 95
5, 119520, Note_on_c, 6, 55, 95
5, 119520, Note_on_c, 6, 51, 95
5, 119520, Note_on_c, 6, 46, 95
5, 119520, Note_on_c, 6, 39, 95
5, 120000, Note_off_c, 6, 64, 95
5, 120000, Note_off_c, 6, 59, 95
5, 120000, Note_off_c, 6, 55, 95
5, 120000, Note_off_c, 6, 51, 95
5, 120000, Note_off_c, 6, 46, 95
5, 120000, Note_off_c, 6, 39, 95
5, 120000, Note_on_c, 6, 64, 111
5, 120000, Note_on_c, 6, 59, 111
5, 120000, Note_on_c, 6, 55, 111
5, 120000, Note_on_c, 6, 51, 111
5, 120000, Note_on_c, 6, 46, 111
5, 120000, Note_on_c, 6, 39, 111
5, 120240, Note_off_c, 6, 64, 111
5, 120240, Note_off_c, 6, 59, 111
5, 120240, Note_off_c, 6, 55, 111
5, 120240, Note_off_c, 6, 51, 111
5, 120240, Note_off_c, 6, 46, 111
5, 120240, Note_off_c, 6, 39, 111
5, 120240, Note_on_c, 6, 64, 95
5, 120240, Note_on_c, 6, 59, 95
5, 120240, Note_on_c, 6, 55, 95
5, 120240, Note_on_c, 6, 51, 95
5, 120240, Note_on_c, 6, 46, 95
5, 120240, Note_on_c, 6, 39, 95
5, 120480, Note_off_c, 6, 64, 95
5, 120480, Note_off_c, 6, 59, 95
5, 120480, Note_off_c, 6, 55, 95
5, 120480, Note_off_c, 6, 51, 95
5, 120480, Note_off_c, 6, 46, 95
5, 120480, Note_off_c, 6, 39, 95
5, 120480, Note_on_c, 6, 64, 95
5, 120480, Note_on_c, 6, 59, 95
5, 120480, Note_on_c, 6, 55, 95
5, 120480, Note_on_c, 6, 51, 95
5, 120480, Note_on_c, 6, 46, 95
5, 120480, Note_on_c, 6, 39, 95
5, 120720, Note_off_c, 6, 64, 95
5, 120720, Note_off_c, 6, 59, 95
5, 120720, Note_off_c, 6, 55, 95
5, 120720, Note_off_c, 6, 51, 95
5, 120720, Note_off_c, 6, 46, 95
5, 120720, Note_off_c, 6, 39, 95
5, 120720, Note_on_c, 6, 64, 95
5, 120720, Note_on_c, 6, 59, 95
5, 120720, Note_on_c, 6, 55, 95
5, 120720, Note_on_c, 6, 51, 95
5, 120720, Note_on_c, 6, 46, 95
5, 120720, Note_on_c, 6, 39, 95
5, 120960, Note_off_c, 6, 64, 95
5, 120960, Note_off_c, 6, 59, 95
5, 120960, Note_off_c, 6, 55, 95
5, 120960, Note_off_c, 6, 51, 95
5, 120960, Note_off_c, 6, 46, 95
5, 120960, Note_off_c, 6, 39, 95
5, 120960, Note_on_c, 6, 64, 95
5, 120960, Note_on_c, 6, 59, 95
5, 120960, Note_on_c, 6, 55, 95
5, 120960, Note_on_c, 6, 53, 95
5, 120960, Note_on_c, 6, 48, 95
5, 120960, Note_on_c, 6, 41, 95
5, 121440, Note_off_c, 6, 64, 95
5, 121440, Note_off_c, 6, 59, 95
5, 121440, Note_off_c, 6, 55, 95
5, 121440, Note_off_c, 6, 53, 95
5, 121440, Note_off_c, 6, 48, 95
5, 121440, Note_off_c, 6, 41, 95
5, 121440, Note_on_c, 6, 64, 95
5, 121440, Note_on_c, 6, 59, 95
5, 121440, Note_on_c, 6, 55, 95
5, 121440, Note_on_c, 6, 53, 95
5, 121440, Note_on_c, 6, 48, 95
5, 121440, Note_on_c, 6, 41, 95
5, 121680, Note_off_c, 6, 64, 95
5, 121680, Note_off_c, 6, 59, 95
5, 121680, Note_off_c, 6, 55, 95
5, 121680, Note_off_c, 6, 53, 95
5, 121680, Note_off_c, 6, 48, 95
5, 121680, Note_off_c, 6, 41, 95
5, 121680, Note_on_c, 6, 64, 95
5, 121680, Note_on_c, 6, 59, 95
5, 121680, Note_on_c, 6, 55, 95
5, 121680, Note_on_c, 6, 53, 95
5, 121680, Note_on_c, 6, 48, 95
5, 121680, Note_on_c, 6, 41, 95
5, 121920, Note_off_c, 6, 64, 95
5, 121920, Note_off_c, 6, 59, 95
5, 121920, Note_off_c, 6, 55, 95
5, 121920, Note_off_c, 6, 53, 95
5, 121920, Note_off_c, 6, 48, 95
5, 121920, Note_off_c, 6, 41, 95
5, 121920, Note_on_c, 6, 64, 95
5, 121920, Note_on_c, 6, 59, 95
5, 121920, Note_on_c, 6, 55, 95
5, 121920, Note_on_c, 6, 53, 95
5, 121920, Note_on_c, 6, 48, 95
5, 121920, Note_on_c, 6, 41, 95
5, 122160, Note_off_c, 6, 64, 95
5, 122160, Note_off_c, 6, 59, 95
5, 122160, Note_off_c, 6, 55, 95
5, 122160, Note_off_c, 6, 53, 95
5, 122160, Note_off_c, 6, 48, 95
5, 122160, Note_off_c, 6, 41, 95
5, 122160, Note_on_c, 6, 64, 95
5, 122160, Note_on_c, 6, 59, 95
5, 122160, Note_on_c, 6, 55, 95
5, 122160, Note_on_c, 6, 53, 95
5, 122160, Note_on_c, 6, 48, 95
5, 122160, Note_on_c, 6, 41, 95
5, 122400, Note_off_c, 6, 64, 95
5, 122400, Note_off_c, 6, 59, 95
5, 122400, Note_off_c, 6, 55, 95
5, 122400, Note_off_c, 6, 53, 95
5, 122400, Note_off_c, 6, 48, 95
5, 122400, Note_off_c, 6, 41, 95
5, 122400, Note_on_c, 6, 64, 95
5, 122400, Note_on_c, 6, 59, 95
5, 122400, Note_on_c, 6, 55, 95
5, 122400, Note_on_c, 6, 53, 95
5, 122400, Note_on_c, 6, 48, 95
5, 122400, Note_on_c, 6, 41, 95
5, 122880, Note_off_c, 6, 64, 95
5, 122880, Note_off_c, 6, 59, 95
5, 122880, Note_off_c, 6, 55, 95
5, 122880, Note_off_c, 6, 53, 95
5, 122880, Note_off_c, 6, 48, 95
5, 122880, Note_off_c, 6, 41, 95
5, 122880, Note_on_c, 6, 64, 111
5, 122880, Note_on_c, 6, 59, 111
5, 122880, Note_on_c, 6, 55, 111
5, 122880, Note_on_c, 6, 53, 111
5, 122880, Note_on_c, 6, 48, 111
5, 122880, Note_on_c, 6, 41, 111
5, 123120, Note_off_c, 6, 64, 111
5, 123120, Note_off_c, 6, 59, 111
5, 123120, Note_off_c, 6, 55, 111
5, 123120, Note_off_c, 6, 53, 111
5, 123120, Note_off_c, 6, 48, 111
5, 123120, Note_off_c, 6, 41, 111
5, 123120, Note_on_c, 6, 64, 95
5, 123120, Note_on_c, 6, 59, 95
5, 123120, Note_on_c, 6, 55, 95
5, 123120, Note_on_c, 6, 53, 95
5, 123120, Note_on_c, 6, 48, 95
5, 123120, Note_on_c, 6, 41, 95
5, 123360, Note_off_c, 6, 64, 95
5, 123360, Note_off_c, 6, 59, 95
5, 123360, Note_off_c, 6, 55, 95
5, 123360, Note_off_c, 6, 53, 95
5, 123360, Note_off_c, 6, 48, 95
5, 123360, Note_off_c, 6, 41, 95
5, 123360, Note_on_c, 6, 64, 95
5, 123360, Note_on_c, 6, 59, 95
5, 123360, Note_on_c, 6, 55, 95
5, 123360, Note_on_c, 6, 53, 95
5, 123360, Note_on_c, 6, 48, 95
5, 123360, Note_on_c, 6, 41, 95
5, 123600, Note_off_c, 6, 64, 95
5, 123600, Note_off_c, 6, 59, 95
5, 123600, Note_off_c, 6, 55, 95
5, 123600, Note_off_c, 6, 53, 95
5, 123600, Note_off_c, 6, 48, 95
5, 123600, Note_off_c, 6, 41, 95
5, 123600, Note_on_c, 6, 64, 95
5, 123600, Note_on_c, 6, 59, 95
5, 123600, Note_on_c, 6, 55, 95
5, 123600, Note_on_c, 6, 53, 95
5, 123600, Note_on_c, 6, 48, 95
5, 123600, Note_on_c, 6, 41, 95
5, 123840, Note_off_c, 6, 64, 95
5, 123840, Note_off_c, 6, 59, 95
5, 123840, Note_off_c, 6, 55, 95
5, 123840, Note_off_c, 6, 53, 95
5, 123840, Note_off_c, 6, 48, 95
5, 123840, Note_off_c, 6, 41, 95
5, 123840, Note_on_c, 6, 64, 95
5, 123840, Note_on_c, 6, 59, 95
5, 123840, Note_on_c, 6, 55, 95
5, 123840, Note_on_c, 6, 52, 95
5, 123840, Note_on_c, 6, 47, 95
5, 123840, Note_on_c, 6, 40, 95
5, 124320, Note_off_c, 6, 64, 95
5, 124320, Note_off_c, 6, 59, 95
5, 124320, Note_off_c, 6, 55, 95
5, 124320, Note_off_c, 6, 52, 95
5, 124320, Note_off_c, 6, 47, 95
5, 124320, Note_off_c, 6, 40, 95
5, 124320, Note_on_c, 6, 64, 95
5, 124320, Note_on_c, 6, 59, 95
5, 124320, Note_on_c, 6, 55, 95
5, 124320, Note_on_c, 6, 52, 95
5, 124320, Note_on_c, 6, 47, 95
5, 124320, Note_on_c, 6, 40, 95
5, 124560, Note_off_c, 6, 64, 95
5, 124560, Note_off_c, 6, 59, 95
5, 124560, Note_off_c, 6, 55, 95
5, 124560, Note_off_c, 6, 52, 95
5, 124560, Note_off_c, 6, 47, 95
5, 124560, Note_off_c, 6, 40, 95
5, 124560, Note_on_c, 6, 64, 95
5, 124560, Note_on_c, 6, 59, 95
5, 124560, Note_on_c, 6, 55, 95
5, 124560, Note_on_c, 6, 52, 95
5, 124560, Note_on_c, 6, 47, 95
5, 124560, Note_on_c, 6, 40, 95
5, 124800, Note_off_c, 6, 64, 95
5, 124800, Note_off_c, 6, 59, 95
5, 124800, Note_off_c, 6, 55, 95
5, 124800, Note_off_c, 6, 52, 95
5, 124800, Note_off_c, 6, 47, 95
5, 124800, Note_off_c, 6, 40, 95
5, 124800, Note_on_c, 6, 64, 95
5, 124800, Note_on_c, 6, 59, 95
5, 124800, Note_on_c, 6, 55, 95
5, 124800, Note_on_c, 6, 52, 95
5, 124800, Note_on_c, 6, 47, 95
5, 124800, Note_on_c, 6, 40, 95
5, 125040, Note_off_c, 6, 64, 95
5, 125040, Note_off_c, 6, 59, 95
5, 125040, Note_off_c, 6, 55, 95
5, 125040, Note_off_c, 6, 52, 95
5, 125040, Note_off_c, 6, 47, 95
5, 125040, Note_off_c, 6, 40, 95
5, 125040, Note_on_c, 6, 64, 95
5, 125040, Note_on_c, 6, 59, 95
5, 125040, Note_on_c, 6, 55, 95
5, 125040, Note_on_c, 6, 52, 95
5, 125040, Note_on_c, 6, 47, 95
5, 125040, Note_on_c, 6, 40, 95
5, 125280, Note_off_c, 6, 64, 95
5, 125280, Note_off_c, 6, 59, 95
5, 125280, Note_off_c, 6, 55, 95
5, 125280, Note_off_c, 6, 52, 95
5, 125280, Note_off_c, 6, 47, 95
5, 125280, Note_off_c, 6, 40, 95
5, 125280, Note_on_c, 6, 64, 95
5, 125280, Note_on_c, 6, 59, 95
5, 125280, Note_on_c, 6, 55, 95
5, 125280, Note_on_c, 6, 52, 95
5, 125280, Note_on_c, 6, 47, 95
5, 125280, Note_on_c, 6, 40, 95
5, 125760, Note_off_c, 6, 64, 95
5, 125760, Note_off_c, 6, 59, 95
5, 125760, Note_off_c, 6, 55, 95
5, 125760, Note_off_c, 6, 52, 95
5, 125760, Note_off_c, 6, 47, 95
5, 125760, Note_off_c, 6, 40, 95
5, 125760, Note_on_c, 6, 64, 111
5, 125760, Note_on_c, 6, 59, 111
5, 125760, Note_on_c, 6, 55, 111
5, 125760, Note_on_c, 6, 52, 111
5, 125760, Note_on_c, 6, 47, 111
5, 125760, Note_on_c, 6, 40, 111
5, 126000, Note_off_c, 6, 64, 111
5, 126000, Note_off_c, 6, 59, 111
5, 126000, Note_off_c, 6, 55, 111
5, 126000, Note_off_c, 6, 52, 111
5, 126000, Note_off_c, 6, 47, 111
5, 126000, Note_off_c, 6, 40, 111
5, 126000, Note_on_c, 6, 64, 95
5, 126000, Note_on_c, 6, 59, 95
5, 126000, Note_on_c, 6, 55, 95
5, 126000, Note_on_c, 6, 52, 95
5, 126000, Note_on_c, 6, 47, 95
5, 126000, Note_on_c, 6, 40, 95
5, 126240, Note_off_c, 6, 64, 95
5, 126240, Note_off_c, 6, 59, 95
5, 126240, Note_off_c, 6, 55, 95
5, 126240, Note_off_c, 6, 52, 95
5, 126240, Note_off_c, 6, 47, 95
5, 126240, Note_off_c, 6, 40, 95
5, 126240, Note_on_c, 6, 64, 95
5, 126240, Note_on_c, 6, 59, 95
5, 126240, Note_on_c, 6, 55, 95
5, 126240, Note_on_c, 6, 52, 95
5, 126240, Note_on_c, 6, 47, 95
5, 126240, Note_on_c, 6, 40, 95
5, 126480, Note_off_c, 6, 64, 95
5, 126480, Note_off_c, 6, 59, 95
5, 126480, Note_off_c, 6, 55, 95
5, 126480, Note_off_c, 6, 52, 95
5, 126480, Note_off_c, 6, 47, 95
5, 126480, Note_off_c, 6, 40, 95
5, 126480, Note_on_c, 6, 64, 95
5, 126480, Note_on_c, 6, 59, 95
5, 126480, Note_on_c, 6, 55, 95
5, 126480, Note_on_c, 6, 52, 95
5, 126480, Note_on_c, 6, 47, 95
5, 126480, Note_on_c, 6, 40, 95
5, 126720, Note_off_c, 6, 64, 95
5, 126720, Note_off_c, 6, 59, 95
5, 126720, Note_off_c, 6, 55, 95
5, 126720, Note_off_c, 6, 52, 95
5, 126720, Note_off_c, 6, 47, 95
5, 126720, Note_off_c, 6, 40, 95
5, 126720, Note_on_c, 6, 64, 95
5, 126720, Note_on_c, 6, 59, 95
5, 126720, Note_on_c, 6, 55, 95
5, 126720, Note_on_c, 6, 51, 95
5, 126720, Note_on_c, 6, 46, 95
5, 126720, Note_on_c, 6, 39, 95
5, 127200, Note_off_c, 6, 64, 95
5, 127200, Note_off_c, 6, 59, 95
5, 127200, Note_off_c, 6, 55, 95
5, 127200, Note_off_c, 6, 51, 95
5, 127200, Note_off_c, 6, 46, 95
5, 127200, Note_off_c, 6, 39, 95
5, 127200, Note_on_c, 6, 64, 95
5, 127200, Note_on_c, 6, 59, 95
5, 127200, Note_on_c, 6, 55, 95
5, 127200, Note_on_c, 6, 51, 95
5, 127200, Note_on_c, 6, 46, 95
5, 127200, Note_on_c, 6, 39, 95
5, 127440, Note_off_c, 6, 64, 95
5, 127440, Note_off_c, 6, 59, 95
5, 127440, Note_off_c, 6, 55, 95
5, 127440, Note_off_c, 6, 51, 95
5, 127440, Note_off_c, 6, 46, 95
5, 127440, Note_off_c, 6, 39, 95
5, 127440, Note_on_c, 6, 64, 95
5, 127440, Note_on_c, 6, 59, 95
5, 127440, Note_on_c, 6, 55, 95
5, 127440, Note_on_c, 6, 51, 95
5, 127440, Note_on_c, 6, 46, 95
5, 127440, Note_on_c, 6, 39, 95
5, 127680, Note_off_c, 6, 64, 95
5, 127680, Note_off_c, 6, 59, 95
5, 127680, Note_off_c, 6, 55, 95
5, 127680, Note_off_c, 6, 51, 95
5, 127680, Note_off_c, 6, 46, 95
5, 127680, Note_off_c, 6, 39, 95
5, 127680, Note_on_c, 6, 64, 95
5, 127680, Note_on_c, 6, 59, 95
5, 127680, Note_on_c, 6, 55, 95
5, 127680, Note_on_c, 6, 51, 95
5, 127680, Note_on_c, 6, 46, 95
5, 127680, Note_on_c, 6, 39, 95
5, 127920, Note_off_c, 6, 64, 95
5, 127920, Note_off_c, 6, 59, 95
5, 127920, Note_off_c, 6, 55, 95
5, 127920, Note_off_c, 6, 51, 95
5, 127920, Note_off_c, 6, 46, 95
5, 127920, Note_off_c, 6, 39, 95
5, 127920, Note_on_c, 6, 64, 95
5, 127920, Note_on_c, 6, 59, 95
5, 127920, Note_on_c, 6, 55, 95
5, 127920, Note_on_c, 6, 51, 95
5, 127920, Note_on_c, 6, 46, 95
5, 127920, Note_on_c, 6, 39, 95
5, 128160, Note_off_c, 6, 64, 95
5, 128160, Note_off_c, 6, 59, 95
5, 128160, Note_off_c, 6, 55, 95
5, 128160, Note_off_c, 6, 51, 95
5, 128160, Note_off_c, 6, 46, 95
5, 128160, Note_off_c, 6, 39, 95
5, 128160, Note_on_c, 6, 64, 95
5, 128160, Note_on_c, 6, 59, 95
5, 128160, Note_on_c, 6, 55, 95
5, 128160, Note_on_c, 6, 51, 95
5, 128160, Note_on_c, 6, 46, 95
5, 128160, Note_on_c, 6, 39, 95
5, 128640, Note_off_c, 6, 64, 95
5, 128640, Note_off_c, 6, 59, 95
5, 128640, Note_off_c, 6, 55, 95
5, 128640, Note_off_c, 6, 51, 95
5, 128640, Note_off_c, 6, 46, 95
5, 128640, Note_off_c, 6, 39, 95
5, 128640, Note_on_c, 6, 64, 111
5, 128640, Note_on_c, 6, 59, 111
5, 128640, Note_on_c, 6, 55, 111
5, 128640, Note_on_c, 6, 51, 111
5, 128640, Note_on_c, 6, 46, 111
5, 128640, Note_on_c, 6, 39, 111
5, 128880, Note_off_c, 6, 64, 111
5, 128880, Note_off_c, 6, 59, 111
5, 128880, Note_off_c, 6, 55, 111
5, 128880, Note_off_c, 6, 51, 111
5, 128880, Note_off_c, 6, 46, 111
5, 128880, Note_off_c, 6, 39, 111
5, 128880, Note_on_c, 6, 64, 95
5, 128880, Note_on_c, 6, 59, 95
5, 128880, Note_on_c, 6, 55, 95
5, 128880, Note_on_c, 6, 51, 95
5, 128880, Note_on_c, 6, 46, 95
5, 128880, Note_on_c, 6, 39, 95
5, 129120, Note_off_c, 6, 64, 95
5, 129120, Note_off_c, 6, 59, 95
5, 129120, Note_off_c, 6, 55, 95
5, 129120, Note_off_c, 6, 51, 95
5, 129120, Note_off_c, 6, 46, 95
5, 129120, Note_off_c, 6, 39, 95
5, 129120, Note_on_c, 6, 64, 95
5, 129120, Note_on_c, 6, 59, 95
5, 129120, Note_on_c, 6, 55, 95
5, 129120, Note_on_c, 6, 51, 95
5, 129120, Note_on_c, 6, 46, 95
5, 129120, Note_on_c, 6, 39, 95
5, 129360, Note_off_c, 6, 64, 95
5, 129360, Note_off_c, 6, 59, 95
5, 129360, Note_off_c, 6, 55, 95
5, 129360, Note_off_c, 6, 51, 95
5, 129360, Note_off_c, 6, 46, 95
5, 129360, Note_off_c, 6, 39, 95
5, 129360, Note_on_c, 6, 64, 95
5, 129360, Note_on_c, 6, 59, 95
5, 129360, Note_on_c, 6, 55, 95
5, 129360, Note_on_c, 6, 51, 95
5, 129360, Note_on_c, 6, 46, 95
5, 129360, Note_on_c, 6, 39, 95
5, 129600, Note_off_c, 6, 64, 95
5, 129600, Note_off_c, 6, 59, 95
5, 129600, Note_off_c, 6, 55, 95
5, 129600, Note_off_c, 6, 51, 95
5, 129600, Note_off_c, 6, 46, 95
5, 129600, Note_off_c, 6, 39, 95
5, 129600, Note_on_c, 6, 64, 95
5, 129600, Note_on_c, 6, 59, 95
5, 129600, Note_on_c, 6, 55, 95
5, 129600, Note_on_c, 6, 51, 95
5, 129600, Note_on_c, 6, 46, 95
5, 129600, Note_on_c, 6, 39, 95
5, 130080, Note_off_c, 6, 64, 95
5, 130080, Note_off_c, 6, 59, 95
5, 130080, Note_off_c, 6, 55, 95
5, 130080, Note_off_c, 6, 51, 95
5, 130080, Note_off_c, 6, 46, 95
5, 130080, Note_off_c, 6, 39, 95
5, 130080, Note_on_c, 6, 64, 95
5, 130080, Note_on_c, 6, 59, 95
5, 130080, Note_on_c, 6, 55, 95
5, 130080, Note_on_c, 6, 51, 95
5, 130080, Note_on_c, 6, 46, 95
5, 130080, Note_on_c, 6, 39, 95
5, 130320, Note_off_c, 6, 64, 95
5, 130320, Note_off_c, 6, 59, 95
5, 130320, Note_off_c, 6, 55, 95
5, 130320, Note_off_c, 6, 51, 95
5, 130320, Note_off_c, 6, 46, 95
5, 130320, Note_off_c, 6, 39, 95
5, 130320, Note_on_c, 6, 64, 95
5, 130320, Note_on_c, 6, 59, 95
5, 130320, Note_on_c, 6, 55, 95
5, 130320, Note_on_c, 6, 51, 95
5, 130320, Note_on_c, 6, 46, 95
5, 130320, Note_on_c, 6, 39, 95
5, 130560, Note_off_c, 6, 64, 95
5, 130560, Note_off_c, 6, 59, 95
5, 130560, Note_off_c, 6, 55, 95
5, 130560, Note_off_c, 6, 51, 95
5, 130560, Note_off_c, 6, 46, 95
5, 130560, Note_off_c, 6, 39, 95
5, 130560, Note_on_c, 6, 64, 95
5, 130560, Note_on_c, 6, 59, 95
5, 130560, Note_on_c, 6, 55, 95
5, 130560, Note_on_c, 6, 51, 95
5, 130560, Note_on_c, 6, 46, 95
5, 130560, Note_on_c, 6, 39, 95
5, 130800, Note_off_c, 6, 64, 95
5, 130800, Note_off_c, 6, 59, 95
5, 130800, Note_off_c, 6, 55, 95
5, 130800, Note_off_c, 6, 51, 95
5, 130800, Note_off_c, 6, 46, 95
5, 130800, Note_off_c, 6, 39, 95
5, 130800, Note_on_c, 6, 64, 95
5, 130800, Note_on_c, 6, 59, 95
5, 130800, Note_on_c, 6, 55, 95
5, 130800, Note_on_c, 6, 51, 95
5, 130800, Note_on_c, 6, 46, 95
5, 130800, Note_on_c, 6, 39, 95
5, 131040, Note_off_c, 6, 64, 95
5, 131040, Note_off_c, 6, 59, 95
5, 131040, Note_off_c, 6, 55, 95
5, 131040, Note_off_c, 6, 51, 95
5, 131040, Note_off_c, 6, 46, 95
5, 131040, Note_off_c, 6, 39, 95
5, 131040, Note_on_c, 6, 64, 95
5, 131040, Note_on_c, 6, 59, 95
5, 131040, Note_on_c, 6, 55, 95
5, 131040, Note_on_c, 6, 51, 95
5, 131040, Note_on_c, 6, 46, 95
5, 131040, Note_on_c, 6, 39, 95
5, 131520, Note_off_c, 6, 64, 95
5, 131520, Note_off_c, 6, 59, 95
5, 131520, Note_off_c, 6, 55, 95
5, 131520, Note_off_c, 6, 51, 95
5, 131520, Note_off_c, 6, 46, 95
5, 131520, Note_off_c, 6, 39, 95
5, 131520, Note_on_c, 6, 64, 111
5, 131520, Note_on_c, 6, 59, 111
5, 131520, Note_on_c, 6, 55, 111
5, 131520, Note_on_c, 6, 51, 111
5, 131520, Note_on_c, 6, 46, 111
5, 131520, Note_on_c, 6, 39, 111
5, 131760, Note_off_c, 6, 64, 111
5, 131760, Note_off_c, 6, 59, 111
5, 131760, Note_off_c, 6, 55, 111
5, 131760, Note_off_c, 6, 51, 111
5, 131760, Note_off_c, 6, 46, 111
5, 131760, Note_off_c, 6, 39, 111
5, 131760, Note_on_c, 6, 64, 95
5, 131760, Note_on_c, 6, 59, 95
5, 131760, Note_on_c, 6, 55, 95
5, 131760, Note_on_c, 6, 51, 95
5, 131760, Note_on_c, 6, 46, 95
5, 131760, Note_on_c, 6, 39, 95
5, 132000, Note_off_c, 6, 64, 95
5, 132000, Note_off_c, 6, 59, 95
5, 132000, Note_off_c, 6, 55, 95
5, 132000, Note_off_c, 6, 51, 95
5, 132000, Note_off_c, 6, 46, 95
5, 132000, Note_off_c, 6, 39, 95
5, 132000, Note_on_c, 6, 64, 95
5, 132000, Note_on_c, 6, 59, 95
5, 132000, Note_on_c, 6, 55, 95
5, 132000, Note_on_c, 6, 51, 95
5, 132000, Note_on_c, 6, 46, 95
5, 132000, Note_on_c, 6, 39, 95
5, 132240, Note_off_c, 6, 64, 95
5, 132240, Note_off_c, 6, 59, 95
5, 132240, Note_off_c, 6, 55, 95
5, 132240, Note_off_c, 6, 51, 95
5, 132240, Note_off_c, 6, 46, 95
5, 132240, Note_off_c, 6, 39, 95
5, 132240, Note_on_c, 6, 64, 95
5, 132240, Note_on_c, 6, 59, 95
5, 132240, Note_on_c, 6, 55, 95
5, 132240, Note_on_c, 6, 51, 95
5, 132240, Note_on_c, 6, 46, 95
5, 132240, Note_on_c, 6, 39, 95
5, 132480, Note_off_c, 6, 64, 95
5, 132480, Note_off_c, 6, 59, 95
5, 132480, Note_off_c, 6, 55, 95
5, 132480, Note_off_c, 6, 51, 95
5, 132480, Note_off_c, 6, 46, 95
5, 132480, Note_off_c, 6, 39, 95
5, 132480, Note_on_c, 6, 64, 95
5, 132480, Note_on_c, 6, 59, 95
5, 132480, Note_on_c, 6, 55, 95
5, 132480, Note_on_c, 6, 52, 95
5, 132480, Note_on_c, 6, 47, 95
5, 132480, Note_on_c, 6, 40, 95
5, 132960, Note_off_c, 6, 64, 95
5, 132960, Note_off_c, 6, 59, 95
5, 132960, Note_off_c, 6, 55, 95
5, 132960, Note_off_c, 6, 52, 95
5, 132960, Note_off_c, 6, 47, 95
5, 132960, Note_off_c, 6, 40, 95
5, 132960, Note_on_c, 6, 64, 95
5, 132960, Note_on_c, 6, 59, 95
5, 132960, Note_on_c, 6, 55, 95
5, 132960, Note_on_c, 6, 52, 95
5, 132960, Note_on_c, 6, 47, 95
5, 132960, Note_on_c, 6, 40, 95
5, 133200, Note_off_c, 6, 64, 95
5, 133200, Note_off_c, 6, 59, 95
5, 133200, Note_off_c, 6, 55, 95
5, 133200, Note_off_c, 6, 52, 95
5, 133200, Note_off_c, 6, 47, 95
5, 133200, Note_off_c, 6, 40, 95
5, 133200, Note_on_c, 6, 64, 95
5, 133200, Note_on_c, 6, 59, 95
5, 133200, Note_on_c, 6, 55, 95
5, 133200, Note_on_c, 6, 52, 95
5, 133200, Note_on_c, 6, 47, 95
5, 133200, Note_on_c, 6, 40, 95
5, 133440, Note_off_c, 6, 64, 95
5, 133440, Note_off_c, 6, 59, 95
5, 133440, Note_off_c, 6, 55, 95
5, 133440, Note_off_c, 6, 52, 95
5, 133440, Note_off_c, 6, 47, 95
5, 133440, Note_off_c, 6, 40, 95
5, 133440, Note_on_c, 6, 64, 95
5, 133440, Note_on_c, 6, 59, 95
5, 133440, Note_on_c, 6, 55, 95
5, 133440, Note_on_c, 6, 52, 95
5, 133440, Note_on_c, 6, 47, 95
5, 133440, Note_on_c, 6, 40, 95
5, 133680, Note_off_c, 6, 64, 95
5, 133680, Note_off_c, 6, 59, 95
5, 133680, Note_off_c, 6, 55, 95
5, 133680, Note_off_c, 6, 52, 95
5, 133680, Note_off_c, 6, 47, 95
5, 133680, Note_off_c, 6, 40, 95
5, 133680, Note_on_c, 6, 64, 95
5, 133680, Note_on_c, 6, 59, 95
5, 133680, Note_on_c, 6, 55, 95
5, 133680, Note_on_c, 6, 52, 95
5, 133680, Note_on_c, 6, 47, 95
5, 133680, Note_on_c, 6, 40, 95
5, 133920, Note_off_c, 6, 64, 95
5, 133920, Note_off_c, 6, 59, 95
5, 133920, Note_off_c, 6, 55, 95
5, 133920, Note_off_c, 6, 52, 95
5, 133920, Note_off_c, 6, 47, 95
5, 133920, Note_off_c, 6, 40, 95
5, 133920, Note_on_c, 6, 64, 95
5, 133920, Note_on_c, 6, 59, 95
5, 133920, Note_on_c, 6, 55, 95
5, 133920, Note_on_c, 6, 52, 95
5, 133920, Note_on_c, 6, 47, 95
5, 133920, Note_on_c, 6, 40, 95
5, 134400, Note_off_c, 6, 64, 95
5, 134400, Note_off_c, 6, 59, 95
5, 134400, Note_off_c, 6, 55, 95
5, 134400, Note_off_c, 6, 52, 95
5, 134400, Note_off_c, 6, 47, 95
5, 134400, Note_off_c, 6, 40, 95
5, 134400, Note_on_c, 6, 64, 111
5, 134400, Note_on_c, 6, 59, 111
5, 134400, Note_on_c, 6, 55, 111
5, 134400, Note_on_c, 6, 52, 111
5, 134400, Note_on_c, 6, 47, 111
5, 134400, Note_on_c, 6, 40, 111
5, 134640, Note_off_c, 6, 64, 111
5, 134640, Note_off_c, 6, 59, 111
5, 134640, Note_off_c, 6, 55, 111
5, 134640, Note_off_c, 6, 52, 111
5, 134640, Note_off_c, 6, 47, 111
5, 134640, Note_off_c, 6, 40, 111
5, 134640, Note_on_c, 6, 64, 95
5, 134640, Note_on_c, 6, 59, 95
5, 134640, Note_on_c, 6, 55, 95
5, 134640, Note_on_c, 6, 52, 95
5, 134640, Note_on_c, 6, 47, 95
5, 134640, Note_on_c, 6, 40, 95
5, 134880, Note_off_c, 6, 64, 95
5, 134880, Note_off_c, 6, 59, 95
5, 134880, Note_off_c, 6, 55, 95
5, 134880, Note_off_c, 6, 52, 95
5, 134880, Note_off_c, 6, 47, 95
5, 134880, Note_off_c, 6, 40, 95
5, 134880, Note_on_c, 6, 64, 95
5, 134880, Note_on_c, 6, 59, 95
5, 134880, Note_on_c, 6, 55, 95
5, 134880, Note_on_c, 6, 52, 95
5, 134880, Note_on_c, 6, 47, 95
5, 134880, Note_on_c, 6, 40, 95
5, 135120, Note_off_c, 6, 64, 95
5, 135120, Note_off_c, 6, 59, 95
5, 135120, Note_off_c, 6, 55, 95
5, 135120, Note_off_c, 6, 52, 95
5, 135120, Note_off_c, 6, 47, 95
5, 135120, Note_off_c, 6, 40, 95
5, 135120, Note_on_c, 6, 64, 95
5, 135120, Note_on_c, 6, 59, 95
5, 135120, Note_on_c, 6, 55, 95
5, 135120, Note_on_c, 6, 52, 95
5, 135120, Note_on_c, 6, 47, 95
5, 135120, Note_on_c, 6, 40, 95
5, 135360, Note_off_c, 6, 64, 95
5, 135360, Note_off_c, 6, 59, 95
5, 135360, Note_off_c, 6, 55, 95
5, 135360, Note_off_c, 6, 52, 95
5, 135360, Note_off_c, 6, 47, 95
5, 135360, Note_off_c, 6, 40, 95
5, 135360, Note_on_c, 6, 64, 95
5, 135360, Note_on_c, 6, 59, 95
5, 135360, Note_on_c, 6, 55, 95
5, 135360, Note_on_c, 6, 52, 95
5, 135360, Note_on_c, 6, 47, 95
5, 135360, Note_on_c, 6, 40, 95
5, 135840, Note_off_c, 6, 64, 95
5, 135840, Note_off_c, 6, 59, 95
5, 135840, Note_off_c, 6, 55, 95
5, 135840, Note_off_c, 6, 52, 95
5, 135840, Note_off_c, 6, 47, 95
5, 135840, Note_off_c, 6, 40, 95
5, 135840, Note_on_c, 6, 64, 95
5, 135840, Note_on_c, 6, 59, 95
5, 135840, Note_on_c, 6, 55, 95
5, 135840, Note_on_c, 6, 52, 95
5, 135840, Note_on_c, 6, 47, 95
5, 135840, Note_on_c, 6, 40, 95
5, 136080, Note_off_c, 6, 64, 95
5, 136080, Note_off_c, 6, 59, 95
5, 136080, Note_off_c, 6, 55, 95
5, 136080, Note_off_c, 6, 52, 95
5, 136080, Note_off_c, 6, 47, 95
5, 136080, Note_off_c, 6, 40, 95
5, 136080, Note_on_c, 6, 64, 95
5, 136080, Note_on_c, 6, 59, 95
5, 136080, Note_on_c, 6, 55, 95
5, 136080, Note_on_c, 6, 52, 95
5, 136080, Note_on_c, 6, 47, 95
5, 136080, Note_on_c, 6, 40, 95
5, 136320, Note_off_c, 6, 64, 95
5, 136320, Note_off_c, 6, 59, 95
5, 136320, Note_off_c, 6, 55, 95
5, 136320, Note_off_c, 6, 52, 95
5, 136320, Note_off_c, 6, 47, 95
5, 136320, Note_off_c, 6, 40, 95
5, 136320, Note_on_c, 6, 64, 95
5, 136320, Note_on_c, 6, 59, 95
5, 136320, Note_on_c, 6, 55, 95
5, 136320, Note_on_c, 6, 52, 95
5, 136320, Note_on_c, 6, 47, 95
5, 136320, Note_on_c, 6, 40, 95
5, 136560, Note_off_c, 6, 64, 95
5, 136560, Note_off_c, 6, 59, 95
5, 136560, Note_off_c, 6, 55, 95
5, 136560, Note_off_c, 6, 52, 95
5, 136560, Note_off_c, 6, 47, 95
5, 136560, Note_off_c, 6, 40, 95
5, 136560, Note_on_c, 6, 64, 95
5, 136560, Note_on_c, 6, 59, 95
5, 136560, Note_on_c, 6, 55, 95
5, 136560, Note_on_c, 6, 52, 95
5, 136560, Note_on_c, 6, 47, 95
5, 136560, Note_on_c, 6, 40, 95
5, 136800, Note_off_c, 6, 64, 95
5, 136800, Note_off_c, 6, 59, 95
5, 136800, Note_off_c, 6, 55, 95
5, 136800, Note_off_c, 6, 52, 95
5, 136800, Note_off_c, 6, 47, 95
5, 136800, Note_off_c, 6, 40, 95
5, 136800, Note_on_c, 6, 64, 95
5, 136800, Note_on_c, 6, 59, 95
5, 136800, Note_on_c, 6, 55, 95
5, 136800, Note_on_c, 6, 52, 95
5, 136800, Note_on_c, 6, 47, 95
5, 136800, Note_on_c, 6, 40, 95
5, 137280, Note_off_c, 6, 64, 95
5, 137280, Note_off_c, 6, 59, 95
5, 137280, Note_off_c, 6, 55, 95
5, 137280, Note_off_c, 6, 52, 95
5, 137280, Note_off_c, 6, 47, 95
5, 137280, Note_off_c, 6, 40, 95
5, 137280, Note_on_c, 6, 64, 111
5, 137280, Note_on_c, 6, 59, 111
5, 137280, Note_on_c, 6, 55, 111
5, 137280, Note_on_c, 6, 52, 111
5, 137280, Note_on_c, 6, 47, 111
5, 137280, Note_on_c, 6, 40, 111
5, 137520, Note_off_c, 6, 64, 111
5, 137520, Note_off_c, 6, 59, 111
5, 137520, Note_off_c, 6, 55, 111
5, 137520, Note_off_c, 6, 52, 111
5, 137520, Note_off_c, 6, 47, 111
5, 137520, Note_off_c, 6, 40, 111
5, 137520, Note_on_c, 6, 64, 95
5, 137520, Note_on_c, 6, 59, 95
5, 137520, Note_on_c, 6, 55, 95
5, 137520, Note_on_c, 6, 52, 95
5, 137520, Note_on_c, 6, 47, 95
5, 137520, Note_on_c, 6, 40, 95
5, 137760, Note_off_c, 6, 64, 95
5, 137760, Note_off_c, 6, 59, 95
5, 137760, Note_off_c, 6, 55, 95
5, 137760, Note_off_c, 6, 52, 95
5, 137760, Note_off_c, 6, 47, 95
5, 137760, Note_off_c, 6, 40, 95
5, 137760, Note_on_c, 6, 64, 95
5, 137760, Note_on_c, 6, 59, 95
5, 137760, Note_on_c, 6, 55, 95
5, 137760, Note_on_c, 6, 52, 95
5, 137760, Note_on_c, 6, 47, 95
5, 137760, Note_on_c, 6, 40, 95
5, 138000, Note_off_c, 6, 64, 95
5, 138000, Note_off_c, 6, 59, 95
5, 138000, Note_off_c, 6, 55, 95
5, 138000, Note_off_c, 6, 52, 95
5, 138000, Note_off_c, 6, 47, 95
5, 138000, Note_off_c, 6, 40, 95
5, 138000, Note_on_c, 6, 64, 95
5, 138000, Note_on_c, 6, 59, 95
5, 138000, Note_on_c, 6, 55, 95
5, 138000, Note_on_c, 6, 52, 95
5, 138000, Note_on_c, 6, 47, 95
5, 138000, Note_on_c, 6, 40, 95
5, 138240, Note_off_c, 6, 64, 95
5, 138240, Note_off_c, 6, 59, 95
5, 138240, Note_off_c, 6, 55, 95
5, 138240, Note_off_c, 6, 52, 95
5, 138240, Note_off_c, 6, 47, 95
5, 138240, Note_off_c, 6, 40, 95
5, 149760, Note_on_c, 6, 64, 95
5, 149760, Note_on_c, 6, 59, 95
5, 149760, Note_on_c, 6, 55, 95
5, 149760, Note_on_c, 6, 52, 95
5, 149760, Note_on_c, 6, 47, 95
5, 149760, Note_on_c, 6, 40, 95
5, 155520, Note_off_c, 6, 64, 95
5, 155520, Note_off_c, 6, 59, 95
5, 155520, Note_off_c, 6, 55, 95
5, 155520, Note_off_c, 6, 52, 95
5, 155520, Note_off_c, 6, 47, 95
5, 155520, Note_off_c, 6, 40, 95
5, 155520, Note_on_c, 6, 66, 95
5, 155520, Note_on_c, 6, 62, 95
5, 155520, Note_on_c, 6, 57, 95
5, 155520, Note_on_c, 6, 50, 95
5, 156000, Note_off_c, 6, 66, 95
5, 156000, Note_off_c, 6, 62, 95
5, 156000, Note_off_c, 6, 57, 95
5, 156000, Note_off_c, 6, 50, 95
5, 156000, Note_on_c, 6, 66, 95
5, 156000, Note_on_c, 6, 62, 95
5, 156000, Note_on_c, 6, 57, 95
5, 156000, Note_on_c, 6, 50, 95
5, 156240, Note_off_c, 6, 66, 95
5, 156240, Note_off_c, 6, 62, 95
5, 156240, Note_off_c, 6, 57, 95
5, 156240, Note_off_c, 6, 50, 95
5, 156240, Note_on_c, 6, 66, 95
5, 156240, Note_on_c, 6, 62, 95
5, 156240, Note_on_c, 6, 57, 95
5, 156240, Note_on_c, 6, 50, 95
5, 156720, Note_off_c, 6, 66, 95
5, 156720, Note_off_c, 6, 62, 95
5, 156720, Note_off_c, 6, 57, 95
5, 156720, Note_off_c, 6, 50, 95
5, 156720, Note_on_c, 6, 66, 95
5, 156720, Note_on_c, 6, 62, 95
5, 156720, Note_on_c, 6, 57, 95
5, 156720, Note_on_c, 6, 50, 95
5, 156960, Note_off_c, 6, 66, 95
5, 156960, Note_off_c, 6, 62, 95
5, 156960, Note_off_c, 6, 57, 95
5, 156960, Note_off_c, 6, 50, 95
5, 156960, Note_on_c, 6, 66, 95
5, 156960, Note_on_c, 6, 62, 95
5, 156960, Note_on_c, 6, 57, 95
5, 156960, Note_on_c, 6, 50, 95
5, 157440, Note_off_c, 6, 66, 95
5, 157440, Note_off_c, 6, 62, 95
5, 157440, Note_off_c, 6, 57, 95
5, 157440, Note_off_c, 6, 50, 95
5, 157440, Note_on_c, 6, 66, 95
5, 157440, Note_on_c, 6, 62, 95
5, 157440, Note_on_c, 6, 57, 95
5, 157440, Note_on_c, 6, 50, 95
5, 157680, Note_off_c, 6, 66, 95
5, 157680, Note_off_c, 6, 62, 95
5, 157680, Note_off_c, 6, 57, 95
5, 157680, Note_off_c, 6, 50, 95
5, 157680, Note_on_c, 6, 66, 95
5, 157680, Note_on_c, 6, 62, 95
5, 157680, Note_on_c, 6, 57, 95
5, 157680, Note_on_c, 6, 50, 95
5, 158160, Note_off_c, 6, 66, 95
5, 158160, Note_off_c, 6, 62, 95
5, 158160, Note_off_c, 6, 57, 95
5, 158160, Note_off_c, 6, 50, 95
5, 158160, Note_on_c, 6, 66, 95
5, 158160, Note_on_c, 6, 62, 95
5, 158160, Note_on_c, 6, 57, 95
5, 158160, Note_on_c, 6, 50, 95
5, 158400, Note_off_c, 6, 66, 95
5, 158400, Note_off_c, 6, 62, 95
5, 158400, Note_off_c, 6, 57, 95
5, 158400, Note_off_c, 6, 50, 95
5, 158400, Note_on_c, 6, 66, 95
5, 158400, Note_on_c, 6, 62, 95
5, 158400, Note_on_c, 6, 57, 95
5, 158400, Note_on_c, 6, 50, 95
5, 158880, Note_off_c, 6, 66, 95
5, 158880, Note_off_c, 6, 62, 95
5, 158880, Note_off_c, 6, 57, 95
5, 158880, Note_off_c, 6, 50, 95
5, 158880, Note_on_c, 6, 66, 95
5, 158880, Note_on_c, 6, 62, 95
5, 158880, Note_on_c, 6, 57, 95
5, 158880, Note_on_c, 6, 50, 95
5, 159120, Note_off_c, 6, 66, 95
5, 159120, Note_off_c, 6, 62, 95
5, 159120, Note_off_c, 6, 57, 95
5, 159120, Note_off_c, 6, 50, 95
5, 159120, Note_on_c, 6, 66, 95
5, 159120, Note_on_c, 6, 62, 95
5, 159120, Note_on_c, 6, 57, 95
5, 159120, Note_on_c, 6, 50, 95
5, 159360, Note_off_c, 6, 66, 95
5, 159360, Note_off_c, 6, 62, 95
5, 159360, Note_off_c, 6, 57, 95
5, 159360, Note_off_c, 6, 50, 95
5, 159360, Note_on_c, 6, 66, 95
5, 159360, Note_on_c, 6, 62, 95
5, 159360, Note_on_c, 6, 57, 95
5, 159360, Note_on_c, 6, 50, 95
5, 159600, Note_off_c, 6, 66, 95
5, 159600, Note_off_c, 6, 62, 95
5, 159600, Note_off_c, 6, 57, 95
5, 159600, Note_off_c, 6, 50, 95
5, 159600, Note_on_c, 6, 66, 95
5, 159600, Note_on_c, 6, 62, 95
5, 159600, Note_on_c, 6, 57, 95
5, 159600, Note_on_c, 6, 50, 95
5, 159840, Note_off_c, 6, 66, 95
5, 159840, Note_off_c, 6, 62, 95
5, 159840, Note_off_c, 6, 57, 95
5, 159840, Note_off_c, 6, 50, 95
5, 159840, Note_on_c, 6, 67, 95
5, 159840, Note_on_c, 6, 59, 95
5, 159840, Note_on_c, 6, 57, 95
5, 159840, Note_on_c, 6, 50, 95
5, 160080, Note_off_c, 6, 67, 95
5, 160080, Note_off_c, 6, 59, 95
5, 160080, Note_off_c, 6, 57, 95
5, 160080, Note_off_c, 6, 50, 95
5, 160080, Note_on_c, 6, 67, 95
5, 160080, Note_on_c, 6, 59, 95
5, 160080, Note_on_c, 6, 57, 95
5, 160080, Note_on_c, 6, 50, 95
5, 160560, Note_off_c, 6, 67, 95
5, 160560, Note_off_c, 6, 59, 95
5, 160560, Note_off_c, 6, 57, 95
5, 160560, Note_off_c, 6, 50, 95
5, 160560, Note_on_c, 6, 67, 95
5, 160560, Note_on_c, 6, 59, 95
5, 160560, Note_on_c, 6, 57, 95
5, 160560, Note_on_c, 6, 50, 95
5, 161040, Note_off_c, 6, 67, 95
5, 161040, Note_off_c, 6, 59, 95
5, 161040, Note_off_c, 6, 57, 95
5, 161040, Note_off_c, 6, 50, 95
5, 161040, Note_on_c, 6, 67, 95
5, 161040, Note_on_c, 6, 59, 95
5, 161040, Note_on_c, 6, 57, 95
5, 161040, Note_on_c, 6, 50, 95
5, 161280, Note_off_c, 6, 67, 95
5, 161280, Note_off_c, 6, 59, 95
5, 161280, Note_off_c, 6, 57, 95
5, 161280, Note_off_c, 6, 50, 95
5, 161280, Note_on_c, 6, 66, 95
5, 161280, Note_on_c, 6, 62, 95
5, 161280, Note_on_c, 6, 57, 95
5, 161280, Note_on_c, 6, 50, 95
5, 161760, Note_off_c, 6, 66, 95
5, 161760, Note_off_c, 6, 62, 95
5, 161760, Note_off_c, 6, 57, 95
5, 161760, Note_off_c, 6, 50, 95
5, 161760, Note_on_c, 6, 66, 95
5, 161760, Note_on_c, 6, 62, 95
5, 161760, Note_on_c, 6, 57, 95
5, 161760, Note_on_c, 6, 50, 95
5, 162000, Note_off_c, 6, 66, 95
5, 162000, Note_off_c, 6, 62, 95
5, 162000, Note_off_c, 6, 57, 95
5, 162000, Note_off_c, 6, 50, 95
5, 162000, Note_on_c, 6, 66, 95
5, 162000, Note_on_c, 6, 62, 95
5, 162000, Note_on_c, 6, 57, 95
5, 162000, Note_on_c, 6, 50, 95
5, 162480, Note_off_c, 6, 66, 95
5, 162480, Note_off_c, 6, 62, 95
5, 162480, Note_off_c, 6, 57, 95
5, 162480, Note_off_c, 6, 50, 95
5, 162480, Note_on_c, 6, 66, 95
5, 162480, Note_on_c, 6, 62, 95
5, 162480, Note_on_c, 6, 57, 95
5, 162480, Note_on_c, 6, 50, 95
5, 162720, Note_off_c, 6, 66, 95
5, 162720, Note_off_c, 6, 62, 95
5, 162720, Note_off_c, 6, 57, 95
5, 162720, Note_off_c, 6, 50, 95
5, 162720, Note_on_c, 6, 66, 95
5, 162720, Note_on_c, 6, 62, 95
5, 162720, Note_on_c, 6, 57, 95
5, 162720, Note_on_c, 6, 50, 95
5, 163200, Note_off_c, 6, 66, 95
5, 163200, Note_off_c, 6, 62, 95
5, 163200, Note_off_c, 6, 57, 95
5, 163200, Note_off_c, 6, 50, 95
5, 163200, Note_on_c, 6, 66, 95
5, 163200, Note_on_c, 6, 62, 95
5, 163200, Note_on_c, 6, 57, 95
5, 163200, Note_on_c, 6, 50, 95
5, 163440, Note_off_c, 6, 66, 95
5, 163440, Note_off_c, 6, 62, 95
5, 163440, Note_off_c, 6, 57, 95
5, 163440, Note_off_c, 6, 50, 95
5, 163440, Note_on_c, 6, 66, 95
5, 163440, Note_on_c, 6, 62, 95
5, 163440, Note_on_c, 6, 57, 95
5, 163440, Note_on_c, 6, 50, 95
5, 163920, Note_off_c, 6, 66, 95
5, 163920, Note_off_c, 6, 62, 95
5, 163920, Note_off_c, 6, 57, 95
5, 163920, Note_off_c, 6, 50, 95
5, 163920, Note_on_c, 6, 66, 95
5, 163920, Note_on_c, 6, 62, 95
5, 163920, Note_on_c, 6, 57, 95
5, 163920, Note_on_c, 6, 50, 95
5, 164160, Note_off_c, 6, 66, 95
5, 164160, Note_off_c, 6, 62, 95
5, 164160, Note_off_c, 6, 57, 95
5, 164160, Note_off_c, 6, 50, 95
5, 164160, Note_on_c, 6, 66, 95
5, 164160, Note_on_c, 6, 62, 95
5, 164160, Note_on_c, 6, 57, 95
5, 164160, Note_on_c, 6, 50, 95
5, 164640, Note_off_c, 6, 66, 95
5, 164640, Note_off_c, 6, 62, 95
5, 164640, Note_off_c, 6, 57, 95
5, 164640, Note_off_c, 6, 50, 95
5, 164640, Note_on_c, 6, 66, 95
5, 164640, Note_on_c, 6, 62, 95
5, 164640, Note_on_c, 6, 57, 95
5, 164640, Note_on_c, 6, 50, 95
5, 164880, Note_off_c, 6, 66, 95
5, 164880, Note_off_c, 6, 62, 95
5, 164880, Note_off_c, 6, 57, 95
5, 164880, Note_off_c, 6, 50, 95
5, 164880, Note_on_c, 6, 66, 95
5, 164880, Note_on_c, 6, 62, 95
5, 164880, Note_on_c, 6, 57, 95
5, 164880, Note_on_c, 6, 50, 95
5, 165120, Note_off_c, 6, 66, 95
5, 165120, Note_off_c, 6, 62, 95
5, 165120, Note_off_c, 6, 57, 95
5, 165120, Note_off_c, 6, 50, 95
5, 165120, Note_on_c, 6, 66, 95
5, 165120, Note_on_c, 6, 62, 95
5, 165120, Note_on_c, 6, 57, 95
5, 165120, Note_on_c, 6, 50, 95
5, 165360, Note_off_c, 6, 66, 95
5, 165360, Note_off_c, 6, 62, 95
5, 165360, Note_off_c, 6, 57, 95
5, 165360, Note_off_c, 6, 50, 95
5, 165360, Note_on_c, 6, 66, 95
5, 165360, Note_on_c, 6, 62, 95
5, 165360, Note_on_c, 6, 57, 95
5, 165360, Note_on_c, 6, 50, 95
5, 165600, Note_off_c, 6, 66, 95
5, 165600, Note_off_c, 6, 62, 95
5, 165600, Note_off_c, 6, 57, 95
5, 165600, Note_off_c, 6, 50, 95
5, 165600, Note_on_c, 6, 67, 95
5, 165600, Note_on_c, 6, 59, 95
5, 165600, Note_on_c, 6, 57, 95
5, 165600, Note_on_c, 6, 50, 95
5, 165840, Note_off_c, 6, 67, 95
5, 165840, Note_off_c, 6, 59, 95
5, 165840, Note_off_c, 6, 57, 95
5, 165840, Note_off_c, 6, 50, 95
5, 165840, Note_on_c, 6, 67, 95
5, 165840, Note_on_c, 6, 59, 95
5, 165840, Note_on_c, 6, 57, 95
5, 165840, Note_on_c, 6, 50, 95
5, 166320, Note_off_c, 6, 67, 95
5, 166320, Note_off_c, 6, 59, 95
5, 166320, Note_off_c, 6, 57, 95
5, 166320, Note_off_c, 6, 50, 95
5, 166320, Note_on_c, 6, 67, 95
5, 166320, Note_on_c, 6, 59, 95
5, 166320, Note_on_c, 6, 57, 95
5, 166320, Note_on_c, 6, 50, 95
5, 166800, Note_off_c, 6, 67, 95
5, 166800, Note_off_c, 6, 59, 95
5, 166800, Note_off_c, 6, 57, 95
5, 166800, Note_off_c, 6, 50, 95
5, 166800, Note_on_c, 6, 67, 95
5, 166800, Note_on_c, 6, 59, 95
5, 166800, Note_on_c, 6, 57, 95
5, 166800, Note_on_c, 6, 50, 95
5, 167040, Note_off_c, 6, 67, 95
5, 167040, Note_off_c, 6, 59, 95
5, 167040, Note_off_c, 6, 57, 95
5, 167040, Note_off_c, 6, 50, 95
5, 167040, Note_on_c, 6, 66, 95
5, 167040, Note_on_c, 6, 62, 95
5, 167040, Note_on_c, 6, 57, 95
5, 167040, Note_on_c, 6, 50, 95
5, 167520, Note_off_c, 6, 66, 95
5, 167520, Note_off_c, 6, 62, 95
5, 167520, Note_off_c, 6, 57, 95
5, 167520, Note_off_c, 6, 50, 95
5, 167520, Note_on_c, 6, 66, 95
5, 167520, Note_on_c, 6, 62, 95
5, 167520, Note_on_c, 6, 57, 95
5, 167520, Note_on_c, 6, 50, 95
5, 167760, Note_off_c, 6, 66, 95
5, 167760, Note_off_c, 6, 62, 95
5, 167760, Note_off_c, 6, 57, 95
5, 167760, Note_off_c, 6, 50, 95
5, 167760, Note_on_c, 6, 66, 95
5, 167760, Note_on_c, 6, 62, 95
5, 167760, Note_on_c, 6, 57, 95
5, 167760, Note_on_c, 6, 50, 95
5, 168240, Note_off_c, 6, 66, 95
5, 168240, Note_off_c, 6, 62, 95
5, 168240, Note_off_c, 6, 57, 95
5, 168240, Note_off_c, 6, 50, 95
5, 168240, Note_on_c, 6, 66, 95
5, 168240, Note_on_c, 6, 62, 95
5, 168240, Note_on_c, 6, 57, 95
5, 168240, Note_on_c, 6, 50, 95
5, 168480, Note_off_c, 6, 66, 95
5, 168480, Note_off_c, 6, 62, 95
5, 168480, Note_off_c, 6, 57, 95
5, 168480, Note_off_c, 6, 50, 95
5, 168480, Note_on_c, 6, 66, 95
5, 168480, Note_on_c, 6, 62, 95
5, 168480, Note_on_c, 6, 57, 95
5, 168480, Note_on_c, 6, 50, 95
5, 168960, Note_off_c, 6, 66, 95
5, 168960, Note_off_c, 6, 62, 95
5, 168960, Note_off_c, 6, 57, 95
5, 168960, Note_off_c, 6, 50, 95
5, 168960, Note_on_c, 6, 66, 95
5, 168960, Note_on_c, 6, 62, 95
5, 168960, Note_on_c, 6, 57, 95
5, 168960, Note_on_c, 6, 50, 95
5, 169200, Note_off_c, 6, 66, 95
5, 169200, Note_off_c, 6, 62, 95
5, 169200, Note_off_c, 6, 57, 95
5, 169200, Note_off_c, 6, 50, 95
5, 169200, Note_on_c, 6, 66, 95
5, 169200, Note_on_c, 6, 62, 95
5, 169200, Note_on_c, 6, 57, 95
5, 169200, Note_on_c, 6, 50, 95
5, 169680, Note_off_c, 6, 66, 95
5, 169680, Note_off_c, 6, 62, 95
5, 169680, Note_off_c, 6, 57, 95
5, 169680, Note_off_c, 6, 50, 95
5, 169680, Note_on_c, 6, 66, 95
5, 169680, Note_on_c, 6, 62, 95
5, 169680, Note_on_c, 6, 57, 95
5, 169680, Note_on_c, 6, 50, 95
5, 169920, Note_off_c, 6, 66, 95
5, 169920, Note_off_c, 6, 62, 95
5, 169920, Note_off_c, 6, 57, 95
5, 169920, Note_off_c, 6, 50, 95
5, 169920, Note_on_c, 6, 66, 95
5, 169920, Note_on_c, 6, 62, 95
5, 169920, Note_on_c, 6, 57, 95
5, 169920, Note_on_c, 6, 50, 95
5, 170400, Note_off_c, 6, 66, 95
5, 170400, Note_off_c, 6, 62, 95
5, 170400, Note_off_c, 6, 57, 95
5, 170400, Note_off_c, 6, 50, 95
5, 170400, Note_on_c, 6, 66, 95
5, 170400, Note_on_c, 6, 62, 95
5, 170400, Note_on_c, 6, 57, 95
5, 170400, Note_on_c, 6, 50, 95
5, 170640, Note_off_c, 6, 66, 95
5, 170640, Note_off_c, 6, 62, 95
5, 170640, Note_off_c, 6, 57, 95
5, 170640, Note_off_c, 6, 50, 95
5, 170640, Note_on_c, 6, 66, 95
5, 170640, Note_on_c, 6, 62, 95
5, 170640, Note_on_c, 6, 57, 95
5, 170640, Note_on_c, 6, 50, 95
5, 170880, Note_off_c, 6, 66, 95
5, 170880, Note_off_c, 6, 62, 95
5, 170880, Note_off_c, 6, 57, 95
5, 170880, Note_off_c, 6, 50, 95
5, 170880, Note_on_c, 6, 66, 95
5, 170880, Note_on_c, 6, 62, 95
5, 170880, Note_on_c, 6, 57, 95
5, 170880, Note_on_c, 6, 50, 95
5, 171120, Note_off_c, 6, 66, 95
5, 171120, Note_off_c, 6, 62, 95
5, 171120, Note_off_c, 6, 57, 95
5, 171120, Note_off_c, 6, 50, 95
5, 171120, Note_on_c, 6, 66, 95
5, 171120, Note_on_c, 6, 62, 95
5, 171120, Note_on_c, 6, 57, 95
5, 171120, Note_on_c, 6, 50, 95
5, 171360, Note_off_c, 6, 66, 95
5, 171360, Note_off_c, 6, 62, 95
5, 171360, Note_off_c, 6, 57, 95
5, 171360, Note_off_c, 6, 50, 95
5, 171360, Note_on_c, 6, 67, 95
5, 171360, Note_on_c, 6, 59, 95
5, 171360, Note_on_c, 6, 57, 95
5, 171360, Note_on_c, 6, 50, 95
5, 171600, Note_off_c, 6, 67, 95
5, 171600, Note_off_c, 6, 59, 95
5, 171600, Note_off_c, 6, 57, 95
5, 171600, Note_off_c, 6, 50, 95
5, 171600, Note_on_c, 6, 67, 95
5, 171600, Note_on_c, 6, 59, 95
5, 171600, Note_on_c, 6, 57, 95
5, 171600, Note_on_c, 6, 50, 95
5, 172080, Note_off_c, 6, 67, 95
5, 172080, Note_off_c, 6, 59, 95
5, 172080, Note_off_c, 6, 57, 95
5, 172080, Note_off_c, 6, 50, 95
5, 172080, Note_on_c, 6, 67, 95
5, 172080, Note_on_c, 6, 59, 95
5, 172080, Note_on_c, 6, 57, 95
5, 172080, Note_on_c, 6, 50, 95
5, 172560, Note_off_c, 6, 67, 95
5, 172560, Note_off_c, 6, 59, 95
5, 172560, Note_off_c, 6, 57, 95
5, 172560, Note_off_c, 6, 50, 95
5, 172560, Note_on_c, 6, 67, 95
5, 172560, Note_on_c, 6, 59, 95
5, 172560, Note_on_c, 6, 57, 95
5, 172560, Note_on_c, 6, 50, 95
5, 172800, Note_off_c, 6, 67, 95
5, 172800, Note_off_c, 6, 59, 95
5, 172800, Note_off_c, 6, 57, 95
5, 172800, Note_off_c, 6, 50, 95
5, 172800, Note_on_c, 6, 66, 95
5, 172800, Note_on_c, 6, 62, 95
5, 172800, Note_on_c, 6, 57, 95
5, 172800, Note_on_c, 6, 50, 95
5, 173280, Note_off_c, 6, 66, 95
5, 173280, Note_off_c, 6, 62, 95
5, 173280, Note_off_c, 6, 57, 95
5, 173280, Note_off_c, 6, 50, 95
5, 173280, Note_on_c, 6, 66, 95
5, 173280, Note_on_c, 6, 62, 95
5, 173280, Note_on_c, 6, 57, 95
5, 173280, Note_on_c, 6, 50, 95
5, 173520, Note_off_c, 6, 66, 95
5, 173520, Note_off_c, 6, 62, 95
5, 173520, Note_off_c, 6, 57, 95
5, 173520, Note_off_c, 6, 50, 95
5, 173520, Note_on_c, 6, 66, 95
5, 173520, Note_on_c, 6, 62, 95
5, 173520, Note_on_c, 6, 57, 95
5, 173520, Note_on_c, 6, 50, 95
5, 174000, Note_off_c, 6, 66, 95
5, 174000, Note_off_c, 6, 62, 95
5, 174000, Note_off_c, 6, 57, 95
5, 174000, Note_off_c, 6, 50, 95
5, 174000, Note_on_c, 6, 66, 95
5, 174000, Note_on_c, 6, 62, 95
5, 174000, Note_on_c, 6, 57, 95
5, 174000, Note_on_c, 6, 50, 95
5, 174240, Note_off_c, 6, 66, 95
5, 174240, Note_off_c, 6, 62, 95
5, 174240, Note_off_c, 6, 57, 95
5, 174240, Note_off_c, 6, 50, 95
5, 174240, Note_on_c, 6, 66, 95
5, 174240, Note_on_c, 6, 62, 95
5, 174240, Note_on_c, 6, 57, 95
5, 174240, Note_on_c, 6, 50, 95
5, 174720, Note_off_c, 6, 66, 95
5, 174720, Note_off_c, 6, 62, 95
5, 174720, Note_off_c, 6, 57, 95
5, 174720, Note_off_c, 6, 50, 95
5, 174720, Note_on_c, 6, 66, 95
5, 174720, Note_on_c, 6, 62, 95
5, 174720, Note_on_c, 6, 57, 95
5, 174720, Note_on_c, 6, 50, 95
5, 174960, Note_off_c, 6, 66, 95
5, 174960, Note_off_c, 6, 62, 95
5, 174960, Note_off_c, 6, 57, 95
5, 174960, Note_off_c, 6, 50, 95
5, 174960, Note_on_c, 6, 66, 95
5, 174960, Note_on_c, 6, 62, 95
5, 174960, Note_on_c, 6, 57, 95
5, 174960, Note_on_c, 6, 50, 95
5, 175440, Note_off_c, 6, 66, 95
5, 175440, Note_off_c, 6, 62, 95
5, 175440, Note_off_c, 6, 57, 95
5, 175440, Note_off_c, 6, 50, 95
5, 175440, Note_on_c, 6, 66, 95
5, 175440, Note_on_c, 6, 62, 95
5, 175440, Note_on_c, 6, 57, 95
5, 175440, Note_on_c, 6, 50, 95
5, 175680, Note_off_c, 6, 66, 95
5, 175680, Note_off_c, 6, 62, 95
5, 175680, Note_off_c, 6, 57, 95
5, 175680, Note_off_c, 6, 50, 95
5, 175680, Note_on_c, 6, 67, 95
5, 175680, Note_on_c, 6, 59, 95
5, 175680, Note_on_c, 6, 57, 95
5, 175680, Note_on_c, 6, 50, 95
5, 176160, Note_off_c, 6, 67, 95
5, 176160, Note_off_c, 6, 59, 95
5, 176160, Note_off_c, 6, 57, 95
5, 176160, Note_off_c, 6, 50, 95
5, 176160, Note_on_c, 6, 67, 95
5, 176160, Note_on_c, 6, 59, 95
5, 176160, Note_on_c, 6, 57, 95
5, 176160, Note_on_c, 6, 50, 95
5, 176400, Note_off_c, 6, 67, 95
5, 176400, Note_off_c, 6, 59, 95
5, 176400, Note_off_c, 6, 57, 95
5, 176400, Note_off_c, 6, 50, 95
5, 176400, Note_on_c, 6, 67, 95
5, 176400, Note_on_c, 6, 59, 95
5, 176400, Note_on_c, 6, 57, 95
5, 176400, Note_on_c, 6, 50, 95
5, 176640, Note_off_c, 6, 67, 95
5, 176640, Note_off_c, 6, 59, 95
5, 176640, Note_off_c, 6, 57, 95
5, 176640, Note_off_c, 6, 50, 95
5, 176640, Note_on_c, 6, 67, 95
5, 176640, Note_on_c, 6, 59, 95
5, 176640, Note_on_c, 6, 57, 95
5, 176640, Note_on_c, 6, 50, 95
5, 176880, Note_off_c, 6, 67, 95
5, 176880, Note_off_c, 6, 59, 95
5, 176880, Note_off_c, 6, 57, 95
5, 176880, Note_off_c, 6, 50, 95
5, 176880, Note_on_c, 6, 67, 95
5, 176880, Note_on_c, 6, 59, 95
5, 176880, Note_on_c, 6, 57, 95
5, 176880, Note_on_c, 6, 50, 95
5, 177120, Note_off_c, 6, 67, 95
5, 177120, Note_off_c, 6, 59, 95
5, 177120, Note_off_c, 6, 57, 95
5, 177120, Note_off_c, 6, 50, 95
5, 177120, Note_on_c, 6, 67, 95
5, 177120, Note_on_c, 6, 59, 95
5, 177120, Note_on_c, 6, 57, 95
5, 177120, Note_on_c, 6, 50, 95
5, 177360, Note_off_c, 6, 67, 95
5, 177360, Note_off_c, 6, 59, 95
5, 177360, Note_off_c, 6, 57, 95
5, 177360, Note_off_c, 6, 50, 95
5, 177360, Note_on_c, 6, 67, 95
5, 177360, Note_on_c, 6, 59, 95
5, 177360, Note_on_c, 6, 57, 95
5, 177360, Note_on_c, 6, 50, 95
5, 177600, Note_off_c, 6, 67, 95
5, 177600, Note_off_c, 6, 59, 95
5, 177600, Note_off_c, 6, 57, 95
5, 177600, Note_off_c, 6, 50, 95
5, 177600, Note_on_c, 6, 67, 95
5, 177600, Note_on_c, 6, 59, 95
5, 177600, Note_on_c, 6, 57, 95
5, 177600, Note_on_c, 6, 50, 95
5, 177840, Note_off_c, 6, 67, 95
5, 177840, Note_off_c, 6, 59, 95
5, 177840, Note_off_c, 6, 57, 95
5, 177840, Note_off_c, 6, 50, 95
5, 177840, Note_on_c, 6, 67, 95
5, 177840, Note_on_c, 6, 59, 95
5, 177840, Note_on_c, 6, 57, 95
5, 177840, Note_on_c, 6, 50, 95
5, 178080, Note_off_c, 6, 67, 95
5, 178080, Note_off_c, 6, 59, 95
5, 178080, Note_off_c, 6, 57, 95
5, 178080, Note_off_c, 6, 50, 95
5, 178080, Note_on_c, 6, 67, 95
5, 178080, Note_on_c, 6, 59, 95
5, 178080, Note_on_c, 6, 57, 95
5, 178080, Note_on_c, 6, 50, 95
5, 178320, Note_off_c, 6, 67, 95
5, 178320, Note_off_c, 6, 59, 95
5, 178320, Note_off_c, 6, 57, 95
5, 178320, Note_off_c, 6, 50, 95
5, 178320, Note_on_c, 6, 67, 95
5, 178320, Note_on_c, 6, 59, 95
5, 178320, Note_on_c, 6, 57, 95
5, 178320, Note_on_c, 6, 50, 95
5, 178560, Note_off_c, 6, 67, 95
5, 178560, Note_off_c, 6, 59, 95
5, 178560, Note_off_c, 6, 57, 95
5, 178560, Note_off_c, 6, 50, 95
5, 178560, Note_on_c, 6, 64, 95
5, 178560, Note_on_c, 6, 59, 95
5, 178560, Note_on_c, 6, 55, 95
5, 178560, Note_on_c, 6, 52, 95
5, 178560, Note_on_c, 6, 47, 95
5, 178560, Note_on_c, 6, 40, 95
5, 179040, Note_off_c, 6, 64, 95
5, 179040, Note_off_c, 6, 59, 95
5, 179040, Note_off_c, 6, 55, 95
5, 179040, Note_off_c, 6, 52, 95
5, 179040, Note_off_c, 6, 47, 95
5, 179040, Note_off_c, 6, 40, 95
5, 179040, Note_on_c, 6, 64, 95
5, 179040, Note_on_c, 6, 59, 95
5, 179040, Note_on_c, 6, 55, 95
5, 179040, Note_on_c, 6, 52, 95
5, 179040, Note_on_c, 6, 47, 95
5, 179040, Note_on_c, 6, 40, 95
5, 179280, Note_off_c, 6, 64, 95
5, 179280, Note_off_c, 6, 59, 95
5, 179280, Note_off_c, 6, 55, 95
5, 179280, Note_off_c, 6, 52, 95
5, 179280, Note_off_c, 6, 47, 95
5, 179280, Note_off_c, 6, 40, 95
5, 179280, Note_on_c, 6, 64, 95
5, 179280, Note_on_c, 6, 59, 95
5, 179280, Note_on_c, 6, 55, 95
5, 179280, Note_on_c, 6, 52, 95
5, 179280, Note_on_c, 6, 47, 95
5, 179280, Note_on_c, 6, 40, 95
5, 179520, Note_off_c, 6, 64, 95
5, 179520, Note_off_c, 6, 59, 95
5, 179520, Note_off_c, 6, 55, 95
5, 179520, Note_off_c, 6, 52, 95
5, 179520, Note_off_c, 6, 47, 95
5, 179520, Note_off_c, 6, 40, 95
5, 179520, Note_on_c, 6, 64, 95
5, 179520, Note_on_c, 6, 59, 95
5, 179520, Note_on_c, 6, 55, 95
5, 179520, Note_on_c, 6, 52, 95
5, 179520, Note_on_c, 6, 47, 95
5, 179520, Note_on_c, 6, 40, 95
5, 179760, Note_off_c, 6, 64, 95
5, 179760, Note_off_c, 6, 59, 95
5, 179760, Note_off_c, 6, 55, 95
5, 179760, Note_off_c, 6, 52, 95
5, 179760, Note_off_c, 6, 47, 95
5, 179760, Note_off_c, 6, 40, 95
5, 179760, Note_on_c, 6, 64, 95
5, 179760, Note_on_c, 6, 59, 95
5, 179760, Note_on_c, 6, 55, 95
5, 179760, Note_on_c, 6, 52, 95
5, 179760, Note_on_c, 6, 47, 95
5, 179760, Note_on_c, 6, 40, 95
5, 180000, Note_off_c, 6, 64, 95
5, 180000, Note_off_c, 6, 59, 95
5, 180000, Note_off_c, 6, 55, 95
5, 180000, Note_off_c, 6, 52, 95
5, 180000, Note_off_c, 6, 47, 95
5, 180000, Note_off_c, 6, 40, 95
5, 180000, Note_on_c, 6, 64, 95
5, 180000, Note_on_c, 6, 59, 95
5, 180000, Note_on_c, 6, 55, 95
5, 180000, Note_on_c, 6, 52, 95
5, 180000, Note_on_c, 6, 47, 95
5, 180000, Note_on_c, 6, 40, 95
5, 180480, Note_off_c, 6, 64, 95
5, 180480, Note_off_c, 6, 59, 95
5, 180480, Note_off_c, 6, 55, 95
5, 180480, Note_off_c, 6, 52, 95
5, 180480, Note_off_c, 6, 47, 95
5, 180480, Note_off_c, 6, 40, 95
5, 180480, Note_on_c, 6, 64, 111
5, 180480, Note_on_c, 6, 59, 111
5, 180480, Note_on_c, 6, 55, 111
5, 180480, Note_on_c, 6, 52, 111
5, 180480, Note_on_c, 6, 47, 111
5, 180480, Note_on_c, 6, 40, 111
5, 180720, Note_off_c, 6, 64, 111
5, 180720, Note_off_c, 6, 59, 111
5, 180720, Note_off_c, 6, 55, 111
5, 180720, Note_off_c, 6, 52, 111
5, 180720, Note_off_c, 6, 47, 111
5, 180720, Note_off_c, 6, 40, 111
5, 180720, Note_on_c, 6, 64, 95
5, 180720, Note_on_c, 6, 59, 95
5, 180720, Note_on_c, 6, 55, 95
5, 180720, Note_on_c, 6, 52, 95
5, 180720, Note_on_c, 6, 47, 95
5, 180720, Note_on_c, 6, 40, 95
5, 180960, Note_off_c, 6, 64, 95
5, 180960, Note_off_c, 6, 59, 95
5, 180960, Note_off_c, 6, 55, 95
5, 180960, Note_off_c, 6, 52, 95
5, 180960, Note_off_c, 6, 47, 95
5, 180960, Note_off_c, 6, 40, 95
5, 180960, Note_on_c, 6, 64, 95
5, 180960, Note_on_c, 6, 59, 95
5, 180960, Note_on_c, 6, 55, 95
5, 180960, Note_on_c, 6, 52, 95
5, 180960, Note_on_c, 6, 47, 95
5, 180960, Note_on_c, 6, 40, 95
5, 181200, Note_off_c, 6, 64, 95
5, 181200, Note_off_c, 6, 59, 95
5, 181200, Note_off_c, 6, 55, 95
5, 181200, Note_off_c, 6, 52, 95
5, 181200, Note_off_c, 6, 47, 95
5, 181200, Note_off_c, 6, 40, 95
5, 181200, Note_on_c, 6, 64, 95
5, 181200, Note_on_c, 6, 59, 95
5, 181200, Note_on_c, 6, 55, 95
5, 181200, Note_on_c, 6, 52, 95
5, 181200, Note_on_c, 6, 47, 95
5, 181200, Note_on_c, 6, 40, 95
5, 181440, Note_off_c, 6, 64, 95
5, 181440, Note_off_c, 6, 59, 95
5, 181440, Note_off_c, 6, 55, 95
5, 181440, Note_off_c, 6, 52, 95
5, 181440, Note_off_c, 6, 47, 95
5, 181440, Note_off_c, 6, 40, 95
5, 181440, Note_on_c, 6, 64, 95
5, 181440, Note_on_c, 6, 59, 95
5, 181440, Note_on_c, 6, 55, 95
5, 181440, Note_on_c, 6, 52, 95
5, 181440, Note_on_c, 6, 47, 95
5, 181440, Note_on_c, 6, 40, 95
5, 181920, Note_off_c, 6, 64, 95
5, 181920, Note_off_c, 6, 59, 95
5, 181920, Note_off_c, 6, 55, 95
5, 181920, Note_off_c, 6, 52, 95
5, 181920, Note_off_c, 6, 47, 95
5, 181920, Note_off_c, 6, 40, 95
5, 181920, Note_on_c, 6, 64, 95
5, 181920, Note_on_c, 6, 59, 95
5, 181920, Note_on_c, 6, 55, 95
5, 181920, Note_on_c, 6, 52, 95
5, 181920, Note_on_c, 6, 47, 95
5, 181920, Note_on_c, 6, 40, 95
5, 182160, Note_off_c, 6, 64, 95
5, 182160, Note_off_c, 6, 59, 95
5, 182160, Note_off_c, 6, 55, 95
5, 182160, Note_off_c, 6, 52, 95
5, 182160, Note_off_c, 6, 47, 95
5, 182160, Note_off_c, 6, 40, 95
5, 182160, Note_on_c, 6, 64, 95
5, 182160, Note_on_c, 6, 59, 95
5, 182160, Note_on_c, 6, 55, 95
5, 182160, Note_on_c, 6, 52, 95
5, 182160, Note_on_c, 6, 47, 95
5, 182160, Note_on_c, 6, 40, 95
5, 182400, Note_off_c, 6, 64, 95
5, 182400, Note_off_c, 6, 59, 95
5, 182400, Note_off_c, 6, 55, 95
5, 182400, Note_off_c, 6, 52, 95
5, 182400, Note_off_c, 6, 47, 95
5, 182400, Note_off_c, 6, 40, 95
5, 182400, Note_on_c, 6, 64, 95
5, 182400, Note_on_c, 6, 59, 95
5, 182400, Note_on_c, 6, 55, 95
5, 182400, Note_on_c, 6, 52, 95
5, 182400, Note_on_c, 6, 47, 95
5, 182400, Note_on_c, 6, 40, 95
5, 182640, Note_off_c, 6, 64, 95
5, 182640, Note_off_c, 6, 59, 95
5, 182640, Note_off_c, 6, 55, 95
5, 182640, Note_off_c, 6, 52, 95
5, 182640, Note_off_c, 6, 47, 95
5, 182640, Note_off_c, 6, 40, 95
5, 182640, Note_on_c, 6, 64, 95
5, 182640, Note_on_c, 6, 59, 95
5, 182640, Note_on_c, 6, 55, 95
5, 182640, Note_on_c, 6, 52, 95
5, 182640, Note_on_c, 6, 47, 95
5, 182640, Note_on_c, 6, 40, 95
5, 182880, Note_off_c, 6, 64, 95
5, 182880, Note_off_c, 6, 59, 95
5, 182880, Note_off_c, 6, 55, 95
5, 182880, Note_off_c, 6, 52, 95
5, 182880, Note_off_c, 6, 47, 95
5, 182880, Note_off_c, 6, 40, 95
5, 182880, Note_on_c, 6, 64, 95
5, 182880, Note_on_c, 6, 59, 95
5, 182880, Note_on_c, 6, 55, 95
5, 182880, Note_on_c, 6, 52, 95
5, 182880, Note_on_c, 6, 47, 95
5, 182880, Note_on_c, 6, 40, 95
5, 183360, Note_off_c, 6, 64, 95
5, 183360, Note_off_c, 6, 59, 95
5, 183360, Note_off_c, 6, 55, 95
5, 183360, Note_off_c, 6, 52, 95
5, 183360, Note_off_c, 6, 47, 95
5, 183360, Note_off_c, 6, 40, 95
5, 183360, Note_on_c, 6, 64, 111
5, 183360, Note_on_c, 6, 59, 111
5, 183360, Note_on_c, 6, 55, 111
5, 183360, Note_on_c, 6, 52, 111
5, 183360, Note_on_c, 6, 47, 111
5, 183360, Note_on_c, 6, 40, 111
5, 183600, Note_off_c, 6, 64, 111
5, 183600, Note_off_c, 6, 59, 111
5, 183600, Note_off_c, 6, 55, 111
5, 183600, Note_off_c, 6, 52, 111
5, 183600, Note_off_c, 6, 47, 111
5, 183600, Note_off_c, 6, 40, 111
5, 183600, Note_on_c, 6, 64, 95
5, 183600, Note_on_c, 6, 59, 95
5, 183600, Note_on_c, 6, 55, 95
5, 183600, Note_on_c, 6, 52, 95
5, 183600, Note_on_c, 6, 47, 95
5, 183600, Note_on_c, 6, 40, 95
5, 183840, Note_off_c, 6, 64, 95
5, 183840, Note_off_c, 6, 59, 95
5, 183840, Note_off_c, 6, 55, 95
5, 183840, Note_off_c, 6, 52, 95
5, 183840, Note_off_c, 6, 47, 95
5, 183840, Note_off_c, 6, 40, 95
5, 183840, Note_on_c, 6, 64, 95
5, 183840, Note_on_c, 6, 59, 95
5, 183840, Note_on_c, 6, 55, 95
5, 183840, Note_on_c, 6, 52, 95
5, 183840, Note_on_c, 6, 47, 95
5, 183840, Note_on_c, 6, 40, 95
5, 184080, Note_off_c, 6, 64, 95
5, 184080, Note_off_c, 6, 59, 95
5, 184080, Note_off_c, 6, 55, 95
5, 184080, Note_off_c, 6, 52, 95
5, 184080, Note_off_c, 6, 47, 95
5, 184080, Note_off_c, 6, 40, 95
5, 184080, Note_on_c, 6, 64, 95
5, 184080, Note_on_c, 6, 59, 95
5, 184080, Note_on_c, 6, 55, 95
5, 184080, Note_on_c, 6, 52, 95
5, 184080, Note_on_c, 6, 47, 95
5, 184080, Note_on_c, 6, 40, 95
5, 184320, Note_off_c, 6, 64, 95
5, 184320, Note_off_c, 6, 59, 95
5, 184320, Note_off_c, 6, 55, 95
5, 184320, Note_off_c, 6, 52, 95
5, 184320, Note_off_c, 6, 47, 95
5, 184320, Note_off_c, 6, 40, 95
5, 184320, Note_on_c, 6, 64, 95
5, 184320, Note_on_c, 6, 55, 95
5, 184320, Note_on_c, 6, 53, 95
5, 184320, Note_on_c, 6, 48, 95
5, 184320, Note_on_c, 6, 41, 95
5, 184800, Note_off_c, 6, 64, 95
5, 184800, Note_off_c, 6, 55, 95
5, 184800, Note_off_c, 6, 53, 95
5, 184800, Note_off_c, 6, 48, 95
5, 184800, Note_off_c, 6, 41, 95
5, 184800, Note_on_c, 6, 64, 95
5, 184800, Note_on_c, 6, 55, 95
5, 184800, Note_on_c, 6, 53, 95
5, 184800, Note_on_c, 6, 48, 95
5, 184800, Note_on_c, 6, 41, 95
5, 185040, Note_off_c, 6, 64, 95
5, 185040, Note_off_c, 6, 55, 95
5, 185040, Note_off_c, 6, 53, 95
5, 185040, Note_off_c, 6, 48, 95
5, 185040, Note_off_c, 6, 41, 95
5, 185040, Note_on_c, 6, 64, 95
5, 185040, Note_on_c, 6, 55, 95
5, 185040, Note_on_c, 6, 53, 95
5, 185040, Note_on_c, 6, 48, 95
5, 185040, Note_on_c, 6, 41, 95
5, 185280, Note_off_c, 6, 64, 95
5, 185280, Note_off_c, 6, 55, 95
5, 185280, Note_off_c, 6, 53, 95
5, 185280, Note_off_c, 6, 48, 95
5, 185280, Note_off_c, 6, 41, 95
5, 185280, Note_on_c, 6, 64, 95
5, 185280, Note_on_c, 6, 55, 95
5, 185280, Note_on_c, 6, 53, 95
5, 185280, Note_on_c, 6, 48, 95
5, 185280, Note_on_c, 6, 41, 95
5, 185520, Note_off_c, 6, 64, 95
5, 185520, Note_off_c, 6, 55, 95
5, 185520, Note_off_c, 6, 53, 95
5, 185520, Note_off_c, 6, 48, 95
5, 185520, Note_off_c, 6, 41, 95
5, 185520, Note_on_c, 6, 64, 95
5, 185520, Note_on_c, 6, 55, 95
5, 185520, Note_on_c, 6, 53, 95
5, 185520, Note_on_c, 6, 48, 95
5, 185520, Note_on_c, 6, 41, 95
5, 185760, Note_off_c, 6, 64, 95
5, 185760, Note_off_c, 6, 55, 95
5, 185760, Note_off_c, 6, 53, 95
5, 185760, Note_off_c, 6, 48, 95
5, 185760, Note_off_c, 6, 41, 95
5, 185760, Note_on_c, 6, 64, 95
5, 185760, Note_on_c, 6, 55, 95
5, 185760, Note_on_c, 6, 53, 95
5, 185760, Note_on_c, 6, 48, 95
5, 185760, Note_on_c, 6, 41, 95
5, 186240, Note_off_c, 6, 64, 95
5, 186240, Note_off_c, 6, 55, 95
5, 186240, Note_off_c, 6, 53, 95
5, 186240, Note_off_c, 6, 48, 95
5, 186240, Note_off_c, 6, 41, 95
5, 186240, Note_on_c, 6, 64, 111
5, 186240, Note_on_c, 6, 55, 111
5, 186240, Note_on_c, 6, 53, 111
5, 186240, Note_on_c, 6, 48, 111
5, 186240, Note_on_c, 6, 41, 111
5, 186480, Note_off_c, 6, 64, 111
5, 186480, Note_off_c, 6, 55, 111
5, 186480, Note_off_c, 6, 53, 111
5, 186480, Note_off_c, 6, 48, 111
5, 186480, Note_off_c, 6, 41, 111
5, 186480, Note_on_c, 6, 64, 95
5, 186480, Note_on_c, 6, 55, 95
5, 186480, Note_on_c, 6, 53, 95
5, 186480, Note_on_c, 6, 48, 95
5, 186480, Note_on_c, 6, 41, 95
5, 186720, Note_off_c, 6, 64, 95
5, 186720, Note_off_c, 6, 55, 95
5, 186720, Note_off_c, 6, 53, 95
5, 186720, Note_off_c, 6, 48, 95
5, 186720, Note_off_c, 6, 41, 95
5, 186720, Note_on_c, 6, 64, 95
5, 186720, Note_on_c, 6, 55, 95
5, 186720, Note_on_c, 6, 53, 95
5, 186720, Note_on_c, 6, 48, 95
5, 186720, Note_on_c, 6, 41, 95
5, 186960, Note_off_c, 6, 64, 95
5, 186960, Note_off_c, 6, 55, 95
5, 186960, Note_off_c, 6, 53, 95
5, 186960, Note_off_c, 6, 48, 95
5, 186960, Note_off_c, 6, 41, 95
5, 186960, Note_on_c, 6, 64, 95
5, 186960, Note_on_c, 6, 55, 95
5, 186960, Note_on_c, 6, 53, 95
5, 186960, Note_on_c, 6, 48, 95
5, 186960, Note_on_c, 6, 41, 95
5, 187200, Note_off_c, 6, 64, 95
5, 187200, Note_off_c, 6, 55, 95
5, 187200, Note_off_c, 6, 53, 95
5, 187200, Note_off_c, 6, 48, 95
5, 187200, Note_off_c, 6, 41, 95
5, 187200, Note_on_c, 6, 64, 95
5, 187200, Note_on_c, 6, 59, 95
5, 187200, Note_on_c, 6, 55, 95
5, 187200, Note_on_c, 6, 52, 95
5, 187200, Note_on_c, 6, 47, 95
5, 187200, Note_on_c, 6, 40, 95
5, 187680, Note_off_c, 6, 64, 95
5, 187680, Note_off_c, 6, 59, 95
5, 187680, Note_off_c, 6, 55, 95
5, 187680, Note_off_c, 6, 52, 95
5, 187680, Note_off_c, 6, 47, 95
5, 187680, Note_off_c, 6, 40, 95
5, 187680, Note_on_c, 6, 64, 95
5, 187680, Note_on_c, 6, 59, 95
5, 187680, Note_on_c, 6, 55, 95
5, 187680, Note_on_c, 6, 52, 95
5, 187680, Note_on_c, 6, 47, 95
5, 187680, Note_on_c, 6, 40, 95
5, 187920, Note_off_c, 6, 64, 95
5, 187920, Note_off_c, 6, 59, 95
5, 187920, Note_off_c, 6, 55, 95
5, 187920, Note_off_c, 6, 52, 95
5, 187920, Note_off_c, 6, 47, 95
5, 187920, Note_off_c, 6, 40, 95
5, 187920, Note_on_c, 6, 64, 95
5, 187920, Note_on_c, 6, 59, 95
5, 187920, Note_on_c, 6, 55, 95
5, 187920, Note_on_c, 6, 52, 95
5, 187920, Note_on_c, 6, 47, 95
5, 187920, Note_on_c, 6, 40, 95
5, 188160, Note_off_c, 6, 64, 95
5, 188160, Note_off_c, 6, 59, 95
5, 188160, Note_off_c, 6, 55, 95
5, 188160, Note_off_c, 6, 52, 95
5, 188160, Note_off_c, 6, 47, 95
5, 188160, Note_off_c, 6, 40, 95
5, 188160, Note_on_c, 6, 64, 95
5, 188160, Note_on_c, 6, 59, 95
5, 188160, Note_on_c, 6, 55, 95
5, 188160, Note_on_c, 6, 52, 95
5, 188160, Note_on_c, 6, 47, 95
5, 188160, Note_on_c, 6, 40, 95
5, 188400, Note_off_c, 6, 64, 95
5, 188400, Note_off_c, 6, 59, 95
5, 188400, Note_off_c, 6, 55, 95
5, 188400, Note_off_c, 6, 52, 95
5, 188400, Note_off_c, 6, 47, 95
5, 188400, Note_off_c, 6, 40, 95
5, 188400, Note_on_c, 6, 64, 95
5, 188400, Note_on_c, 6, 59, 95
5, 188400, Note_on_c, 6, 55, 95
5, 188400, Note_on_c, 6, 52, 95
5, 188400, Note_on_c, 6, 47, 95
5, 188400, Note_on_c, 6, 40, 95
5, 188640, Note_off_c, 6, 64, 95
5, 188640, Note_off_c, 6, 59, 95
5, 188640, Note_off_c, 6, 55, 95
5, 188640, Note_off_c, 6, 52, 95
5, 188640, Note_off_c, 6, 47, 95
5, 188640, Note_off_c, 6, 40, 95
5, 188640, Note_on_c, 6, 64, 95
5, 188640, Note_on_c, 6, 59, 95
5, 188640, Note_on_c, 6, 55, 95
5, 188640, Note_on_c, 6, 52, 95
5, 188640, Note_on_c, 6, 47, 95
5, 188640, Note_on_c, 6, 40, 95
5, 189120, Note_off_c, 6, 64, 95
5, 189120, Note_off_c, 6, 59, 95
5, 189120, Note_off_c, 6, 55, 95
5, 189120, Note_off_c, 6, 52, 95
5, 189120, Note_off_c, 6, 47, 95
5, 189120, Note_off_c, 6, 40, 95
5, 189120, Note_on_c, 6, 64, 111
5, 189120, Note_on_c, 6, 59, 111
5, 189120, Note_on_c, 6, 55, 111
5, 189120, Note_on_c, 6, 52, 111
5, 189120, Note_on_c, 6, 47, 111
5, 189120, Note_on_c, 6, 40, 111
5, 189360, Note_off_c, 6, 64, 111
5, 189360, Note_off_c, 6, 59, 111
5, 189360, Note_off_c, 6, 55, 111
5, 189360, Note_off_c, 6, 52, 111
5, 189360, Note_off_c, 6, 47, 111
5, 189360, Note_off_c, 6, 40, 111
5, 189360, Note_on_c, 6, 64, 95
5, 189360, Note_on_c, 6, 59, 95
5, 189360, Note_on_c, 6, 55, 95
5, 189360, Note_on_c, 6, 52, 95
5, 189360, Note_on_c, 6, 47, 95
5, 189360, Note_on_c, 6, 40, 95
5, 189600, Note_off_c, 6, 64, 95
5, 189600, Note_off_c, 6, 59, 95
5, 189600, Note_off_c, 6, 55, 95
5, 189600, Note_off_c, 6, 52, 95
5, 189600, Note_off_c, 6, 47, 95
5, 189600, Note_off_c, 6, 40, 95
5, 189600, Note_on_c, 6, 64, 95
5, 189600, Note_on_c, 6, 59, 95
5, 189600, Note_on_c, 6, 55, 95
5, 189600, Note_on_c, 6, 52, 95
5, 189600, Note_on_c, 6, 47, 95
5, 189600, Note_on_c, 6, 40, 95
5, 189840, Note_off_c, 6, 64, 95
5, 189840, Note_off_c, 6, 59, 95
5, 189840, Note_off_c, 6, 55, 95
5, 189840, Note_off_c, 6, 52, 95
5, 189840, Note_off_c, 6, 47, 95
5, 189840, Note_off_c, 6, 40, 95
5, 189840, Note_on_c, 6, 64, 95
5, 189840, Note_on_c, 6, 59, 95
5, 189840, Note_on_c, 6, 55, 95
5, 189840, Note_on_c, 6, 52, 95
5, 189840, Note_on_c, 6, 47, 95
5, 189840, Note_on_c, 6, 40, 95
5, 190080, Note_off_c, 6, 64, 95
5, 190080, Note_off_c, 6, 59, 95
5, 190080, Note_off_c, 6, 55, 95
5, 190080, Note_off_c, 6, 52, 95
5, 190080, Note_off_c, 6, 47, 95
5, 190080, Note_off_c, 6, 40, 95
5, 190080, Note_on_c, 6, 64, 95
5, 190080, Note_on_c, 6, 59, 95
5, 190080, Note_on_c, 6, 55, 95
5, 190080, Note_on_c, 6, 51, 95
5, 190080, Note_on_c, 6, 46, 95
5, 190080, Note_on_c, 6, 39, 95
5, 190560, Note_off_c, 6, 64, 95
5, 190560, Note_off_c, 6, 59, 95
5, 190560, Note_off_c, 6, 55, 95
5, 190560, Note_off_c, 6, 51, 95
5, 190560, Note_off_c, 6, 46, 95
5, 190560, Note_off_c, 6, 39, 95
5, 190560, Note_on_c, 6, 64, 95
5, 190560, Note_on_c, 6, 59, 95
5, 190560, Note_on_c, 6, 55, 95
5, 190560, Note_on_c, 6, 51, 95
5, 190560, Note_on_c, 6, 46, 95
5, 190560, Note_on_c, 6, 39, 95
5, 190800, Note_off_c, 6, 64, 95
5, 190800, Note_off_c, 6, 59, 95
5, 190800, Note_off_c, 6, 55, 95
5, 190800, Note_off_c, 6, 51, 95
5, 190800, Note_off_c, 6, 46, 95
5, 190800, Note_off_c, 6, 39, 95
5, 190800, Note_on_c, 6, 64, 95
5, 190800, Note_on_c, 6, 59, 95
5, 190800, Note_on_c, 6, 55, 95
5, 190800, Note_on_c, 6, 51, 95
5, 190800, Note_on_c, 6, 46, 95
5, 190800, Note_on_c, 6, 39, 95
5, 191040, Note_off_c, 6, 64, 95
5, 191040, Note_off_c, 6, 59, 95
5, 191040, Note_off_c, 6, 55, 95
5, 191040, Note_off_c, 6, 51, 95
5, 191040, Note_off_c, 6, 46, 95
5, 191040, Note_off_c, 6, 39, 95
5, 191040, Note_on_c, 6, 64, 95
5, 191040, Note_on_c, 6, 59, 95
5, 191040, Note_on_c, 6, 55, 95
5, 191040, Note_on_c, 6, 51, 95
5, 191040, Note_on_c, 6, 46, 95
5, 191040, Note_on_c, 6, 39, 95
5, 191280, Note_off_c, 6, 64, 95
5, 191280, Note_off_c, 6, 59, 95
5, 191280, Note_off_c, 6, 55, 95
5, 191280, Note_off_c, 6, 51, 95
5, 191280, Note_off_c, 6, 46, 95
5, 191280, Note_off_c, 6, 39, 95
5, 191280, Note_on_c, 6, 64, 95
5, 191280, Note_on_c, 6, 59, 95
5, 191280, Note_on_c, 6, 55, 95
5, 191280, Note_on_c, 6, 51, 95
5, 191280, Note_on_c, 6, 46, 95
5, 191280, Note_on_c, 6, 39, 95
5, 191520, Note_off_c, 6, 64, 95
5, 191520, Note_off_c, 6, 59, 95
5, 191520, Note_off_c, 6, 55, 95
5, 191520, Note_off_c, 6, 51, 95
5, 191520, Note_off_c, 6, 46, 95
5, 191520, Note_off_c, 6, 39, 95
5, 191520, Note_on_c, 6, 64, 95
5, 191520, Note_on_c, 6, 59, 95
5, 191520, Note_on_c, 6, 55, 95
5, 191520, Note_on_c, 6, 51, 95
5, 191520, Note_on_c, 6, 46, 95
5, 191520, Note_on_c, 6, 39, 95
5, 192000, Note_off_c, 6, 64, 95
5, 192000, Note_off_c, 6, 59, 95
5, 192000, Note_off_c, 6, 55, 95
5, 192000, Note_off_c, 6, 51, 95
5, 192000, Note_off_c, 6, 46, 95
5, 192000, Note_off_c, 6, 39, 95
5, 192000, Note_on_c, 6, 64, 111
5, 192000, Note_on_c, 6, 59, 111
5, 192000, Note_on_c, 6, 55, 111
5, 192000, Note_on_c, 6, 51, 111
5, 192000, Note_on_c, 6, 46, 111
5, 192000, Note_on_c, 6, 39, 111
5, 192240, Note_off_c, 6, 64, 111
5, 192240, Note_off_c, 6, 59, 111
5, 192240, Note_off_c, 6, 55, 111
5, 192240, Note_off_c, 6, 51, 111
5, 192240, Note_off_c, 6, 46, 111
5, 192240, Note_off_c, 6, 39, 111
5, 192240, Note_on_c, 6, 64, 95
5, 192240, Note_on_c, 6, 59, 95
5, 192240, Note_on_c, 6, 55, 95
5, 192240, Note_on_c, 6, 51, 95
5, 192240, Note_on_c, 6, 46, 95
5, 192240, Note_on_c, 6, 39, 95
5, 192480, Note_off_c, 6, 64, 95
5, 192480, Note_off_c, 6, 59, 95
5, 192480, Note_off_c, 6, 55, 95
5, 192480, Note_off_c, 6, 51, 95
5, 192480, Note_off_c, 6, 46, 95
5, 192480, Note_off_c, 6, 39, 95
5, 192480, Note_on_c, 6, 64, 95
5, 192480, Note_on_c, 6, 59, 95
5, 192480, Note_on_c, 6, 55, 95
5, 192480, Note_on_c, 6, 51, 95
5, 192480, Note_on_c, 6, 46, 95
5, 192480, Note_on_c, 6, 39, 95
5, 192720, Note_off_c, 6, 64, 95
5, 192720, Note_off_c, 6, 59, 95
5, 192720, Note_off_c, 6, 55, 95
5, 192720, Note_off_c, 6, 51, 95
5, 192720, Note_off_c, 6, 46, 95
5, 192720, Note_off_c, 6, 39, 95
5, 192720, Note_on_c, 6, 64, 95
5, 192720, Note_on_c, 6, 59, 95
5, 192720, Note_on_c, 6, 55, 95
5, 192720, Note_on_c, 6, 51, 95
5, 192720, Note_on_c, 6, 46, 95
5, 192720, Note_on_c, 6, 39, 95
5, 192960, Note_off_c, 6, 64, 95
5, 192960, Note_off_c, 6, 59, 95
5, 192960, Note_off_c, 6, 55, 95
5, 192960, Note_off_c, 6, 51, 95
5, 192960, Note_off_c, 6, 46, 95
5, 192960, Note_off_c, 6, 39, 95
5, 192960, Note_on_c, 6, 64, 95
5, 192960, Note_on_c, 6, 59, 95
5, 192960, Note_on_c, 6, 55, 95
5, 192960, Note_on_c, 6, 51, 95
5, 192960, Note_on_c, 6, 46, 95
5, 192960, Note_on_c, 6, 39, 95
5, 193440, Note_off_c, 6, 64, 95
5, 193440, Note_off_c, 6, 59, 95
5, 193440, Note_off_c, 6, 55, 95
5, 193440, Note_off_c, 6, 51, 95
5, 193440, Note_off_c, 6, 46, 95
5, 193440, Note_off_c, 6, 39, 95
5, 193440, Note_on_c, 6, 64, 95
5, 193440, Note_on_c, 6, 59, 95
5, 193440, Note_on_c, 6, 55, 95
5, 193440, Note_on_c, 6, 51, 95
5, 193440, Note_on_c, 6, 46, 95
5, 193440, Note_on_c, 6, 39, 95
5, 193680, Note_off_c, 6, 64, 95
5, 193680, Note_off_c, 6, 59, 95
5, 193680, Note_off_c, 6, 55, 95
5, 193680, Note_off_c, 6, 51, 95
5, 193680, Note_off_c, 6, 46, 95
5, 193680, Note_off_c, 6, 39, 95
5, 193680, Note_on_c, 6, 64, 95
5, 193680, Note_on_c, 6, 59, 95
5, 193680, Note_on_c, 6, 55, 95
5, 193680, Note_on_c, 6, 51, 95
5, 193680, Note_on_c, 6, 46, 95
5, 193680, Note_on_c, 6, 39, 95
5, 193920, Note_off_c, 6, 64, 95
5, 193920, Note_off_c, 6, 59, 95
5, 193920, Note_off_c, 6, 55, 95
5, 193920, Note_off_c, 6, 51, 95
5, 193920, Note_off_c, 6, 46, 95
5, 193920, Note_off_c, 6, 39, 95
5, 193920, Note_on_c, 6, 64, 95
5, 193920, Note_on_c, 6, 59, 95
5, 193920, Note_on_c, 6, 55, 95
5, 193920, Note_on_c, 6, 51, 95
5, 193920, Note_on_c, 6, 46, 95
5, 193920, Note_on_c, 6, 39, 95
5, 194160, Note_off_c, 6, 64, 95
5, 194160, Note_off_c, 6, 59, 95
5, 194160, Note_off_c, 6, 55, 95
5, 194160, Note_off_c, 6, 51, 95
5, 194160, Note_off_c, 6, 46, 95
5, 194160, Note_off_c, 6, 39, 95
5, 194160, Note_on_c, 6, 64, 95
5, 194160, Note_on_c, 6, 59, 95
5, 194160, Note_on_c, 6, 55, 95
5, 194160, Note_on_c, 6, 51, 95
5, 194160, Note_on_c, 6, 46, 95
5, 194160, Note_on_c, 6, 39, 95
5, 194400, Note_off_c, 6, 64, 95
5, 194400, Note_off_c, 6, 59, 95
5, 194400, Note_off_c, 6, 55, 95
5, 194400, Note_off_c, 6, 51, 95
5, 194400, Note_off_c, 6, 46, 95
5, 194400, Note_off_c, 6, 39, 95
5, 194400, Note_on_c, 6, 64, 95
5, 194400, Note_on_c, 6, 59, 95
5, 194400, Note_on_c, 6, 55, 95
5, 194400, Note_on_c, 6, 51, 95
5, 194400, Note_on_c, 6, 46, 95
5, 194400, Note_on_c, 6, 39, 95
5, 194880, Note_off_c, 6, 64, 95
5, 194880, Note_off_c, 6, 59, 95
5, 194880, Note_off_c, 6, 55, 95
5, 194880, Note_off_c, 6, 51, 95
5, 194880, Note_off_c, 6, 46, 95
5, 194880, Note_off_c, 6, 39, 95
5, 194880, Note_on_c, 6, 64, 111
5, 194880, Note_on_c, 6, 59, 111
5, 194880, Note_on_c, 6, 55, 111
5, 194880, Note_on_c, 6, 51, 111
5, 194880, Note_on_c, 6, 46, 111
5, 194880, Note_on_c, 6, 39, 111
5, 195120, Note_off_c, 6, 64, 111
5, 195120, Note_off_c, 6, 59, 111
5, 195120, Note_off_c, 6, 55, 111
5, 195120, Note_off_c, 6, 51, 111
5, 195120, Note_off_c, 6, 46, 111
5, 195120, Note_off_c, 6, 39, 111
5, 195120, Note_on_c, 6, 64, 95
5, 195120, Note_on_c, 6, 59, 95
5, 195120, Note_on_c, 6, 55, 95
5, 195120, Note_on_c, 6, 51, 95
5, 195120, Note_on_c, 6, 46, 95
5, 195120, Note_on_c, 6, 39, 95
5, 195360, Note_off_c, 6, 64, 95
5, 195360, Note_off_c, 6, 59, 95
5, 195360, Note_off_c, 6, 55, 95
5, 195360, Note_off_c, 6, 51, 95
5, 195360, Note_off_c, 6, 46, 95
5, 195360, Note_off_c, 6, 39, 95
5, 195360, Note_on_c, 6, 64, 95
5, 195360, Note_on_c, 6, 59, 95
5, 195360, Note_on_c, 6, 55, 95
5, 195360, Note_on_c, 6, 51, 95
5, 195360, Note_on_c, 6, 46, 95
5, 195360, Note_on_c, 6, 39, 95
5, 195600, Note_off_c, 6, 64, 95
5, 195600, Note_off_c, 6, 59, 95
5, 195600, Note_off_c, 6, 55, 95
5, 195600, Note_off_c, 6, 51, 95
5, 195600, Note_off_c, 6, 46, 95
5, 195600, Note_off_c, 6, 39, 95
5, 195600, Note_on_c, 6, 64, 95
5, 195600, Note_on_c, 6, 59, 95
5, 195600, Note_on_c, 6, 55, 95
5, 195600, Note_on_c, 6, 51, 95
5, 195600, Note_on_c, 6, 46, 95
5, 195600, Note_on_c, 6, 39, 95
5, 195840, Note_off_c, 6, 64, 95
5, 195840, Note_off_c, 6, 59, 95
5, 195840, Note_off_c, 6, 55, 95
5, 195840, Note_off_c, 6, 51, 95
5, 195840, Note_off_c, 6, 46, 95
5, 195840, Note_off_c, 6, 39, 95
5, 195840, Note_on_c, 6, 64, 95
5, 195840, Note_on_c, 6, 59, 95
5, 195840, Note_on_c, 6, 55, 95
5, 195840, Note_on_c, 6, 53, 95
5, 195840, Note_on_c, 6, 48, 95
5, 195840, Note_on_c, 6, 41, 95
5, 196320, Note_off_c, 6, 64, 95
5, 196320, Note_off_c, 6, 59, 95
5, 196320, Note_off_c, 6, 55, 95
5, 196320, Note_off_c, 6, 53, 95
5, 196320, Note_off_c, 6, 48, 95
5, 196320, Note_off_c, 6, 41, 95
5, 196320, Note_on_c, 6, 64, 95
5, 196320, Note_on_c, 6, 59, 95
5, 196320, Note_on_c, 6, 55, 95
5, 196320, Note_on_c, 6, 53, 95
5, 196320, Note_on_c, 6, 48, 95
5, 196320, Note_on_c, 6, 41, 95
5, 196560, Note_off_c, 6, 64, 95
5, 196560, Note_off_c, 6, 59, 95
5, 196560, Note_off_c, 6, 55, 95
5, 196560, Note_off_c, 6, 53, 95
5, 196560, Note_off_c, 6, 48, 95
5, 196560, Note_off_c, 6, 41, 95
5, 196560, Note_on_c, 6, 64, 95
5, 196560, Note_on_c, 6, 59, 95
5, 196560, Note_on_c, 6, 55, 95
5, 196560, Note_on_c, 6, 53, 95
5, 196560, Note_on_c, 6, 48, 95
5, 196560, Note_on_c, 6, 41, 95
5, 196800, Note_off_c, 6, 64, 95
5, 196800, Note_off_c, 6, 59, 95
5, 196800, Note_off_c, 6, 55, 95
5, 196800, Note_off_c, 6, 53, 95
5, 196800, Note_off_c, 6, 48, 95
5, 196800, Note_off_c, 6, 41, 95
5, 196800, Note_on_c, 6, 64, 95
5, 196800, Note_on_c, 6, 59, 95
5, 196800, Note_on_c, 6, 55, 95
5, 196800, Note_on_c, 6, 53, 95
5, 196800, Note_on_c, 6, 48, 95
5, 196800, Note_on_c, 6, 41, 95
5, 197040, Note_off_c, 6, 64, 95
5, 197040, Note_off_c, 6, 59, 95
5, 197040, Note_off_c, 6, 55, 95
5, 197040, Note_off_c, 6, 53, 95
5, 197040, Note_off_c, 6, 48, 95
5, 197040, Note_off_c, 6, 41, 95
5, 197040, Note_on_c, 6, 64, 95
5, 197040, Note_on_c, 6, 59, 95
5, 197040, Note_on_c, 6, 55, 95
5, 197040, Note_on_c, 6, 53, 95
5, 197040, Note_on_c, 6, 48, 95
5, 197040, Note_on_c, 6, 41, 95
5, 197280, Note_off_c, 6, 64, 95
5, 197280, Note_off_c, 6, 59, 95
5, 197280, Note_off_c, 6, 55, 95
5, 197280, Note_off_c, 6, 53, 95
5, 197280, Note_off_c, 6, 48, 95
5, 197280, Note_off_c, 6, 41, 95
5, 197280, Note_on_c, 6, 64, 95
5, 197280, Note_on_c, 6, 59, 95
5, 197280, Note_on_c, 6, 55, 95
5, 197280, Note_on_c, 6, 53, 95
5, 197280, Note_on_c, 6, 48, 95
5, 197280, Note_on_c, 6, 41, 95
5, 197760, Note_off_c, 6, 64, 95
5, 197760, Note_off_c, 6, 59, 95
5, 197760, Note_off_c, 6, 55, 95
5, 197760, Note_off_c, 6, 53, 95
5, 197760, Note_off_c, 6, 48, 95
5, 197760, Note_off_c, 6, 41, 95
5, 197760, Note_on_c, 6, 64, 111
5, 197760, Note_on_c, 6, 59, 95
5, 197760, Note_on_c, 6, 55, 111
5, 197760, Note_on_c, 6, 53, 111
5, 197760, Note_on_c, 6, 48, 111
5, 197760, Note_on_c, 6, 41, 111
5, 198000, Note_off_c, 6, 64, 111
5, 198000, Note_off_c, 6, 59, 95
5, 198000, Note_off_c, 6, 55, 111
5, 198000, Note_off_c, 6, 53, 111
5, 198000, Note_off_c, 6, 48, 111
5, 198000, Note_off_c, 6, 41, 111
5, 198000, Note_on_c, 6, 64, 95
5, 198000, Note_on_c, 6, 59, 95
5, 198000, Note_on_c, 6, 55, 95
5, 198000, Note_on_c, 6, 53, 95
5, 198000, Note_on_c, 6, 48, 95
5, 198000, Note_on_c, 6, 41, 95
5, 198240, Note_off_c, 6, 64, 95
5, 198240, Note_off_c, 6, 59, 95
5, 198240, Note_off_c, 6, 55, 95
5, 198240, Note_off_c, 6, 53, 95
5, 198240, Note_off_c, 6, 48, 95
5, 198240, Note_off_c, 6, 41, 95
5, 198240, Note_on_c, 6, 64, 95
5, 198240, Note_on_c, 6, 59, 95
5, 198240, Note_on_c, 6, 55, 95
5, 198240, Note_on_c, 6, 53, 95
5, 198240, Note_on_c, 6, 48, 95
5, 198240, Note_on_c, 6, 41, 95
5, 198480, Note_off_c, 6, 64, 95
5, 198480, Note_off_c, 6, 59, 95
5, 198480, Note_off_c, 6, 55, 95
5, 198480, Note_off_c, 6, 53, 95
5, 198480, Note_off_c, 6, 48, 95
5, 198480, Note_off_c, 6, 41, 95
5, 198480, Note_on_c, 6, 64, 95
5, 198480, Note_on_c, 6, 59, 95
5, 198480, Note_on_c, 6, 55, 95
5, 198480, Note_on_c, 6, 53, 95
5, 198480, Note_on_c, 6, 48, 95
5, 198480, Note_on_c, 6, 41, 95
5, 198720, Note_off_c, 6, 64, 95
5, 198720, Note_off_c, 6, 59, 95
5, 198720, Note_off_c, 6, 55, 95
5, 198720, Note_off_c, 6, 53, 95
5, 198720, Note_off_c, 6, 48, 95
5, 198720, Note_off_c, 6, 41, 95
5, 198720, Note_on_c, 6, 64, 95
5, 198720, Note_on_c, 6, 59, 95
5, 198720, Note_on_c, 6, 55, 95
5, 198720, Note_on_c, 6, 52, 95
5, 198720, Note_on_c, 6, 47, 95
5, 198720, Note_on_c, 6, 40, 95
5, 199200, Note_off_c, 6, 64, 95
5, 199200, Note_off_c, 6, 59, 95
5, 199200, Note_off_c, 6, 55, 95
5, 199200, Note_off_c, 6, 52, 95
5, 199200, Note_off_c, 6, 47, 95
5, 199200, Note_off_c, 6, 40, 95
5, 199200, Note_on_c, 6, 64, 95
5, 199200, Note_on_c, 6, 59, 95
5, 199200, Note_on_c, 6, 55, 95
5, 199200, Note_on_c, 6, 52, 95
5, 199200, Note_on_c, 6, 47, 95
5, 199200, Note_on_c, 6, 40, 95
5, 199440, Note_off_c, 6, 64, 95
5, 199440, Note_off_c, 6, 59, 95
5, 199440, Note_off_c, 6, 55, 95
5, 199440, Note_off_c, 6, 52, 95
5, 199440, Note_off_c, 6, 47, 95
5, 199440, Note_off_c, 6, 40, 95
5, 199440, Note_on_c, 6, 64, 95
5, 199440, Note_on_c, 6, 59, 95
5, 199440, Note_on_c, 6, 55, 95
5, 199440, Note_on_c, 6, 52, 95
5, 199440, Note_on_c, 6, 47, 95
5, 199440, Note_on_c, 6, 40, 95
5, 199680, Note_off_c, 6, 64, 95
5, 199680, Note_off_c, 6, 59, 95
5, 199680, Note_off_c, 6, 55, 95
5, 199680, Note_off_c, 6, 52, 95
5, 199680, Note_off_c, 6, 47, 95
5, 199680, Note_off_c, 6, 40, 95
5, 199680, Note_on_c, 6, 64, 95
5, 199680, Note_on_c, 6, 59, 95
5, 199680, Note_on_c, 6, 55, 95
5, 199680, Note_on_c, 6, 52, 95
5, 199680, Note_on_c, 6, 47, 95
5, 199680, Note_on_c, 6, 40, 95
5, 199920, Note_off_c, 6, 64, 95
5, 199920, Note_off_c, 6, 59, 95
5, 199920, Note_off_c, 6, 55, 95
5, 199920, Note_off_c, 6, 52, 95
5, 199920, Note_off_c, 6, 47, 95
5, 199920, Note_off_c, 6, 40, 95
5, 199920, Note_on_c, 6, 64, 95
5, 199920, Note_on_c, 6, 59, 95
5, 199920, Note_on_c, 6, 55, 95
5, 199920, Note_on_c, 6, 52, 95
5, 199920, Note_on_c, 6, 47, 95
5, 199920, Note_on_c, 6, 40, 95
5, 200160, Note_off_c, 6, 64, 95
5, 200160, Note_off_c, 6, 59, 95
5, 200160, Note_off_c, 6, 55, 95
5, 200160, Note_off_c, 6, 52, 95
5, 200160, Note_off_c, 6, 47, 95
5, 200160, Note_off_c, 6, 40, 95
5, 200160, Note_on_c, 6, 64, 95
5, 200160, Note_on_c, 6, 59, 95
5, 200160, Note_on_c, 6, 55, 95
5, 200160, Note_on_c, 6, 52, 95
5, 200160, Note_on_c, 6, 47, 95
5, 200160, Note_on_c, 6, 40, 95
5, 200640, Note_off_c, 6, 64, 95
5, 200640, Note_off_c, 6, 59, 95
5, 200640, Note_off_c, 6, 55, 95
5, 200640, Note_off_c, 6, 52, 95
5, 200640, Note_off_c, 6, 47, 95
5, 200640, Note_off_c, 6, 40, 95
5, 200640, Note_on_c, 6, 64, 111
5, 200640, Note_on_c, 6, 59, 111
5, 200640, Note_on_c, 6, 55, 111
5, 200640, Note_on_c, 6, 52, 111
5, 200640, Note_on_c, 6, 47, 111
5, 200640, Note_on_c, 6, 40, 111
5, 200880, Note_off_c, 6, 64, 111
5, 200880, Note_off_c, 6, 59, 111
5, 200880, Note_off_c, 6, 55, 111
5, 200880, Note_off_c, 6, 52, 111
5, 200880, Note_off_c, 6, 47, 111
5, 200880, Note_off_c, 6, 40, 111
5, 200880, Note_on_c, 6, 64, 95
5, 200880, Note_on_c, 6, 59, 95
5, 200880, Note_on_c, 6, 55, 95
5, 200880, Note_on_c, 6, 52, 95
5, 200880, Note_on_c, 6, 47, 95
5, 200880, Note_on_c, 6, 40, 95
5, 201120, Note_off_c, 6, 64, 95
5, 201120, Note_off_c, 6, 59, 95
5, 201120, Note_off_c, 6, 55, 95
5, 201120, Note_off_c, 6, 52, 95
5, 201120, Note_off_c, 6, 47, 95
5, 201120, Note_off_c, 6, 40, 95
5, 201120, Note_on_c, 6, 64, 95
5, 201120, Note_on_c, 6, 59, 95
5, 201120, Note_on_c, 6, 55, 95
5, 201120, Note_on_c, 6, 52, 95
5, 201120, Note_on_c, 6, 47, 95
5, 201120, Note_on_c, 6, 40, 95
5, 201360, Note_off_c, 6, 64, 95
5, 201360, Note_off_c, 6, 59, 95
5, 201360, Note_off_c, 6, 55, 95
5, 201360, Note_off_c, 6, 52, 95
5, 201360, Note_off_c, 6, 47, 95
5, 201360, Note_off_c, 6, 40, 95
5, 201360, Note_on_c, 6, 64, 95
5, 201360, Note_on_c, 6, 59, 95
5, 201360, Note_on_c, 6, 55, 95
5, 201360, Note_on_c, 6, 52, 95
5, 201360, Note_on_c, 6, 47, 95
5, 201360, Note_on_c, 6, 40, 95
5, 201600, Note_off_c, 6, 64, 95
5, 201600, Note_off_c, 6, 59, 95
5, 201600, Note_off_c, 6, 55, 95
5, 201600, Note_off_c, 6, 52, 95
5, 201600, Note_off_c, 6, 47, 95
5, 201600, Note_off_c, 6, 40, 95
5, 201600, Note_on_c, 6, 64, 95
5, 201600, Note_on_c, 6, 59, 95
5, 201600, Note_on_c, 6, 55, 95
5, 201600, Note_on_c, 6, 51, 95
5, 201600, Note_on_c, 6, 46, 95
5, 201600, Note_on_c, 6, 39, 95
5, 202080, Note_off_c, 6, 64, 95
5, 202080, Note_off_c, 6, 59, 95
5, 202080, Note_off_c, 6, 55, 95
5, 202080, Note_off_c, 6, 51, 95
5, 202080, Note_off_c, 6, 46, 95
5, 202080, Note_off_c, 6, 39, 95
5, 202080, Note_on_c, 6, 64, 95
5, 202080, Note_on_c, 6, 59, 95
5, 202080, Note_on_c, 6, 55, 95
5, 202080, Note_on_c, 6, 51, 95
5, 202080, Note_on_c, 6, 46, 95
5, 202080, Note_on_c, 6, 39, 95
5, 202320, Note_off_c, 6, 64, 95
5, 202320, Note_off_c, 6, 59, 95
5, 202320, Note_off_c, 6, 55, 95
5, 202320, Note_off_c, 6, 51, 95
5, 202320, Note_off_c, 6, 46, 95
5, 202320, Note_off_c, 6, 39, 95
5, 202320, Note_on_c, 6, 64, 95
5, 202320, Note_on_c, 6, 59, 95
5, 202320, Note_on_c, 6, 55, 95
5, 202320, Note_on_c, 6, 51, 95
5, 202320, Note_on_c, 6, 46, 95
5, 202320, Note_on_c, 6, 39, 95
5, 202560, Note_off_c, 6, 64, 95
5, 202560, Note_off_c, 6, 59, 95
5, 202560, Note_off_c, 6, 55, 95
5, 202560, Note_off_c, 6, 51, 95
5, 202560, Note_off_c, 6, 46, 95
5, 202560, Note_off_c, 6, 39, 95
5, 202560, Note_on_c, 6, 64, 95
5, 202560, Note_on_c, 6, 59, 95
5, 202560, Note_on_c, 6, 55, 95
5, 202560, Note_on_c, 6, 51, 95
5, 202560, Note_on_c, 6, 46, 95
5, 202560, Note_on_c, 6, 39, 95
5, 202800, Note_off_c, 6, 64, 95
5, 202800, Note_off_c, 6, 59, 95
5, 202800, Note_off_c, 6, 55, 95
5, 202800, Note_off_c, 6, 51, 95
5, 202800, Note_off_c, 6, 46, 95
5, 202800, Note_off_c, 6, 39, 95
5, 202800, Note_on_c, 6, 64, 95
5, 202800, Note_on_c, 6, 59, 95
5, 202800, Note_on_c, 6, 55, 95
5, 202800, Note_on_c, 6, 51, 95
5, 202800, Note_on_c, 6, 46, 95
5, 202800, Note_on_c, 6, 39, 95
5, 203040, Note_off_c, 6, 64, 95
5, 203040, Note_off_c, 6, 59, 95
5, 203040, Note_off_c, 6, 55, 95
5, 203040, Note_off_c, 6, 51, 95
5, 203040, Note_off_c, 6, 46, 95
5, 203040, Note_off_c, 6, 39, 95
5, 203040, Note_on_c, 6, 64, 95
5, 203040, Note_on_c, 6, 59, 95
5, 203040, Note_on_c, 6, 55, 95
5, 203040, Note_on_c, 6, 51, 95
5, 203040, Note_on_c, 6, 46, 95
5, 203040, Note_on_c, 6, 39, 95
5, 203520, Note_off_c, 6, 64, 95
5, 203520, Note_off_c, 6, 59, 95
5, 203520, Note_off_c, 6, 55, 95
5, 203520, Note_off_c, 6, 51, 95
5, 203520, Note_off_c, 6, 46, 95
5, 203520, Note_off_c, 6, 39, 95
5, 203520, Note_on_c, 6, 64, 111
5, 203520, Note_on_c, 6, 59, 111
5, 203520, Note_on_c, 6, 55, 111
5, 203520, Note_on_c, 6, 51, 111
5, 203520, Note_on_c, 6, 46, 111
5, 203520, Note_on_c, 6, 39, 111
5, 203760, Note_off_c, 6, 64, 111
5, 203760, Note_off_c, 6, 59, 111
5, 203760, Note_off_c, 6, 55, 111
5, 203760, Note_off_c, 6, 51, 111
5, 203760, Note_off_c, 6, 46, 111
5, 203760, Note_off_c, 6, 39, 111
5, 203760, Note_on_c, 6, 64, 95
5, 203760, Note_on_c, 6, 59, 95
5, 203760, Note_on_c, 6, 55, 95
5, 203760, Note_on_c, 6, 51, 95
5, 203760, Note_on_c, 6, 46, 95
5, 203760, Note_on_c, 6, 39, 95
5, 204000, Note_off_c, 6, 64, 95
5, 204000, Note_off_c, 6, 59, 95
5, 204000, Note_off_c, 6, 55, 95
5, 204000, Note_off_c, 6, 51, 95
5, 204000, Note_off_c, 6, 46, 95
5, 204000, Note_off_c, 6, 39, 95
5, 204000, Note_on_c, 6, 64, 95
5, 204000, Note_on_c, 6, 59, 95
5, 204000, Note_on_c, 6, 55, 95
5, 204000, Note_on_c, 6, 51, 95
5, 204000, Note_on_c, 6, 46, 95
5, 204000, Note_on_c, 6, 39, 95
5, 204240, Note_off_c, 6, 64, 95
5, 204240, Note_off_c, 6, 59, 95
5, 204240, Note_off_c, 6, 55, 95
5, 204240, Note_off_c, 6, 51, 95
5, 204240, Note_off_c, 6, 46, 95
5, 204240, Note_off_c, 6, 39, 95
5, 204240, Note_on_c, 6, 64, 95
5, 204240, Note_on_c, 6, 59, 95
5, 204240, Note_on_c, 6, 55, 95
5, 204240, Note_on_c, 6, 51, 95
5, 204240, Note_on_c, 6, 46, 95
5, 204240, Note_on_c, 6, 39, 95
5, 204480, Note_off_c, 6, 64, 95
5, 204480, Note_off_c, 6, 59, 95
5, 204480, Note_off_c, 6, 55, 95
5, 204480, Note_off_c, 6, 51, 95
5, 204480, Note_off_c, 6, 46, 95
5, 204480, Note_off_c, 6, 39, 95
5, 204480, Note_on_c, 6, 64, 95
5, 204480, Note_on_c, 6, 59, 95
5, 204480, Note_on_c, 6, 55, 95
5, 204480, Note_on_c, 6, 51, 95
5, 204480, Note_on_c, 6, 46, 95
5, 204480, Note_on_c, 6, 39, 95
5, 204960, Note_off_c, 6, 64, 95
5, 204960, Note_off_c, 6, 59, 95
5, 204960, Note_off_c, 6, 55, 95
5, 204960, Note_off_c, 6, 51, 95
5, 204960, Note_off_c, 6, 46, 95
5, 204960, Note_off_c, 6, 39, 95
5, 204960, Note_on_c, 6, 64, 95
5, 204960, Note_on_c, 6, 59, 95
5, 204960, Note_on_c, 6, 55, 95
5, 204960, Note_on_c, 6, 51, 95
5, 204960, Note_on_c, 6, 46, 95
5, 204960, Note_on_c, 6, 39, 95
5, 205200, Note_off_c, 6, 64, 95
5, 205200, Note_off_c, 6, 59, 95
5, 205200, Note_off_c, 6, 55, 95
5, 205200, Note_off_c, 6, 51, 95
5, 205200, Note_off_c, 6, 46, 95
5, 205200, Note_off_c, 6, 39, 95
5, 205200, Note_on_c, 6, 64, 95
5, 205200, Note_on_c, 6, 59, 95
5, 205200, Note_on_c, 6, 55, 95
5, 205200, Note_on_c, 6, 51, 95
5, 205200, Note_on_c, 6, 46, 95
5, 205200, Note_on_c, 6, 39, 95
5, 205440, Note_off_c, 6, 64, 95
5, 205440, Note_off_c, 6, 59, 95
5, 205440, Note_off_c, 6, 55, 95
5, 205440, Note_off_c, 6, 51, 95
5, 205440, Note_off_c, 6, 46, 95
5, 205440, Note_off_c, 6, 39, 95
5, 205440, Note_on_c, 6, 64, 95
5, 205440, Note_on_c, 6, 59, 95
5, 205440, Note_on_c, 6, 55, 95
5, 205440, Note_on_c, 6, 51, 95
5, 205440, Note_on_c, 6, 46, 95
5, 205440, Note_on_c, 6, 39, 95
5, 205680, Note_off_c, 6, 64, 95
5, 205680, Note_off_c, 6, 59, 95
5, 205680, Note_off_c, 6, 55, 95
5, 205680, Note_off_c, 6, 51, 95
5, 205680, Note_off_c, 6, 46, 95
5, 205680, Note_off_c, 6, 39, 95
5, 205680, Note_on_c, 6, 64, 95
5, 205680, Note_on_c, 6, 59, 95
5, 205680, Note_on_c, 6, 55, 95
5, 205680, Note_on_c, 6, 51, 95
5, 205680, Note_on_c, 6, 46, 95
5, 205680, Note_on_c, 6, 39, 95
5, 205920, Note_off_c, 6, 64, 95
5, 205920, Note_off_c, 6, 59, 95
5, 205920, Note_off_c, 6, 55, 95
5, 205920, Note_off_c, 6, 51, 95
5, 205920, Note_off_c, 6, 46, 95
5, 205920, Note_off_c, 6, 39, 95
5, 205920, Note_on_c, 6, 64, 95
5, 205920, Note_on_c, 6, 59, 95
5, 205920, Note_on_c, 6, 55, 95
5, 205920, Note_on_c, 6, 51, 95
5, 205920, Note_on_c, 6, 46, 95
5, 205920, Note_on_c, 6, 39, 95
5, 206400, Note_off_c, 6, 64, 95
5, 206400, Note_off_c, 6, 59, 95
5, 206400, Note_off_c, 6, 55, 95
5, 206400, Note_off_c, 6, 51, 95
5, 206400, Note_off_c, 6, 46, 95
5, 206400, Note_off_c, 6, 39, 95
5, 206400, Note_on_c, 6, 64, 111
5, 206400, Note_on_c, 6, 59, 111
5, 206400, Note_on_c, 6, 55, 111
5, 206400, Note_on_c, 6, 51, 111
5, 206400, Note_on_c, 6, 46, 111
5, 206400, Note_on_c, 6, 39, 111
5, 206640, Note_off_c, 6, 64, 111
5, 206640, Note_off_c, 6, 59, 111
5, 206640, Note_off_c, 6, 55, 111
5, 206640, Note_off_c, 6, 51, 111
5, 206640, Note_off_c, 6, 46, 111
5, 206640, Note_off_c, 6, 39, 111
5, 206640, Note_on_c, 6, 64, 95
5, 206640, Note_on_c, 6, 59, 95
5, 206640, Note_on_c, 6, 55, 95
5, 206640, Note_on_c, 6, 51, 95
5, 206640, Note_on_c, 6, 46, 95
5, 206640, Note_on_c, 6, 39, 95
5, 206880, Note_off_c, 6, 64, 95
5, 206880, Note_off_c, 6, 59, 95
5, 206880, Note_off_c, 6, 55, 95
5, 206880, Note_off_c, 6, 51, 95
5, 206880, Note_off_c, 6, 46, 95
5, 206880, Note_off_c, 6, 39, 95
5, 206880, Note_on_c, 6, 64, 95
5, 206880, Note_on_c, 6, 59, 95
5, 206880, Note_on_c, 6, 55, 95
5, 206880, Note_on_c, 6, 51, 95
5, 206880, Note_on_c, 6, 46, 95
5, 206880, Note_on_c, 6, 39, 95
5, 207120, Note_off_c, 6, 64, 95
5, 207120, Note_off_c, 6, 59, 95
5, 207120, Note_off_c, 6, 55, 95
5, 207120, Note_off_c, 6, 51, 95
5, 207120, Note_off_c, 6, 46, 95
5, 207120, Note_off_c, 6, 39, 95
5, 207120, Note_on_c, 6, 64, 95
5, 207120, Note_on_c, 6, 59, 95
5, 207120, Note_on_c, 6, 55, 95
5, 207120, Note_on_c, 6, 51, 95
5, 207120, Note_on_c, 6, 46, 95
5, 207120, Note_on_c, 6, 39, 95
5, 207360, Note_off_c, 6, 64, 95
5, 207360, Note_off_c, 6, 59, 95
5, 207360, Note_off_c, 6, 55, 95
5, 207360, Note_off_c, 6, 51, 95
5, 207360, Note_off_c, 6, 46, 95
5, 207360, Note_off_c, 6, 39, 95
5, 207360, Note_on_c, 6, 64, 95
5, 207360, Note_on_c, 6, 59, 95
5, 207360, Note_on_c, 6, 55, 95
5, 207360, Note_on_c, 6, 52, 95
5, 207360, Note_on_c, 6, 47, 95
5, 207360, Note_on_c, 6, 40, 95
5, 207840, Note_off_c, 6, 64, 95
5, 207840, Note_off_c, 6, 59, 95
5, 207840, Note_off_c, 6, 55, 95
5, 207840, Note_off_c, 6, 52, 95
5, 207840, Note_off_c, 6, 47, 95
5, 207840, Note_off_c, 6, 40, 95
5, 207840, Note_on_c, 6, 64, 95
5, 207840, Note_on_c, 6, 59, 95
5, 207840, Note_on_c, 6, 55, 95
5, 207840, Note_on_c, 6, 52, 95
5, 207840, Note_on_c, 6, 47, 95
5, 207840, Note_on_c, 6, 40, 95
5, 208080, Note_off_c, 6, 64, 95
5, 208080, Note_off_c, 6, 59, 95
5, 208080, Note_off_c, 6, 55, 95
5, 208080, Note_off_c, 6, 52, 95
5, 208080, Note_off_c, 6, 47, 95
5, 208080, Note_off_c, 6, 40, 95
5, 208080, Note_on_c, 6, 64, 95
5, 208080, Note_on_c, 6, 59, 95
5, 208080, Note_on_c, 6, 55, 95
5, 208080, Note_on_c, 6, 52, 95
5, 208080, Note_on_c, 6, 47, 95
5, 208080, Note_on_c, 6, 40, 95
5, 208320, Note_off_c, 6, 64, 95
5, 208320, Note_off_c, 6, 59, 95
5, 208320, Note_off_c, 6, 55, 95
5, 208320, Note_off_c, 6, 52, 95
5, 208320, Note_off_c, 6, 47, 95
5, 208320, Note_off_c, 6, 40, 95
5, 208320, Note_on_c, 6, 64, 95
5, 208320, Note_on_c, 6, 59, 95
5, 208320, Note_on_c, 6, 55, 95
5, 208320, Note_on_c, 6, 52, 95
5, 208320, Note_on_c, 6, 47, 95
5, 208320, Note_on_c, 6, 40, 95
5, 208560, Note_off_c, 6, 64, 95
5, 208560, Note_off_c, 6, 59, 95
5, 208560, Note_off_c, 6, 55, 95
5, 208560, Note_off_c, 6, 52, 95
5, 208560, Note_off_c, 6, 47, 95
5, 208560, Note_off_c, 6, 40, 95
5, 208560, Note_on_c, 6, 64, 95
5, 208560, Note_on_c, 6, 59, 95
5, 208560, Note_on_c, 6, 55, 95
5, 208560, Note_on_c, 6, 52, 95
5, 208560, Note_on_c, 6, 47, 95
5, 208560, Note_on_c, 6, 40, 95
5, 208800, Note_off_c, 6, 64, 95
5, 208800, Note_off_c, 6, 59, 95
5, 208800, Note_off_c, 6, 55, 95
5, 208800, Note_off_c, 6, 52, 95
5, 208800, Note_off_c, 6, 47, 95
5, 208800, Note_off_c, 6, 40, 95
5, 208800, Note_on_c, 6, 64, 95
5, 208800, Note_on_c, 6, 59, 95
5, 208800, Note_on_c, 6, 55, 95
5, 208800, Note_on_c, 6, 52, 95
5, 208800, Note_on_c, 6, 47, 95
5, 208800, Note_on_c, 6, 40, 95
5, 209280, Note_off_c, 6, 64, 95
5, 209280, Note_off_c, 6, 59, 95
5, 209280, Note_off_c, 6, 55, 95
5, 209280, Note_off_c, 6, 52, 95
5, 209280, Note_off_c, 6, 47, 95
5, 209280, Note_off_c, 6, 40, 95
5, 209280, Note_on_c, 6, 64, 111
5, 209280, Note_on_c, 6, 59, 111
5, 209280, Note_on_c, 6, 55, 111
5, 209280, Note_on_c, 6, 52, 111
5, 209280, Note_on_c, 6, 47, 111
5, 209280, Note_on_c, 6, 40, 111
5, 209520, Note_off_c, 6, 64, 111
5, 209520, Note_off_c, 6, 59, 111
5, 209520, Note_off_c, 6, 55, 111
5, 209520, Note_off_c, 6, 52, 111
5, 209520, Note_off_c, 6, 47, 111
5, 209520, Note_off_c, 6, 40, 111
5, 209520, Note_on_c, 6, 64, 95
5, 209520, Note_on_c, 6, 59, 95
5, 209520, Note_on_c, 6, 55, 95
5, 209520, Note_on_c, 6, 52, 95
5, 209520, Note_on_c, 6, 47, 95
5, 209520, Note_on_c, 6, 40, 95
5, 209760, Note_off_c, 6, 64, 95
5, 209760, Note_off_c, 6, 59, 95
5, 209760, Note_off_c, 6, 55, 95
5, 209760, Note_off_c, 6, 52, 95
5, 209760, Note_off_c, 6, 47, 95
5, 209760, Note_off_c, 6, 40, 95
5, 209760, Note_on_c, 6, 64, 95
5, 209760, Note_on_c, 6, 59, 95
5, 209760, Note_on_c, 6, 55, 95
5, 209760, Note_on_c, 6, 52, 95
5, 209760, Note_on_c, 6, 47, 95
5, 209760, Note_on_c, 6, 40, 95
5, 210000, Note_off_c, 6, 64, 95
5, 210000, Note_off_c, 6, 59, 95
5, 210000, Note_off_c, 6, 55, 95
5, 210000, Note_off_c, 6, 52, 95
5, 210000, Note_off_c, 6, 47, 95
5, 210000, Note_off_c, 6, 40, 95
5, 210000, Note_on_c, 6, 64, 95
5, 210000, Note_on_c, 6, 59, 95
5, 210000, Note_on_c, 6, 55, 95
5, 210000, Note_on_c, 6, 52, 95
5, 210000, Note_on_c, 6, 47, 95
5, 210000, Note_on_c, 6, 40, 95
5, 210240, Note_off_c, 6, 64, 95
5, 210240, Note_off_c, 6, 59, 95
5, 210240, Note_off_c, 6, 55, 95
5, 210240, Note_off_c, 6, 52, 95
5, 210240, Note_off_c, 6, 47, 95
5, 210240, Note_off_c, 6, 40, 95
5, 210240, Note_on_c, 6, 64, 95
5, 210240, Note_on_c, 6, 59, 95
5, 210240, Note_on_c, 6, 55, 95
5, 210240, Note_on_c, 6, 52, 95
5, 210240, Note_on_c, 6, 47, 95
5, 210240, Note_on_c, 6, 40, 95
5, 210720, Note_off_c, 6, 64, 95
5, 210720, Note_off_c, 6, 59, 95
5, 210720, Note_off_c, 6, 55, 95
5, 210720, Note_off_c, 6, 52, 95
5, 210720, Note_off_c, 6, 47, 95
5, 210720, Note_off_c, 6, 40, 95
5, 210720, Note_on_c, 6, 64, 95
5, 210720, Note_on_c, 6, 59, 95
5, 210720, Note_on_c, 6, 55, 95
5, 210720, Note_on_c, 6, 52, 95
5, 210720, Note_on_c, 6, 47, 95
5, 210720, Note_on_c, 6, 40, 95
5, 210960, Note_off_c, 6, 64, 95
5, 210960, Note_off_c, 6, 59, 95
5, 210960, Note_off_c, 6, 55, 95
5, 210960, Note_off_c, 6, 52, 95
5, 210960, Note_off_c, 6, 47, 95
5, 210960, Note_off_c, 6, 40, 95
5, 210960, Note_on_c, 6, 64, 95
5, 210960, Note_on_c, 6, 59, 95
5, 210960, Note_on_c, 6, 55, 95
5, 210960, Note_on_c, 6, 52, 95
5, 210960, Note_on_c, 6, 47, 95
5, 210960, Note_on_c, 6, 40, 95
5, 211200, Note_off_c, 6, 64, 95
5, 211200, Note_off_c, 6, 59, 95
5, 211200, Note_off_c, 6, 55, 95
5, 211200, Note_off_c, 6, 52, 95
5, 211200, Note_off_c, 6, 47, 95
5, 211200, Note_off_c, 6, 40, 95
5, 211200, Note_on_c, 6, 64, 95
5, 211200, Note_on_c, 6, 59, 95
5, 211200, Note_on_c, 6, 55, 95
5, 211200, Note_on_c, 6, 52, 95
5, 211200, Note_on_c, 6, 47, 95
5, 211200, Note_on_c, 6, 40, 95
5, 211440, Note_off_c, 6, 64, 95
5, 211440, Note_off_c, 6, 59, 95
5, 211440, Note_off_c, 6, 55, 95
5, 211440, Note_off_c, 6, 52, 95
5, 211440, Note_off_c, 6, 47, 95
5, 211440, Note_off_c, 6, 40, 95
5, 211440, Note_on_c, 6, 64, 95
5, 211440, Note_on_c, 6, 59, 95
5, 211440, Note_on_c, 6, 55, 95
5, 211440, Note_on_c, 6, 52, 95
5, 211440, Note_on_c, 6, 47, 95
5, 211440, Note_on_c, 6, 40, 95
5, 211680, Note_off_c, 6, 64, 95
5, 211680, Note_off_c, 6, 59, 95
5, 211680, Note_off_c, 6, 55, 95
5, 211680, Note_off_c, 6, 52, 95
5, 211680, Note_off_c, 6, 47, 95
5, 211680, Note_off_c, 6, 40, 95
5, 211680, Note_on_c, 6, 64, 95
5, 211680, Note_on_c, 6, 59, 95
5, 211680, Note_on_c, 6, 55, 95
5, 211680, Note_on_c, 6, 52, 95
5, 211680, Note_on_c, 6, 47, 95
5, 211680, Note_on_c, 6, 40, 95
5, 212160, Note_off_c, 6, 64, 95
5, 212160, Note_off_c, 6, 59, 95
5, 212160, Note_off_c, 6, 55, 95
5, 212160, Note_off_c, 6, 52, 95
5, 212160, Note_off_c, 6, 47, 95
5, 212160, Note_off_c, 6, 40, 95
5, 212160, Note_on_c, 6, 64, 111
5, 212160, Note_on_c, 6, 59, 111
5, 212160, Note_on_c, 6, 55, 111
5, 212160, Note_on_c, 6, 52, 111
5, 212160, Note_on_c, 6, 47, 111
5, 212160, Note_on_c, 6, 40, 111
5, 212400, Note_off_c, 6, 64, 111
5, 212400, Note_off_c, 6, 59, 111
5, 212400, Note_off_c, 6, 55, 111
5, 212400, Note_off_c, 6, 52, 111
5, 212400, Note_off_c, 6, 47, 111
5, 212400, Note_off_c, 6, 40, 111
5, 212400, Note_on_c, 6, 64, 95
5, 212400, Note_on_c, 6, 59, 95
5, 212400, Note_on_c, 6, 55, 95
5, 212400, Note_on_c, 6, 52, 95
5, 212400, Note_on_c, 6, 47, 95
5, 212400, Note_on_c, 6, 40, 95
5, 212640, Note_off_c, 6, 64, 95
5, 212640, Note_off_c, 6, 59, 95
5, 212640, Note_off_c, 6, 55, 95
5, 212640, Note_off_c, 6, 52, 95
5, 212640, Note_off_c, 6, 47, 95
5, 212640, Note_off_c, 6, 40, 95
5, 212640, Note_on_c, 6, 64, 95
5, 212640, Note_on_c, 6, 59, 95
5, 212640, Note_on_c, 6, 55, 95
5, 212640, Note_on_c, 6, 52, 95
5, 212640, Note_on_c, 6, 47, 95
5, 212640, Note_on_c, 6, 40, 95
5, 212880, Note_off_c, 6, 64, 95
5, 212880, Note_off_c, 6, 59, 95
5, 212880, Note_off_c, 6, 55, 95
5, 212880, Note_off_c, 6, 52, 95
5, 212880, Note_off_c, 6, 47, 95
5, 212880, Note_off_c, 6, 40, 95
5, 212880, Note_on_c, 6, 64, 95
5, 212880, Note_on_c, 6, 59, 95
5, 212880, Note_on_c, 6, 55, 95
5, 212880, Note_on_c, 6, 52, 95
5, 212880, Note_on_c, 6, 47, 95
5, 212880, Note_on_c, 6, 40, 95
5, 213120, Note_off_c, 6, 64, 95
5, 213120, Note_off_c, 6, 59, 95
5, 213120, Note_off_c, 6, 55, 95
5, 213120, Note_off_c, 6, 52, 95
5, 213120, Note_off_c, 6, 47, 95
5, 213120, Note_off_c, 6, 40, 95
5, 213120, Note_on_c, 6, 64, 95
5, 213120, Note_on_c, 6, 59, 95
5, 213120, Note_on_c, 6, 55, 95
5, 213120, Note_on_c, 6, 52, 95
5, 213120, Note_on_c, 6, 47, 95
5, 213120, Note_on_c, 6, 40, 95
5, 213600, Note_off_c, 6, 64, 95
5, 213600, Note_off_c, 6, 59, 95
5, 213600, Note_off_c, 6, 55, 95
5, 213600, Note_off_c, 6, 52, 95
5, 213600, Note_off_c, 6, 47, 95
5, 213600, Note_off_c, 6, 40, 95
5, 213600, Note_on_c, 6, 64, 95
5, 213600, Note_on_c, 6, 59, 95
5, 213600, Note_on_c, 6, 55, 95
5, 213600, Note_on_c, 6, 52, 95
5, 213600, Note_on_c, 6, 47, 95
5, 213600, Note_on_c, 6, 40, 95
5, 213840, Note_off_c, 6, 64, 95
5, 213840, Note_off_c, 6, 59, 95
5, 213840, Note_off_c, 6, 55, 95
5, 213840, Note_off_c, 6, 52, 95
5, 213840, Note_off_c, 6, 47, 95
5, 213840, Note_off_c, 6, 40, 95
5, 213840, Note_on_c, 6, 64, 95
5, 213840, Note_on_c, 6, 59, 95
5, 213840, Note_on_c, 6, 55, 95
5, 213840, Note_on_c, 6, 52, 95
5, 213840, Note_on_c, 6, 47, 95
5, 213840, Note_on_c, 6, 40, 95
5, 214080, Note_off_c, 6, 64, 95
5, 214080, Note_off_c, 6, 59, 95
5, 214080, Note_off_c, 6, 55, 95
5, 214080, Note_off_c, 6, 52, 95
5, 214080, Note_off_c, 6, 47, 95
5, 214080, Note_off_c, 6, 40, 95
5, 214080, Note_on_c, 6, 64, 95
5, 214080, Note_on_c, 6, 59, 95
5, 214080, Note_on_c, 6, 55, 95
5, 214080, Note_on_c, 6, 52, 95
5, 214080, Note_on_c, 6, 47, 95
5, 214080, Note_on_c, 6, 40, 95
5, 214320, Note_off_c, 6, 64, 95
5, 214320, Note_off_c, 6, 59, 95
5, 214320, Note_off_c, 6, 55, 95
5, 214320, Note_off_c, 6, 52, 95
5, 214320, Note_off_c, 6, 47, 95
5, 214320, Note_off_c, 6, 40, 95
5, 214320, Note_on_c, 6, 64, 95
5, 214320, Note_on_c, 6, 59, 95
5, 214320, Note_on_c, 6, 55, 95
5, 214320, Note_on_c, 6, 52, 95
5, 214320, Note_on_c, 6, 47, 95
5, 214320, Note_on_c, 6, 40, 95
5, 214560, Note_off_c, 6, 64, 95
5, 214560, Note_off_c, 6, 59, 95
5, 214560, Note_off_c, 6, 55, 95
5, 214560, Note_off_c, 6, 52, 95
5, 214560, Note_off_c, 6, 47, 95
5, 214560, Note_off_c, 6, 40, 95
5, 214560, Note_on_c, 6, 63, 95
5, 214560, Note_on_c, 6, 57, 95
5, 214560, Note_on_c, 6, 54, 95
5, 214560, Note_on_c, 6, 42, 95
5, 215040, Note_off_c, 6, 63, 95
5, 215040, Note_off_c, 6, 57, 95
5, 215040, Note_off_c, 6, 54, 95
5, 215040, Note_off_c, 6, 42, 95
5, 215040, Note_on_c, 6, 63, 111
5, 215040, Note_on_c, 6, 57, 111
5, 215040, Note_on_c, 6, 54, 111
5, 215040, Note_on_c, 6, 42, 111
5, 215280, Note_off_c, 6, 63, 111
5, 215280, Note_off_c, 6, 57, 111
5, 215280, Note_off_c, 6, 54, 111
5, 215280, Note_off_c, 6, 42, 111
5, 215280, Note_on_c, 6, 63, 95
5, 215280, Note_on_c, 6, 57, 95
5, 215280, Note_on_c, 6, 54, 95
5, 215280, Note_on_c, 6, 42, 95
5, 215520, Note_off_c, 6, 63, 95
5, 215520, Note_off_c, 6, 57, 95
5, 215520, Note_off_c, 6, 54, 95
5, 215520, Note_off_c, 6, 42, 95
5, 215520, Note_on_c, 6, 63, 95
5, 215520, Note_on_c, 6, 57, 95
5, 215520, Note_on_c, 6, 54, 95
5, 215520, Note_on_c, 6, 42, 95
5, 215760, Note_off_c, 6, 63, 95
5, 215760, Note_off_c, 6, 57, 95
5, 215760, Note_off_c, 6, 54, 95
5, 215760, Note_off_c, 6, 42, 95
5, 215760, Note_on_c, 6, 63, 95
5, 215760, Note_on_c, 6, 57, 95
5, 215760, Note_on_c, 6, 54, 95
5, 215760, Note_on_c, 6, 42, 95
5, 216000, Note_off_c, 6, 63, 95
5, 216000, Note_off_c, 6, 57, 95
5, 216000, Note_off_c, 6, 54, 95
5, 216000, Note_off_c, 6, 42, 95
5, 216000, Note_on_c, 6, 64, 95
5, 216000, Note_on_c, 6, 59, 95
5, 216000, Note_on_c, 6, 55, 95
5, 216000, Note_on_c, 6, 43, 95
5, 216480, Note_off_c, 6, 64, 95
5, 216480, Note_off_c, 6, 59, 95
5, 216480, Note_off_c, 6, 55, 95
5, 216480, Note_off_c, 6, 43, 95
5, 216480, Note_on_c, 6, 64, 95
5, 216480, Note_on_c, 6, 59, 95
5, 216480, Note_on_c, 6, 55, 95
5, 216480, Note_on_c, 6, 43, 95
5, 216720, Note_off_c, 6, 64, 95
5, 216720, Note_off_c, 6, 59, 95
5, 216720, Note_off_c, 6, 55, 95
5, 216720, Note_off_c, 6, 43, 95
5, 216720, Note_on_c, 6, 64, 95
5, 216720, Note_on_c, 6, 59, 95
5, 216720, Note_on_c, 6, 55, 95
5, 216720, Note_on_c, 6, 43, 95
5, 216960, Note_off_c, 6, 64, 95
5, 216960, Note_off_c, 6, 59, 95
5, 216960, Note_off_c, 6, 55, 95
5, 216960, Note_off_c, 6, 43, 95
5, 216960, Note_on_c, 6, 64, 95
5, 216960, Note_on_c, 6, 59, 95
5, 216960, Note_on_c, 6, 55, 95
5, 216960, Note_on_c, 6, 43, 95
5, 217200, Note_off_c, 6, 64, 95
5, 217200, Note_off_c, 6, 59, 95
5, 217200, Note_off_c, 6, 55, 95
5, 217200, Note_off_c, 6, 43, 95
5, 217200, Note_on_c, 6, 64, 95
5, 217200, Note_on_c, 6, 59, 95
5, 217200, Note_on_c, 6, 55, 95
5, 217200, Note_on_c, 6, 43, 95
5, 217440, Note_off_c, 6, 64, 95
5, 217440, Note_off_c, 6, 59, 95
5, 217440, Note_off_c, 6, 55, 95
5, 217440, Note_off_c, 6, 43, 95
5, 217440, Note_on_c, 6, 66, 95
5, 217440, Note_on_c, 6, 61, 95
5, 217440, Note_on_c, 6, 57, 95
5, 217440, Note_on_c, 6, 45, 95
5, 217920, Note_off_c, 6, 66, 95
5, 217920, Note_off_c, 6, 61, 95
5, 217920, Note_off_c, 6, 57, 95
5, 217920, Note_off_c, 6, 45, 95
5, 217920, Note_on_c, 6, 66, 111
5, 217920, Note_on_c, 6, 61, 111
5, 217920, Note_on_c, 6, 57, 111
5, 217920, Note_on_c, 6, 45, 111
5, 218160, Note_off_c, 6, 66, 111
5, 218160, Note_off_c, 6, 61, 111
5, 218160, Note_off_c, 6, 57, 111
5, 218160, Note_off_c, 6, 45, 111
5, 218160, Note_on_c, 6, 66, 95
5, 218160, Note_on_c, 6, 61, 95
5, 218160, Note_on_c, 6, 57, 95
5, 218160, Note_on_c, 6, 45, 95
5, 218400, Note_off_c, 6, 66, 95
5, 218400, Note_off_c, 6, 61, 95
5, 218400, Note_off_c, 6, 57, 95
5, 218400, Note_off_c, 6, 45, 95
5, 218400, Note_on_c, 6, 66, 95
5, 218400, Note_on_c, 6, 61, 95
5, 218400, Note_on_c, 6, 57, 95
5, 218400, Note_on_c, 6, 45, 95
5, 218640, Note_off_c, 6, 66, 95
5, 218640, Note_off_c, 6, 61, 95
5, 218640, Note_off_c, 6, 57, 95
5, 218640, Note_off_c, 6, 45, 95
5, 218640, Note_on_c, 6, 66, 95
5, 218640, Note_on_c, 6, 61, 95
5, 218640, Note_on_c, 6, 57, 95
5, 218640, Note_on_c, 6, 45, 95
5, 218880, Note_off_c, 6, 66, 95
5, 218880, Note_off_c, 6, 61, 95
5, 218880, Note_off_c, 6, 57, 95
5, 218880, Note_off_c, 6, 45, 95
5, 218880, Note_on_c, 6, 66, 95
5, 218880, Note_on_c, 6, 62, 95
5, 218880, Note_on_c, 6, 59, 95
5, 218880, Note_on_c, 6, 47, 95
5, 219360, Note_off_c, 6, 66, 95
5, 219360, Note_off_c, 6, 62, 95
5, 219360, Note_off_c, 6, 59, 95
5, 219360, Note_off_c, 6, 47, 95
5, 219360, Note_on_c, 6, 66, 95
5, 219360, Note_on_c, 6, 62, 95
5, 219360, Note_on_c, 6, 59, 95
5, 219360, Note_on_c, 6, 47, 95
5, 219600, Note_off_c, 6, 66, 95
5, 219600, Note_off_c, 6, 62, 95
5, 219600, Note_off_c, 6, 59, 95
5, 219600, Note_off_c, 6, 47, 95
5, 219600, Note_on_c, 6, 66, 95
5, 219600, Note_on_c, 6, 62, 95
5, 219600, Note_on_c, 6, 59, 95
5, 219600, Note_on_c, 6, 47, 95
5, 219840, Note_off_c, 6, 66, 95
5, 219840, Note_off_c, 6, 62, 95
5, 219840, Note_off_c, 6, 59, 95
5, 219840, Note_off_c, 6, 47, 95
5, 219840, Note_on_c, 6, 66, 95
5, 219840, Note_on_c, 6, 62, 95
5, 219840, Note_on_c, 6, 59, 95
5, 219840, Note_on_c, 6, 47, 95
5, 220080, Note_off_c, 6, 66, 95
5, 220080, Note_off_c, 6, 62, 95
5, 220080, Note_off_c, 6, 59, 95
5, 220080, Note_off_c, 6, 47, 95
5, 220080, Note_on_c, 6, 66, 95
5, 220080, Note_on_c, 6, 62, 95
5, 220080, Note_on_c, 6, 59, 95
5, 220080, Note_on_c, 6, 47, 95
5, 220320, Note_off_c, 6, 66, 95
5, 220320, Note_off_c, 6, 62, 95
5, 220320, Note_off_c, 6, 59, 95
5, 220320, Note_off_c, 6, 47, 95
5, 220320, Note_on_c, 6, 66, 95
5, 220320, Note_on_c, 6, 62, 95
5, 220320, Note_on_c, 6, 59, 95
5, 220320, Note_on_c, 6, 47, 95
5, 220800, Note_off_c, 6, 66, 95
5, 220800, Note_off_c, 6, 62, 95
5, 220800, Note_off_c, 6, 59, 95
5, 220800, Note_off_c, 6, 47, 95
5, 220800, Note_on_c, 6, 66, 111
5, 220800, Note_on_c, 6, 62, 111
5, 220800, Note_on_c, 6, 59, 111
5, 220800, Note_on_c, 6, 47, 111
5, 221040, Note_off_c, 6, 66, 111
5, 221040, Note_off_c, 6, 62, 111
5, 221040, Note_off_c, 6, 59, 111
5, 221040, Note_off_c, 6, 47, 111
5, 221040, Note_on_c, 6, 66, 95
5, 221040, Note_on_c, 6, 62, 95
5, 221040, Note_on_c, 6, 59, 95
5, 221040, Note_on_c, 6, 47, 95
5, 221280, Note_off_c, 6, 66, 95
5, 221280, Note_off_c, 6, 62, 95
5, 221280, Note_off_c, 6, 59, 95
5, 221280, Note_off_c, 6, 47, 95
5, 221280, Note_on_c, 6, 66, 95
5, 221280, Note_on_c, 6, 62, 95
5, 221280, Note_on_c, 6, 59, 95
5, 221280, Note_on_c, 6, 47, 95
5, 221520, Note_off_c, 6, 66, 95
5, 221520, Note_off_c, 6, 62, 95
5, 221520, Note_off_c, 6, 59, 95
5, 221520, Note_off_c, 6, 47, 95
5, 221520, Note_on_c, 6, 66, 95
5, 221520, Note_on_c, 6, 62, 95
5, 221520, Note_on_c, 6, 59, 95
5, 221520, Note_on_c, 6, 47, 95
5, 221760, Note_off_c, 6, 66, 95
5, 221760, Note_off_c, 6, 62, 95
5, 221760, Note_off_c, 6, 59, 95
5, 221760, Note_off_c, 6, 47, 95
5, 221760, Note_on_c, 6, 66, 95
5, 221760, Note_on_c, 6, 61, 95
5, 221760, Note_on_c, 6, 59, 95
5, 221760, Note_on_c, 6, 45, 95
5, 222240, Note_off_c, 6, 66, 95
5, 222240, Note_off_c, 6, 61, 95
5, 222240, Note_off_c, 6, 59, 95
5, 222240, Note_off_c, 6, 45, 95
5, 222240, Note_on_c, 6, 66, 95
5, 222240, Note_on_c, 6, 61, 95
5, 222240, Note_on_c, 6, 59, 95
5, 222240, Note_on_c, 6, 45, 95
5, 222480, Note_off_c, 6, 66, 95
5, 222480, Note_off_c, 6, 61, 95
5, 222480, Note_off_c, 6, 59, 95
5, 222480, Note_off_c, 6, 45, 95
5, 222480, Note_on_c, 6, 66, 95
5, 222480, Note_on_c, 6, 61, 95
5, 222480, Note_on_c, 6, 59, 95
5, 222480, Note_on_c, 6, 45, 95
5, 222720, Note_off_c, 6, 66, 95
5, 222720, Note_off_c, 6, 61, 95
5, 222720, Note_off_c, 6, 59, 95
5, 222720, Note_off_c, 6, 45, 95
5, 222720, Note_on_c, 6, 66, 95
5, 222720, Note_on_c, 6, 61, 95
5, 222720, Note_on_c, 6, 59, 95
5, 222720, Note_on_c, 6, 45, 95
5, 222960, Note_off_c, 6, 66, 95
5, 222960, Note_off_c, 6, 61, 95
5, 222960, Note_off_c, 6, 59, 95
5, 222960, Note_off_c, 6, 45, 95
5, 222960, Note_on_c, 6, 66, 95
5, 222960, Note_on_c, 6, 61, 95
5, 222960, Note_on_c, 6, 59, 95
5, 222960, Note_on_c, 6, 45, 95
5, 223200, Note_off_c, 6, 66, 95
5, 223200, Note_off_c, 6, 61, 95
5, 223200, Note_off_c, 6, 59, 95
5, 223200, Note_off_c, 6, 45, 95
5, 223200, Note_on_c, 6, 66, 95
5, 223200, Note_on_c, 6, 61, 95
5, 223200, Note_on_c, 6, 59, 95
5, 223200, Note_on_c, 6, 45, 95
5, 223680, Note_off_c, 6, 66, 95
5, 223680, Note_off_c, 6, 61, 95
5, 223680, Note_off_c, 6, 59, 95
5, 223680, Note_off_c, 6, 45, 95
5, 223680, Note_on_c, 6, 66, 111
5, 223680, Note_on_c, 6, 61, 111
5, 223680, Note_on_c, 6, 59, 111
5, 223680, Note_on_c, 6, 45, 95
5, 223920, Note_off_c, 6, 66, 111
5, 223920, Note_off_c, 6, 61, 111
5, 223920, Note_off_c, 6, 59, 111
5, 223920, Note_off_c, 6, 45, 95
5, 223920, Note_on_c, 6, 66, 95
5, 223920, Note_on_c, 6, 61, 95
5, 223920, Note_on_c, 6, 59, 95
5, 223920, Note_on_c, 6, 45, 95
5, 224160, Note_off_c, 6, 66, 95
5, 224160, Note_off_c, 6, 61, 95
5, 224160, Note_off_c, 6, 59, 95
5, 224160, Note_off_c, 6, 45, 95
5, 224160, Note_on_c, 6, 66, 95
5, 224160, Note_on_c, 6, 61, 95
5, 224160, Note_on_c, 6, 59, 95
5, 224160, Note_on_c, 6, 45, 95
5, 224400, Note_off_c, 6, 66, 95
5, 224400, Note_off_c, 6, 61, 95
5, 224400, Note_off_c, 6, 59, 95
5, 224400, Note_off_c, 6, 45, 95
5, 224400, Note_on_c, 6, 66, 95
5, 224400, Note_on_c, 6, 61, 95
5, 224400, Note_on_c, 6, 59, 95
5, 224400, Note_on_c, 6, 45, 95
5, 224640, Note_off_c, 6, 66, 95
5, 224640, Note_off_c, 6, 61, 95
5, 224640, Note_off_c, 6, 59, 95
5, 224640, Note_off_c, 6, 45, 95
5, 224640, Note_on_c, 6, 64, 95
5, 224640, Note_on_c, 6, 59, 95
5, 224640, Note_on_c, 6, 55, 95
5, 224640, Note_on_c, 6, 52, 95
5, 224640, Note_on_c, 6, 47, 95
5, 224640, Note_on_c, 6, 40, 95
5, 225120, Note_off_c, 6, 64, 95
5, 225120, Note_off_c, 6, 59, 95
5, 225120, Note_off_c, 6, 55, 95
5, 225120, Note_off_c, 6, 52, 95
5, 225120, Note_off_c, 6, 47, 95
5, 225120, Note_off_c, 6, 40, 95
5, 225120, Note_on_c, 6, 64, 95
5, 225120, Note_on_c, 6, 59, 95
5, 225120, Note_on_c, 6, 55, 95
5, 225120, Note_on_c, 6, 52, 95
5, 225120, Note_on_c, 6, 47, 95
5, 225120, Note_on_c, 6, 40, 95
5, 225360, Note_off_c, 6, 64, 95
5, 225360, Note_off_c, 6, 59, 95
5, 225360, Note_off_c, 6, 55, 95
5, 225360, Note_off_c, 6, 52, 95
5, 225360, Note_off_c, 6, 47, 95
5, 225360, Note_off_c, 6, 40, 95
5, 225360, Note_on_c, 6, 64, 95
5, 225360, Note_on_c, 6, 59, 95
5, 225360, Note_on_c, 6, 55, 95
5, 225360, Note_on_c, 6, 52, 95
5, 225360, Note_on_c, 6, 47, 95
5, 225360, Note_on_c, 6, 40, 95
5, 225600, Note_off_c, 6, 64, 95
5, 225600, Note_off_c, 6, 59, 95
5, 225600, Note_off_c, 6, 55, 95
5, 225600, Note_off_c, 6, 52, 95
5, 225600, Note_off_c, 6, 47, 95
5, 225600, Note_off_c, 6, 40, 95
5, 225600, Note_on_c, 6, 64, 95
5, 225600, Note_on_c, 6, 59, 95
5, 225600, Note_on_c, 6, 55, 95
5, 225600, Note_on_c, 6, 52, 95
5, 225600, Note_on_c, 6, 47, 95
5, 225600, Note_on_c, 6, 40, 95
5, 225840, Note_off_c, 6, 64, 95
5, 225840, Note_off_c, 6, 59, 95
5, 225840, Note_off_c, 6, 55, 95
5, 225840, Note_off_c, 6, 52, 95
5, 225840, Note_off_c, 6, 47, 95
5, 225840, Note_off_c, 6, 40, 95
5, 225840, Note_on_c, 6, 64, 95
5, 225840, Note_on_c, 6, 59, 95
5, 225840, Note_on_c, 6, 55, 95
5, 225840, Note_on_c, 6, 52, 95
5, 225840, Note_on_c, 6, 47, 95
5, 225840, Note_on_c, 6, 40, 95
5, 226080, Note_off_c, 6, 64, 95
5, 226080, Note_off_c, 6, 59, 95
5, 226080, Note_off_c, 6, 55, 95
5, 226080, Note_off_c, 6, 52, 95
5, 226080, Note_off_c, 6, 47, 95
5, 226080, Note_off_c, 6, 40, 95
5, 226080, Note_on_c, 6, 64, 95
5, 226080, Note_on_c, 6, 59, 95
5, 226080, Note_on_c, 6, 55, 95
5, 226080, Note_on_c, 6, 52, 95
5, 226080, Note_on_c, 6, 47, 95
5, 226080, Note_on_c, 6, 40, 95
5, 226560, Note_off_c, 6, 64, 95
5, 226560, Note_off_c, 6, 59, 95
5, 226560, Note_off_c, 6, 55, 95
5, 226560, Note_off_c, 6, 52, 95
5, 226560, Note_off_c, 6, 47, 95
5, 226560, Note_off_c, 6, 40, 95
5, 226560, Note_on_c, 6, 64, 111
5, 226560, Note_on_c, 6, 59, 111
5, 226560, Note_on_c, 6, 55, 111
5, 226560, Note_on_c, 6, 52, 111
5, 226560, Note_on_c, 6, 47, 111
5, 226560, Note_on_c, 6, 40, 111
5, 226800, Note_off_c, 6, 64, 111
5, 226800, Note_off_c, 6, 59, 111
5, 226800, Note_off_c, 6, 55, 111
5, 226800, Note_off_c, 6, 52, 111
5, 226800, Note_off_c, 6, 47, 111
5, 226800, Note_off_c, 6, 40, 111
5, 226800, Note_on_c, 6, 64, 95
5, 226800, Note_on_c, 6, 59, 95
5, 226800, Note_on_c, 6, 55, 95
5, 226800, Note_on_c, 6, 52, 95
5, 226800, Note_on_c, 6, 47, 95
5, 226800, Note_on_c, 6, 40, 95
5, 227040, Note_off_c, 6, 64, 95
5, 227040, Note_off_c, 6, 59, 95
5, 227040, Note_off_c, 6, 55, 95
5, 227040, Note_off_c, 6, 52, 95
5, 227040, Note_off_c, 6, 47, 95
5, 227040, Note_off_c, 6, 40, 95
5, 227040, Note_on_c, 6, 64, 95
5, 227040, Note_on_c, 6, 59, 95
5, 227040, Note_on_c, 6, 55, 95
5, 227040, Note_on_c, 6, 52, 95
5, 227040, Note_on_c, 6, 47, 95
5, 227040, Note_on_c, 6, 40, 95
5, 227280, Note_off_c, 6, 64, 95
5, 227280, Note_off_c, 6, 59, 95
5, 227280, Note_off_c, 6, 55, 95
5, 227280, Note_off_c, 6, 52, 95
5, 227280, Note_off_c, 6, 47, 95
5, 227280, Note_off_c, 6, 40, 95
5, 227280, Note_on_c, 6, 64, 95
5, 227280, Note_on_c, 6, 59, 95
5, 227280, Note_on_c, 6, 55, 95
5, 227280, Note_on_c, 6, 52, 95
5, 227280, Note_on_c, 6, 47, 95
5, 227280, Note_on_c, 6, 40, 95
5, 227520, Note_off_c, 6, 64, 95
5, 227520, Note_off_c, 6, 59, 95
5, 227520, Note_off_c, 6, 55, 95
5, 227520, Note_off_c, 6, 52, 95
5, 227520, Note_off_c, 6, 47, 95
5, 227520, Note_off_c, 6, 40, 95
5, 227520, Note_on_c, 6, 64, 95
5, 227520, Note_on_c, 6, 59, 95
5, 227520, Note_on_c, 6, 55, 95
5, 227520, Note_on_c, 6, 52, 95
5, 227520, Note_on_c, 6, 47, 95
5, 227520, Note_on_c, 6, 40, 95
5, 228000, Note_off_c, 6, 64, 95
5, 228000, Note_off_c, 6, 59, 95
5, 228000, Note_off_c, 6, 55, 95
5, 228000, Note_off_c, 6, 52, 95
5, 228000, Note_off_c, 6, 47, 95
5, 228000, Note_off_c, 6, 40, 95
5, 228000, Note_on_c, 6, 64, 95
5, 228000, Note_on_c, 6, 59, 95
5, 228000, Note_on_c, 6, 55, 95
5, 228000, Note_on_c, 6, 52, 95
5, 228000, Note_on_c, 6, 47, 95
5, 228000, Note_on_c, 6, 40, 95
5, 228240, Note_off_c, 6, 64, 95
5, 228240, Note_off_c, 6, 59, 95
5, 228240, Note_off_c, 6, 55, 95
5, 228240, Note_off_c, 6, 52, 95
5, 228240, Note_off_c, 6, 47, 95
5, 228240, Note_off_c, 6, 40, 95
5, 228240, Note_on_c, 6, 64, 95
5, 228240, Note_on_c, 6, 59, 95
5, 228240, Note_on_c, 6, 55, 95
5, 228240, Note_on_c, 6, 52, 95
5, 228240, Note_on_c, 6, 47, 95
5, 228240, Note_on_c, 6, 40, 95
5, 228480, Note_off_c, 6, 64, 95
5, 228480, Note_off_c, 6, 59, 95
5, 228480, Note_off_c, 6, 55, 95
5, 228480, Note_off_c, 6, 52, 95
5, 228480, Note_off_c, 6, 47, 95
5, 228480, Note_off_c, 6, 40, 95
5, 228480, Note_on_c, 6, 64, 95
5, 228480, Note_on_c, 6, 59, 95
5, 228480, Note_on_c, 6, 55, 95
5, 228480, Note_on_c, 6, 52, 95
5, 228480, Note_on_c, 6, 47, 95
5, 228480, Note_on_c, 6, 40, 95
5, 228720, Note_off_c, 6, 64, 95
5, 228720, Note_off_c, 6, 59, 95
5, 228720, Note_off_c, 6, 55, 95
5, 228720, Note_off_c, 6, 52, 95
5, 228720, Note_off_c, 6, 47, 95
5, 228720, Note_off_c, 6, 40, 95
5, 228720, Note_on_c, 6, 64, 95
5, 228720, Note_on_c, 6, 59, 95
5, 228720, Note_on_c, 6, 55, 95
5, 228720, Note_on_c, 6, 52, 95
5, 228720, Note_on_c, 6, 47, 95
5, 228720, Note_on_c, 6, 40, 95
5, 228960, Note_off_c, 6, 64, 95
5, 228960, Note_off_c, 6, 59, 95
5, 228960, Note_off_c, 6, 55, 95
5, 228960, Note_off_c, 6, 52, 95
5, 228960, Note_off_c, 6, 47, 95
5, 228960, Note_off_c, 6, 40, 95
5, 228960, Note_on_c, 6, 64, 95
5, 228960, Note_on_c, 6, 59, 95
5, 228960, Note_on_c, 6, 55, 95
5, 228960, Note_on_c, 6, 52, 95
5, 228960, Note_on_c, 6, 47, 95
5, 228960, Note_on_c, 6, 40, 95
5, 229440, Note_off_c, 6, 64, 95
5, 229440, Note_off_c, 6, 59, 95
5, 229440, Note_off_c, 6, 55, 95
5, 229440, Note_off_c, 6, 52, 95
5, 229440, Note_off_c, 6, 47, 95
5, 229440, Note_off_c, 6, 40, 95
5, 229440, Note_on_c, 6, 64, 111
5, 229440, Note_on_c, 6, 59, 111
5, 229440, Note_on_c, 6, 55, 111
5, 229440, Note_on_c, 6, 52, 111
5, 229440, Note_on_c, 6, 47, 111
5, 229440, Note_on_c, 6, 40, 111
5, 229680, Note_off_c, 6, 64, 111
5, 229680, Note_off_c, 6, 59, 111
5, 229680, Note_off_c, 6, 55, 111
5, 229680, Note_off_c, 6, 52, 111
5, 229680, Note_off_c, 6, 47, 111
5, 229680, Note_off_c, 6, 40, 111
5, 229680, Note_on_c, 6, 64, 95
5, 229680, Note_on_c, 6, 59, 95
5, 229680, Note_on_c, 6, 55, 95
5, 229680, Note_on_c, 6, 52, 95
5, 229680, Note_on_c, 6, 47, 95
5, 229680, Note_on_c, 6, 40, 95
5, 229920, Note_off_c, 6, 64, 95
5, 229920, Note_off_c, 6, 59, 95
5, 229920, Note_off_c, 6, 55, 95
5, 229920, Note_off_c, 6, 52, 95
5, 229920, Note_off_c, 6, 47, 95
5, 229920, Note_off_c, 6, 40, 95
5, 229920, Note_on_c, 6, 64, 95
5, 229920, Note_on_c, 6, 59, 95
5, 229920, Note_on_c, 6, 55, 95
5, 229920, Note_on_c, 6, 52, 95
5, 229920, Note_on_c, 6, 47, 95
5, 229920, Note_on_c, 6, 40, 95
5, 230160, Note_off_c, 6, 64, 95
5, 230160, Note_off_c, 6, 59, 95
5, 230160, Note_off_c, 6, 55, 95
5, 230160, Note_off_c, 6, 52, 95
5, 230160, Note_off_c, 6, 47, 95
5, 230160, Note_off_c, 6, 40, 95
5, 230160, Note_on_c, 6, 64, 95
5, 230160, Note_on_c, 6, 59, 95
5, 230160, Note_on_c, 6, 55, 95
5, 230160, Note_on_c, 6, 52, 95
5, 230160, Note_on_c, 6, 47, 95
5, 230160, Note_on_c, 6, 40, 95
5, 230400, Note_off_c, 6, 64, 95
5, 230400, Note_off_c, 6, 59, 95
5, 230400, Note_off_c, 6, 55, 95
5, 230400, Note_off_c, 6, 52, 95
5, 230400, Note_off_c, 6, 47, 95
5, 230400, Note_off_c, 6, 40, 95
5, 230400, Note_on_c, 6, 64, 95
5, 230400, Note_on_c, 6, 59, 95
5, 230400, Note_on_c, 6, 55, 95
5, 230400, Note_on_c, 6, 52, 95
5, 230400, Note_on_c, 6, 47, 95
5, 230400, Note_on_c, 6, 40, 95
5, 230880, Note_off_c, 6, 64, 95
5, 230880, Note_off_c, 6, 59, 95
5, 230880, Note_off_c, 6, 55, 95
5, 230880, Note_off_c, 6, 52, 95
5, 230880, Note_off_c, 6, 47, 95
5, 230880, Note_off_c, 6, 40, 95
5, 230880, Note_on_c, 6, 64, 95
5, 230880, Note_on_c, 6, 59, 95
5, 230880, Note_on_c, 6, 55, 95
5, 230880, Note_on_c, 6, 52, 95
5, 230880, Note_on_c, 6, 47, 95
5, 230880, Note_on_c, 6, 40, 95
5, 231120, Note_off_c, 6, 64, 95
5, 231120, Note_off_c, 6, 59, 95
5, 231120, Note_off_c, 6, 55, 95
5, 231120, Note_off_c, 6, 52, 95
5, 231120, Note_off_c, 6, 47, 95
5, 231120, Note_off_c, 6, 40, 95
5, 231120, Note_on_c, 6, 64, 95
5, 231120, Note_on_c, 6, 59, 95
5, 231120, Note_on_c, 6, 55, 95
5, 231120, Note_on_c, 6, 52, 95
5, 231120, Note_on_c, 6, 47, 95
5, 231120, Note_on_c, 6, 40, 95
5, 231360, Note_off_c, 6, 64, 95
5, 231360, Note_off_c, 6, 59, 95
5, 231360, Note_off_c, 6, 55, 95
5, 231360, Note_off_c, 6, 52, 95
5, 231360, Note_off_c, 6, 47, 95
5, 231360, Note_off_c, 6, 40, 95
5, 231360, Note_on_c, 6, 64, 95
5, 231360, Note_on_c, 6, 59, 95
5, 231360, Note_on_c, 6, 55, 95
5, 231360, Note_on_c, 6, 52, 95
5, 231360, Note_on_c, 6, 47, 95
5, 231360, Note_on_c, 6, 40, 95
5, 231600, Note_off_c, 6, 64, 95
5, 231600, Note_off_c, 6, 59, 95
5, 231600, Note_off_c, 6, 55, 95
5, 231600, Note_off_c, 6, 52, 95
5, 231600, Note_off_c, 6, 47, 95
5, 231600, Note_off_c, 6, 40, 95
5, 231600, Note_on_c, 6, 64, 95
5, 231600, Note_on_c, 6, 59, 95
5, 231600, Note_on_c, 6, 55, 95
5, 231600, Note_on_c, 6, 52, 95
5, 231600, Note_on_c, 6, 47, 95
5, 231600, Note_on_c, 6, 40, 95
5, 231840, Note_off_c, 6, 64, 95
5, 231840, Note_off_c, 6, 59, 95
5, 231840, Note_off_c, 6, 55, 95
5, 231840, Note_off_c, 6, 52, 95
5, 231840, Note_off_c, 6, 47, 95
5, 231840, Note_off_c, 6, 40, 95
5, 231840, Note_on_c, 6, 63, 95
5, 231840, Note_on_c, 6, 57, 95
5, 231840, Note_on_c, 6, 54, 95
5, 231840, Note_on_c, 6, 42, 95
5, 232320, Note_off_c, 6, 63, 95
5, 232320, Note_off_c, 6, 57, 95
5, 232320, Note_off_c, 6, 54, 95
5, 232320, Note_off_c, 6, 42, 95
5, 232320, Note_on_c, 6, 63, 111
5, 232320, Note_on_c, 6, 57, 111
5, 232320, Note_on_c, 6, 54, 111
5, 232320, Note_on_c, 6, 42, 111
5, 232560, Note_off_c, 6, 63, 111
5, 232560, Note_off_c, 6, 57, 111
5, 232560, Note_off_c, 6, 54, 111
5, 232560, Note_off_c, 6, 42, 111
5, 232560, Note_on_c, 6, 63, 95
5, 232560, Note_on_c, 6, 57, 95
5, 232560, Note_on_c, 6, 54, 95
5, 232560, Note_on_c, 6, 42, 95
5, 232800, Note_off_c, 6, 63, 95
5, 232800, Note_off_c, 6, 57, 95
5, 232800, Note_off_c, 6, 54, 95
5, 232800, Note_off_c, 6, 42, 95
5, 232800, Note_on_c, 6, 63, 95
5, 232800, Note_on_c, 6, 57, 95
5, 232800, Note_on_c, 6, 54, 95
5, 232800, Note_on_c, 6, 42, 95
5, 233040, Note_off_c, 6, 63, 95
5, 233040, Note_off_c, 6, 57, 95
5, 233040, Note_off_c, 6, 54, 95
5, 233040, Note_off_c, 6, 42, 95
5, 233040, Note_on_c, 6, 63, 95
5, 233040, Note_on_c, 6, 57, 95
5, 233040, Note_on_c, 6, 54, 95
5, 233040, Note_on_c, 6, 42, 95
5, 233280, Note_off_c, 6, 63, 95
5, 233280, Note_off_c, 6, 57, 95
5, 233280, Note_off_c, 6, 54, 95
5, 233280, Note_off_c, 6, 42, 95
5, 233280, Note_on_c, 6, 64, 95
5, 233280, Note_on_c, 6, 59, 95
5, 233280, Note_on_c, 6, 55, 95
5, 233280, Note_on_c, 6, 43, 95
5, 233760, Note_off_c, 6, 64, 95
5, 233760, Note_off_c, 6, 59, 95
5, 233760, Note_off_c, 6, 55, 95
5, 233760, Note_off_c, 6, 43, 95
5, 233760, Note_on_c, 6, 64, 95
5, 233760, Note_on_c, 6, 59, 95
5, 233760, Note_on_c, 6, 55, 95
5, 233760, Note_on_c, 6, 43, 95
5, 234000, Note_off_c, 6, 64, 95
5, 234000, Note_off_c, 6, 59, 95
5, 234000, Note_off_c, 6, 55, 95
5, 234000, Note_off_c, 6, 43, 95
5, 234000, Note_on_c, 6, 64, 95
5, 234000, Note_on_c, 6, 59, 95
5, 234000, Note_on_c, 6, 55, 95
5, 234000, Note_on_c, 6, 43, 95
5, 234240, Note_off_c, 6, 64, 95
5, 234240, Note_off_c, 6, 59, 95
5, 234240, Note_off_c, 6, 55, 95
5, 234240, Note_off_c, 6, 43, 95
5, 234240, Note_on_c, 6, 64, 95
5, 234240, Note_on_c, 6, 59, 95
5, 234240, Note_on_c, 6, 55, 95
5, 234240, Note_on_c, 6, 43, 95
5, 234480, Note_off_c, 6, 64, 95
5, 234480, Note_off_c, 6, 59, 95
5, 234480, Note_off_c, 6, 55, 95
5, 234480, Note_off_c, 6, 43, 95
5, 234480, Note_on_c, 6, 64, 95
5, 234480, Note_on_c, 6, 59, 95
5, 234480, Note_on_c, 6, 55, 95
5, 234480, Note_on_c, 6, 43, 95
5, 234720, Note_off_c, 6, 64, 95
5, 234720, Note_off_c, 6, 59, 95
5, 234720, Note_off_c, 6, 55, 95
5, 234720, Note_off_c, 6, 43, 95
5, 234720, Note_on_c, 6, 66, 95
5, 234720, Note_on_c, 6, 61, 95
5, 234720, Note_on_c, 6, 57, 95
5, 234720, Note_on_c, 6, 45, 95
5, 235200, Note_off_c, 6, 66, 95
5, 235200, Note_off_c, 6, 61, 95
5, 235200, Note_off_c, 6, 57, 95
5, 235200, Note_off_c, 6, 45, 95
5, 235200, Note_on_c, 6, 66, 111
5, 235200, Note_on_c, 6, 61, 111
5, 235200, Note_on_c, 6, 57, 111
5, 235200, Note_on_c, 6, 45, 111
5, 235440, Note_off_c, 6, 66, 111
5, 235440, Note_off_c, 6, 61, 111
5, 235440, Note_off_c, 6, 57, 111
5, 235440, Note_off_c, 6, 45, 111
5, 235440, Note_on_c, 6, 66, 95
5, 235440, Note_on_c, 6, 61, 95
5, 235440, Note_on_c, 6, 57, 95
5, 235440, Note_on_c, 6, 45, 95
5, 235680, Note_off_c, 6, 66, 95
5, 235680, Note_off_c, 6, 61, 95
5, 235680, Note_off_c, 6, 57, 95
5, 235680, Note_off_c, 6, 45, 95
5, 235680, Note_on_c, 6, 66, 95
5, 235680, Note_on_c, 6, 61, 95
5, 235680, Note_on_c, 6, 57, 95
5, 235680, Note_on_c, 6, 45, 95
5, 235920, Note_off_c, 6, 66, 95
5, 235920, Note_off_c, 6, 61, 95
5, 235920, Note_off_c, 6, 57, 95
5, 235920, Note_off_c, 6, 45, 95
5, 235920, Note_on_c, 6, 66, 95
5, 235920, Note_on_c, 6, 61, 95
5, 235920, Note_on_c, 6, 57, 95
5, 235920, Note_on_c, 6, 45, 95
5, 236160, Note_off_c, 6, 66, 95
5, 236160, Note_off_c, 6, 61, 95
5, 236160, Note_off_c, 6, 57, 95
5, 236160, Note_off_c, 6, 45, 95
5, 236160, Note_on_c, 6, 66, 95
5, 236160, Note_on_c, 6, 62, 95
5, 236160, Note_on_c, 6, 59, 95
5, 236160, Note_on_c, 6, 47, 95
5, 236640, Note_off_c, 6, 66, 95
5, 236640, Note_off_c, 6, 62, 95
5, 236640, Note_off_c, 6, 59, 95
5, 236640, Note_off_c, 6, 47, 95
5, 236640, Note_on_c, 6, 66, 95
5, 236640, Note_on_c, 6, 62, 95
5, 236640, Note_on_c, 6, 59, 95
5, 236640, Note_on_c, 6, 47, 95
5, 236880, Note_off_c, 6, 66, 95
5, 236880, Note_off_c, 6, 62, 95
5, 236880, Note_off_c, 6, 59, 95
5, 236880, Note_off_c, 6, 47, 95
5, 236880, Note_on_c, 6, 66, 95
5, 236880, Note_on_c, 6, 62, 95
5, 236880, Note_on_c, 6, 59, 95
5, 236880, Note_on_c, 6, 47, 95
5, 237120, Note_off_c, 6, 66, 95
5, 237120, Note_off_c, 6, 62, 95
5, 237120, Note_off_c, 6, 59, 95
5, 237120, Note_off_c, 6, 47, 95
5, 237120, Note_on_c, 6, 66, 95
5, 237120, Note_on_c, 6, 62, 95
5, 237120, Note_on_c, 6, 59, 95
5, 237120, Note_on_c, 6, 47, 95
5, 237360, Note_off_c, 6, 66, 95
5, 237360, Note_off_c, 6, 62, 95
5, 237360, Note_off_c, 6, 59, 95
5, 237360, Note_off_c, 6, 47, 95
5, 237360, Note_on_c, 6, 66, 95
5, 237360, Note_on_c, 6, 62, 95
5, 237360, Note_on_c, 6, 59, 95
5, 237360, Note_on_c, 6, 47, 95
5, 237600, Note_off_c, 6, 66, 95
5, 237600, Note_off_c, 6, 62, 95
5, 237600, Note_off_c, 6, 59, 95
5, 237600, Note_off_c, 6, 47, 95
5, 237600, Note_on_c, 6, 66, 95
5, 237600, Note_on_c, 6, 62, 95
5, 237600, Note_on_c, 6, 59, 95
5, 237600, Note_on_c, 6, 47, 95
5, 238080, Note_off_c, 6, 66, 95
5, 238080, Note_off_c, 6, 62, 95
5, 238080, Note_off_c, 6, 59, 95
5, 238080, Note_off_c, 6, 47, 95
5, 238080, Note_on_c, 6, 66, 111
5, 238080, Note_on_c, 6, 62, 111
5, 238080, Note_on_c, 6, 59, 111
5, 238080, Note_on_c, 6, 47, 111
5, 238320, Note_off_c, 6, 66, 111
5, 238320, Note_off_c, 6, 62, 111
5, 238320, Note_off_c, 6, 59, 111
5, 238320, Note_off_c, 6, 47, 111
5, 238320, Note_on_c, 6, 66, 95
5, 238320, Note_on_c, 6, 62, 95
5, 238320, Note_on_c, 6, 59, 95
5, 238320, Note_on_c, 6, 47, 95
5, 238560, Note_off_c, 6, 66, 95
5, 238560, Note_off_c, 6, 62, 95
5, 238560, Note_off_c, 6, 59, 95
5, 238560, Note_off_c, 6, 47, 95
5, 238560, Note_on_c, 6, 66, 95
5, 238560, Note_on_c, 6, 62, 95
5, 238560, Note_on_c, 6, 59, 95
5, 238560, Note_on_c, 6, 47, 95
5, 238800, Note_off_c, 6, 66, 95
5, 238800, Note_off_c, 6, 62, 95
5, 238800, Note_off_c, 6, 59, 95
5, 238800, Note_off_c, 6, 47, 95
5, 238800, Note_on_c, 6, 66, 95
5, 238800, Note_on_c, 6, 62, 95
5, 238800, Note_on_c, 6, 59, 95
5, 238800, Note_on_c, 6, 47, 95
5, 239040, Note_off_c, 6, 66, 95
5, 239040, Note_off_c, 6, 62, 95
5, 239040, Note_off_c, 6, 59, 95
5, 239040, Note_off_c, 6, 47, 95
5, 239040, Note_on_c, 6, 66, 95
5, 239040, Note_on_c, 6, 61, 95
5, 239040, Note_on_c, 6, 59, 95
5, 239040, Note_on_c, 6, 45, 95
5, 239520, Note_off_c, 6, 66, 95
5, 239520, Note_off_c, 6, 61, 95
5, 239520, Note_off_c, 6, 59, 95
5, 239520, Note_off_c, 6, 45, 95
5, 239520, Note_on_c, 6, 66, 95
5, 239520, Note_on_c, 6, 61, 95
5, 239520, Note_on_c, 6, 59, 95
5, 239520, Note_on_c, 6, 45, 95
5, 239760, Note_off_c, 6, 66, 95
5, 239760, Note_off_c, 6, 61, 95
5, 239760, Note_off_c, 6, 59, 95
5, 239760, Note_off_c, 6, 45, 95
5, 239760, Note_on_c, 6, 66, 95
5, 239760, Note_on_c, 6, 61, 95
5, 239760, Note_on_c, 6, 59, 95
5, 239760, Note_on_c, 6, 45, 95
5, 240000, Note_off_c, 6, 66, 95
5, 240000, Note_off_c, 6, 61, 95
5, 240000, Note_off_c, 6, 59, 95
5, 240000, Note_off_c, 6, 45, 95
5, 240000, Note_on_c, 6, 66, 95
5, 240000, Note_on_c, 6, 61, 95
5, 240000, Note_on_c, 6, 59, 95
5, 240000, Note_on_c, 6, 45, 95
5, 240240, Note_off_c, 6, 66, 95
5, 240240, Note_off_c, 6, 61, 95
5, 240240, Note_off_c, 6, 59, 95
5, 240240, Note_off_c, 6, 45, 95
5, 240240, Note_on_c, 6, 66, 95
5, 240240, Note_on_c, 6, 61, 95
5, 240240, Note_on_c, 6, 59, 95
5, 240240, Note_on_c, 6, 45, 95
5, 240480, Note_off_c, 6, 66, 95
5, 240480, Note_off_c, 6, 61, 95
5, 240480, Note_off_c, 6, 59, 95
5, 240480, Note_off_c, 6, 45, 95
5, 240480, Note_on_c, 6, 66, 95
5, 240480, Note_on_c, 6, 61, 95
5, 240480, Note_on_c, 6, 59, 95
5, 240480, Note_on_c, 6, 45, 95
5, 240960, Note_off_c, 6, 66, 95
5, 240960, Note_off_c, 6, 61, 95
5, 240960, Note_off_c, 6, 59, 95
5, 240960, Note_off_c, 6, 45, 95
5, 240960, Note_on_c, 6, 66, 111
5, 240960, Note_on_c, 6, 61, 111
5, 240960, Note_on_c, 6, 59, 111
5, 240960, Note_on_c, 6, 45, 95
5, 241200, Note_off_c, 6, 66, 111
5, 241200, Note_off_c, 6, 61, 111
5, 241200, Note_off_c, 6, 59, 111
5, 241200, Note_off_c, 6, 45, 95
5, 241200, Note_on_c, 6, 66, 95
5, 241200, Note_on_c, 6, 61, 95
5, 241200, Note_on_c, 6, 59, 95
5, 241200, Note_on_c, 6, 45, 95
5, 241440, Note_off_c, 6, 66, 95
5, 241440, Note_off_c, 6, 61, 95
5, 241440, Note_off_c, 6, 59, 95
5, 241440, Note_off_c, 6, 45, 95
5, 241440, Note_on_c, 6, 66, 95
5, 241440, Note_on_c, 6, 61, 95
5, 241440, Note_on_c, 6, 59, 95
5, 241440, Note_on_c, 6, 45, 95
5, 241680, Note_off_c, 6, 66, 95
5, 241680, Note_off_c, 6, 61, 95
5, 241680, Note_off_c, 6, 59, 95
5, 241680, Note_off_c, 6, 45, 95
5, 241680, Note_on_c, 6, 66, 95
5, 241680, Note_on_c, 6, 61, 95
5, 241680, Note_on_c, 6, 59, 95
5, 241680, Note_on_c, 6, 45, 95
5, 241920, Note_off_c, 6, 66, 95
5, 241920, Note_off_c, 6, 61, 95
5, 241920, Note_off_c, 6, 59, 95
5, 241920, Note_off_c, 6, 45, 95
5, 241920, Note_on_c, 6, 64, 95
5, 241920, Note_on_c, 6, 59, 95
5, 241920, Note_on_c, 6, 55, 95
5, 241920, Note_on_c, 6, 52, 95
5, 241920, Note_on_c, 6, 47, 95
5, 241920, Note_on_c, 6, 40, 95
5, 242400, Note_off_c, 6, 64, 95
5, 242400, Note_off_c, 6, 59, 95
5, 242400, Note_off_c, 6, 55, 95
5, 242400, Note_off_c, 6, 52, 95
5, 242400, Note_off_c, 6, 47, 95
5, 242400, Note_off_c, 6, 40, 95
5, 242400, Note_on_c, 6, 64, 95
5, 242400, Note_on_c, 6, 59, 95
5, 242400, Note_on_c, 6, 55, 95
5, 242400, Note_on_c, 6, 52, 95
5, 242400, Note_on_c, 6, 47, 95
5, 242400, Note_on_c, 6, 40, 95
5, 242640, Note_off_c, 6, 64, 95
5, 242640, Note_off_c, 6, 59, 95
5, 242640, Note_off_c, 6, 55, 95
5, 242640, Note_off_c, 6, 52, 95
5, 242640, Note_off_c, 6, 47, 95
5, 242640, Note_off_c, 6, 40, 95
5, 242640, Note_on_c, 6, 64, 95
5, 242640, Note_on_c, 6, 59, 95
5, 242640, Note_on_c, 6, 55, 95
5, 242640, Note_on_c, 6, 52, 95
5, 242640, Note_on_c, 6, 47, 95
5, 242640, Note_on_c, 6, 40, 95
5, 242880, Note_off_c, 6, 64, 95
5, 242880, Note_off_c, 6, 59, 95
5, 242880, Note_off_c, 6, 55, 95
5, 242880, Note_off_c, 6, 52, 95
5, 242880, Note_off_c, 6, 47, 95
5, 242880, Note_off_c, 6, 40, 95
5, 242880, Note_on_c, 6, 64, 95
5, 242880, Note_on_c, 6, 59, 95
5, 242880, Note_on_c, 6, 55, 95
5, 242880, Note_on_c, 6, 52, 95
5, 242880, Note_on_c, 6, 47, 95
5, 242880, Note_on_c, 6, 40, 95
5, 243120, Note_off_c, 6, 64, 95
5, 243120, Note_off_c, 6, 59, 95
5, 243120, Note_off_c, 6, 55, 95
5, 243120, Note_off_c, 6, 52, 95
5, 243120, Note_off_c, 6, 47, 95
5, 243120, Note_off_c, 6, 40, 95
5, 243120, Note_on_c, 6, 64, 95
5, 243120, Note_on_c, 6, 59, 95
5, 243120, Note_on_c, 6, 55, 95
5, 243120, Note_on_c, 6, 52, 95
5, 243120, Note_on_c, 6, 47, 95
5, 243120, Note_on_c, 6, 40, 95
5, 243360, Note_off_c, 6, 64, 95
5, 243360, Note_off_c, 6, 59, 95
5, 243360, Note_off_c, 6, 55, 95
5, 243360, Note_off_c, 6, 52, 95
5, 243360, Note_off_c, 6, 47, 95
5, 243360, Note_off_c, 6, 40, 95
5, 243360, Note_on_c, 6, 64, 95
5, 243360, Note_on_c, 6, 59, 95
5, 243360, Note_on_c, 6, 55, 95
5, 243360, Note_on_c, 6, 52, 95
5, 243360, Note_on_c, 6, 47, 95
5, 243360, Note_on_c, 6, 40, 95
5, 243840, Note_off_c, 6, 64, 95
5, 243840, Note_off_c, 6, 59, 95
5, 243840, Note_off_c, 6, 55, 95
5, 243840, Note_off_c, 6, 52, 95
5, 243840, Note_off_c, 6, 47, 95
5, 243840, Note_off_c, 6, 40, 95
5, 243840, Note_on_c, 6, 64, 111
5, 243840, Note_on_c, 6, 59, 111
5, 243840, Note_on_c, 6, 55, 111
5, 243840, Note_on_c, 6, 52, 111
5, 243840, Note_on_c, 6, 47, 111
5, 243840, Note_on_c, 6, 40, 111
5, 244080, Note_off_c, 6, 64, 111
5, 244080, Note_off_c, 6, 59, 111
5, 244080, Note_off_c, 6, 55, 111
5, 244080, Note_off_c, 6, 52, 111
5, 244080, Note_off_c, 6, 47, 111
5, 244080, Note_off_c, 6, 40, 111
5, 244080, Note_on_c, 6, 64, 95
5, 244080, Note_on_c, 6, 59, 95
5, 244080, Note_on_c, 6, 55, 95
5, 244080, Note_on_c, 6, 52, 95
5, 244080, Note_on_c, 6, 47, 95
5, 244080, Note_on_c, 6, 40, 95
5, 244320, Note_off_c, 6, 64, 95
5, 244320, Note_off_c, 6, 59, 95
5, 244320, Note_off_c, 6, 55, 95
5, 244320, Note_off_c, 6, 52, 95
5, 244320, Note_off_c, 6, 47, 95
5, 244320, Note_off_c, 6, 40, 95
5, 244320, Note_on_c, 6, 64, 95
5, 244320, Note_on_c, 6, 59, 95
5, 244320, Note_on_c, 6, 55, 95
5, 244320, Note_on_c, 6, 52, 95
5, 244320, Note_on_c, 6, 47, 95
5, 244320, Note_on_c, 6, 40, 95
5, 244560, Note_off_c, 6, 64, 95
5, 244560, Note_off_c, 6, 59, 95
5, 244560, Note_off_c, 6, 55, 95
5, 244560, Note_off_c, 6, 52, 95
5, 244560, Note_off_c, 6, 47, 95
5, 244560, Note_off_c, 6, 40, 95
5, 244560, Note_on_c, 6, 64, 95
5, 244560, Note_on_c, 6, 59, 95
5, 244560, Note_on_c, 6, 55, 95
5, 244560, Note_on_c, 6, 52, 95
5, 244560, Note_on_c, 6, 47, 95
5, 244560, Note_on_c, 6, 40, 95
5, 244800, Note_off_c, 6, 64, 95
5, 244800, Note_off_c, 6, 59, 95
5, 244800, Note_off_c, 6, 55, 95
5, 244800, Note_off_c, 6, 52, 95
5, 244800, Note_off_c, 6, 47, 95
5, 244800, Note_off_c, 6, 40, 95
5, 244800, Note_on_c, 6, 64, 95
5, 244800, Note_on_c, 6, 59, 95
5, 244800, Note_on_c, 6, 55, 95
5, 244800, Note_on_c, 6, 52, 95
5, 244800, Note_on_c, 6, 47, 95
5, 244800, Note_on_c, 6, 40, 95
5, 245280, Note_off_c, 6, 64, 95
5, 245280, Note_off_c, 6, 59, 95
5, 245280, Note_off_c, 6, 55, 95
5, 245280, Note_off_c, 6, 52, 95
5, 245280, Note_off_c, 6, 47, 95
5, 245280, Note_off_c, 6, 40, 95
5, 245280, Note_on_c, 6, 64, 95
5, 245280, Note_on_c, 6, 59, 95
5, 245280, Note_on_c, 6, 55, 95
5, 245280, Note_on_c, 6, 52, 95
5, 245280, Note_on_c, 6, 47, 95
5, 245280, Note_on_c, 6, 40, 95
5, 245520, Note_off_c, 6, 64, 95
5, 245520, Note_off_c, 6, 59, 95
5, 245520, Note_off_c, 6, 55, 95
5, 245520, Note_off_c, 6, 52, 95
5, 245520, Note_off_c, 6, 47, 95
5, 245520, Note_off_c, 6, 40, 95
5, 245520, Note_on_c, 6, 64, 95
5, 245520, Note_on_c, 6, 59, 95
5, 245520, Note_on_c, 6, 55, 95
5, 245520, Note_on_c, 6, 52, 95
5, 245520, Note_on_c, 6, 47, 95
5, 245520, Note_on_c, 6, 40, 95
5, 245760, Note_off_c, 6, 64, 95
5, 245760, Note_off_c, 6, 59, 95
5, 245760, Note_off_c, 6, 55, 95
5, 245760, Note_off_c, 6, 52, 95
5, 245760, Note_off_c, 6, 47, 95
5, 245760, Note_off_c, 6, 40, 95
5, 245760, Note_on_c, 6, 64, 95
5, 245760, Note_on_c, 6, 59, 95
5, 245760, Note_on_c, 6, 55, 95
5, 245760, Note_on_c, 6, 52, 95
5, 245760, Note_on_c, 6, 47, 95
5, 245760, Note_on_c, 6, 40, 95
5, 246000, Note_off_c, 6, 64, 95
5, 246000, Note_off_c, 6, 59, 95
5, 246000, Note_off_c, 6, 55, 95
5, 246000, Note_off_c, 6, 52, 95
5, 246000, Note_off_c, 6, 47, 95
5, 246000, Note_off_c, 6, 40, 95
5, 246000, Note_on_c, 6, 64, 95
5, 246000, Note_on_c, 6, 59, 95
5, 246000, Note_on_c, 6, 55, 95
5, 246000, Note_on_c, 6, 52, 95
5, 246000, Note_on_c, 6, 47, 95
5, 246000, Note_on_c, 6, 40, 95
5, 246240, Note_off_c, 6, 64, 95
5, 246240, Note_off_c, 6, 59, 95
5, 246240, Note_off_c, 6, 55, 95
5, 246240, Note_off_c, 6, 52, 95
5, 246240, Note_off_c, 6, 47, 95
5, 246240, Note_off_c, 6, 40, 95
5, 246240, Note_on_c, 6, 64, 95
5, 246240, Note_on_c, 6, 59, 95
5, 246240, Note_on_c, 6, 55, 95
5, 246240, Note_on_c, 6, 52, 95
5, 246240, Note_on_c, 6, 47, 95
5, 246240, Note_on_c, 6, 40, 95
5, 246720, Note_off_c, 6, 64, 95
5, 246720, Note_off_c, 6, 59, 95
5, 246720, Note_off_c, 6, 55, 95
5, 246720, Note_off_c, 6, 52, 95
5, 246720, Note_off_c, 6, 47, 95
5, 246720, Note_off_c, 6, 40, 95
5, 246720, Note_on_c, 6, 64, 111
5, 246720, Note_on_c, 6, 59, 111
5, 246720, Note_on_c, 6, 55, 111
5, 246720, Note_on_c, 6, 52, 111
5, 246720, Note_on_c, 6, 47, 111
5, 246720, Note_on_c, 6, 40, 111
5, 246960, Note_off_c, 6, 64, 111
5, 246960, Note_off_c, 6, 59, 111
5, 246960, Note_off_c, 6, 55, 111
5, 246960, Note_off_c, 6, 52, 111
5, 246960, Note_off_c, 6, 47, 111
5, 246960, Note_off_c, 6, 40, 111
5, 246960, Note_on_c, 6, 64, 95
5, 246960, Note_on_c, 6, 59, 95
5, 246960, Note_on_c, 6, 55, 95
5, 246960, Note_on_c, 6, 52, 95
5, 246960, Note_on_c, 6, 47, 95
5, 246960, Note_on_c, 6, 40, 95
5, 247200, Note_off_c, 6, 64, 95
5, 247200, Note_off_c, 6, 59, 95
5, 247200, Note_off_c, 6, 55, 95
5, 247200, Note_off_c, 6, 52, 95
5, 247200, Note_off_c, 6, 47, 95
5, 247200, Note_off_c, 6, 40, 95
5, 247200, Note_on_c, 6, 64, 95
5, 247200, Note_on_c, 6, 59, 95
5, 247200, Note_on_c, 6, 55, 95
5, 247200, Note_on_c, 6, 52, 95
5, 247200, Note_on_c, 6, 47, 95
5, 247200, Note_on_c, 6, 40, 95
5, 247440, Note_off_c, 6, 64, 95
5, 247440, Note_off_c, 6, 59, 95
5, 247440, Note_off_c, 6, 55, 95
5, 247440, Note_off_c, 6, 52, 95
5, 247440, Note_off_c, 6, 47, 95
5, 247440, Note_off_c, 6, 40, 95
5, 247440, Note_on_c, 6, 64, 95
5, 247440, Note_on_c, 6, 59, 95
5, 247440, Note_on_c, 6, 55, 95
5, 247440, Note_on_c, 6, 52, 95
5, 247440, Note_on_c, 6, 47, 95
5, 247440, Note_on_c, 6, 40, 95
5, 247680, Note_off_c, 6, 64, 95
5, 247680, Note_off_c, 6, 59, 95
5, 247680, Note_off_c, 6, 55, 95
5, 247680, Note_off_c, 6, 52, 95
5, 247680, Note_off_c, 6, 47, 95
5, 247680, Note_off_c, 6, 40, 95
5, 247680, Note_on_c, 6, 64, 95
5, 247680, Note_on_c, 6, 59, 95
5, 247680, Note_on_c, 6, 55, 95
5, 247680, Note_on_c, 6, 53, 95
5, 247680, Note_on_c, 6, 48, 95
5, 247680, Note_on_c, 6, 41, 95
5, 248160, Note_off_c, 6, 64, 95
5, 248160, Note_off_c, 6, 59, 95
5, 248160, Note_off_c, 6, 55, 95
5, 248160, Note_off_c, 6, 53, 95
5, 248160, Note_off_c, 6, 48, 95
5, 248160, Note_off_c, 6, 41, 95
5, 248160, Note_on_c, 6, 64, 95
5, 248160, Note_on_c, 6, 59, 95
5, 248160, Note_on_c, 6, 55, 95
5, 248160, Note_on_c, 6, 53, 95
5, 248160, Note_on_c, 6, 48, 95
5, 248160, Note_on_c, 6, 41, 95
5, 248400, Note_off_c, 6, 64, 95
5, 248400, Note_off_c, 6, 59, 95
5, 248400, Note_off_c, 6, 55, 95
5, 248400, Note_off_c, 6, 53, 95
5, 248400, Note_off_c, 6, 48, 95
5, 248400, Note_off_c, 6, 41, 95
5, 248400, Note_on_c, 6, 64, 95
5, 248400, Note_on_c, 6, 59, 95
5, 248400, Note_on_c, 6, 55, 95
5, 248400, Note_on_c, 6, 53, 95
5, 248400, Note_on_c, 6, 48, 95
5, 248400, Note_on_c, 6, 41, 95
5, 248640, Note_off_c, 6, 64, 95
5, 248640, Note_off_c, 6, 59, 95
5, 248640, Note_off_c, 6, 55, 95
5, 248640, Note_off_c, 6, 53, 95
5, 248640, Note_off_c, 6, 48, 95
5, 248640, Note_off_c, 6, 41, 95
5, 248640, Note_on_c, 6, 64, 95
5, 248640, Note_on_c, 6, 59, 95
5, 248640, Note_on_c, 6, 55, 95
5, 248640, Note_on_c, 6, 53, 95
5, 248640, Note_on_c, 6, 48, 95
5, 248640, Note_on_c, 6, 41, 95
5, 248880, Note_off_c, 6, 64, 95
5, 248880, Note_off_c, 6, 59, 95
5, 248880, Note_off_c, 6, 55, 95
5, 248880, Note_off_c, 6, 53, 95
5, 248880, Note_off_c, 6, 48, 95
5, 248880, Note_off_c, 6, 41, 95
5, 248880, Note_on_c, 6, 64, 95
5, 248880, Note_on_c, 6, 59, 95
5, 248880, Note_on_c, 6, 55, 95
5, 248880, Note_on_c, 6, 53, 95
5, 248880, Note_on_c, 6, 48, 95
5, 248880, Note_on_c, 6, 41, 95
5, 249120, Note_off_c, 6, 64, 95
5, 249120, Note_off_c, 6, 59, 95
5, 249120, Note_off_c, 6, 55, 95
5, 249120, Note_off_c, 6, 53, 95
5, 249120, Note_off_c, 6, 48, 95
5, 249120, Note_off_c, 6, 41, 95
5, 249120, Note_on_c, 6, 64, 95
5, 249120, Note_on_c, 6, 59, 95
5, 249120, Note_on_c, 6, 55, 95
5, 249120, Note_on_c, 6, 53, 95
5, 249120, Note_on_c, 6, 48, 95
5, 249120, Note_on_c, 6, 41, 95
5, 249600, Note_off_c, 6, 64, 95
5, 249600, Note_off_c, 6, 59, 95
5, 249600, Note_off_c, 6, 55, 95
5, 249600, Note_off_c, 6, 53, 95
5, 249600, Note_off_c, 6, 48, 95
5, 249600, Note_off_c, 6, 41, 95
5, 249600, Note_on_c, 6, 64, 111
5, 249600, Note_on_c, 6, 59, 111
5, 249600, Note_on_c, 6, 55, 111
5, 249600, Note_on_c, 6, 53, 111
5, 249600, Note_on_c, 6, 48, 111
5, 249600, Note_on_c, 6, 41, 111
5, 249840, Note_off_c, 6, 64, 111
5, 249840, Note_off_c, 6, 59, 111
5, 249840, Note_off_c, 6, 55, 111
5, 249840, Note_off_c, 6, 53, 111
5, 249840, Note_off_c, 6, 48, 111
5, 249840, Note_off_c, 6, 41, 111
5, 249840, Note_on_c, 6, 64, 95
5, 249840, Note_on_c, 6, 59, 95
5, 249840, Note_on_c, 6, 55, 95
5, 249840, Note_on_c, 6, 53, 95
5, 249840, Note_on_c, 6, 48, 95
5, 249840, Note_on_c, 6, 41, 95
5, 250080, Note_off_c, 6, 64, 95
5, 250080, Note_off_c, 6, 59, 95
5, 250080, Note_off_c, 6, 55, 95
5, 250080, Note_off_c, 6, 53, 95
5, 250080, Note_off_c, 6, 48, 95
5, 250080, Note_off_c, 6, 41, 95
5, 250080, Note_on_c, 6, 64, 95
5, 250080, Note_on_c, 6, 59, 95
5, 250080, Note_on_c, 6, 55, 95
5, 250080, Note_on_c, 6, 53, 95
5, 250080, Note_on_c, 6, 48, 95
5, 250080, Note_on_c, 6, 41, 95
5, 250320, Note_off_c, 6, 64, 95
5, 250320, Note_off_c, 6, 59, 95
5, 250320, Note_off_c, 6, 55, 95
5, 250320, Note_off_c, 6, 53, 95
5, 250320, Note_off_c, 6, 48, 95
5, 250320, Note_off_c, 6, 41, 95
5, 250320, Note_on_c, 6, 64, 95
5, 250320, Note_on_c, 6, 59, 95
5, 250320, Note_on_c, 6, 55, 95
5, 250320, Note_on_c, 6, 53, 95
5, 250320, Note_on_c, 6, 48, 95
5, 250320, Note_on_c, 6, 41, 95
5, 250560, Note_off_c, 6, 64, 95
5, 250560, Note_off_c, 6, 59, 95
5, 250560, Note_off_c, 6, 55, 95
5, 250560, Note_off_c, 6, 53, 95
5, 250560, Note_off_c, 6, 48, 95
5, 250560, Note_off_c, 6, 41, 95
5, 250560, Note_on_c, 6, 64, 95
5, 250560, Note_on_c, 6, 59, 95
5, 250560, Note_on_c, 6, 55, 95
5, 250560, Note_on_c, 6, 52, 95
5, 250560, Note_on_c, 6, 47, 95
5, 250560, Note_on_c, 6, 40, 95
5, 251040, Note_off_c, 6, 64, 95
5, 251040, Note_off_c, 6, 59, 95
5, 251040, Note_off_c, 6, 55, 95
5, 251040, Note_off_c, 6, 52, 95
5, 251040, Note_off_c, 6, 47, 95
5, 251040, Note_off_c, 6, 40, 95
5, 251040, Note_on_c, 6, 64, 95
5, 251040, Note_on_c, 6, 59, 95
5, 251040, Note_on_c, 6, 55, 95
5, 251040, Note_on_c, 6, 52, 95
5, 251040, Note_on_c, 6, 47, 95
5, 251040, Note_on_c, 6, 40, 95
5, 251280, Note_off_c, 6, 64, 95
5, 251280, Note_off_c, 6, 59, 95
5, 251280, Note_off_c, 6, 55, 95
5, 251280, Note_off_c, 6, 52, 95
5, 251280, Note_off_c, 6, 47, 95
5, 251280, Note_off_c, 6, 40, 95
5, 251280, Note_on_c, 6, 64, 95
5, 251280, Note_on_c, 6, 59, 95
5, 251280, Note_on_c, 6, 55, 95
5, 251280, Note_on_c, 6, 52, 95
5, 251280, Note_on_c, 6, 47, 95
5, 251280, Note_on_c, 6, 40, 95
5, 251520, Note_off_c, 6, 64, 95
5, 251520, Note_off_c, 6, 59, 95
5, 251520, Note_off_c, 6, 55, 95
5, 251520, Note_off_c, 6, 52, 95
5, 251520, Note_off_c, 6, 47, 95
5, 251520, Note_off_c, 6, 40, 95
5, 251520, Note_on_c, 6, 64, 95
5, 251520, Note_on_c, 6, 59, 95
5, 251520, Note_on_c, 6, 55, 95
5, 251520, Note_on_c, 6, 52, 95
5, 251520, Note_on_c, 6, 47, 95
5, 251520, Note_on_c, 6, 40, 95
5, 251760, Note_off_c, 6, 64, 95
5, 251760, Note_off_c, 6, 59, 95
5, 251760, Note_off_c, 6, 55, 95
5, 251760, Note_off_c, 6, 52, 95
5, 251760, Note_off_c, 6, 47, 95
5, 251760, Note_off_c, 6, 40, 95
5, 251760, Note_on_c, 6, 64, 95
5, 251760, Note_on_c, 6, 59, 95
5, 251760, Note_on_c, 6, 55, 95
5, 251760, Note_on_c, 6, 52, 95
5, 251760, Note_on_c, 6, 47, 95
5, 251760, Note_on_c, 6, 40, 95
5, 252000, Note_off_c, 6, 64, 95
5, 252000, Note_off_c, 6, 59, 95
5, 252000, Note_off_c, 6, 55, 95
5, 252000, Note_off_c, 6, 52, 95
5, 252000, Note_off_c, 6, 47, 95
5, 252000, Note_off_c, 6, 40, 95
5, 252000, Note_on_c, 6, 64, 95
5, 252000, Note_on_c, 6, 59, 95
5, 252000, Note_on_c, 6, 55, 95
5, 252000, Note_on_c, 6, 52, 95
5, 252000, Note_on_c, 6, 47, 95
5, 252000, Note_on_c, 6, 40, 95
5, 252480, Note_off_c, 6, 64, 95
5, 252480, Note_off_c, 6, 59, 95
5, 252480, Note_off_c, 6, 55, 95
5, 252480, Note_off_c, 6, 52, 95
5, 252480, Note_off_c, 6, 47, 95
5, 252480, Note_off_c, 6, 40, 95
5, 252480, Note_on_c, 6, 64, 111
5, 252480, Note_on_c, 6, 59, 111
5, 252480, Note_on_c, 6, 55, 111
5, 252480, Note_on_c, 6, 52, 111
5, 252480, Note_on_c, 6, 47, 111
5, 252480, Note_on_c, 6, 40, 111
5, 252720, Note_off_c, 6, 64, 111
5, 252720, Note_off_c, 6, 59, 111
5, 252720, Note_off_c, 6, 55, 111
5, 252720, Note_off_c, 6, 52, 111
5, 252720, Note_off_c, 6, 47, 111
5, 252720, Note_off_c, 6, 40, 111
5, 252720, Note_on_c, 6, 64, 95
5, 252720, Note_on_c, 6, 59, 95
5, 252720, Note_on_c, 6, 55, 95
5, 252720, Note_on_c, 6, 52, 95
5, 252720, Note_on_c, 6, 47, 95
5, 252720, Note_on_c, 6, 40, 95
5, 252960, Note_off_c, 6, 64, 95
5, 252960, Note_off_c, 6, 59, 95
5, 252960, Note_off_c, 6, 55, 95
5, 252960, Note_off_c, 6, 52, 95
5, 252960, Note_off_c, 6, 47, 95
5, 252960, Note_off_c, 6, 40, 95
5, 252960, Note_on_c, 6, 64, 95
5, 252960, Note_on_c, 6, 59, 95
5, 252960, Note_on_c, 6, 55, 95
5, 252960, Note_on_c, 6, 52, 95
5, 252960, Note_on_c, 6, 47, 95
5, 252960, Note_on_c, 6, 40, 95
5, 253200, Note_off_c, 6, 64, 95
5, 253200, Note_off_c, 6, 59, 95
5, 253200, Note_off_c, 6, 55, 95
5, 253200, Note_off_c, 6, 52, 95
5, 253200, Note_off_c, 6, 47, 95
5, 253200, Note_off_c, 6, 40, 95
5, 253200, Note_on_c, 6, 64, 95
5, 253200, Note_on_c, 6, 59, 95
5, 253200, Note_on_c, 6, 55, 95
5, 253200, Note_on_c, 6, 52, 95
5, 253200, Note_on_c, 6, 47, 95
5, 253200, Note_on_c, 6, 40, 95
5, 253440, Note_off_c, 6, 64, 95
5, 253440, Note_off_c, 6, 59, 95
5, 253440, Note_off_c, 6, 55, 95
5, 253440, Note_off_c, 6, 52, 95
5, 253440, Note_off_c, 6, 47, 95
5, 253440, Note_off_c, 6, 40, 95
5, 253440, Note_on_c, 6, 64, 95
5, 253440, Note_on_c, 6, 59, 95
5, 253440, Note_on_c, 6, 55, 95
5, 253440, Note_on_c, 6, 51, 95
5, 253440, Note_on_c, 6, 46, 95
5, 253440, Note_on_c, 6, 39, 95
5, 253920, Note_off_c, 6, 64, 95
5, 253920, Note_off_c, 6, 59, 95
5, 253920, Note_off_c, 6, 55, 95
5, 253920, Note_off_c, 6, 51, 95
5, 253920, Note_off_c, 6, 46, 95
5, 253920, Note_off_c, 6, 39, 95
5, 253920, Note_on_c, 6, 64, 95
5, 253920, Note_on_c, 6, 59, 95
5, 253920, Note_on_c, 6, 55, 95
5, 253920, Note_on_c, 6, 51, 95
5, 253920, Note_on_c, 6, 46, 95
5, 253920, Note_on_c, 6, 39, 95
5, 254160, Note_off_c, 6, 64, 95
5, 254160, Note_off_c, 6, 59, 95
5, 254160, Note_off_c, 6, 55, 95
5, 254160, Note_off_c, 6, 51, 95
5, 254160, Note_off_c, 6, 46, 95
5, 254160, Note_off_c, 6, 39, 95
5, 254160, Note_on_c, 6, 64, 95
5, 254160, Note_on_c, 6, 59, 95
5, 254160, Note_on_c, 6, 55, 95
5, 254160, Note_on_c, 6, 51, 95
5, 254160, Note_on_c, 6, 46, 95
5, 254160, Note_on_c, 6, 39, 95
5, 254400, Note_off_c, 6, 64, 95
5, 254400, Note_off_c, 6, 59, 95
5, 254400, Note_off_c, 6, 55, 95
5, 254400, Note_off_c, 6, 51, 95
5, 254400, Note_off_c, 6, 46, 95
5, 254400, Note_off_c, 6, 39, 95
5, 254400, Note_on_c, 6, 64, 95
5, 254400, Note_on_c, 6, 59, 95
5, 254400, Note_on_c, 6, 55, 95
5, 254400, Note_on_c, 6, 51, 95
5, 254400, Note_on_c, 6, 46, 95
5, 254400, Note_on_c, 6, 39, 95
5, 254640, Note_off_c, 6, 64, 95
5, 254640, Note_off_c, 6, 59, 95
5, 254640, Note_off_c, 6, 55, 95
5, 254640, Note_off_c, 6, 51, 95
5, 254640, Note_off_c, 6, 46, 95
5, 254640, Note_off_c, 6, 39, 95
5, 254640, Note_on_c, 6, 64, 95
5, 254640, Note_on_c, 6, 59, 95
5, 254640, Note_on_c, 6, 55, 95
5, 254640, Note_on_c, 6, 51, 95
5, 254640, Note_on_c, 6, 46, 95
5, 254640, Note_on_c, 6, 39, 95
5, 254880, Note_off_c, 6, 64, 95
5, 254880, Note_off_c, 6, 59, 95
5, 254880, Note_off_c, 6, 55, 95
5, 254880, Note_off_c, 6, 51, 95
5, 254880, Note_off_c, 6, 46, 95
5, 254880, Note_off_c, 6, 39, 95
5, 254880, Note_on_c, 6, 64, 95
5, 254880, Note_on_c, 6, 59, 95
5, 254880, Note_on_c, 6, 55, 95
5, 254880, Note_on_c, 6, 51, 95
5, 254880, Note_on_c, 6, 46, 95
5, 254880, Note_on_c, 6, 39, 95
5, 255360, Note_off_c, 6, 64, 95
5, 255360, Note_off_c, 6, 59, 95
5, 255360, Note_off_c, 6, 55, 95
5, 255360, Note_off_c, 6, 51, 95
5, 255360, Note_off_c, 6, 46, 95
5, 255360, Note_off_c, 6, 39, 95
5, 255360, Note_on_c, 6, 64, 111
5, 255360, Note_on_c, 6, 59, 111
5, 255360, Note_on_c, 6, 55, 111
5, 255360, Note_on_c, 6, 51, 111
5, 255360, Note_on_c, 6, 46, 111
5, 255360, Note_on_c, 6, 39, 111
5, 255600, Note_off_c, 6, 64, 111
5, 255600, Note_off_c, 6, 59, 111
5, 255600, Note_off_c, 6, 55, 111
5, 255600, Note_off_c, 6, 51, 111
5, 255600, Note_off_c, 6, 46, 111
5, 255600, Note_off_c, 6, 39, 111
5, 255600, Note_on_c, 6, 64, 95
5, 255600, Note_on_c, 6, 59, 95
5, 255600, Note_on_c, 6, 55, 95
5, 255600, Note_on_c, 6, 51, 95
5, 255600, Note_on_c, 6, 46, 95
5, 255600, Note_on_c, 6, 39, 95
5, 255840, Note_off_c, 6, 64, 95
5, 255840, Note_off_c, 6, 59, 95
5, 255840, Note_off_c, 6, 55, 95
5, 255840, Note_off_c, 6, 51, 95
5, 255840, Note_off_c, 6, 46, 95
5, 255840, Note_off_c, 6, 39, 95
5, 255840, Note_on_c, 6, 64, 95
5, 255840, Note_on_c, 6, 59, 95
5, 255840, Note_on_c, 6, 55, 95
5, 255840, Note_on_c, 6, 51, 95
5, 255840, Note_on_c, 6, 46, 95
5, 255840, Note_on_c, 6, 39, 95
5, 256080, Note_off_c, 6, 64, 95
5, 256080, Note_off_c, 6, 59, 95
5, 256080, Note_off_c, 6, 55, 95
5, 256080, Note_off_c, 6, 51, 95
5, 256080, Note_off_c, 6, 46, 95
5, 256080, Note_off_c, 6, 39, 95
5, 256080, Note_on_c, 6, 64, 95
5, 256080, Note_on_c, 6, 59, 95
5, 256080, Note_on_c, 6, 55, 95
5, 256080, Note_on_c, 6, 51, 95
5, 256080, Note_on_c, 6, 46, 95
5, 256080, Note_on_c, 6, 39, 95
5, 256320, Note_off_c, 6, 64, 95
5, 256320, Note_off_c, 6, 59, 95
5, 256320, Note_off_c, 6, 55, 95
5, 256320, Note_off_c, 6, 51, 95
5, 256320, Note_off_c, 6, 46, 95
5, 256320, Note_off_c, 6, 39, 95
5, 256320, Note_on_c, 6, 64, 95
5, 256320, Note_on_c, 6, 59, 95
5, 256320, Note_on_c, 6, 55, 95
5, 256320, Note_on_c, 6, 51, 95
5, 256320, Note_on_c, 6, 46, 95
5, 256320, Note_on_c, 6, 39, 95
5, 256800, Note_off_c, 6, 64, 95
5, 256800, Note_off_c, 6, 59, 95
5, 256800, Note_off_c, 6, 55, 95
5, 256800, Note_off_c, 6, 51, 95
5, 256800, Note_off_c, 6, 46, 95
5, 256800, Note_off_c, 6, 39, 95
5, 256800, Note_on_c, 6, 64, 95
5, 256800, Note_on_c, 6, 59, 95
5, 256800, Note_on_c, 6, 55, 95
5, 256800, Note_on_c, 6, 51, 95
5, 256800, Note_on_c, 6, 46, 95
5, 256800, Note_on_c, 6, 39, 95
5, 257040, Note_off_c, 6, 64, 95
5, 257040, Note_off_c, 6, 59, 95
5, 257040, Note_off_c, 6, 55, 95
5, 257040, Note_off_c, 6, 51, 95
5, 257040, Note_off_c, 6, 46, 95
5, 257040, Note_off_c, 6, 39, 95
5, 257040, Note_on_c, 6, 64, 95
5, 257040, Note_on_c, 6, 59, 95
5, 257040, Note_on_c, 6, 55, 95
5, 257040, Note_on_c, 6, 51, 95
5, 257040, Note_on_c, 6, 46, 95
5, 257040, Note_on_c, 6, 39, 95
5, 257280, Note_off_c, 6, 64, 95
5, 257280, Note_off_c, 6, 59, 95
5, 257280, Note_off_c, 6, 55, 95
5, 257280, Note_off_c, 6, 51, 95
5, 257280, Note_off_c, 6, 46, 95
5, 257280, Note_off_c, 6, 39, 95
5, 257280, Note_on_c, 6, 64, 95
5, 257280, Note_on_c, 6, 59, 95
5, 257280, Note_on_c, 6, 55, 95
5, 257280, Note_on_c, 6, 51, 95
5, 257280, Note_on_c, 6, 46, 95
5, 257280, Note_on_c, 6, 39, 95
5, 257520, Note_off_c, 6, 64, 95
5, 257520, Note_off_c, 6, 59, 95
5, 257520, Note_off_c, 6, 55, 95
5, 257520, Note_off_c, 6, 51, 95
5, 257520, Note_off_c, 6, 46, 95
5, 257520, Note_off_c, 6, 39, 95
5, 257520, Note_on_c, 6, 64, 95
5, 257520, Note_on_c, 6, 59, 95
5, 257520, Note_on_c, 6, 55, 95
5, 257520, Note_on_c, 6, 51, 95
5, 257520, Note_on_c, 6, 46, 95
5, 257520, Note_on_c, 6, 39, 95
5, 257760, Note_off_c, 6, 64, 95
5, 257760, Note_off_c, 6, 59, 95
5, 257760, Note_off_c, 6, 55, 95
5, 257760, Note_off_c, 6, 51, 95
5, 257760, Note_off_c, 6, 46, 95
5, 257760, Note_off_c, 6, 39, 95
5, 257760, Note_on_c, 6, 64, 95
5, 257760, Note_on_c, 6, 59, 95
5, 257760, Note_on_c, 6, 55, 95
5, 257760, Note_on_c, 6, 51, 95
5, 257760, Note_on_c, 6, 46, 95
5, 257760, Note_on_c, 6, 39, 95
5, 258240, Note_off_c, 6, 64, 95
5, 258240, Note_off_c, 6, 59, 95
5, 258240, Note_off_c, 6, 55, 95
5, 258240, Note_off_c, 6, 51, 95
5, 258240, Note_off_c, 6, 46, 95
5, 258240, Note_off_c, 6, 39, 95
5, 258240, Note_on_c, 6, 64, 111
5, 258240, Note_on_c, 6, 59, 111
5, 258240, Note_on_c, 6, 55, 111
5, 258240, Note_on_c, 6, 51, 111
5, 258240, Note_on_c, 6, 46, 111
5, 258240, Note_on_c, 6, 39, 111
5, 258480, Note_off_c, 6, 64, 111
5, 258480, Note_off_c, 6, 59, 111
5, 258480, Note_off_c, 6, 55, 111
5, 258480, Note_off_c, 6, 51, 111
5, 258480, Note_off_c, 6, 46, 111
5, 258480, Note_off_c, 6, 39, 111
5, 258480, Note_on_c, 6, 64, 95
5, 258480, Note_on_c, 6, 59, 95
5, 258480, Note_on_c, 6, 55, 95
5, 258480, Note_on_c, 6, 51, 95
5, 258480, Note_on_c, 6, 46, 95
5, 258480, Note_on_c, 6, 39, 95
5, 258720, Note_off_c, 6, 64, 95
5, 258720, Note_off_c, 6, 59, 95
5, 258720, Note_off_c, 6, 55, 95
5, 258720, Note_off_c, 6, 51, 95
5, 258720, Note_off_c, 6, 46, 95
5, 258720, Note_off_c, 6, 39, 95
5, 258720, Note_on_c, 6, 64, 95
5, 258720, Note_on_c, 6, 59, 95
5, 258720, Note_on_c, 6, 55, 95
5, 258720, Note_on_c, 6, 51, 95
5, 258720, Note_on_c, 6, 46, 95
5, 258720, Note_on_c, 6, 39, 95
5, 258960, Note_off_c, 6, 64, 95
5, 258960, Note_off_c, 6, 59, 95
5, 258960, Note_off_c, 6, 55, 95
5, 258960, Note_off_c, 6, 51, 95
5, 258960, Note_off_c, 6, 46, 95
5, 258960, Note_off_c, 6, 39, 95
5, 258960, Note_on_c, 6, 64, 95
5, 258960, Note_on_c, 6, 59, 95
5, 258960, Note_on_c, 6, 55, 95
5, 258960, Note_on_c, 6, 51, 95
5, 258960, Note_on_c, 6, 46, 95
5, 258960, Note_on_c, 6, 39, 95
5, 259200, Note_off_c, 6, 64, 95
5, 259200, Note_off_c, 6, 59, 95
5, 259200, Note_off_c, 6, 55, 95
5, 259200, Note_off_c, 6, 51, 95
5, 259200, Note_off_c, 6, 46, 95
5, 259200, Note_off_c, 6, 39, 95
5, 259200, Note_on_c, 6, 64, 95
5, 259200, Note_on_c, 6, 59, 95
5, 259200, Note_on_c, 6, 55, 95
5, 259200, Note_on_c, 6, 53, 95
5, 259200, Note_on_c, 6, 48, 95
5, 259200, Note_on_c, 6, 41, 95
5, 259680, Note_off_c, 6, 64, 95
5, 259680, Note_off_c, 6, 59, 95
5, 259680, Note_off_c, 6, 55, 95
5, 259680, Note_off_c, 6, 53, 95
5, 259680, Note_off_c, 6, 48, 95
5, 259680, Note_off_c, 6, 41, 95
5, 259680, Note_on_c, 6, 64, 95
5, 259680, Note_on_c, 6, 59, 95
5, 259680, Note_on_c, 6, 55, 95
5, 259680, Note_on_c, 6, 53, 95
5, 259680, Note_on_c, 6, 48, 95
5, 259680, Note_on_c, 6, 41, 95
5, 259920, Note_off_c, 6, 64, 95
5, 259920, Note_off_c, 6, 59, 95
5, 259920, Note_off_c, 6, 55, 95
5, 259920, Note_off_c, 6, 53, 95
5, 259920, Note_off_c, 6, 48, 95
5, 259920, Note_off_c, 6, 41, 95
5, 259920, Note_on_c, 6, 64, 95
5, 259920, Note_on_c, 6, 59, 95
5, 259920, Note_on_c, 6, 55, 95
5, 259920, Note_on_c, 6, 53, 95
5, 259920, Note_on_c, 6, 48, 95
5, 259920, Note_on_c, 6, 41, 95
5, 260160, Note_off_c, 6, 64, 95
5, 260160, Note_off_c, 6, 59, 95
5, 260160, Note_off_c, 6, 55, 95
5, 260160, Note_off_c, 6, 53, 95
5, 260160, Note_off_c, 6, 48, 95
5, 260160, Note_off_c, 6, 41, 95
5, 260160, Note_on_c, 6, 64, 95
5, 260160, Note_on_c, 6, 59, 95
5, 260160, Note_on_c, 6, 55, 95
5, 260160, Note_on_c, 6, 53, 95
5, 260160, Note_on_c, 6, 48, 95
5, 260160, Note_on_c, 6, 41, 95
5, 260400, Note_off_c, 6, 64, 95
5, 260400, Note_off_c, 6, 59, 95
5, 260400, Note_off_c, 6, 55, 95
5, 260400, Note_off_c, 6, 53, 95
5, 260400, Note_off_c, 6, 48, 95
5, 260400, Note_off_c, 6, 41, 95
5, 260400, Note_on_c, 6, 64, 95
5, 260400, Note_on_c, 6, 59, 95
5, 260400, Note_on_c, 6, 55, 95
5, 260400, Note_on_c, 6, 53, 95
5, 260400, Note_on_c, 6, 48, 95
5, 260400, Note_on_c, 6, 41, 95
5, 260640, Note_off_c, 6, 64, 95
5, 260640, Note_off_c, 6, 59, 95
5, 260640, Note_off_c, 6, 55, 95
5, 260640, Note_off_c, 6, 53, 95
5, 260640, Note_off_c, 6, 48, 95
5, 260640, Note_off_c, 6, 41, 95
5, 260640, Note_on_c, 6, 64, 95
5, 260640, Note_on_c, 6, 59, 95
5, 260640, Note_on_c, 6, 55, 95
5, 260640, Note_on_c, 6, 53, 95
5, 260640, Note_on_c, 6, 48, 95
5, 260640, Note_on_c, 6, 41, 95
5, 261120, Note_off_c, 6, 64, 95
5, 261120, Note_off_c, 6, 59, 95
5, 261120, Note_off_c, 6, 55, 95
5, 261120, Note_off_c, 6, 53, 95
5, 261120, Note_off_c, 6, 48, 95
5, 261120, Note_off_c, 6, 41, 95
5, 261120, Note_on_c, 6, 64, 111
5, 261120, Note_on_c, 6, 59, 111
5, 261120, Note_on_c, 6, 55, 111
5, 261120, Note_on_c, 6, 53, 111
5, 261120, Note_on_c, 6, 48, 111
5, 261120, Note_on_c, 6, 41, 111
5, 261360, Note_off_c, 6, 64, 111
5, 261360, Note_off_c, 6, 59, 111
5, 261360, Note_off_c, 6, 55, 111
5, 261360, Note_off_c, 6, 53, 111
5, 261360, Note_off_c, 6, 48, 111
5, 261360, Note_off_c, 6, 41, 111
5, 261360, Note_on_c, 6, 64, 95
5, 261360, Note_on_c, 6, 59, 95
5, 261360, Note_on_c, 6, 55, 95
5, 261360, Note_on_c, 6, 53, 95
5, 261360, Note_on_c, 6, 48, 95
5, 261360, Note_on_c, 6, 41, 95
5, 261600, Note_off_c, 6, 64, 95
5, 261600, Note_off_c, 6, 59, 95
5, 261600, Note_off_c, 6, 55, 95
5, 261600, Note_off_c, 6, 53, 95
5, 261600, Note_off_c, 6, 48, 95
5, 261600, Note_off_c, 6, 41, 95
5, 261600, Note_on_c, 6, 64, 95
5, 261600, Note_on_c, 6, 59, 95
5, 261600, Note_on_c, 6, 55, 95
5, 261600, Note_on_c, 6, 53, 95
5, 261600, Note_on_c, 6, 48, 95
5, 261600, Note_on_c, 6, 41, 95
5, 261840, Note_off_c, 6, 64, 95
5, 261840, Note_off_c, 6, 59, 95
5, 261840, Note_off_c, 6, 55, 95
5, 261840, Note_off_c, 6, 53, 95
5, 261840, Note_off_c, 6, 48, 95
5, 261840, Note_off_c, 6, 41, 95
5, 261840, Note_on_c, 6, 64, 95
5, 261840, Note_on_c, 6, 59, 95
5, 261840, Note_on_c, 6, 55, 95
5, 261840, Note_on_c, 6, 53, 95
5, 261840, Note_on_c, 6, 48, 95
5, 261840, Note_on_c, 6, 41, 95
5, 262080, Note_off_c, 6, 64, 95
5, 262080, Note_off_c, 6, 59, 95
5, 262080, Note_off_c, 6, 55, 95
5, 262080, Note_off_c, 6, 53, 95
5, 262080, Note_off_c, 6, 48, 95
5, 262080, Note_off_c, 6, 41, 95
5, 262080, Note_on_c, 6, 64, 95
5, 262080, Note_on_c, 6, 59, 95
5, 262080, Note_on_c, 6, 55, 95
5, 262080, Note_on_c, 6, 52, 95
5, 262080, Note_on_c, 6, 47, 95
5, 262080, Note_on_c, 6, 40, 95
5, 262560, Note_off_c, 6, 64, 95
5, 262560, Note_off_c, 6, 59, 95
5, 262560, Note_off_c, 6, 55, 95
5, 262560, Note_off_c, 6, 52, 95
5, 262560, Note_off_c, 6, 47, 95
5, 262560, Note_off_c, 6, 40, 95
5, 262560, Note_on_c, 6, 64, 95
5, 262560, Note_on_c, 6, 59, 95
5, 262560, Note_on_c, 6, 55, 95
5, 262560, Note_on_c, 6, 52, 95
5, 262560, Note_on_c, 6, 47, 95
5, 262560, Note_on_c, 6, 40, 95
5, 262800, Note_off_c, 6, 64, 95
5, 262800, Note_off_c, 6, 59, 95
5, 262800, Note_off_c, 6, 55, 95
5, 262800, Note_off_c, 6, 52, 95
5, 262800, Note_off_c, 6, 47, 95
5, 262800, Note_off_c, 6, 40, 95
5, 262800, Note_on_c, 6, 64, 95
5, 262800, Note_on_c, 6, 59, 95
5, 262800, Note_on_c, 6, 55, 95
5, 262800, Note_on_c, 6, 52, 95
5, 262800, Note_on_c, 6, 47, 95
5, 262800, Note_on_c, 6, 40, 95
5, 263040, Note_off_c, 6, 64, 95
5, 263040, Note_off_c, 6, 59, 95
5, 263040, Note_off_c, 6, 55, 95
5, 263040, Note_off_c, 6, 52, 95
5, 263040, Note_off_c, 6, 47, 95
5, 263040, Note_off_c, 6, 40, 95
5, 263040, Note_on_c, 6, 64, 95
5, 263040, Note_on_c, 6, 59, 95
5, 263040, Note_on_c, 6, 55, 95
5, 263040, Note_on_c, 6, 52, 95
5, 263040, Note_on_c, 6, 47, 95
5, 263040, Note_on_c, 6, 40, 95
5, 263280, Note_off_c, 6, 64, 95
5, 263280, Note_off_c, 6, 59, 95
5, 263280, Note_off_c, 6, 55, 95
5, 263280, Note_off_c, 6, 52, 95
5, 263280, Note_off_c, 6, 47, 95
5, 263280, Note_off_c, 6, 40, 95
5, 263280, Note_on_c, 6, 64, 95
5, 263280, Note_on_c, 6, 59, 95
5, 263280, Note_on_c, 6, 55, 95
5, 263280, Note_on_c, 6, 52, 95
5, 263280, Note_on_c, 6, 47, 95
5, 263280, Note_on_c, 6, 40, 95
5, 263520, Note_off_c, 6, 64, 95
5, 263520, Note_off_c, 6, 59, 95
5, 263520, Note_off_c, 6, 55, 95
5, 263520, Note_off_c, 6, 52, 95
5, 263520, Note_off_c, 6, 47, 95
5, 263520, Note_off_c, 6, 40, 95
5, 263520, Note_on_c, 6, 64, 95
5, 263520, Note_on_c, 6, 59, 95
5, 263520, Note_on_c, 6, 55, 95
5, 263520, Note_on_c, 6, 52, 95
5, 263520, Note_on_c, 6, 47, 95
5, 263520, Note_on_c, 6, 40, 95
5, 264000, Note_off_c, 6, 64, 95
5, 264000, Note_off_c, 6, 59, 95
5, 264000, Note_off_c, 6, 55, 95
5, 264000, Note_off_c, 6, 52, 95
5, 264000, Note_off_c, 6, 47, 95
5, 264000, Note_off_c, 6, 40, 95
5, 264000, Note_on_c, 6, 64, 111
5, 264000, Note_on_c, 6, 59, 111
5, 264000, Note_on_c, 6, 55, 111
5, 264000, Note_on_c, 6, 52, 111
5, 264000, Note_on_c, 6, 47, 111
5, 264000, Note_on_c, 6, 40, 111
5, 264240, Note_off_c, 6, 64, 111
5, 264240, Note_off_c, 6, 59, 111
5, 264240, Note_off_c, 6, 55, 111
5, 264240, Note_off_c, 6, 52, 111
5, 264240, Note_off_c, 6, 47, 111
5, 264240, Note_off_c, 6, 40, 111
5, 264240, Note_on_c, 6, 64, 95
5, 264240, Note_on_c, 6, 59, 95
5, 264240, Note_on_c, 6, 55, 95
5, 264240, Note_on_c, 6, 52, 95
5, 264240, Note_on_c, 6, 47, 95
5, 264240, Note_on_c, 6, 40, 95
5, 264480, Note_off_c, 6, 64, 95
5, 264480, Note_off_c, 6, 59, 95
5, 264480, Note_off_c, 6, 55, 95
5, 264480, Note_off_c, 6, 52, 95
5, 264480, Note_off_c, 6, 47, 95
5, 264480, Note_off_c, 6, 40, 95
5, 264480, Note_on_c, 6, 64, 95
5, 264480, Note_on_c, 6, 59, 95
5, 264480, Note_on_c, 6, 55, 95
5, 264480, Note_on_c, 6, 52, 95
5, 264480, Note_on_c, 6, 47, 95
5, 264480, Note_on_c, 6, 40, 95
5, 264720, Note_off_c, 6, 64, 95
5, 264720, Note_off_c, 6, 59, 95
5, 264720, Note_off_c, 6, 55, 95
5, 264720, Note_off_c, 6, 52, 95
5, 264720, Note_off_c, 6, 47, 95
5, 264720, Note_off_c, 6, 40, 95
5, 264720, Note_on_c, 6, 64, 95
5, 264720, Note_on_c, 6, 59, 95
5, 264720, Note_on_c, 6, 55, 95
5, 264720, Note_on_c, 6, 52, 95
5, 264720, Note_on_c, 6, 47, 95
5, 264720, Note_on_c, 6, 40, 95
5, 264960, Note_off_c, 6, 64, 95
5, 264960, Note_off_c, 6, 59, 95
5, 264960, Note_off_c, 6, 55, 95
5, 264960, Note_off_c, 6, 52, 95
5, 264960, Note_off_c, 6, 47, 95
5, 264960, Note_off_c, 6, 40, 95
5, 264960, Note_on_c, 6, 64, 95
5, 264960, Note_on_c, 6, 59, 95
5, 264960, Note_on_c, 6, 55, 95
5, 264960, Note_on_c, 6, 51, 95
5, 264960, Note_on_c, 6, 46, 95
5, 264960, Note_on_c, 6, 39, 95
5, 265440, Note_off_c, 6, 64, 95
5, 265440, Note_off_c, 6, 59, 95
5, 265440, Note_off_c, 6, 55, 95
5, 265440, Note_off_c, 6, 51, 95
5, 265440, Note_off_c, 6, 46, 95
5, 265440, Note_off_c, 6, 39, 95
5, 265440, Note_on_c, 6, 64, 95
5, 265440, Note_on_c, 6, 59, 95
5, 265440, Note_on_c, 6, 55, 95
5, 265440, Note_on_c, 6, 51, 95
5, 265440, Note_on_c, 6, 46, 95
5, 265440, Note_on_c, 6, 39, 95
5, 265680, Note_off_c, 6, 64, 95
5, 265680, Note_off_c, 6, 59, 95
5, 265680, Note_off_c, 6, 55, 95
5, 265680, Note_off_c, 6, 51, 95
5, 265680, Note_off_c, 6, 46, 95
5, 265680, Note_off_c, 6, 39, 95
5, 265680, Note_on_c, 6, 64, 95
5, 265680, Note_on_c, 6, 59, 95
5, 265680, Note_on_c, 6, 55, 95
5, 265680, Note_on_c, 6, 51, 95
5, 265680, Note_on_c, 6, 46, 95
5, 265680, Note_on_c, 6, 39, 95
5, 265920, Note_off_c, 6, 64, 95
5, 265920, Note_off_c, 6, 59, 95
5, 265920, Note_off_c, 6, 55, 95
5, 265920, Note_off_c, 6, 51, 95
5, 265920, Note_off_c, 6, 46, 95
5, 265920, Note_off_c, 6, 39, 95
5, 265920, Note_on_c, 6, 64, 95
5, 265920, Note_on_c, 6, 59, 95
5, 265920, Note_on_c, 6, 55, 95
5, 265920, Note_on_c, 6, 51, 95
5, 265920, Note_on_c, 6, 46, 95
5, 265920, Note_on_c, 6, 39, 95
5, 266160, Note_off_c, 6, 64, 95
5, 266160, Note_off_c, 6, 59, 95
5, 266160, Note_off_c, 6, 55, 95
5, 266160, Note_off_c, 6, 51, 95
5, 266160, Note_off_c, 6, 46, 95
5, 266160, Note_off_c, 6, 39, 95
5, 266160, Note_on_c, 6, 64, 95
5, 266160, Note_on_c, 6, 59, 95
5, 266160, Note_on_c, 6, 55, 95
5, 266160, Note_on_c, 6, 51, 95
5, 266160, Note_on_c, 6, 46, 95
5, 266160, Note_on_c, 6, 39, 95
5, 266400, Note_off_c, 6, 64, 95
5, 266400, Note_off_c, 6, 59, 95
5, 266400, Note_off_c, 6, 55, 95
5, 266400, Note_off_c, 6, 51, 95
5, 266400, Note_off_c, 6, 46, 95
5, 266400, Note_off_c, 6, 39, 95
5, 266400, Note_on_c, 6, 64, 95
5, 266400, Note_on_c, 6, 59, 95
5, 266400, Note_on_c, 6, 55, 95
5, 266400, Note_on_c, 6, 51, 95
5, 266400, Note_on_c, 6, 46, 95
5, 266400, Note_on_c, 6, 39, 95
5, 266880, Note_off_c, 6, 64, 95
5, 266880, Note_off_c, 6, 59, 95
5, 266880, Note_off_c, 6, 55, 95
5, 266880, Note_off_c, 6, 51, 95
5, 266880, Note_off_c, 6, 46, 95
5, 266880, Note_off_c, 6, 39, 95
5, 266880, Note_on_c, 6, 64, 111
5, 266880, Note_on_c, 6, 59, 111
5, 266880, Note_on_c, 6, 55, 111
5, 266880, Note_on_c, 6, 51, 111
5, 266880, Note_on_c, 6, 46, 111
5, 266880, Note_on_c, 6, 39, 111
5, 267120, Note_off_c, 6, 64, 111
5, 267120, Note_off_c, 6, 59, 111
5, 267120, Note_off_c, 6, 55, 111
5, 267120, Note_off_c, 6, 51, 111
5, 267120, Note_off_c, 6, 46, 111
5, 267120, Note_off_c, 6, 39, 111
5, 267120, Note_on_c, 6, 64, 95
5, 267120, Note_on_c, 6, 59, 95
5, 267120, Note_on_c, 6, 55, 95
5, 267120, Note_on_c, 6, 51, 95
5, 267120, Note_on_c, 6, 46, 95
5, 267120, Note_on_c, 6, 39, 95
5, 267360, Note_off_c, 6, 64, 95
5, 267360, Note_off_c, 6, 59, 95
5, 267360, Note_off_c, 6, 55, 95
5, 267360, Note_off_c, 6, 51, 95
5, 267360, Note_off_c, 6, 46, 95
5, 267360, Note_off_c, 6, 39, 95
5, 267360, Note_on_c, 6, 64, 95
5, 267360, Note_on_c, 6, 59, 95
5, 267360, Note_on_c, 6, 55, 95
5, 267360, Note_on_c, 6, 51, 95
5, 267360, Note_on_c, 6, 46, 95
5, 267360, Note_on_c, 6, 39, 95
5, 267600, Note_off_c, 6, 64, 95
5, 267600, Note_off_c, 6, 59, 95
5, 267600, Note_off_c, 6, 55, 95
5, 267600, Note_off_c, 6, 51, 95
5, 267600, Note_off_c, 6, 46, 95
5, 267600, Note_off_c, 6, 39, 95
5, 267600, Note_on_c, 6, 64, 95
5, 267600, Note_on_c, 6, 59, 95
5, 267600, Note_on_c, 6, 55, 95
5, 267600, Note_on_c, 6, 51, 95
5, 267600, Note_on_c, 6, 46, 95
5, 267600, Note_on_c, 6, 39, 95
5, 267840, Note_off_c, 6, 64, 95
5, 267840, Note_off_c, 6, 59, 95
5, 267840, Note_off_c, 6, 55, 95
5, 267840, Note_off_c, 6, 51, 95
5, 267840, Note_off_c, 6, 46, 95
5, 267840, Note_off_c, 6, 39, 95
5, 267840, Note_on_c, 6, 64, 95
5, 267840, Note_on_c, 6, 59, 95
5, 267840, Note_on_c, 6, 55, 95
5, 267840, Note_on_c, 6, 51, 95
5, 267840, Note_on_c, 6, 46, 95
5, 267840, Note_on_c, 6, 39, 95
5, 268320, Note_off_c, 6, 64, 95
5, 268320, Note_off_c, 6, 59, 95
5, 268320, Note_off_c, 6, 55, 95
5, 268320, Note_off_c, 6, 51, 95
5, 268320, Note_off_c, 6, 46, 95
5, 268320, Note_off_c, 6, 39, 95
5, 268320, Note_on_c, 6, 64, 95
5, 268320, Note_on_c, 6, 59, 95
5, 268320, Note_on_c, 6, 55, 95
5, 268320, Note_on_c, 6, 51, 95
5, 268320, Note_on_c, 6, 46, 95
5, 268320, Note_on_c, 6, 39, 95
5, 268560, Note_off_c, 6, 64, 95
5, 268560, Note_off_c, 6, 59, 95
5, 268560, Note_off_c, 6, 55, 95
5, 268560, Note_off_c, 6, 51, 95
5, 268560, Note_off_c, 6, 46, 95
5, 268560, Note_off_c, 6, 39, 95
5, 268560, Note_on_c, 6, 64, 95
5, 268560, Note_on_c, 6, 59, 95
5, 268560, Note_on_c, 6, 55, 95
5, 268560, Note_on_c, 6, 51, 95
5, 268560, Note_on_c, 6, 46, 95
5, 268560, Note_on_c, 6, 39, 95
5, 268800, Note_off_c, 6, 64, 95
5, 268800, Note_off_c, 6, 59, 95
5, 268800, Note_off_c, 6, 55, 95
5, 268800, Note_off_c, 6, 51, 95
5, 268800, Note_off_c, 6, 46, 95
5, 268800, Note_off_c, 6, 39, 95
5, 268800, Note_on_c, 6, 64, 95
5, 268800, Note_on_c, 6, 59, 95
5, 268800, Note_on_c, 6, 55, 95
5, 268800, Note_on_c, 6, 51, 95
5, 268800, Note_on_c, 6, 46, 95
5, 268800, Note_on_c, 6, 39, 95
5, 269040, Note_off_c, 6, 64, 95
5, 269040, Note_off_c, 6, 59, 95
5, 269040, Note_off_c, 6, 55, 95
5, 269040, Note_off_c, 6, 51, 95
5, 269040, Note_off_c, 6, 46, 95
5, 269040, Note_off_c, 6, 39, 95
5, 269040, Note_on_c, 6, 64, 95
5, 269040, Note_on_c, 6, 59, 95
5, 269040, Note_on_c, 6, 55, 95
5, 269040, Note_on_c, 6, 51, 95
5, 269040, Note_on_c, 6, 46, 95
5, 269040, Note_on_c, 6, 39, 95
5, 269280, Note_off_c, 6, 64, 95
5, 269280, Note_off_c, 6, 59, 95
5, 269280, Note_off_c, 6, 55, 95
5, 269280, Note_off_c, 6, 51, 95
5, 269280, Note_off_c, 6, 46, 95
5, 269280, Note_off_c, 6, 39, 95
5, 269280, Note_on_c, 6, 64, 95
5, 269280, Note_on_c, 6, 59, 95
5, 269280, Note_on_c, 6, 55, 95
5, 269280, Note_on_c, 6, 51, 95
5, 269280, Note_on_c, 6, 46, 95
5, 269280, Note_on_c, 6, 39, 95
5, 269760, Note_off_c, 6, 64, 95
5, 269760, Note_off_c, 6, 59, 95
5, 269760, Note_off_c, 6, 55, 95
5, 269760, Note_off_c, 6, 51, 95
5, 269760, Note_off_c, 6, 46, 95
5, 269760, Note_off_c, 6, 39, 95
5, 269760, Note_on_c, 6, 64, 111
5, 269760, Note_on_c, 6, 59, 111
5, 269760, Note_on_c, 6, 55, 111
5, 269760, Note_on_c, 6, 51, 111
5, 269760, Note_on_c, 6, 46, 111
5, 269760, Note_on_c, 6, 39, 111
5, 270000, Note_off_c, 6, 64, 111
5, 270000, Note_off_c, 6, 59, 111
5, 270000, Note_off_c, 6, 55, 111
5, 270000, Note_off_c, 6, 51, 111
5, 270000, Note_off_c, 6, 46, 111
5, 270000, Note_off_c, 6, 39, 111
5, 270000, Note_on_c, 6, 64, 95
5, 270000, Note_on_c, 6, 59, 95
5, 270000, Note_on_c, 6, 55, 95
5, 270000, Note_on_c, 6, 51, 95
5, 270000, Note_on_c, 6, 46, 95
5, 270000, Note_on_c, 6, 39, 95
5, 270240, Note_off_c, 6, 64, 95
5, 270240, Note_off_c, 6, 59, 95
5, 270240, Note_off_c, 6, 55, 95
5, 270240, Note_off_c, 6, 51, 95
5, 270240, Note_off_c, 6, 46, 95
5, 270240, Note_off_c, 6, 39, 95
5, 270240, Note_on_c, 6, 64, 95
5, 270240, Note_on_c, 6, 59, 95
5, 270240, Note_on_c, 6, 55, 95
5, 270240, Note_on_c, 6, 51, 95
5, 270240, Note_on_c, 6, 46, 95
5, 270240, Note_on_c, 6, 39, 95
5, 270480, Note_off_c, 6, 64, 95
5, 270480, Note_off_c, 6, 59, 95
5, 270480, Note_off_c, 6, 55, 95
5, 270480, Note_off_c, 6, 51, 95
5, 270480, Note_off_c, 6, 46, 95
5, 270480, Note_off_c, 6, 39, 95
5, 270480, Note_on_c, 6, 64, 95
5, 270480, Note_on_c, 6, 59, 95
5, 270480, Note_on_c, 6, 55, 95
5, 270480, Note_on_c, 6, 51, 95
5, 270480, Note_on_c, 6, 46, 95
5, 270480, Note_on_c, 6, 39, 95
5, 270720, Note_off_c, 6, 64, 95
5, 270720, Note_off_c, 6, 59, 95
5, 270720, Note_off_c, 6, 55, 95
5, 270720, Note_off_c, 6, 51, 95
5, 270720, Note_off_c, 6, 46, 95
5, 270720, Note_off_c, 6, 39, 95
5, 270720, Note_on_c, 6, 64, 95
5, 270720, Note_on_c, 6, 59, 95
5, 270720, Note_on_c, 6, 55, 95
5, 270720, Note_on_c, 6, 52, 95
5, 270720, Note_on_c, 6, 47, 95
5, 270720, Note_on_c, 6, 40, 95
5, 271200, Note_off_c, 6, 64, 95
5, 271200, Note_off_c, 6, 59, 95
5, 271200, Note_off_c, 6, 55, 95
5, 271200, Note_off_c, 6, 52, 95
5, 271200, Note_off_c, 6, 47, 95
5, 271200, Note_off_c, 6, 40, 95
5, 271200, Note_on_c, 6, 64, 95
5, 271200, Note_on_c, 6, 59, 95
5, 271200, Note_on_c, 6, 55, 95
5, 271200, Note_on_c, 6, 52, 95
5, 271200, Note_on_c, 6, 47, 95
5, 271200, Note_on_c, 6, 40, 95
5, 271440, Note_off_c, 6, 64, 95
5, 271440, Note_off_c, 6, 59, 95
5, 271440, Note_off_c, 6, 55, 95
5, 271440, Note_off_c, 6, 52, 95
5, 271440, Note_off_c, 6, 47, 95
5, 271440, Note_off_c, 6, 40, 95
5, 271440, Note_on_c, 6, 64, 95
5, 271440, Note_on_c, 6, 59, 95
5, 271440, Note_on_c, 6, 55, 95
5, 271440, Note_on_c, 6, 52, 95
5, 271440, Note_on_c, 6, 47, 95
5, 271440, Note_on_c, 6, 40, 95
5, 271680, Note_off_c, 6, 64, 95
5, 271680, Note_off_c, 6, 59, 95
5, 271680, Note_off_c, 6, 55, 95
5, 271680, Note_off_c, 6, 52, 95
5, 271680, Note_off_c, 6, 47, 95
5, 271680, Note_off_c, 6, 40, 95
5, 271680, Note_on_c, 6, 64, 95
5, 271680, Note_on_c, 6, 59, 95
5, 271680, Note_on_c, 6, 55, 95
5, 271680, Note_on_c, 6, 52, 95
5, 271680, Note_on_c, 6, 47, 95
5, 271680, Note_on_c, 6, 40, 95
5, 271920, Note_off_c, 6, 64, 95
5, 271920, Note_off_c, 6, 59, 95
5, 271920, Note_off_c, 6, 55, 95
5, 271920, Note_off_c, 6, 52, 95
5, 271920, Note_off_c, 6, 47, 95
5, 271920, Note_off_c, 6, 40, 95
5, 271920, Note_on_c, 6, 64, 95
5, 271920, Note_on_c, 6, 59, 95
5, 271920, Note_on_c, 6, 55, 95
5, 271920, Note_on_c, 6, 52, 95
5, 271920, Note_on_c, 6, 47, 95
5, 271920, Note_on_c, 6, 40, 95
5, 272160, Note_off_c, 6, 64, 95
5, 272160, Note_off_c, 6, 59, 95
5, 272160, Note_off_c, 6, 55, 95
5, 272160, Note_off_c, 6, 52, 95
5, 272160, Note_off_c, 6, 47, 95
5, 272160, Note_off_c, 6, 40, 95
5, 272160, Note_on_c, 6, 64, 95
5, 272160, Note_on_c, 6, 59, 95
5, 272160, Note_on_c, 6, 55, 95
5, 272160, Note_on_c, 6, 52, 95
5, 272160, Note_on_c, 6, 47, 95
5, 272160, Note_on_c, 6, 40, 95
5, 272640, Note_off_c, 6, 64, 95
5, 272640, Note_off_c, 6, 59, 95
5, 272640, Note_off_c, 6, 55, 95
5, 272640, Note_off_c, 6, 52, 95
5, 272640, Note_off_c, 6, 47, 95
5, 272640, Note_off_c, 6, 40, 95
5, 272640, Note_on_c, 6, 64, 111
5, 272640, Note_on_c, 6, 59, 111
5, 272640, Note_on_c, 6, 55, 111
5, 272640, Note_on_c, 6, 52, 111
5, 272640, Note_on_c, 6, 47, 111
5, 272640, Note_on_c, 6, 40, 111
5, 272880, Note_off_c, 6, 64, 111
5, 272880, Note_off_c, 6, 59, 111
5, 272880, Note_off_c, 6, 55, 111
5, 272880, Note_off_c, 6, 52, 111
5, 272880, Note_off_c, 6, 47, 111
5, 272880, Note_off_c, 6, 40, 111
5, 272880, Note_on_c, 6, 64, 95
5, 272880, Note_on_c, 6, 59, 95
5, 272880, Note_on_c, 6, 55, 95
5, 272880, Note_on_c, 6, 52, 95
5, 272880, Note_on_c, 6, 47, 95
5, 272880, Note_on_c, 6, 40, 95
5, 273120, Note_off_c, 6, 64, 95
5, 273120, Note_off_c, 6, 59, 95
5, 273120, Note_off_c, 6, 55, 95
5, 273120, Note_off_c, 6, 52, 95
5, 273120, Note_off_c, 6, 47, 95
5, 273120, Note_off_c, 6, 40, 95
5, 273120, Note_on_c, 6, 64, 95
5, 273120, Note_on_c, 6, 59, 95
5, 273120, Note_on_c, 6, 55, 95
5, 273120, Note_on_c, 6, 52, 95
5, 273120, Note_on_c, 6, 47, 95
5, 273120, Note_on_c, 6, 40, 95
5, 273360, Note_off_c, 6, 64, 95
5, 273360, Note_off_c, 6, 59, 95
5, 273360, Note_off_c, 6, 55, 95
5, 273360, Note_off_c, 6, 52, 95
5, 273360, Note_off_c, 6, 47, 95
5, 273360, Note_off_c, 6, 40, 95
5, 273360, Note_on_c, 6, 64, 95
5, 273360, Note_on_c, 6, 59, 95
5, 273360, Note_on_c, 6, 55, 95
5, 273360, Note_on_c, 6, 52, 95
5, 273360, Note_on_c, 6, 47, 95
5, 273360, Note_on_c, 6, 40, 95
5, 273600, Note_off_c, 6, 64, 95
5, 273600, Note_off_c, 6, 59, 95
5, 273600, Note_off_c, 6, 55, 95
5, 273600, Note_off_c, 6, 52, 95
5, 273600, Note_off_c, 6, 47, 95
5, 273600, Note_off_c, 6, 40, 95
5, 273600, Note_on_c, 6, 64, 95
5, 273600, Note_on_c, 6, 59, 95
5, 273600, Note_on_c, 6, 55, 95
5, 273600, Note_on_c, 6, 52, 95
5, 273600, Note_on_c, 6, 47, 95
5, 273600, Note_on_c, 6, 40, 95
5, 274080, Note_off_c, 6, 64, 95
5, 274080, Note_off_c, 6, 59, 95
5, 274080, Note_off_c, 6, 55, 95
5, 274080, Note_off_c, 6, 52, 95
5, 274080, Note_off_c, 6, 47, 95
5, 274080, Note_off_c, 6, 40, 95
5, 274080, Note_on_c, 6, 64, 95
5, 274080, Note_on_c, 6, 59, 95
5, 274080, Note_on_c, 6, 55, 95
5, 274080, Note_on_c, 6, 52, 95
5, 274080, Note_on_c, 6, 47, 95
5, 274080, Note_on_c, 6, 40, 95
5, 274320, Note_off_c, 6, 64, 95
5, 274320, Note_off_c, 6, 59, 95
5, 274320, Note_off_c, 6, 55, 95
5, 274320, Note_off_c, 6, 52, 95
5, 274320, Note_off_c, 6, 47, 95
5, 274320, Note_off_c, 6, 40, 95
5, 274320, Note_on_c, 6, 64, 95
5, 274320, Note_on_c, 6, 59, 95
5, 274320, Note_on_c, 6, 55, 95
5, 274320, Note_on_c, 6, 52, 95
5, 274320, Note_on_c, 6, 47, 95
5, 274320, Note_on_c, 6, 40, 95
5, 274560, Note_off_c, 6, 64, 95
5, 274560, Note_off_c, 6, 59, 95
5, 274560, Note_off_c, 6, 55, 95
5, 274560, Note_off_c, 6, 52, 95
5, 274560, Note_off_c, 6, 47, 95
5, 274560, Note_off_c, 6, 40, 95
5, 274560, Note_on_c, 6, 64, 95
5, 274560, Note_on_c, 6, 59, 95
5, 274560, Note_on_c, 6, 55, 95
5, 274560, Note_on_c, 6, 52, 95
5, 274560, Note_on_c, 6, 47, 95
5, 274560, Note_on_c, 6, 40, 95
5, 274800, Note_off_c, 6, 64, 95
5, 274800, Note_off_c, 6, 59, 95
5, 274800, Note_off_c, 6, 55, 95
5, 274800, Note_off_c, 6, 52, 95
5, 274800, Note_off_c, 6, 47, 95
5, 274800, Note_off_c, 6, 40, 95
5, 274800, Note_on_c, 6, 64, 95
5, 274800, Note_on_c, 6, 59, 95
5, 274800, Note_on_c, 6, 55, 95
5, 274800, Note_on_c, 6, 52, 95
5, 274800, Note_on_c, 6, 47, 95
5, 274800, Note_on_c, 6, 40, 95
5, 275040, Note_off_c, 6, 64, 95
5, 275040, Note_off_c, 6, 59, 95
5, 275040, Note_off_c, 6, 55, 95
5, 275040, Note_off_c, 6, 52, 95
5, 275040, Note_off_c, 6, 47, 95
5, 275040, Note_off_c, 6, 40, 95
5, 275040, Note_on_c, 6, 64, 95
5, 275040, Note_on_c, 6, 59, 95
5, 275040, Note_on_c, 6, 55, 95
5, 275040, Note_on_c, 6, 52, 95
5, 275040, Note_on_c, 6, 47, 95
5, 275040, Note_on_c, 6, 40, 95
5, 275520, Note_off_c, 6, 64, 95
5, 275520, Note_off_c, 6, 59, 95
5, 275520, Note_off_c, 6, 55, 95
5, 275520, Note_off_c, 6, 52, 95
5, 275520, Note_off_c, 6, 47, 95
5, 275520, Note_off_c, 6, 40, 95
5, 275520, Note_on_c, 6, 64, 111
5, 275520, Note_on_c, 6, 59, 111
5, 275520, Note_on_c, 6, 55, 111
5, 275520, Note_on_c, 6, 52, 111
5, 275520, Note_on_c, 6, 47, 111
5, 275520, Note_on_c, 6, 40, 111
5, 275760, Note_off_c, 6, 64, 111
5, 275760, Note_off_c, 6, 59, 111
5, 275760, Note_off_c, 6, 55, 111
5, 275760, Note_off_c, 6, 52, 111
5, 275760, Note_off_c, 6, 47, 111
5, 275760, Note_off_c, 6, 40, 111
5, 275760, Note_on_c, 6, 64, 95
5, 275760, Note_on_c, 6, 59, 95
5, 275760, Note_on_c, 6, 55, 95
5, 275760, Note_on_c, 6, 52, 95
5, 275760, Note_on_c, 6, 47, 95
5, 275760, Note_on_c, 6, 40, 95
5, 276000, Note_off_c, 6, 64, 95
5, 276000, Note_off_c, 6, 59, 95
5, 276000, Note_off_c, 6, 55, 95
5, 276000, Note_off_c, 6, 52, 95
5, 276000, Note_off_c, 6, 47, 95
5, 276000, Note_off_c, 6, 40, 95
5, 276000, Note_on_c, 6, 64, 95
5, 276000, Note_on_c, 6, 59, 95
5, 276000, Note_on_c, 6, 55, 95
5, 276000, Note_on_c, 6, 52, 95
5, 276000, Note_on_c, 6, 47, 95
5, 276000, Note_on_c, 6, 40, 95
5, 276240, Note_off_c, 6, 64, 95
5, 276240, Note_off_c, 6, 59, 95
5, 276240, Note_off_c, 6, 55, 95
5, 276240, Note_off_c, 6, 52, 95
5, 276240, Note_off_c, 6, 47, 95
5, 276240, Note_off_c, 6, 40, 95
5, 276240, Note_on_c, 6, 64, 95
5, 276240, Note_on_c, 6, 59, 95
5, 276240, Note_on_c, 6, 55, 95
5, 276240, Note_on_c, 6, 52, 95
5, 276240, Note_on_c, 6, 47, 95
5, 276240, Note_on_c, 6, 40, 95
5, 276480, Note_off_c, 6, 64, 95
5, 276480, Note_off_c, 6, 59, 95
5, 276480, Note_off_c, 6, 55, 95
5, 276480, Note_off_c, 6, 52, 95
5, 276480, Note_off_c, 6, 47, 95
5, 276480, Note_off_c, 6, 40, 95
5, 276480, Note_on_c, 6, 64, 95
5, 276480, Note_on_c, 6, 59, 95
5, 276480, Note_on_c, 6, 55, 95
5, 276480, Note_on_c, 6, 52, 95
5, 276480, Note_on_c, 6, 47, 95
5, 276480, Note_on_c, 6, 40, 95
5, 276960, Note_off_c, 6, 64, 95
5, 276960, Note_off_c, 6, 59, 95
5, 276960, Note_off_c, 6, 55, 95
5, 276960, Note_off_c, 6, 52, 95
5, 276960, Note_off_c, 6, 47, 95
5, 276960, Note_off_c, 6, 40, 95
5, 276960, Note_on_c, 6, 64, 95
5, 276960, Note_on_c, 6, 59, 95
5, 276960, Note_on_c, 6, 55, 95
5, 276960, Note_on_c, 6, 52, 95
5, 276960, Note_on_c, 6, 47, 95
5, 276960, Note_on_c, 6, 40, 95
5, 277200, Note_off_c, 6, 64, 95
5, 277200, Note_off_c, 6, 59, 95
5, 277200, Note_off_c, 6, 55, 95
5, 277200, Note_off_c, 6, 52, 95
5, 277200, Note_off_c, 6, 47, 95
5, 277200, Note_off_c, 6, 40, 95
5, 277200, Note_on_c, 6, 64, 95
5, 277200, Note_on_c, 6, 59, 95
5, 277200, Note_on_c, 6, 55, 95
5, 277200, Note_on_c, 6, 52, 95
5, 277200, Note_on_c, 6, 47, 95
5, 277200, Note_on_c, 6, 40, 95
5, 277440, Note_off_c, 6, 64, 95
5, 277440, Note_off_c, 6, 59, 95
5, 277440, Note_off_c, 6, 55, 95
5, 277440, Note_off_c, 6, 52, 95
5, 277440, Note_off_c, 6, 47, 95
5, 277440, Note_off_c, 6, 40, 95
5, 277440, Note_on_c, 6, 64, 95
5, 277440, Note_on_c, 6, 59, 95
5, 277440, Note_on_c, 6, 55, 95
5, 277440, Note_on_c, 6, 52, 95
5, 277440, Note_on_c, 6, 47, 95
5, 277440, Note_on_c, 6, 40, 95
5, 277680, Note_off_c, 6, 64, 95
5, 277680, Note_off_c, 6, 59, 95
5, 277680, Note_off_c, 6, 55, 95
5, 277680, Note_off_c, 6, 52, 95
5, 277680, Note_off_c, 6, 47, 95
5, 277680, Note_off_c, 6, 40, 95
5, 277680, Note_on_c, 6, 64, 95
5, 277680, Note_on_c, 6, 59, 95
5, 277680, Note_on_c, 6, 55, 95
5, 277680, Note_on_c, 6, 52, 95
5, 277680, Note_on_c, 6, 47, 95
5, 277680, Note_on_c, 6, 40, 95
5, 277920, Note_off_c, 6, 64, 95
5, 277920, Note_off_c, 6, 59, 95
5, 277920, Note_off_c, 6, 55, 95
5, 277920, Note_off_c, 6, 52, 95
5, 277920, Note_off_c, 6, 47, 95
5, 277920, Note_off_c, 6, 40, 95
5, 277920, Note_on_c, 6, 64, 95
5, 277920, Note_on_c, 6, 59, 95
5, 277920, Note_on_c, 6, 55, 95
5, 277920, Note_on_c, 6, 52, 95
5, 277920, Note_on_c, 6, 47, 95
5, 277920, Note_on_c, 6, 40, 95
5, 278400, Note_off_c, 6, 64, 95
5, 278400, Note_off_c, 6, 59, 95
5, 278400, Note_off_c, 6, 55, 95
5, 278400, Note_off_c, 6, 52, 95
5, 278400, Note_off_c, 6, 47, 95
5, 278400, Note_off_c, 6, 40, 95
5, 278400, Note_on_c, 6, 64, 111
5, 278400, Note_on_c, 6, 59, 111
5, 278400, Note_on_c, 6, 55, 111
5, 278400, Note_on_c, 6, 52, 111
5, 278400, Note_on_c, 6, 47, 111
5, 278400, Note_on_c, 6, 40, 111
5, 278640, Note_off_c, 6, 64, 111
5, 278640, Note_off_c, 6, 59, 111
5, 278640, Note_off_c, 6, 55, 111
5, 278640, Note_off_c, 6, 52, 111
5, 278640, Note_off_c, 6, 47, 111
5, 278640, Note_off_c, 6, 40, 111
5, 278640, Note_on_c, 6, 64, 95
5, 278640, Note_on_c, 6, 59, 95
5, 278640, Note_on_c, 6, 55, 95
5, 278640, Note_on_c, 6, 52, 95
5, 278640, Note_on_c, 6, 47, 95
5, 278640, Note_on_c, 6, 40, 95
5, 278880, Note_off_c, 6, 64, 95
5, 278880, Note_off_c, 6, 59, 95
5, 278880, Note_off_c, 6, 55, 95
5, 278880, Note_off_c, 6, 52, 95
5, 278880, Note_off_c, 6, 47, 95
5, 278880, Note_off_c, 6, 40, 95
5, 278880, Note_on_c, 6, 64, 95
5, 278880, Note_on_c, 6, 59, 95
5, 278880, Note_on_c, 6, 55, 95
5, 278880, Note_on_c, 6, 52, 95
5, 278880, Note_on_c, 6, 47, 95
5, 278880, Note_on_c, 6, 40, 95
5, 279120, Note_off_c, 6, 64, 95
5, 279120, Note_off_c, 6, 59, 95
5, 279120, Note_off_c, 6, 55, 95
5, 279120, Note_off_c, 6, 52, 95
5, 279120, Note_off_c, 6, 47, 95
5, 279120, Note_off_c, 6, 40, 95
5, 279120, Note_on_c, 6, 64, 95
5, 279120, Note_on_c, 6, 59, 95
5, 279120, Note_on_c, 6, 55, 95
5, 279120, Note_on_c, 6, 52, 95
5, 279120, Note_on_c, 6, 47, 95
5, 279120, Note_on_c, 6, 40, 95
5, 279360, Note_off_c, 6, 64, 95
5, 279360, Note_off_c, 6, 59, 95
5, 279360, Note_off_c, 6, 55, 95
5, 279360, Note_off_c, 6, 52, 95
5, 279360, Note_off_c, 6, 47, 95
5, 279360, Note_off_c, 6, 40, 95
5, 279360, Note_on_c, 6, 64, 95
5, 279360, Note_on_c, 6, 59, 95
5, 279360, Note_on_c, 6, 55, 95
5, 279360, Note_on_c, 6, 52, 95
5, 279360, Note_on_c, 6, 47, 95
5, 279360, Note_on_c, 6, 40, 95
5, 279840, Note_off_c, 6, 64, 95
5, 279840, Note_off_c, 6, 59, 95
5, 279840, Note_off_c, 6, 55, 95
5, 279840, Note_off_c, 6, 52, 95
5, 279840, Note_off_c, 6, 47, 95
5, 279840, Note_off_c, 6, 40, 95
5, 279840, Note_on_c, 6, 64, 95
5, 279840, Note_on_c, 6, 59, 95
5, 279840, Note_on_c, 6, 55, 95
5, 279840, Note_on_c, 6, 52, 95
5, 279840, Note_on_c, 6, 47, 95
5, 279840, Note_on_c, 6, 40, 95
5, 280080, Note_off_c, 6, 64, 95
5, 280080, Note_off_c, 6, 59, 95
5, 280080, Note_off_c, 6, 55, 95
5, 280080, Note_off_c, 6, 52, 95
5, 280080, Note_off_c, 6, 47, 95
5, 280080, Note_off_c, 6, 40, 95
5, 280080, Note_on_c, 6, 64, 95
5, 280080, Note_on_c, 6, 59, 95
5, 280080, Note_on_c, 6, 55, 95
5, 280080, Note_on_c, 6, 52, 95
5, 280080, Note_on_c, 6, 47, 95
5, 280080, Note_on_c, 6, 40, 95
5, 280320, Note_off_c, 6, 64, 95
5, 280320, Note_off_c, 6, 59, 95
5, 280320, Note_off_c, 6, 55, 95
5, 280320, Note_off_c, 6, 52, 95
5, 280320, Note_off_c, 6, 47, 95
5, 280320, Note_off_c, 6, 40, 95
5, 280320, Note_on_c, 6, 64, 95
5, 280320, Note_on_c, 6, 59, 95
5, 280320, Note_on_c, 6, 55, 95
5, 280320, Note_on_c, 6, 52, 95
5, 280320, Note_on_c, 6, 47, 95
5, 280320, Note_on_c, 6, 40, 95
5, 280560, Note_off_c, 6, 64, 95
5, 280560, Note_off_c, 6, 59, 95
5, 280560, Note_off_c, 6, 55, 95
5, 280560, Note_off_c, 6, 52, 95
5, 280560, Note_off_c, 6, 47, 95
5, 280560, Note_off_c, 6, 40, 95
5, 280560, Note_on_c, 6, 64, 95
5, 280560, Note_on_c, 6, 59, 95
5, 280560, Note_on_c, 6, 55, 95
5, 280560, Note_on_c, 6, 52, 95
5, 280560, Note_on_c, 6, 47, 95
5, 280560, Note_on_c, 6, 40, 95
5, 280800, Note_off_c, 6, 64, 95
5, 280800, Note_off_c, 6, 59, 95
5, 280800, Note_off_c, 6, 55, 95
5, 280800, Note_off_c, 6, 52, 95
5, 280800, Note_off_c, 6, 47, 95
5, 280800, Note_off_c, 6, 40, 95
5, 280800, Note_on_c, 6, 64, 95
5, 280800, Note_on_c, 6, 59, 95
5, 280800, Note_on_c, 6, 55, 95
5, 280800, Note_on_c, 6, 52, 95
5, 280800, Note_on_c, 6, 47, 95
5, 280800, Note_on_c, 6, 40, 95
5, 281280, Note_off_c, 6, 64, 95
5, 281280, Note_off_c, 6, 59, 95
5, 281280, Note_off_c, 6, 55, 95
5, 281280, Note_off_c, 6, 52, 95
5, 281280, Note_off_c, 6, 47, 95
5, 281280, Note_off_c, 6, 40, 95
5, 281280, Note_on_c, 6, 64, 111
5, 281280, Note_on_c, 6, 59, 111
5, 281280, Note_on_c, 6, 55, 111
5, 281280, Note_on_c, 6, 52, 111
5, 281280, Note_on_c, 6, 47, 111
5, 281280, Note_on_c, 6, 40, 111
5, 281520, Note_off_c, 6, 64, 111
5, 281520, Note_off_c, 6, 59, 111
5, 281520, Note_off_c, 6, 55, 111
5, 281520, Note_off_c, 6, 52, 111
5, 281520, Note_off_c, 6, 47, 111
5, 281520, Note_off_c, 6, 40, 111
5, 281520, Note_on_c, 6, 64, 95
5, 281520, Note_on_c, 6, 59, 95
5, 281520, Note_on_c, 6, 55, 95
5, 281520, Note_on_c, 6, 52, 95
5, 281520, Note_on_c, 6, 47, 95
5, 281520, Note_on_c, 6, 40, 95
5, 281760, Note_off_c, 6, 64, 95
5, 281760, Note_off_c, 6, 59, 95
5, 281760, Note_off_c, 6, 55, 95
5, 281760, Note_off_c, 6, 52, 95
5, 281760, Note_off_c, 6, 47, 95
5, 281760, Note_off_c, 6, 40, 95
5, 281760, Note_on_c, 6, 64, 95
5, 281760, Note_on_c, 6, 59, 95
5, 281760, Note_on_c, 6, 55, 95
5, 281760, Note_on_c, 6, 52, 95
5, 281760, Note_on_c, 6, 47, 95
5, 281760, Note_on_c, 6, 40, 95
5, 282000, Note_off_c, 6, 64, 95
5, 282000, Note_off_c, 6, 59, 95
5, 282000, Note_off_c, 6, 55, 95
5, 282000, Note_off_c, 6, 52, 95
5, 282000, Note_off_c, 6, 47, 95
5, 282000, Note_off_c, 6, 40, 95
5, 282000, Note_on_c, 6, 64, 95
5, 282000, Note_on_c, 6, 59, 95
5, 282000, Note_on_c, 6, 55, 95
5, 282000, Note_on_c, 6, 52, 95
5, 282000, Note_on_c, 6, 47, 95
5, 282000, Note_on_c, 6, 40, 95
5, 282240, Note_off_c, 6, 64, 95
5, 282240, Note_off_c, 6, 59, 95
5, 282240, Note_off_c, 6, 55, 95
5, 282240, Note_off_c, 6, 52, 95
5, 282240, Note_off_c, 6, 47, 95
5, 282240, Note_off_c, 6, 40, 95
5, 357120, Note_on_c, 6, 64, 95
5, 357120, Note_on_c, 6, 59, 95
5, 357120, Note_on_c, 6, 55, 95
5, 357120, Note_on_c, 6, 52, 95
5, 357120, Note_on_c, 6, 47, 95
5, 357120, Note_on_c, 6, 40, 95
5, 361680, Note_off_c, 6, 64, 95
5, 361680, Note_off_c, 6, 59, 95
5, 361680, Note_off_c, 6, 55, 95
5, 361680, Note_off_c, 6, 52, 95
5, 361680, Note_off_c, 6, 47, 95
5, 361680, Note_off_c, 6, 40, 95
5, 361680, Note_on_c, 6, 50, 95
5, 361680, Note_on_c, 6, 45, 95
5, 361680, Note_on_c, 6, 38, 95
5, 361920, Note_off_c, 6, 50, 95
5, 361920, Note_off_c, 6, 45, 95
5, 361920, Note_off_c, 6, 38, 95
5, 361920, Note_on_c, 6, 55, 95
5, 361920, Note_on_c, 6, 55, 95
5, 361920, Note_on_c, 6, 50, 95
5, 361920, Note_on_c, 6, 43, 95
5, 362400, Note_off_c, 6, 55, 95
5, 362400, Note_off_c, 6, 55, 95
5, 362400, Note_off_c, 6, 50, 95
5, 362400, Note_off_c, 6, 43, 95
5, 362400, Note_on_c, 6, 55, 95
5, 362400, Note_on_c, 6, 55, 95
5, 362400, Note_on_c, 6, 50, 95
5, 362400, Note_on_c, 6, 43, 95
5, 362640, Note_off_c, 6, 55, 95
5, 362640, Note_off_c, 6, 55, 95
5, 362640, Note_off_c, 6, 50, 95
5, 362640, Note_off_c, 6, 43, 95
5, 362640, Note_on_c, 6, 50, 95
5, 362640, Note_on_c, 6, 45, 95
5, 362640, Note_on_c, 6, 38, 95
5, 362880, Note_off_c, 6, 50, 95
5, 362880, Note_off_c, 6, 45, 95
5, 362880, Note_off_c, 6, 38, 95
5, 362880, Note_on_c, 6, 66, 95
5, 362880, Note_on_c, 6, 62, 95
5, 362880, Note_on_c, 6, 57, 95
5, 362880, Note_on_c, 6, 50, 95
5, 363360, Note_off_c, 6, 66, 95
5, 363360, Note_off_c, 6, 62, 95
5, 363360, Note_off_c, 6, 57, 95
5, 363360, Note_off_c, 6, 50, 95
5, 363360, Note_on_c, 6, 66, 95
5, 363360, Note_on_c, 6, 62, 95
5, 363360, Note_on_c, 6, 57, 95
5, 363360, Note_on_c, 6, 50, 95
5, 363600, Note_off_c, 6, 66, 95
5, 363600, Note_off_c, 6, 62, 95
5, 363600, Note_off_c, 6, 57, 95
5, 363600, Note_off_c, 6, 50, 95
5, 363600, Note_on_c, 6, 66, 95
5, 363600, Note_on_c, 6, 62, 95
5, 363600, Note_on_c, 6, 57, 95
5, 363600, Note_on_c, 6, 50, 95
5, 364080, Note_off_c, 6, 66, 95
5, 364080, Note_off_c, 6, 62, 95
5, 364080, Note_off_c, 6, 57, 95
5, 364080, Note_off_c, 6, 50, 95
5, 364080, Note_on_c, 6, 66, 95
5, 364080, Note_on_c, 6, 62, 95
5, 364080, Note_on_c, 6, 57, 95
5, 364080, Note_on_c, 6, 50, 95
5, 364320, Note_off_c, 6, 66, 95
5, 364320, Note_off_c, 6, 62, 95
5, 364320, Note_off_c, 6, 57, 95
5, 364320, Note_off_c, 6, 50, 95
5, 364320, Note_on_c, 6, 66, 95
5, 364320, Note_on_c, 6, 62, 95
5, 364320, Note_on_c, 6, 57, 95
5, 364320, Note_on_c, 6, 50, 95
5, 364800, Note_off_c, 6, 66, 95
5, 364800, Note_off_c, 6, 62, 95
5, 364800, Note_off_c, 6, 57, 95
5, 364800, Note_off_c, 6, 50, 95
5, 364800, Note_on_c, 6, 66, 95
5, 364800, Note_on_c, 6, 62, 95
5, 364800, Note_on_c, 6, 57, 95
5, 364800, Note_on_c, 6, 50, 95
5, 365040, Note_off_c, 6, 66, 95
5, 365040, Note_off_c, 6, 62, 95
5, 365040, Note_off_c, 6, 57, 95
5, 365040, Note_off_c, 6, 50, 95
5, 365040, Note_on_c, 6, 66, 95
5, 365040, Note_on_c, 6, 62, 95
5, 365040, Note_on_c, 6, 57, 95
5, 365040, Note_on_c, 6, 50, 95
5, 365520, Note_off_c, 6, 66, 95
5, 365520, Note_off_c, 6, 62, 95
5, 365520, Note_off_c, 6, 57, 95
5, 365520, Note_off_c, 6, 50, 95
5, 365520, Note_on_c, 6, 66, 95
5, 365520, Note_on_c, 6, 62, 95
5, 365520, Note_on_c, 6, 57, 95
5, 365520, Note_on_c, 6, 50, 95
5, 365760, Note_off_c, 6, 66, 95
5, 365760, Note_off_c, 6, 62, 95
5, 365760, Note_off_c, 6, 57, 95
5, 365760, Note_off_c, 6, 50, 95
5, 365760, Note_on_c, 6, 66, 95
5, 365760, Note_on_c, 6, 62, 95
5, 365760, Note_on_c, 6, 57, 95
5, 365760, Note_on_c, 6, 50, 95
5, 366240, Note_off_c, 6, 66, 95
5, 366240, Note_off_c, 6, 62, 95
5, 366240, Note_off_c, 6, 57, 95
5, 366240, Note_off_c, 6, 50, 95
5, 366240, Note_on_c, 6, 66, 95
5, 366240, Note_on_c, 6, 62, 95
5, 366240, Note_on_c, 6, 57, 95
5, 366240, Note_on_c, 6, 50, 95
5, 366480, Note_off_c, 6, 66, 95
5, 366480, Note_off_c, 6, 62, 95
5, 366480, Note_off_c, 6, 57, 95
5, 366480, Note_off_c, 6, 50, 95
5, 366480, Note_on_c, 6, 66, 95
5, 366480, Note_on_c, 6, 62, 95
5, 366480, Note_on_c, 6, 57, 95
5, 366480, Note_on_c, 6, 50, 95
5, 366720, Note_off_c, 6, 66, 95
5, 366720, Note_off_c, 6, 62, 95
5, 366720, Note_off_c, 6, 57, 95
5, 366720, Note_off_c, 6, 50, 95
5, 366720, Note_on_c, 6, 66, 95
5, 366720, Note_on_c, 6, 62, 95
5, 366720, Note_on_c, 6, 57, 95
5, 366720, Note_on_c, 6, 50, 95
5, 366960, Note_off_c, 6, 66, 95
5, 366960, Note_off_c, 6, 62, 95
5, 366960, Note_off_c, 6, 57, 95
5, 366960, Note_off_c, 6, 50, 95
5, 366960, Note_on_c, 6, 66, 95
5, 366960, Note_on_c, 6, 62, 95
5, 366960, Note_on_c, 6, 57, 95
5, 366960, Note_on_c, 6, 50, 95
5, 367200, Note_off_c, 6, 66, 95
5, 367200, Note_off_c, 6, 62, 95
5, 367200, Note_off_c, 6, 57, 95
5, 367200, Note_off_c, 6, 50, 95
5, 367200, Note_on_c, 6, 67, 95
5, 367200, Note_on_c, 6, 59, 95
5, 367200, Note_on_c, 6, 57, 95
5, 367200, Note_on_c, 6, 50, 95
5, 367440, Note_off_c, 6, 67, 95
5, 367440, Note_off_c, 6, 59, 95
5, 367440, Note_off_c, 6, 57, 95
5, 367440, Note_off_c, 6, 50, 95
5, 367440, Note_on_c, 6, 67, 95
5, 367440, Note_on_c, 6, 59, 95
5, 367440, Note_on_c, 6, 57, 95
5, 367440, Note_on_c, 6, 50, 95
5, 367920, Note_off_c, 6, 67, 95
5, 367920, Note_off_c, 6, 59, 95
5, 367920, Note_off_c, 6, 57, 95
5, 367920, Note_off_c, 6, 50, 95
5, 367920, Note_on_c, 6, 67, 95
5, 367920, Note_on_c, 6, 59, 95
5, 367920, Note_on_c, 6, 57, 95
5, 367920, Note_on_c, 6, 50, 95
5, 368400, Note_off_c, 6, 67, 95
5, 368400, Note_off_c, 6, 59, 95
5, 368400, Note_off_c, 6, 57, 95
5, 368400, Note_off_c, 6, 50, 95
5, 368400, Note_on_c, 6, 67, 95
5, 368400, Note_on_c, 6, 59, 95
5, 368400, Note_on_c, 6, 57, 95
5, 368400, Note_on_c, 6, 50, 95
5, 368640, Note_off_c, 6, 67, 95
5, 368640, Note_off_c, 6, 59, 95
5, 368640, Note_off_c, 6, 57, 95
5, 368640, Note_off_c, 6, 50, 95
5, 368640, Note_on_c, 6, 66, 95
5, 368640, Note_on_c, 6, 62, 95
5, 368640, Note_on_c, 6, 57, 95
5, 368640, Note_on_c, 6, 50, 95
5, 369120, Note_off_c, 6, 66, 95
5, 369120, Note_off_c, 6, 62, 95
5, 369120, Note_off_c, 6, 57, 95
5, 369120, Note_off_c, 6, 50, 95
5, 369120, Note_on_c, 6, 66, 95
5, 369120, Note_on_c, 6, 62, 95
5, 369120, Note_on_c, 6, 57, 95
5, 369120, Note_on_c, 6, 50, 95
5, 369360, Note_off_c, 6, 66, 95
5, 369360, Note_off_c, 6, 62, 95
5, 369360, Note_off_c, 6, 57, 95
5, 369360, Note_off_c, 6, 50, 95
5, 369360, Note_on_c, 6, 66, 95
5, 369360, Note_on_c, 6, 62, 95
5, 369360, Note_on_c, 6, 57, 95
5, 369360, Note_on_c, 6, 50, 95
5, 369840, Note_off_c, 6, 66, 95
5, 369840, Note_off_c, 6, 62, 95
5, 369840, Note_off_c, 6, 57, 95
5, 369840, Note_off_c, 6, 50, 95
5, 369840, Note_on_c, 6, 66, 95
5, 369840, Note_on_c, 6, 62, 95
5, 369840, Note_on_c, 6, 57, 95
5, 369840, Note_on_c, 6, 50, 95
5, 370080, Note_off_c, 6, 66, 95
5, 370080, Note_off_c, 6, 62, 95
5, 370080, Note_off_c, 6, 57, 95
5, 370080, Note_off_c, 6, 50, 95
5, 370080, Note_on_c, 6, 66, 95
5, 370080, Note_on_c, 6, 62, 95
5, 370080, Note_on_c, 6, 57, 95
5, 370080, Note_on_c, 6, 50, 95
5, 370560, Note_off_c, 6, 66, 95
5, 370560, Note_off_c, 6, 62, 95
5, 370560, Note_off_c, 6, 57, 95
5, 370560, Note_off_c, 6, 50, 95
5, 370560, Note_on_c, 6, 66, 95
5, 370560, Note_on_c, 6, 62, 95
5, 370560, Note_on_c, 6, 57, 95
5, 370560, Note_on_c, 6, 50, 95
5, 370800, Note_off_c, 6, 66, 95
5, 370800, Note_off_c, 6, 62, 95
5, 370800, Note_off_c, 6, 57, 95
5, 370800, Note_off_c, 6, 50, 95
5, 370800, Note_on_c, 6, 66, 95
5, 370800, Note_on_c, 6, 62, 95
5, 370800, Note_on_c, 6, 57, 95
5, 370800, Note_on_c, 6, 50, 95
5, 371280, Note_off_c, 6, 66, 95
5, 371280, Note_off_c, 6, 62, 95
5, 371280, Note_off_c, 6, 57, 95
5, 371280, Note_off_c, 6, 50, 95
5, 371280, Note_on_c, 6, 66, 95
5, 371280, Note_on_c, 6, 62, 95
5, 371280, Note_on_c, 6, 57, 95
5, 371280, Note_on_c, 6, 50, 95
5, 371520, Note_off_c, 6, 66, 95
5, 371520, Note_off_c, 6, 62, 95
5, 371520, Note_off_c, 6, 57, 95
5, 371520, Note_off_c, 6, 50, 95
5, 371520, Note_on_c, 6, 66, 95
5, 371520, Note_on_c, 6, 62, 95
5, 371520, Note_on_c, 6, 57, 95
5, 371520, Note_on_c, 6, 50, 95
5, 372000, Note_off_c, 6, 66, 95
5, 372000, Note_off_c, 6, 62, 95
5, 372000, Note_off_c, 6, 57, 95
5, 372000, Note_off_c, 6, 50, 95
5, 372000, Note_on_c, 6, 66, 95
5, 372000, Note_on_c, 6, 62, 95
5, 372000, Note_on_c, 6, 57, 95
5, 372000, Note_on_c, 6, 50, 95
5, 372240, Note_off_c, 6, 66, 95
5, 372240, Note_off_c, 6, 62, 95
5, 372240, Note_off_c, 6, 57, 95
5, 372240, Note_off_c, 6, 50, 95
5, 372240, Note_on_c, 6, 66, 95
5, 372240, Note_on_c, 6, 62, 95
5, 372240, Note_on_c, 6, 57, 95
5, 372240, Note_on_c, 6, 50, 95
5, 372480, Note_off_c, 6, 66, 95
5, 372480, Note_off_c, 6, 62, 95
5, 372480, Note_off_c, 6, 57, 95
5, 372480, Note_off_c, 6, 50, 95
5, 372480, Note_on_c, 6, 66, 95
5, 372480, Note_on_c, 6, 62, 95
5, 372480, Note_on_c, 6, 57, 95
5, 372480, Note_on_c, 6, 50, 95
5, 372720, Note_off_c, 6, 66, 95
5, 372720, Note_off_c, 6, 62, 95
5, 372720, Note_off_c, 6, 57, 95
5, 372720, Note_off_c, 6, 50, 95
5, 372720, Note_on_c, 6, 66, 95
5, 372720, Note_on_c, 6, 62, 95
5, 372720, Note_on_c, 6, 57, 95
5, 372720, Note_on_c, 6, 50, 95
5, 372960, Note_off_c, 6, 66, 95
5, 372960, Note_off_c, 6, 62, 95
5, 372960, Note_off_c, 6, 57, 95
5, 372960, Note_off_c, 6, 50, 95
5, 372960, Note_on_c, 6, 67, 95
5, 372960, Note_on_c, 6, 59, 95
5, 372960, Note_on_c, 6, 57, 95
5, 372960, Note_on_c, 6, 50, 95
5, 373200, Note_off_c, 6, 67, 95
5, 373200, Note_off_c, 6, 59, 95
5, 373200, Note_off_c, 6, 57, 95
5, 373200, Note_off_c, 6, 50, 95
5, 373200, Note_on_c, 6, 67, 95
5, 373200, Note_on_c, 6, 59, 95
5, 373200, Note_on_c, 6, 57, 95
5, 373200, Note_on_c, 6, 50, 95
5, 373680, Note_off_c, 6, 67, 95
5, 373680, Note_off_c, 6, 59, 95
5, 373680, Note_off_c, 6, 57, 95
5, 373680, Note_off_c, 6, 50, 95
5, 373680, Note_on_c, 6, 67, 95
5, 373680, Note_on_c, 6, 59, 95
5, 373680, Note_on_c, 6, 57, 95
5, 373680, Note_on_c, 6, 50, 95
5, 374160, Note_off_c, 6, 67, 95
5, 374160, Note_off_c, 6, 59, 95
5, 374160, Note_off_c, 6, 57, 95
5, 374160, Note_off_c, 6, 50, 95
5, 374160, Note_on_c, 6, 67, 95
5, 374160, Note_on_c, 6, 59, 95
5, 374160, Note_on_c, 6, 57, 95
5, 374160, Note_on_c, 6, 50, 95
5, 374400, Note_off_c, 6, 67, 95
5, 374400, Note_off_c, 6, 59, 95
5, 374400, Note_off_c, 6, 57, 95
5, 374400, Note_off_c, 6, 50, 95
5, 374400, Note_on_c, 6, 66, 95
5, 374400, Note_on_c, 6, 62, 95
5, 374400, Note_on_c, 6, 57, 95
5, 374400, Note_on_c, 6, 50, 95
5, 374880, Note_off_c, 6, 66, 95
5, 374880, Note_off_c, 6, 62, 95
5, 374880, Note_off_c, 6, 57, 95
5, 374880, Note_off_c, 6, 50, 95
5, 374880, Note_on_c, 6, 66, 95
5, 374880, Note_on_c, 6, 62, 95
5, 374880, Note_on_c, 6, 57, 95
5, 374880, Note_on_c, 6, 50, 95
5, 375120, Note_off_c, 6, 66, 95
5, 375120, Note_off_c, 6, 62, 95
5, 375120, Note_off_c, 6, 57, 95
5, 375120, Note_off_c, 6, 50, 95
5, 375120, Note_on_c, 6, 66, 95
5, 375120, Note_on_c, 6, 62, 95
5, 375120, Note_on_c, 6, 57, 95
5, 375120, Note_on_c, 6, 50, 95
5, 375600, Note_off_c, 6, 66, 95
5, 375600, Note_off_c, 6, 62, 95
5, 375600, Note_off_c, 6, 57, 95
5, 375600, Note_off_c, 6, 50, 95
5, 375600, Note_on_c, 6, 66, 95
5, 375600, Note_on_c, 6, 62, 95
5, 375600, Note_on_c, 6, 57, 95
5, 375600, Note_on_c, 6, 50, 95
5, 375840, Note_off_c, 6, 66, 95
5, 375840, Note_off_c, 6, 62, 95
5, 375840, Note_off_c, 6, 57, 95
5, 375840, Note_off_c, 6, 50, 95
5, 375840, Note_on_c, 6, 66, 95
5, 375840, Note_on_c, 6, 62, 95
5, 375840, Note_on_c, 6, 57, 95
5, 375840, Note_on_c, 6, 50, 95
5, 376320, Note_off_c, 6, 66, 95
5, 376320, Note_off_c, 6, 62, 95
5, 376320, Note_off_c, 6, 57, 95
5, 376320, Note_off_c, 6, 50, 95
5, 376320, Note_on_c, 6, 66, 95
5, 376320, Note_on_c, 6, 62, 95
5, 376320, Note_on_c, 6, 57, 95
5, 376320, Note_on_c, 6, 50, 95
5, 376560, Note_off_c, 6, 66, 95
5, 376560, Note_off_c, 6, 62, 95
5, 376560, Note_off_c, 6, 57, 95
5, 376560, Note_off_c, 6, 50, 95
5, 376560, Note_on_c, 6, 66, 95
5, 376560, Note_on_c, 6, 62, 95
5, 376560, Note_on_c, 6, 57, 95
5, 376560, Note_on_c, 6, 50, 95
5, 377040, Note_off_c, 6, 66, 95
5, 377040, Note_off_c, 6, 62, 95
5, 377040, Note_off_c, 6, 57, 95
5, 377040, Note_off_c, 6, 50, 95
5, 377040, Note_on_c, 6, 66, 95
5, 377040, Note_on_c, 6, 62, 95
5, 377040, Note_on_c, 6, 57, 95
5, 377040, Note_on_c, 6, 50, 95
5, 377280, Note_off_c, 6, 66, 95
5, 377280, Note_off_c, 6, 62, 95
5, 377280, Note_off_c, 6, 57, 95
5, 377280, Note_off_c, 6, 50, 95
5, 377280, Note_on_c, 6, 66, 95
5, 377280, Note_on_c, 6, 62, 95
5, 377280, Note_on_c, 6, 57, 95
5, 377280, Note_on_c, 6, 50, 95
5, 377760, Note_off_c, 6, 66, 95
5, 377760, Note_off_c, 6, 62, 95
5, 377760, Note_off_c, 6, 57, 95
5, 377760, Note_off_c, 6, 50, 95
5, 377760, Note_on_c, 6, 66, 95
5, 377760, Note_on_c, 6, 62, 95
5, 377760, Note_on_c, 6, 57, 95
5, 377760, Note_on_c, 6, 50, 95
5, 378000, Note_off_c, 6, 66, 95
5, 378000, Note_off_c, 6, 62, 95
5, 378000, Note_off_c, 6, 57, 95
5, 378000, Note_off_c, 6, 50, 95
5, 378000, Note_on_c, 6, 66, 95
5, 378000, Note_on_c, 6, 62, 95
5, 378000, Note_on_c, 6, 57, 95
5, 378000, Note_on_c, 6, 50, 95
5, 378240, Note_off_c, 6, 66, 95
5, 378240, Note_off_c, 6, 62, 95
5, 378240, Note_off_c, 6, 57, 95
5, 378240, Note_off_c, 6, 50, 95
5, 378240, Note_on_c, 6, 66, 95
5, 378240, Note_on_c, 6, 62, 95
5, 378240, Note_on_c, 6, 57, 95
5, 378240, Note_on_c, 6, 50, 95
5, 378480, Note_off_c, 6, 66, 95
5, 378480, Note_off_c, 6, 62, 95
5, 378480, Note_off_c, 6, 57, 95
5, 378480, Note_off_c, 6, 50, 95
5, 378480, Note_on_c, 6, 66, 95
5, 378480, Note_on_c, 6, 62, 95
5, 378480, Note_on_c, 6, 57, 95
5, 378480, Note_on_c, 6, 50, 95
5, 378720, Note_off_c, 6, 66, 95
5, 378720, Note_off_c, 6, 62, 95
5, 378720, Note_off_c, 6, 57, 95
5, 378720, Note_off_c, 6, 50, 95
5, 378720, Note_on_c, 6, 67, 95
5, 378720, Note_on_c, 6, 59, 95
5, 378720, Note_on_c, 6, 57, 95
5, 378720, Note_on_c, 6, 50, 95
5, 378960, Note_off_c, 6, 67, 95
5, 378960, Note_off_c, 6, 59, 95
5, 378960, Note_off_c, 6, 57, 95
5, 378960, Note_off_c, 6, 50, 95
5, 378960, Note_on_c, 6, 67, 95
5, 378960, Note_on_c, 6, 59, 95
5, 378960, Note_on_c, 6, 57, 95
5, 378960, Note_on_c, 6, 50, 95
5, 379440, Note_off_c, 6, 67, 95
5, 379440, Note_off_c, 6, 59, 95
5, 379440, Note_off_c, 6, 57, 95
5, 379440, Note_off_c, 6, 50, 95
5, 379440, Note_on_c, 6, 67, 95
5, 379440, Note_on_c, 6, 59, 95
5, 379440, Note_on_c, 6, 57, 95
5, 379440, Note_on_c, 6, 50, 95
5, 379920, Note_off_c, 6, 67, 95
5, 379920, Note_off_c, 6, 59, 95
5, 379920, Note_off_c, 6, 57, 95
5, 379920, Note_off_c, 6, 50, 95
5, 379920, Note_on_c, 6, 67, 95
5, 379920, Note_on_c, 6, 59, 95
5, 379920, Note_on_c, 6, 57, 95
5, 379920, Note_on_c, 6, 50, 95
5, 380160, Note_off_c, 6, 67, 95
5, 380160, Note_off_c, 6, 59, 95
5, 380160, Note_off_c, 6, 57, 95
5, 380160, Note_off_c, 6, 50, 95
5, 380160, Note_on_c, 6, 66, 95
5, 380160, Note_on_c, 6, 62, 95
5, 380160, Note_on_c, 6, 57, 95
5, 380160, Note_on_c, 6, 50, 95
5, 380640, Note_off_c, 6, 66, 95
5, 380640, Note_off_c, 6, 62, 95
5, 380640, Note_off_c, 6, 57, 95
5, 380640, Note_off_c, 6, 50, 95
5, 380640, Note_on_c, 6, 66, 95
5, 380640, Note_on_c, 6, 62, 95
5, 380640, Note_on_c, 6, 57, 95
5, 380640, Note_on_c, 6, 50, 95
5, 380880, Note_off_c, 6, 66, 95
5, 380880, Note_off_c, 6, 62, 95
5, 380880, Note_off_c, 6, 57, 95
5, 380880, Note_off_c, 6, 50, 95
5, 380880, Note_on_c, 6, 66, 95
5, 380880, Note_on_c, 6, 62, 95
5, 380880, Note_on_c, 6, 57, 95
5, 380880, Note_on_c, 6, 50, 95
5, 381360, Note_off_c, 6, 66, 95
5, 381360, Note_off_c, 6, 62, 95
5, 381360, Note_off_c, 6, 57, 95
5, 381360, Note_off_c, 6, 50, 95
5, 381360, Note_on_c, 6, 66, 95
5, 381360, Note_on_c, 6, 62, 95
5, 381360, Note_on_c, 6, 57, 95
5, 381360, Note_on_c, 6, 50, 95
5, 381600, Note_off_c, 6, 66, 95
5, 381600, Note_off_c, 6, 62, 95
5, 381600, Note_off_c, 6, 57, 95
5, 381600, Note_off_c, 6, 50, 95
5, 381600, Note_on_c, 6, 66, 95
5, 381600, Note_on_c, 6, 62, 95
5, 381600, Note_on_c, 6, 57, 95
5, 381600, Note_on_c, 6, 50, 95
5, 382080, Note_off_c, 6, 66, 95
5, 382080, Note_off_c, 6, 62, 95
5, 382080, Note_off_c, 6, 57, 95
5, 382080, Note_off_c, 6, 50, 95
5, 382080, Note_on_c, 6, 66, 95
5, 382080, Note_on_c, 6, 62, 95
5, 382080, Note_on_c, 6, 57, 95
5, 382080, Note_on_c, 6, 50, 95
5, 382320, Note_off_c, 6, 66, 95
5, 382320, Note_off_c, 6, 62, 95
5, 382320, Note_off_c, 6, 57, 95
5, 382320, Note_off_c, 6, 50, 95
5, 382320, Note_on_c, 6, 66, 95
5, 382320, Note_on_c, 6, 62, 95
5, 382320, Note_on_c, 6, 57, 95
5, 382320, Note_on_c, 6, 50, 95
5, 382800, Note_off_c, 6, 66, 95
5, 382800, Note_off_c, 6, 62, 95
5, 382800, Note_off_c, 6, 57, 95
5, 382800, Note_off_c, 6, 50, 95
5, 382800, Note_on_c, 6, 66, 95
5, 382800, Note_on_c, 6, 62, 95
5, 382800, Note_on_c, 6, 57, 95
5, 382800, Note_on_c, 6, 50, 95
5, 383040, Note_off_c, 6, 66, 95
5, 383040, Note_off_c, 6, 62, 95
5, 383040, Note_off_c, 6, 57, 95
5, 383040, Note_off_c, 6, 50, 95
5, 383040, Note_on_c, 6, 67, 95
5, 383040, Note_on_c, 6, 59, 95
5, 383040, Note_on_c, 6, 57, 95
5, 383040, Note_on_c, 6, 50, 95
5, 383520, Note_off_c, 6, 67, 95
5, 383520, Note_off_c, 6, 59, 95
5, 383520, Note_off_c, 6, 57, 95
5, 383520, Note_off_c, 6, 50, 95
5, 383520, Note_on_c, 6, 67, 95
5, 383520, Note_on_c, 6, 59, 95
5, 383520, Note_on_c, 6, 57, 95
5, 383520, Note_on_c, 6, 50, 95
5, 383760, Note_off_c, 6, 67, 95
5, 383760, Note_off_c, 6, 59, 95
5, 383760, Note_off_c, 6, 57, 95
5, 383760, Note_off_c, 6, 50, 95
5, 383760, Note_on_c, 6, 67, 95
5, 383760, Note_on_c, 6, 59, 95
5, 383760, Note_on_c, 6, 57, 95
5, 383760, Note_on_c, 6, 50, 95
5, 384000, Note_off_c, 6, 67, 95
5, 384000, Note_off_c, 6, 59, 95
5, 384000, Note_off_c, 6, 57, 95
5, 384000, Note_off_c, 6, 50, 95
5, 384000, Note_on_c, 6, 67, 95
5, 384000, Note_on_c, 6, 59, 95
5, 384000, Note_on_c, 6, 57, 95
5, 384000, Note_on_c, 6, 50, 95
5, 384240, Note_off_c, 6, 67, 95
5, 384240, Note_off_c, 6, 59, 95
5, 384240, Note_off_c, 6, 57, 95
5, 384240, Note_off_c, 6, 50, 95
5, 384240, Note_on_c, 6, 67, 95
5, 384240, Note_on_c, 6, 59, 95
5, 384240, Note_on_c, 6, 57, 95
5, 384240, Note_on_c, 6, 50, 95
5, 384480, Note_off_c, 6, 67, 95
5, 384480, Note_off_c, 6, 59, 95
5, 384480, Note_off_c, 6, 57, 95
5, 384480, Note_off_c, 6, 50, 95
5, 384480, Note_on_c, 6, 67, 95
5, 384480, Note_on_c, 6, 59, 95
5, 384480, Note_on_c, 6, 57, 95
5, 384480, Note_on_c, 6, 50, 95
5, 384720, Note_off_c, 6, 67, 95
5, 384720, Note_off_c, 6, 59, 95
5, 384720, Note_off_c, 6, 57, 95
5, 384720, Note_off_c, 6, 50, 95
5, 384720, Note_on_c, 6, 67, 95
5, 384720, Note_on_c, 6, 59, 95
5, 384720, Note_on_c, 6, 57, 95
5, 384720, Note_on_c, 6, 50, 95
5, 384960, Note_off_c, 6, 67, 95
5, 384960, Note_off_c, 6, 59, 95
5, 384960, Note_off_c, 6, 57, 95
5, 384960, Note_off_c, 6, 50, 95
5, 384960, Note_on_c, 6, 67, 95
5, 384960, Note_on_c, 6, 59, 95
5, 384960, Note_on_c, 6, 57, 95
5, 384960, Note_on_c, 6, 50, 95
5, 385200, Note_off_c, 6, 67, 95
5, 385200, Note_off_c, 6, 59, 95
5, 385200, Note_off_c, 6, 57, 95
5, 385200, Note_off_c, 6, 50, 95
5, 385200, Note_on_c, 6, 67, 95
5, 385200, Note_on_c, 6, 59, 95
5, 385200, Note_on_c, 6, 57, 95
5, 385200, Note_on_c, 6, 50, 95
5, 385440, Note_off_c, 6, 67, 95
5, 385440, Note_off_c, 6, 59, 95
5, 385440, Note_off_c, 6, 57, 95
5, 385440, Note_off_c, 6, 50, 95
5, 385440, Note_on_c, 6, 67, 95
5, 385440, Note_on_c, 6, 59, 95
5, 385440, Note_on_c, 6, 57, 95
5, 385440, Note_on_c, 6, 50, 95
5, 385680, Note_off_c, 6, 67, 95
5, 385680, Note_off_c, 6, 59, 95
5, 385680, Note_off_c, 6, 57, 95
5, 385680, Note_off_c, 6, 50, 95
5, 385680, Note_on_c, 6, 67, 95
5, 385680, Note_on_c, 6, 59, 95
5, 385680, Note_on_c, 6, 57, 95
5, 385680, Note_on_c, 6, 50, 95
5, 385920, Note_off_c, 6, 67, 95
5, 385920, Note_off_c, 6, 59, 95
5, 385920, Note_off_c, 6, 57, 95
5, 385920, Note_off_c, 6, 50, 95
5, 385920, Note_on_c, 6, 64, 95
5, 385920, Note_on_c, 6, 59, 95
5, 385920, Note_on_c, 6, 55, 95
5, 385920, Note_on_c, 6, 52, 95
5, 385920, Note_on_c, 6, 47, 95
5, 385920, Note_on_c, 6, 40, 95
5, 386400, Note_off_c, 6, 64, 95
5, 386400, Note_off_c, 6, 59, 95
5, 386400, Note_off_c, 6, 55, 95
5, 386400, Note_off_c, 6, 52, 95
5, 386400, Note_off_c, 6, 47, 95
5, 386400, Note_off_c, 6, 40, 95
5, 386400, Note_on_c, 6, 64, 95
5, 386400, Note_on_c, 6, 59, 95
5, 386400, Note_on_c, 6, 55, 95
5, 386400, Note_on_c, 6, 52, 95
5, 386400, Note_on_c, 6, 47, 95
5, 386400, Note_on_c, 6, 40, 95
5, 386640, Note_off_c, 6, 64, 95
5, 386640, Note_off_c, 6, 59, 95
5, 386640, Note_off_c, 6, 55, 95
5, 386640, Note_off_c, 6, 52, 95
5, 386640, Note_off_c, 6, 47, 95
5, 386640, Note_off_c, 6, 40, 95
5, 386640, Note_on_c, 6, 64, 95
5, 386640, Note_on_c, 6, 59, 95
5, 386640, Note_on_c, 6, 55, 95
5, 386640, Note_on_c, 6, 52, 95
5, 386640, Note_on_c, 6, 47, 95
5, 386640, Note_on_c, 6, 40, 95
5, 386880, Note_off_c, 6, 64, 95
5, 386880, Note_off_c, 6, 59, 95
5, 386880, Note_off_c, 6, 55, 95
5, 386880, Note_off_c, 6, 52, 95
5, 386880, Note_off_c, 6, 47, 95
5, 386880, Note_off_c, 6, 40, 95
5, 386880, Note_on_c, 6, 64, 95
5, 386880, Note_on_c, 6, 59, 95
5, 386880, Note_on_c, 6, 55, 95
5, 386880, Note_on_c, 6, 52, 95
5, 386880, Note_on_c, 6, 47, 95
5, 386880, Note_on_c, 6, 40, 95
5, 387120, Note_off_c, 6, 64, 95
5, 387120, Note_off_c, 6, 59, 95
5, 387120, Note_off_c, 6, 55, 95
5, 387120, Note_off_c, 6, 52, 95
5, 387120, Note_off_c, 6, 47, 95
5, 387120, Note_off_c, 6, 40, 95
5, 387120, Note_on_c, 6, 64, 95
5, 387120, Note_on_c, 6, 59, 95
5, 387120, Note_on_c, 6, 55, 95
5, 387120, Note_on_c, 6, 52, 95
5, 387120, Note_on_c, 6, 47, 95
5, 387120, Note_on_c, 6, 40, 95
5, 387360, Note_off_c, 6, 64, 95
5, 387360, Note_off_c, 6, 59, 95
5, 387360, Note_off_c, 6, 55, 95
5, 387360, Note_off_c, 6, 52, 95
5, 387360, Note_off_c, 6, 47, 95
5, 387360, Note_off_c, 6, 40, 95
5, 387360, Note_on_c, 6, 64, 95
5, 387360, Note_on_c, 6, 59, 95
5, 387360, Note_on_c, 6, 55, 95
5, 387360, Note_on_c, 6, 52, 95
5, 387360, Note_on_c, 6, 47, 95
5, 387360, Note_on_c, 6, 40, 95
5, 387840, Note_off_c, 6, 64, 95
5, 387840, Note_off_c, 6, 59, 95
5, 387840, Note_off_c, 6, 55, 95
5, 387840, Note_off_c, 6, 52, 95
5, 387840, Note_off_c, 6, 47, 95
5, 387840, Note_off_c, 6, 40, 95
5, 387840, Note_on_c, 6, 64, 111
5, 387840, Note_on_c, 6, 59, 111
5, 387840, Note_on_c, 6, 55, 111
5, 387840, Note_on_c, 6, 52, 111
5, 387840, Note_on_c, 6, 47, 111
5, 387840, Note_on_c, 6, 40, 111
5, 388080, Note_off_c, 6, 64, 111
5, 388080, Note_off_c, 6, 59, 111
5, 388080, Note_off_c, 6, 55, 111
5, 388080, Note_off_c, 6, 52, 111
5, 388080, Note_off_c, 6, 47, 111
5, 388080, Note_off_c, 6, 40, 111
5, 388080, Note_on_c, 6, 64, 95
5, 388080, Note_on_c, 6, 59, 95
5, 388080, Note_on_c, 6, 55, 95
5, 388080, Note_on_c, 6, 52, 95
5, 388080, Note_on_c, 6, 47, 95
5, 388080, Note_on_c, 6, 40, 95
5, 388320, Note_off_c, 6, 64, 95
5, 388320, Note_off_c, 6, 59, 95
5, 388320, Note_off_c, 6, 55, 95
5, 388320, Note_off_c, 6, 52, 95
5, 388320, Note_off_c, 6, 47, 95
5, 388320, Note_off_c, 6, 40, 95
5, 388320, Note_on_c, 6, 64, 95
5, 388320, Note_on_c, 6, 59, 95
5, 388320, Note_on_c, 6, 55, 95
5, 388320, Note_on_c, 6, 52, 95
5, 388320, Note_on_c, 6, 47, 95
5, 388320, Note_on_c, 6, 40, 95
5, 388560, Note_off_c, 6, 64, 95
5, 388560, Note_off_c, 6, 59, 95
5, 388560, Note_off_c, 6, 55, 95
5, 388560, Note_off_c, 6, 52, 95
5, 388560, Note_off_c, 6, 47, 95
5, 388560, Note_off_c, 6, 40, 95
5, 388560, Note_on_c, 6, 64, 95
5, 388560, Note_on_c, 6, 59, 95
5, 388560, Note_on_c, 6, 55, 95
5, 388560, Note_on_c, 6, 52, 95
5, 388560, Note_on_c, 6, 47, 95
5, 388560, Note_on_c, 6, 40, 95
5, 388800, Note_off_c, 6, 64, 95
5, 388800, Note_off_c, 6, 59, 95
5, 388800, Note_off_c, 6, 55, 95
5, 388800, Note_off_c, 6, 52, 95
5, 388800, Note_off_c, 6, 47, 95
5, 388800, Note_off_c, 6, 40, 95
5, 388800, Note_on_c, 6, 64, 95
5, 388800, Note_on_c, 6, 59, 95
5, 388800, Note_on_c, 6, 55, 95
5, 388800, Note_on_c, 6, 52, 95
5, 388800, Note_on_c, 6, 47, 95
5, 388800, Note_on_c, 6, 40, 95
5, 389280, Note_off_c, 6, 64, 95
5, 389280, Note_off_c, 6, 59, 95
5, 389280, Note_off_c, 6, 55, 95
5, 389280, Note_off_c, 6, 52, 95
5, 389280, Note_off_c, 6, 47, 95
5, 389280, Note_off_c, 6, 40, 95
5, 389280, Note_on_c, 6, 64, 95
5, 389280, Note_on_c, 6, 59, 95
5, 389280, Note_on_c, 6, 55, 95
5, 389280, Note_on_c, 6, 52, 95
5, 389280, Note_on_c, 6, 47, 95
5, 389280, Note_on_c, 6, 40, 95
5, 389520, Note_off_c, 6, 64, 95
5, 389520, Note_off_c, 6, 59, 95
5, 389520, Note_off_c, 6, 55, 95
5, 389520, Note_off_c, 6, 52, 95
5, 389520, Note_off_c, 6, 47, 95
5, 389520, Note_off_c, 6, 40, 95
5, 389520, Note_on_c, 6, 64, 95
5, 389520, Note_on_c, 6, 59, 95
5, 389520, Note_on_c, 6, 55, 95
5, 389520, Note_on_c, 6, 52, 95
5, 389520, Note_on_c, 6, 47, 95
5, 389520, Note_on_c, 6, 40, 95
5, 389760, Note_off_c, 6, 64, 95
5, 389760, Note_off_c, 6, 59, 95
5, 389760, Note_off_c, 6, 55, 95
5, 389760, Note_off_c, 6, 52, 95
5, 389760, Note_off_c, 6, 47, 95
5, 389760, Note_off_c, 6, 40, 95
5, 389760, Note_on_c, 6, 64, 95
5, 389760, Note_on_c, 6, 59, 95
5, 389760, Note_on_c, 6, 55, 95
5, 389760, Note_on_c, 6, 52, 95
5, 389760, Note_on_c, 6, 47, 95
5, 389760, Note_on_c, 6, 40, 95
5, 390000, Note_off_c, 6, 64, 95
5, 390000, Note_off_c, 6, 59, 95
5, 390000, Note_off_c, 6, 55, 95
5, 390000, Note_off_c, 6, 52, 95
5, 390000, Note_off_c, 6, 47, 95
5, 390000, Note_off_c, 6, 40, 95
5, 390000, Note_on_c, 6, 64, 95
5, 390000, Note_on_c, 6, 59, 95
5, 390000, Note_on_c, 6, 55, 95
5, 390000, Note_on_c, 6, 52, 95
5, 390000, Note_on_c, 6, 47, 95
5, 390000, Note_on_c, 6, 40, 95
5, 390240, Note_off_c, 6, 64, 95
5, 390240, Note_off_c, 6, 59, 95
5, 390240, Note_off_c, 6, 55, 95
5, 390240, Note_off_c, 6, 52, 95
5, 390240, Note_off_c, 6, 47, 95
5, 390240, Note_off_c, 6, 40, 95
5, 390240, Note_on_c, 6, 64, 95
5, 390240, Note_on_c, 6, 59, 95
5, 390240, Note_on_c, 6, 55, 95
5, 390240, Note_on_c, 6, 52, 95
5, 390240, Note_on_c, 6, 47, 95
5, 390240, Note_on_c, 6, 40, 95
5, 390720, Note_off_c, 6, 64, 95
5, 390720, Note_off_c, 6, 59, 95
5, 390720, Note_off_c, 6, 55, 95
5, 390720, Note_off_c, 6, 52, 95
5, 390720, Note_off_c, 6, 47, 95
5, 390720, Note_off_c, 6, 40, 95
5, 390720, Note_on_c, 6, 64, 111
5, 390720, Note_on_c, 6, 59, 111
5, 390720, Note_on_c, 6, 55, 111
5, 390720, Note_on_c, 6, 52, 111
5, 390720, Note_on_c, 6, 47, 111
5, 390720, Note_on_c, 6, 40, 111
5, 390960, Note_off_c, 6, 64, 111
5, 390960, Note_off_c, 6, 59, 111
5, 390960, Note_off_c, 6, 55, 111
5, 390960, Note_off_c, 6, 52, 111
5, 390960, Note_off_c, 6, 47, 111
5, 390960, Note_off_c, 6, 40, 111
5, 390960, Note_on_c, 6, 64, 95
5, 390960, Note_on_c, 6, 59, 95
5, 390960, Note_on_c, 6, 55, 95
5, 390960, Note_on_c, 6, 52, 95
5, 390960, Note_on_c, 6, 47, 95
5, 390960, Note_on_c, 6, 40, 95
5, 391200, Note_off_c, 6, 64, 95
5, 391200, Note_off_c, 6, 59, 95
5, 391200, Note_off_c, 6, 55, 95
5, 391200, Note_off_c, 6, 52, 95
5, 391200, Note_off_c, 6, 47, 95
5, 391200, Note_off_c, 6, 40, 95
5, 391200, Note_on_c, 6, 64, 95
5, 391200, Note_on_c, 6, 59, 95
5, 391200, Note_on_c, 6, 55, 95
5, 391200, Note_on_c, 6, 52, 95
5, 391200, Note_on_c, 6, 47, 95
5, 391200, Note_on_c, 6, 40, 95
5, 391440, Note_off_c, 6, 64, 95
5, 391440, Note_off_c, 6, 59, 95
5, 391440, Note_off_c, 6, 55, 95
5, 391440, Note_off_c, 6, 52, 95
5, 391440, Note_off_c, 6, 47, 95
5, 391440, Note_off_c, 6, 40, 95
5, 391440, Note_on_c, 6, 64, 95
5, 391440, Note_on_c, 6, 59, 95
5, 391440, Note_on_c, 6, 55, 95
5, 391440, Note_on_c, 6, 52, 95
5, 391440, Note_on_c, 6, 47, 95
5, 391440, Note_on_c, 6, 40, 95
5, 391680, Note_off_c, 6, 64, 95
5, 391680, Note_off_c, 6, 59, 95
5, 391680, Note_off_c, 6, 55, 95
5, 391680, Note_off_c, 6, 52, 95
5, 391680, Note_off_c, 6, 47, 95
5, 391680, Note_off_c, 6, 40, 95
5, 391680, Note_on_c, 6, 64, 95
5, 391680, Note_on_c, 6, 55, 95
5, 391680, Note_on_c, 6, 53, 95
5, 391680, Note_on_c, 6, 48, 95
5, 391680, Note_on_c, 6, 41, 95
5, 392160, Note_off_c, 6, 64, 95
5, 392160, Note_off_c, 6, 55, 95
5, 392160, Note_off_c, 6, 53, 95
5, 392160, Note_off_c, 6, 48, 95
5, 392160, Note_off_c, 6, 41, 95
5, 392160, Note_on_c, 6, 64, 95
5, 392160, Note_on_c, 6, 55, 95
5, 392160, Note_on_c, 6, 53, 95
5, 392160, Note_on_c, 6, 48, 95
5, 392160, Note_on_c, 6, 41, 95
5, 392400, Note_off_c, 6, 64, 95
5, 392400, Note_off_c, 6, 55, 95
5, 392400, Note_off_c, 6, 53, 95
5, 392400, Note_off_c, 6, 48, 95
5, 392400, Note_off_c, 6, 41, 95
5, 392400, Note_on_c, 6, 64, 95
5, 392400, Note_on_c, 6, 55, 95
5, 392400, Note_on_c, 6, 53, 95
5, 392400, Note_on_c, 6, 48, 95
5, 392400, Note_on_c, 6, 41, 95
5, 392640, Note_off_c, 6, 64, 95
5, 392640, Note_off_c, 6, 55, 95
5, 392640, Note_off_c, 6, 53, 95
5, 392640, Note_off_c, 6, 48, 95
5, 392640, Note_off_c, 6, 41, 95
5, 392640, Note_on_c, 6, 64, 95
5, 392640, Note_on_c, 6, 55, 95
5, 392640, Note_on_c, 6, 53, 95
5, 392640, Note_on_c, 6, 48, 95
5, 392640, Note_on_c, 6, 41, 95
5, 392880, Note_off_c, 6, 64, 95
5, 392880, Note_off_c, 6, 55, 95
5, 392880, Note_off_c, 6, 53, 95
5, 392880, Note_off_c, 6, 48, 95
5, 392880, Note_off_c, 6, 41, 95
5, 392880, Note_on_c, 6, 64, 95
5, 392880, Note_on_c, 6, 55, 95
5, 392880, Note_on_c, 6, 53, 95
5, 392880, Note_on_c, 6, 48, 95
5, 392880, Note_on_c, 6, 41, 95
5, 393120, Note_off_c, 6, 64, 95
5, 393120, Note_off_c, 6, 55, 95
5, 393120, Note_off_c, 6, 53, 95
5, 393120, Note_off_c, 6, 48, 95
5, 393120, Note_off_c, 6, 41, 95
5, 393120, Note_on_c, 6, 64, 95
5, 393120, Note_on_c, 6, 55, 95
5, 393120, Note_on_c, 6, 53, 95
5, 393120, Note_on_c, 6, 48, 95
5, 393120, Note_on_c, 6, 41, 95
5, 393600, Note_off_c, 6, 64, 95
5, 393600, Note_off_c, 6, 55, 95
5, 393600, Note_off_c, 6, 53, 95
5, 393600, Note_off_c, 6, 48, 95
5, 393600, Note_off_c, 6, 41, 95
5, 393600, Note_on_c, 6, 64, 111
5, 393600, Note_on_c, 6, 55, 111
5, 393600, Note_on_c, 6, 53, 111
5, 393600, Note_on_c, 6, 48, 111
5, 393600, Note_on_c, 6, 41, 111
5, 393840, Note_off_c, 6, 64, 111
5, 393840, Note_off_c, 6, 55, 111
5, 393840, Note_off_c, 6, 53, 111
5, 393840, Note_off_c, 6, 48, 111
5, 393840, Note_off_c, 6, 41, 111
5, 393840, Note_on_c, 6, 64, 95
5, 393840, Note_on_c, 6, 55, 95
5, 393840, Note_on_c, 6, 53, 95
5, 393840, Note_on_c, 6, 48, 95
5, 393840, Note_on_c, 6, 41, 95
5, 394080, Note_off_c, 6, 64, 95
5, 394080, Note_off_c, 6, 55, 95
5, 394080, Note_off_c, 6, 53, 95
5, 394080, Note_off_c, 6, 48, 95
5, 394080, Note_off_c, 6, 41, 95
5, 394080, Note_on_c, 6, 64, 95
5, 394080, Note_on_c, 6, 55, 95
5, 394080, Note_on_c, 6, 53, 95
5, 394080, Note_on_c, 6, 48, 95
5, 394080, Note_on_c, 6, 41, 95
5, 394320, Note_off_c, 6, 64, 95
5, 394320, Note_off_c, 6, 55, 95
5, 394320, Note_off_c, 6, 53, 95
5, 394320, Note_off_c, 6, 48, 95
5, 394320, Note_off_c, 6, 41, 95
5, 394320, Note_on_c, 6, 64, 95
5, 394320, Note_on_c, 6, 55, 95
5, 394320, Note_on_c, 6, 53, 95
5, 394320, Note_on_c, 6, 48, 95
5, 394320, Note_on_c, 6, 41, 95
5, 394560, Note_off_c, 6, 64, 95
5, 394560, Note_off_c, 6, 55, 95
5, 394560, Note_off_c, 6, 53, 95
5, 394560, Note_off_c, 6, 48, 95
5, 394560, Note_off_c, 6, 41, 95
5, 394560, Note_on_c, 6, 64, 95
5, 394560, Note_on_c, 6, 59, 95
5, 394560, Note_on_c, 6, 55, 95
5, 394560, Note_on_c, 6, 52, 95
5, 394560, Note_on_c, 6, 47, 95
5, 394560, Note_on_c, 6, 40, 95
5, 395040, Note_off_c, 6, 64, 95
5, 395040, Note_off_c, 6, 59, 95
5, 395040, Note_off_c, 6, 55, 95
5, 395040, Note_off_c, 6, 52, 95
5, 395040, Note_off_c, 6, 47, 95
5, 395040, Note_off_c, 6, 40, 95
5, 395040, Note_on_c, 6, 64, 95
5, 395040, Note_on_c, 6, 59, 95
5, 395040, Note_on_c, 6, 55, 95
5, 395040, Note_on_c, 6, 52, 95
5, 395040, Note_on_c, 6, 47, 95
5, 395040, Note_on_c, 6, 40, 95
5, 395280, Note_off_c, 6, 64, 95
5, 395280, Note_off_c, 6, 59, 95
5, 395280, Note_off_c, 6, 55, 95
5, 395280, Note_off_c, 6, 52, 95
5, 395280, Note_off_c, 6, 47, 95
5, 395280, Note_off_c, 6, 40, 95
5, 395280, Note_on_c, 6, 64, 95
5, 395280, Note_on_c, 6, 59, 95
5, 395280, Note_on_c, 6, 55, 95
5, 395280, Note_on_c, 6, 52, 95
5, 395280, Note_on_c, 6, 47, 95
5, 395280, Note_on_c, 6, 40, 95
5, 395520, Note_off_c, 6, 64, 95
5, 395520, Note_off_c, 6, 59, 95
5, 395520, Note_off_c, 6, 55, 95
5, 395520, Note_off_c, 6, 52, 95
5, 395520, Note_off_c, 6, 47, 95
5, 395520, Note_off_c, 6, 40, 95
5, 395520, Note_on_c, 6, 64, 95
5, 395520, Note_on_c, 6, 59, 95
5, 395520, Note_on_c, 6, 55, 95
5, 395520, Note_on_c, 6, 52, 95
5, 395520, Note_on_c, 6, 47, 95
5, 395520, Note_on_c, 6, 40, 95
5, 395760, Note_off_c, 6, 64, 95
5, 395760, Note_off_c, 6, 59, 95
5, 395760, Note_off_c, 6, 55, 95
5, 395760, Note_off_c, 6, 52, 95
5, 395760, Note_off_c, 6, 47, 95
5, 395760, Note_off_c, 6, 40, 95
5, 395760, Note_on_c, 6, 64, 95
5, 395760, Note_on_c, 6, 59, 95
5, 395760, Note_on_c, 6, 55, 95
5, 395760, Note_on_c, 6, 52, 95
5, 395760, Note_on_c, 6, 47, 95
5, 395760, Note_on_c, 6, 40, 95
5, 396000, Note_off_c, 6, 64, 95
5, 396000, Note_off_c, 6, 59, 95
5, 396000, Note_off_c, 6, 55, 95
5, 396000, Note_off_c, 6, 52, 95
5, 396000, Note_off_c, 6, 47, 95
5, 396000, Note_off_c, 6, 40, 95
5, 396000, Note_on_c, 6, 64, 95
5, 396000, Note_on_c, 6, 59, 95
5, 396000, Note_on_c, 6, 55, 95
5, 396000, Note_on_c, 6, 52, 95
5, 396000, Note_on_c, 6, 47, 95
5, 396000, Note_on_c, 6, 40, 95
5, 396480, Note_off_c, 6, 64, 95
5, 396480, Note_off_c, 6, 59, 95
5, 396480, Note_off_c, 6, 55, 95
5, 396480, Note_off_c, 6, 52, 95
5, 396480, Note_off_c, 6, 47, 95
5, 396480, Note_off_c, 6, 40, 95
5, 396480, Note_on_c, 6, 64, 111
5, 396480, Note_on_c, 6, 59, 111
5, 396480, Note_on_c, 6, 55, 111
5, 396480, Note_on_c, 6, 52, 111
5, 396480, Note_on_c, 6, 47, 111
5, 396480, Note_on_c, 6, 40, 111
5, 396720, Note_off_c, 6, 64, 111
5, 396720, Note_off_c, 6, 59, 111
5, 396720, Note_off_c, 6, 55, 111
5, 396720, Note_off_c, 6, 52, 111
5, 396720, Note_off_c, 6, 47, 111
5, 396720, Note_off_c, 6, 40, 111
5, 396720, Note_on_c, 6, 64, 95
5, 396720, Note_on_c, 6, 59, 95
5, 396720, Note_on_c, 6, 55, 95
5, 396720, Note_on_c, 6, 52, 95
5, 396720, Note_on_c, 6, 47, 95
5, 396720, Note_on_c, 6, 40, 95
5, 396960, Note_off_c, 6, 64, 95
5, 396960, Note_off_c, 6, 59, 95
5, 396960, Note_off_c, 6, 55, 95
5, 396960, Note_off_c, 6, 52, 95
5, 396960, Note_off_c, 6, 47, 95
5, 396960, Note_off_c, 6, 40, 95
5, 396960, Note_on_c, 6, 64, 95
5, 396960, Note_on_c, 6, 59, 95
5, 396960, Note_on_c, 6, 55, 95
5, 396960, Note_on_c, 6, 52, 95
5, 396960, Note_on_c, 6, 47, 95
5, 396960, Note_on_c, 6, 40, 95
5, 397200, Note_off_c, 6, 64, 95
5, 397200, Note_off_c, 6, 59, 95
5, 397200, Note_off_c, 6, 55, 95
5, 397200, Note_off_c, 6, 52, 95
5, 397200, Note_off_c, 6, 47, 95
5, 397200, Note_off_c, 6, 40, 95
5, 397200, Note_on_c, 6, 64, 95
5, 397200, Note_on_c, 6, 59, 95
5, 397200, Note_on_c, 6, 55, 95
5, 397200, Note_on_c, 6, 52, 95
5, 397200, Note_on_c, 6, 47, 95
5, 397200, Note_on_c, 6, 40, 95
5, 397440, Note_off_c, 6, 64, 95
5, 397440, Note_off_c, 6, 59, 95
5, 397440, Note_off_c, 6, 55, 95
5, 397440, Note_off_c, 6, 52, 95
5, 397440, Note_off_c, 6, 47, 95
5, 397440, Note_off_c, 6, 40, 95
5, 397440, Note_on_c, 6, 64, 95
5, 397440, Note_on_c, 6, 59, 95
5, 397440, Note_on_c, 6, 55, 95
5, 397440, Note_on_c, 6, 51, 95
5, 397440, Note_on_c, 6, 46, 95
5, 397440, Note_on_c, 6, 39, 95
5, 397920, Note_off_c, 6, 64, 95
5, 397920, Note_off_c, 6, 59, 95
5, 397920, Note_off_c, 6, 55, 95
5, 397920, Note_off_c, 6, 51, 95
5, 397920, Note_off_c, 6, 46, 95
5, 397920, Note_off_c, 6, 39, 95
5, 397920, Note_on_c, 6, 64, 95
5, 397920, Note_on_c, 6, 59, 95
5, 397920, Note_on_c, 6, 55, 95
5, 397920, Note_on_c, 6, 51, 95
5, 397920, Note_on_c, 6, 46, 95
5, 397920, Note_on_c, 6, 39, 95
5, 398160, Note_off_c, 6, 64, 95
5, 398160, Note_off_c, 6, 59, 95
5, 398160, Note_off_c, 6, 55, 95
5, 398160, Note_off_c, 6, 51, 95
5, 398160, Note_off_c, 6, 46, 95
5, 398160, Note_off_c, 6, 39, 95
5, 398160, Note_on_c, 6, 64, 95
5, 398160, Note_on_c, 6, 59, 95
5, 398160, Note_on_c, 6, 55, 95
5, 398160, Note_on_c, 6, 51, 95
5, 398160, Note_on_c, 6, 46, 95
5, 398160, Note_on_c, 6, 39, 95
5, 398400, Note_off_c, 6, 64, 95
5, 398400, Note_off_c, 6, 59, 95
5, 398400, Note_off_c, 6, 55, 95
5, 398400, Note_off_c, 6, 51, 95
5, 398400, Note_off_c, 6, 46, 95
5, 398400, Note_off_c, 6, 39, 95
5, 398400, Note_on_c, 6, 64, 95
5, 398400, Note_on_c, 6, 59, 95
5, 398400, Note_on_c, 6, 55, 95
5, 398400, Note_on_c, 6, 51, 95
5, 398400, Note_on_c, 6, 46, 95
5, 398400, Note_on_c, 6, 39, 95
5, 398640, Note_off_c, 6, 64, 95
5, 398640, Note_off_c, 6, 59, 95
5, 398640, Note_off_c, 6, 55, 95
5, 398640, Note_off_c, 6, 51, 95
5, 398640, Note_off_c, 6, 46, 95
5, 398640, Note_off_c, 6, 39, 95
5, 398640, Note_on_c, 6, 64, 95
5, 398640, Note_on_c, 6, 59, 95
5, 398640, Note_on_c, 6, 55, 95
5, 398640, Note_on_c, 6, 51, 95
5, 398640, Note_on_c, 6, 46, 95
5, 398640, Note_on_c, 6, 39, 95
5, 398880, Note_off_c, 6, 64, 95
5, 398880, Note_off_c, 6, 59, 95
5, 398880, Note_off_c, 6, 55, 95
5, 398880, Note_off_c, 6, 51, 95
5, 398880, Note_off_c, 6, 46, 95
5, 398880, Note_off_c, 6, 39, 95
5, 398880, Note_on_c, 6, 64, 95
5, 398880, Note_on_c, 6, 59, 95
5, 398880, Note_on_c, 6, 55, 95
5, 398880, Note_on_c, 6, 51, 95
5, 398880, Note_on_c, 6, 46, 95
5, 398880, Note_on_c, 6, 39, 95
5, 399360, Note_off_c, 6, 64, 95
5, 399360, Note_off_c, 6, 59, 95
5, 399360, Note_off_c, 6, 55, 95
5, 399360, Note_off_c, 6, 51, 95
5, 399360, Note_off_c, 6, 46, 95
5, 399360, Note_off_c, 6, 39, 95
5, 399360, Note_on_c, 6, 64, 111
5, 399360, Note_on_c, 6, 59, 111
5, 399360, Note_on_c, 6, 55, 111
5, 399360, Note_on_c, 6, 51, 111
5, 399360, Note_on_c, 6, 46, 111
5, 399360, Note_on_c, 6, 39, 111
5, 399600, Note_off_c, 6, 64, 111
5, 399600, Note_off_c, 6, 59, 111
5, 399600, Note_off_c, 6, 55, 111
5, 399600, Note_off_c, 6, 51, 111
5, 399600, Note_off_c, 6, 46, 111
5, 399600, Note_off_c, 6, 39, 111
5, 399600, Note_on_c, 6, 64, 95
5, 399600, Note_on_c, 6, 59, 95
5, 399600, Note_on_c, 6, 55, 95
5, 399600, Note_on_c, 6, 51, 95
5, 399600, Note_on_c, 6, 46, 95
5, 399600, Note_on_c, 6, 39, 95
5, 399840, Note_off_c, 6, 64, 95
5, 399840, Note_off_c, 6, 59, 95
5, 399840, Note_off_c, 6, 55, 95
5, 399840, Note_off_c, 6, 51, 95
5, 399840, Note_off_c, 6, 46, 95
5, 399840, Note_off_c, 6, 39, 95
5, 399840, Note_on_c, 6, 64, 95
5, 399840, Note_on_c, 6, 59, 95
5, 399840, Note_on_c, 6, 55, 95
5, 399840, Note_on_c, 6, 51, 95
5, 399840, Note_on_c, 6, 46, 95
5, 399840, Note_on_c, 6, 39, 95
5, 400080, Note_off_c, 6, 64, 95
5, 400080, Note_off_c, 6, 59, 95
5, 400080, Note_off_c, 6, 55, 95
5, 400080, Note_off_c, 6, 51, 95
5, 400080, Note_off_c, 6, 46, 95
5, 400080, Note_off_c, 6, 39, 95
5, 400080, Note_on_c, 6, 64, 95
5, 400080, Note_on_c, 6, 59, 95
5, 400080, Note_on_c, 6, 55, 95
5, 400080, Note_on_c, 6, 51, 95
5, 400080, Note_on_c, 6, 46, 95
5, 400080, Note_on_c, 6, 39, 95
5, 400320, Note_off_c, 6, 64, 95
5, 400320, Note_off_c, 6, 59, 95
5, 400320, Note_off_c, 6, 55, 95
5, 400320, Note_off_c, 6, 51, 95
5, 400320, Note_off_c, 6, 46, 95
5, 400320, Note_off_c, 6, 39, 95
5, 400320, Note_on_c, 6, 64, 95
5, 400320, Note_on_c, 6, 59, 95
5, 400320, Note_on_c, 6, 55, 95
5, 400320, Note_on_c, 6, 51, 95
5, 400320, Note_on_c, 6, 46, 95
5, 400320, Note_on_c, 6, 39, 95
5, 400800, Note_off_c, 6, 64, 95
5, 400800, Note_off_c, 6, 59, 95
5, 400800, Note_off_c, 6, 55, 95
5, 400800, Note_off_c, 6, 51, 95
5, 400800, Note_off_c, 6, 46, 95
5, 400800, Note_off_c, 6, 39, 95
5, 400800, Note_on_c, 6, 64, 95
5, 400800, Note_on_c, 6, 59, 95
5, 400800, Note_on_c, 6, 55, 95
5, 400800, Note_on_c, 6, 51, 95
5, 400800, Note_on_c, 6, 46, 95
5, 400800, Note_on_c, 6, 39, 95
5, 401040, Note_off_c, 6, 64, 95
5, 401040, Note_off_c, 6, 59, 95
5, 401040, Note_off_c, 6, 55, 95
5, 401040, Note_off_c, 6, 51, 95
5, 401040, Note_off_c, 6, 46, 95
5, 401040, Note_off_c, 6, 39, 95
5, 401040, Note_on_c, 6, 64, 95
5, 401040, Note_on_c, 6, 59, 95
5, 401040, Note_on_c, 6, 55, 95
5, 401040, Note_on_c, 6, 51, 95
5, 401040, Note_on_c, 6, 46, 95
5, 401040, Note_on_c, 6, 39, 95
5, 401280, Note_off_c, 6, 64, 95
5, 401280, Note_off_c, 6, 59, 95
5, 401280, Note_off_c, 6, 55, 95
5, 401280, Note_off_c, 6, 51, 95
5, 401280, Note_off_c, 6, 46, 95
5, 401280, Note_off_c, 6, 39, 95
5, 401280, Note_on_c, 6, 64, 95
5, 401280, Note_on_c, 6, 59, 95
5, 401280, Note_on_c, 6, 55, 95
5, 401280, Note_on_c, 6, 51, 95
5, 401280, Note_on_c, 6, 46, 95
5, 401280, Note_on_c, 6, 39, 95
5, 401520, Note_off_c, 6, 64, 95
5, 401520, Note_off_c, 6, 59, 95
5, 401520, Note_off_c, 6, 55, 95
5, 401520, Note_off_c, 6, 51, 95
5, 401520, Note_off_c, 6, 46, 95
5, 401520, Note_off_c, 6, 39, 95
5, 401520, Note_on_c, 6, 64, 95
5, 401520, Note_on_c, 6, 59, 95
5, 401520, Note_on_c, 6, 55, 95
5, 401520, Note_on_c, 6, 51, 95
5, 401520, Note_on_c, 6, 46, 95
5, 401520, Note_on_c, 6, 39, 95
5, 401760, Note_off_c, 6, 64, 95
5, 401760, Note_off_c, 6, 59, 95
5, 401760, Note_off_c, 6, 55, 95
5, 401760, Note_off_c, 6, 51, 95
5, 401760, Note_off_c, 6, 46, 95
5, 401760, Note_off_c, 6, 39, 95
5, 401760, Note_on_c, 6, 64, 95
5, 401760, Note_on_c, 6, 59, 95
5, 401760, Note_on_c, 6, 55, 95
5, 401760, Note_on_c, 6, 51, 95
5, 401760, Note_on_c, 6, 46, 95
5, 401760, Note_on_c, 6, 39, 95
5, 402240, Note_off_c, 6, 64, 95
5, 402240, Note_off_c, 6, 59, 95
5, 402240, Note_off_c, 6, 55, 95
5, 402240, Note_off_c, 6, 51, 95
5, 402240, Note_off_c, 6, 46, 95
5, 402240, Note_off_c, 6, 39, 95
5, 402240, Note_on_c, 6, 64, 111
5, 402240, Note_on_c, 6, 59, 111
5, 402240, Note_on_c, 6, 55, 111
5, 402240, Note_on_c, 6, 51, 111
5, 402240, Note_on_c, 6, 46, 111
5, 402240, Note_on_c, 6, 39, 111
5, 402480, Note_off_c, 6, 64, 111
5, 402480, Note_off_c, 6, 59, 111
5, 402480, Note_off_c, 6, 55, 111
5, 402480, Note_off_c, 6, 51, 111
5, 402480, Note_off_c, 6, 46, 111
5, 402480, Note_off_c, 6, 39, 111
5, 402480, Note_on_c, 6, 64, 95
5, 402480, Note_on_c, 6, 59, 95
5, 402480, Note_on_c, 6, 55, 95
5, 402480, Note_on_c, 6, 51, 95
5, 402480, Note_on_c, 6, 46, 95
5, 402480, Note_on_c, 6, 39, 95
5, 402720, Note_off_c, 6, 64, 95
5, 402720, Note_off_c, 6, 59, 95
5, 402720, Note_off_c, 6, 55, 95
5, 402720, Note_off_c, 6, 51, 95
5, 402720, Note_off_c, 6, 46, 95
5, 402720, Note_off_c, 6, 39, 95
5, 402720, Note_on_c, 6, 64, 95
5, 402720, Note_on_c, 6, 59, 95
5, 402720, Note_on_c, 6, 55, 95
5, 402720, Note_on_c, 6, 51, 95
5, 402720, Note_on_c, 6, 46, 95
5, 402720, Note_on_c, 6, 39, 95
5, 402960, Note_off_c, 6, 64, 95
5, 402960, Note_off_c, 6, 59, 95
5, 402960, Note_off_c, 6, 55, 95
5, 402960, Note_off_c, 6, 51, 95
5, 402960, Note_off_c, 6, 46, 95
5, 402960, Note_off_c, 6, 39, 95
5, 402960, Note_on_c, 6, 64, 95
5, 402960, Note_on_c, 6, 59, 95
5, 402960, Note_on_c, 6, 55, 95
5, 402960, Note_on_c, 6, 51, 95
5, 402960, Note_on_c, 6, 46, 95
5, 402960, Note_on_c, 6, 39, 95
5, 403200, Note_off_c, 6, 64, 95
5, 403200, Note_off_c, 6, 59, 95
5, 403200, Note_off_c, 6, 55, 95
5, 403200, Note_off_c, 6, 51, 95
5, 403200, Note_off_c, 6, 46, 95
5, 403200, Note_off_c, 6, 39, 95
5, 403200, Note_on_c, 6, 64, 95
5, 403200, Note_on_c, 6, 59, 95
5, 403200, Note_on_c, 6, 55, 95
5, 403200, Note_on_c, 6, 53, 95
5, 403200, Note_on_c, 6, 48, 95
5, 403200, Note_on_c, 6, 41, 95
5, 403680, Note_off_c, 6, 64, 95
5, 403680, Note_off_c, 6, 59, 95
5, 403680, Note_off_c, 6, 55, 95
5, 403680, Note_off_c, 6, 53, 95
5, 403680, Note_off_c, 6, 48, 95
5, 403680, Note_off_c, 6, 41, 95
5, 403680, Note_on_c, 6, 64, 95
5, 403680, Note_on_c, 6, 59, 95
5, 403680, Note_on_c, 6, 55, 95
5, 403680, Note_on_c, 6, 53, 95
5, 403680, Note_on_c, 6, 48, 95
5, 403680, Note_on_c, 6, 41, 95
5, 403920, Note_off_c, 6, 64, 95
5, 403920, Note_off_c, 6, 59, 95
5, 403920, Note_off_c, 6, 55, 95
5, 403920, Note_off_c, 6, 53, 95
5, 403920, Note_off_c, 6, 48, 95
5, 403920, Note_off_c, 6, 41, 95
5, 403920, Note_on_c, 6, 64, 95
5, 403920, Note_on_c, 6, 59, 95
5, 403920, Note_on_c, 6, 55, 95
5, 403920, Note_on_c, 6, 53, 95
5, 403920, Note_on_c, 6, 48, 95
5, 403920, Note_on_c, 6, 41, 95
5, 404160, Note_off_c, 6, 64, 95
5, 404160, Note_off_c, 6, 59, 95
5, 404160, Note_off_c, 6, 55, 95
5, 404160, Note_off_c, 6, 53, 95
5, 404160, Note_off_c, 6, 48, 95
5, 404160, Note_off_c, 6, 41, 95
5, 404160, Note_on_c, 6, 64, 95
5, 404160, Note_on_c, 6, 59, 95
5, 404160, Note_on_c, 6, 55, 95
5, 404160, Note_on_c, 6, 53, 95
5, 404160, Note_on_c, 6, 48, 95
5, 404160, Note_on_c, 6, 41, 95
5, 404400, Note_off_c, 6, 64, 95
5, 404400, Note_off_c, 6, 59, 95
5, 404400, Note_off_c, 6, 55, 95
5, 404400, Note_off_c, 6, 53, 95
5, 404400, Note_off_c, 6, 48, 95
5, 404400, Note_off_c, 6, 41, 95
5, 404400, Note_on_c, 6, 64, 95
5, 404400, Note_on_c, 6, 59, 95
5, 404400, Note_on_c, 6, 55, 95
5, 404400, Note_on_c, 6, 53, 95
5, 404400, Note_on_c, 6, 48, 95
5, 404400, Note_on_c, 6, 41, 95
5, 404640, Note_off_c, 6, 64, 95
5, 404640, Note_off_c, 6, 59, 95
5, 404640, Note_off_c, 6, 55, 95
5, 404640, Note_off_c, 6, 53, 95
5, 404640, Note_off_c, 6, 48, 95
5, 404640, Note_off_c, 6, 41, 95
5, 404640, Note_on_c, 6, 64, 95
5, 404640, Note_on_c, 6, 59, 95
5, 404640, Note_on_c, 6, 55, 95
5, 404640, Note_on_c, 6, 53, 95
5, 404640, Note_on_c, 6, 48, 95
5, 404640, Note_on_c, 6, 41, 95
5, 405120, Note_off_c, 6, 64, 95
5, 405120, Note_off_c, 6, 59, 95
5, 405120, Note_off_c, 6, 55, 95
5, 405120, Note_off_c, 6, 53, 95
5, 405120, Note_off_c, 6, 48, 95
5, 405120, Note_off_c, 6, 41, 95
5, 405120, Note_on_c, 6, 64, 111
5, 405120, Note_on_c, 6, 59, 95
5, 405120, Note_on_c, 6, 55, 111
5, 405120, Note_on_c, 6, 53, 111
5, 405120, Note_on_c, 6, 48, 111
5, 405120, Note_on_c, 6, 41, 111
5, 405360, Note_off_c, 6, 64, 111
5, 405360, Note_off_c, 6, 59, 95
5, 405360, Note_off_c, 6, 55, 111
5, 405360, Note_off_c, 6, 53, 111
5, 405360, Note_off_c, 6, 48, 111
5, 405360, Note_off_c, 6, 41, 111
5, 405360, Note_on_c, 6, 64, 95
5, 405360, Note_on_c, 6, 59, 95
5, 405360, Note_on_c, 6, 55, 95
5, 405360, Note_on_c, 6, 53, 95
5, 405360, Note_on_c, 6, 48, 95
5, 405360, Note_on_c, 6, 41, 95
5, 405600, Note_off_c, 6, 64, 95
5, 405600, Note_off_c, 6, 59, 95
5, 405600, Note_off_c, 6, 55, 95
5, 405600, Note_off_c, 6, 53, 95
5, 405600, Note_off_c, 6, 48, 95
5, 405600, Note_off_c, 6, 41, 95
5, 405600, Note_on_c, 6, 64, 95
5, 405600, Note_on_c, 6, 59, 95
5, 405600, Note_on_c, 6, 55, 95
5, 405600, Note_on_c, 6, 53, 95
5, 405600, Note_on_c, 6, 48, 95
5, 405600, Note_on_c, 6, 41, 95
5, 405840, Note_off_c, 6, 64, 95
5, 405840, Note_off_c, 6, 59, 95
5, 405840, Note_off_c, 6, 55, 95
5, 405840, Note_off_c, 6, 53, 95
5, 405840, Note_off_c, 6, 48, 95
5, 405840, Note_off_c, 6, 41, 95
5, 405840, Note_on_c, 6, 64, 95
5, 405840, Note_on_c, 6, 59, 95
5, 405840, Note_on_c, 6, 55, 95
5, 405840, Note_on_c, 6, 53, 95
5, 405840, Note_on_c, 6, 48, 95
5, 405840, Note_on_c, 6, 41, 95
5, 406080, Note_off_c, 6, 64, 95
5, 406080, Note_off_c, 6, 59, 95
5, 406080, Note_off_c, 6, 55, 95
5, 406080, Note_off_c, 6, 53, 95
5, 406080, Note_off_c, 6, 48, 95
5, 406080, Note_off_c, 6, 41, 95
5, 406080, Note_on_c, 6, 64, 95
5, 406080, Note_on_c, 6, 59, 95
5, 406080, Note_on_c, 6, 55, 95
5, 406080, Note_on_c, 6, 52, 95
5, 406080, Note_on_c, 6, 47, 95
5, 406080, Note_on_c, 6, 40, 95
5, 406560, Note_off_c, 6, 64, 95
5, 406560, Note_off_c, 6, 59, 95
5, 406560, Note_off_c, 6, 55, 95
5, 406560, Note_off_c, 6, 52, 95
5, 406560, Note_off_c, 6, 47, 95
5, 406560, Note_off_c, 6, 40, 95
5, 406560, Note_on_c, 6, 64, 95
5, 406560, Note_on_c, 6, 59, 95
5, 406560, Note_on_c, 6, 55, 95
5, 406560, Note_on_c, 6, 52, 95
5, 406560, Note_on_c, 6, 47, 95
5, 406560, Note_on_c, 6, 40, 95
5, 406800, Note_off_c, 6, 64, 95
5, 406800, Note_off_c, 6, 59, 95
5, 406800, Note_off_c, 6, 55, 95
5, 406800, Note_off_c, 6, 52, 95
5, 406800, Note_off_c, 6, 47, 95
5, 406800, Note_off_c, 6, 40, 95
5, 406800, Note_on_c, 6, 64, 95
5, 406800, Note_on_c, 6, 59, 95
5, 406800, Note_on_c, 6, 55, 95
5, 406800, Note_on_c, 6, 52, 95
5, 406800, Note_on_c, 6, 47, 95
5, 406800, Note_on_c, 6, 40, 95
5, 407040, Note_off_c, 6, 64, 95
5, 407040, Note_off_c, 6, 59, 95
5, 407040, Note_off_c, 6, 55, 95
5, 407040, Note_off_c, 6, 52, 95
5, 407040, Note_off_c, 6, 47, 95
5, 407040, Note_off_c, 6, 40, 95
5, 407040, Note_on_c, 6, 64, 95
5, 407040, Note_on_c, 6, 59, 95
5, 407040, Note_on_c, 6, 55, 95
5, 407040, Note_on_c, 6, 52, 95
5, 407040, Note_on_c, 6, 47, 95
5, 407040, Note_on_c, 6, 40, 95
5, 407280, Note_off_c, 6, 64, 95
5, 407280, Note_off_c, 6, 59, 95
5, 407280, Note_off_c, 6, 55, 95
5, 407280, Note_off_c, 6, 52, 95
5, 407280, Note_off_c, 6, 47, 95
5, 407280, Note_off_c, 6, 40, 95
5, 407280, Note_on_c, 6, 64, 95
5, 407280, Note_on_c, 6, 59, 95
5, 407280, Note_on_c, 6, 55, 95
5, 407280, Note_on_c, 6, 52, 95
5, 407280, Note_on_c, 6, 47, 95
5, 407280, Note_on_c, 6, 40, 95
5, 407520, Note_off_c, 6, 64, 95
5, 407520, Note_off_c, 6, 59, 95
5, 407520, Note_off_c, 6, 55, 95
5, 407520, Note_off_c, 6, 52, 95
5, 407520, Note_off_c, 6, 47, 95
5, 407520, Note_off_c, 6, 40, 95
5, 407520, Note_on_c, 6, 64, 95
5, 407520, Note_on_c, 6, 59, 95
5, 407520, Note_on_c, 6, 55, 95
5, 407520, Note_on_c, 6, 52, 95
5, 407520, Note_on_c, 6, 47, 95
5, 407520, Note_on_c, 6, 40, 95
5, 408000, Note_off_c, 6, 64, 95
5, 408000, Note_off_c, 6, 59, 95
5, 408000, Note_off_c, 6, 55, 95
5, 408000, Note_off_c, 6, 52, 95
5, 408000, Note_off_c, 6, 47, 95
5, 408000, Note_off_c, 6, 40, 95
5, 408000, Note_on_c, 6, 64, 111
5, 408000, Note_on_c, 6, 59, 111
5, 408000, Note_on_c, 6, 55, 111
5, 408000, Note_on_c, 6, 52, 111
5, 408000, Note_on_c, 6, 47, 111
5, 408000, Note_on_c, 6, 40, 111
5, 408240, Note_off_c, 6, 64, 111
5, 408240, Note_off_c, 6, 59, 111
5, 408240, Note_off_c, 6, 55, 111
5, 408240, Note_off_c, 6, 52, 111
5, 408240, Note_off_c, 6, 47, 111
5, 408240, Note_off_c, 6, 40, 111
5, 408240, Note_on_c, 6, 64, 95
5, 408240, Note_on_c, 6, 59, 95
5, 408240, Note_on_c, 6, 55, 95
5, 408240, Note_on_c, 6, 52, 95
5, 408240, Note_on_c, 6, 47, 95
5, 408240, Note_on_c, 6, 40, 95
5, 408480, Note_off_c, 6, 64, 95
5, 408480, Note_off_c, 6, 59, 95
5, 408480, Note_off_c, 6, 55, 95
5, 408480, Note_off_c, 6, 52, 95
5, 408480, Note_off_c, 6, 47, 95
5, 408480, Note_off_c, 6, 40, 95
5, 408480, Note_on_c, 6, 64, 95
5, 408480, Note_on_c, 6, 59, 95
5, 408480, Note_on_c, 6, 55, 95
5, 408480, Note_on_c, 6, 52, 95
5, 408480, Note_on_c, 6, 47, 95
5, 408480, Note_on_c, 6, 40, 95
5, 408720, Note_off_c, 6, 64, 95
5, 408720, Note_off_c, 6, 59, 95
5, 408720, Note_off_c, 6, 55, 95
5, 408720, Note_off_c, 6, 52, 95
5, 408720, Note_off_c, 6, 47, 95
5, 408720, Note_off_c, 6, 40, 95
5, 408720, Note_on_c, 6, 64, 95
5, 408720, Note_on_c, 6, 59, 95
5, 408720, Note_on_c, 6, 55, 95
5, 408720, Note_on_c, 6, 52, 95
5, 408720, Note_on_c, 6, 47, 95
5, 408720, Note_on_c, 6, 40, 95
5, 408960, Note_off_c, 6, 64, 95
5, 408960, Note_off_c, 6, 59, 95
5, 408960, Note_off_c, 6, 55, 95
5, 408960, Note_off_c, 6, 52, 95
5, 408960, Note_off_c, 6, 47, 95
5, 408960, Note_off_c, 6, 40, 95
5, 408960, Note_on_c, 6, 64, 95
5, 408960, Note_on_c, 6, 59, 95
5, 408960, Note_on_c, 6, 55, 95
5, 408960, Note_on_c, 6, 51, 95
5, 408960, Note_on_c, 6, 46, 95
5, 408960, Note_on_c, 6, 39, 95
5, 409440, Note_off_c, 6, 64, 95
5, 409440, Note_off_c, 6, 59, 95
5, 409440, Note_off_c, 6, 55, 95
5, 409440, Note_off_c, 6, 51, 95
5, 409440, Note_off_c, 6, 46, 95
5, 409440, Note_off_c, 6, 39, 95
5, 409440, Note_on_c, 6, 64, 95
5, 409440, Note_on_c, 6, 59, 95
5, 409440, Note_on_c, 6, 55, 95
5, 409440, Note_on_c, 6, 51, 95
5, 409440, Note_on_c, 6, 46, 95
5, 409440, Note_on_c, 6, 39, 95
5, 409680, Note_off_c, 6, 64, 95
5, 409680, Note_off_c, 6, 59, 95
5, 409680, Note_off_c, 6, 55, 95
5, 409680, Note_off_c, 6, 51, 95
5, 409680, Note_off_c, 6, 46, 95
5, 409680, Note_off_c, 6, 39, 95
5, 409680, Note_on_c, 6, 64, 95
5, 409680, Note_on_c, 6, 59, 95
5, 409680, Note_on_c, 6, 55, 95
5, 409680, Note_on_c, 6, 51, 95
5, 409680, Note_on_c, 6, 46, 95
5, 409680, Note_on_c, 6, 39, 95
5, 409920, Note_off_c, 6, 64, 95
5, 409920, Note_off_c, 6, 59, 95
5, 409920, Note_off_c, 6, 55, 95
5, 409920, Note_off_c, 6, 51, 95
5, 409920, Note_off_c, 6, 46, 95
5, 409920, Note_off_c, 6, 39, 95
5, 409920, Note_on_c, 6, 64, 95
5, 409920, Note_on_c, 6, 59, 95
5, 409920, Note_on_c, 6, 55, 95
5, 409920, Note_on_c, 6, 51, 95
5, 409920, Note_on_c, 6, 46, 95
5, 409920, Note_on_c, 6, 39, 95
5, 410160, Note_off_c, 6, 64, 95
5, 410160, Note_off_c, 6, 59, 95
5, 410160, Note_off_c, 6, 55, 95
5, 410160, Note_off_c, 6, 51, 95
5, 410160, Note_off_c, 6, 46, 95
5, 410160, Note_off_c, 6, 39, 95
5, 410160, Note_on_c, 6, 64, 95
5, 410160, Note_on_c, 6, 59, 95
5, 410160, Note_on_c, 6, 55, 95
5, 410160, Note_on_c, 6, 51, 95
5, 410160, Note_on_c, 6, 46, 95
5, 410160, Note_on_c, 6, 39, 95
5, 410400, Note_off_c, 6, 64, 95
5, 410400, Note_off_c, 6, 59, 95
5, 410400, Note_off_c, 6, 55, 95
5, 410400, Note_off_c, 6, 51, 95
5, 410400, Note_off_c, 6, 46, 95
5, 410400, Note_off_c, 6, 39, 95
5, 410400, Note_on_c, 6, 64, 95
5, 410400, Note_on_c, 6, 59, 95
5, 410400, Note_on_c, 6, 55, 95
5, 410400, Note_on_c, 6, 51, 95
5, 410400, Note_on_c, 6, 46, 95
5, 410400, Note_on_c, 6, 39, 95
5, 410880, Note_off_c, 6, 64, 95
5, 410880, Note_off_c, 6, 59, 95
5, 410880, Note_off_c, 6, 55, 95
5, 410880, Note_off_c, 6, 51, 95
5, 410880, Note_off_c, 6, 46, 95
5, 410880, Note_off_c, 6, 39, 95
5, 410880, Note_on_c, 6, 64, 111
5, 410880, Note_on_c, 6, 59, 111
5, 410880, Note_on_c, 6, 55, 111
5, 410880, Note_on_c, 6, 51, 111
5, 410880, Note_on_c, 6, 46, 111
5, 410880, Note_on_c, 6, 39, 111
5, 411120, Note_off_c, 6, 64, 111
5, 411120, Note_off_c, 6, 59, 111
5, 411120, Note_off_c, 6, 55, 111
5, 411120, Note_off_c, 6, 51, 111
5, 411120, Note_off_c, 6, 46, 111
5, 411120, Note_off_c, 6, 39, 111
5, 411120, Note_on_c, 6, 64, 95
5, 411120, Note_on_c, 6, 59, 95
5, 411120, Note_on_c, 6, 55, 95
5, 411120, Note_on_c, 6, 51, 95
5, 411120, Note_on_c, 6, 46, 95
5, 411120, Note_on_c, 6, 39, 95
5, 411360, Note_off_c, 6, 64, 95
5, 411360, Note_off_c, 6, 59, 95
5, 411360, Note_off_c, 6, 55, 95
5, 411360, Note_off_c, 6, 51, 95
5, 411360, Note_off_c, 6, 46, 95
5, 411360, Note_off_c, 6, 39, 95
5, 411360, Note_on_c, 6, 64, 95
5, 411360, Note_on_c, 6, 59, 95
5, 411360, Note_on_c, 6, 55, 95
5, 411360, Note_on_c, 6, 51, 95
5, 411360, Note_on_c, 6, 46, 95
5, 411360, Note_on_c, 6, 39, 95
5, 411600, Note_off_c, 6, 64, 95
5, 411600, Note_off_c, 6, 59, 95
5, 411600, Note_off_c, 6, 55, 95
5, 411600, Note_off_c, 6, 51, 95
5, 411600, Note_off_c, 6, 46, 95
5, 411600, Note_off_c, 6, 39, 95
5, 411600, Note_on_c, 6, 64, 95
5, 411600, Note_on_c, 6, 59, 95
5, 411600, Note_on_c, 6, 55, 95
5, 411600, Note_on_c, 6, 51, 95
5, 411600, Note_on_c, 6, 46, 95
5, 411600, Note_on_c, 6, 39, 95
5, 411840, Note_off_c, 6, 64, 95
5, 411840, Note_off_c, 6, 59, 95
5, 411840, Note_off_c, 6, 55, 95
5, 411840, Note_off_c, 6, 51, 95
5, 411840, Note_off_c, 6, 46, 95
5, 411840, Note_off_c, 6, 39, 95
5, 411840, Note_on_c, 6, 64, 95
5, 411840, Note_on_c, 6, 59, 95
5, 411840, Note_on_c, 6, 55, 95
5, 411840, Note_on_c, 6, 51, 95
5, 411840, Note_on_c, 6, 46, 95
5, 411840, Note_on_c, 6, 39, 95
5, 412320, Note_off_c, 6, 64, 95
5, 412320, Note_off_c, 6, 59, 95
5, 412320, Note_off_c, 6, 55, 95
5, 412320, Note_off_c, 6, 51, 95
5, 412320, Note_off_c, 6, 46, 95
5, 412320, Note_off_c, 6, 39, 95
5, 412320, Note_on_c, 6, 64, 95
5, 412320, Note_on_c, 6, 59, 95
5, 412320, Note_on_c, 6, 55, 95
5, 412320, Note_on_c, 6, 51, 95
5, 412320, Note_on_c, 6, 46, 95
5, 412320, Note_on_c, 6, 39, 95
5, 412560, Note_off_c, 6, 64, 95
5, 412560, Note_off_c, 6, 59, 95
5, 412560, Note_off_c, 6, 55, 95
5, 412560, Note_off_c, 6, 51, 95
5, 412560, Note_off_c, 6, 46, 95
5, 412560, Note_off_c, 6, 39, 95
5, 412560, Note_on_c, 6, 64, 95
5, 412560, Note_on_c, 6, 59, 95
5, 412560, Note_on_c, 6, 55, 95
5, 412560, Note_on_c, 6, 51, 95
5, 412560, Note_on_c, 6, 46, 95
5, 412560, Note_on_c, 6, 39, 95
5, 412800, Note_off_c, 6, 64, 95
5, 412800, Note_off_c, 6, 59, 95
5, 412800, Note_off_c, 6, 55, 95
5, 412800, Note_off_c, 6, 51, 95
5, 412800, Note_off_c, 6, 46, 95
5, 412800, Note_off_c, 6, 39, 95
5, 412800, Note_on_c, 6, 64, 95
5, 412800, Note_on_c, 6, 59, 95
5, 412800, Note_on_c, 6, 55, 95
5, 412800, Note_on_c, 6, 51, 95
5, 412800, Note_on_c, 6, 46, 95
5, 412800, Note_on_c, 6, 39, 95
5, 413040, Note_off_c, 6, 64, 95
5, 413040, Note_off_c, 6, 59, 95
5, 413040, Note_off_c, 6, 55, 95
5, 413040, Note_off_c, 6, 51, 95
5, 413040, Note_off_c, 6, 46, 95
5, 413040, Note_off_c, 6, 39, 95
5, 413040, Note_on_c, 6, 64, 95
5, 413040, Note_on_c, 6, 59, 95
5, 413040, Note_on_c, 6, 55, 95
5, 413040, Note_on_c, 6, 51, 95
5, 413040, Note_on_c, 6, 46, 95
5, 413040, Note_on_c, 6, 39, 95
5, 413280, Note_off_c, 6, 64, 95
5, 413280, Note_off_c, 6, 59, 95
5, 413280, Note_off_c, 6, 55, 95
5, 413280, Note_off_c, 6, 51, 95
5, 413280, Note_off_c, 6, 46, 95
5, 413280, Note_off_c, 6, 39, 95
5, 413280, Note_on_c, 6, 64, 95
5, 413280, Note_on_c, 6, 59, 95
5, 413280, Note_on_c, 6, 55, 95
5, 413280, Note_on_c, 6, 51, 95
5, 413280, Note_on_c, 6, 46, 95
5, 413280, Note_on_c, 6, 39, 95
5, 413760, Note_off_c, 6, 64, 95
5, 413760, Note_off_c, 6, 59, 95
5, 413760, Note_off_c, 6, 55, 95
5, 413760, Note_off_c, 6, 51, 95
5, 413760, Note_off_c, 6, 46, 95
5, 413760, Note_off_c, 6, 39, 95
5, 413760, Note_on_c, 6, 64, 111
5, 413760, Note_on_c, 6, 59, 111
5, 413760, Note_on_c, 6, 55, 111
5, 413760, Note_on_c, 6, 51, 111
5, 413760, Note_on_c, 6, 46, 111
5, 413760, Note_on_c, 6, 39, 111
5, 414000, Note_off_c, 6, 64, 111
5, 414000, Note_off_c, 6, 59, 111
5, 414000, Note_off_c, 6, 55, 111
5, 414000, Note_off_c, 6, 51, 111
5, 414000, Note_off_c, 6, 46, 111
5, 414000, Note_off_c, 6, 39, 111
5, 414000, Note_on_c, 6, 64, 95
5, 414000, Note_on_c, 6, 59, 95
5, 414000, Note_on_c, 6, 55, 95
5, 414000, Note_on_c, 6, 51, 95
5, 414000, Note_on_c, 6, 46, 95
5, 414000, Note_on_c, 6, 39, 95
5, 414240, Note_off_c, 6, 64, 95
5, 414240, Note_off_c, 6, 59, 95
5, 414240, Note_off_c, 6, 55, 95
5, 414240, Note_off_c, 6, 51, 95
5, 414240, Note_off_c, 6, 46, 95
5, 414240, Note_off_c, 6, 39, 95
5, 414240, Note_on_c, 6, 64, 95
5, 414240, Note_on_c, 6, 59, 95
5, 414240, Note_on_c, 6, 55, 95
5, 414240, Note_on_c, 6, 51, 95
5, 414240, Note_on_c, 6, 46, 95
5, 414240, Note_on_c, 6, 39, 95
5, 414480, Note_off_c, 6, 64, 95
5, 414480, Note_off_c, 6, 59, 95
5, 414480, Note_off_c, 6, 55, 95
5, 414480, Note_off_c, 6, 51, 95
5, 414480, Note_off_c, 6, 46, 95
5, 414480, Note_off_c, 6, 39, 95
5, 414480, Note_on_c, 6, 64, 95
5, 414480, Note_on_c, 6, 59, 95
5, 414480, Note_on_c, 6, 55, 95
5, 414480, Note_on_c, 6, 51, 95
5, 414480, Note_on_c, 6, 46, 95
5, 414480, Note_on_c, 6, 39, 95
5, 414720, Note_off_c, 6, 64, 95
5, 414720, Note_off_c, 6, 59, 95
5, 414720, Note_off_c, 6, 55, 95
5, 414720, Note_off_c, 6, 51, 95
5, 414720, Note_off_c, 6, 46, 95
5, 414720, Note_off_c, 6, 39, 95
5, 414720, Note_on_c, 6, 64, 95
5, 414720, Note_on_c, 6, 59, 95
5, 414720, Note_on_c, 6, 55, 95
5, 414720, Note_on_c, 6, 51, 95
5, 414720, Note_on_c, 6, 46, 95
5, 414720, Note_on_c, 6, 39, 95
5, 415200, Note_off_c, 6, 64, 95
5, 415200, Note_off_c, 6, 59, 95
5, 415200, Note_off_c, 6, 55, 95
5, 415200, Note_off_c, 6, 51, 95
5, 415200, Note_off_c, 6, 46, 95
5, 415200, Note_off_c, 6, 39, 95
5, 415200, Note_on_c, 6, 64, 95
5, 415200, Note_on_c, 6, 59, 95
5, 415200, Note_on_c, 6, 55, 95
5, 415200, Note_on_c, 6, 51, 95
5, 415200, Note_on_c, 6, 46, 95
5, 415200, Note_on_c, 6, 39, 95
5, 415440, Note_off_c, 6, 64, 95
5, 415440, Note_off_c, 6, 59, 95
5, 415440, Note_off_c, 6, 55, 95
5, 415440, Note_off_c, 6, 51, 95
5, 415440, Note_off_c, 6, 46, 95
5, 415440, Note_off_c, 6, 39, 95
5, 415440, Note_on_c, 6, 64, 95
5, 415440, Note_on_c, 6, 59, 95
5, 415440, Note_on_c, 6, 55, 95
5, 415440, Note_on_c, 6, 51, 95
5, 415440, Note_on_c, 6, 46, 95
5, 415440, Note_on_c, 6, 39, 95
5, 415680, Note_off_c, 6, 64, 95
5, 415680, Note_off_c, 6, 59, 95
5, 415680, Note_off_c, 6, 55, 95
5, 415680, Note_off_c, 6, 51, 95
5, 415680, Note_off_c, 6, 46, 95
5, 415680, Note_off_c, 6, 39, 95
5, 415680, Note_on_c, 6, 64, 95
5, 415680, Note_on_c, 6, 59, 95
5, 415680, Note_on_c, 6, 55, 95
5, 415680, Note_on_c, 6, 51, 95
5, 415680, Note_on_c, 6, 46, 95
5, 415680, Note_on_c, 6, 39, 95
5, 415920, Note_off_c, 6, 64, 95
5, 415920, Note_off_c, 6, 59, 95
5, 415920, Note_off_c, 6, 55, 95
5, 415920, Note_off_c, 6, 51, 95
5, 415920, Note_off_c, 6, 46, 95
5, 415920, Note_off_c, 6, 39, 95
5, 415920, Note_on_c, 6, 64, 95
5, 415920, Note_on_c, 6, 59, 95
5, 415920, Note_on_c, 6, 55, 95
5, 415920, Note_on_c, 6, 51, 95
5, 415920, Note_on_c, 6, 46, 95
5, 415920, Note_on_c, 6, 39, 95
5, 416160, Note_off_c, 6, 64, 95
5, 416160, Note_off_c, 6, 59, 95
5, 416160, Note_off_c, 6, 55, 95
5, 416160, Note_off_c, 6, 51, 95
5, 416160, Note_off_c, 6, 46, 95
5, 416160, Note_off_c, 6, 39, 95
5, 416160, Note_on_c, 6, 64, 95
5, 416160, Note_on_c, 6, 59, 95
5, 416160, Note_on_c, 6, 55, 95
5, 416160, Note_on_c, 6, 51, 95
5, 416160, Note_on_c, 6, 46, 95
5, 416160, Note_on_c, 6, 39, 95
5, 416640, Note_off_c, 6, 64, 95
5, 416640, Note_off_c, 6, 59, 95
5, 416640, Note_off_c, 6, 55, 95
5, 416640, Note_off_c, 6, 51, 95
5, 416640, Note_off_c, 6, 46, 95
5, 416640, Note_off_c, 6, 39, 95
5, 416640, Note_on_c, 6, 64, 111
5, 416640, Note_on_c, 6, 59, 111
5, 416640, Note_on_c, 6, 55, 111
5, 416640, Note_on_c, 6, 51, 111
5, 416640, Note_on_c, 6, 46, 111
5, 416640, Note_on_c, 6, 39, 111
5, 416880, Note_off_c, 6, 64, 111
5, 416880, Note_off_c, 6, 59, 111
5, 416880, Note_off_c, 6, 55, 111
5, 416880, Note_off_c, 6, 51, 111
5, 416880, Note_off_c, 6, 46, 111
5, 416880, Note_off_c, 6, 39, 111
5, 416880, Note_on_c, 6, 64, 95
5, 416880, Note_on_c, 6, 59, 95
5, 416880, Note_on_c, 6, 55, 95
5, 416880, Note_on_c, 6, 51, 95
5, 416880, Note_on_c, 6, 46, 95
5, 416880, Note_on_c, 6, 39, 95
5, 417120, Note_off_c, 6, 64, 95
5, 417120, Note_off_c, 6, 59, 95
5, 417120, Note_off_c, 6, 55, 95
5, 417120, Note_off_c, 6, 51, 95
5, 417120, Note_off_c, 6, 46, 95
5, 417120, Note_off_c, 6, 39, 95
5, 417120, Note_on_c, 6, 64, 95
5, 417120, Note_on_c, 6, 59, 95
5, 417120, Note_on_c, 6, 55, 95
5, 417120, Note_on_c, 6, 51, 95
5, 417120, Note_on_c, 6, 46, 95
5, 417120, Note_on_c, 6, 39, 95
5, 417360, Note_off_c, 6, 64, 95
5, 417360, Note_off_c, 6, 59, 95
5, 417360, Note_off_c, 6, 55, 95
5, 417360, Note_off_c, 6, 51, 95
5, 417360, Note_off_c, 6, 46, 95
5, 417360, Note_off_c, 6, 39, 95
5, 417360, Note_on_c, 6, 64, 95
5, 417360, Note_on_c, 6, 59, 95
5, 417360, Note_on_c, 6, 55, 95
5, 417360, Note_on_c, 6, 51, 95
5, 417360, Note_on_c, 6, 46, 95
5, 417360, Note_on_c, 6, 39, 95
5, 417600, Note_off_c, 6, 64, 95
5, 417600, Note_off_c, 6, 59, 95
5, 417600, Note_off_c, 6, 55, 95
5, 417600, Note_off_c, 6, 51, 95
5, 417600, Note_off_c, 6, 46, 95
5, 417600, Note_off_c, 6, 39, 95
5, 417600, End_track
0, 0, End_of_file
