0, 0, Header, 1, 22, 120
1, 0, Start_track
1, 0, Title_t, """Guaranteed""  -- By: Level 42 -- from the album ""Guaranteed"""
1, 0, Text_t, "Sequencing by: Charl Mocke -- 9413693@narga.sun.ac.za\012"
1, 0, Text_t, "Additional sequencing by: Sean D. Green -- The Midi Extreme\012"
1, 0, Text_t, "http://www.flash.net/~questps/midi.htm\012"
1, 0, SMPTE_offset, 96, 0, 3, 0, 0
1, 0, Time_signature, 4, 2, 24, 8
1, 0, Key_signature, 0, "major"
1, 0, Tempo, 508475
1, 0, End_track
2, 0, Start_track
2, 0, MIDI_port, 0
2, 0, Title_t, "Fingered Bass"
2, 0, Control_c, 0, 0, 56
2, 0, Control_c, 0, 32, 0
2, 0, Program_c, 0, 33
2, 0, Control_c, 0, 7, 127
2, 0, Control_c, 0, 10, 64
2, 480, Note_on_c, 0, 35, 127
2, 513, Note_on_c, 0, 35, 0
2, 540, Note_on_c, 0, 35, 110
2, 556, Note_on_c, 0, 35, 0
2, 570, Note_on_c, 0, 35, 110
2, 584, Note_on_c, 0, 35, 0
2, 600, Note_on_c, 0, 35, 127
2, 630, Note_on_c, 0, 35, 0
2, 660, Note_on_c, 0, 35, 110
2, 677, Note_on_c, 0, 35, 0
2, 690, Note_on_c, 0, 35, 110
2, 705, Note_on_c, 0, 35, 0
2, 720, Note_on_c, 0, 35, 127
2, 754, Note_on_c, 0, 35, 0
2, 780, Note_on_c, 0, 35, 110
2, 795, Note_on_c, 0, 35, 0
2, 810, Note_on_c, 0, 35, 110
2, 824, Note_on_c, 0, 35, 0
2, 840, Note_on_c, 0, 35, 127
2, 870, Note_on_c, 0, 35, 0
2, 900, Note_on_c, 0, 35, 110
2, 917, Note_on_c, 0, 35, 0
2, 930, Note_on_c, 0, 35, 110
2, 951, Note_on_c, 0, 35, 0
2, 960, Note_on_c, 0, 33, 127
2, 993, Note_on_c, 0, 33, 0
2, 1020, Note_on_c, 0, 33, 110
2, 1035, Note_on_c, 0, 33, 0
2, 1050, Note_on_c, 0, 33, 110
2, 1064, Note_on_c, 0, 33, 0
2, 1080, Note_on_c, 0, 33, 127
2, 1112, Note_on_c, 0, 33, 0
2, 1140, Note_on_c, 0, 33, 110
2, 1154, Note_on_c, 0, 33, 0
2, 1170, Note_on_c, 0, 33, 110
2, 1181, Note_on_c, 0, 33, 0
2, 1200, Note_on_c, 0, 33, 127
2, 1236, Note_on_c, 0, 33, 0
2, 1260, Note_on_c, 0, 33, 110
2, 1272, Note_on_c, 0, 33, 0
2, 1290, Note_on_c, 0, 33, 110
2, 1305, Note_on_c, 0, 33, 0
2, 1320, Note_on_c, 0, 33, 127
2, 1350, Note_on_c, 0, 33, 0
2, 1380, Note_on_c, 0, 33, 110
2, 1395, Note_on_c, 0, 33, 0
2, 1410, Note_on_c, 0, 33, 110
2, 1427, Note_on_c, 0, 33, 0
2, 1440, Note_on_c, 0, 32, 127
2, 1462, Note_on_c, 0, 32, 0
2, 1500, Note_on_c, 0, 32, 110
2, 1517, Note_on_c, 0, 32, 0
2, 1530, Note_on_c, 0, 32, 110
2, 1546, Note_on_c, 0, 32, 0
2, 1560, Note_on_c, 0, 32, 127
2, 1587, Note_on_c, 0, 32, 0
2, 1620, Note_on_c, 0, 32, 110
2, 1634, Note_on_c, 0, 32, 0
2, 1650, Note_on_c, 0, 32, 110
2, 1665, Note_on_c, 0, 32, 0
2, 1680, Note_on_c, 0, 32, 127
2, 1699, Note_on_c, 0, 32, 0
2, 1740, Note_on_c, 0, 32, 110
2, 1755, Note_on_c, 0, 32, 0
2, 1770, Note_on_c, 0, 32, 110
2, 1784, Note_on_c, 0, 32, 0
2, 1800, Note_on_c, 0, 32, 127
2, 1821, Note_on_c, 0, 32, 0
2, 1860, Note_on_c, 0, 32, 110
2, 1874, Note_on_c, 0, 32, 0
2, 1890, Note_on_c, 0, 32, 110
2, 1912, Note_on_c, 0, 32, 0
2, 1920, Note_on_c, 0, 37, 127
2, 1946, Note_on_c, 0, 37, 0
2, 1980, Note_on_c, 0, 37, 110
2, 1994, Note_on_c, 0, 37, 0
2, 2010, Note_on_c, 0, 37, 110
2, 2024, Note_on_c, 0, 37, 0
2, 2040, Note_on_c, 0, 37, 127
2, 2064, Note_on_c, 0, 37, 0
2, 2100, Note_on_c, 0, 37, 110
2, 2114, Note_on_c, 0, 37, 0
2, 2130, Note_on_c, 0, 37, 110
2, 2144, Note_on_c, 0, 37, 0
2, 2160, Note_on_c, 0, 37, 127
2, 2188, Note_on_c, 0, 37, 0
2, 2220, Note_on_c, 0, 37, 110
2, 2236, Note_on_c, 0, 37, 0
2, 2250, Note_on_c, 0, 37, 110
2, 2266, Note_on_c, 0, 37, 0
2, 2280, Note_on_c, 0, 37, 127
2, 2308, Note_on_c, 0, 37, 0
2, 2340, Note_on_c, 0, 37, 110
2, 2362, Note_on_c, 0, 37, 0
2, 2370, Note_on_c, 0, 29, 110
2, 2396, Note_on_c, 0, 29, 0
2, 2400, Note_on_c, 0, 30, 127
2, 2428, Note_on_c, 0, 30, 0
2, 2460, Note_on_c, 0, 30, 110
2, 2474, Note_on_c, 0, 30, 0
2, 2490, Note_on_c, 0, 30, 110
2, 2503, Note_on_c, 0, 30, 0
2, 2520, Note_on_c, 0, 30, 127
2, 2548, Note_on_c, 0, 30, 0
2, 2580, Note_on_c, 0, 30, 110
2, 2594, Note_on_c, 0, 30, 0
2, 2610, Note_on_c, 0, 30, 110
2, 2623, Note_on_c, 0, 30, 0
2, 2640, Note_on_c, 0, 30, 127
2, 2664, Note_on_c, 0, 30, 0
2, 2700, Note_on_c, 0, 30, 110
2, 2715, Note_on_c, 0, 30, 0
2, 2730, Note_on_c, 0, 30, 110
2, 2744, Note_on_c, 0, 30, 0
2, 2760, Note_on_c, 0, 30, 127
2, 2785, Note_on_c, 0, 30, 0
2, 2820, Note_on_c, 0, 30, 110
2, 2836, Note_on_c, 0, 30, 0
2, 2850, Note_on_c, 0, 30, 110
2, 2872, Note_on_c, 0, 30, 0
2, 2880, Note_on_c, 0, 32, 127
2, 2905, Note_on_c, 0, 32, 0
2, 2940, Note_on_c, 0, 32, 110
2, 2953, Note_on_c, 0, 32, 0
2, 2970, Note_on_c, 0, 32, 110
2, 2985, Note_on_c, 0, 32, 0
2, 3000, Note_on_c, 0, 32, 127
2, 3028, Note_on_c, 0, 32, 0
2, 3060, Note_on_c, 0, 32, 110
2, 3073, Note_on_c, 0, 32, 0
2, 3090, Note_on_c, 0, 32, 110
2, 3104, Note_on_c, 0, 32, 0
2, 3120, Note_on_c, 0, 32, 127
2, 3149, Note_on_c, 0, 32, 0
2, 3180, Note_on_c, 0, 32, 110
2, 3194, Note_on_c, 0, 32, 0
2, 3210, Note_on_c, 0, 32, 110
2, 3223, Note_on_c, 0, 32, 0
2, 3240, Note_on_c, 0, 32, 127
2, 3272, Note_on_c, 0, 32, 0
2, 3300, Note_on_c, 0, 32, 110
2, 3314, Note_on_c, 0, 32, 0
2, 3330, Note_on_c, 0, 32, 110
2, 3357, Note_on_c, 0, 32, 0
2, 3360, Note_on_c, 0, 37, 127
2, 3390, Note_on_c, 0, 37, 0
2, 3420, Note_on_c, 0, 37, 110
2, 3435, Note_on_c, 0, 37, 0
2, 3450, Note_on_c, 0, 37, 110
2, 3465, Note_on_c, 0, 37, 0
2, 3480, Note_on_c, 0, 37, 127
2, 3506, Note_on_c, 0, 37, 0
2, 3540, Note_on_c, 0, 37, 110
2, 3554, Note_on_c, 0, 37, 0
2, 3570, Note_on_c, 0, 37, 110
2, 3584, Note_on_c, 0, 37, 0
2, 3600, Note_on_c, 0, 37, 127
2, 3630, Note_on_c, 0, 37, 0
2, 3660, Note_on_c, 0, 37, 110
2, 3676, Note_on_c, 0, 37, 0
2, 3690, Note_on_c, 0, 37, 110
2, 3706, Note_on_c, 0, 37, 0
2, 3720, Note_on_c, 0, 37, 127
2, 3748, Note_on_c, 0, 37, 0
2, 3780, Note_on_c, 0, 37, 110
2, 3809, Note_on_c, 0, 37, 0
2, 3810, Note_on_c, 0, 35, 110
2, 3836, Note_on_c, 0, 35, 0
2, 3840, Note_on_c, 0, 37, 127
2, 3871, Note_on_c, 0, 37, 0
2, 3900, Note_on_c, 0, 37, 110
2, 3915, Note_on_c, 0, 37, 0
2, 3930, Note_on_c, 0, 37, 110
2, 3944, Note_on_c, 0, 37, 0
2, 3960, Note_on_c, 0, 37, 127
2, 3986, Note_on_c, 0, 37, 0
2, 4020, Note_on_c, 0, 37, 110
2, 4035, Note_on_c, 0, 37, 0
2, 4050, Note_on_c, 0, 37, 110
2, 4065, Note_on_c, 0, 37, 0
2, 4080, Note_on_c, 0, 37, 127
2, 4103, Note_on_c, 0, 37, 0
2, 4140, Note_on_c, 0, 37, 110
2, 4153, Note_on_c, 0, 37, 0
2, 4170, Note_on_c, 0, 37, 110
2, 4184, Note_on_c, 0, 37, 0
2, 4200, Note_on_c, 0, 37, 127
2, 4228, Note_on_c, 0, 37, 0
2, 4260, Note_on_c, 0, 37, 110
2, 4274, Note_on_c, 0, 37, 0
2, 4290, Note_on_c, 0, 37, 110
2, 4310, Note_on_c, 0, 37, 0
2, 4320, Note_on_c, 0, 35, 127
2, 4360, Note_on_c, 0, 35, 0
2, 4380, Note_on_c, 0, 35, 110
2, 4394, Note_on_c, 0, 35, 0
2, 4410, Note_on_c, 0, 35, 110
2, 4424, Note_on_c, 0, 35, 0
2, 4440, Note_on_c, 0, 35, 127
2, 4461, Note_on_c, 0, 35, 0
2, 4500, Note_on_c, 0, 35, 110
2, 4514, Note_on_c, 0, 35, 0
2, 4530, Note_on_c, 0, 35, 110
2, 4546, Note_on_c, 0, 35, 0
2, 4560, Note_on_c, 0, 35, 127
2, 4586, Note_on_c, 0, 35, 0
2, 4620, Note_on_c, 0, 35, 110
2, 4634, Note_on_c, 0, 35, 0
2, 4650, Note_on_c, 0, 35, 110
2, 4664, Note_on_c, 0, 35, 0
2, 4680, Note_on_c, 0, 35, 127
2, 4702, Note_on_c, 0, 35, 0
2, 4740, Note_on_c, 0, 35, 110
2, 4754, Note_on_c, 0, 35, 0
2, 4770, Note_on_c, 0, 35, 110
2, 4796, Note_on_c, 0, 35, 0
2, 4800, Note_on_c, 0, 33, 127
2, 4831, Note_on_c, 0, 33, 0
2, 4860, Note_on_c, 0, 33, 110
2, 4872, Note_on_c, 0, 33, 0
2, 4890, Note_on_c, 0, 33, 110
2, 4905, Note_on_c, 0, 33, 0
2, 4920, Note_on_c, 0, 33, 127
2, 4943, Note_on_c, 0, 33, 0
2, 4980, Note_on_c, 0, 33, 110
2, 4993, Note_on_c, 0, 33, 0
2, 5010, Note_on_c, 0, 33, 110
2, 5028, Note_on_c, 0, 33, 0
2, 5040, Note_on_c, 0, 33, 127
2, 5067, Note_on_c, 0, 33, 0
2, 5100, Note_on_c, 0, 33, 110
2, 5113, Note_on_c, 0, 33, 0
2, 5130, Note_on_c, 0, 33, 110
2, 5143, Note_on_c, 0, 33, 0
2, 5160, Note_on_c, 0, 33, 127
2, 5191, Note_on_c, 0, 33, 0
2, 5220, Note_on_c, 0, 33, 110
2, 5232, Note_on_c, 0, 33, 0
2, 5250, Note_on_c, 0, 33, 110
2, 5269, Note_on_c, 0, 33, 0
2, 5280, Note_on_c, 0, 32, 127
2, 5309, Note_on_c, 0, 32, 0
2, 5340, Note_on_c, 0, 32, 110
2, 5355, Note_on_c, 0, 32, 0
2, 5370, Note_on_c, 0, 32, 110
2, 5383, Note_on_c, 0, 32, 0
2, 5400, Note_on_c, 0, 32, 127
2, 5427, Note_on_c, 0, 32, 0
2, 5460, Note_on_c, 0, 32, 110
2, 5475, Note_on_c, 0, 32, 0
2, 5490, Note_on_c, 0, 32, 110
2, 5503, Note_on_c, 0, 32, 0
2, 5520, Note_on_c, 0, 32, 127
2, 5547, Note_on_c, 0, 32, 0
2, 5580, Note_on_c, 0, 32, 110
2, 5593, Note_on_c, 0, 32, 0
2, 5610, Note_on_c, 0, 32, 110
2, 5624, Note_on_c, 0, 32, 0
2, 5640, Note_on_c, 0, 32, 127
2, 5668, Note_on_c, 0, 32, 0
2, 5700, Note_on_c, 0, 32, 110
2, 5724, Note_on_c, 0, 32, 0
2, 5730, Note_on_c, 0, 35, 110
2, 5760, Note_on_c, 0, 37, 127
2, 5763, Note_on_c, 0, 35, 0
2, 5796, Note_on_c, 0, 37, 0
2, 5820, Note_on_c, 0, 37, 110
2, 5833, Note_on_c, 0, 37, 0
2, 5850, Note_on_c, 0, 37, 110
2, 5864, Note_on_c, 0, 37, 0
2, 5880, Note_on_c, 0, 37, 127
2, 5910, Note_on_c, 0, 37, 0
2, 5940, Note_on_c, 0, 37, 110
2, 5954, Note_on_c, 0, 37, 0
2, 5970, Note_on_c, 0, 37, 110
2, 5983, Note_on_c, 0, 37, 0
2, 6000, Note_on_c, 0, 37, 127
2, 6029, Note_on_c, 0, 37, 0
2, 6060, Note_on_c, 0, 37, 110
2, 6075, Note_on_c, 0, 37, 0
2, 6090, Note_on_c, 0, 37, 110
2, 6114, Note_on_c, 0, 37, 0
2, 6120, Note_on_c, 0, 29, 127
2, 6148, Note_on_c, 0, 29, 0
2, 6180, Note_on_c, 0, 29, 110
2, 6193, Note_on_c, 0, 29, 0
2, 6210, Note_on_c, 0, 29, 110
2, 6235, Note_on_c, 0, 29, 0
2, 6240, Note_on_c, 0, 30, 127
2, 6272, Note_on_c, 0, 30, 0
2, 6300, Note_on_c, 0, 30, 110
2, 6315, Note_on_c, 0, 30, 0
2, 6330, Note_on_c, 0, 30, 110
2, 6344, Note_on_c, 0, 30, 0
2, 6360, Note_on_c, 0, 30, 127
2, 6386, Note_on_c, 0, 30, 0
2, 6420, Note_on_c, 0, 30, 110
2, 6434, Note_on_c, 0, 30, 0
2, 6450, Note_on_c, 0, 30, 110
2, 6464, Note_on_c, 0, 30, 0
2, 6480, Note_on_c, 0, 30, 127
2, 6506, Note_on_c, 0, 30, 0
2, 6540, Note_on_c, 0, 30, 110
2, 6552, Note_on_c, 0, 30, 0
2, 6570, Note_on_c, 0, 30, 110
2, 6583, Note_on_c, 0, 30, 0
2, 6600, Note_on_c, 0, 30, 127
2, 6624, Note_on_c, 0, 30, 0
2, 6660, Note_on_c, 0, 30, 110
2, 6676, Note_on_c, 0, 30, 0
2, 6690, Note_on_c, 0, 30, 110
2, 6720, Note_on_c, 0, 32, 127
2, 6725, Note_on_c, 0, 30, 0
2, 6750, Note_on_c, 0, 32, 0
2, 6780, Note_on_c, 0, 32, 110
2, 6794, Note_on_c, 0, 32, 0
2, 6810, Note_on_c, 0, 32, 110
2, 6823, Note_on_c, 0, 32, 0
2, 6840, Note_on_c, 0, 32, 127
2, 6861, Note_on_c, 0, 32, 0
2, 6900, Note_on_c, 0, 32, 110
2, 6915, Note_on_c, 0, 32, 0
2, 6930, Note_on_c, 0, 32, 110
2, 6945, Note_on_c, 0, 32, 0
2, 6960, Note_on_c, 0, 32, 127
2, 6984, Note_on_c, 0, 32, 0
2, 7020, Note_on_c, 0, 32, 110
2, 7035, Note_on_c, 0, 32, 0
2, 7050, Note_on_c, 0, 32, 110
2, 7066, Note_on_c, 0, 32, 0
2, 7080, Note_on_c, 0, 32, 127
2, 7104, Note_on_c, 0, 32, 0
2, 7140, Note_on_c, 0, 32, 110
2, 7153, Note_on_c, 0, 32, 0
2, 7170, Note_on_c, 0, 32, 110
2, 7195, Note_on_c, 0, 32, 0
2, 7200, Note_on_c, 0, 37, 127
2, 7228, Note_on_c, 0, 37, 0
2, 7260, Note_on_c, 0, 37, 110
2, 7274, Note_on_c, 0, 37, 0
2, 7290, Note_on_c, 0, 37, 110
2, 7306, Note_on_c, 0, 37, 0
2, 7320, Note_on_c, 0, 37, 127
2, 7343, Note_on_c, 0, 37, 0
2, 7380, Note_on_c, 0, 37, 110
2, 7395, Note_on_c, 0, 37, 0
2, 7410, Note_on_c, 0, 37, 110
2, 7427, Note_on_c, 0, 37, 0
2, 7440, Note_on_c, 0, 37, 127
2, 7468, Note_on_c, 0, 37, 0
2, 7500, Note_on_c, 0, 37, 110
2, 7519, Note_on_c, 0, 37, 0
2, 7530, Note_on_c, 0, 37, 110
2, 7551, Note_on_c, 0, 37, 0
2, 7560, Note_on_c, 0, 37, 127
2, 7583, Note_on_c, 0, 37, 0
2, 7620, Note_on_c, 0, 32, 110
2, 7647, Note_on_c, 0, 32, 0
2, 7650, Note_on_c, 0, 35, 110
2, 7680, Note_on_c, 0, 37, 127
2, 7688, Note_on_c, 0, 35, 0
2, 7714, Note_on_c, 0, 37, 0
2, 7740, Note_on_c, 0, 37, 110
2, 7755, Note_on_c, 0, 37, 0
2, 7770, Note_on_c, 0, 37, 110
2, 7785, Note_on_c, 0, 37, 0
2, 7800, Note_on_c, 0, 37, 127
2, 7836, Note_on_c, 0, 37, 0
2, 7860, Note_on_c, 0, 37, 110
2, 7875, Note_on_c, 0, 37, 0
2, 7890, Note_on_c, 0, 37, 110
2, 7916, Note_on_c, 0, 37, 0
2, 7920, Note_on_c, 0, 35, 127
2, 7968, Note_on_c, 0, 35, 0
2, 7980, Note_on_c, 0, 35, 110
2, 8018, Note_on_c, 0, 35, 0
2, 8100, Note_on_c, 0, 37, 110
2, 8163, Note_on_c, 0, 37, 0
2, 8220, Note_on_c, 0, 37, 110
2, 8234, Note_on_c, 0, 37, 0
2, 8250, Note_on_c, 0, 37, 110
2, 8267, Note_on_c, 0, 37, 0
2, 8280, Note_on_c, 0, 37, 127
2, 8310, Note_on_c, 0, 37, 0
2, 8340, Note_on_c, 0, 37, 110
2, 8354, Note_on_c, 0, 37, 0
2, 8370, Note_on_c, 0, 37, 110
2, 8384, Note_on_c, 0, 37, 0
2, 8400, Note_on_c, 0, 37, 127
2, 8436, Note_on_c, 0, 37, 0
2, 8460, Note_on_c, 0, 37, 110
2, 8473, Note_on_c, 0, 37, 0
2, 8490, Note_on_c, 0, 37, 110
2, 8505, Note_on_c, 0, 37, 0
2, 8520, Note_on_c, 0, 37, 127
2, 8555, Note_on_c, 0, 37, 0
2, 8580, Note_on_c, 0, 37, 110
2, 8594, Note_on_c, 0, 37, 0
2, 8610, Note_on_c, 0, 37, 110
2, 8623, Note_on_c, 0, 37, 0
2, 8640, Note_on_c, 0, 37, 127
2, 8675, Note_on_c, 0, 37, 0
2, 8700, Note_on_c, 0, 37, 110
2, 8716, Note_on_c, 0, 37, 0
2, 8730, Note_on_c, 0, 37, 110
2, 8745, Note_on_c, 0, 37, 0
2, 8760, Note_on_c, 0, 37, 127
2, 8788, Note_on_c, 0, 37, 0
2, 8820, Note_on_c, 0, 37, 110
2, 8834, Note_on_c, 0, 37, 0
2, 8850, Note_on_c, 0, 37, 110
2, 8872, Note_on_c, 0, 37, 0
2, 8880, Note_on_c, 0, 35, 127
2, 8919, Note_on_c, 0, 35, 0
2, 8940, Note_on_c, 0, 35, 110
2, 8979, Note_on_c, 0, 35, 0
2, 9060, Note_on_c, 0, 37, 110
2, 9155, Note_on_c, 0, 37, 0
2, 9180, Note_on_c, 0, 37, 110
2, 9192, Note_on_c, 0, 37, 0
2, 9210, Note_on_c, 0, 37, 110
2, 9221, Note_on_c, 0, 37, 0
2, 9240, Note_on_c, 0, 37, 127
2, 9277, Note_on_c, 0, 37, 0
2, 9300, Note_on_c, 0, 37, 110
2, 9312, Note_on_c, 0, 37, 0
2, 9330, Note_on_c, 0, 37, 110
2, 9341, Note_on_c, 0, 37, 0
2, 9360, Note_on_c, 0, 37, 127
2, 9396, Note_on_c, 0, 37, 0
2, 9420, Note_on_c, 0, 37, 110
2, 9433, Note_on_c, 0, 37, 0
2, 9450, Note_on_c, 0, 37, 110
2, 9463, Note_on_c, 0, 37, 0
2, 9480, Note_on_c, 0, 37, 127
2, 9519, Note_on_c, 0, 37, 0
2, 9540, Note_on_c, 0, 37, 110
2, 9555, Note_on_c, 0, 37, 0
2, 9570, Note_on_c, 0, 37, 110
2, 9584, Note_on_c, 0, 37, 0
2, 9600, Note_on_c, 0, 37, 127
2, 9637, Note_on_c, 0, 37, 0
2, 9660, Note_on_c, 0, 37, 110
2, 9675, Note_on_c, 0, 37, 0
2, 9690, Note_on_c, 0, 37, 110
2, 9705, Note_on_c, 0, 37, 0
2, 9720, Note_on_c, 0, 37, 127
2, 9758, Note_on_c, 0, 37, 0
2, 9780, Note_on_c, 0, 37, 110
2, 9794, Note_on_c, 0, 37, 0
2, 9810, Note_on_c, 0, 37, 110
2, 9829, Note_on_c, 0, 37, 0
2, 9840, Note_on_c, 0, 35, 127
2, 9879, Note_on_c, 0, 35, 0
2, 9900, Note_on_c, 0, 35, 110
2, 9956, Note_on_c, 0, 35, 0
2, 10020, Note_on_c, 0, 35, 110
2, 10070, Note_on_c, 0, 35, 0
2, 10080, Note_on_c, 0, 30, 127
2, 10121, Note_on_c, 0, 30, 0
2, 10140, Note_on_c, 0, 30, 110
2, 10154, Note_on_c, 0, 30, 0
2, 10170, Note_on_c, 0, 30, 110
2, 10184, Note_on_c, 0, 30, 0
2, 10200, Note_on_c, 0, 30, 127
2, 10236, Note_on_c, 0, 30, 0
2, 10260, Note_on_c, 0, 30, 110
2, 10275, Note_on_c, 0, 30, 0
2, 10290, Note_on_c, 0, 30, 110
2, 10306, Note_on_c, 0, 30, 0
2, 10320, Note_on_c, 0, 30, 127
2, 10358, Note_on_c, 0, 30, 0
2, 10380, Note_on_c, 0, 30, 110
2, 10393, Note_on_c, 0, 30, 0
2, 10410, Note_on_c, 0, 30, 110
2, 10423, Note_on_c, 0, 30, 0
2, 10440, Note_on_c, 0, 30, 127
2, 10480, Note_on_c, 0, 30, 0
2, 10500, Note_on_c, 0, 30, 110
2, 10514, Note_on_c, 0, 30, 0
2, 10530, Note_on_c, 0, 30, 110
2, 10544, Note_on_c, 0, 30, 0
2, 10560, Note_on_c, 0, 30, 127
2, 10596, Note_on_c, 0, 30, 0
2, 10620, Note_on_c, 0, 30, 110
2, 10637, Note_on_c, 0, 30, 0
2, 10650, Note_on_c, 0, 30, 110
2, 10665, Note_on_c, 0, 30, 0
2, 10680, Note_on_c, 0, 30, 127
2, 10726, Note_on_c, 0, 30, 0
2, 10740, Note_on_c, 0, 30, 110
2, 10757, Note_on_c, 0, 30, 0
2, 10770, Note_on_c, 0, 30, 110
2, 10787, Note_on_c, 0, 30, 0
2, 10800, Note_on_c, 0, 35, 127
2, 10841, Note_on_c, 0, 35, 0
2, 10860, Note_on_c, 0, 35, 110
2, 10894, Note_on_c, 0, 35, 0
2, 10980, Note_on_c, 0, 28, 110
2, 11068, Note_on_c, 0, 28, 0
2, 11100, Note_on_c, 0, 28, 110
2, 11113, Note_on_c, 0, 28, 0
2, 11130, Note_on_c, 0, 28, 110
2, 11143, Note_on_c, 0, 28, 0
2, 11160, Note_on_c, 0, 28, 127
2, 11191, Note_on_c, 0, 28, 0
2, 11220, Note_on_c, 0, 28, 110
2, 11234, Note_on_c, 0, 28, 0
2, 11250, Note_on_c, 0, 28, 110
2, 11264, Note_on_c, 0, 28, 0
2, 11280, Note_on_c, 0, 28, 127
2, 11314, Note_on_c, 0, 28, 0
2, 11340, Note_on_c, 0, 28, 110
2, 11354, Note_on_c, 0, 28, 0
2, 11370, Note_on_c, 0, 28, 110
2, 11383, Note_on_c, 0, 28, 0
2, 11400, Note_on_c, 0, 28, 127
2, 11437, Note_on_c, 0, 28, 0
2, 11460, Note_on_c, 0, 28, 110
2, 11474, Note_on_c, 0, 28, 0
2, 11490, Note_on_c, 0, 28, 110
2, 11505, Note_on_c, 0, 28, 0
2, 11520, Note_on_c, 0, 28, 127
2, 11559, Note_on_c, 0, 28, 0
2, 11580, Note_on_c, 0, 28, 110
2, 11594, Note_on_c, 0, 28, 0
2, 11610, Note_on_c, 0, 28, 110
2, 11626, Note_on_c, 0, 28, 0
2, 11640, Note_on_c, 0, 28, 127
2, 11677, Note_on_c, 0, 28, 0
2, 11700, Note_on_c, 0, 28, 110
2, 11714, Note_on_c, 0, 28, 0
2, 11730, Note_on_c, 0, 28, 110
2, 11760, Note_on_c, 0, 35, 127
2, 11761, Note_on_c, 0, 28, 0
2, 11798, Note_on_c, 0, 35, 0
2, 11820, Note_on_c, 0, 35, 110
2, 11852, Note_on_c, 0, 35, 0
2, 11940, Note_on_c, 0, 37, 110
2, 12037, Note_on_c, 0, 37, 0
2, 12060, Note_on_c, 0, 37, 110
2, 12073, Note_on_c, 0, 37, 0
2, 12090, Note_on_c, 0, 37, 110
2, 12104, Note_on_c, 0, 37, 0
2, 12120, Note_on_c, 0, 37, 127
2, 12158, Note_on_c, 0, 37, 0
2, 12180, Note_on_c, 0, 37, 110
2, 12194, Note_on_c, 0, 37, 0
2, 12210, Note_on_c, 0, 37, 110
2, 12226, Note_on_c, 0, 37, 0
2, 12240, Note_on_c, 0, 37, 127
2, 12283, Note_on_c, 0, 37, 0
2, 12300, Note_on_c, 0, 37, 110
2, 12318, Note_on_c, 0, 37, 0
2, 12330, Note_on_c, 0, 37, 110
2, 12344, Note_on_c, 0, 37, 0
2, 12360, Note_on_c, 0, 37, 127
2, 12396, Note_on_c, 0, 37, 0
2, 12420, Note_on_c, 0, 37, 110
2, 12435, Note_on_c, 0, 37, 0
2, 12450, Note_on_c, 0, 37, 110
2, 12464, Note_on_c, 0, 37, 0
2, 12480, Note_on_c, 0, 37, 127
2, 12519, Note_on_c, 0, 37, 0
2, 12540, Note_on_c, 0, 37, 110
2, 12556, Note_on_c, 0, 37, 0
2, 12570, Note_on_c, 0, 37, 110
2, 12587, Note_on_c, 0, 37, 0
2, 12600, Note_on_c, 0, 37, 127
2, 12638, Note_on_c, 0, 37, 0
2, 12660, Note_on_c, 0, 37, 110
2, 12674, Note_on_c, 0, 37, 0
2, 12690, Note_on_c, 0, 37, 110
2, 12712, Note_on_c, 0, 37, 0
2, 12720, Note_on_c, 0, 35, 127
2, 12773, Note_on_c, 0, 35, 0
2, 12780, Note_on_c, 0, 35, 110
2, 12823, Note_on_c, 0, 35, 0
2, 12900, Note_on_c, 0, 37, 110
2, 12997, Note_on_c, 0, 37, 0
2, 13020, Note_on_c, 0, 37, 110
2, 13036, Note_on_c, 0, 37, 0
2, 13050, Note_on_c, 0, 37, 110
2, 13065, Note_on_c, 0, 37, 0
2, 13080, Note_on_c, 0, 37, 127
2, 13118, Note_on_c, 0, 37, 0
2, 13140, Note_on_c, 0, 37, 110
2, 13154, Note_on_c, 0, 37, 0
2, 13170, Note_on_c, 0, 37, 110
2, 13186, Note_on_c, 0, 37, 0
2, 13200, Note_on_c, 0, 37, 127
2, 13237, Note_on_c, 0, 37, 0
2, 13260, Note_on_c, 0, 37, 110
2, 13276, Note_on_c, 0, 37, 0
2, 13290, Note_on_c, 0, 37, 110
2, 13305, Note_on_c, 0, 37, 0
2, 13320, Note_on_c, 0, 37, 127
2, 13354, Note_on_c, 0, 37, 0
2, 13380, Note_on_c, 0, 37, 110
2, 13396, Note_on_c, 0, 37, 0
2, 13410, Note_on_c, 0, 37, 110
2, 13425, Note_on_c, 0, 37, 0
2, 13440, Note_on_c, 0, 37, 127
2, 13475, Note_on_c, 0, 37, 0
2, 13500, Note_on_c, 0, 37, 110
2, 13514, Note_on_c, 0, 37, 0
2, 13530, Note_on_c, 0, 37, 110
2, 13543, Note_on_c, 0, 37, 0
2, 13560, Note_on_c, 0, 37, 127
2, 13597, Note_on_c, 0, 37, 0
2, 13620, Note_on_c, 0, 37, 110
2, 13633, Note_on_c, 0, 37, 0
2, 13650, Note_on_c, 0, 37, 110
2, 13664, Note_on_c, 0, 37, 0
2, 13680, Note_on_c, 0, 35, 127
2, 13729, Note_on_c, 0, 35, 0
2, 13740, Note_on_c, 0, 35, 110
2, 13796, Note_on_c, 0, 35, 0
2, 13860, Note_on_c, 0, 30, 110
2, 13914, Note_on_c, 0, 30, 0
2, 13920, Note_on_c, 0, 30, 127
2, 13970, Note_on_c, 0, 30, 0
2, 13980, Note_on_c, 0, 30, 110
2, 13993, Note_on_c, 0, 30, 0
2, 14010, Note_on_c, 0, 30, 110
2, 14024, Note_on_c, 0, 30, 0
2, 14040, Note_on_c, 0, 30, 127
2, 14078, Note_on_c, 0, 30, 0
2, 14100, Note_on_c, 0, 30, 110
2, 14115, Note_on_c, 0, 30, 0
2, 14130, Note_on_c, 0, 30, 110
2, 14145, Note_on_c, 0, 30, 0
2, 14160, Note_on_c, 0, 30, 127
2, 14198, Note_on_c, 0, 30, 0
2, 14220, Note_on_c, 0, 30, 110
2, 14236, Note_on_c, 0, 30, 0
2, 14250, Note_on_c, 0, 30, 110
2, 14264, Note_on_c, 0, 30, 0
2, 14280, Note_on_c, 0, 30, 127
2, 14318, Note_on_c, 0, 30, 0
2, 14340, Note_on_c, 0, 30, 110
2, 14355, Note_on_c, 0, 30, 0
2, 14370, Note_on_c, 0, 30, 110
2, 14384, Note_on_c, 0, 30, 0
2, 14400, Note_on_c, 0, 30, 127
2, 14439, Note_on_c, 0, 30, 0
2, 14460, Note_on_c, 0, 30, 110
2, 14476, Note_on_c, 0, 30, 0
2, 14490, Note_on_c, 0, 30, 110
2, 14508, Note_on_c, 0, 30, 0
2, 14520, Note_on_c, 0, 30, 127
2, 14553, Note_on_c, 0, 30, 0
2, 14580, Note_on_c, 0, 30, 110
2, 14591, Note_on_c, 0, 30, 0
2, 14610, Note_on_c, 0, 30, 110
2, 14640, Note_on_c, 0, 35, 127
2, 14645, Note_on_c, 0, 30, 0
2, 14681, Note_on_c, 0, 35, 0
2, 14700, Note_on_c, 0, 35, 110
2, 14750, Note_on_c, 0, 35, 0
2, 14820, Note_on_c, 0, 28, 110
2, 14908, Note_on_c, 0, 28, 0
2, 14940, Note_on_c, 0, 28, 110
2, 14954, Note_on_c, 0, 28, 0
2, 14970, Note_on_c, 0, 28, 110
2, 14982, Note_on_c, 0, 28, 0
2, 15000, Note_on_c, 0, 28, 127
2, 15039, Note_on_c, 0, 28, 0
2, 15060, Note_on_c, 0, 28, 110
2, 15074, Note_on_c, 0, 28, 0
2, 15090, Note_on_c, 0, 28, 110
2, 15102, Note_on_c, 0, 28, 0
2, 15120, Note_on_c, 0, 28, 127
2, 15163, Note_on_c, 0, 28, 0
2, 15180, Note_on_c, 0, 28, 110
2, 15193, Note_on_c, 0, 28, 0
2, 15210, Note_on_c, 0, 28, 110
2, 15225, Note_on_c, 0, 28, 0
2, 15240, Note_on_c, 0, 28, 127
2, 15289, Note_on_c, 0, 28, 0
2, 15300, Note_on_c, 0, 28, 110
2, 15313, Note_on_c, 0, 28, 0
2, 15330, Note_on_c, 0, 28, 110
2, 15344, Note_on_c, 0, 28, 0
2, 15360, Note_on_c, 0, 28, 127
2, 15411, Note_on_c, 0, 28, 0
2, 15420, Note_on_c, 0, 30, 110
2, 15471, Note_on_c, 0, 30, 0
2, 15540, Note_on_c, 0, 30, 110
2, 15770, Note_on_c, 0, 30, 0
2, 15780, Note_on_c, 0, 30, 110
2, 15794, Note_on_c, 0, 30, 0
2, 15810, Note_on_c, 0, 30, 110
2, 15840, Note_on_c, 0, 30, 0
2, 15840, Note_on_c, 0, 35, 127
2, 15873, Note_on_c, 0, 35, 0
2, 15900, Note_on_c, 0, 35, 110
2, 15916, Note_on_c, 0, 35, 0
2, 15930, Note_on_c, 0, 35, 110
2, 15944, Note_on_c, 0, 35, 0
2, 15960, Note_on_c, 0, 35, 127
2, 15999, Note_on_c, 0, 35, 0
2, 16020, Note_on_c, 0, 35, 110
2, 16035, Note_on_c, 0, 35, 0
2, 16050, Note_on_c, 0, 35, 110
2, 16066, Note_on_c, 0, 35, 0
2, 16080, Note_on_c, 0, 35, 127
2, 16114, Note_on_c, 0, 35, 0
2, 16140, Note_on_c, 0, 35, 110
2, 16155, Note_on_c, 0, 35, 0
2, 16170, Note_on_c, 0, 35, 110
2, 16186, Note_on_c, 0, 35, 0
2, 16200, Note_on_c, 0, 35, 127
2, 16233, Note_on_c, 0, 35, 0
2, 16260, Note_on_c, 0, 35, 110
2, 16274, Note_on_c, 0, 35, 0
2, 16290, Note_on_c, 0, 35, 110
2, 16318, Note_on_c, 0, 35, 0
2, 16320, Note_on_c, 0, 33, 127
2, 16350, Note_on_c, 0, 33, 0
2, 16380, Note_on_c, 0, 33, 110
2, 16393, Note_on_c, 0, 33, 0
2, 16410, Note_on_c, 0, 33, 110
2, 16424, Note_on_c, 0, 33, 0
2, 16440, Note_on_c, 0, 33, 127
2, 16467, Note_on_c, 0, 33, 0
2, 16500, Note_on_c, 0, 33, 110
2, 16515, Note_on_c, 0, 33, 0
2, 16530, Note_on_c, 0, 33, 110
2, 16545, Note_on_c, 0, 33, 0
2, 16560, Note_on_c, 0, 33, 127
2, 16582, Note_on_c, 0, 33, 0
2, 16620, Note_on_c, 0, 33, 110
2, 16637, Note_on_c, 0, 33, 0
2, 16650, Note_on_c, 0, 33, 110
2, 16665, Note_on_c, 0, 33, 0
2, 16680, Note_on_c, 0, 33, 127
2, 16710, Note_on_c, 0, 33, 0
2, 16740, Note_on_c, 0, 33, 110
2, 16753, Note_on_c, 0, 33, 0
2, 16770, Note_on_c, 0, 33, 110
2, 16797, Note_on_c, 0, 33, 0
2, 16800, Note_on_c, 0, 32, 127
2, 16827, Note_on_c, 0, 32, 0
2, 16860, Note_on_c, 0, 32, 110
2, 16874, Note_on_c, 0, 32, 0
2, 16890, Note_on_c, 0, 32, 110
2, 16918, Note_on_c, 0, 32, 0
2, 16920, Note_on_c, 0, 35, 127
2, 16949, Note_on_c, 0, 35, 0
2, 16980, Note_on_c, 0, 35, 110
2, 16993, Note_on_c, 0, 35, 0
2, 17010, Note_on_c, 0, 35, 110
2, 17040, Note_on_c, 0, 39, 127
2, 17048, Note_on_c, 0, 35, 0
2, 17072, Note_on_c, 0, 39, 0
2, 17100, Note_on_c, 0, 39, 110
2, 17116, Note_on_c, 0, 39, 0
2, 17130, Note_on_c, 0, 39, 110
2, 17160, Note_on_c, 0, 35, 127
2, 17165, Note_on_c, 0, 39, 0
2, 17187, Note_on_c, 0, 35, 0
2, 17220, Note_on_c, 0, 35, 110
2, 17235, Note_on_c, 0, 35, 0
2, 17250, Note_on_c, 0, 35, 110
2, 17280, Note_on_c, 0, 37, 127
2, 17284, Note_on_c, 0, 35, 0
2, 17318, Note_on_c, 0, 37, 0
2, 17340, Note_on_c, 0, 37, 110
2, 17355, Note_on_c, 0, 37, 0
2, 17370, Note_on_c, 0, 37, 110
2, 17387, Note_on_c, 0, 37, 0
2, 17400, Note_on_c, 0, 37, 127
2, 17434, Note_on_c, 0, 37, 0
2, 17460, Note_on_c, 0, 37, 110
2, 17476, Note_on_c, 0, 37, 0
2, 17490, Note_on_c, 0, 37, 110
2, 17515, Note_on_c, 0, 37, 0
2, 17520, Note_on_c, 0, 29, 127
2, 17549, Note_on_c, 0, 29, 0
2, 17580, Note_on_c, 0, 29, 110
2, 17594, Note_on_c, 0, 29, 0
2, 17610, Note_on_c, 0, 29, 110
2, 17622, Note_on_c, 0, 29, 0
2, 17640, Note_on_c, 0, 29, 127
2, 17672, Note_on_c, 0, 29, 0
2, 17700, Note_on_c, 0, 29, 110
2, 17728, Note_on_c, 0, 29, 0
2, 17730, Note_on_c, 0, 32, 110
2, 17755, Note_on_c, 0, 32, 0
2, 17760, Note_on_c, 0, 30, 127
2, 17794, Note_on_c, 0, 30, 0
2, 17820, Note_on_c, 0, 30, 110
2, 17835, Note_on_c, 0, 30, 0
2, 17850, Note_on_c, 0, 30, 110
2, 17863, Note_on_c, 0, 30, 0
2, 17880, Note_on_c, 0, 30, 127
2, 17913, Note_on_c, 0, 30, 0
2, 17940, Note_on_c, 0, 30, 110
2, 17952, Note_on_c, 0, 30, 0
2, 17970, Note_on_c, 0, 30, 110
2, 17986, Note_on_c, 0, 30, 0
2, 18000, Note_on_c, 0, 30, 127
2, 18031, Note_on_c, 0, 30, 0
2, 18060, Note_on_c, 0, 30, 110
2, 18074, Note_on_c, 0, 30, 0
2, 18090, Note_on_c, 0, 30, 110
2, 18105, Note_on_c, 0, 30, 0
2, 18120, Note_on_c, 0, 30, 127
2, 18156, Note_on_c, 0, 30, 0
2, 18180, Note_on_c, 0, 30, 110
2, 18194, Note_on_c, 0, 30, 0
2, 18210, Note_on_c, 0, 30, 110
2, 18234, Note_on_c, 0, 30, 0
2, 18240, Note_on_c, 0, 32, 127
2, 18270, Note_on_c, 0, 32, 0
2, 18300, Note_on_c, 0, 32, 110
2, 18315, Note_on_c, 0, 32, 0
2, 18330, Note_on_c, 0, 32, 110
2, 18346, Note_on_c, 0, 32, 0
2, 18360, Note_on_c, 0, 32, 127
2, 18389, Note_on_c, 0, 32, 0
2, 18420, Note_on_c, 0, 32, 110
2, 18432, Note_on_c, 0, 32, 0
2, 18450, Note_on_c, 0, 32, 110
2, 18461, Note_on_c, 0, 32, 0
2, 18480, Note_on_c, 0, 32, 127
2, 18505, Note_on_c, 0, 32, 0
2, 18540, Note_on_c, 0, 32, 110
2, 18553, Note_on_c, 0, 32, 0
2, 18570, Note_on_c, 0, 32, 110
2, 18583, Note_on_c, 0, 32, 0
2, 18600, Note_on_c, 0, 32, 127
2, 18624, Note_on_c, 0, 32, 0
2, 18660, Note_on_c, 0, 32, 110
2, 18687, Note_on_c, 0, 32, 0
2, 18690, Note_on_c, 0, 35, 110
2, 18720, Note_on_c, 0, 37, 127
2, 18723, Note_on_c, 0, 35, 0
2, 18760, Note_on_c, 0, 37, 0
2, 18780, Note_on_c, 0, 37, 110
2, 18792, Note_on_c, 0, 37, 0
2, 18810, Note_on_c, 0, 37, 110
2, 18824, Note_on_c, 0, 37, 0
2, 18840, Note_on_c, 0, 37, 127
2, 18875, Note_on_c, 0, 37, 0
2, 18900, Note_on_c, 0, 37, 110
2, 18917, Note_on_c, 0, 37, 0
2, 18930, Note_on_c, 0, 37, 110
2, 18945, Note_on_c, 0, 37, 0
2, 18960, Note_on_c, 0, 37, 127
2, 18986, Note_on_c, 0, 37, 0
2, 19020, Note_on_c, 0, 37, 110
2, 19036, Note_on_c, 0, 37, 0
2, 19050, Note_on_c, 0, 37, 110
2, 19064, Note_on_c, 0, 37, 0
2, 19080, Note_on_c, 0, 37, 127
2, 19100, Note_on_c, 0, 37, 0
2, 19140, Note_on_c, 0, 37, 110
2, 19170, Note_on_c, 0, 35, 110
2, 19174, Note_on_c, 0, 37, 0
2, 19200, Note_on_c, 0, 37, 127
2, 19206, Note_on_c, 0, 35, 0
2, 19236, Note_on_c, 0, 37, 0
2, 19260, Note_on_c, 0, 37, 110
2, 19274, Note_on_c, 0, 37, 0
2, 19290, Note_on_c, 0, 37, 110
2, 19303, Note_on_c, 0, 37, 0
2, 19320, Note_on_c, 0, 37, 127
2, 19348, Note_on_c, 0, 37, 0
2, 19380, Note_on_c, 0, 37, 110
2, 19396, Note_on_c, 0, 37, 0
2, 19410, Note_on_c, 0, 37, 110
2, 19424, Note_on_c, 0, 37, 0
2, 19440, Note_on_c, 0, 37, 127
2, 19478, Note_on_c, 0, 37, 0
2, 19500, Note_on_c, 0, 37, 110
2, 19516, Note_on_c, 0, 37, 0
2, 19530, Note_on_c, 0, 37, 110
2, 19543, Note_on_c, 0, 37, 0
2, 19560, Note_on_c, 0, 37, 127
2, 19596, Note_on_c, 0, 37, 0
2, 19620, Note_on_c, 0, 32, 110
2, 19645, Note_on_c, 0, 32, 0
2, 19650, Note_on_c, 0, 34, 110
2, 19680, Note_on_c, 0, 35, 127
2, 19690, Note_on_c, 0, 34, 0
2, 19712, Note_on_c, 0, 35, 0
2, 19740, Note_on_c, 0, 35, 110
2, 19756, Note_on_c, 0, 35, 0
2, 19770, Note_on_c, 0, 35, 110
2, 19788, Note_on_c, 0, 35, 0
2, 19800, Note_on_c, 0, 35, 127
2, 19827, Note_on_c, 0, 35, 0
2, 19860, Note_on_c, 0, 35, 110
2, 19875, Note_on_c, 0, 35, 0
2, 19890, Note_on_c, 0, 35, 110
2, 19905, Note_on_c, 0, 35, 0
2, 19920, Note_on_c, 0, 35, 127
2, 19959, Note_on_c, 0, 35, 0
2, 19980, Note_on_c, 0, 35, 110
2, 19996, Note_on_c, 0, 35, 0
2, 20010, Note_on_c, 0, 35, 110
2, 20025, Note_on_c, 0, 35, 0
2, 20040, Note_on_c, 0, 35, 127
2, 20071, Note_on_c, 0, 35, 0
2, 20100, Note_on_c, 0, 35, 110
2, 20115, Note_on_c, 0, 35, 0
2, 20130, Note_on_c, 0, 35, 110
2, 20160, Note_on_c, 0, 35, 0
2, 20160, Note_on_c, 0, 33, 127
2, 20188, Note_on_c, 0, 33, 0
2, 20220, Note_on_c, 0, 33, 110
2, 20232, Note_on_c, 0, 33, 0
2, 20250, Note_on_c, 0, 33, 110
2, 20261, Note_on_c, 0, 33, 0
2, 20280, Note_on_c, 0, 33, 127
2, 20310, Note_on_c, 0, 33, 0
2, 20340, Note_on_c, 0, 33, 110
2, 20353, Note_on_c, 0, 33, 0
2, 20370, Note_on_c, 0, 33, 110
2, 20385, Note_on_c, 0, 33, 0
2, 20400, Note_on_c, 0, 33, 127
2, 20430, Note_on_c, 0, 33, 0
2, 20460, Note_on_c, 0, 33, 110
2, 20476, Note_on_c, 0, 33, 0
2, 20490, Note_on_c, 0, 33, 110
2, 20507, Note_on_c, 0, 33, 0
2, 20520, Note_on_c, 0, 33, 127
2, 20551, Note_on_c, 0, 33, 0
2, 20580, Note_on_c, 0, 33, 110
2, 20596, Note_on_c, 0, 33, 0
2, 20610, Note_on_c, 0, 33, 110
2, 20633, Note_on_c, 0, 33, 0
2, 20640, Note_on_c, 0, 32, 127
2, 20662, Note_on_c, 0, 32, 0
2, 20700, Note_on_c, 0, 32, 110
2, 20715, Note_on_c, 0, 32, 0
2, 20730, Note_on_c, 0, 32, 110
2, 20759, Note_on_c, 0, 32, 0
2, 20760, Note_on_c, 0, 35, 127
2, 20790, Note_on_c, 0, 35, 0
2, 20820, Note_on_c, 0, 35, 110
2, 20837, Note_on_c, 0, 35, 0
2, 20850, Note_on_c, 0, 35, 110
2, 20875, Control_c, 0, 93, 60
2, 20880, Note_on_c, 0, 39, 127
2, 20885, Note_on_c, 0, 35, 0
2, 20885, Control_c, 0, 93, 63
2, 20896, Control_c, 0, 93, 66
2, 20904, Note_on_c, 0, 39, 0
2, 20904, Control_c, 0, 93, 70
2, 20910, Control_c, 0, 93, 73
2, 20915, Control_c, 0, 93, 75
2, 20920, Control_c, 0, 93, 77
2, 20940, Note_on_c, 0, 39, 110
2, 20956, Note_on_c, 0, 39, 0
2, 20970, Note_on_c, 0, 39, 110
2, 21000, Note_on_c, 0, 35, 127
2, 21006, Note_on_c, 0, 39, 0
2, 21008, Control_c, 0, 93, 79
2, 21023, Note_on_c, 0, 35, 0
2, 21060, Note_on_c, 0, 35, 110
2, 21074, Note_on_c, 0, 35, 0
2, 21090, Note_on_c, 0, 35, 110
2, 21120, Note_on_c, 0, 37, 127
2, 21125, Note_on_c, 0, 35, 0
2, 21142, Control_c, 0, 93, 77
2, 21148, Note_on_c, 0, 37, 0
2, 21160, Control_c, 0, 93, 73
2, 21165, Control_c, 0, 93, 69
2, 21175, Control_c, 0, 93, 63
2, 21180, Note_on_c, 0, 37, 110
2, 21185, Control_c, 0, 93, 60
2, 21190, Control_c, 0, 93, 58
2, 21196, Note_on_c, 0, 37, 0
2, 21196, Control_c, 0, 93, 55
2, 21201, Control_c, 0, 93, 53
2, 21210, Note_on_c, 0, 37, 110
2, 21220, Control_c, 0, 93, 52
2, 21225, Note_on_c, 0, 37, 0
2, 21225, Control_c, 0, 93, 51
2, 21230, Control_c, 0, 93, 48
2, 21235, Control_c, 0, 93, 46
2, 21240, Note_on_c, 0, 37, 127
2, 21241, Control_c, 0, 93, 37
2, 21246, Control_c, 0, 93, 35
2, 21251, Control_c, 0, 93, 32
2, 21256, Control_c, 0, 93, 28
2, 21270, Control_c, 0, 93, 24
2, 21276, Note_on_c, 0, 37, 0
2, 21300, Note_on_c, 0, 37, 110
2, 21316, Note_on_c, 0, 37, 0
2, 21330, Note_on_c, 0, 37, 110
2, 21350, Control_c, 0, 93, 28
2, 21355, Note_on_c, 0, 37, 0
2, 21355, Control_c, 0, 93, 27
2, 21360, Note_on_c, 0, 29, 127
2, 21372, Control_c, 0, 93, 30
2, 21382, Control_c, 0, 93, 33
2, 21395, Note_on_c, 0, 29, 0
2, 21420, Note_on_c, 0, 29, 110
2, 21434, Note_on_c, 0, 29, 0
2, 21450, Note_on_c, 0, 29, 110
2, 21462, Note_on_c, 0, 29, 0
2, 21480, Note_on_c, 0, 29, 127
2, 21514, Note_on_c, 0, 29, 0
2, 21540, Note_on_c, 0, 29, 110
2, 21569, Note_on_c, 0, 29, 0
2, 21570, Note_on_c, 0, 32, 110
2, 21600, Note_on_c, 0, 30, 127
2, 21603, Note_on_c, 0, 32, 0
2, 21635, Note_on_c, 0, 30, 0
2, 21660, Note_on_c, 0, 30, 110
2, 21675, Note_on_c, 0, 30, 0
2, 21690, Note_on_c, 0, 30, 110
2, 21703, Note_on_c, 0, 30, 0
2, 21720, Note_on_c, 0, 30, 127
2, 21730, Control_c, 0, 93, 35
2, 21747, Note_on_c, 0, 30, 0
2, 21780, Note_on_c, 0, 30, 110
2, 21793, Note_on_c, 0, 30, 0
2, 21810, Note_on_c, 0, 30, 110
2, 21823, Note_on_c, 0, 30, 0
2, 21840, Note_on_c, 0, 30, 127
2, 21867, Note_on_c, 0, 30, 0
2, 21880, Control_c, 0, 93, 37
2, 21900, Note_on_c, 0, 30, 110
2, 21914, Note_on_c, 0, 30, 0
2, 21930, Note_on_c, 0, 30, 110
2, 21944, Note_on_c, 0, 30, 0
2, 21960, Note_on_c, 0, 30, 127
2, 21991, Note_on_c, 0, 30, 0
2, 22020, Note_on_c, 0, 30, 110
2, 22034, Note_on_c, 0, 30, 0
2, 22050, Note_on_c, 0, 30, 110
2, 22067, Note_on_c, 0, 30, 0
2, 22080, Note_on_c, 0, 32, 127
2, 22110, Note_on_c, 0, 32, 0
2, 22140, Note_on_c, 0, 32, 110
2, 22155, Note_on_c, 0, 32, 0
2, 22170, Note_on_c, 0, 32, 110
2, 22198, Note_on_c, 0, 32, 0
2, 22200, Note_on_c, 0, 35, 127
2, 22231, Note_on_c, 0, 35, 0
2, 22260, Note_on_c, 0, 35, 110
2, 22275, Note_on_c, 0, 35, 0
2, 22290, Note_on_c, 0, 35, 110
2, 22320, Note_on_c, 0, 39, 127
2, 22324, Note_on_c, 0, 35, 0
2, 22350, Note_on_c, 0, 39, 0
2, 22380, Note_on_c, 0, 39, 110
2, 22396, Note_on_c, 0, 39, 0
2, 22410, Note_on_c, 0, 39, 110
2, 22440, Note_on_c, 0, 35, 127
2, 22442, Note_on_c, 0, 39, 0
2, 22468, Note_on_c, 0, 35, 0
2, 22500, Note_on_c, 0, 35, 110
2, 22515, Note_on_c, 0, 35, 0
2, 22530, Note_on_c, 0, 35, 110
2, 22560, Note_on_c, 0, 37, 127
2, 22567, Note_on_c, 0, 35, 0
2, 22604, Note_on_c, 0, 37, 0
2, 22620, Note_on_c, 0, 37, 110
2, 22635, Note_on_c, 0, 37, 0
2, 22650, Note_on_c, 0, 37, 110
2, 22666, Note_on_c, 0, 37, 0
2, 22680, Note_on_c, 0, 37, 127
2, 22719, Note_on_c, 0, 37, 0
2, 22740, Note_on_c, 0, 37, 110
2, 22755, Note_on_c, 0, 37, 0
2, 22770, Note_on_c, 0, 37, 110
2, 22787, Note_on_c, 0, 37, 0
2, 22800, Note_on_c, 0, 37, 127
2, 22832, Note_on_c, 0, 37, 0
2, 22860, Note_on_c, 0, 37, 110
2, 22875, Note_on_c, 0, 37, 0
2, 22890, Note_on_c, 0, 37, 110
2, 22905, Note_on_c, 0, 37, 0
2, 22920, Note_on_c, 0, 37, 127
2, 22948, Note_on_c, 0, 37, 0
2, 22980, Note_on_c, 0, 37, 110
2, 23010, Note_on_c, 0, 37, 0
2, 23010, Note_on_c, 0, 35, 110
2, 23040, Note_on_c, 0, 37, 127
2, 23052, Note_on_c, 0, 35, 0
2, 23074, Note_on_c, 0, 37, 0
2, 23100, Note_on_c, 0, 37, 110
2, 23114, Note_on_c, 0, 37, 0
2, 23130, Note_on_c, 0, 37, 110
2, 23149, Note_on_c, 0, 37, 0
2, 23160, Note_on_c, 0, 37, 127
2, 23201, Note_on_c, 0, 37, 0
2, 23220, Note_on_c, 0, 37, 110
2, 23235, Note_on_c, 0, 37, 0
2, 23250, Note_on_c, 0, 37, 110
2, 23280, Note_on_c, 0, 35, 127
2, 23284, Note_on_c, 0, 37, 0
2, 23322, Note_on_c, 0, 35, 0
2, 23340, Note_on_c, 0, 35, 110
2, 23378, Note_on_c, 0, 35, 0
2, 23460, Note_on_c, 0, 37, 110
2, 23532, Note_on_c, 0, 37, 0
2, 23580, Note_on_c, 0, 37, 110
2, 23594, Note_on_c, 0, 37, 0
2, 23610, Note_on_c, 0, 37, 110
2, 23627, Note_on_c, 0, 37, 0
2, 23640, Note_on_c, 0, 37, 127
2, 23670, Note_on_c, 0, 37, 0
2, 23700, Note_on_c, 0, 37, 110
2, 23714, Note_on_c, 0, 37, 0
2, 23730, Note_on_c, 0, 37, 110
2, 23744, Note_on_c, 0, 37, 0
2, 23760, Note_on_c, 0, 37, 127
2, 23796, Note_on_c, 0, 37, 0
2, 23820, Note_on_c, 0, 37, 110
2, 23833, Note_on_c, 0, 37, 0
2, 23850, Note_on_c, 0, 37, 110
2, 23865, Note_on_c, 0, 37, 0
2, 23880, Note_on_c, 0, 37, 127
2, 23915, Note_on_c, 0, 37, 0
2, 23940, Note_on_c, 0, 37, 110
2, 23954, Note_on_c, 0, 37, 0
2, 23970, Note_on_c, 0, 37, 110
2, 23983, Note_on_c, 0, 37, 0
2, 24000, Note_on_c, 0, 37, 127
2, 24035, Note_on_c, 0, 37, 0
2, 24060, Note_on_c, 0, 37, 110
2, 24076, Note_on_c, 0, 37, 0
2, 24090, Note_on_c, 0, 37, 110
2, 24105, Note_on_c, 0, 37, 0
2, 24120, Note_on_c, 0, 37, 127
2, 24148, Note_on_c, 0, 37, 0
2, 24180, Note_on_c, 0, 37, 110
2, 24194, Note_on_c, 0, 37, 0
2, 24210, Note_on_c, 0, 37, 110
2, 24232, Note_on_c, 0, 37, 0
2, 24240, Note_on_c, 0, 35, 127
2, 24279, Note_on_c, 0, 35, 0
2, 24300, Note_on_c, 0, 35, 110
2, 24339, Note_on_c, 0, 35, 0
2, 24420, Note_on_c, 0, 37, 110
2, 24515, Note_on_c, 0, 37, 0
2, 24540, Note_on_c, 0, 37, 110
2, 24552, Note_on_c, 0, 37, 0
2, 24570, Note_on_c, 0, 37, 110
2, 24581, Note_on_c, 0, 37, 0
2, 24600, Note_on_c, 0, 37, 127
2, 24637, Note_on_c, 0, 37, 0
2, 24660, Note_on_c, 0, 37, 110
2, 24672, Note_on_c, 0, 37, 0
2, 24690, Control_c, 0, 93, 34
2, 24690, Note_on_c, 0, 37, 110
2, 24700, Control_c, 0, 93, 35
2, 24701, Note_on_c, 0, 37, 0
2, 24719, Control_c, 0, 93, 37
2, 24720, Control_c, 0, 93, 38
2, 24720, Note_on_c, 0, 37, 127
2, 24725, Control_c, 0, 93, 40
2, 24735, Control_c, 0, 93, 44
2, 24740, Control_c, 0, 93, 47
2, 24745, Control_c, 0, 93, 49
2, 24750, Control_c, 0, 93, 52
2, 24756, Note_on_c, 0, 37, 0
2, 24756, Control_c, 0, 93, 53
2, 24780, Note_on_c, 0, 37, 110
2, 24793, Note_on_c, 0, 37, 0
2, 24805, Control_c, 0, 93, 55
2, 24810, Control_c, 0, 93, 58
2, 24810, Note_on_c, 0, 37, 110
2, 24817, Control_c, 0, 93, 60
2, 24823, Note_on_c, 0, 37, 0
2, 24840, Note_on_c, 0, 37, 127
2, 24879, Note_on_c, 0, 37, 0
2, 24900, Note_on_c, 0, 37, 110
2, 24915, Note_on_c, 0, 37, 0
2, 24930, Note_on_c, 0, 37, 110
2, 24944, Note_on_c, 0, 37, 0
2, 24960, Note_on_c, 0, 37, 127
2, 24997, Note_on_c, 0, 37, 0
2, 24997, Control_c, 0, 93, 58
2, 25008, Control_c, 0, 93, 55
2, 25010, Control_c, 0, 93, 54
2, 25020, Note_on_c, 0, 37, 110
2, 25035, Note_on_c, 0, 37, 0
2, 25035, Control_c, 0, 93, 53
2, 25045, Control_c, 0, 93, 51
2, 25050, Note_on_c, 0, 37, 110
2, 25065, Note_on_c, 0, 37, 0
2, 25080, Note_on_c, 0, 37, 127
2, 25118, Note_on_c, 0, 37, 0
2, 25130, Control_c, 0, 93, 48
2, 25140, Control_c, 0, 93, 46
2, 25140, Note_on_c, 0, 37, 110
2, 25150, Control_c, 0, 93, 44
2, 25154, Note_on_c, 0, 37, 0
2, 25170, Note_on_c, 0, 37, 110
2, 25189, Note_on_c, 0, 37, 0
2, 25200, Note_on_c, 0, 35, 127
2, 25239, Note_on_c, 0, 35, 0
2, 25260, Note_on_c, 0, 35, 110
2, 25316, Note_on_c, 0, 35, 0
2, 25380, Note_on_c, 0, 35, 110
2, 25430, Note_on_c, 0, 35, 0
2, 25440, Note_on_c, 0, 30, 127
2, 25481, Note_on_c, 0, 30, 0
2, 25500, Note_on_c, 0, 30, 110
2, 25514, Note_on_c, 0, 30, 0
2, 25530, Note_on_c, 0, 30, 110
2, 25544, Note_on_c, 0, 30, 0
2, 25560, Note_on_c, 0, 30, 127
2, 25596, Note_on_c, 0, 30, 0
2, 25620, Note_on_c, 0, 30, 110
2, 25635, Note_on_c, 0, 30, 0
2, 25650, Note_on_c, 0, 30, 110
2, 25666, Note_on_c, 0, 30, 0
2, 25680, Note_on_c, 0, 30, 127
2, 25718, Note_on_c, 0, 30, 0
2, 25740, Note_on_c, 0, 30, 110
2, 25753, Note_on_c, 0, 30, 0
2, 25770, Note_on_c, 0, 30, 110
2, 25783, Note_on_c, 0, 30, 0
2, 25800, Note_on_c, 0, 30, 127
2, 25840, Note_on_c, 0, 30, 0
2, 25860, Note_on_c, 0, 30, 110
2, 25874, Note_on_c, 0, 30, 0
2, 25890, Note_on_c, 0, 30, 110
2, 25904, Note_on_c, 0, 30, 0
2, 25920, Note_on_c, 0, 30, 127
2, 25956, Note_on_c, 0, 30, 0
2, 25980, Note_on_c, 0, 30, 110
2, 25997, Note_on_c, 0, 30, 0
2, 26010, Note_on_c, 0, 30, 110
2, 26025, Note_on_c, 0, 30, 0
2, 26040, Note_on_c, 0, 30, 127
2, 26086, Note_on_c, 0, 30, 0
2, 26100, Note_on_c, 0, 30, 110
2, 26117, Note_on_c, 0, 30, 0
2, 26130, Note_on_c, 0, 30, 110
2, 26147, Note_on_c, 0, 30, 0
2, 26160, Note_on_c, 0, 35, 127
2, 26201, Note_on_c, 0, 35, 0
2, 26220, Note_on_c, 0, 35, 110
2, 26254, Note_on_c, 0, 35, 0
2, 26340, Note_on_c, 0, 28, 110
2, 26428, Note_on_c, 0, 28, 0
2, 26460, Note_on_c, 0, 28, 110
2, 26473, Note_on_c, 0, 28, 0
2, 26490, Note_on_c, 0, 28, 110
2, 26503, Note_on_c, 0, 28, 0
2, 26520, Note_on_c, 0, 28, 127
2, 26551, Note_on_c, 0, 28, 0
2, 26580, Note_on_c, 0, 28, 110
2, 26594, Note_on_c, 0, 28, 0
2, 26610, Note_on_c, 0, 28, 110
2, 26624, Note_on_c, 0, 28, 0
2, 26640, Note_on_c, 0, 28, 127
2, 26674, Note_on_c, 0, 28, 0
2, 26700, Note_on_c, 0, 28, 110
2, 26714, Note_on_c, 0, 28, 0
2, 26730, Note_on_c, 0, 28, 110
2, 26743, Note_on_c, 0, 28, 0
2, 26760, Note_on_c, 0, 28, 127
2, 26797, Note_on_c, 0, 28, 0
2, 26820, Note_on_c, 0, 28, 110
2, 26834, Note_on_c, 0, 28, 0
2, 26850, Note_on_c, 0, 28, 110
2, 26865, Note_on_c, 0, 28, 0
2, 26880, Note_on_c, 0, 28, 127
2, 26919, Note_on_c, 0, 28, 0
2, 26940, Note_on_c, 0, 28, 110
2, 26954, Note_on_c, 0, 28, 0
2, 26970, Note_on_c, 0, 28, 110
2, 26986, Note_on_c, 0, 28, 0
2, 27000, Note_on_c, 0, 28, 127
2, 27037, Note_on_c, 0, 28, 0
2, 27060, Note_on_c, 0, 28, 110
2, 27074, Note_on_c, 0, 28, 0
2, 27090, Note_on_c, 0, 28, 110
2, 27120, Note_on_c, 0, 35, 127
2, 27121, Note_on_c, 0, 28, 0
2, 27158, Note_on_c, 0, 35, 0
2, 27180, Note_on_c, 0, 35, 110
2, 27212, Note_on_c, 0, 35, 0
2, 27300, Note_on_c, 0, 37, 110
2, 27397, Note_on_c, 0, 37, 0
2, 27420, Note_on_c, 0, 37, 110
2, 27433, Note_on_c, 0, 37, 0
2, 27450, Note_on_c, 0, 37, 110
2, 27464, Note_on_c, 0, 37, 0
2, 27480, Note_on_c, 0, 37, 127
2, 27518, Note_on_c, 0, 37, 0
2, 27540, Note_on_c, 0, 37, 110
2, 27554, Note_on_c, 0, 37, 0
2, 27570, Note_on_c, 0, 37, 110
2, 27586, Note_on_c, 0, 37, 0
2, 27600, Note_on_c, 0, 37, 127
2, 27643, Note_on_c, 0, 37, 0
2, 27660, Note_on_c, 0, 37, 110
2, 27678, Note_on_c, 0, 37, 0
2, 27690, Note_on_c, 0, 37, 110
2, 27704, Note_on_c, 0, 37, 0
2, 27720, Note_on_c, 0, 37, 127
2, 27756, Note_on_c, 0, 37, 0
2, 27780, Note_on_c, 0, 37, 110
2, 27795, Note_on_c, 0, 37, 0
2, 27810, Note_on_c, 0, 37, 110
2, 27824, Note_on_c, 0, 37, 0
2, 27840, Note_on_c, 0, 37, 127
2, 27879, Note_on_c, 0, 37, 0
2, 27900, Note_on_c, 0, 37, 110
2, 27916, Note_on_c, 0, 37, 0
2, 27930, Note_on_c, 0, 37, 110
2, 27947, Note_on_c, 0, 37, 0
2, 27960, Note_on_c, 0, 37, 127
2, 27998, Note_on_c, 0, 37, 0
2, 28020, Note_on_c, 0, 37, 110
2, 28034, Note_on_c, 0, 37, 0
2, 28050, Note_on_c, 0, 37, 110
2, 28072, Note_on_c, 0, 37, 0
2, 28080, Note_on_c, 0, 35, 127
2, 28133, Note_on_c, 0, 35, 0
2, 28140, Note_on_c, 0, 35, 110
2, 28183, Note_on_c, 0, 35, 0
2, 28260, Note_on_c, 0, 37, 110
2, 28357, Note_on_c, 0, 37, 0
2, 28380, Note_on_c, 0, 37, 110
2, 28396, Note_on_c, 0, 37, 0
2, 28410, Note_on_c, 0, 37, 110
2, 28425, Note_on_c, 0, 37, 0
2, 28440, Note_on_c, 0, 37, 127
2, 28478, Note_on_c, 0, 37, 0
2, 28500, Note_on_c, 0, 37, 110
2, 28514, Note_on_c, 0, 37, 0
2, 28530, Note_on_c, 0, 37, 110
2, 28546, Note_on_c, 0, 37, 0
2, 28560, Note_on_c, 0, 37, 127
2, 28597, Note_on_c, 0, 37, 0
2, 28620, Note_on_c, 0, 37, 110
2, 28636, Note_on_c, 0, 37, 0
2, 28650, Note_on_c, 0, 37, 110
2, 28665, Note_on_c, 0, 37, 0
2, 28680, Note_on_c, 0, 37, 127
2, 28714, Note_on_c, 0, 37, 0
2, 28740, Note_on_c, 0, 37, 110
2, 28756, Note_on_c, 0, 37, 0
2, 28770, Note_on_c, 0, 37, 110
2, 28785, Note_on_c, 0, 37, 0
2, 28800, Note_on_c, 0, 37, 127
2, 28835, Note_on_c, 0, 37, 0
2, 28860, Note_on_c, 0, 37, 110
2, 28874, Note_on_c, 0, 37, 0
2, 28890, Note_on_c, 0, 37, 110
2, 28903, Note_on_c, 0, 37, 0
2, 28920, Note_on_c, 0, 37, 127
2, 28957, Note_on_c, 0, 37, 0
2, 28980, Note_on_c, 0, 37, 110
2, 28993, Note_on_c, 0, 37, 0
2, 29010, Note_on_c, 0, 37, 110
2, 29024, Note_on_c, 0, 37, 0
2, 29040, Note_on_c, 0, 35, 127
2, 29089, Note_on_c, 0, 35, 0
2, 29100, Note_on_c, 0, 35, 110
2, 29156, Note_on_c, 0, 35, 0
2, 29220, Note_on_c, 0, 30, 110
2, 29274, Note_on_c, 0, 30, 0
2, 29280, Note_on_c, 0, 30, 127
2, 29330, Note_on_c, 0, 30, 0
2, 29340, Note_on_c, 0, 30, 110
2, 29353, Note_on_c, 0, 30, 0
2, 29370, Note_on_c, 0, 30, 110
2, 29384, Note_on_c, 0, 30, 0
2, 29400, Note_on_c, 0, 30, 127
2, 29438, Note_on_c, 0, 30, 0
2, 29460, Note_on_c, 0, 30, 110
2, 29475, Note_on_c, 0, 30, 0
2, 29490, Note_on_c, 0, 30, 110
2, 29505, Note_on_c, 0, 30, 0
2, 29520, Note_on_c, 0, 30, 127
2, 29558, Note_on_c, 0, 30, 0
2, 29580, Note_on_c, 0, 30, 110
2, 29596, Note_on_c, 0, 30, 0
2, 29610, Note_on_c, 0, 30, 110
2, 29624, Note_on_c, 0, 30, 0
2, 29640, Note_on_c, 0, 30, 127
2, 29678, Note_on_c, 0, 30, 0
2, 29700, Note_on_c, 0, 30, 110
2, 29715, Note_on_c, 0, 30, 0
2, 29730, Note_on_c, 0, 30, 110
2, 29744, Note_on_c, 0, 30, 0
2, 29760, Note_on_c, 0, 30, 127
2, 29799, Note_on_c, 0, 30, 0
2, 29820, Note_on_c, 0, 30, 110
2, 29836, Note_on_c, 0, 30, 0
2, 29850, Note_on_c, 0, 30, 110
2, 29868, Note_on_c, 0, 30, 0
2, 29880, Note_on_c, 0, 30, 127
2, 29913, Note_on_c, 0, 30, 0
2, 29940, Note_on_c, 0, 30, 110
2, 29951, Note_on_c, 0, 30, 0
2, 29970, Note_on_c, 0, 30, 110
2, 30000, Note_on_c, 0, 35, 127
2, 30005, Note_on_c, 0, 30, 0
2, 30041, Note_on_c, 0, 35, 0
2, 30060, Note_on_c, 0, 35, 110
2, 30110, Note_on_c, 0, 35, 0
2, 30180, Note_on_c, 0, 28, 110
2, 30268, Note_on_c, 0, 28, 0
2, 30300, Note_on_c, 0, 28, 110
2, 30314, Note_on_c, 0, 28, 0
2, 30330, Note_on_c, 0, 28, 110
2, 30342, Note_on_c, 0, 28, 0
2, 30360, Note_on_c, 0, 28, 127
2, 30399, Note_on_c, 0, 28, 0
2, 30420, Note_on_c, 0, 28, 110
2, 30434, Note_on_c, 0, 28, 0
2, 30450, Note_on_c, 0, 28, 110
2, 30462, Note_on_c, 0, 28, 0
2, 30480, Note_on_c, 0, 28, 127
2, 30523, Note_on_c, 0, 28, 0
2, 30540, Note_on_c, 0, 28, 110
2, 30553, Note_on_c, 0, 28, 0
2, 30570, Note_on_c, 0, 28, 110
2, 30585, Note_on_c, 0, 28, 0
2, 30600, Note_on_c, 0, 28, 127
2, 30649, Note_on_c, 0, 28, 0
2, 30660, Note_on_c, 0, 28, 110
2, 30673, Note_on_c, 0, 28, 0
2, 30690, Note_on_c, 0, 28, 110
2, 30704, Note_on_c, 0, 28, 0
2, 30720, Note_on_c, 0, 28, 127
2, 30771, Note_on_c, 0, 28, 0
2, 30780, Note_on_c, 0, 30, 110
2, 30831, Note_on_c, 0, 30, 0
2, 30900, Note_on_c, 0, 30, 110
2, 31130, Note_on_c, 0, 30, 0
2, 31140, Note_on_c, 0, 30, 110
2, 31154, Note_on_c, 0, 30, 0
2, 31170, Note_on_c, 0, 30, 110
2, 31200, Note_on_c, 0, 30, 0
2, 31200, Note_on_c, 0, 35, 127
2, 31233, Note_on_c, 0, 35, 0
2, 31260, Note_on_c, 0, 35, 110
2, 31276, Note_on_c, 0, 35, 0
2, 31290, Note_on_c, 0, 35, 110
2, 31304, Note_on_c, 0, 35, 0
2, 31320, Note_on_c, 0, 35, 127
2, 31359, Note_on_c, 0, 35, 0
2, 31380, Note_on_c, 0, 35, 110
2, 31395, Note_on_c, 0, 35, 0
2, 31410, Note_on_c, 0, 35, 110
2, 31426, Note_on_c, 0, 35, 0
2, 31440, Note_on_c, 0, 35, 127
2, 31474, Note_on_c, 0, 35, 0
2, 31500, Note_on_c, 0, 35, 110
2, 31515, Note_on_c, 0, 35, 0
2, 31530, Note_on_c, 0, 35, 110
2, 31546, Note_on_c, 0, 35, 0
2, 31560, Note_on_c, 0, 35, 127
2, 31593, Note_on_c, 0, 35, 0
2, 31620, Note_on_c, 0, 35, 110
2, 31634, Note_on_c, 0, 35, 0
2, 31650, Note_on_c, 0, 35, 110
2, 31678, Note_on_c, 0, 35, 0
2, 31680, Note_on_c, 0, 33, 127
2, 31710, Note_on_c, 0, 33, 0
2, 31740, Note_on_c, 0, 33, 110
2, 31753, Note_on_c, 0, 33, 0
2, 31770, Note_on_c, 0, 33, 110
2, 31784, Note_on_c, 0, 33, 0
2, 31800, Note_on_c, 0, 33, 127
2, 31827, Note_on_c, 0, 33, 0
2, 31860, Note_on_c, 0, 33, 110
2, 31875, Note_on_c, 0, 33, 0
2, 31890, Note_on_c, 0, 33, 110
2, 31905, Note_on_c, 0, 33, 0
2, 31920, Note_on_c, 0, 33, 127
2, 31942, Note_on_c, 0, 33, 0
2, 31980, Note_on_c, 0, 33, 110
2, 31997, Note_on_c, 0, 33, 0
2, 32010, Note_on_c, 0, 33, 110
2, 32025, Note_on_c, 0, 33, 0
2, 32040, Note_on_c, 0, 33, 127
2, 32070, Note_on_c, 0, 33, 0
2, 32100, Note_on_c, 0, 33, 110
2, 32113, Note_on_c, 0, 33, 0
2, 32130, Note_on_c, 0, 33, 110
2, 32157, Note_on_c, 0, 33, 0
2, 32160, Note_on_c, 0, 32, 127
2, 32187, Note_on_c, 0, 32, 0
2, 32220, Note_on_c, 0, 32, 110
2, 32234, Note_on_c, 0, 32, 0
2, 32250, Note_on_c, 0, 32, 110
2, 32278, Note_on_c, 0, 32, 0
2, 32280, Note_on_c, 0, 35, 127
2, 32309, Note_on_c, 0, 35, 0
2, 32340, Note_on_c, 0, 35, 110
2, 32353, Note_on_c, 0, 35, 0
2, 32370, Note_on_c, 0, 35, 110
2, 32400, Note_on_c, 0, 39, 127
2, 32408, Note_on_c, 0, 35, 0
2, 32432, Note_on_c, 0, 39, 0
2, 32460, Note_on_c, 0, 39, 110
2, 32476, Note_on_c, 0, 39, 0
2, 32490, Note_on_c, 0, 39, 110
2, 32520, Note_on_c, 0, 35, 127
2, 32525, Note_on_c, 0, 39, 0
2, 32547, Note_on_c, 0, 35, 0
2, 32580, Note_on_c, 0, 35, 110
2, 32595, Note_on_c, 0, 35, 0
2, 32610, Note_on_c, 0, 35, 110
2, 32640, Note_on_c, 0, 37, 127
2, 32644, Note_on_c, 0, 35, 0
2, 32678, Note_on_c, 0, 37, 0
2, 32700, Note_on_c, 0, 37, 110
2, 32715, Note_on_c, 0, 37, 0
2, 32730, Note_on_c, 0, 37, 110
2, 32747, Note_on_c, 0, 37, 0
2, 32760, Note_on_c, 0, 37, 127
2, 32794, Note_on_c, 0, 37, 0
2, 32820, Note_on_c, 0, 37, 110
2, 32836, Note_on_c, 0, 37, 0
2, 32850, Note_on_c, 0, 37, 110
2, 32875, Note_on_c, 0, 37, 0
2, 32880, Note_on_c, 0, 29, 127
2, 32909, Note_on_c, 0, 29, 0
2, 32940, Note_on_c, 0, 29, 110
2, 32954, Note_on_c, 0, 29, 0
2, 32970, Note_on_c, 0, 29, 110
2, 32982, Note_on_c, 0, 29, 0
2, 33000, Note_on_c, 0, 29, 127
2, 33032, Note_on_c, 0, 29, 0
2, 33060, Note_on_c, 0, 29, 110
2, 33088, Note_on_c, 0, 29, 0
2, 33090, Note_on_c, 0, 32, 110
2, 33115, Note_on_c, 0, 32, 0
2, 33120, Note_on_c, 0, 30, 127
2, 33154, Note_on_c, 0, 30, 0
2, 33180, Note_on_c, 0, 30, 110
2, 33195, Note_on_c, 0, 30, 0
2, 33210, Note_on_c, 0, 30, 110
2, 33223, Note_on_c, 0, 30, 0
2, 33240, Note_on_c, 0, 30, 127
2, 33273, Note_on_c, 0, 30, 0
2, 33300, Note_on_c, 0, 30, 110
2, 33312, Note_on_c, 0, 30, 0
2, 33330, Note_on_c, 0, 30, 110
2, 33346, Note_on_c, 0, 30, 0
2, 33360, Note_on_c, 0, 30, 127
2, 33391, Note_on_c, 0, 30, 0
2, 33420, Note_on_c, 0, 30, 110
2, 33434, Note_on_c, 0, 30, 0
2, 33450, Note_on_c, 0, 30, 110
2, 33465, Note_on_c, 0, 30, 0
2, 33480, Note_on_c, 0, 30, 127
2, 33516, Note_on_c, 0, 30, 0
2, 33540, Note_on_c, 0, 30, 110
2, 33554, Note_on_c, 0, 30, 0
2, 33570, Note_on_c, 0, 30, 110
2, 33594, Note_on_c, 0, 30, 0
2, 33600, Note_on_c, 0, 32, 127
2, 33630, Note_on_c, 0, 32, 0
2, 33660, Note_on_c, 0, 32, 110
2, 33675, Note_on_c, 0, 32, 0
2, 33690, Note_on_c, 0, 32, 110
2, 33706, Note_on_c, 0, 32, 0
2, 33720, Note_on_c, 0, 32, 127
2, 33749, Note_on_c, 0, 32, 0
2, 33780, Note_on_c, 0, 32, 110
2, 33792, Note_on_c, 0, 32, 0
2, 33810, Note_on_c, 0, 32, 110
2, 33821, Note_on_c, 0, 32, 0
2, 33840, Note_on_c, 0, 32, 127
2, 33865, Note_on_c, 0, 32, 0
2, 33900, Note_on_c, 0, 32, 110
2, 33913, Note_on_c, 0, 32, 0
2, 33930, Note_on_c, 0, 32, 110
2, 33943, Note_on_c, 0, 32, 0
2, 33960, Note_on_c, 0, 32, 127
2, 33984, Note_on_c, 0, 32, 0
2, 34020, Note_on_c, 0, 32, 110
2, 34047, Note_on_c, 0, 32, 0
2, 34050, Note_on_c, 0, 35, 110
2, 34080, Note_on_c, 0, 37, 127
2, 34083, Note_on_c, 0, 35, 0
2, 34120, Note_on_c, 0, 37, 0
2, 34140, Note_on_c, 0, 37, 110
2, 34152, Note_on_c, 0, 37, 0
2, 34170, Note_on_c, 0, 37, 110
2, 34184, Note_on_c, 0, 37, 0
2, 34200, Note_on_c, 0, 37, 127
2, 34235, Note_on_c, 0, 37, 0
2, 34260, Note_on_c, 0, 37, 110
2, 34277, Note_on_c, 0, 37, 0
2, 34290, Note_on_c, 0, 37, 110
2, 34305, Note_on_c, 0, 37, 0
2, 34320, Note_on_c, 0, 37, 127
2, 34346, Note_on_c, 0, 37, 0
2, 34380, Note_on_c, 0, 37, 110
2, 34396, Note_on_c, 0, 37, 0
2, 34410, Note_on_c, 0, 37, 110
2, 34424, Note_on_c, 0, 37, 0
2, 34440, Note_on_c, 0, 37, 127
2, 34460, Note_on_c, 0, 37, 0
2, 34500, Note_on_c, 0, 37, 110
2, 34530, Note_on_c, 0, 35, 110
2, 34534, Note_on_c, 0, 37, 0
2, 34560, Note_on_c, 0, 37, 127
2, 34566, Note_on_c, 0, 35, 0
2, 34596, Note_on_c, 0, 37, 0
2, 34620, Note_on_c, 0, 37, 110
2, 34634, Note_on_c, 0, 37, 0
2, 34650, Note_on_c, 0, 37, 110
2, 34663, Note_on_c, 0, 37, 0
2, 34680, Note_on_c, 0, 37, 127
2, 34708, Note_on_c, 0, 37, 0
2, 34740, Note_on_c, 0, 37, 110
2, 34756, Note_on_c, 0, 37, 0
2, 34770, Note_on_c, 0, 37, 110
2, 34784, Note_on_c, 0, 37, 0
2, 34800, Note_on_c, 0, 37, 127
2, 34838, Note_on_c, 0, 37, 0
2, 34860, Note_on_c, 0, 37, 110
2, 34876, Note_on_c, 0, 37, 0
2, 34890, Note_on_c, 0, 37, 110
2, 34903, Note_on_c, 0, 37, 0
2, 34920, Note_on_c, 0, 37, 127
2, 34956, Note_on_c, 0, 37, 0
2, 34980, Note_on_c, 0, 32, 110
2, 35005, Note_on_c, 0, 32, 0
2, 35010, Note_on_c, 0, 34, 110
2, 35040, Note_on_c, 0, 35, 127
2, 35050, Note_on_c, 0, 34, 0
2, 35072, Note_on_c, 0, 35, 0
2, 35100, Note_on_c, 0, 35, 110
2, 35116, Note_on_c, 0, 35, 0
2, 35130, Note_on_c, 0, 35, 110
2, 35148, Note_on_c, 0, 35, 0
2, 35160, Note_on_c, 0, 35, 127
2, 35187, Note_on_c, 0, 35, 0
2, 35220, Note_on_c, 0, 35, 110
2, 35235, Note_on_c, 0, 35, 0
2, 35250, Note_on_c, 0, 35, 110
2, 35265, Note_on_c, 0, 35, 0
2, 35280, Note_on_c, 0, 35, 127
2, 35319, Note_on_c, 0, 35, 0
2, 35340, Note_on_c, 0, 35, 110
2, 35356, Note_on_c, 0, 35, 0
2, 35370, Note_on_c, 0, 35, 110
2, 35385, Note_on_c, 0, 35, 0
2, 35400, Note_on_c, 0, 35, 127
2, 35431, Note_on_c, 0, 35, 0
2, 35460, Note_on_c, 0, 35, 110
2, 35475, Note_on_c, 0, 35, 0
2, 35490, Note_on_c, 0, 35, 110
2, 35520, Note_on_c, 0, 35, 0
2, 35520, Note_on_c, 0, 33, 127
2, 35548, Note_on_c, 0, 33, 0
2, 35580, Note_on_c, 0, 33, 110
2, 35592, Note_on_c, 0, 33, 0
2, 35610, Note_on_c, 0, 33, 110
2, 35621, Note_on_c, 0, 33, 0
2, 35640, Note_on_c, 0, 33, 127
2, 35670, Note_on_c, 0, 33, 0
2, 35700, Note_on_c, 0, 33, 110
2, 35713, Note_on_c, 0, 33, 0
2, 35730, Note_on_c, 0, 33, 110
2, 35745, Note_on_c, 0, 33, 0
2, 35760, Note_on_c, 0, 33, 127
2, 35790, Note_on_c, 0, 33, 0
2, 35820, Note_on_c, 0, 33, 110
2, 35836, Note_on_c, 0, 33, 0
2, 35850, Note_on_c, 0, 33, 110
2, 35867, Note_on_c, 0, 33, 0
2, 35880, Note_on_c, 0, 33, 127
2, 35911, Note_on_c, 0, 33, 0
2, 35940, Note_on_c, 0, 33, 110
2, 35956, Note_on_c, 0, 33, 0
2, 35970, Note_on_c, 0, 33, 110
2, 35993, Note_on_c, 0, 33, 0
2, 36000, Note_on_c, 0, 32, 127
2, 36022, Note_on_c, 0, 32, 0
2, 36060, Note_on_c, 0, 32, 110
2, 36075, Note_on_c, 0, 32, 0
2, 36090, Note_on_c, 0, 32, 110
2, 36119, Note_on_c, 0, 32, 0
2, 36120, Note_on_c, 0, 35, 127
2, 36150, Note_on_c, 0, 35, 0
2, 36180, Note_on_c, 0, 35, 110
2, 36197, Note_on_c, 0, 35, 0
2, 36210, Note_on_c, 0, 35, 110
2, 36240, Note_on_c, 0, 39, 127
2, 36245, Note_on_c, 0, 35, 0
2, 36264, Note_on_c, 0, 39, 0
2, 36300, Note_on_c, 0, 39, 110
2, 36316, Note_on_c, 0, 39, 0
2, 36330, Note_on_c, 0, 39, 110
2, 36360, Note_on_c, 0, 35, 127
2, 36366, Note_on_c, 0, 39, 0
2, 36383, Note_on_c, 0, 35, 0
2, 36420, Note_on_c, 0, 35, 110
2, 36434, Note_on_c, 0, 35, 0
2, 36450, Note_on_c, 0, 35, 110
2, 36480, Note_on_c, 0, 37, 127
2, 36485, Note_on_c, 0, 35, 0
2, 36508, Note_on_c, 0, 37, 0
2, 36540, Note_on_c, 0, 37, 110
2, 36556, Note_on_c, 0, 37, 0
2, 36570, Note_on_c, 0, 37, 110
2, 36585, Note_on_c, 0, 37, 0
2, 36600, Note_on_c, 0, 37, 127
2, 36636, Note_on_c, 0, 37, 0
2, 36660, Note_on_c, 0, 37, 110
2, 36676, Note_on_c, 0, 37, 0
2, 36690, Note_on_c, 0, 37, 110
2, 36715, Note_on_c, 0, 37, 0
2, 36720, Note_on_c, 0, 29, 127
2, 36755, Note_on_c, 0, 29, 0
2, 36780, Note_on_c, 0, 29, 110
2, 36794, Note_on_c, 0, 29, 0
2, 36810, Note_on_c, 0, 29, 110
2, 36822, Note_on_c, 0, 29, 0
2, 36840, Note_on_c, 0, 29, 127
2, 36874, Note_on_c, 0, 29, 0
2, 36900, Note_on_c, 0, 29, 110
2, 36929, Note_on_c, 0, 29, 0
2, 36930, Note_on_c, 0, 32, 110
2, 36960, Note_on_c, 0, 30, 127
2, 36963, Note_on_c, 0, 32, 0
2, 36995, Note_on_c, 0, 30, 0
2, 37020, Note_on_c, 0, 30, 110
2, 37035, Note_on_c, 0, 30, 0
2, 37050, Note_on_c, 0, 30, 110
2, 37063, Note_on_c, 0, 30, 0
2, 37080, Note_on_c, 0, 30, 127
2, 37107, Note_on_c, 0, 30, 0
2, 37140, Note_on_c, 0, 30, 110
2, 37153, Note_on_c, 0, 30, 0
2, 37170, Note_on_c, 0, 30, 110
2, 37183, Note_on_c, 0, 30, 0
2, 37200, Note_on_c, 0, 30, 127
2, 37227, Note_on_c, 0, 30, 0
2, 37260, Note_on_c, 0, 30, 110
2, 37274, Note_on_c, 0, 30, 0
2, 37290, Note_on_c, 0, 30, 110
2, 37304, Note_on_c, 0, 30, 0
2, 37320, Note_on_c, 0, 30, 127
2, 37351, Note_on_c, 0, 30, 0
2, 37380, Note_on_c, 0, 30, 110
2, 37394, Note_on_c, 0, 30, 0
2, 37410, Note_on_c, 0, 30, 110
2, 37427, Note_on_c, 0, 30, 0
2, 37440, Note_on_c, 0, 32, 127
2, 37470, Note_on_c, 0, 32, 0
2, 37500, Note_on_c, 0, 32, 110
2, 37515, Note_on_c, 0, 32, 0
2, 37530, Note_on_c, 0, 32, 110
2, 37558, Note_on_c, 0, 32, 0
2, 37560, Note_on_c, 0, 35, 127
2, 37591, Note_on_c, 0, 35, 0
2, 37620, Note_on_c, 0, 35, 110
2, 37635, Note_on_c, 0, 35, 0
2, 37650, Note_on_c, 0, 35, 110
2, 37680, Note_on_c, 0, 39, 127
2, 37684, Note_on_c, 0, 35, 0
2, 37710, Note_on_c, 0, 39, 0
2, 37740, Note_on_c, 0, 39, 110
2, 37756, Note_on_c, 0, 39, 0
2, 37770, Note_on_c, 0, 39, 110
2, 37800, Note_on_c, 0, 35, 127
2, 37802, Note_on_c, 0, 39, 0
2, 37828, Note_on_c, 0, 35, 0
2, 37860, Note_on_c, 0, 35, 110
2, 37875, Note_on_c, 0, 35, 0
2, 37890, Note_on_c, 0, 35, 110
2, 37920, Note_on_c, 0, 37, 127
2, 37927, Note_on_c, 0, 35, 0
2, 37964, Note_on_c, 0, 37, 0
2, 37980, Note_on_c, 0, 37, 110
2, 37995, Note_on_c, 0, 37, 0
2, 38010, Note_on_c, 0, 37, 110
2, 38026, Note_on_c, 0, 37, 0
2, 38040, Note_on_c, 0, 37, 127
2, 38079, Note_on_c, 0, 37, 0
2, 38100, Note_on_c, 0, 37, 110
2, 38115, Note_on_c, 0, 37, 0
2, 38130, Note_on_c, 0, 37, 110
2, 38147, Note_on_c, 0, 37, 0
2, 38160, Note_on_c, 0, 37, 127
2, 38192, Note_on_c, 0, 37, 0
2, 38220, Note_on_c, 0, 37, 110
2, 38235, Note_on_c, 0, 37, 0
2, 38250, Note_on_c, 0, 37, 110
2, 38265, Note_on_c, 0, 37, 0
2, 38280, Note_on_c, 0, 37, 127
2, 38308, Note_on_c, 0, 37, 0
2, 38340, Note_on_c, 0, 37, 110
2, 38370, Note_on_c, 0, 37, 0
2, 38370, Note_on_c, 0, 35, 110
2, 38400, Note_on_c, 0, 37, 127
2, 38412, Note_on_c, 0, 35, 0
2, 38434, Note_on_c, 0, 37, 0
2, 38460, Note_on_c, 0, 37, 110
2, 38474, Note_on_c, 0, 37, 0
2, 38490, Note_on_c, 0, 37, 110
2, 38509, Note_on_c, 0, 37, 0
2, 38520, Note_on_c, 0, 37, 127
2, 38561, Note_on_c, 0, 37, 0
2, 38580, Note_on_c, 0, 37, 110
2, 38595, Note_on_c, 0, 37, 0
2, 38610, Note_on_c, 0, 37, 110
2, 38625, Note_on_c, 0, 37, 0
2, 38640, Note_on_c, 0, 37, 127
2, 38670, Note_on_c, 0, 39, 110
2, 38682, Note_on_c, 0, 37, 0
2, 38700, Note_on_c, 0, 37, 110
2, 38712, Note_on_c, 0, 39, 0
2, 38715, Note_on_c, 0, 37, 0
2, 38730, Note_on_c, 0, 44, 110
2, 38746, Note_on_c, 0, 44, 0
2, 38760, Note_on_c, 0, 49, 127
2, 38790, Note_on_c, 0, 51, 110
2, 38805, Note_on_c, 0, 51, 0
2, 38805, Note_on_c, 0, 49, 0
2, 38820, Note_on_c, 0, 49, 110
2, 38835, Note_on_c, 0, 49, 0
2, 38850, Note_on_c, 0, 37, 110
2, 38866, Note_on_c, 0, 37, 0
2, 38880, Note_on_c, 0, 34, 127
2, 38912, Note_on_c, 0, 34, 0
2, 38940, Note_on_c, 0, 34, 110
2, 38953, Note_on_c, 0, 34, 0
2, 38970, Note_on_c, 0, 34, 110
2, 38985, Note_on_c, 0, 34, 0
2, 39000, Note_on_c, 0, 34, 127
2, 39034, Note_on_c, 0, 34, 0
2, 39060, Note_on_c, 0, 34, 110
2, 39073, Note_on_c, 0, 34, 0
2, 39090, Note_on_c, 0, 34, 110
2, 39104, Note_on_c, 0, 34, 0
2, 39120, Note_on_c, 0, 34, 127
2, 39149, Note_on_c, 0, 34, 0
2, 39180, Note_on_c, 0, 34, 110
2, 39194, Note_on_c, 0, 34, 0
2, 39210, Note_on_c, 0, 34, 110
2, 39223, Note_on_c, 0, 34, 0
2, 39240, Note_on_c, 0, 34, 127
2, 39266, Note_on_c, 0, 34, 0
2, 39300, Note_on_c, 0, 34, 110
2, 39313, Note_on_c, 0, 34, 0
2, 39330, Note_on_c, 0, 34, 110
2, 39358, Note_on_c, 0, 34, 0
2, 39360, Note_on_c, 0, 29, 127
2, 39392, Note_on_c, 0, 29, 0
2, 39420, Note_on_c, 0, 29, 110
2, 39433, Note_on_c, 0, 29, 0
2, 39450, Note_on_c, 0, 29, 110
2, 39464, Note_on_c, 0, 29, 0
2, 39480, Note_on_c, 0, 29, 127
2, 39509, Note_on_c, 0, 29, 0
2, 39540, Note_on_c, 0, 29, 110
2, 39564, Note_on_c, 0, 29, 0
2, 39570, Note_on_c, 0, 27, 110
2, 39600, Note_on_c, 0, 29, 127
2, 39604, Note_on_c, 0, 27, 0
2, 39632, Note_on_c, 0, 29, 0
2, 39660, Note_on_c, 0, 29, 110
2, 39672, Note_on_c, 0, 29, 0
2, 39690, Note_on_c, 0, 29, 110
2, 39703, Note_on_c, 0, 29, 0
2, 39720, Note_on_c, 0, 29, 127
2, 39758, Note_on_c, 0, 29, 0
2, 39780, Note_on_c, 0, 27, 110
2, 39810, Note_on_c, 0, 29, 110
2, 39813, Note_on_c, 0, 27, 0
2, 39840, Note_on_c, 0, 30, 127
2, 39843, Note_on_c, 0, 29, 0
2, 39875, Note_on_c, 0, 30, 0
2, 39900, Note_on_c, 0, 30, 110
2, 39913, Note_on_c, 0, 30, 0
2, 39930, Note_on_c, 0, 30, 110
2, 39945, Note_on_c, 0, 30, 0
2, 39960, Note_on_c, 0, 30, 127
2, 39997, Note_on_c, 0, 30, 0
2, 40020, Note_on_c, 0, 30, 110
2, 40035, Note_on_c, 0, 30, 0
2, 40050, Note_on_c, 0, 30, 110
2, 40067, Note_on_c, 0, 30, 0
2, 40080, Note_on_c, 0, 30, 127
2, 40114, Note_on_c, 0, 30, 0
2, 40140, Note_on_c, 0, 30, 110
2, 40154, Note_on_c, 0, 30, 0
2, 40170, Note_on_c, 0, 30, 110
2, 40186, Note_on_c, 0, 30, 0
2, 40200, Note_on_c, 0, 30, 127
2, 40235, Note_on_c, 0, 30, 0
2, 40260, Note_on_c, 0, 30, 110
2, 40274, Note_on_c, 0, 30, 0
2, 40290, Note_on_c, 0, 30, 110
2, 40320, Note_on_c, 0, 32, 127
2, 40328, Note_on_c, 0, 30, 0
2, 40360, Note_on_c, 0, 32, 0
2, 40380, Note_on_c, 0, 32, 110
2, 40395, Note_on_c, 0, 32, 0
2, 40410, Note_on_c, 0, 32, 110
2, 40425, Note_on_c, 0, 32, 0
2, 40440, Note_on_c, 0, 32, 127
2, 40477, Note_on_c, 0, 32, 0
2, 40500, Note_on_c, 0, 32, 110
2, 40517, Note_on_c, 0, 32, 0
2, 40530, Note_on_c, 0, 32, 110
2, 40545, Note_on_c, 0, 32, 0
2, 40560, Note_on_c, 0, 32, 127
2, 40588, Note_on_c, 0, 32, 0
2, 40620, Note_on_c, 0, 32, 110
2, 40635, Note_on_c, 0, 32, 0
2, 40650, Note_on_c, 0, 32, 110
2, 40666, Note_on_c, 0, 32, 0
2, 40680, Note_on_c, 0, 32, 127
2, 40709, Note_on_c, 0, 32, 0
2, 40740, Note_on_c, 0, 32, 110
2, 40752, Note_on_c, 0, 32, 0
2, 40770, Note_on_c, 0, 32, 110
2, 40800, Note_on_c, 0, 35, 127
2, 40803, Note_on_c, 0, 32, 0
2, 40843, Note_on_c, 0, 35, 0
2, 40860, Note_on_c, 0, 35, 110
2, 40873, Note_on_c, 0, 35, 0
2, 40890, Note_on_c, 0, 35, 110
2, 40903, Note_on_c, 0, 35, 0
2, 40920, Note_on_c, 0, 35, 127
2, 40951, Note_on_c, 0, 35, 0
2, 40980, Note_on_c, 0, 35, 110
2, 40993, Note_on_c, 0, 35, 0
2, 41010, Note_on_c, 0, 35, 110
2, 41024, Note_on_c, 0, 35, 0
2, 41040, Note_on_c, 0, 35, 127
2, 41083, Note_on_c, 0, 35, 0
2, 41100, Note_on_c, 0, 35, 110
2, 41117, Note_on_c, 0, 35, 0
2, 41130, Note_on_c, 0, 35, 110
2, 41144, Note_on_c, 0, 35, 0
2, 41160, Note_on_c, 0, 35, 127
2, 41206, Note_on_c, 0, 35, 0
2, 41220, Note_on_c, 0, 35, 110
2, 41234, Note_on_c, 0, 35, 0
2, 41250, Note_on_c, 0, 35, 110
2, 41280, Note_on_c, 0, 34, 127
2, 41284, Note_on_c, 0, 35, 0
2, 41325, Note_on_c, 0, 34, 0
2, 41340, Note_on_c, 0, 34, 110
2, 41354, Note_on_c, 0, 34, 0
2, 41370, Note_on_c, 0, 34, 110
2, 41383, Note_on_c, 0, 34, 0
2, 41400, Note_on_c, 0, 34, 127
2, 41435, Note_on_c, 0, 34, 0
2, 41460, Note_on_c, 0, 34, 110
2, 41475, Note_on_c, 0, 34, 0
2, 41490, Note_on_c, 0, 34, 110
2, 41507, Note_on_c, 0, 34, 0
2, 41520, Note_on_c, 0, 34, 127
2, 41562, Note_on_c, 0, 34, 0
2, 41580, Note_on_c, 0, 34, 110
2, 41593, Note_on_c, 0, 34, 0
2, 41610, Note_on_c, 0, 34, 110
2, 41628, Note_on_c, 0, 34, 0
2, 41640, Note_on_c, 0, 34, 127
2, 41675, Note_on_c, 0, 34, 0
2, 41700, Note_on_c, 0, 34, 110
2, 41714, Note_on_c, 0, 34, 0
2, 41730, Note_on_c, 0, 34, 110
2, 41755, Note_on_c, 0, 34, 0
2, 41760, Note_on_c, 0, 27, 127
2, 41807, Note_on_c, 0, 27, 0
2, 41820, Note_on_c, 0, 27, 110
2, 41834, Note_on_c, 0, 27, 0
2, 41850, Note_on_c, 0, 27, 110
2, 41866, Note_on_c, 0, 27, 0
2, 41880, Note_on_c, 0, 27, 127
2, 41917, Note_on_c, 0, 27, 0
2, 41940, Note_on_c, 0, 27, 110
2, 41954, Note_on_c, 0, 27, 0
2, 41970, Note_on_c, 0, 27, 110
2, 41986, Note_on_c, 0, 27, 0
2, 42000, Note_on_c, 0, 27, 127
2, 42038, Note_on_c, 0, 27, 0
2, 42060, Note_on_c, 0, 27, 110
2, 42074, Note_on_c, 0, 27, 0
2, 42090, Note_on_c, 0, 27, 110
2, 42105, Note_on_c, 0, 27, 0
2, 42120, Note_on_c, 0, 27, 127
2, 42151, Note_on_c, 0, 27, 0
2, 42180, Note_on_c, 0, 27, 110
2, 42205, Note_on_c, 0, 27, 0
2, 42210, Note_on_c, 0, 25, 110
2, 42240, Note_on_c, 0, 27, 127
2, 42243, Note_on_c, 0, 25, 0
2, 42274, Note_on_c, 0, 27, 0
2, 42300, Note_on_c, 0, 27, 110
2, 42315, Note_on_c, 0, 27, 0
2, 42330, Note_on_c, 0, 27, 110
2, 42345, Note_on_c, 0, 27, 0
2, 42360, Note_on_c, 0, 27, 127
2, 42392, Note_on_c, 0, 27, 0
2, 42420, Note_on_c, 0, 27, 110
2, 42435, Note_on_c, 0, 27, 0
2, 42450, Note_on_c, 0, 27, 110
2, 42465, Note_on_c, 0, 27, 0
2, 42480, Note_on_c, 0, 27, 127
2, 42510, Note_on_c, 0, 27, 0
2, 42540, Note_on_c, 0, 27, 110
2, 42553, Note_on_c, 0, 27, 0
2, 42570, Note_on_c, 0, 27, 110
2, 42585, Note_on_c, 0, 27, 0
2, 42600, Note_on_c, 0, 27, 127
2, 42630, Note_on_c, 0, 27, 0
2, 42660, Note_on_c, 0, 27, 110
2, 42674, Note_on_c, 0, 27, 0
2, 42690, Note_on_c, 0, 27, 110
2, 42718, Note_on_c, 0, 27, 0
2, 42720, Note_on_c, 0, 34, 127
2, 42760, Note_on_c, 0, 34, 0
2, 42780, Note_on_c, 0, 34, 110
2, 42795, Note_on_c, 0, 34, 0
2, 42810, Note_on_c, 0, 34, 110
2, 42824, Note_on_c, 0, 34, 0
2, 42840, Note_on_c, 0, 34, 127
2, 42874, Note_on_c, 0, 34, 0
2, 42900, Note_on_c, 0, 34, 110
2, 42915, Note_on_c, 0, 34, 0
2, 42930, Note_on_c, 0, 34, 110
2, 42945, Note_on_c, 0, 34, 0
2, 42960, Note_on_c, 0, 34, 127
2, 42989, Note_on_c, 0, 34, 0
2, 43020, Note_on_c, 0, 34, 110
2, 43034, Note_on_c, 0, 34, 0
2, 43050, Note_on_c, 0, 34, 110
2, 43065, Note_on_c, 0, 34, 0
2, 43080, Note_on_c, 0, 34, 127
2, 43110, Note_on_c, 0, 34, 0
2, 43140, Note_on_c, 0, 34, 110
2, 43152, Note_on_c, 0, 34, 0
2, 43170, Note_on_c, 0, 34, 110
2, 43200, Note_on_c, 0, 34, 0
2, 43200, Note_on_c, 0, 29, 127
2, 43240, Note_on_c, 0, 29, 0
2, 43260, Note_on_c, 0, 29, 110
2, 43290, Note_on_c, 0, 29, 0
2, 43290, Note_on_c, 0, 27, 110
2, 43319, Note_on_c, 0, 27, 0
2, 43320, Note_on_c, 0, 29, 127
2, 43352, Note_on_c, 0, 29, 0
2, 43380, Note_on_c, 0, 29, 110
2, 43394, Note_on_c, 0, 29, 0
2, 43410, Note_on_c, 0, 29, 110
2, 43424, Note_on_c, 0, 29, 0
2, 43440, Note_on_c, 0, 29, 127
2, 43469, Note_on_c, 0, 29, 0
2, 43500, Note_on_c, 0, 29, 110
2, 43530, Note_on_c, 0, 27, 110
2, 43536, Note_on_c, 0, 29, 0
2, 43560, Note_on_c, 0, 29, 127
2, 43564, Note_on_c, 0, 27, 0
2, 43610, Note_on_c, 0, 29, 0
2, 43620, Note_on_c, 0, 27, 110
2, 43650, Note_on_c, 0, 29, 110
2, 43651, Note_on_c, 0, 27, 0
2, 43680, Note_on_c, 0, 30, 127
2, 43682, Note_on_c, 0, 29, 0
2, 43718, Note_on_c, 0, 30, 0
2, 43740, Note_on_c, 0, 30, 110
2, 43753, Note_on_c, 0, 30, 0
2, 43770, Note_on_c, 0, 30, 110
2, 43785, Note_on_c, 0, 30, 0
2, 43800, Note_on_c, 0, 30, 127
2, 43836, Note_on_c, 0, 30, 0
2, 43860, Note_on_c, 0, 30, 110
2, 43874, Note_on_c, 0, 30, 0
2, 43890, Note_on_c, 0, 30, 110
2, 43903, Note_on_c, 0, 30, 0
2, 43920, Note_on_c, 0, 30, 127
2, 43957, Note_on_c, 0, 30, 0
2, 43980, Note_on_c, 0, 30, 110
2, 43995, Note_on_c, 0, 30, 0
2, 44010, Note_on_c, 0, 30, 110
2, 44027, Note_on_c, 0, 30, 0
2, 44040, Note_on_c, 0, 30, 127
2, 44068, Note_on_c, 0, 30, 0
2, 44100, Note_on_c, 0, 30, 110
2, 44115, Note_on_c, 0, 30, 0
2, 44130, Note_on_c, 0, 30, 110
2, 44160, Note_on_c, 0, 32, 127
2, 44165, Note_on_c, 0, 30, 0
2, 44203, Note_on_c, 0, 32, 0
2, 44220, Note_on_c, 0, 32, 110
2, 44234, Note_on_c, 0, 32, 0
2, 44250, Note_on_c, 0, 32, 110
2, 44263, Note_on_c, 0, 32, 0
2, 44280, Note_on_c, 0, 32, 127
2, 44316, Note_on_c, 0, 32, 0
2, 44340, Note_on_c, 0, 32, 110
2, 44353, Note_on_c, 0, 32, 0
2, 44370, Note_on_c, 0, 32, 110
2, 44385, Note_on_c, 0, 32, 0
2, 44400, Note_on_c, 0, 32, 127
2, 44432, Note_on_c, 0, 32, 0
2, 44460, Note_on_c, 0, 32, 110
2, 44472, Note_on_c, 0, 32, 0
2, 44490, Note_on_c, 0, 32, 110
2, 44504, Note_on_c, 0, 32, 0
2, 44520, Note_on_c, 0, 32, 127
2, 44548, Note_on_c, 0, 32, 0
2, 44580, Note_on_c, 0, 32, 110
2, 44593, Note_on_c, 0, 32, 0
2, 44610, Note_on_c, 0, 32, 110
2, 44640, Note_on_c, 0, 33, 127
2, 44645, Note_on_c, 0, 32, 0
2, 44684, Note_on_c, 0, 33, 0
2, 44700, Note_on_c, 0, 33, 110
2, 44713, Note_on_c, 0, 33, 0
2, 44730, Note_on_c, 0, 33, 110
2, 44744, Note_on_c, 0, 33, 0
2, 44760, Note_on_c, 0, 33, 127
2, 44791, Note_on_c, 0, 33, 0
2, 44820, Note_on_c, 0, 33, 110
2, 44835, Note_on_c, 0, 33, 0
2, 44850, Note_on_c, 0, 33, 110
2, 44865, Note_on_c, 0, 33, 0
2, 44880, Note_on_c, 0, 33, 127
2, 44915, Note_on_c, 0, 33, 0
2, 44940, Note_on_c, 0, 33, 110
2, 44954, Note_on_c, 0, 33, 0
2, 44970, Note_on_c, 0, 33, 110
2, 44986, Note_on_c, 0, 33, 0
2, 45000, Note_on_c, 0, 33, 127
2, 45029, Note_on_c, 0, 33, 0
2, 45060, Note_on_c, 0, 33, 110
2, 45074, Note_on_c, 0, 33, 0
2, 45090, Note_on_c, 0, 33, 110
2, 45120, Note_on_c, 0, 32, 127
2, 45124, Note_on_c, 0, 33, 0
2, 45164, Note_on_c, 0, 32, 0
2, 45180, Note_on_c, 0, 32, 110
2, 45195, Note_on_c, 0, 32, 0
2, 45210, Note_on_c, 0, 32, 110
2, 45224, Note_on_c, 0, 32, 0
2, 45240, Note_on_c, 0, 32, 127
2, 45275, Note_on_c, 0, 32, 0
2, 45300, Note_on_c, 0, 32, 110
2, 45313, Note_on_c, 0, 32, 0
2, 45330, Note_on_c, 0, 32, 110
2, 45344, Note_on_c, 0, 32, 0
2, 45360, Note_on_c, 0, 32, 127
2, 45398, Note_on_c, 0, 32, 0
2, 45420, Note_on_c, 0, 32, 110
2, 45435, Note_on_c, 0, 32, 0
2, 45450, Note_on_c, 0, 32, 110
2, 45464, Note_on_c, 0, 32, 0
2, 45480, Note_on_c, 0, 32, 127
2, 45509, Note_on_c, 0, 32, 0
2, 45540, Note_on_c, 0, 32, 110
2, 45553, Note_on_c, 0, 32, 0
2, 45570, Note_on_c, 0, 32, 110
2, 45600, Note_on_c, 0, 37, 127
2, 45607, Note_on_c, 0, 32, 0
2, 45640, Note_on_c, 0, 37, 0
2, 45660, Note_on_c, 0, 37, 110
2, 45672, Note_on_c, 0, 37, 0
2, 45690, Note_on_c, 0, 37, 110
2, 45703, Note_on_c, 0, 37, 0
2, 45720, Note_on_c, 0, 37, 127
2, 45760, Note_on_c, 0, 37, 0
2, 45780, Note_on_c, 0, 37, 110
2, 45793, Note_on_c, 0, 37, 0
2, 45810, Note_on_c, 0, 37, 110
2, 45826, Note_on_c, 0, 37, 0
2, 45840, Note_on_c, 0, 37, 127
2, 45878, Note_on_c, 0, 37, 0
2, 45900, Note_on_c, 0, 37, 110
2, 45914, Note_on_c, 0, 37, 0
2, 45930, Note_on_c, 0, 37, 110
2, 45945, Note_on_c, 0, 37, 0
2, 45960, Note_on_c, 0, 37, 127
2, 46004, Note_on_c, 0, 37, 0
2, 46020, Note_on_c, 0, 37, 110
2, 46068, Note_on_c, 0, 37, 0
2, 46080, Note_on_c, 0, 34, 127
2, 46712, Note_on_c, 0, 34, 0
2, 47040, Note_on_c, 0, 35, 127
2, 47073, Note_on_c, 0, 35, 0
2, 47100, Note_on_c, 0, 35, 110
2, 47116, Note_on_c, 0, 35, 0
2, 47130, Note_on_c, 0, 35, 110
2, 47144, Note_on_c, 0, 35, 0
2, 47160, Note_on_c, 0, 35, 127
2, 47199, Note_on_c, 0, 35, 0
2, 47220, Note_on_c, 0, 35, 110
2, 47235, Note_on_c, 0, 35, 0
2, 47250, Note_on_c, 0, 35, 110
2, 47266, Note_on_c, 0, 35, 0
2, 47280, Note_on_c, 0, 35, 127
2, 47314, Note_on_c, 0, 35, 0
2, 47340, Note_on_c, 0, 35, 110
2, 47355, Note_on_c, 0, 35, 0
2, 47370, Note_on_c, 0, 35, 110
2, 47386, Note_on_c, 0, 35, 0
2, 47400, Note_on_c, 0, 35, 127
2, 47433, Note_on_c, 0, 35, 0
2, 47460, Note_on_c, 0, 35, 110
2, 47474, Note_on_c, 0, 35, 0
2, 47490, Note_on_c, 0, 35, 110
2, 47518, Note_on_c, 0, 35, 0
2, 47520, Note_on_c, 0, 33, 127
2, 47550, Note_on_c, 0, 33, 0
2, 47580, Note_on_c, 0, 33, 110
2, 47593, Note_on_c, 0, 33, 0
2, 47610, Note_on_c, 0, 33, 110
2, 47624, Note_on_c, 0, 33, 0
2, 47640, Note_on_c, 0, 33, 127
2, 47667, Note_on_c, 0, 33, 0
2, 47700, Note_on_c, 0, 33, 110
2, 47715, Note_on_c, 0, 33, 0
2, 47730, Note_on_c, 0, 33, 110
2, 47745, Note_on_c, 0, 33, 0
2, 47760, Note_on_c, 0, 33, 127
2, 47782, Note_on_c, 0, 33, 0
2, 47820, Note_on_c, 0, 33, 110
2, 47837, Note_on_c, 0, 33, 0
2, 47850, Note_on_c, 0, 33, 110
2, 47865, Note_on_c, 0, 33, 0
2, 47880, Note_on_c, 0, 33, 127
2, 47910, Note_on_c, 0, 33, 0
2, 47940, Note_on_c, 0, 33, 110
2, 47953, Note_on_c, 0, 33, 0
2, 47970, Note_on_c, 0, 33, 110
2, 47997, Note_on_c, 0, 33, 0
2, 48000, Note_on_c, 0, 32, 127
2, 48027, Note_on_c, 0, 32, 0
2, 48060, Note_on_c, 0, 32, 110
2, 48074, Note_on_c, 0, 32, 0
2, 48090, Note_on_c, 0, 32, 110
2, 48118, Note_on_c, 0, 32, 0
2, 48120, Note_on_c, 0, 35, 127
2, 48149, Note_on_c, 0, 35, 0
2, 48180, Note_on_c, 0, 35, 110
2, 48193, Note_on_c, 0, 35, 0
2, 48210, Note_on_c, 0, 35, 110
2, 48240, Note_on_c, 0, 39, 127
2, 48248, Note_on_c, 0, 35, 0
2, 48272, Note_on_c, 0, 39, 0
2, 48300, Note_on_c, 0, 39, 110
2, 48316, Note_on_c, 0, 39, 0
2, 48330, Note_on_c, 0, 39, 110
2, 48360, Note_on_c, 0, 35, 127
2, 48365, Note_on_c, 0, 39, 0
2, 48387, Note_on_c, 0, 35, 0
2, 48420, Note_on_c, 0, 35, 110
2, 48435, Note_on_c, 0, 35, 0
2, 48450, Note_on_c, 0, 35, 110
2, 48480, Note_on_c, 0, 37, 127
2, 48484, Note_on_c, 0, 35, 0
2, 48518, Note_on_c, 0, 37, 0
2, 48540, Note_on_c, 0, 37, 110
2, 48555, Note_on_c, 0, 37, 0
2, 48570, Note_on_c, 0, 37, 110
2, 48587, Note_on_c, 0, 37, 0
2, 48600, Note_on_c, 0, 37, 127
2, 48634, Note_on_c, 0, 37, 0
2, 48660, Note_on_c, 0, 37, 110
2, 48676, Note_on_c, 0, 37, 0
2, 48690, Note_on_c, 0, 37, 110
2, 48715, Note_on_c, 0, 37, 0
2, 48720, Note_on_c, 0, 29, 127
2, 48749, Note_on_c, 0, 29, 0
2, 48780, Note_on_c, 0, 29, 110
2, 48794, Note_on_c, 0, 29, 0
2, 48810, Note_on_c, 0, 29, 110
2, 48822, Note_on_c, 0, 29, 0
2, 48840, Note_on_c, 0, 29, 127
2, 48872, Note_on_c, 0, 29, 0
2, 48900, Note_on_c, 0, 29, 110
2, 48928, Note_on_c, 0, 29, 0
2, 48930, Note_on_c, 0, 32, 110
2, 48955, Note_on_c, 0, 32, 0
2, 48960, Note_on_c, 0, 30, 127
2, 48994, Note_on_c, 0, 30, 0
2, 49020, Note_on_c, 0, 30, 110
2, 49035, Note_on_c, 0, 30, 0
2, 49050, Note_on_c, 0, 30, 110
2, 49063, Note_on_c, 0, 30, 0
2, 49080, Note_on_c, 0, 30, 127
2, 49113, Note_on_c, 0, 30, 0
2, 49140, Note_on_c, 0, 30, 110
2, 49152, Note_on_c, 0, 30, 0
2, 49170, Note_on_c, 0, 30, 110
2, 49186, Note_on_c, 0, 30, 0
2, 49200, Note_on_c, 0, 30, 127
2, 49231, Note_on_c, 0, 30, 0
2, 49260, Note_on_c, 0, 30, 110
2, 49274, Note_on_c, 0, 30, 0
2, 49290, Note_on_c, 0, 30, 110
2, 49305, Note_on_c, 0, 30, 0
2, 49320, Note_on_c, 0, 30, 127
2, 49356, Note_on_c, 0, 30, 0
2, 49380, Note_on_c, 0, 30, 110
2, 49394, Note_on_c, 0, 30, 0
2, 49410, Note_on_c, 0, 30, 110
2, 49434, Note_on_c, 0, 30, 0
2, 49440, Note_on_c, 0, 32, 127
2, 49470, Note_on_c, 0, 32, 0
2, 49500, Note_on_c, 0, 32, 110
2, 49515, Note_on_c, 0, 32, 0
2, 49530, Note_on_c, 0, 32, 110
2, 49546, Note_on_c, 0, 32, 0
2, 49560, Note_on_c, 0, 32, 127
2, 49589, Note_on_c, 0, 32, 0
2, 49620, Note_on_c, 0, 32, 110
2, 49632, Note_on_c, 0, 32, 0
2, 49650, Note_on_c, 0, 32, 110
2, 49661, Note_on_c, 0, 32, 0
2, 49680, Note_on_c, 0, 32, 127
2, 49705, Note_on_c, 0, 32, 0
2, 49740, Note_on_c, 0, 32, 110
2, 49753, Note_on_c, 0, 32, 0
2, 49770, Note_on_c, 0, 32, 110
2, 49783, Note_on_c, 0, 32, 0
2, 49800, Note_on_c, 0, 32, 127
2, 49824, Note_on_c, 0, 32, 0
2, 49860, Note_on_c, 0, 32, 110
2, 49887, Note_on_c, 0, 32, 0
2, 49890, Note_on_c, 0, 35, 110
2, 49920, Note_on_c, 0, 37, 127
2, 49923, Note_on_c, 0, 35, 0
2, 49960, Note_on_c, 0, 37, 0
2, 49980, Note_on_c, 0, 37, 110
2, 49992, Note_on_c, 0, 37, 0
2, 50010, Note_on_c, 0, 37, 110
2, 50024, Note_on_c, 0, 37, 0
2, 50040, Note_on_c, 0, 37, 127
2, 50075, Note_on_c, 0, 37, 0
2, 50100, Note_on_c, 0, 37, 110
2, 50117, Note_on_c, 0, 37, 0
2, 50130, Note_on_c, 0, 37, 110
2, 50145, Note_on_c, 0, 37, 0
2, 50160, Note_on_c, 0, 37, 127
2, 50186, Note_on_c, 0, 37, 0
2, 50220, Note_on_c, 0, 37, 110
2, 50236, Note_on_c, 0, 37, 0
2, 50250, Note_on_c, 0, 37, 110
2, 50264, Note_on_c, 0, 37, 0
2, 50280, Note_on_c, 0, 37, 127
2, 50300, Note_on_c, 0, 37, 0
2, 50340, Note_on_c, 0, 37, 110
2, 50370, Note_on_c, 0, 35, 110
2, 50374, Note_on_c, 0, 37, 0
2, 50400, Note_on_c, 0, 37, 127
2, 50406, Note_on_c, 0, 35, 0
2, 50436, Note_on_c, 0, 37, 0
2, 50460, Note_on_c, 0, 37, 110
2, 50474, Note_on_c, 0, 37, 0
2, 50490, Note_on_c, 0, 37, 110
2, 50503, Note_on_c, 0, 37, 0
2, 50520, Note_on_c, 0, 37, 127
2, 50548, Note_on_c, 0, 37, 0
2, 50580, Note_on_c, 0, 37, 110
2, 50596, Note_on_c, 0, 37, 0
2, 50610, Note_on_c, 0, 37, 110
2, 50624, Note_on_c, 0, 37, 0
2, 50640, Note_on_c, 0, 37, 127
2, 50678, Note_on_c, 0, 37, 0
2, 50700, Note_on_c, 0, 37, 110
2, 50716, Note_on_c, 0, 37, 0
2, 50730, Note_on_c, 0, 37, 110
2, 50743, Note_on_c, 0, 37, 0
2, 50760, Note_on_c, 0, 37, 127
2, 50796, Note_on_c, 0, 37, 0
2, 50820, Note_on_c, 0, 32, 110
2, 50845, Note_on_c, 0, 32, 0
2, 50850, Note_on_c, 0, 34, 110
2, 50880, Note_on_c, 0, 35, 127
2, 50890, Note_on_c, 0, 34, 0
2, 50912, Note_on_c, 0, 35, 0
2, 50940, Note_on_c, 0, 35, 110
2, 50956, Note_on_c, 0, 35, 0
2, 50970, Note_on_c, 0, 35, 110
2, 50988, Note_on_c, 0, 35, 0
2, 51000, Note_on_c, 0, 35, 127
2, 51027, Note_on_c, 0, 35, 0
2, 51060, Note_on_c, 0, 35, 110
2, 51075, Note_on_c, 0, 35, 0
2, 51090, Note_on_c, 0, 35, 110
2, 51105, Note_on_c, 0, 35, 0
2, 51120, Note_on_c, 0, 35, 127
2, 51159, Note_on_c, 0, 35, 0
2, 51180, Note_on_c, 0, 35, 110
2, 51196, Note_on_c, 0, 35, 0
2, 51210, Note_on_c, 0, 35, 110
2, 51225, Note_on_c, 0, 35, 0
2, 51240, Note_on_c, 0, 35, 127
2, 51271, Note_on_c, 0, 35, 0
2, 51300, Note_on_c, 0, 35, 110
2, 51315, Note_on_c, 0, 35, 0
2, 51330, Note_on_c, 0, 35, 110
2, 51360, Note_on_c, 0, 35, 0
2, 51360, Note_on_c, 0, 33, 127
2, 51388, Note_on_c, 0, 33, 0
2, 51420, Note_on_c, 0, 33, 110
2, 51432, Note_on_c, 0, 33, 0
2, 51450, Note_on_c, 0, 33, 110
2, 51461, Note_on_c, 0, 33, 0
2, 51480, Note_on_c, 0, 33, 127
2, 51510, Note_on_c, 0, 33, 0
2, 51540, Note_on_c, 0, 33, 110
2, 51553, Note_on_c, 0, 33, 0
2, 51570, Note_on_c, 0, 33, 110
2, 51585, Note_on_c, 0, 33, 0
2, 51600, Note_on_c, 0, 33, 127
2, 51630, Note_on_c, 0, 33, 0
2, 51660, Note_on_c, 0, 33, 110
2, 51676, Note_on_c, 0, 33, 0
2, 51690, Note_on_c, 0, 33, 110
2, 51707, Note_on_c, 0, 33, 0
2, 51720, Note_on_c, 0, 33, 127
2, 51751, Note_on_c, 0, 33, 0
2, 51780, Note_on_c, 0, 33, 110
2, 51796, Note_on_c, 0, 33, 0
2, 51810, Note_on_c, 0, 33, 110
2, 51833, Note_on_c, 0, 33, 0
2, 51840, Note_on_c, 0, 32, 127
2, 51862, Note_on_c, 0, 32, 0
2, 51900, Note_on_c, 0, 32, 110
2, 51915, Note_on_c, 0, 32, 0
2, 51930, Note_on_c, 0, 32, 110
2, 51959, Note_on_c, 0, 32, 0
2, 51960, Note_on_c, 0, 35, 127
2, 51990, Note_on_c, 0, 35, 0
2, 52020, Note_on_c, 0, 35, 110
2, 52037, Note_on_c, 0, 35, 0
2, 52050, Note_on_c, 0, 35, 110
2, 52080, Note_on_c, 0, 39, 127
2, 52085, Note_on_c, 0, 35, 0
2, 52104, Note_on_c, 0, 39, 0
2, 52140, Note_on_c, 0, 39, 110
2, 52156, Note_on_c, 0, 39, 0
2, 52170, Note_on_c, 0, 39, 110
2, 52200, Note_on_c, 0, 35, 127
2, 52206, Note_on_c, 0, 39, 0
2, 52223, Note_on_c, 0, 35, 0
2, 52260, Note_on_c, 0, 35, 110
2, 52274, Note_on_c, 0, 35, 0
2, 52290, Note_on_c, 0, 35, 110
2, 52320, Note_on_c, 0, 37, 127
2, 52325, Note_on_c, 0, 35, 0
2, 52348, Note_on_c, 0, 37, 0
2, 52380, Note_on_c, 0, 37, 110
2, 52396, Note_on_c, 0, 37, 0
2, 52410, Note_on_c, 0, 37, 110
2, 52425, Note_on_c, 0, 37, 0
2, 52440, Note_on_c, 0, 37, 127
2, 52476, Note_on_c, 0, 37, 0
2, 52500, Note_on_c, 0, 37, 110
2, 52516, Note_on_c, 0, 37, 0
2, 52530, Note_on_c, 0, 37, 110
2, 52555, Note_on_c, 0, 37, 0
2, 52560, Note_on_c, 0, 29, 127
2, 52595, Note_on_c, 0, 29, 0
2, 52620, Note_on_c, 0, 29, 110
2, 52634, Note_on_c, 0, 29, 0
2, 52650, Note_on_c, 0, 29, 110
2, 52662, Note_on_c, 0, 29, 0
2, 52680, Note_on_c, 0, 29, 127
2, 52714, Note_on_c, 0, 29, 0
2, 52740, Note_on_c, 0, 29, 110
2, 52769, Note_on_c, 0, 29, 0
2, 52770, Note_on_c, 0, 32, 110
2, 52800, Note_on_c, 0, 30, 127
2, 52803, Note_on_c, 0, 32, 0
2, 52835, Note_on_c, 0, 30, 0
2, 52860, Note_on_c, 0, 30, 110
2, 52875, Note_on_c, 0, 30, 0
2, 52890, Note_on_c, 0, 30, 110
2, 52903, Note_on_c, 0, 30, 0
2, 52920, Note_on_c, 0, 30, 127
2, 52947, Note_on_c, 0, 30, 0
2, 52980, Note_on_c, 0, 30, 110
2, 52993, Note_on_c, 0, 30, 0
2, 53010, Note_on_c, 0, 30, 110
2, 53023, Note_on_c, 0, 30, 0
2, 53040, Note_on_c, 0, 30, 127
2, 53067, Note_on_c, 0, 30, 0
2, 53100, Note_on_c, 0, 30, 110
2, 53114, Note_on_c, 0, 30, 0
2, 53130, Note_on_c, 0, 30, 110
2, 53144, Note_on_c, 0, 30, 0
2, 53160, Note_on_c, 0, 30, 127
2, 53191, Note_on_c, 0, 30, 0
2, 53220, Note_on_c, 0, 30, 110
2, 53234, Note_on_c, 0, 30, 0
2, 53250, Note_on_c, 0, 30, 110
2, 53267, Note_on_c, 0, 30, 0
2, 53280, Note_on_c, 0, 32, 127
2, 53310, Note_on_c, 0, 32, 0
2, 53340, Note_on_c, 0, 32, 110
2, 53355, Note_on_c, 0, 32, 0
2, 53370, Note_on_c, 0, 32, 110
2, 53398, Note_on_c, 0, 32, 0
2, 53400, Note_on_c, 0, 35, 127
2, 53431, Note_on_c, 0, 35, 0
2, 53460, Note_on_c, 0, 35, 110
2, 53475, Note_on_c, 0, 35, 0
2, 53490, Note_on_c, 0, 35, 110
2, 53520, Note_on_c, 0, 39, 127
2, 53524, Note_on_c, 0, 35, 0
2, 53550, Note_on_c, 0, 39, 0
2, 53580, Note_on_c, 0, 39, 110
2, 53596, Note_on_c, 0, 39, 0
2, 53610, Note_on_c, 0, 39, 110
2, 53640, Note_on_c, 0, 35, 127
2, 53642, Note_on_c, 0, 39, 0
2, 53668, Note_on_c, 0, 35, 0
2, 53700, Note_on_c, 0, 35, 110
2, 53715, Note_on_c, 0, 35, 0
2, 53730, Note_on_c, 0, 35, 110
2, 53760, Note_on_c, 0, 37, 127
2, 53767, Note_on_c, 0, 35, 0
2, 53804, Note_on_c, 0, 37, 0
2, 53820, Note_on_c, 0, 37, 110
2, 53835, Note_on_c, 0, 37, 0
2, 53850, Note_on_c, 0, 37, 110
2, 53866, Note_on_c, 0, 37, 0
2, 53880, Note_on_c, 0, 37, 127
2, 53919, Note_on_c, 0, 37, 0
2, 53940, Note_on_c, 0, 37, 110
2, 53955, Note_on_c, 0, 37, 0
2, 53970, Note_on_c, 0, 37, 110
2, 53987, Note_on_c, 0, 37, 0
2, 54000, Note_on_c, 0, 37, 127
2, 54032, Note_on_c, 0, 37, 0
2, 54060, Note_on_c, 0, 37, 110
2, 54075, Note_on_c, 0, 37, 0
2, 54090, Note_on_c, 0, 37, 110
2, 54105, Note_on_c, 0, 37, 0
2, 54120, Note_on_c, 0, 37, 127
2, 54148, Note_on_c, 0, 37, 0
2, 54180, Note_on_c, 0, 37, 110
2, 54210, Note_on_c, 0, 37, 0
2, 54210, Note_on_c, 0, 35, 110
2, 54240, Note_on_c, 0, 37, 127
2, 54252, Note_on_c, 0, 35, 0
2, 54285, Note_on_c, 0, 37, 0
2, 54300, Note_on_c, 0, 37, 110
2, 54314, Note_on_c, 0, 37, 0
2, 54330, Note_on_c, 0, 37, 110
2, 54349, Note_on_c, 0, 37, 0
2, 54360, Note_on_c, 0, 37, 127
2, 54401, Note_on_c, 0, 37, 0
2, 54420, Note_on_c, 0, 37, 110
2, 54435, Note_on_c, 0, 37, 0
2, 54450, Note_on_c, 0, 37, 110
2, 54466, Note_on_c, 0, 37, 0
2, 54480, Note_on_c, 0, 37, 127
2, 54510, Note_on_c, 0, 39, 110
2, 54522, Note_on_c, 0, 37, 0
2, 54540, Note_on_c, 0, 37, 110
2, 54552, Note_on_c, 0, 39, 0
2, 54555, Note_on_c, 0, 37, 0
2, 54570, Note_on_c, 0, 44, 110
2, 54586, Note_on_c, 0, 44, 0
2, 54600, Note_on_c, 0, 49, 127
2, 54630, Note_on_c, 0, 51, 110
2, 54645, Note_on_c, 0, 51, 0
2, 54645, Note_on_c, 0, 49, 0
2, 54660, Note_on_c, 0, 49, 110
2, 54675, Note_on_c, 0, 49, 0
2, 54690, Note_on_c, 0, 37, 110
2, 54706, Note_on_c, 0, 37, 0
2, 54720, Note_on_c, 0, 35, 127
2, 54753, Note_on_c, 0, 35, 0
2, 54780, Note_on_c, 0, 35, 110
2, 54796, Note_on_c, 0, 35, 0
2, 54810, Note_on_c, 0, 35, 110
2, 54824, Note_on_c, 0, 35, 0
2, 54840, Note_on_c, 0, 35, 127
2, 54879, Note_on_c, 0, 35, 0
2, 54900, Note_on_c, 0, 35, 110
2, 54915, Note_on_c, 0, 35, 0
2, 54930, Note_on_c, 0, 35, 110
2, 54946, Note_on_c, 0, 35, 0
2, 54960, Note_on_c, 0, 35, 127
2, 54994, Note_on_c, 0, 35, 0
2, 55020, Note_on_c, 0, 35, 110
2, 55035, Note_on_c, 0, 35, 0
2, 55050, Note_on_c, 0, 35, 110
2, 55066, Note_on_c, 0, 35, 0
2, 55080, Note_on_c, 0, 35, 127
2, 55113, Note_on_c, 0, 35, 0
2, 55140, Note_on_c, 0, 35, 110
2, 55154, Note_on_c, 0, 35, 0
2, 55170, Note_on_c, 0, 35, 110
2, 55198, Note_on_c, 0, 35, 0
2, 55200, Note_on_c, 0, 33, 127
2, 55230, Note_on_c, 0, 33, 0
2, 55260, Note_on_c, 0, 33, 110
2, 55273, Note_on_c, 0, 33, 0
2, 55290, Note_on_c, 0, 33, 110
2, 55304, Note_on_c, 0, 33, 0
2, 55320, Note_on_c, 0, 33, 127
2, 55347, Note_on_c, 0, 33, 0
2, 55380, Note_on_c, 0, 33, 110
2, 55395, Note_on_c, 0, 33, 0
2, 55410, Note_on_c, 0, 33, 110
2, 55425, Note_on_c, 0, 33, 0
2, 55440, Note_on_c, 0, 33, 127
2, 55462, Note_on_c, 0, 33, 0
2, 55500, Note_on_c, 0, 33, 110
2, 55517, Note_on_c, 0, 33, 0
2, 55530, Note_on_c, 0, 33, 110
2, 55545, Note_on_c, 0, 33, 0
2, 55560, Note_on_c, 0, 33, 127
2, 55590, Note_on_c, 0, 33, 0
2, 55620, Note_on_c, 0, 33, 110
2, 55633, Note_on_c, 0, 33, 0
2, 55650, Note_on_c, 0, 33, 110
2, 55677, Note_on_c, 0, 33, 0
2, 55680, Note_on_c, 0, 32, 127
2, 55707, Note_on_c, 0, 32, 0
2, 55740, Note_on_c, 0, 32, 110
2, 55754, Note_on_c, 0, 32, 0
2, 55770, Note_on_c, 0, 32, 110
2, 55798, Note_on_c, 0, 32, 0
2, 55800, Note_on_c, 0, 35, 127
2, 55829, Note_on_c, 0, 35, 0
2, 55860, Note_on_c, 0, 35, 110
2, 55873, Note_on_c, 0, 35, 0
2, 55890, Note_on_c, 0, 35, 110
2, 55920, Note_on_c, 0, 39, 127
2, 55928, Note_on_c, 0, 35, 0
2, 55952, Note_on_c, 0, 39, 0
2, 55980, Note_on_c, 0, 39, 110
2, 55996, Note_on_c, 0, 39, 0
2, 56010, Note_on_c, 0, 39, 110
2, 56040, Note_on_c, 0, 35, 127
2, 56045, Note_on_c, 0, 39, 0
2, 56067, Note_on_c, 0, 35, 0
2, 56100, Note_on_c, 0, 35, 110
2, 56115, Note_on_c, 0, 35, 0
2, 56130, Note_on_c, 0, 35, 110
2, 56160, Note_on_c, 0, 37, 127
2, 56164, Note_on_c, 0, 35, 0
2, 56198, Note_on_c, 0, 37, 0
2, 56220, Note_on_c, 0, 37, 110
2, 56235, Note_on_c, 0, 37, 0
2, 56250, Note_on_c, 0, 37, 110
2, 56267, Note_on_c, 0, 37, 0
2, 56280, Note_on_c, 0, 37, 127
2, 56314, Note_on_c, 0, 37, 0
2, 56340, Note_on_c, 0, 37, 110
2, 56356, Note_on_c, 0, 37, 0
2, 56370, Note_on_c, 0, 37, 110
2, 56395, Note_on_c, 0, 37, 0
2, 56400, Note_on_c, 0, 29, 127
2, 56429, Note_on_c, 0, 29, 0
2, 56460, Note_on_c, 0, 29, 110
2, 56474, Note_on_c, 0, 29, 0
2, 56490, Note_on_c, 0, 29, 110
2, 56502, Note_on_c, 0, 29, 0
2, 56520, Note_on_c, 0, 29, 127
2, 56552, Note_on_c, 0, 29, 0
2, 56580, Note_on_c, 0, 29, 110
2, 56608, Note_on_c, 0, 29, 0
2, 56610, Note_on_c, 0, 32, 110
2, 56635, Note_on_c, 0, 32, 0
2, 56640, Note_on_c, 0, 30, 127
2, 56674, Note_on_c, 0, 30, 0
2, 56700, Note_on_c, 0, 30, 110
2, 56715, Note_on_c, 0, 30, 0
2, 56730, Note_on_c, 0, 30, 110
2, 56743, Note_on_c, 0, 30, 0
2, 56760, Note_on_c, 0, 30, 127
2, 56793, Note_on_c, 0, 30, 0
2, 56820, Note_on_c, 0, 30, 110
2, 56832, Note_on_c, 0, 30, 0
2, 56850, Note_on_c, 0, 30, 110
2, 56866, Note_on_c, 0, 30, 0
2, 56880, Note_on_c, 0, 30, 127
2, 56911, Note_on_c, 0, 30, 0
2, 56940, Note_on_c, 0, 30, 110
2, 56954, Note_on_c, 0, 30, 0
2, 56970, Note_on_c, 0, 30, 110
2, 56985, Note_on_c, 0, 30, 0
2, 57000, Note_on_c, 0, 30, 127
2, 57036, Note_on_c, 0, 30, 0
2, 57060, Note_on_c, 0, 30, 110
2, 57074, Note_on_c, 0, 30, 0
2, 57090, Note_on_c, 0, 30, 110
2, 57114, Note_on_c, 0, 30, 0
2, 57120, Note_on_c, 0, 32, 127
2, 57150, Note_on_c, 0, 32, 0
2, 57180, Note_on_c, 0, 32, 110
2, 57195, Note_on_c, 0, 32, 0
2, 57210, Note_on_c, 0, 32, 110
2, 57226, Note_on_c, 0, 32, 0
2, 57240, Note_on_c, 0, 32, 127
2, 57269, Note_on_c, 0, 32, 0
2, 57300, Note_on_c, 0, 32, 110
2, 57312, Note_on_c, 0, 32, 0
2, 57330, Note_on_c, 0, 32, 110
2, 57341, Note_on_c, 0, 32, 0
2, 57360, Note_on_c, 0, 32, 127
2, 57385, Note_on_c, 0, 32, 0
2, 57420, Note_on_c, 0, 32, 110
2, 57433, Note_on_c, 0, 32, 0
2, 57450, Note_on_c, 0, 32, 110
2, 57463, Note_on_c, 0, 32, 0
2, 57480, Note_on_c, 0, 32, 127
2, 57504, Note_on_c, 0, 32, 0
2, 57540, Note_on_c, 0, 32, 110
2, 57567, Note_on_c, 0, 32, 0
2, 57570, Note_on_c, 0, 35, 110
2, 57600, Note_on_c, 0, 37, 127
2, 57603, Note_on_c, 0, 35, 0
2, 57640, Note_on_c, 0, 37, 0
2, 57660, Note_on_c, 0, 37, 110
2, 57672, Note_on_c, 0, 37, 0
2, 57690, Note_on_c, 0, 37, 110
2, 57704, Note_on_c, 0, 37, 0
2, 57720, Note_on_c, 0, 37, 127
2, 57755, Note_on_c, 0, 37, 0
2, 57780, Note_on_c, 0, 37, 110
2, 57797, Note_on_c, 0, 37, 0
2, 57810, Note_on_c, 0, 37, 110
2, 57825, Note_on_c, 0, 37, 0
2, 57840, Note_on_c, 0, 37, 127
2, 57866, Note_on_c, 0, 37, 0
2, 57900, Note_on_c, 0, 37, 110
2, 57916, Note_on_c, 0, 37, 0
2, 57930, Note_on_c, 0, 37, 110
2, 57944, Note_on_c, 0, 37, 0
2, 57960, Note_on_c, 0, 37, 127
2, 57980, Note_on_c, 0, 37, 0
2, 58020, Note_on_c, 0, 37, 110
2, 58050, Note_on_c, 0, 35, 110
2, 58054, Note_on_c, 0, 37, 0
2, 58080, Note_on_c, 0, 37, 127
2, 58086, Note_on_c, 0, 35, 0
2, 58116, Note_on_c, 0, 37, 0
2, 58140, Note_on_c, 0, 37, 110
2, 58154, Note_on_c, 0, 37, 0
2, 58170, Note_on_c, 0, 37, 110
2, 58183, Note_on_c, 0, 37, 0
2, 58200, Note_on_c, 0, 37, 127
2, 58228, Note_on_c, 0, 37, 0
2, 58260, Note_on_c, 0, 37, 110
2, 58276, Note_on_c, 0, 37, 0
2, 58290, Note_on_c, 0, 37, 110
2, 58304, Note_on_c, 0, 37, 0
2, 58320, Note_on_c, 0, 37, 127
2, 58358, Note_on_c, 0, 37, 0
2, 58380, Note_on_c, 0, 37, 110
2, 58396, Note_on_c, 0, 37, 0
2, 58410, Note_on_c, 0, 37, 110
2, 58423, Note_on_c, 0, 37, 0
2, 58440, Note_on_c, 0, 37, 127
2, 58476, Note_on_c, 0, 37, 0
2, 58500, Note_on_c, 0, 32, 110
2, 58525, Note_on_c, 0, 32, 0
2, 58530, Note_on_c, 0, 34, 110
2, 58560, Note_on_c, 0, 35, 127
2, 58570, Note_on_c, 0, 34, 0
2, 58592, Note_on_c, 0, 35, 0
2, 58620, Note_on_c, 0, 35, 110
2, 58636, Note_on_c, 0, 35, 0
2, 58650, Note_on_c, 0, 35, 110
2, 58668, Note_on_c, 0, 35, 0
2, 58680, Note_on_c, 0, 35, 127
2, 58707, Note_on_c, 0, 35, 0
2, 58740, Note_on_c, 0, 35, 110
2, 58755, Note_on_c, 0, 35, 0
2, 58770, Note_on_c, 0, 35, 110
2, 58785, Note_on_c, 0, 35, 0
2, 58800, Note_on_c, 0, 35, 127
2, 58839, Note_on_c, 0, 35, 0
2, 58860, Note_on_c, 0, 35, 110
2, 58876, Note_on_c, 0, 35, 0
2, 58890, Note_on_c, 0, 35, 110
2, 58905, Note_on_c, 0, 35, 0
2, 58920, Note_on_c, 0, 35, 127
2, 58951, Note_on_c, 0, 35, 0
2, 58980, Note_on_c, 0, 35, 110
2, 58995, Note_on_c, 0, 35, 0
2, 59010, Note_on_c, 0, 35, 110
2, 59040, Note_on_c, 0, 35, 0
2, 59040, Note_on_c, 0, 33, 127
2, 59068, Note_on_c, 0, 33, 0
2, 59100, Note_on_c, 0, 33, 110
2, 59112, Note_on_c, 0, 33, 0
2, 59130, Note_on_c, 0, 33, 110
2, 59141, Note_on_c, 0, 33, 0
2, 59160, Note_on_c, 0, 33, 127
2, 59190, Note_on_c, 0, 33, 0
2, 59220, Note_on_c, 0, 33, 110
2, 59233, Note_on_c, 0, 33, 0
2, 59250, Note_on_c, 0, 33, 110
2, 59265, Note_on_c, 0, 33, 0
2, 59280, Note_on_c, 0, 33, 127
2, 59310, Note_on_c, 0, 33, 0
2, 59340, Note_on_c, 0, 33, 110
2, 59356, Note_on_c, 0, 33, 0
2, 59370, Note_on_c, 0, 33, 110
2, 59387, Note_on_c, 0, 33, 0
2, 59400, Note_on_c, 0, 33, 127
2, 59431, Note_on_c, 0, 33, 0
2, 59460, Note_on_c, 0, 33, 110
2, 59476, Note_on_c, 0, 33, 0
2, 59490, Note_on_c, 0, 33, 110
2, 59513, Note_on_c, 0, 33, 0
2, 59520, Note_on_c, 0, 32, 127
2, 59542, Note_on_c, 0, 32, 0
2, 59580, Note_on_c, 0, 32, 110
2, 59595, Note_on_c, 0, 32, 0
2, 59610, Note_on_c, 0, 32, 110
2, 59639, Note_on_c, 0, 32, 0
2, 59640, Note_on_c, 0, 35, 127
2, 59670, Note_on_c, 0, 35, 0
2, 59700, Note_on_c, 0, 35, 110
2, 59717, Note_on_c, 0, 35, 0
2, 59730, Note_on_c, 0, 35, 110
2, 59760, Note_on_c, 0, 39, 127
2, 59765, Note_on_c, 0, 35, 0
2, 59784, Note_on_c, 0, 39, 0
2, 59820, Note_on_c, 0, 39, 110
2, 59836, Note_on_c, 0, 39, 0
2, 59850, Note_on_c, 0, 39, 110
2, 59880, Note_on_c, 0, 35, 127
2, 59886, Note_on_c, 0, 39, 0
2, 59903, Note_on_c, 0, 35, 0
2, 59940, Note_on_c, 0, 35, 110
2, 59954, Note_on_c, 0, 35, 0
2, 59970, Note_on_c, 0, 35, 110
2, 60000, Note_on_c, 0, 37, 127
2, 60005, Note_on_c, 0, 35, 0
2, 60028, Note_on_c, 0, 37, 0
2, 60060, Note_on_c, 0, 37, 110
2, 60076, Note_on_c, 0, 37, 0
2, 60090, Note_on_c, 0, 37, 110
2, 60105, Note_on_c, 0, 37, 0
2, 60120, Note_on_c, 0, 37, 127
2, 60156, Note_on_c, 0, 37, 0
2, 60180, Note_on_c, 0, 37, 110
2, 60196, Note_on_c, 0, 37, 0
2, 60210, Note_on_c, 0, 37, 110
2, 60235, Note_on_c, 0, 37, 0
2, 60240, Note_on_c, 0, 29, 127
2, 60275, Note_on_c, 0, 29, 0
2, 60300, Note_on_c, 0, 29, 110
2, 60314, Note_on_c, 0, 29, 0
2, 60330, Note_on_c, 0, 29, 110
2, 60342, Note_on_c, 0, 29, 0
2, 60360, Note_on_c, 0, 29, 127
2, 60394, Note_on_c, 0, 29, 0
2, 60420, Note_on_c, 0, 29, 110
2, 60449, Note_on_c, 0, 29, 0
2, 60450, Note_on_c, 0, 32, 110
2, 60480, Note_on_c, 0, 30, 127
2, 60483, Note_on_c, 0, 32, 0
2, 60515, Note_on_c, 0, 30, 0
2, 60540, Note_on_c, 0, 30, 110
2, 60555, Note_on_c, 0, 30, 0
2, 60570, Note_on_c, 0, 30, 110
2, 60583, Note_on_c, 0, 30, 0
2, 60600, Note_on_c, 0, 30, 127
2, 60627, Note_on_c, 0, 30, 0
2, 60660, Note_on_c, 0, 30, 110
2, 60673, Note_on_c, 0, 30, 0
2, 60690, Note_on_c, 0, 30, 110
2, 60703, Note_on_c, 0, 30, 0
2, 60720, Note_on_c, 0, 30, 127
2, 60747, Note_on_c, 0, 30, 0
2, 60780, Note_on_c, 0, 30, 110
2, 60794, Note_on_c, 0, 30, 0
2, 60810, Note_on_c, 0, 30, 110
2, 60824, Note_on_c, 0, 30, 0
2, 60840, Note_on_c, 0, 30, 127
2, 60871, Note_on_c, 0, 30, 0
2, 60900, Note_on_c, 0, 30, 110
2, 60914, Note_on_c, 0, 30, 0
2, 60930, Note_on_c, 0, 30, 110
2, 60947, Note_on_c, 0, 30, 0
2, 60960, Note_on_c, 0, 32, 127
2, 60990, Note_on_c, 0, 32, 0
2, 61020, Note_on_c, 0, 32, 110
2, 61035, Note_on_c, 0, 32, 0
2, 61050, Note_on_c, 0, 32, 110
2, 61078, Note_on_c, 0, 32, 0
2, 61080, Note_on_c, 0, 35, 127
2, 61111, Note_on_c, 0, 35, 0
2, 61140, Note_on_c, 0, 35, 110
2, 61155, Note_on_c, 0, 35, 0
2, 61170, Note_on_c, 0, 35, 110
2, 61200, Note_on_c, 0, 39, 127
2, 61204, Note_on_c, 0, 35, 0
2, 61230, Note_on_c, 0, 39, 0
2, 61260, Note_on_c, 0, 39, 110
2, 61276, Note_on_c, 0, 39, 0
2, 61290, Note_on_c, 0, 39, 110
2, 61320, Note_on_c, 0, 35, 127
2, 61322, Note_on_c, 0, 39, 0
2, 61348, Note_on_c, 0, 35, 0
2, 61380, Note_on_c, 0, 35, 110
2, 61395, Note_on_c, 0, 35, 0
2, 61410, Note_on_c, 0, 35, 110
2, 61440, Note_on_c, 0, 37, 127
2, 61447, Note_on_c, 0, 35, 0
2, 61484, Note_on_c, 0, 37, 0
2, 61500, Note_on_c, 0, 37, 110
2, 61515, Note_on_c, 0, 37, 0
2, 61530, Note_on_c, 0, 37, 110
2, 61546, Note_on_c, 0, 37, 0
2, 61560, Note_on_c, 0, 37, 127
2, 61599, Note_on_c, 0, 37, 0
2, 61620, Note_on_c, 0, 37, 110
2, 61635, Note_on_c, 0, 37, 0
2, 61650, Note_on_c, 0, 37, 110
2, 61667, Note_on_c, 0, 37, 0
2, 61680, Note_on_c, 0, 37, 127
2, 61712, Note_on_c, 0, 37, 0
2, 61740, Note_on_c, 0, 37, 110
2, 61755, Note_on_c, 0, 37, 0
2, 61770, Note_on_c, 0, 37, 110
2, 61785, Note_on_c, 0, 37, 0
2, 61800, Note_on_c, 0, 37, 127
2, 61828, Note_on_c, 0, 37, 0
2, 61860, Note_on_c, 0, 37, 110
2, 61890, Note_on_c, 0, 37, 0
2, 61890, Note_on_c, 0, 35, 110
2, 61920, Note_on_c, 0, 37, 127
2, 61932, Note_on_c, 0, 35, 0
2, 61965, Note_on_c, 0, 37, 0
2, 61980, Note_on_c, 0, 37, 110
2, 61994, Note_on_c, 0, 37, 0
2, 62010, Note_on_c, 0, 37, 110
2, 62029, Note_on_c, 0, 37, 0
2, 62040, Note_on_c, 0, 37, 127
2, 62081, Note_on_c, 0, 37, 0
2, 62100, Note_on_c, 0, 37, 110
2, 62115, Note_on_c, 0, 37, 0
2, 62130, Note_on_c, 0, 37, 110
2, 62146, Note_on_c, 0, 37, 0
2, 62160, Note_on_c, 0, 37, 127
2, 62190, Note_on_c, 0, 39, 110
2, 62202, Note_on_c, 0, 37, 0
2, 62220, Note_on_c, 0, 37, 110
2, 62232, Note_on_c, 0, 39, 0
2, 62235, Note_on_c, 0, 37, 0
2, 62250, Note_on_c, 0, 44, 110
2, 62266, Note_on_c, 0, 44, 0
2, 62280, Note_on_c, 0, 49, 127
2, 62310, Note_on_c, 0, 51, 110
2, 62325, Note_on_c, 0, 51, 0
2, 62325, Note_on_c, 0, 49, 0
2, 62340, Note_on_c, 0, 49, 110
2, 62355, Note_on_c, 0, 49, 0
2, 62370, Note_on_c, 0, 37, 110
2, 62386, Note_on_c, 0, 37, 0
2, 62400, Note_on_c, 0, 35, 127
2, 62433, Note_on_c, 0, 35, 0
2, 62460, Note_on_c, 0, 35, 110
2, 62476, Note_on_c, 0, 35, 0
2, 62490, Note_on_c, 0, 35, 110
2, 62504, Note_on_c, 0, 35, 0
2, 62520, Note_on_c, 0, 35, 127
2, 62559, Note_on_c, 0, 35, 0
2, 62580, Note_on_c, 0, 35, 110
2, 62595, Note_on_c, 0, 35, 0
2, 62610, Note_on_c, 0, 35, 110
2, 62626, Note_on_c, 0, 35, 0
2, 62640, Note_on_c, 0, 35, 127
2, 62674, Note_on_c, 0, 35, 0
2, 62700, Note_on_c, 0, 35, 110
2, 62715, Note_on_c, 0, 35, 0
2, 62730, Note_on_c, 0, 35, 110
2, 62746, Note_on_c, 0, 35, 0
2, 62760, Note_on_c, 0, 35, 127
2, 62793, Note_on_c, 0, 35, 0
2, 62820, Note_on_c, 0, 35, 110
2, 62834, Note_on_c, 0, 35, 0
2, 62850, Note_on_c, 0, 35, 110
2, 62878, Note_on_c, 0, 35, 0
2, 62880, Note_on_c, 0, 33, 127
2, 62910, Note_on_c, 0, 33, 0
2, 62940, Note_on_c, 0, 33, 110
2, 62953, Note_on_c, 0, 33, 0
2, 62970, Note_on_c, 0, 33, 110
2, 62984, Note_on_c, 0, 33, 0
2, 63000, Note_on_c, 0, 33, 127
2, 63027, Note_on_c, 0, 33, 0
2, 63060, Note_on_c, 0, 33, 110
2, 63075, Note_on_c, 0, 33, 0
2, 63090, Note_on_c, 0, 33, 110
2, 63105, Note_on_c, 0, 33, 0
2, 63120, Note_on_c, 0, 33, 127
2, 63142, Note_on_c, 0, 33, 0
2, 63180, Note_on_c, 0, 33, 110
2, 63197, Note_on_c, 0, 33, 0
2, 63210, Note_on_c, 0, 33, 110
2, 63225, Note_on_c, 0, 33, 0
2, 63240, Note_on_c, 0, 33, 127
2, 63270, Note_on_c, 0, 33, 0
2, 63300, Note_on_c, 0, 33, 110
2, 63313, Note_on_c, 0, 33, 0
2, 63330, Note_on_c, 0, 33, 110
2, 63357, Note_on_c, 0, 33, 0
2, 63360, Note_on_c, 0, 32, 127
2, 63387, Note_on_c, 0, 32, 0
2, 63420, Note_on_c, 0, 32, 110
2, 63434, Note_on_c, 0, 32, 0
2, 63450, Note_on_c, 0, 32, 110
2, 63478, Note_on_c, 0, 32, 0
2, 63480, Note_on_c, 0, 35, 127
2, 63509, Note_on_c, 0, 35, 0
2, 63540, Note_on_c, 0, 35, 110
2, 63553, Note_on_c, 0, 35, 0
2, 63570, Note_on_c, 0, 35, 110
2, 63600, Note_on_c, 0, 39, 127
2, 63608, Note_on_c, 0, 35, 0
2, 63632, Note_on_c, 0, 39, 0
2, 63660, Note_on_c, 0, 39, 110
2, 63676, Note_on_c, 0, 39, 0
2, 63690, Note_on_c, 0, 39, 110
2, 63720, Note_on_c, 0, 35, 127
2, 63725, Note_on_c, 0, 39, 0
2, 63747, Note_on_c, 0, 35, 0
2, 63780, Note_on_c, 0, 35, 110
2, 63795, Note_on_c, 0, 35, 0
2, 63810, Note_on_c, 0, 35, 110
2, 63840, Note_on_c, 0, 37, 127
2, 63844, Note_on_c, 0, 35, 0
2, 63878, Note_on_c, 0, 37, 0
2, 63900, Note_on_c, 0, 37, 110
2, 63915, Note_on_c, 0, 37, 0
2, 63930, Note_on_c, 0, 37, 110
2, 63947, Note_on_c, 0, 37, 0
2, 63960, Note_on_c, 0, 37, 127
2, 63994, Note_on_c, 0, 37, 0
2, 64020, Note_on_c, 0, 37, 110
2, 64036, Note_on_c, 0, 37, 0
2, 64050, Note_on_c, 0, 37, 110
2, 64075, Note_on_c, 0, 37, 0
2, 64080, Note_on_c, 0, 29, 127
2, 64109, Note_on_c, 0, 29, 0
2, 64140, Note_on_c, 0, 29, 110
2, 64154, Note_on_c, 0, 29, 0
2, 64170, Note_on_c, 0, 29, 110
2, 64182, Note_on_c, 0, 29, 0
2, 64200, Note_on_c, 0, 29, 127
2, 64232, Note_on_c, 0, 29, 0
2, 64260, Note_on_c, 0, 29, 110
2, 64288, Note_on_c, 0, 29, 0
2, 64290, Note_on_c, 0, 32, 110
2, 64315, Note_on_c, 0, 32, 0
2, 64320, Note_on_c, 0, 30, 127
2, 64354, Note_on_c, 0, 30, 0
2, 64380, Note_on_c, 0, 30, 110
2, 64395, Note_on_c, 0, 30, 0
2, 64410, Note_on_c, 0, 30, 110
2, 64423, Note_on_c, 0, 30, 0
2, 64440, Note_on_c, 0, 30, 127
2, 64473, Note_on_c, 0, 30, 0
2, 64500, Note_on_c, 0, 30, 110
2, 64512, Note_on_c, 0, 30, 0
2, 64530, Note_on_c, 0, 30, 110
2, 64546, Note_on_c, 0, 30, 0
2, 64560, Note_on_c, 0, 30, 127
2, 64591, Note_on_c, 0, 30, 0
2, 64620, Note_on_c, 0, 30, 110
2, 64634, Note_on_c, 0, 30, 0
2, 64650, Note_on_c, 0, 30, 110
2, 64665, Note_on_c, 0, 30, 0
2, 64680, Note_on_c, 0, 30, 127
2, 64716, Note_on_c, 0, 30, 0
2, 64740, Note_on_c, 0, 30, 110
2, 64754, Note_on_c, 0, 30, 0
2, 64770, Note_on_c, 0, 30, 110
2, 64794, Note_on_c, 0, 30, 0
2, 64800, Note_on_c, 0, 32, 127
2, 64830, Note_on_c, 0, 32, 0
2, 64860, Note_on_c, 0, 32, 110
2, 64875, Note_on_c, 0, 32, 0
2, 64890, Note_on_c, 0, 32, 110
2, 64906, Note_on_c, 0, 32, 0
2, 64920, Note_on_c, 0, 32, 127
2, 64949, Note_on_c, 0, 32, 0
2, 64980, Note_on_c, 0, 32, 110
2, 64992, Note_on_c, 0, 32, 0
2, 65010, Note_on_c, 0, 32, 110
2, 65021, Note_on_c, 0, 32, 0
2, 65040, Note_on_c, 0, 32, 127
2, 65065, Note_on_c, 0, 32, 0
2, 65100, Note_on_c, 0, 32, 110
2, 65113, Note_on_c, 0, 32, 0
2, 65130, Note_on_c, 0, 32, 110
2, 65143, Note_on_c, 0, 32, 0
2, 65160, Note_on_c, 0, 32, 127
2, 65184, Note_on_c, 0, 32, 0
2, 65220, Note_on_c, 0, 32, 110
2, 65247, Note_on_c, 0, 32, 0
2, 65250, Note_on_c, 0, 35, 110
2, 65280, Note_on_c, 0, 37, 127
2, 65283, Note_on_c, 0, 35, 0
2, 65320, Note_on_c, 0, 37, 0
2, 65340, Note_on_c, 0, 37, 110
2, 65352, Note_on_c, 0, 37, 0
2, 65370, Note_on_c, 0, 37, 110
2, 65384, Note_on_c, 0, 37, 0
2, 65400, Note_on_c, 0, 37, 127
2, 65435, Note_on_c, 0, 37, 0
2, 65460, Note_on_c, 0, 37, 110
2, 65477, Note_on_c, 0, 37, 0
2, 65490, Note_on_c, 0, 37, 110
2, 65505, Note_on_c, 0, 37, 0
2, 65520, Note_on_c, 0, 37, 127
2, 65546, Note_on_c, 0, 37, 0
2, 65580, Note_on_c, 0, 37, 110
2, 65596, Note_on_c, 0, 37, 0
2, 65610, Note_on_c, 0, 37, 110
2, 65624, Note_on_c, 0, 37, 0
2, 65640, Note_on_c, 0, 37, 127
2, 65660, Note_on_c, 0, 37, 0
2, 65700, Note_on_c, 0, 37, 110
2, 65730, Note_on_c, 0, 35, 110
2, 65734, Note_on_c, 0, 37, 0
2, 65760, Note_on_c, 0, 37, 127
2, 65766, Note_on_c, 0, 35, 0
2, 65796, Note_on_c, 0, 37, 0
2, 65820, Note_on_c, 0, 37, 110
2, 65834, Note_on_c, 0, 37, 0
2, 65850, Note_on_c, 0, 37, 110
2, 65863, Note_on_c, 0, 37, 0
2, 65880, Note_on_c, 0, 37, 127
2, 65908, Note_on_c, 0, 37, 0
2, 65940, Note_on_c, 0, 37, 110
2, 65956, Note_on_c, 0, 37, 0
2, 65970, Note_on_c, 0, 37, 110
2, 65984, Note_on_c, 0, 37, 0
2, 66000, Note_on_c, 0, 37, 127
2, 66038, Note_on_c, 0, 37, 0
2, 66060, Note_on_c, 0, 37, 110
2, 66076, Note_on_c, 0, 37, 0
2, 66090, Note_on_c, 0, 37, 110
2, 66103, Note_on_c, 0, 37, 0
2, 66120, Note_on_c, 0, 37, 127
2, 66156, Note_on_c, 0, 37, 0
2, 66180, Note_on_c, 0, 32, 110
2, 66205, Note_on_c, 0, 32, 0
2, 66210, Note_on_c, 0, 34, 110
2, 66240, Control_c, 0, 7, 127
2, 66240, Note_on_c, 0, 35, 127
2, 66250, Note_on_c, 0, 34, 0
2, 66250, Control_c, 0, 7, 126
2, 66272, Note_on_c, 0, 35, 0
2, 66280, Control_c, 0, 7, 125
2, 66300, Note_on_c, 0, 35, 126
2, 66310, Control_c, 0, 7, 124
2, 66316, Note_on_c, 0, 35, 0
2, 66330, Note_on_c, 0, 35, 125
2, 66340, Control_c, 0, 7, 123
2, 66348, Note_on_c, 0, 35, 0
2, 66360, Note_on_c, 0, 35, 124
2, 66370, Control_c, 0, 7, 122
2, 66387, Note_on_c, 0, 35, 0
2, 66400, Control_c, 0, 7, 121
2, 66420, Note_on_c, 0, 35, 122
2, 66430, Control_c, 0, 7, 120
2, 66435, Note_on_c, 0, 35, 0
2, 66450, Note_on_c, 0, 35, 121
2, 66460, Control_c, 0, 7, 119
2, 66465, Note_on_c, 0, 35, 0
2, 66480, Note_on_c, 0, 35, 120
2, 66490, Control_c, 0, 7, 118
2, 66519, Note_on_c, 0, 35, 0
2, 66520, Control_c, 0, 7, 117
2, 66540, Note_on_c, 0, 35, 118
2, 66550, Control_c, 0, 7, 116
2, 66556, Note_on_c, 0, 35, 0
2, 66570, Note_on_c, 0, 35, 117
2, 66580, Control_c, 0, 7, 115
2, 66585, Note_on_c, 0, 35, 0
2, 66600, Note_on_c, 0, 35, 116
2, 66610, Control_c, 0, 7, 114
2, 66631, Note_on_c, 0, 35, 0
2, 66640, Control_c, 0, 7, 113
2, 66660, Note_on_c, 0, 35, 114
2, 66670, Control_c, 0, 7, 112
2, 66675, Note_on_c, 0, 35, 0
2, 66690, Note_on_c, 0, 35, 113
2, 66700, Control_c, 0, 7, 111
2, 66720, Note_on_c, 0, 35, 0
2, 66720, Note_on_c, 0, 33, 112
2, 66730, Control_c, 0, 7, 110
2, 66748, Note_on_c, 0, 33, 0
2, 66760, Control_c, 0, 7, 109
2, 66780, Note_on_c, 0, 33, 110
2, 66790, Control_c, 0, 7, 108
2, 66792, Note_on_c, 0, 33, 0
2, 66810, Note_on_c, 0, 33, 109
2, 66820, Control_c, 0, 7, 107
2, 66821, Note_on_c, 0, 33, 0
2, 66840, Note_on_c, 0, 33, 108
2, 66850, Control_c, 0, 7, 106
2, 66870, Note_on_c, 0, 33, 0
2, 66880, Control_c, 0, 7, 105
2, 66900, Note_on_c, 0, 33, 106
2, 66910, Control_c, 0, 7, 104
2, 66913, Note_on_c, 0, 33, 0
2, 66930, Note_on_c, 0, 33, 105
2, 66940, Control_c, 0, 7, 103
2, 66945, Note_on_c, 0, 33, 0
2, 66960, Note_on_c, 0, 33, 104
2, 66970, Control_c, 0, 7, 102
2, 66990, Note_on_c, 0, 33, 0
2, 67000, Control_c, 0, 7, 101
2, 67020, Note_on_c, 0, 33, 102
2, 67036, Note_on_c, 0, 33, 0
2, 67040, Control_c, 0, 7, 100
2, 67050, Note_on_c, 0, 33, 101
2, 67067, Note_on_c, 0, 33, 0
2, 67070, Control_c, 0, 7, 99
2, 67080, Note_on_c, 0, 33, 100
2, 67100, Control_c, 0, 7, 98
2, 67111, Note_on_c, 0, 33, 0
2, 67130, Control_c, 0, 7, 97
2, 67140, Note_on_c, 0, 33, 98
2, 67156, Note_on_c, 0, 33, 0
2, 67160, Control_c, 0, 7, 96
2, 67170, Note_on_c, 0, 33, 97
2, 67190, Control_c, 0, 7, 95
2, 67193, Note_on_c, 0, 33, 0
2, 67200, Note_on_c, 0, 32, 96
2, 67220, Control_c, 0, 7, 94
2, 67222, Note_on_c, 0, 32, 0
2, 67250, Control_c, 0, 7, 93
2, 67260, Note_on_c, 0, 32, 94
2, 67275, Note_on_c, 0, 32, 0
2, 67280, Control_c, 0, 7, 92
2, 67290, Note_on_c, 0, 32, 93
2, 67310, Control_c, 0, 7, 91
2, 67319, Note_on_c, 0, 32, 0
2, 67320, Note_on_c, 0, 35, 92
2, 67340, Control_c, 0, 7, 90
2, 67350, Note_on_c, 0, 35, 0
2, 67370, Control_c, 0, 7, 89
2, 67380, Note_on_c, 0, 35, 90
2, 67397, Note_on_c, 0, 35, 0
2, 67400, Control_c, 0, 7, 88
2, 67410, Note_on_c, 0, 35, 89
2, 67430, Control_c, 0, 7, 87
2, 67440, Note_on_c, 0, 39, 88
2, 67445, Note_on_c, 0, 35, 0
2, 67460, Control_c, 0, 7, 86
2, 67464, Note_on_c, 0, 39, 0
2, 67490, Control_c, 0, 7, 85
2, 67500, Note_on_c, 0, 39, 86
2, 67516, Note_on_c, 0, 39, 0
2, 67520, Control_c, 0, 7, 84
2, 67530, Note_on_c, 0, 39, 85
2, 67550, Control_c, 0, 7, 83
2, 67560, Note_on_c, 0, 35, 84
2, 67566, Note_on_c, 0, 39, 0
2, 67580, Control_c, 0, 7, 82
2, 67583, Note_on_c, 0, 35, 0
2, 67610, Control_c, 0, 7, 81
2, 67620, Note_on_c, 0, 35, 82
2, 67634, Note_on_c, 0, 35, 0
2, 67640, Control_c, 0, 7, 80
2, 67650, Note_on_c, 0, 35, 81
2, 67670, Control_c, 0, 7, 79
2, 67680, Note_on_c, 0, 37, 80
2, 67685, Note_on_c, 0, 35, 0
2, 67700, Control_c, 0, 7, 78
2, 67708, Note_on_c, 0, 37, 0
2, 67730, Control_c, 0, 7, 77
2, 67740, Note_on_c, 0, 37, 78
2, 67756, Note_on_c, 0, 37, 0
2, 67760, Control_c, 0, 7, 76
2, 67770, Note_on_c, 0, 37, 77
2, 67785, Note_on_c, 0, 37, 0
2, 67800, Control_c, 0, 7, 75
2, 67800, Note_on_c, 0, 37, 76
2, 67830, Control_c, 0, 7, 74
2, 67836, Note_on_c, 0, 37, 0
2, 67860, Control_c, 0, 7, 73
2, 67860, Note_on_c, 0, 37, 74
2, 67876, Note_on_c, 0, 37, 0
2, 67890, Control_c, 0, 7, 72
2, 67890, Note_on_c, 0, 37, 73
2, 67915, Note_on_c, 0, 37, 0
2, 67920, Control_c, 0, 7, 71
2, 67920, Note_on_c, 0, 29, 72
2, 67950, Control_c, 0, 7, 70
2, 67955, Note_on_c, 0, 29, 0
2, 67980, Control_c, 0, 7, 69
2, 67980, Note_on_c, 0, 29, 70
2, 67994, Note_on_c, 0, 29, 0
2, 68010, Control_c, 0, 7, 68
2, 68010, Note_on_c, 0, 29, 69
2, 68022, Note_on_c, 0, 29, 0
2, 68040, Control_c, 0, 7, 67
2, 68040, Note_on_c, 0, 29, 68
2, 68070, Control_c, 0, 7, 66
2, 68074, Note_on_c, 0, 29, 0
2, 68100, Control_c, 0, 7, 65
2, 68100, Note_on_c, 0, 29, 66
2, 68129, Note_on_c, 0, 29, 0
2, 68130, Control_c, 0, 7, 64
2, 68130, Note_on_c, 0, 32, 65
2, 68160, Control_c, 0, 7, 63
2, 68160, Note_on_c, 0, 30, 64
2, 68163, Note_on_c, 0, 32, 0
2, 68190, Control_c, 0, 7, 62
2, 68195, Note_on_c, 0, 30, 0
2, 68220, Control_c, 0, 7, 61
2, 68220, Note_on_c, 0, 30, 62
2, 68235, Note_on_c, 0, 30, 0
2, 68250, Control_c, 0, 7, 60
2, 68250, Note_on_c, 0, 30, 61
2, 68263, Note_on_c, 0, 30, 0
2, 68280, Control_c, 0, 7, 59
2, 68280, Note_on_c, 0, 30, 60
2, 68307, Note_on_c, 0, 30, 0
2, 68310, Control_c, 0, 7, 58
2, 68340, Control_c, 0, 7, 57
2, 68340, Note_on_c, 0, 30, 58
2, 68353, Note_on_c, 0, 30, 0
2, 68370, Control_c, 0, 7, 56
2, 68370, Note_on_c, 0, 30, 57
2, 68383, Note_on_c, 0, 30, 0
2, 68400, Control_c, 0, 7, 55
2, 68400, Note_on_c, 0, 30, 56
2, 68427, Note_on_c, 0, 30, 0
2, 68430, Control_c, 0, 7, 54
2, 68460, Control_c, 0, 7, 53
2, 68460, Note_on_c, 0, 30, 54
2, 68474, Note_on_c, 0, 30, 0
2, 68490, Control_c, 0, 7, 52
2, 68490, Note_on_c, 0, 30, 53
2, 68504, Note_on_c, 0, 30, 0
2, 68520, Control_c, 0, 7, 51
2, 68520, Note_on_c, 0, 30, 52
2, 68551, Note_on_c, 0, 30, 0
2, 68560, Control_c, 0, 7, 50
2, 68580, Note_on_c, 0, 30, 50
2, 68590, Control_c, 0, 7, 49
2, 68594, Note_on_c, 0, 30, 0
2, 68610, Note_on_c, 0, 30, 49
2, 68620, Control_c, 0, 7, 48
2, 68627, Note_on_c, 0, 30, 0
2, 68640, Note_on_c, 0, 32, 48
2, 68650, Control_c, 0, 7, 47
2, 68670, Note_on_c, 0, 32, 0
2, 68680, Control_c, 0, 7, 46
2, 68700, Note_on_c, 0, 32, 46
2, 68710, Control_c, 0, 7, 45
2, 68715, Note_on_c, 0, 32, 0
2, 68730, Note_on_c, 0, 32, 45
2, 68740, Control_c, 0, 7, 44
2, 68758, Note_on_c, 0, 32, 0
2, 68760, Note_on_c, 0, 35, 44
2, 68770, Control_c, 0, 7, 43
2, 68791, Note_on_c, 0, 35, 0
2, 68800, Control_c, 0, 7, 42
2, 68820, Note_on_c, 0, 35, 42
2, 68830, Control_c, 0, 7, 41
2, 68835, Note_on_c, 0, 35, 0
2, 68850, Note_on_c, 0, 35, 41
2, 68860, Control_c, 0, 7, 40
2, 68880, Note_on_c, 0, 39, 40
2, 68884, Note_on_c, 0, 35, 0
2, 68890, Control_c, 0, 7, 39
2, 68910, Note_on_c, 0, 39, 0
2, 68920, Control_c, 0, 7, 38
2, 68940, Note_on_c, 0, 39, 38
2, 68950, Control_c, 0, 7, 37
2, 68956, Note_on_c, 0, 39, 0
2, 68970, Note_on_c, 0, 39, 37
2, 68980, Control_c, 0, 7, 36
2, 69000, Note_on_c, 0, 35, 36
2, 69002, Note_on_c, 0, 39, 0
2, 69010, Control_c, 0, 7, 35
2, 69028, Note_on_c, 0, 35, 0
2, 69040, Control_c, 0, 7, 34
2, 69060, Note_on_c, 0, 35, 34
2, 69070, Control_c, 0, 7, 33
2, 69075, Note_on_c, 0, 35, 0
2, 69090, Note_on_c, 0, 35, 33
2, 69100, Control_c, 0, 7, 32
2, 69120, Note_on_c, 0, 37, 32
2, 69127, Note_on_c, 0, 35, 0
2, 69130, Control_c, 0, 7, 31
2, 69160, Control_c, 0, 7, 30
2, 69164, Note_on_c, 0, 37, 0
2, 69180, Note_on_c, 0, 37, 30
2, 69190, Control_c, 0, 7, 29
2, 69195, Note_on_c, 0, 37, 0
2, 69210, Note_on_c, 0, 37, 29
2, 69220, Control_c, 0, 7, 28
2, 69226, Note_on_c, 0, 37, 0
2, 69240, Note_on_c, 0, 37, 28
2, 69250, Control_c, 0, 7, 27
2, 69279, Note_on_c, 0, 37, 0
2, 69280, Control_c, 0, 7, 26
2, 69300, Note_on_c, 0, 37, 26
2, 69315, Note_on_c, 0, 37, 0
2, 69320, Control_c, 0, 7, 25
2, 69330, Note_on_c, 0, 37, 25
2, 69347, Note_on_c, 0, 37, 0
2, 69350, Control_c, 0, 7, 24
2, 69360, Note_on_c, 0, 37, 24
2, 69380, Control_c, 0, 7, 23
2, 69392, Note_on_c, 0, 37, 0
2, 69410, Control_c, 0, 7, 22
2, 69420, Note_on_c, 0, 37, 22
2, 69435, Note_on_c, 0, 37, 0
2, 69440, Control_c, 0, 7, 21
2, 69450, Note_on_c, 0, 37, 21
2, 69465, Note_on_c, 0, 37, 0
2, 69470, Control_c, 0, 7, 20
2, 69480, Note_on_c, 0, 37, 20
2, 69500, Control_c, 0, 7, 19
2, 69508, Note_on_c, 0, 37, 0
2, 69530, Control_c, 0, 7, 18
2, 69540, Note_on_c, 0, 37, 18
2, 69560, Control_c, 0, 7, 17
2, 69570, Note_on_c, 0, 37, 0
2, 69570, Note_on_c, 0, 35, 17
2, 69590, Control_c, 0, 7, 16
2, 69600, Note_on_c, 0, 37, 16
2, 69612, Note_on_c, 0, 35, 0
2, 69620, Control_c, 0, 7, 15
2, 69645, Note_on_c, 0, 37, 0
2, 69650, Control_c, 0, 7, 14
2, 69660, Note_on_c, 0, 37, 14
2, 69674, Note_on_c, 0, 37, 0
2, 69680, Control_c, 0, 7, 13
2, 69690, Note_on_c, 0, 37, 13
2, 69709, Note_on_c, 0, 37, 0
2, 69710, Control_c, 0, 7, 12
2, 69720, Note_on_c, 0, 37, 12
2, 69740, Control_c, 0, 7, 11
2, 69761, Note_on_c, 0, 37, 0
2, 69770, Control_c, 0, 7, 10
2, 69780, Note_on_c, 0, 37, 10
2, 69795, Note_on_c, 0, 37, 0
2, 69800, Control_c, 0, 7, 9
2, 69810, Note_on_c, 0, 37, 9
2, 69826, Note_on_c, 0, 37, 0
2, 69830, Control_c, 0, 7, 8
2, 69840, Note_on_c, 0, 37, 8
2, 69860, Control_c, 0, 7, 7
2, 69882, Note_on_c, 0, 37, 0
2, 69890, Control_c, 0, 7, 6
2, 69900, Note_on_c, 0, 37, 6
2, 69915, Note_on_c, 0, 37, 0
2, 69920, Control_c, 0, 7, 5
2, 69930, Note_on_c, 0, 37, 5
2, 69946, Note_on_c, 0, 37, 0
2, 69950, Control_c, 0, 7, 4
2, 69960, Note_on_c, 0, 37, 4
2, 69980, Control_c, 0, 7, 3
2, 70005, Note_on_c, 0, 37, 0
2, 70010, Control_c, 0, 7, 2
2, 70020, Note_on_c, 0, 37, 2
2, 70035, Note_on_c, 0, 37, 0
2, 70040, Control_c, 0, 7, 1
2, 70050, Note_on_c, 0, 37, 1
2, 70066, Note_on_c, 0, 37, 0
2, 70066, End_track
3, 0, Start_track
3, 0, MIDI_port, 0
3, 0, Title_t, "Drums"
3, 0, Control_c, 9, 0, 62
3, 0, Control_c, 9, 32, 0
3, 0, Program_c, 9, 0
3, 0, Control_c, 9, 7, 85
3, 0, Control_c, 9, 10, 64
3, 240, Note_on_c, 9, 40, 85
3, 270, Note_on_c, 9, 40, 0
3, 270, Note_on_c, 9, 36, 99
3, 330, Note_on_c, 9, 36, 0
3, 330, Note_on_c, 9, 36, 66
3, 360, Note_on_c, 9, 36, 0
3, 360, Note_on_c, 9, 40, 113
3, 360, Note_on_c, 9, 40, 104
3, 390, Note_on_c, 9, 40, 0
3, 390, Note_on_c, 9, 45, 85
3, 420, Note_on_c, 9, 45, 0
3, 420, Note_on_c, 9, 40, 0
3, 420, Note_on_c, 9, 36, 80
3, 420, Note_on_c, 9, 43, 83
3, 450, Note_on_c, 9, 43, 0
3, 450, Note_on_c, 9, 36, 0
3, 450, Note_on_c, 9, 40, 99
3, 480, Note_on_c, 9, 40, 0
3, 480, Note_on_c, 9, 36, 107
3, 480, Note_on_c, 9, 46, 104
3, 540, Note_on_c, 9, 46, 0
3, 540, Note_on_c, 9, 36, 0
3, 540, Note_on_c, 9, 44, 60
3, 570, Note_on_c, 9, 44, 0
3, 570, Note_on_c, 9, 42, 104
3, 600, Note_on_c, 9, 42, 0
3, 600, Note_on_c, 9, 40, 117
3, 600, Note_on_c, 9, 46, 109
3, 660, Note_on_c, 9, 46, 0
3, 660, Note_on_c, 9, 40, 0
3, 660, Note_on_c, 9, 44, 64
3, 690, Note_on_c, 9, 44, 0
3, 690, Note_on_c, 9, 42, 104
3, 720, Note_on_c, 9, 42, 0
3, 720, Note_on_c, 9, 36, 53
3, 720, Note_on_c, 9, 46, 104
3, 780, Note_on_c, 9, 46, 0
3, 780, Note_on_c, 9, 44, 79
3, 810, Note_on_c, 9, 44, 0
3, 810, Note_on_c, 9, 36, 0
3, 810, Note_on_c, 9, 42, 104
3, 840, Note_on_c, 9, 42, 0
3, 840, Note_on_c, 9, 40, 117
3, 840, Note_on_c, 9, 46, 114
3, 900, Note_on_c, 9, 46, 0
3, 900, Note_on_c, 9, 40, 0
3, 900, Note_on_c, 9, 36, 79
3, 900, Note_on_c, 9, 44, 84
3, 930, Note_on_c, 9, 44, 0
3, 930, Note_on_c, 9, 36, 0
3, 930, Note_on_c, 9, 42, 100
3, 960, Note_on_c, 9, 42, 0
3, 960, Note_on_c, 9, 36, 117
3, 960, Note_on_c, 9, 46, 119
3, 1020, Note_on_c, 9, 46, 0
3, 1020, Note_on_c, 9, 36, 0
3, 1020, Note_on_c, 9, 44, 75
3, 1050, Note_on_c, 9, 44, 0
3, 1050, Note_on_c, 9, 42, 110
3, 1080, Note_on_c, 9, 42, 0
3, 1080, Note_on_c, 9, 40, 110
3, 1080, Note_on_c, 9, 42, 100
3, 1080, Note_on_c, 9, 46, 92
3, 1110, Note_on_c, 9, 46, 0
3, 1110, Note_on_c, 9, 42, 0
3, 1140, Note_on_c, 9, 40, 0
3, 1140, Note_on_c, 9, 44, 81
3, 1170, Note_on_c, 9, 44, 0
3, 1170, Note_on_c, 9, 42, 96
3, 1200, Note_on_c, 9, 42, 0
3, 1200, Note_on_c, 9, 36, 113
3, 1200, Note_on_c, 9, 46, 100
3, 1230, Note_on_c, 9, 46, 0
3, 1260, Note_on_c, 9, 44, 89
3, 1290, Note_on_c, 9, 44, 0
3, 1290, Note_on_c, 9, 36, 0
3, 1290, Note_on_c, 9, 42, 92
3, 1320, Note_on_c, 9, 42, 0
3, 1320, Note_on_c, 9, 40, 110
3, 1320, Note_on_c, 9, 46, 109
3, 1350, Note_on_c, 9, 46, 0
3, 1380, Note_on_c, 9, 40, 0
3, 1380, Note_on_c, 9, 36, 88
3, 1380, Note_on_c, 9, 44, 77
3, 1410, Note_on_c, 9, 44, 0
3, 1410, Note_on_c, 9, 36, 0
3, 1410, Note_on_c, 9, 42, 92
3, 1440, Note_on_c, 9, 42, 0
3, 1440, Note_on_c, 9, 36, 110
3, 1440, Note_on_c, 9, 46, 114
3, 1470, Note_on_c, 9, 46, 0
3, 1500, Note_on_c, 9, 36, 0
3, 1500, Note_on_c, 9, 44, 77
3, 1530, Note_on_c, 9, 44, 0
3, 1530, Note_on_c, 9, 42, 96
3, 1560, Note_on_c, 9, 42, 0
3, 1560, Note_on_c, 9, 40, 110
3, 1560, Note_on_c, 9, 42, 38
3, 1560, Note_on_c, 9, 46, 109
3, 1590, Note_on_c, 9, 46, 0
3, 1590, Note_on_c, 9, 42, 0
3, 1620, Note_on_c, 9, 44, 86
3, 1650, Note_on_c, 9, 44, 0
3, 1650, Note_on_c, 9, 40, 0
3, 1650, Note_on_c, 9, 42, 100
3, 1680, Note_on_c, 9, 42, 0
3, 1680, Note_on_c, 9, 36, 110
3, 1680, Note_on_c, 9, 46, 109
3, 1710, Note_on_c, 9, 46, 0
3, 1740, Note_on_c, 9, 44, 92
3, 1770, Note_on_c, 9, 44, 0
3, 1770, Note_on_c, 9, 36, 0
3, 1770, Note_on_c, 9, 42, 100
3, 1800, Note_on_c, 9, 42, 0
3, 1800, Note_on_c, 9, 40, 110
3, 1800, Note_on_c, 9, 46, 114
3, 1830, Note_on_c, 9, 46, 0
3, 1860, Note_on_c, 9, 40, 0
3, 1860, Note_on_c, 9, 36, 70
3, 1860, Note_on_c, 9, 44, 84
3, 1890, Note_on_c, 9, 44, 0
3, 1890, Note_on_c, 9, 36, 0
3, 1890, Note_on_c, 9, 42, 100
3, 1920, Note_on_c, 9, 42, 0
3, 1920, Note_on_c, 9, 36, 120
3, 1920, Note_on_c, 9, 46, 109
3, 1950, Note_on_c, 9, 46, 0
3, 1980, Note_on_c, 9, 44, 84
3, 2010, Note_on_c, 9, 44, 0
3, 2010, Note_on_c, 9, 36, 0
3, 2010, Note_on_c, 9, 42, 89
3, 2040, Note_on_c, 9, 42, 0
3, 2040, Note_on_c, 9, 40, 113
3, 2040, Note_on_c, 9, 46, 114
3, 2070, Note_on_c, 9, 46, 0
3, 2100, Note_on_c, 9, 44, 92
3, 2130, Note_on_c, 9, 44, 0
3, 2130, Note_on_c, 9, 40, 0
3, 2130, Note_on_c, 9, 42, 96
3, 2160, Note_on_c, 9, 42, 0
3, 2160, Note_on_c, 9, 36, 113
3, 2160, Note_on_c, 9, 46, 114
3, 2190, Note_on_c, 9, 46, 0
3, 2220, Note_on_c, 9, 44, 100
3, 2250, Note_on_c, 9, 44, 0
3, 2250, Note_on_c, 9, 36, 0
3, 2250, Note_on_c, 9, 42, 100
3, 2280, Note_on_c, 9, 42, 0
3, 2280, Note_on_c, 9, 40, 110
3, 2280, Note_on_c, 9, 46, 114
3, 2310, Note_on_c, 9, 46, 0
3, 2340, Note_on_c, 9, 40, 0
3, 2340, Note_on_c, 9, 36, 74
3, 2340, Note_on_c, 9, 44, 100
3, 2370, Note_on_c, 9, 44, 0
3, 2370, Note_on_c, 9, 36, 0
3, 2370, Note_on_c, 9, 42, 109
3, 2400, Note_on_c, 9, 42, 0
3, 2400, Note_on_c, 9, 36, 113
3, 2400, Note_on_c, 9, 46, 109
3, 2430, Note_on_c, 9, 46, 0
3, 2460, Note_on_c, 9, 36, 0
3, 2460, Note_on_c, 9, 44, 96
3, 2490, Note_on_c, 9, 44, 0
3, 2490, Note_on_c, 9, 42, 100
3, 2520, Note_on_c, 9, 42, 0
3, 2520, Note_on_c, 9, 40, 110
3, 2520, Note_on_c, 9, 46, 114
3, 2550, Note_on_c, 9, 46, 0
3, 2580, Note_on_c, 9, 44, 92
3, 2610, Note_on_c, 9, 44, 0
3, 2610, Note_on_c, 9, 40, 0
3, 2610, Note_on_c, 9, 42, 100
3, 2640, Note_on_c, 9, 42, 0
3, 2640, Note_on_c, 9, 36, 120
3, 2640, Note_on_c, 9, 46, 114
3, 2670, Note_on_c, 9, 46, 0
3, 2700, Note_on_c, 9, 44, 96
3, 2730, Note_on_c, 9, 44, 0
3, 2730, Note_on_c, 9, 36, 0
3, 2730, Note_on_c, 9, 42, 100
3, 2760, Note_on_c, 9, 42, 0
3, 2760, Note_on_c, 9, 40, 117
3, 2760, Note_on_c, 9, 46, 100
3, 2790, Note_on_c, 9, 46, 0
3, 2820, Note_on_c, 9, 40, 0
3, 2820, Note_on_c, 9, 36, 92
3, 2820, Note_on_c, 9, 44, 89
3, 2850, Note_on_c, 9, 44, 0
3, 2850, Note_on_c, 9, 36, 0
3, 2850, Note_on_c, 9, 42, 92
3, 2880, Note_on_c, 9, 42, 0
3, 2880, Note_on_c, 9, 36, 110
3, 2880, Note_on_c, 9, 46, 104
3, 2910, Note_on_c, 9, 46, 0
3, 2940, Note_on_c, 9, 36, 0
3, 2940, Note_on_c, 9, 44, 81
3, 2970, Note_on_c, 9, 44, 0
3, 2970, Note_on_c, 9, 42, 96
3, 3000, Note_on_c, 9, 42, 0
3, 3000, Note_on_c, 9, 40, 110
3, 3000, Note_on_c, 9, 46, 109
3, 3030, Note_on_c, 9, 46, 0
3, 3060, Note_on_c, 9, 40, 0
3, 3060, Note_on_c, 9, 44, 81
3, 3090, Note_on_c, 9, 44, 0
3, 3090, Note_on_c, 9, 42, 96
3, 3120, Note_on_c, 9, 42, 0
3, 3120, Note_on_c, 9, 36, 120
3, 3120, Note_on_c, 9, 46, 109
3, 3150, Note_on_c, 9, 46, 0
3, 3180, Note_on_c, 9, 36, 0
3, 3180, Note_on_c, 9, 44, 92
3, 3210, Note_on_c, 9, 44, 0
3, 3210, Note_on_c, 9, 42, 86
3, 3240, Note_on_c, 9, 42, 0
3, 3240, Note_on_c, 9, 40, 120
3, 3240, Note_on_c, 9, 46, 109
3, 3270, Note_on_c, 9, 46, 0
3, 3300, Note_on_c, 9, 40, 0
3, 3300, Note_on_c, 9, 36, 59
3, 3300, Note_on_c, 9, 44, 92
3, 3330, Note_on_c, 9, 44, 0
3, 3330, Note_on_c, 9, 36, 0
3, 3330, Note_on_c, 9, 42, 104
3, 3360, Note_on_c, 9, 42, 0
3, 3360, Note_on_c, 9, 36, 113
3, 3360, Note_on_c, 9, 46, 114
3, 3371, Note_on_c, 9, 49, 126
3, 3390, Note_on_c, 9, 49, 0
3, 3390, Note_on_c, 9, 46, 0
3, 3420, Note_on_c, 9, 36, 0
3, 3420, Note_on_c, 9, 44, 92
3, 3450, Note_on_c, 9, 44, 0
3, 3450, Note_on_c, 9, 42, 96
3, 3480, Note_on_c, 9, 42, 0
3, 3480, Note_on_c, 9, 40, 110
3, 3480, Note_on_c, 9, 46, 104
3, 3510, Note_on_c, 9, 46, 0
3, 3540, Note_on_c, 9, 44, 92
3, 3570, Note_on_c, 9, 44, 0
3, 3570, Note_on_c, 9, 40, 0
3, 3570, Note_on_c, 9, 42, 104
3, 3600, Note_on_c, 9, 42, 0
3, 3600, Note_on_c, 9, 36, 110
3, 3600, Note_on_c, 9, 46, 109
3, 3630, Note_on_c, 9, 46, 0
3, 3660, Note_on_c, 9, 44, 104
3, 3690, Note_on_c, 9, 44, 0
3, 3690, Note_on_c, 9, 36, 0
3, 3690, Note_on_c, 9, 42, 104
3, 3720, Note_on_c, 9, 42, 0
3, 3720, Note_on_c, 9, 40, 113
3, 3720, Note_on_c, 9, 46, 109
3, 3750, Note_on_c, 9, 46, 0
3, 3750, Note_on_c, 9, 40, 0
3, 3780, Note_on_c, 9, 36, 90
3, 3780, Note_on_c, 9, 44, 104
3, 3810, Note_on_c, 9, 44, 0
3, 3810, Note_on_c, 9, 36, 0
3, 3810, Note_on_c, 9, 42, 96
3, 3840, Note_on_c, 9, 42, 0
3, 3840, Note_on_c, 9, 36, 117
3, 3840, Note_on_c, 9, 46, 109
3, 3870, Note_on_c, 9, 46, 0
3, 3900, Note_on_c, 9, 36, 0
3, 3900, Note_on_c, 9, 44, 104
3, 3930, Note_on_c, 9, 44, 0
3, 3930, Note_on_c, 9, 42, 92
3, 3960, Note_on_c, 9, 42, 0
3, 3960, Note_on_c, 9, 40, 113
3, 3960, Note_on_c, 9, 46, 104
3, 3960, Note_on_c, 9, 40, 104
3, 3990, Note_on_c, 9, 46, 0
3, 3990, Note_on_c, 9, 40, 0
3, 3990, Note_on_c, 9, 40, 92
3, 4020, Note_on_c, 9, 40, 0
3, 4020, Note_on_c, 9, 40, 0
3, 4020, Note_on_c, 9, 44, 96
3, 4050, Note_on_c, 9, 44, 0
3, 4050, Note_on_c, 9, 42, 96
3, 4050, Note_on_c, 9, 36, 88
3, 4080, Note_on_c, 9, 36, 0
3, 4080, Note_on_c, 9, 42, 0
3, 4080, Note_on_c, 9, 36, 120
3, 4080, Note_on_c, 9, 46, 109
3, 4080, Note_on_c, 9, 40, 113
3, 4110, Note_on_c, 9, 40, 0
3, 4110, Note_on_c, 9, 46, 0
3, 4110, Note_on_c, 9, 40, 107
3, 4140, Note_on_c, 9, 40, 0
3, 4140, Note_on_c, 9, 44, 96
3, 4170, Note_on_c, 9, 44, 0
3, 4170, Note_on_c, 9, 36, 0
3, 4170, Note_on_c, 9, 42, 100
3, 4170, Note_on_c, 9, 43, 113
3, 4200, Note_on_c, 9, 43, 0
3, 4200, Note_on_c, 9, 42, 0
3, 4200, Note_on_c, 9, 40, 113
3, 4200, Note_on_c, 9, 46, 114
3, 4230, Note_on_c, 9, 46, 0
3, 4230, Note_on_c, 9, 45, 120
3, 4260, Note_on_c, 9, 45, 0
3, 4260, Note_on_c, 9, 40, 0
3, 4260, Note_on_c, 9, 36, 80
3, 4260, Note_on_c, 9, 44, 96
3, 4260, Note_on_c, 9, 40, 99
3, 4263, Note_on_c, 9, 55, 120
3, 4280, Note_on_c, 9, 55, 0
3, 4290, Note_on_c, 9, 36, 0
3, 4290, Note_on_c, 9, 44, 0
3, 4290, Note_on_c, 9, 40, 0
3, 4290, Note_on_c, 9, 42, 54
3, 4290, Note_on_c, 9, 43, 97
3, 4318, Note_on_c, 9, 57, 117
3, 4320, Note_on_c, 9, 43, 0
3, 4320, Note_on_c, 9, 42, 0
3, 4320, Note_on_c, 9, 36, 107
3, 4320, Note_on_c, 9, 46, 71
3, 4320, Note_on_c, 9, 46, 104
3, 4334, Note_on_c, 9, 57, 0
3, 4350, Note_on_c, 9, 46, 0
3, 4380, Note_on_c, 9, 36, 0
3, 4380, Note_on_c, 9, 46, 0
3, 4380, Note_on_c, 9, 44, 60
3, 4410, Note_on_c, 9, 44, 0
3, 4410, Note_on_c, 9, 42, 104
3, 4440, Note_on_c, 9, 42, 0
3, 4440, Note_on_c, 9, 40, 117
3, 4440, Note_on_c, 9, 46, 109
3, 4500, Note_on_c, 9, 46, 0
3, 4500, Note_on_c, 9, 40, 0
3, 4500, Note_on_c, 9, 44, 64
3, 4530, Note_on_c, 9, 44, 0
3, 4530, Note_on_c, 9, 42, 104
3, 4560, Note_on_c, 9, 42, 0
3, 4560, Note_on_c, 9, 36, 53
3, 4560, Note_on_c, 9, 46, 104
3, 4620, Note_on_c, 9, 46, 0
3, 4620, Note_on_c, 9, 44, 79
3, 4650, Note_on_c, 9, 44, 0
3, 4650, Note_on_c, 9, 36, 0
3, 4650, Note_on_c, 9, 42, 104
3, 4680, Note_on_c, 9, 42, 0
3, 4680, Note_on_c, 9, 40, 117
3, 4680, Note_on_c, 9, 46, 114
3, 4740, Note_on_c, 9, 46, 0
3, 4740, Note_on_c, 9, 40, 0
3, 4740, Note_on_c, 9, 36, 79
3, 4740, Note_on_c, 9, 44, 84
3, 4770, Note_on_c, 9, 44, 0
3, 4770, Note_on_c, 9, 36, 0
3, 4770, Note_on_c, 9, 42, 100
3, 4800, Note_on_c, 9, 42, 0
3, 4800, Note_on_c, 9, 36, 117
3, 4800, Note_on_c, 9, 46, 119
3, 4860, Note_on_c, 9, 46, 0
3, 4860, Note_on_c, 9, 36, 0
3, 4890, Note_on_c, 9, 44, 75
3, 4920, Note_on_c, 9, 44, 0
3, 4920, Note_on_c, 9, 40, 110
3, 4920, Note_on_c, 9, 42, 100
3, 4920, Note_on_c, 9, 46, 92
3, 4950, Note_on_c, 9, 46, 0
3, 4950, Note_on_c, 9, 42, 0
3, 4980, Note_on_c, 9, 40, 0
3, 4980, Note_on_c, 9, 44, 81
3, 5010, Note_on_c, 9, 44, 0
3, 5010, Note_on_c, 9, 42, 96
3, 5040, Note_on_c, 9, 42, 0
3, 5040, Note_on_c, 9, 36, 113
3, 5040, Note_on_c, 9, 46, 100
3, 5070, Note_on_c, 9, 46, 0
3, 5100, Note_on_c, 9, 44, 89
3, 5130, Note_on_c, 9, 44, 0
3, 5130, Note_on_c, 9, 36, 0
3, 5130, Note_on_c, 9, 42, 92
3, 5160, Note_on_c, 9, 42, 0
3, 5160, Note_on_c, 9, 40, 110
3, 5160, Note_on_c, 9, 46, 109
3, 5190, Note_on_c, 9, 46, 0
3, 5220, Note_on_c, 9, 40, 0
3, 5220, Note_on_c, 9, 36, 88
3, 5220, Note_on_c, 9, 44, 77
3, 5250, Note_on_c, 9, 44, 0
3, 5250, Note_on_c, 9, 36, 0
3, 5250, Note_on_c, 9, 42, 92
3, 5280, Note_on_c, 9, 42, 0
3, 5280, Note_on_c, 9, 36, 110
3, 5280, Note_on_c, 9, 46, 114
3, 5310, Note_on_c, 9, 46, 0
3, 5340, Note_on_c, 9, 36, 0
3, 5340, Note_on_c, 9, 44, 77
3, 5370, Note_on_c, 9, 44, 0
3, 5370, Note_on_c, 9, 42, 96
3, 5400, Note_on_c, 9, 42, 0
3, 5400, Note_on_c, 9, 40, 110
3, 5400, Note_on_c, 9, 42, 38
3, 5400, Note_on_c, 9, 46, 109
3, 5430, Note_on_c, 9, 46, 0
3, 5430, Note_on_c, 9, 42, 0
3, 5460, Note_on_c, 9, 44, 86
3, 5490, Note_on_c, 9, 44, 0
3, 5490, Note_on_c, 9, 40, 0
3, 5490, Note_on_c, 9, 42, 100
3, 5520, Note_on_c, 9, 42, 0
3, 5520, Note_on_c, 9, 36, 110
3, 5520, Note_on_c, 9, 46, 109
3, 5550, Note_on_c, 9, 46, 0
3, 5580, Note_on_c, 9, 44, 92
3, 5610, Note_on_c, 9, 44, 0
3, 5610, Note_on_c, 9, 36, 0
3, 5610, Note_on_c, 9, 42, 100
3, 5640, Note_on_c, 9, 42, 0
3, 5640, Note_on_c, 9, 40, 110
3, 5640, Note_on_c, 9, 46, 114
3, 5670, Note_on_c, 9, 46, 0
3, 5700, Note_on_c, 9, 40, 0
3, 5700, Note_on_c, 9, 36, 70
3, 5700, Note_on_c, 9, 44, 84
3, 5730, Note_on_c, 9, 44, 0
3, 5730, Note_on_c, 9, 36, 0
3, 5730, Note_on_c, 9, 42, 100
3, 5760, Note_on_c, 9, 42, 0
3, 5760, Note_on_c, 9, 36, 120
3, 5760, Note_on_c, 9, 46, 109
3, 5790, Note_on_c, 9, 46, 0
3, 5820, Note_on_c, 9, 44, 84
3, 5850, Note_on_c, 9, 44, 0
3, 5850, Note_on_c, 9, 36, 0
3, 5850, Note_on_c, 9, 42, 89
3, 5880, Note_on_c, 9, 42, 0
3, 5880, Note_on_c, 9, 40, 113
3, 5880, Note_on_c, 9, 46, 114
3, 5910, Note_on_c, 9, 46, 0
3, 5940, Note_on_c, 9, 44, 92
3, 5970, Note_on_c, 9, 44, 0
3, 5970, Note_on_c, 9, 40, 0
3, 5970, Note_on_c, 9, 42, 96
3, 6000, Note_on_c, 9, 42, 0
3, 6000, Note_on_c, 9, 36, 113
3, 6000, Note_on_c, 9, 46, 114
3, 6030, Note_on_c, 9, 46, 0
3, 6060, Note_on_c, 9, 44, 100
3, 6090, Note_on_c, 9, 44, 0
3, 6090, Note_on_c, 9, 36, 0
3, 6090, Note_on_c, 9, 42, 100
3, 6120, Note_on_c, 9, 42, 0
3, 6120, Note_on_c, 9, 40, 110
3, 6120, Note_on_c, 9, 46, 114
3, 6150, Note_on_c, 9, 46, 0
3, 6180, Note_on_c, 9, 40, 0
3, 6180, Note_on_c, 9, 36, 74
3, 6180, Note_on_c, 9, 44, 100
3, 6210, Note_on_c, 9, 44, 0
3, 6210, Note_on_c, 9, 36, 0
3, 6210, Note_on_c, 9, 42, 109
3, 6240, Note_on_c, 9, 42, 0
3, 6240, Note_on_c, 9, 36, 113
3, 6240, Note_on_c, 9, 46, 109
3, 6249, Note_on_c, 9, 55, 110
3, 6254, Note_on_c, 9, 57, 45
3, 6266, Note_on_c, 9, 57, 0
3, 6266, Note_on_c, 9, 55, 0
3, 6270, Note_on_c, 9, 46, 0
3, 6300, Note_on_c, 9, 36, 0
3, 6300, Note_on_c, 9, 44, 96
3, 6330, Note_on_c, 9, 44, 0
3, 6330, Note_on_c, 9, 42, 100
3, 6360, Note_on_c, 9, 42, 0
3, 6360, Note_on_c, 9, 40, 110
3, 6360, Note_on_c, 9, 46, 114
3, 6390, Note_on_c, 9, 46, 0
3, 6420, Note_on_c, 9, 44, 92
3, 6450, Note_on_c, 9, 44, 0
3, 6450, Note_on_c, 9, 40, 0
3, 6450, Note_on_c, 9, 42, 100
3, 6480, Note_on_c, 9, 42, 0
3, 6480, Note_on_c, 9, 36, 120
3, 6480, Note_on_c, 9, 46, 114
3, 6510, Note_on_c, 9, 46, 0
3, 6540, Note_on_c, 9, 44, 96
3, 6570, Note_on_c, 9, 44, 0
3, 6570, Note_on_c, 9, 36, 0
3, 6570, Note_on_c, 9, 42, 100
3, 6600, Note_on_c, 9, 42, 0
3, 6600, Note_on_c, 9, 40, 117
3, 6600, Note_on_c, 9, 46, 100
3, 6630, Note_on_c, 9, 46, 0
3, 6660, Note_on_c, 9, 40, 0
3, 6660, Note_on_c, 9, 36, 92
3, 6660, Note_on_c, 9, 44, 89
3, 6690, Note_on_c, 9, 44, 0
3, 6690, Note_on_c, 9, 36, 0
3, 6690, Note_on_c, 9, 42, 92
3, 6720, Note_on_c, 9, 42, 0
3, 6720, Note_on_c, 9, 36, 110
3, 6720, Note_on_c, 9, 46, 104
3, 6750, Note_on_c, 9, 46, 0
3, 6780, Note_on_c, 9, 36, 0
3, 6780, Note_on_c, 9, 44, 81
3, 6810, Note_on_c, 9, 44, 0
3, 6810, Note_on_c, 9, 42, 96
3, 6840, Note_on_c, 9, 42, 0
3, 6840, Note_on_c, 9, 40, 110
3, 6840, Note_on_c, 9, 46, 109
3, 6870, Note_on_c, 9, 46, 0
3, 6900, Note_on_c, 9, 40, 0
3, 6900, Note_on_c, 9, 44, 81
3, 6930, Note_on_c, 9, 44, 0
3, 6930, Note_on_c, 9, 42, 96
3, 6960, Note_on_c, 9, 42, 0
3, 6960, Note_on_c, 9, 36, 120
3, 6960, Note_on_c, 9, 46, 109
3, 6990, Note_on_c, 9, 46, 0
3, 7020, Note_on_c, 9, 36, 0
3, 7020, Note_on_c, 9, 44, 92
3, 7050, Note_on_c, 9, 44, 0
3, 7050, Note_on_c, 9, 42, 86
3, 7080, Note_on_c, 9, 42, 0
3, 7080, Note_on_c, 9, 40, 120
3, 7080, Note_on_c, 9, 46, 109
3, 7110, Note_on_c, 9, 46, 0
3, 7140, Note_on_c, 9, 40, 0
3, 7140, Note_on_c, 9, 36, 59
3, 7140, Note_on_c, 9, 44, 92
3, 7170, Note_on_c, 9, 44, 0
3, 7170, Note_on_c, 9, 36, 0
3, 7170, Note_on_c, 9, 42, 104
3, 7200, Note_on_c, 9, 42, 0
3, 7200, Note_on_c, 9, 36, 113
3, 7200, Note_on_c, 9, 46, 114
3, 7206, Note_on_c, 9, 49, 71
3, 7208, Note_on_c, 9, 49, 0
3, 7230, Note_on_c, 9, 46, 0
3, 7260, Note_on_c, 9, 36, 0
3, 7260, Note_on_c, 9, 44, 92
3, 7290, Note_on_c, 9, 44, 0
3, 7290, Note_on_c, 9, 42, 96
3, 7320, Note_on_c, 9, 42, 0
3, 7320, Note_on_c, 9, 40, 110
3, 7320, Note_on_c, 9, 46, 104
3, 7350, Note_on_c, 9, 46, 0
3, 7380, Note_on_c, 9, 44, 92
3, 7410, Note_on_c, 9, 44, 0
3, 7410, Note_on_c, 9, 40, 0
3, 7410, Note_on_c, 9, 42, 104
3, 7440, Note_on_c, 9, 42, 0
3, 7440, Note_on_c, 9, 36, 110
3, 7440, Note_on_c, 9, 46, 109
3, 7470, Note_on_c, 9, 46, 0
3, 7500, Note_on_c, 9, 44, 104
3, 7530, Note_on_c, 9, 44, 0
3, 7530, Note_on_c, 9, 36, 0
3, 7530, Note_on_c, 9, 42, 104
3, 7560, Note_on_c, 9, 42, 0
3, 7560, Note_on_c, 9, 40, 113
3, 7560, Note_on_c, 9, 46, 109
3, 7590, Note_on_c, 9, 46, 0
3, 7590, Note_on_c, 9, 40, 0
3, 7620, Note_on_c, 9, 36, 90
3, 7620, Note_on_c, 9, 44, 104
3, 7650, Note_on_c, 9, 44, 0
3, 7650, Note_on_c, 9, 36, 0
3, 7650, Note_on_c, 9, 42, 96
3, 7680, Note_on_c, 9, 42, 0
3, 7680, Note_on_c, 9, 36, 117
3, 7680, Note_on_c, 9, 46, 109
3, 7710, Note_on_c, 9, 46, 0
3, 7740, Note_on_c, 9, 36, 0
3, 7740, Note_on_c, 9, 44, 104
3, 7770, Note_on_c, 9, 44, 0
3, 7770, Note_on_c, 9, 42, 92
3, 7800, Note_on_c, 9, 42, 0
3, 7800, Note_on_c, 9, 40, 113
3, 7800, Note_on_c, 9, 46, 104
3, 7830, Note_on_c, 9, 46, 0
3, 7860, Note_on_c, 9, 40, 0
3, 7860, Note_on_c, 9, 44, 96
3, 7890, Note_on_c, 9, 44, 0
3, 7890, Note_on_c, 9, 42, 96
3, 7919, Note_on_c, 9, 55, 117
3, 7920, Note_on_c, 9, 42, 0
3, 7920, Note_on_c, 9, 36, 120
3, 7920, Note_on_c, 9, 46, 109
3, 7920, Note_on_c, 9, 40, 104
3, 7941, Note_on_c, 9, 55, 0
3, 7950, Note_on_c, 9, 40, 0
3, 7950, Note_on_c, 9, 46, 0
3, 7980, Note_on_c, 9, 44, 96
3, 7980, Note_on_c, 9, 40, 101
3, 8010, Note_on_c, 9, 40, 0
3, 8010, Note_on_c, 9, 44, 0
3, 8010, Note_on_c, 9, 36, 0
3, 8010, Note_on_c, 9, 42, 100
3, 8040, Note_on_c, 9, 42, 0
3, 8040, Note_on_c, 9, 40, 113
3, 8040, Note_on_c, 9, 46, 114
3, 8040, Note_on_c, 9, 36, 75
3, 8070, Note_on_c, 9, 36, 0
3, 8070, Note_on_c, 9, 46, 0
3, 8070, Note_on_c, 9, 40, 110
3, 8100, Note_on_c, 9, 40, 0
3, 8100, Note_on_c, 9, 40, 0
3, 8100, Note_on_c, 9, 36, 80
3, 8100, Note_on_c, 9, 44, 96
3, 8101, Note_on_c, 9, 57, 104
3, 8103, Note_on_c, 9, 49, 114
3, 8120, Note_on_c, 9, 49, 0
3, 8121, Note_on_c, 9, 57, 0
3, 8130, Note_on_c, 9, 44, 0
3, 8130, Note_on_c, 9, 36, 0
3, 8130, Note_on_c, 9, 42, 54
3, 8160, Note_on_c, 9, 42, 0
3, 8160, Note_on_c, 9, 36, 107
3, 8160, Note_on_c, 9, 46, 71
3, 8160, Note_on_c, 9, 46, 104
3, 8190, Note_on_c, 9, 46, 0
3, 8220, Note_on_c, 9, 46, 0
3, 8220, Note_on_c, 9, 36, 0
3, 8220, Note_on_c, 9, 44, 60
3, 8250, Note_on_c, 9, 44, 0
3, 8250, Note_on_c, 9, 42, 104
3, 8280, Note_on_c, 9, 42, 0
3, 8280, Note_on_c, 9, 40, 117
3, 8280, Note_on_c, 9, 46, 109
3, 8340, Note_on_c, 9, 46, 0
3, 8340, Note_on_c, 9, 40, 0
3, 8340, Note_on_c, 9, 44, 64
3, 8370, Note_on_c, 9, 44, 0
3, 8370, Note_on_c, 9, 42, 104
3, 8400, Note_on_c, 9, 42, 0
3, 8400, Note_on_c, 9, 36, 53
3, 8400, Note_on_c, 9, 46, 104
3, 8460, Note_on_c, 9, 46, 0
3, 8460, Note_on_c, 9, 44, 79
3, 8490, Note_on_c, 9, 44, 0
3, 8490, Note_on_c, 9, 36, 0
3, 8490, Note_on_c, 9, 42, 104
3, 8520, Note_on_c, 9, 42, 0
3, 8520, Note_on_c, 9, 40, 117
3, 8520, Note_on_c, 9, 46, 114
3, 8580, Note_on_c, 9, 46, 0
3, 8580, Note_on_c, 9, 40, 0
3, 8580, Note_on_c, 9, 36, 79
3, 8580, Note_on_c, 9, 44, 84
3, 8610, Note_on_c, 9, 44, 0
3, 8610, Note_on_c, 9, 36, 0
3, 8610, Note_on_c, 9, 42, 100
3, 8640, Note_on_c, 9, 42, 0
3, 8640, Note_on_c, 9, 36, 117
3, 8640, Note_on_c, 9, 46, 119
3, 8700, Note_on_c, 9, 46, 0
3, 8700, Note_on_c, 9, 36, 0
3, 8730, Note_on_c, 9, 44, 75
3, 8760, Note_on_c, 9, 44, 0
3, 8760, Note_on_c, 9, 40, 110
3, 8760, Note_on_c, 9, 42, 100
3, 8760, Note_on_c, 9, 46, 92
3, 8790, Note_on_c, 9, 46, 0
3, 8790, Note_on_c, 9, 42, 0
3, 8820, Note_on_c, 9, 40, 0
3, 8820, Note_on_c, 9, 44, 81
3, 8850, Note_on_c, 9, 44, 0
3, 8850, Note_on_c, 9, 42, 96
3, 8880, Note_on_c, 9, 42, 0
3, 8880, Note_on_c, 9, 36, 113
3, 8880, Note_on_c, 9, 46, 100
3, 8910, Note_on_c, 9, 46, 0
3, 8940, Note_on_c, 9, 44, 89
3, 8970, Note_on_c, 9, 44, 0
3, 8970, Note_on_c, 9, 36, 0
3, 8970, Note_on_c, 9, 42, 92
3, 9000, Note_on_c, 9, 42, 0
3, 9000, Note_on_c, 9, 40, 110
3, 9000, Note_on_c, 9, 46, 109
3, 9030, Note_on_c, 9, 46, 0
3, 9060, Note_on_c, 9, 40, 0
3, 9060, Note_on_c, 9, 36, 88
3, 9060, Note_on_c, 9, 44, 77
3, 9090, Note_on_c, 9, 44, 0
3, 9090, Note_on_c, 9, 36, 0
3, 9090, Note_on_c, 9, 42, 92
3, 9120, Note_on_c, 9, 42, 0
3, 9120, Note_on_c, 9, 36, 110
3, 9120, Note_on_c, 9, 46, 114
3, 9150, Note_on_c, 9, 46, 0
3, 9180, Note_on_c, 9, 36, 0
3, 9180, Note_on_c, 9, 44, 77
3, 9210, Note_on_c, 9, 44, 0
3, 9210, Note_on_c, 9, 42, 96
3, 9240, Note_on_c, 9, 42, 0
3, 9240, Note_on_c, 9, 40, 110
3, 9240, Note_on_c, 9, 42, 38
3, 9240, Note_on_c, 9, 46, 109
3, 9270, Note_on_c, 9, 46, 0
3, 9270, Note_on_c, 9, 42, 0
3, 9300, Note_on_c, 9, 44, 86
3, 9330, Note_on_c, 9, 44, 0
3, 9330, Note_on_c, 9, 40, 0
3, 9330, Note_on_c, 9, 42, 100
3, 9360, Note_on_c, 9, 42, 0
3, 9360, Note_on_c, 9, 36, 110
3, 9360, Note_on_c, 9, 46, 109
3, 9390, Note_on_c, 9, 46, 0
3, 9420, Note_on_c, 9, 44, 92
3, 9450, Note_on_c, 9, 44, 0
3, 9450, Note_on_c, 9, 36, 0
3, 9450, Note_on_c, 9, 42, 100
3, 9480, Note_on_c, 9, 42, 0
3, 9480, Note_on_c, 9, 40, 110
3, 9480, Note_on_c, 9, 46, 114
3, 9510, Note_on_c, 9, 46, 0
3, 9540, Note_on_c, 9, 40, 0
3, 9540, Note_on_c, 9, 36, 70
3, 9540, Note_on_c, 9, 44, 84
3, 9570, Note_on_c, 9, 44, 0
3, 9570, Note_on_c, 9, 36, 0
3, 9570, Note_on_c, 9, 42, 100
3, 9600, Note_on_c, 9, 42, 0
3, 9600, Note_on_c, 9, 36, 120
3, 9600, Note_on_c, 9, 46, 109
3, 9630, Note_on_c, 9, 46, 0
3, 9660, Note_on_c, 9, 44, 84
3, 9690, Note_on_c, 9, 44, 0
3, 9690, Note_on_c, 9, 36, 0
3, 9690, Note_on_c, 9, 42, 89
3, 9720, Note_on_c, 9, 42, 0
3, 9720, Note_on_c, 9, 40, 113
3, 9720, Note_on_c, 9, 46, 114
3, 9750, Note_on_c, 9, 46, 0
3, 9780, Note_on_c, 9, 44, 92
3, 9810, Note_on_c, 9, 44, 0
3, 9810, Note_on_c, 9, 40, 0
3, 9810, Note_on_c, 9, 42, 96
3, 9840, Note_on_c, 9, 42, 0
3, 9840, Note_on_c, 9, 36, 113
3, 9840, Note_on_c, 9, 46, 114
3, 9870, Note_on_c, 9, 46, 0
3, 9900, Note_on_c, 9, 44, 100
3, 9930, Note_on_c, 9, 44, 0
3, 9930, Note_on_c, 9, 36, 0
3, 9930, Note_on_c, 9, 42, 100
3, 9960, Note_on_c, 9, 42, 0
3, 9960, Note_on_c, 9, 40, 110
3, 9960, Note_on_c, 9, 46, 114
3, 9990, Note_on_c, 9, 46, 0
3, 10020, Note_on_c, 9, 40, 0
3, 10020, Note_on_c, 9, 36, 74
3, 10020, Note_on_c, 9, 44, 100
3, 10050, Note_on_c, 9, 44, 0
3, 10050, Note_on_c, 9, 36, 0
3, 10050, Note_on_c, 9, 42, 109
3, 10080, Note_on_c, 9, 42, 0
3, 10080, Note_on_c, 9, 36, 113
3, 10080, Note_on_c, 9, 46, 109
3, 10110, Note_on_c, 9, 46, 0
3, 10140, Note_on_c, 9, 36, 0
3, 10140, Note_on_c, 9, 44, 96
3, 10170, Note_on_c, 9, 44, 0
3, 10170, Note_on_c, 9, 42, 100
3, 10200, Note_on_c, 9, 42, 0
3, 10200, Note_on_c, 9, 40, 110
3, 10200, Note_on_c, 9, 46, 114
3, 10230, Note_on_c, 9, 46, 0
3, 10260, Note_on_c, 9, 44, 92
3, 10290, Note_on_c, 9, 44, 0
3, 10290, Note_on_c, 9, 40, 0
3, 10290, Note_on_c, 9, 42, 100
3, 10320, Note_on_c, 9, 42, 0
3, 10320, Note_on_c, 9, 36, 120
3, 10320, Note_on_c, 9, 46, 114
3, 10350, Note_on_c, 9, 46, 0
3, 10380, Note_on_c, 9, 44, 96
3, 10410, Note_on_c, 9, 44, 0
3, 10410, Note_on_c, 9, 36, 0
3, 10410, Note_on_c, 9, 42, 100
3, 10440, Note_on_c, 9, 42, 0
3, 10440, Note_on_c, 9, 40, 117
3, 10440, Note_on_c, 9, 46, 100
3, 10470, Note_on_c, 9, 46, 0
3, 10500, Note_on_c, 9, 40, 0
3, 10500, Note_on_c, 9, 36, 92
3, 10500, Note_on_c, 9, 44, 89
3, 10530, Note_on_c, 9, 44, 0
3, 10530, Note_on_c, 9, 36, 0
3, 10530, Note_on_c, 9, 42, 92
3, 10560, Note_on_c, 9, 42, 0
3, 10560, Note_on_c, 9, 36, 110
3, 10560, Note_on_c, 9, 46, 104
3, 10590, Note_on_c, 9, 46, 0
3, 10620, Note_on_c, 9, 36, 0
3, 10620, Note_on_c, 9, 44, 81
3, 10650, Note_on_c, 9, 44, 0
3, 10650, Note_on_c, 9, 42, 96
3, 10680, Note_on_c, 9, 42, 0
3, 10680, Note_on_c, 9, 40, 110
3, 10680, Note_on_c, 9, 46, 109
3, 10710, Note_on_c, 9, 46, 0
3, 10740, Note_on_c, 9, 40, 0
3, 10740, Note_on_c, 9, 44, 81
3, 10770, Note_on_c, 9, 44, 0
3, 10770, Note_on_c, 9, 42, 96
3, 10800, Note_on_c, 9, 42, 0
3, 10800, Note_on_c, 9, 36, 120
3, 10800, Note_on_c, 9, 46, 109
3, 10830, Note_on_c, 9, 46, 0
3, 10860, Note_on_c, 9, 36, 0
3, 10860, Note_on_c, 9, 44, 92
3, 10890, Note_on_c, 9, 44, 0
3, 10890, Note_on_c, 9, 42, 86
3, 10920, Note_on_c, 9, 42, 0
3, 10920, Note_on_c, 9, 40, 120
3, 10920, Note_on_c, 9, 46, 109
3, 10950, Note_on_c, 9, 46, 0
3, 10980, Note_on_c, 9, 40, 0
3, 10980, Note_on_c, 9, 36, 59
3, 10980, Note_on_c, 9, 44, 92
3, 11010, Note_on_c, 9, 44, 0
3, 11010, Note_on_c, 9, 36, 0
3, 11010, Note_on_c, 9, 42, 104
3, 11040, Note_on_c, 9, 42, 0
3, 11040, Note_on_c, 9, 36, 113
3, 11040, Note_on_c, 9, 46, 114
3, 11070, Note_on_c, 9, 46, 0
3, 11100, Note_on_c, 9, 36, 0
3, 11100, Note_on_c, 9, 44, 92
3, 11130, Note_on_c, 9, 44, 0
3, 11130, Note_on_c, 9, 42, 96
3, 11160, Note_on_c, 9, 42, 0
3, 11160, Note_on_c, 9, 40, 110
3, 11160, Note_on_c, 9, 46, 104
3, 11190, Note_on_c, 9, 46, 0
3, 11220, Note_on_c, 9, 44, 92
3, 11250, Note_on_c, 9, 44, 0
3, 11250, Note_on_c, 9, 40, 0
3, 11250, Note_on_c, 9, 42, 104
3, 11280, Note_on_c, 9, 42, 0
3, 11280, Note_on_c, 9, 36, 110
3, 11280, Note_on_c, 9, 46, 109
3, 11310, Note_on_c, 9, 46, 0
3, 11340, Note_on_c, 9, 44, 104
3, 11370, Note_on_c, 9, 44, 0
3, 11370, Note_on_c, 9, 36, 0
3, 11370, Note_on_c, 9, 42, 104
3, 11400, Note_on_c, 9, 42, 0
3, 11400, Note_on_c, 9, 40, 113
3, 11400, Note_on_c, 9, 46, 109
3, 11430, Note_on_c, 9, 46, 0
3, 11430, Note_on_c, 9, 40, 0
3, 11460, Note_on_c, 9, 36, 90
3, 11460, Note_on_c, 9, 44, 104
3, 11490, Note_on_c, 9, 44, 0
3, 11490, Note_on_c, 9, 36, 0
3, 11490, Note_on_c, 9, 42, 96
3, 11520, Note_on_c, 9, 42, 0
3, 11520, Note_on_c, 9, 36, 117
3, 11520, Note_on_c, 9, 46, 109
3, 11550, Note_on_c, 9, 46, 0
3, 11580, Note_on_c, 9, 36, 0
3, 11580, Note_on_c, 9, 44, 104
3, 11610, Note_on_c, 9, 44, 0
3, 11610, Note_on_c, 9, 42, 92
3, 11640, Note_on_c, 9, 42, 0
3, 11640, Note_on_c, 9, 40, 113
3, 11640, Note_on_c, 9, 46, 104
3, 11670, Note_on_c, 9, 46, 0
3, 11700, Note_on_c, 9, 40, 0
3, 11700, Note_on_c, 9, 44, 96
3, 11730, Note_on_c, 9, 44, 0
3, 11730, Note_on_c, 9, 42, 96
3, 11760, Note_on_c, 9, 42, 0
3, 11760, Note_on_c, 9, 36, 120
3, 11760, Note_on_c, 9, 46, 109
3, 11790, Note_on_c, 9, 46, 0
3, 11820, Note_on_c, 9, 44, 96
3, 11850, Note_on_c, 9, 44, 0
3, 11850, Note_on_c, 9, 36, 0
3, 11850, Note_on_c, 9, 42, 100
3, 11880, Note_on_c, 9, 42, 0
3, 11880, Note_on_c, 9, 40, 113
3, 11880, Note_on_c, 9, 46, 114
3, 11910, Note_on_c, 9, 46, 0
3, 11940, Note_on_c, 9, 40, 0
3, 11940, Note_on_c, 9, 36, 80
3, 11940, Note_on_c, 9, 44, 96
3, 11970, Note_on_c, 9, 44, 0
3, 11970, Note_on_c, 9, 36, 0
3, 11970, Note_on_c, 9, 42, 54
3, 12000, Note_on_c, 9, 42, 0
3, 12000, Note_on_c, 9, 36, 107
3, 12000, Note_on_c, 9, 46, 71
3, 12000, Note_on_c, 9, 46, 104
3, 12030, Note_on_c, 9, 46, 0
3, 12060, Note_on_c, 9, 46, 0
3, 12060, Note_on_c, 9, 36, 0
3, 12060, Note_on_c, 9, 44, 60
3, 12090, Note_on_c, 9, 44, 0
3, 12090, Note_on_c, 9, 42, 104
3, 12120, Note_on_c, 9, 42, 0
3, 12120, Note_on_c, 9, 40, 117
3, 12120, Note_on_c, 9, 46, 109
3, 12180, Note_on_c, 9, 46, 0
3, 12180, Note_on_c, 9, 40, 0
3, 12180, Note_on_c, 9, 44, 64
3, 12210, Note_on_c, 9, 44, 0
3, 12210, Note_on_c, 9, 42, 104
3, 12240, Note_on_c, 9, 42, 0
3, 12240, Note_on_c, 9, 36, 53
3, 12240, Note_on_c, 9, 46, 104
3, 12300, Note_on_c, 9, 46, 0
3, 12300, Note_on_c, 9, 44, 79
3, 12330, Note_on_c, 9, 44, 0
3, 12330, Note_on_c, 9, 36, 0
3, 12330, Note_on_c, 9, 42, 104
3, 12360, Note_on_c, 9, 42, 0
3, 12360, Note_on_c, 9, 40, 117
3, 12360, Note_on_c, 9, 46, 114
3, 12420, Note_on_c, 9, 46, 0
3, 12420, Note_on_c, 9, 40, 0
3, 12420, Note_on_c, 9, 36, 79
3, 12420, Note_on_c, 9, 44, 84
3, 12450, Note_on_c, 9, 44, 0
3, 12450, Note_on_c, 9, 36, 0
3, 12450, Note_on_c, 9, 42, 100
3, 12480, Note_on_c, 9, 42, 0
3, 12480, Note_on_c, 9, 36, 117
3, 12480, Note_on_c, 9, 46, 119
3, 12540, Note_on_c, 9, 46, 0
3, 12540, Note_on_c, 9, 36, 0
3, 12570, Note_on_c, 9, 44, 75
3, 12600, Note_on_c, 9, 44, 0
3, 12600, Note_on_c, 9, 40, 110
3, 12600, Note_on_c, 9, 42, 100
3, 12600, Note_on_c, 9, 46, 92
3, 12630, Note_on_c, 9, 46, 0
3, 12630, Note_on_c, 9, 42, 0
3, 12660, Note_on_c, 9, 40, 0
3, 12660, Note_on_c, 9, 44, 81
3, 12690, Note_on_c, 9, 44, 0
3, 12690, Note_on_c, 9, 42, 96
3, 12720, Note_on_c, 9, 42, 0
3, 12720, Note_on_c, 9, 36, 113
3, 12720, Note_on_c, 9, 46, 100
3, 12750, Note_on_c, 9, 46, 0
3, 12780, Note_on_c, 9, 44, 89
3, 12810, Note_on_c, 9, 44, 0
3, 12810, Note_on_c, 9, 36, 0
3, 12810, Note_on_c, 9, 42, 92
3, 12840, Note_on_c, 9, 42, 0
3, 12840, Note_on_c, 9, 40, 110
3, 12840, Note_on_c, 9, 46, 109
3, 12870, Note_on_c, 9, 46, 0
3, 12900, Note_on_c, 9, 40, 0
3, 12900, Note_on_c, 9, 36, 88
3, 12900, Note_on_c, 9, 44, 77
3, 12930, Note_on_c, 9, 44, 0
3, 12930, Note_on_c, 9, 36, 0
3, 12930, Note_on_c, 9, 42, 92
3, 12960, Note_on_c, 9, 42, 0
3, 12960, Note_on_c, 9, 36, 110
3, 12960, Note_on_c, 9, 46, 114
3, 12990, Note_on_c, 9, 46, 0
3, 13020, Note_on_c, 9, 36, 0
3, 13020, Note_on_c, 9, 44, 77
3, 13050, Note_on_c, 9, 44, 0
3, 13050, Note_on_c, 9, 42, 96
3, 13080, Note_on_c, 9, 42, 0
3, 13080, Note_on_c, 9, 40, 110
3, 13080, Note_on_c, 9, 42, 38
3, 13080, Note_on_c, 9, 46, 109
3, 13110, Note_on_c, 9, 46, 0
3, 13110, Note_on_c, 9, 42, 0
3, 13140, Note_on_c, 9, 44, 86
3, 13170, Note_on_c, 9, 44, 0
3, 13170, Note_on_c, 9, 40, 0
3, 13170, Note_on_c, 9, 42, 100
3, 13200, Note_on_c, 9, 42, 0
3, 13200, Note_on_c, 9, 36, 110
3, 13200, Note_on_c, 9, 46, 109
3, 13230, Note_on_c, 9, 46, 0
3, 13260, Note_on_c, 9, 44, 92
3, 13290, Note_on_c, 9, 44, 0
3, 13290, Note_on_c, 9, 36, 0
3, 13290, Note_on_c, 9, 42, 100
3, 13320, Note_on_c, 9, 42, 0
3, 13320, Note_on_c, 9, 40, 110
3, 13320, Note_on_c, 9, 46, 114
3, 13350, Note_on_c, 9, 46, 0
3, 13380, Note_on_c, 9, 40, 0
3, 13380, Note_on_c, 9, 36, 70
3, 13380, Note_on_c, 9, 44, 84
3, 13410, Note_on_c, 9, 44, 0
3, 13410, Note_on_c, 9, 36, 0
3, 13410, Note_on_c, 9, 42, 100
3, 13440, Note_on_c, 9, 42, 0
3, 13440, Note_on_c, 9, 36, 120
3, 13440, Note_on_c, 9, 46, 109
3, 13470, Note_on_c, 9, 46, 0
3, 13500, Note_on_c, 9, 44, 84
3, 13530, Note_on_c, 9, 44, 0
3, 13530, Note_on_c, 9, 36, 0
3, 13530, Note_on_c, 9, 42, 89
3, 13560, Note_on_c, 9, 42, 0
3, 13560, Note_on_c, 9, 40, 113
3, 13560, Note_on_c, 9, 46, 114
3, 13590, Note_on_c, 9, 46, 0
3, 13620, Note_on_c, 9, 44, 92
3, 13650, Note_on_c, 9, 44, 0
3, 13650, Note_on_c, 9, 40, 0
3, 13650, Note_on_c, 9, 42, 96
3, 13680, Note_on_c, 9, 42, 0
3, 13680, Note_on_c, 9, 36, 113
3, 13680, Note_on_c, 9, 46, 114
3, 13710, Note_on_c, 9, 46, 0
3, 13740, Note_on_c, 9, 44, 100
3, 13770, Note_on_c, 9, 44, 0
3, 13770, Note_on_c, 9, 36, 0
3, 13770, Note_on_c, 9, 42, 100
3, 13800, Note_on_c, 9, 42, 0
3, 13800, Note_on_c, 9, 40, 110
3, 13800, Note_on_c, 9, 46, 114
3, 13830, Note_on_c, 9, 46, 0
3, 13860, Note_on_c, 9, 40, 0
3, 13860, Note_on_c, 9, 36, 74
3, 13860, Note_on_c, 9, 44, 100
3, 13890, Note_on_c, 9, 44, 0
3, 13890, Note_on_c, 9, 36, 0
3, 13890, Note_on_c, 9, 42, 109
3, 13920, Note_on_c, 9, 42, 0
3, 13920, Note_on_c, 9, 36, 113
3, 13920, Note_on_c, 9, 46, 109
3, 13950, Note_on_c, 9, 46, 0
3, 13980, Note_on_c, 9, 36, 0
3, 13980, Note_on_c, 9, 44, 96
3, 14010, Note_on_c, 9, 44, 0
3, 14010, Note_on_c, 9, 42, 100
3, 14040, Note_on_c, 9, 42, 0
3, 14040, Note_on_c, 9, 40, 110
3, 14040, Note_on_c, 9, 46, 114
3, 14070, Note_on_c, 9, 46, 0
3, 14100, Note_on_c, 9, 44, 92
3, 14130, Note_on_c, 9, 44, 0
3, 14130, Note_on_c, 9, 40, 0
3, 14130, Note_on_c, 9, 42, 100
3, 14160, Note_on_c, 9, 42, 0
3, 14160, Note_on_c, 9, 36, 120
3, 14160, Note_on_c, 9, 46, 114
3, 14190, Note_on_c, 9, 46, 0
3, 14220, Note_on_c, 9, 44, 96
3, 14250, Note_on_c, 9, 44, 0
3, 14250, Note_on_c, 9, 36, 0
3, 14250, Note_on_c, 9, 42, 100
3, 14280, Note_on_c, 9, 42, 0
3, 14280, Note_on_c, 9, 40, 117
3, 14280, Note_on_c, 9, 46, 100
3, 14310, Note_on_c, 9, 46, 0
3, 14340, Note_on_c, 9, 40, 0
3, 14340, Note_on_c, 9, 36, 92
3, 14340, Note_on_c, 9, 44, 89
3, 14370, Note_on_c, 9, 44, 0
3, 14370, Note_on_c, 9, 36, 0
3, 14370, Note_on_c, 9, 42, 92
3, 14400, Note_on_c, 9, 42, 0
3, 14400, Note_on_c, 9, 36, 110
3, 14400, Note_on_c, 9, 46, 104
3, 14430, Note_on_c, 9, 46, 0
3, 14460, Note_on_c, 9, 36, 0
3, 14460, Note_on_c, 9, 44, 81
3, 14490, Note_on_c, 9, 44, 0
3, 14490, Note_on_c, 9, 42, 96
3, 14520, Note_on_c, 9, 42, 0
3, 14520, Note_on_c, 9, 40, 110
3, 14520, Note_on_c, 9, 46, 109
3, 14550, Note_on_c, 9, 46, 0
3, 14580, Note_on_c, 9, 40, 0
3, 14580, Note_on_c, 9, 44, 81
3, 14610, Note_on_c, 9, 44, 0
3, 14610, Note_on_c, 9, 42, 96
3, 14640, Note_on_c, 9, 42, 0
3, 14640, Note_on_c, 9, 36, 120
3, 14640, Note_on_c, 9, 46, 109
3, 14670, Note_on_c, 9, 46, 0
3, 14700, Note_on_c, 9, 36, 0
3, 14700, Note_on_c, 9, 44, 92
3, 14730, Note_on_c, 9, 44, 0
3, 14730, Note_on_c, 9, 42, 86
3, 14760, Note_on_c, 9, 42, 0
3, 14760, Note_on_c, 9, 40, 120
3, 14760, Note_on_c, 9, 46, 109
3, 14790, Note_on_c, 9, 46, 0
3, 14820, Note_on_c, 9, 40, 0
3, 14820, Note_on_c, 9, 36, 59
3, 14820, Note_on_c, 9, 44, 92
3, 14850, Note_on_c, 9, 44, 0
3, 14850, Note_on_c, 9, 36, 0
3, 14850, Note_on_c, 9, 42, 104
3, 14880, Note_on_c, 9, 42, 0
3, 14880, Note_on_c, 9, 36, 113
3, 14880, Note_on_c, 9, 46, 114
3, 14910, Note_on_c, 9, 46, 0
3, 14940, Note_on_c, 9, 36, 0
3, 14940, Note_on_c, 9, 44, 92
3, 14970, Note_on_c, 9, 44, 0
3, 14970, Note_on_c, 9, 42, 96
3, 15000, Note_on_c, 9, 42, 0
3, 15000, Note_on_c, 9, 40, 110
3, 15000, Note_on_c, 9, 46, 104
3, 15030, Note_on_c, 9, 46, 0
3, 15060, Note_on_c, 9, 44, 92
3, 15090, Note_on_c, 9, 44, 0
3, 15090, Note_on_c, 9, 40, 0
3, 15090, Note_on_c, 9, 42, 104
3, 15120, Note_on_c, 9, 42, 0
3, 15120, Note_on_c, 9, 36, 110
3, 15120, Note_on_c, 9, 46, 109
3, 15150, Note_on_c, 9, 46, 0
3, 15180, Note_on_c, 9, 44, 104
3, 15210, Note_on_c, 9, 44, 0
3, 15210, Note_on_c, 9, 36, 0
3, 15210, Note_on_c, 9, 42, 104
3, 15240, Note_on_c, 9, 42, 0
3, 15240, Note_on_c, 9, 40, 113
3, 15240, Note_on_c, 9, 46, 109
3, 15270, Note_on_c, 9, 46, 0
3, 15270, Note_on_c, 9, 40, 0
3, 15300, Note_on_c, 9, 36, 90
3, 15300, Note_on_c, 9, 44, 104
3, 15330, Note_on_c, 9, 44, 0
3, 15330, Note_on_c, 9, 36, 0
3, 15330, Note_on_c, 9, 42, 96
3, 15360, Note_on_c, 9, 42, 0
3, 15360, Note_on_c, 9, 36, 117
3, 15360, Note_on_c, 9, 46, 109
3, 15390, Note_on_c, 9, 46, 0
3, 15420, Note_on_c, 9, 36, 0
3, 15420, Note_on_c, 9, 44, 104
3, 15450, Note_on_c, 9, 44, 0
3, 15450, Note_on_c, 9, 42, 92
3, 15480, Note_on_c, 9, 42, 0
3, 15480, Note_on_c, 9, 40, 113
3, 15480, Note_on_c, 9, 46, 104
3, 15510, Note_on_c, 9, 46, 0
3, 15540, Note_on_c, 9, 40, 0
3, 15540, Note_on_c, 9, 44, 96
3, 15570, Note_on_c, 9, 44, 0
3, 15570, Note_on_c, 9, 42, 96
3, 15600, Note_on_c, 9, 42, 0
3, 15600, Note_on_c, 9, 36, 120
3, 15600, Note_on_c, 9, 46, 109
3, 15630, Note_on_c, 9, 46, 0
3, 15660, Note_on_c, 9, 44, 96
3, 15690, Note_on_c, 9, 44, 0
3, 15690, Note_on_c, 9, 36, 0
3, 15690, Note_on_c, 9, 42, 100
3, 15720, Note_on_c, 9, 42, 0
3, 15720, Note_on_c, 9, 40, 113
3, 15720, Note_on_c, 9, 46, 114
3, 15750, Note_on_c, 9, 46, 0
3, 15780, Note_on_c, 9, 40, 0
3, 15780, Note_on_c, 9, 36, 80
3, 15780, Note_on_c, 9, 44, 96
3, 15810, Note_on_c, 9, 44, 0
3, 15810, Note_on_c, 9, 36, 0
3, 15810, Note_on_c, 9, 42, 54
3, 15840, Note_on_c, 9, 42, 0
3, 15840, Note_on_c, 9, 36, 107
3, 15840, Note_on_c, 9, 46, 71
3, 15840, Note_on_c, 9, 46, 104
3, 15870, Note_on_c, 9, 46, 0
3, 15900, Note_on_c, 9, 46, 0
3, 15900, Note_on_c, 9, 36, 0
3, 15900, Note_on_c, 9, 44, 60
3, 15930, Note_on_c, 9, 44, 0
3, 15930, Note_on_c, 9, 42, 104
3, 15960, Note_on_c, 9, 42, 0
3, 15960, Note_on_c, 9, 40, 117
3, 15960, Note_on_c, 9, 46, 109
3, 16020, Note_on_c, 9, 46, 0
3, 16020, Note_on_c, 9, 40, 0
3, 16020, Note_on_c, 9, 44, 64
3, 16050, Note_on_c, 9, 44, 0
3, 16050, Note_on_c, 9, 42, 104
3, 16080, Note_on_c, 9, 42, 0
3, 16080, Note_on_c, 9, 36, 53
3, 16080, Note_on_c, 9, 46, 104
3, 16140, Note_on_c, 9, 46, 0
3, 16140, Note_on_c, 9, 44, 79
3, 16170, Note_on_c, 9, 44, 0
3, 16170, Note_on_c, 9, 36, 0
3, 16170, Note_on_c, 9, 42, 104
3, 16200, Note_on_c, 9, 42, 0
3, 16200, Note_on_c, 9, 40, 117
3, 16200, Note_on_c, 9, 46, 114
3, 16260, Note_on_c, 9, 46, 0
3, 16260, Note_on_c, 9, 40, 0
3, 16260, Note_on_c, 9, 36, 79
3, 16260, Note_on_c, 9, 44, 84
3, 16290, Note_on_c, 9, 44, 0
3, 16290, Note_on_c, 9, 36, 0
3, 16290, Note_on_c, 9, 42, 100
3, 16320, Note_on_c, 9, 42, 0
3, 16320, Note_on_c, 9, 36, 117
3, 16320, Note_on_c, 9, 46, 119
3, 16380, Note_on_c, 9, 46, 0
3, 16380, Note_on_c, 9, 36, 0
3, 16410, Note_on_c, 9, 44, 75
3, 16440, Note_on_c, 9, 44, 0
3, 16440, Note_on_c, 9, 40, 110
3, 16440, Note_on_c, 9, 42, 100
3, 16440, Note_on_c, 9, 46, 92
3, 16470, Note_on_c, 9, 46, 0
3, 16470, Note_on_c, 9, 42, 0
3, 16500, Note_on_c, 9, 40, 0
3, 16500, Note_on_c, 9, 44, 81
3, 16530, Note_on_c, 9, 44, 0
3, 16530, Note_on_c, 9, 42, 96
3, 16560, Note_on_c, 9, 42, 0
3, 16560, Note_on_c, 9, 36, 113
3, 16560, Note_on_c, 9, 46, 100
3, 16590, Note_on_c, 9, 46, 0
3, 16620, Note_on_c, 9, 44, 89
3, 16650, Note_on_c, 9, 44, 0
3, 16650, Note_on_c, 9, 36, 0
3, 16650, Note_on_c, 9, 42, 92
3, 16680, Note_on_c, 9, 42, 0
3, 16680, Note_on_c, 9, 40, 110
3, 16680, Note_on_c, 9, 46, 109
3, 16710, Note_on_c, 9, 46, 0
3, 16740, Note_on_c, 9, 40, 0
3, 16740, Note_on_c, 9, 36, 88
3, 16740, Note_on_c, 9, 44, 77
3, 16770, Note_on_c, 9, 44, 0
3, 16770, Note_on_c, 9, 36, 0
3, 16770, Note_on_c, 9, 42, 92
3, 16800, Note_on_c, 9, 42, 0
3, 16800, Note_on_c, 9, 36, 110
3, 16800, Note_on_c, 9, 46, 114
3, 16830, Note_on_c, 9, 46, 0
3, 16860, Note_on_c, 9, 36, 0
3, 16860, Note_on_c, 9, 44, 77
3, 16890, Note_on_c, 9, 44, 0
3, 16890, Note_on_c, 9, 42, 96
3, 16920, Note_on_c, 9, 42, 0
3, 16920, Note_on_c, 9, 40, 110
3, 16920, Note_on_c, 9, 42, 38
3, 16920, Note_on_c, 9, 46, 109
3, 16950, Note_on_c, 9, 46, 0
3, 16950, Note_on_c, 9, 42, 0
3, 16980, Note_on_c, 9, 44, 86
3, 17010, Note_on_c, 9, 44, 0
3, 17010, Note_on_c, 9, 40, 0
3, 17010, Note_on_c, 9, 42, 100
3, 17040, Note_on_c, 9, 42, 0
3, 17040, Note_on_c, 9, 36, 110
3, 17040, Note_on_c, 9, 46, 109
3, 17070, Note_on_c, 9, 46, 0
3, 17100, Note_on_c, 9, 44, 92
3, 17130, Note_on_c, 9, 44, 0
3, 17130, Note_on_c, 9, 36, 0
3, 17130, Note_on_c, 9, 42, 100
3, 17160, Note_on_c, 9, 42, 0
3, 17160, Note_on_c, 9, 40, 110
3, 17160, Note_on_c, 9, 46, 114
3, 17190, Note_on_c, 9, 46, 0
3, 17220, Note_on_c, 9, 40, 0
3, 17220, Note_on_c, 9, 36, 70
3, 17220, Note_on_c, 9, 44, 84
3, 17250, Note_on_c, 9, 44, 0
3, 17250, Note_on_c, 9, 36, 0
3, 17250, Note_on_c, 9, 42, 100
3, 17280, Note_on_c, 9, 42, 0
3, 17280, Note_on_c, 9, 36, 120
3, 17280, Note_on_c, 9, 46, 109
3, 17310, Note_on_c, 9, 46, 0
3, 17340, Note_on_c, 9, 44, 84
3, 17370, Note_on_c, 9, 44, 0
3, 17370, Note_on_c, 9, 36, 0
3, 17370, Note_on_c, 9, 42, 89
3, 17400, Note_on_c, 9, 42, 0
3, 17400, Note_on_c, 9, 40, 113
3, 17400, Note_on_c, 9, 46, 114
3, 17430, Note_on_c, 9, 46, 0
3, 17460, Note_on_c, 9, 44, 92
3, 17490, Note_on_c, 9, 44, 0
3, 17490, Note_on_c, 9, 40, 0
3, 17490, Note_on_c, 9, 42, 96
3, 17520, Note_on_c, 9, 42, 0
3, 17520, Note_on_c, 9, 36, 113
3, 17520, Note_on_c, 9, 46, 114
3, 17550, Note_on_c, 9, 46, 0
3, 17580, Note_on_c, 9, 44, 100
3, 17610, Note_on_c, 9, 44, 0
3, 17610, Note_on_c, 9, 36, 0
3, 17610, Note_on_c, 9, 42, 100
3, 17640, Note_on_c, 9, 42, 0
3, 17640, Note_on_c, 9, 40, 110
3, 17640, Note_on_c, 9, 46, 114
3, 17670, Note_on_c, 9, 46, 0
3, 17700, Note_on_c, 9, 40, 0
3, 17700, Note_on_c, 9, 36, 74
3, 17700, Note_on_c, 9, 44, 100
3, 17730, Note_on_c, 9, 44, 0
3, 17730, Note_on_c, 9, 36, 0
3, 17730, Note_on_c, 9, 42, 109
3, 17760, Note_on_c, 9, 42, 0
3, 17760, Note_on_c, 9, 36, 113
3, 17760, Note_on_c, 9, 46, 109
3, 17790, Note_on_c, 9, 46, 0
3, 17820, Note_on_c, 9, 36, 0
3, 17820, Note_on_c, 9, 44, 96
3, 17850, Note_on_c, 9, 44, 0
3, 17850, Note_on_c, 9, 42, 100
3, 17880, Note_on_c, 9, 42, 0
3, 17880, Note_on_c, 9, 40, 110
3, 17880, Note_on_c, 9, 46, 114
3, 17910, Note_on_c, 9, 46, 0
3, 17940, Note_on_c, 9, 44, 92
3, 17970, Note_on_c, 9, 44, 0
3, 17970, Note_on_c, 9, 40, 0
3, 17970, Note_on_c, 9, 42, 100
3, 18000, Note_on_c, 9, 42, 0
3, 18000, Note_on_c, 9, 36, 120
3, 18000, Note_on_c, 9, 46, 114
3, 18030, Note_on_c, 9, 46, 0
3, 18060, Note_on_c, 9, 44, 96
3, 18090, Note_on_c, 9, 44, 0
3, 18090, Note_on_c, 9, 36, 0
3, 18090, Note_on_c, 9, 42, 100
3, 18120, Note_on_c, 9, 42, 0
3, 18120, Note_on_c, 9, 40, 117
3, 18120, Note_on_c, 9, 46, 100
3, 18150, Note_on_c, 9, 46, 0
3, 18180, Note_on_c, 9, 40, 0
3, 18180, Note_on_c, 9, 36, 92
3, 18180, Note_on_c, 9, 44, 89
3, 18210, Note_on_c, 9, 44, 0
3, 18210, Note_on_c, 9, 36, 0
3, 18210, Note_on_c, 9, 42, 92
3, 18240, Note_on_c, 9, 42, 0
3, 18240, Note_on_c, 9, 36, 110
3, 18240, Note_on_c, 9, 46, 104
3, 18270, Note_on_c, 9, 46, 0
3, 18300, Note_on_c, 9, 36, 0
3, 18300, Note_on_c, 9, 44, 81
3, 18330, Note_on_c, 9, 44, 0
3, 18330, Note_on_c, 9, 42, 96
3, 18360, Note_on_c, 9, 42, 0
3, 18360, Note_on_c, 9, 40, 110
3, 18360, Note_on_c, 9, 46, 109
3, 18390, Note_on_c, 9, 46, 0
3, 18420, Note_on_c, 9, 40, 0
3, 18420, Note_on_c, 9, 44, 81
3, 18450, Note_on_c, 9, 44, 0
3, 18450, Note_on_c, 9, 42, 96
3, 18480, Note_on_c, 9, 42, 0
3, 18480, Note_on_c, 9, 36, 120
3, 18480, Note_on_c, 9, 46, 109
3, 18510, Note_on_c, 9, 46, 0
3, 18540, Note_on_c, 9, 36, 0
3, 18540, Note_on_c, 9, 44, 92
3, 18570, Note_on_c, 9, 44, 0
3, 18570, Note_on_c, 9, 42, 86
3, 18600, Note_on_c, 9, 42, 0
3, 18600, Note_on_c, 9, 40, 120
3, 18600, Note_on_c, 9, 46, 109
3, 18630, Note_on_c, 9, 46, 0
3, 18660, Note_on_c, 9, 40, 0
3, 18660, Note_on_c, 9, 36, 59
3, 18660, Note_on_c, 9, 44, 92
3, 18690, Note_on_c, 9, 44, 0
3, 18690, Note_on_c, 9, 36, 0
3, 18690, Note_on_c, 9, 42, 104
3, 18720, Note_on_c, 9, 42, 0
3, 18720, Note_on_c, 9, 36, 113
3, 18720, Note_on_c, 9, 46, 114
3, 18750, Note_on_c, 9, 46, 0
3, 18780, Note_on_c, 9, 36, 0
3, 18780, Note_on_c, 9, 44, 92
3, 18810, Note_on_c, 9, 44, 0
3, 18810, Note_on_c, 9, 42, 96
3, 18840, Note_on_c, 9, 42, 0
3, 18840, Note_on_c, 9, 40, 110
3, 18840, Note_on_c, 9, 46, 104
3, 18870, Note_on_c, 9, 46, 0
3, 18900, Note_on_c, 9, 44, 92
3, 18930, Note_on_c, 9, 44, 0
3, 18930, Note_on_c, 9, 40, 0
3, 18930, Note_on_c, 9, 42, 104
3, 18960, Note_on_c, 9, 42, 0
3, 18960, Note_on_c, 9, 36, 110
3, 18960, Note_on_c, 9, 46, 109
3, 18990, Note_on_c, 9, 46, 0
3, 19020, Note_on_c, 9, 44, 104
3, 19050, Note_on_c, 9, 44, 0
3, 19050, Note_on_c, 9, 36, 0
3, 19050, Note_on_c, 9, 42, 104
3, 19080, Note_on_c, 9, 42, 0
3, 19080, Note_on_c, 9, 40, 113
3, 19080, Note_on_c, 9, 46, 109
3, 19110, Note_on_c, 9, 46, 0
3, 19110, Note_on_c, 9, 40, 0
3, 19140, Note_on_c, 9, 36, 90
3, 19140, Note_on_c, 9, 44, 104
3, 19170, Note_on_c, 9, 44, 0
3, 19170, Note_on_c, 9, 36, 0
3, 19170, Note_on_c, 9, 42, 96
3, 19200, Note_on_c, 9, 42, 0
3, 19200, Note_on_c, 9, 36, 117
3, 19200, Note_on_c, 9, 46, 109
3, 19230, Note_on_c, 9, 46, 0
3, 19260, Note_on_c, 9, 36, 0
3, 19260, Note_on_c, 9, 44, 104
3, 19290, Note_on_c, 9, 44, 0
3, 19290, Note_on_c, 9, 42, 92
3, 19320, Note_on_c, 9, 42, 0
3, 19320, Note_on_c, 9, 40, 113
3, 19320, Note_on_c, 9, 46, 104
3, 19350, Note_on_c, 9, 46, 0
3, 19380, Note_on_c, 9, 40, 0
3, 19380, Note_on_c, 9, 44, 96
3, 19410, Note_on_c, 9, 44, 0
3, 19410, Note_on_c, 9, 42, 96
3, 19440, Note_on_c, 9, 42, 0
3, 19440, Note_on_c, 9, 47, 126
3, 19440, Note_on_c, 9, 36, 120
3, 19440, Note_on_c, 9, 46, 109
3, 19470, Note_on_c, 9, 46, 0
3, 19470, Note_on_c, 9, 47, 0
3, 19470, Note_on_c, 9, 36, 125
3, 19500, Note_on_c, 9, 36, 0
3, 19500, Note_on_c, 9, 44, 96
3, 19530, Note_on_c, 9, 44, 0
3, 19530, Note_on_c, 9, 36, 0
3, 19530, Note_on_c, 9, 42, 100
3, 19530, Note_on_c, 9, 36, 107
3, 19560, Note_on_c, 9, 36, 0
3, 19560, Note_on_c, 9, 42, 0
3, 19560, Note_on_c, 9, 40, 113
3, 19560, Note_on_c, 9, 46, 114
3, 19560, Note_on_c, 9, 45, 123
3, 19590, Note_on_c, 9, 45, 0
3, 19590, Note_on_c, 9, 46, 0
3, 19590, Note_on_c, 9, 36, 117
3, 19620, Note_on_c, 9, 36, 0
3, 19620, Note_on_c, 9, 40, 0
3, 19620, Note_on_c, 9, 36, 80
3, 19620, Note_on_c, 9, 44, 96
3, 19620, Note_on_c, 9, 43, 92
3, 19650, Note_on_c, 9, 43, 0
3, 19650, Note_on_c, 9, 44, 0
3, 19650, Note_on_c, 9, 36, 0
3, 19650, Note_on_c, 9, 43, 113
3, 19650, Note_on_c, 9, 42, 54
3, 19650, Note_on_c, 9, 41, 97
3, 19680, Note_on_c, 9, 41, 0
3, 19680, Note_on_c, 9, 42, 0
3, 19680, Note_on_c, 9, 43, 0
3, 19680, Note_on_c, 9, 52, 110
3, 19680, Note_on_c, 9, 49, 119
3, 19680, Note_on_c, 9, 53, 94
3, 19680, Note_on_c, 9, 51, 86
3, 19680, Note_on_c, 9, 36, 107
3, 19680, Note_on_c, 9, 46, 71
3, 19680, Note_on_c, 9, 46, 104
3, 19710, Note_on_c, 9, 46, 0
3, 19710, Note_on_c, 9, 53, 0
3, 19710, Note_on_c, 9, 49, 0
3, 19710, Note_on_c, 9, 52, 0
3, 19710, Note_on_c, 9, 51, 0
3, 19740, Note_on_c, 9, 46, 0
3, 19740, Note_on_c, 9, 36, 0
3, 19740, Note_on_c, 9, 44, 60
3, 19770, Note_on_c, 9, 44, 0
3, 19770, Note_on_c, 9, 42, 104
3, 19800, Note_on_c, 9, 42, 0
3, 19800, Note_on_c, 9, 40, 117
3, 19800, Note_on_c, 9, 46, 109
3, 19860, Note_on_c, 9, 46, 0
3, 19860, Note_on_c, 9, 40, 0
3, 19860, Note_on_c, 9, 44, 64
3, 19890, Note_on_c, 9, 44, 0
3, 19890, Note_on_c, 9, 42, 104
3, 19920, Note_on_c, 9, 42, 0
3, 19920, Note_on_c, 9, 36, 53
3, 19920, Note_on_c, 9, 46, 104
3, 19980, Note_on_c, 9, 46, 0
3, 19980, Note_on_c, 9, 44, 79
3, 20010, Note_on_c, 9, 44, 0
3, 20010, Note_on_c, 9, 36, 0
3, 20010, Note_on_c, 9, 42, 104
3, 20040, Note_on_c, 9, 42, 0
3, 20040, Note_on_c, 9, 40, 117
3, 20040, Note_on_c, 9, 46, 114
3, 20100, Note_on_c, 9, 46, 0
3, 20100, Note_on_c, 9, 40, 0
3, 20100, Note_on_c, 9, 36, 79
3, 20100, Note_on_c, 9, 44, 84
3, 20130, Note_on_c, 9, 44, 0
3, 20130, Note_on_c, 9, 36, 0
3, 20130, Note_on_c, 9, 42, 100
3, 20160, Note_on_c, 9, 42, 0
3, 20160, Note_on_c, 9, 36, 117
3, 20160, Note_on_c, 9, 46, 119
3, 20220, Note_on_c, 9, 46, 0
3, 20220, Note_on_c, 9, 36, 0
3, 20250, Note_on_c, 9, 44, 75
3, 20280, Note_on_c, 9, 44, 0
3, 20280, Note_on_c, 9, 40, 110
3, 20280, Note_on_c, 9, 42, 100
3, 20280, Note_on_c, 9, 46, 92
3, 20310, Note_on_c, 9, 46, 0
3, 20310, Note_on_c, 9, 42, 0
3, 20340, Note_on_c, 9, 40, 0
3, 20340, Note_on_c, 9, 44, 81
3, 20370, Note_on_c, 9, 44, 0
3, 20370, Note_on_c, 9, 42, 96
3, 20400, Note_on_c, 9, 42, 0
3, 20400, Note_on_c, 9, 36, 113
3, 20400, Note_on_c, 9, 46, 100
3, 20430, Note_on_c, 9, 46, 0
3, 20460, Note_on_c, 9, 44, 89
3, 20490, Note_on_c, 9, 44, 0
3, 20490, Note_on_c, 9, 36, 0
3, 20490, Note_on_c, 9, 42, 92
3, 20520, Note_on_c, 9, 42, 0
3, 20520, Note_on_c, 9, 40, 110
3, 20520, Note_on_c, 9, 46, 109
3, 20550, Note_on_c, 9, 46, 0
3, 20580, Note_on_c, 9, 40, 0
3, 20580, Note_on_c, 9, 36, 88
3, 20580, Note_on_c, 9, 44, 77
3, 20610, Note_on_c, 9, 44, 0
3, 20610, Note_on_c, 9, 36, 0
3, 20610, Note_on_c, 9, 42, 92
3, 20640, Note_on_c, 9, 42, 0
3, 20640, Note_on_c, 9, 36, 110
3, 20640, Note_on_c, 9, 46, 114
3, 20670, Note_on_c, 9, 46, 0
3, 20700, Note_on_c, 9, 36, 0
3, 20700, Note_on_c, 9, 44, 77
3, 20730, Note_on_c, 9, 44, 0
3, 20730, Note_on_c, 9, 42, 96
3, 20760, Note_on_c, 9, 42, 0
3, 20760, Note_on_c, 9, 40, 110
3, 20760, Note_on_c, 9, 42, 38
3, 20760, Note_on_c, 9, 46, 109
3, 20790, Note_on_c, 9, 46, 0
3, 20790, Note_on_c, 9, 42, 0
3, 20820, Note_on_c, 9, 44, 86
3, 20850, Note_on_c, 9, 44, 0
3, 20850, Note_on_c, 9, 40, 0
3, 20850, Note_on_c, 9, 42, 100
3, 20880, Note_on_c, 9, 42, 0
3, 20880, Note_on_c, 9, 36, 110
3, 20880, Note_on_c, 9, 46, 109
3, 20910, Note_on_c, 9, 46, 0
3, 20940, Note_on_c, 9, 44, 92
3, 20970, Note_on_c, 9, 44, 0
3, 20970, Note_on_c, 9, 36, 0
3, 20970, Note_on_c, 9, 42, 100
3, 21000, Note_on_c, 9, 42, 0
3, 21000, Note_on_c, 9, 40, 110
3, 21000, Note_on_c, 9, 46, 114
3, 21030, Note_on_c, 9, 46, 0
3, 21060, Note_on_c, 9, 40, 0
3, 21060, Note_on_c, 9, 36, 70
3, 21060, Note_on_c, 9, 44, 84
3, 21090, Note_on_c, 9, 44, 0
3, 21090, Note_on_c, 9, 36, 0
3, 21090, Note_on_c, 9, 42, 100
3, 21120, Note_on_c, 9, 42, 0
3, 21120, Note_on_c, 9, 36, 120
3, 21120, Note_on_c, 9, 46, 109
3, 21150, Note_on_c, 9, 46, 0
3, 21180, Note_on_c, 9, 44, 84
3, 21210, Note_on_c, 9, 44, 0
3, 21210, Note_on_c, 9, 36, 0
3, 21210, Note_on_c, 9, 42, 89
3, 21240, Note_on_c, 9, 42, 0
3, 21240, Note_on_c, 9, 40, 113
3, 21240, Note_on_c, 9, 46, 114
3, 21270, Note_on_c, 9, 46, 0
3, 21300, Note_on_c, 9, 44, 92
3, 21330, Note_on_c, 9, 44, 0
3, 21330, Note_on_c, 9, 40, 0
3, 21330, Note_on_c, 9, 42, 96
3, 21360, Note_on_c, 9, 42, 0
3, 21360, Note_on_c, 9, 36, 113
3, 21360, Note_on_c, 9, 46, 114
3, 21390, Note_on_c, 9, 46, 0
3, 21420, Note_on_c, 9, 44, 100
3, 21450, Note_on_c, 9, 44, 0
3, 21450, Note_on_c, 9, 36, 0
3, 21450, Note_on_c, 9, 42, 100
3, 21480, Note_on_c, 9, 42, 0
3, 21480, Note_on_c, 9, 40, 110
3, 21480, Note_on_c, 9, 46, 114
3, 21510, Note_on_c, 9, 46, 0
3, 21540, Note_on_c, 9, 40, 0
3, 21540, Note_on_c, 9, 36, 74
3, 21540, Note_on_c, 9, 44, 100
3, 21540, Note_on_c, 9, 55, 86
3, 21570, Note_on_c, 9, 55, 0
3, 21570, Note_on_c, 9, 44, 0
3, 21570, Note_on_c, 9, 36, 0
3, 21570, Note_on_c, 9, 42, 109
3, 21600, Note_on_c, 9, 42, 0
3, 21600, Note_on_c, 9, 36, 113
3, 21600, Note_on_c, 9, 46, 109
3, 21600, Note_on_c, 9, 57, 123
3, 21630, Note_on_c, 9, 57, 0
3, 21630, Note_on_c, 9, 46, 0
3, 21660, Note_on_c, 9, 36, 0
3, 21660, Note_on_c, 9, 44, 96
3, 21690, Note_on_c, 9, 44, 0
3, 21690, Note_on_c, 9, 42, 100
3, 21720, Note_on_c, 9, 42, 0
3, 21720, Note_on_c, 9, 40, 110
3, 21720, Note_on_c, 9, 46, 114
3, 21750, Note_on_c, 9, 46, 0
3, 21780, Note_on_c, 9, 44, 92
3, 21810, Note_on_c, 9, 44, 0
3, 21810, Note_on_c, 9, 40, 0
3, 21810, Note_on_c, 9, 42, 100
3, 21840, Note_on_c, 9, 42, 0
3, 21840, Note_on_c, 9, 36, 120
3, 21840, Note_on_c, 9, 46, 114
3, 21870, Note_on_c, 9, 46, 0
3, 21900, Note_on_c, 9, 44, 96
3, 21930, Note_on_c, 9, 44, 0
3, 21930, Note_on_c, 9, 36, 0
3, 21930, Note_on_c, 9, 42, 100
3, 21960, Note_on_c, 9, 42, 0
3, 21960, Note_on_c, 9, 40, 117
3, 21960, Note_on_c, 9, 46, 100
3, 21990, Note_on_c, 9, 46, 0
3, 22020, Note_on_c, 9, 40, 0
3, 22020, Note_on_c, 9, 36, 92
3, 22020, Note_on_c, 9, 44, 89
3, 22050, Note_on_c, 9, 44, 0
3, 22050, Note_on_c, 9, 36, 0
3, 22050, Note_on_c, 9, 42, 92
3, 22080, Note_on_c, 9, 42, 0
3, 22080, Note_on_c, 9, 36, 110
3, 22080, Note_on_c, 9, 46, 104
3, 22110, Note_on_c, 9, 46, 0
3, 22140, Note_on_c, 9, 36, 0
3, 22140, Note_on_c, 9, 44, 81
3, 22170, Note_on_c, 9, 44, 0
3, 22170, Note_on_c, 9, 42, 96
3, 22200, Note_on_c, 9, 42, 0
3, 22200, Note_on_c, 9, 40, 110
3, 22200, Note_on_c, 9, 46, 109
3, 22230, Note_on_c, 9, 46, 0
3, 22260, Note_on_c, 9, 40, 0
3, 22260, Note_on_c, 9, 44, 81
3, 22290, Note_on_c, 9, 44, 0
3, 22290, Note_on_c, 9, 42, 96
3, 22320, Note_on_c, 9, 42, 0
3, 22320, Note_on_c, 9, 36, 120
3, 22320, Note_on_c, 9, 46, 109
3, 22350, Note_on_c, 9, 46, 0
3, 22380, Note_on_c, 9, 36, 0
3, 22380, Note_on_c, 9, 44, 92
3, 22410, Note_on_c, 9, 44, 0
3, 22410, Note_on_c, 9, 42, 86
3, 22440, Note_on_c, 9, 42, 0
3, 22440, Note_on_c, 9, 40, 120
3, 22440, Note_on_c, 9, 46, 109
3, 22470, Note_on_c, 9, 46, 0
3, 22500, Note_on_c, 9, 40, 0
3, 22500, Note_on_c, 9, 36, 59
3, 22500, Note_on_c, 9, 44, 92
3, 22530, Note_on_c, 9, 44, 0
3, 22530, Note_on_c, 9, 36, 0
3, 22530, Note_on_c, 9, 42, 104
3, 22560, Note_on_c, 9, 42, 0
3, 22560, Note_on_c, 9, 36, 113
3, 22560, Note_on_c, 9, 46, 114
3, 22590, Note_on_c, 9, 46, 0
3, 22620, Note_on_c, 9, 36, 0
3, 22620, Note_on_c, 9, 44, 92
3, 22650, Note_on_c, 9, 44, 0
3, 22650, Note_on_c, 9, 42, 96
3, 22680, Note_on_c, 9, 42, 0
3, 22680, Note_on_c, 9, 40, 110
3, 22680, Note_on_c, 9, 46, 104
3, 22710, Note_on_c, 9, 46, 0
3, 22740, Note_on_c, 9, 44, 92
3, 22770, Note_on_c, 9, 44, 0
3, 22770, Note_on_c, 9, 40, 0
3, 22770, Note_on_c, 9, 42, 104
3, 22800, Note_on_c, 9, 42, 0
3, 22800, Note_on_c, 9, 36, 110
3, 22800, Note_on_c, 9, 46, 109
3, 22830, Note_on_c, 9, 46, 0
3, 22860, Note_on_c, 9, 44, 104
3, 22890, Note_on_c, 9, 44, 0
3, 22890, Note_on_c, 9, 36, 0
3, 22890, Note_on_c, 9, 42, 104
3, 22920, Note_on_c, 9, 42, 0
3, 22920, Note_on_c, 9, 40, 113
3, 22920, Note_on_c, 9, 46, 109
3, 22950, Note_on_c, 9, 46, 0
3, 22950, Note_on_c, 9, 40, 0
3, 22980, Note_on_c, 9, 36, 90
3, 22980, Note_on_c, 9, 44, 104
3, 23010, Note_on_c, 9, 44, 0
3, 23010, Note_on_c, 9, 36, 0
3, 23010, Note_on_c, 9, 42, 96
3, 23040, Note_on_c, 9, 42, 0
3, 23040, Note_on_c, 9, 36, 117
3, 23040, Note_on_c, 9, 46, 109
3, 23070, Note_on_c, 9, 46, 0
3, 23100, Note_on_c, 9, 36, 0
3, 23100, Note_on_c, 9, 44, 104
3, 23130, Note_on_c, 9, 44, 0
3, 23130, Note_on_c, 9, 42, 92
3, 23160, Note_on_c, 9, 42, 0
3, 23160, Note_on_c, 9, 40, 113
3, 23160, Note_on_c, 9, 46, 104
3, 23190, Note_on_c, 9, 46, 0
3, 23220, Note_on_c, 9, 40, 0
3, 23220, Note_on_c, 9, 44, 96
3, 23250, Note_on_c, 9, 44, 0
3, 23250, Note_on_c, 9, 42, 96
3, 23280, Note_on_c, 9, 42, 0
3, 23280, Note_on_c, 9, 36, 120
3, 23280, Note_on_c, 9, 46, 109
3, 23310, Note_on_c, 9, 46, 0
3, 23340, Note_on_c, 9, 44, 96
3, 23370, Note_on_c, 9, 44, 0
3, 23370, Note_on_c, 9, 36, 0
3, 23370, Note_on_c, 9, 42, 100
3, 23400, Note_on_c, 9, 42, 0
3, 23400, Note_on_c, 9, 40, 113
3, 23400, Note_on_c, 9, 46, 114
3, 23400, Note_on_c, 9, 38, 125
3, 23430, Note_on_c, 9, 38, 0
3, 23430, Note_on_c, 9, 46, 0
3, 23460, Note_on_c, 9, 40, 0
3, 23460, Note_on_c, 9, 36, 80
3, 23460, Note_on_c, 9, 44, 96
3, 23460, Note_on_c, 9, 36, 110
3, 23490, Note_on_c, 9, 36, 0
3, 23490, Note_on_c, 9, 44, 0
3, 23490, Note_on_c, 9, 36, 0
3, 23490, Note_on_c, 9, 42, 54
3, 23520, Note_on_c, 9, 42, 0
3, 23520, Note_on_c, 9, 52, 107
3, 23520, Note_on_c, 9, 36, 107
3, 23520, Note_on_c, 9, 46, 71
3, 23520, Note_on_c, 9, 46, 104
3, 23520, Note_on_c, 9, 49, 114
3, 23550, Note_on_c, 9, 49, 0
3, 23550, Note_on_c, 9, 46, 0
3, 23550, Note_on_c, 9, 52, 0
3, 23580, Note_on_c, 9, 36, 0
3, 23580, Note_on_c, 9, 46, 0
3, 23580, Note_on_c, 9, 44, 60
3, 23610, Note_on_c, 9, 44, 0
3, 23610, Note_on_c, 9, 42, 104
3, 23640, Note_on_c, 9, 42, 0
3, 23640, Note_on_c, 9, 40, 117
3, 23640, Note_on_c, 9, 46, 109
3, 23700, Note_on_c, 9, 46, 0
3, 23700, Note_on_c, 9, 40, 0
3, 23700, Note_on_c, 9, 44, 64
3, 23730, Note_on_c, 9, 44, 0
3, 23730, Note_on_c, 9, 42, 104
3, 23760, Note_on_c, 9, 42, 0
3, 23760, Note_on_c, 9, 36, 53
3, 23760, Note_on_c, 9, 46, 104
3, 23820, Note_on_c, 9, 46, 0
3, 23820, Note_on_c, 9, 44, 79
3, 23850, Note_on_c, 9, 44, 0
3, 23850, Note_on_c, 9, 36, 0
3, 23850, Note_on_c, 9, 42, 104
3, 23880, Note_on_c, 9, 42, 0
3, 23880, Note_on_c, 9, 40, 117
3, 23880, Note_on_c, 9, 46, 114
3, 23940, Note_on_c, 9, 46, 0
3, 23940, Note_on_c, 9, 40, 0
3, 23940, Note_on_c, 9, 36, 79
3, 23940, Note_on_c, 9, 44, 84
3, 23970, Note_on_c, 9, 44, 0
3, 23970, Note_on_c, 9, 36, 0
3, 23970, Note_on_c, 9, 42, 100
3, 24000, Note_on_c, 9, 42, 0
3, 24000, Note_on_c, 9, 36, 117
3, 24000, Note_on_c, 9, 46, 119
3, 24060, Note_on_c, 9, 46, 0
3, 24060, Note_on_c, 9, 36, 0
3, 24090, Note_on_c, 9, 44, 75
3, 24120, Note_on_c, 9, 44, 0
3, 24120, Note_on_c, 9, 40, 110
3, 24120, Note_on_c, 9, 42, 100
3, 24120, Note_on_c, 9, 46, 92
3, 24150, Note_on_c, 9, 46, 0
3, 24150, Note_on_c, 9, 42, 0
3, 24180, Note_on_c, 9, 40, 0
3, 24180, Note_on_c, 9, 44, 81
3, 24210, Note_on_c, 9, 44, 0
3, 24210, Note_on_c, 9, 42, 96
3, 24240, Note_on_c, 9, 42, 0
3, 24240, Note_on_c, 9, 36, 113
3, 24240, Note_on_c, 9, 46, 100
3, 24270, Note_on_c, 9, 46, 0
3, 24300, Note_on_c, 9, 44, 89
3, 24330, Note_on_c, 9, 44, 0
3, 24330, Note_on_c, 9, 36, 0
3, 24330, Note_on_c, 9, 42, 92
3, 24360, Note_on_c, 9, 42, 0
3, 24360, Note_on_c, 9, 40, 110
3, 24360, Note_on_c, 9, 46, 109
3, 24390, Note_on_c, 9, 46, 0
3, 24420, Note_on_c, 9, 40, 0
3, 24420, Note_on_c, 9, 36, 88
3, 24420, Note_on_c, 9, 44, 77
3, 24450, Note_on_c, 9, 44, 0
3, 24450, Note_on_c, 9, 36, 0
3, 24450, Note_on_c, 9, 42, 92
3, 24480, Note_on_c, 9, 42, 0
3, 24480, Note_on_c, 9, 36, 110
3, 24480, Note_on_c, 9, 46, 114
3, 24510, Note_on_c, 9, 46, 0
3, 24540, Note_on_c, 9, 36, 0
3, 24540, Note_on_c, 9, 44, 77
3, 24570, Note_on_c, 9, 44, 0
3, 24570, Note_on_c, 9, 42, 96
3, 24600, Note_on_c, 9, 42, 0
3, 24600, Note_on_c, 9, 40, 110
3, 24600, Note_on_c, 9, 42, 38
3, 24600, Note_on_c, 9, 46, 109
3, 24630, Note_on_c, 9, 46, 0
3, 24630, Note_on_c, 9, 42, 0
3, 24660, Note_on_c, 9, 44, 86
3, 24690, Note_on_c, 9, 44, 0
3, 24690, Note_on_c, 9, 40, 0
3, 24690, Note_on_c, 9, 42, 100
3, 24720, Note_on_c, 9, 42, 0
3, 24720, Note_on_c, 9, 36, 110
3, 24720, Note_on_c, 9, 46, 109
3, 24750, Note_on_c, 9, 46, 0
3, 24780, Note_on_c, 9, 44, 92
3, 24810, Note_on_c, 9, 44, 0
3, 24810, Note_on_c, 9, 36, 0
3, 24810, Note_on_c, 9, 42, 100
3, 24840, Note_on_c, 9, 42, 0
3, 24840, Note_on_c, 9, 40, 110
3, 24840, Note_on_c, 9, 46, 114
3, 24870, Note_on_c, 9, 46, 0
3, 24900, Note_on_c, 9, 40, 0
3, 24900, Note_on_c, 9, 36, 70
3, 24900, Note_on_c, 9, 44, 84
3, 24930, Note_on_c, 9, 44, 0
3, 24930, Note_on_c, 9, 36, 0
3, 24930, Note_on_c, 9, 42, 100
3, 24960, Note_on_c, 9, 42, 0
3, 24960, Note_on_c, 9, 36, 120
3, 24960, Note_on_c, 9, 46, 109
3, 24990, Note_on_c, 9, 46, 0
3, 25020, Note_on_c, 9, 44, 84
3, 25050, Note_on_c, 9, 44, 0
3, 25050, Note_on_c, 9, 36, 0
3, 25050, Note_on_c, 9, 42, 89
3, 25080, Note_on_c, 9, 42, 0
3, 25080, Note_on_c, 9, 40, 113
3, 25080, Note_on_c, 9, 46, 114
3, 25110, Note_on_c, 9, 46, 0
3, 25140, Note_on_c, 9, 44, 92
3, 25170, Note_on_c, 9, 44, 0
3, 25170, Note_on_c, 9, 40, 0
3, 25170, Note_on_c, 9, 42, 96
3, 25200, Note_on_c, 9, 42, 0
3, 25200, Note_on_c, 9, 36, 113
3, 25200, Note_on_c, 9, 46, 114
3, 25230, Note_on_c, 9, 46, 0
3, 25260, Note_on_c, 9, 44, 100
3, 25290, Note_on_c, 9, 44, 0
3, 25290, Note_on_c, 9, 36, 0
3, 25290, Note_on_c, 9, 42, 100
3, 25320, Note_on_c, 9, 42, 0
3, 25320, Note_on_c, 9, 40, 110
3, 25320, Note_on_c, 9, 46, 114
3, 25350, Note_on_c, 9, 46, 0
3, 25380, Note_on_c, 9, 40, 0
3, 25380, Note_on_c, 9, 36, 74
3, 25380, Note_on_c, 9, 44, 100
3, 25410, Note_on_c, 9, 44, 0
3, 25410, Note_on_c, 9, 36, 0
3, 25410, Note_on_c, 9, 42, 109
3, 25440, Note_on_c, 9, 42, 0
3, 25440, Note_on_c, 9, 36, 113
3, 25440, Note_on_c, 9, 46, 109
3, 25470, Note_on_c, 9, 46, 0
3, 25500, Note_on_c, 9, 36, 0
3, 25500, Note_on_c, 9, 44, 96
3, 25530, Note_on_c, 9, 44, 0
3, 25530, Note_on_c, 9, 42, 100
3, 25560, Note_on_c, 9, 42, 0
3, 25560, Note_on_c, 9, 40, 110
3, 25560, Note_on_c, 9, 46, 114
3, 25590, Note_on_c, 9, 46, 0
3, 25620, Note_on_c, 9, 44, 92
3, 25650, Note_on_c, 9, 44, 0
3, 25650, Note_on_c, 9, 40, 0
3, 25650, Note_on_c, 9, 42, 100
3, 25680, Note_on_c, 9, 42, 0
3, 25680, Note_on_c, 9, 36, 120
3, 25680, Note_on_c, 9, 46, 114
3, 25710, Note_on_c, 9, 46, 0
3, 25740, Note_on_c, 9, 44, 96
3, 25770, Note_on_c, 9, 44, 0
3, 25770, Note_on_c, 9, 36, 0
3, 25770, Note_on_c, 9, 42, 100
3, 25800, Note_on_c, 9, 42, 0
3, 25800, Note_on_c, 9, 40, 117
3, 25800, Note_on_c, 9, 46, 100
3, 25830, Note_on_c, 9, 46, 0
3, 25860, Note_on_c, 9, 40, 0
3, 25860, Note_on_c, 9, 36, 92
3, 25860, Note_on_c, 9, 44, 89
3, 25890, Note_on_c, 9, 44, 0
3, 25890, Note_on_c, 9, 36, 0
3, 25890, Note_on_c, 9, 42, 92
3, 25920, Note_on_c, 9, 42, 0
3, 25920, Note_on_c, 9, 36, 110
3, 25920, Note_on_c, 9, 46, 104
3, 25950, Note_on_c, 9, 46, 0
3, 25980, Note_on_c, 9, 36, 0
3, 25980, Note_on_c, 9, 44, 81
3, 26010, Note_on_c, 9, 44, 0
3, 26010, Note_on_c, 9, 42, 96
3, 26040, Note_on_c, 9, 42, 0
3, 26040, Note_on_c, 9, 40, 110
3, 26040, Note_on_c, 9, 46, 109
3, 26070, Note_on_c, 9, 46, 0
3, 26100, Note_on_c, 9, 40, 0
3, 26100, Note_on_c, 9, 44, 81
3, 26130, Note_on_c, 9, 44, 0
3, 26130, Note_on_c, 9, 42, 96
3, 26160, Note_on_c, 9, 42, 0
3, 26160, Note_on_c, 9, 36, 120
3, 26160, Note_on_c, 9, 46, 109
3, 26190, Note_on_c, 9, 46, 0
3, 26220, Note_on_c, 9, 36, 0
3, 26220, Note_on_c, 9, 44, 92
3, 26250, Note_on_c, 9, 44, 0
3, 26250, Note_on_c, 9, 42, 86
3, 26280, Note_on_c, 9, 42, 0
3, 26280, Note_on_c, 9, 40, 120
3, 26280, Note_on_c, 9, 46, 109
3, 26310, Note_on_c, 9, 46, 0
3, 26340, Note_on_c, 9, 40, 0
3, 26340, Note_on_c, 9, 36, 59
3, 26340, Note_on_c, 9, 44, 92
3, 26370, Note_on_c, 9, 44, 0
3, 26370, Note_on_c, 9, 36, 0
3, 26370, Note_on_c, 9, 42, 104
3, 26400, Note_on_c, 9, 42, 0
3, 26400, Note_on_c, 9, 36, 113
3, 26400, Note_on_c, 9, 46, 114
3, 26430, Note_on_c, 9, 46, 0
3, 26460, Note_on_c, 9, 36, 0
3, 26460, Note_on_c, 9, 44, 92
3, 26490, Note_on_c, 9, 44, 0
3, 26490, Note_on_c, 9, 42, 96
3, 26520, Note_on_c, 9, 42, 0
3, 26520, Note_on_c, 9, 40, 110
3, 26520, Note_on_c, 9, 46, 104
3, 26550, Note_on_c, 9, 46, 0
3, 26580, Note_on_c, 9, 44, 92
3, 26610, Note_on_c, 9, 44, 0
3, 26610, Note_on_c, 9, 40, 0
3, 26610, Note_on_c, 9, 42, 104
3, 26640, Note_on_c, 9, 42, 0
3, 26640, Note_on_c, 9, 36, 110
3, 26640, Note_on_c, 9, 46, 109
3, 26670, Note_on_c, 9, 46, 0
3, 26700, Note_on_c, 9, 44, 104
3, 26730, Note_on_c, 9, 44, 0
3, 26730, Note_on_c, 9, 36, 0
3, 26730, Note_on_c, 9, 42, 104
3, 26760, Note_on_c, 9, 42, 0
3, 26760, Note_on_c, 9, 40, 113
3, 26760, Note_on_c, 9, 46, 109
3, 26790, Note_on_c, 9, 46, 0
3, 26790, Note_on_c, 9, 40, 0
3, 26820, Note_on_c, 9, 36, 90
3, 26820, Note_on_c, 9, 44, 104
3, 26850, Note_on_c, 9, 44, 0
3, 26850, Note_on_c, 9, 36, 0
3, 26850, Note_on_c, 9, 42, 96
3, 26880, Note_on_c, 9, 42, 0
3, 26880, Note_on_c, 9, 36, 117
3, 26880, Note_on_c, 9, 46, 109
3, 26910, Note_on_c, 9, 46, 0
3, 26940, Note_on_c, 9, 36, 0
3, 26940, Note_on_c, 9, 44, 104
3, 26970, Note_on_c, 9, 44, 0
3, 26970, Note_on_c, 9, 42, 92
3, 27000, Note_on_c, 9, 42, 0
3, 27000, Note_on_c, 9, 40, 113
3, 27000, Note_on_c, 9, 46, 104
3, 27030, Note_on_c, 9, 46, 0
3, 27060, Note_on_c, 9, 40, 0
3, 27060, Note_on_c, 9, 44, 96
3, 27090, Note_on_c, 9, 44, 0
3, 27090, Note_on_c, 9, 42, 96
3, 27120, Note_on_c, 9, 42, 0
3, 27120, Note_on_c, 9, 36, 120
3, 27120, Note_on_c, 9, 46, 109
3, 27150, Note_on_c, 9, 46, 0
3, 27180, Note_on_c, 9, 44, 96
3, 27210, Note_on_c, 9, 44, 0
3, 27210, Note_on_c, 9, 36, 0
3, 27210, Note_on_c, 9, 42, 100
3, 27240, Note_on_c, 9, 42, 0
3, 27240, Note_on_c, 9, 40, 113
3, 27240, Note_on_c, 9, 46, 114
3, 27270, Note_on_c, 9, 46, 0
3, 27300, Note_on_c, 9, 40, 0
3, 27300, Note_on_c, 9, 38, 85
3, 27300, Note_on_c, 9, 36, 80
3, 27300, Note_on_c, 9, 44, 96
3, 27330, Note_on_c, 9, 44, 0
3, 27330, Note_on_c, 9, 36, 0
3, 27330, Note_on_c, 9, 38, 0
3, 27330, Note_on_c, 9, 42, 54
3, 27360, Note_on_c, 9, 42, 0
3, 27360, Note_on_c, 9, 36, 107
3, 27360, Note_on_c, 9, 46, 71
3, 27360, Note_on_c, 9, 46, 104
3, 27360, Note_on_c, 9, 57, 101
3, 27360, Note_on_c, 9, 49, 114
3, 27360, Note_on_c, 9, 36, 117
3, 27390, Note_on_c, 9, 49, 0
3, 27390, Note_on_c, 9, 57, 0
3, 27390, Note_on_c, 9, 46, 0
3, 27390, Note_on_c, 9, 36, 0
3, 27420, Note_on_c, 9, 36, 0
3, 27420, Note_on_c, 9, 46, 0
3, 27420, Note_on_c, 9, 44, 60
3, 27450, Note_on_c, 9, 44, 0
3, 27450, Note_on_c, 9, 42, 104
3, 27480, Note_on_c, 9, 42, 0
3, 27480, Note_on_c, 9, 40, 117
3, 27480, Note_on_c, 9, 46, 109
3, 27540, Note_on_c, 9, 46, 0
3, 27540, Note_on_c, 9, 40, 0
3, 27540, Note_on_c, 9, 44, 64
3, 27570, Note_on_c, 9, 44, 0
3, 27570, Note_on_c, 9, 42, 104
3, 27600, Note_on_c, 9, 42, 0
3, 27600, Note_on_c, 9, 36, 53
3, 27600, Note_on_c, 9, 46, 104
3, 27660, Note_on_c, 9, 46, 0
3, 27660, Note_on_c, 9, 44, 79
3, 27690, Note_on_c, 9, 44, 0
3, 27690, Note_on_c, 9, 36, 0
3, 27690, Note_on_c, 9, 42, 104
3, 27720, Note_on_c, 9, 42, 0
3, 27720, Note_on_c, 9, 40, 117
3, 27720, Note_on_c, 9, 46, 114
3, 27780, Note_on_c, 9, 46, 0
3, 27780, Note_on_c, 9, 40, 0
3, 27780, Note_on_c, 9, 36, 79
3, 27780, Note_on_c, 9, 44, 84
3, 27810, Note_on_c, 9, 44, 0
3, 27810, Note_on_c, 9, 36, 0
3, 27810, Note_on_c, 9, 42, 100
3, 27840, Note_on_c, 9, 42, 0
3, 27840, Note_on_c, 9, 36, 117
3, 27840, Note_on_c, 9, 46, 119
3, 27900, Note_on_c, 9, 46, 0
3, 27900, Note_on_c, 9, 36, 0
3, 27930, Note_on_c, 9, 44, 75
3, 27960, Note_on_c, 9, 44, 0
3, 27960, Note_on_c, 9, 40, 110
3, 27960, Note_on_c, 9, 42, 100
3, 27960, Note_on_c, 9, 46, 92
3, 27990, Note_on_c, 9, 46, 0
3, 27990, Note_on_c, 9, 42, 0
3, 28020, Note_on_c, 9, 40, 0
3, 28020, Note_on_c, 9, 44, 81
3, 28050, Note_on_c, 9, 44, 0
3, 28050, Note_on_c, 9, 42, 96
3, 28080, Note_on_c, 9, 42, 0
3, 28080, Note_on_c, 9, 36, 113
3, 28080, Note_on_c, 9, 46, 100
3, 28110, Note_on_c, 9, 46, 0
3, 28140, Note_on_c, 9, 44, 89
3, 28170, Note_on_c, 9, 44, 0
3, 28170, Note_on_c, 9, 36, 0
3, 28170, Note_on_c, 9, 42, 92
3, 28200, Note_on_c, 9, 42, 0
3, 28200, Note_on_c, 9, 40, 110
3, 28200, Note_on_c, 9, 46, 109
3, 28230, Note_on_c, 9, 46, 0
3, 28260, Note_on_c, 9, 40, 0
3, 28260, Note_on_c, 9, 36, 88
3, 28260, Note_on_c, 9, 44, 77
3, 28290, Note_on_c, 9, 44, 0
3, 28290, Note_on_c, 9, 36, 0
3, 28290, Note_on_c, 9, 42, 92
3, 28320, Note_on_c, 9, 42, 0
3, 28320, Note_on_c, 9, 36, 110
3, 28320, Note_on_c, 9, 46, 114
3, 28350, Note_on_c, 9, 46, 0
3, 28380, Note_on_c, 9, 36, 0
3, 28380, Note_on_c, 9, 44, 77
3, 28410, Note_on_c, 9, 44, 0
3, 28410, Note_on_c, 9, 42, 96
3, 28440, Note_on_c, 9, 42, 0
3, 28440, Note_on_c, 9, 40, 110
3, 28440, Note_on_c, 9, 42, 38
3, 28440, Note_on_c, 9, 46, 109
3, 28470, Note_on_c, 9, 46, 0
3, 28470, Note_on_c, 9, 42, 0
3, 28500, Note_on_c, 9, 44, 86
3, 28530, Note_on_c, 9, 44, 0
3, 28530, Note_on_c, 9, 40, 0
3, 28530, Note_on_c, 9, 42, 100
3, 28560, Note_on_c, 9, 42, 0
3, 28560, Note_on_c, 9, 36, 110
3, 28560, Note_on_c, 9, 46, 109
3, 28590, Note_on_c, 9, 46, 0
3, 28620, Note_on_c, 9, 44, 92
3, 28650, Note_on_c, 9, 44, 0
3, 28650, Note_on_c, 9, 36, 0
3, 28650, Note_on_c, 9, 42, 100
3, 28680, Note_on_c, 9, 42, 0
3, 28680, Note_on_c, 9, 40, 110
3, 28680, Note_on_c, 9, 46, 114
3, 28710, Note_on_c, 9, 46, 0
3, 28740, Note_on_c, 9, 40, 0
3, 28740, Note_on_c, 9, 36, 70
3, 28740, Note_on_c, 9, 44, 84
3, 28770, Note_on_c, 9, 44, 0
3, 28770, Note_on_c, 9, 36, 0
3, 28770, Note_on_c, 9, 42, 100
3, 28800, Note_on_c, 9, 42, 0
3, 28800, Note_on_c, 9, 36, 120
3, 28800, Note_on_c, 9, 46, 109
3, 28830, Note_on_c, 9, 46, 0
3, 28860, Note_on_c, 9, 44, 84
3, 28890, Note_on_c, 9, 44, 0
3, 28890, Note_on_c, 9, 36, 0
3, 28890, Note_on_c, 9, 42, 89
3, 28920, Note_on_c, 9, 42, 0
3, 28920, Note_on_c, 9, 40, 113
3, 28920, Note_on_c, 9, 46, 114
3, 28950, Note_on_c, 9, 46, 0
3, 28980, Note_on_c, 9, 44, 92
3, 29010, Note_on_c, 9, 44, 0
3, 29010, Note_on_c, 9, 40, 0
3, 29010, Note_on_c, 9, 42, 96
3, 29040, Note_on_c, 9, 42, 0
3, 29040, Note_on_c, 9, 36, 113
3, 29040, Note_on_c, 9, 46, 114
3, 29070, Note_on_c, 9, 46, 0
3, 29100, Note_on_c, 9, 44, 100
3, 29130, Note_on_c, 9, 44, 0
3, 29130, Note_on_c, 9, 36, 0
3, 29130, Note_on_c, 9, 42, 100
3, 29160, Note_on_c, 9, 42, 0
3, 29160, Note_on_c, 9, 40, 110
3, 29160, Note_on_c, 9, 46, 114
3, 29190, Note_on_c, 9, 46, 0
3, 29220, Note_on_c, 9, 40, 0
3, 29220, Note_on_c, 9, 36, 74
3, 29220, Note_on_c, 9, 44, 100
3, 29220, Note_on_c, 9, 55, 117
3, 29250, Note_on_c, 9, 55, 0
3, 29250, Note_on_c, 9, 44, 0
3, 29250, Note_on_c, 9, 36, 0
3, 29250, Note_on_c, 9, 42, 109
3, 29280, Note_on_c, 9, 42, 0
3, 29280, Note_on_c, 9, 36, 113
3, 29280, Note_on_c, 9, 46, 109
3, 29280, Note_on_c, 9, 57, 110
3, 29310, Note_on_c, 9, 57, 0
3, 29310, Note_on_c, 9, 46, 0
3, 29340, Note_on_c, 9, 36, 0
3, 29340, Note_on_c, 9, 44, 96
3, 29370, Note_on_c, 9, 44, 0
3, 29370, Note_on_c, 9, 42, 100
3, 29400, Note_on_c, 9, 42, 0
3, 29400, Note_on_c, 9, 40, 110
3, 29400, Note_on_c, 9, 46, 114
3, 29430, Note_on_c, 9, 46, 0
3, 29460, Note_on_c, 9, 44, 92
3, 29490, Note_on_c, 9, 44, 0
3, 29490, Note_on_c, 9, 40, 0
3, 29490, Note_on_c, 9, 42, 100
3, 29520, Note_on_c, 9, 42, 0
3, 29520, Note_on_c, 9, 36, 120
3, 29520, Note_on_c, 9, 46, 114
3, 29550, Note_on_c, 9, 46, 0
3, 29580, Note_on_c, 9, 44, 96
3, 29610, Note_on_c, 9, 44, 0
3, 29610, Note_on_c, 9, 36, 0
3, 29610, Note_on_c, 9, 42, 100
3, 29640, Note_on_c, 9, 42, 0
3, 29640, Note_on_c, 9, 40, 117
3, 29640, Note_on_c, 9, 46, 100
3, 29670, Note_on_c, 9, 46, 0
3, 29700, Note_on_c, 9, 40, 0
3, 29700, Note_on_c, 9, 36, 92
3, 29700, Note_on_c, 9, 44, 89
3, 29730, Note_on_c, 9, 44, 0
3, 29730, Note_on_c, 9, 36, 0
3, 29730, Note_on_c, 9, 42, 92
3, 29760, Note_on_c, 9, 42, 0
3, 29760, Note_on_c, 9, 36, 110
3, 29760, Note_on_c, 9, 46, 104
3, 29790, Note_on_c, 9, 46, 0
3, 29820, Note_on_c, 9, 36, 0
3, 29820, Note_on_c, 9, 44, 81
3, 29850, Note_on_c, 9, 44, 0
3, 29850, Note_on_c, 9, 42, 96
3, 29880, Note_on_c, 9, 42, 0
3, 29880, Note_on_c, 9, 40, 110
3, 29880, Note_on_c, 9, 46, 109
3, 29910, Note_on_c, 9, 46, 0
3, 29940, Note_on_c, 9, 40, 0
3, 29940, Note_on_c, 9, 44, 81
3, 29970, Note_on_c, 9, 44, 0
3, 29970, Note_on_c, 9, 42, 96
3, 30000, Note_on_c, 9, 42, 0
3, 30000, Note_on_c, 9, 36, 120
3, 30000, Note_on_c, 9, 46, 109
3, 30030, Note_on_c, 9, 46, 0
3, 30060, Note_on_c, 9, 36, 0
3, 30060, Note_on_c, 9, 44, 92
3, 30090, Note_on_c, 9, 44, 0
3, 30090, Note_on_c, 9, 42, 86
3, 30120, Note_on_c, 9, 42, 0
3, 30120, Note_on_c, 9, 40, 120
3, 30120, Note_on_c, 9, 46, 109
3, 30150, Note_on_c, 9, 46, 0
3, 30180, Note_on_c, 9, 40, 0
3, 30180, Note_on_c, 9, 36, 59
3, 30180, Note_on_c, 9, 44, 92
3, 30180, Note_on_c, 9, 55, 120
3, 30210, Note_on_c, 9, 55, 0
3, 30210, Note_on_c, 9, 44, 0
3, 30210, Note_on_c, 9, 36, 0
3, 30210, Note_on_c, 9, 42, 104
3, 30240, Note_on_c, 9, 42, 0
3, 30240, Note_on_c, 9, 36, 113
3, 30240, Note_on_c, 9, 46, 114
3, 30270, Note_on_c, 9, 46, 0
3, 30300, Note_on_c, 9, 36, 0
3, 30300, Note_on_c, 9, 44, 92
3, 30330, Note_on_c, 9, 44, 0
3, 30330, Note_on_c, 9, 42, 96
3, 30360, Note_on_c, 9, 42, 0
3, 30360, Note_on_c, 9, 40, 110
3, 30360, Note_on_c, 9, 46, 104
3, 30390, Note_on_c, 9, 46, 0
3, 30420, Note_on_c, 9, 44, 92
3, 30450, Note_on_c, 9, 44, 0
3, 30450, Note_on_c, 9, 40, 0
3, 30450, Note_on_c, 9, 42, 104
3, 30480, Note_on_c, 9, 42, 0
3, 30480, Note_on_c, 9, 36, 110
3, 30480, Note_on_c, 9, 46, 109
3, 30510, Note_on_c, 9, 46, 0
3, 30540, Note_on_c, 9, 44, 104
3, 30570, Note_on_c, 9, 44, 0
3, 30570, Note_on_c, 9, 36, 0
3, 30570, Note_on_c, 9, 42, 104
3, 30600, Note_on_c, 9, 42, 0
3, 30600, Note_on_c, 9, 40, 113
3, 30600, Note_on_c, 9, 46, 109
3, 30630, Note_on_c, 9, 46, 0
3, 30630, Note_on_c, 9, 40, 0
3, 30660, Note_on_c, 9, 36, 90
3, 30660, Note_on_c, 9, 44, 104
3, 30690, Note_on_c, 9, 44, 0
3, 30690, Note_on_c, 9, 36, 0
3, 30690, Note_on_c, 9, 42, 96
3, 30720, Note_on_c, 9, 42, 0
3, 30720, Note_on_c, 9, 36, 117
3, 30720, Note_on_c, 9, 46, 109
3, 30720, Note_on_c, 9, 49, 104
3, 30720, Note_on_c, 9, 36, 127
3, 30750, Note_on_c, 9, 49, 0
3, 30750, Note_on_c, 9, 36, 0
3, 30750, Note_on_c, 9, 46, 0
3, 30780, Note_on_c, 9, 36, 0
3, 30780, Note_on_c, 9, 57, 71
3, 30780, Note_on_c, 9, 44, 104
3, 30780, Note_on_c, 9, 36, 113
3, 30810, Note_on_c, 9, 36, 0
3, 30810, Note_on_c, 9, 44, 0
3, 30810, Note_on_c, 9, 57, 0
3, 30810, Note_on_c, 9, 42, 92
3, 30840, Note_on_c, 9, 42, 0
3, 30840, Note_on_c, 9, 40, 113
3, 30840, Note_on_c, 9, 46, 104
3, 30870, Note_on_c, 9, 46, 0
3, 30900, Note_on_c, 9, 40, 0
3, 30900, Note_on_c, 9, 44, 96
3, 30900, Note_on_c, 9, 51, 114
3, 30900, Note_on_c, 9, 36, 113
3, 30930, Note_on_c, 9, 36, 0
3, 30930, Note_on_c, 9, 51, 0
3, 30930, Note_on_c, 9, 44, 0
3, 30930, Note_on_c, 9, 42, 96
3, 30960, Note_on_c, 9, 42, 0
3, 30960, Note_on_c, 9, 36, 120
3, 30960, Note_on_c, 9, 46, 109
3, 30990, Note_on_c, 9, 46, 0
3, 31020, Note_on_c, 9, 44, 96
3, 31020, Note_on_c, 9, 36, 117
3, 31050, Note_on_c, 9, 36, 0
3, 31050, Note_on_c, 9, 44, 0
3, 31050, Note_on_c, 9, 36, 0
3, 31050, Note_on_c, 9, 42, 100
3, 31080, Note_on_c, 9, 42, 0
3, 31080, Note_on_c, 9, 40, 113
3, 31080, Note_on_c, 9, 46, 114
3, 31080, Note_on_c, 9, 48, 126
3, 31110, Note_on_c, 9, 48, 0
3, 31110, Note_on_c, 9, 46, 0
3, 31110, Note_on_c, 9, 48, 107
3, 31140, Note_on_c, 9, 48, 0
3, 31140, Note_on_c, 9, 40, 0
3, 31140, Note_on_c, 9, 36, 80
3, 31140, Note_on_c, 9, 44, 96
3, 31140, Note_on_c, 9, 43, 117
3, 31170, Note_on_c, 9, 43, 0
3, 31170, Note_on_c, 9, 44, 0
3, 31170, Note_on_c, 9, 36, 0
3, 31170, Note_on_c, 9, 43, 113
3, 31170, Note_on_c, 9, 42, 54
3, 31200, Note_on_c, 9, 42, 0
3, 31200, Note_on_c, 9, 43, 0
3, 31200, Note_on_c, 9, 36, 126
3, 31200, Note_on_c, 9, 52, 107
3, 31200, Note_on_c, 9, 36, 107
3, 31200, Note_on_c, 9, 46, 71
3, 31200, Note_on_c, 9, 46, 104
3, 31200, Note_on_c, 9, 49, 114
3, 31230, Note_on_c, 9, 49, 0
3, 31230, Note_on_c, 9, 52, 0
3, 31230, Note_on_c, 9, 36, 0
3, 31230, Note_on_c, 9, 46, 0
3, 31260, Note_on_c, 9, 36, 0
3, 31260, Note_on_c, 9, 46, 0
3, 31260, Note_on_c, 9, 44, 60
3, 31290, Note_on_c, 9, 44, 0
3, 31290, Note_on_c, 9, 42, 104
3, 31320, Note_on_c, 9, 42, 0
3, 31320, Note_on_c, 9, 40, 117
3, 31320, Note_on_c, 9, 46, 109
3, 31380, Note_on_c, 9, 46, 0
3, 31380, Note_on_c, 9, 40, 0
3, 31380, Note_on_c, 9, 44, 64
3, 31410, Note_on_c, 9, 44, 0
3, 31410, Note_on_c, 9, 42, 104
3, 31440, Note_on_c, 9, 42, 0
3, 31440, Note_on_c, 9, 36, 53
3, 31440, Note_on_c, 9, 46, 104
3, 31500, Note_on_c, 9, 46, 0
3, 31500, Note_on_c, 9, 44, 79
3, 31530, Note_on_c, 9, 44, 0
3, 31530, Note_on_c, 9, 36, 0
3, 31530, Note_on_c, 9, 42, 104
3, 31560, Note_on_c, 9, 42, 0
3, 31560, Note_on_c, 9, 40, 117
3, 31560, Note_on_c, 9, 46, 114
3, 31620, Note_on_c, 9, 46, 0
3, 31620, Note_on_c, 9, 40, 0
3, 31620, Note_on_c, 9, 36, 79
3, 31620, Note_on_c, 9, 44, 84
3, 31650, Note_on_c, 9, 44, 0
3, 31650, Note_on_c, 9, 36, 0
3, 31650, Note_on_c, 9, 42, 100
3, 31680, Note_on_c, 9, 42, 0
3, 31680, Note_on_c, 9, 36, 117
3, 31680, Note_on_c, 9, 46, 119
3, 31740, Note_on_c, 9, 46, 0
3, 31740, Note_on_c, 9, 36, 0
3, 31770, Note_on_c, 9, 44, 75
3, 31800, Note_on_c, 9, 44, 0
3, 31800, Note_on_c, 9, 40, 110
3, 31800, Note_on_c, 9, 42, 100
3, 31800, Note_on_c, 9, 46, 92
3, 31830, Note_on_c, 9, 46, 0
3, 31830, Note_on_c, 9, 42, 0
3, 31860, Note_on_c, 9, 40, 0
3, 31860, Note_on_c, 9, 44, 81
3, 31890, Note_on_c, 9, 44, 0
3, 31890, Note_on_c, 9, 42, 96
3, 31920, Note_on_c, 9, 42, 0
3, 31920, Note_on_c, 9, 36, 113
3, 31920, Note_on_c, 9, 46, 100
3, 31950, Note_on_c, 9, 46, 0
3, 31980, Note_on_c, 9, 44, 89
3, 32010, Note_on_c, 9, 44, 0
3, 32010, Note_on_c, 9, 36, 0
3, 32010, Note_on_c, 9, 42, 92
3, 32040, Note_on_c, 9, 42, 0
3, 32040, Note_on_c, 9, 40, 110
3, 32040, Note_on_c, 9, 46, 109
3, 32070, Note_on_c, 9, 46, 0
3, 32100, Note_on_c, 9, 40, 0
3, 32100, Note_on_c, 9, 36, 88
3, 32100, Note_on_c, 9, 44, 77
3, 32130, Note_on_c, 9, 44, 0
3, 32130, Note_on_c, 9, 36, 0
3, 32130, Note_on_c, 9, 42, 92
3, 32160, Note_on_c, 9, 42, 0
3, 32160, Note_on_c, 9, 36, 110
3, 32160, Note_on_c, 9, 46, 114
3, 32190, Note_on_c, 9, 46, 0
3, 32190, Note_on_c, 9, 53, 62
3, 32220, Note_on_c, 9, 53, 0
3, 32220, Note_on_c, 9, 36, 0
3, 32220, Note_on_c, 9, 44, 77
3, 32250, Note_on_c, 9, 44, 0
3, 32250, Note_on_c, 9, 42, 96
3, 32280, Note_on_c, 9, 42, 0
3, 32280, Note_on_c, 9, 40, 110
3, 32280, Note_on_c, 9, 42, 38
3, 32280, Note_on_c, 9, 46, 109
3, 32310, Note_on_c, 9, 46, 0
3, 32310, Note_on_c, 9, 42, 0
3, 32340, Note_on_c, 9, 44, 86
3, 32370, Note_on_c, 9, 44, 0
3, 32370, Note_on_c, 9, 40, 0
3, 32370, Note_on_c, 9, 42, 100
3, 32400, Note_on_c, 9, 42, 0
3, 32400, Note_on_c, 9, 36, 110
3, 32400, Note_on_c, 9, 46, 109
3, 32430, Note_on_c, 9, 46, 0
3, 32460, Note_on_c, 9, 44, 92
3, 32490, Note_on_c, 9, 44, 0
3, 32490, Note_on_c, 9, 36, 0
3, 32490, Note_on_c, 9, 42, 100
3, 32520, Note_on_c, 9, 42, 0
3, 32520, Note_on_c, 9, 40, 110
3, 32520, Note_on_c, 9, 46, 114
3, 32550, Note_on_c, 9, 46, 0
3, 32580, Note_on_c, 9, 40, 0
3, 32580, Note_on_c, 9, 36, 70
3, 32580, Note_on_c, 9, 44, 84
3, 32610, Note_on_c, 9, 44, 0
3, 32610, Note_on_c, 9, 36, 0
3, 32610, Note_on_c, 9, 42, 100
3, 32640, Note_on_c, 9, 42, 0
3, 32640, Note_on_c, 9, 36, 120
3, 32640, Note_on_c, 9, 46, 109
3, 32670, Note_on_c, 9, 46, 0
3, 32700, Note_on_c, 9, 44, 84
3, 32730, Note_on_c, 9, 44, 0
3, 32730, Note_on_c, 9, 36, 0
3, 32730, Note_on_c, 9, 42, 89
3, 32760, Note_on_c, 9, 42, 0
3, 32760, Note_on_c, 9, 40, 113
3, 32760, Note_on_c, 9, 46, 114
3, 32790, Note_on_c, 9, 46, 0
3, 32820, Note_on_c, 9, 44, 92
3, 32850, Note_on_c, 9, 44, 0
3, 32850, Note_on_c, 9, 40, 0
3, 32850, Note_on_c, 9, 42, 96
3, 32880, Note_on_c, 9, 42, 0
3, 32880, Note_on_c, 9, 36, 113
3, 32880, Note_on_c, 9, 46, 114
3, 32910, Note_on_c, 9, 46, 0
3, 32940, Note_on_c, 9, 44, 100
3, 32970, Note_on_c, 9, 44, 0
3, 32970, Note_on_c, 9, 36, 0
3, 32970, Note_on_c, 9, 42, 100
3, 33000, Note_on_c, 9, 42, 0
3, 33000, Note_on_c, 9, 40, 110
3, 33000, Note_on_c, 9, 46, 114
3, 33030, Note_on_c, 9, 46, 0
3, 33060, Note_on_c, 9, 40, 0
3, 33060, Note_on_c, 9, 36, 74
3, 33060, Note_on_c, 9, 44, 100
3, 33090, Note_on_c, 9, 44, 0
3, 33090, Note_on_c, 9, 36, 0
3, 33090, Note_on_c, 9, 42, 109
3, 33120, Note_on_c, 9, 42, 0
3, 33120, Note_on_c, 9, 36, 113
3, 33120, Note_on_c, 9, 46, 109
3, 33120, Note_on_c, 9, 49, 119
3, 33150, Note_on_c, 9, 49, 0
3, 33150, Note_on_c, 9, 46, 0
3, 33180, Note_on_c, 9, 36, 0
3, 33180, Note_on_c, 9, 44, 96
3, 33210, Note_on_c, 9, 44, 0
3, 33210, Note_on_c, 9, 42, 100
3, 33240, Note_on_c, 9, 42, 0
3, 33240, Note_on_c, 9, 40, 110
3, 33240, Note_on_c, 9, 46, 114
3, 33270, Note_on_c, 9, 46, 0
3, 33300, Note_on_c, 9, 44, 92
3, 33330, Note_on_c, 9, 44, 0
3, 33330, Note_on_c, 9, 40, 0
3, 33330, Note_on_c, 9, 42, 100
3, 33360, Note_on_c, 9, 42, 0
3, 33360, Note_on_c, 9, 36, 120
3, 33360, Note_on_c, 9, 46, 114
3, 33390, Note_on_c, 9, 46, 0
3, 33420, Note_on_c, 9, 44, 96
3, 33450, Note_on_c, 9, 44, 0
3, 33450, Note_on_c, 9, 36, 0
3, 33450, Note_on_c, 9, 42, 100
3, 33480, Note_on_c, 9, 42, 0
3, 33480, Note_on_c, 9, 40, 117
3, 33480, Note_on_c, 9, 46, 100
3, 33510, Note_on_c, 9, 46, 0
3, 33540, Note_on_c, 9, 40, 0
3, 33540, Note_on_c, 9, 36, 92
3, 33540, Note_on_c, 9, 44, 89
3, 33570, Note_on_c, 9, 44, 0
3, 33570, Note_on_c, 9, 36, 0
3, 33570, Note_on_c, 9, 42, 92
3, 33600, Note_on_c, 9, 42, 0
3, 33600, Note_on_c, 9, 36, 110
3, 33600, Note_on_c, 9, 46, 104
3, 33630, Note_on_c, 9, 46, 0
3, 33660, Note_on_c, 9, 36, 0
3, 33660, Note_on_c, 9, 44, 81
3, 33690, Note_on_c, 9, 44, 0
3, 33690, Note_on_c, 9, 42, 96
3, 33720, Note_on_c, 9, 42, 0
3, 33720, Note_on_c, 9, 40, 110
3, 33720, Note_on_c, 9, 46, 109
3, 33750, Note_on_c, 9, 46, 0
3, 33780, Note_on_c, 9, 40, 0
3, 33780, Note_on_c, 9, 44, 81
3, 33810, Note_on_c, 9, 44, 0
3, 33810, Note_on_c, 9, 42, 96
3, 33840, Note_on_c, 9, 42, 0
3, 33840, Note_on_c, 9, 36, 120
3, 33840, Note_on_c, 9, 46, 109
3, 33870, Note_on_c, 9, 46, 0
3, 33900, Note_on_c, 9, 36, 0
3, 33900, Note_on_c, 9, 44, 92
3, 33930, Note_on_c, 9, 44, 0
3, 33930, Note_on_c, 9, 42, 86
3, 33960, Note_on_c, 9, 42, 0
3, 33960, Note_on_c, 9, 40, 120
3, 33960, Note_on_c, 9, 46, 109
3, 33990, Note_on_c, 9, 46, 0
3, 34020, Note_on_c, 9, 40, 0
3, 34020, Note_on_c, 9, 36, 59
3, 34020, Note_on_c, 9, 44, 92
3, 34050, Note_on_c, 9, 44, 0
3, 34050, Note_on_c, 9, 36, 0
3, 34050, Note_on_c, 9, 42, 104
3, 34080, Note_on_c, 9, 42, 0
3, 34080, Note_on_c, 9, 57, 125
3, 34080, Note_on_c, 9, 36, 113
3, 34080, Note_on_c, 9, 46, 114
3, 34110, Note_on_c, 9, 46, 0
3, 34110, Note_on_c, 9, 57, 0
3, 34140, Note_on_c, 9, 36, 0
3, 34140, Note_on_c, 9, 44, 92
3, 34170, Note_on_c, 9, 44, 0
3, 34170, Note_on_c, 9, 42, 96
3, 34200, Note_on_c, 9, 42, 0
3, 34200, Note_on_c, 9, 40, 110
3, 34200, Note_on_c, 9, 46, 104
3, 34230, Note_on_c, 9, 46, 0
3, 34260, Note_on_c, 9, 44, 92
3, 34290, Note_on_c, 9, 44, 0
3, 34290, Note_on_c, 9, 40, 0
3, 34290, Note_on_c, 9, 42, 104
3, 34320, Note_on_c, 9, 42, 0
3, 34320, Note_on_c, 9, 36, 110
3, 34320, Note_on_c, 9, 46, 109
3, 34350, Note_on_c, 9, 46, 0
3, 34380, Note_on_c, 9, 44, 104
3, 34410, Note_on_c, 9, 44, 0
3, 34410, Note_on_c, 9, 36, 0
3, 34410, Note_on_c, 9, 42, 104
3, 34440, Note_on_c, 9, 42, 0
3, 34440, Note_on_c, 9, 40, 113
3, 34440, Note_on_c, 9, 46, 109
3, 34470, Note_on_c, 9, 46, 0
3, 34470, Note_on_c, 9, 40, 0
3, 34500, Note_on_c, 9, 36, 90
3, 34500, Note_on_c, 9, 44, 104
3, 34530, Note_on_c, 9, 44, 0
3, 34530, Note_on_c, 9, 36, 0
3, 34530, Note_on_c, 9, 42, 96
3, 34560, Note_on_c, 9, 42, 0
3, 34560, Note_on_c, 9, 36, 117
3, 34560, Note_on_c, 9, 46, 109
3, 34590, Note_on_c, 9, 46, 0
3, 34620, Note_on_c, 9, 36, 0
3, 34620, Note_on_c, 9, 44, 104
3, 34650, Note_on_c, 9, 44, 0
3, 34650, Note_on_c, 9, 42, 92
3, 34680, Note_on_c, 9, 42, 0
3, 34680, Note_on_c, 9, 40, 113
3, 34680, Note_on_c, 9, 46, 104
3, 34710, Note_on_c, 9, 46, 0
3, 34740, Note_on_c, 9, 40, 0
3, 34740, Note_on_c, 9, 44, 96
3, 34770, Note_on_c, 9, 44, 0
3, 34770, Note_on_c, 9, 42, 96
3, 34800, Note_on_c, 9, 42, 0
3, 34800, Note_on_c, 9, 50, 125
3, 34800, Note_on_c, 9, 36, 120
3, 34800, Note_on_c, 9, 46, 109
3, 34830, Note_on_c, 9, 46, 0
3, 34830, Note_on_c, 9, 50, 0
3, 34830, Note_on_c, 9, 36, 107
3, 34860, Note_on_c, 9, 36, 0
3, 34860, Note_on_c, 9, 44, 96
3, 34890, Note_on_c, 9, 44, 0
3, 34890, Note_on_c, 9, 36, 0
3, 34890, Note_on_c, 9, 42, 100
3, 34890, Note_on_c, 9, 36, 113
3, 34920, Note_on_c, 9, 36, 0
3, 34920, Note_on_c, 9, 42, 0
3, 34920, Note_on_c, 9, 40, 113
3, 34920, Note_on_c, 9, 46, 114
3, 34920, Note_on_c, 9, 47, 120
3, 34950, Note_on_c, 9, 47, 0
3, 34950, Note_on_c, 9, 46, 0
3, 34950, Note_on_c, 9, 43, 120
3, 34980, Note_on_c, 9, 43, 0
3, 34980, Note_on_c, 9, 40, 0
3, 34980, Note_on_c, 9, 43, 117
3, 34980, Note_on_c, 9, 36, 80
3, 34980, Note_on_c, 9, 44, 96
3, 35010, Note_on_c, 9, 44, 0
3, 35010, Note_on_c, 9, 36, 0
3, 35010, Note_on_c, 9, 43, 0
3, 35010, Note_on_c, 9, 42, 54
3, 35040, Note_on_c, 9, 42, 0
3, 35040, Note_on_c, 9, 52, 110
3, 35040, Note_on_c, 9, 36, 107
3, 35040, Note_on_c, 9, 46, 71
3, 35040, Note_on_c, 9, 46, 104
3, 35040, Note_on_c, 9, 49, 119
3, 35070, Note_on_c, 9, 49, 0
3, 35070, Note_on_c, 9, 46, 0
3, 35070, Note_on_c, 9, 52, 0
3, 35100, Note_on_c, 9, 36, 0
3, 35100, Note_on_c, 9, 46, 0
3, 35100, Note_on_c, 9, 44, 60
3, 35130, Note_on_c, 9, 44, 0
3, 35130, Note_on_c, 9, 42, 104
3, 35160, Note_on_c, 9, 42, 0
3, 35160, Note_on_c, 9, 40, 117
3, 35160, Note_on_c, 9, 46, 109
3, 35220, Note_on_c, 9, 46, 0
3, 35220, Note_on_c, 9, 40, 0
3, 35220, Note_on_c, 9, 44, 64
3, 35250, Note_on_c, 9, 44, 0
3, 35250, Note_on_c, 9, 42, 104
3, 35280, Note_on_c, 9, 42, 0
3, 35280, Note_on_c, 9, 36, 53
3, 35280, Note_on_c, 9, 46, 104
3, 35340, Note_on_c, 9, 46, 0
3, 35340, Note_on_c, 9, 44, 79
3, 35370, Note_on_c, 9, 44, 0
3, 35370, Note_on_c, 9, 36, 0
3, 35370, Note_on_c, 9, 42, 104
3, 35400, Note_on_c, 9, 42, 0
3, 35400, Note_on_c, 9, 40, 117
3, 35400, Note_on_c, 9, 46, 114
3, 35460, Note_on_c, 9, 46, 0
3, 35460, Note_on_c, 9, 40, 0
3, 35460, Note_on_c, 9, 36, 79
3, 35460, Note_on_c, 9, 44, 84
3, 35490, Note_on_c, 9, 44, 0
3, 35490, Note_on_c, 9, 36, 0
3, 35490, Note_on_c, 9, 42, 100
3, 35520, Note_on_c, 9, 42, 0
3, 35520, Note_on_c, 9, 36, 117
3, 35520, Note_on_c, 9, 46, 119
3, 35580, Note_on_c, 9, 46, 0
3, 35580, Note_on_c, 9, 36, 0
3, 35610, Note_on_c, 9, 44, 75
3, 35640, Note_on_c, 9, 44, 0
3, 35640, Note_on_c, 9, 40, 110
3, 35640, Note_on_c, 9, 42, 100
3, 35640, Note_on_c, 9, 46, 92
3, 35670, Note_on_c, 9, 46, 0
3, 35670, Note_on_c, 9, 42, 0
3, 35700, Note_on_c, 9, 40, 0
3, 35700, Note_on_c, 9, 44, 81
3, 35730, Note_on_c, 9, 44, 0
3, 35730, Note_on_c, 9, 42, 96
3, 35760, Note_on_c, 9, 42, 0
3, 35760, Note_on_c, 9, 36, 113
3, 35760, Note_on_c, 9, 46, 100
3, 35790, Note_on_c, 9, 46, 0
3, 35820, Note_on_c, 9, 44, 89
3, 35850, Note_on_c, 9, 44, 0
3, 35850, Note_on_c, 9, 36, 0
3, 35850, Note_on_c, 9, 42, 92
3, 35880, Note_on_c, 9, 42, 0
3, 35880, Note_on_c, 9, 40, 110
3, 35880, Note_on_c, 9, 46, 109
3, 35910, Note_on_c, 9, 46, 0
3, 35940, Note_on_c, 9, 40, 0
3, 35940, Note_on_c, 9, 36, 88
3, 35940, Note_on_c, 9, 44, 77
3, 35970, Note_on_c, 9, 44, 0
3, 35970, Note_on_c, 9, 36, 0
3, 35970, Note_on_c, 9, 42, 92
3, 36000, Note_on_c, 9, 42, 0
3, 36000, Note_on_c, 9, 36, 110
3, 36000, Note_on_c, 9, 46, 114
3, 36030, Note_on_c, 9, 46, 0
3, 36060, Note_on_c, 9, 36, 0
3, 36060, Note_on_c, 9, 44, 77
3, 36090, Note_on_c, 9, 44, 0
3, 36090, Note_on_c, 9, 42, 96
3, 36120, Note_on_c, 9, 42, 0
3, 36120, Note_on_c, 9, 40, 110
3, 36120, Note_on_c, 9, 42, 38
3, 36120, Note_on_c, 9, 46, 109
3, 36150, Note_on_c, 9, 46, 0
3, 36150, Note_on_c, 9, 42, 0
3, 36180, Note_on_c, 9, 44, 86
3, 36210, Note_on_c, 9, 44, 0
3, 36210, Note_on_c, 9, 40, 0
3, 36210, Note_on_c, 9, 42, 100
3, 36240, Note_on_c, 9, 42, 0
3, 36240, Note_on_c, 9, 36, 110
3, 36240, Note_on_c, 9, 46, 109
3, 36270, Note_on_c, 9, 46, 0
3, 36300, Note_on_c, 9, 44, 92
3, 36330, Note_on_c, 9, 44, 0
3, 36330, Note_on_c, 9, 36, 0
3, 36330, Note_on_c, 9, 42, 100
3, 36360, Note_on_c, 9, 42, 0
3, 36360, Note_on_c, 9, 40, 110
3, 36360, Note_on_c, 9, 46, 114
3, 36390, Note_on_c, 9, 46, 0
3, 36420, Note_on_c, 9, 40, 0
3, 36420, Note_on_c, 9, 36, 70
3, 36420, Note_on_c, 9, 44, 84
3, 36450, Note_on_c, 9, 44, 0
3, 36450, Note_on_c, 9, 36, 0
3, 36450, Note_on_c, 9, 42, 100
3, 36480, Note_on_c, 9, 42, 0
3, 36480, Note_on_c, 9, 36, 120
3, 36480, Note_on_c, 9, 46, 109
3, 36510, Note_on_c, 9, 46, 0
3, 36540, Note_on_c, 9, 44, 84
3, 36570, Note_on_c, 9, 44, 0
3, 36570, Note_on_c, 9, 36, 0
3, 36570, Note_on_c, 9, 42, 89
3, 36600, Note_on_c, 9, 42, 0
3, 36600, Note_on_c, 9, 40, 113
3, 36600, Note_on_c, 9, 46, 114
3, 36630, Note_on_c, 9, 46, 0
3, 36660, Note_on_c, 9, 44, 92
3, 36690, Note_on_c, 9, 44, 0
3, 36690, Note_on_c, 9, 40, 0
3, 36690, Note_on_c, 9, 42, 96
3, 36720, Note_on_c, 9, 42, 0
3, 36720, Note_on_c, 9, 36, 113
3, 36720, Note_on_c, 9, 46, 114
3, 36750, Note_on_c, 9, 46, 0
3, 36780, Note_on_c, 9, 44, 100
3, 36810, Note_on_c, 9, 44, 0
3, 36810, Note_on_c, 9, 36, 0
3, 36810, Note_on_c, 9, 42, 100
3, 36840, Note_on_c, 9, 42, 0
3, 36840, Note_on_c, 9, 40, 110
3, 36840, Note_on_c, 9, 46, 114
3, 36870, Note_on_c, 9, 46, 0
3, 36900, Note_on_c, 9, 40, 0
3, 36900, Note_on_c, 9, 36, 74
3, 36900, Note_on_c, 9, 44, 100
3, 36930, Note_on_c, 9, 44, 0
3, 36930, Note_on_c, 9, 36, 0
3, 36930, Note_on_c, 9, 42, 109
3, 36960, Note_on_c, 9, 42, 0
3, 36960, Note_on_c, 9, 36, 113
3, 36960, Note_on_c, 9, 46, 109
3, 36960, Note_on_c, 9, 49, 96
3, 36990, Note_on_c, 9, 49, 0
3, 36990, Note_on_c, 9, 46, 0
3, 37020, Note_on_c, 9, 36, 0
3, 37020, Note_on_c, 9, 44, 96
3, 37050, Note_on_c, 9, 44, 0
3, 37050, Note_on_c, 9, 42, 100
3, 37080, Note_on_c, 9, 42, 0
3, 37080, Note_on_c, 9, 40, 110
3, 37080, Note_on_c, 9, 46, 114
3, 37110, Note_on_c, 9, 46, 0
3, 37140, Note_on_c, 9, 44, 92
3, 37170, Note_on_c, 9, 44, 0
3, 37170, Note_on_c, 9, 40, 0
3, 37170, Note_on_c, 9, 42, 100
3, 37200, Note_on_c, 9, 42, 0
3, 37200, Note_on_c, 9, 36, 120
3, 37200, Note_on_c, 9, 46, 114
3, 37230, Note_on_c, 9, 46, 0
3, 37260, Note_on_c, 9, 44, 96
3, 37290, Note_on_c, 9, 44, 0
3, 37290, Note_on_c, 9, 36, 0
3, 37290, Note_on_c, 9, 42, 100
3, 37320, Note_on_c, 9, 42, 0
3, 37320, Note_on_c, 9, 40, 117
3, 37320, Note_on_c, 9, 46, 100
3, 37350, Note_on_c, 9, 46, 0
3, 37380, Note_on_c, 9, 40, 0
3, 37380, Note_on_c, 9, 36, 92
3, 37380, Note_on_c, 9, 44, 89
3, 37410, Note_on_c, 9, 44, 0
3, 37410, Note_on_c, 9, 36, 0
3, 37410, Note_on_c, 9, 42, 92
3, 37440, Note_on_c, 9, 42, 0
3, 37440, Note_on_c, 9, 36, 110
3, 37440, Note_on_c, 9, 46, 104
3, 37470, Note_on_c, 9, 46, 0
3, 37500, Note_on_c, 9, 36, 0
3, 37500, Note_on_c, 9, 44, 81
3, 37530, Note_on_c, 9, 44, 0
3, 37530, Note_on_c, 9, 42, 96
3, 37560, Note_on_c, 9, 42, 0
3, 37560, Note_on_c, 9, 40, 110
3, 37560, Note_on_c, 9, 46, 109
3, 37590, Note_on_c, 9, 46, 0
3, 37620, Note_on_c, 9, 40, 0
3, 37620, Note_on_c, 9, 44, 81
3, 37650, Note_on_c, 9, 44, 0
3, 37650, Note_on_c, 9, 42, 96
3, 37680, Note_on_c, 9, 42, 0
3, 37680, Note_on_c, 9, 36, 120
3, 37680, Note_on_c, 9, 46, 109
3, 37710, Note_on_c, 9, 46, 0
3, 37740, Note_on_c, 9, 36, 0
3, 37740, Note_on_c, 9, 44, 92
3, 37770, Note_on_c, 9, 44, 0
3, 37770, Note_on_c, 9, 42, 86
3, 37800, Note_on_c, 9, 42, 0
3, 37800, Note_on_c, 9, 40, 120
3, 37800, Note_on_c, 9, 46, 109
3, 37830, Note_on_c, 9, 46, 0
3, 37860, Note_on_c, 9, 40, 0
3, 37860, Note_on_c, 9, 36, 59
3, 37860, Note_on_c, 9, 44, 92
3, 37890, Note_on_c, 9, 44, 0
3, 37890, Note_on_c, 9, 36, 0
3, 37890, Note_on_c, 9, 42, 104
3, 37920, Note_on_c, 9, 42, 0
3, 37920, Note_on_c, 9, 36, 113
3, 37920, Note_on_c, 9, 46, 114
3, 37920, Note_on_c, 9, 57, 125
3, 37950, Note_on_c, 9, 57, 0
3, 37950, Note_on_c, 9, 46, 0
3, 37980, Note_on_c, 9, 36, 0
3, 37980, Note_on_c, 9, 44, 92
3, 38010, Note_on_c, 9, 44, 0
3, 38010, Note_on_c, 9, 42, 96
3, 38040, Note_on_c, 9, 42, 0
3, 38040, Note_on_c, 9, 40, 110
3, 38040, Note_on_c, 9, 46, 104
3, 38070, Note_on_c, 9, 46, 0
3, 38100, Note_on_c, 9, 44, 92
3, 38130, Note_on_c, 9, 44, 0
3, 38130, Note_on_c, 9, 40, 0
3, 38130, Note_on_c, 9, 42, 104
3, 38160, Note_on_c, 9, 42, 0
3, 38160, Note_on_c, 9, 36, 110
3, 38160, Note_on_c, 9, 46, 109
3, 38190, Note_on_c, 9, 46, 0
3, 38220, Note_on_c, 9, 44, 104
3, 38250, Note_on_c, 9, 44, 0
3, 38250, Note_on_c, 9, 36, 0
3, 38250, Note_on_c, 9, 42, 104
3, 38280, Note_on_c, 9, 42, 0
3, 38280, Note_on_c, 9, 40, 113
3, 38280, Note_on_c, 9, 46, 109
3, 38310, Note_on_c, 9, 46, 0
3, 38310, Note_on_c, 9, 40, 0
3, 38340, Note_on_c, 9, 36, 90
3, 38340, Note_on_c, 9, 44, 104
3, 38370, Note_on_c, 9, 44, 0
3, 38370, Note_on_c, 9, 36, 0
3, 38370, Note_on_c, 9, 42, 96
3, 38400, Note_on_c, 9, 42, 0
3, 38400, Note_on_c, 9, 36, 117
3, 38400, Note_on_c, 9, 46, 109
3, 38430, Note_on_c, 9, 46, 0
3, 38460, Note_on_c, 9, 36, 0
3, 38460, Note_on_c, 9, 44, 104
3, 38490, Note_on_c, 9, 44, 0
3, 38490, Note_on_c, 9, 42, 92
3, 38520, Note_on_c, 9, 42, 0
3, 38520, Note_on_c, 9, 40, 113
3, 38520, Note_on_c, 9, 46, 104
3, 38550, Note_on_c, 9, 46, 0
3, 38580, Note_on_c, 9, 40, 0
3, 38580, Note_on_c, 9, 44, 96
3, 38610, Note_on_c, 9, 44, 0
3, 38610, Note_on_c, 9, 42, 96
3, 38640, Note_on_c, 9, 42, 0
3, 38640, Note_on_c, 9, 36, 120
3, 38640, Note_on_c, 9, 46, 109
3, 38670, Note_on_c, 9, 46, 0
3, 38700, Note_on_c, 9, 44, 96
3, 38730, Note_on_c, 9, 44, 0
3, 38730, Note_on_c, 9, 36, 0
3, 38730, Note_on_c, 9, 42, 100
3, 38760, Note_on_c, 9, 42, 0
3, 38760, Note_on_c, 9, 40, 113
3, 38760, Note_on_c, 9, 46, 114
3, 38760, Note_on_c, 9, 47, 110
3, 38760, Note_on_c, 9, 43, 120
3, 38790, Note_on_c, 9, 43, 0
3, 38790, Note_on_c, 9, 47, 0
3, 38790, Note_on_c, 9, 46, 0
3, 38820, Note_on_c, 9, 40, 0
3, 38820, Note_on_c, 9, 36, 80
3, 38820, Note_on_c, 9, 44, 96
3, 38820, Note_on_c, 9, 47, 74
3, 38850, Note_on_c, 9, 47, 0
3, 38850, Note_on_c, 9, 44, 0
3, 38850, Note_on_c, 9, 36, 0
3, 38850, Note_on_c, 9, 42, 54
3, 38850, Note_on_c, 9, 43, 71
3, 38880, Note_on_c, 9, 43, 0
3, 38880, Note_on_c, 9, 42, 0
3, 38880, Note_on_c, 9, 46, 71
3, 38880, Note_on_c, 9, 36, 127
3, 38880, Note_on_c, 9, 44, 127
3, 38880, Note_on_c, 9, 49, 127
3, 38880, Note_on_c, 9, 49, 127
3, 38910, Note_on_c, 9, 46, 0
3, 38940, Note_on_c, 9, 44, 127
3, 39000, Note_on_c, 9, 38, 127
3, 39000, Note_on_c, 9, 44, 127
3, 39007, Note_on_c, 9, 49, 0
3, 39007, Note_on_c, 9, 49, 0
3, 39007, Note_on_c, 9, 36, 0
3, 39007, Note_on_c, 9, 44, 0
3, 39060, Note_on_c, 9, 44, 127
3, 39067, Note_on_c, 9, 44, 0
3, 39120, Note_on_c, 9, 36, 127
3, 39120, Note_on_c, 9, 44, 127
3, 39127, Note_on_c, 9, 44, 0
3, 39127, Note_on_c, 9, 38, 0
3, 39180, Note_on_c, 9, 44, 127
3, 39187, Note_on_c, 9, 44, 0
3, 39240, Note_on_c, 9, 38, 127
3, 39240, Note_on_c, 9, 44, 127
3, 39247, Note_on_c, 9, 36, 0
3, 39247, Note_on_c, 9, 44, 0
3, 39300, Note_on_c, 9, 44, 127
3, 39307, Note_on_c, 9, 44, 0
3, 39360, Note_on_c, 9, 36, 127
3, 39360, Note_on_c, 9, 44, 127
3, 39367, Note_on_c, 9, 38, 0
3, 39367, Note_on_c, 9, 44, 0
3, 39420, Note_on_c, 9, 44, 127
3, 39427, Note_on_c, 9, 44, 0
3, 39480, Note_on_c, 9, 38, 127
3, 39480, Note_on_c, 9, 44, 127
3, 39487, Note_on_c, 9, 36, 0
3, 39487, Note_on_c, 9, 44, 0
3, 39540, Note_on_c, 9, 44, 127
3, 39547, Note_on_c, 9, 44, 0
3, 39600, Note_on_c, 9, 36, 127
3, 39600, Note_on_c, 9, 44, 127
3, 39607, Note_on_c, 9, 38, 0
3, 39607, Note_on_c, 9, 44, 0
3, 39660, Note_on_c, 9, 44, 127
3, 39667, Note_on_c, 9, 44, 0
3, 39720, Note_on_c, 9, 38, 127
3, 39720, Note_on_c, 9, 44, 127
3, 39727, Note_on_c, 9, 36, 0
3, 39727, Note_on_c, 9, 44, 0
3, 39780, Note_on_c, 9, 44, 127
3, 39787, Note_on_c, 9, 44, 0
3, 39840, Note_on_c, 9, 36, 127
3, 39840, Note_on_c, 9, 44, 127
3, 39847, Note_on_c, 9, 38, 0
3, 39847, Note_on_c, 9, 44, 0
3, 39900, Note_on_c, 9, 44, 127
3, 39907, Note_on_c, 9, 44, 0
3, 39960, Note_on_c, 9, 38, 127
3, 39960, Note_on_c, 9, 44, 127
3, 39967, Note_on_c, 9, 36, 0
3, 39967, Note_on_c, 9, 44, 0
3, 40020, Note_on_c, 9, 44, 127
3, 40027, Note_on_c, 9, 44, 0
3, 40080, Note_on_c, 9, 36, 127
3, 40080, Note_on_c, 9, 44, 127
3, 40087, Note_on_c, 9, 38, 0
3, 40087, Note_on_c, 9, 44, 0
3, 40140, Note_on_c, 9, 44, 127
3, 40147, Note_on_c, 9, 44, 0
3, 40200, Note_on_c, 9, 38, 127
3, 40200, Note_on_c, 9, 44, 127
3, 40207, Note_on_c, 9, 36, 0
3, 40207, Note_on_c, 9, 44, 0
3, 40260, Note_on_c, 9, 44, 127
3, 40267, Note_on_c, 9, 44, 0
3, 40320, Note_on_c, 9, 36, 127
3, 40320, Note_on_c, 9, 44, 127
3, 40327, Note_on_c, 9, 38, 0
3, 40327, Note_on_c, 9, 44, 0
3, 40380, Note_on_c, 9, 44, 127
3, 40387, Note_on_c, 9, 44, 0
3, 40440, Note_on_c, 9, 38, 127
3, 40440, Note_on_c, 9, 44, 127
3, 40447, Note_on_c, 9, 36, 0
3, 40447, Note_on_c, 9, 44, 0
3, 40500, Note_on_c, 9, 44, 127
3, 40507, Note_on_c, 9, 44, 0
3, 40560, Note_on_c, 9, 36, 127
3, 40560, Note_on_c, 9, 44, 127
3, 40567, Note_on_c, 9, 38, 0
3, 40567, Note_on_c, 9, 44, 0
3, 40620, Note_on_c, 9, 44, 127
3, 40627, Note_on_c, 9, 44, 0
3, 40680, Note_on_c, 9, 38, 127
3, 40680, Note_on_c, 9, 44, 127
3, 40687, Note_on_c, 9, 36, 0
3, 40687, Note_on_c, 9, 44, 0
3, 40740, Note_on_c, 9, 44, 127
3, 40747, Note_on_c, 9, 44, 0
3, 40800, Note_on_c, 9, 36, 127
3, 40800, Note_on_c, 9, 44, 127
3, 40807, Note_on_c, 9, 38, 0
3, 40807, Note_on_c, 9, 44, 0
3, 40860, Note_on_c, 9, 44, 127
3, 40867, Note_on_c, 9, 44, 0
3, 40920, Note_on_c, 9, 38, 127
3, 40920, Note_on_c, 9, 44, 127
3, 40927, Note_on_c, 9, 36, 0
3, 40927, Note_on_c, 9, 44, 0
3, 40980, Note_on_c, 9, 44, 127
3, 40987, Note_on_c, 9, 44, 0
3, 41040, Note_on_c, 9, 36, 127
3, 41040, Note_on_c, 9, 44, 127
3, 41047, Note_on_c, 9, 38, 0
3, 41047, Note_on_c, 9, 44, 0
3, 41100, Note_on_c, 9, 44, 127
3, 41107, Note_on_c, 9, 44, 0
3, 41160, Note_on_c, 9, 38, 127
3, 41160, Note_on_c, 9, 44, 127
3, 41167, Note_on_c, 9, 36, 0
3, 41167, Note_on_c, 9, 44, 0
3, 41220, Note_on_c, 9, 44, 127
3, 41227, Note_on_c, 9, 44, 0
3, 41280, Note_on_c, 9, 36, 127
3, 41280, Note_on_c, 9, 44, 127
3, 41287, Note_on_c, 9, 38, 0
3, 41287, Note_on_c, 9, 44, 0
3, 41340, Note_on_c, 9, 44, 127
3, 41347, Note_on_c, 9, 44, 0
3, 41400, Note_on_c, 9, 38, 127
3, 41400, Note_on_c, 9, 44, 127
3, 41407, Note_on_c, 9, 36, 0
3, 41407, Note_on_c, 9, 44, 0
3, 41460, Note_on_c, 9, 44, 127
3, 41467, Note_on_c, 9, 44, 0
3, 41520, Note_on_c, 9, 36, 127
3, 41520, Note_on_c, 9, 44, 127
3, 41527, Note_on_c, 9, 38, 0
3, 41527, Note_on_c, 9, 44, 0
3, 41580, Note_on_c, 9, 44, 127
3, 41587, Note_on_c, 9, 44, 0
3, 41640, Note_on_c, 9, 38, 127
3, 41640, Note_on_c, 9, 44, 127
3, 41647, Note_on_c, 9, 36, 0
3, 41647, Note_on_c, 9, 44, 0
3, 41700, Note_on_c, 9, 44, 127
3, 41707, Note_on_c, 9, 44, 0
3, 41760, Note_on_c, 9, 36, 127
3, 41760, Note_on_c, 9, 44, 127
3, 41767, Note_on_c, 9, 38, 0
3, 41767, Note_on_c, 9, 44, 0
3, 41820, Note_on_c, 9, 44, 127
3, 41827, Note_on_c, 9, 44, 0
3, 41880, Note_on_c, 9, 38, 127
3, 41880, Note_on_c, 9, 44, 127
3, 41887, Note_on_c, 9, 36, 0
3, 41887, Note_on_c, 9, 44, 0
3, 41940, Note_on_c, 9, 44, 127
3, 41947, Note_on_c, 9, 44, 0
3, 42000, Note_on_c, 9, 36, 127
3, 42000, Note_on_c, 9, 44, 127
3, 42007, Note_on_c, 9, 38, 0
3, 42007, Note_on_c, 9, 44, 0
3, 42060, Note_on_c, 9, 44, 127
3, 42067, Note_on_c, 9, 44, 0
3, 42120, Note_on_c, 9, 38, 127
3, 42120, Note_on_c, 9, 44, 127
3, 42127, Note_on_c, 9, 36, 0
3, 42127, Note_on_c, 9, 44, 0
3, 42180, Note_on_c, 9, 44, 127
3, 42187, Note_on_c, 9, 44, 0
3, 42240, Note_on_c, 9, 36, 127
3, 42240, Note_on_c, 9, 44, 127
3, 42247, Note_on_c, 9, 38, 0
3, 42247, Note_on_c, 9, 44, 0
3, 42300, Note_on_c, 9, 44, 127
3, 42307, Note_on_c, 9, 44, 0
3, 42360, Note_on_c, 9, 38, 127
3, 42360, Note_on_c, 9, 44, 127
3, 42367, Note_on_c, 9, 36, 0
3, 42367, Note_on_c, 9, 44, 0
3, 42420, Note_on_c, 9, 44, 127
3, 42427, Note_on_c, 9, 44, 0
3, 42480, Note_on_c, 9, 36, 127
3, 42480, Note_on_c, 9, 44, 127
3, 42487, Note_on_c, 9, 38, 0
3, 42487, Note_on_c, 9, 44, 0
3, 42540, Note_on_c, 9, 44, 127
3, 42547, Note_on_c, 9, 44, 0
3, 42600, Note_on_c, 9, 38, 127
3, 42600, Note_on_c, 9, 44, 127
3, 42600, Note_on_c, 9, 45, 127
3, 42607, Note_on_c, 9, 36, 0
3, 42607, Note_on_c, 9, 44, 0
3, 42630, Note_on_c, 9, 43, 127
3, 42650, Note_on_c, 9, 45, 0
3, 42660, Note_on_c, 9, 44, 127
3, 42660, Note_on_c, 9, 41, 127
3, 42667, Note_on_c, 9, 44, 0
3, 42680, Note_on_c, 9, 43, 0
3, 42690, Note_on_c, 9, 41, 127
3, 42710, Note_on_c, 9, 41, 0
3, 42720, Note_on_c, 9, 36, 127
3, 42720, Note_on_c, 9, 44, 127
3, 42720, Note_on_c, 9, 49, 127
3, 42720, Note_on_c, 9, 49, 127
3, 42727, Note_on_c, 9, 44, 0
3, 42727, Note_on_c, 9, 38, 0
3, 42740, Note_on_c, 9, 41, 0
3, 42780, Note_on_c, 9, 44, 127
3, 42787, Note_on_c, 9, 44, 0
3, 42840, Note_on_c, 9, 38, 127
3, 42840, Note_on_c, 9, 44, 127
3, 42847, Note_on_c, 9, 49, 0
3, 42847, Note_on_c, 9, 49, 0
3, 42847, Note_on_c, 9, 36, 0
3, 42847, Note_on_c, 9, 44, 0
3, 42900, Note_on_c, 9, 44, 127
3, 42907, Note_on_c, 9, 44, 0
3, 42960, Note_on_c, 9, 36, 127
3, 42960, Note_on_c, 9, 44, 127
3, 42967, Note_on_c, 9, 38, 0
3, 42967, Note_on_c, 9, 44, 0
3, 43020, Note_on_c, 9, 44, 127
3, 43027, Note_on_c, 9, 44, 0
3, 43080, Note_on_c, 9, 38, 127
3, 43080, Note_on_c, 9, 44, 127
3, 43087, Note_on_c, 9, 36, 0
3, 43087, Note_on_c, 9, 44, 0
3, 43140, Note_on_c, 9, 44, 127
3, 43147, Note_on_c, 9, 44, 0
3, 43200, Note_on_c, 9, 36, 127
3, 43200, Note_on_c, 9, 44, 127
3, 43207, Note_on_c, 9, 38, 0
3, 43207, Note_on_c, 9, 44, 0
3, 43260, Note_on_c, 9, 44, 127
3, 43267, Note_on_c, 9, 44, 0
3, 43320, Note_on_c, 9, 38, 127
3, 43320, Note_on_c, 9, 44, 127
3, 43327, Note_on_c, 9, 36, 0
3, 43327, Note_on_c, 9, 44, 0
3, 43380, Note_on_c, 9, 44, 127
3, 43387, Note_on_c, 9, 44, 0
3, 43440, Note_on_c, 9, 36, 127
3, 43440, Note_on_c, 9, 44, 127
3, 43447, Note_on_c, 9, 38, 0
3, 43447, Note_on_c, 9, 44, 0
3, 43500, Note_on_c, 9, 44, 127
3, 43507, Note_on_c, 9, 44, 0
3, 43560, Note_on_c, 9, 38, 127
3, 43560, Note_on_c, 9, 44, 127
3, 43567, Note_on_c, 9, 36, 0
3, 43567, Note_on_c, 9, 44, 0
3, 43620, Note_on_c, 9, 44, 127
3, 43620, Note_on_c, 9, 46, 127
3, 43627, Note_on_c, 9, 44, 0
3, 43680, Note_on_c, 9, 36, 127
3, 43680, Note_on_c, 9, 44, 127
3, 43687, Note_on_c, 9, 38, 0
3, 43687, Note_on_c, 9, 44, 0
3, 43740, Note_on_c, 9, 44, 127
3, 43747, Note_on_c, 9, 46, 0
3, 43747, Note_on_c, 9, 44, 0
3, 43800, Note_on_c, 9, 38, 127
3, 43800, Note_on_c, 9, 44, 127
3, 43807, Note_on_c, 9, 36, 0
3, 43807, Note_on_c, 9, 44, 0
3, 43860, Note_on_c, 9, 44, 127
3, 43867, Note_on_c, 9, 44, 0
3, 43920, Note_on_c, 9, 36, 127
3, 43920, Note_on_c, 9, 44, 127
3, 43927, Note_on_c, 9, 38, 0
3, 43927, Note_on_c, 9, 44, 0
3, 43980, Note_on_c, 9, 44, 127
3, 43987, Note_on_c, 9, 44, 0
3, 44040, Note_on_c, 9, 38, 127
3, 44040, Note_on_c, 9, 44, 127
3, 44047, Note_on_c, 9, 36, 0
3, 44047, Note_on_c, 9, 44, 0
3, 44100, Note_on_c, 9, 44, 127
3, 44107, Note_on_c, 9, 44, 0
3, 44160, Note_on_c, 9, 36, 127
3, 44160, Note_on_c, 9, 44, 127
3, 44167, Note_on_c, 9, 38, 0
3, 44167, Note_on_c, 9, 44, 0
3, 44220, Note_on_c, 9, 44, 127
3, 44227, Note_on_c, 9, 44, 0
3, 44280, Note_on_c, 9, 38, 127
3, 44280, Note_on_c, 9, 44, 127
3, 44287, Note_on_c, 9, 36, 0
3, 44287, Note_on_c, 9, 44, 0
3, 44340, Note_on_c, 9, 44, 127
3, 44347, Note_on_c, 9, 44, 0
3, 44400, Note_on_c, 9, 36, 127
3, 44400, Note_on_c, 9, 44, 127
3, 44407, Note_on_c, 9, 38, 0
3, 44407, Note_on_c, 9, 44, 0
3, 44460, Note_on_c, 9, 44, 127
3, 44467, Note_on_c, 9, 44, 0
3, 44520, Note_on_c, 9, 38, 127
3, 44520, Note_on_c, 9, 44, 127
3, 44527, Note_on_c, 9, 36, 0
3, 44527, Note_on_c, 9, 44, 0
3, 44580, Note_on_c, 9, 44, 127
3, 44587, Note_on_c, 9, 44, 0
3, 44640, Note_on_c, 9, 36, 127
3, 44640, Note_on_c, 9, 44, 127
3, 44647, Note_on_c, 9, 38, 0
3, 44647, Note_on_c, 9, 44, 0
3, 44700, Note_on_c, 9, 44, 127
3, 44707, Note_on_c, 9, 44, 0
3, 44760, Note_on_c, 9, 38, 127
3, 44760, Note_on_c, 9, 44, 127
3, 44767, Note_on_c, 9, 36, 0
3, 44767, Note_on_c, 9, 44, 0
3, 44820, Note_on_c, 9, 44, 127
3, 44827, Note_on_c, 9, 44, 0
3, 44880, Note_on_c, 9, 36, 127
3, 44880, Note_on_c, 9, 44, 127
3, 44887, Note_on_c, 9, 38, 0
3, 44887, Note_on_c, 9, 44, 0
3, 44940, Note_on_c, 9, 44, 127
3, 44947, Note_on_c, 9, 44, 0
3, 45000, Note_on_c, 9, 38, 127
3, 45000, Note_on_c, 9, 44, 127
3, 45007, Note_on_c, 9, 36, 0
3, 45007, Note_on_c, 9, 44, 0
3, 45060, Note_on_c, 9, 44, 127
3, 45067, Note_on_c, 9, 44, 0
3, 45120, Note_on_c, 9, 36, 127
3, 45120, Note_on_c, 9, 44, 127
3, 45127, Note_on_c, 9, 38, 0
3, 45127, Note_on_c, 9, 44, 0
3, 45180, Note_on_c, 9, 44, 127
3, 45187, Note_on_c, 9, 44, 0
3, 45240, Note_on_c, 9, 38, 127
3, 45240, Note_on_c, 9, 44, 127
3, 45247, Note_on_c, 9, 36, 0
3, 45247, Note_on_c, 9, 44, 0
3, 45300, Note_on_c, 9, 44, 127
3, 45307, Note_on_c, 9, 44, 0
3, 45360, Note_on_c, 9, 36, 127
3, 45360, Note_on_c, 9, 44, 127
3, 45367, Note_on_c, 9, 38, 0
3, 45367, Note_on_c, 9, 44, 0
3, 45420, Note_on_c, 9, 44, 127
3, 45427, Note_on_c, 9, 44, 0
3, 45480, Note_on_c, 9, 38, 127
3, 45480, Note_on_c, 9, 44, 127
3, 45487, Note_on_c, 9, 36, 0
3, 45487, Note_on_c, 9, 44, 0
3, 45540, Note_on_c, 9, 44, 127
3, 45547, Note_on_c, 9, 44, 0
3, 45600, Note_on_c, 9, 49, 124
3, 45600, Note_on_c, 9, 36, 127
3, 45600, Note_on_c, 9, 52, 104
3, 45600, Note_on_c, 9, 36, 126
3, 45600, Note_on_c, 9, 49, 104
3, 45607, Note_on_c, 9, 38, 0
3, 45607, Note_on_c, 9, 44, 0
3, 45610, Note_on_c, 9, 49, 0
3, 45613, Note_on_c, 9, 52, 0
3, 45618, Note_on_c, 9, 36, 0
3, 45630, Note_on_c, 9, 49, 0
3, 45630, Note_on_c, 9, 36, 0
3, 45667, Note_on_c, 9, 44, 0
3, 45720, Note_on_c, 9, 51, 119
3, 45780, Note_on_c, 9, 51, 0
3, 45840, Note_on_c, 9, 51, 119
3, 45900, Note_on_c, 9, 51, 0
3, 45960, Note_on_c, 9, 52, 110
3, 45960, Note_on_c, 9, 45, 120
3, 45960, Note_on_c, 9, 51, 119
3, 45960, Note_on_c, 9, 40, 127
3, 45973, Note_on_c, 9, 45, 0
3, 45974, Note_on_c, 9, 52, 0
3, 45990, Note_on_c, 9, 51, 0
3, 45990, Note_on_c, 9, 40, 0
3, 46020, Note_on_c, 9, 57, 123
3, 46020, Note_on_c, 9, 36, 126
3, 46020, Note_on_c, 9, 53, 125
3, 46020, Note_on_c, 9, 57, 113
3, 46020, Note_on_c, 9, 55, 120
3, 46020, Note_on_c, 9, 36, 126
3, 46020, Note_on_c, 9, 52, 110
3, 46029, Note_on_c, 9, 52, 0
3, 46032, Note_on_c, 9, 53, 0
3, 46039, Note_on_c, 9, 57, 0
3, 46040, Note_on_c, 9, 36, 0
3, 46050, Note_on_c, 9, 57, 0
3, 46050, Note_on_c, 9, 36, 0
3, 46050, Note_on_c, 9, 55, 0
3, 46200, Note_on_c, 9, 51, 114
3, 46230, Note_on_c, 9, 51, 0
3, 46320, Note_on_c, 9, 51, 114
3, 46380, Note_on_c, 9, 51, 0
3, 46380, Note_on_c, 9, 36, 126
3, 46440, Note_on_c, 9, 36, 0
3, 46440, Note_on_c, 9, 51, 114
3, 46500, Note_on_c, 9, 51, 0
3, 46530, Note_on_c, 9, 48, 85
3, 46530, Note_on_c, 9, 48, 110
3, 46536, Note_on_c, 9, 48, 0
3, 46560, Note_on_c, 9, 48, 0
3, 46560, Note_on_c, 9, 48, 125
3, 46560, Note_on_c, 9, 47, 123
3, 46560, Note_on_c, 9, 45, 107
3, 46560, Note_on_c, 9, 36, 126
3, 46572, Note_on_c, 9, 48, 0
3, 46590, Note_on_c, 9, 47, 0
3, 46590, Note_on_c, 9, 45, 0
3, 46620, Note_on_c, 9, 36, 0
3, 46620, Note_on_c, 9, 47, 126
3, 46620, Note_on_c, 9, 47, 126
3, 46620, Note_on_c, 9, 48, 127
3, 46638, Note_on_c, 9, 47, 0
3, 46650, Note_on_c, 9, 48, 0
3, 46680, Note_on_c, 9, 47, 0
3, 46710, Note_on_c, 9, 47, 127
3, 46710, Note_on_c, 9, 36, 125
3, 46710, Note_on_c, 9, 45, 127
3, 46727, Note_on_c, 9, 45, 0
3, 46770, Note_on_c, 9, 36, 0
3, 46770, Note_on_c, 9, 47, 0
3, 46800, Note_on_c, 9, 43, 127
3, 46800, Note_on_c, 9, 47, 127
3, 46800, Note_on_c, 9, 36, 126
3, 46839, Note_on_c, 9, 43, 0
3, 46860, Note_on_c, 9, 36, 0
3, 46860, Note_on_c, 9, 47, 0
3, 46890, Note_on_c, 9, 41, 104
3, 46890, Note_on_c, 9, 45, 125
3, 46899, Note_on_c, 9, 41, 0
3, 46920, Note_on_c, 9, 45, 0
3, 46920, Note_on_c, 9, 41, 126
3, 46920, Note_on_c, 9, 45, 125
3, 46920, Note_on_c, 9, 36, 120
3, 46936, Note_on_c, 9, 41, 0
3, 46950, Note_on_c, 9, 36, 0
3, 46950, Note_on_c, 9, 45, 0
3, 46980, Note_on_c, 9, 43, 125
3, 46980, Note_on_c, 9, 36, 113
3, 46980, Note_on_c, 9, 45, 123
3, 46980, Note_on_c, 9, 47, 90
3, 46983, Note_on_c, 9, 47, 0
3, 46988, Note_on_c, 9, 45, 0
3, 47010, Note_on_c, 9, 36, 0
3, 47010, Note_on_c, 9, 43, 0
3, 47010, Note_on_c, 9, 41, 123
3, 47010, Note_on_c, 9, 43, 126
3, 47010, Note_on_c, 9, 36, 104
3, 47021, Note_on_c, 9, 41, 0
3, 47040, Note_on_c, 9, 36, 0
3, 47040, Note_on_c, 9, 43, 0
3, 47040, Note_on_c, 9, 36, 107
3, 47040, Note_on_c, 9, 46, 104
3, 47040, Note_on_c, 9, 36, 127
3, 47040, Note_on_c, 9, 52, 107
3, 47040, Note_on_c, 9, 49, 124
3, 47040, Note_on_c, 9, 51, 96
3, 47040, Note_on_c, 9, 41, 123
3, 47040, Note_on_c, 9, 43, 120
3, 47048, Note_on_c, 9, 43, 0
3, 47048, Note_on_c, 9, 41, 0
3, 47070, Note_on_c, 9, 49, 0
3, 47070, Note_on_c, 9, 52, 0
3, 47070, Note_on_c, 9, 36, 0
3, 47070, Note_on_c, 9, 51, 0
3, 47100, Note_on_c, 9, 46, 0
3, 47100, Note_on_c, 9, 36, 0
3, 47100, Note_on_c, 9, 44, 60
3, 47130, Note_on_c, 9, 44, 0
3, 47130, Note_on_c, 9, 42, 104
3, 47160, Note_on_c, 9, 42, 0
3, 47160, Note_on_c, 9, 40, 117
3, 47160, Note_on_c, 9, 46, 109
3, 47220, Note_on_c, 9, 46, 0
3, 47220, Note_on_c, 9, 40, 0
3, 47220, Note_on_c, 9, 44, 64
3, 47250, Note_on_c, 9, 44, 0
3, 47250, Note_on_c, 9, 42, 104
3, 47280, Note_on_c, 9, 42, 0
3, 47280, Note_on_c, 9, 36, 53
3, 47280, Note_on_c, 9, 46, 104
3, 47340, Note_on_c, 9, 46, 0
3, 47340, Note_on_c, 9, 44, 79
3, 47370, Note_on_c, 9, 44, 0
3, 47370, Note_on_c, 9, 36, 0
3, 47370, Note_on_c, 9, 42, 104
3, 47400, Note_on_c, 9, 42, 0
3, 47400, Note_on_c, 9, 40, 117
3, 47400, Note_on_c, 9, 46, 114
3, 47460, Note_on_c, 9, 46, 0
3, 47460, Note_on_c, 9, 40, 0
3, 47460, Note_on_c, 9, 36, 79
3, 47460, Note_on_c, 9, 44, 84
3, 47490, Note_on_c, 9, 44, 0
3, 47490, Note_on_c, 9, 36, 0
3, 47490, Note_on_c, 9, 42, 100
3, 47520, Note_on_c, 9, 42, 0
3, 47520, Note_on_c, 9, 36, 117
3, 47520, Note_on_c, 9, 46, 119
3, 47580, Note_on_c, 9, 46, 0
3, 47580, Note_on_c, 9, 36, 0
3, 47610, Note_on_c, 9, 44, 75
3, 47640, Note_on_c, 9, 44, 0
3, 47640, Note_on_c, 9, 40, 110
3, 47640, Note_on_c, 9, 42, 100
3, 47640, Note_on_c, 9, 46, 92
3, 47670, Note_on_c, 9, 46, 0
3, 47670, Note_on_c, 9, 42, 0
3, 47700, Note_on_c, 9, 40, 0
3, 47700, Note_on_c, 9, 44, 81
3, 47730, Note_on_c, 9, 44, 0
3, 47730, Note_on_c, 9, 42, 96
3, 47760, Note_on_c, 9, 42, 0
3, 47760, Note_on_c, 9, 36, 113
3, 47760, Note_on_c, 9, 46, 100
3, 47790, Note_on_c, 9, 46, 0
3, 47820, Note_on_c, 9, 44, 89
3, 47850, Note_on_c, 9, 44, 0
3, 47850, Note_on_c, 9, 36, 0
3, 47850, Note_on_c, 9, 42, 92
3, 47880, Note_on_c, 9, 42, 0
3, 47880, Note_on_c, 9, 40, 110
3, 47880, Note_on_c, 9, 46, 109
3, 47910, Note_on_c, 9, 46, 0
3, 47940, Note_on_c, 9, 40, 0
3, 47940, Note_on_c, 9, 36, 88
3, 47940, Note_on_c, 9, 44, 77
3, 47970, Note_on_c, 9, 44, 0
3, 47970, Note_on_c, 9, 36, 0
3, 47970, Note_on_c, 9, 42, 92
3, 48000, Note_on_c, 9, 42, 0
3, 48000, Note_on_c, 9, 36, 110
3, 48000, Note_on_c, 9, 46, 114
3, 48030, Note_on_c, 9, 46, 0
3, 48060, Note_on_c, 9, 36, 0
3, 48060, Note_on_c, 9, 44, 77
3, 48090, Note_on_c, 9, 44, 0
3, 48090, Note_on_c, 9, 42, 96
3, 48120, Note_on_c, 9, 42, 0
3, 48120, Note_on_c, 9, 40, 110
3, 48120, Note_on_c, 9, 42, 38
3, 48120, Note_on_c, 9, 46, 109
3, 48150, Note_on_c, 9, 46, 0
3, 48150, Note_on_c, 9, 42, 0
3, 48180, Note_on_c, 9, 44, 86
3, 48210, Note_on_c, 9, 44, 0
3, 48210, Note_on_c, 9, 40, 0
3, 48210, Note_on_c, 9, 42, 100
3, 48240, Note_on_c, 9, 42, 0
3, 48240, Note_on_c, 9, 36, 110
3, 48240, Note_on_c, 9, 46, 109
3, 48270, Note_on_c, 9, 46, 0
3, 48300, Note_on_c, 9, 44, 92
3, 48330, Note_on_c, 9, 44, 0
3, 48330, Note_on_c, 9, 36, 0
3, 48330, Note_on_c, 9, 42, 100
3, 48360, Note_on_c, 9, 42, 0
3, 48360, Note_on_c, 9, 40, 110
3, 48360, Note_on_c, 9, 46, 114
3, 48390, Note_on_c, 9, 46, 0
3, 48420, Note_on_c, 9, 40, 0
3, 48420, Note_on_c, 9, 36, 70
3, 48420, Note_on_c, 9, 44, 84
3, 48450, Note_on_c, 9, 44, 0
3, 48450, Note_on_c, 9, 36, 0
3, 48450, Note_on_c, 9, 42, 100
3, 48480, Note_on_c, 9, 42, 0
3, 48480, Note_on_c, 9, 36, 120
3, 48480, Note_on_c, 9, 46, 109
3, 48510, Note_on_c, 9, 46, 0
3, 48540, Note_on_c, 9, 44, 84
3, 48570, Note_on_c, 9, 44, 0
3, 48570, Note_on_c, 9, 36, 0
3, 48570, Note_on_c, 9, 42, 89
3, 48600, Note_on_c, 9, 42, 0
3, 48600, Note_on_c, 9, 40, 113
3, 48600, Note_on_c, 9, 46, 114
3, 48630, Note_on_c, 9, 46, 0
3, 48660, Note_on_c, 9, 44, 92
3, 48690, Note_on_c, 9, 44, 0
3, 48690, Note_on_c, 9, 40, 0
3, 48690, Note_on_c, 9, 42, 96
3, 48720, Note_on_c, 9, 42, 0
3, 48720, Note_on_c, 9, 36, 113
3, 48720, Note_on_c, 9, 46, 114
3, 48750, Note_on_c, 9, 46, 0
3, 48780, Note_on_c, 9, 44, 100
3, 48810, Note_on_c, 9, 44, 0
3, 48810, Note_on_c, 9, 36, 0
3, 48810, Note_on_c, 9, 42, 100
3, 48840, Note_on_c, 9, 42, 0
3, 48840, Note_on_c, 9, 40, 110
3, 48840, Note_on_c, 9, 46, 114
3, 48870, Note_on_c, 9, 46, 0
3, 48900, Note_on_c, 9, 40, 0
3, 48900, Note_on_c, 9, 36, 74
3, 48900, Note_on_c, 9, 44, 100
3, 48930, Note_on_c, 9, 44, 0
3, 48930, Note_on_c, 9, 36, 0
3, 48930, Note_on_c, 9, 42, 109
3, 48960, Note_on_c, 9, 42, 0
3, 48960, Note_on_c, 9, 57, 123
3, 48960, Note_on_c, 9, 36, 113
3, 48960, Note_on_c, 9, 46, 109
3, 48975, Note_on_c, 9, 57, 0
3, 48990, Note_on_c, 9, 46, 0
3, 49020, Note_on_c, 9, 36, 0
3, 49020, Note_on_c, 9, 44, 96
3, 49050, Note_on_c, 9, 44, 0
3, 49050, Note_on_c, 9, 42, 100
3, 49080, Note_on_c, 9, 42, 0
3, 49080, Note_on_c, 9, 40, 110
3, 49080, Note_on_c, 9, 46, 114
3, 49110, Note_on_c, 9, 46, 0
3, 49140, Note_on_c, 9, 44, 92
3, 49170, Note_on_c, 9, 44, 0
3, 49170, Note_on_c, 9, 40, 0
3, 49170, Note_on_c, 9, 42, 100
3, 49200, Note_on_c, 9, 42, 0
3, 49200, Note_on_c, 9, 36, 120
3, 49200, Note_on_c, 9, 46, 114
3, 49230, Note_on_c, 9, 46, 0
3, 49260, Note_on_c, 9, 44, 96
3, 49290, Note_on_c, 9, 44, 0
3, 49290, Note_on_c, 9, 36, 0
3, 49290, Note_on_c, 9, 42, 100
3, 49320, Note_on_c, 9, 42, 0
3, 49320, Note_on_c, 9, 40, 117
3, 49320, Note_on_c, 9, 46, 100
3, 49350, Note_on_c, 9, 46, 0
3, 49380, Note_on_c, 9, 40, 0
3, 49380, Note_on_c, 9, 36, 92
3, 49380, Note_on_c, 9, 44, 89
3, 49410, Note_on_c, 9, 44, 0
3, 49410, Note_on_c, 9, 36, 0
3, 49410, Note_on_c, 9, 42, 92
3, 49440, Note_on_c, 9, 42, 0
3, 49440, Note_on_c, 9, 36, 110
3, 49440, Note_on_c, 9, 46, 104
3, 49470, Note_on_c, 9, 46, 0
3, 49500, Note_on_c, 9, 36, 0
3, 49500, Note_on_c, 9, 44, 81
3, 49530, Note_on_c, 9, 44, 0
3, 49530, Note_on_c, 9, 42, 96
3, 49560, Note_on_c, 9, 42, 0
3, 49560, Note_on_c, 9, 40, 110
3, 49560, Note_on_c, 9, 46, 109
3, 49590, Note_on_c, 9, 46, 0
3, 49620, Note_on_c, 9, 40, 0
3, 49620, Note_on_c, 9, 44, 81
3, 49650, Note_on_c, 9, 44, 0
3, 49650, Note_on_c, 9, 42, 96
3, 49680, Note_on_c, 9, 42, 0
3, 49680, Note_on_c, 9, 36, 120
3, 49680, Note_on_c, 9, 46, 109
3, 49710, Note_on_c, 9, 46, 0
3, 49740, Note_on_c, 9, 36, 0
3, 49740, Note_on_c, 9, 44, 92
3, 49770, Note_on_c, 9, 44, 0
3, 49770, Note_on_c, 9, 42, 86
3, 49800, Note_on_c, 9, 42, 0
3, 49800, Note_on_c, 9, 40, 120
3, 49800, Note_on_c, 9, 46, 109
3, 49830, Note_on_c, 9, 46, 0
3, 49860, Note_on_c, 9, 40, 0
3, 49860, Note_on_c, 9, 36, 59
3, 49860, Note_on_c, 9, 44, 92
3, 49890, Note_on_c, 9, 44, 0
3, 49890, Note_on_c, 9, 36, 0
3, 49890, Note_on_c, 9, 42, 104
3, 49920, Note_on_c, 9, 42, 0
3, 49920, Note_on_c, 9, 36, 113
3, 49920, Note_on_c, 9, 46, 114
3, 49950, Note_on_c, 9, 46, 0
3, 49980, Note_on_c, 9, 36, 0
3, 49980, Note_on_c, 9, 44, 92
3, 50010, Note_on_c, 9, 44, 0
3, 50010, Note_on_c, 9, 42, 96
3, 50040, Note_on_c, 9, 42, 0
3, 50040, Note_on_c, 9, 40, 110
3, 50040, Note_on_c, 9, 46, 104
3, 50070, Note_on_c, 9, 46, 0
3, 50100, Note_on_c, 9, 44, 92
3, 50130, Note_on_c, 9, 44, 0
3, 50130, Note_on_c, 9, 40, 0
3, 50130, Note_on_c, 9, 42, 104
3, 50160, Note_on_c, 9, 42, 0
3, 50160, Note_on_c, 9, 36, 110
3, 50160, Note_on_c, 9, 46, 109
3, 50190, Note_on_c, 9, 46, 0
3, 50220, Note_on_c, 9, 44, 104
3, 50250, Note_on_c, 9, 44, 0
3, 50250, Note_on_c, 9, 36, 0
3, 50250, Note_on_c, 9, 42, 104
3, 50280, Note_on_c, 9, 42, 0
3, 50280, Note_on_c, 9, 40, 113
3, 50280, Note_on_c, 9, 46, 109
3, 50310, Note_on_c, 9, 46, 0
3, 50310, Note_on_c, 9, 40, 0
3, 50340, Note_on_c, 9, 36, 90
3, 50340, Note_on_c, 9, 44, 104
3, 50370, Note_on_c, 9, 44, 0
3, 50370, Note_on_c, 9, 36, 0
3, 50370, Note_on_c, 9, 42, 96
3, 50400, Note_on_c, 9, 42, 0
3, 50400, Note_on_c, 9, 36, 117
3, 50400, Note_on_c, 9, 46, 109
3, 50430, Note_on_c, 9, 46, 0
3, 50460, Note_on_c, 9, 36, 0
3, 50460, Note_on_c, 9, 44, 104
3, 50490, Note_on_c, 9, 44, 0
3, 50490, Note_on_c, 9, 42, 92
3, 50520, Note_on_c, 9, 42, 0
3, 50520, Note_on_c, 9, 40, 113
3, 50520, Note_on_c, 9, 46, 104
3, 50520, Note_on_c, 9, 40, 104
3, 50550, Note_on_c, 9, 46, 0
3, 50550, Note_on_c, 9, 40, 0
3, 50550, Note_on_c, 9, 40, 92
3, 50580, Note_on_c, 9, 40, 0
3, 50580, Note_on_c, 9, 40, 0
3, 50580, Note_on_c, 9, 44, 96
3, 50610, Note_on_c, 9, 44, 0
3, 50610, Note_on_c, 9, 42, 96
3, 50610, Note_on_c, 9, 36, 88
3, 50640, Note_on_c, 9, 36, 0
3, 50640, Note_on_c, 9, 42, 0
3, 50640, Note_on_c, 9, 36, 120
3, 50640, Note_on_c, 9, 46, 109
3, 50640, Note_on_c, 9, 40, 113
3, 50670, Note_on_c, 9, 40, 0
3, 50670, Note_on_c, 9, 46, 0
3, 50670, Note_on_c, 9, 40, 107
3, 50700, Note_on_c, 9, 40, 0
3, 50700, Note_on_c, 9, 44, 96
3, 50730, Note_on_c, 9, 44, 0
3, 50730, Note_on_c, 9, 36, 0
3, 50730, Note_on_c, 9, 42, 100
3, 50730, Note_on_c, 9, 43, 113
3, 50760, Note_on_c, 9, 43, 0
3, 50760, Note_on_c, 9, 42, 0
3, 50760, Note_on_c, 9, 40, 113
3, 50760, Note_on_c, 9, 46, 114
3, 50790, Note_on_c, 9, 46, 0
3, 50790, Note_on_c, 9, 45, 120
3, 50820, Note_on_c, 9, 45, 0
3, 50820, Note_on_c, 9, 40, 0
3, 50820, Note_on_c, 9, 36, 80
3, 50820, Note_on_c, 9, 44, 96
3, 50820, Note_on_c, 9, 40, 99
3, 50850, Note_on_c, 9, 40, 0
3, 50850, Note_on_c, 9, 44, 0
3, 50850, Note_on_c, 9, 36, 0
3, 50850, Note_on_c, 9, 42, 54
3, 50850, Note_on_c, 9, 43, 97
3, 50880, Note_on_c, 9, 43, 0
3, 50880, Note_on_c, 9, 42, 0
3, 50880, Note_on_c, 9, 36, 107
3, 50880, Note_on_c, 9, 46, 71
3, 50880, Note_on_c, 9, 46, 104
3, 50880, Note_on_c, 9, 49, 126
3, 50893, Note_on_c, 9, 49, 0
3, 50910, Note_on_c, 9, 46, 0
3, 50940, Note_on_c, 9, 46, 0
3, 50940, Note_on_c, 9, 36, 0
3, 50940, Note_on_c, 9, 44, 60
3, 50970, Note_on_c, 9, 44, 0
3, 50970, Note_on_c, 9, 42, 104
3, 51000, Note_on_c, 9, 42, 0
3, 51000, Note_on_c, 9, 40, 117
3, 51000, Note_on_c, 9, 46, 109
3, 51060, Note_on_c, 9, 46, 0
3, 51060, Note_on_c, 9, 40, 0
3, 51060, Note_on_c, 9, 44, 64
3, 51090, Note_on_c, 9, 44, 0
3, 51090, Note_on_c, 9, 42, 104
3, 51120, Note_on_c, 9, 42, 0
3, 51120, Note_on_c, 9, 36, 53
3, 51120, Note_on_c, 9, 46, 104
3, 51180, Note_on_c, 9, 46, 0
3, 51180, Note_on_c, 9, 44, 79
3, 51210, Note_on_c, 9, 44, 0
3, 51210, Note_on_c, 9, 36, 0
3, 51210, Note_on_c, 9, 42, 104
3, 51240, Note_on_c, 9, 42, 0
3, 51240, Note_on_c, 9, 40, 117
3, 51240, Note_on_c, 9, 46, 114
3, 51300, Note_on_c, 9, 46, 0
3, 51300, Note_on_c, 9, 40, 0
3, 51300, Note_on_c, 9, 36, 79
3, 51300, Note_on_c, 9, 44, 84
3, 51330, Note_on_c, 9, 44, 0
3, 51330, Note_on_c, 9, 36, 0
3, 51330, Note_on_c, 9, 42, 100
3, 51360, Note_on_c, 9, 42, 0
3, 51360, Note_on_c, 9, 36, 117
3, 51360, Note_on_c, 9, 46, 119
3, 51420, Note_on_c, 9, 46, 0
3, 51420, Note_on_c, 9, 36, 0
3, 51450, Note_on_c, 9, 44, 75
3, 51480, Note_on_c, 9, 44, 0
3, 51480, Note_on_c, 9, 40, 110
3, 51480, Note_on_c, 9, 42, 100
3, 51480, Note_on_c, 9, 46, 92
3, 51510, Note_on_c, 9, 46, 0
3, 51510, Note_on_c, 9, 42, 0
3, 51540, Note_on_c, 9, 40, 0
3, 51540, Note_on_c, 9, 44, 81
3, 51570, Note_on_c, 9, 44, 0
3, 51570, Note_on_c, 9, 42, 96
3, 51600, Note_on_c, 9, 42, 0
3, 51600, Note_on_c, 9, 36, 113
3, 51600, Note_on_c, 9, 46, 100
3, 51630, Note_on_c, 9, 46, 0
3, 51660, Note_on_c, 9, 44, 89
3, 51690, Note_on_c, 9, 44, 0
3, 51690, Note_on_c, 9, 36, 0
3, 51690, Note_on_c, 9, 42, 92
3, 51720, Note_on_c, 9, 42, 0
3, 51720, Note_on_c, 9, 40, 110
3, 51720, Note_on_c, 9, 46, 109
3, 51750, Note_on_c, 9, 46, 0
3, 51780, Note_on_c, 9, 40, 0
3, 51780, Note_on_c, 9, 36, 88
3, 51780, Note_on_c, 9, 44, 77
3, 51810, Note_on_c, 9, 44, 0
3, 51810, Note_on_c, 9, 36, 0
3, 51810, Note_on_c, 9, 42, 92
3, 51840, Note_on_c, 9, 42, 0
3, 51840, Note_on_c, 9, 36, 110
3, 51840, Note_on_c, 9, 46, 114
3, 51870, Note_on_c, 9, 46, 0
3, 51900, Note_on_c, 9, 36, 0
3, 51900, Note_on_c, 9, 44, 77
3, 51930, Note_on_c, 9, 44, 0
3, 51930, Note_on_c, 9, 42, 96
3, 51960, Note_on_c, 9, 42, 0
3, 51960, Note_on_c, 9, 40, 110
3, 51960, Note_on_c, 9, 42, 38
3, 51960, Note_on_c, 9, 46, 109
3, 51990, Note_on_c, 9, 46, 0
3, 51990, Note_on_c, 9, 42, 0
3, 52020, Note_on_c, 9, 44, 86
3, 52050, Note_on_c, 9, 44, 0
3, 52050, Note_on_c, 9, 40, 0
3, 52050, Note_on_c, 9, 42, 100
3, 52080, Note_on_c, 9, 42, 0
3, 52080, Note_on_c, 9, 36, 110
3, 52080, Note_on_c, 9, 46, 109
3, 52110, Note_on_c, 9, 46, 0
3, 52140, Note_on_c, 9, 44, 92
3, 52170, Note_on_c, 9, 44, 0
3, 52170, Note_on_c, 9, 36, 0
3, 52170, Note_on_c, 9, 42, 100
3, 52200, Note_on_c, 9, 42, 0
3, 52200, Note_on_c, 9, 40, 110
3, 52200, Note_on_c, 9, 46, 114
3, 52230, Note_on_c, 9, 46, 0
3, 52260, Note_on_c, 9, 40, 0
3, 52260, Note_on_c, 9, 36, 70
3, 52260, Note_on_c, 9, 44, 84
3, 52290, Note_on_c, 9, 44, 0
3, 52290, Note_on_c, 9, 36, 0
3, 52290, Note_on_c, 9, 42, 100
3, 52320, Note_on_c, 9, 42, 0
3, 52320, Note_on_c, 9, 36, 120
3, 52320, Note_on_c, 9, 46, 109
3, 52350, Note_on_c, 9, 46, 0
3, 52380, Note_on_c, 9, 44, 84
3, 52410, Note_on_c, 9, 44, 0
3, 52410, Note_on_c, 9, 36, 0
3, 52410, Note_on_c, 9, 42, 89
3, 52440, Note_on_c, 9, 42, 0
3, 52440, Note_on_c, 9, 40, 113
3, 52440, Note_on_c, 9, 46, 114
3, 52470, Note_on_c, 9, 46, 0
3, 52500, Note_on_c, 9, 44, 92
3, 52530, Note_on_c, 9, 44, 0
3, 52530, Note_on_c, 9, 40, 0
3, 52530, Note_on_c, 9, 42, 96
3, 52560, Note_on_c, 9, 42, 0
3, 52560, Note_on_c, 9, 36, 113
3, 52560, Note_on_c, 9, 46, 114
3, 52590, Note_on_c, 9, 46, 0
3, 52620, Note_on_c, 9, 44, 100
3, 52650, Note_on_c, 9, 44, 0
3, 52650, Note_on_c, 9, 36, 0
3, 52650, Note_on_c, 9, 42, 100
3, 52680, Note_on_c, 9, 42, 0
3, 52680, Note_on_c, 9, 40, 110
3, 52680, Note_on_c, 9, 46, 114
3, 52710, Note_on_c, 9, 46, 0
3, 52740, Note_on_c, 9, 40, 0
3, 52740, Note_on_c, 9, 36, 74
3, 52740, Note_on_c, 9, 44, 100
3, 52770, Note_on_c, 9, 44, 0
3, 52770, Note_on_c, 9, 36, 0
3, 52770, Note_on_c, 9, 42, 109
3, 52800, Note_on_c, 9, 42, 0
3, 52800, Note_on_c, 9, 36, 113
3, 52800, Note_on_c, 9, 46, 109
3, 52830, Note_on_c, 9, 46, 0
3, 52860, Note_on_c, 9, 36, 0
3, 52860, Note_on_c, 9, 44, 96
3, 52890, Note_on_c, 9, 44, 0
3, 52890, Note_on_c, 9, 42, 100
3, 52920, Note_on_c, 9, 42, 0
3, 52920, Note_on_c, 9, 40, 110
3, 52920, Note_on_c, 9, 46, 114
3, 52950, Note_on_c, 9, 46, 0
3, 52980, Note_on_c, 9, 44, 92
3, 53010, Note_on_c, 9, 44, 0
3, 53010, Note_on_c, 9, 40, 0
3, 53010, Note_on_c, 9, 42, 100
3, 53040, Note_on_c, 9, 42, 0
3, 53040, Note_on_c, 9, 36, 120
3, 53040, Note_on_c, 9, 46, 114
3, 53070, Note_on_c, 9, 46, 0
3, 53100, Note_on_c, 9, 44, 96
3, 53130, Note_on_c, 9, 44, 0
3, 53130, Note_on_c, 9, 36, 0
3, 53130, Note_on_c, 9, 42, 100
3, 53160, Note_on_c, 9, 42, 0
3, 53160, Note_on_c, 9, 40, 117
3, 53160, Note_on_c, 9, 46, 100
3, 53190, Note_on_c, 9, 46, 0
3, 53220, Note_on_c, 9, 40, 0
3, 53220, Note_on_c, 9, 36, 92
3, 53220, Note_on_c, 9, 44, 89
3, 53250, Note_on_c, 9, 44, 0
3, 53250, Note_on_c, 9, 36, 0
3, 53250, Note_on_c, 9, 42, 92
3, 53280, Note_on_c, 9, 42, 0
3, 53280, Note_on_c, 9, 36, 110
3, 53280, Note_on_c, 9, 46, 104
3, 53310, Note_on_c, 9, 46, 0
3, 53340, Note_on_c, 9, 36, 0
3, 53340, Note_on_c, 9, 44, 81
3, 53370, Note_on_c, 9, 44, 0
3, 53370, Note_on_c, 9, 42, 96
3, 53400, Note_on_c, 9, 42, 0
3, 53400, Note_on_c, 9, 40, 110
3, 53400, Note_on_c, 9, 46, 109
3, 53430, Note_on_c, 9, 46, 0
3, 53460, Note_on_c, 9, 40, 0
3, 53460, Note_on_c, 9, 44, 81
3, 53490, Note_on_c, 9, 44, 0
3, 53490, Note_on_c, 9, 42, 96
3, 53520, Note_on_c, 9, 42, 0
3, 53520, Note_on_c, 9, 36, 120
3, 53520, Note_on_c, 9, 46, 109
3, 53550, Note_on_c, 9, 46, 0
3, 53580, Note_on_c, 9, 36, 0
3, 53580, Note_on_c, 9, 44, 92
3, 53610, Note_on_c, 9, 44, 0
3, 53610, Note_on_c, 9, 42, 86
3, 53640, Note_on_c, 9, 42, 0
3, 53640, Note_on_c, 9, 40, 120
3, 53640, Note_on_c, 9, 46, 109
3, 53670, Note_on_c, 9, 46, 0
3, 53700, Note_on_c, 9, 40, 0
3, 53700, Note_on_c, 9, 36, 59
3, 53700, Note_on_c, 9, 44, 92
3, 53730, Note_on_c, 9, 44, 0
3, 53730, Note_on_c, 9, 36, 0
3, 53730, Note_on_c, 9, 42, 104
3, 53760, Note_on_c, 9, 42, 0
3, 53760, Note_on_c, 9, 36, 113
3, 53760, Note_on_c, 9, 46, 114
3, 53790, Note_on_c, 9, 46, 0
3, 53820, Note_on_c, 9, 36, 0
3, 53820, Note_on_c, 9, 44, 92
3, 53850, Note_on_c, 9, 44, 0
3, 53850, Note_on_c, 9, 42, 96
3, 53880, Note_on_c, 9, 42, 0
3, 53880, Note_on_c, 9, 40, 110
3, 53880, Note_on_c, 9, 46, 104
3, 53910, Note_on_c, 9, 46, 0
3, 53940, Note_on_c, 9, 44, 92
3, 53970, Note_on_c, 9, 44, 0
3, 53970, Note_on_c, 9, 40, 0
3, 53970, Note_on_c, 9, 42, 104
3, 54000, Note_on_c, 9, 42, 0
3, 54000, Note_on_c, 9, 36, 110
3, 54000, Note_on_c, 9, 46, 109
3, 54030, Note_on_c, 9, 46, 0
3, 54060, Note_on_c, 9, 44, 104
3, 54090, Note_on_c, 9, 44, 0
3, 54090, Note_on_c, 9, 36, 0
3, 54090, Note_on_c, 9, 42, 104
3, 54120, Note_on_c, 9, 42, 0
3, 54120, Note_on_c, 9, 40, 113
3, 54120, Note_on_c, 9, 46, 109
3, 54150, Note_on_c, 9, 46, 0
3, 54150, Note_on_c, 9, 40, 0
3, 54180, Note_on_c, 9, 36, 90
3, 54180, Note_on_c, 9, 44, 104
3, 54210, Note_on_c, 9, 44, 0
3, 54210, Note_on_c, 9, 36, 0
3, 54210, Note_on_c, 9, 42, 96
3, 54240, Note_on_c, 9, 42, 0
3, 54240, Note_on_c, 9, 36, 117
3, 54240, Note_on_c, 9, 46, 109
3, 54270, Note_on_c, 9, 46, 0
3, 54300, Note_on_c, 9, 36, 0
3, 54300, Note_on_c, 9, 44, 104
3, 54330, Note_on_c, 9, 44, 0
3, 54330, Note_on_c, 9, 42, 92
3, 54360, Note_on_c, 9, 42, 0
3, 54360, Note_on_c, 9, 40, 113
3, 54360, Note_on_c, 9, 46, 104
3, 54390, Note_on_c, 9, 46, 0
3, 54420, Note_on_c, 9, 40, 0
3, 54420, Note_on_c, 9, 44, 96
3, 54450, Note_on_c, 9, 44, 0
3, 54450, Note_on_c, 9, 42, 96
3, 54480, Note_on_c, 9, 42, 0
3, 54480, Note_on_c, 9, 36, 120
3, 54480, Note_on_c, 9, 46, 109
3, 54480, Note_on_c, 9, 40, 104
3, 54510, Note_on_c, 9, 40, 0
3, 54510, Note_on_c, 9, 46, 0
3, 54540, Note_on_c, 9, 44, 96
3, 54540, Note_on_c, 9, 40, 101
3, 54570, Note_on_c, 9, 40, 0
3, 54570, Note_on_c, 9, 44, 0
3, 54570, Note_on_c, 9, 36, 0
3, 54570, Note_on_c, 9, 42, 100
3, 54600, Note_on_c, 9, 42, 0
3, 54600, Note_on_c, 9, 40, 113
3, 54600, Note_on_c, 9, 46, 114
3, 54600, Note_on_c, 9, 36, 75
3, 54630, Note_on_c, 9, 36, 0
3, 54630, Note_on_c, 9, 46, 0
3, 54630, Note_on_c, 9, 40, 110
3, 54660, Note_on_c, 9, 40, 0
3, 54660, Note_on_c, 9, 40, 0
3, 54660, Note_on_c, 9, 36, 80
3, 54660, Note_on_c, 9, 44, 96
3, 54690, Note_on_c, 9, 44, 0
3, 54690, Note_on_c, 9, 36, 0
3, 54690, Note_on_c, 9, 42, 54
3, 54720, Note_on_c, 9, 42, 0
3, 54720, Note_on_c, 9, 57, 120
3, 54720, Note_on_c, 9, 36, 107
3, 54720, Note_on_c, 9, 46, 71
3, 54720, Note_on_c, 9, 46, 104
3, 54739, Note_on_c, 9, 57, 0
3, 54750, Note_on_c, 9, 46, 0
3, 54780, Note_on_c, 9, 36, 0
3, 54780, Note_on_c, 9, 46, 0
3, 54780, Note_on_c, 9, 44, 60
3, 54810, Note_on_c, 9, 44, 0
3, 54810, Note_on_c, 9, 42, 104
3, 54840, Note_on_c, 9, 42, 0
3, 54840, Note_on_c, 9, 40, 117
3, 54840, Note_on_c, 9, 46, 109
3, 54900, Note_on_c, 9, 46, 0
3, 54900, Note_on_c, 9, 40, 0
3, 54900, Note_on_c, 9, 44, 64
3, 54930, Note_on_c, 9, 44, 0
3, 54930, Note_on_c, 9, 42, 104
3, 54960, Note_on_c, 9, 42, 0
3, 54960, Note_on_c, 9, 36, 53
3, 54960, Note_on_c, 9, 46, 104
3, 55020, Note_on_c, 9, 46, 0
3, 55020, Note_on_c, 9, 44, 79
3, 55050, Note_on_c, 9, 44, 0
3, 55050, Note_on_c, 9, 36, 0
3, 55050, Note_on_c, 9, 42, 104
3, 55080, Note_on_c, 9, 42, 0
3, 55080, Note_on_c, 9, 40, 117
3, 55080, Note_on_c, 9, 46, 114
3, 55140, Note_on_c, 9, 46, 0
3, 55140, Note_on_c, 9, 40, 0
3, 55140, Note_on_c, 9, 36, 79
3, 55140, Note_on_c, 9, 44, 84
3, 55170, Note_on_c, 9, 44, 0
3, 55170, Note_on_c, 9, 36, 0
3, 55170, Note_on_c, 9, 42, 100
3, 55200, Note_on_c, 9, 42, 0
3, 55200, Note_on_c, 9, 36, 117
3, 55200, Note_on_c, 9, 46, 119
3, 55260, Note_on_c, 9, 46, 0
3, 55260, Note_on_c, 9, 36, 0
3, 55290, Note_on_c, 9, 44, 75
3, 55320, Note_on_c, 9, 44, 0
3, 55320, Note_on_c, 9, 40, 110
3, 55320, Note_on_c, 9, 42, 100
3, 55320, Note_on_c, 9, 46, 92
3, 55350, Note_on_c, 9, 46, 0
3, 55350, Note_on_c, 9, 42, 0
3, 55380, Note_on_c, 9, 40, 0
3, 55380, Note_on_c, 9, 44, 81
3, 55410, Note_on_c, 9, 44, 0
3, 55410, Note_on_c, 9, 42, 96
3, 55440, Note_on_c, 9, 42, 0
3, 55440, Note_on_c, 9, 36, 113
3, 55440, Note_on_c, 9, 46, 100
3, 55470, Note_on_c, 9, 46, 0
3, 55500, Note_on_c, 9, 44, 89
3, 55530, Note_on_c, 9, 44, 0
3, 55530, Note_on_c, 9, 36, 0
3, 55530, Note_on_c, 9, 42, 92
3, 55560, Note_on_c, 9, 42, 0
3, 55560, Note_on_c, 9, 40, 110
3, 55560, Note_on_c, 9, 46, 109
3, 55590, Note_on_c, 9, 46, 0
3, 55620, Note_on_c, 9, 40, 0
3, 55620, Note_on_c, 9, 36, 88
3, 55620, Note_on_c, 9, 44, 77
3, 55650, Note_on_c, 9, 44, 0
3, 55650, Note_on_c, 9, 36, 0
3, 55650, Note_on_c, 9, 42, 92
3, 55680, Note_on_c, 9, 42, 0
3, 55680, Note_on_c, 9, 36, 110
3, 55680, Note_on_c, 9, 46, 114
3, 55710, Note_on_c, 9, 46, 0
3, 55740, Note_on_c, 9, 36, 0
3, 55740, Note_on_c, 9, 44, 77
3, 55770, Note_on_c, 9, 44, 0
3, 55770, Note_on_c, 9, 42, 96
3, 55800, Note_on_c, 9, 42, 0
3, 55800, Note_on_c, 9, 40, 110
3, 55800, Note_on_c, 9, 42, 38
3, 55800, Note_on_c, 9, 46, 109
3, 55830, Note_on_c, 9, 46, 0
3, 55830, Note_on_c, 9, 42, 0
3, 55860, Note_on_c, 9, 44, 86
3, 55890, Note_on_c, 9, 44, 0
3, 55890, Note_on_c, 9, 40, 0
3, 55890, Note_on_c, 9, 42, 100
3, 55920, Note_on_c, 9, 42, 0
3, 55920, Note_on_c, 9, 36, 110
3, 55920, Note_on_c, 9, 46, 109
3, 55950, Note_on_c, 9, 46, 0
3, 55980, Note_on_c, 9, 44, 92
3, 56010, Note_on_c, 9, 44, 0
3, 56010, Note_on_c, 9, 36, 0
3, 56010, Note_on_c, 9, 42, 100
3, 56040, Note_on_c, 9, 42, 0
3, 56040, Note_on_c, 9, 40, 110
3, 56040, Note_on_c, 9, 46, 114
3, 56070, Note_on_c, 9, 46, 0
3, 56100, Note_on_c, 9, 40, 0
3, 56100, Note_on_c, 9, 36, 70
3, 56100, Note_on_c, 9, 44, 84
3, 56130, Note_on_c, 9, 44, 0
3, 56130, Note_on_c, 9, 36, 0
3, 56130, Note_on_c, 9, 42, 100
3, 56160, Note_on_c, 9, 42, 0
3, 56160, Note_on_c, 9, 36, 120
3, 56160, Note_on_c, 9, 46, 109
3, 56190, Note_on_c, 9, 46, 0
3, 56220, Note_on_c, 9, 44, 84
3, 56250, Note_on_c, 9, 44, 0
3, 56250, Note_on_c, 9, 36, 0
3, 56250, Note_on_c, 9, 42, 89
3, 56280, Note_on_c, 9, 42, 0
3, 56280, Note_on_c, 9, 40, 113
3, 56280, Note_on_c, 9, 46, 114
3, 56310, Note_on_c, 9, 46, 0
3, 56340, Note_on_c, 9, 44, 92
3, 56370, Note_on_c, 9, 44, 0
3, 56370, Note_on_c, 9, 40, 0
3, 56370, Note_on_c, 9, 42, 96
3, 56400, Note_on_c, 9, 42, 0
3, 56400, Note_on_c, 9, 36, 113
3, 56400, Note_on_c, 9, 46, 114
3, 56430, Note_on_c, 9, 46, 0
3, 56460, Note_on_c, 9, 44, 100
3, 56490, Note_on_c, 9, 44, 0
3, 56490, Note_on_c, 9, 36, 0
3, 56490, Note_on_c, 9, 42, 100
3, 56520, Note_on_c, 9, 42, 0
3, 56520, Note_on_c, 9, 40, 110
3, 56520, Note_on_c, 9, 46, 114
3, 56550, Note_on_c, 9, 46, 0
3, 56580, Note_on_c, 9, 40, 0
3, 56580, Note_on_c, 9, 36, 74
3, 56580, Note_on_c, 9, 44, 100
3, 56610, Note_on_c, 9, 44, 0
3, 56610, Note_on_c, 9, 36, 0
3, 56610, Note_on_c, 9, 42, 109
3, 56640, Note_on_c, 9, 42, 0
3, 56640, Note_on_c, 9, 36, 113
3, 56640, Note_on_c, 9, 46, 109
3, 56670, Note_on_c, 9, 46, 0
3, 56700, Note_on_c, 9, 36, 0
3, 56700, Note_on_c, 9, 44, 96
3, 56730, Note_on_c, 9, 44, 0
3, 56730, Note_on_c, 9, 42, 100
3, 56760, Note_on_c, 9, 42, 0
3, 56760, Note_on_c, 9, 40, 110
3, 56760, Note_on_c, 9, 46, 114
3, 56790, Note_on_c, 9, 46, 0
3, 56820, Note_on_c, 9, 44, 92
3, 56850, Note_on_c, 9, 44, 0
3, 56850, Note_on_c, 9, 40, 0
3, 56850, Note_on_c, 9, 42, 100
3, 56880, Note_on_c, 9, 42, 0
3, 56880, Note_on_c, 9, 36, 120
3, 56880, Note_on_c, 9, 46, 114
3, 56910, Note_on_c, 9, 46, 0
3, 56940, Note_on_c, 9, 44, 96
3, 56970, Note_on_c, 9, 44, 0
3, 56970, Note_on_c, 9, 36, 0
3, 56970, Note_on_c, 9, 42, 100
3, 57000, Note_on_c, 9, 42, 0
3, 57000, Note_on_c, 9, 40, 117
3, 57000, Note_on_c, 9, 46, 100
3, 57030, Note_on_c, 9, 46, 0
3, 57060, Note_on_c, 9, 40, 0
3, 57060, Note_on_c, 9, 36, 92
3, 57060, Note_on_c, 9, 44, 89
3, 57090, Note_on_c, 9, 44, 0
3, 57090, Note_on_c, 9, 36, 0
3, 57090, Note_on_c, 9, 42, 92
3, 57120, Note_on_c, 9, 42, 0
3, 57120, Note_on_c, 9, 36, 110
3, 57120, Note_on_c, 9, 46, 104
3, 57150, Note_on_c, 9, 46, 0
3, 57180, Note_on_c, 9, 36, 0
3, 57180, Note_on_c, 9, 44, 81
3, 57210, Note_on_c, 9, 44, 0
3, 57210, Note_on_c, 9, 42, 96
3, 57240, Note_on_c, 9, 42, 0
3, 57240, Note_on_c, 9, 40, 110
3, 57240, Note_on_c, 9, 46, 109
3, 57270, Note_on_c, 9, 46, 0
3, 57300, Note_on_c, 9, 40, 0
3, 57300, Note_on_c, 9, 44, 81
3, 57330, Note_on_c, 9, 44, 0
3, 57330, Note_on_c, 9, 42, 96
3, 57360, Note_on_c, 9, 42, 0
3, 57360, Note_on_c, 9, 36, 120
3, 57360, Note_on_c, 9, 46, 109
3, 57390, Note_on_c, 9, 46, 0
3, 57420, Note_on_c, 9, 36, 0
3, 57420, Note_on_c, 9, 44, 92
3, 57450, Note_on_c, 9, 44, 0
3, 57450, Note_on_c, 9, 42, 86
3, 57480, Note_on_c, 9, 42, 0
3, 57480, Note_on_c, 9, 40, 120
3, 57480, Note_on_c, 9, 46, 109
3, 57510, Note_on_c, 9, 46, 0
3, 57540, Note_on_c, 9, 40, 0
3, 57540, Note_on_c, 9, 36, 59
3, 57540, Note_on_c, 9, 44, 92
3, 57570, Note_on_c, 9, 44, 0
3, 57570, Note_on_c, 9, 36, 0
3, 57570, Note_on_c, 9, 42, 104
3, 57600, Note_on_c, 9, 42, 0
3, 57600, Note_on_c, 9, 36, 113
3, 57600, Note_on_c, 9, 46, 114
3, 57630, Note_on_c, 9, 46, 0
3, 57660, Note_on_c, 9, 36, 0
3, 57660, Note_on_c, 9, 44, 92
3, 57690, Note_on_c, 9, 44, 0
3, 57690, Note_on_c, 9, 42, 96
3, 57720, Note_on_c, 9, 42, 0
3, 57720, Note_on_c, 9, 40, 110
3, 57720, Note_on_c, 9, 46, 104
3, 57750, Note_on_c, 9, 46, 0
3, 57780, Note_on_c, 9, 44, 92
3, 57810, Note_on_c, 9, 44, 0
3, 57810, Note_on_c, 9, 40, 0
3, 57810, Note_on_c, 9, 42, 104
3, 57840, Note_on_c, 9, 42, 0
3, 57840, Note_on_c, 9, 36, 110
3, 57840, Note_on_c, 9, 46, 109
3, 57870, Note_on_c, 9, 46, 0
3, 57900, Note_on_c, 9, 44, 104
3, 57930, Note_on_c, 9, 44, 0
3, 57930, Note_on_c, 9, 36, 0
3, 57930, Note_on_c, 9, 42, 104
3, 57960, Note_on_c, 9, 42, 0
3, 57960, Note_on_c, 9, 40, 113
3, 57960, Note_on_c, 9, 46, 109
3, 57990, Note_on_c, 9, 46, 0
3, 57990, Note_on_c, 9, 40, 0
3, 58020, Note_on_c, 9, 36, 90
3, 58020, Note_on_c, 9, 44, 104
3, 58050, Note_on_c, 9, 44, 0
3, 58050, Note_on_c, 9, 36, 0
3, 58050, Note_on_c, 9, 42, 96
3, 58080, Note_on_c, 9, 42, 0
3, 58080, Note_on_c, 9, 36, 117
3, 58080, Note_on_c, 9, 46, 109
3, 58110, Note_on_c, 9, 46, 0
3, 58140, Note_on_c, 9, 36, 0
3, 58140, Note_on_c, 9, 44, 104
3, 58170, Note_on_c, 9, 44, 0
3, 58170, Note_on_c, 9, 42, 92
3, 58200, Note_on_c, 9, 42, 0
3, 58200, Note_on_c, 9, 40, 113
3, 58200, Note_on_c, 9, 46, 104
3, 58230, Note_on_c, 9, 46, 0
3, 58260, Note_on_c, 9, 40, 0
3, 58260, Note_on_c, 9, 44, 96
3, 58290, Note_on_c, 9, 44, 0
3, 58290, Note_on_c, 9, 42, 96
3, 58320, Note_on_c, 9, 42, 0
3, 58320, Note_on_c, 9, 36, 120
3, 58320, Note_on_c, 9, 46, 109
3, 58350, Note_on_c, 9, 46, 0
3, 58380, Note_on_c, 9, 44, 96
3, 58410, Note_on_c, 9, 44, 0
3, 58410, Note_on_c, 9, 36, 0
3, 58410, Note_on_c, 9, 42, 100
3, 58440, Note_on_c, 9, 42, 0
3, 58440, Note_on_c, 9, 40, 113
3, 58440, Note_on_c, 9, 46, 114
3, 58470, Note_on_c, 9, 46, 0
3, 58500, Note_on_c, 9, 40, 0
3, 58500, Note_on_c, 9, 55, 110
3, 58500, Note_on_c, 9, 36, 80
3, 58500, Note_on_c, 9, 44, 96
3, 58517, Note_on_c, 9, 55, 0
3, 58530, Note_on_c, 9, 44, 0
3, 58530, Note_on_c, 9, 36, 0
3, 58530, Note_on_c, 9, 42, 54
3, 58560, Note_on_c, 9, 42, 0
3, 58560, Note_on_c, 9, 57, 126
3, 58560, Note_on_c, 9, 36, 107
3, 58560, Note_on_c, 9, 46, 71
3, 58560, Note_on_c, 9, 46, 104
3, 58572, Note_on_c, 9, 57, 0
3, 58590, Note_on_c, 9, 46, 0
3, 58620, Note_on_c, 9, 36, 0
3, 58620, Note_on_c, 9, 46, 0
3, 58620, Note_on_c, 9, 44, 60
3, 58650, Note_on_c, 9, 44, 0
3, 58650, Note_on_c, 9, 42, 104
3, 58680, Note_on_c, 9, 42, 0
3, 58680, Note_on_c, 9, 40, 117
3, 58680, Note_on_c, 9, 46, 109
3, 58740, Note_on_c, 9, 46, 0
3, 58740, Note_on_c, 9, 40, 0
3, 58740, Note_on_c, 9, 44, 64
3, 58770, Note_on_c, 9, 44, 0
3, 58770, Note_on_c, 9, 42, 104
3, 58800, Note_on_c, 9, 42, 0
3, 58800, Note_on_c, 9, 36, 53
3, 58800, Note_on_c, 9, 46, 104
3, 58860, Note_on_c, 9, 46, 0
3, 58860, Note_on_c, 9, 44, 79
3, 58890, Note_on_c, 9, 44, 0
3, 58890, Note_on_c, 9, 36, 0
3, 58890, Note_on_c, 9, 42, 104
3, 58920, Note_on_c, 9, 42, 0
3, 58920, Note_on_c, 9, 40, 117
3, 58920, Note_on_c, 9, 46, 114
3, 58980, Note_on_c, 9, 46, 0
3, 58980, Note_on_c, 9, 40, 0
3, 58980, Note_on_c, 9, 36, 79
3, 58980, Note_on_c, 9, 44, 84
3, 59010, Note_on_c, 9, 44, 0
3, 59010, Note_on_c, 9, 36, 0
3, 59010, Note_on_c, 9, 42, 100
3, 59040, Note_on_c, 9, 42, 0
3, 59040, Note_on_c, 9, 36, 117
3, 59040, Note_on_c, 9, 46, 119
3, 59100, Note_on_c, 9, 46, 0
3, 59100, Note_on_c, 9, 36, 0
3, 59130, Note_on_c, 9, 44, 75
3, 59160, Note_on_c, 9, 44, 0
3, 59160, Note_on_c, 9, 40, 110
3, 59160, Note_on_c, 9, 42, 100
3, 59160, Note_on_c, 9, 46, 92
3, 59190, Note_on_c, 9, 46, 0
3, 59190, Note_on_c, 9, 42, 0
3, 59220, Note_on_c, 9, 40, 0
3, 59220, Note_on_c, 9, 44, 81
3, 59250, Note_on_c, 9, 44, 0
3, 59250, Note_on_c, 9, 42, 96
3, 59280, Note_on_c, 9, 42, 0
3, 59280, Note_on_c, 9, 36, 113
3, 59280, Note_on_c, 9, 46, 100
3, 59310, Note_on_c, 9, 46, 0
3, 59340, Note_on_c, 9, 44, 89
3, 59370, Note_on_c, 9, 44, 0
3, 59370, Note_on_c, 9, 36, 0
3, 59370, Note_on_c, 9, 42, 92
3, 59400, Note_on_c, 9, 42, 0
3, 59400, Note_on_c, 9, 40, 110
3, 59400, Note_on_c, 9, 46, 109
3, 59430, Note_on_c, 9, 46, 0
3, 59460, Note_on_c, 9, 40, 0
3, 59460, Note_on_c, 9, 36, 88
3, 59460, Note_on_c, 9, 44, 77
3, 59490, Note_on_c, 9, 44, 0
3, 59490, Note_on_c, 9, 36, 0
3, 59490, Note_on_c, 9, 42, 92
3, 59520, Note_on_c, 9, 42, 0
3, 59520, Note_on_c, 9, 36, 110
3, 59520, Note_on_c, 9, 46, 114
3, 59520, Note_on_c, 9, 53, 73
3, 59533, Note_on_c, 9, 53, 0
3, 59550, Note_on_c, 9, 46, 0
3, 59580, Note_on_c, 9, 36, 0
3, 59580, Note_on_c, 9, 44, 77
3, 59610, Note_on_c, 9, 44, 0
3, 59610, Note_on_c, 9, 42, 96
3, 59640, Note_on_c, 9, 42, 0
3, 59640, Note_on_c, 9, 40, 110
3, 59640, Note_on_c, 9, 42, 38
3, 59640, Note_on_c, 9, 46, 109
3, 59640, Note_on_c, 9, 53, 92
3, 59656, Note_on_c, 9, 53, 0
3, 59670, Note_on_c, 9, 46, 0
3, 59670, Note_on_c, 9, 42, 0
3, 59700, Note_on_c, 9, 44, 86
3, 59730, Note_on_c, 9, 44, 0
3, 59730, Note_on_c, 9, 40, 0
3, 59730, Note_on_c, 9, 42, 100
3, 59760, Note_on_c, 9, 42, 0
3, 59760, Note_on_c, 9, 36, 110
3, 59760, Note_on_c, 9, 46, 109
3, 59760, Note_on_c, 9, 53, 74
3, 59775, Note_on_c, 9, 53, 0
3, 59790, Note_on_c, 9, 46, 0
3, 59820, Note_on_c, 9, 44, 92
3, 59850, Note_on_c, 9, 44, 0
3, 59850, Note_on_c, 9, 36, 0
3, 59850, Note_on_c, 9, 42, 100
3, 59880, Note_on_c, 9, 42, 0
3, 59880, Note_on_c, 9, 40, 110
3, 59880, Note_on_c, 9, 46, 114
3, 59880, Note_on_c, 9, 53, 42
3, 59906, Note_on_c, 9, 53, 0
3, 59910, Note_on_c, 9, 46, 0
3, 59940, Note_on_c, 9, 40, 0
3, 59940, Note_on_c, 9, 36, 70
3, 59940, Note_on_c, 9, 44, 84
3, 59970, Note_on_c, 9, 44, 0
3, 59970, Note_on_c, 9, 36, 0
3, 59970, Note_on_c, 9, 42, 100
3, 60000, Note_on_c, 9, 42, 0
3, 60000, Note_on_c, 9, 36, 120
3, 60000, Note_on_c, 9, 46, 109
3, 60000, Note_on_c, 9, 51, 86
3, 60013, Note_on_c, 9, 51, 0
3, 60030, Note_on_c, 9, 46, 0
3, 60060, Note_on_c, 9, 44, 84
3, 60090, Note_on_c, 9, 44, 0
3, 60090, Note_on_c, 9, 36, 0
3, 60090, Note_on_c, 9, 42, 89
3, 60120, Note_on_c, 9, 42, 0
3, 60120, Note_on_c, 9, 40, 113
3, 60120, Note_on_c, 9, 46, 114
3, 60120, Note_on_c, 9, 51, 86
3, 60134, Note_on_c, 9, 51, 0
3, 60150, Note_on_c, 9, 46, 0
3, 60180, Note_on_c, 9, 44, 92
3, 60210, Note_on_c, 9, 44, 0
3, 60210, Note_on_c, 9, 40, 0
3, 60210, Note_on_c, 9, 42, 96
3, 60240, Note_on_c, 9, 42, 0
3, 60240, Note_on_c, 9, 36, 113
3, 60240, Note_on_c, 9, 46, 114
3, 60240, Note_on_c, 9, 51, 81
3, 60262, Note_on_c, 9, 51, 0
3, 60270, Note_on_c, 9, 46, 0
3, 60300, Note_on_c, 9, 44, 100
3, 60330, Note_on_c, 9, 44, 0
3, 60330, Note_on_c, 9, 36, 0
3, 60330, Note_on_c, 9, 42, 100
3, 60360, Note_on_c, 9, 42, 0
3, 60360, Note_on_c, 9, 40, 110
3, 60360, Note_on_c, 9, 46, 114
3, 60360, Note_on_c, 9, 51, 89
3, 60390, Note_on_c, 9, 46, 0
3, 60420, Note_on_c, 9, 40, 0
3, 60420, Note_on_c, 9, 36, 74
3, 60420, Note_on_c, 9, 44, 100
3, 60440, Note_on_c, 9, 51, 0
3, 60450, Note_on_c, 9, 44, 0
3, 60450, Note_on_c, 9, 36, 0
3, 60450, Note_on_c, 9, 42, 109
3, 60480, Note_on_c, 9, 42, 0
3, 60480, Note_on_c, 9, 36, 113
3, 60480, Note_on_c, 9, 46, 109
3, 60480, Note_on_c, 9, 51, 86
3, 60503, Note_on_c, 9, 51, 0
3, 60510, Note_on_c, 9, 46, 0
3, 60540, Note_on_c, 9, 36, 0
3, 60540, Note_on_c, 9, 44, 96
3, 60570, Note_on_c, 9, 44, 0
3, 60570, Note_on_c, 9, 42, 100
3, 60600, Note_on_c, 9, 42, 0
3, 60600, Note_on_c, 9, 40, 110
3, 60600, Note_on_c, 9, 46, 114
3, 60600, Note_on_c, 9, 51, 81
3, 60630, Note_on_c, 9, 46, 0
3, 60660, Note_on_c, 9, 44, 92
3, 60674, Note_on_c, 9, 51, 0
3, 60690, Note_on_c, 9, 44, 0
3, 60690, Note_on_c, 9, 40, 0
3, 60690, Note_on_c, 9, 42, 100
3, 60720, Note_on_c, 9, 42, 0
3, 60720, Note_on_c, 9, 36, 120
3, 60720, Note_on_c, 9, 46, 114
3, 60720, Note_on_c, 9, 51, 77
3, 60750, Note_on_c, 9, 46, 0
3, 60780, Note_on_c, 9, 44, 96
3, 60793, Note_on_c, 9, 51, 0
3, 60810, Note_on_c, 9, 44, 0
3, 60810, Note_on_c, 9, 36, 0
3, 60810, Note_on_c, 9, 42, 100
3, 60840, Note_on_c, 9, 42, 0
3, 60840, Note_on_c, 9, 40, 117
3, 60840, Note_on_c, 9, 46, 100
3, 60840, Note_on_c, 9, 51, 84
3, 60859, Note_on_c, 9, 51, 0
3, 60870, Note_on_c, 9, 46, 0
3, 60900, Note_on_c, 9, 40, 0
3, 60900, Note_on_c, 9, 36, 92
3, 60900, Note_on_c, 9, 44, 89
3, 60930, Note_on_c, 9, 44, 0
3, 60930, Note_on_c, 9, 36, 0
3, 60930, Note_on_c, 9, 42, 92
3, 60960, Note_on_c, 9, 42, 0
3, 60960, Note_on_c, 9, 36, 110
3, 60960, Note_on_c, 9, 46, 104
3, 60960, Note_on_c, 9, 51, 71
3, 60968, Note_on_c, 9, 51, 0
3, 60990, Note_on_c, 9, 46, 0
3, 61020, Note_on_c, 9, 36, 0
3, 61020, Note_on_c, 9, 44, 81
3, 61050, Note_on_c, 9, 44, 0
3, 61050, Note_on_c, 9, 42, 96
3, 61080, Note_on_c, 9, 42, 0
3, 61080, Note_on_c, 9, 40, 110
3, 61080, Note_on_c, 9, 46, 109
3, 61080, Note_on_c, 9, 51, 81
3, 61095, Note_on_c, 9, 51, 0
3, 61110, Note_on_c, 9, 46, 0
3, 61140, Note_on_c, 9, 40, 0
3, 61140, Note_on_c, 9, 44, 81
3, 61170, Note_on_c, 9, 44, 0
3, 61170, Note_on_c, 9, 42, 96
3, 61200, Note_on_c, 9, 42, 0
3, 61200, Note_on_c, 9, 51, 86
3, 61200, Note_on_c, 9, 36, 120
3, 61200, Note_on_c, 9, 46, 109
3, 61230, Note_on_c, 9, 46, 0
3, 61260, Note_on_c, 9, 36, 0
3, 61260, Note_on_c, 9, 44, 92
3, 61268, Note_on_c, 9, 51, 0
3, 61290, Note_on_c, 9, 44, 0
3, 61290, Note_on_c, 9, 42, 86
3, 61320, Note_on_c, 9, 42, 0
3, 61320, Note_on_c, 9, 40, 120
3, 61320, Note_on_c, 9, 46, 109
3, 61320, Note_on_c, 9, 51, 100
3, 61341, Note_on_c, 9, 51, 0
3, 61350, Note_on_c, 9, 46, 0
3, 61380, Note_on_c, 9, 40, 0
3, 61380, Note_on_c, 9, 36, 59
3, 61380, Note_on_c, 9, 44, 92
3, 61410, Note_on_c, 9, 44, 0
3, 61410, Note_on_c, 9, 36, 0
3, 61410, Note_on_c, 9, 42, 104
3, 61440, Note_on_c, 9, 42, 0
3, 61440, Note_on_c, 9, 49, 114
3, 61440, Note_on_c, 9, 36, 113
3, 61440, Note_on_c, 9, 46, 114
3, 61455, Note_on_c, 9, 49, 0
3, 61470, Note_on_c, 9, 46, 0
3, 61500, Note_on_c, 9, 36, 0
3, 61500, Note_on_c, 9, 44, 92
3, 61530, Note_on_c, 9, 44, 0
3, 61530, Note_on_c, 9, 42, 96
3, 61560, Note_on_c, 9, 42, 0
3, 61560, Note_on_c, 9, 40, 110
3, 61560, Note_on_c, 9, 46, 104
3, 61560, Note_on_c, 9, 51, 86
3, 61568, Note_on_c, 9, 51, 0
3, 61590, Note_on_c, 9, 46, 0
3, 61620, Note_on_c, 9, 44, 92
3, 61650, Note_on_c, 9, 44, 0
3, 61650, Note_on_c, 9, 40, 0
3, 61650, Note_on_c, 9, 42, 104
3, 61680, Note_on_c, 9, 42, 0
3, 61680, Note_on_c, 9, 51, 84
3, 61680, Note_on_c, 9, 36, 110
3, 61680, Note_on_c, 9, 46, 109
3, 61687, Note_on_c, 9, 51, 0
3, 61710, Note_on_c, 9, 46, 0
3, 61740, Note_on_c, 9, 44, 104
3, 61770, Note_on_c, 9, 44, 0
3, 61770, Note_on_c, 9, 36, 0
3, 61770, Note_on_c, 9, 42, 104
3, 61800, Note_on_c, 9, 42, 0
3, 61800, Note_on_c, 9, 40, 113
3, 61800, Note_on_c, 9, 46, 109
3, 61800, Note_on_c, 9, 51, 96
3, 61806, Note_on_c, 9, 51, 0
3, 61830, Note_on_c, 9, 46, 0
3, 61830, Note_on_c, 9, 40, 0
3, 61860, Note_on_c, 9, 36, 90
3, 61860, Note_on_c, 9, 44, 104
3, 61890, Note_on_c, 9, 44, 0
3, 61890, Note_on_c, 9, 36, 0
3, 61890, Note_on_c, 9, 42, 96
3, 61920, Note_on_c, 9, 42, 0
3, 61920, Note_on_c, 9, 36, 117
3, 61920, Note_on_c, 9, 46, 109
3, 61920, Note_on_c, 9, 51, 92
3, 61934, Note_on_c, 9, 51, 0
3, 61950, Note_on_c, 9, 46, 0
3, 61980, Note_on_c, 9, 36, 0
3, 61980, Note_on_c, 9, 44, 104
3, 62010, Note_on_c, 9, 44, 0
3, 62010, Note_on_c, 9, 42, 92
3, 62040, Note_on_c, 9, 42, 0
3, 62040, Note_on_c, 9, 40, 113
3, 62040, Note_on_c, 9, 46, 104
3, 62040, Note_on_c, 9, 51, 104
3, 62063, Note_on_c, 9, 51, 0
3, 62070, Note_on_c, 9, 46, 0
3, 62100, Note_on_c, 9, 40, 0
3, 62100, Note_on_c, 9, 44, 96
3, 62130, Note_on_c, 9, 44, 0
3, 62130, Note_on_c, 9, 42, 96
3, 62160, Note_on_c, 9, 42, 0
3, 62160, Note_on_c, 9, 51, 100
3, 62160, Note_on_c, 9, 36, 120
3, 62160, Note_on_c, 9, 46, 109
3, 62182, Note_on_c, 9, 51, 0
3, 62190, Note_on_c, 9, 46, 0
3, 62220, Note_on_c, 9, 44, 96
3, 62250, Note_on_c, 9, 44, 0
3, 62250, Note_on_c, 9, 36, 0
3, 62250, Note_on_c, 9, 42, 100
3, 62280, Note_on_c, 9, 42, 0
3, 62280, Note_on_c, 9, 40, 113
3, 62280, Note_on_c, 9, 46, 114
3, 62280, Note_on_c, 9, 51, 109
3, 62304, Note_on_c, 9, 51, 0
3, 62310, Note_on_c, 9, 46, 0
3, 62340, Note_on_c, 9, 40, 0
3, 62340, Note_on_c, 9, 55, 97
3, 62340, Note_on_c, 9, 36, 80
3, 62340, Note_on_c, 9, 44, 96
3, 62356, Note_on_c, 9, 55, 0
3, 62370, Note_on_c, 9, 44, 0
3, 62370, Note_on_c, 9, 36, 0
3, 62370, Note_on_c, 9, 42, 54
3, 62400, Note_on_c, 9, 42, 0
3, 62400, Note_on_c, 9, 57, 117
3, 62400, Note_on_c, 9, 36, 107
3, 62400, Note_on_c, 9, 46, 71
3, 62400, Note_on_c, 9, 46, 104
3, 62425, Note_on_c, 9, 57, 0
3, 62430, Note_on_c, 9, 46, 0
3, 62460, Note_on_c, 9, 36, 0
3, 62460, Note_on_c, 9, 46, 0
3, 62460, Note_on_c, 9, 44, 60
3, 62490, Note_on_c, 9, 44, 0
3, 62490, Note_on_c, 9, 42, 104
3, 62520, Note_on_c, 9, 42, 0
3, 62520, Note_on_c, 9, 40, 117
3, 62520, Note_on_c, 9, 46, 109
3, 62520, Note_on_c, 9, 51, 84
3, 62529, Note_on_c, 9, 51, 0
3, 62580, Note_on_c, 9, 46, 0
3, 62580, Note_on_c, 9, 40, 0
3, 62580, Note_on_c, 9, 44, 64
3, 62610, Note_on_c, 9, 44, 0
3, 62610, Note_on_c, 9, 42, 104
3, 62640, Note_on_c, 9, 42, 0
3, 62640, Note_on_c, 9, 36, 53
3, 62640, Note_on_c, 9, 46, 104
3, 62640, Note_on_c, 9, 51, 96
3, 62645, Note_on_c, 9, 51, 0
3, 62700, Note_on_c, 9, 46, 0
3, 62700, Note_on_c, 9, 44, 79
3, 62730, Note_on_c, 9, 44, 0
3, 62730, Note_on_c, 9, 36, 0
3, 62730, Note_on_c, 9, 42, 104
3, 62760, Note_on_c, 9, 42, 0
3, 62760, Note_on_c, 9, 40, 117
3, 62760, Note_on_c, 9, 46, 114
3, 62760, Note_on_c, 9, 51, 86
3, 62766, Note_on_c, 9, 51, 0
3, 62820, Note_on_c, 9, 46, 0
3, 62820, Note_on_c, 9, 40, 0
3, 62820, Note_on_c, 9, 36, 79
3, 62820, Note_on_c, 9, 44, 84
3, 62850, Note_on_c, 9, 44, 0
3, 62850, Note_on_c, 9, 36, 0
3, 62850, Note_on_c, 9, 42, 100
3, 62880, Note_on_c, 9, 42, 0
3, 62880, Note_on_c, 9, 36, 117
3, 62880, Note_on_c, 9, 46, 119
3, 62880, Note_on_c, 9, 51, 86
3, 62891, Note_on_c, 9, 51, 0
3, 62940, Note_on_c, 9, 46, 0
3, 62940, Note_on_c, 9, 36, 0
3, 62970, Note_on_c, 9, 44, 75
3, 63000, Note_on_c, 9, 44, 0
3, 63000, Note_on_c, 9, 40, 110
3, 63000, Note_on_c, 9, 42, 100
3, 63000, Note_on_c, 9, 46, 92
3, 63000, Note_on_c, 9, 51, 96
3, 63007, Note_on_c, 9, 51, 0
3, 63030, Note_on_c, 9, 46, 0
3, 63030, Note_on_c, 9, 42, 0
3, 63060, Note_on_c, 9, 40, 0
3, 63060, Note_on_c, 9, 44, 81
3, 63090, Note_on_c, 9, 44, 0
3, 63090, Note_on_c, 9, 42, 96
3, 63120, Note_on_c, 9, 42, 0
3, 63120, Note_on_c, 9, 51, 96
3, 63120, Note_on_c, 9, 36, 113
3, 63120, Note_on_c, 9, 46, 100
3, 63130, Note_on_c, 9, 51, 0
3, 63150, Note_on_c, 9, 46, 0
3, 63180, Note_on_c, 9, 44, 89
3, 63210, Note_on_c, 9, 44, 0
3, 63210, Note_on_c, 9, 36, 0
3, 63210, Note_on_c, 9, 42, 92
3, 63240, Note_on_c, 9, 42, 0
3, 63240, Note_on_c, 9, 51, 96
3, 63240, Note_on_c, 9, 40, 110
3, 63240, Note_on_c, 9, 46, 109
3, 63259, Note_on_c, 9, 51, 0
3, 63270, Note_on_c, 9, 46, 0
3, 63300, Note_on_c, 9, 40, 0
3, 63300, Note_on_c, 9, 36, 88
3, 63300, Note_on_c, 9, 44, 77
3, 63330, Note_on_c, 9, 44, 0
3, 63330, Note_on_c, 9, 36, 0
3, 63330, Note_on_c, 9, 42, 92
3, 63360, Note_on_c, 9, 42, 0
3, 63360, Note_on_c, 9, 51, 109
3, 63360, Note_on_c, 9, 36, 110
3, 63360, Note_on_c, 9, 46, 114
3, 63378, Note_on_c, 9, 51, 0
3, 63390, Note_on_c, 9, 46, 0
3, 63420, Note_on_c, 9, 36, 0
3, 63420, Note_on_c, 9, 44, 77
3, 63450, Note_on_c, 9, 44, 0
3, 63450, Note_on_c, 9, 42, 96
3, 63480, Note_on_c, 9, 42, 0
3, 63480, Note_on_c, 9, 40, 110
3, 63480, Note_on_c, 9, 42, 38
3, 63480, Note_on_c, 9, 46, 109
3, 63480, Note_on_c, 9, 51, 104
3, 63496, Note_on_c, 9, 51, 0
3, 63510, Note_on_c, 9, 46, 0
3, 63510, Note_on_c, 9, 42, 0
3, 63540, Note_on_c, 9, 44, 86
3, 63570, Note_on_c, 9, 44, 0
3, 63570, Note_on_c, 9, 40, 0
3, 63570, Note_on_c, 9, 42, 100
3, 63600, Note_on_c, 9, 42, 0
3, 63600, Note_on_c, 9, 36, 110
3, 63600, Note_on_c, 9, 46, 109
3, 63600, Note_on_c, 9, 51, 100
3, 63617, Note_on_c, 9, 51, 0
3, 63630, Note_on_c, 9, 46, 0
3, 63660, Note_on_c, 9, 44, 92
3, 63690, Note_on_c, 9, 44, 0
3, 63690, Note_on_c, 9, 36, 0
3, 63690, Note_on_c, 9, 42, 100
3, 63720, Note_on_c, 9, 42, 0
3, 63720, Note_on_c, 9, 40, 110
3, 63720, Note_on_c, 9, 46, 114
3, 63720, Note_on_c, 9, 51, 109
3, 63735, Note_on_c, 9, 51, 0
3, 63750, Note_on_c, 9, 46, 0
3, 63780, Note_on_c, 9, 40, 0
3, 63780, Note_on_c, 9, 36, 70
3, 63780, Note_on_c, 9, 44, 84
3, 63810, Note_on_c, 9, 44, 0
3, 63810, Note_on_c, 9, 36, 0
3, 63810, Note_on_c, 9, 42, 100
3, 63840, Note_on_c, 9, 42, 0
3, 63840, Note_on_c, 9, 36, 120
3, 63840, Note_on_c, 9, 46, 109
3, 63840, Note_on_c, 9, 55, 86
3, 63840, Note_on_c, 9, 51, 96
3, 63857, Note_on_c, 9, 51, 0
3, 63866, Note_on_c, 9, 55, 0
3, 63870, Note_on_c, 9, 46, 0
3, 63900, Note_on_c, 9, 44, 84
3, 63930, Note_on_c, 9, 44, 0
3, 63930, Note_on_c, 9, 36, 0
3, 63930, Note_on_c, 9, 42, 89
3, 63960, Note_on_c, 9, 42, 0
3, 63960, Note_on_c, 9, 40, 113
3, 63960, Note_on_c, 9, 46, 114
3, 63960, Note_on_c, 9, 51, 96
3, 63975, Note_on_c, 9, 51, 0
3, 63990, Note_on_c, 9, 46, 0
3, 64020, Note_on_c, 9, 44, 92
3, 64050, Note_on_c, 9, 44, 0
3, 64050, Note_on_c, 9, 40, 0
3, 64050, Note_on_c, 9, 42, 96
3, 64080, Note_on_c, 9, 42, 0
3, 64080, Note_on_c, 9, 51, 89
3, 64080, Note_on_c, 9, 36, 113
3, 64080, Note_on_c, 9, 46, 114
3, 64102, Note_on_c, 9, 51, 0
3, 64110, Note_on_c, 9, 46, 0
3, 64140, Note_on_c, 9, 44, 100
3, 64170, Note_on_c, 9, 44, 0
3, 64170, Note_on_c, 9, 36, 0
3, 64170, Note_on_c, 9, 42, 100
3, 64200, Note_on_c, 9, 42, 0
3, 64200, Note_on_c, 9, 40, 110
3, 64200, Note_on_c, 9, 46, 114
3, 64200, Note_on_c, 9, 51, 100
3, 64230, Note_on_c, 9, 46, 0
3, 64260, Note_on_c, 9, 40, 0
3, 64260, Note_on_c, 9, 36, 74
3, 64260, Note_on_c, 9, 44, 100
3, 64275, Note_on_c, 9, 51, 0
3, 64290, Note_on_c, 9, 44, 0
3, 64290, Note_on_c, 9, 36, 0
3, 64290, Note_on_c, 9, 42, 109
3, 64320, Note_on_c, 9, 42, 0
3, 64320, Note_on_c, 9, 36, 113
3, 64320, Note_on_c, 9, 46, 109
3, 64320, Note_on_c, 9, 55, 113
3, 64320, Note_on_c, 9, 51, 119
3, 64341, Note_on_c, 9, 51, 0
3, 64348, Note_on_c, 9, 55, 0
3, 64350, Note_on_c, 9, 46, 0
3, 64380, Note_on_c, 9, 36, 0
3, 64380, Note_on_c, 9, 44, 96
3, 64410, Note_on_c, 9, 44, 0
3, 64410, Note_on_c, 9, 42, 100
3, 64440, Note_on_c, 9, 42, 0
3, 64440, Note_on_c, 9, 40, 110
3, 64440, Note_on_c, 9, 46, 114
3, 64440, Note_on_c, 9, 51, 104
3, 64457, Note_on_c, 9, 51, 0
3, 64470, Note_on_c, 9, 46, 0
3, 64500, Note_on_c, 9, 44, 92
3, 64530, Note_on_c, 9, 44, 0
3, 64530, Note_on_c, 9, 40, 0
3, 64530, Note_on_c, 9, 42, 100
3, 64560, Note_on_c, 9, 42, 0
3, 64560, Note_on_c, 9, 36, 120
3, 64560, Note_on_c, 9, 46, 114
3, 64560, Note_on_c, 9, 51, 100
3, 64590, Note_on_c, 9, 46, 0
3, 64593, Note_on_c, 9, 51, 0
3, 64620, Note_on_c, 9, 44, 96
3, 64650, Note_on_c, 9, 44, 0
3, 64650, Note_on_c, 9, 36, 0
3, 64650, Note_on_c, 9, 42, 100
3, 64680, Note_on_c, 9, 42, 0
3, 64680, Note_on_c, 9, 40, 117
3, 64680, Note_on_c, 9, 46, 100
3, 64680, Note_on_c, 9, 51, 109
3, 64710, Note_on_c, 9, 46, 0
3, 64740, Note_on_c, 9, 40, 0
3, 64740, Note_on_c, 9, 36, 92
3, 64740, Note_on_c, 9, 44, 89
3, 64749, Note_on_c, 9, 51, 0
3, 64770, Note_on_c, 9, 44, 0
3, 64770, Note_on_c, 9, 36, 0
3, 64770, Note_on_c, 9, 42, 92
3, 64800, Note_on_c, 9, 42, 0
3, 64800, Note_on_c, 9, 36, 110
3, 64800, Note_on_c, 9, 46, 104
3, 64800, Note_on_c, 9, 51, 100
3, 64816, Note_on_c, 9, 51, 0
3, 64830, Note_on_c, 9, 46, 0
3, 64860, Note_on_c, 9, 36, 0
3, 64860, Note_on_c, 9, 44, 81
3, 64890, Note_on_c, 9, 44, 0
3, 64890, Note_on_c, 9, 42, 96
3, 64920, Note_on_c, 9, 42, 0
3, 64920, Note_on_c, 9, 40, 110
3, 64920, Note_on_c, 9, 46, 109
3, 64920, Note_on_c, 9, 51, 114
3, 64945, Note_on_c, 9, 51, 0
3, 64950, Note_on_c, 9, 46, 0
3, 64980, Note_on_c, 9, 40, 0
3, 64980, Note_on_c, 9, 44, 81
3, 65010, Note_on_c, 9, 44, 0
3, 65010, Note_on_c, 9, 42, 96
3, 65040, Note_on_c, 9, 42, 0
3, 65040, Note_on_c, 9, 36, 120
3, 65040, Note_on_c, 9, 46, 109
3, 65040, Note_on_c, 9, 51, 96
3, 65070, Note_on_c, 9, 46, 0
3, 65100, Note_on_c, 9, 36, 0
3, 65100, Note_on_c, 9, 44, 92
3, 65111, Note_on_c, 9, 51, 0
3, 65130, Note_on_c, 9, 44, 0
3, 65130, Note_on_c, 9, 42, 86
3, 65160, Note_on_c, 9, 42, 0
3, 65160, Note_on_c, 9, 40, 120
3, 65160, Note_on_c, 9, 46, 109
3, 65160, Note_on_c, 9, 51, 92
3, 65188, Note_on_c, 9, 51, 0
3, 65190, Note_on_c, 9, 46, 0
3, 65220, Note_on_c, 9, 40, 0
3, 65220, Note_on_c, 9, 55, 101
3, 65220, Note_on_c, 9, 36, 59
3, 65220, Note_on_c, 9, 44, 92
3, 65239, Note_on_c, 9, 55, 0
3, 65250, Note_on_c, 9, 44, 0
3, 65250, Note_on_c, 9, 36, 0
3, 65250, Note_on_c, 9, 42, 104
3, 65280, Note_on_c, 9, 42, 0
3, 65280, Note_on_c, 9, 36, 113
3, 65280, Note_on_c, 9, 46, 114
3, 65280, Note_on_c, 9, 57, 107
3, 65307, Note_on_c, 9, 57, 0
3, 65310, Note_on_c, 9, 46, 0
3, 65340, Note_on_c, 9, 36, 0
3, 65340, Note_on_c, 9, 44, 92
3, 65370, Note_on_c, 9, 44, 0
3, 65370, Note_on_c, 9, 42, 96
3, 65400, Note_on_c, 9, 42, 0
3, 65400, Note_on_c, 9, 40, 110
3, 65400, Note_on_c, 9, 46, 104
3, 65400, Note_on_c, 9, 51, 86
3, 65420, Note_on_c, 9, 51, 0
3, 65430, Note_on_c, 9, 46, 0
3, 65460, Note_on_c, 9, 44, 92
3, 65490, Note_on_c, 9, 44, 0
3, 65490, Note_on_c, 9, 40, 0
3, 65490, Note_on_c, 9, 42, 104
3, 65520, Note_on_c, 9, 42, 0
3, 65520, Note_on_c, 9, 36, 110
3, 65520, Note_on_c, 9, 46, 109
3, 65520, Note_on_c, 9, 51, 79
3, 65536, Note_on_c, 9, 51, 0
3, 65550, Note_on_c, 9, 46, 0
3, 65580, Note_on_c, 9, 44, 104
3, 65610, Note_on_c, 9, 44, 0
3, 65610, Note_on_c, 9, 36, 0
3, 65610, Note_on_c, 9, 42, 104
3, 65640, Note_on_c, 9, 42, 0
3, 65640, Note_on_c, 9, 40, 113
3, 65640, Note_on_c, 9, 46, 109
3, 65640, Note_on_c, 9, 51, 84
3, 65654, Note_on_c, 9, 51, 0
3, 65670, Note_on_c, 9, 46, 0
3, 65670, Note_on_c, 9, 40, 0
3, 65700, Note_on_c, 9, 36, 90
3, 65700, Note_on_c, 9, 44, 104
3, 65730, Note_on_c, 9, 44, 0
3, 65730, Note_on_c, 9, 36, 0
3, 65730, Note_on_c, 9, 42, 96
3, 65760, Note_on_c, 9, 42, 0
3, 65760, Note_on_c, 9, 36, 117
3, 65760, Note_on_c, 9, 46, 109
3, 65760, Note_on_c, 9, 51, 86
3, 65777, Note_on_c, 9, 51, 0
3, 65790, Note_on_c, 9, 46, 0
3, 65820, Note_on_c, 9, 36, 0
3, 65820, Note_on_c, 9, 44, 104
3, 65850, Note_on_c, 9, 44, 0
3, 65850, Note_on_c, 9, 42, 92
3, 65880, Note_on_c, 9, 42, 0
3, 65880, Note_on_c, 9, 40, 113
3, 65880, Note_on_c, 9, 46, 104
3, 65880, Note_on_c, 9, 51, 86
3, 65899, Note_on_c, 9, 51, 0
3, 65910, Note_on_c, 9, 46, 0
3, 65940, Note_on_c, 9, 40, 0
3, 65940, Note_on_c, 9, 44, 96
3, 65970, Note_on_c, 9, 44, 0
3, 65970, Note_on_c, 9, 42, 96
3, 66000, Note_on_c, 9, 42, 0
3, 66000, Note_on_c, 9, 47, 126
3, 66000, Note_on_c, 9, 36, 120
3, 66000, Note_on_c, 9, 46, 109
3, 66000, Note_on_c, 9, 51, 92
3, 66024, Note_on_c, 9, 51, 0
3, 66028, Note_on_c, 9, 47, 0
3, 66030, Note_on_c, 9, 46, 0
3, 66030, Note_on_c, 9, 36, 125
3, 66055, Note_on_c, 9, 36, 0
3, 66060, Note_on_c, 9, 44, 96
3, 66090, Note_on_c, 9, 44, 0
3, 66090, Note_on_c, 9, 36, 0
3, 66090, Note_on_c, 9, 42, 100
3, 66090, Note_on_c, 9, 36, 107
3, 66109, Note_on_c, 9, 36, 0
3, 66120, Note_on_c, 9, 42, 0
3, 66120, Note_on_c, 9, 40, 113
3, 66120, Note_on_c, 9, 46, 114
3, 66120, Note_on_c, 9, 51, 100
3, 66120, Note_on_c, 9, 45, 123
3, 66139, Note_on_c, 9, 45, 0
3, 66141, Note_on_c, 9, 51, 0
3, 66150, Note_on_c, 9, 46, 0
3, 66150, Note_on_c, 9, 36, 117
3, 66162, Note_on_c, 9, 36, 0
3, 66180, Note_on_c, 9, 40, 0
3, 66180, Note_on_c, 9, 36, 80
3, 66180, Note_on_c, 9, 44, 96
3, 66180, Note_on_c, 9, 43, 92
3, 66192, Note_on_c, 9, 43, 0
3, 66210, Note_on_c, 9, 44, 0
3, 66210, Note_on_c, 9, 36, 0
3, 66210, Note_on_c, 9, 43, 113
3, 66210, Note_on_c, 9, 42, 54
3, 66210, Note_on_c, 9, 41, 97
3, 66212, Note_on_c, 9, 41, 0
3, 66220, Note_on_c, 9, 43, 0
3, 66240, Note_on_c, 9, 42, 0
3, 66240, Control_c, 9, 7, 121
3, 66240, Note_on_c, 9, 52, 110
3, 66240, Note_on_c, 9, 49, 119
3, 66240, Note_on_c, 9, 53, 94
3, 66240, Note_on_c, 9, 49, 109
3, 66240, Note_on_c, 9, 51, 86
3, 66240, Note_on_c, 9, 36, 107
3, 66240, Note_on_c, 9, 46, 71
3, 66240, Note_on_c, 9, 46, 104
3, 66243, Note_on_c, 9, 51, 0
3, 66253, Note_on_c, 9, 53, 0
3, 66257, Note_on_c, 9, 49, 0
3, 66261, Note_on_c, 9, 49, 0
3, 66265, Note_on_c, 9, 52, 0
3, 66270, Note_on_c, 9, 46, 0
3, 66280, Control_c, 9, 7, 120
3, 66300, Note_on_c, 9, 36, 0
3, 66300, Note_on_c, 9, 46, 0
3, 66300, Note_on_c, 9, 44, 60
3, 66310, Control_c, 9, 7, 119
3, 66330, Note_on_c, 9, 44, 0
3, 66330, Note_on_c, 9, 42, 104
3, 66340, Control_c, 9, 7, 118
3, 66360, Note_on_c, 9, 42, 0
3, 66360, Note_on_c, 9, 40, 117
3, 66360, Note_on_c, 9, 46, 109
3, 66360, Note_on_c, 9, 51, 100
3, 66370, Control_c, 9, 7, 117
3, 66376, Note_on_c, 9, 51, 0
3, 66400, Control_c, 9, 7, 116
3, 66420, Note_on_c, 9, 46, 0
3, 66420, Note_on_c, 9, 40, 0
3, 66420, Note_on_c, 9, 44, 64
3, 66440, Control_c, 9, 7, 115
3, 66450, Note_on_c, 9, 44, 0
3, 66450, Note_on_c, 9, 42, 104
3, 66470, Control_c, 9, 7, 114
3, 66480, Note_on_c, 9, 42, 0
3, 66480, Note_on_c, 9, 36, 53
3, 66480, Note_on_c, 9, 46, 104
3, 66480, Note_on_c, 9, 51, 104
3, 66494, Note_on_c, 9, 51, 0
3, 66500, Control_c, 9, 7, 113
3, 66530, Control_c, 9, 7, 112
3, 66540, Note_on_c, 9, 46, 0
3, 66540, Note_on_c, 9, 44, 79
3, 66560, Control_c, 9, 7, 111
3, 66570, Note_on_c, 9, 44, 0
3, 66570, Note_on_c, 9, 36, 0
3, 66570, Note_on_c, 9, 42, 104
3, 66590, Control_c, 9, 7, 110
3, 66600, Note_on_c, 9, 42, 0
3, 66600, Note_on_c, 9, 51, 96
3, 66600, Note_on_c, 9, 40, 117
3, 66600, Note_on_c, 9, 46, 114
3, 66617, Note_on_c, 9, 51, 0
3, 66630, Control_c, 9, 7, 109
3, 66660, Note_on_c, 9, 46, 0
3, 66660, Note_on_c, 9, 40, 0
3, 66660, Control_c, 9, 7, 108
3, 66660, Note_on_c, 9, 36, 79
3, 66660, Note_on_c, 9, 44, 84
3, 66690, Note_on_c, 9, 44, 0
3, 66690, Note_on_c, 9, 36, 0
3, 66690, Control_c, 9, 7, 107
3, 66690, Note_on_c, 9, 42, 100
3, 66720, Note_on_c, 9, 42, 0
3, 66720, Control_c, 9, 7, 106
3, 66720, Note_on_c, 9, 36, 117
3, 66720, Note_on_c, 9, 46, 119
3, 66720, Note_on_c, 9, 51, 100
3, 66737, Note_on_c, 9, 51, 0
3, 66750, Control_c, 9, 7, 105
3, 66780, Note_on_c, 9, 46, 0
3, 66780, Note_on_c, 9, 36, 0
3, 66790, Control_c, 9, 7, 104
3, 66810, Note_on_c, 9, 44, 75
3, 66820, Control_c, 9, 7, 103
3, 66840, Note_on_c, 9, 44, 0
3, 66840, Note_on_c, 9, 40, 110
3, 66840, Note_on_c, 9, 42, 100
3, 66840, Note_on_c, 9, 46, 92
3, 66840, Note_on_c, 9, 51, 100
3, 66850, Control_c, 9, 7, 102
3, 66858, Note_on_c, 9, 51, 0
3, 66870, Note_on_c, 9, 46, 0
3, 66870, Note_on_c, 9, 42, 0
3, 66880, Control_c, 9, 7, 101
3, 66900, Note_on_c, 9, 40, 0
3, 66900, Note_on_c, 9, 44, 81
3, 66910, Control_c, 9, 7, 100
3, 66930, Note_on_c, 9, 44, 0
3, 66930, Note_on_c, 9, 42, 96
3, 66940, Control_c, 9, 7, 99
3, 66960, Note_on_c, 9, 42, 0
3, 66960, Note_on_c, 9, 36, 113
3, 66960, Note_on_c, 9, 46, 100
3, 66960, Note_on_c, 9, 51, 96
3, 66980, Note_on_c, 9, 51, 0
3, 66980, Control_c, 9, 7, 98
3, 66990, Note_on_c, 9, 46, 0
3, 67010, Control_c, 9, 7, 97
3, 67020, Note_on_c, 9, 44, 89
3, 67040, Control_c, 9, 7, 96
3, 67050, Note_on_c, 9, 44, 0
3, 67050, Note_on_c, 9, 36, 0
3, 67050, Note_on_c, 9, 42, 92
3, 67070, Control_c, 9, 7, 95
3, 67080, Note_on_c, 9, 42, 0
3, 67080, Note_on_c, 9, 40, 110
3, 67080, Note_on_c, 9, 46, 109
3, 67080, Note_on_c, 9, 51, 84
3, 67096, Note_on_c, 9, 51, 0
3, 67100, Control_c, 9, 7, 94
3, 67110, Note_on_c, 9, 46, 0
3, 67140, Note_on_c, 9, 40, 0
3, 67140, Control_c, 9, 7, 93
3, 67140, Note_on_c, 9, 36, 88
3, 67140, Note_on_c, 9, 44, 77
3, 67170, Note_on_c, 9, 44, 0
3, 67170, Note_on_c, 9, 36, 0
3, 67170, Control_c, 9, 7, 92
3, 67170, Note_on_c, 9, 42, 92
3, 67200, Note_on_c, 9, 42, 0
3, 67200, Control_c, 9, 7, 91
3, 67200, Note_on_c, 9, 36, 110
3, 67200, Note_on_c, 9, 46, 114
3, 67200, Note_on_c, 9, 51, 92
3, 67224, Note_on_c, 9, 51, 0
3, 67230, Note_on_c, 9, 46, 0
3, 67230, Control_c, 9, 7, 90
3, 67260, Note_on_c, 9, 36, 0
3, 67260, Control_c, 9, 7, 89
3, 67260, Note_on_c, 9, 44, 77
3, 67290, Note_on_c, 9, 44, 0
3, 67290, Control_c, 9, 7, 88
3, 67290, Note_on_c, 9, 42, 96
3, 67320, Note_on_c, 9, 42, 0
3, 67320, Note_on_c, 9, 40, 110
3, 67320, Note_on_c, 9, 42, 38
3, 67320, Note_on_c, 9, 46, 109
3, 67320, Note_on_c, 9, 51, 86
3, 67327, Note_on_c, 9, 51, 0
3, 67330, Control_c, 9, 7, 87
3, 67350, Note_on_c, 9, 46, 0
3, 67350, Note_on_c, 9, 42, 0
3, 67360, Control_c, 9, 7, 86
3, 67380, Note_on_c, 9, 44, 86
3, 67390, Control_c, 9, 7, 85
3, 67410, Note_on_c, 9, 44, 0
3, 67410, Note_on_c, 9, 40, 0
3, 67410, Note_on_c, 9, 42, 100
3, 67420, Control_c, 9, 7, 84
3, 67440, Note_on_c, 9, 42, 0
3, 67440, Note_on_c, 9, 36, 110
3, 67440, Note_on_c, 9, 46, 109
3, 67440, Note_on_c, 9, 51, 86
3, 67450, Note_on_c, 9, 51, 0
3, 67450, Control_c, 9, 7, 83
3, 67470, Note_on_c, 9, 46, 0
3, 67490, Control_c, 9, 7, 82
3, 67500, Note_on_c, 9, 44, 92
3, 67520, Control_c, 9, 7, 81
3, 67530, Note_on_c, 9, 44, 0
3, 67530, Note_on_c, 9, 36, 0
3, 67530, Note_on_c, 9, 42, 100
3, 67550, Control_c, 9, 7, 80
3, 67560, Note_on_c, 9, 42, 0
3, 67560, Note_on_c, 9, 40, 110
3, 67560, Note_on_c, 9, 46, 114
3, 67560, Note_on_c, 9, 51, 92
3, 67574, Note_on_c, 9, 51, 0
3, 67580, Control_c, 9, 7, 79
3, 67590, Note_on_c, 9, 46, 0
3, 67610, Control_c, 9, 7, 78
3, 67620, Note_on_c, 9, 40, 0
3, 67620, Note_on_c, 9, 36, 70
3, 67620, Note_on_c, 9, 44, 84
3, 67640, Control_c, 9, 7, 77
3, 67650, Note_on_c, 9, 44, 0
3, 67650, Note_on_c, 9, 36, 0
3, 67650, Note_on_c, 9, 42, 100
3, 67680, Note_on_c, 9, 42, 0
3, 67680, Control_c, 9, 7, 76
3, 67680, Note_on_c, 9, 55, 86
3, 67680, Note_on_c, 9, 51, 92
3, 67680, Note_on_c, 9, 36, 120
3, 67680, Note_on_c, 9, 46, 109
3, 67707, Note_on_c, 9, 51, 0
3, 67707, Note_on_c, 9, 55, 0
3, 67710, Note_on_c, 9, 46, 0
3, 67710, Control_c, 9, 7, 75
3, 67740, Control_c, 9, 7, 74
3, 67740, Note_on_c, 9, 44, 84
3, 67770, Note_on_c, 9, 44, 0
3, 67770, Note_on_c, 9, 36, 0
3, 67770, Control_c, 9, 7, 73
3, 67770, Note_on_c, 9, 42, 89
3, 67800, Note_on_c, 9, 42, 0
3, 67800, Control_c, 9, 7, 72
3, 67800, Note_on_c, 9, 40, 113
3, 67800, Note_on_c, 9, 46, 114
3, 67800, Note_on_c, 9, 51, 81
3, 67815, Note_on_c, 9, 51, 0
3, 67830, Note_on_c, 9, 46, 0
3, 67840, Control_c, 9, 7, 71
3, 67860, Note_on_c, 9, 44, 92
3, 67870, Control_c, 9, 7, 70
3, 67890, Note_on_c, 9, 44, 0
3, 67890, Note_on_c, 9, 40, 0
3, 67890, Note_on_c, 9, 42, 96
3, 67900, Control_c, 9, 7, 69
3, 67920, Note_on_c, 9, 42, 0
3, 67920, Note_on_c, 9, 36, 113
3, 67920, Note_on_c, 9, 46, 114
3, 67920, Note_on_c, 9, 51, 86
3, 67930, Control_c, 9, 7, 68
3, 67938, Note_on_c, 9, 51, 0
3, 67950, Note_on_c, 9, 46, 0
3, 67960, Control_c, 9, 7, 67
3, 67980, Note_on_c, 9, 44, 100
3, 67990, Control_c, 9, 7, 66
3, 68010, Note_on_c, 9, 44, 0
3, 68010, Note_on_c, 9, 36, 0
3, 68010, Note_on_c, 9, 42, 100
3, 68030, Control_c, 9, 7, 65
3, 68040, Note_on_c, 9, 42, 0
3, 68040, Note_on_c, 9, 40, 110
3, 68040, Note_on_c, 9, 46, 114
3, 68040, Note_on_c, 9, 51, 86
3, 68057, Note_on_c, 9, 51, 0
3, 68060, Control_c, 9, 7, 64
3, 68070, Note_on_c, 9, 46, 0
3, 68090, Control_c, 9, 7, 63
3, 68100, Note_on_c, 9, 40, 0
3, 68100, Note_on_c, 9, 36, 74
3, 68100, Note_on_c, 9, 44, 100
3, 68100, Note_on_c, 9, 55, 86
3, 68112, Note_on_c, 9, 55, 0
3, 68120, Control_c, 9, 7, 62
3, 68130, Note_on_c, 9, 44, 0
3, 68130, Note_on_c, 9, 36, 0
3, 68130, Note_on_c, 9, 42, 109
3, 68150, Control_c, 9, 7, 61
3, 68160, Note_on_c, 9, 42, 0
3, 68160, Note_on_c, 9, 36, 113
3, 68160, Note_on_c, 9, 46, 109
3, 68160, Note_on_c, 9, 57, 123
3, 68160, Note_on_c, 9, 51, 81
3, 68173, Note_on_c, 9, 57, 0
3, 68177, Note_on_c, 9, 51, 0
3, 68190, Note_on_c, 9, 46, 0
3, 68190, Control_c, 9, 7, 60
3, 68220, Note_on_c, 9, 36, 0
3, 68220, Control_c, 9, 7, 59
3, 68220, Note_on_c, 9, 44, 96
3, 68250, Note_on_c, 9, 44, 0
3, 68250, Control_c, 9, 7, 58
3, 68250, Note_on_c, 9, 42, 100
3, 68280, Note_on_c, 9, 42, 0
3, 68280, Control_c, 9, 7, 57
3, 68280, Note_on_c, 9, 40, 110
3, 68280, Note_on_c, 9, 46, 114
3, 68280, Note_on_c, 9, 51, 86
3, 68295, Note_on_c, 9, 51, 0
3, 68310, Note_on_c, 9, 46, 0
3, 68310, Control_c, 9, 7, 56
3, 68340, Control_c, 9, 7, 55
3, 68340, Note_on_c, 9, 44, 92
3, 68370, Note_on_c, 9, 44, 0
3, 68370, Note_on_c, 9, 40, 0
3, 68370, Note_on_c, 9, 42, 100
3, 68380, Control_c, 9, 7, 54
3, 68400, Note_on_c, 9, 42, 0
3, 68400, Note_on_c, 9, 36, 120
3, 68400, Note_on_c, 9, 46, 114
3, 68400, Note_on_c, 9, 51, 86
3, 68410, Control_c, 9, 7, 53
3, 68415, Note_on_c, 9, 51, 0
3, 68430, Note_on_c, 9, 46, 0
3, 68440, Control_c, 9, 7, 52
3, 68460, Note_on_c, 9, 44, 96
3, 68470, Control_c, 9, 7, 51
3, 68490, Note_on_c, 9, 44, 0
3, 68490, Note_on_c, 9, 36, 0
3, 68490, Note_on_c, 9, 42, 100
3, 68500, Control_c, 9, 7, 50
3, 68520, Note_on_c, 9, 42, 0
3, 68520, Note_on_c, 9, 51, 84
3, 68520, Note_on_c, 9, 40, 117
3, 68520, Note_on_c, 9, 46, 100
3, 68535, Note_on_c, 9, 51, 0
3, 68540, Control_c, 9, 7, 49
3, 68550, Note_on_c, 9, 46, 0
3, 68570, Control_c, 9, 7, 48
3, 68580, Note_on_c, 9, 40, 0
3, 68580, Note_on_c, 9, 36, 92
3, 68580, Note_on_c, 9, 44, 89
3, 68600, Control_c, 9, 7, 47
3, 68610, Note_on_c, 9, 44, 0
3, 68610, Note_on_c, 9, 36, 0
3, 68610, Note_on_c, 9, 42, 92
3, 68630, Control_c, 9, 7, 46
3, 68640, Note_on_c, 9, 42, 0
3, 68640, Note_on_c, 9, 36, 110
3, 68640, Note_on_c, 9, 46, 104
3, 68640, Note_on_c, 9, 51, 86
3, 68646, Note_on_c, 9, 51, 0
3, 68660, Control_c, 9, 7, 45
3, 68670, Note_on_c, 9, 46, 0
3, 68690, Control_c, 9, 7, 44
3, 68700, Note_on_c, 9, 36, 0
3, 68700, Note_on_c, 9, 44, 81
3, 68730, Note_on_c, 9, 44, 0
3, 68730, Control_c, 9, 7, 43
3, 68730, Note_on_c, 9, 42, 96
3, 68760, Note_on_c, 9, 42, 0
3, 68760, Control_c, 9, 7, 42
3, 68760, Note_on_c, 9, 40, 110
3, 68760, Note_on_c, 9, 46, 109
3, 68760, Note_on_c, 9, 51, 79
3, 68765, Note_on_c, 9, 51, 0
3, 68790, Note_on_c, 9, 46, 0
3, 68790, Control_c, 9, 7, 41
3, 68820, Note_on_c, 9, 40, 0
3, 68820, Control_c, 9, 7, 40
3, 68820, Note_on_c, 9, 44, 81
3, 68850, Note_on_c, 9, 44, 0
3, 68850, Control_c, 9, 7, 39
3, 68850, Note_on_c, 9, 42, 96
3, 68880, Note_on_c, 9, 42, 0
3, 68880, Note_on_c, 9, 36, 120
3, 68880, Note_on_c, 9, 46, 109
3, 68880, Note_on_c, 9, 51, 81
3, 68886, Note_on_c, 9, 51, 0
3, 68890, Control_c, 9, 7, 38
3, 68910, Note_on_c, 9, 46, 0
3, 68920, Control_c, 9, 7, 37
3, 68940, Note_on_c, 9, 36, 0
3, 68940, Note_on_c, 9, 44, 92
3, 68950, Control_c, 9, 7, 36
3, 68970, Note_on_c, 9, 44, 0
3, 68970, Note_on_c, 9, 42, 86
3, 68980, Control_c, 9, 7, 35
3, 69000, Note_on_c, 9, 42, 0
3, 69000, Note_on_c, 9, 40, 120
3, 69000, Note_on_c, 9, 46, 109
3, 69000, Note_on_c, 9, 51, 77
3, 69010, Control_c, 9, 7, 34
3, 69020, Note_on_c, 9, 51, 0
3, 69030, Note_on_c, 9, 46, 0
3, 69040, Control_c, 9, 7, 33
3, 69060, Note_on_c, 9, 40, 0
3, 69060, Note_on_c, 9, 36, 59
3, 69060, Note_on_c, 9, 44, 92
3, 69080, Control_c, 9, 7, 32
3, 69090, Note_on_c, 9, 44, 0
3, 69090, Note_on_c, 9, 36, 0
3, 69090, Note_on_c, 9, 42, 104
3, 69110, Control_c, 9, 7, 31
3, 69120, Note_on_c, 9, 42, 0
3, 69120, Note_on_c, 9, 57, 94
3, 69120, Note_on_c, 9, 51, 96
3, 69120, Note_on_c, 9, 36, 113
3, 69120, Note_on_c, 9, 46, 114
3, 69140, Control_c, 9, 7, 30
3, 69146, Note_on_c, 9, 51, 0
3, 69148, Note_on_c, 9, 57, 0
3, 69150, Note_on_c, 9, 46, 0
3, 69170, Control_c, 9, 7, 29
3, 69180, Note_on_c, 9, 36, 0
3, 69180, Note_on_c, 9, 44, 92
3, 69200, Control_c, 9, 7, 28
3, 69210, Note_on_c, 9, 44, 0
3, 69210, Note_on_c, 9, 42, 96
3, 69240, Note_on_c, 9, 42, 0
3, 69240, Control_c, 9, 7, 27
3, 69240, Note_on_c, 9, 40, 110
3, 69240, Note_on_c, 9, 46, 104
3, 69240, Note_on_c, 9, 51, 66
3, 69257, Note_on_c, 9, 51, 0
3, 69270, Note_on_c, 9, 46, 0
3, 69270, Control_c, 9, 7, 26
3, 69300, Control_c, 9, 7, 25
3, 69300, Note_on_c, 9, 44, 92
3, 69330, Note_on_c, 9, 44, 0
3, 69330, Note_on_c, 9, 40, 0
3, 69330, Control_c, 9, 7, 24
3, 69330, Note_on_c, 9, 42, 104
3, 69360, Note_on_c, 9, 42, 0
3, 69360, Control_c, 9, 7, 23
3, 69360, Note_on_c, 9, 36, 110
3, 69360, Note_on_c, 9, 46, 109
3, 69360, Note_on_c, 9, 51, 66
3, 69368, Note_on_c, 9, 51, 0
3, 69390, Note_on_c, 9, 46, 0
3, 69390, Control_c, 9, 7, 22
3, 69420, Note_on_c, 9, 44, 104
3, 69430, Control_c, 9, 7, 21
3, 69450, Note_on_c, 9, 44, 0
3, 69450, Note_on_c, 9, 36, 0
3, 69450, Note_on_c, 9, 42, 104
3, 69460, Control_c, 9, 7, 20
3, 69480, Note_on_c, 9, 42, 0
3, 69480, Note_on_c, 9, 40, 113
3, 69480, Note_on_c, 9, 46, 109
3, 69490, Control_c, 9, 7, 19
3, 69510, Note_on_c, 9, 46, 0
3, 69510, Note_on_c, 9, 40, 0
3, 69520, Control_c, 9, 7, 18
3, 69540, Note_on_c, 9, 36, 90
3, 69540, Note_on_c, 9, 44, 104
3, 69550, Control_c, 9, 7, 17
3, 69570, Note_on_c, 9, 44, 0
3, 69570, Note_on_c, 9, 36, 0
3, 69570, Note_on_c, 9, 42, 96
3, 69590, Control_c, 9, 7, 16
3, 69600, Note_on_c, 9, 42, 0
3, 69600, Note_on_c, 9, 36, 117
3, 69600, Note_on_c, 9, 46, 109
3, 69620, Control_c, 9, 7, 15
3, 69630, Note_on_c, 9, 46, 0
3, 69650, Control_c, 9, 7, 14
3, 69660, Note_on_c, 9, 36, 0
3, 69660, Note_on_c, 9, 44, 104
3, 69680, Control_c, 9, 7, 13
3, 69690, Note_on_c, 9, 44, 0
3, 69690, Note_on_c, 9, 42, 92
3, 69710, Control_c, 9, 7, 12
3, 69720, Note_on_c, 9, 42, 0
3, 69720, Note_on_c, 9, 40, 113
3, 69720, Note_on_c, 9, 46, 104
3, 69740, Control_c, 9, 7, 11
3, 69750, Note_on_c, 9, 46, 0
3, 69780, Note_on_c, 9, 40, 0
3, 69780, Control_c, 9, 7, 10
3, 69780, Note_on_c, 9, 44, 96
3, 69810, Note_on_c, 9, 44, 0
3, 69810, Control_c, 9, 7, 9
3, 69810, Note_on_c, 9, 42, 96
3, 69840, Note_on_c, 9, 42, 0
3, 69840, Control_c, 9, 7, 8
3, 69840, Note_on_c, 9, 36, 120
3, 69840, Note_on_c, 9, 46, 109
3, 69870, Note_on_c, 9, 46, 0
3, 69870, Control_c, 9, 7, 7
3, 69900, Control_c, 9, 7, 6
3, 69900, Note_on_c, 9, 44, 96
3, 69930, Note_on_c, 9, 44, 0
3, 69930, Note_on_c, 9, 36, 0
3, 69930, Note_on_c, 9, 42, 100
3, 69940, Control_c, 9, 7, 5
3, 69960, Note_on_c, 9, 42, 0
3, 69960, Note_on_c, 9, 40, 113
3, 69960, Note_on_c, 9, 46, 114
3, 69960, Note_on_c, 9, 38, 125
3, 69970, Control_c, 9, 7, 4
3, 69983, Note_on_c, 9, 38, 0
3, 69990, Note_on_c, 9, 46, 0
3, 70000, Control_c, 9, 7, 3
3, 70020, Note_on_c, 9, 40, 0
3, 70020, Note_on_c, 9, 36, 80
3, 70020, Note_on_c, 9, 44, 96
3, 70020, Note_on_c, 9, 36, 110
3, 70030, Control_c, 9, 7, 2
3, 70034, Note_on_c, 9, 36, 0
3, 70050, Note_on_c, 9, 36, 0
3, 70050, Note_on_c, 9, 44, 0
3, 70050, Note_on_c, 9, 42, 54
3, 70060, Control_c, 9, 7, 1
3, 70080, Note_on_c, 9, 42, 0
3, 70080, Note_on_c, 9, 52, 107
3, 70090, Control_c, 9, 7, 0
3, 70105, Note_on_c, 9, 52, 0
3, 70105, End_track
4, 0, Start_track
4, 0, MIDI_port, 0
4, 0, Title_t, "Drums"
4, 0, Control_c, 9, 0, 62
4, 0, Control_c, 9, 32, 0
4, 0, Program_c, 9, 0
4, 0, Control_c, 9, 7, 127
4, 0, Control_c, 9, 10, 64
4, 8160, Note_on_c, 9, 60, 80
4, 8190, Note_on_c, 9, 60, 80
4, 8210, Note_on_c, 9, 60, 0
4, 8240, Note_on_c, 9, 60, 0
4, 8250, Note_on_c, 9, 60, 80
4, 8280, Note_on_c, 9, 61, 80
4, 8300, Note_on_c, 9, 60, 0
4, 8330, Note_on_c, 9, 61, 0
4, 8340, Note_on_c, 9, 61, 80
4, 8340, Note_on_c, 9, 64, 80
4, 8370, Note_on_c, 9, 64, 80
4, 8390, Note_on_c, 9, 61, 0
4, 8400, Note_on_c, 9, 60, 80
4, 8430, Note_on_c, 9, 61, 80
4, 8450, Note_on_c, 9, 60, 0
4, 8467, Note_on_c, 9, 64, 0
4, 8480, Note_on_c, 9, 61, 0
4, 8497, Note_on_c, 9, 64, 0
4, 8610, Note_on_c, 9, 61, 80
4, 8640, Note_on_c, 9, 60, 80
4, 8660, Note_on_c, 9, 61, 0
4, 8670, Note_on_c, 9, 60, 80
4, 8690, Note_on_c, 9, 60, 0
4, 8720, Note_on_c, 9, 60, 0
4, 8730, Note_on_c, 9, 60, 80
4, 8760, Note_on_c, 9, 61, 80
4, 8780, Note_on_c, 9, 60, 0
4, 8810, Note_on_c, 9, 61, 0
4, 8820, Note_on_c, 9, 61, 80
4, 8820, Note_on_c, 9, 64, 80
4, 8850, Note_on_c, 9, 64, 80
4, 8870, Note_on_c, 9, 61, 0
4, 8880, Note_on_c, 9, 60, 80
4, 8910, Note_on_c, 9, 61, 80
4, 8930, Note_on_c, 9, 60, 0
4, 8947, Note_on_c, 9, 64, 0
4, 8960, Note_on_c, 9, 61, 0
4, 8977, Note_on_c, 9, 64, 0
4, 9090, Note_on_c, 9, 61, 80
4, 9120, Note_on_c, 9, 60, 80
4, 9140, Note_on_c, 9, 61, 0
4, 9150, Note_on_c, 9, 60, 80
4, 9170, Note_on_c, 9, 60, 0
4, 9200, Note_on_c, 9, 60, 0
4, 9210, Note_on_c, 9, 60, 80
4, 9240, Note_on_c, 9, 61, 80
4, 9260, Note_on_c, 9, 60, 0
4, 9290, Note_on_c, 9, 61, 0
4, 9300, Note_on_c, 9, 61, 80
4, 9300, Note_on_c, 9, 64, 80
4, 9330, Note_on_c, 9, 64, 80
4, 9350, Note_on_c, 9, 61, 0
4, 9360, Note_on_c, 9, 60, 80
4, 9390, Note_on_c, 9, 61, 80
4, 9410, Note_on_c, 9, 60, 0
4, 9427, Note_on_c, 9, 64, 0
4, 9440, Note_on_c, 9, 61, 0
4, 9457, Note_on_c, 9, 64, 0
4, 9570, Note_on_c, 9, 61, 80
4, 9600, Note_on_c, 9, 60, 80
4, 9620, Note_on_c, 9, 61, 0
4, 9630, Note_on_c, 9, 60, 80
4, 9650, Note_on_c, 9, 60, 0
4, 9680, Note_on_c, 9, 60, 0
4, 9690, Note_on_c, 9, 60, 80
4, 9720, Note_on_c, 9, 61, 80
4, 9740, Note_on_c, 9, 60, 0
4, 9770, Note_on_c, 9, 61, 0
4, 9780, Note_on_c, 9, 61, 80
4, 9780, Note_on_c, 9, 64, 80
4, 9810, Note_on_c, 9, 64, 80
4, 9830, Note_on_c, 9, 61, 0
4, 9840, Note_on_c, 9, 60, 80
4, 9870, Note_on_c, 9, 61, 80
4, 9890, Note_on_c, 9, 60, 0
4, 9907, Note_on_c, 9, 64, 0
4, 9920, Note_on_c, 9, 61, 0
4, 9937, Note_on_c, 9, 64, 0
4, 10050, Note_on_c, 9, 61, 80
4, 10080, Note_on_c, 9, 60, 80
4, 10100, Note_on_c, 9, 61, 0
4, 10110, Note_on_c, 9, 60, 80
4, 10130, Note_on_c, 9, 60, 0
4, 10160, Note_on_c, 9, 60, 0
4, 10170, Note_on_c, 9, 60, 80
4, 10200, Note_on_c, 9, 61, 80
4, 10220, Note_on_c, 9, 60, 0
4, 10250, Note_on_c, 9, 61, 0
4, 10260, Note_on_c, 9, 61, 80
4, 10260, Note_on_c, 9, 64, 80
4, 10290, Note_on_c, 9, 64, 80
4, 10310, Note_on_c, 9, 61, 0
4, 10320, Note_on_c, 9, 60, 80
4, 10350, Note_on_c, 9, 61, 80
4, 10370, Note_on_c, 9, 60, 0
4, 10387, Note_on_c, 9, 64, 0
4, 10400, Note_on_c, 9, 61, 0
4, 10417, Note_on_c, 9, 64, 0
4, 10530, Note_on_c, 9, 61, 80
4, 10560, Note_on_c, 9, 60, 80
4, 10580, Note_on_c, 9, 61, 0
4, 10590, Note_on_c, 9, 60, 80
4, 10610, Note_on_c, 9, 60, 0
4, 10640, Note_on_c, 9, 60, 0
4, 10650, Note_on_c, 9, 60, 80
4, 10680, Note_on_c, 9, 61, 80
4, 10700, Note_on_c, 9, 60, 0
4, 10730, Note_on_c, 9, 61, 0
4, 10740, Note_on_c, 9, 61, 80
4, 10740, Note_on_c, 9, 64, 80
4, 10770, Note_on_c, 9, 64, 80
4, 10790, Note_on_c, 9, 61, 0
4, 10800, Note_on_c, 9, 60, 80
4, 10830, Note_on_c, 9, 61, 80
4, 10850, Note_on_c, 9, 60, 0
4, 10867, Note_on_c, 9, 64, 0
4, 10880, Note_on_c, 9, 61, 0
4, 10897, Note_on_c, 9, 64, 0
4, 11010, Note_on_c, 9, 61, 80
4, 11040, Note_on_c, 9, 60, 80
4, 11060, Note_on_c, 9, 61, 0
4, 11070, Note_on_c, 9, 60, 80
4, 11090, Note_on_c, 9, 60, 0
4, 11120, Note_on_c, 9, 60, 0
4, 11130, Note_on_c, 9, 60, 80
4, 11160, Note_on_c, 9, 61, 80
4, 11180, Note_on_c, 9, 60, 0
4, 11210, Note_on_c, 9, 61, 0
4, 11220, Note_on_c, 9, 61, 80
4, 11220, Note_on_c, 9, 64, 80
4, 11250, Note_on_c, 9, 64, 80
4, 11270, Note_on_c, 9, 61, 0
4, 11280, Note_on_c, 9, 60, 80
4, 11310, Note_on_c, 9, 61, 80
4, 11330, Note_on_c, 9, 60, 0
4, 11347, Note_on_c, 9, 64, 0
4, 11360, Note_on_c, 9, 61, 0
4, 11377, Note_on_c, 9, 64, 0
4, 11490, Note_on_c, 9, 61, 80
4, 11520, Note_on_c, 9, 60, 80
4, 11540, Note_on_c, 9, 61, 0
4, 11550, Note_on_c, 9, 60, 80
4, 11570, Note_on_c, 9, 60, 0
4, 11600, Note_on_c, 9, 60, 0
4, 11610, Note_on_c, 9, 60, 80
4, 11640, Note_on_c, 9, 61, 80
4, 11660, Note_on_c, 9, 60, 0
4, 11690, Note_on_c, 9, 61, 0
4, 11700, Note_on_c, 9, 61, 80
4, 11700, Note_on_c, 9, 64, 80
4, 11730, Note_on_c, 9, 64, 80
4, 11750, Note_on_c, 9, 61, 0
4, 11760, Note_on_c, 9, 60, 80
4, 11790, Note_on_c, 9, 61, 80
4, 11810, Note_on_c, 9, 60, 0
4, 11827, Note_on_c, 9, 64, 0
4, 11840, Note_on_c, 9, 61, 0
4, 11857, Note_on_c, 9, 64, 0
4, 11970, Note_on_c, 9, 61, 80
4, 12000, Note_on_c, 9, 60, 80
4, 12020, Note_on_c, 9, 61, 0
4, 12030, Note_on_c, 9, 60, 80
4, 12050, Note_on_c, 9, 60, 0
4, 12080, Note_on_c, 9, 60, 0
4, 12090, Note_on_c, 9, 60, 80
4, 12120, Note_on_c, 9, 61, 80
4, 12140, Note_on_c, 9, 60, 0
4, 12170, Note_on_c, 9, 61, 0
4, 12180, Note_on_c, 9, 61, 80
4, 12180, Note_on_c, 9, 64, 80
4, 12210, Note_on_c, 9, 64, 80
4, 12230, Note_on_c, 9, 61, 0
4, 12240, Note_on_c, 9, 60, 80
4, 12270, Note_on_c, 9, 61, 80
4, 12290, Note_on_c, 9, 60, 0
4, 12307, Note_on_c, 9, 64, 0
4, 12320, Note_on_c, 9, 61, 0
4, 12337, Note_on_c, 9, 64, 0
4, 12450, Note_on_c, 9, 61, 80
4, 12480, Note_on_c, 9, 60, 80
4, 12500, Note_on_c, 9, 61, 0
4, 12510, Note_on_c, 9, 60, 80
4, 12530, Note_on_c, 9, 60, 0
4, 12560, Note_on_c, 9, 60, 0
4, 12570, Note_on_c, 9, 60, 80
4, 12600, Note_on_c, 9, 61, 80
4, 12620, Note_on_c, 9, 60, 0
4, 12650, Note_on_c, 9, 61, 0
4, 12660, Note_on_c, 9, 61, 80
4, 12660, Note_on_c, 9, 64, 80
4, 12690, Note_on_c, 9, 64, 80
4, 12710, Note_on_c, 9, 61, 0
4, 12720, Note_on_c, 9, 60, 80
4, 12750, Note_on_c, 9, 61, 80
4, 12770, Note_on_c, 9, 60, 0
4, 12787, Note_on_c, 9, 64, 0
4, 12800, Note_on_c, 9, 61, 0
4, 12817, Note_on_c, 9, 64, 0
4, 12930, Note_on_c, 9, 61, 80
4, 12960, Note_on_c, 9, 60, 80
4, 12980, Note_on_c, 9, 61, 0
4, 12990, Note_on_c, 9, 60, 80
4, 13010, Note_on_c, 9, 60, 0
4, 13040, Note_on_c, 9, 60, 0
4, 13050, Note_on_c, 9, 60, 80
4, 13080, Note_on_c, 9, 61, 80
4, 13100, Note_on_c, 9, 60, 0
4, 13130, Note_on_c, 9, 61, 0
4, 13140, Note_on_c, 9, 61, 80
4, 13140, Note_on_c, 9, 64, 80
4, 13170, Note_on_c, 9, 64, 80
4, 13190, Note_on_c, 9, 61, 0
4, 13200, Note_on_c, 9, 60, 80
4, 13230, Note_on_c, 9, 61, 80
4, 13250, Note_on_c, 9, 60, 0
4, 13267, Note_on_c, 9, 64, 0
4, 13280, Note_on_c, 9, 61, 0
4, 13297, Note_on_c, 9, 64, 0
4, 13410, Note_on_c, 9, 61, 80
4, 13440, Note_on_c, 9, 60, 80
4, 13460, Note_on_c, 9, 61, 0
4, 13470, Note_on_c, 9, 60, 80
4, 13490, Note_on_c, 9, 60, 0
4, 13520, Note_on_c, 9, 60, 0
4, 13530, Note_on_c, 9, 60, 80
4, 13560, Note_on_c, 9, 61, 80
4, 13580, Note_on_c, 9, 60, 0
4, 13610, Note_on_c, 9, 61, 0
4, 13620, Note_on_c, 9, 61, 80
4, 13620, Note_on_c, 9, 64, 80
4, 13650, Note_on_c, 9, 64, 80
4, 13670, Note_on_c, 9, 61, 0
4, 13680, Note_on_c, 9, 60, 80
4, 13710, Note_on_c, 9, 61, 80
4, 13730, Note_on_c, 9, 60, 0
4, 13747, Note_on_c, 9, 64, 0
4, 13760, Note_on_c, 9, 61, 0
4, 13777, Note_on_c, 9, 64, 0
4, 13890, Note_on_c, 9, 61, 80
4, 13920, Note_on_c, 9, 60, 80
4, 13940, Note_on_c, 9, 61, 0
4, 13950, Note_on_c, 9, 60, 80
4, 13970, Note_on_c, 9, 60, 0
4, 14000, Note_on_c, 9, 60, 0
4, 14010, Note_on_c, 9, 60, 80
4, 14040, Note_on_c, 9, 61, 80
4, 14060, Note_on_c, 9, 60, 0
4, 14090, Note_on_c, 9, 61, 0
4, 14100, Note_on_c, 9, 61, 80
4, 14100, Note_on_c, 9, 64, 80
4, 14130, Note_on_c, 9, 64, 80
4, 14150, Note_on_c, 9, 61, 0
4, 14160, Note_on_c, 9, 60, 80
4, 14190, Note_on_c, 9, 61, 80
4, 14210, Note_on_c, 9, 60, 0
4, 14227, Note_on_c, 9, 64, 0
4, 14240, Note_on_c, 9, 61, 0
4, 14257, Note_on_c, 9, 64, 0
4, 14370, Note_on_c, 9, 61, 80
4, 14400, Note_on_c, 9, 60, 80
4, 14420, Note_on_c, 9, 61, 0
4, 14430, Note_on_c, 9, 60, 80
4, 14450, Note_on_c, 9, 60, 0
4, 14480, Note_on_c, 9, 60, 0
4, 14490, Note_on_c, 9, 60, 80
4, 14520, Note_on_c, 9, 61, 80
4, 14540, Note_on_c, 9, 60, 0
4, 14570, Note_on_c, 9, 61, 0
4, 14580, Note_on_c, 9, 61, 80
4, 14580, Note_on_c, 9, 64, 80
4, 14610, Note_on_c, 9, 64, 80
4, 14630, Note_on_c, 9, 61, 0
4, 14640, Note_on_c, 9, 60, 80
4, 14670, Note_on_c, 9, 61, 80
4, 14690, Note_on_c, 9, 60, 0
4, 14707, Note_on_c, 9, 64, 0
4, 14720, Note_on_c, 9, 61, 0
4, 14737, Note_on_c, 9, 64, 0
4, 14850, Note_on_c, 9, 61, 80
4, 14880, Note_on_c, 9, 60, 80
4, 14900, Note_on_c, 9, 61, 0
4, 14910, Note_on_c, 9, 60, 80
4, 14930, Note_on_c, 9, 60, 0
4, 14960, Note_on_c, 9, 60, 0
4, 14970, Note_on_c, 9, 60, 80
4, 15000, Note_on_c, 9, 61, 80
4, 15020, Note_on_c, 9, 60, 0
4, 15050, Note_on_c, 9, 61, 0
4, 15060, Note_on_c, 9, 61, 80
4, 15060, Note_on_c, 9, 64, 80
4, 15090, Note_on_c, 9, 64, 80
4, 15110, Note_on_c, 9, 61, 0
4, 15120, Note_on_c, 9, 60, 80
4, 15150, Note_on_c, 9, 61, 80
4, 15170, Note_on_c, 9, 60, 0
4, 15187, Note_on_c, 9, 64, 0
4, 15200, Note_on_c, 9, 61, 0
4, 15217, Note_on_c, 9, 64, 0
4, 15330, Note_on_c, 9, 61, 80
4, 15360, Note_on_c, 9, 60, 80
4, 15380, Note_on_c, 9, 61, 0
4, 15390, Note_on_c, 9, 60, 80
4, 15410, Note_on_c, 9, 60, 0
4, 15440, Note_on_c, 9, 60, 0
4, 15450, Note_on_c, 9, 60, 80
4, 15480, Note_on_c, 9, 61, 80
4, 15500, Note_on_c, 9, 60, 0
4, 15530, Note_on_c, 9, 61, 0
4, 15540, Note_on_c, 9, 61, 80
4, 15540, Note_on_c, 9, 64, 80
4, 15570, Note_on_c, 9, 64, 80
4, 15590, Note_on_c, 9, 61, 0
4, 15600, Note_on_c, 9, 60, 80
4, 15630, Note_on_c, 9, 61, 80
4, 15650, Note_on_c, 9, 60, 0
4, 15667, Note_on_c, 9, 64, 0
4, 15680, Note_on_c, 9, 61, 0
4, 15697, Note_on_c, 9, 64, 0
4, 15810, Note_on_c, 9, 61, 80
4, 15860, Note_on_c, 9, 61, 0
4, 23520, Note_on_c, 9, 60, 80
4, 23550, Note_on_c, 9, 60, 80
4, 23570, Note_on_c, 9, 60, 0
4, 23600, Note_on_c, 9, 60, 0
4, 23610, Note_on_c, 9, 60, 80
4, 23640, Note_on_c, 9, 61, 80
4, 23660, Note_on_c, 9, 60, 0
4, 23690, Note_on_c, 9, 61, 0
4, 23700, Note_on_c, 9, 61, 80
4, 23700, Note_on_c, 9, 64, 80
4, 23730, Note_on_c, 9, 64, 80
4, 23750, Note_on_c, 9, 61, 0
4, 23760, Note_on_c, 9, 60, 80
4, 23790, Note_on_c, 9, 61, 80
4, 23810, Note_on_c, 9, 60, 0
4, 23827, Note_on_c, 9, 64, 0
4, 23840, Note_on_c, 9, 61, 0
4, 23857, Note_on_c, 9, 64, 0
4, 23970, Note_on_c, 9, 61, 80
4, 24000, Note_on_c, 9, 60, 80
4, 24020, Note_on_c, 9, 61, 0
4, 24030, Note_on_c, 9, 60, 80
4, 24050, Note_on_c, 9, 60, 0
4, 24080, Note_on_c, 9, 60, 0
4, 24090, Note_on_c, 9, 60, 80
4, 24120, Note_on_c, 9, 61, 80
4, 24140, Note_on_c, 9, 60, 0
4, 24170, Note_on_c, 9, 61, 0
4, 24180, Note_on_c, 9, 61, 80
4, 24180, Note_on_c, 9, 64, 80
4, 24210, Note_on_c, 9, 64, 80
4, 24230, Note_on_c, 9, 61, 0
4, 24240, Note_on_c, 9, 60, 80
4, 24270, Note_on_c, 9, 61, 80
4, 24290, Note_on_c, 9, 60, 0
4, 24307, Note_on_c, 9, 64, 0
4, 24320, Note_on_c, 9, 61, 0
4, 24337, Note_on_c, 9, 64, 0
4, 24450, Note_on_c, 9, 61, 80
4, 24480, Note_on_c, 9, 60, 80
4, 24500, Note_on_c, 9, 61, 0
4, 24510, Note_on_c, 9, 60, 80
4, 24530, Note_on_c, 9, 60, 0
4, 24560, Note_on_c, 9, 60, 0
4, 24570, Note_on_c, 9, 60, 80
4, 24600, Note_on_c, 9, 61, 80
4, 24620, Note_on_c, 9, 60, 0
4, 24650, Note_on_c, 9, 61, 0
4, 24660, Note_on_c, 9, 61, 80
4, 24660, Note_on_c, 9, 64, 80
4, 24690, Note_on_c, 9, 64, 80
4, 24710, Note_on_c, 9, 61, 0
4, 24720, Note_on_c, 9, 60, 80
4, 24750, Note_on_c, 9, 61, 80
4, 24770, Note_on_c, 9, 60, 0
4, 24787, Note_on_c, 9, 64, 0
4, 24800, Note_on_c, 9, 61, 0
4, 24817, Note_on_c, 9, 64, 0
4, 24930, Note_on_c, 9, 61, 80
4, 24960, Note_on_c, 9, 60, 80
4, 24980, Note_on_c, 9, 61, 0
4, 24990, Note_on_c, 9, 60, 80
4, 25010, Note_on_c, 9, 60, 0
4, 25040, Note_on_c, 9, 60, 0
4, 25050, Note_on_c, 9, 60, 80
4, 25080, Note_on_c, 9, 61, 80
4, 25100, Note_on_c, 9, 60, 0
4, 25130, Note_on_c, 9, 61, 0
4, 25140, Note_on_c, 9, 61, 80
4, 25140, Note_on_c, 9, 64, 80
4, 25170, Note_on_c, 9, 64, 80
4, 25190, Note_on_c, 9, 61, 0
4, 25200, Note_on_c, 9, 60, 80
4, 25230, Note_on_c, 9, 61, 80
4, 25250, Note_on_c, 9, 60, 0
4, 25267, Note_on_c, 9, 64, 0
4, 25280, Note_on_c, 9, 61, 0
4, 25297, Note_on_c, 9, 64, 0
4, 25410, Note_on_c, 9, 61, 80
4, 25440, Note_on_c, 9, 60, 80
4, 25460, Note_on_c, 9, 61, 0
4, 25470, Note_on_c, 9, 60, 80
4, 25490, Note_on_c, 9, 60, 0
4, 25520, Note_on_c, 9, 60, 0
4, 25530, Note_on_c, 9, 60, 80
4, 25560, Note_on_c, 9, 61, 80
4, 25580, Note_on_c, 9, 60, 0
4, 25610, Note_on_c, 9, 61, 0
4, 25620, Note_on_c, 9, 61, 80
4, 25620, Note_on_c, 9, 64, 80
4, 25650, Note_on_c, 9, 64, 80
4, 25670, Note_on_c, 9, 61, 0
4, 25680, Note_on_c, 9, 60, 80
4, 25710, Note_on_c, 9, 61, 80
4, 25730, Note_on_c, 9, 60, 0
4, 25747, Note_on_c, 9, 64, 0
4, 25760, Note_on_c, 9, 61, 0
4, 25777, Note_on_c, 9, 64, 0
4, 25890, Note_on_c, 9, 61, 80
4, 25920, Note_on_c, 9, 60, 80
4, 25940, Note_on_c, 9, 61, 0
4, 25950, Note_on_c, 9, 60, 80
4, 25970, Note_on_c, 9, 60, 0
4, 26000, Note_on_c, 9, 60, 0
4, 26010, Note_on_c, 9, 60, 80
4, 26040, Note_on_c, 9, 61, 80
4, 26060, Note_on_c, 9, 60, 0
4, 26090, Note_on_c, 9, 61, 0
4, 26100, Note_on_c, 9, 61, 80
4, 26100, Note_on_c, 9, 64, 80
4, 26130, Note_on_c, 9, 64, 80
4, 26150, Note_on_c, 9, 61, 0
4, 26160, Note_on_c, 9, 60, 80
4, 26190, Note_on_c, 9, 61, 80
4, 26210, Note_on_c, 9, 60, 0
4, 26227, Note_on_c, 9, 64, 0
4, 26240, Note_on_c, 9, 61, 0
4, 26257, Note_on_c, 9, 64, 0
4, 26370, Note_on_c, 9, 61, 80
4, 26400, Note_on_c, 9, 60, 80
4, 26420, Note_on_c, 9, 61, 0
4, 26430, Note_on_c, 9, 60, 80
4, 26450, Note_on_c, 9, 60, 0
4, 26480, Note_on_c, 9, 60, 0
4, 26490, Note_on_c, 9, 60, 80
4, 26516, Control_c, 9, 7, 126
4, 26520, Note_on_c, 9, 61, 80
4, 26540, Note_on_c, 9, 60, 0
4, 26540, Control_c, 9, 7, 124
4, 26545, Control_c, 9, 7, 123
4, 26570, Note_on_c, 9, 61, 0
4, 26580, Note_on_c, 9, 61, 80
4, 26580, Note_on_c, 9, 64, 80
4, 26610, Control_c, 9, 7, 122
4, 26610, Note_on_c, 9, 64, 80
4, 26621, Control_c, 9, 7, 121
4, 26630, Note_on_c, 9, 61, 0
4, 26640, Note_on_c, 9, 60, 80
4, 26670, Note_on_c, 9, 61, 80
4, 26690, Note_on_c, 9, 60, 0
4, 26707, Note_on_c, 9, 64, 0
4, 26720, Note_on_c, 9, 61, 0
4, 26737, Note_on_c, 9, 64, 0
4, 26760, Control_c, 9, 7, 120
4, 26773, Control_c, 9, 7, 119
4, 26850, Note_on_c, 9, 61, 80
4, 26880, Note_on_c, 9, 60, 80
4, 26900, Note_on_c, 9, 61, 0
4, 26910, Note_on_c, 9, 60, 80
4, 26930, Note_on_c, 9, 60, 0
4, 26960, Note_on_c, 9, 60, 0
4, 26970, Note_on_c, 9, 60, 80
4, 26986, Control_c, 9, 7, 120
4, 26991, Control_c, 9, 7, 121
4, 27000, Note_on_c, 9, 61, 80
4, 27020, Note_on_c, 9, 60, 0
4, 27050, Note_on_c, 9, 61, 0
4, 27060, Note_on_c, 9, 61, 80
4, 27060, Note_on_c, 9, 64, 80
4, 27090, Note_on_c, 9, 64, 80
4, 27110, Note_on_c, 9, 61, 0
4, 27120, Note_on_c, 9, 60, 80
4, 27140, Control_c, 9, 7, 120
4, 27150, Note_on_c, 9, 61, 80
4, 27170, Note_on_c, 9, 60, 0
4, 27187, Note_on_c, 9, 64, 0
4, 27200, Note_on_c, 9, 61, 0
4, 27217, Note_on_c, 9, 64, 0
4, 27330, Note_on_c, 9, 61, 80
4, 27360, Note_on_c, 9, 60, 80
4, 27380, Note_on_c, 9, 61, 0
4, 27390, Note_on_c, 9, 60, 80
4, 27410, Note_on_c, 9, 60, 0
4, 27440, Note_on_c, 9, 60, 0
4, 27450, Note_on_c, 9, 60, 80
4, 27480, Note_on_c, 9, 61, 80
4, 27500, Note_on_c, 9, 60, 0
4, 27530, Note_on_c, 9, 61, 0
4, 27540, Note_on_c, 9, 61, 80
4, 27540, Note_on_c, 9, 64, 80
4, 27570, Note_on_c, 9, 64, 80
4, 27590, Note_on_c, 9, 61, 0
4, 27600, Note_on_c, 9, 60, 80
4, 27630, Note_on_c, 9, 61, 80
4, 27650, Note_on_c, 9, 60, 0
4, 27667, Note_on_c, 9, 64, 0
4, 27680, Note_on_c, 9, 61, 0
4, 27697, Note_on_c, 9, 64, 0
4, 27761, Control_c, 9, 10, 60
4, 27805, Control_c, 9, 10, 59
4, 27810, Control_c, 9, 10, 63
4, 27810, Note_on_c, 9, 61, 80
4, 27820, Control_c, 9, 10, 67
4, 27829, Control_c, 9, 10, 70
4, 27840, Control_c, 9, 10, 72
4, 27840, Note_on_c, 9, 60, 80
4, 27845, Control_c, 9, 10, 73
4, 27855, Control_c, 9, 10, 75
4, 27860, Note_on_c, 9, 61, 0
4, 27870, Note_on_c, 9, 60, 80
4, 27879, Control_c, 9, 10, 80
4, 27890, Note_on_c, 9, 60, 0
4, 27920, Note_on_c, 9, 60, 0
4, 27925, Control_c, 9, 10, 78
4, 27930, Note_on_c, 9, 60, 80
4, 27940, Control_c, 9, 10, 75
4, 27957, Control_c, 9, 10, 74
4, 27960, Note_on_c, 9, 61, 80
4, 27980, Note_on_c, 9, 60, 0
4, 27998, Control_c, 9, 10, 70
4, 28010, Note_on_c, 9, 61, 0
4, 28020, Note_on_c, 9, 61, 80
4, 28020, Note_on_c, 9, 64, 80
4, 28050, Note_on_c, 9, 64, 80
4, 28070, Note_on_c, 9, 61, 0
4, 28080, Note_on_c, 9, 60, 80
4, 28102, Control_c, 9, 10, 66
4, 28107, Control_c, 9, 10, 63
4, 28110, Note_on_c, 9, 61, 80
4, 28130, Note_on_c, 9, 60, 0
4, 28147, Note_on_c, 9, 64, 0
4, 28160, Note_on_c, 9, 61, 0
4, 28177, Note_on_c, 9, 64, 0
4, 28290, Note_on_c, 9, 61, 80
4, 28320, Note_on_c, 9, 60, 80
4, 28340, Note_on_c, 9, 61, 0
4, 28350, Note_on_c, 9, 60, 80
4, 28370, Note_on_c, 9, 60, 0
4, 28400, Note_on_c, 9, 60, 0
4, 28410, Note_on_c, 9, 60, 80
4, 28440, Note_on_c, 9, 61, 80
4, 28460, Note_on_c, 9, 60, 0
4, 28490, Note_on_c, 9, 61, 0
4, 28500, Note_on_c, 9, 61, 80
4, 28500, Note_on_c, 9, 64, 80
4, 28530, Note_on_c, 9, 64, 80
4, 28550, Note_on_c, 9, 61, 0
4, 28560, Note_on_c, 9, 60, 80
4, 28590, Note_on_c, 9, 61, 80
4, 28610, Note_on_c, 9, 60, 0
4, 28627, Note_on_c, 9, 64, 0
4, 28640, Note_on_c, 9, 61, 0
4, 28657, Note_on_c, 9, 64, 0
4, 28770, Note_on_c, 9, 61, 80
4, 28800, Note_on_c, 9, 60, 80
4, 28820, Note_on_c, 9, 61, 0
4, 28830, Note_on_c, 9, 60, 80
4, 28850, Note_on_c, 9, 60, 0
4, 28880, Note_on_c, 9, 60, 0
4, 28890, Note_on_c, 9, 60, 80
4, 28920, Note_on_c, 9, 61, 80
4, 28940, Note_on_c, 9, 60, 0
4, 28970, Note_on_c, 9, 61, 0
4, 28980, Note_on_c, 9, 61, 80
4, 28980, Note_on_c, 9, 64, 80
4, 29010, Note_on_c, 9, 64, 80
4, 29030, Note_on_c, 9, 61, 0
4, 29040, Note_on_c, 9, 60, 80
4, 29070, Note_on_c, 9, 61, 80
4, 29090, Note_on_c, 9, 60, 0
4, 29107, Note_on_c, 9, 64, 0
4, 29120, Note_on_c, 9, 61, 0
4, 29137, Note_on_c, 9, 64, 0
4, 29250, Note_on_c, 9, 61, 80
4, 29280, Note_on_c, 9, 60, 80
4, 29300, Note_on_c, 9, 61, 0
4, 29310, Note_on_c, 9, 60, 80
4, 29330, Note_on_c, 9, 60, 0
4, 29360, Note_on_c, 9, 60, 0
4, 29370, Note_on_c, 9, 60, 80
4, 29400, Note_on_c, 9, 61, 80
4, 29420, Note_on_c, 9, 60, 0
4, 29450, Note_on_c, 9, 61, 0
4, 29460, Note_on_c, 9, 61, 80
4, 29460, Note_on_c, 9, 64, 80
4, 29490, Note_on_c, 9, 64, 80
4, 29510, Note_on_c, 9, 61, 0
4, 29520, Note_on_c, 9, 60, 80
4, 29550, Note_on_c, 9, 61, 80
4, 29570, Note_on_c, 9, 60, 0
4, 29587, Note_on_c, 9, 64, 0
4, 29600, Note_on_c, 9, 61, 0
4, 29617, Note_on_c, 9, 64, 0
4, 29725, Control_c, 9, 93, 63
4, 29730, Control_c, 9, 93, 59
4, 29730, Note_on_c, 9, 61, 80
4, 29754, Control_c, 9, 93, 54
4, 29760, Control_c, 9, 93, 51
4, 29760, Note_on_c, 9, 60, 80
4, 29767, Control_c, 9, 93, 46
4, 29767, Control_c, 9, 93, 48
4, 29772, Control_c, 9, 93, 38
4, 29780, Note_on_c, 9, 61, 0
4, 29790, Note_on_c, 9, 60, 80
4, 29799, Control_c, 9, 93, 33
4, 29810, Note_on_c, 9, 60, 0
4, 29810, Control_c, 9, 93, 21
4, 29815, Control_c, 9, 93, 10
4, 29825, Control_c, 9, 93, 6
4, 29840, Note_on_c, 9, 60, 0
4, 29840, Control_c, 9, 93, 8
4, 29850, Note_on_c, 9, 60, 80
4, 29878, Control_c, 9, 93, 12
4, 29880, Control_c, 9, 93, 16
4, 29880, Note_on_c, 9, 61, 80
4, 29897, Control_c, 9, 93, 21
4, 29900, Note_on_c, 9, 60, 0
4, 29905, Control_c, 9, 93, 25
4, 29913, Control_c, 9, 93, 29
4, 29930, Note_on_c, 9, 61, 0
4, 29940, Note_on_c, 9, 61, 80
4, 29940, Note_on_c, 9, 64, 80
4, 29970, Note_on_c, 9, 64, 80
4, 29980, Control_c, 9, 93, 33
4, 29990, Note_on_c, 9, 61, 0
4, 29990, Control_c, 9, 93, 37
4, 30000, Note_on_c, 9, 60, 80
4, 30010, Control_c, 9, 93, 39
4, 30030, Note_on_c, 9, 61, 80
4, 30050, Note_on_c, 9, 60, 0
4, 30067, Note_on_c, 9, 64, 0
4, 30080, Note_on_c, 9, 61, 0
4, 30097, Note_on_c, 9, 64, 0
4, 30107, Control_c, 9, 93, 42
4, 30135, Control_c, 9, 93, 45
4, 30140, Control_c, 9, 93, 47
4, 30210, Note_on_c, 9, 61, 80
4, 30240, Note_on_c, 9, 60, 80
4, 30260, Note_on_c, 9, 61, 0
4, 30270, Control_c, 9, 93, 45
4, 30270, Note_on_c, 9, 60, 80
4, 30290, Note_on_c, 9, 60, 0
4, 30313, Control_c, 9, 93, 42
4, 30320, Note_on_c, 9, 60, 0
4, 30330, Note_on_c, 9, 60, 80
4, 30335, Control_c, 9, 93, 39
4, 30342, Control_c, 9, 93, 35
4, 30360, Note_on_c, 9, 61, 80
4, 30380, Note_on_c, 9, 60, 0
4, 30410, Note_on_c, 9, 61, 0
4, 30420, Note_on_c, 9, 61, 80
4, 30420, Note_on_c, 9, 64, 80
4, 30450, Note_on_c, 9, 64, 80
4, 30470, Note_on_c, 9, 61, 0
4, 30480, Note_on_c, 9, 60, 80
4, 30495, Control_c, 9, 93, 39
4, 30510, Note_on_c, 9, 61, 80
4, 30530, Note_on_c, 9, 60, 0
4, 30547, Note_on_c, 9, 64, 0
4, 30560, Note_on_c, 9, 61, 0
4, 30577, Note_on_c, 9, 64, 0
4, 30577, Control_c, 9, 93, 42
4, 30590, Control_c, 9, 93, 45
4, 30610, Control_c, 9, 93, 48
4, 30615, Control_c, 9, 93, 53
4, 30690, Note_on_c, 9, 61, 80
4, 30695, Control_c, 9, 93, 58
4, 30704, Control_c, 9, 93, 63
4, 30709, Control_c, 9, 93, 68
4, 30720, Control_c, 9, 93, 73
4, 30720, Note_on_c, 9, 60, 80
4, 30740, Note_on_c, 9, 61, 0
4, 30750, Note_on_c, 9, 60, 80
4, 30770, Note_on_c, 9, 60, 0
4, 30800, Note_on_c, 9, 60, 0
4, 30810, Note_on_c, 9, 60, 80
4, 30836, Control_c, 9, 93, 68
4, 30840, Control_c, 9, 93, 63
4, 30840, Note_on_c, 9, 61, 80
4, 30860, Note_on_c, 9, 60, 0
4, 30860, Control_c, 9, 93, 58
4, 30890, Note_on_c, 9, 61, 0
4, 30900, Control_c, 9, 93, 53
4, 30900, Note_on_c, 9, 61, 80
4, 30900, Note_on_c, 9, 64, 80
4, 30915, Control_c, 9, 93, 48
4, 30930, Note_on_c, 9, 64, 80
4, 30935, Control_c, 9, 93, 45
4, 30950, Note_on_c, 9, 61, 0
4, 30960, Note_on_c, 9, 60, 80
4, 30975, Control_c, 9, 93, 42
4, 30985, Control_c, 9, 93, 39
4, 30990, Note_on_c, 9, 61, 80
4, 31010, Note_on_c, 9, 60, 0
4, 31010, Control_c, 9, 93, 35
4, 31020, Control_c, 9, 93, 33
4, 31027, Note_on_c, 9, 64, 0
4, 31040, Note_on_c, 9, 61, 0
4, 31057, Note_on_c, 9, 64, 0
4, 31085, Control_c, 9, 93, 29
4, 31164, Control_c, 9, 93, 33
4, 31170, Note_on_c, 9, 61, 80
4, 31190, Control_c, 9, 93, 37
4, 31220, Note_on_c, 9, 61, 0
4, 31335, Control_c, 9, 93, 39
4, 31335, End_track
5, 0, Start_track
5, 0, MIDI_port, 0
5, 0, Title_t, "Synth Bass 2"
5, 0, Control_c, 11, 0, 56
5, 0, Control_c, 11, 32, 0
5, 0, Program_c, 11, 39
5, 0, Control_c, 11, 7, 90
5, 0, Control_c, 11, 10, 64
5, 480, Note_on_c, 11, 35, 127
5, 513, Note_on_c, 11, 35, 0
5, 540, Note_on_c, 11, 35, 110
5, 556, Note_on_c, 11, 35, 0
5, 570, Note_on_c, 11, 35, 110
5, 584, Note_on_c, 11, 35, 0
5, 600, Note_on_c, 11, 35, 127
5, 630, Note_on_c, 11, 35, 0
5, 660, Note_on_c, 11, 35, 110
5, 677, Note_on_c, 11, 35, 0
5, 690, Note_on_c, 11, 35, 110
5, 705, Note_on_c, 11, 35, 0
5, 720, Note_on_c, 11, 35, 127
5, 754, Note_on_c, 11, 35, 0
5, 780, Note_on_c, 11, 35, 110
5, 795, Note_on_c, 11, 35, 0
5, 810, Note_on_c, 11, 35, 110
5, 824, Note_on_c, 11, 35, 0
5, 840, Note_on_c, 11, 35, 127
5, 870, Note_on_c, 11, 35, 0
5, 900, Note_on_c, 11, 35, 110
5, 917, Note_on_c, 11, 35, 0
5, 930, Note_on_c, 11, 35, 110
5, 951, Note_on_c, 11, 35, 0
5, 960, Note_on_c, 11, 33, 127
5, 993, Note_on_c, 11, 33, 0
5, 1020, Note_on_c, 11, 33, 110
5, 1035, Note_on_c, 11, 33, 0
5, 1050, Note_on_c, 11, 33, 110
5, 1064, Note_on_c, 11, 33, 0
5, 1080, Note_on_c, 11, 33, 127
5, 1112, Note_on_c, 11, 33, 0
5, 1140, Note_on_c, 11, 33, 110
5, 1154, Note_on_c, 11, 33, 0
5, 1170, Note_on_c, 11, 33, 110
5, 1181, Note_on_c, 11, 33, 0
5, 1200, Note_on_c, 11, 33, 127
5, 1236, Note_on_c, 11, 33, 0
5, 1260, Note_on_c, 11, 33, 110
5, 1272, Note_on_c, 11, 33, 0
5, 1290, Note_on_c, 11, 33, 110
5, 1305, Note_on_c, 11, 33, 0
5, 1320, Note_on_c, 11, 33, 127
5, 1350, Note_on_c, 11, 33, 0
5, 1380, Note_on_c, 11, 33, 110
5, 1395, Note_on_c, 11, 33, 0
5, 1410, Note_on_c, 11, 33, 110
5, 1427, Note_on_c, 11, 33, 0
5, 1440, Note_on_c, 11, 32, 127
5, 1462, Note_on_c, 11, 32, 0
5, 1500, Note_on_c, 11, 32, 110
5, 1517, Note_on_c, 11, 32, 0
5, 1530, Note_on_c, 11, 32, 110
5, 1546, Note_on_c, 11, 32, 0
5, 1560, Note_on_c, 11, 32, 127
5, 1587, Note_on_c, 11, 32, 0
5, 1620, Note_on_c, 11, 32, 110
5, 1634, Note_on_c, 11, 32, 0
5, 1650, Note_on_c, 11, 32, 110
5, 1665, Note_on_c, 11, 32, 0
5, 1680, Note_on_c, 11, 32, 127
5, 1699, Note_on_c, 11, 32, 0
5, 1740, Note_on_c, 11, 32, 110
5, 1755, Note_on_c, 11, 32, 0
5, 1770, Note_on_c, 11, 32, 110
5, 1784, Note_on_c, 11, 32, 0
5, 1800, Note_on_c, 11, 32, 127
5, 1821, Note_on_c, 11, 32, 0
5, 1860, Note_on_c, 11, 32, 110
5, 1874, Note_on_c, 11, 32, 0
5, 1890, Note_on_c, 11, 32, 110
5, 1912, Note_on_c, 11, 32, 0
5, 1920, Note_on_c, 11, 37, 127
5, 1946, Note_on_c, 11, 37, 0
5, 1980, Note_on_c, 11, 37, 110
5, 1994, Note_on_c, 11, 37, 0
5, 2010, Note_on_c, 11, 37, 110
5, 2024, Note_on_c, 11, 37, 0
5, 2040, Note_on_c, 11, 37, 127
5, 2064, Note_on_c, 11, 37, 0
5, 2100, Note_on_c, 11, 37, 110
5, 2114, Note_on_c, 11, 37, 0
5, 2130, Note_on_c, 11, 37, 110
5, 2144, Note_on_c, 11, 37, 0
5, 2160, Note_on_c, 11, 37, 127
5, 2188, Note_on_c, 11, 37, 0
5, 2220, Note_on_c, 11, 37, 110
5, 2236, Note_on_c, 11, 37, 0
5, 2250, Note_on_c, 11, 37, 110
5, 2266, Note_on_c, 11, 37, 0
5, 2280, Note_on_c, 11, 37, 127
5, 2308, Note_on_c, 11, 37, 0
5, 2340, Note_on_c, 11, 37, 110
5, 2362, Note_on_c, 11, 37, 0
5, 2370, Note_on_c, 11, 29, 110
5, 2396, Note_on_c, 11, 29, 0
5, 2400, Note_on_c, 11, 30, 127
5, 2428, Note_on_c, 11, 30, 0
5, 2460, Note_on_c, 11, 30, 110
5, 2474, Note_on_c, 11, 30, 0
5, 2490, Note_on_c, 11, 30, 110
5, 2503, Note_on_c, 11, 30, 0
5, 2520, Note_on_c, 11, 30, 127
5, 2548, Note_on_c, 11, 30, 0
5, 2580, Note_on_c, 11, 30, 110
5, 2594, Note_on_c, 11, 30, 0
5, 2610, Note_on_c, 11, 30, 110
5, 2623, Note_on_c, 11, 30, 0
5, 2640, Note_on_c, 11, 30, 127
5, 2664, Note_on_c, 11, 30, 0
5, 2700, Note_on_c, 11, 30, 110
5, 2715, Note_on_c, 11, 30, 0
5, 2730, Note_on_c, 11, 30, 110
5, 2744, Note_on_c, 11, 30, 0
5, 2760, Note_on_c, 11, 30, 127
5, 2785, Note_on_c, 11, 30, 0
5, 2820, Note_on_c, 11, 30, 110
5, 2836, Note_on_c, 11, 30, 0
5, 2850, Note_on_c, 11, 30, 110
5, 2872, Note_on_c, 11, 30, 0
5, 2880, Note_on_c, 11, 32, 127
5, 2905, Note_on_c, 11, 32, 0
5, 2940, Note_on_c, 11, 32, 110
5, 2953, Note_on_c, 11, 32, 0
5, 2970, Note_on_c, 11, 32, 110
5, 2985, Note_on_c, 11, 32, 0
5, 3000, Note_on_c, 11, 32, 127
5, 3028, Note_on_c, 11, 32, 0
5, 3060, Note_on_c, 11, 32, 110
5, 3073, Note_on_c, 11, 32, 0
5, 3090, Note_on_c, 11, 32, 110
5, 3104, Note_on_c, 11, 32, 0
5, 3120, Note_on_c, 11, 32, 127
5, 3149, Note_on_c, 11, 32, 0
5, 3180, Note_on_c, 11, 32, 110
5, 3194, Note_on_c, 11, 32, 0
5, 3210, Note_on_c, 11, 32, 110
5, 3223, Note_on_c, 11, 32, 0
5, 3240, Note_on_c, 11, 32, 127
5, 3272, Note_on_c, 11, 32, 0
5, 3300, Note_on_c, 11, 32, 110
5, 3314, Note_on_c, 11, 32, 0
5, 3330, Note_on_c, 11, 32, 110
5, 3357, Note_on_c, 11, 32, 0
5, 3360, Note_on_c, 11, 37, 127
5, 3390, Note_on_c, 11, 37, 0
5, 3420, Note_on_c, 11, 37, 110
5, 3435, Note_on_c, 11, 37, 0
5, 3450, Note_on_c, 11, 37, 110
5, 3465, Note_on_c, 11, 37, 0
5, 3480, Note_on_c, 11, 37, 127
5, 3506, Note_on_c, 11, 37, 0
5, 3540, Note_on_c, 11, 37, 110
5, 3554, Note_on_c, 11, 37, 0
5, 3570, Note_on_c, 11, 37, 110
5, 3584, Note_on_c, 11, 37, 0
5, 3600, Note_on_c, 11, 37, 127
5, 3630, Note_on_c, 11, 37, 0
5, 3660, Note_on_c, 11, 37, 110
5, 3676, Note_on_c, 11, 37, 0
5, 3690, Note_on_c, 11, 37, 110
5, 3706, Note_on_c, 11, 37, 0
5, 3720, Note_on_c, 11, 37, 127
5, 3748, Note_on_c, 11, 37, 0
5, 3780, Note_on_c, 11, 37, 110
5, 3809, Note_on_c, 11, 37, 0
5, 3810, Note_on_c, 11, 35, 110
5, 3836, Note_on_c, 11, 35, 0
5, 3840, Note_on_c, 11, 37, 127
5, 3871, Note_on_c, 11, 37, 0
5, 3900, Note_on_c, 11, 37, 110
5, 3915, Note_on_c, 11, 37, 0
5, 3930, Note_on_c, 11, 37, 110
5, 3944, Note_on_c, 11, 37, 0
5, 3960, Note_on_c, 11, 37, 127
5, 3986, Note_on_c, 11, 37, 0
5, 4020, Note_on_c, 11, 37, 110
5, 4035, Note_on_c, 11, 37, 0
5, 4050, Note_on_c, 11, 37, 110
5, 4065, Note_on_c, 11, 37, 0
5, 4080, Note_on_c, 11, 37, 127
5, 4103, Note_on_c, 11, 37, 0
5, 4140, Note_on_c, 11, 37, 110
5, 4153, Note_on_c, 11, 37, 0
5, 4170, Note_on_c, 11, 37, 110
5, 4184, Note_on_c, 11, 37, 0
5, 4200, Note_on_c, 11, 37, 127
5, 4228, Note_on_c, 11, 37, 0
5, 4260, Note_on_c, 11, 37, 110
5, 4274, Note_on_c, 11, 37, 0
5, 4290, Note_on_c, 11, 37, 110
5, 4310, Note_on_c, 11, 37, 0
5, 4320, Note_on_c, 11, 35, 127
5, 4360, Note_on_c, 11, 35, 0
5, 4380, Note_on_c, 11, 35, 110
5, 4394, Note_on_c, 11, 35, 0
5, 4410, Note_on_c, 11, 35, 110
5, 4424, Note_on_c, 11, 35, 0
5, 4440, Note_on_c, 11, 35, 127
5, 4461, Note_on_c, 11, 35, 0
5, 4500, Note_on_c, 11, 35, 110
5, 4514, Note_on_c, 11, 35, 0
5, 4530, Note_on_c, 11, 35, 110
5, 4546, Note_on_c, 11, 35, 0
5, 4560, Note_on_c, 11, 35, 127
5, 4586, Note_on_c, 11, 35, 0
5, 4620, Note_on_c, 11, 35, 110
5, 4634, Note_on_c, 11, 35, 0
5, 4650, Note_on_c, 11, 35, 110
5, 4664, Note_on_c, 11, 35, 0
5, 4680, Note_on_c, 11, 35, 127
5, 4702, Note_on_c, 11, 35, 0
5, 4740, Note_on_c, 11, 35, 110
5, 4754, Note_on_c, 11, 35, 0
5, 4770, Note_on_c, 11, 35, 110
5, 4796, Note_on_c, 11, 35, 0
5, 4800, Note_on_c, 11, 33, 127
5, 4831, Note_on_c, 11, 33, 0
5, 4860, Note_on_c, 11, 33, 110
5, 4872, Note_on_c, 11, 33, 0
5, 4890, Note_on_c, 11, 33, 110
5, 4905, Note_on_c, 11, 33, 0
5, 4920, Note_on_c, 11, 33, 127
5, 4943, Note_on_c, 11, 33, 0
5, 4980, Note_on_c, 11, 33, 110
5, 4993, Note_on_c, 11, 33, 0
5, 5010, Note_on_c, 11, 33, 110
5, 5028, Note_on_c, 11, 33, 0
5, 5040, Note_on_c, 11, 33, 127
5, 5067, Note_on_c, 11, 33, 0
5, 5100, Note_on_c, 11, 33, 110
5, 5113, Note_on_c, 11, 33, 0
5, 5130, Note_on_c, 11, 33, 110
5, 5143, Note_on_c, 11, 33, 0
5, 5160, Note_on_c, 11, 33, 127
5, 5191, Note_on_c, 11, 33, 0
5, 5220, Note_on_c, 11, 33, 110
5, 5232, Note_on_c, 11, 33, 0
5, 5250, Note_on_c, 11, 33, 110
5, 5269, Note_on_c, 11, 33, 0
5, 5280, Note_on_c, 11, 32, 127
5, 5309, Note_on_c, 11, 32, 0
5, 5340, Note_on_c, 11, 32, 110
5, 5355, Note_on_c, 11, 32, 0
5, 5370, Note_on_c, 11, 32, 110
5, 5383, Note_on_c, 11, 32, 0
5, 5400, Note_on_c, 11, 32, 127
5, 5427, Note_on_c, 11, 32, 0
5, 5460, Note_on_c, 11, 32, 110
5, 5475, Note_on_c, 11, 32, 0
5, 5490, Note_on_c, 11, 32, 110
5, 5503, Note_on_c, 11, 32, 0
5, 5520, Note_on_c, 11, 32, 127
5, 5547, Note_on_c, 11, 32, 0
5, 5580, Note_on_c, 11, 32, 110
5, 5593, Note_on_c, 11, 32, 0
5, 5610, Note_on_c, 11, 32, 110
5, 5624, Note_on_c, 11, 32, 0
5, 5640, Note_on_c, 11, 32, 127
5, 5668, Note_on_c, 11, 32, 0
5, 5700, Note_on_c, 11, 32, 110
5, 5724, Note_on_c, 11, 32, 0
5, 5730, Note_on_c, 11, 35, 110
5, 5760, Note_on_c, 11, 37, 127
5, 5763, Note_on_c, 11, 35, 0
5, 5796, Note_on_c, 11, 37, 0
5, 5820, Note_on_c, 11, 37, 110
5, 5833, Note_on_c, 11, 37, 0
5, 5850, Note_on_c, 11, 37, 110
5, 5864, Note_on_c, 11, 37, 0
5, 5880, Note_on_c, 11, 37, 127
5, 5910, Note_on_c, 11, 37, 0
5, 5940, Note_on_c, 11, 37, 110
5, 5954, Note_on_c, 11, 37, 0
5, 5970, Note_on_c, 11, 37, 110
5, 5983, Note_on_c, 11, 37, 0
5, 6000, Note_on_c, 11, 37, 127
5, 6029, Note_on_c, 11, 37, 0
5, 6060, Note_on_c, 11, 37, 110
5, 6075, Note_on_c, 11, 37, 0
5, 6090, Note_on_c, 11, 37, 110
5, 6114, Note_on_c, 11, 37, 0
5, 6120, Note_on_c, 11, 29, 127
5, 6148, Note_on_c, 11, 29, 0
5, 6180, Note_on_c, 11, 29, 110
5, 6193, Note_on_c, 11, 29, 0
5, 6210, Note_on_c, 11, 29, 110
5, 6235, Note_on_c, 11, 29, 0
5, 6240, Note_on_c, 11, 30, 127
5, 6272, Note_on_c, 11, 30, 0
5, 6300, Note_on_c, 11, 30, 110
5, 6315, Note_on_c, 11, 30, 0
5, 6330, Note_on_c, 11, 30, 110
5, 6344, Note_on_c, 11, 30, 0
5, 6360, Note_on_c, 11, 30, 127
5, 6386, Note_on_c, 11, 30, 0
5, 6420, Note_on_c, 11, 30, 110
5, 6434, Note_on_c, 11, 30, 0
5, 6450, Note_on_c, 11, 30, 110
5, 6464, Note_on_c, 11, 30, 0
5, 6480, Note_on_c, 11, 30, 127
5, 6506, Note_on_c, 11, 30, 0
5, 6540, Note_on_c, 11, 30, 110
5, 6552, Note_on_c, 11, 30, 0
5, 6570, Note_on_c, 11, 30, 110
5, 6583, Note_on_c, 11, 30, 0
5, 6600, Note_on_c, 11, 30, 127
5, 6624, Note_on_c, 11, 30, 0
5, 6660, Note_on_c, 11, 30, 110
5, 6676, Note_on_c, 11, 30, 0
5, 6690, Note_on_c, 11, 30, 110
5, 6720, Note_on_c, 11, 32, 127
5, 6725, Note_on_c, 11, 30, 0
5, 6750, Note_on_c, 11, 32, 0
5, 6780, Note_on_c, 11, 32, 110
5, 6794, Note_on_c, 11, 32, 0
5, 6810, Note_on_c, 11, 32, 110
5, 6823, Note_on_c, 11, 32, 0
5, 6840, Note_on_c, 11, 32, 127
5, 6861, Note_on_c, 11, 32, 0
5, 6900, Note_on_c, 11, 32, 110
5, 6915, Note_on_c, 11, 32, 0
5, 6930, Note_on_c, 11, 32, 110
5, 6945, Note_on_c, 11, 32, 0
5, 6960, Note_on_c, 11, 32, 127
5, 6984, Note_on_c, 11, 32, 0
5, 7020, Note_on_c, 11, 32, 110
5, 7035, Note_on_c, 11, 32, 0
5, 7050, Note_on_c, 11, 32, 110
5, 7066, Note_on_c, 11, 32, 0
5, 7080, Note_on_c, 11, 32, 127
5, 7104, Note_on_c, 11, 32, 0
5, 7140, Note_on_c, 11, 32, 110
5, 7153, Note_on_c, 11, 32, 0
5, 7170, Note_on_c, 11, 32, 110
5, 7195, Note_on_c, 11, 32, 0
5, 7200, Note_on_c, 11, 37, 127
5, 7228, Note_on_c, 11, 37, 0
5, 7260, Note_on_c, 11, 37, 110
5, 7274, Note_on_c, 11, 37, 0
5, 7290, Note_on_c, 11, 37, 110
5, 7306, Note_on_c, 11, 37, 0
5, 7320, Note_on_c, 11, 37, 127
5, 7343, Note_on_c, 11, 37, 0
5, 7380, Note_on_c, 11, 37, 110
5, 7395, Note_on_c, 11, 37, 0
5, 7410, Note_on_c, 11, 37, 110
5, 7427, Note_on_c, 11, 37, 0
5, 7440, Note_on_c, 11, 37, 127
5, 7468, Note_on_c, 11, 37, 0
5, 7500, Note_on_c, 11, 37, 110
5, 7519, Note_on_c, 11, 37, 0
5, 7530, Note_on_c, 11, 37, 110
5, 7551, Note_on_c, 11, 37, 0
5, 7560, Note_on_c, 11, 37, 127
5, 7583, Note_on_c, 11, 37, 0
5, 7620, Note_on_c, 11, 32, 110
5, 7647, Note_on_c, 11, 32, 0
5, 7650, Note_on_c, 11, 35, 110
5, 7680, Note_on_c, 11, 37, 127
5, 7688, Note_on_c, 11, 35, 0
5, 7714, Note_on_c, 11, 37, 0
5, 7740, Note_on_c, 11, 37, 110
5, 7755, Note_on_c, 11, 37, 0
5, 7770, Note_on_c, 11, 37, 110
5, 7785, Note_on_c, 11, 37, 0
5, 7800, Note_on_c, 11, 37, 127
5, 7836, Note_on_c, 11, 37, 0
5, 7860, Note_on_c, 11, 37, 110
5, 7875, Note_on_c, 11, 37, 0
5, 7890, Note_on_c, 11, 37, 110
5, 7916, Note_on_c, 11, 37, 0
5, 7920, Note_on_c, 11, 35, 127
5, 7968, Note_on_c, 11, 35, 0
5, 7980, Note_on_c, 11, 35, 110
5, 8018, Note_on_c, 11, 35, 0
5, 8100, Note_on_c, 11, 37, 110
5, 8163, Note_on_c, 11, 37, 0
5, 8220, Note_on_c, 11, 37, 110
5, 8234, Note_on_c, 11, 37, 0
5, 8250, Note_on_c, 11, 37, 110
5, 8267, Note_on_c, 11, 37, 0
5, 8280, Note_on_c, 11, 37, 127
5, 8310, Note_on_c, 11, 37, 0
5, 8340, Note_on_c, 11, 37, 110
5, 8354, Note_on_c, 11, 37, 0
5, 8370, Note_on_c, 11, 37, 110
5, 8384, Note_on_c, 11, 37, 0
5, 8400, Note_on_c, 11, 37, 127
5, 8436, Note_on_c, 11, 37, 0
5, 8460, Note_on_c, 11, 37, 110
5, 8473, Note_on_c, 11, 37, 0
5, 8490, Note_on_c, 11, 37, 110
5, 8505, Note_on_c, 11, 37, 0
5, 8520, Note_on_c, 11, 37, 127
5, 8555, Note_on_c, 11, 37, 0
5, 8580, Note_on_c, 11, 37, 110
5, 8594, Note_on_c, 11, 37, 0
5, 8610, Note_on_c, 11, 37, 110
5, 8623, Note_on_c, 11, 37, 0
5, 8640, Note_on_c, 11, 37, 127
5, 8675, Note_on_c, 11, 37, 0
5, 8700, Note_on_c, 11, 37, 110
5, 8716, Note_on_c, 11, 37, 0
5, 8730, Note_on_c, 11, 37, 110
5, 8745, Note_on_c, 11, 37, 0
5, 8760, Note_on_c, 11, 37, 127
5, 8788, Note_on_c, 11, 37, 0
5, 8820, Note_on_c, 11, 37, 110
5, 8834, Note_on_c, 11, 37, 0
5, 8850, Note_on_c, 11, 37, 110
5, 8872, Note_on_c, 11, 37, 0
5, 8880, Note_on_c, 11, 35, 127
5, 8919, Note_on_c, 11, 35, 0
5, 8940, Note_on_c, 11, 35, 110
5, 8979, Note_on_c, 11, 35, 0
5, 9060, Note_on_c, 11, 37, 110
5, 9155, Note_on_c, 11, 37, 0
5, 9180, Note_on_c, 11, 37, 110
5, 9192, Note_on_c, 11, 37, 0
5, 9210, Note_on_c, 11, 37, 110
5, 9221, Note_on_c, 11, 37, 0
5, 9240, Note_on_c, 11, 37, 127
5, 9277, Note_on_c, 11, 37, 0
5, 9300, Note_on_c, 11, 37, 110
5, 9312, Note_on_c, 11, 37, 0
5, 9330, Note_on_c, 11, 37, 110
5, 9341, Note_on_c, 11, 37, 0
5, 9360, Note_on_c, 11, 37, 127
5, 9396, Note_on_c, 11, 37, 0
5, 9420, Note_on_c, 11, 37, 110
5, 9433, Note_on_c, 11, 37, 0
5, 9450, Note_on_c, 11, 37, 110
5, 9463, Note_on_c, 11, 37, 0
5, 9480, Note_on_c, 11, 37, 127
5, 9519, Note_on_c, 11, 37, 0
5, 9540, Note_on_c, 11, 37, 110
5, 9555, Note_on_c, 11, 37, 0
5, 9570, Note_on_c, 11, 37, 110
5, 9584, Note_on_c, 11, 37, 0
5, 9600, Note_on_c, 11, 37, 127
5, 9637, Note_on_c, 11, 37, 0
5, 9660, Note_on_c, 11, 37, 110
5, 9675, Note_on_c, 11, 37, 0
5, 9690, Note_on_c, 11, 37, 110
5, 9705, Note_on_c, 11, 37, 0
5, 9720, Note_on_c, 11, 37, 127
5, 9758, Note_on_c, 11, 37, 0
5, 9780, Note_on_c, 11, 37, 110
5, 9794, Note_on_c, 11, 37, 0
5, 9810, Note_on_c, 11, 37, 110
5, 9829, Note_on_c, 11, 37, 0
5, 9840, Note_on_c, 11, 35, 127
5, 9879, Note_on_c, 11, 35, 0
5, 9900, Note_on_c, 11, 35, 110
5, 9956, Note_on_c, 11, 35, 0
5, 10020, Note_on_c, 11, 35, 110
5, 10070, Note_on_c, 11, 35, 0
5, 10080, Note_on_c, 11, 30, 127
5, 10121, Note_on_c, 11, 30, 0
5, 10140, Note_on_c, 11, 30, 110
5, 10154, Note_on_c, 11, 30, 0
5, 10170, Note_on_c, 11, 30, 110
5, 10184, Note_on_c, 11, 30, 0
5, 10200, Note_on_c, 11, 30, 127
5, 10236, Note_on_c, 11, 30, 0
5, 10260, Note_on_c, 11, 30, 110
5, 10275, Note_on_c, 11, 30, 0
5, 10290, Note_on_c, 11, 30, 110
5, 10306, Note_on_c, 11, 30, 0
5, 10320, Note_on_c, 11, 30, 127
5, 10358, Note_on_c, 11, 30, 0
5, 10380, Note_on_c, 11, 30, 110
5, 10393, Note_on_c, 11, 30, 0
5, 10410, Note_on_c, 11, 30, 110
5, 10423, Note_on_c, 11, 30, 0
5, 10440, Note_on_c, 11, 30, 127
5, 10480, Note_on_c, 11, 30, 0
5, 10500, Note_on_c, 11, 30, 110
5, 10514, Note_on_c, 11, 30, 0
5, 10530, Note_on_c, 11, 30, 110
5, 10544, Note_on_c, 11, 30, 0
5, 10560, Note_on_c, 11, 30, 127
5, 10596, Note_on_c, 11, 30, 0
5, 10620, Note_on_c, 11, 30, 110
5, 10637, Note_on_c, 11, 30, 0
5, 10650, Note_on_c, 11, 30, 110
5, 10665, Note_on_c, 11, 30, 0
5, 10680, Note_on_c, 11, 30, 127
5, 10726, Note_on_c, 11, 30, 0
5, 10740, Note_on_c, 11, 30, 110
5, 10757, Note_on_c, 11, 30, 0
5, 10770, Note_on_c, 11, 30, 110
5, 10787, Note_on_c, 11, 30, 0
5, 10800, Note_on_c, 11, 35, 127
5, 10841, Note_on_c, 11, 35, 0
5, 10860, Note_on_c, 11, 35, 110
5, 10894, Note_on_c, 11, 35, 0
5, 10980, Note_on_c, 11, 28, 110
5, 11068, Note_on_c, 11, 28, 0
5, 11100, Note_on_c, 11, 28, 110
5, 11113, Note_on_c, 11, 28, 0
5, 11130, Note_on_c, 11, 28, 110
5, 11143, Note_on_c, 11, 28, 0
5, 11160, Note_on_c, 11, 28, 127
5, 11191, Note_on_c, 11, 28, 0
5, 11220, Note_on_c, 11, 28, 110
5, 11234, Note_on_c, 11, 28, 0
5, 11250, Note_on_c, 11, 28, 110
5, 11264, Note_on_c, 11, 28, 0
5, 11280, Note_on_c, 11, 28, 127
5, 11314, Note_on_c, 11, 28, 0
5, 11340, Note_on_c, 11, 28, 110
5, 11354, Note_on_c, 11, 28, 0
5, 11370, Note_on_c, 11, 28, 110
5, 11383, Note_on_c, 11, 28, 0
5, 11400, Note_on_c, 11, 28, 127
5, 11437, Note_on_c, 11, 28, 0
5, 11460, Note_on_c, 11, 28, 110
5, 11474, Note_on_c, 11, 28, 0
5, 11490, Note_on_c, 11, 28, 110
5, 11505, Note_on_c, 11, 28, 0
5, 11520, Note_on_c, 11, 28, 127
5, 11559, Note_on_c, 11, 28, 0
5, 11580, Note_on_c, 11, 28, 110
5, 11594, Note_on_c, 11, 28, 0
5, 11610, Note_on_c, 11, 28, 110
5, 11626, Note_on_c, 11, 28, 0
5, 11640, Note_on_c, 11, 28, 127
5, 11677, Note_on_c, 11, 28, 0
5, 11700, Note_on_c, 11, 28, 110
5, 11714, Note_on_c, 11, 28, 0
5, 11730, Note_on_c, 11, 28, 110
5, 11760, Note_on_c, 11, 35, 127
5, 11761, Note_on_c, 11, 28, 0
5, 11798, Note_on_c, 11, 35, 0
5, 11820, Note_on_c, 11, 35, 110
5, 11852, Note_on_c, 11, 35, 0
5, 11940, Note_on_c, 11, 37, 110
5, 12037, Note_on_c, 11, 37, 0
5, 12060, Note_on_c, 11, 37, 110
5, 12073, Note_on_c, 11, 37, 0
5, 12090, Note_on_c, 11, 37, 110
5, 12104, Note_on_c, 11, 37, 0
5, 12120, Note_on_c, 11, 37, 127
5, 12158, Note_on_c, 11, 37, 0
5, 12180, Note_on_c, 11, 37, 110
5, 12194, Note_on_c, 11, 37, 0
5, 12210, Note_on_c, 11, 37, 110
5, 12226, Note_on_c, 11, 37, 0
5, 12240, Note_on_c, 11, 37, 127
5, 12283, Note_on_c, 11, 37, 0
5, 12300, Note_on_c, 11, 37, 110
5, 12318, Note_on_c, 11, 37, 0
5, 12330, Note_on_c, 11, 37, 110
5, 12344, Note_on_c, 11, 37, 0
5, 12360, Note_on_c, 11, 37, 127
5, 12396, Note_on_c, 11, 37, 0
5, 12420, Note_on_c, 11, 37, 110
5, 12435, Note_on_c, 11, 37, 0
5, 12450, Note_on_c, 11, 37, 110
5, 12464, Note_on_c, 11, 37, 0
5, 12480, Note_on_c, 11, 37, 127
5, 12519, Note_on_c, 11, 37, 0
5, 12540, Note_on_c, 11, 37, 110
5, 12556, Note_on_c, 11, 37, 0
5, 12570, Note_on_c, 11, 37, 110
5, 12587, Note_on_c, 11, 37, 0
5, 12600, Note_on_c, 11, 37, 127
5, 12638, Note_on_c, 11, 37, 0
5, 12660, Note_on_c, 11, 37, 110
5, 12674, Note_on_c, 11, 37, 0
5, 12690, Note_on_c, 11, 37, 110
5, 12712, Note_on_c, 11, 37, 0
5, 12720, Note_on_c, 11, 35, 127
5, 12773, Note_on_c, 11, 35, 0
5, 12780, Note_on_c, 11, 35, 110
5, 12823, Note_on_c, 11, 35, 0
5, 12900, Note_on_c, 11, 37, 110
5, 12997, Note_on_c, 11, 37, 0
5, 13020, Note_on_c, 11, 37, 110
5, 13036, Note_on_c, 11, 37, 0
5, 13050, Note_on_c, 11, 37, 110
5, 13065, Note_on_c, 11, 37, 0
5, 13080, Note_on_c, 11, 37, 127
5, 13118, Note_on_c, 11, 37, 0
5, 13140, Note_on_c, 11, 37, 110
5, 13154, Note_on_c, 11, 37, 0
5, 13170, Note_on_c, 11, 37, 110
5, 13186, Note_on_c, 11, 37, 0
5, 13200, Note_on_c, 11, 37, 127
5, 13237, Note_on_c, 11, 37, 0
5, 13260, Note_on_c, 11, 37, 110
5, 13276, Note_on_c, 11, 37, 0
5, 13290, Note_on_c, 11, 37, 110
5, 13305, Note_on_c, 11, 37, 0
5, 13320, Note_on_c, 11, 37, 127
5, 13354, Note_on_c, 11, 37, 0
5, 13380, Note_on_c, 11, 37, 110
5, 13396, Note_on_c, 11, 37, 0
5, 13410, Note_on_c, 11, 37, 110
5, 13425, Note_on_c, 11, 37, 0
5, 13440, Note_on_c, 11, 37, 127
5, 13475, Note_on_c, 11, 37, 0
5, 13500, Note_on_c, 11, 37, 110
5, 13514, Note_on_c, 11, 37, 0
5, 13530, Note_on_c, 11, 37, 110
5, 13543, Note_on_c, 11, 37, 0
5, 13560, Note_on_c, 11, 37, 127
5, 13597, Note_on_c, 11, 37, 0
5, 13620, Note_on_c, 11, 37, 110
5, 13633, Note_on_c, 11, 37, 0
5, 13650, Note_on_c, 11, 37, 110
5, 13664, Note_on_c, 11, 37, 0
5, 13680, Note_on_c, 11, 35, 127
5, 13729, Note_on_c, 11, 35, 0
5, 13740, Note_on_c, 11, 35, 110
5, 13796, Note_on_c, 11, 35, 0
5, 13860, Note_on_c, 11, 30, 110
5, 13914, Note_on_c, 11, 30, 0
5, 13920, Note_on_c, 11, 30, 127
5, 13970, Note_on_c, 11, 30, 0
5, 13980, Note_on_c, 11, 30, 110
5, 13993, Note_on_c, 11, 30, 0
5, 14010, Note_on_c, 11, 30, 110
5, 14024, Note_on_c, 11, 30, 0
5, 14040, Note_on_c, 11, 30, 127
5, 14078, Note_on_c, 11, 30, 0
5, 14100, Note_on_c, 11, 30, 110
5, 14115, Note_on_c, 11, 30, 0
5, 14130, Note_on_c, 11, 30, 110
5, 14145, Note_on_c, 11, 30, 0
5, 14160, Note_on_c, 11, 30, 127
5, 14198, Note_on_c, 11, 30, 0
5, 14220, Note_on_c, 11, 30, 110
5, 14236, Note_on_c, 11, 30, 0
5, 14250, Note_on_c, 11, 30, 110
5, 14264, Note_on_c, 11, 30, 0
5, 14280, Note_on_c, 11, 30, 127
5, 14318, Note_on_c, 11, 30, 0
5, 14340, Note_on_c, 11, 30, 110
5, 14355, Note_on_c, 11, 30, 0
5, 14370, Note_on_c, 11, 30, 110
5, 14384, Note_on_c, 11, 30, 0
5, 14400, Note_on_c, 11, 30, 127
5, 14439, Note_on_c, 11, 30, 0
5, 14460, Note_on_c, 11, 30, 110
5, 14476, Note_on_c, 11, 30, 0
5, 14490, Note_on_c, 11, 30, 110
5, 14508, Note_on_c, 11, 30, 0
5, 14520, Note_on_c, 11, 30, 127
5, 14553, Note_on_c, 11, 30, 0
5, 14580, Note_on_c, 11, 30, 110
5, 14591, Note_on_c, 11, 30, 0
5, 14610, Note_on_c, 11, 30, 110
5, 14640, Note_on_c, 11, 35, 127
5, 14645, Note_on_c, 11, 30, 0
5, 14681, Note_on_c, 11, 35, 0
5, 14700, Note_on_c, 11, 35, 110
5, 14750, Note_on_c, 11, 35, 0
5, 14820, Note_on_c, 11, 28, 110
5, 14908, Note_on_c, 11, 28, 0
5, 14940, Note_on_c, 11, 28, 110
5, 14954, Note_on_c, 11, 28, 0
5, 14970, Note_on_c, 11, 28, 110
5, 14982, Note_on_c, 11, 28, 0
5, 15000, Note_on_c, 11, 28, 127
5, 15039, Note_on_c, 11, 28, 0
5, 15060, Note_on_c, 11, 28, 110
5, 15074, Note_on_c, 11, 28, 0
5, 15090, Note_on_c, 11, 28, 110
5, 15102, Note_on_c, 11, 28, 0
5, 15120, Note_on_c, 11, 28, 127
5, 15163, Note_on_c, 11, 28, 0
5, 15180, Note_on_c, 11, 28, 110
5, 15193, Note_on_c, 11, 28, 0
5, 15210, Note_on_c, 11, 28, 110
5, 15225, Note_on_c, 11, 28, 0
5, 15240, Note_on_c, 11, 28, 127
5, 15289, Note_on_c, 11, 28, 0
5, 15300, Note_on_c, 11, 28, 110
5, 15313, Note_on_c, 11, 28, 0
5, 15330, Note_on_c, 11, 28, 110
5, 15344, Note_on_c, 11, 28, 0
5, 15360, Note_on_c, 11, 28, 127
5, 15411, Note_on_c, 11, 28, 0
5, 15420, Note_on_c, 11, 30, 110
5, 15471, Note_on_c, 11, 30, 0
5, 15540, Note_on_c, 11, 30, 110
5, 15770, Note_on_c, 11, 30, 0
5, 15780, Note_on_c, 11, 30, 110
5, 15794, Note_on_c, 11, 30, 0
5, 15810, Note_on_c, 11, 30, 110
5, 15840, Note_on_c, 11, 30, 0
5, 15840, Note_on_c, 11, 35, 127
5, 15873, Note_on_c, 11, 35, 0
5, 15900, Note_on_c, 11, 35, 110
5, 15916, Note_on_c, 11, 35, 0
5, 15930, Note_on_c, 11, 35, 110
5, 15944, Note_on_c, 11, 35, 0
5, 15960, Note_on_c, 11, 35, 127
5, 15999, Note_on_c, 11, 35, 0
5, 16020, Note_on_c, 11, 35, 110
5, 16035, Note_on_c, 11, 35, 0
5, 16050, Note_on_c, 11, 35, 110
5, 16066, Note_on_c, 11, 35, 0
5, 16080, Note_on_c, 11, 35, 127
5, 16114, Note_on_c, 11, 35, 0
5, 16140, Note_on_c, 11, 35, 110
5, 16155, Note_on_c, 11, 35, 0
5, 16170, Note_on_c, 11, 35, 110
5, 16186, Note_on_c, 11, 35, 0
5, 16200, Note_on_c, 11, 35, 127
5, 16233, Note_on_c, 11, 35, 0
5, 16260, Note_on_c, 11, 35, 110
5, 16274, Note_on_c, 11, 35, 0
5, 16290, Note_on_c, 11, 35, 110
5, 16318, Note_on_c, 11, 35, 0
5, 16320, Note_on_c, 11, 33, 127
5, 16350, Note_on_c, 11, 33, 0
5, 16380, Note_on_c, 11, 33, 110
5, 16393, Note_on_c, 11, 33, 0
5, 16410, Note_on_c, 11, 33, 110
5, 16424, Note_on_c, 11, 33, 0
5, 16440, Note_on_c, 11, 33, 127
5, 16467, Note_on_c, 11, 33, 0
5, 16500, Note_on_c, 11, 33, 110
5, 16515, Note_on_c, 11, 33, 0
5, 16530, Note_on_c, 11, 33, 110
5, 16545, Note_on_c, 11, 33, 0
5, 16560, Note_on_c, 11, 33, 127
5, 16582, Note_on_c, 11, 33, 0
5, 16620, Note_on_c, 11, 33, 110
5, 16637, Note_on_c, 11, 33, 0
5, 16650, Note_on_c, 11, 33, 110
5, 16665, Note_on_c, 11, 33, 0
5, 16680, Note_on_c, 11, 33, 127
5, 16710, Note_on_c, 11, 33, 0
5, 16740, Note_on_c, 11, 33, 110
5, 16753, Note_on_c, 11, 33, 0
5, 16770, Note_on_c, 11, 33, 110
5, 16797, Note_on_c, 11, 33, 0
5, 16800, Note_on_c, 11, 32, 127
5, 16827, Note_on_c, 11, 32, 0
5, 16860, Note_on_c, 11, 32, 110
5, 16874, Note_on_c, 11, 32, 0
5, 16890, Note_on_c, 11, 32, 110
5, 16918, Note_on_c, 11, 32, 0
5, 16920, Note_on_c, 11, 35, 127
5, 16949, Note_on_c, 11, 35, 0
5, 16980, Note_on_c, 11, 35, 110
5, 16993, Note_on_c, 11, 35, 0
5, 17010, Note_on_c, 11, 35, 110
5, 17040, Note_on_c, 11, 39, 127
5, 17048, Note_on_c, 11, 35, 0
5, 17072, Note_on_c, 11, 39, 0
5, 17100, Note_on_c, 11, 39, 110
5, 17116, Note_on_c, 11, 39, 0
5, 17130, Note_on_c, 11, 39, 110
5, 17160, Note_on_c, 11, 35, 127
5, 17165, Note_on_c, 11, 39, 0
5, 17187, Note_on_c, 11, 35, 0
5, 17220, Note_on_c, 11, 35, 110
5, 17235, Note_on_c, 11, 35, 0
5, 17250, Note_on_c, 11, 35, 110
5, 17280, Note_on_c, 11, 37, 127
5, 17284, Note_on_c, 11, 35, 0
5, 17318, Note_on_c, 11, 37, 0
5, 17340, Note_on_c, 11, 37, 110
5, 17355, Note_on_c, 11, 37, 0
5, 17370, Note_on_c, 11, 37, 110
5, 17387, Note_on_c, 11, 37, 0
5, 17400, Note_on_c, 11, 37, 127
5, 17434, Note_on_c, 11, 37, 0
5, 17460, Note_on_c, 11, 37, 110
5, 17476, Note_on_c, 11, 37, 0
5, 17490, Note_on_c, 11, 37, 110
5, 17515, Note_on_c, 11, 37, 0
5, 17520, Note_on_c, 11, 29, 127
5, 17549, Note_on_c, 11, 29, 0
5, 17580, Note_on_c, 11, 29, 110
5, 17594, Note_on_c, 11, 29, 0
5, 17610, Note_on_c, 11, 29, 110
5, 17622, Note_on_c, 11, 29, 0
5, 17640, Note_on_c, 11, 29, 127
5, 17672, Note_on_c, 11, 29, 0
5, 17700, Note_on_c, 11, 29, 110
5, 17728, Note_on_c, 11, 29, 0
5, 17730, Note_on_c, 11, 32, 110
5, 17755, Note_on_c, 11, 32, 0
5, 17760, Note_on_c, 11, 30, 127
5, 17794, Note_on_c, 11, 30, 0
5, 17820, Note_on_c, 11, 30, 110
5, 17835, Note_on_c, 11, 30, 0
5, 17850, Note_on_c, 11, 30, 110
5, 17863, Note_on_c, 11, 30, 0
5, 17880, Note_on_c, 11, 30, 127
5, 17913, Note_on_c, 11, 30, 0
5, 17940, Note_on_c, 11, 30, 110
5, 17952, Note_on_c, 11, 30, 0
5, 17970, Note_on_c, 11, 30, 110
5, 17986, Note_on_c, 11, 30, 0
5, 18000, Note_on_c, 11, 30, 127
5, 18031, Note_on_c, 11, 30, 0
5, 18060, Note_on_c, 11, 30, 110
5, 18074, Note_on_c, 11, 30, 0
5, 18090, Note_on_c, 11, 30, 110
5, 18105, Note_on_c, 11, 30, 0
5, 18120, Note_on_c, 11, 30, 127
5, 18156, Note_on_c, 11, 30, 0
5, 18180, Note_on_c, 11, 30, 110
5, 18194, Note_on_c, 11, 30, 0
5, 18210, Note_on_c, 11, 30, 110
5, 18234, Note_on_c, 11, 30, 0
5, 18240, Note_on_c, 11, 32, 127
5, 18270, Note_on_c, 11, 32, 0
5, 18300, Note_on_c, 11, 32, 110
5, 18315, Note_on_c, 11, 32, 0
5, 18330, Note_on_c, 11, 32, 110
5, 18346, Note_on_c, 11, 32, 0
5, 18360, Note_on_c, 11, 32, 127
5, 18389, Note_on_c, 11, 32, 0
5, 18420, Note_on_c, 11, 32, 110
5, 18432, Note_on_c, 11, 32, 0
5, 18450, Note_on_c, 11, 32, 110
5, 18461, Note_on_c, 11, 32, 0
5, 18480, Note_on_c, 11, 32, 127
5, 18505, Note_on_c, 11, 32, 0
5, 18540, Note_on_c, 11, 32, 110
5, 18553, Note_on_c, 11, 32, 0
5, 18570, Note_on_c, 11, 32, 110
5, 18583, Note_on_c, 11, 32, 0
5, 18600, Note_on_c, 11, 32, 127
5, 18624, Note_on_c, 11, 32, 0
5, 18660, Note_on_c, 11, 32, 110
5, 18687, Note_on_c, 11, 32, 0
5, 18690, Note_on_c, 11, 35, 110
5, 18720, Note_on_c, 11, 37, 127
5, 18723, Note_on_c, 11, 35, 0
5, 18760, Note_on_c, 11, 37, 0
5, 18780, Note_on_c, 11, 37, 110
5, 18792, Note_on_c, 11, 37, 0
5, 18810, Note_on_c, 11, 37, 110
5, 18824, Note_on_c, 11, 37, 0
5, 18840, Note_on_c, 11, 37, 127
5, 18875, Note_on_c, 11, 37, 0
5, 18900, Note_on_c, 11, 37, 110
5, 18917, Note_on_c, 11, 37, 0
5, 18930, Note_on_c, 11, 37, 110
5, 18945, Note_on_c, 11, 37, 0
5, 18960, Note_on_c, 11, 37, 127
5, 18986, Note_on_c, 11, 37, 0
5, 19020, Note_on_c, 11, 37, 110
5, 19036, Note_on_c, 11, 37, 0
5, 19050, Note_on_c, 11, 37, 110
5, 19064, Note_on_c, 11, 37, 0
5, 19080, Note_on_c, 11, 37, 127
5, 19100, Note_on_c, 11, 37, 0
5, 19140, Note_on_c, 11, 37, 110
5, 19170, Note_on_c, 11, 35, 110
5, 19174, Note_on_c, 11, 37, 0
5, 19200, Note_on_c, 11, 37, 127
5, 19206, Note_on_c, 11, 35, 0
5, 19236, Note_on_c, 11, 37, 0
5, 19260, Note_on_c, 11, 37, 110
5, 19274, Note_on_c, 11, 37, 0
5, 19290, Note_on_c, 11, 37, 110
5, 19303, Note_on_c, 11, 37, 0
5, 19320, Note_on_c, 11, 37, 127
5, 19348, Note_on_c, 11, 37, 0
5, 19380, Note_on_c, 11, 37, 110
5, 19396, Note_on_c, 11, 37, 0
5, 19410, Note_on_c, 11, 37, 110
5, 19424, Note_on_c, 11, 37, 0
5, 19440, Note_on_c, 11, 37, 127
5, 19478, Note_on_c, 11, 37, 0
5, 19500, Note_on_c, 11, 37, 110
5, 19516, Note_on_c, 11, 37, 0
5, 19530, Note_on_c, 11, 37, 110
5, 19543, Note_on_c, 11, 37, 0
5, 19560, Note_on_c, 11, 37, 127
5, 19596, Note_on_c, 11, 37, 0
5, 19620, Note_on_c, 11, 32, 110
5, 19645, Note_on_c, 11, 32, 0
5, 19650, Note_on_c, 11, 34, 110
5, 19680, Note_on_c, 11, 35, 127
5, 19690, Note_on_c, 11, 34, 0
5, 19712, Note_on_c, 11, 35, 0
5, 19740, Note_on_c, 11, 35, 110
5, 19756, Note_on_c, 11, 35, 0
5, 19770, Note_on_c, 11, 35, 110
5, 19788, Note_on_c, 11, 35, 0
5, 19800, Note_on_c, 11, 35, 127
5, 19827, Note_on_c, 11, 35, 0
5, 19860, Note_on_c, 11, 35, 110
5, 19875, Note_on_c, 11, 35, 0
5, 19890, Note_on_c, 11, 35, 110
5, 19905, Note_on_c, 11, 35, 0
5, 19920, Note_on_c, 11, 35, 127
5, 19959, Note_on_c, 11, 35, 0
5, 19980, Note_on_c, 11, 35, 110
5, 19996, Note_on_c, 11, 35, 0
5, 20010, Note_on_c, 11, 35, 110
5, 20025, Note_on_c, 11, 35, 0
5, 20040, Note_on_c, 11, 35, 127
5, 20071, Note_on_c, 11, 35, 0
5, 20100, Note_on_c, 11, 35, 110
5, 20115, Note_on_c, 11, 35, 0
5, 20130, Note_on_c, 11, 35, 110
5, 20160, Note_on_c, 11, 35, 0
5, 20160, Note_on_c, 11, 33, 127
5, 20188, Note_on_c, 11, 33, 0
5, 20220, Note_on_c, 11, 33, 110
5, 20232, Note_on_c, 11, 33, 0
5, 20250, Note_on_c, 11, 33, 110
5, 20261, Note_on_c, 11, 33, 0
5, 20280, Note_on_c, 11, 33, 127
5, 20310, Note_on_c, 11, 33, 0
5, 20340, Note_on_c, 11, 33, 110
5, 20353, Note_on_c, 11, 33, 0
5, 20370, Note_on_c, 11, 33, 110
5, 20385, Note_on_c, 11, 33, 0
5, 20400, Note_on_c, 11, 33, 127
5, 20430, Note_on_c, 11, 33, 0
5, 20460, Note_on_c, 11, 33, 110
5, 20476, Note_on_c, 11, 33, 0
5, 20490, Note_on_c, 11, 33, 110
5, 20507, Note_on_c, 11, 33, 0
5, 20520, Note_on_c, 11, 33, 127
5, 20551, Note_on_c, 11, 33, 0
5, 20580, Note_on_c, 11, 33, 110
5, 20596, Note_on_c, 11, 33, 0
5, 20610, Note_on_c, 11, 33, 110
5, 20633, Note_on_c, 11, 33, 0
5, 20640, Note_on_c, 11, 32, 127
5, 20662, Note_on_c, 11, 32, 0
5, 20700, Note_on_c, 11, 32, 110
5, 20715, Note_on_c, 11, 32, 0
5, 20730, Note_on_c, 11, 32, 110
5, 20759, Note_on_c, 11, 32, 0
5, 20760, Note_on_c, 11, 35, 127
5, 20790, Note_on_c, 11, 35, 0
5, 20820, Note_on_c, 11, 35, 110
5, 20837, Note_on_c, 11, 35, 0
5, 20850, Note_on_c, 11, 35, 110
5, 20880, Note_on_c, 11, 39, 127
5, 20885, Note_on_c, 11, 35, 0
5, 20904, Note_on_c, 11, 39, 0
5, 20940, Note_on_c, 11, 39, 110
5, 20956, Note_on_c, 11, 39, 0
5, 20970, Note_on_c, 11, 39, 110
5, 21000, Note_on_c, 11, 35, 127
5, 21006, Note_on_c, 11, 39, 0
5, 21023, Note_on_c, 11, 35, 0
5, 21060, Note_on_c, 11, 35, 110
5, 21074, Note_on_c, 11, 35, 0
5, 21090, Note_on_c, 11, 35, 110
5, 21120, Note_on_c, 11, 37, 127
5, 21125, Note_on_c, 11, 35, 0
5, 21148, Note_on_c, 11, 37, 0
5, 21180, Note_on_c, 11, 37, 110
5, 21196, Note_on_c, 11, 37, 0
5, 21210, Note_on_c, 11, 37, 110
5, 21225, Note_on_c, 11, 37, 0
5, 21240, Note_on_c, 11, 37, 127
5, 21276, Note_on_c, 11, 37, 0
5, 21300, Note_on_c, 11, 37, 110
5, 21316, Note_on_c, 11, 37, 0
5, 21330, Note_on_c, 11, 37, 110
5, 21355, Note_on_c, 11, 37, 0
5, 21360, Note_on_c, 11, 29, 127
5, 21395, Note_on_c, 11, 29, 0
5, 21420, Note_on_c, 11, 29, 110
5, 21434, Note_on_c, 11, 29, 0
5, 21450, Note_on_c, 11, 29, 110
5, 21462, Note_on_c, 11, 29, 0
5, 21480, Note_on_c, 11, 29, 127
5, 21514, Note_on_c, 11, 29, 0
5, 21540, Note_on_c, 11, 29, 110
5, 21569, Note_on_c, 11, 29, 0
5, 21570, Note_on_c, 11, 32, 110
5, 21600, Note_on_c, 11, 30, 127
5, 21603, Note_on_c, 11, 32, 0
5, 21635, Note_on_c, 11, 30, 0
5, 21660, Note_on_c, 11, 30, 110
5, 21675, Note_on_c, 11, 30, 0
5, 21690, Note_on_c, 11, 30, 110
5, 21703, Note_on_c, 11, 30, 0
5, 21720, Note_on_c, 11, 30, 127
5, 21747, Note_on_c, 11, 30, 0
5, 21780, Note_on_c, 11, 30, 110
5, 21793, Note_on_c, 11, 30, 0
5, 21810, Note_on_c, 11, 30, 110
5, 21823, Note_on_c, 11, 30, 0
5, 21840, Note_on_c, 11, 30, 127
5, 21867, Note_on_c, 11, 30, 0
5, 21900, Note_on_c, 11, 30, 110
5, 21914, Note_on_c, 11, 30, 0
5, 21930, Note_on_c, 11, 30, 110
5, 21944, Note_on_c, 11, 30, 0
5, 21960, Note_on_c, 11, 30, 127
5, 21991, Note_on_c, 11, 30, 0
5, 22020, Note_on_c, 11, 30, 110
5, 22034, Note_on_c, 11, 30, 0
5, 22050, Note_on_c, 11, 30, 110
5, 22067, Note_on_c, 11, 30, 0
5, 22080, Note_on_c, 11, 32, 127
5, 22110, Note_on_c, 11, 32, 0
5, 22140, Note_on_c, 11, 32, 110
5, 22155, Note_on_c, 11, 32, 0
5, 22170, Note_on_c, 11, 32, 110
5, 22198, Note_on_c, 11, 32, 0
5, 22200, Note_on_c, 11, 35, 127
5, 22231, Note_on_c, 11, 35, 0
5, 22260, Note_on_c, 11, 35, 110
5, 22275, Note_on_c, 11, 35, 0
5, 22290, Note_on_c, 11, 35, 110
5, 22320, Note_on_c, 11, 39, 127
5, 22324, Note_on_c, 11, 35, 0
5, 22350, Note_on_c, 11, 39, 0
5, 22380, Note_on_c, 11, 39, 110
5, 22396, Note_on_c, 11, 39, 0
5, 22410, Note_on_c, 11, 39, 110
5, 22440, Note_on_c, 11, 35, 127
5, 22442, Note_on_c, 11, 39, 0
5, 22468, Note_on_c, 11, 35, 0
5, 22500, Note_on_c, 11, 35, 110
5, 22515, Note_on_c, 11, 35, 0
5, 22530, Note_on_c, 11, 35, 110
5, 22560, Note_on_c, 11, 37, 127
5, 22567, Note_on_c, 11, 35, 0
5, 22604, Note_on_c, 11, 37, 0
5, 22620, Note_on_c, 11, 37, 110
5, 22635, Note_on_c, 11, 37, 0
5, 22650, Note_on_c, 11, 37, 110
5, 22666, Note_on_c, 11, 37, 0
5, 22680, Note_on_c, 11, 37, 127
5, 22719, Note_on_c, 11, 37, 0
5, 22740, Note_on_c, 11, 37, 110
5, 22755, Note_on_c, 11, 37, 0
5, 22770, Note_on_c, 11, 37, 110
5, 22787, Note_on_c, 11, 37, 0
5, 22800, Note_on_c, 11, 37, 127
5, 22832, Note_on_c, 11, 37, 0
5, 22860, Note_on_c, 11, 37, 110
5, 22875, Note_on_c, 11, 37, 0
5, 22890, Note_on_c, 11, 37, 110
5, 22905, Note_on_c, 11, 37, 0
5, 22920, Note_on_c, 11, 37, 127
5, 22948, Note_on_c, 11, 37, 0
5, 22980, Note_on_c, 11, 37, 110
5, 23010, Note_on_c, 11, 37, 0
5, 23010, Note_on_c, 11, 35, 110
5, 23040, Note_on_c, 11, 37, 127
5, 23052, Note_on_c, 11, 35, 0
5, 23074, Note_on_c, 11, 37, 0
5, 23100, Note_on_c, 11, 37, 110
5, 23114, Note_on_c, 11, 37, 0
5, 23130, Note_on_c, 11, 37, 110
5, 23149, Note_on_c, 11, 37, 0
5, 23160, Note_on_c, 11, 37, 127
5, 23201, Note_on_c, 11, 37, 0
5, 23220, Note_on_c, 11, 37, 110
5, 23235, Note_on_c, 11, 37, 0
5, 23250, Note_on_c, 11, 37, 110
5, 23280, Note_on_c, 11, 35, 127
5, 23284, Note_on_c, 11, 37, 0
5, 23322, Note_on_c, 11, 35, 0
5, 23340, Note_on_c, 11, 35, 110
5, 23378, Note_on_c, 11, 35, 0
5, 23460, Note_on_c, 11, 37, 110
5, 23532, Note_on_c, 11, 37, 0
5, 23580, Note_on_c, 11, 37, 110
5, 23594, Note_on_c, 11, 37, 0
5, 23610, Note_on_c, 11, 37, 110
5, 23627, Note_on_c, 11, 37, 0
5, 23640, Note_on_c, 11, 37, 127
5, 23670, Note_on_c, 11, 37, 0
5, 23700, Note_on_c, 11, 37, 110
5, 23714, Note_on_c, 11, 37, 0
5, 23730, Note_on_c, 11, 37, 110
5, 23744, Note_on_c, 11, 37, 0
5, 23760, Note_on_c, 11, 37, 127
5, 23796, Note_on_c, 11, 37, 0
5, 23820, Note_on_c, 11, 37, 110
5, 23833, Note_on_c, 11, 37, 0
5, 23850, Note_on_c, 11, 37, 110
5, 23865, Note_on_c, 11, 37, 0
5, 23880, Note_on_c, 11, 37, 127
5, 23915, Note_on_c, 11, 37, 0
5, 23940, Note_on_c, 11, 37, 110
5, 23954, Note_on_c, 11, 37, 0
5, 23970, Note_on_c, 11, 37, 110
5, 23983, Note_on_c, 11, 37, 0
5, 24000, Note_on_c, 11, 37, 127
5, 24035, Note_on_c, 11, 37, 0
5, 24060, Note_on_c, 11, 37, 110
5, 24076, Note_on_c, 11, 37, 0
5, 24090, Note_on_c, 11, 37, 110
5, 24105, Note_on_c, 11, 37, 0
5, 24120, Note_on_c, 11, 37, 127
5, 24148, Note_on_c, 11, 37, 0
5, 24180, Note_on_c, 11, 37, 110
5, 24194, Note_on_c, 11, 37, 0
5, 24210, Note_on_c, 11, 37, 110
5, 24232, Note_on_c, 11, 37, 0
5, 24240, Note_on_c, 11, 35, 127
5, 24279, Note_on_c, 11, 35, 0
5, 24300, Note_on_c, 11, 35, 110
5, 24339, Note_on_c, 11, 35, 0
5, 24420, Note_on_c, 11, 37, 110
5, 24515, Note_on_c, 11, 37, 0
5, 24540, Note_on_c, 11, 37, 110
5, 24552, Note_on_c, 11, 37, 0
5, 24570, Note_on_c, 11, 37, 110
5, 24581, Note_on_c, 11, 37, 0
5, 24600, Note_on_c, 11, 37, 127
5, 24637, Note_on_c, 11, 37, 0
5, 24660, Note_on_c, 11, 37, 110
5, 24672, Note_on_c, 11, 37, 0
5, 24690, Note_on_c, 11, 37, 110
5, 24701, Note_on_c, 11, 37, 0
5, 24720, Note_on_c, 11, 37, 127
5, 24756, Note_on_c, 11, 37, 0
5, 24780, Note_on_c, 11, 37, 110
5, 24793, Note_on_c, 11, 37, 0
5, 24810, Note_on_c, 11, 37, 110
5, 24823, Note_on_c, 11, 37, 0
5, 24840, Note_on_c, 11, 37, 127
5, 24879, Note_on_c, 11, 37, 0
5, 24900, Note_on_c, 11, 37, 110
5, 24915, Note_on_c, 11, 37, 0
5, 24930, Note_on_c, 11, 37, 110
5, 24944, Note_on_c, 11, 37, 0
5, 24960, Note_on_c, 11, 37, 127
5, 24997, Note_on_c, 11, 37, 0
5, 25020, Note_on_c, 11, 37, 110
5, 25035, Note_on_c, 11, 37, 0
5, 25050, Note_on_c, 11, 37, 110
5, 25065, Note_on_c, 11, 37, 0
5, 25080, Note_on_c, 11, 37, 127
5, 25118, Note_on_c, 11, 37, 0
5, 25140, Note_on_c, 11, 37, 110
5, 25154, Note_on_c, 11, 37, 0
5, 25170, Note_on_c, 11, 37, 110
5, 25189, Note_on_c, 11, 37, 0
5, 25200, Note_on_c, 11, 35, 127
5, 25239, Note_on_c, 11, 35, 0
5, 25260, Note_on_c, 11, 35, 110
5, 25316, Note_on_c, 11, 35, 0
5, 25380, Note_on_c, 11, 35, 110
5, 25430, Note_on_c, 11, 35, 0
5, 25440, Note_on_c, 11, 30, 127
5, 25481, Note_on_c, 11, 30, 0
5, 25500, Note_on_c, 11, 30, 110
5, 25514, Note_on_c, 11, 30, 0
5, 25530, Note_on_c, 11, 30, 110
5, 25544, Note_on_c, 11, 30, 0
5, 25560, Note_on_c, 11, 30, 127
5, 25596, Note_on_c, 11, 30, 0
5, 25620, Note_on_c, 11, 30, 110
5, 25635, Note_on_c, 11, 30, 0
5, 25650, Note_on_c, 11, 30, 110
5, 25666, Note_on_c, 11, 30, 0
5, 25680, Note_on_c, 11, 30, 127
5, 25718, Note_on_c, 11, 30, 0
5, 25740, Note_on_c, 11, 30, 110
5, 25753, Note_on_c, 11, 30, 0
5, 25770, Note_on_c, 11, 30, 110
5, 25783, Note_on_c, 11, 30, 0
5, 25800, Note_on_c, 11, 30, 127
5, 25840, Note_on_c, 11, 30, 0
5, 25860, Note_on_c, 11, 30, 110
5, 25874, Note_on_c, 11, 30, 0
5, 25890, Note_on_c, 11, 30, 110
5, 25904, Note_on_c, 11, 30, 0
5, 25920, Note_on_c, 11, 30, 127
5, 25956, Note_on_c, 11, 30, 0
5, 25980, Note_on_c, 11, 30, 110
5, 25997, Note_on_c, 11, 30, 0
5, 26010, Note_on_c, 11, 30, 110
5, 26025, Note_on_c, 11, 30, 0
5, 26040, Note_on_c, 11, 30, 127
5, 26086, Note_on_c, 11, 30, 0
5, 26100, Note_on_c, 11, 30, 110
5, 26117, Note_on_c, 11, 30, 0
5, 26130, Note_on_c, 11, 30, 110
5, 26147, Note_on_c, 11, 30, 0
5, 26160, Note_on_c, 11, 35, 127
5, 26201, Note_on_c, 11, 35, 0
5, 26220, Note_on_c, 11, 35, 110
5, 26254, Note_on_c, 11, 35, 0
5, 26340, Note_on_c, 11, 28, 110
5, 26428, Note_on_c, 11, 28, 0
5, 26460, Note_on_c, 11, 28, 110
5, 26473, Note_on_c, 11, 28, 0
5, 26490, Note_on_c, 11, 28, 110
5, 26503, Note_on_c, 11, 28, 0
5, 26520, Note_on_c, 11, 28, 127
5, 26551, Note_on_c, 11, 28, 0
5, 26580, Note_on_c, 11, 28, 110
5, 26594, Note_on_c, 11, 28, 0
5, 26610, Note_on_c, 11, 28, 110
5, 26624, Note_on_c, 11, 28, 0
5, 26640, Note_on_c, 11, 28, 127
5, 26674, Note_on_c, 11, 28, 0
5, 26700, Note_on_c, 11, 28, 110
5, 26714, Note_on_c, 11, 28, 0
5, 26730, Note_on_c, 11, 28, 110
5, 26743, Note_on_c, 11, 28, 0
5, 26760, Note_on_c, 11, 28, 127
5, 26797, Note_on_c, 11, 28, 0
5, 26820, Note_on_c, 11, 28, 110
5, 26834, Note_on_c, 11, 28, 0
5, 26850, Note_on_c, 11, 28, 110
5, 26865, Note_on_c, 11, 28, 0
5, 26880, Note_on_c, 11, 28, 127
5, 26919, Note_on_c, 11, 28, 0
5, 26940, Note_on_c, 11, 28, 110
5, 26954, Note_on_c, 11, 28, 0
5, 26970, Note_on_c, 11, 28, 110
5, 26986, Note_on_c, 11, 28, 0
5, 27000, Note_on_c, 11, 28, 127
5, 27037, Note_on_c, 11, 28, 0
5, 27060, Note_on_c, 11, 28, 110
5, 27074, Note_on_c, 11, 28, 0
5, 27090, Note_on_c, 11, 28, 110
5, 27120, Note_on_c, 11, 35, 127
5, 27121, Note_on_c, 11, 28, 0
5, 27158, Note_on_c, 11, 35, 0
5, 27180, Note_on_c, 11, 35, 110
5, 27212, Note_on_c, 11, 35, 0
5, 27300, Note_on_c, 11, 37, 110
5, 27397, Note_on_c, 11, 37, 0
5, 27420, Note_on_c, 11, 37, 110
5, 27433, Note_on_c, 11, 37, 0
5, 27450, Note_on_c, 11, 37, 110
5, 27464, Note_on_c, 11, 37, 0
5, 27480, Note_on_c, 11, 37, 127
5, 27518, Note_on_c, 11, 37, 0
5, 27540, Note_on_c, 11, 37, 110
5, 27554, Note_on_c, 11, 37, 0
5, 27570, Note_on_c, 11, 37, 110
5, 27586, Note_on_c, 11, 37, 0
5, 27600, Note_on_c, 11, 37, 127
5, 27643, Note_on_c, 11, 37, 0
5, 27660, Note_on_c, 11, 37, 110
5, 27678, Note_on_c, 11, 37, 0
5, 27690, Note_on_c, 11, 37, 110
5, 27704, Note_on_c, 11, 37, 0
5, 27720, Note_on_c, 11, 37, 127
5, 27756, Note_on_c, 11, 37, 0
5, 27780, Note_on_c, 11, 37, 110
5, 27795, Note_on_c, 11, 37, 0
5, 27810, Note_on_c, 11, 37, 110
5, 27824, Note_on_c, 11, 37, 0
5, 27840, Note_on_c, 11, 37, 127
5, 27879, Note_on_c, 11, 37, 0
5, 27900, Note_on_c, 11, 37, 110
5, 27916, Note_on_c, 11, 37, 0
5, 27930, Note_on_c, 11, 37, 110
5, 27947, Note_on_c, 11, 37, 0
5, 27960, Note_on_c, 11, 37, 127
5, 27998, Note_on_c, 11, 37, 0
5, 28020, Note_on_c, 11, 37, 110
5, 28034, Note_on_c, 11, 37, 0
5, 28050, Note_on_c, 11, 37, 110
5, 28072, Note_on_c, 11, 37, 0
5, 28080, Note_on_c, 11, 35, 127
5, 28133, Note_on_c, 11, 35, 0
5, 28140, Note_on_c, 11, 35, 110
5, 28183, Note_on_c, 11, 35, 0
5, 28260, Note_on_c, 11, 37, 110
5, 28357, Note_on_c, 11, 37, 0
5, 28380, Note_on_c, 11, 37, 110
5, 28396, Note_on_c, 11, 37, 0
5, 28410, Note_on_c, 11, 37, 110
5, 28425, Note_on_c, 11, 37, 0
5, 28440, Note_on_c, 11, 37, 127
5, 28478, Note_on_c, 11, 37, 0
5, 28500, Note_on_c, 11, 37, 110
5, 28514, Note_on_c, 11, 37, 0
5, 28530, Note_on_c, 11, 37, 110
5, 28546, Note_on_c, 11, 37, 0
5, 28560, Note_on_c, 11, 37, 127
5, 28597, Note_on_c, 11, 37, 0
5, 28620, Note_on_c, 11, 37, 110
5, 28636, Note_on_c, 11, 37, 0
5, 28650, Note_on_c, 11, 37, 110
5, 28665, Note_on_c, 11, 37, 0
5, 28680, Note_on_c, 11, 37, 127
5, 28714, Note_on_c, 11, 37, 0
5, 28740, Note_on_c, 11, 37, 110
5, 28756, Note_on_c, 11, 37, 0
5, 28770, Note_on_c, 11, 37, 110
5, 28785, Note_on_c, 11, 37, 0
5, 28800, Note_on_c, 11, 37, 127
5, 28835, Note_on_c, 11, 37, 0
5, 28860, Note_on_c, 11, 37, 110
5, 28874, Note_on_c, 11, 37, 0
5, 28890, Note_on_c, 11, 37, 110
5, 28903, Note_on_c, 11, 37, 0
5, 28920, Note_on_c, 11, 37, 127
5, 28957, Note_on_c, 11, 37, 0
5, 28980, Note_on_c, 11, 37, 110
5, 28993, Note_on_c, 11, 37, 0
5, 29010, Note_on_c, 11, 37, 110
5, 29024, Note_on_c, 11, 37, 0
5, 29040, Note_on_c, 11, 35, 127
5, 29089, Note_on_c, 11, 35, 0
5, 29100, Note_on_c, 11, 35, 110
5, 29156, Note_on_c, 11, 35, 0
5, 29220, Note_on_c, 11, 30, 110
5, 29274, Note_on_c, 11, 30, 0
5, 29280, Note_on_c, 11, 30, 127
5, 29330, Note_on_c, 11, 30, 0
5, 29340, Note_on_c, 11, 30, 110
5, 29353, Note_on_c, 11, 30, 0
5, 29370, Note_on_c, 11, 30, 110
5, 29384, Note_on_c, 11, 30, 0
5, 29400, Note_on_c, 11, 30, 127
5, 29438, Note_on_c, 11, 30, 0
5, 29460, Note_on_c, 11, 30, 110
5, 29475, Note_on_c, 11, 30, 0
5, 29490, Note_on_c, 11, 30, 110
5, 29505, Note_on_c, 11, 30, 0
5, 29520, Note_on_c, 11, 30, 127
5, 29558, Note_on_c, 11, 30, 0
5, 29580, Note_on_c, 11, 30, 110
5, 29596, Note_on_c, 11, 30, 0
5, 29610, Note_on_c, 11, 30, 110
5, 29624, Note_on_c, 11, 30, 0
5, 29640, Note_on_c, 11, 30, 127
5, 29678, Note_on_c, 11, 30, 0
5, 29700, Note_on_c, 11, 30, 110
5, 29715, Note_on_c, 11, 30, 0
5, 29730, Note_on_c, 11, 30, 110
5, 29744, Note_on_c, 11, 30, 0
5, 29760, Note_on_c, 11, 30, 127
5, 29799, Note_on_c, 11, 30, 0
5, 29820, Note_on_c, 11, 30, 110
5, 29836, Note_on_c, 11, 30, 0
5, 29850, Note_on_c, 11, 30, 110
5, 29868, Note_on_c, 11, 30, 0
5, 29880, Note_on_c, 11, 30, 127
5, 29913, Note_on_c, 11, 30, 0
5, 29940, Note_on_c, 11, 30, 110
5, 29951, Note_on_c, 11, 30, 0
5, 29970, Note_on_c, 11, 30, 110
5, 30000, Note_on_c, 11, 35, 127
5, 30005, Note_on_c, 11, 30, 0
5, 30041, Note_on_c, 11, 35, 0
5, 30060, Note_on_c, 11, 35, 110
5, 30110, Note_on_c, 11, 35, 0
5, 30180, Note_on_c, 11, 28, 110
5, 30268, Note_on_c, 11, 28, 0
5, 30300, Note_on_c, 11, 28, 110
5, 30314, Note_on_c, 11, 28, 0
5, 30330, Note_on_c, 11, 28, 110
5, 30342, Note_on_c, 11, 28, 0
5, 30360, Note_on_c, 11, 28, 127
5, 30399, Note_on_c, 11, 28, 0
5, 30420, Note_on_c, 11, 28, 110
5, 30434, Note_on_c, 11, 28, 0
5, 30450, Note_on_c, 11, 28, 110
5, 30462, Note_on_c, 11, 28, 0
5, 30480, Note_on_c, 11, 28, 127
5, 30523, Note_on_c, 11, 28, 0
5, 30540, Note_on_c, 11, 28, 110
5, 30553, Note_on_c, 11, 28, 0
5, 30570, Note_on_c, 11, 28, 110
5, 30585, Note_on_c, 11, 28, 0
5, 30600, Note_on_c, 11, 28, 127
5, 30649, Note_on_c, 11, 28, 0
5, 30660, Note_on_c, 11, 28, 110
5, 30673, Note_on_c, 11, 28, 0
5, 30690, Note_on_c, 11, 28, 110
5, 30704, Note_on_c, 11, 28, 0
5, 30720, Note_on_c, 11, 28, 127
5, 30771, Note_on_c, 11, 28, 0
5, 30780, Note_on_c, 11, 30, 110
5, 30831, Note_on_c, 11, 30, 0
5, 30900, Note_on_c, 11, 30, 110
5, 31130, Note_on_c, 11, 30, 0
5, 31140, Note_on_c, 11, 30, 110
5, 31154, Note_on_c, 11, 30, 0
5, 31170, Note_on_c, 11, 30, 110
5, 31200, Note_on_c, 11, 30, 0
5, 31200, Note_on_c, 11, 35, 127
5, 31233, Note_on_c, 11, 35, 0
5, 31260, Note_on_c, 11, 35, 110
5, 31276, Note_on_c, 11, 35, 0
5, 31290, Note_on_c, 11, 35, 110
5, 31304, Note_on_c, 11, 35, 0
5, 31320, Note_on_c, 11, 35, 127
5, 31359, Note_on_c, 11, 35, 0
5, 31380, Note_on_c, 11, 35, 110
5, 31395, Note_on_c, 11, 35, 0
5, 31410, Note_on_c, 11, 35, 110
5, 31426, Note_on_c, 11, 35, 0
5, 31440, Note_on_c, 11, 35, 127
5, 31474, Note_on_c, 11, 35, 0
5, 31500, Note_on_c, 11, 35, 110
5, 31515, Note_on_c, 11, 35, 0
5, 31530, Note_on_c, 11, 35, 110
5, 31546, Note_on_c, 11, 35, 0
5, 31560, Note_on_c, 11, 35, 127
5, 31593, Note_on_c, 11, 35, 0
5, 31620, Note_on_c, 11, 35, 110
5, 31634, Note_on_c, 11, 35, 0
5, 31650, Note_on_c, 11, 35, 110
5, 31678, Note_on_c, 11, 35, 0
5, 31680, Note_on_c, 11, 33, 127
5, 31710, Note_on_c, 11, 33, 0
5, 31740, Note_on_c, 11, 33, 110
5, 31753, Note_on_c, 11, 33, 0
5, 31770, Note_on_c, 11, 33, 110
5, 31784, Note_on_c, 11, 33, 0
5, 31800, Note_on_c, 11, 33, 127
5, 31827, Note_on_c, 11, 33, 0
5, 31860, Note_on_c, 11, 33, 110
5, 31875, Note_on_c, 11, 33, 0
5, 31890, Note_on_c, 11, 33, 110
5, 31905, Note_on_c, 11, 33, 0
5, 31920, Note_on_c, 11, 33, 127
5, 31942, Note_on_c, 11, 33, 0
5, 31980, Note_on_c, 11, 33, 110
5, 31997, Note_on_c, 11, 33, 0
5, 32010, Note_on_c, 11, 33, 110
5, 32025, Note_on_c, 11, 33, 0
5, 32040, Note_on_c, 11, 33, 127
5, 32070, Note_on_c, 11, 33, 0
5, 32100, Note_on_c, 11, 33, 110
5, 32113, Note_on_c, 11, 33, 0
5, 32130, Note_on_c, 11, 33, 110
5, 32157, Note_on_c, 11, 33, 0
5, 32160, Note_on_c, 11, 32, 127
5, 32187, Note_on_c, 11, 32, 0
5, 32220, Note_on_c, 11, 32, 110
5, 32234, Note_on_c, 11, 32, 0
5, 32250, Note_on_c, 11, 32, 110
5, 32278, Note_on_c, 11, 32, 0
5, 32280, Note_on_c, 11, 35, 127
5, 32309, Note_on_c, 11, 35, 0
5, 32340, Note_on_c, 11, 35, 110
5, 32353, Note_on_c, 11, 35, 0
5, 32370, Note_on_c, 11, 35, 110
5, 32400, Note_on_c, 11, 39, 127
5, 32408, Note_on_c, 11, 35, 0
5, 32432, Note_on_c, 11, 39, 0
5, 32460, Note_on_c, 11, 39, 110
5, 32476, Note_on_c, 11, 39, 0
5, 32490, Note_on_c, 11, 39, 110
5, 32520, Note_on_c, 11, 35, 127
5, 32525, Note_on_c, 11, 39, 0
5, 32547, Note_on_c, 11, 35, 0
5, 32580, Note_on_c, 11, 35, 110
5, 32595, Note_on_c, 11, 35, 0
5, 32610, Note_on_c, 11, 35, 110
5, 32640, Note_on_c, 11, 37, 127
5, 32644, Note_on_c, 11, 35, 0
5, 32678, Note_on_c, 11, 37, 0
5, 32700, Note_on_c, 11, 37, 110
5, 32715, Note_on_c, 11, 37, 0
5, 32730, Note_on_c, 11, 37, 110
5, 32747, Note_on_c, 11, 37, 0
5, 32760, Note_on_c, 11, 37, 127
5, 32794, Note_on_c, 11, 37, 0
5, 32820, Note_on_c, 11, 37, 110
5, 32836, Note_on_c, 11, 37, 0
5, 32850, Note_on_c, 11, 37, 110
5, 32875, Note_on_c, 11, 37, 0
5, 32880, Note_on_c, 11, 29, 127
5, 32909, Note_on_c, 11, 29, 0
5, 32940, Note_on_c, 11, 29, 110
5, 32954, Note_on_c, 11, 29, 0
5, 32970, Note_on_c, 11, 29, 110
5, 32982, Note_on_c, 11, 29, 0
5, 33000, Note_on_c, 11, 29, 127
5, 33032, Note_on_c, 11, 29, 0
5, 33060, Note_on_c, 11, 29, 110
5, 33088, Note_on_c, 11, 29, 0
5, 33090, Note_on_c, 11, 32, 110
5, 33115, Note_on_c, 11, 32, 0
5, 33120, Note_on_c, 11, 30, 127
5, 33154, Note_on_c, 11, 30, 0
5, 33180, Note_on_c, 11, 30, 110
5, 33195, Note_on_c, 11, 30, 0
5, 33210, Note_on_c, 11, 30, 110
5, 33223, Note_on_c, 11, 30, 0
5, 33240, Note_on_c, 11, 30, 127
5, 33273, Note_on_c, 11, 30, 0
5, 33300, Note_on_c, 11, 30, 110
5, 33312, Note_on_c, 11, 30, 0
5, 33330, Note_on_c, 11, 30, 110
5, 33346, Note_on_c, 11, 30, 0
5, 33360, Note_on_c, 11, 30, 127
5, 33391, Note_on_c, 11, 30, 0
5, 33420, Note_on_c, 11, 30, 110
5, 33434, Note_on_c, 11, 30, 0
5, 33450, Note_on_c, 11, 30, 110
5, 33465, Note_on_c, 11, 30, 0
5, 33480, Note_on_c, 11, 30, 127
5, 33516, Note_on_c, 11, 30, 0
5, 33540, Note_on_c, 11, 30, 110
5, 33554, Note_on_c, 11, 30, 0
5, 33570, Note_on_c, 11, 30, 110
5, 33594, Note_on_c, 11, 30, 0
5, 33600, Note_on_c, 11, 32, 127
5, 33630, Note_on_c, 11, 32, 0
5, 33660, Note_on_c, 11, 32, 110
5, 33675, Note_on_c, 11, 32, 0
5, 33690, Note_on_c, 11, 32, 110
5, 33706, Note_on_c, 11, 32, 0
5, 33720, Note_on_c, 11, 32, 127
5, 33749, Note_on_c, 11, 32, 0
5, 33780, Note_on_c, 11, 32, 110
5, 33792, Note_on_c, 11, 32, 0
5, 33810, Note_on_c, 11, 32, 110
5, 33821, Note_on_c, 11, 32, 0
5, 33840, Note_on_c, 11, 32, 127
5, 33865, Note_on_c, 11, 32, 0
5, 33900, Note_on_c, 11, 32, 110
5, 33913, Note_on_c, 11, 32, 0
5, 33930, Note_on_c, 11, 32, 110
5, 33943, Note_on_c, 11, 32, 0
5, 33960, Note_on_c, 11, 32, 127
5, 33984, Note_on_c, 11, 32, 0
5, 34020, Note_on_c, 11, 32, 110
5, 34047, Note_on_c, 11, 32, 0
5, 34050, Note_on_c, 11, 35, 110
5, 34080, Note_on_c, 11, 37, 127
5, 34083, Note_on_c, 11, 35, 0
5, 34120, Note_on_c, 11, 37, 0
5, 34140, Note_on_c, 11, 37, 110
5, 34152, Note_on_c, 11, 37, 0
5, 34170, Note_on_c, 11, 37, 110
5, 34184, Note_on_c, 11, 37, 0
5, 34200, Note_on_c, 11, 37, 127
5, 34235, Note_on_c, 11, 37, 0
5, 34260, Note_on_c, 11, 37, 110
5, 34277, Note_on_c, 11, 37, 0
5, 34290, Note_on_c, 11, 37, 110
5, 34305, Note_on_c, 11, 37, 0
5, 34320, Note_on_c, 11, 37, 127
5, 34346, Note_on_c, 11, 37, 0
5, 34380, Note_on_c, 11, 37, 110
5, 34396, Note_on_c, 11, 37, 0
5, 34410, Note_on_c, 11, 37, 110
5, 34424, Note_on_c, 11, 37, 0
5, 34440, Note_on_c, 11, 37, 127
5, 34460, Note_on_c, 11, 37, 0
5, 34500, Note_on_c, 11, 37, 110
5, 34530, Note_on_c, 11, 35, 110
5, 34534, Note_on_c, 11, 37, 0
5, 34560, Note_on_c, 11, 37, 127
5, 34566, Note_on_c, 11, 35, 0
5, 34596, Note_on_c, 11, 37, 0
5, 34620, Note_on_c, 11, 37, 110
5, 34634, Note_on_c, 11, 37, 0
5, 34650, Note_on_c, 11, 37, 110
5, 34663, Note_on_c, 11, 37, 0
5, 34680, Note_on_c, 11, 37, 127
5, 34708, Note_on_c, 11, 37, 0
5, 34740, Note_on_c, 11, 37, 110
5, 34756, Note_on_c, 11, 37, 0
5, 34770, Note_on_c, 11, 37, 110
5, 34784, Note_on_c, 11, 37, 0
5, 34800, Note_on_c, 11, 37, 127
5, 34838, Note_on_c, 11, 37, 0
5, 34860, Note_on_c, 11, 37, 110
5, 34876, Note_on_c, 11, 37, 0
5, 34890, Note_on_c, 11, 37, 110
5, 34903, Note_on_c, 11, 37, 0
5, 34920, Note_on_c, 11, 37, 127
5, 34956, Note_on_c, 11, 37, 0
5, 34980, Note_on_c, 11, 32, 110
5, 35005, Note_on_c, 11, 32, 0
5, 35010, Note_on_c, 11, 34, 110
5, 35040, Note_on_c, 11, 35, 127
5, 35050, Note_on_c, 11, 34, 0
5, 35072, Note_on_c, 11, 35, 0
5, 35100, Note_on_c, 11, 35, 110
5, 35116, Note_on_c, 11, 35, 0
5, 35130, Note_on_c, 11, 35, 110
5, 35148, Note_on_c, 11, 35, 0
5, 35160, Note_on_c, 11, 35, 127
5, 35187, Note_on_c, 11, 35, 0
5, 35220, Note_on_c, 11, 35, 110
5, 35235, Note_on_c, 11, 35, 0
5, 35250, Note_on_c, 11, 35, 110
5, 35265, Note_on_c, 11, 35, 0
5, 35280, Note_on_c, 11, 35, 127
5, 35319, Note_on_c, 11, 35, 0
5, 35340, Note_on_c, 11, 35, 110
5, 35356, Note_on_c, 11, 35, 0
5, 35370, Note_on_c, 11, 35, 110
5, 35385, Note_on_c, 11, 35, 0
5, 35400, Note_on_c, 11, 35, 127
5, 35431, Note_on_c, 11, 35, 0
5, 35460, Note_on_c, 11, 35, 110
5, 35475, Note_on_c, 11, 35, 0
5, 35490, Note_on_c, 11, 35, 110
5, 35520, Note_on_c, 11, 35, 0
5, 35520, Note_on_c, 11, 33, 127
5, 35548, Note_on_c, 11, 33, 0
5, 35580, Note_on_c, 11, 33, 110
5, 35592, Note_on_c, 11, 33, 0
5, 35610, Note_on_c, 11, 33, 110
5, 35621, Note_on_c, 11, 33, 0
5, 35640, Note_on_c, 11, 33, 127
5, 35670, Note_on_c, 11, 33, 0
5, 35700, Note_on_c, 11, 33, 110
5, 35713, Note_on_c, 11, 33, 0
5, 35730, Note_on_c, 11, 33, 110
5, 35745, Note_on_c, 11, 33, 0
5, 35760, Note_on_c, 11, 33, 127
5, 35790, Note_on_c, 11, 33, 0
5, 35820, Note_on_c, 11, 33, 110
5, 35836, Note_on_c, 11, 33, 0
5, 35850, Note_on_c, 11, 33, 110
5, 35867, Note_on_c, 11, 33, 0
5, 35880, Note_on_c, 11, 33, 127
5, 35911, Note_on_c, 11, 33, 0
5, 35940, Note_on_c, 11, 33, 110
5, 35956, Note_on_c, 11, 33, 0
5, 35970, Note_on_c, 11, 33, 110
5, 35993, Note_on_c, 11, 33, 0
5, 36000, Note_on_c, 11, 32, 127
5, 36022, Note_on_c, 11, 32, 0
5, 36060, Note_on_c, 11, 32, 110
5, 36075, Note_on_c, 11, 32, 0
5, 36090, Note_on_c, 11, 32, 110
5, 36119, Note_on_c, 11, 32, 0
5, 36120, Note_on_c, 11, 35, 127
5, 36150, Note_on_c, 11, 35, 0
5, 36180, Note_on_c, 11, 35, 110
5, 36197, Note_on_c, 11, 35, 0
5, 36210, Note_on_c, 11, 35, 110
5, 36240, Note_on_c, 11, 39, 127
5, 36245, Note_on_c, 11, 35, 0
5, 36264, Note_on_c, 11, 39, 0
5, 36300, Note_on_c, 11, 39, 110
5, 36316, Note_on_c, 11, 39, 0
5, 36330, Note_on_c, 11, 39, 110
5, 36360, Note_on_c, 11, 35, 127
5, 36366, Note_on_c, 11, 39, 0
5, 36383, Note_on_c, 11, 35, 0
5, 36420, Note_on_c, 11, 35, 110
5, 36434, Note_on_c, 11, 35, 0
5, 36450, Note_on_c, 11, 35, 110
5, 36480, Note_on_c, 11, 37, 127
5, 36485, Note_on_c, 11, 35, 0
5, 36508, Note_on_c, 11, 37, 0
5, 36540, Note_on_c, 11, 37, 110
5, 36556, Note_on_c, 11, 37, 0
5, 36570, Note_on_c, 11, 37, 110
5, 36585, Note_on_c, 11, 37, 0
5, 36600, Note_on_c, 11, 37, 127
5, 36636, Note_on_c, 11, 37, 0
5, 36660, Note_on_c, 11, 37, 110
5, 36676, Note_on_c, 11, 37, 0
5, 36690, Note_on_c, 11, 37, 110
5, 36715, Note_on_c, 11, 37, 0
5, 36720, Note_on_c, 11, 29, 127
5, 36755, Note_on_c, 11, 29, 0
5, 36780, Note_on_c, 11, 29, 110
5, 36794, Note_on_c, 11, 29, 0
5, 36810, Note_on_c, 11, 29, 110
5, 36822, Note_on_c, 11, 29, 0
5, 36840, Note_on_c, 11, 29, 127
5, 36874, Note_on_c, 11, 29, 0
5, 36900, Note_on_c, 11, 29, 110
5, 36929, Note_on_c, 11, 29, 0
5, 36930, Note_on_c, 11, 32, 110
5, 36960, Note_on_c, 11, 30, 127
5, 36963, Note_on_c, 11, 32, 0
5, 36995, Note_on_c, 11, 30, 0
5, 37020, Note_on_c, 11, 30, 110
5, 37035, Note_on_c, 11, 30, 0
5, 37050, Note_on_c, 11, 30, 110
5, 37063, Note_on_c, 11, 30, 0
5, 37080, Note_on_c, 11, 30, 127
5, 37107, Note_on_c, 11, 30, 0
5, 37140, Note_on_c, 11, 30, 110
5, 37153, Note_on_c, 11, 30, 0
5, 37170, Note_on_c, 11, 30, 110
5, 37183, Note_on_c, 11, 30, 0
5, 37200, Note_on_c, 11, 30, 127
5, 37227, Note_on_c, 11, 30, 0
5, 37260, Note_on_c, 11, 30, 110
5, 37274, Note_on_c, 11, 30, 0
5, 37290, Note_on_c, 11, 30, 110
5, 37304, Note_on_c, 11, 30, 0
5, 37320, Note_on_c, 11, 30, 127
5, 37351, Note_on_c, 11, 30, 0
5, 37380, Note_on_c, 11, 30, 110
5, 37394, Note_on_c, 11, 30, 0
5, 37410, Note_on_c, 11, 30, 110
5, 37427, Note_on_c, 11, 30, 0
5, 37440, Note_on_c, 11, 32, 127
5, 37470, Note_on_c, 11, 32, 0
5, 37500, Note_on_c, 11, 32, 110
5, 37515, Note_on_c, 11, 32, 0
5, 37530, Note_on_c, 11, 32, 110
5, 37558, Note_on_c, 11, 32, 0
5, 37560, Note_on_c, 11, 35, 127
5, 37591, Note_on_c, 11, 35, 0
5, 37620, Note_on_c, 11, 35, 110
5, 37635, Note_on_c, 11, 35, 0
5, 37650, Note_on_c, 11, 35, 110
5, 37680, Note_on_c, 11, 39, 127
5, 37684, Note_on_c, 11, 35, 0
5, 37710, Note_on_c, 11, 39, 0
5, 37740, Note_on_c, 11, 39, 110
5, 37756, Note_on_c, 11, 39, 0
5, 37770, Note_on_c, 11, 39, 110
5, 37800, Note_on_c, 11, 35, 127
5, 37802, Note_on_c, 11, 39, 0
5, 37828, Note_on_c, 11, 35, 0
5, 37860, Note_on_c, 11, 35, 110
5, 37875, Note_on_c, 11, 35, 0
5, 37890, Note_on_c, 11, 35, 110
5, 37920, Note_on_c, 11, 37, 127
5, 37927, Note_on_c, 11, 35, 0
5, 37964, Note_on_c, 11, 37, 0
5, 37980, Note_on_c, 11, 37, 110
5, 37995, Note_on_c, 11, 37, 0
5, 38010, Note_on_c, 11, 37, 110
5, 38026, Note_on_c, 11, 37, 0
5, 38040, Note_on_c, 11, 37, 127
5, 38079, Note_on_c, 11, 37, 0
5, 38100, Note_on_c, 11, 37, 110
5, 38115, Note_on_c, 11, 37, 0
5, 38130, Note_on_c, 11, 37, 110
5, 38147, Note_on_c, 11, 37, 0
5, 38160, Note_on_c, 11, 37, 127
5, 38192, Note_on_c, 11, 37, 0
5, 38220, Note_on_c, 11, 37, 110
5, 38235, Note_on_c, 11, 37, 0
5, 38250, Note_on_c, 11, 37, 110
5, 38265, Note_on_c, 11, 37, 0
5, 38280, Note_on_c, 11, 37, 127
5, 38308, Note_on_c, 11, 37, 0
5, 38340, Note_on_c, 11, 37, 110
5, 38370, Note_on_c, 11, 37, 0
5, 38370, Note_on_c, 11, 35, 110
5, 38400, Note_on_c, 11, 37, 127
5, 38412, Note_on_c, 11, 35, 0
5, 38434, Note_on_c, 11, 37, 0
5, 38460, Note_on_c, 11, 37, 110
5, 38474, Note_on_c, 11, 37, 0
5, 38490, Note_on_c, 11, 37, 110
5, 38509, Note_on_c, 11, 37, 0
5, 38520, Note_on_c, 11, 37, 127
5, 38561, Note_on_c, 11, 37, 0
5, 38580, Note_on_c, 11, 37, 110
5, 38595, Note_on_c, 11, 37, 0
5, 38610, Note_on_c, 11, 37, 110
5, 38625, Note_on_c, 11, 37, 0
5, 38640, Note_on_c, 11, 37, 127
5, 38670, Note_on_c, 11, 39, 110
5, 38682, Note_on_c, 11, 37, 0
5, 38700, Note_on_c, 11, 37, 110
5, 38712, Note_on_c, 11, 39, 0
5, 38715, Note_on_c, 11, 37, 0
5, 38730, Note_on_c, 11, 44, 110
5, 38746, Note_on_c, 11, 44, 0
5, 38760, Note_on_c, 11, 49, 127
5, 38790, Note_on_c, 11, 51, 110
5, 38805, Note_on_c, 11, 51, 0
5, 38805, Note_on_c, 11, 49, 0
5, 38820, Note_on_c, 11, 49, 110
5, 38835, Note_on_c, 11, 49, 0
5, 38850, Note_on_c, 11, 37, 110
5, 38866, Note_on_c, 11, 37, 0
5, 38880, Note_on_c, 11, 34, 127
5, 38912, Note_on_c, 11, 34, 0
5, 38940, Note_on_c, 11, 34, 110
5, 38953, Note_on_c, 11, 34, 0
5, 38970, Note_on_c, 11, 34, 110
5, 38985, Note_on_c, 11, 34, 0
5, 39000, Note_on_c, 11, 34, 127
5, 39034, Note_on_c, 11, 34, 0
5, 39060, Note_on_c, 11, 34, 110
5, 39073, Note_on_c, 11, 34, 0
5, 39090, Note_on_c, 11, 34, 110
5, 39104, Note_on_c, 11, 34, 0
5, 39120, Note_on_c, 11, 34, 127
5, 39149, Note_on_c, 11, 34, 0
5, 39180, Note_on_c, 11, 34, 110
5, 39194, Note_on_c, 11, 34, 0
5, 39210, Note_on_c, 11, 34, 110
5, 39223, Note_on_c, 11, 34, 0
5, 39240, Note_on_c, 11, 34, 127
5, 39266, Note_on_c, 11, 34, 0
5, 39300, Note_on_c, 11, 34, 110
5, 39313, Note_on_c, 11, 34, 0
5, 39330, Note_on_c, 11, 34, 110
5, 39358, Note_on_c, 11, 34, 0
5, 39360, Note_on_c, 11, 29, 127
5, 39392, Note_on_c, 11, 29, 0
5, 39420, Note_on_c, 11, 29, 110
5, 39433, Note_on_c, 11, 29, 0
5, 39450, Note_on_c, 11, 29, 110
5, 39464, Note_on_c, 11, 29, 0
5, 39480, Note_on_c, 11, 29, 127
5, 39509, Note_on_c, 11, 29, 0
5, 39540, Note_on_c, 11, 29, 110
5, 39564, Note_on_c, 11, 29, 0
5, 39570, Note_on_c, 11, 27, 110
5, 39600, Note_on_c, 11, 29, 127
5, 39604, Note_on_c, 11, 27, 0
5, 39632, Note_on_c, 11, 29, 0
5, 39660, Note_on_c, 11, 29, 110
5, 39672, Note_on_c, 11, 29, 0
5, 39690, Note_on_c, 11, 29, 110
5, 39703, Note_on_c, 11, 29, 0
5, 39720, Note_on_c, 11, 29, 127
5, 39758, Note_on_c, 11, 29, 0
5, 39780, Note_on_c, 11, 27, 110
5, 39810, Note_on_c, 11, 29, 110
5, 39813, Note_on_c, 11, 27, 0
5, 39840, Note_on_c, 11, 30, 127
5, 39843, Note_on_c, 11, 29, 0
5, 39875, Note_on_c, 11, 30, 0
5, 39900, Note_on_c, 11, 30, 110
5, 39913, Note_on_c, 11, 30, 0
5, 39930, Note_on_c, 11, 30, 110
5, 39945, Note_on_c, 11, 30, 0
5, 39960, Note_on_c, 11, 30, 127
5, 39997, Note_on_c, 11, 30, 0
5, 40020, Note_on_c, 11, 30, 110
5, 40035, Note_on_c, 11, 30, 0
5, 40050, Note_on_c, 11, 30, 110
5, 40067, Note_on_c, 11, 30, 0
5, 40080, Note_on_c, 11, 30, 127
5, 40114, Note_on_c, 11, 30, 0
5, 40140, Note_on_c, 11, 30, 110
5, 40154, Note_on_c, 11, 30, 0
5, 40170, Note_on_c, 11, 30, 110
5, 40186, Note_on_c, 11, 30, 0
5, 40200, Note_on_c, 11, 30, 127
5, 40235, Note_on_c, 11, 30, 0
5, 40260, Note_on_c, 11, 30, 110
5, 40274, Note_on_c, 11, 30, 0
5, 40290, Note_on_c, 11, 30, 110
5, 40320, Note_on_c, 11, 32, 127
5, 40328, Note_on_c, 11, 30, 0
5, 40360, Note_on_c, 11, 32, 0
5, 40380, Note_on_c, 11, 32, 110
5, 40395, Note_on_c, 11, 32, 0
5, 40410, Note_on_c, 11, 32, 110
5, 40425, Note_on_c, 11, 32, 0
5, 40440, Note_on_c, 11, 32, 127
5, 40477, Note_on_c, 11, 32, 0
5, 40500, Note_on_c, 11, 32, 110
5, 40517, Note_on_c, 11, 32, 0
5, 40530, Note_on_c, 11, 32, 110
5, 40545, Note_on_c, 11, 32, 0
5, 40560, Note_on_c, 11, 32, 127
5, 40588, Note_on_c, 11, 32, 0
5, 40620, Note_on_c, 11, 32, 110
5, 40635, Note_on_c, 11, 32, 0
5, 40650, Note_on_c, 11, 32, 110
5, 40666, Note_on_c, 11, 32, 0
5, 40680, Note_on_c, 11, 32, 127
5, 40709, Note_on_c, 11, 32, 0
5, 40740, Note_on_c, 11, 32, 110
5, 40752, Note_on_c, 11, 32, 0
5, 40770, Note_on_c, 11, 32, 110
5, 40800, Note_on_c, 11, 35, 127
5, 40803, Note_on_c, 11, 32, 0
5, 40843, Note_on_c, 11, 35, 0
5, 40860, Note_on_c, 11, 35, 110
5, 40873, Note_on_c, 11, 35, 0
5, 40890, Note_on_c, 11, 35, 110
5, 40903, Note_on_c, 11, 35, 0
5, 40920, Note_on_c, 11, 35, 127
5, 40951, Note_on_c, 11, 35, 0
5, 40980, Note_on_c, 11, 35, 110
5, 40993, Note_on_c, 11, 35, 0
5, 41010, Note_on_c, 11, 35, 110
5, 41024, Note_on_c, 11, 35, 0
5, 41040, Note_on_c, 11, 35, 127
5, 41083, Note_on_c, 11, 35, 0
5, 41100, Note_on_c, 11, 35, 110
5, 41117, Note_on_c, 11, 35, 0
5, 41130, Note_on_c, 11, 35, 110
5, 41144, Note_on_c, 11, 35, 0
5, 41160, Note_on_c, 11, 35, 127
5, 41206, Note_on_c, 11, 35, 0
5, 41220, Note_on_c, 11, 35, 110
5, 41234, Note_on_c, 11, 35, 0
5, 41250, Note_on_c, 11, 35, 110
5, 41280, Note_on_c, 11, 34, 127
5, 41284, Note_on_c, 11, 35, 0
5, 41325, Note_on_c, 11, 34, 0
5, 41340, Note_on_c, 11, 34, 110
5, 41354, Note_on_c, 11, 34, 0
5, 41370, Note_on_c, 11, 34, 110
5, 41383, Note_on_c, 11, 34, 0
5, 41400, Note_on_c, 11, 34, 127
5, 41435, Note_on_c, 11, 34, 0
5, 41460, Note_on_c, 11, 34, 110
5, 41475, Note_on_c, 11, 34, 0
5, 41490, Note_on_c, 11, 34, 110
5, 41507, Note_on_c, 11, 34, 0
5, 41520, Note_on_c, 11, 34, 127
5, 41562, Note_on_c, 11, 34, 0
5, 41580, Note_on_c, 11, 34, 110
5, 41593, Note_on_c, 11, 34, 0
5, 41610, Note_on_c, 11, 34, 110
5, 41628, Note_on_c, 11, 34, 0
5, 41640, Note_on_c, 11, 34, 127
5, 41675, Note_on_c, 11, 34, 0
5, 41700, Note_on_c, 11, 34, 110
5, 41714, Note_on_c, 11, 34, 0
5, 41730, Note_on_c, 11, 34, 110
5, 41755, Note_on_c, 11, 34, 0
5, 41760, Note_on_c, 11, 27, 127
5, 41807, Note_on_c, 11, 27, 0
5, 41820, Note_on_c, 11, 27, 110
5, 41834, Note_on_c, 11, 27, 0
5, 41850, Note_on_c, 11, 27, 110
5, 41866, Note_on_c, 11, 27, 0
5, 41880, Note_on_c, 11, 27, 127
5, 41917, Note_on_c, 11, 27, 0
5, 41940, Note_on_c, 11, 27, 110
5, 41954, Note_on_c, 11, 27, 0
5, 41970, Note_on_c, 11, 27, 110
5, 41986, Note_on_c, 11, 27, 0
5, 42000, Note_on_c, 11, 27, 127
5, 42038, Note_on_c, 11, 27, 0
5, 42060, Note_on_c, 11, 27, 110
5, 42074, Note_on_c, 11, 27, 0
5, 42090, Note_on_c, 11, 27, 110
5, 42105, Note_on_c, 11, 27, 0
5, 42120, Note_on_c, 11, 27, 127
5, 42151, Note_on_c, 11, 27, 0
5, 42180, Note_on_c, 11, 27, 110
5, 42205, Note_on_c, 11, 27, 0
5, 42210, Note_on_c, 11, 25, 110
5, 42240, Note_on_c, 11, 27, 127
5, 42243, Note_on_c, 11, 25, 0
5, 42274, Note_on_c, 11, 27, 0
5, 42300, Note_on_c, 11, 27, 110
5, 42315, Note_on_c, 11, 27, 0
5, 42330, Note_on_c, 11, 27, 110
5, 42345, Note_on_c, 11, 27, 0
5, 42360, Note_on_c, 11, 27, 127
5, 42392, Note_on_c, 11, 27, 0
5, 42420, Note_on_c, 11, 27, 110
5, 42435, Note_on_c, 11, 27, 0
5, 42450, Note_on_c, 11, 27, 110
5, 42465, Note_on_c, 11, 27, 0
5, 42480, Note_on_c, 11, 27, 127
5, 42510, Note_on_c, 11, 27, 0
5, 42540, Note_on_c, 11, 27, 110
5, 42553, Note_on_c, 11, 27, 0
5, 42570, Note_on_c, 11, 27, 110
5, 42585, Note_on_c, 11, 27, 0
5, 42600, Note_on_c, 11, 27, 127
5, 42630, Note_on_c, 11, 27, 0
5, 42660, Note_on_c, 11, 27, 110
5, 42674, Note_on_c, 11, 27, 0
5, 42690, Note_on_c, 11, 27, 110
5, 42718, Note_on_c, 11, 27, 0
5, 42720, Note_on_c, 11, 34, 127
5, 42760, Note_on_c, 11, 34, 0
5, 42780, Note_on_c, 11, 34, 110
5, 42795, Note_on_c, 11, 34, 0
5, 42810, Note_on_c, 11, 34, 110
5, 42824, Note_on_c, 11, 34, 0
5, 42840, Note_on_c, 11, 34, 127
5, 42874, Note_on_c, 11, 34, 0
5, 42900, Note_on_c, 11, 34, 110
5, 42915, Note_on_c, 11, 34, 0
5, 42930, Note_on_c, 11, 34, 110
5, 42945, Note_on_c, 11, 34, 0
5, 42960, Note_on_c, 11, 34, 127
5, 42989, Note_on_c, 11, 34, 0
5, 43020, Note_on_c, 11, 34, 110
5, 43034, Note_on_c, 11, 34, 0
5, 43050, Note_on_c, 11, 34, 110
5, 43065, Note_on_c, 11, 34, 0
5, 43080, Note_on_c, 11, 34, 127
5, 43110, Note_on_c, 11, 34, 0
5, 43140, Note_on_c, 11, 34, 110
5, 43152, Note_on_c, 11, 34, 0
5, 43170, Note_on_c, 11, 34, 110
5, 43200, Note_on_c, 11, 34, 0
5, 43200, Note_on_c, 11, 29, 127
5, 43240, Note_on_c, 11, 29, 0
5, 43260, Note_on_c, 11, 29, 110
5, 43290, Note_on_c, 11, 29, 0
5, 43290, Note_on_c, 11, 27, 110
5, 43319, Note_on_c, 11, 27, 0
5, 43320, Note_on_c, 11, 29, 127
5, 43352, Note_on_c, 11, 29, 0
5, 43380, Note_on_c, 11, 29, 110
5, 43394, Note_on_c, 11, 29, 0
5, 43410, Note_on_c, 11, 29, 110
5, 43424, Note_on_c, 11, 29, 0
5, 43440, Note_on_c, 11, 29, 127
5, 43469, Note_on_c, 11, 29, 0
5, 43500, Note_on_c, 11, 29, 110
5, 43530, Note_on_c, 11, 27, 110
5, 43536, Note_on_c, 11, 29, 0
5, 43560, Note_on_c, 11, 29, 127
5, 43564, Note_on_c, 11, 27, 0
5, 43610, Note_on_c, 11, 29, 0
5, 43620, Note_on_c, 11, 27, 110
5, 43650, Note_on_c, 11, 29, 110
5, 43651, Note_on_c, 11, 27, 0
5, 43680, Note_on_c, 11, 30, 127
5, 43682, Note_on_c, 11, 29, 0
5, 43718, Note_on_c, 11, 30, 0
5, 43740, Note_on_c, 11, 30, 110
5, 43753, Note_on_c, 11, 30, 0
5, 43770, Note_on_c, 11, 30, 110
5, 43785, Note_on_c, 11, 30, 0
5, 43800, Note_on_c, 11, 30, 127
5, 43836, Note_on_c, 11, 30, 0
5, 43860, Note_on_c, 11, 30, 110
5, 43874, Note_on_c, 11, 30, 0
5, 43890, Note_on_c, 11, 30, 110
5, 43903, Note_on_c, 11, 30, 0
5, 43920, Note_on_c, 11, 30, 127
5, 43957, Note_on_c, 11, 30, 0
5, 43980, Note_on_c, 11, 30, 110
5, 43995, Note_on_c, 11, 30, 0
5, 44010, Note_on_c, 11, 30, 110
5, 44027, Note_on_c, 11, 30, 0
5, 44040, Note_on_c, 11, 30, 127
5, 44068, Note_on_c, 11, 30, 0
5, 44100, Note_on_c, 11, 30, 110
5, 44115, Note_on_c, 11, 30, 0
5, 44130, Note_on_c, 11, 30, 110
5, 44160, Note_on_c, 11, 32, 127
5, 44165, Note_on_c, 11, 30, 0
5, 44203, Note_on_c, 11, 32, 0
5, 44220, Note_on_c, 11, 32, 110
5, 44234, Note_on_c, 11, 32, 0
5, 44250, Note_on_c, 11, 32, 110
5, 44263, Note_on_c, 11, 32, 0
5, 44280, Note_on_c, 11, 32, 127
5, 44316, Note_on_c, 11, 32, 0
5, 44340, Note_on_c, 11, 32, 110
5, 44353, Note_on_c, 11, 32, 0
5, 44370, Note_on_c, 11, 32, 110
5, 44385, Note_on_c, 11, 32, 0
5, 44400, Note_on_c, 11, 32, 127
5, 44432, Note_on_c, 11, 32, 0
5, 44460, Note_on_c, 11, 32, 110
5, 44472, Note_on_c, 11, 32, 0
5, 44490, Note_on_c, 11, 32, 110
5, 44504, Note_on_c, 11, 32, 0
5, 44520, Note_on_c, 11, 32, 127
5, 44548, Note_on_c, 11, 32, 0
5, 44580, Note_on_c, 11, 32, 110
5, 44593, Note_on_c, 11, 32, 0
5, 44610, Note_on_c, 11, 32, 110
5, 44640, Note_on_c, 11, 33, 127
5, 44645, Note_on_c, 11, 32, 0
5, 44684, Note_on_c, 11, 33, 0
5, 44700, Note_on_c, 11, 33, 110
5, 44713, Note_on_c, 11, 33, 0
5, 44730, Note_on_c, 11, 33, 110
5, 44744, Note_on_c, 11, 33, 0
5, 44760, Note_on_c, 11, 33, 127
5, 44791, Note_on_c, 11, 33, 0
5, 44820, Note_on_c, 11, 33, 110
5, 44835, Note_on_c, 11, 33, 0
5, 44850, Note_on_c, 11, 33, 110
5, 44865, Note_on_c, 11, 33, 0
5, 44880, Note_on_c, 11, 33, 127
5, 44915, Note_on_c, 11, 33, 0
5, 44940, Note_on_c, 11, 33, 110
5, 44954, Note_on_c, 11, 33, 0
5, 44970, Note_on_c, 11, 33, 110
5, 44986, Note_on_c, 11, 33, 0
5, 45000, Note_on_c, 11, 33, 127
5, 45029, Note_on_c, 11, 33, 0
5, 45060, Note_on_c, 11, 33, 110
5, 45074, Note_on_c, 11, 33, 0
5, 45090, Note_on_c, 11, 33, 110
5, 45120, Note_on_c, 11, 32, 127
5, 45124, Note_on_c, 11, 33, 0
5, 45164, Note_on_c, 11, 32, 0
5, 45180, Note_on_c, 11, 32, 110
5, 45195, Note_on_c, 11, 32, 0
5, 45210, Note_on_c, 11, 32, 110
5, 45224, Note_on_c, 11, 32, 0
5, 45240, Note_on_c, 11, 32, 127
5, 45275, Note_on_c, 11, 32, 0
5, 45300, Note_on_c, 11, 32, 110
5, 45313, Note_on_c, 11, 32, 0
5, 45330, Note_on_c, 11, 32, 110
5, 45344, Note_on_c, 11, 32, 0
5, 45360, Note_on_c, 11, 32, 127
5, 45398, Note_on_c, 11, 32, 0
5, 45420, Note_on_c, 11, 32, 110
5, 45435, Note_on_c, 11, 32, 0
5, 45450, Note_on_c, 11, 32, 110
5, 45464, Note_on_c, 11, 32, 0
5, 45480, Note_on_c, 11, 32, 127
5, 45509, Note_on_c, 11, 32, 0
5, 45540, Note_on_c, 11, 32, 110
5, 45553, Note_on_c, 11, 32, 0
5, 45570, Note_on_c, 11, 32, 110
5, 45600, Note_on_c, 11, 37, 127
5, 45607, Note_on_c, 11, 32, 0
5, 45640, Note_on_c, 11, 37, 0
5, 45660, Note_on_c, 11, 37, 110
5, 45672, Note_on_c, 11, 37, 0
5, 45690, Note_on_c, 11, 37, 110
5, 45703, Note_on_c, 11, 37, 0
5, 45720, Note_on_c, 11, 37, 127
5, 45760, Note_on_c, 11, 37, 0
5, 45780, Note_on_c, 11, 37, 110
5, 45793, Note_on_c, 11, 37, 0
5, 45810, Note_on_c, 11, 37, 110
5, 45826, Note_on_c, 11, 37, 0
5, 45840, Note_on_c, 11, 37, 127
5, 45878, Note_on_c, 11, 37, 0
5, 45900, Note_on_c, 11, 37, 110
5, 45914, Note_on_c, 11, 37, 0
5, 45930, Note_on_c, 11, 37, 110
5, 45945, Note_on_c, 11, 37, 0
5, 45960, Note_on_c, 11, 37, 127
5, 46004, Note_on_c, 11, 37, 0
5, 46020, Note_on_c, 11, 37, 110
5, 46068, Note_on_c, 11, 37, 0
5, 46080, Note_on_c, 11, 34, 127
5, 46712, Note_on_c, 11, 34, 0
5, 47040, Note_on_c, 11, 35, 127
5, 47073, Note_on_c, 11, 35, 0
5, 47100, Note_on_c, 11, 35, 110
5, 47116, Note_on_c, 11, 35, 0
5, 47130, Note_on_c, 11, 35, 110
5, 47144, Note_on_c, 11, 35, 0
5, 47160, Note_on_c, 11, 35, 127
5, 47199, Note_on_c, 11, 35, 0
5, 47220, Note_on_c, 11, 35, 110
5, 47235, Note_on_c, 11, 35, 0
5, 47250, Note_on_c, 11, 35, 110
5, 47266, Note_on_c, 11, 35, 0
5, 47280, Note_on_c, 11, 35, 127
5, 47314, Note_on_c, 11, 35, 0
5, 47340, Note_on_c, 11, 35, 110
5, 47355, Note_on_c, 11, 35, 0
5, 47370, Note_on_c, 11, 35, 110
5, 47386, Note_on_c, 11, 35, 0
5, 47400, Note_on_c, 11, 35, 127
5, 47433, Note_on_c, 11, 35, 0
5, 47460, Note_on_c, 11, 35, 110
5, 47474, Note_on_c, 11, 35, 0
5, 47490, Note_on_c, 11, 35, 110
5, 47518, Note_on_c, 11, 35, 0
5, 47520, Note_on_c, 11, 33, 127
5, 47550, Note_on_c, 11, 33, 0
5, 47580, Note_on_c, 11, 33, 110
5, 47593, Note_on_c, 11, 33, 0
5, 47610, Note_on_c, 11, 33, 110
5, 47624, Note_on_c, 11, 33, 0
5, 47640, Note_on_c, 11, 33, 127
5, 47667, Note_on_c, 11, 33, 0
5, 47700, Note_on_c, 11, 33, 110
5, 47715, Note_on_c, 11, 33, 0
5, 47730, Note_on_c, 11, 33, 110
5, 47745, Note_on_c, 11, 33, 0
5, 47760, Note_on_c, 11, 33, 127
5, 47782, Note_on_c, 11, 33, 0
5, 47820, Note_on_c, 11, 33, 110
5, 47837, Note_on_c, 11, 33, 0
5, 47850, Note_on_c, 11, 33, 110
5, 47865, Note_on_c, 11, 33, 0
5, 47880, Note_on_c, 11, 33, 127
5, 47910, Note_on_c, 11, 33, 0
5, 47940, Note_on_c, 11, 33, 110
5, 47953, Note_on_c, 11, 33, 0
5, 47970, Note_on_c, 11, 33, 110
5, 47997, Note_on_c, 11, 33, 0
5, 48000, Note_on_c, 11, 32, 127
5, 48027, Note_on_c, 11, 32, 0
5, 48060, Note_on_c, 11, 32, 110
5, 48074, Note_on_c, 11, 32, 0
5, 48090, Note_on_c, 11, 32, 110
5, 48118, Note_on_c, 11, 32, 0
5, 48120, Note_on_c, 11, 35, 127
5, 48149, Note_on_c, 11, 35, 0
5, 48180, Note_on_c, 11, 35, 110
5, 48193, Note_on_c, 11, 35, 0
5, 48210, Note_on_c, 11, 35, 110
5, 48240, Note_on_c, 11, 39, 127
5, 48248, Note_on_c, 11, 35, 0
5, 48272, Note_on_c, 11, 39, 0
5, 48300, Note_on_c, 11, 39, 110
5, 48316, Note_on_c, 11, 39, 0
5, 48330, Note_on_c, 11, 39, 110
5, 48360, Note_on_c, 11, 35, 127
5, 48365, Note_on_c, 11, 39, 0
5, 48387, Note_on_c, 11, 35, 0
5, 48420, Note_on_c, 11, 35, 110
5, 48435, Note_on_c, 11, 35, 0
5, 48450, Note_on_c, 11, 35, 110
5, 48480, Note_on_c, 11, 37, 127
5, 48484, Note_on_c, 11, 35, 0
5, 48518, Note_on_c, 11, 37, 0
5, 48540, Note_on_c, 11, 37, 110
5, 48555, Note_on_c, 11, 37, 0
5, 48570, Note_on_c, 11, 37, 110
5, 48587, Note_on_c, 11, 37, 0
5, 48600, Note_on_c, 11, 37, 127
5, 48634, Note_on_c, 11, 37, 0
5, 48660, Note_on_c, 11, 37, 110
5, 48676, Note_on_c, 11, 37, 0
5, 48690, Note_on_c, 11, 37, 110
5, 48715, Note_on_c, 11, 37, 0
5, 48720, Note_on_c, 11, 29, 127
5, 48749, Note_on_c, 11, 29, 0
5, 48780, Note_on_c, 11, 29, 110
5, 48794, Note_on_c, 11, 29, 0
5, 48810, Note_on_c, 11, 29, 110
5, 48822, Note_on_c, 11, 29, 0
5, 48840, Note_on_c, 11, 29, 127
5, 48872, Note_on_c, 11, 29, 0
5, 48900, Note_on_c, 11, 29, 110
5, 48928, Note_on_c, 11, 29, 0
5, 48930, Note_on_c, 11, 32, 110
5, 48955, Note_on_c, 11, 32, 0
5, 48960, Note_on_c, 11, 30, 127
5, 48994, Note_on_c, 11, 30, 0
5, 49020, Note_on_c, 11, 30, 110
5, 49035, Note_on_c, 11, 30, 0
5, 49050, Note_on_c, 11, 30, 110
5, 49063, Note_on_c, 11, 30, 0
5, 49080, Note_on_c, 11, 30, 127
5, 49113, Note_on_c, 11, 30, 0
5, 49140, Note_on_c, 11, 30, 110
5, 49152, Note_on_c, 11, 30, 0
5, 49170, Note_on_c, 11, 30, 110
5, 49186, Note_on_c, 11, 30, 0
5, 49200, Note_on_c, 11, 30, 127
5, 49231, Note_on_c, 11, 30, 0
5, 49260, Note_on_c, 11, 30, 110
5, 49274, Note_on_c, 11, 30, 0
5, 49290, Note_on_c, 11, 30, 110
5, 49305, Note_on_c, 11, 30, 0
5, 49320, Note_on_c, 11, 30, 127
5, 49356, Note_on_c, 11, 30, 0
5, 49380, Note_on_c, 11, 30, 110
5, 49394, Note_on_c, 11, 30, 0
5, 49410, Note_on_c, 11, 30, 110
5, 49434, Note_on_c, 11, 30, 0
5, 49440, Note_on_c, 11, 32, 127
5, 49470, Note_on_c, 11, 32, 0
5, 49500, Note_on_c, 11, 32, 110
5, 49515, Note_on_c, 11, 32, 0
5, 49530, Note_on_c, 11, 32, 110
5, 49546, Note_on_c, 11, 32, 0
5, 49560, Note_on_c, 11, 32, 127
5, 49589, Note_on_c, 11, 32, 0
5, 49620, Note_on_c, 11, 32, 110
5, 49632, Note_on_c, 11, 32, 0
5, 49650, Note_on_c, 11, 32, 110
5, 49661, Note_on_c, 11, 32, 0
5, 49680, Note_on_c, 11, 32, 127
5, 49705, Note_on_c, 11, 32, 0
5, 49740, Note_on_c, 11, 32, 110
5, 49753, Note_on_c, 11, 32, 0
5, 49770, Note_on_c, 11, 32, 110
5, 49783, Note_on_c, 11, 32, 0
5, 49800, Note_on_c, 11, 32, 127
5, 49824, Note_on_c, 11, 32, 0
5, 49860, Note_on_c, 11, 32, 110
5, 49887, Note_on_c, 11, 32, 0
5, 49890, Note_on_c, 11, 35, 110
5, 49920, Note_on_c, 11, 37, 127
5, 49923, Note_on_c, 11, 35, 0
5, 49960, Note_on_c, 11, 37, 0
5, 49980, Note_on_c, 11, 37, 110
5, 49992, Note_on_c, 11, 37, 0
5, 50010, Note_on_c, 11, 37, 110
5, 50024, Note_on_c, 11, 37, 0
5, 50040, Note_on_c, 11, 37, 127
5, 50075, Note_on_c, 11, 37, 0
5, 50100, Note_on_c, 11, 37, 110
5, 50117, Note_on_c, 11, 37, 0
5, 50130, Note_on_c, 11, 37, 110
5, 50145, Note_on_c, 11, 37, 0
5, 50160, Note_on_c, 11, 37, 127
5, 50186, Note_on_c, 11, 37, 0
5, 50220, Note_on_c, 11, 37, 110
5, 50236, Note_on_c, 11, 37, 0
5, 50250, Note_on_c, 11, 37, 110
5, 50264, Note_on_c, 11, 37, 0
5, 50280, Note_on_c, 11, 37, 127
5, 50300, Note_on_c, 11, 37, 0
5, 50340, Note_on_c, 11, 37, 110
5, 50370, Note_on_c, 11, 35, 110
5, 50374, Note_on_c, 11, 37, 0
5, 50400, Note_on_c, 11, 37, 127
5, 50406, Note_on_c, 11, 35, 0
5, 50436, Note_on_c, 11, 37, 0
5, 50460, Note_on_c, 11, 37, 110
5, 50474, Note_on_c, 11, 37, 0
5, 50490, Note_on_c, 11, 37, 110
5, 50503, Note_on_c, 11, 37, 0
5, 50520, Note_on_c, 11, 37, 127
5, 50548, Note_on_c, 11, 37, 0
5, 50580, Note_on_c, 11, 37, 110
5, 50596, Note_on_c, 11, 37, 0
5, 50610, Note_on_c, 11, 37, 110
5, 50624, Note_on_c, 11, 37, 0
5, 50640, Note_on_c, 11, 37, 127
5, 50678, Note_on_c, 11, 37, 0
5, 50700, Note_on_c, 11, 37, 110
5, 50716, Note_on_c, 11, 37, 0
5, 50730, Note_on_c, 11, 37, 110
5, 50743, Note_on_c, 11, 37, 0
5, 50760, Note_on_c, 11, 37, 127
5, 50796, Note_on_c, 11, 37, 0
5, 50820, Note_on_c, 11, 32, 110
5, 50845, Note_on_c, 11, 32, 0
5, 50850, Note_on_c, 11, 34, 110
5, 50880, Note_on_c, 11, 35, 127
5, 50890, Note_on_c, 11, 34, 0
5, 50912, Note_on_c, 11, 35, 0
5, 50940, Note_on_c, 11, 35, 110
5, 50956, Note_on_c, 11, 35, 0
5, 50970, Note_on_c, 11, 35, 110
5, 50988, Note_on_c, 11, 35, 0
5, 51000, Note_on_c, 11, 35, 127
5, 51027, Note_on_c, 11, 35, 0
5, 51060, Note_on_c, 11, 35, 110
5, 51075, Note_on_c, 11, 35, 0
5, 51090, Note_on_c, 11, 35, 110
5, 51105, Note_on_c, 11, 35, 0
5, 51120, Note_on_c, 11, 35, 127
5, 51159, Note_on_c, 11, 35, 0
5, 51180, Note_on_c, 11, 35, 110
5, 51196, Note_on_c, 11, 35, 0
5, 51210, Note_on_c, 11, 35, 110
5, 51225, Note_on_c, 11, 35, 0
5, 51240, Note_on_c, 11, 35, 127
5, 51271, Note_on_c, 11, 35, 0
5, 51300, Note_on_c, 11, 35, 110
5, 51315, Note_on_c, 11, 35, 0
5, 51330, Note_on_c, 11, 35, 110
5, 51360, Note_on_c, 11, 35, 0
5, 51360, Note_on_c, 11, 33, 127
5, 51388, Note_on_c, 11, 33, 0
5, 51420, Note_on_c, 11, 33, 110
5, 51432, Note_on_c, 11, 33, 0
5, 51450, Note_on_c, 11, 33, 110
5, 51461, Note_on_c, 11, 33, 0
5, 51480, Note_on_c, 11, 33, 127
5, 51510, Note_on_c, 11, 33, 0
5, 51540, Note_on_c, 11, 33, 110
5, 51553, Note_on_c, 11, 33, 0
5, 51570, Note_on_c, 11, 33, 110
5, 51585, Note_on_c, 11, 33, 0
5, 51600, Note_on_c, 11, 33, 127
5, 51630, Note_on_c, 11, 33, 0
5, 51660, Note_on_c, 11, 33, 110
5, 51676, Note_on_c, 11, 33, 0
5, 51690, Note_on_c, 11, 33, 110
5, 51707, Note_on_c, 11, 33, 0
5, 51720, Note_on_c, 11, 33, 127
5, 51751, Note_on_c, 11, 33, 0
5, 51780, Note_on_c, 11, 33, 110
5, 51796, Note_on_c, 11, 33, 0
5, 51810, Note_on_c, 11, 33, 110
5, 51833, Note_on_c, 11, 33, 0
5, 51840, Note_on_c, 11, 32, 127
5, 51862, Note_on_c, 11, 32, 0
5, 51900, Note_on_c, 11, 32, 110
5, 51915, Note_on_c, 11, 32, 0
5, 51930, Note_on_c, 11, 32, 110
5, 51959, Note_on_c, 11, 32, 0
5, 51960, Note_on_c, 11, 35, 127
5, 51990, Note_on_c, 11, 35, 0
5, 52020, Note_on_c, 11, 35, 110
5, 52037, Note_on_c, 11, 35, 0
5, 52050, Note_on_c, 11, 35, 110
5, 52080, Note_on_c, 11, 39, 127
5, 52085, Note_on_c, 11, 35, 0
5, 52104, Note_on_c, 11, 39, 0
5, 52140, Note_on_c, 11, 39, 110
5, 52156, Note_on_c, 11, 39, 0
5, 52170, Note_on_c, 11, 39, 110
5, 52200, Note_on_c, 11, 35, 127
5, 52206, Note_on_c, 11, 39, 0
5, 52223, Note_on_c, 11, 35, 0
5, 52260, Note_on_c, 11, 35, 110
5, 52274, Note_on_c, 11, 35, 0
5, 52290, Note_on_c, 11, 35, 110
5, 52320, Note_on_c, 11, 37, 127
5, 52325, Note_on_c, 11, 35, 0
5, 52348, Note_on_c, 11, 37, 0
5, 52380, Note_on_c, 11, 37, 110
5, 52396, Note_on_c, 11, 37, 0
5, 52410, Note_on_c, 11, 37, 110
5, 52425, Note_on_c, 11, 37, 0
5, 52440, Note_on_c, 11, 37, 127
5, 52476, Note_on_c, 11, 37, 0
5, 52500, Note_on_c, 11, 37, 110
5, 52516, Note_on_c, 11, 37, 0
5, 52530, Note_on_c, 11, 37, 110
5, 52555, Note_on_c, 11, 37, 0
5, 52560, Note_on_c, 11, 29, 127
5, 52595, Note_on_c, 11, 29, 0
5, 52620, Note_on_c, 11, 29, 110
5, 52634, Note_on_c, 11, 29, 0
5, 52650, Note_on_c, 11, 29, 110
5, 52662, Note_on_c, 11, 29, 0
5, 52680, Note_on_c, 11, 29, 127
5, 52714, Note_on_c, 11, 29, 0
5, 52740, Note_on_c, 11, 29, 110
5, 52769, Note_on_c, 11, 29, 0
5, 52770, Note_on_c, 11, 32, 110
5, 52800, Note_on_c, 11, 30, 127
5, 52803, Note_on_c, 11, 32, 0
5, 52835, Note_on_c, 11, 30, 0
5, 52860, Note_on_c, 11, 30, 110
5, 52875, Note_on_c, 11, 30, 0
5, 52890, Note_on_c, 11, 30, 110
5, 52903, Note_on_c, 11, 30, 0
5, 52920, Note_on_c, 11, 30, 127
5, 52947, Note_on_c, 11, 30, 0
5, 52980, Note_on_c, 11, 30, 110
5, 52993, Note_on_c, 11, 30, 0
5, 53010, Note_on_c, 11, 30, 110
5, 53023, Note_on_c, 11, 30, 0
5, 53040, Note_on_c, 11, 30, 127
5, 53067, Note_on_c, 11, 30, 0
5, 53100, Note_on_c, 11, 30, 110
5, 53114, Note_on_c, 11, 30, 0
5, 53130, Note_on_c, 11, 30, 110
5, 53144, Note_on_c, 11, 30, 0
5, 53160, Note_on_c, 11, 30, 127
5, 53191, Note_on_c, 11, 30, 0
5, 53220, Note_on_c, 11, 30, 110
5, 53234, Note_on_c, 11, 30, 0
5, 53250, Note_on_c, 11, 30, 110
5, 53267, Note_on_c, 11, 30, 0
5, 53280, Note_on_c, 11, 32, 127
5, 53310, Note_on_c, 11, 32, 0
5, 53340, Note_on_c, 11, 32, 110
5, 53355, Note_on_c, 11, 32, 0
5, 53370, Note_on_c, 11, 32, 110
5, 53398, Note_on_c, 11, 32, 0
5, 53400, Note_on_c, 11, 35, 127
5, 53431, Note_on_c, 11, 35, 0
5, 53460, Note_on_c, 11, 35, 110
5, 53475, Note_on_c, 11, 35, 0
5, 53490, Note_on_c, 11, 35, 110
5, 53520, Note_on_c, 11, 39, 127
5, 53524, Note_on_c, 11, 35, 0
5, 53550, Note_on_c, 11, 39, 0
5, 53580, Note_on_c, 11, 39, 110
5, 53596, Note_on_c, 11, 39, 0
5, 53610, Note_on_c, 11, 39, 110
5, 53640, Note_on_c, 11, 35, 127
5, 53642, Note_on_c, 11, 39, 0
5, 53668, Note_on_c, 11, 35, 0
5, 53700, Note_on_c, 11, 35, 110
5, 53715, Note_on_c, 11, 35, 0
5, 53730, Note_on_c, 11, 35, 110
5, 53760, Note_on_c, 11, 37, 127
5, 53767, Note_on_c, 11, 35, 0
5, 53804, Note_on_c, 11, 37, 0
5, 53820, Note_on_c, 11, 37, 110
5, 53835, Note_on_c, 11, 37, 0
5, 53850, Note_on_c, 11, 37, 110
5, 53866, Note_on_c, 11, 37, 0
5, 53880, Note_on_c, 11, 37, 127
5, 53919, Note_on_c, 11, 37, 0
5, 53940, Note_on_c, 11, 37, 110
5, 53955, Note_on_c, 11, 37, 0
5, 53970, Note_on_c, 11, 37, 110
5, 53987, Note_on_c, 11, 37, 0
5, 54000, Note_on_c, 11, 37, 127
5, 54032, Note_on_c, 11, 37, 0
5, 54060, Note_on_c, 11, 37, 110
5, 54075, Note_on_c, 11, 37, 0
5, 54090, Note_on_c, 11, 37, 110
5, 54105, Note_on_c, 11, 37, 0
5, 54120, Note_on_c, 11, 37, 127
5, 54148, Note_on_c, 11, 37, 0
5, 54180, Note_on_c, 11, 37, 110
5, 54210, Note_on_c, 11, 37, 0
5, 54210, Note_on_c, 11, 35, 110
5, 54240, Note_on_c, 11, 37, 127
5, 54252, Note_on_c, 11, 35, 0
5, 54285, Note_on_c, 11, 37, 0
5, 54300, Note_on_c, 11, 37, 110
5, 54314, Note_on_c, 11, 37, 0
5, 54330, Note_on_c, 11, 37, 110
5, 54349, Note_on_c, 11, 37, 0
5, 54360, Note_on_c, 11, 37, 127
5, 54401, Note_on_c, 11, 37, 0
5, 54420, Note_on_c, 11, 37, 110
5, 54435, Note_on_c, 11, 37, 0
5, 54450, Note_on_c, 11, 37, 110
5, 54466, Note_on_c, 11, 37, 0
5, 54480, Note_on_c, 11, 37, 127
5, 54510, Note_on_c, 11, 39, 110
5, 54522, Note_on_c, 11, 37, 0
5, 54540, Note_on_c, 11, 37, 110
5, 54552, Note_on_c, 11, 39, 0
5, 54555, Note_on_c, 11, 37, 0
5, 54570, Note_on_c, 11, 44, 110
5, 54586, Note_on_c, 11, 44, 0
5, 54600, Note_on_c, 11, 49, 127
5, 54630, Note_on_c, 11, 51, 110
5, 54645, Note_on_c, 11, 51, 0
5, 54645, Note_on_c, 11, 49, 0
5, 54660, Note_on_c, 11, 49, 110
5, 54675, Note_on_c, 11, 49, 0
5, 54690, Note_on_c, 11, 37, 110
5, 54706, Note_on_c, 11, 37, 0
5, 54720, Note_on_c, 11, 35, 127
5, 54753, Note_on_c, 11, 35, 0
5, 54780, Note_on_c, 11, 35, 110
5, 54796, Note_on_c, 11, 35, 0
5, 54810, Note_on_c, 11, 35, 110
5, 54824, Note_on_c, 11, 35, 0
5, 54840, Note_on_c, 11, 35, 127
5, 54879, Note_on_c, 11, 35, 0
5, 54900, Note_on_c, 11, 35, 110
5, 54915, Note_on_c, 11, 35, 0
5, 54930, Note_on_c, 11, 35, 110
5, 54946, Note_on_c, 11, 35, 0
5, 54960, Note_on_c, 11, 35, 127
5, 54994, Note_on_c, 11, 35, 0
5, 55020, Note_on_c, 11, 35, 110
5, 55035, Note_on_c, 11, 35, 0
5, 55050, Note_on_c, 11, 35, 110
5, 55066, Note_on_c, 11, 35, 0
5, 55080, Note_on_c, 11, 35, 127
5, 55113, Note_on_c, 11, 35, 0
5, 55140, Note_on_c, 11, 35, 110
5, 55154, Note_on_c, 11, 35, 0
5, 55170, Note_on_c, 11, 35, 110
5, 55198, Note_on_c, 11, 35, 0
5, 55200, Note_on_c, 11, 33, 127
5, 55230, Note_on_c, 11, 33, 0
5, 55260, Note_on_c, 11, 33, 110
5, 55273, Note_on_c, 11, 33, 0
5, 55290, Note_on_c, 11, 33, 110
5, 55304, Note_on_c, 11, 33, 0
5, 55320, Note_on_c, 11, 33, 127
5, 55347, Note_on_c, 11, 33, 0
5, 55380, Note_on_c, 11, 33, 110
5, 55395, Note_on_c, 11, 33, 0
5, 55410, Note_on_c, 11, 33, 110
5, 55425, Note_on_c, 11, 33, 0
5, 55440, Note_on_c, 11, 33, 127
5, 55462, Note_on_c, 11, 33, 0
5, 55500, Note_on_c, 11, 33, 110
5, 55517, Note_on_c, 11, 33, 0
5, 55530, Note_on_c, 11, 33, 110
5, 55545, Note_on_c, 11, 33, 0
5, 55560, Note_on_c, 11, 33, 127
5, 55590, Note_on_c, 11, 33, 0
5, 55620, Note_on_c, 11, 33, 110
5, 55633, Note_on_c, 11, 33, 0
5, 55650, Note_on_c, 11, 33, 110
5, 55677, Note_on_c, 11, 33, 0
5, 55680, Note_on_c, 11, 32, 127
5, 55707, Note_on_c, 11, 32, 0
5, 55740, Note_on_c, 11, 32, 110
5, 55754, Note_on_c, 11, 32, 0
5, 55770, Note_on_c, 11, 32, 110
5, 55798, Note_on_c, 11, 32, 0
5, 55800, Note_on_c, 11, 35, 127
5, 55829, Note_on_c, 11, 35, 0
5, 55860, Note_on_c, 11, 35, 110
5, 55873, Note_on_c, 11, 35, 0
5, 55890, Note_on_c, 11, 35, 110
5, 55920, Note_on_c, 11, 39, 127
5, 55928, Note_on_c, 11, 35, 0
5, 55952, Note_on_c, 11, 39, 0
5, 55980, Note_on_c, 11, 39, 110
5, 55996, Note_on_c, 11, 39, 0
5, 56010, Note_on_c, 11, 39, 110
5, 56040, Note_on_c, 11, 35, 127
5, 56045, Note_on_c, 11, 39, 0
5, 56067, Note_on_c, 11, 35, 0
5, 56100, Note_on_c, 11, 35, 110
5, 56115, Note_on_c, 11, 35, 0
5, 56130, Note_on_c, 11, 35, 110
5, 56160, Note_on_c, 11, 37, 127
5, 56164, Note_on_c, 11, 35, 0
5, 56198, Note_on_c, 11, 37, 0
5, 56220, Note_on_c, 11, 37, 110
5, 56235, Note_on_c, 11, 37, 0
5, 56250, Note_on_c, 11, 37, 110
5, 56267, Note_on_c, 11, 37, 0
5, 56280, Note_on_c, 11, 37, 127
5, 56314, Note_on_c, 11, 37, 0
5, 56340, Note_on_c, 11, 37, 110
5, 56356, Note_on_c, 11, 37, 0
5, 56370, Note_on_c, 11, 37, 110
5, 56395, Note_on_c, 11, 37, 0
5, 56400, Note_on_c, 11, 29, 127
5, 56429, Note_on_c, 11, 29, 0
5, 56460, Note_on_c, 11, 29, 110
5, 56474, Note_on_c, 11, 29, 0
5, 56490, Note_on_c, 11, 29, 110
5, 56502, Note_on_c, 11, 29, 0
5, 56520, Note_on_c, 11, 29, 127
5, 56552, Note_on_c, 11, 29, 0
5, 56580, Note_on_c, 11, 29, 110
5, 56608, Note_on_c, 11, 29, 0
5, 56610, Note_on_c, 11, 32, 110
5, 56635, Note_on_c, 11, 32, 0
5, 56640, Note_on_c, 11, 30, 127
5, 56674, Note_on_c, 11, 30, 0
5, 56700, Note_on_c, 11, 30, 110
5, 56715, Note_on_c, 11, 30, 0
5, 56730, Note_on_c, 11, 30, 110
5, 56743, Note_on_c, 11, 30, 0
5, 56760, Note_on_c, 11, 30, 127
5, 56793, Note_on_c, 11, 30, 0
5, 56820, Note_on_c, 11, 30, 110
5, 56832, Note_on_c, 11, 30, 0
5, 56850, Note_on_c, 11, 30, 110
5, 56866, Note_on_c, 11, 30, 0
5, 56880, Note_on_c, 11, 30, 127
5, 56911, Note_on_c, 11, 30, 0
5, 56940, Note_on_c, 11, 30, 110
5, 56954, Note_on_c, 11, 30, 0
5, 56970, Note_on_c, 11, 30, 110
5, 56985, Note_on_c, 11, 30, 0
5, 57000, Note_on_c, 11, 30, 127
5, 57036, Note_on_c, 11, 30, 0
5, 57060, Note_on_c, 11, 30, 110
5, 57074, Note_on_c, 11, 30, 0
5, 57090, Note_on_c, 11, 30, 110
5, 57114, Note_on_c, 11, 30, 0
5, 57120, Note_on_c, 11, 32, 127
5, 57150, Note_on_c, 11, 32, 0
5, 57180, Note_on_c, 11, 32, 110
5, 57195, Note_on_c, 11, 32, 0
5, 57210, Note_on_c, 11, 32, 110
5, 57226, Note_on_c, 11, 32, 0
5, 57240, Note_on_c, 11, 32, 127
5, 57269, Note_on_c, 11, 32, 0
5, 57300, Note_on_c, 11, 32, 110
5, 57312, Note_on_c, 11, 32, 0
5, 57330, Note_on_c, 11, 32, 110
5, 57341, Note_on_c, 11, 32, 0
5, 57360, Note_on_c, 11, 32, 127
5, 57385, Note_on_c, 11, 32, 0
5, 57420, Note_on_c, 11, 32, 110
5, 57433, Note_on_c, 11, 32, 0
5, 57450, Note_on_c, 11, 32, 110
5, 57463, Note_on_c, 11, 32, 0
5, 57480, Note_on_c, 11, 32, 127
5, 57504, Note_on_c, 11, 32, 0
5, 57540, Note_on_c, 11, 32, 110
5, 57567, Note_on_c, 11, 32, 0
5, 57570, Note_on_c, 11, 35, 110
5, 57600, Note_on_c, 11, 37, 127
5, 57603, Note_on_c, 11, 35, 0
5, 57640, Note_on_c, 11, 37, 0
5, 57660, Note_on_c, 11, 37, 110
5, 57672, Note_on_c, 11, 37, 0
5, 57690, Note_on_c, 11, 37, 110
5, 57704, Note_on_c, 11, 37, 0
5, 57720, Note_on_c, 11, 37, 127
5, 57755, Note_on_c, 11, 37, 0
5, 57780, Note_on_c, 11, 37, 110
5, 57797, Note_on_c, 11, 37, 0
5, 57810, Note_on_c, 11, 37, 110
5, 57825, Note_on_c, 11, 37, 0
5, 57840, Note_on_c, 11, 37, 127
5, 57866, Note_on_c, 11, 37, 0
5, 57900, Note_on_c, 11, 37, 110
5, 57916, Note_on_c, 11, 37, 0
5, 57930, Note_on_c, 11, 37, 110
5, 57944, Note_on_c, 11, 37, 0
5, 57960, Note_on_c, 11, 37, 127
5, 57980, Note_on_c, 11, 37, 0
5, 58020, Note_on_c, 11, 37, 110
5, 58050, Note_on_c, 11, 35, 110
5, 58054, Note_on_c, 11, 37, 0
5, 58080, Note_on_c, 11, 37, 127
5, 58086, Note_on_c, 11, 35, 0
5, 58116, Note_on_c, 11, 37, 0
5, 58140, Note_on_c, 11, 37, 110
5, 58154, Note_on_c, 11, 37, 0
5, 58170, Note_on_c, 11, 37, 110
5, 58183, Note_on_c, 11, 37, 0
5, 58200, Note_on_c, 11, 37, 127
5, 58228, Note_on_c, 11, 37, 0
5, 58260, Note_on_c, 11, 37, 110
5, 58276, Note_on_c, 11, 37, 0
5, 58290, Note_on_c, 11, 37, 110
5, 58304, Note_on_c, 11, 37, 0
5, 58320, Note_on_c, 11, 37, 127
5, 58358, Note_on_c, 11, 37, 0
5, 58380, Note_on_c, 11, 37, 110
5, 58396, Note_on_c, 11, 37, 0
5, 58410, Note_on_c, 11, 37, 110
5, 58423, Note_on_c, 11, 37, 0
5, 58440, Note_on_c, 11, 37, 127
5, 58476, Note_on_c, 11, 37, 0
5, 58500, Note_on_c, 11, 32, 110
5, 58525, Note_on_c, 11, 32, 0
5, 58530, Note_on_c, 11, 34, 110
5, 58560, Note_on_c, 11, 35, 127
5, 58570, Note_on_c, 11, 34, 0
5, 58592, Note_on_c, 11, 35, 0
5, 58620, Note_on_c, 11, 35, 110
5, 58636, Note_on_c, 11, 35, 0
5, 58650, Note_on_c, 11, 35, 110
5, 58668, Note_on_c, 11, 35, 0
5, 58680, Note_on_c, 11, 35, 127
5, 58707, Note_on_c, 11, 35, 0
5, 58740, Note_on_c, 11, 35, 110
5, 58755, Note_on_c, 11, 35, 0
5, 58770, Note_on_c, 11, 35, 110
5, 58785, Note_on_c, 11, 35, 0
5, 58800, Note_on_c, 11, 35, 127
5, 58839, Note_on_c, 11, 35, 0
5, 58860, Note_on_c, 11, 35, 110
5, 58876, Note_on_c, 11, 35, 0
5, 58890, Note_on_c, 11, 35, 110
5, 58905, Note_on_c, 11, 35, 0
5, 58920, Note_on_c, 11, 35, 127
5, 58951, Note_on_c, 11, 35, 0
5, 58980, Note_on_c, 11, 35, 110
5, 58995, Note_on_c, 11, 35, 0
5, 59010, Note_on_c, 11, 35, 110
5, 59040, Note_on_c, 11, 35, 0
5, 59040, Note_on_c, 11, 33, 127
5, 59068, Note_on_c, 11, 33, 0
5, 59100, Note_on_c, 11, 33, 110
5, 59112, Note_on_c, 11, 33, 0
5, 59130, Note_on_c, 11, 33, 110
5, 59141, Note_on_c, 11, 33, 0
5, 59160, Note_on_c, 11, 33, 127
5, 59190, Note_on_c, 11, 33, 0
5, 59220, Note_on_c, 11, 33, 110
5, 59233, Note_on_c, 11, 33, 0
5, 59250, Note_on_c, 11, 33, 110
5, 59265, Note_on_c, 11, 33, 0
5, 59280, Note_on_c, 11, 33, 127
5, 59310, Note_on_c, 11, 33, 0
5, 59340, Note_on_c, 11, 33, 110
5, 59356, Note_on_c, 11, 33, 0
5, 59370, Note_on_c, 11, 33, 110
5, 59387, Note_on_c, 11, 33, 0
5, 59400, Note_on_c, 11, 33, 127
5, 59431, Note_on_c, 11, 33, 0
5, 59460, Note_on_c, 11, 33, 110
5, 59476, Note_on_c, 11, 33, 0
5, 59490, Note_on_c, 11, 33, 110
5, 59513, Note_on_c, 11, 33, 0
5, 59520, Note_on_c, 11, 32, 127
5, 59542, Note_on_c, 11, 32, 0
5, 59580, Note_on_c, 11, 32, 110
5, 59595, Note_on_c, 11, 32, 0
5, 59610, Note_on_c, 11, 32, 110
5, 59639, Note_on_c, 11, 32, 0
5, 59640, Note_on_c, 11, 35, 127
5, 59670, Note_on_c, 11, 35, 0
5, 59700, Note_on_c, 11, 35, 110
5, 59717, Note_on_c, 11, 35, 0
5, 59730, Note_on_c, 11, 35, 110
5, 59760, Note_on_c, 11, 39, 127
5, 59765, Note_on_c, 11, 35, 0
5, 59784, Note_on_c, 11, 39, 0
5, 59820, Note_on_c, 11, 39, 110
5, 59836, Note_on_c, 11, 39, 0
5, 59850, Note_on_c, 11, 39, 110
5, 59880, Note_on_c, 11, 35, 127
5, 59886, Note_on_c, 11, 39, 0
5, 59903, Note_on_c, 11, 35, 0
5, 59940, Note_on_c, 11, 35, 110
5, 59954, Note_on_c, 11, 35, 0
5, 59970, Note_on_c, 11, 35, 110
5, 60000, Note_on_c, 11, 37, 127
5, 60005, Note_on_c, 11, 35, 0
5, 60028, Note_on_c, 11, 37, 0
5, 60060, Note_on_c, 11, 37, 110
5, 60076, Note_on_c, 11, 37, 0
5, 60090, Note_on_c, 11, 37, 110
5, 60105, Note_on_c, 11, 37, 0
5, 60120, Note_on_c, 11, 37, 127
5, 60156, Note_on_c, 11, 37, 0
5, 60180, Note_on_c, 11, 37, 110
5, 60196, Note_on_c, 11, 37, 0
5, 60210, Note_on_c, 11, 37, 110
5, 60235, Note_on_c, 11, 37, 0
5, 60240, Note_on_c, 11, 29, 127
5, 60275, Note_on_c, 11, 29, 0
5, 60300, Note_on_c, 11, 29, 110
5, 60314, Note_on_c, 11, 29, 0
5, 60330, Note_on_c, 11, 29, 110
5, 60342, Note_on_c, 11, 29, 0
5, 60360, Note_on_c, 11, 29, 127
5, 60394, Note_on_c, 11, 29, 0
5, 60420, Note_on_c, 11, 29, 110
5, 60449, Note_on_c, 11, 29, 0
5, 60450, Note_on_c, 11, 32, 110
5, 60480, Note_on_c, 11, 30, 127
5, 60483, Note_on_c, 11, 32, 0
5, 60515, Note_on_c, 11, 30, 0
5, 60540, Note_on_c, 11, 30, 110
5, 60555, Note_on_c, 11, 30, 0
5, 60570, Note_on_c, 11, 30, 110
5, 60583, Note_on_c, 11, 30, 0
5, 60600, Note_on_c, 11, 30, 127
5, 60627, Note_on_c, 11, 30, 0
5, 60660, Note_on_c, 11, 30, 110
5, 60673, Note_on_c, 11, 30, 0
5, 60690, Note_on_c, 11, 30, 110
5, 60703, Note_on_c, 11, 30, 0
5, 60720, Note_on_c, 11, 30, 127
5, 60747, Note_on_c, 11, 30, 0
5, 60780, Note_on_c, 11, 30, 110
5, 60794, Note_on_c, 11, 30, 0
5, 60810, Note_on_c, 11, 30, 110
5, 60824, Note_on_c, 11, 30, 0
5, 60840, Note_on_c, 11, 30, 127
5, 60871, Note_on_c, 11, 30, 0
5, 60900, Note_on_c, 11, 30, 110
5, 60914, Note_on_c, 11, 30, 0
5, 60930, Note_on_c, 11, 30, 110
5, 60947, Note_on_c, 11, 30, 0
5, 60960, Note_on_c, 11, 32, 127
5, 60990, Note_on_c, 11, 32, 0
5, 61020, Note_on_c, 11, 32, 110
5, 61035, Note_on_c, 11, 32, 0
5, 61050, Note_on_c, 11, 32, 110
5, 61078, Note_on_c, 11, 32, 0
5, 61080, Note_on_c, 11, 35, 127
5, 61111, Note_on_c, 11, 35, 0
5, 61140, Note_on_c, 11, 35, 110
5, 61155, Note_on_c, 11, 35, 0
5, 61170, Note_on_c, 11, 35, 110
5, 61200, Note_on_c, 11, 39, 127
5, 61204, Note_on_c, 11, 35, 0
5, 61230, Note_on_c, 11, 39, 0
5, 61260, Note_on_c, 11, 39, 110
5, 61276, Note_on_c, 11, 39, 0
5, 61290, Note_on_c, 11, 39, 110
5, 61320, Note_on_c, 11, 35, 127
5, 61322, Note_on_c, 11, 39, 0
5, 61348, Note_on_c, 11, 35, 0
5, 61380, Note_on_c, 11, 35, 110
5, 61395, Note_on_c, 11, 35, 0
5, 61410, Note_on_c, 11, 35, 110
5, 61440, Note_on_c, 11, 37, 127
5, 61447, Note_on_c, 11, 35, 0
5, 61484, Note_on_c, 11, 37, 0
5, 61500, Note_on_c, 11, 37, 110
5, 61515, Note_on_c, 11, 37, 0
5, 61530, Note_on_c, 11, 37, 110
5, 61546, Note_on_c, 11, 37, 0
5, 61560, Note_on_c, 11, 37, 127
5, 61599, Note_on_c, 11, 37, 0
5, 61620, Note_on_c, 11, 37, 110
5, 61635, Note_on_c, 11, 37, 0
5, 61650, Note_on_c, 11, 37, 110
5, 61667, Note_on_c, 11, 37, 0
5, 61680, Note_on_c, 11, 37, 127
5, 61712, Note_on_c, 11, 37, 0
5, 61740, Note_on_c, 11, 37, 110
5, 61755, Note_on_c, 11, 37, 0
5, 61770, Note_on_c, 11, 37, 110
5, 61785, Note_on_c, 11, 37, 0
5, 61800, Note_on_c, 11, 37, 127
5, 61828, Note_on_c, 11, 37, 0
5, 61860, Note_on_c, 11, 37, 110
5, 61890, Note_on_c, 11, 37, 0
5, 61890, Note_on_c, 11, 35, 110
5, 61920, Note_on_c, 11, 37, 127
5, 61932, Note_on_c, 11, 35, 0
5, 61965, Note_on_c, 11, 37, 0
5, 61980, Note_on_c, 11, 37, 110
5, 61994, Note_on_c, 11, 37, 0
5, 62010, Note_on_c, 11, 37, 110
5, 62029, Note_on_c, 11, 37, 0
5, 62040, Note_on_c, 11, 37, 127
5, 62081, Note_on_c, 11, 37, 0
5, 62100, Note_on_c, 11, 37, 110
5, 62115, Note_on_c, 11, 37, 0
5, 62130, Note_on_c, 11, 37, 110
5, 62146, Note_on_c, 11, 37, 0
5, 62160, Note_on_c, 11, 37, 127
5, 62190, Note_on_c, 11, 39, 110
5, 62202, Note_on_c, 11, 37, 0
5, 62220, Note_on_c, 11, 37, 110
5, 62232, Note_on_c, 11, 39, 0
5, 62235, Note_on_c, 11, 37, 0
5, 62250, Note_on_c, 11, 44, 110
5, 62266, Note_on_c, 11, 44, 0
5, 62280, Note_on_c, 11, 49, 127
5, 62310, Note_on_c, 11, 51, 110
5, 62325, Note_on_c, 11, 51, 0
5, 62325, Note_on_c, 11, 49, 0
5, 62340, Note_on_c, 11, 49, 110
5, 62355, Note_on_c, 11, 49, 0
5, 62370, Note_on_c, 11, 37, 110
5, 62386, Note_on_c, 11, 37, 0
5, 62400, Note_on_c, 11, 35, 127
5, 62433, Note_on_c, 11, 35, 0
5, 62460, Note_on_c, 11, 35, 110
5, 62476, Note_on_c, 11, 35, 0
5, 62490, Note_on_c, 11, 35, 110
5, 62504, Note_on_c, 11, 35, 0
5, 62520, Note_on_c, 11, 35, 127
5, 62559, Note_on_c, 11, 35, 0
5, 62580, Note_on_c, 11, 35, 110
5, 62595, Note_on_c, 11, 35, 0
5, 62610, Note_on_c, 11, 35, 110
5, 62626, Note_on_c, 11, 35, 0
5, 62640, Note_on_c, 11, 35, 127
5, 62674, Note_on_c, 11, 35, 0
5, 62700, Note_on_c, 11, 35, 110
5, 62715, Note_on_c, 11, 35, 0
5, 62730, Note_on_c, 11, 35, 110
5, 62746, Note_on_c, 11, 35, 0
5, 62760, Note_on_c, 11, 35, 127
5, 62793, Note_on_c, 11, 35, 0
5, 62820, Note_on_c, 11, 35, 110
5, 62834, Note_on_c, 11, 35, 0
5, 62850, Note_on_c, 11, 35, 110
5, 62878, Note_on_c, 11, 35, 0
5, 62880, Note_on_c, 11, 33, 127
5, 62910, Note_on_c, 11, 33, 0
5, 62940, Note_on_c, 11, 33, 110
5, 62953, Note_on_c, 11, 33, 0
5, 62970, Note_on_c, 11, 33, 110
5, 62984, Note_on_c, 11, 33, 0
5, 63000, Note_on_c, 11, 33, 127
5, 63027, Note_on_c, 11, 33, 0
5, 63060, Note_on_c, 11, 33, 110
5, 63075, Note_on_c, 11, 33, 0
5, 63090, Note_on_c, 11, 33, 110
5, 63105, Note_on_c, 11, 33, 0
5, 63120, Note_on_c, 11, 33, 127
5, 63142, Note_on_c, 11, 33, 0
5, 63180, Note_on_c, 11, 33, 110
5, 63197, Note_on_c, 11, 33, 0
5, 63210, Note_on_c, 11, 33, 110
5, 63225, Note_on_c, 11, 33, 0
5, 63240, Note_on_c, 11, 33, 127
5, 63270, Note_on_c, 11, 33, 0
5, 63300, Note_on_c, 11, 33, 110
5, 63313, Note_on_c, 11, 33, 0
5, 63330, Note_on_c, 11, 33, 110
5, 63357, Note_on_c, 11, 33, 0
5, 63360, Note_on_c, 11, 32, 127
5, 63387, Note_on_c, 11, 32, 0
5, 63420, Note_on_c, 11, 32, 110
5, 63434, Note_on_c, 11, 32, 0
5, 63450, Note_on_c, 11, 32, 110
5, 63478, Note_on_c, 11, 32, 0
5, 63480, Note_on_c, 11, 35, 127
5, 63509, Note_on_c, 11, 35, 0
5, 63540, Note_on_c, 11, 35, 110
5, 63553, Note_on_c, 11, 35, 0
5, 63570, Note_on_c, 11, 35, 110
5, 63600, Note_on_c, 11, 39, 127
5, 63608, Note_on_c, 11, 35, 0
5, 63632, Note_on_c, 11, 39, 0
5, 63660, Note_on_c, 11, 39, 110
5, 63676, Note_on_c, 11, 39, 0
5, 63690, Note_on_c, 11, 39, 110
5, 63720, Note_on_c, 11, 35, 127
5, 63725, Note_on_c, 11, 39, 0
5, 63747, Note_on_c, 11, 35, 0
5, 63780, Note_on_c, 11, 35, 110
5, 63795, Note_on_c, 11, 35, 0
5, 63810, Note_on_c, 11, 35, 110
5, 63840, Note_on_c, 11, 37, 127
5, 63844, Note_on_c, 11, 35, 0
5, 63878, Note_on_c, 11, 37, 0
5, 63900, Note_on_c, 11, 37, 110
5, 63915, Note_on_c, 11, 37, 0
5, 63930, Note_on_c, 11, 37, 110
5, 63947, Note_on_c, 11, 37, 0
5, 63960, Note_on_c, 11, 37, 127
5, 63994, Note_on_c, 11, 37, 0
5, 64020, Note_on_c, 11, 37, 110
5, 64036, Note_on_c, 11, 37, 0
5, 64050, Note_on_c, 11, 37, 110
5, 64075, Note_on_c, 11, 37, 0
5, 64080, Note_on_c, 11, 29, 127
5, 64109, Note_on_c, 11, 29, 0
5, 64140, Note_on_c, 11, 29, 110
5, 64154, Note_on_c, 11, 29, 0
5, 64170, Note_on_c, 11, 29, 110
5, 64182, Note_on_c, 11, 29, 0
5, 64200, Note_on_c, 11, 29, 127
5, 64232, Note_on_c, 11, 29, 0
5, 64260, Note_on_c, 11, 29, 110
5, 64288, Note_on_c, 11, 29, 0
5, 64290, Note_on_c, 11, 32, 110
5, 64315, Note_on_c, 11, 32, 0
5, 64320, Note_on_c, 11, 30, 127
5, 64354, Note_on_c, 11, 30, 0
5, 64380, Note_on_c, 11, 30, 110
5, 64395, Note_on_c, 11, 30, 0
5, 64410, Note_on_c, 11, 30, 110
5, 64423, Note_on_c, 11, 30, 0
5, 64440, Note_on_c, 11, 30, 127
5, 64473, Note_on_c, 11, 30, 0
5, 64500, Note_on_c, 11, 30, 110
5, 64512, Note_on_c, 11, 30, 0
5, 64530, Note_on_c, 11, 30, 110
5, 64546, Note_on_c, 11, 30, 0
5, 64560, Note_on_c, 11, 30, 127
5, 64591, Note_on_c, 11, 30, 0
5, 64620, Note_on_c, 11, 30, 110
5, 64634, Note_on_c, 11, 30, 0
5, 64650, Note_on_c, 11, 30, 110
5, 64665, Note_on_c, 11, 30, 0
5, 64680, Note_on_c, 11, 30, 127
5, 64716, Note_on_c, 11, 30, 0
5, 64740, Note_on_c, 11, 30, 110
5, 64754, Note_on_c, 11, 30, 0
5, 64770, Note_on_c, 11, 30, 110
5, 64794, Note_on_c, 11, 30, 0
5, 64800, Note_on_c, 11, 32, 127
5, 64830, Note_on_c, 11, 32, 0
5, 64860, Note_on_c, 11, 32, 110
5, 64875, Note_on_c, 11, 32, 0
5, 64890, Note_on_c, 11, 32, 110
5, 64906, Note_on_c, 11, 32, 0
5, 64920, Note_on_c, 11, 32, 127
5, 64949, Note_on_c, 11, 32, 0
5, 64980, Note_on_c, 11, 32, 110
5, 64992, Note_on_c, 11, 32, 0
5, 65010, Note_on_c, 11, 32, 110
5, 65021, Note_on_c, 11, 32, 0
5, 65040, Note_on_c, 11, 32, 127
5, 65065, Note_on_c, 11, 32, 0
5, 65100, Note_on_c, 11, 32, 110
5, 65113, Note_on_c, 11, 32, 0
5, 65130, Note_on_c, 11, 32, 110
5, 65143, Note_on_c, 11, 32, 0
5, 65160, Note_on_c, 11, 32, 127
5, 65184, Note_on_c, 11, 32, 0
5, 65220, Note_on_c, 11, 32, 110
5, 65247, Note_on_c, 11, 32, 0
5, 65250, Note_on_c, 11, 35, 110
5, 65280, Note_on_c, 11, 37, 127
5, 65283, Note_on_c, 11, 35, 0
5, 65320, Note_on_c, 11, 37, 0
5, 65340, Note_on_c, 11, 37, 110
5, 65352, Note_on_c, 11, 37, 0
5, 65370, Note_on_c, 11, 37, 110
5, 65384, Note_on_c, 11, 37, 0
5, 65400, Note_on_c, 11, 37, 127
5, 65435, Note_on_c, 11, 37, 0
5, 65460, Note_on_c, 11, 37, 110
5, 65477, Note_on_c, 11, 37, 0
5, 65490, Note_on_c, 11, 37, 110
5, 65505, Note_on_c, 11, 37, 0
5, 65520, Note_on_c, 11, 37, 127
5, 65546, Note_on_c, 11, 37, 0
5, 65580, Note_on_c, 11, 37, 110
5, 65596, Note_on_c, 11, 37, 0
5, 65610, Note_on_c, 11, 37, 110
5, 65624, Note_on_c, 11, 37, 0
5, 65640, Note_on_c, 11, 37, 127
5, 65660, Note_on_c, 11, 37, 0
5, 65700, Note_on_c, 11, 37, 110
5, 65730, Note_on_c, 11, 35, 110
5, 65734, Note_on_c, 11, 37, 0
5, 65760, Note_on_c, 11, 37, 127
5, 65766, Note_on_c, 11, 35, 0
5, 65796, Note_on_c, 11, 37, 0
5, 65820, Note_on_c, 11, 37, 110
5, 65834, Note_on_c, 11, 37, 0
5, 65850, Note_on_c, 11, 37, 110
5, 65863, Note_on_c, 11, 37, 0
5, 65880, Note_on_c, 11, 37, 127
5, 65908, Note_on_c, 11, 37, 0
5, 65940, Note_on_c, 11, 37, 110
5, 65956, Note_on_c, 11, 37, 0
5, 65970, Note_on_c, 11, 37, 110
5, 65984, Note_on_c, 11, 37, 0
5, 66000, Note_on_c, 11, 37, 127
5, 66038, Note_on_c, 11, 37, 0
5, 66060, Note_on_c, 11, 37, 110
5, 66076, Note_on_c, 11, 37, 0
5, 66090, Note_on_c, 11, 37, 110
5, 66103, Note_on_c, 11, 37, 0
5, 66120, Note_on_c, 11, 37, 127
5, 66156, Note_on_c, 11, 37, 0
5, 66180, Note_on_c, 11, 32, 110
5, 66205, Note_on_c, 11, 32, 0
5, 66210, Note_on_c, 11, 34, 110
5, 66240, Note_on_c, 11, 35, 127
5, 66250, Note_on_c, 11, 34, 0
5, 66260, Control_c, 11, 7, 89
5, 66270, Control_c, 11, 7, 88
5, 66272, Note_on_c, 11, 35, 0
5, 66300, Note_on_c, 11, 35, 126
5, 66310, Control_c, 11, 7, 87
5, 66316, Note_on_c, 11, 35, 0
5, 66330, Note_on_c, 11, 35, 125
5, 66348, Note_on_c, 11, 35, 0
5, 66350, Control_c, 11, 7, 86
5, 66360, Note_on_c, 11, 35, 124
5, 66387, Note_on_c, 11, 35, 0
5, 66390, Control_c, 11, 7, 85
5, 66420, Note_on_c, 11, 35, 122
5, 66435, Note_on_c, 11, 35, 0
5, 66440, Control_c, 11, 7, 84
5, 66450, Note_on_c, 11, 35, 121
5, 66465, Note_on_c, 11, 35, 0
5, 66480, Control_c, 11, 7, 83
5, 66480, Note_on_c, 11, 35, 120
5, 66519, Note_on_c, 11, 35, 0
5, 66520, Control_c, 11, 7, 82
5, 66540, Note_on_c, 11, 35, 118
5, 66556, Note_on_c, 11, 35, 0
5, 66570, Control_c, 11, 7, 81
5, 66570, Note_on_c, 11, 35, 117
5, 66585, Note_on_c, 11, 35, 0
5, 66600, Note_on_c, 11, 35, 116
5, 66610, Control_c, 11, 7, 80
5, 66631, Note_on_c, 11, 35, 0
5, 66650, Control_c, 11, 7, 79
5, 66660, Note_on_c, 11, 35, 114
5, 66675, Note_on_c, 11, 35, 0
5, 66690, Control_c, 11, 7, 78
5, 66690, Note_on_c, 11, 35, 113
5, 66720, Note_on_c, 11, 35, 0
5, 66720, Note_on_c, 11, 33, 112
5, 66740, Control_c, 11, 7, 77
5, 66748, Note_on_c, 11, 33, 0
5, 66780, Control_c, 11, 7, 76
5, 66780, Note_on_c, 11, 33, 110
5, 66792, Note_on_c, 11, 33, 0
5, 66810, Note_on_c, 11, 33, 109
5, 66820, Control_c, 11, 7, 75
5, 66821, Note_on_c, 11, 33, 0
5, 66840, Note_on_c, 11, 33, 108
5, 66870, Note_on_c, 11, 33, 0
5, 66870, Control_c, 11, 7, 74
5, 66900, Note_on_c, 11, 33, 106
5, 66910, Control_c, 11, 7, 73
5, 66913, Note_on_c, 11, 33, 0
5, 66930, Note_on_c, 11, 33, 105
5, 66945, Note_on_c, 11, 33, 0
5, 66950, Control_c, 11, 7, 72
5, 66960, Note_on_c, 11, 33, 104
5, 66990, Note_on_c, 11, 33, 0
5, 66990, Control_c, 11, 7, 71
5, 67020, Note_on_c, 11, 33, 102
5, 67036, Note_on_c, 11, 33, 0
5, 67040, Control_c, 11, 7, 70
5, 67050, Note_on_c, 11, 33, 101
5, 67067, Note_on_c, 11, 33, 0
5, 67080, Control_c, 11, 7, 69
5, 67080, Note_on_c, 11, 33, 100
5, 67111, Note_on_c, 11, 33, 0
5, 67120, Control_c, 11, 7, 68
5, 67140, Note_on_c, 11, 33, 98
5, 67156, Note_on_c, 11, 33, 0
5, 67170, Control_c, 11, 7, 67
5, 67170, Note_on_c, 11, 33, 97
5, 67193, Note_on_c, 11, 33, 0
5, 67200, Note_on_c, 11, 32, 96
5, 67210, Control_c, 11, 7, 66
5, 67222, Note_on_c, 11, 32, 0
5, 67250, Control_c, 11, 7, 65
5, 67260, Note_on_c, 11, 32, 94
5, 67275, Note_on_c, 11, 32, 0
5, 67290, Note_on_c, 11, 32, 93
5, 67300, Control_c, 11, 7, 64
5, 67319, Note_on_c, 11, 32, 0
5, 67320, Note_on_c, 11, 35, 92
5, 67340, Control_c, 11, 7, 63
5, 67350, Note_on_c, 11, 35, 0
5, 67380, Control_c, 11, 7, 62
5, 67380, Note_on_c, 11, 35, 90
5, 67397, Note_on_c, 11, 35, 0
5, 67410, Note_on_c, 11, 35, 89
5, 67420, Control_c, 11, 7, 61
5, 67440, Note_on_c, 11, 39, 88
5, 67445, Note_on_c, 11, 35, 0
5, 67464, Note_on_c, 11, 39, 0
5, 67470, Control_c, 11, 7, 60
5, 67500, Note_on_c, 11, 39, 86
5, 67510, Control_c, 11, 7, 59
5, 67516, Note_on_c, 11, 39, 0
5, 67530, Note_on_c, 11, 39, 85
5, 67550, Control_c, 11, 7, 58
5, 67560, Note_on_c, 11, 35, 84
5, 67566, Note_on_c, 11, 39, 0
5, 67583, Note_on_c, 11, 35, 0
5, 67600, Control_c, 11, 7, 57
5, 67620, Note_on_c, 11, 35, 82
5, 67634, Note_on_c, 11, 35, 0
5, 67640, Control_c, 11, 7, 56
5, 67650, Note_on_c, 11, 35, 81
5, 67680, Control_c, 11, 7, 55
5, 67680, Note_on_c, 11, 37, 80
5, 67685, Note_on_c, 11, 35, 0
5, 67708, Note_on_c, 11, 37, 0
5, 67720, Control_c, 11, 7, 54
5, 67740, Note_on_c, 11, 37, 78
5, 67756, Note_on_c, 11, 37, 0
5, 67770, Control_c, 11, 7, 53
5, 67770, Note_on_c, 11, 37, 77
5, 67785, Note_on_c, 11, 37, 0
5, 67800, Note_on_c, 11, 37, 76
5, 67810, Control_c, 11, 7, 52
5, 67836, Note_on_c, 11, 37, 0
5, 67850, Control_c, 11, 7, 51
5, 67860, Note_on_c, 11, 37, 74
5, 67876, Note_on_c, 11, 37, 0
5, 67890, Note_on_c, 11, 37, 73
5, 67900, Control_c, 11, 7, 50
5, 67915, Note_on_c, 11, 37, 0
5, 67920, Note_on_c, 11, 29, 72
5, 67940, Control_c, 11, 7, 49
5, 67955, Note_on_c, 11, 29, 0
5, 67980, Control_c, 11, 7, 48
5, 67980, Note_on_c, 11, 29, 70
5, 67994, Note_on_c, 11, 29, 0
5, 68010, Note_on_c, 11, 29, 69
5, 68020, Control_c, 11, 7, 47
5, 68022, Note_on_c, 11, 29, 0
5, 68040, Note_on_c, 11, 29, 68
5, 68070, Control_c, 11, 7, 46
5, 68074, Note_on_c, 11, 29, 0
5, 68100, Note_on_c, 11, 29, 66
5, 68110, Control_c, 11, 7, 45
5, 68129, Note_on_c, 11, 29, 0
5, 68130, Note_on_c, 11, 32, 65
5, 68150, Control_c, 11, 7, 44
5, 68160, Note_on_c, 11, 30, 64
5, 68163, Note_on_c, 11, 32, 0
5, 68195, Note_on_c, 11, 30, 0
5, 68200, Control_c, 11, 7, 43
5, 68220, Note_on_c, 11, 30, 62
5, 68235, Note_on_c, 11, 30, 0
5, 68240, Control_c, 11, 7, 42
5, 68250, Note_on_c, 11, 30, 61
5, 68263, Note_on_c, 11, 30, 0
5, 68280, Control_c, 11, 7, 41
5, 68280, Note_on_c, 11, 30, 60
5, 68307, Note_on_c, 11, 30, 0
5, 68330, Control_c, 11, 7, 40
5, 68340, Note_on_c, 11, 30, 58
5, 68353, Note_on_c, 11, 30, 0
5, 68370, Control_c, 11, 7, 39
5, 68370, Note_on_c, 11, 30, 57
5, 68383, Note_on_c, 11, 30, 0
5, 68400, Note_on_c, 11, 30, 56
5, 68410, Control_c, 11, 7, 38
5, 68427, Note_on_c, 11, 30, 0
5, 68450, Control_c, 11, 7, 37
5, 68460, Note_on_c, 11, 30, 54
5, 68474, Note_on_c, 11, 30, 0
5, 68490, Note_on_c, 11, 30, 53
5, 68500, Control_c, 11, 7, 36
5, 68504, Note_on_c, 11, 30, 0
5, 68520, Note_on_c, 11, 30, 52
5, 68540, Control_c, 11, 7, 35
5, 68551, Note_on_c, 11, 30, 0
5, 68580, Control_c, 11, 7, 34
5, 68580, Note_on_c, 11, 30, 50
5, 68594, Note_on_c, 11, 30, 0
5, 68610, Note_on_c, 11, 30, 49
5, 68627, Note_on_c, 11, 30, 0
5, 68630, Control_c, 11, 7, 33
5, 68640, Note_on_c, 11, 32, 48
5, 68670, Note_on_c, 11, 32, 0
5, 68670, Control_c, 11, 7, 32
5, 68700, Note_on_c, 11, 32, 46
5, 68710, Control_c, 11, 7, 31
5, 68715, Note_on_c, 11, 32, 0
5, 68730, Note_on_c, 11, 32, 45
5, 68750, Control_c, 11, 7, 30
5, 68758, Note_on_c, 11, 32, 0
5, 68760, Note_on_c, 11, 35, 44
5, 68791, Note_on_c, 11, 35, 0
5, 68800, Control_c, 11, 7, 29
5, 68820, Note_on_c, 11, 35, 42
5, 68835, Note_on_c, 11, 35, 0
5, 68840, Control_c, 11, 7, 28
5, 68850, Note_on_c, 11, 35, 41
5, 68880, Control_c, 11, 7, 27
5, 68880, Note_on_c, 11, 39, 40
5, 68884, Note_on_c, 11, 35, 0
5, 68910, Note_on_c, 11, 39, 0
5, 68930, Control_c, 11, 7, 26
5, 68940, Note_on_c, 11, 39, 38
5, 68956, Note_on_c, 11, 39, 0
5, 68970, Control_c, 11, 7, 25
5, 68970, Note_on_c, 11, 39, 37
5, 69000, Note_on_c, 11, 35, 36
5, 69002, Note_on_c, 11, 39, 0
5, 69010, Control_c, 11, 7, 24
5, 69028, Note_on_c, 11, 35, 0
5, 69050, Control_c, 11, 7, 23
5, 69060, Note_on_c, 11, 35, 34
5, 69075, Note_on_c, 11, 35, 0
5, 69090, Note_on_c, 11, 35, 33
5, 69100, Control_c, 11, 7, 22
5, 69120, Note_on_c, 11, 37, 32
5, 69127, Note_on_c, 11, 35, 0
5, 69140, Control_c, 11, 7, 21
5, 69164, Note_on_c, 11, 37, 0
5, 69180, Control_c, 11, 7, 20
5, 69180, Note_on_c, 11, 37, 30
5, 69195, Note_on_c, 11, 37, 0
5, 69210, Note_on_c, 11, 37, 29
5, 69226, Note_on_c, 11, 37, 0
5, 69230, Control_c, 11, 7, 19
5, 69240, Note_on_c, 11, 37, 28
5, 69270, Control_c, 11, 7, 18
5, 69279, Note_on_c, 11, 37, 0
5, 69300, Note_on_c, 11, 37, 26
5, 69310, Control_c, 11, 7, 17
5, 69315, Note_on_c, 11, 37, 0
5, 69330, Note_on_c, 11, 37, 25
5, 69347, Note_on_c, 11, 37, 0
5, 69360, Control_c, 11, 7, 16
5, 69360, Note_on_c, 11, 37, 24
5, 69392, Note_on_c, 11, 37, 0
5, 69400, Control_c, 11, 7, 15
5, 69420, Note_on_c, 11, 37, 22
5, 69435, Note_on_c, 11, 37, 0
5, 69440, Control_c, 11, 7, 14
5, 69450, Note_on_c, 11, 37, 21
5, 69465, Note_on_c, 11, 37, 0
5, 69480, Control_c, 11, 7, 13
5, 69480, Note_on_c, 11, 37, 20
5, 69508, Note_on_c, 11, 37, 0
5, 69530, Control_c, 11, 7, 12
5, 69540, Note_on_c, 11, 37, 18
5, 69570, Note_on_c, 11, 37, 0
5, 69570, Control_c, 11, 7, 11
5, 69570, Note_on_c, 11, 35, 17
5, 69600, Note_on_c, 11, 37, 16
5, 69610, Control_c, 11, 7, 10
5, 69612, Note_on_c, 11, 35, 0
5, 69645, Note_on_c, 11, 37, 0
5, 69660, Control_c, 11, 7, 9
5, 69660, Note_on_c, 11, 37, 14
5, 69674, Note_on_c, 11, 37, 0
5, 69690, Note_on_c, 11, 37, 13
5, 69700, Control_c, 11, 7, 8
5, 69709, Note_on_c, 11, 37, 0
5, 69720, Note_on_c, 11, 37, 12
5, 69740, Control_c, 11, 7, 7
5, 69761, Note_on_c, 11, 37, 0
5, 69780, Control_c, 11, 7, 6
5, 69780, Note_on_c, 11, 37, 10
5, 69795, Note_on_c, 11, 37, 0
5, 69810, Note_on_c, 11, 37, 9
5, 69826, Note_on_c, 11, 37, 0
5, 69830, Control_c, 11, 7, 5
5, 69840, Note_on_c, 11, 37, 8
5, 69870, Control_c, 11, 7, 4
5, 69882, Note_on_c, 11, 37, 0
5, 69900, Note_on_c, 11, 37, 6
5, 69910, Control_c, 11, 7, 3
5, 69915, Note_on_c, 11, 37, 0
5, 69930, Note_on_c, 11, 37, 5
5, 69946, Note_on_c, 11, 37, 0
5, 69960, Control_c, 11, 7, 2
5, 69960, Note_on_c, 11, 37, 4
5, 70000, Control_c, 11, 7, 1
5, 70005, Note_on_c, 11, 37, 0
5, 70020, Note_on_c, 11, 37, 2
5, 70035, Note_on_c, 11, 37, 0
5, 70040, Control_c, 11, 7, 0
5, 70050, Note_on_c, 11, 37, 1
5, 70066, Note_on_c, 11, 37, 0
5, 70066, End_track
6, 0, Start_track
6, 0, MIDI_port, 0
6, 0, Title_t, "Clavinet"
6, 0, Control_c, 1, 0, 56
6, 0, Control_c, 1, 32, 0
6, 0, Program_c, 1, 7
6, 0, Control_c, 1, 7, 90
6, 0, Control_c, 1, 10, 64
6, 0, Control_c, 1, 93, 73
6, 350, Control_c, 1, 93, 78
6, 350, Control_c, 1, 93, 76
6, 360, Control_c, 1, 93, 79
6, 395, Control_c, 1, 93, 81
6, 480, Note_on_c, 1, 35, 99
6, 480, Note_on_c, 1, 63, 99
6, 480, Note_on_c, 1, 59, 110
6, 480, Note_on_c, 1, 47, 106
6, 480, Note_on_c, 1, 54, 95
6, 510, Note_on_c, 1, 47, 0
6, 528, Control_c, 1, 93, 79
6, 533, Control_c, 1, 93, 78
6, 540, Note_on_c, 1, 47, 96
6, 570, Note_on_c, 1, 59, 0
6, 570, Note_on_c, 1, 54, 0
6, 570, Note_on_c, 1, 63, 0
6, 600, Note_on_c, 1, 35, 0
6, 600, Note_on_c, 1, 59, 114
6, 600, Note_on_c, 1, 54, 101
6, 600, Note_on_c, 1, 63, 101
6, 630, Note_on_c, 1, 47, 0
6, 660, Note_on_c, 1, 59, 0
6, 660, Note_on_c, 1, 54, 0
6, 660, Note_on_c, 1, 63, 0
6, 660, Note_on_c, 1, 47, 121
6, 690, Note_on_c, 1, 47, 0
6, 690, Note_on_c, 1, 59, 114
6, 690, Note_on_c, 1, 63, 95
6, 690, Note_on_c, 1, 54, 88
6, 720, Note_on_c, 1, 54, 0
6, 720, Note_on_c, 1, 63, 0
6, 720, Note_on_c, 1, 59, 0
6, 730, Control_c, 1, 93, 76
6, 750, Note_on_c, 1, 58, 101
6, 750, Note_on_c, 1, 63, 95
6, 750, Note_on_c, 1, 59, 119
6, 750, Note_on_c, 1, 54, 104
6, 780, Note_on_c, 1, 54, 0
6, 780, Note_on_c, 1, 58, 0
6, 780, Note_on_c, 1, 63, 0
6, 780, Note_on_c, 1, 59, 0
6, 780, Note_on_c, 1, 47, 100
6, 810, Note_on_c, 1, 47, 0
6, 810, Note_on_c, 1, 42, 112
6, 840, Note_on_c, 1, 42, 0
6, 840, Note_on_c, 1, 35, 119
6, 840, Note_on_c, 1, 61, 109
6, 840, Note_on_c, 1, 54, 106
6, 840, Note_on_c, 1, 59, 110
6, 870, Note_on_c, 1, 59, 0
6, 900, Note_on_c, 1, 35, 0
6, 900, Note_on_c, 1, 61, 0
6, 900, Note_on_c, 1, 54, 0
6, 900, Note_on_c, 1, 47, 121
6, 900, Note_on_c, 1, 63, 91
6, 900, Note_on_c, 1, 54, 61
6, 930, Note_on_c, 1, 54, 0
6, 930, Note_on_c, 1, 63, 0
6, 930, Note_on_c, 1, 47, 0
6, 930, Note_on_c, 1, 42, 116
6, 960, Note_on_c, 1, 42, 0
6, 960, Note_on_c, 1, 45, 103
6, 960, Note_on_c, 1, 61, 109
6, 960, Note_on_c, 1, 57, 100
6, 960, Note_on_c, 1, 59, 108
6, 960, Note_on_c, 1, 33, 102
6, 960, Note_on_c, 1, 64, 106
6, 990, Note_on_c, 1, 45, 0
6, 1020, Note_on_c, 1, 45, 114
6, 1050, Note_on_c, 1, 45, 0
6, 1050, Note_on_c, 1, 64, 0
6, 1050, Note_on_c, 1, 59, 0
6, 1050, Note_on_c, 1, 61, 0
6, 1050, Note_on_c, 1, 57, 0
6, 1050, Note_on_c, 1, 33, 0
6, 1050, Note_on_c, 1, 40, 110
6, 1080, Note_on_c, 1, 40, 0
6, 1080, Note_on_c, 1, 57, 108
6, 1080, Note_on_c, 1, 61, 106
6, 1080, Note_on_c, 1, 64, 117
6, 1080, Note_on_c, 1, 59, 112
6, 1127, Control_c, 1, 93, 78
6, 1140, Note_on_c, 1, 59, 0
6, 1140, Note_on_c, 1, 57, 0
6, 1140, Note_on_c, 1, 61, 0
6, 1140, Note_on_c, 1, 64, 0
6, 1140, Note_on_c, 1, 45, 90
6, 1170, Note_on_c, 1, 45, 0
6, 1170, Note_on_c, 1, 64, 99
6, 1170, Note_on_c, 1, 61, 106
6, 1170, Note_on_c, 1, 57, 84
6, 1170, Note_on_c, 1, 59, 94
6, 1200, Note_on_c, 1, 59, 0
6, 1200, Note_on_c, 1, 64, 0
6, 1200, Note_on_c, 1, 61, 0
6, 1200, Note_on_c, 1, 57, 0
6, 1215, Control_c, 1, 93, 79
6, 1230, Note_on_c, 1, 64, 103
6, 1230, Note_on_c, 1, 61, 120
6, 1230, Note_on_c, 1, 57, 103
6, 1230, Note_on_c, 1, 59, 106
6, 1235, Control_c, 1, 93, 80
6, 1256, Control_c, 1, 93, 82
6, 1260, Note_on_c, 1, 59, 0
6, 1260, Note_on_c, 1, 64, 0
6, 1260, Note_on_c, 1, 61, 0
6, 1260, Note_on_c, 1, 57, 0
6, 1260, Note_on_c, 1, 45, 105
6, 1290, Note_on_c, 1, 45, 0
6, 1290, Note_on_c, 1, 40, 92
6, 1320, Note_on_c, 1, 40, 0
6, 1320, Note_on_c, 1, 63, 99
6, 1320, Note_on_c, 1, 59, 108
6, 1320, Note_on_c, 1, 57, 91
6, 1320, Note_on_c, 1, 33, 127
6, 1355, Control_c, 1, 93, 81
6, 1380, Note_on_c, 1, 63, 0
6, 1380, Note_on_c, 1, 64, 89
6, 1380, Note_on_c, 1, 45, 121
6, 1410, Note_on_c, 1, 45, 0
6, 1410, Note_on_c, 1, 59, 0
6, 1410, Note_on_c, 1, 33, 0
6, 1410, Note_on_c, 1, 57, 0
6, 1410, Note_on_c, 1, 64, 0
6, 1410, Note_on_c, 1, 40, 112
6, 1440, Note_on_c, 1, 40, 0
6, 1440, Note_on_c, 1, 63, 72
6, 1440, Note_on_c, 1, 59, 93
6, 1440, Note_on_c, 1, 56, 79
6, 1440, Note_on_c, 1, 32, 120
6, 1440, Note_on_c, 1, 44, 93
6, 1470, Note_on_c, 1, 44, 0
6, 1500, Note_on_c, 1, 44, 127
6, 1530, Note_on_c, 1, 56, 0
6, 1530, Note_on_c, 1, 32, 0
6, 1530, Note_on_c, 1, 63, 0
6, 1530, Note_on_c, 1, 59, 0
6, 1530, Note_on_c, 1, 39, 61
6, 1560, Note_on_c, 1, 39, 0
6, 1560, Note_on_c, 1, 44, 0
6, 1560, Note_on_c, 1, 63, 124
6, 1560, Note_on_c, 1, 56, 104
6, 1560, Note_on_c, 1, 59, 112
6, 1620, Note_on_c, 1, 59, 0
6, 1620, Note_on_c, 1, 56, 0
6, 1620, Note_on_c, 1, 63, 0
6, 1620, Note_on_c, 1, 44, 127
6, 1650, Note_on_c, 1, 44, 0
6, 1650, Note_on_c, 1, 63, 89
6, 1650, Note_on_c, 1, 59, 95
6, 1650, Note_on_c, 1, 56, 88
6, 1680, Note_on_c, 1, 56, 0
6, 1680, Note_on_c, 1, 59, 0
6, 1680, Note_on_c, 1, 63, 0
6, 1710, Note_on_c, 1, 63, 106
6, 1710, Note_on_c, 1, 59, 112
6, 1710, Note_on_c, 1, 56, 101
6, 1740, Note_on_c, 1, 56, 0
6, 1740, Note_on_c, 1, 59, 0
6, 1740, Note_on_c, 1, 63, 0
6, 1740, Note_on_c, 1, 44, 127
6, 1770, Note_on_c, 1, 44, 0
6, 1770, Note_on_c, 1, 39, 106
6, 1800, Note_on_c, 1, 39, 0
6, 1800, Note_on_c, 1, 61, 112
6, 1800, Note_on_c, 1, 56, 101
6, 1800, Note_on_c, 1, 32, 120
6, 1800, Note_on_c, 1, 59, 103
6, 1800, Note_on_c, 1, 34, 71
6, 1830, Note_on_c, 1, 34, 0
6, 1860, Note_on_c, 1, 61, 0
6, 1860, Note_on_c, 1, 59, 0
6, 1860, Note_on_c, 1, 63, 74
6, 1860, Note_on_c, 1, 44, 127
6, 1890, Note_on_c, 1, 63, 0
6, 1890, Note_on_c, 1, 56, 0
6, 1890, Note_on_c, 1, 32, 0
6, 1890, Note_on_c, 1, 39, 116
6, 1920, Note_on_c, 1, 39, 0
6, 1920, Note_on_c, 1, 44, 0
6, 1920, Note_on_c, 1, 61, 82
6, 1920, Note_on_c, 1, 53, 95
6, 1920, Note_on_c, 1, 56, 101
6, 1920, Note_on_c, 1, 37, 99
6, 1980, Note_on_c, 1, 37, 0
6, 1980, Note_on_c, 1, 49, 124
6, 2010, Note_on_c, 1, 49, 0
6, 2010, Note_on_c, 1, 56, 0
6, 2010, Note_on_c, 1, 53, 0
6, 2010, Note_on_c, 1, 61, 0
6, 2010, Note_on_c, 1, 44, 109
6, 2040, Note_on_c, 1, 44, 0
6, 2040, Note_on_c, 1, 61, 101
6, 2040, Note_on_c, 1, 56, 112
6, 2040, Note_on_c, 1, 53, 93
6, 2100, Note_on_c, 1, 53, 0
6, 2100, Note_on_c, 1, 56, 0
6, 2100, Note_on_c, 1, 61, 0
6, 2100, Note_on_c, 1, 49, 112
6, 2130, Note_on_c, 1, 49, 0
6, 2130, Note_on_c, 1, 61, 82
6, 2130, Note_on_c, 1, 56, 106
6, 2130, Note_on_c, 1, 53, 87
6, 2160, Note_on_c, 1, 53, 0
6, 2160, Note_on_c, 1, 56, 0
6, 2160, Note_on_c, 1, 61, 0
6, 2190, Note_on_c, 1, 53, 98
6, 2190, Note_on_c, 1, 61, 97
6, 2190, Note_on_c, 1, 56, 116
6, 2220, Note_on_c, 1, 56, 0
6, 2220, Note_on_c, 1, 61, 0
6, 2220, Note_on_c, 1, 53, 0
6, 2220, Note_on_c, 1, 49, 120
6, 2250, Note_on_c, 1, 49, 0
6, 2250, Note_on_c, 1, 44, 106
6, 2280, Note_on_c, 1, 44, 0
6, 2280, Note_on_c, 1, 59, 92
6, 2280, Note_on_c, 1, 37, 127
6, 2280, Note_on_c, 1, 56, 106
6, 2280, Note_on_c, 1, 53, 91
6, 2310, Note_on_c, 1, 59, 0
6, 2340, Note_on_c, 1, 37, 0
6, 2340, Note_on_c, 1, 56, 0
6, 2340, Note_on_c, 1, 49, 124
6, 2340, Note_on_c, 1, 61, 91
6, 2370, Note_on_c, 1, 61, 0
6, 2370, Note_on_c, 1, 49, 0
6, 2370, Note_on_c, 1, 53, 0
6, 2370, Note_on_c, 1, 44, 116
6, 2400, Note_on_c, 1, 44, 0
6, 2400, Note_on_c, 1, 58, 112
6, 2400, Note_on_c, 1, 54, 89
6, 2400, Note_on_c, 1, 49, 104
6, 2400, Note_on_c, 1, 42, 97
6, 2400, Note_on_c, 1, 30, 93
6, 2400, Note_on_c, 1, 41, 110
6, 2400, Note_on_c, 1, 40, 98
6, 2430, Note_on_c, 1, 40, 0
6, 2430, Note_on_c, 1, 30, 0
6, 2430, Note_on_c, 1, 42, 0
6, 2430, Note_on_c, 1, 41, 0
6, 2460, Note_on_c, 1, 42, 124
6, 2490, Note_on_c, 1, 58, 0
6, 2490, Note_on_c, 1, 54, 0
6, 2490, Note_on_c, 1, 49, 0
6, 2520, Note_on_c, 1, 42, 0
6, 2520, Note_on_c, 1, 37, 41
6, 2520, Note_on_c, 1, 49, 95
6, 2520, Note_on_c, 1, 54, 112
6, 2520, Note_on_c, 1, 58, 112
6, 2550, Note_on_c, 1, 37, 0
6, 2580, Note_on_c, 1, 49, 0
6, 2580, Note_on_c, 1, 54, 0
6, 2580, Note_on_c, 1, 58, 0
6, 2580, Note_on_c, 1, 42, 106
6, 2610, Note_on_c, 1, 42, 0
6, 2610, Note_on_c, 1, 58, 116
6, 2610, Note_on_c, 1, 54, 101
6, 2610, Note_on_c, 1, 49, 71
6, 2640, Note_on_c, 1, 49, 0
6, 2640, Note_on_c, 1, 54, 0
6, 2640, Note_on_c, 1, 58, 0
6, 2670, Note_on_c, 1, 58, 116
6, 2670, Note_on_c, 1, 54, 112
6, 2670, Note_on_c, 1, 49, 80
6, 2700, Note_on_c, 1, 49, 0
6, 2700, Note_on_c, 1, 54, 0
6, 2700, Note_on_c, 1, 58, 0
6, 2700, Note_on_c, 1, 42, 124
6, 2730, Note_on_c, 1, 42, 0
6, 2730, Note_on_c, 1, 37, 120
6, 2760, Note_on_c, 1, 37, 0
6, 2760, Note_on_c, 1, 30, 127
6, 2760, Note_on_c, 1, 32, 79
6, 2760, Note_on_c, 1, 54, 101
6, 2760, Note_on_c, 1, 56, 116
6, 2760, Note_on_c, 1, 49, 79
6, 2790, Note_on_c, 1, 32, 0
6, 2820, Note_on_c, 1, 56, 0
6, 2820, Note_on_c, 1, 30, 0
6, 2820, Note_on_c, 1, 54, 0
6, 2820, Note_on_c, 1, 42, 124
6, 2820, Note_on_c, 1, 58, 83
6, 2850, Note_on_c, 1, 58, 0
6, 2850, Note_on_c, 1, 49, 0
6, 2850, Note_on_c, 1, 37, 112
6, 2880, Note_on_c, 1, 37, 0
6, 2880, Note_on_c, 1, 42, 0
6, 2880, Note_on_c, 1, 32, 127
6, 2880, Note_on_c, 1, 34, 101
6, 2880, Note_on_c, 1, 56, 106
6, 2880, Note_on_c, 1, 59, 108
6, 2880, Note_on_c, 1, 51, 89
6, 2910, Note_on_c, 1, 34, 0
6, 2940, Note_on_c, 1, 32, 0
6, 2940, Note_on_c, 1, 44, 116
6, 2970, Note_on_c, 1, 44, 0
6, 2970, Note_on_c, 1, 51, 0
6, 2970, Note_on_c, 1, 56, 0
6, 2970, Note_on_c, 1, 59, 0
6, 2970, Note_on_c, 1, 39, 120
6, 3000, Note_on_c, 1, 39, 0
6, 3000, Note_on_c, 1, 56, 116
6, 3000, Note_on_c, 1, 51, 89
6, 3000, Note_on_c, 1, 59, 110
6, 3060, Note_on_c, 1, 59, 0
6, 3060, Note_on_c, 1, 51, 0
6, 3060, Note_on_c, 1, 56, 0
6, 3060, Note_on_c, 1, 44, 116
6, 3090, Note_on_c, 1, 44, 0
6, 3090, Note_on_c, 1, 51, 75
6, 3090, Note_on_c, 1, 56, 101
6, 3090, Note_on_c, 1, 59, 100
6, 3120, Note_on_c, 1, 59, 0
6, 3120, Note_on_c, 1, 56, 0
6, 3120, Note_on_c, 1, 51, 0
6, 3150, Note_on_c, 1, 56, 112
6, 3150, Note_on_c, 1, 51, 93
6, 3150, Note_on_c, 1, 59, 105
6, 3180, Note_on_c, 1, 59, 0
6, 3180, Note_on_c, 1, 51, 0
6, 3180, Note_on_c, 1, 56, 0
6, 3180, Note_on_c, 1, 44, 116
6, 3210, Note_on_c, 1, 44, 0
6, 3210, Note_on_c, 1, 39, 95
6, 3240, Note_on_c, 1, 39, 0
6, 3240, Note_on_c, 1, 58, 120
6, 3240, Note_on_c, 1, 56, 120
6, 3240, Note_on_c, 1, 51, 93
6, 3240, Note_on_c, 1, 32, 116
6, 3300, Note_on_c, 1, 51, 0
6, 3300, Note_on_c, 1, 58, 0
6, 3300, Note_on_c, 1, 56, 0
6, 3300, Note_on_c, 1, 44, 127
6, 3300, Note_on_c, 1, 59, 82
6, 3330, Note_on_c, 1, 59, 0
6, 3330, Note_on_c, 1, 32, 0
6, 3330, Note_on_c, 1, 39, 109
6, 3360, Note_on_c, 1, 39, 0
6, 3360, Note_on_c, 1, 44, 0
6, 3360, Note_on_c, 1, 56, 101
6, 3360, Note_on_c, 1, 61, 95
6, 3360, Note_on_c, 1, 53, 88
6, 3360, Note_on_c, 1, 37, 120
6, 3420, Note_on_c, 1, 37, 0
6, 3420, Note_on_c, 1, 49, 120
6, 3450, Note_on_c, 1, 49, 0
6, 3450, Note_on_c, 1, 53, 0
6, 3450, Note_on_c, 1, 61, 0
6, 3450, Note_on_c, 1, 56, 0
6, 3450, Note_on_c, 1, 44, 89
6, 3480, Note_on_c, 1, 44, 0
6, 3480, Note_on_c, 1, 61, 101
6, 3480, Note_on_c, 1, 56, 116
6, 3480, Note_on_c, 1, 53, 93
6, 3540, Note_on_c, 1, 53, 0
6, 3540, Note_on_c, 1, 56, 0
6, 3540, Note_on_c, 1, 61, 0
6, 3540, Note_on_c, 1, 49, 109
6, 3570, Note_on_c, 1, 49, 0
6, 3570, Note_on_c, 1, 61, 84
6, 3570, Note_on_c, 1, 56, 104
6, 3570, Note_on_c, 1, 53, 79
6, 3600, Note_on_c, 1, 53, 0
6, 3600, Note_on_c, 1, 56, 0
6, 3600, Note_on_c, 1, 61, 0
6, 3630, Note_on_c, 1, 53, 93
6, 3630, Note_on_c, 1, 56, 112
6, 3630, Note_on_c, 1, 61, 89
6, 3660, Note_on_c, 1, 61, 0
6, 3660, Note_on_c, 1, 56, 0
6, 3660, Note_on_c, 1, 53, 0
6, 3660, Note_on_c, 1, 49, 104
6, 3690, Note_on_c, 1, 49, 0
6, 3690, Note_on_c, 1, 44, 104
6, 3720, Note_on_c, 1, 44, 0
6, 3720, Note_on_c, 1, 37, 124
6, 3750, Note_on_c, 1, 37, 0
6, 3750, Note_on_c, 1, 54, 112
6, 3750, Note_on_c, 1, 51, 106
6, 3750, Note_on_c, 1, 59, 112
6, 3780, Note_on_c, 1, 59, 0
6, 3780, Note_on_c, 1, 51, 0
6, 3780, Note_on_c, 1, 54, 0
6, 3780, Note_on_c, 1, 49, 124
6, 3810, Note_on_c, 1, 49, 0
6, 3810, Note_on_c, 1, 44, 109
6, 3840, Note_on_c, 1, 44, 0
6, 3840, Note_on_c, 1, 37, 124
6, 3840, Note_on_c, 1, 53, 95
6, 3840, Note_on_c, 1, 61, 101
6, 3840, Note_on_c, 1, 56, 120
6, 3900, Note_on_c, 1, 37, 0
6, 3900, Note_on_c, 1, 49, 120
6, 3930, Note_on_c, 1, 49, 0
6, 3930, Note_on_c, 1, 56, 0
6, 3930, Note_on_c, 1, 61, 0
6, 3930, Note_on_c, 1, 53, 0
6, 3930, Note_on_c, 1, 44, 120
6, 3960, Note_on_c, 1, 44, 0
6, 3960, Note_on_c, 1, 53, 93
6, 3960, Note_on_c, 1, 56, 116
6, 3960, Note_on_c, 1, 61, 109
6, 4020, Note_on_c, 1, 61, 0
6, 4020, Note_on_c, 1, 56, 0
6, 4020, Note_on_c, 1, 53, 0
6, 4020, Note_on_c, 1, 49, 120
6, 4050, Note_on_c, 1, 49, 0
6, 4050, Note_on_c, 1, 61, 86
6, 4050, Note_on_c, 1, 56, 106
6, 4050, Note_on_c, 1, 53, 80
6, 4080, Note_on_c, 1, 53, 0
6, 4080, Note_on_c, 1, 56, 0
6, 4080, Note_on_c, 1, 61, 0
6, 4110, Note_on_c, 1, 53, 106
6, 4110, Note_on_c, 1, 61, 101
6, 4110, Note_on_c, 1, 56, 127
6, 4140, Note_on_c, 1, 56, 0
6, 4140, Note_on_c, 1, 61, 0
6, 4140, Note_on_c, 1, 53, 0
6, 4140, Note_on_c, 1, 49, 116
6, 4170, Note_on_c, 1, 49, 0
6, 4170, Note_on_c, 1, 44, 109
6, 4200, Note_on_c, 1, 44, 0
6, 4200, Note_on_c, 1, 37, 124
6, 4200, Note_on_c, 1, 61, 93
6, 4200, Note_on_c, 1, 56, 109
6, 4200, Note_on_c, 1, 53, 93
6, 4260, Note_on_c, 1, 56, 0
6, 4260, Note_on_c, 1, 37, 0
6, 4260, Note_on_c, 1, 61, 0
6, 4260, Note_on_c, 1, 49, 112
6, 4290, Note_on_c, 1, 49, 0
6, 4290, Note_on_c, 1, 53, 0
6, 4320, Note_on_c, 1, 35, 99
6, 4320, Note_on_c, 1, 63, 99
6, 4320, Note_on_c, 1, 59, 110
6, 4320, Note_on_c, 1, 47, 106
6, 4320, Note_on_c, 1, 54, 95
6, 4350, Note_on_c, 1, 47, 0
6, 4380, Note_on_c, 1, 47, 96
6, 4410, Note_on_c, 1, 59, 0
6, 4410, Note_on_c, 1, 54, 0
6, 4410, Note_on_c, 1, 63, 0
6, 4440, Note_on_c, 1, 35, 0
6, 4440, Note_on_c, 1, 59, 114
6, 4440, Note_on_c, 1, 54, 101
6, 4440, Note_on_c, 1, 63, 101
6, 4470, Note_on_c, 1, 47, 0
6, 4500, Note_on_c, 1, 59, 0
6, 4500, Note_on_c, 1, 54, 0
6, 4500, Note_on_c, 1, 63, 0
6, 4500, Note_on_c, 1, 47, 121
6, 4530, Note_on_c, 1, 47, 0
6, 4530, Note_on_c, 1, 59, 114
6, 4530, Note_on_c, 1, 63, 95
6, 4530, Note_on_c, 1, 54, 88
6, 4560, Note_on_c, 1, 54, 0
6, 4560, Note_on_c, 1, 63, 0
6, 4560, Note_on_c, 1, 59, 0
6, 4590, Note_on_c, 1, 58, 101
6, 4590, Note_on_c, 1, 63, 95
6, 4590, Note_on_c, 1, 59, 119
6, 4590, Note_on_c, 1, 54, 104
6, 4620, Note_on_c, 1, 54, 0
6, 4620, Note_on_c, 1, 58, 0
6, 4620, Note_on_c, 1, 63, 0
6, 4620, Note_on_c, 1, 59, 0
6, 4620, Note_on_c, 1, 47, 100
6, 4650, Note_on_c, 1, 47, 0
6, 4650, Note_on_c, 1, 42, 112
6, 4680, Note_on_c, 1, 42, 0
6, 4680, Note_on_c, 1, 35, 119
6, 4680, Note_on_c, 1, 61, 109
6, 4680, Note_on_c, 1, 54, 106
6, 4680, Note_on_c, 1, 59, 110
6, 4710, Note_on_c, 1, 59, 0
6, 4740, Note_on_c, 1, 35, 0
6, 4740, Note_on_c, 1, 61, 0
6, 4740, Note_on_c, 1, 54, 0
6, 4740, Note_on_c, 1, 47, 121
6, 4740, Note_on_c, 1, 63, 91
6, 4740, Note_on_c, 1, 54, 61
6, 4770, Note_on_c, 1, 54, 0
6, 4770, Note_on_c, 1, 63, 0
6, 4770, Note_on_c, 1, 47, 0
6, 4770, Note_on_c, 1, 42, 116
6, 4800, Note_on_c, 1, 42, 0
6, 4800, Note_on_c, 1, 45, 103
6, 4800, Note_on_c, 1, 61, 109
6, 4800, Note_on_c, 1, 57, 100
6, 4800, Note_on_c, 1, 59, 108
6, 4800, Note_on_c, 1, 33, 102
6, 4800, Note_on_c, 1, 64, 106
6, 4830, Note_on_c, 1, 45, 0
6, 4860, Note_on_c, 1, 45, 114
6, 4890, Note_on_c, 1, 45, 0
6, 4890, Note_on_c, 1, 64, 0
6, 4890, Note_on_c, 1, 59, 0
6, 4890, Note_on_c, 1, 61, 0
6, 4890, Note_on_c, 1, 57, 0
6, 4890, Note_on_c, 1, 33, 0
6, 4890, Note_on_c, 1, 40, 110
6, 4920, Note_on_c, 1, 40, 0
6, 4920, Note_on_c, 1, 57, 108
6, 4920, Note_on_c, 1, 61, 106
6, 4920, Note_on_c, 1, 64, 117
6, 4920, Note_on_c, 1, 59, 112
6, 4980, Note_on_c, 1, 59, 0
6, 4980, Note_on_c, 1, 57, 0
6, 4980, Note_on_c, 1, 61, 0
6, 4980, Note_on_c, 1, 64, 0
6, 4980, Note_on_c, 1, 45, 90
6, 5010, Note_on_c, 1, 45, 0
6, 5010, Note_on_c, 1, 64, 99
6, 5010, Note_on_c, 1, 61, 106
6, 5010, Note_on_c, 1, 57, 84
6, 5010, Note_on_c, 1, 59, 94
6, 5040, Note_on_c, 1, 59, 0
6, 5040, Note_on_c, 1, 64, 0
6, 5040, Note_on_c, 1, 61, 0
6, 5040, Note_on_c, 1, 57, 0
6, 5070, Note_on_c, 1, 64, 103
6, 5070, Note_on_c, 1, 61, 120
6, 5070, Note_on_c, 1, 57, 103
6, 5070, Note_on_c, 1, 59, 106
6, 5100, Note_on_c, 1, 59, 0
6, 5100, Note_on_c, 1, 64, 0
6, 5100, Note_on_c, 1, 61, 0
6, 5100, Note_on_c, 1, 57, 0
6, 5100, Note_on_c, 1, 45, 105
6, 5130, Note_on_c, 1, 45, 0
6, 5130, Note_on_c, 1, 40, 92
6, 5160, Note_on_c, 1, 40, 0
6, 5160, Note_on_c, 1, 63, 99
6, 5160, Note_on_c, 1, 59, 108
6, 5160, Note_on_c, 1, 57, 91
6, 5160, Note_on_c, 1, 33, 127
6, 5220, Note_on_c, 1, 63, 0
6, 5220, Note_on_c, 1, 64, 89
6, 5220, Note_on_c, 1, 45, 121
6, 5250, Note_on_c, 1, 45, 0
6, 5250, Note_on_c, 1, 59, 0
6, 5250, Note_on_c, 1, 33, 0
6, 5250, Note_on_c, 1, 57, 0
6, 5250, Note_on_c, 1, 64, 0
6, 5250, Note_on_c, 1, 40, 112
6, 5280, Note_on_c, 1, 40, 0
6, 5280, Note_on_c, 1, 63, 72
6, 5280, Note_on_c, 1, 59, 93
6, 5280, Note_on_c, 1, 56, 79
6, 5280, Note_on_c, 1, 32, 120
6, 5280, Note_on_c, 1, 44, 93
6, 5310, Note_on_c, 1, 44, 0
6, 5340, Note_on_c, 1, 44, 127
6, 5370, Note_on_c, 1, 56, 0
6, 5370, Note_on_c, 1, 32, 0
6, 5370, Note_on_c, 1, 63, 0
6, 5370, Note_on_c, 1, 59, 0
6, 5370, Note_on_c, 1, 39, 61
6, 5400, Note_on_c, 1, 39, 0
6, 5400, Note_on_c, 1, 44, 0
6, 5400, Note_on_c, 1, 63, 124
6, 5400, Note_on_c, 1, 56, 104
6, 5400, Note_on_c, 1, 59, 112
6, 5460, Note_on_c, 1, 59, 0
6, 5460, Note_on_c, 1, 56, 0
6, 5460, Note_on_c, 1, 63, 0
6, 5460, Note_on_c, 1, 44, 127
6, 5490, Note_on_c, 1, 44, 0
6, 5490, Note_on_c, 1, 63, 89
6, 5490, Note_on_c, 1, 59, 95
6, 5490, Note_on_c, 1, 56, 88
6, 5520, Note_on_c, 1, 56, 0
6, 5520, Note_on_c, 1, 59, 0
6, 5520, Note_on_c, 1, 63, 0
6, 5550, Note_on_c, 1, 63, 106
6, 5550, Note_on_c, 1, 59, 112
6, 5550, Note_on_c, 1, 56, 101
6, 5580, Note_on_c, 1, 56, 0
6, 5580, Note_on_c, 1, 59, 0
6, 5580, Note_on_c, 1, 63, 0
6, 5580, Note_on_c, 1, 44, 127
6, 5610, Note_on_c, 1, 44, 0
6, 5610, Note_on_c, 1, 39, 106
6, 5640, Note_on_c, 1, 39, 0
6, 5640, Note_on_c, 1, 61, 112
6, 5640, Note_on_c, 1, 56, 101
6, 5640, Note_on_c, 1, 32, 120
6, 5640, Note_on_c, 1, 59, 103
6, 5640, Note_on_c, 1, 34, 71
6, 5670, Note_on_c, 1, 34, 0
6, 5700, Note_on_c, 1, 61, 0
6, 5700, Note_on_c, 1, 59, 0
6, 5700, Note_on_c, 1, 63, 74
6, 5700, Note_on_c, 1, 44, 127
6, 5730, Note_on_c, 1, 63, 0
6, 5730, Note_on_c, 1, 56, 0
6, 5730, Note_on_c, 1, 32, 0
6, 5730, Note_on_c, 1, 39, 116
6, 5760, Note_on_c, 1, 39, 0
6, 5760, Note_on_c, 1, 44, 0
6, 5760, Note_on_c, 1, 61, 82
6, 5760, Note_on_c, 1, 53, 95
6, 5760, Note_on_c, 1, 56, 101
6, 5760, Note_on_c, 1, 37, 99
6, 5820, Note_on_c, 1, 37, 0
6, 5820, Note_on_c, 1, 49, 124
6, 5850, Note_on_c, 1, 49, 0
6, 5850, Note_on_c, 1, 56, 0
6, 5850, Note_on_c, 1, 53, 0
6, 5850, Note_on_c, 1, 61, 0
6, 5850, Note_on_c, 1, 44, 109
6, 5880, Note_on_c, 1, 44, 0
6, 5880, Note_on_c, 1, 61, 101
6, 5880, Note_on_c, 1, 56, 112
6, 5880, Note_on_c, 1, 53, 93
6, 5940, Note_on_c, 1, 53, 0
6, 5940, Note_on_c, 1, 56, 0
6, 5940, Note_on_c, 1, 61, 0
6, 5940, Note_on_c, 1, 49, 112
6, 5970, Note_on_c, 1, 49, 0
6, 5970, Note_on_c, 1, 61, 82
6, 5970, Note_on_c, 1, 56, 106
6, 5970, Note_on_c, 1, 53, 87
6, 6000, Note_on_c, 1, 53, 0
6, 6000, Note_on_c, 1, 56, 0
6, 6000, Note_on_c, 1, 61, 0
6, 6030, Note_on_c, 1, 53, 98
6, 6030, Note_on_c, 1, 61, 97
6, 6030, Note_on_c, 1, 56, 116
6, 6060, Note_on_c, 1, 56, 0
6, 6060, Note_on_c, 1, 61, 0
6, 6060, Note_on_c, 1, 53, 0
6, 6060, Note_on_c, 1, 49, 120
6, 6090, Note_on_c, 1, 49, 0
6, 6090, Note_on_c, 1, 44, 106
6, 6120, Note_on_c, 1, 44, 0
6, 6120, Note_on_c, 1, 59, 92
6, 6120, Note_on_c, 1, 37, 127
6, 6120, Note_on_c, 1, 56, 106
6, 6120, Note_on_c, 1, 53, 91
6, 6150, Note_on_c, 1, 59, 0
6, 6180, Note_on_c, 1, 37, 0
6, 6180, Note_on_c, 1, 56, 0
6, 6180, Note_on_c, 1, 49, 124
6, 6180, Note_on_c, 1, 61, 91
6, 6210, Note_on_c, 1, 61, 0
6, 6210, Note_on_c, 1, 49, 0
6, 6210, Note_on_c, 1, 53, 0
6, 6210, Note_on_c, 1, 44, 116
6, 6240, Note_on_c, 1, 44, 0
6, 6240, Note_on_c, 1, 58, 112
6, 6240, Note_on_c, 1, 54, 89
6, 6240, Note_on_c, 1, 49, 104
6, 6240, Note_on_c, 1, 42, 97
6, 6240, Note_on_c, 1, 30, 93
6, 6240, Note_on_c, 1, 41, 110
6, 6240, Note_on_c, 1, 40, 98
6, 6270, Note_on_c, 1, 40, 0
6, 6270, Note_on_c, 1, 30, 0
6, 6270, Note_on_c, 1, 42, 0
6, 6270, Note_on_c, 1, 41, 0
6, 6300, Note_on_c, 1, 42, 124
6, 6330, Note_on_c, 1, 58, 0
6, 6330, Note_on_c, 1, 54, 0
6, 6330, Note_on_c, 1, 49, 0
6, 6360, Note_on_c, 1, 42, 0
6, 6360, Note_on_c, 1, 37, 41
6, 6360, Note_on_c, 1, 49, 95
6, 6360, Note_on_c, 1, 54, 112
6, 6360, Note_on_c, 1, 58, 112
6, 6390, Note_on_c, 1, 37, 0
6, 6420, Note_on_c, 1, 49, 0
6, 6420, Note_on_c, 1, 54, 0
6, 6420, Note_on_c, 1, 58, 0
6, 6420, Note_on_c, 1, 42, 106
6, 6450, Note_on_c, 1, 42, 0
6, 6450, Note_on_c, 1, 58, 116
6, 6450, Note_on_c, 1, 54, 101
6, 6450, Note_on_c, 1, 49, 71
6, 6480, Note_on_c, 1, 49, 0
6, 6480, Note_on_c, 1, 54, 0
6, 6480, Note_on_c, 1, 58, 0
6, 6510, Note_on_c, 1, 58, 116
6, 6510, Note_on_c, 1, 54, 112
6, 6510, Note_on_c, 1, 49, 80
6, 6540, Note_on_c, 1, 49, 0
6, 6540, Note_on_c, 1, 54, 0
6, 6540, Note_on_c, 1, 58, 0
6, 6540, Note_on_c, 1, 42, 124
6, 6570, Note_on_c, 1, 42, 0
6, 6570, Note_on_c, 1, 37, 120
6, 6600, Note_on_c, 1, 37, 0
6, 6600, Note_on_c, 1, 30, 127
6, 6600, Note_on_c, 1, 32, 79
6, 6600, Note_on_c, 1, 54, 101
6, 6600, Note_on_c, 1, 56, 116
6, 6600, Note_on_c, 1, 49, 79
6, 6630, Note_on_c, 1, 32, 0
6, 6660, Note_on_c, 1, 56, 0
6, 6660, Note_on_c, 1, 30, 0
6, 6660, Note_on_c, 1, 54, 0
6, 6660, Note_on_c, 1, 42, 124
6, 6660, Note_on_c, 1, 58, 83
6, 6690, Note_on_c, 1, 58, 0
6, 6690, Note_on_c, 1, 49, 0
6, 6690, Note_on_c, 1, 37, 112
6, 6720, Note_on_c, 1, 37, 0
6, 6720, Note_on_c, 1, 42, 0
6, 6720, Note_on_c, 1, 32, 127
6, 6720, Note_on_c, 1, 34, 101
6, 6720, Note_on_c, 1, 56, 106
6, 6720, Note_on_c, 1, 59, 108
6, 6720, Note_on_c, 1, 51, 89
6, 6750, Note_on_c, 1, 34, 0
6, 6780, Note_on_c, 1, 32, 0
6, 6780, Note_on_c, 1, 44, 116
6, 6810, Note_on_c, 1, 44, 0
6, 6810, Note_on_c, 1, 51, 0
6, 6810, Note_on_c, 1, 56, 0
6, 6810, Note_on_c, 1, 59, 0
6, 6810, Note_on_c, 1, 39, 120
6, 6840, Note_on_c, 1, 39, 0
6, 6840, Note_on_c, 1, 56, 116
6, 6840, Note_on_c, 1, 51, 89
6, 6840, Note_on_c, 1, 59, 110
6, 6900, Note_on_c, 1, 59, 0
6, 6900, Note_on_c, 1, 51, 0
6, 6900, Note_on_c, 1, 56, 0
6, 6900, Note_on_c, 1, 44, 116
6, 6930, Note_on_c, 1, 44, 0
6, 6930, Note_on_c, 1, 51, 75
6, 6930, Note_on_c, 1, 56, 101
6, 6930, Note_on_c, 1, 59, 100
6, 6960, Note_on_c, 1, 59, 0
6, 6960, Note_on_c, 1, 56, 0
6, 6960, Note_on_c, 1, 51, 0
6, 6990, Note_on_c, 1, 56, 112
6, 6990, Note_on_c, 1, 51, 93
6, 6990, Note_on_c, 1, 59, 105
6, 7020, Note_on_c, 1, 59, 0
6, 7020, Note_on_c, 1, 51, 0
6, 7020, Note_on_c, 1, 56, 0
6, 7020, Note_on_c, 1, 44, 116
6, 7050, Note_on_c, 1, 44, 0
6, 7050, Note_on_c, 1, 39, 95
6, 7080, Note_on_c, 1, 39, 0
6, 7080, Note_on_c, 1, 58, 120
6, 7080, Note_on_c, 1, 56, 120
6, 7080, Note_on_c, 1, 51, 93
6, 7080, Note_on_c, 1, 32, 116
6, 7140, Note_on_c, 1, 51, 0
6, 7140, Note_on_c, 1, 58, 0
6, 7140, Note_on_c, 1, 56, 0
6, 7140, Note_on_c, 1, 44, 127
6, 7140, Note_on_c, 1, 59, 82
6, 7170, Note_on_c, 1, 59, 0
6, 7170, Note_on_c, 1, 32, 0
6, 7170, Note_on_c, 1, 39, 109
6, 7200, Note_on_c, 1, 39, 0
6, 7200, Note_on_c, 1, 44, 0
6, 7200, Note_on_c, 1, 56, 101
6, 7200, Note_on_c, 1, 61, 95
6, 7200, Note_on_c, 1, 53, 88
6, 7200, Note_on_c, 1, 37, 120
6, 7260, Note_on_c, 1, 37, 0
6, 7260, Note_on_c, 1, 49, 120
6, 7290, Note_on_c, 1, 49, 0
6, 7290, Note_on_c, 1, 53, 0
6, 7290, Note_on_c, 1, 61, 0
6, 7290, Note_on_c, 1, 56, 0
6, 7290, Note_on_c, 1, 44, 89
6, 7320, Note_on_c, 1, 44, 0
6, 7320, Note_on_c, 1, 61, 101
6, 7320, Note_on_c, 1, 56, 116
6, 7320, Note_on_c, 1, 53, 93
6, 7380, Note_on_c, 1, 53, 0
6, 7380, Note_on_c, 1, 56, 0
6, 7380, Note_on_c, 1, 61, 0
6, 7380, Note_on_c, 1, 49, 109
6, 7410, Note_on_c, 1, 49, 0
6, 7410, Note_on_c, 1, 61, 84
6, 7410, Note_on_c, 1, 56, 104
6, 7410, Note_on_c, 1, 53, 79
6, 7440, Note_on_c, 1, 53, 0
6, 7440, Note_on_c, 1, 56, 0
6, 7440, Note_on_c, 1, 61, 0
6, 7470, Note_on_c, 1, 53, 93
6, 7470, Note_on_c, 1, 56, 112
6, 7470, Note_on_c, 1, 61, 89
6, 7500, Note_on_c, 1, 61, 0
6, 7500, Note_on_c, 1, 56, 0
6, 7500, Note_on_c, 1, 53, 0
6, 7500, Note_on_c, 1, 49, 104
6, 7530, Note_on_c, 1, 49, 0
6, 7530, Note_on_c, 1, 44, 104
6, 7560, Note_on_c, 1, 44, 0
6, 7560, Note_on_c, 1, 37, 124
6, 7590, Note_on_c, 1, 37, 0
6, 7590, Note_on_c, 1, 54, 112
6, 7590, Note_on_c, 1, 51, 106
6, 7590, Note_on_c, 1, 59, 112
6, 7620, Note_on_c, 1, 59, 0
6, 7620, Note_on_c, 1, 51, 0
6, 7620, Note_on_c, 1, 54, 0
6, 7620, Note_on_c, 1, 49, 124
6, 7650, Note_on_c, 1, 49, 0
6, 7650, Note_on_c, 1, 44, 109
6, 7680, Note_on_c, 1, 44, 0
6, 7680, Note_on_c, 1, 37, 124
6, 7680, Note_on_c, 1, 53, 95
6, 7680, Note_on_c, 1, 61, 101
6, 7680, Note_on_c, 1, 56, 120
6, 7740, Note_on_c, 1, 37, 0
6, 7740, Note_on_c, 1, 49, 120
6, 7770, Note_on_c, 1, 49, 0
6, 7770, Note_on_c, 1, 56, 0
6, 7770, Note_on_c, 1, 61, 0
6, 7770, Note_on_c, 1, 53, 0
6, 7770, Note_on_c, 1, 44, 120
6, 7800, Note_on_c, 1, 44, 0
6, 7800, Note_on_c, 1, 53, 93
6, 7800, Note_on_c, 1, 56, 116
6, 7800, Note_on_c, 1, 61, 109
6, 7860, Note_on_c, 1, 61, 0
6, 7860, Note_on_c, 1, 56, 0
6, 7860, Note_on_c, 1, 53, 0
6, 7860, Note_on_c, 1, 49, 120
6, 7890, Note_on_c, 1, 49, 0
6, 7890, Note_on_c, 1, 61, 86
6, 7890, Note_on_c, 1, 56, 106
6, 7890, Note_on_c, 1, 52, 80
6, 7920, Note_on_c, 1, 52, 0
6, 7920, Note_on_c, 1, 56, 0
6, 7920, Note_on_c, 1, 61, 0
6, 15840, Note_on_c, 1, 35, 99
6, 15840, Note_on_c, 1, 63, 99
6, 15840, Note_on_c, 1, 59, 110
6, 15840, Note_on_c, 1, 47, 106
6, 15840, Note_on_c, 1, 54, 95
6, 15870, Note_on_c, 1, 47, 0
6, 15900, Note_on_c, 1, 47, 96
6, 15930, Note_on_c, 1, 59, 0
6, 15930, Note_on_c, 1, 54, 0
6, 15930, Note_on_c, 1, 63, 0
6, 15960, Note_on_c, 1, 35, 0
6, 15960, Note_on_c, 1, 59, 114
6, 15960, Note_on_c, 1, 54, 101
6, 15960, Note_on_c, 1, 63, 101
6, 15990, Note_on_c, 1, 47, 0
6, 16020, Note_on_c, 1, 59, 0
6, 16020, Note_on_c, 1, 54, 0
6, 16020, Note_on_c, 1, 63, 0
6, 16020, Note_on_c, 1, 47, 121
6, 16050, Note_on_c, 1, 47, 0
6, 16050, Note_on_c, 1, 59, 114
6, 16050, Note_on_c, 1, 63, 95
6, 16050, Note_on_c, 1, 54, 88
6, 16080, Note_on_c, 1, 54, 0
6, 16080, Note_on_c, 1, 63, 0
6, 16080, Note_on_c, 1, 59, 0
6, 16110, Note_on_c, 1, 58, 101
6, 16110, Note_on_c, 1, 63, 95
6, 16110, Note_on_c, 1, 59, 119
6, 16110, Note_on_c, 1, 54, 104
6, 16140, Note_on_c, 1, 54, 0
6, 16140, Note_on_c, 1, 58, 0
6, 16140, Note_on_c, 1, 63, 0
6, 16140, Note_on_c, 1, 59, 0
6, 16140, Note_on_c, 1, 47, 100
6, 16170, Note_on_c, 1, 47, 0
6, 16170, Note_on_c, 1, 42, 112
6, 16200, Note_on_c, 1, 42, 0
6, 16200, Note_on_c, 1, 35, 119
6, 16200, Note_on_c, 1, 61, 109
6, 16200, Note_on_c, 1, 54, 106
6, 16200, Note_on_c, 1, 59, 110
6, 16230, Note_on_c, 1, 59, 0
6, 16260, Note_on_c, 1, 35, 0
6, 16260, Note_on_c, 1, 61, 0
6, 16260, Note_on_c, 1, 54, 0
6, 16260, Note_on_c, 1, 47, 121
6, 16260, Note_on_c, 1, 63, 91
6, 16260, Note_on_c, 1, 54, 61
6, 16290, Note_on_c, 1, 54, 0
6, 16290, Note_on_c, 1, 63, 0
6, 16290, Note_on_c, 1, 47, 0
6, 16290, Note_on_c, 1, 42, 116
6, 16320, Note_on_c, 1, 42, 0
6, 16320, Note_on_c, 1, 45, 103
6, 16320, Note_on_c, 1, 61, 109
6, 16320, Note_on_c, 1, 57, 100
6, 16320, Note_on_c, 1, 59, 108
6, 16320, Note_on_c, 1, 33, 102
6, 16320, Note_on_c, 1, 64, 106
6, 16350, Note_on_c, 1, 45, 0
6, 16380, Note_on_c, 1, 45, 114
6, 16410, Note_on_c, 1, 45, 0
6, 16410, Note_on_c, 1, 64, 0
6, 16410, Note_on_c, 1, 59, 0
6, 16410, Note_on_c, 1, 61, 0
6, 16410, Note_on_c, 1, 57, 0
6, 16410, Note_on_c, 1, 33, 0
6, 16410, Note_on_c, 1, 40, 110
6, 16440, Note_on_c, 1, 40, 0
6, 16440, Note_on_c, 1, 57, 108
6, 16440, Note_on_c, 1, 61, 106
6, 16440, Note_on_c, 1, 64, 117
6, 16440, Note_on_c, 1, 59, 112
6, 16500, Note_on_c, 1, 59, 0
6, 16500, Note_on_c, 1, 57, 0
6, 16500, Note_on_c, 1, 61, 0
6, 16500, Note_on_c, 1, 64, 0
6, 16500, Note_on_c, 1, 45, 90
6, 16530, Note_on_c, 1, 45, 0
6, 16530, Note_on_c, 1, 64, 99
6, 16530, Note_on_c, 1, 61, 106
6, 16530, Note_on_c, 1, 57, 84
6, 16530, Note_on_c, 1, 59, 94
6, 16560, Note_on_c, 1, 59, 0
6, 16560, Note_on_c, 1, 64, 0
6, 16560, Note_on_c, 1, 61, 0
6, 16560, Note_on_c, 1, 57, 0
6, 16590, Note_on_c, 1, 64, 103
6, 16590, Note_on_c, 1, 61, 120
6, 16590, Note_on_c, 1, 57, 103
6, 16590, Note_on_c, 1, 59, 106
6, 16620, Note_on_c, 1, 59, 0
6, 16620, Note_on_c, 1, 64, 0
6, 16620, Note_on_c, 1, 61, 0
6, 16620, Note_on_c, 1, 57, 0
6, 16620, Note_on_c, 1, 45, 105
6, 16650, Note_on_c, 1, 45, 0
6, 16650, Note_on_c, 1, 40, 92
6, 16680, Note_on_c, 1, 40, 0
6, 16680, Note_on_c, 1, 63, 99
6, 16680, Note_on_c, 1, 59, 108
6, 16680, Note_on_c, 1, 57, 91
6, 16680, Note_on_c, 1, 33, 127
6, 16740, Note_on_c, 1, 63, 0
6, 16740, Note_on_c, 1, 64, 89
6, 16740, Note_on_c, 1, 45, 121
6, 16770, Note_on_c, 1, 45, 0
6, 16770, Note_on_c, 1, 59, 0
6, 16770, Note_on_c, 1, 33, 0
6, 16770, Note_on_c, 1, 57, 0
6, 16770, Note_on_c, 1, 64, 0
6, 16770, Note_on_c, 1, 40, 112
6, 16790, Control_c, 1, 10, 58
6, 16800, Note_on_c, 1, 40, 0
6, 16800, Note_on_c, 1, 63, 72
6, 16800, Note_on_c, 1, 59, 93
6, 16800, Note_on_c, 1, 56, 79
6, 16800, Note_on_c, 1, 32, 120
6, 16800, Note_on_c, 1, 44, 93
6, 16830, Note_on_c, 1, 44, 0
6, 16860, Note_on_c, 1, 44, 127
6, 16890, Note_on_c, 1, 56, 0
6, 16890, Note_on_c, 1, 32, 0
6, 16890, Note_on_c, 1, 63, 0
6, 16890, Note_on_c, 1, 59, 0
6, 16890, Note_on_c, 1, 39, 61
6, 16920, Note_on_c, 1, 39, 0
6, 16920, Note_on_c, 1, 44, 0
6, 16920, Note_on_c, 1, 63, 124
6, 16920, Note_on_c, 1, 56, 104
6, 16920, Note_on_c, 1, 59, 112
6, 16980, Note_on_c, 1, 59, 0
6, 16980, Note_on_c, 1, 56, 0
6, 16980, Note_on_c, 1, 63, 0
6, 16980, Note_on_c, 1, 44, 127
6, 17010, Note_on_c, 1, 44, 0
6, 17010, Note_on_c, 1, 63, 89
6, 17010, Note_on_c, 1, 59, 95
6, 17010, Note_on_c, 1, 56, 88
6, 17040, Note_on_c, 1, 56, 0
6, 17040, Note_on_c, 1, 59, 0
6, 17040, Note_on_c, 1, 63, 0
6, 17070, Note_on_c, 1, 63, 106
6, 17070, Note_on_c, 1, 59, 112
6, 17070, Note_on_c, 1, 56, 101
6, 17100, Note_on_c, 1, 56, 0
6, 17100, Note_on_c, 1, 59, 0
6, 17100, Note_on_c, 1, 63, 0
6, 17100, Note_on_c, 1, 44, 127
6, 17130, Note_on_c, 1, 44, 0
6, 17130, Note_on_c, 1, 39, 106
6, 17145, Control_c, 1, 10, 55
6, 17150, Control_c, 1, 10, 53
6, 17160, Note_on_c, 1, 39, 0
6, 17160, Note_on_c, 1, 61, 112
6, 17160, Note_on_c, 1, 56, 101
6, 17160, Note_on_c, 1, 32, 120
6, 17160, Note_on_c, 1, 59, 103
6, 17160, Note_on_c, 1, 34, 71
6, 17184, Control_c, 1, 10, 51
6, 17190, Note_on_c, 1, 34, 0
6, 17220, Note_on_c, 1, 61, 0
6, 17220, Note_on_c, 1, 59, 0
6, 17220, Note_on_c, 1, 63, 74
6, 17220, Note_on_c, 1, 44, 127
6, 17250, Note_on_c, 1, 63, 0
6, 17250, Note_on_c, 1, 56, 0
6, 17250, Note_on_c, 1, 32, 0
6, 17250, Note_on_c, 1, 39, 116
6, 17275, Control_c, 1, 10, 53
6, 17280, Note_on_c, 1, 39, 0
6, 17280, Note_on_c, 1, 44, 0
6, 17280, Note_on_c, 1, 61, 82
6, 17280, Note_on_c, 1, 53, 95
6, 17280, Note_on_c, 1, 56, 101
6, 17280, Note_on_c, 1, 37, 99
6, 17284, Control_c, 1, 10, 71
6, 17284, Control_c, 1, 10, 58
6, 17292, Control_c, 1, 10, 78
6, 17297, Control_c, 1, 10, 81
6, 17328, Control_c, 1, 10, 83
6, 17340, Note_on_c, 1, 37, 0
6, 17340, Note_on_c, 1, 49, 124
6, 17370, Note_on_c, 1, 49, 0
6, 17370, Note_on_c, 1, 56, 0
6, 17370, Note_on_c, 1, 53, 0
6, 17370, Note_on_c, 1, 61, 0
6, 17370, Note_on_c, 1, 44, 109
6, 17400, Note_on_c, 1, 44, 0
6, 17400, Note_on_c, 1, 61, 101
6, 17400, Note_on_c, 1, 56, 112
6, 17400, Note_on_c, 1, 53, 93
6, 17460, Note_on_c, 1, 53, 0
6, 17460, Note_on_c, 1, 56, 0
6, 17460, Note_on_c, 1, 61, 0
6, 17460, Note_on_c, 1, 49, 112
6, 17490, Note_on_c, 1, 49, 0
6, 17490, Note_on_c, 1, 61, 82
6, 17490, Note_on_c, 1, 56, 106
6, 17490, Note_on_c, 1, 53, 87
6, 17520, Note_on_c, 1, 53, 0
6, 17520, Note_on_c, 1, 56, 0
6, 17520, Note_on_c, 1, 61, 0
6, 17550, Note_on_c, 1, 53, 98
6, 17550, Note_on_c, 1, 61, 97
6, 17550, Note_on_c, 1, 56, 116
6, 17580, Note_on_c, 1, 56, 0
6, 17580, Note_on_c, 1, 61, 0
6, 17580, Note_on_c, 1, 53, 0
6, 17580, Note_on_c, 1, 49, 120
6, 17610, Note_on_c, 1, 49, 0
6, 17610, Note_on_c, 1, 44, 106
6, 17640, Note_on_c, 1, 44, 0
6, 17640, Note_on_c, 1, 59, 92
6, 17640, Note_on_c, 1, 37, 127
6, 17640, Note_on_c, 1, 56, 106
6, 17640, Note_on_c, 1, 53, 91
6, 17670, Note_on_c, 1, 59, 0
6, 17700, Note_on_c, 1, 37, 0
6, 17700, Note_on_c, 1, 56, 0
6, 17700, Note_on_c, 1, 49, 124
6, 17700, Note_on_c, 1, 61, 91
6, 17730, Note_on_c, 1, 61, 0
6, 17730, Note_on_c, 1, 49, 0
6, 17730, Note_on_c, 1, 53, 0
6, 17730, Note_on_c, 1, 44, 116
6, 17760, Note_on_c, 1, 44, 0
6, 17760, Note_on_c, 1, 58, 112
6, 17760, Note_on_c, 1, 54, 89
6, 17760, Note_on_c, 1, 49, 104
6, 17760, Note_on_c, 1, 42, 97
6, 17760, Note_on_c, 1, 30, 93
6, 17760, Note_on_c, 1, 41, 110
6, 17760, Note_on_c, 1, 40, 98
6, 17790, Note_on_c, 1, 40, 0
6, 17790, Note_on_c, 1, 30, 0
6, 17790, Note_on_c, 1, 42, 0
6, 17790, Note_on_c, 1, 41, 0
6, 17820, Note_on_c, 1, 42, 124
6, 17850, Note_on_c, 1, 58, 0
6, 17850, Note_on_c, 1, 54, 0
6, 17850, Note_on_c, 1, 49, 0
6, 17880, Note_on_c, 1, 42, 0
6, 17880, Note_on_c, 1, 37, 41
6, 17880, Note_on_c, 1, 49, 95
6, 17880, Note_on_c, 1, 54, 112
6, 17880, Note_on_c, 1, 58, 112
6, 17910, Note_on_c, 1, 37, 0
6, 17940, Note_on_c, 1, 49, 0
6, 17940, Note_on_c, 1, 54, 0
6, 17940, Note_on_c, 1, 58, 0
6, 17940, Note_on_c, 1, 42, 106
6, 17970, Note_on_c, 1, 42, 0
6, 17970, Note_on_c, 1, 58, 116
6, 17970, Note_on_c, 1, 54, 101
6, 17970, Note_on_c, 1, 49, 71
6, 18000, Note_on_c, 1, 49, 0
6, 18000, Note_on_c, 1, 54, 0
6, 18000, Note_on_c, 1, 58, 0
6, 18030, Note_on_c, 1, 58, 116
6, 18030, Note_on_c, 1, 54, 112
6, 18030, Note_on_c, 1, 49, 80
6, 18060, Note_on_c, 1, 49, 0
6, 18060, Note_on_c, 1, 54, 0
6, 18060, Note_on_c, 1, 58, 0
6, 18060, Note_on_c, 1, 42, 124
6, 18090, Note_on_c, 1, 42, 0
6, 18090, Note_on_c, 1, 37, 120
6, 18120, Note_on_c, 1, 37, 0
6, 18120, Note_on_c, 1, 30, 127
6, 18120, Note_on_c, 1, 32, 79
6, 18120, Note_on_c, 1, 54, 101
6, 18120, Note_on_c, 1, 56, 116
6, 18120, Note_on_c, 1, 49, 79
6, 18150, Note_on_c, 1, 32, 0
6, 18180, Note_on_c, 1, 56, 0
6, 18180, Note_on_c, 1, 30, 0
6, 18180, Note_on_c, 1, 54, 0
6, 18180, Note_on_c, 1, 42, 124
6, 18180, Note_on_c, 1, 58, 83
6, 18210, Note_on_c, 1, 58, 0
6, 18210, Note_on_c, 1, 49, 0
6, 18210, Note_on_c, 1, 37, 112
6, 18240, Note_on_c, 1, 37, 0
6, 18240, Note_on_c, 1, 42, 0
6, 18240, Note_on_c, 1, 32, 127
6, 18240, Note_on_c, 1, 34, 101
6, 18240, Note_on_c, 1, 56, 106
6, 18240, Note_on_c, 1, 59, 108
6, 18240, Note_on_c, 1, 51, 89
6, 18270, Note_on_c, 1, 34, 0
6, 18300, Note_on_c, 1, 32, 0
6, 18300, Note_on_c, 1, 44, 116
6, 18330, Note_on_c, 1, 44, 0
6, 18330, Note_on_c, 1, 51, 0
6, 18330, Note_on_c, 1, 56, 0
6, 18330, Note_on_c, 1, 59, 0
6, 18330, Note_on_c, 1, 39, 120
6, 18360, Note_on_c, 1, 39, 0
6, 18360, Note_on_c, 1, 56, 116
6, 18360, Note_on_c, 1, 51, 89
6, 18360, Note_on_c, 1, 59, 110
6, 18383, Control_c, 1, 10, 79
6, 18420, Note_on_c, 1, 59, 0
6, 18420, Note_on_c, 1, 51, 0
6, 18420, Note_on_c, 1, 56, 0
6, 18420, Note_on_c, 1, 44, 116
6, 18442, Control_c, 1, 10, 78
6, 18450, Note_on_c, 1, 44, 0
6, 18450, Note_on_c, 1, 51, 75
6, 18450, Note_on_c, 1, 56, 101
6, 18450, Note_on_c, 1, 59, 100
6, 18479, Control_c, 1, 10, 77
6, 18480, Note_on_c, 1, 59, 0
6, 18480, Note_on_c, 1, 56, 0
6, 18480, Note_on_c, 1, 51, 0
6, 18510, Note_on_c, 1, 56, 112
6, 18510, Note_on_c, 1, 51, 93
6, 18510, Note_on_c, 1, 59, 105
6, 18540, Note_on_c, 1, 59, 0
6, 18540, Note_on_c, 1, 51, 0
6, 18540, Note_on_c, 1, 56, 0
6, 18540, Note_on_c, 1, 44, 116
6, 18570, Note_on_c, 1, 44, 0
6, 18570, Note_on_c, 1, 39, 95
6, 18600, Note_on_c, 1, 39, 0
6, 18600, Note_on_c, 1, 58, 120
6, 18600, Note_on_c, 1, 56, 120
6, 18600, Note_on_c, 1, 51, 93
6, 18600, Note_on_c, 1, 32, 116
6, 18660, Note_on_c, 1, 51, 0
6, 18660, Note_on_c, 1, 58, 0
6, 18660, Note_on_c, 1, 56, 0
6, 18660, Note_on_c, 1, 44, 127
6, 18660, Note_on_c, 1, 59, 82
6, 18690, Note_on_c, 1, 59, 0
6, 18690, Note_on_c, 1, 32, 0
6, 18690, Note_on_c, 1, 39, 109
6, 18720, Note_on_c, 1, 39, 0
6, 18720, Note_on_c, 1, 44, 0
6, 18720, Note_on_c, 1, 56, 101
6, 18720, Note_on_c, 1, 61, 95
6, 18720, Note_on_c, 1, 53, 88
6, 18720, Note_on_c, 1, 37, 120
6, 18780, Note_on_c, 1, 37, 0
6, 18780, Note_on_c, 1, 49, 120
6, 18810, Note_on_c, 1, 49, 0
6, 18810, Note_on_c, 1, 53, 0
6, 18810, Note_on_c, 1, 61, 0
6, 18810, Note_on_c, 1, 56, 0
6, 18810, Note_on_c, 1, 44, 89
6, 18840, Note_on_c, 1, 44, 0
6, 18840, Note_on_c, 1, 61, 101
6, 18840, Note_on_c, 1, 56, 116
6, 18840, Note_on_c, 1, 53, 93
6, 18900, Note_on_c, 1, 53, 0
6, 18900, Note_on_c, 1, 56, 0
6, 18900, Note_on_c, 1, 61, 0
6, 18900, Note_on_c, 1, 49, 109
6, 18930, Note_on_c, 1, 49, 0
6, 18930, Note_on_c, 1, 61, 84
6, 18930, Note_on_c, 1, 56, 104
6, 18930, Note_on_c, 1, 53, 79
6, 18960, Note_on_c, 1, 53, 0
6, 18960, Note_on_c, 1, 56, 0
6, 18960, Note_on_c, 1, 61, 0
6, 18990, Note_on_c, 1, 53, 93
6, 18990, Note_on_c, 1, 56, 112
6, 18990, Note_on_c, 1, 61, 89
6, 19020, Note_on_c, 1, 61, 0
6, 19020, Note_on_c, 1, 56, 0
6, 19020, Note_on_c, 1, 53, 0
6, 19020, Note_on_c, 1, 49, 104
6, 19050, Note_on_c, 1, 49, 0
6, 19050, Note_on_c, 1, 44, 104
6, 19080, Note_on_c, 1, 44, 0
6, 19080, Note_on_c, 1, 37, 124
6, 19110, Note_on_c, 1, 37, 0
6, 19110, Note_on_c, 1, 54, 112
6, 19110, Note_on_c, 1, 51, 106
6, 19110, Note_on_c, 1, 59, 112
6, 19140, Note_on_c, 1, 59, 0
6, 19140, Note_on_c, 1, 51, 0
6, 19140, Note_on_c, 1, 54, 0
6, 19140, Note_on_c, 1, 49, 124
6, 19170, Note_on_c, 1, 49, 0
6, 19170, Note_on_c, 1, 44, 109
6, 19200, Note_on_c, 1, 44, 0
6, 19200, Note_on_c, 1, 37, 124
6, 19200, Note_on_c, 1, 53, 95
6, 19200, Note_on_c, 1, 61, 101
6, 19200, Note_on_c, 1, 56, 120
6, 19260, Note_on_c, 1, 37, 0
6, 19260, Note_on_c, 1, 49, 120
6, 19290, Note_on_c, 1, 49, 0
6, 19290, Note_on_c, 1, 56, 0
6, 19290, Note_on_c, 1, 61, 0
6, 19290, Note_on_c, 1, 53, 0
6, 19290, Note_on_c, 1, 44, 120
6, 19320, Note_on_c, 1, 44, 0
6, 19320, Note_on_c, 1, 53, 93
6, 19320, Note_on_c, 1, 56, 116
6, 19320, Note_on_c, 1, 61, 109
6, 19380, Note_on_c, 1, 61, 0
6, 19380, Note_on_c, 1, 56, 0
6, 19380, Note_on_c, 1, 53, 0
6, 19380, Note_on_c, 1, 49, 120
6, 19410, Note_on_c, 1, 49, 0
6, 19410, Note_on_c, 1, 61, 86
6, 19410, Note_on_c, 1, 56, 106
6, 19410, Note_on_c, 1, 53, 80
6, 19440, Note_on_c, 1, 53, 0
6, 19440, Note_on_c, 1, 56, 0
6, 19440, Note_on_c, 1, 61, 0
6, 19470, Note_on_c, 1, 53, 106
6, 19470, Note_on_c, 1, 61, 101
6, 19470, Note_on_c, 1, 56, 127
6, 19500, Note_on_c, 1, 56, 0
6, 19500, Note_on_c, 1, 61, 0
6, 19500, Note_on_c, 1, 53, 0
6, 19500, Note_on_c, 1, 49, 116
6, 19530, Note_on_c, 1, 49, 0
6, 19530, Note_on_c, 1, 44, 109
6, 19560, Note_on_c, 1, 44, 0
6, 19560, Note_on_c, 1, 37, 124
6, 19560, Note_on_c, 1, 61, 93
6, 19560, Note_on_c, 1, 56, 109
6, 19560, Note_on_c, 1, 53, 93
6, 19620, Note_on_c, 1, 56, 0
6, 19620, Note_on_c, 1, 37, 0
6, 19620, Note_on_c, 1, 61, 0
6, 19620, Note_on_c, 1, 49, 112
6, 19650, Note_on_c, 1, 49, 0
6, 19650, Note_on_c, 1, 53, 0
6, 19680, Note_on_c, 1, 35, 99
6, 19680, Note_on_c, 1, 63, 99
6, 19680, Note_on_c, 1, 59, 110
6, 19680, Note_on_c, 1, 47, 106
6, 19680, Note_on_c, 1, 54, 95
6, 19710, Note_on_c, 1, 47, 0
6, 19740, Note_on_c, 1, 47, 96
6, 19770, Note_on_c, 1, 59, 0
6, 19770, Note_on_c, 1, 54, 0
6, 19770, Note_on_c, 1, 63, 0
6, 19800, Note_on_c, 1, 35, 0
6, 19800, Note_on_c, 1, 59, 114
6, 19800, Note_on_c, 1, 54, 101
6, 19800, Note_on_c, 1, 63, 101
6, 19830, Note_on_c, 1, 47, 0
6, 19860, Note_on_c, 1, 59, 0
6, 19860, Note_on_c, 1, 54, 0
6, 19860, Note_on_c, 1, 63, 0
6, 19860, Note_on_c, 1, 47, 121
6, 19890, Note_on_c, 1, 47, 0
6, 19890, Note_on_c, 1, 59, 114
6, 19890, Note_on_c, 1, 63, 95
6, 19890, Note_on_c, 1, 54, 88
6, 19920, Note_on_c, 1, 54, 0
6, 19920, Note_on_c, 1, 63, 0
6, 19920, Note_on_c, 1, 59, 0
6, 19950, Note_on_c, 1, 58, 101
6, 19950, Note_on_c, 1, 63, 95
6, 19950, Note_on_c, 1, 59, 119
6, 19950, Note_on_c, 1, 54, 104
6, 19980, Note_on_c, 1, 54, 0
6, 19980, Note_on_c, 1, 58, 0
6, 19980, Note_on_c, 1, 63, 0
6, 19980, Note_on_c, 1, 59, 0
6, 19980, Note_on_c, 1, 47, 100
6, 20010, Note_on_c, 1, 47, 0
6, 20010, Note_on_c, 1, 42, 112
6, 20040, Note_on_c, 1, 42, 0
6, 20040, Note_on_c, 1, 35, 119
6, 20040, Note_on_c, 1, 61, 109
6, 20040, Note_on_c, 1, 54, 106
6, 20040, Note_on_c, 1, 59, 110
6, 20070, Note_on_c, 1, 59, 0
6, 20100, Note_on_c, 1, 35, 0
6, 20100, Note_on_c, 1, 61, 0
6, 20100, Note_on_c, 1, 54, 0
6, 20100, Note_on_c, 1, 47, 121
6, 20100, Note_on_c, 1, 63, 91
6, 20100, Note_on_c, 1, 54, 61
6, 20130, Note_on_c, 1, 54, 0
6, 20130, Note_on_c, 1, 63, 0
6, 20130, Note_on_c, 1, 47, 0
6, 20130, Note_on_c, 1, 42, 116
6, 20160, Note_on_c, 1, 42, 0
6, 20160, Note_on_c, 1, 45, 103
6, 20160, Note_on_c, 1, 61, 109
6, 20160, Note_on_c, 1, 57, 100
6, 20160, Note_on_c, 1, 59, 108
6, 20160, Note_on_c, 1, 33, 102
6, 20160, Note_on_c, 1, 64, 106
6, 20190, Note_on_c, 1, 45, 0
6, 20220, Note_on_c, 1, 45, 114
6, 20250, Note_on_c, 1, 45, 0
6, 20250, Note_on_c, 1, 64, 0
6, 20250, Note_on_c, 1, 59, 0
6, 20250, Note_on_c, 1, 61, 0
6, 20250, Note_on_c, 1, 57, 0
6, 20250, Note_on_c, 1, 33, 0
6, 20250, Note_on_c, 1, 40, 110
6, 20280, Note_on_c, 1, 40, 0
6, 20280, Note_on_c, 1, 57, 108
6, 20280, Note_on_c, 1, 61, 106
6, 20280, Note_on_c, 1, 64, 117
6, 20280, Note_on_c, 1, 59, 112
6, 20340, Note_on_c, 1, 59, 0
6, 20340, Note_on_c, 1, 57, 0
6, 20340, Note_on_c, 1, 61, 0
6, 20340, Note_on_c, 1, 64, 0
6, 20340, Note_on_c, 1, 45, 90
6, 20370, Note_on_c, 1, 45, 0
6, 20370, Note_on_c, 1, 64, 99
6, 20370, Note_on_c, 1, 61, 106
6, 20370, Note_on_c, 1, 57, 84
6, 20370, Note_on_c, 1, 59, 94
6, 20400, Note_on_c, 1, 59, 0
6, 20400, Note_on_c, 1, 64, 0
6, 20400, Note_on_c, 1, 61, 0
6, 20400, Note_on_c, 1, 57, 0
6, 20430, Note_on_c, 1, 64, 103
6, 20430, Note_on_c, 1, 61, 120
6, 20430, Note_on_c, 1, 57, 103
6, 20430, Note_on_c, 1, 59, 106
6, 20460, Note_on_c, 1, 59, 0
6, 20460, Note_on_c, 1, 64, 0
6, 20460, Note_on_c, 1, 61, 0
6, 20460, Note_on_c, 1, 57, 0
6, 20460, Note_on_c, 1, 45, 105
6, 20490, Note_on_c, 1, 45, 0
6, 20490, Note_on_c, 1, 40, 92
6, 20520, Note_on_c, 1, 40, 0
6, 20520, Note_on_c, 1, 63, 99
6, 20520, Note_on_c, 1, 59, 108
6, 20520, Note_on_c, 1, 57, 91
6, 20520, Note_on_c, 1, 33, 127
6, 20580, Note_on_c, 1, 63, 0
6, 20580, Note_on_c, 1, 64, 89
6, 20580, Note_on_c, 1, 45, 121
6, 20610, Note_on_c, 1, 45, 0
6, 20610, Note_on_c, 1, 59, 0
6, 20610, Note_on_c, 1, 33, 0
6, 20610, Note_on_c, 1, 57, 0
6, 20610, Note_on_c, 1, 64, 0
6, 20610, Note_on_c, 1, 40, 112
6, 20640, Note_on_c, 1, 40, 0
6, 20640, Note_on_c, 1, 63, 72
6, 20640, Note_on_c, 1, 59, 93
6, 20640, Note_on_c, 1, 56, 79
6, 20640, Note_on_c, 1, 32, 120
6, 20640, Note_on_c, 1, 44, 93
6, 20670, Note_on_c, 1, 44, 0
6, 20700, Note_on_c, 1, 44, 127
6, 20730, Note_on_c, 1, 56, 0
6, 20730, Note_on_c, 1, 32, 0
6, 20730, Note_on_c, 1, 63, 0
6, 20730, Note_on_c, 1, 59, 0
6, 20730, Note_on_c, 1, 39, 61
6, 20760, Note_on_c, 1, 39, 0
6, 20760, Note_on_c, 1, 44, 0
6, 20760, Note_on_c, 1, 63, 124
6, 20760, Note_on_c, 1, 56, 104
6, 20760, Note_on_c, 1, 59, 112
6, 20820, Note_on_c, 1, 59, 0
6, 20820, Note_on_c, 1, 56, 0
6, 20820, Note_on_c, 1, 63, 0
6, 20820, Note_on_c, 1, 44, 127
6, 20850, Note_on_c, 1, 44, 0
6, 20850, Note_on_c, 1, 63, 89
6, 20850, Note_on_c, 1, 59, 95
6, 20850, Note_on_c, 1, 56, 88
6, 20880, Note_on_c, 1, 56, 0
6, 20880, Note_on_c, 1, 59, 0
6, 20880, Note_on_c, 1, 63, 0
6, 20910, Note_on_c, 1, 63, 106
6, 20910, Note_on_c, 1, 59, 112
6, 20910, Note_on_c, 1, 56, 101
6, 20940, Note_on_c, 1, 56, 0
6, 20940, Note_on_c, 1, 59, 0
6, 20940, Note_on_c, 1, 63, 0
6, 20940, Note_on_c, 1, 44, 127
6, 20970, Note_on_c, 1, 44, 0
6, 20970, Note_on_c, 1, 39, 106
6, 21000, Note_on_c, 1, 39, 0
6, 21000, Note_on_c, 1, 61, 112
6, 21000, Note_on_c, 1, 56, 101
6, 21000, Note_on_c, 1, 32, 120
6, 21000, Note_on_c, 1, 59, 103
6, 21000, Note_on_c, 1, 34, 71
6, 21030, Note_on_c, 1, 34, 0
6, 21060, Note_on_c, 1, 61, 0
6, 21060, Note_on_c, 1, 59, 0
6, 21060, Note_on_c, 1, 63, 74
6, 21060, Note_on_c, 1, 44, 127
6, 21090, Note_on_c, 1, 63, 0
6, 21090, Note_on_c, 1, 56, 0
6, 21090, Note_on_c, 1, 32, 0
6, 21090, Note_on_c, 1, 39, 116
6, 21120, Note_on_c, 1, 39, 0
6, 21120, Note_on_c, 1, 44, 0
6, 21120, Note_on_c, 1, 61, 82
6, 21120, Note_on_c, 1, 53, 95
6, 21120, Note_on_c, 1, 56, 101
6, 21120, Note_on_c, 1, 37, 99
6, 21180, Note_on_c, 1, 37, 0
6, 21180, Note_on_c, 1, 49, 124
6, 21210, Note_on_c, 1, 49, 0
6, 21210, Note_on_c, 1, 56, 0
6, 21210, Note_on_c, 1, 53, 0
6, 21210, Note_on_c, 1, 61, 0
6, 21210, Note_on_c, 1, 44, 109
6, 21240, Note_on_c, 1, 44, 0
6, 21240, Note_on_c, 1, 61, 101
6, 21240, Note_on_c, 1, 56, 112
6, 21240, Note_on_c, 1, 53, 93
6, 21300, Note_on_c, 1, 53, 0
6, 21300, Note_on_c, 1, 56, 0
6, 21300, Note_on_c, 1, 61, 0
6, 21300, Note_on_c, 1, 49, 112
6, 21330, Note_on_c, 1, 49, 0
6, 21330, Note_on_c, 1, 61, 82
6, 21330, Note_on_c, 1, 56, 106
6, 21330, Note_on_c, 1, 53, 87
6, 21360, Note_on_c, 1, 53, 0
6, 21360, Note_on_c, 1, 56, 0
6, 21360, Note_on_c, 1, 61, 0
6, 21390, Note_on_c, 1, 53, 98
6, 21390, Note_on_c, 1, 61, 97
6, 21390, Note_on_c, 1, 56, 116
6, 21420, Note_on_c, 1, 56, 0
6, 21420, Note_on_c, 1, 61, 0
6, 21420, Note_on_c, 1, 53, 0
6, 21420, Note_on_c, 1, 49, 120
6, 21450, Note_on_c, 1, 49, 0
6, 21450, Note_on_c, 1, 44, 106
6, 21480, Note_on_c, 1, 44, 0
6, 21480, Note_on_c, 1, 59, 92
6, 21480, Note_on_c, 1, 37, 127
6, 21480, Note_on_c, 1, 56, 106
6, 21480, Note_on_c, 1, 53, 91
6, 21510, Note_on_c, 1, 59, 0
6, 21540, Note_on_c, 1, 37, 0
6, 21540, Note_on_c, 1, 56, 0
6, 21540, Note_on_c, 1, 49, 124
6, 21540, Note_on_c, 1, 61, 91
6, 21570, Note_on_c, 1, 61, 0
6, 21570, Note_on_c, 1, 49, 0
6, 21570, Note_on_c, 1, 53, 0
6, 21570, Note_on_c, 1, 44, 116
6, 21600, Note_on_c, 1, 44, 0
6, 21600, Note_on_c, 1, 58, 112
6, 21600, Note_on_c, 1, 54, 89
6, 21600, Note_on_c, 1, 49, 104
6, 21600, Note_on_c, 1, 42, 97
6, 21600, Note_on_c, 1, 30, 93
6, 21600, Note_on_c, 1, 41, 110
6, 21600, Note_on_c, 1, 40, 98
6, 21630, Note_on_c, 1, 40, 0
6, 21630, Note_on_c, 1, 30, 0
6, 21630, Note_on_c, 1, 42, 0
6, 21630, Note_on_c, 1, 41, 0
6, 21660, Note_on_c, 1, 42, 124
6, 21690, Note_on_c, 1, 58, 0
6, 21690, Note_on_c, 1, 54, 0
6, 21690, Note_on_c, 1, 49, 0
6, 21720, Note_on_c, 1, 42, 0
6, 21720, Note_on_c, 1, 37, 41
6, 21720, Note_on_c, 1, 49, 95
6, 21720, Note_on_c, 1, 54, 112
6, 21720, Note_on_c, 1, 58, 112
6, 21750, Note_on_c, 1, 37, 0
6, 21780, Note_on_c, 1, 49, 0
6, 21780, Note_on_c, 1, 54, 0
6, 21780, Note_on_c, 1, 58, 0
6, 21780, Note_on_c, 1, 42, 106
6, 21810, Note_on_c, 1, 42, 0
6, 21810, Note_on_c, 1, 58, 116
6, 21810, Note_on_c, 1, 54, 101
6, 21810, Note_on_c, 1, 49, 71
6, 21840, Note_on_c, 1, 49, 0
6, 21840, Note_on_c, 1, 54, 0
6, 21840, Note_on_c, 1, 58, 0
6, 21870, Note_on_c, 1, 58, 116
6, 21870, Note_on_c, 1, 54, 112
6, 21870, Note_on_c, 1, 49, 80
6, 21900, Note_on_c, 1, 49, 0
6, 21900, Note_on_c, 1, 54, 0
6, 21900, Note_on_c, 1, 58, 0
6, 21900, Note_on_c, 1, 42, 124
6, 21930, Note_on_c, 1, 42, 0
6, 21930, Note_on_c, 1, 37, 120
6, 21960, Note_on_c, 1, 37, 0
6, 21960, Note_on_c, 1, 30, 127
6, 21960, Note_on_c, 1, 32, 79
6, 21960, Note_on_c, 1, 54, 101
6, 21960, Note_on_c, 1, 56, 116
6, 21960, Note_on_c, 1, 49, 79
6, 21990, Note_on_c, 1, 32, 0
6, 22020, Note_on_c, 1, 56, 0
6, 22020, Note_on_c, 1, 30, 0
6, 22020, Note_on_c, 1, 54, 0
6, 22020, Note_on_c, 1, 42, 124
6, 22020, Note_on_c, 1, 58, 83
6, 22050, Note_on_c, 1, 58, 0
6, 22050, Note_on_c, 1, 49, 0
6, 22050, Note_on_c, 1, 37, 112
6, 22080, Note_on_c, 1, 37, 0
6, 22080, Note_on_c, 1, 42, 0
6, 22080, Note_on_c, 1, 32, 127
6, 22080, Note_on_c, 1, 34, 101
6, 22080, Note_on_c, 1, 56, 106
6, 22080, Note_on_c, 1, 59, 108
6, 22080, Note_on_c, 1, 51, 89
6, 22110, Note_on_c, 1, 34, 0
6, 22140, Note_on_c, 1, 32, 0
6, 22140, Note_on_c, 1, 44, 116
6, 22170, Note_on_c, 1, 44, 0
6, 22170, Note_on_c, 1, 51, 0
6, 22170, Note_on_c, 1, 56, 0
6, 22170, Note_on_c, 1, 59, 0
6, 22170, Note_on_c, 1, 39, 120
6, 22200, Note_on_c, 1, 39, 0
6, 22200, Note_on_c, 1, 56, 116
6, 22200, Note_on_c, 1, 51, 89
6, 22200, Note_on_c, 1, 59, 110
6, 22260, Note_on_c, 1, 59, 0
6, 22260, Note_on_c, 1, 51, 0
6, 22260, Note_on_c, 1, 56, 0
6, 22260, Note_on_c, 1, 44, 116
6, 22290, Note_on_c, 1, 44, 0
6, 22290, Note_on_c, 1, 51, 75
6, 22290, Note_on_c, 1, 56, 101
6, 22290, Note_on_c, 1, 59, 100
6, 22320, Note_on_c, 1, 59, 0
6, 22320, Note_on_c, 1, 56, 0
6, 22320, Note_on_c, 1, 51, 0
6, 22350, Note_on_c, 1, 56, 112
6, 22350, Note_on_c, 1, 51, 93
6, 22350, Note_on_c, 1, 59, 105
6, 22380, Note_on_c, 1, 59, 0
6, 22380, Note_on_c, 1, 51, 0
6, 22380, Note_on_c, 1, 56, 0
6, 22380, Note_on_c, 1, 44, 116
6, 22410, Note_on_c, 1, 44, 0
6, 22410, Note_on_c, 1, 39, 95
6, 22440, Note_on_c, 1, 39, 0
6, 22440, Note_on_c, 1, 58, 120
6, 22440, Note_on_c, 1, 56, 120
6, 22440, Note_on_c, 1, 51, 93
6, 22440, Note_on_c, 1, 32, 116
6, 22500, Note_on_c, 1, 51, 0
6, 22500, Note_on_c, 1, 58, 0
6, 22500, Note_on_c, 1, 56, 0
6, 22500, Note_on_c, 1, 44, 127
6, 22500, Note_on_c, 1, 59, 82
6, 22530, Note_on_c, 1, 59, 0
6, 22530, Note_on_c, 1, 32, 0
6, 22530, Note_on_c, 1, 39, 109
6, 22560, Note_on_c, 1, 39, 0
6, 22560, Note_on_c, 1, 44, 0
6, 22560, Note_on_c, 1, 56, 101
6, 22560, Note_on_c, 1, 61, 95
6, 22560, Note_on_c, 1, 53, 88
6, 22560, Note_on_c, 1, 37, 120
6, 22620, Note_on_c, 1, 37, 0
6, 22620, Note_on_c, 1, 49, 120
6, 22650, Note_on_c, 1, 49, 0
6, 22650, Note_on_c, 1, 53, 0
6, 22650, Note_on_c, 1, 61, 0
6, 22650, Note_on_c, 1, 56, 0
6, 22650, Note_on_c, 1, 44, 89
6, 22680, Note_on_c, 1, 44, 0
6, 22680, Note_on_c, 1, 61, 101
6, 22680, Note_on_c, 1, 56, 116
6, 22680, Note_on_c, 1, 53, 93
6, 22740, Note_on_c, 1, 53, 0
6, 22740, Note_on_c, 1, 56, 0
6, 22740, Note_on_c, 1, 61, 0
6, 22740, Note_on_c, 1, 49, 109
6, 22770, Note_on_c, 1, 49, 0
6, 22770, Note_on_c, 1, 61, 84
6, 22770, Note_on_c, 1, 56, 104
6, 22770, Note_on_c, 1, 53, 79
6, 22800, Note_on_c, 1, 53, 0
6, 22800, Note_on_c, 1, 56, 0
6, 22800, Note_on_c, 1, 61, 0
6, 22830, Note_on_c, 1, 53, 93
6, 22830, Note_on_c, 1, 56, 112
6, 22830, Note_on_c, 1, 61, 89
6, 22860, Note_on_c, 1, 61, 0
6, 22860, Note_on_c, 1, 56, 0
6, 22860, Note_on_c, 1, 53, 0
6, 22860, Note_on_c, 1, 49, 104
6, 22890, Note_on_c, 1, 49, 0
6, 22890, Note_on_c, 1, 44, 104
6, 22920, Note_on_c, 1, 44, 0
6, 22920, Note_on_c, 1, 37, 124
6, 22950, Note_on_c, 1, 37, 0
6, 22950, Note_on_c, 1, 54, 112
6, 22950, Note_on_c, 1, 51, 106
6, 22950, Note_on_c, 1, 59, 112
6, 22980, Note_on_c, 1, 59, 0
6, 22980, Note_on_c, 1, 51, 0
6, 22980, Note_on_c, 1, 54, 0
6, 22980, Note_on_c, 1, 49, 124
6, 23010, Note_on_c, 1, 49, 0
6, 23010, Note_on_c, 1, 44, 109
6, 23040, Note_on_c, 1, 44, 0
6, 23040, Note_on_c, 1, 37, 124
6, 23040, Note_on_c, 1, 53, 95
6, 23040, Note_on_c, 1, 61, 101
6, 23040, Note_on_c, 1, 56, 120
6, 23100, Note_on_c, 1, 37, 0
6, 23100, Note_on_c, 1, 49, 120
6, 23130, Note_on_c, 1, 49, 0
6, 23130, Note_on_c, 1, 56, 0
6, 23130, Note_on_c, 1, 61, 0
6, 23130, Note_on_c, 1, 53, 0
6, 23130, Note_on_c, 1, 44, 120
6, 23160, Note_on_c, 1, 44, 0
6, 23160, Note_on_c, 1, 53, 93
6, 23160, Note_on_c, 1, 56, 116
6, 23160, Note_on_c, 1, 61, 109
6, 23220, Note_on_c, 1, 61, 0
6, 23220, Note_on_c, 1, 56, 0
6, 23220, Note_on_c, 1, 53, 0
6, 23220, Note_on_c, 1, 49, 120
6, 23250, Note_on_c, 1, 49, 0
6, 23250, Note_on_c, 1, 61, 86
6, 23250, Note_on_c, 1, 56, 106
6, 23250, Note_on_c, 1, 53, 80
6, 23280, Note_on_c, 1, 53, 0
6, 23280, Note_on_c, 1, 56, 0
6, 23280, Note_on_c, 1, 61, 0
6, 23310, Note_on_c, 1, 53, 106
6, 23310, Note_on_c, 1, 61, 101
6, 23310, Note_on_c, 1, 56, 127
6, 23340, Note_on_c, 1, 56, 0
6, 23340, Note_on_c, 1, 61, 0
6, 23340, Note_on_c, 1, 53, 0
6, 23340, Note_on_c, 1, 49, 116
6, 23370, Note_on_c, 1, 49, 0
6, 23370, Note_on_c, 1, 44, 109
6, 23400, Note_on_c, 1, 44, 0
6, 23400, Note_on_c, 1, 37, 124
6, 23400, Note_on_c, 1, 61, 93
6, 23400, Note_on_c, 1, 56, 109
6, 23400, Note_on_c, 1, 53, 93
6, 23460, Note_on_c, 1, 56, 0
6, 23460, Note_on_c, 1, 37, 0
6, 23460, Note_on_c, 1, 61, 0
6, 23460, Note_on_c, 1, 49, 112
6, 23490, Note_on_c, 1, 49, 0
6, 23490, Note_on_c, 1, 53, 0
6, 31200, Note_on_c, 1, 35, 99
6, 31200, Note_on_c, 1, 63, 99
6, 31200, Note_on_c, 1, 59, 110
6, 31200, Note_on_c, 1, 47, 106
6, 31200, Note_on_c, 1, 54, 95
6, 31230, Note_on_c, 1, 47, 0
6, 31260, Note_on_c, 1, 47, 96
6, 31290, Note_on_c, 1, 59, 0
6, 31290, Note_on_c, 1, 54, 0
6, 31290, Note_on_c, 1, 63, 0
6, 31320, Note_on_c, 1, 35, 0
6, 31320, Note_on_c, 1, 59, 114
6, 31320, Note_on_c, 1, 54, 101
6, 31320, Note_on_c, 1, 63, 101
6, 31350, Note_on_c, 1, 47, 0
6, 31380, Note_on_c, 1, 59, 0
6, 31380, Note_on_c, 1, 54, 0
6, 31380, Note_on_c, 1, 63, 0
6, 31380, Note_on_c, 1, 47, 121
6, 31410, Note_on_c, 1, 47, 0
6, 31410, Note_on_c, 1, 59, 114
6, 31410, Note_on_c, 1, 63, 95
6, 31410, Note_on_c, 1, 54, 88
6, 31440, Note_on_c, 1, 54, 0
6, 31440, Note_on_c, 1, 63, 0
6, 31440, Note_on_c, 1, 59, 0
6, 31470, Note_on_c, 1, 58, 101
6, 31470, Note_on_c, 1, 63, 95
6, 31470, Note_on_c, 1, 59, 119
6, 31470, Note_on_c, 1, 54, 104
6, 31500, Note_on_c, 1, 54, 0
6, 31500, Note_on_c, 1, 58, 0
6, 31500, Note_on_c, 1, 63, 0
6, 31500, Note_on_c, 1, 59, 0
6, 31500, Note_on_c, 1, 47, 100
6, 31530, Note_on_c, 1, 47, 0
6, 31530, Note_on_c, 1, 42, 112
6, 31560, Note_on_c, 1, 42, 0
6, 31560, Note_on_c, 1, 35, 119
6, 31560, Note_on_c, 1, 61, 109
6, 31560, Note_on_c, 1, 54, 106
6, 31560, Note_on_c, 1, 59, 110
6, 31590, Note_on_c, 1, 59, 0
6, 31620, Note_on_c, 1, 35, 0
6, 31620, Note_on_c, 1, 61, 0
6, 31620, Note_on_c, 1, 54, 0
6, 31620, Note_on_c, 1, 47, 121
6, 31620, Note_on_c, 1, 63, 91
6, 31620, Note_on_c, 1, 54, 61
6, 31650, Note_on_c, 1, 54, 0
6, 31650, Note_on_c, 1, 63, 0
6, 31650, Note_on_c, 1, 47, 0
6, 31650, Note_on_c, 1, 42, 116
6, 31680, Note_on_c, 1, 42, 0
6, 31680, Note_on_c, 1, 45, 103
6, 31680, Note_on_c, 1, 61, 109
6, 31680, Note_on_c, 1, 57, 100
6, 31680, Note_on_c, 1, 59, 108
6, 31680, Note_on_c, 1, 33, 102
6, 31680, Note_on_c, 1, 64, 106
6, 31710, Note_on_c, 1, 45, 0
6, 31740, Note_on_c, 1, 45, 114
6, 31770, Note_on_c, 1, 45, 0
6, 31770, Note_on_c, 1, 64, 0
6, 31770, Note_on_c, 1, 59, 0
6, 31770, Note_on_c, 1, 61, 0
6, 31770, Note_on_c, 1, 57, 0
6, 31770, Note_on_c, 1, 33, 0
6, 31770, Note_on_c, 1, 40, 110
6, 31800, Note_on_c, 1, 40, 0
6, 31800, Note_on_c, 1, 57, 108
6, 31800, Note_on_c, 1, 61, 106
6, 31800, Note_on_c, 1, 64, 117
6, 31800, Note_on_c, 1, 59, 112
6, 31860, Note_on_c, 1, 59, 0
6, 31860, Note_on_c, 1, 57, 0
6, 31860, Note_on_c, 1, 61, 0
6, 31860, Note_on_c, 1, 64, 0
6, 31860, Note_on_c, 1, 45, 90
6, 31890, Note_on_c, 1, 45, 0
6, 31890, Note_on_c, 1, 64, 99
6, 31890, Note_on_c, 1, 61, 106
6, 31890, Note_on_c, 1, 57, 84
6, 31890, Note_on_c, 1, 59, 94
6, 31920, Note_on_c, 1, 59, 0
6, 31920, Note_on_c, 1, 64, 0
6, 31920, Note_on_c, 1, 61, 0
6, 31920, Note_on_c, 1, 57, 0
6, 31950, Note_on_c, 1, 64, 103
6, 31950, Note_on_c, 1, 61, 120
6, 31950, Note_on_c, 1, 57, 103
6, 31950, Note_on_c, 1, 59, 106
6, 31980, Note_on_c, 1, 59, 0
6, 31980, Note_on_c, 1, 64, 0
6, 31980, Note_on_c, 1, 61, 0
6, 31980, Note_on_c, 1, 57, 0
6, 31980, Note_on_c, 1, 45, 105
6, 32010, Note_on_c, 1, 45, 0
6, 32010, Note_on_c, 1, 40, 92
6, 32040, Note_on_c, 1, 40, 0
6, 32040, Note_on_c, 1, 63, 99
6, 32040, Note_on_c, 1, 59, 108
6, 32040, Note_on_c, 1, 57, 91
6, 32040, Note_on_c, 1, 33, 127
6, 32100, Note_on_c, 1, 63, 0
6, 32100, Note_on_c, 1, 64, 89
6, 32100, Note_on_c, 1, 45, 121
6, 32130, Note_on_c, 1, 45, 0
6, 32130, Note_on_c, 1, 59, 0
6, 32130, Note_on_c, 1, 33, 0
6, 32130, Note_on_c, 1, 57, 0
6, 32130, Note_on_c, 1, 64, 0
6, 32130, Note_on_c, 1, 40, 112
6, 32160, Note_on_c, 1, 40, 0
6, 32160, Note_on_c, 1, 63, 72
6, 32160, Note_on_c, 1, 59, 93
6, 32160, Note_on_c, 1, 56, 79
6, 32160, Note_on_c, 1, 32, 120
6, 32160, Note_on_c, 1, 44, 93
6, 32190, Note_on_c, 1, 44, 0
6, 32220, Note_on_c, 1, 44, 127
6, 32250, Note_on_c, 1, 56, 0
6, 32250, Note_on_c, 1, 32, 0
6, 32250, Note_on_c, 1, 63, 0
6, 32250, Note_on_c, 1, 59, 0
6, 32250, Note_on_c, 1, 39, 61
6, 32280, Note_on_c, 1, 39, 0
6, 32280, Note_on_c, 1, 44, 0
6, 32280, Note_on_c, 1, 63, 124
6, 32280, Note_on_c, 1, 56, 104
6, 32280, Note_on_c, 1, 59, 112
6, 32340, Note_on_c, 1, 59, 0
6, 32340, Note_on_c, 1, 56, 0
6, 32340, Note_on_c, 1, 63, 0
6, 32340, Note_on_c, 1, 44, 127
6, 32370, Note_on_c, 1, 44, 0
6, 32370, Note_on_c, 1, 63, 89
6, 32370, Note_on_c, 1, 59, 95
6, 32370, Note_on_c, 1, 56, 88
6, 32400, Note_on_c, 1, 56, 0
6, 32400, Note_on_c, 1, 59, 0
6, 32400, Note_on_c, 1, 63, 0
6, 32430, Note_on_c, 1, 63, 106
6, 32430, Note_on_c, 1, 59, 112
6, 32430, Note_on_c, 1, 56, 101
6, 32460, Note_on_c, 1, 56, 0
6, 32460, Note_on_c, 1, 59, 0
6, 32460, Note_on_c, 1, 63, 0
6, 32460, Note_on_c, 1, 44, 127
6, 32490, Note_on_c, 1, 44, 0
6, 32490, Note_on_c, 1, 39, 106
6, 32520, Note_on_c, 1, 39, 0
6, 32520, Note_on_c, 1, 61, 112
6, 32520, Note_on_c, 1, 56, 101
6, 32520, Note_on_c, 1, 32, 120
6, 32520, Note_on_c, 1, 59, 103
6, 32520, Note_on_c, 1, 34, 71
6, 32550, Note_on_c, 1, 34, 0
6, 32580, Note_on_c, 1, 61, 0
6, 32580, Note_on_c, 1, 59, 0
6, 32580, Note_on_c, 1, 63, 74
6, 32580, Note_on_c, 1, 44, 127
6, 32610, Note_on_c, 1, 63, 0
6, 32610, Note_on_c, 1, 56, 0
6, 32610, Note_on_c, 1, 32, 0
6, 32610, Note_on_c, 1, 39, 116
6, 32640, Note_on_c, 1, 39, 0
6, 32640, Note_on_c, 1, 44, 0
6, 32640, Note_on_c, 1, 61, 82
6, 32640, Note_on_c, 1, 53, 95
6, 32640, Note_on_c, 1, 56, 101
6, 32640, Note_on_c, 1, 37, 99
6, 32700, Note_on_c, 1, 37, 0
6, 32700, Note_on_c, 1, 49, 124
6, 32730, Note_on_c, 1, 49, 0
6, 32730, Note_on_c, 1, 56, 0
6, 32730, Note_on_c, 1, 53, 0
6, 32730, Note_on_c, 1, 61, 0
6, 32730, Note_on_c, 1, 44, 109
6, 32760, Note_on_c, 1, 44, 0
6, 32760, Note_on_c, 1, 61, 101
6, 32760, Note_on_c, 1, 56, 112
6, 32760, Note_on_c, 1, 53, 93
6, 32820, Note_on_c, 1, 53, 0
6, 32820, Note_on_c, 1, 56, 0
6, 32820, Note_on_c, 1, 61, 0
6, 32820, Note_on_c, 1, 49, 112
6, 32850, Note_on_c, 1, 49, 0
6, 32850, Note_on_c, 1, 61, 82
6, 32850, Note_on_c, 1, 56, 106
6, 32850, Note_on_c, 1, 53, 87
6, 32880, Note_on_c, 1, 53, 0
6, 32880, Note_on_c, 1, 56, 0
6, 32880, Note_on_c, 1, 61, 0
6, 32910, Note_on_c, 1, 53, 98
6, 32910, Note_on_c, 1, 61, 97
6, 32910, Note_on_c, 1, 56, 116
6, 32940, Note_on_c, 1, 56, 0
6, 32940, Note_on_c, 1, 61, 0
6, 32940, Note_on_c, 1, 53, 0
6, 32940, Note_on_c, 1, 49, 120
6, 32970, Note_on_c, 1, 49, 0
6, 32970, Note_on_c, 1, 44, 106
6, 33000, Note_on_c, 1, 44, 0
6, 33000, Note_on_c, 1, 59, 92
6, 33000, Note_on_c, 1, 37, 127
6, 33000, Note_on_c, 1, 56, 106
6, 33000, Note_on_c, 1, 53, 91
6, 33030, Note_on_c, 1, 59, 0
6, 33060, Note_on_c, 1, 37, 0
6, 33060, Note_on_c, 1, 56, 0
6, 33060, Note_on_c, 1, 49, 124
6, 33060, Note_on_c, 1, 61, 91
6, 33090, Note_on_c, 1, 61, 0
6, 33090, Note_on_c, 1, 49, 0
6, 33090, Note_on_c, 1, 53, 0
6, 33090, Note_on_c, 1, 44, 116
6, 33120, Note_on_c, 1, 44, 0
6, 33120, Note_on_c, 1, 58, 112
6, 33120, Note_on_c, 1, 54, 89
6, 33120, Note_on_c, 1, 49, 104
6, 33120, Note_on_c, 1, 42, 97
6, 33120, Note_on_c, 1, 30, 93
6, 33120, Note_on_c, 1, 41, 110
6, 33120, Note_on_c, 1, 40, 98
6, 33150, Note_on_c, 1, 40, 0
6, 33150, Note_on_c, 1, 30, 0
6, 33150, Note_on_c, 1, 42, 0
6, 33150, Note_on_c, 1, 41, 0
6, 33180, Note_on_c, 1, 42, 124
6, 33210, Note_on_c, 1, 58, 0
6, 33210, Note_on_c, 1, 54, 0
6, 33210, Note_on_c, 1, 49, 0
6, 33240, Note_on_c, 1, 42, 0
6, 33240, Note_on_c, 1, 37, 41
6, 33240, Note_on_c, 1, 49, 95
6, 33240, Note_on_c, 1, 54, 112
6, 33240, Note_on_c, 1, 58, 112
6, 33270, Note_on_c, 1, 37, 0
6, 33300, Note_on_c, 1, 49, 0
6, 33300, Note_on_c, 1, 54, 0
6, 33300, Note_on_c, 1, 58, 0
6, 33300, Note_on_c, 1, 42, 106
6, 33330, Note_on_c, 1, 42, 0
6, 33330, Note_on_c, 1, 58, 116
6, 33330, Note_on_c, 1, 54, 101
6, 33330, Note_on_c, 1, 49, 71
6, 33360, Note_on_c, 1, 49, 0
6, 33360, Note_on_c, 1, 54, 0
6, 33360, Note_on_c, 1, 58, 0
6, 33390, Note_on_c, 1, 58, 116
6, 33390, Note_on_c, 1, 54, 112
6, 33390, Note_on_c, 1, 49, 80
6, 33420, Note_on_c, 1, 49, 0
6, 33420, Note_on_c, 1, 54, 0
6, 33420, Note_on_c, 1, 58, 0
6, 33420, Note_on_c, 1, 42, 124
6, 33450, Note_on_c, 1, 42, 0
6, 33450, Note_on_c, 1, 37, 120
6, 33480, Note_on_c, 1, 37, 0
6, 33480, Note_on_c, 1, 30, 127
6, 33480, Note_on_c, 1, 32, 79
6, 33480, Note_on_c, 1, 54, 101
6, 33480, Note_on_c, 1, 56, 116
6, 33480, Note_on_c, 1, 49, 79
6, 33510, Note_on_c, 1, 32, 0
6, 33540, Note_on_c, 1, 56, 0
6, 33540, Note_on_c, 1, 30, 0
6, 33540, Note_on_c, 1, 54, 0
6, 33540, Note_on_c, 1, 42, 124
6, 33540, Note_on_c, 1, 58, 83
6, 33570, Note_on_c, 1, 58, 0
6, 33570, Note_on_c, 1, 49, 0
6, 33570, Note_on_c, 1, 37, 112
6, 33600, Note_on_c, 1, 37, 0
6, 33600, Note_on_c, 1, 42, 0
6, 33600, Note_on_c, 1, 32, 127
6, 33600, Note_on_c, 1, 34, 101
6, 33600, Note_on_c, 1, 56, 106
6, 33600, Note_on_c, 1, 59, 108
6, 33600, Note_on_c, 1, 51, 89
6, 33630, Note_on_c, 1, 34, 0
6, 33660, Note_on_c, 1, 32, 0
6, 33660, Note_on_c, 1, 44, 116
6, 33690, Note_on_c, 1, 44, 0
6, 33690, Note_on_c, 1, 51, 0
6, 33690, Note_on_c, 1, 56, 0
6, 33690, Note_on_c, 1, 59, 0
6, 33690, Note_on_c, 1, 39, 120
6, 33720, Note_on_c, 1, 39, 0
6, 33720, Note_on_c, 1, 56, 116
6, 33720, Note_on_c, 1, 51, 89
6, 33720, Note_on_c, 1, 59, 110
6, 33780, Note_on_c, 1, 59, 0
6, 33780, Note_on_c, 1, 51, 0
6, 33780, Note_on_c, 1, 56, 0
6, 33780, Note_on_c, 1, 44, 116
6, 33810, Note_on_c, 1, 44, 0
6, 33810, Note_on_c, 1, 51, 75
6, 33810, Note_on_c, 1, 56, 101
6, 33810, Note_on_c, 1, 59, 100
6, 33840, Note_on_c, 1, 59, 0
6, 33840, Note_on_c, 1, 56, 0
6, 33840, Note_on_c, 1, 51, 0
6, 33870, Note_on_c, 1, 56, 112
6, 33870, Note_on_c, 1, 51, 93
6, 33870, Note_on_c, 1, 59, 105
6, 33900, Note_on_c, 1, 59, 0
6, 33900, Note_on_c, 1, 51, 0
6, 33900, Note_on_c, 1, 56, 0
6, 33900, Note_on_c, 1, 44, 116
6, 33930, Note_on_c, 1, 44, 0
6, 33930, Note_on_c, 1, 39, 95
6, 33960, Note_on_c, 1, 39, 0
6, 33960, Note_on_c, 1, 58, 120
6, 33960, Note_on_c, 1, 56, 120
6, 33960, Note_on_c, 1, 51, 93
6, 33960, Note_on_c, 1, 32, 116
6, 34020, Note_on_c, 1, 51, 0
6, 34020, Note_on_c, 1, 58, 0
6, 34020, Note_on_c, 1, 56, 0
6, 34020, Note_on_c, 1, 44, 127
6, 34020, Note_on_c, 1, 59, 82
6, 34050, Note_on_c, 1, 59, 0
6, 34050, Note_on_c, 1, 32, 0
6, 34050, Note_on_c, 1, 39, 109
6, 34080, Note_on_c, 1, 39, 0
6, 34080, Note_on_c, 1, 44, 0
6, 34080, Note_on_c, 1, 56, 101
6, 34080, Note_on_c, 1, 61, 95
6, 34080, Note_on_c, 1, 53, 88
6, 34080, Note_on_c, 1, 37, 120
6, 34140, Note_on_c, 1, 37, 0
6, 34140, Note_on_c, 1, 49, 120
6, 34170, Note_on_c, 1, 49, 0
6, 34170, Note_on_c, 1, 53, 0
6, 34170, Note_on_c, 1, 61, 0
6, 34170, Note_on_c, 1, 56, 0
6, 34170, Note_on_c, 1, 44, 89
6, 34200, Note_on_c, 1, 44, 0
6, 34200, Note_on_c, 1, 61, 101
6, 34200, Note_on_c, 1, 56, 116
6, 34200, Note_on_c, 1, 53, 93
6, 34260, Note_on_c, 1, 53, 0
6, 34260, Note_on_c, 1, 56, 0
6, 34260, Note_on_c, 1, 61, 0
6, 34260, Note_on_c, 1, 49, 109
6, 34290, Note_on_c, 1, 49, 0
6, 34290, Note_on_c, 1, 61, 84
6, 34290, Note_on_c, 1, 56, 104
6, 34290, Note_on_c, 1, 53, 79
6, 34320, Note_on_c, 1, 53, 0
6, 34320, Note_on_c, 1, 56, 0
6, 34320, Note_on_c, 1, 61, 0
6, 34350, Note_on_c, 1, 53, 93
6, 34350, Note_on_c, 1, 56, 112
6, 34350, Note_on_c, 1, 61, 89
6, 34380, Note_on_c, 1, 61, 0
6, 34380, Note_on_c, 1, 56, 0
6, 34380, Note_on_c, 1, 53, 0
6, 34380, Note_on_c, 1, 49, 104
6, 34410, Note_on_c, 1, 49, 0
6, 34410, Note_on_c, 1, 44, 104
6, 34440, Note_on_c, 1, 44, 0
6, 34440, Note_on_c, 1, 37, 124
6, 34470, Note_on_c, 1, 37, 0
6, 34470, Note_on_c, 1, 54, 112
6, 34470, Note_on_c, 1, 51, 106
6, 34470, Note_on_c, 1, 59, 112
6, 34500, Note_on_c, 1, 59, 0
6, 34500, Note_on_c, 1, 51, 0
6, 34500, Note_on_c, 1, 54, 0
6, 34500, Note_on_c, 1, 49, 124
6, 34530, Note_on_c, 1, 49, 0
6, 34530, Note_on_c, 1, 44, 109
6, 34560, Note_on_c, 1, 44, 0
6, 34560, Note_on_c, 1, 37, 124
6, 34560, Note_on_c, 1, 53, 95
6, 34560, Note_on_c, 1, 61, 101
6, 34560, Note_on_c, 1, 56, 120
6, 34620, Note_on_c, 1, 37, 0
6, 34620, Note_on_c, 1, 49, 120
6, 34650, Note_on_c, 1, 49, 0
6, 34650, Note_on_c, 1, 56, 0
6, 34650, Note_on_c, 1, 61, 0
6, 34650, Note_on_c, 1, 53, 0
6, 34650, Note_on_c, 1, 44, 120
6, 34680, Note_on_c, 1, 44, 0
6, 34680, Note_on_c, 1, 53, 93
6, 34680, Note_on_c, 1, 56, 116
6, 34680, Note_on_c, 1, 61, 109
6, 34740, Note_on_c, 1, 61, 0
6, 34740, Note_on_c, 1, 56, 0
6, 34740, Note_on_c, 1, 53, 0
6, 34740, Note_on_c, 1, 49, 120
6, 34770, Note_on_c, 1, 49, 0
6, 34770, Note_on_c, 1, 61, 86
6, 34770, Note_on_c, 1, 56, 106
6, 34770, Note_on_c, 1, 53, 80
6, 34800, Note_on_c, 1, 53, 0
6, 34800, Note_on_c, 1, 56, 0
6, 34800, Note_on_c, 1, 61, 0
6, 34830, Note_on_c, 1, 53, 106
6, 34830, Note_on_c, 1, 61, 101
6, 34830, Note_on_c, 1, 56, 127
6, 34860, Note_on_c, 1, 56, 0
6, 34860, Note_on_c, 1, 61, 0
6, 34860, Note_on_c, 1, 53, 0
6, 34860, Note_on_c, 1, 49, 116
6, 34890, Note_on_c, 1, 49, 0
6, 34890, Note_on_c, 1, 44, 109
6, 34920, Note_on_c, 1, 44, 0
6, 34920, Note_on_c, 1, 37, 124
6, 34920, Note_on_c, 1, 61, 93
6, 34920, Note_on_c, 1, 56, 109
6, 34920, Note_on_c, 1, 53, 93
6, 34980, Note_on_c, 1, 56, 0
6, 34980, Note_on_c, 1, 37, 0
6, 34980, Note_on_c, 1, 61, 0
6, 34980, Note_on_c, 1, 49, 112
6, 35010, Note_on_c, 1, 49, 0
6, 35010, Note_on_c, 1, 53, 0
6, 35040, Note_on_c, 1, 35, 99
6, 35040, Note_on_c, 1, 63, 99
6, 35040, Note_on_c, 1, 59, 110
6, 35040, Note_on_c, 1, 47, 106
6, 35040, Note_on_c, 1, 54, 95
6, 35070, Note_on_c, 1, 47, 0
6, 35100, Note_on_c, 1, 47, 96
6, 35130, Note_on_c, 1, 59, 0
6, 35130, Note_on_c, 1, 54, 0
6, 35130, Note_on_c, 1, 63, 0
6, 35160, Note_on_c, 1, 35, 0
6, 35160, Note_on_c, 1, 59, 114
6, 35160, Note_on_c, 1, 54, 101
6, 35160, Note_on_c, 1, 63, 101
6, 35190, Note_on_c, 1, 47, 0
6, 35220, Note_on_c, 1, 59, 0
6, 35220, Note_on_c, 1, 54, 0
6, 35220, Note_on_c, 1, 63, 0
6, 35220, Note_on_c, 1, 47, 121
6, 35250, Note_on_c, 1, 47, 0
6, 35250, Note_on_c, 1, 59, 114
6, 35250, Note_on_c, 1, 63, 95
6, 35250, Note_on_c, 1, 54, 88
6, 35280, Note_on_c, 1, 54, 0
6, 35280, Note_on_c, 1, 63, 0
6, 35280, Note_on_c, 1, 59, 0
6, 35310, Note_on_c, 1, 58, 101
6, 35310, Note_on_c, 1, 63, 95
6, 35310, Note_on_c, 1, 59, 119
6, 35310, Note_on_c, 1, 54, 104
6, 35340, Note_on_c, 1, 54, 0
6, 35340, Note_on_c, 1, 58, 0
6, 35340, Note_on_c, 1, 63, 0
6, 35340, Note_on_c, 1, 59, 0
6, 35340, Note_on_c, 1, 47, 100
6, 35370, Note_on_c, 1, 47, 0
6, 35370, Note_on_c, 1, 42, 112
6, 35400, Note_on_c, 1, 42, 0
6, 35400, Note_on_c, 1, 35, 119
6, 35400, Note_on_c, 1, 61, 109
6, 35400, Note_on_c, 1, 54, 106
6, 35400, Note_on_c, 1, 59, 110
6, 35430, Note_on_c, 1, 59, 0
6, 35460, Note_on_c, 1, 35, 0
6, 35460, Note_on_c, 1, 61, 0
6, 35460, Note_on_c, 1, 54, 0
6, 35460, Note_on_c, 1, 47, 121
6, 35460, Note_on_c, 1, 63, 91
6, 35460, Note_on_c, 1, 54, 61
6, 35490, Note_on_c, 1, 54, 0
6, 35490, Note_on_c, 1, 63, 0
6, 35490, Note_on_c, 1, 47, 0
6, 35490, Note_on_c, 1, 42, 116
6, 35520, Note_on_c, 1, 42, 0
6, 35520, Note_on_c, 1, 45, 103
6, 35520, Note_on_c, 1, 61, 109
6, 35520, Note_on_c, 1, 57, 100
6, 35520, Note_on_c, 1, 59, 108
6, 35520, Note_on_c, 1, 33, 102
6, 35520, Note_on_c, 1, 64, 106
6, 35550, Note_on_c, 1, 45, 0
6, 35580, Note_on_c, 1, 45, 114
6, 35610, Note_on_c, 1, 45, 0
6, 35610, Note_on_c, 1, 64, 0
6, 35610, Note_on_c, 1, 59, 0
6, 35610, Note_on_c, 1, 61, 0
6, 35610, Note_on_c, 1, 57, 0
6, 35610, Note_on_c, 1, 33, 0
6, 35610, Note_on_c, 1, 40, 110
6, 35640, Note_on_c, 1, 40, 0
6, 35640, Note_on_c, 1, 57, 108
6, 35640, Note_on_c, 1, 61, 106
6, 35640, Note_on_c, 1, 64, 117
6, 35640, Note_on_c, 1, 59, 112
6, 35700, Note_on_c, 1, 59, 0
6, 35700, Note_on_c, 1, 57, 0
6, 35700, Note_on_c, 1, 61, 0
6, 35700, Note_on_c, 1, 64, 0
6, 35700, Note_on_c, 1, 45, 90
6, 35730, Note_on_c, 1, 45, 0
6, 35730, Note_on_c, 1, 64, 99
6, 35730, Note_on_c, 1, 61, 106
6, 35730, Note_on_c, 1, 57, 84
6, 35730, Note_on_c, 1, 59, 94
6, 35760, Note_on_c, 1, 59, 0
6, 35760, Note_on_c, 1, 64, 0
6, 35760, Note_on_c, 1, 61, 0
6, 35760, Note_on_c, 1, 57, 0
6, 35790, Note_on_c, 1, 64, 103
6, 35790, Note_on_c, 1, 61, 120
6, 35790, Note_on_c, 1, 57, 103
6, 35790, Note_on_c, 1, 59, 106
6, 35820, Note_on_c, 1, 59, 0
6, 35820, Note_on_c, 1, 64, 0
6, 35820, Note_on_c, 1, 61, 0
6, 35820, Note_on_c, 1, 57, 0
6, 35820, Note_on_c, 1, 45, 105
6, 35850, Note_on_c, 1, 45, 0
6, 35850, Note_on_c, 1, 40, 92
6, 35880, Note_on_c, 1, 40, 0
6, 35880, Note_on_c, 1, 63, 99
6, 35880, Note_on_c, 1, 59, 108
6, 35880, Note_on_c, 1, 57, 91
6, 35880, Note_on_c, 1, 33, 127
6, 35940, Note_on_c, 1, 63, 0
6, 35940, Note_on_c, 1, 64, 89
6, 35940, Note_on_c, 1, 45, 121
6, 35970, Note_on_c, 1, 45, 0
6, 35970, Note_on_c, 1, 59, 0
6, 35970, Note_on_c, 1, 33, 0
6, 35970, Note_on_c, 1, 57, 0
6, 35970, Note_on_c, 1, 64, 0
6, 35970, Note_on_c, 1, 40, 112
6, 36000, Note_on_c, 1, 40, 0
6, 36000, Note_on_c, 1, 63, 72
6, 36000, Note_on_c, 1, 59, 93
6, 36000, Note_on_c, 1, 56, 79
6, 36000, Note_on_c, 1, 32, 120
6, 36000, Note_on_c, 1, 44, 93
6, 36030, Note_on_c, 1, 44, 0
6, 36060, Note_on_c, 1, 44, 127
6, 36090, Note_on_c, 1, 56, 0
6, 36090, Note_on_c, 1, 32, 0
6, 36090, Note_on_c, 1, 63, 0
6, 36090, Note_on_c, 1, 59, 0
6, 36090, Note_on_c, 1, 39, 61
6, 36120, Note_on_c, 1, 39, 0
6, 36120, Note_on_c, 1, 44, 0
6, 36120, Note_on_c, 1, 63, 124
6, 36120, Note_on_c, 1, 56, 104
6, 36120, Note_on_c, 1, 59, 112
6, 36180, Note_on_c, 1, 59, 0
6, 36180, Note_on_c, 1, 56, 0
6, 36180, Note_on_c, 1, 63, 0
6, 36180, Note_on_c, 1, 44, 127
6, 36210, Note_on_c, 1, 44, 0
6, 36210, Note_on_c, 1, 63, 89
6, 36210, Note_on_c, 1, 59, 95
6, 36210, Note_on_c, 1, 56, 88
6, 36240, Note_on_c, 1, 56, 0
6, 36240, Note_on_c, 1, 59, 0
6, 36240, Note_on_c, 1, 63, 0
6, 36270, Note_on_c, 1, 63, 106
6, 36270, Note_on_c, 1, 59, 112
6, 36270, Note_on_c, 1, 56, 101
6, 36300, Note_on_c, 1, 56, 0
6, 36300, Note_on_c, 1, 59, 0
6, 36300, Note_on_c, 1, 63, 0
6, 36300, Note_on_c, 1, 44, 127
6, 36330, Note_on_c, 1, 44, 0
6, 36330, Note_on_c, 1, 39, 106
6, 36360, Note_on_c, 1, 39, 0
6, 36360, Note_on_c, 1, 61, 112
6, 36360, Note_on_c, 1, 56, 101
6, 36360, Note_on_c, 1, 32, 120
6, 36360, Note_on_c, 1, 59, 103
6, 36360, Note_on_c, 1, 34, 71
6, 36390, Note_on_c, 1, 34, 0
6, 36420, Note_on_c, 1, 61, 0
6, 36420, Note_on_c, 1, 59, 0
6, 36420, Note_on_c, 1, 63, 74
6, 36420, Note_on_c, 1, 44, 127
6, 36450, Note_on_c, 1, 63, 0
6, 36450, Note_on_c, 1, 56, 0
6, 36450, Note_on_c, 1, 32, 0
6, 36450, Note_on_c, 1, 39, 116
6, 36480, Note_on_c, 1, 39, 0
6, 36480, Note_on_c, 1, 44, 0
6, 36480, Note_on_c, 1, 61, 82
6, 36480, Note_on_c, 1, 53, 95
6, 36480, Note_on_c, 1, 56, 101
6, 36480, Note_on_c, 1, 37, 99
6, 36540, Note_on_c, 1, 37, 0
6, 36540, Note_on_c, 1, 49, 124
6, 36570, Note_on_c, 1, 49, 0
6, 36570, Note_on_c, 1, 56, 0
6, 36570, Note_on_c, 1, 53, 0
6, 36570, Note_on_c, 1, 61, 0
6, 36570, Note_on_c, 1, 44, 109
6, 36600, Note_on_c, 1, 44, 0
6, 36600, Note_on_c, 1, 61, 101
6, 36600, Note_on_c, 1, 56, 112
6, 36600, Note_on_c, 1, 53, 93
6, 36660, Note_on_c, 1, 53, 0
6, 36660, Note_on_c, 1, 56, 0
6, 36660, Note_on_c, 1, 61, 0
6, 36660, Note_on_c, 1, 49, 112
6, 36690, Note_on_c, 1, 49, 0
6, 36690, Note_on_c, 1, 61, 82
6, 36690, Note_on_c, 1, 56, 106
6, 36690, Note_on_c, 1, 53, 87
6, 36720, Note_on_c, 1, 53, 0
6, 36720, Note_on_c, 1, 56, 0
6, 36720, Note_on_c, 1, 61, 0
6, 36750, Note_on_c, 1, 53, 98
6, 36750, Note_on_c, 1, 61, 97
6, 36750, Note_on_c, 1, 56, 116
6, 36780, Note_on_c, 1, 56, 0
6, 36780, Note_on_c, 1, 61, 0
6, 36780, Note_on_c, 1, 53, 0
6, 36780, Note_on_c, 1, 49, 120
6, 36810, Note_on_c, 1, 49, 0
6, 36810, Note_on_c, 1, 44, 106
6, 36840, Note_on_c, 1, 44, 0
6, 36840, Note_on_c, 1, 59, 92
6, 36840, Note_on_c, 1, 37, 127
6, 36840, Note_on_c, 1, 56, 106
6, 36840, Note_on_c, 1, 53, 91
6, 36870, Note_on_c, 1, 59, 0
6, 36900, Note_on_c, 1, 37, 0
6, 36900, Note_on_c, 1, 56, 0
6, 36900, Note_on_c, 1, 49, 124
6, 36900, Note_on_c, 1, 61, 91
6, 36930, Note_on_c, 1, 61, 0
6, 36930, Note_on_c, 1, 49, 0
6, 36930, Note_on_c, 1, 53, 0
6, 36930, Note_on_c, 1, 44, 116
6, 36960, Note_on_c, 1, 44, 0
6, 36960, Note_on_c, 1, 58, 112
6, 36960, Note_on_c, 1, 54, 89
6, 36960, Note_on_c, 1, 49, 104
6, 36960, Note_on_c, 1, 42, 97
6, 36960, Note_on_c, 1, 30, 93
6, 36960, Note_on_c, 1, 41, 110
6, 36960, Note_on_c, 1, 40, 98
6, 36990, Note_on_c, 1, 40, 0
6, 36990, Note_on_c, 1, 30, 0
6, 36990, Note_on_c, 1, 42, 0
6, 36990, Note_on_c, 1, 41, 0
6, 37020, Note_on_c, 1, 42, 124
6, 37050, Note_on_c, 1, 58, 0
6, 37050, Note_on_c, 1, 54, 0
6, 37050, Note_on_c, 1, 49, 0
6, 37080, Note_on_c, 1, 42, 0
6, 37080, Note_on_c, 1, 37, 41
6, 37080, Note_on_c, 1, 49, 95
6, 37080, Note_on_c, 1, 54, 112
6, 37080, Note_on_c, 1, 58, 112
6, 37110, Note_on_c, 1, 37, 0
6, 37140, Note_on_c, 1, 49, 0
6, 37140, Note_on_c, 1, 54, 0
6, 37140, Note_on_c, 1, 58, 0
6, 37140, Note_on_c, 1, 42, 106
6, 37170, Note_on_c, 1, 42, 0
6, 37170, Note_on_c, 1, 58, 116
6, 37170, Note_on_c, 1, 54, 101
6, 37170, Note_on_c, 1, 49, 71
6, 37200, Note_on_c, 1, 49, 0
6, 37200, Note_on_c, 1, 54, 0
6, 37200, Note_on_c, 1, 58, 0
6, 37230, Note_on_c, 1, 58, 116
6, 37230, Note_on_c, 1, 54, 112
6, 37230, Note_on_c, 1, 49, 80
6, 37260, Note_on_c, 1, 49, 0
6, 37260, Note_on_c, 1, 54, 0
6, 37260, Note_on_c, 1, 58, 0
6, 37260, Note_on_c, 1, 42, 124
6, 37290, Note_on_c, 1, 42, 0
6, 37290, Note_on_c, 1, 37, 120
6, 37320, Note_on_c, 1, 37, 0
6, 37320, Note_on_c, 1, 30, 127
6, 37320, Note_on_c, 1, 32, 79
6, 37320, Note_on_c, 1, 54, 101
6, 37320, Note_on_c, 1, 56, 116
6, 37320, Note_on_c, 1, 49, 79
6, 37350, Note_on_c, 1, 32, 0
6, 37380, Note_on_c, 1, 56, 0
6, 37380, Note_on_c, 1, 30, 0
6, 37380, Note_on_c, 1, 54, 0
6, 37380, Note_on_c, 1, 42, 124
6, 37380, Note_on_c, 1, 58, 83
6, 37410, Note_on_c, 1, 58, 0
6, 37410, Note_on_c, 1, 49, 0
6, 37410, Note_on_c, 1, 37, 112
6, 37440, Note_on_c, 1, 37, 0
6, 37440, Note_on_c, 1, 42, 0
6, 37440, Note_on_c, 1, 32, 127
6, 37440, Note_on_c, 1, 34, 101
6, 37440, Note_on_c, 1, 56, 106
6, 37440, Note_on_c, 1, 59, 108
6, 37440, Note_on_c, 1, 51, 89
6, 37470, Note_on_c, 1, 34, 0
6, 37500, Note_on_c, 1, 32, 0
6, 37500, Note_on_c, 1, 44, 116
6, 37530, Note_on_c, 1, 44, 0
6, 37530, Note_on_c, 1, 51, 0
6, 37530, Note_on_c, 1, 56, 0
6, 37530, Note_on_c, 1, 59, 0
6, 37530, Note_on_c, 1, 39, 120
6, 37560, Note_on_c, 1, 39, 0
6, 37560, Note_on_c, 1, 56, 116
6, 37560, Note_on_c, 1, 51, 89
6, 37560, Note_on_c, 1, 59, 110
6, 37620, Note_on_c, 1, 59, 0
6, 37620, Note_on_c, 1, 51, 0
6, 37620, Note_on_c, 1, 56, 0
6, 37620, Note_on_c, 1, 44, 116
6, 37650, Note_on_c, 1, 44, 0
6, 37650, Note_on_c, 1, 51, 75
6, 37650, Note_on_c, 1, 56, 101
6, 37650, Note_on_c, 1, 59, 100
6, 37680, Note_on_c, 1, 59, 0
6, 37680, Note_on_c, 1, 56, 0
6, 37680, Note_on_c, 1, 51, 0
6, 37710, Note_on_c, 1, 56, 112
6, 37710, Note_on_c, 1, 51, 93
6, 37710, Note_on_c, 1, 59, 105
6, 37740, Note_on_c, 1, 59, 0
6, 37740, Note_on_c, 1, 51, 0
6, 37740, Note_on_c, 1, 56, 0
6, 37740, Note_on_c, 1, 44, 116
6, 37770, Note_on_c, 1, 44, 0
6, 37770, Note_on_c, 1, 39, 95
6, 37800, Note_on_c, 1, 39, 0
6, 37800, Note_on_c, 1, 58, 120
6, 37800, Note_on_c, 1, 56, 120
6, 37800, Note_on_c, 1, 51, 93
6, 37800, Note_on_c, 1, 32, 116
6, 37860, Note_on_c, 1, 51, 0
6, 37860, Note_on_c, 1, 58, 0
6, 37860, Note_on_c, 1, 56, 0
6, 37860, Note_on_c, 1, 44, 127
6, 37860, Note_on_c, 1, 59, 82
6, 37890, Note_on_c, 1, 59, 0
6, 37890, Note_on_c, 1, 32, 0
6, 37890, Note_on_c, 1, 39, 109
6, 37920, Note_on_c, 1, 39, 0
6, 37920, Note_on_c, 1, 44, 0
6, 37920, Note_on_c, 1, 56, 101
6, 37920, Note_on_c, 1, 61, 95
6, 37920, Note_on_c, 1, 53, 88
6, 37920, Note_on_c, 1, 37, 120
6, 37980, Note_on_c, 1, 37, 0
6, 37980, Note_on_c, 1, 49, 120
6, 38010, Note_on_c, 1, 49, 0
6, 38010, Note_on_c, 1, 53, 0
6, 38010, Note_on_c, 1, 61, 0
6, 38010, Note_on_c, 1, 56, 0
6, 38010, Note_on_c, 1, 44, 89
6, 38040, Note_on_c, 1, 44, 0
6, 38040, Note_on_c, 1, 61, 101
6, 38040, Note_on_c, 1, 56, 116
6, 38040, Note_on_c, 1, 53, 93
6, 38100, Note_on_c, 1, 53, 0
6, 38100, Note_on_c, 1, 56, 0
6, 38100, Note_on_c, 1, 61, 0
6, 38100, Note_on_c, 1, 49, 109
6, 38130, Note_on_c, 1, 49, 0
6, 38130, Note_on_c, 1, 61, 84
6, 38130, Note_on_c, 1, 56, 104
6, 38130, Note_on_c, 1, 53, 79
6, 38160, Note_on_c, 1, 53, 0
6, 38160, Note_on_c, 1, 56, 0
6, 38160, Note_on_c, 1, 61, 0
6, 38190, Note_on_c, 1, 53, 93
6, 38190, Note_on_c, 1, 56, 112
6, 38190, Note_on_c, 1, 61, 89
6, 38220, Note_on_c, 1, 61, 0
6, 38220, Note_on_c, 1, 56, 0
6, 38220, Note_on_c, 1, 53, 0
6, 38220, Note_on_c, 1, 49, 104
6, 38250, Note_on_c, 1, 49, 0
6, 38250, Note_on_c, 1, 44, 104
6, 38280, Note_on_c, 1, 44, 0
6, 38280, Note_on_c, 1, 37, 124
6, 38310, Note_on_c, 1, 37, 0
6, 38310, Note_on_c, 1, 54, 112
6, 38310, Note_on_c, 1, 51, 106
6, 38310, Note_on_c, 1, 59, 112
6, 38340, Note_on_c, 1, 59, 0
6, 38340, Note_on_c, 1, 51, 0
6, 38340, Note_on_c, 1, 54, 0
6, 38340, Note_on_c, 1, 49, 124
6, 38370, Note_on_c, 1, 49, 0
6, 38370, Note_on_c, 1, 44, 109
6, 38400, Note_on_c, 1, 44, 0
6, 38400, Note_on_c, 1, 37, 124
6, 38400, Note_on_c, 1, 53, 95
6, 38400, Note_on_c, 1, 61, 101
6, 38400, Note_on_c, 1, 56, 120
6, 38460, Note_on_c, 1, 37, 0
6, 38460, Note_on_c, 1, 49, 120
6, 38490, Note_on_c, 1, 49, 0
6, 38490, Note_on_c, 1, 56, 0
6, 38490, Note_on_c, 1, 61, 0
6, 38490, Note_on_c, 1, 53, 0
6, 38490, Note_on_c, 1, 44, 120
6, 38520, Note_on_c, 1, 44, 0
6, 38520, Note_on_c, 1, 53, 93
6, 38520, Note_on_c, 1, 56, 116
6, 38520, Note_on_c, 1, 61, 109
6, 38580, Note_on_c, 1, 61, 0
6, 38580, Note_on_c, 1, 56, 0
6, 38580, Note_on_c, 1, 53, 0
6, 38580, Note_on_c, 1, 49, 120
6, 38610, Note_on_c, 1, 49, 0
6, 38610, Note_on_c, 1, 61, 86
6, 38610, Note_on_c, 1, 56, 106
6, 38610, Note_on_c, 1, 53, 80
6, 38640, Note_on_c, 1, 53, 0
6, 38640, Note_on_c, 1, 56, 0
6, 38640, Note_on_c, 1, 61, 0
6, 38670, Note_on_c, 1, 53, 106
6, 38670, Note_on_c, 1, 61, 101
6, 38670, Note_on_c, 1, 56, 127
6, 38700, Note_on_c, 1, 56, 0
6, 38700, Note_on_c, 1, 61, 0
6, 38700, Note_on_c, 1, 53, 0
6, 38700, Note_on_c, 1, 49, 116
6, 38730, Note_on_c, 1, 49, 0
6, 38730, Note_on_c, 1, 44, 109
6, 38760, Note_on_c, 1, 44, 0
6, 38760, Note_on_c, 1, 37, 124
6, 38760, Note_on_c, 1, 61, 93
6, 38760, Note_on_c, 1, 56, 109
6, 38760, Note_on_c, 1, 53, 93
6, 38820, Note_on_c, 1, 56, 0
6, 38820, Note_on_c, 1, 37, 0
6, 38820, Note_on_c, 1, 61, 0
6, 38820, Note_on_c, 1, 49, 112
6, 38850, Note_on_c, 1, 49, 0
6, 38850, Note_on_c, 1, 53, 0
6, 47040, Note_on_c, 1, 35, 99
6, 47040, Note_on_c, 1, 63, 99
6, 47040, Note_on_c, 1, 59, 110
6, 47040, Note_on_c, 1, 47, 106
6, 47040, Note_on_c, 1, 54, 95
6, 47070, Note_on_c, 1, 47, 0
6, 47100, Note_on_c, 1, 47, 96
6, 47130, Note_on_c, 1, 59, 0
6, 47130, Note_on_c, 1, 54, 0
6, 47130, Note_on_c, 1, 63, 0
6, 47160, Note_on_c, 1, 35, 0
6, 47160, Note_on_c, 1, 59, 114
6, 47160, Note_on_c, 1, 54, 101
6, 47160, Note_on_c, 1, 63, 101
6, 47190, Note_on_c, 1, 47, 0
6, 47220, Note_on_c, 1, 59, 0
6, 47220, Note_on_c, 1, 54, 0
6, 47220, Note_on_c, 1, 63, 0
6, 47220, Note_on_c, 1, 47, 121
6, 47250, Note_on_c, 1, 47, 0
6, 47250, Note_on_c, 1, 59, 114
6, 47250, Note_on_c, 1, 63, 95
6, 47250, Note_on_c, 1, 54, 88
6, 47280, Note_on_c, 1, 54, 0
6, 47280, Note_on_c, 1, 63, 0
6, 47280, Note_on_c, 1, 59, 0
6, 47310, Note_on_c, 1, 58, 101
6, 47310, Note_on_c, 1, 63, 95
6, 47310, Note_on_c, 1, 59, 119
6, 47310, Note_on_c, 1, 54, 104
6, 47340, Note_on_c, 1, 54, 0
6, 47340, Note_on_c, 1, 58, 0
6, 47340, Note_on_c, 1, 63, 0
6, 47340, Note_on_c, 1, 59, 0
6, 47340, Note_on_c, 1, 47, 100
6, 47370, Note_on_c, 1, 47, 0
6, 47370, Note_on_c, 1, 42, 112
6, 47400, Note_on_c, 1, 42, 0
6, 47400, Note_on_c, 1, 35, 119
6, 47400, Note_on_c, 1, 61, 109
6, 47400, Note_on_c, 1, 54, 106
6, 47400, Note_on_c, 1, 59, 110
6, 47430, Note_on_c, 1, 59, 0
6, 47460, Note_on_c, 1, 35, 0
6, 47460, Note_on_c, 1, 61, 0
6, 47460, Note_on_c, 1, 54, 0
6, 47460, Note_on_c, 1, 47, 121
6, 47460, Note_on_c, 1, 63, 91
6, 47460, Note_on_c, 1, 54, 61
6, 47490, Note_on_c, 1, 54, 0
6, 47490, Note_on_c, 1, 63, 0
6, 47490, Note_on_c, 1, 47, 0
6, 47490, Note_on_c, 1, 42, 116
6, 47520, Note_on_c, 1, 42, 0
6, 47520, Note_on_c, 1, 45, 103
6, 47520, Note_on_c, 1, 61, 109
6, 47520, Note_on_c, 1, 57, 100
6, 47520, Note_on_c, 1, 59, 108
6, 47520, Note_on_c, 1, 33, 102
6, 47520, Note_on_c, 1, 64, 106
6, 47550, Note_on_c, 1, 45, 0
6, 47580, Note_on_c, 1, 45, 114
6, 47610, Note_on_c, 1, 45, 0
6, 47610, Note_on_c, 1, 64, 0
6, 47610, Note_on_c, 1, 59, 0
6, 47610, Note_on_c, 1, 61, 0
6, 47610, Note_on_c, 1, 57, 0
6, 47610, Note_on_c, 1, 33, 0
6, 47610, Note_on_c, 1, 40, 110
6, 47640, Note_on_c, 1, 40, 0
6, 47640, Note_on_c, 1, 57, 108
6, 47640, Note_on_c, 1, 61, 106
6, 47640, Note_on_c, 1, 64, 117
6, 47640, Note_on_c, 1, 59, 112
6, 47700, Note_on_c, 1, 59, 0
6, 47700, Note_on_c, 1, 57, 0
6, 47700, Note_on_c, 1, 61, 0
6, 47700, Note_on_c, 1, 64, 0
6, 47700, Note_on_c, 1, 45, 90
6, 47730, Note_on_c, 1, 45, 0
6, 47730, Note_on_c, 1, 64, 99
6, 47730, Note_on_c, 1, 61, 106
6, 47730, Note_on_c, 1, 57, 84
6, 47730, Note_on_c, 1, 59, 94
6, 47760, Note_on_c, 1, 59, 0
6, 47760, Note_on_c, 1, 64, 0
6, 47760, Note_on_c, 1, 61, 0
6, 47760, Note_on_c, 1, 57, 0
6, 47790, Note_on_c, 1, 64, 103
6, 47790, Note_on_c, 1, 61, 120
6, 47790, Note_on_c, 1, 57, 103
6, 47790, Note_on_c, 1, 59, 106
6, 47820, Note_on_c, 1, 59, 0
6, 47820, Note_on_c, 1, 64, 0
6, 47820, Note_on_c, 1, 61, 0
6, 47820, Note_on_c, 1, 57, 0
6, 47820, Note_on_c, 1, 45, 105
6, 47850, Note_on_c, 1, 45, 0
6, 47850, Note_on_c, 1, 40, 92
6, 47880, Note_on_c, 1, 40, 0
6, 47880, Note_on_c, 1, 63, 99
6, 47880, Note_on_c, 1, 59, 108
6, 47880, Note_on_c, 1, 57, 91
6, 47880, Note_on_c, 1, 33, 127
6, 47940, Note_on_c, 1, 63, 0
6, 47940, Note_on_c, 1, 64, 89
6, 47940, Note_on_c, 1, 45, 121
6, 47970, Note_on_c, 1, 45, 0
6, 47970, Note_on_c, 1, 59, 0
6, 47970, Note_on_c, 1, 33, 0
6, 47970, Note_on_c, 1, 57, 0
6, 47970, Note_on_c, 1, 64, 0
6, 47970, Note_on_c, 1, 40, 112
6, 48000, Note_on_c, 1, 40, 0
6, 48000, Note_on_c, 1, 63, 72
6, 48000, Note_on_c, 1, 59, 93
6, 48000, Note_on_c, 1, 56, 79
6, 48000, Note_on_c, 1, 32, 120
6, 48000, Note_on_c, 1, 44, 93
6, 48030, Note_on_c, 1, 44, 0
6, 48060, Note_on_c, 1, 44, 127
6, 48090, Note_on_c, 1, 56, 0
6, 48090, Note_on_c, 1, 32, 0
6, 48090, Note_on_c, 1, 63, 0
6, 48090, Note_on_c, 1, 59, 0
6, 48090, Note_on_c, 1, 39, 61
6, 48120, Note_on_c, 1, 39, 0
6, 48120, Note_on_c, 1, 44, 0
6, 48120, Note_on_c, 1, 63, 124
6, 48120, Note_on_c, 1, 56, 104
6, 48120, Note_on_c, 1, 59, 112
6, 48180, Note_on_c, 1, 59, 0
6, 48180, Note_on_c, 1, 56, 0
6, 48180, Note_on_c, 1, 63, 0
6, 48180, Note_on_c, 1, 44, 127
6, 48210, Note_on_c, 1, 44, 0
6, 48210, Note_on_c, 1, 63, 89
6, 48210, Note_on_c, 1, 59, 95
6, 48210, Note_on_c, 1, 56, 88
6, 48240, Note_on_c, 1, 56, 0
6, 48240, Note_on_c, 1, 59, 0
6, 48240, Note_on_c, 1, 63, 0
6, 48270, Note_on_c, 1, 63, 106
6, 48270, Note_on_c, 1, 59, 112
6, 48270, Note_on_c, 1, 56, 101
6, 48300, Note_on_c, 1, 56, 0
6, 48300, Note_on_c, 1, 59, 0
6, 48300, Note_on_c, 1, 63, 0
6, 48300, Note_on_c, 1, 44, 127
6, 48330, Note_on_c, 1, 44, 0
6, 48330, Note_on_c, 1, 39, 106
6, 48360, Note_on_c, 1, 39, 0
6, 48360, Note_on_c, 1, 61, 112
6, 48360, Note_on_c, 1, 56, 101
6, 48360, Note_on_c, 1, 32, 120
6, 48360, Note_on_c, 1, 59, 103
6, 48360, Note_on_c, 1, 34, 71
6, 48390, Note_on_c, 1, 34, 0
6, 48420, Note_on_c, 1, 61, 0
6, 48420, Note_on_c, 1, 59, 0
6, 48420, Note_on_c, 1, 63, 74
6, 48420, Note_on_c, 1, 44, 127
6, 48450, Note_on_c, 1, 63, 0
6, 48450, Note_on_c, 1, 56, 0
6, 48450, Note_on_c, 1, 32, 0
6, 48450, Note_on_c, 1, 39, 116
6, 48480, Note_on_c, 1, 39, 0
6, 48480, Note_on_c, 1, 44, 0
6, 48480, Note_on_c, 1, 61, 82
6, 48480, Note_on_c, 1, 53, 95
6, 48480, Note_on_c, 1, 56, 101
6, 48480, Note_on_c, 1, 37, 99
6, 48540, Note_on_c, 1, 37, 0
6, 48540, Note_on_c, 1, 49, 124
6, 48570, Note_on_c, 1, 49, 0
6, 48570, Note_on_c, 1, 56, 0
6, 48570, Note_on_c, 1, 53, 0
6, 48570, Note_on_c, 1, 61, 0
6, 48570, Note_on_c, 1, 44, 109
6, 48600, Note_on_c, 1, 44, 0
6, 48600, Note_on_c, 1, 61, 101
6, 48600, Note_on_c, 1, 56, 112
6, 48600, Note_on_c, 1, 53, 93
6, 48660, Note_on_c, 1, 53, 0
6, 48660, Note_on_c, 1, 56, 0
6, 48660, Note_on_c, 1, 61, 0
6, 48660, Note_on_c, 1, 49, 112
6, 48690, Note_on_c, 1, 49, 0
6, 48690, Note_on_c, 1, 61, 82
6, 48690, Note_on_c, 1, 56, 106
6, 48690, Note_on_c, 1, 53, 87
6, 48720, Note_on_c, 1, 53, 0
6, 48720, Note_on_c, 1, 56, 0
6, 48720, Note_on_c, 1, 61, 0
6, 48750, Note_on_c, 1, 53, 98
6, 48750, Note_on_c, 1, 61, 97
6, 48750, Note_on_c, 1, 56, 116
6, 48780, Note_on_c, 1, 56, 0
6, 48780, Note_on_c, 1, 61, 0
6, 48780, Note_on_c, 1, 53, 0
6, 48780, Note_on_c, 1, 49, 120
6, 48810, Note_on_c, 1, 49, 0
6, 48810, Note_on_c, 1, 44, 106
6, 48840, Note_on_c, 1, 44, 0
6, 48840, Note_on_c, 1, 59, 92
6, 48840, Note_on_c, 1, 37, 127
6, 48840, Note_on_c, 1, 56, 106
6, 48840, Note_on_c, 1, 53, 91
6, 48870, Note_on_c, 1, 59, 0
6, 48900, Note_on_c, 1, 37, 0
6, 48900, Note_on_c, 1, 56, 0
6, 48900, Note_on_c, 1, 49, 124
6, 48900, Note_on_c, 1, 61, 91
6, 48930, Note_on_c, 1, 61, 0
6, 48930, Note_on_c, 1, 49, 0
6, 48930, Note_on_c, 1, 53, 0
6, 48930, Note_on_c, 1, 44, 116
6, 48960, Note_on_c, 1, 44, 0
6, 48960, Note_on_c, 1, 58, 112
6, 48960, Note_on_c, 1, 54, 89
6, 48960, Note_on_c, 1, 49, 104
6, 48960, Note_on_c, 1, 42, 97
6, 48960, Note_on_c, 1, 30, 93
6, 48960, Note_on_c, 1, 41, 110
6, 48960, Note_on_c, 1, 40, 98
6, 48990, Note_on_c, 1, 40, 0
6, 48990, Note_on_c, 1, 30, 0
6, 48990, Note_on_c, 1, 42, 0
6, 48990, Note_on_c, 1, 41, 0
6, 49020, Note_on_c, 1, 42, 124
6, 49050, Note_on_c, 1, 58, 0
6, 49050, Note_on_c, 1, 54, 0
6, 49050, Note_on_c, 1, 49, 0
6, 49080, Note_on_c, 1, 42, 0
6, 49080, Note_on_c, 1, 37, 41
6, 49080, Note_on_c, 1, 49, 95
6, 49080, Note_on_c, 1, 54, 112
6, 49080, Note_on_c, 1, 58, 112
6, 49110, Note_on_c, 1, 37, 0
6, 49140, Note_on_c, 1, 49, 0
6, 49140, Note_on_c, 1, 54, 0
6, 49140, Note_on_c, 1, 58, 0
6, 49140, Note_on_c, 1, 42, 106
6, 49170, Note_on_c, 1, 42, 0
6, 49170, Note_on_c, 1, 58, 116
6, 49170, Note_on_c, 1, 54, 101
6, 49170, Note_on_c, 1, 49, 71
6, 49200, Note_on_c, 1, 49, 0
6, 49200, Note_on_c, 1, 54, 0
6, 49200, Note_on_c, 1, 58, 0
6, 49230, Note_on_c, 1, 58, 116
6, 49230, Note_on_c, 1, 54, 112
6, 49230, Note_on_c, 1, 49, 80
6, 49260, Note_on_c, 1, 49, 0
6, 49260, Note_on_c, 1, 54, 0
6, 49260, Note_on_c, 1, 58, 0
6, 49260, Note_on_c, 1, 42, 124
6, 49290, Note_on_c, 1, 42, 0
6, 49290, Note_on_c, 1, 37, 120
6, 49320, Note_on_c, 1, 37, 0
6, 49320, Note_on_c, 1, 30, 127
6, 49320, Note_on_c, 1, 32, 79
6, 49320, Note_on_c, 1, 54, 101
6, 49320, Note_on_c, 1, 56, 116
6, 49320, Note_on_c, 1, 49, 79
6, 49350, Note_on_c, 1, 32, 0
6, 49380, Note_on_c, 1, 56, 0
6, 49380, Note_on_c, 1, 30, 0
6, 49380, Note_on_c, 1, 54, 0
6, 49380, Note_on_c, 1, 42, 124
6, 49380, Note_on_c, 1, 58, 83
6, 49410, Note_on_c, 1, 58, 0
6, 49410, Note_on_c, 1, 49, 0
6, 49410, Note_on_c, 1, 37, 112
6, 49440, Note_on_c, 1, 37, 0
6, 49440, Note_on_c, 1, 42, 0
6, 49440, Note_on_c, 1, 32, 127
6, 49440, Note_on_c, 1, 34, 101
6, 49440, Note_on_c, 1, 56, 106
6, 49440, Note_on_c, 1, 59, 108
6, 49440, Note_on_c, 1, 51, 89
6, 49470, Note_on_c, 1, 34, 0
6, 49500, Note_on_c, 1, 32, 0
6, 49500, Note_on_c, 1, 44, 116
6, 49530, Note_on_c, 1, 44, 0
6, 49530, Note_on_c, 1, 51, 0
6, 49530, Note_on_c, 1, 56, 0
6, 49530, Note_on_c, 1, 59, 0
6, 49530, Note_on_c, 1, 39, 120
6, 49560, Note_on_c, 1, 39, 0
6, 49560, Note_on_c, 1, 56, 116
6, 49560, Note_on_c, 1, 51, 89
6, 49560, Note_on_c, 1, 59, 110
6, 49620, Note_on_c, 1, 59, 0
6, 49620, Note_on_c, 1, 51, 0
6, 49620, Note_on_c, 1, 56, 0
6, 49620, Note_on_c, 1, 44, 116
6, 49650, Note_on_c, 1, 44, 0
6, 49650, Note_on_c, 1, 51, 75
6, 49650, Note_on_c, 1, 56, 101
6, 49650, Note_on_c, 1, 59, 100
6, 49680, Note_on_c, 1, 59, 0
6, 49680, Note_on_c, 1, 56, 0
6, 49680, Note_on_c, 1, 51, 0
6, 49710, Note_on_c, 1, 56, 112
6, 49710, Note_on_c, 1, 51, 93
6, 49710, Note_on_c, 1, 59, 105
6, 49740, Note_on_c, 1, 59, 0
6, 49740, Note_on_c, 1, 51, 0
6, 49740, Note_on_c, 1, 56, 0
6, 49740, Note_on_c, 1, 44, 116
6, 49770, Note_on_c, 1, 44, 0
6, 49770, Note_on_c, 1, 39, 95
6, 49800, Note_on_c, 1, 39, 0
6, 49800, Note_on_c, 1, 58, 120
6, 49800, Note_on_c, 1, 56, 120
6, 49800, Note_on_c, 1, 51, 93
6, 49800, Note_on_c, 1, 32, 116
6, 49860, Note_on_c, 1, 51, 0
6, 49860, Note_on_c, 1, 58, 0
6, 49860, Note_on_c, 1, 56, 0
6, 49860, Note_on_c, 1, 44, 127
6, 49860, Note_on_c, 1, 59, 82
6, 49890, Note_on_c, 1, 59, 0
6, 49890, Note_on_c, 1, 32, 0
6, 49890, Note_on_c, 1, 39, 109
6, 49920, Note_on_c, 1, 39, 0
6, 49920, Note_on_c, 1, 44, 0
6, 49920, Note_on_c, 1, 56, 101
6, 49920, Note_on_c, 1, 61, 95
6, 49920, Note_on_c, 1, 53, 88
6, 49920, Note_on_c, 1, 37, 120
6, 49980, Note_on_c, 1, 37, 0
6, 49980, Note_on_c, 1, 49, 120
6, 50010, Note_on_c, 1, 49, 0
6, 50010, Note_on_c, 1, 53, 0
6, 50010, Note_on_c, 1, 61, 0
6, 50010, Note_on_c, 1, 56, 0
6, 50010, Note_on_c, 1, 44, 89
6, 50040, Note_on_c, 1, 44, 0
6, 50040, Note_on_c, 1, 61, 101
6, 50040, Note_on_c, 1, 56, 116
6, 50040, Note_on_c, 1, 53, 93
6, 50100, Note_on_c, 1, 53, 0
6, 50100, Note_on_c, 1, 56, 0
6, 50100, Note_on_c, 1, 61, 0
6, 50100, Note_on_c, 1, 49, 109
6, 50130, Note_on_c, 1, 49, 0
6, 50130, Note_on_c, 1, 61, 84
6, 50130, Note_on_c, 1, 56, 104
6, 50130, Note_on_c, 1, 53, 79
6, 50160, Note_on_c, 1, 53, 0
6, 50160, Note_on_c, 1, 56, 0
6, 50160, Note_on_c, 1, 61, 0
6, 50190, Note_on_c, 1, 53, 93
6, 50190, Note_on_c, 1, 56, 112
6, 50190, Note_on_c, 1, 61, 89
6, 50220, Note_on_c, 1, 61, 0
6, 50220, Note_on_c, 1, 56, 0
6, 50220, Note_on_c, 1, 53, 0
6, 50220, Note_on_c, 1, 49, 104
6, 50250, Note_on_c, 1, 49, 0
6, 50250, Note_on_c, 1, 44, 104
6, 50280, Note_on_c, 1, 44, 0
6, 50280, Note_on_c, 1, 37, 124
6, 50310, Note_on_c, 1, 37, 0
6, 50310, Note_on_c, 1, 54, 112
6, 50310, Note_on_c, 1, 51, 106
6, 50310, Note_on_c, 1, 59, 112
6, 50340, Note_on_c, 1, 59, 0
6, 50340, Note_on_c, 1, 51, 0
6, 50340, Note_on_c, 1, 54, 0
6, 50340, Note_on_c, 1, 49, 124
6, 50370, Note_on_c, 1, 49, 0
6, 50370, Note_on_c, 1, 44, 109
6, 50400, Note_on_c, 1, 44, 0
6, 50400, Note_on_c, 1, 37, 124
6, 50400, Note_on_c, 1, 53, 95
6, 50400, Note_on_c, 1, 61, 101
6, 50400, Note_on_c, 1, 56, 120
6, 50460, Note_on_c, 1, 37, 0
6, 50460, Note_on_c, 1, 49, 120
6, 50490, Note_on_c, 1, 49, 0
6, 50490, Note_on_c, 1, 56, 0
6, 50490, Note_on_c, 1, 61, 0
6, 50490, Note_on_c, 1, 53, 0
6, 50490, Note_on_c, 1, 44, 120
6, 50520, Note_on_c, 1, 44, 0
6, 50520, Note_on_c, 1, 53, 93
6, 50520, Note_on_c, 1, 56, 116
6, 50520, Note_on_c, 1, 61, 109
6, 50580, Note_on_c, 1, 61, 0
6, 50580, Note_on_c, 1, 56, 0
6, 50580, Note_on_c, 1, 53, 0
6, 50580, Note_on_c, 1, 49, 120
6, 50610, Note_on_c, 1, 49, 0
6, 50610, Note_on_c, 1, 61, 86
6, 50610, Note_on_c, 1, 56, 106
6, 50610, Note_on_c, 1, 53, 80
6, 50640, Note_on_c, 1, 53, 0
6, 50640, Note_on_c, 1, 56, 0
6, 50640, Note_on_c, 1, 61, 0
6, 50670, Note_on_c, 1, 53, 106
6, 50670, Note_on_c, 1, 61, 101
6, 50670, Note_on_c, 1, 56, 127
6, 50700, Note_on_c, 1, 56, 0
6, 50700, Note_on_c, 1, 61, 0
6, 50700, Note_on_c, 1, 53, 0
6, 50700, Note_on_c, 1, 49, 116
6, 50730, Note_on_c, 1, 49, 0
6, 50730, Note_on_c, 1, 44, 109
6, 50760, Note_on_c, 1, 44, 0
6, 50760, Note_on_c, 1, 37, 124
6, 50760, Note_on_c, 1, 61, 93
6, 50760, Note_on_c, 1, 56, 109
6, 50760, Note_on_c, 1, 53, 93
6, 50820, Note_on_c, 1, 56, 0
6, 50820, Note_on_c, 1, 37, 0
6, 50820, Note_on_c, 1, 61, 0
6, 50820, Note_on_c, 1, 49, 112
6, 50850, Note_on_c, 1, 49, 0
6, 50850, Note_on_c, 1, 53, 0
6, 50880, Note_on_c, 1, 35, 99
6, 50880, Note_on_c, 1, 63, 99
6, 50880, Note_on_c, 1, 59, 110
6, 50880, Note_on_c, 1, 47, 106
6, 50880, Note_on_c, 1, 54, 95
6, 50910, Note_on_c, 1, 47, 0
6, 50940, Note_on_c, 1, 47, 96
6, 50970, Note_on_c, 1, 59, 0
6, 50970, Note_on_c, 1, 54, 0
6, 50970, Note_on_c, 1, 63, 0
6, 51000, Note_on_c, 1, 35, 0
6, 51000, Note_on_c, 1, 59, 114
6, 51000, Note_on_c, 1, 54, 101
6, 51000, Note_on_c, 1, 63, 101
6, 51030, Note_on_c, 1, 47, 0
6, 51060, Note_on_c, 1, 59, 0
6, 51060, Note_on_c, 1, 54, 0
6, 51060, Note_on_c, 1, 63, 0
6, 51060, Note_on_c, 1, 47, 121
6, 51090, Note_on_c, 1, 47, 0
6, 51090, Note_on_c, 1, 59, 114
6, 51090, Note_on_c, 1, 63, 95
6, 51090, Note_on_c, 1, 54, 88
6, 51120, Note_on_c, 1, 54, 0
6, 51120, Note_on_c, 1, 63, 0
6, 51120, Note_on_c, 1, 59, 0
6, 51150, Note_on_c, 1, 58, 101
6, 51150, Note_on_c, 1, 63, 95
6, 51150, Note_on_c, 1, 59, 119
6, 51150, Note_on_c, 1, 54, 104
6, 51180, Note_on_c, 1, 54, 0
6, 51180, Note_on_c, 1, 58, 0
6, 51180, Note_on_c, 1, 63, 0
6, 51180, Note_on_c, 1, 59, 0
6, 51180, Note_on_c, 1, 47, 100
6, 51210, Note_on_c, 1, 47, 0
6, 51210, Note_on_c, 1, 42, 112
6, 51240, Note_on_c, 1, 42, 0
6, 51240, Note_on_c, 1, 35, 119
6, 51240, Note_on_c, 1, 61, 109
6, 51240, Note_on_c, 1, 54, 106
6, 51240, Note_on_c, 1, 59, 110
6, 51270, Note_on_c, 1, 59, 0
6, 51300, Note_on_c, 1, 35, 0
6, 51300, Note_on_c, 1, 61, 0
6, 51300, Note_on_c, 1, 54, 0
6, 51300, Note_on_c, 1, 47, 121
6, 51300, Note_on_c, 1, 63, 91
6, 51300, Note_on_c, 1, 54, 61
6, 51330, Note_on_c, 1, 54, 0
6, 51330, Note_on_c, 1, 63, 0
6, 51330, Note_on_c, 1, 47, 0
6, 51330, Note_on_c, 1, 42, 116
6, 51360, Note_on_c, 1, 42, 0
6, 51360, Note_on_c, 1, 45, 103
6, 51360, Note_on_c, 1, 61, 109
6, 51360, Note_on_c, 1, 57, 100
6, 51360, Note_on_c, 1, 59, 108
6, 51360, Note_on_c, 1, 33, 102
6, 51360, Note_on_c, 1, 64, 106
6, 51390, Note_on_c, 1, 45, 0
6, 51420, Note_on_c, 1, 45, 114
6, 51450, Note_on_c, 1, 45, 0
6, 51450, Note_on_c, 1, 64, 0
6, 51450, Note_on_c, 1, 59, 0
6, 51450, Note_on_c, 1, 61, 0
6, 51450, Note_on_c, 1, 57, 0
6, 51450, Note_on_c, 1, 33, 0
6, 51450, Note_on_c, 1, 40, 110
6, 51480, Note_on_c, 1, 40, 0
6, 51480, Note_on_c, 1, 57, 108
6, 51480, Note_on_c, 1, 61, 106
6, 51480, Note_on_c, 1, 64, 117
6, 51480, Note_on_c, 1, 59, 112
6, 51540, Note_on_c, 1, 59, 0
6, 51540, Note_on_c, 1, 57, 0
6, 51540, Note_on_c, 1, 61, 0
6, 51540, Note_on_c, 1, 64, 0
6, 51540, Note_on_c, 1, 45, 90
6, 51570, Note_on_c, 1, 45, 0
6, 51570, Note_on_c, 1, 64, 99
6, 51570, Note_on_c, 1, 61, 106
6, 51570, Note_on_c, 1, 57, 84
6, 51570, Note_on_c, 1, 59, 94
6, 51600, Note_on_c, 1, 59, 0
6, 51600, Note_on_c, 1, 64, 0
6, 51600, Note_on_c, 1, 61, 0
6, 51600, Note_on_c, 1, 57, 0
6, 51630, Note_on_c, 1, 64, 103
6, 51630, Note_on_c, 1, 61, 120
6, 51630, Note_on_c, 1, 57, 103
6, 51630, Note_on_c, 1, 59, 106
6, 51660, Note_on_c, 1, 59, 0
6, 51660, Note_on_c, 1, 64, 0
6, 51660, Note_on_c, 1, 61, 0
6, 51660, Note_on_c, 1, 57, 0
6, 51660, Note_on_c, 1, 45, 105
6, 51690, Note_on_c, 1, 45, 0
6, 51690, Note_on_c, 1, 40, 92
6, 51720, Note_on_c, 1, 40, 0
6, 51720, Note_on_c, 1, 63, 99
6, 51720, Note_on_c, 1, 59, 108
6, 51720, Note_on_c, 1, 57, 91
6, 51720, Note_on_c, 1, 33, 127
6, 51780, Note_on_c, 1, 63, 0
6, 51780, Note_on_c, 1, 64, 89
6, 51780, Note_on_c, 1, 45, 121
6, 51810, Note_on_c, 1, 45, 0
6, 51810, Note_on_c, 1, 59, 0
6, 51810, Note_on_c, 1, 33, 0
6, 51810, Note_on_c, 1, 57, 0
6, 51810, Note_on_c, 1, 64, 0
6, 51810, Note_on_c, 1, 40, 112
6, 51840, Note_on_c, 1, 40, 0
6, 51840, Note_on_c, 1, 63, 72
6, 51840, Note_on_c, 1, 59, 93
6, 51840, Note_on_c, 1, 56, 79
6, 51840, Note_on_c, 1, 32, 120
6, 51840, Note_on_c, 1, 44, 93
6, 51870, Note_on_c, 1, 44, 0
6, 51900, Note_on_c, 1, 44, 127
6, 51930, Note_on_c, 1, 56, 0
6, 51930, Note_on_c, 1, 32, 0
6, 51930, Note_on_c, 1, 63, 0
6, 51930, Note_on_c, 1, 59, 0
6, 51930, Note_on_c, 1, 39, 61
6, 51960, Note_on_c, 1, 39, 0
6, 51960, Note_on_c, 1, 44, 0
6, 51960, Note_on_c, 1, 63, 124
6, 51960, Note_on_c, 1, 56, 104
6, 51960, Note_on_c, 1, 59, 112
6, 52020, Note_on_c, 1, 59, 0
6, 52020, Note_on_c, 1, 56, 0
6, 52020, Note_on_c, 1, 63, 0
6, 52020, Note_on_c, 1, 44, 127
6, 52050, Note_on_c, 1, 44, 0
6, 52050, Note_on_c, 1, 63, 89
6, 52050, Note_on_c, 1, 59, 95
6, 52050, Note_on_c, 1, 56, 88
6, 52080, Note_on_c, 1, 56, 0
6, 52080, Note_on_c, 1, 59, 0
6, 52080, Note_on_c, 1, 63, 0
6, 52110, Note_on_c, 1, 63, 106
6, 52110, Note_on_c, 1, 59, 112
6, 52110, Note_on_c, 1, 56, 101
6, 52140, Note_on_c, 1, 56, 0
6, 52140, Note_on_c, 1, 59, 0
6, 52140, Note_on_c, 1, 63, 0
6, 52140, Note_on_c, 1, 44, 127
6, 52170, Note_on_c, 1, 44, 0
6, 52170, Note_on_c, 1, 39, 106
6, 52200, Note_on_c, 1, 39, 0
6, 52200, Note_on_c, 1, 61, 112
6, 52200, Note_on_c, 1, 56, 101
6, 52200, Note_on_c, 1, 32, 120
6, 52200, Note_on_c, 1, 59, 103
6, 52200, Note_on_c, 1, 34, 71
6, 52230, Note_on_c, 1, 34, 0
6, 52260, Note_on_c, 1, 61, 0
6, 52260, Note_on_c, 1, 59, 0
6, 52260, Note_on_c, 1, 63, 74
6, 52260, Note_on_c, 1, 44, 127
6, 52290, Note_on_c, 1, 63, 0
6, 52290, Note_on_c, 1, 56, 0
6, 52290, Note_on_c, 1, 32, 0
6, 52290, Note_on_c, 1, 39, 116
6, 52320, Note_on_c, 1, 39, 0
6, 52320, Note_on_c, 1, 44, 0
6, 52320, Note_on_c, 1, 61, 82
6, 52320, Note_on_c, 1, 53, 95
6, 52320, Note_on_c, 1, 56, 101
6, 52320, Note_on_c, 1, 37, 99
6, 52380, Note_on_c, 1, 37, 0
6, 52380, Note_on_c, 1, 49, 124
6, 52410, Note_on_c, 1, 49, 0
6, 52410, Note_on_c, 1, 56, 0
6, 52410, Note_on_c, 1, 53, 0
6, 52410, Note_on_c, 1, 61, 0
6, 52410, Note_on_c, 1, 44, 109
6, 52440, Note_on_c, 1, 44, 0
6, 52440, Note_on_c, 1, 61, 101
6, 52440, Note_on_c, 1, 56, 112
6, 52440, Note_on_c, 1, 53, 93
6, 52500, Note_on_c, 1, 53, 0
6, 52500, Note_on_c, 1, 56, 0
6, 52500, Note_on_c, 1, 61, 0
6, 52500, Note_on_c, 1, 49, 112
6, 52530, Note_on_c, 1, 49, 0
6, 52530, Note_on_c, 1, 61, 82
6, 52530, Note_on_c, 1, 56, 106
6, 52530, Note_on_c, 1, 53, 87
6, 52560, Note_on_c, 1, 53, 0
6, 52560, Note_on_c, 1, 56, 0
6, 52560, Note_on_c, 1, 61, 0
6, 52590, Note_on_c, 1, 53, 98
6, 52590, Note_on_c, 1, 61, 97
6, 52590, Note_on_c, 1, 56, 116
6, 52620, Note_on_c, 1, 56, 0
6, 52620, Note_on_c, 1, 61, 0
6, 52620, Note_on_c, 1, 53, 0
6, 52620, Note_on_c, 1, 49, 120
6, 52650, Note_on_c, 1, 49, 0
6, 52650, Note_on_c, 1, 44, 106
6, 52680, Note_on_c, 1, 44, 0
6, 52680, Note_on_c, 1, 59, 92
6, 52680, Note_on_c, 1, 37, 127
6, 52680, Note_on_c, 1, 56, 106
6, 52680, Note_on_c, 1, 53, 91
6, 52710, Note_on_c, 1, 59, 0
6, 52740, Note_on_c, 1, 37, 0
6, 52740, Note_on_c, 1, 56, 0
6, 52740, Note_on_c, 1, 49, 124
6, 52740, Note_on_c, 1, 61, 91
6, 52770, Note_on_c, 1, 61, 0
6, 52770, Note_on_c, 1, 49, 0
6, 52770, Note_on_c, 1, 53, 0
6, 52770, Note_on_c, 1, 44, 116
6, 52800, Note_on_c, 1, 44, 0
6, 52800, Note_on_c, 1, 58, 112
6, 52800, Note_on_c, 1, 54, 89
6, 52800, Note_on_c, 1, 49, 104
6, 52800, Note_on_c, 1, 42, 97
6, 52800, Note_on_c, 1, 30, 93
6, 52800, Note_on_c, 1, 41, 110
6, 52800, Note_on_c, 1, 40, 98
6, 52830, Note_on_c, 1, 40, 0
6, 52830, Note_on_c, 1, 30, 0
6, 52830, Note_on_c, 1, 42, 0
6, 52830, Note_on_c, 1, 41, 0
6, 52860, Note_on_c, 1, 42, 124
6, 52890, Note_on_c, 1, 58, 0
6, 52890, Note_on_c, 1, 54, 0
6, 52890, Note_on_c, 1, 49, 0
6, 52920, Note_on_c, 1, 42, 0
6, 52920, Note_on_c, 1, 37, 41
6, 52920, Note_on_c, 1, 49, 95
6, 52920, Note_on_c, 1, 54, 112
6, 52920, Note_on_c, 1, 58, 112
6, 52950, Note_on_c, 1, 37, 0
6, 52980, Note_on_c, 1, 49, 0
6, 52980, Note_on_c, 1, 54, 0
6, 52980, Note_on_c, 1, 58, 0
6, 52980, Note_on_c, 1, 42, 106
6, 53010, Note_on_c, 1, 42, 0
6, 53010, Note_on_c, 1, 58, 116
6, 53010, Note_on_c, 1, 54, 101
6, 53010, Note_on_c, 1, 49, 71
6, 53040, Note_on_c, 1, 49, 0
6, 53040, Note_on_c, 1, 54, 0
6, 53040, Note_on_c, 1, 58, 0
6, 53070, Note_on_c, 1, 58, 116
6, 53070, Note_on_c, 1, 54, 112
6, 53070, Note_on_c, 1, 49, 80
6, 53100, Note_on_c, 1, 49, 0
6, 53100, Note_on_c, 1, 54, 0
6, 53100, Note_on_c, 1, 58, 0
6, 53100, Note_on_c, 1, 42, 124
6, 53130, Note_on_c, 1, 42, 0
6, 53130, Note_on_c, 1, 37, 120
6, 53160, Note_on_c, 1, 37, 0
6, 53160, Note_on_c, 1, 30, 127
6, 53160, Note_on_c, 1, 32, 79
6, 53160, Note_on_c, 1, 54, 101
6, 53160, Note_on_c, 1, 56, 116
6, 53160, Note_on_c, 1, 49, 79
6, 53190, Note_on_c, 1, 32, 0
6, 53220, Note_on_c, 1, 56, 0
6, 53220, Note_on_c, 1, 30, 0
6, 53220, Note_on_c, 1, 54, 0
6, 53220, Note_on_c, 1, 42, 124
6, 53220, Note_on_c, 1, 58, 83
6, 53250, Note_on_c, 1, 58, 0
6, 53250, Note_on_c, 1, 49, 0
6, 53250, Note_on_c, 1, 37, 112
6, 53280, Note_on_c, 1, 37, 0
6, 53280, Note_on_c, 1, 42, 0
6, 53280, Note_on_c, 1, 32, 127
6, 53280, Note_on_c, 1, 34, 101
6, 53280, Note_on_c, 1, 56, 106
6, 53280, Note_on_c, 1, 59, 108
6, 53280, Note_on_c, 1, 51, 89
6, 53310, Note_on_c, 1, 34, 0
6, 53340, Note_on_c, 1, 32, 0
6, 53340, Note_on_c, 1, 44, 116
6, 53370, Note_on_c, 1, 44, 0
6, 53370, Note_on_c, 1, 51, 0
6, 53370, Note_on_c, 1, 56, 0
6, 53370, Note_on_c, 1, 59, 0
6, 53370, Note_on_c, 1, 39, 120
6, 53400, Note_on_c, 1, 39, 0
6, 53400, Note_on_c, 1, 56, 116
6, 53400, Note_on_c, 1, 51, 89
6, 53400, Note_on_c, 1, 59, 110
6, 53460, Note_on_c, 1, 59, 0
6, 53460, Note_on_c, 1, 51, 0
6, 53460, Note_on_c, 1, 56, 0
6, 53460, Note_on_c, 1, 44, 116
6, 53490, Note_on_c, 1, 44, 0
6, 53490, Note_on_c, 1, 51, 75
6, 53490, Note_on_c, 1, 56, 101
6, 53490, Note_on_c, 1, 59, 100
6, 53520, Note_on_c, 1, 59, 0
6, 53520, Note_on_c, 1, 56, 0
6, 53520, Note_on_c, 1, 51, 0
6, 53550, Note_on_c, 1, 56, 112
6, 53550, Note_on_c, 1, 51, 93
6, 53550, Note_on_c, 1, 59, 105
6, 53580, Note_on_c, 1, 59, 0
6, 53580, Note_on_c, 1, 51, 0
6, 53580, Note_on_c, 1, 56, 0
6, 53580, Note_on_c, 1, 44, 116
6, 53610, Note_on_c, 1, 44, 0
6, 53610, Note_on_c, 1, 39, 95
6, 53640, Note_on_c, 1, 39, 0
6, 53640, Note_on_c, 1, 58, 120
6, 53640, Note_on_c, 1, 56, 120
6, 53640, Note_on_c, 1, 51, 93
6, 53640, Note_on_c, 1, 32, 116
6, 53700, Note_on_c, 1, 51, 0
6, 53700, Note_on_c, 1, 58, 0
6, 53700, Note_on_c, 1, 56, 0
6, 53700, Note_on_c, 1, 44, 127
6, 53700, Note_on_c, 1, 59, 82
6, 53730, Note_on_c, 1, 59, 0
6, 53730, Note_on_c, 1, 32, 0
6, 53730, Note_on_c, 1, 39, 109
6, 53760, Note_on_c, 1, 39, 0
6, 53760, Note_on_c, 1, 44, 0
6, 53760, Note_on_c, 1, 56, 101
6, 53760, Note_on_c, 1, 61, 95
6, 53760, Note_on_c, 1, 53, 88
6, 53760, Note_on_c, 1, 37, 120
6, 53820, Note_on_c, 1, 37, 0
6, 53820, Note_on_c, 1, 49, 120
6, 53850, Note_on_c, 1, 49, 0
6, 53850, Note_on_c, 1, 53, 0
6, 53850, Note_on_c, 1, 61, 0
6, 53850, Note_on_c, 1, 56, 0
6, 53850, Note_on_c, 1, 44, 89
6, 53880, Note_on_c, 1, 44, 0
6, 53880, Note_on_c, 1, 61, 101
6, 53880, Note_on_c, 1, 56, 116
6, 53880, Note_on_c, 1, 53, 93
6, 53940, Note_on_c, 1, 53, 0
6, 53940, Note_on_c, 1, 56, 0
6, 53940, Note_on_c, 1, 61, 0
6, 53940, Note_on_c, 1, 49, 109
6, 53970, Note_on_c, 1, 49, 0
6, 53970, Note_on_c, 1, 61, 84
6, 53970, Note_on_c, 1, 56, 104
6, 53970, Note_on_c, 1, 53, 79
6, 54000, Note_on_c, 1, 53, 0
6, 54000, Note_on_c, 1, 56, 0
6, 54000, Note_on_c, 1, 61, 0
6, 54030, Note_on_c, 1, 53, 93
6, 54030, Note_on_c, 1, 56, 112
6, 54030, Note_on_c, 1, 61, 89
6, 54060, Note_on_c, 1, 61, 0
6, 54060, Note_on_c, 1, 56, 0
6, 54060, Note_on_c, 1, 53, 0
6, 54060, Note_on_c, 1, 49, 104
6, 54090, Note_on_c, 1, 49, 0
6, 54090, Note_on_c, 1, 44, 104
6, 54120, Note_on_c, 1, 44, 0
6, 54120, Note_on_c, 1, 37, 124
6, 54150, Note_on_c, 1, 37, 0
6, 54150, Note_on_c, 1, 54, 112
6, 54150, Note_on_c, 1, 51, 106
6, 54150, Note_on_c, 1, 59, 112
6, 54180, Note_on_c, 1, 59, 0
6, 54180, Note_on_c, 1, 51, 0
6, 54180, Note_on_c, 1, 54, 0
6, 54180, Note_on_c, 1, 49, 124
6, 54210, Note_on_c, 1, 49, 0
6, 54210, Note_on_c, 1, 44, 109
6, 54240, Note_on_c, 1, 44, 0
6, 54240, Note_on_c, 1, 37, 124
6, 54240, Note_on_c, 1, 53, 95
6, 54240, Note_on_c, 1, 61, 101
6, 54240, Note_on_c, 1, 56, 120
6, 54300, Note_on_c, 1, 37, 0
6, 54300, Note_on_c, 1, 49, 120
6, 54330, Note_on_c, 1, 49, 0
6, 54330, Note_on_c, 1, 56, 0
6, 54330, Note_on_c, 1, 61, 0
6, 54330, Note_on_c, 1, 53, 0
6, 54330, Note_on_c, 1, 44, 120
6, 54360, Note_on_c, 1, 44, 0
6, 54360, Note_on_c, 1, 53, 93
6, 54360, Note_on_c, 1, 56, 116
6, 54360, Note_on_c, 1, 61, 109
6, 54420, Note_on_c, 1, 61, 0
6, 54420, Note_on_c, 1, 56, 0
6, 54420, Note_on_c, 1, 53, 0
6, 54420, Note_on_c, 1, 49, 120
6, 54450, Note_on_c, 1, 49, 0
6, 54450, Note_on_c, 1, 61, 86
6, 54450, Note_on_c, 1, 56, 106
6, 54450, Note_on_c, 1, 52, 80
6, 54480, Note_on_c, 1, 52, 0
6, 54480, Note_on_c, 1, 56, 0
6, 54480, Note_on_c, 1, 61, 0
6, 54720, Note_on_c, 1, 35, 99
6, 54720, Note_on_c, 1, 63, 99
6, 54720, Note_on_c, 1, 59, 110
6, 54720, Note_on_c, 1, 47, 106
6, 54720, Note_on_c, 1, 54, 95
6, 54750, Note_on_c, 1, 47, 0
6, 54780, Note_on_c, 1, 47, 96
6, 54810, Note_on_c, 1, 59, 0
6, 54810, Note_on_c, 1, 54, 0
6, 54810, Note_on_c, 1, 63, 0
6, 54840, Note_on_c, 1, 35, 0
6, 54840, Note_on_c, 1, 59, 114
6, 54840, Note_on_c, 1, 54, 101
6, 54840, Note_on_c, 1, 63, 101
6, 54870, Note_on_c, 1, 47, 0
6, 54900, Note_on_c, 1, 59, 0
6, 54900, Note_on_c, 1, 54, 0
6, 54900, Note_on_c, 1, 63, 0
6, 54900, Note_on_c, 1, 47, 121
6, 54930, Note_on_c, 1, 47, 0
6, 54930, Note_on_c, 1, 59, 114
6, 54930, Note_on_c, 1, 63, 95
6, 54930, Note_on_c, 1, 54, 88
6, 54960, Note_on_c, 1, 54, 0
6, 54960, Note_on_c, 1, 63, 0
6, 54960, Note_on_c, 1, 59, 0
6, 54990, Note_on_c, 1, 58, 101
6, 54990, Note_on_c, 1, 63, 95
6, 54990, Note_on_c, 1, 59, 119
6, 54990, Note_on_c, 1, 54, 104
6, 55020, Note_on_c, 1, 54, 0
6, 55020, Note_on_c, 1, 58, 0
6, 55020, Note_on_c, 1, 63, 0
6, 55020, Note_on_c, 1, 59, 0
6, 55020, Note_on_c, 1, 47, 100
6, 55050, Note_on_c, 1, 47, 0
6, 55050, Note_on_c, 1, 42, 112
6, 55080, Note_on_c, 1, 42, 0
6, 55080, Note_on_c, 1, 35, 119
6, 55080, Note_on_c, 1, 61, 109
6, 55080, Note_on_c, 1, 54, 106
6, 55080, Note_on_c, 1, 59, 110
6, 55110, Note_on_c, 1, 59, 0
6, 55140, Note_on_c, 1, 35, 0
6, 55140, Note_on_c, 1, 61, 0
6, 55140, Note_on_c, 1, 54, 0
6, 55140, Note_on_c, 1, 47, 121
6, 55140, Note_on_c, 1, 63, 91
6, 55140, Note_on_c, 1, 54, 61
6, 55170, Note_on_c, 1, 54, 0
6, 55170, Note_on_c, 1, 63, 0
6, 55170, Note_on_c, 1, 47, 0
6, 55170, Note_on_c, 1, 42, 116
6, 55200, Note_on_c, 1, 42, 0
6, 55200, Note_on_c, 1, 45, 103
6, 55200, Note_on_c, 1, 61, 109
6, 55200, Note_on_c, 1, 57, 100
6, 55200, Note_on_c, 1, 59, 108
6, 55200, Note_on_c, 1, 33, 102
6, 55200, Note_on_c, 1, 64, 106
6, 55230, Note_on_c, 1, 45, 0
6, 55260, Note_on_c, 1, 45, 114
6, 55290, Note_on_c, 1, 45, 0
6, 55290, Note_on_c, 1, 64, 0
6, 55290, Note_on_c, 1, 59, 0
6, 55290, Note_on_c, 1, 61, 0
6, 55290, Note_on_c, 1, 57, 0
6, 55290, Note_on_c, 1, 33, 0
6, 55290, Note_on_c, 1, 40, 110
6, 55320, Note_on_c, 1, 40, 0
6, 55320, Note_on_c, 1, 57, 108
6, 55320, Note_on_c, 1, 61, 106
6, 55320, Note_on_c, 1, 64, 117
6, 55320, Note_on_c, 1, 59, 112
6, 55380, Note_on_c, 1, 59, 0
6, 55380, Note_on_c, 1, 57, 0
6, 55380, Note_on_c, 1, 61, 0
6, 55380, Note_on_c, 1, 64, 0
6, 55380, Note_on_c, 1, 45, 90
6, 55410, Note_on_c, 1, 45, 0
6, 55410, Note_on_c, 1, 64, 99
6, 55410, Note_on_c, 1, 61, 106
6, 55410, Note_on_c, 1, 57, 84
6, 55410, Note_on_c, 1, 59, 94
6, 55440, Note_on_c, 1, 59, 0
6, 55440, Note_on_c, 1, 64, 0
6, 55440, Note_on_c, 1, 61, 0
6, 55440, Note_on_c, 1, 57, 0
6, 55470, Note_on_c, 1, 64, 103
6, 55470, Note_on_c, 1, 61, 120
6, 55470, Note_on_c, 1, 57, 103
6, 55470, Note_on_c, 1, 59, 106
6, 55500, Note_on_c, 1, 59, 0
6, 55500, Note_on_c, 1, 64, 0
6, 55500, Note_on_c, 1, 61, 0
6, 55500, Note_on_c, 1, 57, 0
6, 55500, Note_on_c, 1, 45, 105
6, 55530, Note_on_c, 1, 45, 0
6, 55530, Note_on_c, 1, 40, 92
6, 55560, Note_on_c, 1, 40, 0
6, 55560, Note_on_c, 1, 63, 99
6, 55560, Note_on_c, 1, 59, 108
6, 55560, Note_on_c, 1, 57, 91
6, 55560, Note_on_c, 1, 33, 127
6, 55620, Note_on_c, 1, 63, 0
6, 55620, Note_on_c, 1, 64, 89
6, 55620, Note_on_c, 1, 45, 121
6, 55650, Note_on_c, 1, 45, 0
6, 55650, Note_on_c, 1, 59, 0
6, 55650, Note_on_c, 1, 33, 0
6, 55650, Note_on_c, 1, 57, 0
6, 55650, Note_on_c, 1, 64, 0
6, 55650, Note_on_c, 1, 40, 112
6, 55680, Note_on_c, 1, 40, 0
6, 55680, Note_on_c, 1, 63, 72
6, 55680, Note_on_c, 1, 59, 93
6, 55680, Note_on_c, 1, 56, 79
6, 55680, Note_on_c, 1, 32, 120
6, 55680, Note_on_c, 1, 44, 93
6, 55710, Note_on_c, 1, 44, 0
6, 55740, Note_on_c, 1, 44, 127
6, 55770, Note_on_c, 1, 56, 0
6, 55770, Note_on_c, 1, 32, 0
6, 55770, Note_on_c, 1, 63, 0
6, 55770, Note_on_c, 1, 59, 0
6, 55770, Note_on_c, 1, 39, 61
6, 55800, Note_on_c, 1, 39, 0
6, 55800, Note_on_c, 1, 44, 0
6, 55800, Note_on_c, 1, 63, 124
6, 55800, Note_on_c, 1, 56, 104
6, 55800, Note_on_c, 1, 59, 112
6, 55860, Note_on_c, 1, 59, 0
6, 55860, Note_on_c, 1, 56, 0
6, 55860, Note_on_c, 1, 63, 0
6, 55860, Note_on_c, 1, 44, 127
6, 55890, Note_on_c, 1, 44, 0
6, 55890, Note_on_c, 1, 63, 89
6, 55890, Note_on_c, 1, 59, 95
6, 55890, Note_on_c, 1, 56, 88
6, 55920, Note_on_c, 1, 56, 0
6, 55920, Note_on_c, 1, 59, 0
6, 55920, Note_on_c, 1, 63, 0
6, 55950, Note_on_c, 1, 63, 106
6, 55950, Note_on_c, 1, 59, 112
6, 55950, Note_on_c, 1, 56, 101
6, 55980, Note_on_c, 1, 56, 0
6, 55980, Note_on_c, 1, 59, 0
6, 55980, Note_on_c, 1, 63, 0
6, 55980, Note_on_c, 1, 44, 127
6, 56010, Note_on_c, 1, 44, 0
6, 56010, Note_on_c, 1, 39, 106
6, 56040, Note_on_c, 1, 39, 0
6, 56040, Note_on_c, 1, 61, 112
6, 56040, Note_on_c, 1, 56, 101
6, 56040, Note_on_c, 1, 32, 120
6, 56040, Note_on_c, 1, 59, 103
6, 56040, Note_on_c, 1, 34, 71
6, 56070, Note_on_c, 1, 34, 0
6, 56100, Note_on_c, 1, 61, 0
6, 56100, Note_on_c, 1, 59, 0
6, 56100, Note_on_c, 1, 63, 74
6, 56100, Note_on_c, 1, 44, 127
6, 56130, Note_on_c, 1, 63, 0
6, 56130, Note_on_c, 1, 56, 0
6, 56130, Note_on_c, 1, 32, 0
6, 56130, Note_on_c, 1, 39, 116
6, 56160, Note_on_c, 1, 39, 0
6, 56160, Note_on_c, 1, 44, 0
6, 56160, Note_on_c, 1, 61, 82
6, 56160, Note_on_c, 1, 53, 95
6, 56160, Note_on_c, 1, 56, 101
6, 56160, Note_on_c, 1, 37, 99
6, 56220, Note_on_c, 1, 37, 0
6, 56220, Note_on_c, 1, 49, 124
6, 56250, Note_on_c, 1, 49, 0
6, 56250, Note_on_c, 1, 56, 0
6, 56250, Note_on_c, 1, 53, 0
6, 56250, Note_on_c, 1, 61, 0
6, 56250, Note_on_c, 1, 44, 109
6, 56280, Note_on_c, 1, 44, 0
6, 56280, Note_on_c, 1, 61, 101
6, 56280, Note_on_c, 1, 56, 112
6, 56280, Note_on_c, 1, 53, 93
6, 56340, Note_on_c, 1, 53, 0
6, 56340, Note_on_c, 1, 56, 0
6, 56340, Note_on_c, 1, 61, 0
6, 56340, Note_on_c, 1, 49, 112
6, 56370, Note_on_c, 1, 49, 0
6, 56370, Note_on_c, 1, 61, 82
6, 56370, Note_on_c, 1, 56, 106
6, 56370, Note_on_c, 1, 53, 87
6, 56400, Note_on_c, 1, 53, 0
6, 56400, Note_on_c, 1, 56, 0
6, 56400, Note_on_c, 1, 61, 0
6, 56430, Note_on_c, 1, 53, 98
6, 56430, Note_on_c, 1, 61, 97
6, 56430, Note_on_c, 1, 56, 116
6, 56460, Note_on_c, 1, 56, 0
6, 56460, Note_on_c, 1, 61, 0
6, 56460, Note_on_c, 1, 53, 0
6, 56460, Note_on_c, 1, 49, 120
6, 56490, Note_on_c, 1, 49, 0
6, 56490, Note_on_c, 1, 44, 106
6, 56520, Note_on_c, 1, 44, 0
6, 56520, Note_on_c, 1, 59, 92
6, 56520, Note_on_c, 1, 37, 127
6, 56520, Note_on_c, 1, 56, 106
6, 56520, Note_on_c, 1, 53, 91
6, 56550, Note_on_c, 1, 59, 0
6, 56580, Note_on_c, 1, 37, 0
6, 56580, Note_on_c, 1, 56, 0
6, 56580, Note_on_c, 1, 49, 124
6, 56580, Note_on_c, 1, 61, 91
6, 56610, Note_on_c, 1, 61, 0
6, 56610, Note_on_c, 1, 49, 0
6, 56610, Note_on_c, 1, 53, 0
6, 56610, Note_on_c, 1, 44, 116
6, 56640, Note_on_c, 1, 44, 0
6, 56640, Note_on_c, 1, 58, 112
6, 56640, Note_on_c, 1, 54, 89
6, 56640, Note_on_c, 1, 49, 104
6, 56640, Note_on_c, 1, 42, 97
6, 56640, Note_on_c, 1, 30, 93
6, 56640, Note_on_c, 1, 41, 110
6, 56640, Note_on_c, 1, 40, 98
6, 56670, Note_on_c, 1, 40, 0
6, 56670, Note_on_c, 1, 30, 0
6, 56670, Note_on_c, 1, 42, 0
6, 56670, Note_on_c, 1, 41, 0
6, 56700, Note_on_c, 1, 42, 124
6, 56730, Note_on_c, 1, 58, 0
6, 56730, Note_on_c, 1, 54, 0
6, 56730, Note_on_c, 1, 49, 0
6, 56760, Note_on_c, 1, 42, 0
6, 56760, Note_on_c, 1, 37, 41
6, 56760, Note_on_c, 1, 49, 95
6, 56760, Note_on_c, 1, 54, 112
6, 56760, Note_on_c, 1, 58, 112
6, 56790, Note_on_c, 1, 37, 0
6, 56820, Note_on_c, 1, 49, 0
6, 56820, Note_on_c, 1, 54, 0
6, 56820, Note_on_c, 1, 58, 0
6, 56820, Note_on_c, 1, 42, 106
6, 56850, Note_on_c, 1, 42, 0
6, 56850, Note_on_c, 1, 58, 116
6, 56850, Note_on_c, 1, 54, 101
6, 56850, Note_on_c, 1, 49, 71
6, 56880, Note_on_c, 1, 49, 0
6, 56880, Note_on_c, 1, 54, 0
6, 56880, Note_on_c, 1, 58, 0
6, 56910, Note_on_c, 1, 58, 116
6, 56910, Note_on_c, 1, 54, 112
6, 56910, Note_on_c, 1, 49, 80
6, 56940, Note_on_c, 1, 49, 0
6, 56940, Note_on_c, 1, 54, 0
6, 56940, Note_on_c, 1, 58, 0
6, 56940, Note_on_c, 1, 42, 124
6, 56970, Note_on_c, 1, 42, 0
6, 56970, Note_on_c, 1, 37, 120
6, 57000, Note_on_c, 1, 37, 0
6, 57000, Note_on_c, 1, 30, 127
6, 57000, Note_on_c, 1, 32, 79
6, 57000, Note_on_c, 1, 54, 101
6, 57000, Note_on_c, 1, 56, 116
6, 57000, Note_on_c, 1, 49, 79
6, 57030, Note_on_c, 1, 32, 0
6, 57060, Note_on_c, 1, 56, 0
6, 57060, Note_on_c, 1, 30, 0
6, 57060, Note_on_c, 1, 54, 0
6, 57060, Note_on_c, 1, 42, 124
6, 57060, Note_on_c, 1, 58, 83
6, 57090, Note_on_c, 1, 58, 0
6, 57090, Note_on_c, 1, 49, 0
6, 57090, Note_on_c, 1, 37, 112
6, 57120, Note_on_c, 1, 37, 0
6, 57120, Note_on_c, 1, 42, 0
6, 57120, Note_on_c, 1, 32, 127
6, 57120, Note_on_c, 1, 34, 101
6, 57120, Note_on_c, 1, 56, 106
6, 57120, Note_on_c, 1, 59, 108
6, 57120, Note_on_c, 1, 51, 89
6, 57150, Note_on_c, 1, 34, 0
6, 57165, Control_c, 1, 93, 60
6, 57170, Control_c, 1, 93, 63
6, 57180, Note_on_c, 1, 32, 0
6, 57180, Control_c, 1, 93, 42
6, 57180, Note_on_c, 1, 44, 116
6, 57185, Control_c, 1, 93, 0
6, 57210, Note_on_c, 1, 44, 0
6, 57210, Note_on_c, 1, 51, 0
6, 57210, Note_on_c, 1, 56, 0
6, 57210, Note_on_c, 1, 59, 0
6, 57210, Note_on_c, 1, 39, 120
6, 57240, Note_on_c, 1, 39, 0
6, 57240, Note_on_c, 1, 56, 116
6, 57240, Note_on_c, 1, 51, 89
6, 57240, Note_on_c, 1, 59, 110
6, 57300, Note_on_c, 1, 59, 0
6, 57300, Note_on_c, 1, 51, 0
6, 57300, Note_on_c, 1, 56, 0
6, 57300, Note_on_c, 1, 44, 116
6, 57330, Note_on_c, 1, 44, 0
6, 57330, Note_on_c, 1, 51, 75
6, 57330, Note_on_c, 1, 56, 101
6, 57330, Note_on_c, 1, 59, 100
6, 57360, Note_on_c, 1, 59, 0
6, 57360, Note_on_c, 1, 56, 0
6, 57360, Note_on_c, 1, 51, 0
6, 57390, Note_on_c, 1, 56, 112
6, 57390, Note_on_c, 1, 51, 93
6, 57390, Note_on_c, 1, 59, 105
6, 57420, Note_on_c, 1, 59, 0
6, 57420, Note_on_c, 1, 51, 0
6, 57420, Note_on_c, 1, 56, 0
6, 57420, Note_on_c, 1, 44, 116
6, 57450, Note_on_c, 1, 44, 0
6, 57450, Note_on_c, 1, 39, 95
6, 57480, Note_on_c, 1, 39, 0
6, 57480, Note_on_c, 1, 58, 120
6, 57480, Note_on_c, 1, 56, 120
6, 57480, Note_on_c, 1, 51, 93
6, 57480, Note_on_c, 1, 32, 116
6, 57540, Note_on_c, 1, 51, 0
6, 57540, Note_on_c, 1, 58, 0
6, 57540, Note_on_c, 1, 56, 0
6, 57540, Note_on_c, 1, 44, 127
6, 57540, Note_on_c, 1, 59, 82
6, 57570, Note_on_c, 1, 59, 0
6, 57570, Note_on_c, 1, 32, 0
6, 57570, Note_on_c, 1, 39, 109
6, 57600, Note_on_c, 1, 39, 0
6, 57600, Note_on_c, 1, 44, 0
6, 57600, Note_on_c, 1, 56, 101
6, 57600, Note_on_c, 1, 61, 95
6, 57600, Note_on_c, 1, 53, 88
6, 57600, Note_on_c, 1, 37, 120
6, 57660, Note_on_c, 1, 37, 0
6, 57660, Note_on_c, 1, 49, 120
6, 57690, Note_on_c, 1, 49, 0
6, 57690, Note_on_c, 1, 53, 0
6, 57690, Note_on_c, 1, 61, 0
6, 57690, Note_on_c, 1, 56, 0
6, 57690, Note_on_c, 1, 44, 89
6, 57720, Note_on_c, 1, 44, 0
6, 57720, Note_on_c, 1, 61, 101
6, 57720, Note_on_c, 1, 56, 116
6, 57720, Note_on_c, 1, 53, 93
6, 57780, Note_on_c, 1, 53, 0
6, 57780, Note_on_c, 1, 56, 0
6, 57780, Note_on_c, 1, 61, 0
6, 57780, Note_on_c, 1, 49, 109
6, 57810, Note_on_c, 1, 49, 0
6, 57810, Note_on_c, 1, 61, 84
6, 57810, Note_on_c, 1, 56, 104
6, 57810, Note_on_c, 1, 53, 79
6, 57840, Note_on_c, 1, 53, 0
6, 57840, Note_on_c, 1, 56, 0
6, 57840, Note_on_c, 1, 61, 0
6, 57870, Note_on_c, 1, 53, 93
6, 57870, Note_on_c, 1, 56, 112
6, 57870, Note_on_c, 1, 61, 89
6, 57900, Note_on_c, 1, 61, 0
6, 57900, Note_on_c, 1, 56, 0
6, 57900, Note_on_c, 1, 53, 0
6, 57900, Note_on_c, 1, 49, 104
6, 57930, Note_on_c, 1, 49, 0
6, 57930, Note_on_c, 1, 44, 104
6, 57960, Note_on_c, 1, 44, 0
6, 57960, Note_on_c, 1, 37, 124
6, 57990, Note_on_c, 1, 37, 0
6, 57990, Note_on_c, 1, 54, 112
6, 57990, Note_on_c, 1, 51, 106
6, 57990, Note_on_c, 1, 59, 112
6, 58020, Note_on_c, 1, 59, 0
6, 58020, Note_on_c, 1, 51, 0
6, 58020, Note_on_c, 1, 54, 0
6, 58020, Note_on_c, 1, 49, 124
6, 58050, Note_on_c, 1, 49, 0
6, 58050, Note_on_c, 1, 44, 109
6, 58080, Note_on_c, 1, 44, 0
6, 58080, Note_on_c, 1, 37, 124
6, 58080, Note_on_c, 1, 53, 95
6, 58080, Note_on_c, 1, 61, 101
6, 58080, Note_on_c, 1, 56, 120
6, 58140, Note_on_c, 1, 37, 0
6, 58140, Note_on_c, 1, 49, 120
6, 58170, Note_on_c, 1, 49, 0
6, 58170, Note_on_c, 1, 56, 0
6, 58170, Note_on_c, 1, 61, 0
6, 58170, Note_on_c, 1, 53, 0
6, 58170, Note_on_c, 1, 44, 120
6, 58200, Note_on_c, 1, 44, 0
6, 58200, Note_on_c, 1, 53, 93
6, 58200, Note_on_c, 1, 56, 116
6, 58200, Note_on_c, 1, 61, 109
6, 58260, Note_on_c, 1, 61, 0
6, 58260, Note_on_c, 1, 56, 0
6, 58260, Note_on_c, 1, 53, 0
6, 58260, Note_on_c, 1, 49, 120
6, 58290, Note_on_c, 1, 49, 0
6, 58290, Note_on_c, 1, 61, 86
6, 58290, Note_on_c, 1, 56, 106
6, 58290, Note_on_c, 1, 53, 80
6, 58320, Note_on_c, 1, 53, 0
6, 58320, Note_on_c, 1, 56, 0
6, 58320, Note_on_c, 1, 61, 0
6, 58350, Note_on_c, 1, 53, 106
6, 58350, Note_on_c, 1, 61, 101
6, 58350, Note_on_c, 1, 56, 127
6, 58380, Note_on_c, 1, 56, 0
6, 58380, Note_on_c, 1, 61, 0
6, 58380, Note_on_c, 1, 53, 0
6, 58380, Note_on_c, 1, 49, 116
6, 58410, Note_on_c, 1, 49, 0
6, 58410, Note_on_c, 1, 44, 109
6, 58440, Note_on_c, 1, 44, 0
6, 58440, Note_on_c, 1, 37, 124
6, 58440, Note_on_c, 1, 61, 93
6, 58440, Note_on_c, 1, 56, 109
6, 58440, Note_on_c, 1, 53, 93
6, 58500, Note_on_c, 1, 56, 0
6, 58500, Note_on_c, 1, 37, 0
6, 58500, Note_on_c, 1, 61, 0
6, 58500, Note_on_c, 1, 49, 112
6, 58530, Note_on_c, 1, 49, 0
6, 58530, Note_on_c, 1, 53, 0
6, 58560, Note_on_c, 1, 35, 99
6, 58560, Note_on_c, 1, 63, 99
6, 58560, Note_on_c, 1, 59, 110
6, 58560, Note_on_c, 1, 47, 106
6, 58560, Note_on_c, 1, 54, 95
6, 58590, Note_on_c, 1, 47, 0
6, 58620, Note_on_c, 1, 47, 96
6, 58650, Note_on_c, 1, 59, 0
6, 58650, Note_on_c, 1, 54, 0
6, 58650, Note_on_c, 1, 63, 0
6, 58680, Note_on_c, 1, 35, 0
6, 58680, Note_on_c, 1, 59, 114
6, 58680, Note_on_c, 1, 54, 101
6, 58680, Note_on_c, 1, 63, 101
6, 58710, Note_on_c, 1, 47, 0
6, 58715, Control_c, 1, 93, 7
6, 58740, Note_on_c, 1, 59, 0
6, 58740, Note_on_c, 1, 54, 0
6, 58740, Note_on_c, 1, 63, 0
6, 58740, Control_c, 1, 93, 10
6, 58740, Note_on_c, 1, 47, 121
6, 58745, Control_c, 1, 93, 13
6, 58755, Control_c, 1, 93, 17
6, 58770, Note_on_c, 1, 47, 0
6, 58770, Note_on_c, 1, 59, 114
6, 58770, Note_on_c, 1, 63, 95
6, 58770, Note_on_c, 1, 54, 88
6, 58775, Control_c, 1, 93, 21
6, 58800, Note_on_c, 1, 54, 0
6, 58800, Note_on_c, 1, 63, 0
6, 58800, Note_on_c, 1, 59, 0
6, 58805, Control_c, 1, 93, 24
6, 58830, Control_c, 1, 93, 28
6, 58830, Note_on_c, 1, 58, 101
6, 58830, Note_on_c, 1, 63, 95
6, 58830, Note_on_c, 1, 59, 119
6, 58830, Note_on_c, 1, 54, 104
6, 58839, Control_c, 1, 93, 32
6, 58844, Control_c, 1, 93, 33
6, 58849, Control_c, 1, 93, 37
6, 58860, Note_on_c, 1, 54, 0
6, 58860, Note_on_c, 1, 58, 0
6, 58860, Note_on_c, 1, 63, 0
6, 58860, Note_on_c, 1, 59, 0
6, 58860, Note_on_c, 1, 47, 100
6, 58886, Control_c, 1, 93, 39
6, 58890, Note_on_c, 1, 47, 0
6, 58890, Note_on_c, 1, 42, 112
6, 58920, Note_on_c, 1, 42, 0
6, 58920, Control_c, 1, 93, 42
6, 58920, Note_on_c, 1, 35, 119
6, 58920, Note_on_c, 1, 61, 109
6, 58920, Note_on_c, 1, 54, 106
6, 58920, Note_on_c, 1, 59, 110
6, 58950, Note_on_c, 1, 59, 0
6, 58977, Control_c, 1, 93, 46
6, 58980, Note_on_c, 1, 35, 0
6, 58980, Note_on_c, 1, 61, 0
6, 58980, Note_on_c, 1, 54, 0
6, 58980, Note_on_c, 1, 47, 121
6, 58980, Note_on_c, 1, 63, 91
6, 58980, Note_on_c, 1, 54, 61
6, 58984, Control_c, 1, 93, 51
6, 58989, Control_c, 1, 93, 53
6, 59005, Control_c, 1, 93, 58
6, 59010, Note_on_c, 1, 54, 0
6, 59010, Note_on_c, 1, 63, 0
6, 59010, Note_on_c, 1, 47, 0
6, 59010, Note_on_c, 1, 42, 116
6, 59040, Note_on_c, 1, 42, 0
6, 59040, Note_on_c, 1, 45, 103
6, 59040, Note_on_c, 1, 61, 109
6, 59040, Note_on_c, 1, 57, 100
6, 59040, Note_on_c, 1, 59, 108
6, 59040, Note_on_c, 1, 33, 102
6, 59040, Note_on_c, 1, 64, 106
6, 59045, Control_c, 1, 93, 63
6, 59070, Note_on_c, 1, 45, 0
6, 59070, Control_c, 1, 93, 68
6, 59085, Control_c, 1, 93, 73
6, 59090, Control_c, 1, 93, 78
6, 59100, Note_on_c, 1, 45, 114
6, 59130, Note_on_c, 1, 45, 0
6, 59130, Note_on_c, 1, 64, 0
6, 59130, Note_on_c, 1, 59, 0
6, 59130, Note_on_c, 1, 61, 0
6, 59130, Note_on_c, 1, 57, 0
6, 59130, Note_on_c, 1, 33, 0
6, 59130, Note_on_c, 1, 40, 110
6, 59160, Note_on_c, 1, 40, 0
6, 59160, Note_on_c, 1, 57, 108
6, 59160, Note_on_c, 1, 61, 106
6, 59160, Note_on_c, 1, 64, 117
6, 59160, Note_on_c, 1, 59, 112
6, 59220, Note_on_c, 1, 59, 0
6, 59220, Note_on_c, 1, 57, 0
6, 59220, Note_on_c, 1, 61, 0
6, 59220, Note_on_c, 1, 64, 0
6, 59220, Note_on_c, 1, 45, 90
6, 59250, Note_on_c, 1, 45, 0
6, 59250, Note_on_c, 1, 64, 99
6, 59250, Note_on_c, 1, 61, 106
6, 59250, Note_on_c, 1, 57, 84
6, 59250, Note_on_c, 1, 59, 94
6, 59280, Note_on_c, 1, 59, 0
6, 59280, Note_on_c, 1, 64, 0
6, 59280, Note_on_c, 1, 61, 0
6, 59280, Note_on_c, 1, 57, 0
6, 59300, Control_c, 1, 93, 81
6, 59310, Note_on_c, 1, 64, 103
6, 59310, Note_on_c, 1, 61, 120
6, 59310, Note_on_c, 1, 57, 103
6, 59310, Note_on_c, 1, 59, 106
6, 59340, Note_on_c, 1, 59, 0
6, 59340, Note_on_c, 1, 64, 0
6, 59340, Note_on_c, 1, 61, 0
6, 59340, Note_on_c, 1, 57, 0
6, 59340, Note_on_c, 1, 45, 105
6, 59370, Note_on_c, 1, 45, 0
6, 59370, Note_on_c, 1, 40, 92
6, 59400, Note_on_c, 1, 40, 0
6, 59400, Note_on_c, 1, 63, 99
6, 59400, Note_on_c, 1, 59, 108
6, 59400, Note_on_c, 1, 57, 91
6, 59400, Note_on_c, 1, 33, 127
6, 59441, Control_c, 1, 93, 78
6, 59460, Note_on_c, 1, 63, 0
6, 59460, Note_on_c, 1, 64, 89
6, 59460, Note_on_c, 1, 45, 121
6, 59470, Control_c, 1, 93, 73
6, 59486, Control_c, 1, 93, 72
6, 59490, Note_on_c, 1, 45, 0
6, 59490, Note_on_c, 1, 59, 0
6, 59490, Note_on_c, 1, 33, 0
6, 59490, Note_on_c, 1, 57, 0
6, 59490, Note_on_c, 1, 64, 0
6, 59490, Control_c, 1, 93, 67
6, 59490, Note_on_c, 1, 40, 112
6, 59520, Note_on_c, 1, 40, 0
6, 59520, Note_on_c, 1, 63, 72
6, 59520, Note_on_c, 1, 59, 93
6, 59520, Note_on_c, 1, 56, 79
6, 59520, Note_on_c, 1, 32, 120
6, 59520, Note_on_c, 1, 44, 93
6, 59550, Note_on_c, 1, 44, 0
6, 59550, Control_c, 1, 93, 72
6, 59560, Control_c, 1, 93, 75
6, 59580, Note_on_c, 1, 44, 127
6, 59610, Note_on_c, 1, 56, 0
6, 59610, Note_on_c, 1, 32, 0
6, 59610, Note_on_c, 1, 63, 0
6, 59610, Note_on_c, 1, 59, 0
6, 59610, Note_on_c, 1, 39, 61
6, 59632, Control_c, 1, 93, 78
6, 59640, Note_on_c, 1, 39, 0
6, 59640, Note_on_c, 1, 44, 0
6, 59640, Note_on_c, 1, 63, 124
6, 59640, Note_on_c, 1, 56, 104
6, 59640, Note_on_c, 1, 59, 112
6, 59647, Control_c, 1, 93, 81
6, 59700, Note_on_c, 1, 59, 0
6, 59700, Note_on_c, 1, 56, 0
6, 59700, Note_on_c, 1, 63, 0
6, 59700, Note_on_c, 1, 44, 127
6, 59730, Note_on_c, 1, 44, 0
6, 59730, Note_on_c, 1, 63, 89
6, 59730, Note_on_c, 1, 59, 95
6, 59730, Note_on_c, 1, 56, 88
6, 59760, Note_on_c, 1, 56, 0
6, 59760, Note_on_c, 1, 59, 0
6, 59760, Note_on_c, 1, 63, 0
6, 59790, Note_on_c, 1, 63, 106
6, 59790, Note_on_c, 1, 59, 112
6, 59790, Note_on_c, 1, 56, 101
6, 59815, Control_c, 1, 93, 84
6, 59820, Note_on_c, 1, 56, 0
6, 59820, Note_on_c, 1, 59, 0
6, 59820, Note_on_c, 1, 63, 0
6, 59820, Note_on_c, 1, 44, 127
6, 59850, Note_on_c, 1, 44, 0
6, 59850, Note_on_c, 1, 39, 106
6, 59880, Note_on_c, 1, 39, 0
6, 59880, Note_on_c, 1, 61, 112
6, 59880, Note_on_c, 1, 56, 101
6, 59880, Note_on_c, 1, 32, 120
6, 59880, Note_on_c, 1, 59, 103
6, 59880, Note_on_c, 1, 34, 71
6, 59910, Note_on_c, 1, 34, 0
6, 59940, Note_on_c, 1, 61, 0
6, 59940, Note_on_c, 1, 59, 0
6, 59940, Note_on_c, 1, 63, 74
6, 59940, Note_on_c, 1, 44, 127
6, 59970, Note_on_c, 1, 63, 0
6, 59970, Note_on_c, 1, 56, 0
6, 59970, Note_on_c, 1, 32, 0
6, 59970, Note_on_c, 1, 39, 116
6, 60000, Note_on_c, 1, 39, 0
6, 60000, Note_on_c, 1, 44, 0
6, 60000, Note_on_c, 1, 61, 82
6, 60000, Note_on_c, 1, 53, 95
6, 60000, Note_on_c, 1, 56, 101
6, 60000, Note_on_c, 1, 37, 99
6, 60060, Note_on_c, 1, 37, 0
6, 60060, Note_on_c, 1, 49, 124
6, 60090, Note_on_c, 1, 49, 0
6, 60090, Note_on_c, 1, 56, 0
6, 60090, Note_on_c, 1, 53, 0
6, 60090, Note_on_c, 1, 61, 0
6, 60090, Note_on_c, 1, 44, 109
6, 60120, Note_on_c, 1, 44, 0
6, 60120, Note_on_c, 1, 61, 101
6, 60120, Note_on_c, 1, 56, 112
6, 60120, Note_on_c, 1, 53, 93
6, 60180, Note_on_c, 1, 53, 0
6, 60180, Note_on_c, 1, 56, 0
6, 60180, Note_on_c, 1, 61, 0
6, 60180, Note_on_c, 1, 49, 112
6, 60210, Note_on_c, 1, 49, 0
6, 60210, Note_on_c, 1, 61, 82
6, 60210, Note_on_c, 1, 56, 106
6, 60210, Note_on_c, 1, 53, 87
6, 60240, Note_on_c, 1, 53, 0
6, 60240, Note_on_c, 1, 56, 0
6, 60240, Note_on_c, 1, 61, 0
6, 60270, Note_on_c, 1, 53, 98
6, 60270, Note_on_c, 1, 61, 97
6, 60270, Note_on_c, 1, 56, 116
6, 60300, Note_on_c, 1, 56, 0
6, 60300, Note_on_c, 1, 61, 0
6, 60300, Note_on_c, 1, 53, 0
6, 60300, Note_on_c, 1, 49, 120
6, 60330, Note_on_c, 1, 49, 0
6, 60330, Note_on_c, 1, 44, 106
6, 60360, Note_on_c, 1, 44, 0
6, 60360, Note_on_c, 1, 59, 92
6, 60360, Note_on_c, 1, 37, 127
6, 60360, Note_on_c, 1, 56, 106
6, 60360, Note_on_c, 1, 53, 91
6, 60379, Control_c, 1, 93, 87
6, 60390, Note_on_c, 1, 59, 0
6, 60420, Note_on_c, 1, 37, 0
6, 60420, Note_on_c, 1, 56, 0
6, 60420, Note_on_c, 1, 49, 124
6, 60420, Note_on_c, 1, 61, 91
6, 60450, Note_on_c, 1, 61, 0
6, 60450, Note_on_c, 1, 49, 0
6, 60450, Note_on_c, 1, 53, 0
6, 60450, Note_on_c, 1, 44, 116
6, 60480, Note_on_c, 1, 44, 0
6, 60480, Note_on_c, 1, 58, 112
6, 60480, Note_on_c, 1, 54, 89
6, 60480, Note_on_c, 1, 49, 104
6, 60480, Note_on_c, 1, 42, 97
6, 60480, Note_on_c, 1, 30, 93
6, 60480, Note_on_c, 1, 41, 110
6, 60480, Note_on_c, 1, 40, 98
6, 60510, Note_on_c, 1, 40, 0
6, 60510, Note_on_c, 1, 30, 0
6, 60510, Note_on_c, 1, 42, 0
6, 60510, Note_on_c, 1, 41, 0
6, 60540, Note_on_c, 1, 42, 124
6, 60560, Control_c, 1, 93, 84
6, 60570, Note_on_c, 1, 58, 0
6, 60570, Note_on_c, 1, 54, 0
6, 60570, Note_on_c, 1, 49, 0
6, 60600, Note_on_c, 1, 42, 0
6, 60600, Note_on_c, 1, 37, 41
6, 60600, Note_on_c, 1, 49, 95
6, 60600, Note_on_c, 1, 54, 112
6, 60600, Note_on_c, 1, 58, 112
6, 60630, Note_on_c, 1, 37, 0
6, 60660, Note_on_c, 1, 49, 0
6, 60660, Note_on_c, 1, 54, 0
6, 60660, Note_on_c, 1, 58, 0
6, 60660, Note_on_c, 1, 42, 106
6, 60690, Note_on_c, 1, 42, 0
6, 60690, Note_on_c, 1, 58, 116
6, 60690, Note_on_c, 1, 54, 101
6, 60690, Note_on_c, 1, 49, 71
6, 60720, Note_on_c, 1, 49, 0
6, 60720, Note_on_c, 1, 54, 0
6, 60720, Note_on_c, 1, 58, 0
6, 60750, Note_on_c, 1, 58, 116
6, 60750, Note_on_c, 1, 54, 112
6, 60750, Note_on_c, 1, 49, 80
6, 60780, Note_on_c, 1, 49, 0
6, 60780, Note_on_c, 1, 54, 0
6, 60780, Note_on_c, 1, 58, 0
6, 60780, Note_on_c, 1, 42, 124
6, 60810, Note_on_c, 1, 42, 0
6, 60810, Note_on_c, 1, 37, 120
6, 60840, Note_on_c, 1, 37, 0
6, 60840, Note_on_c, 1, 30, 127
6, 60840, Note_on_c, 1, 32, 79
6, 60840, Note_on_c, 1, 54, 101
6, 60840, Note_on_c, 1, 56, 116
6, 60840, Note_on_c, 1, 49, 79
6, 60870, Note_on_c, 1, 32, 0
6, 60900, Note_on_c, 1, 56, 0
6, 60900, Note_on_c, 1, 30, 0
6, 60900, Note_on_c, 1, 54, 0
6, 60900, Note_on_c, 1, 42, 124
6, 60900, Note_on_c, 1, 58, 83
6, 60930, Note_on_c, 1, 58, 0
6, 60930, Note_on_c, 1, 49, 0
6, 60930, Note_on_c, 1, 37, 112
6, 60960, Note_on_c, 1, 37, 0
6, 60960, Note_on_c, 1, 42, 0
6, 60960, Note_on_c, 1, 32, 127
6, 60960, Note_on_c, 1, 34, 101
6, 60960, Note_on_c, 1, 56, 106
6, 60960, Note_on_c, 1, 59, 108
6, 60960, Note_on_c, 1, 51, 89
6, 60990, Note_on_c, 1, 34, 0
6, 61020, Note_on_c, 1, 32, 0
6, 61020, Note_on_c, 1, 44, 116
6, 61050, Note_on_c, 1, 44, 0
6, 61050, Note_on_c, 1, 51, 0
6, 61050, Note_on_c, 1, 56, 0
6, 61050, Note_on_c, 1, 59, 0
6, 61050, Note_on_c, 1, 39, 120
6, 61080, Note_on_c, 1, 39, 0
6, 61080, Note_on_c, 1, 56, 116
6, 61080, Note_on_c, 1, 51, 89
6, 61080, Note_on_c, 1, 59, 110
6, 61140, Note_on_c, 1, 59, 0
6, 61140, Note_on_c, 1, 51, 0
6, 61140, Note_on_c, 1, 56, 0
6, 61140, Note_on_c, 1, 44, 116
6, 61165, Control_c, 1, 93, 87
6, 61170, Note_on_c, 1, 44, 0
6, 61170, Note_on_c, 1, 51, 75
6, 61170, Note_on_c, 1, 56, 101
6, 61170, Note_on_c, 1, 59, 100
6, 61200, Note_on_c, 1, 59, 0
6, 61200, Note_on_c, 1, 56, 0
6, 61200, Note_on_c, 1, 51, 0
6, 61230, Note_on_c, 1, 56, 112
6, 61230, Note_on_c, 1, 51, 93
6, 61230, Note_on_c, 1, 59, 105
6, 61260, Note_on_c, 1, 59, 0
6, 61260, Note_on_c, 1, 51, 0
6, 61260, Note_on_c, 1, 56, 0
6, 61260, Note_on_c, 1, 44, 116
6, 61290, Note_on_c, 1, 44, 0
6, 61290, Note_on_c, 1, 39, 95
6, 61320, Note_on_c, 1, 39, 0
6, 61320, Note_on_c, 1, 58, 120
6, 61320, Note_on_c, 1, 56, 120
6, 61320, Note_on_c, 1, 51, 93
6, 61320, Note_on_c, 1, 32, 116
6, 61380, Note_on_c, 1, 51, 0
6, 61380, Note_on_c, 1, 58, 0
6, 61380, Note_on_c, 1, 56, 0
6, 61380, Note_on_c, 1, 44, 127
6, 61380, Note_on_c, 1, 59, 82
6, 61410, Note_on_c, 1, 59, 0
6, 61410, Note_on_c, 1, 32, 0
6, 61410, Note_on_c, 1, 39, 109
6, 61440, Note_on_c, 1, 39, 0
6, 61440, Note_on_c, 1, 44, 0
6, 61440, Note_on_c, 1, 56, 101
6, 61440, Note_on_c, 1, 61, 95
6, 61440, Note_on_c, 1, 53, 88
6, 61440, Note_on_c, 1, 37, 120
6, 61500, Note_on_c, 1, 37, 0
6, 61500, Note_on_c, 1, 49, 120
6, 61530, Note_on_c, 1, 49, 0
6, 61530, Note_on_c, 1, 53, 0
6, 61530, Note_on_c, 1, 61, 0
6, 61530, Note_on_c, 1, 56, 0
6, 61530, Note_on_c, 1, 44, 89
6, 61560, Note_on_c, 1, 44, 0
6, 61560, Note_on_c, 1, 61, 101
6, 61560, Note_on_c, 1, 56, 116
6, 61560, Note_on_c, 1, 53, 93
6, 61620, Note_on_c, 1, 53, 0
6, 61620, Note_on_c, 1, 56, 0
6, 61620, Note_on_c, 1, 61, 0
6, 61620, Note_on_c, 1, 49, 109
6, 61650, Note_on_c, 1, 49, 0
6, 61650, Note_on_c, 1, 61, 84
6, 61650, Note_on_c, 1, 56, 104
6, 61650, Note_on_c, 1, 53, 79
6, 61680, Note_on_c, 1, 53, 0
6, 61680, Note_on_c, 1, 56, 0
6, 61680, Note_on_c, 1, 61, 0
6, 61710, Note_on_c, 1, 53, 93
6, 61710, Note_on_c, 1, 56, 112
6, 61710, Note_on_c, 1, 61, 89
6, 61740, Note_on_c, 1, 61, 0
6, 61740, Note_on_c, 1, 56, 0
6, 61740, Note_on_c, 1, 53, 0
6, 61740, Note_on_c, 1, 49, 104
6, 61770, Note_on_c, 1, 49, 0
6, 61770, Note_on_c, 1, 44, 104
6, 61800, Note_on_c, 1, 44, 0
6, 61800, Note_on_c, 1, 37, 124
6, 61830, Note_on_c, 1, 37, 0
6, 61830, Note_on_c, 1, 54, 112
6, 61830, Note_on_c, 1, 51, 106
6, 61830, Note_on_c, 1, 59, 112
6, 61860, Note_on_c, 1, 59, 0
6, 61860, Note_on_c, 1, 51, 0
6, 61860, Note_on_c, 1, 54, 0
6, 61860, Note_on_c, 1, 49, 124
6, 61890, Note_on_c, 1, 49, 0
6, 61890, Note_on_c, 1, 44, 109
6, 61920, Note_on_c, 1, 44, 0
6, 61920, Note_on_c, 1, 37, 124
6, 61920, Note_on_c, 1, 53, 95
6, 61920, Note_on_c, 1, 61, 101
6, 61920, Note_on_c, 1, 56, 120
6, 61980, Note_on_c, 1, 37, 0
6, 61980, Note_on_c, 1, 49, 120
6, 62010, Note_on_c, 1, 49, 0
6, 62010, Note_on_c, 1, 56, 0
6, 62010, Note_on_c, 1, 61, 0
6, 62010, Note_on_c, 1, 53, 0
6, 62010, Note_on_c, 1, 44, 120
6, 62040, Note_on_c, 1, 44, 0
6, 62040, Note_on_c, 1, 53, 93
6, 62040, Note_on_c, 1, 56, 116
6, 62040, Note_on_c, 1, 61, 109
6, 62100, Note_on_c, 1, 61, 0
6, 62100, Note_on_c, 1, 56, 0
6, 62100, Note_on_c, 1, 53, 0
6, 62100, Note_on_c, 1, 49, 120
6, 62130, Note_on_c, 1, 49, 0
6, 62130, Note_on_c, 1, 61, 86
6, 62130, Note_on_c, 1, 56, 106
6, 62130, Note_on_c, 1, 52, 80
6, 62160, Note_on_c, 1, 52, 0
6, 62160, Note_on_c, 1, 56, 0
6, 62160, Note_on_c, 1, 61, 0
6, 62400, Note_on_c, 1, 35, 99
6, 62400, Note_on_c, 1, 63, 99
6, 62400, Note_on_c, 1, 59, 110
6, 62400, Note_on_c, 1, 47, 106
6, 62400, Note_on_c, 1, 54, 95
6, 62430, Note_on_c, 1, 47, 0
6, 62460, Note_on_c, 1, 47, 96
6, 62490, Note_on_c, 1, 59, 0
6, 62490, Note_on_c, 1, 54, 0
6, 62490, Note_on_c, 1, 63, 0
6, 62520, Note_on_c, 1, 35, 0
6, 62520, Note_on_c, 1, 59, 114
6, 62520, Note_on_c, 1, 54, 101
6, 62520, Note_on_c, 1, 63, 101
6, 62550, Note_on_c, 1, 47, 0
6, 62580, Note_on_c, 1, 59, 0
6, 62580, Note_on_c, 1, 54, 0
6, 62580, Note_on_c, 1, 63, 0
6, 62580, Note_on_c, 1, 47, 121
6, 62610, Note_on_c, 1, 47, 0
6, 62610, Note_on_c, 1, 59, 114
6, 62610, Note_on_c, 1, 63, 95
6, 62610, Note_on_c, 1, 54, 88
6, 62640, Note_on_c, 1, 54, 0
6, 62640, Note_on_c, 1, 63, 0
6, 62640, Note_on_c, 1, 59, 0
6, 62670, Note_on_c, 1, 58, 101
6, 62670, Note_on_c, 1, 63, 95
6, 62670, Note_on_c, 1, 59, 119
6, 62670, Note_on_c, 1, 54, 104
6, 62700, Note_on_c, 1, 54, 0
6, 62700, Note_on_c, 1, 58, 0
6, 62700, Note_on_c, 1, 63, 0
6, 62700, Note_on_c, 1, 59, 0
6, 62700, Note_on_c, 1, 47, 100
6, 62730, Note_on_c, 1, 47, 0
6, 62730, Note_on_c, 1, 42, 112
6, 62760, Note_on_c, 1, 42, 0
6, 62760, Note_on_c, 1, 35, 119
6, 62760, Note_on_c, 1, 61, 109
6, 62760, Note_on_c, 1, 54, 106
6, 62760, Note_on_c, 1, 59, 110
6, 62790, Note_on_c, 1, 59, 0
6, 62820, Note_on_c, 1, 35, 0
6, 62820, Note_on_c, 1, 61, 0
6, 62820, Note_on_c, 1, 54, 0
6, 62820, Note_on_c, 1, 47, 121
6, 62820, Note_on_c, 1, 63, 91
6, 62820, Note_on_c, 1, 54, 61
6, 62850, Note_on_c, 1, 54, 0
6, 62850, Note_on_c, 1, 63, 0
6, 62850, Note_on_c, 1, 47, 0
6, 62850, Note_on_c, 1, 42, 116
6, 62880, Note_on_c, 1, 42, 0
6, 62880, Note_on_c, 1, 45, 103
6, 62880, Note_on_c, 1, 61, 109
6, 62880, Note_on_c, 1, 57, 100
6, 62880, Note_on_c, 1, 59, 108
6, 62880, Note_on_c, 1, 33, 102
6, 62880, Note_on_c, 1, 64, 106
6, 62910, Note_on_c, 1, 45, 0
6, 62940, Note_on_c, 1, 45, 114
6, 62970, Note_on_c, 1, 45, 0
6, 62970, Note_on_c, 1, 64, 0
6, 62970, Note_on_c, 1, 59, 0
6, 62970, Note_on_c, 1, 61, 0
6, 62970, Note_on_c, 1, 57, 0
6, 62970, Note_on_c, 1, 33, 0
6, 62970, Note_on_c, 1, 40, 110
6, 63000, Note_on_c, 1, 40, 0
6, 63000, Note_on_c, 1, 57, 108
6, 63000, Note_on_c, 1, 61, 106
6, 63000, Note_on_c, 1, 64, 117
6, 63000, Note_on_c, 1, 59, 112
6, 63060, Note_on_c, 1, 59, 0
6, 63060, Note_on_c, 1, 57, 0
6, 63060, Note_on_c, 1, 61, 0
6, 63060, Note_on_c, 1, 64, 0
6, 63060, Note_on_c, 1, 45, 90
6, 63090, Note_on_c, 1, 45, 0
6, 63090, Note_on_c, 1, 64, 99
6, 63090, Note_on_c, 1, 61, 106
6, 63090, Note_on_c, 1, 57, 84
6, 63090, Note_on_c, 1, 59, 94
6, 63120, Note_on_c, 1, 59, 0
6, 63120, Note_on_c, 1, 64, 0
6, 63120, Note_on_c, 1, 61, 0
6, 63120, Note_on_c, 1, 57, 0
6, 63150, Note_on_c, 1, 64, 103
6, 63150, Note_on_c, 1, 61, 120
6, 63150, Note_on_c, 1, 57, 103
6, 63150, Note_on_c, 1, 59, 106
6, 63180, Note_on_c, 1, 59, 0
6, 63180, Note_on_c, 1, 64, 0
6, 63180, Note_on_c, 1, 61, 0
6, 63180, Note_on_c, 1, 57, 0
6, 63180, Note_on_c, 1, 45, 105
6, 63210, Note_on_c, 1, 45, 0
6, 63210, Note_on_c, 1, 40, 92
6, 63240, Note_on_c, 1, 40, 0
6, 63240, Note_on_c, 1, 63, 99
6, 63240, Note_on_c, 1, 59, 108
6, 63240, Note_on_c, 1, 57, 91
6, 63240, Note_on_c, 1, 33, 127
6, 63300, Note_on_c, 1, 63, 0
6, 63300, Note_on_c, 1, 64, 89
6, 63300, Note_on_c, 1, 45, 121
6, 63330, Note_on_c, 1, 45, 0
6, 63330, Note_on_c, 1, 59, 0
6, 63330, Note_on_c, 1, 33, 0
6, 63330, Note_on_c, 1, 57, 0
6, 63330, Note_on_c, 1, 64, 0
6, 63330, Note_on_c, 1, 40, 112
6, 63360, Note_on_c, 1, 40, 0
6, 63360, Note_on_c, 1, 63, 72
6, 63360, Note_on_c, 1, 59, 93
6, 63360, Note_on_c, 1, 56, 79
6, 63360, Note_on_c, 1, 32, 120
6, 63360, Note_on_c, 1, 44, 93
6, 63390, Note_on_c, 1, 44, 0
6, 63420, Note_on_c, 1, 44, 127
6, 63450, Note_on_c, 1, 56, 0
6, 63450, Note_on_c, 1, 32, 0
6, 63450, Note_on_c, 1, 63, 0
6, 63450, Note_on_c, 1, 59, 0
6, 63450, Note_on_c, 1, 39, 61
6, 63480, Note_on_c, 1, 39, 0
6, 63480, Note_on_c, 1, 44, 0
6, 63480, Note_on_c, 1, 63, 124
6, 63480, Note_on_c, 1, 56, 104
6, 63480, Note_on_c, 1, 59, 112
6, 63540, Note_on_c, 1, 59, 0
6, 63540, Note_on_c, 1, 56, 0
6, 63540, Note_on_c, 1, 63, 0
6, 63540, Note_on_c, 1, 44, 127
6, 63570, Note_on_c, 1, 44, 0
6, 63570, Note_on_c, 1, 63, 89
6, 63570, Note_on_c, 1, 59, 95
6, 63570, Note_on_c, 1, 56, 88
6, 63600, Note_on_c, 1, 56, 0
6, 63600, Note_on_c, 1, 59, 0
6, 63600, Note_on_c, 1, 63, 0
6, 63630, Note_on_c, 1, 63, 106
6, 63630, Note_on_c, 1, 59, 112
6, 63630, Note_on_c, 1, 56, 101
6, 63660, Note_on_c, 1, 56, 0
6, 63660, Note_on_c, 1, 59, 0
6, 63660, Note_on_c, 1, 63, 0
6, 63660, Note_on_c, 1, 44, 127
6, 63690, Note_on_c, 1, 44, 0
6, 63690, Note_on_c, 1, 39, 106
6, 63720, Note_on_c, 1, 39, 0
6, 63720, Note_on_c, 1, 61, 112
6, 63720, Note_on_c, 1, 56, 101
6, 63720, Note_on_c, 1, 32, 120
6, 63720, Note_on_c, 1, 59, 103
6, 63720, Note_on_c, 1, 34, 71
6, 63750, Note_on_c, 1, 34, 0
6, 63780, Note_on_c, 1, 61, 0
6, 63780, Note_on_c, 1, 59, 0
6, 63780, Note_on_c, 1, 63, 74
6, 63780, Note_on_c, 1, 44, 127
6, 63810, Note_on_c, 1, 63, 0
6, 63810, Note_on_c, 1, 56, 0
6, 63810, Note_on_c, 1, 32, 0
6, 63810, Note_on_c, 1, 39, 116
6, 63840, Note_on_c, 1, 39, 0
6, 63840, Note_on_c, 1, 44, 0
6, 63840, Note_on_c, 1, 61, 82
6, 63840, Note_on_c, 1, 53, 95
6, 63840, Note_on_c, 1, 56, 101
6, 63840, Note_on_c, 1, 37, 99
6, 63900, Note_on_c, 1, 37, 0
6, 63900, Note_on_c, 1, 49, 124
6, 63930, Note_on_c, 1, 49, 0
6, 63930, Note_on_c, 1, 56, 0
6, 63930, Note_on_c, 1, 53, 0
6, 63930, Note_on_c, 1, 61, 0
6, 63930, Note_on_c, 1, 44, 109
6, 63960, Note_on_c, 1, 44, 0
6, 63960, Note_on_c, 1, 61, 101
6, 63960, Note_on_c, 1, 56, 112
6, 63960, Note_on_c, 1, 53, 93
6, 64020, Note_on_c, 1, 53, 0
6, 64020, Note_on_c, 1, 56, 0
6, 64020, Note_on_c, 1, 61, 0
6, 64020, Note_on_c, 1, 49, 112
6, 64050, Note_on_c, 1, 49, 0
6, 64050, Note_on_c, 1, 61, 82
6, 64050, Note_on_c, 1, 56, 106
6, 64050, Note_on_c, 1, 53, 87
6, 64080, Note_on_c, 1, 53, 0
6, 64080, Note_on_c, 1, 56, 0
6, 64080, Note_on_c, 1, 61, 0
6, 64110, Note_on_c, 1, 53, 98
6, 64110, Note_on_c, 1, 61, 97
6, 64110, Note_on_c, 1, 56, 116
6, 64140, Note_on_c, 1, 56, 0
6, 64140, Note_on_c, 1, 61, 0
6, 64140, Note_on_c, 1, 53, 0
6, 64140, Note_on_c, 1, 49, 120
6, 64170, Note_on_c, 1, 49, 0
6, 64170, Note_on_c, 1, 44, 106
6, 64200, Note_on_c, 1, 44, 0
6, 64200, Note_on_c, 1, 59, 92
6, 64200, Note_on_c, 1, 37, 127
6, 64200, Note_on_c, 1, 56, 106
6, 64200, Note_on_c, 1, 53, 91
6, 64230, Note_on_c, 1, 59, 0
6, 64260, Note_on_c, 1, 37, 0
6, 64260, Note_on_c, 1, 56, 0
6, 64260, Note_on_c, 1, 49, 124
6, 64260, Note_on_c, 1, 61, 91
6, 64290, Note_on_c, 1, 61, 0
6, 64290, Note_on_c, 1, 49, 0
6, 64290, Note_on_c, 1, 53, 0
6, 64290, Note_on_c, 1, 44, 116
6, 64320, Note_on_c, 1, 44, 0
6, 64320, Note_on_c, 1, 58, 112
6, 64320, Note_on_c, 1, 54, 89
6, 64320, Note_on_c, 1, 49, 104
6, 64320, Note_on_c, 1, 42, 97
6, 64320, Note_on_c, 1, 30, 93
6, 64320, Note_on_c, 1, 41, 110
6, 64320, Note_on_c, 1, 40, 98
6, 64350, Note_on_c, 1, 40, 0
6, 64350, Note_on_c, 1, 30, 0
6, 64350, Note_on_c, 1, 42, 0
6, 64350, Note_on_c, 1, 41, 0
6, 64380, Note_on_c, 1, 42, 124
6, 64410, Note_on_c, 1, 58, 0
6, 64410, Note_on_c, 1, 54, 0
6, 64410, Note_on_c, 1, 49, 0
6, 64440, Note_on_c, 1, 42, 0
6, 64440, Note_on_c, 1, 37, 41
6, 64440, Note_on_c, 1, 49, 95
6, 64440, Note_on_c, 1, 54, 112
6, 64440, Note_on_c, 1, 58, 112
6, 64470, Note_on_c, 1, 37, 0
6, 64500, Note_on_c, 1, 49, 0
6, 64500, Note_on_c, 1, 54, 0
6, 64500, Note_on_c, 1, 58, 0
6, 64500, Note_on_c, 1, 42, 106
6, 64530, Note_on_c, 1, 42, 0
6, 64530, Note_on_c, 1, 58, 116
6, 64530, Note_on_c, 1, 54, 101
6, 64530, Note_on_c, 1, 49, 71
6, 64560, Note_on_c, 1, 49, 0
6, 64560, Note_on_c, 1, 54, 0
6, 64560, Note_on_c, 1, 58, 0
6, 64590, Note_on_c, 1, 58, 116
6, 64590, Note_on_c, 1, 54, 112
6, 64590, Note_on_c, 1, 49, 80
6, 64620, Note_on_c, 1, 49, 0
6, 64620, Note_on_c, 1, 54, 0
6, 64620, Note_on_c, 1, 58, 0
6, 64620, Note_on_c, 1, 42, 124
6, 64650, Note_on_c, 1, 42, 0
6, 64650, Note_on_c, 1, 37, 120
6, 64680, Note_on_c, 1, 37, 0
6, 64680, Note_on_c, 1, 30, 127
6, 64680, Note_on_c, 1, 32, 79
6, 64680, Note_on_c, 1, 54, 101
6, 64680, Note_on_c, 1, 56, 116
6, 64680, Note_on_c, 1, 49, 79
6, 64710, Note_on_c, 1, 32, 0
6, 64740, Note_on_c, 1, 56, 0
6, 64740, Note_on_c, 1, 30, 0
6, 64740, Note_on_c, 1, 54, 0
6, 64740, Note_on_c, 1, 42, 124
6, 64740, Note_on_c, 1, 58, 83
6, 64770, Note_on_c, 1, 58, 0
6, 64770, Note_on_c, 1, 49, 0
6, 64770, Note_on_c, 1, 37, 112
6, 64800, Note_on_c, 1, 37, 0
6, 64800, Note_on_c, 1, 42, 0
6, 64800, Note_on_c, 1, 32, 127
6, 64800, Note_on_c, 1, 34, 101
6, 64800, Note_on_c, 1, 56, 106
6, 64800, Note_on_c, 1, 59, 108
6, 64800, Note_on_c, 1, 51, 89
6, 64830, Note_on_c, 1, 34, 0
6, 64860, Note_on_c, 1, 32, 0
6, 64860, Note_on_c, 1, 44, 116
6, 64890, Note_on_c, 1, 44, 0
6, 64890, Note_on_c, 1, 51, 0
6, 64890, Note_on_c, 1, 56, 0
6, 64890, Note_on_c, 1, 59, 0
6, 64890, Note_on_c, 1, 39, 120
6, 64920, Note_on_c, 1, 39, 0
6, 64920, Note_on_c, 1, 56, 116
6, 64920, Note_on_c, 1, 51, 89
6, 64920, Note_on_c, 1, 59, 110
6, 64980, Note_on_c, 1, 59, 0
6, 64980, Note_on_c, 1, 51, 0
6, 64980, Note_on_c, 1, 56, 0
6, 64980, Note_on_c, 1, 44, 116
6, 65010, Note_on_c, 1, 44, 0
6, 65010, Note_on_c, 1, 51, 75
6, 65010, Note_on_c, 1, 56, 101
6, 65010, Note_on_c, 1, 59, 100
6, 65040, Note_on_c, 1, 59, 0
6, 65040, Note_on_c, 1, 56, 0
6, 65040, Note_on_c, 1, 51, 0
6, 65070, Note_on_c, 1, 56, 112
6, 65070, Note_on_c, 1, 51, 93
6, 65070, Note_on_c, 1, 59, 105
6, 65100, Note_on_c, 1, 59, 0
6, 65100, Note_on_c, 1, 51, 0
6, 65100, Note_on_c, 1, 56, 0
6, 65100, Note_on_c, 1, 44, 116
6, 65130, Note_on_c, 1, 44, 0
6, 65130, Note_on_c, 1, 39, 95
6, 65160, Note_on_c, 1, 39, 0
6, 65160, Note_on_c, 1, 58, 120
6, 65160, Note_on_c, 1, 56, 120
6, 65160, Note_on_c, 1, 51, 93
6, 65160, Note_on_c, 1, 32, 116
6, 65220, Note_on_c, 1, 51, 0
6, 65220, Note_on_c, 1, 58, 0
6, 65220, Note_on_c, 1, 56, 0
6, 65220, Note_on_c, 1, 44, 127
6, 65220, Note_on_c, 1, 59, 82
6, 65250, Note_on_c, 1, 59, 0
6, 65250, Note_on_c, 1, 32, 0
6, 65250, Note_on_c, 1, 39, 109
6, 65280, Note_on_c, 1, 39, 0
6, 65280, Note_on_c, 1, 44, 0
6, 65280, Note_on_c, 1, 56, 101
6, 65280, Note_on_c, 1, 61, 95
6, 65280, Note_on_c, 1, 53, 88
6, 65280, Note_on_c, 1, 37, 120
6, 65340, Note_on_c, 1, 37, 0
6, 65340, Note_on_c, 1, 49, 120
6, 65370, Note_on_c, 1, 49, 0
6, 65370, Note_on_c, 1, 53, 0
6, 65370, Note_on_c, 1, 61, 0
6, 65370, Note_on_c, 1, 56, 0
6, 65370, Note_on_c, 1, 44, 89
6, 65400, Note_on_c, 1, 44, 0
6, 65400, Note_on_c, 1, 61, 101
6, 65400, Note_on_c, 1, 56, 116
6, 65400, Note_on_c, 1, 53, 93
6, 65460, Note_on_c, 1, 53, 0
6, 65460, Note_on_c, 1, 56, 0
6, 65460, Note_on_c, 1, 61, 0
6, 65460, Note_on_c, 1, 49, 109
6, 65490, Note_on_c, 1, 49, 0
6, 65490, Note_on_c, 1, 61, 84
6, 65490, Note_on_c, 1, 56, 104
6, 65490, Note_on_c, 1, 53, 79
6, 65520, Note_on_c, 1, 53, 0
6, 65520, Note_on_c, 1, 56, 0
6, 65520, Note_on_c, 1, 61, 0
6, 65550, Note_on_c, 1, 53, 93
6, 65550, Note_on_c, 1, 56, 112
6, 65550, Note_on_c, 1, 61, 89
6, 65580, Note_on_c, 1, 61, 0
6, 65580, Note_on_c, 1, 56, 0
6, 65580, Note_on_c, 1, 53, 0
6, 65580, Note_on_c, 1, 49, 104
6, 65610, Note_on_c, 1, 49, 0
6, 65610, Note_on_c, 1, 44, 104
6, 65640, Note_on_c, 1, 44, 0
6, 65640, Note_on_c, 1, 37, 124
6, 65670, Note_on_c, 1, 37, 0
6, 65670, Note_on_c, 1, 54, 112
6, 65670, Note_on_c, 1, 51, 106
6, 65670, Note_on_c, 1, 59, 112
6, 65700, Note_on_c, 1, 59, 0
6, 65700, Note_on_c, 1, 51, 0
6, 65700, Note_on_c, 1, 54, 0
6, 65700, Note_on_c, 1, 49, 124
6, 65730, Note_on_c, 1, 49, 0
6, 65730, Note_on_c, 1, 44, 109
6, 65760, Note_on_c, 1, 44, 0
6, 65760, Note_on_c, 1, 37, 124
6, 65760, Note_on_c, 1, 53, 95
6, 65760, Note_on_c, 1, 61, 101
6, 65760, Note_on_c, 1, 56, 120
6, 65820, Note_on_c, 1, 37, 0
6, 65820, Note_on_c, 1, 49, 120
6, 65850, Note_on_c, 1, 49, 0
6, 65850, Note_on_c, 1, 56, 0
6, 65850, Note_on_c, 1, 61, 0
6, 65850, Note_on_c, 1, 53, 0
6, 65850, Note_on_c, 1, 44, 120
6, 65880, Note_on_c, 1, 44, 0
6, 65880, Note_on_c, 1, 53, 93
6, 65880, Note_on_c, 1, 56, 116
6, 65880, Note_on_c, 1, 61, 109
6, 65940, Note_on_c, 1, 61, 0
6, 65940, Note_on_c, 1, 56, 0
6, 65940, Note_on_c, 1, 53, 0
6, 65940, Note_on_c, 1, 49, 120
6, 65970, Note_on_c, 1, 49, 0
6, 65970, Note_on_c, 1, 61, 86
6, 65970, Note_on_c, 1, 56, 106
6, 65970, Note_on_c, 1, 53, 80
6, 66000, Note_on_c, 1, 53, 0
6, 66000, Note_on_c, 1, 56, 0
6, 66000, Note_on_c, 1, 61, 0
6, 66030, Note_on_c, 1, 53, 106
6, 66030, Note_on_c, 1, 61, 101
6, 66030, Note_on_c, 1, 56, 127
6, 66060, Note_on_c, 1, 56, 0
6, 66060, Note_on_c, 1, 61, 0
6, 66060, Note_on_c, 1, 53, 0
6, 66060, Note_on_c, 1, 49, 116
6, 66090, Note_on_c, 1, 49, 0
6, 66090, Note_on_c, 1, 44, 109
6, 66120, Note_on_c, 1, 44, 0
6, 66120, Note_on_c, 1, 37, 124
6, 66120, Note_on_c, 1, 61, 93
6, 66120, Note_on_c, 1, 56, 109
6, 66120, Note_on_c, 1, 53, 93
6, 66180, Note_on_c, 1, 56, 0
6, 66180, Note_on_c, 1, 37, 0
6, 66180, Note_on_c, 1, 61, 0
6, 66180, Note_on_c, 1, 49, 112
6, 66210, Note_on_c, 1, 49, 0
6, 66210, Note_on_c, 1, 53, 0
6, 66240, Control_c, 1, 7, 100
6, 66240, Note_on_c, 1, 35, 99
6, 66240, Note_on_c, 1, 63, 99
6, 66240, Note_on_c, 1, 59, 110
6, 66240, Note_on_c, 1, 47, 106
6, 66240, Note_on_c, 1, 54, 95
6, 66270, Note_on_c, 1, 47, 0
6, 66270, Control_c, 1, 7, 99
6, 66300, Control_c, 1, 7, 98
6, 66300, Note_on_c, 1, 47, 96
6, 66330, Note_on_c, 1, 59, 0
6, 66330, Note_on_c, 1, 54, 0
6, 66330, Note_on_c, 1, 63, 0
6, 66330, Control_c, 1, 7, 97
6, 66360, Note_on_c, 1, 35, 0
6, 66360, Control_c, 1, 7, 96
6, 66360, Note_on_c, 1, 59, 114
6, 66360, Note_on_c, 1, 54, 101
6, 66360, Note_on_c, 1, 63, 101
6, 66390, Note_on_c, 1, 47, 0
6, 66390, Control_c, 1, 7, 95
6, 66420, Note_on_c, 1, 59, 0
6, 66420, Note_on_c, 1, 54, 0
6, 66420, Note_on_c, 1, 63, 0
6, 66420, Control_c, 1, 7, 94
6, 66420, Note_on_c, 1, 47, 121
6, 66450, Note_on_c, 1, 47, 0
6, 66450, Control_c, 1, 7, 93
6, 66450, Note_on_c, 1, 59, 114
6, 66450, Note_on_c, 1, 63, 95
6, 66450, Note_on_c, 1, 54, 88
6, 66480, Note_on_c, 1, 54, 0
6, 66480, Note_on_c, 1, 63, 0
6, 66480, Note_on_c, 1, 59, 0
6, 66480, Control_c, 1, 7, 92
6, 66510, Control_c, 1, 7, 91
6, 66510, Note_on_c, 1, 58, 101
6, 66510, Note_on_c, 1, 63, 95
6, 66510, Note_on_c, 1, 59, 119
6, 66510, Note_on_c, 1, 54, 104
6, 66540, Note_on_c, 1, 54, 0
6, 66540, Note_on_c, 1, 58, 0
6, 66540, Note_on_c, 1, 63, 0
6, 66540, Note_on_c, 1, 59, 0
6, 66540, Control_c, 1, 7, 90
6, 66540, Note_on_c, 1, 47, 100
6, 66570, Note_on_c, 1, 47, 0
6, 66570, Control_c, 1, 7, 89
6, 66570, Note_on_c, 1, 42, 112
6, 66600, Note_on_c, 1, 42, 0
6, 66600, Control_c, 1, 7, 88
6, 66600, Note_on_c, 1, 35, 119
6, 66600, Note_on_c, 1, 61, 109
6, 66600, Note_on_c, 1, 54, 106
6, 66600, Note_on_c, 1, 59, 110
6, 66630, Note_on_c, 1, 59, 0
6, 66630, Control_c, 1, 7, 87
6, 66660, Note_on_c, 1, 35, 0
6, 66660, Note_on_c, 1, 61, 0
6, 66660, Note_on_c, 1, 54, 0
6, 66660, Control_c, 1, 7, 86
6, 66660, Note_on_c, 1, 47, 121
6, 66660, Note_on_c, 1, 63, 91
6, 66660, Note_on_c, 1, 54, 61
6, 66690, Note_on_c, 1, 54, 0
6, 66690, Note_on_c, 1, 63, 0
6, 66690, Note_on_c, 1, 47, 0
6, 66690, Control_c, 1, 7, 85
6, 66690, Note_on_c, 1, 42, 116
6, 66720, Note_on_c, 1, 42, 0
6, 66720, Control_c, 1, 7, 84
6, 66720, Note_on_c, 1, 45, 103
6, 66720, Note_on_c, 1, 61, 109
6, 66720, Note_on_c, 1, 57, 100
6, 66720, Note_on_c, 1, 59, 108
6, 66720, Note_on_c, 1, 33, 102
6, 66720, Note_on_c, 1, 64, 106
6, 66750, Note_on_c, 1, 45, 0
6, 66750, Control_c, 1, 7, 83
6, 66780, Control_c, 1, 7, 82
6, 66780, Note_on_c, 1, 45, 114
6, 66810, Note_on_c, 1, 45, 0
6, 66810, Note_on_c, 1, 64, 0
6, 66810, Note_on_c, 1, 59, 0
6, 66810, Note_on_c, 1, 61, 0
6, 66810, Note_on_c, 1, 57, 0
6, 66810, Note_on_c, 1, 33, 0
6, 66810, Control_c, 1, 7, 81
6, 66810, Note_on_c, 1, 40, 110
6, 66830, Control_c, 1, 7, 80
6, 66840, Note_on_c, 1, 40, 0
6, 66840, Note_on_c, 1, 57, 108
6, 66840, Note_on_c, 1, 61, 106
6, 66840, Note_on_c, 1, 64, 117
6, 66840, Note_on_c, 1, 59, 112
6, 66860, Control_c, 1, 7, 79
6, 66890, Control_c, 1, 7, 78
6, 66900, Note_on_c, 1, 59, 0
6, 66900, Note_on_c, 1, 57, 0
6, 66900, Note_on_c, 1, 61, 0
6, 66900, Note_on_c, 1, 64, 0
6, 66900, Note_on_c, 1, 45, 90
6, 66920, Control_c, 1, 7, 77
6, 66930, Note_on_c, 1, 45, 0
6, 66930, Note_on_c, 1, 64, 99
6, 66930, Note_on_c, 1, 61, 106
6, 66930, Note_on_c, 1, 57, 84
6, 66930, Note_on_c, 1, 59, 94
6, 66950, Control_c, 1, 7, 76
6, 66960, Note_on_c, 1, 59, 0
6, 66960, Note_on_c, 1, 64, 0
6, 66960, Note_on_c, 1, 61, 0
6, 66960, Note_on_c, 1, 57, 0
6, 66980, Control_c, 1, 7, 75
6, 66990, Note_on_c, 1, 64, 103
6, 66990, Note_on_c, 1, 61, 120
6, 66990, Note_on_c, 1, 57, 103
6, 66990, Note_on_c, 1, 59, 106
6, 67010, Control_c, 1, 7, 74
6, 67020, Note_on_c, 1, 59, 0
6, 67020, Note_on_c, 1, 64, 0
6, 67020, Note_on_c, 1, 61, 0
6, 67020, Note_on_c, 1, 57, 0
6, 67020, Note_on_c, 1, 45, 105
6, 67040, Control_c, 1, 7, 73
6, 67050, Note_on_c, 1, 45, 0
6, 67050, Note_on_c, 1, 40, 92
6, 67070, Control_c, 1, 7, 72
6, 67080, Note_on_c, 1, 40, 0
6, 67080, Note_on_c, 1, 63, 99
6, 67080, Note_on_c, 1, 59, 108
6, 67080, Note_on_c, 1, 57, 91
6, 67080, Note_on_c, 1, 33, 127
6, 67100, Control_c, 1, 7, 71
6, 67130, Control_c, 1, 7, 70
6, 67140, Note_on_c, 1, 63, 0
6, 67140, Note_on_c, 1, 64, 89
6, 67140, Note_on_c, 1, 45, 121
6, 67160, Control_c, 1, 7, 69
6, 67170, Note_on_c, 1, 45, 0
6, 67170, Note_on_c, 1, 59, 0
6, 67170, Note_on_c, 1, 33, 0
6, 67170, Note_on_c, 1, 57, 0
6, 67170, Note_on_c, 1, 64, 0
6, 67170, Note_on_c, 1, 40, 112
6, 67190, Control_c, 1, 7, 68
6, 67200, Note_on_c, 1, 40, 0
6, 67200, Note_on_c, 1, 63, 72
6, 67200, Note_on_c, 1, 59, 93
6, 67200, Note_on_c, 1, 56, 79
6, 67200, Note_on_c, 1, 32, 120
6, 67200, Note_on_c, 1, 44, 93
6, 67220, Control_c, 1, 7, 67
6, 67230, Note_on_c, 1, 44, 0
6, 67250, Control_c, 1, 7, 66
6, 67260, Note_on_c, 1, 44, 127
6, 67280, Control_c, 1, 7, 65
6, 67290, Note_on_c, 1, 56, 0
6, 67290, Note_on_c, 1, 32, 0
6, 67290, Note_on_c, 1, 63, 0
6, 67290, Note_on_c, 1, 59, 0
6, 67290, Note_on_c, 1, 39, 61
6, 67310, Control_c, 1, 7, 64
6, 67320, Note_on_c, 1, 39, 0
6, 67320, Note_on_c, 1, 44, 0
6, 67320, Note_on_c, 1, 63, 124
6, 67320, Note_on_c, 1, 56, 104
6, 67320, Note_on_c, 1, 59, 112
6, 67340, Control_c, 1, 7, 63
6, 67370, Control_c, 1, 7, 62
6, 67380, Note_on_c, 1, 59, 0
6, 67380, Note_on_c, 1, 56, 0
6, 67380, Note_on_c, 1, 63, 0
6, 67380, Note_on_c, 1, 44, 127
6, 67400, Control_c, 1, 7, 61
6, 67410, Note_on_c, 1, 44, 0
6, 67410, Note_on_c, 1, 63, 89
6, 67410, Note_on_c, 1, 59, 95
6, 67410, Note_on_c, 1, 56, 88
6, 67420, Control_c, 1, 7, 60
6, 67440, Note_on_c, 1, 56, 0
6, 67440, Note_on_c, 1, 59, 0
6, 67440, Note_on_c, 1, 63, 0
6, 67450, Control_c, 1, 7, 59
6, 67470, Note_on_c, 1, 63, 106
6, 67470, Note_on_c, 1, 59, 112
6, 67470, Note_on_c, 1, 56, 101
6, 67480, Control_c, 1, 7, 58
6, 67500, Note_on_c, 1, 56, 0
6, 67500, Note_on_c, 1, 59, 0
6, 67500, Note_on_c, 1, 63, 0
6, 67500, Note_on_c, 1, 44, 127
6, 67510, Control_c, 1, 7, 57
6, 67530, Note_on_c, 1, 44, 0
6, 67530, Note_on_c, 1, 39, 106
6, 67540, Control_c, 1, 7, 56
6, 67560, Note_on_c, 1, 39, 0
6, 67560, Note_on_c, 1, 61, 112
6, 67560, Note_on_c, 1, 56, 101
6, 67560, Note_on_c, 1, 32, 120
6, 67560, Note_on_c, 1, 59, 103
6, 67560, Note_on_c, 1, 34, 71
6, 67570, Control_c, 1, 7, 55
6, 67590, Note_on_c, 1, 34, 0
6, 67600, Control_c, 1, 7, 54
6, 67620, Note_on_c, 1, 61, 0
6, 67620, Note_on_c, 1, 59, 0
6, 67620, Note_on_c, 1, 63, 74
6, 67620, Note_on_c, 1, 44, 127
6, 67630, Control_c, 1, 7, 53
6, 67650, Note_on_c, 1, 63, 0
6, 67650, Note_on_c, 1, 56, 0
6, 67650, Note_on_c, 1, 32, 0
6, 67650, Note_on_c, 1, 39, 116
6, 67660, Control_c, 1, 7, 52
6, 67680, Note_on_c, 1, 39, 0
6, 67680, Note_on_c, 1, 44, 0
6, 67680, Note_on_c, 1, 61, 82
6, 67680, Note_on_c, 1, 53, 95
6, 67680, Note_on_c, 1, 56, 101
6, 67680, Note_on_c, 1, 37, 99
6, 67690, Control_c, 1, 7, 51
6, 67720, Control_c, 1, 7, 50
6, 67740, Note_on_c, 1, 37, 0
6, 67740, Note_on_c, 1, 49, 124
6, 67750, Control_c, 1, 7, 49
6, 67770, Note_on_c, 1, 49, 0
6, 67770, Note_on_c, 1, 56, 0
6, 67770, Note_on_c, 1, 53, 0
6, 67770, Note_on_c, 1, 61, 0
6, 67770, Note_on_c, 1, 44, 109
6, 67780, Control_c, 1, 7, 48
6, 67800, Note_on_c, 1, 44, 0
6, 67800, Note_on_c, 1, 61, 101
6, 67800, Note_on_c, 1, 56, 112
6, 67800, Note_on_c, 1, 53, 93
6, 67810, Control_c, 1, 7, 47
6, 67840, Control_c, 1, 7, 46
6, 67860, Note_on_c, 1, 53, 0
6, 67860, Note_on_c, 1, 56, 0
6, 67860, Note_on_c, 1, 61, 0
6, 67860, Note_on_c, 1, 49, 112
6, 67870, Control_c, 1, 7, 45
6, 67890, Note_on_c, 1, 49, 0
6, 67890, Note_on_c, 1, 61, 82
6, 67890, Note_on_c, 1, 56, 106
6, 67890, Note_on_c, 1, 53, 87
6, 67900, Control_c, 1, 7, 44
6, 67920, Note_on_c, 1, 53, 0
6, 67920, Note_on_c, 1, 56, 0
6, 67920, Note_on_c, 1, 61, 0
6, 67930, Control_c, 1, 7, 43
6, 67950, Note_on_c, 1, 53, 98
6, 67950, Note_on_c, 1, 61, 97
6, 67950, Note_on_c, 1, 56, 116
6, 67960, Control_c, 1, 7, 42
6, 67980, Note_on_c, 1, 56, 0
6, 67980, Note_on_c, 1, 61, 0
6, 67980, Note_on_c, 1, 53, 0
6, 67980, Note_on_c, 1, 49, 120
6, 67990, Control_c, 1, 7, 41
6, 68010, Note_on_c, 1, 49, 0
6, 68010, Control_c, 1, 7, 40
6, 68010, Note_on_c, 1, 44, 106
6, 68040, Note_on_c, 1, 44, 0
6, 68040, Control_c, 1, 7, 39
6, 68040, Note_on_c, 1, 59, 92
6, 68040, Note_on_c, 1, 37, 127
6, 68040, Note_on_c, 1, 56, 106
6, 68040, Note_on_c, 1, 53, 91
6, 68070, Note_on_c, 1, 59, 0
6, 68070, Control_c, 1, 7, 38
6, 68100, Note_on_c, 1, 37, 0
6, 68100, Note_on_c, 1, 56, 0
6, 68100, Control_c, 1, 7, 37
6, 68100, Note_on_c, 1, 49, 124
6, 68100, Note_on_c, 1, 61, 91
6, 68130, Note_on_c, 1, 61, 0
6, 68130, Note_on_c, 1, 49, 0
6, 68130, Note_on_c, 1, 53, 0
6, 68130, Control_c, 1, 7, 36
6, 68130, Note_on_c, 1, 44, 116
6, 68160, Note_on_c, 1, 44, 0
6, 68160, Control_c, 1, 7, 35
6, 68160, Note_on_c, 1, 58, 112
6, 68160, Note_on_c, 1, 54, 89
6, 68160, Note_on_c, 1, 49, 104
6, 68160, Note_on_c, 1, 42, 97
6, 68160, Note_on_c, 1, 30, 93
6, 68160, Note_on_c, 1, 41, 110
6, 68160, Note_on_c, 1, 40, 98
6, 68190, Note_on_c, 1, 40, 0
6, 68190, Note_on_c, 1, 30, 0
6, 68190, Note_on_c, 1, 42, 0
6, 68190, Note_on_c, 1, 41, 0
6, 68190, Control_c, 1, 7, 34
6, 68220, Control_c, 1, 7, 33
6, 68220, Note_on_c, 1, 42, 124
6, 68250, Note_on_c, 1, 58, 0
6, 68250, Note_on_c, 1, 54, 0
6, 68250, Note_on_c, 1, 49, 0
6, 68250, Control_c, 1, 7, 32
6, 68280, Note_on_c, 1, 42, 0
6, 68280, Control_c, 1, 7, 31
6, 68280, Note_on_c, 1, 37, 41
6, 68280, Note_on_c, 1, 49, 95
6, 68280, Note_on_c, 1, 54, 112
6, 68280, Note_on_c, 1, 58, 112
6, 68310, Note_on_c, 1, 37, 0
6, 68310, Control_c, 1, 7, 30
6, 68340, Note_on_c, 1, 49, 0
6, 68340, Note_on_c, 1, 54, 0
6, 68340, Note_on_c, 1, 58, 0
6, 68340, Control_c, 1, 7, 29
6, 68340, Note_on_c, 1, 42, 106
6, 68370, Note_on_c, 1, 42, 0
6, 68370, Control_c, 1, 7, 28
6, 68370, Note_on_c, 1, 58, 116
6, 68370, Note_on_c, 1, 54, 101
6, 68370, Note_on_c, 1, 49, 71
6, 68400, Note_on_c, 1, 49, 0
6, 68400, Note_on_c, 1, 54, 0
6, 68400, Note_on_c, 1, 58, 0
6, 68400, Control_c, 1, 7, 27
6, 68430, Control_c, 1, 7, 26
6, 68430, Note_on_c, 1, 58, 116
6, 68430, Note_on_c, 1, 54, 112
6, 68430, Note_on_c, 1, 49, 80
6, 68460, Note_on_c, 1, 49, 0
6, 68460, Note_on_c, 1, 54, 0
6, 68460, Note_on_c, 1, 58, 0
6, 68460, Control_c, 1, 7, 25
6, 68460, Note_on_c, 1, 42, 124
6, 68490, Note_on_c, 1, 42, 0
6, 68490, Control_c, 1, 7, 24
6, 68490, Note_on_c, 1, 37, 120
6, 68520, Note_on_c, 1, 37, 0
6, 68520, Control_c, 1, 7, 23
6, 68520, Note_on_c, 1, 30, 127
6, 68520, Note_on_c, 1, 32, 79
6, 68520, Note_on_c, 1, 54, 101
6, 68520, Note_on_c, 1, 56, 116
6, 68520, Note_on_c, 1, 49, 79
6, 68550, Note_on_c, 1, 32, 0
6, 68550, Control_c, 1, 7, 22
6, 68580, Note_on_c, 1, 56, 0
6, 68580, Note_on_c, 1, 30, 0
6, 68580, Note_on_c, 1, 54, 0
6, 68580, Control_c, 1, 7, 21
6, 68580, Note_on_c, 1, 42, 124
6, 68580, Note_on_c, 1, 58, 83
6, 68600, Control_c, 1, 7, 20
6, 68610, Note_on_c, 1, 58, 0
6, 68610, Note_on_c, 1, 49, 0
6, 68610, Note_on_c, 1, 37, 112
6, 68630, Control_c, 1, 7, 19
6, 68640, Note_on_c, 1, 37, 0
6, 68640, Note_on_c, 1, 42, 0
6, 68640, Note_on_c, 1, 32, 127
6, 68640, Note_on_c, 1, 34, 101
6, 68640, Note_on_c, 1, 56, 106
6, 68640, Note_on_c, 1, 59, 108
6, 68640, Note_on_c, 1, 51, 89
6, 68660, Control_c, 1, 7, 18
6, 68670, Note_on_c, 1, 34, 0
6, 68690, Control_c, 1, 7, 17
6, 68700, Note_on_c, 1, 32, 0
6, 68700, Note_on_c, 1, 44, 116
6, 68720, Control_c, 1, 7, 16
6, 68730, Note_on_c, 1, 44, 0
6, 68730, Note_on_c, 1, 51, 0
6, 68730, Note_on_c, 1, 56, 0
6, 68730, Note_on_c, 1, 59, 0
6, 68730, Note_on_c, 1, 39, 120
6, 68750, Control_c, 1, 7, 15
6, 68760, Note_on_c, 1, 39, 0
6, 68760, Note_on_c, 1, 56, 116
6, 68760, Note_on_c, 1, 51, 89
6, 68760, Note_on_c, 1, 59, 110
6, 68780, Control_c, 1, 7, 14
6, 68810, Control_c, 1, 7, 13
6, 68820, Note_on_c, 1, 59, 0
6, 68820, Note_on_c, 1, 51, 0
6, 68820, Note_on_c, 1, 56, 0
6, 68820, Note_on_c, 1, 44, 116
6, 68840, Control_c, 1, 7, 12
6, 68850, Note_on_c, 1, 44, 0
6, 68850, Note_on_c, 1, 51, 75
6, 68850, Note_on_c, 1, 56, 101
6, 68850, Note_on_c, 1, 59, 100
6, 68870, Control_c, 1, 7, 11
6, 68880, Note_on_c, 1, 59, 0
6, 68880, Note_on_c, 1, 56, 0
6, 68880, Note_on_c, 1, 51, 0
6, 68900, Control_c, 1, 7, 10
6, 68910, Note_on_c, 1, 56, 112
6, 68910, Note_on_c, 1, 51, 93
6, 68910, Note_on_c, 1, 59, 105
6, 68930, Control_c, 1, 7, 9
6, 68940, Note_on_c, 1, 59, 0
6, 68940, Note_on_c, 1, 51, 0
6, 68940, Note_on_c, 1, 56, 0
6, 68940, Note_on_c, 1, 44, 116
6, 68960, Control_c, 1, 7, 8
6, 68970, Note_on_c, 1, 44, 0
6, 68970, Note_on_c, 1, 39, 95
6, 68990, Control_c, 1, 7, 7
6, 69000, Note_on_c, 1, 39, 0
6, 69000, Note_on_c, 1, 58, 120
6, 69000, Note_on_c, 1, 56, 120
6, 69000, Note_on_c, 1, 51, 93
6, 69000, Note_on_c, 1, 32, 116
6, 69020, Control_c, 1, 7, 6
6, 69050, Control_c, 1, 7, 5
6, 69060, Note_on_c, 1, 51, 0
6, 69060, Note_on_c, 1, 58, 0
6, 69060, Note_on_c, 1, 56, 0
6, 69060, Note_on_c, 1, 44, 127
6, 69060, Note_on_c, 1, 59, 82
6, 69080, Control_c, 1, 7, 4
6, 69090, Note_on_c, 1, 59, 0
6, 69090, Note_on_c, 1, 32, 0
6, 69090, Note_on_c, 1, 39, 109
6, 69110, Control_c, 1, 7, 3
6, 69120, Note_on_c, 1, 39, 0
6, 69120, Note_on_c, 1, 44, 0
6, 69120, Note_on_c, 1, 56, 101
6, 69120, Note_on_c, 1, 61, 95
6, 69120, Note_on_c, 1, 53, 88
6, 69120, Note_on_c, 1, 37, 120
6, 69140, Control_c, 1, 7, 2
6, 69170, Control_c, 1, 7, 1
6, 69180, Note_on_c, 1, 37, 0
6, 69180, Note_on_c, 1, 49, 120
6, 69210, Note_on_c, 1, 49, 0
6, 69210, Note_on_c, 1, 53, 0
6, 69210, Note_on_c, 1, 61, 0
6, 69210, Note_on_c, 1, 56, 0
6, 69210, Note_on_c, 1, 44, 89
6, 69240, Note_on_c, 1, 44, 0
6, 69240, Note_on_c, 1, 61, 101
6, 69240, Note_on_c, 1, 56, 116
6, 69240, Note_on_c, 1, 53, 93
6, 69300, Note_on_c, 1, 53, 0
6, 69300, Note_on_c, 1, 56, 0
6, 69300, Note_on_c, 1, 61, 0
6, 69300, Note_on_c, 1, 49, 109
6, 69330, Note_on_c, 1, 49, 0
6, 69330, Note_on_c, 1, 61, 84
6, 69330, Note_on_c, 1, 56, 104
6, 69330, Note_on_c, 1, 53, 79
6, 69360, Note_on_c, 1, 53, 0
6, 69360, Note_on_c, 1, 56, 0
6, 69360, Note_on_c, 1, 61, 0
6, 69390, Note_on_c, 1, 53, 93
6, 69390, Note_on_c, 1, 56, 112
6, 69390, Note_on_c, 1, 61, 89
6, 69420, Note_on_c, 1, 61, 0
6, 69420, Note_on_c, 1, 56, 0
6, 69420, Note_on_c, 1, 53, 0
6, 69420, Note_on_c, 1, 49, 104
6, 69450, Note_on_c, 1, 49, 0
6, 69450, Note_on_c, 1, 44, 104
6, 69480, Note_on_c, 1, 44, 0
6, 69480, Note_on_c, 1, 37, 124
6, 69510, Note_on_c, 1, 37, 0
6, 69510, Note_on_c, 1, 54, 112
6, 69510, Note_on_c, 1, 51, 106
6, 69510, Note_on_c, 1, 59, 112
6, 69540, Note_on_c, 1, 59, 0
6, 69540, Note_on_c, 1, 51, 0
6, 69540, Note_on_c, 1, 54, 0
6, 69540, Note_on_c, 1, 49, 124
6, 69570, Note_on_c, 1, 49, 0
6, 69570, Note_on_c, 1, 44, 109
6, 69600, Note_on_c, 1, 44, 0
6, 69600, Note_on_c, 1, 37, 124
6, 69600, Note_on_c, 1, 53, 95
6, 69600, Note_on_c, 1, 61, 101
6, 69600, Note_on_c, 1, 56, 120
6, 69660, Note_on_c, 1, 37, 0
6, 69660, Note_on_c, 1, 49, 120
6, 69690, Note_on_c, 1, 49, 0
6, 69690, Note_on_c, 1, 56, 0
6, 69690, Note_on_c, 1, 61, 0
6, 69690, Note_on_c, 1, 53, 0
6, 69690, Note_on_c, 1, 44, 120
6, 69720, Note_on_c, 1, 44, 0
6, 69720, Note_on_c, 1, 53, 93
6, 69720, Note_on_c, 1, 56, 116
6, 69720, Note_on_c, 1, 61, 109
6, 69780, Note_on_c, 1, 61, 0
6, 69780, Note_on_c, 1, 56, 0
6, 69780, Note_on_c, 1, 53, 0
6, 69780, Note_on_c, 1, 49, 120
6, 69810, Note_on_c, 1, 49, 0
6, 69810, Note_on_c, 1, 61, 86
6, 69810, Note_on_c, 1, 56, 106
6, 69810, Note_on_c, 1, 53, 80
6, 69840, Note_on_c, 1, 53, 0
6, 69840, Note_on_c, 1, 56, 0
6, 69840, Note_on_c, 1, 61, 0
6, 69870, Note_on_c, 1, 53, 106
6, 69870, Note_on_c, 1, 61, 101
6, 69870, Note_on_c, 1, 56, 127
6, 69900, Note_on_c, 1, 56, 0
6, 69900, Note_on_c, 1, 61, 0
6, 69900, Note_on_c, 1, 53, 0
6, 69900, Note_on_c, 1, 49, 116
6, 69930, Note_on_c, 1, 49, 0
6, 69930, Note_on_c, 1, 44, 109
6, 69960, Note_on_c, 1, 44, 0
6, 69960, Note_on_c, 1, 37, 124
6, 69960, Note_on_c, 1, 61, 93
6, 69960, Note_on_c, 1, 56, 109
6, 69960, Note_on_c, 1, 53, 93
6, 70020, Note_on_c, 1, 56, 0
6, 70020, Note_on_c, 1, 37, 0
6, 70020, Note_on_c, 1, 61, 0
6, 70020, Note_on_c, 1, 49, 112
6, 70050, Note_on_c, 1, 49, 0
6, 70050, Note_on_c, 1, 53, 0
6, 70050, End_track
7, 0, Start_track
7, 0, MIDI_port, 0
7, 0, Title_t, "Acoustic Grand"
7, 0, Control_c, 2, 0, 56
7, 0, Control_c, 2, 32, 0
7, 0, Program_c, 2, 0
7, 0, Control_c, 2, 7, 90
7, 0, Control_c, 2, 10, 76
7, 480, Note_on_c, 2, 54, 110
7, 480, Note_on_c, 2, 47, 110
7, 480, Note_on_c, 2, 59, 110
7, 480, Note_on_c, 2, 61, 127
7, 480, Note_on_c, 2, 54, 110
7, 480, Note_on_c, 2, 47, 110
7, 480, Note_on_c, 2, 59, 110
7, 480, Note_on_c, 2, 61, 127
7, 660, Note_on_c, 2, 63, 127
7, 660, Note_on_c, 2, 63, 127
7, 680, Note_on_c, 2, 61, 0
7, 680, Note_on_c, 2, 61, 0
7, 825, Note_on_c, 2, 54, 0
7, 825, Note_on_c, 2, 54, 0
7, 850, Note_on_c, 2, 47, 0
7, 850, Note_on_c, 2, 59, 0
7, 850, Note_on_c, 2, 47, 0
7, 850, Note_on_c, 2, 59, 0
7, 900, Note_on_c, 2, 61, 110
7, 900, Note_on_c, 2, 56, 110
7, 900, Note_on_c, 2, 52, 110
7, 900, Note_on_c, 2, 64, 127
7, 900, Note_on_c, 2, 61, 110
7, 900, Note_on_c, 2, 56, 110
7, 900, Note_on_c, 2, 52, 110
7, 900, Note_on_c, 2, 64, 127
7, 904, Note_on_c, 2, 63, 0
7, 904, Note_on_c, 2, 63, 0
7, 1263, Note_on_c, 2, 61, 0
7, 1263, Note_on_c, 2, 61, 0
7, 1265, Note_on_c, 2, 56, 0
7, 1265, Note_on_c, 2, 56, 0
7, 1266, Note_on_c, 2, 52, 0
7, 1266, Note_on_c, 2, 52, 0
7, 1293, Note_on_c, 2, 64, 0
7, 1293, Note_on_c, 2, 64, 0
7, 1320, Note_on_c, 2, 64, 127
7, 1320, Note_on_c, 2, 64, 127
7, 1440, Note_on_c, 2, 54, 110
7, 1440, Note_on_c, 2, 51, 110
7, 1440, Note_on_c, 2, 63, 127
7, 1440, Note_on_c, 2, 54, 110
7, 1440, Note_on_c, 2, 51, 110
7, 1440, Note_on_c, 2, 63, 127
7, 1444, Note_on_c, 2, 64, 0
7, 1444, Note_on_c, 2, 64, 0
7, 1560, Note_on_c, 2, 61, 127
7, 1560, Note_on_c, 2, 61, 127
7, 1564, Note_on_c, 2, 63, 0
7, 1564, Note_on_c, 2, 63, 0
7, 1680, Note_on_c, 2, 59, 127
7, 1680, Note_on_c, 2, 59, 127
7, 1696, Note_on_c, 2, 61, 0
7, 1696, Note_on_c, 2, 61, 0
7, 1800, Note_on_c, 2, 58, 127
7, 1800, Note_on_c, 2, 58, 127
7, 1802, Note_on_c, 2, 54, 0
7, 1802, Note_on_c, 2, 54, 0
7, 1803, Note_on_c, 2, 51, 0
7, 1803, Note_on_c, 2, 51, 0
7, 1809, Note_on_c, 2, 59, 0
7, 1809, Note_on_c, 2, 59, 0
7, 1920, Note_on_c, 2, 58, 0
7, 1920, Note_on_c, 2, 58, 0
7, 1920, Note_on_c, 2, 61, 110
7, 1920, Note_on_c, 2, 49, 110
7, 1920, Note_on_c, 2, 56, 127
7, 1920, Note_on_c, 2, 61, 110
7, 1920, Note_on_c, 2, 49, 110
7, 1920, Note_on_c, 2, 56, 127
7, 2160, Note_on_c, 2, 54, 127
7, 2160, Note_on_c, 2, 54, 127
7, 2177, Note_on_c, 2, 56, 0
7, 2177, Note_on_c, 2, 56, 0
7, 2273, Note_on_c, 2, 61, 0
7, 2273, Note_on_c, 2, 61, 0
7, 2280, Note_on_c, 2, 56, 127
7, 2280, Note_on_c, 2, 56, 127
7, 2284, Note_on_c, 2, 49, 0
7, 2284, Note_on_c, 2, 49, 0
7, 2288, Note_on_c, 2, 54, 0
7, 2288, Note_on_c, 2, 54, 0
7, 2379, Note_on_c, 2, 56, 0
7, 2379, Note_on_c, 2, 56, 0
7, 2400, Note_on_c, 2, 49, 110
7, 2400, Note_on_c, 2, 61, 110
7, 2400, Note_on_c, 2, 54, 110
7, 2400, Note_on_c, 2, 56, 127
7, 2400, Note_on_c, 2, 49, 110
7, 2400, Note_on_c, 2, 61, 110
7, 2400, Note_on_c, 2, 54, 110
7, 2400, Note_on_c, 2, 56, 127
7, 2580, Note_on_c, 2, 58, 127
7, 2580, Note_on_c, 2, 58, 127
7, 2591, Note_on_c, 2, 56, 0
7, 2591, Note_on_c, 2, 56, 0
7, 2699, Note_on_c, 2, 61, 0
7, 2699, Note_on_c, 2, 61, 0
7, 2701, Note_on_c, 2, 54, 0
7, 2701, Note_on_c, 2, 49, 0
7, 2701, Note_on_c, 2, 49, 0
7, 2701, Note_on_c, 2, 54, 0
7, 2820, Note_on_c, 2, 51, 110
7, 2820, Note_on_c, 2, 47, 110
7, 2820, Note_on_c, 2, 59, 127
7, 2820, Note_on_c, 2, 51, 110
7, 2820, Note_on_c, 2, 47, 110
7, 2820, Note_on_c, 2, 59, 127
7, 2830, Note_on_c, 2, 58, 0
7, 2830, Note_on_c, 2, 58, 0
7, 3190, Note_on_c, 2, 54, 120
7, 3190, Note_on_c, 2, 54, 120
7, 3219, Note_on_c, 2, 51, 0
7, 3219, Note_on_c, 2, 51, 0
7, 3220, Note_on_c, 2, 47, 0
7, 3220, Note_on_c, 2, 47, 0
7, 3281, Note_on_c, 2, 54, 0
7, 3281, Note_on_c, 2, 54, 0
7, 3285, Note_on_c, 2, 59, 120
7, 3285, Note_on_c, 2, 59, 120
7, 3307, Note_on_c, 2, 59, 0
7, 3307, Note_on_c, 2, 59, 0
7, 3360, Note_on_c, 2, 49, 110
7, 3360, Note_on_c, 2, 56, 110
7, 3360, Note_on_c, 2, 61, 127
7, 3360, Note_on_c, 2, 49, 110
7, 3360, Note_on_c, 2, 56, 110
7, 3360, Note_on_c, 2, 61, 127
7, 3394, Note_on_c, 2, 59, 0
7, 3394, Note_on_c, 2, 59, 0
7, 3660, Note_on_c, 2, 63, 127
7, 3660, Note_on_c, 2, 63, 127
7, 3732, Note_on_c, 2, 61, 0
7, 3732, Note_on_c, 2, 61, 0
7, 3736, Note_on_c, 2, 49, 0
7, 3736, Note_on_c, 2, 49, 0
7, 3739, Note_on_c, 2, 56, 0
7, 3739, Note_on_c, 2, 56, 0
7, 3780, Note_on_c, 2, 65, 127
7, 3780, Note_on_c, 2, 65, 127
7, 3785, Note_on_c, 2, 63, 0
7, 3785, Note_on_c, 2, 63, 0
7, 3840, Note_on_c, 2, 56, 110
7, 3840, Note_on_c, 2, 49, 110
7, 3840, Note_on_c, 2, 61, 110
7, 3840, Note_on_c, 2, 56, 110
7, 3840, Note_on_c, 2, 49, 110
7, 3840, Note_on_c, 2, 61, 110
7, 4219, Note_on_c, 2, 61, 0
7, 4219, Note_on_c, 2, 61, 0
7, 4221, Note_on_c, 2, 56, 0
7, 4221, Note_on_c, 2, 56, 0
7, 4223, Note_on_c, 2, 49, 0
7, 4223, Note_on_c, 2, 49, 0
7, 4224, Note_on_c, 2, 65, 0
7, 4224, Note_on_c, 2, 65, 0
7, 4320, Note_on_c, 2, 54, 110
7, 4320, Note_on_c, 2, 47, 110
7, 4320, Note_on_c, 2, 59, 110
7, 4320, Note_on_c, 2, 61, 127
7, 4320, Note_on_c, 2, 54, 110
7, 4320, Note_on_c, 2, 47, 110
7, 4320, Note_on_c, 2, 59, 110
7, 4320, Note_on_c, 2, 61, 127
7, 4500, Note_on_c, 2, 63, 127
7, 4500, Note_on_c, 2, 63, 127
7, 4520, Note_on_c, 2, 61, 0
7, 4520, Note_on_c, 2, 61, 0
7, 4665, Note_on_c, 2, 54, 0
7, 4665, Note_on_c, 2, 54, 0
7, 4690, Note_on_c, 2, 47, 0
7, 4690, Note_on_c, 2, 59, 0
7, 4690, Note_on_c, 2, 47, 0
7, 4690, Note_on_c, 2, 59, 0
7, 4740, Note_on_c, 2, 61, 110
7, 4740, Note_on_c, 2, 56, 110
7, 4740, Note_on_c, 2, 52, 110
7, 4740, Note_on_c, 2, 64, 127
7, 4740, Note_on_c, 2, 61, 110
7, 4740, Note_on_c, 2, 56, 110
7, 4740, Note_on_c, 2, 52, 110
7, 4740, Note_on_c, 2, 64, 127
7, 4744, Note_on_c, 2, 63, 0
7, 4744, Note_on_c, 2, 63, 0
7, 5103, Note_on_c, 2, 61, 0
7, 5103, Note_on_c, 2, 61, 0
7, 5105, Note_on_c, 2, 56, 0
7, 5105, Note_on_c, 2, 56, 0
7, 5106, Note_on_c, 2, 52, 0
7, 5106, Note_on_c, 2, 52, 0
7, 5133, Note_on_c, 2, 64, 0
7, 5133, Note_on_c, 2, 64, 0
7, 5160, Note_on_c, 2, 64, 127
7, 5160, Note_on_c, 2, 64, 127
7, 5280, Note_on_c, 2, 54, 110
7, 5280, Note_on_c, 2, 51, 110
7, 5280, Note_on_c, 2, 63, 127
7, 5280, Note_on_c, 2, 54, 110
7, 5280, Note_on_c, 2, 51, 110
7, 5280, Note_on_c, 2, 63, 127
7, 5284, Note_on_c, 2, 64, 0
7, 5284, Note_on_c, 2, 64, 0
7, 5400, Note_on_c, 2, 61, 127
7, 5400, Note_on_c, 2, 61, 127
7, 5404, Note_on_c, 2, 63, 0
7, 5404, Note_on_c, 2, 63, 0
7, 5520, Note_on_c, 2, 59, 127
7, 5520, Note_on_c, 2, 59, 127
7, 5536, Note_on_c, 2, 61, 0
7, 5536, Note_on_c, 2, 61, 0
7, 5640, Note_on_c, 2, 58, 127
7, 5640, Note_on_c, 2, 58, 127
7, 5642, Note_on_c, 2, 54, 0
7, 5642, Note_on_c, 2, 54, 0
7, 5643, Note_on_c, 2, 51, 0
7, 5643, Note_on_c, 2, 51, 0
7, 5649, Note_on_c, 2, 59, 0
7, 5649, Note_on_c, 2, 59, 0
7, 5760, Note_on_c, 2, 58, 0
7, 5760, Note_on_c, 2, 58, 0
7, 5760, Note_on_c, 2, 61, 110
7, 5760, Note_on_c, 2, 49, 110
7, 5760, Note_on_c, 2, 56, 127
7, 5760, Note_on_c, 2, 61, 110
7, 5760, Note_on_c, 2, 49, 110
7, 5760, Note_on_c, 2, 56, 127
7, 6000, Note_on_c, 2, 63, 120
7, 6000, Note_on_c, 2, 54, 127
7, 6000, Note_on_c, 2, 63, 120
7, 6000, Note_on_c, 2, 54, 127
7, 6017, Note_on_c, 2, 56, 0
7, 6017, Note_on_c, 2, 56, 0
7, 6113, Note_on_c, 2, 61, 0
7, 6113, Note_on_c, 2, 61, 0
7, 6115, Note_on_c, 2, 63, 0
7, 6115, Note_on_c, 2, 63, 0
7, 6120, Note_on_c, 2, 65, 120
7, 6120, Note_on_c, 2, 56, 127
7, 6120, Note_on_c, 2, 65, 120
7, 6120, Note_on_c, 2, 56, 127
7, 6124, Note_on_c, 2, 49, 0
7, 6124, Note_on_c, 2, 49, 0
7, 6128, Note_on_c, 2, 54, 0
7, 6128, Note_on_c, 2, 54, 0
7, 6213, Note_on_c, 2, 65, 0
7, 6213, Note_on_c, 2, 65, 0
7, 6219, Note_on_c, 2, 56, 0
7, 6219, Note_on_c, 2, 56, 0
7, 6240, Note_on_c, 2, 65, 120
7, 6240, Note_on_c, 2, 49, 110
7, 6240, Note_on_c, 2, 61, 110
7, 6240, Note_on_c, 2, 54, 110
7, 6240, Note_on_c, 2, 56, 127
7, 6240, Note_on_c, 2, 65, 120
7, 6240, Note_on_c, 2, 49, 110
7, 6240, Note_on_c, 2, 61, 110
7, 6240, Note_on_c, 2, 54, 110
7, 6240, Note_on_c, 2, 56, 127
7, 6420, Note_on_c, 2, 66, 120
7, 6420, Note_on_c, 2, 58, 127
7, 6420, Note_on_c, 2, 66, 120
7, 6420, Note_on_c, 2, 58, 127
7, 6426, Note_on_c, 2, 65, 0
7, 6426, Note_on_c, 2, 65, 0
7, 6431, Note_on_c, 2, 56, 0
7, 6431, Note_on_c, 2, 56, 0
7, 6539, Note_on_c, 2, 61, 0
7, 6539, Note_on_c, 2, 61, 0
7, 6541, Note_on_c, 2, 49, 0
7, 6541, Note_on_c, 2, 54, 0
7, 6541, Note_on_c, 2, 54, 0
7, 6541, Note_on_c, 2, 49, 0
7, 6646, Note_on_c, 2, 66, 0
7, 6646, Note_on_c, 2, 66, 0
7, 6660, Note_on_c, 2, 68, 120
7, 6660, Note_on_c, 2, 51, 110
7, 6660, Note_on_c, 2, 47, 110
7, 6660, Note_on_c, 2, 59, 127
7, 6660, Note_on_c, 2, 68, 120
7, 6660, Note_on_c, 2, 51, 110
7, 6660, Note_on_c, 2, 47, 110
7, 6660, Note_on_c, 2, 59, 127
7, 6670, Note_on_c, 2, 58, 0
7, 6670, Note_on_c, 2, 58, 0
7, 7018, Note_on_c, 2, 68, 0
7, 7018, Note_on_c, 2, 68, 0
7, 7030, Note_on_c, 2, 54, 120
7, 7030, Note_on_c, 2, 54, 120
7, 7059, Note_on_c, 2, 51, 0
7, 7059, Note_on_c, 2, 51, 0
7, 7060, Note_on_c, 2, 47, 0
7, 7060, Note_on_c, 2, 47, 0
7, 7121, Note_on_c, 2, 54, 0
7, 7121, Note_on_c, 2, 54, 0
7, 7125, Note_on_c, 2, 59, 120
7, 7125, Note_on_c, 2, 59, 120
7, 7147, Note_on_c, 2, 59, 0
7, 7147, Note_on_c, 2, 59, 0
7, 7200, Note_on_c, 2, 65, 120
7, 7200, Note_on_c, 2, 49, 110
7, 7200, Note_on_c, 2, 56, 110
7, 7200, Note_on_c, 2, 61, 127
7, 7200, Note_on_c, 2, 65, 120
7, 7200, Note_on_c, 2, 49, 110
7, 7200, Note_on_c, 2, 56, 110
7, 7200, Note_on_c, 2, 61, 127
7, 7234, Note_on_c, 2, 59, 0
7, 7234, Note_on_c, 2, 59, 0
7, 7482, Note_on_c, 2, 65, 0
7, 7482, Note_on_c, 2, 65, 0
7, 7500, Note_on_c, 2, 66, 120
7, 7500, Note_on_c, 2, 63, 127
7, 7500, Note_on_c, 2, 66, 120
7, 7500, Note_on_c, 2, 63, 127
7, 7572, Note_on_c, 2, 61, 0
7, 7572, Note_on_c, 2, 61, 0
7, 7576, Note_on_c, 2, 49, 0
7, 7576, Note_on_c, 2, 49, 0
7, 7579, Note_on_c, 2, 56, 0
7, 7579, Note_on_c, 2, 56, 0
7, 7599, Note_on_c, 2, 66, 0
7, 7599, Note_on_c, 2, 66, 0
7, 7620, Note_on_c, 2, 68, 120
7, 7620, Note_on_c, 2, 65, 127
7, 7620, Note_on_c, 2, 68, 120
7, 7620, Note_on_c, 2, 65, 127
7, 7625, Note_on_c, 2, 63, 0
7, 7625, Note_on_c, 2, 63, 0
7, 7680, Note_on_c, 2, 56, 110
7, 7680, Note_on_c, 2, 49, 110
7, 7680, Note_on_c, 2, 61, 110
7, 7680, Note_on_c, 2, 56, 110
7, 7680, Note_on_c, 2, 49, 110
7, 7680, Note_on_c, 2, 61, 110
7, 7867, Note_on_c, 2, 68, 0
7, 7867, Note_on_c, 2, 68, 0
7, 8059, Note_on_c, 2, 61, 0
7, 8059, Note_on_c, 2, 61, 0
7, 8061, Note_on_c, 2, 56, 0
7, 8061, Note_on_c, 2, 56, 0
7, 8063, Note_on_c, 2, 49, 0
7, 8063, Note_on_c, 2, 49, 0
7, 8064, Note_on_c, 2, 65, 0
7, 8064, Note_on_c, 2, 65, 0
7, 15840, Note_on_c, 2, 54, 110
7, 15840, Note_on_c, 2, 47, 110
7, 15840, Note_on_c, 2, 59, 110
7, 15840, Note_on_c, 2, 61, 127
7, 15840, Note_on_c, 2, 54, 110
7, 15840, Note_on_c, 2, 47, 110
7, 15840, Note_on_c, 2, 59, 110
7, 15840, Note_on_c, 2, 61, 127
7, 16020, Note_on_c, 2, 63, 127
7, 16020, Note_on_c, 2, 63, 127
7, 16040, Note_on_c, 2, 61, 0
7, 16040, Note_on_c, 2, 61, 0
7, 16185, Note_on_c, 2, 54, 0
7, 16185, Note_on_c, 2, 54, 0
7, 16210, Note_on_c, 2, 47, 0
7, 16210, Note_on_c, 2, 59, 0
7, 16210, Note_on_c, 2, 47, 0
7, 16210, Note_on_c, 2, 59, 0
7, 16260, Note_on_c, 2, 61, 110
7, 16260, Note_on_c, 2, 56, 110
7, 16260, Note_on_c, 2, 52, 110
7, 16260, Note_on_c, 2, 64, 127
7, 16260, Note_on_c, 2, 61, 110
7, 16260, Note_on_c, 2, 56, 110
7, 16260, Note_on_c, 2, 52, 110
7, 16260, Note_on_c, 2, 64, 127
7, 16264, Note_on_c, 2, 63, 0
7, 16264, Note_on_c, 2, 63, 0
7, 16623, Note_on_c, 2, 61, 0
7, 16623, Note_on_c, 2, 61, 0
7, 16625, Note_on_c, 2, 56, 0
7, 16625, Note_on_c, 2, 56, 0
7, 16626, Note_on_c, 2, 52, 0
7, 16626, Note_on_c, 2, 52, 0
7, 16653, Note_on_c, 2, 64, 0
7, 16653, Note_on_c, 2, 64, 0
7, 16680, Note_on_c, 2, 64, 127
7, 16680, Note_on_c, 2, 64, 127
7, 16800, Note_on_c, 2, 54, 110
7, 16800, Note_on_c, 2, 51, 110
7, 16800, Note_on_c, 2, 63, 127
7, 16800, Note_on_c, 2, 54, 110
7, 16800, Note_on_c, 2, 51, 110
7, 16800, Note_on_c, 2, 63, 127
7, 16804, Note_on_c, 2, 64, 0
7, 16804, Note_on_c, 2, 64, 0
7, 16920, Note_on_c, 2, 61, 127
7, 16920, Note_on_c, 2, 61, 127
7, 16924, Note_on_c, 2, 63, 0
7, 16924, Note_on_c, 2, 63, 0
7, 17040, Note_on_c, 2, 59, 127
7, 17040, Note_on_c, 2, 59, 127
7, 17056, Note_on_c, 2, 61, 0
7, 17056, Note_on_c, 2, 61, 0
7, 17160, Note_on_c, 2, 58, 127
7, 17160, Note_on_c, 2, 58, 127
7, 17162, Note_on_c, 2, 54, 0
7, 17162, Note_on_c, 2, 54, 0
7, 17163, Note_on_c, 2, 51, 0
7, 17163, Note_on_c, 2, 51, 0
7, 17169, Note_on_c, 2, 59, 0
7, 17169, Note_on_c, 2, 59, 0
7, 17280, Note_on_c, 2, 58, 0
7, 17280, Note_on_c, 2, 58, 0
7, 17280, Note_on_c, 2, 61, 110
7, 17280, Note_on_c, 2, 49, 110
7, 17280, Note_on_c, 2, 56, 127
7, 17280, Note_on_c, 2, 61, 110
7, 17280, Note_on_c, 2, 49, 110
7, 17280, Note_on_c, 2, 56, 127
7, 17520, Note_on_c, 2, 54, 127
7, 17520, Note_on_c, 2, 54, 127
7, 17537, Note_on_c, 2, 56, 0
7, 17537, Note_on_c, 2, 56, 0
7, 17633, Note_on_c, 2, 61, 0
7, 17633, Note_on_c, 2, 61, 0
7, 17640, Note_on_c, 2, 56, 127
7, 17640, Note_on_c, 2, 56, 127
7, 17644, Note_on_c, 2, 49, 0
7, 17644, Note_on_c, 2, 49, 0
7, 17648, Note_on_c, 2, 54, 0
7, 17648, Note_on_c, 2, 54, 0
7, 17739, Note_on_c, 2, 56, 0
7, 17739, Note_on_c, 2, 56, 0
7, 17760, Note_on_c, 2, 49, 110
7, 17760, Note_on_c, 2, 61, 110
7, 17760, Note_on_c, 2, 54, 110
7, 17760, Note_on_c, 2, 56, 127
7, 17760, Note_on_c, 2, 49, 110
7, 17760, Note_on_c, 2, 61, 110
7, 17760, Note_on_c, 2, 54, 110
7, 17760, Note_on_c, 2, 56, 127
7, 17940, Note_on_c, 2, 58, 127
7, 17940, Note_on_c, 2, 58, 127
7, 17951, Note_on_c, 2, 56, 0
7, 17951, Note_on_c, 2, 56, 0
7, 18059, Note_on_c, 2, 61, 0
7, 18059, Note_on_c, 2, 61, 0
7, 18061, Note_on_c, 2, 54, 0
7, 18061, Note_on_c, 2, 49, 0
7, 18061, Note_on_c, 2, 49, 0
7, 18061, Note_on_c, 2, 54, 0
7, 18180, Note_on_c, 2, 51, 110
7, 18180, Note_on_c, 2, 47, 110
7, 18180, Note_on_c, 2, 59, 127
7, 18180, Note_on_c, 2, 51, 110
7, 18180, Note_on_c, 2, 47, 110
7, 18180, Note_on_c, 2, 59, 127
7, 18190, Note_on_c, 2, 58, 0
7, 18190, Note_on_c, 2, 58, 0
7, 18550, Note_on_c, 2, 54, 120
7, 18550, Note_on_c, 2, 54, 120
7, 18579, Note_on_c, 2, 51, 0
7, 18579, Note_on_c, 2, 51, 0
7, 18580, Note_on_c, 2, 47, 0
7, 18580, Note_on_c, 2, 47, 0
7, 18641, Note_on_c, 2, 54, 0
7, 18641, Note_on_c, 2, 54, 0
7, 18645, Note_on_c, 2, 59, 120
7, 18645, Note_on_c, 2, 59, 120
7, 18667, Note_on_c, 2, 59, 0
7, 18667, Note_on_c, 2, 59, 0
7, 18720, Note_on_c, 2, 49, 110
7, 18720, Note_on_c, 2, 56, 110
7, 18720, Note_on_c, 2, 61, 127
7, 18720, Note_on_c, 2, 49, 110
7, 18720, Note_on_c, 2, 56, 110
7, 18720, Note_on_c, 2, 61, 127
7, 18754, Note_on_c, 2, 59, 0
7, 18754, Note_on_c, 2, 59, 0
7, 19020, Note_on_c, 2, 63, 127
7, 19020, Note_on_c, 2, 63, 127
7, 19092, Note_on_c, 2, 61, 0
7, 19092, Note_on_c, 2, 61, 0
7, 19096, Note_on_c, 2, 49, 0
7, 19096, Note_on_c, 2, 49, 0
7, 19099, Note_on_c, 2, 56, 0
7, 19099, Note_on_c, 2, 56, 0
7, 19140, Note_on_c, 2, 65, 127
7, 19140, Note_on_c, 2, 65, 127
7, 19145, Note_on_c, 2, 63, 0
7, 19145, Note_on_c, 2, 63, 0
7, 19200, Note_on_c, 2, 56, 110
7, 19200, Note_on_c, 2, 49, 110
7, 19200, Note_on_c, 2, 61, 110
7, 19200, Note_on_c, 2, 56, 110
7, 19200, Note_on_c, 2, 49, 110
7, 19200, Note_on_c, 2, 61, 110
7, 19579, Note_on_c, 2, 61, 0
7, 19579, Note_on_c, 2, 61, 0
7, 19581, Note_on_c, 2, 56, 0
7, 19581, Note_on_c, 2, 56, 0
7, 19583, Note_on_c, 2, 49, 0
7, 19583, Note_on_c, 2, 49, 0
7, 19584, Note_on_c, 2, 65, 0
7, 19584, Note_on_c, 2, 65, 0
7, 19680, Note_on_c, 2, 54, 110
7, 19680, Note_on_c, 2, 47, 110
7, 19680, Note_on_c, 2, 59, 110
7, 19680, Note_on_c, 2, 61, 127
7, 19680, Note_on_c, 2, 54, 110
7, 19680, Note_on_c, 2, 47, 110
7, 19680, Note_on_c, 2, 59, 110
7, 19680, Note_on_c, 2, 61, 127
7, 19860, Note_on_c, 2, 63, 127
7, 19860, Note_on_c, 2, 63, 127
7, 19880, Note_on_c, 2, 61, 0
7, 19880, Note_on_c, 2, 61, 0
7, 20025, Note_on_c, 2, 54, 0
7, 20025, Note_on_c, 2, 54, 0
7, 20050, Note_on_c, 2, 47, 0
7, 20050, Note_on_c, 2, 59, 0
7, 20050, Note_on_c, 2, 47, 0
7, 20050, Note_on_c, 2, 59, 0
7, 20100, Note_on_c, 2, 61, 110
7, 20100, Note_on_c, 2, 56, 110
7, 20100, Note_on_c, 2, 52, 110
7, 20100, Note_on_c, 2, 64, 127
7, 20100, Note_on_c, 2, 61, 110
7, 20100, Note_on_c, 2, 56, 110
7, 20100, Note_on_c, 2, 52, 110
7, 20100, Note_on_c, 2, 64, 127
7, 20104, Note_on_c, 2, 63, 0
7, 20104, Note_on_c, 2, 63, 0
7, 20463, Note_on_c, 2, 61, 0
7, 20463, Note_on_c, 2, 61, 0
7, 20465, Note_on_c, 2, 56, 0
7, 20465, Note_on_c, 2, 56, 0
7, 20466, Note_on_c, 2, 52, 0
7, 20466, Note_on_c, 2, 52, 0
7, 20493, Note_on_c, 2, 64, 0
7, 20493, Note_on_c, 2, 64, 0
7, 20520, Note_on_c, 2, 64, 127
7, 20520, Note_on_c, 2, 64, 127
7, 20640, Note_on_c, 2, 71, 120
7, 20640, Note_on_c, 2, 54, 110
7, 20640, Note_on_c, 2, 51, 110
7, 20640, Note_on_c, 2, 63, 127
7, 20640, Note_on_c, 2, 71, 120
7, 20640, Note_on_c, 2, 54, 110
7, 20640, Note_on_c, 2, 51, 110
7, 20640, Note_on_c, 2, 63, 127
7, 20644, Note_on_c, 2, 64, 0
7, 20644, Note_on_c, 2, 64, 0
7, 20756, Note_on_c, 2, 71, 0
7, 20756, Note_on_c, 2, 71, 0
7, 20760, Note_on_c, 2, 70, 120
7, 20760, Note_on_c, 2, 61, 127
7, 20760, Note_on_c, 2, 70, 120
7, 20760, Note_on_c, 2, 61, 127
7, 20764, Note_on_c, 2, 63, 0
7, 20764, Note_on_c, 2, 63, 0
7, 20880, Note_on_c, 2, 68, 120
7, 20880, Note_on_c, 2, 59, 127
7, 20880, Note_on_c, 2, 68, 120
7, 20880, Note_on_c, 2, 59, 127
7, 20882, Note_on_c, 2, 70, 0
7, 20882, Note_on_c, 2, 70, 0
7, 20896, Note_on_c, 2, 61, 0
7, 20896, Note_on_c, 2, 61, 0
7, 21000, Note_on_c, 2, 66, 120
7, 21000, Note_on_c, 2, 58, 127
7, 21000, Note_on_c, 2, 66, 120
7, 21000, Note_on_c, 2, 58, 127
7, 21002, Note_on_c, 2, 54, 0
7, 21002, Note_on_c, 2, 54, 0
7, 21003, Note_on_c, 2, 51, 0
7, 21003, Note_on_c, 2, 51, 0
7, 21009, Note_on_c, 2, 59, 0
7, 21009, Note_on_c, 2, 59, 0
7, 21019, Note_on_c, 2, 68, 0
7, 21019, Note_on_c, 2, 68, 0
7, 21120, Note_on_c, 2, 58, 0
7, 21120, Note_on_c, 2, 58, 0
7, 21120, Note_on_c, 2, 65, 120
7, 21120, Note_on_c, 2, 61, 110
7, 21120, Note_on_c, 2, 49, 110
7, 21120, Note_on_c, 2, 56, 127
7, 21120, Note_on_c, 2, 65, 120
7, 21120, Note_on_c, 2, 61, 110
7, 21120, Note_on_c, 2, 49, 110
7, 21120, Note_on_c, 2, 56, 127
7, 21137, Note_on_c, 2, 66, 0
7, 21137, Note_on_c, 2, 66, 0
7, 21317, Note_on_c, 2, 65, 0
7, 21317, Note_on_c, 2, 65, 0
7, 21360, Note_on_c, 2, 63, 120
7, 21360, Note_on_c, 2, 54, 127
7, 21360, Note_on_c, 2, 63, 120
7, 21360, Note_on_c, 2, 54, 127
7, 21377, Note_on_c, 2, 56, 0
7, 21377, Note_on_c, 2, 56, 0
7, 21473, Note_on_c, 2, 61, 0
7, 21473, Note_on_c, 2, 61, 0
7, 21475, Note_on_c, 2, 63, 0
7, 21475, Note_on_c, 2, 63, 0
7, 21480, Note_on_c, 2, 65, 120
7, 21480, Note_on_c, 2, 56, 127
7, 21480, Note_on_c, 2, 65, 120
7, 21480, Note_on_c, 2, 56, 127
7, 21484, Note_on_c, 2, 49, 0
7, 21484, Note_on_c, 2, 49, 0
7, 21488, Note_on_c, 2, 54, 0
7, 21488, Note_on_c, 2, 54, 0
7, 21573, Note_on_c, 2, 65, 0
7, 21573, Note_on_c, 2, 65, 0
7, 21579, Note_on_c, 2, 56, 0
7, 21579, Note_on_c, 2, 56, 0
7, 21600, Note_on_c, 2, 65, 120
7, 21600, Note_on_c, 2, 49, 110
7, 21600, Note_on_c, 2, 61, 110
7, 21600, Note_on_c, 2, 54, 110
7, 21600, Note_on_c, 2, 56, 127
7, 21600, Note_on_c, 2, 65, 120
7, 21600, Note_on_c, 2, 49, 110
7, 21600, Note_on_c, 2, 61, 110
7, 21600, Note_on_c, 2, 54, 110
7, 21600, Note_on_c, 2, 56, 127
7, 21780, Note_on_c, 2, 66, 120
7, 21780, Note_on_c, 2, 58, 127
7, 21780, Note_on_c, 2, 66, 120
7, 21780, Note_on_c, 2, 58, 127
7, 21786, Note_on_c, 2, 65, 0
7, 21786, Note_on_c, 2, 65, 0
7, 21791, Note_on_c, 2, 56, 0
7, 21791, Note_on_c, 2, 56, 0
7, 21899, Note_on_c, 2, 61, 0
7, 21899, Note_on_c, 2, 61, 0
7, 21901, Note_on_c, 2, 49, 0
7, 21901, Note_on_c, 2, 54, 0
7, 21901, Note_on_c, 2, 54, 0
7, 21901, Note_on_c, 2, 49, 0
7, 22006, Note_on_c, 2, 66, 0
7, 22006, Note_on_c, 2, 66, 0
7, 22020, Note_on_c, 2, 66, 127
7, 22020, Note_on_c, 2, 68, 120
7, 22020, Note_on_c, 2, 51, 110
7, 22020, Note_on_c, 2, 47, 110
7, 22020, Note_on_c, 2, 59, 127
7, 22020, Note_on_c, 2, 66, 127
7, 22020, Note_on_c, 2, 68, 120
7, 22020, Note_on_c, 2, 51, 110
7, 22020, Note_on_c, 2, 47, 110
7, 22020, Note_on_c, 2, 59, 127
7, 22030, Note_on_c, 2, 58, 0
7, 22030, Note_on_c, 2, 58, 0
7, 22378, Note_on_c, 2, 68, 0
7, 22378, Note_on_c, 2, 68, 0
7, 22386, Note_on_c, 2, 66, 0
7, 22386, Note_on_c, 2, 66, 0
7, 22390, Note_on_c, 2, 54, 120
7, 22390, Note_on_c, 2, 54, 120
7, 22419, Note_on_c, 2, 51, 0
7, 22419, Note_on_c, 2, 51, 0
7, 22420, Note_on_c, 2, 47, 0
7, 22420, Note_on_c, 2, 47, 0
7, 22481, Note_on_c, 2, 54, 0
7, 22481, Note_on_c, 2, 54, 0
7, 22485, Note_on_c, 2, 59, 120
7, 22485, Note_on_c, 2, 59, 120
7, 22507, Note_on_c, 2, 59, 0
7, 22507, Note_on_c, 2, 59, 0
7, 22560, Note_on_c, 2, 65, 120
7, 22560, Note_on_c, 2, 49, 110
7, 22560, Note_on_c, 2, 56, 110
7, 22560, Note_on_c, 2, 61, 127
7, 22560, Note_on_c, 2, 65, 120
7, 22560, Note_on_c, 2, 49, 110
7, 22560, Note_on_c, 2, 56, 110
7, 22560, Note_on_c, 2, 61, 127
7, 22594, Note_on_c, 2, 59, 0
7, 22594, Note_on_c, 2, 59, 0
7, 22842, Note_on_c, 2, 65, 0
7, 22842, Note_on_c, 2, 65, 0
7, 22860, Note_on_c, 2, 66, 120
7, 22860, Note_on_c, 2, 63, 127
7, 22860, Note_on_c, 2, 66, 120
7, 22860, Note_on_c, 2, 63, 127
7, 22932, Note_on_c, 2, 61, 0
7, 22932, Note_on_c, 2, 61, 0
7, 22936, Note_on_c, 2, 49, 0
7, 22936, Note_on_c, 2, 49, 0
7, 22939, Note_on_c, 2, 56, 0
7, 22939, Note_on_c, 2, 56, 0
7, 22959, Note_on_c, 2, 66, 0
7, 22959, Note_on_c, 2, 66, 0
7, 22980, Note_on_c, 2, 68, 120
7, 22980, Note_on_c, 2, 65, 127
7, 22980, Note_on_c, 2, 68, 120
7, 22980, Note_on_c, 2, 65, 127
7, 22985, Note_on_c, 2, 63, 0
7, 22985, Note_on_c, 2, 63, 0
7, 23040, Note_on_c, 2, 56, 110
7, 23040, Note_on_c, 2, 49, 110
7, 23040, Note_on_c, 2, 61, 110
7, 23040, Note_on_c, 2, 56, 110
7, 23040, Note_on_c, 2, 49, 110
7, 23040, Note_on_c, 2, 61, 110
7, 23227, Note_on_c, 2, 68, 0
7, 23227, Note_on_c, 2, 68, 0
7, 23419, Note_on_c, 2, 61, 0
7, 23419, Note_on_c, 2, 61, 0
7, 23421, Note_on_c, 2, 56, 0
7, 23421, Note_on_c, 2, 56, 0
7, 23423, Note_on_c, 2, 49, 0
7, 23423, Note_on_c, 2, 49, 0
7, 23424, Note_on_c, 2, 65, 0
7, 23424, Note_on_c, 2, 65, 0
7, 31200, Note_on_c, 2, 54, 110
7, 31200, Note_on_c, 2, 47, 110
7, 31200, Note_on_c, 2, 59, 110
7, 31200, Note_on_c, 2, 61, 127
7, 31200, Note_on_c, 2, 54, 110
7, 31200, Note_on_c, 2, 47, 110
7, 31200, Note_on_c, 2, 59, 110
7, 31200, Note_on_c, 2, 61, 127
7, 31380, Note_on_c, 2, 63, 127
7, 31380, Note_on_c, 2, 63, 127
7, 31400, Note_on_c, 2, 61, 0
7, 31400, Note_on_c, 2, 61, 0
7, 31545, Note_on_c, 2, 54, 0
7, 31545, Note_on_c, 2, 54, 0
7, 31570, Note_on_c, 2, 47, 0
7, 31570, Note_on_c, 2, 59, 0
7, 31570, Note_on_c, 2, 47, 0
7, 31570, Note_on_c, 2, 59, 0
7, 31620, Note_on_c, 2, 61, 110
7, 31620, Note_on_c, 2, 56, 110
7, 31620, Note_on_c, 2, 52, 110
7, 31620, Note_on_c, 2, 64, 127
7, 31620, Note_on_c, 2, 61, 110
7, 31620, Note_on_c, 2, 56, 110
7, 31620, Note_on_c, 2, 52, 110
7, 31620, Note_on_c, 2, 64, 127
7, 31624, Note_on_c, 2, 63, 0
7, 31624, Note_on_c, 2, 63, 0
7, 31983, Note_on_c, 2, 61, 0
7, 31983, Note_on_c, 2, 61, 0
7, 31985, Note_on_c, 2, 56, 0
7, 31985, Note_on_c, 2, 56, 0
7, 31986, Note_on_c, 2, 52, 0
7, 31986, Note_on_c, 2, 52, 0
7, 32013, Note_on_c, 2, 64, 0
7, 32013, Note_on_c, 2, 64, 0
7, 32040, Note_on_c, 2, 64, 127
7, 32040, Note_on_c, 2, 64, 127
7, 32160, Note_on_c, 2, 54, 110
7, 32160, Note_on_c, 2, 51, 110
7, 32160, Note_on_c, 2, 63, 127
7, 32160, Note_on_c, 2, 54, 110
7, 32160, Note_on_c, 2, 51, 110
7, 32160, Note_on_c, 2, 63, 127
7, 32164, Note_on_c, 2, 64, 0
7, 32164, Note_on_c, 2, 64, 0
7, 32280, Note_on_c, 2, 61, 127
7, 32280, Note_on_c, 2, 61, 127
7, 32284, Note_on_c, 2, 63, 0
7, 32284, Note_on_c, 2, 63, 0
7, 32400, Note_on_c, 2, 59, 127
7, 32400, Note_on_c, 2, 59, 127
7, 32416, Note_on_c, 2, 61, 0
7, 32416, Note_on_c, 2, 61, 0
7, 32520, Note_on_c, 2, 58, 127
7, 32520, Note_on_c, 2, 58, 127
7, 32522, Note_on_c, 2, 54, 0
7, 32522, Note_on_c, 2, 54, 0
7, 32523, Note_on_c, 2, 51, 0
7, 32523, Note_on_c, 2, 51, 0
7, 32529, Note_on_c, 2, 59, 0
7, 32529, Note_on_c, 2, 59, 0
7, 32640, Note_on_c, 2, 58, 0
7, 32640, Note_on_c, 2, 58, 0
7, 32640, Note_on_c, 2, 61, 110
7, 32640, Note_on_c, 2, 49, 110
7, 32640, Note_on_c, 2, 56, 127
7, 32640, Note_on_c, 2, 61, 110
7, 32640, Note_on_c, 2, 49, 110
7, 32640, Note_on_c, 2, 56, 127
7, 32880, Note_on_c, 2, 54, 127
7, 32880, Note_on_c, 2, 54, 127
7, 32897, Note_on_c, 2, 56, 0
7, 32897, Note_on_c, 2, 56, 0
7, 32993, Note_on_c, 2, 61, 0
7, 32993, Note_on_c, 2, 61, 0
7, 33000, Note_on_c, 2, 56, 127
7, 33000, Note_on_c, 2, 56, 127
7, 33004, Note_on_c, 2, 49, 0
7, 33004, Note_on_c, 2, 49, 0
7, 33008, Note_on_c, 2, 54, 0
7, 33008, Note_on_c, 2, 54, 0
7, 33099, Note_on_c, 2, 56, 0
7, 33099, Note_on_c, 2, 56, 0
7, 33120, Note_on_c, 2, 49, 110
7, 33120, Note_on_c, 2, 61, 110
7, 33120, Note_on_c, 2, 54, 110
7, 33120, Note_on_c, 2, 56, 127
7, 33120, Note_on_c, 2, 49, 110
7, 33120, Note_on_c, 2, 61, 110
7, 33120, Note_on_c, 2, 54, 110
7, 33120, Note_on_c, 2, 56, 127
7, 33300, Note_on_c, 2, 58, 127
7, 33300, Note_on_c, 2, 58, 127
7, 33311, Note_on_c, 2, 56, 0
7, 33311, Note_on_c, 2, 56, 0
7, 33419, Note_on_c, 2, 61, 0
7, 33419, Note_on_c, 2, 61, 0
7, 33421, Note_on_c, 2, 54, 0
7, 33421, Note_on_c, 2, 49, 0
7, 33421, Note_on_c, 2, 49, 0
7, 33421, Note_on_c, 2, 54, 0
7, 33540, Note_on_c, 2, 51, 110
7, 33540, Note_on_c, 2, 47, 110
7, 33540, Note_on_c, 2, 59, 127
7, 33540, Note_on_c, 2, 51, 110
7, 33540, Note_on_c, 2, 47, 110
7, 33540, Note_on_c, 2, 59, 127
7, 33550, Note_on_c, 2, 58, 0
7, 33550, Note_on_c, 2, 58, 0
7, 33910, Note_on_c, 2, 54, 120
7, 33910, Note_on_c, 2, 54, 120
7, 33939, Note_on_c, 2, 51, 0
7, 33939, Note_on_c, 2, 51, 0
7, 33940, Note_on_c, 2, 47, 0
7, 33940, Note_on_c, 2, 47, 0
7, 34001, Note_on_c, 2, 54, 0
7, 34001, Note_on_c, 2, 54, 0
7, 34005, Note_on_c, 2, 59, 120
7, 34005, Note_on_c, 2, 59, 120
7, 34027, Note_on_c, 2, 59, 0
7, 34027, Note_on_c, 2, 59, 0
7, 34080, Note_on_c, 2, 49, 110
7, 34080, Note_on_c, 2, 56, 110
7, 34080, Note_on_c, 2, 61, 127
7, 34080, Note_on_c, 2, 49, 110
7, 34080, Note_on_c, 2, 56, 110
7, 34080, Note_on_c, 2, 61, 127
7, 34114, Note_on_c, 2, 59, 0
7, 34114, Note_on_c, 2, 59, 0
7, 34380, Note_on_c, 2, 63, 127
7, 34380, Note_on_c, 2, 63, 127
7, 34452, Note_on_c, 2, 61, 0
7, 34452, Note_on_c, 2, 61, 0
7, 34456, Note_on_c, 2, 49, 0
7, 34456, Note_on_c, 2, 49, 0
7, 34459, Note_on_c, 2, 56, 0
7, 34459, Note_on_c, 2, 56, 0
7, 34500, Note_on_c, 2, 65, 127
7, 34500, Note_on_c, 2, 65, 127
7, 34505, Note_on_c, 2, 63, 0
7, 34505, Note_on_c, 2, 63, 0
7, 34560, Note_on_c, 2, 56, 110
7, 34560, Note_on_c, 2, 49, 110
7, 34560, Note_on_c, 2, 61, 110
7, 34560, Note_on_c, 2, 56, 110
7, 34560, Note_on_c, 2, 49, 110
7, 34560, Note_on_c, 2, 61, 110
7, 34939, Note_on_c, 2, 61, 0
7, 34939, Note_on_c, 2, 61, 0
7, 34941, Note_on_c, 2, 56, 0
7, 34941, Note_on_c, 2, 56, 0
7, 34943, Note_on_c, 2, 49, 0
7, 34943, Note_on_c, 2, 49, 0
7, 34944, Note_on_c, 2, 65, 0
7, 34944, Note_on_c, 2, 65, 0
7, 35040, Note_on_c, 2, 54, 110
7, 35040, Note_on_c, 2, 47, 110
7, 35040, Note_on_c, 2, 59, 110
7, 35040, Note_on_c, 2, 61, 127
7, 35040, Note_on_c, 2, 54, 110
7, 35040, Note_on_c, 2, 47, 110
7, 35040, Note_on_c, 2, 59, 110
7, 35040, Note_on_c, 2, 61, 127
7, 35220, Note_on_c, 2, 63, 127
7, 35220, Note_on_c, 2, 63, 127
7, 35240, Note_on_c, 2, 61, 0
7, 35240, Note_on_c, 2, 61, 0
7, 35385, Note_on_c, 2, 54, 0
7, 35385, Note_on_c, 2, 54, 0
7, 35410, Note_on_c, 2, 47, 0
7, 35410, Note_on_c, 2, 59, 0
7, 35410, Note_on_c, 2, 47, 0
7, 35410, Note_on_c, 2, 59, 0
7, 35460, Note_on_c, 2, 61, 110
7, 35460, Note_on_c, 2, 56, 110
7, 35460, Note_on_c, 2, 52, 110
7, 35460, Note_on_c, 2, 64, 127
7, 35460, Note_on_c, 2, 61, 110
7, 35460, Note_on_c, 2, 56, 110
7, 35460, Note_on_c, 2, 52, 110
7, 35460, Note_on_c, 2, 64, 127
7, 35464, Note_on_c, 2, 63, 0
7, 35464, Note_on_c, 2, 63, 0
7, 35823, Note_on_c, 2, 61, 0
7, 35823, Note_on_c, 2, 61, 0
7, 35825, Note_on_c, 2, 56, 0
7, 35825, Note_on_c, 2, 56, 0
7, 35826, Note_on_c, 2, 52, 0
7, 35826, Note_on_c, 2, 52, 0
7, 35853, Note_on_c, 2, 64, 0
7, 35853, Note_on_c, 2, 64, 0
7, 35880, Note_on_c, 2, 64, 127
7, 35880, Note_on_c, 2, 64, 127
7, 36000, Note_on_c, 2, 71, 120
7, 36000, Note_on_c, 2, 54, 110
7, 36000, Note_on_c, 2, 51, 110
7, 36000, Note_on_c, 2, 63, 127
7, 36000, Note_on_c, 2, 71, 120
7, 36000, Note_on_c, 2, 54, 110
7, 36000, Note_on_c, 2, 51, 110
7, 36000, Note_on_c, 2, 63, 127
7, 36004, Note_on_c, 2, 64, 0
7, 36004, Note_on_c, 2, 64, 0
7, 36116, Note_on_c, 2, 71, 0
7, 36116, Note_on_c, 2, 71, 0
7, 36120, Note_on_c, 2, 70, 120
7, 36120, Note_on_c, 2, 61, 127
7, 36120, Note_on_c, 2, 70, 120
7, 36120, Note_on_c, 2, 61, 127
7, 36124, Note_on_c, 2, 63, 0
7, 36124, Note_on_c, 2, 63, 0
7, 36240, Note_on_c, 2, 68, 120
7, 36240, Note_on_c, 2, 59, 127
7, 36240, Note_on_c, 2, 68, 120
7, 36240, Note_on_c, 2, 59, 127
7, 36242, Note_on_c, 2, 70, 0
7, 36242, Note_on_c, 2, 70, 0
7, 36256, Note_on_c, 2, 61, 0
7, 36256, Note_on_c, 2, 61, 0
7, 36360, Note_on_c, 2, 66, 120
7, 36360, Note_on_c, 2, 58, 127
7, 36360, Note_on_c, 2, 66, 120
7, 36360, Note_on_c, 2, 58, 127
7, 36362, Note_on_c, 2, 54, 0
7, 36362, Note_on_c, 2, 54, 0
7, 36363, Note_on_c, 2, 51, 0
7, 36363, Note_on_c, 2, 51, 0
7, 36369, Note_on_c, 2, 59, 0
7, 36369, Note_on_c, 2, 59, 0
7, 36379, Note_on_c, 2, 68, 0
7, 36379, Note_on_c, 2, 68, 0
7, 36480, Note_on_c, 2, 58, 0
7, 36480, Note_on_c, 2, 58, 0
7, 36480, Note_on_c, 2, 65, 120
7, 36480, Note_on_c, 2, 61, 110
7, 36480, Note_on_c, 2, 49, 110
7, 36480, Note_on_c, 2, 56, 127
7, 36480, Note_on_c, 2, 65, 120
7, 36480, Note_on_c, 2, 61, 110
7, 36480, Note_on_c, 2, 49, 110
7, 36480, Note_on_c, 2, 56, 127
7, 36497, Note_on_c, 2, 66, 0
7, 36497, Note_on_c, 2, 66, 0
7, 36677, Note_on_c, 2, 65, 0
7, 36677, Note_on_c, 2, 65, 0
7, 36720, Note_on_c, 2, 63, 120
7, 36720, Note_on_c, 2, 54, 127
7, 36720, Note_on_c, 2, 63, 120
7, 36720, Note_on_c, 2, 54, 127
7, 36737, Note_on_c, 2, 56, 0
7, 36737, Note_on_c, 2, 56, 0
7, 36833, Note_on_c, 2, 61, 0
7, 36833, Note_on_c, 2, 61, 0
7, 36835, Note_on_c, 2, 63, 0
7, 36835, Note_on_c, 2, 63, 0
7, 36840, Note_on_c, 2, 65, 120
7, 36840, Note_on_c, 2, 56, 127
7, 36840, Note_on_c, 2, 65, 120
7, 36840, Note_on_c, 2, 56, 127
7, 36844, Note_on_c, 2, 49, 0
7, 36844, Note_on_c, 2, 49, 0
7, 36848, Note_on_c, 2, 54, 0
7, 36848, Note_on_c, 2, 54, 0
7, 36933, Note_on_c, 2, 65, 0
7, 36933, Note_on_c, 2, 65, 0
7, 36939, Note_on_c, 2, 56, 0
7, 36939, Note_on_c, 2, 56, 0
7, 36960, Note_on_c, 2, 65, 120
7, 36960, Note_on_c, 2, 49, 110
7, 36960, Note_on_c, 2, 61, 110
7, 36960, Note_on_c, 2, 54, 110
7, 36960, Note_on_c, 2, 56, 127
7, 36960, Note_on_c, 2, 65, 120
7, 36960, Note_on_c, 2, 49, 110
7, 36960, Note_on_c, 2, 61, 110
7, 36960, Note_on_c, 2, 54, 110
7, 36960, Note_on_c, 2, 56, 127
7, 37140, Note_on_c, 2, 66, 120
7, 37140, Note_on_c, 2, 58, 127
7, 37140, Note_on_c, 2, 66, 120
7, 37140, Note_on_c, 2, 58, 127
7, 37146, Note_on_c, 2, 65, 0
7, 37146, Note_on_c, 2, 65, 0
7, 37151, Note_on_c, 2, 56, 0
7, 37151, Note_on_c, 2, 56, 0
7, 37259, Note_on_c, 2, 61, 0
7, 37259, Note_on_c, 2, 61, 0
7, 37261, Note_on_c, 2, 49, 0
7, 37261, Note_on_c, 2, 54, 0
7, 37261, Note_on_c, 2, 54, 0
7, 37261, Note_on_c, 2, 49, 0
7, 37366, Note_on_c, 2, 66, 0
7, 37366, Note_on_c, 2, 66, 0
7, 37380, Note_on_c, 2, 66, 127
7, 37380, Note_on_c, 2, 68, 120
7, 37380, Note_on_c, 2, 51, 110
7, 37380, Note_on_c, 2, 47, 110
7, 37380, Note_on_c, 2, 59, 127
7, 37380, Note_on_c, 2, 66, 127
7, 37380, Note_on_c, 2, 68, 120
7, 37380, Note_on_c, 2, 51, 110
7, 37380, Note_on_c, 2, 47, 110
7, 37380, Note_on_c, 2, 59, 127
7, 37390, Note_on_c, 2, 58, 0
7, 37390, Note_on_c, 2, 58, 0
7, 37738, Note_on_c, 2, 68, 0
7, 37738, Note_on_c, 2, 68, 0
7, 37746, Note_on_c, 2, 66, 0
7, 37746, Note_on_c, 2, 66, 0
7, 37750, Note_on_c, 2, 54, 120
7, 37750, Note_on_c, 2, 54, 120
7, 37779, Note_on_c, 2, 51, 0
7, 37779, Note_on_c, 2, 51, 0
7, 37780, Note_on_c, 2, 47, 0
7, 37780, Note_on_c, 2, 47, 0
7, 37841, Note_on_c, 2, 54, 0
7, 37841, Note_on_c, 2, 54, 0
7, 37845, Note_on_c, 2, 59, 120
7, 37845, Note_on_c, 2, 59, 120
7, 37867, Note_on_c, 2, 59, 0
7, 37867, Note_on_c, 2, 59, 0
7, 37920, Note_on_c, 2, 65, 120
7, 37920, Note_on_c, 2, 49, 110
7, 37920, Note_on_c, 2, 56, 110
7, 37920, Note_on_c, 2, 61, 127
7, 37920, Note_on_c, 2, 65, 120
7, 37920, Note_on_c, 2, 49, 110
7, 37920, Note_on_c, 2, 56, 110
7, 37920, Note_on_c, 2, 61, 127
7, 37954, Note_on_c, 2, 59, 0
7, 37954, Note_on_c, 2, 59, 0
7, 38202, Note_on_c, 2, 65, 0
7, 38202, Note_on_c, 2, 65, 0
7, 38220, Note_on_c, 2, 66, 120
7, 38220, Note_on_c, 2, 63, 127
7, 38220, Note_on_c, 2, 66, 120
7, 38220, Note_on_c, 2, 63, 127
7, 38292, Note_on_c, 2, 61, 0
7, 38292, Note_on_c, 2, 61, 0
7, 38296, Note_on_c, 2, 49, 0
7, 38296, Note_on_c, 2, 49, 0
7, 38299, Note_on_c, 2, 56, 0
7, 38299, Note_on_c, 2, 56, 0
7, 38319, Note_on_c, 2, 66, 0
7, 38319, Note_on_c, 2, 66, 0
7, 38340, Note_on_c, 2, 68, 120
7, 38340, Note_on_c, 2, 65, 127
7, 38340, Note_on_c, 2, 68, 120
7, 38340, Note_on_c, 2, 65, 127
7, 38345, Note_on_c, 2, 63, 0
7, 38345, Note_on_c, 2, 63, 0
7, 38400, Note_on_c, 2, 56, 110
7, 38400, Note_on_c, 2, 49, 110
7, 38400, Note_on_c, 2, 61, 110
7, 38400, Note_on_c, 2, 56, 110
7, 38400, Note_on_c, 2, 49, 110
7, 38400, Note_on_c, 2, 61, 110
7, 38587, Note_on_c, 2, 68, 0
7, 38587, Note_on_c, 2, 68, 0
7, 38779, Note_on_c, 2, 61, 0
7, 38779, Note_on_c, 2, 61, 0
7, 38781, Note_on_c, 2, 56, 0
7, 38781, Note_on_c, 2, 56, 0
7, 38783, Note_on_c, 2, 49, 0
7, 38783, Note_on_c, 2, 49, 0
7, 38784, Note_on_c, 2, 65, 0
7, 38784, Note_on_c, 2, 65, 0
7, 47040, Note_on_c, 2, 54, 110
7, 47040, Note_on_c, 2, 47, 110
7, 47040, Note_on_c, 2, 59, 110
7, 47040, Note_on_c, 2, 61, 127
7, 47040, Note_on_c, 2, 54, 110
7, 47040, Note_on_c, 2, 47, 110
7, 47040, Note_on_c, 2, 59, 110
7, 47040, Note_on_c, 2, 61, 127
7, 47220, Note_on_c, 2, 63, 127
7, 47220, Note_on_c, 2, 63, 127
7, 47240, Note_on_c, 2, 61, 0
7, 47240, Note_on_c, 2, 61, 0
7, 47385, Note_on_c, 2, 54, 0
7, 47385, Note_on_c, 2, 54, 0
7, 47410, Note_on_c, 2, 47, 0
7, 47410, Note_on_c, 2, 59, 0
7, 47410, Note_on_c, 2, 47, 0
7, 47410, Note_on_c, 2, 59, 0
7, 47460, Note_on_c, 2, 61, 110
7, 47460, Note_on_c, 2, 56, 110
7, 47460, Note_on_c, 2, 52, 110
7, 47460, Note_on_c, 2, 64, 127
7, 47460, Note_on_c, 2, 61, 110
7, 47460, Note_on_c, 2, 56, 110
7, 47460, Note_on_c, 2, 52, 110
7, 47460, Note_on_c, 2, 64, 127
7, 47464, Note_on_c, 2, 63, 0
7, 47464, Note_on_c, 2, 63, 0
7, 47823, Note_on_c, 2, 61, 0
7, 47823, Note_on_c, 2, 61, 0
7, 47825, Note_on_c, 2, 56, 0
7, 47825, Note_on_c, 2, 56, 0
7, 47826, Note_on_c, 2, 52, 0
7, 47826, Note_on_c, 2, 52, 0
7, 47853, Note_on_c, 2, 64, 0
7, 47853, Note_on_c, 2, 64, 0
7, 47880, Note_on_c, 2, 64, 127
7, 47880, Note_on_c, 2, 64, 127
7, 48000, Note_on_c, 2, 54, 110
7, 48000, Note_on_c, 2, 51, 110
7, 48000, Note_on_c, 2, 63, 127
7, 48000, Note_on_c, 2, 54, 110
7, 48000, Note_on_c, 2, 51, 110
7, 48000, Note_on_c, 2, 63, 127
7, 48004, Note_on_c, 2, 64, 0
7, 48004, Note_on_c, 2, 64, 0
7, 48120, Note_on_c, 2, 61, 127
7, 48120, Note_on_c, 2, 61, 127
7, 48124, Note_on_c, 2, 63, 0
7, 48124, Note_on_c, 2, 63, 0
7, 48240, Note_on_c, 2, 59, 127
7, 48240, Note_on_c, 2, 59, 127
7, 48256, Note_on_c, 2, 61, 0
7, 48256, Note_on_c, 2, 61, 0
7, 48360, Note_on_c, 2, 58, 127
7, 48360, Note_on_c, 2, 58, 127
7, 48362, Note_on_c, 2, 54, 0
7, 48362, Note_on_c, 2, 54, 0
7, 48363, Note_on_c, 2, 51, 0
7, 48363, Note_on_c, 2, 51, 0
7, 48369, Note_on_c, 2, 59, 0
7, 48369, Note_on_c, 2, 59, 0
7, 48480, Note_on_c, 2, 58, 0
7, 48480, Note_on_c, 2, 58, 0
7, 48480, Note_on_c, 2, 61, 110
7, 48480, Note_on_c, 2, 49, 110
7, 48480, Note_on_c, 2, 56, 127
7, 48480, Note_on_c, 2, 61, 110
7, 48480, Note_on_c, 2, 49, 110
7, 48480, Note_on_c, 2, 56, 127
7, 48720, Note_on_c, 2, 54, 127
7, 48720, Note_on_c, 2, 54, 127
7, 48737, Note_on_c, 2, 56, 0
7, 48737, Note_on_c, 2, 56, 0
7, 48833, Note_on_c, 2, 61, 0
7, 48833, Note_on_c, 2, 61, 0
7, 48840, Note_on_c, 2, 56, 127
7, 48840, Note_on_c, 2, 56, 127
7, 48844, Note_on_c, 2, 49, 0
7, 48844, Note_on_c, 2, 49, 0
7, 48848, Note_on_c, 2, 54, 0
7, 48848, Note_on_c, 2, 54, 0
7, 48939, Note_on_c, 2, 56, 0
7, 48939, Note_on_c, 2, 56, 0
7, 48960, Note_on_c, 2, 49, 110
7, 48960, Note_on_c, 2, 61, 110
7, 48960, Note_on_c, 2, 54, 110
7, 48960, Note_on_c, 2, 56, 127
7, 48960, Note_on_c, 2, 49, 110
7, 48960, Note_on_c, 2, 61, 110
7, 48960, Note_on_c, 2, 54, 110
7, 48960, Note_on_c, 2, 56, 127
7, 49140, Note_on_c, 2, 58, 127
7, 49140, Note_on_c, 2, 58, 127
7, 49151, Note_on_c, 2, 56, 0
7, 49151, Note_on_c, 2, 56, 0
7, 49259, Note_on_c, 2, 61, 0
7, 49259, Note_on_c, 2, 61, 0
7, 49261, Note_on_c, 2, 54, 0
7, 49261, Note_on_c, 2, 49, 0
7, 49261, Note_on_c, 2, 49, 0
7, 49261, Note_on_c, 2, 54, 0
7, 49380, Note_on_c, 2, 51, 110
7, 49380, Note_on_c, 2, 47, 110
7, 49380, Note_on_c, 2, 59, 127
7, 49380, Note_on_c, 2, 51, 110
7, 49380, Note_on_c, 2, 47, 110
7, 49380, Note_on_c, 2, 59, 127
7, 49390, Note_on_c, 2, 58, 0
7, 49390, Note_on_c, 2, 58, 0
7, 49750, Note_on_c, 2, 54, 120
7, 49750, Note_on_c, 2, 54, 120
7, 49779, Note_on_c, 2, 51, 0
7, 49779, Note_on_c, 2, 51, 0
7, 49780, Note_on_c, 2, 47, 0
7, 49780, Note_on_c, 2, 47, 0
7, 49841, Note_on_c, 2, 54, 0
7, 49841, Note_on_c, 2, 54, 0
7, 49845, Note_on_c, 2, 59, 120
7, 49845, Note_on_c, 2, 59, 120
7, 49867, Note_on_c, 2, 59, 0
7, 49867, Note_on_c, 2, 59, 0
7, 49920, Note_on_c, 2, 49, 110
7, 49920, Note_on_c, 2, 56, 110
7, 49920, Note_on_c, 2, 61, 127
7, 49920, Note_on_c, 2, 49, 110
7, 49920, Note_on_c, 2, 56, 110
7, 49920, Note_on_c, 2, 61, 127
7, 49954, Note_on_c, 2, 59, 0
7, 49954, Note_on_c, 2, 59, 0
7, 50220, Note_on_c, 2, 63, 127
7, 50220, Note_on_c, 2, 63, 127
7, 50292, Note_on_c, 2, 61, 0
7, 50292, Note_on_c, 2, 61, 0
7, 50296, Note_on_c, 2, 49, 0
7, 50296, Note_on_c, 2, 49, 0
7, 50299, Note_on_c, 2, 56, 0
7, 50299, Note_on_c, 2, 56, 0
7, 50340, Note_on_c, 2, 65, 127
7, 50340, Note_on_c, 2, 65, 127
7, 50345, Note_on_c, 2, 63, 0
7, 50345, Note_on_c, 2, 63, 0
7, 50400, Note_on_c, 2, 56, 110
7, 50400, Note_on_c, 2, 49, 110
7, 50400, Note_on_c, 2, 61, 110
7, 50400, Note_on_c, 2, 56, 110
7, 50400, Note_on_c, 2, 49, 110
7, 50400, Note_on_c, 2, 61, 110
7, 50779, Note_on_c, 2, 61, 0
7, 50779, Note_on_c, 2, 61, 0
7, 50781, Note_on_c, 2, 56, 0
7, 50781, Note_on_c, 2, 56, 0
7, 50783, Note_on_c, 2, 49, 0
7, 50783, Note_on_c, 2, 49, 0
7, 50784, Note_on_c, 2, 65, 0
7, 50784, Note_on_c, 2, 65, 0
7, 50880, Note_on_c, 2, 54, 110
7, 50880, Note_on_c, 2, 47, 110
7, 50880, Note_on_c, 2, 59, 110
7, 50880, Note_on_c, 2, 61, 127
7, 50880, Note_on_c, 2, 54, 110
7, 50880, Note_on_c, 2, 47, 110
7, 50880, Note_on_c, 2, 59, 110
7, 50880, Note_on_c, 2, 61, 127
7, 51060, Note_on_c, 2, 63, 127
7, 51060, Note_on_c, 2, 63, 127
7, 51080, Note_on_c, 2, 61, 0
7, 51080, Note_on_c, 2, 61, 0
7, 51225, Note_on_c, 2, 54, 0
7, 51225, Note_on_c, 2, 54, 0
7, 51250, Note_on_c, 2, 47, 0
7, 51250, Note_on_c, 2, 59, 0
7, 51250, Note_on_c, 2, 47, 0
7, 51250, Note_on_c, 2, 59, 0
7, 51300, Note_on_c, 2, 61, 110
7, 51300, Note_on_c, 2, 56, 110
7, 51300, Note_on_c, 2, 52, 110
7, 51300, Note_on_c, 2, 64, 127
7, 51300, Note_on_c, 2, 61, 110
7, 51300, Note_on_c, 2, 56, 110
7, 51300, Note_on_c, 2, 52, 110
7, 51300, Note_on_c, 2, 64, 127
7, 51304, Note_on_c, 2, 63, 0
7, 51304, Note_on_c, 2, 63, 0
7, 51663, Note_on_c, 2, 61, 0
7, 51663, Note_on_c, 2, 61, 0
7, 51665, Note_on_c, 2, 56, 0
7, 51665, Note_on_c, 2, 56, 0
7, 51666, Note_on_c, 2, 52, 0
7, 51666, Note_on_c, 2, 52, 0
7, 51693, Note_on_c, 2, 64, 0
7, 51693, Note_on_c, 2, 64, 0
7, 51720, Note_on_c, 2, 64, 127
7, 51720, Note_on_c, 2, 64, 127
7, 51840, Note_on_c, 2, 71, 120
7, 51840, Note_on_c, 2, 54, 110
7, 51840, Note_on_c, 2, 51, 110
7, 51840, Note_on_c, 2, 63, 127
7, 51840, Note_on_c, 2, 71, 120
7, 51840, Note_on_c, 2, 54, 110
7, 51840, Note_on_c, 2, 51, 110
7, 51840, Note_on_c, 2, 63, 127
7, 51844, Note_on_c, 2, 64, 0
7, 51844, Note_on_c, 2, 64, 0
7, 51956, Note_on_c, 2, 71, 0
7, 51956, Note_on_c, 2, 71, 0
7, 51960, Note_on_c, 2, 70, 120
7, 51960, Note_on_c, 2, 61, 127
7, 51960, Note_on_c, 2, 70, 120
7, 51960, Note_on_c, 2, 61, 127
7, 51964, Note_on_c, 2, 63, 0
7, 51964, Note_on_c, 2, 63, 0
7, 52080, Note_on_c, 2, 68, 120
7, 52080, Note_on_c, 2, 59, 127
7, 52080, Note_on_c, 2, 68, 120
7, 52080, Note_on_c, 2, 59, 127
7, 52082, Note_on_c, 2, 70, 0
7, 52082, Note_on_c, 2, 70, 0
7, 52096, Note_on_c, 2, 61, 0
7, 52096, Note_on_c, 2, 61, 0
7, 52200, Note_on_c, 2, 66, 120
7, 52200, Note_on_c, 2, 58, 127
7, 52200, Note_on_c, 2, 66, 120
7, 52200, Note_on_c, 2, 58, 127
7, 52202, Note_on_c, 2, 54, 0
7, 52202, Note_on_c, 2, 54, 0
7, 52203, Note_on_c, 2, 51, 0
7, 52203, Note_on_c, 2, 51, 0
7, 52209, Note_on_c, 2, 59, 0
7, 52209, Note_on_c, 2, 59, 0
7, 52219, Note_on_c, 2, 68, 0
7, 52219, Note_on_c, 2, 68, 0
7, 52320, Note_on_c, 2, 58, 0
7, 52320, Note_on_c, 2, 58, 0
7, 52320, Note_on_c, 2, 65, 120
7, 52320, Note_on_c, 2, 61, 110
7, 52320, Note_on_c, 2, 49, 110
7, 52320, Note_on_c, 2, 56, 127
7, 52320, Note_on_c, 2, 65, 120
7, 52320, Note_on_c, 2, 61, 110
7, 52320, Note_on_c, 2, 49, 110
7, 52320, Note_on_c, 2, 56, 127
7, 52337, Note_on_c, 2, 66, 0
7, 52337, Note_on_c, 2, 66, 0
7, 52517, Note_on_c, 2, 65, 0
7, 52517, Note_on_c, 2, 65, 0
7, 52560, Note_on_c, 2, 63, 120
7, 52560, Note_on_c, 2, 54, 127
7, 52560, Note_on_c, 2, 63, 120
7, 52560, Note_on_c, 2, 54, 127
7, 52577, Note_on_c, 2, 56, 0
7, 52577, Note_on_c, 2, 56, 0
7, 52673, Note_on_c, 2, 61, 0
7, 52673, Note_on_c, 2, 61, 0
7, 52675, Note_on_c, 2, 63, 0
7, 52675, Note_on_c, 2, 63, 0
7, 52680, Note_on_c, 2, 65, 120
7, 52680, Note_on_c, 2, 56, 127
7, 52680, Note_on_c, 2, 65, 120
7, 52680, Note_on_c, 2, 56, 127
7, 52684, Note_on_c, 2, 49, 0
7, 52684, Note_on_c, 2, 49, 0
7, 52688, Note_on_c, 2, 54, 0
7, 52688, Note_on_c, 2, 54, 0
7, 52773, Note_on_c, 2, 65, 0
7, 52773, Note_on_c, 2, 65, 0
7, 52779, Note_on_c, 2, 56, 0
7, 52779, Note_on_c, 2, 56, 0
7, 52800, Note_on_c, 2, 65, 120
7, 52800, Note_on_c, 2, 49, 110
7, 52800, Note_on_c, 2, 61, 110
7, 52800, Note_on_c, 2, 54, 110
7, 52800, Note_on_c, 2, 56, 127
7, 52800, Note_on_c, 2, 65, 120
7, 52800, Note_on_c, 2, 49, 110
7, 52800, Note_on_c, 2, 61, 110
7, 52800, Note_on_c, 2, 54, 110
7, 52800, Note_on_c, 2, 56, 127
7, 52980, Note_on_c, 2, 66, 120
7, 52980, Note_on_c, 2, 58, 127
7, 52980, Note_on_c, 2, 66, 120
7, 52980, Note_on_c, 2, 58, 127
7, 52986, Note_on_c, 2, 65, 0
7, 52986, Note_on_c, 2, 65, 0
7, 52991, Note_on_c, 2, 56, 0
7, 52991, Note_on_c, 2, 56, 0
7, 53099, Note_on_c, 2, 61, 0
7, 53099, Note_on_c, 2, 61, 0
7, 53101, Note_on_c, 2, 49, 0
7, 53101, Note_on_c, 2, 54, 0
7, 53101, Note_on_c, 2, 54, 0
7, 53101, Note_on_c, 2, 49, 0
7, 53206, Note_on_c, 2, 66, 0
7, 53206, Note_on_c, 2, 66, 0
7, 53220, Note_on_c, 2, 66, 127
7, 53220, Note_on_c, 2, 68, 120
7, 53220, Note_on_c, 2, 51, 110
7, 53220, Note_on_c, 2, 47, 110
7, 53220, Note_on_c, 2, 59, 127
7, 53220, Note_on_c, 2, 66, 127
7, 53220, Note_on_c, 2, 68, 120
7, 53220, Note_on_c, 2, 51, 110
7, 53220, Note_on_c, 2, 47, 110
7, 53220, Note_on_c, 2, 59, 127
7, 53230, Note_on_c, 2, 58, 0
7, 53230, Note_on_c, 2, 58, 0
7, 53578, Note_on_c, 2, 68, 0
7, 53578, Note_on_c, 2, 68, 0
7, 53586, Note_on_c, 2, 66, 0
7, 53586, Note_on_c, 2, 66, 0
7, 53590, Note_on_c, 2, 54, 120
7, 53590, Note_on_c, 2, 54, 120
7, 53619, Note_on_c, 2, 51, 0
7, 53619, Note_on_c, 2, 51, 0
7, 53620, Note_on_c, 2, 47, 0
7, 53620, Note_on_c, 2, 47, 0
7, 53681, Note_on_c, 2, 54, 0
7, 53681, Note_on_c, 2, 54, 0
7, 53685, Note_on_c, 2, 59, 120
7, 53685, Note_on_c, 2, 59, 120
7, 53707, Note_on_c, 2, 59, 0
7, 53707, Note_on_c, 2, 59, 0
7, 53760, Note_on_c, 2, 65, 120
7, 53760, Note_on_c, 2, 49, 110
7, 53760, Note_on_c, 2, 56, 110
7, 53760, Note_on_c, 2, 61, 127
7, 53760, Note_on_c, 2, 65, 120
7, 53760, Note_on_c, 2, 49, 110
7, 53760, Note_on_c, 2, 56, 110
7, 53760, Note_on_c, 2, 61, 127
7, 53794, Note_on_c, 2, 59, 0
7, 53794, Note_on_c, 2, 59, 0
7, 54042, Note_on_c, 2, 65, 0
7, 54042, Note_on_c, 2, 65, 0
7, 54060, Note_on_c, 2, 66, 120
7, 54060, Note_on_c, 2, 63, 127
7, 54060, Note_on_c, 2, 66, 120
7, 54060, Note_on_c, 2, 63, 127
7, 54132, Note_on_c, 2, 61, 0
7, 54132, Note_on_c, 2, 61, 0
7, 54136, Note_on_c, 2, 49, 0
7, 54136, Note_on_c, 2, 49, 0
7, 54139, Note_on_c, 2, 56, 0
7, 54139, Note_on_c, 2, 56, 0
7, 54159, Note_on_c, 2, 66, 0
7, 54159, Note_on_c, 2, 66, 0
7, 54180, Note_on_c, 2, 68, 120
7, 54180, Note_on_c, 2, 65, 127
7, 54180, Note_on_c, 2, 68, 120
7, 54180, Note_on_c, 2, 65, 127
7, 54185, Note_on_c, 2, 63, 0
7, 54185, Note_on_c, 2, 63, 0
7, 54240, Note_on_c, 2, 56, 110
7, 54240, Note_on_c, 2, 49, 110
7, 54240, Note_on_c, 2, 61, 110
7, 54240, Note_on_c, 2, 56, 110
7, 54240, Note_on_c, 2, 49, 110
7, 54240, Note_on_c, 2, 61, 110
7, 54427, Note_on_c, 2, 68, 0
7, 54427, Note_on_c, 2, 68, 0
7, 54619, Note_on_c, 2, 61, 0
7, 54619, Note_on_c, 2, 61, 0
7, 54621, Note_on_c, 2, 56, 0
7, 54621, Note_on_c, 2, 56, 0
7, 54623, Note_on_c, 2, 49, 0
7, 54623, Note_on_c, 2, 49, 0
7, 54624, Note_on_c, 2, 65, 0
7, 54624, Note_on_c, 2, 65, 0
7, 54720, Note_on_c, 2, 54, 110
7, 54720, Note_on_c, 2, 47, 110
7, 54720, Note_on_c, 2, 59, 110
7, 54720, Note_on_c, 2, 61, 127
7, 54720, Note_on_c, 2, 54, 110
7, 54720, Note_on_c, 2, 47, 110
7, 54720, Note_on_c, 2, 59, 110
7, 54720, Note_on_c, 2, 61, 127
7, 54900, Note_on_c, 2, 63, 127
7, 54900, Note_on_c, 2, 63, 127
7, 54920, Note_on_c, 2, 61, 0
7, 54920, Note_on_c, 2, 61, 0
7, 55065, Note_on_c, 2, 54, 0
7, 55065, Note_on_c, 2, 54, 0
7, 55090, Note_on_c, 2, 47, 0
7, 55090, Note_on_c, 2, 59, 0
7, 55090, Note_on_c, 2, 47, 0
7, 55090, Note_on_c, 2, 59, 0
7, 55140, Note_on_c, 2, 61, 110
7, 55140, Note_on_c, 2, 56, 110
7, 55140, Note_on_c, 2, 52, 110
7, 55140, Note_on_c, 2, 64, 127
7, 55140, Note_on_c, 2, 61, 110
7, 55140, Note_on_c, 2, 56, 110
7, 55140, Note_on_c, 2, 52, 110
7, 55140, Note_on_c, 2, 64, 127
7, 55144, Note_on_c, 2, 63, 0
7, 55144, Note_on_c, 2, 63, 0
7, 55503, Note_on_c, 2, 61, 0
7, 55503, Note_on_c, 2, 61, 0
7, 55505, Note_on_c, 2, 56, 0
7, 55505, Note_on_c, 2, 56, 0
7, 55506, Note_on_c, 2, 52, 0
7, 55506, Note_on_c, 2, 52, 0
7, 55533, Note_on_c, 2, 64, 0
7, 55533, Note_on_c, 2, 64, 0
7, 55560, Note_on_c, 2, 64, 127
7, 55560, Note_on_c, 2, 64, 127
7, 55680, Note_on_c, 2, 54, 110
7, 55680, Note_on_c, 2, 51, 110
7, 55680, Note_on_c, 2, 63, 127
7, 55680, Note_on_c, 2, 54, 110
7, 55680, Note_on_c, 2, 51, 110
7, 55680, Note_on_c, 2, 63, 127
7, 55684, Note_on_c, 2, 64, 0
7, 55684, Note_on_c, 2, 64, 0
7, 55800, Note_on_c, 2, 61, 127
7, 55800, Note_on_c, 2, 61, 127
7, 55804, Note_on_c, 2, 63, 0
7, 55804, Note_on_c, 2, 63, 0
7, 55920, Note_on_c, 2, 59, 127
7, 55920, Note_on_c, 2, 59, 127
7, 55936, Note_on_c, 2, 61, 0
7, 55936, Note_on_c, 2, 61, 0
7, 56040, Note_on_c, 2, 58, 127
7, 56040, Note_on_c, 2, 58, 127
7, 56042, Note_on_c, 2, 54, 0
7, 56042, Note_on_c, 2, 54, 0
7, 56043, Note_on_c, 2, 51, 0
7, 56043, Note_on_c, 2, 51, 0
7, 56049, Note_on_c, 2, 59, 0
7, 56049, Note_on_c, 2, 59, 0
7, 56160, Note_on_c, 2, 58, 0
7, 56160, Note_on_c, 2, 58, 0
7, 56160, Note_on_c, 2, 61, 110
7, 56160, Note_on_c, 2, 49, 110
7, 56160, Note_on_c, 2, 56, 127
7, 56160, Note_on_c, 2, 61, 110
7, 56160, Note_on_c, 2, 49, 110
7, 56160, Note_on_c, 2, 56, 127
7, 56400, Note_on_c, 2, 54, 127
7, 56400, Note_on_c, 2, 54, 127
7, 56417, Note_on_c, 2, 56, 0
7, 56417, Note_on_c, 2, 56, 0
7, 56513, Note_on_c, 2, 61, 0
7, 56513, Note_on_c, 2, 61, 0
7, 56520, Note_on_c, 2, 56, 127
7, 56520, Note_on_c, 2, 56, 127
7, 56524, Note_on_c, 2, 49, 0
7, 56524, Note_on_c, 2, 49, 0
7, 56528, Note_on_c, 2, 54, 0
7, 56528, Note_on_c, 2, 54, 0
7, 56619, Note_on_c, 2, 56, 0
7, 56619, Note_on_c, 2, 56, 0
7, 56640, Note_on_c, 2, 49, 110
7, 56640, Note_on_c, 2, 61, 110
7, 56640, Note_on_c, 2, 54, 110
7, 56640, Note_on_c, 2, 56, 127
7, 56640, Note_on_c, 2, 49, 110
7, 56640, Note_on_c, 2, 61, 110
7, 56640, Note_on_c, 2, 54, 110
7, 56640, Note_on_c, 2, 56, 127
7, 56820, Note_on_c, 2, 58, 127
7, 56820, Note_on_c, 2, 58, 127
7, 56831, Note_on_c, 2, 56, 0
7, 56831, Note_on_c, 2, 56, 0
7, 56939, Note_on_c, 2, 61, 0
7, 56939, Note_on_c, 2, 61, 0
7, 56941, Note_on_c, 2, 54, 0
7, 56941, Note_on_c, 2, 49, 0
7, 56941, Note_on_c, 2, 49, 0
7, 56941, Note_on_c, 2, 54, 0
7, 57060, Note_on_c, 2, 51, 110
7, 57060, Note_on_c, 2, 47, 110
7, 57060, Note_on_c, 2, 59, 127
7, 57060, Note_on_c, 2, 51, 110
7, 57060, Note_on_c, 2, 47, 110
7, 57060, Note_on_c, 2, 59, 127
7, 57070, Note_on_c, 2, 58, 0
7, 57070, Note_on_c, 2, 58, 0
7, 57430, Note_on_c, 2, 54, 120
7, 57430, Note_on_c, 2, 54, 120
7, 57459, Note_on_c, 2, 51, 0
7, 57459, Note_on_c, 2, 51, 0
7, 57460, Note_on_c, 2, 47, 0
7, 57460, Note_on_c, 2, 47, 0
7, 57521, Note_on_c, 2, 54, 0
7, 57521, Note_on_c, 2, 54, 0
7, 57525, Note_on_c, 2, 59, 120
7, 57525, Note_on_c, 2, 59, 120
7, 57547, Note_on_c, 2, 59, 0
7, 57547, Note_on_c, 2, 59, 0
7, 57600, Note_on_c, 2, 49, 110
7, 57600, Note_on_c, 2, 56, 110
7, 57600, Note_on_c, 2, 61, 127
7, 57600, Note_on_c, 2, 49, 110
7, 57600, Note_on_c, 2, 56, 110
7, 57600, Note_on_c, 2, 61, 127
7, 57634, Note_on_c, 2, 59, 0
7, 57634, Note_on_c, 2, 59, 0
7, 57900, Note_on_c, 2, 63, 127
7, 57900, Note_on_c, 2, 63, 127
7, 57972, Note_on_c, 2, 61, 0
7, 57972, Note_on_c, 2, 61, 0
7, 57976, Note_on_c, 2, 49, 0
7, 57976, Note_on_c, 2, 49, 0
7, 57979, Note_on_c, 2, 56, 0
7, 57979, Note_on_c, 2, 56, 0
7, 58020, Note_on_c, 2, 65, 127
7, 58020, Note_on_c, 2, 65, 127
7, 58025, Note_on_c, 2, 63, 0
7, 58025, Note_on_c, 2, 63, 0
7, 58080, Note_on_c, 2, 56, 110
7, 58080, Note_on_c, 2, 49, 110
7, 58080, Note_on_c, 2, 61, 110
7, 58080, Note_on_c, 2, 56, 110
7, 58080, Note_on_c, 2, 49, 110
7, 58080, Note_on_c, 2, 61, 110
7, 58459, Note_on_c, 2, 61, 0
7, 58459, Note_on_c, 2, 61, 0
7, 58461, Note_on_c, 2, 56, 0
7, 58461, Note_on_c, 2, 56, 0
7, 58463, Note_on_c, 2, 49, 0
7, 58463, Note_on_c, 2, 49, 0
7, 58464, Note_on_c, 2, 65, 0
7, 58464, Note_on_c, 2, 65, 0
7, 58560, Note_on_c, 2, 54, 110
7, 58560, Note_on_c, 2, 47, 110
7, 58560, Note_on_c, 2, 59, 110
7, 58560, Note_on_c, 2, 61, 127
7, 58560, Note_on_c, 2, 54, 110
7, 58560, Note_on_c, 2, 47, 110
7, 58560, Note_on_c, 2, 59, 110
7, 58560, Note_on_c, 2, 61, 127
7, 58740, Note_on_c, 2, 63, 127
7, 58740, Note_on_c, 2, 63, 127
7, 58760, Note_on_c, 2, 61, 0
7, 58760, Note_on_c, 2, 61, 0
7, 58905, Note_on_c, 2, 54, 0
7, 58905, Note_on_c, 2, 54, 0
7, 58930, Note_on_c, 2, 47, 0
7, 58930, Note_on_c, 2, 59, 0
7, 58930, Note_on_c, 2, 47, 0
7, 58930, Note_on_c, 2, 59, 0
7, 58980, Note_on_c, 2, 61, 110
7, 58980, Note_on_c, 2, 56, 110
7, 58980, Note_on_c, 2, 52, 110
7, 58980, Note_on_c, 2, 64, 127
7, 58980, Note_on_c, 2, 61, 110
7, 58980, Note_on_c, 2, 56, 110
7, 58980, Note_on_c, 2, 52, 110
7, 58980, Note_on_c, 2, 64, 127
7, 58984, Note_on_c, 2, 63, 0
7, 58984, Note_on_c, 2, 63, 0
7, 59343, Note_on_c, 2, 61, 0
7, 59343, Note_on_c, 2, 61, 0
7, 59345, Note_on_c, 2, 56, 0
7, 59345, Note_on_c, 2, 56, 0
7, 59346, Note_on_c, 2, 52, 0
7, 59346, Note_on_c, 2, 52, 0
7, 59373, Note_on_c, 2, 64, 0
7, 59373, Note_on_c, 2, 64, 0
7, 59400, Note_on_c, 2, 64, 127
7, 59400, Note_on_c, 2, 64, 127
7, 59520, Note_on_c, 2, 71, 120
7, 59520, Note_on_c, 2, 54, 110
7, 59520, Note_on_c, 2, 51, 110
7, 59520, Note_on_c, 2, 63, 127
7, 59520, Note_on_c, 2, 71, 120
7, 59520, Note_on_c, 2, 54, 110
7, 59520, Note_on_c, 2, 51, 110
7, 59520, Note_on_c, 2, 63, 127
7, 59524, Note_on_c, 2, 64, 0
7, 59524, Note_on_c, 2, 64, 0
7, 59636, Note_on_c, 2, 71, 0
7, 59636, Note_on_c, 2, 71, 0
7, 59640, Note_on_c, 2, 70, 120
7, 59640, Note_on_c, 2, 61, 127
7, 59640, Note_on_c, 2, 70, 120
7, 59640, Note_on_c, 2, 61, 127
7, 59644, Note_on_c, 2, 63, 0
7, 59644, Note_on_c, 2, 63, 0
7, 59760, Note_on_c, 2, 68, 120
7, 59760, Note_on_c, 2, 59, 127
7, 59760, Note_on_c, 2, 68, 120
7, 59760, Note_on_c, 2, 59, 127
7, 59762, Note_on_c, 2, 70, 0
7, 59762, Note_on_c, 2, 70, 0
7, 59776, Note_on_c, 2, 61, 0
7, 59776, Note_on_c, 2, 61, 0
7, 59880, Note_on_c, 2, 66, 120
7, 59880, Note_on_c, 2, 58, 127
7, 59880, Note_on_c, 2, 66, 120
7, 59880, Note_on_c, 2, 58, 127
7, 59882, Note_on_c, 2, 54, 0
7, 59882, Note_on_c, 2, 54, 0
7, 59883, Note_on_c, 2, 51, 0
7, 59883, Note_on_c, 2, 51, 0
7, 59889, Note_on_c, 2, 59, 0
7, 59889, Note_on_c, 2, 59, 0
7, 59899, Note_on_c, 2, 68, 0
7, 59899, Note_on_c, 2, 68, 0
7, 60000, Note_on_c, 2, 58, 0
7, 60000, Note_on_c, 2, 58, 0
7, 60000, Note_on_c, 2, 65, 120
7, 60000, Note_on_c, 2, 61, 110
7, 60000, Note_on_c, 2, 49, 110
7, 60000, Note_on_c, 2, 56, 127
7, 60000, Note_on_c, 2, 65, 120
7, 60000, Note_on_c, 2, 61, 110
7, 60000, Note_on_c, 2, 49, 110
7, 60000, Note_on_c, 2, 56, 127
7, 60017, Note_on_c, 2, 66, 0
7, 60017, Note_on_c, 2, 66, 0
7, 60197, Note_on_c, 2, 65, 0
7, 60197, Note_on_c, 2, 65, 0
7, 60240, Note_on_c, 2, 63, 120
7, 60240, Note_on_c, 2, 54, 127
7, 60240, Note_on_c, 2, 63, 120
7, 60240, Note_on_c, 2, 54, 127
7, 60257, Note_on_c, 2, 56, 0
7, 60257, Note_on_c, 2, 56, 0
7, 60353, Note_on_c, 2, 61, 0
7, 60353, Note_on_c, 2, 61, 0
7, 60355, Note_on_c, 2, 63, 0
7, 60355, Note_on_c, 2, 63, 0
7, 60360, Note_on_c, 2, 65, 120
7, 60360, Note_on_c, 2, 56, 127
7, 60360, Note_on_c, 2, 65, 120
7, 60360, Note_on_c, 2, 56, 127
7, 60364, Note_on_c, 2, 49, 0
7, 60364, Note_on_c, 2, 49, 0
7, 60368, Note_on_c, 2, 54, 0
7, 60368, Note_on_c, 2, 54, 0
7, 60453, Note_on_c, 2, 65, 0
7, 60453, Note_on_c, 2, 65, 0
7, 60459, Note_on_c, 2, 56, 0
7, 60459, Note_on_c, 2, 56, 0
7, 60480, Note_on_c, 2, 65, 120
7, 60480, Note_on_c, 2, 49, 110
7, 60480, Note_on_c, 2, 61, 110
7, 60480, Note_on_c, 2, 54, 110
7, 60480, Note_on_c, 2, 56, 127
7, 60480, Note_on_c, 2, 65, 120
7, 60480, Note_on_c, 2, 49, 110
7, 60480, Note_on_c, 2, 61, 110
7, 60480, Note_on_c, 2, 54, 110
7, 60480, Note_on_c, 2, 56, 127
7, 60660, Note_on_c, 2, 66, 120
7, 60660, Note_on_c, 2, 58, 127
7, 60660, Note_on_c, 2, 66, 120
7, 60660, Note_on_c, 2, 58, 127
7, 60666, Note_on_c, 2, 65, 0
7, 60666, Note_on_c, 2, 65, 0
7, 60671, Note_on_c, 2, 56, 0
7, 60671, Note_on_c, 2, 56, 0
7, 60779, Note_on_c, 2, 61, 0
7, 60779, Note_on_c, 2, 61, 0
7, 60781, Note_on_c, 2, 49, 0
7, 60781, Note_on_c, 2, 54, 0
7, 60781, Note_on_c, 2, 54, 0
7, 60781, Note_on_c, 2, 49, 0
7, 60886, Note_on_c, 2, 66, 0
7, 60886, Note_on_c, 2, 66, 0
7, 60900, Note_on_c, 2, 66, 127
7, 60900, Note_on_c, 2, 68, 120
7, 60900, Note_on_c, 2, 51, 110
7, 60900, Note_on_c, 2, 47, 110
7, 60900, Note_on_c, 2, 59, 127
7, 60900, Note_on_c, 2, 66, 127
7, 60900, Note_on_c, 2, 68, 120
7, 60900, Note_on_c, 2, 51, 110
7, 60900, Note_on_c, 2, 47, 110
7, 60900, Note_on_c, 2, 59, 127
7, 60910, Note_on_c, 2, 58, 0
7, 60910, Note_on_c, 2, 58, 0
7, 61258, Note_on_c, 2, 68, 0
7, 61258, Note_on_c, 2, 68, 0
7, 61266, Note_on_c, 2, 66, 0
7, 61266, Note_on_c, 2, 66, 0
7, 61270, Note_on_c, 2, 54, 120
7, 61270, Note_on_c, 2, 54, 120
7, 61299, Note_on_c, 2, 51, 0
7, 61299, Note_on_c, 2, 51, 0
7, 61300, Note_on_c, 2, 47, 0
7, 61300, Note_on_c, 2, 47, 0
7, 61361, Note_on_c, 2, 54, 0
7, 61361, Note_on_c, 2, 54, 0
7, 61365, Note_on_c, 2, 59, 120
7, 61365, Note_on_c, 2, 59, 120
7, 61387, Note_on_c, 2, 59, 0
7, 61387, Note_on_c, 2, 59, 0
7, 61440, Note_on_c, 2, 65, 120
7, 61440, Note_on_c, 2, 49, 110
7, 61440, Note_on_c, 2, 56, 110
7, 61440, Note_on_c, 2, 61, 127
7, 61440, Note_on_c, 2, 65, 120
7, 61440, Note_on_c, 2, 49, 110
7, 61440, Note_on_c, 2, 56, 110
7, 61440, Note_on_c, 2, 61, 127
7, 61474, Note_on_c, 2, 59, 0
7, 61474, Note_on_c, 2, 59, 0
7, 61722, Note_on_c, 2, 65, 0
7, 61722, Note_on_c, 2, 65, 0
7, 61740, Note_on_c, 2, 66, 120
7, 61740, Note_on_c, 2, 63, 127
7, 61740, Note_on_c, 2, 66, 120
7, 61740, Note_on_c, 2, 63, 127
7, 61812, Note_on_c, 2, 61, 0
7, 61812, Note_on_c, 2, 61, 0
7, 61816, Note_on_c, 2, 49, 0
7, 61816, Note_on_c, 2, 49, 0
7, 61819, Note_on_c, 2, 56, 0
7, 61819, Note_on_c, 2, 56, 0
7, 61839, Note_on_c, 2, 66, 0
7, 61839, Note_on_c, 2, 66, 0
7, 61860, Note_on_c, 2, 68, 120
7, 61860, Note_on_c, 2, 65, 127
7, 61860, Note_on_c, 2, 68, 120
7, 61860, Note_on_c, 2, 65, 127
7, 61865, Note_on_c, 2, 63, 0
7, 61865, Note_on_c, 2, 63, 0
7, 61920, Note_on_c, 2, 56, 110
7, 61920, Note_on_c, 2, 49, 110
7, 61920, Note_on_c, 2, 61, 110
7, 61920, Note_on_c, 2, 56, 110
7, 61920, Note_on_c, 2, 49, 110
7, 61920, Note_on_c, 2, 61, 110
7, 62107, Note_on_c, 2, 68, 0
7, 62107, Note_on_c, 2, 68, 0
7, 62299, Note_on_c, 2, 61, 0
7, 62299, Note_on_c, 2, 61, 0
7, 62301, Note_on_c, 2, 56, 0
7, 62301, Note_on_c, 2, 56, 0
7, 62303, Note_on_c, 2, 49, 0
7, 62303, Note_on_c, 2, 49, 0
7, 62304, Note_on_c, 2, 65, 0
7, 62304, Note_on_c, 2, 65, 0
7, 62400, Note_on_c, 2, 54, 110
7, 62400, Note_on_c, 2, 47, 110
7, 62400, Note_on_c, 2, 59, 110
7, 62400, Note_on_c, 2, 61, 127
7, 62400, Note_on_c, 2, 54, 110
7, 62400, Note_on_c, 2, 47, 110
7, 62400, Note_on_c, 2, 59, 110
7, 62400, Note_on_c, 2, 61, 127
7, 62580, Note_on_c, 2, 63, 127
7, 62580, Note_on_c, 2, 63, 127
7, 62600, Note_on_c, 2, 61, 0
7, 62600, Note_on_c, 2, 61, 0
7, 62745, Note_on_c, 2, 54, 0
7, 62745, Note_on_c, 2, 54, 0
7, 62770, Note_on_c, 2, 47, 0
7, 62770, Note_on_c, 2, 59, 0
7, 62770, Note_on_c, 2, 47, 0
7, 62770, Note_on_c, 2, 59, 0
7, 62820, Note_on_c, 2, 61, 110
7, 62820, Note_on_c, 2, 56, 110
7, 62820, Note_on_c, 2, 52, 110
7, 62820, Note_on_c, 2, 64, 127
7, 62820, Note_on_c, 2, 61, 110
7, 62820, Note_on_c, 2, 56, 110
7, 62820, Note_on_c, 2, 52, 110
7, 62820, Note_on_c, 2, 64, 127
7, 62824, Note_on_c, 2, 63, 0
7, 62824, Note_on_c, 2, 63, 0
7, 63183, Note_on_c, 2, 61, 0
7, 63183, Note_on_c, 2, 61, 0
7, 63185, Note_on_c, 2, 56, 0
7, 63185, Note_on_c, 2, 56, 0
7, 63186, Note_on_c, 2, 52, 0
7, 63186, Note_on_c, 2, 52, 0
7, 63213, Note_on_c, 2, 64, 0
7, 63213, Note_on_c, 2, 64, 0
7, 63240, Note_on_c, 2, 64, 127
7, 63240, Note_on_c, 2, 64, 127
7, 63360, Note_on_c, 2, 54, 110
7, 63360, Note_on_c, 2, 51, 110
7, 63360, Note_on_c, 2, 63, 127
7, 63360, Note_on_c, 2, 54, 110
7, 63360, Note_on_c, 2, 51, 110
7, 63360, Note_on_c, 2, 63, 127
7, 63364, Note_on_c, 2, 64, 0
7, 63364, Note_on_c, 2, 64, 0
7, 63480, Note_on_c, 2, 61, 127
7, 63480, Note_on_c, 2, 61, 127
7, 63484, Note_on_c, 2, 63, 0
7, 63484, Note_on_c, 2, 63, 0
7, 63600, Note_on_c, 2, 59, 127
7, 63600, Note_on_c, 2, 59, 127
7, 63616, Note_on_c, 2, 61, 0
7, 63616, Note_on_c, 2, 61, 0
7, 63720, Note_on_c, 2, 58, 127
7, 63720, Note_on_c, 2, 58, 127
7, 63722, Note_on_c, 2, 54, 0
7, 63722, Note_on_c, 2, 54, 0
7, 63723, Note_on_c, 2, 51, 0
7, 63723, Note_on_c, 2, 51, 0
7, 63729, Note_on_c, 2, 59, 0
7, 63729, Note_on_c, 2, 59, 0
7, 63840, Note_on_c, 2, 58, 0
7, 63840, Note_on_c, 2, 58, 0
7, 63840, Note_on_c, 2, 61, 110
7, 63840, Note_on_c, 2, 49, 110
7, 63840, Note_on_c, 2, 56, 127
7, 63840, Note_on_c, 2, 61, 110
7, 63840, Note_on_c, 2, 49, 110
7, 63840, Note_on_c, 2, 56, 127
7, 64080, Note_on_c, 2, 54, 127
7, 64080, Note_on_c, 2, 54, 127
7, 64097, Note_on_c, 2, 56, 0
7, 64097, Note_on_c, 2, 56, 0
7, 64193, Note_on_c, 2, 61, 0
7, 64193, Note_on_c, 2, 61, 0
7, 64200, Note_on_c, 2, 56, 127
7, 64200, Note_on_c, 2, 56, 127
7, 64204, Note_on_c, 2, 49, 0
7, 64204, Note_on_c, 2, 49, 0
7, 64208, Note_on_c, 2, 54, 0
7, 64208, Note_on_c, 2, 54, 0
7, 64299, Note_on_c, 2, 56, 0
7, 64299, Note_on_c, 2, 56, 0
7, 64320, Note_on_c, 2, 49, 110
7, 64320, Note_on_c, 2, 61, 110
7, 64320, Note_on_c, 2, 54, 110
7, 64320, Note_on_c, 2, 56, 127
7, 64320, Note_on_c, 2, 49, 110
7, 64320, Note_on_c, 2, 61, 110
7, 64320, Note_on_c, 2, 54, 110
7, 64320, Note_on_c, 2, 56, 127
7, 64500, Note_on_c, 2, 58, 127
7, 64500, Note_on_c, 2, 58, 127
7, 64511, Note_on_c, 2, 56, 0
7, 64511, Note_on_c, 2, 56, 0
7, 64619, Note_on_c, 2, 61, 0
7, 64619, Note_on_c, 2, 61, 0
7, 64621, Note_on_c, 2, 54, 0
7, 64621, Note_on_c, 2, 49, 0
7, 64621, Note_on_c, 2, 49, 0
7, 64621, Note_on_c, 2, 54, 0
7, 64740, Note_on_c, 2, 51, 110
7, 64740, Note_on_c, 2, 47, 110
7, 64740, Note_on_c, 2, 59, 127
7, 64740, Note_on_c, 2, 51, 110
7, 64740, Note_on_c, 2, 47, 110
7, 64740, Note_on_c, 2, 59, 127
7, 64750, Note_on_c, 2, 58, 0
7, 64750, Note_on_c, 2, 58, 0
7, 65110, Note_on_c, 2, 54, 120
7, 65110, Note_on_c, 2, 54, 120
7, 65139, Note_on_c, 2, 51, 0
7, 65139, Note_on_c, 2, 51, 0
7, 65140, Note_on_c, 2, 47, 0
7, 65140, Note_on_c, 2, 47, 0
7, 65201, Note_on_c, 2, 54, 0
7, 65201, Note_on_c, 2, 54, 0
7, 65205, Note_on_c, 2, 59, 120
7, 65205, Note_on_c, 2, 59, 120
7, 65227, Note_on_c, 2, 59, 0
7, 65227, Note_on_c, 2, 59, 0
7, 65280, Note_on_c, 2, 49, 110
7, 65280, Note_on_c, 2, 56, 110
7, 65280, Note_on_c, 2, 61, 127
7, 65280, Note_on_c, 2, 49, 110
7, 65280, Note_on_c, 2, 56, 110
7, 65280, Note_on_c, 2, 61, 127
7, 65314, Note_on_c, 2, 59, 0
7, 65314, Note_on_c, 2, 59, 0
7, 65580, Note_on_c, 2, 63, 127
7, 65580, Note_on_c, 2, 63, 127
7, 65652, Note_on_c, 2, 61, 0
7, 65652, Note_on_c, 2, 61, 0
7, 65656, Note_on_c, 2, 49, 0
7, 65656, Note_on_c, 2, 49, 0
7, 65659, Note_on_c, 2, 56, 0
7, 65659, Note_on_c, 2, 56, 0
7, 65700, Note_on_c, 2, 65, 127
7, 65700, Note_on_c, 2, 65, 127
7, 65705, Note_on_c, 2, 63, 0
7, 65705, Note_on_c, 2, 63, 0
7, 65760, Note_on_c, 2, 56, 110
7, 65760, Note_on_c, 2, 49, 110
7, 65760, Note_on_c, 2, 61, 110
7, 65760, Note_on_c, 2, 56, 110
7, 65760, Note_on_c, 2, 49, 110
7, 65760, Note_on_c, 2, 61, 110
7, 66139, Note_on_c, 2, 61, 0
7, 66139, Note_on_c, 2, 61, 0
7, 66141, Note_on_c, 2, 56, 0
7, 66141, Note_on_c, 2, 56, 0
7, 66143, Note_on_c, 2, 49, 0
7, 66143, Note_on_c, 2, 49, 0
7, 66144, Note_on_c, 2, 65, 0
7, 66144, Note_on_c, 2, 65, 0
7, 66240, Control_c, 2, 7, 91
7, 66240, Note_on_c, 2, 54, 120
7, 66240, Note_on_c, 2, 47, 120
7, 66240, Note_on_c, 2, 59, 120
7, 66240, Note_on_c, 2, 61, 120
7, 66240, Note_on_c, 2, 54, 120
7, 66240, Note_on_c, 2, 47, 120
7, 66240, Note_on_c, 2, 59, 120
7, 66240, Note_on_c, 2, 61, 120
7, 66250, Control_c, 2, 7, 90
7, 66290, Control_c, 2, 7, 89
7, 66330, Control_c, 2, 7, 88
7, 66370, Control_c, 2, 7, 87
7, 66420, Control_c, 2, 7, 86
7, 66420, Note_on_c, 2, 63, 115
7, 66420, Note_on_c, 2, 63, 115
7, 66440, Note_on_c, 2, 61, 0
7, 66440, Note_on_c, 2, 61, 0
7, 66460, Control_c, 2, 7, 85
7, 66500, Control_c, 2, 7, 84
7, 66540, Control_c, 2, 7, 83
7, 66585, Note_on_c, 2, 54, 0
7, 66585, Note_on_c, 2, 54, 0
7, 66590, Control_c, 2, 7, 82
7, 66610, Note_on_c, 2, 47, 0
7, 66610, Note_on_c, 2, 59, 0
7, 66610, Note_on_c, 2, 47, 0
7, 66610, Note_on_c, 2, 59, 0
7, 66630, Control_c, 2, 7, 81
7, 66660, Note_on_c, 2, 61, 108
7, 66660, Note_on_c, 2, 56, 108
7, 66660, Note_on_c, 2, 52, 108
7, 66660, Note_on_c, 2, 64, 108
7, 66660, Note_on_c, 2, 61, 108
7, 66660, Note_on_c, 2, 56, 108
7, 66660, Note_on_c, 2, 52, 108
7, 66660, Note_on_c, 2, 64, 108
7, 66664, Note_on_c, 2, 63, 0
7, 66664, Note_on_c, 2, 63, 0
7, 66670, Control_c, 2, 7, 80
7, 66710, Control_c, 2, 7, 79
7, 66760, Control_c, 2, 7, 78
7, 66800, Control_c, 2, 7, 77
7, 66840, Control_c, 2, 7, 76
7, 66890, Control_c, 2, 7, 75
7, 66930, Control_c, 2, 7, 74
7, 66970, Control_c, 2, 7, 73
7, 67010, Control_c, 2, 7, 72
7, 67023, Note_on_c, 2, 61, 0
7, 67023, Note_on_c, 2, 61, 0
7, 67025, Note_on_c, 2, 56, 0
7, 67025, Note_on_c, 2, 56, 0
7, 67026, Note_on_c, 2, 52, 0
7, 67026, Note_on_c, 2, 52, 0
7, 67053, Note_on_c, 2, 64, 0
7, 67053, Note_on_c, 2, 64, 0
7, 67060, Control_c, 2, 7, 71
7, 67080, Note_on_c, 2, 64, 96
7, 67080, Note_on_c, 2, 64, 96
7, 67100, Control_c, 2, 7, 70
7, 67140, Control_c, 2, 7, 69
7, 67180, Control_c, 2, 7, 68
7, 67200, Note_on_c, 2, 71, 92
7, 67200, Note_on_c, 2, 54, 92
7, 67200, Note_on_c, 2, 51, 92
7, 67200, Note_on_c, 2, 63, 92
7, 67200, Note_on_c, 2, 71, 92
7, 67200, Note_on_c, 2, 54, 92
7, 67200, Note_on_c, 2, 51, 92
7, 67200, Note_on_c, 2, 63, 92
7, 67204, Note_on_c, 2, 64, 0
7, 67204, Note_on_c, 2, 64, 0
7, 67230, Control_c, 2, 7, 67
7, 67270, Control_c, 2, 7, 66
7, 67310, Control_c, 2, 7, 65
7, 67316, Note_on_c, 2, 71, 0
7, 67316, Note_on_c, 2, 71, 0
7, 67320, Note_on_c, 2, 70, 89
7, 67320, Note_on_c, 2, 61, 89
7, 67320, Note_on_c, 2, 70, 89
7, 67320, Note_on_c, 2, 61, 89
7, 67324, Note_on_c, 2, 63, 0
7, 67324, Note_on_c, 2, 63, 0
7, 67350, Control_c, 2, 7, 64
7, 67400, Control_c, 2, 7, 63
7, 67440, Control_c, 2, 7, 62
7, 67440, Note_on_c, 2, 68, 85
7, 67440, Note_on_c, 2, 59, 85
7, 67440, Note_on_c, 2, 68, 85
7, 67440, Note_on_c, 2, 59, 85
7, 67442, Note_on_c, 2, 70, 0
7, 67442, Note_on_c, 2, 70, 0
7, 67456, Note_on_c, 2, 61, 0
7, 67456, Note_on_c, 2, 61, 0
7, 67480, Control_c, 2, 7, 61
7, 67530, Control_c, 2, 7, 60
7, 67560, Note_on_c, 2, 66, 82
7, 67560, Note_on_c, 2, 58, 82
7, 67560, Note_on_c, 2, 66, 82
7, 67560, Note_on_c, 2, 58, 82
7, 67562, Note_on_c, 2, 54, 0
7, 67562, Note_on_c, 2, 54, 0
7, 67563, Note_on_c, 2, 51, 0
7, 67563, Note_on_c, 2, 51, 0
7, 67569, Note_on_c, 2, 59, 0
7, 67569, Note_on_c, 2, 59, 0
7, 67570, Control_c, 2, 7, 59
7, 67579, Note_on_c, 2, 68, 0
7, 67579, Note_on_c, 2, 68, 0
7, 67610, Control_c, 2, 7, 58
7, 67650, Control_c, 2, 7, 57
7, 67680, Note_on_c, 2, 58, 0
7, 67680, Note_on_c, 2, 58, 0
7, 67680, Note_on_c, 2, 65, 78
7, 67680, Note_on_c, 2, 61, 78
7, 67680, Note_on_c, 2, 49, 78
7, 67680, Note_on_c, 2, 56, 78
7, 67680, Note_on_c, 2, 65, 78
7, 67680, Note_on_c, 2, 61, 78
7, 67680, Note_on_c, 2, 49, 78
7, 67680, Note_on_c, 2, 56, 78
7, 67697, Note_on_c, 2, 66, 0
7, 67697, Note_on_c, 2, 66, 0
7, 67700, Control_c, 2, 7, 56
7, 67740, Control_c, 2, 7, 55
7, 67780, Control_c, 2, 7, 54
7, 67820, Control_c, 2, 7, 53
7, 67870, Control_c, 2, 7, 52
7, 67877, Note_on_c, 2, 65, 0
7, 67877, Note_on_c, 2, 65, 0
7, 67910, Control_c, 2, 7, 51
7, 67920, Note_on_c, 2, 63, 71
7, 67920, Note_on_c, 2, 54, 71
7, 67920, Note_on_c, 2, 63, 71
7, 67920, Note_on_c, 2, 54, 71
7, 67937, Note_on_c, 2, 56, 0
7, 67937, Note_on_c, 2, 56, 0
7, 67950, Control_c, 2, 7, 50
7, 67990, Control_c, 2, 7, 49
7, 68033, Note_on_c, 2, 61, 0
7, 68033, Note_on_c, 2, 61, 0
7, 68035, Note_on_c, 2, 63, 0
7, 68035, Note_on_c, 2, 63, 0
7, 68040, Control_c, 2, 7, 48
7, 68040, Note_on_c, 2, 65, 68
7, 68040, Note_on_c, 2, 56, 68
7, 68040, Note_on_c, 2, 65, 68
7, 68040, Note_on_c, 2, 56, 68
7, 68044, Note_on_c, 2, 49, 0
7, 68044, Note_on_c, 2, 49, 0
7, 68048, Note_on_c, 2, 54, 0
7, 68048, Note_on_c, 2, 54, 0
7, 68080, Control_c, 2, 7, 47
7, 68120, Control_c, 2, 7, 46
7, 68133, Note_on_c, 2, 65, 0
7, 68133, Note_on_c, 2, 65, 0
7, 68139, Note_on_c, 2, 56, 0
7, 68139, Note_on_c, 2, 56, 0
7, 68160, Note_on_c, 2, 65, 64
7, 68160, Note_on_c, 2, 49, 64
7, 68160, Note_on_c, 2, 61, 64
7, 68160, Note_on_c, 2, 54, 64
7, 68160, Note_on_c, 2, 56, 64
7, 68160, Note_on_c, 2, 65, 64
7, 68160, Note_on_c, 2, 49, 64
7, 68160, Note_on_c, 2, 61, 64
7, 68160, Note_on_c, 2, 54, 64
7, 68160, Note_on_c, 2, 56, 64
7, 68170, Control_c, 2, 7, 45
7, 68210, Control_c, 2, 7, 44
7, 68250, Control_c, 2, 7, 43
7, 68290, Control_c, 2, 7, 42
7, 68340, Control_c, 2, 7, 41
7, 68340, Note_on_c, 2, 66, 59
7, 68340, Note_on_c, 2, 58, 59
7, 68340, Note_on_c, 2, 66, 59
7, 68340, Note_on_c, 2, 58, 59
7, 68346, Note_on_c, 2, 65, 0
7, 68346, Note_on_c, 2, 65, 0
7, 68351, Note_on_c, 2, 56, 0
7, 68351, Note_on_c, 2, 56, 0
7, 68380, Control_c, 2, 7, 40
7, 68420, Control_c, 2, 7, 39
7, 68459, Note_on_c, 2, 61, 0
7, 68459, Note_on_c, 2, 61, 0
7, 68460, Control_c, 2, 7, 38
7, 68461, Note_on_c, 2, 49, 0
7, 68461, Note_on_c, 2, 54, 0
7, 68461, Note_on_c, 2, 54, 0
7, 68461, Note_on_c, 2, 49, 0
7, 68510, Control_c, 2, 7, 37
7, 68550, Control_c, 2, 7, 36
7, 68566, Note_on_c, 2, 66, 0
7, 68566, Note_on_c, 2, 66, 0
7, 68580, Note_on_c, 2, 66, 52
7, 68580, Note_on_c, 2, 68, 52
7, 68580, Note_on_c, 2, 51, 52
7, 68580, Note_on_c, 2, 47, 52
7, 68580, Note_on_c, 2, 59, 52
7, 68580, Note_on_c, 2, 66, 52
7, 68580, Note_on_c, 2, 68, 52
7, 68580, Note_on_c, 2, 51, 52
7, 68580, Note_on_c, 2, 47, 52
7, 68580, Note_on_c, 2, 59, 52
7, 68590, Note_on_c, 2, 58, 0
7, 68590, Note_on_c, 2, 58, 0
7, 68590, Control_c, 2, 7, 35
7, 68630, Control_c, 2, 7, 34
7, 68680, Control_c, 2, 7, 33
7, 68720, Control_c, 2, 7, 32
7, 68760, Control_c, 2, 7, 31
7, 68810, Control_c, 2, 7, 30
7, 68850, Control_c, 2, 7, 29
7, 68890, Control_c, 2, 7, 28
7, 68930, Control_c, 2, 7, 27
7, 68938, Note_on_c, 2, 68, 0
7, 68938, Note_on_c, 2, 68, 0
7, 68946, Note_on_c, 2, 66, 0
7, 68946, Note_on_c, 2, 66, 0
7, 68950, Note_on_c, 2, 54, 41
7, 68950, Note_on_c, 2, 54, 41
7, 68979, Note_on_c, 2, 51, 0
7, 68979, Note_on_c, 2, 51, 0
7, 68980, Note_on_c, 2, 47, 0
7, 68980, Note_on_c, 2, 47, 0
7, 68980, Control_c, 2, 7, 26
7, 69020, Control_c, 2, 7, 25
7, 69041, Note_on_c, 2, 54, 0
7, 69041, Note_on_c, 2, 54, 0
7, 69045, Note_on_c, 2, 59, 38
7, 69045, Note_on_c, 2, 59, 38
7, 69060, Control_c, 2, 7, 24
7, 69067, Note_on_c, 2, 59, 0
7, 69067, Note_on_c, 2, 59, 0
7, 69100, Control_c, 2, 7, 23
7, 69120, Note_on_c, 2, 65, 36
7, 69120, Note_on_c, 2, 49, 36
7, 69120, Note_on_c, 2, 56, 36
7, 69120, Note_on_c, 2, 61, 36
7, 69120, Note_on_c, 2, 65, 36
7, 69120, Note_on_c, 2, 49, 36
7, 69120, Note_on_c, 2, 56, 36
7, 69120, Note_on_c, 2, 61, 36
7, 69150, Control_c, 2, 7, 22
7, 69154, Note_on_c, 2, 59, 0
7, 69154, Note_on_c, 2, 59, 0
7, 69190, Control_c, 2, 7, 21
7, 69230, Control_c, 2, 7, 20
7, 69270, Control_c, 2, 7, 19
7, 69320, Control_c, 2, 7, 18
7, 69360, Control_c, 2, 7, 17
7, 69400, Control_c, 2, 7, 16
7, 69402, Note_on_c, 2, 65, 0
7, 69402, Note_on_c, 2, 65, 0
7, 69420, Note_on_c, 2, 66, 27
7, 69420, Note_on_c, 2, 63, 27
7, 69420, Note_on_c, 2, 66, 27
7, 69420, Note_on_c, 2, 63, 27
7, 69450, Control_c, 2, 7, 15
7, 69490, Control_c, 2, 7, 14
7, 69492, Note_on_c, 2, 61, 0
7, 69492, Note_on_c, 2, 61, 0
7, 69496, Note_on_c, 2, 49, 0
7, 69496, Note_on_c, 2, 49, 0
7, 69499, Note_on_c, 2, 56, 0
7, 69499, Note_on_c, 2, 56, 0
7, 69519, Note_on_c, 2, 66, 0
7, 69519, Note_on_c, 2, 66, 0
7, 69530, Control_c, 2, 7, 13
7, 69540, Note_on_c, 2, 68, 23
7, 69540, Note_on_c, 2, 65, 23
7, 69540, Note_on_c, 2, 68, 23
7, 69540, Note_on_c, 2, 65, 23
7, 69545, Note_on_c, 2, 63, 0
7, 69545, Note_on_c, 2, 63, 0
7, 69570, Control_c, 2, 7, 12
7, 69600, Note_on_c, 2, 56, 22
7, 69600, Note_on_c, 2, 49, 22
7, 69600, Note_on_c, 2, 61, 22
7, 69600, Note_on_c, 2, 56, 22
7, 69600, Note_on_c, 2, 49, 22
7, 69600, Note_on_c, 2, 61, 22
7, 69620, Control_c, 2, 7, 11
7, 69660, Control_c, 2, 7, 10
7, 69700, Control_c, 2, 7, 9
7, 69740, Control_c, 2, 7, 8
7, 69787, Note_on_c, 2, 68, 0
7, 69787, Note_on_c, 2, 68, 0
7, 69790, Control_c, 2, 7, 7
7, 69830, Control_c, 2, 7, 6
7, 69870, Control_c, 2, 7, 5
7, 69910, Control_c, 2, 7, 4
7, 69960, Control_c, 2, 7, 3
7, 69979, Note_on_c, 2, 61, 0
7, 69979, Note_on_c, 2, 61, 0
7, 69981, Note_on_c, 2, 56, 0
7, 69981, Note_on_c, 2, 56, 0
7, 69983, Note_on_c, 2, 49, 0
7, 69983, Note_on_c, 2, 49, 0
7, 69984, Note_on_c, 2, 65, 0
7, 69984, Note_on_c, 2, 65, 0
7, 70000, Control_c, 2, 7, 2
7, 70040, Control_c, 2, 7, 1
7, 70040, End_track
8, 0, Start_track
8, 0, MIDI_port, 0
8, 0, Title_t, "Voice Oohs"
8, 0, Control_c, 3, 0, 56
8, 0, Control_c, 3, 32, 0
8, 0, Program_c, 3, 53
8, 0, Control_c, 3, 7, 115
8, 0, Control_c, 3, 10, 64
8, 4320, Note_on_c, 3, 66, 117
8, 4499, Note_on_c, 3, 66, 0
8, 4500, Note_on_c, 3, 71, 117
8, 4740, Note_on_c, 3, 69, 118
8, 4740, Note_on_c, 3, 73, 103
8, 4741, Note_on_c, 3, 71, 0
8, 5125, Note_on_c, 3, 69, 0
8, 5132, Note_on_c, 3, 73, 0
8, 5160, Note_on_c, 3, 69, 117
8, 5160, Note_on_c, 3, 73, 113
8, 5273, Note_on_c, 3, 69, 0
8, 5274, Note_on_c, 3, 73, 0
8, 5280, Note_on_c, 3, 68, 102
8, 5280, Note_on_c, 3, 71, 120
8, 5400, Note_on_c, 3, 70, 117
8, 5410, Note_on_c, 3, 68, 0
8, 5412, Note_on_c, 3, 71, 0
8, 5520, Note_on_c, 3, 68, 117
8, 5529, Note_on_c, 3, 70, 0
8, 5640, Note_on_c, 3, 66, 115
8, 5643, Note_on_c, 3, 68, 0
8, 5760, Note_on_c, 3, 61, 117
8, 5760, Note_on_c, 3, 65, 118
8, 5770, Note_on_c, 3, 66, 0
8, 5981, Note_on_c, 3, 61, 0
8, 5982, Note_on_c, 3, 65, 0
8, 6000, Note_on_c, 3, 59, 118
8, 6000, Note_on_c, 3, 63, 117
8, 6120, Note_on_c, 3, 61, 103
8, 6120, Note_on_c, 3, 65, 110
8, 6126, Note_on_c, 3, 59, 0
8, 6128, Note_on_c, 3, 63, 0
8, 6222, Note_on_c, 3, 61, 0
8, 6222, Note_on_c, 3, 65, 0
8, 6240, Note_on_c, 3, 65, 117
8, 6240, Note_on_c, 3, 61, 115
8, 6418, Note_on_c, 3, 61, 0
8, 6420, Note_on_c, 3, 65, 0
8, 6420, Note_on_c, 3, 58, 115
8, 6420, Note_on_c, 3, 66, 115
8, 6597, Note_on_c, 3, 66, 0
8, 6600, Note_on_c, 3, 61, 115
8, 6644, Note_on_c, 3, 58, 0
8, 6660, Note_on_c, 3, 59, 115
8, 6660, Note_on_c, 3, 63, 110
8, 6662, Note_on_c, 3, 61, 0
8, 6840, Note_on_c, 3, 58, 113
8, 6840, Note_on_c, 3, 61, 110
8, 6843, Note_on_c, 3, 59, 0
8, 6850, Note_on_c, 3, 63, 0
8, 6899, Note_on_c, 3, 58, 0
8, 6900, Note_on_c, 3, 61, 0
8, 6900, Note_on_c, 3, 59, 110
8, 6900, Note_on_c, 3, 56, 102
8, 7020, Note_on_c, 3, 63, 106
8, 7020, Note_on_c, 3, 66, 115
8, 7021, Note_on_c, 3, 59, 0
8, 7034, Note_on_c, 3, 56, 0
8, 7140, Note_on_c, 3, 61, 115
8, 7140, Note_on_c, 3, 65, 115
8, 7147, Note_on_c, 3, 63, 0
8, 7154, Note_on_c, 3, 66, 0
8, 7492, Note_on_c, 3, 61, 0
8, 7495, Note_on_c, 3, 65, 0
8, 7500, Note_on_c, 3, 63, 102
8, 7620, Note_on_c, 3, 61, 102
8, 7620, Note_on_c, 3, 65, 98
8, 7630, Note_on_c, 3, 63, 0
8, 7820, Note_on_c, 3, 65, 0
8, 7820, Note_on_c, 3, 61, 0
8, 62400, Note_on_c, 3, 66, 117
8, 62579, Note_on_c, 3, 66, 0
8, 62580, Note_on_c, 3, 71, 117
8, 62820, Note_on_c, 3, 69, 118
8, 62820, Note_on_c, 3, 73, 103
8, 62821, Note_on_c, 3, 71, 0
8, 63205, Note_on_c, 3, 69, 0
8, 63212, Note_on_c, 3, 73, 0
8, 63240, Note_on_c, 3, 69, 117
8, 63240, Note_on_c, 3, 73, 113
8, 63353, Note_on_c, 3, 69, 0
8, 63354, Note_on_c, 3, 73, 0
8, 63360, Note_on_c, 3, 68, 102
8, 63360, Note_on_c, 3, 71, 120
8, 63480, Note_on_c, 3, 70, 117
8, 63490, Note_on_c, 3, 68, 0
8, 63492, Note_on_c, 3, 71, 0
8, 63600, Note_on_c, 3, 68, 117
8, 63609, Note_on_c, 3, 70, 0
8, 63720, Note_on_c, 3, 66, 115
8, 63723, Note_on_c, 3, 68, 0
8, 63840, Note_on_c, 3, 61, 117
8, 63840, Note_on_c, 3, 65, 118
8, 63850, Note_on_c, 3, 66, 0
8, 64061, Note_on_c, 3, 61, 0
8, 64062, Note_on_c, 3, 65, 0
8, 64080, Note_on_c, 3, 59, 118
8, 64080, Note_on_c, 3, 63, 117
8, 64200, Note_on_c, 3, 61, 103
8, 64200, Note_on_c, 3, 65, 110
8, 64206, Note_on_c, 3, 59, 0
8, 64208, Note_on_c, 3, 63, 0
8, 64302, Note_on_c, 3, 61, 0
8, 64302, Note_on_c, 3, 65, 0
8, 64320, Note_on_c, 3, 65, 117
8, 64320, Note_on_c, 3, 61, 115
8, 64498, Note_on_c, 3, 61, 0
8, 64500, Note_on_c, 3, 65, 0
8, 64500, Note_on_c, 3, 58, 115
8, 64500, Note_on_c, 3, 66, 115
8, 64677, Note_on_c, 3, 66, 0
8, 64680, Note_on_c, 3, 61, 115
8, 64724, Note_on_c, 3, 58, 0
8, 64740, Note_on_c, 3, 59, 115
8, 64740, Note_on_c, 3, 63, 110
8, 64742, Note_on_c, 3, 61, 0
8, 64920, Note_on_c, 3, 58, 113
8, 64920, Note_on_c, 3, 61, 110
8, 64923, Note_on_c, 3, 59, 0
8, 64930, Note_on_c, 3, 63, 0
8, 64979, Note_on_c, 3, 58, 0
8, 64980, Note_on_c, 3, 61, 0
8, 64980, Note_on_c, 3, 59, 110
8, 64980, Note_on_c, 3, 56, 102
8, 65100, Note_on_c, 3, 63, 106
8, 65100, Note_on_c, 3, 66, 115
8, 65101, Note_on_c, 3, 59, 0
8, 65114, Note_on_c, 3, 56, 0
8, 65220, Note_on_c, 3, 61, 115
8, 65220, Note_on_c, 3, 65, 115
8, 65227, Note_on_c, 3, 63, 0
8, 65234, Note_on_c, 3, 66, 0
8, 65572, Note_on_c, 3, 61, 0
8, 65575, Note_on_c, 3, 65, 0
8, 65580, Note_on_c, 3, 63, 102
8, 65700, Note_on_c, 3, 61, 102
8, 65700, Note_on_c, 3, 65, 98
8, 65710, Note_on_c, 3, 63, 0
8, 65900, Note_on_c, 3, 65, 0
8, 65900, Note_on_c, 3, 61, 0
8, 66240, Control_c, 3, 7, 114
8, 66240, Note_on_c, 3, 66, 110
8, 66250, Control_c, 3, 7, 113
8, 66280, Control_c, 3, 7, 112
8, 66310, Control_c, 3, 7, 111
8, 66350, Control_c, 3, 7, 110
8, 66380, Control_c, 3, 7, 109
8, 66410, Control_c, 3, 7, 108
8, 66419, Note_on_c, 3, 66, 0
8, 66420, Note_on_c, 3, 71, 106
8, 66450, Control_c, 3, 7, 107
8, 66480, Control_c, 3, 7, 106
8, 66520, Control_c, 3, 7, 105
8, 66550, Control_c, 3, 7, 104
8, 66580, Control_c, 3, 7, 103
8, 66620, Control_c, 3, 7, 102
8, 66650, Control_c, 3, 7, 101
8, 66660, Note_on_c, 3, 69, 99
8, 66660, Note_on_c, 3, 73, 99
8, 66661, Note_on_c, 3, 71, 0
8, 66690, Control_c, 3, 7, 100
8, 66720, Control_c, 3, 7, 99
8, 66750, Control_c, 3, 7, 98
8, 66790, Control_c, 3, 7, 97
8, 66820, Control_c, 3, 7, 96
8, 66860, Control_c, 3, 7, 95
8, 66890, Control_c, 3, 7, 94
8, 66920, Control_c, 3, 7, 93
8, 66960, Control_c, 3, 7, 92
8, 66990, Control_c, 3, 7, 91
8, 67030, Control_c, 3, 7, 90
8, 67045, Note_on_c, 3, 69, 0
8, 67052, Note_on_c, 3, 73, 0
8, 67060, Control_c, 3, 7, 89
8, 67080, Note_on_c, 3, 69, 88
8, 67080, Note_on_c, 3, 73, 88
8, 67090, Control_c, 3, 7, 88
8, 67130, Control_c, 3, 7, 87
8, 67160, Control_c, 3, 7, 86
8, 67193, Note_on_c, 3, 69, 0
8, 67194, Note_on_c, 3, 73, 0
8, 67200, Control_c, 3, 7, 85
8, 67200, Note_on_c, 3, 68, 85
8, 67200, Note_on_c, 3, 71, 85
8, 67230, Control_c, 3, 7, 84
8, 67260, Control_c, 3, 7, 83
8, 67300, Control_c, 3, 7, 82
8, 67320, Note_on_c, 3, 70, 81
8, 67330, Note_on_c, 3, 68, 0
8, 67330, Control_c, 3, 7, 81
8, 67332, Note_on_c, 3, 71, 0
8, 67370, Control_c, 3, 7, 80
8, 67400, Control_c, 3, 7, 79
8, 67430, Control_c, 3, 7, 78
8, 67440, Note_on_c, 3, 68, 78
8, 67449, Note_on_c, 3, 70, 0
8, 67470, Control_c, 3, 7, 77
8, 67500, Control_c, 3, 7, 76
8, 67540, Control_c, 3, 7, 75
8, 67560, Note_on_c, 3, 66, 75
8, 67563, Note_on_c, 3, 68, 0
8, 67570, Control_c, 3, 7, 74
8, 67600, Control_c, 3, 7, 73
8, 67640, Control_c, 3, 7, 72
8, 67670, Control_c, 3, 7, 71
8, 67680, Note_on_c, 3, 61, 72
8, 67680, Note_on_c, 3, 65, 72
8, 67690, Note_on_c, 3, 66, 0
8, 67710, Control_c, 3, 7, 70
8, 67740, Control_c, 3, 7, 69
8, 67770, Control_c, 3, 7, 68
8, 67810, Control_c, 3, 7, 67
8, 67840, Control_c, 3, 7, 66
8, 67880, Control_c, 3, 7, 65
8, 67901, Note_on_c, 3, 61, 0
8, 67902, Note_on_c, 3, 65, 0
8, 67910, Control_c, 3, 7, 64
8, 67920, Note_on_c, 3, 59, 65
8, 67920, Note_on_c, 3, 63, 65
8, 67940, Control_c, 3, 7, 63
8, 67980, Control_c, 3, 7, 62
8, 68010, Control_c, 3, 7, 61
8, 68040, Note_on_c, 3, 61, 62
8, 68040, Note_on_c, 3, 65, 62
8, 68046, Note_on_c, 3, 59, 0
8, 68048, Note_on_c, 3, 63, 0
8, 68050, Control_c, 3, 7, 60
8, 68080, Control_c, 3, 7, 59
8, 68110, Control_c, 3, 7, 58
8, 68142, Note_on_c, 3, 61, 0
8, 68142, Note_on_c, 3, 65, 0
8, 68150, Control_c, 3, 7, 57
8, 68160, Note_on_c, 3, 65, 59
8, 68160, Note_on_c, 3, 61, 59
8, 68180, Control_c, 3, 7, 56
8, 68220, Control_c, 3, 7, 55
8, 68250, Control_c, 3, 7, 54
8, 68280, Control_c, 3, 7, 53
8, 68320, Control_c, 3, 7, 52
8, 68338, Note_on_c, 3, 61, 0
8, 68340, Note_on_c, 3, 65, 0
8, 68340, Note_on_c, 3, 58, 54
8, 68340, Note_on_c, 3, 66, 54
8, 68350, Control_c, 3, 7, 51
8, 68390, Control_c, 3, 7, 50
8, 68420, Control_c, 3, 7, 49
8, 68450, Control_c, 3, 7, 48
8, 68490, Control_c, 3, 7, 47
8, 68517, Note_on_c, 3, 66, 0
8, 68520, Control_c, 3, 7, 46
8, 68520, Note_on_c, 3, 61, 49
8, 68560, Control_c, 3, 7, 45
8, 68564, Note_on_c, 3, 58, 0
8, 68580, Note_on_c, 3, 59, 47
8, 68580, Note_on_c, 3, 63, 47
8, 68582, Note_on_c, 3, 61, 0
8, 68590, Control_c, 3, 7, 44
8, 68620, Control_c, 3, 7, 43
8, 68660, Control_c, 3, 7, 42
8, 68690, Control_c, 3, 7, 41
8, 68730, Control_c, 3, 7, 40
8, 68760, Control_c, 3, 7, 39
8, 68760, Note_on_c, 3, 58, 43
8, 68760, Note_on_c, 3, 61, 43
8, 68763, Note_on_c, 3, 59, 0
8, 68770, Note_on_c, 3, 63, 0
8, 68790, Control_c, 3, 7, 38
8, 68819, Note_on_c, 3, 58, 0
8, 68820, Note_on_c, 3, 61, 0
8, 68820, Note_on_c, 3, 59, 41
8, 68820, Note_on_c, 3, 56, 41
8, 68830, Control_c, 3, 7, 37
8, 68860, Control_c, 3, 7, 36
8, 68900, Control_c, 3, 7, 35
8, 68930, Control_c, 3, 7, 34
8, 68940, Note_on_c, 3, 63, 38
8, 68940, Note_on_c, 3, 66, 38
8, 68941, Note_on_c, 3, 59, 0
8, 68954, Note_on_c, 3, 56, 0
8, 68960, Control_c, 3, 7, 33
8, 69000, Control_c, 3, 7, 32
8, 69030, Control_c, 3, 7, 31
8, 69060, Note_on_c, 3, 61, 34
8, 69060, Note_on_c, 3, 65, 34
8, 69067, Note_on_c, 3, 63, 0
8, 69070, Control_c, 3, 7, 30
8, 69074, Note_on_c, 3, 66, 0
8, 69100, Control_c, 3, 7, 29
8, 69130, Control_c, 3, 7, 28
8, 69170, Control_c, 3, 7, 27
8, 69200, Control_c, 3, 7, 26
8, 69240, Control_c, 3, 7, 25
8, 69270, Control_c, 3, 7, 24
8, 69300, Control_c, 3, 7, 23
8, 69340, Control_c, 3, 7, 22
8, 69370, Control_c, 3, 7, 21
8, 69410, Control_c, 3, 7, 20
8, 69412, Note_on_c, 3, 61, 0
8, 69415, Note_on_c, 3, 65, 0
8, 69420, Note_on_c, 3, 63, 25
8, 69440, Control_c, 3, 7, 19
8, 69470, Control_c, 3, 7, 18
8, 69510, Control_c, 3, 7, 17
8, 69540, Control_c, 3, 7, 16
8, 69540, Note_on_c, 3, 61, 22
8, 69540, Note_on_c, 3, 65, 22
8, 69550, Note_on_c, 3, 63, 0
8, 69580, Control_c, 3, 7, 15
8, 69610, Control_c, 3, 7, 14
8, 69640, Control_c, 3, 7, 13
8, 69680, Control_c, 3, 7, 12
8, 69710, Control_c, 3, 7, 11
8, 69740, Note_on_c, 3, 65, 0
8, 69740, Note_on_c, 3, 61, 0
8, 69750, Control_c, 3, 7, 10
8, 69780, Control_c, 3, 7, 9
8, 69810, Control_c, 3, 7, 8
8, 69850, Control_c, 3, 7, 7
8, 69880, Control_c, 3, 7, 6
8, 69920, Control_c, 3, 7, 5
8, 69950, Control_c, 3, 7, 4
8, 69980, Control_c, 3, 7, 3
8, 70020, Control_c, 3, 7, 2
8, 70050, Control_c, 3, 7, 1
8, 70050, End_track
9, 0, Start_track
9, 0, MIDI_port, 0
9, 0, Title_t, "Dist. Guitar"
9, 0, Control_c, 4, 0, 56
9, 0, Control_c, 4, 32, 0
9, 0, Program_c, 4, 30
9, 0, Control_c, 4, 7, 80
9, 0, Control_c, 4, 10, 64
9, 4644, Control_c, 4, 93, 72
9, 4660, Control_c, 4, 93, 73
9, 4675, Control_c, 4, 93, 82
9, 4680, Control_c, 4, 93, 87
9, 4685, Control_c, 4, 93, 90
9, 4695, Control_c, 4, 93, 93
9, 4735, Control_c, 4, 93, 96
9, 4764, Control_c, 4, 93, 93
9, 4790, Control_c, 4, 93, 90
9, 4805, Control_c, 4, 93, 88
9, 4825, Control_c, 4, 93, 86
9, 4872, Control_c, 4, 93, 84
9, 6264, Control_c, 4, 91, 57
9, 6266, Control_c, 4, 91, 58
9, 6272, Control_c, 4, 91, 60
9, 6282, Control_c, 4, 91, 63
9, 6287, Control_c, 4, 91, 66
9, 6300, Control_c, 4, 91, 68
9, 6305, Control_c, 4, 91, 73
9, 6310, Control_c, 4, 91, 74
9, 6315, Control_c, 4, 91, 77
9, 6344, Control_c, 4, 91, 78
9, 6510, Control_c, 4, 91, 80
9, 6646, Control_c, 4, 91, 77
9, 6651, Control_c, 4, 91, 71
9, 6662, Control_c, 4, 91, 68
9, 6670, Control_c, 4, 91, 65
9, 6676, Control_c, 4, 91, 61
9, 6681, Control_c, 4, 91, 58
9, 6686, Control_c, 4, 91, 56
9, 6690, Control_c, 4, 91, 54
9, 6695, Control_c, 4, 91, 51
9, 6705, Control_c, 4, 91, 48
9, 6710, Control_c, 4, 91, 47
9, 6715, Control_c, 4, 91, 45
9, 6725, Control_c, 4, 91, 44
9, 6760, Control_c, 4, 91, 42
9, 6905, Control_c, 4, 91, 44
9, 6910, Control_c, 4, 91, 46
9, 7080, Control_c, 4, 91, 44
9, 7239, Control_c, 4, 91, 46
9, 7846, Control_c, 4, 93, 92
9, 7920, Note_on_c, 4, 47, 101
9, 7920, Note_on_c, 4, 59, 97
9, 7920, Note_on_c, 4, 54, 104
9, 7950, Note_on_c, 4, 54, 0
9, 7950, Note_on_c, 4, 59, 0
9, 7950, Note_on_c, 4, 47, 0
9, 7950, Control_c, 4, 93, 89
9, 7968, Control_c, 4, 93, 88
9, 7980, Note_on_c, 4, 47, 97
9, 7980, Note_on_c, 4, 59, 83
9, 7980, Note_on_c, 4, 54, 100
9, 7985, Control_c, 4, 93, 86
9, 7992, Control_c, 4, 64, 127
9, 8040, Note_on_c, 4, 54, 0
9, 8040, Note_on_c, 4, 59, 0
9, 8040, Note_on_c, 4, 47, 0
9, 8095, Control_c, 4, 93, 88
9, 8100, Note_on_c, 4, 56, 92
9, 8100, Note_on_c, 4, 61, 84
9, 8100, Note_on_c, 4, 49, 89
9, 8103, Control_c, 4, 93, 89
9, 8107, Control_c, 4, 64, 0
9, 8112, Control_c, 4, 93, 92
9, 8291, Control_c, 4, 64, 127
9, 8456, Control_c, 4, 64, 0
9, 8534, Control_c, 4, 64, 127
9, 8610, Note_on_c, 4, 61, 0
9, 8610, Note_on_c, 4, 56, 0
9, 8640, Note_on_c, 4, 49, 0
9, 8695, Control_c, 4, 93, 93
9, 8710, Control_c, 4, 93, 94
9, 8720, Control_c, 4, 93, 96
9, 8730, Control_c, 4, 93, 98
9, 8735, Control_c, 4, 93, 100
9, 8765, Control_c, 4, 93, 103
9, 8780, Control_c, 4, 93, 105
9, 8844, Control_c, 4, 93, 103
9, 8869, Control_c, 4, 64, 0
9, 8877, Control_c, 4, 93, 100
9, 8880, Note_on_c, 4, 47, 90
9, 8880, Note_on_c, 4, 59, 90
9, 8880, Note_on_c, 4, 54, 109
9, 8885, Control_c, 4, 93, 97
9, 8910, Note_on_c, 4, 54, 0
9, 8910, Note_on_c, 4, 59, 0
9, 8910, Note_on_c, 4, 47, 0
9, 8923, Control_c, 4, 64, 127
9, 8940, Note_on_c, 4, 47, 79
9, 8940, Note_on_c, 4, 54, 89
9, 8940, Note_on_c, 4, 59, 92
9, 8970, Note_on_c, 4, 59, 0
9, 8970, Note_on_c, 4, 54, 0
9, 8970, Note_on_c, 4, 47, 0
9, 9060, Note_on_c, 4, 61, 92
9, 9060, Note_on_c, 4, 56, 100
9, 9060, Note_on_c, 4, 49, 86
9, 9061, Control_c, 4, 64, 0
9, 9185, Control_c, 4, 93, 95
9, 9238, Control_c, 4, 64, 127
9, 9290, Control_c, 4, 93, 93
9, 9337, Control_c, 4, 64, 0
9, 9341, Control_c, 4, 93, 94
9, 9386, Control_c, 4, 64, 127
9, 9438, Control_c, 4, 64, 0
9, 9484, Control_c, 4, 64, 127
9, 9554, Control_c, 4, 64, 0
9, 9596, Control_c, 4, 64, 127
9, 9660, Note_on_c, 4, 49, 0
9, 9660, Note_on_c, 4, 56, 0
9, 9660, Note_on_c, 4, 61, 0
9, 9840, Note_on_c, 4, 47, 86
9, 9840, Note_on_c, 4, 59, 88
9, 9840, Note_on_c, 4, 54, 100
9, 9857, Control_c, 4, 64, 0
9, 9870, Note_on_c, 4, 47, 0
9, 9900, Note_on_c, 4, 54, 0
9, 9900, Note_on_c, 4, 59, 0
9, 9900, Note_on_c, 4, 59, 82
9, 9900, Note_on_c, 4, 47, 90
9, 9900, Note_on_c, 4, 54, 84
9, 9909, Control_c, 4, 64, 127
9, 9930, Note_on_c, 4, 59, 0
9, 9960, Note_on_c, 4, 54, 0
9, 9960, Note_on_c, 4, 47, 0
9, 10019, Control_c, 4, 64, 0
9, 10020, Note_on_c, 4, 42, 96
9, 10020, Note_on_c, 4, 54, 104
9, 10020, Note_on_c, 4, 49, 80
9, 10050, Note_on_c, 4, 49, 0
9, 10080, Note_on_c, 4, 49, 75
9, 10197, Control_c, 4, 64, 127
9, 10560, Note_on_c, 4, 54, 0
9, 10590, Note_on_c, 4, 49, 0
9, 10590, Note_on_c, 4, 42, 0
9, 10798, Control_c, 4, 64, 0
9, 10800, Note_on_c, 4, 39, 84
9, 10800, Note_on_c, 4, 51, 104
9, 10852, Control_c, 4, 64, 127
9, 10860, Note_on_c, 4, 51, 0
9, 10860, Note_on_c, 4, 39, 0
9, 10860, Note_on_c, 4, 39, 79
9, 10860, Note_on_c, 4, 51, 89
9, 10890, Note_on_c, 4, 51, 0
9, 10890, Note_on_c, 4, 39, 0
9, 10957, Control_c, 4, 64, 0
9, 10972, Control_c, 4, 91, 42
9, 10980, Control_c, 4, 91, 40
9, 10980, Note_on_c, 4, 40, 99
9, 10980, Note_on_c, 4, 52, 99
9, 10980, Note_on_c, 4, 47, 113
9, 10990, Control_c, 4, 91, 32
9, 11000, Control_c, 4, 91, 21
9, 11005, Control_c, 4, 91, 17
9, 11010, Control_c, 4, 91, 10
9, 11060, Control_c, 4, 91, 13
9, 11070, Control_c, 4, 91, 24
9, 11075, Control_c, 4, 91, 28
9, 11080, Control_c, 4, 91, 33
9, 11090, Control_c, 4, 91, 37
9, 11100, Control_c, 4, 91, 44
9, 11105, Control_c, 4, 91, 46
9, 11110, Control_c, 4, 91, 48
9, 11206, Control_c, 4, 91, 51
9, 11208, Control_c, 4, 64, 127
9, 11340, Note_on_c, 4, 40, 0
9, 11370, Note_on_c, 4, 47, 0
9, 11370, Note_on_c, 4, 52, 0
9, 11465, Control_c, 4, 91, 53
9, 11470, Control_c, 4, 91, 56
9, 11474, Control_c, 4, 91, 63
9, 11640, Control_c, 4, 91, 66
9, 11645, Control_c, 4, 91, 69
9, 11756, Control_c, 4, 64, 0
9, 11760, Note_on_c, 4, 47, 90
9, 11760, Note_on_c, 4, 59, 97
9, 11760, Note_on_c, 4, 54, 104
9, 11790, Note_on_c, 4, 54, 0
9, 11790, Note_on_c, 4, 59, 0
9, 11790, Note_on_c, 4, 47, 0
9, 11808, Control_c, 4, 64, 127
9, 11820, Note_on_c, 4, 54, 86
9, 11820, Note_on_c, 4, 47, 83
9, 11820, Note_on_c, 4, 59, 80
9, 11850, Note_on_c, 4, 59, 0
9, 11850, Note_on_c, 4, 47, 0
9, 11850, Note_on_c, 4, 54, 0
9, 11888, Control_c, 4, 91, 72
9, 11898, Control_c, 4, 91, 77
9, 11933, Control_c, 4, 64, 0
9, 11940, Note_on_c, 4, 61, 89
9, 11940, Note_on_c, 4, 49, 84
9, 11940, Note_on_c, 4, 56, 96
9, 11990, Control_c, 4, 91, 78
9, 12010, Control_c, 4, 91, 80
9, 12015, Control_c, 4, 91, 84
9, 12117, Control_c, 4, 64, 127
9, 12175, Control_c, 4, 91, 87
9, 12396, Control_c, 4, 91, 89
9, 12406, Control_c, 4, 91, 91
9, 12411, Control_c, 4, 91, 93
9, 12420, Note_on_c, 4, 56, 0
9, 12420, Note_on_c, 4, 61, 0
9, 12420, Control_c, 4, 91, 96
9, 12450, Note_on_c, 4, 49, 0
9, 12495, Control_c, 4, 91, 93
9, 12510, Control_c, 4, 91, 90
9, 12720, Note_on_c, 4, 47, 86
9, 12720, Note_on_c, 4, 59, 88
9, 12720, Note_on_c, 4, 54, 104
9, 12727, Control_c, 4, 64, 0
9, 12750, Note_on_c, 4, 54, 0
9, 12750, Note_on_c, 4, 59, 0
9, 12750, Note_on_c, 4, 47, 0
9, 12780, Note_on_c, 4, 59, 82
9, 12780, Note_on_c, 4, 54, 86
9, 12780, Note_on_c, 4, 47, 92
9, 12782, Control_c, 4, 64, 127
9, 12810, Note_on_c, 4, 47, 0
9, 12810, Note_on_c, 4, 54, 0
9, 12810, Note_on_c, 4, 59, 0
9, 12886, Control_c, 4, 64, 0
9, 12900, Note_on_c, 4, 61, 84
9, 12900, Note_on_c, 4, 49, 79
9, 12900, Note_on_c, 4, 56, 92
9, 12954, Control_c, 4, 64, 127
9, 12980, Control_c, 4, 91, 93
9, 12995, Control_c, 4, 91, 96
9, 13270, Control_c, 4, 64, 0
9, 13336, Control_c, 4, 64, 127
9, 13460, Control_c, 4, 91, 93
9, 13470, Note_on_c, 4, 56, 0
9, 13470, Note_on_c, 4, 49, 0
9, 13470, Note_on_c, 4, 61, 0
9, 13680, Note_on_c, 4, 47, 88
9, 13680, Note_on_c, 4, 54, 100
9, 13680, Note_on_c, 4, 59, 94
9, 13685, Control_c, 4, 91, 94
9, 13691, Control_c, 4, 91, 97
9, 13691, Control_c, 4, 64, 0
9, 13710, Note_on_c, 4, 59, 0
9, 13710, Note_on_c, 4, 54, 0
9, 13710, Note_on_c, 4, 47, 0
9, 13740, Note_on_c, 4, 59, 85
9, 13740, Note_on_c, 4, 54, 100
9, 13740, Note_on_c, 4, 47, 97
9, 13752, Control_c, 4, 64, 127
9, 13770, Note_on_c, 4, 54, 0
9, 13770, Note_on_c, 4, 59, 0
9, 13800, Note_on_c, 4, 47, 0
9, 13860, Note_on_c, 4, 42, 77
9, 13860, Note_on_c, 4, 54, 96
9, 13876, Control_c, 4, 64, 0
9, 14101, Control_c, 4, 64, 127
9, 14115, Control_c, 4, 91, 94
9, 14400, Note_on_c, 4, 54, 0
9, 14430, Note_on_c, 4, 42, 0
9, 14640, Note_on_c, 4, 39, 77
9, 14640, Note_on_c, 4, 51, 86
9, 14641, Control_c, 4, 64, 0
9, 14670, Note_on_c, 4, 51, 0
9, 14670, Note_on_c, 4, 39, 0
9, 14700, Note_on_c, 4, 39, 86
9, 14700, Note_on_c, 4, 51, 71
9, 14719, Control_c, 4, 64, 127
9, 14730, Note_on_c, 4, 39, 0
9, 14760, Note_on_c, 4, 51, 0
9, 14820, Note_on_c, 4, 40, 94
9, 14820, Note_on_c, 4, 47, 109
9, 14820, Note_on_c, 4, 52, 99
9, 14823, Control_c, 4, 64, 0
9, 14970, Note_on_c, 4, 47, 0
9, 15069, Control_c, 4, 64, 127
9, 15270, Note_on_c, 4, 52, 0
9, 15270, Note_on_c, 4, 40, 0
9, 15360, Note_on_c, 4, 40, 88
9, 15360, Note_on_c, 4, 47, 107
9, 15360, Note_on_c, 4, 52, 94
9, 15375, Control_c, 4, 7, 102
9, 15385, Control_c, 4, 7, 101
9, 15390, Note_on_c, 4, 52, 0
9, 15390, Note_on_c, 4, 47, 0
9, 15390, Note_on_c, 4, 40, 0
9, 15400, Control_c, 4, 7, 100
9, 15405, Control_c, 4, 7, 99
9, 15411, Control_c, 4, 7, 98
9, 15420, Note_on_c, 4, 54, 104
9, 15420, Note_on_c, 4, 49, 109
9, 15420, Note_on_c, 4, 42, 92
9, 15424, Control_c, 4, 64, 0
9, 15480, Note_on_c, 4, 42, 0
9, 15480, Note_on_c, 4, 49, 0
9, 15480, Note_on_c, 4, 54, 0
9, 15505, Control_c, 4, 7, 97
9, 15515, Control_c, 4, 7, 96
9, 15540, Note_on_c, 4, 54, 109
9, 15540, Note_on_c, 4, 49, 119
9, 15540, Note_on_c, 4, 42, 104
9, 15643, Control_c, 4, 64, 127
9, 15720, Note_on_c, 4, 42, 0
9, 15720, Note_on_c, 4, 49, 0
9, 15720, Note_on_c, 4, 54, 0
9, 15822, Control_c, 4, 64, 0
9, 15840, Note_on_c, 4, 46, 63
9, 15840, Note_on_c, 4, 58, 75
9, 15840, Note_on_c, 4, 53, 76
9, 15970, Control_c, 4, 91, 91
9, 15980, Control_c, 4, 91, 89
9, 15990, Note_on_c, 4, 53, 0
9, 15990, Note_on_c, 4, 58, 0
9, 15990, Note_on_c, 4, 46, 0
9, 16020, Note_on_c, 4, 59, 97
9, 16020, Note_on_c, 4, 47, 92
9, 16020, Note_on_c, 4, 54, 104
9, 16020, Note_on_c, 4, 51, 81
9, 16050, Note_on_c, 4, 51, 0
9, 16066, Control_c, 4, 91, 90
9, 16133, Control_c, 4, 64, 127
9, 16230, Note_on_c, 4, 59, 0
9, 16230, Note_on_c, 4, 47, 0
9, 16230, Note_on_c, 4, 54, 0
9, 16260, Note_on_c, 4, 45, 99
9, 16260, Note_on_c, 4, 57, 85
9, 16260, Note_on_c, 4, 52, 83
9, 16273, Control_c, 4, 64, 0
9, 16371, Control_c, 4, 64, 127
9, 16650, Note_on_c, 4, 52, 0
9, 16650, Note_on_c, 4, 57, 0
9, 16650, Note_on_c, 4, 45, 0
9, 16680, Note_on_c, 4, 57, 90
9, 16680, Note_on_c, 4, 45, 83
9, 16680, Note_on_c, 4, 52, 79
9, 16710, Note_on_c, 4, 52, 0
9, 16710, Note_on_c, 4, 45, 0
9, 16710, Note_on_c, 4, 57, 0
9, 16797, Control_c, 4, 64, 0
9, 16800, Note_on_c, 4, 44, 81
9, 16800, Note_on_c, 4, 51, 100
9, 16800, Note_on_c, 4, 56, 89
9, 16965, Control_c, 4, 64, 127
9, 17100, Note_on_c, 4, 51, 0
9, 17100, Note_on_c, 4, 44, 0
9, 17130, Note_on_c, 4, 56, 0
9, 17160, Note_on_c, 4, 51, 100
9, 17160, Note_on_c, 4, 44, 86
9, 17160, Note_on_c, 4, 56, 100
9, 17165, Control_c, 4, 64, 0
9, 17205, Control_c, 4, 64, 127
9, 17220, Note_on_c, 4, 56, 0
9, 17220, Note_on_c, 4, 44, 0
9, 17220, Note_on_c, 4, 51, 0
9, 17280, Note_on_c, 4, 49, 84
9, 17280, Note_on_c, 4, 61, 92
9, 17280, Note_on_c, 4, 56, 96
9, 17280, Control_c, 4, 64, 0
9, 17402, Control_c, 4, 64, 127
9, 17485, Control_c, 4, 64, 0
9, 17531, Control_c, 4, 64, 127
9, 17601, Control_c, 4, 64, 0
9, 17640, Note_on_c, 4, 56, 0
9, 17640, Note_on_c, 4, 61, 0
9, 17640, Note_on_c, 4, 49, 0
9, 17640, Note_on_c, 4, 49, 86
9, 17640, Note_on_c, 4, 56, 92
9, 17640, Note_on_c, 4, 61, 73
9, 17653, Control_c, 4, 64, 127
9, 17670, Note_on_c, 4, 61, 0
9, 17670, Note_on_c, 4, 56, 0
9, 17670, Note_on_c, 4, 49, 0
9, 17750, Control_c, 4, 64, 0
9, 17760, Note_on_c, 4, 42, 86
9, 17760, Note_on_c, 4, 54, 100
9, 17820, Note_on_c, 4, 49, 57
9, 17932, Control_c, 4, 64, 127
9, 18090, Note_on_c, 4, 49, 0
9, 18090, Note_on_c, 4, 54, 0
9, 18090, Note_on_c, 4, 42, 0
9, 18120, Note_on_c, 4, 42, 68
9, 18120, Note_on_c, 4, 49, 92
9, 18120, Note_on_c, 4, 54, 96
9, 18150, Note_on_c, 4, 54, 0
9, 18150, Note_on_c, 4, 49, 0
9, 18150, Note_on_c, 4, 42, 0
9, 18224, Control_c, 4, 64, 0
9, 18240, Note_on_c, 4, 44, 86
9, 18240, Note_on_c, 4, 56, 96
9, 18240, Note_on_c, 4, 51, 100
9, 18360, Control_c, 4, 64, 127
9, 18540, Note_on_c, 4, 51, 0
9, 18540, Note_on_c, 4, 56, 0
9, 18540, Note_on_c, 4, 44, 0
9, 18600, Note_on_c, 4, 44, 68
9, 18600, Note_on_c, 4, 51, 89
9, 18600, Note_on_c, 4, 56, 86
9, 18630, Note_on_c, 4, 56, 0
9, 18630, Note_on_c, 4, 51, 0
9, 18630, Note_on_c, 4, 44, 0
9, 18695, Control_c, 4, 64, 0
9, 18720, Note_on_c, 4, 49, 77
9, 18720, Note_on_c, 4, 61, 89
9, 18720, Note_on_c, 4, 56, 100
9, 18839, Control_c, 4, 64, 127
9, 18960, Note_on_c, 4, 56, 0
9, 18960, Note_on_c, 4, 61, 0
9, 18990, Note_on_c, 4, 49, 0
9, 19007, Control_c, 4, 64, 0
9, 19020, Note_on_c, 4, 54, 96
9, 19020, Note_on_c, 4, 47, 99
9, 19020, Note_on_c, 4, 59, 88
9, 19061, Control_c, 4, 64, 127
9, 19080, Note_on_c, 4, 59, 0
9, 19080, Note_on_c, 4, 47, 0
9, 19080, Note_on_c, 4, 54, 0
9, 19140, Note_on_c, 4, 61, 92
9, 19140, Note_on_c, 4, 49, 51
9, 19140, Note_on_c, 4, 56, 76
9, 19142, Control_c, 4, 64, 0
9, 19170, Note_on_c, 4, 49, 0
9, 19170, Note_on_c, 4, 61, 0
9, 19200, Note_on_c, 4, 56, 0
9, 19230, Note_on_c, 4, 49, 44
9, 19230, Note_on_c, 4, 61, 71
9, 19230, Note_on_c, 4, 56, 54
9, 19362, Control_c, 4, 64, 127
9, 19500, Note_on_c, 4, 56, 0
9, 19500, Note_on_c, 4, 61, 0
9, 19500, Note_on_c, 4, 49, 0
9, 19560, Note_on_c, 4, 49, 73
9, 19560, Note_on_c, 4, 61, 84
9, 19560, Note_on_c, 4, 56, 86
9, 19590, Note_on_c, 4, 56, 0
9, 19590, Note_on_c, 4, 61, 0
9, 19590, Note_on_c, 4, 49, 0
9, 19662, Control_c, 4, 64, 0
9, 19680, Note_on_c, 4, 59, 94
9, 19680, Note_on_c, 4, 47, 94
9, 19680, Note_on_c, 4, 54, 109
9, 19801, Control_c, 4, 64, 127
9, 20010, Note_on_c, 4, 54, 0
9, 20010, Note_on_c, 4, 47, 0
9, 20010, Note_on_c, 4, 59, 0
9, 20084, Control_c, 4, 64, 0
9, 20100, Note_on_c, 4, 45, 90
9, 20100, Note_on_c, 4, 57, 97
9, 20100, Note_on_c, 4, 52, 101
9, 20214, Control_c, 4, 64, 127
9, 20430, Note_on_c, 4, 52, 0
9, 20460, Note_on_c, 4, 57, 0
9, 20460, Note_on_c, 4, 45, 0
9, 20520, Note_on_c, 4, 52, 99
9, 20520, Note_on_c, 4, 57, 92
9, 20520, Note_on_c, 4, 45, 88
9, 20550, Note_on_c, 4, 45, 0
9, 20550, Note_on_c, 4, 57, 0
9, 20550, Note_on_c, 4, 52, 0
9, 20612, Control_c, 4, 64, 0
9, 20640, Note_on_c, 4, 56, 84
9, 20640, Note_on_c, 4, 44, 86
9, 20640, Note_on_c, 4, 51, 96
9, 20771, Control_c, 4, 64, 127
9, 20910, Note_on_c, 4, 51, 0
9, 20910, Note_on_c, 4, 44, 0
9, 20910, Note_on_c, 4, 56, 0
9, 21000, Note_on_c, 4, 44, 81
9, 21000, Note_on_c, 4, 56, 92
9, 21000, Note_on_c, 4, 51, 89
9, 21030, Note_on_c, 4, 51, 0
9, 21030, Note_on_c, 4, 56, 0
9, 21030, Note_on_c, 4, 44, 0
9, 21103, Control_c, 4, 64, 0
9, 21120, Note_on_c, 4, 61, 96
9, 21120, Note_on_c, 4, 56, 104
9, 21120, Note_on_c, 4, 49, 84
9, 21241, Control_c, 4, 64, 127
9, 21450, Note_on_c, 4, 49, 0
9, 21480, Note_on_c, 4, 56, 0
9, 21480, Note_on_c, 4, 61, 0
9, 21480, Note_on_c, 4, 61, 81
9, 21480, Note_on_c, 4, 49, 81
9, 21480, Note_on_c, 4, 56, 92
9, 21510, Note_on_c, 4, 56, 0
9, 21510, Note_on_c, 4, 49, 0
9, 21510, Note_on_c, 4, 61, 0
9, 21600, Control_c, 4, 64, 0
9, 21600, Note_on_c, 4, 42, 84
9, 21600, Note_on_c, 4, 49, 100
9, 21600, Note_on_c, 4, 54, 89
9, 21747, Control_c, 4, 64, 127
9, 21930, Note_on_c, 4, 54, 0
9, 21930, Note_on_c, 4, 49, 0
9, 21930, Note_on_c, 4, 42, 0
9, 21960, Note_on_c, 4, 42, 77
9, 21960, Note_on_c, 4, 54, 89
9, 21960, Note_on_c, 4, 49, 96
9, 21990, Note_on_c, 4, 49, 0
9, 21990, Note_on_c, 4, 54, 0
9, 21990, Note_on_c, 4, 42, 0
9, 22070, Control_c, 4, 64, 0
9, 22080, Note_on_c, 4, 56, 84
9, 22080, Note_on_c, 4, 44, 89
9, 22203, Control_c, 4, 64, 127
9, 22380, Note_on_c, 4, 44, 0
9, 22380, Note_on_c, 4, 56, 0
9, 22549, Control_c, 4, 64, 0
9, 22560, Note_on_c, 4, 49, 79
9, 22560, Note_on_c, 4, 61, 96
9, 22560, Note_on_c, 4, 56, 100
9, 22682, Control_c, 4, 64, 127
9, 22710, Note_on_c, 4, 56, 0
9, 22740, Note_on_c, 4, 61, 0
9, 22740, Note_on_c, 4, 49, 0
9, 22755, Control_c, 4, 91, 92
9, 22800, Control_c, 4, 91, 89
9, 22815, Control_c, 4, 91, 88
9, 22825, Control_c, 4, 91, 86
9, 22847, Control_c, 4, 64, 0
9, 22860, Note_on_c, 4, 47, 88
9, 22860, Note_on_c, 4, 59, 94
9, 22860, Note_on_c, 4, 54, 109
9, 22910, Control_c, 4, 64, 127
9, 22915, Control_c, 4, 91, 84
9, 22920, Note_on_c, 4, 54, 0
9, 22920, Note_on_c, 4, 59, 0
9, 22920, Note_on_c, 4, 47, 0
9, 22980, Note_on_c, 4, 56, 100
9, 22980, Note_on_c, 4, 61, 100
9, 22980, Note_on_c, 4, 49, 81
9, 22980, Note_on_c, 4, 51, 81
9, 22994, Control_c, 4, 64, 0
9, 23010, Note_on_c, 4, 51, 0
9, 23145, Control_c, 4, 7, 95
9, 23148, Control_c, 4, 64, 127
9, 23160, Note_on_c, 4, 56, 0
9, 23165, Control_c, 4, 7, 94
9, 23170, Control_c, 4, 7, 93
9, 23190, Note_on_c, 4, 49, 0
9, 23190, Note_on_c, 4, 61, 0
9, 23277, Control_c, 4, 64, 0
9, 23280, Note_on_c, 4, 47, 97
9, 23280, Note_on_c, 4, 59, 90
9, 23280, Note_on_c, 4, 54, 109
9, 23340, Note_on_c, 4, 54, 0
9, 23340, Note_on_c, 4, 59, 0
9, 23340, Note_on_c, 4, 47, 0
9, 23340, Note_on_c, 4, 59, 86
9, 23340, Note_on_c, 4, 47, 92
9, 23340, Note_on_c, 4, 54, 104
9, 23356, Control_c, 4, 64, 127
9, 23370, Note_on_c, 4, 51, 64
9, 23400, Note_on_c, 4, 51, 0
9, 23400, Note_on_c, 4, 59, 0
9, 23400, Note_on_c, 4, 47, 0
9, 23400, Note_on_c, 4, 54, 0
9, 23424, Control_c, 4, 7, 92
9, 23445, Control_c, 4, 7, 91
9, 23456, Control_c, 4, 64, 0
9, 23460, Note_on_c, 4, 56, 86
9, 23460, Note_on_c, 4, 49, 75
9, 23460, Note_on_c, 4, 61, 109
9, 23575, Control_c, 4, 64, 127
9, 23675, Control_c, 4, 7, 90
9, 23779, Control_c, 4, 64, 0
9, 24101, Control_c, 4, 64, 127
9, 24120, Note_on_c, 4, 56, 0
9, 24150, Note_on_c, 4, 61, 0
9, 24150, Note_on_c, 4, 49, 0
9, 24240, Note_on_c, 4, 59, 97
9, 24240, Note_on_c, 4, 47, 90
9, 24240, Control_c, 4, 64, 0
9, 24240, Note_on_c, 4, 54, 104
9, 24270, Note_on_c, 4, 54, 0
9, 24270, Note_on_c, 4, 47, 0
9, 24270, Note_on_c, 4, 59, 0
9, 24300, Note_on_c, 4, 59, 73
9, 24300, Note_on_c, 4, 47, 97
9, 24300, Note_on_c, 4, 54, 96
9, 24302, Control_c, 4, 64, 127
9, 24330, Note_on_c, 4, 54, 0
9, 24330, Note_on_c, 4, 47, 0
9, 24330, Note_on_c, 4, 59, 0
9, 24403, Control_c, 4, 64, 0
9, 24420, Note_on_c, 4, 56, 84
9, 24420, Note_on_c, 4, 61, 89
9, 24420, Note_on_c, 4, 49, 81
9, 24522, Control_c, 4, 64, 127
9, 24990, Note_on_c, 4, 49, 0
9, 24990, Note_on_c, 4, 61, 0
9, 24990, Note_on_c, 4, 56, 0
9, 25200, Note_on_c, 4, 59, 88
9, 25200, Note_on_c, 4, 47, 88
9, 25200, Note_on_c, 4, 54, 109
9, 25206, Control_c, 4, 64, 0
9, 25230, Note_on_c, 4, 54, 0
9, 25230, Note_on_c, 4, 47, 0
9, 25230, Note_on_c, 4, 59, 0
9, 25260, Note_on_c, 4, 59, 88
9, 25260, Note_on_c, 4, 47, 92
9, 25260, Note_on_c, 4, 54, 100
9, 25264, Control_c, 4, 64, 127
9, 25290, Note_on_c, 4, 54, 0
9, 25290, Note_on_c, 4, 47, 0
9, 25290, Note_on_c, 4, 59, 0
9, 25380, Note_on_c, 4, 42, 86
9, 25380, Note_on_c, 4, 49, 109
9, 25380, Note_on_c, 4, 54, 104
9, 25385, Control_c, 4, 64, 0
9, 25581, Control_c, 4, 64, 127
9, 26010, Note_on_c, 4, 54, 0
9, 26010, Note_on_c, 4, 49, 0
9, 26010, Note_on_c, 4, 42, 0
9, 26160, Note_on_c, 4, 51, 104
9, 26160, Note_on_c, 4, 39, 86
9, 26160, Note_on_c, 4, 46, 114
9, 26165, Control_c, 4, 64, 0
9, 26220, Note_on_c, 4, 46, 0
9, 26220, Note_on_c, 4, 39, 0
9, 26220, Note_on_c, 4, 51, 0
9, 26220, Note_on_c, 4, 39, 68
9, 26220, Note_on_c, 4, 46, 92
9, 26220, Note_on_c, 4, 51, 100
9, 26228, Control_c, 4, 64, 127
9, 26250, Note_on_c, 4, 46, 0
9, 26280, Note_on_c, 4, 51, 0
9, 26280, Note_on_c, 4, 39, 0
9, 26300, Control_c, 4, 64, 0
9, 26340, Note_on_c, 4, 52, 110
9, 26340, Note_on_c, 4, 40, 99
9, 26340, Note_on_c, 4, 47, 113
9, 26520, Control_c, 4, 64, 127
9, 26730, Note_on_c, 4, 40, 0
9, 26760, Note_on_c, 4, 47, 0
9, 26760, Note_on_c, 4, 52, 0
9, 27107, Control_c, 4, 64, 0
9, 27120, Note_on_c, 4, 47, 92
9, 27120, Note_on_c, 4, 59, 94
9, 27120, Note_on_c, 4, 54, 109
9, 27150, Note_on_c, 4, 54, 0
9, 27150, Note_on_c, 4, 59, 0
9, 27150, Note_on_c, 4, 47, 0
9, 27164, Control_c, 4, 64, 127
9, 27180, Note_on_c, 4, 59, 86
9, 27180, Note_on_c, 4, 54, 92
9, 27180, Note_on_c, 4, 47, 92
9, 27210, Note_on_c, 4, 47, 0
9, 27210, Note_on_c, 4, 54, 0
9, 27210, Note_on_c, 4, 59, 0
9, 27297, Control_c, 4, 64, 0
9, 27300, Note_on_c, 4, 56, 96
9, 27300, Note_on_c, 4, 61, 89
9, 27300, Note_on_c, 4, 49, 84
9, 27461, Control_c, 4, 64, 127
9, 27900, Note_on_c, 4, 61, 0
9, 27900, Note_on_c, 4, 56, 0
9, 27930, Note_on_c, 4, 49, 0
9, 28080, Note_on_c, 4, 59, 99
9, 28080, Note_on_c, 4, 47, 94
9, 28080, Note_on_c, 4, 54, 119
9, 28082, Control_c, 4, 64, 0
9, 28140, Note_on_c, 4, 54, 0
9, 28140, Note_on_c, 4, 47, 0
9, 28140, Note_on_c, 4, 59, 0
9, 28140, Note_on_c, 4, 47, 92
9, 28140, Note_on_c, 4, 59, 86
9, 28140, Note_on_c, 4, 54, 92
9, 28142, Control_c, 4, 64, 127
9, 28170, Note_on_c, 4, 54, 0
9, 28170, Note_on_c, 4, 59, 0
9, 28170, Note_on_c, 4, 47, 0
9, 28250, Control_c, 4, 64, 0
9, 28260, Note_on_c, 4, 61, 89
9, 28260, Note_on_c, 4, 49, 89
9, 28260, Note_on_c, 4, 56, 100
9, 28452, Control_c, 4, 64, 127
9, 28622, Control_c, 4, 64, 0
9, 28786, Control_c, 4, 64, 127
9, 28860, Note_on_c, 4, 56, 0
9, 28890, Note_on_c, 4, 49, 0
9, 28890, Note_on_c, 4, 61, 0
9, 29040, Note_on_c, 4, 47, 83
9, 29040, Note_on_c, 4, 59, 85
9, 29040, Note_on_c, 4, 54, 104
9, 29041, Control_c, 4, 64, 0
9, 29098, Control_c, 4, 64, 127
9, 29100, Note_on_c, 4, 54, 0
9, 29100, Note_on_c, 4, 59, 0
9, 29100, Note_on_c, 4, 47, 0
9, 29100, Note_on_c, 4, 59, 85
9, 29100, Note_on_c, 4, 47, 85
9, 29100, Note_on_c, 4, 54, 92
9, 29130, Note_on_c, 4, 54, 0
9, 29130, Note_on_c, 4, 47, 0
9, 29130, Note_on_c, 4, 59, 0
9, 29209, Control_c, 4, 64, 0
9, 29220, Note_on_c, 4, 42, 84
9, 29220, Note_on_c, 4, 49, 109
9, 29220, Note_on_c, 4, 54, 104
9, 29413, Control_c, 4, 64, 127
9, 29480, Control_c, 4, 64, 0
9, 29642, Control_c, 4, 64, 127
9, 29820, Note_on_c, 4, 54, 0
9, 29820, Note_on_c, 4, 49, 0
9, 29850, Note_on_c, 4, 42, 0
9, 29994, Control_c, 4, 64, 0
9, 30000, Note_on_c, 4, 39, 84
9, 30000, Note_on_c, 4, 51, 96
9, 30000, Note_on_c, 4, 46, 104
9, 30060, Note_on_c, 4, 46, 0
9, 30060, Note_on_c, 4, 51, 0
9, 30060, Note_on_c, 4, 39, 0
9, 30060, Control_c, 4, 64, 127
9, 30060, Note_on_c, 4, 46, 89
9, 30060, Note_on_c, 4, 51, 89
9, 30060, Note_on_c, 4, 39, 77
9, 30090, Note_on_c, 4, 39, 0
9, 30090, Note_on_c, 4, 51, 0
9, 30090, Note_on_c, 4, 46, 0
9, 30156, Control_c, 4, 64, 0
9, 30180, Note_on_c, 4, 40, 101
9, 30180, Note_on_c, 4, 52, 99
9, 30180, Note_on_c, 4, 47, 110
9, 30311, Control_c, 4, 64, 127
9, 30540, Note_on_c, 4, 47, 0
9, 30570, Note_on_c, 4, 52, 0
9, 30570, Note_on_c, 4, 40, 0
9, 30720, Note_on_c, 4, 52, 79
9, 30720, Note_on_c, 4, 40, 85
9, 30720, Note_on_c, 4, 47, 97
9, 30750, Note_on_c, 4, 47, 0
9, 30750, Note_on_c, 4, 40, 0
9, 30750, Note_on_c, 4, 52, 0
9, 30780, Control_c, 4, 64, 0
9, 30780, Note_on_c, 4, 42, 69
9, 30780, Note_on_c, 4, 49, 92
9, 30780, Note_on_c, 4, 54, 100
9, 30840, Note_on_c, 4, 54, 0
9, 30840, Note_on_c, 4, 49, 0
9, 30840, Note_on_c, 4, 42, 0
9, 30900, Note_on_c, 4, 54, 100
9, 30900, Note_on_c, 4, 49, 104
9, 30900, Note_on_c, 4, 42, 84
9, 31002, Control_c, 4, 64, 127
9, 31050, Note_on_c, 4, 42, 0
9, 31050, Note_on_c, 4, 49, 0
9, 31050, Note_on_c, 4, 54, 0
9, 31200, Note_on_c, 4, 47, 94
9, 31200, Note_on_c, 4, 59, 97
9, 31200, Note_on_c, 4, 54, 114
9, 31210, Control_c, 4, 64, 0
9, 31325, Control_c, 4, 64, 127
9, 31530, Note_on_c, 4, 54, 0
9, 31530, Note_on_c, 4, 59, 0
9, 31530, Note_on_c, 4, 47, 0
9, 31608, Control_c, 4, 64, 0
9, 31620, Note_on_c, 4, 45, 88
9, 31620, Note_on_c, 4, 57, 88
9, 31620, Note_on_c, 4, 52, 99
9, 31732, Control_c, 4, 64, 127
9, 31980, Note_on_c, 4, 45, 0
9, 32010, Note_on_c, 4, 52, 0
9, 32010, Note_on_c, 4, 57, 0
9, 32040, Note_on_c, 4, 52, 85
9, 32040, Note_on_c, 4, 57, 78
9, 32040, Note_on_c, 4, 45, 75
9, 32070, Note_on_c, 4, 45, 0
9, 32070, Note_on_c, 4, 57, 0
9, 32070, Note_on_c, 4, 52, 0
9, 32156, Control_c, 4, 64, 0
9, 32160, Note_on_c, 4, 56, 79
9, 32160, Note_on_c, 4, 44, 77
9, 32160, Note_on_c, 4, 51, 92
9, 32280, Control_c, 4, 64, 127
9, 32430, Note_on_c, 4, 51, 0
9, 32430, Note_on_c, 4, 44, 0
9, 32460, Note_on_c, 4, 56, 0
9, 32520, Note_on_c, 4, 44, 77
9, 32520, Note_on_c, 4, 51, 100
9, 32520, Note_on_c, 4, 56, 96
9, 32550, Note_on_c, 4, 56, 0
9, 32550, Note_on_c, 4, 51, 0
9, 32550, Note_on_c, 4, 44, 0
9, 32624, Control_c, 4, 64, 0
9, 32640, Note_on_c, 4, 49, 77
9, 32640, Note_on_c, 4, 61, 100
9, 32640, Note_on_c, 4, 56, 100
9, 32780, Control_c, 4, 64, 127
9, 32879, Control_c, 4, 7, 91
9, 32910, Note_on_c, 4, 56, 0
9, 32910, Control_c, 4, 7, 90
9, 32915, Control_c, 4, 7, 89
9, 32920, Control_c, 4, 7, 88
9, 32940, Note_on_c, 4, 61, 0
9, 32940, Note_on_c, 4, 49, 0
9, 32975, Control_c, 4, 7, 87
9, 32982, Control_c, 4, 7, 86
9, 33000, Note_on_c, 4, 49, 71
9, 33000, Note_on_c, 4, 61, 81
9, 33000, Note_on_c, 4, 56, 100
9, 33028, Control_c, 4, 7, 85
9, 33030, Note_on_c, 4, 56, 0
9, 33030, Note_on_c, 4, 61, 0
9, 33030, Note_on_c, 4, 49, 0
9, 33079, Control_c, 4, 7, 84
9, 33084, Control_c, 4, 7, 83
9, 33115, Control_c, 4, 7, 82
9, 33120, Note_on_c, 4, 42, 77
9, 33120, Note_on_c, 4, 49, 104
9, 33120, Note_on_c, 4, 54, 89
9, 33133, Control_c, 4, 64, 0
9, 33245, Control_c, 4, 64, 127
9, 33300, Control_c, 4, 7, 81
9, 33380, Control_c, 4, 7, 80
9, 33385, Control_c, 4, 7, 79
9, 33450, Note_on_c, 4, 54, 0
9, 33450, Note_on_c, 4, 49, 0
9, 33450, Note_on_c, 4, 42, 0
9, 33480, Note_on_c, 4, 42, 79
9, 33480, Note_on_c, 4, 54, 89
9, 33480, Note_on_c, 4, 49, 104
9, 33510, Note_on_c, 4, 49, 0
9, 33510, Note_on_c, 4, 54, 0
9, 33510, Note_on_c, 4, 42, 0
9, 33545, Control_c, 4, 7, 78
9, 33600, Note_on_c, 4, 56, 92
9, 33600, Note_on_c, 4, 51, 100
9, 33600, Note_on_c, 4, 44, 89
9, 33604, Control_c, 4, 64, 0
9, 33733, Control_c, 4, 64, 127
9, 33840, Note_on_c, 4, 44, 0
9, 33870, Note_on_c, 4, 51, 0
9, 33870, Note_on_c, 4, 56, 0
9, 33960, Note_on_c, 4, 44, 71
9, 33960, Note_on_c, 4, 56, 89
9, 33960, Note_on_c, 4, 51, 86
9, 33990, Note_on_c, 4, 51, 0
9, 33990, Note_on_c, 4, 56, 0
9, 33990, Note_on_c, 4, 44, 0
9, 34080, Note_on_c, 4, 61, 86
9, 34080, Note_on_c, 4, 49, 92
9, 34080, Note_on_c, 4, 56, 109
9, 34085, Control_c, 4, 64, 0
9, 34203, Control_c, 4, 64, 127
9, 34290, Note_on_c, 4, 56, 0
9, 34290, Note_on_c, 4, 61, 0
9, 34320, Note_on_c, 4, 49, 0
9, 34377, Control_c, 4, 64, 0
9, 34380, Note_on_c, 4, 47, 86
9, 34380, Note_on_c, 4, 54, 96
9, 34380, Note_on_c, 4, 59, 97
9, 34429, Control_c, 4, 64, 127
9, 34440, Note_on_c, 4, 59, 0
9, 34440, Note_on_c, 4, 54, 0
9, 34440, Note_on_c, 4, 47, 0
9, 34500, Note_on_c, 4, 49, 89
9, 34500, Note_on_c, 4, 61, 96
9, 34500, Note_on_c, 4, 56, 100
9, 34504, Control_c, 4, 64, 0
9, 34530, Note_on_c, 4, 48, 46
9, 34530, Note_on_c, 4, 55, 53
9, 34530, Note_on_c, 4, 60, 76
9, 34530, Note_on_c, 4, 59, 70
9, 34560, Note_on_c, 4, 59, 0
9, 34560, Note_on_c, 4, 55, 0
9, 34560, Note_on_c, 4, 48, 0
9, 34560, Note_on_c, 4, 61, 0
9, 34560, Note_on_c, 4, 60, 0
9, 34590, Note_on_c, 4, 61, 51
9, 34704, Control_c, 4, 64, 127
9, 34800, Note_on_c, 4, 49, 0
9, 34800, Note_on_c, 4, 56, 0
9, 34830, Note_on_c, 4, 61, 0
9, 34920, Note_on_c, 4, 49, 75
9, 34920, Note_on_c, 4, 61, 96
9, 34920, Note_on_c, 4, 56, 86
9, 34950, Note_on_c, 4, 56, 0
9, 34950, Note_on_c, 4, 61, 0
9, 34950, Note_on_c, 4, 49, 0
9, 35038, Control_c, 4, 64, 0
9, 35040, Note_on_c, 4, 47, 85
9, 35040, Note_on_c, 4, 59, 94
9, 35040, Note_on_c, 4, 54, 104
9, 35162, Control_c, 4, 64, 127
9, 35400, Note_on_c, 4, 54, 0
9, 35400, Note_on_c, 4, 59, 0
9, 35400, Note_on_c, 4, 47, 0
9, 35520, Note_on_c, 4, 45, 92
9, 35520, Note_on_c, 4, 57, 101
9, 35520, Note_on_c, 4, 52, 110
9, 35527, Control_c, 4, 64, 0
9, 35644, Control_c, 4, 64, 127
9, 35790, Note_on_c, 4, 52, 0
9, 35790, Note_on_c, 4, 57, 0
9, 35790, Note_on_c, 4, 45, 0
9, 35880, Note_on_c, 4, 45, 76
9, 35880, Note_on_c, 4, 57, 78
9, 35880, Note_on_c, 4, 52, 92
9, 35910, Note_on_c, 4, 52, 0
9, 35910, Note_on_c, 4, 57, 0
9, 35910, Note_on_c, 4, 45, 0
9, 36000, Note_on_c, 4, 56, 81
9, 36000, Note_on_c, 4, 51, 104
9, 36000, Note_on_c, 4, 44, 73
9, 36003, Control_c, 4, 64, 0
9, 36096, Control_c, 4, 64, 127
9, 36300, Note_on_c, 4, 44, 0
9, 36300, Note_on_c, 4, 51, 0
9, 36330, Note_on_c, 4, 56, 0
9, 36360, Note_on_c, 4, 51, 92
9, 36360, Note_on_c, 4, 44, 75
9, 36360, Note_on_c, 4, 56, 92
9, 36390, Note_on_c, 4, 56, 0
9, 36390, Note_on_c, 4, 44, 0
9, 36390, Note_on_c, 4, 51, 0
9, 36480, Note_on_c, 4, 49, 81
9, 36480, Note_on_c, 4, 56, 92
9, 36480, Note_on_c, 4, 61, 86
9, 36482, Control_c, 4, 64, 0
9, 36591, Control_c, 4, 64, 127
9, 36605, Control_c, 4, 7, 79
9, 36620, Control_c, 4, 7, 80
9, 36641, Control_c, 4, 7, 81
9, 36780, Note_on_c, 4, 61, 0
9, 36780, Note_on_c, 4, 56, 0
9, 36780, Note_on_c, 4, 49, 0
9, 36840, Note_on_c, 4, 49, 66
9, 36840, Note_on_c, 4, 56, 86
9, 36840, Note_on_c, 4, 61, 77
9, 36870, Note_on_c, 4, 61, 0
9, 36870, Note_on_c, 4, 56, 0
9, 36870, Note_on_c, 4, 49, 0
9, 36960, Note_on_c, 4, 42, 76
9, 36960, Note_on_c, 4, 54, 76
9, 36960, Note_on_c, 4, 49, 99
9, 36964, Control_c, 4, 64, 0
9, 37045, Control_c, 4, 7, 82
9, 37077, Control_c, 4, 64, 127
9, 37110, Note_on_c, 4, 49, 0
9, 37140, Note_on_c, 4, 54, 0
9, 37140, Note_on_c, 4, 42, 0
9, 37200, Note_on_c, 4, 42, 77
9, 37200, Note_on_c, 4, 54, 96
9, 37200, Note_on_c, 4, 49, 84
9, 37221, Control_c, 4, 64, 0
9, 37293, Control_c, 4, 64, 127
9, 37350, Note_on_c, 4, 49, 0
9, 37350, Note_on_c, 4, 54, 0
9, 37350, Note_on_c, 4, 42, 0
9, 37410, Control_c, 4, 7, 81
9, 37440, Note_on_c, 4, 44, 75
9, 37440, Note_on_c, 4, 56, 92
9, 37440, Note_on_c, 4, 51, 109
9, 37446, Control_c, 4, 64, 0
9, 37556, Control_c, 4, 64, 127
9, 37631, Control_c, 4, 7, 80
9, 37635, Control_c, 4, 7, 79
9, 37689, Control_c, 4, 7, 78
9, 37729, Control_c, 4, 7, 77
9, 37734, Control_c, 4, 7, 76
9, 37740, Note_on_c, 4, 44, 0
9, 37770, Note_on_c, 4, 51, 0
9, 37770, Note_on_c, 4, 56, 0
9, 37800, Note_on_c, 4, 44, 73
9, 37800, Note_on_c, 4, 51, 100
9, 37800, Note_on_c, 4, 56, 86
9, 37830, Note_on_c, 4, 56, 0
9, 37830, Note_on_c, 4, 51, 0
9, 37830, Note_on_c, 4, 44, 0
9, 37900, Control_c, 4, 7, 77
9, 37911, Control_c, 4, 64, 0
9, 37916, Control_c, 4, 7, 78
9, 37920, Note_on_c, 4, 61, 92
9, 37920, Note_on_c, 4, 56, 96
9, 37920, Note_on_c, 4, 49, 79
9, 38035, Control_c, 4, 64, 127
9, 38100, Note_on_c, 4, 56, 0
9, 38100, Note_on_c, 4, 61, 0
9, 38130, Note_on_c, 4, 49, 0
9, 38217, Control_c, 4, 64, 0
9, 38220, Note_on_c, 4, 47, 78
9, 38220, Note_on_c, 4, 59, 94
9, 38220, Note_on_c, 4, 54, 100
9, 38266, Control_c, 4, 64, 127
9, 38280, Note_on_c, 4, 54, 0
9, 38280, Note_on_c, 4, 59, 0
9, 38280, Note_on_c, 4, 47, 0
9, 38340, Note_on_c, 4, 61, 96
9, 38340, Note_on_c, 4, 56, 96
9, 38340, Note_on_c, 4, 49, 86
9, 38358, Control_c, 4, 64, 0
9, 38370, Note_on_c, 4, 51, 64
9, 38400, Note_on_c, 4, 51, 0
9, 38460, Control_c, 4, 64, 127
9, 38525, Control_c, 4, 7, 79
9, 38550, Control_c, 4, 7, 80
9, 38605, Control_c, 4, 7, 81
9, 38625, Control_c, 4, 7, 82
9, 38700, Note_on_c, 4, 61, 0
9, 38700, Note_on_c, 4, 56, 0
9, 38700, Note_on_c, 4, 49, 0
9, 38740, Control_c, 4, 7, 83
9, 38892, Control_c, 4, 64, 0
9, 38922, Control_c, 4, 7, 84
9, 38937, Control_c, 4, 7, 85
9, 39078, Control_c, 4, 7, 84
9, 39078, End_track
10, 0, Start_track
10, 0, MIDI_port, 0
10, 0, Title_t, "Pad 1 (new age)"
10, 0, Control_c, 5, 0, 56
10, 0, Control_c, 5, 32, 0
10, 0, Program_c, 5, 88
10, 0, Control_c, 5, 7, 80
10, 0, Control_c, 5, 10, 50
10, 38880, Note_on_c, 5, 73, 127
10, 38910, Note_on_c, 5, 72, 127
10, 38911, Note_on_c, 5, 73, 0
10, 38940, Note_on_c, 5, 73, 127
10, 38945, Note_on_c, 5, 72, 0
10, 38953, Note_on_c, 5, 73, 0
10, 39000, Note_on_c, 5, 73, 127
10, 39030, Note_on_c, 5, 72, 127
10, 39036, Note_on_c, 5, 73, 0
10, 39060, Note_on_c, 5, 73, 127
10, 39063, Note_on_c, 5, 72, 0
10, 39072, Note_on_c, 5, 73, 0
10, 39120, Note_on_c, 5, 73, 127
10, 39150, Note_on_c, 5, 72, 127
10, 39154, Note_on_c, 5, 73, 0
10, 39180, Note_on_c, 5, 73, 127
10, 39183, Note_on_c, 5, 72, 0
10, 39210, Note_on_c, 5, 72, 127
10, 39214, Note_on_c, 5, 73, 0
10, 39240, Note_on_c, 5, 73, 127
10, 39241, Note_on_c, 5, 72, 0
10, 39253, Note_on_c, 5, 73, 0
10, 39330, Note_on_c, 5, 73, 127
10, 39360, Note_on_c, 5, 80, 127
10, 39362, Note_on_c, 5, 73, 0
10, 39390, Note_on_c, 5, 79, 127
10, 39392, Note_on_c, 5, 80, 0
10, 39420, Note_on_c, 5, 77, 127
10, 39424, Note_on_c, 5, 79, 0
10, 39450, Note_on_c, 5, 75, 127
10, 39454, Note_on_c, 5, 77, 0
10, 39480, Note_on_c, 5, 73, 127
10, 39484, Note_on_c, 5, 75, 0
10, 39510, Note_on_c, 5, 72, 127
10, 39512, Note_on_c, 5, 73, 0
10, 39540, Note_on_c, 5, 70, 127
10, 39541, Note_on_c, 5, 72, 0
10, 39570, Note_on_c, 5, 68, 127
10, 39579, Note_on_c, 5, 70, 0
10, 39600, Note_on_c, 5, 70, 127
10, 39604, Note_on_c, 5, 68, 0
10, 39630, Note_on_c, 5, 72, 127
10, 39635, Note_on_c, 5, 70, 0
10, 39660, Note_on_c, 5, 68, 127
10, 39664, Note_on_c, 5, 72, 0
10, 39690, Note_on_c, 5, 72, 127
10, 39692, Note_on_c, 5, 68, 0
10, 39720, Note_on_c, 5, 75, 127
10, 39724, Note_on_c, 5, 72, 0
10, 39737, Note_on_c, 5, 75, 0
10, 39840, Note_on_c, 5, 66, 127
10, 39870, Note_on_c, 5, 70, 127
10, 39873, Note_on_c, 5, 66, 0
10, 39900, Note_on_c, 5, 73, 127
10, 39904, Note_on_c, 5, 70, 0
10, 39930, Note_on_c, 5, 66, 127
10, 39937, Note_on_c, 5, 73, 0
10, 39960, Note_on_c, 5, 68, 127
10, 39964, Note_on_c, 5, 66, 0
10, 39990, Note_on_c, 5, 70, 127
10, 39991, Note_on_c, 5, 68, 0
10, 40020, Note_on_c, 5, 73, 127
10, 40028, Note_on_c, 5, 70, 0
10, 40050, Note_on_c, 5, 78, 127
10, 40051, Note_on_c, 5, 73, 0
10, 40080, Note_on_c, 5, 82, 127
10, 40084, Note_on_c, 5, 78, 0
10, 40103, Note_on_c, 5, 82, 0
10, 40320, Note_on_c, 5, 68, 127
10, 40350, Note_on_c, 5, 72, 127
10, 40353, Note_on_c, 5, 68, 0
10, 40380, Note_on_c, 5, 75, 127
10, 40382, Note_on_c, 5, 72, 0
10, 40410, Note_on_c, 5, 68, 127
10, 40416, Note_on_c, 5, 75, 0
10, 40440, Note_on_c, 5, 70, 127
10, 40445, Note_on_c, 5, 68, 0
10, 40470, Note_on_c, 5, 72, 127
10, 40475, Note_on_c, 5, 70, 0
10, 40500, Note_on_c, 5, 75, 127
10, 40505, Note_on_c, 5, 72, 0
10, 40530, Note_on_c, 5, 80, 127
10, 40536, Note_on_c, 5, 75, 0
10, 40560, Note_on_c, 5, 84, 127
10, 40561, Note_on_c, 5, 80, 0
10, 40586, Note_on_c, 5, 84, 0
10, 40800, Note_on_c, 5, 78, 127
10, 40830, Note_on_c, 5, 77, 127
10, 40833, Note_on_c, 5, 78, 0
10, 40860, Note_on_c, 5, 75, 127
10, 40864, Note_on_c, 5, 77, 0
10, 40879, Note_on_c, 5, 75, 0
10, 40920, Note_on_c, 5, 75, 127
10, 40950, Note_on_c, 5, 73, 127
10, 40952, Note_on_c, 5, 75, 0
10, 40980, Note_on_c, 5, 71, 127
10, 40983, Note_on_c, 5, 73, 0
10, 41000, Note_on_c, 5, 71, 0
10, 41040, Note_on_c, 5, 71, 127
10, 41070, Note_on_c, 5, 70, 127
10, 41071, Note_on_c, 5, 71, 0
10, 41100, Note_on_c, 5, 70, 0
10, 41100, Note_on_c, 5, 68, 127
10, 41118, Note_on_c, 5, 68, 0
10, 41220, Note_on_c, 5, 71, 127
10, 41250, Note_on_c, 5, 75, 127
10, 41251, Note_on_c, 5, 71, 0
10, 41273, Note_on_c, 5, 75, 0
10, 41280, Note_on_c, 5, 77, 127
10, 41310, Note_on_c, 5, 75, 127
10, 41312, Note_on_c, 5, 77, 0
10, 41339, Note_on_c, 5, 75, 0
10, 41340, Note_on_c, 5, 73, 127
10, 41352, Note_on_c, 5, 73, 0
10, 41400, Note_on_c, 5, 73, 127
10, 41430, Note_on_c, 5, 72, 127
10, 41434, Note_on_c, 5, 73, 0
10, 41460, Note_on_c, 5, 70, 127
10, 41462, Note_on_c, 5, 72, 0
10, 41474, Note_on_c, 5, 70, 0
10, 41520, Note_on_c, 5, 70, 127
10, 41550, Note_on_c, 5, 68, 127
10, 41553, Note_on_c, 5, 70, 0
10, 41579, Note_on_c, 5, 68, 0
10, 41580, Note_on_c, 5, 65, 127
10, 41594, Note_on_c, 5, 65, 0
10, 41760, Note_on_c, 5, 75, 127
10, 41790, Note_on_c, 5, 75, 0
10, 41790, Note_on_c, 5, 73, 127
10, 41819, Note_on_c, 5, 73, 0
10, 41820, Note_on_c, 5, 72, 127
10, 41850, Note_on_c, 5, 70, 127
10, 41856, Note_on_c, 5, 72, 0
10, 41880, Note_on_c, 5, 68, 127
10, 41882, Note_on_c, 5, 70, 0
10, 41910, Note_on_c, 5, 67, 127
10, 41918, Note_on_c, 5, 68, 0
10, 41940, Note_on_c, 5, 65, 127
10, 41947, Note_on_c, 5, 67, 0
10, 41970, Note_on_c, 5, 63, 127
10, 41973, Note_on_c, 5, 65, 0
10, 41992, Note_on_c, 5, 63, 0
10, 42197, Control_c, 5, 93, 33
10, 42210, Control_c, 5, 93, 10
10, 42210, Control_c, 5, 93, 21
10, 42221, Control_c, 5, 93, 0
10, 42221, Control_c, 5, 93, 2
10, 42231, Control_c, 5, 93, 1
10, 42236, Control_c, 5, 93, 0
10, 42240, Note_on_c, 5, 79, 127
10, 42270, Note_on_c, 5, 79, 0
10, 42270, Note_on_c, 5, 77, 127
10, 42294, Control_c, 5, 93, 2
10, 42300, Control_c, 5, 93, 6
10, 42300, Note_on_c, 5, 75, 127
10, 42304, Note_on_c, 5, 77, 0
10, 42307, Control_c, 5, 93, 8
10, 42320, Control_c, 5, 93, 12
10, 42325, Control_c, 5, 93, 21
10, 42330, Control_c, 5, 93, 29
10, 42330, Note_on_c, 5, 70, 127
10, 42335, Control_c, 5, 93, 33
10, 42339, Note_on_c, 5, 75, 0
10, 42344, Control_c, 5, 93, 42
10, 42360, Note_on_c, 5, 79, 127
10, 42362, Note_on_c, 5, 70, 0
10, 42362, Control_c, 5, 93, 54
10, 42367, Control_c, 5, 93, 63
10, 42390, Note_on_c, 5, 75, 127
10, 42394, Note_on_c, 5, 79, 0
10, 42420, Note_on_c, 5, 70, 127
10, 42426, Note_on_c, 5, 75, 0
10, 42440, Control_c, 5, 93, 70
10, 42450, Note_on_c, 5, 67, 127
10, 42455, Note_on_c, 5, 70, 0
10, 42470, Control_c, 5, 93, 75
10, 42476, Note_on_c, 5, 67, 0
10, 42480, Note_on_c, 5, 63, 127
10, 42492, Control_c, 5, 93, 84
10, 42497, Control_c, 5, 93, 89
10, 42520, Control_c, 5, 93, 93
10, 42524, Note_on_c, 5, 63, 0
10, 42680, Control_c, 5, 93, 88
10, 42695, Control_c, 5, 93, 84
10, 42720, Note_on_c, 5, 73, 127
10, 42727, Control_c, 5, 93, 81
10, 42750, Note_on_c, 5, 72, 127
10, 42751, Note_on_c, 5, 73, 0
10, 42760, Control_c, 5, 93, 79
10, 42780, Note_on_c, 5, 73, 127
10, 42785, Note_on_c, 5, 72, 0
10, 42793, Note_on_c, 5, 73, 0
10, 42840, Note_on_c, 5, 73, 127
10, 42870, Note_on_c, 5, 72, 127
10, 42876, Note_on_c, 5, 73, 0
10, 42891, Control_c, 5, 93, 81
10, 42900, Note_on_c, 5, 73, 127
10, 42903, Note_on_c, 5, 72, 0
10, 42912, Note_on_c, 5, 73, 0
10, 42920, Control_c, 5, 93, 84
10, 42960, Note_on_c, 5, 73, 127
10, 42990, Note_on_c, 5, 72, 127
10, 42994, Note_on_c, 5, 73, 0
10, 43020, Control_c, 5, 93, 88
10, 43020, Note_on_c, 5, 73, 127
10, 43023, Note_on_c, 5, 72, 0
10, 43027, Control_c, 5, 93, 93
10, 43034, Control_c, 5, 93, 95
10, 43044, Control_c, 5, 93, 97
10, 43050, Note_on_c, 5, 72, 127
10, 43054, Note_on_c, 5, 73, 0
10, 43080, Note_on_c, 5, 73, 127
10, 43081, Note_on_c, 5, 72, 0
10, 43093, Note_on_c, 5, 73, 0
10, 43167, Control_c, 5, 93, 95
10, 43170, Note_on_c, 5, 73, 127
10, 43200, Note_on_c, 5, 80, 127
10, 43202, Note_on_c, 5, 73, 0
10, 43230, Note_on_c, 5, 79, 127
10, 43232, Note_on_c, 5, 80, 0
10, 43260, Note_on_c, 5, 77, 127
10, 43264, Note_on_c, 5, 79, 0
10, 43290, Note_on_c, 5, 75, 127
10, 43294, Note_on_c, 5, 77, 0
10, 43299, Control_c, 5, 93, 91
10, 43309, Control_c, 5, 93, 87
10, 43320, Note_on_c, 5, 73, 127
10, 43324, Note_on_c, 5, 75, 0
10, 43350, Note_on_c, 5, 72, 127
10, 43352, Note_on_c, 5, 73, 0
10, 43380, Note_on_c, 5, 70, 127
10, 43381, Note_on_c, 5, 72, 0
10, 43410, Note_on_c, 5, 68, 127
10, 43419, Note_on_c, 5, 70, 0
10, 43440, Note_on_c, 5, 70, 127
10, 43444, Note_on_c, 5, 68, 0
10, 43470, Note_on_c, 5, 72, 127
10, 43475, Note_on_c, 5, 70, 0
10, 43500, Note_on_c, 5, 68, 127
10, 43504, Note_on_c, 5, 72, 0
10, 43530, Note_on_c, 5, 72, 127
10, 43532, Note_on_c, 5, 68, 0
10, 43560, Note_on_c, 5, 75, 127
10, 43564, Note_on_c, 5, 72, 0
10, 43577, Note_on_c, 5, 75, 0
10, 43602, Control_c, 5, 93, 84
10, 43680, Note_on_c, 5, 66, 127
10, 43710, Note_on_c, 5, 70, 127
10, 43713, Note_on_c, 5, 66, 0
10, 43740, Note_on_c, 5, 73, 127
10, 43744, Note_on_c, 5, 70, 0
10, 43770, Note_on_c, 5, 66, 127
10, 43777, Note_on_c, 5, 73, 0
10, 43800, Note_on_c, 5, 68, 127
10, 43804, Note_on_c, 5, 66, 0
10, 43830, Note_on_c, 5, 70, 127
10, 43831, Note_on_c, 5, 68, 0
10, 43860, Note_on_c, 5, 73, 127
10, 43868, Note_on_c, 5, 70, 0
10, 43873, Control_c, 5, 10, 52
10, 43890, Note_on_c, 5, 78, 127
10, 43891, Note_on_c, 5, 73, 0
10, 43920, Note_on_c, 5, 82, 127
10, 43924, Note_on_c, 5, 78, 0
10, 43943, Note_on_c, 5, 82, 0
10, 43943, Control_c, 5, 10, 55
10, 43962, Control_c, 5, 10, 59
10, 43972, Control_c, 5, 10, 63
10, 44107, Control_c, 5, 10, 67
10, 44125, Control_c, 5, 10, 72
10, 44146, Control_c, 5, 10, 73
10, 44160, Note_on_c, 5, 68, 127
10, 44190, Note_on_c, 5, 72, 127
10, 44193, Note_on_c, 5, 68, 0
10, 44213, Control_c, 5, 10, 78
10, 44220, Note_on_c, 5, 75, 127
10, 44222, Note_on_c, 5, 72, 0
10, 44250, Note_on_c, 5, 68, 127
10, 44256, Note_on_c, 5, 75, 0
10, 44280, Note_on_c, 5, 70, 127
10, 44285, Note_on_c, 5, 68, 0
10, 44310, Note_on_c, 5, 72, 127
10, 44315, Note_on_c, 5, 70, 0
10, 44340, Note_on_c, 5, 75, 127
10, 44345, Note_on_c, 5, 72, 0
10, 44370, Note_on_c, 5, 80, 127
10, 44376, Note_on_c, 5, 75, 0
10, 44400, Note_on_c, 5, 84, 127
10, 44401, Note_on_c, 5, 80, 0
10, 44401, Control_c, 5, 10, 80
10, 44426, Note_on_c, 5, 84, 0
10, 44452, Control_c, 5, 10, 84
10, 44630, Control_c, 5, 10, 88
10, 44640, Note_on_c, 5, 76, 127
10, 44670, Note_on_c, 5, 75, 127
10, 44671, Note_on_c, 5, 76, 0
10, 44684, Control_c, 5, 10, 91
10, 44694, Control_c, 5, 10, 93
10, 44700, Note_on_c, 5, 73, 127
10, 44703, Note_on_c, 5, 75, 0
10, 44703, Control_c, 5, 10, 89
10, 44728, Control_c, 5, 10, 91
10, 44730, Note_on_c, 5, 71, 127
10, 44732, Note_on_c, 5, 73, 0
10, 44760, Note_on_c, 5, 69, 127
10, 44767, Note_on_c, 5, 71, 0
10, 44777, Control_c, 5, 10, 93
10, 44790, Note_on_c, 5, 68, 127
10, 44795, Note_on_c, 5, 69, 0
10, 44810, Control_c, 5, 10, 90
10, 44815, Control_c, 5, 10, 92
10, 44820, Note_on_c, 5, 66, 127
10, 44824, Note_on_c, 5, 68, 0
10, 44832, Control_c, 5, 10, 89
10, 44845, Control_c, 5, 10, 88
10, 44850, Note_on_c, 5, 64, 127
10, 44855, Note_on_c, 5, 66, 0
10, 44880, Note_on_c, 5, 69, 127
10, 44885, Note_on_c, 5, 64, 0
10, 44910, Note_on_c, 5, 68, 127
10, 44913, Note_on_c, 5, 69, 0
10, 44940, Control_c, 5, 10, 86
10, 44940, Note_on_c, 5, 66, 127
10, 44942, Note_on_c, 5, 68, 0
10, 44954, Control_c, 5, 10, 84
10, 44959, Control_c, 5, 10, 83
10, 44970, Control_c, 5, 10, 81
10, 44970, Note_on_c, 5, 64, 127
10, 44976, Note_on_c, 5, 66, 0
10, 44976, Control_c, 5, 10, 79
10, 44981, Control_c, 5, 10, 78
10, 45000, Note_on_c, 5, 66, 127
10, 45003, Note_on_c, 5, 64, 0
10, 45012, Control_c, 5, 10, 76
10, 45030, Note_on_c, 5, 68, 127
10, 45034, Note_on_c, 5, 66, 0
10, 45034, Control_c, 5, 10, 74
10, 45044, Control_c, 5, 10, 72
10, 45060, Note_on_c, 5, 69, 127
10, 45064, Note_on_c, 5, 68, 0
10, 45090, Note_on_c, 5, 73, 127
10, 45095, Note_on_c, 5, 69, 0
10, 45110, Control_c, 5, 10, 70
10, 45115, Note_on_c, 5, 73, 0
10, 45120, Note_on_c, 5, 75, 127
10, 45127, Control_c, 5, 10, 68
10, 45135, Control_c, 5, 10, 65
10, 45150, Note_on_c, 5, 75, 0
10, 45150, Note_on_c, 5, 73, 127
10, 45155, Control_c, 5, 10, 63
10, 45180, Note_on_c, 5, 71, 127
10, 45184, Note_on_c, 5, 73, 0
10, 45210, Note_on_c, 5, 70, 127
10, 45213, Note_on_c, 5, 71, 0
10, 45213, Control_c, 5, 10, 61
10, 45229, Control_c, 5, 10, 58
10, 45240, Note_on_c, 5, 68, 127
10, 45247, Note_on_c, 5, 70, 0
10, 45267, Control_c, 5, 10, 56
10, 45270, Note_on_c, 5, 66, 127
10, 45277, Note_on_c, 5, 68, 0
10, 45300, Note_on_c, 5, 64, 127
10, 45304, Note_on_c, 5, 66, 0
10, 45323, Control_c, 5, 10, 54
10, 45330, Note_on_c, 5, 63, 127
10, 45336, Note_on_c, 5, 64, 0
10, 45360, Note_on_c, 5, 68, 127
10, 45363, Note_on_c, 5, 63, 0
10, 45372, Control_c, 5, 10, 51
10, 45390, Note_on_c, 5, 66, 127
10, 45393, Note_on_c, 5, 68, 0
10, 45393, Control_c, 5, 10, 48
10, 45398, Control_c, 5, 10, 47
10, 45413, Control_c, 5, 10, 46
10, 45420, Note_on_c, 5, 64, 127
10, 45424, Note_on_c, 5, 66, 0
10, 45427, Control_c, 5, 10, 44
10, 45450, Note_on_c, 5, 63, 127
10, 45457, Note_on_c, 5, 64, 0
10, 45457, Control_c, 5, 10, 42
10, 45469, Control_c, 5, 10, 40
10, 45480, Note_on_c, 5, 64, 127
10, 45488, Note_on_c, 5, 63, 0
10, 45510, Note_on_c, 5, 66, 127
10, 45514, Note_on_c, 5, 64, 0
10, 45540, Note_on_c, 5, 68, 127
10, 45544, Note_on_c, 5, 66, 0
10, 45570, Note_on_c, 5, 72, 127
10, 45574, Note_on_c, 5, 68, 0
10, 45594, Note_on_c, 5, 72, 0
10, 45600, Note_on_c, 5, 77, 127
10, 45602, Control_c, 5, 10, 42
10, 45630, Note_on_c, 5, 75, 127
10, 45631, Note_on_c, 5, 77, 0
10, 45645, Control_c, 5, 10, 44
10, 45660, Note_on_c, 5, 75, 0
10, 45660, Note_on_c, 5, 73, 127
10, 45690, Control_c, 5, 10, 46
10, 45702, Note_on_c, 5, 73, 0
10, 45702, Control_c, 5, 10, 48
10, 45703, Control_c, 5, 10, 51
10, 45790, Control_c, 5, 10, 53
10, 45815, Control_c, 5, 10, 56
10, 45820, Control_c, 5, 10, 60
10, 45850, Control_c, 5, 10, 63
10, 45905, Control_c, 5, 10, 66
10, 45914, Control_c, 5, 10, 70
10, 45930, Control_c, 5, 10, 73
10, 45995, Control_c, 5, 10, 75
10, 46025, Control_c, 5, 10, 77
10, 46060, Control_c, 5, 10, 80
10, 46110, Control_c, 5, 10, 82
10, 46115, Control_c, 5, 10, 84
10, 46500, Control_c, 5, 10, 82
10, 46590, Control_c, 5, 10, 84
10, 46605, Control_c, 5, 10, 87
10, 46615, Control_c, 5, 10, 89
10, 46675, Control_c, 5, 10, 91
10, 46687, Control_c, 5, 10, 94
10, 46692, Control_c, 5, 10, 96
10, 46712, Control_c, 5, 10, 99
10, 46780, Control_c, 5, 10, 96
10, 46792, Control_c, 5, 10, 93
10, 46870, Control_c, 5, 10, 90
10, 46890, Control_c, 5, 10, 88
10, 46899, Control_c, 5, 10, 86
10, 46930, Control_c, 5, 10, 84
10, 46950, Control_c, 5, 10, 83
10, 46998, Control_c, 5, 10, 81
10, 47008, Control_c, 5, 10, 80
10, 47015, Control_c, 5, 10, 78
10, 47015, End_track
11, 0, Start_track
11, 0, MIDI_port, 0
11, 0, Title_t, "Pad 1 (new age)"
11, 0, Control_c, 6, 0, 56
11, 0, Control_c, 6, 32, 0
11, 0, Program_c, 6, 88
11, 0, Control_c, 6, 7, 100
11, 0, Control_c, 6, 10, 64
11, 46260, Note_on_c, 6, 66, 127
11, 46360, Note_on_c, 6, 68, 127
11, 46387, Note_on_c, 6, 66, 0
11, 46460, Note_on_c, 6, 73, 127
11, 46487, Note_on_c, 6, 68, 0
11, 46560, Note_on_c, 6, 78, 127
11, 46587, Note_on_c, 6, 73, 0
11, 46660, Note_on_c, 6, 80, 127
11, 46687, Note_on_c, 6, 78, 0
11, 46760, Note_on_c, 6, 85, 127
11, 46787, Note_on_c, 6, 80, 0
11, 46887, Note_on_c, 6, 85, 0
11, 47040, Note_on_c, 6, 78, 127
11, 47167, Note_on_c, 6, 78, 0
11, 47220, Note_on_c, 6, 83, 127
11, 47437, Note_on_c, 6, 83, 0
11, 47460, Note_on_c, 6, 85, 127
11, 47587, Note_on_c, 6, 85, 0
11, 47880, Note_on_c, 6, 85, 127
11, 48000, Note_on_c, 6, 83, 127
11, 48007, Note_on_c, 6, 85, 0
11, 48120, Note_on_c, 6, 82, 127
11, 48127, Note_on_c, 6, 83, 0
11, 48240, Note_on_c, 6, 80, 127
11, 48247, Note_on_c, 6, 82, 0
11, 48360, Note_on_c, 6, 78, 127
11, 48367, Note_on_c, 6, 80, 0
11, 48480, Note_on_c, 6, 77, 127
11, 48487, Note_on_c, 6, 78, 0
11, 48607, Note_on_c, 6, 77, 0
11, 48720, Note_on_c, 6, 75, 127
11, 48840, Note_on_c, 6, 77, 127
11, 48847, Note_on_c, 6, 75, 0
11, 48960, Note_on_c, 6, 77, 127
11, 48967, Note_on_c, 6, 77, 0
11, 49087, Note_on_c, 6, 77, 0
11, 49140, Note_on_c, 6, 78, 127
11, 49267, Note_on_c, 6, 78, 0
11, 49320, Note_on_c, 6, 73, 127
11, 49380, Note_on_c, 6, 75, 127
11, 49447, Note_on_c, 6, 73, 0
11, 49507, Note_on_c, 6, 75, 0
11, 49740, Note_on_c, 6, 78, 127
11, 49860, Note_on_c, 6, 77, 127
11, 49867, Note_on_c, 6, 78, 0
11, 49987, Note_on_c, 6, 77, 0
11, 50220, Note_on_c, 6, 75, 127
11, 50340, Note_on_c, 6, 77, 127
11, 50347, Note_on_c, 6, 75, 0
11, 50467, Note_on_c, 6, 77, 0
11, 50880, Note_on_c, 6, 78, 127
11, 51007, Note_on_c, 6, 78, 0
11, 51060, Note_on_c, 6, 83, 127
11, 51187, Note_on_c, 6, 83, 0
11, 51300, Note_on_c, 6, 85, 127
11, 51427, Note_on_c, 6, 85, 0
11, 51720, Note_on_c, 6, 85, 127
11, 51840, Note_on_c, 6, 83, 127
11, 51847, Note_on_c, 6, 85, 0
11, 51960, Note_on_c, 6, 82, 127
11, 51967, Note_on_c, 6, 83, 0
11, 52080, Note_on_c, 6, 80, 127
11, 52087, Note_on_c, 6, 82, 0
11, 52200, Note_on_c, 6, 78, 127
11, 52207, Note_on_c, 6, 80, 0
11, 52320, Note_on_c, 6, 77, 127
11, 52327, Note_on_c, 6, 78, 0
11, 52447, Note_on_c, 6, 77, 0
11, 52560, Note_on_c, 6, 75, 127
11, 52680, Note_on_c, 6, 77, 127
11, 52687, Note_on_c, 6, 75, 0
11, 52800, Note_on_c, 6, 77, 127
11, 52807, Note_on_c, 6, 77, 0
11, 52927, Note_on_c, 6, 77, 0
11, 52980, Note_on_c, 6, 78, 127
11, 53107, Note_on_c, 6, 78, 0
11, 53160, Note_on_c, 6, 73, 127
11, 53220, Note_on_c, 6, 75, 127
11, 53287, Note_on_c, 6, 73, 0
11, 53347, Note_on_c, 6, 75, 0
11, 53580, Note_on_c, 6, 78, 127
11, 53700, Note_on_c, 6, 77, 127
11, 53707, Note_on_c, 6, 78, 0
11, 53827, Note_on_c, 6, 77, 0
11, 54060, Note_on_c, 6, 75, 127
11, 54180, Note_on_c, 6, 77, 127
11, 54187, Note_on_c, 6, 75, 0
11, 54307, Note_on_c, 6, 77, 0
11, 54720, Note_on_c, 6, 78, 127
11, 54847, Note_on_c, 6, 78, 0
11, 54900, Note_on_c, 6, 83, 127
11, 55027, Note_on_c, 6, 83, 0
11, 55140, Note_on_c, 6, 85, 127
11, 55267, Note_on_c, 6, 85, 0
11, 55560, Note_on_c, 6, 85, 127
11, 55680, Note_on_c, 6, 83, 127
11, 55687, Note_on_c, 6, 85, 0
11, 55800, Note_on_c, 6, 82, 127
11, 55807, Note_on_c, 6, 83, 0
11, 55920, Note_on_c, 6, 80, 127
11, 55927, Note_on_c, 6, 82, 0
11, 56040, Note_on_c, 6, 78, 127
11, 56047, Note_on_c, 6, 80, 0
11, 56160, Note_on_c, 6, 77, 127
11, 56167, Note_on_c, 6, 78, 0
11, 56287, Note_on_c, 6, 77, 0
11, 56400, Note_on_c, 6, 75, 127
11, 56520, Note_on_c, 6, 77, 127
11, 56527, Note_on_c, 6, 75, 0
11, 56640, Note_on_c, 6, 77, 127
11, 56647, Note_on_c, 6, 77, 0
11, 56767, Note_on_c, 6, 77, 0
11, 56820, Note_on_c, 6, 78, 127
11, 56947, Note_on_c, 6, 78, 0
11, 57000, Note_on_c, 6, 73, 127
11, 57060, Note_on_c, 6, 75, 127
11, 57127, Note_on_c, 6, 73, 0
11, 57187, Note_on_c, 6, 75, 0
11, 57420, Note_on_c, 6, 78, 127
11, 57540, Note_on_c, 6, 77, 127
11, 57547, Note_on_c, 6, 78, 0
11, 57667, Note_on_c, 6, 77, 0
11, 57900, Note_on_c, 6, 75, 127
11, 58020, Note_on_c, 6, 77, 127
11, 58027, Note_on_c, 6, 75, 0
11, 58147, Note_on_c, 6, 77, 0
11, 58560, Note_on_c, 6, 78, 127
11, 58687, Note_on_c, 6, 78, 0
11, 58740, Note_on_c, 6, 83, 127
11, 58867, Note_on_c, 6, 83, 0
11, 58980, Note_on_c, 6, 85, 127
11, 59107, Note_on_c, 6, 85, 0
11, 59400, Note_on_c, 6, 85, 127
11, 59520, Note_on_c, 6, 83, 127
11, 59527, Note_on_c, 6, 85, 0
11, 59640, Note_on_c, 6, 82, 127
11, 59647, Note_on_c, 6, 83, 0
11, 59760, Note_on_c, 6, 80, 127
11, 59767, Note_on_c, 6, 82, 0
11, 59880, Note_on_c, 6, 78, 127
11, 59887, Note_on_c, 6, 80, 0
11, 60000, Note_on_c, 6, 77, 127
11, 60007, Note_on_c, 6, 78, 0
11, 60127, Note_on_c, 6, 77, 0
11, 60240, Note_on_c, 6, 75, 127
11, 60360, Note_on_c, 6, 77, 127
11, 60367, Note_on_c, 6, 75, 0
11, 60480, Note_on_c, 6, 77, 127
11, 60487, Note_on_c, 6, 77, 0
11, 60607, Note_on_c, 6, 77, 0
11, 60660, Note_on_c, 6, 78, 127
11, 60787, Note_on_c, 6, 78, 0
11, 60840, Note_on_c, 6, 73, 127
11, 60900, Note_on_c, 6, 75, 127
11, 60967, Note_on_c, 6, 73, 0
11, 61027, Note_on_c, 6, 75, 0
11, 61260, Note_on_c, 6, 78, 127
11, 61380, Note_on_c, 6, 77, 127
11, 61387, Note_on_c, 6, 78, 0
11, 61507, Note_on_c, 6, 77, 0
11, 61740, Note_on_c, 6, 75, 127
11, 61860, Note_on_c, 6, 77, 127
11, 61867, Note_on_c, 6, 75, 0
11, 61987, Note_on_c, 6, 77, 0
11, 62400, Note_on_c, 6, 78, 127
11, 62527, Note_on_c, 6, 78, 0
11, 62580, Note_on_c, 6, 83, 127
11, 62707, Note_on_c, 6, 83, 0
11, 62820, Note_on_c, 6, 85, 127
11, 62947, Note_on_c, 6, 85, 0
11, 63240, Note_on_c, 6, 85, 127
11, 63360, Note_on_c, 6, 83, 127
11, 63367, Note_on_c, 6, 85, 0
11, 63480, Note_on_c, 6, 82, 127
11, 63487, Note_on_c, 6, 83, 0
11, 63600, Note_on_c, 6, 80, 127
11, 63607, Note_on_c, 6, 82, 0
11, 63720, Note_on_c, 6, 78, 127
11, 63727, Note_on_c, 6, 80, 0
11, 63840, Note_on_c, 6, 77, 127
11, 63847, Note_on_c, 6, 78, 0
11, 63967, Note_on_c, 6, 77, 0
11, 64080, Note_on_c, 6, 75, 127
11, 64200, Note_on_c, 6, 77, 127
11, 64207, Note_on_c, 6, 75, 0
11, 64320, Note_on_c, 6, 77, 127
11, 64327, Note_on_c, 6, 77, 0
11, 64447, Note_on_c, 6, 77, 0
11, 64500, Note_on_c, 6, 78, 127
11, 64627, Note_on_c, 6, 78, 0
11, 64680, Note_on_c, 6, 73, 127
11, 64740, Note_on_c, 6, 75, 127
11, 64807, Note_on_c, 6, 73, 0
11, 64867, Note_on_c, 6, 75, 0
11, 65100, Note_on_c, 6, 78, 127
11, 65220, Note_on_c, 6, 77, 127
11, 65227, Note_on_c, 6, 78, 0
11, 65347, Note_on_c, 6, 77, 0
11, 65580, Note_on_c, 6, 75, 127
11, 65700, Note_on_c, 6, 77, 127
11, 65707, Note_on_c, 6, 75, 0
11, 65827, Note_on_c, 6, 77, 0
11, 66240, Control_c, 6, 7, 109
11, 66240, Note_on_c, 6, 78, 127
11, 66250, Control_c, 6, 7, 108
11, 66280, Control_c, 6, 7, 107
11, 66320, Control_c, 6, 7, 106
11, 66350, Control_c, 6, 7, 105
11, 66367, Note_on_c, 6, 78, 0
11, 66390, Control_c, 6, 7, 104
11, 66420, Control_c, 6, 7, 103
11, 66420, Note_on_c, 6, 83, 122
11, 66460, Control_c, 6, 7, 102
11, 66490, Control_c, 6, 7, 101
11, 66530, Control_c, 6, 7, 100
11, 66547, Note_on_c, 6, 83, 0
11, 66570, Control_c, 6, 7, 99
11, 66600, Control_c, 6, 7, 98
11, 66640, Control_c, 6, 7, 97
11, 66660, Note_on_c, 6, 85, 114
11, 66670, Control_c, 6, 7, 96
11, 66710, Control_c, 6, 7, 95
11, 66740, Control_c, 6, 7, 94
11, 66780, Control_c, 6, 7, 93
11, 66787, Note_on_c, 6, 85, 0
11, 66810, Control_c, 6, 7, 92
11, 66850, Control_c, 6, 7, 91
11, 66890, Control_c, 6, 7, 90
11, 66920, Control_c, 6, 7, 89
11, 66960, Control_c, 6, 7, 88
11, 66990, Control_c, 6, 7, 87
11, 67030, Control_c, 6, 7, 86
11, 67060, Control_c, 6, 7, 85
11, 67080, Note_on_c, 6, 85, 101
11, 67100, Control_c, 6, 7, 84
11, 67130, Control_c, 6, 7, 83
11, 67170, Control_c, 6, 7, 82
11, 67200, Note_on_c, 6, 83, 98
11, 67207, Note_on_c, 6, 85, 0
11, 67210, Control_c, 6, 7, 81
11, 67240, Control_c, 6, 7, 80
11, 67280, Control_c, 6, 7, 79
11, 67310, Control_c, 6, 7, 78
11, 67320, Note_on_c, 6, 82, 94
11, 67327, Note_on_c, 6, 83, 0
11, 67350, Control_c, 6, 7, 77
11, 67380, Control_c, 6, 7, 76
11, 67420, Control_c, 6, 7, 75
11, 67440, Note_on_c, 6, 80, 90
11, 67447, Note_on_c, 6, 82, 0
11, 67450, Control_c, 6, 7, 74
11, 67490, Control_c, 6, 7, 73
11, 67530, Control_c, 6, 7, 72
11, 67560, Control_c, 6, 7, 71
11, 67560, Note_on_c, 6, 78, 86
11, 67567, Note_on_c, 6, 80, 0
11, 67600, Control_c, 6, 7, 70
11, 67630, Control_c, 6, 7, 69
11, 67670, Control_c, 6, 7, 68
11, 67680, Note_on_c, 6, 77, 83
11, 67687, Note_on_c, 6, 78, 0
11, 67700, Control_c, 6, 7, 67
11, 67740, Control_c, 6, 7, 66
11, 67770, Control_c, 6, 7, 65
11, 67807, Note_on_c, 6, 77, 0
11, 67810, Control_c, 6, 7, 64
11, 67850, Control_c, 6, 7, 63
11, 67880, Control_c, 6, 7, 62
11, 67920, Control_c, 6, 7, 61
11, 67920, Note_on_c, 6, 75, 75
11, 67950, Control_c, 6, 7, 60
11, 67990, Control_c, 6, 7, 59
11, 68020, Control_c, 6, 7, 58
11, 68040, Note_on_c, 6, 77, 71
11, 68047, Note_on_c, 6, 75, 0
11, 68060, Control_c, 6, 7, 57
11, 68090, Control_c, 6, 7, 56
11, 68130, Control_c, 6, 7, 55
11, 68160, Note_on_c, 6, 77, 68
11, 68167, Note_on_c, 6, 77, 0
11, 68170, Control_c, 6, 7, 54
11, 68200, Control_c, 6, 7, 53
11, 68240, Control_c, 6, 7, 52
11, 68270, Control_c, 6, 7, 51
11, 68287, Note_on_c, 6, 77, 0
11, 68310, Control_c, 6, 7, 50
11, 68340, Control_c, 6, 7, 49
11, 68340, Note_on_c, 6, 78, 62
11, 68380, Control_c, 6, 7, 48
11, 68410, Control_c, 6, 7, 47
11, 68450, Control_c, 6, 7, 46
11, 68467, Note_on_c, 6, 78, 0
11, 68490, Control_c, 6, 7, 45
11, 68520, Control_c, 6, 7, 44
11, 68520, Note_on_c, 6, 73, 57
11, 68560, Control_c, 6, 7, 43
11, 68580, Note_on_c, 6, 75, 55
11, 68590, Control_c, 6, 7, 42
11, 68630, Control_c, 6, 7, 41
11, 68647, Note_on_c, 6, 73, 0
11, 68660, Control_c, 6, 7, 40
11, 68700, Control_c, 6, 7, 39
11, 68707, Note_on_c, 6, 75, 0
11, 68730, Control_c, 6, 7, 38
11, 68770, Control_c, 6, 7, 37
11, 68810, Control_c, 6, 7, 36
11, 68840, Control_c, 6, 7, 35
11, 68880, Control_c, 6, 7, 34
11, 68910, Control_c, 6, 7, 33
11, 68940, Note_on_c, 6, 78, 43
11, 68950, Control_c, 6, 7, 32
11, 68980, Control_c, 6, 7, 31
11, 69020, Control_c, 6, 7, 30
11, 69050, Control_c, 6, 7, 29
11, 69060, Note_on_c, 6, 77, 40
11, 69067, Note_on_c, 6, 78, 0
11, 69090, Control_c, 6, 7, 28
11, 69130, Control_c, 6, 7, 27
11, 69160, Control_c, 6, 7, 26
11, 69187, Note_on_c, 6, 77, 0
11, 69200, Control_c, 6, 7, 25
11, 69230, Control_c, 6, 7, 24
11, 69270, Control_c, 6, 7, 23
11, 69300, Control_c, 6, 7, 22
11, 69340, Control_c, 6, 7, 21
11, 69370, Control_c, 6, 7, 20
11, 69410, Control_c, 6, 7, 19
11, 69420, Note_on_c, 6, 75, 29
11, 69450, Control_c, 6, 7, 18
11, 69480, Control_c, 6, 7, 17
11, 69520, Control_c, 6, 7, 16
11, 69540, Note_on_c, 6, 77, 25
11, 69547, Note_on_c, 6, 75, 0
11, 69550, Control_c, 6, 7, 15
11, 69590, Control_c, 6, 7, 14
11, 69620, Control_c, 6, 7, 13
11, 69660, Control_c, 6, 7, 12
11, 69667, Note_on_c, 6, 77, 0
11, 69690, Control_c, 6, 7, 11
11, 69730, Control_c, 6, 7, 10
11, 69770, Control_c, 6, 7, 9
11, 69800, Control_c, 6, 7, 8
11, 69840, Control_c, 6, 7, 7
11, 69870, Control_c, 6, 7, 6
11, 69910, Control_c, 6, 7, 5
11, 69940, Control_c, 6, 7, 4
11, 69980, Control_c, 6, 7, 3
11, 70010, Control_c, 6, 7, 2
11, 70050, Control_c, 6, 7, 1
11, 70050, End_track
12, 0, Start_track
12, 0, MIDI_port, 0
12, 0, Title_t, "Lead 4 (Mark's vocals)"
12, 0, Control_c, 7, 0, 56
12, 0, Control_c, 7, 32, 0
12, 0, Program_c, 7, 83
12, 0, Control_c, 7, 7, 100
12, 0, Control_c, 7, 10, 80
12, 8280, Note_on_c, 7, 61, 113
12, 8380, Note_on_c, 7, 61, 0
12, 8400, Note_on_c, 7, 59, 123
12, 8503, Note_on_c, 7, 59, 0
12, 8520, Note_on_c, 7, 56, 115
12, 8620, Note_on_c, 7, 56, 0
12, 8640, Note_on_c, 7, 59, 120
12, 8681, Note_on_c, 7, 59, 0
12, 8700, Note_on_c, 7, 59, 120
12, 8750, Note_on_c, 7, 59, 0
12, 8820, Note_on_c, 7, 59, 125
12, 8938, Note_on_c, 7, 59, 0
12, 8940, Note_on_c, 7, 56, 118
12, 8986, Control_c, 7, 64, 127
12, 9024, Note_on_c, 7, 56, 0
12, 9147, Control_c, 7, 64, 0
12, 9240, Note_on_c, 7, 61, 117
12, 9346, Note_on_c, 7, 61, 0
12, 9360, Note_on_c, 7, 59, 120
12, 9459, Note_on_c, 7, 59, 0
12, 9480, Note_on_c, 7, 56, 117
12, 9582, Note_on_c, 7, 56, 0
12, 9600, Note_on_c, 7, 59, 120
12, 9697, Note_on_c, 7, 59, 0
12, 9720, Note_on_c, 7, 59, 120
12, 9778, Note_on_c, 7, 59, 0
12, 9780, Note_on_c, 7, 61, 115
12, 9926, Note_on_c, 7, 61, 0
12, 9960, Note_on_c, 7, 59, 120
12, 10020, Note_on_c, 7, 58, 126
12, 10022, Note_on_c, 7, 59, 0
12, 10162, Note_on_c, 7, 58, 0
12, 10200, Note_on_c, 7, 58, 123
12, 10285, Note_on_c, 7, 58, 0
12, 10320, Note_on_c, 7, 58, 126
12, 10414, Note_on_c, 7, 58, 0
12, 10440, Note_on_c, 7, 58, 125
12, 10525, Note_on_c, 7, 58, 0
12, 10560, Note_on_c, 7, 58, 117
12, 10594, Note_on_c, 7, 58, 0
12, 10620, Note_on_c, 7, 58, 118
12, 10710, Note_on_c, 7, 58, 0
12, 10740, Note_on_c, 7, 58, 120
12, 10860, Note_on_c, 7, 56, 120
12, 10861, Note_on_c, 7, 58, 0
12, 11052, Note_on_c, 7, 56, 0
12, 11160, Note_on_c, 7, 56, 123
12, 11249, Note_on_c, 7, 56, 0
12, 11280, Note_on_c, 7, 59, 125
12, 11383, Note_on_c, 7, 59, 0
12, 11400, Note_on_c, 7, 61, 118
12, 11489, Note_on_c, 7, 61, 0
12, 11520, Note_on_c, 7, 61, 118
12, 11580, Note_on_c, 7, 56, 115
12, 11585, Note_on_c, 7, 61, 0
12, 11700, Note_on_c, 7, 56, 0
12, 11700, Note_on_c, 7, 59, 125
12, 11888, Note_on_c, 7, 59, 0
12, 12120, Note_on_c, 7, 61, 118
12, 12229, Note_on_c, 7, 61, 0
12, 12240, Note_on_c, 7, 59, 120
12, 12319, Note_on_c, 7, 59, 0
12, 12480, Note_on_c, 7, 59, 126
12, 12517, Note_on_c, 7, 59, 0
12, 12540, Note_on_c, 7, 59, 115
12, 12619, Note_on_c, 7, 59, 0
12, 12660, Note_on_c, 7, 59, 120
12, 12780, Note_on_c, 7, 56, 117
12, 12781, Note_on_c, 7, 59, 0
12, 12963, Note_on_c, 7, 56, 0
12, 13020, Note_on_c, 7, 56, 118
12, 13077, Note_on_c, 7, 56, 0
12, 13080, Note_on_c, 7, 61, 118
12, 13200, Note_on_c, 7, 59, 120
12, 13208, Note_on_c, 7, 61, 0
12, 13280, Note_on_c, 7, 59, 0
12, 13380, Note_on_c, 7, 56, 115
12, 13440, Note_on_c, 7, 59, 123
12, 13451, Note_on_c, 7, 56, 0
12, 13527, Note_on_c, 7, 59, 0
12, 13560, Note_on_c, 7, 59, 123
12, 13620, Note_on_c, 7, 61, 117
12, 13627, Note_on_c, 7, 59, 0
12, 13777, Note_on_c, 7, 61, 0
12, 13800, Note_on_c, 7, 59, 125
12, 13860, Note_on_c, 7, 58, 126
12, 13862, Note_on_c, 7, 59, 0
12, 14040, Note_on_c, 7, 56, 117
12, 14042, Note_on_c, 7, 58, 0
12, 14100, Note_on_c, 7, 56, 0
12, 14100, Note_on_c, 7, 54, 126
12, 14284, Note_on_c, 7, 54, 0
12, 14400, Note_on_c, 7, 58, 125
12, 14460, Note_on_c, 7, 59, 125
12, 14468, Note_on_c, 7, 58, 0
12, 14520, Note_on_c, 7, 61, 118
12, 14527, Note_on_c, 7, 59, 0
12, 14580, Note_on_c, 7, 63, 110
12, 14586, Note_on_c, 7, 61, 0
12, 14697, Note_on_c, 7, 63, 0
12, 14700, Note_on_c, 7, 61, 117
12, 14760, Note_on_c, 7, 59, 118
12, 14772, Note_on_c, 7, 61, 0
12, 14820, Note_on_c, 7, 61, 117
12, 14826, Note_on_c, 7, 59, 0
12, 14940, Note_on_c, 7, 59, 118
12, 14947, Note_on_c, 7, 61, 0
12, 15000, Note_on_c, 7, 56, 118
12, 15001, Note_on_c, 7, 59, 0
12, 15205, Note_on_c, 7, 56, 0
12, 15240, Note_on_c, 7, 56, 127
12, 15326, Note_on_c, 7, 56, 0
12, 15360, Note_on_c, 7, 56, 127
12, 15420, Note_on_c, 7, 58, 120
12, 15428, Note_on_c, 7, 56, 0
12, 15493, Note_on_c, 7, 58, 0
12, 15540, Note_on_c, 7, 58, 126
12, 15577, Control_c, 7, 64, 127
12, 15608, Note_on_c, 7, 58, 0
12, 15786, Control_c, 7, 64, 0
12, 15840, Note_on_c, 7, 58, 115
12, 15840, Note_on_c, 7, 61, 126
12, 16018, Note_on_c, 7, 58, 0
12, 16020, Note_on_c, 7, 61, 0
12, 16020, Note_on_c, 7, 63, 113
12, 16020, Note_on_c, 7, 59, 120
12, 16259, Note_on_c, 7, 59, 0
12, 16260, Note_on_c, 7, 64, 118
12, 16260, Note_on_c, 7, 61, 123
12, 16267, Note_on_c, 7, 63, 0
12, 16629, Note_on_c, 7, 61, 0
12, 16630, Note_on_c, 7, 64, 0
12, 16680, Note_on_c, 7, 64, 117
12, 16680, Note_on_c, 7, 61, 115
12, 16799, Note_on_c, 7, 61, 0
12, 16800, Note_on_c, 7, 63, 110
12, 16800, Note_on_c, 7, 59, 110
12, 16802, Note_on_c, 7, 64, 0
12, 16920, Note_on_c, 7, 61, 123
12, 16922, Note_on_c, 7, 59, 0
12, 16930, Note_on_c, 7, 63, 0
12, 17040, Note_on_c, 7, 59, 117
12, 17044, Note_on_c, 7, 61, 0
12, 17160, Note_on_c, 7, 58, 118
12, 17165, Note_on_c, 7, 59, 0
12, 17280, Note_on_c, 7, 49, 115
12, 17280, Note_on_c, 7, 56, 115
12, 17292, Note_on_c, 7, 58, 0
12, 17470, Note_on_c, 7, 56, 0
12, 17519, Note_on_c, 7, 49, 0
12, 17520, Note_on_c, 7, 54, 125
12, 17640, Note_on_c, 7, 56, 118
12, 17652, Note_on_c, 7, 54, 0
12, 17736, Note_on_c, 7, 56, 0
12, 17760, Note_on_c, 7, 56, 126
12, 17760, Note_on_c, 7, 53, 118
12, 17940, Note_on_c, 7, 58, 118
12, 17940, Note_on_c, 7, 54, 117
12, 17944, Note_on_c, 7, 53, 0
12, 17948, Note_on_c, 7, 56, 0
12, 18119, Note_on_c, 7, 54, 0
12, 18120, Note_on_c, 7, 61, 117
12, 18123, Note_on_c, 7, 58, 0
12, 18180, Note_on_c, 7, 59, 120
12, 18180, Note_on_c, 7, 56, 115
12, 18190, Note_on_c, 7, 61, 0
12, 18354, Note_on_c, 7, 56, 0
12, 18360, Note_on_c, 7, 58, 118
12, 18363, Note_on_c, 7, 59, 0
12, 18420, Note_on_c, 7, 56, 118
12, 18425, Note_on_c, 7, 58, 0
12, 18540, Note_on_c, 7, 54, 126
12, 18554, Note_on_c, 7, 56, 0
12, 18658, Note_on_c, 7, 54, 0
12, 18660, Note_on_c, 7, 56, 120
12, 18720, Note_on_c, 7, 49, 117
12, 18831, Control_c, 7, 64, 127
12, 18876, Note_on_c, 7, 49, 0
12, 18879, Note_on_c, 7, 56, 0
12, 19571, Control_c, 7, 64, 0
12, 19680, Note_on_c, 7, 58, 110
12, 19680, Note_on_c, 7, 61, 120
12, 19857, Note_on_c, 7, 58, 0
12, 19860, Note_on_c, 7, 63, 110
12, 19860, Note_on_c, 7, 59, 115
12, 19861, Note_on_c, 7, 61, 0
12, 20080, Note_on_c, 7, 63, 0
12, 20083, Note_on_c, 7, 59, 0
12, 20100, Note_on_c, 7, 64, 118
12, 20100, Note_on_c, 7, 61, 117
12, 20473, Note_on_c, 7, 61, 0
12, 20473, Note_on_c, 7, 64, 0
12, 20520, Note_on_c, 7, 61, 115
12, 20520, Note_on_c, 7, 64, 120
12, 20640, Note_on_c, 7, 63, 110
12, 20640, Note_on_c, 7, 59, 115
12, 20649, Note_on_c, 7, 64, 0
12, 20649, Note_on_c, 7, 61, 0
12, 20760, Note_on_c, 7, 61, 120
12, 20763, Note_on_c, 7, 59, 0
12, 20769, Note_on_c, 7, 63, 0
12, 20880, Note_on_c, 7, 59, 118
12, 20882, Note_on_c, 7, 61, 0
12, 21000, Note_on_c, 7, 58, 125
12, 21008, Note_on_c, 7, 59, 0
12, 21120, Note_on_c, 7, 49, 118
12, 21120, Note_on_c, 7, 56, 123
12, 21130, Note_on_c, 7, 58, 0
12, 21360, Note_on_c, 7, 54, 126
12, 21369, Note_on_c, 7, 56, 0
12, 21372, Note_on_c, 7, 49, 0
12, 21480, Note_on_c, 7, 56, 120
12, 21480, Note_on_c, 7, 53, 118
12, 21487, Note_on_c, 7, 54, 0
12, 21565, Note_on_c, 7, 53, 0
12, 21570, Note_on_c, 7, 56, 0
12, 21600, Note_on_c, 7, 56, 123
12, 21600, Note_on_c, 7, 53, 120
12, 21780, Note_on_c, 7, 54, 118
12, 21780, Note_on_c, 7, 58, 120
12, 21783, Note_on_c, 7, 53, 0
12, 21790, Note_on_c, 7, 56, 0
12, 21957, Note_on_c, 7, 58, 0
12, 21958, Note_on_c, 7, 54, 0
12, 21960, Note_on_c, 7, 61, 117
12, 22020, Note_on_c, 7, 59, 125
12, 22020, Note_on_c, 7, 56, 117
12, 22031, Note_on_c, 7, 61, 0
12, 22189, Note_on_c, 7, 56, 0
12, 22196, Note_on_c, 7, 59, 0
12, 22200, Note_on_c, 7, 58, 120
12, 22260, Note_on_c, 7, 56, 118
12, 22266, Note_on_c, 7, 58, 0
12, 22380, Note_on_c, 7, 54, 126
12, 22392, Note_on_c, 7, 56, 0
12, 22500, Note_on_c, 7, 56, 118
12, 22506, Note_on_c, 7, 54, 0
12, 22560, Note_on_c, 7, 49, 118
12, 22682, Control_c, 7, 64, 127
12, 22735, Note_on_c, 7, 56, 0
12, 22749, Note_on_c, 7, 49, 0
12, 23277, Control_c, 7, 64, 0
12, 23640, Note_on_c, 7, 61, 123
12, 23758, Note_on_c, 7, 61, 0
12, 23760, Note_on_c, 7, 59, 123
12, 23885, Note_on_c, 7, 59, 0
12, 23940, Note_on_c, 7, 56, 113
12, 24000, Note_on_c, 7, 59, 125
12, 24003, Note_on_c, 7, 56, 0
12, 24042, Note_on_c, 7, 59, 0
12, 24060, Note_on_c, 7, 59, 118
12, 24142, Note_on_c, 7, 59, 0
12, 24180, Note_on_c, 7, 59, 126
12, 24298, Note_on_c, 7, 59, 0
12, 24300, Note_on_c, 7, 56, 117
12, 24341, Control_c, 7, 64, 127
12, 24364, Note_on_c, 7, 56, 0
12, 24519, Control_c, 7, 64, 0
12, 24540, Note_on_c, 7, 56, 127
12, 24600, Note_on_c, 7, 61, 118
12, 24601, Note_on_c, 7, 56, 0
12, 24707, Note_on_c, 7, 61, 0
12, 24720, Note_on_c, 7, 59, 125
12, 24840, Note_on_c, 7, 59, 0
12, 24900, Note_on_c, 7, 56, 118
12, 24960, Note_on_c, 7, 59, 126
12, 24962, Note_on_c, 7, 56, 0
12, 24998, Note_on_c, 7, 59, 0
12, 25020, Note_on_c, 7, 59, 125
12, 25129, Note_on_c, 7, 59, 0
12, 25140, Note_on_c, 7, 61, 120
12, 25319, Note_on_c, 7, 61, 0
12, 25320, Note_on_c, 7, 59, 115
12, 25380, Note_on_c, 7, 58, 118
12, 25383, Note_on_c, 7, 59, 0
12, 25545, Note_on_c, 7, 58, 0
12, 25560, Note_on_c, 7, 58, 115
12, 25663, Note_on_c, 7, 58, 0
12, 25680, Note_on_c, 7, 58, 123
12, 25776, Note_on_c, 7, 58, 0
12, 25800, Note_on_c, 7, 58, 125
12, 25888, Note_on_c, 7, 58, 0
12, 25920, Note_on_c, 7, 58, 118
12, 25966, Note_on_c, 7, 58, 0
12, 25980, Note_on_c, 7, 58, 125
12, 26066, Note_on_c, 7, 58, 0
12, 26100, Note_on_c, 7, 58, 120
12, 26220, Note_on_c, 7, 56, 118
12, 26224, Note_on_c, 7, 58, 0
12, 26270, Control_c, 7, 64, 127
12, 26303, Note_on_c, 7, 56, 0
12, 26507, Control_c, 7, 64, 0
12, 26520, Note_on_c, 7, 56, 123
12, 26621, Note_on_c, 7, 56, 0
12, 26640, Note_on_c, 7, 59, 126
12, 26760, Note_on_c, 7, 61, 117
12, 26768, Note_on_c, 7, 59, 0
12, 26855, Note_on_c, 7, 61, 0
12, 26880, Note_on_c, 7, 61, 118
12, 26940, Note_on_c, 7, 56, 120
12, 26943, Note_on_c, 7, 61, 0
12, 27057, Note_on_c, 7, 56, 0
12, 27060, Note_on_c, 7, 59, 125
12, 27108, Control_c, 7, 64, 127
12, 27140, Note_on_c, 7, 59, 0
12, 27341, Control_c, 7, 64, 0
12, 27480, Note_on_c, 7, 61, 120
12, 27600, Note_on_c, 7, 59, 123
12, 27602, Note_on_c, 7, 61, 0
12, 27713, Note_on_c, 7, 59, 0
12, 27840, Note_on_c, 7, 59, 126
12, 27885, Note_on_c, 7, 59, 0
12, 27900, Note_on_c, 7, 59, 123
12, 27976, Note_on_c, 7, 59, 0
12, 28020, Note_on_c, 7, 59, 123
12, 28140, Note_on_c, 7, 59, 0
12, 28140, Note_on_c, 7, 56, 125
12, 28189, Control_c, 7, 64, 127
12, 28229, Note_on_c, 7, 56, 0
12, 28340, Control_c, 7, 64, 0
12, 28380, Note_on_c, 7, 56, 123
12, 28440, Note_on_c, 7, 61, 117
12, 28444, Note_on_c, 7, 56, 0
12, 28552, Note_on_c, 7, 61, 0
12, 28560, Note_on_c, 7, 59, 123
12, 28700, Note_on_c, 7, 59, 0
12, 28740, Note_on_c, 7, 56, 115
12, 28800, Note_on_c, 7, 59, 125
12, 28801, Note_on_c, 7, 56, 0
12, 28900, Note_on_c, 7, 59, 0
12, 28920, Note_on_c, 7, 59, 120
12, 28980, Note_on_c, 7, 61, 117
12, 28982, Note_on_c, 7, 59, 0
12, 29160, Note_on_c, 7, 59, 117
12, 29167, Note_on_c, 7, 61, 0
12, 29220, Note_on_c, 7, 58, 123
12, 29228, Note_on_c, 7, 59, 0
12, 29400, Note_on_c, 7, 56, 113
12, 29400, Note_on_c, 7, 54, 113
12, 29406, Note_on_c, 7, 58, 0
12, 29422, Note_on_c, 7, 54, 0
12, 29460, Note_on_c, 7, 54, 117
12, 29463, Note_on_c, 7, 56, 0
12, 29624, Note_on_c, 7, 54, 0
12, 29700, Note_on_c, 7, 54, 120
12, 29760, Note_on_c, 7, 58, 118
12, 29767, Note_on_c, 7, 54, 0
12, 29820, Note_on_c, 7, 58, 0
12, 29820, Note_on_c, 7, 59, 103
12, 29880, Note_on_c, 7, 61, 113
12, 29887, Note_on_c, 7, 59, 0
12, 29940, Note_on_c, 7, 63, 118
12, 29955, Note_on_c, 7, 61, 0
12, 30060, Note_on_c, 7, 61, 115
12, 30067, Note_on_c, 7, 63, 0
12, 30120, Note_on_c, 7, 61, 0
12, 30120, Note_on_c, 7, 59, 117
12, 30180, Note_on_c, 7, 61, 108
12, 30188, Note_on_c, 7, 59, 0
12, 30300, Note_on_c, 7, 59, 118
12, 30304, Note_on_c, 7, 61, 0
12, 30360, Note_on_c, 7, 56, 113
12, 30368, Note_on_c, 7, 59, 0
12, 30563, Note_on_c, 7, 56, 0
12, 30600, Note_on_c, 7, 56, 127
12, 30683, Note_on_c, 7, 56, 0
12, 30720, Note_on_c, 7, 56, 127
12, 30780, Note_on_c, 7, 58, 125
12, 30791, Note_on_c, 7, 56, 0
12, 30863, Note_on_c, 7, 58, 0
12, 30900, Note_on_c, 7, 58, 123
12, 31127, Note_on_c, 7, 58, 0
12, 31200, Note_on_c, 7, 58, 115
12, 31200, Note_on_c, 7, 61, 127
12, 31380, Note_on_c, 7, 63, 118
12, 31380, Note_on_c, 7, 59, 123
12, 31381, Note_on_c, 7, 58, 0
12, 31382, Note_on_c, 7, 61, 0
12, 31590, Note_on_c, 7, 59, 0
12, 31593, Note_on_c, 7, 63, 0
12, 31620, Note_on_c, 7, 64, 120
12, 31620, Note_on_c, 7, 61, 106
12, 31995, Note_on_c, 7, 64, 0
12, 32000, Note_on_c, 7, 61, 0
12, 32040, Note_on_c, 7, 64, 115
12, 32040, Note_on_c, 7, 61, 117
12, 32160, Note_on_c, 7, 63, 117
12, 32160, Note_on_c, 7, 59, 115
12, 32162, Note_on_c, 7, 61, 0
12, 32162, Note_on_c, 7, 64, 0
12, 32277, Note_on_c, 7, 59, 0
12, 32280, Note_on_c, 7, 58, 118
12, 32280, Note_on_c, 7, 61, 125
12, 32288, Note_on_c, 7, 63, 0
12, 32400, Note_on_c, 7, 56, 113
12, 32400, Note_on_c, 7, 59, 120
12, 32405, Note_on_c, 7, 58, 0
12, 32410, Note_on_c, 7, 61, 0
12, 32520, Note_on_c, 7, 54, 113
12, 32520, Note_on_c, 7, 58, 125
12, 32523, Note_on_c, 7, 56, 0
12, 32527, Note_on_c, 7, 59, 0
12, 32640, Note_on_c, 7, 56, 125
12, 32640, Note_on_c, 7, 49, 108
12, 32643, Note_on_c, 7, 54, 0
12, 32644, Note_on_c, 7, 58, 0
12, 32880, Note_on_c, 7, 54, 118
12, 32883, Note_on_c, 7, 49, 0
12, 32886, Note_on_c, 7, 56, 0
12, 33000, Note_on_c, 7, 53, 118
12, 33000, Note_on_c, 7, 56, 126
12, 33002, Note_on_c, 7, 54, 0
12, 33092, Note_on_c, 7, 56, 0
12, 33096, Note_on_c, 7, 53, 0
12, 33120, Note_on_c, 7, 56, 123
12, 33120, Note_on_c, 7, 53, 117
12, 33300, Note_on_c, 7, 58, 125
12, 33300, Note_on_c, 7, 54, 123
12, 33304, Note_on_c, 7, 53, 0
12, 33305, Note_on_c, 7, 56, 0
12, 33473, Note_on_c, 7, 58, 0
12, 33473, Note_on_c, 7, 54, 0
12, 33480, Note_on_c, 7, 61, 117
12, 33540, Note_on_c, 7, 56, 118
12, 33540, Note_on_c, 7, 59, 126
12, 33556, Note_on_c, 7, 61, 0
12, 33713, Note_on_c, 7, 56, 0
12, 33720, Note_on_c, 7, 58, 118
12, 33722, Note_on_c, 7, 59, 0
12, 33780, Note_on_c, 7, 56, 115
12, 33785, Note_on_c, 7, 58, 0
12, 33900, Note_on_c, 7, 54, 125
12, 33904, Note_on_c, 7, 56, 0
12, 34020, Note_on_c, 7, 56, 115
12, 34020, Note_on_c, 7, 49, 118
12, 34034, Note_on_c, 7, 54, 0
12, 34089, Control_c, 7, 64, 127
12, 34154, Note_on_c, 7, 49, 0
12, 34163, Note_on_c, 7, 56, 0
12, 34893, Control_c, 7, 64, 0
12, 35040, Note_on_c, 7, 61, 118
12, 35040, Note_on_c, 7, 58, 115
12, 35208, Note_on_c, 7, 58, 0
12, 35210, Note_on_c, 7, 61, 0
12, 35220, Note_on_c, 7, 59, 120
12, 35220, Note_on_c, 7, 63, 118
12, 35421, Note_on_c, 7, 63, 0
12, 35427, Note_on_c, 7, 59, 0
12, 35460, Note_on_c, 7, 64, 118
12, 35460, Note_on_c, 7, 61, 120
12, 35845, Note_on_c, 7, 64, 0
12, 35849, Note_on_c, 7, 61, 0
12, 35880, Note_on_c, 7, 61, 106
12, 35880, Note_on_c, 7, 64, 120
12, 35992, Note_on_c, 7, 61, 0
12, 35993, Note_on_c, 7, 64, 0
12, 36000, Note_on_c, 7, 63, 125
12, 36000, Note_on_c, 7, 59, 115
12, 36120, Note_on_c, 7, 58, 108
12, 36120, Note_on_c, 7, 61, 117
12, 36122, Note_on_c, 7, 59, 0
12, 36131, Note_on_c, 7, 63, 0
12, 36237, Note_on_c, 7, 58, 0
12, 36240, Note_on_c, 7, 56, 108
12, 36240, Note_on_c, 7, 59, 117
12, 36241, Note_on_c, 7, 61, 0
12, 36360, Note_on_c, 7, 54, 113
12, 36360, Note_on_c, 7, 58, 120
12, 36362, Note_on_c, 7, 56, 0
12, 36367, Note_on_c, 7, 59, 0
12, 36480, Note_on_c, 7, 56, 126
12, 36480, Note_on_c, 7, 49, 115
12, 36490, Note_on_c, 7, 54, 0
12, 36494, Note_on_c, 7, 58, 0
12, 36720, Note_on_c, 7, 54, 126
12, 36726, Note_on_c, 7, 56, 0
12, 36733, Note_on_c, 7, 49, 0
12, 36840, Note_on_c, 7, 56, 127
12, 36840, Note_on_c, 7, 53, 123
12, 36849, Note_on_c, 7, 54, 0
12, 36929, Note_on_c, 7, 56, 0
12, 36930, Note_on_c, 7, 53, 0
12, 36960, Note_on_c, 7, 56, 123
12, 36960, Note_on_c, 7, 53, 123
12, 37140, Note_on_c, 7, 54, 120
12, 37140, Note_on_c, 7, 58, 123
12, 37145, Note_on_c, 7, 53, 0
12, 37154, Note_on_c, 7, 56, 0
12, 37302, Note_on_c, 7, 58, 0
12, 37311, Note_on_c, 7, 54, 0
12, 37320, Note_on_c, 7, 61, 115
12, 37380, Note_on_c, 7, 59, 126
12, 37380, Note_on_c, 7, 56, 120
12, 37404, Note_on_c, 7, 61, 0
12, 37557, Note_on_c, 7, 59, 0
12, 37559, Note_on_c, 7, 56, 0
12, 37560, Note_on_c, 7, 58, 120
12, 37620, Note_on_c, 7, 56, 126
12, 37626, Note_on_c, 7, 58, 0
12, 37740, Note_on_c, 7, 54, 126
12, 37746, Note_on_c, 7, 56, 0
12, 37860, Note_on_c, 7, 56, 118
12, 37860, Note_on_c, 7, 49, 118
12, 37875, Note_on_c, 7, 54, 0
12, 38219, Note_on_c, 7, 49, 0
12, 38220, Note_on_c, 7, 47, 110
12, 38280, Note_on_c, 7, 51, 105
12, 38281, Note_on_c, 7, 47, 0
12, 38340, Note_on_c, 7, 51, 0
12, 38340, Note_on_c, 7, 49, 117
12, 38381, Control_c, 7, 64, 127
12, 38423, Note_on_c, 7, 56, 0
12, 38429, Note_on_c, 7, 49, 0
12, 38760, Control_c, 7, 64, 0
12, 39600, Note_on_c, 7, 51, 127
12, 39716, Note_on_c, 7, 51, 0
12, 39720, Note_on_c, 7, 56, 120
12, 39780, Note_on_c, 7, 58, 118
12, 39789, Note_on_c, 7, 56, 0
12, 39949, Control_c, 7, 64, 127
12, 39969, Note_on_c, 7, 58, 0
12, 40551, Control_c, 7, 64, 0
12, 40560, Note_on_c, 7, 56, 127
12, 40680, Note_on_c, 7, 61, 118
12, 40685, Note_on_c, 7, 56, 0
12, 40740, Note_on_c, 7, 63, 118
12, 40744, Note_on_c, 7, 61, 0
12, 40811, Control_c, 7, 64, 127
12, 40847, Note_on_c, 7, 63, 0
12, 41271, Control_c, 7, 64, 0
12, 41280, Note_on_c, 7, 61, 118
12, 41503, Note_on_c, 7, 61, 0
12, 41520, Note_on_c, 7, 56, 118
12, 41748, Note_on_c, 7, 56, 0
12, 41760, Note_on_c, 7, 55, 118
12, 41880, Note_on_c, 7, 56, 113
12, 41882, Note_on_c, 7, 55, 0
12, 41940, Note_on_c, 7, 58, 115
12, 41941, Note_on_c, 7, 56, 0
12, 42216, Control_c, 7, 64, 127
12, 42257, Note_on_c, 7, 58, 0
12, 42479, Control_c, 7, 64, 0
12, 42480, Note_on_c, 7, 56, 120
12, 42540, Note_on_c, 7, 58, 110
12, 42550, Note_on_c, 7, 56, 0
12, 42600, Note_on_c, 7, 56, 118
12, 42607, Note_on_c, 7, 58, 0
12, 42660, Note_on_c, 7, 51, 127
12, 42662, Note_on_c, 7, 56, 0
12, 42720, Note_on_c, 7, 49, 126
12, 42724, Note_on_c, 7, 51, 0
12, 42852, Control_c, 7, 64, 127
12, 42909, Note_on_c, 7, 49, 0
12, 43391, Control_c, 7, 64, 0
12, 43440, Note_on_c, 7, 51, 127
12, 43553, Note_on_c, 7, 51, 0
12, 43560, Note_on_c, 7, 56, 123
12, 43620, Note_on_c, 7, 58, 117
12, 43628, Note_on_c, 7, 56, 0
12, 43791, Control_c, 7, 64, 127
12, 43849, Note_on_c, 7, 58, 0
12, 44382, Control_c, 7, 64, 0
12, 44400, Note_on_c, 7, 56, 123
12, 44520, Note_on_c, 7, 63, 115
12, 44524, Note_on_c, 7, 56, 0
12, 44580, Note_on_c, 7, 64, 118
12, 44591, Note_on_c, 7, 63, 0
12, 44635, Control_c, 7, 64, 127
12, 44684, Note_on_c, 7, 64, 0
12, 44871, Control_c, 7, 64, 0
12, 44880, Note_on_c, 7, 61, 123
12, 45120, Note_on_c, 7, 59, 120
12, 45130, Note_on_c, 7, 61, 0
12, 45356, Note_on_c, 7, 59, 0
12, 45360, Note_on_c, 7, 54, 123
12, 45600, Note_on_c, 7, 53, 123
12, 45602, Note_on_c, 7, 54, 0
12, 45660, Control_c, 7, 64, 127
12, 45712, Note_on_c, 7, 53, 0
12, 46907, Control_c, 7, 64, 0
12, 47040, Note_on_c, 7, 58, 115
12, 47040, Note_on_c, 7, 61, 127
12, 47061, Note_on_c, 7, 47, 60
12, 47079, Note_on_c, 7, 47, 0
12, 47220, Note_on_c, 7, 63, 118
12, 47220, Note_on_c, 7, 59, 123
12, 47221, Note_on_c, 7, 58, 0
12, 47222, Note_on_c, 7, 61, 0
12, 47430, Note_on_c, 7, 59, 0
12, 47433, Note_on_c, 7, 63, 0
12, 47460, Note_on_c, 7, 64, 120
12, 47460, Note_on_c, 7, 61, 106
12, 47835, Note_on_c, 7, 64, 0
12, 47840, Note_on_c, 7, 61, 0
12, 47880, Note_on_c, 7, 64, 115
12, 47880, Note_on_c, 7, 61, 117
12, 48000, Note_on_c, 7, 63, 117
12, 48000, Note_on_c, 7, 59, 115
12, 48002, Note_on_c, 7, 61, 0
12, 48002, Note_on_c, 7, 64, 0
12, 48117, Note_on_c, 7, 59, 0
12, 48120, Note_on_c, 7, 58, 118
12, 48120, Note_on_c, 7, 61, 125
12, 48128, Note_on_c, 7, 63, 0
12, 48240, Note_on_c, 7, 56, 113
12, 48240, Note_on_c, 7, 59, 120
12, 48245, Note_on_c, 7, 58, 0
12, 48250, Note_on_c, 7, 61, 0
12, 48360, Note_on_c, 7, 54, 113
12, 48360, Note_on_c, 7, 58, 125
12, 48363, Note_on_c, 7, 56, 0
12, 48367, Note_on_c, 7, 59, 0
12, 48480, Note_on_c, 7, 56, 125
12, 48480, Note_on_c, 7, 49, 108
12, 48483, Note_on_c, 7, 54, 0
12, 48484, Note_on_c, 7, 58, 0
12, 48720, Note_on_c, 7, 54, 118
12, 48723, Note_on_c, 7, 49, 0
12, 48726, Note_on_c, 7, 56, 0
12, 48840, Note_on_c, 7, 53, 118
12, 48840, Note_on_c, 7, 56, 126
12, 48842, Note_on_c, 7, 54, 0
12, 48932, Note_on_c, 7, 56, 0
12, 48936, Note_on_c, 7, 53, 0
12, 48960, Note_on_c, 7, 56, 123
12, 48960, Note_on_c, 7, 53, 117
12, 49140, Note_on_c, 7, 58, 125
12, 49140, Note_on_c, 7, 54, 123
12, 49144, Note_on_c, 7, 53, 0
12, 49145, Note_on_c, 7, 56, 0
12, 49313, Note_on_c, 7, 58, 0
12, 49313, Note_on_c, 7, 54, 0
12, 49320, Note_on_c, 7, 61, 117
12, 49380, Note_on_c, 7, 56, 118
12, 49380, Note_on_c, 7, 59, 126
12, 49396, Note_on_c, 7, 61, 0
12, 49553, Note_on_c, 7, 56, 0
12, 49560, Note_on_c, 7, 58, 118
12, 49562, Note_on_c, 7, 59, 0
12, 49620, Note_on_c, 7, 56, 115
12, 49625, Note_on_c, 7, 58, 0
12, 49740, Note_on_c, 7, 54, 125
12, 49744, Note_on_c, 7, 56, 0
12, 49860, Note_on_c, 7, 56, 115
12, 49860, Note_on_c, 7, 49, 118
12, 49874, Note_on_c, 7, 54, 0
12, 49929, Control_c, 7, 64, 127
12, 49994, Note_on_c, 7, 49, 0
12, 50003, Note_on_c, 7, 56, 0
12, 50733, Control_c, 7, 64, 0
12, 50880, Note_on_c, 7, 61, 118
12, 50880, Note_on_c, 7, 58, 115
12, 51048, Note_on_c, 7, 58, 0
12, 51050, Note_on_c, 7, 61, 0
12, 51060, Note_on_c, 7, 59, 120
12, 51060, Note_on_c, 7, 63, 118
12, 51261, Note_on_c, 7, 63, 0
12, 51267, Note_on_c, 7, 59, 0
12, 51300, Note_on_c, 7, 64, 118
12, 51300, Note_on_c, 7, 61, 120
12, 51685, Note_on_c, 7, 64, 0
12, 51689, Note_on_c, 7, 61, 0
12, 51720, Note_on_c, 7, 61, 106
12, 51720, Note_on_c, 7, 64, 120
12, 51832, Note_on_c, 7, 61, 0
12, 51833, Note_on_c, 7, 64, 0
12, 51840, Note_on_c, 7, 63, 125
12, 51840, Note_on_c, 7, 59, 115
12, 51960, Note_on_c, 7, 58, 108
12, 51960, Note_on_c, 7, 61, 117
12, 51962, Note_on_c, 7, 59, 0
12, 51971, Note_on_c, 7, 63, 0
12, 52077, Note_on_c, 7, 58, 0
12, 52080, Note_on_c, 7, 56, 108
12, 52080, Note_on_c, 7, 59, 117
12, 52081, Note_on_c, 7, 61, 0
12, 52200, Note_on_c, 7, 54, 113
12, 52200, Note_on_c, 7, 58, 120
12, 52202, Note_on_c, 7, 56, 0
12, 52207, Note_on_c, 7, 59, 0
12, 52320, Note_on_c, 7, 56, 126
12, 52320, Note_on_c, 7, 49, 115
12, 52330, Note_on_c, 7, 54, 0
12, 52334, Note_on_c, 7, 58, 0
12, 52560, Note_on_c, 7, 54, 126
12, 52566, Note_on_c, 7, 56, 0
12, 52573, Note_on_c, 7, 49, 0
12, 52680, Note_on_c, 7, 56, 127
12, 52680, Note_on_c, 7, 53, 123
12, 52689, Note_on_c, 7, 54, 0
12, 52769, Note_on_c, 7, 56, 0
12, 52770, Note_on_c, 7, 53, 0
12, 52800, Note_on_c, 7, 56, 123
12, 52800, Note_on_c, 7, 53, 123
12, 52980, Note_on_c, 7, 54, 120
12, 52980, Note_on_c, 7, 58, 123
12, 52985, Note_on_c, 7, 53, 0
12, 52994, Note_on_c, 7, 56, 0
12, 53142, Note_on_c, 7, 58, 0
12, 53151, Note_on_c, 7, 54, 0
12, 53160, Note_on_c, 7, 61, 115
12, 53220, Note_on_c, 7, 59, 126
12, 53220, Note_on_c, 7, 56, 120
12, 53244, Note_on_c, 7, 61, 0
12, 53397, Note_on_c, 7, 59, 0
12, 53399, Note_on_c, 7, 56, 0
12, 53400, Note_on_c, 7, 58, 120
12, 53460, Note_on_c, 7, 56, 126
12, 53466, Note_on_c, 7, 58, 0
12, 53580, Note_on_c, 7, 54, 126
12, 53586, Note_on_c, 7, 56, 0
12, 53700, Note_on_c, 7, 56, 118
12, 53700, Note_on_c, 7, 49, 118
12, 53715, Note_on_c, 7, 54, 0
12, 54059, Note_on_c, 7, 49, 0
12, 54060, Note_on_c, 7, 47, 110
12, 54120, Note_on_c, 7, 51, 105
12, 54121, Note_on_c, 7, 47, 0
12, 54180, Note_on_c, 7, 51, 0
12, 54180, Note_on_c, 7, 49, 117
12, 54221, Control_c, 7, 64, 127
12, 54263, Note_on_c, 7, 56, 0
12, 54269, Note_on_c, 7, 49, 0
12, 54600, Control_c, 7, 64, 0
12, 54720, Note_on_c, 7, 58, 115
12, 54720, Note_on_c, 7, 61, 127
12, 54900, Note_on_c, 7, 63, 118
12, 54900, Note_on_c, 7, 59, 123
12, 54901, Note_on_c, 7, 58, 0
12, 54902, Note_on_c, 7, 61, 0
12, 55110, Note_on_c, 7, 59, 0
12, 55113, Note_on_c, 7, 63, 0
12, 55140, Note_on_c, 7, 64, 120
12, 55140, Note_on_c, 7, 61, 106
12, 55515, Note_on_c, 7, 64, 0
12, 55520, Note_on_c, 7, 61, 0
12, 55560, Note_on_c, 7, 64, 115
12, 55560, Note_on_c, 7, 61, 117
12, 55680, Note_on_c, 7, 63, 117
12, 55680, Note_on_c, 7, 59, 115
12, 55682, Note_on_c, 7, 61, 0
12, 55682, Note_on_c, 7, 64, 0
12, 55797, Note_on_c, 7, 59, 0
12, 55800, Note_on_c, 7, 58, 118
12, 55800, Note_on_c, 7, 61, 125
12, 55808, Note_on_c, 7, 63, 0
12, 55920, Note_on_c, 7, 56, 113
12, 55920, Note_on_c, 7, 59, 120
12, 55925, Note_on_c, 7, 58, 0
12, 55930, Note_on_c, 7, 61, 0
12, 56040, Note_on_c, 7, 54, 113
12, 56040, Note_on_c, 7, 58, 125
12, 56043, Note_on_c, 7, 56, 0
12, 56047, Note_on_c, 7, 59, 0
12, 56160, Note_on_c, 7, 56, 125
12, 56160, Note_on_c, 7, 49, 108
12, 56163, Note_on_c, 7, 54, 0
12, 56164, Note_on_c, 7, 58, 0
12, 56400, Note_on_c, 7, 54, 118
12, 56403, Note_on_c, 7, 49, 0
12, 56406, Note_on_c, 7, 56, 0
12, 56520, Note_on_c, 7, 53, 118
12, 56520, Note_on_c, 7, 56, 126
12, 56522, Note_on_c, 7, 54, 0
12, 56612, Note_on_c, 7, 56, 0
12, 56616, Note_on_c, 7, 53, 0
12, 56640, Note_on_c, 7, 56, 123
12, 56640, Note_on_c, 7, 53, 117
12, 56820, Note_on_c, 7, 58, 125
12, 56820, Note_on_c, 7, 54, 123
12, 56824, Note_on_c, 7, 53, 0
12, 56825, Note_on_c, 7, 56, 0
12, 56993, Note_on_c, 7, 58, 0
12, 56993, Note_on_c, 7, 54, 0
12, 57000, Note_on_c, 7, 61, 117
12, 57060, Note_on_c, 7, 56, 118
12, 57060, Note_on_c, 7, 59, 126
12, 57076, Note_on_c, 7, 61, 0
12, 57233, Note_on_c, 7, 56, 0
12, 57240, Note_on_c, 7, 58, 118
12, 57242, Note_on_c, 7, 59, 0
12, 57300, Note_on_c, 7, 56, 115
12, 57305, Note_on_c, 7, 58, 0
12, 57420, Note_on_c, 7, 54, 125
12, 57424, Note_on_c, 7, 56, 0
12, 57540, Note_on_c, 7, 56, 115
12, 57540, Note_on_c, 7, 49, 118
12, 57554, Note_on_c, 7, 54, 0
12, 57609, Control_c, 7, 64, 127
12, 57674, Note_on_c, 7, 49, 0
12, 57683, Note_on_c, 7, 56, 0
12, 58413, Control_c, 7, 64, 0
12, 58560, Note_on_c, 7, 61, 118
12, 58560, Note_on_c, 7, 58, 115
12, 58728, Note_on_c, 7, 58, 0
12, 58730, Note_on_c, 7, 61, 0
12, 58740, Note_on_c, 7, 59, 120
12, 58740, Note_on_c, 7, 63, 118
12, 58941, Note_on_c, 7, 63, 0
12, 58947, Note_on_c, 7, 59, 0
12, 58980, Note_on_c, 7, 64, 118
12, 58980, Note_on_c, 7, 61, 120
12, 59365, Note_on_c, 7, 64, 0
12, 59369, Note_on_c, 7, 61, 0
12, 59400, Note_on_c, 7, 61, 106
12, 59400, Note_on_c, 7, 64, 120
12, 59512, Note_on_c, 7, 61, 0
12, 59513, Note_on_c, 7, 64, 0
12, 59520, Note_on_c, 7, 63, 125
12, 59520, Note_on_c, 7, 59, 115
12, 59640, Note_on_c, 7, 58, 108
12, 59640, Note_on_c, 7, 61, 117
12, 59642, Note_on_c, 7, 59, 0
12, 59651, Note_on_c, 7, 63, 0
12, 59757, Note_on_c, 7, 58, 0
12, 59760, Note_on_c, 7, 56, 108
12, 59760, Note_on_c, 7, 59, 117
12, 59761, Note_on_c, 7, 61, 0
12, 59880, Note_on_c, 7, 54, 113
12, 59880, Note_on_c, 7, 58, 120
12, 59882, Note_on_c, 7, 56, 0
12, 59887, Note_on_c, 7, 59, 0
12, 60000, Note_on_c, 7, 56, 126
12, 60000, Note_on_c, 7, 49, 115
12, 60010, Note_on_c, 7, 54, 0
12, 60014, Note_on_c, 7, 58, 0
12, 60240, Note_on_c, 7, 54, 126
12, 60246, Note_on_c, 7, 56, 0
12, 60253, Note_on_c, 7, 49, 0
12, 60360, Note_on_c, 7, 56, 127
12, 60360, Note_on_c, 7, 53, 123
12, 60369, Note_on_c, 7, 54, 0
12, 60449, Note_on_c, 7, 56, 0
12, 60450, Note_on_c, 7, 53, 0
12, 60480, Note_on_c, 7, 56, 123
12, 60480, Note_on_c, 7, 53, 123
12, 60660, Note_on_c, 7, 54, 120
12, 60660, Note_on_c, 7, 58, 123
12, 60665, Note_on_c, 7, 53, 0
12, 60674, Note_on_c, 7, 56, 0
12, 60822, Note_on_c, 7, 58, 0
12, 60831, Note_on_c, 7, 54, 0
12, 60840, Note_on_c, 7, 61, 115
12, 60900, Note_on_c, 7, 59, 126
12, 60900, Note_on_c, 7, 56, 120
12, 60924, Note_on_c, 7, 61, 0
12, 61077, Note_on_c, 7, 59, 0
12, 61079, Note_on_c, 7, 56, 0
12, 61080, Note_on_c, 7, 58, 120
12, 61140, Note_on_c, 7, 56, 126
12, 61146, Note_on_c, 7, 58, 0
12, 61260, Note_on_c, 7, 54, 126
12, 61266, Note_on_c, 7, 56, 0
12, 61380, Note_on_c, 7, 56, 118
12, 61380, Note_on_c, 7, 49, 118
12, 61395, Note_on_c, 7, 54, 0
12, 61739, Note_on_c, 7, 49, 0
12, 61740, Note_on_c, 7, 47, 110
12, 61800, Note_on_c, 7, 51, 105
12, 61801, Note_on_c, 7, 47, 0
12, 61860, Note_on_c, 7, 51, 0
12, 61860, Note_on_c, 7, 49, 117
12, 61901, Control_c, 7, 64, 127
12, 61943, Note_on_c, 7, 56, 0
12, 61949, Note_on_c, 7, 49, 0
12, 62280, Control_c, 7, 64, 0
12, 62400, Note_on_c, 7, 58, 108
12, 62400, Note_on_c, 7, 61, 113
12, 62564, Note_on_c, 7, 58, 0
12, 62567, Note_on_c, 7, 61, 0
12, 62580, Note_on_c, 7, 59, 117
12, 62580, Note_on_c, 7, 63, 113
12, 62814, Note_on_c, 7, 59, 0
12, 62816, Note_on_c, 7, 63, 0
12, 62820, Note_on_c, 7, 64, 117
12, 62820, Note_on_c, 7, 61, 106
12, 63229, Note_on_c, 7, 64, 0
12, 63230, Note_on_c, 7, 61, 0
12, 63240, Note_on_c, 7, 64, 117
12, 63240, Note_on_c, 7, 61, 100
12, 63359, Note_on_c, 7, 61, 0
12, 63360, Note_on_c, 7, 63, 118
12, 63360, Note_on_c, 7, 59, 110
12, 63361, Note_on_c, 7, 64, 0
12, 63405, Control_c, 7, 64, 127
12, 63427, Note_on_c, 7, 63, 0
12, 63430, Note_on_c, 7, 59, 0
12, 64316, Control_c, 7, 64, 0
12, 64316, End_track
13, 0, Start_track
13, 0, MIDI_port, 0
13, 0, Title_t, "Voice Oohs (Mike's vocals)"
13, 0, Control_c, 8, 0, 56
13, 0, Control_c, 8, 32, 0
13, 0, Program_c, 8, 53
13, 0, Control_c, 8, 7, 115
13, 0, Control_c, 8, 10, 64
13, 24300, Note_on_c, 8, 63, 127
13, 24358, Note_on_c, 8, 63, 0
13, 24360, Note_on_c, 8, 64, 127
13, 24420, Note_on_c, 8, 66, 127
13, 24427, Note_on_c, 8, 64, 0
13, 24465, Control_c, 8, 64, 127
13, 24509, Note_on_c, 8, 66, 0
13, 25103, Control_c, 8, 64, 0
13, 25260, Note_on_c, 8, 64, 127
13, 25320, Note_on_c, 8, 63, 127
13, 25326, Note_on_c, 8, 64, 0
13, 25380, Note_on_c, 8, 63, 0
13, 25380, Note_on_c, 8, 61, 127
13, 25532, Control_c, 8, 64, 127
13, 25571, Note_on_c, 8, 61, 0
13, 26029, Control_c, 8, 64, 0
13, 26100, Note_on_c, 8, 61, 127
13, 26160, Note_on_c, 8, 63, 127
13, 26168, Note_on_c, 8, 61, 0
13, 26280, Note_on_c, 8, 59, 127
13, 26283, Note_on_c, 8, 63, 0
13, 26319, Note_on_c, 8, 59, 0
13, 26340, Note_on_c, 8, 59, 127
13, 26495, Control_c, 8, 64, 127
13, 26516, Note_on_c, 8, 59, 0
13, 27102, Control_c, 8, 64, 0
13, 28140, Note_on_c, 8, 66, 127
13, 28140, Note_on_c, 8, 63, 127
13, 28199, Note_on_c, 8, 63, 0
13, 28200, Note_on_c, 8, 64, 127
13, 28200, Note_on_c, 8, 68, 127
13, 28205, Note_on_c, 8, 66, 0
13, 28257, Note_on_c, 8, 64, 0
13, 28260, Note_on_c, 8, 71, 127
13, 28260, Note_on_c, 8, 66, 127
13, 28261, Note_on_c, 8, 68, 0
13, 28393, Control_c, 8, 64, 127
13, 28432, Note_on_c, 8, 66, 0
13, 28432, Note_on_c, 8, 71, 0
13, 28953, Control_c, 8, 64, 0
13, 29100, Note_on_c, 8, 70, 100
13, 29100, Note_on_c, 8, 66, 127
13, 29158, Note_on_c, 8, 66, 0
13, 29160, Note_on_c, 8, 64, 127
13, 29160, Note_on_c, 8, 68, 100
13, 29167, Note_on_c, 8, 70, 0
13, 29220, Note_on_c, 8, 61, 100
13, 29220, Note_on_c, 8, 66, 127
13, 29225, Note_on_c, 8, 68, 0
13, 29226, Note_on_c, 8, 64, 0
13, 29333, Control_c, 8, 64, 127
13, 29373, Note_on_c, 8, 61, 0
13, 29374, Note_on_c, 8, 66, 0
13, 29920, Control_c, 8, 64, 0
13, 30000, Note_on_c, 8, 66, 127
13, 30000, Note_on_c, 8, 63, 127
13, 30084, Note_on_c, 8, 63, 0
13, 30085, Note_on_c, 8, 66, 0
13, 30120, Note_on_c, 8, 63, 127
13, 30120, Note_on_c, 8, 66, 127
13, 30179, Note_on_c, 8, 63, 0
13, 30180, Note_on_c, 8, 68, 127
13, 30180, Note_on_c, 8, 64, 127
13, 30183, Note_on_c, 8, 66, 0
13, 30250, Control_c, 8, 64, 127
13, 30310, Note_on_c, 8, 64, 0
13, 30313, Note_on_c, 8, 68, 0
13, 30665, Control_c, 8, 64, 0
13, 30720, Note_on_c, 8, 64, 127
13, 30720, Note_on_c, 8, 68, 127
13, 30780, Note_on_c, 8, 70, 127
13, 30780, Note_on_c, 8, 66, 127
13, 30785, Note_on_c, 8, 68, 0
13, 30787, Note_on_c, 8, 64, 0
13, 30846, Note_on_c, 8, 66, 0
13, 30850, Note_on_c, 8, 70, 0
13, 30900, Note_on_c, 8, 70, 127
13, 30900, Note_on_c, 8, 66, 127
13, 30990, Control_c, 8, 64, 127
13, 31026, Note_on_c, 8, 66, 0
13, 31026, Note_on_c, 8, 70, 0
13, 31194, Control_c, 8, 64, 0
13, 31200, Note_on_c, 8, 66, 127
13, 31359, Note_on_c, 8, 66, 0
13, 31380, Note_on_c, 8, 71, 127
13, 31583, Note_on_c, 8, 71, 0
13, 31620, Note_on_c, 8, 73, 127
13, 31699, Control_c, 8, 64, 127
13, 31748, Note_on_c, 8, 73, 0
13, 32028, Control_c, 8, 64, 0
13, 32040, Note_on_c, 8, 73, 127
13, 32159, Note_on_c, 8, 73, 0
13, 32160, Note_on_c, 8, 71, 127
13, 32279, Note_on_c, 8, 71, 0
13, 32280, Note_on_c, 8, 70, 127
13, 32380, Note_on_c, 8, 70, 0
13, 32400, Note_on_c, 8, 68, 127
13, 32517, Note_on_c, 8, 68, 0
13, 32520, Note_on_c, 8, 66, 127
13, 32629, Note_on_c, 8, 66, 0
13, 32640, Note_on_c, 8, 65, 127
13, 32850, Note_on_c, 8, 65, 0
13, 32880, Note_on_c, 8, 63, 127
13, 33000, Note_on_c, 8, 63, 0
13, 33000, Note_on_c, 8, 65, 127
13, 33079, Note_on_c, 8, 65, 0
13, 33120, Note_on_c, 8, 65, 127
13, 33293, Note_on_c, 8, 65, 0
13, 33300, Note_on_c, 8, 66, 127
13, 33452, Note_on_c, 8, 66, 0
13, 33480, Note_on_c, 8, 61, 127
13, 33532, Note_on_c, 8, 61, 0
13, 33540, Note_on_c, 8, 63, 127
13, 33864, Note_on_c, 8, 63, 0
13, 33900, Note_on_c, 8, 66, 127
13, 33992, Note_on_c, 8, 66, 0
13, 34020, Note_on_c, 8, 65, 127
13, 34243, Control_c, 8, 64, 127
13, 34287, Note_on_c, 8, 65, 0
13, 34898, Control_c, 8, 64, 0
13, 35040, Note_on_c, 8, 66, 127
13, 35209, Note_on_c, 8, 66, 0
13, 35220, Note_on_c, 8, 71, 127
13, 35437, Note_on_c, 8, 71, 0
13, 35460, Note_on_c, 8, 73, 127
13, 35604, Control_c, 8, 64, 127
13, 35612, Note_on_c, 8, 73, 0
13, 35860, Control_c, 8, 64, 0
13, 35880, Note_on_c, 8, 73, 127
13, 35992, Note_on_c, 8, 73, 0
13, 36000, Note_on_c, 8, 71, 127
13, 36107, Note_on_c, 8, 71, 0
13, 36120, Note_on_c, 8, 70, 127
13, 36237, Note_on_c, 8, 70, 0
13, 36240, Note_on_c, 8, 68, 127
13, 36353, Note_on_c, 8, 68, 0
13, 36360, Note_on_c, 8, 66, 127
13, 36468, Note_on_c, 8, 66, 0
13, 36480, Note_on_c, 8, 65, 127
13, 36676, Note_on_c, 8, 65, 0
13, 36720, Note_on_c, 8, 63, 127
13, 36838, Note_on_c, 8, 63, 0
13, 36840, Note_on_c, 8, 65, 127
13, 36925, Note_on_c, 8, 65, 0
13, 36960, Note_on_c, 8, 65, 127
13, 37126, Note_on_c, 8, 65, 0
13, 37140, Note_on_c, 8, 66, 127
13, 37292, Note_on_c, 8, 66, 0
13, 37320, Note_on_c, 8, 61, 127
13, 37378, Note_on_c, 8, 61, 0
13, 37380, Note_on_c, 8, 63, 127
13, 37724, Note_on_c, 8, 63, 0
13, 37740, Note_on_c, 8, 66, 127
13, 37841, Note_on_c, 8, 66, 0
13, 37860, Note_on_c, 8, 65, 127
13, 38202, Note_on_c, 8, 65, 0
13, 38220, Note_on_c, 8, 63, 127
13, 38319, Note_on_c, 8, 63, 0
13, 38340, Note_on_c, 8, 61, 127
13, 38449, Control_c, 8, 64, 127
13, 38465, Note_on_c, 8, 61, 0
13, 38854, Control_c, 8, 64, 0
13, 39000, Note_on_c, 8, 68, 127
13, 39100, Note_on_c, 8, 68, 0
13, 39120, Note_on_c, 8, 68, 127
13, 39210, Note_on_c, 8, 68, 0
13, 39240, Note_on_c, 8, 68, 127
13, 39330, Note_on_c, 8, 68, 0
13, 39360, Note_on_c, 8, 68, 127
13, 39420, Note_on_c, 8, 63, 127
13, 39440, Note_on_c, 8, 68, 0
13, 39490, Note_on_c, 8, 63, 0
13, 39540, Note_on_c, 8, 63, 127
13, 39588, Control_c, 8, 64, 127
13, 39619, Note_on_c, 8, 63, 0
13, 39949, Control_c, 8, 64, 0
13, 39960, Note_on_c, 8, 68, 127
13, 40060, Note_on_c, 8, 68, 0
13, 40080, Note_on_c, 8, 68, 127
13, 40170, Note_on_c, 8, 68, 0
13, 40200, Note_on_c, 8, 70, 127
13, 40290, Note_on_c, 8, 70, 0
13, 40320, Note_on_c, 8, 68, 127
13, 40380, Note_on_c, 8, 66, 127
13, 40400, Note_on_c, 8, 68, 0
13, 40435, Note_on_c, 8, 66, 0
13, 40440, Note_on_c, 8, 65, 127
13, 40496, Note_on_c, 8, 65, 0
13, 40500, Note_on_c, 8, 63, 127
13, 40606, Control_c, 8, 64, 127
13, 40643, Note_on_c, 8, 63, 0
13, 40860, Control_c, 8, 64, 0
13, 40920, Note_on_c, 8, 66, 127
13, 41020, Note_on_c, 8, 66, 0
13, 41040, Note_on_c, 8, 66, 127
13, 41160, Note_on_c, 8, 68, 127
13, 41161, Note_on_c, 8, 66, 0
13, 41220, Note_on_c, 8, 65, 127
13, 41266, Note_on_c, 8, 68, 0
13, 41360, Note_on_c, 8, 65, 0
13, 41400, Note_on_c, 8, 63, 127
13, 41520, Note_on_c, 8, 63, 0
13, 41520, Note_on_c, 8, 61, 127
13, 41620, Note_on_c, 8, 61, 0
13, 41640, Note_on_c, 8, 65, 127
13, 41700, Note_on_c, 8, 63, 127
13, 41770, Note_on_c, 8, 65, 0
13, 41820, Note_on_c, 8, 61, 127
13, 41822, Note_on_c, 8, 63, 0
13, 41880, Note_on_c, 8, 61, 0
13, 41880, Note_on_c, 8, 58, 127
13, 42016, Control_c, 8, 64, 127
13, 42050, Note_on_c, 8, 58, 0
13, 42644, Control_c, 8, 64, 0
13, 42840, Note_on_c, 8, 68, 127
13, 42930, Note_on_c, 8, 68, 0
13, 42960, Note_on_c, 8, 68, 127
13, 43010, Note_on_c, 8, 68, 0
13, 43020, Note_on_c, 8, 68, 127
13, 43099, Note_on_c, 8, 68, 0
13, 43140, Note_on_c, 8, 68, 127
13, 43250, Note_on_c, 8, 68, 0
13, 43260, Note_on_c, 8, 63, 127
13, 43370, Note_on_c, 8, 63, 0
13, 43380, Note_on_c, 8, 63, 127
13, 43485, Control_c, 8, 64, 127
13, 43512, Note_on_c, 8, 63, 0
13, 43725, Control_c, 8, 64, 0
13, 43800, Note_on_c, 8, 68, 127
13, 43884, Note_on_c, 8, 68, 0
13, 43920, Note_on_c, 8, 68, 127
13, 44022, Note_on_c, 8, 68, 0
13, 44040, Note_on_c, 8, 70, 127
13, 44160, Note_on_c, 8, 68, 127
13, 44163, Note_on_c, 8, 70, 0
13, 44217, Note_on_c, 8, 68, 0
13, 44220, Note_on_c, 8, 66, 127
13, 44280, Note_on_c, 8, 65, 127
13, 44297, Note_on_c, 8, 66, 0
13, 44340, Note_on_c, 8, 65, 0
13, 44340, Note_on_c, 8, 63, 127
13, 44479, Control_c, 8, 64, 127
13, 44521, Note_on_c, 8, 63, 0
13, 44674, Control_c, 8, 64, 0
13, 44760, Note_on_c, 8, 64, 127
13, 44850, Note_on_c, 8, 64, 0
13, 44880, Note_on_c, 8, 64, 127
13, 44997, Note_on_c, 8, 64, 0
13, 45000, Note_on_c, 8, 68, 127
13, 45049, Note_on_c, 8, 68, 0
13, 45060, Note_on_c, 8, 66, 127
13, 45224, Note_on_c, 8, 66, 0
13, 45240, Note_on_c, 8, 63, 127
13, 45358, Note_on_c, 8, 63, 0
13, 45360, Note_on_c, 8, 59, 127
13, 45480, Note_on_c, 8, 63, 127
13, 45492, Note_on_c, 8, 59, 0
13, 45540, Note_on_c, 8, 61, 127
13, 45542, Note_on_c, 8, 63, 0
13, 45613, Control_c, 8, 64, 127
13, 45652, Note_on_c, 8, 61, 0
13, 46090, Control_c, 8, 64, 0
13, 47040, Note_on_c, 8, 66, 127
13, 47199, Note_on_c, 8, 66, 0
13, 47220, Note_on_c, 8, 71, 127
13, 47423, Note_on_c, 8, 71, 0
13, 47460, Note_on_c, 8, 73, 127
13, 47539, Control_c, 8, 64, 127
13, 47588, Note_on_c, 8, 73, 0
13, 47868, Control_c, 8, 64, 0
13, 47880, Note_on_c, 8, 73, 127
13, 47999, Note_on_c, 8, 73, 0
13, 48000, Note_on_c, 8, 71, 127
13, 48119, Note_on_c, 8, 71, 0
13, 48120, Note_on_c, 8, 70, 127
13, 48220, Note_on_c, 8, 70, 0
13, 48240, Note_on_c, 8, 68, 127
13, 48357, Note_on_c, 8, 68, 0
13, 48360, Note_on_c, 8, 66, 127
13, 48469, Note_on_c, 8, 66, 0
13, 48480, Note_on_c, 8, 65, 127
13, 48690, Note_on_c, 8, 65, 0
13, 48720, Note_on_c, 8, 63, 127
13, 48840, Note_on_c, 8, 63, 0
13, 48840, Note_on_c, 8, 65, 127
13, 48919, Note_on_c, 8, 65, 0
13, 48960, Note_on_c, 8, 65, 127
13, 49133, Note_on_c, 8, 65, 0
13, 49140, Note_on_c, 8, 66, 127
13, 49292, Note_on_c, 8, 66, 0
13, 49320, Note_on_c, 8, 61, 127
13, 49372, Note_on_c, 8, 61, 0
13, 49380, Note_on_c, 8, 63, 127
13, 49704, Note_on_c, 8, 63, 0
13, 49740, Note_on_c, 8, 66, 127
13, 49832, Note_on_c, 8, 66, 0
13, 49860, Note_on_c, 8, 65, 127
13, 50083, Control_c, 8, 64, 127
13, 50127, Note_on_c, 8, 65, 0
13, 50738, Control_c, 8, 64, 0
13, 50880, Note_on_c, 8, 66, 127
13, 51049, Note_on_c, 8, 66, 0
13, 51060, Note_on_c, 8, 71, 127
13, 51277, Note_on_c, 8, 71, 0
13, 51300, Note_on_c, 8, 73, 127
13, 51444, Control_c, 8, 64, 127
13, 51452, Note_on_c, 8, 73, 0
13, 51700, Control_c, 8, 64, 0
13, 51720, Note_on_c, 8, 73, 127
13, 51832, Note_on_c, 8, 73, 0
13, 51840, Note_on_c, 8, 71, 127
13, 51947, Note_on_c, 8, 71, 0
13, 51960, Note_on_c, 8, 70, 127
13, 52077, Note_on_c, 8, 70, 0
13, 52080, Note_on_c, 8, 68, 127
13, 52193, Note_on_c, 8, 68, 0
13, 52200, Note_on_c, 8, 66, 127
13, 52308, Note_on_c, 8, 66, 0
13, 52320, Note_on_c, 8, 65, 127
13, 52516, Note_on_c, 8, 65, 0
13, 52560, Note_on_c, 8, 63, 127
13, 52678, Note_on_c, 8, 63, 0
13, 52680, Note_on_c, 8, 65, 127
13, 52765, Note_on_c, 8, 65, 0
13, 52800, Note_on_c, 8, 65, 127
13, 52966, Note_on_c, 8, 65, 0
13, 52980, Note_on_c, 8, 66, 127
13, 53132, Note_on_c, 8, 66, 0
13, 53160, Note_on_c, 8, 61, 127
13, 53218, Note_on_c, 8, 61, 0
13, 53220, Note_on_c, 8, 63, 127
13, 53564, Note_on_c, 8, 63, 0
13, 53580, Note_on_c, 8, 66, 127
13, 53681, Note_on_c, 8, 66, 0
13, 53700, Note_on_c, 8, 65, 127
13, 54042, Note_on_c, 8, 65, 0
13, 54060, Note_on_c, 8, 63, 127
13, 54159, Note_on_c, 8, 63, 0
13, 54180, Note_on_c, 8, 61, 127
13, 54289, Control_c, 8, 64, 127
13, 54305, Note_on_c, 8, 61, 0
13, 54694, Control_c, 8, 64, 0
13, 54720, Note_on_c, 8, 66, 127
13, 54879, Note_on_c, 8, 66, 0
13, 54900, Note_on_c, 8, 71, 127
13, 55103, Note_on_c, 8, 71, 0
13, 55140, Note_on_c, 8, 73, 127
13, 55219, Control_c, 8, 64, 127
13, 55268, Note_on_c, 8, 73, 0
13, 55548, Control_c, 8, 64, 0
13, 55560, Note_on_c, 8, 73, 127
13, 55679, Note_on_c, 8, 73, 0
13, 55680, Note_on_c, 8, 71, 127
13, 55799, Note_on_c, 8, 71, 0
13, 55800, Note_on_c, 8, 70, 127
13, 55900, Note_on_c, 8, 70, 0
13, 55920, Note_on_c, 8, 68, 127
13, 56037, Note_on_c, 8, 68, 0
13, 56040, Note_on_c, 8, 66, 127
13, 56149, Note_on_c, 8, 66, 0
13, 56160, Note_on_c, 8, 65, 127
13, 56370, Note_on_c, 8, 65, 0
13, 56400, Note_on_c, 8, 63, 127
13, 56520, Note_on_c, 8, 63, 0
13, 56520, Note_on_c, 8, 65, 127
13, 56599, Note_on_c, 8, 65, 0
13, 56640, Note_on_c, 8, 65, 127
13, 56813, Note_on_c, 8, 65, 0
13, 56820, Note_on_c, 8, 66, 127
13, 56972, Note_on_c, 8, 66, 0
13, 57000, Note_on_c, 8, 61, 127
13, 57052, Note_on_c, 8, 61, 0
13, 57060, Note_on_c, 8, 63, 127
13, 57384, Note_on_c, 8, 63, 0
13, 57420, Note_on_c, 8, 66, 127
13, 57512, Note_on_c, 8, 66, 0
13, 57540, Note_on_c, 8, 65, 127
13, 57763, Control_c, 8, 64, 127
13, 57807, Note_on_c, 8, 65, 0
13, 58418, Control_c, 8, 64, 0
13, 58560, Note_on_c, 8, 66, 127
13, 58729, Note_on_c, 8, 66, 0
13, 58740, Note_on_c, 8, 71, 127
13, 58957, Note_on_c, 8, 71, 0
13, 58980, Note_on_c, 8, 73, 127
13, 59124, Control_c, 8, 64, 127
13, 59132, Note_on_c, 8, 73, 0
13, 59380, Control_c, 8, 64, 0
13, 59400, Note_on_c, 8, 73, 127
13, 59512, Note_on_c, 8, 73, 0
13, 59520, Note_on_c, 8, 71, 127
13, 59627, Note_on_c, 8, 71, 0
13, 59640, Note_on_c, 8, 70, 127
13, 59757, Note_on_c, 8, 70, 0
13, 59760, Note_on_c, 8, 68, 127
13, 59873, Note_on_c, 8, 68, 0
13, 59880, Note_on_c, 8, 66, 127
13, 59988, Note_on_c, 8, 66, 0
13, 60000, Note_on_c, 8, 65, 127
13, 60196, Note_on_c, 8, 65, 0
13, 60240, Note_on_c, 8, 63, 127
13, 60358, Note_on_c, 8, 63, 0
13, 60360, Note_on_c, 8, 65, 127
13, 60445, Note_on_c, 8, 65, 0
13, 60480, Note_on_c, 8, 65, 127
13, 60646, Note_on_c, 8, 65, 0
13, 60660, Note_on_c, 8, 66, 127
13, 60812, Note_on_c, 8, 66, 0
13, 60840, Note_on_c, 8, 61, 127
13, 60898, Note_on_c, 8, 61, 0
13, 60900, Note_on_c, 8, 63, 127
13, 61244, Note_on_c, 8, 63, 0
13, 61260, Note_on_c, 8, 66, 127
13, 61361, Note_on_c, 8, 66, 0
13, 61380, Note_on_c, 8, 65, 127
13, 61722, Note_on_c, 8, 65, 0
13, 61740, Note_on_c, 8, 63, 127
13, 61839, Note_on_c, 8, 63, 0
13, 61860, Note_on_c, 8, 61, 127
13, 61969, Control_c, 8, 64, 127
13, 61985, Note_on_c, 8, 61, 0
13, 62374, Control_c, 8, 64, 0
13, 62374, End_track
14, 0, Start_track
14, 0, MIDI_port, 0
14, 0, Title_t, "String Ensemble"
14, 0, Control_c, 10, 0, 56
14, 0, Control_c, 10, 32, 0
14, 0, Program_c, 10, 48
14, 0, Control_c, 10, 7, 90
14, 0, Control_c, 10, 10, 80
14, 38880, Note_on_c, 10, 82, 127
14, 38880, Note_on_c, 10, 58, 127
14, 39352, Note_on_c, 10, 58, 0
14, 39352, Note_on_c, 10, 82, 0
14, 39360, Note_on_c, 10, 77, 127
14, 39360, Note_on_c, 10, 53, 127
14, 39824, Note_on_c, 10, 53, 0
14, 39824, Note_on_c, 10, 77, 0
14, 39840, Note_on_c, 10, 78, 127
14, 39840, Note_on_c, 10, 54, 127
14, 40295, Note_on_c, 10, 54, 0
14, 40295, Note_on_c, 10, 78, 0
14, 40320, Note_on_c, 10, 80, 127
14, 40320, Note_on_c, 10, 56, 127
14, 40777, Note_on_c, 10, 56, 0
14, 40777, Note_on_c, 10, 80, 0
14, 40800, Note_on_c, 10, 83, 127
14, 40800, Note_on_c, 10, 59, 127
14, 41265, Note_on_c, 10, 59, 0
14, 41265, Note_on_c, 10, 83, 0
14, 41280, Note_on_c, 10, 82, 127
14, 41280, Note_on_c, 10, 58, 127
14, 41748, Note_on_c, 10, 58, 0
14, 41748, Note_on_c, 10, 82, 0
14, 41760, Note_on_c, 10, 87, 127
14, 41760, Note_on_c, 10, 63, 127
14, 42359, Control_c, 10, 64, 127
14, 42383, Note_on_c, 10, 63, 0
14, 42383, Note_on_c, 10, 87, 0
14, 42687, Control_c, 10, 64, 0
14, 42720, Note_on_c, 10, 82, 127
14, 42720, Note_on_c, 10, 58, 127
14, 43173, Note_on_c, 10, 58, 0
14, 43173, Note_on_c, 10, 82, 0
14, 43200, Note_on_c, 10, 77, 127
14, 43200, Note_on_c, 10, 53, 127
14, 43659, Note_on_c, 10, 53, 0
14, 43659, Note_on_c, 10, 77, 0
14, 43680, Note_on_c, 10, 78, 127
14, 43680, Note_on_c, 10, 54, 127
14, 44141, Note_on_c, 10, 54, 0
14, 44141, Note_on_c, 10, 78, 0
14, 44160, Note_on_c, 10, 80, 127
14, 44160, Note_on_c, 10, 56, 127
14, 44620, Note_on_c, 10, 56, 0
14, 44620, Note_on_c, 10, 80, 0
14, 44640, Note_on_c, 10, 57, 127
14, 44640, Note_on_c, 10, 81, 127
14, 45100, Note_on_c, 10, 81, 0
14, 45100, Note_on_c, 10, 57, 0
14, 45120, Note_on_c, 10, 56, 127
14, 45120, Note_on_c, 10, 80, 127
14, 45580, Note_on_c, 10, 80, 0
14, 45580, Note_on_c, 10, 56, 0
14, 45600, Note_on_c, 10, 85, 127
14, 45600, Note_on_c, 10, 61, 127
14, 46070, Note_on_c, 10, 61, 0
14, 46070, Note_on_c, 10, 85, 0
14, 46080, Note_on_c, 10, 82, 127
14, 46080, Note_on_c, 10, 58, 127
14, 46131, Control_c, 10, 64, 127
14, 46158, Note_on_c, 10, 58, 0
14, 46158, Note_on_c, 10, 82, 0
14, 47026, Control_c, 10, 64, 0
14, 47026, End_track
15, 0, Start_track
15, 0, MIDI_port, 0
15, 0, Title_t, "**************************"
15, 0, End_track
16, 0, Start_track
16, 0, MIDI_port, 0
16, 0, Title_t, """Guaranteed"""
16, 0, End_track
17, 0, Start_track
17, 0, MIDI_port, 0
17, 0, Title_t, "By: Level 42 -"
17, 0, End_track
18, 0, Start_track
18, 0, MIDI_port, 0
18, 0, Title_t, "Main Sequencing"
18, 0, End_track
19, 0, Start_track
19, 0, MIDI_port, 0
19, 0, Title_t, "by: Charl Mocke"
19, 0, End_track
20, 0, Start_track
20, 0, MIDI_port, 0
20, 0, Title_t, "Additional Seq."
20, 0, End_track
21, 0, Start_track
21, 0, MIDI_port, 0
21, 0, Title_t, "by: Sean Green"
21, 0, End_track
22, 0, Start_track
22, 0, MIDI_port, 0
22, 0, Title_t, "***************************"
22, 0, End_track
0, 0, End_of_file
