0, 0, Header, 0, 1, 96
1, 0, Start_track
1, 0, Title_t, "GUILTY                          ;Barry Gibb / Robin Gibb / Maurice Gibb"
1, 0, Copyright_t, "(C) 1994 Tune 1000 Corporation  ;1980 Gibb Bros. Music (BMI). Int'l Rights Secured."
1, 0, Time_signature, 4, 2, 24, 8
1, 0, Tempo, 789474
1, 0, Key_signature, 0, "major"
1, 0, System_exclusive, 5, 126, 127, 9, 1, 247
1, 0, Text_t, "Back Vocal"
1, 0, Lyric_t, "ALL rights reserved. Not for broadcast or "
1, 0, Lyric_t, "\015"
1, 0, Lyric_t, "transmission of any kind. "
1, 0, Lyric_t, "\015"
1, 0, Lyric_t, "DO NOT DUPLICATE. NOT FOR RENTAL. "
1, 0, Lyric_t, "\015"
1, 98, Program_c, 0, 0
1, 99, Control_c, 0, 7, 95
1, 99, Control_c, 0, 10, 64
1, 99, Control_c, 0, 11, 127
1, 100, Control_c, 0, 91, 80
1, 100, Control_c, 0, 93, 0
1, 103, Program_c, 1, 35
1, 104, Control_c, 1, 7, 105
1, 104, Control_c, 1, 10, 64
1, 104, Control_c, 1, 11, 127
1, 105, Control_c, 1, 91, 20
1, 105, Control_c, 1, 93, 30
1, 108, Program_c, 2, 4
1, 109, Control_c, 2, 7, 86
1, 109, Control_c, 2, 10, 80
1, 109, Control_c, 2, 11, 127
1, 110, Control_c, 2, 91, 40
1, 110, Control_c, 2, 93, 64
1, 113, Program_c, 3, 0
1, 114, Control_c, 3, 7, 100
1, 114, Control_c, 3, 10, 64
1, 114, Control_c, 3, 11, 127
1, 115, Control_c, 3, 91, 60
1, 115, Control_c, 3, 93, 10
1, 118, Program_c, 4, 24
1, 119, Control_c, 4, 7, 70
1, 119, Control_c, 4, 10, 64
1, 119, Control_c, 4, 11, 127
1, 120, Control_c, 4, 91, 65
1, 120, Control_c, 4, 93, 26
1, 123, Program_c, 5, 24
1, 124, Control_c, 5, 7, 100
1, 124, Control_c, 5, 10, 64
1, 124, Control_c, 5, 11, 127
1, 125, Control_c, 5, 91, 65
1, 125, Control_c, 5, 93, 26
1, 128, Program_c, 6, 25
1, 129, Control_c, 6, 7, 75
1, 129, Control_c, 6, 10, 94
1, 129, Control_c, 6, 11, 127
1, 130, Control_c, 6, 91, 40
1, 130, Control_c, 6, 93, 40
1, 133, Program_c, 7, 28
1, 134, Control_c, 7, 7, 95
1, 134, Control_c, 7, 10, 34
1, 134, Control_c, 7, 11, 127
1, 135, Control_c, 7, 91, 40
1, 135, Control_c, 7, 93, 20
1, 138, Program_c, 8, 28
1, 139, Control_c, 8, 7, 85
1, 139, Control_c, 8, 10, 94
1, 139, Control_c, 8, 11, 127
1, 140, Control_c, 8, 91, 40
1, 140, Control_c, 8, 93, 20
1, 144, Control_c, 9, 7, 105
1, 144, Control_c, 9, 11, 127
1, 145, Control_c, 9, 91, 45
1, 145, Control_c, 9, 93, 0
1, 148, Program_c, 10, 51
1, 149, Control_c, 10, 7, 105
1, 149, Control_c, 10, 10, 64
1, 149, Control_c, 10, 11, 127
1, 150, Control_c, 10, 91, 80
1, 150, Control_c, 10, 93, 10
1, 153, Program_c, 11, 48
1, 154, Control_c, 11, 7, 100
1, 154, Control_c, 11, 10, 78
1, 154, Control_c, 11, 11, 127
1, 155, Control_c, 11, 91, 70
1, 155, Control_c, 11, 93, 10
1, 158, Program_c, 12, 48
1, 159, Control_c, 12, 7, 85
1, 159, Control_c, 12, 10, 60
1, 159, Control_c, 12, 11, 127
1, 160, Control_c, 12, 91, 60
1, 160, Control_c, 12, 93, 10
1, 384, Time_signature, 4, 2, 24, 8
1, 672, Note_on_c, 9, 55, 67
1, 672, Note_on_c, 9, 40, 100
1, 673, Note_off_c, 9, 40, 64
1, 673, Note_off_c, 9, 55, 64
1, 673, Control_c, 9, 1, 0
1, 673, Pitch_bend_c, 9, 8192
1, 678, Note_on_c, 9, 40, 50
1, 679, Note_off_c, 9, 40, 64
1, 685, Note_on_c, 9, 40, 38
1, 686, Note_off_c, 9, 40, 64
1, 692, Note_on_c, 9, 40, 26
1, 693, Note_off_c, 9, 40, 64
1, 698, Note_on_c, 9, 40, 28
1, 699, Note_off_c, 9, 40, 64
1, 706, Note_on_c, 9, 40, 28
1, 707, Note_off_c, 9, 40, 64
1, 713, Note_on_c, 9, 40, 29
1, 714, Note_off_c, 9, 40, 64
1, 720, Note_on_c, 9, 40, 30
1, 721, Note_off_c, 9, 40, 64
1, 726, Note_on_c, 9, 40, 31
1, 727, Note_off_c, 9, 40, 64
1, 734, Note_on_c, 9, 40, 34
1, 735, Note_off_c, 9, 40, 64
1, 740, Note_on_c, 9, 40, 35
1, 741, Note_off_c, 9, 40, 64
1, 748, Note_on_c, 9, 40, 36
1, 749, Note_off_c, 9, 40, 64
1, 754, Note_on_c, 9, 40, 38
1, 755, Note_off_c, 9, 40, 64
1, 762, Note_on_c, 9, 40, 40
1, 763, Note_off_c, 9, 40, 64
1, 766, Note_on_c, 2, 67, 100
1, 766, Note_on_c, 2, 71, 100
1, 766, Note_on_c, 2, 62, 93
1, 767, Control_c, 2, 1, 0
1, 767, Pitch_bend_c, 2, 8192
1, 767, Note_on_c, 7, 55, 83
1, 768, Note_on_c, 9, 36, 104
1, 768, Note_on_c, 9, 51, 78
1, 768, Note_on_c, 2, 64, 84
1, 768, Control_c, 7, 1, 0
1, 768, Pitch_bend_c, 7, 8192
1, 768, Note_on_c, 11, 55, 54
1, 768, Note_on_c, 11, 59, 54
1, 768, Note_on_c, 11, 52, 54
1, 768, Note_on_c, 9, 69, 20
1, 769, Note_off_c, 9, 51, 64
1, 769, Note_off_c, 9, 36, 64
1, 769, Note_on_c, 1, 36, 95
1, 769, Control_c, 11, 1, 0
1, 769, Pitch_bend_c, 11, 8192
1, 769, Note_off_c, 9, 69, 64
1, 769, Control_c, 9, 1, 0
1, 769, Pitch_bend_c, 9, 8192
1, 770, Control_c, 1, 1, 0
1, 770, Pitch_bend_c, 1, 8192
1, 778, Note_off_c, 7, 55, 64
1, 790, Note_off_c, 2, 64, 64
1, 790, Note_off_c, 2, 67, 64
1, 790, Note_off_c, 2, 71, 64
1, 790, Note_off_c, 2, 62, 64
1, 791, Note_on_c, 9, 69, 36
1, 792, Note_on_c, 2, 64, 76
1, 792, Note_on_c, 2, 62, 70
1, 792, Note_on_c, 2, 71, 75
1, 792, Note_on_c, 2, 67, 84
1, 792, Note_off_c, 9, 69, 64
1, 793, Note_on_c, 7, 55, 72
1, 810, Note_off_c, 2, 67, 64
1, 810, Note_off_c, 2, 71, 64
1, 810, Note_off_c, 2, 62, 64
1, 811, Note_off_c, 7, 55, 64
1, 813, Note_off_c, 1, 36, 64
1, 814, Note_on_c, 2, 60, 82
1, 815, Note_on_c, 9, 69, 58
1, 816, Note_on_c, 2, 65, 80
1, 816, Note_on_c, 2, 69, 87
1, 816, Note_off_c, 9, 69, 64
1, 817, Note_on_c, 7, 57, 72
1, 818, Note_on_c, 9, 44, 63
1, 819, Note_off_c, 9, 44, 64
1, 836, Note_off_c, 2, 69, 64
1, 838, Note_off_c, 2, 65, 64
1, 838, Note_off_c, 2, 60, 64
1, 839, Note_off_c, 7, 57, 64
1, 839, Note_on_c, 8, 55, 68
1, 839, Note_on_c, 9, 69, 36
1, 840, Note_on_c, 2, 62, 87
1, 840, Control_c, 8, 1, 0
1, 840, Pitch_bend_c, 8, 8192
1, 840, Note_off_c, 9, 69, 64
1, 841, Note_on_c, 2, 67, 82
1, 841, Note_on_c, 2, 71, 87
1, 841, Note_on_c, 8, 64, 47
1, 842, Note_on_c, 9, 42, 64
1, 842, Note_on_c, 7, 59, 83
1, 843, Note_off_c, 9, 42, 64
1, 845, Note_off_c, 8, 55, 64
1, 847, Note_off_c, 8, 64, 64
1, 857, Note_off_c, 2, 71, 64
1, 858, Note_off_c, 2, 67, 64
1, 858, Note_off_c, 2, 62, 64
1, 860, Note_off_c, 2, 64, 64
1, 861, Note_off_c, 7, 59, 64
1, 863, Note_on_c, 9, 40, 114
1, 864, Note_off_c, 9, 40, 64
1, 865, Note_on_c, 8, 64, 62
1, 865, Note_on_c, 8, 55, 71
1, 865, Note_on_c, 9, 69, 22
1, 866, Note_off_c, 9, 69, 64
1, 876, Note_off_c, 8, 64, 64
1, 877, Note_off_c, 8, 55, 64
1, 887, Note_on_c, 1, 31, 80
1, 888, Note_on_c, 2, 67, 84
1, 888, Note_on_c, 2, 71, 93
1, 889, Note_on_c, 9, 44, 72
1, 889, Note_on_c, 2, 62, 82
1, 889, Note_on_c, 2, 64, 93
1, 889, Note_on_c, 9, 69, 25
1, 890, Note_off_c, 9, 44, 64
1, 890, Note_on_c, 7, 55, 77
1, 890, Note_off_c, 9, 69, 64
1, 905, Note_off_c, 2, 62, 64
1, 906, Note_off_c, 2, 67, 64
1, 906, Note_off_c, 2, 71, 64
1, 908, Note_off_c, 7, 55, 64
1, 910, Note_off_c, 1, 31, 64
1, 911, Note_on_c, 1, 36, 92
1, 911, Note_on_c, 9, 69, 67
1, 912, Note_on_c, 2, 60, 72
1, 912, Note_off_c, 9, 69, 64
1, 913, Note_on_c, 9, 42, 58
1, 913, Note_on_c, 2, 65, 69
1, 913, Note_on_c, 2, 69, 82
1, 914, Note_off_c, 9, 42, 64
1, 927, Note_off_c, 1, 36, 64
1, 929, Note_off_c, 2, 69, 64
1, 933, Note_off_c, 2, 65, 64
1, 934, Note_off_c, 2, 60, 64
1, 935, Note_on_c, 9, 69, 38
1, 936, Note_off_c, 9, 69, 64
1, 937, Note_on_c, 9, 36, 85
1, 937, Note_on_c, 1, 36, 89
1, 937, Note_on_c, 2, 62, 90
1, 937, Note_on_c, 2, 71, 90
1, 937, Note_on_c, 2, 67, 93
1, 938, Note_off_c, 9, 36, 64
1, 938, Note_on_c, 7, 64, 80
1, 953, Note_off_c, 2, 62, 64
1, 954, Note_off_c, 2, 67, 64
1, 954, Note_off_c, 7, 64, 64
1, 955, Note_off_c, 2, 71, 64
1, 955, Note_off_c, 2, 64, 64
1, 959, Note_on_c, 9, 42, 70
1, 960, Note_off_c, 9, 42, 64
1, 961, Note_off_c, 1, 36, 64
1, 961, Note_on_c, 9, 69, 12
1, 962, Note_off_c, 9, 69, 64
1, 985, Note_on_c, 2, 71, 97
1, 985, Note_on_c, 2, 67, 90
1, 985, Note_on_c, 2, 62, 82
1, 985, Note_on_c, 9, 69, 24
1, 986, Note_on_c, 2, 64, 93
1, 986, Note_on_c, 7, 55, 72
1, 986, Note_off_c, 9, 69, 64
1, 1001, Note_off_c, 2, 71, 64
1, 1005, Note_off_c, 2, 67, 64
1, 1006, Note_off_c, 7, 55, 64
1, 1008, Note_on_c, 9, 36, 104
1, 1009, Note_off_c, 9, 36, 64
1, 1009, Note_on_c, 9, 42, 64
1, 1009, Note_on_c, 9, 69, 62
1, 1010, Note_off_c, 9, 42, 64
1, 1010, Note_off_c, 9, 69, 64
1, 1015, Note_off_c, 2, 62, 64
1, 1031, Note_on_c, 9, 64, 75
1, 1032, Note_on_c, 2, 60, 75
1, 1032, Note_on_c, 2, 69, 72
1, 1032, Note_off_c, 9, 64, 64
1, 1033, Note_on_c, 2, 65, 84
1, 1033, Note_on_c, 8, 55, 62
1, 1033, Note_on_c, 9, 69, 38
1, 1034, Note_on_c, 7, 55, 80
1, 1034, Note_on_c, 8, 64, 58
1, 1034, Note_off_c, 9, 69, 64
1, 1040, Note_off_c, 8, 64, 64
1, 1040, Note_off_c, 8, 55, 64
1, 1045, Note_off_c, 2, 65, 64
1, 1046, Note_off_c, 2, 69, 64
1, 1050, Note_off_c, 2, 60, 64
1, 1053, Note_off_c, 7, 55, 64
1, 1055, Note_on_c, 9, 40, 120
1, 1055, Note_on_c, 9, 69, 19
1, 1056, Note_off_c, 9, 40, 64
1, 1056, Note_on_c, 9, 42, 68
1, 1056, Note_on_c, 2, 62, 87
1, 1056, Note_on_c, 2, 67, 97
1, 1056, Note_on_c, 2, 71, 97
1, 1056, Note_off_c, 9, 69, 64
1, 1057, Note_off_c, 9, 42, 64
1, 1057, Note_on_c, 7, 59, 72
1, 1057, Note_on_c, 9, 64, 65
1, 1058, Note_on_c, 8, 55, 68
1, 1058, Note_on_c, 8, 64, 65
1, 1058, Note_off_c, 9, 64, 64
1, 1065, Note_off_c, 8, 64, 64
1, 1066, Note_off_c, 8, 55, 64
1, 1070, Note_off_c, 7, 59, 64
1, 1078, Note_on_c, 9, 44, 70
1, 1079, Note_off_c, 9, 44, 64
1, 1079, Note_on_c, 9, 69, 30
1, 1080, Note_off_c, 9, 69, 64
1, 1081, Note_on_c, 7, 59, 72
1, 1098, Note_off_c, 2, 67, 64
1, 1098, Note_off_c, 2, 62, 64
1, 1100, Note_off_c, 2, 71, 64
1, 1101, Note_off_c, 7, 59, 64
1, 1102, Note_on_c, 2, 60, 80
1, 1103, Note_on_c, 9, 46, 81
1, 1103, Note_on_c, 9, 69, 62
1, 1104, Note_off_c, 9, 46, 64
1, 1104, Note_on_c, 2, 69, 87
1, 1104, Note_on_c, 2, 65, 80
1, 1104, Note_off_c, 9, 69, 64
1, 1105, Note_on_c, 7, 55, 77
1, 1122, Note_off_c, 2, 69, 64
1, 1122, Note_off_c, 2, 64, 64
1, 1124, Note_off_c, 2, 65, 64
1, 1125, Note_off_c, 2, 60, 64
1, 1126, Note_on_c, 9, 69, 33
1, 1127, Note_off_c, 9, 69, 64
1, 1129, Note_on_c, 1, 31, 69
1, 1134, Note_off_c, 7, 55, 64
1, 1150, Note_on_c, 2, 67, 97
1, 1151, Note_on_c, 9, 36, 114
1, 1151, Note_on_c, 9, 42, 70
1, 1151, Note_on_c, 9, 69, 34
1, 1152, Note_off_c, 9, 42, 64
1, 1152, Note_off_c, 9, 36, 64
1, 1152, Note_on_c, 2, 71, 97
1, 1152, Note_on_c, 2, 62, 87
1, 1152, Note_on_c, 2, 64, 87
1, 1152, Note_off_c, 9, 69, 64
1, 1153, Note_on_c, 7, 55, 72
1, 1154, Note_off_c, 1, 31, 64
1, 1154, Note_on_c, 1, 36, 83
1, 1163, Note_off_c, 7, 55, 64
1, 1173, Note_off_c, 2, 71, 64
1, 1174, Note_off_c, 2, 67, 64
1, 1174, Note_off_c, 2, 62, 64
1, 1174, Note_off_c, 2, 64, 64
1, 1174, Note_on_c, 2, 71, 78
1, 1176, Note_on_c, 2, 67, 80
1, 1176, Note_on_c, 2, 62, 61
1, 1176, Note_on_c, 2, 64, 80
1, 1176, Note_on_c, 9, 69, 33
1, 1177, Note_on_c, 7, 55, 68
1, 1177, Note_off_c, 9, 69, 64
1, 1187, Note_off_c, 1, 36, 64
1, 1190, Note_off_c, 2, 62, 64
1, 1190, Note_off_c, 2, 71, 64
1, 1192, Note_off_c, 2, 67, 64
1, 1194, Note_off_c, 7, 55, 64
1, 1198, Note_on_c, 2, 60, 76
1, 1198, Note_on_c, 2, 69, 82
1, 1200, Note_on_c, 9, 44, 53
1, 1200, Note_on_c, 2, 65, 73
1, 1200, Note_on_c, 9, 69, 60
1, 1201, Note_off_c, 9, 44, 64
1, 1201, Note_on_c, 7, 57, 70
1, 1201, Note_off_c, 9, 69, 64
1, 1216, Note_off_c, 2, 65, 64
1, 1217, Note_off_c, 2, 69, 64
1, 1218, Note_off_c, 2, 60, 64
1, 1221, Note_off_c, 7, 57, 64
1, 1223, Note_on_c, 8, 64, 47
1, 1223, Note_on_c, 8, 55, 60
1, 1224, Note_on_c, 2, 62, 87
1, 1224, Note_on_c, 2, 67, 93
1, 1224, Note_on_c, 2, 71, 93
1, 1224, Note_on_c, 9, 69, 45
1, 1225, Note_on_c, 9, 42, 58
1, 1225, Note_on_c, 7, 59, 83
1, 1225, Note_off_c, 9, 69, 64
1, 1226, Note_off_c, 9, 42, 64
1, 1228, Note_off_c, 8, 64, 64
1, 1230, Note_off_c, 8, 55, 64
1, 1238, Note_off_c, 7, 59, 64
1, 1241, Note_off_c, 2, 71, 64
1, 1242, Note_off_c, 2, 67, 64
1, 1242, Note_off_c, 2, 62, 64
1, 1245, Note_off_c, 2, 64, 64
1, 1246, Note_on_c, 9, 40, 120
1, 1247, Note_off_c, 9, 40, 64
1, 1248, Note_on_c, 8, 64, 62
1, 1249, Note_on_c, 8, 55, 62
1, 1249, Note_on_c, 9, 69, 42
1, 1250, Note_off_c, 9, 69, 64
1, 1257, Note_off_c, 8, 64, 64
1, 1259, Note_off_c, 8, 55, 64
1, 1272, Note_on_c, 9, 44, 58
1, 1272, Note_on_c, 2, 67, 90
1, 1272, Note_on_c, 2, 71, 90
1, 1272, Note_on_c, 7, 55, 77
1, 1273, Note_off_c, 9, 44, 64
1, 1273, Note_on_c, 2, 62, 80
1, 1273, Note_on_c, 2, 64, 84
1, 1273, Note_on_c, 9, 69, 30
1, 1274, Note_off_c, 9, 69, 64
1, 1288, Note_off_c, 2, 71, 64
1, 1288, Note_off_c, 2, 67, 64
1, 1290, Note_off_c, 2, 62, 64
1, 1290, Note_off_c, 7, 55, 64
1, 1294, Note_on_c, 2, 60, 75
1, 1295, Note_on_c, 9, 42, 64
1, 1296, Note_off_c, 9, 42, 64
1, 1296, Note_on_c, 2, 65, 80
1, 1296, Note_on_c, 2, 69, 87
1, 1296, Note_on_c, 9, 69, 60
1, 1297, Note_off_c, 9, 69, 64
1, 1313, Note_off_c, 2, 69, 64
1, 1313, Note_off_c, 2, 65, 64
1, 1316, Note_off_c, 2, 60, 64
1, 1319, Note_on_c, 9, 36, 109
1, 1319, Note_on_c, 1, 36, 92
1, 1320, Note_off_c, 9, 36, 64
1, 1320, Note_on_c, 2, 62, 93
1, 1320, Note_on_c, 2, 67, 93
1, 1320, Note_on_c, 2, 71, 84
1, 1320, Note_on_c, 9, 69, 30
1, 1321, Note_on_c, 7, 64, 74
1, 1321, Note_off_c, 9, 69, 64
1, 1334, Note_off_c, 2, 62, 64
1, 1334, Note_off_c, 2, 64, 64
1, 1336, Note_off_c, 2, 67, 64
1, 1336, Note_off_c, 7, 64, 64
1, 1338, Note_off_c, 2, 71, 64
1, 1343, Note_on_c, 9, 42, 61
1, 1344, Note_off_c, 9, 42, 64
1, 1345, Note_on_c, 9, 69, 40
1, 1346, Note_off_c, 9, 69, 64
1, 1349, Note_off_c, 1, 36, 64
1, 1367, Note_on_c, 9, 69, 31
1, 1368, Note_on_c, 2, 67, 97
1, 1368, Note_on_c, 2, 71, 100
1, 1368, Note_on_c, 2, 64, 97
1, 1368, Note_on_c, 2, 62, 97
1, 1368, Note_off_c, 9, 69, 64
1, 1369, Note_on_c, 7, 55, 77
1, 1384, Note_off_c, 2, 71, 64
1, 1386, Note_off_c, 7, 55, 64
1, 1388, Note_off_c, 2, 67, 64
1, 1390, Note_on_c, 9, 36, 98
1, 1391, Note_off_c, 9, 36, 64
1, 1391, Note_on_c, 1, 36, 95
1, 1392, Note_on_c, 9, 42, 68
1, 1392, Note_on_c, 9, 69, 59
1, 1393, Note_off_c, 9, 42, 64
1, 1393, Note_off_c, 9, 69, 64
1, 1396, Note_off_c, 2, 62, 64
1, 1415, Note_on_c, 9, 64, 84
1, 1416, Note_on_c, 2, 60, 72
1, 1416, Note_on_c, 2, 65, 100
1, 1416, Note_on_c, 2, 69, 87
1, 1416, Note_on_c, 8, 64, 60
1, 1416, Note_off_c, 9, 64, 64
1, 1417, Note_on_c, 7, 55, 72
1, 1417, Note_on_c, 8, 55, 62
1, 1417, Note_on_c, 9, 69, 40
1, 1418, Note_off_c, 9, 69, 64
1, 1422, Note_off_c, 8, 55, 64
1, 1422, Note_off_c, 8, 64, 64
1, 1429, Note_off_c, 2, 65, 64
1, 1430, Note_off_c, 2, 69, 64
1, 1434, Note_off_c, 1, 36, 64
1, 1436, Note_off_c, 2, 60, 64
1, 1437, Note_off_c, 7, 55, 64
1, 1438, Note_on_c, 9, 40, 120
1, 1439, Note_off_c, 9, 40, 64
1, 1439, Note_on_c, 9, 42, 70
1, 1440, Note_off_c, 9, 42, 64
1, 1440, Note_on_c, 2, 71, 100
1, 1440, Note_on_c, 2, 62, 90
1, 1440, Note_on_c, 2, 67, 97
1, 1440, Note_on_c, 8, 55, 68
1, 1440, Note_on_c, 9, 64, 78
1, 1440, Note_on_c, 9, 69, 30
1, 1441, Note_on_c, 7, 59, 74
1, 1441, Note_on_c, 8, 64, 58
1, 1441, Note_off_c, 9, 69, 64
1, 1441, Note_off_c, 9, 64, 64
1, 1446, Note_off_c, 8, 64, 64
1, 1448, Note_off_c, 8, 55, 64
1, 1453, Note_off_c, 7, 59, 64
1, 1462, Note_on_c, 9, 44, 68
1, 1463, Note_off_c, 9, 44, 64
1, 1463, Note_on_c, 7, 59, 74
1, 1463, Note_on_c, 9, 69, 30
1, 1464, Note_off_c, 9, 69, 64
1, 1480, Note_off_c, 2, 62, 64
1, 1482, Note_off_c, 2, 67, 64
1, 1484, Note_off_c, 2, 71, 64
1, 1485, Note_off_c, 7, 59, 64
1, 1486, Note_on_c, 2, 60, 75
1, 1487, Note_on_c, 9, 46, 72
1, 1487, Note_on_c, 8, 64, 75
1, 1487, Note_on_c, 8, 55, 75
1, 1487, Note_on_c, 9, 69, 63
1, 1488, Note_off_c, 9, 46, 64
1, 1488, Note_on_c, 2, 65, 84
1, 1488, Note_on_c, 2, 69, 84
1, 1488, Note_off_c, 9, 69, 64
1, 1489, Note_on_c, 7, 55, 83
1, 1493, Note_off_c, 8, 55, 64
1, 1494, Note_off_c, 8, 64, 64
1, 1510, Note_on_c, 1, 37, 85
1, 1512, Note_on_c, 9, 69, 38
1, 1513, Note_off_c, 9, 69, 64
1, 1518, Note_off_c, 7, 55, 64
1, 1533, Note_off_c, 2, 60, 64
1, 1534, Note_on_c, 9, 36, 104
1, 1534, Note_off_c, 2, 64, 64
1, 1534, Note_off_c, 2, 65, 64
1, 1534, Note_off_c, 2, 69, 64
1, 1534, Note_on_c, 2, 60, 76
1, 1535, Note_off_c, 9, 36, 64
1, 1536, Note_on_c, 9, 42, 68
1, 1536, Note_on_c, 2, 65, 100
1, 1536, Note_on_c, 2, 69, 100
1, 1536, Note_on_c, 2, 62, 84
1, 1536, Note_off_c, 11, 52, 64
1, 1536, Note_off_c, 11, 59, 64
1, 1536, Note_off_c, 11, 55, 64
1, 1536, Note_on_c, 11, 60, 52
1, 1536, Note_on_c, 11, 57, 52
1, 1536, Note_on_c, 11, 53, 52
1, 1536, Note_on_c, 9, 69, 22
1, 1537, Note_off_c, 9, 42, 64
1, 1537, Note_off_c, 1, 37, 64
1, 1537, Note_on_c, 1, 38, 102
1, 1537, Note_on_c, 7, 57, 87
1, 1537, Note_off_c, 9, 69, 64
1, 1544, Note_off_c, 2, 62, 64
1, 1546, Note_off_c, 2, 60, 64
1, 1546, Note_off_c, 7, 57, 64
1, 1548, Note_off_c, 2, 69, 64
1, 1548, Note_off_c, 2, 65, 64
1, 1558, Note_on_c, 2, 62, 87
1, 1560, Note_on_c, 2, 65, 84
1, 1560, Note_on_c, 2, 60, 65
1, 1560, Note_on_c, 2, 69, 90
1, 1561, Note_on_c, 7, 57, 68
1, 1561, Note_on_c, 9, 69, 34
1, 1562, Note_off_c, 9, 69, 64
1, 1576, Note_off_c, 1, 38, 64
1, 1576, Note_off_c, 2, 69, 64
1, 1576, Note_off_c, 2, 65, 64
1, 1577, Note_off_c, 7, 57, 64
1, 1578, Note_off_c, 2, 60, 64
1, 1582, Note_on_c, 2, 64, 62
1, 1582, Note_on_c, 2, 67, 82
1, 1582, Note_on_c, 2, 59, 82
1, 1583, Note_on_c, 9, 44, 72
1, 1584, Note_off_c, 9, 44, 64
1, 1585, Note_on_c, 7, 59, 74
1, 1585, Note_on_c, 9, 69, 53
1, 1586, Note_off_c, 9, 69, 64
1, 1599, Note_off_c, 2, 67, 64
1, 1602, Note_off_c, 2, 64, 64
1, 1605, Note_off_c, 2, 59, 64
1, 1605, Note_off_c, 7, 59, 64
1, 1607, Note_on_c, 9, 42, 68
1, 1608, Note_off_c, 9, 42, 64
1, 1608, Note_on_c, 2, 69, 90
1, 1608, Note_on_c, 2, 60, 87
1, 1608, Note_on_c, 2, 65, 100
1, 1608, Note_on_c, 8, 65, 62
1, 1608, Note_on_c, 8, 57, 71
1, 1609, Note_on_c, 7, 60, 74
1, 1609, Note_on_c, 9, 69, 36
1, 1610, Note_off_c, 9, 69, 64
1, 1614, Note_off_c, 8, 57, 64
1, 1614, Note_off_c, 8, 65, 64
1, 1622, Note_off_c, 2, 60, 64
1, 1625, Note_off_c, 7, 60, 64
1, 1629, Note_off_c, 2, 69, 64
1, 1630, Note_on_c, 9, 40, 120
1, 1631, Note_off_c, 9, 40, 64
1, 1632, Note_off_c, 2, 65, 64
1, 1632, Note_on_c, 8, 57, 68
1, 1633, Note_off_c, 2, 62, 64
1, 1633, Note_on_c, 8, 65, 75
1, 1633, Note_on_c, 9, 69, 31
1, 1634, Note_off_c, 9, 69, 64
1, 1642, Note_off_c, 8, 57, 64
1, 1643, Note_off_c, 8, 65, 64
1, 1654, Note_on_c, 2, 65, 90
1, 1654, Note_on_c, 2, 62, 87
1, 1655, Note_on_c, 9, 44, 61
1, 1656, Note_off_c, 9, 44, 64
1, 1656, Note_on_c, 2, 69, 93
1, 1656, Note_on_c, 2, 60, 72
1, 1657, Note_on_c, 7, 57, 80
1, 1657, Note_on_c, 9, 69, 23
1, 1658, Note_off_c, 9, 69, 64
1, 1669, Note_off_c, 7, 57, 64
1, 1672, Note_off_c, 2, 65, 64
1, 1674, Note_off_c, 2, 60, 64
1, 1676, Note_off_c, 2, 69, 64
1, 1678, Note_on_c, 9, 42, 68
1, 1679, Note_off_c, 9, 42, 64
1, 1679, Note_on_c, 9, 69, 51
1, 1680, Note_on_c, 2, 59, 84
1, 1680, Note_on_c, 2, 64, 75
1, 1680, Note_on_c, 2, 67, 78
1, 1680, Note_off_c, 9, 69, 64
1, 1694, Note_off_c, 2, 67, 64
1, 1696, Note_off_c, 2, 64, 64
1, 1700, Note_off_c, 2, 59, 64
1, 1703, Note_on_c, 1, 38, 92
1, 1704, Note_on_c, 2, 60, 82
1, 1704, Note_on_c, 2, 69, 90
1, 1704, Note_on_c, 2, 65, 97
1, 1704, Note_on_c, 9, 69, 34
1, 1705, Note_on_c, 9, 36, 104
1, 1705, Note_on_c, 7, 65, 80
1, 1705, Note_off_c, 9, 69, 64
1, 1706, Note_off_c, 9, 36, 64
1, 1717, Note_off_c, 2, 62, 64
1, 1720, Note_off_c, 2, 60, 64
1, 1720, Note_off_c, 7, 65, 64
1, 1722, Note_off_c, 2, 69, 64
1, 1722, Note_off_c, 2, 65, 64
1, 1727, Note_on_c, 9, 42, 64
1, 1728, Note_off_c, 9, 42, 64
1, 1737, Note_off_c, 1, 38, 64
1, 1751, Note_on_c, 9, 69, 22
1, 1752, Note_on_c, 2, 69, 100
1, 1752, Note_on_c, 2, 65, 106
1, 1752, Note_on_c, 2, 62, 97
1, 1752, Note_on_c, 2, 60, 87
1, 1752, Note_off_c, 9, 69, 64
1, 1753, Note_on_c, 7, 57, 96
1, 1772, Note_off_c, 2, 69, 64
1, 1774, Note_off_c, 2, 65, 64
1, 1774, Note_off_c, 7, 57, 64
1, 1775, Note_on_c, 9, 42, 61
1, 1775, Note_on_c, 9, 69, 51
1, 1776, Note_off_c, 9, 42, 64
1, 1776, Note_on_c, 1, 38, 98
1, 1776, Note_off_c, 9, 69, 64
1, 1777, Note_on_c, 9, 36, 95
1, 1778, Note_off_c, 9, 36, 64
1, 1784, Note_off_c, 2, 60, 64
1, 1798, Note_on_c, 9, 64, 84
1, 1799, Note_on_c, 8, 57, 71
1, 1799, Note_off_c, 9, 64, 64
1, 1799, Note_on_c, 9, 69, 48
1, 1800, Note_on_c, 2, 59, 80
1, 1800, Note_on_c, 2, 64, 82
1, 1800, Note_on_c, 2, 67, 76
1, 1800, Note_on_c, 8, 65, 62
1, 1800, Note_off_c, 9, 69, 64
1, 1801, Note_on_c, 7, 57, 83
1, 1806, Note_off_c, 8, 65, 64
1, 1807, Note_off_c, 8, 57, 64
1, 1814, Note_off_c, 1, 38, 64
1, 1814, Note_off_c, 2, 64, 64
1, 1816, Note_off_c, 2, 67, 64
1, 1822, Note_off_c, 2, 59, 64
1, 1822, Note_off_c, 7, 57, 64
1, 1823, Note_on_c, 9, 64, 78
1, 1824, Note_on_c, 2, 60, 90
1, 1824, Note_on_c, 2, 69, 106
1, 1824, Note_on_c, 2, 65, 106
1, 1824, Note_on_c, 8, 65, 71
1, 1824, Note_off_c, 9, 64, 64
1, 1825, Note_on_c, 9, 40, 124
1, 1825, Note_on_c, 9, 42, 81
1, 1825, Note_on_c, 7, 60, 74
1, 1825, Note_on_c, 8, 57, 71
1, 1826, Note_off_c, 9, 42, 64
1, 1826, Note_off_c, 9, 40, 64
1, 1826, Note_on_c, 9, 69, 33
1, 1827, Note_off_c, 9, 69, 64
1, 1830, Note_off_c, 8, 65, 64
1, 1831, Note_off_c, 8, 57, 64
1, 1836, Note_off_c, 7, 60, 64
1, 1849, Note_on_c, 9, 44, 61
1, 1849, Note_on_c, 9, 69, 26
1, 1850, Note_off_c, 9, 44, 64
1, 1850, Note_on_c, 7, 60, 68
1, 1850, Note_off_c, 9, 69, 64
1, 1862, Note_off_c, 2, 60, 64
1, 1866, Note_off_c, 2, 65, 64
1, 1868, Note_off_c, 7, 60, 64
1, 1869, Note_off_c, 2, 69, 64
1, 1872, Note_on_c, 2, 59, 90
1, 1872, Note_on_c, 2, 64, 78
1, 1872, Note_on_c, 2, 67, 84
1, 1873, Note_on_c, 9, 46, 70
1, 1873, Note_on_c, 7, 57, 80
1, 1873, Note_on_c, 9, 69, 61
1, 1874, Note_off_c, 9, 46, 64
1, 1874, Note_off_c, 9, 69, 64
1, 1895, Note_on_c, 1, 33, 89
1, 1896, Note_on_c, 9, 69, 40
1, 1897, Note_off_c, 9, 69, 64
1, 1898, Note_off_c, 2, 67, 64
1, 1901, Note_off_c, 2, 64, 64
1, 1904, Note_off_c, 2, 62, 64
1, 1904, Note_off_c, 7, 57, 64
1, 1906, Note_off_c, 2, 59, 64
1, 1919, Note_off_c, 1, 33, 64
1, 1920, Note_on_c, 2, 62, 90
1, 1920, Note_on_c, 2, 65, 97
1, 1920, Note_on_c, 2, 69, 97
1, 1920, Note_on_c, 7, 57, 74
1, 1921, Note_on_c, 1, 38, 95
1, 1921, Note_on_c, 2, 60, 70
1, 1922, Note_on_c, 9, 36, 109
1, 1922, Note_on_c, 9, 42, 70
1, 1922, Note_on_c, 9, 69, 33
1, 1923, Note_off_c, 9, 42, 64
1, 1923, Note_off_c, 9, 36, 64
1, 1923, Note_off_c, 9, 69, 64
1, 1929, Note_off_c, 7, 57, 64
1, 1941, Note_off_c, 2, 60, 64
1, 1942, Note_off_c, 2, 62, 64
1, 1942, Note_off_c, 2, 65, 64
1, 1942, Note_off_c, 2, 69, 64
1, 1942, Note_on_c, 2, 60, 57
1, 1944, Note_on_c, 2, 62, 70
1, 1944, Note_on_c, 2, 65, 90
1, 1944, Note_on_c, 2, 69, 78
1, 1944, Note_on_c, 7, 57, 74
1, 1945, Note_on_c, 9, 69, 30
1, 1946, Note_off_c, 9, 69, 64
1, 1958, Note_off_c, 1, 38, 64
1, 1960, Note_off_c, 7, 57, 64
1, 1962, Note_off_c, 2, 69, 64
1, 1962, Note_off_c, 2, 65, 64
1, 1962, Note_off_c, 2, 60, 64
1, 1967, Note_on_c, 9, 44, 68
1, 1967, Note_on_c, 7, 59, 66
1, 1968, Note_off_c, 9, 44, 64
1, 1968, Note_on_c, 2, 64, 80
1, 1968, Note_on_c, 2, 67, 90
1, 1968, Note_on_c, 2, 59, 106
1, 1970, Note_on_c, 9, 69, 52
1, 1971, Note_off_c, 9, 69, 64
1, 1982, Note_off_c, 2, 67, 64
1, 1988, Note_off_c, 2, 59, 64
1, 1988, Note_off_c, 2, 64, 64
1, 1990, Note_off_c, 7, 59, 64
1, 1990, Note_on_c, 8, 57, 65
1, 1991, Note_on_c, 8, 65, 68
1, 1992, Note_on_c, 9, 42, 61
1, 1992, Note_on_c, 2, 60, 82
1, 1993, Note_off_c, 9, 42, 64
1, 1993, Note_on_c, 2, 69, 93
1, 1993, Note_on_c, 7, 60, 74
1, 1993, Note_on_c, 9, 69, 36
1, 1994, Note_on_c, 2, 65, 90
1, 1994, Note_off_c, 9, 69, 64
1, 1996, Note_off_c, 8, 57, 64
1, 1999, Note_off_c, 8, 65, 64
1, 2008, Note_off_c, 7, 60, 64
1, 2010, Note_off_c, 2, 69, 64
1, 2010, Note_off_c, 2, 60, 64
1, 2014, Note_off_c, 2, 65, 64
1, 2015, Note_on_c, 9, 40, 120
1, 2016, Note_off_c, 9, 40, 64
1, 2016, Note_on_c, 8, 65, 75
1, 2017, Note_on_c, 8, 57, 84
1, 2017, Note_on_c, 9, 69, 40
1, 2018, Note_off_c, 2, 62, 64
1, 2018, Note_off_c, 9, 69, 64
1, 2025, Note_off_c, 8, 65, 64
1, 2026, Note_off_c, 8, 57, 64
1, 2040, Note_on_c, 9, 44, 70
1, 2040, Note_on_c, 2, 62, 93
1, 2040, Note_on_c, 2, 65, 93
1, 2040, Note_on_c, 2, 69, 97
1, 2040, Note_on_c, 2, 60, 80
1, 2041, Note_off_c, 9, 44, 64
1, 2041, Note_on_c, 7, 57, 80
1, 2041, Note_on_c, 9, 69, 23
1, 2042, Note_off_c, 9, 69, 64
1, 2055, Note_off_c, 7, 57, 64
1, 2058, Note_off_c, 2, 60, 64
1, 2058, Note_off_c, 2, 69, 64
1, 2058, Note_off_c, 2, 65, 64
1, 2064, Note_on_c, 9, 42, 63
1, 2064, Note_on_c, 2, 59, 87
1, 2064, Note_on_c, 2, 64, 70
1, 2064, Note_on_c, 9, 69, 58
1, 2065, Note_off_c, 9, 42, 64
1, 2065, Note_on_c, 2, 67, 73
1, 2065, Note_off_c, 9, 69, 64
1, 2082, Note_off_c, 2, 67, 64
1, 2082, Note_off_c, 2, 64, 64
1, 2085, Note_off_c, 2, 59, 64
1, 2086, Note_on_c, 1, 31, 95
1, 2088, Note_on_c, 2, 60, 84
1, 2089, Note_on_c, 9, 36, 109
1, 2089, Note_on_c, 2, 69, 93
1, 2089, Note_on_c, 2, 65, 97
1, 2089, Note_on_c, 7, 65, 77
1, 2090, Note_off_c, 9, 36, 64
1, 2090, Note_on_c, 9, 69, 48
1, 2091, Note_off_c, 9, 69, 64
1, 2104, Note_off_c, 7, 65, 64
1, 2106, Note_off_c, 2, 60, 64
1, 2109, Note_off_c, 2, 69, 64
1, 2110, Note_off_c, 2, 62, 64
1, 2110, Note_off_c, 2, 65, 64
1, 2113, Note_on_c, 9, 42, 63
1, 2114, Note_off_c, 9, 42, 64
1, 2114, Note_on_c, 9, 69, 23
1, 2115, Note_off_c, 1, 31, 64
1, 2115, Note_off_c, 9, 69, 64
1, 2136, Note_on_c, 2, 65, 97
1, 2136, Note_on_c, 2, 69, 100
1, 2136, Note_on_c, 2, 62, 87
1, 2136, Note_on_c, 2, 60, 80
1, 2137, Note_on_c, 7, 55, 83
1, 2137, Note_on_c, 9, 69, 24
1, 2138, Note_off_c, 9, 69, 64
1, 2156, Note_off_c, 2, 69, 64
1, 2157, Note_off_c, 7, 55, 64
1, 2159, Note_on_c, 1, 31, 98
1, 2160, Note_on_c, 9, 36, 114
1, 2161, Note_off_c, 9, 36, 64
1, 2161, Note_off_c, 2, 65, 64
1, 2161, Note_on_c, 9, 69, 62
1, 2162, Note_on_c, 9, 42, 72
1, 2162, Note_off_c, 9, 69, 64
1, 2163, Note_off_c, 9, 42, 64
1, 2166, Note_off_c, 2, 60, 64
1, 2182, Note_on_c, 2, 59, 87
1, 2182, Note_on_c, 2, 64, 90
1, 2182, Note_on_c, 2, 67, 84
1, 2183, Note_on_c, 9, 64, 84
1, 2184, Note_off_c, 9, 64, 64
1, 2185, Note_on_c, 7, 55, 74
1, 2185, Note_on_c, 9, 69, 38
1, 2186, Note_off_c, 9, 69, 64
1, 2198, Note_off_c, 2, 67, 64
1, 2198, Note_off_c, 2, 64, 64
1, 2201, Note_off_c, 2, 59, 64
1, 2206, Note_off_c, 1, 31, 64
1, 2206, Note_on_c, 2, 60, 82
1, 2207, Note_on_c, 9, 40, 109
1, 2207, Note_off_c, 7, 55, 64
1, 2207, Note_on_c, 8, 67, 51
1, 2207, Note_on_c, 8, 55, 78
1, 2207, Note_on_c, 9, 64, 84
1, 2208, Note_off_c, 9, 40, 64
1, 2208, Note_on_c, 2, 69, 100
1, 2208, Note_on_c, 2, 65, 100
1, 2208, Note_off_c, 9, 64, 64
1, 2209, Note_on_c, 9, 42, 78
1, 2209, Note_on_c, 7, 59, 74
1, 2210, Note_off_c, 9, 42, 64
1, 2215, Note_off_c, 8, 67, 64
1, 2221, Note_off_c, 7, 59, 64
1, 2225, Note_off_c, 8, 55, 64
1, 2232, Note_on_c, 7, 59, 70
1, 2233, Note_on_c, 9, 69, 40
1, 2234, Note_off_c, 9, 69, 64
1, 2246, Note_off_c, 2, 60, 64
1, 2249, Note_off_c, 7, 59, 64
1, 2250, Note_off_c, 2, 65, 64
1, 2254, Note_off_c, 2, 69, 64
1, 2254, Note_on_c, 2, 59, 84
1, 2255, Note_on_c, 9, 40, 109
1, 2255, Note_on_c, 1, 43, 95
1, 2256, Note_off_c, 9, 40, 64
1, 2256, Note_on_c, 2, 67, 84
1, 2256, Note_on_c, 2, 64, 87
1, 2256, Note_on_c, 7, 55, 74
1, 2257, Note_on_c, 8, 55, 84
1, 2257, Note_on_c, 8, 67, 68
1, 2257, Note_on_c, 9, 69, 63
1, 2258, Note_off_c, 9, 69, 64
1, 2267, Note_off_c, 8, 67, 64
1, 2276, Note_off_c, 1, 43, 64
1, 2280, Note_on_c, 1, 45, 92
1, 2281, Note_on_c, 9, 69, 48
1, 2282, Note_on_c, 9, 40, 109
1, 2282, Note_off_c, 9, 69, 64
1, 2283, Note_off_c, 9, 40, 64
1, 2285, Note_off_c, 8, 55, 64
1, 2292, Note_off_c, 7, 55, 64
1, 2299, Note_off_c, 2, 59, 64
1, 2300, Note_off_c, 2, 62, 64
1, 2300, Note_off_c, 2, 67, 64
1, 2300, Note_off_c, 2, 64, 64
1, 2302, Note_off_c, 1, 45, 64
1, 2302, Note_on_c, 2, 67, 97
1, 2302, Note_on_c, 2, 71, 97
1, 2302, Note_on_c, 2, 64, 87
1, 2302, Note_on_c, 2, 62, 90
1, 2302, Note_on_c, 10, 74, 76
1, 2303, Note_on_c, 7, 55, 77
1, 2303, Control_c, 10, 1, 0
1, 2303, Pitch_bend_c, 10, 8192
1, 2304, Note_off_c, 11, 53, 64
1, 2304, Note_off_c, 11, 57, 64
1, 2304, Note_off_c, 11, 60, 64
1, 2304, Note_on_c, 11, 55, 55
1, 2304, Note_on_c, 11, 59, 55
1, 2304, Note_on_c, 11, 52, 55
1, 2304, Note_on_c, 9, 69, 20
1, 2305, Note_on_c, 9, 36, 104
1, 2305, Note_on_c, 9, 51, 99
1, 2305, Note_on_c, 1, 36, 102
1, 2305, Note_off_c, 9, 69, 64
1, 2306, Note_off_c, 9, 51, 64
1, 2306, Note_off_c, 9, 36, 64
1, 2314, Note_off_c, 2, 71, 64
1, 2314, Note_off_c, 7, 55, 64
1, 2316, Note_off_c, 2, 67, 64
1, 2316, Note_off_c, 2, 64, 64
1, 2317, Note_off_c, 2, 62, 64
1, 2326, Note_on_c, 2, 67, 84
1, 2326, Note_on_c, 2, 62, 67
1, 2326, Note_on_c, 2, 64, 80
1, 2327, Note_on_c, 7, 55, 68
1, 2327, Note_on_c, 9, 69, 36
1, 2328, Note_on_c, 2, 71, 82
1, 2328, Note_off_c, 9, 69, 64
1, 2347, Note_off_c, 2, 67, 64
1, 2347, Note_off_c, 7, 55, 64
1, 2348, Note_off_c, 1, 36, 64
1, 2348, Note_off_c, 2, 71, 64
1, 2350, Note_off_c, 2, 62, 64
1, 2351, Note_on_c, 7, 57, 77
1, 2351, Note_on_c, 9, 69, 58
1, 2352, Note_on_c, 9, 44, 68
1, 2352, Note_on_c, 2, 60, 84
1, 2352, Note_on_c, 2, 69, 80
1, 2352, Note_on_c, 2, 65, 78
1, 2352, Note_off_c, 9, 69, 64
1, 2353, Note_off_c, 9, 44, 64
1, 2369, Note_off_c, 2, 65, 64
1, 2372, Note_off_c, 2, 69, 64
1, 2373, Note_off_c, 7, 57, 64
1, 2373, Note_off_c, 10, 74, 64
1, 2374, Note_on_c, 10, 76, 80
1, 2375, Note_on_c, 9, 69, 36
1, 2376, Note_off_c, 2, 60, 64
1, 2376, Note_on_c, 7, 59, 87
1, 2376, Note_off_c, 9, 69, 64
1, 2377, Note_on_c, 9, 42, 72
1, 2377, Note_on_c, 2, 62, 90
1, 2377, Note_on_c, 2, 71, 93
1, 2377, Note_on_c, 2, 67, 93
1, 2377, Note_on_c, 8, 64, 65
1, 2377, Note_on_c, 8, 55, 65
1, 2378, Note_off_c, 9, 42, 64
1, 2382, Note_off_c, 8, 55, 64
1, 2382, Note_off_c, 8, 64, 64
1, 2390, Note_off_c, 7, 59, 64
1, 2394, Note_off_c, 2, 71, 64
1, 2395, Note_off_c, 2, 62, 64
1, 2397, Note_off_c, 2, 67, 64
1, 2399, Note_on_c, 9, 40, 95
1, 2400, Note_off_c, 9, 40, 64
1, 2401, Note_off_c, 2, 64, 64
1, 2401, Note_on_c, 8, 55, 65
1, 2401, Note_on_c, 8, 64, 60
1, 2401, Note_on_c, 9, 69, 22
1, 2402, Note_off_c, 9, 69, 64
1, 2411, Note_off_c, 8, 64, 64
1, 2414, Note_off_c, 8, 55, 64
1, 2424, Note_on_c, 9, 44, 70
1, 2424, Note_on_c, 2, 67, 90
1, 2424, Note_on_c, 2, 62, 87
1, 2424, Note_on_c, 2, 71, 93
1, 2424, Note_on_c, 2, 64, 90
1, 2424, Note_on_c, 7, 55, 72
1, 2425, Note_off_c, 9, 44, 64
1, 2425, Note_on_c, 9, 69, 25
1, 2426, Note_off_c, 9, 69, 64
1, 2441, Note_off_c, 2, 67, 64
1, 2442, Note_off_c, 2, 62, 64
1, 2442, Note_on_c, 10, 79, 80
1, 2444, Note_off_c, 2, 71, 64
1, 2444, Note_off_c, 7, 55, 64
1, 2445, Note_off_c, 10, 76, 64
1, 2446, Note_on_c, 2, 60, 78
1, 2447, Note_on_c, 9, 69, 67
1, 2448, Note_on_c, 2, 65, 82
1, 2448, Note_off_c, 9, 69, 64
1, 2449, Note_on_c, 9, 42, 70
1, 2449, Note_on_c, 2, 69, 82
1, 2450, Note_off_c, 9, 42, 64
1, 2462, Note_off_c, 2, 65, 64
1, 2465, Note_off_c, 2, 69, 64
1, 2468, Note_off_c, 2, 60, 64
1, 2471, Note_on_c, 9, 36, 104
1, 2471, Note_on_c, 9, 69, 38
1, 2472, Note_off_c, 9, 36, 64
1, 2472, Note_on_c, 1, 36, 98
1, 2472, Note_on_c, 2, 62, 93
1, 2472, Note_on_c, 2, 71, 97
1, 2472, Note_off_c, 9, 69, 64
1, 2473, Note_on_c, 2, 67, 90
1, 2473, Note_on_c, 7, 64, 70
1, 2490, Note_off_c, 2, 62, 64
1, 2491, Note_off_c, 2, 67, 64
1, 2492, Note_off_c, 2, 71, 64
1, 2493, Note_off_c, 2, 64, 64
1, 2494, Note_off_c, 7, 64, 64
1, 2497, Note_on_c, 9, 42, 58
1, 2497, Note_off_c, 1, 36, 64
1, 2497, Note_on_c, 9, 69, 12
1, 2498, Note_off_c, 9, 42, 64
1, 2498, Note_off_c, 9, 69, 64
1, 2518, Note_on_c, 2, 67, 93
1, 2520, Note_on_c, 1, 36, 102
1, 2520, Note_on_c, 2, 71, 93
1, 2520, Note_on_c, 2, 62, 93
1, 2520, Note_on_c, 2, 64, 97
1, 2520, Note_on_c, 7, 55, 80
1, 2521, Note_on_c, 9, 69, 24
1, 2522, Note_off_c, 9, 69, 64
1, 2534, Note_off_c, 1, 36, 64
1, 2538, Note_off_c, 2, 67, 64
1, 2540, Note_off_c, 2, 71, 64
1, 2544, Note_on_c, 9, 36, 98
1, 2544, Note_off_c, 7, 55, 64
1, 2545, Note_off_c, 9, 36, 64
1, 2545, Note_on_c, 9, 42, 68
1, 2545, Note_on_c, 1, 36, 95
1, 2545, Note_on_c, 9, 69, 62
1, 2546, Note_off_c, 9, 42, 64
1, 2546, Note_off_c, 2, 62, 64
1, 2546, Note_off_c, 9, 69, 64
1, 2566, Note_on_c, 2, 60, 80
1, 2566, Note_on_c, 2, 65, 100
1, 2566, Note_on_c, 2, 69, 87
1, 2567, Note_on_c, 7, 55, 77
1, 2567, Note_on_c, 9, 64, 75
1, 2568, Note_off_c, 9, 64, 64
1, 2569, Note_on_c, 8, 64, 60
1, 2569, Note_on_c, 8, 55, 62
1, 2569, Note_on_c, 9, 69, 38
1, 2570, Note_off_c, 9, 69, 64
1, 2574, Note_off_c, 8, 55, 64
1, 2575, Note_off_c, 8, 64, 64
1, 2577, Note_off_c, 1, 36, 64
1, 2578, Note_off_c, 2, 65, 64
1, 2582, Note_off_c, 2, 69, 64
1, 2587, Note_off_c, 2, 60, 64
1, 2590, Note_off_c, 7, 55, 64
1, 2591, Note_on_c, 9, 69, 19
1, 2592, Note_on_c, 2, 67, 97
1, 2592, Note_on_c, 2, 62, 106
1, 2592, Note_on_c, 2, 71, 100
1, 2592, Note_off_c, 9, 69, 64
1, 2593, Note_on_c, 9, 42, 68
1, 2593, Note_on_c, 7, 59, 80
1, 2593, Note_on_c, 8, 64, 68
1, 2593, Note_on_c, 9, 64, 65
1, 2594, Note_off_c, 9, 42, 64
1, 2594, Note_on_c, 9, 40, 114
1, 2594, Note_on_c, 8, 55, 71
1, 2594, Note_off_c, 9, 64, 64
1, 2595, Note_off_c, 9, 40, 64
1, 2598, Note_off_c, 8, 64, 64
1, 2602, Note_off_c, 7, 59, 64
1, 2602, Note_off_c, 8, 55, 64
1, 2615, Note_on_c, 1, 36, 95
1, 2615, Note_on_c, 9, 69, 30
1, 2616, Note_off_c, 9, 69, 64
1, 2617, Note_on_c, 9, 44, 68
1, 2617, Note_on_c, 7, 59, 72
1, 2618, Note_off_c, 9, 44, 64
1, 2634, Note_off_c, 1, 36, 64
1, 2635, Note_off_c, 7, 59, 64
1, 2637, Note_off_c, 2, 71, 64
1, 2638, Note_off_c, 2, 62, 64
1, 2638, Note_off_c, 2, 67, 64
1, 2639, Note_on_c, 1, 31, 83
1, 2639, Note_on_c, 9, 69, 62
1, 2640, Note_on_c, 9, 46, 72
1, 2640, Note_on_c, 2, 60, 84
1, 2640, Note_on_c, 2, 69, 90
1, 2640, Note_off_c, 9, 69, 64
1, 2641, Note_off_c, 9, 46, 64
1, 2641, Note_on_c, 2, 65, 93
1, 2642, Note_on_c, 7, 55, 74
1, 2662, Note_off_c, 1, 31, 64
1, 2662, Note_on_c, 9, 69, 33
1, 2663, Note_on_c, 1, 33, 89
1, 2663, Note_off_c, 9, 69, 64
1, 2665, Note_off_c, 2, 65, 64
1, 2666, Note_off_c, 2, 60, 64
1, 2668, Note_off_c, 2, 64, 64
1, 2669, Note_off_c, 2, 69, 64
1, 2672, Note_off_c, 7, 55, 64
1, 2687, Note_on_c, 9, 69, 34
1, 2688, Note_on_c, 9, 36, 104
1, 2688, Note_on_c, 2, 67, 97
1, 2688, Note_on_c, 2, 62, 100
1, 2688, Note_on_c, 2, 64, 90
1, 2688, Note_on_c, 2, 71, 106
1, 2688, Note_off_c, 10, 79, 64
1, 2688, Note_on_c, 10, 74, 74
1, 2688, Note_off_c, 9, 69, 64
1, 2689, Note_off_c, 9, 36, 64
1, 2689, Note_on_c, 9, 42, 78
1, 2689, Note_off_c, 1, 33, 64
1, 2689, Note_on_c, 1, 36, 95
1, 2690, Note_off_c, 9, 42, 64
1, 2690, Note_on_c, 7, 55, 83
1, 2698, Note_off_c, 7, 55, 64
1, 2710, Note_off_c, 2, 71, 64
1, 2710, Note_off_c, 2, 67, 64
1, 2710, Note_off_c, 2, 62, 64
1, 2710, Note_off_c, 2, 64, 64
1, 2712, Note_on_c, 2, 67, 80
1, 2712, Note_on_c, 2, 71, 82
1, 2712, Note_on_c, 2, 62, 84
1, 2712, Note_on_c, 2, 64, 69
1, 2712, Note_on_c, 9, 69, 33
1, 2713, Note_off_c, 9, 69, 64
1, 2714, Note_on_c, 7, 55, 72
1, 2719, Note_off_c, 1, 36, 64
1, 2729, Note_off_c, 2, 71, 64
1, 2729, Note_off_c, 2, 67, 64
1, 2730, Note_off_c, 2, 62, 64
1, 2732, Note_off_c, 7, 55, 64
1, 2734, Note_on_c, 2, 60, 87
1, 2735, Note_on_c, 9, 44, 64
1, 2736, Note_off_c, 9, 44, 64
1, 2736, Note_on_c, 2, 69, 90
1, 2736, Note_on_c, 2, 65, 78
1, 2736, Note_on_c, 9, 69, 60
1, 2737, Note_on_c, 7, 57, 80
1, 2737, Note_off_c, 9, 69, 64
1, 2756, Note_off_c, 2, 65, 64
1, 2757, Note_off_c, 2, 69, 64
1, 2758, Note_off_c, 2, 60, 64
1, 2758, Note_off_c, 10, 74, 64
1, 2759, Note_off_c, 7, 57, 64
1, 2759, Note_on_c, 8, 64, 78
1, 2760, Note_on_c, 2, 62, 90
1, 2760, Note_on_c, 8, 55, 68
1, 2760, Note_on_c, 9, 69, 45
1, 2761, Note_on_c, 9, 42, 68
1, 2761, Note_on_c, 2, 67, 97
1, 2761, Note_on_c, 2, 71, 87
1, 2761, Note_on_c, 10, 76, 78
1, 2761, Note_off_c, 9, 69, 64
1, 2762, Note_off_c, 9, 42, 64
1, 2762, Note_on_c, 7, 59, 80
1, 2765, Note_off_c, 8, 64, 64
1, 2767, Note_off_c, 8, 55, 64
1, 2774, Note_off_c, 7, 59, 64
1, 2777, Note_off_c, 2, 67, 64
1, 2778, Note_off_c, 2, 71, 64
1, 2778, Note_off_c, 2, 62, 64
1, 2782, Note_off_c, 2, 64, 64
1, 2783, Note_on_c, 9, 40, 114
1, 2784, Note_off_c, 9, 40, 64
1, 2785, Note_on_c, 8, 64, 78
1, 2785, Note_on_c, 8, 55, 78
1, 2785, Note_on_c, 9, 69, 42
1, 2786, Note_off_c, 9, 69, 64
1, 2794, Note_off_c, 8, 55, 64
1, 2794, Note_off_c, 8, 64, 64
1, 2807, Note_on_c, 9, 44, 64
1, 2808, Note_off_c, 9, 44, 64
1, 2808, Note_on_c, 2, 67, 93
1, 2808, Note_on_c, 2, 71, 97
1, 2808, Note_on_c, 2, 62, 84
1, 2809, Note_on_c, 2, 64, 87
1, 2809, Note_on_c, 7, 55, 74
1, 2809, Note_on_c, 9, 69, 30
1, 2810, Note_off_c, 9, 69, 64
1, 2825, Note_off_c, 2, 67, 64
1, 2826, Note_off_c, 2, 71, 64
1, 2826, Note_off_c, 2, 62, 64
1, 2826, Note_off_c, 7, 55, 64
1, 2830, Note_on_c, 10, 79, 81
1, 2832, Note_on_c, 2, 60, 82
1, 2832, Note_on_c, 2, 65, 82
1, 2832, Note_off_c, 10, 76, 64
1, 2832, Note_on_c, 9, 69, 60
1, 2833, Note_on_c, 9, 42, 68
1, 2833, Note_on_c, 2, 69, 80
1, 2833, Note_off_c, 9, 69, 64
1, 2834, Note_off_c, 9, 42, 64
1, 2846, Note_off_c, 2, 69, 64
1, 2846, Note_off_c, 2, 65, 64
1, 2852, Note_off_c, 2, 60, 64
1, 2854, Note_on_c, 1, 36, 102
1, 2854, Note_on_c, 2, 62, 90
1, 2856, Note_on_c, 2, 71, 87
1, 2856, Note_on_c, 2, 67, 82
1, 2856, Note_on_c, 7, 64, 68
1, 2856, Note_on_c, 9, 69, 30
1, 2857, Note_on_c, 9, 36, 104
1, 2857, Note_off_c, 9, 69, 64
1, 2858, Note_off_c, 9, 36, 64
1, 2873, Note_off_c, 2, 62, 64
1, 2874, Note_off_c, 2, 64, 64
1, 2874, Note_off_c, 2, 71, 64
1, 2874, Note_off_c, 2, 67, 64
1, 2874, Note_off_c, 7, 64, 64
1, 2880, Note_on_c, 9, 42, 57
1, 2881, Note_off_c, 9, 42, 64
1, 2881, Note_off_c, 1, 36, 64
1, 2881, Note_on_c, 9, 69, 40
1, 2882, Note_off_c, 9, 69, 64
1, 2903, Note_on_c, 1, 36, 89
1, 2903, Note_on_c, 9, 69, 31
1, 2904, Note_on_c, 2, 67, 106
1, 2904, Note_on_c, 2, 64, 97
1, 2904, Note_on_c, 2, 71, 100
1, 2904, Note_on_c, 2, 62, 97
1, 2904, Note_off_c, 9, 69, 64
1, 2905, Note_on_c, 7, 55, 80
1, 2919, Note_off_c, 1, 36, 64
1, 2922, Note_off_c, 2, 71, 64
1, 2922, Note_off_c, 2, 67, 64
1, 2928, Note_on_c, 9, 36, 95
1, 2928, Note_on_c, 9, 42, 63
1, 2928, Note_off_c, 7, 55, 64
1, 2928, Note_on_c, 9, 69, 59
1, 2929, Note_off_c, 9, 42, 64
1, 2929, Note_off_c, 9, 36, 64
1, 2929, Note_on_c, 1, 36, 87
1, 2929, Note_off_c, 9, 69, 64
1, 2940, Note_off_c, 2, 62, 64
1, 2950, Note_on_c, 2, 60, 82
1, 2951, Note_on_c, 7, 55, 77
1, 2951, Note_on_c, 8, 55, 68
1, 2951, Note_on_c, 8, 64, 58
1, 2951, Note_on_c, 9, 64, 84
1, 2952, Note_on_c, 2, 65, 93
1, 2952, Note_on_c, 2, 69, 84
1, 2952, Note_off_c, 9, 64, 64
1, 2953, Note_on_c, 9, 69, 40
1, 2954, Note_off_c, 9, 69, 64
1, 2955, Note_off_c, 8, 64, 64
1, 2956, Note_off_c, 8, 55, 64
1, 2962, Note_off_c, 1, 36, 64
1, 2964, Note_off_c, 2, 65, 64
1, 2968, Note_off_c, 2, 69, 64
1, 2970, Note_off_c, 2, 60, 64
1, 2974, Note_on_c, 8, 64, 62
1, 2974, Note_on_c, 8, 55, 75
1, 2976, Note_on_c, 2, 62, 93
1, 2976, Note_on_c, 2, 71, 100
1, 2976, Note_on_c, 2, 67, 93
1, 2976, Note_off_c, 7, 55, 64
1, 2976, Note_on_c, 9, 64, 78
1, 2976, Note_on_c, 9, 69, 30
1, 2977, Note_on_c, 9, 40, 109
1, 2977, Note_on_c, 9, 42, 81
1, 2977, Note_on_c, 7, 59, 83
1, 2977, Note_off_c, 9, 69, 64
1, 2977, Note_off_c, 9, 64, 64
1, 2978, Note_off_c, 9, 42, 64
1, 2978, Note_off_c, 9, 40, 64
1, 2979, Note_off_c, 8, 64, 64
1, 2980, Note_off_c, 8, 55, 64
1, 2985, Note_off_c, 7, 59, 64
1, 2999, Note_on_c, 9, 69, 30
1, 3000, Note_off_c, 9, 69, 64
1, 3001, Note_on_c, 9, 44, 70
1, 3002, Note_off_c, 9, 44, 64
1, 3002, Note_on_c, 7, 59, 90
1, 3018, Note_off_c, 2, 67, 64
1, 3018, Note_off_c, 7, 59, 64
1, 3020, Note_off_c, 2, 71, 64
1, 3020, Note_off_c, 2, 62, 64
1, 3023, Note_on_c, 1, 36, 85
1, 3023, Note_on_c, 9, 69, 63
1, 3024, Note_on_c, 2, 60, 75
1, 3024, Note_on_c, 2, 69, 87
1, 3024, Note_on_c, 2, 65, 93
1, 3024, Note_off_c, 9, 69, 64
1, 3025, Note_on_c, 9, 46, 70
1, 3025, Note_on_c, 8, 64, 68
1, 3025, Note_on_c, 8, 55, 78
1, 3026, Note_off_c, 9, 46, 64
1, 3026, Note_on_c, 7, 55, 80
1, 3034, Note_off_c, 8, 64, 64
1, 3036, Note_off_c, 8, 55, 64
1, 3040, Note_off_c, 2, 65, 64
1, 3044, Note_off_c, 1, 36, 64
1, 3047, Note_on_c, 1, 37, 81
1, 3048, Note_on_c, 9, 69, 38
1, 3049, Note_off_c, 7, 55, 64
1, 3049, Note_off_c, 9, 69, 64
1, 3052, Note_off_c, 2, 64, 64
1, 3069, Note_off_c, 2, 60, 64
1, 3070, Note_off_c, 1, 37, 64
1, 3070, Note_off_c, 2, 69, 64
1, 3070, Note_on_c, 2, 60, 80
1, 3072, Note_on_c, 9, 36, 104
1, 3072, Note_on_c, 2, 69, 97
1, 3072, Note_on_c, 2, 65, 106
1, 3072, Note_on_c, 2, 62, 90
1, 3072, Note_on_c, 7, 57, 96
1, 3072, Note_off_c, 11, 52, 64
1, 3072, Note_off_c, 11, 59, 64
1, 3072, Note_on_c, 11, 60, 55
1, 3072, Note_on_c, 11, 57, 55
1, 3072, Note_on_c, 11, 53, 55
1, 3072, Note_on_c, 9, 69, 22
1, 3073, Note_off_c, 9, 36, 64
1, 3073, Note_on_c, 9, 42, 68
1, 3073, Note_on_c, 1, 38, 98
1, 3073, Note_off_c, 10, 79, 64
1, 3073, Note_on_c, 10, 76, 74
1, 3073, Note_off_c, 9, 69, 64
1, 3074, Note_off_c, 9, 42, 64
1, 3075, Note_off_c, 11, 55, 64
1, 3084, Note_off_c, 2, 62, 64
1, 3084, Note_off_c, 2, 60, 64
1, 3084, Note_off_c, 2, 69, 64
1, 3084, Note_off_c, 2, 65, 64
1, 3085, Note_off_c, 7, 57, 64
1, 3094, Note_on_c, 2, 62, 78
1, 3094, Note_on_c, 2, 60, 84
1, 3096, Note_on_c, 2, 65, 87
1, 3096, Note_on_c, 2, 69, 97
1, 3097, Note_on_c, 7, 57, 74
1, 3097, Note_on_c, 9, 69, 34
1, 3098, Note_off_c, 9, 69, 64
1, 3112, Note_off_c, 2, 65, 64
1, 3113, Note_off_c, 2, 69, 64
1, 3116, Note_off_c, 2, 60, 64
1, 3116, Note_off_c, 7, 57, 64
1, 3120, Note_on_c, 9, 44, 63
1, 3120, Note_on_c, 2, 67, 82
1, 3120, Note_on_c, 2, 64, 82
1, 3120, Note_on_c, 2, 59, 87
1, 3121, Note_off_c, 9, 44, 64
1, 3121, Note_on_c, 7, 59, 77
1, 3121, Note_on_c, 9, 69, 53
1, 3122, Note_off_c, 1, 38, 64
1, 3122, Note_off_c, 9, 69, 64
1, 3136, Note_off_c, 2, 64, 64
1, 3140, Note_off_c, 2, 59, 64
1, 3140, Note_off_c, 2, 67, 64
1, 3142, Note_off_c, 10, 76, 64
1, 3142, Note_on_c, 10, 77, 74
1, 3143, Note_on_c, 8, 57, 68
1, 3143, Note_on_c, 8, 65, 62
1, 3144, Note_off_c, 7, 59, 64
1, 3145, Note_on_c, 9, 42, 64
1, 3145, Note_on_c, 2, 69, 97
1, 3145, Note_on_c, 2, 60, 73
1, 3145, Note_on_c, 2, 65, 97
1, 3145, Note_on_c, 9, 69, 36
1, 3146, Note_off_c, 9, 42, 64
1, 3146, Note_on_c, 7, 60, 74
1, 3146, Note_off_c, 9, 69, 64
1, 3148, Note_off_c, 8, 65, 64
1, 3148, Note_off_c, 8, 57, 64
1, 3158, Note_off_c, 7, 60, 64
1, 3163, Note_off_c, 2, 65, 64
1, 3163, Note_off_c, 2, 62, 64
1, 3163, Note_off_c, 2, 69, 64
1, 3163, Note_off_c, 2, 60, 64
1, 3167, Note_on_c, 9, 40, 109
1, 3168, Note_off_c, 9, 40, 64
1, 3168, Note_on_c, 8, 57, 78
1, 3169, Note_on_c, 8, 65, 68
1, 3169, Note_on_c, 9, 69, 31
1, 3170, Note_off_c, 9, 69, 64
1, 3176, Note_off_c, 8, 65, 64
1, 3176, Note_off_c, 8, 57, 64
1, 3192, Note_on_c, 2, 65, 97
1, 3192, Note_on_c, 2, 62, 93
1, 3192, Note_on_c, 2, 69, 93
1, 3192, Note_on_c, 2, 60, 78
1, 3193, Note_on_c, 9, 44, 68
1, 3193, Note_on_c, 7, 57, 87
1, 3193, Note_on_c, 9, 69, 23
1, 3194, Note_off_c, 9, 44, 64
1, 3194, Note_off_c, 9, 69, 64
1, 3209, Note_off_c, 2, 65, 64
1, 3210, Note_off_c, 2, 60, 64
1, 3212, Note_off_c, 2, 69, 64
1, 3214, Note_off_c, 7, 57, 64
1, 3214, Note_on_c, 10, 84, 83
1, 3215, Note_on_c, 9, 69, 51
1, 3216, Note_on_c, 2, 59, 90
1, 3216, Note_on_c, 2, 64, 67
1, 3216, Note_on_c, 2, 67, 70
1, 3216, Note_off_c, 10, 77, 64
1, 3216, Note_off_c, 9, 69, 64
1, 3217, Note_on_c, 9, 42, 78
1, 3218, Note_off_c, 9, 42, 64
1, 3230, Note_off_c, 2, 64, 64
1, 3234, Note_off_c, 2, 67, 64
1, 3236, Note_off_c, 2, 59, 64
1, 3239, Note_on_c, 9, 36, 95
1, 3240, Note_off_c, 9, 36, 64
1, 3240, Note_on_c, 2, 60, 90
1, 3240, Note_on_c, 2, 65, 97
1, 3240, Note_on_c, 2, 69, 90
1, 3240, Note_on_c, 9, 69, 34
1, 3241, Note_on_c, 1, 38, 102
1, 3241, Note_on_c, 7, 65, 87
1, 3241, Note_off_c, 9, 69, 64
1, 3256, Note_off_c, 2, 60, 64
1, 3260, Note_off_c, 2, 65, 64
1, 3261, Note_off_c, 2, 62, 64
1, 3262, Note_off_c, 2, 69, 64
1, 3262, Note_off_c, 7, 65, 64
1, 3263, Note_off_c, 1, 38, 64
1, 3264, Note_on_c, 9, 42, 61
1, 3265, Note_off_c, 9, 42, 64
1, 3287, Note_on_c, 1, 38, 95
1, 3287, Note_on_c, 9, 69, 22
1, 3288, Note_on_c, 2, 65, 100
1, 3288, Note_on_c, 2, 69, 97
1, 3288, Note_on_c, 2, 62, 106
1, 3288, Note_on_c, 2, 60, 87
1, 3288, Note_off_c, 9, 69, 64
1, 3289, Note_on_c, 7, 57, 90
1, 3302, Note_off_c, 1, 38, 64
1, 3310, Note_off_c, 2, 69, 64
1, 3310, Note_off_c, 7, 57, 64
1, 3311, Note_on_c, 9, 36, 98
1, 3311, Note_on_c, 9, 42, 85
1, 3311, Note_on_c, 1, 38, 102
1, 3311, Note_on_c, 9, 69, 51
1, 3312, Note_off_c, 9, 42, 64
1, 3312, Note_off_c, 9, 36, 64
1, 3312, Note_off_c, 9, 69, 64
1, 3313, Note_off_c, 2, 65, 64
1, 3320, Note_off_c, 2, 60, 64
1, 3322, Note_off_c, 2, 62, 64
1, 3334, Note_on_c, 2, 59, 87
1, 3334, Note_on_c, 2, 67, 78
1, 3334, Note_on_c, 9, 64, 84
1, 3335, Note_on_c, 7, 57, 83
1, 3335, Note_off_c, 9, 64, 64
1, 3335, Note_on_c, 9, 69, 48
1, 3336, Note_on_c, 2, 64, 84
1, 3336, Note_on_c, 2, 62, 3
1, 3336, Note_off_c, 9, 69, 64
1, 3337, Note_on_c, 8, 65, 65
1, 3337, Note_on_c, 8, 57, 75
1, 3342, Note_off_c, 8, 65, 64
1, 3344, Note_off_c, 8, 57, 64
1, 3346, Note_off_c, 1, 38, 64
1, 3348, Note_off_c, 2, 64, 64
1, 3350, Note_off_c, 2, 67, 64
1, 3354, Note_off_c, 2, 59, 64
1, 3357, Note_off_c, 7, 57, 64
1, 3359, Note_on_c, 9, 64, 78
1, 3360, Note_on_c, 9, 40, 104
1, 3360, Note_on_c, 2, 69, 106
1, 3360, Note_on_c, 2, 60, 90
1, 3360, Note_on_c, 2, 65, 111
1, 3360, Note_off_c, 9, 64, 64
1, 3361, Note_off_c, 9, 40, 64
1, 3361, Note_on_c, 9, 42, 68
1, 3361, Note_on_c, 7, 60, 72
1, 3361, Note_on_c, 8, 65, 71
1, 3361, Note_on_c, 8, 57, 75
1, 3362, Note_off_c, 9, 42, 64
1, 3362, Note_on_c, 9, 69, 33
1, 3363, Note_off_c, 9, 69, 64
1, 3369, Note_off_c, 7, 60, 64
1, 3371, Note_off_c, 8, 65, 64
1, 3372, Note_off_c, 8, 57, 64
1, 3384, Note_on_c, 7, 60, 66
1, 3385, Note_on_c, 9, 44, 64
1, 3385, Note_on_c, 9, 69, 26
1, 3386, Note_off_c, 9, 44, 64
1, 3386, Note_off_c, 9, 69, 64
1, 3401, Note_off_c, 2, 69, 64
1, 3402, Note_off_c, 2, 60, 64
1, 3402, Note_off_c, 7, 60, 64
1, 3405, Note_off_c, 2, 65, 64
1, 3408, Note_on_c, 2, 67, 76
1, 3408, Note_on_c, 2, 59, 84
1, 3408, Note_on_c, 7, 57, 87
1, 3409, Note_on_c, 9, 46, 81
1, 3409, Note_on_c, 2, 64, 78
1, 3409, Note_on_c, 9, 69, 61
1, 3410, Note_off_c, 9, 46, 64
1, 3410, Note_off_c, 9, 69, 64
1, 3430, Note_off_c, 2, 62, 64
1, 3431, Note_on_c, 1, 33, 87
1, 3432, Note_on_c, 9, 69, 40
1, 3433, Note_off_c, 9, 69, 64
1, 3434, Note_off_c, 7, 57, 64
1, 3437, Note_off_c, 2, 64, 64
1, 3438, Note_off_c, 2, 67, 64
1, 3448, Note_off_c, 2, 59, 64
1, 3454, Note_on_c, 2, 65, 100
1, 3455, Note_on_c, 9, 36, 104
1, 3455, Note_off_c, 1, 33, 64
1, 3456, Note_off_c, 9, 36, 64
1, 3456, Note_on_c, 2, 69, 100
1, 3456, Note_on_c, 2, 60, 90
1, 3456, Note_on_c, 2, 62, 84
1, 3457, Note_on_c, 9, 42, 72
1, 3457, Note_on_c, 1, 38, 98
1, 3457, Note_on_c, 7, 57, 83
1, 3457, Note_on_c, 10, 76, 83
1, 3458, Note_off_c, 9, 42, 64
1, 3458, Note_on_c, 9, 69, 33
1, 3459, Note_off_c, 9, 69, 64
1, 3464, Note_off_c, 10, 84, 64
1, 3466, Note_off_c, 7, 57, 64
1, 3477, Note_off_c, 2, 69, 64
1, 3478, Note_off_c, 2, 65, 64
1, 3478, Note_off_c, 2, 60, 64
1, 3478, Note_off_c, 2, 62, 64
1, 3478, Note_on_c, 2, 69, 84
1, 3480, Note_on_c, 2, 60, 67
1, 3480, Note_on_c, 2, 65, 87
1, 3480, Note_on_c, 2, 62, 80
1, 3481, Note_on_c, 7, 57, 77
1, 3481, Note_on_c, 9, 69, 30
1, 3482, Note_off_c, 9, 69, 64
1, 3498, Note_off_c, 7, 57, 64
1, 3501, Lyric_t, "\012"
1, 3502, Note_off_c, 1, 38, 64
1, 3504, Note_off_c, 2, 69, 64
1, 3504, Note_on_c, 2, 67, 82
1, 3504, Note_on_c, 2, 59, 90
1, 3504, Note_on_c, 2, 64, 84
1, 3505, Note_on_c, 9, 44, 61
1, 3505, Note_off_c, 2, 60, 64
1, 3505, Note_off_c, 2, 62, 64
1, 3505, Note_off_c, 2, 65, 64
1, 3505, Note_on_c, 7, 59, 66
1, 3506, Note_off_c, 9, 44, 64
1, 3506, Note_on_c, 9, 69, 52
1, 3507, Note_off_c, 9, 69, 64
1, 3522, Note_off_c, 2, 67, 64
1, 3522, Note_off_c, 2, 64, 64
1, 3525, Note_off_c, 2, 59, 64
1, 3526, Note_on_c, 2, 62, 3
1, 3527, Note_on_c, 8, 57, 56
1, 3527, Note_on_c, 8, 65, 68
1, 3528, Note_on_c, 2, 60, 84
1, 3528, Note_on_c, 2, 69, 93
1, 3528, Note_on_c, 2, 65, 90
1, 3529, Note_on_c, 9, 42, 58
1, 3529, Note_on_c, 9, 69, 36
1, 3530, Note_off_c, 9, 42, 64
1, 3530, Note_on_c, 7, 60, 77
1, 3530, Note_on_c, 10, 77, 80
1, 3530, Note_off_c, 9, 69, 64
1, 3531, Note_off_c, 10, 76, 64
1, 3532, Note_off_c, 7, 59, 64
1, 3532, Note_off_c, 8, 65, 64
1, 3532, Note_off_c, 8, 57, 64
1, 3542, Note_off_c, 7, 60, 64
1, 3544, Note_off_c, 2, 60, 64
1, 3545, Note_off_c, 2, 69, 64
1, 3546, Note_off_c, 2, 65, 64
1, 3551, Note_on_c, 9, 40, 114
1, 3551, Note_on_c, 8, 57, 84
1, 3552, Note_off_c, 9, 40, 64
1, 3552, Note_off_c, 2, 62, 64
1, 3553, Note_on_c, 8, 65, 78
1, 3553, Note_on_c, 9, 69, 40
1, 3554, Note_off_c, 9, 69, 64
1, 3561, Note_off_c, 8, 65, 64
1, 3565, Note_off_c, 8, 57, 64
1, 3574, Note_on_c, 9, 44, 72
1, 3575, Note_off_c, 9, 44, 64
1, 3576, Note_on_c, 2, 65, 90
1, 3576, Note_on_c, 2, 69, 93
1, 3576, Note_on_c, 2, 60, 82
1, 3576, Note_on_c, 2, 62, 106
1, 3577, Note_on_c, 9, 69, 23
1, 3578, Note_on_c, 7, 57, 87
1, 3578, Note_off_c, 9, 69, 64
1, 3589, Note_off_c, 7, 57, 64
1, 3593, Note_off_c, 2, 65, 64
1, 3594, Note_off_c, 2, 69, 64
1, 3594, Note_off_c, 2, 62, 64
1, 3596, Note_off_c, 2, 60, 64
1, 3598, Note_on_c, 9, 42, 70
1, 3599, Note_off_c, 9, 42, 64
1, 3600, Note_on_c, 2, 59, 90
1, 3600, Note_on_c, 2, 64, 80
1, 3600, Note_on_c, 2, 67, 82
1, 3600, Note_on_c, 2, 62, 60
1, 3600, Note_on_c, 9, 69, 58
1, 3601, Note_off_c, 9, 69, 64
1, 3602, Note_on_c, 10, 88, 83
1, 3611, Note_off_c, 10, 77, 64
1, 3618, Note_off_c, 2, 67, 64
1, 3620, Note_off_c, 2, 64, 64
1, 3622, Note_on_c, 9, 36, 98
1, 3622, Note_off_c, 2, 59, 64
1, 3623, Note_off_c, 9, 36, 64
1, 3624, Note_on_c, 2, 69, 93
1, 3624, Note_on_c, 2, 60, 87
1, 3624, Note_on_c, 2, 65, 97
1, 3626, Note_on_c, 7, 65, 80
1, 3626, Note_on_c, 9, 69, 48
1, 3627, Note_off_c, 9, 69, 64
1, 3633, Note_off_c, 2, 62, 64
1, 3638, Note_off_c, 2, 65, 64
1, 3638, Note_off_c, 2, 60, 64
1, 3638, Note_off_c, 7, 65, 64
1, 3640, Note_off_c, 2, 69, 64
1, 3647, Note_on_c, 9, 36, 98
1, 3647, Note_on_c, 9, 42, 63
1, 3647, Note_on_c, 1, 43, 98
1, 3648, Note_off_c, 9, 42, 64
1, 3648, Note_off_c, 9, 36, 64
1, 3650, Note_on_c, 9, 69, 23
1, 3651, Note_off_c, 9, 69, 64
1, 3664, Note_off_c, 1, 43, 64
1, 3671, Note_on_c, 9, 40, 109
1, 3671, Note_on_c, 1, 45, 95
1, 3672, Note_off_c, 9, 40, 64
1, 3672, Note_on_c, 2, 65, 97
1, 3672, Note_on_c, 2, 62, 106
1, 3672, Note_on_c, 2, 60, 93
1, 3672, Note_on_c, 2, 69, 100
1, 3673, Note_on_c, 7, 55, 87
1, 3673, Note_on_c, 9, 69, 24
1, 3674, Note_off_c, 9, 69, 64
1, 3689, Note_off_c, 1, 45, 64
1, 3690, Note_off_c, 2, 69, 64
1, 3694, Note_off_c, 7, 55, 64
1, 3695, Note_on_c, 1, 38, 98
1, 3696, Note_on_c, 9, 42, 85
1, 3697, Note_off_c, 9, 42, 64
1, 3697, Note_on_c, 9, 69, 62
1, 3698, Note_off_c, 2, 65, 64
1, 3698, Note_off_c, 9, 69, 64
1, 3704, Note_off_c, 2, 62, 64
1, 3706, Note_off_c, 2, 60, 64
1, 3718, Note_on_c, 2, 59, 93
1, 3718, Note_on_c, 2, 67, 84
1, 3719, Note_on_c, 7, 55, 62
1, 3719, Note_on_c, 9, 64, 84
1, 3720, Note_on_c, 2, 64, 87
1, 3720, Note_off_c, 9, 64, 64
1, 3721, Note_on_c, 9, 69, 38
1, 3722, Note_off_c, 9, 69, 64
1, 3732, Note_off_c, 2, 64, 64
1, 3732, Note_off_c, 2, 67, 64
1, 3737, Note_off_c, 2, 59, 64
1, 3742, Note_off_c, 1, 38, 64
1, 3742, Note_on_c, 2, 62, 82
1, 3742, Note_on_c, 2, 65, 97
1, 3742, Note_off_c, 7, 55, 64
1, 3743, Note_on_c, 9, 40, 109
1, 3743, Note_on_c, 1, 31, 85
1, 3743, Note_on_c, 8, 55, 84
1, 3743, Note_on_c, 8, 67, 65
1, 3743, Note_on_c, 9, 64, 84
1, 3744, Lyric_t, "(Girl) "
1, 3744, Lyric_t, "\015"
1, 3744, Note_off_c, 9, 40, 64
1, 3744, Note_on_c, 2, 69, 93
1, 3744, Note_on_c, 2, 60, 93
1, 3744, Note_on_c, 7, 59, 80
1, 3744, Note_off_c, 9, 64, 64
1, 3745, Note_on_c, 9, 42, 68
1, 3746, Note_off_c, 9, 42, 64
1, 3752, Note_off_c, 8, 67, 64
1, 3753, Note_off_c, 7, 59, 64
1, 3758, Note_off_c, 8, 55, 64
1, 3766, Note_off_c, 1, 31, 64
1, 3767, Note_on_c, 9, 40, 91
1, 3767, Note_on_c, 1, 33, 89
1, 3768, Note_off_c, 9, 40, 64
1, 3769, Note_on_c, 7, 59, 63
1, 3769, Note_on_c, 9, 69, 40
1, 3770, Note_off_c, 9, 69, 64
1, 3782, Note_off_c, 2, 69, 64
1, 3782, Note_off_c, 2, 65, 64
1, 3786, Note_off_c, 7, 59, 64
1, 3788, Note_off_c, 2, 60, 64
1, 3789, Note_off_c, 1, 33, 64
1, 3790, Note_on_c, 1, 34, 98
1, 3790, Note_on_c, 2, 59, 78
1, 3791, Note_on_c, 9, 45, 109
1, 3792, Note_off_c, 9, 45, 64
1, 3792, Note_on_c, 2, 67, 78
1, 3792, Note_on_c, 2, 64, 90
1, 3793, Note_on_c, 9, 42, 94
1, 3793, Note_on_c, 7, 55, 72
1, 3793, Note_on_c, 8, 55, 84
1, 3793, Note_on_c, 8, 67, 68
1, 3793, Note_on_c, 9, 69, 63
1, 3794, Note_off_c, 9, 42, 64
1, 3794, Note_off_c, 9, 69, 64
1, 3804, Note_off_c, 8, 67, 64
1, 3810, Note_off_c, 8, 55, 64
1, 3814, Note_off_c, 1, 34, 64
1, 3814, Note_on_c, 1, 35, 95
1, 3814, Note_off_c, 10, 88, 64
1, 3815, Note_off_c, 11, 60, 64
1, 3815, Note_off_c, 11, 57, 64
1, 3815, Note_off_c, 11, 53, 64
1, 3817, Note_on_c, 9, 69, 48
1, 3818, Note_off_c, 9, 69, 64
1, 3830, Note_off_c, 2, 64, 64
1, 3830, Note_off_c, 2, 67, 64
1, 3833, Note_off_c, 2, 62, 64
1, 3836, Note_off_c, 7, 55, 64
1, 3837, Note_on_c, 7, 55, 83
1, 3838, Note_off_c, 1, 35, 64
1, 3838, Note_on_c, 2, 71, 106
1, 3838, Note_on_c, 2, 67, 106
1, 3838, Note_on_c, 2, 64, 93
1, 3838, Note_on_c, 2, 62, 90
1, 3840, Lyric_t, "\226 Shad"
1, 3840, Note_on_c, 3, 62, 116
1, 3840, Note_on_c, 9, 36, 104
1, 3840, Note_on_c, 9, 51, 78
1, 3840, Note_on_c, 9, 69, 20
1, 3841, Control_c, 3, 1, 0
1, 3841, Pitch_bend_c, 3, 8192
1, 3841, Note_off_c, 9, 51, 64
1, 3841, Note_off_c, 9, 36, 64
1, 3841, Note_on_c, 1, 36, 102
1, 3841, Note_off_c, 9, 69, 64
1, 3850, Note_off_c, 7, 55, 64
1, 3861, Note_off_c, 2, 64, 64
1, 3862, Note_off_c, 2, 67, 64
1, 3862, Note_off_c, 2, 62, 64
1, 3862, Note_off_c, 2, 71, 64
1, 3862, Note_on_c, 2, 64, 76
1, 3863, Note_on_c, 7, 55, 80
1, 3863, Note_on_c, 9, 69, 36
1, 3864, Note_on_c, 2, 67, 72
1, 3864, Note_on_c, 2, 71, 63
1, 3864, Note_on_c, 2, 62, 60
1, 3864, Note_off_c, 9, 69, 64
1, 3879, Note_off_c, 7, 55, 64
1, 3880, Note_off_c, 2, 59, 64
1, 3881, Note_off_c, 2, 71, 64
1, 3881, Note_off_c, 2, 62, 64
1, 3881, Note_off_c, 2, 67, 64
1, 3882, Note_off_c, 1, 36, 64
1, 3887, Note_on_c, 7, 57, 87
1, 3887, Note_on_c, 9, 69, 58
1, 3888, Note_on_c, 2, 60, 76
1, 3888, Note_on_c, 2, 69, 80
1, 3888, Note_off_c, 9, 69, 64
1, 3890, Note_on_c, 9, 44, 63
1, 3891, Note_off_c, 9, 44, 64
1, 3899, Note_off_c, 2, 64, 64
1, 3900, Note_off_c, 2, 69, 64
1, 3902, Note_off_c, 2, 60, 64
1, 3905, Note_off_c, 7, 57, 64
1, 3910, Note_on_c, 2, 67, 87
1, 3911, Note_on_c, 7, 59, 87
1, 3911, Note_on_c, 8, 64, 62
1, 3911, Note_on_c, 8, 55, 65
1, 3911, Note_on_c, 8, 59, 62
1, 3911, Note_on_c, 9, 69, 36
1, 3912, Note_on_c, 2, 64, 78
1, 3912, Note_on_c, 2, 71, 82
1, 3912, Note_on_c, 2, 62, 82
1, 3912, Note_off_c, 9, 69, 64
1, 3914, Lyric_t, "ows "
1, 3914, Note_off_c, 3, 62, 64
1, 3914, Note_on_c, 3, 64, 102
1, 3914, Note_on_c, 9, 42, 64
1, 3915, Note_off_c, 9, 42, 64
1, 3917, Note_off_c, 8, 59, 64
1, 3918, Note_off_c, 8, 64, 64
1, 3921, Note_off_c, 8, 55, 64
1, 3925, Note_off_c, 2, 62, 64
1, 3925, Note_off_c, 2, 64, 64
1, 3928, Note_off_c, 2, 71, 64
1, 3929, Note_off_c, 7, 59, 64
1, 3932, Note_off_c, 2, 67, 64
1, 3935, Note_on_c, 9, 40, 114
1, 3935, Note_on_c, 8, 59, 75
1, 3935, Note_on_c, 8, 55, 68
1, 3935, Note_on_c, 8, 64, 78
1, 3936, Note_off_c, 9, 40, 64
1, 3937, Note_on_c, 9, 69, 22
1, 3938, Note_off_c, 9, 69, 64
1, 3945, Note_off_c, 8, 64, 64
1, 3947, Note_off_c, 8, 59, 64
1, 3948, Note_off_c, 8, 55, 64
1, 3960, Note_on_c, 2, 67, 93
1, 3960, Note_on_c, 2, 71, 90
1, 3960, Note_on_c, 2, 62, 87
1, 3960, Note_on_c, 2, 64, 90
1, 3961, Note_on_c, 9, 44, 72
1, 3961, Note_on_c, 7, 55, 80
1, 3961, Note_on_c, 9, 69, 25
1, 3962, Note_off_c, 9, 44, 64
1, 3962, Note_off_c, 9, 69, 64
1, 3973, Note_off_c, 2, 62, 64
1, 3976, Note_off_c, 2, 71, 64
1, 3977, Note_off_c, 2, 67, 64
1, 3977, Note_off_c, 7, 55, 64
1, 3982, Note_on_c, 2, 60, 72
1, 3982, Note_on_c, 2, 69, 80
1, 3983, Note_off_c, 3, 64, 64
1, 3983, Note_on_c, 9, 69, 67
1, 3984, Note_off_c, 9, 69, 64
1, 3985, Lyric_t, "fall"
1, 3985, Note_on_c, 3, 62, 105
1, 3985, Note_on_c, 9, 42, 58
1, 3986, Note_off_c, 9, 42, 64
1, 3996, Note_off_c, 2, 64, 64
1, 3998, Note_off_c, 2, 69, 64
1, 3998, Note_off_c, 2, 60, 64
1, 4006, Note_on_c, 2, 62, 84
1, 4006, Note_on_c, 2, 64, 87
1, 4007, Note_on_c, 9, 69, 38
1, 4008, Note_on_c, 2, 67, 100
1, 4008, Note_on_c, 2, 71, 90
1, 4008, Note_off_c, 9, 69, 64
1, 4009, Note_on_c, 9, 36, 85
1, 4009, Note_on_c, 1, 36, 98
1, 4009, Note_on_c, 7, 64, 77
1, 4010, Note_off_c, 9, 36, 64
1, 4026, Note_off_c, 7, 64, 64
1, 4031, Note_on_c, 9, 42, 70
1, 4032, Note_off_c, 9, 42, 64
1, 4033, Note_on_c, 9, 69, 12
1, 4034, Note_off_c, 9, 69, 64
1, 4035, Note_off_c, 1, 36, 64
1, 4035, Note_off_c, 2, 71, 64
1, 4035, Note_off_c, 2, 67, 64
1, 4038, Note_off_c, 2, 64, 64
1, 4038, Note_off_c, 2, 62, 64
1, 4054, Note_on_c, 2, 67, 93
1, 4054, Note_on_c, 2, 62, 87
1, 4054, Note_on_c, 2, 71, 90
1, 4054, Note_on_c, 2, 64, 87
1, 4057, Note_on_c, 7, 55, 83
1, 4057, Note_on_c, 9, 69, 24
1, 4058, Note_on_c, 1, 36, 92
1, 4058, Note_off_c, 9, 69, 64
1, 4061, Note_off_c, 3, 62, 64
1, 4065, Note_off_c, 2, 71, 64
1, 4069, Note_off_c, 2, 62, 64
1, 4073, Note_off_c, 1, 36, 64
1, 4074, Note_off_c, 7, 55, 64
1, 4075, Note_off_c, 2, 67, 64
1, 4078, Lyric_t, "ing, "
1, 4078, Note_on_c, 3, 64, 111
1, 4078, Note_on_c, 2, 60, 82
1, 4078, Note_on_c, 2, 69, 78
1, 4080, Note_on_c, 9, 36, 104
1, 4081, Note_off_c, 9, 36, 64
1, 4081, Note_on_c, 9, 42, 64
1, 4081, Note_on_c, 1, 36, 87
1, 4081, Note_on_c, 9, 69, 62
1, 4082, Note_off_c, 9, 42, 64
1, 4082, Note_off_c, 9, 69, 64
1, 4098, Note_off_c, 2, 69, 64
1, 4100, Note_off_c, 2, 64, 64
1, 4103, Note_on_c, 7, 55, 77
1, 4103, Note_on_c, 8, 64, 65
1, 4103, Note_on_c, 9, 64, 75
1, 4104, Note_off_c, 2, 60, 64
1, 4104, Note_off_c, 9, 64, 64
1, 4105, Note_off_c, 3, 64, 64
1, 4105, Note_on_c, 8, 55, 54
1, 4105, Note_on_c, 8, 59, 56
1, 4105, Note_on_c, 9, 69, 38
1, 4106, Note_off_c, 9, 69, 64
1, 4110, Note_off_c, 8, 59, 64
1, 4110, Note_off_c, 8, 64, 64
1, 4114, Note_off_c, 8, 55, 64
1, 4117, Note_off_c, 1, 36, 64
1, 4118, Note_off_c, 7, 55, 64
1, 4127, Note_on_c, 9, 40, 120
1, 4127, Note_on_c, 9, 69, 19
1, 4128, Note_off_c, 9, 40, 64
1, 4128, Note_on_c, 9, 42, 68
1, 4128, Note_on_c, 2, 67, 93
1, 4128, Note_on_c, 2, 71, 97
1, 4128, Note_on_c, 2, 62, 100
1, 4128, Note_on_c, 2, 64, 100
1, 4128, Note_on_c, 8, 59, 78
1, 4128, Note_off_c, 9, 69, 64
1, 4129, Lyric_t, "ba"
1, 4129, Note_on_c, 3, 62, 111
1, 4129, Note_off_c, 9, 42, 64
1, 4129, Note_on_c, 7, 59, 96
1, 4129, Note_on_c, 8, 55, 71
1, 4129, Note_on_c, 8, 64, 78
1, 4129, Note_on_c, 9, 64, 65
1, 4130, Note_off_c, 9, 64, 64
1, 4138, Note_off_c, 7, 59, 64
1, 4139, Note_off_c, 8, 64, 64
1, 4140, Note_off_c, 8, 59, 64
1, 4145, Note_off_c, 8, 55, 64
1, 4150, Note_on_c, 9, 44, 70
1, 4151, Note_off_c, 9, 44, 64
1, 4151, Note_on_c, 9, 69, 30
1, 4152, Note_off_c, 9, 69, 64
1, 4153, Note_on_c, 1, 36, 98
1, 4153, Note_on_c, 7, 59, 83
1, 4168, Note_off_c, 2, 64, 64
1, 4168, Note_off_c, 2, 67, 64
1, 4168, Note_off_c, 2, 71, 64
1, 4168, Note_off_c, 2, 62, 64
1, 4169, Note_off_c, 7, 59, 64
1, 4174, Note_off_c, 1, 36, 64
1, 4175, Lyric_t, "by, "
1, 4175, Note_off_c, 3, 62, 64
1, 4175, Note_on_c, 3, 64, 95
1, 4175, Note_on_c, 9, 46, 81
1, 4175, Note_on_c, 1, 31, 83
1, 4175, Note_on_c, 9, 69, 62
1, 4176, Note_off_c, 9, 46, 64
1, 4176, Note_on_c, 2, 64, 61
1, 4176, Note_on_c, 2, 60, 80
1, 4176, Note_on_c, 2, 69, 84
1, 4176, Note_on_c, 2, 67, 84
1, 4176, Note_off_c, 9, 69, 64
1, 4177, Note_on_c, 7, 55, 77
1, 4198, Note_off_c, 1, 31, 64
1, 4198, Note_on_c, 9, 69, 33
1, 4199, Note_on_c, 1, 33, 87
1, 4199, Note_off_c, 9, 69, 64
1, 4206, Note_off_c, 7, 55, 64
1, 4207, Note_off_c, 3, 64, 64
1, 4213, Note_off_c, 2, 67, 64
1, 4213, Note_off_c, 2, 64, 64
1, 4213, Note_off_c, 2, 60, 64
1, 4213, Note_off_c, 2, 69, 64
1, 4223, Note_on_c, 9, 36, 114
1, 4223, Note_on_c, 9, 42, 70
1, 4223, Note_on_c, 7, 55, 87
1, 4223, Note_on_c, 9, 69, 34
1, 4224, Note_off_c, 9, 42, 64
1, 4224, Note_off_c, 9, 36, 64
1, 4224, Note_off_c, 1, 33, 64
1, 4224, Note_on_c, 2, 67, 97
1, 4224, Note_on_c, 2, 71, 100
1, 4224, Note_on_c, 2, 64, 93
1, 4224, Note_on_c, 2, 62, 90
1, 4224, Note_off_c, 9, 69, 64
1, 4225, Note_on_c, 1, 36, 95
1, 4237, Note_off_c, 7, 55, 64
1, 4246, Note_off_c, 2, 62, 64
1, 4246, Note_off_c, 2, 67, 64
1, 4246, Note_off_c, 2, 71, 64
1, 4246, Note_off_c, 2, 64, 64
1, 4247, Note_on_c, 7, 55, 74
1, 4248, Note_on_c, 2, 62, 78
1, 4248, Note_on_c, 2, 67, 76
1, 4248, Note_on_c, 2, 64, 90
1, 4248, Note_on_c, 2, 71, 70
1, 4248, Note_on_c, 9, 69, 33
1, 4249, Note_off_c, 9, 69, 64
1, 4261, Note_off_c, 7, 55, 64
1, 4264, Note_off_c, 1, 36, 64
1, 4266, Note_off_c, 2, 71, 64
1, 4266, Note_off_c, 2, 62, 64
1, 4266, Note_off_c, 2, 67, 64
1, 4268, Note_off_c, 2, 64, 64
1, 4269, Lyric_t, "we "
1, 4269, Note_on_c, 3, 62, 104
1, 4271, Note_on_c, 7, 57, 77
1, 4272, Note_on_c, 9, 44, 53
1, 4272, Note_on_c, 2, 60, 82
1, 4272, Note_on_c, 2, 69, 84
1, 4272, Note_on_c, 9, 69, 60
1, 4273, Note_off_c, 9, 44, 64
1, 4273, Note_off_c, 9, 69, 64
1, 4285, Note_off_c, 2, 69, 64
1, 4288, Note_off_c, 2, 60, 64
1, 4290, Note_off_c, 7, 57, 64
1, 4294, Note_off_c, 3, 62, 64
1, 4295, Note_on_c, 8, 55, 62
1, 4295, Note_on_c, 8, 64, 68
1, 4295, Note_on_c, 8, 59, 51
1, 4296, Note_on_c, 2, 64, 84
1, 4296, Note_on_c, 2, 67, 97
1, 4296, Note_on_c, 2, 71, 87
1, 4296, Note_on_c, 2, 62, 90
1, 4296, Note_on_c, 7, 59, 83
1, 4296, Note_on_c, 9, 69, 45
1, 4297, Note_on_c, 9, 42, 58
1, 4297, Note_off_c, 9, 69, 64
1, 4298, Note_off_c, 9, 42, 64
1, 4300, Note_off_c, 8, 59, 64
1, 4302, Note_off_c, 8, 64, 64
1, 4303, Note_off_c, 8, 55, 64
1, 4306, Note_off_c, 2, 62, 64
1, 4310, Note_off_c, 2, 71, 64
1, 4310, Note_off_c, 2, 64, 64
1, 4312, Note_off_c, 2, 67, 64
1, 4314, Note_off_c, 7, 59, 64
1, 4318, Lyric_t, "stand "
1, 4318, Note_on_c, 3, 64, 105
1, 4318, Note_on_c, 9, 40, 120
1, 4319, Note_off_c, 9, 40, 64
1, 4319, Note_on_c, 8, 55, 68
1, 4319, Note_on_c, 8, 59, 84
1, 4320, Note_on_c, 8, 64, 75
1, 4321, Note_on_c, 9, 69, 42
1, 4322, Note_off_c, 9, 69, 64
1, 4329, Note_off_c, 8, 59, 64
1, 4331, Note_off_c, 8, 64, 64
1, 4333, Note_off_c, 8, 55, 64
1, 4342, Note_on_c, 2, 67, 84
1, 4342, Note_on_c, 2, 62, 90
1, 4342, Note_on_c, 2, 64, 87
1, 4342, Note_on_c, 2, 71, 90
1, 4343, Note_on_c, 7, 55, 77
1, 4344, Note_on_c, 9, 44, 58
1, 4345, Note_off_c, 9, 44, 64
1, 4345, Note_on_c, 9, 69, 30
1, 4346, Note_off_c, 9, 69, 64
1, 4358, Note_off_c, 7, 55, 64
1, 4360, Note_off_c, 2, 71, 64
1, 4360, Note_off_c, 2, 62, 64
1, 4363, Note_off_c, 3, 64, 64
1, 4365, Lyric_t, "a"
1, 4365, Note_on_c, 3, 67, 102
1, 4365, Note_off_c, 2, 67, 64
1, 4366, Note_on_c, 2, 60, 80
1, 4366, Note_on_c, 2, 69, 75
1, 4367, Note_on_c, 9, 42, 64
1, 4368, Note_off_c, 9, 42, 64
1, 4368, Note_on_c, 9, 69, 60
1, 4369, Note_off_c, 9, 69, 64
1, 4375, Note_off_c, 2, 64, 64
1, 4379, Note_off_c, 2, 69, 64
1, 4382, Note_off_c, 2, 60, 64
1, 4390, Note_on_c, 2, 67, 90
1, 4390, Note_on_c, 2, 64, 84
1, 4391, Note_on_c, 9, 36, 109
1, 4391, Note_on_c, 7, 64, 77
1, 4392, Note_off_c, 9, 36, 64
1, 4392, Note_on_c, 2, 62, 90
1, 4392, Note_on_c, 2, 71, 87
1, 4392, Note_on_c, 9, 69, 30
1, 4393, Lyric_t, "lone. "
1, 4393, Lyric_t, "\015"
1, 4393, Note_off_c, 3, 67, 64
1, 4393, Note_on_c, 3, 64, 89
1, 4393, Note_on_c, 1, 36, 92
1, 4393, Note_off_c, 9, 69, 64
1, 4408, Note_off_c, 7, 64, 64
1, 4415, Note_on_c, 9, 42, 61
1, 4415, Note_off_c, 2, 71, 64
1, 4415, Note_off_c, 2, 62, 64
1, 4416, Note_off_c, 9, 42, 64
1, 4417, Note_on_c, 9, 69, 40
1, 4418, Note_off_c, 2, 64, 64
1, 4418, Note_off_c, 2, 67, 64
1, 4418, Note_off_c, 9, 69, 64
1, 4419, Note_off_c, 1, 36, 64
1, 4438, Note_on_c, 2, 67, 90
1, 4438, Note_on_c, 2, 62, 93
1, 4438, Note_on_c, 2, 71, 90
1, 4438, Note_on_c, 2, 64, 84
1, 4439, Note_on_c, 7, 55, 80
1, 4439, Note_on_c, 9, 69, 31
1, 4440, Note_off_c, 9, 69, 64
1, 4441, Note_on_c, 1, 36, 74
1, 4452, Note_off_c, 1, 36, 64
1, 4453, Note_off_c, 2, 71, 64
1, 4455, Note_off_c, 2, 62, 64
1, 4459, Note_off_c, 2, 67, 64
1, 4462, Note_on_c, 9, 36, 98
1, 4462, Note_on_c, 2, 60, 84
1, 4462, Note_on_c, 2, 69, 87
1, 4463, Note_off_c, 9, 36, 64
1, 4463, Note_off_c, 7, 55, 64
1, 4464, Note_on_c, 9, 42, 68
1, 4464, Note_on_c, 9, 69, 59
1, 4465, Lyric_t, "\012"
1, 4465, Note_off_c, 9, 42, 64
1, 4465, Note_on_c, 1, 36, 105
1, 4465, Note_off_c, 9, 69, 64
1, 4481, Note_off_c, 2, 64, 64
1, 4486, Note_off_c, 2, 69, 64
1, 4487, Note_on_c, 8, 64, 56
1, 4487, Note_on_c, 8, 55, 53
1, 4487, Note_on_c, 8, 59, 65
1, 4487, Note_on_c, 9, 64, 84
1, 4488, Note_off_c, 9, 64, 64
1, 4489, Note_on_c, 7, 55, 77
1, 4489, Note_on_c, 9, 69, 40
1, 4490, Note_off_c, 9, 69, 64
1, 4493, Note_off_c, 8, 59, 64
1, 4493, Note_off_c, 8, 64, 64
1, 4494, Note_off_c, 8, 55, 64
1, 4498, Note_off_c, 1, 36, 64
1, 4503, Note_off_c, 7, 55, 64
1, 4505, Note_off_c, 2, 60, 64
1, 4510, Note_on_c, 9, 40, 120
1, 4510, Note_on_c, 2, 67, 90
1, 4510, Note_on_c, 2, 71, 97
1, 4510, Note_on_c, 2, 64, 87
1, 4510, Note_on_c, 2, 62, 93
1, 4511, Note_off_c, 9, 40, 64
1, 4511, Note_on_c, 9, 42, 70
1, 4511, Note_on_c, 8, 64, 68
1, 4511, Note_on_c, 8, 59, 75
1, 4512, Note_off_c, 9, 42, 64
1, 4512, Note_on_c, 7, 59, 90
1, 4512, Note_on_c, 8, 55, 78
1, 4512, Note_on_c, 9, 64, 78
1, 4512, Note_on_c, 9, 69, 30
1, 4513, Note_off_c, 9, 69, 64
1, 4513, Note_off_c, 9, 64, 64
1, 4521, Note_off_c, 8, 55, 64
1, 4521, Note_off_c, 8, 59, 64
1, 4522, Note_off_c, 8, 64, 64
1, 4525, Note_off_c, 7, 59, 64
1, 4534, Note_on_c, 9, 44, 68
1, 4534, Note_on_c, 1, 36, 98
1, 4535, Note_off_c, 9, 44, 64
1, 4535, Note_on_c, 9, 69, 30
1, 4536, Note_off_c, 3, 64, 64
1, 4536, Note_off_c, 9, 69, 64
1, 4537, Note_on_c, 7, 59, 80
1, 4545, Note_off_c, 2, 62, 64
1, 4545, Note_off_c, 2, 67, 64
1, 4545, Note_off_c, 2, 71, 64
1, 4545, Note_off_c, 2, 64, 64
1, 4551, Note_off_c, 1, 36, 64
1, 4557, Note_off_c, 7, 59, 64
1, 4559, Note_on_c, 9, 46, 72
1, 4559, Note_on_c, 9, 69, 63
1, 4560, Note_off_c, 9, 46, 64
1, 4560, Note_on_c, 2, 62, 87
1, 4560, Note_on_c, 2, 67, 97
1, 4560, Note_on_c, 2, 64, 93
1, 4560, Note_on_c, 2, 72, 93
1, 4560, Note_off_c, 9, 69, 64
1, 4561, Note_on_c, 1, 31, 83
1, 4561, Note_on_c, 7, 55, 77
1, 4579, Note_off_c, 1, 31, 64
1, 4582, Note_on_c, 1, 33, 85
1, 4584, Note_on_c, 9, 69, 38
1, 4585, Note_off_c, 9, 69, 64
1, 4590, Note_off_c, 7, 55, 64
1, 4604, Note_off_c, 2, 72, 64
1, 4604, Note_off_c, 2, 62, 64
1, 4604, Note_off_c, 2, 67, 64
1, 4604, Note_off_c, 2, 64, 64
1, 4606, Note_on_c, 9, 36, 104
1, 4606, Note_on_c, 2, 64, 90
1, 4606, Note_on_c, 2, 71, 100
1, 4606, Note_on_c, 2, 67, 87
1, 4606, Note_on_c, 2, 74, 100
1, 4607, Lyric_t, "Out "
1, 4607, Note_on_c, 3, 67, 99
1, 4607, Note_off_c, 9, 36, 64
1, 4608, Note_on_c, 9, 42, 68
1, 4608, Note_on_c, 9, 69, 22
1, 4609, Note_off_c, 9, 42, 64
1, 4609, Note_off_c, 1, 33, 64
1, 4609, Note_on_c, 1, 36, 102
1, 4609, Note_on_c, 7, 55, 70
1, 4609, Note_off_c, 9, 69, 64
1, 4621, Note_off_c, 7, 55, 64
1, 4624, Note_off_c, 3, 67, 64
1, 4629, Note_off_c, 2, 74, 64
1, 4629, Note_off_c, 2, 67, 64
1, 4629, Note_off_c, 2, 71, 64
1, 4630, Note_off_c, 2, 64, 64
1, 4630, Note_on_c, 2, 67, 75
1, 4630, Note_on_c, 2, 74, 70
1, 4630, Note_on_c, 2, 71, 84
1, 4631, Lyric_t, "on "
1, 4631, Note_on_c, 3, 67, 85
1, 4632, Note_on_c, 2, 64, 80
1, 4632, Note_on_c, 7, 55, 65
1, 4633, Note_on_c, 9, 69, 34
1, 4634, Note_off_c, 9, 69, 64
1, 4637, Note_off_c, 1, 36, 64
1, 4640, Note_off_c, 3, 67, 64
1, 4647, Note_off_c, 7, 55, 64
1, 4651, Note_off_c, 2, 71, 64
1, 4651, Note_off_c, 2, 67, 64
1, 4651, Note_off_c, 2, 74, 64
1, 4652, Note_off_c, 2, 64, 64
1, 4654, Note_on_c, 2, 64, 76
1, 4654, Note_on_c, 2, 67, 72
1, 4654, Note_on_c, 2, 69, 90
1, 4654, Note_on_c, 2, 72, 78
1, 4655, Note_on_c, 9, 44, 72
1, 4655, Note_on_c, 7, 57, 77
1, 4656, Lyric_t, "the "
1, 4656, Note_on_c, 3, 67, 102
1, 4656, Note_off_c, 9, 44, 64
1, 4657, Note_on_c, 9, 69, 53
1, 4658, Note_off_c, 9, 69, 64
1, 4666, Note_off_c, 2, 69, 64
1, 4667, Note_off_c, 2, 67, 64
1, 4672, Note_off_c, 3, 67, 64
1, 4672, Note_off_c, 2, 72, 64
1, 4675, Note_off_c, 2, 64, 64
1, 4676, Note_off_c, 7, 57, 64
1, 4679, Note_on_c, 9, 42, 68
1, 4680, Lyric_t, "street, "
1, 4680, Note_on_c, 3, 67, 98
1, 4680, Note_off_c, 9, 42, 64
1, 4680, Note_on_c, 2, 71, 100
1, 4680, Note_on_c, 2, 67, 84
1, 4680, Note_on_c, 2, 74, 90
1, 4680, Note_on_c, 2, 64, 66
1, 4681, Note_on_c, 7, 60, 74
1, 4681, Note_on_c, 8, 64, 75
1, 4681, Note_on_c, 8, 55, 62
1, 4681, Note_on_c, 8, 59, 71
1, 4681, Note_on_c, 9, 69, 36
1, 4682, Note_off_c, 9, 69, 64
1, 4688, Note_off_c, 2, 64, 64
1, 4690, Note_off_c, 8, 59, 64
1, 4690, Note_off_c, 8, 55, 64
1, 4690, Note_off_c, 8, 64, 64
1, 4692, Note_off_c, 2, 67, 64
1, 4693, Note_off_c, 2, 74, 64
1, 4696, Note_off_c, 2, 71, 64
1, 4701, Note_off_c, 7, 60, 64
1, 4702, Note_on_c, 9, 40, 120
1, 4703, Note_off_c, 9, 40, 64
1, 4705, Note_off_c, 3, 67, 64
1, 4705, Note_on_c, 8, 55, 51
1, 4705, Note_on_c, 8, 64, 75
1, 4705, Note_on_c, 8, 59, 68
1, 4705, Note_on_c, 9, 69, 31
1, 4706, Note_off_c, 9, 69, 64
1, 4716, Note_off_c, 8, 59, 64
1, 4719, Note_off_c, 8, 55, 64
1, 4720, Note_off_c, 8, 64, 64
1, 4726, Note_on_c, 2, 64, 84
1, 4726, Note_on_c, 2, 71, 93
1, 4726, Note_on_c, 2, 67, 93
1, 4726, Note_on_c, 2, 74, 100
1, 4727, Note_on_c, 9, 44, 61
1, 4727, Note_on_c, 7, 57, 80
1, 4728, Lyric_t, "an"
1, 4728, Note_on_c, 3, 67, 98
1, 4728, Note_off_c, 9, 44, 64
1, 4729, Note_on_c, 9, 69, 23
1, 4730, Note_off_c, 9, 69, 64
1, 4738, Note_off_c, 7, 57, 64
1, 4742, Note_off_c, 3, 67, 64
1, 4750, Lyric_t, "y"
1, 4750, Note_on_c, 3, 67, 102
1, 4750, Note_on_c, 9, 42, 68
1, 4750, Note_on_c, 2, 69, 69
1, 4751, Note_off_c, 9, 42, 64
1, 4751, Note_on_c, 9, 69, 51
1, 4752, Note_on_c, 2, 72, 69
1, 4752, Note_off_c, 9, 69, 64
1, 4754, Note_off_c, 2, 74, 64
1, 4754, Note_off_c, 2, 67, 64
1, 4758, Note_off_c, 2, 71, 64
1, 4763, Note_off_c, 3, 67, 64
1, 4765, Note_off_c, 2, 64, 64
1, 4765, Note_off_c, 2, 69, 64
1, 4766, Note_off_c, 2, 72, 64
1, 4775, Note_on_c, 1, 36, 87
1, 4776, Lyric_t, "bod"
1, 4776, Note_on_c, 3, 69, 105
1, 4776, Note_on_c, 2, 64, 72
1, 4776, Note_on_c, 2, 71, 100
1, 4776, Note_on_c, 2, 74, 93
1, 4776, Note_on_c, 2, 67, 87
1, 4776, Note_on_c, 7, 64, 83
1, 4776, Note_on_c, 9, 69, 34
1, 4777, Note_on_c, 9, 36, 104
1, 4777, Note_off_c, 9, 69, 64
1, 4778, Note_off_c, 9, 36, 64
1, 4792, Note_off_c, 2, 67, 64
1, 4793, Note_off_c, 2, 64, 64
1, 4796, Note_off_c, 2, 74, 64
1, 4796, Note_off_c, 2, 71, 64
1, 4797, Note_off_c, 7, 64, 64
1, 4799, Note_on_c, 9, 42, 64
1, 4800, Note_off_c, 9, 42, 64
1, 4803, Note_off_c, 1, 36, 64
1, 4809, Note_off_c, 3, 69, 64
1, 4822, Note_on_c, 2, 64, 75
1, 4822, Note_on_c, 2, 71, 97
1, 4822, Note_on_c, 2, 67, 84
1, 4822, Note_on_c, 2, 74, 93
1, 4823, Note_on_c, 1, 36, 61
1, 4823, Note_on_c, 9, 69, 22
1, 4824, Note_off_c, 9, 69, 64
1, 4825, Note_on_c, 7, 57, 84
1, 4826, Lyric_t, "y "
1, 4826, Note_on_c, 3, 69, 105
1, 4831, Note_off_c, 1, 36, 64
1, 4838, Note_off_c, 2, 71, 64
1, 4840, Note_off_c, 3, 69, 64
1, 4846, Note_on_c, 2, 72, 78
1, 4846, Note_on_c, 2, 69, 64
1, 4847, Note_on_c, 9, 42, 61
1, 4847, Note_on_c, 1, 36, 92
1, 4847, Note_off_c, 7, 57, 64
1, 4847, Note_on_c, 9, 69, 51
1, 4848, Note_off_c, 9, 42, 64
1, 4848, Note_off_c, 9, 69, 64
1, 4849, Lyric_t, "you "
1, 4849, Note_on_c, 3, 69, 95
1, 4849, Note_on_c, 9, 36, 95
1, 4850, Note_off_c, 9, 36, 64
1, 4859, Note_off_c, 3, 69, 64
1, 4866, Note_off_c, 2, 69, 64
1, 4866, Note_off_c, 2, 74, 64
1, 4866, Note_off_c, 2, 72, 64
1, 4866, Note_off_c, 2, 67, 64
1, 4867, Note_off_c, 2, 64, 64
1, 4870, Note_on_c, 9, 64, 84
1, 4871, Note_on_c, 8, 55, 58
1, 4871, Note_off_c, 9, 64, 64
1, 4871, Note_on_c, 9, 69, 48
1, 4872, Note_on_c, 8, 64, 60
1, 4872, Note_off_c, 9, 69, 64
1, 4873, Lyric_t, "meet "
1, 4873, Lyric_t, "\015"
1, 4873, Note_on_c, 3, 69, 106
1, 4873, Note_on_c, 7, 57, 85
1, 4873, Note_on_c, 8, 59, 51
1, 4878, Note_off_c, 1, 36, 64
1, 4878, Note_off_c, 8, 59, 64
1, 4878, Note_off_c, 8, 64, 64
1, 4878, Note_off_c, 8, 55, 64
1, 4889, Note_off_c, 7, 57, 64
1, 4894, Note_on_c, 2, 71, 106
1, 4894, Note_on_c, 2, 74, 100
1, 4894, Note_on_c, 2, 64, 84
1, 4894, Note_on_c, 2, 67, 90
1, 4895, Note_on_c, 8, 64, 75
1, 4895, Note_on_c, 8, 55, 62
1, 4895, Note_on_c, 9, 64, 78
1, 4896, Note_on_c, 8, 59, 78
1, 4896, Note_off_c, 9, 64, 64
1, 4897, Note_on_c, 9, 40, 124
1, 4897, Note_on_c, 9, 42, 81
1, 4897, Note_on_c, 7, 60, 78
1, 4898, Note_off_c, 9, 42, 64
1, 4898, Note_off_c, 9, 40, 64
1, 4898, Note_on_c, 9, 69, 33
1, 4899, Note_off_c, 9, 69, 64
1, 4907, Note_off_c, 8, 59, 64
1, 4909, Note_off_c, 3, 69, 64
1, 4909, Note_off_c, 7, 60, 64
1, 4909, Note_off_c, 8, 64, 64
1, 4911, Note_off_c, 8, 55, 64
1, 4919, Note_on_c, 1, 36, 92
1, 4921, Lyric_t, "got "
1, 4921, Note_on_c, 3, 69, 95
1, 4921, Note_on_c, 9, 44, 61
1, 4921, Note_on_c, 7, 60, 69
1, 4921, Note_on_c, 9, 69, 26
1, 4922, Note_off_c, 9, 44, 64
1, 4922, Note_off_c, 9, 69, 64
1, 4934, Note_off_c, 3, 69, 64
1, 4934, Note_off_c, 2, 74, 64
1, 4939, Note_off_c, 2, 71, 64
1, 4940, Note_off_c, 7, 60, 64
1, 4943, Note_off_c, 1, 36, 64
1, 4943, Note_on_c, 1, 31, 81
1, 4944, Note_on_c, 2, 72, 87
1, 4944, Note_on_c, 2, 69, 97
1, 4945, Lyric_t, "a "
1, 4945, Note_on_c, 3, 69, 111
1, 4945, Note_on_c, 9, 46, 70
1, 4945, Note_on_c, 7, 57, 76
1, 4945, Note_on_c, 9, 69, 61
1, 4946, Note_off_c, 9, 46, 64
1, 4946, Note_off_c, 9, 69, 64
1, 4962, Note_off_c, 3, 69, 64
1, 4966, Note_off_c, 1, 31, 64
1, 4968, Note_on_c, 9, 69, 40
1, 4969, Note_off_c, 9, 69, 64
1, 4970, Lyric_t, "heart"
1, 4970, Note_on_c, 3, 71, 111
1, 4970, Note_on_c, 1, 33, 71
1, 4981, Note_off_c, 2, 64, 64
1, 4981, Note_off_c, 2, 67, 64
1, 4982, Note_off_c, 2, 72, 64
1, 4982, Note_off_c, 2, 69, 64
1, 4987, Note_off_c, 7, 57, 64
1, 4992, Note_on_c, 2, 71, 106
1, 4992, Note_on_c, 2, 74, 97
1, 4992, Note_on_c, 2, 67, 90
1, 4992, Note_on_c, 2, 64, 84
1, 4992, Note_on_c, 7, 55, 79
1, 4994, Note_on_c, 9, 36, 109
1, 4994, Note_on_c, 9, 42, 70
1, 4994, Note_off_c, 1, 33, 64
1, 4994, Note_on_c, 1, 36, 102
1, 4994, Note_on_c, 9, 69, 33
1, 4995, Note_off_c, 9, 42, 64
1, 4995, Note_off_c, 9, 36, 64
1, 4995, Note_off_c, 9, 69, 64
1, 5003, Note_off_c, 7, 55, 64
1, 5014, Note_off_c, 2, 74, 64
1, 5014, Note_off_c, 2, 71, 64
1, 5015, Note_on_c, 7, 55, 79
1, 5016, Note_on_c, 2, 71, 82
1, 5016, Note_on_c, 2, 74, 76
1, 5017, Note_on_c, 9, 69, 30
1, 5018, Note_off_c, 9, 69, 64
1, 5029, Note_off_c, 7, 55, 64
1, 5032, Note_off_c, 1, 36, 64
1, 5039, Lyric_t, "ache "
1, 5039, Note_off_c, 3, 71, 64
1, 5039, Note_on_c, 3, 72, 102
1, 5039, Note_on_c, 9, 44, 68
1, 5040, Note_off_c, 9, 44, 64
1, 5040, Note_on_c, 2, 69, 87
1, 5040, Note_on_c, 2, 72, 87
1, 5040, Note_on_c, 7, 57, 79
1, 5042, Note_on_c, 9, 69, 52
1, 5043, Note_off_c, 9, 69, 64
1, 5052, Note_off_c, 2, 74, 64
1, 5052, Note_off_c, 2, 71, 64
1, 5052, Note_off_c, 2, 64, 64
1, 5052, Note_off_c, 2, 67, 64
1, 5053, Note_off_c, 2, 69, 64
1, 5056, Note_off_c, 2, 72, 64
1, 5058, Note_off_c, 7, 57, 64
1, 5063, Note_on_c, 8, 64, 68
1, 5063, Note_on_c, 8, 55, 62
1, 5064, Note_on_c, 9, 42, 61
1, 5064, Note_on_c, 2, 64, 78
1, 5064, Note_on_c, 2, 67, 80
1, 5064, Note_on_c, 2, 71, 93
1, 5064, Note_on_c, 2, 74, 87
1, 5065, Note_off_c, 9, 42, 64
1, 5065, Note_on_c, 7, 59, 87
1, 5065, Note_on_c, 8, 59, 58
1, 5065, Note_on_c, 9, 69, 36
1, 5066, Note_off_c, 9, 69, 64
1, 5070, Note_off_c, 8, 59, 64
1, 5071, Note_off_c, 8, 64, 64
1, 5072, Note_off_c, 8, 55, 64
1, 5076, Note_off_c, 2, 74, 64
1, 5076, Note_off_c, 2, 67, 64
1, 5078, Note_off_c, 2, 71, 64
1, 5078, Note_off_c, 2, 64, 64
1, 5082, Note_off_c, 7, 59, 64
1, 5086, Note_off_c, 3, 72, 64
1, 5087, Note_on_c, 9, 40, 120
1, 5088, Note_off_c, 9, 40, 64
1, 5088, Note_on_c, 8, 64, 78
1, 5088, Note_on_c, 8, 55, 68
1, 5089, Note_on_c, 8, 59, 78
1, 5089, Note_on_c, 9, 69, 40
1, 5090, Note_off_c, 9, 69, 64
1, 5099, Note_off_c, 8, 59, 64
1, 5099, Note_off_c, 8, 64, 64
1, 5102, Note_off_c, 8, 55, 64
1, 5110, Lyric_t, "of "
1, 5110, Note_on_c, 3, 71, 105
1, 5112, Note_on_c, 9, 44, 70
1, 5112, Note_on_c, 2, 64, 78
1, 5112, Note_on_c, 2, 71, 93
1, 5112, Note_on_c, 2, 74, 97
1, 5112, Note_on_c, 2, 67, 84
1, 5113, Note_off_c, 9, 44, 64
1, 5113, Note_on_c, 7, 55, 74
1, 5113, Note_on_c, 9, 69, 23
1, 5114, Note_off_c, 9, 69, 64
1, 5128, Note_off_c, 7, 55, 64
1, 5135, Note_off_c, 2, 67, 64
1, 5136, Note_on_c, 9, 42, 63
1, 5136, Note_on_c, 2, 69, 76
1, 5136, Note_on_c, 2, 72, 75
1, 5136, Note_on_c, 9, 69, 58
1, 5137, Note_off_c, 9, 42, 64
1, 5137, Note_off_c, 9, 69, 64
1, 5140, Note_off_c, 3, 71, 64
1, 5143, Note_off_c, 2, 74, 64
1, 5143, Note_off_c, 2, 71, 64
1, 5147, Lyric_t, "their "
1, 5147, Note_on_c, 3, 67, 102
1, 5156, Note_off_c, 2, 64, 64
1, 5156, Note_off_c, 2, 69, 64
1, 5156, Note_off_c, 2, 72, 64
1, 5160, Note_on_c, 2, 64, 76
1, 5160, Note_on_c, 2, 67, 87
1, 5160, Note_on_c, 2, 71, 106
1, 5160, Note_on_c, 2, 74, 97
1, 5160, Note_on_c, 7, 64, 80
1, 5161, Note_on_c, 9, 36, 109
1, 5161, Note_on_c, 1, 36, 85
1, 5162, Note_off_c, 9, 36, 64
1, 5162, Note_on_c, 9, 69, 48
1, 5163, Note_off_c, 9, 69, 64
1, 5176, Note_off_c, 2, 64, 64
1, 5178, Note_off_c, 2, 67, 64
1, 5178, Note_off_c, 2, 71, 64
1, 5178, Note_off_c, 2, 74, 64
1, 5180, Note_off_c, 3, 67, 64
1, 5182, Note_off_c, 1, 36, 64
1, 5183, Lyric_t, "own. "
1, 5183, Lyric_t, "\015"
1, 5183, Note_on_c, 3, 64, 105
1, 5184, Note_off_c, 7, 64, 64
1, 5185, Note_on_c, 9, 42, 63
1, 5186, Note_off_c, 9, 42, 64
1, 5186, Note_on_c, 9, 69, 23
1, 5187, Note_off_c, 9, 69, 64
1, 5208, Note_on_c, 2, 64, 82
1, 5208, Note_on_c, 2, 71, 97
1, 5208, Note_on_c, 2, 74, 97
1, 5208, Note_on_c, 2, 67, 93
1, 5208, Note_on_c, 7, 55, 83
1, 5209, Note_on_c, 1, 36, 95
1, 5209, Note_on_c, 9, 69, 24
1, 5210, Note_off_c, 9, 69, 64
1, 5222, Note_off_c, 1, 36, 64
1, 5225, Note_off_c, 2, 71, 64
1, 5226, Note_off_c, 2, 74, 64
1, 5228, Note_off_c, 7, 55, 64
1, 5232, Note_on_c, 9, 36, 114
1, 5232, Note_on_c, 1, 36, 87
1, 5232, Note_on_c, 2, 69, 78
1, 5232, Note_on_c, 2, 72, 84
1, 5233, Note_off_c, 9, 36, 64
1, 5233, Note_on_c, 9, 69, 62
1, 5234, Note_on_c, 9, 42, 72
1, 5234, Note_off_c, 9, 69, 64
1, 5235, Note_off_c, 9, 42, 64
1, 5238, Note_off_c, 2, 67, 64
1, 5248, Note_off_c, 2, 69, 64
1, 5250, Note_off_c, 2, 72, 64
1, 5255, Note_on_c, 7, 55, 77
1, 5255, Note_on_c, 8, 55, 62
1, 5255, Note_on_c, 8, 64, 65
1, 5255, Note_on_c, 9, 64, 84
1, 5256, Lyric_t, "It "
1, 5256, Note_on_c, 5, 55, 91
1, 5256, Note_on_c, 8, 59, 51
1, 5256, Note_off_c, 9, 64, 64
1, 5257, Control_c, 5, 1, 0
1, 5257, Pitch_bend_c, 5, 8192
1, 5257, Note_on_c, 9, 69, 38
1, 5258, Note_off_c, 9, 69, 64
1, 5261, Note_off_c, 1, 36, 64
1, 5262, Note_off_c, 8, 59, 64
1, 5262, Note_off_c, 8, 55, 64
1, 5263, Note_off_c, 8, 64, 64
1, 5270, Note_off_c, 7, 55, 64
1, 5277, Note_off_c, 2, 64, 64
1, 5278, Note_off_c, 5, 55, 64
1, 5278, Note_on_c, 2, 71, 106
1, 5278, Note_on_c, 2, 74, 106
1, 5279, Note_on_c, 9, 40, 109
1, 5279, Note_on_c, 7, 59, 83
1, 5279, Note_on_c, 8, 64, 84
1, 5279, Note_on_c, 9, 64, 84
1, 5280, Lyric_t, "ought "
1, 5280, Note_on_c, 5, 55, 89
1, 5280, Note_off_c, 9, 40, 64
1, 5280, Note_on_c, 2, 67, 100
1, 5280, Note_on_c, 8, 55, 75
1, 5280, Note_off_c, 9, 64, 64
1, 5281, Note_on_c, 9, 42, 78
1, 5281, Note_on_c, 8, 59, 84
1, 5282, Note_off_c, 9, 42, 64
1, 5290, Note_off_c, 7, 59, 64
1, 5290, Note_off_c, 8, 64, 64
1, 5291, Note_off_c, 3, 64, 64
1, 5291, Note_off_c, 8, 59, 64
1, 5294, Note_off_c, 8, 55, 64
1, 5303, Lyric_t, "to "
1, 5303, Note_off_c, 5, 55, 64
1, 5303, Note_on_c, 5, 57, 89
1, 5303, Note_on_c, 1, 31, 85
1, 5303, Note_on_c, 7, 59, 72
1, 5305, Note_on_c, 9, 69, 40
1, 5306, Note_off_c, 9, 69, 64
1, 5319, Note_off_c, 7, 59, 64
1, 5324, Note_off_c, 5, 57, 64
1, 5324, Note_off_c, 1, 31, 64
1, 5326, Lyric_t, "be "
1, 5326, Note_on_c, 5, 60, 90
1, 5327, Note_on_c, 9, 40, 109
1, 5327, Note_on_c, 1, 36, 95
1, 5327, Note_on_c, 7, 55, 77
1, 5328, Note_off_c, 9, 40, 64
1, 5328, Note_on_c, 2, 64, 80
1, 5328, Note_on_c, 2, 72, 84
1, 5328, Note_on_c, 2, 69, 90
1, 5329, Note_on_c, 9, 69, 63
1, 5330, Note_off_c, 9, 69, 64
1, 5334, Note_off_c, 2, 71, 64
1, 5335, Note_off_c, 2, 67, 64
1, 5346, Note_off_c, 1, 36, 64
1, 5351, Lyric_t, "il"
1, 5351, Note_on_c, 5, 57, 95
1, 5351, Note_on_c, 1, 35, 80
1, 5353, Note_on_c, 9, 69, 48
1, 5354, Note_off_c, 5, 60, 64
1, 5354, Note_on_c, 9, 40, 109
1, 5354, Note_off_c, 9, 69, 64
1, 5355, Note_off_c, 9, 40, 64
1, 5362, Note_off_c, 2, 64, 64
1, 5362, Note_off_c, 2, 74, 64
1, 5362, Note_off_c, 2, 69, 64
1, 5362, Note_off_c, 2, 72, 64
1, 5362, Note_off_c, 7, 55, 64
1, 5374, Note_off_c, 1, 35, 64
1, 5374, Note_on_c, 2, 71, 93
1, 5374, Note_on_c, 2, 67, 97
1, 5374, Note_on_c, 2, 64, 90
1, 5375, Note_on_c, 6, 57, 91
1, 5375, Note_on_c, 7, 57, 90
1, 5376, Time_signature, 5, 2, 24, 8
1, 5376, Lyric_t, "le"
1, 5376, Note_on_c, 5, 62, 88
1, 5376, Note_on_c, 9, 42, 68
1, 5376, Note_on_c, 1, 33, 98
1, 5376, Control_c, 6, 1, 0
1, 5376, Pitch_bend_c, 6, 8192
1, 5376, Note_on_c, 9, 69, 20
1, 5377, Note_off_c, 5, 57, 64
1, 5377, Note_off_c, 9, 42, 64
1, 5377, Note_on_c, 9, 36, 98
1, 5377, Note_off_c, 9, 69, 64
1, 5378, Note_off_c, 9, 36, 64
1, 5378, Note_on_c, 6, 60, 82
1, 5380, Note_on_c, 6, 64, 82
1, 5386, Note_off_c, 7, 57, 64
1, 5390, Note_off_c, 2, 71, 64
1, 5398, Note_on_c, 2, 69, 84
1, 5398, Note_on_c, 2, 72, 78
1, 5399, Note_on_c, 7, 57, 80
1, 5399, Note_on_c, 9, 69, 36
1, 5400, Note_off_c, 2, 67, 64
1, 5400, Note_off_c, 9, 69, 64
1, 5416, Note_off_c, 2, 69, 64
1, 5418, Note_off_c, 7, 57, 64
1, 5421, Note_off_c, 2, 72, 64
1, 5422, Note_on_c, 2, 67, 84
1, 5423, Lyric_t, "gal. "
1, 5423, Lyric_t, "\015"
1, 5423, Note_off_c, 5, 62, 64
1, 5423, Note_on_c, 5, 57, 95
1, 5423, Note_on_c, 9, 69, 58
1, 5424, Note_on_c, 2, 71, 90
1, 5424, Note_on_c, 7, 59, 87
1, 5424, Note_off_c, 9, 69, 64
1, 5425, Note_on_c, 9, 44, 61
1, 5426, Note_off_c, 9, 44, 64
1, 5438, Note_off_c, 2, 67, 64
1, 5439, Note_off_c, 2, 64, 64
1, 5441, Note_off_c, 1, 33, 64
1, 5442, Note_off_c, 2, 71, 64
1, 5442, Note_off_c, 7, 59, 64
1, 5447, Note_on_c, 8, 64, 50
1, 5447, Note_on_c, 8, 60, 46
1, 5447, Note_on_c, 9, 69, 36
1, 5448, Note_on_c, 2, 64, 84
1, 5448, Note_on_c, 2, 69, 100
1, 5448, Note_on_c, 2, 72, 97
1, 5448, Note_off_c, 9, 69, 64
1, 5449, Note_on_c, 9, 42, 63
1, 5449, Note_on_c, 7, 60, 80
1, 5450, Note_off_c, 9, 42, 64
1, 5454, Note_off_c, 8, 60, 64
1, 5454, Note_off_c, 8, 64, 64
1, 5466, Note_off_c, 2, 64, 64
1, 5466, Note_off_c, 7, 60, 64
1, 5468, Note_off_c, 2, 72, 64
1, 5468, Note_off_c, 2, 69, 64
1, 5471, Note_on_c, 8, 64, 68
1, 5471, Note_on_c, 8, 57, 62
1, 5471, Note_on_c, 8, 60, 68
1, 5472, Lyric_t, "\012"
1, 5473, Note_on_c, 9, 40, 109
1, 5473, Note_on_c, 9, 69, 22
1, 5474, Note_off_c, 9, 40, 64
1, 5474, Note_off_c, 9, 69, 64
1, 5492, Note_off_c, 8, 60, 64
1, 5493, Note_off_c, 8, 64, 64
1, 5494, Note_off_c, 8, 57, 64
1, 5495, Note_on_c, 5, 55, 80
1, 5496, Note_on_c, 2, 69, 93
1, 5496, Note_on_c, 2, 72, 90
1, 5496, Note_on_c, 2, 64, 90
1, 5497, Note_on_c, 9, 44, 72
1, 5497, Note_on_c, 7, 57, 80
1, 5497, Note_on_c, 9, 69, 25
1, 5498, Note_off_c, 9, 44, 64
1, 5498, Note_off_c, 9, 69, 64
1, 5500, Note_off_c, 5, 57, 64
1, 5510, Note_off_c, 7, 57, 64
1, 5512, Note_off_c, 2, 72, 64
1, 5517, Note_off_c, 2, 69, 64
1, 5519, Note_off_c, 5, 55, 64
1, 5519, Note_on_c, 5, 52, 91
1, 5519, Note_on_c, 9, 69, 67
1, 5520, Note_on_c, 9, 42, 64
1, 5520, Note_on_c, 2, 71, 82
1, 5520, Note_on_c, 2, 67, 84
1, 5520, Note_off_c, 9, 69, 64
1, 5521, Note_off_c, 9, 42, 64
1, 5532, Note_off_c, 2, 67, 64
1, 5536, Note_off_c, 2, 71, 64
1, 5537, Note_off_c, 2, 64, 64
1, 5543, Note_on_c, 9, 69, 38
1, 5544, Note_on_c, 1, 33, 102
1, 5544, Note_on_c, 2, 72, 97
1, 5544, Note_on_c, 2, 69, 97
1, 5544, Note_on_c, 2, 64, 63
1, 5544, Note_off_c, 9, 69, 64
1, 5545, Note_on_c, 9, 36, 95
1, 5545, Note_on_c, 7, 64, 77
1, 5546, Note_off_c, 9, 36, 64
1, 5561, Note_off_c, 2, 64, 64
1, 5563, Note_off_c, 7, 64, 64
1, 5564, Note_off_c, 1, 33, 64
1, 5564, Note_off_c, 2, 69, 64
1, 5564, Note_off_c, 2, 72, 64
1, 5567, Note_on_c, 9, 42, 72
1, 5568, Note_off_c, 9, 42, 64
1, 5569, Note_off_c, 5, 52, 64
1, 5569, Note_on_c, 9, 69, 12
1, 5570, Lyric_t, "Make "
1, 5570, Note_on_c, 3, 72, 116
1, 5570, Note_on_c, 1, 33, 121
1, 5570, Note_off_c, 9, 69, 64
1, 5584, Note_off_c, 3, 72, 64
1, 5592, Note_on_c, 2, 69, 106
1, 5592, Note_on_c, 2, 72, 97
1, 5592, Note_on_c, 2, 64, 87
1, 5593, Lyric_t, "it "
1, 5593, Note_on_c, 3, 72, 89
1, 5593, Note_on_c, 7, 57, 87
1, 5593, Note_on_c, 9, 69, 24
1, 5594, Note_off_c, 9, 69, 64
1, 5604, Note_off_c, 3, 72, 64
1, 5605, Note_off_c, 6, 64, 64
1, 5610, Note_off_c, 1, 33, 64
1, 5612, Note_off_c, 7, 57, 64
1, 5614, Note_off_c, 6, 57, 64
1, 5615, Note_on_c, 9, 36, 95
1, 5615, Note_on_c, 9, 42, 70
1, 5616, Note_off_c, 9, 42, 64
1, 5616, Note_off_c, 9, 36, 64
1, 5617, Lyric_t, "a "
1, 5617, Note_on_c, 3, 72, 102
1, 5617, Note_off_c, 6, 60, 64
1, 5617, Note_on_c, 9, 69, 62
1, 5618, Note_off_c, 9, 69, 64
1, 5636, Note_off_c, 3, 72, 64
1, 5639, Note_on_c, 7, 55, 72
1, 5641, Note_on_c, 9, 69, 38
1, 5642, Lyric_t, "crime "
1, 5642, Note_on_c, 3, 71, 111
1, 5642, Note_off_c, 9, 69, 64
1, 5652, Note_off_c, 7, 55, 64
1, 5660, Note_off_c, 2, 64, 64
1, 5660, Note_off_c, 2, 72, 64
1, 5660, Note_off_c, 2, 69, 64
1, 5663, Note_on_c, 9, 46, 88
1, 5663, Note_on_c, 1, 28, 98
1, 5663, Note_on_c, 6, 59, 88
1, 5663, Note_on_c, 9, 69, 19
1, 5664, Note_off_c, 9, 46, 64
1, 5664, Note_on_c, 2, 71, 116
1, 5664, Note_on_c, 2, 64, 93
1, 5664, Note_on_c, 2, 67, 100
1, 5664, Note_on_c, 7, 59, 87
1, 5664, Note_off_c, 9, 69, 64
1, 5666, Note_on_c, 6, 64, 91
1, 5668, Note_on_c, 6, 67, 91
1, 5674, Note_off_c, 7, 59, 64
1, 5686, Note_off_c, 3, 71, 64
1, 5687, Note_on_c, 9, 69, 30
1, 5688, Note_off_c, 9, 69, 64
1, 5689, Lyric_t, "to "
1, 5689, Note_on_c, 3, 72, 111
1, 5689, Note_on_c, 7, 59, 83
1, 5706, Note_off_c, 7, 59, 64
1, 5707, Note_off_c, 6, 59, 64
1, 5709, Note_off_c, 3, 72, 64
1, 5711, Note_on_c, 9, 42, 58
1, 5711, Note_on_c, 9, 69, 62
1, 5712, Note_off_c, 9, 42, 64
1, 5712, Note_off_c, 9, 69, 64
1, 5713, Note_on_c, 7, 64, 77
1, 5714, Lyric_t, "be "
1, 5714, Note_on_c, 3, 71, 98
1, 5718, Note_off_c, 1, 28, 64
1, 5731, Note_off_c, 6, 64, 64
1, 5734, Note_off_c, 3, 71, 64
1, 5734, Note_on_c, 9, 69, 33
1, 5735, Note_off_c, 9, 69, 64
1, 5739, Lyric_t, "lone"
1, 5739, Note_on_c, 3, 69, 107
1, 5750, Note_off_c, 2, 71, 64
1, 5752, Note_off_c, 2, 67, 64
1, 5752, Note_off_c, 2, 64, 64
1, 5753, Note_off_c, 7, 64, 64
1, 5759, Note_off_c, 6, 67, 64
1, 5759, Note_on_c, 6, 60, 85
1, 5759, Note_on_c, 9, 69, 34
1, 5760, Note_on_c, 9, 40, 114
1, 5760, Note_on_c, 9, 42, 70
1, 5760, Note_on_c, 2, 64, 68
1, 5760, Note_on_c, 6, 64, 88
1, 5760, Note_off_c, 9, 69, 64
1, 5761, Note_off_c, 9, 42, 64
1, 5761, Note_off_c, 9, 40, 64
1, 5761, Note_on_c, 6, 57, 88
1, 5761, Note_on_c, 7, 57, 83
1, 5762, Note_on_c, 1, 33, 105
1, 5772, Note_off_c, 7, 57, 64
1, 5784, Note_off_c, 3, 69, 64
1, 5784, Note_on_c, 9, 69, 33
1, 5785, Note_on_c, 7, 57, 80
1, 5785, Note_off_c, 9, 69, 64
1, 5786, Lyric_t, "ly "
1, 5786, Note_on_c, 3, 71, 116
1, 5799, Note_off_c, 7, 57, 64
1, 5803, Note_off_c, 3, 71, 64
1, 5806, Note_on_c, 2, 72, 100
1, 5806, Note_on_c, 2, 69, 106
1, 5808, Note_on_c, 9, 40, 104
1, 5808, Note_on_c, 9, 42, 78
1, 5808, Note_on_c, 7, 60, 77
1, 5808, Note_on_c, 9, 69, 60
1, 5809, Note_off_c, 9, 42, 64
1, 5809, Note_off_c, 9, 40, 64
1, 5809, Note_off_c, 9, 69, 64
1, 5811, Lyric_t, "or "
1, 5811, Note_on_c, 3, 69, 116
1, 5816, Note_off_c, 1, 33, 64
1, 5831, Note_on_c, 9, 40, 88
1, 5832, Note_off_c, 9, 40, 64
1, 5832, Note_on_c, 9, 69, 45
1, 5833, Note_off_c, 9, 69, 64
1, 5834, Note_off_c, 3, 69, 64
1, 5842, Note_off_c, 2, 69, 64
1, 5842, Note_off_c, 2, 72, 64
1, 5842, Note_off_c, 2, 64, 64
1, 5846, Note_off_c, 7, 60, 64
1, 5854, Note_on_c, 1, 28, 102
1, 5856, Time_signature, 4, 2, 24, 8
1, 5856, Note_on_c, 2, 71, 100
1, 5856, Note_on_c, 2, 64, 93
1, 5856, Note_on_c, 2, 67, 97
1, 5856, Note_on_c, 7, 59, 80
1, 5857, Note_on_c, 9, 36, 95
1, 5857, Note_on_c, 9, 51, 90
1, 5857, Note_on_c, 9, 69, 42
1, 5858, Note_off_c, 9, 51, 64
1, 5858, Note_off_c, 9, 36, 64
1, 5858, Note_off_c, 9, 69, 64
1, 5859, Lyric_t, "sad. "
1, 5859, Lyric_t, "\015"
1, 5859, Note_on_c, 3, 64, 111
1, 5867, Note_off_c, 7, 59, 64
1, 5878, Note_off_c, 2, 67, 64
1, 5878, Note_off_c, 2, 64, 64
1, 5878, Note_off_c, 2, 71, 64
1, 5879, Note_on_c, 7, 59, 77
1, 5880, Note_on_c, 2, 71, 82
1, 5880, Note_on_c, 2, 67, 82
1, 5880, Note_on_c, 2, 64, 82
1, 5881, Note_on_c, 9, 69, 30
1, 5882, Note_off_c, 9, 69, 64
1, 5892, Note_off_c, 7, 59, 64
1, 5904, Note_on_c, 2, 69, 87
1, 5904, Note_on_c, 9, 69, 60
1, 5905, Note_on_c, 9, 44, 85
1, 5905, Note_on_c, 7, 62, 77
1, 5905, Note_off_c, 9, 69, 64
1, 5906, Note_off_c, 9, 44, 64
1, 5918, Note_off_c, 2, 64, 64
1, 5918, Note_off_c, 2, 71, 64
1, 5918, Note_off_c, 2, 67, 64
1, 5922, Note_off_c, 7, 62, 64
1, 5924, Note_off_c, 2, 69, 64
1, 5927, Note_on_c, 8, 67, 48
1, 5927, Note_on_c, 8, 64, 54
1, 5928, Note_on_c, 2, 64, 84
1, 5928, Note_on_c, 2, 71, 100
1, 5928, Note_on_c, 2, 67, 97
1, 5928, Note_on_c, 8, 59, 56
1, 5928, Note_on_c, 9, 69, 30
1, 5929, Note_on_c, 9, 42, 64
1, 5929, Note_on_c, 7, 64, 77
1, 5929, Note_off_c, 9, 69, 64
1, 5930, Note_off_c, 9, 42, 64
1, 5934, Note_off_c, 8, 64, 64
1, 5936, Note_off_c, 8, 67, 64
1, 5937, Note_off_c, 8, 59, 64
1, 5938, Note_off_c, 2, 64, 64
1, 5941, Note_off_c, 2, 67, 64
1, 5944, Note_off_c, 2, 71, 64
1, 5947, Note_off_c, 6, 60, 64
1, 5948, Note_off_c, 7, 64, 64
1, 5949, Note_off_c, 6, 64, 64
1, 5951, Note_on_c, 9, 40, 109
1, 5952, Note_off_c, 9, 40, 64
1, 5953, Note_off_c, 6, 57, 64
1, 5953, Note_on_c, 8, 67, 62
1, 5953, Note_on_c, 8, 59, 60
1, 5953, Note_on_c, 8, 64, 48
1, 5953, Note_on_c, 9, 69, 40
1, 5954, Note_off_c, 9, 69, 64
1, 5966, Note_off_c, 8, 67, 64
1, 5969, Note_off_c, 8, 64, 64
1, 5969, Note_off_c, 8, 59, 64
1, 5974, Note_off_c, 1, 28, 64
1, 5975, Note_on_c, 9, 69, 31
1, 5976, Note_on_c, 2, 67, 100
1, 5976, Note_on_c, 2, 71, 100
1, 5976, Note_on_c, 2, 64, 84
1, 5976, Note_off_c, 9, 69, 64
1, 5977, Note_on_c, 9, 44, 58
1, 5977, Note_on_c, 7, 59, 77
1, 5978, Note_off_c, 9, 44, 64
1, 5992, Note_off_c, 2, 67, 64
1, 5994, Note_off_c, 2, 71, 64
1, 6000, Note_on_c, 2, 69, 87
1, 6000, Note_off_c, 7, 59, 64
1, 6000, Note_on_c, 9, 69, 59
1, 6001, Note_on_c, 9, 42, 70
1, 6001, Note_off_c, 9, 69, 64
1, 6002, Note_off_c, 9, 42, 64
1, 6018, Note_off_c, 2, 69, 64
1, 6018, Note_off_c, 2, 64, 64
1, 6023, Note_on_c, 1, 28, 85
1, 6023, Note_on_c, 7, 67, 77
1, 6024, Note_on_c, 9, 36, 95
1, 6024, Note_on_c, 2, 64, 84
1, 6024, Note_on_c, 2, 71, 100
1, 6024, Note_on_c, 2, 67, 100
1, 6025, Note_off_c, 9, 36, 64
1, 6025, Note_on_c, 9, 69, 40
1, 6026, Note_off_c, 9, 69, 64
1, 6038, Note_off_c, 1, 28, 64
1, 6038, Note_off_c, 2, 64, 64
1, 6040, Note_off_c, 2, 67, 64
1, 6041, Note_off_c, 2, 71, 64
1, 6047, Note_on_c, 1, 28, 102
1, 6047, Note_off_c, 7, 67, 64
1, 6048, Note_on_c, 9, 69, 30
1, 6049, Note_on_c, 9, 42, 78
1, 6049, Note_off_c, 9, 69, 64
1, 6050, Note_off_c, 9, 42, 64
1, 6059, Note_off_c, 3, 64, 64
1, 6071, Note_on_c, 9, 69, 30
1, 6072, Note_on_c, 2, 71, 100
1, 6072, Note_on_c, 2, 64, 87
1, 6072, Note_on_c, 2, 67, 93
1, 6072, Note_on_c, 7, 59, 80
1, 6072, Note_off_c, 9, 69, 64
1, 6090, Note_off_c, 2, 67, 64
1, 6090, Note_off_c, 2, 71, 64
1, 6094, Note_off_c, 7, 59, 64
1, 6095, Note_on_c, 9, 36, 104
1, 6095, Note_on_c, 9, 69, 63
1, 6096, Note_off_c, 9, 36, 64
1, 6096, Note_on_c, 9, 42, 72
1, 6096, Note_on_c, 2, 69, 82
1, 6096, Note_off_c, 9, 69, 64
1, 6097, Note_off_c, 9, 42, 64
1, 6110, Note_off_c, 2, 69, 64
1, 6119, Note_on_c, 8, 59, 68
1, 6119, Note_on_c, 8, 67, 58
1, 6119, Note_on_c, 8, 64, 48
1, 6120, Note_on_c, 9, 69, 38
1, 6121, Lyric_t, "It "
1, 6121, Note_on_c, 5, 55, 98
1, 6121, Note_on_c, 7, 59, 80
1, 6121, Note_off_c, 9, 69, 64
1, 6128, Note_off_c, 8, 64, 64
1, 6130, Note_off_c, 8, 67, 64
1, 6131, Note_off_c, 8, 59, 64
1, 6134, Note_off_c, 7, 59, 64
1, 6139, Note_off_c, 1, 28, 64
1, 6142, Note_on_c, 2, 71, 106
1, 6143, Note_on_c, 9, 42, 72
1, 6143, Note_on_c, 8, 59, 62
1, 6143, Note_on_c, 8, 64, 68
1, 6144, Note_off_c, 5, 55, 64
1, 6144, Note_off_c, 9, 42, 64
1, 6144, Note_on_c, 9, 40, 104
1, 6144, Note_on_c, 2, 67, 106
1, 6144, Note_on_c, 7, 64, 87
1, 6144, Note_on_c, 8, 67, 62
1, 6144, Note_on_c, 9, 69, 22
1, 6145, Lyric_t, "ought "
1, 6145, Note_on_c, 5, 55, 95
1, 6145, Note_off_c, 9, 40, 64
1, 6145, Note_off_c, 9, 69, 64
1, 6152, Note_off_c, 2, 64, 64
1, 6154, Note_off_c, 7, 64, 64
1, 6157, Note_off_c, 8, 64, 64
1, 6158, Note_off_c, 8, 67, 64
1, 6162, Note_off_c, 8, 59, 64
1, 6165, Note_off_c, 5, 55, 64
1, 6167, Note_on_c, 9, 44, 70
1, 6168, Note_off_c, 9, 44, 64
1, 6168, Note_on_c, 7, 64, 65
1, 6169, Note_on_c, 9, 69, 34
1, 6170, Lyric_t, "to "
1, 6170, Note_on_c, 5, 57, 95
1, 6170, Note_off_c, 9, 69, 64
1, 6187, Note_off_c, 7, 64, 64
1, 6190, Note_on_c, 2, 64, 69
1, 6190, Note_on_c, 2, 69, 70
1, 6192, Note_off_c, 5, 57, 64
1, 6192, Note_on_c, 7, 59, 83
1, 6193, Lyric_t, "be "
1, 6193, Note_on_c, 5, 60, 95
1, 6193, Note_on_c, 9, 46, 70
1, 6193, Note_on_c, 9, 69, 53
1, 6194, Note_off_c, 9, 46, 64
1, 6194, Note_off_c, 9, 69, 64
1, 6216, Note_on_c, 1, 28, 92
1, 6217, Note_on_c, 9, 69, 36
1, 6218, Lyric_t, "il"
1, 6218, Note_off_c, 5, 60, 64
1, 6218, Note_on_c, 5, 57, 91
1, 6218, Note_off_c, 9, 69, 64
1, 6223, Note_off_c, 7, 59, 64
1, 6226, Note_off_c, 2, 69, 64
1, 6226, Note_off_c, 2, 71, 64
1, 6226, Note_off_c, 2, 67, 64
1, 6226, Note_off_c, 2, 64, 64
1, 6238, Note_on_c, 2, 69, 111
1, 6238, Note_on_c, 2, 72, 100
1, 6239, Note_off_c, 5, 57, 64
1, 6239, Note_on_c, 9, 42, 78
1, 6239, Note_on_c, 1, 33, 111
1, 6240, Time_signature, 5, 2, 24, 8
1, 6240, Note_off_c, 9, 42, 64
1, 6240, Note_on_c, 2, 64, 93
1, 6240, Note_on_c, 6, 60, 80
1, 6241, Note_on_c, 9, 36, 104
1, 6241, Note_off_c, 1, 28, 64
1, 6241, Note_on_c, 6, 57, 88
1, 6241, Note_on_c, 7, 57, 80
1, 6241, Note_on_c, 9, 69, 31
1, 6242, Lyric_t, "le"
1, 6242, Note_on_c, 5, 62, 98
1, 6242, Note_off_c, 9, 36, 64
1, 6242, Note_off_c, 9, 69, 64
1, 6243, Note_on_c, 6, 64, 85
1, 6253, Note_off_c, 7, 57, 64
1, 6261, Note_off_c, 2, 69, 64
1, 6262, Note_off_c, 2, 72, 64
1, 6262, Note_on_c, 2, 69, 87
1, 6264, Note_on_c, 2, 72, 76
1, 6265, Note_on_c, 7, 57, 87
1, 6265, Note_on_c, 9, 69, 23
1, 6266, Note_off_c, 9, 69, 64
1, 6276, Note_off_c, 7, 57, 64
1, 6287, Note_on_c, 9, 44, 64
1, 6287, Note_on_c, 7, 59, 87
1, 6287, Note_on_c, 9, 69, 51
1, 6288, Note_off_c, 9, 44, 64
1, 6288, Note_on_c, 2, 71, 78
1, 6288, Note_on_c, 2, 67, 73
1, 6288, Note_off_c, 9, 69, 64
1, 6290, Lyric_t, "gal. "
1, 6290, Lyric_t, "\015"
1, 6290, Note_off_c, 5, 62, 64
1, 6290, Note_on_c, 5, 57, 98
1, 6291, Note_off_c, 2, 72, 64
1, 6294, Note_off_c, 2, 69, 64
1, 6300, Note_off_c, 2, 67, 64
1, 6300, Note_off_c, 2, 64, 64
1, 6302, Note_off_c, 2, 71, 64
1, 6302, Note_off_c, 7, 59, 64
1, 6311, Note_on_c, 9, 42, 64
1, 6312, Note_off_c, 9, 42, 64
1, 6312, Note_on_c, 2, 64, 82
1, 6312, Note_on_c, 2, 69, 93
1, 6312, Note_on_c, 2, 72, 90
1, 6312, Note_on_c, 9, 69, 34
1, 6313, Note_on_c, 7, 60, 68
1, 6313, Note_on_c, 8, 64, 65
1, 6313, Note_on_c, 8, 57, 65
1, 6313, Note_on_c, 8, 60, 47
1, 6313, Note_off_c, 9, 69, 64
1, 6317, Note_off_c, 8, 60, 64
1, 6319, Note_off_c, 1, 33, 64
1, 6322, Note_off_c, 8, 57, 64
1, 6322, Note_off_c, 8, 64, 64
1, 6335, Note_on_c, 9, 40, 109
1, 6335, Note_off_c, 7, 60, 64
1, 6336, Note_off_c, 9, 40, 64
1, 6337, Lyric_t, "\012"
1, 6337, Note_on_c, 8, 57, 50
1, 6337, Note_on_c, 8, 64, 71
1, 6337, Note_on_c, 8, 60, 68
1, 6346, Note_off_c, 2, 72, 64
1, 6346, Note_off_c, 2, 69, 64
1, 6346, Note_off_c, 2, 64, 64
1, 6350, Note_off_c, 8, 64, 64
1, 6352, Note_off_c, 8, 57, 64
1, 6354, Note_off_c, 8, 60, 64
1, 6358, Note_on_c, 2, 69, 100
1, 6358, Note_on_c, 2, 72, 97
1, 6359, Note_on_c, 9, 44, 64
1, 6359, Note_on_c, 7, 57, 83
1, 6359, Note_on_c, 9, 69, 22
1, 6360, Note_off_c, 5, 57, 64
1, 6360, Note_on_c, 5, 55, 88
1, 6360, Note_off_c, 9, 44, 64
1, 6360, Note_on_c, 2, 64, 87
1, 6360, Note_off_c, 9, 69, 64
1, 6380, Note_off_c, 7, 57, 64
1, 6382, Note_on_c, 2, 71, 90
1, 6382, Note_on_c, 2, 67, 76
1, 6383, Note_on_c, 5, 52, 85
1, 6383, Note_on_c, 9, 42, 63
1, 6383, Note_on_c, 9, 69, 51
1, 6384, Note_off_c, 5, 55, 64
1, 6384, Note_off_c, 9, 42, 64
1, 6384, Note_off_c, 9, 69, 64
1, 6390, Note_off_c, 2, 72, 64
1, 6394, Note_off_c, 2, 69, 64
1, 6407, Note_on_c, 1, 33, 95
1, 6407, Note_on_c, 7, 64, 77
1, 6407, Note_on_c, 9, 69, 48
1, 6408, Note_on_c, 2, 69, 111
1, 6408, Note_on_c, 2, 72, 97
1, 6408, Note_off_c, 9, 69, 64
1, 6409, Note_on_c, 9, 36, 95
1, 6410, Note_off_c, 9, 36, 64
1, 6423, Note_off_c, 2, 71, 64
1, 6423, Note_off_c, 2, 67, 64
1, 6424, Note_off_c, 2, 72, 64
1, 6426, Note_off_c, 7, 64, 64
1, 6428, Note_off_c, 1, 33, 64
1, 6428, Note_off_c, 2, 64, 64
1, 6428, Note_off_c, 2, 69, 64
1, 6430, Lyric_t, "You "
1, 6430, Note_on_c, 3, 72, 111
1, 6431, Note_on_c, 9, 42, 70
1, 6432, Note_off_c, 9, 42, 64
1, 6432, Note_on_c, 1, 33, 116
1, 6434, Note_on_c, 9, 69, 33
1, 6435, Note_off_c, 9, 69, 64
1, 6443, Note_off_c, 5, 52, 64
1, 6446, Note_off_c, 3, 72, 64
1, 6454, Lyric_t, "got "
1, 6454, Note_on_c, 3, 72, 95
1, 6454, Note_on_c, 2, 72, 106
1, 6454, Note_on_c, 2, 69, 106
1, 6456, Note_on_c, 2, 64, 90
1, 6457, Note_on_c, 7, 57, 83
1, 6457, Note_on_c, 9, 69, 26
1, 6458, Note_off_c, 9, 69, 64
1, 6466, Note_off_c, 3, 72, 64
1, 6467, Note_off_c, 1, 33, 64
1, 6474, Note_off_c, 7, 57, 64
1, 6479, Lyric_t, "a "
1, 6479, Note_on_c, 3, 72, 98
1, 6479, Note_on_c, 9, 36, 98
1, 6479, Note_on_c, 9, 42, 78
1, 6480, Note_off_c, 9, 42, 64
1, 6480, Note_off_c, 9, 36, 64
1, 6481, Note_off_c, 6, 64, 64
1, 6481, Note_on_c, 9, 69, 61
1, 6482, Note_off_c, 6, 60, 64
1, 6482, Note_off_c, 9, 69, 64
1, 6484, Note_off_c, 6, 57, 64
1, 6498, Note_off_c, 3, 72, 64
1, 6503, Note_on_c, 7, 55, 77
1, 6504, Note_on_c, 9, 69, 40
1, 6505, Lyric_t, "rea"
1, 6505, Note_on_c, 3, 71, 105
1, 6505, Note_off_c, 9, 69, 64
1, 6518, Note_off_c, 7, 55, 64
1, 6523, Note_off_c, 2, 69, 64
1, 6523, Note_off_c, 2, 72, 64
1, 6524, Note_off_c, 2, 64, 64
1, 6526, Note_on_c, 2, 71, 106
1, 6526, Note_on_c, 2, 67, 111
1, 6526, Note_on_c, 2, 64, 87
1, 6527, Note_on_c, 9, 46, 80
1, 6528, Note_off_c, 9, 46, 64
1, 6528, Note_on_c, 1, 28, 105
1, 6528, Note_on_c, 6, 59, 104
1, 6529, Note_on_c, 6, 67, 95
1, 6529, Note_on_c, 7, 59, 87
1, 6530, Note_on_c, 6, 64, 91
1, 6530, Note_on_c, 9, 69, 33
1, 6531, Note_off_c, 9, 69, 64
1, 6537, Note_off_c, 7, 59, 64
1, 6550, Note_off_c, 3, 71, 64
1, 6552, Lyric_t, "son "
1, 6552, Note_on_c, 3, 72, 105
1, 6553, Note_on_c, 7, 59, 87
1, 6553, Note_on_c, 9, 69, 30
1, 6554, Note_off_c, 9, 69, 64
1, 6569, Note_off_c, 7, 59, 64
1, 6570, Note_off_c, 3, 72, 64
1, 6575, Note_on_c, 9, 42, 61
1, 6576, Note_off_c, 9, 42, 64
1, 6577, Lyric_t, "for "
1, 6577, Note_on_c, 3, 71, 95
1, 6577, Note_on_c, 7, 64, 74
1, 6578, Note_on_c, 9, 69, 52
1, 6579, Note_off_c, 9, 69, 64
1, 6587, Note_off_c, 1, 28, 64
1, 6597, Note_off_c, 3, 71, 64
1, 6601, Note_on_c, 9, 69, 36
1, 6602, Note_off_c, 9, 69, 64
1, 6603, Lyric_t, "liv"
1, 6603, Note_on_c, 3, 69, 111
1, 6603, Note_off_c, 6, 59, 64
1, 6609, Note_off_c, 7, 64, 64
1, 6615, Note_off_c, 6, 64, 64
1, 6621, Note_off_c, 2, 64, 64
1, 6621, Note_off_c, 2, 67, 64
1, 6622, Note_off_c, 2, 71, 64
1, 6622, Note_on_c, 2, 64, 90
1, 6622, Note_off_c, 6, 67, 64
1, 6623, Note_on_c, 9, 40, 124
1, 6623, Note_on_c, 9, 42, 72
1, 6624, Note_off_c, 9, 42, 64
1, 6624, Note_off_c, 9, 40, 64
1, 6624, Note_on_c, 1, 33, 116
1, 6624, Note_on_c, 6, 57, 88
1, 6625, Note_on_c, 6, 60, 82
1, 6625, Note_on_c, 7, 57, 87
1, 6625, Note_on_c, 9, 69, 40
1, 6626, Note_off_c, 9, 69, 64
1, 6627, Note_on_c, 6, 64, 74
1, 6635, Note_off_c, 7, 57, 64
1, 6646, Note_off_c, 3, 69, 64
1, 6648, Lyric_t, "ing, "
1, 6648, Lyric_t, "\015"
1, 6648, Note_on_c, 3, 67, 92
1, 6649, Note_on_c, 7, 57, 68
1, 6649, Note_on_c, 9, 69, 23
1, 6650, Note_off_c, 9, 69, 64
1, 6663, Note_off_c, 7, 57, 64
1, 6668, Note_off_c, 3, 67, 64
1, 6670, Note_on_c, 2, 72, 100
1, 6670, Note_on_c, 2, 69, 111
1, 6671, Note_on_c, 9, 42, 70
1, 6672, Note_off_c, 9, 42, 64
1, 6672, Note_on_c, 9, 69, 58
1, 6673, Lyric_t, "you "
1, 6673, Note_on_c, 3, 64, 98
1, 6673, Note_on_c, 9, 40, 95
1, 6673, Note_on_c, 7, 60, 83
1, 6673, Note_off_c, 9, 69, 64
1, 6674, Note_off_c, 9, 40, 64
1, 6681, Note_off_c, 1, 33, 64
1, 6695, Note_off_c, 6, 57, 64
1, 6696, Note_off_c, 6, 60, 64
1, 6697, Note_on_c, 9, 40, 71
1, 6698, Note_off_c, 3, 64, 64
1, 6698, Note_off_c, 9, 40, 64
1, 6698, Note_on_c, 9, 69, 48
1, 6699, Note_off_c, 9, 69, 64
1, 6700, Note_off_c, 6, 64, 64
1, 6707, Note_off_c, 2, 69, 64
1, 6707, Note_off_c, 2, 72, 64
1, 6707, Note_off_c, 2, 64, 64
1, 6711, Note_off_c, 7, 60, 64
1, 6719, Note_on_c, 1, 34, 116
1, 6720, Time_signature, 4, 2, 24, 8
1, 6720, Note_on_c, 2, 65, 97
1, 6720, Note_on_c, 2, 69, 100
1, 6720, Note_on_c, 2, 74, 97
1, 6721, Note_on_c, 9, 36, 109
1, 6721, Note_on_c, 9, 51, 78
1, 6721, Note_on_c, 7, 58, 72
1, 6722, Note_off_c, 9, 51, 64
1, 6722, Note_off_c, 9, 36, 64
1, 6722, Note_on_c, 9, 69, 23
1, 6723, Lyric_t, "bat"
1, 6723, Note_on_c, 3, 69, 111
1, 6723, Note_off_c, 9, 69, 64
1, 6730, Note_off_c, 7, 58, 64
1, 6741, Note_off_c, 2, 69, 64
1, 6742, Note_off_c, 2, 74, 64
1, 6742, Note_on_c, 2, 69, 76
1, 6744, Note_on_c, 2, 74, 60
1, 6744, Note_on_c, 7, 58, 72
1, 6745, Note_on_c, 9, 69, 24
1, 6746, Note_off_c, 9, 69, 64
1, 6761, Note_off_c, 7, 58, 64
1, 6768, Note_on_c, 9, 44, 61
1, 6768, Note_on_c, 2, 67, 75
1, 6768, Note_on_c, 7, 60, 70
1, 6769, Note_off_c, 9, 44, 64
1, 6769, Note_on_c, 9, 69, 62
1, 6770, Note_off_c, 9, 69, 64
1, 6778, Note_off_c, 2, 74, 64
1, 6778, Note_off_c, 2, 65, 64
1, 6778, Note_off_c, 2, 69, 64
1, 6781, Note_off_c, 3, 69, 64
1, 6785, Note_off_c, 2, 67, 64
1, 6787, Note_off_c, 7, 60, 64
1, 6790, Note_on_c, 2, 65, 97
1, 6791, Note_on_c, 8, 57, 71
1, 6791, Note_on_c, 8, 62, 65
1, 6791, Note_on_c, 8, 65, 60
1, 6792, Note_on_c, 9, 42, 70
1, 6792, Note_on_c, 2, 69, 90
1, 6792, Note_on_c, 2, 74, 87
1, 6793, Note_off_c, 9, 42, 64
1, 6793, Note_on_c, 7, 62, 74
1, 6793, Note_on_c, 9, 69, 38
1, 6794, Note_off_c, 9, 69, 64
1, 6796, Lyric_t, "tle "
1, 6796, Note_on_c, 3, 70, 102
1, 6798, Note_off_c, 8, 65, 64
1, 6798, Note_off_c, 8, 62, 64
1, 6798, Note_off_c, 8, 57, 64
1, 6807, Note_off_c, 7, 62, 64
1, 6808, Note_off_c, 2, 74, 64
1, 6809, Note_off_c, 2, 69, 64
1, 6810, Note_off_c, 2, 65, 64
1, 6815, Note_on_c, 9, 40, 109
1, 6816, Note_off_c, 9, 40, 64
1, 6816, Note_on_c, 8, 57, 78
1, 6817, Note_on_c, 8, 65, 65
1, 6817, Note_on_c, 8, 62, 68
1, 6825, Note_off_c, 1, 34, 64
1, 6831, Note_off_c, 8, 62, 64
1, 6831, Note_off_c, 8, 65, 64
1, 6833, Note_off_c, 8, 57, 64
1, 6840, Note_on_c, 9, 44, 70
1, 6840, Note_on_c, 2, 69, 93
1, 6840, Note_on_c, 2, 65, 93
1, 6840, Note_on_c, 2, 74, 93
1, 6841, Note_off_c, 9, 44, 64
1, 6841, Note_on_c, 7, 58, 74
1, 6841, Note_on_c, 9, 69, 40
1, 6842, Note_off_c, 9, 69, 64
1, 6852, Note_off_c, 7, 58, 64
1, 6864, Note_on_c, 2, 67, 69
1, 6865, Note_on_c, 9, 42, 68
1, 6865, Note_on_c, 9, 69, 63
1, 6866, Note_off_c, 9, 42, 64
1, 6866, Note_off_c, 9, 69, 64
1, 6868, Lyric_t, "on "
1, 6868, Note_off_c, 3, 70, 64
1, 6868, Note_on_c, 3, 69, 116
1, 6878, Note_off_c, 2, 74, 64
1, 6878, Note_off_c, 2, 69, 64
1, 6878, Note_off_c, 2, 65, 64
1, 6882, Note_off_c, 2, 67, 64
1, 6887, Note_on_c, 9, 36, 104
1, 6887, Note_on_c, 7, 65, 87
1, 6888, Note_off_c, 9, 36, 64
1, 6888, Note_on_c, 1, 34, 95
1, 6888, Note_on_c, 2, 65, 84
1, 6888, Note_on_c, 2, 69, 90
1, 6888, Note_on_c, 2, 74, 90
1, 6889, Note_on_c, 9, 69, 48
1, 6890, Note_off_c, 9, 69, 64
1, 6904, Note_off_c, 2, 74, 64
1, 6904, Note_off_c, 2, 69, 64
1, 6907, Note_off_c, 7, 65, 64
1, 6909, Note_off_c, 2, 65, 64
1, 6912, Note_on_c, 9, 42, 70
1, 6912, Note_on_c, 9, 69, 20
1, 6913, Note_off_c, 9, 42, 64
1, 6913, Note_off_c, 9, 69, 64
1, 6914, Note_off_c, 1, 34, 64
1, 6934, Note_off_c, 3, 69, 64
1, 6935, Note_on_c, 3, 67, 98
1, 6935, Note_on_c, 7, 58, 80
1, 6935, Note_on_c, 9, 69, 36
1, 6936, Note_on_c, 1, 34, 87
1, 6936, Note_on_c, 2, 69, 100
1, 6936, Note_on_c, 2, 65, 100
1, 6936, Note_on_c, 2, 74, 93
1, 6936, Note_off_c, 9, 69, 64
1, 6950, Note_off_c, 1, 34, 64
1, 6951, Note_off_c, 7, 58, 64
1, 6954, Note_off_c, 2, 74, 64
1, 6956, Note_off_c, 2, 69, 64
1, 6958, Note_off_c, 3, 67, 64
1, 6959, Note_on_c, 3, 65, 103
1, 6959, Note_on_c, 9, 36, 95
1, 6959, Note_on_c, 9, 42, 70
1, 6959, Note_on_c, 1, 34, 102
1, 6959, Note_on_c, 9, 69, 58
1, 6960, Note_off_c, 9, 42, 64
1, 6960, Note_off_c, 9, 36, 64
1, 6960, Note_on_c, 2, 67, 78
1, 6960, Note_off_c, 9, 69, 64
1, 6983, Note_on_c, 8, 57, 65
1, 6983, Note_on_c, 8, 62, 58
1, 6983, Note_on_c, 8, 65, 54
1, 6983, Note_on_c, 9, 69, 36
1, 6984, Note_on_c, 7, 58, 80
1, 6984, Note_off_c, 9, 69, 64
1, 6986, Note_off_c, 2, 67, 64
1, 6988, Note_off_c, 8, 57, 64
1, 6989, Note_off_c, 8, 65, 64
1, 6989, Note_off_c, 8, 62, 64
1, 6994, Note_off_c, 1, 34, 64
1, 6999, Note_off_c, 7, 58, 64
1, 7002, Note_off_c, 2, 65, 64
1, 7007, Note_on_c, 9, 40, 114
1, 7007, Note_on_c, 9, 42, 72
1, 7008, Note_off_c, 9, 42, 64
1, 7008, Note_off_c, 9, 40, 64
1, 7008, Note_on_c, 2, 69, 106
1, 7008, Note_on_c, 2, 74, 97
1, 7008, Note_on_c, 7, 62, 83
1, 7008, Note_on_c, 8, 57, 94
1, 7008, Note_on_c, 8, 65, 78
1, 7008, Note_on_c, 8, 62, 78
1, 7009, Note_on_c, 9, 69, 22
1, 7010, Note_off_c, 9, 69, 64
1, 7019, Note_off_c, 7, 62, 64
1, 7023, Note_off_c, 8, 65, 64
1, 7024, Note_off_c, 8, 62, 64
1, 7025, Note_off_c, 3, 65, 64
1, 7026, Note_off_c, 8, 57, 64
1, 7031, Note_on_c, 9, 44, 72
1, 7031, Note_on_c, 1, 34, 98
1, 7031, Note_on_c, 7, 62, 80
1, 7032, Note_off_c, 9, 44, 64
1, 7033, Note_on_c, 9, 69, 25
1, 7034, Note_off_c, 9, 69, 64
1, 7050, Note_off_c, 7, 62, 64
1, 7054, Note_off_c, 1, 34, 64
1, 7054, Note_off_c, 2, 74, 64
1, 7054, Note_off_c, 2, 69, 64
1, 7054, Note_on_c, 2, 65, 80
1, 7054, Note_on_c, 2, 67, 75
1, 7055, Note_on_c, 9, 46, 72
1, 7055, Note_on_c, 1, 29, 78
1, 7055, Note_on_c, 9, 69, 67
1, 7056, Note_off_c, 9, 46, 64
1, 7056, Note_off_c, 9, 69, 64
1, 7057, Lyric_t, "with "
1, 7057, Note_on_c, 3, 65, 111
1, 7057, Note_on_c, 7, 58, 74
1, 7062, Note_off_c, 2, 65, 64
1, 7073, Note_off_c, 1, 29, 64
1, 7076, Note_off_c, 3, 65, 64
1, 7079, Note_on_c, 1, 31, 85
1, 7079, Note_on_c, 9, 69, 38
1, 7080, Note_off_c, 9, 69, 64
1, 7081, Lyric_t, "the "
1, 7081, Note_on_c, 3, 67, 89
1, 7084, Note_off_c, 7, 58, 64
1, 7098, Note_off_c, 3, 67, 64
1, 7098, Note_off_c, 2, 67, 64
1, 7102, Note_on_c, 9, 42, 85
1, 7103, Lyric_t, "love "
1, 7103, Note_on_c, 3, 69, 116
1, 7103, Note_off_c, 9, 42, 64
1, 7103, Note_on_c, 7, 58, 80
1, 7104, Note_on_c, 2, 69, 106
1, 7104, Note_on_c, 2, 65, 93
1, 7104, Note_on_c, 2, 74, 93
1, 7105, Note_on_c, 9, 36, 98
1, 7105, Note_on_c, 1, 34, 121
1, 7105, Note_on_c, 9, 69, 12
1, 7106, Note_off_c, 9, 36, 64
1, 7106, Note_off_c, 9, 69, 64
1, 7109, Note_off_c, 1, 31, 64
1, 7113, Note_off_c, 7, 58, 64
1, 7125, Note_off_c, 2, 69, 64
1, 7126, Note_off_c, 2, 74, 64
1, 7126, Note_on_c, 2, 69, 69
1, 7127, Note_on_c, 7, 58, 74
1, 7128, Note_on_c, 2, 74, 76
1, 7129, Note_on_c, 9, 69, 24
1, 7130, Note_off_c, 9, 69, 64
1, 7142, Note_off_c, 7, 58, 64
1, 7146, Note_off_c, 2, 74, 64
1, 7146, Note_off_c, 2, 69, 64
1, 7150, Note_on_c, 2, 67, 78
1, 7151, Note_on_c, 7, 60, 74
1, 7153, Lyric_t, "you're "
1, 7153, Note_off_c, 3, 69, 64
1, 7153, Note_on_c, 3, 70, 95
1, 7153, Note_on_c, 9, 44, 57
1, 7153, Note_on_c, 9, 69, 62
1, 7154, Note_off_c, 9, 44, 64
1, 7154, Note_off_c, 9, 69, 64
1, 7156, Note_off_c, 2, 65, 64
1, 7167, Note_off_c, 1, 34, 64
1, 7172, Note_off_c, 2, 67, 64
1, 7174, Note_off_c, 3, 70, 64
1, 7174, Note_off_c, 7, 60, 64
1, 7175, Note_on_c, 8, 57, 75
1, 7175, Note_on_c, 8, 65, 68
1, 7175, Note_on_c, 8, 62, 62
1, 7176, Note_on_c, 2, 69, 100
1, 7176, Note_on_c, 2, 65, 90
1, 7176, Note_on_c, 2, 74, 100
1, 7177, Note_on_c, 9, 42, 63
1, 7177, Note_on_c, 7, 62, 87
1, 7177, Note_on_c, 9, 69, 38
1, 7178, Lyric_t, "liv"
1, 7178, Note_on_c, 3, 72, 105
1, 7178, Note_off_c, 9, 42, 64
1, 7178, Note_off_c, 9, 69, 64
1, 7181, Note_off_c, 8, 62, 64
1, 7182, Note_off_c, 8, 65, 64
1, 7183, Note_off_c, 8, 57, 64
1, 7192, Note_off_c, 2, 74, 64
1, 7192, Note_off_c, 2, 69, 64
1, 7193, Note_off_c, 2, 65, 64
1, 7194, Note_off_c, 7, 62, 64
1, 7199, Note_on_c, 9, 40, 109
1, 7199, Note_on_c, 8, 57, 78
1, 7199, Note_on_c, 8, 65, 75
1, 7199, Note_on_c, 8, 62, 75
1, 7199, Note_on_c, 9, 69, 19
1, 7200, Note_off_c, 9, 40, 64
1, 7200, Note_off_c, 9, 69, 64
1, 7209, Note_off_c, 8, 65, 64
1, 7211, Note_off_c, 8, 62, 64
1, 7212, Note_off_c, 8, 57, 64
1, 7218, Note_off_c, 3, 72, 64
1, 7223, Note_on_c, 7, 58, 80
1, 7223, Note_on_c, 9, 69, 30
1, 7224, Note_on_c, 2, 69, 106
1, 7224, Note_on_c, 2, 65, 97
1, 7224, Note_on_c, 2, 74, 100
1, 7224, Note_off_c, 9, 69, 64
1, 7225, Note_on_c, 9, 44, 72
1, 7226, Note_off_c, 9, 44, 64
1, 7242, Note_off_c, 2, 74, 64
1, 7244, Note_off_c, 2, 69, 64
1, 7245, Note_off_c, 7, 58, 64
1, 7246, Note_on_c, 2, 67, 73
1, 7247, Note_on_c, 9, 69, 62
1, 7248, Lyric_t, "in' "
1, 7248, Note_on_c, 3, 70, 102
1, 7248, Note_off_c, 9, 69, 64
1, 7249, Note_on_c, 9, 42, 81
1, 7250, Note_off_c, 9, 42, 64
1, 7262, Note_off_c, 2, 65, 64
1, 7270, Note_off_c, 2, 67, 64
1, 7270, Note_on_c, 9, 69, 33
1, 7271, Note_on_c, 9, 36, 95
1, 7271, Note_off_c, 9, 69, 64
1, 7272, Note_off_c, 9, 36, 64
1, 7272, Note_on_c, 2, 65, 93
1, 7272, Note_on_c, 2, 69, 93
1, 7272, Note_on_c, 2, 74, 90
1, 7272, Note_on_c, 7, 65, 87
1, 7273, Note_on_c, 1, 34, 102
1, 7274, Lyric_t, "on. "
1, 7274, Lyric_t, "\015"
1, 7274, Note_off_c, 3, 70, 64
1, 7274, Note_on_c, 3, 69, 98
1, 7295, Note_on_c, 9, 42, 81
1, 7295, Note_on_c, 9, 69, 34
1, 7296, Note_off_c, 9, 42, 64
1, 7296, Note_off_c, 9, 69, 64
1, 7299, Note_off_c, 1, 34, 64
1, 7300, Note_off_c, 7, 65, 64
1, 7306, Lyric_t, "\012"
1, 7306, Note_off_c, 2, 74, 64
1, 7306, Note_off_c, 2, 69, 64
1, 7306, Note_off_c, 2, 65, 64
1, 7319, Note_on_c, 1, 34, 80
1, 7320, Note_on_c, 2, 65, 106
1, 7320, Note_on_c, 2, 69, 106
1, 7320, Note_on_c, 2, 74, 100
1, 7320, Note_on_c, 7, 58, 80
1, 7320, Note_on_c, 9, 69, 33
1, 7321, Note_off_c, 9, 69, 64
1, 7322, Note_off_c, 3, 69, 64
1, 7324, Note_on_c, 3, 67, 87
1, 7337, Note_off_c, 2, 74, 64
1, 7338, Note_off_c, 1, 34, 64
1, 7341, Note_off_c, 7, 58, 64
1, 7343, Note_on_c, 9, 36, 98
1, 7343, Note_on_c, 9, 42, 94
1, 7344, Note_off_c, 9, 42, 64
1, 7344, Note_off_c, 9, 36, 64
1, 7344, Note_on_c, 2, 67, 84
1, 7344, Note_on_c, 9, 69, 60
1, 7345, Note_on_c, 1, 34, 111
1, 7345, Note_off_c, 9, 69, 64
1, 7348, Note_off_c, 3, 67, 64
1, 7366, Note_off_c, 2, 69, 64
1, 7368, Lyric_t, "You "
1, 7368, Note_on_c, 3, 67, 98
1, 7368, Note_on_c, 9, 69, 45
1, 7369, Note_on_c, 7, 58, 83
1, 7369, Note_on_c, 8, 57, 78
1, 7369, Note_on_c, 8, 65, 75
1, 7369, Note_on_c, 8, 62, 58
1, 7369, Note_off_c, 9, 69, 64
1, 7370, Note_off_c, 2, 67, 64
1, 7376, Note_off_c, 8, 62, 64
1, 7378, Note_off_c, 8, 65, 64
1, 7379, Note_off_c, 8, 57, 64
1, 7382, Note_off_c, 1, 34, 64
1, 7384, Note_off_c, 7, 58, 64
1, 7391, Note_on_c, 9, 40, 114
1, 7391, Note_on_c, 9, 42, 81
1, 7391, Note_on_c, 8, 62, 75
1, 7392, Note_off_c, 3, 67, 64
1, 7392, Note_off_c, 9, 42, 64
1, 7392, Note_off_c, 9, 40, 64
1, 7392, Note_on_c, 2, 69, 116
1, 7392, Note_on_c, 2, 74, 106
1, 7392, Note_on_c, 8, 65, 71
1, 7392, Note_on_c, 8, 57, 60
1, 7393, Note_on_c, 7, 62, 80
1, 7393, Note_on_c, 9, 69, 42
1, 7394, Lyric_t, "got"
1, 7394, Note_on_c, 3, 65, 95
1, 7394, Note_off_c, 9, 69, 64
1, 7399, Note_off_c, 8, 57, 64
1, 7399, Note_off_c, 8, 65, 64
1, 7400, Note_off_c, 8, 62, 64
1, 7402, Note_off_c, 7, 62, 64
1, 7414, Note_off_c, 3, 65, 64
1, 7416, Lyric_t, "ta "
1, 7416, Note_on_c, 3, 67, 102
1, 7416, Note_on_c, 9, 44, 68
1, 7417, Note_off_c, 9, 44, 64
1, 7417, Note_on_c, 7, 62, 72
1, 7417, Note_on_c, 9, 69, 30
1, 7418, Note_off_c, 9, 69, 64
1, 7433, Note_off_c, 3, 67, 64
1, 7434, Note_off_c, 7, 62, 64
1, 7438, Lyric_t, "be "
1, 7438, Note_on_c, 3, 69, 111
1, 7439, Note_on_c, 1, 34, 95
1, 7439, Note_on_c, 8, 57, 84
1, 7440, Note_on_c, 9, 46, 85
1, 7440, Note_on_c, 2, 67, 93
1, 7440, Note_on_c, 8, 65, 84
1, 7440, Note_on_c, 9, 69, 60
1, 7441, Note_off_c, 9, 46, 64
1, 7441, Note_on_c, 7, 58, 74
1, 7441, Note_on_c, 8, 62, 78
1, 7441, Note_off_c, 9, 69, 64
1, 7450, Note_off_c, 8, 62, 64
1, 7450, Note_off_c, 8, 65, 64
1, 7452, Note_off_c, 3, 69, 64
1, 7453, Note_off_c, 8, 57, 64
1, 7464, Lyric_t, "mine. "
1, 7464, Lyric_t, "\015"
1, 7464, Note_on_c, 3, 69, 121
1, 7464, Note_on_c, 1, 36, 85
1, 7464, Note_on_c, 9, 69, 30
1, 7465, Note_off_c, 1, 34, 64
1, 7465, Note_off_c, 9, 69, 64
1, 7474, Note_off_c, 2, 67, 64
1, 7474, Note_off_c, 2, 65, 64
1, 7474, Note_off_c, 2, 69, 64
1, 7474, Note_off_c, 2, 74, 64
1, 7474, Note_off_c, 7, 58, 64
1, 7485, Note_off_c, 1, 36, 64
1, 7487, Note_on_c, 9, 36, 104
1, 7487, Note_on_c, 9, 51, 85
1, 7487, Note_on_c, 9, 42, 85
1, 7487, Note_on_c, 1, 38, 116
1, 7487, Note_on_c, 1, 45, 98
1, 7488, Note_off_c, 9, 42, 64
1, 7488, Note_off_c, 9, 51, 64
1, 7488, Note_off_c, 9, 36, 64
1, 7488, Note_on_c, 0, 38, 109
1, 7488, Note_on_c, 2, 74, 87
1, 7488, Note_on_c, 2, 66, 90
1, 7488, Note_on_c, 2, 69, 100
1, 7488, Note_on_c, 2, 64, 90
1, 7488, Note_on_c, 7, 54, 66
1, 7489, Control_c, 0, 1, 0
1, 7489, Pitch_bend_c, 0, 8192
1, 7489, Note_on_c, 0, 45, 109
1, 7489, Note_on_c, 9, 69, 40
1, 7490, Note_off_c, 9, 69, 64
1, 7499, Note_off_c, 7, 54, 64
1, 7510, Note_off_c, 2, 64, 64
1, 7510, Note_off_c, 2, 74, 64
1, 7510, Note_off_c, 2, 66, 64
1, 7510, Note_off_c, 2, 69, 64
1, 7511, Note_on_c, 7, 54, 74
1, 7511, Note_on_c, 9, 69, 31
1, 7512, Note_on_c, 2, 74, 63
1, 7512, Note_on_c, 2, 66, 76
1, 7512, Note_on_c, 2, 69, 73
1, 7512, Note_on_c, 2, 64, 69
1, 7512, Note_off_c, 9, 69, 64
1, 7522, Note_off_c, 7, 54, 64
1, 7534, Note_off_c, 2, 64, 64
1, 7535, Note_on_c, 9, 44, 78
1, 7535, Note_on_c, 7, 57, 90
1, 7536, Note_off_c, 9, 44, 64
1, 7536, Note_on_c, 2, 64, 90
1, 7536, Note_on_c, 9, 69, 59
1, 7537, Note_off_c, 9, 69, 64
1, 7557, Note_off_c, 2, 74, 64
1, 7557, Note_off_c, 2, 69, 64
1, 7557, Note_off_c, 2, 66, 64
1, 7557, Note_off_c, 7, 57, 64
1, 7560, Note_on_c, 2, 66, 84
1, 7560, Note_on_c, 2, 69, 93
1, 7560, Note_on_c, 2, 74, 82
1, 7560, Note_on_c, 8, 66, 46
1, 7561, Note_on_c, 9, 42, 68
1, 7561, Note_on_c, 7, 62, 77
1, 7561, Note_on_c, 8, 57, 36
1, 7561, Note_on_c, 8, 62, 43
1, 7561, Note_on_c, 9, 69, 40
1, 7562, Note_off_c, 9, 42, 64
1, 7562, Note_off_c, 9, 69, 64
1, 7568, Note_off_c, 8, 62, 64
1, 7568, Note_off_c, 8, 66, 64
1, 7570, Note_off_c, 8, 57, 64
1, 7577, Note_off_c, 7, 62, 64
1, 7578, Note_off_c, 2, 69, 64
1, 7582, Note_off_c, 2, 66, 64
1, 7583, Note_on_c, 9, 40, 109
1, 7584, Note_off_c, 9, 40, 64
1, 7584, Note_on_c, 9, 69, 30
1, 7585, Note_off_c, 2, 74, 64
1, 7585, Note_on_c, 8, 66, 71
1, 7585, Note_on_c, 8, 57, 71
1, 7585, Note_on_c, 8, 62, 71
1, 7585, Note_off_c, 9, 69, 64
1, 7594, Note_off_c, 2, 64, 64
1, 7598, Note_off_c, 8, 62, 64
1, 7599, Note_off_c, 8, 66, 64
1, 7600, Note_off_c, 8, 57, 64
1, 7607, Note_on_c, 9, 69, 30
1, 7608, Note_on_c, 2, 66, 84
1, 7608, Note_on_c, 2, 74, 84
1, 7608, Note_on_c, 2, 69, 93
1, 7608, Note_on_c, 2, 64, 59
1, 7608, Note_off_c, 9, 69, 64
1, 7609, Note_on_c, 9, 44, 64
1, 7609, Note_on_c, 7, 57, 77
1, 7610, Note_off_c, 9, 44, 64
1, 7621, Note_off_c, 1, 38, 64
1, 7629, Note_off_c, 2, 64, 64
1, 7630, Note_on_c, 2, 64, 87
1, 7630, Note_off_c, 7, 57, 64
1, 7631, Note_on_c, 9, 69, 63
1, 7632, Note_off_c, 9, 69, 64
1, 7633, Note_on_c, 9, 42, 78
1, 7634, Note_off_c, 9, 42, 64
1, 7654, Note_off_c, 2, 64, 64
1, 7654, Note_off_c, 2, 69, 64
1, 7654, Note_off_c, 2, 74, 64
1, 7654, Note_off_c, 2, 66, 64
1, 7655, Note_on_c, 9, 36, 85
1, 7655, Note_on_c, 1, 38, 102
1, 7655, Note_on_c, 7, 66, 83
1, 7656, Note_off_c, 9, 36, 64
1, 7656, Note_on_c, 2, 64, 64
1, 7656, Note_on_c, 2, 69, 90
1, 7656, Note_on_c, 2, 74, 87
1, 7656, Note_on_c, 2, 66, 84
1, 7656, Note_on_c, 9, 69, 38
1, 7657, Note_off_c, 9, 69, 64
1, 7677, Note_off_c, 3, 69, 64
1, 7680, Note_on_c, 9, 51, 94
1, 7680, Note_on_c, 9, 69, 22
1, 7681, Note_off_c, 9, 51, 64
1, 7681, Note_off_c, 9, 69, 64
1, 7682, Note_off_c, 1, 38, 64
1, 7694, Note_off_c, 7, 66, 64
1, 7702, Note_off_c, 2, 66, 64
1, 7702, Note_off_c, 2, 74, 64
1, 7702, Note_off_c, 2, 69, 64
1, 7703, Note_on_c, 9, 36, 82
1, 7703, Note_on_c, 1, 38, 92
1, 7703, Note_on_c, 7, 57, 87
1, 7704, Note_off_c, 9, 36, 64
1, 7704, Note_on_c, 2, 74, 90
1, 7704, Note_on_c, 2, 66, 90
1, 7704, Note_on_c, 2, 69, 93
1, 7705, Note_on_c, 9, 69, 34
1, 7706, Note_off_c, 9, 69, 64
1, 7712, Note_off_c, 1, 38, 64
1, 7724, Note_off_c, 7, 57, 64
1, 7727, Note_on_c, 9, 36, 91
1, 7727, Note_on_c, 1, 38, 98
1, 7727, Note_on_c, 8, 62, 56
1, 7728, Note_off_c, 9, 36, 64
1, 7728, Note_on_c, 2, 62, 80
1, 7729, Note_on_c, 9, 51, 85
1, 7729, Note_on_c, 9, 69, 53
1, 7730, Note_off_c, 9, 51, 64
1, 7730, Note_off_c, 9, 69, 64
1, 7731, Note_off_c, 8, 62, 64
1, 7737, Note_off_c, 0, 38, 64
1, 7750, Note_off_c, 2, 64, 64
1, 7751, Note_on_c, 9, 64, 75
1, 7752, Lyric_t, "We "
1, 7752, Note_on_c, 3, 69, 111
1, 7752, Note_on_c, 2, 64, 80
1, 7752, Note_off_c, 9, 64, 64
1, 7753, Note_on_c, 7, 57, 74
1, 7753, Note_on_c, 9, 69, 36
1, 7754, Note_off_c, 9, 69, 64
1, 7756, Note_off_c, 0, 45, 64
1, 7764, Note_off_c, 2, 64, 64
1, 7764, Note_off_c, 2, 62, 64
1, 7764, Note_off_c, 2, 74, 64
1, 7764, Note_off_c, 2, 66, 64
1, 7764, Note_off_c, 2, 69, 64
1, 7770, Note_off_c, 7, 57, 64
1, 7772, Note_off_c, 3, 69, 64
1, 7775, Lyric_t, "take "
1, 7775, Note_on_c, 3, 67, 98
1, 7775, Note_on_c, 1, 50, 85
1, 7775, Note_on_c, 0, 50, 109
1, 7775, Note_on_c, 0, 43, 114
1, 7775, Note_on_c, 8, 58, 68
1, 7775, Note_on_c, 8, 67, 75
1, 7775, Note_on_c, 8, 62, 78
1, 7776, Note_on_c, 9, 40, 109
1, 7776, Note_on_c, 9, 42, 64
1, 7776, Note_on_c, 1, 43, 102
1, 7776, Note_on_c, 2, 74, 100
1, 7776, Note_on_c, 2, 70, 97
1, 7776, Note_on_c, 2, 67, 106
1, 7777, Note_off_c, 9, 42, 64
1, 7777, Note_off_c, 9, 40, 64
1, 7777, Note_on_c, 7, 58, 80
1, 7777, Note_on_c, 7, 62, 83
1, 7777, Note_on_c, 9, 64, 65
1, 7777, Note_on_c, 9, 69, 31
1, 7778, Note_off_c, 1, 38, 64
1, 7778, Note_off_c, 9, 69, 64
1, 7778, Note_off_c, 9, 64, 64
1, 7780, Note_off_c, 1, 45, 64
1, 7790, Note_off_c, 8, 67, 64
1, 7792, Note_off_c, 8, 62, 64
1, 7795, Note_off_c, 8, 58, 64
1, 7797, Note_off_c, 3, 67, 64
1, 7801, Lyric_t, "it "
1, 7801, Note_on_c, 3, 69, 98
1, 7801, Note_on_c, 9, 69, 23
1, 7802, Note_off_c, 9, 69, 64
1, 7821, Note_off_c, 3, 69, 64
1, 7823, Lyric_t, "a"
1, 7823, Note_on_c, 3, 70, 98
1, 7823, Note_on_c, 9, 69, 51
1, 7824, Note_off_c, 9, 69, 64
1, 7825, Note_on_c, 9, 42, 81
1, 7825, Note_on_c, 8, 62, 56
1, 7826, Note_off_c, 9, 42, 64
1, 7835, Note_off_c, 8, 62, 64
1, 7844, Note_off_c, 7, 62, 64
1, 7846, Note_off_c, 3, 70, 64
1, 7848, Note_on_c, 9, 69, 34
1, 7849, Note_off_c, 9, 69, 64
1, 7850, Lyric_t, "way. "
1, 7850, Lyric_t, "\015"
1, 7850, Note_on_c, 3, 69, 102
1, 7860, Note_off_c, 7, 58, 64
1, 7864, Note_off_c, 2, 67, 64
1, 7864, Note_off_c, 2, 70, 64
1, 7864, Note_off_c, 2, 74, 64
1, 7871, Note_on_c, 1, 45, 95
1, 7871, Note_on_c, 7, 54, 80
1, 7872, Note_on_c, 9, 51, 81
1, 7872, Note_on_c, 2, 74, 93
1, 7872, Note_on_c, 2, 66, 97
1, 7872, Note_on_c, 2, 69, 106
1, 7872, Note_on_c, 2, 62, 93
1, 7873, Note_off_c, 9, 51, 64
1, 7873, Note_on_c, 9, 36, 104
1, 7873, Note_on_c, 9, 42, 85
1, 7873, Note_on_c, 1, 38, 105
1, 7873, Note_off_c, 0, 50, 64
1, 7873, Note_on_c, 0, 38, 114
1, 7873, Note_on_c, 0, 45, 120
1, 7874, Note_off_c, 9, 42, 64
1, 7874, Note_off_c, 9, 36, 64
1, 7874, Note_off_c, 1, 50, 64
1, 7874, Note_off_c, 1, 43, 64
1, 7874, Note_off_c, 0, 43, 64
1, 7882, Note_off_c, 7, 54, 64
1, 7886, Note_off_c, 2, 69, 64
1, 7886, Note_off_c, 2, 66, 64
1, 7894, Note_off_c, 2, 74, 64
1, 7895, Note_on_c, 7, 54, 74
1, 7895, Note_on_c, 9, 69, 22
1, 7896, Note_on_c, 2, 66, 82
1, 7896, Note_on_c, 2, 69, 70
1, 7896, Note_on_c, 2, 74, 70
1, 7896, Note_off_c, 9, 69, 64
1, 7907, Note_off_c, 7, 54, 64
1, 7919, Note_on_c, 7, 57, 83
1, 7919, Note_on_c, 9, 69, 51
1, 7920, Note_on_c, 2, 64, 87
1, 7920, Note_off_c, 9, 69, 64
1, 7921, Note_on_c, 9, 44, 78
1, 7922, Note_off_c, 9, 44, 64
1, 7934, Note_off_c, 2, 74, 64
1, 7934, Note_off_c, 2, 69, 64
1, 7934, Note_off_c, 2, 66, 64
1, 7941, Note_off_c, 3, 69, 64
1, 7942, Note_off_c, 7, 57, 64
1, 7943, Note_on_c, 9, 69, 48
1, 7944, Note_on_c, 2, 66, 84
1, 7944, Note_on_c, 2, 74, 93
1, 7944, Note_on_c, 2, 69, 93
1, 7944, Note_on_c, 7, 62, 80
1, 7944, Note_on_c, 8, 57, 42
1, 7944, Note_on_c, 8, 66, 35
1, 7944, Note_off_c, 9, 69, 64
1, 7945, Note_on_c, 3, 67, 95
1, 7945, Note_on_c, 9, 42, 70
1, 7945, Note_on_c, 8, 62, 47
1, 7946, Lyric_t, "\012"
1, 7946, Note_off_c, 9, 42, 64
1, 7950, Note_off_c, 8, 57, 64
1, 7951, Note_off_c, 8, 62, 64
1, 7951, Note_off_c, 8, 66, 64
1, 7958, Note_off_c, 2, 62, 64
1, 7960, Note_off_c, 2, 69, 64
1, 7961, Note_off_c, 2, 74, 64
1, 7962, Note_off_c, 3, 67, 64
1, 7965, Note_off_c, 2, 64, 64
1, 7966, Note_off_c, 7, 62, 64
1, 7967, Note_on_c, 8, 66, 68
1, 7967, Note_on_c, 8, 62, 71
1, 7968, Note_on_c, 9, 40, 104
1, 7968, Note_on_c, 8, 57, 78
1, 7969, Note_on_c, 3, 66, 98
1, 7969, Note_off_c, 9, 40, 64
1, 7970, Note_off_c, 2, 66, 64
1, 7970, Note_on_c, 9, 69, 33
1, 7971, Note_off_c, 9, 69, 64
1, 7987, Note_off_c, 1, 38, 64
1, 7988, Note_off_c, 8, 62, 64
1, 7989, Note_off_c, 8, 57, 64
1, 7989, Note_off_c, 8, 66, 64
1, 7992, Note_on_c, 2, 66, 84
1, 7992, Note_on_c, 2, 74, 87
1, 7992, Note_on_c, 2, 69, 93
1, 7992, Note_on_c, 2, 62, 90
1, 7993, Note_on_c, 9, 44, 81
1, 7993, Note_on_c, 7, 57, 83
1, 7993, Note_on_c, 9, 69, 26
1, 7994, Note_off_c, 9, 44, 64
1, 7994, Note_off_c, 9, 69, 64
1, 8006, Note_off_c, 7, 57, 64
1, 8016, Note_on_c, 2, 64, 82
1, 8017, Note_on_c, 9, 42, 78
1, 8017, Note_on_c, 9, 69, 61
1, 8018, Note_off_c, 9, 42, 64
1, 8018, Note_off_c, 9, 69, 64
1, 8038, Note_off_c, 2, 64, 64
1, 8038, Note_off_c, 2, 66, 64
1, 8038, Note_off_c, 2, 69, 64
1, 8038, Note_off_c, 2, 74, 64
1, 8039, Note_on_c, 7, 66, 83
1, 8040, Note_on_c, 1, 38, 92
1, 8040, Note_on_c, 2, 64, 78
1, 8040, Note_on_c, 2, 66, 82
1, 8040, Note_on_c, 2, 74, 84
1, 8040, Note_on_c, 2, 69, 82
1, 8040, Note_on_c, 9, 69, 40
1, 8041, Note_on_c, 9, 36, 98
1, 8041, Note_off_c, 9, 69, 64
1, 8042, Note_off_c, 9, 36, 64
1, 8058, Note_off_c, 2, 69, 64
1, 8062, Note_off_c, 7, 66, 64
1, 8063, Note_off_c, 3, 66, 64
1, 8063, Note_on_c, 9, 51, 94
1, 8064, Note_off_c, 9, 51, 64
1, 8065, Note_off_c, 1, 38, 64
1, 8066, Note_on_c, 9, 69, 33
1, 8067, Note_off_c, 9, 69, 64
1, 8086, Note_off_c, 2, 66, 64
1, 8086, Note_off_c, 2, 74, 64
1, 8087, Note_on_c, 1, 38, 92
1, 8088, Note_on_c, 2, 66, 90
1, 8088, Note_on_c, 2, 74, 82
1, 8088, Note_on_c, 2, 69, 93
1, 8089, Note_on_c, 9, 36, 95
1, 8089, Note_on_c, 7, 57, 80
1, 8089, Note_on_c, 9, 69, 30
1, 8090, Note_off_c, 9, 36, 64
1, 8090, Note_off_c, 9, 69, 64
1, 8097, Note_off_c, 1, 38, 64
1, 8107, Note_off_c, 7, 57, 64
1, 8110, Note_off_c, 2, 62, 64
1, 8111, Note_on_c, 9, 51, 94
1, 8111, Note_on_c, 1, 38, 98
1, 8112, Note_off_c, 9, 51, 64
1, 8112, Note_on_c, 2, 62, 82
1, 8113, Note_on_c, 9, 36, 91
1, 8113, Note_off_c, 0, 38, 64
1, 8114, Note_off_c, 9, 36, 64
1, 8114, Note_off_c, 0, 45, 64
1, 8114, Note_on_c, 9, 69, 52
1, 8115, Note_off_c, 9, 69, 64
1, 8134, Note_off_c, 2, 64, 64
1, 8135, Note_on_c, 9, 64, 84
1, 8136, Note_on_c, 2, 64, 87
1, 8136, Note_off_c, 9, 64, 64
1, 8137, Lyric_t, "It's "
1, 8137, Note_on_c, 3, 69, 105
1, 8137, Note_on_c, 7, 57, 72
1, 8137, Note_on_c, 8, 62, 47
1, 8137, Note_on_c, 9, 69, 36
1, 8138, Note_off_c, 9, 69, 64
1, 8142, Note_off_c, 8, 62, 64
1, 8148, Note_off_c, 2, 69, 64
1, 8148, Note_off_c, 2, 62, 64
1, 8148, Note_off_c, 2, 74, 64
1, 8148, Note_off_c, 2, 66, 64
1, 8150, Note_off_c, 2, 64, 64
1, 8150, Note_off_c, 7, 57, 64
1, 8158, Note_off_c, 3, 69, 64
1, 8159, Note_on_c, 1, 50, 89
1, 8159, Note_on_c, 1, 43, 98
1, 8160, Note_on_c, 9, 42, 72
1, 8160, Note_off_c, 1, 45, 64
1, 8160, Note_on_c, 0, 43, 104
1, 8160, Note_on_c, 0, 50, 114
1, 8160, Note_on_c, 2, 74, 97
1, 8160, Note_on_c, 2, 70, 97
1, 8160, Note_on_c, 2, 67, 100
1, 8160, Note_on_c, 9, 64, 78
1, 8161, Lyric_t, "got"
1, 8161, Note_on_c, 3, 67, 95
1, 8161, Note_off_c, 9, 42, 64
1, 8161, Note_on_c, 9, 40, 109
1, 8161, Note_on_c, 7, 58, 74
1, 8161, Note_on_c, 7, 62, 87
1, 8161, Note_on_c, 8, 67, 68
1, 8161, Note_on_c, 8, 58, 58
1, 8161, Note_on_c, 8, 62, 62
1, 8161, Note_off_c, 9, 64, 64
1, 8161, Note_on_c, 9, 69, 40
1, 8162, Note_off_c, 9, 40, 64
1, 8162, Note_off_c, 1, 38, 64
1, 8162, Note_off_c, 9, 69, 64
1, 8166, Note_off_c, 8, 62, 64
1, 8180, Note_off_c, 3, 67, 64
1, 8185, Note_on_c, 9, 69, 23
1, 8186, Lyric_t, "ta "
1, 8186, Note_on_c, 3, 69, 102
1, 8186, Note_off_c, 9, 69, 64
1, 8191, Note_off_c, 8, 67, 64
1, 8197, Note_off_c, 8, 58, 64
1, 8205, Note_off_c, 7, 58, 64
1, 8206, Note_off_c, 3, 69, 64
1, 8206, Note_off_c, 7, 62, 64
1, 8208, Note_on_c, 2, 62, 90
1, 8208, Note_on_c, 9, 69, 58
1, 8209, Lyric_t, "be "
1, 8209, Note_on_c, 3, 70, 98
1, 8209, Note_on_c, 9, 42, 64
1, 8209, Note_on_c, 8, 62, 34
1, 8209, Note_off_c, 9, 69, 64
1, 8210, Note_off_c, 9, 42, 64
1, 8213, Note_off_c, 8, 62, 64
1, 8221, Note_off_c, 2, 62, 64
1, 8221, Note_off_c, 2, 74, 64
1, 8221, Note_off_c, 2, 70, 64
1, 8221, Note_off_c, 2, 67, 64
1, 8230, Note_off_c, 3, 70, 64
1, 8230, Note_on_c, 2, 64, 82
1, 8234, Lyric_t, "night "
1, 8234, Note_on_c, 3, 69, 105
1, 8234, Note_on_c, 9, 69, 48
1, 8235, Note_off_c, 9, 69, 64
1, 8246, Note_off_c, 2, 64, 64
1, 8253, Note_off_c, 0, 50, 64
1, 8255, Note_on_c, 9, 51, 94
1, 8255, Note_on_c, 1, 38, 102
1, 8255, Note_on_c, 0, 38, 98
1, 8256, Note_off_c, 9, 51, 64
1, 8256, Note_on_c, 9, 36, 104
1, 8256, Note_off_c, 1, 43, 64
1, 8256, Note_on_c, 1, 45, 95
1, 8256, Note_on_c, 0, 45, 109
1, 8256, Note_on_c, 2, 64, 67
1, 8256, Note_on_c, 2, 69, 106
1, 8256, Note_on_c, 2, 74, 97
1, 8256, Note_on_c, 2, 66, 106
1, 8256, Note_on_c, 2, 62, 87
1, 8257, Note_off_c, 9, 36, 64
1, 8257, Note_on_c, 7, 57, 83
1, 8257, Note_on_c, 7, 62, 83
1, 8258, Note_off_c, 0, 43, 64
1, 8258, Note_on_c, 9, 69, 23
1, 8259, Note_off_c, 9, 69, 64
1, 8260, Note_off_c, 1, 50, 64
1, 8281, Note_on_c, 9, 69, 24
1, 8282, Note_off_c, 9, 69, 64
1, 8305, Note_on_c, 9, 42, 64
1, 8305, Note_on_c, 9, 69, 62
1, 8306, Note_off_c, 9, 42, 64
1, 8306, Note_off_c, 9, 69, 64
1, 8329, Note_on_c, 9, 69, 38
1, 8330, Note_off_c, 9, 69, 64
1, 8342, Note_off_c, 7, 62, 64
1, 8348, Note_off_c, 7, 57, 64
1, 8349, Note_off_c, 3, 69, 64
1, 8349, Note_off_c, 0, 38, 64
1, 8349, Note_off_c, 2, 62, 64
1, 8349, Note_off_c, 2, 74, 64
1, 8349, Note_off_c, 2, 64, 64
1, 8349, Note_off_c, 2, 69, 64
1, 8349, Note_off_c, 2, 66, 64
1, 8350, Note_off_c, 1, 38, 64
1, 8350, Note_off_c, 0, 45, 64
1, 8351, Note_on_c, 9, 36, 104
1, 8351, Note_on_c, 9, 51, 99
1, 8351, Note_on_c, 1, 36, 98
1, 8351, Note_on_c, 0, 36, 109
1, 8351, Note_on_c, 0, 43, 109
1, 8351, Note_on_c, 7, 60, 65
1, 8351, Note_on_c, 7, 55, 65
1, 8351, Note_on_c, 8, 55, 62
1, 8351, Note_on_c, 8, 64, 71
1, 8351, Note_on_c, 8, 60, 71
1, 8352, Note_off_c, 9, 51, 64
1, 8352, Note_off_c, 9, 36, 64
1, 8352, Note_on_c, 2, 72, 100
1, 8352, Note_on_c, 2, 67, 106
1, 8352, Note_on_c, 2, 64, 100
1, 8353, Lyric_t, "and "
1, 8353, Note_on_c, 3, 67, 116
1, 8353, Note_on_c, 1, 43, 92
1, 8354, Note_off_c, 1, 45, 64
1, 8374, Note_off_c, 8, 60, 64
1, 8377, Note_off_c, 8, 64, 64
1, 8377, Note_off_c, 8, 55, 64
1, 8377, Note_on_c, 9, 69, 40
1, 8378, Note_off_c, 9, 69, 64
1, 8401, Note_on_c, 9, 42, 64
1, 8401, Note_on_c, 9, 69, 63
1, 8402, Note_off_c, 9, 42, 64
1, 8402, Note_off_c, 9, 69, 64
1, 8425, Note_on_c, 9, 69, 48
1, 8426, Note_off_c, 9, 69, 64
1, 8439, Note_off_c, 3, 67, 64
1, 8442, Note_off_c, 2, 64, 64
1, 8442, Note_off_c, 2, 67, 64
1, 8442, Note_off_c, 2, 72, 64
1, 8445, Note_off_c, 7, 60, 64
1, 8446, Note_off_c, 0, 43, 64
1, 8446, Note_off_c, 7, 55, 64
1, 8447, Note_on_c, 9, 51, 94
1, 8447, Note_off_c, 1, 43, 64
1, 8447, Note_on_c, 1, 45, 105
1, 8447, Note_on_c, 0, 45, 109
1, 8447, Note_on_c, 0, 38, 109
1, 8447, Note_on_c, 7, 62, 80
1, 8447, Note_on_c, 7, 57, 80
1, 8447, Note_on_c, 8, 66, 54
1, 8447, Note_on_c, 8, 57, 68
1, 8447, Note_on_c, 8, 62, 68
1, 8448, Note_off_c, 9, 51, 64
1, 8448, Note_off_c, 0, 36, 64
1, 8448, Note_on_c, 2, 69, 97
1, 8448, Note_on_c, 2, 66, 90
1, 8448, Note_on_c, 2, 62, 84
1, 8448, Note_on_c, 2, 64, 87
1, 8448, Note_on_c, 9, 69, 20
1, 8449, Lyric_t, "day, "
1, 8449, Lyric_t, "\015"
1, 8449, Note_on_c, 3, 66, 111
1, 8449, Note_on_c, 9, 36, 109
1, 8449, Note_on_c, 1, 38, 105
1, 8449, Note_off_c, 9, 69, 64
1, 8450, Note_off_c, 9, 36, 64
1, 8453, Note_off_c, 1, 36, 64
1, 8462, Note_off_c, 8, 57, 64
1, 8467, Note_off_c, 8, 62, 64
1, 8469, Note_off_c, 8, 66, 64
1, 8471, Note_on_c, 9, 69, 36
1, 8472, Note_off_c, 9, 69, 64
1, 8491, Note_off_c, 3, 66, 64
1, 8495, Note_on_c, 9, 69, 58
1, 8496, Note_off_c, 9, 69, 64
1, 8497, Lyric_t, "just "
1, 8497, Note_on_c, 3, 62, 98
1, 8497, Note_on_c, 9, 42, 63
1, 8498, Note_off_c, 9, 42, 64
1, 8509, Note_off_c, 3, 62, 64
1, 8518, Note_on_c, 9, 64, 84
1, 8519, Note_off_c, 9, 64, 64
1, 8519, Note_on_c, 9, 69, 36
1, 8520, Note_off_c, 9, 69, 64
1, 8521, Lyric_t, "a "
1, 8521, Note_on_c, 3, 62, 105
1, 8534, Note_off_c, 2, 64, 64
1, 8534, Note_off_c, 2, 69, 64
1, 8534, Note_off_c, 2, 66, 64
1, 8534, Note_off_c, 2, 62, 64
1, 8537, Note_off_c, 3, 62, 64
1, 8543, Note_on_c, 9, 51, 99
1, 8543, Note_on_c, 1, 36, 89
1, 8543, Note_on_c, 9, 64, 78
1, 8544, Note_off_c, 9, 51, 64
1, 8544, Note_off_c, 1, 38, 64
1, 8544, Note_off_c, 0, 38, 64
1, 8544, Note_on_c, 2, 64, 100
1, 8544, Note_on_c, 2, 67, 100
1, 8544, Note_on_c, 2, 60, 97
1, 8544, Note_off_c, 9, 64, 64
1, 8545, Lyric_t, "mat"
1, 8545, Note_on_c, 3, 64, 111
1, 8545, Note_on_c, 9, 36, 109
1, 8545, Note_on_c, 1, 43, 89
1, 8545, Note_off_c, 0, 45, 64
1, 8545, Note_on_c, 0, 36, 104
1, 8545, Note_on_c, 0, 43, 104
1, 8545, Note_off_c, 7, 62, 64
1, 8545, Note_on_c, 7, 60, 83
1, 8545, Note_on_c, 7, 55, 74
1, 8545, Note_on_c, 9, 69, 22
1, 8546, Note_off_c, 9, 36, 64
1, 8546, Note_off_c, 7, 57, 64
1, 8546, Note_off_c, 9, 69, 64
1, 8549, Note_off_c, 1, 45, 64
1, 8562, Note_off_c, 3, 64, 64
1, 8568, Lyric_t, "ter "
1, 8568, Note_on_c, 3, 66, 102
1, 8569, Note_on_c, 9, 69, 25
1, 8570, Note_off_c, 9, 69, 64
1, 8583, Note_off_c, 3, 66, 64
1, 8591, Lyric_t, "of "
1, 8591, Note_on_c, 3, 67, 102
1, 8591, Note_on_c, 9, 42, 70
1, 8591, Note_on_c, 9, 69, 67
1, 8592, Note_off_c, 9, 42, 64
1, 8592, Note_off_c, 9, 69, 64
1, 8611, Note_off_c, 3, 67, 64
1, 8615, Note_on_c, 9, 69, 38
1, 8616, Lyric_t, "time. "
1, 8616, Lyric_t, "\015"
1, 8616, Note_on_c, 3, 66, 107
1, 8616, Note_off_c, 9, 69, 64
1, 8622, Note_off_c, 2, 60, 64
1, 8622, Note_off_c, 2, 67, 64
1, 8622, Note_off_c, 2, 64, 64
1, 8632, Note_on_c, 11, 62, 61
1, 8636, Note_off_c, 0, 36, 64
1, 8637, Note_off_c, 0, 43, 64
1, 8638, Note_on_c, 2, 69, 97
1, 8638, Note_off_c, 7, 60, 64
1, 8639, Note_on_c, 9, 36, 109
1, 8639, Note_on_c, 9, 42, 78
1, 8639, Note_on_c, 1, 38, 105
1, 8640, Note_off_c, 9, 42, 64
1, 8640, Note_off_c, 9, 36, 64
1, 8640, Note_on_c, 9, 49, 68
1, 8640, Note_on_c, 1, 45, 98
1, 8640, Note_on_c, 0, 38, 109
1, 8640, Note_on_c, 0, 45, 120
1, 8640, Note_on_c, 2, 66, 93
1, 8640, Note_on_c, 2, 64, 93
1, 8640, Note_on_c, 2, 62, 97
1, 8640, Note_on_c, 7, 62, 80
1, 8641, Note_off_c, 9, 49, 64
1, 8641, Note_on_c, 7, 57, 87
1, 8641, Note_on_c, 9, 69, 12
1, 8642, Note_off_c, 1, 43, 64
1, 8642, Note_off_c, 1, 36, 64
1, 8642, Note_off_c, 7, 55, 64
1, 8642, Note_off_c, 9, 69, 64
1, 8665, Note_on_c, 9, 69, 24
1, 8666, Note_off_c, 9, 69, 64
1, 8689, Note_on_c, 9, 42, 63
1, 8689, Note_on_c, 9, 69, 62
1, 8690, Note_off_c, 9, 42, 64
1, 8690, Note_off_c, 9, 69, 64
1, 8697, Lyric_t, "\012"
1, 8713, Note_on_c, 9, 69, 38
1, 8714, Note_off_c, 9, 69, 64
1, 8735, Note_on_c, 9, 42, 78
1, 8735, Note_on_c, 9, 69, 19
1, 8736, Note_off_c, 9, 42, 64
1, 8736, Note_on_c, 9, 47, 98
1, 8736, Note_off_c, 9, 69, 64
1, 8737, Note_off_c, 9, 47, 64
1, 8759, Note_on_c, 9, 69, 30
1, 8760, Note_off_c, 9, 69, 64
1, 8761, Note_on_c, 9, 40, 91
1, 8762, Note_off_c, 9, 40, 64
1, 8783, Note_on_c, 9, 69, 62
1, 8784, Note_off_c, 9, 69, 64
1, 8785, Note_on_c, 9, 42, 41
1, 8786, Note_off_c, 9, 42, 64
1, 8801, Note_off_c, 2, 69, 64
1, 8802, Note_off_c, 3, 66, 64
1, 8802, Note_off_c, 2, 66, 64
1, 8802, Note_off_c, 2, 64, 64
1, 8806, Note_on_c, 9, 69, 33
1, 8807, Note_off_c, 9, 69, 64
1, 8808, Note_on_c, 9, 47, 98
1, 8808, Note_on_c, 2, 78, 82
1, 8808, Note_on_c, 2, 76, 84
1, 8808, Note_on_c, 2, 81, 90
1, 8809, Note_off_c, 9, 47, 64
1, 8831, Note_on_c, 9, 69, 34
1, 8832, Note_off_c, 9, 69, 64
1, 8833, Note_on_c, 9, 42, 94
1, 8834, Note_off_c, 9, 42, 64
1, 8849, Note_off_c, 7, 57, 64
1, 8851, Note_off_c, 7, 62, 64
1, 8855, Note_on_c, 9, 43, 74
1, 8856, Note_off_c, 9, 43, 64
1, 8856, Note_on_c, 9, 69, 33
1, 8857, Lyric_t, "And "
1, 8857, Note_on_c, 3, 71, 105
1, 8857, Note_off_c, 9, 69, 64
1, 8874, Note_off_c, 3, 71, 64
1, 8879, Note_on_c, 9, 43, 85
1, 8880, Note_off_c, 9, 43, 64
1, 8880, Note_on_c, 9, 69, 60
1, 8881, Note_on_c, 9, 42, 57
1, 8881, Note_off_c, 9, 69, 64
1, 8882, Lyric_t, "we "
1, 8882, Note_on_c, 3, 71, 98
1, 8882, Note_off_c, 9, 42, 64
1, 8895, Note_off_c, 3, 71, 64
1, 8903, Note_on_c, 9, 47, 85
1, 8903, Note_on_c, 9, 64, 84
1, 8904, Note_off_c, 9, 47, 64
1, 8904, Note_off_c, 9, 64, 64
1, 8904, Note_on_c, 9, 69, 45
1, 8905, Note_off_c, 9, 69, 64
1, 8906, Note_off_c, 2, 62, 64
1, 8907, Lyric_t, "got "
1, 8907, Note_on_c, 3, 71, 92
1, 8922, Note_off_c, 3, 71, 64
1, 8927, Note_on_c, 9, 64, 84
1, 8928, Note_off_c, 9, 64, 64
1, 8929, Note_on_c, 9, 45, 85
1, 8929, Note_on_c, 9, 42, 94
1, 8929, Note_on_c, 9, 69, 42
1, 8930, Note_off_c, 9, 42, 64
1, 8930, Note_off_c, 9, 45, 64
1, 8930, Note_off_c, 9, 69, 64
1, 8931, Lyric_t, "noth"
1, 8931, Note_on_c, 3, 71, 102
1, 8945, Note_off_c, 3, 71, 64
1, 8953, Note_on_c, 9, 45, 82
1, 8953, Note_on_c, 9, 69, 30
1, 8954, Lyric_t, "ing "
1, 8954, Note_on_c, 3, 71, 95
1, 8954, Note_off_c, 9, 45, 64
1, 8954, Note_off_c, 9, 69, 64
1, 8970, Note_off_c, 1, 45, 64
1, 8971, Note_off_c, 3, 71, 64
1, 8973, Note_off_c, 2, 76, 64
1, 8976, Note_on_c, 9, 69, 60
1, 8977, Note_on_c, 9, 43, 95
1, 8977, Note_on_c, 9, 42, 85
1, 8977, Note_off_c, 9, 69, 64
1, 8978, Note_off_c, 9, 42, 64
1, 8978, Note_off_c, 9, 43, 64
1, 8979, Lyric_t, "to "
1, 8979, Note_on_c, 3, 71, 92
1, 8979, Note_off_c, 0, 45, 64
1, 8979, Note_off_c, 0, 38, 64
1, 8992, Note_off_c, 3, 71, 64
1, 8993, Note_off_c, 2, 81, 64
1, 8994, Note_off_c, 2, 78, 64
1, 8998, Note_on_c, 2, 68, 84
1, 8999, Note_on_c, 2, 63, 84
1, 8999, Note_on_c, 2, 66, 84
1, 8999, Note_on_c, 2, 71, 100
1, 9000, Note_on_c, 9, 69, 30
1, 9001, Note_on_c, 9, 43, 91
1, 9001, Note_off_c, 9, 69, 64
1, 9002, Note_off_c, 9, 43, 64
1, 9003, Lyric_t, "be "
1, 9003, Note_on_c, 3, 71, 89
1, 9015, Note_off_c, 3, 71, 64
1, 9019, Note_off_c, 1, 38, 64
1, 9022, Note_off_c, 2, 71, 64
1, 9022, Note_off_c, 2, 63, 64
1, 9022, Note_on_c, 7, 55, 80
1, 9023, Note_on_c, 2, 71, 100
1, 9024, Note_on_c, 9, 36, 114
1, 9024, Note_on_c, 9, 57, 78
1, 9024, Note_on_c, 2, 67, 100
1, 9024, Note_on_c, 2, 64, 100
1, 9024, Note_on_c, 2, 62, 100
1, 9024, Note_on_c, 11, 55, 62
1, 9024, Note_on_c, 11, 59, 62
1, 9024, Note_on_c, 11, 64, 62
1, 9024, Note_on_c, 9, 69, 20
1, 9025, Note_off_c, 9, 57, 64
1, 9025, Note_off_c, 9, 36, 64
1, 9025, Note_on_c, 1, 36, 105
1, 9025, Note_off_c, 2, 68, 64
1, 9025, Note_off_c, 9, 69, 64
1, 9026, Lyric_t, "guil"
1, 9026, Note_on_c, 3, 71, 102
1, 9026, Note_off_c, 2, 66, 64
1, 9034, Note_off_c, 2, 67, 64
1, 9036, Note_off_c, 7, 55, 64
1, 9038, Note_off_c, 2, 64, 64
1, 9038, Note_off_c, 2, 62, 64
1, 9039, Note_off_c, 2, 71, 64
1, 9047, Note_on_c, 7, 55, 60
1, 9047, Note_on_c, 9, 69, 36
1, 9048, Note_on_c, 2, 64, 78
1, 9048, Note_on_c, 2, 67, 84
1, 9048, Note_on_c, 2, 62, 84
1, 9048, Note_on_c, 2, 71, 90
1, 9048, Note_off_c, 9, 69, 64
1, 9050, Note_off_c, 3, 71, 64
1, 9064, Note_off_c, 7, 55, 64
1, 9068, Note_off_c, 2, 71, 64
1, 9070, Note_off_c, 2, 62, 64
1, 9070, Note_off_c, 2, 67, 64
1, 9071, Note_on_c, 9, 44, 64
1, 9071, Note_on_c, 7, 57, 83
1, 9071, Note_on_c, 9, 69, 58
1, 9072, Note_off_c, 9, 44, 64
1, 9072, Note_on_c, 2, 60, 78
1, 9072, Note_on_c, 2, 69, 78
1, 9072, Note_off_c, 9, 69, 64
1, 9076, Note_off_c, 1, 36, 64
1, 9086, Note_off_c, 2, 64, 64
1, 9092, Note_off_c, 2, 69, 64
1, 9093, Note_off_c, 7, 57, 64
1, 9094, Note_off_c, 2, 60, 64
1, 9095, Note_on_c, 7, 59, 80
1, 9095, Note_on_c, 9, 69, 36
1, 9096, Note_on_c, 2, 71, 90
1, 9096, Note_on_c, 2, 67, 84
1, 9096, Note_on_c, 2, 64, 64
1, 9096, Note_on_c, 2, 62, 78
1, 9096, Note_off_c, 9, 69, 64
1, 9097, Note_on_c, 9, 42, 64
1, 9097, Note_on_c, 8, 64, 60
1, 9098, Note_off_c, 9, 42, 64
1, 9098, Note_on_c, 8, 55, 60
1, 9098, Note_on_c, 8, 59, 58
1, 9100, Lyric_t, "ty "
1, 9100, Note_on_c, 3, 69, 102
1, 9104, Note_off_c, 8, 59, 64
1, 9107, Note_off_c, 8, 55, 64
1, 9108, Note_off_c, 8, 64, 64
1, 9110, Note_off_c, 2, 62, 64
1, 9110, Note_off_c, 2, 64, 64
1, 9113, Note_off_c, 2, 71, 64
1, 9113, Note_off_c, 7, 59, 64
1, 9116, Note_off_c, 2, 67, 64
1, 9120, Note_on_c, 9, 40, 124
1, 9121, Note_off_c, 9, 40, 64
1, 9121, Note_on_c, 9, 69, 22
1, 9122, Note_on_c, 8, 55, 60
1, 9122, Note_on_c, 8, 59, 78
1, 9122, Note_on_c, 8, 64, 54
1, 9122, Note_off_c, 9, 69, 64
1, 9123, Note_off_c, 3, 69, 64
1, 9134, Note_off_c, 8, 64, 64
1, 9135, Note_off_c, 8, 59, 64
1, 9135, Note_off_c, 8, 55, 64
1, 9143, Note_on_c, 9, 44, 63
1, 9144, Note_off_c, 9, 44, 64
1, 9144, Note_on_c, 2, 67, 87
1, 9144, Note_on_c, 2, 64, 82
1, 9144, Note_on_c, 2, 71, 90
1, 9144, Note_on_c, 2, 62, 97
1, 9145, Note_on_c, 7, 55, 59
1, 9145, Note_on_c, 9, 69, 25
1, 9146, Note_off_c, 9, 69, 64
1, 9158, Note_off_c, 7, 55, 64
1, 9160, Note_off_c, 2, 62, 64
1, 9164, Note_off_c, 2, 71, 64
1, 9164, Note_off_c, 2, 64, 64
1, 9165, Note_off_c, 2, 67, 64
1, 9166, Lyric_t, "of, "
1, 9166, Lyric_t, "\015"
1, 9166, Note_on_c, 3, 71, 105
1, 9166, Note_on_c, 2, 60, 78
1, 9167, Note_on_c, 9, 42, 70
1, 9167, Note_on_c, 9, 69, 67
1, 9168, Note_off_c, 9, 42, 64
1, 9168, Note_on_c, 2, 69, 78
1, 9168, Note_off_c, 9, 69, 64
1, 9184, Note_off_c, 2, 69, 64
1, 9186, Note_off_c, 2, 60, 64
1, 9191, Note_on_c, 9, 36, 104
1, 9191, Note_on_c, 1, 36, 102
1, 9191, Note_on_c, 9, 69, 38
1, 9192, Note_off_c, 9, 36, 64
1, 9192, Note_on_c, 2, 71, 90
1, 9192, Note_on_c, 2, 67, 87
1, 9192, Note_on_c, 2, 64, 66
1, 9192, Note_on_c, 2, 62, 90
1, 9192, Note_on_c, 7, 64, 83
1, 9192, Note_off_c, 9, 69, 64
1, 9195, Note_off_c, 3, 71, 64
1, 9202, Note_off_c, 2, 64, 64
1, 9206, Note_off_c, 2, 62, 64
1, 9208, Note_off_c, 2, 67, 64
1, 9208, Note_off_c, 2, 71, 64
1, 9208, Note_off_c, 7, 64, 64
1, 9215, Note_on_c, 9, 42, 78
1, 9216, Note_off_c, 9, 42, 64
1, 9217, Note_on_c, 9, 69, 12
1, 9218, Note_off_c, 9, 69, 64
1, 9222, Note_off_c, 1, 36, 64
1, 9238, Note_on_c, 2, 67, 93
1, 9238, Note_on_c, 2, 64, 82
1, 9238, Note_on_c, 2, 71, 100
1, 9238, Note_on_c, 2, 62, 84
1, 9240, Note_on_c, 1, 36, 98
1, 9241, Note_on_c, 7, 55, 70
1, 9241, Note_on_c, 9, 69, 24
1, 9242, Note_off_c, 9, 69, 64
1, 9253, Note_off_c, 2, 67, 64
1, 9254, Note_off_c, 1, 36, 64
1, 9254, Note_off_c, 2, 62, 64
1, 9255, Note_off_c, 7, 55, 64
1, 9258, Note_off_c, 2, 71, 64
1, 9258, Note_off_c, 2, 64, 64
1, 9262, Note_on_c, 2, 60, 70
1, 9263, Note_on_c, 9, 36, 98
1, 9263, Note_on_c, 9, 42, 68
1, 9263, Note_on_c, 1, 36, 89
1, 9264, Note_off_c, 9, 42, 64
1, 9264, Note_off_c, 9, 36, 64
1, 9264, Note_on_c, 2, 69, 73
1, 9265, Note_on_c, 9, 69, 62
1, 9266, Note_off_c, 9, 69, 64
1, 9280, Note_off_c, 2, 69, 64
1, 9282, Note_off_c, 2, 60, 64
1, 9287, Note_on_c, 8, 59, 75
1, 9287, Note_on_c, 8, 64, 71
1, 9287, Note_on_c, 8, 55, 68
1, 9288, Note_on_c, 7, 55, 65
1, 9289, Note_on_c, 9, 69, 38
1, 9290, Note_off_c, 9, 69, 64
1, 9294, Note_off_c, 8, 64, 64
1, 9295, Note_off_c, 8, 59, 64
1, 9297, Note_off_c, 1, 36, 64
1, 9298, Note_off_c, 8, 55, 64
1, 9300, Note_off_c, 7, 55, 64
1, 9310, Lyric_t, "our "
1, 9310, Note_on_c, 3, 69, 102
1, 9310, Note_on_c, 2, 67, 97
1, 9310, Note_on_c, 2, 71, 106
1, 9311, Note_on_c, 9, 40, 124
1, 9311, Note_on_c, 9, 42, 72
1, 9311, Note_on_c, 9, 69, 19
1, 9312, Note_off_c, 9, 42, 64
1, 9312, Note_off_c, 9, 40, 64
1, 9312, Note_on_c, 2, 62, 90
1, 9312, Note_on_c, 2, 64, 84
1, 9312, Note_on_c, 8, 59, 84
1, 9312, Note_on_c, 8, 64, 71
1, 9312, Note_on_c, 8, 55, 75
1, 9312, Note_off_c, 9, 69, 64
1, 9313, Note_on_c, 7, 59, 74
1, 9321, Note_off_c, 8, 55, 64
1, 9322, Note_off_c, 8, 64, 64
1, 9322, Note_off_c, 8, 59, 64
1, 9325, Note_off_c, 7, 59, 64
1, 9335, Note_on_c, 9, 44, 63
1, 9335, Note_on_c, 9, 69, 30
1, 9336, Note_off_c, 9, 44, 64
1, 9336, Note_on_c, 1, 36, 95
1, 9336, Note_on_c, 7, 59, 65
1, 9336, Note_off_c, 9, 69, 64
1, 9353, Note_off_c, 2, 62, 64
1, 9355, Note_off_c, 7, 59, 64
1, 9357, Note_off_c, 3, 69, 64
1, 9358, Note_off_c, 2, 67, 64
1, 9359, Note_on_c, 9, 46, 78
1, 9359, Note_on_c, 1, 31, 81
1, 9359, Note_off_c, 2, 71, 64
1, 9359, Note_on_c, 9, 69, 62
1, 9360, Lyric_t, "love "
1, 9360, Note_on_c, 3, 71, 111
1, 9360, Note_off_c, 9, 46, 64
1, 9360, Note_off_c, 1, 36, 64
1, 9360, Note_on_c, 2, 69, 87
1, 9360, Note_on_c, 2, 60, 70
1, 9360, Note_off_c, 9, 69, 64
1, 9361, Note_on_c, 7, 55, 68
1, 9361, Note_on_c, 8, 59, 89
1, 9361, Note_on_c, 8, 64, 78
1, 9361, Note_on_c, 8, 55, 78
1, 9366, Note_off_c, 8, 64, 64
1, 9367, Note_off_c, 8, 55, 64
1, 9368, Note_off_c, 8, 59, 64
1, 9376, Note_off_c, 2, 64, 64
1, 9381, Note_off_c, 1, 31, 64
1, 9382, Note_off_c, 2, 60, 64
1, 9382, Note_on_c, 9, 69, 33
1, 9383, Note_on_c, 1, 33, 85
1, 9383, Note_off_c, 7, 55, 64
1, 9383, Note_off_c, 9, 69, 64
1, 9392, Note_off_c, 2, 69, 64
1, 9406, Note_on_c, 2, 67, 100
1, 9406, Note_on_c, 2, 71, 100
1, 9407, Note_on_c, 1, 36, 92
1, 9407, Note_on_c, 9, 69, 34
1, 9408, Time_signature, 3, 2, 24, 8
1, 9408, Note_on_c, 2, 64, 84
1, 9408, Note_on_c, 2, 62, 93
1, 9408, Note_off_c, 9, 69, 64
1, 9409, Note_on_c, 9, 36, 114
1, 9409, Note_on_c, 9, 42, 85
1, 9409, Note_off_c, 1, 33, 64
1, 9409, Note_on_c, 7, 55, 77
1, 9410, Note_off_c, 9, 42, 64
1, 9410, Note_off_c, 9, 36, 64
1, 9417, Note_off_c, 2, 64, 64
1, 9418, Note_off_c, 2, 62, 64
1, 9418, Note_off_c, 2, 67, 64
1, 9419, Note_off_c, 2, 71, 64
1, 9421, Note_off_c, 3, 71, 64
1, 9422, Note_off_c, 7, 55, 64
1, 9430, Note_on_c, 2, 64, 76
1, 9430, Note_on_c, 2, 62, 82
1, 9431, Note_on_c, 7, 55, 68
1, 9432, Note_on_c, 2, 71, 80
1, 9432, Note_on_c, 2, 67, 84
1, 9432, Note_on_c, 9, 69, 33
1, 9433, Note_off_c, 9, 69, 64
1, 9449, Note_off_c, 7, 55, 64
1, 9450, Note_off_c, 1, 36, 64
1, 9450, Note_off_c, 2, 67, 64
1, 9450, Note_off_c, 2, 71, 64
1, 9450, Note_off_c, 2, 62, 64
1, 9451, Note_off_c, 2, 64, 64
1, 9455, Note_on_c, 9, 44, 68
1, 9455, Note_on_c, 7, 57, 65
1, 9456, Note_off_c, 9, 44, 64
1, 9456, Note_on_c, 2, 69, 84
1, 9456, Note_on_c, 2, 60, 75
1, 9456, Note_on_c, 9, 69, 60
1, 9457, Note_off_c, 9, 69, 64
1, 9476, Note_off_c, 2, 60, 64
1, 9476, Note_off_c, 2, 69, 64
1, 9476, Note_off_c, 7, 57, 64
1, 9477, Lyric_t, "will "
1, 9477, Note_on_c, 3, 69, 111
1, 9480, Note_on_c, 2, 64, 82
1, 9480, Note_on_c, 2, 71, 90
1, 9480, Note_on_c, 2, 67, 97
1, 9480, Note_on_c, 2, 62, 93
1, 9480, Note_on_c, 7, 59, 80
1, 9480, Note_on_c, 9, 69, 45
1, 9481, Note_on_c, 9, 42, 72
1, 9481, Note_off_c, 9, 69, 64
1, 9482, Note_off_c, 9, 42, 64
1, 9482, Note_on_c, 8, 55, 71
1, 9482, Note_on_c, 8, 59, 75
1, 9482, Note_on_c, 8, 64, 58
1, 9488, Note_off_c, 8, 64, 64
1, 9488, Note_off_c, 8, 59, 64
1, 9490, Note_off_c, 3, 69, 64
1, 9492, Note_off_c, 8, 55, 64
1, 9493, Note_off_c, 2, 64, 64
1, 9494, Note_off_c, 2, 62, 64
1, 9496, Note_off_c, 7, 59, 64
1, 9498, Note_off_c, 2, 67, 64
1, 9498, Note_off_c, 2, 71, 64
1, 9502, Lyric_t, "climb "
1, 9502, Note_on_c, 3, 69, 98
1, 9503, Note_on_c, 9, 40, 124
1, 9504, Note_off_c, 9, 40, 64
1, 9505, Note_on_c, 9, 69, 42
1, 9506, Note_on_c, 8, 59, 78
1, 9506, Note_on_c, 8, 55, 56
1, 9506, Note_on_c, 8, 64, 48
1, 9506, Note_off_c, 9, 69, 64
1, 9513, Note_off_c, 8, 64, 64
1, 9517, Note_off_c, 8, 59, 64
1, 9519, Note_off_c, 8, 55, 64
1, 9524, Note_off_c, 3, 69, 64
1, 9527, Lyric_t, "an"
1, 9527, Note_on_c, 3, 71, 102
1, 9527, Note_on_c, 9, 44, 68
1, 9528, Note_off_c, 9, 44, 64
1, 9528, Note_on_c, 2, 67, 93
1, 9528, Note_on_c, 2, 71, 93
1, 9528, Note_on_c, 2, 62, 84
1, 9528, Note_on_c, 2, 64, 76
1, 9529, Note_on_c, 7, 55, 70
1, 9529, Note_on_c, 9, 69, 30
1, 9530, Note_off_c, 9, 69, 64
1, 9543, Note_off_c, 7, 55, 64
1, 9544, Note_off_c, 2, 64, 64
1, 9546, Note_off_c, 3, 71, 64
1, 9546, Note_off_c, 2, 67, 64
1, 9548, Note_off_c, 2, 62, 64
1, 9549, Note_off_c, 2, 71, 64
1, 9551, Lyric_t, "y "
1, 9551, Note_on_c, 3, 72, 98
1, 9551, Note_on_c, 9, 42, 64
1, 9552, Note_off_c, 9, 42, 64
1, 9552, Note_on_c, 2, 69, 87
1, 9552, Note_on_c, 2, 60, 80
1, 9552, Note_on_c, 9, 69, 60
1, 9553, Note_off_c, 9, 69, 64
1, 9570, Note_off_c, 3, 72, 64
1, 9572, Note_off_c, 2, 60, 64
1, 9572, Note_off_c, 2, 69, 64
1, 9575, Note_on_c, 9, 36, 114
1, 9576, Lyric_t, "moun"
1, 9576, Note_on_c, 3, 71, 111
1, 9576, Note_off_c, 9, 36, 64
1, 9576, Note_on_c, 2, 64, 78
1, 9576, Note_on_c, 2, 67, 93
1, 9576, Note_on_c, 2, 71, 97
1, 9576, Note_on_c, 2, 62, 93
1, 9576, Note_on_c, 7, 64, 72
1, 9576, Note_on_c, 9, 69, 30
1, 9577, Note_on_c, 1, 36, 95
1, 9577, Note_off_c, 9, 69, 64
1, 9590, Note_off_c, 2, 64, 64
1, 9591, Note_off_c, 7, 64, 64
1, 9592, Note_off_c, 2, 62, 64
1, 9594, Note_off_c, 2, 67, 64
1, 9596, Note_off_c, 2, 71, 64
1, 9601, Note_on_c, 9, 42, 85
1, 9601, Note_on_c, 9, 69, 40
1, 9602, Note_off_c, 9, 42, 64
1, 9602, Note_off_c, 9, 69, 64
1, 9605, Note_off_c, 1, 36, 64
1, 9622, Note_on_c, 2, 62, 90
1, 9622, Note_on_c, 2, 64, 80
1, 9623, Note_on_c, 9, 69, 31
1, 9624, Note_on_c, 2, 67, 90
1, 9624, Note_on_c, 2, 71, 100
1, 9624, Note_off_c, 9, 69, 64
1, 9625, Note_on_c, 7, 55, 74
1, 9643, Note_off_c, 7, 55, 64
1, 9646, Note_off_c, 3, 71, 64
1, 9646, Note_off_c, 2, 71, 64
1, 9646, Note_off_c, 2, 67, 64
1, 9646, Note_on_c, 2, 60, 78
1, 9647, Note_on_c, 9, 42, 81
1, 9647, Note_on_c, 1, 36, 105
1, 9647, Note_off_c, 2, 62, 64
1, 9648, Note_off_c, 9, 42, 64
1, 9648, Note_on_c, 2, 69, 90
1, 9648, Note_on_c, 9, 69, 59
1, 9649, Note_on_c, 9, 40, 120
1, 9649, Note_off_c, 9, 69, 64
1, 9650, Lyric_t, "tain, "
1, 9650, Note_on_c, 3, 69, 102
1, 9650, Note_off_c, 9, 40, 64
1, 9658, Note_off_c, 2, 64, 64
1, 9669, Note_off_c, 3, 69, 64
1, 9672, Note_off_c, 2, 60, 64
1, 9672, Note_on_c, 7, 55, 62
1, 9673, Note_on_c, 9, 40, 109
1, 9673, Note_on_c, 9, 69, 40
1, 9674, Note_off_c, 9, 40, 64
1, 9674, Note_off_c, 2, 69, 64
1, 9674, Note_off_c, 9, 69, 64
1, 9683, Note_off_c, 7, 55, 64
1, 9696, Time_signature, 4, 2, 24, 8
1, 9696, Note_on_c, 2, 69, 111
1, 9696, Note_on_c, 2, 72, 97
1, 9696, Note_on_c, 2, 64, 87
1, 9696, Note_on_c, 2, 65, 84
1, 9696, Note_off_c, 11, 64, 64
1, 9696, Note_off_c, 11, 59, 64
1, 9696, Note_off_c, 11, 55, 64
1, 9696, Note_on_c, 11, 65, 58
1, 9696, Note_on_c, 11, 60, 58
1, 9696, Note_on_c, 11, 57, 58
1, 9696, Note_on_c, 9, 69, 30
1, 9697, Note_on_c, 9, 36, 114
1, 9697, Note_on_c, 9, 57, 81
1, 9697, Note_off_c, 1, 36, 64
1, 9697, Note_on_c, 1, 31, 98
1, 9697, Note_on_c, 7, 57, 87
1, 9697, Note_off_c, 9, 69, 64
1, 9698, Lyric_t, "near "
1, 9698, Note_on_c, 3, 69, 111
1, 9698, Note_off_c, 9, 57, 64
1, 9698, Note_off_c, 9, 36, 64
1, 9706, Note_off_c, 2, 64, 64
1, 9709, Note_off_c, 2, 69, 64
1, 9709, Note_off_c, 7, 57, 64
1, 9710, Note_off_c, 2, 72, 64
1, 9719, Note_on_c, 9, 69, 30
1, 9720, Note_on_c, 2, 69, 84
1, 9720, Note_on_c, 2, 72, 60
1, 9720, Note_on_c, 2, 64, 75
1, 9720, Note_off_c, 9, 69, 64
1, 9721, Note_on_c, 7, 57, 70
1, 9736, Note_off_c, 2, 65, 64
1, 9738, Note_off_c, 2, 64, 64
1, 9738, Note_off_c, 7, 57, 64
1, 9742, Note_off_c, 1, 31, 64
1, 9742, Note_off_c, 2, 72, 64
1, 9742, Note_off_c, 2, 69, 64
1, 9743, Note_on_c, 9, 69, 63
1, 9744, Note_on_c, 2, 62, 72
1, 9744, Note_on_c, 2, 71, 80
1, 9744, Note_on_c, 2, 67, 68
1, 9744, Note_off_c, 9, 69, 64
1, 9745, Note_on_c, 9, 44, 68
1, 9745, Note_on_c, 7, 59, 70
1, 9746, Note_off_c, 9, 44, 64
1, 9758, Note_off_c, 2, 67, 64
1, 9761, Note_off_c, 2, 71, 64
1, 9764, Note_off_c, 7, 59, 64
1, 9766, Note_off_c, 3, 69, 64
1, 9766, Note_off_c, 2, 62, 64
1, 9768, Note_on_c, 2, 69, 93
1, 9768, Note_on_c, 2, 65, 73
1, 9768, Note_on_c, 2, 72, 97
1, 9768, Note_on_c, 2, 64, 87
1, 9768, Note_on_c, 7, 60, 74
1, 9768, Note_on_c, 9, 69, 38
1, 9769, Note_on_c, 9, 42, 72
1, 9769, Note_on_c, 8, 65, 65
1, 9769, Note_on_c, 8, 60, 65
1, 9769, Note_on_c, 8, 57, 71
1, 9769, Note_off_c, 9, 69, 64
1, 9770, Lyric_t, "or "
1, 9770, Note_on_c, 3, 67, 105
1, 9770, Note_off_c, 9, 42, 64
1, 9778, Note_off_c, 8, 57, 64
1, 9778, Note_off_c, 8, 60, 64
1, 9778, Note_off_c, 8, 65, 64
1, 9781, Note_off_c, 2, 65, 64
1, 9782, Note_off_c, 2, 64, 64
1, 9786, Note_off_c, 2, 69, 64
1, 9786, Note_off_c, 7, 60, 64
1, 9788, Note_off_c, 2, 72, 64
1, 9792, Note_on_c, 9, 69, 22
1, 9793, Note_on_c, 9, 40, 120
1, 9793, Note_off_c, 9, 69, 64
1, 9794, Note_off_c, 9, 40, 64
1, 9794, Note_on_c, 8, 60, 68
1, 9794, Note_on_c, 8, 57, 75
1, 9794, Note_on_c, 8, 65, 71
1, 9806, Note_off_c, 8, 65, 64
1, 9806, Note_off_c, 8, 57, 64
1, 9809, Note_off_c, 8, 60, 64
1, 9816, Note_on_c, 2, 69, 93
1, 9816, Note_on_c, 2, 72, 97
1, 9816, Note_on_c, 2, 64, 84
1, 9816, Note_on_c, 2, 65, 72
1, 9817, Note_on_c, 9, 44, 78
1, 9817, Note_on_c, 7, 57, 70
1, 9817, Note_on_c, 9, 69, 34
1, 9818, Note_off_c, 9, 44, 64
1, 9818, Note_off_c, 9, 69, 64
1, 9825, Note_off_c, 2, 65, 64
1, 9832, Note_off_c, 2, 64, 64
1, 9834, Note_off_c, 3, 67, 64
1, 9837, Note_off_c, 2, 69, 64
1, 9838, Note_off_c, 2, 72, 64
1, 9838, Note_on_c, 2, 62, 78
1, 9840, Note_on_c, 9, 42, 63
1, 9840, Note_on_c, 2, 71, 75
1, 9841, Note_off_c, 9, 42, 64
1, 9841, Note_on_c, 9, 69, 53
1, 9842, Lyric_t, "far. "
1, 9842, Lyric_t, "\015"
1, 9842, Note_on_c, 3, 69, 116
1, 9842, Note_off_c, 9, 69, 64
1, 9843, Note_off_c, 7, 57, 64
1, 9854, Note_off_c, 2, 71, 64
1, 9860, Note_off_c, 2, 62, 64
1, 9863, Note_on_c, 1, 31, 102
1, 9864, Note_on_c, 2, 72, 90
1, 9864, Note_on_c, 2, 69, 90
1, 9864, Note_on_c, 2, 65, 69
1, 9864, Note_on_c, 2, 64, 76
1, 9864, Note_on_c, 7, 65, 77
1, 9865, Note_on_c, 9, 36, 120
1, 9865, Note_on_c, 9, 69, 36
1, 9866, Note_off_c, 9, 36, 64
1, 9866, Note_off_c, 9, 69, 64
1, 9876, Note_off_c, 2, 64, 64
1, 9881, Note_off_c, 2, 65, 64
1, 9885, Note_off_c, 2, 72, 64
1, 9886, Note_off_c, 2, 69, 64
1, 9886, Note_off_c, 7, 65, 64
1, 9889, Note_on_c, 9, 42, 85
1, 9889, Note_off_c, 1, 31, 64
1, 9889, Note_on_c, 9, 69, 31
1, 9890, Lyric_t, "\012"
1, 9890, Note_off_c, 9, 42, 64
1, 9890, Note_off_c, 9, 69, 64
1, 9908, Note_off_c, 3, 69, 64
1, 9912, Note_on_c, 1, 31, 89
1, 9912, Note_on_c, 2, 72, 97
1, 9912, Note_on_c, 2, 69, 97
1, 9912, Note_on_c, 2, 64, 90
1, 9912, Note_on_c, 2, 65, 84
1, 9913, Note_on_c, 7, 57, 83
1, 9913, Note_on_c, 9, 69, 23
1, 9914, Note_off_c, 9, 69, 64
1, 9925, Note_off_c, 1, 31, 64
1, 9925, Note_off_c, 2, 65, 64
1, 9928, Note_off_c, 2, 64, 64
1, 9929, Note_off_c, 2, 69, 64
1, 9930, Note_off_c, 7, 57, 64
1, 9934, Note_off_c, 2, 72, 64
1, 9934, Note_on_c, 2, 62, 78
1, 9935, Note_on_c, 9, 69, 51
1, 9936, Note_on_c, 2, 71, 80
1, 9936, Note_off_c, 9, 69, 64
1, 9937, Note_on_c, 9, 36, 109
1, 9937, Note_on_c, 9, 42, 72
1, 9937, Note_on_c, 1, 31, 98
1, 9938, Note_off_c, 9, 42, 64
1, 9938, Note_off_c, 9, 36, 64
1, 9953, Note_off_c, 2, 71, 64
1, 9958, Note_off_c, 2, 62, 64
1, 9960, Note_on_c, 7, 57, 77
1, 9960, Note_on_c, 9, 69, 34
1, 9961, Note_on_c, 8, 60, 62
1, 9961, Note_off_c, 9, 69, 64
1, 9962, Note_on_c, 8, 65, 50
1, 9962, Note_on_c, 8, 57, 60
1, 9967, Note_off_c, 8, 65, 64
1, 9967, Note_off_c, 8, 60, 64
1, 9969, Note_off_c, 1, 31, 64
1, 9970, Note_off_c, 8, 57, 64
1, 9973, Note_off_c, 7, 57, 64
1, 9983, Note_on_c, 9, 42, 81
1, 9984, Lyric_t, "We "
1, 9984, Note_on_c, 3, 67, 111
1, 9984, Note_off_c, 9, 42, 64
1, 9984, Note_on_c, 2, 69, 106
1, 9984, Note_on_c, 2, 72, 106
1, 9984, Note_on_c, 2, 65, 100
1, 9984, Note_on_c, 2, 64, 100
1, 9985, Note_on_c, 9, 40, 124
1, 9985, Note_on_c, 7, 60, 74
1, 9985, Note_on_c, 8, 57, 56
1, 9985, Note_on_c, 8, 60, 53
1, 9985, Note_on_c, 8, 65, 56
1, 9986, Note_off_c, 9, 40, 64
1, 9994, Note_off_c, 8, 65, 64
1, 9994, Note_off_c, 8, 57, 64
1, 9996, Note_off_c, 8, 60, 64
1, 9998, Note_off_c, 7, 60, 64
1, 10007, Note_on_c, 9, 44, 72
1, 10007, Note_on_c, 9, 69, 22
1, 10008, Note_off_c, 9, 44, 64
1, 10008, Note_off_c, 9, 69, 64
1, 10009, Note_on_c, 7, 60, 52
1, 10018, Note_off_c, 3, 67, 64
1, 10027, Note_off_c, 7, 60, 64
1, 10029, Note_off_c, 2, 72, 64
1, 10030, Note_off_c, 2, 64, 64
1, 10031, Note_on_c, 9, 46, 78
1, 10031, Note_on_c, 1, 38, 95
1, 10031, Note_on_c, 9, 69, 51
1, 10032, Lyric_t, "are "
1, 10032, Note_on_c, 3, 69, 121
1, 10032, Note_off_c, 9, 46, 64
1, 10032, Note_off_c, 2, 69, 64
1, 10032, Note_on_c, 2, 62, 70
1, 10032, Note_on_c, 2, 71, 87
1, 10032, Note_off_c, 9, 69, 64
1, 10033, Note_on_c, 7, 57, 63
1, 10033, Note_on_c, 8, 57, 84
1, 10033, Note_on_c, 8, 60, 78
1, 10034, Note_on_c, 8, 65, 84
1, 10043, Note_off_c, 8, 60, 64
1, 10044, Note_off_c, 8, 57, 64
1, 10045, Note_off_c, 8, 65, 64
1, 10050, Note_off_c, 2, 65, 64
1, 10054, Note_off_c, 7, 57, 64
1, 10055, Note_on_c, 1, 43, 89
1, 10055, Note_on_c, 9, 69, 48
1, 10056, Note_off_c, 1, 38, 64
1, 10056, Note_off_c, 9, 69, 64
1, 10060, Note_off_c, 2, 62, 64
1, 10061, Note_off_c, 2, 71, 64
1, 10079, Note_on_c, 9, 36, 114
1, 10080, Note_off_c, 9, 36, 64
1, 10080, Note_on_c, 2, 69, 100
1, 10080, Note_on_c, 2, 72, 100
1, 10080, Note_on_c, 2, 65, 78
1, 10080, Note_on_c, 2, 64, 87
1, 10080, Note_on_c, 7, 57, 83
1, 10081, Note_on_c, 9, 42, 81
1, 10081, Note_on_c, 1, 31, 95
1, 10082, Note_off_c, 9, 42, 64
1, 10082, Note_off_c, 1, 43, 64
1, 10082, Note_on_c, 9, 69, 33
1, 10083, Note_off_c, 9, 69, 64
1, 10090, Note_off_c, 2, 64, 64
1, 10090, Note_off_c, 2, 69, 64
1, 10092, Note_off_c, 2, 72, 64
1, 10092, Note_off_c, 7, 57, 64
1, 10093, Note_off_c, 3, 69, 64
1, 10102, Note_on_c, 2, 69, 87
1, 10103, Note_on_c, 7, 57, 70
1, 10104, Note_on_c, 2, 72, 82
1, 10104, Note_on_c, 2, 64, 66
1, 10105, Note_on_c, 9, 69, 26
1, 10106, Note_off_c, 9, 69, 64
1, 10118, Note_off_c, 7, 57, 64
1, 10121, Note_off_c, 2, 65, 64
1, 10122, Note_off_c, 2, 69, 64
1, 10122, Note_off_c, 2, 72, 64
1, 10124, Note_off_c, 2, 64, 64
1, 10126, Note_on_c, 2, 71, 90
1, 10127, Note_on_c, 7, 59, 72
1, 10128, Note_on_c, 9, 44, 58
1, 10128, Note_on_c, 2, 62, 73
1, 10129, Note_off_c, 9, 44, 64
1, 10129, Note_on_c, 9, 69, 61
1, 10130, Note_off_c, 9, 69, 64
1, 10134, Note_off_c, 1, 31, 64
1, 10145, Note_off_c, 2, 71, 64
1, 10147, Note_off_c, 7, 59, 64
1, 10150, Note_off_c, 2, 62, 64
1, 10151, Note_on_c, 7, 60, 77
1, 10152, Note_on_c, 2, 72, 84
1, 10152, Note_on_c, 2, 69, 90
1, 10152, Note_on_c, 2, 65, 76
1, 10152, Note_on_c, 2, 64, 84
1, 10152, Note_on_c, 9, 69, 40
1, 10153, Note_on_c, 9, 42, 70
1, 10153, Note_on_c, 8, 57, 75
1, 10153, Note_on_c, 8, 60, 68
1, 10153, Note_on_c, 8, 65, 65
1, 10153, Note_off_c, 9, 69, 64
1, 10154, Note_off_c, 9, 42, 64
1, 10158, Note_off_c, 8, 65, 64
1, 10159, Note_off_c, 8, 60, 64
1, 10161, Note_off_c, 8, 57, 64
1, 10162, Note_off_c, 2, 65, 64
1, 10164, Note_off_c, 2, 64, 64
1, 10166, Note_off_c, 7, 60, 64
1, 10168, Note_off_c, 2, 69, 64
1, 10170, Note_off_c, 2, 72, 64
1, 10177, Note_on_c, 9, 40, 124
1, 10177, Note_on_c, 8, 65, 68
1, 10177, Note_on_c, 8, 60, 62
1, 10177, Note_on_c, 8, 57, 65
1, 10178, Note_off_c, 9, 40, 64
1, 10178, Note_on_c, 9, 69, 33
1, 10179, Note_off_c, 9, 69, 64
1, 10186, Note_off_c, 8, 65, 64
1, 10188, Note_off_c, 8, 60, 64
1, 10189, Note_off_c, 8, 57, 64
1, 10199, Lyric_t, "and "
1, 10199, Note_on_c, 3, 67, 105
1, 10200, Note_on_c, 9, 44, 72
1, 10200, Note_on_c, 2, 72, 93
1, 10200, Note_on_c, 2, 69, 93
1, 10200, Note_on_c, 2, 64, 87
1, 10200, Note_on_c, 2, 65, 80
1, 10201, Note_off_c, 9, 44, 64
1, 10201, Note_on_c, 7, 57, 70
1, 10201, Note_on_c, 9, 69, 30
1, 10202, Note_off_c, 9, 69, 64
1, 10212, Note_off_c, 2, 65, 64
1, 10218, Note_off_c, 3, 67, 64
1, 10218, Note_off_c, 2, 64, 64
1, 10221, Note_off_c, 2, 69, 64
1, 10224, Lyric_t, "we "
1, 10224, Note_on_c, 3, 69, 111
1, 10224, Note_off_c, 2, 72, 64
1, 10224, Note_on_c, 2, 71, 93
1, 10224, Note_on_c, 2, 62, 84
1, 10225, Note_on_c, 9, 42, 81
1, 10226, Note_off_c, 9, 42, 64
1, 10226, Note_off_c, 7, 57, 64
1, 10226, Note_on_c, 9, 69, 52
1, 10227, Note_off_c, 9, 69, 64
1, 10241, Note_off_c, 3, 69, 64
1, 10241, Note_off_c, 2, 71, 64
1, 10244, Note_off_c, 2, 62, 64
1, 10248, Note_on_c, 9, 36, 109
1, 10248, Note_on_c, 2, 72, 93
1, 10248, Note_on_c, 2, 69, 100
1, 10248, Note_on_c, 2, 65, 76
1, 10248, Note_on_c, 2, 64, 87
1, 10248, Note_on_c, 7, 65, 80
1, 10249, Lyric_t, "nev"
1, 10249, Note_on_c, 3, 71, 116
1, 10249, Note_off_c, 9, 36, 64
1, 10249, Note_on_c, 1, 31, 105
1, 10249, Note_on_c, 9, 69, 36
1, 10250, Note_off_c, 9, 69, 64
1, 10260, Note_off_c, 2, 64, 64
1, 10261, Note_off_c, 2, 65, 64
1, 10266, Note_off_c, 2, 69, 64
1, 10269, Note_off_c, 2, 72, 64
1, 10271, Note_off_c, 7, 65, 64
1, 10273, Note_on_c, 9, 42, 85
1, 10273, Note_on_c, 9, 69, 40
1, 10274, Note_off_c, 9, 42, 64
1, 10274, Note_off_c, 9, 69, 64
1, 10277, Note_off_c, 1, 31, 64
1, 10295, Note_on_c, 1, 31, 80
1, 10296, Note_on_c, 2, 72, 97
1, 10296, Note_on_c, 2, 69, 97
1, 10296, Note_on_c, 2, 64, 93
1, 10296, Note_on_c, 2, 65, 84
1, 10297, Note_on_c, 7, 55, 72
1, 10297, Note_on_c, 9, 69, 23
1, 10298, Note_off_c, 9, 69, 64
1, 10307, Note_off_c, 1, 31, 64
1, 10308, Note_off_c, 2, 65, 64
1, 10313, Note_off_c, 2, 64, 64
1, 10314, Note_off_c, 2, 69, 64
1, 10317, Note_off_c, 2, 72, 64
1, 10317, Note_off_c, 7, 55, 64
1, 10318, Note_off_c, 3, 71, 64
1, 10318, Note_on_c, 2, 62, 82
1, 10319, Note_on_c, 1, 31, 102
1, 10320, Note_on_c, 9, 36, 114
1, 10320, Note_on_c, 2, 71, 75
1, 10320, Note_on_c, 9, 69, 58
1, 10321, Note_off_c, 9, 36, 64
1, 10321, Note_on_c, 9, 42, 70
1, 10321, Note_off_c, 9, 69, 64
1, 10322, Lyric_t, "er "
1, 10322, Note_on_c, 3, 72, 105
1, 10322, Note_off_c, 9, 42, 64
1, 10336, Note_off_c, 2, 71, 64
1, 10338, Note_off_c, 3, 72, 64
1, 10344, Note_off_c, 2, 62, 64
1, 10345, Lyric_t, "let "
1, 10345, Note_on_c, 3, 71, 116
1, 10345, Note_on_c, 7, 55, 53
1, 10345, Note_on_c, 8, 57, 84
1, 10345, Note_on_c, 8, 65, 84
1, 10345, Note_on_c, 8, 60, 75
1, 10346, Note_on_c, 9, 69, 48
1, 10347, Note_off_c, 9, 69, 64
1, 10350, Note_off_c, 8, 60, 64
1, 10351, Note_off_c, 7, 55, 64
1, 10351, Note_off_c, 8, 65, 64
1, 10352, Note_off_c, 8, 57, 64
1, 10354, Note_off_c, 1, 31, 64
1, 10367, Note_on_c, 8, 60, 58
1, 10368, Note_on_c, 9, 42, 81
1, 10368, Note_on_c, 2, 69, 106
1, 10368, Note_on_c, 2, 64, 93
1, 10368, Note_on_c, 2, 72, 106
1, 10368, Note_on_c, 2, 65, 100
1, 10368, Note_on_c, 8, 57, 60
1, 10368, Note_on_c, 8, 65, 58
1, 10369, Note_off_c, 9, 42, 64
1, 10369, Note_on_c, 9, 40, 124
1, 10369, Note_on_c, 7, 59, 90
1, 10370, Note_off_c, 9, 40, 64
1, 10370, Note_on_c, 9, 69, 23
1, 10371, Note_off_c, 9, 69, 64
1, 10374, Note_off_c, 8, 65, 64
1, 10376, Note_off_c, 8, 57, 64
1, 10377, Note_off_c, 8, 60, 64
1, 10391, Note_on_c, 1, 31, 98
1, 10392, Note_on_c, 9, 44, 70
1, 10392, Note_off_c, 7, 59, 64
1, 10393, Note_off_c, 9, 44, 64
1, 10393, Note_on_c, 9, 69, 24
1, 10394, Note_off_c, 9, 69, 64
1, 10410, Note_off_c, 1, 31, 64
1, 10414, Note_off_c, 3, 71, 64
1, 10414, Note_off_c, 2, 72, 64
1, 10415, Lyric_t, "it "
1, 10415, Note_on_c, 3, 67, 98
1, 10415, Note_on_c, 1, 33, 102
1, 10416, Note_on_c, 9, 46, 81
1, 10416, Note_off_c, 2, 69, 64
1, 10416, Note_on_c, 2, 62, 82
1, 10416, Note_on_c, 2, 71, 90
1, 10417, Note_off_c, 9, 46, 64
1, 10417, Note_on_c, 7, 55, 68
1, 10417, Note_on_c, 8, 57, 84
1, 10417, Note_on_c, 8, 65, 78
1, 10417, Note_on_c, 8, 60, 68
1, 10417, Note_on_c, 9, 69, 62
1, 10418, Note_off_c, 9, 69, 64
1, 10423, Note_off_c, 8, 60, 64
1, 10424, Note_off_c, 8, 65, 64
1, 10425, Note_off_c, 2, 65, 64
1, 10426, Note_off_c, 2, 64, 64
1, 10426, Note_off_c, 8, 57, 64
1, 10430, Note_off_c, 1, 33, 64
1, 10430, Note_off_c, 2, 62, 64
1, 10439, Note_off_c, 7, 55, 64
1, 10440, Note_off_c, 2, 71, 64
1, 10441, Note_on_c, 1, 33, 92
1, 10441, Note_on_c, 9, 69, 38
1, 10442, Note_off_c, 9, 69, 64
1, 10453, Note_off_c, 3, 67, 64
1, 10461, Note_off_c, 1, 33, 64
1, 10462, Note_on_c, 2, 64, 90
1, 10463, Note_on_c, 1, 36, 95
1, 10464, Lyric_t, "en-"
1, 10464, Note_on_c, 3, 69, 116
1, 10464, Note_on_c, 2, 71, 106
1, 10464, Note_on_c, 2, 67, 90
1, 10464, Note_on_c, 2, 74, 100
1, 10464, Note_off_c, 11, 57, 64
1, 10464, Note_off_c, 11, 60, 64
1, 10464, Note_off_c, 11, 65, 64
1, 10464, Note_on_c, 11, 64, 57
1, 10464, Note_on_c, 11, 67, 57
1, 10464, Note_on_c, 11, 59, 57
1, 10465, Note_on_c, 9, 36, 114
1, 10465, Note_on_c, 9, 42, 81
1, 10465, Note_on_c, 7, 55, 74
1, 10466, Note_off_c, 9, 42, 64
1, 10466, Note_off_c, 9, 36, 64
1, 10476, Note_off_c, 2, 74, 64
1, 10476, Note_off_c, 2, 67, 64
1, 10477, Note_off_c, 2, 71, 64
1, 10477, Note_off_c, 2, 64, 64
1, 10477, Note_off_c, 7, 55, 64
1, 10488, Note_on_c, 2, 71, 84
1, 10488, Note_on_c, 2, 67, 75
1, 10488, Note_on_c, 2, 64, 87
1, 10488, Note_on_c, 2, 74, 82
1, 10489, Note_on_c, 7, 55, 63
1, 10489, Note_on_c, 9, 69, 40
1, 10490, Note_off_c, 9, 69, 64
1, 10497, Note_off_c, 3, 69, 64
1, 10499, Note_off_c, 1, 36, 64
1, 10502, Note_off_c, 7, 55, 64
1, 10506, Note_off_c, 2, 74, 64
1, 10506, Note_off_c, 2, 71, 64
1, 10510, Lyric_t, "end. "
1, 10510, Lyric_t, "\015"
1, 10510, Note_on_c, 3, 69, 121
1, 10512, Note_on_c, 2, 72, 72
1, 10512, Note_on_c, 2, 69, 78
1, 10512, Note_on_c, 7, 57, 70
1, 10513, Note_on_c, 9, 44, 61
1, 10513, Note_on_c, 9, 69, 63
1, 10514, Note_off_c, 9, 44, 64
1, 10514, Note_off_c, 9, 69, 64
1, 10518, Note_off_c, 2, 67, 64
1, 10522, Note_off_c, 2, 64, 64
1, 10528, Note_off_c, 2, 69, 64
1, 10532, Note_off_c, 2, 72, 64
1, 10532, Note_off_c, 7, 57, 64
1, 10535, Note_off_c, 3, 69, 64
1, 10535, Note_on_c, 8, 55, 68
1, 10536, Note_on_c, 2, 64, 84
1, 10536, Note_on_c, 2, 67, 87
1, 10536, Note_on_c, 2, 71, 97
1, 10536, Note_on_c, 2, 74, 90
1, 10536, Note_on_c, 8, 64, 65
1, 10536, Note_on_c, 8, 59, 65
1, 10537, Note_on_c, 9, 42, 78
1, 10537, Note_on_c, 7, 59, 83
1, 10537, Note_on_c, 9, 69, 48
1, 10538, Note_on_c, 3, 67, 105
1, 10538, Note_off_c, 9, 42, 64
1, 10538, Note_off_c, 9, 69, 64
1, 10542, Note_off_c, 8, 59, 64
1, 10542, Note_off_c, 8, 64, 64
1, 10546, Note_off_c, 8, 55, 64
1, 10552, Note_off_c, 2, 67, 64
1, 10552, Note_off_c, 2, 64, 64
1, 10552, Note_off_c, 7, 59, 64
1, 10556, Note_off_c, 2, 71, 64
1, 10556, Note_off_c, 2, 74, 64
1, 10559, Note_on_c, 9, 40, 124
1, 10560, Note_off_c, 9, 40, 64
1, 10560, Note_on_c, 8, 59, 75
1, 10560, Note_on_c, 9, 69, 20
1, 10561, Note_on_c, 8, 64, 71
1, 10561, Note_on_c, 8, 55, 78
1, 10561, Note_off_c, 9, 69, 64
1, 10572, Note_off_c, 8, 55, 64
1, 10572, Note_off_c, 8, 64, 64
1, 10573, Note_off_c, 8, 59, 64
1, 10583, Note_on_c, 9, 44, 78
1, 10583, Note_on_c, 9, 69, 36
1, 10584, Note_off_c, 9, 44, 64
1, 10584, Note_on_c, 2, 71, 97
1, 10584, Note_on_c, 2, 64, 90
1, 10584, Note_on_c, 2, 74, 97
1, 10584, Note_on_c, 2, 67, 97
1, 10584, Note_off_c, 9, 69, 64
1, 10585, Note_on_c, 7, 55, 68
1, 10602, Note_off_c, 2, 71, 64
1, 10606, Note_off_c, 2, 74, 64
1, 10607, Note_on_c, 9, 42, 68
1, 10607, Note_off_c, 7, 55, 64
1, 10607, Note_on_c, 9, 69, 58
1, 10608, Note_off_c, 9, 42, 64
1, 10608, Note_on_c, 2, 69, 87
1, 10608, Note_on_c, 2, 72, 87
1, 10608, Note_off_c, 9, 69, 64
1, 10610, Note_off_c, 2, 67, 64
1, 10618, Note_off_c, 2, 64, 64
1, 10624, Note_off_c, 2, 69, 64
1, 10624, Note_off_c, 2, 72, 64
1, 10631, Note_on_c, 1, 36, 92
1, 10631, Note_on_c, 9, 69, 36
1, 10632, Note_on_c, 9, 36, 114
1, 10632, Note_on_c, 2, 64, 87
1, 10632, Note_on_c, 2, 71, 100
1, 10632, Note_on_c, 2, 74, 97
1, 10632, Note_on_c, 2, 67, 80
1, 10632, Note_on_c, 7, 64, 83
1, 10632, Note_off_c, 9, 69, 64
1, 10633, Note_off_c, 9, 36, 64
1, 10645, Note_off_c, 2, 67, 64
1, 10645, Note_off_c, 2, 64, 64
1, 10649, Note_off_c, 2, 74, 64
1, 10652, Note_off_c, 2, 71, 64
1, 10652, Note_off_c, 7, 64, 64
1, 10655, Note_off_c, 1, 36, 64
1, 10656, Note_on_c, 9, 42, 85
1, 10657, Note_off_c, 9, 42, 64
1, 10657, Note_on_c, 9, 69, 22
1, 10658, Note_off_c, 9, 69, 64
1, 10662, Note_off_c, 3, 67, 64
1, 10678, Note_on_c, 2, 71, 90
1, 10678, Note_on_c, 2, 74, 93
1, 10679, Note_on_c, 1, 36, 92
1, 10680, Note_on_c, 2, 64, 90
1, 10680, Note_on_c, 2, 67, 90
1, 10680, Note_on_c, 7, 55, 72
1, 10681, Note_on_c, 9, 69, 25
1, 10682, Note_off_c, 9, 69, 64
1, 10694, Note_off_c, 1, 36, 64
1, 10694, Note_off_c, 2, 74, 64
1, 10694, Note_off_c, 2, 71, 64
1, 10694, Note_off_c, 7, 55, 64
1, 10702, Note_on_c, 2, 72, 76
1, 10703, Note_on_c, 9, 36, 104
1, 10703, Note_on_c, 1, 36, 83
1, 10703, Note_on_c, 9, 69, 67
1, 10704, Note_off_c, 9, 36, 64
1, 10704, Note_on_c, 2, 69, 78
1, 10704, Note_off_c, 9, 69, 64
1, 10705, Note_on_c, 9, 42, 78
1, 10706, Note_off_c, 9, 42, 64
1, 10714, Note_off_c, 2, 67, 64
1, 10720, Note_off_c, 2, 64, 64
1, 10720, Note_off_c, 2, 72, 64
1, 10724, Note_off_c, 2, 69, 64
1, 10727, Note_on_c, 7, 55, 68
1, 10727, Note_on_c, 8, 64, 65
1, 10727, Note_on_c, 8, 55, 65
1, 10727, Note_on_c, 9, 69, 38
1, 10728, Note_on_c, 8, 59, 68
1, 10728, Note_off_c, 9, 69, 64
1, 10732, Note_off_c, 1, 36, 64
1, 10734, Note_off_c, 8, 59, 64
1, 10734, Note_off_c, 8, 55, 64
1, 10734, Note_off_c, 8, 64, 64
1, 10741, Note_off_c, 7, 55, 64
1, 10750, Note_on_c, 2, 64, 97
1, 10750, Note_on_c, 2, 74, 106
1, 10750, Note_on_c, 2, 71, 106
1, 10750, Note_on_c, 2, 67, 97
1, 10751, Note_on_c, 8, 59, 71
1, 10751, Note_on_c, 8, 55, 68
1, 10751, Note_on_c, 8, 64, 71
1, 10752, Lyric_t, "We "
1, 10752, Note_on_c, 3, 62, 111
1, 10752, Note_on_c, 9, 42, 85
1, 10752, Note_on_c, 7, 59, 80
1, 10753, Note_off_c, 9, 42, 64
1, 10753, Note_on_c, 9, 40, 124
1, 10753, Note_on_c, 9, 69, 12
1, 10754, Note_off_c, 9, 40, 64
1, 10754, Note_off_c, 9, 69, 64
1, 10759, Note_off_c, 8, 64, 64
1, 10762, Note_off_c, 7, 59, 64
1, 10762, Note_off_c, 8, 55, 64
1, 10762, Note_off_c, 8, 59, 64
1, 10772, Note_off_c, 3, 62, 64
1, 10774, Lyric_t, "are "
1, 10774, Note_on_c, 3, 64, 98
1, 10775, Note_on_c, 9, 44, 68
1, 10775, Note_on_c, 1, 31, 87
1, 10775, Note_off_c, 2, 67, 64
1, 10775, Note_on_c, 7, 59, 65
1, 10776, Note_off_c, 9, 44, 64
1, 10777, Note_on_c, 9, 69, 24
1, 10778, Note_off_c, 9, 69, 64
1, 10787, Note_off_c, 2, 64, 64
1, 10795, Note_off_c, 1, 31, 64
1, 10796, Note_off_c, 2, 71, 64
1, 10796, Note_off_c, 2, 74, 64
1, 10797, Note_off_c, 7, 59, 64
1, 10798, Note_on_c, 2, 64, 64
1, 10799, Lyric_t, "de"
1, 10799, Note_off_c, 3, 64, 64
1, 10799, Note_on_c, 3, 67, 102
1, 10799, Note_on_c, 1, 36, 87
1, 10799, Note_on_c, 8, 55, 71
1, 10799, Note_on_c, 8, 64, 71
1, 10799, Note_on_c, 8, 59, 71
1, 10800, Note_on_c, 9, 46, 72
1, 10800, Note_on_c, 2, 67, 90
1, 10800, Note_on_c, 2, 72, 87
1, 10800, Note_on_c, 2, 69, 97
1, 10801, Note_off_c, 9, 46, 64
1, 10801, Note_on_c, 7, 55, 66
1, 10801, Note_on_c, 9, 69, 62
1, 10802, Note_off_c, 9, 69, 64
1, 10810, Note_off_c, 8, 59, 64
1, 10811, Note_off_c, 2, 64, 64
1, 10811, Note_off_c, 8, 64, 64
1, 10812, Note_off_c, 8, 55, 64
1, 10813, Note_off_c, 2, 67, 64
1, 10814, Note_off_c, 7, 55, 64
1, 10820, Note_off_c, 1, 36, 64
1, 10820, Note_off_c, 2, 69, 64
1, 10822, Note_off_c, 3, 67, 64
1, 10823, Note_on_c, 1, 35, 81
1, 10824, Note_off_c, 2, 72, 64
1, 10825, Note_on_c, 9, 69, 38
1, 10826, Lyric_t, "vo"
1, 10826, Note_on_c, 3, 69, 111
1, 10826, Note_off_c, 9, 69, 64
1, 10847, Note_on_c, 9, 36, 114
1, 10847, Note_off_c, 11, 62, 64
1, 10847, Note_on_c, 9, 69, 19
1, 10848, Note_off_c, 9, 36, 64
1, 10848, Note_on_c, 2, 64, 97
1, 10848, Note_on_c, 2, 71, 106
1, 10848, Note_on_c, 2, 67, 100
1, 10848, Note_off_c, 11, 59, 64
1, 10848, Note_off_c, 11, 67, 64
1, 10848, Note_on_c, 11, 60, 56
1, 10848, Note_on_c, 11, 69, 56
1, 10848, Note_off_c, 9, 69, 64
1, 10849, Note_on_c, 9, 42, 81
1, 10849, Note_off_c, 1, 35, 64
1, 10849, Note_on_c, 1, 33, 92
1, 10850, Note_off_c, 9, 42, 64
1, 10868, Note_off_c, 2, 67, 64
1, 10870, Note_off_c, 2, 71, 64
1, 10871, Note_on_c, 9, 69, 30
1, 10872, Note_on_c, 2, 72, 84
1, 10872, Note_on_c, 2, 69, 87
1, 10872, Note_off_c, 9, 69, 64
1, 10873, Note_on_c, 7, 52, 77
1, 10884, Note_off_c, 7, 52, 64
1, 10888, Note_off_c, 2, 69, 64
1, 10892, Note_off_c, 2, 72, 64
1, 10895, Note_on_c, 9, 44, 70
1, 10895, Note_on_c, 9, 69, 62
1, 10896, Note_off_c, 9, 44, 64
1, 10896, Note_on_c, 2, 67, 84
1, 10896, Note_on_c, 2, 71, 93
1, 10896, Note_off_c, 9, 69, 64
1, 10897, Note_on_c, 7, 57, 87
1, 10898, Note_off_c, 1, 33, 64
1, 10909, Note_off_c, 3, 69, 64
1, 10913, Note_off_c, 2, 71, 64
1, 10914, Note_off_c, 2, 67, 64
1, 10914, Note_off_c, 2, 64, 64
1, 10914, Note_off_c, 7, 57, 64
1, 10918, Note_on_c, 9, 69, 33
1, 10919, Note_off_c, 9, 69, 64
1, 10920, Lyric_t, "tion. "
1, 10920, Lyric_t, "\015"
1, 10920, Note_on_c, 3, 64, 105
1, 10920, Note_on_c, 2, 69, 100
1, 10920, Note_on_c, 2, 72, 93
1, 10920, Note_on_c, 2, 64, 97
1, 10921, Note_on_c, 9, 42, 78
1, 10921, Note_on_c, 7, 60, 77
1, 10921, Note_on_c, 8, 57, 75
1, 10921, Note_on_c, 8, 60, 68
1, 10921, Note_on_c, 8, 64, 56
1, 10922, Note_off_c, 9, 42, 64
1, 10926, Note_off_c, 8, 64, 64
1, 10928, Note_off_c, 8, 57, 64
1, 10929, Note_off_c, 8, 60, 64
1, 10937, Note_off_c, 2, 64, 64
1, 10938, Note_off_c, 7, 60, 64
1, 10941, Note_off_c, 2, 72, 64
1, 10941, Note_off_c, 2, 69, 64
1, 10943, Note_on_c, 9, 40, 124
1, 10943, Note_on_c, 9, 69, 34
1, 10944, Note_off_c, 9, 40, 64
1, 10944, Note_off_c, 9, 69, 64
1, 10945, Note_on_c, 8, 57, 78
1, 10945, Note_on_c, 8, 60, 60
1, 10946, Note_on_c, 8, 64, 45
1, 10958, Note_off_c, 8, 64, 64
1, 10958, Note_off_c, 8, 57, 64
1, 10960, Note_off_c, 8, 60, 64
1, 10965, Note_off_c, 3, 64, 64
1, 10966, Note_on_c, 3, 62, 105
1, 10967, Note_on_c, 9, 44, 78
1, 10968, Note_off_c, 9, 44, 64
1, 10968, Note_on_c, 2, 64, 93
1, 10968, Note_on_c, 2, 69, 100
1, 10968, Note_on_c, 2, 72, 100
1, 10968, Note_on_c, 9, 69, 33
1, 10969, Lyric_t, "\012"
1, 10969, Note_on_c, 7, 57, 80
1, 10969, Note_off_c, 9, 69, 64
1, 10983, Note_off_c, 7, 57, 64
1, 10984, Note_off_c, 2, 72, 64
1, 10984, Note_off_c, 2, 69, 64
1, 10991, Note_off_c, 3, 62, 64
1, 10991, Note_on_c, 9, 42, 70
1, 10992, Note_on_c, 3, 60, 102
1, 10992, Note_off_c, 9, 42, 64
1, 10992, Note_on_c, 2, 71, 82
1, 10992, Note_on_c, 2, 67, 76
1, 10992, Note_on_c, 9, 69, 60
1, 10993, Note_off_c, 9, 69, 64
1, 11006, Note_off_c, 2, 67, 64
1, 11008, Note_off_c, 2, 71, 64
1, 11008, Note_off_c, 2, 64, 64
1, 11015, Note_on_c, 1, 28, 85
1, 11016, Note_on_c, 2, 64, 90
1, 11016, Note_on_c, 2, 72, 97
1, 11016, Note_on_c, 2, 69, 93
1, 11016, Note_on_c, 7, 64, 83
1, 11016, Note_on_c, 9, 69, 45
1, 11017, Note_on_c, 9, 36, 109
1, 11017, Note_off_c, 9, 69, 64
1, 11018, Note_off_c, 9, 36, 64
1, 11033, Note_off_c, 2, 69, 64
1, 11034, Note_off_c, 1, 28, 64
1, 11034, Note_off_c, 2, 72, 64
1, 11035, Note_off_c, 7, 64, 64
1, 11036, Note_off_c, 2, 64, 64
1, 11039, Note_on_c, 9, 42, 85
1, 11039, Note_on_c, 1, 33, 98
1, 11040, Note_off_c, 9, 42, 64
1, 11041, Note_on_c, 9, 36, 114
1, 11041, Note_on_c, 9, 69, 42
1, 11042, Note_off_c, 9, 36, 64
1, 11042, Note_off_c, 9, 69, 64
1, 11053, Note_off_c, 3, 60, 64
1, 11064, Note_on_c, 9, 47, 109
1, 11064, Note_on_c, 2, 69, 97
1, 11064, Note_on_c, 2, 72, 90
1, 11064, Note_on_c, 2, 64, 106
1, 11065, Lyric_t, "And "
1, 11065, Note_on_c, 3, 71, 102
1, 11065, Note_off_c, 9, 47, 64
1, 11065, Note_on_c, 7, 57, 90
1, 11065, Note_on_c, 9, 69, 30
1, 11066, Note_off_c, 9, 69, 64
1, 11080, Note_off_c, 7, 57, 64
1, 11081, Note_off_c, 2, 69, 64
1, 11082, Note_off_c, 3, 71, 64
1, 11086, Note_off_c, 1, 33, 64
1, 11086, Note_off_c, 2, 72, 64
1, 11087, Note_on_c, 9, 42, 70
1, 11088, Note_off_c, 9, 42, 64
1, 11088, Note_on_c, 2, 71, 87
1, 11088, Note_on_c, 2, 67, 78
1, 11088, Note_on_c, 9, 69, 60
1, 11089, Note_off_c, 9, 69, 64
1, 11090, Lyric_t, "we "
1, 11090, Note_on_c, 3, 71, 102
1, 11102, Note_off_c, 3, 71, 64
1, 11102, Note_off_c, 2, 71, 64
1, 11106, Note_off_c, 2, 67, 64
1, 11108, Note_off_c, 2, 64, 64
1, 11112, Note_on_c, 9, 45, 109
1, 11112, Note_on_c, 7, 57, 83
1, 11112, Note_on_c, 9, 69, 30
1, 11113, Lyric_t, "got "
1, 11113, Note_on_c, 3, 71, 105
1, 11113, Note_off_c, 9, 45, 64
1, 11113, Note_on_c, 8, 57, 78
1, 11113, Note_on_c, 8, 60, 62
1, 11113, Note_off_c, 9, 69, 64
1, 11114, Note_on_c, 8, 64, 45
1, 11118, Note_off_c, 8, 60, 64
1, 11118, Note_off_c, 8, 57, 64
1, 11120, Note_off_c, 8, 64, 64
1, 11126, Note_off_c, 7, 57, 64
1, 11132, Note_off_c, 3, 71, 64
1, 11136, Note_on_c, 2, 69, 111
1, 11136, Note_on_c, 2, 72, 106
1, 11136, Note_on_c, 2, 64, 106
1, 11137, Note_on_c, 9, 42, 85
1, 11137, Note_on_c, 7, 60, 74
1, 11137, Note_on_c, 8, 57, 71
1, 11137, Note_on_c, 8, 60, 68
1, 11137, Note_on_c, 8, 64, 53
1, 11137, Note_on_c, 9, 69, 40
1, 11138, Lyric_t, "noth"
1, 11138, Note_on_c, 3, 71, 105
1, 11138, Note_off_c, 9, 42, 64
1, 11138, Note_off_c, 9, 69, 64
1, 11143, Note_off_c, 8, 64, 64
1, 11146, Note_off_c, 7, 60, 64
1, 11146, Note_off_c, 8, 60, 64
1, 11146, Note_off_c, 8, 57, 64
1, 11154, Note_off_c, 3, 71, 64
1, 11159, Note_on_c, 1, 31, 92
1, 11159, Note_on_c, 7, 60, 63
1, 11159, Note_on_c, 9, 69, 31
1, 11160, Note_on_c, 9, 43, 98
1, 11160, Note_off_c, 9, 69, 64
1, 11161, Note_off_c, 9, 43, 64
1, 11163, Lyric_t, "ing "
1, 11163, Note_on_c, 3, 71, 121
1, 11164, Note_off_c, 2, 64, 64
1, 11179, Note_off_c, 1, 31, 64
1, 11180, Note_off_c, 2, 69, 64
1, 11180, Note_off_c, 7, 60, 64
1, 11182, Note_off_c, 3, 71, 64
1, 11183, Note_on_c, 1, 33, 87
1, 11184, Note_on_c, 9, 42, 85
1, 11184, Note_off_c, 2, 72, 64
1, 11184, Note_on_c, 2, 64, 100
1, 11184, Note_on_c, 2, 67, 80
1, 11184, Note_on_c, 2, 71, 90
1, 11184, Note_on_c, 8, 57, 84
1, 11184, Note_on_c, 8, 64, 71
1, 11184, Note_on_c, 9, 69, 59
1, 11185, Note_off_c, 9, 42, 64
1, 11185, Note_on_c, 9, 43, 91
1, 11185, Note_on_c, 7, 57, 68
1, 11185, Note_on_c, 8, 60, 62
1, 11185, Note_off_c, 9, 69, 64
1, 11186, Note_off_c, 9, 43, 64
1, 11188, Lyric_t, "to "
1, 11188, Note_on_c, 3, 71, 116
1, 11192, Note_off_c, 8, 60, 64
1, 11194, Note_off_c, 8, 64, 64
1, 11194, Note_off_c, 8, 57, 64
1, 11196, Note_off_c, 1, 33, 64
1, 11200, Note_off_c, 3, 71, 64
1, 11202, Note_off_c, 7, 57, 64
1, 11205, Note_off_c, 2, 71, 64
1, 11207, Note_on_c, 1, 33, 81
1, 11208, Note_off_c, 2, 64, 64
1, 11209, Note_on_c, 9, 43, 80
1, 11209, Note_off_c, 2, 67, 64
1, 11209, Note_on_c, 9, 69, 40
1, 11210, Note_off_c, 9, 43, 64
1, 11210, Note_off_c, 9, 69, 64
1, 11211, Lyric_t, "be "
1, 11211, Note_on_c, 3, 71, 89
1, 11225, Note_off_c, 3, 71, 64
1, 11230, Note_off_c, 1, 33, 64
1, 11231, Note_on_c, 1, 36, 111
1, 11231, Note_off_c, 11, 64, 64
1, 11232, Note_on_c, 2, 62, 90
1, 11232, Note_on_c, 2, 64, 87
1, 11232, Note_on_c, 2, 67, 100
1, 11232, Note_on_c, 2, 71, 106
1, 11232, Note_on_c, 7, 55, 70
1, 11232, Note_off_c, 11, 69, 64
1, 11232, Note_off_c, 11, 60, 64
1, 11232, Note_on_c, 11, 67, 54
1, 11232, Note_on_c, 11, 59, 54
1, 11232, Note_on_c, 11, 64, 54
1, 11232, Note_on_c, 11, 62, 54
1, 11232, Note_on_c, 9, 69, 30
1, 11233, Note_on_c, 9, 36, 114
1, 11233, Note_on_c, 9, 57, 78
1, 11233, Note_off_c, 9, 69, 64
1, 11234, Note_off_c, 9, 57, 64
1, 11234, Note_off_c, 9, 36, 64
1, 11236, Lyric_t, "sor"
1, 11236, Note_on_c, 3, 71, 121
1, 11242, Note_off_c, 2, 67, 64
1, 11242, Note_off_c, 2, 62, 64
1, 11245, Note_off_c, 2, 71, 64
1, 11248, Note_off_c, 7, 55, 64
1, 11255, Note_on_c, 9, 69, 30
1, 11256, Note_on_c, 2, 62, 62
1, 11256, Note_on_c, 2, 71, 75
1, 11256, Note_on_c, 2, 67, 78
1, 11256, Note_off_c, 9, 69, 64
1, 11257, Note_on_c, 7, 55, 74
1, 11268, Note_off_c, 3, 71, 64
1, 11272, Note_off_c, 1, 36, 64
1, 11274, Note_off_c, 2, 64, 64
1, 11274, Note_off_c, 7, 55, 64
1, 11278, Note_off_c, 2, 67, 64
1, 11278, Note_off_c, 2, 71, 64
1, 11279, Note_on_c, 9, 69, 63
1, 11280, Note_on_c, 2, 69, 82
1, 11280, Note_on_c, 2, 60, 73
1, 11280, Note_off_c, 9, 69, 64
1, 11281, Note_on_c, 9, 44, 68
1, 11281, Note_off_c, 2, 62, 64
1, 11281, Note_on_c, 7, 57, 74
1, 11282, Note_off_c, 9, 44, 64
1, 11296, Note_off_c, 2, 69, 64
1, 11299, Note_off_c, 7, 57, 64
1, 11302, Note_off_c, 2, 60, 64
1, 11304, Note_on_c, 2, 67, 93
1, 11304, Note_on_c, 2, 71, 97
1, 11304, Note_on_c, 2, 64, 80
1, 11304, Note_on_c, 2, 62, 93
1, 11304, Note_on_c, 9, 69, 38
1, 11305, Note_on_c, 9, 42, 70
1, 11305, Note_on_c, 7, 59, 87
1, 11305, Note_on_c, 8, 64, 62
1, 11305, Note_on_c, 8, 55, 68
1, 11305, Note_on_c, 8, 59, 65
1, 11305, Note_off_c, 9, 69, 64
1, 11306, Note_off_c, 9, 42, 64
1, 11307, Lyric_t, "ry "
1, 11307, Note_on_c, 3, 69, 105
1, 11310, Note_off_c, 8, 64, 64
1, 11311, Note_off_c, 8, 59, 64
1, 11314, Note_off_c, 8, 55, 64
1, 11318, Note_off_c, 2, 62, 64
1, 11322, Note_off_c, 7, 59, 64
1, 11325, Note_off_c, 2, 64, 64
1, 11325, Note_off_c, 2, 67, 64
1, 11326, Note_off_c, 2, 71, 64
1, 11328, Note_on_c, 9, 69, 22
1, 11329, Note_on_c, 9, 40, 120
1, 11329, Note_on_c, 8, 59, 78
1, 11329, Note_on_c, 8, 64, 71
1, 11329, Note_on_c, 8, 55, 84
1, 11329, Note_off_c, 9, 69, 64
1, 11330, Note_off_c, 9, 40, 64
1, 11338, Note_off_c, 8, 64, 64
1, 11339, Note_off_c, 8, 59, 64
1, 11340, Note_off_c, 8, 55, 64
1, 11344, Note_off_c, 3, 69, 64
1, 11352, Note_on_c, 9, 44, 68
1, 11352, Note_on_c, 2, 71, 97
1, 11352, Note_on_c, 2, 67, 97
1, 11352, Note_on_c, 2, 62, 82
1, 11352, Note_on_c, 2, 64, 82
1, 11353, Note_off_c, 9, 44, 64
1, 11353, Note_on_c, 7, 55, 72
1, 11353, Note_on_c, 9, 69, 34
1, 11354, Note_off_c, 9, 69, 64
1, 11366, Note_off_c, 7, 55, 64
1, 11368, Note_off_c, 2, 64, 64
1, 11370, Note_off_c, 2, 62, 64
1, 11373, Note_off_c, 2, 67, 64
1, 11375, Lyric_t, "for, "
1, 11375, Lyric_t, "\015"
1, 11375, Note_on_c, 3, 71, 116
1, 11375, Note_on_c, 9, 42, 64
1, 11376, Note_off_c, 9, 42, 64
1, 11376, Note_off_c, 2, 71, 64
1, 11376, Note_on_c, 2, 60, 72
1, 11376, Note_on_c, 2, 69, 78
1, 11377, Note_on_c, 9, 69, 53
1, 11378, Note_off_c, 9, 69, 64
1, 11393, Note_off_c, 2, 69, 64
1, 11396, Note_off_c, 2, 60, 64
1, 11399, Note_on_c, 1, 36, 102
1, 11399, Note_on_c, 7, 64, 80
1, 11400, Note_on_c, 2, 71, 93
1, 11400, Note_on_c, 2, 67, 100
1, 11400, Note_on_c, 2, 62, 100
1, 11400, Note_on_c, 2, 64, 90
1, 11401, Note_on_c, 9, 36, 124
1, 11401, Note_on_c, 9, 69, 36
1, 11402, Note_off_c, 9, 36, 64
1, 11402, Note_off_c, 9, 69, 64
1, 11415, Note_off_c, 7, 64, 64
1, 11416, Note_off_c, 2, 64, 64
1, 11420, Note_off_c, 2, 62, 64
1, 11420, Note_off_c, 2, 67, 64
1, 11421, Note_off_c, 1, 36, 64
1, 11422, Note_off_c, 2, 71, 64
1, 11423, Note_on_c, 9, 42, 81
1, 11424, Note_off_c, 9, 42, 64
1, 11425, Note_on_c, 9, 69, 31
1, 11426, Note_off_c, 9, 69, 64
1, 11430, Note_off_c, 3, 71, 64
1, 11447, Note_on_c, 7, 55, 72
1, 11448, Note_on_c, 1, 36, 95
1, 11448, Note_on_c, 2, 71, 93
1, 11448, Note_on_c, 2, 67, 97
1, 11448, Note_on_c, 2, 62, 90
1, 11448, Note_on_c, 2, 64, 82
1, 11449, Note_on_c, 9, 69, 23
1, 11450, Note_off_c, 9, 69, 64
1, 11462, Note_off_c, 1, 36, 64
1, 11463, Note_off_c, 7, 55, 64
1, 11465, Note_off_c, 2, 62, 64
1, 11466, Note_off_c, 2, 64, 64
1, 11466, Note_off_c, 2, 67, 64
1, 11470, Note_off_c, 2, 71, 64
1, 11471, Note_on_c, 1, 36, 85
1, 11471, Note_on_c, 9, 69, 51
1, 11472, Note_on_c, 9, 36, 114
1, 11472, Note_on_c, 2, 60, 69
1, 11472, Note_on_c, 2, 69, 76
1, 11472, Note_off_c, 9, 69, 64
1, 11473, Note_off_c, 9, 36, 64
1, 11473, Note_on_c, 9, 42, 70
1, 11474, Note_off_c, 9, 42, 64
1, 11488, Note_off_c, 2, 69, 64
1, 11495, Note_on_c, 7, 55, 56
1, 11495, Note_on_c, 8, 55, 62
1, 11495, Note_on_c, 8, 64, 62
1, 11496, Note_on_c, 8, 59, 62
1, 11496, Note_on_c, 9, 69, 34
1, 11497, Note_off_c, 9, 69, 64
1, 11498, Note_off_c, 1, 36, 64
1, 11498, Note_off_c, 2, 60, 64
1, 11501, Note_off_c, 8, 64, 64
1, 11502, Note_off_c, 8, 59, 64
1, 11502, Note_off_c, 8, 55, 64
1, 11504, Note_off_c, 7, 55, 64
1, 11519, Lyric_t, "our "
1, 11519, Note_on_c, 3, 69, 98
1, 11519, Note_on_c, 9, 42, 81
1, 11519, Note_on_c, 8, 55, 68
1, 11520, Note_off_c, 9, 42, 64
1, 11520, Note_on_c, 2, 67, 106
1, 11520, Note_on_c, 2, 71, 111
1, 11520, Note_on_c, 2, 64, 93
1, 11520, Note_on_c, 2, 62, 100
1, 11521, Note_on_c, 9, 40, 124
1, 11521, Note_on_c, 7, 59, 87
1, 11521, Note_on_c, 8, 59, 75
1, 11521, Note_on_c, 8, 64, 68
1, 11522, Note_off_c, 9, 40, 64
1, 11527, Note_off_c, 8, 64, 64
1, 11528, Note_off_c, 8, 59, 64
1, 11529, Note_off_c, 8, 55, 64
1, 11533, Note_off_c, 7, 59, 64
1, 11543, Note_on_c, 9, 44, 63
1, 11543, Note_on_c, 9, 69, 22
1, 11544, Note_off_c, 9, 44, 64
1, 11544, Note_on_c, 1, 36, 102
1, 11544, Note_on_c, 7, 59, 77
1, 11544, Note_off_c, 9, 69, 64
1, 11550, Note_off_c, 3, 69, 64
1, 11559, Note_off_c, 7, 59, 64
1, 11562, Note_off_c, 1, 36, 64
1, 11562, Note_off_c, 2, 71, 64
1, 11564, Note_off_c, 2, 62, 64
1, 11566, Note_off_c, 2, 64, 64
1, 11566, Note_off_c, 2, 67, 64
1, 11566, Note_on_c, 2, 60, 80
1, 11567, Note_on_c, 9, 46, 78
1, 11567, Note_on_c, 1, 31, 77
1, 11567, Note_on_c, 9, 69, 51
1, 11568, Note_off_c, 9, 46, 64
1, 11568, Note_on_c, 2, 69, 87
1, 11568, Note_off_c, 9, 69, 64
1, 11569, Lyric_t, "love "
1, 11569, Note_on_c, 3, 71, 111
1, 11569, Note_on_c, 7, 55, 66
1, 11569, Note_on_c, 8, 55, 75
1, 11569, Note_on_c, 8, 59, 75
1, 11569, Note_on_c, 8, 64, 68
1, 11575, Note_off_c, 8, 64, 64
1, 11578, Note_off_c, 8, 59, 64
1, 11579, Note_off_c, 8, 55, 64
1, 11587, Note_off_c, 7, 55, 64
1, 11590, Note_off_c, 1, 31, 64
1, 11591, Note_on_c, 1, 33, 95
1, 11591, Note_on_c, 9, 69, 48
1, 11592, Note_off_c, 9, 69, 64
1, 11606, Note_off_c, 2, 69, 64
1, 11612, Note_off_c, 2, 60, 64
1, 11614, Note_on_c, 2, 67, 100
1, 11614, Note_on_c, 2, 71, 100
1, 11614, Note_on_c, 2, 64, 84
1, 11615, Note_on_c, 9, 36, 114
1, 11615, Note_off_c, 1, 33, 64
1, 11615, Note_on_c, 1, 36, 102
1, 11616, Time_signature, 3, 2, 24, 8
1, 11616, Note_off_c, 9, 36, 64
1, 11616, Note_on_c, 2, 62, 93
1, 11616, Note_on_c, 7, 55, 77
1, 11617, Note_on_c, 9, 42, 85
1, 11618, Note_off_c, 9, 42, 64
1, 11618, Note_on_c, 9, 69, 33
1, 11619, Note_off_c, 9, 69, 64
1, 11624, Note_off_c, 2, 64, 64
1, 11626, Note_off_c, 2, 62, 64
1, 11626, Note_off_c, 2, 67, 64
1, 11627, Note_off_c, 2, 71, 64
1, 11627, Note_off_c, 7, 55, 64
1, 11634, Note_off_c, 3, 71, 64
1, 11638, Note_on_c, 2, 71, 90
1, 11638, Note_on_c, 2, 67, 84
1, 11639, Note_on_c, 7, 55, 60
1, 11640, Note_on_c, 2, 62, 87
1, 11640, Note_on_c, 2, 64, 72
1, 11641, Note_on_c, 9, 69, 26
1, 11642, Note_off_c, 9, 69, 64
1, 11651, Note_off_c, 1, 36, 64
1, 11653, Note_off_c, 7, 55, 64
1, 11656, Note_off_c, 2, 67, 64
1, 11658, Lyric_t, "is "
1, 11658, Note_on_c, 3, 69, 111
1, 11658, Note_off_c, 2, 62, 64
1, 11660, Note_off_c, 2, 71, 64
1, 11661, Note_off_c, 2, 64, 64
1, 11663, Note_on_c, 9, 44, 70
1, 11663, Note_on_c, 7, 57, 66
1, 11664, Note_off_c, 9, 44, 64
1, 11664, Note_on_c, 2, 60, 76
1, 11664, Note_on_c, 2, 69, 80
1, 11665, Note_on_c, 9, 69, 61
1, 11666, Note_off_c, 9, 69, 64
1, 11668, Note_off_c, 3, 69, 64
1, 11681, Note_off_c, 2, 69, 64
1, 11684, Lyric_t, "one "
1, 11684, Note_on_c, 3, 69, 105
1, 11686, Note_off_c, 2, 60, 64
1, 11686, Note_off_c, 7, 57, 64
1, 11687, Note_on_c, 8, 64, 68
1, 11687, Note_on_c, 8, 55, 68
1, 11687, Note_on_c, 8, 59, 68
1, 11688, Note_on_c, 9, 42, 78
1, 11688, Note_on_c, 2, 71, 87
1, 11688, Note_on_c, 2, 67, 87
1, 11688, Note_on_c, 2, 64, 82
1, 11688, Note_on_c, 2, 62, 93
1, 11688, Note_on_c, 7, 59, 77
1, 11688, Note_on_c, 9, 69, 40
1, 11689, Note_off_c, 9, 42, 64
1, 11689, Note_off_c, 9, 69, 64
1, 11694, Note_off_c, 8, 59, 64
1, 11696, Note_off_c, 8, 64, 64
1, 11697, Note_off_c, 8, 55, 64
1, 11700, Note_off_c, 2, 64, 64
1, 11702, Note_off_c, 2, 67, 64
1, 11703, Note_off_c, 7, 59, 64
1, 11704, Note_off_c, 2, 62, 64
1, 11708, Note_off_c, 2, 71, 64
1, 11711, Note_on_c, 9, 40, 124
1, 11712, Note_off_c, 9, 40, 64
1, 11712, Note_on_c, 8, 59, 68
1, 11712, Note_on_c, 8, 55, 78
1, 11712, Note_on_c, 8, 64, 71
1, 11714, Note_on_c, 9, 69, 33
1, 11715, Note_off_c, 9, 69, 64
1, 11721, Note_off_c, 8, 64, 64
1, 11722, Note_off_c, 8, 55, 64
1, 11723, Note_off_c, 8, 59, 64
1, 11733, Note_off_c, 3, 69, 64
1, 11734, Lyric_t, "in "
1, 11734, Note_on_c, 3, 71, 102
1, 11734, Note_on_c, 2, 67, 90
1, 11734, Note_on_c, 2, 71, 90
1, 11734, Note_on_c, 2, 62, 93
1, 11735, Note_on_c, 9, 44, 70
1, 11736, Note_off_c, 9, 44, 64
1, 11736, Note_on_c, 2, 64, 75
1, 11737, Note_on_c, 7, 55, 63
1, 11737, Note_on_c, 9, 69, 30
1, 11738, Note_off_c, 9, 69, 64
1, 11744, Note_off_c, 2, 64, 64
1, 11751, Note_off_c, 2, 67, 64
1, 11753, Note_off_c, 2, 62, 64
1, 11754, Note_off_c, 7, 55, 64
1, 11755, Note_off_c, 3, 71, 64
1, 11756, Note_off_c, 2, 71, 64
1, 11757, Lyric_t, "a "
1, 11757, Note_on_c, 3, 72, 95
1, 11758, Note_on_c, 2, 60, 75
1, 11758, Note_on_c, 2, 69, 90
1, 11759, Note_on_c, 9, 42, 81
1, 11760, Note_off_c, 9, 42, 64
1, 11762, Note_on_c, 9, 69, 52
1, 11763, Note_off_c, 9, 69, 64
1, 11778, Note_off_c, 2, 69, 64
1, 11781, Note_off_c, 3, 72, 64
1, 11781, Note_off_c, 2, 60, 64
1, 11783, Note_on_c, 9, 36, 114
1, 11783, Note_on_c, 1, 36, 105
1, 11783, Note_on_c, 7, 64, 77
1, 11784, Lyric_t, "mil"
1, 11784, Note_on_c, 3, 71, 111
1, 11784, Note_off_c, 9, 36, 64
1, 11784, Note_on_c, 2, 64, 84
1, 11784, Note_on_c, 2, 67, 97
1, 11784, Note_on_c, 2, 71, 90
1, 11784, Note_on_c, 2, 62, 97
1, 11785, Note_on_c, 9, 69, 36
1, 11786, Note_off_c, 9, 69, 64
1, 11798, Note_off_c, 2, 64, 64
1, 11800, Note_off_c, 2, 62, 64
1, 11801, Note_off_c, 2, 67, 64
1, 11801, Note_off_c, 7, 64, 64
1, 11804, Note_off_c, 2, 71, 64
1, 11807, Note_on_c, 9, 42, 81
1, 11808, Note_off_c, 9, 42, 64
1, 11808, Note_off_c, 11, 62, 64
1, 11809, Note_on_c, 9, 69, 40
1, 11810, Note_off_c, 9, 69, 64
1, 11815, Note_off_c, 1, 36, 64
1, 11831, Note_on_c, 7, 55, 80
1, 11832, Note_on_c, 2, 62, 93
1, 11832, Note_on_c, 2, 64, 84
1, 11832, Note_on_c, 2, 67, 97
1, 11832, Note_on_c, 2, 71, 100
1, 11833, Note_on_c, 9, 69, 23
1, 11834, Note_off_c, 9, 69, 64
1, 11850, Note_off_c, 7, 55, 64
1, 11854, Note_off_c, 2, 71, 64
1, 11854, Note_off_c, 2, 67, 64
1, 11854, Note_on_c, 2, 60, 87
1, 11855, Lyric_t, "lion. "
1, 11855, Lyric_t, "\015"
1, 11855, Note_off_c, 3, 71, 64
1, 11855, Note_on_c, 3, 69, 102
1, 11855, Note_on_c, 9, 40, 109
1, 11855, Note_on_c, 9, 42, 94
1, 11855, Note_on_c, 1, 36, 98
1, 11856, Note_off_c, 9, 42, 64
1, 11856, Note_off_c, 9, 40, 64
1, 11856, Note_off_c, 2, 62, 64
1, 11856, Note_on_c, 2, 69, 93
1, 11856, Note_on_c, 9, 69, 58
1, 11857, Note_off_c, 9, 69, 64
1, 11872, Lyric_t, "\012"
1, 11874, Note_off_c, 3, 69, 64
1, 11878, Note_off_c, 2, 60, 64
1, 11879, Note_on_c, 9, 40, 91
1, 11879, Note_on_c, 7, 55, 72
1, 11880, Note_off_c, 9, 40, 64
1, 11882, Note_off_c, 2, 64, 64
1, 11882, Note_on_c, 9, 69, 48
1, 11883, Note_off_c, 9, 69, 64
1, 11884, Note_off_c, 2, 69, 64
1, 11890, Note_off_c, 7, 55, 64
1, 11902, Note_on_c, 2, 69, 97
1, 11903, Note_on_c, 9, 36, 120
1, 11903, Note_off_c, 1, 36, 64
1, 11903, Note_on_c, 1, 31, 98
1, 11904, Time_signature, 4, 2, 24, 8
1, 11904, Lyric_t, "Eyes "
1, 11904, Note_on_c, 3, 69, 111
1, 11904, Note_off_c, 9, 36, 64
1, 11904, Note_on_c, 9, 57, 88
1, 11904, Note_on_c, 2, 64, 80
1, 11904, Note_on_c, 2, 65, 93
1, 11904, Note_on_c, 2, 72, 106
1, 11904, Note_off_c, 11, 67, 64
1, 11904, Note_off_c, 11, 59, 64
1, 11904, Note_off_c, 11, 64, 64
1, 11904, Note_on_c, 11, 62, 58
1, 11904, Note_on_c, 11, 60, 58
1, 11904, Note_on_c, 11, 69, 58
1, 11904, Note_on_c, 11, 65, 58
1, 11905, Note_off_c, 9, 57, 64
1, 11905, Note_on_c, 7, 57, 90
1, 11906, Note_on_c, 9, 69, 23
1, 11907, Note_off_c, 9, 69, 64
1, 11915, Note_off_c, 7, 57, 64
1, 11917, Note_off_c, 2, 64, 64
1, 11917, Note_off_c, 2, 69, 64
1, 11920, Note_off_c, 2, 72, 64
1, 11928, Note_on_c, 2, 64, 73
1, 11928, Note_on_c, 2, 69, 93
1, 11928, Note_on_c, 2, 72, 80
1, 11928, Note_on_c, 7, 57, 80
1, 11929, Note_on_c, 9, 69, 24
1, 11930, Note_off_c, 9, 69, 64
1, 11946, Note_off_c, 7, 57, 64
1, 11948, Note_off_c, 2, 72, 64
1, 11948, Note_off_c, 2, 69, 64
1, 11949, Note_off_c, 2, 64, 64
1, 11950, Note_off_c, 1, 31, 64
1, 11950, Note_on_c, 2, 71, 97
1, 11950, Note_on_c, 2, 62, 84
1, 11951, Note_on_c, 9, 44, 68
1, 11952, Note_off_c, 9, 44, 64
1, 11952, Note_on_c, 7, 59, 74
1, 11953, Note_on_c, 9, 69, 62
1, 11954, Note_off_c, 9, 69, 64
1, 11962, Note_off_c, 2, 65, 64
1, 11966, Note_off_c, 2, 71, 64
1, 11971, Note_off_c, 2, 62, 64
1, 11974, Note_off_c, 7, 59, 64
1, 11976, Note_off_c, 3, 69, 64
1, 11976, Note_on_c, 2, 69, 93
1, 11976, Note_on_c, 2, 65, 93
1, 11976, Note_on_c, 2, 64, 100
1, 11976, Note_on_c, 2, 72, 87
1, 11976, Note_on_c, 8, 57, 62
1, 11976, Note_on_c, 8, 60, 53
1, 11976, Note_on_c, 8, 65, 60
1, 11977, Note_on_c, 9, 42, 78
1, 11977, Note_on_c, 7, 60, 74
1, 11977, Note_on_c, 9, 69, 38
1, 11978, Lyric_t, "can "
1, 11978, Note_on_c, 3, 67, 102
1, 11978, Note_off_c, 9, 42, 64
1, 11978, Note_off_c, 9, 69, 64
1, 11982, Note_off_c, 8, 65, 64
1, 11983, Note_off_c, 8, 60, 64
1, 11984, Note_off_c, 8, 57, 64
1, 11993, Note_off_c, 7, 60, 64
1, 11994, Note_off_c, 2, 64, 64
1, 11996, Note_off_c, 2, 69, 64
1, 11997, Note_off_c, 2, 72, 64
1, 11998, Note_off_c, 2, 65, 64
1, 12001, Note_on_c, 9, 40, 114
1, 12001, Note_on_c, 8, 57, 78
1, 12001, Note_on_c, 8, 60, 68
1, 12001, Note_on_c, 8, 65, 78
1, 12002, Note_off_c, 9, 40, 64
1, 12012, Note_off_c, 8, 60, 64
1, 12013, Note_off_c, 8, 65, 64
1, 12015, Note_off_c, 8, 57, 64
1, 12023, Note_on_c, 9, 44, 70
1, 12024, Note_off_c, 9, 44, 64
1, 12024, Note_on_c, 2, 72, 97
1, 12024, Note_on_c, 2, 69, 90
1, 12024, Note_on_c, 2, 64, 93
1, 12024, Note_on_c, 2, 65, 80
1, 12025, Note_on_c, 7, 57, 77
1, 12025, Note_on_c, 9, 69, 40
1, 12026, Note_off_c, 9, 69, 64
1, 12036, Note_off_c, 2, 65, 64
1, 12040, Note_off_c, 2, 64, 64
1, 12041, Note_off_c, 2, 69, 64
1, 12042, Note_off_c, 7, 57, 64
1, 12044, Note_off_c, 3, 67, 64
1, 12044, Note_off_c, 2, 72, 64
1, 12046, Note_on_c, 2, 62, 80
1, 12046, Note_on_c, 2, 71, 93
1, 12047, Note_on_c, 9, 42, 68
1, 12048, Note_off_c, 9, 42, 64
1, 12049, Lyric_t, "see "
1, 12049, Note_on_c, 3, 69, 111
1, 12049, Note_on_c, 9, 69, 63
1, 12050, Note_off_c, 9, 69, 64
1, 12061, Note_off_c, 2, 71, 64
1, 12070, Note_off_c, 2, 62, 64
1, 12070, Note_on_c, 2, 72, 93
1, 12071, Note_on_c, 1, 31, 95
1, 12072, Note_on_c, 9, 36, 109
1, 12072, Note_on_c, 2, 69, 90
1, 12072, Note_on_c, 2, 65, 78
1, 12072, Note_on_c, 2, 64, 90
1, 12072, Note_on_c, 7, 65, 83
1, 12073, Note_off_c, 9, 36, 64
1, 12073, Note_on_c, 9, 69, 48
1, 12074, Note_off_c, 9, 69, 64
1, 12088, Note_off_c, 2, 64, 64
1, 12089, Note_off_c, 7, 65, 64
1, 12092, Note_off_c, 2, 72, 64
1, 12093, Note_off_c, 2, 69, 64
1, 12094, Note_off_c, 2, 65, 64
1, 12095, Note_on_c, 9, 42, 85
1, 12096, Note_off_c, 9, 42, 64
1, 12096, Note_on_c, 9, 69, 20
1, 12097, Note_off_c, 9, 69, 64
1, 12098, Note_off_c, 1, 31, 64
1, 12119, Note_on_c, 1, 31, 98
1, 12119, Note_on_c, 9, 69, 36
1, 12120, Note_on_c, 2, 64, 90
1, 12120, Note_on_c, 2, 69, 100
1, 12120, Note_on_c, 2, 72, 97
1, 12120, Note_on_c, 2, 65, 90
1, 12120, Note_on_c, 7, 57, 83
1, 12120, Note_off_c, 9, 69, 64
1, 12132, Note_off_c, 3, 69, 64
1, 12132, Note_off_c, 1, 31, 64
1, 12134, Note_off_c, 2, 65, 64
1, 12138, Note_off_c, 2, 69, 64
1, 12138, Note_off_c, 7, 57, 64
1, 12140, Note_off_c, 2, 72, 64
1, 12140, Note_off_c, 2, 64, 64
1, 12142, Note_on_c, 2, 62, 82
1, 12143, Note_on_c, 9, 36, 109
1, 12143, Note_on_c, 9, 42, 78
1, 12143, Note_on_c, 1, 31, 92
1, 12143, Note_on_c, 9, 69, 58
1, 12144, Note_off_c, 9, 42, 64
1, 12144, Note_off_c, 9, 36, 64
1, 12144, Note_on_c, 2, 71, 82
1, 12144, Note_off_c, 9, 69, 64
1, 12157, Note_off_c, 2, 71, 64
1, 12167, Note_on_c, 8, 57, 71
1, 12167, Note_on_c, 8, 65, 71
1, 12167, Note_on_c, 8, 60, 62
1, 12167, Note_on_c, 9, 69, 36
1, 12168, Note_off_c, 9, 69, 64
1, 12169, Note_on_c, 7, 57, 63
1, 12170, Note_off_c, 2, 62, 64
1, 12172, Note_off_c, 8, 65, 64
1, 12173, Note_off_c, 8, 60, 64
1, 12174, Note_off_c, 8, 57, 64
1, 12180, Note_off_c, 7, 57, 64
1, 12188, Lyric_t, "that "
1, 12188, Note_on_c, 3, 67, 111
1, 12189, Note_off_c, 1, 31, 64
1, 12191, Note_on_c, 9, 40, 124
1, 12191, Note_on_c, 9, 42, 94
1, 12191, Note_on_c, 8, 60, 71
1, 12191, Note_on_c, 8, 57, 78
1, 12191, Note_on_c, 8, 65, 75
1, 12192, Note_off_c, 9, 42, 64
1, 12192, Note_off_c, 9, 40, 64
1, 12192, Note_on_c, 2, 69, 106
1, 12192, Note_on_c, 2, 72, 100
1, 12192, Note_on_c, 2, 64, 97
1, 12192, Note_on_c, 2, 65, 100
1, 12193, Note_on_c, 7, 60, 87
1, 12193, Note_on_c, 9, 69, 22
1, 12194, Note_off_c, 9, 69, 64
1, 12199, Note_off_c, 8, 65, 64
1, 12199, Note_off_c, 8, 57, 64
1, 12200, Note_off_c, 8, 60, 64
1, 12204, Note_off_c, 7, 60, 64
1, 12215, Note_on_c, 9, 44, 64
1, 12216, Note_off_c, 9, 44, 64
1, 12216, Note_on_c, 7, 60, 59
1, 12217, Note_on_c, 9, 69, 25
1, 12218, Note_off_c, 9, 69, 64
1, 12230, Note_off_c, 3, 67, 64
1, 12232, Note_off_c, 2, 69, 64
1, 12233, Note_off_c, 2, 64, 64
1, 12236, Note_off_c, 2, 65, 64
1, 12238, Lyric_t, "we "
1, 12238, Note_on_c, 3, 69, 116
1, 12238, Note_off_c, 2, 72, 64
1, 12238, Note_on_c, 2, 62, 80
1, 12238, Note_off_c, 7, 60, 64
1, 12239, Note_on_c, 1, 38, 98
1, 12239, Note_on_c, 8, 57, 89
1, 12239, Note_on_c, 9, 69, 67
1, 12240, Note_on_c, 2, 71, 90
1, 12240, Note_on_c, 8, 65, 89
1, 12240, Note_on_c, 8, 60, 71
1, 12240, Note_off_c, 9, 69, 64
1, 12241, Note_on_c, 9, 46, 78
1, 12241, Note_on_c, 7, 57, 74
1, 12242, Note_off_c, 9, 46, 64
1, 12250, Note_off_c, 8, 60, 64
1, 12250, Note_off_c, 8, 65, 64
1, 12250, Note_off_c, 8, 57, 64
1, 12255, Note_off_c, 7, 57, 64
1, 12258, Note_off_c, 1, 38, 64
1, 12263, Note_on_c, 1, 43, 81
1, 12263, Note_on_c, 9, 69, 38
1, 12264, Note_off_c, 9, 69, 64
1, 12270, Note_off_c, 2, 71, 64
1, 12280, Note_off_c, 2, 62, 64
1, 12286, Note_on_c, 2, 65, 82
1, 12287, Note_on_c, 9, 36, 114
1, 12287, Note_on_c, 1, 31, 98
1, 12287, Note_on_c, 7, 57, 74
1, 12288, Note_off_c, 9, 36, 64
1, 12288, Note_off_c, 1, 43, 64
1, 12288, Note_on_c, 2, 69, 100
1, 12288, Note_on_c, 2, 64, 80
1, 12288, Note_on_c, 2, 72, 106
1, 12289, Note_on_c, 9, 42, 85
1, 12289, Note_on_c, 9, 69, 12
1, 12290, Note_off_c, 9, 42, 64
1, 12290, Note_off_c, 9, 69, 64
1, 12296, Note_off_c, 2, 65, 64
1, 12298, Note_off_c, 2, 69, 64
1, 12298, Note_off_c, 2, 64, 64
1, 12300, Note_off_c, 2, 72, 64
1, 12300, Note_off_c, 7, 57, 64
1, 12310, Note_on_c, 2, 64, 75
1, 12311, Note_on_c, 7, 57, 62
1, 12312, Note_on_c, 2, 65, 73
1, 12312, Note_on_c, 2, 72, 84
1, 12312, Note_on_c, 2, 69, 90
1, 12313, Note_on_c, 9, 69, 24
1, 12314, Note_off_c, 9, 69, 64
1, 12323, Note_off_c, 7, 57, 64
1, 12329, Note_off_c, 2, 65, 64
1, 12330, Note_off_c, 2, 69, 64
1, 12332, Note_off_c, 2, 64, 64
1, 12334, Note_off_c, 2, 72, 64
1, 12334, Note_on_c, 2, 71, 84
1, 12335, Note_on_c, 7, 59, 72
1, 12336, Note_on_c, 2, 62, 76
1, 12337, Note_on_c, 9, 44, 72
1, 12337, Note_on_c, 9, 69, 62
1, 12338, Note_off_c, 9, 44, 64
1, 12338, Note_off_c, 9, 69, 64
1, 12342, Note_off_c, 1, 31, 64
1, 12346, Note_off_c, 3, 69, 64
1, 12354, Note_off_c, 2, 71, 64
1, 12356, Note_off_c, 2, 62, 64
1, 12358, Note_off_c, 7, 59, 64
1, 12359, Note_on_c, 8, 65, 78
1, 12359, Note_on_c, 8, 57, 78
1, 12359, Note_on_c, 8, 60, 65
1, 12360, Note_on_c, 2, 72, 90
1, 12360, Note_on_c, 2, 69, 100
1, 12360, Note_on_c, 2, 64, 93
1, 12360, Note_on_c, 2, 65, 87
1, 12361, Note_on_c, 9, 42, 72
1, 12361, Note_on_c, 7, 60, 80
1, 12361, Note_on_c, 9, 69, 38
1, 12362, Note_off_c, 9, 42, 64
1, 12362, Note_off_c, 9, 69, 64
1, 12365, Note_off_c, 8, 60, 64
1, 12365, Note_off_c, 8, 65, 64
1, 12366, Note_off_c, 8, 57, 64
1, 12376, Note_off_c, 7, 60, 64
1, 12378, Note_off_c, 2, 69, 64
1, 12380, Note_off_c, 2, 64, 64
1, 12381, Note_off_c, 2, 65, 64
1, 12383, Note_on_c, 9, 40, 124
1, 12383, Note_on_c, 9, 69, 19
1, 12384, Note_off_c, 9, 40, 64
1, 12384, Note_off_c, 2, 72, 64
1, 12384, Note_on_c, 8, 60, 75
1, 12384, Note_on_c, 8, 57, 78
1, 12384, Note_off_c, 9, 69, 64
1, 12385, Note_on_c, 8, 65, 78
1, 12394, Note_off_c, 8, 65, 64
1, 12394, Note_off_c, 8, 60, 64
1, 12395, Note_off_c, 8, 57, 64
1, 12407, Note_on_c, 9, 44, 72
1, 12407, Note_on_c, 9, 69, 30
1, 12408, Note_off_c, 9, 44, 64
1, 12408, Note_on_c, 2, 65, 93
1, 12408, Note_on_c, 2, 69, 100
1, 12408, Note_on_c, 2, 64, 90
1, 12408, Note_on_c, 2, 72, 100
1, 12408, Note_off_c, 9, 69, 64
1, 12409, Lyric_t, "got "
1, 12409, Note_on_c, 3, 67, 105
1, 12409, Note_on_c, 7, 57, 72
1, 12425, Note_off_c, 7, 57, 64
1, 12426, Note_off_c, 3, 67, 64
1, 12428, Note_off_c, 2, 69, 64
1, 12428, Note_off_c, 2, 65, 64
1, 12429, Note_off_c, 2, 64, 64
1, 12430, Note_on_c, 2, 62, 84
1, 12431, Lyric_t, "a "
1, 12431, Note_on_c, 3, 69, 102
1, 12431, Note_on_c, 9, 42, 72
1, 12431, Note_on_c, 9, 69, 62
1, 12432, Note_off_c, 9, 42, 64
1, 12432, Note_off_c, 2, 72, 64
1, 12432, Note_on_c, 2, 71, 80
1, 12432, Note_off_c, 9, 69, 64
1, 12449, Note_off_c, 3, 69, 64
1, 12450, Note_off_c, 2, 71, 64
1, 12453, Note_off_c, 2, 62, 64
1, 12454, Note_on_c, 9, 69, 33
1, 12455, Lyric_t, "high"
1, 12455, Note_on_c, 3, 71, 116
1, 12455, Note_on_c, 9, 36, 114
1, 12455, Note_off_c, 9, 69, 64
1, 12456, Note_off_c, 9, 36, 64
1, 12456, Note_on_c, 2, 65, 87
1, 12456, Note_on_c, 2, 64, 90
1, 12456, Note_on_c, 2, 69, 100
1, 12456, Note_on_c, 2, 72, 93
1, 12457, Note_on_c, 1, 31, 98
1, 12457, Note_on_c, 7, 65, 80
1, 12474, Note_off_c, 2, 69, 64
1, 12474, Note_off_c, 2, 65, 64
1, 12475, Note_off_c, 7, 65, 64
1, 12476, Note_off_c, 2, 64, 64
1, 12476, Note_off_c, 2, 72, 64
1, 12479, Note_on_c, 9, 42, 81
1, 12479, Note_on_c, 9, 69, 34
1, 12480, Note_off_c, 9, 42, 64
1, 12480, Note_off_c, 9, 69, 64
1, 12488, Note_off_c, 1, 31, 64
1, 12502, Note_on_c, 2, 64, 87
1, 12503, Note_on_c, 1, 31, 89
1, 12503, Note_on_c, 7, 55, 66
1, 12504, Note_on_c, 2, 65, 90
1, 12504, Note_on_c, 2, 72, 97
1, 12504, Note_on_c, 2, 69, 100
1, 12504, Note_on_c, 9, 69, 33
1, 12505, Note_off_c, 9, 69, 64
1, 12514, Note_off_c, 1, 31, 64
1, 12519, Note_off_c, 2, 64, 64
1, 12520, Note_off_c, 2, 65, 64
1, 12524, Note_off_c, 2, 72, 64
1, 12524, Note_off_c, 2, 69, 64
1, 12526, Note_on_c, 2, 62, 76
1, 12526, Note_on_c, 2, 71, 78
1, 12526, Note_off_c, 7, 55, 64
1, 12527, Lyric_t, "way "
1, 12527, Note_off_c, 3, 71, 64
1, 12527, Note_on_c, 3, 72, 105
1, 12527, Note_on_c, 9, 42, 78
1, 12527, Note_on_c, 1, 31, 95
1, 12528, Note_off_c, 9, 42, 64
1, 12528, Note_on_c, 9, 36, 109
1, 12528, Note_on_c, 9, 69, 60
1, 12529, Note_off_c, 9, 36, 64
1, 12529, Note_off_c, 9, 69, 64
1, 12544, Note_off_c, 2, 71, 64
1, 12550, Note_on_c, 8, 57, 68
1, 12550, Note_on_c, 8, 65, 68
1, 12551, Note_on_c, 7, 55, 63
1, 12551, Note_on_c, 8, 60, 60
1, 12552, Note_on_c, 9, 69, 45
1, 12553, Note_off_c, 9, 69, 64
1, 12555, Note_off_c, 8, 65, 64
1, 12556, Note_off_c, 8, 60, 64
1, 12557, Note_off_c, 8, 57, 64
1, 12561, Note_off_c, 1, 31, 64
1, 12562, Note_off_c, 7, 55, 64
1, 12570, Note_off_c, 2, 62, 64
1, 12574, Note_on_c, 2, 64, 93
1, 12574, Note_on_c, 2, 69, 111
1, 12574, Note_on_c, 8, 57, 75
1, 12574, Note_on_c, 8, 60, 65
1, 12574, Note_on_c, 8, 65, 65
1, 12575, Note_on_c, 9, 42, 81
1, 12576, Note_off_c, 9, 42, 64
1, 12576, Note_on_c, 9, 40, 124
1, 12576, Note_on_c, 2, 65, 93
1, 12576, Note_on_c, 2, 72, 106
1, 12576, Note_on_c, 7, 59, 83
1, 12576, Note_off_c, 11, 62, 64
1, 12577, Lyric_t, "to "
1, 12577, Note_off_c, 3, 72, 64
1, 12577, Note_on_c, 3, 71, 105
1, 12577, Note_off_c, 9, 40, 64
1, 12577, Note_on_c, 9, 69, 42
1, 12578, Note_off_c, 9, 69, 64
1, 12580, Note_off_c, 8, 65, 64
1, 12582, Note_off_c, 8, 60, 64
1, 12585, Note_off_c, 8, 57, 64
1, 12597, Note_off_c, 7, 59, 64
1, 12599, Note_on_c, 9, 44, 70
1, 12599, Note_on_c, 1, 31, 92
1, 12600, Note_off_c, 9, 44, 64
1, 12601, Note_on_c, 9, 69, 30
1, 12602, Note_off_c, 9, 69, 64
1, 12609, Note_off_c, 1, 31, 64
1, 12618, Note_off_c, 2, 65, 64
1, 12620, Note_off_c, 2, 69, 64
1, 12623, Lyric_t, "the "
1, 12623, Note_off_c, 3, 71, 64
1, 12623, Note_on_c, 3, 67, 98
1, 12623, Note_on_c, 9, 46, 78
1, 12623, Note_on_c, 8, 57, 78
1, 12623, Note_on_c, 8, 60, 68
1, 12623, Note_on_c, 8, 65, 78
1, 12624, Note_off_c, 9, 46, 64
1, 12624, Note_on_c, 1, 31, 95
1, 12624, Note_off_c, 2, 72, 64
1, 12624, Note_on_c, 2, 71, 106
1, 12624, Note_on_c, 2, 62, 78
1, 12624, Note_on_c, 9, 69, 60
1, 12625, Note_on_c, 7, 55, 65
1, 12625, Note_off_c, 9, 69, 64
1, 12630, Note_off_c, 2, 62, 64
1, 12631, Note_off_c, 8, 65, 64
1, 12634, Note_off_c, 8, 60, 64
1, 12634, Note_off_c, 8, 57, 64
1, 12635, Note_off_c, 2, 64, 64
1, 12642, Note_off_c, 7, 55, 64
1, 12646, Note_off_c, 1, 31, 64
1, 12647, Note_on_c, 1, 33, 89
1, 12648, Note_on_c, 9, 69, 30
1, 12649, Note_off_c, 9, 69, 64
1, 12656, Note_off_c, 2, 71, 64
1, 12663, Note_off_c, 3, 67, 64
1, 12671, Note_on_c, 9, 36, 120
1, 12672, Note_off_c, 9, 36, 64
1, 12672, Note_on_c, 2, 64, 106
1, 12672, Note_on_c, 2, 67, 106
1, 12672, Note_on_c, 2, 71, 106
1, 12672, Note_on_c, 2, 74, 106
1, 12672, Note_off_c, 11, 60, 64
1, 12672, Note_off_c, 11, 69, 64
1, 12672, Note_off_c, 11, 65, 64
1, 12672, Note_on_c, 11, 71, 55
1, 12672, Note_on_c, 11, 67, 55
1, 12672, Note_on_c, 11, 62, 55
1, 12672, Note_on_c, 11, 64, 55
1, 12673, Lyric_t, "sky-"
1, 12673, Note_on_c, 3, 69, 111
1, 12673, Note_on_c, 9, 42, 81
1, 12673, Note_off_c, 1, 33, 64
1, 12673, Note_on_c, 1, 36, 98
1, 12673, Note_on_c, 7, 55, 77
1, 12673, Note_on_c, 9, 69, 40
1, 12674, Note_off_c, 9, 42, 64
1, 12674, Note_off_c, 9, 69, 64
1, 12682, Note_off_c, 2, 74, 64
1, 12684, Note_off_c, 2, 71, 64
1, 12684, Note_off_c, 7, 55, 64
1, 12685, Note_off_c, 2, 67, 64
1, 12686, Note_off_c, 2, 64, 64
1, 12695, Note_on_c, 9, 69, 31
1, 12696, Note_on_c, 2, 64, 90
1, 12696, Note_on_c, 2, 71, 93
1, 12696, Note_on_c, 2, 67, 82
1, 12696, Note_on_c, 2, 74, 84
1, 12696, Note_on_c, 7, 55, 72
1, 12696, Note_off_c, 9, 69, 64
1, 12708, Note_off_c, 3, 69, 64
1, 12710, Note_off_c, 1, 36, 64
1, 12710, Note_off_c, 7, 55, 64
1, 12716, Note_off_c, 2, 71, 64
1, 12718, Note_off_c, 2, 74, 64
1, 12719, Note_on_c, 7, 57, 77
1, 12720, Note_on_c, 2, 72, 87
1, 12720, Note_on_c, 2, 69, 78
1, 12720, Note_on_c, 9, 69, 59
1, 12721, Note_on_c, 9, 44, 70
1, 12721, Note_off_c, 9, 69, 64
1, 12722, Note_off_c, 9, 44, 64
1, 12723, Lyric_t, "y. "
1, 12723, Lyric_t, "\015"
1, 12723, Note_on_c, 3, 69, 116
1, 12725, Note_off_c, 2, 67, 64
1, 12736, Note_off_c, 2, 64, 64
1, 12737, Note_off_c, 2, 69, 64
1, 12738, Note_off_c, 2, 72, 64
1, 12740, Note_off_c, 7, 57, 64
1, 12743, Note_on_c, 8, 55, 56
1, 12743, Note_on_c, 8, 59, 54
1, 12743, Note_on_c, 8, 64, 53
1, 12744, Note_on_c, 2, 64, 84
1, 12744, Note_on_c, 2, 71, 100
1, 12744, Note_on_c, 2, 74, 97
1, 12744, Note_on_c, 2, 67, 84
1, 12744, Note_on_c, 7, 59, 77
1, 12745, Note_on_c, 9, 42, 78
1, 12745, Note_on_c, 9, 69, 40
1, 12746, Note_off_c, 9, 42, 64
1, 12746, Note_off_c, 9, 69, 64
1, 12749, Note_off_c, 8, 64, 64
1, 12750, Note_off_c, 8, 59, 64
1, 12751, Note_off_c, 8, 55, 64
1, 12761, Note_off_c, 7, 59, 64
1, 12762, Note_off_c, 2, 67, 64
1, 12766, Note_off_c, 2, 64, 64
1, 12766, Note_off_c, 2, 71, 64
1, 12766, Note_off_c, 2, 74, 64
1, 12768, Note_off_c, 3, 69, 64
1, 12768, Note_on_c, 8, 64, 75
1, 12768, Note_on_c, 8, 55, 78
1, 12768, Note_on_c, 9, 69, 30
1, 12769, Note_on_c, 3, 67, 105
1, 12769, Note_on_c, 9, 40, 124
1, 12769, Note_on_c, 8, 59, 89
1, 12769, Note_off_c, 9, 69, 64
1, 12770, Note_off_c, 9, 40, 64
1, 12778, Note_off_c, 8, 59, 64
1, 12779, Note_off_c, 8, 55, 64
1, 12780, Note_off_c, 8, 64, 64
1, 12791, Note_on_c, 9, 44, 78
1, 12791, Note_on_c, 9, 69, 30
1, 12792, Note_off_c, 9, 44, 64
1, 12792, Note_on_c, 2, 74, 100
1, 12792, Note_on_c, 2, 71, 100
1, 12792, Note_on_c, 2, 64, 90
1, 12792, Note_on_c, 2, 67, 87
1, 12792, Note_off_c, 9, 69, 64
1, 12793, Note_on_c, 7, 55, 72
1, 12806, Note_off_c, 7, 55, 64
1, 12809, Note_off_c, 2, 71, 64
1, 12813, Note_off_c, 2, 74, 64
1, 12815, Note_on_c, 9, 69, 63
1, 12816, Note_on_c, 9, 42, 72
1, 12816, Note_on_c, 2, 72, 75
1, 12816, Note_on_c, 2, 69, 75
1, 12816, Note_off_c, 9, 69, 64
1, 12817, Note_off_c, 9, 42, 64
1, 12826, Note_off_c, 2, 67, 64
1, 12829, Note_off_c, 2, 64, 64
1, 12830, Note_off_c, 2, 69, 64
1, 12834, Note_off_c, 2, 72, 64
1, 12840, Note_on_c, 1, 36, 105
1, 12840, Note_on_c, 2, 64, 90
1, 12840, Note_on_c, 2, 67, 82
1, 12840, Note_on_c, 2, 71, 116
1, 12840, Note_on_c, 2, 74, 97
1, 12840, Note_on_c, 9, 69, 38
1, 12841, Note_on_c, 9, 36, 114
1, 12841, Note_on_c, 7, 64, 77
1, 12841, Note_off_c, 9, 69, 64
1, 12842, Note_off_c, 9, 36, 64
1, 12857, Note_off_c, 7, 64, 64
1, 12858, Note_off_c, 2, 67, 64
1, 12860, Note_off_c, 1, 36, 64
1, 12862, Note_off_c, 2, 74, 64
1, 12863, Note_on_c, 9, 42, 85
1, 12864, Note_off_c, 9, 42, 64
1, 12864, Note_off_c, 2, 71, 64
1, 12864, Note_off_c, 2, 64, 64
1, 12864, Note_on_c, 9, 69, 22
1, 12865, Note_off_c, 9, 69, 64
1, 12886, Note_off_c, 3, 67, 64
1, 12888, Note_on_c, 2, 71, 100
1, 12888, Note_on_c, 2, 74, 97
1, 12888, Note_on_c, 2, 64, 76
1, 12888, Note_on_c, 2, 67, 82
1, 12888, Note_on_c, 7, 55, 74
1, 12889, Note_on_c, 1, 36, 95
1, 12889, Note_on_c, 9, 69, 34
1, 12890, Note_off_c, 9, 69, 64
1, 12902, Note_off_c, 1, 36, 64
1, 12904, Note_off_c, 7, 55, 64
1, 12906, Note_off_c, 2, 71, 64
1, 12909, Note_off_c, 2, 74, 64
1, 12911, Note_on_c, 9, 36, 109
1, 12911, Note_on_c, 1, 36, 89
1, 12912, Note_off_c, 9, 36, 64
1, 12912, Note_on_c, 9, 42, 72
1, 12912, Note_on_c, 2, 72, 82
1, 12912, Note_on_c, 2, 69, 75
1, 12913, Note_off_c, 9, 42, 64
1, 12913, Note_on_c, 9, 69, 53
1, 12914, Note_off_c, 9, 69, 64
1, 12921, Note_off_c, 2, 67, 64
1, 12932, Note_off_c, 2, 64, 64
1, 12932, Note_off_c, 2, 72, 64
1, 12932, Note_off_c, 2, 69, 64
1, 12934, Lyric_t, "I "
1, 12934, Note_on_c, 3, 62, 116
1, 12935, Note_on_c, 8, 55, 65
1, 12935, Note_on_c, 8, 64, 58
1, 12936, Note_on_c, 7, 55, 72
1, 12937, Note_on_c, 8, 59, 50
1, 12937, Note_on_c, 9, 69, 36
1, 12938, Note_off_c, 9, 69, 64
1, 12941, Note_off_c, 8, 59, 64
1, 12941, Note_off_c, 8, 64, 64
1, 12942, Note_off_c, 1, 36, 64
1, 12943, Note_off_c, 8, 55, 64
1, 12946, Note_off_c, 3, 62, 64
1, 12947, Note_off_c, 7, 55, 64
1, 12959, Note_on_c, 8, 55, 68
1, 12959, Note_on_c, 8, 64, 65
1, 12959, Note_on_c, 8, 59, 71
1, 12960, Note_on_c, 2, 71, 116
1, 12960, Note_on_c, 2, 67, 100
1, 12960, Note_on_c, 2, 74, 111
1, 12960, Note_on_c, 2, 64, 82
1, 12961, Lyric_t, "don't "
1, 12961, Note_on_c, 3, 62, 105
1, 12961, Note_on_c, 9, 40, 127
1, 12961, Note_on_c, 9, 42, 85
1, 12961, Note_on_c, 7, 59, 80
1, 12961, Note_on_c, 9, 69, 31
1, 12962, Note_off_c, 9, 42, 64
1, 12962, Note_off_c, 9, 40, 64
1, 12962, Note_off_c, 9, 69, 64
1, 12967, Note_off_c, 8, 59, 64
1, 12968, Note_off_c, 8, 64, 64
1, 12969, Note_off_c, 8, 55, 64
1, 12970, Note_off_c, 2, 64, 64
1, 12974, Note_off_c, 7, 59, 64
1, 12980, Note_off_c, 3, 62, 64
1, 12983, Note_on_c, 1, 31, 87
1, 12984, Lyric_t, "wan"
1, 12984, Note_on_c, 3, 64, 98
1, 12984, Note_on_c, 9, 44, 64
1, 12984, Note_on_c, 7, 59, 74
1, 12985, Note_off_c, 9, 44, 64
1, 12985, Note_on_c, 9, 69, 23
1, 12986, Note_off_c, 9, 69, 64
1, 13002, Note_off_c, 2, 71, 64
1, 13003, Note_off_c, 7, 59, 64
1, 13005, Note_off_c, 3, 64, 64
1, 13005, Note_off_c, 1, 31, 64
1, 13007, Note_on_c, 1, 36, 92
1, 13007, Note_on_c, 8, 55, 78
1, 13007, Note_on_c, 9, 69, 51
1, 13008, Note_on_c, 2, 72, 93
1, 13008, Note_on_c, 2, 64, 93
1, 13008, Note_on_c, 2, 69, 100
1, 13008, Note_on_c, 8, 64, 78
1, 13008, Note_on_c, 8, 59, 78
1, 13008, Note_off_c, 9, 69, 64
1, 13009, Lyric_t, "na "
1, 13009, Note_on_c, 3, 67, 98
1, 13009, Note_on_c, 9, 46, 78
1, 13009, Note_on_c, 7, 55, 72
1, 13010, Note_off_c, 9, 46, 64
1, 13010, Note_off_c, 2, 74, 64
1, 13016, Note_off_c, 2, 67, 64
1, 13018, Note_off_c, 8, 59, 64
1, 13018, Note_off_c, 8, 64, 64
1, 13018, Note_off_c, 8, 55, 64
1, 13022, Note_off_c, 2, 64, 64
1, 13024, Note_off_c, 7, 55, 64
1, 13027, Note_off_c, 3, 67, 64
1, 13028, Note_off_c, 1, 36, 64
1, 13031, Note_on_c, 1, 35, 83
1, 13032, Note_off_c, 2, 72, 64
1, 13032, Note_on_c, 9, 69, 34
1, 13033, Note_off_c, 2, 69, 64
1, 13033, Note_off_c, 9, 69, 64
1, 13035, Lyric_t, "hear "
1, 13035, Note_on_c, 3, 69, 116
1, 13055, Note_off_c, 1, 35, 64
1, 13056, Note_on_c, 1, 33, 98
1, 13056, Note_on_c, 2, 71, 106
1, 13056, Note_on_c, 2, 64, 100
1, 13056, Note_on_c, 2, 67, 100
1, 13056, Note_on_c, 7, 52, 83
1, 13056, Note_off_c, 11, 62, 64
1, 13056, Note_off_c, 11, 71, 64
1, 13056, Note_on_c, 11, 72, 56
1, 13056, Note_on_c, 11, 69, 56
1, 13057, Note_on_c, 9, 36, 114
1, 13057, Note_on_c, 9, 42, 85
1, 13058, Note_off_c, 9, 42, 64
1, 13058, Note_off_c, 9, 36, 64
1, 13070, Note_off_c, 7, 52, 64
1, 13076, Note_off_c, 2, 71, 64
1, 13078, Note_off_c, 2, 67, 64
1, 13079, Note_on_c, 9, 69, 22
1, 13080, Note_on_c, 2, 72, 84
1, 13080, Note_on_c, 2, 69, 76
1, 13080, Note_off_c, 9, 69, 64
1, 13081, Note_on_c, 7, 52, 72
1, 13096, Note_off_c, 7, 52, 64
1, 13098, Note_off_c, 2, 69, 64
1, 13100, Note_off_c, 2, 72, 64
1, 13103, Note_on_c, 9, 69, 51
1, 13104, Note_on_c, 9, 44, 68
1, 13104, Note_on_c, 2, 67, 84
1, 13104, Note_on_c, 2, 71, 106
1, 13104, Note_off_c, 9, 69, 64
1, 13105, Note_off_c, 9, 44, 64
1, 13105, Note_on_c, 7, 57, 87
1, 13111, Note_off_c, 1, 33, 64
1, 13121, Note_off_c, 2, 71, 64
1, 13122, Note_off_c, 2, 64, 64
1, 13122, Note_off_c, 7, 57, 64
1, 13124, Note_off_c, 2, 67, 64
1, 13127, Note_on_c, 9, 69, 48
1, 13128, Note_off_c, 3, 69, 64
1, 13128, Note_on_c, 2, 72, 97
1, 13128, Note_on_c, 2, 69, 97
1, 13128, Note_on_c, 2, 64, 90
1, 13128, Note_on_c, 8, 57, 71
1, 13128, Note_off_c, 9, 69, 64
1, 13129, Note_on_c, 9, 42, 81
1, 13129, Note_on_c, 7, 60, 77
1, 13129, Note_on_c, 8, 60, 60
1, 13129, Note_on_c, 8, 64, 54
1, 13130, Lyric_t, "your "
1, 13130, Note_on_c, 3, 64, 111
1, 13130, Note_off_c, 9, 42, 64
1, 13134, Note_off_c, 8, 60, 64
1, 13135, Note_off_c, 8, 64, 64
1, 13137, Note_off_c, 8, 57, 64
1, 13146, Note_off_c, 7, 60, 64
1, 13150, Note_off_c, 2, 64, 64
1, 13150, Note_off_c, 2, 72, 64
1, 13152, Note_on_c, 9, 40, 120
1, 13152, Note_off_c, 2, 69, 64
1, 13153, Note_off_c, 9, 40, 64
1, 13153, Note_on_c, 8, 57, 84
1, 13153, Note_on_c, 8, 64, 62
1, 13154, Note_on_c, 8, 60, 60
1, 13154, Note_on_c, 9, 69, 33
1, 13155, Note_off_c, 9, 69, 64
1, 13162, Note_off_c, 8, 60, 64
1, 13162, Note_off_c, 8, 57, 64
1, 13164, Note_off_c, 8, 64, 64
1, 13174, Note_off_c, 3, 64, 64
1, 13176, Note_on_c, 3, 62, 98
1, 13176, Note_on_c, 2, 69, 106
1, 13176, Note_on_c, 2, 64, 93
1, 13176, Note_on_c, 2, 72, 106
1, 13177, Note_on_c, 9, 44, 78
1, 13177, Note_on_c, 7, 57, 83
1, 13177, Note_on_c, 9, 69, 26
1, 13178, Note_off_c, 9, 44, 64
1, 13178, Note_off_c, 9, 69, 64
1, 13190, Note_off_c, 7, 57, 64
1, 13192, Note_off_c, 2, 69, 64
1, 13196, Note_off_c, 2, 72, 64
1, 13198, Note_on_c, 2, 67, 75
1, 13200, Note_on_c, 2, 71, 84
1, 13201, Note_on_c, 9, 42, 81
1, 13201, Note_on_c, 9, 69, 61
1, 13202, Note_off_c, 3, 62, 64
1, 13202, Note_on_c, 3, 60, 98
1, 13202, Note_off_c, 9, 42, 64
1, 13202, Note_off_c, 9, 69, 64
1, 13213, Note_off_c, 2, 67, 64
1, 13214, Note_off_c, 2, 64, 64
1, 13218, Note_off_c, 2, 71, 64
1, 13222, Note_on_c, 2, 64, 65
1, 13223, Note_on_c, 1, 28, 85
1, 13224, Note_on_c, 2, 72, 97
1, 13224, Note_on_c, 2, 69, 100
1, 13224, Note_on_c, 9, 69, 40
1, 13225, Note_on_c, 9, 36, 114
1, 13225, Note_on_c, 7, 64, 77
1, 13225, Note_off_c, 9, 69, 64
1, 13226, Note_off_c, 9, 36, 64
1, 13245, Note_off_c, 2, 72, 64
1, 13245, Note_off_c, 7, 64, 64
1, 13246, Note_off_c, 1, 28, 64
1, 13246, Note_off_c, 2, 69, 64
1, 13247, Note_on_c, 9, 42, 78
1, 13247, Note_on_c, 1, 33, 98
1, 13248, Note_off_c, 9, 42, 64
1, 13248, Note_off_c, 2, 64, 64
1, 13250, Note_on_c, 9, 69, 33
1, 13251, Note_off_c, 9, 69, 64
1, 13270, Note_on_c, 2, 72, 100
1, 13270, Note_on_c, 2, 69, 93
1, 13272, Note_on_c, 2, 64, 97
1, 13272, Note_on_c, 7, 57, 87
1, 13273, Note_on_c, 9, 69, 30
1, 13274, Note_off_c, 9, 69, 64
1, 13287, Note_off_c, 2, 69, 64
1, 13287, Note_off_c, 7, 57, 64
1, 13291, Note_off_c, 1, 33, 64
1, 13292, Note_off_c, 2, 72, 64
1, 13295, Note_on_c, 9, 42, 81
1, 13296, Note_off_c, 9, 42, 64
1, 13296, Note_on_c, 9, 36, 109
1, 13296, Note_on_c, 2, 71, 84
1, 13296, Note_on_c, 2, 67, 73
1, 13297, Note_off_c, 9, 36, 64
1, 13298, Note_on_c, 9, 69, 52
1, 13299, Note_off_c, 9, 69, 64
1, 13306, Note_off_c, 2, 67, 64
1, 13309, Note_off_c, 2, 71, 64
1, 13319, Note_on_c, 7, 57, 80
1, 13319, Note_on_c, 8, 57, 71
1, 13320, Note_off_c, 2, 64, 64
1, 13320, Note_on_c, 8, 60, 50
1, 13320, Note_on_c, 8, 64, 53
1, 13321, Note_on_c, 9, 69, 36
1, 13322, Note_off_c, 9, 69, 64
1, 13326, Note_off_c, 8, 64, 64
1, 13326, Note_off_c, 8, 60, 64
1, 13326, Note_off_c, 8, 57, 64
1, 13334, Note_off_c, 3, 60, 64
1, 13336, Note_off_c, 7, 57, 64
1, 13342, Note_on_c, 2, 64, 100
1, 13342, Note_on_c, 2, 72, 106
1, 13342, Note_on_c, 2, 69, 116
1, 13343, Note_on_c, 9, 40, 124
1, 13343, Note_on_c, 8, 57, 78
1, 13344, Note_off_c, 9, 40, 64
1, 13344, Note_on_c, 9, 42, 85
1, 13345, Note_off_c, 9, 42, 64
1, 13345, Note_on_c, 7, 60, 74
1, 13345, Note_on_c, 8, 64, 58
1, 13345, Note_on_c, 8, 60, 62
1, 13345, Note_on_c, 9, 69, 40
1, 13346, Note_off_c, 9, 69, 64
1, 13353, Note_off_c, 8, 57, 64
1, 13354, Note_off_c, 7, 60, 64
1, 13354, Note_off_c, 8, 64, 64
1, 13355, Note_off_c, 8, 60, 64
1, 13367, Note_on_c, 1, 31, 95
1, 13368, Note_on_c, 7, 60, 62
1, 13369, Note_on_c, 9, 44, 78
1, 13369, Note_on_c, 9, 69, 23
1, 13370, Note_off_c, 9, 44, 64
1, 13370, Note_off_c, 2, 64, 64
1, 13370, Note_off_c, 9, 69, 64
1, 13384, Note_off_c, 2, 69, 64
1, 13387, Note_off_c, 7, 60, 64
1, 13389, Note_off_c, 1, 31, 64
1, 13389, Note_off_c, 2, 72, 64
1, 13390, Lyric_t, "good"
1, 13390, Note_on_c, 3, 62, 105
1, 13391, Note_on_c, 1, 33, 81
1, 13391, Note_on_c, 8, 57, 78
1, 13392, Note_on_c, 2, 71, 93
1, 13392, Note_on_c, 2, 67, 90
1, 13392, Note_on_c, 2, 64, 100
1, 13392, Note_on_c, 8, 60, 62
1, 13392, Note_on_c, 8, 64, 62
1, 13392, Note_on_c, 9, 69, 58
1, 13393, Note_on_c, 9, 46, 72
1, 13393, Note_on_c, 7, 57, 80
1, 13393, Note_off_c, 9, 69, 64
1, 13394, Note_off_c, 9, 46, 64
1, 13401, Note_off_c, 8, 64, 64
1, 13402, Note_off_c, 8, 57, 64
1, 13405, Note_off_c, 8, 60, 64
1, 13407, Note_off_c, 1, 33, 64
1, 13408, Note_off_c, 2, 64, 64
1, 13412, Note_off_c, 2, 71, 64
1, 13415, Note_on_c, 1, 33, 92
1, 13418, Note_on_c, 9, 69, 48
1, 13419, Note_off_c, 9, 69, 64
1, 13422, Note_off_c, 3, 62, 64
1, 13422, Note_off_c, 2, 67, 64
1, 13434, Note_off_c, 7, 57, 64
1, 13439, Note_on_c, 1, 36, 102
1, 13439, Note_off_c, 11, 67, 64
1, 13440, Note_on_c, 9, 42, 81
1, 13440, Note_off_c, 1, 33, 64
1, 13440, Note_on_c, 2, 62, 93
1, 13440, Note_on_c, 2, 67, 106
1, 13440, Note_on_c, 2, 64, 93
1, 13440, Note_on_c, 2, 71, 111
1, 13440, Note_off_c, 11, 69, 64
1, 13440, Note_off_c, 11, 72, 64
1, 13440, Note_on_c, 11, 62, 57
1, 13440, Note_on_c, 11, 67, 57
1, 13440, Note_on_c, 11, 71, 57
1, 13441, Note_off_c, 9, 42, 64
1, 13441, Note_on_c, 9, 36, 114
1, 13441, Note_on_c, 7, 55, 77
1, 13442, Lyric_t, "bye. "
1, 13442, Lyric_t, "\015"
1, 13442, Note_on_c, 3, 64, 105
1, 13442, Note_off_c, 9, 36, 64
1, 13442, Note_on_c, 9, 69, 23
1, 13443, Note_off_c, 9, 69, 64
1, 13449, Note_off_c, 2, 67, 64
1, 13450, Note_off_c, 2, 71, 64
1, 13452, Note_off_c, 2, 64, 64
1, 13452, Note_off_c, 7, 55, 64
1, 13454, Note_off_c, 2, 62, 64
1, 13464, Note_on_c, 2, 64, 80
1, 13464, Note_on_c, 2, 62, 82
1, 13464, Note_on_c, 2, 67, 82
1, 13464, Note_on_c, 2, 71, 87
1, 13465, Note_on_c, 7, 55, 62
1, 13465, Note_on_c, 9, 69, 24
1, 13466, Note_off_c, 3, 64, 64
1, 13466, Note_off_c, 9, 69, 64
1, 13468, Note_on_c, 3, 67, 111
1, 13479, Note_off_c, 7, 55, 64
1, 13484, Note_off_c, 2, 71, 64
1, 13485, Note_off_c, 2, 67, 64
1, 13486, Note_off_c, 2, 62, 64
1, 13486, Note_off_c, 2, 64, 64
1, 13488, Note_off_c, 1, 36, 64
1, 13488, Note_on_c, 2, 69, 82
1, 13488, Note_on_c, 2, 60, 73
1, 13488, Note_on_c, 7, 57, 83
1, 13489, Note_on_c, 9, 44, 70
1, 13489, Note_on_c, 9, 69, 62
1, 13490, Note_off_c, 9, 44, 64
1, 13490, Note_off_c, 9, 69, 64
1, 13505, Note_off_c, 2, 69, 64
1, 13508, Note_off_c, 2, 60, 64
1, 13510, Note_off_c, 7, 57, 64
1, 13511, Note_off_c, 3, 67, 64
1, 13511, Note_on_c, 8, 55, 68
1, 13511, Note_on_c, 8, 64, 65
1, 13511, Note_on_c, 8, 59, 62
1, 13512, Note_on_c, 2, 71, 93
1, 13512, Note_on_c, 2, 67, 90
1, 13512, Note_on_c, 2, 64, 73
1, 13512, Note_on_c, 2, 62, 90
1, 13513, Note_on_c, 3, 64, 102
1, 13513, Note_on_c, 9, 42, 70
1, 13513, Note_on_c, 7, 59, 77
1, 13513, Note_on_c, 9, 69, 38
1, 13514, Note_off_c, 9, 42, 64
1, 13514, Note_off_c, 9, 69, 64
1, 13516, Note_off_c, 8, 59, 64
1, 13517, Note_off_c, 8, 64, 64
1, 13519, Note_off_c, 8, 55, 64
1, 13526, Note_off_c, 2, 64, 64
1, 13528, Note_off_c, 2, 62, 64
1, 13530, Note_off_c, 2, 67, 64
1, 13530, Note_off_c, 7, 59, 64
1, 13533, Note_off_c, 2, 71, 64
1, 13535, Note_on_c, 9, 40, 120
1, 13536, Note_off_c, 9, 40, 64
1, 13536, Note_on_c, 8, 59, 84
1, 13536, Note_on_c, 8, 55, 84
1, 13537, Note_on_c, 8, 64, 71
1, 13543, Note_off_c, 8, 64, 64
1, 13545, Note_off_c, 8, 59, 64
1, 13547, Note_off_c, 8, 55, 64
1, 13559, Note_on_c, 7, 55, 70
1, 13560, Note_on_c, 2, 67, 97
1, 13560, Note_on_c, 2, 62, 82
1, 13560, Note_on_c, 2, 71, 106
1, 13560, Note_on_c, 2, 64, 80
1, 13561, Note_on_c, 9, 44, 78
1, 13561, Note_on_c, 9, 69, 40
1, 13562, Note_off_c, 9, 44, 64
1, 13562, Note_off_c, 9, 69, 64
1, 13573, Note_off_c, 7, 55, 64
1, 13578, Note_off_c, 2, 71, 64
1, 13578, Note_off_c, 2, 62, 64
1, 13580, Note_off_c, 2, 67, 64
1, 13581, Note_off_c, 2, 64, 64
1, 13583, Note_on_c, 1, 36, 98
1, 13584, Note_on_c, 9, 42, 78
1, 13584, Note_on_c, 2, 60, 69
1, 13584, Note_on_c, 2, 69, 82
1, 13585, Note_off_c, 9, 42, 64
1, 13585, Note_on_c, 9, 69, 63
1, 13586, Note_off_c, 9, 69, 64
1, 13596, Note_off_c, 2, 69, 64
1, 13602, Note_off_c, 1, 36, 64
1, 13602, Note_off_c, 2, 60, 64
1, 13607, Note_on_c, 9, 36, 109
1, 13607, Note_on_c, 1, 36, 98
1, 13607, Note_on_c, 7, 64, 72
1, 13608, Note_off_c, 9, 36, 64
1, 13608, Note_on_c, 2, 71, 93
1, 13608, Note_on_c, 2, 67, 93
1, 13608, Note_on_c, 2, 64, 69
1, 13608, Note_on_c, 2, 62, 84
1, 13609, Note_on_c, 9, 69, 48
1, 13610, Note_off_c, 9, 69, 64
1, 13625, Note_off_c, 2, 62, 64
1, 13626, Note_off_c, 2, 64, 64
1, 13626, Note_off_c, 2, 71, 64
1, 13627, Note_off_c, 7, 64, 64
1, 13628, Note_off_c, 2, 67, 64
1, 13632, Note_off_c, 1, 36, 64
1, 13632, Note_on_c, 9, 69, 20
1, 13633, Note_on_c, 9, 42, 85
1, 13633, Note_off_c, 9, 69, 64
1, 13634, Note_off_c, 9, 42, 64
1, 13654, Note_on_c, 2, 71, 97
1, 13654, Note_on_c, 2, 67, 90
1, 13655, Note_on_c, 9, 69, 36
1, 13656, Note_on_c, 2, 62, 87
1, 13656, Note_on_c, 2, 64, 82
1, 13656, Note_off_c, 9, 69, 64
1, 13657, Note_on_c, 7, 55, 68
1, 13669, Note_off_c, 2, 67, 64
1, 13670, Note_off_c, 2, 62, 64
1, 13673, Note_off_c, 2, 71, 64
1, 13675, Note_off_c, 7, 55, 64
1, 13676, Note_off_c, 2, 64, 64
1, 13678, Note_on_c, 2, 60, 70
1, 13679, Note_on_c, 9, 42, 72
1, 13679, Note_on_c, 1, 36, 111
1, 13679, Note_on_c, 9, 69, 58
1, 13680, Note_off_c, 9, 42, 64
1, 13680, Note_on_c, 2, 69, 70
1, 13680, Note_off_c, 9, 69, 64
1, 13681, Note_on_c, 9, 36, 114
1, 13682, Note_off_c, 9, 36, 64
1, 13698, Note_off_c, 2, 69, 64
1, 13702, Note_on_c, 8, 55, 60
1, 13702, Note_on_c, 8, 59, 62
1, 13702, Note_on_c, 8, 64, 56
1, 13703, Note_on_c, 7, 55, 66
1, 13703, Note_on_c, 9, 69, 36
1, 13704, Note_off_c, 9, 69, 64
1, 13706, Note_off_c, 2, 60, 64
1, 13708, Note_off_c, 8, 64, 64
1, 13708, Note_off_c, 8, 59, 64
1, 13710, Note_off_c, 8, 55, 64
1, 13713, Note_off_c, 1, 36, 64
1, 13713, Note_off_c, 7, 55, 64
1, 13723, Note_off_c, 3, 64, 64
1, 13726, Note_on_c, 8, 59, 75
1, 13726, Note_on_c, 8, 55, 75
1, 13726, Note_on_c, 8, 64, 62
1, 13728, Note_on_c, 2, 62, 97
1, 13728, Note_on_c, 2, 71, 106
1, 13728, Note_on_c, 2, 67, 100
1, 13728, Note_on_c, 2, 64, 93
1, 13729, Note_on_c, 9, 40, 120
1, 13729, Note_on_c, 9, 42, 85
1, 13729, Note_on_c, 7, 59, 83
1, 13729, Note_on_c, 9, 69, 22
1, 13730, Note_off_c, 9, 42, 64
1, 13730, Note_off_c, 9, 40, 64
1, 13730, Note_off_c, 9, 69, 64
1, 13733, Note_off_c, 8, 64, 64
1, 13735, Note_off_c, 8, 59, 64
1, 13736, Note_off_c, 8, 55, 64
1, 13738, Note_off_c, 7, 59, 64
1, 13751, Note_on_c, 9, 44, 70
1, 13752, Note_off_c, 9, 44, 64
1, 13753, Note_on_c, 7, 59, 68
1, 13753, Note_on_c, 9, 69, 25
1, 13754, Note_off_c, 9, 69, 64
1, 13758, Note_off_c, 2, 64, 64
1, 13768, Note_off_c, 2, 62, 64
1, 13770, Note_off_c, 2, 67, 64
1, 13770, Note_off_c, 7, 59, 64
1, 13774, Note_off_c, 2, 71, 64
1, 13775, Note_on_c, 9, 46, 78
1, 13775, Note_on_c, 8, 55, 84
1, 13775, Note_on_c, 9, 69, 67
1, 13776, Note_off_c, 9, 46, 64
1, 13776, Note_on_c, 2, 69, 93
1, 13776, Note_on_c, 2, 60, 84
1, 13776, Note_on_c, 8, 64, 78
1, 13776, Note_on_c, 8, 59, 84
1, 13776, Note_off_c, 9, 69, 64
1, 13777, Note_on_c, 7, 55, 70
1, 13786, Note_off_c, 8, 59, 64
1, 13786, Note_off_c, 8, 64, 64
1, 13786, Note_off_c, 8, 55, 64
1, 13799, Note_on_c, 1, 31, 92
1, 13799, Note_on_c, 9, 69, 38
1, 13800, Note_off_c, 9, 69, 64
1, 13804, Note_off_c, 2, 69, 64
1, 13806, Note_off_c, 7, 55, 64
1, 13810, Note_off_c, 2, 60, 64
1, 13822, Note_off_c, 1, 31, 64
1, 13824, Note_on_c, 9, 36, 120
1, 13824, Note_on_c, 9, 42, 81
1, 13824, Note_on_c, 1, 36, 102
1, 13824, Note_on_c, 2, 67, 93
1, 13824, Note_on_c, 2, 71, 97
1, 13824, Note_on_c, 2, 62, 87
1, 13824, Note_on_c, 2, 64, 80
1, 13825, Note_off_c, 9, 42, 64
1, 13825, Note_off_c, 9, 36, 64
1, 13825, Note_on_c, 7, 55, 77
1, 13825, Note_on_c, 9, 69, 12
1, 13826, Note_off_c, 9, 69, 64
1, 13834, Note_off_c, 2, 64, 64
1, 13834, Note_off_c, 2, 62, 64
1, 13834, Note_off_c, 2, 67, 64
1, 13837, Note_off_c, 2, 71, 64
1, 13838, Note_off_c, 7, 55, 64
1, 13848, Note_on_c, 2, 71, 87
1, 13848, Note_on_c, 2, 62, 82
1, 13848, Note_on_c, 2, 64, 78
1, 13848, Note_on_c, 2, 67, 82
1, 13849, Note_on_c, 7, 55, 72
1, 13849, Note_on_c, 9, 69, 24
1, 13850, Note_off_c, 9, 69, 64
1, 13862, Note_off_c, 2, 64, 64
1, 13864, Note_off_c, 2, 62, 64
1, 13864, Note_off_c, 7, 55, 64
1, 13865, Note_off_c, 2, 67, 64
1, 13866, Note_off_c, 2, 71, 64
1, 13870, Note_on_c, 2, 69, 82
1, 13870, Note_on_c, 2, 60, 75
1, 13871, Note_on_c, 9, 44, 72
1, 13871, Note_on_c, 7, 57, 83
1, 13872, Note_off_c, 9, 44, 64
1, 13873, Note_on_c, 9, 69, 62
1, 13874, Note_off_c, 1, 36, 64
1, 13874, Note_off_c, 9, 69, 64
1, 13885, Note_off_c, 2, 69, 64
1, 13890, Note_off_c, 2, 60, 64
1, 13893, Note_off_c, 7, 57, 64
1, 13895, Note_on_c, 8, 64, 60
1, 13895, Note_on_c, 8, 55, 60
1, 13895, Note_on_c, 8, 59, 65
1, 13896, Note_on_c, 2, 71, 93
1, 13896, Note_on_c, 2, 67, 97
1, 13896, Note_on_c, 2, 62, 87
1, 13896, Note_on_c, 2, 64, 72
1, 13897, Note_on_c, 9, 42, 81
1, 13897, Note_on_c, 7, 59, 77
1, 13897, Note_on_c, 9, 69, 38
1, 13898, Note_off_c, 9, 42, 64
1, 13898, Note_off_c, 9, 69, 64
1, 13900, Note_off_c, 8, 64, 64
1, 13902, Note_off_c, 8, 59, 64
1, 13902, Note_off_c, 8, 55, 64
1, 13910, Note_off_c, 7, 59, 64
1, 13912, Note_off_c, 2, 62, 64
1, 13916, Note_off_c, 2, 64, 64
1, 13916, Note_off_c, 2, 67, 64
1, 13918, Note_off_c, 2, 71, 64
1, 13919, Note_on_c, 9, 69, 19
1, 13920, Note_on_c, 8, 55, 68
1, 13920, Note_on_c, 8, 59, 75
1, 13920, Note_off_c, 9, 69, 64
1, 13921, Note_on_c, 9, 40, 124
1, 13921, Note_on_c, 8, 64, 58
1, 13922, Note_off_c, 9, 40, 64
1, 13929, Note_off_c, 8, 64, 64
1, 13931, Note_off_c, 8, 59, 64
1, 13931, Note_off_c, 8, 55, 64
1, 13942, Note_on_c, 2, 71, 93
1, 13942, Note_on_c, 2, 67, 87
1, 13943, Note_on_c, 7, 55, 72
1, 13943, Note_on_c, 9, 69, 30
1, 13944, Note_on_c, 2, 62, 93
1, 13944, Note_on_c, 2, 64, 82
1, 13944, Note_off_c, 9, 69, 64
1, 13945, Note_on_c, 9, 44, 81
1, 13946, Note_off_c, 9, 44, 64
1, 13958, Note_off_c, 2, 64, 64
1, 13958, Note_off_c, 2, 67, 64
1, 13961, Note_off_c, 2, 62, 64
1, 13962, Note_off_c, 2, 71, 64
1, 13966, Note_on_c, 2, 60, 72
1, 13966, Note_off_c, 7, 55, 64
1, 13967, Note_on_c, 9, 69, 62
1, 13968, Note_on_c, 2, 69, 69
1, 13968, Note_off_c, 9, 69, 64
1, 13969, Note_on_c, 9, 42, 81
1, 13970, Note_off_c, 9, 42, 64
1, 13977, Note_off_c, 2, 69, 64
1, 13986, Note_off_c, 2, 60, 64
1, 13990, Note_on_c, 2, 71, 82
1, 13990, Note_on_c, 9, 69, 33
1, 13991, Note_on_c, 9, 36, 109
1, 13991, Note_on_c, 1, 36, 83
1, 13991, Note_on_c, 7, 64, 83
1, 13991, Note_off_c, 9, 69, 64
1, 13992, Note_off_c, 9, 36, 64
1, 13992, Note_on_c, 2, 67, 93
1, 13992, Note_on_c, 2, 64, 82
1, 13992, Note_on_c, 2, 62, 90
1, 14007, Note_off_c, 1, 36, 64
1, 14008, Note_off_c, 2, 64, 64
1, 14009, Note_off_c, 2, 62, 64
1, 14011, Note_off_c, 7, 64, 64
1, 14013, Note_off_c, 2, 71, 64
1, 14014, Note_off_c, 2, 67, 64
1, 14015, Note_on_c, 9, 42, 85
1, 14015, Note_on_c, 1, 36, 102
1, 14015, Note_on_c, 9, 69, 34
1, 14016, Note_off_c, 9, 42, 64
1, 14016, Note_off_c, 9, 69, 64
1, 14038, Note_on_c, 2, 62, 90
1, 14039, Note_off_c, 1, 36, 64
1, 14039, Note_on_c, 7, 55, 83
1, 14040, Note_on_c, 2, 71, 97
1, 14040, Note_on_c, 2, 67, 93
1, 14040, Note_on_c, 2, 64, 90
1, 14040, Note_on_c, 9, 69, 33
1, 14041, Note_off_c, 9, 69, 64
1, 14056, Note_off_c, 2, 64, 64
1, 14056, Note_off_c, 2, 62, 64
1, 14058, Note_off_c, 2, 67, 64
1, 14060, Note_off_c, 7, 55, 64
1, 14062, Note_off_c, 2, 71, 64
1, 14062, Note_on_c, 2, 60, 67
1, 14063, Note_on_c, 9, 36, 114
1, 14064, Note_off_c, 9, 36, 64
1, 14064, Note_on_c, 1, 36, 102
1, 14064, Note_on_c, 2, 69, 65
1, 14064, Note_on_c, 9, 69, 60
1, 14065, Note_on_c, 9, 42, 81
1, 14065, Note_off_c, 9, 69, 64
1, 14066, Note_off_c, 9, 42, 64
1, 14076, Note_off_c, 2, 69, 64
1, 14087, Note_on_c, 8, 59, 78
1, 14087, Note_on_c, 8, 55, 75
1, 14087, Note_on_c, 8, 64, 71
1, 14088, Note_on_c, 7, 55, 77
1, 14088, Note_on_c, 9, 69, 45
1, 14089, Note_off_c, 9, 69, 64
1, 14091, Note_off_c, 2, 60, 64
1, 14093, Note_off_c, 8, 64, 64
1, 14094, Note_off_c, 8, 59, 64
1, 14096, Note_off_c, 8, 55, 64
1, 14099, Note_off_c, 1, 36, 64
1, 14106, Note_off_c, 7, 55, 64
1, 14110, Note_on_c, 2, 67, 100
1, 14110, Note_on_c, 2, 62, 93
1, 14110, Note_on_c, 8, 64, 71
1, 14111, Note_on_c, 8, 55, 75
1, 14111, Note_on_c, 8, 59, 71
1, 14112, Note_on_c, 9, 42, 81
1, 14112, Note_on_c, 2, 71, 106
1, 14112, Note_on_c, 2, 64, 93
1, 14112, Note_off_c, 11, 62, 64
1, 14113, Note_off_c, 9, 42, 64
1, 14113, Note_on_c, 9, 40, 124
1, 14113, Note_on_c, 7, 59, 87
1, 14113, Note_on_c, 9, 69, 42
1, 14114, Note_off_c, 9, 40, 64
1, 14114, Note_off_c, 9, 69, 64
1, 14120, Note_off_c, 8, 59, 64
1, 14120, Note_off_c, 8, 55, 64
1, 14122, Note_off_c, 8, 64, 64
1, 14123, Note_off_c, 7, 59, 64
1, 14135, Note_on_c, 9, 44, 70
1, 14136, Note_off_c, 9, 44, 64
1, 14137, Note_on_c, 7, 59, 65
1, 14137, Note_on_c, 9, 69, 30
1, 14138, Note_off_c, 9, 69, 64
1, 14151, Note_off_c, 2, 62, 64
1, 14156, Note_off_c, 7, 59, 64
1, 14158, Note_off_c, 2, 67, 64
1, 14158, Note_off_c, 2, 64, 64
1, 14159, Note_on_c, 1, 36, 92
1, 14159, Note_on_c, 8, 55, 68
1, 14159, Note_on_c, 8, 59, 71
1, 14159, Note_on_c, 8, 64, 75
1, 14160, Note_on_c, 9, 46, 78
1, 14160, Note_off_c, 2, 71, 64
1, 14160, Note_on_c, 2, 69, 106
1, 14160, Note_on_c, 2, 62, 37
1, 14160, Note_on_c, 2, 60, 84
1, 14160, Note_on_c, 9, 69, 60
1, 14161, Note_off_c, 9, 46, 64
1, 14161, Note_on_c, 7, 55, 66
1, 14161, Note_off_c, 9, 69, 64
1, 14166, Note_off_c, 2, 62, 64
1, 14168, Note_off_c, 2, 60, 64
1, 14173, Note_off_c, 8, 55, 64
1, 14174, Note_off_c, 8, 64, 64
1, 14174, Note_off_c, 8, 59, 64
1, 14181, Note_off_c, 1, 36, 64
1, 14183, Note_on_c, 1, 37, 87
1, 14183, Note_off_c, 7, 55, 64
1, 14184, Note_on_c, 9, 69, 30
1, 14185, Note_off_c, 2, 69, 64
1, 14185, Note_off_c, 9, 69, 64
1, 14208, Note_on_c, 9, 36, 120
1, 14208, Note_off_c, 1, 37, 64
1, 14208, Note_on_c, 1, 38, 102
1, 14208, Note_on_c, 2, 69, 106
1, 14208, Note_on_c, 2, 72, 106
1, 14208, Note_on_c, 2, 65, 93
1, 14208, Note_on_c, 2, 64, 93
1, 14208, Note_on_c, 7, 57, 90
1, 14208, Note_off_c, 11, 64, 64
1, 14208, Note_off_c, 11, 67, 64
1, 14208, Note_off_c, 11, 71, 64
1, 14208, Note_on_c, 11, 65, 61
1, 14208, Note_on_c, 11, 62, 71
1, 14208, Note_on_c, 11, 69, 70
1, 14208, Note_on_c, 11, 60, 67
1, 14209, Note_off_c, 9, 36, 64
1, 14209, Note_on_c, 9, 42, 81
1, 14209, Note_on_c, 9, 69, 40
1, 14210, Note_off_c, 9, 42, 64
1, 14210, Note_off_c, 9, 69, 64
1, 14218, Note_off_c, 2, 69, 64
1, 14220, Note_off_c, 2, 64, 64
1, 14222, Note_off_c, 2, 72, 64
1, 14222, Note_off_c, 7, 57, 64
1, 14231, Note_on_c, 7, 57, 70
1, 14231, Note_on_c, 9, 69, 31
1, 14232, Note_on_c, 2, 64, 82
1, 14232, Note_on_c, 2, 72, 87
1, 14232, Note_on_c, 2, 69, 84
1, 14232, Note_off_c, 9, 69, 64
1, 14249, Note_off_c, 7, 57, 64
1, 14252, Note_off_c, 2, 64, 64
1, 14253, Note_off_c, 1, 38, 64
1, 14254, Note_off_c, 2, 72, 64
1, 14255, Note_on_c, 7, 59, 80
1, 14256, Note_on_c, 9, 44, 70
1, 14256, Note_off_c, 2, 69, 64
1, 14256, Note_on_c, 2, 62, 84
1, 14256, Note_on_c, 2, 71, 82
1, 14256, Note_on_c, 9, 69, 59
1, 14257, Note_off_c, 9, 44, 64
1, 14257, Note_off_c, 9, 69, 64
1, 14269, Note_off_c, 2, 65, 64
1, 14275, Note_off_c, 7, 59, 64
1, 14276, Note_off_c, 2, 71, 64
1, 14279, Note_on_c, 8, 57, 78
1, 14279, Note_on_c, 8, 65, 78
1, 14279, Note_on_c, 8, 60, 65
1, 14280, Note_off_c, 2, 62, 64
1, 14280, Note_on_c, 2, 65, 68
1, 14280, Note_on_c, 2, 72, 87
1, 14280, Note_on_c, 2, 69, 87
1, 14280, Note_on_c, 2, 64, 100
1, 14281, Note_on_c, 9, 42, 81
1, 14281, Note_on_c, 7, 60, 66
1, 14281, Note_on_c, 9, 69, 40
1, 14282, Note_off_c, 9, 42, 64
1, 14282, Note_off_c, 9, 69, 64
1, 14286, Note_off_c, 8, 60, 64
1, 14286, Note_off_c, 8, 65, 64
1, 14288, Note_off_c, 8, 57, 64
1, 14298, Note_off_c, 2, 69, 64
1, 14298, Note_off_c, 2, 72, 64
1, 14300, Note_off_c, 2, 65, 64
1, 14300, Note_off_c, 2, 64, 64
1, 14302, Note_off_c, 7, 60, 64
1, 14303, Note_on_c, 9, 40, 127
1, 14304, Note_off_c, 9, 40, 64
1, 14304, Note_on_c, 8, 57, 78
1, 14304, Note_on_c, 8, 60, 78
1, 14304, Note_on_c, 9, 69, 30
1, 14305, Note_on_c, 8, 65, 71
1, 14305, Note_off_c, 9, 69, 64
1, 14310, Note_off_c, 8, 65, 64
1, 14314, Note_off_c, 8, 60, 64
1, 14316, Note_off_c, 8, 57, 64
1, 14327, Note_on_c, 7, 57, 72
1, 14327, Note_on_c, 9, 69, 30
1, 14328, Note_on_c, 9, 44, 81
1, 14328, Note_on_c, 2, 72, 93
1, 14328, Note_on_c, 2, 69, 97
1, 14328, Note_on_c, 2, 64, 87
1, 14328, Note_on_c, 2, 65, 87
1, 14328, Note_off_c, 9, 69, 64
1, 14329, Note_off_c, 9, 44, 64
1, 14344, Note_off_c, 2, 64, 64
1, 14345, Note_off_c, 2, 65, 64
1, 14345, Note_off_c, 2, 69, 64
1, 14345, Note_off_c, 7, 57, 64
1, 14349, Note_off_c, 2, 72, 64
1, 14351, Note_on_c, 9, 69, 63
1, 14352, Note_on_c, 9, 42, 81
1, 14352, Note_on_c, 2, 62, 80
1, 14352, Note_on_c, 2, 71, 82
1, 14352, Note_off_c, 9, 69, 64
1, 14353, Note_off_c, 9, 42, 64
1, 14369, Note_off_c, 2, 71, 64
1, 14375, Note_on_c, 9, 36, 104
1, 14375, Note_on_c, 1, 38, 87
1, 14375, Note_on_c, 7, 65, 90
1, 14376, Note_off_c, 9, 36, 64
1, 14376, Note_off_c, 2, 62, 64
1, 14376, Note_on_c, 2, 72, 90
1, 14376, Note_on_c, 2, 65, 80
1, 14376, Note_on_c, 2, 69, 90
1, 14376, Note_on_c, 2, 64, 80
1, 14376, Note_on_c, 9, 69, 38
1, 14377, Note_off_c, 9, 69, 64
1, 14390, Note_off_c, 2, 64, 64
1, 14391, Note_off_c, 1, 38, 64
1, 14393, Note_off_c, 2, 69, 64
1, 14394, Note_off_c, 2, 65, 64
1, 14394, Note_off_c, 2, 72, 64
1, 14396, Note_off_c, 7, 65, 64
1, 14399, Note_on_c, 1, 38, 98
1, 14400, Note_on_c, 9, 42, 85
1, 14400, Note_on_c, 9, 69, 22
1, 14401, Note_off_c, 9, 42, 64
1, 14401, Note_off_c, 9, 69, 64
1, 14422, Note_on_c, 2, 72, 93
1, 14422, Note_on_c, 2, 69, 97
1, 14422, Note_on_c, 2, 65, 90
1, 14422, Note_on_c, 2, 64, 87
1, 14423, Note_on_c, 7, 57, 74
1, 14425, Note_on_c, 9, 69, 34
1, 14426, Note_off_c, 9, 69, 64
1, 14427, Note_off_c, 1, 38, 64
1, 14438, Note_off_c, 2, 64, 64
1, 14440, Note_off_c, 7, 57, 64
1, 14442, Note_off_c, 2, 65, 64
1, 14445, Note_off_c, 2, 69, 64
1, 14446, Note_on_c, 2, 62, 87
1, 14446, Note_on_c, 2, 71, 84
1, 14447, Note_on_c, 9, 36, 109
1, 14447, Note_on_c, 1, 38, 102
1, 14448, Note_off_c, 9, 36, 64
1, 14448, Note_on_c, 9, 42, 72
1, 14448, Note_off_c, 2, 72, 64
1, 14449, Note_off_c, 9, 42, 64
1, 14449, Note_on_c, 9, 69, 53
1, 14450, Note_off_c, 9, 69, 64
1, 14463, Note_off_c, 2, 71, 64
1, 14468, Note_off_c, 2, 62, 64
1, 14471, Note_on_c, 7, 57, 74
1, 14471, Note_on_c, 8, 57, 71
1, 14472, Note_on_c, 8, 65, 62
1, 14473, Note_on_c, 8, 60, 51
1, 14473, Note_on_c, 9, 69, 36
1, 14474, Note_off_c, 9, 69, 64
1, 14478, Note_off_c, 8, 65, 64
1, 14479, Note_off_c, 1, 38, 64
1, 14479, Note_off_c, 8, 60, 64
1, 14480, Note_off_c, 8, 57, 64
1, 14483, Note_off_c, 7, 57, 64
1, 14494, Note_on_c, 2, 69, 100
1, 14494, Note_on_c, 2, 72, 100
1, 14494, Note_on_c, 2, 64, 97
1, 14494, Note_on_c, 2, 65, 97
1, 14495, Note_on_c, 9, 40, 114
1, 14495, Note_on_c, 9, 42, 81
1, 14495, Note_on_c, 7, 60, 80
1, 14495, Note_on_c, 8, 57, 65
1, 14495, Note_on_c, 8, 65, 68
1, 14495, Note_on_c, 8, 60, 65
1, 14496, Note_off_c, 9, 42, 64
1, 14496, Note_off_c, 9, 40, 64
1, 14497, Note_on_c, 9, 69, 31
1, 14498, Note_off_c, 9, 69, 64
1, 14500, Note_off_c, 8, 65, 64
1, 14502, Note_off_c, 8, 60, 64
1, 14502, Note_off_c, 8, 57, 64
1, 14507, Note_off_c, 7, 60, 64
1, 14519, Note_on_c, 9, 44, 68
1, 14520, Note_off_c, 9, 44, 64
1, 14521, Note_on_c, 7, 60, 70
1, 14521, Note_on_c, 9, 69, 23
1, 14522, Note_off_c, 9, 69, 64
1, 14537, Note_off_c, 7, 60, 64
1, 14539, Note_off_c, 2, 72, 64
1, 14540, Note_off_c, 2, 69, 64
1, 14542, Note_off_c, 2, 64, 64
1, 14542, Note_on_c, 2, 71, 90
1, 14543, Note_on_c, 9, 46, 78
1, 14543, Note_on_c, 8, 57, 84
1, 14543, Note_on_c, 8, 60, 71
1, 14543, Note_on_c, 9, 69, 51
1, 14544, Note_off_c, 9, 46, 64
1, 14544, Note_on_c, 2, 62, 90
1, 14544, Note_on_c, 8, 65, 78
1, 14544, Note_off_c, 9, 69, 64
1, 14545, Note_on_c, 7, 57, 72
1, 14546, Note_off_c, 2, 65, 64
1, 14552, Note_off_c, 8, 60, 64
1, 14553, Note_off_c, 8, 65, 64
1, 14553, Note_off_c, 8, 57, 64
1, 14567, Note_on_c, 1, 33, 85
1, 14568, Note_off_c, 2, 62, 64
1, 14568, Note_on_c, 9, 69, 34
1, 14569, Note_off_c, 9, 69, 64
1, 14571, Note_off_c, 2, 71, 64
1, 14574, Note_off_c, 7, 57, 64
1, 14591, Note_on_c, 9, 36, 120
1, 14592, Note_off_c, 9, 36, 64
1, 14592, Note_off_c, 1, 33, 64
1, 14592, Note_on_c, 2, 69, 90
1, 14592, Note_on_c, 2, 72, 100
1, 14592, Note_on_c, 2, 65, 90
1, 14592, Note_on_c, 2, 64, 97
1, 14593, Note_on_c, 9, 42, 81
1, 14593, Note_on_c, 1, 38, 111
1, 14593, Note_on_c, 7, 57, 87
1, 14594, Note_off_c, 9, 42, 64
1, 14602, Note_off_c, 2, 69, 64
1, 14604, Note_off_c, 2, 65, 64
1, 14604, Note_off_c, 7, 57, 64
1, 14605, Note_off_c, 2, 72, 64
1, 14606, Note_off_c, 2, 64, 64
1, 14614, Note_on_c, 2, 69, 76
1, 14614, Note_on_c, 2, 64, 73
1, 14614, Note_on_c, 2, 72, 76
1, 14614, Note_on_c, 2, 65, 76
1, 14615, Note_on_c, 9, 69, 22
1, 14616, Note_off_c, 9, 69, 64
1, 14617, Note_on_c, 7, 57, 63
1, 14630, Note_off_c, 7, 57, 64
1, 14632, Note_off_c, 2, 64, 64
1, 14634, Note_off_c, 2, 72, 64
1, 14635, Note_off_c, 2, 69, 64
1, 14637, Lyric_t, "\012"
1, 14638, Note_off_c, 2, 65, 64
1, 14638, Note_on_c, 2, 71, 93
1, 14638, Note_on_c, 2, 62, 90
1, 14639, Note_on_c, 9, 44, 72
1, 14639, Note_on_c, 7, 59, 74
1, 14639, Note_on_c, 9, 69, 51
1, 14640, Note_off_c, 9, 44, 64
1, 14640, Note_off_c, 1, 38, 64
1, 14640, Note_off_c, 9, 69, 64
1, 14661, Note_off_c, 2, 62, 64
1, 14661, Note_off_c, 7, 59, 64
1, 14662, Note_off_c, 2, 71, 64
1, 14663, Note_on_c, 9, 42, 81
1, 14663, Note_on_c, 7, 60, 72
1, 14663, Note_on_c, 8, 65, 71
1, 14663, Note_on_c, 8, 60, 62
1, 14663, Note_on_c, 8, 57, 68
1, 14663, Note_on_c, 9, 69, 48
1, 14664, Note_off_c, 9, 42, 64
1, 14664, Note_on_c, 2, 65, 80
1, 14664, Note_on_c, 2, 64, 93
1, 14664, Note_on_c, 2, 69, 90
1, 14664, Note_on_c, 2, 72, 90
1, 14664, Note_off_c, 9, 69, 64
1, 14669, Note_off_c, 8, 65, 64
1, 14670, Note_off_c, 8, 57, 64
1, 14670, Note_off_c, 8, 60, 64
1, 14677, Note_off_c, 2, 69, 64
1, 14677, Note_off_c, 2, 64, 64
1, 14679, Note_off_c, 7, 60, 64
1, 14680, Note_off_c, 2, 72, 64
1, 14682, Note_off_c, 2, 65, 64
1, 14687, Note_on_c, 9, 40, 109
1, 14687, Note_on_c, 8, 57, 84
1, 14688, Note_off_c, 9, 40, 64
1, 14688, Note_on_c, 8, 65, 84
1, 14688, Note_on_c, 8, 60, 75
1, 14690, Note_on_c, 9, 69, 33
1, 14691, Note_off_c, 9, 69, 64
1, 14698, Note_off_c, 8, 57, 64
1, 14699, Note_off_c, 8, 60, 64
1, 14700, Note_off_c, 8, 65, 64
1, 14711, Note_on_c, 9, 47, 98
1, 14711, Note_on_c, 7, 57, 74
1, 14712, Note_off_c, 9, 47, 64
1, 14712, Note_on_c, 2, 72, 97
1, 14712, Note_on_c, 2, 64, 93
1, 14712, Note_on_c, 2, 69, 87
1, 14712, Note_on_c, 2, 65, 84
1, 14713, Note_on_c, 9, 69, 26
1, 14714, Note_off_c, 9, 69, 64
1, 14726, Note_off_c, 7, 57, 64
1, 14728, Note_off_c, 2, 65, 64
1, 14730, Note_off_c, 2, 64, 64
1, 14733, Note_off_c, 2, 69, 64
1, 14734, Note_on_c, 2, 62, 80
1, 14735, Note_on_c, 9, 42, 85
1, 14736, Note_off_c, 9, 42, 64
1, 14736, Note_off_c, 2, 72, 64
1, 14736, Note_on_c, 2, 71, 84
1, 14737, Note_on_c, 9, 69, 61
1, 14738, Note_off_c, 9, 69, 64
1, 14752, Note_off_c, 2, 71, 64
1, 14756, Note_off_c, 2, 62, 64
1, 14759, Note_on_c, 1, 38, 92
1, 14759, Note_on_c, 7, 65, 80
1, 14760, Note_on_c, 2, 65, 80
1, 14760, Note_on_c, 2, 69, 93
1, 14760, Note_on_c, 2, 72, 93
1, 14760, Note_on_c, 2, 64, 90
1, 14760, Note_on_c, 9, 69, 40
1, 14761, Note_off_c, 9, 69, 64
1, 14770, Note_off_c, 2, 65, 64
1, 14774, Note_off_c, 2, 64, 64
1, 14774, Note_off_c, 7, 65, 64
1, 14776, Note_off_c, 2, 69, 64
1, 14778, Note_off_c, 1, 38, 64
1, 14778, Note_off_c, 2, 72, 64
1, 14783, Note_on_c, 9, 47, 98
1, 14783, Note_on_c, 9, 42, 85
1, 14784, Note_off_c, 9, 42, 64
1, 14784, Note_off_c, 9, 47, 64
1, 14786, Note_on_c, 9, 69, 33
1, 14787, Note_off_c, 9, 69, 64
1, 14806, Note_on_c, 2, 72, 90
1, 14806, Note_on_c, 2, 69, 90
1, 14806, Note_on_c, 2, 64, 93
1, 14807, Note_on_c, 9, 45, 98
1, 14807, Note_on_c, 7, 55, 80
1, 14808, Note_off_c, 9, 45, 64
1, 14808, Note_on_c, 2, 65, 90
1, 14809, Note_on_c, 9, 69, 30
1, 14810, Note_off_c, 9, 69, 64
1, 14822, Note_off_c, 2, 64, 64
1, 14825, Note_off_c, 2, 65, 64
1, 14825, Note_off_c, 2, 69, 64
1, 14828, Note_off_c, 7, 55, 64
1, 14829, Note_off_c, 2, 72, 64
1, 14830, Note_on_c, 2, 62, 75
1, 14831, Note_on_c, 9, 42, 81
1, 14831, Note_on_c, 1, 31, 92
1, 14832, Note_off_c, 9, 42, 64
1, 14832, Note_on_c, 2, 71, 84
1, 14834, Note_on_c, 9, 69, 52
1, 14835, Note_off_c, 9, 69, 64
1, 14844, Note_off_c, 2, 71, 64
1, 14854, Note_on_c, 8, 60, 65
1, 14854, Note_on_c, 8, 57, 75
1, 14854, Note_on_c, 8, 65, 71
1, 14855, Note_on_c, 7, 55, 68
1, 14857, Note_off_c, 2, 62, 64
1, 14857, Note_on_c, 9, 69, 36
1, 14858, Note_off_c, 9, 69, 64
1, 14860, Note_off_c, 8, 65, 64
1, 14862, Note_off_c, 8, 57, 64
1, 14862, Note_off_c, 8, 60, 64
1, 14868, Note_off_c, 7, 55, 64
1, 14874, Note_off_c, 1, 31, 64
1, 14878, Note_on_c, 2, 72, 100
1, 14878, Note_on_c, 2, 69, 106
1, 14879, Note_on_c, 9, 43, 109
1, 14879, Note_on_c, 1, 43, 87
1, 14879, Note_on_c, 8, 65, 78
1, 14879, Note_on_c, 8, 57, 75
1, 14879, Note_on_c, 8, 60, 65
1, 14880, Lyric_t, "(Boy) "
1, 14880, Note_off_c, 9, 43, 64
1, 14880, Note_on_c, 2, 65, 87
1, 14880, Note_on_c, 2, 64, 90
1, 14881, Note_on_c, 9, 42, 85
1, 14881, Note_on_c, 7, 59, 65
1, 14881, Note_on_c, 9, 69, 40
1, 14882, Note_off_c, 9, 42, 64
1, 14882, Note_off_c, 9, 69, 64
1, 14888, Note_off_c, 8, 60, 64
1, 14889, Note_off_c, 8, 57, 64
1, 14890, Note_off_c, 8, 65, 64
1, 14900, Note_off_c, 7, 59, 64
1, 14903, Note_on_c, 9, 43, 98
1, 14903, Note_off_c, 1, 43, 64
1, 14903, Note_on_c, 1, 38, 89
1, 14904, Note_off_c, 9, 43, 64
1, 14905, Note_on_c, 9, 69, 23
1, 14906, Note_off_c, 9, 69, 64
1, 14925, Note_off_c, 1, 38, 64
1, 14927, Note_on_c, 9, 45, 114
1, 14927, Note_on_c, 1, 31, 89
1, 14927, Note_off_c, 2, 69, 64
1, 14927, Note_off_c, 2, 72, 64
1, 14927, Note_on_c, 8, 57, 84
1, 14928, Note_off_c, 9, 45, 64
1, 14928, Note_on_c, 9, 42, 99
1, 14928, Note_on_c, 2, 71, 90
1, 14928, Note_on_c, 2, 62, 90
1, 14928, Note_on_c, 8, 60, 78
1, 14928, Note_on_c, 8, 65, 89
1, 14928, Note_on_c, 9, 69, 58
1, 14929, Note_off_c, 9, 42, 64
1, 14929, Note_on_c, 7, 55, 70
1, 14929, Note_off_c, 9, 69, 64
1, 14939, Note_off_c, 8, 60, 64
1, 14939, Note_off_c, 8, 57, 64
1, 14941, Note_off_c, 8, 65, 64
1, 14954, Note_on_c, 9, 69, 48
1, 14955, Note_off_c, 9, 69, 64
1, 14960, Note_off_c, 7, 55, 64
1, 14966, Note_off_c, 1, 31, 64
1, 14969, Note_off_c, 2, 64, 64
1, 14970, Note_off_c, 2, 71, 64
1, 14972, Note_off_c, 2, 62, 64
1, 14974, Note_off_c, 2, 65, 64
1, 14974, Note_on_c, 2, 55, 90
1, 14974, Note_on_c, 2, 64, 106
1, 14974, Note_on_c, 2, 60, 106
1, 14974, Note_on_c, 2, 57, 93
1, 14975, Note_off_c, 11, 60, 64
1, 14975, Note_on_c, 11, 64, 70
1, 14976, Lyric_t, "\226 Pul"
1, 14976, Note_on_c, 3, 67, 111
1, 14976, Note_on_c, 9, 36, 104
1, 14976, Note_on_c, 9, 51, 78
1, 14976, Note_on_c, 7, 57, 77
1, 14976, Note_off_c, 11, 65, 64
1, 14976, Note_off_c, 11, 69, 64
1, 14976, Note_off_c, 11, 62, 64
1, 14976, Note_on_c, 11, 57, 76
1, 14976, Note_on_c, 11, 60, 76
1, 14976, Note_on_c, 12, 69, 82
1, 14976, Note_on_c, 9, 69, 20
1, 14977, Note_off_c, 9, 51, 64
1, 14977, Note_off_c, 9, 36, 64
1, 14977, Note_on_c, 1, 41, 89
1, 14977, Control_c, 12, 1, 0
1, 14977, Pitch_bend_c, 12, 8192
1, 14977, Note_off_c, 9, 69, 64
1, 14982, Note_off_c, 2, 55, 64
1, 14985, Note_off_c, 2, 60, 64
1, 14986, Note_off_c, 2, 64, 64
1, 14986, Note_off_c, 2, 57, 64
1, 14988, Note_off_c, 7, 57, 64
1, 14998, Note_on_c, 2, 57, 76
1, 14999, Note_on_c, 9, 69, 36
1, 15000, Note_on_c, 2, 60, 72
1, 15000, Note_on_c, 2, 64, 63
1, 15000, Note_on_c, 2, 55, 60
1, 15000, Note_off_c, 9, 69, 64
1, 15001, Note_on_c, 7, 57, 83
1, 15009, Note_off_c, 2, 55, 64
1, 15010, Note_off_c, 2, 64, 64
1, 15010, Note_off_c, 7, 57, 64
1, 15014, Note_off_c, 2, 60, 64
1, 15018, Note_off_c, 1, 41, 64
1, 15023, Note_on_c, 9, 69, 58
1, 15024, Note_on_c, 2, 53, 76
1, 15024, Note_on_c, 2, 62, 80
1, 15024, Note_off_c, 9, 69, 64
1, 15025, Note_on_c, 7, 57, 74
1, 15026, Note_on_c, 9, 44, 63
1, 15027, Note_off_c, 9, 44, 64
1, 15035, Note_off_c, 2, 57, 64
1, 15036, Note_off_c, 2, 62, 64
1, 15038, Note_off_c, 2, 53, 64
1, 15042, Note_off_c, 3, 67, 64
1, 15046, Note_on_c, 2, 60, 87
1, 15046, Note_off_c, 7, 57, 64
1, 15047, Note_on_c, 9, 69, 36
1, 15048, Lyric_t, "se's "
1, 15048, Note_on_c, 3, 69, 116
1, 15048, Note_on_c, 2, 57, 78
1, 15048, Note_on_c, 2, 64, 82
1, 15048, Note_on_c, 2, 55, 82
1, 15048, Note_off_c, 9, 69, 64
1, 15049, Note_on_c, 7, 60, 70
1, 15050, Note_on_c, 9, 42, 64
1, 15051, Note_off_c, 9, 42, 64
1, 15061, Note_off_c, 2, 55, 64
1, 15061, Note_off_c, 2, 57, 64
1, 15064, Note_off_c, 2, 64, 64
1, 15068, Note_off_c, 2, 60, 64
1, 15071, Note_on_c, 9, 40, 114
1, 15072, Note_off_c, 9, 40, 64
1, 15073, Note_on_c, 9, 69, 22
1, 15074, Note_off_c, 7, 60, 64
1, 15074, Note_off_c, 9, 69, 64
1, 15096, Note_on_c, 2, 60, 93
1, 15096, Note_on_c, 2, 64, 90
1, 15096, Note_on_c, 2, 55, 87
1, 15096, Note_on_c, 2, 57, 90
1, 15097, Note_on_c, 9, 44, 72
1, 15097, Note_on_c, 9, 69, 25
1, 15098, Note_off_c, 9, 44, 64
1, 15098, Note_on_c, 7, 57, 77
1, 15098, Note_off_c, 9, 69, 64
1, 15109, Note_off_c, 2, 55, 64
1, 15112, Note_off_c, 2, 64, 64
1, 15113, Note_off_c, 2, 60, 64
1, 15114, Note_off_c, 7, 57, 64
1, 15118, Note_on_c, 2, 53, 72
1, 15118, Note_on_c, 2, 62, 80
1, 15119, Lyric_t, "rac"
1, 15119, Note_off_c, 3, 69, 64
1, 15119, Note_on_c, 3, 67, 111
1, 15119, Note_on_c, 9, 69, 67
1, 15120, Note_off_c, 9, 69, 64
1, 15121, Note_on_c, 9, 42, 58
1, 15122, Note_off_c, 9, 42, 64
1, 15132, Note_off_c, 2, 57, 64
1, 15134, Note_off_c, 2, 62, 64
1, 15134, Note_off_c, 2, 53, 64
1, 15142, Note_on_c, 2, 55, 84
1, 15142, Note_on_c, 2, 57, 87
1, 15143, Note_on_c, 1, 41, 102
1, 15143, Note_on_c, 9, 69, 38
1, 15144, Note_on_c, 2, 60, 100
1, 15144, Note_on_c, 2, 64, 90
1, 15144, Note_off_c, 9, 69, 64
1, 15145, Note_on_c, 9, 36, 85
1, 15145, Note_on_c, 7, 64, 68
1, 15146, Note_off_c, 9, 36, 64
1, 15166, Note_off_c, 7, 64, 64
1, 15167, Note_on_c, 9, 42, 70
1, 15168, Note_off_c, 9, 42, 64
1, 15169, Note_on_c, 9, 69, 12
1, 15170, Note_off_c, 1, 41, 64
1, 15170, Note_off_c, 9, 69, 64
1, 15186, Note_off_c, 2, 64, 64
1, 15186, Note_off_c, 2, 55, 64
1, 15186, Note_off_c, 2, 57, 64
1, 15186, Note_off_c, 2, 60, 64
1, 15190, Note_on_c, 2, 60, 93
1, 15190, Note_on_c, 2, 55, 87
1, 15190, Note_on_c, 2, 64, 90
1, 15190, Note_on_c, 2, 57, 87
1, 15191, Note_on_c, 1, 41, 92
1, 15193, Note_on_c, 7, 57, 72
1, 15193, Note_on_c, 9, 69, 24
1, 15194, Note_off_c, 9, 69, 64
1, 15201, Note_off_c, 2, 64, 64
1, 15205, Note_off_c, 2, 55, 64
1, 15206, Note_off_c, 1, 41, 64
1, 15211, Note_off_c, 3, 67, 64
1, 15211, Note_off_c, 2, 60, 64
1, 15211, Note_off_c, 7, 57, 64
1, 15214, Note_on_c, 2, 53, 82
1, 15214, Note_on_c, 2, 62, 78
1, 15215, Lyric_t, "ing, "
1, 15215, Note_on_c, 3, 69, 116
1, 15215, Note_on_c, 1, 41, 105
1, 15216, Note_on_c, 9, 36, 104
1, 15217, Note_off_c, 9, 36, 64
1, 15217, Note_on_c, 9, 42, 64
1, 15217, Note_on_c, 9, 69, 62
1, 15218, Note_off_c, 9, 42, 64
1, 15218, Note_off_c, 9, 69, 64
1, 15234, Note_off_c, 2, 62, 64
1, 15236, Note_off_c, 2, 57, 64
1, 15239, Note_on_c, 9, 64, 75
1, 15240, Note_off_c, 2, 53, 64
1, 15240, Note_off_c, 9, 64, 64
1, 15241, Note_on_c, 7, 57, 77
1, 15241, Note_on_c, 9, 69, 38
1, 15242, Note_off_c, 9, 69, 64
1, 15247, Note_off_c, 1, 41, 64
1, 15263, Note_on_c, 9, 40, 120
1, 15263, Note_on_c, 9, 69, 19
1, 15264, Note_off_c, 9, 40, 64
1, 15264, Note_on_c, 9, 42, 68
1, 15264, Note_on_c, 2, 60, 93
1, 15264, Note_on_c, 2, 64, 97
1, 15264, Note_on_c, 2, 55, 100
1, 15264, Note_on_c, 2, 57, 100
1, 15264, Note_off_c, 7, 57, 64
1, 15264, Note_off_c, 9, 69, 64
1, 15265, Lyric_t, "dar"
1, 15265, Note_off_c, 3, 69, 64
1, 15265, Note_on_c, 3, 67, 105
1, 15265, Note_off_c, 9, 42, 64
1, 15265, Note_on_c, 9, 64, 65
1, 15266, Note_on_c, 7, 60, 68
1, 15266, Note_off_c, 9, 64, 64
1, 15277, Note_off_c, 7, 60, 64
1, 15286, Note_on_c, 9, 44, 70
1, 15287, Note_off_c, 9, 44, 64
1, 15287, Note_on_c, 1, 41, 102
1, 15287, Note_on_c, 9, 69, 30
1, 15288, Note_off_c, 9, 69, 64
1, 15289, Note_on_c, 7, 60, 65
1, 15304, Note_off_c, 2, 57, 64
1, 15304, Note_off_c, 2, 60, 64
1, 15304, Note_off_c, 2, 64, 64
1, 15304, Note_off_c, 2, 55, 64
1, 15306, Note_off_c, 1, 41, 64
1, 15306, Note_off_c, 7, 60, 64
1, 15310, Note_off_c, 3, 67, 64
1, 15310, Note_on_c, 1, 36, 81
1, 15311, Lyric_t, "ling, "
1, 15311, Lyric_t, "\015"
1, 15311, Note_on_c, 3, 69, 111
1, 15311, Note_on_c, 9, 46, 81
1, 15311, Note_on_c, 9, 69, 62
1, 15312, Note_off_c, 9, 46, 64
1, 15312, Note_on_c, 2, 57, 61
1, 15312, Note_on_c, 2, 53, 80
1, 15312, Note_on_c, 2, 62, 84
1, 15312, Note_on_c, 2, 60, 84
1, 15312, Note_off_c, 9, 69, 64
1, 15314, Note_on_c, 7, 57, 80
1, 15334, Note_on_c, 1, 38, 98
1, 15334, Note_off_c, 7, 57, 64
1, 15334, Note_on_c, 9, 69, 33
1, 15335, Note_off_c, 9, 69, 64
1, 15336, Note_off_c, 1, 36, 64
1, 15349, Note_off_c, 2, 60, 64
1, 15349, Note_off_c, 2, 57, 64
1, 15349, Note_off_c, 2, 53, 64
1, 15349, Note_off_c, 2, 62, 64
1, 15350, Note_off_c, 3, 69, 64
1, 15359, Note_on_c, 9, 36, 114
1, 15359, Note_on_c, 9, 42, 70
1, 15359, Note_off_c, 1, 38, 64
1, 15359, Note_on_c, 9, 69, 34
1, 15360, Note_off_c, 9, 42, 64
1, 15360, Note_off_c, 9, 36, 64
1, 15360, Note_on_c, 1, 41, 102
1, 15360, Note_on_c, 2, 60, 97
1, 15360, Note_on_c, 2, 64, 100
1, 15360, Note_on_c, 2, 57, 93
1, 15360, Note_on_c, 2, 55, 90
1, 15360, Note_off_c, 9, 69, 64
1, 15361, Note_on_c, 7, 57, 72
1, 15371, Note_off_c, 7, 57, 64
1, 15382, Note_off_c, 2, 55, 64
1, 15382, Note_off_c, 2, 60, 64
1, 15382, Note_off_c, 2, 64, 64
1, 15382, Note_off_c, 2, 57, 64
1, 15384, Note_on_c, 2, 55, 78
1, 15384, Note_on_c, 2, 60, 76
1, 15384, Note_on_c, 2, 57, 90
1, 15384, Note_on_c, 2, 64, 70
1, 15384, Note_on_c, 9, 69, 33
1, 15385, Note_off_c, 9, 69, 64
1, 15386, Note_on_c, 7, 57, 68
1, 15392, Note_off_c, 1, 41, 64
1, 15392, Note_off_c, 7, 57, 64
1, 15402, Note_off_c, 2, 64, 64
1, 15402, Note_off_c, 2, 55, 64
1, 15402, Note_off_c, 2, 60, 64
1, 15404, Note_off_c, 2, 57, 64
1, 15407, Lyric_t, "how "
1, 15407, Note_on_c, 3, 67, 102
1, 15408, Note_on_c, 9, 44, 53
1, 15408, Note_on_c, 2, 53, 82
1, 15408, Note_on_c, 2, 62, 84
1, 15408, Note_on_c, 9, 69, 60
1, 15409, Note_off_c, 9, 44, 64
1, 15409, Note_on_c, 7, 57, 72
1, 15409, Note_off_c, 9, 69, 64
1, 15421, Note_off_c, 2, 62, 64
1, 15424, Note_off_c, 2, 53, 64
1, 15428, Note_off_c, 7, 57, 64
1, 15432, Note_on_c, 2, 57, 84
1, 15432, Note_on_c, 2, 60, 97
1, 15432, Note_on_c, 2, 64, 87
1, 15432, Note_on_c, 2, 55, 90
1, 15432, Note_on_c, 9, 69, 45
1, 15433, Note_on_c, 9, 42, 58
1, 15433, Note_on_c, 7, 60, 66
1, 15433, Note_off_c, 9, 69, 64
1, 15434, Note_off_c, 3, 67, 64
1, 15434, Note_off_c, 9, 42, 64
1, 15442, Note_off_c, 2, 55, 64
1, 15446, Note_off_c, 2, 64, 64
1, 15446, Note_off_c, 2, 57, 64
1, 15448, Note_off_c, 2, 60, 64
1, 15450, Note_off_c, 7, 60, 64
1, 15454, Note_on_c, 9, 40, 120
1, 15455, Lyric_t, "grand "
1, 15455, Note_on_c, 3, 69, 121
1, 15455, Note_off_c, 9, 40, 64
1, 15457, Note_on_c, 9, 69, 42
1, 15458, Note_off_c, 9, 69, 64
1, 15478, Note_on_c, 2, 60, 84
1, 15478, Note_on_c, 2, 55, 90
1, 15478, Note_on_c, 2, 57, 87
1, 15478, Note_on_c, 2, 64, 90
1, 15480, Note_on_c, 9, 44, 58
1, 15481, Note_off_c, 9, 44, 64
1, 15481, Note_on_c, 7, 57, 77
1, 15481, Note_on_c, 9, 69, 30
1, 15482, Note_off_c, 9, 69, 64
1, 15494, Note_off_c, 3, 69, 64
1, 15496, Note_off_c, 2, 64, 64
1, 15496, Note_off_c, 2, 55, 64
1, 15498, Note_off_c, 7, 57, 64
1, 15501, Note_off_c, 2, 60, 64
1, 15502, Note_on_c, 2, 53, 80
1, 15502, Note_on_c, 2, 62, 75
1, 15503, Lyric_t, "we "
1, 15503, Note_on_c, 3, 72, 111
1, 15503, Note_on_c, 9, 42, 64
1, 15504, Note_off_c, 9, 42, 64
1, 15504, Note_on_c, 9, 69, 60
1, 15505, Note_off_c, 9, 69, 64
1, 15511, Note_off_c, 2, 57, 64
1, 15515, Note_off_c, 2, 62, 64
1, 15518, Note_off_c, 2, 53, 64
1, 15526, Note_off_c, 3, 72, 64
1, 15526, Note_on_c, 2, 60, 90
1, 15526, Note_on_c, 2, 57, 84
1, 15527, Note_on_c, 9, 36, 109
1, 15527, Note_on_c, 7, 64, 66
1, 15528, Note_off_c, 9, 36, 64
1, 15528, Note_on_c, 2, 55, 90
1, 15528, Note_on_c, 2, 64, 87
1, 15528, Note_on_c, 9, 69, 30
1, 15529, Note_on_c, 1, 41, 102
1, 15529, Note_off_c, 9, 69, 64
1, 15530, Lyric_t, "are. "
1, 15530, Lyric_t, "\015"
1, 15530, Note_on_c, 3, 69, 105
1, 15544, Note_off_c, 7, 64, 64
1, 15551, Note_on_c, 9, 42, 61
1, 15552, Note_off_c, 9, 42, 64
1, 15553, Note_on_c, 9, 69, 40
1, 15554, Note_off_c, 9, 69, 64
1, 15556, Note_off_c, 1, 41, 64
1, 15573, Note_off_c, 2, 64, 64
1, 15573, Note_off_c, 2, 60, 64
1, 15573, Note_off_c, 2, 57, 64
1, 15573, Note_off_c, 2, 55, 64
1, 15574, Note_on_c, 2, 60, 90
1, 15574, Note_on_c, 2, 55, 93
1, 15574, Note_on_c, 2, 64, 90
1, 15574, Note_on_c, 2, 57, 84
1, 15575, Note_on_c, 1, 41, 98
1, 15575, Note_on_c, 9, 69, 31
1, 15576, Note_off_c, 9, 69, 64
1, 15577, Note_on_c, 7, 57, 74
1, 15587, Note_off_c, 1, 41, 64
1, 15589, Note_off_c, 2, 64, 64
1, 15591, Note_off_c, 2, 55, 64
1, 15594, Note_off_c, 7, 57, 64
1, 15595, Note_off_c, 2, 60, 64
1, 15598, Note_on_c, 9, 36, 98
1, 15598, Note_on_c, 1, 41, 95
1, 15598, Note_on_c, 2, 53, 84
1, 15598, Note_on_c, 2, 62, 87
1, 15599, Note_off_c, 9, 36, 64
1, 15600, Note_on_c, 9, 42, 68
1, 15600, Note_on_c, 9, 69, 59
1, 15601, Note_off_c, 9, 42, 64
1, 15601, Note_off_c, 9, 69, 64
1, 15602, Lyric_t, "\012"
1, 15617, Note_off_c, 2, 57, 64
1, 15622, Note_off_c, 2, 62, 64
1, 15623, Note_on_c, 9, 64, 84
1, 15624, Note_off_c, 9, 64, 64
1, 15625, Note_on_c, 7, 57, 77
1, 15625, Note_on_c, 9, 69, 40
1, 15626, Note_off_c, 9, 69, 64
1, 15633, Note_off_c, 1, 41, 64
1, 15641, Note_off_c, 2, 53, 64
1, 15644, Note_off_c, 7, 57, 64
1, 15646, Note_on_c, 9, 40, 120
1, 15646, Note_on_c, 2, 60, 90
1, 15646, Note_on_c, 2, 64, 97
1, 15646, Note_on_c, 2, 57, 87
1, 15646, Note_on_c, 2, 55, 93
1, 15647, Note_off_c, 9, 40, 64
1, 15647, Note_on_c, 9, 42, 70
1, 15648, Note_off_c, 9, 42, 64
1, 15648, Note_on_c, 9, 64, 78
1, 15648, Note_on_c, 9, 69, 30
1, 15649, Note_off_c, 9, 69, 64
1, 15649, Note_off_c, 9, 64, 64
1, 15650, Note_on_c, 7, 60, 68
1, 15661, Note_off_c, 7, 60, 64
1, 15670, Note_on_c, 9, 44, 68
1, 15671, Note_off_c, 9, 44, 64
1, 15671, Note_on_c, 9, 69, 30
1, 15672, Note_on_c, 7, 60, 66
1, 15672, Note_off_c, 9, 69, 64
1, 15681, Note_off_c, 3, 69, 64
1, 15681, Note_off_c, 2, 55, 64
1, 15681, Note_off_c, 2, 60, 64
1, 15681, Note_off_c, 2, 64, 64
1, 15681, Note_off_c, 2, 57, 64
1, 15688, Note_off_c, 7, 60, 64
1, 15694, Note_on_c, 1, 38, 98
1, 15695, Note_on_c, 9, 46, 72
1, 15695, Note_on_c, 9, 69, 63
1, 15696, Note_off_c, 9, 46, 64
1, 15696, Note_on_c, 2, 55, 87
1, 15696, Note_on_c, 2, 60, 97
1, 15696, Note_on_c, 2, 57, 93
1, 15696, Note_on_c, 2, 65, 93
1, 15696, Note_off_c, 9, 69, 64
1, 15697, Note_on_c, 7, 57, 77
1, 15714, Note_off_c, 7, 57, 64
1, 15718, Note_off_c, 1, 38, 64
1, 15718, Note_on_c, 1, 36, 81
1, 15720, Note_on_c, 9, 69, 38
1, 15721, Note_off_c, 9, 69, 64
1, 15740, Note_off_c, 2, 65, 64
1, 15740, Note_off_c, 2, 55, 64
1, 15740, Note_off_c, 2, 60, 64
1, 15740, Note_off_c, 2, 57, 64
1, 15742, Note_on_c, 9, 36, 104
1, 15742, Note_on_c, 2, 57, 90
1, 15742, Note_on_c, 2, 64, 100
1, 15742, Note_on_c, 2, 60, 87
1, 15742, Note_on_c, 2, 67, 100
1, 15743, Note_off_c, 9, 36, 64
1, 15744, Note_on_c, 9, 42, 68
1, 15744, Note_on_c, 1, 29, 98
1, 15744, Note_off_c, 12, 69, 64
1, 15744, Note_on_c, 12, 72, 71
1, 15744, Note_on_c, 9, 69, 22
1, 15745, Lyric_t, "Lit"
1, 15745, Note_on_c, 3, 72, 105
1, 15745, Note_off_c, 9, 42, 64
1, 15745, Note_on_c, 7, 57, 70
1, 15745, Note_off_c, 9, 69, 64
1, 15746, Note_off_c, 1, 36, 64
1, 15753, Note_off_c, 7, 57, 64
1, 15761, Note_off_c, 3, 72, 64
1, 15765, Note_off_c, 2, 67, 64
1, 15765, Note_off_c, 2, 60, 64
1, 15765, Note_off_c, 2, 64, 64
1, 15766, Note_off_c, 2, 57, 64
1, 15766, Note_on_c, 2, 60, 75
1, 15766, Note_on_c, 2, 67, 70
1, 15766, Note_on_c, 2, 64, 84
1, 15768, Lyric_t, "tle "
1, 15768, Note_on_c, 3, 72, 98
1, 15768, Note_on_c, 2, 57, 80
1, 15769, Note_on_c, 7, 57, 70
1, 15769, Note_on_c, 9, 69, 34
1, 15770, Note_off_c, 9, 69, 64
1, 15774, Note_off_c, 7, 57, 64
1, 15780, Note_off_c, 3, 72, 64
1, 15787, Note_off_c, 2, 64, 64
1, 15787, Note_off_c, 2, 60, 64
1, 15787, Note_off_c, 2, 67, 64
1, 15788, Note_off_c, 2, 57, 64
1, 15790, Note_on_c, 2, 57, 76
1, 15790, Note_on_c, 2, 60, 72
1, 15790, Note_on_c, 2, 62, 90
1, 15790, Note_on_c, 2, 65, 78
1, 15790, Note_on_c, 7, 57, 66
1, 15791, Note_on_c, 9, 44, 72
1, 15792, Note_off_c, 9, 44, 64
1, 15793, Lyric_t, "by "
1, 15793, Note_on_c, 3, 72, 102
1, 15793, Note_on_c, 9, 69, 53
1, 15794, Note_off_c, 9, 69, 64
1, 15795, Note_off_c, 1, 29, 64
1, 15802, Note_off_c, 2, 62, 64
1, 15803, Note_off_c, 2, 60, 64
1, 15808, Note_off_c, 3, 72, 64
1, 15808, Note_off_c, 2, 65, 64
1, 15811, Note_off_c, 2, 57, 64
1, 15811, Note_off_c, 7, 57, 64
1, 15815, Note_on_c, 9, 42, 68
1, 15816, Note_off_c, 9, 42, 64
1, 15816, Note_on_c, 2, 64, 100
1, 15816, Note_on_c, 2, 60, 84
1, 15816, Note_on_c, 2, 67, 90
1, 15816, Note_on_c, 2, 57, 66
1, 15816, Note_on_c, 7, 60, 66
1, 15817, Lyric_t, "lit"
1, 15817, Note_on_c, 3, 72, 102
1, 15817, Note_on_c, 9, 69, 36
1, 15818, Note_off_c, 9, 69, 64
1, 15824, Note_off_c, 2, 57, 64
1, 15828, Note_off_c, 2, 60, 64
1, 15829, Note_off_c, 2, 67, 64
1, 15831, Note_off_c, 7, 60, 64
1, 15832, Note_off_c, 2, 64, 64
1, 15838, Note_on_c, 9, 40, 120
1, 15839, Note_off_c, 9, 40, 64
1, 15841, Note_on_c, 9, 69, 31
1, 15842, Note_off_c, 9, 69, 64
1, 15846, Note_off_c, 3, 72, 64
1, 15862, Note_on_c, 2, 57, 84
1, 15862, Note_on_c, 2, 64, 93
1, 15862, Note_on_c, 2, 60, 93
1, 15862, Note_on_c, 2, 67, 100
1, 15863, Note_on_c, 9, 44, 61
1, 15863, Note_on_c, 7, 57, 70
1, 15864, Note_off_c, 9, 44, 64
1, 15865, Lyric_t, "tle, "
1, 15865, Note_on_c, 3, 72, 105
1, 15865, Note_on_c, 9, 69, 23
1, 15866, Note_off_c, 9, 69, 64
1, 15876, Note_off_c, 3, 72, 64
1, 15877, Note_off_c, 7, 57, 64
1, 15886, Lyric_t, "we "
1, 15886, Note_on_c, 3, 72, 89
1, 15886, Note_on_c, 9, 42, 68
1, 15886, Note_on_c, 2, 62, 69
1, 15887, Note_off_c, 9, 42, 64
1, 15887, Note_on_c, 9, 69, 51
1, 15888, Note_on_c, 2, 65, 69
1, 15888, Note_off_c, 9, 69, 64
1, 15901, Note_off_c, 2, 62, 64
1, 15901, Note_off_c, 2, 67, 64
1, 15901, Note_off_c, 2, 60, 64
1, 15901, Note_off_c, 2, 57, 64
1, 15901, Note_off_c, 2, 64, 64
1, 15902, Note_off_c, 2, 65, 64
1, 15904, Note_off_c, 3, 72, 64
1, 15911, Note_on_c, 1, 29, 105
1, 15912, Note_on_c, 2, 57, 72
1, 15912, Note_on_c, 2, 64, 100
1, 15912, Note_on_c, 2, 67, 93
1, 15912, Note_on_c, 2, 60, 87
1, 15912, Note_on_c, 9, 69, 34
1, 15913, Lyric_t, "meet "
1, 15913, Note_on_c, 3, 74, 111
1, 15913, Note_on_c, 9, 36, 104
1, 15913, Note_on_c, 7, 64, 66
1, 15913, Note_off_c, 9, 69, 64
1, 15914, Note_off_c, 9, 36, 64
1, 15928, Note_off_c, 2, 60, 64
1, 15929, Note_off_c, 2, 57, 64
1, 15930, Note_off_c, 7, 64, 64
1, 15932, Note_off_c, 2, 67, 64
1, 15932, Note_off_c, 2, 64, 64
1, 15935, Note_on_c, 9, 42, 64
1, 15936, Note_off_c, 9, 42, 64
1, 15936, Note_off_c, 12, 72, 64
1, 15936, Note_on_c, 12, 74, 71
1, 15946, Note_off_c, 3, 74, 64
1, 15949, Note_off_c, 1, 29, 64
1, 15958, Note_on_c, 2, 57, 75
1, 15958, Note_on_c, 2, 64, 97
1, 15958, Note_on_c, 2, 60, 84
1, 15958, Note_on_c, 2, 67, 93
1, 15959, Note_on_c, 9, 69, 22
1, 15960, Note_off_c, 9, 69, 64
1, 15961, Note_on_c, 7, 57, 80
1, 15962, Lyric_t, "in "
1, 15962, Note_on_c, 3, 74, 102
1, 15974, Note_off_c, 2, 64, 64
1, 15976, Note_off_c, 3, 74, 64
1, 15978, Note_off_c, 7, 57, 64
1, 15982, Note_on_c, 2, 65, 78
1, 15982, Note_on_c, 2, 62, 64
1, 15983, Note_on_c, 9, 42, 61
1, 15983, Note_on_c, 9, 69, 51
1, 15984, Note_off_c, 9, 42, 64
1, 15984, Note_on_c, 1, 29, 102
1, 15984, Note_off_c, 9, 69, 64
1, 15985, Note_on_c, 9, 36, 95
1, 15986, Lyric_t, "the "
1, 15986, Note_on_c, 3, 74, 98
1, 15986, Note_off_c, 9, 36, 64
1, 15998, Note_off_c, 3, 74, 64
1, 16002, Note_off_c, 2, 62, 64
1, 16002, Note_off_c, 2, 67, 64
1, 16002, Note_off_c, 2, 65, 64
1, 16002, Note_off_c, 2, 60, 64
1, 16003, Note_off_c, 2, 57, 64
1, 16006, Note_on_c, 9, 64, 84
1, 16007, Note_off_c, 9, 64, 64
1, 16007, Note_on_c, 9, 69, 48
1, 16008, Note_off_c, 9, 69, 64
1, 16009, Note_on_c, 7, 57, 74
1, 16010, Lyric_t, "mid"
1, 16010, Note_on_c, 3, 74, 116
1, 16026, Note_off_c, 7, 57, 64
1, 16030, Note_on_c, 2, 64, 106
1, 16030, Note_on_c, 2, 67, 100
1, 16030, Note_on_c, 2, 57, 84
1, 16030, Note_on_c, 2, 60, 90
1, 16031, Note_on_c, 9, 64, 78
1, 16032, Note_off_c, 9, 64, 64
1, 16033, Note_on_c, 9, 40, 124
1, 16033, Note_on_c, 9, 42, 81
1, 16033, Note_on_c, 7, 60, 63
1, 16034, Note_off_c, 9, 42, 64
1, 16034, Note_off_c, 9, 40, 64
1, 16034, Note_on_c, 9, 69, 33
1, 16035, Note_off_c, 9, 69, 64
1, 16038, Note_off_c, 3, 74, 64
1, 16042, Note_off_c, 1, 29, 64
1, 16043, Note_off_c, 7, 60, 64
1, 16056, Note_on_c, 7, 60, 59
1, 16057, Lyric_t, "dle, "
1, 16057, Lyric_t, "\015"
1, 16057, Note_on_c, 3, 74, 102
1, 16057, Note_on_c, 9, 44, 61
1, 16057, Note_on_c, 9, 69, 26
1, 16058, Note_off_c, 9, 44, 64
1, 16058, Note_off_c, 9, 69, 64
1, 16070, Note_off_c, 3, 74, 64
1, 16072, Note_off_c, 7, 60, 64
1, 16078, Note_off_c, 2, 67, 64
1, 16078, Note_off_c, 2, 64, 64
1, 16079, Lyric_t, "there's "
1, 16079, Note_on_c, 3, 74, 98
1, 16080, Note_on_c, 1, 36, 89
1, 16080, Note_on_c, 2, 65, 87
1, 16080, Note_on_c, 2, 62, 97
1, 16081, Note_on_c, 9, 46, 70
1, 16081, Note_on_c, 7, 57, 77
1, 16081, Note_on_c, 9, 69, 61
1, 16082, Note_off_c, 9, 46, 64
1, 16082, Note_off_c, 9, 69, 64
1, 16096, Note_off_c, 3, 74, 64
1, 16102, Note_off_c, 7, 57, 64
1, 16104, Note_off_c, 1, 36, 64
1, 16104, Note_on_c, 1, 38, 78
1, 16104, Note_on_c, 9, 69, 40
1, 16105, Lyric_t, "dan"
1, 16105, Note_on_c, 3, 76, 116
1, 16105, Note_off_c, 9, 69, 64
1, 16117, Note_off_c, 2, 57, 64
1, 16117, Note_off_c, 2, 60, 64
1, 16118, Note_off_c, 2, 65, 64
1, 16118, Note_off_c, 2, 62, 64
1, 16128, Note_off_c, 1, 38, 64
1, 16128, Note_on_c, 2, 64, 106
1, 16128, Note_on_c, 2, 67, 97
1, 16128, Note_on_c, 2, 60, 90
1, 16128, Note_on_c, 2, 57, 84
1, 16128, Note_on_c, 7, 57, 77
1, 16128, Note_off_c, 12, 74, 64
1, 16128, Note_on_c, 12, 76, 68
1, 16128, Note_on_c, 12, 64, 65
1, 16129, Note_on_c, 1, 41, 95
1, 16130, Note_on_c, 9, 36, 109
1, 16130, Note_on_c, 9, 42, 70
1, 16130, Note_on_c, 9, 69, 33
1, 16131, Note_off_c, 9, 42, 64
1, 16131, Note_off_c, 9, 36, 64
1, 16131, Note_off_c, 9, 69, 64
1, 16139, Note_off_c, 7, 57, 64
1, 16150, Note_off_c, 2, 67, 64
1, 16150, Note_off_c, 2, 64, 64
1, 16152, Note_on_c, 2, 64, 82
1, 16152, Note_on_c, 2, 67, 76
1, 16153, Note_on_c, 7, 57, 70
1, 16153, Note_on_c, 9, 69, 30
1, 16154, Note_off_c, 9, 69, 64
1, 16163, Note_off_c, 7, 57, 64
1, 16167, Note_off_c, 1, 41, 64
1, 16174, Note_off_c, 3, 76, 64
1, 16175, Note_on_c, 9, 44, 68
1, 16176, Note_off_c, 9, 44, 64
1, 16176, Note_on_c, 2, 62, 87
1, 16176, Note_on_c, 2, 65, 87
1, 16177, Lyric_t, "ger "
1, 16177, Note_on_c, 3, 77, 105
1, 16177, Note_on_c, 7, 57, 80
1, 16178, Note_on_c, 9, 69, 52
1, 16179, Note_off_c, 9, 69, 64
1, 16188, Note_off_c, 2, 67, 64
1, 16188, Note_off_c, 2, 64, 64
1, 16188, Note_off_c, 2, 57, 64
1, 16188, Note_off_c, 2, 60, 64
1, 16189, Note_off_c, 2, 62, 64
1, 16192, Note_off_c, 2, 65, 64
1, 16194, Note_off_c, 3, 77, 64
1, 16194, Note_off_c, 7, 57, 64
1, 16200, Note_on_c, 9, 42, 61
1, 16200, Note_on_c, 2, 57, 78
1, 16200, Note_on_c, 2, 60, 80
1, 16200, Note_on_c, 2, 64, 93
1, 16200, Note_on_c, 2, 67, 87
1, 16201, Lyric_t, "in "
1, 16201, Note_on_c, 3, 76, 98
1, 16201, Note_off_c, 9, 42, 64
1, 16201, Note_on_c, 9, 69, 36
1, 16202, Note_on_c, 7, 60, 72
1, 16202, Note_off_c, 9, 69, 64
1, 16212, Note_off_c, 2, 67, 64
1, 16212, Note_off_c, 2, 60, 64
1, 16214, Note_off_c, 2, 64, 64
1, 16214, Note_off_c, 2, 57, 64
1, 16215, Note_off_c, 7, 60, 64
1, 16223, Note_on_c, 9, 40, 120
1, 16224, Note_off_c, 9, 40, 64
1, 16225, Note_on_c, 9, 69, 40
1, 16226, Note_off_c, 9, 69, 64
1, 16248, Note_on_c, 9, 44, 70
1, 16248, Note_on_c, 2, 57, 78
1, 16248, Note_on_c, 2, 64, 93
1, 16248, Note_on_c, 2, 67, 97
1, 16248, Note_on_c, 2, 60, 84
1, 16249, Lyric_t, "the "
1, 16249, Note_off_c, 3, 76, 64
1, 16249, Note_on_c, 3, 72, 95
1, 16249, Note_off_c, 9, 44, 64
1, 16249, Note_on_c, 9, 69, 23
1, 16250, Note_on_c, 7, 57, 72
1, 16250, Note_off_c, 9, 69, 64
1, 16267, Note_off_c, 7, 57, 64
1, 16270, Note_off_c, 3, 72, 64
1, 16272, Note_on_c, 9, 42, 63
1, 16272, Note_on_c, 2, 62, 76
1, 16272, Note_on_c, 2, 65, 75
1, 16272, Note_on_c, 9, 69, 58
1, 16273, Lyric_t, "dark. "
1, 16273, Lyric_t, "\015"
1, 16273, Note_on_c, 3, 69, 105
1, 16273, Note_off_c, 9, 42, 64
1, 16273, Note_off_c, 9, 69, 64
1, 16292, Note_off_c, 2, 65, 64
1, 16292, Note_off_c, 2, 64, 64
1, 16292, Note_off_c, 2, 67, 64
1, 16292, Note_off_c, 2, 57, 64
1, 16292, Note_off_c, 2, 62, 64
1, 16292, Note_off_c, 2, 60, 64
1, 16295, Note_on_c, 1, 41, 92
1, 16296, Note_on_c, 2, 57, 76
1, 16296, Note_on_c, 2, 60, 87
1, 16296, Note_on_c, 2, 64, 106
1, 16296, Note_on_c, 2, 67, 97
1, 16297, Note_on_c, 9, 36, 109
1, 16297, Note_on_c, 7, 64, 77
1, 16298, Note_off_c, 9, 36, 64
1, 16298, Note_on_c, 9, 69, 48
1, 16299, Note_off_c, 9, 69, 64
1, 16312, Note_off_c, 2, 57, 64
1, 16314, Note_off_c, 2, 60, 64
1, 16314, Note_off_c, 2, 64, 64
1, 16314, Note_off_c, 2, 67, 64
1, 16314, Note_off_c, 7, 64, 64
1, 16321, Note_on_c, 9, 42, 63
1, 16322, Note_off_c, 9, 42, 64
1, 16322, Note_on_c, 9, 69, 23
1, 16323, Note_off_c, 9, 69, 64
1, 16326, Note_off_c, 1, 41, 64
1, 16344, Note_on_c, 1, 41, 102
1, 16344, Note_on_c, 2, 57, 82
1, 16344, Note_on_c, 2, 64, 97
1, 16344, Note_on_c, 2, 67, 97
1, 16344, Note_on_c, 2, 60, 93
1, 16345, Note_on_c, 7, 57, 80
1, 16345, Note_on_c, 9, 69, 24
1, 16346, Note_off_c, 9, 69, 64
1, 16358, Note_off_c, 1, 41, 64
1, 16361, Note_off_c, 2, 64, 64
1, 16362, Note_off_c, 2, 67, 64
1, 16362, Note_off_c, 7, 57, 64
1, 16368, Note_on_c, 9, 36, 114
1, 16368, Note_on_c, 2, 62, 78
1, 16368, Note_on_c, 2, 65, 84
1, 16368, Note_off_c, 12, 64, 64
1, 16368, Note_off_c, 12, 76, 64
1, 16368, Note_on_c, 12, 65, 67
1, 16368, Note_on_c, 12, 77, 68
1, 16369, Note_off_c, 9, 36, 64
1, 16369, Note_on_c, 1, 41, 98
1, 16369, Note_on_c, 9, 69, 62
1, 16370, Note_on_c, 9, 42, 72
1, 16370, Note_off_c, 9, 69, 64
1, 16371, Note_off_c, 9, 42, 64
1, 16374, Note_off_c, 2, 60, 64
1, 16384, Note_off_c, 2, 62, 64
1, 16386, Note_off_c, 2, 65, 64
1, 16391, Note_on_c, 7, 57, 83
1, 16391, Note_on_c, 9, 64, 84
1, 16392, Lyric_t, "It "
1, 16392, Note_on_c, 5, 60, 88
1, 16392, Note_off_c, 9, 64, 64
1, 16393, Note_on_c, 9, 69, 38
1, 16394, Note_off_c, 9, 69, 64
1, 16397, Note_off_c, 1, 41, 64
1, 16405, Note_off_c, 3, 69, 64
1, 16410, Note_off_c, 2, 57, 64
1, 16414, Note_on_c, 2, 64, 106
1, 16414, Note_on_c, 2, 67, 106
1, 16414, Note_off_c, 7, 57, 64
1, 16415, Note_off_c, 5, 60, 64
1, 16415, Note_on_c, 9, 40, 109
1, 16415, Note_on_c, 7, 60, 70
1, 16415, Note_on_c, 9, 64, 84
1, 16416, Note_off_c, 9, 40, 64
1, 16416, Note_on_c, 2, 60, 100
1, 16416, Note_off_c, 12, 77, 64
1, 16416, Note_off_c, 12, 65, 64
1, 16416, Note_on_c, 12, 79, 66
1, 16416, Note_on_c, 12, 67, 66
1, 16416, Note_off_c, 9, 64, 64
1, 16417, Note_on_c, 9, 42, 78
1, 16418, Lyric_t, "ought "
1, 16418, Note_on_c, 5, 60, 91
1, 16418, Note_off_c, 9, 42, 64
1, 16425, Note_off_c, 7, 60, 64
1, 16433, Note_off_c, 5, 60, 64
1, 16439, Note_on_c, 1, 36, 95
1, 16439, Note_on_c, 7, 60, 68
1, 16441, Lyric_t, "to "
1, 16441, Note_on_c, 5, 62, 98
1, 16441, Note_on_c, 9, 69, 40
1, 16442, Note_off_c, 9, 69, 64
1, 16456, Note_off_c, 7, 60, 64
1, 16461, Note_off_c, 1, 36, 64
1, 16463, Note_on_c, 9, 40, 109
1, 16463, Note_on_c, 1, 41, 89
1, 16463, Note_on_c, 7, 57, 87
1, 16464, Note_off_c, 9, 40, 64
1, 16464, Note_on_c, 2, 57, 80
1, 16464, Note_on_c, 2, 65, 84
1, 16464, Note_on_c, 2, 62, 90
1, 16465, Note_off_c, 5, 62, 64
1, 16465, Note_on_c, 9, 69, 63
1, 16466, Lyric_t, "be "
1, 16466, Note_on_c, 5, 65, 104
1, 16466, Note_off_c, 9, 69, 64
1, 16479, Note_off_c, 7, 57, 64
1, 16485, Note_off_c, 1, 41, 64
1, 16486, Note_on_c, 1, 40, 85
1, 16488, Lyric_t, "il"
1, 16488, Note_on_c, 5, 62, 91
1, 16489, Note_on_c, 9, 69, 48
1, 16490, Note_off_c, 5, 65, 64
1, 16490, Note_on_c, 9, 40, 109
1, 16490, Note_off_c, 9, 69, 64
1, 16491, Note_off_c, 9, 40, 64
1, 16498, Note_off_c, 2, 62, 64
1, 16498, Note_off_c, 2, 67, 64
1, 16498, Note_off_c, 2, 60, 64
1, 16498, Note_off_c, 2, 64, 64
1, 16498, Note_off_c, 2, 65, 64
1, 16498, Note_off_c, 2, 57, 64
1, 16508, Note_off_c, 11, 64, 64
1, 16510, Note_off_c, 1, 40, 64
1, 16510, Note_on_c, 2, 64, 93
1, 16510, Note_on_c, 2, 60, 97
1, 16510, Note_on_c, 2, 57, 90
1, 16511, Note_on_c, 1, 38, 95
1, 16512, Time_signature, 5, 2, 24, 8
1, 16512, Note_off_c, 5, 62, 64
1, 16512, Note_on_c, 9, 42, 68
1, 16512, Note_off_c, 11, 60, 64
1, 16512, Note_on_c, 11, 62, 67
1, 16512, Note_on_c, 11, 65, 68
1, 16512, Note_off_c, 12, 67, 64
1, 16512, Note_off_c, 12, 79, 64
1, 16512, Note_on_c, 12, 81, 68
1, 16512, Note_on_c, 12, 69, 68
1, 16512, Note_on_c, 9, 69, 20
1, 16513, Lyric_t, "le"
1, 16513, Note_on_c, 5, 67, 104
1, 16513, Note_off_c, 9, 42, 64
1, 16513, Note_on_c, 9, 36, 98
1, 16513, Note_on_c, 7, 57, 87
1, 16513, Note_off_c, 9, 69, 64
1, 16514, Note_off_c, 9, 36, 64
1, 16526, Note_off_c, 2, 64, 64
1, 16526, Note_off_c, 7, 57, 64
1, 16534, Note_on_c, 2, 62, 84
1, 16534, Note_on_c, 2, 65, 78
1, 16535, Note_on_c, 9, 69, 36
1, 16536, Note_off_c, 2, 60, 64
1, 16536, Note_off_c, 9, 69, 64
1, 16537, Note_on_c, 7, 57, 77
1, 16552, Note_off_c, 2, 62, 64
1, 16556, Note_off_c, 7, 57, 64
1, 16557, Note_off_c, 2, 65, 64
1, 16558, Note_on_c, 2, 60, 84
1, 16559, Note_on_c, 9, 69, 58
1, 16560, Note_on_c, 2, 64, 90
1, 16560, Note_off_c, 9, 69, 64
1, 16561, Note_on_c, 9, 44, 61
1, 16561, Note_on_c, 7, 60, 68
1, 16562, Note_off_c, 9, 44, 64
1, 16563, Lyric_t, "gal. "
1, 16563, Lyric_t, "\015"
1, 16563, Note_on_c, 5, 62, 95
1, 16564, Note_off_c, 5, 67, 64
1, 16574, Note_off_c, 2, 60, 64
1, 16575, Note_off_c, 2, 57, 64
1, 16578, Note_off_c, 2, 64, 64
1, 16583, Note_on_c, 9, 69, 36
1, 16584, Note_off_c, 1, 38, 64
1, 16584, Note_on_c, 2, 57, 84
1, 16584, Note_on_c, 2, 62, 100
1, 16584, Note_on_c, 2, 65, 97
1, 16584, Note_off_c, 7, 60, 64
1, 16584, Note_off_c, 9, 69, 64
1, 16585, Note_on_c, 9, 42, 63
1, 16586, Note_off_c, 9, 42, 64
1, 16586, Note_on_c, 7, 62, 83
1, 16602, Note_off_c, 2, 57, 64
1, 16604, Note_off_c, 2, 65, 64
1, 16604, Note_off_c, 2, 62, 64
1, 16606, Note_off_c, 7, 62, 64
1, 16609, Note_on_c, 9, 40, 109
1, 16609, Note_on_c, 9, 69, 22
1, 16610, Lyric_t, "\012"
1, 16610, Note_off_c, 9, 40, 64
1, 16610, Note_off_c, 9, 69, 64
1, 16632, Note_on_c, 2, 62, 93
1, 16632, Note_on_c, 2, 65, 90
1, 16632, Note_on_c, 2, 57, 90
1, 16633, Note_on_c, 5, 60, 85
1, 16633, Note_on_c, 9, 44, 72
1, 16633, Note_on_c, 9, 69, 25
1, 16634, Note_off_c, 5, 62, 64
1, 16634, Note_off_c, 9, 44, 64
1, 16634, Note_on_c, 7, 57, 83
1, 16634, Note_off_c, 9, 69, 64
1, 16648, Note_off_c, 2, 65, 64
1, 16650, Note_off_c, 7, 57, 64
1, 16653, Note_off_c, 2, 62, 64
1, 16655, Note_on_c, 9, 69, 67
1, 16656, Note_on_c, 9, 42, 64
1, 16656, Note_on_c, 2, 64, 82
1, 16656, Note_on_c, 2, 60, 84
1, 16656, Note_off_c, 9, 69, 64
1, 16657, Note_off_c, 9, 42, 64
1, 16658, Note_off_c, 5, 60, 64
1, 16658, Note_on_c, 5, 57, 98
1, 16668, Note_off_c, 2, 60, 64
1, 16672, Note_off_c, 2, 64, 64
1, 16673, Note_off_c, 2, 57, 64
1, 16679, Note_on_c, 9, 69, 38
1, 16680, Note_on_c, 2, 65, 97
1, 16680, Note_on_c, 2, 62, 97
1, 16680, Note_on_c, 2, 57, 63
1, 16680, Note_off_c, 9, 69, 64
1, 16681, Note_on_c, 9, 36, 95
1, 16681, Note_on_c, 7, 65, 87
1, 16682, Note_off_c, 9, 36, 64
1, 16697, Note_off_c, 2, 57, 64
1, 16700, Note_off_c, 2, 62, 64
1, 16700, Note_off_c, 2, 65, 64
1, 16702, Note_on_c, 1, 38, 105
1, 16702, Note_off_c, 7, 65, 64
1, 16703, Lyric_t, "Make "
1, 16703, Note_on_c, 3, 77, 116
1, 16703, Note_on_c, 9, 42, 72
1, 16704, Note_off_c, 9, 42, 64
1, 16704, Note_off_c, 11, 57, 64
1, 16705, Note_on_c, 9, 69, 12
1, 16706, Note_off_c, 9, 69, 64
1, 16709, Note_off_c, 5, 57, 64
1, 16718, Note_off_c, 3, 77, 64
1, 16727, Note_on_c, 7, 57, 83
1, 16728, Lyric_t, "it "
1, 16728, Note_on_c, 3, 77, 98
1, 16728, Note_on_c, 2, 62, 106
1, 16728, Note_on_c, 2, 65, 97
1, 16728, Note_on_c, 2, 57, 87
1, 16729, Note_on_c, 9, 69, 24
1, 16730, Note_off_c, 9, 69, 64
1, 16741, Note_off_c, 3, 77, 64
1, 16748, Note_off_c, 7, 57, 64
1, 16751, Note_on_c, 9, 36, 95
1, 16751, Note_on_c, 9, 42, 70
1, 16752, Lyric_t, "a "
1, 16752, Note_on_c, 3, 77, 116
1, 16752, Note_off_c, 9, 42, 64
1, 16752, Note_off_c, 9, 36, 64
1, 16753, Note_on_c, 9, 69, 62
1, 16754, Note_off_c, 9, 69, 64
1, 16771, Note_off_c, 3, 77, 64
1, 16777, Lyric_t, "crime "
1, 16777, Note_on_c, 3, 76, 116
1, 16777, Note_on_c, 7, 57, 83
1, 16777, Note_on_c, 9, 69, 38
1, 16778, Note_off_c, 9, 69, 64
1, 16796, Note_off_c, 2, 57, 64
1, 16796, Note_off_c, 2, 65, 64
1, 16796, Note_off_c, 2, 62, 64
1, 16798, Note_on_c, 1, 33, 105
1, 16799, Note_on_c, 9, 46, 88
1, 16799, Note_off_c, 1, 38, 64
1, 16799, Note_off_c, 7, 57, 64
1, 16799, Note_on_c, 9, 69, 19
1, 16800, Note_off_c, 9, 46, 64
1, 16800, Note_on_c, 2, 64, 116
1, 16800, Note_on_c, 2, 57, 93
1, 16800, Note_on_c, 2, 60, 100
1, 16800, Note_off_c, 11, 65, 64
1, 16800, Note_off_c, 11, 62, 64
1, 16800, Note_on_c, 11, 64, 74
1, 16800, Note_on_c, 11, 57, 76
1, 16800, Note_on_c, 11, 60, 76
1, 16800, Note_off_c, 9, 69, 64
1, 16801, Note_on_c, 7, 60, 74
1, 16814, Note_off_c, 7, 60, 64
1, 16820, Note_off_c, 3, 76, 64
1, 16823, Note_on_c, 9, 69, 30
1, 16824, Note_off_c, 9, 69, 64
1, 16825, Lyric_t, "to "
1, 16825, Note_on_c, 3, 77, 105
1, 16825, Note_on_c, 7, 60, 62
1, 16843, Note_off_c, 3, 77, 64
1, 16847, Note_on_c, 9, 42, 58
1, 16847, Note_off_c, 7, 60, 64
1, 16847, Note_on_c, 9, 69, 62
1, 16848, Note_off_c, 9, 42, 64
1, 16848, Note_off_c, 9, 69, 64
1, 16849, Lyric_t, "be "
1, 16849, Note_on_c, 3, 76, 105
1, 16850, Note_on_c, 7, 57, 77
1, 16867, Note_off_c, 3, 76, 64
1, 16870, Note_on_c, 9, 69, 33
1, 16871, Note_off_c, 9, 69, 64
1, 16873, Lyric_t, "out "
1, 16873, Note_on_c, 3, 74, 116
1, 16873, Note_off_c, 7, 57, 64
1, 16886, Note_off_c, 2, 60, 64
1, 16894, Note_off_c, 2, 57, 64
1, 16894, Note_off_c, 2, 64, 64
1, 16895, Note_on_c, 1, 38, 105
1, 16895, Note_on_c, 9, 69, 34
1, 16896, Note_on_c, 9, 40, 114
1, 16896, Note_on_c, 9, 42, 70
1, 16896, Note_on_c, 2, 57, 68
1, 16896, Note_off_c, 11, 60, 64
1, 16896, Note_off_c, 11, 64, 64
1, 16896, Note_on_c, 11, 62, 70
1, 16896, Note_on_c, 11, 65, 76
1, 16896, Note_off_c, 9, 69, 64
1, 16897, Note_off_c, 9, 42, 64
1, 16897, Note_off_c, 9, 40, 64
1, 16897, Note_on_c, 7, 62, 83
1, 16898, Note_off_c, 1, 33, 64
1, 16915, Note_off_c, 7, 62, 64
1, 16916, Note_off_c, 3, 74, 64
1, 16919, Lyric_t, "in "
1, 16919, Note_on_c, 3, 76, 106
1, 16920, Note_on_c, 9, 69, 33
1, 16921, Note_off_c, 9, 69, 64
1, 16922, Note_on_c, 7, 62, 90
1, 16935, Note_off_c, 3, 76, 64
1, 16938, Note_off_c, 7, 62, 64
1, 16942, Note_on_c, 2, 65, 100
1, 16942, Note_on_c, 2, 62, 106
1, 16944, Note_on_c, 9, 40, 104
1, 16944, Note_on_c, 9, 42, 78
1, 16944, Note_on_c, 9, 69, 60
1, 16945, Lyric_t, "the "
1, 16945, Note_on_c, 3, 74, 105
1, 16945, Note_off_c, 9, 42, 64
1, 16945, Note_off_c, 9, 40, 64
1, 16945, Note_off_c, 9, 69, 64
1, 16946, Note_on_c, 7, 57, 72
1, 16957, Note_off_c, 3, 74, 64
1, 16967, Note_on_c, 9, 40, 88
1, 16968, Note_off_c, 9, 40, 64
1, 16968, Note_off_c, 7, 57, 64
1, 16968, Note_on_c, 9, 69, 45
1, 16969, Lyric_t, "co-"
1, 16969, Note_on_c, 3, 74, 116
1, 16969, Note_off_c, 9, 69, 64
1, 16978, Note_off_c, 2, 62, 64
1, 16978, Note_off_c, 2, 65, 64
1, 16978, Note_off_c, 2, 57, 64
1, 16992, Time_signature, 4, 2, 24, 8
1, 16992, Note_on_c, 1, 33, 105
1, 16992, Note_on_c, 2, 64, 100
1, 16992, Note_on_c, 2, 57, 93
1, 16992, Note_on_c, 2, 60, 97
1, 16992, Note_off_c, 11, 65, 64
1, 16992, Note_off_c, 11, 62, 64
1, 16992, Note_on_c, 11, 60, 70
1, 16992, Note_on_c, 11, 64, 73
1, 16993, Note_on_c, 9, 36, 95
1, 16993, Note_on_c, 9, 51, 90
1, 16993, Note_off_c, 1, 38, 64
1, 16993, Note_on_c, 7, 57, 83
1, 16993, Note_on_c, 9, 69, 42
1, 16994, Note_off_c, 9, 51, 64
1, 16994, Note_off_c, 9, 36, 64
1, 16994, Note_off_c, 9, 69, 64
1, 17002, Note_off_c, 7, 57, 64
1, 17014, Note_off_c, 2, 60, 64
1, 17014, Note_off_c, 2, 57, 64
1, 17014, Note_off_c, 2, 64, 64
1, 17016, Note_on_c, 2, 64, 82
1, 17016, Note_on_c, 2, 60, 82
1, 17016, Note_on_c, 2, 57, 82
1, 17017, Note_on_c, 7, 57, 96
1, 17017, Note_on_c, 9, 69, 30
1, 17018, Note_off_c, 9, 69, 64
1, 17021, Note_off_c, 3, 74, 64
1, 17036, Note_off_c, 7, 57, 64
1, 17040, Note_on_c, 2, 62, 87
1, 17040, Note_on_c, 9, 69, 60
1, 17041, Lyric_t, "old. "
1, 17041, Lyric_t, "\015"
1, 17041, Note_on_c, 3, 74, 116
1, 17041, Note_on_c, 9, 44, 85
1, 17041, Note_on_c, 7, 59, 87
1, 17041, Note_off_c, 9, 69, 64
1, 17042, Note_off_c, 9, 44, 64
1, 17054, Note_off_c, 2, 57, 64
1, 17054, Note_off_c, 2, 64, 64
1, 17054, Note_off_c, 2, 60, 64
1, 17058, Note_off_c, 3, 74, 64
1, 17060, Note_off_c, 2, 62, 64
1, 17062, Note_off_c, 7, 59, 64
1, 17064, Note_on_c, 2, 57, 84
1, 17064, Note_on_c, 2, 64, 100
1, 17064, Note_on_c, 2, 60, 97
1, 17064, Note_on_c, 9, 69, 30
1, 17065, Note_on_c, 9, 42, 64
1, 17065, Note_off_c, 9, 69, 64
1, 17066, Note_on_c, 3, 72, 102
1, 17066, Note_off_c, 9, 42, 64
1, 17066, Note_on_c, 7, 60, 74
1, 17068, Note_off_c, 1, 33, 64
1, 17074, Note_off_c, 2, 57, 64
1, 17077, Note_off_c, 2, 60, 64
1, 17080, Note_off_c, 2, 64, 64
1, 17083, Note_off_c, 7, 60, 64
1, 17086, Note_off_c, 3, 72, 64
1, 17087, Note_on_c, 9, 40, 109
1, 17088, Note_off_c, 9, 40, 64
1, 17089, Note_on_c, 9, 69, 40
1, 17090, Note_on_c, 3, 69, 111
1, 17090, Note_off_c, 9, 69, 64
1, 17111, Note_on_c, 9, 69, 31
1, 17112, Note_on_c, 2, 60, 100
1, 17112, Note_on_c, 2, 64, 100
1, 17112, Note_on_c, 2, 57, 84
1, 17112, Note_on_c, 7, 57, 83
1, 17112, Note_off_c, 9, 69, 64
1, 17113, Note_on_c, 9, 44, 58
1, 17114, Note_off_c, 9, 44, 64
1, 17128, Note_off_c, 2, 60, 64
1, 17130, Note_off_c, 2, 64, 64
1, 17131, Note_off_c, 7, 57, 64
1, 17134, Note_on_c, 1, 33, 105
1, 17136, Note_on_c, 2, 62, 87
1, 17136, Note_off_c, 12, 69, 64
1, 17136, Note_off_c, 12, 81, 64
1, 17136, Note_on_c, 12, 84, 65
1, 17136, Note_on_c, 12, 72, 65
1, 17136, Note_on_c, 9, 69, 59
1, 17137, Note_on_c, 9, 42, 70
1, 17137, Note_off_c, 9, 69, 64
1, 17138, Note_off_c, 9, 42, 64
1, 17154, Note_off_c, 2, 62, 64
1, 17154, Note_off_c, 2, 57, 64
1, 17159, Note_off_c, 1, 33, 64
1, 17160, Note_on_c, 9, 36, 95
1, 17160, Note_on_c, 2, 57, 84
1, 17160, Note_on_c, 2, 64, 100
1, 17160, Note_on_c, 2, 60, 100
1, 17160, Note_on_c, 7, 64, 77
1, 17161, Note_off_c, 9, 36, 64
1, 17161, Note_on_c, 1, 33, 116
1, 17161, Note_on_c, 9, 69, 40
1, 17162, Note_off_c, 9, 69, 64
1, 17174, Note_off_c, 2, 57, 64
1, 17176, Note_off_c, 2, 60, 64
1, 17177, Note_off_c, 2, 64, 64
1, 17182, Note_off_c, 7, 64, 64
1, 17184, Note_on_c, 9, 69, 30
1, 17185, Note_on_c, 9, 42, 78
1, 17185, Note_off_c, 9, 69, 64
1, 17186, Note_off_c, 9, 42, 64
1, 17191, Note_off_c, 1, 33, 64
1, 17207, Note_on_c, 7, 57, 90
1, 17207, Note_on_c, 9, 69, 30
1, 17208, Note_on_c, 2, 64, 100
1, 17208, Note_on_c, 2, 57, 87
1, 17208, Note_on_c, 2, 60, 93
1, 17208, Note_off_c, 9, 69, 64
1, 17226, Note_off_c, 2, 60, 64
1, 17226, Note_off_c, 2, 64, 64
1, 17231, Note_on_c, 9, 36, 104
1, 17231, Note_on_c, 9, 69, 63
1, 17232, Note_off_c, 9, 36, 64
1, 17232, Note_on_c, 9, 42, 72
1, 17232, Note_on_c, 2, 62, 82
1, 17232, Note_off_c, 7, 57, 64
1, 17232, Note_off_c, 9, 69, 64
1, 17233, Note_off_c, 9, 42, 64
1, 17246, Note_off_c, 2, 62, 64
1, 17255, Note_on_c, 7, 57, 83
1, 17256, Note_on_c, 9, 69, 38
1, 17257, Lyric_t, "It "
1, 17257, Note_on_c, 5, 60, 91
1, 17257, Note_off_c, 9, 69, 64
1, 17272, Note_off_c, 3, 69, 64
1, 17274, Note_off_c, 7, 57, 64
1, 17275, Note_off_c, 5, 60, 64
1, 17278, Note_on_c, 2, 64, 106
1, 17279, Note_on_c, 9, 42, 72
1, 17279, Note_on_c, 7, 60, 74
1, 17280, Note_off_c, 9, 42, 64
1, 17280, Note_on_c, 9, 40, 104
1, 17280, Note_on_c, 2, 60, 106
1, 17280, Note_on_c, 9, 69, 22
1, 17281, Lyric_t, "ought "
1, 17281, Note_on_c, 5, 60, 95
1, 17281, Note_off_c, 9, 40, 64
1, 17281, Note_off_c, 9, 69, 64
1, 17288, Note_off_c, 2, 57, 64
1, 17293, Note_off_c, 7, 60, 64
1, 17303, Note_on_c, 9, 44, 70
1, 17304, Lyric_t, "to "
1, 17304, Note_off_c, 5, 60, 64
1, 17304, Note_on_c, 5, 62, 92
1, 17304, Note_off_c, 9, 44, 64
1, 17305, Note_on_c, 7, 60, 66
1, 17305, Note_on_c, 9, 69, 34
1, 17306, Note_off_c, 9, 69, 64
1, 17322, Note_off_c, 7, 60, 64
1, 17323, Note_off_c, 5, 62, 64
1, 17326, Note_on_c, 2, 57, 69
1, 17326, Note_on_c, 2, 62, 70
1, 17328, Note_off_c, 11, 57, 64
1, 17329, Lyric_t, "be "
1, 17329, Note_on_c, 5, 65, 94
1, 17329, Note_on_c, 9, 46, 70
1, 17329, Note_on_c, 7, 57, 83
1, 17329, Note_on_c, 9, 69, 53
1, 17330, Note_off_c, 9, 46, 64
1, 17330, Note_off_c, 9, 69, 64
1, 17349, Note_off_c, 7, 57, 64
1, 17352, Note_off_c, 5, 65, 64
1, 17353, Lyric_t, "il"
1, 17353, Note_on_c, 5, 62, 81
1, 17353, Note_on_c, 1, 33, 95
1, 17353, Note_on_c, 9, 69, 36
1, 17354, Note_off_c, 9, 69, 64
1, 17362, Note_off_c, 2, 62, 64
1, 17362, Note_off_c, 2, 64, 64
1, 17362, Note_off_c, 2, 60, 64
1, 17362, Note_off_c, 2, 57, 64
1, 17374, Note_on_c, 2, 62, 111
1, 17374, Note_on_c, 2, 65, 100
1, 17375, Note_off_c, 5, 62, 64
1, 17375, Note_on_c, 9, 42, 78
1, 17375, Note_off_c, 1, 33, 64
1, 17376, Time_signature, 5, 2, 24, 8
1, 17376, Lyric_t, "le"
1, 17376, Note_on_c, 5, 67, 93
1, 17376, Note_off_c, 9, 42, 64
1, 17376, Note_on_c, 1, 38, 105
1, 17376, Note_on_c, 2, 57, 93
1, 17376, Note_on_c, 7, 57, 74
1, 17376, Note_off_c, 11, 64, 64
1, 17376, Note_off_c, 11, 60, 64
1, 17376, Note_on_c, 11, 65, 76
1, 17376, Note_on_c, 11, 57, 73
1, 17376, Note_on_c, 11, 62, 74
1, 17376, Note_off_c, 12, 72, 64
1, 17376, Note_off_c, 12, 84, 64
1, 17376, Note_on_c, 12, 74, 69
1, 17376, Note_on_c, 12, 86, 69
1, 17377, Note_on_c, 9, 36, 104
1, 17377, Note_on_c, 9, 69, 31
1, 17378, Note_off_c, 9, 36, 64
1, 17378, Note_off_c, 9, 69, 64
1, 17386, Note_off_c, 7, 57, 64
1, 17397, Note_off_c, 2, 62, 64
1, 17398, Note_off_c, 2, 65, 64
1, 17398, Note_on_c, 2, 62, 87
1, 17400, Note_on_c, 2, 65, 76
1, 17401, Note_on_c, 7, 57, 87
1, 17401, Note_on_c, 9, 69, 23
1, 17402, Note_off_c, 9, 69, 64
1, 17422, Note_off_c, 1, 38, 64
1, 17422, Note_off_c, 7, 57, 64
1, 17423, Note_on_c, 9, 44, 64
1, 17423, Note_on_c, 9, 69, 51
1, 17424, Note_off_c, 9, 44, 64
1, 17424, Note_on_c, 2, 64, 78
1, 17424, Note_on_c, 2, 60, 73
1, 17424, Note_on_c, 7, 60, 80
1, 17424, Note_off_c, 9, 69, 64
1, 17425, Lyric_t, "gal. "
1, 17425, Lyric_t, "\015"
1, 17425, Note_on_c, 5, 62, 95
1, 17426, Note_off_c, 5, 67, 64
1, 17435, Note_off_c, 2, 62, 64
1, 17436, Note_off_c, 2, 57, 64
1, 17436, Note_off_c, 2, 60, 64
1, 17436, Note_off_c, 2, 65, 64
1, 17438, Note_off_c, 2, 64, 64
1, 17446, Note_off_c, 7, 60, 64
1, 17447, Note_on_c, 9, 42, 64
1, 17448, Note_off_c, 9, 42, 64
1, 17448, Note_on_c, 2, 57, 82
1, 17448, Note_on_c, 2, 65, 90
1, 17448, Note_on_c, 2, 62, 93
1, 17448, Note_on_c, 9, 69, 34
1, 17449, Note_on_c, 7, 62, 87
1, 17449, Note_off_c, 9, 69, 64
1, 17467, Note_off_c, 7, 62, 64
1, 17471, Note_on_c, 9, 40, 109
1, 17472, Note_off_c, 9, 40, 64
1, 17473, Lyric_t, "\012"
1, 17482, Note_off_c, 2, 62, 64
1, 17482, Note_off_c, 2, 65, 64
1, 17482, Note_off_c, 2, 57, 64
1, 17493, Note_off_c, 5, 62, 64
1, 17494, Note_on_c, 2, 62, 100
1, 17494, Note_on_c, 2, 65, 97
1, 17495, Note_on_c, 5, 60, 91
1, 17495, Note_on_c, 9, 44, 64
1, 17495, Note_on_c, 7, 57, 87
1, 17495, Note_on_c, 9, 69, 22
1, 17496, Note_off_c, 9, 44, 64
1, 17496, Note_on_c, 2, 57, 87
1, 17496, Note_off_c, 9, 69, 64
1, 17510, Note_off_c, 7, 57, 64
1, 17518, Note_off_c, 5, 60, 64
1, 17518, Note_on_c, 1, 33, 89
1, 17518, Note_on_c, 2, 64, 90
1, 17518, Note_on_c, 2, 60, 76
1, 17519, Note_on_c, 9, 42, 63
1, 17519, Note_on_c, 9, 69, 51
1, 17520, Note_on_c, 5, 57, 109
1, 17520, Note_off_c, 9, 42, 64
1, 17520, Note_off_c, 9, 69, 64
1, 17539, Note_off_c, 1, 33, 64
1, 17542, Note_on_c, 1, 38, 92
1, 17542, Note_off_c, 2, 65, 64
1, 17542, Note_off_c, 2, 62, 64
1, 17543, Note_on_c, 9, 69, 48
1, 17544, Note_on_c, 2, 62, 111
1, 17544, Note_on_c, 2, 65, 97
1, 17544, Note_off_c, 9, 69, 64
1, 17545, Note_on_c, 9, 36, 95
1, 17545, Note_on_c, 7, 65, 80
1, 17546, Note_off_c, 9, 36, 64
1, 17558, Note_off_c, 1, 38, 64
1, 17559, Note_off_c, 2, 64, 64
1, 17559, Note_off_c, 2, 60, 64
1, 17560, Note_off_c, 2, 65, 64
1, 17562, Note_off_c, 7, 65, 64
1, 17564, Note_off_c, 2, 57, 64
1, 17564, Note_off_c, 2, 62, 64
1, 17567, Lyric_t, "You "
1, 17567, Note_on_c, 3, 77, 121
1, 17567, Note_on_c, 9, 42, 70
1, 17567, Note_on_c, 1, 38, 95
1, 17568, Note_off_c, 9, 42, 64
1, 17570, Note_on_c, 9, 69, 33
1, 17571, Note_off_c, 9, 69, 64
1, 17581, Note_off_c, 3, 77, 64
1, 17590, Note_on_c, 2, 65, 106
1, 17590, Note_on_c, 2, 62, 106
1, 17591, Lyric_t, "got "
1, 17591, Note_on_c, 3, 77, 89
1, 17592, Note_off_c, 5, 57, 64
1, 17592, Note_on_c, 2, 57, 90
1, 17593, Note_on_c, 7, 57, 83
1, 17593, Note_on_c, 9, 69, 26
1, 17594, Note_off_c, 9, 69, 64
1, 17603, Note_off_c, 3, 77, 64
1, 17612, Note_off_c, 7, 57, 64
1, 17615, Lyric_t, "a "
1, 17615, Note_on_c, 3, 77, 127
1, 17615, Note_on_c, 9, 36, 98
1, 17615, Note_on_c, 9, 42, 78
1, 17616, Note_off_c, 9, 42, 64
1, 17616, Note_off_c, 9, 36, 64
1, 17617, Note_on_c, 9, 69, 61
1, 17618, Note_off_c, 9, 69, 64
1, 17632, Note_off_c, 1, 38, 64
1, 17634, Note_off_c, 3, 77, 64
1, 17640, Note_on_c, 7, 57, 83
1, 17640, Note_on_c, 9, 69, 40
1, 17641, Lyric_t, "rea"
1, 17641, Note_on_c, 3, 76, 116
1, 17641, Note_off_c, 9, 69, 64
1, 17659, Note_off_c, 2, 62, 64
1, 17659, Note_off_c, 2, 65, 64
1, 17660, Note_off_c, 2, 57, 64
1, 17662, Note_on_c, 2, 64, 106
1, 17662, Note_on_c, 2, 60, 111
1, 17662, Note_on_c, 2, 57, 87
1, 17663, Note_on_c, 9, 46, 80
1, 17664, Note_off_c, 9, 46, 64
1, 17664, Note_on_c, 1, 33, 92
1, 17664, Note_off_c, 7, 57, 64
1, 17664, Note_off_c, 11, 62, 64
1, 17664, Note_off_c, 11, 65, 64
1, 17664, Note_on_c, 11, 64, 71
1, 17664, Note_on_c, 11, 60, 70
1, 17664, Note_off_c, 12, 86, 64
1, 17664, Note_off_c, 12, 74, 64
1, 17664, Note_on_c, 12, 88, 68
1, 17664, Note_on_c, 12, 76, 68
1, 17665, Note_on_c, 7, 60, 72
1, 17666, Note_on_c, 9, 69, 33
1, 17667, Note_off_c, 9, 69, 64
1, 17677, Note_off_c, 7, 60, 64
1, 17685, Note_off_c, 3, 76, 64
1, 17687, Note_on_c, 7, 60, 66
1, 17688, Lyric_t, "son "
1, 17688, Note_on_c, 3, 77, 105
1, 17689, Note_on_c, 9, 69, 30
1, 17690, Note_off_c, 9, 69, 64
1, 17706, Note_off_c, 3, 77, 64
1, 17708, Note_off_c, 7, 60, 64
1, 17711, Note_on_c, 9, 42, 61
1, 17712, Lyric_t, "for "
1, 17712, Note_on_c, 3, 76, 111
1, 17712, Note_off_c, 9, 42, 64
1, 17713, Note_on_c, 7, 57, 74
1, 17714, Note_on_c, 9, 69, 52
1, 17715, Note_off_c, 9, 69, 64
1, 17730, Note_off_c, 3, 76, 64
1, 17734, Note_off_c, 7, 57, 64
1, 17737, Lyric_t, "liv"
1, 17737, Note_on_c, 3, 74, 105
1, 17737, Note_on_c, 9, 69, 36
1, 17738, Note_off_c, 9, 69, 64
1, 17755, Note_off_c, 2, 64, 64
1, 17757, Note_off_c, 2, 57, 64
1, 17757, Note_off_c, 2, 60, 64
1, 17758, Note_on_c, 2, 57, 90
1, 17759, Note_on_c, 9, 40, 124
1, 17759, Note_on_c, 9, 42, 72
1, 17760, Note_off_c, 9, 42, 64
1, 17760, Note_off_c, 9, 40, 64
1, 17760, Note_off_c, 11, 60, 64
1, 17760, Note_off_c, 11, 64, 64
1, 17760, Note_on_c, 11, 62, 71
1, 17760, Note_on_c, 11, 65, 74
1, 17760, Note_off_c, 12, 76, 64
1, 17760, Note_off_c, 12, 88, 64
1, 17760, Note_on_c, 12, 77, 68
1, 17760, Note_on_c, 12, 89, 68
1, 17761, Note_off_c, 1, 33, 64
1, 17761, Note_on_c, 7, 62, 87
1, 17761, Note_on_c, 9, 69, 40
1, 17762, Note_on_c, 1, 38, 102
1, 17762, Note_off_c, 9, 69, 64
1, 17776, Note_off_c, 7, 62, 64
1, 17785, Lyric_t, "in', "
1, 17785, Lyric_t, "\015"
1, 17785, Note_off_c, 3, 74, 64
1, 17785, Note_on_c, 3, 72, 98
1, 17785, Note_on_c, 7, 62, 74
1, 17785, Note_on_c, 9, 69, 23
1, 17786, Note_off_c, 9, 69, 64
1, 17803, Note_off_c, 3, 72, 64
1, 17806, Note_on_c, 2, 65, 100
1, 17806, Note_on_c, 2, 62, 111
1, 17807, Note_on_c, 9, 42, 70
1, 17808, Note_off_c, 9, 42, 64
1, 17808, Note_off_c, 7, 62, 64
1, 17808, Note_off_c, 11, 57, 64
1, 17808, Note_on_c, 9, 69, 58
1, 17809, Lyric_t, "you "
1, 17809, Note_on_c, 3, 69, 98
1, 17809, Note_on_c, 9, 40, 95
1, 17809, Note_off_c, 9, 69, 64
1, 17810, Note_off_c, 9, 40, 64
1, 17810, Note_off_c, 1, 38, 64
1, 17810, Note_on_c, 7, 57, 77
1, 17824, Note_off_c, 7, 57, 64
1, 17831, Note_off_c, 3, 69, 64
1, 17833, Note_on_c, 9, 40, 71
1, 17834, Lyric_t, "bat"
1, 17834, Note_on_c, 3, 74, 116
1, 17834, Note_off_c, 9, 40, 64
1, 17834, Note_on_c, 9, 69, 48
1, 17835, Note_off_c, 9, 69, 64
1, 17843, Note_off_c, 2, 62, 64
1, 17843, Note_off_c, 2, 65, 64
1, 17843, Note_off_c, 2, 57, 64
1, 17855, Note_on_c, 1, 39, 102
1, 17856, Time_signature, 4, 2, 24, 8
1, 17856, Note_on_c, 2, 58, 97
1, 17856, Note_on_c, 2, 62, 100
1, 17856, Note_on_c, 2, 67, 97
1, 17856, Note_off_c, 11, 65, 64
1, 17856, Note_on_c, 11, 55, 80
1, 17856, Note_on_c, 11, 58, 88
1, 17856, Note_off_c, 12, 89, 64
1, 17856, Note_off_c, 12, 77, 64
1, 17856, Note_on_c, 12, 79, 69
1, 17856, Note_on_c, 12, 91, 69
1, 17857, Note_on_c, 9, 36, 109
1, 17857, Note_on_c, 9, 51, 78
1, 17857, Note_on_c, 7, 58, 80
1, 17858, Note_off_c, 9, 51, 64
1, 17858, Note_off_c, 9, 36, 64
1, 17858, Note_on_c, 9, 69, 23
1, 17859, Note_off_c, 9, 69, 64
1, 17869, Note_off_c, 7, 58, 64
1, 17877, Note_off_c, 2, 62, 64
1, 17878, Note_off_c, 2, 67, 64
1, 17878, Note_on_c, 2, 62, 76
1, 17880, Note_on_c, 2, 67, 60
1, 17881, Note_on_c, 9, 69, 24
1, 17882, Note_on_c, 7, 58, 65
1, 17882, Note_off_c, 9, 69, 64
1, 17904, Note_on_c, 9, 44, 61
1, 17904, Note_off_c, 1, 39, 64
1, 17904, Note_on_c, 2, 60, 75
1, 17905, Note_off_c, 9, 44, 64
1, 17905, Note_on_c, 9, 69, 62
1, 17906, Note_off_c, 7, 58, 64
1, 17906, Note_on_c, 7, 60, 68
1, 17906, Note_off_c, 9, 69, 64
1, 17914, Note_off_c, 2, 67, 64
1, 17914, Note_off_c, 2, 58, 64
1, 17914, Note_off_c, 2, 62, 64
1, 17921, Note_off_c, 2, 60, 64
1, 17922, Note_off_c, 3, 74, 64
1, 17926, Note_on_c, 2, 58, 97
1, 17927, Note_off_c, 7, 60, 64
1, 17928, Note_on_c, 9, 42, 70
1, 17928, Note_on_c, 2, 62, 90
1, 17928, Note_on_c, 2, 67, 87
1, 17929, Note_off_c, 9, 42, 64
1, 17929, Note_on_c, 9, 69, 38
1, 17930, Lyric_t, "tle "
1, 17930, Note_on_c, 3, 75, 111
1, 17930, Note_on_c, 7, 62, 74
1, 17930, Note_off_c, 9, 69, 64
1, 17944, Note_off_c, 2, 67, 64
1, 17945, Note_off_c, 2, 62, 64
1, 17946, Note_off_c, 2, 58, 64
1, 17951, Note_on_c, 9, 40, 109
1, 17952, Note_off_c, 9, 40, 64
1, 17952, Note_off_c, 7, 62, 64
1, 17976, Note_on_c, 9, 44, 70
1, 17976, Note_on_c, 2, 62, 93
1, 17976, Note_on_c, 2, 58, 93
1, 17976, Note_on_c, 2, 67, 93
1, 17977, Note_off_c, 9, 44, 64
1, 17977, Note_on_c, 7, 58, 80
1, 17977, Note_on_c, 9, 69, 40
1, 17978, Note_off_c, 9, 69, 64
1, 17999, Note_off_c, 7, 58, 64
1, 18000, Note_on_c, 2, 60, 69
1, 18001, Lyric_t, "on "
1, 18001, Note_off_c, 3, 75, 64
1, 18001, Note_on_c, 3, 74, 116
1, 18001, Note_on_c, 9, 42, 68
1, 18001, Note_on_c, 9, 69, 63
1, 18002, Note_off_c, 9, 42, 64
1, 18002, Note_off_c, 9, 69, 64
1, 18014, Note_off_c, 2, 67, 64
1, 18014, Note_off_c, 2, 62, 64
1, 18014, Note_off_c, 2, 58, 64
1, 18018, Note_off_c, 2, 60, 64
1, 18023, Note_on_c, 9, 36, 104
1, 18023, Note_on_c, 7, 63, 74
1, 18024, Note_off_c, 9, 36, 64
1, 18024, Note_on_c, 2, 58, 84
1, 18024, Note_on_c, 2, 62, 90
1, 18024, Note_on_c, 2, 67, 90
1, 18025, Note_on_c, 1, 39, 98
1, 18025, Note_on_c, 9, 69, 48
1, 18026, Note_off_c, 9, 69, 64
1, 18040, Note_off_c, 2, 67, 64
1, 18040, Note_off_c, 2, 62, 64
1, 18045, Note_off_c, 2, 58, 64
1, 18048, Note_on_c, 9, 42, 70
1, 18048, Note_off_c, 7, 63, 64
1, 18048, Note_on_c, 9, 69, 20
1, 18049, Note_off_c, 9, 42, 64
1, 18049, Note_off_c, 9, 69, 64
1, 18050, Note_off_c, 1, 39, 64
1, 18071, Note_on_c, 1, 39, 102
1, 18071, Note_on_c, 9, 69, 36
1, 18072, Note_on_c, 2, 62, 100
1, 18072, Note_on_c, 2, 58, 100
1, 18072, Note_on_c, 2, 67, 93
1, 18072, Note_off_c, 9, 69, 64
1, 18073, Note_on_c, 7, 58, 74
1, 18086, Note_off_c, 1, 39, 64
1, 18090, Note_off_c, 2, 67, 64
1, 18092, Note_off_c, 2, 62, 64
1, 18094, Note_off_c, 7, 58, 64
1, 18095, Note_on_c, 9, 36, 95
1, 18095, Note_on_c, 9, 42, 70
1, 18095, Note_on_c, 1, 39, 98
1, 18095, Note_on_c, 9, 69, 58
1, 18096, Note_off_c, 9, 42, 64
1, 18096, Note_off_c, 9, 36, 64
1, 18096, Note_on_c, 2, 60, 78
1, 18096, Note_off_c, 12, 91, 64
1, 18096, Note_off_c, 12, 79, 64
1, 18096, Note_on_c, 12, 86, 65
1, 18096, Note_on_c, 12, 74, 66
1, 18096, Note_off_c, 9, 69, 64
1, 18099, Note_off_c, 3, 74, 64
1, 18119, Note_on_c, 7, 58, 74
1, 18119, Note_on_c, 9, 69, 36
1, 18120, Note_off_c, 9, 69, 64
1, 18122, Note_off_c, 1, 39, 64
1, 18122, Note_off_c, 2, 60, 64
1, 18138, Note_off_c, 2, 58, 64
1, 18142, Note_off_c, 7, 58, 64
1, 18143, Note_on_c, 9, 40, 114
1, 18143, Note_on_c, 9, 42, 72
1, 18144, Note_off_c, 9, 42, 64
1, 18144, Note_off_c, 9, 40, 64
1, 18144, Note_on_c, 2, 62, 106
1, 18144, Note_on_c, 2, 67, 97
1, 18144, Note_off_c, 12, 74, 64
1, 18144, Note_off_c, 12, 86, 64
1, 18144, Note_on_c, 12, 82, 73
1, 18144, Note_on_c, 12, 70, 74
1, 18145, Note_on_c, 7, 62, 74
1, 18145, Note_on_c, 9, 69, 22
1, 18146, Note_off_c, 9, 69, 64
1, 18156, Note_off_c, 7, 62, 64
1, 18167, Note_on_c, 9, 44, 72
1, 18167, Note_on_c, 1, 39, 102
1, 18168, Lyric_t, "with "
1, 18168, Note_on_c, 3, 70, 102
1, 18168, Note_off_c, 9, 44, 64
1, 18169, Note_on_c, 7, 62, 66
1, 18169, Note_on_c, 9, 69, 25
1, 18170, Note_off_c, 9, 69, 64
1, 18185, Note_off_c, 3, 70, 64
1, 18186, Note_off_c, 7, 62, 64
1, 18189, Note_off_c, 1, 39, 64
1, 18190, Note_off_c, 2, 67, 64
1, 18190, Note_off_c, 2, 62, 64
1, 18190, Note_on_c, 2, 58, 80
1, 18190, Note_on_c, 2, 60, 75
1, 18191, Lyric_t, "the "
1, 18191, Note_on_c, 3, 72, 98
1, 18191, Note_on_c, 9, 46, 72
1, 18191, Note_on_c, 1, 34, 73
1, 18191, Note_on_c, 7, 58, 83
1, 18191, Note_on_c, 9, 69, 67
1, 18192, Note_off_c, 9, 46, 64
1, 18192, Note_off_c, 9, 69, 64
1, 18198, Note_off_c, 2, 58, 64
1, 18210, Note_off_c, 3, 72, 64
1, 18212, Note_off_c, 7, 58, 64
1, 18214, Note_off_c, 1, 34, 64
1, 18215, Note_on_c, 1, 36, 83
1, 18215, Note_on_c, 9, 69, 38
1, 18216, Note_off_c, 9, 69, 64
1, 18217, Lyric_t, "love "
1, 18217, Note_on_c, 3, 74, 116
1, 18234, Note_off_c, 2, 60, 64
1, 18238, Note_on_c, 9, 42, 85
1, 18239, Note_off_c, 9, 42, 64
1, 18239, Note_on_c, 7, 58, 72
1, 18240, Note_on_c, 2, 62, 106
1, 18240, Note_on_c, 2, 58, 93
1, 18240, Note_on_c, 2, 67, 93
1, 18240, Note_off_c, 12, 70, 64
1, 18240, Note_off_c, 12, 82, 64
1, 18240, Note_on_c, 12, 79, 73
1, 18240, Note_on_c, 12, 67, 73
1, 18241, Note_on_c, 9, 36, 98
1, 18241, Note_off_c, 1, 36, 64
1, 18241, Note_on_c, 1, 39, 102
1, 18241, Note_on_c, 9, 69, 12
1, 18242, Note_off_c, 9, 36, 64
1, 18242, Note_off_c, 9, 69, 64
1, 18249, Note_off_c, 7, 58, 64
1, 18261, Note_off_c, 2, 62, 64
1, 18262, Note_off_c, 2, 67, 64
1, 18262, Note_on_c, 2, 62, 69
1, 18264, Note_on_c, 2, 67, 76
1, 18264, Note_on_c, 7, 58, 80
1, 18265, Note_on_c, 9, 69, 24
1, 18266, Note_off_c, 9, 69, 64
1, 18278, Note_off_c, 1, 39, 64
1, 18282, Note_off_c, 2, 67, 64
1, 18282, Note_off_c, 2, 62, 64
1, 18286, Note_off_c, 3, 74, 64
1, 18286, Note_on_c, 2, 60, 78
1, 18287, Note_off_c, 7, 58, 64
1, 18289, Lyric_t, "you're "
1, 18289, Note_on_c, 3, 75, 98
1, 18289, Note_on_c, 9, 44, 57
1, 18289, Note_on_c, 9, 69, 62
1, 18290, Note_off_c, 9, 44, 64
1, 18290, Note_on_c, 7, 60, 70
1, 18290, Note_off_c, 9, 69, 64
1, 18292, Note_off_c, 2, 58, 64
1, 18307, Note_off_c, 7, 60, 64
1, 18308, Note_off_c, 2, 60, 64
1, 18309, Note_off_c, 3, 75, 64
1, 18312, Note_on_c, 2, 62, 100
1, 18312, Note_on_c, 2, 58, 90
1, 18312, Note_on_c, 2, 67, 100
1, 18313, Note_on_c, 9, 42, 63
1, 18313, Note_on_c, 9, 69, 38
1, 18314, Lyric_t, "build"
1, 18314, Note_on_c, 3, 77, 116
1, 18314, Note_off_c, 9, 42, 64
1, 18314, Note_on_c, 7, 62, 80
1, 18314, Note_off_c, 9, 69, 64
1, 18328, Note_off_c, 2, 67, 64
1, 18328, Note_off_c, 2, 62, 64
1, 18329, Note_off_c, 2, 58, 64
1, 18331, Note_off_c, 7, 62, 64
1, 18335, Note_on_c, 9, 40, 109
1, 18335, Note_on_c, 9, 69, 19
1, 18336, Note_off_c, 9, 40, 64
1, 18336, Note_off_c, 9, 69, 64
1, 18359, Note_on_c, 9, 69, 30
1, 18360, Note_on_c, 2, 62, 106
1, 18360, Note_on_c, 2, 58, 97
1, 18360, Note_on_c, 2, 67, 100
1, 18360, Note_off_c, 9, 69, 64
1, 18361, Note_on_c, 9, 44, 72
1, 18361, Note_on_c, 7, 58, 80
1, 18362, Note_off_c, 9, 44, 64
1, 18376, Note_off_c, 3, 77, 64
1, 18378, Note_off_c, 2, 67, 64
1, 18379, Note_off_c, 7, 58, 64
1, 18380, Note_off_c, 2, 62, 64
1, 18382, Note_on_c, 2, 60, 73
1, 18383, Lyric_t, "in' "
1, 18383, Note_on_c, 3, 75, 98
1, 18383, Note_on_c, 9, 69, 62
1, 18384, Note_off_c, 9, 69, 64
1, 18385, Note_on_c, 9, 42, 81
1, 18386, Note_off_c, 9, 42, 64
1, 18398, Note_off_c, 2, 58, 64
1, 18406, Note_off_c, 2, 60, 64
1, 18406, Note_on_c, 9, 69, 33
1, 18407, Note_on_c, 9, 36, 95
1, 18407, Note_on_c, 1, 39, 95
1, 18407, Note_off_c, 9, 69, 64
1, 18408, Note_off_c, 9, 36, 64
1, 18408, Note_on_c, 2, 58, 93
1, 18408, Note_on_c, 2, 62, 93
1, 18408, Note_on_c, 2, 67, 90
1, 18409, Note_on_c, 7, 63, 80
1, 18414, Note_off_c, 3, 75, 64
1, 18426, Note_off_c, 7, 63, 64
1, 18431, Lyric_t, "on. "
1, 18431, Lyric_t, "\015"
1, 18431, Note_on_c, 3, 74, 116
1, 18431, Note_on_c, 9, 42, 81
1, 18431, Note_on_c, 9, 69, 34
1, 18432, Note_off_c, 9, 42, 64
1, 18432, Note_off_c, 9, 69, 64
1, 18438, Note_off_c, 1, 39, 64
1, 18442, Note_off_c, 2, 67, 64
1, 18442, Note_off_c, 2, 62, 64
1, 18442, Note_off_c, 2, 58, 64
1, 18454, Note_on_c, 1, 39, 98
1, 18455, Note_on_c, 7, 58, 80
1, 18456, Lyric_t, "\012"
1, 18456, Note_off_c, 3, 74, 64
1, 18456, Note_on_c, 2, 62, 106
1, 18456, Note_on_c, 2, 67, 100
1, 18456, Note_on_c, 9, 69, 33
1, 18457, Note_on_c, 3, 72, 105
1, 18457, Note_off_c, 9, 69, 64
1, 18469, Note_off_c, 1, 39, 64
1, 18473, Note_off_c, 2, 67, 64
1, 18475, Note_off_c, 7, 58, 64
1, 18478, Note_on_c, 1, 39, 81
1, 18479, Note_on_c, 9, 36, 98
1, 18479, Note_on_c, 9, 42, 94
1, 18480, Note_off_c, 9, 42, 64
1, 18480, Note_off_c, 9, 36, 64
1, 18480, Note_on_c, 2, 60, 84
1, 18480, Note_on_c, 9, 69, 60
1, 18481, Note_off_c, 9, 69, 64
1, 18487, Note_off_c, 3, 72, 64
1, 18502, Note_off_c, 2, 62, 64
1, 18503, Note_on_c, 7, 58, 80
1, 18504, Note_on_c, 4, 69, 85
1, 18504, Note_on_c, 9, 69, 45
1, 18505, Lyric_t, "You "
1, 18505, Note_on_c, 3, 70, 102
1, 18505, Pitch_bend_c, 4, 8192
1, 18505, Control_c, 4, 1, 0
1, 18505, Note_off_c, 9, 69, 64
1, 18506, Note_off_c, 2, 60, 64
1, 18513, Note_off_c, 1, 39, 64
1, 18517, Note_off_c, 3, 70, 64
1, 18527, Note_on_c, 9, 40, 114
1, 18527, Note_on_c, 9, 42, 81
1, 18528, Note_off_c, 4, 69, 64
1, 18528, Note_on_c, 4, 67, 86
1, 18528, Note_off_c, 9, 42, 64
1, 18528, Note_off_c, 9, 40, 64
1, 18528, Note_on_c, 2, 62, 116
1, 18528, Note_on_c, 2, 67, 106
1, 18528, Note_off_c, 12, 67, 64
1, 18528, Note_off_c, 12, 79, 64
1, 18528, Note_on_c, 12, 82, 73
1, 18528, Note_on_c, 12, 70, 74
1, 18529, Note_on_c, 9, 69, 42
1, 18530, Lyric_t, "got"
1, 18530, Note_on_c, 3, 70, 102
1, 18530, Note_off_c, 7, 58, 64
1, 18530, Note_on_c, 7, 62, 77
1, 18530, Note_off_c, 9, 69, 64
1, 18540, Note_off_c, 7, 62, 64
1, 18549, Note_off_c, 3, 70, 64
1, 18552, Note_off_c, 4, 67, 64
1, 18552, Note_on_c, 4, 69, 86
1, 18552, Note_on_c, 9, 44, 68
1, 18553, Note_off_c, 9, 44, 64
1, 18553, Note_on_c, 9, 69, 30
1, 18554, Lyric_t, "ta "
1, 18554, Note_on_c, 3, 72, 105
1, 18554, Note_on_c, 7, 62, 59
1, 18554, Note_off_c, 9, 69, 64
1, 18568, Note_off_c, 3, 72, 64
1, 18573, Note_off_c, 7, 62, 64
1, 18574, Note_on_c, 1, 39, 98
1, 18576, Note_off_c, 4, 69, 64
1, 18576, Note_on_c, 4, 70, 86
1, 18576, Note_on_c, 9, 46, 85
1, 18576, Note_on_c, 2, 60, 93
1, 18576, Note_off_c, 11, 58, 64
1, 18576, Note_off_c, 11, 55, 64
1, 18576, Note_off_c, 11, 62, 64
1, 18576, Note_on_c, 9, 69, 60
1, 18577, Note_off_c, 9, 46, 64
1, 18577, Note_off_c, 9, 69, 64
1, 18578, Lyric_t, "be "
1, 18578, Note_on_c, 3, 74, 116
1, 18578, Note_on_c, 7, 58, 74
1, 18592, Note_off_c, 3, 74, 64
1, 18600, Note_off_c, 4, 70, 64
1, 18600, Note_on_c, 4, 69, 86
1, 18600, Note_on_c, 9, 69, 30
1, 18601, Note_off_c, 9, 69, 64
1, 18602, Lyric_t, "mine. "
1, 18602, Lyric_t, "\015"
1, 18602, Note_on_c, 3, 74, 121
1, 18605, Note_off_c, 7, 58, 64
1, 18610, Note_off_c, 2, 60, 64
1, 18610, Note_off_c, 2, 67, 64
1, 18610, Note_off_c, 2, 62, 64
1, 18622, Note_off_c, 1, 39, 64
1, 18623, Note_on_c, 9, 36, 104
1, 18623, Note_on_c, 9, 51, 85
1, 18623, Note_on_c, 9, 42, 85
1, 18624, Note_off_c, 9, 42, 64
1, 18624, Note_off_c, 9, 51, 64
1, 18624, Note_off_c, 9, 36, 64
1, 18624, Note_on_c, 1, 45, 89
1, 18624, Note_on_c, 2, 74, 87
1, 18624, Note_on_c, 2, 66, 90
1, 18624, Note_on_c, 2, 69, 100
1, 18624, Note_on_c, 2, 64, 90
1, 18624, Note_on_c, 7, 54, 66
1, 18624, Note_on_c, 11, 62, 71
1, 18624, Note_on_c, 11, 54, 62
1, 18624, Note_on_c, 11, 57, 85
1, 18624, Note_off_c, 12, 70, 64
1, 18624, Note_off_c, 12, 82, 64
1, 18624, Note_on_c, 12, 86, 74
1, 18624, Note_on_c, 12, 74, 76
1, 18625, Note_on_c, 1, 38, 102
1, 18625, Note_on_c, 9, 69, 40
1, 18626, Note_off_c, 9, 69, 64
1, 18635, Note_off_c, 7, 54, 64
1, 18646, Note_off_c, 2, 64, 64
1, 18646, Note_off_c, 2, 74, 64
1, 18646, Note_off_c, 2, 66, 64
1, 18646, Note_off_c, 2, 69, 64
1, 18647, Note_on_c, 7, 54, 74
1, 18647, Note_on_c, 9, 69, 31
1, 18648, Note_on_c, 2, 74, 63
1, 18648, Note_on_c, 2, 66, 76
1, 18648, Note_on_c, 2, 69, 73
1, 18648, Note_on_c, 2, 64, 69
1, 18648, Note_off_c, 9, 69, 64
1, 18658, Note_off_c, 7, 54, 64
1, 18670, Note_off_c, 2, 64, 64
1, 18671, Note_on_c, 9, 44, 78
1, 18671, Note_on_c, 7, 57, 90
1, 18672, Note_off_c, 9, 44, 64
1, 18672, Note_on_c, 2, 64, 90
1, 18672, Note_on_c, 9, 69, 59
1, 18673, Note_off_c, 9, 69, 64
1, 18693, Note_off_c, 2, 74, 64
1, 18693, Note_off_c, 2, 69, 64
1, 18693, Note_off_c, 2, 66, 64
1, 18693, Note_off_c, 7, 57, 64
1, 18696, Note_on_c, 2, 66, 84
1, 18696, Note_on_c, 2, 69, 93
1, 18696, Note_on_c, 2, 74, 82
1, 18697, Note_on_c, 9, 42, 68
1, 18697, Note_on_c, 7, 62, 77
1, 18697, Note_on_c, 9, 69, 40
1, 18698, Note_off_c, 9, 42, 64
1, 18698, Note_off_c, 9, 69, 64
1, 18713, Note_off_c, 7, 62, 64
1, 18716, Note_off_c, 2, 69, 64
1, 18719, Note_on_c, 9, 40, 109
1, 18720, Note_off_c, 9, 40, 64
1, 18720, Note_off_c, 2, 66, 64
1, 18720, Note_on_c, 9, 69, 30
1, 18721, Note_off_c, 2, 74, 64
1, 18721, Note_off_c, 9, 69, 64
1, 18730, Note_off_c, 2, 64, 64
1, 18743, Note_on_c, 9, 69, 30
1, 18744, Note_on_c, 2, 66, 84
1, 18744, Note_on_c, 2, 74, 84
1, 18744, Note_on_c, 2, 69, 93
1, 18744, Note_on_c, 2, 64, 59
1, 18744, Note_off_c, 9, 69, 64
1, 18745, Note_on_c, 9, 44, 64
1, 18745, Note_on_c, 7, 57, 77
1, 18746, Note_off_c, 9, 44, 64
1, 18765, Note_off_c, 2, 64, 64
1, 18766, Note_on_c, 2, 64, 87
1, 18766, Note_off_c, 7, 57, 64
1, 18767, Note_on_c, 9, 69, 63
1, 18768, Note_off_c, 9, 69, 64
1, 18769, Note_on_c, 9, 42, 78
1, 18770, Note_off_c, 9, 42, 64
1, 18773, Note_off_c, 1, 38, 64
1, 18790, Note_off_c, 2, 64, 64
1, 18790, Note_off_c, 2, 69, 64
1, 18790, Note_off_c, 2, 74, 64
1, 18790, Note_off_c, 2, 66, 64
1, 18791, Note_on_c, 9, 36, 85
1, 18791, Note_on_c, 7, 66, 83
1, 18792, Note_off_c, 9, 36, 64
1, 18792, Note_on_c, 2, 64, 64
1, 18792, Note_on_c, 2, 69, 90
1, 18792, Note_on_c, 2, 74, 87
1, 18792, Note_on_c, 2, 66, 84
1, 18792, Note_on_c, 9, 69, 38
1, 18793, Note_off_c, 9, 69, 64
1, 18814, Note_on_c, 1, 33, 8
1, 18816, Note_on_c, 9, 51, 94
1, 18816, Note_on_c, 1, 38, 121
1, 18816, Note_on_c, 9, 69, 22
1, 18817, Note_off_c, 9, 51, 64
1, 18817, Note_off_c, 9, 69, 64
1, 18822, Note_off_c, 1, 33, 64
1, 18830, Note_off_c, 7, 66, 64
1, 18838, Note_off_c, 2, 66, 64
1, 18838, Note_off_c, 2, 74, 64
1, 18838, Note_off_c, 2, 69, 64
1, 18839, Note_on_c, 9, 36, 82
1, 18839, Note_on_c, 7, 57, 87
1, 18840, Note_off_c, 9, 36, 64
1, 18840, Note_on_c, 2, 74, 90
1, 18840, Note_on_c, 2, 66, 90
1, 18841, Note_on_c, 9, 69, 34
1, 18842, Note_off_c, 9, 69, 64
1, 18843, Note_off_c, 3, 74, 64
1, 18860, Note_off_c, 7, 57, 64
1, 18863, Note_on_c, 9, 36, 91
1, 18864, Note_off_c, 4, 69, 64
1, 18864, Note_off_c, 9, 36, 64
1, 18865, Note_on_c, 9, 51, 85
1, 18865, Note_on_c, 9, 69, 53
1, 18866, Note_off_c, 9, 51, 64
1, 18866, Note_off_c, 9, 69, 64
1, 18886, Note_off_c, 2, 64, 64
1, 18888, Note_on_c, 4, 66, 84
1, 18888, Note_on_c, 2, 64, 80
1, 18889, Lyric_t, "We "
1, 18889, Note_on_c, 3, 74, 111
1, 18889, Note_on_c, 7, 57, 74
1, 18889, Note_on_c, 9, 69, 36
1, 18890, Note_off_c, 9, 69, 64
1, 18900, Note_off_c, 2, 64, 64
1, 18900, Note_off_c, 2, 66, 64
1, 18900, Note_off_c, 2, 74, 64
1, 18906, Note_off_c, 7, 57, 64
1, 18907, Note_off_c, 1, 45, 64
1, 18911, Note_off_c, 1, 38, 64
1, 18911, Note_on_c, 1, 43, 95
1, 18912, Lyric_t, "take "
1, 18912, Note_off_c, 3, 74, 64
1, 18912, Note_on_c, 3, 70, 102
1, 18912, Note_off_c, 4, 66, 64
1, 18912, Note_on_c, 4, 67, 85
1, 18912, Note_on_c, 9, 40, 109
1, 18912, Note_on_c, 9, 42, 64
1, 18912, Note_on_c, 1, 50, 95
1, 18912, Note_on_c, 2, 74, 100
1, 18912, Note_on_c, 2, 70, 97
1, 18912, Note_on_c, 2, 67, 106
1, 18912, Note_off_c, 11, 57, 64
1, 18912, Note_off_c, 11, 54, 64
1, 18912, Note_on_c, 11, 55, 78
1, 18912, Note_on_c, 11, 58, 82
1, 18913, Note_off_c, 9, 42, 64
1, 18913, Note_off_c, 9, 40, 64
1, 18913, Note_on_c, 7, 58, 80
1, 18913, Note_on_c, 7, 62, 83
1, 18913, Note_on_c, 9, 69, 31
1, 18914, Note_off_c, 9, 69, 64
1, 18930, Note_off_c, 3, 70, 64
1, 18935, Lyric_t, "it "
1, 18935, Note_on_c, 3, 72, 105
1, 18936, Note_off_c, 4, 67, 64
1, 18936, Note_on_c, 4, 69, 85
1, 18937, Note_on_c, 9, 69, 23
1, 18938, Note_off_c, 9, 69, 64
1, 18946, Note_off_c, 3, 72, 64
1, 18959, Note_on_c, 9, 69, 51
1, 18960, Lyric_t, "a"
1, 18960, Note_on_c, 3, 74, 102
1, 18960, Note_off_c, 4, 69, 64
1, 18960, Note_on_c, 4, 70, 85
1, 18960, Note_off_c, 9, 69, 64
1, 18961, Note_on_c, 9, 42, 81
1, 18962, Note_off_c, 9, 42, 64
1, 18973, Note_off_c, 3, 74, 64
1, 18980, Note_off_c, 7, 62, 64
1, 18984, Note_off_c, 4, 70, 64
1, 18984, Note_on_c, 4, 69, 85
1, 18984, Note_on_c, 9, 69, 34
1, 18985, Lyric_t, "way. "
1, 18985, Lyric_t, "\015"
1, 18985, Note_on_c, 3, 74, 106
1, 18985, Note_off_c, 9, 69, 64
1, 18996, Note_off_c, 7, 58, 64
1, 19000, Note_off_c, 2, 67, 64
1, 19000, Note_off_c, 2, 70, 64
1, 19000, Note_off_c, 2, 74, 64
1, 19007, Note_on_c, 1, 38, 105
1, 19007, Note_on_c, 7, 54, 80
1, 19008, Note_on_c, 9, 51, 81
1, 19008, Note_off_c, 1, 43, 64
1, 19008, Note_on_c, 1, 45, 95
1, 19008, Note_on_c, 2, 74, 93
1, 19008, Note_on_c, 2, 66, 97
1, 19008, Note_on_c, 2, 69, 106
1, 19008, Note_off_c, 11, 58, 64
1, 19008, Note_off_c, 11, 55, 64
1, 19008, Note_on_c, 11, 54, 68
1, 19008, Note_on_c, 11, 57, 82
1, 19009, Note_off_c, 9, 51, 64
1, 19009, Note_on_c, 9, 36, 104
1, 19009, Note_on_c, 9, 42, 85
1, 19009, Note_off_c, 1, 50, 64
1, 19010, Note_off_c, 9, 42, 64
1, 19010, Note_off_c, 9, 36, 64
1, 19018, Note_off_c, 7, 54, 64
1, 19022, Note_off_c, 2, 69, 64
1, 19022, Note_off_c, 2, 66, 64
1, 19030, Note_off_c, 2, 74, 64
1, 19031, Note_on_c, 7, 54, 74
1, 19031, Note_on_c, 9, 69, 22
1, 19032, Note_on_c, 2, 66, 82
1, 19032, Note_on_c, 2, 69, 70
1, 19032, Note_on_c, 2, 74, 70
1, 19032, Note_off_c, 9, 69, 64
1, 19043, Note_off_c, 7, 54, 64
1, 19049, Lyric_t, "\012"
1, 19055, Note_on_c, 7, 57, 83
1, 19055, Note_on_c, 9, 69, 51
1, 19056, Note_on_c, 2, 64, 87
1, 19056, Note_off_c, 9, 69, 64
1, 19057, Note_on_c, 9, 44, 78
1, 19058, Note_off_c, 9, 44, 64
1, 19070, Note_off_c, 2, 74, 64
1, 19070, Note_off_c, 2, 66, 64
1, 19070, Note_off_c, 2, 69, 64
1, 19078, Note_off_c, 7, 57, 64
1, 19079, Note_on_c, 9, 69, 48
1, 19080, Note_on_c, 2, 66, 84
1, 19080, Note_on_c, 2, 74, 93
1, 19080, Note_on_c, 2, 69, 93
1, 19080, Note_on_c, 7, 62, 80
1, 19080, Note_off_c, 9, 69, 64
1, 19081, Note_on_c, 9, 42, 70
1, 19082, Note_off_c, 9, 42, 64
1, 19096, Note_off_c, 2, 69, 64
1, 19097, Note_off_c, 2, 74, 64
1, 19102, Note_off_c, 7, 62, 64
1, 19104, Note_on_c, 9, 40, 104
1, 19105, Note_off_c, 9, 40, 64
1, 19106, Note_off_c, 2, 66, 64
1, 19106, Note_off_c, 2, 64, 64
1, 19106, Note_on_c, 9, 69, 33
1, 19107, Note_off_c, 9, 69, 64
1, 19128, Note_on_c, 2, 66, 84
1, 19128, Note_on_c, 2, 74, 87
1, 19128, Note_on_c, 2, 69, 93
1, 19128, Note_on_c, 2, 62, 90
1, 19129, Note_on_c, 9, 44, 81
1, 19129, Note_on_c, 7, 57, 83
1, 19129, Note_on_c, 9, 69, 26
1, 19130, Note_off_c, 9, 44, 64
1, 19130, Note_off_c, 9, 69, 64
1, 19142, Note_off_c, 7, 57, 64
1, 19150, Note_off_c, 1, 38, 64
1, 19152, Note_on_c, 2, 64, 82
1, 19153, Note_on_c, 9, 42, 78
1, 19153, Note_on_c, 9, 69, 61
1, 19154, Note_off_c, 9, 42, 64
1, 19154, Note_off_c, 9, 69, 64
1, 19174, Note_off_c, 2, 64, 64
1, 19174, Note_off_c, 2, 66, 64
1, 19174, Note_off_c, 2, 69, 64
1, 19174, Note_off_c, 2, 74, 64
1, 19175, Note_on_c, 7, 66, 83
1, 19176, Lyric_t, "(Both) "
1, 19176, Note_on_c, 2, 64, 78
1, 19176, Note_on_c, 2, 66, 82
1, 19176, Note_on_c, 2, 74, 84
1, 19176, Note_on_c, 2, 69, 82
1, 19176, Note_on_c, 9, 69, 40
1, 19177, Note_on_c, 9, 36, 98
1, 19177, Note_on_c, 1, 33, 95
1, 19177, Note_off_c, 9, 69, 64
1, 19178, Note_off_c, 9, 36, 64
1, 19194, Note_off_c, 2, 69, 64
1, 19197, Note_off_c, 1, 33, 64
1, 19198, Note_off_c, 7, 66, 64
1, 19199, Note_on_c, 9, 51, 94
1, 19199, Note_on_c, 1, 38, 102
1, 19200, Note_off_c, 4, 69, 64
1, 19200, Note_off_c, 9, 51, 64
1, 19202, Note_on_c, 9, 69, 33
1, 19203, Note_off_c, 9, 69, 64
1, 19220, Note_off_c, 3, 74, 64
1, 19222, Note_off_c, 2, 66, 64
1, 19222, Note_off_c, 2, 74, 64
1, 19224, Note_on_c, 2, 66, 90
1, 19224, Note_on_c, 2, 74, 82
1, 19224, Note_on_c, 2, 69, 93
1, 19225, Note_on_c, 9, 36, 95
1, 19225, Note_on_c, 7, 57, 80
1, 19225, Note_on_c, 9, 69, 30
1, 19226, Note_off_c, 9, 36, 64
1, 19226, Note_off_c, 9, 69, 64
1, 19243, Note_off_c, 7, 57, 64
1, 19246, Note_off_c, 2, 62, 64
1, 19247, Note_on_c, 9, 51, 94
1, 19248, Note_off_c, 9, 51, 64
1, 19248, Note_on_c, 2, 62, 82
1, 19249, Note_on_c, 9, 36, 91
1, 19250, Note_off_c, 9, 36, 64
1, 19250, Note_on_c, 9, 69, 52
1, 19251, Note_off_c, 9, 69, 64
1, 19263, Note_off_c, 1, 45, 64
1, 19270, Note_off_c, 2, 64, 64
1, 19272, Lyric_t, "\226 It's "
1, 19272, Note_on_c, 3, 74, 109
1, 19272, Note_on_c, 4, 67, 98
1, 19272, Note_on_c, 2, 64, 87
1, 19273, Note_on_c, 7, 57, 72
1, 19273, Note_on_c, 9, 69, 36
1, 19274, Note_off_c, 9, 69, 64
1, 19284, Note_off_c, 2, 69, 64
1, 19284, Note_off_c, 2, 62, 64
1, 19284, Note_off_c, 2, 74, 64
1, 19284, Note_off_c, 2, 66, 64
1, 19286, Note_off_c, 2, 64, 64
1, 19286, Note_off_c, 7, 57, 64
1, 19293, Note_off_c, 3, 74, 64
1, 19294, Note_on_c, 1, 50, 81
1, 19295, Note_off_c, 4, 67, 64
1, 19295, Note_on_c, 1, 43, 105
1, 19296, Note_on_c, 4, 67, 98
1, 19296, Note_on_c, 9, 42, 72
1, 19296, Note_off_c, 1, 38, 64
1, 19296, Note_on_c, 2, 74, 97
1, 19296, Note_on_c, 2, 67, 100
1, 19296, Note_off_c, 11, 57, 64
1, 19296, Note_off_c, 11, 54, 64
1, 19296, Note_on_c, 11, 55, 73
1, 19296, Note_on_c, 11, 58, 80
1, 19297, Lyric_t, "got"
1, 19297, Note_on_c, 3, 70, 98
1, 19297, Note_off_c, 9, 42, 64
1, 19297, Note_on_c, 9, 40, 109
1, 19297, Note_on_c, 7, 58, 74
1, 19297, Note_on_c, 7, 62, 87
1, 19297, Note_on_c, 9, 69, 40
1, 19298, Note_off_c, 9, 40, 64
1, 19298, Note_off_c, 9, 69, 64
1, 19315, Note_off_c, 3, 70, 64
1, 19320, Note_off_c, 4, 67, 64
1, 19320, Note_on_c, 4, 69, 98
1, 19321, Lyric_t, "ta "
1, 19321, Note_on_c, 3, 72, 98
1, 19321, Note_on_c, 9, 69, 23
1, 19322, Note_off_c, 9, 69, 64
1, 19334, Note_off_c, 3, 72, 64
1, 19341, Note_off_c, 7, 58, 64
1, 19342, Note_off_c, 7, 62, 64
1, 19344, Note_off_c, 4, 69, 64
1, 19344, Note_on_c, 4, 70, 99
1, 19344, Note_on_c, 2, 62, 90
1, 19344, Note_on_c, 9, 69, 58
1, 19345, Lyric_t, "be "
1, 19345, Note_on_c, 3, 74, 105
1, 19345, Note_on_c, 9, 42, 64
1, 19345, Note_off_c, 9, 69, 64
1, 19346, Note_off_c, 9, 42, 64
1, 19357, Note_off_c, 3, 74, 64
1, 19357, Note_off_c, 2, 62, 64
1, 19357, Note_off_c, 2, 67, 64
1, 19357, Note_off_c, 2, 74, 64
1, 19366, Note_on_c, 2, 64, 82
1, 19368, Note_off_c, 4, 70, 64
1, 19368, Note_on_c, 4, 69, 100
1, 19369, Lyric_t, "night "
1, 19369, Note_on_c, 3, 74, 111
1, 19370, Note_on_c, 9, 69, 48
1, 19371, Note_off_c, 9, 69, 64
1, 19382, Note_off_c, 2, 64, 64
1, 19390, Note_off_c, 1, 43, 64
1, 19391, Note_on_c, 9, 51, 94
1, 19391, Note_on_c, 1, 38, 98
1, 19392, Note_off_c, 9, 51, 64
1, 19392, Note_on_c, 9, 36, 104
1, 19392, Note_on_c, 1, 45, 85
1, 19392, Note_on_c, 2, 64, 67
1, 19392, Note_on_c, 2, 69, 106
1, 19392, Note_on_c, 2, 74, 97
1, 19392, Note_on_c, 2, 62, 87
1, 19392, Note_off_c, 11, 58, 64
1, 19392, Note_off_c, 11, 55, 64
1, 19392, Note_on_c, 11, 54, 74
1, 19392, Note_on_c, 11, 57, 88
1, 19393, Note_off_c, 9, 36, 64
1, 19393, Note_off_c, 1, 50, 64
1, 19394, Note_on_c, 9, 69, 23
1, 19395, Note_off_c, 9, 69, 64
1, 19417, Note_on_c, 9, 69, 24
1, 19418, Note_off_c, 9, 69, 64
1, 19440, Note_off_c, 11, 54, 64
1, 19440, Note_off_c, 11, 62, 64
1, 19441, Note_on_c, 9, 42, 64
1, 19441, Note_on_c, 9, 69, 62
1, 19442, Note_off_c, 9, 42, 64
1, 19442, Note_off_c, 9, 69, 64
1, 19465, Note_on_c, 9, 69, 38
1, 19466, Note_off_c, 9, 69, 64
1, 19483, Note_off_c, 1, 45, 64
1, 19485, Note_on_c, 1, 43, 83
1, 19485, Note_off_c, 2, 62, 64
1, 19485, Note_off_c, 2, 64, 64
1, 19485, Note_off_c, 2, 69, 64
1, 19485, Note_off_c, 2, 74, 64
1, 19486, Note_off_c, 3, 74, 64
1, 19487, Note_on_c, 9, 36, 104
1, 19487, Note_on_c, 9, 51, 99
1, 19487, Note_on_c, 1, 36, 98
1, 19488, Lyric_t, "and "
1, 19488, Note_on_c, 3, 72, 121
1, 19488, Note_off_c, 4, 69, 64
1, 19488, Note_on_c, 4, 67, 99
1, 19488, Note_off_c, 9, 51, 64
1, 19488, Note_off_c, 9, 36, 64
1, 19488, Note_off_c, 1, 38, 64
1, 19488, Note_on_c, 2, 72, 100
1, 19488, Note_on_c, 2, 67, 106
1, 19488, Note_on_c, 2, 64, 100
1, 19488, Note_off_c, 11, 57, 64
1, 19488, Note_on_c, 11, 60, 85
1, 19488, Note_on_c, 11, 52, 62
1, 19488, Note_on_c, 11, 55, 80
1, 19513, Note_on_c, 9, 69, 40
1, 19514, Note_off_c, 9, 69, 64
1, 19536, Note_off_c, 11, 55, 64
1, 19537, Note_on_c, 9, 42, 64
1, 19537, Note_on_c, 9, 69, 63
1, 19538, Note_off_c, 9, 42, 64
1, 19538, Note_off_c, 9, 69, 64
1, 19561, Note_on_c, 9, 69, 48
1, 19562, Note_off_c, 9, 69, 64
1, 19576, Note_off_c, 1, 43, 64
1, 19578, Note_off_c, 2, 64, 64
1, 19578, Note_off_c, 2, 67, 64
1, 19578, Note_off_c, 2, 72, 64
1, 19580, Note_off_c, 3, 72, 64
1, 19583, Note_on_c, 9, 51, 94
1, 19583, Note_on_c, 1, 38, 111
1, 19584, Lyric_t, "day, "
1, 19584, Lyric_t, "\015"
1, 19584, Note_on_c, 3, 69, 116
1, 19584, Note_off_c, 4, 67, 64
1, 19584, Note_on_c, 4, 66, 100
1, 19584, Note_off_c, 9, 51, 64
1, 19584, Note_on_c, 2, 69, 97
1, 19584, Note_on_c, 2, 66, 90
1, 19584, Note_on_c, 2, 62, 84
1, 19584, Note_on_c, 2, 64, 87
1, 19584, Note_off_c, 11, 52, 64
1, 19584, Note_off_c, 11, 60, 64
1, 19584, Note_on_c, 11, 54, 67
1, 19584, Note_on_c, 11, 57, 95
1, 19584, Note_on_c, 9, 69, 20
1, 19585, Note_on_c, 9, 36, 109
1, 19585, Note_on_c, 1, 45, 85
1, 19585, Note_off_c, 9, 69, 64
1, 19586, Note_off_c, 9, 36, 64
1, 19586, Note_off_c, 1, 36, 64
1, 19607, Note_on_c, 9, 69, 36
1, 19608, Note_off_c, 9, 69, 64
1, 19609, Note_off_c, 3, 69, 64
1, 19631, Note_on_c, 9, 69, 58
1, 19632, Note_off_c, 4, 66, 64
1, 19632, Note_on_c, 4, 62, 99
1, 19632, Note_off_c, 9, 69, 64
1, 19633, Note_on_c, 9, 42, 63
1, 19634, Lyric_t, "just "
1, 19634, Note_on_c, 3, 69, 111
1, 19634, Note_off_c, 9, 42, 64
1, 19642, Note_off_c, 3, 69, 64
1, 19655, Note_off_c, 4, 62, 64
1, 19655, Note_on_c, 9, 69, 36
1, 19656, Note_on_c, 4, 62, 99
1, 19656, Note_off_c, 9, 69, 64
1, 19657, Lyric_t, "a "
1, 19657, Note_on_c, 3, 69, 111
1, 19670, Note_off_c, 2, 64, 64
1, 19670, Note_off_c, 2, 69, 64
1, 19670, Note_off_c, 2, 66, 64
1, 19670, Note_off_c, 2, 62, 64
1, 19678, Note_off_c, 3, 69, 64
1, 19678, Note_on_c, 1, 43, 78
1, 19679, Note_on_c, 9, 51, 99
1, 19679, Note_off_c, 1, 38, 64
1, 19679, Note_on_c, 1, 36, 102
1, 19680, Note_off_c, 4, 62, 64
1, 19680, Note_on_c, 4, 64, 99
1, 19680, Note_off_c, 9, 51, 64
1, 19680, Note_off_c, 1, 45, 64
1, 19680, Note_on_c, 2, 64, 100
1, 19680, Note_on_c, 2, 67, 100
1, 19680, Note_on_c, 2, 60, 97
1, 19680, Note_off_c, 11, 57, 64
1, 19680, Note_off_c, 11, 54, 64
1, 19680, Note_on_c, 11, 60, 74
1, 19680, Note_on_c, 11, 55, 76
1, 19681, Lyric_t, "mat"
1, 19681, Note_on_c, 3, 67, 102
1, 19681, Note_on_c, 9, 36, 109
1, 19681, Note_on_c, 9, 69, 22
1, 19682, Note_off_c, 9, 36, 64
1, 19682, Note_off_c, 9, 69, 64
1, 19702, Note_off_c, 3, 67, 64
1, 19704, Note_off_c, 4, 64, 64
1, 19704, Note_on_c, 4, 66, 99
1, 19705, Lyric_t, "ter "
1, 19705, Note_on_c, 3, 69, 105
1, 19705, Note_on_c, 9, 69, 25
1, 19706, Note_off_c, 9, 69, 64
1, 19722, Note_off_c, 3, 69, 64
1, 19727, Note_on_c, 9, 42, 70
1, 19727, Note_on_c, 9, 69, 67
1, 19728, Note_off_c, 4, 66, 64
1, 19728, Note_on_c, 4, 67, 99
1, 19728, Note_off_c, 9, 42, 64
1, 19728, Note_off_c, 9, 69, 64
1, 19729, Lyric_t, "of "
1, 19729, Note_on_c, 3, 71, 105
1, 19749, Note_off_c, 3, 71, 64
1, 19751, Note_off_c, 12, 86, 64
1, 19751, Note_on_c, 9, 69, 38
1, 19752, Note_off_c, 4, 67, 64
1, 19752, Note_on_c, 4, 66, 99
1, 19752, Note_off_c, 9, 69, 64
1, 19753, Lyric_t, "time. "
1, 19753, Lyric_t, "\015"
1, 19753, Note_on_c, 3, 69, 121
1, 19758, Note_off_c, 2, 60, 64
1, 19758, Note_off_c, 2, 67, 64
1, 19758, Note_off_c, 2, 64, 64
1, 19773, Note_on_c, 1, 45, 85
1, 19774, Note_off_c, 1, 43, 64
1, 19774, Note_on_c, 1, 38, 111
1, 19774, Note_on_c, 2, 69, 97
1, 19775, Note_on_c, 9, 36, 109
1, 19775, Note_on_c, 9, 42, 78
1, 19775, Note_off_c, 1, 36, 64
1, 19776, Note_off_c, 9, 42, 64
1, 19776, Note_off_c, 9, 36, 64
1, 19776, Note_on_c, 9, 49, 68
1, 19776, Note_on_c, 2, 66, 93
1, 19776, Note_on_c, 2, 64, 93
1, 19776, Note_on_c, 2, 62, 97
1, 19776, Note_off_c, 11, 55, 64
1, 19776, Note_off_c, 11, 60, 64
1, 19776, Note_on_c, 11, 57, 82
1, 19776, Note_on_c, 11, 62, 62
1, 19776, Note_on_c, 11, 54, 74
1, 19777, Note_off_c, 9, 49, 64
1, 19777, Note_on_c, 9, 69, 12
1, 19778, Note_off_c, 9, 69, 64
1, 19801, Note_on_c, 9, 69, 24
1, 19802, Note_off_c, 9, 69, 64
1, 19825, Note_on_c, 9, 42, 63
1, 19825, Note_on_c, 9, 69, 62
1, 19826, Note_off_c, 9, 42, 64
1, 19826, Note_off_c, 9, 69, 64
1, 19833, Lyric_t, "\012"
1, 19848, Note_off_c, 4, 66, 64
1, 19848, Note_on_c, 4, 64, 95
1, 19849, Note_on_c, 9, 69, 38
1, 19850, Note_off_c, 9, 69, 64
1, 19871, Note_on_c, 9, 42, 78
1, 19871, Note_on_c, 9, 69, 19
1, 19872, Note_off_c, 4, 64, 64
1, 19872, Note_on_c, 4, 62, 104
1, 19872, Note_off_c, 9, 42, 64
1, 19872, Note_on_c, 9, 47, 98
1, 19872, Note_off_c, 9, 69, 64
1, 19873, Note_off_c, 9, 47, 64
1, 19895, Note_on_c, 9, 69, 30
1, 19896, Note_off_c, 9, 69, 64
1, 19897, Note_on_c, 9, 40, 91
1, 19898, Note_off_c, 9, 40, 64
1, 19919, Note_on_c, 9, 69, 62
1, 19920, Note_off_c, 9, 69, 64
1, 19921, Note_on_c, 9, 42, 41
1, 19922, Note_off_c, 9, 42, 64
1, 19937, Note_off_c, 2, 69, 64
1, 19938, Note_off_c, 2, 66, 64
1, 19938, Note_off_c, 2, 64, 64
1, 19942, Note_on_c, 9, 69, 33
1, 19943, Note_off_c, 9, 69, 64
1, 19944, Note_on_c, 9, 47, 98
1, 19944, Note_on_c, 2, 78, 82
1, 19944, Note_on_c, 2, 76, 84
1, 19944, Note_on_c, 2, 81, 90
1, 19945, Note_off_c, 9, 47, 64
1, 19950, Note_off_c, 3, 69, 64
1, 19967, Note_on_c, 9, 69, 34
1, 19968, Note_off_c, 4, 62, 64
1, 19968, Note_off_c, 12, 74, 64
1, 19968, Note_off_c, 9, 69, 64
1, 19969, Note_on_c, 9, 42, 94
1, 19970, Note_off_c, 9, 42, 64
1, 19991, Lyric_t, "And "
1, 19991, Note_on_c, 3, 71, 105
1, 19991, Note_on_c, 9, 43, 74
1, 19992, Note_on_c, 4, 62, 95
1, 19992, Note_off_c, 9, 43, 64
1, 19992, Note_on_c, 9, 69, 33
1, 19993, Note_off_c, 9, 69, 64
1, 20009, Note_off_c, 3, 71, 64
1, 20015, Note_off_c, 4, 62, 64
1, 20015, Note_on_c, 9, 43, 85
1, 20016, Lyric_t, "we "
1, 20016, Note_on_c, 3, 71, 105
1, 20016, Note_on_c, 4, 62, 78
1, 20016, Note_off_c, 9, 43, 64
1, 20016, Note_on_c, 9, 69, 60
1, 20017, Note_on_c, 9, 42, 57
1, 20017, Note_off_c, 9, 69, 64
1, 20018, Note_off_c, 9, 42, 64
1, 20029, Note_off_c, 3, 71, 64
1, 20039, Note_off_c, 4, 62, 64
1, 20039, Note_on_c, 9, 47, 85
1, 20040, Note_on_c, 4, 62, 85
1, 20040, Note_off_c, 9, 47, 64
1, 20040, Note_on_c, 9, 69, 45
1, 20041, Lyric_t, "got "
1, 20041, Note_on_c, 3, 71, 105
1, 20041, Note_off_c, 9, 69, 64
1, 20042, Note_off_c, 2, 62, 64
1, 20058, Note_off_c, 3, 71, 64
1, 20063, Note_off_c, 4, 62, 64
1, 20064, Note_on_c, 4, 62, 85
1, 20065, Note_on_c, 9, 45, 85
1, 20065, Note_on_c, 9, 42, 94
1, 20065, Note_on_c, 9, 69, 42
1, 20066, Lyric_t, "noth"
1, 20066, Note_on_c, 3, 71, 105
1, 20066, Note_off_c, 9, 42, 64
1, 20066, Note_off_c, 9, 45, 64
1, 20066, Note_off_c, 9, 69, 64
1, 20079, Note_off_c, 3, 71, 64
1, 20087, Note_off_c, 4, 62, 64
1, 20088, Note_on_c, 4, 62, 98
1, 20089, Note_on_c, 9, 45, 82
1, 20089, Note_on_c, 9, 69, 30
1, 20090, Lyric_t, "ing "
1, 20090, Note_on_c, 3, 71, 111
1, 20090, Note_off_c, 9, 45, 64
1, 20090, Note_off_c, 9, 69, 64
1, 20108, Note_off_c, 3, 71, 64
1, 20111, Note_off_c, 4, 62, 64
1, 20112, Note_on_c, 4, 62, 73
1, 20112, Note_on_c, 9, 69, 60
1, 20113, Note_on_c, 9, 43, 95
1, 20113, Note_on_c, 9, 42, 85
1, 20113, Note_off_c, 9, 69, 64
1, 20114, Note_off_c, 9, 42, 64
1, 20114, Note_off_c, 9, 43, 64
1, 20115, Lyric_t, "to "
1, 20115, Note_on_c, 3, 71, 111
1, 20126, Note_off_c, 1, 45, 64
1, 20127, Note_off_c, 3, 71, 64
1, 20130, Note_off_c, 2, 78, 64
1, 20134, Note_off_c, 2, 76, 64
1, 20134, Note_off_c, 2, 81, 64
1, 20135, Note_off_c, 4, 62, 64
1, 20136, Note_on_c, 4, 62, 91
1, 20136, Note_on_c, 2, 66, 84
1, 20136, Note_on_c, 2, 68, 90
1, 20136, Note_on_c, 9, 69, 30
1, 20137, Note_on_c, 9, 43, 91
1, 20137, Note_on_c, 2, 63, 82
1, 20137, Note_off_c, 9, 69, 64
1, 20138, Note_off_c, 9, 43, 64
1, 20138, Note_on_c, 2, 71, 90
1, 20139, Lyric_t, "be "
1, 20139, Note_on_c, 3, 71, 116
1, 20150, Note_off_c, 3, 71, 64
1, 20153, Note_off_c, 1, 38, 64
1, 20154, Note_off_c, 2, 66, 64
1, 20156, Note_off_c, 2, 71, 64
1, 20158, Note_off_c, 2, 63, 64
1, 20158, Note_off_c, 2, 68, 64
1, 20158, Note_on_c, 2, 62, 85
1, 20158, Note_on_c, 2, 67, 86
1, 20158, Note_on_c, 2, 64, 86
1, 20158, Note_on_c, 2, 71, 86
1, 20158, Note_on_c, 7, 55, 80
1, 20159, Note_off_c, 4, 62, 64
1, 20160, Note_on_c, 4, 62, 109
1, 20160, Note_on_c, 9, 36, 114
1, 20160, Note_on_c, 9, 57, 78
1, 20160, Note_off_c, 11, 54, 64
1, 20160, Note_off_c, 11, 57, 64
1, 20160, Note_on_c, 11, 59, 62
1, 20160, Note_on_c, 11, 55, 62
1, 20160, Note_on_c, 11, 64, 62
1, 20160, Note_on_c, 9, 69, 20
1, 20161, Note_off_c, 9, 57, 64
1, 20161, Note_off_c, 9, 36, 64
1, 20161, Note_on_c, 1, 36, 105
1, 20161, Note_off_c, 9, 69, 64
1, 20163, Lyric_t, "guil"
1, 20163, Note_on_c, 3, 71, 116
1, 20172, Note_off_c, 7, 55, 64
1, 20176, Note_off_c, 2, 62, 64
1, 20177, Note_off_c, 2, 67, 64
1, 20177, Note_off_c, 2, 64, 64
1, 20177, Note_off_c, 2, 71, 64
1, 20183, Note_on_c, 7, 55, 60
1, 20183, Note_on_c, 9, 69, 36
1, 20184, Note_on_c, 2, 64, 78
1, 20184, Note_on_c, 2, 67, 84
1, 20184, Note_on_c, 2, 62, 84
1, 20184, Note_on_c, 2, 71, 90
1, 20184, Note_off_c, 9, 69, 64
1, 20198, Note_off_c, 3, 71, 64
1, 20200, Note_off_c, 7, 55, 64
1, 20204, Note_off_c, 2, 71, 64
1, 20206, Note_off_c, 2, 62, 64
1, 20206, Note_off_c, 2, 67, 64
1, 20207, Note_on_c, 9, 44, 64
1, 20207, Note_on_c, 7, 57, 83
1, 20207, Note_on_c, 9, 69, 58
1, 20208, Note_off_c, 9, 44, 64
1, 20208, Note_on_c, 2, 60, 78
1, 20208, Note_on_c, 2, 69, 78
1, 20208, Note_off_c, 9, 69, 64
1, 20212, Note_off_c, 1, 36, 64
1, 20222, Note_off_c, 2, 64, 64
1, 20228, Note_off_c, 2, 69, 64
1, 20229, Note_off_c, 7, 57, 64
1, 20230, Note_off_c, 2, 60, 64
1, 20231, Note_on_c, 7, 59, 80
1, 20231, Note_on_c, 9, 69, 36
1, 20232, Note_off_c, 4, 62, 64
1, 20232, Note_on_c, 4, 60, 109
1, 20232, Note_on_c, 2, 71, 90
1, 20232, Note_on_c, 2, 67, 84
1, 20232, Note_on_c, 2, 64, 64
1, 20232, Note_on_c, 2, 62, 78
1, 20232, Note_off_c, 9, 69, 64
1, 20233, Note_on_c, 9, 42, 64
1, 20233, Note_on_c, 8, 64, 60
1, 20234, Lyric_t, "ty "
1, 20234, Note_on_c, 3, 69, 116
1, 20234, Note_off_c, 9, 42, 64
1, 20234, Note_on_c, 8, 55, 60
1, 20234, Note_on_c, 8, 59, 58
1, 20240, Note_off_c, 8, 59, 64
1, 20243, Note_off_c, 8, 55, 64
1, 20244, Note_off_c, 8, 64, 64
1, 20246, Note_off_c, 2, 62, 64
1, 20246, Note_off_c, 2, 64, 64
1, 20249, Note_off_c, 2, 71, 64
1, 20249, Note_off_c, 7, 59, 64
1, 20252, Note_off_c, 2, 67, 64
1, 20256, Note_on_c, 9, 40, 124
1, 20257, Note_off_c, 9, 40, 64
1, 20257, Note_on_c, 9, 69, 22
1, 20258, Note_on_c, 8, 55, 60
1, 20258, Note_on_c, 8, 59, 78
1, 20258, Note_on_c, 8, 64, 54
1, 20258, Note_off_c, 9, 69, 64
1, 20268, Note_off_c, 3, 69, 64
1, 20270, Note_off_c, 8, 64, 64
1, 20271, Note_off_c, 8, 59, 64
1, 20271, Note_off_c, 8, 55, 64
1, 20279, Note_on_c, 9, 44, 63
1, 20280, Note_off_c, 9, 44, 64
1, 20280, Note_on_c, 2, 67, 87
1, 20280, Note_on_c, 2, 64, 82
1, 20280, Note_on_c, 2, 71, 90
1, 20280, Note_on_c, 2, 62, 97
1, 20281, Note_on_c, 7, 55, 59
1, 20281, Note_on_c, 9, 69, 25
1, 20282, Note_off_c, 9, 69, 64
1, 20294, Note_off_c, 7, 55, 64
1, 20296, Note_off_c, 2, 62, 64
1, 20300, Note_off_c, 2, 71, 64
1, 20300, Note_off_c, 2, 64, 64
1, 20301, Note_off_c, 2, 67, 64
1, 20302, Lyric_t, "of, "
1, 20302, Lyric_t, "\015"
1, 20302, Note_on_c, 3, 71, 116
1, 20302, Note_on_c, 2, 60, 78
1, 20303, Note_on_c, 9, 42, 70
1, 20303, Note_on_c, 9, 69, 67
1, 20304, Note_off_c, 4, 60, 64
1, 20304, Note_on_c, 4, 62, 109
1, 20304, Note_off_c, 9, 42, 64
1, 20304, Note_on_c, 2, 69, 78
1, 20304, Note_off_c, 9, 69, 64
1, 20320, Note_off_c, 2, 69, 64
1, 20322, Note_off_c, 2, 60, 64
1, 20327, Note_on_c, 9, 36, 104
1, 20327, Note_on_c, 1, 36, 102
1, 20327, Note_on_c, 9, 69, 38
1, 20328, Note_off_c, 9, 36, 64
1, 20328, Note_on_c, 2, 71, 90
1, 20328, Note_on_c, 2, 67, 87
1, 20328, Note_on_c, 2, 64, 66
1, 20328, Note_on_c, 2, 62, 90
1, 20328, Note_on_c, 7, 64, 83
1, 20328, Note_off_c, 9, 69, 64
1, 20338, Note_off_c, 2, 64, 64
1, 20342, Note_off_c, 2, 62, 64
1, 20344, Note_off_c, 2, 67, 64
1, 20344, Note_off_c, 2, 71, 64
1, 20344, Note_off_c, 7, 64, 64
1, 20351, Note_off_c, 3, 71, 64
1, 20351, Note_on_c, 9, 42, 78
1, 20352, Note_off_c, 9, 42, 64
1, 20353, Note_on_c, 9, 69, 12
1, 20354, Note_off_c, 9, 69, 64
1, 20358, Note_off_c, 1, 36, 64
1, 20374, Note_on_c, 2, 67, 93
1, 20374, Note_on_c, 2, 64, 82
1, 20374, Note_on_c, 2, 71, 100
1, 20374, Note_on_c, 2, 62, 84
1, 20376, Note_on_c, 1, 36, 98
1, 20377, Note_on_c, 7, 55, 70
1, 20377, Note_on_c, 9, 69, 24
1, 20378, Note_off_c, 9, 69, 64
1, 20389, Note_off_c, 2, 67, 64
1, 20390, Note_off_c, 1, 36, 64
1, 20390, Note_off_c, 2, 62, 64
1, 20391, Note_off_c, 7, 55, 64
1, 20394, Note_off_c, 2, 71, 64
1, 20394, Note_off_c, 2, 64, 64
1, 20398, Note_on_c, 2, 60, 70
1, 20399, Note_on_c, 9, 36, 98
1, 20399, Note_on_c, 9, 42, 68
1, 20399, Note_on_c, 1, 36, 89
1, 20400, Note_off_c, 9, 42, 64
1, 20400, Note_off_c, 9, 36, 64
1, 20400, Note_on_c, 2, 69, 73
1, 20401, Note_on_c, 9, 69, 62
1, 20402, Note_off_c, 9, 69, 64
1, 20416, Note_off_c, 2, 69, 64
1, 20418, Note_off_c, 2, 60, 64
1, 20423, Note_on_c, 8, 59, 75
1, 20423, Note_on_c, 8, 64, 71
1, 20423, Note_on_c, 8, 55, 68
1, 20424, Note_on_c, 7, 55, 65
1, 20425, Note_on_c, 9, 69, 38
1, 20426, Note_off_c, 9, 69, 64
1, 20430, Note_off_c, 8, 64, 64
1, 20431, Note_off_c, 8, 59, 64
1, 20433, Note_off_c, 1, 36, 64
1, 20434, Note_off_c, 8, 55, 64
1, 20436, Note_off_c, 7, 55, 64
1, 20442, Lyric_t, "our "
1, 20442, Note_on_c, 3, 69, 111
1, 20446, Note_on_c, 2, 67, 97
1, 20446, Note_on_c, 2, 71, 106
1, 20447, Note_on_c, 9, 40, 124
1, 20447, Note_on_c, 9, 42, 72
1, 20447, Note_on_c, 9, 69, 19
1, 20448, Note_off_c, 4, 62, 64
1, 20448, Note_on_c, 4, 60, 104
1, 20448, Note_off_c, 9, 42, 64
1, 20448, Note_off_c, 9, 40, 64
1, 20448, Note_on_c, 2, 62, 90
1, 20448, Note_on_c, 2, 64, 84
1, 20448, Note_on_c, 8, 59, 84
1, 20448, Note_on_c, 8, 64, 71
1, 20448, Note_on_c, 8, 55, 75
1, 20448, Note_off_c, 9, 69, 64
1, 20449, Note_on_c, 7, 59, 74
1, 20457, Note_off_c, 8, 55, 64
1, 20458, Note_off_c, 8, 64, 64
1, 20458, Note_off_c, 8, 59, 64
1, 20461, Note_off_c, 7, 59, 64
1, 20468, Note_off_c, 3, 69, 64
1, 20471, Note_on_c, 9, 44, 63
1, 20471, Note_on_c, 9, 69, 30
1, 20472, Note_off_c, 9, 44, 64
1, 20472, Note_on_c, 1, 36, 95
1, 20472, Note_on_c, 7, 59, 65
1, 20472, Note_off_c, 9, 69, 64
1, 20489, Note_off_c, 2, 62, 64
1, 20491, Note_off_c, 7, 59, 64
1, 20494, Lyric_t, "love "
1, 20494, Note_on_c, 3, 71, 116
1, 20494, Note_off_c, 2, 67, 64
1, 20495, Note_on_c, 9, 46, 78
1, 20495, Note_on_c, 1, 31, 81
1, 20495, Note_off_c, 2, 71, 64
1, 20495, Note_on_c, 9, 69, 62
1, 20496, Note_off_c, 4, 60, 64
1, 20496, Note_on_c, 4, 62, 114
1, 20496, Note_off_c, 9, 46, 64
1, 20496, Note_off_c, 1, 36, 64
1, 20496, Note_on_c, 2, 69, 87
1, 20496, Note_on_c, 2, 60, 70
1, 20496, Note_off_c, 9, 69, 64
1, 20497, Note_on_c, 7, 55, 68
1, 20497, Note_on_c, 8, 59, 89
1, 20497, Note_on_c, 8, 64, 78
1, 20497, Note_on_c, 8, 55, 78
1, 20502, Note_off_c, 8, 64, 64
1, 20503, Note_off_c, 8, 55, 64
1, 20504, Note_off_c, 8, 59, 64
1, 20512, Note_off_c, 2, 64, 64
1, 20517, Note_off_c, 1, 31, 64
1, 20518, Note_off_c, 2, 60, 64
1, 20518, Note_on_c, 9, 69, 33
1, 20519, Note_on_c, 1, 33, 85
1, 20519, Note_off_c, 7, 55, 64
1, 20519, Note_off_c, 9, 69, 64
1, 20528, Note_off_c, 2, 69, 64
1, 20542, Note_on_c, 2, 67, 100
1, 20542, Note_on_c, 2, 71, 100
1, 20543, Note_on_c, 1, 36, 92
1, 20543, Note_on_c, 9, 69, 34
1, 20544, Time_signature, 3, 2, 24, 8
1, 20544, Note_on_c, 2, 64, 84
1, 20544, Note_on_c, 2, 62, 93
1, 20544, Note_off_c, 9, 69, 64
1, 20545, Note_on_c, 9, 36, 114
1, 20545, Note_on_c, 9, 42, 85
1, 20545, Note_off_c, 1, 33, 64
1, 20545, Note_on_c, 7, 55, 77
1, 20546, Note_off_c, 9, 42, 64
1, 20546, Note_off_c, 9, 36, 64
1, 20553, Note_off_c, 2, 64, 64
1, 20554, Note_off_c, 2, 62, 64
1, 20554, Note_off_c, 2, 67, 64
1, 20555, Note_off_c, 2, 71, 64
1, 20558, Note_off_c, 7, 55, 64
1, 20566, Note_on_c, 2, 64, 76
1, 20566, Note_on_c, 2, 62, 82
1, 20567, Note_on_c, 7, 55, 68
1, 20568, Note_on_c, 2, 71, 80
1, 20568, Note_on_c, 2, 67, 84
1, 20568, Note_on_c, 9, 69, 33
1, 20569, Note_off_c, 9, 69, 64
1, 20578, Note_off_c, 3, 71, 64
1, 20585, Note_off_c, 7, 55, 64
1, 20586, Note_off_c, 1, 36, 64
1, 20586, Note_off_c, 2, 67, 64
1, 20586, Note_off_c, 2, 71, 64
1, 20586, Note_off_c, 2, 62, 64
1, 20587, Note_off_c, 2, 64, 64
1, 20591, Note_on_c, 9, 44, 68
1, 20591, Note_on_c, 7, 57, 65
1, 20592, Note_off_c, 4, 62, 64
1, 20592, Note_off_c, 9, 44, 64
1, 20592, Note_on_c, 2, 69, 84
1, 20592, Note_on_c, 2, 60, 75
1, 20592, Note_on_c, 9, 69, 60
1, 20593, Note_off_c, 9, 69, 64
1, 20612, Note_off_c, 2, 60, 64
1, 20612, Note_off_c, 2, 69, 64
1, 20612, Note_off_c, 7, 57, 64
1, 20614, Lyric_t, "will "
1, 20614, Note_on_c, 3, 69, 111
1, 20616, Note_on_c, 4, 60, 98
1, 20616, Note_on_c, 2, 64, 82
1, 20616, Note_on_c, 2, 71, 90
1, 20616, Note_on_c, 2, 67, 97
1, 20616, Note_on_c, 2, 62, 93
1, 20616, Note_on_c, 7, 59, 80
1, 20616, Note_on_c, 9, 69, 45
1, 20617, Note_on_c, 9, 42, 72
1, 20617, Note_off_c, 9, 69, 64
1, 20618, Note_off_c, 9, 42, 64
1, 20618, Note_on_c, 8, 55, 71
1, 20618, Note_on_c, 8, 59, 75
1, 20618, Note_on_c, 8, 64, 58
1, 20624, Note_off_c, 8, 64, 64
1, 20624, Note_off_c, 8, 59, 64
1, 20625, Note_off_c, 3, 69, 64
1, 20628, Note_off_c, 8, 55, 64
1, 20629, Note_off_c, 2, 64, 64
1, 20630, Note_off_c, 2, 62, 64
1, 20632, Note_off_c, 7, 59, 64
1, 20634, Note_off_c, 2, 67, 64
1, 20634, Note_off_c, 2, 71, 64
1, 20639, Note_off_c, 4, 60, 64
1, 20639, Note_on_c, 9, 40, 124
1, 20640, Lyric_t, "climb "
1, 20640, Note_on_c, 3, 69, 111
1, 20640, Note_on_c, 4, 60, 95
1, 20640, Note_off_c, 9, 40, 64
1, 20641, Note_on_c, 9, 69, 42
1, 20642, Note_on_c, 8, 59, 78
1, 20642, Note_on_c, 8, 55, 56
1, 20642, Note_on_c, 8, 64, 48
1, 20642, Note_off_c, 9, 69, 64
1, 20649, Note_off_c, 8, 64, 64
1, 20653, Note_off_c, 8, 59, 64
1, 20655, Note_off_c, 8, 55, 64
1, 20659, Note_off_c, 3, 69, 64
1, 20663, Note_on_c, 9, 44, 68
1, 20664, Lyric_t, "an"
1, 20664, Note_on_c, 3, 71, 102
1, 20664, Note_off_c, 4, 60, 64
1, 20664, Note_on_c, 4, 62, 80
1, 20664, Note_off_c, 9, 44, 64
1, 20664, Note_on_c, 2, 67, 93
1, 20664, Note_on_c, 2, 71, 93
1, 20664, Note_on_c, 2, 62, 84
1, 20664, Note_on_c, 2, 64, 76
1, 20665, Note_on_c, 7, 55, 70
1, 20665, Note_on_c, 9, 69, 30
1, 20666, Note_off_c, 9, 69, 64
1, 20678, Note_off_c, 3, 71, 64
1, 20679, Note_off_c, 7, 55, 64
1, 20680, Note_off_c, 2, 64, 64
1, 20682, Note_off_c, 2, 67, 64
1, 20684, Note_off_c, 2, 62, 64
1, 20685, Note_off_c, 2, 71, 64
1, 20687, Lyric_t, "y "
1, 20687, Note_on_c, 3, 72, 98
1, 20687, Note_on_c, 9, 42, 64
1, 20688, Note_off_c, 4, 62, 64
1, 20688, Note_on_c, 4, 64, 95
1, 20688, Note_off_c, 9, 42, 64
1, 20688, Note_on_c, 2, 69, 87
1, 20688, Note_on_c, 2, 60, 80
1, 20688, Note_on_c, 9, 69, 60
1, 20689, Note_off_c, 9, 69, 64
1, 20705, Note_off_c, 3, 72, 64
1, 20708, Note_off_c, 2, 60, 64
1, 20708, Note_off_c, 2, 69, 64
1, 20711, Note_on_c, 9, 36, 114
1, 20712, Note_off_c, 4, 64, 64
1, 20712, Note_on_c, 4, 62, 103
1, 20712, Note_off_c, 9, 36, 64
1, 20712, Note_on_c, 2, 64, 78
1, 20712, Note_on_c, 2, 67, 93
1, 20712, Note_on_c, 2, 71, 97
1, 20712, Note_on_c, 2, 62, 93
1, 20712, Note_on_c, 7, 64, 72
1, 20712, Note_on_c, 9, 69, 30
1, 20713, Lyric_t, "moun"
1, 20713, Note_on_c, 3, 71, 105
1, 20713, Note_on_c, 1, 36, 95
1, 20713, Note_off_c, 9, 69, 64
1, 20726, Note_off_c, 2, 64, 64
1, 20727, Note_off_c, 7, 64, 64
1, 20728, Note_off_c, 2, 62, 64
1, 20730, Note_off_c, 2, 67, 64
1, 20732, Note_off_c, 2, 71, 64
1, 20737, Note_on_c, 9, 42, 85
1, 20737, Note_on_c, 9, 69, 40
1, 20738, Note_off_c, 9, 42, 64
1, 20738, Note_off_c, 9, 69, 64
1, 20741, Note_off_c, 1, 36, 64
1, 20758, Note_on_c, 2, 62, 90
1, 20758, Note_on_c, 2, 64, 80
1, 20759, Note_on_c, 9, 69, 31
1, 20760, Note_on_c, 2, 67, 90
1, 20760, Note_on_c, 2, 71, 100
1, 20760, Note_off_c, 9, 69, 64
1, 20761, Note_on_c, 7, 55, 74
1, 20779, Note_off_c, 7, 55, 64
1, 20782, Note_off_c, 2, 71, 64
1, 20782, Note_off_c, 2, 67, 64
1, 20782, Note_on_c, 2, 60, 78
1, 20783, Note_off_c, 3, 71, 64
1, 20783, Note_on_c, 9, 42, 81
1, 20783, Note_on_c, 1, 36, 105
1, 20783, Note_off_c, 2, 62, 64
1, 20784, Lyric_t, "tain, "
1, 20784, Note_on_c, 3, 69, 105
1, 20784, Note_off_c, 4, 62, 64
1, 20784, Note_on_c, 4, 60, 88
1, 20784, Note_off_c, 9, 42, 64
1, 20784, Note_on_c, 2, 69, 90
1, 20784, Note_on_c, 9, 69, 59
1, 20785, Note_on_c, 9, 40, 120
1, 20785, Note_off_c, 9, 69, 64
1, 20786, Note_off_c, 9, 40, 64
1, 20794, Note_off_c, 2, 64, 64
1, 20807, Note_off_c, 3, 69, 64
1, 20808, Note_off_c, 2, 60, 64
1, 20808, Note_on_c, 7, 55, 62
1, 20809, Note_on_c, 9, 40, 109
1, 20809, Note_on_c, 9, 69, 40
1, 20810, Note_off_c, 9, 40, 64
1, 20810, Note_off_c, 2, 69, 64
1, 20810, Note_off_c, 9, 69, 64
1, 20819, Note_off_c, 7, 55, 64
1, 20831, Note_off_c, 4, 60, 64
1, 20832, Time_signature, 4, 2, 24, 8
1, 20832, Note_on_c, 4, 60, 98
1, 20832, Note_on_c, 9, 57, 81
1, 20832, Note_on_c, 2, 69, 111
1, 20832, Note_on_c, 2, 72, 97
1, 20832, Note_on_c, 2, 64, 87
1, 20832, Note_on_c, 2, 65, 84
1, 20832, Note_off_c, 11, 64, 64
1, 20832, Note_off_c, 11, 62, 64
1, 20832, Note_off_c, 11, 59, 64
1, 20832, Note_off_c, 11, 55, 64
1, 20832, Note_on_c, 11, 65, 58
1, 20832, Note_on_c, 11, 60, 58
1, 20832, Note_on_c, 11, 57, 58
1, 20832, Note_on_c, 9, 69, 30
1, 20833, Note_off_c, 9, 57, 64
1, 20833, Note_off_c, 1, 36, 64
1, 20833, Note_on_c, 1, 31, 98
1, 20833, Note_on_c, 7, 57, 87
1, 20833, Note_off_c, 9, 69, 64
1, 20834, Lyric_t, "near "
1, 20834, Note_on_c, 3, 69, 111
1, 20842, Note_off_c, 2, 64, 64
1, 20845, Note_off_c, 2, 69, 64
1, 20845, Note_off_c, 7, 57, 64
1, 20846, Note_off_c, 2, 72, 64
1, 20855, Note_on_c, 9, 69, 30
1, 20856, Note_on_c, 2, 69, 84
1, 20856, Note_on_c, 2, 72, 60
1, 20856, Note_on_c, 2, 64, 75
1, 20856, Note_off_c, 9, 69, 64
1, 20857, Note_on_c, 7, 57, 70
1, 20872, Note_off_c, 2, 65, 64
1, 20874, Note_off_c, 2, 64, 64
1, 20874, Note_off_c, 7, 57, 64
1, 20878, Note_off_c, 1, 31, 64
1, 20878, Note_off_c, 2, 72, 64
1, 20878, Note_off_c, 2, 69, 64
1, 20879, Note_on_c, 9, 69, 63
1, 20880, Note_on_c, 2, 62, 72
1, 20880, Note_on_c, 2, 71, 80
1, 20880, Note_on_c, 2, 67, 68
1, 20880, Note_off_c, 9, 69, 64
1, 20881, Note_on_c, 9, 44, 68
1, 20881, Note_on_c, 7, 59, 70
1, 20882, Note_off_c, 9, 44, 64
1, 20894, Note_off_c, 2, 67, 64
1, 20897, Note_off_c, 2, 71, 64
1, 20900, Note_off_c, 3, 69, 64
1, 20900, Note_off_c, 7, 59, 64
1, 20902, Note_off_c, 2, 62, 64
1, 20904, Note_off_c, 4, 60, 64
1, 20904, Note_on_c, 4, 59, 114
1, 20904, Note_on_c, 2, 69, 93
1, 20904, Note_on_c, 2, 65, 73
1, 20904, Note_on_c, 2, 72, 97
1, 20904, Note_on_c, 2, 64, 87
1, 20904, Note_on_c, 7, 60, 74
1, 20904, Note_on_c, 9, 69, 38
1, 20905, Note_on_c, 9, 42, 72
1, 20905, Note_on_c, 8, 65, 65
1, 20905, Note_on_c, 8, 60, 65
1, 20905, Note_on_c, 8, 57, 71
1, 20905, Note_off_c, 9, 69, 64
1, 20906, Lyric_t, "or "
1, 20906, Note_on_c, 3, 67, 105
1, 20906, Note_off_c, 9, 42, 64
1, 20914, Note_off_c, 8, 57, 64
1, 20914, Note_off_c, 8, 60, 64
1, 20914, Note_off_c, 8, 65, 64
1, 20917, Note_off_c, 2, 65, 64
1, 20918, Note_off_c, 2, 64, 64
1, 20922, Note_off_c, 2, 69, 64
1, 20922, Note_off_c, 7, 60, 64
1, 20924, Note_off_c, 2, 72, 64
1, 20928, Note_on_c, 9, 69, 22
1, 20929, Note_on_c, 9, 40, 120
1, 20929, Note_off_c, 9, 69, 64
1, 20930, Note_off_c, 9, 40, 64
1, 20930, Note_on_c, 8, 60, 68
1, 20930, Note_on_c, 8, 57, 75
1, 20930, Note_on_c, 8, 65, 71
1, 20942, Note_off_c, 8, 65, 64
1, 20942, Note_off_c, 8, 57, 64
1, 20945, Note_off_c, 8, 60, 64
1, 20952, Note_on_c, 2, 69, 93
1, 20952, Note_on_c, 2, 72, 97
1, 20952, Note_on_c, 2, 64, 84
1, 20952, Note_on_c, 2, 65, 72
1, 20953, Note_on_c, 9, 44, 78
1, 20953, Note_on_c, 7, 57, 70
1, 20953, Note_on_c, 9, 69, 34
1, 20954, Note_off_c, 9, 44, 64
1, 20954, Note_off_c, 9, 69, 64
1, 20961, Note_off_c, 2, 65, 64
1, 20968, Note_off_c, 2, 64, 64
1, 20973, Note_off_c, 2, 69, 64
1, 20974, Note_off_c, 3, 67, 64
1, 20974, Note_off_c, 2, 72, 64
1, 20974, Note_on_c, 2, 62, 78
1, 20976, Lyric_t, "far. "
1, 20976, Lyric_t, "\015"
1, 20976, Note_on_c, 3, 69, 111
1, 20976, Note_off_c, 4, 59, 64
1, 20976, Note_on_c, 4, 60, 104
1, 20976, Note_on_c, 9, 42, 63
1, 20976, Note_on_c, 2, 71, 75
1, 20977, Note_off_c, 9, 42, 64
1, 20977, Note_on_c, 9, 69, 53
1, 20978, Note_off_c, 9, 69, 64
1, 20979, Note_off_c, 7, 57, 64
1, 20990, Note_off_c, 2, 71, 64
1, 20996, Note_off_c, 2, 62, 64
1, 20999, Note_on_c, 1, 31, 102
1, 21000, Note_on_c, 2, 72, 90
1, 21000, Note_on_c, 2, 69, 90
1, 21000, Note_on_c, 2, 65, 69
1, 21000, Note_on_c, 2, 64, 76
1, 21000, Note_on_c, 7, 65, 77
1, 21001, Note_on_c, 9, 36, 120
1, 21001, Note_on_c, 9, 69, 36
1, 21002, Note_off_c, 9, 36, 64
1, 21002, Note_off_c, 9, 69, 64
1, 21012, Note_off_c, 2, 64, 64
1, 21017, Note_off_c, 2, 65, 64
1, 21021, Note_off_c, 2, 72, 64
1, 21022, Note_off_c, 2, 69, 64
1, 21022, Note_off_c, 7, 65, 64
1, 21025, Lyric_t, "\012"
1, 21025, Note_on_c, 9, 42, 85
1, 21025, Note_off_c, 1, 31, 64
1, 21025, Note_on_c, 9, 69, 31
1, 21026, Note_off_c, 9, 42, 64
1, 21026, Note_off_c, 9, 69, 64
1, 21046, Note_off_c, 3, 69, 64
1, 21048, Note_on_c, 1, 31, 89
1, 21048, Note_on_c, 2, 72, 97
1, 21048, Note_on_c, 2, 69, 97
1, 21048, Note_on_c, 2, 64, 90
1, 21048, Note_on_c, 2, 65, 84
1, 21049, Note_on_c, 7, 57, 83
1, 21049, Note_on_c, 9, 69, 23
1, 21050, Note_off_c, 9, 69, 64
1, 21061, Note_off_c, 1, 31, 64
1, 21061, Note_off_c, 2, 65, 64
1, 21064, Note_off_c, 2, 64, 64
1, 21065, Note_off_c, 2, 69, 64
1, 21066, Note_off_c, 7, 57, 64
1, 21070, Note_off_c, 2, 72, 64
1, 21070, Note_on_c, 2, 62, 78
1, 21071, Note_on_c, 9, 69, 51
1, 21072, Note_on_c, 2, 71, 80
1, 21072, Note_off_c, 9, 69, 64
1, 21073, Note_on_c, 9, 36, 109
1, 21073, Note_on_c, 9, 42, 72
1, 21073, Note_on_c, 1, 31, 98
1, 21074, Note_off_c, 9, 42, 64
1, 21074, Note_off_c, 9, 36, 64
1, 21089, Note_off_c, 2, 71, 64
1, 21094, Note_off_c, 2, 62, 64
1, 21096, Note_on_c, 7, 57, 77
1, 21096, Note_on_c, 9, 69, 34
1, 21097, Note_on_c, 8, 60, 62
1, 21097, Note_off_c, 9, 69, 64
1, 21098, Note_on_c, 8, 65, 50
1, 21098, Note_on_c, 8, 57, 60
1, 21103, Note_off_c, 8, 65, 64
1, 21103, Note_off_c, 8, 60, 64
1, 21105, Note_off_c, 1, 31, 64
1, 21106, Note_off_c, 8, 57, 64
1, 21109, Note_off_c, 7, 57, 64
1, 21119, Note_on_c, 9, 42, 81
1, 21120, Note_off_c, 4, 60, 64
1, 21120, Note_on_c, 4, 59, 114
1, 21120, Note_off_c, 9, 42, 64
1, 21120, Note_on_c, 2, 69, 106
1, 21120, Note_on_c, 2, 72, 106
1, 21120, Note_on_c, 2, 65, 100
1, 21120, Note_on_c, 2, 64, 100
1, 21121, Lyric_t, "We "
1, 21121, Note_on_c, 3, 67, 111
1, 21121, Note_on_c, 9, 40, 124
1, 21121, Note_on_c, 7, 60, 74
1, 21121, Note_on_c, 8, 57, 56
1, 21121, Note_on_c, 8, 60, 53
1, 21121, Note_on_c, 8, 65, 56
1, 21122, Note_off_c, 9, 40, 64
1, 21130, Note_off_c, 8, 65, 64
1, 21130, Note_off_c, 8, 57, 64
1, 21132, Note_off_c, 8, 60, 64
1, 21134, Note_off_c, 7, 60, 64
1, 21143, Note_on_c, 9, 44, 72
1, 21143, Note_on_c, 9, 69, 22
1, 21144, Note_off_c, 9, 44, 64
1, 21144, Note_off_c, 9, 69, 64
1, 21145, Note_on_c, 7, 60, 52
1, 21163, Note_off_c, 7, 60, 64
1, 21164, Note_off_c, 3, 67, 64
1, 21165, Note_off_c, 2, 72, 64
1, 21166, Lyric_t, "are "
1, 21166, Note_on_c, 3, 69, 111
1, 21166, Note_off_c, 2, 64, 64
1, 21167, Note_on_c, 9, 46, 78
1, 21167, Note_on_c, 1, 38, 95
1, 21167, Note_on_c, 9, 69, 51
1, 21168, Note_off_c, 4, 59, 64
1, 21168, Note_on_c, 4, 60, 109
1, 21168, Note_off_c, 9, 46, 64
1, 21168, Note_off_c, 2, 69, 64
1, 21168, Note_on_c, 2, 62, 70
1, 21168, Note_on_c, 2, 71, 87
1, 21168, Note_off_c, 9, 69, 64
1, 21169, Note_on_c, 7, 57, 63
1, 21169, Note_on_c, 8, 57, 84
1, 21169, Note_on_c, 8, 60, 78
1, 21170, Note_on_c, 8, 65, 84
1, 21179, Note_off_c, 8, 60, 64
1, 21180, Note_off_c, 8, 57, 64
1, 21181, Note_off_c, 8, 65, 64
1, 21186, Note_off_c, 2, 65, 64
1, 21190, Note_off_c, 7, 57, 64
1, 21191, Note_on_c, 1, 43, 89
1, 21191, Note_on_c, 9, 69, 48
1, 21192, Note_off_c, 1, 38, 64
1, 21192, Note_off_c, 9, 69, 64
1, 21196, Note_off_c, 2, 62, 64
1, 21197, Note_off_c, 2, 71, 64
1, 21215, Note_on_c, 9, 36, 114
1, 21216, Note_off_c, 9, 36, 64
1, 21216, Note_on_c, 2, 69, 100
1, 21216, Note_on_c, 2, 72, 100
1, 21216, Note_on_c, 2, 65, 78
1, 21216, Note_on_c, 2, 64, 87
1, 21216, Note_on_c, 7, 57, 83
1, 21217, Note_on_c, 9, 42, 81
1, 21217, Note_on_c, 1, 31, 95
1, 21218, Note_off_c, 9, 42, 64
1, 21218, Note_off_c, 1, 43, 64
1, 21218, Note_on_c, 9, 69, 33
1, 21219, Note_off_c, 9, 69, 64
1, 21226, Note_off_c, 2, 64, 64
1, 21226, Note_off_c, 2, 69, 64
1, 21228, Note_off_c, 2, 72, 64
1, 21228, Note_off_c, 7, 57, 64
1, 21238, Note_on_c, 2, 69, 87
1, 21239, Note_on_c, 7, 57, 70
1, 21240, Note_on_c, 2, 72, 82
1, 21240, Note_on_c, 2, 64, 66
1, 21241, Note_on_c, 9, 69, 26
1, 21242, Note_off_c, 9, 69, 64
1, 21250, Note_off_c, 3, 69, 64
1, 21254, Note_off_c, 7, 57, 64
1, 21257, Note_off_c, 2, 65, 64
1, 21258, Note_off_c, 2, 69, 64
1, 21258, Note_off_c, 2, 72, 64
1, 21260, Note_off_c, 2, 64, 64
1, 21262, Note_on_c, 2, 71, 90
1, 21263, Note_on_c, 7, 59, 72
1, 21264, Note_off_c, 4, 60, 64
1, 21264, Note_on_c, 9, 44, 58
1, 21264, Note_on_c, 2, 62, 73
1, 21265, Note_off_c, 9, 44, 64
1, 21265, Note_on_c, 9, 69, 61
1, 21266, Note_off_c, 9, 69, 64
1, 21270, Note_off_c, 1, 31, 64
1, 21281, Note_off_c, 2, 71, 64
1, 21283, Note_off_c, 7, 59, 64
1, 21286, Note_off_c, 2, 62, 64
1, 21287, Note_on_c, 7, 60, 77
1, 21288, Note_on_c, 2, 72, 84
1, 21288, Note_on_c, 2, 69, 90
1, 21288, Note_on_c, 2, 65, 76
1, 21288, Note_on_c, 2, 64, 84
1, 21288, Note_on_c, 9, 69, 40
1, 21289, Note_on_c, 9, 42, 70
1, 21289, Note_on_c, 8, 57, 75
1, 21289, Note_on_c, 8, 60, 68
1, 21289, Note_on_c, 8, 65, 65
1, 21289, Note_off_c, 9, 69, 64
1, 21290, Note_off_c, 9, 42, 64
1, 21294, Note_off_c, 8, 65, 64
1, 21295, Note_off_c, 8, 60, 64
1, 21297, Note_off_c, 8, 57, 64
1, 21298, Note_off_c, 2, 65, 64
1, 21300, Note_off_c, 2, 64, 64
1, 21302, Note_off_c, 7, 60, 64
1, 21304, Note_off_c, 2, 69, 64
1, 21306, Note_off_c, 2, 72, 64
1, 21313, Note_on_c, 9, 40, 124
1, 21313, Note_on_c, 8, 65, 68
1, 21313, Note_on_c, 8, 60, 62
1, 21313, Note_on_c, 8, 57, 65
1, 21314, Note_off_c, 9, 40, 64
1, 21314, Note_on_c, 9, 69, 33
1, 21315, Note_off_c, 9, 69, 64
1, 21322, Note_off_c, 8, 65, 64
1, 21324, Note_off_c, 8, 60, 64
1, 21325, Note_off_c, 8, 57, 64
1, 21336, Note_on_c, 4, 59, 100
1, 21336, Note_on_c, 9, 44, 72
1, 21336, Note_on_c, 2, 72, 93
1, 21336, Note_on_c, 2, 69, 93
1, 21336, Note_on_c, 2, 64, 87
1, 21336, Note_on_c, 2, 65, 80
1, 21337, Lyric_t, "and "
1, 21337, Note_on_c, 3, 67, 102
1, 21337, Note_off_c, 9, 44, 64
1, 21337, Note_on_c, 7, 57, 70
1, 21337, Note_on_c, 9, 69, 30
1, 21338, Note_off_c, 9, 69, 64
1, 21348, Note_off_c, 2, 65, 64
1, 21354, Note_off_c, 2, 64, 64
1, 21356, Note_off_c, 3, 67, 64
1, 21357, Note_off_c, 2, 69, 64
1, 21360, Note_off_c, 4, 59, 64
1, 21360, Note_on_c, 4, 60, 91
1, 21360, Note_off_c, 2, 72, 64
1, 21360, Note_on_c, 2, 71, 93
1, 21360, Note_on_c, 2, 62, 84
1, 21361, Note_on_c, 9, 42, 81
1, 21362, Lyric_t, "we "
1, 21362, Note_on_c, 3, 69, 105
1, 21362, Note_off_c, 9, 42, 64
1, 21362, Note_off_c, 7, 57, 64
1, 21362, Note_on_c, 9, 69, 52
1, 21363, Note_off_c, 9, 69, 64
1, 21377, Note_off_c, 2, 71, 64
1, 21378, Note_off_c, 3, 69, 64
1, 21380, Note_off_c, 2, 62, 64
1, 21384, Note_off_c, 4, 60, 64
1, 21384, Note_on_c, 4, 62, 97
1, 21384, Note_on_c, 9, 36, 109
1, 21384, Note_on_c, 2, 72, 93
1, 21384, Note_on_c, 2, 69, 100
1, 21384, Note_on_c, 2, 65, 76
1, 21384, Note_on_c, 2, 64, 87
1, 21384, Note_on_c, 7, 65, 80
1, 21385, Note_off_c, 9, 36, 64
1, 21385, Note_on_c, 1, 31, 105
1, 21385, Note_on_c, 9, 69, 36
1, 21386, Lyric_t, "nev"
1, 21386, Note_on_c, 3, 71, 111
1, 21386, Note_off_c, 9, 69, 64
1, 21396, Note_off_c, 2, 64, 64
1, 21397, Note_off_c, 2, 65, 64
1, 21402, Note_off_c, 2, 69, 64
1, 21405, Note_off_c, 2, 72, 64
1, 21407, Note_off_c, 7, 65, 64
1, 21409, Note_on_c, 9, 42, 85
1, 21409, Note_on_c, 9, 69, 40
1, 21410, Note_off_c, 9, 42, 64
1, 21410, Note_off_c, 9, 69, 64
1, 21413, Note_off_c, 1, 31, 64
1, 21431, Note_on_c, 1, 31, 80
1, 21432, Note_on_c, 2, 72, 97
1, 21432, Note_on_c, 2, 69, 97
1, 21432, Note_on_c, 2, 64, 93
1, 21432, Note_on_c, 2, 65, 84
1, 21433, Note_on_c, 7, 55, 72
1, 21433, Note_on_c, 9, 69, 23
1, 21434, Note_off_c, 9, 69, 64
1, 21443, Note_off_c, 1, 31, 64
1, 21444, Note_off_c, 2, 65, 64
1, 21449, Note_off_c, 2, 64, 64
1, 21450, Note_off_c, 2, 69, 64
1, 21453, Note_off_c, 2, 72, 64
1, 21453, Note_off_c, 7, 55, 64
1, 21454, Note_off_c, 3, 71, 64
1, 21454, Note_on_c, 2, 62, 82
1, 21455, Lyric_t, "er "
1, 21455, Note_on_c, 3, 72, 105
1, 21455, Note_on_c, 1, 31, 102
1, 21456, Note_off_c, 4, 62, 64
1, 21456, Note_on_c, 4, 64, 95
1, 21456, Note_on_c, 9, 36, 114
1, 21456, Note_on_c, 2, 71, 75
1, 21456, Note_on_c, 9, 69, 58
1, 21457, Note_off_c, 9, 36, 64
1, 21457, Note_on_c, 9, 42, 70
1, 21457, Note_off_c, 9, 69, 64
1, 21458, Note_off_c, 9, 42, 64
1, 21472, Note_off_c, 2, 71, 64
1, 21475, Note_off_c, 3, 72, 64
1, 21480, Lyric_t, "let "
1, 21480, Note_on_c, 3, 71, 111
1, 21480, Note_off_c, 4, 64, 64
1, 21480, Note_on_c, 4, 62, 104
1, 21480, Note_off_c, 2, 62, 64
1, 21481, Note_on_c, 7, 55, 53
1, 21481, Note_on_c, 8, 57, 84
1, 21481, Note_on_c, 8, 65, 84
1, 21481, Note_on_c, 8, 60, 75
1, 21482, Note_on_c, 9, 69, 48
1, 21483, Note_off_c, 9, 69, 64
1, 21486, Note_off_c, 8, 60, 64
1, 21487, Note_off_c, 7, 55, 64
1, 21487, Note_off_c, 8, 65, 64
1, 21488, Note_off_c, 8, 57, 64
1, 21490, Note_off_c, 1, 31, 64
1, 21503, Note_on_c, 8, 60, 58
1, 21504, Note_on_c, 9, 42, 81
1, 21504, Note_on_c, 2, 69, 106
1, 21504, Note_on_c, 2, 64, 93
1, 21504, Note_on_c, 2, 72, 106
1, 21504, Note_on_c, 2, 65, 100
1, 21504, Note_on_c, 8, 57, 60
1, 21504, Note_on_c, 8, 65, 58
1, 21505, Note_off_c, 9, 42, 64
1, 21505, Note_on_c, 9, 40, 124
1, 21505, Note_on_c, 7, 59, 90
1, 21506, Note_off_c, 9, 40, 64
1, 21506, Note_on_c, 9, 69, 23
1, 21507, Note_off_c, 9, 69, 64
1, 21510, Note_off_c, 8, 65, 64
1, 21512, Note_off_c, 8, 57, 64
1, 21513, Note_off_c, 8, 60, 64
1, 21527, Note_on_c, 1, 31, 98
1, 21528, Note_on_c, 9, 44, 70
1, 21528, Note_off_c, 7, 59, 64
1, 21529, Note_off_c, 9, 44, 64
1, 21529, Note_on_c, 9, 69, 24
1, 21530, Note_off_c, 9, 69, 64
1, 21546, Note_off_c, 1, 31, 64
1, 21550, Note_off_c, 2, 72, 64
1, 21551, Note_off_c, 3, 71, 64
1, 21551, Note_on_c, 1, 33, 102
1, 21552, Lyric_t, "it "
1, 21552, Note_on_c, 3, 67, 102
1, 21552, Note_off_c, 4, 62, 64
1, 21552, Note_on_c, 4, 60, 91
1, 21552, Note_on_c, 9, 46, 81
1, 21552, Note_off_c, 2, 69, 64
1, 21552, Note_on_c, 2, 62, 82
1, 21552, Note_on_c, 2, 71, 90
1, 21553, Note_off_c, 9, 46, 64
1, 21553, Note_on_c, 7, 55, 68
1, 21553, Note_on_c, 8, 57, 84
1, 21553, Note_on_c, 8, 65, 78
1, 21553, Note_on_c, 8, 60, 68
1, 21553, Note_on_c, 9, 69, 62
1, 21554, Note_off_c, 9, 69, 64
1, 21559, Note_off_c, 8, 60, 64
1, 21560, Note_off_c, 8, 65, 64
1, 21561, Note_off_c, 2, 65, 64
1, 21562, Note_off_c, 2, 64, 64
1, 21562, Note_off_c, 8, 57, 64
1, 21566, Note_off_c, 1, 33, 64
1, 21566, Note_off_c, 2, 62, 64
1, 21575, Note_off_c, 7, 55, 64
1, 21576, Note_off_c, 2, 71, 64
1, 21577, Note_on_c, 1, 33, 92
1, 21577, Note_on_c, 9, 69, 38
1, 21578, Note_off_c, 9, 69, 64
1, 21594, Note_off_c, 3, 67, 64
1, 21597, Note_off_c, 1, 33, 64
1, 21598, Note_on_c, 2, 64, 90
1, 21599, Note_on_c, 1, 36, 95
1, 21600, Note_off_c, 4, 60, 64
1, 21600, Note_on_c, 4, 59, 99
1, 21600, Note_on_c, 2, 71, 106
1, 21600, Note_on_c, 2, 67, 90
1, 21600, Note_on_c, 2, 74, 100
1, 21600, Note_off_c, 11, 57, 64
1, 21600, Note_off_c, 11, 60, 64
1, 21600, Note_off_c, 11, 65, 64
1, 21600, Note_on_c, 11, 64, 57
1, 21600, Note_on_c, 11, 67, 57
1, 21600, Note_on_c, 11, 59, 57
1, 21601, Note_on_c, 9, 36, 114
1, 21601, Note_on_c, 9, 42, 81
1, 21601, Note_on_c, 7, 55, 74
1, 21602, Lyric_t, "en-"
1, 21602, Note_on_c, 3, 69, 98
1, 21602, Note_off_c, 9, 42, 64
1, 21602, Note_off_c, 9, 36, 64
1, 21612, Note_off_c, 2, 74, 64
1, 21612, Note_off_c, 2, 67, 64
1, 21613, Note_off_c, 2, 71, 64
1, 21613, Note_off_c, 2, 64, 64
1, 21613, Note_off_c, 7, 55, 64
1, 21624, Note_on_c, 2, 71, 84
1, 21624, Note_on_c, 2, 67, 75
1, 21624, Note_on_c, 2, 64, 87
1, 21624, Note_on_c, 2, 74, 82
1, 21625, Note_on_c, 7, 55, 63
1, 21625, Note_on_c, 9, 69, 40
1, 21626, Note_off_c, 9, 69, 64
1, 21629, Note_off_c, 3, 69, 64
1, 21635, Note_off_c, 1, 36, 64
1, 21638, Note_off_c, 7, 55, 64
1, 21642, Note_off_c, 2, 74, 64
1, 21642, Note_off_c, 2, 71, 64
1, 21648, Lyric_t, "end. "
1, 21648, Lyric_t, "\015"
1, 21648, Note_on_c, 3, 69, 111
1, 21648, Note_on_c, 2, 72, 72
1, 21648, Note_on_c, 2, 69, 78
1, 21648, Note_on_c, 7, 57, 70
1, 21649, Note_on_c, 9, 44, 61
1, 21649, Note_on_c, 9, 69, 63
1, 21650, Note_off_c, 9, 44, 64
1, 21650, Note_off_c, 9, 69, 64
1, 21654, Note_off_c, 2, 67, 64
1, 21658, Note_off_c, 2, 64, 64
1, 21664, Note_off_c, 2, 69, 64
1, 21668, Note_off_c, 2, 72, 64
1, 21668, Note_off_c, 7, 57, 64
1, 21671, Note_on_c, 8, 55, 68
1, 21672, Note_on_c, 2, 64, 84
1, 21672, Note_on_c, 2, 67, 87
1, 21672, Note_on_c, 2, 71, 97
1, 21672, Note_on_c, 2, 74, 90
1, 21672, Note_on_c, 8, 64, 65
1, 21672, Note_on_c, 8, 59, 65
1, 21673, Note_off_c, 3, 69, 64
1, 21673, Note_on_c, 9, 42, 78
1, 21673, Note_on_c, 7, 59, 83
1, 21673, Note_on_c, 9, 69, 48
1, 21674, Note_on_c, 3, 67, 105
1, 21674, Note_off_c, 9, 42, 64
1, 21674, Note_off_c, 9, 69, 64
1, 21678, Note_off_c, 8, 59, 64
1, 21678, Note_off_c, 8, 64, 64
1, 21682, Note_off_c, 8, 55, 64
1, 21688, Note_off_c, 2, 67, 64
1, 21688, Note_off_c, 2, 64, 64
1, 21688, Note_off_c, 7, 59, 64
1, 21692, Note_off_c, 2, 71, 64
1, 21692, Note_off_c, 2, 74, 64
1, 21695, Note_on_c, 9, 40, 124
1, 21696, Note_off_c, 9, 40, 64
1, 21696, Note_on_c, 8, 59, 75
1, 21696, Note_on_c, 9, 69, 20
1, 21697, Note_on_c, 8, 64, 71
1, 21697, Note_on_c, 8, 55, 78
1, 21697, Note_off_c, 9, 69, 64
1, 21708, Note_off_c, 8, 55, 64
1, 21708, Note_off_c, 8, 64, 64
1, 21709, Note_off_c, 8, 59, 64
1, 21719, Note_on_c, 9, 44, 78
1, 21719, Note_on_c, 9, 69, 36
1, 21720, Note_off_c, 9, 44, 64
1, 21720, Note_on_c, 2, 71, 97
1, 21720, Note_on_c, 2, 64, 90
1, 21720, Note_on_c, 2, 74, 97
1, 21720, Note_on_c, 2, 67, 97
1, 21720, Note_off_c, 9, 69, 64
1, 21721, Note_on_c, 7, 55, 68
1, 21738, Note_off_c, 2, 71, 64
1, 21742, Note_off_c, 2, 74, 64
1, 21743, Note_on_c, 9, 42, 68
1, 21743, Note_off_c, 7, 55, 64
1, 21743, Note_on_c, 9, 69, 58
1, 21744, Note_off_c, 9, 42, 64
1, 21744, Note_on_c, 2, 69, 87
1, 21744, Note_on_c, 2, 72, 87
1, 21744, Note_off_c, 9, 69, 64
1, 21746, Note_off_c, 2, 67, 64
1, 21754, Note_off_c, 2, 64, 64
1, 21760, Note_off_c, 2, 69, 64
1, 21760, Note_off_c, 2, 72, 64
1, 21767, Note_on_c, 1, 36, 92
1, 21767, Note_on_c, 9, 69, 36
1, 21768, Note_on_c, 9, 36, 114
1, 21768, Note_on_c, 2, 64, 87
1, 21768, Note_on_c, 2, 71, 100
1, 21768, Note_on_c, 2, 74, 97
1, 21768, Note_on_c, 2, 67, 80
1, 21768, Note_on_c, 7, 64, 83
1, 21768, Note_off_c, 9, 69, 64
1, 21769, Note_off_c, 9, 36, 64
1, 21781, Note_off_c, 2, 67, 64
1, 21781, Note_off_c, 2, 64, 64
1, 21785, Note_off_c, 2, 74, 64
1, 21788, Note_off_c, 2, 71, 64
1, 21788, Note_off_c, 7, 64, 64
1, 21791, Note_off_c, 1, 36, 64
1, 21792, Note_off_c, 4, 59, 64
1, 21792, Note_on_c, 9, 42, 85
1, 21793, Note_off_c, 9, 42, 64
1, 21793, Note_on_c, 9, 69, 22
1, 21794, Note_off_c, 9, 69, 64
1, 21810, Note_off_c, 3, 67, 64
1, 21814, Note_on_c, 2, 71, 90
1, 21814, Note_on_c, 2, 74, 93
1, 21815, Note_on_c, 1, 36, 92
1, 21816, Note_on_c, 2, 64, 90
1, 21816, Note_on_c, 2, 67, 90
1, 21816, Note_on_c, 7, 55, 72
1, 21817, Note_on_c, 9, 69, 25
1, 21818, Note_off_c, 9, 69, 64
1, 21830, Note_off_c, 1, 36, 64
1, 21830, Note_off_c, 2, 74, 64
1, 21830, Note_off_c, 2, 71, 64
1, 21830, Note_off_c, 7, 55, 64
1, 21838, Note_on_c, 2, 72, 76
1, 21839, Note_on_c, 9, 36, 104
1, 21839, Note_on_c, 1, 36, 83
1, 21839, Note_on_c, 9, 69, 67
1, 21840, Note_off_c, 9, 36, 64
1, 21840, Note_on_c, 2, 69, 78
1, 21840, Note_off_c, 9, 69, 64
1, 21841, Note_on_c, 9, 42, 78
1, 21842, Note_off_c, 9, 42, 64
1, 21850, Note_off_c, 2, 67, 64
1, 21856, Note_off_c, 2, 64, 64
1, 21856, Note_off_c, 2, 72, 64
1, 21860, Note_off_c, 2, 69, 64
1, 21863, Note_on_c, 7, 55, 68
1, 21863, Note_on_c, 8, 64, 65
1, 21863, Note_on_c, 8, 55, 65
1, 21863, Note_on_c, 9, 69, 38
1, 21864, Note_on_c, 8, 59, 68
1, 21864, Note_off_c, 9, 69, 64
1, 21868, Note_off_c, 1, 36, 64
1, 21870, Note_off_c, 8, 59, 64
1, 21870, Note_off_c, 8, 55, 64
1, 21870, Note_off_c, 8, 64, 64
1, 21877, Note_off_c, 7, 55, 64
1, 21884, Lyric_t, "We "
1, 21884, Note_on_c, 3, 62, 111
1, 21886, Note_on_c, 2, 64, 97
1, 21886, Note_on_c, 2, 74, 106
1, 21886, Note_on_c, 2, 71, 106
1, 21886, Note_on_c, 2, 67, 97
1, 21887, Note_on_c, 8, 59, 71
1, 21887, Note_on_c, 8, 55, 68
1, 21887, Note_on_c, 8, 64, 71
1, 21888, Note_on_c, 4, 52, 91
1, 21888, Note_on_c, 9, 42, 85
1, 21888, Note_on_c, 7, 59, 80
1, 21889, Note_off_c, 9, 42, 64
1, 21889, Note_on_c, 9, 40, 124
1, 21889, Note_on_c, 9, 69, 12
1, 21890, Note_off_c, 9, 40, 64
1, 21890, Note_off_c, 9, 69, 64
1, 21895, Note_off_c, 8, 64, 64
1, 21898, Note_off_c, 7, 59, 64
1, 21898, Note_off_c, 8, 55, 64
1, 21898, Note_off_c, 8, 59, 64
1, 21906, Note_off_c, 3, 62, 64
1, 21907, Lyric_t, "are "
1, 21907, Note_on_c, 3, 64, 92
1, 21911, Note_on_c, 9, 44, 68
1, 21911, Note_on_c, 1, 31, 87
1, 21911, Note_off_c, 2, 67, 64
1, 21911, Note_on_c, 7, 59, 65
1, 21912, Note_off_c, 4, 52, 64
1, 21912, Note_on_c, 4, 55, 91
1, 21912, Note_off_c, 9, 44, 64
1, 21913, Note_on_c, 9, 69, 24
1, 21914, Note_off_c, 9, 69, 64
1, 21923, Note_off_c, 2, 64, 64
1, 21926, Note_off_c, 3, 64, 64
1, 21931, Note_off_c, 1, 31, 64
1, 21931, Note_off_c, 2, 74, 64
1, 21932, Note_off_c, 2, 71, 64
1, 21933, Note_off_c, 7, 59, 64
1, 21934, Lyric_t, "de"
1, 21934, Note_on_c, 3, 67, 102
1, 21934, Note_on_c, 2, 64, 64
1, 21935, Note_on_c, 1, 36, 87
1, 21935, Note_on_c, 8, 55, 71
1, 21935, Note_on_c, 8, 64, 71
1, 21935, Note_on_c, 8, 59, 71
1, 21936, Note_off_c, 4, 55, 64
1, 21936, Note_on_c, 4, 59, 95
1, 21936, Note_on_c, 9, 46, 72
1, 21936, Note_on_c, 2, 67, 90
1, 21936, Note_on_c, 2, 72, 87
1, 21936, Note_on_c, 2, 69, 97
1, 21937, Note_off_c, 9, 46, 64
1, 21937, Note_on_c, 7, 55, 66
1, 21937, Note_on_c, 9, 69, 62
1, 21938, Note_off_c, 9, 69, 64
1, 21946, Note_off_c, 8, 59, 64
1, 21947, Note_off_c, 2, 64, 64
1, 21947, Note_off_c, 8, 64, 64
1, 21948, Note_off_c, 8, 55, 64
1, 21949, Note_off_c, 2, 67, 64
1, 21950, Note_off_c, 7, 55, 64
1, 21952, Note_off_c, 3, 67, 64
1, 21956, Note_off_c, 1, 36, 64
1, 21956, Note_off_c, 2, 69, 64
1, 21959, Lyric_t, "vo"
1, 21959, Note_on_c, 3, 69, 105
1, 21959, Note_on_c, 1, 35, 81
1, 21960, Note_off_c, 4, 59, 64
1, 21960, Note_on_c, 4, 60, 95
1, 21960, Note_off_c, 2, 72, 64
1, 21961, Note_on_c, 9, 69, 38
1, 21962, Note_off_c, 9, 69, 64
1, 21983, Note_on_c, 9, 36, 114
1, 21983, Note_on_c, 9, 69, 19
1, 21984, Note_off_c, 9, 36, 64
1, 21984, Note_on_c, 2, 64, 97
1, 21984, Note_on_c, 2, 71, 106
1, 21984, Note_on_c, 2, 67, 100
1, 21984, Note_off_c, 11, 59, 64
1, 21984, Note_off_c, 11, 67, 64
1, 21984, Note_on_c, 11, 60, 56
1, 21984, Note_on_c, 11, 69, 56
1, 21984, Note_off_c, 9, 69, 64
1, 21985, Note_on_c, 9, 42, 81
1, 21985, Note_off_c, 1, 35, 64
1, 21985, Note_on_c, 1, 33, 92
1, 21986, Note_off_c, 9, 42, 64
1, 22004, Note_off_c, 2, 67, 64
1, 22006, Note_off_c, 2, 71, 64
1, 22007, Note_on_c, 9, 69, 30
1, 22008, Note_on_c, 2, 72, 84
1, 22008, Note_on_c, 2, 69, 87
1, 22008, Note_off_c, 9, 69, 64
1, 22009, Note_on_c, 7, 52, 77
1, 22020, Note_off_c, 7, 52, 64
1, 22024, Note_off_c, 2, 69, 64
1, 22028, Note_off_c, 2, 72, 64
1, 22031, Note_on_c, 9, 44, 70
1, 22031, Note_on_c, 9, 69, 62
1, 22032, Note_off_c, 9, 44, 64
1, 22032, Note_on_c, 2, 67, 84
1, 22032, Note_on_c, 2, 71, 93
1, 22032, Note_off_c, 9, 69, 64
1, 22033, Note_on_c, 7, 57, 87
1, 22034, Note_off_c, 1, 33, 64
1, 22042, Note_off_c, 3, 69, 64
1, 22049, Note_off_c, 2, 71, 64
1, 22050, Note_off_c, 2, 67, 64
1, 22050, Note_off_c, 2, 64, 64
1, 22050, Note_off_c, 7, 57, 64
1, 22054, Note_on_c, 9, 69, 33
1, 22055, Note_off_c, 9, 69, 64
1, 22056, Note_off_c, 4, 60, 64
1, 22056, Note_on_c, 4, 57, 94
1, 22056, Note_on_c, 2, 69, 100
1, 22056, Note_on_c, 2, 72, 93
1, 22056, Note_on_c, 2, 64, 97
1, 22057, Lyric_t, "tion. "
1, 22057, Lyric_t, "\015"
1, 22057, Note_on_c, 3, 64, 116
1, 22057, Note_on_c, 9, 42, 78
1, 22057, Note_on_c, 7, 60, 77
1, 22057, Note_on_c, 8, 57, 75
1, 22057, Note_on_c, 8, 60, 68
1, 22057, Note_on_c, 8, 64, 56
1, 22058, Note_off_c, 9, 42, 64
1, 22062, Note_off_c, 8, 64, 64
1, 22064, Note_off_c, 8, 57, 64
1, 22065, Note_off_c, 8, 60, 64
1, 22073, Note_off_c, 2, 64, 64
1, 22074, Note_off_c, 7, 60, 64
1, 22077, Note_off_c, 2, 72, 64
1, 22077, Note_off_c, 2, 69, 64
1, 22079, Note_on_c, 9, 40, 124
1, 22079, Note_on_c, 9, 69, 34
1, 22080, Note_off_c, 9, 40, 64
1, 22080, Note_off_c, 9, 69, 64
1, 22081, Note_on_c, 8, 57, 78
1, 22081, Note_on_c, 8, 60, 60
1, 22082, Note_on_c, 8, 64, 45
1, 22094, Note_off_c, 8, 64, 64
1, 22094, Note_off_c, 8, 57, 64
1, 22096, Note_off_c, 8, 60, 64
1, 22102, Note_off_c, 3, 64, 64
1, 22103, Note_on_c, 9, 44, 78
1, 22104, Lyric_t, "\012"
1, 22104, Note_on_c, 3, 62, 98
1, 22104, Note_off_c, 9, 44, 64
1, 22104, Note_on_c, 2, 64, 93
1, 22104, Note_on_c, 2, 69, 100
1, 22104, Note_on_c, 2, 72, 100
1, 22104, Note_on_c, 9, 69, 33
1, 22105, Note_on_c, 7, 57, 80
1, 22105, Note_off_c, 9, 69, 64
1, 22119, Note_off_c, 7, 57, 64
1, 22120, Note_off_c, 2, 72, 64
1, 22120, Note_off_c, 2, 69, 64
1, 22127, Note_on_c, 9, 42, 70
1, 22128, Note_off_c, 9, 42, 64
1, 22128, Note_on_c, 2, 71, 82
1, 22128, Note_on_c, 2, 67, 76
1, 22128, Note_on_c, 9, 69, 60
1, 22129, Note_off_c, 9, 69, 64
1, 22130, Note_off_c, 3, 62, 64
1, 22130, Note_on_c, 3, 60, 98
1, 22142, Note_off_c, 2, 67, 64
1, 22144, Note_off_c, 2, 71, 64
1, 22144, Note_off_c, 2, 64, 64
1, 22151, Note_on_c, 1, 28, 85
1, 22152, Note_on_c, 2, 64, 90
1, 22152, Note_on_c, 2, 72, 97
1, 22152, Note_on_c, 2, 69, 93
1, 22152, Note_on_c, 7, 64, 83
1, 22152, Note_on_c, 9, 69, 45
1, 22153, Note_on_c, 9, 36, 109
1, 22153, Note_off_c, 9, 69, 64
1, 22154, Note_off_c, 9, 36, 64
1, 22162, Note_off_c, 3, 60, 64
1, 22169, Note_off_c, 2, 69, 64
1, 22170, Note_off_c, 1, 28, 64
1, 22170, Note_off_c, 2, 72, 64
1, 22171, Note_off_c, 7, 64, 64
1, 22172, Note_off_c, 2, 64, 64
1, 22175, Note_on_c, 9, 42, 85
1, 22175, Note_on_c, 1, 33, 98
1, 22176, Note_off_c, 9, 42, 64
1, 22177, Note_on_c, 9, 36, 114
1, 22177, Note_on_c, 9, 69, 42
1, 22178, Note_off_c, 9, 36, 64
1, 22178, Note_off_c, 9, 69, 64
1, 22198, Lyric_t, "And "
1, 22198, Note_on_c, 3, 71, 105
1, 22200, Note_off_c, 4, 57, 64
1, 22200, Note_on_c, 4, 62, 109
1, 22200, Note_on_c, 9, 47, 109
1, 22200, Note_on_c, 2, 69, 97
1, 22200, Note_on_c, 2, 72, 90
1, 22200, Note_on_c, 2, 64, 106
1, 22201, Note_off_c, 9, 47, 64
1, 22201, Note_on_c, 7, 57, 90
1, 22201, Note_on_c, 9, 69, 30
1, 22202, Note_off_c, 9, 69, 64
1, 22213, Note_off_c, 3, 71, 64
1, 22216, Note_off_c, 7, 57, 64
1, 22217, Note_off_c, 2, 69, 64
1, 22222, Note_off_c, 1, 33, 64
1, 22222, Note_off_c, 2, 72, 64
1, 22223, Note_off_c, 4, 62, 64
1, 22223, Note_on_c, 9, 42, 70
1, 22224, Note_on_c, 4, 62, 95
1, 22224, Note_off_c, 9, 42, 64
1, 22224, Note_on_c, 2, 71, 87
1, 22224, Note_on_c, 2, 67, 78
1, 22224, Note_on_c, 9, 69, 60
1, 22225, Note_off_c, 9, 69, 64
1, 22226, Lyric_t, "we "
1, 22226, Note_on_c, 3, 71, 98
1, 22236, Note_off_c, 3, 71, 64
1, 22238, Note_off_c, 2, 71, 64
1, 22242, Note_off_c, 2, 67, 64
1, 22244, Note_off_c, 2, 64, 64
1, 22247, Note_off_c, 4, 62, 64
1, 22248, Lyric_t, "got "
1, 22248, Note_on_c, 3, 71, 102
1, 22248, Note_on_c, 4, 62, 104
1, 22248, Note_on_c, 9, 45, 109
1, 22248, Note_on_c, 7, 57, 83
1, 22248, Note_on_c, 9, 69, 30
1, 22249, Note_off_c, 9, 45, 64
1, 22249, Note_on_c, 8, 57, 78
1, 22249, Note_on_c, 8, 60, 62
1, 22249, Note_off_c, 9, 69, 64
1, 22250, Note_on_c, 8, 64, 45
1, 22254, Note_off_c, 8, 60, 64
1, 22254, Note_off_c, 8, 57, 64
1, 22256, Note_off_c, 8, 64, 64
1, 22262, Note_off_c, 7, 57, 64
1, 22265, Note_off_c, 3, 71, 64
1, 22271, Note_off_c, 4, 62, 64
1, 22272, Note_on_c, 4, 62, 91
1, 22272, Note_on_c, 2, 69, 111
1, 22272, Note_on_c, 2, 72, 106
1, 22272, Note_on_c, 2, 64, 106
1, 22273, Lyric_t, "noth"
1, 22273, Note_on_c, 3, 71, 102
1, 22273, Note_on_c, 9, 42, 85
1, 22273, Note_on_c, 7, 60, 74
1, 22273, Note_on_c, 8, 57, 71
1, 22273, Note_on_c, 8, 60, 68
1, 22273, Note_on_c, 8, 64, 53
1, 22273, Note_on_c, 9, 69, 40
1, 22274, Note_off_c, 9, 42, 64
1, 22274, Note_off_c, 9, 69, 64
1, 22279, Note_off_c, 8, 64, 64
1, 22282, Note_off_c, 7, 60, 64
1, 22282, Note_off_c, 8, 60, 64
1, 22282, Note_off_c, 8, 57, 64
1, 22286, Note_off_c, 3, 71, 64
1, 22295, Note_off_c, 4, 62, 64
1, 22295, Note_on_c, 1, 31, 92
1, 22295, Note_on_c, 7, 60, 63
1, 22295, Note_on_c, 9, 69, 31
1, 22296, Lyric_t, "ing "
1, 22296, Note_on_c, 3, 71, 105
1, 22296, Note_on_c, 4, 62, 95
1, 22296, Note_on_c, 9, 43, 98
1, 22296, Note_off_c, 9, 69, 64
1, 22297, Note_off_c, 9, 43, 64
1, 22300, Note_off_c, 2, 64, 64
1, 22314, Note_off_c, 3, 71, 64
1, 22315, Note_off_c, 1, 31, 64
1, 22316, Note_off_c, 2, 69, 64
1, 22316, Note_off_c, 7, 60, 64
1, 22319, Note_off_c, 4, 62, 64
1, 22319, Note_on_c, 1, 33, 87
1, 22320, Note_on_c, 4, 62, 88
1, 22320, Note_on_c, 9, 42, 85
1, 22320, Note_off_c, 2, 72, 64
1, 22320, Note_on_c, 2, 64, 100
1, 22320, Note_on_c, 2, 67, 80
1, 22320, Note_on_c, 2, 71, 90
1, 22320, Note_on_c, 8, 57, 84
1, 22320, Note_on_c, 8, 64, 71
1, 22320, Note_on_c, 9, 69, 59
1, 22321, Note_off_c, 9, 42, 64
1, 22321, Note_on_c, 9, 43, 91
1, 22321, Note_on_c, 7, 57, 68
1, 22321, Note_on_c, 8, 60, 62
1, 22321, Note_off_c, 9, 69, 64
1, 22322, Note_off_c, 9, 43, 64
1, 22323, Lyric_t, "to "
1, 22323, Note_on_c, 3, 71, 102
1, 22328, Note_off_c, 8, 60, 64
1, 22330, Note_off_c, 8, 64, 64
1, 22330, Note_off_c, 8, 57, 64
1, 22332, Note_off_c, 1, 33, 64
1, 22337, Note_off_c, 3, 71, 64
1, 22338, Note_off_c, 7, 57, 64
1, 22341, Note_off_c, 2, 71, 64
1, 22343, Note_off_c, 4, 62, 64
1, 22343, Note_on_c, 1, 33, 81
1, 22344, Note_on_c, 4, 62, 95
1, 22344, Note_off_c, 2, 64, 64
1, 22345, Note_on_c, 9, 43, 80
1, 22345, Note_off_c, 2, 67, 64
1, 22345, Note_on_c, 9, 69, 40
1, 22346, Lyric_t, "be "
1, 22346, Note_on_c, 3, 71, 102
1, 22346, Note_off_c, 9, 43, 64
1, 22346, Note_off_c, 9, 69, 64
1, 22360, Note_off_c, 3, 71, 64
1, 22366, Note_off_c, 1, 33, 64
1, 22367, Note_off_c, 4, 62, 64
1, 22367, Note_on_c, 1, 36, 111
1, 22367, Note_off_c, 11, 64, 64
1, 22368, Note_on_c, 4, 62, 104
1, 22368, Note_on_c, 2, 62, 90
1, 22368, Note_on_c, 2, 64, 87
1, 22368, Note_on_c, 2, 67, 100
1, 22368, Note_on_c, 2, 71, 106
1, 22368, Note_on_c, 7, 55, 70
1, 22368, Note_off_c, 11, 69, 64
1, 22368, Note_off_c, 11, 60, 64
1, 22368, Note_on_c, 11, 67, 54
1, 22368, Note_on_c, 11, 59, 54
1, 22368, Note_on_c, 11, 64, 54
1, 22368, Note_on_c, 11, 62, 54
1, 22368, Note_on_c, 9, 69, 30
1, 22369, Note_on_c, 9, 36, 114
1, 22369, Note_on_c, 9, 57, 78
1, 22369, Note_off_c, 9, 69, 64
1, 22370, Lyric_t, "sor"
1, 22370, Note_on_c, 3, 71, 116
1, 22370, Note_off_c, 9, 57, 64
1, 22370, Note_off_c, 9, 36, 64
1, 22378, Note_off_c, 2, 67, 64
1, 22378, Note_off_c, 2, 62, 64
1, 22381, Note_off_c, 2, 71, 64
1, 22384, Note_off_c, 7, 55, 64
1, 22391, Note_on_c, 9, 69, 30
1, 22392, Note_on_c, 2, 62, 62
1, 22392, Note_on_c, 2, 71, 75
1, 22392, Note_on_c, 2, 67, 78
1, 22392, Note_off_c, 9, 69, 64
1, 22393, Note_on_c, 7, 55, 74
1, 22408, Note_off_c, 1, 36, 64
1, 22410, Note_off_c, 2, 64, 64
1, 22410, Note_off_c, 7, 55, 64
1, 22414, Note_off_c, 2, 67, 64
1, 22414, Note_off_c, 2, 71, 64
1, 22415, Note_on_c, 9, 69, 63
1, 22416, Note_on_c, 2, 69, 82
1, 22416, Note_on_c, 2, 60, 73
1, 22416, Note_off_c, 9, 69, 64
1, 22417, Note_on_c, 9, 44, 68
1, 22417, Note_off_c, 2, 62, 64
1, 22417, Note_on_c, 7, 57, 74
1, 22418, Note_off_c, 9, 44, 64
1, 22422, Note_off_c, 3, 71, 64
1, 22432, Note_off_c, 2, 69, 64
1, 22435, Note_off_c, 7, 57, 64
1, 22438, Note_off_c, 2, 60, 64
1, 22440, Note_off_c, 4, 62, 64
1, 22440, Note_on_c, 4, 60, 95
1, 22440, Note_on_c, 2, 67, 93
1, 22440, Note_on_c, 2, 71, 97
1, 22440, Note_on_c, 2, 64, 80
1, 22440, Note_on_c, 2, 62, 93
1, 22440, Note_on_c, 9, 69, 38
1, 22441, Note_on_c, 9, 42, 70
1, 22441, Note_on_c, 7, 59, 87
1, 22441, Note_on_c, 8, 64, 62
1, 22441, Note_on_c, 8, 55, 68
1, 22441, Note_on_c, 8, 59, 65
1, 22441, Note_off_c, 9, 69, 64
1, 22442, Lyric_t, "ry "
1, 22442, Note_on_c, 3, 69, 111
1, 22442, Note_off_c, 9, 42, 64
1, 22446, Note_off_c, 8, 64, 64
1, 22447, Note_off_c, 8, 59, 64
1, 22450, Note_off_c, 8, 55, 64
1, 22454, Note_off_c, 2, 62, 64
1, 22458, Note_off_c, 7, 59, 64
1, 22461, Note_off_c, 2, 64, 64
1, 22461, Note_off_c, 2, 67, 64
1, 22462, Note_off_c, 2, 71, 64
1, 22464, Note_on_c, 9, 69, 22
1, 22465, Note_on_c, 9, 40, 120
1, 22465, Note_on_c, 8, 59, 78
1, 22465, Note_on_c, 8, 64, 71
1, 22465, Note_on_c, 8, 55, 84
1, 22465, Note_off_c, 9, 69, 64
1, 22466, Note_off_c, 9, 40, 64
1, 22474, Note_off_c, 8, 64, 64
1, 22475, Note_off_c, 8, 59, 64
1, 22476, Note_off_c, 8, 55, 64
1, 22488, Note_on_c, 9, 44, 68
1, 22488, Note_on_c, 2, 71, 97
1, 22488, Note_on_c, 2, 67, 97
1, 22488, Note_on_c, 2, 62, 82
1, 22488, Note_on_c, 2, 64, 82
1, 22489, Note_off_c, 9, 44, 64
1, 22489, Note_on_c, 7, 55, 72
1, 22489, Note_on_c, 9, 69, 34
1, 22490, Note_off_c, 9, 69, 64
1, 22498, Note_off_c, 3, 69, 64
1, 22502, Note_off_c, 7, 55, 64
1, 22504, Note_off_c, 2, 64, 64
1, 22506, Note_off_c, 2, 62, 64
1, 22509, Note_off_c, 2, 67, 64
1, 22511, Note_on_c, 9, 42, 64
1, 22512, Note_off_c, 4, 60, 64
1, 22512, Note_on_c, 4, 62, 104
1, 22512, Note_off_c, 9, 42, 64
1, 22512, Note_off_c, 2, 71, 64
1, 22512, Note_on_c, 2, 60, 72
1, 22512, Note_on_c, 2, 69, 78
1, 22513, Note_on_c, 9, 69, 53
1, 22514, Lyric_t, "for, "
1, 22514, Lyric_t, "\015"
1, 22514, Note_on_c, 3, 71, 111
1, 22514, Note_off_c, 9, 69, 64
1, 22529, Note_off_c, 2, 69, 64
1, 22532, Note_off_c, 2, 60, 64
1, 22535, Note_on_c, 1, 36, 102
1, 22535, Note_on_c, 7, 64, 80
1, 22536, Note_on_c, 2, 71, 93
1, 22536, Note_on_c, 2, 67, 100
1, 22536, Note_on_c, 2, 62, 100
1, 22536, Note_on_c, 2, 64, 90
1, 22537, Note_on_c, 9, 36, 124
1, 22537, Note_on_c, 9, 69, 36
1, 22538, Note_off_c, 9, 36, 64
1, 22538, Note_off_c, 9, 69, 64
1, 22551, Note_off_c, 7, 64, 64
1, 22552, Note_off_c, 2, 64, 64
1, 22556, Note_off_c, 2, 62, 64
1, 22556, Note_off_c, 2, 67, 64
1, 22557, Note_off_c, 1, 36, 64
1, 22558, Note_off_c, 2, 71, 64
1, 22559, Note_on_c, 9, 42, 81
1, 22560, Note_off_c, 9, 42, 64
1, 22561, Note_on_c, 9, 69, 31
1, 22562, Note_off_c, 9, 69, 64
1, 22583, Note_on_c, 7, 55, 72
1, 22584, Note_on_c, 1, 36, 95
1, 22584, Note_on_c, 2, 71, 93
1, 22584, Note_on_c, 2, 67, 97
1, 22584, Note_on_c, 2, 62, 90
1, 22584, Note_on_c, 2, 64, 82
1, 22585, Note_on_c, 9, 69, 23
1, 22586, Note_off_c, 9, 69, 64
1, 22596, Note_off_c, 3, 71, 64
1, 22598, Note_off_c, 1, 36, 64
1, 22599, Note_off_c, 7, 55, 64
1, 22601, Note_off_c, 2, 62, 64
1, 22602, Note_off_c, 2, 64, 64
1, 22602, Note_off_c, 2, 67, 64
1, 22606, Note_off_c, 2, 71, 64
1, 22607, Note_on_c, 1, 36, 85
1, 22607, Note_on_c, 9, 69, 51
1, 22608, Note_on_c, 9, 36, 114
1, 22608, Note_on_c, 2, 60, 69
1, 22608, Note_on_c, 2, 69, 76
1, 22608, Note_off_c, 9, 69, 64
1, 22609, Note_off_c, 9, 36, 64
1, 22609, Note_on_c, 9, 42, 70
1, 22610, Note_off_c, 9, 42, 64
1, 22624, Note_off_c, 2, 69, 64
1, 22631, Note_on_c, 7, 55, 56
1, 22631, Note_on_c, 8, 55, 62
1, 22631, Note_on_c, 8, 64, 62
1, 22632, Note_on_c, 8, 59, 62
1, 22632, Note_on_c, 9, 69, 34
1, 22633, Note_off_c, 9, 69, 64
1, 22634, Note_off_c, 1, 36, 64
1, 22634, Note_off_c, 2, 60, 64
1, 22637, Note_off_c, 8, 64, 64
1, 22638, Note_off_c, 8, 59, 64
1, 22638, Note_off_c, 8, 55, 64
1, 22640, Note_off_c, 7, 55, 64
1, 22655, Note_on_c, 9, 42, 81
1, 22655, Note_on_c, 8, 55, 68
1, 22656, Note_off_c, 4, 62, 64
1, 22656, Note_on_c, 4, 60, 91
1, 22656, Note_off_c, 9, 42, 64
1, 22656, Note_on_c, 2, 67, 106
1, 22656, Note_on_c, 2, 71, 111
1, 22656, Note_on_c, 2, 64, 93
1, 22656, Note_on_c, 2, 62, 100
1, 22657, Lyric_t, "our "
1, 22657, Note_on_c, 3, 69, 105
1, 22657, Note_on_c, 9, 40, 124
1, 22657, Note_on_c, 7, 59, 87
1, 22657, Note_on_c, 8, 59, 75
1, 22657, Note_on_c, 8, 64, 68
1, 22658, Note_off_c, 9, 40, 64
1, 22663, Note_off_c, 8, 64, 64
1, 22664, Note_off_c, 8, 59, 64
1, 22665, Note_off_c, 8, 55, 64
1, 22669, Note_off_c, 7, 59, 64
1, 22679, Note_on_c, 9, 44, 63
1, 22679, Note_on_c, 9, 69, 22
1, 22680, Note_off_c, 9, 44, 64
1, 22680, Note_on_c, 1, 36, 102
1, 22680, Note_on_c, 7, 59, 77
1, 22680, Note_off_c, 9, 69, 64
1, 22688, Note_off_c, 3, 69, 64
1, 22695, Note_off_c, 7, 59, 64
1, 22698, Note_off_c, 1, 36, 64
1, 22698, Note_off_c, 2, 71, 64
1, 22700, Note_off_c, 2, 62, 64
1, 22702, Note_off_c, 2, 64, 64
1, 22702, Note_off_c, 2, 67, 64
1, 22702, Note_on_c, 2, 60, 80
1, 22703, Note_on_c, 9, 46, 78
1, 22703, Note_on_c, 1, 31, 77
1, 22703, Note_on_c, 9, 69, 51
1, 22704, Note_off_c, 4, 60, 64
1, 22704, Note_on_c, 4, 62, 98
1, 22704, Note_off_c, 9, 46, 64
1, 22704, Note_on_c, 2, 69, 87
1, 22704, Note_off_c, 9, 69, 64
1, 22705, Lyric_t, "love's "
1, 22705, Note_on_c, 3, 71, 111
1, 22705, Note_on_c, 7, 55, 66
1, 22705, Note_on_c, 8, 55, 75
1, 22705, Note_on_c, 8, 59, 75
1, 22705, Note_on_c, 8, 64, 68
1, 22711, Note_off_c, 8, 64, 64
1, 22714, Note_off_c, 8, 59, 64
1, 22715, Note_off_c, 8, 55, 64
1, 22723, Note_off_c, 7, 55, 64
1, 22726, Note_off_c, 1, 31, 64
1, 22727, Note_on_c, 1, 33, 95
1, 22727, Note_on_c, 9, 69, 48
1, 22728, Note_off_c, 9, 69, 64
1, 22742, Note_off_c, 2, 69, 64
1, 22748, Note_off_c, 2, 60, 64
1, 22750, Note_on_c, 2, 67, 100
1, 22750, Note_on_c, 2, 71, 100
1, 22750, Note_on_c, 2, 64, 84
1, 22751, Note_on_c, 9, 36, 114
1, 22751, Note_off_c, 1, 33, 64
1, 22751, Note_on_c, 1, 36, 102
1, 22752, Time_signature, 3, 2, 24, 8
1, 22752, Note_off_c, 9, 36, 64
1, 22752, Note_on_c, 2, 62, 93
1, 22752, Note_on_c, 7, 55, 77
1, 22753, Note_on_c, 9, 42, 85
1, 22754, Note_off_c, 9, 42, 64
1, 22754, Note_on_c, 9, 69, 33
1, 22755, Note_off_c, 9, 69, 64
1, 22760, Note_off_c, 2, 64, 64
1, 22762, Note_off_c, 2, 62, 64
1, 22762, Note_off_c, 2, 67, 64
1, 22763, Note_off_c, 2, 71, 64
1, 22763, Note_off_c, 7, 55, 64
1, 22774, Note_on_c, 2, 71, 90
1, 22774, Note_on_c, 2, 67, 84
1, 22775, Note_on_c, 7, 55, 60
1, 22776, Note_on_c, 2, 62, 87
1, 22776, Note_on_c, 2, 64, 72
1, 22777, Note_on_c, 9, 69, 26
1, 22778, Note_off_c, 9, 69, 64
1, 22782, Note_off_c, 3, 71, 64
1, 22787, Note_off_c, 1, 36, 64
1, 22789, Note_off_c, 7, 55, 64
1, 22792, Note_off_c, 2, 67, 64
1, 22794, Note_off_c, 2, 62, 64
1, 22796, Note_off_c, 2, 71, 64
1, 22797, Note_off_c, 2, 64, 64
1, 22799, Note_on_c, 9, 44, 70
1, 22799, Note_on_c, 7, 57, 66
1, 22800, Note_off_c, 9, 44, 64
1, 22800, Note_on_c, 2, 60, 76
1, 22800, Note_on_c, 2, 69, 80
1, 22801, Note_on_c, 9, 69, 61
1, 22802, Note_off_c, 9, 69, 64
1, 22817, Note_off_c, 2, 69, 64
1, 22822, Lyric_t, "one "
1, 22822, Note_on_c, 3, 69, 105
1, 22822, Note_off_c, 2, 60, 64
1, 22822, Note_off_c, 7, 57, 64
1, 22823, Note_on_c, 8, 64, 68
1, 22823, Note_on_c, 8, 55, 68
1, 22823, Note_on_c, 8, 59, 68
1, 22824, Note_off_c, 4, 62, 64
1, 22824, Note_on_c, 4, 60, 95
1, 22824, Note_on_c, 9, 42, 78
1, 22824, Note_on_c, 2, 71, 87
1, 22824, Note_on_c, 2, 67, 87
1, 22824, Note_on_c, 2, 64, 82
1, 22824, Note_on_c, 2, 62, 93
1, 22824, Note_on_c, 7, 59, 77
1, 22824, Note_on_c, 9, 69, 40
1, 22825, Note_off_c, 9, 42, 64
1, 22825, Note_off_c, 9, 69, 64
1, 22830, Note_off_c, 8, 59, 64
1, 22832, Note_off_c, 8, 64, 64
1, 22833, Note_off_c, 8, 55, 64
1, 22836, Note_off_c, 2, 64, 64
1, 22838, Note_off_c, 2, 67, 64
1, 22839, Note_off_c, 7, 59, 64
1, 22840, Note_off_c, 2, 62, 64
1, 22844, Note_off_c, 2, 71, 64
1, 22847, Note_off_c, 4, 60, 64
1, 22847, Note_on_c, 9, 40, 124
1, 22848, Note_on_c, 4, 60, 91
1, 22848, Note_off_c, 9, 40, 64
1, 22848, Note_on_c, 8, 59, 68
1, 22848, Note_on_c, 8, 55, 78
1, 22848, Note_on_c, 8, 64, 71
1, 22850, Note_on_c, 9, 69, 33
1, 22851, Note_off_c, 9, 69, 64
1, 22857, Note_off_c, 8, 64, 64
1, 22858, Note_off_c, 8, 55, 64
1, 22859, Note_off_c, 8, 59, 64
1, 22862, Note_off_c, 3, 69, 64
1, 22870, Lyric_t, "in "
1, 22870, Note_on_c, 3, 71, 102
1, 22870, Note_on_c, 2, 67, 90
1, 22870, Note_on_c, 2, 71, 90
1, 22870, Note_on_c, 2, 62, 93
1, 22871, Note_on_c, 9, 44, 70
1, 22872, Note_off_c, 4, 60, 64
1, 22872, Note_on_c, 4, 62, 91
1, 22872, Note_off_c, 9, 44, 64
1, 22872, Note_on_c, 2, 64, 75
1, 22873, Note_on_c, 7, 55, 63
1, 22873, Note_on_c, 9, 69, 30
1, 22874, Note_off_c, 9, 69, 64
1, 22880, Note_off_c, 2, 64, 64
1, 22887, Note_off_c, 2, 67, 64
1, 22889, Note_off_c, 3, 71, 64
1, 22889, Note_off_c, 2, 62, 64
1, 22890, Note_off_c, 7, 55, 64
1, 22892, Note_off_c, 2, 71, 64
1, 22894, Lyric_t, "a "
1, 22894, Note_on_c, 3, 72, 102
1, 22894, Note_on_c, 2, 60, 75
1, 22894, Note_on_c, 2, 69, 90
1, 22895, Note_on_c, 9, 42, 81
1, 22896, Note_off_c, 4, 62, 64
1, 22896, Note_on_c, 4, 64, 91
1, 22896, Note_off_c, 9, 42, 64
1, 22898, Note_on_c, 9, 69, 52
1, 22899, Note_off_c, 9, 69, 64
1, 22914, Note_off_c, 3, 72, 64
1, 22914, Note_off_c, 2, 69, 64
1, 22917, Note_off_c, 2, 60, 64
1, 22919, Lyric_t, "mil"
1, 22919, Note_on_c, 3, 71, 102
1, 22919, Note_on_c, 9, 36, 114
1, 22919, Note_on_c, 1, 36, 105
1, 22919, Note_on_c, 7, 64, 77
1, 22920, Note_off_c, 4, 64, 64
1, 22920, Note_on_c, 4, 62, 104
1, 22920, Note_off_c, 9, 36, 64
1, 22920, Note_on_c, 2, 64, 84
1, 22920, Note_on_c, 2, 67, 97
1, 22920, Note_on_c, 2, 71, 90
1, 22920, Note_on_c, 2, 62, 97
1, 22921, Note_on_c, 9, 69, 36
1, 22922, Note_off_c, 9, 69, 64
1, 22934, Note_off_c, 2, 64, 64
1, 22936, Note_off_c, 2, 62, 64
1, 22937, Note_off_c, 2, 67, 64
1, 22937, Note_off_c, 7, 64, 64
1, 22940, Note_off_c, 2, 71, 64
1, 22943, Note_on_c, 9, 42, 81
1, 22944, Note_off_c, 9, 42, 64
1, 22944, Note_off_c, 11, 62, 64
1, 22945, Note_on_c, 9, 69, 40
1, 22946, Note_off_c, 9, 69, 64
1, 22951, Note_off_c, 1, 36, 64
1, 22967, Note_on_c, 7, 55, 80
1, 22968, Note_on_c, 2, 62, 93
1, 22968, Note_on_c, 2, 64, 84
1, 22968, Note_on_c, 2, 67, 97
1, 22968, Note_on_c, 2, 71, 100
1, 22969, Note_on_c, 9, 69, 23
1, 22970, Note_off_c, 9, 69, 64
1, 22986, Note_off_c, 7, 55, 64
1, 22990, Note_off_c, 2, 71, 64
1, 22990, Note_off_c, 2, 67, 64
1, 22990, Note_on_c, 2, 60, 87
1, 22991, Note_off_c, 3, 71, 64
1, 22991, Note_on_c, 9, 40, 109
1, 22991, Note_on_c, 9, 42, 94
1, 22991, Note_on_c, 1, 36, 98
1, 22992, Note_off_c, 4, 62, 64
1, 22992, Note_on_c, 4, 60, 98
1, 22992, Note_off_c, 9, 42, 64
1, 22992, Note_off_c, 9, 40, 64
1, 22992, Note_off_c, 2, 62, 64
1, 22992, Note_on_c, 2, 69, 93
1, 22992, Note_on_c, 9, 69, 58
1, 22993, Lyric_t, "lion. "
1, 22993, Lyric_t, "\015"
1, 22993, Note_on_c, 3, 69, 105
1, 22993, Note_off_c, 9, 69, 64
1, 23009, Lyric_t, "\012"
1, 23014, Note_off_c, 2, 60, 64
1, 23015, Note_on_c, 9, 40, 91
1, 23015, Note_on_c, 7, 55, 72
1, 23016, Note_off_c, 3, 69, 64
1, 23016, Note_off_c, 9, 40, 64
1, 23018, Note_off_c, 2, 64, 64
1, 23018, Note_on_c, 9, 69, 48
1, 23019, Note_off_c, 9, 69, 64
1, 23020, Note_off_c, 2, 69, 64
1, 23026, Note_off_c, 7, 55, 64
1, 23038, Note_on_c, 2, 69, 97
1, 23039, Note_off_c, 4, 60, 64
1, 23039, Note_on_c, 9, 36, 120
1, 23039, Note_off_c, 1, 36, 64
1, 23039, Note_on_c, 1, 31, 98
1, 23040, Time_signature, 4, 2, 24, 8
1, 23040, Lyric_t, "Eyes "
1, 23040, Note_on_c, 3, 69, 111
1, 23040, Note_on_c, 4, 60, 104
1, 23040, Note_off_c, 9, 36, 64
1, 23040, Note_on_c, 9, 57, 88
1, 23040, Note_on_c, 2, 64, 80
1, 23040, Note_on_c, 2, 65, 93
1, 23040, Note_on_c, 2, 72, 106
1, 23040, Note_off_c, 11, 67, 64
1, 23040, Note_off_c, 11, 59, 64
1, 23040, Note_off_c, 11, 64, 64
1, 23040, Note_on_c, 11, 62, 58
1, 23040, Note_on_c, 11, 60, 58
1, 23040, Note_on_c, 11, 69, 58
1, 23040, Note_on_c, 11, 65, 58
1, 23041, Note_off_c, 9, 57, 64
1, 23041, Note_on_c, 7, 57, 90
1, 23042, Note_on_c, 9, 69, 23
1, 23043, Note_off_c, 9, 69, 64
1, 23051, Note_off_c, 7, 57, 64
1, 23053, Note_off_c, 2, 64, 64
1, 23053, Note_off_c, 2, 69, 64
1, 23056, Note_off_c, 2, 72, 64
1, 23064, Note_on_c, 2, 64, 73
1, 23064, Note_on_c, 2, 69, 93
1, 23064, Note_on_c, 2, 72, 80
1, 23064, Note_on_c, 7, 57, 80
1, 23065, Note_on_c, 9, 69, 24
1, 23066, Note_off_c, 9, 69, 64
1, 23082, Note_off_c, 7, 57, 64
1, 23084, Note_off_c, 2, 72, 64
1, 23084, Note_off_c, 2, 69, 64
1, 23085, Note_off_c, 2, 64, 64
1, 23086, Note_off_c, 1, 31, 64
1, 23086, Note_on_c, 2, 71, 97
1, 23086, Note_on_c, 2, 62, 84
1, 23087, Note_on_c, 9, 44, 68
1, 23088, Note_off_c, 9, 44, 64
1, 23088, Note_on_c, 7, 59, 74
1, 23089, Note_on_c, 9, 69, 62
1, 23090, Note_off_c, 9, 69, 64
1, 23098, Note_off_c, 2, 65, 64
1, 23102, Note_off_c, 2, 71, 64
1, 23107, Note_off_c, 2, 62, 64
1, 23110, Note_off_c, 3, 69, 64
1, 23110, Note_off_c, 7, 59, 64
1, 23112, Note_off_c, 4, 60, 64
1, 23112, Note_on_c, 4, 59, 114
1, 23112, Note_on_c, 2, 69, 93
1, 23112, Note_on_c, 2, 65, 93
1, 23112, Note_on_c, 2, 64, 100
1, 23112, Note_on_c, 2, 72, 87
1, 23112, Note_on_c, 8, 57, 62
1, 23112, Note_on_c, 8, 60, 53
1, 23112, Note_on_c, 8, 65, 60
1, 23113, Note_on_c, 9, 42, 78
1, 23113, Note_on_c, 7, 60, 74
1, 23113, Note_on_c, 9, 69, 38
1, 23114, Lyric_t, "can "
1, 23114, Note_on_c, 3, 67, 105
1, 23114, Note_off_c, 9, 42, 64
1, 23114, Note_off_c, 9, 69, 64
1, 23118, Note_off_c, 8, 65, 64
1, 23119, Note_off_c, 8, 60, 64
1, 23120, Note_off_c, 8, 57, 64
1, 23129, Note_off_c, 7, 60, 64
1, 23130, Note_off_c, 2, 64, 64
1, 23132, Note_off_c, 2, 69, 64
1, 23133, Note_off_c, 2, 72, 64
1, 23134, Note_off_c, 2, 65, 64
1, 23137, Note_on_c, 9, 40, 114
1, 23137, Note_on_c, 8, 57, 78
1, 23137, Note_on_c, 8, 60, 68
1, 23137, Note_on_c, 8, 65, 78
1, 23138, Note_off_c, 9, 40, 64
1, 23148, Note_off_c, 8, 60, 64
1, 23149, Note_off_c, 8, 65, 64
1, 23151, Note_off_c, 8, 57, 64
1, 23159, Note_on_c, 9, 44, 70
1, 23160, Note_off_c, 9, 44, 64
1, 23160, Note_on_c, 2, 72, 97
1, 23160, Note_on_c, 2, 69, 90
1, 23160, Note_on_c, 2, 64, 93
1, 23160, Note_on_c, 2, 65, 80
1, 23161, Note_on_c, 7, 57, 77
1, 23161, Note_on_c, 9, 69, 40
1, 23162, Note_off_c, 9, 69, 64
1, 23172, Note_off_c, 2, 65, 64
1, 23176, Note_off_c, 2, 64, 64
1, 23177, Note_off_c, 2, 69, 64
1, 23178, Note_off_c, 3, 67, 64
1, 23178, Note_off_c, 7, 57, 64
1, 23180, Note_off_c, 2, 72, 64
1, 23182, Note_on_c, 2, 62, 80
1, 23182, Note_on_c, 2, 71, 93
1, 23183, Note_on_c, 9, 42, 68
1, 23184, Note_off_c, 4, 59, 64
1, 23184, Note_on_c, 4, 60, 95
1, 23184, Note_off_c, 9, 42, 64
1, 23185, Note_on_c, 9, 69, 63
1, 23186, Lyric_t, "see "
1, 23186, Note_on_c, 3, 69, 111
1, 23186, Note_off_c, 9, 69, 64
1, 23197, Note_off_c, 2, 71, 64
1, 23206, Note_off_c, 2, 62, 64
1, 23206, Note_on_c, 2, 72, 93
1, 23207, Note_on_c, 1, 31, 95
1, 23208, Note_on_c, 9, 36, 109
1, 23208, Note_on_c, 2, 69, 90
1, 23208, Note_on_c, 2, 65, 78
1, 23208, Note_on_c, 2, 64, 90
1, 23208, Note_on_c, 7, 65, 83
1, 23209, Note_off_c, 9, 36, 64
1, 23209, Note_on_c, 9, 69, 48
1, 23210, Note_off_c, 9, 69, 64
1, 23224, Note_off_c, 2, 64, 64
1, 23225, Note_off_c, 7, 65, 64
1, 23228, Note_off_c, 2, 72, 64
1, 23229, Note_off_c, 2, 69, 64
1, 23230, Note_off_c, 2, 65, 64
1, 23231, Note_on_c, 9, 42, 85
1, 23232, Note_off_c, 9, 42, 64
1, 23232, Note_on_c, 9, 69, 20
1, 23233, Note_off_c, 9, 69, 64
1, 23234, Note_off_c, 1, 31, 64
1, 23255, Note_on_c, 1, 31, 98
1, 23255, Note_on_c, 9, 69, 36
1, 23256, Note_on_c, 2, 64, 90
1, 23256, Note_on_c, 2, 69, 100
1, 23256, Note_on_c, 2, 72, 97
1, 23256, Note_on_c, 2, 65, 90
1, 23256, Note_on_c, 7, 57, 83
1, 23256, Note_off_c, 9, 69, 64
1, 23268, Note_off_c, 1, 31, 64
1, 23270, Note_off_c, 2, 65, 64
1, 23274, Note_off_c, 3, 69, 64
1, 23274, Note_off_c, 2, 69, 64
1, 23274, Note_off_c, 7, 57, 64
1, 23276, Note_off_c, 2, 72, 64
1, 23276, Note_off_c, 2, 64, 64
1, 23278, Note_on_c, 2, 62, 82
1, 23279, Note_on_c, 9, 36, 109
1, 23279, Note_on_c, 9, 42, 78
1, 23279, Note_on_c, 1, 31, 92
1, 23279, Note_on_c, 9, 69, 58
1, 23280, Note_off_c, 9, 42, 64
1, 23280, Note_off_c, 9, 36, 64
1, 23280, Note_on_c, 2, 71, 82
1, 23280, Note_off_c, 9, 69, 64
1, 23293, Note_off_c, 2, 71, 64
1, 23303, Note_on_c, 8, 57, 71
1, 23303, Note_on_c, 8, 65, 71
1, 23303, Note_on_c, 8, 60, 62
1, 23303, Note_on_c, 9, 69, 36
1, 23304, Note_off_c, 9, 69, 64
1, 23305, Note_on_c, 7, 57, 63
1, 23306, Note_off_c, 2, 62, 64
1, 23308, Note_off_c, 8, 65, 64
1, 23309, Note_off_c, 8, 60, 64
1, 23310, Note_off_c, 8, 57, 64
1, 23316, Note_off_c, 7, 57, 64
1, 23325, Note_off_c, 1, 31, 64
1, 23326, Lyric_t, "that "
1, 23326, Note_on_c, 3, 67, 111
1, 23327, Note_on_c, 9, 40, 124
1, 23327, Note_on_c, 9, 42, 94
1, 23327, Note_on_c, 8, 60, 71
1, 23327, Note_on_c, 8, 57, 78
1, 23327, Note_on_c, 8, 65, 75
1, 23328, Note_off_c, 4, 60, 64
1, 23328, Note_on_c, 4, 59, 104
1, 23328, Note_off_c, 9, 42, 64
1, 23328, Note_off_c, 9, 40, 64
1, 23328, Note_on_c, 2, 69, 106
1, 23328, Note_on_c, 2, 72, 100
1, 23328, Note_on_c, 2, 64, 97
1, 23328, Note_on_c, 2, 65, 100
1, 23329, Note_on_c, 7, 60, 87
1, 23329, Note_on_c, 9, 69, 22
1, 23330, Note_off_c, 9, 69, 64
1, 23335, Note_off_c, 8, 65, 64
1, 23335, Note_off_c, 8, 57, 64
1, 23336, Note_off_c, 8, 60, 64
1, 23340, Note_off_c, 7, 60, 64
1, 23351, Note_on_c, 9, 44, 64
1, 23352, Note_off_c, 9, 44, 64
1, 23352, Note_on_c, 7, 60, 59
1, 23353, Note_on_c, 9, 69, 25
1, 23354, Note_off_c, 9, 69, 64
1, 23362, Note_off_c, 3, 67, 64
1, 23368, Note_off_c, 2, 69, 64
1, 23369, Note_off_c, 2, 64, 64
1, 23372, Note_off_c, 2, 65, 64
1, 23374, Lyric_t, "we "
1, 23374, Lyric_t, "\015"
1, 23374, Note_on_c, 3, 69, 111
1, 23374, Note_off_c, 2, 72, 64
1, 23374, Note_on_c, 2, 62, 80
1, 23374, Note_off_c, 7, 60, 64
1, 23375, Note_on_c, 1, 38, 98
1, 23375, Note_on_c, 8, 57, 89
1, 23375, Note_on_c, 9, 69, 67
1, 23376, Note_off_c, 4, 59, 64
1, 23376, Note_on_c, 4, 60, 98
1, 23376, Note_on_c, 2, 71, 90
1, 23376, Note_on_c, 8, 65, 89
1, 23376, Note_on_c, 8, 60, 71
1, 23376, Note_off_c, 9, 69, 64
1, 23377, Note_on_c, 9, 46, 78
1, 23377, Note_on_c, 7, 57, 74
1, 23378, Note_off_c, 9, 46, 64
1, 23386, Note_off_c, 8, 60, 64
1, 23386, Note_off_c, 8, 65, 64
1, 23386, Note_off_c, 8, 57, 64
1, 23391, Note_off_c, 7, 57, 64
1, 23394, Note_off_c, 1, 38, 64
1, 23399, Note_on_c, 1, 43, 81
1, 23399, Note_on_c, 9, 69, 38
1, 23400, Note_off_c, 9, 69, 64
1, 23406, Note_off_c, 2, 71, 64
1, 23416, Note_off_c, 2, 62, 64
1, 23422, Note_on_c, 2, 65, 82
1, 23423, Note_on_c, 9, 36, 114
1, 23423, Note_on_c, 1, 31, 98
1, 23423, Note_on_c, 7, 57, 74
1, 23424, Note_off_c, 9, 36, 64
1, 23424, Note_off_c, 1, 43, 64
1, 23424, Note_on_c, 2, 69, 100
1, 23424, Note_on_c, 2, 64, 80
1, 23424, Note_on_c, 2, 72, 106
1, 23425, Note_on_c, 9, 42, 85
1, 23425, Note_on_c, 9, 69, 12
1, 23426, Note_off_c, 9, 42, 64
1, 23426, Note_off_c, 9, 69, 64
1, 23432, Note_off_c, 2, 65, 64
1, 23434, Note_off_c, 2, 69, 64
1, 23434, Note_off_c, 2, 64, 64
1, 23436, Note_off_c, 2, 72, 64
1, 23436, Note_off_c, 7, 57, 64
1, 23446, Note_on_c, 2, 64, 75
1, 23447, Note_on_c, 7, 57, 62
1, 23448, Note_on_c, 2, 65, 73
1, 23448, Note_on_c, 2, 72, 84
1, 23448, Note_on_c, 2, 69, 90
1, 23449, Note_on_c, 9, 69, 24
1, 23450, Note_off_c, 9, 69, 64
1, 23459, Note_off_c, 7, 57, 64
1, 23465, Note_off_c, 2, 65, 64
1, 23466, Note_off_c, 2, 69, 64
1, 23468, Note_off_c, 2, 64, 64
1, 23470, Note_off_c, 2, 72, 64
1, 23470, Note_on_c, 2, 71, 84
1, 23471, Note_on_c, 7, 59, 72
1, 23472, Note_on_c, 2, 62, 76
1, 23473, Note_on_c, 9, 44, 72
1, 23473, Note_on_c, 9, 69, 62
1, 23474, Note_off_c, 9, 44, 64
1, 23474, Note_off_c, 9, 69, 64
1, 23478, Note_off_c, 1, 31, 64
1, 23481, Note_off_c, 3, 69, 64
1, 23490, Note_off_c, 2, 71, 64
1, 23492, Note_off_c, 2, 62, 64
1, 23494, Note_off_c, 7, 59, 64
1, 23495, Note_on_c, 8, 65, 78
1, 23495, Note_on_c, 8, 57, 78
1, 23495, Note_on_c, 8, 60, 65
1, 23496, Note_on_c, 2, 72, 90
1, 23496, Note_on_c, 2, 69, 100
1, 23496, Note_on_c, 2, 64, 93
1, 23496, Note_on_c, 2, 65, 87
1, 23497, Note_on_c, 9, 42, 72
1, 23497, Note_on_c, 7, 60, 80
1, 23497, Note_on_c, 9, 69, 38
1, 23498, Note_off_c, 9, 42, 64
1, 23498, Note_off_c, 9, 69, 64
1, 23501, Note_off_c, 8, 60, 64
1, 23501, Note_off_c, 8, 65, 64
1, 23502, Note_off_c, 8, 57, 64
1, 23512, Note_off_c, 7, 60, 64
1, 23514, Note_off_c, 2, 69, 64
1, 23516, Note_off_c, 2, 64, 64
1, 23517, Note_off_c, 2, 65, 64
1, 23519, Note_on_c, 9, 40, 124
1, 23519, Note_on_c, 9, 69, 19
1, 23520, Note_off_c, 4, 60, 64
1, 23520, Note_off_c, 9, 40, 64
1, 23520, Note_off_c, 2, 72, 64
1, 23520, Note_on_c, 8, 60, 75
1, 23520, Note_on_c, 8, 57, 78
1, 23520, Note_off_c, 9, 69, 64
1, 23521, Note_on_c, 8, 65, 78
1, 23530, Note_off_c, 8, 65, 64
1, 23530, Note_off_c, 8, 60, 64
1, 23531, Note_off_c, 8, 57, 64
1, 23543, Note_on_c, 9, 44, 72
1, 23543, Note_on_c, 9, 69, 30
1, 23544, Note_on_c, 4, 59, 114
1, 23544, Note_off_c, 9, 44, 64
1, 23544, Note_on_c, 2, 65, 93
1, 23544, Note_on_c, 2, 69, 100
1, 23544, Note_on_c, 2, 64, 90
1, 23544, Note_on_c, 2, 72, 100
1, 23544, Note_off_c, 9, 69, 64
1, 23545, Lyric_t, "got "
1, 23545, Note_on_c, 3, 67, 98
1, 23545, Note_on_c, 7, 57, 72
1, 23561, Note_off_c, 7, 57, 64
1, 23563, Note_off_c, 3, 67, 64
1, 23564, Note_off_c, 2, 69, 64
1, 23564, Note_off_c, 2, 65, 64
1, 23565, Note_off_c, 2, 64, 64
1, 23566, Note_on_c, 2, 62, 84
1, 23567, Note_on_c, 9, 42, 72
1, 23567, Note_on_c, 9, 69, 62
1, 23568, Lyric_t, "a "
1, 23568, Note_on_c, 3, 69, 95
1, 23568, Note_off_c, 4, 59, 64
1, 23568, Note_on_c, 4, 60, 85
1, 23568, Note_off_c, 9, 42, 64
1, 23568, Note_off_c, 2, 72, 64
1, 23568, Note_on_c, 2, 71, 80
1, 23568, Note_off_c, 9, 69, 64
1, 23585, Note_off_c, 3, 69, 64
1, 23586, Note_off_c, 2, 71, 64
1, 23589, Note_off_c, 2, 62, 64
1, 23590, Note_on_c, 9, 69, 33
1, 23591, Note_on_c, 9, 36, 114
1, 23591, Note_off_c, 9, 69, 64
1, 23592, Note_off_c, 4, 60, 64
1, 23592, Note_on_c, 4, 62, 104
1, 23592, Note_off_c, 9, 36, 64
1, 23592, Note_on_c, 2, 65, 87
1, 23592, Note_on_c, 2, 64, 90
1, 23592, Note_on_c, 2, 69, 100
1, 23592, Note_on_c, 2, 72, 93
1, 23593, Note_on_c, 1, 31, 98
1, 23593, Note_on_c, 7, 65, 80
1, 23594, Lyric_t, "high"
1, 23594, Note_on_c, 3, 71, 116
1, 23610, Note_off_c, 2, 69, 64
1, 23610, Note_off_c, 2, 65, 64
1, 23611, Note_off_c, 7, 65, 64
1, 23612, Note_off_c, 2, 64, 64
1, 23612, Note_off_c, 2, 72, 64
1, 23615, Note_on_c, 9, 42, 81
1, 23615, Note_on_c, 9, 69, 34
1, 23616, Note_off_c, 9, 42, 64
1, 23616, Note_off_c, 9, 69, 64
1, 23624, Note_off_c, 1, 31, 64
1, 23638, Note_on_c, 2, 64, 87
1, 23639, Note_on_c, 1, 31, 89
1, 23639, Note_on_c, 7, 55, 66
1, 23640, Note_on_c, 2, 65, 90
1, 23640, Note_on_c, 2, 72, 97
1, 23640, Note_on_c, 2, 69, 100
1, 23640, Note_on_c, 9, 69, 33
1, 23641, Note_off_c, 9, 69, 64
1, 23650, Note_off_c, 1, 31, 64
1, 23655, Note_off_c, 2, 64, 64
1, 23656, Note_off_c, 2, 65, 64
1, 23660, Note_off_c, 2, 72, 64
1, 23660, Note_off_c, 2, 69, 64
1, 23662, Lyric_t, "way "
1, 23662, Note_off_c, 3, 71, 64
1, 23662, Note_on_c, 3, 72, 105
1, 23662, Note_on_c, 2, 62, 76
1, 23662, Note_on_c, 2, 71, 78
1, 23662, Note_off_c, 7, 55, 64
1, 23663, Note_on_c, 9, 42, 78
1, 23663, Note_on_c, 1, 31, 95
1, 23664, Note_off_c, 4, 62, 64
1, 23664, Note_on_c, 4, 64, 95
1, 23664, Note_off_c, 9, 42, 64
1, 23664, Note_on_c, 9, 36, 109
1, 23664, Note_on_c, 9, 69, 60
1, 23665, Note_off_c, 9, 36, 64
1, 23665, Note_off_c, 9, 69, 64
1, 23680, Note_off_c, 2, 71, 64
1, 23686, Note_on_c, 8, 57, 68
1, 23686, Note_on_c, 8, 65, 68
1, 23687, Note_on_c, 7, 55, 63
1, 23687, Note_on_c, 8, 60, 60
1, 23688, Note_on_c, 9, 69, 45
1, 23689, Note_off_c, 9, 69, 64
1, 23691, Note_off_c, 8, 65, 64
1, 23692, Note_off_c, 8, 60, 64
1, 23693, Note_off_c, 8, 57, 64
1, 23697, Note_off_c, 1, 31, 64
1, 23698, Note_off_c, 7, 55, 64
1, 23706, Note_off_c, 2, 62, 64
1, 23710, Note_off_c, 3, 72, 64
1, 23710, Note_on_c, 2, 64, 93
1, 23710, Note_on_c, 2, 69, 111
1, 23710, Note_on_c, 8, 57, 75
1, 23710, Note_on_c, 8, 60, 65
1, 23710, Note_on_c, 8, 65, 65
1, 23711, Lyric_t, "to "
1, 23711, Note_on_c, 3, 71, 105
1, 23711, Note_on_c, 9, 42, 81
1, 23712, Note_off_c, 4, 64, 64
1, 23712, Note_on_c, 4, 62, 88
1, 23712, Note_off_c, 9, 42, 64
1, 23712, Note_on_c, 9, 40, 124
1, 23712, Note_on_c, 2, 65, 93
1, 23712, Note_on_c, 2, 72, 106
1, 23712, Note_on_c, 7, 59, 83
1, 23712, Note_off_c, 11, 62, 64
1, 23713, Note_off_c, 9, 40, 64
1, 23713, Note_on_c, 9, 69, 42
1, 23714, Note_off_c, 9, 69, 64
1, 23716, Note_off_c, 8, 65, 64
1, 23718, Note_off_c, 8, 60, 64
1, 23721, Note_off_c, 8, 57, 64
1, 23733, Note_off_c, 7, 59, 64
1, 23735, Note_on_c, 9, 44, 70
1, 23735, Note_on_c, 1, 31, 92
1, 23736, Note_off_c, 9, 44, 64
1, 23737, Note_on_c, 9, 69, 30
1, 23738, Note_off_c, 9, 69, 64
1, 23745, Note_off_c, 1, 31, 64
1, 23754, Note_off_c, 2, 65, 64
1, 23756, Note_off_c, 2, 69, 64
1, 23758, Note_off_c, 3, 71, 64
1, 23759, Lyric_t, "the "
1, 23759, Note_on_c, 3, 67, 83
1, 23759, Note_on_c, 9, 46, 78
1, 23759, Note_on_c, 8, 57, 78
1, 23759, Note_on_c, 8, 60, 68
1, 23759, Note_on_c, 8, 65, 78
1, 23760, Note_off_c, 4, 62, 64
1, 23760, Note_on_c, 4, 60, 95
1, 23760, Note_off_c, 9, 46, 64
1, 23760, Note_on_c, 1, 31, 95
1, 23760, Note_off_c, 2, 72, 64
1, 23760, Note_on_c, 2, 71, 106
1, 23760, Note_on_c, 2, 62, 78
1, 23760, Note_on_c, 9, 69, 60
1, 23761, Note_on_c, 7, 55, 65
1, 23761, Note_off_c, 9, 69, 64
1, 23766, Note_off_c, 2, 62, 64
1, 23767, Note_off_c, 8, 65, 64
1, 23770, Note_off_c, 8, 60, 64
1, 23770, Note_off_c, 8, 57, 64
1, 23771, Note_off_c, 2, 64, 64
1, 23778, Note_off_c, 7, 55, 64
1, 23782, Note_off_c, 1, 31, 64
1, 23783, Note_on_c, 1, 33, 89
1, 23784, Note_on_c, 9, 69, 30
1, 23785, Note_off_c, 9, 69, 64
1, 23788, Note_off_c, 3, 67, 64
1, 23792, Note_off_c, 2, 71, 64
1, 23807, Note_on_c, 9, 36, 120
1, 23808, Note_off_c, 4, 60, 64
1, 23808, Note_on_c, 4, 59, 114
1, 23808, Note_off_c, 9, 36, 64
1, 23808, Note_on_c, 2, 64, 90
1, 23808, Note_on_c, 2, 67, 93
1, 23808, Note_on_c, 2, 71, 116
1, 23808, Note_on_c, 2, 74, 90
1, 23808, Note_off_c, 11, 60, 64
1, 23808, Note_off_c, 11, 69, 64
1, 23808, Note_off_c, 11, 65, 64
1, 23808, Note_on_c, 11, 71, 55
1, 23808, Note_on_c, 11, 67, 55
1, 23808, Note_on_c, 11, 62, 55
1, 23808, Note_on_c, 11, 64, 55
1, 23809, Note_on_c, 9, 42, 81
1, 23809, Note_off_c, 1, 33, 64
1, 23809, Note_on_c, 1, 36, 98
1, 23809, Note_on_c, 7, 55, 77
1, 23809, Note_on_c, 9, 69, 40
1, 23810, Lyric_t, "sky-"
1, 23810, Note_on_c, 3, 69, 105
1, 23810, Note_off_c, 9, 42, 64
1, 23810, Note_off_c, 9, 69, 64
1, 23818, Note_off_c, 2, 74, 64
1, 23820, Note_off_c, 2, 71, 64
1, 23820, Note_off_c, 7, 55, 64
1, 23821, Note_off_c, 2, 67, 64
1, 23822, Note_off_c, 2, 64, 64
1, 23831, Note_on_c, 9, 69, 31
1, 23832, Note_on_c, 2, 64, 90
1, 23832, Note_on_c, 2, 71, 93
1, 23832, Note_on_c, 2, 67, 82
1, 23832, Note_on_c, 2, 74, 84
1, 23832, Note_on_c, 7, 55, 72
1, 23832, Note_off_c, 9, 69, 64
1, 23841, Note_off_c, 3, 69, 64
1, 23846, Note_off_c, 1, 36, 64
1, 23846, Note_off_c, 7, 55, 64
1, 23852, Note_off_c, 2, 71, 64
1, 23854, Note_off_c, 2, 74, 64
1, 23855, Note_on_c, 7, 57, 77
1, 23856, Note_on_c, 2, 72, 87
1, 23856, Note_on_c, 2, 69, 78
1, 23856, Note_on_c, 9, 69, 59
1, 23857, Lyric_t, "y. "
1, 23857, Lyric_t, "\015"
1, 23857, Note_on_c, 3, 69, 121
1, 23857, Note_on_c, 9, 44, 70
1, 23857, Note_off_c, 9, 69, 64
1, 23858, Note_off_c, 9, 44, 64
1, 23861, Note_off_c, 2, 67, 64
1, 23872, Note_off_c, 2, 64, 64
1, 23873, Note_off_c, 2, 69, 64
1, 23874, Note_off_c, 2, 72, 64
1, 23876, Note_off_c, 7, 57, 64
1, 23879, Note_on_c, 8, 55, 56
1, 23879, Note_on_c, 8, 59, 54
1, 23879, Note_on_c, 8, 64, 53
1, 23880, Note_on_c, 2, 64, 84
1, 23880, Note_on_c, 2, 71, 100
1, 23880, Note_on_c, 2, 74, 97
1, 23880, Note_on_c, 2, 67, 84
1, 23880, Note_on_c, 7, 59, 77
1, 23881, Note_on_c, 9, 42, 78
1, 23881, Note_on_c, 9, 69, 40
1, 23882, Note_off_c, 9, 42, 64
1, 23882, Note_off_c, 9, 69, 64
1, 23885, Note_off_c, 8, 64, 64
1, 23886, Note_off_c, 8, 59, 64
1, 23887, Note_off_c, 8, 55, 64
1, 23896, Lyric_t, "\012"
1, 23897, Note_off_c, 7, 59, 64
1, 23898, Note_off_c, 2, 67, 64
1, 23902, Note_off_c, 2, 64, 64
1, 23902, Note_off_c, 2, 71, 64
1, 23902, Note_off_c, 2, 74, 64
1, 23903, Note_off_c, 3, 69, 64
1, 23904, Note_on_c, 3, 67, 111
1, 23904, Note_on_c, 8, 64, 75
1, 23904, Note_on_c, 8, 55, 78
1, 23904, Note_on_c, 9, 69, 30
1, 23905, Note_on_c, 9, 40, 124
1, 23905, Note_on_c, 8, 59, 89
1, 23905, Note_off_c, 9, 69, 64
1, 23906, Note_off_c, 9, 40, 64
1, 23914, Note_off_c, 8, 59, 64
1, 23915, Note_off_c, 8, 55, 64
1, 23916, Note_off_c, 8, 64, 64
1, 23927, Note_on_c, 9, 44, 78
1, 23927, Note_on_c, 9, 69, 30
1, 23928, Note_off_c, 9, 44, 64
1, 23928, Note_on_c, 2, 74, 100
1, 23928, Note_on_c, 2, 71, 100
1, 23928, Note_on_c, 2, 64, 90
1, 23928, Note_on_c, 2, 67, 87
1, 23928, Note_off_c, 9, 69, 64
1, 23929, Note_on_c, 7, 55, 72
1, 23942, Note_off_c, 7, 55, 64
1, 23945, Note_off_c, 2, 71, 64
1, 23949, Note_off_c, 2, 74, 64
1, 23951, Note_on_c, 9, 69, 63
1, 23952, Note_on_c, 9, 42, 72
1, 23952, Note_on_c, 2, 72, 75
1, 23952, Note_on_c, 2, 69, 75
1, 23952, Note_off_c, 9, 69, 64
1, 23953, Note_off_c, 9, 42, 64
1, 23962, Note_off_c, 2, 67, 64
1, 23965, Note_off_c, 2, 64, 64
1, 23966, Note_off_c, 2, 69, 64
1, 23970, Note_off_c, 2, 72, 64
1, 23974, Lyric_t, "(Girl) "
1, 23976, Note_on_c, 1, 36, 105
1, 23976, Note_on_c, 2, 64, 90
1, 23976, Note_on_c, 2, 67, 82
1, 23976, Note_on_c, 2, 71, 116
1, 23976, Note_on_c, 2, 74, 97
1, 23976, Note_on_c, 9, 69, 38
1, 23977, Note_on_c, 9, 36, 114
1, 23977, Note_on_c, 7, 64, 77
1, 23977, Note_off_c, 9, 69, 64
1, 23978, Note_off_c, 9, 36, 64
1, 23993, Note_off_c, 7, 64, 64
1, 23994, Note_off_c, 2, 67, 64
1, 23996, Note_off_c, 1, 36, 64
1, 23998, Note_off_c, 2, 74, 64
1, 23999, Note_on_c, 9, 42, 85
1, 24000, Note_off_c, 9, 42, 64
1, 24000, Note_off_c, 2, 71, 64
1, 24000, Note_off_c, 2, 64, 64
1, 24000, Note_on_c, 9, 69, 22
1, 24001, Note_off_c, 9, 69, 64
1, 24013, Note_off_c, 3, 67, 64
1, 24024, Note_off_c, 4, 59, 64
1, 24024, Note_on_c, 2, 71, 100
1, 24024, Note_on_c, 2, 74, 97
1, 24024, Note_on_c, 2, 64, 76
1, 24024, Note_on_c, 2, 67, 82
1, 24024, Note_on_c, 7, 55, 74
1, 24025, Note_on_c, 1, 36, 95
1, 24025, Note_on_c, 9, 69, 34
1, 24026, Note_off_c, 9, 69, 64
1, 24038, Note_off_c, 1, 36, 64
1, 24040, Note_off_c, 7, 55, 64
1, 24042, Note_off_c, 2, 71, 64
1, 24045, Note_off_c, 2, 74, 64
1, 24047, Note_on_c, 9, 36, 109
1, 24047, Note_on_c, 1, 36, 89
1, 24048, Note_off_c, 9, 36, 64
1, 24048, Note_on_c, 9, 42, 72
1, 24048, Note_on_c, 2, 72, 82
1, 24048, Note_on_c, 2, 69, 75
1, 24049, Note_off_c, 9, 42, 64
1, 24049, Note_on_c, 9, 69, 53
1, 24050, Note_off_c, 9, 69, 64
1, 24057, Note_off_c, 2, 67, 64
1, 24068, Note_off_c, 2, 64, 64
1, 24068, Note_off_c, 2, 72, 64
1, 24068, Note_off_c, 2, 69, 64
1, 24070, Lyric_t, "\226 I "
1, 24070, Note_on_c, 3, 62, 102
1, 24071, Note_on_c, 8, 55, 65
1, 24071, Note_on_c, 8, 64, 58
1, 24072, Note_on_c, 4, 52, 88
1, 24072, Note_on_c, 7, 55, 72
1, 24073, Note_on_c, 8, 59, 50
1, 24073, Note_on_c, 9, 69, 36
1, 24074, Note_off_c, 9, 69, 64
1, 24077, Note_off_c, 8, 59, 64
1, 24077, Note_off_c, 8, 64, 64
1, 24078, Note_off_c, 1, 36, 64
1, 24079, Note_off_c, 8, 55, 64
1, 24083, Note_off_c, 7, 55, 64
1, 24085, Note_off_c, 3, 62, 64
1, 24095, Note_off_c, 4, 52, 64
1, 24095, Note_on_c, 8, 55, 68
1, 24095, Note_on_c, 8, 64, 65
1, 24095, Note_on_c, 8, 59, 71
1, 24096, Note_on_c, 4, 52, 95
1, 24096, Note_on_c, 2, 71, 116
1, 24096, Note_on_c, 2, 67, 100
1, 24096, Note_on_c, 2, 74, 111
1, 24096, Note_on_c, 2, 64, 82
1, 24097, Note_on_c, 9, 40, 127
1, 24097, Note_on_c, 9, 42, 85
1, 24097, Note_on_c, 7, 59, 80
1, 24097, Note_on_c, 9, 69, 31
1, 24098, Lyric_t, "don't "
1, 24098, Note_on_c, 3, 62, 102
1, 24098, Note_off_c, 9, 42, 64
1, 24098, Note_off_c, 9, 40, 64
1, 24098, Note_off_c, 9, 69, 64
1, 24103, Note_off_c, 8, 59, 64
1, 24104, Note_off_c, 8, 64, 64
1, 24105, Note_off_c, 8, 55, 64
1, 24106, Note_off_c, 2, 64, 64
1, 24110, Note_off_c, 7, 59, 64
1, 24116, Note_off_c, 3, 62, 64
1, 24119, Note_on_c, 1, 31, 87
1, 24120, Lyric_t, "wan"
1, 24120, Note_on_c, 3, 64, 98
1, 24120, Note_off_c, 4, 52, 64
1, 24120, Note_on_c, 4, 55, 91
1, 24120, Note_on_c, 9, 44, 64
1, 24120, Note_on_c, 7, 59, 74
1, 24121, Note_off_c, 9, 44, 64
1, 24121, Note_on_c, 9, 69, 23
1, 24122, Note_off_c, 9, 69, 64
1, 24138, Note_off_c, 2, 71, 64
1, 24139, Note_off_c, 7, 59, 64
1, 24141, Note_off_c, 1, 31, 64
1, 24142, Note_off_c, 3, 64, 64
1, 24143, Note_on_c, 1, 36, 92
1, 24143, Note_on_c, 8, 55, 78
1, 24143, Note_on_c, 9, 69, 51
1, 24144, Note_off_c, 4, 55, 64
1, 24144, Note_on_c, 4, 59, 95
1, 24144, Note_on_c, 2, 72, 93
1, 24144, Note_on_c, 2, 64, 93
1, 24144, Note_on_c, 2, 69, 100
1, 24144, Note_on_c, 8, 64, 78
1, 24144, Note_on_c, 8, 59, 78
1, 24144, Note_off_c, 9, 69, 64
1, 24145, Lyric_t, "na "
1, 24145, Note_on_c, 3, 67, 98
1, 24145, Note_on_c, 9, 46, 78
1, 24145, Note_on_c, 7, 55, 72
1, 24146, Note_off_c, 9, 46, 64
1, 24146, Note_off_c, 2, 74, 64
1, 24152, Note_off_c, 2, 67, 64
1, 24154, Note_off_c, 8, 59, 64
1, 24154, Note_off_c, 8, 64, 64
1, 24154, Note_off_c, 8, 55, 64
1, 24158, Note_off_c, 2, 64, 64
1, 24160, Note_off_c, 7, 55, 64
1, 24164, Note_off_c, 1, 36, 64
1, 24165, Note_off_c, 3, 67, 64
1, 24167, Note_on_c, 1, 35, 83
1, 24168, Note_off_c, 4, 59, 64
1, 24168, Note_on_c, 4, 60, 95
1, 24168, Note_off_c, 2, 72, 64
1, 24168, Note_on_c, 9, 69, 34
1, 24169, Note_off_c, 2, 69, 64
1, 24169, Note_off_c, 9, 69, 64
1, 24170, Lyric_t, "hear "
1, 24170, Note_on_c, 3, 69, 105
1, 24191, Note_off_c, 1, 35, 64
1, 24192, Note_on_c, 1, 33, 98
1, 24192, Note_on_c, 2, 71, 106
1, 24192, Note_on_c, 2, 64, 100
1, 24192, Note_on_c, 2, 67, 100
1, 24192, Note_on_c, 7, 52, 83
1, 24192, Note_off_c, 11, 62, 64
1, 24192, Note_off_c, 11, 71, 64
1, 24192, Note_on_c, 11, 72, 56
1, 24192, Note_on_c, 11, 69, 56
1, 24193, Note_on_c, 9, 36, 114
1, 24193, Note_on_c, 9, 42, 85
1, 24194, Note_off_c, 9, 42, 64
1, 24194, Note_off_c, 9, 36, 64
1, 24206, Note_off_c, 7, 52, 64
1, 24212, Note_off_c, 2, 71, 64
1, 24214, Note_off_c, 2, 67, 64
1, 24215, Note_on_c, 9, 69, 22
1, 24216, Note_on_c, 2, 72, 84
1, 24216, Note_on_c, 2, 69, 76
1, 24216, Note_off_c, 9, 69, 64
1, 24217, Note_on_c, 7, 52, 72
1, 24232, Note_off_c, 7, 52, 64
1, 24234, Note_off_c, 2, 69, 64
1, 24236, Note_off_c, 2, 72, 64
1, 24239, Note_on_c, 9, 69, 51
1, 24240, Note_on_c, 9, 44, 68
1, 24240, Note_on_c, 2, 67, 84
1, 24240, Note_on_c, 2, 71, 106
1, 24240, Note_off_c, 9, 69, 64
1, 24241, Note_off_c, 9, 44, 64
1, 24241, Note_on_c, 7, 57, 87
1, 24247, Note_off_c, 1, 33, 64
1, 24257, Note_off_c, 2, 71, 64
1, 24258, Note_off_c, 3, 69, 64
1, 24258, Note_off_c, 2, 64, 64
1, 24258, Note_off_c, 7, 57, 64
1, 24260, Note_off_c, 2, 67, 64
1, 24262, Lyric_t, "your "
1, 24262, Note_on_c, 3, 64, 111
1, 24263, Note_on_c, 9, 69, 48
1, 24264, Note_off_c, 4, 60, 64
1, 24264, Note_on_c, 4, 57, 98
1, 24264, Note_on_c, 2, 72, 97
1, 24264, Note_on_c, 2, 69, 97
1, 24264, Note_on_c, 2, 64, 90
1, 24264, Note_on_c, 8, 57, 71
1, 24264, Note_off_c, 9, 69, 64
1, 24265, Note_on_c, 9, 42, 81
1, 24265, Note_on_c, 7, 60, 77
1, 24265, Note_on_c, 8, 60, 60
1, 24265, Note_on_c, 8, 64, 54
1, 24266, Note_off_c, 9, 42, 64
1, 24270, Note_off_c, 8, 60, 64
1, 24271, Note_off_c, 8, 64, 64
1, 24273, Note_off_c, 8, 57, 64
1, 24282, Note_off_c, 7, 60, 64
1, 24286, Note_off_c, 2, 64, 64
1, 24286, Note_off_c, 2, 72, 64
1, 24288, Note_on_c, 9, 40, 120
1, 24288, Note_off_c, 2, 69, 64
1, 24289, Note_off_c, 9, 40, 64
1, 24289, Note_on_c, 8, 57, 84
1, 24289, Note_on_c, 8, 64, 62
1, 24290, Note_on_c, 8, 60, 60
1, 24290, Note_on_c, 9, 69, 33
1, 24291, Note_off_c, 9, 69, 64
1, 24298, Note_off_c, 8, 60, 64
1, 24298, Note_off_c, 8, 57, 64
1, 24300, Note_off_c, 8, 64, 64
1, 24309, Note_off_c, 3, 64, 64
1, 24312, Note_on_c, 3, 62, 92
1, 24312, Note_on_c, 2, 69, 106
1, 24312, Note_on_c, 2, 64, 93
1, 24312, Note_on_c, 2, 72, 106
1, 24313, Note_on_c, 9, 44, 78
1, 24313, Note_on_c, 7, 57, 83
1, 24313, Note_on_c, 9, 69, 26
1, 24314, Note_off_c, 9, 44, 64
1, 24314, Note_off_c, 9, 69, 64
1, 24326, Note_off_c, 7, 57, 64
1, 24328, Note_off_c, 2, 69, 64
1, 24332, Note_off_c, 3, 62, 64
1, 24332, Note_off_c, 2, 72, 64
1, 24334, Note_on_c, 2, 67, 75
1, 24336, Note_on_c, 2, 71, 84
1, 24337, Note_on_c, 3, 60, 98
1, 24337, Note_on_c, 9, 42, 81
1, 24337, Note_on_c, 9, 69, 61
1, 24338, Note_off_c, 9, 42, 64
1, 24338, Note_off_c, 9, 69, 64
1, 24349, Note_off_c, 2, 67, 64
1, 24350, Note_off_c, 2, 64, 64
1, 24354, Note_off_c, 2, 71, 64
1, 24358, Note_on_c, 2, 64, 65
1, 24359, Note_on_c, 1, 28, 85
1, 24360, Note_on_c, 2, 72, 97
1, 24360, Note_on_c, 2, 69, 100
1, 24360, Note_on_c, 9, 69, 40
1, 24361, Note_on_c, 9, 36, 114
1, 24361, Note_on_c, 7, 64, 77
1, 24361, Note_off_c, 9, 69, 64
1, 24362, Note_off_c, 9, 36, 64
1, 24381, Note_off_c, 2, 72, 64
1, 24381, Note_off_c, 7, 64, 64
1, 24382, Note_off_c, 1, 28, 64
1, 24382, Note_off_c, 2, 69, 64
1, 24383, Note_on_c, 9, 42, 78
1, 24383, Note_on_c, 1, 33, 98
1, 24384, Note_off_c, 9, 42, 64
1, 24384, Note_off_c, 2, 64, 64
1, 24386, Note_on_c, 9, 69, 33
1, 24387, Note_off_c, 9, 69, 64
1, 24406, Note_on_c, 2, 72, 100
1, 24406, Note_on_c, 2, 69, 93
1, 24408, Note_on_c, 2, 64, 97
1, 24408, Note_on_c, 7, 57, 87
1, 24409, Note_on_c, 9, 69, 30
1, 24410, Note_off_c, 9, 69, 64
1, 24423, Note_off_c, 2, 69, 64
1, 24423, Note_off_c, 7, 57, 64
1, 24427, Note_off_c, 1, 33, 64
1, 24428, Note_off_c, 2, 72, 64
1, 24431, Note_on_c, 9, 42, 81
1, 24432, Note_off_c, 9, 42, 64
1, 24432, Note_on_c, 9, 36, 109
1, 24432, Note_on_c, 2, 71, 84
1, 24432, Note_on_c, 2, 67, 73
1, 24433, Note_off_c, 9, 36, 64
1, 24434, Note_on_c, 9, 69, 52
1, 24435, Note_off_c, 9, 69, 64
1, 24442, Note_off_c, 2, 67, 64
1, 24445, Note_off_c, 2, 71, 64
1, 24455, Note_on_c, 7, 57, 80
1, 24455, Note_on_c, 8, 57, 71
1, 24456, Note_off_c, 2, 64, 64
1, 24456, Note_on_c, 8, 60, 50
1, 24456, Note_on_c, 8, 64, 53
1, 24457, Note_on_c, 9, 69, 36
1, 24458, Note_off_c, 9, 69, 64
1, 24462, Note_off_c, 8, 64, 64
1, 24462, Note_off_c, 8, 60, 64
1, 24462, Note_off_c, 8, 57, 64
1, 24472, Note_off_c, 7, 57, 64
1, 24474, Note_off_c, 4, 57, 64
1, 24478, Note_on_c, 2, 64, 100
1, 24478, Note_on_c, 2, 72, 106
1, 24478, Note_on_c, 2, 69, 116
1, 24479, Note_on_c, 9, 40, 124
1, 24479, Note_on_c, 8, 57, 78
1, 24480, Note_off_c, 9, 40, 64
1, 24480, Note_on_c, 9, 42, 85
1, 24481, Note_off_c, 9, 42, 64
1, 24481, Note_on_c, 7, 60, 74
1, 24481, Note_on_c, 8, 64, 58
1, 24481, Note_on_c, 8, 60, 62
1, 24481, Note_on_c, 9, 69, 40
1, 24482, Note_off_c, 9, 69, 64
1, 24487, Note_off_c, 3, 60, 64
1, 24489, Note_off_c, 8, 57, 64
1, 24490, Note_off_c, 7, 60, 64
1, 24490, Note_off_c, 8, 64, 64
1, 24491, Note_off_c, 8, 60, 64
1, 24503, Note_on_c, 1, 31, 95
1, 24504, Note_on_c, 7, 60, 62
1, 24505, Note_on_c, 9, 44, 78
1, 24505, Note_on_c, 9, 69, 23
1, 24506, Note_off_c, 9, 44, 64
1, 24506, Note_off_c, 2, 64, 64
1, 24506, Note_off_c, 9, 69, 64
1, 24520, Note_off_c, 2, 69, 64
1, 24523, Note_off_c, 7, 60, 64
1, 24525, Note_off_c, 1, 31, 64
1, 24525, Note_off_c, 2, 72, 64
1, 24527, Note_on_c, 1, 33, 81
1, 24527, Note_on_c, 8, 57, 78
1, 24528, Lyric_t, "good"
1, 24528, Note_on_c, 3, 62, 111
1, 24528, Note_on_c, 2, 71, 93
1, 24528, Note_on_c, 2, 67, 90
1, 24528, Note_on_c, 2, 64, 100
1, 24528, Note_on_c, 8, 60, 62
1, 24528, Note_on_c, 8, 64, 62
1, 24528, Note_on_c, 9, 69, 58
1, 24529, Note_on_c, 9, 46, 72
1, 24529, Note_on_c, 7, 57, 80
1, 24529, Note_off_c, 9, 69, 64
1, 24530, Note_off_c, 9, 46, 64
1, 24537, Note_off_c, 8, 64, 64
1, 24538, Note_off_c, 8, 57, 64
1, 24541, Note_off_c, 8, 60, 64
1, 24543, Note_off_c, 1, 33, 64
1, 24544, Note_off_c, 2, 64, 64
1, 24548, Note_off_c, 2, 71, 64
1, 24551, Note_on_c, 1, 33, 92
1, 24554, Note_on_c, 9, 69, 48
1, 24555, Note_off_c, 9, 69, 64
1, 24558, Note_off_c, 3, 62, 64
1, 24558, Note_off_c, 2, 67, 64
1, 24570, Note_off_c, 7, 57, 64
1, 24574, Lyric_t, "bye. "
1, 24574, Lyric_t, "\015"
1, 24574, Note_on_c, 3, 64, 111
1, 24575, Note_on_c, 1, 36, 102
1, 24575, Note_off_c, 11, 67, 64
1, 24576, Note_on_c, 9, 42, 81
1, 24576, Note_off_c, 1, 33, 64
1, 24576, Note_on_c, 2, 62, 93
1, 24576, Note_on_c, 2, 67, 106
1, 24576, Note_on_c, 2, 64, 93
1, 24576, Note_on_c, 2, 71, 111
1, 24576, Note_off_c, 11, 69, 64
1, 24576, Note_off_c, 11, 72, 64
1, 24576, Note_on_c, 11, 62, 57
1, 24576, Note_on_c, 11, 67, 57
1, 24576, Note_on_c, 11, 71, 57
1, 24577, Note_off_c, 9, 42, 64
1, 24577, Note_on_c, 9, 36, 114
1, 24577, Note_on_c, 7, 55, 77
1, 24578, Note_off_c, 9, 36, 64
1, 24578, Note_on_c, 9, 69, 23
1, 24579, Note_off_c, 9, 69, 64
1, 24585, Note_off_c, 2, 67, 64
1, 24586, Note_off_c, 2, 71, 64
1, 24588, Note_off_c, 2, 64, 64
1, 24588, Note_off_c, 7, 55, 64
1, 24590, Note_off_c, 2, 62, 64
1, 24600, Note_on_c, 2, 64, 80
1, 24600, Note_on_c, 2, 62, 82
1, 24600, Note_on_c, 2, 67, 82
1, 24600, Note_on_c, 2, 71, 87
1, 24601, Note_on_c, 7, 55, 62
1, 24601, Note_on_c, 9, 69, 24
1, 24602, Note_off_c, 9, 69, 64
1, 24606, Note_off_c, 3, 64, 64
1, 24606, Note_on_c, 3, 67, 95
1, 24615, Note_off_c, 7, 55, 64
1, 24620, Note_off_c, 2, 71, 64
1, 24621, Note_off_c, 2, 67, 64
1, 24622, Note_off_c, 2, 62, 64
1, 24622, Note_off_c, 2, 64, 64
1, 24624, Note_off_c, 1, 36, 64
1, 24624, Note_on_c, 2, 69, 82
1, 24624, Note_on_c, 2, 60, 73
1, 24624, Note_on_c, 7, 57, 83
1, 24625, Note_on_c, 9, 44, 70
1, 24625, Note_on_c, 9, 69, 62
1, 24626, Note_off_c, 9, 44, 64
1, 24626, Note_off_c, 9, 69, 64
1, 24641, Note_off_c, 2, 69, 64
1, 24644, Note_off_c, 2, 60, 64
1, 24646, Note_off_c, 7, 57, 64
1, 24647, Note_off_c, 3, 67, 64
1, 24647, Note_on_c, 8, 55, 68
1, 24647, Note_on_c, 8, 64, 65
1, 24647, Note_on_c, 8, 59, 62
1, 24648, Note_on_c, 3, 64, 102
1, 24648, Note_on_c, 2, 71, 93
1, 24648, Note_on_c, 2, 67, 90
1, 24648, Note_on_c, 2, 64, 73
1, 24648, Note_on_c, 2, 62, 90
1, 24649, Note_on_c, 9, 42, 70
1, 24649, Note_on_c, 7, 59, 77
1, 24649, Note_on_c, 9, 69, 38
1, 24650, Note_off_c, 9, 42, 64
1, 24650, Note_off_c, 9, 69, 64
1, 24652, Note_off_c, 8, 59, 64
1, 24653, Note_off_c, 8, 64, 64
1, 24655, Note_off_c, 8, 55, 64
1, 24662, Note_off_c, 2, 64, 64
1, 24664, Note_off_c, 2, 62, 64
1, 24666, Note_off_c, 2, 67, 64
1, 24666, Note_off_c, 7, 59, 64
1, 24669, Note_off_c, 2, 71, 64
1, 24671, Note_on_c, 9, 40, 120
1, 24672, Note_off_c, 9, 40, 64
1, 24672, Note_on_c, 8, 59, 84
1, 24672, Note_on_c, 8, 55, 84
1, 24673, Note_on_c, 8, 64, 71
1, 24679, Note_off_c, 8, 64, 64
1, 24681, Note_off_c, 8, 59, 64
1, 24683, Note_off_c, 8, 55, 64
1, 24695, Note_on_c, 7, 55, 70
1, 24696, Note_on_c, 2, 67, 97
1, 24696, Note_on_c, 2, 62, 82
1, 24696, Note_on_c, 2, 71, 106
1, 24696, Note_on_c, 2, 64, 80
1, 24697, Note_on_c, 9, 44, 78
1, 24697, Note_on_c, 9, 69, 40
1, 24698, Note_off_c, 9, 44, 64
1, 24698, Note_off_c, 9, 69, 64
1, 24709, Note_off_c, 7, 55, 64
1, 24714, Note_off_c, 2, 71, 64
1, 24714, Note_off_c, 2, 62, 64
1, 24716, Note_off_c, 2, 67, 64
1, 24717, Note_off_c, 2, 64, 64
1, 24719, Note_on_c, 1, 36, 98
1, 24720, Note_on_c, 9, 42, 78
1, 24720, Note_on_c, 2, 60, 69
1, 24720, Note_on_c, 2, 69, 82
1, 24721, Note_off_c, 9, 42, 64
1, 24721, Note_on_c, 9, 69, 63
1, 24722, Note_off_c, 9, 69, 64
1, 24732, Note_off_c, 2, 69, 64
1, 24738, Note_off_c, 1, 36, 64
1, 24738, Note_off_c, 2, 60, 64
1, 24743, Note_on_c, 9, 36, 109
1, 24743, Note_on_c, 1, 36, 98
1, 24743, Note_on_c, 7, 64, 72
1, 24744, Note_off_c, 9, 36, 64
1, 24744, Note_on_c, 2, 71, 93
1, 24744, Note_on_c, 2, 67, 93
1, 24744, Note_on_c, 2, 64, 69
1, 24744, Note_on_c, 2, 62, 84
1, 24745, Note_on_c, 9, 69, 48
1, 24746, Note_off_c, 9, 69, 64
1, 24761, Note_off_c, 2, 62, 64
1, 24762, Note_off_c, 2, 64, 64
1, 24762, Note_off_c, 2, 71, 64
1, 24763, Note_off_c, 7, 64, 64
1, 24764, Note_off_c, 2, 67, 64
1, 24766, Lyric_t, "(Boy) "
1, 24768, Note_off_c, 1, 36, 64
1, 24768, Note_on_c, 9, 69, 20
1, 24769, Note_on_c, 9, 42, 85
1, 24769, Note_off_c, 9, 69, 64
1, 24770, Note_off_c, 9, 42, 64
1, 24790, Note_on_c, 2, 71, 97
1, 24790, Note_on_c, 2, 67, 90
1, 24791, Note_on_c, 9, 69, 36
1, 24792, Note_off_c, 3, 64, 64
1, 24792, Note_on_c, 2, 62, 87
1, 24792, Note_on_c, 2, 64, 82
1, 24792, Note_off_c, 9, 69, 64
1, 24793, Note_on_c, 7, 55, 68
1, 24805, Note_off_c, 2, 67, 64
1, 24806, Note_off_c, 2, 62, 64
1, 24809, Note_off_c, 2, 71, 64
1, 24811, Note_off_c, 7, 55, 64
1, 24812, Note_off_c, 2, 64, 64
1, 24814, Note_on_c, 2, 60, 70
1, 24815, Note_on_c, 9, 42, 72
1, 24815, Note_on_c, 1, 36, 111
1, 24815, Note_on_c, 9, 69, 58
1, 24816, Note_off_c, 9, 42, 64
1, 24816, Note_on_c, 2, 69, 70
1, 24816, Note_off_c, 9, 69, 64
1, 24817, Note_on_c, 9, 36, 114
1, 24818, Note_off_c, 9, 36, 64
1, 24834, Note_off_c, 2, 69, 64
1, 24838, Note_on_c, 8, 55, 60
1, 24838, Note_on_c, 8, 59, 62
1, 24838, Note_on_c, 8, 64, 56
1, 24839, Note_on_c, 7, 55, 66
1, 24839, Note_on_c, 9, 69, 36
1, 24840, Note_off_c, 9, 69, 64
1, 24842, Note_off_c, 2, 60, 64
1, 24844, Note_off_c, 8, 64, 64
1, 24844, Note_off_c, 8, 59, 64
1, 24846, Note_off_c, 8, 55, 64
1, 24849, Note_off_c, 1, 36, 64
1, 24849, Note_off_c, 7, 55, 64
1, 24862, Lyric_t, "\226 Don't "
1, 24862, Note_on_c, 3, 62, 116
1, 24862, Note_on_c, 8, 59, 75
1, 24862, Note_on_c, 8, 55, 75
1, 24862, Note_on_c, 8, 64, 62
1, 24864, Note_on_c, 2, 62, 97
1, 24864, Note_on_c, 2, 71, 106
1, 24864, Note_on_c, 2, 67, 100
1, 24864, Note_on_c, 2, 64, 93
1, 24865, Note_on_c, 9, 40, 120
1, 24865, Note_on_c, 9, 42, 85
1, 24865, Note_on_c, 7, 59, 83
1, 24865, Note_on_c, 9, 69, 22
1, 24866, Note_off_c, 9, 42, 64
1, 24866, Note_off_c, 9, 40, 64
1, 24866, Note_off_c, 9, 69, 64
1, 24869, Note_off_c, 8, 64, 64
1, 24871, Note_off_c, 8, 59, 64
1, 24872, Note_off_c, 8, 55, 64
1, 24874, Note_off_c, 7, 59, 64
1, 24883, Note_off_c, 3, 62, 64
1, 24886, Lyric_t, "wan"
1, 24886, Note_on_c, 3, 64, 98
1, 24887, Note_on_c, 9, 44, 70
1, 24888, Note_off_c, 9, 44, 64
1, 24889, Note_on_c, 7, 59, 68
1, 24889, Note_on_c, 9, 69, 25
1, 24890, Note_off_c, 9, 69, 64
1, 24894, Note_off_c, 2, 64, 64
1, 24904, Note_off_c, 3, 64, 64
1, 24904, Note_off_c, 2, 62, 64
1, 24906, Note_off_c, 2, 67, 64
1, 24906, Note_off_c, 7, 59, 64
1, 24910, Note_off_c, 2, 71, 64
1, 24911, Lyric_t, "na "
1, 24911, Note_on_c, 3, 67, 102
1, 24911, Note_on_c, 9, 46, 78
1, 24911, Note_on_c, 8, 55, 84
1, 24911, Note_on_c, 9, 69, 67
1, 24912, Note_off_c, 9, 46, 64
1, 24912, Note_on_c, 2, 69, 93
1, 24912, Note_on_c, 2, 60, 84
1, 24912, Note_on_c, 8, 64, 78
1, 24912, Note_on_c, 8, 59, 84
1, 24912, Note_off_c, 9, 69, 64
1, 24913, Note_on_c, 7, 55, 70
1, 24922, Note_off_c, 8, 59, 64
1, 24922, Note_off_c, 8, 64, 64
1, 24922, Note_off_c, 8, 55, 64
1, 24928, Note_off_c, 3, 67, 64
1, 24935, Lyric_t, "hear "
1, 24935, Note_on_c, 3, 69, 116
1, 24935, Note_on_c, 1, 31, 92
1, 24935, Note_on_c, 9, 69, 38
1, 24936, Note_off_c, 9, 69, 64
1, 24940, Note_off_c, 2, 69, 64
1, 24942, Note_off_c, 7, 55, 64
1, 24946, Note_off_c, 2, 60, 64
1, 24955, Note_off_c, 11, 64, 64
1, 24957, Note_off_c, 11, 67, 64
1, 24958, Note_off_c, 1, 31, 64
1, 24958, Note_on_c, 11, 67, 71
1, 24958, Note_on_c, 11, 64, 76
1, 24958, Note_on_c, 11, 69, 74
1, 24959, Note_off_c, 11, 62, 64
1, 24959, Note_off_c, 11, 71, 64
1, 24959, Note_on_c, 11, 60, 60
1, 24960, Note_on_c, 9, 36, 120
1, 24960, Note_on_c, 9, 42, 81
1, 24960, Note_on_c, 2, 71, 106
1, 24960, Note_on_c, 7, 57, 90
1, 24961, Note_off_c, 9, 42, 64
1, 24961, Note_off_c, 9, 36, 64
1, 24961, Note_on_c, 1, 33, 102
1, 24961, Note_on_c, 2, 64, 100
1, 24961, Note_on_c, 2, 67, 106
1, 24961, Note_on_c, 9, 69, 12
1, 24962, Note_off_c, 9, 69, 64
1, 24980, Note_off_c, 2, 71, 64
1, 24983, Note_off_c, 7, 57, 64
1, 24984, Note_on_c, 7, 57, 70
1, 24985, Note_off_c, 2, 67, 64
1, 24985, Note_on_c, 2, 72, 87
1, 24985, Note_on_c, 2, 69, 82
1, 24985, Note_on_c, 9, 69, 24
1, 24986, Note_off_c, 9, 69, 64
1, 25007, Note_on_c, 9, 44, 72
1, 25007, Note_off_c, 2, 69, 64
1, 25008, Note_off_c, 9, 44, 64
1, 25008, Note_off_c, 7, 57, 64
1, 25008, Note_on_c, 7, 59, 80
1, 25009, Note_on_c, 2, 67, 87
1, 25009, Note_on_c, 2, 71, 106
1, 25009, Note_on_c, 9, 69, 62
1, 25010, Note_off_c, 1, 33, 64
1, 25010, Note_off_c, 2, 72, 64
1, 25010, Note_off_c, 9, 69, 64
1, 25028, Note_off_c, 2, 71, 64
1, 25030, Note_off_c, 2, 67, 64
1, 25032, Note_off_c, 7, 59, 64
1, 25032, Note_on_c, 7, 60, 83
1, 25032, Note_on_c, 8, 57, 84
1, 25032, Note_on_c, 8, 64, 71
1, 25032, Note_on_c, 8, 60, 65
1, 25033, Note_on_c, 9, 42, 81
1, 25033, Note_on_c, 2, 72, 93
1, 25033, Note_on_c, 2, 69, 106
1, 25033, Note_on_c, 9, 69, 38
1, 25034, Lyric_t, "your "
1, 25034, Note_off_c, 3, 69, 64
1, 25034, Note_on_c, 3, 64, 105
1, 25034, Note_off_c, 9, 42, 64
1, 25034, Note_off_c, 9, 69, 64
1, 25054, Note_off_c, 2, 69, 64
1, 25055, Note_off_c, 2, 64, 64
1, 25055, Note_off_c, 8, 60, 64
1, 25055, Note_off_c, 8, 64, 64
1, 25055, Note_off_c, 8, 57, 64
1, 25055, Note_on_c, 9, 69, 19
1, 25056, Note_off_c, 2, 72, 64
1, 25056, Note_off_c, 7, 60, 64
1, 25056, Note_on_c, 8, 64, 68
1, 25056, Note_on_c, 8, 57, 75
1, 25056, Note_on_c, 8, 60, 68
1, 25056, Note_off_c, 9, 69, 64
1, 25057, Note_on_c, 9, 40, 124
1, 25058, Note_off_c, 9, 40, 64
1, 25079, Note_off_c, 3, 64, 64
1, 25079, Note_on_c, 9, 69, 30
1, 25080, Note_on_c, 3, 62, 102
1, 25080, Note_on_c, 7, 57, 74
1, 25080, Note_off_c, 8, 60, 64
1, 25080, Note_off_c, 8, 57, 64
1, 25080, Note_off_c, 8, 64, 64
1, 25080, Note_off_c, 9, 69, 64
1, 25081, Note_on_c, 9, 44, 81
1, 25081, Note_on_c, 2, 69, 106
1, 25081, Note_on_c, 2, 72, 100
1, 25081, Note_on_c, 2, 64, 93
1, 25082, Note_off_c, 9, 44, 64
1, 25098, Note_off_c, 2, 69, 64
1, 25101, Note_off_c, 2, 72, 64
1, 25103, Note_off_c, 3, 62, 64
1, 25103, Note_on_c, 2, 67, 73
1, 25103, Note_on_c, 9, 69, 62
1, 25104, Note_on_c, 2, 71, 90
1, 25104, Note_off_c, 7, 57, 64
1, 25104, Note_off_c, 9, 69, 64
1, 25105, Note_on_c, 9, 42, 81
1, 25106, Note_on_c, 3, 60, 102
1, 25106, Note_off_c, 9, 42, 64
1, 25122, Note_off_c, 2, 71, 64
1, 25122, Note_off_c, 2, 67, 64
1, 25126, Note_on_c, 9, 69, 33
1, 25127, Note_on_c, 9, 36, 109
1, 25127, Note_off_c, 9, 69, 64
1, 25128, Note_off_c, 9, 36, 64
1, 25128, Note_on_c, 1, 33, 105
1, 25128, Note_on_c, 7, 64, 80
1, 25129, Note_on_c, 2, 69, 106
1, 25129, Note_on_c, 2, 72, 100
1, 25150, Note_off_c, 2, 69, 64
1, 25151, Note_on_c, 9, 42, 85
1, 25151, Note_off_c, 2, 72, 64
1, 25151, Note_on_c, 9, 69, 34
1, 25152, Note_off_c, 9, 42, 64
1, 25152, Note_off_c, 7, 64, 64
1, 25152, Note_off_c, 9, 69, 64
1, 25154, Note_off_c, 2, 64, 64
1, 25157, Note_off_c, 1, 33, 64
1, 25175, Note_on_c, 1, 33, 92
1, 25175, Note_on_c, 2, 69, 97
1, 25175, Note_on_c, 2, 72, 97
1, 25176, Note_on_c, 2, 64, 90
1, 25176, Note_on_c, 7, 57, 87
1, 25176, Note_on_c, 9, 69, 33
1, 25177, Note_off_c, 9, 69, 64
1, 25186, Note_off_c, 1, 33, 64
1, 25194, Note_off_c, 2, 69, 64
1, 25197, Note_off_c, 2, 72, 64
1, 25199, Note_on_c, 9, 36, 114
1, 25200, Note_off_c, 9, 36, 64
1, 25200, Note_on_c, 2, 67, 76
1, 25200, Note_off_c, 7, 57, 64
1, 25200, Note_on_c, 9, 69, 60
1, 25201, Note_on_c, 9, 42, 81
1, 25201, Note_on_c, 1, 33, 98
1, 25201, Note_on_c, 2, 71, 90
1, 25201, Note_off_c, 9, 69, 64
1, 25202, Note_off_c, 9, 42, 64
1, 25218, Note_off_c, 2, 71, 64
1, 25218, Note_off_c, 2, 67, 64
1, 25224, Note_on_c, 7, 57, 87
1, 25224, Note_on_c, 8, 57, 84
1, 25224, Note_on_c, 8, 64, 71
1, 25224, Note_on_c, 8, 60, 65
1, 25224, Note_on_c, 9, 69, 45
1, 25225, Note_off_c, 9, 69, 64
1, 25229, Note_off_c, 3, 60, 64
1, 25236, Note_off_c, 1, 33, 64
1, 25247, Note_off_c, 8, 60, 64
1, 25247, Note_off_c, 8, 64, 64
1, 25247, Note_off_c, 8, 57, 64
1, 25248, Note_on_c, 9, 42, 81
1, 25248, Note_off_c, 7, 57, 64
1, 25248, Note_on_c, 7, 60, 77
1, 25248, Note_on_c, 8, 64, 65
1, 25248, Note_on_c, 8, 60, 62
1, 25248, Note_on_c, 8, 57, 84
1, 25249, Note_off_c, 9, 42, 64
1, 25249, Note_on_c, 9, 40, 124
1, 25249, Note_on_c, 2, 69, 111
1, 25249, Note_on_c, 2, 72, 111
1, 25249, Note_on_c, 9, 69, 42
1, 25250, Note_off_c, 9, 40, 64
1, 25250, Note_off_c, 9, 69, 64
1, 25270, Note_off_c, 2, 64, 64
1, 25271, Note_on_c, 9, 44, 70
1, 25271, Note_off_c, 7, 60, 64
1, 25272, Note_off_c, 9, 44, 64
1, 25272, Note_on_c, 1, 33, 98
1, 25272, Note_on_c, 7, 60, 80
1, 25272, Note_off_c, 8, 57, 64
1, 25272, Note_off_c, 8, 60, 64
1, 25272, Note_off_c, 8, 64, 64
1, 25273, Note_on_c, 9, 69, 30
1, 25274, Note_off_c, 9, 69, 64
1, 25295, Note_off_c, 1, 33, 64
1, 25295, Note_off_c, 2, 69, 64
1, 25296, Note_on_c, 9, 46, 78
1, 25296, Note_off_c, 7, 60, 64
1, 25296, Note_on_c, 7, 57, 90
1, 25296, Note_on_c, 8, 57, 89
1, 25296, Note_on_c, 8, 64, 84
1, 25296, Note_on_c, 8, 60, 75
1, 25296, Note_on_c, 9, 69, 60
1, 25297, Note_off_c, 9, 46, 64
1, 25297, Note_on_c, 1, 31, 81
1, 25297, Note_on_c, 2, 64, 76
1, 25297, Note_on_c, 2, 67, 90
1, 25297, Note_on_c, 2, 71, 100
1, 25297, Note_off_c, 9, 69, 64
1, 25298, Note_off_c, 2, 72, 64
1, 25301, Lyric_t, "good"
1, 25301, Note_on_c, 3, 62, 111
1, 25318, Note_off_c, 2, 71, 64
1, 25319, Note_off_c, 1, 31, 64
1, 25319, Note_on_c, 1, 33, 87
1, 25320, Note_off_c, 2, 64, 64
1, 25320, Note_off_c, 7, 57, 64
1, 25320, Note_off_c, 8, 60, 64
1, 25320, Note_off_c, 8, 64, 64
1, 25320, Note_off_c, 8, 57, 64
1, 25320, Note_on_c, 9, 69, 30
1, 25321, Note_off_c, 9, 69, 64
1, 25326, Note_off_c, 2, 67, 64
1, 25340, Note_off_c, 3, 62, 64
1, 25344, Note_on_c, 9, 36, 120
1, 25344, Note_on_c, 7, 55, 74
1, 25344, Note_on_c, 11, 71, 76
1, 25344, Note_on_c, 11, 62, 88
1, 25345, Note_off_c, 9, 36, 64
1, 25345, Note_on_c, 9, 42, 81
1, 25345, Note_off_c, 1, 33, 64
1, 25345, Note_on_c, 1, 36, 111
1, 25345, Note_on_c, 2, 67, 100
1, 25345, Note_on_c, 2, 71, 106
1, 25345, Note_on_c, 2, 62, 93
1, 25345, Note_on_c, 2, 64, 72
1, 25345, Note_off_c, 11, 60, 64
1, 25345, Note_on_c, 9, 69, 40
1, 25346, Lyric_t, "bye. "
1, 25346, Lyric_t, "\015"
1, 25346, Note_on_c, 3, 64, 111
1, 25346, Note_off_c, 9, 42, 64
1, 25346, Note_off_c, 11, 69, 64
1, 25346, Note_off_c, 9, 69, 64
1, 25355, Note_off_c, 2, 67, 64
1, 25357, Note_off_c, 2, 71, 64
1, 25358, Note_off_c, 2, 62, 64
1, 25367, Note_off_c, 7, 55, 64
1, 25367, Note_on_c, 9, 69, 31
1, 25368, Note_on_c, 7, 55, 70
1, 25368, Note_off_c, 9, 69, 64
1, 25369, Note_on_c, 2, 71, 82
1, 25369, Note_on_c, 2, 67, 93
1, 25369, Note_on_c, 2, 62, 80
1, 25382, Note_off_c, 2, 62, 64
1, 25383, Note_off_c, 1, 36, 64
1, 25390, Note_off_c, 2, 67, 64
1, 25391, Note_on_c, 2, 60, 75
1, 25392, Note_on_c, 9, 44, 70
1, 25392, Note_off_c, 2, 71, 64
1, 25392, Note_off_c, 7, 55, 64
1, 25392, Note_on_c, 7, 57, 80
1, 25392, Note_on_c, 9, 69, 59
1, 25393, Note_off_c, 9, 44, 64
1, 25393, Note_on_c, 2, 69, 97
1, 25393, Note_off_c, 9, 69, 64
1, 25396, Note_off_c, 2, 64, 64
1, 25411, Note_off_c, 2, 69, 64
1, 25415, Note_off_c, 2, 60, 64
1, 25416, Note_off_c, 7, 57, 64
1, 25416, Note_on_c, 7, 59, 87
1, 25416, Note_on_c, 8, 59, 89
1, 25416, Note_on_c, 8, 64, 71
1, 25416, Note_on_c, 8, 55, 75
1, 25417, Note_on_c, 9, 42, 81
1, 25417, Note_on_c, 2, 64, 87
1, 25417, Note_on_c, 2, 71, 100
1, 25417, Note_on_c, 2, 67, 100
1, 25417, Note_on_c, 9, 69, 40
1, 25418, Note_off_c, 9, 42, 64
1, 25418, Note_on_c, 2, 62, 93
1, 25418, Note_off_c, 9, 69, 64
1, 25435, Note_off_c, 2, 62, 64
1, 25435, Note_off_c, 2, 67, 64
1, 25437, Note_off_c, 2, 71, 64
1, 25439, Note_on_c, 9, 40, 127
1, 25439, Note_off_c, 8, 55, 64
1, 25439, Note_off_c, 8, 64, 64
1, 25439, Note_off_c, 8, 59, 64
1, 25440, Note_off_c, 9, 40, 64
1, 25440, Note_off_c, 7, 59, 64
1, 25440, Note_on_c, 8, 55, 75
1, 25440, Note_on_c, 8, 59, 84
1, 25440, Note_on_c, 8, 64, 84
1, 25440, Note_on_c, 9, 69, 30
1, 25441, Note_off_c, 9, 69, 64
1, 25442, Note_off_c, 2, 64, 64
1, 25463, Note_on_c, 9, 69, 30
1, 25464, Note_on_c, 9, 44, 81
1, 25464, Note_on_c, 2, 71, 97
1, 25464, Note_on_c, 7, 55, 83
1, 25464, Note_off_c, 8, 64, 64
1, 25464, Note_off_c, 8, 59, 64
1, 25464, Note_off_c, 8, 55, 64
1, 25464, Note_off_c, 9, 69, 64
1, 25465, Note_off_c, 9, 44, 64
1, 25465, Note_on_c, 2, 67, 93
1, 25465, Note_on_c, 2, 62, 84
1, 25465, Note_on_c, 2, 64, 84
1, 25485, Note_off_c, 2, 64, 64
1, 25485, Note_off_c, 2, 62, 64
1, 25486, Note_off_c, 2, 67, 64
1, 25487, Note_on_c, 9, 69, 63
1, 25488, Note_on_c, 9, 42, 81
1, 25488, Note_on_c, 2, 60, 80
1, 25488, Note_off_c, 7, 55, 64
1, 25488, Note_off_c, 9, 69, 64
1, 25489, Note_off_c, 9, 42, 64
1, 25489, Note_off_c, 2, 71, 64
1, 25489, Note_on_c, 2, 69, 93
1, 25506, Note_off_c, 2, 69, 64
1, 25506, Note_off_c, 2, 60, 64
1, 25510, Lyric_t, "(Both) "
1, 25511, Note_on_c, 9, 36, 104
1, 25512, Note_off_c, 9, 36, 64
1, 25512, Note_on_c, 1, 36, 102
1, 25512, Note_on_c, 2, 64, 75
1, 25512, Note_on_c, 7, 64, 77
1, 25512, Note_on_c, 9, 69, 38
1, 25513, Note_on_c, 2, 62, 78
1, 25513, Note_on_c, 2, 71, 97
1, 25513, Note_on_c, 2, 67, 93
1, 25513, Note_off_c, 9, 69, 64
1, 25529, Note_off_c, 2, 67, 64
1, 25529, Note_off_c, 2, 64, 64
1, 25529, Note_off_c, 2, 62, 64
1, 25531, Note_off_c, 2, 71, 64
1, 25534, Note_off_c, 1, 36, 64
1, 25536, Note_on_c, 9, 42, 85
1, 25536, Note_off_c, 7, 64, 64
1, 25536, Note_on_c, 9, 69, 22
1, 25537, Note_off_c, 9, 42, 64
1, 25537, Note_off_c, 9, 69, 64
1, 25559, Note_on_c, 1, 36, 87
1, 25559, Note_on_c, 2, 71, 100
1, 25559, Note_on_c, 2, 67, 97
1, 25560, Note_on_c, 2, 62, 84
1, 25560, Note_on_c, 7, 55, 90
1, 25561, Note_on_c, 2, 64, 84
1, 25561, Note_on_c, 9, 69, 34
1, 25562, Note_off_c, 3, 64, 64
1, 25562, Note_off_c, 9, 69, 64
1, 25571, Note_off_c, 1, 36, 64
1, 25574, Note_off_c, 2, 62, 64
1, 25577, Note_off_c, 2, 67, 64
1, 25578, Note_off_c, 2, 64, 64
1, 25579, Note_off_c, 2, 71, 64
1, 25582, Note_on_c, 2, 60, 78
1, 25583, Note_on_c, 9, 36, 109
1, 25583, Note_on_c, 1, 36, 73
1, 25583, Note_on_c, 2, 69, 84
1, 25584, Note_off_c, 9, 36, 64
1, 25584, Note_on_c, 9, 42, 72
1, 25584, Note_off_c, 7, 55, 64
1, 25585, Note_off_c, 9, 42, 64
1, 25585, Note_on_c, 9, 69, 53
1, 25586, Note_off_c, 9, 69, 64
1, 25602, Note_off_c, 2, 69, 64
1, 25606, Lyric_t, "\226 I "
1, 25606, Note_on_c, 3, 72, 102
1, 25608, Note_on_c, 7, 55, 72
1, 25608, Note_on_c, 8, 59, 78
1, 25608, Note_on_c, 8, 55, 68
1, 25608, Note_on_c, 8, 64, 71
1, 25609, Note_on_c, 9, 69, 36
1, 25610, Note_off_c, 9, 69, 64
1, 25616, Note_off_c, 3, 72, 64
1, 25620, Note_off_c, 1, 36, 64
1, 25626, Note_off_c, 2, 60, 64
1, 25631, Note_on_c, 9, 40, 114
1, 25631, Note_on_c, 9, 42, 81
1, 25631, Note_off_c, 8, 64, 64
1, 25631, Note_off_c, 8, 55, 64
1, 25631, Note_off_c, 8, 59, 64
1, 25632, Note_off_c, 9, 42, 64
1, 25632, Note_off_c, 9, 40, 64
1, 25632, Note_off_c, 7, 55, 64
1, 25632, Note_on_c, 7, 59, 90
1, 25632, Note_on_c, 8, 59, 68
1, 25632, Note_on_c, 8, 55, 58
1, 25632, Note_on_c, 8, 64, 71
1, 25633, Lyric_t, "don't "
1, 25633, Note_on_c, 3, 72, 111
1, 25633, Note_on_c, 2, 67, 111
1, 25633, Note_on_c, 2, 71, 111
1, 25633, Note_on_c, 2, 64, 90
1, 25633, Note_on_c, 2, 62, 93
1, 25633, Note_on_c, 9, 69, 31
1, 25634, Note_off_c, 9, 69, 64
1, 25654, Note_off_c, 3, 72, 64
1, 25655, Note_on_c, 9, 44, 68
1, 25655, Note_on_c, 1, 36, 95
1, 25655, Note_off_c, 7, 59, 64
1, 25656, Note_off_c, 9, 44, 64
1, 25656, Note_on_c, 7, 59, 77
1, 25656, Note_off_c, 8, 64, 64
1, 25656, Note_off_c, 8, 55, 64
1, 25656, Note_off_c, 8, 59, 64
1, 25657, Lyric_t, "wan"
1, 25657, Note_on_c, 3, 71, 98
1, 25657, Note_on_c, 9, 69, 23
1, 25658, Note_off_c, 9, 69, 64
1, 25670, Note_off_c, 2, 62, 64
1, 25671, Note_off_c, 1, 36, 64
1, 25675, Note_off_c, 3, 71, 64
1, 25679, Lyric_t, "na "
1, 25679, Note_on_c, 3, 69, 98
1, 25679, Note_on_c, 9, 46, 78
1, 25679, Note_on_c, 9, 69, 51
1, 25680, Note_off_c, 9, 46, 64
1, 25680, Note_on_c, 2, 60, 75
1, 25680, Note_on_c, 2, 69, 100
1, 25680, Note_off_c, 7, 59, 64
1, 25680, Note_on_c, 7, 55, 70
1, 25680, Note_on_c, 8, 59, 84
1, 25680, Note_on_c, 8, 55, 78
1, 25680, Note_on_c, 8, 64, 78
1, 25680, Note_off_c, 9, 69, 64
1, 25682, Note_off_c, 2, 67, 64
1, 25684, Note_off_c, 2, 71, 64
1, 25693, Note_off_c, 2, 64, 64
1, 25695, Note_off_c, 2, 69, 64
1, 25697, Note_off_c, 3, 69, 64
1, 25699, Note_off_c, 2, 60, 64
1, 25703, Note_on_c, 1, 36, 71
1, 25704, Note_off_c, 7, 55, 64
1, 25704, Note_off_c, 8, 64, 64
1, 25704, Note_off_c, 8, 55, 64
1, 25704, Note_off_c, 8, 59, 64
1, 25704, Note_on_c, 9, 69, 34
1, 25705, Note_off_c, 9, 69, 64
1, 25706, Lyric_t, "hear "
1, 25706, Note_on_c, 3, 71, 105
1, 25717, Note_off_c, 1, 36, 64
1, 25727, Note_on_c, 9, 36, 120
1, 25727, Note_on_c, 1, 33, 105
1, 25727, Note_on_c, 2, 71, 106
1, 25727, Note_on_c, 2, 67, 106
1, 25728, Time_signature, 2, 2, 24, 8
1, 25728, Note_off_c, 9, 36, 64
1, 25728, Note_on_c, 9, 42, 78
1, 25728, Note_on_c, 2, 64, 90
1, 25728, Note_on_c, 7, 57, 87
1, 25728, Note_off_c, 11, 71, 64
1, 25728, Note_off_c, 11, 62, 64
1, 25728, Note_on_c, 11, 60, 76
1, 25728, Note_on_c, 11, 69, 78
1, 25729, Note_off_c, 9, 42, 64
1, 25729, Note_on_c, 9, 69, 12
1, 25730, Note_off_c, 9, 69, 64
1, 25748, Note_off_c, 2, 71, 64
1, 25750, Note_off_c, 2, 67, 64
1, 25751, Note_off_c, 7, 57, 64
1, 25752, Note_on_c, 2, 72, 87
1, 25752, Note_on_c, 7, 57, 90
1, 25753, Note_on_c, 2, 69, 87
1, 25753, Note_on_c, 9, 69, 24
1, 25754, Note_off_c, 9, 69, 64
1, 25762, Note_off_c, 1, 33, 64
1, 25770, Note_off_c, 2, 69, 64
1, 25772, Note_off_c, 2, 72, 64
1, 25775, Note_on_c, 2, 71, 100
1, 25775, Note_on_c, 2, 67, 84
1, 25776, Note_on_c, 9, 44, 78
1, 25776, Note_off_c, 7, 57, 64
1, 25776, Note_on_c, 7, 59, 83
1, 25777, Note_off_c, 9, 44, 64
1, 25777, Note_on_c, 9, 69, 62
1, 25778, Note_off_c, 9, 69, 64
1, 25795, Note_off_c, 2, 67, 64
1, 25798, Note_off_c, 3, 71, 64
1, 25798, Note_off_c, 2, 71, 64
1, 25799, Note_on_c, 1, 33, 102
1, 25800, Note_on_c, 9, 36, 85
1, 25800, Note_off_c, 7, 59, 64
1, 25800, Note_on_c, 7, 60, 83
1, 25800, Note_on_c, 8, 57, 75
1, 25800, Note_on_c, 8, 64, 62
1, 25800, Note_on_c, 8, 60, 53
1, 25801, Note_off_c, 9, 36, 64
1, 25801, Note_on_c, 2, 72, 90
1, 25801, Note_on_c, 2, 69, 97
1, 25801, Note_on_c, 9, 69, 38
1, 25802, Lyric_t, "your\205 "
1, 25802, Lyric_t, "\015"
1, 25802, Note_on_c, 3, 69, 111
1, 25802, Note_off_c, 9, 69, 64
1, 25821, Note_off_c, 2, 69, 64
1, 25823, Note_off_c, 8, 60, 64
1, 25823, Note_off_c, 8, 64, 64
1, 25823, Note_off_c, 8, 57, 64
1, 25823, Note_on_c, 9, 69, 19
1, 25824, Note_on_c, 9, 40, 109
1, 25824, Note_on_c, 9, 42, 68
1, 25824, Note_off_c, 2, 72, 64
1, 25824, Note_off_c, 7, 60, 64
1, 25824, Note_on_c, 8, 64, 71
1, 25824, Note_on_c, 8, 60, 68
1, 25824, Note_on_c, 8, 57, 89
1, 25824, Note_off_c, 9, 69, 64
1, 25825, Note_off_c, 9, 42, 64
1, 25825, Note_off_c, 9, 40, 64
1, 25826, Note_off_c, 1, 33, 64
1, 25835, Note_off_c, 2, 64, 64
1, 25847, Note_on_c, 1, 40, 105
1, 25847, Note_on_c, 9, 69, 30
1, 25848, Note_on_c, 7, 57, 96
1, 25848, Note_off_c, 8, 57, 64
1, 25848, Note_off_c, 8, 60, 64
1, 25848, Note_off_c, 8, 64, 64
1, 25848, Note_off_c, 9, 69, 64
1, 25849, Note_on_c, 2, 69, 111
1, 25849, Note_on_c, 2, 72, 106
1, 25851, Lyric_t, "\012"
1, 25871, Note_on_c, 1, 45, 102
1, 25871, Note_on_c, 2, 64, 67
1, 25871, Note_on_c, 9, 69, 62
1, 25872, Note_on_c, 9, 44, 72
1, 25872, Note_on_c, 9, 42, 72
1, 25872, Note_off_c, 7, 57, 64
1, 25872, Note_off_c, 9, 69, 64
1, 25873, Note_off_c, 9, 42, 64
1, 25873, Note_off_c, 9, 44, 64
1, 25873, Note_on_c, 9, 36, 104
1, 25873, Note_off_c, 1, 40, 64
1, 25874, Note_off_c, 9, 36, 64
1, 25874, Note_off_c, 2, 69, 64
1, 25875, Note_off_c, 2, 72, 64
1, 25894, Note_off_c, 1, 45, 64
1, 25894, Note_on_c, 9, 69, 33
1, 25895, Note_on_c, 1, 40, 102
1, 25895, Note_off_c, 9, 69, 64
1, 25898, Note_off_c, 2, 64, 64
1, 25902, Note_off_c, 11, 64, 64
1, 25905, Note_off_c, 11, 67, 64
1, 25911, Note_off_c, 3, 69, 64
1, 25911, Note_off_c, 11, 60, 64
1, 25917, Note_off_c, 1, 40, 64
1, 25919, Note_on_c, 9, 69, 34
1, 25920, Time_signature, 4, 2, 24, 8
1, 25920, Note_on_c, 9, 49, 99
1, 25920, Note_on_c, 1, 38, 111
1, 25920, Note_off_c, 11, 69, 64
1, 25920, Note_on_c, 11, 71, 77
1, 25920, Note_on_c, 11, 64, 77
1, 25920, Note_on_c, 11, 67, 77
1, 25920, Note_on_c, 11, 60, 77
1, 25920, Note_off_c, 9, 69, 64
1, 25921, Note_off_c, 9, 49, 64
1, 25921, Note_on_c, 9, 36, 109
1, 25921, Note_on_c, 2, 60, 93
1, 25921, Note_on_c, 2, 67, 122
1, 25921, Note_on_c, 2, 64, 100
1, 25921, Note_on_c, 2, 71, 126
1, 25922, Note_off_c, 9, 36, 64
1, 25944, Note_on_c, 4, 62, 98
1, 25944, Note_on_c, 9, 69, 33
1, 25945, Note_off_c, 9, 69, 64
1, 25947, Lyric_t, "And "
1, 25947, Note_on_c, 3, 71, 102
1, 25963, Note_off_c, 3, 71, 64
1, 25967, Note_off_c, 4, 62, 64
1, 25968, Note_on_c, 4, 62, 95
1, 25968, Note_on_c, 9, 69, 60
1, 25969, Note_off_c, 9, 69, 64
1, 25971, Lyric_t, "we "
1, 25971, Note_on_c, 3, 71, 98
1, 25982, Note_off_c, 3, 71, 64
1, 25991, Note_off_c, 4, 62, 64
1, 25991, Note_on_c, 9, 36, 98
1, 25992, Note_on_c, 4, 62, 98
1, 25992, Note_off_c, 9, 36, 64
1, 25992, Note_on_c, 9, 69, 45
1, 25993, Note_off_c, 9, 69, 64
1, 25996, Lyric_t, "got "
1, 25996, Note_on_c, 3, 71, 105
1, 26012, Note_off_c, 3, 71, 64
1, 26015, Note_off_c, 4, 62, 64
1, 26015, Note_on_c, 9, 40, 95
1, 26016, Note_on_c, 4, 62, 95
1, 26016, Note_off_c, 9, 40, 64
1, 26017, Note_on_c, 9, 69, 42
1, 26018, Note_off_c, 9, 69, 64
1, 26020, Lyric_t, "noth"
1, 26020, Note_on_c, 3, 71, 102
1, 26034, Note_off_c, 3, 71, 64
1, 26039, Note_off_c, 4, 62, 64
1, 26039, Note_on_c, 9, 40, 95
1, 26040, Note_on_c, 4, 62, 95
1, 26040, Note_off_c, 9, 40, 64
1, 26041, Note_on_c, 9, 69, 30
1, 26042, Note_off_c, 9, 69, 64
1, 26044, Lyric_t, "ing, "
1, 26044, Lyric_t, "\015"
1, 26044, Note_on_c, 3, 71, 121
1, 26063, Note_on_c, 9, 47, 98
1, 26064, Note_off_c, 9, 47, 64
1, 26064, Note_on_c, 9, 69, 60
1, 26065, Note_off_c, 9, 69, 64
1, 26075, Note_off_c, 3, 71, 64
1, 26087, Note_on_c, 9, 47, 85
1, 26088, Note_off_c, 9, 47, 64
1, 26088, Note_on_c, 9, 69, 30
1, 26089, Note_off_c, 9, 69, 64
1, 26111, Note_off_c, 4, 62, 64
1, 26111, Note_on_c, 9, 36, 109
1, 26112, Note_off_c, 9, 36, 64
1, 26113, Note_on_c, 9, 69, 40
1, 26114, Note_off_c, 9, 69, 64
1, 26130, Lyric_t, "and "
1, 26130, Note_on_c, 3, 71, 105
1, 26135, Note_on_c, 9, 69, 31
1, 26136, Note_on_c, 4, 62, 95
1, 26136, Note_off_c, 9, 69, 64
1, 26149, Note_off_c, 3, 71, 64
1, 26156, Lyric_t, "we "
1, 26156, Note_on_c, 3, 71, 102
1, 26159, Note_off_c, 4, 62, 64
1, 26160, Note_on_c, 4, 62, 78
1, 26160, Note_on_c, 9, 69, 59
1, 26161, Note_off_c, 9, 69, 64
1, 26170, Note_off_c, 3, 71, 64
1, 26182, Lyric_t, "got "
1, 26182, Note_on_c, 3, 71, 121
1, 26182, Note_on_c, 9, 40, 114
1, 26183, Note_off_c, 4, 62, 64
1, 26183, Note_off_c, 9, 40, 64
1, 26184, Note_on_c, 4, 62, 85
1, 26185, Note_on_c, 9, 69, 40
1, 26186, Note_off_c, 9, 69, 64
1, 26201, Note_off_c, 3, 71, 64
1, 26206, Note_on_c, 9, 40, 120
1, 26207, Note_off_c, 4, 62, 64
1, 26207, Note_off_c, 9, 40, 64
1, 26208, Lyric_t, "noth"
1, 26208, Note_on_c, 3, 71, 95
1, 26208, Note_on_c, 4, 62, 85
1, 26208, Note_on_c, 9, 69, 30
1, 26209, Note_off_c, 9, 69, 64
1, 26221, Note_off_c, 3, 71, 64
1, 26230, Lyric_t, "ing "
1, 26230, Note_on_c, 3, 71, 116
1, 26230, Note_on_c, 9, 47, 95
1, 26231, Note_off_c, 4, 62, 64
1, 26231, Note_off_c, 9, 47, 64
1, 26231, Note_on_c, 9, 69, 30
1, 26232, Note_on_c, 4, 62, 98
1, 26232, Note_off_c, 9, 69, 64
1, 26247, Note_off_c, 3, 71, 64
1, 26254, Note_on_c, 9, 47, 104
1, 26255, Lyric_t, "to "
1, 26255, Note_on_c, 3, 71, 98
1, 26255, Note_off_c, 4, 62, 64
1, 26255, Note_off_c, 9, 47, 64
1, 26255, Note_on_c, 9, 69, 63
1, 26256, Note_on_c, 4, 62, 73
1, 26256, Note_off_c, 9, 69, 64
1, 26268, Note_off_c, 3, 71, 64
1, 26278, Lyric_t, "be "
1, 26278, Note_on_c, 3, 71, 105
1, 26278, Note_on_c, 9, 43, 109
1, 26279, Note_off_c, 4, 62, 64
1, 26279, Note_off_c, 9, 43, 64
1, 26280, Note_on_c, 4, 62, 91
1, 26280, Note_on_c, 9, 69, 38
1, 26281, Note_off_c, 9, 69, 64
1, 26288, Note_off_c, 3, 71, 64
1, 26290, Note_off_c, 2, 67, 64
1, 26291, Note_off_c, 2, 64, 64
1, 26292, Note_off_c, 2, 71, 64
1, 26293, Note_off_c, 2, 60, 64
1, 26298, Note_off_c, 1, 38, 64
1, 26302, Lyric_t, "guil"
1, 26302, Note_on_c, 3, 71, 121
1, 26302, Note_on_c, 2, 62, 85
1, 26302, Note_on_c, 2, 67, 86
1, 26302, Note_on_c, 2, 64, 86
1, 26302, Note_on_c, 2, 71, 86
1, 26302, Note_on_c, 7, 55, 80
1, 26303, Note_off_c, 4, 62, 64
1, 26303, Note_off_c, 11, 64, 64
1, 26304, Note_on_c, 4, 62, 109
1, 26304, Note_on_c, 9, 36, 114
1, 26304, Note_on_c, 9, 57, 78
1, 26304, Note_off_c, 11, 71, 64
1, 26304, Note_off_c, 11, 67, 64
1, 26304, Note_off_c, 11, 60, 64
1, 26304, Note_on_c, 11, 59, 62
1, 26304, Note_on_c, 11, 55, 62
1, 26304, Note_on_c, 11, 64, 62
1, 26304, Note_on_c, 9, 69, 20
1, 26305, Note_off_c, 9, 57, 64
1, 26305, Note_off_c, 9, 36, 64
1, 26305, Note_on_c, 1, 36, 105
1, 26305, Note_off_c, 9, 69, 64
1, 26316, Note_off_c, 7, 55, 64
1, 26320, Note_off_c, 2, 62, 64
1, 26321, Note_off_c, 2, 67, 64
1, 26321, Note_off_c, 2, 64, 64
1, 26321, Note_off_c, 2, 71, 64
1, 26327, Note_on_c, 7, 55, 60
1, 26327, Note_on_c, 9, 69, 36
1, 26328, Note_on_c, 2, 64, 78
1, 26328, Note_on_c, 2, 67, 84
1, 26328, Note_on_c, 2, 62, 84
1, 26328, Note_on_c, 2, 71, 90
1, 26328, Note_off_c, 9, 69, 64
1, 26338, Note_off_c, 3, 71, 64
1, 26344, Note_off_c, 7, 55, 64
1, 26348, Note_off_c, 2, 71, 64
1, 26350, Note_off_c, 2, 62, 64
1, 26350, Note_off_c, 2, 67, 64
1, 26351, Note_on_c, 9, 44, 64
1, 26351, Note_on_c, 7, 57, 83
1, 26351, Note_on_c, 9, 69, 58
1, 26352, Note_off_c, 9, 44, 64
1, 26352, Note_on_c, 2, 60, 78
1, 26352, Note_on_c, 2, 69, 78
1, 26352, Note_off_c, 9, 69, 64
1, 26356, Note_off_c, 1, 36, 64
1, 26366, Note_off_c, 2, 64, 64
1, 26372, Note_off_c, 2, 69, 64
1, 26373, Note_off_c, 7, 57, 64
1, 26374, Note_off_c, 2, 60, 64
1, 26375, Note_on_c, 7, 59, 80
1, 26375, Note_on_c, 9, 69, 36
1, 26376, Note_off_c, 4, 62, 64
1, 26376, Note_on_c, 4, 60, 109
1, 26376, Note_on_c, 2, 71, 90
1, 26376, Note_on_c, 2, 67, 84
1, 26376, Note_on_c, 2, 64, 64
1, 26376, Note_on_c, 2, 62, 78
1, 26376, Note_off_c, 9, 69, 64
1, 26377, Lyric_t, "ty "
1, 26377, Note_on_c, 3, 69, 116
1, 26377, Note_on_c, 9, 42, 64
1, 26377, Note_on_c, 8, 64, 60
1, 26378, Note_off_c, 9, 42, 64
1, 26378, Note_on_c, 8, 55, 60
1, 26378, Note_on_c, 8, 59, 58
1, 26384, Note_off_c, 8, 59, 64
1, 26387, Note_off_c, 8, 55, 64
1, 26388, Note_off_c, 8, 64, 64
1, 26390, Note_off_c, 2, 62, 64
1, 26390, Note_off_c, 2, 64, 64
1, 26393, Note_off_c, 2, 71, 64
1, 26393, Note_off_c, 7, 59, 64
1, 26396, Note_off_c, 2, 67, 64
1, 26400, Note_on_c, 9, 40, 124
1, 26401, Note_off_c, 9, 40, 64
1, 26401, Note_on_c, 9, 69, 22
1, 26402, Note_on_c, 8, 55, 60
1, 26402, Note_on_c, 8, 59, 78
1, 26402, Note_on_c, 8, 64, 54
1, 26402, Note_off_c, 9, 69, 64
1, 26412, Note_off_c, 3, 69, 64
1, 26414, Note_off_c, 8, 64, 64
1, 26415, Note_off_c, 8, 59, 64
1, 26415, Note_off_c, 8, 55, 64
1, 26423, Note_on_c, 9, 44, 63
1, 26424, Note_off_c, 9, 44, 64
1, 26424, Note_on_c, 2, 67, 87
1, 26424, Note_on_c, 2, 64, 82
1, 26424, Note_on_c, 2, 71, 90
1, 26424, Note_on_c, 2, 62, 97
1, 26425, Note_on_c, 7, 55, 59
1, 26425, Note_on_c, 9, 69, 25
1, 26426, Note_off_c, 9, 69, 64
1, 26438, Note_off_c, 7, 55, 64
1, 26440, Note_off_c, 2, 62, 64
1, 26444, Note_off_c, 2, 71, 64
1, 26444, Note_off_c, 2, 64, 64
1, 26445, Note_off_c, 2, 67, 64
1, 26446, Note_on_c, 2, 60, 78
1, 26447, Lyric_t, "of, "
1, 26447, Lyric_t, "\015"
1, 26447, Note_on_c, 3, 71, 121
1, 26447, Note_on_c, 9, 42, 70
1, 26447, Note_on_c, 9, 69, 67
1, 26448, Note_off_c, 4, 60, 64
1, 26448, Note_on_c, 4, 62, 109
1, 26448, Note_off_c, 9, 42, 64
1, 26448, Note_on_c, 2, 69, 78
1, 26448, Note_off_c, 9, 69, 64
1, 26464, Note_off_c, 2, 69, 64
1, 26466, Note_off_c, 2, 60, 64
1, 26471, Note_on_c, 9, 36, 104
1, 26471, Note_on_c, 1, 36, 102
1, 26471, Note_on_c, 9, 69, 38
1, 26472, Note_off_c, 9, 36, 64
1, 26472, Note_on_c, 2, 71, 90
1, 26472, Note_on_c, 2, 67, 87
1, 26472, Note_on_c, 2, 64, 66
1, 26472, Note_on_c, 2, 62, 90
1, 26472, Note_on_c, 7, 64, 83
1, 26472, Note_off_c, 9, 69, 64
1, 26482, Note_off_c, 2, 64, 64
1, 26486, Note_off_c, 2, 62, 64
1, 26488, Note_off_c, 2, 67, 64
1, 26488, Note_off_c, 2, 71, 64
1, 26488, Note_off_c, 7, 64, 64
1, 26489, Note_off_c, 3, 71, 64
1, 26495, Note_on_c, 9, 42, 78
1, 26496, Note_off_c, 9, 42, 64
1, 26497, Note_on_c, 9, 69, 12
1, 26498, Note_off_c, 9, 69, 64
1, 26502, Note_off_c, 1, 36, 64
1, 26518, Note_on_c, 2, 67, 93
1, 26518, Note_on_c, 2, 64, 82
1, 26518, Note_on_c, 2, 71, 100
1, 26518, Note_on_c, 2, 62, 84
1, 26520, Note_on_c, 1, 36, 98
1, 26521, Note_on_c, 7, 55, 70
1, 26521, Note_on_c, 9, 69, 24
1, 26522, Note_off_c, 9, 69, 64
1, 26533, Note_off_c, 2, 67, 64
1, 26534, Note_off_c, 1, 36, 64
1, 26534, Note_off_c, 2, 62, 64
1, 26535, Note_off_c, 7, 55, 64
1, 26538, Note_off_c, 2, 71, 64
1, 26538, Note_off_c, 2, 64, 64
1, 26542, Note_on_c, 2, 60, 70
1, 26543, Note_on_c, 9, 36, 98
1, 26543, Note_on_c, 9, 42, 68
1, 26543, Note_on_c, 1, 36, 89
1, 26544, Note_off_c, 9, 42, 64
1, 26544, Note_off_c, 9, 36, 64
1, 26544, Note_on_c, 2, 69, 73
1, 26545, Note_on_c, 9, 69, 62
1, 26546, Note_off_c, 9, 69, 64
1, 26560, Note_off_c, 2, 69, 64
1, 26562, Note_off_c, 2, 60, 64
1, 26567, Note_on_c, 8, 59, 75
1, 26567, Note_on_c, 8, 64, 71
1, 26567, Note_on_c, 8, 55, 68
1, 26568, Note_on_c, 7, 55, 65
1, 26569, Note_on_c, 9, 69, 38
1, 26570, Note_off_c, 9, 69, 64
1, 26574, Note_off_c, 8, 64, 64
1, 26575, Note_off_c, 8, 59, 64
1, 26577, Note_off_c, 1, 36, 64
1, 26578, Note_off_c, 8, 55, 64
1, 26580, Note_off_c, 7, 55, 64
1, 26590, Note_on_c, 2, 67, 97
1, 26590, Note_on_c, 2, 71, 106
1, 26591, Lyric_t, "our "
1, 26591, Note_on_c, 3, 69, 116
1, 26591, Note_on_c, 9, 40, 124
1, 26591, Note_on_c, 9, 42, 72
1, 26591, Note_on_c, 9, 69, 19
1, 26592, Note_off_c, 4, 62, 64
1, 26592, Note_on_c, 4, 60, 104
1, 26592, Note_off_c, 9, 42, 64
1, 26592, Note_off_c, 9, 40, 64
1, 26592, Note_on_c, 2, 62, 90
1, 26592, Note_on_c, 2, 64, 84
1, 26592, Note_on_c, 8, 59, 84
1, 26592, Note_on_c, 8, 64, 71
1, 26592, Note_on_c, 8, 55, 75
1, 26592, Note_off_c, 9, 69, 64
1, 26593, Note_on_c, 7, 59, 74
1, 26601, Note_off_c, 8, 55, 64
1, 26602, Note_off_c, 8, 64, 64
1, 26602, Note_off_c, 8, 59, 64
1, 26605, Note_off_c, 7, 59, 64
1, 26615, Note_on_c, 9, 44, 63
1, 26615, Note_on_c, 9, 69, 30
1, 26616, Note_off_c, 3, 69, 64
1, 26616, Note_off_c, 9, 44, 64
1, 26616, Note_on_c, 1, 36, 95
1, 26616, Note_on_c, 7, 59, 65
1, 26616, Note_off_c, 9, 69, 64
1, 26633, Note_off_c, 2, 62, 64
1, 26635, Note_off_c, 7, 59, 64
1, 26638, Note_off_c, 2, 67, 64
1, 26639, Lyric_t, "love "
1, 26639, Note_on_c, 3, 71, 111
1, 26639, Note_on_c, 9, 46, 78
1, 26639, Note_on_c, 1, 31, 81
1, 26639, Note_off_c, 2, 71, 64
1, 26639, Note_on_c, 9, 69, 62
1, 26640, Note_off_c, 4, 60, 64
1, 26640, Note_on_c, 4, 62, 114
1, 26640, Note_off_c, 9, 46, 64
1, 26640, Note_off_c, 1, 36, 64
1, 26640, Note_on_c, 2, 69, 87
1, 26640, Note_on_c, 2, 60, 70
1, 26640, Note_off_c, 9, 69, 64
1, 26641, Note_on_c, 7, 55, 68
1, 26641, Note_on_c, 8, 59, 89
1, 26641, Note_on_c, 8, 64, 78
1, 26641, Note_on_c, 8, 55, 78
1, 26646, Note_off_c, 8, 64, 64
1, 26647, Note_off_c, 8, 55, 64
1, 26648, Note_off_c, 8, 59, 64
1, 26656, Note_off_c, 2, 64, 64
1, 26661, Note_off_c, 1, 31, 64
1, 26662, Note_off_c, 2, 60, 64
1, 26662, Note_on_c, 9, 69, 33
1, 26663, Note_on_c, 1, 33, 85
1, 26663, Note_off_c, 7, 55, 64
1, 26663, Note_off_c, 9, 69, 64
1, 26672, Note_off_c, 2, 69, 64
1, 26686, Note_on_c, 2, 67, 100
1, 26686, Note_on_c, 2, 71, 100
1, 26687, Note_on_c, 1, 36, 92
1, 26687, Note_on_c, 9, 69, 34
1, 26688, Time_signature, 3, 2, 24, 8
1, 26688, Note_on_c, 2, 64, 84
1, 26688, Note_on_c, 2, 62, 93
1, 26688, Note_off_c, 9, 69, 64
1, 26689, Note_on_c, 9, 36, 114
1, 26689, Note_on_c, 9, 42, 85
1, 26689, Note_off_c, 1, 33, 64
1, 26689, Note_on_c, 7, 55, 77
1, 26690, Note_off_c, 9, 42, 64
1, 26690, Note_off_c, 9, 36, 64
1, 26697, Note_off_c, 2, 64, 64
1, 26698, Note_off_c, 2, 62, 64
1, 26698, Note_off_c, 2, 67, 64
1, 26699, Note_off_c, 3, 71, 64
1, 26699, Note_off_c, 2, 71, 64
1, 26702, Note_off_c, 7, 55, 64
1, 26710, Note_on_c, 2, 64, 76
1, 26710, Note_on_c, 2, 62, 82
1, 26711, Note_on_c, 7, 55, 68
1, 26712, Note_on_c, 2, 71, 80
1, 26712, Note_on_c, 2, 67, 84
1, 26712, Note_on_c, 9, 69, 33
1, 26713, Note_off_c, 9, 69, 64
1, 26729, Note_off_c, 7, 55, 64
1, 26730, Note_off_c, 1, 36, 64
1, 26730, Note_off_c, 2, 67, 64
1, 26730, Note_off_c, 2, 71, 64
1, 26730, Note_off_c, 2, 62, 64
1, 26731, Note_off_c, 2, 64, 64
1, 26735, Note_on_c, 9, 44, 68
1, 26735, Note_on_c, 7, 57, 65
1, 26736, Note_off_c, 4, 62, 64
1, 26736, Note_off_c, 9, 44, 64
1, 26736, Note_on_c, 2, 69, 84
1, 26736, Note_on_c, 2, 60, 75
1, 26736, Note_on_c, 9, 69, 60
1, 26737, Note_off_c, 9, 69, 64
1, 26756, Note_off_c, 2, 60, 64
1, 26756, Note_off_c, 2, 69, 64
1, 26756, Note_off_c, 7, 57, 64
1, 26760, Lyric_t, "will "
1, 26760, Note_on_c, 3, 69, 105
1, 26760, Note_on_c, 4, 60, 98
1, 26760, Note_on_c, 2, 64, 82
1, 26760, Note_on_c, 2, 71, 90
1, 26760, Note_on_c, 2, 67, 97
1, 26760, Note_on_c, 2, 62, 93
1, 26760, Note_on_c, 7, 59, 80
1, 26760, Note_on_c, 9, 69, 45
1, 26761, Note_on_c, 9, 42, 72
1, 26761, Note_off_c, 9, 69, 64
1, 26762, Note_off_c, 9, 42, 64
1, 26762, Note_on_c, 8, 55, 71
1, 26762, Note_on_c, 8, 59, 75
1, 26762, Note_on_c, 8, 64, 58
1, 26768, Note_off_c, 8, 64, 64
1, 26768, Note_off_c, 8, 59, 64
1, 26771, Note_off_c, 3, 69, 64
1, 26772, Note_off_c, 8, 55, 64
1, 26773, Note_off_c, 2, 64, 64
1, 26774, Note_off_c, 2, 62, 64
1, 26776, Note_off_c, 7, 59, 64
1, 26778, Note_off_c, 2, 67, 64
1, 26778, Note_off_c, 2, 71, 64
1, 26783, Note_off_c, 4, 60, 64
1, 26783, Note_on_c, 9, 40, 124
1, 26784, Lyric_t, "climb "
1, 26784, Note_on_c, 3, 69, 95
1, 26784, Note_on_c, 4, 60, 95
1, 26784, Note_off_c, 9, 40, 64
1, 26785, Note_on_c, 9, 69, 42
1, 26786, Note_on_c, 8, 59, 78
1, 26786, Note_on_c, 8, 55, 56
1, 26786, Note_on_c, 8, 64, 48
1, 26786, Note_off_c, 9, 69, 64
1, 26793, Note_off_c, 8, 64, 64
1, 26797, Note_off_c, 8, 59, 64
1, 26799, Note_off_c, 8, 55, 64
1, 26802, Note_off_c, 3, 69, 64
1, 26807, Note_on_c, 9, 44, 68
1, 26808, Note_off_c, 4, 60, 64
1, 26808, Note_on_c, 4, 62, 80
1, 26808, Note_off_c, 9, 44, 64
1, 26808, Note_on_c, 2, 67, 93
1, 26808, Note_on_c, 2, 71, 93
1, 26808, Note_on_c, 2, 62, 84
1, 26808, Note_on_c, 2, 64, 76
1, 26809, Lyric_t, "an"
1, 26809, Note_on_c, 3, 71, 105
1, 26809, Note_on_c, 7, 55, 70
1, 26809, Note_on_c, 9, 69, 30
1, 26810, Note_off_c, 9, 69, 64
1, 26822, Note_off_c, 3, 71, 64
1, 26823, Note_off_c, 7, 55, 64
1, 26824, Note_off_c, 2, 64, 64
1, 26826, Note_off_c, 2, 67, 64
1, 26828, Note_off_c, 2, 62, 64
1, 26829, Note_off_c, 2, 71, 64
1, 26831, Note_on_c, 9, 42, 64
1, 26832, Lyric_t, "y "
1, 26832, Note_on_c, 3, 72, 105
1, 26832, Note_off_c, 4, 62, 64
1, 26832, Note_on_c, 4, 64, 95
1, 26832, Note_off_c, 9, 42, 64
1, 26832, Note_on_c, 2, 69, 87
1, 26832, Note_on_c, 2, 60, 80
1, 26832, Note_on_c, 9, 69, 60
1, 26833, Note_off_c, 9, 69, 64
1, 26847, Note_off_c, 3, 72, 64
1, 26852, Note_off_c, 2, 60, 64
1, 26852, Note_off_c, 2, 69, 64
1, 26855, Note_on_c, 9, 36, 114
1, 26856, Lyric_t, "moun"
1, 26856, Note_on_c, 3, 71, 116
1, 26856, Note_off_c, 4, 64, 64
1, 26856, Note_on_c, 4, 62, 103
1, 26856, Note_off_c, 9, 36, 64
1, 26856, Note_on_c, 2, 64, 78
1, 26856, Note_on_c, 2, 67, 93
1, 26856, Note_on_c, 2, 71, 97
1, 26856, Note_on_c, 2, 62, 93
1, 26856, Note_on_c, 7, 64, 72
1, 26856, Note_on_c, 9, 69, 30
1, 26857, Note_on_c, 1, 36, 95
1, 26857, Note_off_c, 9, 69, 64
1, 26870, Note_off_c, 2, 64, 64
1, 26871, Note_off_c, 7, 64, 64
1, 26872, Note_off_c, 2, 62, 64
1, 26874, Note_off_c, 2, 67, 64
1, 26876, Note_off_c, 2, 71, 64
1, 26881, Note_on_c, 9, 42, 85
1, 26881, Note_on_c, 9, 69, 40
1, 26882, Note_off_c, 9, 42, 64
1, 26882, Note_off_c, 9, 69, 64
1, 26885, Note_off_c, 1, 36, 64
1, 26902, Note_on_c, 2, 62, 90
1, 26902, Note_on_c, 2, 64, 80
1, 26903, Note_on_c, 9, 69, 31
1, 26904, Note_on_c, 2, 67, 90
1, 26904, Note_on_c, 2, 71, 100
1, 26904, Note_off_c, 9, 69, 64
1, 26905, Note_on_c, 7, 55, 74
1, 26923, Note_off_c, 7, 55, 64
1, 26924, Note_off_c, 3, 71, 64
1, 26926, Note_off_c, 2, 71, 64
1, 26926, Note_off_c, 2, 67, 64
1, 26926, Note_on_c, 2, 60, 78
1, 26927, Lyric_t, "tain, "
1, 26927, Note_on_c, 3, 69, 105
1, 26927, Note_on_c, 9, 42, 81
1, 26927, Note_on_c, 1, 36, 105
1, 26927, Note_off_c, 2, 62, 64
1, 26928, Note_off_c, 4, 62, 64
1, 26928, Note_on_c, 4, 60, 88
1, 26928, Note_off_c, 9, 42, 64
1, 26928, Note_on_c, 2, 69, 90
1, 26928, Note_on_c, 9, 69, 59
1, 26929, Note_on_c, 9, 40, 120
1, 26929, Note_off_c, 9, 69, 64
1, 26930, Note_off_c, 9, 40, 64
1, 26938, Note_off_c, 2, 64, 64
1, 26946, Note_off_c, 3, 69, 64
1, 26952, Note_off_c, 2, 60, 64
1, 26952, Note_on_c, 7, 55, 62
1, 26953, Note_on_c, 9, 40, 109
1, 26953, Note_on_c, 9, 69, 40
1, 26954, Note_off_c, 9, 40, 64
1, 26954, Note_off_c, 2, 69, 64
1, 26954, Note_off_c, 9, 69, 64
1, 26963, Note_off_c, 7, 55, 64
1, 26975, Lyric_t, "near "
1, 26975, Note_on_c, 3, 69, 116
1, 26975, Note_off_c, 4, 60, 64
1, 26976, Time_signature, 4, 2, 24, 8
1, 26976, Note_on_c, 4, 60, 98
1, 26976, Note_on_c, 9, 57, 81
1, 26976, Note_on_c, 2, 69, 111
1, 26976, Note_on_c, 2, 72, 97
1, 26976, Note_on_c, 2, 64, 87
1, 26976, Note_on_c, 2, 65, 84
1, 26976, Note_off_c, 11, 64, 64
1, 26976, Note_off_c, 11, 55, 64
1, 26976, Note_off_c, 11, 59, 64
1, 26976, Note_on_c, 11, 65, 58
1, 26976, Note_on_c, 11, 60, 58
1, 26976, Note_on_c, 11, 57, 58
1, 26976, Note_on_c, 9, 69, 30
1, 26977, Note_off_c, 9, 57, 64
1, 26977, Note_off_c, 1, 36, 64
1, 26977, Note_on_c, 1, 31, 98
1, 26977, Note_on_c, 7, 57, 87
1, 26977, Note_off_c, 9, 69, 64
1, 26986, Note_off_c, 2, 64, 64
1, 26989, Note_off_c, 2, 69, 64
1, 26989, Note_off_c, 7, 57, 64
1, 26990, Note_off_c, 2, 72, 64
1, 26999, Note_on_c, 9, 69, 30
1, 27000, Note_on_c, 2, 69, 84
1, 27000, Note_on_c, 2, 72, 60
1, 27000, Note_on_c, 2, 64, 75
1, 27000, Note_off_c, 9, 69, 64
1, 27001, Note_on_c, 7, 57, 70
1, 27016, Note_off_c, 2, 65, 64
1, 27018, Note_off_c, 2, 64, 64
1, 27018, Note_off_c, 7, 57, 64
1, 27022, Note_off_c, 1, 31, 64
1, 27022, Note_off_c, 2, 72, 64
1, 27022, Note_off_c, 2, 69, 64
1, 27023, Note_on_c, 9, 69, 63
1, 27024, Note_on_c, 2, 62, 72
1, 27024, Note_on_c, 2, 71, 80
1, 27024, Note_on_c, 2, 67, 68
1, 27024, Note_off_c, 9, 69, 64
1, 27025, Note_on_c, 9, 44, 68
1, 27025, Note_on_c, 7, 59, 70
1, 27026, Note_off_c, 9, 44, 64
1, 27038, Note_off_c, 2, 67, 64
1, 27041, Note_off_c, 2, 71, 64
1, 27044, Note_off_c, 7, 59, 64
1, 27046, Note_off_c, 3, 69, 64
1, 27046, Note_off_c, 2, 62, 64
1, 27048, Note_off_c, 4, 60, 64
1, 27048, Note_on_c, 4, 59, 114
1, 27048, Note_on_c, 2, 69, 93
1, 27048, Note_on_c, 2, 65, 73
1, 27048, Note_on_c, 2, 72, 97
1, 27048, Note_on_c, 2, 64, 87
1, 27048, Note_on_c, 7, 60, 74
1, 27048, Note_on_c, 9, 69, 38
1, 27049, Lyric_t, "or "
1, 27049, Note_on_c, 3, 67, 111
1, 27049, Note_on_c, 9, 42, 72
1, 27049, Note_on_c, 8, 65, 65
1, 27049, Note_on_c, 8, 60, 65
1, 27049, Note_on_c, 8, 57, 71
1, 27049, Note_off_c, 9, 69, 64
1, 27050, Note_off_c, 9, 42, 64
1, 27058, Note_off_c, 8, 57, 64
1, 27058, Note_off_c, 8, 60, 64
1, 27058, Note_off_c, 8, 65, 64
1, 27061, Note_off_c, 2, 65, 64
1, 27062, Note_off_c, 2, 64, 64
1, 27066, Note_off_c, 2, 69, 64
1, 27066, Note_off_c, 7, 60, 64
1, 27068, Note_off_c, 2, 72, 64
1, 27072, Note_on_c, 9, 69, 22
1, 27073, Note_on_c, 9, 40, 120
1, 27073, Note_off_c, 9, 69, 64
1, 27074, Note_off_c, 9, 40, 64
1, 27074, Note_on_c, 8, 60, 68
1, 27074, Note_on_c, 8, 57, 75
1, 27074, Note_on_c, 8, 65, 71
1, 27086, Note_off_c, 8, 65, 64
1, 27086, Note_off_c, 8, 57, 64
1, 27089, Note_off_c, 8, 60, 64
1, 27096, Note_on_c, 2, 69, 93
1, 27096, Note_on_c, 2, 72, 97
1, 27096, Note_on_c, 2, 64, 84
1, 27096, Note_on_c, 2, 65, 72
1, 27097, Note_on_c, 9, 44, 78
1, 27097, Note_on_c, 7, 57, 70
1, 27097, Note_on_c, 9, 69, 34
1, 27098, Note_off_c, 9, 44, 64
1, 27098, Note_off_c, 9, 69, 64
1, 27105, Note_off_c, 2, 65, 64
1, 27112, Note_off_c, 2, 64, 64
1, 27113, Note_off_c, 3, 67, 64
1, 27117, Note_off_c, 2, 69, 64
1, 27118, Note_off_c, 2, 72, 64
1, 27118, Note_on_c, 2, 62, 78
1, 27120, Note_off_c, 4, 59, 64
1, 27120, Note_on_c, 4, 60, 104
1, 27120, Note_on_c, 9, 42, 63
1, 27120, Note_on_c, 2, 71, 75
1, 27121, Lyric_t, "far. "
1, 27121, Lyric_t, "\015"
1, 27121, Note_on_c, 3, 69, 116
1, 27121, Note_off_c, 9, 42, 64
1, 27121, Note_on_c, 9, 69, 53
1, 27122, Note_off_c, 9, 69, 64
1, 27123, Note_off_c, 7, 57, 64
1, 27134, Note_off_c, 2, 71, 64
1, 27140, Note_off_c, 2, 62, 64
1, 27143, Note_on_c, 1, 31, 102
1, 27144, Note_on_c, 2, 72, 90
1, 27144, Note_on_c, 2, 69, 90
1, 27144, Note_on_c, 2, 65, 69
1, 27144, Note_on_c, 2, 64, 76
1, 27144, Note_on_c, 7, 65, 77
1, 27145, Note_on_c, 9, 36, 120
1, 27145, Note_on_c, 9, 69, 36
1, 27146, Note_off_c, 9, 36, 64
1, 27146, Note_off_c, 9, 69, 64
1, 27156, Note_off_c, 2, 64, 64
1, 27161, Note_off_c, 2, 65, 64
1, 27165, Note_off_c, 2, 72, 64
1, 27166, Note_off_c, 2, 69, 64
1, 27166, Note_off_c, 7, 65, 64
1, 27169, Lyric_t, "\012"
1, 27169, Note_on_c, 9, 42, 85
1, 27169, Note_off_c, 1, 31, 64
1, 27169, Note_on_c, 9, 69, 31
1, 27170, Note_off_c, 9, 42, 64
1, 27170, Note_off_c, 9, 69, 64
1, 27171, Note_off_c, 3, 69, 64
1, 27192, Note_on_c, 1, 31, 89
1, 27192, Note_on_c, 2, 72, 97
1, 27192, Note_on_c, 2, 69, 97
1, 27192, Note_on_c, 2, 64, 90
1, 27192, Note_on_c, 2, 65, 84
1, 27193, Note_on_c, 7, 57, 83
1, 27193, Note_on_c, 9, 69, 23
1, 27194, Note_off_c, 9, 69, 64
1, 27205, Note_off_c, 1, 31, 64
1, 27205, Note_off_c, 2, 65, 64
1, 27208, Note_off_c, 2, 64, 64
1, 27209, Note_off_c, 2, 69, 64
1, 27210, Note_off_c, 7, 57, 64
1, 27214, Note_off_c, 2, 72, 64
1, 27214, Note_on_c, 2, 62, 78
1, 27215, Note_on_c, 9, 69, 51
1, 27216, Note_on_c, 2, 71, 80
1, 27216, Note_off_c, 9, 69, 64
1, 27217, Note_on_c, 9, 36, 109
1, 27217, Note_on_c, 9, 42, 72
1, 27217, Note_on_c, 1, 31, 98
1, 27218, Note_off_c, 9, 42, 64
1, 27218, Note_off_c, 9, 36, 64
1, 27233, Note_off_c, 2, 71, 64
1, 27238, Note_off_c, 2, 62, 64
1, 27240, Note_on_c, 7, 57, 77
1, 27240, Note_on_c, 9, 69, 34
1, 27241, Note_on_c, 8, 60, 62
1, 27241, Note_off_c, 9, 69, 64
1, 27242, Note_on_c, 8, 65, 50
1, 27242, Note_on_c, 8, 57, 60
1, 27247, Note_off_c, 8, 65, 64
1, 27247, Note_off_c, 8, 60, 64
1, 27249, Note_off_c, 1, 31, 64
1, 27250, Note_off_c, 8, 57, 64
1, 27253, Note_off_c, 7, 57, 64
1, 27263, Note_on_c, 9, 42, 81
1, 27264, Lyric_t, "We "
1, 27264, Note_on_c, 3, 67, 111
1, 27264, Note_off_c, 4, 60, 64
1, 27264, Note_on_c, 4, 59, 114
1, 27264, Note_off_c, 9, 42, 64
1, 27264, Note_on_c, 2, 69, 106
1, 27264, Note_on_c, 2, 72, 106
1, 27264, Note_on_c, 2, 65, 100
1, 27264, Note_on_c, 2, 64, 100
1, 27265, Note_on_c, 9, 40, 124
1, 27265, Note_on_c, 7, 60, 74
1, 27265, Note_on_c, 8, 57, 56
1, 27265, Note_on_c, 8, 60, 53
1, 27265, Note_on_c, 8, 65, 56
1, 27266, Note_off_c, 9, 40, 64
1, 27274, Note_off_c, 8, 65, 64
1, 27274, Note_off_c, 8, 57, 64
1, 27276, Note_off_c, 8, 60, 64
1, 27278, Note_off_c, 7, 60, 64
1, 27287, Note_on_c, 9, 44, 72
1, 27287, Note_on_c, 9, 69, 22
1, 27288, Note_off_c, 9, 44, 64
1, 27288, Note_off_c, 9, 69, 64
1, 27289, Note_on_c, 7, 60, 52
1, 27290, Note_off_c, 3, 67, 64
1, 27307, Note_off_c, 7, 60, 64
1, 27309, Note_off_c, 2, 72, 64
1, 27310, Note_off_c, 2, 64, 64
1, 27311, Note_on_c, 9, 46, 78
1, 27311, Note_on_c, 1, 38, 95
1, 27311, Note_on_c, 9, 69, 51
1, 27312, Lyric_t, "are "
1, 27312, Note_on_c, 3, 69, 116
1, 27312, Note_off_c, 4, 59, 64
1, 27312, Note_on_c, 4, 60, 109
1, 27312, Note_off_c, 9, 46, 64
1, 27312, Note_off_c, 2, 69, 64
1, 27312, Note_on_c, 2, 62, 70
1, 27312, Note_on_c, 2, 71, 87
1, 27312, Note_off_c, 9, 69, 64
1, 27313, Note_on_c, 7, 57, 63
1, 27313, Note_on_c, 8, 57, 84
1, 27313, Note_on_c, 8, 60, 78
1, 27314, Note_on_c, 8, 65, 84
1, 27323, Note_off_c, 8, 60, 64
1, 27324, Note_off_c, 8, 57, 64
1, 27325, Note_off_c, 8, 65, 64
1, 27330, Note_off_c, 2, 65, 64
1, 27334, Note_off_c, 7, 57, 64
1, 27335, Note_on_c, 1, 43, 89
1, 27335, Note_on_c, 9, 69, 48
1, 27336, Note_off_c, 1, 38, 64
1, 27336, Note_off_c, 9, 69, 64
1, 27340, Note_off_c, 2, 62, 64
1, 27341, Note_off_c, 2, 71, 64
1, 27359, Note_on_c, 9, 36, 114
1, 27360, Note_off_c, 9, 36, 64
1, 27360, Note_on_c, 2, 69, 100
1, 27360, Note_on_c, 2, 72, 100
1, 27360, Note_on_c, 2, 65, 78
1, 27360, Note_on_c, 2, 64, 87
1, 27360, Note_on_c, 7, 57, 83
1, 27361, Note_on_c, 9, 42, 81
1, 27361, Note_on_c, 1, 31, 95
1, 27362, Note_off_c, 9, 42, 64
1, 27362, Note_off_c, 1, 43, 64
1, 27362, Note_on_c, 9, 69, 33
1, 27363, Note_off_c, 9, 69, 64
1, 27370, Note_off_c, 2, 64, 64
1, 27370, Note_off_c, 2, 69, 64
1, 27372, Note_off_c, 2, 72, 64
1, 27372, Note_off_c, 7, 57, 64
1, 27382, Note_on_c, 2, 69, 87
1, 27383, Note_on_c, 7, 57, 70
1, 27384, Note_on_c, 2, 72, 82
1, 27384, Note_on_c, 2, 64, 66
1, 27385, Note_on_c, 9, 69, 26
1, 27386, Note_off_c, 3, 69, 64
1, 27386, Note_off_c, 9, 69, 64
1, 27398, Note_off_c, 7, 57, 64
1, 27401, Note_off_c, 2, 65, 64
1, 27402, Note_off_c, 2, 69, 64
1, 27402, Note_off_c, 2, 72, 64
1, 27404, Note_off_c, 2, 64, 64
1, 27406, Note_on_c, 2, 71, 90
1, 27407, Note_on_c, 7, 59, 72
1, 27408, Note_off_c, 4, 60, 64
1, 27408, Note_on_c, 9, 44, 58
1, 27408, Note_on_c, 2, 62, 73
1, 27409, Note_off_c, 9, 44, 64
1, 27409, Note_on_c, 9, 69, 61
1, 27410, Note_off_c, 9, 69, 64
1, 27414, Note_off_c, 1, 31, 64
1, 27425, Note_off_c, 2, 71, 64
1, 27427, Note_off_c, 7, 59, 64
1, 27430, Note_off_c, 2, 62, 64
1, 27431, Note_on_c, 7, 60, 77
1, 27432, Note_on_c, 2, 72, 84
1, 27432, Note_on_c, 2, 69, 90
1, 27432, Note_on_c, 2, 65, 76
1, 27432, Note_on_c, 2, 64, 84
1, 27432, Note_on_c, 9, 69, 40
1, 27433, Note_on_c, 9, 42, 70
1, 27433, Note_on_c, 8, 57, 75
1, 27433, Note_on_c, 8, 60, 68
1, 27433, Note_on_c, 8, 65, 65
1, 27433, Note_off_c, 9, 69, 64
1, 27434, Note_off_c, 9, 42, 64
1, 27438, Note_off_c, 8, 65, 64
1, 27439, Note_off_c, 8, 60, 64
1, 27441, Note_off_c, 8, 57, 64
1, 27442, Note_off_c, 2, 65, 64
1, 27444, Note_off_c, 2, 64, 64
1, 27446, Note_off_c, 7, 60, 64
1, 27448, Note_off_c, 2, 69, 64
1, 27450, Note_off_c, 2, 72, 64
1, 27457, Note_on_c, 9, 40, 124
1, 27457, Note_on_c, 8, 65, 68
1, 27457, Note_on_c, 8, 60, 62
1, 27457, Note_on_c, 8, 57, 65
1, 27458, Note_off_c, 9, 40, 64
1, 27458, Note_on_c, 9, 69, 33
1, 27459, Note_off_c, 9, 69, 64
1, 27466, Note_off_c, 8, 65, 64
1, 27468, Note_off_c, 8, 60, 64
1, 27469, Note_off_c, 8, 57, 64
1, 27480, Note_on_c, 4, 59, 100
1, 27480, Note_on_c, 9, 44, 72
1, 27480, Note_on_c, 2, 72, 93
1, 27480, Note_on_c, 2, 69, 93
1, 27480, Note_on_c, 2, 64, 87
1, 27480, Note_on_c, 2, 65, 80
1, 27481, Note_off_c, 9, 44, 64
1, 27481, Note_on_c, 7, 57, 70
1, 27481, Note_on_c, 9, 69, 30
1, 27482, Lyric_t, "and "
1, 27482, Note_on_c, 3, 67, 102
1, 27482, Note_off_c, 9, 69, 64
1, 27492, Note_off_c, 2, 65, 64
1, 27498, Note_off_c, 3, 67, 64
1, 27498, Note_off_c, 2, 64, 64
1, 27501, Note_off_c, 2, 69, 64
1, 27504, Note_off_c, 4, 59, 64
1, 27504, Note_on_c, 4, 60, 91
1, 27504, Note_off_c, 2, 72, 64
1, 27504, Note_on_c, 2, 71, 93
1, 27504, Note_on_c, 2, 62, 84
1, 27505, Note_on_c, 9, 42, 81
1, 27506, Lyric_t, "we "
1, 27506, Note_on_c, 3, 69, 102
1, 27506, Note_off_c, 9, 42, 64
1, 27506, Note_off_c, 7, 57, 64
1, 27506, Note_on_c, 9, 69, 52
1, 27507, Note_off_c, 9, 69, 64
1, 27519, Note_off_c, 3, 69, 64
1, 27521, Note_off_c, 2, 71, 64
1, 27524, Note_off_c, 2, 62, 64
1, 27528, Note_off_c, 4, 60, 64
1, 27528, Note_on_c, 4, 62, 97
1, 27528, Note_on_c, 9, 36, 109
1, 27528, Note_on_c, 2, 72, 93
1, 27528, Note_on_c, 2, 69, 100
1, 27528, Note_on_c, 2, 65, 76
1, 27528, Note_on_c, 2, 64, 87
1, 27528, Note_on_c, 7, 65, 80
1, 27529, Lyric_t, "nev"
1, 27529, Note_on_c, 3, 71, 111
1, 27529, Note_off_c, 9, 36, 64
1, 27529, Note_on_c, 1, 31, 105
1, 27529, Note_on_c, 9, 69, 36
1, 27530, Note_off_c, 9, 69, 64
1, 27540, Note_off_c, 2, 64, 64
1, 27541, Note_off_c, 2, 65, 64
1, 27546, Note_off_c, 2, 69, 64
1, 27549, Note_off_c, 2, 72, 64
1, 27551, Note_off_c, 7, 65, 64
1, 27553, Note_on_c, 9, 42, 85
1, 27553, Note_on_c, 9, 69, 40
1, 27554, Note_off_c, 9, 42, 64
1, 27554, Note_off_c, 9, 69, 64
1, 27557, Note_off_c, 1, 31, 64
1, 27575, Note_on_c, 1, 31, 80
1, 27576, Note_on_c, 2, 72, 97
1, 27576, Note_on_c, 2, 69, 97
1, 27576, Note_on_c, 2, 64, 93
1, 27576, Note_on_c, 2, 65, 84
1, 27577, Note_on_c, 7, 55, 72
1, 27577, Note_on_c, 9, 69, 23
1, 27578, Note_off_c, 9, 69, 64
1, 27587, Note_off_c, 1, 31, 64
1, 27588, Note_off_c, 2, 65, 64
1, 27593, Note_off_c, 2, 64, 64
1, 27594, Note_off_c, 3, 71, 64
1, 27594, Note_off_c, 2, 69, 64
1, 27597, Note_off_c, 2, 72, 64
1, 27597, Note_off_c, 7, 55, 64
1, 27598, Note_on_c, 2, 62, 82
1, 27599, Lyric_t, "er "
1, 27599, Note_on_c, 3, 72, 102
1, 27599, Note_on_c, 1, 31, 102
1, 27600, Note_off_c, 4, 62, 64
1, 27600, Note_on_c, 4, 64, 95
1, 27600, Note_on_c, 9, 36, 114
1, 27600, Note_on_c, 2, 71, 75
1, 27600, Note_on_c, 9, 69, 58
1, 27601, Note_off_c, 9, 36, 64
1, 27601, Note_on_c, 9, 42, 70
1, 27601, Note_off_c, 9, 69, 64
1, 27602, Note_off_c, 9, 42, 64
1, 27616, Note_off_c, 2, 71, 64
1, 27618, Note_off_c, 3, 72, 64
1, 27623, Lyric_t, "let "
1, 27623, Note_on_c, 3, 71, 102
1, 27624, Note_off_c, 4, 64, 64
1, 27624, Note_on_c, 4, 62, 104
1, 27624, Note_off_c, 2, 62, 64
1, 27625, Note_on_c, 7, 55, 53
1, 27625, Note_on_c, 8, 57, 84
1, 27625, Note_on_c, 8, 65, 84
1, 27625, Note_on_c, 8, 60, 75
1, 27626, Note_on_c, 9, 69, 48
1, 27627, Note_off_c, 9, 69, 64
1, 27630, Note_off_c, 8, 60, 64
1, 27631, Note_off_c, 7, 55, 64
1, 27631, Note_off_c, 8, 65, 64
1, 27632, Note_off_c, 8, 57, 64
1, 27634, Note_off_c, 1, 31, 64
1, 27647, Note_on_c, 8, 60, 58
1, 27648, Note_on_c, 9, 42, 81
1, 27648, Note_on_c, 2, 69, 106
1, 27648, Note_on_c, 2, 64, 93
1, 27648, Note_on_c, 2, 72, 106
1, 27648, Note_on_c, 2, 65, 100
1, 27648, Note_on_c, 8, 57, 60
1, 27648, Note_on_c, 8, 65, 58
1, 27649, Note_off_c, 9, 42, 64
1, 27649, Note_on_c, 9, 40, 124
1, 27649, Note_on_c, 7, 59, 90
1, 27650, Note_off_c, 9, 40, 64
1, 27650, Note_on_c, 9, 69, 23
1, 27651, Note_off_c, 9, 69, 64
1, 27654, Note_off_c, 8, 65, 64
1, 27656, Note_off_c, 8, 57, 64
1, 27657, Note_off_c, 8, 60, 64
1, 27671, Note_on_c, 1, 31, 98
1, 27672, Note_on_c, 9, 44, 70
1, 27672, Note_off_c, 7, 59, 64
1, 27673, Note_off_c, 9, 44, 64
1, 27673, Note_on_c, 9, 69, 24
1, 27674, Note_off_c, 9, 69, 64
1, 27690, Note_off_c, 1, 31, 64
1, 27694, Note_off_c, 3, 71, 64
1, 27694, Note_off_c, 2, 72, 64
1, 27695, Note_on_c, 1, 33, 102
1, 27696, Lyric_t, "it "
1, 27696, Note_on_c, 3, 67, 98
1, 27696, Note_off_c, 4, 62, 64
1, 27696, Note_on_c, 4, 60, 91
1, 27696, Note_on_c, 9, 46, 81
1, 27696, Note_off_c, 2, 69, 64
1, 27696, Note_on_c, 2, 62, 82
1, 27696, Note_on_c, 2, 71, 90
1, 27697, Note_off_c, 9, 46, 64
1, 27697, Note_on_c, 7, 55, 68
1, 27697, Note_on_c, 8, 57, 84
1, 27697, Note_on_c, 8, 65, 78
1, 27697, Note_on_c, 8, 60, 68
1, 27697, Note_on_c, 9, 69, 62
1, 27698, Note_off_c, 9, 69, 64
1, 27703, Note_off_c, 8, 60, 64
1, 27704, Note_off_c, 8, 65, 64
1, 27705, Note_off_c, 2, 65, 64
1, 27706, Note_off_c, 2, 64, 64
1, 27706, Note_off_c, 8, 57, 64
1, 27710, Note_off_c, 1, 33, 64
1, 27710, Note_off_c, 2, 62, 64
1, 27719, Note_off_c, 7, 55, 64
1, 27720, Note_off_c, 2, 71, 64
1, 27721, Note_on_c, 1, 33, 92
1, 27721, Note_on_c, 9, 69, 38
1, 27722, Note_off_c, 9, 69, 64
1, 27730, Note_off_c, 3, 67, 64
1, 27741, Note_off_c, 1, 33, 64
1, 27742, Note_on_c, 2, 64, 90
1, 27743, Note_on_c, 1, 36, 95
1, 27744, Note_off_c, 4, 60, 64
1, 27744, Note_on_c, 4, 59, 99
1, 27744, Note_on_c, 2, 71, 106
1, 27744, Note_on_c, 2, 67, 90
1, 27744, Note_on_c, 2, 74, 100
1, 27744, Note_off_c, 11, 57, 64
1, 27744, Note_off_c, 11, 60, 64
1, 27744, Note_off_c, 11, 65, 64
1, 27744, Note_on_c, 11, 64, 57
1, 27744, Note_on_c, 11, 67, 57
1, 27744, Note_on_c, 11, 59, 57
1, 27745, Lyric_t, "en-"
1, 27745, Note_on_c, 3, 69, 111
1, 27745, Note_on_c, 9, 36, 114
1, 27745, Note_on_c, 9, 42, 81
1, 27745, Note_on_c, 7, 55, 74
1, 27746, Note_off_c, 9, 42, 64
1, 27746, Note_off_c, 9, 36, 64
1, 27756, Note_off_c, 2, 74, 64
1, 27756, Note_off_c, 2, 67, 64
1, 27757, Note_off_c, 2, 71, 64
1, 27757, Note_off_c, 2, 64, 64
1, 27757, Note_off_c, 7, 55, 64
1, 27768, Note_on_c, 2, 71, 84
1, 27768, Note_on_c, 2, 67, 75
1, 27768, Note_on_c, 2, 64, 87
1, 27768, Note_on_c, 2, 74, 82
1, 27769, Note_on_c, 7, 55, 63
1, 27769, Note_on_c, 9, 69, 40
1, 27770, Note_off_c, 9, 69, 64
1, 27776, Note_off_c, 3, 69, 64
1, 27779, Note_off_c, 1, 36, 64
1, 27782, Note_off_c, 7, 55, 64
1, 27786, Note_off_c, 2, 74, 64
1, 27786, Note_off_c, 2, 71, 64
1, 27792, Note_on_c, 2, 72, 72
1, 27792, Note_on_c, 2, 69, 78
1, 27792, Note_on_c, 7, 57, 70
1, 27793, Lyric_t, "end. "
1, 27793, Lyric_t, "\015"
1, 27793, Note_on_c, 3, 69, 111
1, 27793, Note_on_c, 9, 44, 61
1, 27793, Note_on_c, 9, 69, 63
1, 27794, Note_off_c, 9, 44, 64
1, 27794, Note_off_c, 9, 69, 64
1, 27798, Note_off_c, 2, 67, 64
1, 27802, Note_off_c, 2, 64, 64
1, 27808, Note_off_c, 2, 69, 64
1, 27812, Note_off_c, 2, 72, 64
1, 27812, Note_off_c, 7, 57, 64
1, 27814, Note_off_c, 3, 69, 64
1, 27815, Note_on_c, 8, 55, 68
1, 27816, Note_on_c, 2, 64, 84
1, 27816, Note_on_c, 2, 67, 87
1, 27816, Note_on_c, 2, 71, 97
1, 27816, Note_on_c, 2, 74, 90
1, 27816, Note_on_c, 8, 64, 65
1, 27816, Note_on_c, 8, 59, 65
1, 27817, Note_on_c, 9, 42, 78
1, 27817, Note_on_c, 7, 59, 83
1, 27817, Note_on_c, 9, 69, 48
1, 27818, Note_on_c, 3, 67, 102
1, 27818, Note_off_c, 9, 42, 64
1, 27818, Note_off_c, 9, 69, 64
1, 27822, Note_off_c, 8, 59, 64
1, 27822, Note_off_c, 8, 64, 64
1, 27826, Note_off_c, 8, 55, 64
1, 27832, Note_off_c, 2, 67, 64
1, 27832, Note_off_c, 2, 64, 64
1, 27832, Note_off_c, 7, 59, 64
1, 27836, Note_off_c, 2, 71, 64
1, 27836, Note_off_c, 2, 74, 64
1, 27839, Note_on_c, 9, 40, 124
1, 27840, Note_off_c, 9, 40, 64
1, 27840, Note_on_c, 8, 59, 75
1, 27840, Note_on_c, 9, 69, 20
1, 27841, Note_on_c, 8, 64, 71
1, 27841, Note_on_c, 8, 55, 78
1, 27841, Note_off_c, 9, 69, 64
1, 27852, Note_off_c, 8, 55, 64
1, 27852, Note_off_c, 8, 64, 64
1, 27853, Note_off_c, 8, 59, 64
1, 27863, Note_on_c, 9, 44, 78
1, 27863, Note_on_c, 9, 69, 36
1, 27864, Note_off_c, 9, 44, 64
1, 27864, Note_on_c, 2, 71, 97
1, 27864, Note_on_c, 2, 64, 90
1, 27864, Note_on_c, 2, 74, 97
1, 27864, Note_on_c, 2, 67, 97
1, 27864, Note_off_c, 9, 69, 64
1, 27865, Note_on_c, 7, 55, 68
1, 27882, Note_off_c, 2, 71, 64
1, 27886, Note_off_c, 2, 74, 64
1, 27887, Note_on_c, 9, 42, 68
1, 27887, Note_off_c, 7, 55, 64
1, 27887, Note_on_c, 9, 69, 58
1, 27888, Note_off_c, 9, 42, 64
1, 27888, Note_on_c, 2, 69, 87
1, 27888, Note_on_c, 2, 72, 87
1, 27888, Note_off_c, 9, 69, 64
1, 27890, Note_off_c, 2, 67, 64
1, 27898, Note_off_c, 2, 64, 64
1, 27904, Note_off_c, 2, 69, 64
1, 27904, Note_off_c, 2, 72, 64
1, 27911, Note_on_c, 1, 36, 92
1, 27911, Note_on_c, 9, 69, 36
1, 27912, Note_on_c, 9, 36, 114
1, 27912, Note_on_c, 2, 64, 87
1, 27912, Note_on_c, 2, 71, 100
1, 27912, Note_on_c, 2, 74, 97
1, 27912, Note_on_c, 2, 67, 80
1, 27912, Note_on_c, 7, 64, 83
1, 27912, Note_off_c, 9, 69, 64
1, 27913, Note_off_c, 9, 36, 64
1, 27918, Note_off_c, 3, 67, 64
1, 27925, Note_off_c, 2, 67, 64
1, 27925, Note_off_c, 2, 64, 64
1, 27929, Note_off_c, 2, 74, 64
1, 27932, Note_off_c, 2, 71, 64
1, 27932, Note_off_c, 7, 64, 64
1, 27935, Note_off_c, 1, 36, 64
1, 27936, Note_off_c, 4, 59, 64
1, 27936, Note_on_c, 9, 42, 85
1, 27937, Note_off_c, 9, 42, 64
1, 27937, Note_on_c, 9, 69, 22
1, 27938, Note_off_c, 9, 69, 64
1, 27958, Note_on_c, 2, 71, 90
1, 27958, Note_on_c, 2, 74, 93
1, 27959, Note_on_c, 1, 36, 92
1, 27960, Note_on_c, 2, 64, 90
1, 27960, Note_on_c, 2, 67, 90
1, 27960, Note_on_c, 7, 55, 72
1, 27961, Note_on_c, 9, 69, 25
1, 27962, Note_off_c, 9, 69, 64
1, 27974, Note_off_c, 1, 36, 64
1, 27974, Note_off_c, 2, 74, 64
1, 27974, Note_off_c, 2, 71, 64
1, 27974, Note_off_c, 7, 55, 64
1, 27982, Note_on_c, 2, 72, 76
1, 27983, Note_on_c, 9, 36, 104
1, 27983, Note_on_c, 1, 36, 83
1, 27983, Note_on_c, 9, 69, 67
1, 27984, Note_off_c, 9, 36, 64
1, 27984, Note_on_c, 2, 69, 78
1, 27984, Note_off_c, 9, 69, 64
1, 27985, Note_on_c, 9, 42, 78
1, 27986, Note_off_c, 9, 42, 64
1, 27994, Note_off_c, 2, 67, 64
1, 28000, Note_off_c, 2, 64, 64
1, 28000, Note_off_c, 2, 72, 64
1, 28004, Note_off_c, 2, 69, 64
1, 28007, Note_on_c, 7, 55, 68
1, 28007, Note_on_c, 8, 64, 65
1, 28007, Note_on_c, 8, 55, 65
1, 28007, Note_on_c, 9, 69, 38
1, 28008, Note_on_c, 8, 59, 68
1, 28008, Note_off_c, 9, 69, 64
1, 28012, Note_off_c, 1, 36, 64
1, 28014, Note_off_c, 8, 59, 64
1, 28014, Note_off_c, 8, 55, 64
1, 28014, Note_off_c, 8, 64, 64
1, 28021, Note_off_c, 7, 55, 64
1, 28030, Note_on_c, 2, 64, 97
1, 28030, Note_on_c, 2, 74, 106
1, 28030, Note_on_c, 2, 71, 106
1, 28030, Note_on_c, 2, 67, 97
1, 28031, Note_on_c, 8, 59, 71
1, 28031, Note_on_c, 8, 55, 68
1, 28031, Note_on_c, 8, 64, 71
1, 28032, Note_on_c, 4, 52, 91
1, 28032, Note_on_c, 9, 42, 85
1, 28032, Note_on_c, 7, 59, 80
1, 28033, Lyric_t, "We "
1, 28033, Note_on_c, 3, 62, 116
1, 28033, Note_off_c, 9, 42, 64
1, 28033, Note_on_c, 9, 40, 124
1, 28033, Note_on_c, 9, 69, 12
1, 28034, Note_off_c, 9, 40, 64
1, 28034, Note_off_c, 9, 69, 64
1, 28039, Note_off_c, 8, 64, 64
1, 28042, Note_off_c, 7, 59, 64
1, 28042, Note_off_c, 8, 55, 64
1, 28042, Note_off_c, 8, 59, 64
1, 28050, Note_off_c, 3, 62, 64
1, 28055, Lyric_t, "are "
1, 28055, Note_on_c, 3, 64, 102
1, 28055, Note_on_c, 9, 44, 68
1, 28055, Note_on_c, 1, 31, 87
1, 28055, Note_off_c, 2, 67, 64
1, 28055, Note_on_c, 7, 59, 65
1, 28056, Note_off_c, 4, 52, 64
1, 28056, Note_on_c, 4, 55, 91
1, 28056, Note_off_c, 9, 44, 64
1, 28057, Note_on_c, 9, 69, 24
1, 28058, Note_off_c, 9, 69, 64
1, 28067, Note_off_c, 2, 64, 64
1, 28071, Note_off_c, 3, 64, 64
1, 28075, Note_off_c, 1, 31, 64
1, 28075, Note_off_c, 2, 74, 64
1, 28076, Note_off_c, 2, 71, 64
1, 28077, Note_off_c, 7, 59, 64
1, 28078, Note_on_c, 2, 64, 64
1, 28079, Lyric_t, "de"
1, 28079, Note_on_c, 3, 67, 105
1, 28079, Note_on_c, 1, 36, 87
1, 28079, Note_on_c, 8, 55, 71
1, 28079, Note_on_c, 8, 64, 71
1, 28079, Note_on_c, 8, 59, 71
1, 28080, Note_off_c, 4, 55, 64
1, 28080, Note_on_c, 4, 59, 95
1, 28080, Note_on_c, 9, 46, 72
1, 28080, Note_on_c, 2, 67, 90
1, 28080, Note_on_c, 2, 72, 87
1, 28080, Note_on_c, 2, 69, 97
1, 28081, Note_off_c, 9, 46, 64
1, 28081, Note_on_c, 7, 55, 66
1, 28081, Note_on_c, 9, 69, 62
1, 28082, Note_off_c, 9, 69, 64
1, 28090, Note_off_c, 8, 59, 64
1, 28091, Note_off_c, 2, 64, 64
1, 28091, Note_off_c, 8, 64, 64
1, 28092, Note_off_c, 8, 55, 64
1, 28093, Note_off_c, 2, 67, 64
1, 28094, Note_off_c, 7, 55, 64
1, 28097, Note_off_c, 3, 67, 64
1, 28100, Note_off_c, 1, 36, 64
1, 28100, Note_off_c, 2, 69, 64
1, 28103, Note_on_c, 1, 35, 81
1, 28104, Note_off_c, 4, 59, 64
1, 28104, Note_on_c, 4, 60, 95
1, 28104, Note_off_c, 2, 72, 64
1, 28105, Lyric_t, "vo"
1, 28105, Note_on_c, 3, 69, 111
1, 28105, Note_on_c, 9, 69, 38
1, 28106, Note_off_c, 9, 69, 64
1, 28127, Note_on_c, 9, 36, 114
1, 28127, Note_on_c, 9, 69, 19
1, 28128, Note_off_c, 9, 36, 64
1, 28128, Note_on_c, 2, 64, 97
1, 28128, Note_on_c, 2, 71, 106
1, 28128, Note_on_c, 2, 67, 100
1, 28128, Note_off_c, 11, 59, 64
1, 28128, Note_off_c, 11, 67, 64
1, 28128, Note_on_c, 11, 60, 56
1, 28128, Note_on_c, 11, 69, 56
1, 28128, Note_off_c, 9, 69, 64
1, 28129, Note_on_c, 9, 42, 81
1, 28129, Note_off_c, 1, 35, 64
1, 28129, Note_on_c, 1, 33, 92
1, 28130, Note_off_c, 9, 42, 64
1, 28148, Note_off_c, 2, 67, 64
1, 28150, Note_off_c, 2, 71, 64
1, 28151, Note_on_c, 9, 69, 30
1, 28152, Note_on_c, 2, 72, 84
1, 28152, Note_on_c, 2, 69, 87
1, 28152, Note_off_c, 9, 69, 64
1, 28153, Note_on_c, 7, 52, 77
1, 28164, Note_off_c, 7, 52, 64
1, 28168, Note_off_c, 2, 69, 64
1, 28172, Note_off_c, 2, 72, 64
1, 28175, Note_on_c, 9, 44, 70
1, 28175, Note_on_c, 9, 69, 62
1, 28176, Note_off_c, 9, 44, 64
1, 28176, Note_on_c, 2, 67, 84
1, 28176, Note_on_c, 2, 71, 93
1, 28176, Note_off_c, 9, 69, 64
1, 28177, Note_on_c, 7, 57, 87
1, 28178, Note_off_c, 1, 33, 64
1, 28190, Note_off_c, 3, 69, 64
1, 28193, Note_off_c, 2, 71, 64
1, 28194, Note_off_c, 2, 67, 64
1, 28194, Note_off_c, 2, 64, 64
1, 28194, Note_off_c, 7, 57, 64
1, 28198, Note_on_c, 9, 69, 33
1, 28199, Lyric_t, "tion. "
1, 28199, Lyric_t, "\015"
1, 28199, Note_on_c, 3, 64, 105
1, 28199, Note_off_c, 9, 69, 64
1, 28200, Note_off_c, 4, 60, 64
1, 28200, Note_on_c, 4, 57, 94
1, 28200, Note_on_c, 2, 69, 100
1, 28200, Note_on_c, 2, 72, 93
1, 28200, Note_on_c, 2, 64, 97
1, 28201, Note_on_c, 9, 42, 78
1, 28201, Note_on_c, 7, 60, 77
1, 28201, Note_on_c, 8, 57, 75
1, 28201, Note_on_c, 8, 60, 68
1, 28201, Note_on_c, 8, 64, 56
1, 28202, Note_off_c, 9, 42, 64
1, 28206, Note_off_c, 8, 64, 64
1, 28208, Note_off_c, 8, 57, 64
1, 28209, Note_off_c, 8, 60, 64
1, 28217, Note_off_c, 2, 64, 64
1, 28218, Note_off_c, 7, 60, 64
1, 28221, Note_off_c, 2, 72, 64
1, 28221, Note_off_c, 2, 69, 64
1, 28223, Note_on_c, 9, 40, 124
1, 28223, Note_on_c, 9, 69, 34
1, 28224, Note_off_c, 9, 40, 64
1, 28224, Note_off_c, 9, 69, 64
1, 28225, Note_on_c, 8, 57, 78
1, 28225, Note_on_c, 8, 60, 60
1, 28226, Note_on_c, 8, 64, 45
1, 28238, Note_off_c, 8, 64, 64
1, 28238, Note_off_c, 8, 57, 64
1, 28240, Note_off_c, 8, 60, 64
1, 28244, Note_off_c, 3, 64, 64
1, 28247, Note_on_c, 3, 62, 102
1, 28247, Note_on_c, 9, 44, 78
1, 28248, Lyric_t, "\012"
1, 28248, Note_off_c, 9, 44, 64
1, 28248, Note_on_c, 2, 64, 93
1, 28248, Note_on_c, 2, 69, 100
1, 28248, Note_on_c, 2, 72, 100
1, 28248, Note_on_c, 9, 69, 33
1, 28249, Note_on_c, 7, 57, 80
1, 28249, Note_off_c, 9, 69, 64
1, 28263, Note_off_c, 7, 57, 64
1, 28264, Note_off_c, 2, 72, 64
1, 28264, Note_off_c, 2, 69, 64
1, 28270, Note_off_c, 3, 62, 64
1, 28271, Note_on_c, 9, 42, 70
1, 28272, Note_on_c, 3, 60, 95
1, 28272, Note_off_c, 9, 42, 64
1, 28272, Note_on_c, 2, 71, 82
1, 28272, Note_on_c, 2, 67, 76
1, 28272, Note_on_c, 9, 69, 60
1, 28273, Note_off_c, 9, 69, 64
1, 28286, Note_off_c, 2, 67, 64
1, 28288, Note_off_c, 2, 71, 64
1, 28288, Note_off_c, 2, 64, 64
1, 28295, Note_on_c, 1, 28, 85
1, 28296, Note_on_c, 2, 64, 90
1, 28296, Note_on_c, 2, 72, 97
1, 28296, Note_on_c, 2, 69, 93
1, 28296, Note_on_c, 7, 64, 83
1, 28296, Note_on_c, 9, 69, 45
1, 28297, Note_on_c, 9, 36, 109
1, 28297, Note_off_c, 9, 69, 64
1, 28298, Note_off_c, 9, 36, 64
1, 28302, Note_off_c, 3, 60, 64
1, 28313, Note_off_c, 2, 69, 64
1, 28314, Note_off_c, 1, 28, 64
1, 28314, Note_off_c, 2, 72, 64
1, 28315, Note_off_c, 7, 64, 64
1, 28316, Note_off_c, 2, 64, 64
1, 28319, Note_on_c, 9, 42, 85
1, 28319, Note_on_c, 1, 33, 98
1, 28320, Note_off_c, 9, 42, 64
1, 28321, Note_on_c, 9, 36, 114
1, 28321, Note_on_c, 9, 69, 42
1, 28322, Note_off_c, 9, 36, 64
1, 28322, Note_off_c, 9, 69, 64
1, 28327, Note_off_c, 4, 57, 64
1, 28344, Lyric_t, "And "
1, 28344, Note_on_c, 3, 71, 111
1, 28344, Note_on_c, 4, 62, 109
1, 28344, Note_on_c, 9, 47, 109
1, 28344, Note_on_c, 2, 69, 97
1, 28344, Note_on_c, 2, 72, 90
1, 28344, Note_on_c, 2, 64, 106
1, 28345, Note_off_c, 9, 47, 64
1, 28345, Note_on_c, 7, 57, 90
1, 28345, Note_on_c, 9, 69, 30
1, 28346, Note_off_c, 9, 69, 64
1, 28360, Note_off_c, 3, 71, 64
1, 28360, Note_off_c, 7, 57, 64
1, 28361, Note_off_c, 2, 69, 64
1, 28366, Note_off_c, 1, 33, 64
1, 28366, Note_off_c, 2, 72, 64
1, 28367, Note_off_c, 4, 62, 64
1, 28367, Note_on_c, 9, 42, 70
1, 28368, Lyric_t, "we "
1, 28368, Note_on_c, 3, 71, 102
1, 28368, Note_on_c, 4, 62, 95
1, 28368, Note_off_c, 9, 42, 64
1, 28368, Note_on_c, 2, 71, 87
1, 28368, Note_on_c, 2, 67, 78
1, 28368, Note_on_c, 9, 69, 60
1, 28369, Note_off_c, 9, 69, 64
1, 28381, Note_off_c, 3, 71, 64
1, 28382, Note_off_c, 2, 71, 64
1, 28386, Note_off_c, 2, 67, 64
1, 28388, Note_off_c, 2, 64, 64
1, 28391, Note_off_c, 4, 62, 64
1, 28392, Lyric_t, "got "
1, 28392, Note_on_c, 3, 71, 95
1, 28392, Note_on_c, 4, 62, 104
1, 28392, Note_on_c, 9, 45, 109
1, 28392, Note_on_c, 7, 57, 83
1, 28392, Note_on_c, 9, 69, 30
1, 28393, Note_off_c, 9, 45, 64
1, 28393, Note_on_c, 8, 57, 78
1, 28393, Note_on_c, 8, 60, 62
1, 28393, Note_off_c, 9, 69, 64
1, 28394, Note_on_c, 8, 64, 45
1, 28398, Note_off_c, 8, 60, 64
1, 28398, Note_off_c, 8, 57, 64
1, 28400, Note_off_c, 8, 64, 64
1, 28406, Note_off_c, 7, 57, 64
1, 28408, Note_off_c, 3, 71, 64
1, 28415, Note_off_c, 4, 62, 64
1, 28416, Note_on_c, 4, 62, 91
1, 28416, Note_on_c, 2, 69, 111
1, 28416, Note_on_c, 2, 72, 106
1, 28416, Note_on_c, 2, 64, 106
1, 28417, Lyric_t, "noth"
1, 28417, Note_on_c, 3, 71, 95
1, 28417, Note_on_c, 9, 42, 85
1, 28417, Note_on_c, 7, 60, 74
1, 28417, Note_on_c, 8, 57, 71
1, 28417, Note_on_c, 8, 60, 68
1, 28417, Note_on_c, 8, 64, 53
1, 28417, Note_on_c, 9, 69, 40
1, 28418, Note_off_c, 9, 42, 64
1, 28418, Note_off_c, 9, 69, 64
1, 28423, Note_off_c, 8, 64, 64
1, 28426, Note_off_c, 7, 60, 64
1, 28426, Note_off_c, 8, 60, 64
1, 28426, Note_off_c, 8, 57, 64
1, 28430, Note_off_c, 3, 71, 64
1, 28439, Note_off_c, 4, 62, 64
1, 28439, Note_on_c, 1, 31, 92
1, 28439, Note_on_c, 7, 60, 63
1, 28439, Note_on_c, 9, 69, 31
1, 28440, Note_on_c, 4, 62, 95
1, 28440, Note_on_c, 9, 43, 98
1, 28440, Note_off_c, 9, 69, 64
1, 28441, Lyric_t, "ing "
1, 28441, Note_on_c, 3, 71, 98
1, 28441, Note_off_c, 9, 43, 64
1, 28444, Note_off_c, 2, 64, 64
1, 28456, Note_off_c, 3, 71, 64
1, 28459, Note_off_c, 1, 31, 64
1, 28460, Note_off_c, 2, 69, 64
1, 28460, Note_off_c, 7, 60, 64
1, 28463, Note_off_c, 4, 62, 64
1, 28463, Note_on_c, 1, 33, 87
1, 28464, Note_on_c, 4, 62, 88
1, 28464, Note_on_c, 9, 42, 85
1, 28464, Note_off_c, 2, 72, 64
1, 28464, Note_on_c, 2, 64, 100
1, 28464, Note_on_c, 2, 67, 80
1, 28464, Note_on_c, 2, 71, 90
1, 28464, Note_on_c, 8, 57, 84
1, 28464, Note_on_c, 8, 64, 71
1, 28464, Note_on_c, 9, 69, 59
1, 28465, Lyric_t, "to "
1, 28465, Note_on_c, 3, 71, 102
1, 28465, Note_off_c, 9, 42, 64
1, 28465, Note_on_c, 9, 43, 91
1, 28465, Note_on_c, 7, 57, 68
1, 28465, Note_on_c, 8, 60, 62
1, 28465, Note_off_c, 9, 69, 64
1, 28466, Note_off_c, 9, 43, 64
1, 28472, Note_off_c, 8, 60, 64
1, 28474, Note_off_c, 8, 64, 64
1, 28474, Note_off_c, 8, 57, 64
1, 28476, Note_off_c, 1, 33, 64
1, 28478, Note_off_c, 3, 71, 64
1, 28482, Note_off_c, 7, 57, 64
1, 28485, Note_off_c, 2, 71, 64
1, 28487, Note_off_c, 4, 62, 64
1, 28487, Note_on_c, 1, 33, 81
1, 28488, Note_on_c, 4, 62, 95
1, 28488, Note_off_c, 2, 64, 64
1, 28489, Lyric_t, "be "
1, 28489, Note_on_c, 3, 71, 102
1, 28489, Note_on_c, 9, 43, 80
1, 28489, Note_off_c, 2, 67, 64
1, 28489, Note_on_c, 9, 69, 40
1, 28490, Note_off_c, 9, 43, 64
1, 28490, Note_off_c, 9, 69, 64
1, 28501, Note_off_c, 3, 71, 64
1, 28510, Note_off_c, 1, 33, 64
1, 28511, Note_off_c, 4, 62, 64
1, 28511, Note_on_c, 1, 36, 111
1, 28511, Note_off_c, 11, 64, 64
1, 28512, Note_on_c, 4, 62, 104
1, 28512, Note_on_c, 2, 62, 90
1, 28512, Note_on_c, 2, 64, 87
1, 28512, Note_on_c, 2, 67, 100
1, 28512, Note_on_c, 2, 71, 106
1, 28512, Note_on_c, 7, 55, 70
1, 28512, Note_off_c, 11, 69, 64
1, 28512, Note_off_c, 11, 60, 64
1, 28512, Note_on_c, 11, 67, 54
1, 28512, Note_on_c, 11, 59, 54
1, 28512, Note_on_c, 11, 64, 54
1, 28512, Note_on_c, 11, 62, 54
1, 28512, Note_on_c, 9, 69, 30
1, 28513, Lyric_t, "sor"
1, 28513, Note_on_c, 3, 71, 116
1, 28513, Note_on_c, 9, 36, 114
1, 28513, Note_on_c, 9, 57, 78
1, 28513, Note_off_c, 9, 69, 64
1, 28514, Note_off_c, 9, 57, 64
1, 28514, Note_off_c, 9, 36, 64
1, 28522, Note_off_c, 2, 67, 64
1, 28522, Note_off_c, 2, 62, 64
1, 28525, Note_off_c, 2, 71, 64
1, 28528, Note_off_c, 7, 55, 64
1, 28535, Note_on_c, 9, 69, 30
1, 28536, Note_on_c, 2, 62, 62
1, 28536, Note_on_c, 2, 71, 75
1, 28536, Note_on_c, 2, 67, 78
1, 28536, Note_off_c, 9, 69, 64
1, 28537, Note_on_c, 7, 55, 74
1, 28546, Note_off_c, 3, 71, 64
1, 28552, Note_off_c, 1, 36, 64
1, 28554, Note_off_c, 2, 64, 64
1, 28554, Note_off_c, 7, 55, 64
1, 28558, Note_off_c, 2, 67, 64
1, 28558, Note_off_c, 2, 71, 64
1, 28559, Note_on_c, 9, 69, 63
1, 28560, Note_on_c, 2, 69, 82
1, 28560, Note_on_c, 2, 60, 73
1, 28560, Note_off_c, 9, 69, 64
1, 28561, Note_on_c, 9, 44, 68
1, 28561, Note_off_c, 2, 62, 64
1, 28561, Note_on_c, 7, 57, 74
1, 28562, Note_off_c, 9, 44, 64
1, 28576, Note_off_c, 2, 69, 64
1, 28579, Note_off_c, 7, 57, 64
1, 28582, Note_off_c, 2, 60, 64
1, 28584, Note_off_c, 4, 62, 64
1, 28584, Note_on_c, 4, 60, 95
1, 28584, Note_on_c, 2, 67, 93
1, 28584, Note_on_c, 2, 71, 97
1, 28584, Note_on_c, 2, 64, 80
1, 28584, Note_on_c, 2, 62, 93
1, 28584, Note_on_c, 9, 69, 38
1, 28585, Note_on_c, 9, 42, 70
1, 28585, Note_on_c, 7, 59, 87
1, 28585, Note_on_c, 8, 64, 62
1, 28585, Note_on_c, 8, 55, 68
1, 28585, Note_on_c, 8, 59, 65
1, 28585, Note_off_c, 9, 69, 64
1, 28586, Lyric_t, "ry "
1, 28586, Note_on_c, 3, 69, 111
1, 28586, Note_off_c, 9, 42, 64
1, 28590, Note_off_c, 8, 64, 64
1, 28591, Note_off_c, 8, 59, 64
1, 28594, Note_off_c, 8, 55, 64
1, 28598, Note_off_c, 2, 62, 64
1, 28602, Note_off_c, 7, 59, 64
1, 28605, Note_off_c, 2, 64, 64
1, 28605, Note_off_c, 2, 67, 64
1, 28606, Note_off_c, 2, 71, 64
1, 28608, Note_on_c, 9, 69, 22
1, 28609, Note_on_c, 9, 40, 120
1, 28609, Note_on_c, 8, 59, 78
1, 28609, Note_on_c, 8, 64, 71
1, 28609, Note_on_c, 8, 55, 84
1, 28609, Note_off_c, 9, 69, 64
1, 28610, Note_off_c, 9, 40, 64
1, 28615, Note_off_c, 3, 69, 64
1, 28618, Note_off_c, 8, 64, 64
1, 28619, Note_off_c, 8, 59, 64
1, 28620, Note_off_c, 8, 55, 64
1, 28632, Note_on_c, 9, 44, 68
1, 28632, Note_on_c, 2, 71, 97
1, 28632, Note_on_c, 2, 67, 97
1, 28632, Note_on_c, 2, 62, 82
1, 28632, Note_on_c, 2, 64, 82
1, 28633, Note_off_c, 9, 44, 64
1, 28633, Note_on_c, 7, 55, 72
1, 28633, Note_on_c, 9, 69, 34
1, 28634, Note_off_c, 9, 69, 64
1, 28646, Note_off_c, 7, 55, 64
1, 28648, Note_off_c, 2, 64, 64
1, 28650, Note_off_c, 2, 62, 64
1, 28653, Note_off_c, 2, 67, 64
1, 28655, Note_on_c, 9, 42, 64
1, 28656, Note_off_c, 4, 60, 64
1, 28656, Note_on_c, 4, 62, 104
1, 28656, Note_off_c, 9, 42, 64
1, 28656, Note_off_c, 2, 71, 64
1, 28656, Note_on_c, 2, 60, 72
1, 28656, Note_on_c, 2, 69, 78
1, 28657, Lyric_t, "for, "
1, 28657, Lyric_t, "\015"
1, 28657, Note_on_c, 3, 71, 121
1, 28657, Note_on_c, 9, 69, 53
1, 28658, Note_off_c, 9, 69, 64
1, 28673, Note_off_c, 2, 69, 64
1, 28676, Note_off_c, 2, 60, 64
1, 28679, Note_on_c, 1, 36, 102
1, 28679, Note_on_c, 7, 64, 80
1, 28680, Note_on_c, 2, 71, 93
1, 28680, Note_on_c, 2, 67, 100
1, 28680, Note_on_c, 2, 62, 100
1, 28680, Note_on_c, 2, 64, 90
1, 28681, Note_on_c, 9, 36, 124
1, 28681, Note_on_c, 9, 69, 36
1, 28682, Note_off_c, 9, 36, 64
1, 28682, Note_off_c, 9, 69, 64
1, 28695, Note_off_c, 7, 64, 64
1, 28696, Note_off_c, 3, 71, 64
1, 28696, Note_off_c, 2, 64, 64
1, 28700, Note_off_c, 2, 62, 64
1, 28700, Note_off_c, 2, 67, 64
1, 28701, Note_off_c, 1, 36, 64
1, 28702, Note_off_c, 2, 71, 64
1, 28703, Note_on_c, 9, 42, 81
1, 28704, Note_off_c, 9, 42, 64
1, 28705, Note_on_c, 9, 69, 31
1, 28706, Note_off_c, 9, 69, 64
1, 28727, Note_on_c, 7, 55, 72
1, 28728, Note_on_c, 1, 36, 95
1, 28728, Note_on_c, 2, 71, 93
1, 28728, Note_on_c, 2, 67, 97
1, 28728, Note_on_c, 2, 62, 90
1, 28728, Note_on_c, 2, 64, 82
1, 28729, Note_on_c, 9, 69, 23
1, 28730, Note_off_c, 9, 69, 64
1, 28742, Note_off_c, 1, 36, 64
1, 28743, Note_off_c, 7, 55, 64
1, 28745, Note_off_c, 2, 62, 64
1, 28746, Note_off_c, 2, 64, 64
1, 28746, Note_off_c, 2, 67, 64
1, 28750, Note_off_c, 2, 71, 64
1, 28751, Note_on_c, 1, 36, 85
1, 28751, Note_on_c, 9, 69, 51
1, 28752, Note_on_c, 9, 36, 114
1, 28752, Note_on_c, 2, 60, 69
1, 28752, Note_on_c, 2, 69, 76
1, 28752, Note_off_c, 9, 69, 64
1, 28753, Note_off_c, 9, 36, 64
1, 28753, Note_on_c, 9, 42, 70
1, 28754, Note_off_c, 9, 42, 64
1, 28768, Note_off_c, 2, 69, 64
1, 28775, Note_on_c, 7, 55, 56
1, 28775, Note_on_c, 8, 55, 62
1, 28775, Note_on_c, 8, 64, 62
1, 28776, Note_on_c, 8, 59, 62
1, 28776, Note_on_c, 9, 69, 34
1, 28777, Note_off_c, 9, 69, 64
1, 28778, Note_off_c, 1, 36, 64
1, 28778, Note_off_c, 2, 60, 64
1, 28781, Note_off_c, 8, 64, 64
1, 28782, Note_off_c, 8, 59, 64
1, 28782, Note_off_c, 8, 55, 64
1, 28784, Note_off_c, 7, 55, 64
1, 28799, Lyric_t, "our "
1, 28799, Note_on_c, 3, 69, 116
1, 28799, Note_on_c, 9, 42, 81
1, 28799, Note_on_c, 8, 55, 68
1, 28800, Note_off_c, 4, 62, 64
1, 28800, Note_on_c, 4, 60, 91
1, 28800, Note_off_c, 9, 42, 64
1, 28800, Note_on_c, 2, 67, 106
1, 28800, Note_on_c, 2, 71, 111
1, 28800, Note_on_c, 2, 64, 93
1, 28800, Note_on_c, 2, 62, 100
1, 28801, Note_on_c, 9, 40, 124
1, 28801, Note_on_c, 7, 59, 87
1, 28801, Note_on_c, 8, 59, 75
1, 28801, Note_on_c, 8, 64, 68
1, 28802, Note_off_c, 9, 40, 64
1, 28807, Note_off_c, 8, 64, 64
1, 28808, Note_off_c, 8, 59, 64
1, 28809, Note_off_c, 8, 55, 64
1, 28813, Note_off_c, 7, 59, 64
1, 28823, Note_on_c, 9, 44, 63
1, 28823, Note_on_c, 9, 69, 22
1, 28824, Note_off_c, 9, 44, 64
1, 28824, Note_on_c, 1, 36, 102
1, 28824, Note_on_c, 7, 59, 77
1, 28824, Note_off_c, 9, 69, 64
1, 28832, Note_off_c, 3, 69, 64
1, 28839, Note_off_c, 7, 59, 64
1, 28842, Note_off_c, 1, 36, 64
1, 28842, Note_off_c, 2, 71, 64
1, 28844, Note_off_c, 2, 62, 64
1, 28846, Note_off_c, 2, 64, 64
1, 28846, Note_off_c, 2, 67, 64
1, 28846, Note_on_c, 2, 60, 80
1, 28847, Note_on_c, 9, 46, 78
1, 28847, Note_on_c, 1, 31, 77
1, 28847, Note_on_c, 9, 69, 51
1, 28848, Note_off_c, 4, 60, 64
1, 28848, Note_on_c, 4, 62, 98
1, 28848, Note_off_c, 9, 46, 64
1, 28848, Note_on_c, 2, 69, 87
1, 28848, Note_off_c, 9, 69, 64
1, 28849, Lyric_t, "love "
1, 28849, Note_on_c, 3, 71, 111
1, 28849, Note_on_c, 7, 55, 66
1, 28849, Note_on_c, 8, 55, 75
1, 28849, Note_on_c, 8, 59, 75
1, 28849, Note_on_c, 8, 64, 68
1, 28855, Note_off_c, 8, 64, 64
1, 28858, Note_off_c, 8, 59, 64
1, 28859, Note_off_c, 8, 55, 64
1, 28867, Note_off_c, 7, 55, 64
1, 28870, Note_off_c, 1, 31, 64
1, 28871, Note_on_c, 1, 33, 95
1, 28871, Note_on_c, 9, 69, 48
1, 28872, Note_off_c, 9, 69, 64
1, 28886, Note_off_c, 2, 69, 64
1, 28892, Note_off_c, 2, 60, 64
1, 28894, Note_on_c, 2, 67, 100
1, 28894, Note_on_c, 2, 71, 100
1, 28894, Note_on_c, 2, 64, 84
1, 28895, Note_on_c, 9, 36, 114
1, 28895, Note_off_c, 1, 33, 64
1, 28895, Note_on_c, 1, 36, 102
1, 28896, Time_signature, 3, 2, 24, 8
1, 28896, Note_off_c, 9, 36, 64
1, 28896, Note_on_c, 2, 62, 93
1, 28896, Note_on_c, 7, 55, 77
1, 28897, Note_on_c, 9, 42, 85
1, 28898, Note_off_c, 9, 42, 64
1, 28898, Note_on_c, 9, 69, 33
1, 28899, Note_off_c, 9, 69, 64
1, 28904, Note_off_c, 2, 64, 64
1, 28906, Note_off_c, 2, 62, 64
1, 28906, Note_off_c, 2, 67, 64
1, 28907, Note_off_c, 2, 71, 64
1, 28907, Note_off_c, 7, 55, 64
1, 28918, Note_on_c, 2, 71, 90
1, 28918, Note_on_c, 2, 67, 84
1, 28919, Note_on_c, 7, 55, 60
1, 28920, Note_on_c, 2, 62, 87
1, 28920, Note_on_c, 2, 64, 72
1, 28921, Note_off_c, 3, 71, 64
1, 28921, Note_on_c, 9, 69, 26
1, 28922, Note_off_c, 9, 69, 64
1, 28931, Note_off_c, 1, 36, 64
1, 28933, Note_off_c, 7, 55, 64
1, 28936, Note_off_c, 2, 67, 64
1, 28938, Note_off_c, 2, 62, 64
1, 28940, Note_off_c, 2, 71, 64
1, 28941, Note_off_c, 2, 64, 64
1, 28943, Note_on_c, 9, 44, 70
1, 28943, Note_on_c, 7, 57, 66
1, 28944, Note_off_c, 4, 62, 64
1, 28944, Note_off_c, 9, 44, 64
1, 28944, Note_on_c, 2, 60, 76
1, 28944, Note_on_c, 2, 69, 80
1, 28945, Note_on_c, 9, 69, 61
1, 28946, Note_off_c, 9, 69, 64
1, 28961, Note_off_c, 2, 69, 64
1, 28966, Note_off_c, 2, 60, 64
1, 28966, Note_off_c, 7, 57, 64
1, 28967, Lyric_t, "is "
1, 28967, Note_on_c, 3, 69, 111
1, 28967, Note_on_c, 8, 64, 68
1, 28967, Note_on_c, 8, 55, 68
1, 28967, Note_on_c, 8, 59, 68
1, 28968, Note_on_c, 4, 60, 95
1, 28968, Note_on_c, 9, 42, 78
1, 28968, Note_on_c, 2, 71, 87
1, 28968, Note_on_c, 2, 67, 87
1, 28968, Note_on_c, 2, 64, 82
1, 28968, Note_on_c, 2, 62, 93
1, 28968, Note_on_c, 7, 59, 77
1, 28968, Note_on_c, 9, 69, 40
1, 28969, Note_off_c, 9, 42, 64
1, 28969, Note_off_c, 9, 69, 64
1, 28974, Note_off_c, 8, 59, 64
1, 28976, Note_off_c, 8, 64, 64
1, 28977, Note_off_c, 3, 69, 64
1, 28977, Note_off_c, 8, 55, 64
1, 28980, Note_off_c, 2, 64, 64
1, 28982, Note_off_c, 2, 67, 64
1, 28983, Note_off_c, 7, 59, 64
1, 28984, Note_off_c, 2, 62, 64
1, 28988, Note_off_c, 2, 71, 64
1, 28991, Note_off_c, 4, 60, 64
1, 28991, Note_on_c, 9, 40, 124
1, 28992, Note_on_c, 4, 60, 91
1, 28992, Note_off_c, 9, 40, 64
1, 28992, Note_on_c, 8, 59, 68
1, 28992, Note_on_c, 8, 55, 78
1, 28992, Note_on_c, 8, 64, 71
1, 28993, Lyric_t, "one "
1, 28993, Note_on_c, 3, 69, 105
1, 28994, Note_on_c, 9, 69, 33
1, 28995, Note_off_c, 9, 69, 64
1, 29001, Note_off_c, 8, 64, 64
1, 29002, Note_off_c, 8, 55, 64
1, 29003, Note_off_c, 8, 59, 64
1, 29010, Note_off_c, 3, 69, 64
1, 29014, Note_on_c, 2, 67, 90
1, 29014, Note_on_c, 2, 71, 90
1, 29014, Note_on_c, 2, 62, 93
1, 29015, Note_on_c, 9, 44, 70
1, 29016, Note_off_c, 4, 60, 64
1, 29016, Note_on_c, 4, 62, 91
1, 29016, Note_off_c, 9, 44, 64
1, 29016, Note_on_c, 2, 64, 75
1, 29017, Lyric_t, "in "
1, 29017, Note_on_c, 3, 71, 105
1, 29017, Note_on_c, 7, 55, 63
1, 29017, Note_on_c, 9, 69, 30
1, 29018, Note_off_c, 9, 69, 64
1, 29024, Note_off_c, 2, 64, 64
1, 29031, Note_off_c, 3, 71, 64
1, 29031, Note_off_c, 2, 67, 64
1, 29033, Note_off_c, 2, 62, 64
1, 29034, Note_off_c, 7, 55, 64
1, 29036, Note_off_c, 2, 71, 64
1, 29038, Note_on_c, 2, 60, 75
1, 29038, Note_on_c, 2, 69, 90
1, 29039, Note_on_c, 9, 42, 81
1, 29040, Lyric_t, "a "
1, 29040, Note_on_c, 3, 72, 102
1, 29040, Note_off_c, 4, 62, 64
1, 29040, Note_on_c, 4, 64, 91
1, 29040, Note_off_c, 9, 42, 64
1, 29042, Note_on_c, 9, 69, 52
1, 29043, Note_off_c, 9, 69, 64
1, 29058, Note_off_c, 2, 69, 64
1, 29059, Note_off_c, 3, 72, 64
1, 29061, Note_off_c, 2, 60, 64
1, 29063, Note_on_c, 9, 36, 114
1, 29063, Note_on_c, 1, 36, 105
1, 29063, Note_on_c, 7, 64, 77
1, 29064, Note_off_c, 4, 64, 64
1, 29064, Note_on_c, 4, 62, 104
1, 29064, Note_off_c, 9, 36, 64
1, 29064, Note_on_c, 2, 64, 84
1, 29064, Note_on_c, 2, 67, 97
1, 29064, Note_on_c, 2, 71, 90
1, 29064, Note_on_c, 2, 62, 97
1, 29065, Lyric_t, "mil"
1, 29065, Note_on_c, 3, 71, 111
1, 29065, Note_on_c, 9, 69, 36
1, 29066, Note_off_c, 9, 69, 64
1, 29078, Note_off_c, 2, 64, 64
1, 29080, Note_off_c, 2, 62, 64
1, 29081, Note_off_c, 2, 67, 64
1, 29081, Note_off_c, 7, 64, 64
1, 29084, Note_off_c, 2, 71, 64
1, 29087, Note_on_c, 9, 42, 81
1, 29088, Note_off_c, 9, 42, 64
1, 29088, Note_off_c, 11, 62, 64
1, 29089, Note_on_c, 9, 69, 40
1, 29090, Note_off_c, 9, 69, 64
1, 29095, Note_off_c, 1, 36, 64
1, 29111, Note_on_c, 7, 55, 80
1, 29112, Note_on_c, 2, 62, 93
1, 29112, Note_on_c, 2, 64, 84
1, 29112, Note_on_c, 2, 67, 97
1, 29112, Note_on_c, 2, 71, 100
1, 29113, Note_on_c, 9, 69, 23
1, 29114, Note_off_c, 9, 69, 64
1, 29130, Note_off_c, 7, 55, 64
1, 29133, Note_off_c, 3, 71, 64
1, 29134, Note_off_c, 2, 71, 64
1, 29134, Note_off_c, 2, 67, 64
1, 29134, Note_on_c, 2, 60, 87
1, 29135, Note_on_c, 9, 40, 109
1, 29135, Note_on_c, 9, 42, 94
1, 29135, Note_on_c, 1, 36, 98
1, 29136, Lyric_t, "lion. "
1, 29136, Lyric_t, "\015"
1, 29136, Note_on_c, 3, 69, 111
1, 29136, Note_off_c, 4, 62, 64
1, 29136, Note_on_c, 4, 60, 98
1, 29136, Note_off_c, 9, 42, 64
1, 29136, Note_off_c, 9, 40, 64
1, 29136, Note_off_c, 2, 62, 64
1, 29136, Note_on_c, 2, 69, 93
1, 29136, Note_on_c, 9, 69, 58
1, 29137, Note_off_c, 9, 69, 64
1, 29152, Lyric_t, "\012"
1, 29154, Note_off_c, 3, 69, 64
1, 29158, Note_off_c, 2, 60, 64
1, 29159, Note_on_c, 9, 40, 91
1, 29159, Note_on_c, 7, 55, 72
1, 29160, Note_off_c, 9, 40, 64
1, 29162, Note_off_c, 2, 64, 64
1, 29162, Note_on_c, 9, 69, 48
1, 29163, Note_off_c, 9, 69, 64
1, 29164, Note_off_c, 2, 69, 64
1, 29170, Note_off_c, 7, 55, 64
1, 29182, Note_on_c, 2, 69, 97
1, 29183, Lyric_t, "Eyes "
1, 29183, Note_on_c, 3, 69, 116
1, 29183, Note_off_c, 4, 60, 64
1, 29183, Note_on_c, 9, 36, 120
1, 29183, Note_off_c, 1, 36, 64
1, 29183, Note_on_c, 1, 31, 98
1, 29184, Time_signature, 4, 2, 24, 8
1, 29184, Note_on_c, 4, 60, 104
1, 29184, Note_off_c, 9, 36, 64
1, 29184, Note_on_c, 9, 57, 88
1, 29184, Note_on_c, 2, 64, 80
1, 29184, Note_on_c, 2, 65, 93
1, 29184, Note_on_c, 2, 72, 106
1, 29184, Note_off_c, 11, 67, 64
1, 29184, Note_off_c, 11, 59, 64
1, 29184, Note_off_c, 11, 64, 64
1, 29184, Note_on_c, 11, 62, 58
1, 29184, Note_on_c, 11, 60, 58
1, 29184, Note_on_c, 11, 69, 58
1, 29184, Note_on_c, 11, 65, 58
1, 29185, Note_off_c, 9, 57, 64
1, 29185, Note_on_c, 7, 57, 90
1, 29186, Note_on_c, 9, 69, 23
1, 29187, Note_off_c, 9, 69, 64
1, 29195, Note_off_c, 7, 57, 64
1, 29197, Note_off_c, 2, 64, 64
1, 29197, Note_off_c, 2, 69, 64
1, 29200, Note_off_c, 2, 72, 64
1, 29208, Note_on_c, 2, 64, 73
1, 29208, Note_on_c, 2, 69, 93
1, 29208, Note_on_c, 2, 72, 80
1, 29208, Note_on_c, 7, 57, 80
1, 29209, Note_on_c, 9, 69, 24
1, 29210, Note_off_c, 9, 69, 64
1, 29226, Note_off_c, 7, 57, 64
1, 29228, Note_off_c, 2, 72, 64
1, 29228, Note_off_c, 2, 69, 64
1, 29229, Note_off_c, 2, 64, 64
1, 29230, Note_off_c, 1, 31, 64
1, 29230, Note_on_c, 2, 71, 97
1, 29230, Note_on_c, 2, 62, 84
1, 29231, Note_on_c, 9, 44, 68
1, 29232, Note_off_c, 9, 44, 64
1, 29232, Note_on_c, 7, 59, 74
1, 29233, Note_on_c, 9, 69, 62
1, 29234, Note_off_c, 9, 69, 64
1, 29242, Note_off_c, 2, 65, 64
1, 29246, Note_off_c, 2, 71, 64
1, 29250, Note_off_c, 3, 69, 64
1, 29251, Note_off_c, 2, 62, 64
1, 29254, Note_off_c, 7, 59, 64
1, 29256, Note_off_c, 4, 60, 64
1, 29256, Note_on_c, 4, 59, 114
1, 29256, Note_on_c, 2, 69, 93
1, 29256, Note_on_c, 2, 65, 93
1, 29256, Note_on_c, 2, 64, 100
1, 29256, Note_on_c, 2, 72, 87
1, 29256, Note_on_c, 8, 57, 62
1, 29256, Note_on_c, 8, 60, 53
1, 29256, Note_on_c, 8, 65, 60
1, 29257, Lyric_t, "can "
1, 29257, Note_on_c, 3, 67, 105
1, 29257, Note_on_c, 9, 42, 78
1, 29257, Note_on_c, 7, 60, 74
1, 29257, Note_on_c, 9, 69, 38
1, 29258, Note_off_c, 9, 42, 64
1, 29258, Note_off_c, 9, 69, 64
1, 29262, Note_off_c, 8, 65, 64
1, 29263, Note_off_c, 8, 60, 64
1, 29264, Note_off_c, 8, 57, 64
1, 29273, Note_off_c, 7, 60, 64
1, 29274, Note_off_c, 2, 64, 64
1, 29276, Note_off_c, 2, 69, 64
1, 29277, Note_off_c, 2, 72, 64
1, 29278, Note_off_c, 2, 65, 64
1, 29281, Note_on_c, 9, 40, 114
1, 29281, Note_on_c, 8, 57, 78
1, 29281, Note_on_c, 8, 60, 68
1, 29281, Note_on_c, 8, 65, 78
1, 29282, Note_off_c, 9, 40, 64
1, 29292, Note_off_c, 8, 60, 64
1, 29293, Note_off_c, 8, 65, 64
1, 29295, Note_off_c, 8, 57, 64
1, 29303, Note_on_c, 9, 44, 70
1, 29304, Note_off_c, 9, 44, 64
1, 29304, Note_on_c, 2, 72, 97
1, 29304, Note_on_c, 2, 69, 90
1, 29304, Note_on_c, 2, 64, 93
1, 29304, Note_on_c, 2, 65, 80
1, 29305, Note_on_c, 7, 57, 77
1, 29305, Note_on_c, 9, 69, 40
1, 29306, Note_off_c, 9, 69, 64
1, 29316, Note_off_c, 2, 65, 64
1, 29320, Note_off_c, 2, 64, 64
1, 29321, Note_off_c, 2, 69, 64
1, 29322, Note_off_c, 3, 67, 64
1, 29322, Note_off_c, 7, 57, 64
1, 29324, Note_off_c, 2, 72, 64
1, 29326, Note_on_c, 2, 62, 80
1, 29326, Note_on_c, 2, 71, 93
1, 29327, Note_on_c, 9, 42, 68
1, 29328, Note_off_c, 4, 59, 64
1, 29328, Note_on_c, 4, 60, 95
1, 29328, Note_off_c, 9, 42, 64
1, 29329, Lyric_t, "see "
1, 29329, Note_on_c, 3, 69, 121
1, 29329, Note_on_c, 9, 69, 63
1, 29330, Note_off_c, 9, 69, 64
1, 29341, Note_off_c, 2, 71, 64
1, 29350, Note_off_c, 2, 62, 64
1, 29350, Note_on_c, 2, 72, 93
1, 29351, Note_on_c, 1, 31, 95
1, 29352, Note_on_c, 9, 36, 109
1, 29352, Note_on_c, 2, 69, 90
1, 29352, Note_on_c, 2, 65, 78
1, 29352, Note_on_c, 2, 64, 90
1, 29352, Note_on_c, 7, 65, 83
1, 29353, Note_off_c, 9, 36, 64
1, 29353, Note_on_c, 9, 69, 48
1, 29354, Note_off_c, 9, 69, 64
1, 29368, Note_off_c, 2, 64, 64
1, 29369, Note_off_c, 7, 65, 64
1, 29372, Note_off_c, 2, 72, 64
1, 29373, Note_off_c, 2, 69, 64
1, 29374, Note_off_c, 2, 65, 64
1, 29375, Note_on_c, 9, 42, 85
1, 29376, Note_off_c, 9, 42, 64
1, 29376, Note_on_c, 9, 69, 20
1, 29377, Note_off_c, 9, 69, 64
1, 29378, Note_off_c, 1, 31, 64
1, 29399, Note_on_c, 1, 31, 98
1, 29399, Note_on_c, 9, 69, 36
1, 29400, Note_on_c, 2, 64, 90
1, 29400, Note_on_c, 2, 69, 100
1, 29400, Note_on_c, 2, 72, 97
1, 29400, Note_on_c, 2, 65, 90
1, 29400, Note_on_c, 7, 57, 83
1, 29400, Note_off_c, 9, 69, 64
1, 29405, Note_off_c, 3, 69, 64
1, 29412, Note_off_c, 1, 31, 64
1, 29414, Note_off_c, 2, 65, 64
1, 29418, Note_off_c, 2, 69, 64
1, 29418, Note_off_c, 7, 57, 64
1, 29420, Note_off_c, 2, 72, 64
1, 29420, Note_off_c, 2, 64, 64
1, 29422, Note_on_c, 2, 62, 82
1, 29423, Note_on_c, 9, 36, 109
1, 29423, Note_on_c, 9, 42, 78
1, 29423, Note_on_c, 1, 31, 92
1, 29423, Note_on_c, 9, 69, 58
1, 29424, Note_off_c, 9, 42, 64
1, 29424, Note_off_c, 9, 36, 64
1, 29424, Note_on_c, 2, 71, 82
1, 29424, Note_off_c, 9, 69, 64
1, 29437, Note_off_c, 2, 71, 64
1, 29447, Note_on_c, 8, 57, 71
1, 29447, Note_on_c, 8, 65, 71
1, 29447, Note_on_c, 8, 60, 62
1, 29447, Note_on_c, 9, 69, 36
1, 29448, Note_off_c, 9, 69, 64
1, 29449, Note_on_c, 7, 57, 63
1, 29450, Note_off_c, 2, 62, 64
1, 29452, Note_off_c, 8, 65, 64
1, 29453, Note_off_c, 8, 60, 64
1, 29454, Note_off_c, 8, 57, 64
1, 29460, Note_off_c, 7, 57, 64
1, 29469, Note_off_c, 1, 31, 64
1, 29471, Note_on_c, 9, 40, 124
1, 29471, Note_on_c, 9, 42, 94
1, 29471, Note_on_c, 8, 60, 71
1, 29471, Note_on_c, 8, 57, 78
1, 29471, Note_on_c, 8, 65, 75
1, 29472, Lyric_t, "that "
1, 29472, Note_on_c, 3, 67, 105
1, 29472, Note_off_c, 4, 60, 64
1, 29472, Note_on_c, 4, 59, 104
1, 29472, Note_off_c, 9, 42, 64
1, 29472, Note_off_c, 9, 40, 64
1, 29472, Note_on_c, 2, 69, 106
1, 29472, Note_on_c, 2, 72, 100
1, 29472, Note_on_c, 2, 64, 97
1, 29472, Note_on_c, 2, 65, 100
1, 29473, Note_on_c, 7, 60, 87
1, 29473, Note_on_c, 9, 69, 22
1, 29474, Note_off_c, 9, 69, 64
1, 29479, Note_off_c, 8, 65, 64
1, 29479, Note_off_c, 8, 57, 64
1, 29480, Note_off_c, 8, 60, 64
1, 29484, Note_off_c, 7, 60, 64
1, 29495, Note_on_c, 9, 44, 64
1, 29496, Note_off_c, 9, 44, 64
1, 29496, Note_on_c, 7, 60, 59
1, 29497, Note_on_c, 9, 69, 25
1, 29498, Note_off_c, 9, 69, 64
1, 29504, Note_off_c, 3, 67, 64
1, 29512, Note_off_c, 2, 69, 64
1, 29513, Note_off_c, 2, 64, 64
1, 29516, Note_off_c, 2, 65, 64
1, 29518, Note_off_c, 2, 72, 64
1, 29518, Note_on_c, 2, 62, 80
1, 29518, Note_off_c, 7, 60, 64
1, 29519, Note_on_c, 1, 38, 98
1, 29519, Note_on_c, 8, 57, 89
1, 29519, Note_on_c, 9, 69, 67
1, 29520, Lyric_t, "we "
1, 29520, Note_on_c, 3, 69, 116
1, 29520, Note_off_c, 4, 59, 64
1, 29520, Note_on_c, 4, 60, 98
1, 29520, Note_on_c, 2, 71, 90
1, 29520, Note_on_c, 8, 65, 89
1, 29520, Note_on_c, 8, 60, 71
1, 29520, Note_off_c, 9, 69, 64
1, 29521, Note_on_c, 9, 46, 78
1, 29521, Note_on_c, 7, 57, 74
1, 29522, Note_off_c, 9, 46, 64
1, 29530, Note_off_c, 8, 60, 64
1, 29530, Note_off_c, 8, 65, 64
1, 29530, Note_off_c, 8, 57, 64
1, 29535, Note_off_c, 7, 57, 64
1, 29538, Note_off_c, 1, 38, 64
1, 29543, Note_on_c, 1, 43, 81
1, 29543, Note_on_c, 9, 69, 38
1, 29544, Note_off_c, 9, 69, 64
1, 29550, Note_off_c, 2, 71, 64
1, 29560, Note_off_c, 2, 62, 64
1, 29566, Note_on_c, 2, 65, 82
1, 29567, Note_on_c, 9, 36, 114
1, 29567, Note_on_c, 1, 31, 98
1, 29567, Note_on_c, 7, 57, 74
1, 29568, Note_off_c, 9, 36, 64
1, 29568, Note_off_c, 1, 43, 64
1, 29568, Note_on_c, 2, 69, 100
1, 29568, Note_on_c, 2, 64, 80
1, 29568, Note_on_c, 2, 72, 106
1, 29569, Note_on_c, 9, 42, 85
1, 29569, Note_on_c, 9, 69, 12
1, 29570, Note_off_c, 9, 42, 64
1, 29570, Note_off_c, 9, 69, 64
1, 29576, Note_off_c, 2, 65, 64
1, 29578, Note_off_c, 2, 69, 64
1, 29578, Note_off_c, 2, 64, 64
1, 29580, Note_off_c, 2, 72, 64
1, 29580, Note_off_c, 7, 57, 64
1, 29590, Note_on_c, 2, 64, 75
1, 29591, Note_on_c, 7, 57, 62
1, 29592, Note_on_c, 2, 65, 73
1, 29592, Note_on_c, 2, 72, 84
1, 29592, Note_on_c, 2, 69, 90
1, 29593, Note_on_c, 9, 69, 24
1, 29594, Note_off_c, 3, 69, 64
1, 29594, Note_off_c, 9, 69, 64
1, 29603, Note_off_c, 7, 57, 64
1, 29609, Note_off_c, 2, 65, 64
1, 29610, Note_off_c, 2, 69, 64
1, 29612, Note_off_c, 2, 64, 64
1, 29614, Note_off_c, 2, 72, 64
1, 29614, Note_on_c, 2, 71, 84
1, 29615, Note_on_c, 7, 59, 72
1, 29616, Note_on_c, 2, 62, 76
1, 29617, Note_on_c, 9, 44, 72
1, 29617, Note_on_c, 9, 69, 62
1, 29618, Note_off_c, 9, 44, 64
1, 29618, Note_off_c, 9, 69, 64
1, 29622, Note_off_c, 1, 31, 64
1, 29634, Note_off_c, 2, 71, 64
1, 29636, Note_off_c, 2, 62, 64
1, 29638, Note_off_c, 7, 59, 64
1, 29639, Note_on_c, 8, 65, 78
1, 29639, Note_on_c, 8, 57, 78
1, 29639, Note_on_c, 8, 60, 65
1, 29640, Note_on_c, 2, 72, 90
1, 29640, Note_on_c, 2, 69, 100
1, 29640, Note_on_c, 2, 64, 93
1, 29640, Note_on_c, 2, 65, 87
1, 29641, Note_on_c, 9, 42, 72
1, 29641, Note_on_c, 7, 60, 80
1, 29641, Note_on_c, 9, 69, 38
1, 29642, Note_off_c, 9, 42, 64
1, 29642, Note_off_c, 9, 69, 64
1, 29645, Note_off_c, 8, 60, 64
1, 29645, Note_off_c, 8, 65, 64
1, 29646, Note_off_c, 8, 57, 64
1, 29656, Note_off_c, 7, 60, 64
1, 29658, Note_off_c, 2, 69, 64
1, 29660, Note_off_c, 2, 64, 64
1, 29661, Note_off_c, 2, 65, 64
1, 29663, Note_on_c, 9, 40, 124
1, 29663, Note_on_c, 9, 69, 19
1, 29664, Note_off_c, 4, 60, 64
1, 29664, Note_off_c, 9, 40, 64
1, 29664, Note_off_c, 2, 72, 64
1, 29664, Note_on_c, 8, 60, 75
1, 29664, Note_on_c, 8, 57, 78
1, 29664, Note_off_c, 9, 69, 64
1, 29665, Note_on_c, 8, 65, 78
1, 29674, Note_off_c, 8, 65, 64
1, 29674, Note_off_c, 8, 60, 64
1, 29675, Note_off_c, 8, 57, 64
1, 29687, Note_on_c, 9, 44, 72
1, 29687, Note_on_c, 9, 69, 30
1, 29688, Note_on_c, 4, 59, 114
1, 29688, Note_off_c, 9, 44, 64
1, 29688, Note_on_c, 2, 65, 93
1, 29688, Note_on_c, 2, 69, 100
1, 29688, Note_on_c, 2, 64, 90
1, 29688, Note_on_c, 2, 72, 100
1, 29688, Note_off_c, 9, 69, 64
1, 29689, Lyric_t, "got "
1, 29689, Note_on_c, 3, 67, 105
1, 29689, Note_on_c, 7, 57, 72
1, 29705, Note_off_c, 3, 67, 64
1, 29705, Note_off_c, 7, 57, 64
1, 29708, Note_off_c, 2, 69, 64
1, 29708, Note_off_c, 2, 65, 64
1, 29709, Note_off_c, 2, 64, 64
1, 29710, Note_on_c, 2, 62, 84
1, 29711, Note_on_c, 9, 42, 72
1, 29711, Note_on_c, 9, 69, 62
1, 29712, Note_off_c, 4, 59, 64
1, 29712, Note_on_c, 4, 60, 85
1, 29712, Note_off_c, 9, 42, 64
1, 29712, Note_off_c, 2, 72, 64
1, 29712, Note_on_c, 2, 71, 80
1, 29712, Note_off_c, 9, 69, 64
1, 29713, Lyric_t, "a "
1, 29713, Note_on_c, 3, 69, 98
1, 29728, Note_off_c, 3, 69, 64
1, 29730, Note_off_c, 2, 71, 64
1, 29733, Note_off_c, 2, 62, 64
1, 29734, Note_on_c, 9, 69, 33
1, 29735, Note_on_c, 9, 36, 114
1, 29735, Note_off_c, 9, 69, 64
1, 29736, Note_off_c, 4, 60, 64
1, 29736, Note_on_c, 4, 62, 104
1, 29736, Note_off_c, 9, 36, 64
1, 29736, Note_on_c, 2, 65, 87
1, 29736, Note_on_c, 2, 64, 90
1, 29736, Note_on_c, 2, 69, 100
1, 29736, Note_on_c, 2, 72, 93
1, 29737, Lyric_t, "high"
1, 29737, Note_on_c, 3, 71, 116
1, 29737, Note_on_c, 1, 31, 98
1, 29737, Note_on_c, 7, 65, 80
1, 29754, Note_off_c, 2, 69, 64
1, 29754, Note_off_c, 2, 65, 64
1, 29755, Note_off_c, 7, 65, 64
1, 29756, Note_off_c, 2, 64, 64
1, 29756, Note_off_c, 2, 72, 64
1, 29759, Note_on_c, 9, 42, 81
1, 29759, Note_on_c, 9, 69, 34
1, 29760, Note_off_c, 9, 42, 64
1, 29760, Note_off_c, 9, 69, 64
1, 29768, Note_off_c, 1, 31, 64
1, 29782, Note_on_c, 2, 64, 87
1, 29783, Note_on_c, 1, 31, 89
1, 29783, Note_on_c, 7, 55, 66
1, 29784, Note_on_c, 2, 65, 90
1, 29784, Note_on_c, 2, 72, 97
1, 29784, Note_on_c, 2, 69, 100
1, 29784, Note_on_c, 9, 69, 33
1, 29785, Note_off_c, 9, 69, 64
1, 29794, Note_off_c, 1, 31, 64
1, 29799, Note_off_c, 2, 64, 64
1, 29800, Note_off_c, 2, 65, 64
1, 29804, Note_off_c, 2, 72, 64
1, 29804, Note_off_c, 2, 69, 64
1, 29805, Note_off_c, 3, 71, 64
1, 29806, Note_on_c, 2, 62, 76
1, 29806, Note_on_c, 2, 71, 78
1, 29806, Note_off_c, 7, 55, 64
1, 29807, Lyric_t, "way "
1, 29807, Note_on_c, 3, 72, 102
1, 29807, Note_on_c, 9, 42, 78
1, 29807, Note_on_c, 1, 31, 95
1, 29808, Note_off_c, 4, 62, 64
1, 29808, Note_on_c, 4, 64, 95
1, 29808, Note_off_c, 9, 42, 64
1, 29808, Note_on_c, 9, 36, 109
1, 29808, Note_on_c, 9, 69, 60
1, 29809, Note_off_c, 9, 36, 64
1, 29809, Note_off_c, 9, 69, 64
1, 29824, Note_off_c, 2, 71, 64
1, 29830, Note_on_c, 8, 57, 68
1, 29830, Note_on_c, 8, 65, 68
1, 29831, Note_on_c, 7, 55, 63
1, 29831, Note_on_c, 8, 60, 60
1, 29832, Note_on_c, 9, 69, 45
1, 29833, Note_off_c, 9, 69, 64
1, 29835, Note_off_c, 8, 65, 64
1, 29836, Note_off_c, 8, 60, 64
1, 29837, Note_off_c, 8, 57, 64
1, 29841, Note_off_c, 1, 31, 64
1, 29842, Note_off_c, 7, 55, 64
1, 29850, Note_off_c, 2, 62, 64
1, 29852, Note_off_c, 3, 72, 64
1, 29854, Note_on_c, 2, 64, 93
1, 29854, Note_on_c, 2, 69, 111
1, 29854, Note_on_c, 8, 57, 75
1, 29854, Note_on_c, 8, 60, 65
1, 29854, Note_on_c, 8, 65, 65
1, 29855, Lyric_t, "to "
1, 29855, Note_on_c, 3, 71, 116
1, 29855, Note_on_c, 9, 42, 81
1, 29856, Note_off_c, 4, 64, 64
1, 29856, Note_on_c, 4, 62, 88
1, 29856, Note_off_c, 9, 42, 64
1, 29856, Note_on_c, 9, 40, 124
1, 29856, Note_on_c, 2, 65, 93
1, 29856, Note_on_c, 2, 72, 106
1, 29856, Note_on_c, 7, 59, 83
1, 29856, Note_off_c, 11, 62, 64
1, 29857, Note_off_c, 9, 40, 64
1, 29857, Note_on_c, 9, 69, 42
1, 29858, Note_off_c, 9, 69, 64
1, 29860, Note_off_c, 8, 65, 64
1, 29862, Note_off_c, 8, 60, 64
1, 29865, Note_off_c, 8, 57, 64
1, 29877, Note_off_c, 7, 59, 64
1, 29879, Note_on_c, 9, 44, 70
1, 29879, Note_on_c, 1, 31, 92
1, 29880, Note_off_c, 9, 44, 64
1, 29881, Note_on_c, 9, 69, 30
1, 29882, Note_off_c, 9, 69, 64
1, 29889, Note_off_c, 1, 31, 64
1, 29898, Note_off_c, 2, 65, 64
1, 29900, Note_off_c, 2, 69, 64
1, 29903, Lyric_t, "the "
1, 29903, Note_off_c, 3, 71, 64
1, 29903, Note_on_c, 3, 67, 85
1, 29903, Note_on_c, 9, 46, 78
1, 29903, Note_on_c, 8, 57, 78
1, 29903, Note_on_c, 8, 60, 68
1, 29903, Note_on_c, 8, 65, 78
1, 29904, Note_off_c, 4, 62, 64
1, 29904, Note_on_c, 4, 60, 95
1, 29904, Note_off_c, 9, 46, 64
1, 29904, Note_on_c, 1, 31, 95
1, 29904, Note_off_c, 2, 72, 64
1, 29904, Note_on_c, 2, 71, 106
1, 29904, Note_on_c, 2, 62, 78
1, 29904, Note_on_c, 9, 69, 60
1, 29905, Note_on_c, 7, 55, 65
1, 29905, Note_off_c, 9, 69, 64
1, 29910, Note_off_c, 2, 62, 64
1, 29911, Note_off_c, 8, 65, 64
1, 29914, Note_off_c, 8, 60, 64
1, 29914, Note_off_c, 8, 57, 64
1, 29915, Note_off_c, 2, 64, 64
1, 29922, Note_off_c, 7, 55, 64
1, 29926, Note_off_c, 1, 31, 64
1, 29927, Note_on_c, 1, 33, 89
1, 29928, Note_on_c, 9, 69, 30
1, 29929, Note_off_c, 9, 69, 64
1, 29934, Note_off_c, 3, 67, 64
1, 29936, Note_off_c, 2, 71, 64
1, 29951, Note_on_c, 9, 36, 120
1, 29952, Note_off_c, 4, 60, 64
1, 29952, Note_on_c, 4, 59, 114
1, 29952, Note_off_c, 9, 36, 64
1, 29952, Note_on_c, 2, 64, 90
1, 29952, Note_on_c, 2, 67, 93
1, 29952, Note_on_c, 2, 71, 116
1, 29952, Note_on_c, 2, 74, 90
1, 29952, Note_off_c, 11, 60, 64
1, 29952, Note_off_c, 11, 69, 64
1, 29952, Note_off_c, 11, 65, 64
1, 29952, Note_on_c, 11, 71, 55
1, 29952, Note_on_c, 11, 67, 55
1, 29952, Note_on_c, 11, 62, 55
1, 29952, Note_on_c, 11, 64, 55
1, 29953, Lyric_t, "sky-"
1, 29953, Note_on_c, 3, 69, 116
1, 29953, Note_on_c, 9, 42, 81
1, 29953, Note_off_c, 1, 33, 64
1, 29953, Note_on_c, 1, 36, 98
1, 29953, Note_on_c, 7, 55, 77
1, 29953, Note_on_c, 9, 69, 40
1, 29954, Note_off_c, 9, 42, 64
1, 29954, Note_off_c, 9, 69, 64
1, 29962, Note_off_c, 2, 74, 64
1, 29964, Note_off_c, 2, 71, 64
1, 29964, Note_off_c, 7, 55, 64
1, 29965, Note_off_c, 2, 67, 64
1, 29966, Note_off_c, 2, 64, 64
1, 29975, Note_on_c, 9, 69, 31
1, 29976, Note_on_c, 2, 64, 90
1, 29976, Note_on_c, 2, 71, 93
1, 29976, Note_on_c, 2, 67, 82
1, 29976, Note_on_c, 2, 74, 84
1, 29976, Note_on_c, 7, 55, 72
1, 29976, Note_off_c, 9, 69, 64
1, 29986, Note_off_c, 3, 69, 64
1, 29990, Note_off_c, 1, 36, 64
1, 29990, Note_off_c, 7, 55, 64
1, 29996, Note_off_c, 2, 71, 64
1, 29998, Note_off_c, 2, 74, 64
1, 29999, Note_on_c, 7, 57, 77
1, 30000, Note_on_c, 2, 72, 87
1, 30000, Note_on_c, 2, 69, 78
1, 30000, Note_on_c, 9, 69, 59
1, 30001, Note_on_c, 9, 44, 70
1, 30001, Note_off_c, 9, 69, 64
1, 30002, Lyric_t, "y. "
1, 30002, Lyric_t, "\015"
1, 30002, Note_on_c, 3, 69, 121
1, 30002, Note_off_c, 9, 44, 64
1, 30005, Note_off_c, 2, 67, 64
1, 30016, Note_off_c, 2, 64, 64
1, 30017, Note_off_c, 2, 69, 64
1, 30018, Note_off_c, 2, 72, 64
1, 30020, Note_off_c, 7, 57, 64
1, 30023, Note_on_c, 8, 55, 56
1, 30023, Note_on_c, 8, 59, 54
1, 30023, Note_on_c, 8, 64, 53
1, 30024, Note_on_c, 2, 64, 84
1, 30024, Note_on_c, 2, 71, 100
1, 30024, Note_on_c, 2, 74, 97
1, 30024, Note_on_c, 2, 67, 84
1, 30024, Note_on_c, 7, 59, 77
1, 30025, Note_on_c, 9, 42, 78
1, 30025, Note_on_c, 9, 69, 40
1, 30026, Note_off_c, 9, 42, 64
1, 30026, Note_off_c, 9, 69, 64
1, 30029, Note_off_c, 8, 64, 64
1, 30030, Note_off_c, 8, 59, 64
1, 30031, Note_off_c, 8, 55, 64
1, 30041, Note_off_c, 7, 59, 64
1, 30042, Note_off_c, 2, 67, 64
1, 30046, Note_off_c, 2, 64, 64
1, 30046, Note_off_c, 2, 71, 64
1, 30046, Note_off_c, 2, 74, 64
1, 30047, Note_off_c, 3, 69, 64
1, 30048, Note_on_c, 8, 64, 75
1, 30048, Note_on_c, 8, 55, 78
1, 30048, Note_on_c, 9, 69, 30
1, 30049, Note_on_c, 3, 67, 105
1, 30049, Note_on_c, 9, 40, 124
1, 30049, Note_on_c, 8, 59, 89
1, 30049, Note_off_c, 9, 69, 64
1, 30050, Note_off_c, 9, 40, 64
1, 30058, Note_off_c, 8, 59, 64
1, 30059, Note_off_c, 8, 55, 64
1, 30060, Note_off_c, 8, 64, 64
1, 30071, Note_on_c, 9, 44, 78
1, 30071, Note_on_c, 9, 69, 30
1, 30072, Note_off_c, 9, 44, 64
1, 30072, Note_on_c, 2, 74, 100
1, 30072, Note_on_c, 2, 71, 100
1, 30072, Note_on_c, 2, 64, 90
1, 30072, Note_on_c, 2, 67, 87
1, 30072, Note_off_c, 9, 69, 64
1, 30073, Note_on_c, 7, 55, 72
1, 30086, Note_off_c, 7, 55, 64
1, 30089, Note_off_c, 2, 71, 64
1, 30093, Note_off_c, 2, 74, 64
1, 30095, Note_on_c, 9, 69, 63
1, 30096, Note_on_c, 9, 42, 72
1, 30096, Note_on_c, 2, 72, 75
1, 30096, Note_on_c, 2, 69, 75
1, 30096, Note_off_c, 9, 69, 64
1, 30097, Note_off_c, 9, 42, 64
1, 30106, Note_off_c, 2, 67, 64
1, 30109, Note_off_c, 2, 64, 64
1, 30110, Note_off_c, 2, 69, 64
1, 30114, Note_off_c, 2, 72, 64
1, 30120, Note_on_c, 1, 36, 105
1, 30120, Note_on_c, 2, 64, 90
1, 30120, Note_on_c, 2, 67, 82
1, 30120, Note_on_c, 2, 71, 116
1, 30120, Note_on_c, 2, 74, 97
1, 30120, Note_on_c, 9, 69, 38
1, 30121, Note_on_c, 9, 36, 114
1, 30121, Note_on_c, 7, 64, 77
1, 30121, Note_off_c, 9, 69, 64
1, 30122, Note_off_c, 9, 36, 64
1, 30137, Note_off_c, 7, 64, 64
1, 30138, Note_off_c, 2, 67, 64
1, 30140, Note_off_c, 1, 36, 64
1, 30142, Note_off_c, 2, 74, 64
1, 30143, Note_on_c, 9, 42, 85
1, 30144, Note_off_c, 9, 42, 64
1, 30144, Note_off_c, 2, 71, 64
1, 30144, Note_off_c, 2, 64, 64
1, 30144, Note_on_c, 9, 69, 22
1, 30145, Note_off_c, 9, 69, 64
1, 30157, Note_off_c, 3, 67, 64
1, 30168, Note_off_c, 4, 59, 64
1, 30168, Note_on_c, 2, 71, 100
1, 30168, Note_on_c, 2, 74, 97
1, 30168, Note_on_c, 2, 64, 76
1, 30168, Note_on_c, 2, 67, 82
1, 30168, Note_on_c, 7, 55, 74
1, 30169, Note_on_c, 1, 36, 95
1, 30169, Note_on_c, 9, 69, 34
1, 30170, Note_off_c, 9, 69, 64
1, 30182, Note_off_c, 1, 36, 64
1, 30184, Note_off_c, 7, 55, 64
1, 30186, Note_off_c, 2, 71, 64
1, 30189, Note_off_c, 2, 74, 64
1, 30191, Note_on_c, 9, 36, 109
1, 30191, Note_on_c, 1, 36, 89
1, 30192, Note_off_c, 9, 36, 64
1, 30192, Note_on_c, 9, 42, 72
1, 30192, Note_on_c, 2, 72, 82
1, 30192, Note_on_c, 2, 69, 75
1, 30193, Note_off_c, 9, 42, 64
1, 30193, Note_on_c, 9, 69, 53
1, 30194, Note_off_c, 9, 69, 64
1, 30201, Note_off_c, 2, 67, 64
1, 30212, Note_off_c, 2, 64, 64
1, 30212, Note_off_c, 2, 72, 64
1, 30212, Note_off_c, 2, 69, 64
1, 30215, Lyric_t, "I "
1, 30215, Note_on_c, 3, 62, 111
1, 30215, Note_on_c, 8, 55, 65
1, 30215, Note_on_c, 8, 64, 58
1, 30216, Note_on_c, 4, 52, 88
1, 30216, Note_on_c, 7, 55, 72
1, 30217, Note_on_c, 8, 59, 50
1, 30217, Note_on_c, 9, 69, 36
1, 30218, Note_off_c, 9, 69, 64
1, 30221, Note_off_c, 8, 59, 64
1, 30221, Note_off_c, 8, 64, 64
1, 30222, Note_off_c, 1, 36, 64
1, 30223, Note_off_c, 8, 55, 64
1, 30226, Note_off_c, 3, 62, 64
1, 30227, Note_off_c, 7, 55, 64
1, 30239, Lyric_t, "don't "
1, 30239, Note_on_c, 3, 62, 105
1, 30239, Note_off_c, 4, 52, 64
1, 30239, Note_on_c, 8, 55, 68
1, 30239, Note_on_c, 8, 64, 65
1, 30239, Note_on_c, 8, 59, 71
1, 30240, Note_on_c, 4, 52, 95
1, 30240, Note_on_c, 2, 71, 116
1, 30240, Note_on_c, 2, 67, 100
1, 30240, Note_on_c, 2, 74, 111
1, 30240, Note_on_c, 2, 64, 82
1, 30241, Note_on_c, 9, 40, 127
1, 30241, Note_on_c, 9, 42, 85
1, 30241, Note_on_c, 7, 59, 80
1, 30241, Note_on_c, 9, 69, 31
1, 30242, Note_off_c, 9, 42, 64
1, 30242, Note_off_c, 9, 40, 64
1, 30242, Note_off_c, 9, 69, 64
1, 30247, Note_off_c, 8, 59, 64
1, 30248, Note_off_c, 8, 64, 64
1, 30249, Note_off_c, 8, 55, 64
1, 30250, Note_off_c, 2, 64, 64
1, 30254, Note_off_c, 3, 62, 64
1, 30254, Note_off_c, 7, 59, 64
1, 30263, Lyric_t, "wan"
1, 30263, Note_on_c, 3, 64, 95
1, 30263, Note_on_c, 1, 31, 87
1, 30264, Note_off_c, 4, 52, 64
1, 30264, Note_on_c, 4, 55, 91
1, 30264, Note_on_c, 9, 44, 64
1, 30264, Note_on_c, 7, 59, 74
1, 30265, Note_off_c, 9, 44, 64
1, 30265, Note_on_c, 9, 69, 23
1, 30266, Note_off_c, 9, 69, 64
1, 30278, Note_off_c, 3, 64, 64
1, 30282, Note_off_c, 2, 71, 64
1, 30283, Note_off_c, 7, 59, 64
1, 30285, Note_off_c, 1, 31, 64
1, 30287, Lyric_t, "na "
1, 30287, Note_on_c, 3, 67, 102
1, 30287, Note_on_c, 1, 36, 92
1, 30287, Note_on_c, 8, 55, 78
1, 30287, Note_on_c, 9, 69, 51
1, 30288, Note_off_c, 4, 55, 64
1, 30288, Note_on_c, 4, 59, 95
1, 30288, Note_on_c, 2, 72, 93
1, 30288, Note_on_c, 2, 64, 93
1, 30288, Note_on_c, 2, 69, 100
1, 30288, Note_on_c, 8, 64, 78
1, 30288, Note_on_c, 8, 59, 78
1, 30288, Note_off_c, 9, 69, 64
1, 30289, Note_on_c, 9, 46, 78
1, 30289, Note_on_c, 7, 55, 72
1, 30290, Note_off_c, 9, 46, 64
1, 30290, Note_off_c, 2, 74, 64
1, 30296, Note_off_c, 2, 67, 64
1, 30298, Note_off_c, 8, 59, 64
1, 30298, Note_off_c, 8, 64, 64
1, 30298, Note_off_c, 8, 55, 64
1, 30300, Note_off_c, 3, 67, 64
1, 30302, Note_off_c, 2, 64, 64
1, 30304, Note_off_c, 7, 55, 64
1, 30308, Note_off_c, 1, 36, 64
1, 30311, Note_on_c, 1, 35, 83
1, 30312, Note_off_c, 4, 59, 64
1, 30312, Note_on_c, 4, 60, 95
1, 30312, Note_off_c, 2, 72, 64
1, 30312, Note_on_c, 9, 69, 34
1, 30313, Lyric_t, "hear "
1, 30313, Note_on_c, 3, 69, 116
1, 30313, Note_off_c, 2, 69, 64
1, 30313, Note_off_c, 9, 69, 64
1, 30335, Note_off_c, 1, 35, 64
1, 30336, Note_on_c, 1, 33, 98
1, 30336, Note_on_c, 2, 71, 106
1, 30336, Note_on_c, 2, 64, 100
1, 30336, Note_on_c, 2, 67, 100
1, 30336, Note_on_c, 7, 52, 83
1, 30336, Note_off_c, 11, 62, 64
1, 30336, Note_off_c, 11, 71, 64
1, 30336, Note_on_c, 11, 72, 56
1, 30336, Note_on_c, 11, 69, 56
1, 30337, Note_on_c, 9, 36, 114
1, 30337, Note_on_c, 9, 42, 85
1, 30338, Note_off_c, 9, 42, 64
1, 30338, Note_off_c, 9, 36, 64
1, 30350, Note_off_c, 7, 52, 64
1, 30356, Note_off_c, 2, 71, 64
1, 30358, Note_off_c, 2, 67, 64
1, 30359, Note_on_c, 9, 69, 22
1, 30360, Note_on_c, 2, 72, 84
1, 30360, Note_on_c, 2, 69, 76
1, 30360, Note_off_c, 9, 69, 64
1, 30361, Note_on_c, 7, 52, 72
1, 30376, Note_off_c, 7, 52, 64
1, 30378, Note_off_c, 2, 69, 64
1, 30380, Note_off_c, 2, 72, 64
1, 30383, Note_on_c, 9, 69, 51
1, 30384, Note_on_c, 9, 44, 68
1, 30384, Note_on_c, 2, 67, 84
1, 30384, Note_on_c, 2, 71, 106
1, 30384, Note_off_c, 9, 69, 64
1, 30385, Note_off_c, 9, 44, 64
1, 30385, Note_on_c, 7, 57, 87
1, 30391, Note_off_c, 1, 33, 64
1, 30401, Note_off_c, 2, 71, 64
1, 30402, Note_off_c, 2, 64, 64
1, 30402, Note_off_c, 7, 57, 64
1, 30404, Note_off_c, 2, 67, 64
1, 30406, Note_off_c, 3, 69, 64
1, 30407, Note_on_c, 9, 69, 48
1, 30408, Note_off_c, 4, 60, 64
1, 30408, Note_on_c, 4, 57, 98
1, 30408, Note_on_c, 2, 72, 97
1, 30408, Note_on_c, 2, 69, 97
1, 30408, Note_on_c, 2, 64, 90
1, 30408, Note_on_c, 8, 57, 71
1, 30408, Note_off_c, 9, 69, 64
1, 30409, Lyric_t, "your\205 "
1, 30409, Lyric_t, "\015"
1, 30409, Note_on_c, 3, 64, 102
1, 30409, Note_on_c, 9, 42, 81
1, 30409, Note_on_c, 7, 60, 77
1, 30409, Note_on_c, 8, 60, 60
1, 30409, Note_on_c, 8, 64, 54
1, 30410, Note_off_c, 9, 42, 64
1, 30414, Note_off_c, 8, 60, 64
1, 30415, Note_off_c, 8, 64, 64
1, 30417, Note_off_c, 8, 57, 64
1, 30426, Lyric_t, "\012"
1, 30426, Note_off_c, 7, 60, 64
1, 30430, Note_off_c, 2, 64, 64
1, 30430, Note_off_c, 2, 72, 64
1, 30432, Note_on_c, 9, 40, 120
1, 30432, Note_off_c, 2, 69, 64
1, 30433, Note_off_c, 9, 40, 64
1, 30433, Note_on_c, 8, 57, 84
1, 30433, Note_on_c, 8, 64, 62
1, 30434, Note_on_c, 8, 60, 60
1, 30434, Note_on_c, 9, 69, 33
1, 30435, Note_off_c, 9, 69, 64
1, 30442, Note_off_c, 8, 60, 64
1, 30442, Note_off_c, 8, 57, 64
1, 30444, Note_off_c, 8, 64, 64
1, 30446, Note_off_c, 3, 64, 64
1, 30456, Note_on_c, 2, 69, 106
1, 30456, Note_on_c, 2, 64, 93
1, 30456, Note_on_c, 2, 72, 106
1, 30457, Note_on_c, 3, 62, 105
1, 30457, Note_on_c, 9, 44, 78
1, 30457, Note_on_c, 7, 57, 83
1, 30457, Note_on_c, 9, 69, 26
1, 30458, Lyric_t, "(Girl) "
1, 30458, Note_off_c, 9, 44, 64
1, 30458, Note_off_c, 9, 69, 64
1, 30470, Note_off_c, 7, 57, 64
1, 30472, Note_off_c, 3, 62, 64
1, 30472, Note_off_c, 2, 69, 64
1, 30476, Note_off_c, 2, 72, 64
1, 30478, Note_on_c, 2, 67, 75
1, 30480, Note_on_c, 3, 60, 98
1, 30480, Note_on_c, 2, 71, 84
1, 30481, Note_on_c, 9, 42, 81
1, 30481, Note_on_c, 9, 69, 61
1, 30482, Note_off_c, 9, 42, 64
1, 30482, Note_off_c, 9, 69, 64
1, 30493, Note_off_c, 2, 67, 64
1, 30494, Note_off_c, 2, 64, 64
1, 30498, Note_off_c, 2, 71, 64
1, 30502, Note_on_c, 2, 64, 65
1, 30503, Note_on_c, 1, 28, 85
1, 30504, Note_on_c, 2, 72, 97
1, 30504, Note_on_c, 2, 69, 100
1, 30504, Note_on_c, 9, 69, 40
1, 30505, Note_on_c, 9, 36, 114
1, 30505, Note_on_c, 7, 64, 77
1, 30505, Note_off_c, 9, 69, 64
1, 30506, Note_off_c, 9, 36, 64
1, 30525, Note_off_c, 2, 72, 64
1, 30525, Note_off_c, 7, 64, 64
1, 30526, Note_off_c, 3, 60, 64
1, 30526, Note_off_c, 1, 28, 64
1, 30526, Note_off_c, 2, 69, 64
1, 30527, Note_on_c, 9, 42, 78
1, 30527, Note_on_c, 1, 33, 98
1, 30528, Note_off_c, 9, 42, 64
1, 30528, Note_off_c, 2, 64, 64
1, 30530, Note_on_c, 9, 69, 33
1, 30531, Note_off_c, 9, 69, 64
1, 30550, Note_on_c, 2, 72, 100
1, 30550, Note_on_c, 2, 69, 93
1, 30552, Note_off_c, 4, 57, 64
1, 30552, Note_on_c, 2, 64, 97
1, 30552, Note_on_c, 7, 57, 87
1, 30553, Note_on_c, 9, 69, 30
1, 30554, Lyric_t, "\226 And "
1, 30554, Note_on_c, 3, 71, 111
1, 30554, Note_off_c, 9, 69, 64
1, 30567, Note_off_c, 2, 69, 64
1, 30567, Note_off_c, 7, 57, 64
1, 30570, Note_off_c, 3, 71, 64
1, 30571, Note_off_c, 1, 33, 64
1, 30572, Note_off_c, 2, 72, 64
1, 30575, Note_on_c, 9, 42, 81
1, 30576, Note_off_c, 9, 42, 64
1, 30576, Note_on_c, 9, 36, 109
1, 30576, Note_on_c, 2, 71, 84
1, 30576, Note_on_c, 2, 67, 73
1, 30577, Note_off_c, 9, 36, 64
1, 30578, Lyric_t, "we "
1, 30578, Note_on_c, 3, 71, 98
1, 30578, Note_on_c, 9, 69, 52
1, 30579, Note_off_c, 9, 69, 64
1, 30586, Note_off_c, 2, 67, 64
1, 30589, Note_off_c, 2, 71, 64
1, 30590, Note_off_c, 3, 71, 64
1, 30599, Note_on_c, 7, 57, 80
1, 30599, Note_on_c, 8, 57, 71
1, 30600, Note_off_c, 2, 64, 64
1, 30600, Note_on_c, 8, 60, 50
1, 30600, Note_on_c, 8, 64, 53
1, 30601, Note_on_c, 9, 69, 36
1, 30602, Lyric_t, "got "
1, 30602, Note_on_c, 3, 71, 111
1, 30602, Note_off_c, 9, 69, 64
1, 30606, Note_off_c, 8, 64, 64
1, 30606, Note_off_c, 8, 60, 64
1, 30606, Note_off_c, 8, 57, 64
1, 30616, Note_off_c, 3, 71, 64
1, 30616, Note_off_c, 7, 57, 64
1, 30622, Note_on_c, 2, 64, 100
1, 30622, Note_on_c, 2, 72, 106
1, 30622, Note_on_c, 2, 69, 116
1, 30623, Note_on_c, 9, 40, 124
1, 30623, Note_on_c, 8, 57, 78
1, 30624, Note_off_c, 9, 40, 64
1, 30624, Note_on_c, 9, 42, 85
1, 30625, Lyric_t, "noth"
1, 30625, Note_on_c, 3, 71, 95
1, 30625, Note_off_c, 9, 42, 64
1, 30625, Note_on_c, 7, 60, 74
1, 30625, Note_on_c, 8, 64, 58
1, 30625, Note_on_c, 8, 60, 62
1, 30625, Note_on_c, 9, 69, 40
1, 30626, Note_off_c, 9, 69, 64
1, 30633, Note_off_c, 8, 57, 64
1, 30634, Note_off_c, 7, 60, 64
1, 30634, Note_off_c, 8, 64, 64
1, 30635, Note_off_c, 8, 60, 64
1, 30638, Note_off_c, 3, 71, 64
1, 30647, Note_on_c, 1, 31, 95
1, 30648, Note_on_c, 7, 60, 62
1, 30649, Lyric_t, "ing "
1, 30649, Note_on_c, 3, 71, 105
1, 30649, Note_on_c, 9, 44, 78
1, 30649, Note_on_c, 9, 69, 23
1, 30650, Note_off_c, 9, 44, 64
1, 30650, Note_off_c, 2, 64, 64
1, 30650, Note_off_c, 9, 69, 64
1, 30663, Note_off_c, 3, 71, 64
1, 30664, Note_off_c, 2, 69, 64
1, 30667, Note_off_c, 7, 60, 64
1, 30669, Note_off_c, 1, 31, 64
1, 30669, Note_off_c, 2, 72, 64
1, 30671, Note_on_c, 1, 33, 81
1, 30671, Note_on_c, 8, 57, 78
1, 30672, Lyric_t, "to "
1, 30672, Note_on_c, 3, 71, 95
1, 30672, Note_on_c, 2, 71, 93
1, 30672, Note_on_c, 2, 67, 90
1, 30672, Note_on_c, 2, 64, 100
1, 30672, Note_on_c, 8, 60, 62
1, 30672, Note_on_c, 8, 64, 62
1, 30672, Note_on_c, 9, 69, 58
1, 30673, Note_on_c, 9, 46, 72
1, 30673, Note_on_c, 7, 57, 80
1, 30673, Note_off_c, 9, 69, 64
1, 30674, Note_off_c, 9, 46, 64
1, 30681, Note_off_c, 8, 64, 64
1, 30682, Note_off_c, 8, 57, 64
1, 30685, Note_off_c, 3, 71, 64
1, 30685, Note_off_c, 8, 60, 64
1, 30687, Note_off_c, 1, 33, 64
1, 30688, Note_off_c, 2, 64, 64
1, 30692, Note_off_c, 2, 71, 64
1, 30695, Note_on_c, 1, 33, 92
1, 30697, Lyric_t, "be "
1, 30697, Note_on_c, 3, 71, 105
1, 30698, Note_on_c, 9, 69, 48
1, 30699, Note_off_c, 9, 69, 64
1, 30702, Note_off_c, 2, 67, 64
1, 30706, Note_off_c, 3, 71, 64
1, 30714, Note_off_c, 7, 57, 64
1, 30718, Note_on_c, 2, 62, 85
1, 30718, Note_on_c, 2, 67, 86
1, 30718, Note_on_c, 2, 64, 86
1, 30718, Note_on_c, 2, 71, 86
1, 30718, Note_on_c, 7, 55, 80
1, 30719, Note_on_c, 1, 36, 102
1, 30719, Note_off_c, 11, 64, 64
1, 30720, Note_on_c, 9, 36, 114
1, 30720, Note_on_c, 9, 57, 78
1, 30720, Note_off_c, 1, 33, 64
1, 30720, Note_off_c, 11, 67, 64
1, 30720, Note_off_c, 11, 72, 64
1, 30720, Note_off_c, 11, 69, 64
1, 30720, Note_on_c, 11, 59, 62
1, 30720, Note_on_c, 11, 55, 62
1, 30720, Note_on_c, 11, 64, 62
1, 30720, Note_on_c, 9, 69, 20
1, 30721, Lyric_t, "guil"
1, 30721, Note_on_c, 3, 71, 105
1, 30721, Note_off_c, 9, 57, 64
1, 30721, Note_off_c, 9, 36, 64
1, 30721, Note_off_c, 9, 69, 64
1, 30732, Note_off_c, 7, 55, 64
1, 30736, Note_off_c, 2, 62, 64
1, 30737, Note_off_c, 2, 67, 64
1, 30737, Note_off_c, 2, 64, 64
1, 30737, Note_off_c, 2, 71, 64
1, 30743, Note_on_c, 7, 55, 60
1, 30743, Note_on_c, 9, 69, 36
1, 30744, Note_on_c, 2, 64, 78
1, 30744, Note_on_c, 2, 67, 84
1, 30744, Note_on_c, 2, 62, 84
1, 30744, Note_on_c, 2, 71, 90
1, 30744, Note_off_c, 9, 69, 64
1, 30748, Note_off_c, 3, 71, 64
1, 30760, Note_off_c, 7, 55, 64
1, 30764, Note_off_c, 2, 71, 64
1, 30766, Note_off_c, 2, 62, 64
1, 30766, Note_off_c, 2, 67, 64
1, 30767, Note_on_c, 9, 44, 64
1, 30767, Note_on_c, 7, 57, 83
1, 30767, Note_on_c, 9, 69, 58
1, 30768, Note_off_c, 9, 44, 64
1, 30768, Note_on_c, 2, 60, 78
1, 30768, Note_on_c, 2, 69, 78
1, 30768, Note_off_c, 9, 69, 64
1, 30772, Note_off_c, 1, 36, 64
1, 30782, Note_off_c, 2, 64, 64
1, 30788, Note_off_c, 2, 69, 64
1, 30789, Note_off_c, 7, 57, 64
1, 30790, Note_off_c, 2, 60, 64
1, 30791, Note_on_c, 7, 59, 80
1, 30791, Note_on_c, 9, 69, 36
1, 30792, Note_on_c, 2, 71, 90
1, 30792, Note_on_c, 2, 67, 84
1, 30792, Note_on_c, 2, 64, 64
1, 30792, Note_on_c, 2, 62, 78
1, 30792, Note_off_c, 9, 69, 64
1, 30793, Lyric_t, "ty "
1, 30793, Note_on_c, 3, 69, 111
1, 30793, Note_on_c, 9, 42, 64
1, 30793, Note_on_c, 8, 64, 60
1, 30794, Note_off_c, 9, 42, 64
1, 30794, Note_on_c, 8, 55, 60
1, 30794, Note_on_c, 8, 59, 58
1, 30800, Note_off_c, 8, 59, 64
1, 30803, Note_off_c, 8, 55, 64
1, 30804, Note_off_c, 8, 64, 64
1, 30806, Note_off_c, 2, 62, 64
1, 30806, Note_off_c, 2, 64, 64
1, 30809, Note_off_c, 2, 71, 64
1, 30809, Note_off_c, 7, 59, 64
1, 30812, Note_off_c, 2, 67, 64
1, 30815, Note_off_c, 3, 69, 64
1, 30816, Note_on_c, 9, 40, 124
1, 30817, Note_off_c, 9, 40, 64
1, 30817, Note_on_c, 9, 69, 22
1, 30818, Note_on_c, 8, 55, 60
1, 30818, Note_on_c, 8, 59, 78
1, 30818, Note_on_c, 8, 64, 54
1, 30818, Note_off_c, 9, 69, 64
1, 30830, Note_off_c, 8, 64, 64
1, 30831, Note_off_c, 8, 59, 64
1, 30831, Note_off_c, 8, 55, 64
1, 30839, Note_on_c, 9, 44, 63
1, 30840, Note_off_c, 9, 44, 64
1, 30840, Note_on_c, 2, 67, 87
1, 30840, Note_on_c, 2, 64, 82
1, 30840, Note_on_c, 2, 71, 90
1, 30840, Note_on_c, 2, 62, 97
1, 30841, Note_on_c, 7, 55, 59
1, 30841, Note_on_c, 9, 69, 25
1, 30842, Note_off_c, 9, 69, 64
1, 30854, Note_off_c, 7, 55, 64
1, 30856, Note_off_c, 2, 62, 64
1, 30860, Note_off_c, 2, 71, 64
1, 30860, Note_off_c, 2, 64, 64
1, 30861, Note_off_c, 2, 67, 64
1, 30862, Note_on_c, 2, 60, 78
1, 30863, Note_on_c, 9, 42, 70
1, 30863, Note_on_c, 9, 69, 67
1, 30864, Lyric_t, "of, "
1, 30864, Lyric_t, "\015"
1, 30864, Note_on_c, 3, 71, 116
1, 30864, Note_off_c, 9, 42, 64
1, 30864, Note_on_c, 2, 69, 78
1, 30864, Note_off_c, 9, 69, 64
1, 30880, Note_off_c, 2, 69, 64
1, 30882, Note_off_c, 2, 60, 64
1, 30887, Note_on_c, 9, 36, 104
1, 30887, Note_on_c, 1, 36, 102
1, 30887, Note_on_c, 9, 69, 38
1, 30888, Note_off_c, 9, 36, 64
1, 30888, Note_on_c, 2, 71, 90
1, 30888, Note_on_c, 2, 67, 87
1, 30888, Note_on_c, 2, 64, 66
1, 30888, Note_on_c, 2, 62, 90
1, 30888, Note_on_c, 7, 64, 83
1, 30888, Note_off_c, 9, 69, 64
1, 30894, Note_off_c, 3, 71, 64
1, 30898, Note_off_c, 2, 64, 64
1, 30902, Note_off_c, 2, 62, 64
1, 30904, Note_off_c, 2, 67, 64
1, 30904, Note_off_c, 2, 71, 64
1, 30904, Note_off_c, 7, 64, 64
1, 30911, Note_on_c, 9, 42, 78
1, 30912, Note_off_c, 9, 42, 64
1, 30913, Note_on_c, 9, 69, 12
1, 30914, Note_off_c, 9, 69, 64
1, 30918, Note_off_c, 1, 36, 64
1, 30934, Note_on_c, 2, 67, 93
1, 30934, Note_on_c, 2, 64, 82
1, 30934, Note_on_c, 2, 71, 100
1, 30934, Note_on_c, 2, 62, 84
1, 30936, Note_on_c, 1, 36, 98
1, 30937, Note_on_c, 7, 55, 70
1, 30937, Note_on_c, 9, 69, 24
1, 30938, Note_off_c, 9, 69, 64
1, 30949, Note_off_c, 2, 67, 64
1, 30950, Note_off_c, 1, 36, 64
1, 30950, Note_off_c, 2, 62, 64
1, 30951, Note_off_c, 7, 55, 64
1, 30954, Note_off_c, 2, 71, 64
1, 30954, Note_off_c, 2, 64, 64
1, 30958, Note_on_c, 2, 60, 70
1, 30959, Note_on_c, 9, 36, 98
1, 30959, Note_on_c, 9, 42, 68
1, 30959, Note_on_c, 1, 36, 89
1, 30960, Note_off_c, 9, 42, 64
1, 30960, Note_off_c, 9, 36, 64
1, 30960, Note_on_c, 2, 69, 73
1, 30961, Note_on_c, 9, 69, 62
1, 30962, Note_off_c, 9, 69, 64
1, 30976, Note_off_c, 2, 69, 64
1, 30978, Note_off_c, 2, 60, 64
1, 30983, Note_on_c, 8, 59, 75
1, 30983, Note_on_c, 8, 64, 71
1, 30983, Note_on_c, 8, 55, 68
1, 30984, Note_on_c, 7, 55, 65
1, 30985, Note_on_c, 9, 69, 38
1, 30986, Note_off_c, 9, 69, 64
1, 30990, Note_off_c, 8, 64, 64
1, 30991, Note_off_c, 8, 59, 64
1, 30993, Note_off_c, 1, 36, 64
1, 30994, Note_off_c, 8, 55, 64
1, 30996, Note_off_c, 7, 55, 64
1, 31006, Note_on_c, 2, 67, 97
1, 31006, Note_on_c, 2, 71, 106
1, 31007, Lyric_t, "our "
1, 31007, Note_on_c, 3, 69, 105
1, 31007, Note_on_c, 9, 40, 124
1, 31007, Note_on_c, 9, 42, 72
1, 31007, Note_on_c, 9, 69, 19
1, 31008, Note_off_c, 9, 42, 64
1, 31008, Note_off_c, 9, 40, 64
1, 31008, Note_on_c, 2, 62, 90
1, 31008, Note_on_c, 2, 64, 84
1, 31008, Note_on_c, 8, 59, 84
1, 31008, Note_on_c, 8, 64, 71
1, 31008, Note_on_c, 8, 55, 75
1, 31008, Note_off_c, 9, 69, 64
1, 31009, Note_on_c, 7, 59, 74
1, 31017, Note_off_c, 8, 55, 64
1, 31018, Note_off_c, 8, 64, 64
1, 31018, Note_off_c, 8, 59, 64
1, 31021, Note_off_c, 7, 59, 64
1, 31028, Note_off_c, 3, 69, 64
1, 31031, Note_on_c, 9, 44, 63
1, 31031, Note_on_c, 9, 69, 30
1, 31032, Note_off_c, 9, 44, 64
1, 31032, Note_on_c, 1, 36, 95
1, 31032, Note_on_c, 7, 59, 65
1, 31032, Note_off_c, 9, 69, 64
1, 31049, Note_off_c, 2, 62, 64
1, 31051, Note_off_c, 7, 59, 64
1, 31054, Note_off_c, 2, 67, 64
1, 31055, Lyric_t, "love "
1, 31055, Note_on_c, 3, 71, 116
1, 31055, Note_on_c, 9, 46, 78
1, 31055, Note_on_c, 1, 31, 81
1, 31055, Note_off_c, 2, 71, 64
1, 31055, Note_on_c, 9, 69, 62
1, 31056, Note_off_c, 9, 46, 64
1, 31056, Note_off_c, 1, 36, 64
1, 31056, Note_on_c, 2, 69, 87
1, 31056, Note_on_c, 2, 60, 70
1, 31056, Note_off_c, 9, 69, 64
1, 31057, Note_on_c, 7, 55, 68
1, 31057, Note_on_c, 8, 59, 89
1, 31057, Note_on_c, 8, 64, 78
1, 31057, Note_on_c, 8, 55, 78
1, 31062, Note_off_c, 8, 64, 64
1, 31063, Note_off_c, 8, 55, 64
1, 31064, Note_off_c, 8, 59, 64
1, 31072, Note_off_c, 2, 64, 64
1, 31077, Note_off_c, 1, 31, 64
1, 31078, Note_off_c, 2, 60, 64
1, 31078, Note_on_c, 9, 69, 33
1, 31079, Note_on_c, 1, 33, 85
1, 31079, Note_off_c, 7, 55, 64
1, 31079, Note_off_c, 9, 69, 64
1, 31088, Note_off_c, 2, 69, 64
1, 31091, Note_off_c, 3, 71, 64
1, 31102, Note_on_c, 2, 67, 100
1, 31102, Note_on_c, 2, 71, 100
1, 31103, Note_on_c, 1, 36, 92
1, 31103, Note_on_c, 9, 69, 34
1, 31104, Time_signature, 3, 2, 24, 8
1, 31104, Note_on_c, 2, 64, 84
1, 31104, Note_on_c, 2, 62, 93
1, 31104, Note_off_c, 9, 69, 64
1, 31105, Note_on_c, 9, 36, 114
1, 31105, Note_on_c, 9, 42, 85
1, 31105, Note_off_c, 1, 33, 64
1, 31105, Note_on_c, 7, 55, 77
1, 31106, Note_off_c, 9, 42, 64
1, 31106, Note_off_c, 9, 36, 64
1, 31113, Note_off_c, 2, 64, 64
1, 31114, Note_off_c, 2, 62, 64
1, 31114, Note_off_c, 2, 67, 64
1, 31115, Note_off_c, 2, 71, 64
1, 31118, Note_off_c, 7, 55, 64
1, 31126, Note_on_c, 2, 64, 76
1, 31126, Note_on_c, 2, 62, 82
1, 31127, Note_on_c, 7, 55, 68
1, 31128, Note_on_c, 2, 71, 80
1, 31128, Note_on_c, 2, 67, 84
1, 31128, Note_on_c, 9, 69, 33
1, 31129, Note_off_c, 9, 69, 64
1, 31145, Note_off_c, 7, 55, 64
1, 31146, Note_off_c, 1, 36, 64
1, 31146, Note_off_c, 2, 67, 64
1, 31146, Note_off_c, 2, 71, 64
1, 31146, Note_off_c, 2, 62, 64
1, 31147, Note_off_c, 2, 64, 64
1, 31151, Note_on_c, 9, 44, 68
1, 31151, Note_on_c, 7, 57, 65
1, 31152, Note_off_c, 9, 44, 64
1, 31152, Note_on_c, 2, 69, 84
1, 31152, Note_on_c, 2, 60, 75
1, 31152, Note_on_c, 9, 69, 60
1, 31153, Note_off_c, 9, 69, 64
1, 31172, Note_off_c, 2, 60, 64
1, 31172, Note_off_c, 2, 69, 64
1, 31172, Note_off_c, 7, 57, 64
1, 31175, Lyric_t, "will "
1, 31175, Note_on_c, 3, 69, 111
1, 31176, Note_on_c, 2, 64, 82
1, 31176, Note_on_c, 2, 71, 90
1, 31176, Note_on_c, 2, 67, 97
1, 31176, Note_on_c, 2, 62, 93
1, 31176, Note_on_c, 7, 59, 80
1, 31176, Note_on_c, 9, 69, 45
1, 31177, Note_on_c, 9, 42, 72
1, 31177, Note_off_c, 9, 69, 64
1, 31178, Note_off_c, 9, 42, 64
1, 31178, Note_on_c, 8, 55, 71
1, 31178, Note_on_c, 8, 59, 75
1, 31178, Note_on_c, 8, 64, 58
1, 31184, Note_off_c, 3, 69, 64
1, 31184, Note_off_c, 8, 64, 64
1, 31184, Note_off_c, 8, 59, 64
1, 31188, Note_off_c, 8, 55, 64
1, 31189, Note_off_c, 2, 64, 64
1, 31190, Note_off_c, 2, 62, 64
1, 31192, Note_off_c, 7, 59, 64
1, 31194, Note_off_c, 2, 67, 64
1, 31194, Note_off_c, 2, 71, 64
1, 31199, Note_on_c, 9, 40, 124
1, 31200, Lyric_t, "climb "
1, 31200, Note_on_c, 3, 69, 116
1, 31200, Note_off_c, 9, 40, 64
1, 31201, Note_on_c, 9, 69, 42
1, 31202, Note_on_c, 8, 59, 78
1, 31202, Note_on_c, 8, 55, 56
1, 31202, Note_on_c, 8, 64, 48
1, 31202, Note_off_c, 9, 69, 64
1, 31209, Note_off_c, 8, 64, 64
1, 31213, Note_off_c, 8, 59, 64
1, 31215, Note_off_c, 8, 55, 64
1, 31218, Note_off_c, 3, 69, 64
1, 31223, Note_on_c, 9, 44, 68
1, 31224, Lyric_t, "an"
1, 31224, Note_on_c, 3, 71, 98
1, 31224, Note_off_c, 9, 44, 64
1, 31224, Note_on_c, 2, 67, 93
1, 31224, Note_on_c, 2, 71, 93
1, 31224, Note_on_c, 2, 62, 84
1, 31224, Note_on_c, 2, 64, 76
1, 31225, Note_on_c, 7, 55, 70
1, 31225, Note_on_c, 9, 69, 30
1, 31226, Note_off_c, 9, 69, 64
1, 31239, Note_off_c, 7, 55, 64
1, 31240, Note_off_c, 2, 64, 64
1, 31241, Note_off_c, 3, 71, 64
1, 31242, Note_off_c, 2, 67, 64
1, 31244, Note_off_c, 2, 62, 64
1, 31245, Note_off_c, 2, 71, 64
1, 31247, Lyric_t, "y "
1, 31247, Note_on_c, 3, 72, 98
1, 31247, Note_on_c, 9, 42, 64
1, 31248, Note_off_c, 9, 42, 64
1, 31248, Note_on_c, 2, 69, 87
1, 31248, Note_on_c, 2, 60, 80
1, 31248, Note_on_c, 9, 69, 60
1, 31249, Note_off_c, 9, 69, 64
1, 31266, Note_off_c, 3, 72, 64
1, 31268, Note_off_c, 2, 60, 64
1, 31268, Note_off_c, 2, 69, 64
1, 31271, Lyric_t, "moun"
1, 31271, Note_on_c, 3, 71, 116
1, 31271, Note_on_c, 9, 36, 114
1, 31272, Note_off_c, 9, 36, 64
1, 31272, Note_on_c, 2, 64, 78
1, 31272, Note_on_c, 2, 67, 93
1, 31272, Note_on_c, 2, 71, 97
1, 31272, Note_on_c, 2, 62, 93
1, 31272, Note_on_c, 7, 64, 72
1, 31272, Note_on_c, 9, 69, 30
1, 31273, Note_on_c, 1, 36, 95
1, 31273, Note_off_c, 9, 69, 64
1, 31286, Note_off_c, 2, 64, 64
1, 31287, Note_off_c, 7, 64, 64
1, 31288, Note_off_c, 2, 62, 64
1, 31290, Note_off_c, 2, 67, 64
1, 31292, Note_off_c, 2, 71, 64
1, 31297, Note_on_c, 9, 42, 85
1, 31297, Note_on_c, 9, 69, 40
1, 31298, Note_off_c, 9, 42, 64
1, 31298, Note_off_c, 9, 69, 64
1, 31301, Note_off_c, 1, 36, 64
1, 31318, Note_on_c, 2, 62, 90
1, 31318, Note_on_c, 2, 64, 80
1, 31319, Note_on_c, 9, 69, 31
1, 31320, Note_on_c, 2, 67, 90
1, 31320, Note_on_c, 2, 71, 100
1, 31320, Note_off_c, 9, 69, 64
1, 31321, Note_on_c, 7, 55, 74
1, 31339, Note_off_c, 3, 71, 64
1, 31339, Note_off_c, 7, 55, 64
1, 31342, Note_off_c, 2, 71, 64
1, 31342, Note_off_c, 2, 67, 64
1, 31342, Note_on_c, 2, 60, 78
1, 31343, Note_on_c, 9, 42, 81
1, 31343, Note_on_c, 1, 36, 105
1, 31343, Note_off_c, 2, 62, 64
1, 31344, Note_off_c, 9, 42, 64
1, 31344, Note_on_c, 2, 69, 90
1, 31344, Note_on_c, 9, 69, 59
1, 31345, Lyric_t, "tain, "
1, 31345, Note_on_c, 3, 69, 111
1, 31345, Note_on_c, 9, 40, 120
1, 31345, Note_off_c, 9, 69, 64
1, 31346, Note_off_c, 9, 40, 64
1, 31354, Note_off_c, 2, 64, 64
1, 31363, Note_off_c, 3, 69, 64
1, 31368, Note_off_c, 2, 60, 64
1, 31368, Note_on_c, 7, 55, 62
1, 31369, Note_on_c, 9, 40, 109
1, 31369, Note_on_c, 9, 69, 40
1, 31370, Note_off_c, 9, 40, 64
1, 31370, Note_off_c, 2, 69, 64
1, 31370, Note_off_c, 9, 69, 64
1, 31379, Note_off_c, 7, 55, 64
1, 31392, Time_signature, 4, 2, 24, 8
1, 31392, Note_on_c, 9, 57, 81
1, 31392, Note_on_c, 2, 69, 111
1, 31392, Note_on_c, 2, 72, 97
1, 31392, Note_on_c, 2, 64, 87
1, 31392, Note_on_c, 2, 65, 84
1, 31392, Note_off_c, 11, 64, 64
1, 31392, Note_off_c, 11, 55, 64
1, 31392, Note_off_c, 11, 59, 64
1, 31392, Note_on_c, 11, 65, 58
1, 31392, Note_on_c, 11, 60, 58
1, 31392, Note_on_c, 11, 57, 58
1, 31392, Note_on_c, 9, 69, 30
1, 31393, Lyric_t, "near "
1, 31393, Note_on_c, 3, 69, 116
1, 31393, Note_off_c, 9, 57, 64
1, 31393, Note_off_c, 1, 36, 64
1, 31393, Note_on_c, 1, 31, 98
1, 31393, Note_on_c, 7, 57, 87
1, 31393, Note_off_c, 9, 69, 64
1, 31402, Note_off_c, 2, 64, 64
1, 31405, Note_off_c, 2, 69, 64
1, 31405, Note_off_c, 7, 57, 64
1, 31406, Note_off_c, 2, 72, 64
1, 31415, Note_on_c, 9, 69, 30
1, 31416, Note_on_c, 2, 69, 84
1, 31416, Note_on_c, 2, 72, 60
1, 31416, Note_on_c, 2, 64, 75
1, 31416, Note_off_c, 9, 69, 64
1, 31417, Note_on_c, 7, 57, 70
1, 31432, Note_off_c, 2, 65, 64
1, 31434, Note_off_c, 2, 64, 64
1, 31434, Note_off_c, 7, 57, 64
1, 31438, Note_off_c, 1, 31, 64
1, 31438, Note_off_c, 2, 72, 64
1, 31438, Note_off_c, 2, 69, 64
1, 31439, Note_on_c, 9, 69, 63
1, 31440, Note_on_c, 2, 62, 72
1, 31440, Note_on_c, 2, 71, 80
1, 31440, Note_on_c, 2, 67, 68
1, 31440, Note_off_c, 9, 69, 64
1, 31441, Note_on_c, 9, 44, 68
1, 31441, Note_on_c, 7, 59, 70
1, 31442, Note_off_c, 9, 44, 64
1, 31454, Note_off_c, 2, 67, 64
1, 31457, Note_off_c, 2, 71, 64
1, 31460, Note_off_c, 3, 69, 64
1, 31460, Note_off_c, 7, 59, 64
1, 31462, Note_off_c, 2, 62, 64
1, 31464, Note_on_c, 2, 69, 93
1, 31464, Note_on_c, 2, 65, 73
1, 31464, Note_on_c, 2, 72, 97
1, 31464, Note_on_c, 2, 64, 87
1, 31464, Note_on_c, 7, 60, 74
1, 31464, Note_on_c, 9, 69, 38
1, 31465, Lyric_t, "or "
1, 31465, Note_on_c, 3, 67, 111
1, 31465, Note_on_c, 9, 42, 72
1, 31465, Note_on_c, 8, 65, 65
1, 31465, Note_on_c, 8, 60, 65
1, 31465, Note_on_c, 8, 57, 71
1, 31465, Note_off_c, 9, 69, 64
1, 31466, Note_off_c, 9, 42, 64
1, 31474, Note_off_c, 8, 57, 64
1, 31474, Note_off_c, 8, 60, 64
1, 31474, Note_off_c, 8, 65, 64
1, 31477, Note_off_c, 2, 65, 64
1, 31478, Note_off_c, 2, 64, 64
1, 31482, Note_off_c, 2, 69, 64
1, 31482, Note_off_c, 7, 60, 64
1, 31484, Note_off_c, 2, 72, 64
1, 31488, Note_on_c, 9, 69, 22
1, 31489, Note_on_c, 9, 40, 120
1, 31489, Note_off_c, 9, 69, 64
1, 31490, Note_off_c, 9, 40, 64
1, 31490, Note_on_c, 8, 60, 68
1, 31490, Note_on_c, 8, 57, 75
1, 31490, Note_on_c, 8, 65, 71
1, 31502, Note_off_c, 8, 65, 64
1, 31502, Note_off_c, 8, 57, 64
1, 31505, Note_off_c, 8, 60, 64
1, 31512, Note_on_c, 2, 69, 93
1, 31512, Note_on_c, 2, 72, 97
1, 31512, Note_on_c, 2, 64, 84
1, 31512, Note_on_c, 2, 65, 72
1, 31513, Note_on_c, 9, 44, 78
1, 31513, Note_on_c, 7, 57, 70
1, 31513, Note_on_c, 9, 69, 34
1, 31514, Note_off_c, 9, 44, 64
1, 31514, Note_off_c, 9, 69, 64
1, 31521, Note_off_c, 2, 65, 64
1, 31528, Note_off_c, 2, 64, 64
1, 31532, Note_off_c, 3, 67, 64
1, 31533, Note_off_c, 2, 69, 64
1, 31534, Note_off_c, 2, 72, 64
1, 31534, Note_on_c, 2, 62, 78
1, 31535, Lyric_t, "far. "
1, 31535, Lyric_t, "\015"
1, 31535, Note_on_c, 3, 69, 116
1, 31536, Note_on_c, 9, 42, 63
1, 31536, Note_on_c, 2, 71, 75
1, 31537, Note_off_c, 9, 42, 64
1, 31537, Note_on_c, 9, 69, 53
1, 31538, Note_off_c, 9, 69, 64
1, 31539, Note_off_c, 7, 57, 64
1, 31550, Note_off_c, 2, 71, 64
1, 31556, Note_off_c, 2, 62, 64
1, 31559, Note_on_c, 1, 31, 102
1, 31560, Note_on_c, 2, 72, 90
1, 31560, Note_on_c, 2, 69, 90
1, 31560, Note_on_c, 2, 65, 69
1, 31560, Note_on_c, 2, 64, 76
1, 31560, Note_on_c, 7, 65, 77
1, 31561, Note_on_c, 9, 36, 120
1, 31561, Note_on_c, 9, 69, 36
1, 31562, Note_off_c, 9, 36, 64
1, 31562, Note_off_c, 9, 69, 64
1, 31572, Note_off_c, 2, 64, 64
1, 31577, Note_off_c, 2, 65, 64
1, 31581, Note_off_c, 2, 72, 64
1, 31582, Note_off_c, 2, 69, 64
1, 31582, Note_off_c, 7, 65, 64
1, 31584, Lyric_t, "\012"
1, 31585, Note_on_c, 9, 42, 85
1, 31585, Note_off_c, 1, 31, 64
1, 31585, Note_on_c, 9, 69, 31
1, 31586, Note_off_c, 9, 42, 64
1, 31586, Note_off_c, 9, 69, 64
1, 31608, Note_on_c, 1, 31, 89
1, 31608, Note_on_c, 2, 72, 97
1, 31608, Note_on_c, 2, 69, 97
1, 31608, Note_on_c, 2, 64, 90
1, 31608, Note_on_c, 2, 65, 84
1, 31609, Note_on_c, 7, 57, 83
1, 31609, Note_on_c, 9, 69, 23
1, 31610, Note_off_c, 9, 69, 64
1, 31617, Note_off_c, 3, 69, 64
1, 31621, Note_off_c, 1, 31, 64
1, 31621, Note_off_c, 2, 65, 64
1, 31624, Note_off_c, 2, 64, 64
1, 31625, Note_off_c, 2, 69, 64
1, 31626, Note_off_c, 7, 57, 64
1, 31630, Note_off_c, 2, 72, 64
1, 31630, Note_on_c, 2, 62, 78
1, 31631, Note_on_c, 9, 69, 51
1, 31632, Note_on_c, 2, 71, 80
1, 31632, Note_off_c, 9, 69, 64
1, 31633, Note_on_c, 9, 36, 109
1, 31633, Note_on_c, 9, 42, 72
1, 31633, Note_on_c, 1, 31, 98
1, 31634, Note_off_c, 9, 42, 64
1, 31634, Note_off_c, 9, 36, 64
1, 31649, Note_off_c, 2, 71, 64
1, 31654, Note_off_c, 2, 62, 64
1, 31656, Note_on_c, 7, 57, 77
1, 31656, Note_on_c, 9, 69, 34
1, 31657, Note_on_c, 8, 60, 62
1, 31657, Note_off_c, 9, 69, 64
1, 31658, Note_on_c, 8, 65, 50
1, 31658, Note_on_c, 8, 57, 60
1, 31663, Note_off_c, 8, 65, 64
1, 31663, Note_off_c, 8, 60, 64
1, 31665, Note_off_c, 1, 31, 64
1, 31666, Note_off_c, 8, 57, 64
1, 31669, Note_off_c, 7, 57, 64
1, 31679, Note_on_c, 9, 42, 81
1, 31680, Lyric_t, "We "
1, 31680, Note_on_c, 3, 67, 105
1, 31680, Note_off_c, 9, 42, 64
1, 31680, Note_on_c, 2, 69, 106
1, 31680, Note_on_c, 2, 72, 106
1, 31680, Note_on_c, 2, 65, 100
1, 31680, Note_on_c, 2, 64, 100
1, 31681, Note_on_c, 9, 40, 124
1, 31681, Note_on_c, 7, 60, 74
1, 31681, Note_on_c, 8, 57, 56
1, 31681, Note_on_c, 8, 60, 53
1, 31681, Note_on_c, 8, 65, 56
1, 31682, Note_off_c, 9, 40, 64
1, 31690, Note_off_c, 8, 65, 64
1, 31690, Note_off_c, 8, 57, 64
1, 31692, Note_off_c, 8, 60, 64
1, 31694, Note_off_c, 7, 60, 64
1, 31703, Note_on_c, 9, 44, 72
1, 31703, Note_on_c, 9, 69, 22
1, 31704, Note_off_c, 9, 44, 64
1, 31704, Note_off_c, 9, 69, 64
1, 31705, Note_on_c, 7, 60, 52
1, 31716, Note_off_c, 3, 67, 64
1, 31723, Note_off_c, 7, 60, 64
1, 31725, Note_off_c, 2, 72, 64
1, 31726, Note_off_c, 2, 64, 64
1, 31727, Lyric_t, "are "
1, 31727, Note_on_c, 3, 69, 111
1, 31727, Note_on_c, 9, 46, 78
1, 31727, Note_on_c, 1, 38, 95
1, 31727, Note_on_c, 9, 69, 51
1, 31728, Note_off_c, 9, 46, 64
1, 31728, Note_off_c, 2, 69, 64
1, 31728, Note_on_c, 2, 62, 70
1, 31728, Note_on_c, 2, 71, 87
1, 31728, Note_off_c, 9, 69, 64
1, 31729, Note_on_c, 7, 57, 63
1, 31729, Note_on_c, 8, 57, 84
1, 31729, Note_on_c, 8, 60, 78
1, 31730, Note_on_c, 8, 65, 84
1, 31739, Note_off_c, 8, 60, 64
1, 31740, Note_off_c, 8, 57, 64
1, 31741, Note_off_c, 8, 65, 64
1, 31746, Note_off_c, 2, 65, 64
1, 31750, Note_off_c, 7, 57, 64
1, 31751, Note_on_c, 1, 43, 89
1, 31751, Note_on_c, 9, 69, 48
1, 31752, Note_off_c, 1, 38, 64
1, 31752, Note_off_c, 9, 69, 64
1, 31756, Note_off_c, 2, 62, 64
1, 31757, Note_off_c, 2, 71, 64
1, 31775, Note_on_c, 9, 36, 114
1, 31776, Note_off_c, 9, 36, 64
1, 31776, Note_on_c, 2, 69, 100
1, 31776, Note_on_c, 2, 72, 100
1, 31776, Note_on_c, 2, 65, 78
1, 31776, Note_on_c, 2, 64, 87
1, 31776, Note_on_c, 7, 57, 83
1, 31777, Note_on_c, 9, 42, 81
1, 31777, Note_on_c, 1, 31, 95
1, 31778, Note_off_c, 9, 42, 64
1, 31778, Note_off_c, 1, 43, 64
1, 31778, Note_on_c, 9, 69, 33
1, 31779, Note_off_c, 9, 69, 64
1, 31786, Note_off_c, 2, 64, 64
1, 31786, Note_off_c, 2, 69, 64
1, 31788, Note_off_c, 2, 72, 64
1, 31788, Note_off_c, 7, 57, 64
1, 31794, Note_off_c, 3, 69, 64
1, 31798, Note_on_c, 2, 69, 87
1, 31799, Note_on_c, 7, 57, 70
1, 31800, Note_on_c, 2, 72, 82
1, 31800, Note_on_c, 2, 64, 66
1, 31801, Note_on_c, 9, 69, 26
1, 31802, Note_off_c, 9, 69, 64
1, 31814, Note_off_c, 7, 57, 64
1, 31817, Note_off_c, 2, 65, 64
1, 31818, Note_off_c, 2, 69, 64
1, 31818, Note_off_c, 2, 72, 64
1, 31820, Note_off_c, 2, 64, 64
1, 31822, Note_on_c, 2, 71, 90
1, 31823, Note_on_c, 7, 59, 72
1, 31824, Note_on_c, 9, 44, 58
1, 31824, Note_on_c, 2, 62, 73
1, 31825, Note_off_c, 9, 44, 64
1, 31825, Note_on_c, 9, 69, 61
1, 31826, Note_off_c, 9, 69, 64
1, 31830, Note_off_c, 1, 31, 64
1, 31841, Note_off_c, 2, 71, 64
1, 31843, Note_off_c, 7, 59, 64
1, 31846, Note_off_c, 2, 62, 64
1, 31847, Note_on_c, 7, 60, 77
1, 31848, Note_on_c, 2, 72, 84
1, 31848, Note_on_c, 2, 69, 90
1, 31848, Note_on_c, 2, 65, 76
1, 31848, Note_on_c, 2, 64, 84
1, 31848, Note_on_c, 9, 69, 40
1, 31849, Note_on_c, 9, 42, 70
1, 31849, Note_on_c, 8, 57, 75
1, 31849, Note_on_c, 8, 60, 68
1, 31849, Note_on_c, 8, 65, 65
1, 31849, Note_off_c, 9, 69, 64
1, 31850, Note_off_c, 9, 42, 64
1, 31854, Note_off_c, 8, 65, 64
1, 31855, Note_off_c, 8, 60, 64
1, 31857, Note_off_c, 8, 57, 64
1, 31858, Note_off_c, 2, 65, 64
1, 31860, Note_off_c, 2, 64, 64
1, 31862, Note_off_c, 7, 60, 64
1, 31864, Note_off_c, 2, 69, 64
1, 31866, Note_off_c, 2, 72, 64
1, 31873, Note_on_c, 9, 40, 124
1, 31873, Note_on_c, 8, 65, 68
1, 31873, Note_on_c, 8, 60, 62
1, 31873, Note_on_c, 8, 57, 65
1, 31874, Note_off_c, 9, 40, 64
1, 31874, Note_on_c, 9, 69, 33
1, 31875, Note_off_c, 9, 69, 64
1, 31882, Note_off_c, 8, 65, 64
1, 31884, Note_off_c, 8, 60, 64
1, 31885, Note_off_c, 8, 57, 64
1, 31896, Note_on_c, 9, 44, 72
1, 31896, Note_on_c, 2, 72, 93
1, 31896, Note_on_c, 2, 69, 93
1, 31896, Note_on_c, 2, 64, 87
1, 31896, Note_on_c, 2, 65, 80
1, 31897, Lyric_t, "and "
1, 31897, Note_on_c, 3, 67, 105
1, 31897, Note_off_c, 9, 44, 64
1, 31897, Note_on_c, 7, 57, 70
1, 31897, Note_on_c, 9, 69, 30
1, 31898, Note_off_c, 9, 69, 64
1, 31908, Note_off_c, 2, 65, 64
1, 31913, Note_off_c, 3, 67, 64
1, 31914, Note_off_c, 2, 64, 64
1, 31917, Note_off_c, 2, 69, 64
1, 31920, Note_off_c, 2, 72, 64
1, 31920, Note_on_c, 2, 71, 93
1, 31920, Note_on_c, 2, 62, 84
1, 31921, Lyric_t, "we "
1, 31921, Note_on_c, 3, 69, 98
1, 31921, Note_on_c, 9, 42, 81
1, 31922, Note_off_c, 9, 42, 64
1, 31922, Note_off_c, 7, 57, 64
1, 31922, Note_on_c, 9, 69, 52
1, 31923, Note_off_c, 9, 69, 64
1, 31934, Note_off_c, 3, 69, 64
1, 31937, Note_off_c, 2, 71, 64
1, 31940, Note_off_c, 2, 62, 64
1, 31944, Note_on_c, 9, 36, 109
1, 31944, Note_on_c, 2, 72, 93
1, 31944, Note_on_c, 2, 69, 100
1, 31944, Note_on_c, 2, 65, 76
1, 31944, Note_on_c, 2, 64, 87
1, 31944, Note_on_c, 7, 65, 80
1, 31945, Lyric_t, "nev"
1, 31945, Note_on_c, 3, 71, 111
1, 31945, Note_off_c, 9, 36, 64
1, 31945, Note_on_c, 1, 31, 105
1, 31945, Note_on_c, 9, 69, 36
1, 31946, Note_off_c, 9, 69, 64
1, 31956, Note_off_c, 2, 64, 64
1, 31957, Note_off_c, 2, 65, 64
1, 31962, Note_off_c, 2, 69, 64
1, 31965, Note_off_c, 2, 72, 64
1, 31967, Note_off_c, 7, 65, 64
1, 31969, Note_on_c, 9, 42, 85
1, 31969, Note_on_c, 9, 69, 40
1, 31970, Note_off_c, 9, 42, 64
1, 31970, Note_off_c, 9, 69, 64
1, 31973, Note_off_c, 1, 31, 64
1, 31991, Note_on_c, 1, 31, 80
1, 31992, Note_on_c, 2, 72, 97
1, 31992, Note_on_c, 2, 69, 97
1, 31992, Note_on_c, 2, 64, 93
1, 31992, Note_on_c, 2, 65, 84
1, 31993, Note_on_c, 7, 55, 72
1, 31993, Note_on_c, 9, 69, 23
1, 31994, Note_off_c, 9, 69, 64
1, 32003, Note_off_c, 1, 31, 64
1, 32004, Note_off_c, 2, 65, 64
1, 32009, Note_off_c, 2, 64, 64
1, 32010, Note_off_c, 3, 71, 64
1, 32010, Note_off_c, 2, 69, 64
1, 32013, Note_off_c, 2, 72, 64
1, 32013, Note_off_c, 7, 55, 64
1, 32014, Note_on_c, 2, 62, 82
1, 32015, Lyric_t, "er "
1, 32015, Note_on_c, 3, 72, 102
1, 32015, Note_on_c, 1, 31, 102
1, 32016, Note_on_c, 9, 36, 114
1, 32016, Note_on_c, 2, 71, 75
1, 32016, Note_on_c, 9, 69, 58
1, 32017, Note_off_c, 9, 36, 64
1, 32017, Note_on_c, 9, 42, 70
1, 32017, Note_off_c, 9, 69, 64
1, 32018, Note_off_c, 9, 42, 64
1, 32032, Note_off_c, 2, 71, 64
1, 32037, Note_off_c, 3, 72, 64
1, 32040, Note_off_c, 2, 62, 64
1, 32041, Lyric_t, "let "
1, 32041, Note_on_c, 3, 71, 99
1, 32041, Note_on_c, 7, 55, 53
1, 32041, Note_on_c, 8, 57, 84
1, 32041, Note_on_c, 8, 65, 84
1, 32041, Note_on_c, 8, 60, 75
1, 32042, Note_on_c, 9, 69, 48
1, 32043, Note_off_c, 9, 69, 64
1, 32046, Note_off_c, 8, 60, 64
1, 32047, Note_off_c, 7, 55, 64
1, 32047, Note_off_c, 8, 65, 64
1, 32048, Note_off_c, 8, 57, 64
1, 32050, Note_off_c, 1, 31, 64
1, 32063, Note_on_c, 8, 60, 58
1, 32064, Note_on_c, 9, 42, 81
1, 32064, Note_on_c, 2, 69, 106
1, 32064, Note_on_c, 2, 64, 93
1, 32064, Note_on_c, 2, 72, 106
1, 32064, Note_on_c, 2, 65, 100
1, 32064, Note_on_c, 8, 57, 60
1, 32064, Note_on_c, 8, 65, 58
1, 32065, Note_off_c, 9, 42, 64
1, 32065, Note_on_c, 9, 40, 124
1, 32065, Note_on_c, 7, 59, 90
1, 32066, Note_off_c, 9, 40, 64
1, 32066, Note_on_c, 9, 69, 23
1, 32067, Note_off_c, 9, 69, 64
1, 32070, Note_off_c, 8, 65, 64
1, 32072, Note_off_c, 8, 57, 64
1, 32073, Note_off_c, 8, 60, 64
1, 32087, Note_on_c, 1, 31, 98
1, 32088, Note_on_c, 9, 44, 70
1, 32088, Note_off_c, 7, 59, 64
1, 32089, Note_off_c, 9, 44, 64
1, 32089, Note_on_c, 9, 69, 24
1, 32090, Lyric_t, "it "
1, 32090, Note_off_c, 3, 71, 64
1, 32090, Note_on_c, 3, 67, 98
1, 32090, Note_off_c, 9, 69, 64
1, 32106, Note_off_c, 1, 31, 64
1, 32110, Note_off_c, 2, 72, 64
1, 32111, Note_on_c, 1, 33, 102
1, 32112, Note_on_c, 9, 46, 81
1, 32112, Note_off_c, 2, 69, 64
1, 32112, Note_on_c, 2, 62, 82
1, 32112, Note_on_c, 2, 71, 90
1, 32113, Note_off_c, 9, 46, 64
1, 32113, Note_on_c, 7, 55, 68
1, 32113, Note_on_c, 8, 57, 84
1, 32113, Note_on_c, 8, 65, 78
1, 32113, Note_on_c, 8, 60, 68
1, 32113, Note_on_c, 9, 69, 62
1, 32114, Note_off_c, 9, 69, 64
1, 32119, Note_off_c, 8, 60, 64
1, 32120, Note_off_c, 8, 65, 64
1, 32121, Note_off_c, 2, 65, 64
1, 32122, Note_off_c, 2, 64, 64
1, 32122, Note_off_c, 8, 57, 64
1, 32126, Note_off_c, 1, 33, 64
1, 32126, Note_off_c, 2, 62, 64
1, 32135, Note_off_c, 7, 55, 64
1, 32136, Note_off_c, 2, 71, 64
1, 32137, Note_on_c, 1, 33, 92
1, 32137, Note_on_c, 9, 69, 38
1, 32138, Note_off_c, 9, 69, 64
1, 32143, Note_off_c, 3, 67, 64
1, 32157, Note_off_c, 1, 33, 64
1, 32158, Note_on_c, 2, 64, 90
1, 32159, Note_on_c, 1, 36, 95
1, 32160, Note_on_c, 2, 71, 106
1, 32160, Note_on_c, 2, 67, 90
1, 32160, Note_on_c, 2, 74, 100
1, 32160, Note_off_c, 11, 57, 64
1, 32160, Note_off_c, 11, 60, 64
1, 32160, Note_off_c, 11, 65, 64
1, 32160, Note_on_c, 11, 64, 57
1, 32160, Note_on_c, 11, 67, 57
1, 32160, Note_on_c, 11, 59, 57
1, 32161, Note_on_c, 9, 36, 114
1, 32161, Note_on_c, 9, 42, 81
1, 32161, Note_on_c, 7, 55, 74
1, 32162, Lyric_t, "en-"
1, 32162, Note_on_c, 3, 69, 111
1, 32162, Note_off_c, 9, 42, 64
1, 32162, Note_off_c, 9, 36, 64
1, 32172, Note_off_c, 2, 74, 64
1, 32172, Note_off_c, 2, 67, 64
1, 32173, Note_off_c, 2, 71, 64
1, 32173, Note_off_c, 2, 64, 64
1, 32173, Note_off_c, 7, 55, 64
1, 32184, Note_on_c, 2, 71, 84
1, 32184, Note_on_c, 2, 67, 75
1, 32184, Note_on_c, 2, 64, 87
1, 32184, Note_on_c, 2, 74, 82
1, 32185, Note_on_c, 7, 55, 63
1, 32185, Note_on_c, 9, 69, 40
1, 32186, Note_off_c, 9, 69, 64
1, 32192, Note_off_c, 3, 69, 64
1, 32195, Note_off_c, 1, 36, 64
1, 32198, Note_off_c, 7, 55, 64
1, 32202, Note_off_c, 2, 74, 64
1, 32202, Note_off_c, 2, 71, 64
1, 32208, Note_on_c, 2, 72, 72
1, 32208, Note_on_c, 2, 69, 78
1, 32208, Note_on_c, 7, 57, 70
1, 32209, Lyric_t, "end. "
1, 32209, Lyric_t, "\015"
1, 32209, Note_on_c, 3, 69, 111
1, 32209, Note_on_c, 9, 44, 61
1, 32209, Note_on_c, 9, 69, 63
1, 32210, Note_off_c, 9, 44, 64
1, 32210, Note_off_c, 9, 69, 64
1, 32214, Note_off_c, 2, 67, 64
1, 32218, Note_off_c, 2, 64, 64
1, 32224, Note_off_c, 2, 69, 64
1, 32228, Note_off_c, 2, 72, 64
1, 32228, Note_off_c, 7, 57, 64
1, 32230, Note_off_c, 3, 69, 64
1, 32231, Note_on_c, 8, 55, 68
1, 32232, Note_on_c, 2, 64, 84
1, 32232, Note_on_c, 2, 67, 87
1, 32232, Note_on_c, 2, 71, 97
1, 32232, Note_on_c, 2, 74, 90
1, 32232, Note_on_c, 8, 64, 65
1, 32232, Note_on_c, 8, 59, 65
1, 32233, Note_on_c, 9, 42, 78
1, 32233, Note_on_c, 7, 59, 83
1, 32233, Note_on_c, 9, 69, 48
1, 32234, Note_on_c, 3, 67, 105
1, 32234, Note_off_c, 9, 42, 64
1, 32234, Note_off_c, 9, 69, 64
1, 32238, Note_off_c, 8, 59, 64
1, 32238, Note_off_c, 8, 64, 64
1, 32242, Note_off_c, 8, 55, 64
1, 32248, Note_off_c, 2, 67, 64
1, 32248, Note_off_c, 2, 64, 64
1, 32248, Note_off_c, 7, 59, 64
1, 32252, Note_off_c, 2, 71, 64
1, 32252, Note_off_c, 2, 74, 64
1, 32255, Note_on_c, 9, 40, 124
1, 32256, Note_off_c, 9, 40, 64
1, 32256, Note_on_c, 8, 59, 75
1, 32256, Note_on_c, 9, 69, 20
1, 32257, Note_on_c, 8, 64, 71
1, 32257, Note_on_c, 8, 55, 78
1, 32257, Note_off_c, 9, 69, 64
1, 32268, Note_off_c, 8, 55, 64
1, 32268, Note_off_c, 8, 64, 64
1, 32269, Note_off_c, 8, 59, 64
1, 32279, Note_on_c, 9, 44, 78
1, 32279, Note_on_c, 9, 69, 36
1, 32280, Note_off_c, 9, 44, 64
1, 32280, Note_on_c, 2, 71, 97
1, 32280, Note_on_c, 2, 64, 90
1, 32280, Note_on_c, 2, 74, 97
1, 32280, Note_on_c, 2, 67, 97
1, 32280, Note_off_c, 9, 69, 64
1, 32281, Note_on_c, 7, 55, 68
1, 32298, Note_off_c, 2, 71, 64
1, 32302, Note_off_c, 2, 74, 64
1, 32303, Note_on_c, 9, 42, 68
1, 32303, Note_off_c, 7, 55, 64
1, 32303, Note_on_c, 9, 69, 58
1, 32304, Note_off_c, 9, 42, 64
1, 32304, Note_on_c, 2, 69, 87
1, 32304, Note_on_c, 2, 72, 87
1, 32304, Note_off_c, 9, 69, 64
1, 32306, Note_off_c, 2, 67, 64
1, 32314, Note_off_c, 2, 64, 64
1, 32320, Note_off_c, 2, 69, 64
1, 32320, Note_off_c, 2, 72, 64
1, 32327, Note_on_c, 1, 36, 92
1, 32327, Note_on_c, 9, 69, 36
1, 32328, Note_on_c, 9, 36, 114
1, 32328, Note_on_c, 2, 64, 87
1, 32328, Note_on_c, 2, 71, 100
1, 32328, Note_on_c, 2, 74, 97
1, 32328, Note_on_c, 2, 67, 80
1, 32328, Note_on_c, 7, 64, 83
1, 32328, Note_off_c, 9, 69, 64
1, 32329, Note_off_c, 9, 36, 64
1, 32341, Note_off_c, 2, 67, 64
1, 32341, Note_off_c, 2, 64, 64
1, 32345, Note_off_c, 2, 74, 64
1, 32348, Note_off_c, 2, 71, 64
1, 32348, Note_off_c, 7, 64, 64
1, 32351, Note_off_c, 1, 36, 64
1, 32352, Note_on_c, 9, 42, 85
1, 32353, Note_off_c, 9, 42, 64
1, 32353, Note_on_c, 9, 69, 22
1, 32354, Note_off_c, 9, 69, 64
1, 32366, Note_off_c, 3, 67, 64
1, 32374, Note_on_c, 2, 71, 90
1, 32374, Note_on_c, 2, 74, 93
1, 32375, Note_on_c, 1, 36, 92
1, 32376, Note_on_c, 2, 64, 90
1, 32376, Note_on_c, 2, 67, 90
1, 32376, Note_on_c, 7, 55, 72
1, 32377, Note_on_c, 9, 69, 25
1, 32378, Note_off_c, 9, 69, 64
1, 32390, Note_off_c, 1, 36, 64
1, 32390, Note_off_c, 2, 74, 64
1, 32390, Note_off_c, 2, 71, 64
1, 32390, Note_off_c, 7, 55, 64
1, 32398, Note_on_c, 2, 72, 76
1, 32399, Note_on_c, 9, 36, 104
1, 32399, Note_on_c, 1, 36, 83
1, 32399, Note_on_c, 9, 69, 67
1, 32400, Note_off_c, 9, 36, 64
1, 32400, Note_on_c, 2, 69, 78
1, 32400, Note_off_c, 9, 69, 64
1, 32401, Note_on_c, 9, 42, 78
1, 32402, Note_off_c, 9, 42, 64
1, 32410, Note_off_c, 2, 67, 64
1, 32416, Note_off_c, 2, 64, 64
1, 32416, Note_off_c, 2, 72, 64
1, 32420, Note_off_c, 2, 69, 64
1, 32423, Note_on_c, 7, 55, 68
1, 32423, Note_on_c, 8, 64, 65
1, 32423, Note_on_c, 8, 55, 65
1, 32423, Note_on_c, 9, 69, 38
1, 32424, Note_on_c, 8, 59, 68
1, 32424, Note_off_c, 9, 69, 64
1, 32428, Note_off_c, 1, 36, 64
1, 32430, Note_off_c, 8, 59, 64
1, 32430, Note_off_c, 8, 55, 64
1, 32430, Note_off_c, 8, 64, 64
1, 32437, Note_off_c, 7, 55, 64
1, 32446, Note_on_c, 2, 64, 97
1, 32446, Note_on_c, 2, 74, 106
1, 32446, Note_on_c, 2, 71, 106
1, 32446, Note_on_c, 2, 67, 97
1, 32447, Note_on_c, 8, 59, 71
1, 32447, Note_on_c, 8, 55, 68
1, 32447, Note_on_c, 8, 64, 71
1, 32448, Note_on_c, 9, 42, 85
1, 32448, Note_on_c, 7, 59, 80
1, 32449, Lyric_t, "We "
1, 32449, Note_on_c, 3, 62, 116
1, 32449, Note_off_c, 9, 42, 64
1, 32449, Note_on_c, 9, 40, 124
1, 32449, Note_on_c, 9, 69, 12
1, 32450, Note_off_c, 9, 40, 64
1, 32450, Note_off_c, 9, 69, 64
1, 32455, Note_off_c, 8, 64, 64
1, 32458, Note_off_c, 7, 59, 64
1, 32458, Note_off_c, 8, 55, 64
1, 32458, Note_off_c, 8, 59, 64
1, 32466, Note_off_c, 3, 62, 64
1, 32471, Note_on_c, 9, 44, 68
1, 32471, Note_on_c, 1, 31, 87
1, 32471, Note_off_c, 2, 67, 64
1, 32471, Note_on_c, 7, 59, 65
1, 32472, Note_off_c, 9, 44, 64
1, 32473, Lyric_t, "are "
1, 32473, Note_on_c, 3, 64, 95
1, 32473, Note_on_c, 9, 69, 24
1, 32474, Note_off_c, 9, 69, 64
1, 32483, Note_off_c, 2, 64, 64
1, 32487, Note_off_c, 3, 64, 64
1, 32491, Note_off_c, 1, 31, 64
1, 32491, Note_off_c, 2, 74, 64
1, 32492, Note_off_c, 2, 71, 64
1, 32493, Note_off_c, 7, 59, 64
1, 32494, Note_on_c, 2, 64, 64
1, 32495, Lyric_t, "de"
1, 32495, Note_on_c, 3, 67, 105
1, 32495, Note_on_c, 1, 36, 87
1, 32495, Note_on_c, 8, 55, 71
1, 32495, Note_on_c, 8, 64, 71
1, 32495, Note_on_c, 8, 59, 71
1, 32496, Note_on_c, 9, 46, 72
1, 32496, Note_on_c, 2, 67, 90
1, 32496, Note_on_c, 2, 72, 87
1, 32496, Note_on_c, 2, 69, 97
1, 32497, Note_off_c, 9, 46, 64
1, 32497, Note_on_c, 7, 55, 66
1, 32497, Note_on_c, 9, 69, 62
1, 32498, Note_off_c, 9, 69, 64
1, 32506, Note_off_c, 8, 59, 64
1, 32507, Note_off_c, 2, 64, 64
1, 32507, Note_off_c, 8, 64, 64
1, 32508, Note_off_c, 8, 55, 64
1, 32509, Note_off_c, 2, 67, 64
1, 32510, Note_off_c, 7, 55, 64
1, 32512, Note_off_c, 3, 67, 64
1, 32516, Note_off_c, 1, 36, 64
1, 32516, Note_off_c, 2, 69, 64
1, 32519, Note_on_c, 1, 35, 81
1, 32520, Note_off_c, 2, 72, 64
1, 32521, Lyric_t, "vo"
1, 32521, Note_on_c, 3, 69, 116
1, 32521, Note_on_c, 9, 69, 38
1, 32522, Note_off_c, 9, 69, 64
1, 32543, Note_on_c, 9, 36, 114
1, 32543, Note_on_c, 9, 69, 19
1, 32544, Note_off_c, 9, 36, 64
1, 32544, Note_on_c, 2, 64, 97
1, 32544, Note_on_c, 2, 71, 106
1, 32544, Note_on_c, 2, 67, 100
1, 32544, Note_off_c, 11, 59, 64
1, 32544, Note_off_c, 11, 67, 64
1, 32544, Note_on_c, 11, 60, 56
1, 32544, Note_on_c, 11, 69, 56
1, 32544, Note_off_c, 9, 69, 64
1, 32545, Note_on_c, 9, 42, 81
1, 32545, Note_off_c, 1, 35, 64
1, 32545, Note_on_c, 1, 33, 92
1, 32546, Note_off_c, 9, 42, 64
1, 32564, Note_off_c, 2, 67, 64
1, 32566, Note_off_c, 2, 71, 64
1, 32567, Note_on_c, 9, 69, 30
1, 32568, Note_on_c, 2, 72, 84
1, 32568, Note_on_c, 2, 69, 87
1, 32568, Note_off_c, 9, 69, 64
1, 32569, Note_on_c, 7, 52, 77
1, 32580, Note_off_c, 7, 52, 64
1, 32584, Note_off_c, 2, 69, 64
1, 32588, Note_off_c, 2, 72, 64
1, 32591, Note_on_c, 9, 44, 70
1, 32591, Note_on_c, 9, 69, 62
1, 32592, Note_off_c, 9, 44, 64
1, 32592, Note_on_c, 2, 67, 84
1, 32592, Note_on_c, 2, 71, 93
1, 32592, Note_off_c, 9, 69, 64
1, 32593, Note_on_c, 7, 57, 87
1, 32594, Note_off_c, 1, 33, 64
1, 32603, Note_off_c, 3, 69, 64
1, 32609, Note_off_c, 2, 71, 64
1, 32610, Note_off_c, 2, 67, 64
1, 32610, Note_off_c, 2, 64, 64
1, 32610, Note_off_c, 7, 57, 64
1, 32614, Note_on_c, 9, 69, 33
1, 32615, Lyric_t, "tion. "
1, 32615, Lyric_t, "\015"
1, 32615, Note_on_c, 3, 64, 105
1, 32615, Note_off_c, 9, 69, 64
1, 32616, Note_on_c, 2, 69, 100
1, 32616, Note_on_c, 2, 72, 93
1, 32616, Note_on_c, 2, 64, 97
1, 32617, Note_on_c, 9, 42, 78
1, 32617, Note_on_c, 7, 60, 77
1, 32617, Note_on_c, 8, 57, 75
1, 32617, Note_on_c, 8, 60, 68
1, 32617, Note_on_c, 8, 64, 56
1, 32618, Note_off_c, 9, 42, 64
1, 32622, Note_off_c, 8, 64, 64
1, 32624, Note_off_c, 8, 57, 64
1, 32625, Note_off_c, 8, 60, 64
1, 32633, Note_off_c, 2, 64, 64
1, 32634, Note_off_c, 7, 60, 64
1, 32637, Note_off_c, 2, 72, 64
1, 32637, Note_off_c, 2, 69, 64
1, 32639, Note_on_c, 9, 40, 124
1, 32639, Note_on_c, 9, 69, 34
1, 32640, Note_off_c, 9, 40, 64
1, 32640, Note_off_c, 9, 69, 64
1, 32641, Note_on_c, 8, 57, 78
1, 32641, Note_on_c, 8, 60, 60
1, 32642, Note_on_c, 8, 64, 45
1, 32654, Note_off_c, 8, 64, 64
1, 32654, Note_off_c, 8, 57, 64
1, 32656, Note_off_c, 8, 60, 64
1, 32659, Note_off_c, 3, 64, 64
1, 32662, Note_on_c, 3, 62, 92
1, 32663, Note_on_c, 9, 44, 78
1, 32664, Lyric_t, "\012"
1, 32664, Note_off_c, 9, 44, 64
1, 32664, Note_on_c, 2, 64, 93
1, 32664, Note_on_c, 2, 69, 100
1, 32664, Note_on_c, 2, 72, 100
1, 32664, Note_on_c, 9, 69, 33
1, 32665, Note_on_c, 7, 57, 80
1, 32665, Note_off_c, 9, 69, 64
1, 32678, Note_off_c, 3, 62, 64
1, 32679, Note_off_c, 7, 57, 64
1, 32680, Note_off_c, 2, 72, 64
1, 32680, Note_off_c, 2, 69, 64
1, 32687, Note_on_c, 9, 42, 70
1, 32688, Note_on_c, 3, 60, 102
1, 32688, Note_off_c, 9, 42, 64
1, 32688, Note_on_c, 2, 71, 82
1, 32688, Note_on_c, 2, 67, 76
1, 32688, Note_on_c, 9, 69, 60
1, 32689, Note_off_c, 9, 69, 64
1, 32702, Note_off_c, 2, 67, 64
1, 32704, Note_off_c, 2, 71, 64
1, 32704, Note_off_c, 2, 64, 64
1, 32711, Note_on_c, 1, 28, 85
1, 32712, Note_on_c, 2, 64, 90
1, 32712, Note_on_c, 2, 72, 97
1, 32712, Note_on_c, 2, 69, 93
1, 32712, Note_on_c, 7, 64, 83
1, 32712, Note_on_c, 9, 69, 45
1, 32713, Note_on_c, 9, 36, 109
1, 32713, Note_off_c, 9, 69, 64
1, 32714, Note_off_c, 9, 36, 64
1, 32721, Note_off_c, 3, 60, 64
1, 32729, Note_off_c, 2, 69, 64
1, 32730, Note_off_c, 1, 28, 64
1, 32730, Note_off_c, 2, 72, 64
1, 32731, Note_off_c, 7, 64, 64
1, 32732, Note_off_c, 2, 64, 64
1, 32735, Note_on_c, 9, 42, 85
1, 32735, Note_on_c, 1, 33, 98
1, 32736, Note_off_c, 9, 42, 64
1, 32737, Note_on_c, 9, 36, 114
1, 32737, Note_on_c, 9, 69, 42
1, 32738, Note_off_c, 9, 36, 64
1, 32738, Note_off_c, 9, 69, 64
1, 32760, Lyric_t, "And "
1, 32760, Note_on_c, 3, 71, 102
1, 32760, Note_on_c, 9, 47, 109
1, 32760, Note_on_c, 2, 69, 97
1, 32760, Note_on_c, 2, 72, 90
1, 32760, Note_on_c, 2, 64, 106
1, 32761, Note_off_c, 9, 47, 64
1, 32761, Note_on_c, 7, 57, 90
1, 32761, Note_on_c, 9, 69, 30
1, 32762, Note_off_c, 9, 69, 64
1, 32775, Note_off_c, 3, 71, 64
1, 32776, Note_off_c, 7, 57, 64
1, 32777, Note_off_c, 2, 69, 64
1, 32782, Note_off_c, 1, 33, 64
1, 32782, Note_off_c, 2, 72, 64
1, 32783, Note_on_c, 9, 42, 70
1, 32784, Note_off_c, 9, 42, 64
1, 32784, Note_on_c, 2, 71, 87
1, 32784, Note_on_c, 2, 67, 78
1, 32784, Note_on_c, 9, 69, 60
1, 32785, Lyric_t, "we "
1, 32785, Note_on_c, 3, 71, 89
1, 32785, Note_off_c, 9, 69, 64
1, 32796, Note_off_c, 3, 71, 64
1, 32798, Note_off_c, 2, 71, 64
1, 32802, Note_off_c, 2, 67, 64
1, 32804, Note_off_c, 2, 64, 64
1, 32808, Note_on_c, 9, 45, 109
1, 32808, Note_on_c, 7, 57, 83
1, 32808, Note_on_c, 9, 69, 30
1, 32809, Lyric_t, "got "
1, 32809, Note_on_c, 3, 71, 105
1, 32809, Note_off_c, 9, 45, 64
1, 32809, Note_on_c, 8, 57, 78
1, 32809, Note_on_c, 8, 60, 62
1, 32809, Note_off_c, 9, 69, 64
1, 32810, Note_on_c, 8, 64, 45
1, 32814, Note_off_c, 8, 60, 64
1, 32814, Note_off_c, 8, 57, 64
1, 32816, Note_off_c, 8, 64, 64
1, 32822, Note_off_c, 7, 57, 64
1, 32825, Note_off_c, 3, 71, 64
1, 32832, Note_on_c, 2, 69, 111
1, 32832, Note_on_c, 2, 72, 106
1, 32832, Note_on_c, 2, 64, 106
1, 32833, Lyric_t, "noth"
1, 32833, Note_on_c, 3, 71, 98
1, 32833, Note_on_c, 9, 42, 85
1, 32833, Note_on_c, 7, 60, 74
1, 32833, Note_on_c, 8, 57, 71
1, 32833, Note_on_c, 8, 60, 68
1, 32833, Note_on_c, 8, 64, 53
1, 32833, Note_on_c, 9, 69, 40
1, 32834, Note_off_c, 9, 42, 64
1, 32834, Note_off_c, 9, 69, 64
1, 32839, Note_off_c, 8, 64, 64
1, 32842, Note_off_c, 7, 60, 64
1, 32842, Note_off_c, 8, 60, 64
1, 32842, Note_off_c, 8, 57, 64
1, 32847, Note_off_c, 3, 71, 64
1, 32855, Note_on_c, 1, 31, 92
1, 32855, Note_on_c, 7, 60, 63
1, 32855, Note_on_c, 9, 69, 31
1, 32856, Note_on_c, 9, 43, 98
1, 32856, Note_off_c, 9, 69, 64
1, 32857, Lyric_t, "ing "
1, 32857, Note_on_c, 3, 71, 98
1, 32857, Note_off_c, 9, 43, 64
1, 32860, Note_off_c, 2, 64, 64
1, 32871, Note_off_c, 3, 71, 64
1, 32875, Note_off_c, 1, 31, 64
1, 32876, Note_off_c, 2, 69, 64
1, 32876, Note_off_c, 7, 60, 64
1, 32879, Note_on_c, 1, 33, 87
1, 32880, Note_on_c, 9, 42, 85
1, 32880, Note_off_c, 2, 72, 64
1, 32880, Note_on_c, 2, 64, 100
1, 32880, Note_on_c, 2, 67, 80
1, 32880, Note_on_c, 2, 71, 90
1, 32880, Note_on_c, 8, 57, 84
1, 32880, Note_on_c, 8, 64, 71
1, 32880, Note_on_c, 9, 69, 59
1, 32881, Lyric_t, "to "
1, 32881, Note_on_c, 3, 71, 92
1, 32881, Note_off_c, 9, 42, 64
1, 32881, Note_on_c, 9, 43, 91
1, 32881, Note_on_c, 7, 57, 68
1, 32881, Note_on_c, 8, 60, 62
1, 32881, Note_off_c, 9, 69, 64
1, 32882, Note_off_c, 9, 43, 64
1, 32888, Note_off_c, 8, 60, 64
1, 32890, Note_off_c, 8, 64, 64
1, 32890, Note_off_c, 8, 57, 64
1, 32892, Note_off_c, 1, 33, 64
1, 32894, Note_off_c, 3, 71, 64
1, 32898, Note_off_c, 7, 57, 64
1, 32901, Note_off_c, 2, 71, 64
1, 32903, Note_on_c, 1, 33, 81
1, 32904, Note_off_c, 2, 64, 64
1, 32905, Lyric_t, "be "
1, 32905, Note_on_c, 3, 71, 105
1, 32905, Note_on_c, 9, 43, 80
1, 32905, Note_off_c, 2, 67, 64
1, 32905, Note_on_c, 9, 69, 40
1, 32906, Note_off_c, 9, 43, 64
1, 32906, Note_off_c, 9, 69, 64
1, 32918, Note_off_c, 3, 71, 64
1, 32926, Note_off_c, 1, 33, 64
1, 32927, Note_on_c, 1, 36, 111
1, 32927, Note_off_c, 11, 64, 64
1, 32928, Note_on_c, 2, 62, 90
1, 32928, Note_on_c, 2, 64, 87
1, 32928, Note_on_c, 2, 67, 100
1, 32928, Note_on_c, 2, 71, 106
1, 32928, Note_on_c, 7, 55, 70
1, 32928, Note_off_c, 11, 69, 64
1, 32928, Note_off_c, 11, 60, 64
1, 32928, Note_on_c, 11, 67, 54
1, 32928, Note_on_c, 11, 59, 54
1, 32928, Note_on_c, 11, 64, 54
1, 32928, Note_on_c, 11, 62, 54
1, 32928, Note_on_c, 9, 69, 30
1, 32929, Lyric_t, "sor"
1, 32929, Note_on_c, 3, 71, 116
1, 32929, Note_on_c, 9, 36, 114
1, 32929, Note_on_c, 9, 57, 78
1, 32929, Note_off_c, 9, 69, 64
1, 32930, Note_off_c, 9, 57, 64
1, 32930, Note_off_c, 9, 36, 64
1, 32938, Note_off_c, 2, 67, 64
1, 32938, Note_off_c, 2, 62, 64
1, 32941, Note_off_c, 2, 71, 64
1, 32944, Note_off_c, 7, 55, 64
1, 32951, Note_on_c, 9, 69, 30
1, 32952, Note_on_c, 2, 62, 62
1, 32952, Note_on_c, 2, 71, 75
1, 32952, Note_on_c, 2, 67, 78
1, 32952, Note_off_c, 9, 69, 64
1, 32953, Note_on_c, 7, 55, 74
1, 32963, Note_off_c, 3, 71, 64
1, 32968, Note_off_c, 1, 36, 64
1, 32970, Note_off_c, 2, 64, 64
1, 32970, Note_off_c, 7, 55, 64
1, 32974, Note_off_c, 2, 67, 64
1, 32974, Note_off_c, 2, 71, 64
1, 32975, Note_on_c, 9, 69, 63
1, 32976, Note_on_c, 2, 69, 82
1, 32976, Note_on_c, 2, 60, 73
1, 32976, Note_off_c, 9, 69, 64
1, 32977, Note_on_c, 9, 44, 68
1, 32977, Note_off_c, 2, 62, 64
1, 32977, Note_on_c, 7, 57, 74
1, 32978, Note_off_c, 9, 44, 64
1, 32992, Note_off_c, 2, 69, 64
1, 32995, Note_off_c, 7, 57, 64
1, 32998, Note_off_c, 2, 60, 64
1, 33000, Note_on_c, 2, 67, 93
1, 33000, Note_on_c, 2, 71, 97
1, 33000, Note_on_c, 2, 64, 80
1, 33000, Note_on_c, 2, 62, 93
1, 33000, Note_on_c, 9, 69, 38
1, 33001, Note_on_c, 9, 42, 70
1, 33001, Note_on_c, 7, 59, 87
1, 33001, Note_on_c, 8, 64, 62
1, 33001, Note_on_c, 8, 55, 68
1, 33001, Note_on_c, 8, 59, 65
1, 33001, Note_off_c, 9, 69, 64
1, 33002, Lyric_t, "ry "
1, 33002, Note_on_c, 3, 69, 105
1, 33002, Note_off_c, 9, 42, 64
1, 33006, Note_off_c, 8, 64, 64
1, 33007, Note_off_c, 8, 59, 64
1, 33010, Note_off_c, 8, 55, 64
1, 33014, Note_off_c, 2, 62, 64
1, 33018, Note_off_c, 7, 59, 64
1, 33021, Note_off_c, 2, 64, 64
1, 33021, Note_off_c, 2, 67, 64
1, 33022, Note_off_c, 2, 71, 64
1, 33024, Note_on_c, 9, 69, 22
1, 33025, Note_on_c, 9, 40, 120
1, 33025, Note_on_c, 8, 59, 78
1, 33025, Note_on_c, 8, 64, 71
1, 33025, Note_on_c, 8, 55, 84
1, 33025, Note_off_c, 9, 69, 64
1, 33026, Note_off_c, 9, 40, 64
1, 33034, Note_off_c, 8, 64, 64
1, 33035, Note_off_c, 8, 59, 64
1, 33036, Note_off_c, 8, 55, 64
1, 33038, Note_off_c, 3, 69, 64
1, 33048, Note_on_c, 9, 44, 68
1, 33048, Note_on_c, 2, 71, 97
1, 33048, Note_on_c, 2, 67, 97
1, 33048, Note_on_c, 2, 62, 82
1, 33048, Note_on_c, 2, 64, 82
1, 33049, Note_off_c, 9, 44, 64
1, 33049, Note_on_c, 7, 55, 72
1, 33049, Note_on_c, 9, 69, 34
1, 33050, Note_off_c, 9, 69, 64
1, 33062, Note_off_c, 7, 55, 64
1, 33064, Note_off_c, 2, 64, 64
1, 33066, Note_off_c, 2, 62, 64
1, 33069, Note_off_c, 2, 67, 64
1, 33071, Note_on_c, 9, 42, 64
1, 33072, Note_off_c, 9, 42, 64
1, 33072, Note_off_c, 2, 71, 64
1, 33072, Note_on_c, 2, 60, 72
1, 33072, Note_on_c, 2, 69, 78
1, 33073, Lyric_t, "for, "
1, 33073, Lyric_t, "\015"
1, 33073, Note_on_c, 3, 71, 116
1, 33073, Note_on_c, 9, 69, 53
1, 33074, Note_off_c, 9, 69, 64
1, 33089, Note_off_c, 2, 69, 64
1, 33092, Note_off_c, 2, 60, 64
1, 33095, Note_on_c, 1, 36, 102
1, 33095, Note_on_c, 7, 64, 80
1, 33096, Note_on_c, 2, 71, 93
1, 33096, Note_on_c, 2, 67, 100
1, 33096, Note_on_c, 2, 62, 100
1, 33096, Note_on_c, 2, 64, 90
1, 33097, Note_on_c, 9, 36, 124
1, 33097, Note_on_c, 9, 69, 36
1, 33098, Note_off_c, 9, 36, 64
1, 33098, Note_off_c, 9, 69, 64
1, 33111, Note_off_c, 7, 64, 64
1, 33112, Note_off_c, 2, 64, 64
1, 33116, Note_off_c, 2, 62, 64
1, 33116, Note_off_c, 2, 67, 64
1, 33117, Note_off_c, 1, 36, 64
1, 33118, Note_off_c, 2, 71, 64
1, 33119, Note_on_c, 9, 42, 81
1, 33120, Note_off_c, 9, 42, 64
1, 33121, Note_on_c, 9, 69, 31
1, 33122, Note_off_c, 9, 69, 64
1, 33133, Note_off_c, 3, 71, 64
1, 33143, Note_on_c, 7, 55, 72
1, 33144, Note_on_c, 1, 36, 95
1, 33144, Note_on_c, 2, 71, 93
1, 33144, Note_on_c, 2, 67, 97
1, 33144, Note_on_c, 2, 62, 90
1, 33144, Note_on_c, 2, 64, 82
1, 33145, Note_on_c, 9, 69, 23
1, 33146, Note_off_c, 9, 69, 64
1, 33158, Note_off_c, 1, 36, 64
1, 33159, Note_off_c, 7, 55, 64
1, 33161, Note_off_c, 2, 62, 64
1, 33162, Note_off_c, 2, 64, 64
1, 33162, Note_off_c, 2, 67, 64
1, 33166, Note_off_c, 2, 71, 64
1, 33167, Note_on_c, 1, 36, 85
1, 33167, Note_on_c, 9, 69, 51
1, 33168, Note_on_c, 9, 36, 114
1, 33168, Note_on_c, 2, 60, 69
1, 33168, Note_on_c, 2, 69, 76
1, 33168, Note_off_c, 9, 69, 64
1, 33169, Note_off_c, 9, 36, 64
1, 33169, Note_on_c, 9, 42, 70
1, 33170, Note_off_c, 9, 42, 64
1, 33184, Note_off_c, 2, 69, 64
1, 33191, Note_on_c, 7, 55, 56
1, 33191, Note_on_c, 8, 55, 62
1, 33191, Note_on_c, 8, 64, 62
1, 33192, Note_on_c, 8, 59, 62
1, 33192, Note_on_c, 9, 69, 34
1, 33193, Note_off_c, 9, 69, 64
1, 33194, Note_off_c, 1, 36, 64
1, 33194, Note_off_c, 2, 60, 64
1, 33197, Note_off_c, 8, 64, 64
1, 33198, Note_off_c, 8, 59, 64
1, 33198, Note_off_c, 8, 55, 64
1, 33200, Note_off_c, 7, 55, 64
1, 33215, Lyric_t, "our "
1, 33215, Note_on_c, 3, 69, 105
1, 33215, Note_on_c, 9, 42, 81
1, 33215, Note_on_c, 8, 55, 68
1, 33216, Note_off_c, 9, 42, 64
1, 33216, Note_on_c, 2, 67, 106
1, 33216, Note_on_c, 2, 71, 111
1, 33216, Note_on_c, 2, 64, 93
1, 33216, Note_on_c, 2, 62, 100
1, 33217, Note_on_c, 9, 40, 124
1, 33217, Note_on_c, 7, 59, 87
1, 33217, Note_on_c, 8, 59, 75
1, 33217, Note_on_c, 8, 64, 68
1, 33218, Note_off_c, 9, 40, 64
1, 33223, Note_off_c, 8, 64, 64
1, 33224, Note_off_c, 8, 59, 64
1, 33225, Note_off_c, 8, 55, 64
1, 33229, Note_off_c, 7, 59, 64
1, 33237, Note_off_c, 3, 69, 64
1, 33239, Note_on_c, 9, 44, 63
1, 33239, Note_on_c, 9, 69, 22
1, 33240, Note_off_c, 9, 44, 64
1, 33240, Note_on_c, 1, 36, 102
1, 33240, Note_on_c, 7, 59, 77
1, 33240, Note_off_c, 9, 69, 64
1, 33255, Note_off_c, 7, 59, 64
1, 33258, Note_off_c, 1, 36, 64
1, 33258, Note_off_c, 2, 71, 64
1, 33260, Note_off_c, 2, 62, 64
1, 33262, Note_off_c, 2, 64, 64
1, 33262, Note_off_c, 2, 67, 64
1, 33262, Note_on_c, 2, 60, 80
1, 33263, Note_on_c, 9, 46, 78
1, 33263, Note_on_c, 1, 31, 77
1, 33263, Note_on_c, 9, 69, 51
1, 33264, Note_off_c, 9, 46, 64
1, 33264, Note_on_c, 2, 69, 87
1, 33264, Note_off_c, 9, 69, 64
1, 33265, Lyric_t, "love "
1, 33265, Note_on_c, 3, 71, 111
1, 33265, Note_on_c, 7, 55, 66
1, 33265, Note_on_c, 8, 55, 75
1, 33265, Note_on_c, 8, 59, 75
1, 33265, Note_on_c, 8, 64, 68
1, 33271, Note_off_c, 8, 64, 64
1, 33274, Note_off_c, 8, 59, 64
1, 33275, Note_off_c, 8, 55, 64
1, 33283, Note_off_c, 7, 55, 64
1, 33286, Note_off_c, 1, 31, 64
1, 33287, Note_on_c, 1, 33, 95
1, 33287, Note_on_c, 9, 69, 48
1, 33288, Note_off_c, 9, 69, 64
1, 33302, Note_off_c, 2, 69, 64
1, 33308, Note_off_c, 2, 60, 64
1, 33310, Note_on_c, 2, 67, 100
1, 33310, Note_on_c, 2, 71, 100
1, 33310, Note_on_c, 2, 64, 84
1, 33311, Note_on_c, 9, 36, 114
1, 33311, Note_off_c, 1, 33, 64
1, 33311, Note_on_c, 1, 36, 102
1, 33312, Time_signature, 3, 2, 24, 8
1, 33312, Note_off_c, 9, 36, 64
1, 33312, Note_on_c, 2, 62, 93
1, 33312, Note_on_c, 7, 55, 77
1, 33313, Note_on_c, 9, 42, 85
1, 33314, Note_off_c, 9, 42, 64
1, 33314, Note_on_c, 9, 69, 33
1, 33315, Note_off_c, 9, 69, 64
1, 33320, Note_off_c, 2, 64, 64
1, 33322, Note_off_c, 2, 62, 64
1, 33322, Note_off_c, 2, 67, 64
1, 33323, Note_off_c, 2, 71, 64
1, 33323, Note_off_c, 7, 55, 64
1, 33334, Note_on_c, 2, 71, 90
1, 33334, Note_on_c, 2, 67, 84
1, 33335, Note_on_c, 7, 55, 60
1, 33336, Note_on_c, 2, 62, 87
1, 33336, Note_on_c, 2, 64, 72
1, 33337, Note_on_c, 9, 69, 26
1, 33338, Note_off_c, 9, 69, 64
1, 33342, Note_off_c, 3, 71, 64
1, 33347, Note_off_c, 1, 36, 64
1, 33349, Note_off_c, 7, 55, 64
1, 33352, Note_off_c, 2, 67, 64
1, 33354, Note_off_c, 2, 62, 64
1, 33356, Note_off_c, 2, 71, 64
1, 33357, Note_off_c, 2, 64, 64
1, 33359, Note_on_c, 9, 44, 70
1, 33359, Note_on_c, 7, 57, 66
1, 33360, Note_off_c, 9, 44, 64
1, 33360, Note_on_c, 2, 60, 76
1, 33360, Note_on_c, 2, 69, 80
1, 33361, Note_on_c, 9, 69, 61
1, 33362, Note_off_c, 9, 69, 64
1, 33377, Note_off_c, 2, 69, 64
1, 33382, Note_off_c, 2, 60, 64
1, 33382, Note_off_c, 7, 57, 64
1, 33383, Note_on_c, 8, 64, 68
1, 33383, Note_on_c, 8, 55, 68
1, 33383, Note_on_c, 8, 59, 68
1, 33384, Note_on_c, 9, 42, 78
1, 33384, Note_on_c, 2, 71, 87
1, 33384, Note_on_c, 2, 67, 87
1, 33384, Note_on_c, 2, 64, 82
1, 33384, Note_on_c, 2, 62, 93
1, 33384, Note_on_c, 7, 59, 77
1, 33384, Note_on_c, 9, 69, 40
1, 33385, Lyric_t, "is "
1, 33385, Note_on_c, 3, 69, 111
1, 33385, Note_off_c, 9, 42, 64
1, 33385, Note_off_c, 9, 69, 64
1, 33390, Note_off_c, 8, 59, 64
1, 33392, Note_off_c, 8, 64, 64
1, 33393, Note_off_c, 8, 55, 64
1, 33394, Note_off_c, 3, 69, 64
1, 33396, Note_off_c, 2, 64, 64
1, 33398, Note_off_c, 2, 67, 64
1, 33399, Note_off_c, 7, 59, 64
1, 33400, Note_off_c, 2, 62, 64
1, 33404, Note_off_c, 2, 71, 64
1, 33407, Note_on_c, 9, 40, 124
1, 33408, Lyric_t, "one "
1, 33408, Note_on_c, 3, 69, 95
1, 33408, Note_off_c, 9, 40, 64
1, 33408, Note_on_c, 8, 59, 68
1, 33408, Note_on_c, 8, 55, 78
1, 33408, Note_on_c, 8, 64, 71
1, 33410, Note_on_c, 9, 69, 33
1, 33411, Note_off_c, 9, 69, 64
1, 33417, Note_off_c, 8, 64, 64
1, 33418, Note_off_c, 8, 55, 64
1, 33419, Note_off_c, 8, 59, 64
1, 33426, Note_off_c, 3, 69, 64
1, 33430, Note_on_c, 2, 67, 90
1, 33430, Note_on_c, 2, 71, 90
1, 33430, Note_on_c, 2, 62, 93
1, 33431, Note_on_c, 9, 44, 70
1, 33432, Note_off_c, 9, 44, 64
1, 33432, Note_on_c, 2, 64, 75
1, 33433, Lyric_t, "in "
1, 33433, Note_on_c, 3, 71, 95
1, 33433, Note_on_c, 7, 55, 63
1, 33433, Note_on_c, 9, 69, 30
1, 33434, Note_off_c, 9, 69, 64
1, 33440, Note_off_c, 2, 64, 64
1, 33447, Note_off_c, 3, 71, 64
1, 33447, Note_off_c, 2, 67, 64
1, 33449, Note_off_c, 2, 62, 64
1, 33450, Note_off_c, 7, 55, 64
1, 33452, Note_off_c, 2, 71, 64
1, 33454, Note_on_c, 2, 60, 75
1, 33454, Note_on_c, 2, 69, 90
1, 33455, Lyric_t, "a "
1, 33455, Note_on_c, 3, 72, 98
1, 33455, Note_on_c, 9, 42, 81
1, 33456, Note_off_c, 9, 42, 64
1, 33458, Note_on_c, 9, 69, 52
1, 33459, Note_off_c, 9, 69, 64
1, 33474, Note_off_c, 3, 72, 64
1, 33474, Note_off_c, 2, 69, 64
1, 33477, Note_off_c, 2, 60, 64
1, 33479, Note_on_c, 9, 36, 114
1, 33479, Note_on_c, 1, 36, 105
1, 33479, Note_on_c, 7, 64, 77
1, 33480, Lyric_t, "mil"
1, 33480, Note_on_c, 3, 71, 105
1, 33480, Note_off_c, 9, 36, 64
1, 33480, Note_on_c, 2, 64, 84
1, 33480, Note_on_c, 2, 67, 97
1, 33480, Note_on_c, 2, 71, 90
1, 33480, Note_on_c, 2, 62, 97
1, 33481, Note_on_c, 9, 69, 36
1, 33482, Note_off_c, 9, 69, 64
1, 33494, Note_off_c, 2, 64, 64
1, 33496, Note_off_c, 2, 62, 64
1, 33497, Note_off_c, 2, 67, 64
1, 33497, Note_off_c, 7, 64, 64
1, 33500, Note_off_c, 2, 71, 64
1, 33503, Note_on_c, 9, 42, 81
1, 33504, Note_off_c, 9, 42, 64
1, 33504, Note_off_c, 11, 62, 64
1, 33505, Note_on_c, 9, 69, 40
1, 33506, Note_off_c, 9, 69, 64
1, 33511, Note_off_c, 1, 36, 64
1, 33527, Note_on_c, 7, 55, 80
1, 33528, Note_on_c, 2, 62, 93
1, 33528, Note_on_c, 2, 64, 84
1, 33528, Note_on_c, 2, 67, 97
1, 33528, Note_on_c, 2, 71, 100
1, 33529, Note_on_c, 9, 69, 23
1, 33530, Note_off_c, 9, 69, 64
1, 33546, Note_off_c, 7, 55, 64
1, 33549, Note_off_c, 3, 71, 64
1, 33550, Note_off_c, 2, 71, 64
1, 33550, Note_off_c, 2, 67, 64
1, 33550, Note_on_c, 2, 60, 87
1, 33551, Note_on_c, 9, 40, 109
1, 33551, Note_on_c, 9, 42, 94
1, 33551, Note_on_c, 1, 36, 98
1, 33552, Lyric_t, "lion. "
1, 33552, Lyric_t, "\015"
1, 33552, Note_on_c, 3, 69, 98
1, 33552, Note_off_c, 9, 42, 64
1, 33552, Note_off_c, 9, 40, 64
1, 33552, Note_off_c, 2, 62, 64
1, 33552, Note_on_c, 2, 69, 93
1, 33552, Note_on_c, 9, 69, 58
1, 33553, Note_off_c, 9, 69, 64
1, 33568, Lyric_t, "\012"
1, 33568, Note_off_c, 3, 69, 64
1, 33574, Note_off_c, 2, 60, 64
1, 33575, Note_on_c, 9, 40, 91
1, 33575, Note_on_c, 7, 55, 72
1, 33576, Note_off_c, 9, 40, 64
1, 33578, Note_off_c, 2, 64, 64
1, 33578, Note_on_c, 9, 69, 48
1, 33579, Note_off_c, 9, 69, 64
1, 33580, Note_off_c, 2, 69, 64
1, 33586, Note_off_c, 7, 55, 64
1, 33598, Note_on_c, 2, 69, 97
1, 33599, Lyric_t, "Eyes "
1, 33599, Note_on_c, 3, 69, 116
1, 33599, Note_on_c, 9, 36, 120
1, 33599, Note_off_c, 1, 36, 64
1, 33599, Note_on_c, 1, 31, 98
1, 33600, Time_signature, 4, 2, 24, 8
1, 33600, Note_off_c, 9, 36, 64
1, 33600, Note_on_c, 9, 57, 88
1, 33600, Note_on_c, 2, 64, 80
1, 33600, Note_on_c, 2, 65, 93
1, 33600, Note_on_c, 2, 72, 106
1, 33600, Note_off_c, 11, 67, 64
1, 33600, Note_off_c, 11, 59, 64
1, 33600, Note_off_c, 11, 64, 64
1, 33600, Note_on_c, 11, 62, 58
1, 33600, Note_on_c, 11, 60, 58
1, 33600, Note_on_c, 11, 69, 58
1, 33600, Note_on_c, 11, 65, 58
1, 33601, Note_off_c, 9, 57, 64
1, 33601, Note_on_c, 7, 57, 90
1, 33602, Note_on_c, 9, 69, 23
1, 33603, Note_off_c, 9, 69, 64
1, 33611, Note_off_c, 7, 57, 64
1, 33613, Note_off_c, 2, 64, 64
1, 33613, Note_off_c, 2, 69, 64
1, 33616, Note_off_c, 2, 72, 64
1, 33624, Note_on_c, 2, 64, 73
1, 33624, Note_on_c, 2, 69, 93
1, 33624, Note_on_c, 2, 72, 80
1, 33624, Note_on_c, 7, 57, 80
1, 33625, Note_on_c, 9, 69, 24
1, 33626, Note_off_c, 9, 69, 64
1, 33642, Note_off_c, 7, 57, 64
1, 33644, Note_off_c, 2, 72, 64
1, 33644, Note_off_c, 2, 69, 64
1, 33645, Note_off_c, 2, 64, 64
1, 33646, Note_off_c, 1, 31, 64
1, 33646, Note_on_c, 2, 71, 96
1, 33646, Note_on_c, 2, 62, 83
1, 33647, Note_on_c, 9, 44, 67
1, 33648, Note_off_c, 9, 44, 64
1, 33648, Note_on_c, 7, 59, 73
1, 33649, Note_on_c, 9, 69, 60
1, 33650, Note_off_c, 9, 69, 64
1, 33658, Note_off_c, 2, 65, 64
1, 33662, Note_off_c, 2, 71, 64
1, 33667, Note_off_c, 2, 62, 64
1, 33670, Note_off_c, 3, 69, 64
1, 33670, Note_off_c, 7, 59, 64
1, 33672, Note_on_c, 2, 69, 91
1, 33672, Note_on_c, 2, 65, 91
1, 33672, Note_on_c, 2, 64, 98
1, 33672, Note_on_c, 2, 72, 85
1, 33672, Note_on_c, 8, 57, 60
1, 33672, Note_on_c, 8, 60, 51
1, 33672, Note_on_c, 8, 65, 58
1, 33673, Lyric_t, "can "
1, 33673, Note_on_c, 3, 67, 105
1, 33673, Note_on_c, 9, 42, 76
1, 33673, Note_on_c, 7, 60, 72
1, 33673, Note_on_c, 9, 69, 36
1, 33674, Note_off_c, 9, 42, 64
1, 33674, Note_off_c, 9, 69, 64
1, 33678, Note_off_c, 8, 65, 64
1, 33679, Note_off_c, 8, 60, 64
1, 33680, Note_off_c, 8, 57, 64
1, 33689, Note_off_c, 7, 60, 64
1, 33690, Note_off_c, 2, 64, 64
1, 33692, Note_off_c, 2, 69, 64
1, 33693, Note_off_c, 2, 72, 64
1, 33694, Note_off_c, 2, 65, 64
1, 33697, Note_on_c, 9, 40, 109
1, 33697, Note_on_c, 8, 57, 74
1, 33697, Note_on_c, 8, 60, 64
1, 33697, Note_on_c, 8, 65, 74
1, 33698, Note_off_c, 9, 40, 64
1, 33708, Note_off_c, 8, 60, 64
1, 33709, Note_off_c, 8, 65, 64
1, 33711, Note_off_c, 8, 57, 64
1, 33719, Note_on_c, 9, 44, 66
1, 33720, Note_off_c, 9, 44, 64
1, 33720, Note_on_c, 2, 72, 92
1, 33720, Note_on_c, 2, 69, 85
1, 33720, Note_on_c, 2, 64, 88
1, 33720, Note_on_c, 2, 65, 76
1, 33721, Note_on_c, 7, 57, 72
1, 33721, Note_on_c, 9, 69, 36
1, 33722, Note_off_c, 9, 69, 64
1, 33732, Note_off_c, 2, 65, 64
1, 33736, Note_off_c, 2, 64, 64
1, 33737, Note_off_c, 3, 67, 64
1, 33737, Note_off_c, 2, 69, 64
1, 33738, Note_off_c, 7, 57, 64
1, 33740, Note_off_c, 2, 72, 64
1, 33742, Note_on_c, 2, 62, 75
1, 33742, Note_on_c, 2, 71, 87
1, 33743, Note_on_c, 9, 42, 63
1, 33744, Note_off_c, 9, 42, 64
1, 33745, Lyric_t, "see "
1, 33745, Note_on_c, 3, 69, 116
1, 33745, Note_on_c, 9, 69, 56
1, 33746, Note_off_c, 9, 69, 64
1, 33757, Note_off_c, 2, 71, 64
1, 33766, Note_off_c, 2, 62, 64
1, 33766, Note_on_c, 2, 72, 86
1, 33767, Note_on_c, 1, 31, 88
1, 33768, Note_on_c, 9, 36, 101
1, 33768, Note_on_c, 2, 69, 83
1, 33768, Note_on_c, 2, 65, 72
1, 33768, Note_on_c, 2, 64, 83
1, 33768, Note_on_c, 7, 65, 76
1, 33769, Note_off_c, 9, 36, 64
1, 33769, Note_on_c, 9, 69, 41
1, 33770, Note_off_c, 9, 69, 64
1, 33784, Note_off_c, 2, 64, 64
1, 33785, Note_off_c, 7, 65, 64
1, 33788, Note_off_c, 2, 72, 64
1, 33789, Note_off_c, 2, 69, 64
1, 33790, Note_off_c, 2, 65, 64
1, 33791, Note_on_c, 9, 42, 77
1, 33792, Note_off_c, 9, 42, 64
1, 33792, Note_on_c, 9, 69, 14
1, 33793, Note_off_c, 9, 69, 64
1, 33794, Note_off_c, 1, 31, 64
1, 33815, Note_on_c, 1, 31, 88
1, 33815, Note_on_c, 9, 69, 28
1, 33816, Note_on_c, 2, 64, 81
1, 33816, Note_on_c, 2, 69, 90
1, 33816, Note_on_c, 2, 72, 87
1, 33816, Note_on_c, 2, 65, 81
1, 33816, Note_on_c, 7, 57, 73
1, 33816, Note_off_c, 9, 69, 64
1, 33826, Note_off_c, 3, 69, 64
1, 33828, Note_off_c, 1, 31, 64
1, 33830, Note_off_c, 2, 65, 64
1, 33834, Note_off_c, 2, 69, 64
1, 33834, Note_off_c, 7, 57, 64
1, 33836, Note_off_c, 2, 72, 64
1, 33836, Note_off_c, 2, 64, 64
1, 33838, Note_on_c, 2, 62, 73
1, 33839, Note_on_c, 9, 36, 97
1, 33839, Note_on_c, 9, 42, 68
1, 33839, Note_on_c, 1, 31, 82
1, 33839, Note_on_c, 9, 69, 47
1, 33840, Note_off_c, 9, 42, 64
1, 33840, Note_off_c, 9, 36, 64
1, 33840, Note_on_c, 2, 71, 73
1, 33840, Note_off_c, 9, 69, 64
1, 33853, Note_off_c, 2, 71, 64
1, 33863, Note_on_c, 8, 57, 60
1, 33863, Note_on_c, 8, 65, 60
1, 33863, Note_on_c, 8, 60, 52
1, 33863, Note_on_c, 9, 69, 26
1, 33864, Note_off_c, 9, 69, 64
1, 33865, Note_on_c, 7, 57, 54
1, 33866, Note_off_c, 2, 62, 64
1, 33868, Note_off_c, 8, 65, 64
1, 33869, Note_off_c, 8, 60, 64
1, 33870, Note_off_c, 8, 57, 64
1, 33876, Note_off_c, 7, 57, 64
1, 33885, Note_off_c, 1, 31, 64
1, 33887, Lyric_t, "that "
1, 33887, Note_on_c, 3, 67, 105
1, 33887, Note_on_c, 9, 40, 107
1, 33887, Note_on_c, 9, 42, 80
1, 33887, Note_on_c, 8, 60, 59
1, 33887, Note_on_c, 8, 57, 65
1, 33887, Note_on_c, 8, 65, 62
1, 33888, Note_off_c, 9, 42, 64
1, 33888, Note_off_c, 9, 40, 64
1, 33888, Note_on_c, 2, 69, 91
1, 33888, Note_on_c, 2, 72, 86
1, 33888, Note_on_c, 2, 64, 83
1, 33888, Note_on_c, 2, 65, 86
1, 33889, Note_on_c, 7, 60, 73
1, 33889, Note_on_c, 9, 69, 13
1, 33890, Note_off_c, 9, 69, 64
1, 33895, Note_off_c, 8, 65, 64
1, 33895, Note_off_c, 8, 57, 64
1, 33896, Note_off_c, 8, 60, 64
1, 33900, Note_off_c, 7, 60, 64
1, 33907, Note_off_c, 3, 67, 64
1, 33911, Note_on_c, 9, 44, 52
1, 33912, Note_off_c, 9, 44, 64
1, 33912, Note_on_c, 7, 60, 48
1, 33913, Note_on_c, 9, 69, 15
1, 33914, Note_off_c, 9, 69, 64
1, 33928, Note_off_c, 2, 69, 64
1, 33929, Note_off_c, 2, 64, 64
1, 33932, Note_off_c, 2, 65, 64
1, 33934, Note_off_c, 2, 72, 64
1, 33934, Note_on_c, 2, 62, 67
1, 33934, Note_off_c, 7, 60, 64
1, 33935, Note_on_c, 1, 38, 83
1, 33935, Note_on_c, 8, 57, 71
1, 33935, Note_on_c, 9, 69, 49
1, 33936, Lyric_t, "we "
1, 33936, Lyric_t, "\015"
1, 33936, Note_on_c, 3, 69, 116
1, 33936, Note_on_c, 2, 71, 75
1, 33936, Note_on_c, 8, 65, 71
1, 33936, Note_on_c, 8, 60, 56
1, 33936, Note_off_c, 9, 69, 64
1, 33937, Note_on_c, 9, 46, 63
1, 33937, Note_on_c, 7, 57, 60
1, 33938, Note_off_c, 9, 46, 64
1, 33946, Note_off_c, 8, 60, 64
1, 33946, Note_off_c, 8, 65, 64
1, 33946, Note_off_c, 8, 57, 64
1, 33951, Note_off_c, 7, 57, 64
1, 33954, Note_off_c, 1, 38, 64
1, 33959, Note_on_c, 1, 43, 68
1, 33959, Note_on_c, 9, 69, 24
1, 33960, Note_off_c, 9, 69, 64
1, 33966, Note_off_c, 2, 71, 64
1, 33976, Note_off_c, 2, 62, 64
1, 33982, Note_on_c, 2, 65, 67
1, 33983, Note_on_c, 9, 36, 93
1, 33983, Note_on_c, 1, 31, 81
1, 33983, Note_on_c, 7, 57, 59
1, 33984, Note_off_c, 9, 36, 64
1, 33984, Note_off_c, 1, 43, 64
1, 33984, Note_on_c, 2, 69, 81
1, 33984, Note_on_c, 2, 64, 65
1, 33984, Note_on_c, 2, 72, 86
1, 33985, Note_on_c, 9, 42, 66
1, 33985, Note_on_c, 9, 69, 2
1, 33986, Note_off_c, 9, 42, 64
1, 33986, Note_off_c, 9, 69, 64
1, 33992, Note_off_c, 2, 65, 64
1, 33994, Note_off_c, 2, 69, 64
1, 33994, Note_off_c, 2, 64, 64
1, 33996, Note_off_c, 2, 72, 64
1, 33996, Note_off_c, 7, 57, 64
1, 34006, Note_on_c, 2, 64, 60
1, 34007, Note_on_c, 7, 57, 48
1, 34008, Note_on_c, 2, 65, 58
1, 34008, Note_on_c, 2, 72, 67
1, 34008, Note_on_c, 2, 69, 72
1, 34009, Note_on_c, 9, 69, 11
1, 34010, Note_off_c, 9, 69, 64
1, 34019, Note_off_c, 7, 57, 64
1, 34025, Note_off_c, 2, 65, 64
1, 34026, Note_off_c, 2, 69, 64
1, 34028, Note_off_c, 2, 64, 64
1, 34030, Note_off_c, 2, 72, 64
1, 34030, Note_on_c, 2, 71, 66
1, 34031, Note_on_c, 7, 59, 55
1, 34032, Note_on_c, 2, 62, 60
1, 34033, Note_on_c, 9, 44, 54
1, 34033, Note_on_c, 9, 69, 40
1, 34034, Note_off_c, 9, 44, 64
1, 34034, Note_off_c, 9, 69, 64
1, 34038, Note_off_c, 1, 31, 64
1, 34050, Note_off_c, 2, 71, 64
1, 34052, Note_off_c, 2, 62, 64
1, 34054, Note_off_c, 7, 59, 64
1, 34055, Note_on_c, 8, 65, 56
1, 34055, Note_on_c, 8, 57, 56
1, 34055, Note_on_c, 8, 60, 46
1, 34056, Note_on_c, 2, 72, 70
1, 34056, Note_on_c, 2, 69, 78
1, 34056, Note_on_c, 2, 64, 72
1, 34056, Note_on_c, 2, 65, 68
1, 34057, Note_on_c, 9, 42, 53
1, 34057, Note_on_c, 7, 60, 60
1, 34057, Note_on_c, 9, 69, 20
1, 34058, Note_off_c, 9, 42, 64
1, 34058, Note_off_c, 9, 69, 64
1, 34061, Note_off_c, 8, 60, 64
1, 34061, Note_off_c, 8, 65, 64
1, 34062, Note_off_c, 8, 57, 64
1, 34072, Note_off_c, 7, 60, 64
1, 34074, Note_off_c, 2, 69, 64
1, 34075, Note_off_c, 3, 69, 64
1, 34076, Note_off_c, 2, 64, 64
1, 34077, Note_off_c, 2, 65, 64
1, 34079, Note_on_c, 9, 40, 95
1, 34079, Note_on_c, 9, 69, 5
1, 34080, Note_off_c, 9, 40, 64
1, 34080, Note_off_c, 2, 72, 64
1, 34080, Note_on_c, 8, 60, 52
1, 34080, Note_on_c, 8, 57, 54
1, 34080, Note_off_c, 9, 69, 64
1, 34081, Note_on_c, 8, 65, 54
1, 34090, Note_off_c, 8, 65, 64
1, 34090, Note_off_c, 8, 60, 64
1, 34091, Note_off_c, 8, 57, 64
1, 34103, Note_on_c, 9, 44, 51
1, 34103, Note_on_c, 9, 69, 12
1, 34104, Note_off_c, 9, 44, 64
1, 34104, Note_on_c, 2, 65, 70
1, 34104, Note_on_c, 2, 69, 75
1, 34104, Note_on_c, 2, 64, 68
1, 34104, Note_on_c, 2, 72, 75
1, 34104, Note_off_c, 9, 69, 64
1, 34105, Lyric_t, "got "
1, 34105, Note_on_c, 3, 67, 102
1, 34105, Note_on_c, 7, 57, 52
1, 34118, Note_off_c, 3, 67, 64
1, 34121, Note_off_c, 7, 57, 64
1, 34124, Note_off_c, 2, 69, 64
1, 34124, Note_off_c, 2, 65, 64
1, 34125, Note_off_c, 2, 64, 64
1, 34126, Note_on_c, 2, 62, 62
1, 34127, Lyric_t, "a "
1, 34127, Note_on_c, 3, 69, 89
1, 34127, Note_on_c, 9, 42, 50
1, 34127, Note_on_c, 9, 69, 35
1, 34128, Note_off_c, 9, 42, 64
1, 34128, Note_off_c, 2, 72, 64
1, 34128, Note_on_c, 2, 71, 59
1, 34128, Note_off_c, 9, 69, 64
1, 34141, Note_off_c, 3, 69, 64
1, 34146, Note_off_c, 2, 71, 64
1, 34149, Note_off_c, 2, 62, 64
1, 34150, Note_on_c, 9, 69, 13
1, 34151, Lyric_t, "high"
1, 34151, Note_on_c, 3, 71, 105
1, 34151, Note_on_c, 9, 36, 83
1, 34151, Note_off_c, 9, 69, 64
1, 34152, Note_off_c, 9, 36, 64
1, 34152, Note_on_c, 2, 65, 64
1, 34152, Note_on_c, 2, 64, 66
1, 34152, Note_on_c, 2, 69, 73
1, 34152, Note_on_c, 2, 72, 68
1, 34153, Note_on_c, 1, 31, 73
1, 34153, Note_on_c, 7, 65, 56
1, 34170, Note_off_c, 2, 69, 64
1, 34170, Note_off_c, 2, 65, 64
1, 34171, Note_off_c, 7, 65, 64
1, 34172, Note_off_c, 2, 64, 64
1, 34172, Note_off_c, 2, 72, 64
1, 34175, Note_on_c, 9, 42, 55
1, 34175, Note_on_c, 9, 69, 13
1, 34176, Note_off_c, 9, 42, 64
1, 34176, Note_off_c, 9, 69, 64
1, 34184, Note_off_c, 1, 31, 64
1, 34198, Note_on_c, 2, 64, 61
1, 34199, Note_on_c, 1, 31, 64
1, 34199, Note_on_c, 7, 55, 43
1, 34200, Note_on_c, 2, 65, 63
1, 34200, Note_on_c, 2, 72, 68
1, 34200, Note_on_c, 2, 69, 70
1, 34200, Note_on_c, 9, 69, 11
1, 34201, Note_off_c, 9, 69, 64
1, 34210, Note_off_c, 1, 31, 64
1, 34215, Note_off_c, 2, 64, 64
1, 34216, Note_off_c, 2, 65, 64
1, 34220, Note_off_c, 3, 71, 64
1, 34220, Note_off_c, 2, 72, 64
1, 34220, Note_off_c, 2, 69, 64
1, 34222, Lyric_t, "way "
1, 34222, Note_on_c, 3, 72, 98
1, 34222, Note_on_c, 2, 62, 53
1, 34222, Note_on_c, 2, 71, 54
1, 34222, Note_off_c, 7, 55, 64
1, 34223, Note_on_c, 9, 42, 50
1, 34223, Note_on_c, 1, 31, 67
1, 34224, Note_off_c, 9, 42, 64
1, 34224, Note_on_c, 9, 36, 75
1, 34224, Note_on_c, 9, 69, 29
1, 34225, Note_off_c, 9, 36, 64
1, 34225, Note_off_c, 9, 69, 64
1, 34240, Note_off_c, 2, 71, 64
1, 34246, Note_on_c, 8, 57, 39
1, 34246, Note_on_c, 8, 65, 39
1, 34247, Lyric_t, "to "
1, 34247, Note_off_c, 3, 72, 64
1, 34247, Note_on_c, 3, 71, 89
1, 34247, Note_on_c, 7, 55, 40
1, 34247, Note_on_c, 8, 60, 34
1, 34248, Note_on_c, 9, 69, 17
1, 34249, Note_off_c, 9, 69, 64
1, 34251, Note_off_c, 8, 65, 64
1, 34252, Note_off_c, 8, 60, 64
1, 34253, Note_off_c, 8, 57, 64
1, 34257, Note_off_c, 1, 31, 64
1, 34258, Note_off_c, 7, 55, 64
1, 34266, Note_off_c, 2, 62, 64
1, 34270, Note_on_c, 2, 64, 62
1, 34270, Note_on_c, 2, 69, 75
1, 34270, Note_on_c, 8, 57, 43
1, 34270, Note_on_c, 8, 60, 36
1, 34270, Note_on_c, 8, 65, 36
1, 34271, Note_on_c, 9, 42, 50
1, 34272, Note_off_c, 9, 42, 64
1, 34272, Note_on_c, 9, 40, 81
1, 34272, Note_on_c, 2, 65, 62
1, 34272, Note_on_c, 2, 72, 70
1, 34272, Note_on_c, 7, 59, 52
1, 34272, Note_off_c, 11, 62, 64
1, 34273, Note_off_c, 9, 40, 64
1, 34273, Note_on_c, 9, 69, 14
1, 34274, Note_off_c, 9, 69, 64
1, 34276, Note_off_c, 8, 65, 64
1, 34278, Note_off_c, 8, 60, 64
1, 34281, Note_off_c, 8, 57, 64
1, 34293, Note_off_c, 7, 59, 64
1, 34295, Note_on_c, 9, 44, 42
1, 34295, Note_on_c, 1, 31, 62
1, 34296, Note_off_c, 9, 44, 64
1, 34297, Note_on_c, 9, 69, 5
1, 34298, Note_off_c, 9, 69, 64
1, 34305, Note_off_c, 1, 31, 64
1, 34314, Note_off_c, 2, 65, 64
1, 34316, Note_off_c, 2, 69, 64
1, 34319, Lyric_t, "the "
1, 34319, Note_off_c, 3, 71, 64
1, 34319, Note_on_c, 3, 69, 81
1, 34319, Note_on_c, 9, 46, 46
1, 34319, Note_on_c, 8, 57, 42
1, 34319, Note_on_c, 8, 60, 36
1, 34319, Note_on_c, 8, 65, 42
1, 34320, Note_off_c, 9, 46, 64
1, 34320, Note_on_c, 1, 31, 63
1, 34320, Note_off_c, 2, 72, 64
1, 34320, Note_on_c, 2, 71, 68
1, 34320, Note_on_c, 2, 62, 50
1, 34320, Note_on_c, 9, 69, 24
1, 34321, Note_on_c, 7, 55, 38
1, 34321, Note_off_c, 9, 69, 64
1, 34326, Note_off_c, 2, 62, 64
1, 34327, Note_off_c, 8, 65, 64
1, 34330, Note_off_c, 8, 60, 64
1, 34330, Note_off_c, 8, 57, 64
1, 34331, Note_off_c, 2, 64, 64
1, 34335, Note_off_c, 3, 69, 64
1, 34338, Note_off_c, 7, 55, 64
1, 34342, Note_off_c, 1, 31, 64
1, 34343, Note_on_c, 1, 33, 58
1, 34344, Note_on_c, 9, 69, 4
1, 34345, Note_off_c, 9, 69, 64
1, 34352, Note_off_c, 2, 71, 64
1, 34367, Lyric_t, "sky. "
1, 34367, Lyric_t, "\015"
1, 34367, Note_on_c, 3, 69, 95
1, 34367, Note_on_c, 9, 36, 74
1, 34368, Note_off_c, 9, 36, 64
1, 34368, Note_on_c, 2, 64, 55
1, 34368, Note_on_c, 2, 67, 57
1, 34368, Note_on_c, 2, 71, 71
1, 34368, Note_on_c, 2, 74, 55
1, 34368, Note_off_c, 11, 60, 64
1, 34368, Note_off_c, 11, 69, 64
1, 34368, Note_off_c, 11, 65, 64
1, 34368, Note_on_c, 11, 71, 33
1, 34368, Note_on_c, 11, 67, 33
1, 34368, Note_on_c, 11, 62, 33
1, 34368, Note_on_c, 11, 64, 33
1, 34369, Note_on_c, 9, 42, 45
1, 34369, Note_off_c, 1, 33, 64
1, 34369, Note_on_c, 1, 36, 62
1, 34369, Note_on_c, 7, 55, 43
1, 34369, Note_on_c, 9, 69, 8
1, 34370, Note_off_c, 9, 42, 64
1, 34370, Note_off_c, 9, 69, 64
1, 34378, Note_off_c, 2, 74, 64
1, 34380, Note_off_c, 2, 71, 64
1, 34380, Note_off_c, 7, 55, 64
1, 34381, Note_off_c, 2, 67, 64
1, 34382, Note_off_c, 2, 64, 64
1, 34391, Note_on_c, 9, 69, 2
1, 34392, Note_on_c, 2, 64, 54
1, 34392, Note_on_c, 2, 71, 56
1, 34392, Note_on_c, 2, 67, 50
1, 34392, Note_on_c, 2, 74, 51
1, 34392, Note_on_c, 7, 55, 40
1, 34392, Note_off_c, 9, 69, 64
1, 34406, Note_off_c, 1, 36, 64
1, 34406, Note_off_c, 7, 55, 64
1, 34412, Note_off_c, 3, 69, 64
1, 34412, Note_off_c, 2, 71, 64
1, 34414, Note_off_c, 2, 74, 64
1, 34415, Note_on_c, 3, 67, 80
1, 34415, Note_on_c, 7, 57, 42
1, 34416, Note_on_c, 2, 72, 52
1, 34416, Note_on_c, 2, 69, 46
1, 34416, Note_on_c, 9, 69, 18
1, 34417, Note_on_c, 9, 44, 37
1, 34417, Note_off_c, 9, 69, 64
1, 34418, Note_off_c, 9, 44, 64
1, 34421, Note_off_c, 2, 67, 64
1, 34432, Note_off_c, 2, 64, 64
1, 34433, Note_off_c, 2, 69, 64
1, 34434, Note_off_c, 2, 72, 64
1, 34436, Note_off_c, 7, 57, 64
1, 34439, Note_on_c, 8, 55, 24
1, 34439, Note_on_c, 8, 59, 22
1, 34439, Note_on_c, 8, 64, 22
1, 34440, Note_on_c, 2, 64, 49
1, 34440, Note_on_c, 2, 71, 58
1, 34440, Note_on_c, 2, 74, 57
1, 34440, Note_on_c, 2, 67, 49
1, 34440, Note_on_c, 7, 59, 41
1, 34441, Note_on_c, 9, 42, 41
1, 34441, Note_on_c, 9, 69, 6
1, 34442, Note_off_c, 9, 42, 64
1, 34442, Note_off_c, 9, 69, 64
1, 34445, Note_off_c, 8, 64, 64
1, 34446, Note_off_c, 8, 59, 64
1, 34447, Note_off_c, 8, 55, 64
1, 34457, Note_off_c, 7, 59, 64
1, 34458, Note_off_c, 2, 67, 64
1, 34462, Note_off_c, 2, 64, 64
1, 34462, Note_off_c, 2, 71, 64
1, 34462, Note_off_c, 2, 74, 64
1, 34464, Note_on_c, 8, 64, 33
1, 34464, Note_on_c, 8, 55, 34
1, 34464, Note_on_c, 9, 69, 1
1, 34465, Note_on_c, 9, 40, 69
1, 34465, Note_on_c, 8, 59, 41
1, 34465, Note_off_c, 9, 69, 64
1, 34466, Note_off_c, 9, 40, 64
1, 34474, Note_off_c, 8, 59, 64
1, 34475, Note_off_c, 8, 55, 64
1, 34476, Note_off_c, 8, 64, 64
1, 34487, Note_on_c, 9, 44, 38
1, 34487, Note_on_c, 9, 69, 1
1, 34488, Note_off_c, 9, 44, 64
1, 34488, Note_on_c, 2, 74, 55
1, 34488, Note_on_c, 2, 71, 55
1, 34488, Note_on_c, 2, 64, 50
1, 34488, Note_on_c, 2, 67, 48
1, 34488, Note_off_c, 9, 69, 64
1, 34489, Note_on_c, 7, 55, 36
1, 34502, Note_off_c, 7, 55, 64
1, 34505, Note_off_c, 2, 71, 64
1, 34509, Note_off_c, 2, 74, 64
1, 34511, Note_on_c, 9, 69, 15
1, 34512, Note_on_c, 9, 42, 34
1, 34512, Note_on_c, 2, 72, 41
1, 34512, Note_on_c, 2, 69, 41
1, 34512, Note_off_c, 9, 69, 64
1, 34513, Note_off_c, 9, 42, 64
1, 34522, Note_off_c, 2, 67, 64
1, 34525, Note_off_c, 2, 64, 64
1, 34526, Note_off_c, 2, 69, 64
1, 34530, Note_off_c, 2, 72, 64
1, 34536, Note_on_c, 1, 36, 58
1, 34536, Note_on_c, 2, 64, 48
1, 34536, Note_on_c, 2, 67, 44
1, 34536, Note_on_c, 2, 71, 62
1, 34536, Note_on_c, 2, 74, 52
1, 34536, Note_on_c, 9, 69, 1
1, 34537, Note_on_c, 9, 36, 60
1, 34537, Note_on_c, 7, 64, 37
1, 34537, Note_off_c, 9, 69, 64
1, 34538, Note_off_c, 9, 36, 64
1, 34553, Note_off_c, 7, 64, 64
1, 34554, Note_off_c, 2, 67, 64
1, 34556, Note_off_c, 1, 36, 64
1, 34558, Note_off_c, 2, 74, 64
1, 34559, Note_on_c, 9, 42, 39
1, 34560, Note_off_c, 9, 42, 64
1, 34560, Note_off_c, 2, 71, 64
1, 34560, Note_off_c, 2, 64, 64
1, 34560, Note_on_c, 9, 69, 1
1, 34561, Note_off_c, 9, 69, 64
1, 34570, Note_off_c, 3, 67, 64
1, 34584, Note_on_c, 2, 71, 51
1, 34584, Note_on_c, 2, 74, 49
1, 34584, Note_on_c, 2, 64, 39
1, 34584, Note_on_c, 2, 67, 42
1, 34584, Note_on_c, 7, 55, 33
1, 34585, Note_on_c, 1, 36, 51
1, 34585, Note_on_c, 9, 69, 1
1, 34586, Note_off_c, 9, 69, 64
1, 34598, Note_off_c, 1, 36, 64
1, 34600, Note_off_c, 7, 55, 64
1, 34602, Note_off_c, 2, 71, 64
1, 34605, Note_off_c, 2, 74, 64
1, 34607, Note_on_c, 9, 36, 53
1, 34607, Note_on_c, 1, 36, 47
1, 34608, Note_off_c, 9, 36, 64
1, 34608, Note_on_c, 9, 42, 30
1, 34608, Note_on_c, 2, 72, 41
1, 34608, Note_on_c, 2, 69, 37
1, 34609, Note_off_c, 9, 42, 64
1, 34609, Note_on_c, 9, 69, 5
1, 34610, Note_off_c, 9, 69, 64
1, 34617, Note_off_c, 2, 67, 64
1, 34628, Note_off_c, 2, 64, 64
1, 34628, Note_off_c, 2, 72, 64
1, 34628, Note_off_c, 2, 69, 64
1, 34631, Note_on_c, 8, 55, 20
1, 34631, Note_on_c, 8, 64, 17
1, 34632, Note_on_c, 7, 55, 30
1, 34633, Note_on_c, 8, 59, 13
1, 34633, Note_on_c, 9, 69, 1
1, 34634, Note_off_c, 9, 69, 64
1, 34637, Note_off_c, 8, 59, 64
1, 34637, Note_off_c, 8, 64, 64
1, 34638, Note_off_c, 1, 36, 64
1, 34639, Note_off_c, 8, 55, 64
1, 34643, Note_off_c, 7, 55, 64
1, 34655, Note_on_c, 8, 55, 21
1, 34655, Note_on_c, 8, 64, 19
1, 34655, Note_on_c, 8, 59, 22
1, 34656, Note_on_c, 2, 71, 54
1, 34656, Note_on_c, 2, 67, 47
1, 34656, Note_on_c, 2, 74, 52
1, 34656, Note_on_c, 2, 64, 38
1, 34657, Note_on_c, 9, 40, 58
1, 34657, Note_on_c, 9, 42, 33
1, 34657, Note_on_c, 7, 59, 32
1, 34657, Note_on_c, 9, 69, 1
1, 34658, Note_off_c, 9, 42, 64
1, 34658, Note_off_c, 9, 40, 64
1, 34658, Note_off_c, 9, 69, 64
1, 34663, Note_off_c, 8, 59, 64
1, 34664, Note_off_c, 8, 64, 64
1, 34665, Note_off_c, 8, 55, 64
1, 34666, Note_off_c, 2, 64, 64
1, 34670, Note_off_c, 7, 59, 64
1, 34679, Note_on_c, 1, 31, 43
1, 34680, Note_on_c, 9, 44, 23
1, 34680, Note_on_c, 7, 59, 28
1, 34681, Note_off_c, 9, 44, 64
1, 34681, Note_on_c, 9, 69, 1
1, 34682, Note_off_c, 9, 69, 64
1, 34698, Note_off_c, 2, 71, 64
1, 34699, Note_off_c, 7, 59, 64
1, 34701, Note_off_c, 1, 31, 64
1, 34703, Note_on_c, 1, 36, 44
1, 34703, Note_on_c, 8, 55, 23
1, 34703, Note_on_c, 9, 69, 1
1, 34704, Note_on_c, 2, 72, 42
1, 34704, Note_on_c, 2, 64, 42
1, 34704, Note_on_c, 2, 69, 45
1, 34704, Note_on_c, 8, 64, 23
1, 34704, Note_on_c, 8, 59, 23
1, 34704, Note_off_c, 9, 69, 64
1, 34705, Note_on_c, 9, 46, 28
1, 34705, Note_on_c, 7, 55, 27
1, 34706, Note_off_c, 9, 46, 64
1, 34706, Note_off_c, 2, 74, 64
1, 34712, Note_off_c, 2, 67, 64
1, 34714, Note_off_c, 8, 59, 64
1, 34714, Note_off_c, 8, 64, 64
1, 34714, Note_off_c, 8, 55, 64
1, 34718, Note_off_c, 2, 64, 64
1, 34720, Note_off_c, 7, 55, 64
1, 34724, Note_off_c, 1, 36, 64
1, 34727, Note_on_c, 1, 35, 39
1, 34728, Note_off_c, 2, 72, 64
1, 34728, Note_on_c, 9, 69, 1
1, 34729, Note_off_c, 2, 69, 64
1, 34729, Note_off_c, 9, 69, 64
1, 34751, Note_off_c, 1, 35, 64
1, 34752, Note_on_c, 1, 33, 44
1, 34752, Note_on_c, 2, 71, 44
1, 34752, Note_on_c, 2, 64, 42
1, 34752, Note_on_c, 2, 67, 42
1, 34752, Note_on_c, 7, 52, 29
1, 34752, Note_off_c, 11, 62, 64
1, 34752, Note_off_c, 11, 71, 64
1, 34752, Note_on_c, 11, 72, 22
1, 34752, Note_on_c, 11, 69, 22
1, 34753, Note_on_c, 9, 36, 46
1, 34753, Note_on_c, 9, 42, 28
1, 34754, Note_off_c, 9, 42, 64
1, 34754, Note_off_c, 9, 36, 64
1, 34766, Note_off_c, 7, 52, 64
1, 34772, Note_off_c, 2, 71, 64
1, 34774, Note_off_c, 2, 67, 64
1, 34775, Note_on_c, 9, 69, 1
1, 34776, Note_on_c, 2, 72, 34
1, 34776, Note_on_c, 2, 69, 31
1, 34776, Note_off_c, 9, 69, 64
1, 34777, Note_on_c, 7, 52, 24
1, 34792, Note_off_c, 7, 52, 64
1, 34794, Note_off_c, 2, 69, 64
1, 34796, Note_off_c, 2, 72, 64
1, 34799, Note_on_c, 9, 69, 1
1, 34800, Note_on_c, 9, 44, 20
1, 34800, Note_on_c, 2, 67, 33
1, 34800, Note_on_c, 2, 71, 42
1, 34800, Note_off_c, 9, 69, 64
1, 34801, Note_off_c, 9, 44, 64
1, 34801, Note_on_c, 7, 57, 29
1, 34807, Note_off_c, 1, 33, 64
1, 34817, Note_off_c, 2, 71, 64
1, 34818, Note_off_c, 2, 64, 64
1, 34818, Note_off_c, 7, 57, 64
1, 34820, Note_off_c, 2, 67, 64
1, 34823, Note_on_c, 9, 69, 1
1, 34824, Note_on_c, 2, 72, 38
1, 34824, Note_on_c, 2, 69, 38
1, 34824, Note_on_c, 2, 64, 35
1, 34824, Note_on_c, 8, 57, 14
1, 34824, Note_off_c, 9, 69, 64
1, 34825, Note_on_c, 9, 42, 24
1, 34825, Note_on_c, 7, 60, 24
1, 34825, Note_on_c, 8, 60, 10
1, 34825, Note_on_c, 8, 64, 8
1, 34826, Note_off_c, 9, 42, 64
1, 34830, Note_off_c, 8, 60, 64
1, 34831, Note_off_c, 8, 64, 64
1, 34833, Note_off_c, 8, 57, 64
1, 34842, Note_off_c, 7, 60, 64
1, 34846, Note_off_c, 2, 64, 64
1, 34846, Note_off_c, 2, 72, 64
1, 34848, Note_on_c, 9, 40, 43
1, 34848, Note_off_c, 2, 69, 64
1, 34849, Note_off_c, 9, 40, 64
1, 34849, Note_on_c, 8, 57, 17
1, 34849, Note_on_c, 8, 64, 9
1, 34850, Note_on_c, 8, 60, 8
1, 34850, Note_on_c, 9, 69, 1
1, 34851, Note_off_c, 9, 69, 64
1, 34858, Note_off_c, 8, 60, 64
1, 34858, Note_off_c, 8, 57, 64
1, 34860, Note_off_c, 8, 64, 64
1, 34872, Note_on_c, 2, 69, 38
1, 34872, Note_on_c, 2, 64, 33
1, 34872, Note_on_c, 2, 72, 38
1, 34873, Note_on_c, 9, 44, 20
1, 34873, Note_on_c, 7, 57, 23
1, 34873, Note_on_c, 9, 69, 1
1, 34874, Note_off_c, 9, 44, 64
1, 34874, Note_off_c, 9, 69, 64
1, 34886, Note_off_c, 7, 57, 64
1, 34888, Note_off_c, 2, 69, 64
1, 34892, Note_off_c, 2, 72, 64
1, 34894, Note_on_c, 2, 67, 26
1, 34896, Note_on_c, 2, 71, 29
1, 34897, Note_on_c, 9, 42, 20
1, 34897, Note_on_c, 9, 69, 1
1, 34898, Note_off_c, 9, 42, 64
1, 34898, Note_off_c, 9, 69, 64
1, 34909, Note_off_c, 2, 67, 64
1, 34910, Note_off_c, 2, 64, 64
1, 34914, Note_off_c, 2, 71, 64
1, 34918, Note_on_c, 2, 64, 22
1, 34919, Note_on_c, 1, 28, 32
1, 34920, Note_on_c, 2, 72, 33
1, 34920, Note_on_c, 2, 69, 34
1, 34920, Note_on_c, 9, 69, 1
1, 34921, Note_on_c, 9, 36, 37
1, 34921, Note_on_c, 7, 64, 20
1, 34921, Note_off_c, 9, 69, 64
1, 34922, Note_off_c, 9, 36, 64
1, 34941, Note_off_c, 2, 72, 64
1, 34941, Note_off_c, 7, 64, 64
1, 34942, Note_off_c, 1, 28, 64
1, 34942, Note_off_c, 2, 69, 64
1, 34943, Note_on_c, 9, 42, 18
1, 34943, Note_on_c, 1, 33, 36
1, 34944, Note_off_c, 9, 42, 64
1, 34944, Note_off_c, 2, 64, 64
1, 34946, Note_on_c, 9, 69, 1
1, 34947, Note_off_c, 9, 69, 64
1, 34966, Note_on_c, 2, 72, 31
1, 34966, Note_on_c, 2, 69, 29
1, 34968, Note_on_c, 2, 64, 30
1, 34968, Note_on_c, 7, 57, 20
1, 34969, Note_on_c, 9, 69, 1
1, 34970, Note_off_c, 9, 69, 64
1, 34983, Note_off_c, 2, 69, 64
1, 34983, Note_off_c, 7, 57, 64
1, 34987, Note_off_c, 1, 33, 64
1, 34988, Note_off_c, 2, 72, 64
1, 34991, Note_on_c, 9, 42, 16
1, 34992, Note_off_c, 9, 42, 64
1, 34992, Note_on_c, 9, 36, 31
1, 34992, Note_on_c, 2, 71, 25
1, 34992, Note_on_c, 2, 67, 22
1, 34993, Note_off_c, 9, 36, 64
1, 34994, Note_on_c, 9, 69, 1
1, 34995, Note_off_c, 9, 69, 64
1, 35002, Note_off_c, 2, 67, 64
1, 35005, Note_off_c, 2, 71, 64
1, 35015, Note_on_c, 7, 57, 16
1, 35015, Note_on_c, 8, 57, 5
1, 35016, Note_off_c, 2, 64, 64
1, 35016, Note_on_c, 8, 60, 1
1, 35016, Note_on_c, 8, 64, 1
1, 35017, Note_on_c, 9, 69, 1
1, 35018, Note_off_c, 9, 69, 64
1, 35022, Note_off_c, 8, 64, 64
1, 35022, Note_off_c, 8, 60, 64
1, 35022, Note_off_c, 8, 57, 64
1, 35032, Note_off_c, 7, 57, 64
1, 35038, Note_on_c, 2, 64, 28
1, 35038, Note_on_c, 2, 72, 30
1, 35038, Note_on_c, 2, 69, 32
1, 35039, Note_on_c, 9, 40, 33
1, 35039, Note_on_c, 8, 57, 6
1, 35040, Note_off_c, 9, 40, 64
1, 35040, Note_on_c, 9, 42, 14
1, 35041, Note_off_c, 9, 42, 64
1, 35041, Note_on_c, 7, 60, 13
1, 35041, Note_on_c, 8, 64, 1
1, 35041, Note_on_c, 8, 60, 1
1, 35041, Note_on_c, 9, 69, 1
1, 35042, Note_off_c, 9, 69, 64
1, 35049, Note_off_c, 8, 57, 64
1, 35050, Note_off_c, 7, 60, 64
1, 35050, Note_off_c, 8, 64, 64
1, 35051, Note_off_c, 8, 60, 64
1, 35063, Note_on_c, 1, 31, 29
1, 35064, Note_on_c, 7, 60, 9
1, 35065, Note_on_c, 9, 44, 12
1, 35065, Note_on_c, 9, 69, 1
1, 35066, Note_off_c, 9, 44, 64
1, 35066, Note_off_c, 2, 64, 64
1, 35066, Note_off_c, 9, 69, 64
1, 35080, Note_off_c, 2, 69, 64
1, 35083, Note_off_c, 7, 60, 64
1, 35085, Note_off_c, 1, 31, 64
1, 35085, Note_off_c, 2, 72, 64
1, 35087, Note_on_c, 1, 33, 24
1, 35087, Note_on_c, 8, 57, 3
1, 35088, Note_on_c, 2, 71, 23
1, 35088, Note_on_c, 2, 67, 23
1, 35088, Note_on_c, 2, 64, 25
1, 35088, Note_on_c, 8, 60, 1
1, 35088, Note_on_c, 8, 64, 1
1, 35088, Note_on_c, 9, 69, 1
1, 35089, Note_on_c, 9, 46, 9
1, 35089, Note_on_c, 7, 57, 13
1, 35089, Note_off_c, 9, 69, 64
1, 35090, Note_off_c, 9, 46, 64
1, 35097, Note_off_c, 8, 64, 64
1, 35098, Note_off_c, 8, 57, 64
1, 35101, Note_off_c, 8, 60, 64
1, 35103, Note_off_c, 1, 33, 64
1, 35104, Note_off_c, 2, 64, 64
1, 35108, Note_off_c, 2, 71, 64
1, 35111, Note_on_c, 1, 33, 26
1, 35114, Note_on_c, 9, 69, 1
1, 35115, Note_off_c, 9, 69, 64
1, 35118, Note_off_c, 2, 67, 64
1, 35130, Note_off_c, 7, 57, 64
1, 35135, Note_on_c, 1, 36, 27
1, 35136, Note_off_c, 1, 33, 64
1, 35136, Note_off_c, 11, 69, 64
1, 35136, Note_off_c, 11, 72, 64
1, 35136, Note_off_c, 11, 67, 64
1, 35143, Note_off_c, 11, 64, 64
1, 35184, Note_off_c, 1, 36, 64
1, 35184, End_track
0, 0, End_of_file
