0, 0, Header, 1, 12, 384
1, 0, Start_track
1, 0, Sequencer_specific, 3, 0, 0, 65
1, 0, Time_signature, 4, 2, 24, 8
1, 0, Key_signature, 0, "major"
1, 0, Tempo, 451128
1, 0, End_track
2, 0, Start_track
2, 0, MIDI_port, 0
2, 0, Title_t, "GYPSY               "
2, 0, Program_c, 0, 6
2, 0, Control_c, 0, 10, 89
2, 0, Control_c, 0, 0, 0
2, 0, Control_c, 0, 93, 50
2, 396, Control_c, 0, 7, 91
2, 396, Control_c, 0, 11, 127
2, 3080, Note_on_c, 0, 57, 102
2, 3080, Note_on_c, 0, 60, 120
2, 3080, Note_on_c, 0, 65, 114
2, 3084, Control_c, 0, 1, 0
2, 3084, Pitch_bend_c, 0, 8192
2, 4300, Note_on_c, 0, 65, 0
2, 4300, Note_on_c, 0, 57, 0
2, 4312, Note_on_c, 0, 60, 0
2, 4424, Note_on_c, 0, 60, 112
2, 4424, Note_on_c, 0, 64, 100
2, 4424, Note_on_c, 0, 57, 100
2, 5852, Note_on_c, 0, 57, 0
2, 5864, Note_on_c, 0, 60, 0
2, 5868, Note_on_c, 0, 64, 0
2, 5960, Note_on_c, 0, 60, 102
2, 5960, Note_on_c, 0, 62, 100
2, 5960, Note_on_c, 0, 57, 86
2, 7552, Note_on_c, 0, 57, 0
2, 7552, Note_on_c, 0, 62, 0
2, 7556, Note_on_c, 0, 60, 0
2, 7676, Note_on_c, 0, 53, 80
2, 7684, Note_on_c, 0, 60, 97
2, 7684, Note_on_c, 0, 57, 88
2, 8744, Note_on_c, 0, 57, 0
2, 8776, Note_on_c, 0, 60, 0
2, 8840, Note_on_c, 0, 53, 0
2, 9212, Note_on_c, 0, 65, 97
2, 9212, Note_on_c, 0, 62, 90
2, 9212, Note_on_c, 0, 72, 104
2, 10344, Note_on_c, 0, 62, 0
2, 10352, Note_on_c, 0, 65, 0
2, 10360, Note_on_c, 0, 72, 0
2, 10568, Note_on_c, 0, 74, 110
2, 10568, Note_on_c, 0, 67, 108
2, 10568, Note_on_c, 0, 64, 98
2, 11136, Note_on_c, 0, 72, 98
2, 11140, Note_on_c, 0, 74, 0
2, 11844, Note_on_c, 0, 72, 0
2, 11904, Note_on_c, 0, 67, 0
2, 11916, Note_on_c, 0, 64, 0
2, 12100, Note_on_c, 0, 72, 100
2, 12100, Note_on_c, 0, 65, 110
2, 12100, Note_on_c, 0, 62, 104
2, 13408, Note_on_c, 0, 62, 0
2, 13420, Note_on_c, 0, 65, 0
2, 13436, Note_on_c, 0, 72, 0
2, 13632, Note_on_c, 0, 74, 100
2, 13632, Note_on_c, 0, 67, 108
2, 13632, Note_on_c, 0, 64, 106
2, 14804, Note_on_c, 0, 74, 0
2, 14824, Note_on_c, 0, 67, 0
2, 14836, Note_on_c, 0, 64, 0
2, 15352, Note_on_c, 0, 60, 106
2, 15352, Note_on_c, 0, 57, 95
2, 15352, Note_on_c, 0, 65, 108
2, 16792, Note_on_c, 0, 65, 0
2, 16796, Note_on_c, 0, 57, 0
2, 16800, Note_on_c, 0, 60, 0
2, 16896, Note_on_c, 0, 60, 106
2, 16896, Note_on_c, 0, 64, 98
2, 16896, Note_on_c, 0, 57, 90
2, 18096, Note_on_c, 0, 57, 0
2, 18100, Note_on_c, 0, 64, 0
2, 18112, Note_on_c, 0, 60, 0
2, 18240, Note_on_c, 0, 60, 106
2, 18240, Note_on_c, 0, 57, 92
2, 18240, Note_on_c, 0, 62, 104
2, 19852, Note_on_c, 0, 62, 0
2, 19852, Note_on_c, 0, 57, 0
2, 19860, Note_on_c, 0, 60, 0
2, 19956, Note_on_c, 0, 53, 80
2, 19960, Note_on_c, 0, 57, 81
2, 19960, Note_on_c, 0, 60, 91
2, 21000, Note_on_c, 0, 57, 0
2, 21040, Note_on_c, 0, 60, 0
2, 21132, Note_on_c, 0, 53, 0
2, 21496, Note_on_c, 0, 65, 106
2, 21496, Note_on_c, 0, 62, 100
2, 21496, Note_on_c, 0, 72, 110
2, 22620, Note_on_c, 0, 62, 0
2, 22636, Note_on_c, 0, 65, 0
2, 22648, Note_on_c, 0, 72, 0
2, 22848, Note_on_c, 0, 67, 98
2, 22848, Note_on_c, 0, 74, 104
2, 22852, Note_on_c, 0, 64, 90
2, 23420, Note_on_c, 0, 64, 0
2, 23420, Note_on_c, 0, 74, 0
2, 23420, Note_on_c, 0, 67, 0
2, 23424, Note_on_c, 0, 67, 100
2, 23424, Note_on_c, 0, 64, 84
2, 23432, Note_on_c, 0, 72, 102
2, 24244, Note_on_c, 0, 64, 0
2, 24248, Note_on_c, 0, 72, 0
2, 24248, Note_on_c, 0, 67, 0
2, 24380, Note_on_c, 0, 72, 91
2, 24380, Note_on_c, 0, 62, 98
2, 24380, Note_on_c, 0, 65, 104
2, 25908, Note_on_c, 0, 65, 0
2, 25912, Note_on_c, 0, 62, 0
2, 25940, Note_on_c, 0, 72, 0
2, 26096, Note_on_c, 0, 64, 86
2, 26096, Note_on_c, 0, 67, 97
2, 26096, Note_on_c, 0, 74, 104
2, 27124, Note_on_c, 0, 74, 0
2, 27152, Note_on_c, 0, 67, 0
2, 27164, Note_on_c, 0, 64, 0
2, 27640, Note_on_c, 0, 60, 104
2, 27640, Note_on_c, 0, 57, 95
2, 27640, Note_on_c, 0, 65, 104
2, 28904, Note_on_c, 0, 65, 0
2, 28920, Note_on_c, 0, 57, 0
2, 28920, Note_on_c, 0, 60, 0
2, 29000, Note_on_c, 0, 60, 104
2, 29000, Note_on_c, 0, 57, 87
2, 29000, Note_on_c, 0, 64, 100
2, 30624, Note_on_c, 0, 57, 0
2, 30640, Note_on_c, 0, 64, 0
2, 30640, Note_on_c, 0, 60, 0
2, 30720, Note_on_c, 0, 60, 88
2, 30720, Note_on_c, 0, 57, 76
2, 30724, Note_on_c, 0, 62, 94
2, 31960, Note_on_c, 0, 62, 0
2, 31960, Note_on_c, 0, 57, 0
2, 31960, Note_on_c, 0, 60, 0
2, 32060, Note_on_c, 0, 53, 77
2, 32068, Note_on_c, 0, 60, 100
2, 32068, Note_on_c, 0, 57, 92
2, 33188, Note_on_c, 0, 57, 0
2, 33248, Note_on_c, 0, 60, 0
2, 33276, Note_on_c, 0, 53, 0
2, 33604, Note_on_c, 0, 62, 97
2, 33604, Note_on_c, 0, 65, 104
2, 33604, Note_on_c, 0, 72, 104
2, 34816, Note_on_c, 0, 62, 0
2, 34832, Note_on_c, 0, 65, 0
2, 34840, Note_on_c, 0, 72, 0
2, 35140, Note_on_c, 0, 67, 106
2, 35140, Note_on_c, 0, 74, 112
2, 35140, Note_on_c, 0, 64, 102
2, 35712, Note_on_c, 0, 64, 0
2, 35712, Note_on_c, 0, 74, 0
2, 35712, Note_on_c, 0, 67, 0
2, 35716, Note_on_c, 0, 67, 100
2, 35716, Note_on_c, 0, 64, 80
2, 35716, Note_on_c, 0, 72, 100
2, 36452, Note_on_c, 0, 72, 0
2, 36460, Note_on_c, 0, 67, 0
2, 36464, Note_on_c, 0, 64, 0
2, 36668, Note_on_c, 0, 65, 100
2, 36668, Note_on_c, 0, 62, 94
2, 36672, Note_on_c, 0, 72, 92
2, 37996, Note_on_c, 0, 62, 0
2, 38012, Note_on_c, 0, 65, 0
2, 38028, Note_on_c, 0, 72, 0
2, 38204, Note_on_c, 0, 67, 102
2, 38204, Note_on_c, 0, 74, 104
2, 38204, Note_on_c, 0, 64, 94
2, 38756, Note_on_c, 0, 67, 0
2, 38764, Note_on_c, 0, 64, 0
2, 38776, Note_on_c, 0, 74, 0
2, 38776, Note_on_c, 0, 67, 85
2, 38776, Note_on_c, 0, 64, 77
2, 38780, Note_on_c, 0, 72, 95
2, 39508, Note_on_c, 0, 72, 0
2, 39528, Note_on_c, 0, 64, 0
2, 39528, Note_on_c, 0, 67, 0
2, 39740, Note_on_c, 0, 65, 100
2, 39744, Note_on_c, 0, 72, 104
2, 39744, Note_on_c, 0, 62, 97
2, 41072, Note_on_c, 0, 62, 0
2, 41092, Note_on_c, 0, 65, 0
2, 41104, Note_on_c, 0, 72, 0
2, 41276, Note_on_c, 0, 67, 112
2, 41276, Note_on_c, 0, 64, 102
2, 41276, Note_on_c, 0, 74, 114
2, 42492, Note_on_c, 0, 74, 0
2, 42528, Note_on_c, 0, 67, 0
2, 42532, Note_on_c, 0, 64, 0
2, 43000, Note_on_c, 0, 60, 97
2, 43000, Note_on_c, 0, 57, 90
2, 43004, Note_on_c, 0, 65, 102
2, 44260, Note_on_c, 0, 65, 0
2, 44260, Note_on_c, 0, 57, 0
2, 44260, Note_on_c, 0, 60, 0
2, 44348, Note_on_c, 0, 60, 100
2, 44348, Note_on_c, 0, 57, 84
2, 44348, Note_on_c, 0, 64, 97
2, 45792, Note_on_c, 0, 57, 0
2, 45808, Note_on_c, 0, 64, 0
2, 45808, Note_on_c, 0, 60, 0
2, 45884, Note_on_c, 0, 60, 95
2, 45884, Note_on_c, 0, 57, 80
2, 45884, Note_on_c, 0, 62, 100
2, 47304, Note_on_c, 0, 62, 0
2, 47308, Note_on_c, 0, 57, 0
2, 47312, Note_on_c, 0, 60, 0
2, 47420, Note_on_c, 0, 53, 87
2, 47424, Note_on_c, 0, 60, 102
2, 47428, Note_on_c, 0, 57, 92
2, 48296, Note_on_c, 0, 57, 0
2, 48308, Note_on_c, 0, 60, 0
2, 48356, Note_on_c, 0, 53, 0
2, 48376, Note_on_c, 0, 60, 95
2, 48376, Note_on_c, 0, 57, 80
2, 48376, Note_on_c, 0, 64, 91
2, 49044, Note_on_c, 0, 64, 0
2, 49044, Note_on_c, 0, 57, 0
2, 49044, Note_on_c, 0, 60, 0
2, 49144, Note_on_c, 0, 62, 78
2, 49144, Note_on_c, 0, 65, 88
2, 49148, Note_on_c, 0, 72, 80
2, 49524, Note_on_c, 0, 65, 0
2, 49524, Note_on_c, 0, 62, 0
2, 49528, Note_on_c, 0, 72, 0
2, 49532, Note_on_c, 0, 62, 86
2, 49532, Note_on_c, 0, 65, 94
2, 49532, Note_on_c, 0, 72, 81
2, 50352, Note_on_c, 0, 62, 0
2, 50368, Note_on_c, 0, 65, 0
2, 50372, Note_on_c, 0, 72, 0
2, 50492, Note_on_c, 0, 64, 95
2, 50496, Note_on_c, 0, 67, 106
2, 50496, Note_on_c, 0, 74, 117
2, 51836, Note_on_c, 0, 74, 0
2, 51852, Note_on_c, 0, 64, 0
2, 51860, Note_on_c, 0, 67, 0
2, 52024, Note_on_c, 0, 72, 97
2, 52024, Note_on_c, 0, 62, 98
2, 52024, Note_on_c, 0, 65, 102
2, 52596, Note_on_c, 0, 65, 0
2, 52596, Note_on_c, 0, 62, 0
2, 52596, Note_on_c, 0, 72, 0
2, 52600, Note_on_c, 0, 65, 100
2, 52600, Note_on_c, 0, 72, 92
2, 52600, Note_on_c, 0, 62, 91
2, 53288, Note_on_c, 0, 62, 0
2, 53300, Note_on_c, 0, 65, 0
2, 53312, Note_on_c, 0, 72, 0
2, 53560, Note_on_c, 0, 67, 97
2, 53560, Note_on_c, 0, 64, 91
2, 53564, Note_on_c, 0, 74, 98
2, 54808, Note_on_c, 0, 74, 0
2, 54832, Note_on_c, 0, 64, 0
2, 54840, Note_on_c, 0, 67, 0
2, 55284, Note_on_c, 0, 60, 84
2, 55284, Note_on_c, 0, 57, 83
2, 55284, Note_on_c, 0, 65, 84
2, 56740, Note_on_c, 0, 57, 0
2, 56752, Note_on_c, 0, 65, 0
2, 56752, Note_on_c, 0, 60, 0
2, 56828, Note_on_c, 0, 60, 98
2, 56828, Note_on_c, 0, 64, 90
2, 56828, Note_on_c, 0, 57, 86
2, 58076, Note_on_c, 0, 57, 0
2, 58088, Note_on_c, 0, 64, 0
2, 58096, Note_on_c, 0, 60, 0
2, 58188, Note_on_c, 0, 60, 108
2, 58188, Note_on_c, 0, 57, 91
2, 58188, Note_on_c, 0, 62, 98
2, 59784, Note_on_c, 0, 57, 0
2, 59788, Note_on_c, 0, 62, 0
2, 59792, Note_on_c, 0, 60, 0
2, 59888, Note_on_c, 0, 53, 80
2, 59892, Note_on_c, 0, 60, 97
2, 59892, Note_on_c, 0, 57, 85
2, 61136, Note_on_c, 0, 60, 0
2, 61156, Note_on_c, 0, 57, 0
2, 61200, Note_on_c, 0, 53, 0
2, 61436, Note_on_c, 0, 72, 90
2, 61436, Note_on_c, 0, 65, 98
2, 61436, Note_on_c, 0, 62, 97
2, 62536, Note_on_c, 0, 62, 0
2, 62548, Note_on_c, 0, 65, 0
2, 62560, Note_on_c, 0, 72, 0
2, 62780, Note_on_c, 0, 64, 84
2, 62780, Note_on_c, 0, 74, 102
2, 62780, Note_on_c, 0, 67, 97
2, 63352, Note_on_c, 0, 67, 0
2, 63352, Note_on_c, 0, 74, 0
2, 63352, Note_on_c, 0, 64, 0
2, 63360, Note_on_c, 0, 67, 86
2, 63360, Note_on_c, 0, 64, 80
2, 63360, Note_on_c, 0, 72, 97
2, 64276, Note_on_c, 0, 64, 0
2, 64280, Note_on_c, 0, 67, 0
2, 64324, Note_on_c, 0, 72, 0
2, 64504, Note_on_c, 0, 65, 98
2, 64504, Note_on_c, 0, 62, 87
2, 64504, Note_on_c, 0, 72, 98
2, 65732, Note_on_c, 0, 62, 0
2, 65756, Note_on_c, 0, 65, 0
2, 65764, Note_on_c, 0, 72, 0
2, 66032, Note_on_c, 0, 67, 95
2, 66032, Note_on_c, 0, 74, 100
2, 66032, Note_on_c, 0, 64, 90
2, 67132, Note_on_c, 0, 74, 0
2, 67156, Note_on_c, 0, 67, 0
2, 67164, Note_on_c, 0, 64, 0
2, 67572, Note_on_c, 0, 60, 97
2, 67576, Note_on_c, 0, 57, 87
2, 67576, Note_on_c, 0, 65, 104
2, 68796, Note_on_c, 0, 57, 0
2, 68808, Note_on_c, 0, 65, 0
2, 68816, Note_on_c, 0, 60, 0
2, 68920, Note_on_c, 0, 60, 102
2, 68924, Note_on_c, 0, 57, 80
2, 68924, Note_on_c, 0, 64, 95
2, 70556, Note_on_c, 0, 57, 0
2, 70576, Note_on_c, 0, 64, 0
2, 70576, Note_on_c, 0, 60, 0
2, 70648, Note_on_c, 0, 60, 98
2, 70648, Note_on_c, 0, 57, 87
2, 70652, Note_on_c, 0, 62, 100
2, 72060, Note_on_c, 0, 62, 0
2, 72064, Note_on_c, 0, 57, 0
2, 72076, Note_on_c, 0, 60, 0
2, 72180, Note_on_c, 0, 53, 86
2, 72184, Note_on_c, 0, 60, 98
2, 72184, Note_on_c, 0, 57, 88
2, 73324, Note_on_c, 0, 60, 0
2, 73480, Note_on_c, 0, 57, 0
2, 73536, Note_on_c, 0, 53, 0
2, 73720, Note_on_c, 0, 65, 97
2, 73720, Note_on_c, 0, 62, 88
2, 73720, Note_on_c, 0, 72, 90
2, 74860, Note_on_c, 0, 62, 0
2, 74884, Note_on_c, 0, 65, 0
2, 74900, Note_on_c, 0, 72, 0
2, 75064, Note_on_c, 0, 67, 102
2, 75064, Note_on_c, 0, 74, 100
2, 75068, Note_on_c, 0, 64, 86
2, 76440, Note_on_c, 0, 74, 0
2, 76468, Note_on_c, 0, 64, 0
2, 76476, Note_on_c, 0, 67, 0
2, 76788, Note_on_c, 0, 65, 98
2, 76788, Note_on_c, 0, 72, 102
2, 76788, Note_on_c, 0, 62, 87
2, 77168, Note_on_c, 0, 62, 0
2, 77168, Note_on_c, 0, 72, 0
2, 77168, Note_on_c, 0, 65, 0
2, 77192, Note_on_c, 0, 65, 100
2, 77192, Note_on_c, 0, 72, 95
2, 77192, Note_on_c, 0, 62, 83
2, 78016, Note_on_c, 0, 62, 0
2, 78036, Note_on_c, 0, 72, 0
2, 78036, Note_on_c, 0, 65, 0
2, 78140, Note_on_c, 0, 64, 87
2, 78140, Note_on_c, 0, 67, 100
2, 78144, Note_on_c, 0, 74, 110
2, 79624, Note_on_c, 0, 74, 0
2, 79644, Note_on_c, 0, 67, 0
2, 79656, Note_on_c, 0, 64, 0
2, 79856, Note_on_c, 0, 72, 86
2, 79856, Note_on_c, 0, 65, 97
2, 79860, Note_on_c, 0, 62, 94
2, 81104, Note_on_c, 0, 62, 0
2, 81128, Note_on_c, 0, 65, 0
2, 81136, Note_on_c, 0, 72, 0
2, 81212, Note_on_c, 0, 64, 91
2, 81212, Note_on_c, 0, 67, 104
2, 81220, Note_on_c, 0, 74, 108
2, 82516, Note_on_c, 0, 74, 0
2, 82544, Note_on_c, 0, 67, 0
2, 82552, Note_on_c, 0, 64, 0
2, 82952, Note_on_c, 0, 57, 75
2, 82952, Note_on_c, 0, 65, 86
2, 82952, Note_on_c, 0, 60, 85
2, 84184, Note_on_c, 0, 65, 0
2, 84184, Note_on_c, 0, 57, 0
2, 84196, Note_on_c, 0, 60, 0
2, 84292, Note_on_c, 0, 60, 104
2, 84292, Note_on_c, 0, 64, 100
2, 84292, Note_on_c, 0, 57, 84
2, 85708, Note_on_c, 0, 60, 0
2, 85720, Note_on_c, 0, 57, 0
2, 85744, Note_on_c, 0, 64, 0
2, 85828, Note_on_c, 0, 60, 97
2, 85828, Note_on_c, 0, 62, 98
2, 85832, Note_on_c, 0, 57, 81
2, 87244, Note_on_c, 0, 57, 0
2, 87244, Note_on_c, 0, 62, 0
2, 87248, Note_on_c, 0, 60, 0
2, 87352, Note_on_c, 0, 53, 83
2, 87356, Note_on_c, 0, 57, 83
2, 87356, Note_on_c, 0, 60, 92
2, 88492, Note_on_c, 0, 57, 0
2, 88508, Note_on_c, 0, 60, 0
2, 88536, Note_on_c, 0, 53, 0
2, 89084, Note_on_c, 0, 62, 102
2, 89084, Note_on_c, 0, 69, 108
2, 89084, Note_on_c, 0, 65, 112
2, 90544, Note_on_c, 0, 69, 0
2, 90548, Note_on_c, 0, 65, 0
2, 90548, Note_on_c, 0, 62, 0
2, 90616, Note_on_c, 0, 62, 84
2, 90616, Note_on_c, 0, 65, 97
2, 90620, Note_on_c, 0, 69, 92
2, 91840, Note_on_c, 0, 62, 0
2, 91932, Note_on_c, 0, 65, 0
2, 91952, Note_on_c, 0, 69, 0
2, 92152, Note_on_c, 0, 67, 95
2, 92152, Note_on_c, 0, 72, 91
2, 92152, Note_on_c, 0, 64, 86
2, 93580, Note_on_c, 0, 64, 0
2, 93604, Note_on_c, 0, 72, 0
2, 93616, Note_on_c, 0, 67, 0
2, 93692, Note_on_c, 0, 67, 98
2, 93692, Note_on_c, 0, 64, 87
2, 93692, Note_on_c, 0, 72, 92
2, 94888, Note_on_c, 0, 64, 0
2, 94896, Note_on_c, 0, 67, 0
2, 94976, Note_on_c, 0, 72, 0
2, 95224, Note_on_c, 0, 60, 86
2, 95224, Note_on_c, 0, 65, 97
2, 95224, Note_on_c, 0, 69, 92
2, 96496, Note_on_c, 0, 60, 0
2, 96504, Note_on_c, 0, 65, 0
2, 96520, Note_on_c, 0, 69, 0
2, 96584, Note_on_c, 0, 69, 60
2, 96584, Note_on_c, 0, 65, 75
2, 96584, Note_on_c, 0, 60, 63
2, 96768, Note_on_c, 0, 60, 0
2, 96768, Note_on_c, 0, 65, 0
2, 96768, Note_on_c, 0, 69, 0
2, 96772, Note_on_c, 0, 65, 83
2, 96772, Note_on_c, 0, 69, 78
2, 96772, Note_on_c, 0, 60, 81
2, 97864, Note_on_c, 0, 60, 0
2, 97916, Note_on_c, 0, 69, 0
2, 97920, Note_on_c, 0, 65, 0
2, 98292, Note_on_c, 0, 65, 94
2, 98296, Note_on_c, 0, 62, 80
2, 98296, Note_on_c, 0, 70, 87
2, 99488, Note_on_c, 0, 70, 0
2, 99556, Note_on_c, 0, 65, 0
2, 99560, Note_on_c, 0, 62, 0
2, 99836, Note_on_c, 0, 70, 91
2, 99836, Note_on_c, 0, 62, 88
2, 99836, Note_on_c, 0, 65, 100
2, 100500, Note_on_c, 0, 70, 0
2, 100528, Note_on_c, 0, 62, 0
2, 100544, Note_on_c, 0, 65, 0
2, 100612, Note_on_c, 0, 65, 94
2, 100616, Note_on_c, 0, 69, 98
2, 100616, Note_on_c, 0, 62, 79
2, 100988, Note_on_c, 0, 62, 0
2, 100992, Note_on_c, 0, 70, 79
2, 100992, Note_on_c, 0, 62, 75
2, 100996, Note_on_c, 0, 69, 0
2, 101216, Note_on_c, 0, 70, 0
2, 101220, Note_on_c, 0, 65, 0
2, 101264, Note_on_c, 0, 62, 0
2, 101376, Note_on_c, 0, 62, 97
2, 101376, Note_on_c, 0, 69, 106
2, 101376, Note_on_c, 0, 65, 100
2, 102824, Note_on_c, 0, 62, 0
2, 102828, Note_on_c, 0, 69, 0
2, 102832, Note_on_c, 0, 65, 0
2, 102908, Note_on_c, 0, 65, 94
2, 102908, Note_on_c, 0, 69, 95
2, 102908, Note_on_c, 0, 62, 90
2, 103600, Note_on_c, 0, 62, 0
2, 103600, Note_on_c, 0, 69, 0
2, 103616, Note_on_c, 0, 65, 0
2, 103680, Note_on_c, 0, 69, 102
2, 103680, Note_on_c, 0, 65, 102
2, 103680, Note_on_c, 0, 62, 97
2, 104328, Note_on_c, 0, 62, 0
2, 104380, Note_on_c, 0, 65, 0
2, 104388, Note_on_c, 0, 69, 0
2, 104448, Note_on_c, 0, 67, 98
2, 104448, Note_on_c, 0, 72, 95
2, 104448, Note_on_c, 0, 64, 92
2, 105864, Note_on_c, 0, 64, 0
2, 105892, Note_on_c, 0, 72, 0
2, 105896, Note_on_c, 0, 67, 0
2, 105980, Note_on_c, 0, 72, 100
2, 105980, Note_on_c, 0, 67, 106
2, 105980, Note_on_c, 0, 64, 100
2, 107188, Note_on_c, 0, 64, 0
2, 107188, Note_on_c, 0, 67, 0
2, 107248, Note_on_c, 0, 72, 0
2, 107516, Note_on_c, 0, 60, 87
2, 107516, Note_on_c, 0, 65, 94
2, 107516, Note_on_c, 0, 69, 90
2, 108900, Note_on_c, 0, 60, 0
2, 108904, Note_on_c, 0, 69, 0
2, 108912, Note_on_c, 0, 65, 0
2, 109052, Note_on_c, 0, 65, 94
2, 109052, Note_on_c, 0, 60, 90
2, 109052, Note_on_c, 0, 69, 91
2, 110240, Note_on_c, 0, 69, 0
2, 110248, Note_on_c, 0, 60, 0
2, 110340, Note_on_c, 0, 65, 0
2, 110588, Note_on_c, 0, 65, 104
2, 110588, Note_on_c, 0, 62, 97
2, 110588, Note_on_c, 0, 70, 101
2, 111828, Note_on_c, 0, 62, 0
2, 111864, Note_on_c, 0, 65, 0
2, 111912, Note_on_c, 0, 70, 0
2, 112124, Note_on_c, 0, 62, 91
2, 112128, Note_on_c, 0, 70, 99
2, 112128, Note_on_c, 0, 65, 106
2, 112472, Note_on_c, 0, 62, 0
2, 112504, Note_on_c, 0, 69, 88
2, 112508, Note_on_c, 0, 70, 0
2, 112508, Note_on_c, 0, 62, 62
2, 112876, Note_on_c, 0, 65, 0
2, 112888, Note_on_c, 0, 62, 0
2, 112888, Note_on_c, 0, 65, 84
2, 112892, Note_on_c, 0, 67, 108
2, 112896, Note_on_c, 0, 62, 83
2, 112908, Note_on_c, 0, 69, 0
2, 113276, Note_on_c, 0, 62, 0
2, 113280, Note_on_c, 0, 65, 0
2, 113284, Note_on_c, 0, 65, 95
2, 113288, Note_on_c, 0, 62, 77
2, 113288, Note_on_c, 0, 69, 98
2, 113292, Note_on_c, 0, 67, 0
2, 113540, Note_on_c, 0, 65, 0
2, 113540, Note_on_c, 0, 62, 0
2, 113560, Note_on_c, 0, 69, 0
2, 113660, Note_on_c, 0, 65, 106
2, 113660, Note_on_c, 0, 62, 102
2, 113668, Note_on_c, 0, 69, 102
2, 115088, Note_on_c, 0, 69, 0
2, 115088, Note_on_c, 0, 62, 0
2, 115100, Note_on_c, 0, 65, 0
2, 115196, Note_on_c, 0, 62, 95
2, 115196, Note_on_c, 0, 65, 100
2, 115196, Note_on_c, 0, 69, 106
2, 116324, Note_on_c, 0, 62, 0
2, 116352, Note_on_c, 0, 65, 0
2, 116376, Note_on_c, 0, 69, 0
2, 116736, Note_on_c, 0, 67, 106
2, 116736, Note_on_c, 0, 72, 104
2, 116736, Note_on_c, 0, 64, 100
2, 118884, Note_on_c, 0, 72, 0
2, 118896, Note_on_c, 0, 67, 0
2, 118904, Note_on_c, 0, 64, 0
2, 119796, Note_on_c, 0, 60, 106
2, 119796, Note_on_c, 0, 57, 95
2, 119796, Note_on_c, 0, 65, 98
2, 121032, Note_on_c, 0, 65, 0
2, 121048, Note_on_c, 0, 57, 0
2, 121052, Note_on_c, 0, 60, 0
2, 121148, Note_on_c, 0, 60, 112
2, 121148, Note_on_c, 0, 57, 94
2, 121148, Note_on_c, 0, 64, 102
2, 122752, Note_on_c, 0, 57, 0
2, 122764, Note_on_c, 0, 64, 0
2, 122776, Note_on_c, 0, 60, 0
2, 122872, Note_on_c, 0, 60, 100
2, 122876, Note_on_c, 0, 62, 104
2, 122876, Note_on_c, 0, 57, 92
2, 124092, Note_on_c, 0, 57, 0
2, 124096, Note_on_c, 0, 62, 0
2, 124100, Note_on_c, 0, 60, 0
2, 124216, Note_on_c, 0, 53, 80
2, 124216, Note_on_c, 0, 60, 104
2, 124216, Note_on_c, 0, 57, 97
2, 125428, Note_on_c, 0, 57, 0
2, 125484, Note_on_c, 0, 60, 0
2, 125600, Note_on_c, 0, 53, 0
2, 125948, Note_on_c, 0, 65, 106
2, 125948, Note_on_c, 0, 72, 102
2, 125948, Note_on_c, 0, 62, 98
2, 127336, Note_on_c, 0, 62, 0
2, 127344, Note_on_c, 0, 65, 0
2, 127372, Note_on_c, 0, 72, 0
2, 127488, Note_on_c, 0, 64, 92
2, 127488, Note_on_c, 0, 74, 110
2, 127488, Note_on_c, 0, 67, 90
2, 128640, Note_on_c, 0, 74, 0
2, 128684, Note_on_c, 0, 67, 0
2, 128696, Note_on_c, 0, 64, 0
2, 129020, Note_on_c, 0, 65, 92
2, 129020, Note_on_c, 0, 72, 86
2, 129020, Note_on_c, 0, 62, 91
2, 129020, Note_on_c, 0, 69, 91
2, 130192, Note_on_c, 0, 69, 0
2, 130196, Note_on_c, 0, 62, 0
2, 130208, Note_on_c, 0, 65, 0
2, 130240, Note_on_c, 0, 72, 0
2, 130364, Note_on_c, 0, 67, 102
2, 130364, Note_on_c, 0, 64, 92
2, 130364, Note_on_c, 0, 74, 106
2, 131520, Note_on_c, 0, 74, 0
2, 131544, Note_on_c, 0, 67, 0
2, 131552, Note_on_c, 0, 64, 0
2, 132088, Note_on_c, 0, 60, 98
2, 132088, Note_on_c, 0, 57, 90
2, 132092, Note_on_c, 0, 65, 97
2, 133540, Note_on_c, 0, 65, 0
2, 133540, Note_on_c, 0, 57, 0
2, 133548, Note_on_c, 0, 60, 0
2, 133628, Note_on_c, 0, 57, 84
2, 133628, Note_on_c, 0, 60, 100
2, 133632, Note_on_c, 0, 64, 95
2, 135032, Note_on_c, 0, 57, 0
2, 135048, Note_on_c, 0, 60, 0
2, 135056, Note_on_c, 0, 64, 0
2, 135160, Note_on_c, 0, 60, 97
2, 135160, Note_on_c, 0, 57, 86
2, 135160, Note_on_c, 0, 62, 98
2, 136380, Note_on_c, 0, 57, 0
2, 136384, Note_on_c, 0, 62, 0
2, 136384, Note_on_c, 0, 60, 0
2, 136508, Note_on_c, 0, 53, 64
2, 136512, Note_on_c, 0, 60, 98
2, 136512, Note_on_c, 0, 57, 88
2, 137668, Note_on_c, 0, 60, 0
2, 137680, Note_on_c, 0, 57, 0
2, 137716, Note_on_c, 0, 53, 0
2, 138044, Note_on_c, 0, 62, 87
2, 138044, Note_on_c, 0, 72, 88
2, 138044, Note_on_c, 0, 65, 97
2, 139280, Note_on_c, 0, 62, 0
2, 139288, Note_on_c, 0, 65, 0
2, 139312, Note_on_c, 0, 72, 0
2, 139588, Note_on_c, 0, 74, 110
2, 139588, Note_on_c, 0, 67, 108
2, 139588, Note_on_c, 0, 64, 102
2, 140148, Note_on_c, 0, 67, 0
2, 140156, Note_on_c, 0, 64, 0
2, 140156, Note_on_c, 0, 67, 83
2, 140160, Note_on_c, 0, 74, 0
2, 140160, Note_on_c, 0, 64, 88
2, 140160, Note_on_c, 0, 72, 90
2, 140908, Note_on_c, 0, 72, 0
2, 140928, Note_on_c, 0, 64, 0
2, 140932, Note_on_c, 0, 67, 0
2, 141312, Note_on_c, 0, 65, 104
2, 141316, Note_on_c, 0, 72, 94
2, 141316, Note_on_c, 0, 62, 100
2, 142384, Note_on_c, 0, 62, 0
2, 142392, Note_on_c, 0, 65, 0
2, 142416, Note_on_c, 0, 72, 0
2, 142652, Note_on_c, 0, 67, 95
2, 142656, Note_on_c, 0, 74, 97
2, 142656, Note_on_c, 0, 64, 84
2, 143364, Note_on_c, 0, 64, 0
2, 143364, Note_on_c, 0, 74, 0
2, 143376, Note_on_c, 0, 67, 0
2, 143432, Note_on_c, 0, 74, 100
2, 143432, Note_on_c, 0, 64, 98
2, 143432, Note_on_c, 0, 67, 104
2, 143984, Note_on_c, 0, 64, 0
2, 143988, Note_on_c, 0, 67, 0
2, 143992, Note_on_c, 0, 67, 77
2, 143996, Note_on_c, 0, 64, 85
2, 143996, Note_on_c, 0, 72, 92
2, 144004, Note_on_c, 0, 74, 0
2, 144372, Note_on_c, 0, 67, 0
2, 144376, Note_on_c, 0, 64, 0
2, 144376, Note_on_c, 0, 72, 0
2, 144384, Note_on_c, 0, 62, 95
2, 144384, Note_on_c, 0, 65, 102
2, 144384, Note_on_c, 0, 72, 88
2, 145380, Note_on_c, 0, 62, 0
2, 145400, Note_on_c, 0, 65, 0
2, 145464, Note_on_c, 0, 72, 0
2, 145736, Note_on_c, 0, 74, 92
2, 145736, Note_on_c, 0, 64, 86
2, 145736, Note_on_c, 0, 67, 95
2, 147008, Note_on_c, 0, 64, 0
2, 147036, Note_on_c, 0, 74, 0
2, 147056, Note_on_c, 0, 67, 0
2, 147448, Note_on_c, 0, 65, 95
2, 147448, Note_on_c, 0, 62, 85
2, 147448, Note_on_c, 0, 72, 97
2, 148520, Note_on_c, 0, 62, 0
2, 148568, Note_on_c, 0, 65, 0
2, 148592, Note_on_c, 0, 72, 0
2, 148804, Note_on_c, 0, 67, 106
2, 148804, Note_on_c, 0, 74, 104
2, 148804, Note_on_c, 0, 64, 102
2, 149968, Note_on_c, 0, 74, 0
2, 150016, Note_on_c, 0, 67, 0
2, 150028, Note_on_c, 0, 64, 0
2, 150524, Note_on_c, 0, 60, 98
2, 150524, Note_on_c, 0, 65, 104
2, 150524, Note_on_c, 0, 57, 92
2, 151764, Note_on_c, 0, 65, 0
2, 151784, Note_on_c, 0, 57, 0
2, 151784, Note_on_c, 0, 60, 0
2, 151876, Note_on_c, 0, 60, 104
2, 151880, Note_on_c, 0, 64, 98
2, 151880, Note_on_c, 0, 57, 87
2, 153260, Note_on_c, 0, 64, 0
2, 153272, Note_on_c, 0, 57, 0
2, 153284, Note_on_c, 0, 60, 0
2, 153412, Note_on_c, 0, 62, 100
2, 153412, Note_on_c, 0, 60, 98
2, 153412, Note_on_c, 0, 57, 91
2, 154972, Note_on_c, 0, 62, 0
2, 154976, Note_on_c, 0, 57, 0
2, 154996, Note_on_c, 0, 60, 0
2, 155128, Note_on_c, 0, 53, 83
2, 155128, Note_on_c, 0, 60, 97
2, 155128, Note_on_c, 0, 57, 81
2, 156096, Note_on_c, 0, 57, 0
2, 156156, Note_on_c, 0, 60, 0
2, 156188, Note_on_c, 0, 53, 0
2, 156476, Note_on_c, 0, 62, 87
2, 156476, Note_on_c, 0, 72, 95
2, 156476, Note_on_c, 0, 65, 97
2, 157032, Note_on_c, 0, 62, 0
2, 157036, Note_on_c, 0, 65, 0
2, 157036, Note_on_c, 0, 72, 0
2, 157044, Note_on_c, 0, 62, 83
2, 157044, Note_on_c, 0, 65, 92
2, 157044, Note_on_c, 0, 72, 85
2, 157844, Note_on_c, 0, 65, 0
2, 157844, Note_on_c, 0, 62, 0
2, 157856, Note_on_c, 0, 72, 0
2, 158016, Note_on_c, 0, 67, 106
2, 158016, Note_on_c, 0, 74, 106
2, 158016, Note_on_c, 0, 64, 94
2, 159248, Note_on_c, 0, 74, 0
2, 159252, Note_on_c, 0, 64, 0
2, 159264, Note_on_c, 0, 67, 0
2, 159548, Note_on_c, 0, 62, 104
2, 159548, Note_on_c, 0, 65, 110
2, 159552, Note_on_c, 0, 72, 114
2, 160116, Note_on_c, 0, 72, 0
2, 160120, Note_on_c, 0, 65, 0
2, 160120, Note_on_c, 0, 62, 0
2, 160124, Note_on_c, 0, 72, 72
2, 160124, Note_on_c, 0, 65, 80
2, 160124, Note_on_c, 0, 62, 79
2, 161088, Note_on_c, 0, 62, 0
2, 161112, Note_on_c, 0, 65, 0
2, 161144, Note_on_c, 0, 72, 0
2, 161280, Note_on_c, 0, 74, 98
2, 161284, Note_on_c, 0, 64, 97
2, 161284, Note_on_c, 0, 67, 100
2, 162164, Note_on_c, 0, 74, 0
2, 162212, Note_on_c, 0, 67, 0
2, 162224, Note_on_c, 0, 64, 0
2, 162632, Note_on_c, 0, 60, 102
2, 162632, Note_on_c, 0, 57, 95
2, 162632, Note_on_c, 0, 65, 104
2, 164080, Note_on_c, 0, 57, 0
2, 164084, Note_on_c, 0, 65, 0
2, 164084, Note_on_c, 0, 60, 0
2, 164156, Note_on_c, 0, 60, 98
2, 164156, Note_on_c, 0, 57, 85
2, 164156, Note_on_c, 0, 64, 102
2, 165612, Note_on_c, 0, 57, 0
2, 165632, Note_on_c, 0, 64, 0
2, 165632, Note_on_c, 0, 60, 0
2, 165704, Note_on_c, 0, 60, 100
2, 165704, Note_on_c, 0, 57, 90
2, 165704, Note_on_c, 0, 62, 104
2, 167320, Note_on_c, 0, 62, 0
2, 167320, Note_on_c, 0, 57, 0
2, 167332, Note_on_c, 0, 60, 0
2, 167416, Note_on_c, 0, 57, 80
2, 167416, Note_on_c, 0, 60, 91
2, 167416, Note_on_c, 0, 53, 80
2, 168420, Note_on_c, 0, 57, 0
2, 168476, Note_on_c, 0, 60, 0
2, 168536, Note_on_c, 0, 53, 0
2, 168764, Note_on_c, 0, 65, 104
2, 168764, Note_on_c, 0, 72, 110
2, 168764, Note_on_c, 0, 62, 98
2, 169336, Note_on_c, 0, 62, 0
2, 169336, Note_on_c, 0, 65, 0
2, 169344, Note_on_c, 0, 65, 80
2, 169344, Note_on_c, 0, 62, 83
2, 170132, Note_on_c, 0, 62, 0
2, 170172, Note_on_c, 0, 65, 0
2, 170176, Note_on_c, 0, 72, 0
2, 170304, Note_on_c, 0, 64, 97
2, 170304, Note_on_c, 0, 67, 106
2, 170304, Note_on_c, 0, 74, 114
2, 170876, Note_on_c, 0, 74, 0
2, 170876, Note_on_c, 0, 67, 0
2, 170876, Note_on_c, 0, 64, 0
2, 170884, Note_on_c, 0, 67, 77
2, 170888, Note_on_c, 0, 72, 95
2, 170888, Note_on_c, 0, 64, 86
2, 171624, Note_on_c, 0, 64, 0
2, 171652, Note_on_c, 0, 72, 0
2, 171656, Note_on_c, 0, 67, 0
2, 171836, Note_on_c, 0, 72, 104
2, 171836, Note_on_c, 0, 65, 102
2, 171836, Note_on_c, 0, 62, 98
2, 173176, Note_on_c, 0, 62, 0
2, 173208, Note_on_c, 0, 65, 0
2, 173252, Note_on_c, 0, 72, 0
2, 173564, Note_on_c, 0, 74, 100
2, 173564, Note_on_c, 0, 67, 102
2, 173564, Note_on_c, 0, 64, 100
2, 174724, Note_on_c, 0, 74, 0
2, 174748, Note_on_c, 0, 64, 0
2, 174772, Note_on_c, 0, 67, 0
2, 175100, Note_on_c, 0, 60, 95
2, 175100, Note_on_c, 0, 57, 84
2, 175100, Note_on_c, 0, 65, 98
2, 176356, Note_on_c, 0, 57, 0
2, 176360, Note_on_c, 0, 60, 0
2, 176372, Note_on_c, 0, 65, 0
2, 176452, Note_on_c, 0, 60, 100
2, 176452, Note_on_c, 0, 57, 85
2, 176452, Note_on_c, 0, 64, 95
2, 177920, Note_on_c, 0, 64, 0
2, 177936, Note_on_c, 0, 57, 0
2, 177948, Note_on_c, 0, 60, 0
2, 177988, Note_on_c, 0, 60, 91
2, 177992, Note_on_c, 0, 57, 86
2, 177992, Note_on_c, 0, 62, 104
2, 179624, Note_on_c, 0, 62, 0
2, 179628, Note_on_c, 0, 57, 0
2, 179640, Note_on_c, 0, 60, 0
2, 179700, Note_on_c, 0, 53, 78
2, 179704, Note_on_c, 0, 57, 80
2, 179704, Note_on_c, 0, 60, 91
2, 180756, Note_on_c, 0, 57, 0
2, 180764, Note_on_c, 0, 60, 0
2, 180832, Note_on_c, 0, 53, 0
2, 181048, Note_on_c, 0, 65, 106
2, 181052, Note_on_c, 0, 72, 100
2, 181052, Note_on_c, 0, 62, 98
2, 181620, Note_on_c, 0, 65, 0
2, 181624, Note_on_c, 0, 62, 0
2, 181628, Note_on_c, 0, 62, 90
2, 181628, Note_on_c, 0, 65, 98
2, 182424, Note_on_c, 0, 62, 0
2, 182436, Note_on_c, 0, 65, 0
2, 182456, Note_on_c, 0, 72, 0
2, 182596, Note_on_c, 0, 67, 104
2, 182596, Note_on_c, 0, 64, 95
2, 182596, Note_on_c, 0, 74, 108
2, 183972, Note_on_c, 0, 64, 0
2, 183980, Note_on_c, 0, 74, 0
2, 184004, Note_on_c, 0, 67, 0
2, 184120, Note_on_c, 0, 72, 106
2, 184120, Note_on_c, 0, 65, 112
2, 184124, Note_on_c, 0, 62, 110
2, 185680, Note_on_c, 0, 62, 0
2, 185724, Note_on_c, 0, 65, 0
2, 185748, Note_on_c, 0, 72, 0
2, 185848, Note_on_c, 0, 64, 90
2, 185852, Note_on_c, 0, 67, 100
2, 185852, Note_on_c, 0, 74, 102
2, 186944, Note_on_c, 0, 74, 0
2, 186980, Note_on_c, 0, 67, 0
2, 186988, Note_on_c, 0, 64, 0
2, 187384, Note_on_c, 0, 60, 95
2, 187388, Note_on_c, 0, 65, 98
2, 187388, Note_on_c, 0, 57, 73
2, 188828, Note_on_c, 0, 65, 0
2, 188844, Note_on_c, 0, 60, 0
2, 188848, Note_on_c, 0, 57, 0
2, 188848, End_track
3, 0, Start_track
3, 0, MIDI_port, 0
3, 0, Title_t, "GYPSY             2 "
3, 0, Program_c, 1, 34
3, 0, Control_c, 1, 10, 64
3, 0, Control_c, 1, 0, 0
3, 0, Control_c, 1, 93, 30
3, 416, Control_c, 1, 7, 104
3, 416, Control_c, 1, 11, 127
3, 3076, Note_on_c, 1, 29, 111
3, 3080, Control_c, 1, 1, 0
3, 3080, Pitch_bend_c, 1, 8192
3, 3568, Note_on_c, 1, 29, 0
3, 3652, Note_on_c, 1, 29, 104
3, 3732, Note_on_c, 1, 29, 0
3, 3848, Note_on_c, 1, 29, 115
3, 4516, Note_on_c, 1, 29, 0
3, 4608, Note_on_c, 1, 29, 108
3, 5088, Note_on_c, 1, 29, 0
3, 5180, Note_on_c, 1, 29, 105
3, 5280, Note_on_c, 1, 29, 0
3, 5384, Note_on_c, 1, 29, 108
3, 6024, Note_on_c, 1, 29, 0
3, 6148, Note_on_c, 1, 29, 109
3, 6612, Note_on_c, 1, 29, 0
3, 6712, Note_on_c, 1, 29, 99
3, 6788, Note_on_c, 1, 29, 0
3, 6908, Note_on_c, 1, 29, 111
3, 7548, Note_on_c, 1, 29, 0
3, 7672, Note_on_c, 1, 29, 113
3, 7972, Note_on_c, 1, 29, 0
3, 8064, Note_on_c, 1, 29, 113
3, 8392, Note_on_c, 1, 29, 0
3, 8460, Note_on_c, 1, 36, 108
3, 8520, Pitch_bend_c, 1, 8426
3, 8536, Pitch_bend_c, 1, 10415
3, 8548, Pitch_bend_c, 1, 11936
3, 8560, Pitch_bend_c, 1, 13106
3, 8576, Pitch_bend_c, 1, 13808
3, 8588, Pitch_bend_c, 1, 14744
3, 8600, Pitch_bend_c, 1, 15797
3, 8616, Pitch_bend_c, 1, 16383
3, 8800, Pitch_bend_c, 1, 15914
3, 8816, Pitch_bend_c, 1, 12755
3, 8828, Pitch_bend_c, 1, 8192
3, 9056, Note_on_c, 1, 36, 0
3, 9212, Note_on_c, 1, 34, 102
3, 9740, Note_on_c, 1, 34, 0
3, 9800, Note_on_c, 1, 34, 103
3, 9888, Note_on_c, 1, 34, 0
3, 9992, Note_on_c, 1, 34, 116
3, 10336, Note_on_c, 1, 34, 0
3, 10368, Note_on_c, 1, 33, 103
3, 10556, Note_on_c, 1, 33, 0
3, 10556, Note_on_c, 1, 31, 103
3, 10744, Note_on_c, 1, 31, 0
3, 10752, Note_on_c, 1, 36, 105
3, 11220, Note_on_c, 1, 36, 0
3, 11324, Note_on_c, 1, 36, 105
3, 11416, Note_on_c, 1, 36, 0
3, 11532, Note_on_c, 1, 36, 111
3, 11936, Note_on_c, 1, 36, 0
3, 12092, Note_on_c, 1, 36, 107
3, 12264, Note_on_c, 1, 36, 0
3, 12288, Note_on_c, 1, 34, 105
3, 12752, Note_on_c, 1, 34, 0
3, 12864, Note_on_c, 1, 34, 102
3, 12928, Note_on_c, 1, 34, 0
3, 13060, Note_on_c, 1, 34, 110
3, 13420, Note_on_c, 1, 34, 0
3, 13440, Note_on_c, 1, 33, 100
3, 13628, Note_on_c, 1, 33, 0
3, 13628, Note_on_c, 1, 31, 105
3, 13812, Note_on_c, 1, 31, 0
3, 13824, Note_on_c, 1, 36, 105
3, 14276, Note_on_c, 1, 36, 0
3, 14396, Note_on_c, 1, 36, 107
3, 14472, Note_on_c, 1, 36, 0
3, 14600, Note_on_c, 1, 36, 113
3, 15016, Note_on_c, 1, 36, 0
3, 15168, Note_on_c, 1, 36, 107
3, 15336, Note_on_c, 1, 36, 0
3, 15356, Note_on_c, 1, 29, 103
3, 15840, Note_on_c, 1, 29, 0
3, 15936, Note_on_c, 1, 29, 105
3, 16016, Note_on_c, 1, 29, 0
3, 16128, Note_on_c, 1, 29, 112
3, 16600, Note_on_c, 1, 29, 0
3, 16696, Note_on_c, 1, 29, 102
3, 16776, Note_on_c, 1, 29, 0
3, 16900, Note_on_c, 1, 29, 112
3, 17352, Note_on_c, 1, 29, 0
3, 17464, Note_on_c, 1, 29, 102
3, 17548, Note_on_c, 1, 29, 0
3, 17668, Note_on_c, 1, 29, 114
3, 18064, Note_on_c, 1, 29, 0
3, 18228, Note_on_c, 1, 29, 108
3, 18292, Note_on_c, 1, 29, 0
3, 18424, Note_on_c, 1, 29, 109
3, 18896, Note_on_c, 1, 29, 0
3, 18996, Note_on_c, 1, 29, 102
3, 19076, Note_on_c, 1, 29, 0
3, 19188, Note_on_c, 1, 29, 112
3, 19644, Note_on_c, 1, 29, 0
3, 19772, Note_on_c, 1, 29, 105
3, 19828, Note_on_c, 1, 29, 0
3, 19968, Note_on_c, 1, 29, 114
3, 20396, Note_on_c, 1, 29, 0
3, 20540, Note_on_c, 1, 29, 111
3, 20716, Note_on_c, 1, 29, 0
3, 20740, Note_on_c, 1, 31, 108
3, 21124, Note_on_c, 1, 31, 0
3, 21124, Note_on_c, 1, 33, 108
3, 21444, Note_on_c, 1, 33, 0
3, 21512, Note_on_c, 1, 34, 103
3, 21972, Note_on_c, 1, 34, 0
3, 22088, Note_on_c, 1, 34, 112
3, 22172, Note_on_c, 1, 34, 0
3, 22280, Note_on_c, 1, 34, 116
3, 22356, Note_on_c, 1, 34, 0
3, 22460, Note_on_c, 1, 34, 102
3, 22644, Note_on_c, 1, 34, 0
3, 22652, Note_on_c, 1, 33, 107
3, 22844, Note_on_c, 1, 33, 0
3, 22844, Note_on_c, 1, 31, 106
3, 23024, Note_on_c, 1, 31, 0
3, 23044, Note_on_c, 1, 36, 96
3, 23552, Note_on_c, 1, 36, 0
3, 23612, Note_on_c, 1, 36, 103
3, 23704, Note_on_c, 1, 36, 0
3, 23804, Note_on_c, 1, 36, 112
3, 24244, Note_on_c, 1, 36, 0
3, 24372, Note_on_c, 1, 36, 105
3, 24552, Note_on_c, 1, 36, 0
3, 24572, Note_on_c, 1, 34, 101
3, 25028, Note_on_c, 1, 34, 0
3, 25148, Note_on_c, 1, 34, 105
3, 25224, Note_on_c, 1, 34, 0
3, 25340, Note_on_c, 1, 34, 110
3, 25784, Note_on_c, 1, 34, 0
3, 25912, Note_on_c, 1, 34, 105
3, 26036, Note_on_c, 1, 34, 0
3, 26108, Note_on_c, 1, 36, 105
3, 26556, Note_on_c, 1, 36, 0
3, 26680, Note_on_c, 1, 36, 105
3, 26760, Note_on_c, 1, 36, 0
3, 26872, Note_on_c, 1, 36, 107
3, 26976, Note_on_c, 1, 36, 0
3, 27064, Note_on_c, 1, 36, 107
3, 27196, Note_on_c, 1, 36, 0
3, 27256, Note_on_c, 1, 34, 109
3, 27344, Note_on_c, 1, 34, 0
3, 27352, Note_on_c, 1, 33, 100
3, 27444, Note_on_c, 1, 33, 0
3, 27444, Note_on_c, 1, 31, 104
3, 27636, Note_on_c, 1, 31, 0
3, 27656, Note_on_c, 1, 29, 115
3, 28080, Note_on_c, 1, 29, 0
3, 28216, Note_on_c, 1, 29, 106
3, 28280, Note_on_c, 1, 29, 0
3, 28412, Note_on_c, 1, 29, 115
3, 29036, Note_on_c, 1, 29, 0
3, 29172, Note_on_c, 1, 29, 107
3, 29672, Note_on_c, 1, 29, 0
3, 29752, Note_on_c, 1, 29, 101
3, 29824, Note_on_c, 1, 29, 0
3, 29948, Note_on_c, 1, 29, 110
3, 30556, Note_on_c, 1, 29, 0
3, 30712, Note_on_c, 1, 29, 109
3, 31164, Note_on_c, 1, 29, 0
3, 31284, Note_on_c, 1, 29, 105
3, 31352, Note_on_c, 1, 29, 0
3, 31484, Note_on_c, 1, 29, 111
3, 32072, Note_on_c, 1, 29, 0
3, 32244, Note_on_c, 1, 29, 111
3, 32584, Note_on_c, 1, 29, 0
3, 32644, Note_on_c, 1, 29, 105
3, 32748, Note_on_c, 1, 29, 0
3, 32828, Note_on_c, 1, 29, 107
3, 32956, Note_on_c, 1, 29, 0
3, 33028, Note_on_c, 1, 36, 111
3, 33212, Pitch_bend_c, 1, 8543
3, 33224, Pitch_bend_c, 1, 12287
3, 33240, Pitch_bend_c, 1, 15329
3, 33252, Pitch_bend_c, 1, 16383
3, 33384, Pitch_bend_c, 1, 16382
3, 33400, Pitch_bend_c, 1, 13808
3, 33408, Pitch_bend_c, 1, 8894
3, 33428, Pitch_bend_c, 1, 8192
3, 33580, Note_on_c, 1, 36, 0
3, 33588, Note_on_c, 1, 34, 100
3, 33660, Note_on_c, 1, 34, 0
3, 33784, Note_on_c, 1, 34, 110
3, 34288, Note_on_c, 1, 34, 0
3, 34360, Note_on_c, 1, 34, 96
3, 34428, Note_on_c, 1, 34, 0
3, 34556, Note_on_c, 1, 34, 113
3, 34660, Note_on_c, 1, 34, 0
3, 34748, Note_on_c, 1, 34, 108
3, 34940, Note_on_c, 1, 34, 0
3, 34940, Note_on_c, 1, 33, 103
3, 35124, Note_on_c, 1, 33, 0
3, 35124, Note_on_c, 1, 31, 103
3, 35320, Note_on_c, 1, 31, 0
3, 35320, Note_on_c, 1, 36, 103
3, 36016, Note_on_c, 1, 36, 0
3, 36104, Note_on_c, 1, 36, 109
3, 36208, Note_on_c, 1, 36, 0
3, 36284, Note_on_c, 1, 36, 113
3, 36564, Note_on_c, 1, 36, 0
3, 36668, Note_on_c, 1, 36, 107
3, 36832, Note_on_c, 1, 36, 0
3, 36860, Note_on_c, 1, 34, 102
3, 37348, Note_on_c, 1, 34, 0
3, 37436, Note_on_c, 1, 34, 99
3, 37516, Note_on_c, 1, 34, 0
3, 37628, Note_on_c, 1, 34, 109
3, 37716, Note_on_c, 1, 34, 0
3, 37816, Note_on_c, 1, 34, 109
3, 38004, Note_on_c, 1, 34, 0
3, 38004, Note_on_c, 1, 33, 102
3, 38196, Note_on_c, 1, 33, 0
3, 38196, Note_on_c, 1, 31, 106
3, 38392, Note_on_c, 1, 31, 0
3, 38392, Note_on_c, 1, 36, 104
3, 38860, Note_on_c, 1, 36, 0
3, 38964, Note_on_c, 1, 36, 100
3, 39052, Note_on_c, 1, 36, 0
3, 39164, Note_on_c, 1, 36, 113
3, 39280, Note_on_c, 1, 36, 0
3, 39352, Note_on_c, 1, 36, 113
3, 39616, Note_on_c, 1, 36, 0
3, 39732, Note_on_c, 1, 36, 107
3, 39900, Note_on_c, 1, 36, 0
3, 39932, Note_on_c, 1, 34, 106
3, 40448, Note_on_c, 1, 34, 0
3, 40696, Note_on_c, 1, 34, 109
3, 40792, Note_on_c, 1, 34, 0
3, 40884, Note_on_c, 1, 34, 109
3, 41052, Note_on_c, 1, 34, 0
3, 41080, Note_on_c, 1, 33, 104
3, 41264, Note_on_c, 1, 33, 0
3, 41264, Note_on_c, 1, 31, 105
3, 41456, Note_on_c, 1, 31, 0
3, 41464, Note_on_c, 1, 36, 107
3, 41976, Note_on_c, 1, 36, 0
3, 42236, Note_on_c, 1, 36, 114
3, 42532, Note_on_c, 1, 36, 0
3, 42616, Note_on_c, 1, 36, 108
3, 42960, Note_on_c, 1, 36, 0
3, 43000, Note_on_c, 1, 29, 109
3, 43476, Note_on_c, 1, 29, 0
3, 43584, Note_on_c, 1, 29, 105
3, 43652, Note_on_c, 1, 29, 0
3, 43780, Note_on_c, 1, 29, 111
3, 44392, Note_on_c, 1, 29, 0
3, 44536, Note_on_c, 1, 29, 108
3, 44996, Note_on_c, 1, 29, 0
3, 45112, Note_on_c, 1, 29, 103
3, 45200, Note_on_c, 1, 29, 0
3, 45308, Note_on_c, 1, 29, 113
3, 45932, Note_on_c, 1, 29, 0
3, 46072, Note_on_c, 1, 29, 107
3, 46576, Note_on_c, 1, 29, 0
3, 46648, Note_on_c, 1, 29, 98
3, 46720, Note_on_c, 1, 29, 0
3, 46852, Note_on_c, 1, 29, 111
3, 47440, Note_on_c, 1, 29, 0
3, 47604, Note_on_c, 1, 29, 107
3, 48080, Note_on_c, 1, 29, 0
3, 48184, Note_on_c, 1, 29, 103
3, 48280, Note_on_c, 1, 29, 0
3, 48380, Note_on_c, 1, 31, 107
3, 48496, Note_on_c, 1, 31, 0
3, 48568, Note_on_c, 1, 31, 106
3, 48744, Note_on_c, 1, 31, 0
3, 48764, Note_on_c, 1, 33, 110
3, 48904, Note_on_c, 1, 33, 0
3, 48964, Note_on_c, 1, 33, 105
3, 49120, Note_on_c, 1, 33, 0
3, 49160, Note_on_c, 1, 34, 108
3, 49628, Note_on_c, 1, 34, 0
3, 49728, Note_on_c, 1, 34, 98
3, 49828, Note_on_c, 1, 34, 0
3, 49924, Note_on_c, 1, 34, 107
3, 50032, Note_on_c, 1, 34, 0
3, 50120, Note_on_c, 1, 34, 107
3, 50268, Note_on_c, 1, 34, 0
3, 50304, Note_on_c, 1, 33, 106
3, 50492, Note_on_c, 1, 33, 0
3, 50492, Note_on_c, 1, 31, 104
3, 50636, Note_on_c, 1, 31, 0
3, 50684, Note_on_c, 1, 36, 102
3, 51140, Note_on_c, 1, 36, 0
3, 51248, Note_on_c, 1, 36, 101
3, 51340, Note_on_c, 1, 36, 0
3, 51448, Note_on_c, 1, 36, 110
3, 51884, Note_on_c, 1, 36, 0
3, 52024, Note_on_c, 1, 36, 105
3, 52156, Note_on_c, 1, 36, 0
3, 52236, Note_on_c, 1, 34, 108
3, 52772, Note_on_c, 1, 34, 0
3, 52996, Note_on_c, 1, 34, 110
3, 53416, Note_on_c, 1, 34, 0
3, 53556, Note_on_c, 1, 34, 110
3, 53716, Note_on_c, 1, 34, 0
3, 53756, Note_on_c, 1, 36, 103
3, 54208, Note_on_c, 1, 36, 0
3, 54328, Note_on_c, 1, 36, 100
3, 54428, Note_on_c, 1, 36, 0
3, 54520, Note_on_c, 1, 36, 104
3, 54628, Note_on_c, 1, 36, 0
3, 54712, Note_on_c, 1, 36, 105
3, 54828, Note_on_c, 1, 36, 0
3, 54904, Note_on_c, 1, 34, 109
3, 54996, Note_on_c, 1, 34, 0
3, 55000, Note_on_c, 1, 33, 99
3, 55112, Note_on_c, 1, 33, 0
3, 55112, Note_on_c, 1, 31, 108
3, 55284, Note_on_c, 1, 31, 0
3, 55296, Note_on_c, 1, 29, 115
3, 55740, Note_on_c, 1, 29, 0
3, 55868, Note_on_c, 1, 29, 106
3, 55944, Note_on_c, 1, 29, 0
3, 56056, Note_on_c, 1, 29, 107
3, 56540, Note_on_c, 1, 29, 0
3, 56644, Note_on_c, 1, 29, 106
3, 56712, Note_on_c, 1, 29, 0
3, 56836, Note_on_c, 1, 29, 111
3, 57280, Note_on_c, 1, 29, 0
3, 57404, Note_on_c, 1, 29, 102
3, 57472, Note_on_c, 1, 29, 0
3, 57596, Note_on_c, 1, 29, 107
3, 58024, Note_on_c, 1, 29, 0
3, 58168, Note_on_c, 1, 29, 103
3, 58232, Note_on_c, 1, 29, 0
3, 58368, Note_on_c, 1, 29, 109
3, 58812, Note_on_c, 1, 29, 0
3, 58932, Note_on_c, 1, 29, 100
3, 59008, Note_on_c, 1, 29, 0
3, 59128, Note_on_c, 1, 29, 107
3, 59220, Note_on_c, 1, 29, 0
3, 59320, Note_on_c, 1, 29, 109
3, 59608, Note_on_c, 1, 29, 0
3, 59708, Note_on_c, 1, 29, 104
3, 59776, Note_on_c, 1, 29, 0
3, 59900, Note_on_c, 1, 29, 110
3, 60336, Note_on_c, 1, 29, 0
3, 60476, Note_on_c, 1, 29, 106
3, 60616, Note_on_c, 1, 29, 0
3, 60664, Note_on_c, 1, 31, 107
3, 61052, Note_on_c, 1, 31, 0
3, 61052, Note_on_c, 1, 33, 103
3, 61164, Note_on_c, 1, 33, 0
3, 61232, Note_on_c, 1, 33, 100
3, 61328, Note_on_c, 1, 33, 0
3, 61432, Note_on_c, 1, 34, 99
3, 61968, Note_on_c, 1, 34, 0
3, 62024, Note_on_c, 1, 34, 101
3, 62108, Note_on_c, 1, 34, 0
3, 62212, Note_on_c, 1, 34, 108
3, 62672, Note_on_c, 1, 34, 0
3, 62772, Note_on_c, 1, 34, 99
3, 62908, Note_on_c, 1, 34, 0
3, 62972, Note_on_c, 1, 36, 102
3, 63416, Note_on_c, 1, 36, 0
3, 63540, Note_on_c, 1, 36, 99
3, 63628, Note_on_c, 1, 36, 0
3, 63736, Note_on_c, 1, 36, 103
3, 64144, Note_on_c, 1, 36, 0
3, 64304, Note_on_c, 1, 36, 99
3, 64436, Note_on_c, 1, 36, 0
3, 64508, Note_on_c, 1, 34, 107
3, 64936, Note_on_c, 1, 34, 0
3, 65080, Note_on_c, 1, 34, 100
3, 65156, Note_on_c, 1, 34, 0
3, 65268, Note_on_c, 1, 34, 106
3, 65460, Note_on_c, 1, 34, 0
3, 65460, Note_on_c, 1, 36, 107
3, 65652, Note_on_c, 1, 36, 0
3, 65656, Note_on_c, 1, 38, 102
3, 65964, Note_on_c, 1, 38, 0
3, 66048, Note_on_c, 1, 36, 107
3, 66508, Note_on_c, 1, 36, 0
3, 66624, Note_on_c, 1, 36, 104
3, 66708, Note_on_c, 1, 36, 0
3, 66812, Note_on_c, 1, 36, 107
3, 66912, Note_on_c, 1, 36, 0
3, 67004, Note_on_c, 1, 36, 107
3, 67232, Note_on_c, 1, 36, 0
3, 67384, Note_on_c, 1, 36, 106
3, 67528, Note_on_c, 1, 36, 0
3, 67576, Note_on_c, 1, 29, 97
3, 68036, Note_on_c, 1, 29, 0
3, 68152, Note_on_c, 1, 29, 104
3, 68232, Note_on_c, 1, 29, 0
3, 68344, Note_on_c, 1, 29, 107
3, 68900, Note_on_c, 1, 29, 0
3, 69112, Note_on_c, 1, 29, 109
3, 69500, Note_on_c, 1, 29, 0
3, 69680, Note_on_c, 1, 29, 102
3, 69756, Note_on_c, 1, 29, 0
3, 69880, Note_on_c, 1, 29, 110
3, 70312, Note_on_c, 1, 29, 0
3, 70456, Note_on_c, 1, 29, 107
3, 70520, Note_on_c, 1, 29, 0
3, 70648, Note_on_c, 1, 29, 107
3, 71116, Note_on_c, 1, 29, 0
3, 71220, Note_on_c, 1, 29, 102
3, 71292, Note_on_c, 1, 29, 0
3, 71412, Note_on_c, 1, 29, 106
3, 72036, Note_on_c, 1, 29, 0
3, 72180, Note_on_c, 1, 29, 113
3, 72456, Note_on_c, 1, 29, 0
3, 72572, Note_on_c, 1, 29, 113
3, 72864, Note_on_c, 1, 29, 0
3, 72964, Note_on_c, 1, 36, 112
3, 73140, Pitch_bend_c, 1, 9830
3, 73152, Pitch_bend_c, 1, 12521
3, 73164, Pitch_bend_c, 1, 14627
3, 73180, Pitch_bend_c, 1, 16148
3, 73192, Pitch_bend_c, 1, 16383
3, 73312, Pitch_bend_c, 1, 14861
3, 73328, Pitch_bend_c, 1, 10298
3, 73340, Pitch_bend_c, 1, 8192
3, 73588, Note_on_c, 1, 36, 0
3, 73724, Note_on_c, 1, 34, 108
3, 74184, Note_on_c, 1, 34, 0
3, 74304, Note_on_c, 1, 34, 105
3, 74364, Note_on_c, 1, 34, 0
3, 74492, Note_on_c, 1, 34, 115
3, 74848, Note_on_c, 1, 34, 0
3, 74876, Note_on_c, 1, 33, 102
3, 75064, Note_on_c, 1, 33, 0
3, 75064, Note_on_c, 1, 31, 99
3, 75228, Note_on_c, 1, 31, 0
3, 75260, Note_on_c, 1, 36, 101
3, 75712, Note_on_c, 1, 36, 0
3, 75832, Note_on_c, 1, 36, 100
3, 75904, Note_on_c, 1, 36, 0
3, 76032, Note_on_c, 1, 36, 108
3, 76440, Note_on_c, 1, 36, 0
3, 76604, Note_on_c, 1, 36, 105
3, 76704, Note_on_c, 1, 36, 0
3, 76804, Note_on_c, 1, 34, 109
3, 77248, Note_on_c, 1, 34, 0
3, 77372, Note_on_c, 1, 34, 96
3, 77444, Note_on_c, 1, 34, 0
3, 77572, Note_on_c, 1, 34, 113
3, 77760, Note_on_c, 1, 34, 0
3, 77760, Note_on_c, 1, 33, 104
3, 77932, Note_on_c, 1, 33, 0
3, 77948, Note_on_c, 1, 34, 112
3, 78136, Note_on_c, 1, 34, 0
3, 78140, Note_on_c, 1, 31, 104
3, 78320, Note_on_c, 1, 31, 0
3, 78332, Note_on_c, 1, 36, 100
3, 78764, Note_on_c, 1, 36, 0
3, 78908, Note_on_c, 1, 36, 106
3, 78996, Note_on_c, 1, 36, 0
3, 79096, Note_on_c, 1, 36, 108
3, 79188, Note_on_c, 1, 36, 0
3, 79288, Note_on_c, 1, 36, 107
3, 79432, Note_on_c, 1, 36, 0
3, 79480, Note_on_c, 1, 34, 109
3, 79668, Note_on_c, 1, 34, 0
3, 79668, Note_on_c, 1, 33, 102
3, 79820, Note_on_c, 1, 33, 0
3, 79876, Note_on_c, 1, 34, 109
3, 80324, Note_on_c, 1, 34, 0
3, 80444, Note_on_c, 1, 34, 102
3, 80512, Note_on_c, 1, 34, 0
3, 80640, Note_on_c, 1, 34, 108
3, 81052, Note_on_c, 1, 34, 0
3, 81212, Note_on_c, 1, 34, 106
3, 81308, Note_on_c, 1, 34, 0
3, 81408, Note_on_c, 1, 36, 107
3, 81808, Note_on_c, 1, 36, 0
3, 81976, Note_on_c, 1, 36, 109
3, 82052, Note_on_c, 1, 36, 0
3, 82168, Note_on_c, 1, 36, 116
3, 82476, Note_on_c, 1, 36, 0
3, 82556, Note_on_c, 1, 36, 111
3, 82820, Note_on_c, 1, 36, 0
3, 82940, Note_on_c, 1, 29, 103
3, 83408, Note_on_c, 1, 29, 0
3, 83516, Note_on_c, 1, 29, 95
3, 83620, Note_on_c, 1, 29, 0
3, 83708, Note_on_c, 1, 29, 100
3, 83840, Note_on_c, 1, 29, 0
3, 83904, Note_on_c, 1, 29, 99
3, 84028, Note_on_c, 1, 29, 0
3, 84092, Note_on_c, 1, 29, 101
3, 84216, Note_on_c, 1, 29, 0
3, 84288, Note_on_c, 1, 29, 99
3, 84404, Note_on_c, 1, 29, 0
3, 84476, Note_on_c, 1, 29, 101
3, 84600, Note_on_c, 1, 29, 0
3, 84664, Note_on_c, 1, 29, 99
3, 84800, Note_on_c, 1, 29, 0
3, 84864, Note_on_c, 1, 29, 103
3, 85184, Note_on_c, 1, 29, 0
3, 85248, Note_on_c, 1, 29, 96
3, 85348, Note_on_c, 1, 29, 0
3, 85432, Note_on_c, 1, 29, 97
3, 85548, Note_on_c, 1, 29, 0
3, 85628, Note_on_c, 1, 29, 103
3, 85952, Note_on_c, 1, 29, 0
3, 86012, Note_on_c, 1, 29, 94
3, 86104, Note_on_c, 1, 29, 0
3, 86200, Note_on_c, 1, 29, 97
3, 86312, Note_on_c, 1, 29, 0
3, 86396, Note_on_c, 1, 29, 105
3, 86728, Note_on_c, 1, 29, 0
3, 86792, Note_on_c, 1, 29, 95
3, 86876, Note_on_c, 1, 29, 0
3, 86976, Note_on_c, 1, 29, 96
3, 87072, Note_on_c, 1, 29, 0
3, 87168, Note_on_c, 1, 29, 106
3, 87496, Note_on_c, 1, 29, 0
3, 87560, Note_on_c, 1, 29, 91
3, 87640, Note_on_c, 1, 29, 0
3, 87740, Note_on_c, 1, 29, 96
3, 87844, Note_on_c, 1, 29, 0
3, 87932, Note_on_c, 1, 29, 105
3, 88244, Note_on_c, 1, 29, 0
3, 88312, Note_on_c, 1, 29, 99
3, 88412, Note_on_c, 1, 29, 0
3, 88504, Note_on_c, 1, 29, 107
3, 88680, Note_on_c, 1, 29, 0
3, 88692, Note_on_c, 1, 31, 104
3, 88884, Note_on_c, 1, 31, 0
3, 88884, Note_on_c, 1, 35, 102
3, 89048, Note_on_c, 1, 35, 0
3, 89080, Note_on_c, 1, 38, 101
3, 89220, Note_on_c, 1, 38, 0
3, 89272, Note_on_c, 1, 38, 94
3, 89396, Note_on_c, 1, 38, 0
3, 89472, Note_on_c, 1, 38, 99
3, 89600, Note_on_c, 1, 38, 0
3, 89660, Note_on_c, 1, 38, 97
3, 89768, Note_on_c, 1, 38, 0
3, 89848, Note_on_c, 1, 38, 102
3, 89964, Note_on_c, 1, 38, 0
3, 90044, Note_on_c, 1, 38, 100
3, 90160, Note_on_c, 1, 38, 0
3, 90236, Note_on_c, 1, 38, 100
3, 90360, Note_on_c, 1, 38, 0
3, 90428, Note_on_c, 1, 38, 96
3, 90548, Note_on_c, 1, 38, 0
3, 90624, Note_on_c, 1, 38, 102
3, 90756, Note_on_c, 1, 38, 0
3, 90820, Note_on_c, 1, 38, 100
3, 90944, Note_on_c, 1, 38, 0
3, 91012, Note_on_c, 1, 38, 102
3, 91140, Note_on_c, 1, 38, 0
3, 91204, Note_on_c, 1, 38, 99
3, 91316, Note_on_c, 1, 38, 0
3, 91392, Note_on_c, 1, 38, 102
3, 91512, Note_on_c, 1, 38, 0
3, 91584, Note_on_c, 1, 38, 100
3, 91696, Note_on_c, 1, 38, 0
3, 91772, Note_on_c, 1, 38, 104
3, 91892, Note_on_c, 1, 38, 0
3, 91964, Note_on_c, 1, 38, 104
3, 92084, Note_on_c, 1, 38, 0
3, 92156, Note_on_c, 1, 36, 105
3, 92264, Note_on_c, 1, 36, 0
3, 92348, Note_on_c, 1, 36, 105
3, 92468, Note_on_c, 1, 36, 0
3, 92556, Note_on_c, 1, 36, 104
3, 92676, Note_on_c, 1, 36, 0
3, 92744, Note_on_c, 1, 36, 100
3, 92860, Note_on_c, 1, 36, 0
3, 92932, Note_on_c, 1, 36, 99
3, 93048, Note_on_c, 1, 36, 0
3, 93124, Note_on_c, 1, 36, 102
3, 93228, Note_on_c, 1, 36, 0
3, 93312, Note_on_c, 1, 36, 103
3, 93428, Note_on_c, 1, 36, 0
3, 93500, Note_on_c, 1, 36, 101
3, 93600, Note_on_c, 1, 36, 0
3, 93688, Note_on_c, 1, 36, 98
3, 93816, Note_on_c, 1, 36, 0
3, 93880, Note_on_c, 1, 36, 96
3, 93992, Note_on_c, 1, 36, 0
3, 94076, Note_on_c, 1, 36, 100
3, 94192, Note_on_c, 1, 36, 0
3, 94268, Note_on_c, 1, 36, 102
3, 94376, Note_on_c, 1, 36, 0
3, 94456, Note_on_c, 1, 36, 105
3, 94568, Note_on_c, 1, 36, 0
3, 94648, Note_on_c, 1, 36, 104
3, 94780, Note_on_c, 1, 36, 0
3, 94836, Note_on_c, 1, 33, 108
3, 95004, Note_on_c, 1, 33, 0
3, 95024, Note_on_c, 1, 31, 104
3, 95184, Note_on_c, 1, 31, 0
3, 95220, Note_on_c, 1, 29, 104
3, 95352, Note_on_c, 1, 29, 0
3, 95416, Note_on_c, 1, 29, 100
3, 95544, Note_on_c, 1, 29, 0
3, 95612, Note_on_c, 1, 29, 97
3, 95732, Note_on_c, 1, 29, 0
3, 95800, Note_on_c, 1, 29, 97
3, 95912, Note_on_c, 1, 29, 0
3, 95992, Note_on_c, 1, 29, 101
3, 96112, Note_on_c, 1, 29, 0
3, 96184, Note_on_c, 1, 29, 100
3, 96296, Note_on_c, 1, 29, 0
3, 96376, Note_on_c, 1, 29, 99
3, 96488, Note_on_c, 1, 29, 0
3, 96564, Note_on_c, 1, 29, 102
3, 96668, Note_on_c, 1, 29, 0
3, 96760, Note_on_c, 1, 29, 105
3, 96876, Note_on_c, 1, 29, 0
3, 96956, Note_on_c, 1, 29, 100
3, 97060, Note_on_c, 1, 29, 0
3, 97148, Note_on_c, 1, 29, 100
3, 97244, Note_on_c, 1, 29, 0
3, 97332, Note_on_c, 1, 29, 100
3, 97460, Note_on_c, 1, 29, 0
3, 97524, Note_on_c, 1, 31, 105
3, 97636, Note_on_c, 1, 31, 0
3, 97716, Note_on_c, 1, 31, 105
3, 97852, Note_on_c, 1, 31, 0
3, 97908, Note_on_c, 1, 33, 106
3, 98020, Note_on_c, 1, 33, 0
3, 98100, Note_on_c, 1, 33, 106
3, 98240, Note_on_c, 1, 33, 0
3, 98296, Note_on_c, 1, 34, 99
3, 98424, Note_on_c, 1, 34, 0
3, 98492, Note_on_c, 1, 34, 101
3, 98604, Note_on_c, 1, 34, 0
3, 98680, Note_on_c, 1, 34, 99
3, 98808, Note_on_c, 1, 34, 0
3, 98876, Note_on_c, 1, 34, 97
3, 98984, Note_on_c, 1, 34, 0
3, 99072, Note_on_c, 1, 34, 103
3, 99176, Note_on_c, 1, 34, 0
3, 99260, Note_on_c, 1, 34, 101
3, 99360, Note_on_c, 1, 34, 0
3, 99452, Note_on_c, 1, 34, 103
3, 99560, Note_on_c, 1, 34, 0
3, 99640, Note_on_c, 1, 34, 98
3, 99752, Note_on_c, 1, 34, 0
3, 99836, Note_on_c, 1, 34, 103
3, 99948, Note_on_c, 1, 34, 0
3, 100024, Note_on_c, 1, 34, 99
3, 100120, Note_on_c, 1, 34, 0
3, 100216, Note_on_c, 1, 34, 101
3, 100312, Note_on_c, 1, 34, 0
3, 100404, Note_on_c, 1, 34, 102
3, 100500, Note_on_c, 1, 34, 0
3, 100600, Note_on_c, 1, 34, 105
3, 100712, Note_on_c, 1, 34, 0
3, 100792, Note_on_c, 1, 34, 98
3, 100908, Note_on_c, 1, 34, 0
3, 100980, Note_on_c, 1, 36, 98
3, 101104, Note_on_c, 1, 36, 0
3, 101172, Note_on_c, 1, 36, 100
3, 101296, Note_on_c, 1, 36, 0
3, 101368, Note_on_c, 1, 38, 103
3, 101500, Note_on_c, 1, 38, 0
3, 101568, Note_on_c, 1, 38, 105
3, 101684, Note_on_c, 1, 38, 0
3, 101764, Note_on_c, 1, 38, 103
3, 101880, Note_on_c, 1, 38, 0
3, 101960, Note_on_c, 1, 38, 102
3, 102064, Note_on_c, 1, 38, 0
3, 102148, Note_on_c, 1, 38, 104
3, 102260, Note_on_c, 1, 38, 0
3, 102344, Note_on_c, 1, 38, 102
3, 102444, Note_on_c, 1, 38, 0
3, 102528, Note_on_c, 1, 38, 103
3, 102648, Note_on_c, 1, 38, 0
3, 102724, Note_on_c, 1, 38, 99
3, 102828, Note_on_c, 1, 38, 0
3, 102912, Note_on_c, 1, 38, 102
3, 103024, Note_on_c, 1, 38, 0
3, 103108, Note_on_c, 1, 38, 100
3, 103200, Note_on_c, 1, 38, 0
3, 103292, Note_on_c, 1, 38, 101
3, 103400, Note_on_c, 1, 38, 0
3, 103484, Note_on_c, 1, 38, 100
3, 103580, Note_on_c, 1, 38, 0
3, 103676, Note_on_c, 1, 38, 102
3, 103780, Note_on_c, 1, 38, 0
3, 103864, Note_on_c, 1, 38, 97
3, 103964, Note_on_c, 1, 38, 0
3, 104060, Note_on_c, 1, 38, 101
3, 104164, Note_on_c, 1, 38, 0
3, 104252, Note_on_c, 1, 38, 99
3, 104348, Note_on_c, 1, 38, 0
3, 104444, Note_on_c, 1, 36, 102
3, 104552, Note_on_c, 1, 36, 0
3, 104636, Note_on_c, 1, 36, 99
3, 104740, Note_on_c, 1, 36, 0
3, 104824, Note_on_c, 1, 36, 102
3, 104928, Note_on_c, 1, 36, 0
3, 105016, Note_on_c, 1, 36, 102
3, 105128, Note_on_c, 1, 36, 0
3, 105208, Note_on_c, 1, 36, 109
3, 105316, Note_on_c, 1, 36, 0
3, 105400, Note_on_c, 1, 36, 102
3, 105508, Note_on_c, 1, 36, 0
3, 105592, Note_on_c, 1, 36, 102
3, 105700, Note_on_c, 1, 36, 0
3, 105784, Note_on_c, 1, 36, 102
3, 105888, Note_on_c, 1, 36, 0
3, 105980, Note_on_c, 1, 36, 104
3, 106096, Note_on_c, 1, 36, 0
3, 106172, Note_on_c, 1, 36, 100
3, 106276, Note_on_c, 1, 36, 0
3, 106364, Note_on_c, 1, 36, 103
3, 106472, Note_on_c, 1, 36, 0
3, 106560, Note_on_c, 1, 36, 102
3, 106660, Note_on_c, 1, 36, 0
3, 106752, Note_on_c, 1, 36, 105
3, 106868, Note_on_c, 1, 36, 0
3, 106948, Note_on_c, 1, 36, 101
3, 107052, Note_on_c, 1, 36, 0
3, 107136, Note_on_c, 1, 36, 108
3, 107276, Note_on_c, 1, 36, 0
3, 107332, Note_on_c, 1, 31, 105
3, 107412, Note_on_c, 1, 31, 0
3, 107520, Note_on_c, 1, 29, 113
3, 107848, Note_on_c, 1, 29, 0
3, 107908, Note_on_c, 1, 29, 105
3, 108032, Note_on_c, 1, 29, 0
3, 108096, Note_on_c, 1, 29, 96
3, 108228, Note_on_c, 1, 29, 0
3, 108288, Note_on_c, 1, 29, 100
3, 108412, Note_on_c, 1, 29, 0
3, 108476, Note_on_c, 1, 29, 100
3, 108600, Note_on_c, 1, 29, 0
3, 108668, Note_on_c, 1, 29, 100
3, 108784, Note_on_c, 1, 29, 0
3, 108860, Note_on_c, 1, 29, 105
3, 108964, Note_on_c, 1, 29, 0
3, 109052, Note_on_c, 1, 29, 113
3, 109348, Note_on_c, 1, 29, 0
3, 109428, Note_on_c, 1, 29, 99
3, 109536, Note_on_c, 1, 29, 0
3, 109620, Note_on_c, 1, 29, 96
3, 109724, Note_on_c, 1, 29, 0
3, 109820, Note_on_c, 1, 29, 100
3, 109928, Note_on_c, 1, 29, 0
3, 110008, Note_on_c, 1, 29, 97
3, 110156, Note_on_c, 1, 29, 0
3, 110200, Note_on_c, 1, 31, 108
3, 110392, Note_on_c, 1, 31, 0
3, 110392, Note_on_c, 1, 33, 107
3, 110492, Note_on_c, 1, 33, 0
3, 110592, Note_on_c, 1, 34, 101
3, 110720, Note_on_c, 1, 34, 0
3, 110776, Note_on_c, 1, 34, 97
3, 110904, Note_on_c, 1, 34, 0
3, 110972, Note_on_c, 1, 34, 94
3, 111084, Note_on_c, 1, 34, 0
3, 111160, Note_on_c, 1, 34, 94
3, 111276, Note_on_c, 1, 34, 0
3, 111356, Note_on_c, 1, 34, 104
3, 111472, Note_on_c, 1, 34, 0
3, 111556, Note_on_c, 1, 34, 101
3, 111668, Note_on_c, 1, 34, 0
3, 111752, Note_on_c, 1, 34, 102
3, 111856, Note_on_c, 1, 34, 0
3, 111944, Note_on_c, 1, 34, 100
3, 112048, Note_on_c, 1, 34, 0
3, 112132, Note_on_c, 1, 34, 102
3, 112244, Note_on_c, 1, 34, 0
3, 112324, Note_on_c, 1, 34, 100
3, 112424, Note_on_c, 1, 34, 0
3, 112508, Note_on_c, 1, 34, 99
3, 112616, Note_on_c, 1, 34, 0
3, 112696, Note_on_c, 1, 34, 99
3, 112808, Note_on_c, 1, 34, 0
3, 112892, Note_on_c, 1, 34, 101
3, 113008, Note_on_c, 1, 34, 0
3, 113080, Note_on_c, 1, 34, 98
3, 113188, Note_on_c, 1, 34, 0
3, 113272, Note_on_c, 1, 34, 100
3, 113388, Note_on_c, 1, 34, 0
3, 113464, Note_on_c, 1, 36, 105
3, 113596, Note_on_c, 1, 36, 0
3, 113664, Note_on_c, 1, 38, 108
3, 113776, Note_on_c, 1, 38, 0
3, 113852, Note_on_c, 1, 38, 107
3, 113960, Note_on_c, 1, 38, 0
3, 114044, Note_on_c, 1, 38, 99
3, 114152, Note_on_c, 1, 38, 0
3, 114240, Note_on_c, 1, 38, 100
3, 114356, Note_on_c, 1, 38, 0
3, 114428, Note_on_c, 1, 38, 99
3, 114544, Note_on_c, 1, 38, 0
3, 114624, Note_on_c, 1, 38, 100
3, 114728, Note_on_c, 1, 38, 0
3, 114816, Note_on_c, 1, 38, 100
3, 114916, Note_on_c, 1, 38, 0
3, 115008, Note_on_c, 1, 38, 107
3, 115112, Note_on_c, 1, 38, 0
3, 115204, Note_on_c, 1, 38, 104
3, 115312, Note_on_c, 1, 38, 0
3, 115392, Note_on_c, 1, 38, 100
3, 115504, Note_on_c, 1, 38, 0
3, 115584, Note_on_c, 1, 38, 101
3, 115696, Note_on_c, 1, 38, 0
3, 115772, Note_on_c, 1, 38, 100
3, 115884, Note_on_c, 1, 38, 0
3, 115964, Note_on_c, 1, 38, 102
3, 116080, Note_on_c, 1, 38, 0
3, 116152, Note_on_c, 1, 38, 100
3, 116256, Note_on_c, 1, 38, 0
3, 116344, Note_on_c, 1, 38, 105
3, 116460, Note_on_c, 1, 38, 0
3, 116536, Note_on_c, 1, 38, 105
3, 116656, Note_on_c, 1, 38, 0
3, 116728, Note_on_c, 1, 36, 108
3, 116832, Note_on_c, 1, 36, 0
3, 116920, Note_on_c, 1, 36, 97
3, 117036, Note_on_c, 1, 36, 0
3, 117112, Note_on_c, 1, 36, 98
3, 117220, Note_on_c, 1, 36, 0
3, 117300, Note_on_c, 1, 36, 99
3, 117408, Note_on_c, 1, 36, 0
3, 117496, Note_on_c, 1, 36, 100
3, 117608, Note_on_c, 1, 36, 0
3, 117684, Note_on_c, 1, 36, 100
3, 117784, Note_on_c, 1, 36, 0
3, 117876, Note_on_c, 1, 36, 102
3, 117984, Note_on_c, 1, 36, 0
3, 118064, Note_on_c, 1, 36, 100
3, 118168, Note_on_c, 1, 36, 0
3, 118260, Note_on_c, 1, 36, 103
3, 118368, Note_on_c, 1, 36, 0
3, 118456, Note_on_c, 1, 36, 103
3, 118560, Note_on_c, 1, 36, 0
3, 118648, Note_on_c, 1, 36, 101
3, 118752, Note_on_c, 1, 36, 0
3, 118840, Note_on_c, 1, 36, 102
3, 118952, Note_on_c, 1, 36, 0
3, 119032, Note_on_c, 1, 36, 103
3, 119136, Note_on_c, 1, 36, 0
3, 119224, Note_on_c, 1, 36, 105
3, 119336, Note_on_c, 1, 36, 0
3, 119416, Note_on_c, 1, 36, 107
3, 119540, Note_on_c, 1, 36, 0
3, 119608, Note_on_c, 1, 31, 107
3, 119704, Note_on_c, 1, 31, 0
3, 119800, Note_on_c, 1, 29, 112
3, 120216, Note_on_c, 1, 29, 0
3, 120376, Note_on_c, 1, 29, 109
3, 120444, Note_on_c, 1, 29, 0
3, 120568, Note_on_c, 1, 29, 110
3, 120984, Note_on_c, 1, 29, 0
3, 121328, Note_on_c, 1, 29, 105
3, 121784, Note_on_c, 1, 29, 0
3, 121908, Note_on_c, 1, 29, 103
3, 121976, Note_on_c, 1, 29, 0
3, 122104, Note_on_c, 1, 29, 109
3, 122532, Note_on_c, 1, 29, 0
3, 122680, Note_on_c, 1, 29, 105
3, 122740, Note_on_c, 1, 29, 0
3, 122880, Note_on_c, 1, 29, 110
3, 123280, Note_on_c, 1, 29, 0
3, 123448, Note_on_c, 1, 29, 106
3, 123500, Note_on_c, 1, 29, 0
3, 123644, Note_on_c, 1, 29, 107
3, 124036, Note_on_c, 1, 29, 0
3, 124216, Note_on_c, 1, 29, 105
3, 124272, Note_on_c, 1, 29, 0
3, 124412, Note_on_c, 1, 29, 109
3, 124948, Note_on_c, 1, 29, 0
3, 125192, Note_on_c, 1, 29, 108
3, 125272, Note_on_c, 1, 29, 0
3, 125368, Note_on_c, 1, 29, 104
3, 125520, Note_on_c, 1, 29, 0
3, 125564, Note_on_c, 1, 31, 105
3, 125752, Note_on_c, 1, 31, 0
3, 125752, Note_on_c, 1, 33, 106
3, 125872, Note_on_c, 1, 33, 0
3, 125952, Note_on_c, 1, 34, 102
3, 126392, Note_on_c, 1, 34, 0
3, 126524, Note_on_c, 1, 34, 106
3, 126612, Note_on_c, 1, 34, 0
3, 126724, Note_on_c, 1, 34, 110
3, 127052, Note_on_c, 1, 34, 0
3, 127104, Note_on_c, 1, 33, 100
3, 127288, Note_on_c, 1, 33, 0
3, 127288, Note_on_c, 1, 31, 104
3, 127424, Note_on_c, 1, 31, 0
3, 127484, Note_on_c, 1, 36, 108
3, 127936, Note_on_c, 1, 36, 0
3, 128056, Note_on_c, 1, 36, 103
3, 128128, Note_on_c, 1, 36, 0
3, 128256, Note_on_c, 1, 36, 110
3, 128704, Note_on_c, 1, 36, 0
3, 128828, Note_on_c, 1, 36, 104
3, 128940, Note_on_c, 1, 36, 0
3, 129024, Note_on_c, 1, 34, 107
3, 129484, Note_on_c, 1, 34, 0
3, 129604, Note_on_c, 1, 34, 102
3, 129668, Note_on_c, 1, 34, 0
3, 129792, Note_on_c, 1, 34, 112
3, 129888, Note_on_c, 1, 34, 0
3, 129976, Note_on_c, 1, 34, 106
3, 130136, Note_on_c, 1, 34, 0
3, 130168, Note_on_c, 1, 33, 107
3, 130352, Note_on_c, 1, 33, 0
3, 130356, Note_on_c, 1, 31, 103
3, 130536, Note_on_c, 1, 31, 0
3, 130556, Note_on_c, 1, 36, 106
3, 131180, Note_on_c, 1, 36, 0
3, 131320, Note_on_c, 1, 36, 108
3, 131432, Note_on_c, 1, 36, 0
3, 131512, Note_on_c, 1, 36, 106
3, 131688, Note_on_c, 1, 36, 0
3, 131708, Note_on_c, 1, 33, 110
3, 131896, Note_on_c, 1, 33, 0
3, 131896, Note_on_c, 1, 31, 105
3, 132012, Note_on_c, 1, 31, 0
3, 132096, Note_on_c, 1, 29, 109
3, 132524, Note_on_c, 1, 29, 0
3, 132664, Note_on_c, 1, 29, 108
3, 132728, Note_on_c, 1, 29, 0
3, 132860, Note_on_c, 1, 29, 110
3, 133272, Note_on_c, 1, 29, 0
3, 133432, Note_on_c, 1, 29, 108
3, 133496, Note_on_c, 1, 29, 0
3, 133628, Note_on_c, 1, 29, 109
3, 134228, Note_on_c, 1, 29, 0
3, 134396, Note_on_c, 1, 29, 113
3, 134832, Note_on_c, 1, 29, 0
3, 134972, Note_on_c, 1, 29, 106
3, 135032, Note_on_c, 1, 29, 0
3, 135172, Note_on_c, 1, 29, 111
3, 135608, Note_on_c, 1, 29, 0
3, 135736, Note_on_c, 1, 29, 104
3, 135800, Note_on_c, 1, 29, 0
3, 135932, Note_on_c, 1, 29, 111
3, 136548, Note_on_c, 1, 29, 0
3, 136700, Note_on_c, 1, 29, 109
3, 137112, Note_on_c, 1, 29, 0
3, 137272, Note_on_c, 1, 29, 108
3, 137336, Note_on_c, 1, 29, 0
3, 137468, Note_on_c, 1, 29, 108
3, 137536, Note_on_c, 1, 29, 0
3, 137652, Note_on_c, 1, 29, 103
3, 137780, Note_on_c, 1, 29, 0
3, 137848, Note_on_c, 1, 31, 107
3, 138000, Note_on_c, 1, 31, 0
3, 138040, Note_on_c, 1, 33, 104
3, 138128, Note_on_c, 1, 33, 0
3, 138236, Note_on_c, 1, 34, 104
3, 138676, Note_on_c, 1, 34, 0
3, 138812, Note_on_c, 1, 34, 106
3, 138884, Note_on_c, 1, 34, 0
3, 139004, Note_on_c, 1, 34, 108
3, 139100, Note_on_c, 1, 34, 0
3, 139192, Note_on_c, 1, 34, 105
3, 139340, Note_on_c, 1, 34, 0
3, 139384, Note_on_c, 1, 33, 107
3, 139572, Note_on_c, 1, 33, 0
3, 139572, Note_on_c, 1, 31, 105
3, 139724, Note_on_c, 1, 31, 0
3, 139764, Note_on_c, 1, 36, 104
3, 140112, Note_on_c, 1, 36, 0
3, 140160, Note_on_c, 1, 36, 107
3, 140464, Note_on_c, 1, 36, 0
3, 140540, Note_on_c, 1, 36, 105
3, 140648, Note_on_c, 1, 36, 0
3, 140736, Note_on_c, 1, 36, 105
3, 140844, Note_on_c, 1, 36, 0
3, 140928, Note_on_c, 1, 36, 107
3, 141036, Note_on_c, 1, 36, 0
3, 141116, Note_on_c, 1, 36, 107
3, 141256, Note_on_c, 1, 36, 0
3, 141308, Note_on_c, 1, 34, 100
3, 141696, Note_on_c, 1, 34, 0
3, 141872, Note_on_c, 1, 34, 98
3, 141960, Note_on_c, 1, 34, 0
3, 142072, Note_on_c, 1, 34, 106
3, 142488, Note_on_c, 1, 34, 0
3, 142652, Note_on_c, 1, 34, 105
3, 142748, Note_on_c, 1, 34, 0
3, 142844, Note_on_c, 1, 36, 105
3, 143336, Note_on_c, 1, 36, 0
3, 143620, Note_on_c, 1, 36, 103
3, 143996, Note_on_c, 1, 36, 0
3, 144188, Note_on_c, 1, 36, 104
3, 144264, Note_on_c, 1, 36, 0
3, 144380, Note_on_c, 1, 34, 107
3, 144832, Note_on_c, 1, 34, 0
3, 144956, Note_on_c, 1, 34, 103
3, 145028, Note_on_c, 1, 34, 0
3, 145148, Note_on_c, 1, 34, 110
3, 145336, Note_on_c, 1, 34, 0
3, 145344, Note_on_c, 1, 33, 107
3, 145528, Note_on_c, 1, 33, 0
3, 145528, Note_on_c, 1, 31, 103
3, 145728, Note_on_c, 1, 31, 0
3, 145916, Note_on_c, 1, 36, 105
3, 146368, Note_on_c, 1, 36, 0
3, 146492, Note_on_c, 1, 36, 101
3, 146560, Note_on_c, 1, 36, 0
3, 146688, Note_on_c, 1, 36, 106
3, 147072, Note_on_c, 1, 36, 0
3, 147456, Note_on_c, 1, 34, 113
3, 147888, Note_on_c, 1, 34, 0
3, 148024, Note_on_c, 1, 34, 101
3, 148088, Note_on_c, 1, 34, 0
3, 148220, Note_on_c, 1, 34, 115
3, 148408, Note_on_c, 1, 34, 0
3, 148408, Note_on_c, 1, 33, 100
3, 148568, Note_on_c, 1, 33, 0
3, 148600, Note_on_c, 1, 31, 111
3, 148804, Note_on_c, 1, 31, 0
3, 148988, Note_on_c, 1, 36, 103
3, 149428, Note_on_c, 1, 36, 0
3, 149560, Note_on_c, 1, 36, 100
3, 149636, Note_on_c, 1, 36, 0
3, 149752, Note_on_c, 1, 36, 108
3, 149856, Note_on_c, 1, 36, 0
3, 149948, Note_on_c, 1, 36, 105
3, 150140, Note_on_c, 1, 36, 0
3, 150140, Note_on_c, 1, 33, 104
3, 150324, Note_on_c, 1, 33, 0
3, 150324, Note_on_c, 1, 31, 98
3, 150448, Note_on_c, 1, 31, 0
3, 150520, Note_on_c, 1, 29, 107
3, 150940, Note_on_c, 1, 29, 0
3, 151096, Note_on_c, 1, 29, 107
3, 151164, Note_on_c, 1, 29, 0
3, 151288, Note_on_c, 1, 29, 111
3, 151696, Note_on_c, 1, 29, 0
3, 151864, Note_on_c, 1, 29, 101
3, 151920, Note_on_c, 1, 29, 0
3, 152064, Note_on_c, 1, 29, 111
3, 152488, Note_on_c, 1, 29, 0
3, 152628, Note_on_c, 1, 29, 103
3, 152692, Note_on_c, 1, 29, 0
3, 152828, Note_on_c, 1, 29, 109
3, 153232, Note_on_c, 1, 29, 0
3, 153400, Note_on_c, 1, 29, 107
3, 153468, Note_on_c, 1, 29, 0
3, 153604, Note_on_c, 1, 29, 112
3, 154044, Note_on_c, 1, 29, 0
3, 154168, Note_on_c, 1, 29, 105
3, 154228, Note_on_c, 1, 29, 0
3, 154368, Note_on_c, 1, 29, 109
3, 154752, Note_on_c, 1, 29, 0
3, 154936, Note_on_c, 1, 29, 105
3, 155000, Note_on_c, 1, 29, 0
3, 155128, Note_on_c, 1, 29, 108
3, 155524, Note_on_c, 1, 29, 0
3, 155700, Note_on_c, 1, 29, 107
3, 155772, Note_on_c, 1, 29, 0
3, 155900, Note_on_c, 1, 29, 107
3, 155984, Note_on_c, 1, 29, 0
3, 156092, Note_on_c, 1, 29, 105
3, 156240, Note_on_c, 1, 29, 0
3, 156280, Note_on_c, 1, 31, 105
3, 156472, Note_on_c, 1, 31, 0
3, 156472, Note_on_c, 1, 33, 107
3, 156592, Note_on_c, 1, 33, 0
3, 156664, Note_on_c, 1, 34, 103
3, 156800, Note_on_c, 1, 34, 0
3, 156856, Note_on_c, 1, 34, 93
3, 156964, Note_on_c, 1, 34, 0
3, 157240, Note_on_c, 1, 34, 104
3, 157336, Note_on_c, 1, 34, 0
3, 157436, Note_on_c, 1, 34, 107
3, 157800, Note_on_c, 1, 34, 0
3, 158004, Note_on_c, 1, 34, 107
3, 158136, Note_on_c, 1, 34, 0
3, 158204, Note_on_c, 1, 36, 103
3, 158604, Note_on_c, 1, 36, 0
3, 158776, Note_on_c, 1, 36, 102
3, 158848, Note_on_c, 1, 36, 0
3, 158972, Note_on_c, 1, 36, 107
3, 159348, Note_on_c, 1, 36, 0
3, 159536, Note_on_c, 1, 36, 100
3, 159632, Note_on_c, 1, 36, 0
3, 159732, Note_on_c, 1, 34, 105
3, 160172, Note_on_c, 1, 34, 0
3, 160312, Note_on_c, 1, 34, 102
3, 160368, Note_on_c, 1, 34, 0
3, 160504, Note_on_c, 1, 34, 108
3, 160912, Note_on_c, 1, 34, 0
3, 161080, Note_on_c, 1, 34, 106
3, 161168, Note_on_c, 1, 34, 0
3, 161276, Note_on_c, 1, 36, 105
3, 161668, Note_on_c, 1, 36, 0
3, 161852, Note_on_c, 1, 36, 104
3, 161924, Note_on_c, 1, 36, 0
3, 162040, Note_on_c, 1, 36, 108
3, 162304, Note_on_c, 1, 36, 0
3, 162424, Note_on_c, 1, 34, 103
3, 162524, Note_on_c, 1, 34, 0
3, 162524, Note_on_c, 1, 33, 102
3, 162628, Note_on_c, 1, 33, 0
3, 162628, Note_on_c, 1, 31, 107
3, 162724, Note_on_c, 1, 31, 0
3, 162816, Note_on_c, 1, 29, 108
3, 163228, Note_on_c, 1, 29, 0
3, 163388, Note_on_c, 1, 29, 111
3, 163460, Note_on_c, 1, 29, 0
3, 163584, Note_on_c, 1, 29, 107
3, 163676, Note_on_c, 1, 29, 0
3, 163772, Note_on_c, 1, 29, 108
3, 163928, Note_on_c, 1, 29, 0
3, 164152, Note_on_c, 1, 29, 106
3, 164232, Note_on_c, 1, 29, 0
3, 164344, Note_on_c, 1, 29, 110
3, 164772, Note_on_c, 1, 29, 0
3, 164932, Note_on_c, 1, 29, 109
3, 165020, Note_on_c, 1, 29, 0
3, 165116, Note_on_c, 1, 29, 102
3, 165200, Note_on_c, 1, 29, 0
3, 165308, Note_on_c, 1, 29, 105
3, 165424, Note_on_c, 1, 29, 0
3, 165696, Note_on_c, 1, 29, 104
3, 165780, Note_on_c, 1, 29, 0
3, 165884, Note_on_c, 1, 29, 108
3, 166312, Note_on_c, 1, 29, 0
3, 166456, Note_on_c, 1, 29, 105
3, 166540, Note_on_c, 1, 29, 0
3, 166648, Note_on_c, 1, 29, 103
3, 166768, Note_on_c, 1, 29, 0
3, 166840, Note_on_c, 1, 29, 101
3, 166976, Note_on_c, 1, 29, 0
3, 167224, Note_on_c, 1, 29, 105
3, 167300, Note_on_c, 1, 29, 0
3, 167416, Note_on_c, 1, 29, 113
3, 167712, Note_on_c, 1, 29, 0
3, 167804, Note_on_c, 1, 29, 110
3, 168076, Note_on_c, 1, 29, 0
3, 168184, Note_on_c, 1, 36, 107
3, 168388, Note_on_c, 1, 36, 0
3, 168388, Note_on_c, 1, 38, 103
3, 168576, Note_on_c, 1, 38, 0
3, 168584, Note_on_c, 1, 36, 113
3, 168856, Note_on_c, 1, 36, 0
3, 168960, Note_on_c, 1, 34, 108
3, 169424, Note_on_c, 1, 34, 0
3, 169540, Note_on_c, 1, 34, 106
3, 169632, Note_on_c, 1, 34, 0
3, 169728, Note_on_c, 1, 34, 108
3, 169900, Note_on_c, 1, 34, 0
3, 169916, Note_on_c, 1, 33, 100
3, 170076, Note_on_c, 1, 33, 0
3, 170108, Note_on_c, 1, 34, 107
3, 170296, Note_on_c, 1, 34, 0
3, 170296, Note_on_c, 1, 31, 106
3, 170460, Note_on_c, 1, 31, 0
3, 170492, Note_on_c, 1, 36, 102
3, 170936, Note_on_c, 1, 36, 0
3, 171064, Note_on_c, 1, 36, 105
3, 171148, Note_on_c, 1, 36, 0
3, 171260, Note_on_c, 1, 36, 108
3, 171716, Note_on_c, 1, 36, 0
3, 171832, Note_on_c, 1, 36, 106
3, 171960, Note_on_c, 1, 36, 0
3, 172032, Note_on_c, 1, 34, 107
3, 172524, Note_on_c, 1, 34, 0
3, 172612, Note_on_c, 1, 34, 102
3, 172684, Note_on_c, 1, 34, 0
3, 172796, Note_on_c, 1, 34, 113
3, 173136, Note_on_c, 1, 34, 0
3, 173180, Note_on_c, 1, 33, 101
3, 173368, Note_on_c, 1, 33, 0
3, 173368, Note_on_c, 1, 31, 102
3, 173504, Note_on_c, 1, 31, 0
3, 173560, Note_on_c, 1, 36, 106
3, 173964, Note_on_c, 1, 36, 0
3, 174148, Note_on_c, 1, 36, 105
3, 174244, Note_on_c, 1, 36, 0
3, 174332, Note_on_c, 1, 36, 105
3, 174684, Note_on_c, 1, 36, 0
3, 174712, Note_on_c, 1, 38, 103
3, 174900, Note_on_c, 1, 38, 0
3, 174900, Note_on_c, 1, 41, 103
3, 174976, Note_on_c, 1, 41, 0
3, 175096, Note_on_c, 1, 29, 103
3, 175540, Note_on_c, 1, 29, 0
3, 175672, Note_on_c, 1, 29, 105
3, 175748, Note_on_c, 1, 29, 0
3, 175864, Note_on_c, 1, 29, 109
3, 176276, Note_on_c, 1, 29, 0
3, 176632, Note_on_c, 1, 29, 111
3, 177076, Note_on_c, 1, 29, 0
3, 177204, Note_on_c, 1, 29, 103
3, 177272, Note_on_c, 1, 29, 0
3, 177400, Note_on_c, 1, 29, 107
3, 177844, Note_on_c, 1, 29, 0
3, 177972, Note_on_c, 1, 29, 101
3, 178028, Note_on_c, 1, 29, 0
3, 178176, Note_on_c, 1, 29, 110
3, 178616, Note_on_c, 1, 29, 0
3, 178744, Note_on_c, 1, 29, 104
3, 178808, Note_on_c, 1, 29, 0
3, 178936, Note_on_c, 1, 29, 108
3, 179384, Note_on_c, 1, 29, 0
3, 179512, Note_on_c, 1, 29, 104
3, 179576, Note_on_c, 1, 29, 0
3, 179708, Note_on_c, 1, 29, 104
3, 180172, Note_on_c, 1, 29, 0
3, 180292, Note_on_c, 1, 29, 103
3, 180360, Note_on_c, 1, 29, 0
3, 180472, Note_on_c, 1, 29, 110
3, 180796, Note_on_c, 1, 29, 0
3, 180852, Note_on_c, 1, 31, 102
3, 181044, Note_on_c, 1, 31, 0
3, 181044, Note_on_c, 1, 33, 104
3, 181196, Note_on_c, 1, 33, 0
3, 181244, Note_on_c, 1, 34, 97
3, 181692, Note_on_c, 1, 34, 0
3, 181812, Note_on_c, 1, 34, 105
3, 181896, Note_on_c, 1, 34, 0
3, 182008, Note_on_c, 1, 34, 110
3, 182376, Note_on_c, 1, 34, 0
3, 182396, Note_on_c, 1, 34, 103
3, 182580, Note_on_c, 1, 34, 0
3, 182580, Note_on_c, 1, 31, 100
3, 182708, Note_on_c, 1, 31, 0
3, 182776, Note_on_c, 1, 36, 107
3, 183120, Note_on_c, 1, 36, 0
3, 183168, Note_on_c, 1, 36, 106
3, 183492, Note_on_c, 1, 36, 0
3, 183548, Note_on_c, 1, 38, 105
3, 183748, Note_on_c, 1, 38, 0
3, 183748, Note_on_c, 1, 41, 100
3, 183924, Note_on_c, 1, 41, 0
3, 183932, Note_on_c, 1, 43, 107
3, 184124, Note_on_c, 1, 43, 0
3, 184124, Note_on_c, 1, 41, 105
3, 184232, Note_on_c, 1, 41, 0
3, 184320, Note_on_c, 1, 34, 112
3, 184756, Note_on_c, 1, 34, 0
3, 184888, Note_on_c, 1, 34, 102
3, 185072, Note_on_c, 1, 34, 0
3, 185080, Note_on_c, 1, 43, 103
3, 185480, Note_on_c, 1, 43, 0
3, 185480, Note_on_c, 1, 41, 101
3, 185796, Note_on_c, 1, 41, 0
3, 185856, Note_on_c, 1, 36, 100
3, 186316, Note_on_c, 1, 36, 0
3, 186420, Note_on_c, 1, 36, 95
3, 186616, Note_on_c, 1, 36, 0
3, 186616, Note_on_c, 1, 33, 106
3, 186976, Note_on_c, 1, 33, 0
3, 186996, Note_on_c, 1, 31, 100
3, 187304, Note_on_c, 1, 31, 0
3, 187384, Note_on_c, 1, 29, 105
3, 188916, Note_on_c, 1, 29, 0
3, 188916, End_track
4, 0, Start_track
4, 0, MIDI_port, 0
4, 0, Title_t, "GYPSY             3 "
4, 0, Program_c, 2, 26
4, 0, Control_c, 2, 10, 5
4, 0, Control_c, 2, 0, 0
4, 0, Control_c, 2, 93, 60
4, 436, Control_c, 2, 7, 81
4, 436, Control_c, 2, 11, 127
4, 2488, Note_on_c, 2, 48, 97
4, 2492, Control_c, 2, 1, 0
4, 2492, Pitch_bend_c, 2, 8192
4, 2584, Note_on_c, 2, 48, 0
4, 2680, Note_on_c, 2, 50, 87
4, 2776, Note_on_c, 2, 50, 0
4, 2876, Note_on_c, 2, 52, 88
4, 2968, Note_on_c, 2, 52, 0
4, 3076, Note_on_c, 2, 53, 91
4, 3188, Note_on_c, 2, 53, 0
4, 3448, Note_on_c, 2, 53, 95
4, 3564, Note_on_c, 2, 53, 0
4, 3844, Note_on_c, 2, 53, 92
4, 3960, Note_on_c, 2, 53, 0
4, 4228, Note_on_c, 2, 53, 84
4, 4312, Note_on_c, 2, 53, 0
4, 4408, Note_on_c, 2, 53, 86
4, 4516, Note_on_c, 2, 53, 0
4, 4608, Note_on_c, 2, 52, 94
4, 4732, Note_on_c, 2, 52, 0
4, 4996, Note_on_c, 2, 52, 92
4, 5128, Note_on_c, 2, 52, 0
4, 5372, Note_on_c, 2, 52, 92
4, 5524, Note_on_c, 2, 52, 0
4, 5756, Note_on_c, 2, 52, 88
4, 5860, Note_on_c, 2, 52, 0
4, 5940, Note_on_c, 2, 52, 83
4, 6056, Note_on_c, 2, 52, 0
4, 6136, Note_on_c, 2, 50, 92
4, 6268, Note_on_c, 2, 50, 0
4, 6524, Note_on_c, 2, 50, 87
4, 6648, Note_on_c, 2, 50, 0
4, 6904, Note_on_c, 2, 50, 91
4, 7036, Note_on_c, 2, 50, 0
4, 7292, Note_on_c, 2, 50, 90
4, 7376, Note_on_c, 2, 50, 0
4, 7480, Note_on_c, 2, 50, 86
4, 7580, Note_on_c, 2, 50, 0
4, 7672, Note_on_c, 2, 48, 90
4, 7820, Note_on_c, 2, 48, 0
4, 8056, Note_on_c, 2, 48, 92
4, 8200, Note_on_c, 2, 48, 0
4, 8436, Note_on_c, 2, 48, 86
4, 8572, Note_on_c, 2, 48, 0
4, 8628, Note_on_c, 2, 50, 87
4, 8788, Note_on_c, 2, 50, 0
4, 8824, Note_on_c, 2, 53, 94
4, 8936, Note_on_c, 2, 53, 0
4, 9016, Note_on_c, 2, 53, 91
4, 9100, Note_on_c, 2, 53, 0
4, 9224, Note_on_c, 2, 46, 89
4, 9384, Note_on_c, 2, 46, 0
4, 9596, Note_on_c, 2, 46, 95
4, 9744, Note_on_c, 2, 46, 0
4, 9980, Note_on_c, 2, 46, 91
4, 10084, Note_on_c, 2, 46, 0
4, 10180, Note_on_c, 2, 46, 93
4, 10288, Note_on_c, 2, 46, 0
4, 10364, Note_on_c, 2, 45, 94
4, 10528, Note_on_c, 2, 45, 0
4, 10552, Note_on_c, 2, 43, 87
4, 10672, Note_on_c, 2, 43, 0
4, 10744, Note_on_c, 2, 48, 79
4, 10916, Note_on_c, 2, 48, 0
4, 11128, Note_on_c, 2, 48, 86
4, 11340, Note_on_c, 2, 48, 0
4, 11512, Note_on_c, 2, 48, 98
4, 11664, Note_on_c, 2, 48, 0
4, 11704, Note_on_c, 2, 50, 70
4, 11824, Note_on_c, 2, 50, 0
4, 11900, Note_on_c, 2, 53, 94
4, 12040, Note_on_c, 2, 53, 0
4, 12100, Note_on_c, 2, 55, 100
4, 12176, Note_on_c, 2, 55, 0
4, 12288, Note_on_c, 2, 46, 85
4, 12448, Note_on_c, 2, 46, 0
4, 12668, Note_on_c, 2, 46, 95
4, 12836, Note_on_c, 2, 46, 0
4, 13048, Note_on_c, 2, 46, 89
4, 13160, Note_on_c, 2, 46, 0
4, 13240, Note_on_c, 2, 46, 95
4, 13360, Note_on_c, 2, 46, 0
4, 13432, Note_on_c, 2, 45, 95
4, 13584, Note_on_c, 2, 45, 0
4, 13624, Note_on_c, 2, 43, 98
4, 13736, Note_on_c, 2, 43, 0
4, 13816, Note_on_c, 2, 48, 91
4, 13960, Note_on_c, 2, 48, 0
4, 14196, Note_on_c, 2, 48, 95
4, 14368, Note_on_c, 2, 48, 0
4, 14584, Note_on_c, 2, 48, 91
4, 14740, Note_on_c, 2, 48, 0
4, 14776, Note_on_c, 2, 50, 85
4, 14904, Note_on_c, 2, 50, 0
4, 14972, Note_on_c, 2, 53, 84
4, 15112, Note_on_c, 2, 53, 0
4, 15164, Note_on_c, 2, 55, 94
4, 15264, Note_on_c, 2, 55, 0
4, 15368, Note_on_c, 2, 53, 88
4, 15520, Note_on_c, 2, 53, 0
4, 15752, Note_on_c, 2, 53, 95
4, 15900, Note_on_c, 2, 53, 0
4, 16128, Note_on_c, 2, 53, 83
4, 16224, Note_on_c, 2, 53, 0
4, 16316, Note_on_c, 2, 53, 87
4, 16452, Note_on_c, 2, 53, 0
4, 16508, Note_on_c, 2, 50, 90
4, 16672, Note_on_c, 2, 50, 0
4, 16700, Note_on_c, 2, 48, 92
4, 16808, Note_on_c, 2, 48, 0
4, 16904, Note_on_c, 2, 52, 98
4, 17084, Note_on_c, 2, 52, 0
4, 17284, Note_on_c, 2, 52, 91
4, 17432, Note_on_c, 2, 52, 0
4, 17660, Note_on_c, 2, 52, 95
4, 17764, Note_on_c, 2, 52, 0
4, 17852, Note_on_c, 2, 52, 88
4, 17984, Note_on_c, 2, 52, 0
4, 18044, Note_on_c, 2, 53, 90
4, 18200, Note_on_c, 2, 53, 0
4, 18236, Note_on_c, 2, 57, 80
4, 18340, Note_on_c, 2, 57, 0
4, 18440, Note_on_c, 2, 50, 79
4, 18600, Note_on_c, 2, 50, 0
4, 18812, Note_on_c, 2, 50, 94
4, 18960, Note_on_c, 2, 50, 0
4, 19192, Note_on_c, 2, 50, 86
4, 19296, Note_on_c, 2, 50, 0
4, 19392, Note_on_c, 2, 50, 92
4, 19496, Note_on_c, 2, 50, 0
4, 19772, Note_on_c, 2, 50, 87
4, 19876, Note_on_c, 2, 50, 0
4, 19964, Note_on_c, 2, 48, 86
4, 20108, Note_on_c, 2, 48, 0
4, 20348, Note_on_c, 2, 48, 81
4, 20492, Note_on_c, 2, 48, 0
4, 20728, Note_on_c, 2, 48, 83
4, 20872, Note_on_c, 2, 48, 0
4, 20920, Note_on_c, 2, 50, 91
4, 21056, Note_on_c, 2, 50, 0
4, 21116, Note_on_c, 2, 53, 76
4, 21248, Note_on_c, 2, 53, 0
4, 21308, Note_on_c, 2, 50, 92
4, 21392, Note_on_c, 2, 50, 0
4, 21500, Note_on_c, 2, 46, 89
4, 21608, Note_on_c, 2, 46, 0
4, 21880, Note_on_c, 2, 46, 97
4, 22008, Note_on_c, 2, 46, 0
4, 22264, Note_on_c, 2, 46, 97
4, 22364, Note_on_c, 2, 46, 0
4, 22456, Note_on_c, 2, 46, 95
4, 22564, Note_on_c, 2, 46, 0
4, 22644, Note_on_c, 2, 45, 90
4, 22788, Note_on_c, 2, 45, 0
4, 22832, Note_on_c, 2, 43, 90
4, 22952, Note_on_c, 2, 43, 0
4, 23032, Note_on_c, 2, 48, 88
4, 23192, Note_on_c, 2, 48, 0
4, 23416, Note_on_c, 2, 48, 92
4, 23588, Note_on_c, 2, 48, 0
4, 23796, Note_on_c, 2, 48, 86
4, 23940, Note_on_c, 2, 48, 0
4, 23992, Note_on_c, 2, 50, 95
4, 24108, Note_on_c, 2, 50, 0
4, 24180, Note_on_c, 2, 53, 92
4, 24308, Note_on_c, 2, 53, 0
4, 24372, Note_on_c, 2, 55, 90
4, 24440, Note_on_c, 2, 55, 0
4, 24576, Note_on_c, 2, 46, 84
4, 24700, Note_on_c, 2, 46, 0
4, 24956, Note_on_c, 2, 46, 95
4, 25076, Note_on_c, 2, 46, 0
4, 25340, Note_on_c, 2, 46, 95
4, 25440, Note_on_c, 2, 46, 0
4, 25532, Note_on_c, 2, 46, 97
4, 25636, Note_on_c, 2, 46, 0
4, 25720, Note_on_c, 2, 45, 88
4, 25848, Note_on_c, 2, 45, 0
4, 25908, Note_on_c, 2, 43, 86
4, 26020, Note_on_c, 2, 43, 0
4, 26108, Note_on_c, 2, 48, 90
4, 26256, Note_on_c, 2, 48, 0
4, 26488, Note_on_c, 2, 48, 90
4, 26652, Note_on_c, 2, 48, 0
4, 26868, Note_on_c, 2, 48, 87
4, 26964, Note_on_c, 2, 48, 0
4, 27060, Note_on_c, 2, 48, 87
4, 27188, Note_on_c, 2, 48, 0
4, 27248, Note_on_c, 2, 50, 94
4, 27376, Note_on_c, 2, 50, 0
4, 27444, Note_on_c, 2, 55, 98
4, 27548, Note_on_c, 2, 55, 0
4, 27644, Note_on_c, 2, 53, 90
4, 27792, Note_on_c, 2, 53, 0
4, 28036, Note_on_c, 2, 53, 86
4, 28164, Note_on_c, 2, 53, 0
4, 28412, Note_on_c, 2, 53, 86
4, 28508, Note_on_c, 2, 53, 0
4, 28604, Note_on_c, 2, 53, 88
4, 28728, Note_on_c, 2, 53, 0
4, 28792, Note_on_c, 2, 50, 94
4, 28920, Note_on_c, 2, 50, 0
4, 28984, Note_on_c, 2, 48, 94
4, 29096, Note_on_c, 2, 48, 0
4, 29176, Note_on_c, 2, 52, 86
4, 29324, Note_on_c, 2, 52, 0
4, 29564, Note_on_c, 2, 52, 91
4, 29704, Note_on_c, 2, 52, 0
4, 29944, Note_on_c, 2, 52, 85
4, 30052, Note_on_c, 2, 52, 0
4, 30136, Note_on_c, 2, 52, 94
4, 30272, Note_on_c, 2, 52, 0
4, 30512, Note_on_c, 2, 52, 91
4, 30620, Note_on_c, 2, 52, 0
4, 30712, Note_on_c, 2, 50, 92
4, 30836, Note_on_c, 2, 50, 0
4, 31096, Note_on_c, 2, 50, 92
4, 31240, Note_on_c, 2, 50, 0
4, 31484, Note_on_c, 2, 50, 95
4, 31608, Note_on_c, 2, 50, 0
4, 31864, Note_on_c, 2, 50, 90
4, 31956, Note_on_c, 2, 50, 0
4, 32056, Note_on_c, 2, 50, 88
4, 32168, Note_on_c, 2, 50, 0
4, 32248, Note_on_c, 2, 48, 92
4, 32392, Note_on_c, 2, 48, 0
4, 32632, Note_on_c, 2, 48, 84
4, 32764, Note_on_c, 2, 48, 0
4, 33028, Note_on_c, 2, 55, 94
4, 33164, Note_on_c, 2, 55, 0
4, 33216, Note_on_c, 2, 53, 90
4, 33344, Note_on_c, 2, 53, 0
4, 33408, Note_on_c, 2, 50, 90
4, 33544, Note_on_c, 2, 50, 0
4, 33596, Note_on_c, 2, 48, 97
4, 33680, Note_on_c, 2, 48, 0
4, 33796, Note_on_c, 2, 46, 99
4, 33900, Note_on_c, 2, 46, 0
4, 34176, Note_on_c, 2, 46, 99
4, 34304, Note_on_c, 2, 46, 0
4, 34552, Note_on_c, 2, 46, 97
4, 34644, Note_on_c, 2, 46, 0
4, 34748, Note_on_c, 2, 46, 95
4, 34860, Note_on_c, 2, 46, 0
4, 34936, Note_on_c, 2, 45, 90
4, 35064, Note_on_c, 2, 45, 0
4, 35124, Note_on_c, 2, 43, 90
4, 35236, Note_on_c, 2, 43, 0
4, 35324, Note_on_c, 2, 48, 91
4, 35468, Note_on_c, 2, 48, 0
4, 35700, Note_on_c, 2, 48, 90
4, 35884, Note_on_c, 2, 48, 0
4, 36088, Note_on_c, 2, 48, 90
4, 36180, Note_on_c, 2, 48, 0
4, 36272, Note_on_c, 2, 48, 86
4, 36380, Note_on_c, 2, 48, 0
4, 36664, Note_on_c, 2, 48, 91
4, 36784, Note_on_c, 2, 48, 0
4, 36860, Note_on_c, 2, 46, 84
4, 37020, Note_on_c, 2, 46, 0
4, 37236, Note_on_c, 2, 46, 87
4, 37400, Note_on_c, 2, 46, 0
4, 37620, Note_on_c, 2, 46, 91
4, 37728, Note_on_c, 2, 46, 0
4, 37816, Note_on_c, 2, 46, 97
4, 37924, Note_on_c, 2, 46, 0
4, 38008, Note_on_c, 2, 45, 88
4, 38140, Note_on_c, 2, 45, 0
4, 38196, Note_on_c, 2, 43, 91
4, 38312, Note_on_c, 2, 43, 0
4, 38392, Note_on_c, 2, 48, 85
4, 38568, Note_on_c, 2, 48, 0
4, 38776, Note_on_c, 2, 48, 90
4, 38944, Note_on_c, 2, 48, 0
4, 39160, Note_on_c, 2, 48, 90
4, 39304, Note_on_c, 2, 48, 0
4, 39352, Note_on_c, 2, 50, 90
4, 39464, Note_on_c, 2, 50, 0
4, 39548, Note_on_c, 2, 53, 91
4, 39672, Note_on_c, 2, 53, 0
4, 39748, Note_on_c, 2, 55, 95
4, 39844, Note_on_c, 2, 55, 0
4, 39936, Note_on_c, 2, 46, 85
4, 40120, Note_on_c, 2, 46, 0
4, 40320, Note_on_c, 2, 46, 89
4, 40504, Note_on_c, 2, 46, 0
4, 40700, Note_on_c, 2, 46, 87
4, 40816, Note_on_c, 2, 46, 0
4, 40900, Note_on_c, 2, 46, 87
4, 41008, Note_on_c, 2, 46, 0
4, 41092, Note_on_c, 2, 45, 92
4, 41236, Note_on_c, 2, 45, 0
4, 41276, Note_on_c, 2, 43, 102
4, 41388, Note_on_c, 2, 43, 0
4, 41472, Note_on_c, 2, 48, 85
4, 41648, Note_on_c, 2, 48, 0
4, 41864, Note_on_c, 2, 48, 85
4, 42020, Note_on_c, 2, 48, 0
4, 42232, Note_on_c, 2, 48, 87
4, 42428, Note_on_c, 2, 48, 0
4, 42428, Note_on_c, 2, 45, 92
4, 42604, Note_on_c, 2, 45, 0
4, 42620, Note_on_c, 2, 43, 91
4, 42760, Note_on_c, 2, 43, 0
4, 42804, Note_on_c, 2, 41, 98
4, 42916, Note_on_c, 2, 41, 0
4, 43004, Note_on_c, 2, 41, 92
4, 43220, Note_on_c, 2, 41, 0
4, 43392, Note_on_c, 2, 41, 90
4, 43588, Note_on_c, 2, 41, 0
4, 43772, Note_on_c, 2, 41, 80
4, 43876, Note_on_c, 2, 41, 0
4, 43964, Note_on_c, 2, 41, 88
4, 44088, Note_on_c, 2, 41, 0
4, 44152, Note_on_c, 2, 43, 94
4, 44320, Note_on_c, 2, 43, 0
4, 44344, Note_on_c, 2, 41, 86
4, 44476, Note_on_c, 2, 41, 0
4, 44536, Note_on_c, 2, 45, 87
4, 44712, Note_on_c, 2, 45, 0
4, 44920, Note_on_c, 2, 45, 95
4, 45116, Note_on_c, 2, 45, 0
4, 45308, Note_on_c, 2, 45, 95
4, 45496, Note_on_c, 2, 45, 0
4, 45888, Note_on_c, 2, 50, 92
4, 46020, Note_on_c, 2, 50, 0
4, 46084, Note_on_c, 2, 50, 83
4, 46292, Note_on_c, 2, 50, 0
4, 46460, Note_on_c, 2, 50, 86
4, 46660, Note_on_c, 2, 50, 0
4, 46836, Note_on_c, 2, 50, 80
4, 46956, Note_on_c, 2, 50, 0
4, 47032, Note_on_c, 2, 50, 92
4, 47212, Note_on_c, 2, 50, 0
4, 47420, Note_on_c, 2, 50, 92
4, 47568, Note_on_c, 2, 50, 0
4, 47612, Note_on_c, 2, 48, 94
4, 47768, Note_on_c, 2, 48, 0
4, 47996, Note_on_c, 2, 48, 88
4, 48108, Note_on_c, 2, 48, 0
4, 48184, Note_on_c, 2, 48, 94
4, 48300, Note_on_c, 2, 48, 0
4, 48388, Note_on_c, 2, 53, 81
4, 48488, Note_on_c, 2, 53, 0
4, 48572, Note_on_c, 2, 53, 87
4, 48740, Note_on_c, 2, 53, 0
4, 48760, Note_on_c, 2, 50, 91
4, 48944, Note_on_c, 2, 50, 0
4, 48948, Note_on_c, 2, 48, 84
4, 49124, Note_on_c, 2, 48, 0
4, 49156, Note_on_c, 2, 46, 99
4, 49320, Note_on_c, 2, 46, 0
4, 49532, Note_on_c, 2, 46, 91
4, 49688, Note_on_c, 2, 46, 0
4, 49924, Note_on_c, 2, 46, 93
4, 50012, Note_on_c, 2, 46, 0
4, 50108, Note_on_c, 2, 46, 97
4, 50252, Note_on_c, 2, 46, 0
4, 50292, Note_on_c, 2, 45, 80
4, 50484, Note_on_c, 2, 45, 0
4, 50484, Note_on_c, 2, 43, 78
4, 50668, Note_on_c, 2, 43, 0
4, 50684, Note_on_c, 2, 48, 88
4, 50864, Note_on_c, 2, 48, 0
4, 51068, Note_on_c, 2, 48, 95
4, 51272, Note_on_c, 2, 48, 0
4, 51448, Note_on_c, 2, 48, 84
4, 51556, Note_on_c, 2, 48, 0
4, 51640, Note_on_c, 2, 48, 83
4, 51824, Note_on_c, 2, 48, 0
4, 51828, Note_on_c, 2, 50, 92
4, 52020, Note_on_c, 2, 50, 0
4, 52020, Note_on_c, 2, 53, 94
4, 52152, Note_on_c, 2, 53, 0
4, 52220, Note_on_c, 2, 46, 93
4, 52388, Note_on_c, 2, 46, 0
4, 52612, Note_on_c, 2, 46, 93
4, 52768, Note_on_c, 2, 46, 0
4, 52988, Note_on_c, 2, 46, 97
4, 53092, Note_on_c, 2, 46, 0
4, 53184, Note_on_c, 2, 46, 97
4, 53308, Note_on_c, 2, 46, 0
4, 53368, Note_on_c, 2, 45, 88
4, 53560, Note_on_c, 2, 45, 0
4, 53560, Note_on_c, 2, 43, 80
4, 53708, Note_on_c, 2, 43, 0
4, 53760, Note_on_c, 2, 48, 94
4, 53924, Note_on_c, 2, 48, 0
4, 54140, Note_on_c, 2, 48, 95
4, 54308, Note_on_c, 2, 48, 0
4, 54520, Note_on_c, 2, 48, 85
4, 54620, Note_on_c, 2, 48, 0
4, 54712, Note_on_c, 2, 48, 88
4, 54864, Note_on_c, 2, 48, 0
4, 54904, Note_on_c, 2, 50, 88
4, 55096, Note_on_c, 2, 50, 0
4, 55096, Note_on_c, 2, 53, 90
4, 55228, Note_on_c, 2, 53, 0
4, 55296, Note_on_c, 2, 53, 88
4, 55460, Note_on_c, 2, 53, 0
4, 55680, Note_on_c, 2, 53, 87
4, 55820, Note_on_c, 2, 53, 0
4, 56068, Note_on_c, 2, 53, 87
4, 56168, Note_on_c, 2, 53, 0
4, 56256, Note_on_c, 2, 53, 95
4, 56404, Note_on_c, 2, 53, 0
4, 56444, Note_on_c, 2, 50, 95
4, 56612, Note_on_c, 2, 50, 0
4, 56636, Note_on_c, 2, 48, 88
4, 56772, Note_on_c, 2, 48, 0
4, 56832, Note_on_c, 2, 52, 94
4, 56988, Note_on_c, 2, 52, 0
4, 57216, Note_on_c, 2, 52, 95
4, 57368, Note_on_c, 2, 52, 0
4, 57592, Note_on_c, 2, 52, 95
4, 57720, Note_on_c, 2, 52, 0
4, 57784, Note_on_c, 2, 52, 84
4, 57908, Note_on_c, 2, 52, 0
4, 57980, Note_on_c, 2, 52, 100
4, 58104, Note_on_c, 2, 52, 0
4, 58364, Note_on_c, 2, 50, 92
4, 58536, Note_on_c, 2, 50, 0
4, 58748, Note_on_c, 2, 50, 94
4, 58900, Note_on_c, 2, 50, 0
4, 59128, Note_on_c, 2, 50, 84
4, 59240, Note_on_c, 2, 50, 0
4, 59332, Note_on_c, 2, 50, 94
4, 59448, Note_on_c, 2, 50, 0
4, 59708, Note_on_c, 2, 50, 90
4, 59828, Note_on_c, 2, 50, 0
4, 59896, Note_on_c, 2, 48, 91
4, 60060, Note_on_c, 2, 48, 0
4, 60280, Note_on_c, 2, 48, 88
4, 60436, Note_on_c, 2, 48, 0
4, 60668, Note_on_c, 2, 48, 95
4, 60824, Note_on_c, 2, 48, 0
4, 60856, Note_on_c, 2, 50, 91
4, 61008, Note_on_c, 2, 50, 0
4, 61048, Note_on_c, 2, 53, 86
4, 61200, Note_on_c, 2, 53, 0
4, 61236, Note_on_c, 2, 50, 97
4, 61308, Note_on_c, 2, 50, 0
4, 61440, Note_on_c, 2, 46, 95
4, 61560, Note_on_c, 2, 46, 0
4, 61820, Note_on_c, 2, 46, 91
4, 61968, Note_on_c, 2, 46, 0
4, 62204, Note_on_c, 2, 46, 91
4, 62308, Note_on_c, 2, 46, 0
4, 62400, Note_on_c, 2, 46, 97
4, 62516, Note_on_c, 2, 46, 0
4, 62584, Note_on_c, 2, 45, 86
4, 62736, Note_on_c, 2, 45, 0
4, 62780, Note_on_c, 2, 43, 88
4, 62964, Note_on_c, 2, 43, 0
4, 62980, Note_on_c, 2, 48, 80
4, 63140, Note_on_c, 2, 48, 0
4, 63364, Note_on_c, 2, 48, 86
4, 63544, Note_on_c, 2, 48, 0
4, 63736, Note_on_c, 2, 48, 90
4, 63880, Note_on_c, 2, 48, 0
4, 63924, Note_on_c, 2, 50, 87
4, 64072, Note_on_c, 2, 50, 0
4, 64120, Note_on_c, 2, 53, 80
4, 64272, Note_on_c, 2, 53, 0
4, 64312, Note_on_c, 2, 50, 97
4, 64404, Note_on_c, 2, 50, 0
4, 64508, Note_on_c, 2, 46, 91
4, 64680, Note_on_c, 2, 46, 0
4, 64892, Note_on_c, 2, 46, 89
4, 65072, Note_on_c, 2, 46, 0
4, 65276, Note_on_c, 2, 46, 87
4, 65376, Note_on_c, 2, 46, 0
4, 65468, Note_on_c, 2, 46, 91
4, 65588, Note_on_c, 2, 46, 0
4, 65656, Note_on_c, 2, 45, 80
4, 65840, Note_on_c, 2, 45, 0
4, 65844, Note_on_c, 2, 43, 88
4, 65976, Note_on_c, 2, 43, 0
4, 66044, Note_on_c, 2, 48, 90
4, 66212, Note_on_c, 2, 48, 0
4, 66432, Note_on_c, 2, 48, 91
4, 66600, Note_on_c, 2, 48, 0
4, 66820, Note_on_c, 2, 48, 92
4, 66916, Note_on_c, 2, 48, 0
4, 67004, Note_on_c, 2, 48, 91
4, 67144, Note_on_c, 2, 48, 0
4, 67196, Note_on_c, 2, 50, 95
4, 67344, Note_on_c, 2, 50, 0
4, 67388, Note_on_c, 2, 53, 98
4, 67492, Note_on_c, 2, 53, 0
4, 67584, Note_on_c, 2, 53, 91
4, 67748, Note_on_c, 2, 53, 0
4, 67964, Note_on_c, 2, 53, 91
4, 68120, Note_on_c, 2, 53, 0
4, 68344, Note_on_c, 2, 53, 86
4, 68460, Note_on_c, 2, 53, 0
4, 68536, Note_on_c, 2, 53, 88
4, 68668, Note_on_c, 2, 53, 0
4, 68916, Note_on_c, 2, 53, 92
4, 69044, Note_on_c, 2, 53, 0
4, 69112, Note_on_c, 2, 52, 88
4, 69272, Note_on_c, 2, 52, 0
4, 69496, Note_on_c, 2, 52, 92
4, 69636, Note_on_c, 2, 52, 0
4, 69876, Note_on_c, 2, 52, 88
4, 70012, Note_on_c, 2, 52, 0
4, 70260, Note_on_c, 2, 52, 91
4, 70420, Note_on_c, 2, 52, 0
4, 70452, Note_on_c, 2, 53, 80
4, 70616, Note_on_c, 2, 53, 0
4, 70652, Note_on_c, 2, 50, 91
4, 70780, Note_on_c, 2, 50, 0
4, 71036, Note_on_c, 2, 50, 90
4, 71172, Note_on_c, 2, 50, 0
4, 71412, Note_on_c, 2, 50, 87
4, 71556, Note_on_c, 2, 50, 0
4, 71816, Note_on_c, 2, 50, 91
4, 71912, Note_on_c, 2, 50, 0
4, 71996, Note_on_c, 2, 50, 88
4, 72140, Note_on_c, 2, 50, 0
4, 72192, Note_on_c, 2, 48, 90
4, 72372, Note_on_c, 2, 48, 0
4, 72572, Note_on_c, 2, 48, 83
4, 72728, Note_on_c, 2, 48, 0
4, 72952, Note_on_c, 2, 48, 85
4, 73124, Note_on_c, 2, 48, 0
4, 73148, Note_on_c, 2, 50, 88
4, 73328, Note_on_c, 2, 50, 0
4, 73340, Note_on_c, 2, 53, 79
4, 73532, Note_on_c, 2, 53, 0
4, 73532, Note_on_c, 2, 50, 85
4, 73608, Note_on_c, 2, 50, 0
4, 73732, Note_on_c, 2, 46, 91
4, 73840, Note_on_c, 2, 46, 0
4, 74116, Note_on_c, 2, 46, 89
4, 74268, Note_on_c, 2, 46, 0
4, 74488, Note_on_c, 2, 46, 89
4, 74596, Note_on_c, 2, 46, 0
4, 74688, Note_on_c, 2, 46, 89
4, 74824, Note_on_c, 2, 46, 0
4, 74872, Note_on_c, 2, 45, 86
4, 75056, Note_on_c, 2, 45, 0
4, 75064, Note_on_c, 2, 43, 85
4, 75168, Note_on_c, 2, 43, 0
4, 75268, Note_on_c, 2, 48, 95
4, 75420, Note_on_c, 2, 48, 0
4, 75648, Note_on_c, 2, 48, 85
4, 75780, Note_on_c, 2, 48, 0
4, 76024, Note_on_c, 2, 48, 85
4, 76204, Note_on_c, 2, 48, 0
4, 76216, Note_on_c, 2, 48, 74
4, 76404, Note_on_c, 2, 48, 0
4, 76404, Note_on_c, 2, 50, 80
4, 76592, Note_on_c, 2, 50, 0
4, 76592, Note_on_c, 2, 53, 81
4, 76696, Note_on_c, 2, 53, 0
4, 76804, Note_on_c, 2, 46, 87
4, 77000, Note_on_c, 2, 46, 0
4, 77180, Note_on_c, 2, 46, 97
4, 77368, Note_on_c, 2, 46, 0
4, 77560, Note_on_c, 2, 46, 101
4, 77752, Note_on_c, 2, 46, 0
4, 77752, Note_on_c, 2, 45, 83
4, 77948, Note_on_c, 2, 45, 0
4, 77948, Note_on_c, 2, 46, 99
4, 78136, Note_on_c, 2, 46, 0
4, 78136, Note_on_c, 2, 45, 80
4, 78296, Note_on_c, 2, 45, 0
4, 78332, Note_on_c, 2, 48, 91
4, 78536, Note_on_c, 2, 48, 0
4, 78720, Note_on_c, 2, 48, 94
4, 78884, Note_on_c, 2, 48, 0
4, 79100, Note_on_c, 2, 48, 87
4, 79212, Note_on_c, 2, 48, 0
4, 79292, Note_on_c, 2, 48, 86
4, 79480, Note_on_c, 2, 48, 0
4, 79492, Note_on_c, 2, 46, 87
4, 79680, Note_on_c, 2, 46, 0
4, 79680, Note_on_c, 2, 45, 86
4, 79832, Note_on_c, 2, 45, 0
4, 79868, Note_on_c, 2, 46, 91
4, 80060, Note_on_c, 2, 46, 0
4, 80248, Note_on_c, 2, 46, 89
4, 80424, Note_on_c, 2, 46, 0
4, 80644, Note_on_c, 2, 46, 97
4, 80828, Note_on_c, 2, 46, 0
4, 80828, Note_on_c, 2, 45, 86
4, 81020, Note_on_c, 2, 45, 0
4, 81020, Note_on_c, 2, 46, 95
4, 81208, Note_on_c, 2, 46, 0
4, 81208, Note_on_c, 2, 45, 90
4, 81380, Note_on_c, 2, 45, 0
4, 81400, Note_on_c, 2, 48, 95
4, 81576, Note_on_c, 2, 48, 0
4, 81792, Note_on_c, 2, 48, 88
4, 81952, Note_on_c, 2, 48, 0
4, 82168, Note_on_c, 2, 48, 84
4, 82264, Note_on_c, 2, 48, 0
4, 82364, Note_on_c, 2, 48, 92
4, 82532, Note_on_c, 2, 48, 0
4, 82552, Note_on_c, 2, 46, 81
4, 82740, Note_on_c, 2, 46, 0
4, 82740, Note_on_c, 2, 45, 86
4, 82848, Note_on_c, 2, 45, 0
4, 82944, Note_on_c, 2, 53, 87
4, 83140, Note_on_c, 2, 53, 0
4, 83328, Note_on_c, 2, 53, 80
4, 83500, Note_on_c, 2, 53, 0
4, 83716, Note_on_c, 2, 53, 80
4, 83816, Note_on_c, 2, 53, 0
4, 83904, Note_on_c, 2, 53, 91
4, 84048, Note_on_c, 2, 53, 0
4, 84276, Note_on_c, 2, 53, 84
4, 84428, Note_on_c, 2, 53, 0
4, 84468, Note_on_c, 2, 52, 98
4, 84640, Note_on_c, 2, 52, 0
4, 84856, Note_on_c, 2, 52, 92
4, 85020, Note_on_c, 2, 52, 0
4, 85240, Note_on_c, 2, 52, 84
4, 85368, Note_on_c, 2, 52, 0
4, 85432, Note_on_c, 2, 52, 90
4, 85572, Note_on_c, 2, 52, 0
4, 85816, Note_on_c, 2, 52, 92
4, 85956, Note_on_c, 2, 52, 0
4, 86012, Note_on_c, 2, 50, 90
4, 86164, Note_on_c, 2, 50, 0
4, 86392, Note_on_c, 2, 50, 87
4, 86560, Note_on_c, 2, 50, 0
4, 86776, Note_on_c, 2, 50, 90
4, 86896, Note_on_c, 2, 50, 0
4, 86972, Note_on_c, 2, 50, 95
4, 87084, Note_on_c, 2, 50, 0
4, 87360, Note_on_c, 2, 50, 85
4, 87500, Note_on_c, 2, 50, 0
4, 87556, Note_on_c, 2, 48, 86
4, 87696, Note_on_c, 2, 48, 0
4, 87940, Note_on_c, 2, 48, 91
4, 88072, Note_on_c, 2, 48, 0
4, 88312, Note_on_c, 2, 45, 80
4, 88504, Note_on_c, 2, 45, 0
4, 88504, Note_on_c, 2, 48, 88
4, 88680, Note_on_c, 2, 48, 0
4, 88696, Note_on_c, 2, 45, 84
4, 88872, Note_on_c, 2, 45, 0
4, 88892, Note_on_c, 2, 48, 91
4, 89016, Note_on_c, 2, 48, 0
4, 89092, Note_on_c, 2, 50, 91
4, 89240, Note_on_c, 2, 50, 0
4, 89464, Note_on_c, 2, 50, 92
4, 89632, Note_on_c, 2, 50, 0
4, 89848, Note_on_c, 2, 50, 87
4, 89984, Note_on_c, 2, 50, 0
4, 90040, Note_on_c, 2, 50, 91
4, 90168, Note_on_c, 2, 50, 0
4, 90424, Note_on_c, 2, 50, 75
4, 90520, Note_on_c, 2, 50, 0
4, 90620, Note_on_c, 2, 50, 91
4, 90812, Note_on_c, 2, 50, 0
4, 91004, Note_on_c, 2, 50, 94
4, 91132, Note_on_c, 2, 50, 0
4, 91384, Note_on_c, 2, 50, 88
4, 91484, Note_on_c, 2, 50, 0
4, 91576, Note_on_c, 2, 50, 92
4, 91724, Note_on_c, 2, 50, 0
4, 91964, Note_on_c, 2, 50, 90
4, 92076, Note_on_c, 2, 50, 0
4, 92152, Note_on_c, 2, 48, 92
4, 92300, Note_on_c, 2, 48, 0
4, 92532, Note_on_c, 2, 48, 90
4, 92688, Note_on_c, 2, 48, 0
4, 92916, Note_on_c, 2, 48, 87
4, 93012, Note_on_c, 2, 48, 0
4, 93108, Note_on_c, 2, 48, 88
4, 93228, Note_on_c, 2, 48, 0
4, 93496, Note_on_c, 2, 48, 80
4, 93588, Note_on_c, 2, 48, 0
4, 93688, Note_on_c, 2, 48, 90
4, 93848, Note_on_c, 2, 48, 0
4, 94076, Note_on_c, 2, 48, 85
4, 94260, Note_on_c, 2, 48, 0
4, 94264, Note_on_c, 2, 52, 90
4, 94400, Note_on_c, 2, 52, 0
4, 94456, Note_on_c, 2, 48, 97
4, 94644, Note_on_c, 2, 48, 0
4, 94644, Note_on_c, 2, 50, 84
4, 94836, Note_on_c, 2, 50, 0
4, 94836, Note_on_c, 2, 52, 85
4, 95028, Note_on_c, 2, 52, 0
4, 95028, Note_on_c, 2, 55, 94
4, 95148, Note_on_c, 2, 55, 0
4, 95220, Note_on_c, 2, 53, 86
4, 95376, Note_on_c, 2, 53, 0
4, 95616, Note_on_c, 2, 53, 88
4, 95748, Note_on_c, 2, 53, 0
4, 95988, Note_on_c, 2, 53, 83
4, 96092, Note_on_c, 2, 53, 0
4, 96184, Note_on_c, 2, 53, 85
4, 96312, Note_on_c, 2, 53, 0
4, 96568, Note_on_c, 2, 53, 85
4, 96664, Note_on_c, 2, 53, 0
4, 96764, Note_on_c, 2, 53, 80
4, 96860, Note_on_c, 2, 53, 0
4, 96952, Note_on_c, 2, 53, 69
4, 97052, Note_on_c, 2, 53, 0
4, 97144, Note_on_c, 2, 53, 73
4, 97240, Note_on_c, 2, 53, 0
4, 97328, Note_on_c, 2, 53, 81
4, 97424, Note_on_c, 2, 53, 0
4, 97524, Note_on_c, 2, 53, 88
4, 97868, Note_on_c, 2, 53, 0
4, 97908, Note_on_c, 2, 48, 81
4, 98092, Note_on_c, 2, 48, 0
4, 98096, Note_on_c, 2, 45, 85
4, 98248, Note_on_c, 2, 45, 0
4, 98292, Note_on_c, 2, 46, 87
4, 98460, Note_on_c, 2, 46, 0
4, 98680, Note_on_c, 2, 46, 87
4, 98824, Note_on_c, 2, 46, 0
4, 99064, Note_on_c, 2, 46, 78
4, 99172, Note_on_c, 2, 46, 0
4, 99256, Note_on_c, 2, 46, 89
4, 99384, Note_on_c, 2, 46, 0
4, 99640, Note_on_c, 2, 46, 70
4, 99732, Note_on_c, 2, 46, 0
4, 99836, Note_on_c, 2, 46, 72
4, 99932, Note_on_c, 2, 46, 0
4, 100024, Note_on_c, 2, 46, 56
4, 100124, Note_on_c, 2, 46, 0
4, 100216, Note_on_c, 2, 46, 78
4, 100320, Note_on_c, 2, 46, 0
4, 100408, Note_on_c, 2, 46, 79
4, 100512, Note_on_c, 2, 46, 0
4, 100600, Note_on_c, 2, 46, 85
4, 100708, Note_on_c, 2, 46, 0
4, 100788, Note_on_c, 2, 46, 82
4, 100900, Note_on_c, 2, 46, 0
4, 100980, Note_on_c, 2, 48, 87
4, 101100, Note_on_c, 2, 48, 0
4, 101176, Note_on_c, 2, 48, 90
4, 101300, Note_on_c, 2, 48, 0
4, 101372, Note_on_c, 2, 50, 95
4, 101524, Note_on_c, 2, 50, 0
4, 101752, Note_on_c, 2, 50, 90
4, 101888, Note_on_c, 2, 50, 0
4, 102136, Note_on_c, 2, 50, 80
4, 102244, Note_on_c, 2, 50, 0
4, 102332, Note_on_c, 2, 50, 95
4, 102440, Note_on_c, 2, 50, 0
4, 102716, Note_on_c, 2, 50, 78
4, 102800, Note_on_c, 2, 50, 0
4, 102908, Note_on_c, 2, 50, 83
4, 103004, Note_on_c, 2, 50, 0
4, 103096, Note_on_c, 2, 50, 68
4, 103188, Note_on_c, 2, 50, 0
4, 103292, Note_on_c, 2, 50, 64
4, 103384, Note_on_c, 2, 50, 0
4, 103480, Note_on_c, 2, 50, 73
4, 103572, Note_on_c, 2, 50, 0
4, 103672, Note_on_c, 2, 50, 88
4, 103772, Note_on_c, 2, 50, 0
4, 103864, Note_on_c, 2, 50, 83
4, 103956, Note_on_c, 2, 50, 0
4, 104052, Note_on_c, 2, 50, 86
4, 104148, Note_on_c, 2, 50, 0
4, 104248, Note_on_c, 2, 50, 94
4, 104356, Note_on_c, 2, 50, 0
4, 104444, Note_on_c, 2, 48, 92
4, 104580, Note_on_c, 2, 48, 0
4, 104832, Note_on_c, 2, 48, 97
4, 104976, Note_on_c, 2, 48, 0
4, 105208, Note_on_c, 2, 48, 80
4, 105300, Note_on_c, 2, 48, 0
4, 105396, Note_on_c, 2, 48, 65
4, 105492, Note_on_c, 2, 48, 0
4, 105588, Note_on_c, 2, 48, 81
4, 105680, Note_on_c, 2, 48, 0
4, 105780, Note_on_c, 2, 48, 86
4, 105872, Note_on_c, 2, 48, 0
4, 105972, Note_on_c, 2, 48, 90
4, 106076, Note_on_c, 2, 48, 0
4, 106164, Note_on_c, 2, 48, 80
4, 106264, Note_on_c, 2, 48, 0
4, 106356, Note_on_c, 2, 48, 76
4, 106448, Note_on_c, 2, 48, 0
4, 106552, Note_on_c, 2, 48, 76
4, 106632, Note_on_c, 2, 48, 0
4, 106748, Note_on_c, 2, 48, 94
4, 106884, Note_on_c, 2, 48, 0
4, 106932, Note_on_c, 2, 50, 91
4, 107068, Note_on_c, 2, 50, 0
4, 107124, Note_on_c, 2, 53, 81
4, 107296, Note_on_c, 2, 53, 0
4, 107320, Note_on_c, 2, 50, 84
4, 107428, Note_on_c, 2, 50, 0
4, 107516, Note_on_c, 2, 53, 91
4, 107656, Note_on_c, 2, 53, 0
4, 107896, Note_on_c, 2, 53, 90
4, 108036, Note_on_c, 2, 53, 0
4, 108280, Note_on_c, 2, 53, 88
4, 108376, Note_on_c, 2, 53, 0
4, 108472, Note_on_c, 2, 53, 98
4, 108596, Note_on_c, 2, 53, 0
4, 108856, Note_on_c, 2, 53, 76
4, 108936, Note_on_c, 2, 53, 0
4, 109060, Note_on_c, 2, 53, 97
4, 109188, Note_on_c, 2, 53, 0
4, 109428, Note_on_c, 2, 53, 92
4, 109520, Note_on_c, 2, 53, 0
4, 109620, Note_on_c, 2, 53, 95
4, 109704, Note_on_c, 2, 53, 0
4, 109828, Note_on_c, 2, 53, 91
4, 110012, Note_on_c, 2, 53, 0
4, 110012, Note_on_c, 2, 50, 91
4, 110204, Note_on_c, 2, 50, 0
4, 110204, Note_on_c, 2, 48, 92
4, 110380, Note_on_c, 2, 48, 0
4, 110388, Note_on_c, 2, 45, 91
4, 110564, Note_on_c, 2, 45, 0
4, 110592, Note_on_c, 2, 46, 82
4, 110756, Note_on_c, 2, 46, 0
4, 110980, Note_on_c, 2, 46, 85
4, 111136, Note_on_c, 2, 46, 0
4, 111356, Note_on_c, 2, 46, 84
4, 111468, Note_on_c, 2, 46, 0
4, 111552, Note_on_c, 2, 46, 91
4, 111652, Note_on_c, 2, 46, 0
4, 111932, Note_on_c, 2, 45, 86
4, 112108, Note_on_c, 2, 45, 0
4, 112124, Note_on_c, 2, 46, 89
4, 112248, Note_on_c, 2, 46, 0
4, 112324, Note_on_c, 2, 46, 84
4, 112428, Note_on_c, 2, 46, 0
4, 112508, Note_on_c, 2, 46, 93
4, 112660, Note_on_c, 2, 46, 0
4, 112888, Note_on_c, 2, 46, 82
4, 113012, Note_on_c, 2, 46, 0
4, 113080, Note_on_c, 2, 46, 82
4, 113236, Note_on_c, 2, 46, 0
4, 113272, Note_on_c, 2, 48, 91
4, 113404, Note_on_c, 2, 48, 0
4, 113468, Note_on_c, 2, 48, 85
4, 113596, Note_on_c, 2, 48, 0
4, 113664, Note_on_c, 2, 50, 102
4, 113796, Note_on_c, 2, 50, 0
4, 114044, Note_on_c, 2, 50, 92
4, 114156, Note_on_c, 2, 50, 0
4, 114240, Note_on_c, 2, 50, 70
4, 114344, Note_on_c, 2, 50, 0
4, 114428, Note_on_c, 2, 50, 78
4, 114536, Note_on_c, 2, 50, 0
4, 114620, Note_on_c, 2, 50, 79
4, 114724, Note_on_c, 2, 50, 0
4, 114812, Note_on_c, 2, 50, 80
4, 114920, Note_on_c, 2, 50, 0
4, 115008, Note_on_c, 2, 50, 73
4, 115104, Note_on_c, 2, 50, 0
4, 115196, Note_on_c, 2, 50, 86
4, 115304, Note_on_c, 2, 50, 0
4, 115388, Note_on_c, 2, 50, 80
4, 115492, Note_on_c, 2, 50, 0
4, 115576, Note_on_c, 2, 50, 84
4, 115692, Note_on_c, 2, 50, 0
4, 115768, Note_on_c, 2, 50, 81
4, 115880, Note_on_c, 2, 50, 0
4, 115964, Note_on_c, 2, 50, 85
4, 116084, Note_on_c, 2, 50, 0
4, 116160, Note_on_c, 2, 50, 87
4, 116276, Note_on_c, 2, 50, 0
4, 116352, Note_on_c, 2, 50, 92
4, 116464, Note_on_c, 2, 50, 0
4, 116540, Note_on_c, 2, 50, 91
4, 116676, Note_on_c, 2, 50, 0
4, 116736, Note_on_c, 2, 48, 98
4, 116888, Note_on_c, 2, 48, 0
4, 117112, Note_on_c, 2, 48, 97
4, 117252, Note_on_c, 2, 48, 0
4, 117496, Note_on_c, 2, 48, 84
4, 117600, Note_on_c, 2, 48, 0
4, 117688, Note_on_c, 2, 48, 80
4, 117800, Note_on_c, 2, 48, 0
4, 117880, Note_on_c, 2, 48, 80
4, 117988, Note_on_c, 2, 48, 0
4, 118072, Note_on_c, 2, 48, 80
4, 118184, Note_on_c, 2, 48, 0
4, 118264, Note_on_c, 2, 48, 95
4, 118400, Note_on_c, 2, 48, 0
4, 118644, Note_on_c, 2, 48, 92
4, 118796, Note_on_c, 2, 48, 0
4, 119028, Note_on_c, 2, 48, 88
4, 119140, Note_on_c, 2, 48, 0
4, 119220, Note_on_c, 2, 48, 84
4, 119328, Note_on_c, 2, 48, 0
4, 119416, Note_on_c, 2, 48, 81
4, 119516, Note_on_c, 2, 48, 0
4, 119604, Note_on_c, 2, 48, 77
4, 119724, Note_on_c, 2, 48, 0
4, 119800, Note_on_c, 2, 53, 84
4, 119972, Note_on_c, 2, 53, 0
4, 120192, Note_on_c, 2, 53, 88
4, 120332, Note_on_c, 2, 53, 0
4, 120568, Note_on_c, 2, 53, 81
4, 120688, Note_on_c, 2, 53, 0
4, 120760, Note_on_c, 2, 53, 79
4, 120884, Note_on_c, 2, 53, 0
4, 121140, Note_on_c, 2, 53, 85
4, 121264, Note_on_c, 2, 53, 0
4, 121336, Note_on_c, 2, 52, 94
4, 121500, Note_on_c, 2, 52, 0
4, 121724, Note_on_c, 2, 52, 90
4, 121856, Note_on_c, 2, 52, 0
4, 122100, Note_on_c, 2, 52, 83
4, 122208, Note_on_c, 2, 52, 0
4, 122292, Note_on_c, 2, 52, 80
4, 122456, Note_on_c, 2, 52, 0
4, 122488, Note_on_c, 2, 53, 90
4, 122644, Note_on_c, 2, 53, 0
4, 122680, Note_on_c, 2, 55, 86
4, 122844, Note_on_c, 2, 55, 0
4, 122872, Note_on_c, 2, 50, 90
4, 123040, Note_on_c, 2, 50, 0
4, 123256, Note_on_c, 2, 50, 80
4, 123392, Note_on_c, 2, 50, 0
4, 123636, Note_on_c, 2, 50, 85
4, 123760, Note_on_c, 2, 50, 0
4, 123832, Note_on_c, 2, 50, 83
4, 123936, Note_on_c, 2, 50, 0
4, 124220, Note_on_c, 2, 50, 85
4, 124332, Note_on_c, 2, 50, 0
4, 124408, Note_on_c, 2, 48, 88
4, 124568, Note_on_c, 2, 48, 0
4, 124792, Note_on_c, 2, 48, 84
4, 124932, Note_on_c, 2, 48, 0
4, 125172, Note_on_c, 2, 48, 88
4, 125356, Note_on_c, 2, 48, 0
4, 125368, Note_on_c, 2, 50, 88
4, 125560, Note_on_c, 2, 50, 0
4, 125560, Note_on_c, 2, 53, 86
4, 125684, Note_on_c, 2, 53, 0
4, 125752, Note_on_c, 2, 53, 88
4, 125828, Note_on_c, 2, 53, 0
4, 125948, Note_on_c, 2, 46, 79
4, 126076, Note_on_c, 2, 46, 0
4, 126328, Note_on_c, 2, 46, 91
4, 126464, Note_on_c, 2, 46, 0
4, 126712, Note_on_c, 2, 46, 91
4, 126816, Note_on_c, 2, 46, 0
4, 126904, Note_on_c, 2, 46, 91
4, 127044, Note_on_c, 2, 46, 0
4, 127100, Note_on_c, 2, 45, 80
4, 127284, Note_on_c, 2, 45, 0
4, 127284, Note_on_c, 2, 43, 84
4, 127452, Note_on_c, 2, 43, 0
4, 127484, Note_on_c, 2, 48, 90
4, 127648, Note_on_c, 2, 48, 0
4, 127864, Note_on_c, 2, 48, 88
4, 128036, Note_on_c, 2, 48, 0
4, 128244, Note_on_c, 2, 48, 88
4, 128416, Note_on_c, 2, 48, 0
4, 128436, Note_on_c, 2, 50, 86
4, 128628, Note_on_c, 2, 50, 0
4, 128628, Note_on_c, 2, 53, 81
4, 128800, Note_on_c, 2, 53, 0
4, 128820, Note_on_c, 2, 55, 91
4, 128904, Note_on_c, 2, 55, 0
4, 129032, Note_on_c, 2, 46, 93
4, 129160, Note_on_c, 2, 46, 0
4, 129404, Note_on_c, 2, 46, 91
4, 129512, Note_on_c, 2, 46, 0
4, 129784, Note_on_c, 2, 46, 91
4, 129896, Note_on_c, 2, 46, 0
4, 129984, Note_on_c, 2, 46, 87
4, 130104, Note_on_c, 2, 46, 0
4, 130168, Note_on_c, 2, 45, 83
4, 130328, Note_on_c, 2, 45, 0
4, 130360, Note_on_c, 2, 43, 84
4, 130528, Note_on_c, 2, 43, 0
4, 130556, Note_on_c, 2, 48, 88
4, 130680, Note_on_c, 2, 48, 0
4, 130936, Note_on_c, 2, 48, 80
4, 131124, Note_on_c, 2, 48, 0
4, 131124, Note_on_c, 2, 55, 84
4, 131296, Note_on_c, 2, 55, 0
4, 131324, Note_on_c, 2, 48, 80
4, 131476, Note_on_c, 2, 48, 0
4, 131508, Note_on_c, 2, 50, 86
4, 131672, Note_on_c, 2, 50, 0
4, 131704, Note_on_c, 2, 53, 87
4, 131896, Note_on_c, 2, 53, 0
4, 131896, Note_on_c, 2, 50, 92
4, 131996, Note_on_c, 2, 50, 0
4, 132100, Note_on_c, 2, 53, 83
4, 132248, Note_on_c, 2, 53, 0
4, 132476, Note_on_c, 2, 53, 83
4, 132628, Note_on_c, 2, 53, 0
4, 132860, Note_on_c, 2, 53, 83
4, 132964, Note_on_c, 2, 53, 0
4, 133052, Note_on_c, 2, 53, 84
4, 133168, Note_on_c, 2, 53, 0
4, 133428, Note_on_c, 2, 53, 81
4, 133552, Note_on_c, 2, 53, 0
4, 133624, Note_on_c, 2, 52, 92
4, 133748, Note_on_c, 2, 52, 0
4, 134012, Note_on_c, 2, 52, 85
4, 134144, Note_on_c, 2, 52, 0
4, 134392, Note_on_c, 2, 52, 80
4, 134508, Note_on_c, 2, 52, 0
4, 134584, Note_on_c, 2, 52, 84
4, 134720, Note_on_c, 2, 52, 0
4, 134972, Note_on_c, 2, 52, 85
4, 135088, Note_on_c, 2, 52, 0
4, 135164, Note_on_c, 2, 50, 86
4, 135292, Note_on_c, 2, 50, 0
4, 135540, Note_on_c, 2, 50, 83
4, 135708, Note_on_c, 2, 50, 0
4, 135928, Note_on_c, 2, 50, 83
4, 136028, Note_on_c, 2, 50, 0
4, 136124, Note_on_c, 2, 50, 85
4, 136248, Note_on_c, 2, 50, 0
4, 136508, Note_on_c, 2, 50, 81
4, 136612, Note_on_c, 2, 50, 0
4, 136696, Note_on_c, 2, 48, 88
4, 136852, Note_on_c, 2, 48, 0
4, 137080, Note_on_c, 2, 48, 79
4, 137232, Note_on_c, 2, 48, 0
4, 137456, Note_on_c, 2, 48, 87
4, 137616, Note_on_c, 2, 48, 0
4, 137652, Note_on_c, 2, 50, 85
4, 137844, Note_on_c, 2, 50, 0
4, 137844, Note_on_c, 2, 53, 80
4, 138036, Note_on_c, 2, 53, 0
4, 138036, Note_on_c, 2, 50, 86
4, 138124, Note_on_c, 2, 50, 0
4, 138236, Note_on_c, 2, 46, 78
4, 138408, Note_on_c, 2, 46, 0
4, 138624, Note_on_c, 2, 46, 85
4, 138752, Note_on_c, 2, 46, 0
4, 139000, Note_on_c, 2, 46, 82
4, 139128, Note_on_c, 2, 46, 0
4, 139192, Note_on_c, 2, 46, 74
4, 139328, Note_on_c, 2, 46, 0
4, 139580, Note_on_c, 2, 50, 85
4, 139716, Note_on_c, 2, 50, 0
4, 139780, Note_on_c, 2, 48, 92
4, 139908, Note_on_c, 2, 48, 0
4, 140156, Note_on_c, 2, 48, 83
4, 140348, Note_on_c, 2, 48, 0
4, 140348, Note_on_c, 2, 45, 79
4, 140500, Note_on_c, 2, 45, 0
4, 140536, Note_on_c, 2, 48, 87
4, 140732, Note_on_c, 2, 48, 0
4, 140732, Note_on_c, 2, 50, 87
4, 140880, Note_on_c, 2, 50, 0
4, 140920, Note_on_c, 2, 53, 84
4, 141072, Note_on_c, 2, 53, 0
4, 141112, Note_on_c, 2, 55, 90
4, 141200, Note_on_c, 2, 55, 0
4, 141304, Note_on_c, 2, 46, 78
4, 141500, Note_on_c, 2, 46, 0
4, 141688, Note_on_c, 2, 46, 82
4, 141884, Note_on_c, 2, 46, 0
4, 142072, Note_on_c, 2, 46, 81
4, 142180, Note_on_c, 2, 46, 0
4, 142264, Note_on_c, 2, 46, 87
4, 142396, Note_on_c, 2, 46, 0
4, 142644, Note_on_c, 2, 46, 82
4, 142748, Note_on_c, 2, 46, 0
4, 142840, Note_on_c, 2, 48, 85
4, 143064, Note_on_c, 2, 48, 0
4, 143228, Note_on_c, 2, 50, 81
4, 143376, Note_on_c, 2, 50, 0
4, 143416, Note_on_c, 2, 53, 84
4, 143536, Note_on_c, 2, 53, 0
4, 143620, Note_on_c, 2, 55, 90
4, 143800, Note_on_c, 2, 55, 0
4, 143800, Note_on_c, 2, 53, 85
4, 143960, Note_on_c, 2, 53, 0
4, 143992, Note_on_c, 2, 50, 87
4, 144172, Note_on_c, 2, 50, 0
4, 144176, Note_on_c, 2, 48, 84
4, 144284, Note_on_c, 2, 48, 0
4, 144384, Note_on_c, 2, 46, 85
4, 144480, Note_on_c, 2, 46, 0
4, 144760, Note_on_c, 2, 46, 78
4, 144920, Note_on_c, 2, 46, 0
4, 145148, Note_on_c, 2, 46, 69
4, 145252, Note_on_c, 2, 46, 0
4, 145336, Note_on_c, 2, 46, 76
4, 145472, Note_on_c, 2, 46, 0
4, 145524, Note_on_c, 2, 45, 79
4, 145692, Note_on_c, 2, 45, 0
4, 145716, Note_on_c, 2, 43, 79
4, 145840, Note_on_c, 2, 43, 0
4, 145908, Note_on_c, 2, 48, 79
4, 146188, Note_on_c, 2, 48, 0
4, 146300, Note_on_c, 2, 48, 91
4, 146436, Note_on_c, 2, 48, 0
4, 146684, Note_on_c, 2, 48, 75
4, 146796, Note_on_c, 2, 48, 0
4, 146876, Note_on_c, 2, 48, 78
4, 147032, Note_on_c, 2, 48, 0
4, 147064, Note_on_c, 2, 50, 84
4, 147252, Note_on_c, 2, 50, 0
4, 147252, Note_on_c, 2, 53, 81
4, 147376, Note_on_c, 2, 53, 0
4, 147460, Note_on_c, 2, 46, 84
4, 147576, Note_on_c, 2, 46, 0
4, 147644, Note_on_c, 2, 46, 84
4, 147776, Note_on_c, 2, 46, 0
4, 148220, Note_on_c, 2, 46, 84
4, 148316, Note_on_c, 2, 46, 0
4, 148408, Note_on_c, 2, 46, 79
4, 148560, Note_on_c, 2, 46, 0
4, 148604, Note_on_c, 2, 45, 85
4, 148772, Note_on_c, 2, 45, 0
4, 148792, Note_on_c, 2, 50, 80
4, 148936, Note_on_c, 2, 50, 0
4, 148988, Note_on_c, 2, 48, 95
4, 149124, Note_on_c, 2, 48, 0
4, 149188, Note_on_c, 2, 48, 73
4, 149316, Note_on_c, 2, 48, 0
4, 149384, Note_on_c, 2, 48, 92
4, 149544, Note_on_c, 2, 48, 0
4, 149756, Note_on_c, 2, 48, 92
4, 149904, Note_on_c, 2, 48, 0
4, 150136, Note_on_c, 2, 43, 87
4, 150332, Note_on_c, 2, 43, 0
4, 150528, Note_on_c, 2, 53, 92
4, 150696, Note_on_c, 2, 53, 0
4, 150916, Note_on_c, 2, 53, 86
4, 151068, Note_on_c, 2, 53, 0
4, 151292, Note_on_c, 2, 53, 80
4, 151412, Note_on_c, 2, 53, 0
4, 151488, Note_on_c, 2, 53, 90
4, 151616, Note_on_c, 2, 53, 0
4, 151872, Note_on_c, 2, 53, 80
4, 151984, Note_on_c, 2, 53, 0
4, 152064, Note_on_c, 2, 52, 94
4, 152204, Note_on_c, 2, 52, 0
4, 152444, Note_on_c, 2, 52, 90
4, 152596, Note_on_c, 2, 52, 0
4, 152824, Note_on_c, 2, 52, 86
4, 152948, Note_on_c, 2, 52, 0
4, 153020, Note_on_c, 2, 52, 90
4, 153172, Note_on_c, 2, 52, 0
4, 153404, Note_on_c, 2, 52, 88
4, 153516, Note_on_c, 2, 52, 0
4, 153592, Note_on_c, 2, 50, 92
4, 153748, Note_on_c, 2, 50, 0
4, 153976, Note_on_c, 2, 50, 84
4, 154128, Note_on_c, 2, 50, 0
4, 154356, Note_on_c, 2, 50, 91
4, 154484, Note_on_c, 2, 50, 0
4, 154552, Note_on_c, 2, 50, 87
4, 154668, Note_on_c, 2, 50, 0
4, 154932, Note_on_c, 2, 50, 85
4, 155032, Note_on_c, 2, 50, 0
4, 155128, Note_on_c, 2, 48, 88
4, 155320, Note_on_c, 2, 48, 0
4, 155512, Note_on_c, 2, 48, 76
4, 155616, Note_on_c, 2, 48, 0
4, 155708, Note_on_c, 2, 48, 66
4, 155784, Note_on_c, 2, 48, 0
4, 155896, Note_on_c, 2, 48, 92
4, 156052, Note_on_c, 2, 48, 0
4, 156084, Note_on_c, 2, 50, 91
4, 156276, Note_on_c, 2, 50, 0
4, 156276, Note_on_c, 2, 53, 81
4, 156436, Note_on_c, 2, 53, 0
4, 156468, Note_on_c, 2, 55, 90
4, 156552, Note_on_c, 2, 55, 0
4, 156668, Note_on_c, 2, 46, 99
4, 156784, Note_on_c, 2, 46, 0
4, 157048, Note_on_c, 2, 46, 84
4, 157176, Note_on_c, 2, 46, 0
4, 157432, Note_on_c, 2, 46, 84
4, 157560, Note_on_c, 2, 46, 0
4, 157628, Note_on_c, 2, 46, 87
4, 157736, Note_on_c, 2, 46, 0
4, 158008, Note_on_c, 2, 50, 87
4, 158136, Note_on_c, 2, 50, 0
4, 158204, Note_on_c, 2, 48, 91
4, 158360, Note_on_c, 2, 48, 0
4, 158584, Note_on_c, 2, 48, 85
4, 158700, Note_on_c, 2, 48, 0
4, 158776, Note_on_c, 2, 48, 54
4, 158816, Note_on_c, 2, 48, 0
4, 158968, Note_on_c, 2, 48, 87
4, 159140, Note_on_c, 2, 48, 0
4, 159156, Note_on_c, 2, 50, 81
4, 159348, Note_on_c, 2, 50, 0
4, 159348, Note_on_c, 2, 53, 81
4, 159528, Note_on_c, 2, 53, 0
4, 159544, Note_on_c, 2, 55, 85
4, 159724, Note_on_c, 2, 55, 0
4, 159740, Note_on_c, 2, 46, 91
4, 159896, Note_on_c, 2, 46, 0
4, 160124, Note_on_c, 2, 46, 95
4, 160292, Note_on_c, 2, 46, 0
4, 160504, Note_on_c, 2, 46, 75
4, 160624, Note_on_c, 2, 46, 0
4, 160692, Note_on_c, 2, 46, 81
4, 160836, Note_on_c, 2, 46, 0
4, 161080, Note_on_c, 2, 50, 81
4, 161220, Note_on_c, 2, 50, 0
4, 161276, Note_on_c, 2, 48, 91
4, 161416, Note_on_c, 2, 48, 0
4, 161656, Note_on_c, 2, 48, 80
4, 161816, Note_on_c, 2, 48, 0
4, 162040, Note_on_c, 2, 48, 85
4, 162228, Note_on_c, 2, 48, 0
4, 162232, Note_on_c, 2, 50, 85
4, 162424, Note_on_c, 2, 50, 0
4, 162424, Note_on_c, 2, 53, 81
4, 162592, Note_on_c, 2, 53, 0
4, 162612, Note_on_c, 2, 55, 87
4, 162752, Note_on_c, 2, 55, 0
4, 162816, Note_on_c, 2, 53, 90
4, 162988, Note_on_c, 2, 53, 0
4, 163200, Note_on_c, 2, 53, 85
4, 163352, Note_on_c, 2, 53, 0
4, 163576, Note_on_c, 2, 53, 79
4, 163688, Note_on_c, 2, 53, 0
4, 163768, Note_on_c, 2, 53, 80
4, 163924, Note_on_c, 2, 53, 0
4, 164152, Note_on_c, 2, 53, 81
4, 164284, Note_on_c, 2, 53, 0
4, 164344, Note_on_c, 2, 52, 91
4, 164500, Note_on_c, 2, 52, 0
4, 164728, Note_on_c, 2, 52, 80
4, 164872, Note_on_c, 2, 52, 0
4, 165108, Note_on_c, 2, 52, 81
4, 165220, Note_on_c, 2, 52, 0
4, 165304, Note_on_c, 2, 52, 91
4, 165448, Note_on_c, 2, 52, 0
4, 165684, Note_on_c, 2, 52, 84
4, 165820, Note_on_c, 2, 52, 0
4, 165880, Note_on_c, 2, 50, 80
4, 166012, Note_on_c, 2, 50, 0
4, 166260, Note_on_c, 2, 50, 83
4, 166416, Note_on_c, 2, 50, 0
4, 166644, Note_on_c, 2, 50, 73
4, 166740, Note_on_c, 2, 50, 0
4, 166836, Note_on_c, 2, 50, 84
4, 167008, Note_on_c, 2, 50, 0
4, 167224, Note_on_c, 2, 50, 81
4, 167340, Note_on_c, 2, 50, 0
4, 167420, Note_on_c, 2, 48, 87
4, 167560, Note_on_c, 2, 48, 0
4, 167800, Note_on_c, 2, 48, 80
4, 167980, Note_on_c, 2, 48, 0
4, 168000, Note_on_c, 2, 45, 85
4, 168176, Note_on_c, 2, 45, 0
4, 168188, Note_on_c, 2, 48, 84
4, 168384, Note_on_c, 2, 48, 0
4, 168384, Note_on_c, 2, 50, 88
4, 168552, Note_on_c, 2, 50, 0
4, 168564, Note_on_c, 2, 53, 91
4, 168756, Note_on_c, 2, 53, 0
4, 168756, Note_on_c, 2, 55, 80
4, 168888, Note_on_c, 2, 55, 0
4, 168956, Note_on_c, 2, 46, 93
4, 169144, Note_on_c, 2, 46, 0
4, 169340, Note_on_c, 2, 46, 85
4, 169468, Note_on_c, 2, 46, 0
4, 169532, Note_on_c, 2, 46, 81
4, 169632, Note_on_c, 2, 46, 0
4, 169724, Note_on_c, 2, 46, 99
4, 169884, Note_on_c, 2, 46, 0
4, 169912, Note_on_c, 2, 45, 87
4, 170004, Note_on_c, 2, 45, 0
4, 170104, Note_on_c, 2, 46, 82
4, 170196, Note_on_c, 2, 46, 0
4, 170296, Note_on_c, 2, 50, 84
4, 170460, Note_on_c, 2, 50, 0
4, 170492, Note_on_c, 2, 48, 97
4, 170632, Note_on_c, 2, 48, 0
4, 170876, Note_on_c, 2, 48, 84
4, 171064, Note_on_c, 2, 48, 0
4, 171064, Note_on_c, 2, 45, 70
4, 171256, Note_on_c, 2, 45, 0
4, 171256, Note_on_c, 2, 48, 86
4, 171452, Note_on_c, 2, 48, 0
4, 171452, Note_on_c, 2, 50, 87
4, 171628, Note_on_c, 2, 50, 0
4, 171644, Note_on_c, 2, 53, 77
4, 171832, Note_on_c, 2, 53, 0
4, 171832, Note_on_c, 2, 55, 91
4, 171956, Note_on_c, 2, 55, 0
4, 172024, Note_on_c, 2, 46, 84
4, 172244, Note_on_c, 2, 46, 0
4, 172412, Note_on_c, 2, 46, 89
4, 172612, Note_on_c, 2, 46, 0
4, 172788, Note_on_c, 2, 46, 85
4, 172892, Note_on_c, 2, 46, 0
4, 172980, Note_on_c, 2, 46, 89
4, 173156, Note_on_c, 2, 46, 0
4, 173172, Note_on_c, 2, 45, 80
4, 173360, Note_on_c, 2, 45, 0
4, 173360, Note_on_c, 2, 50, 80
4, 173524, Note_on_c, 2, 50, 0
4, 173564, Note_on_c, 2, 48, 85
4, 173748, Note_on_c, 2, 48, 0
4, 173952, Note_on_c, 2, 48, 88
4, 174144, Note_on_c, 2, 48, 0
4, 174328, Note_on_c, 2, 48, 80
4, 174444, Note_on_c, 2, 48, 0
4, 174516, Note_on_c, 2, 48, 80
4, 174708, Note_on_c, 2, 48, 0
4, 174712, Note_on_c, 2, 50, 86
4, 174900, Note_on_c, 2, 50, 0
4, 174900, Note_on_c, 2, 53, 87
4, 175040, Note_on_c, 2, 53, 0
4, 175104, Note_on_c, 2, 53, 86
4, 175292, Note_on_c, 2, 53, 0
4, 175484, Note_on_c, 2, 53, 87
4, 175664, Note_on_c, 2, 53, 0
4, 175864, Note_on_c, 2, 53, 77
4, 175992, Note_on_c, 2, 53, 0
4, 176060, Note_on_c, 2, 53, 78
4, 176204, Note_on_c, 2, 53, 0
4, 176440, Note_on_c, 2, 53, 80
4, 176572, Note_on_c, 2, 53, 0
4, 176632, Note_on_c, 2, 52, 85
4, 176816, Note_on_c, 2, 52, 0
4, 177020, Note_on_c, 2, 52, 84
4, 177164, Note_on_c, 2, 52, 0
4, 177400, Note_on_c, 2, 52, 85
4, 177532, Note_on_c, 2, 52, 0
4, 177592, Note_on_c, 2, 52, 83
4, 177736, Note_on_c, 2, 52, 0
4, 177972, Note_on_c, 2, 52, 83
4, 178112, Note_on_c, 2, 52, 0
4, 178168, Note_on_c, 2, 50, 85
4, 178324, Note_on_c, 2, 50, 0
4, 178552, Note_on_c, 2, 50, 90
4, 178732, Note_on_c, 2, 50, 0
4, 178936, Note_on_c, 2, 50, 84
4, 179076, Note_on_c, 2, 50, 0
4, 179128, Note_on_c, 2, 50, 81
4, 179268, Note_on_c, 2, 50, 0
4, 179516, Note_on_c, 2, 50, 80
4, 179660, Note_on_c, 2, 50, 0
4, 179704, Note_on_c, 2, 48, 88
4, 179908, Note_on_c, 2, 48, 0
4, 180088, Note_on_c, 2, 48, 83
4, 180372, Note_on_c, 2, 48, 0
4, 180476, Note_on_c, 2, 53, 83
4, 180596, Note_on_c, 2, 53, 0
4, 180668, Note_on_c, 2, 53, 83
4, 180832, Note_on_c, 2, 53, 0
4, 180860, Note_on_c, 2, 55, 84
4, 181044, Note_on_c, 2, 55, 0
4, 181044, Note_on_c, 2, 53, 90
4, 181116, Note_on_c, 2, 53, 0
4, 181240, Note_on_c, 2, 46, 91
4, 181400, Note_on_c, 2, 46, 0
4, 181632, Note_on_c, 2, 46, 82
4, 181772, Note_on_c, 2, 46, 0
4, 182004, Note_on_c, 2, 46, 87
4, 182192, Note_on_c, 2, 46, 0
4, 182196, Note_on_c, 2, 45, 76
4, 182384, Note_on_c, 2, 45, 0
4, 182384, Note_on_c, 2, 46, 81
4, 182572, Note_on_c, 2, 46, 0
4, 182576, Note_on_c, 2, 50, 81
4, 182740, Note_on_c, 2, 50, 0
4, 182776, Note_on_c, 2, 48, 88
4, 182924, Note_on_c, 2, 48, 0
4, 183160, Note_on_c, 2, 48, 88
4, 183332, Note_on_c, 2, 48, 0
4, 183348, Note_on_c, 2, 45, 80
4, 183540, Note_on_c, 2, 45, 0
4, 183540, Note_on_c, 2, 48, 92
4, 183716, Note_on_c, 2, 48, 0
4, 183932, Note_on_c, 2, 48, 87
4, 184092, Note_on_c, 2, 48, 0
4, 184308, Note_on_c, 2, 46, 81
4, 184496, Note_on_c, 2, 46, 0
4, 184696, Note_on_c, 2, 46, 81
4, 184868, Note_on_c, 2, 46, 0
4, 185084, Note_on_c, 2, 46, 75
4, 185208, Note_on_c, 2, 46, 0
4, 185276, Note_on_c, 2, 46, 77
4, 185436, Note_on_c, 2, 46, 0
4, 185660, Note_on_c, 2, 50, 80
4, 185820, Note_on_c, 2, 50, 0
4, 185852, Note_on_c, 2, 48, 85
4, 186092, Note_on_c, 2, 48, 0
4, 186236, Note_on_c, 2, 48, 85
4, 186364, Note_on_c, 2, 48, 0
4, 186424, Note_on_c, 2, 48, 74
4, 186544, Note_on_c, 2, 48, 0
4, 186620, Note_on_c, 2, 48, 84
4, 186824, Note_on_c, 2, 48, 0
4, 187004, Note_on_c, 2, 48, 78
4, 187104, Note_on_c, 2, 48, 0
4, 187188, Note_on_c, 2, 48, 74
4, 187320, Note_on_c, 2, 48, 0
4, 187384, Note_on_c, 2, 41, 90
4, 188340, Note_on_c, 2, 41, 0
4, 188340, End_track
5, 0, Start_track
5, 0, MIDI_port, 0
5, 0, Title_t, "GYPSY             4 "
5, 0, Program_c, 3, 74
5, 0, Control_c, 3, 10, 64
5, 0, Control_c, 3, 0, 0
5, 0, Control_c, 3, 93, 20
5, 456, Control_c, 3, 7, 108
5, 456, Control_c, 3, 11, 127
5, 16128, Note_on_c, 3, 69, 104
5, 16132, Control_c, 3, 1, 0
5, 16132, Pitch_bend_c, 3, 8192
5, 16320, Note_on_c, 3, 69, 0
5, 16324, Note_on_c, 3, 72, 94
5, 16500, Note_on_c, 3, 72, 0
5, 16520, Note_on_c, 3, 74, 93
5, 16940, Note_on_c, 3, 74, 0
5, 17660, Note_on_c, 3, 65, 89
5, 17800, Note_on_c, 3, 65, 0
5, 17848, Note_on_c, 3, 65, 79
5, 18036, Note_on_c, 3, 65, 0
5, 18044, Note_on_c, 3, 69, 95
5, 18368, Note_on_c, 3, 69, 0
5, 18436, Note_on_c, 3, 69, 90
5, 19296, Note_on_c, 3, 69, 0
5, 20728, Note_on_c, 3, 67, 90
5, 20888, Note_on_c, 3, 67, 0
5, 20924, Note_on_c, 3, 67, 75
5, 21040, Note_on_c, 3, 67, 0
5, 21116, Note_on_c, 3, 67, 100
5, 21316, Note_on_c, 3, 67, 0
5, 21316, Note_on_c, 3, 65, 82
5, 21492, Note_on_c, 3, 65, 0
5, 21892, Note_on_c, 3, 65, 104
5, 22136, Note_on_c, 3, 65, 0
5, 22268, Note_on_c, 3, 65, 99
5, 22420, Note_on_c, 3, 65, 0
5, 22464, Note_on_c, 3, 65, 85
5, 22652, Note_on_c, 3, 65, 0
5, 22652, Note_on_c, 3, 69, 96
5, 23048, Note_on_c, 3, 69, 0
5, 25332, Note_on_c, 3, 65, 101
5, 25460, Note_on_c, 3, 65, 0
5, 25532, Note_on_c, 3, 65, 94
5, 25716, Note_on_c, 3, 65, 0
5, 25732, Note_on_c, 3, 69, 106
5, 26880, Note_on_c, 3, 69, 0
5, 28408, Note_on_c, 3, 69, 96
5, 28600, Note_on_c, 3, 69, 0
5, 28600, Note_on_c, 3, 72, 104
5, 28800, Note_on_c, 3, 72, 0
5, 28808, Note_on_c, 3, 74, 99
5, 29268, Note_on_c, 3, 74, 0
5, 29756, Note_on_c, 3, 65, 87
5, 29928, Note_on_c, 3, 65, 0
5, 29944, Note_on_c, 3, 69, 99
5, 30252, Note_on_c, 3, 69, 0
5, 30336, Note_on_c, 3, 69, 100
5, 31100, Note_on_c, 3, 69, 0
5, 31288, Note_on_c, 3, 67, 79
5, 31404, Note_on_c, 3, 67, 0
5, 31484, Note_on_c, 3, 67, 84
5, 31652, Note_on_c, 3, 67, 0
5, 31688, Note_on_c, 3, 67, 93
5, 32064, Note_on_c, 3, 67, 0
5, 32080, Note_on_c, 3, 67, 96
5, 32420, Note_on_c, 3, 67, 0
5, 32440, Note_on_c, 3, 65, 83
5, 32588, Note_on_c, 3, 65, 0
5, 32636, Note_on_c, 3, 65, 92
5, 33388, Note_on_c, 3, 65, 0
5, 34172, Note_on_c, 3, 65, 100
5, 34420, Note_on_c, 3, 65, 0
5, 34552, Note_on_c, 3, 65, 99
5, 34828, Note_on_c, 3, 65, 0
5, 34936, Note_on_c, 3, 65, 90
5, 35140, Note_on_c, 3, 65, 0
5, 35144, Note_on_c, 3, 69, 103
5, 35456, Note_on_c, 3, 69, 0
5, 35520, Note_on_c, 3, 69, 100
5, 36532, Note_on_c, 3, 69, 0
5, 37620, Note_on_c, 3, 65, 95
5, 37748, Note_on_c, 3, 65, 0
5, 37816, Note_on_c, 3, 65, 95
5, 37980, Note_on_c, 3, 65, 0
5, 38008, Note_on_c, 3, 69, 101
5, 38584, Note_on_c, 3, 69, 0
5, 38600, Note_on_c, 3, 67, 111
5, 39096, Note_on_c, 3, 67, 0
5, 39160, Note_on_c, 3, 69, 103
5, 39544, Note_on_c, 3, 69, 0
5, 39548, Note_on_c, 3, 67, 96
5, 39636, Note_on_c, 3, 67, 0
5, 39744, Note_on_c, 3, 67, 111
5, 40136, Note_on_c, 3, 67, 0
5, 40136, Note_on_c, 3, 65, 96
5, 41056, Note_on_c, 3, 65, 0
5, 42228, Note_on_c, 3, 67, 96
5, 42364, Note_on_c, 3, 67, 0
5, 42424, Note_on_c, 3, 67, 115
5, 42780, Note_on_c, 3, 67, 0
5, 42796, Note_on_c, 3, 65, 85
5, 42996, Note_on_c, 3, 65, 0
5, 42996, Note_on_c, 3, 67, 93
5, 43388, Note_on_c, 3, 67, 0
5, 43388, Note_on_c, 3, 65, 97
5, 45816, Note_on_c, 3, 65, 0
5, 49144, Note_on_c, 3, 77, 104
5, 49504, Note_on_c, 3, 77, 0
5, 49532, Note_on_c, 3, 77, 109
5, 49652, Note_on_c, 3, 77, 0
5, 49924, Note_on_c, 3, 77, 99
5, 50292, Note_on_c, 3, 77, 0
5, 50300, Note_on_c, 3, 74, 90
5, 50388, Note_on_c, 3, 74, 0
5, 50504, Note_on_c, 3, 77, 111
5, 51004, Note_on_c, 3, 77, 0
5, 51064, Note_on_c, 3, 77, 103
5, 51160, Note_on_c, 3, 77, 0
5, 51448, Note_on_c, 3, 77, 97
5, 51740, Note_on_c, 3, 77, 0
5, 56052, Note_on_c, 3, 69, 109
5, 56244, Note_on_c, 3, 69, 0
5, 56244, Note_on_c, 3, 72, 99
5, 56440, Note_on_c, 3, 72, 0
5, 56440, Note_on_c, 3, 74, 97
5, 56692, Note_on_c, 3, 74, 0
5, 56820, Note_on_c, 3, 74, 93
5, 57180, Note_on_c, 3, 74, 0
5, 57412, Note_on_c, 3, 74, 104
5, 57776, Note_on_c, 3, 74, 0
5, 57784, Note_on_c, 3, 65, 81
5, 57960, Note_on_c, 3, 65, 0
5, 57972, Note_on_c, 3, 69, 95
5, 58812, Note_on_c, 3, 69, 0
5, 59320, Note_on_c, 3, 77, 99
5, 59412, Note_on_c, 3, 77, 0
5, 59512, Note_on_c, 3, 77, 97
5, 59592, Note_on_c, 3, 77, 0
5, 59708, Note_on_c, 3, 77, 117
5, 60088, Note_on_c, 3, 77, 0
5, 60088, Note_on_c, 3, 74, 97
5, 60280, Note_on_c, 3, 74, 0
5, 60280, Note_on_c, 3, 72, 92
5, 60364, Note_on_c, 3, 72, 0
5, 60472, Note_on_c, 3, 72, 104
5, 61040, Note_on_c, 3, 72, 0
5, 61044, Note_on_c, 3, 74, 95
5, 61236, Note_on_c, 3, 74, 0
5, 61816, Note_on_c, 3, 77, 104
5, 62188, Note_on_c, 3, 77, 0
5, 62200, Note_on_c, 3, 74, 107
5, 62584, Note_on_c, 3, 74, 0
5, 62584, Note_on_c, 3, 72, 92
5, 63072, Note_on_c, 3, 72, 0
5, 63736, Note_on_c, 3, 72, 107
5, 63932, Note_on_c, 3, 72, 0
5, 63932, Note_on_c, 3, 74, 101
5, 64136, Note_on_c, 3, 74, 0
5, 64136, Note_on_c, 3, 77, 107
5, 64856, Note_on_c, 3, 77, 0
5, 65268, Note_on_c, 3, 74, 83
5, 65388, Note_on_c, 3, 74, 0
5, 65460, Note_on_c, 3, 74, 82
5, 65580, Note_on_c, 3, 74, 0
5, 65652, Note_on_c, 3, 74, 107
5, 65848, Note_on_c, 3, 74, 0
5, 65848, Note_on_c, 3, 72, 95
5, 66308, Note_on_c, 3, 72, 0
5, 67380, Note_on_c, 3, 81, 103
5, 67680, Note_on_c, 3, 81, 0
5, 67680, Note_on_c, 3, 79, 89
5, 67776, Note_on_c, 3, 79, 0
5, 67776, Note_on_c, 3, 77, 87
5, 67948, Note_on_c, 3, 77, 0
5, 67972, Note_on_c, 3, 77, 93
5, 68136, Note_on_c, 3, 77, 0
5, 68164, Note_on_c, 3, 77, 82
5, 68296, Note_on_c, 3, 77, 0
5, 68348, Note_on_c, 3, 77, 106
5, 68752, Note_on_c, 3, 77, 0
5, 68928, Note_on_c, 3, 79, 97
5, 69300, Note_on_c, 3, 79, 0
5, 69300, Note_on_c, 3, 81, 89
5, 69424, Note_on_c, 3, 81, 0
5, 69492, Note_on_c, 3, 81, 84
5, 69648, Note_on_c, 3, 81, 0
5, 69688, Note_on_c, 3, 79, 94
5, 69880, Note_on_c, 3, 79, 0
5, 69880, Note_on_c, 3, 77, 88
5, 71868, Note_on_c, 3, 77, 0
5, 72376, Note_on_c, 3, 77, 94
5, 72532, Note_on_c, 3, 77, 0
5, 72580, Note_on_c, 3, 77, 90
5, 72912, Note_on_c, 3, 77, 0
5, 72956, Note_on_c, 3, 77, 86
5, 73288, Note_on_c, 3, 77, 0
5, 73336, Note_on_c, 3, 77, 89
5, 73672, Note_on_c, 3, 77, 0
5, 73720, Note_on_c, 3, 77, 87
5, 74012, Note_on_c, 3, 77, 0
5, 74112, Note_on_c, 3, 77, 86
5, 75008, Note_on_c, 3, 77, 0
5, 78712, Note_on_c, 3, 81, 106
5, 78972, Note_on_c, 3, 81, 0
5, 79096, Note_on_c, 3, 81, 99
5, 79284, Note_on_c, 3, 81, 0
5, 79284, Note_on_c, 3, 79, 94
5, 79480, Note_on_c, 3, 79, 0
5, 79480, Note_on_c, 3, 77, 97
5, 79772, Note_on_c, 3, 77, 0
5, 79864, Note_on_c, 3, 77, 97
5, 80096, Note_on_c, 3, 77, 0
5, 80252, Note_on_c, 3, 77, 101
5, 81180, Note_on_c, 3, 77, 0
5, 88696, Note_on_c, 3, 72, 106
5, 88840, Note_on_c, 3, 72, 0
5, 88888, Note_on_c, 3, 72, 97
5, 89080, Note_on_c, 3, 72, 0
5, 89080, Note_on_c, 3, 74, 103
5, 89288, Note_on_c, 3, 74, 0
5, 89460, Note_on_c, 3, 74, 106
5, 90424, Note_on_c, 3, 74, 0
5, 91392, Note_on_c, 3, 69, 106
5, 91752, Note_on_c, 3, 69, 0
5, 91764, Note_on_c, 3, 70, 95
5, 91960, Note_on_c, 3, 70, 0
5, 91960, Note_on_c, 3, 72, 97
5, 93544, Note_on_c, 3, 72, 0
5, 94200, Note_on_c, 3, 65, 66
5, 94428, Note_on_c, 3, 65, 0
5, 94456, Note_on_c, 3, 65, 119
5, 94836, Note_on_c, 3, 65, 0
5, 94836, Note_on_c, 3, 67, 99
5, 95220, Note_on_c, 3, 67, 0
5, 95220, Note_on_c, 3, 69, 97
5, 95600, Note_on_c, 3, 69, 0
5, 95620, Note_on_c, 3, 69, 107
5, 96364, Note_on_c, 3, 69, 0
5, 97160, Note_on_c, 3, 65, 104
5, 97300, Note_on_c, 3, 65, 0
5, 97340, Note_on_c, 3, 65, 89
5, 97512, Note_on_c, 3, 65, 0
5, 97528, Note_on_c, 3, 69, 95
5, 97700, Note_on_c, 3, 69, 0
5, 97732, Note_on_c, 3, 69, 111
5, 98072, Note_on_c, 3, 69, 0
5, 98296, Note_on_c, 3, 70, 110
5, 99500, Note_on_c, 3, 70, 0
5, 100220, Note_on_c, 3, 77, 107
5, 100404, Note_on_c, 3, 77, 0
5, 100412, Note_on_c, 3, 76, 104
5, 100764, Note_on_c, 3, 76, 0
5, 100792, Note_on_c, 3, 77, 106
5, 101172, Note_on_c, 3, 77, 0
5, 101176, Note_on_c, 3, 74, 100
5, 102544, Note_on_c, 3, 74, 0
5, 103292, Note_on_c, 3, 81, 100
5, 103660, Note_on_c, 3, 81, 0
5, 103672, Note_on_c, 3, 79, 99
5, 104060, Note_on_c, 3, 79, 0
5, 104060, Note_on_c, 3, 77, 94
5, 104436, Note_on_c, 3, 77, 0
5, 104440, Note_on_c, 3, 79, 92
5, 105812, Note_on_c, 3, 79, 0
5, 106364, Note_on_c, 3, 81, 106
5, 106500, Note_on_c, 3, 81, 0
5, 106552, Note_on_c, 3, 81, 88
5, 106684, Note_on_c, 3, 81, 0
5, 106744, Note_on_c, 3, 81, 103
5, 106936, Note_on_c, 3, 81, 0
5, 106936, Note_on_c, 3, 79, 103
5, 107128, Note_on_c, 3, 79, 0
5, 107128, Note_on_c, 3, 77, 95
5, 107288, Note_on_c, 3, 77, 0
5, 107320, Note_on_c, 3, 77, 107
5, 107684, Note_on_c, 3, 77, 0
5, 107708, Note_on_c, 3, 77, 88
5, 107860, Note_on_c, 3, 77, 0
5, 107900, Note_on_c, 3, 77, 89
5, 109028, Note_on_c, 3, 77, 0
5, 109444, Note_on_c, 3, 81, 99
5, 109568, Note_on_c, 3, 81, 0
5, 109628, Note_on_c, 3, 81, 88
5, 109752, Note_on_c, 3, 81, 0
5, 109816, Note_on_c, 3, 81, 104
5, 110008, Note_on_c, 3, 81, 0
5, 110008, Note_on_c, 3, 79, 99
5, 110196, Note_on_c, 3, 79, 0
5, 110196, Note_on_c, 3, 77, 95
5, 110388, Note_on_c, 3, 77, 0
5, 110388, Note_on_c, 3, 79, 107
5, 110736, Note_on_c, 3, 79, 0
5, 110776, Note_on_c, 3, 79, 90
5, 110920, Note_on_c, 3, 79, 0
5, 110968, Note_on_c, 3, 79, 100
5, 112052, Note_on_c, 3, 79, 0
5, 112504, Note_on_c, 3, 79, 109
5, 112696, Note_on_c, 3, 79, 0
5, 112696, Note_on_c, 3, 77, 100
5, 113016, Note_on_c, 3, 77, 0
5, 113080, Note_on_c, 3, 77, 96
5, 113416, Note_on_c, 3, 77, 0
5, 113464, Note_on_c, 3, 79, 103
5, 113852, Note_on_c, 3, 79, 0
5, 113852, Note_on_c, 3, 77, 93
5, 114000, Note_on_c, 3, 77, 0
5, 114044, Note_on_c, 3, 77, 104
5, 115212, Note_on_c, 3, 77, 0
5, 115580, Note_on_c, 3, 81, 101
5, 115760, Note_on_c, 3, 81, 0
5, 115772, Note_on_c, 3, 79, 109
5, 116136, Note_on_c, 3, 79, 0
5, 116160, Note_on_c, 3, 77, 101
5, 116628, Note_on_c, 3, 77, 0
5, 116924, Note_on_c, 3, 81, 109
5, 118644, Note_on_c, 3, 81, 0
5, 118648, Note_on_c, 3, 79, 101
5, 119800, Note_on_c, 3, 79, 0
5, 119800, Note_on_c, 3, 77, 92
5, 120144, Note_on_c, 3, 77, 0
5, 120568, Note_on_c, 3, 69, 117
5, 120760, Note_on_c, 3, 69, 0
5, 120760, Note_on_c, 3, 72, 101
5, 120952, Note_on_c, 3, 72, 0
5, 120952, Note_on_c, 3, 74, 99
5, 121224, Note_on_c, 3, 74, 0
5, 121340, Note_on_c, 3, 74, 90
5, 121872, Note_on_c, 3, 74, 0
5, 122296, Note_on_c, 3, 65, 97
5, 122488, Note_on_c, 3, 65, 0
5, 122488, Note_on_c, 3, 69, 101
5, 123332, Note_on_c, 3, 69, 0
5, 123652, Note_on_c, 3, 67, 107
5, 123804, Note_on_c, 3, 67, 0
5, 123840, Note_on_c, 3, 67, 94
5, 123988, Note_on_c, 3, 67, 0
5, 124032, Note_on_c, 3, 67, 109
5, 124216, Note_on_c, 3, 67, 0
5, 124216, Note_on_c, 3, 65, 106
5, 124596, Note_on_c, 3, 65, 0
5, 126328, Note_on_c, 3, 77, 100
5, 126476, Note_on_c, 3, 77, 0
5, 126520, Note_on_c, 3, 77, 89
5, 126652, Note_on_c, 3, 77, 0
5, 126716, Note_on_c, 3, 77, 103
5, 127084, Note_on_c, 3, 77, 0
5, 127104, Note_on_c, 3, 74, 92
5, 127300, Note_on_c, 3, 74, 0
5, 127300, Note_on_c, 3, 72, 94
5, 127720, Note_on_c, 3, 72, 0
5, 128248, Note_on_c, 3, 72, 103
5, 128440, Note_on_c, 3, 72, 0
5, 128440, Note_on_c, 3, 74, 97
5, 128632, Note_on_c, 3, 74, 0
5, 128632, Note_on_c, 3, 77, 100
5, 128980, Note_on_c, 3, 77, 0
5, 129788, Note_on_c, 3, 74, 111
5, 130180, Note_on_c, 3, 74, 0
5, 130180, Note_on_c, 3, 72, 97
5, 130592, Note_on_c, 3, 72, 0
5, 133240, Note_on_c, 3, 69, 103
5, 133428, Note_on_c, 3, 69, 0
5, 133428, Note_on_c, 3, 72, 95
5, 133628, Note_on_c, 3, 72, 0
5, 133628, Note_on_c, 3, 74, 99
5, 133776, Note_on_c, 3, 74, 0
5, 133812, Note_on_c, 3, 74, 94
5, 133940, Note_on_c, 3, 74, 0
5, 134008, Note_on_c, 3, 74, 93
5, 134200, Note_on_c, 3, 74, 0
5, 134200, Note_on_c, 3, 65, 87
5, 134396, Note_on_c, 3, 65, 0
5, 134396, Note_on_c, 3, 67, 99
5, 134716, Note_on_c, 3, 67, 0
5, 134780, Note_on_c, 3, 67, 107
5, 134980, Note_on_c, 3, 67, 0
5, 134980, Note_on_c, 3, 65, 89
5, 135240, Note_on_c, 3, 65, 0
5, 135548, Note_on_c, 3, 72, 106
5, 135928, Note_on_c, 3, 72, 0
5, 135928, Note_on_c, 3, 67, 93
5, 136052, Note_on_c, 3, 67, 0
5, 136120, Note_on_c, 3, 67, 83
5, 136212, Note_on_c, 3, 67, 0
5, 136308, Note_on_c, 3, 67, 94
5, 136504, Note_on_c, 3, 67, 0
5, 136504, Note_on_c, 3, 65, 100
5, 136692, Note_on_c, 3, 65, 0
5, 137084, Note_on_c, 3, 77, 99
5, 137408, Note_on_c, 3, 77, 0
5, 137464, Note_on_c, 3, 77, 96
5, 137792, Note_on_c, 3, 77, 0
5, 137844, Note_on_c, 3, 77, 92
5, 138176, Note_on_c, 3, 77, 0
5, 138228, Note_on_c, 3, 77, 89
5, 138572, Note_on_c, 3, 77, 0
5, 138612, Note_on_c, 3, 77, 99
5, 139480, Note_on_c, 3, 77, 0
5, 143220, Note_on_c, 3, 81, 89
5, 143296, Note_on_c, 3, 81, 0
5, 143416, Note_on_c, 3, 81, 101
5, 143800, Note_on_c, 3, 81, 0
5, 143800, Note_on_c, 3, 79, 95
5, 143992, Note_on_c, 3, 79, 0
5, 143992, Note_on_c, 3, 77, 101
5, 144324, Note_on_c, 3, 77, 0
5, 144376, Note_on_c, 3, 77, 100
5, 144724, Note_on_c, 3, 77, 0
5, 144772, Note_on_c, 3, 77, 107
5, 145580, Note_on_c, 3, 77, 0
5, 147448, Note_on_c, 3, 77, 97
5, 148796, Note_on_c, 3, 77, 0
5, 148796, Note_on_c, 3, 76, 99
5, 149584, Note_on_c, 3, 76, 0
5, 149760, Note_on_c, 3, 81, 106
5, 150468, Note_on_c, 3, 81, 0
5, 150532, Note_on_c, 3, 81, 99
5, 150616, Note_on_c, 3, 79, 101
5, 150628, Note_on_c, 3, 81, 0
5, 150712, Note_on_c, 3, 79, 0
5, 150712, Note_on_c, 3, 77, 89
5, 154204, Note_on_c, 3, 77, 0
5, 154740, Note_on_c, 3, 77, 109
5, 154928, Note_on_c, 3, 77, 0
5, 154928, Note_on_c, 3, 79, 100
5, 155132, Note_on_c, 3, 79, 0
5, 155132, Note_on_c, 3, 81, 95
5, 155700, Note_on_c, 3, 81, 0
5, 155704, Note_on_c, 3, 79, 94
5, 156044, Note_on_c, 3, 79, 0
5, 156092, Note_on_c, 3, 79, 103
5, 156284, Note_on_c, 3, 79, 0
5, 156288, Note_on_c, 3, 77, 104
5, 156632, Note_on_c, 3, 77, 0
5, 156668, Note_on_c, 3, 76, 96
5, 156860, Note_on_c, 3, 76, 0
5, 156860, Note_on_c, 3, 74, 94
5, 158016, Note_on_c, 3, 74, 0
5, 158016, Note_on_c, 3, 72, 96
5, 159284, Note_on_c, 3, 72, 0
5, 162812, Note_on_c, 3, 77, 100
5, 164340, Note_on_c, 3, 77, 0
5, 164352, Note_on_c, 3, 79, 94
5, 165856, Note_on_c, 3, 79, 0
5, 165880, Note_on_c, 3, 77, 86
5, 166744, Note_on_c, 3, 77, 0
5, 167032, Note_on_c, 3, 77, 104
5, 167136, Note_on_c, 3, 77, 0
5, 167224, Note_on_c, 3, 77, 107
5, 167416, Note_on_c, 3, 77, 0
5, 167416, Note_on_c, 3, 76, 93
5, 167748, Note_on_c, 3, 76, 0
5, 167804, Note_on_c, 3, 76, 100
5, 168148, Note_on_c, 3, 76, 0
5, 168184, Note_on_c, 3, 77, 96
5, 168756, Note_on_c, 3, 77, 0
5, 168760, Note_on_c, 3, 76, 95
5, 169100, Note_on_c, 3, 76, 0
5, 169148, Note_on_c, 3, 76, 100
5, 169524, Note_on_c, 3, 76, 0
5, 169524, Note_on_c, 3, 74, 85
5, 170036, Note_on_c, 3, 74, 0
5, 173556, Note_on_c, 3, 81, 103
5, 174140, Note_on_c, 3, 81, 0
5, 174140, Note_on_c, 3, 79, 101
5, 174884, Note_on_c, 3, 79, 0
5, 174900, Note_on_c, 3, 77, 96
5, 176968, Note_on_c, 3, 77, 0
5, 179892, Note_on_c, 3, 77, 89
5, 180052, Note_on_c, 3, 77, 0
5, 180084, Note_on_c, 3, 81, 96
5, 180472, Note_on_c, 3, 81, 0
5, 180472, Note_on_c, 3, 79, 99
5, 180664, Note_on_c, 3, 79, 0
5, 180664, Note_on_c, 3, 77, 95
5, 180824, Note_on_c, 3, 77, 0
5, 180856, Note_on_c, 3, 77, 99
5, 181188, Note_on_c, 3, 77, 0
5, 181432, Note_on_c, 3, 77, 84
5, 181560, Note_on_c, 3, 77, 0
5, 181624, Note_on_c, 3, 81, 95
5, 181972, Note_on_c, 3, 81, 0
5, 182008, Note_on_c, 3, 81, 89
5, 182200, Note_on_c, 3, 81, 0
5, 182200, Note_on_c, 3, 79, 93
5, 182392, Note_on_c, 3, 79, 0
5, 182392, Note_on_c, 3, 77, 93
5, 182876, Note_on_c, 3, 77, 0
5, 182876, End_track
6, 0, Start_track
6, 0, MIDI_port, 0
6, 0, Title_t, "GYPSY             5 "
6, 0, Program_c, 5, 54
6, 0, Control_c, 5, 10, 58
6, 0, Control_c, 5, 0, 0
6, 0, Control_c, 5, 93, 64
6, 476, Control_c, 5, 7, 100
6, 476, Control_c, 5, 11, 127
6, 9212, Note_on_c, 5, 65, 79
6, 9212, Note_on_c, 5, 69, 80
6, 9212, Note_on_c, 5, 62, 75
6, 9216, Control_c, 5, 1, 0
6, 9216, Pitch_bend_c, 5, 8192
6, 10704, Note_on_c, 5, 65, 0
6, 10744, Note_on_c, 5, 60, 87
6, 10748, Note_on_c, 5, 69, 0
6, 10756, Note_on_c, 5, 62, 0
6, 10756, Note_on_c, 5, 67, 72
6, 10756, Note_on_c, 5, 64, 74
6, 12196, Note_on_c, 5, 67, 0
6, 12208, Note_on_c, 5, 64, 0
6, 12228, Note_on_c, 5, 60, 0
6, 12264, Note_on_c, 5, 62, 80
6, 12268, Note_on_c, 5, 69, 93
6, 12268, Note_on_c, 5, 65, 92
6, 13772, Note_on_c, 5, 65, 0
6, 13804, Note_on_c, 5, 69, 0
6, 13808, Note_on_c, 5, 60, 80
6, 13812, Note_on_c, 5, 64, 86
6, 13816, Note_on_c, 5, 67, 80
6, 13844, Note_on_c, 5, 62, 0
6, 15348, Note_on_c, 5, 67, 0
6, 15352, Note_on_c, 5, 64, 0
6, 15412, Note_on_c, 5, 60, 0
6, 21484, Note_on_c, 5, 65, 90
6, 21484, Note_on_c, 5, 69, 95
6, 21484, Note_on_c, 5, 62, 89
6, 22984, Note_on_c, 5, 65, 0
6, 23004, Note_on_c, 5, 69, 0
6, 23028, Note_on_c, 5, 62, 0
6, 23028, Note_on_c, 5, 64, 79
6, 23028, Note_on_c, 5, 67, 81
6, 23036, Note_on_c, 5, 60, 90
6, 24488, Note_on_c, 5, 67, 0
6, 24520, Note_on_c, 5, 64, 0
6, 24548, Note_on_c, 5, 60, 0
6, 24548, Note_on_c, 5, 62, 75
6, 24548, Note_on_c, 5, 65, 92
6, 24548, Note_on_c, 5, 69, 95
6, 26040, Note_on_c, 5, 65, 0
6, 26056, Note_on_c, 5, 69, 0
6, 26088, Note_on_c, 5, 62, 0
6, 26092, Note_on_c, 5, 64, 81
6, 26096, Note_on_c, 5, 67, 78
6, 26100, Note_on_c, 5, 60, 79
6, 27480, Note_on_c, 5, 67, 0
6, 27488, Note_on_c, 5, 60, 0
6, 27492, Note_on_c, 5, 64, 0
6, 33780, Note_on_c, 5, 65, 92
6, 33784, Note_on_c, 5, 69, 90
6, 33784, Note_on_c, 5, 62, 89
6, 35260, Note_on_c, 5, 65, 0
6, 35308, Note_on_c, 5, 69, 0
6, 35308, Note_on_c, 5, 60, 80
6, 35320, Note_on_c, 5, 64, 82
6, 35320, Note_on_c, 5, 67, 82
6, 35332, Note_on_c, 5, 62, 0
6, 36760, Note_on_c, 5, 67, 0
6, 36796, Note_on_c, 5, 64, 0
6, 36816, Note_on_c, 5, 60, 0
6, 36844, Note_on_c, 5, 69, 92
6, 36844, Note_on_c, 5, 62, 79
6, 36844, Note_on_c, 5, 65, 86
6, 38368, Note_on_c, 5, 65, 0
6, 38380, Note_on_c, 5, 69, 0
6, 38404, Note_on_c, 5, 60, 75
6, 38412, Note_on_c, 5, 64, 85
6, 38416, Note_on_c, 5, 67, 80
6, 38428, Note_on_c, 5, 62, 0
6, 39860, Note_on_c, 5, 67, 0
6, 39896, Note_on_c, 5, 64, 0
6, 39904, Note_on_c, 5, 60, 0
6, 39916, Note_on_c, 5, 62, 79
6, 39920, Note_on_c, 5, 69, 92
6, 39920, Note_on_c, 5, 65, 86
6, 41396, Note_on_c, 5, 65, 0
6, 41412, Note_on_c, 5, 69, 0
6, 41440, Note_on_c, 5, 60, 75
6, 41440, Note_on_c, 5, 64, 85
6, 41452, Note_on_c, 5, 67, 75
6, 41472, Note_on_c, 5, 62, 0
6, 42784, Note_on_c, 5, 60, 0
6, 42804, Note_on_c, 5, 67, 0
6, 42820, Note_on_c, 5, 64, 0
6, 49140, Note_on_c, 5, 62, 82
6, 49144, Note_on_c, 5, 65, 86
6, 49144, Note_on_c, 5, 69, 92
6, 50604, Note_on_c, 5, 65, 0
6, 50652, Note_on_c, 5, 64, 78
6, 50656, Note_on_c, 5, 60, 86
6, 50656, Note_on_c, 5, 67, 73
6, 50660, Note_on_c, 5, 62, 0
6, 50676, Note_on_c, 5, 69, 0
6, 52140, Note_on_c, 5, 67, 0
6, 52168, Note_on_c, 5, 64, 0
6, 52172, Note_on_c, 5, 60, 0
6, 52196, Note_on_c, 5, 65, 76
6, 52196, Note_on_c, 5, 69, 80
6, 52196, Note_on_c, 5, 62, 79
6, 53688, Note_on_c, 5, 65, 0
6, 53704, Note_on_c, 5, 69, 0
6, 53716, Note_on_c, 5, 62, 0
6, 53728, Note_on_c, 5, 60, 82
6, 53736, Note_on_c, 5, 64, 83
6, 53744, Note_on_c, 5, 67, 75
6, 55276, Note_on_c, 5, 67, 0
6, 55284, Note_on_c, 5, 64, 0
6, 55296, Note_on_c, 5, 60, 0
6, 61428, Note_on_c, 5, 65, 97
6, 61432, Note_on_c, 5, 62, 93
6, 61432, Note_on_c, 5, 69, 95
6, 62928, Note_on_c, 5, 65, 0
6, 62960, Note_on_c, 5, 60, 82
6, 62968, Note_on_c, 5, 67, 76
6, 62972, Note_on_c, 5, 64, 83
6, 62988, Note_on_c, 5, 62, 0
6, 62992, Note_on_c, 5, 69, 0
6, 64468, Note_on_c, 5, 67, 0
6, 64496, Note_on_c, 5, 65, 75
6, 64500, Note_on_c, 5, 62, 75
6, 64500, Note_on_c, 5, 69, 93
6, 64524, Note_on_c, 5, 60, 0
6, 64528, Note_on_c, 5, 64, 0
6, 66000, Note_on_c, 5, 65, 0
6, 66044, Note_on_c, 5, 64, 82
6, 66052, Note_on_c, 5, 60, 85
6, 66052, Note_on_c, 5, 67, 75
6, 66080, Note_on_c, 5, 69, 0
6, 66084, Note_on_c, 5, 62, 0
6, 67524, Note_on_c, 5, 60, 0
6, 67568, Note_on_c, 5, 67, 0
6, 67592, Note_on_c, 5, 64, 0
6, 73708, Note_on_c, 5, 65, 93
6, 73708, Note_on_c, 5, 62, 90
6, 73708, Note_on_c, 5, 69, 99
6, 75232, Note_on_c, 5, 65, 0
6, 75240, Note_on_c, 5, 64, 78
6, 75248, Note_on_c, 5, 67, 75
6, 75248, Note_on_c, 5, 60, 89
6, 75276, Note_on_c, 5, 62, 0
6, 75288, Note_on_c, 5, 69, 0
6, 76716, Note_on_c, 5, 67, 0
6, 76764, Note_on_c, 5, 65, 74
6, 76768, Note_on_c, 5, 69, 81
6, 76768, Note_on_c, 5, 62, 79
6, 76776, Note_on_c, 5, 64, 0
6, 76776, Note_on_c, 5, 60, 0
6, 78268, Note_on_c, 5, 65, 0
6, 78304, Note_on_c, 5, 69, 0
6, 78320, Note_on_c, 5, 60, 81
6, 78324, Note_on_c, 5, 64, 74
6, 78328, Note_on_c, 5, 67, 68
6, 78332, Note_on_c, 5, 62, 0
6, 79828, Note_on_c, 5, 67, 0
6, 79848, Note_on_c, 5, 60, 0
6, 79864, Note_on_c, 5, 62, 81
6, 79864, Note_on_c, 5, 69, 82
6, 79864, Note_on_c, 5, 65, 86
6, 79888, Note_on_c, 5, 64, 0
6, 81348, Note_on_c, 5, 65, 0
6, 81384, Note_on_c, 5, 60, 86
6, 81384, Note_on_c, 5, 64, 85
6, 81384, Note_on_c, 5, 67, 75
6, 81400, Note_on_c, 5, 69, 0
6, 81408, Note_on_c, 5, 62, 0
6, 82880, Note_on_c, 5, 60, 0
6, 82888, Note_on_c, 5, 64, 0
6, 82900, Note_on_c, 5, 67, 0
6, 89052, Note_on_c, 5, 57, 95
6, 89052, Note_on_c, 5, 53, 92
6, 89052, Note_on_c, 5, 62, 99
6, 91884, Note_on_c, 5, 53, 0
6, 91892, Note_on_c, 5, 62, 0
6, 91896, Note_on_c, 5, 57, 0
6, 92136, Note_on_c, 5, 52, 81
6, 92136, Note_on_c, 5, 60, 86
6, 92136, Note_on_c, 5, 55, 89
6, 94728, Note_on_c, 5, 52, 0
6, 94748, Note_on_c, 5, 60, 0
6, 94756, Note_on_c, 5, 55, 0
6, 95204, Note_on_c, 5, 57, 90
6, 95208, Note_on_c, 5, 60, 90
6, 95212, Note_on_c, 5, 53, 85
6, 97892, Note_on_c, 5, 57, 0
6, 97920, Note_on_c, 5, 53, 0
6, 97928, Note_on_c, 5, 60, 0
6, 98280, Note_on_c, 5, 58, 94
6, 98280, Note_on_c, 5, 53, 95
6, 98288, Note_on_c, 5, 62, 103
6, 100916, Note_on_c, 5, 62, 0
6, 100920, Note_on_c, 5, 53, 0
6, 100928, Note_on_c, 5, 58, 0
6, 101356, Note_on_c, 5, 57, 93
6, 101356, Note_on_c, 5, 53, 87
6, 101356, Note_on_c, 5, 62, 95
6, 103900, Note_on_c, 5, 57, 0
6, 103932, Note_on_c, 5, 62, 0
6, 103944, Note_on_c, 5, 53, 0
6, 104412, Note_on_c, 5, 60, 97
6, 104412, Note_on_c, 5, 55, 99
6, 104416, Note_on_c, 5, 52, 93
6, 106748, Note_on_c, 5, 55, 0
6, 106764, Note_on_c, 5, 52, 0
6, 106800, Note_on_c, 5, 60, 0
6, 107488, Note_on_c, 5, 57, 95
6, 107488, Note_on_c, 5, 53, 92
6, 107492, Note_on_c, 5, 60, 95
6, 110128, Note_on_c, 5, 57, 0
6, 110164, Note_on_c, 5, 60, 0
6, 110172, Note_on_c, 5, 53, 0
6, 110560, Note_on_c, 5, 58, 99
6, 110568, Note_on_c, 5, 53, 95
6, 110568, Note_on_c, 5, 62, 101
6, 113248, Note_on_c, 5, 58, 0
6, 113264, Note_on_c, 5, 62, 0
6, 113272, Note_on_c, 5, 53, 0
6, 113640, Note_on_c, 5, 57, 99
6, 113644, Note_on_c, 5, 53, 93
6, 113644, Note_on_c, 5, 62, 101
6, 116216, Note_on_c, 5, 62, 0
6, 116220, Note_on_c, 5, 57, 0
6, 116228, Note_on_c, 5, 53, 0
6, 116700, Note_on_c, 5, 55, 95
6, 116700, Note_on_c, 5, 52, 89
6, 116708, Note_on_c, 5, 60, 95
6, 119388, Note_on_c, 5, 60, 0
6, 119388, Note_on_c, 5, 52, 0
6, 119392, Note_on_c, 5, 55, 0
6, 125940, Note_on_c, 5, 62, 93
6, 125940, Note_on_c, 5, 69, 99
6, 125940, Note_on_c, 5, 65, 97
6, 127416, Note_on_c, 5, 65, 0
6, 127468, Note_on_c, 5, 60, 86
6, 127476, Note_on_c, 5, 64, 85
6, 127476, Note_on_c, 5, 67, 76
6, 127492, Note_on_c, 5, 62, 0
6, 127500, Note_on_c, 5, 69, 0
6, 128944, Note_on_c, 5, 67, 0
6, 128976, Note_on_c, 5, 64, 0
6, 128996, Note_on_c, 5, 62, 85
6, 129000, Note_on_c, 5, 69, 95
6, 129004, Note_on_c, 5, 60, 0
6, 129008, Note_on_c, 5, 65, 92
6, 130488, Note_on_c, 5, 65, 0
6, 130496, Note_on_c, 5, 69, 0
6, 130540, Note_on_c, 5, 62, 0
6, 130552, Note_on_c, 5, 60, 89
6, 130552, Note_on_c, 5, 64, 82
6, 130556, Note_on_c, 5, 67, 81
6, 132128, Note_on_c, 5, 60, 0
6, 132152, Note_on_c, 5, 64, 0
6, 132184, Note_on_c, 5, 67, 0
6, 138212, Note_on_c, 5, 62, 97
6, 138212, Note_on_c, 5, 69, 103
6, 138212, Note_on_c, 5, 65, 101
6, 139704, Note_on_c, 5, 65, 0
6, 139744, Note_on_c, 5, 69, 0
6, 139756, Note_on_c, 5, 60, 81
6, 139768, Note_on_c, 5, 64, 87
6, 139772, Note_on_c, 5, 67, 81
6, 139780, Note_on_c, 5, 62, 0
6, 141256, Note_on_c, 5, 67, 0
6, 141284, Note_on_c, 5, 64, 0
6, 141292, Note_on_c, 5, 60, 0
6, 141300, Note_on_c, 5, 69, 85
6, 141304, Note_on_c, 5, 62, 87
6, 141308, Note_on_c, 5, 65, 89
6, 142788, Note_on_c, 5, 65, 0
6, 142812, Note_on_c, 5, 60, 80
6, 142824, Note_on_c, 5, 64, 87
6, 142828, Note_on_c, 5, 67, 79
6, 142856, Note_on_c, 5, 62, 0
6, 142856, Note_on_c, 5, 69, 0
6, 144320, Note_on_c, 5, 67, 0
6, 144340, Note_on_c, 5, 64, 0
6, 144356, Note_on_c, 5, 60, 0
6, 144372, Note_on_c, 5, 69, 89
6, 144376, Note_on_c, 5, 65, 87
6, 144376, Note_on_c, 5, 62, 82
6, 145832, Note_on_c, 5, 65, 0
6, 145884, Note_on_c, 5, 69, 0
6, 145900, Note_on_c, 5, 64, 82
6, 145900, Note_on_c, 5, 60, 81
6, 145904, Note_on_c, 5, 67, 75
6, 145916, Note_on_c, 5, 62, 0
6, 147376, Note_on_c, 5, 67, 0
6, 147420, Note_on_c, 5, 64, 0
6, 147424, Note_on_c, 5, 60, 0
6, 147432, Note_on_c, 5, 62, 69
6, 147436, Note_on_c, 5, 69, 86
6, 147440, Note_on_c, 5, 65, 83
6, 148916, Note_on_c, 5, 65, 0
6, 148964, Note_on_c, 5, 69, 0
6, 148968, Note_on_c, 5, 60, 90
6, 148968, Note_on_c, 5, 64, 86
6, 148972, Note_on_c, 5, 67, 75
6, 149004, Note_on_c, 5, 62, 0
6, 150420, Note_on_c, 5, 64, 0
6, 150432, Note_on_c, 5, 67, 0
6, 150448, Note_on_c, 5, 60, 0
6, 157060, Note_on_c, 5, 65, 83
6, 157420, Note_on_c, 5, 65, 0
6, 157428, Note_on_c, 5, 62, 80
6, 157736, Note_on_c, 5, 62, 0
6, 157820, Note_on_c, 5, 62, 97
6, 158000, Note_on_c, 5, 60, 87
6, 158012, Note_on_c, 5, 62, 0
6, 158564, Note_on_c, 5, 60, 0
6, 158960, Note_on_c, 5, 60, 101
6, 159156, Note_on_c, 5, 62, 93
6, 159188, Note_on_c, 5, 60, 0
6, 159340, Note_on_c, 5, 62, 0
6, 159360, Note_on_c, 5, 65, 99
6, 160356, Note_on_c, 5, 65, 0
6, 160504, Note_on_c, 5, 62, 101
6, 160692, Note_on_c, 5, 60, 86
6, 160724, Note_on_c, 5, 62, 0
6, 160888, Note_on_c, 5, 62, 99
6, 160888, Note_on_c, 5, 48, 99
6, 160924, Note_on_c, 5, 60, 0
6, 161072, Note_on_c, 5, 50, 99
6, 161080, Note_on_c, 5, 62, 0
6, 161080, Note_on_c, 5, 60, 95
6, 161112, Note_on_c, 5, 48, 0
6, 161280, Note_on_c, 5, 53, 85
6, 161300, Note_on_c, 5, 50, 0
6, 161660, Note_on_c, 5, 60, 0
6, 161664, Note_on_c, 5, 50, 85
6, 161680, Note_on_c, 5, 53, 0
6, 162032, Note_on_c, 5, 50, 0
6, 162036, Note_on_c, 5, 48, 75
6, 162608, Note_on_c, 5, 43, 75
6, 162612, Note_on_c, 5, 48, 0
6, 162820, Note_on_c, 5, 43, 0
6, 162820, Note_on_c, 5, 41, 68
6, 163948, Note_on_c, 5, 41, 0
6, 169348, Note_on_c, 5, 65, 83
6, 169708, Note_on_c, 5, 65, 0
6, 169716, Note_on_c, 5, 62, 80
6, 170024, Note_on_c, 5, 62, 0
6, 170108, Note_on_c, 5, 62, 97
6, 170288, Note_on_c, 5, 60, 87
6, 170300, Note_on_c, 5, 62, 0
6, 170852, Note_on_c, 5, 60, 0
6, 171248, Note_on_c, 5, 60, 101
6, 171444, Note_on_c, 5, 62, 93
6, 171476, Note_on_c, 5, 60, 0
6, 171628, Note_on_c, 5, 62, 0
6, 171648, Note_on_c, 5, 65, 99
6, 172644, Note_on_c, 5, 65, 0
6, 172792, Note_on_c, 5, 62, 101
6, 172980, Note_on_c, 5, 60, 86
6, 173012, Note_on_c, 5, 62, 0
6, 173176, Note_on_c, 5, 62, 99
6, 173176, Note_on_c, 5, 48, 99
6, 173212, Note_on_c, 5, 60, 0
6, 173360, Note_on_c, 5, 50, 99
6, 173368, Note_on_c, 5, 62, 0
6, 173368, Note_on_c, 5, 60, 95
6, 173400, Note_on_c, 5, 48, 0
6, 173568, Note_on_c, 5, 53, 85
6, 173588, Note_on_c, 5, 50, 0
6, 173948, Note_on_c, 5, 60, 0
6, 173952, Note_on_c, 5, 50, 85
6, 173968, Note_on_c, 5, 53, 0
6, 174320, Note_on_c, 5, 50, 0
6, 174324, Note_on_c, 5, 48, 75
6, 174896, Note_on_c, 5, 43, 75
6, 174900, Note_on_c, 5, 48, 0
6, 175108, Note_on_c, 5, 43, 0
6, 175108, Note_on_c, 5, 41, 68
6, 176236, Note_on_c, 5, 41, 0
6, 179876, Note_on_c, 5, 62, 65
6, 179876, Note_on_c, 5, 65, 68
6, 180044, Note_on_c, 5, 65, 0
6, 180044, Note_on_c, 5, 62, 0
6, 180084, Note_on_c, 5, 65, 85
6, 180092, Note_on_c, 5, 69, 89
6, 180436, Note_on_c, 5, 69, 0
6, 180436, Note_on_c, 5, 65, 0
6, 180484, Note_on_c, 5, 67, 75
6, 180484, Note_on_c, 5, 64, 75
6, 180652, Note_on_c, 5, 64, 0
6, 180652, Note_on_c, 5, 67, 0
6, 180668, Note_on_c, 5, 65, 68
6, 180680, Note_on_c, 5, 62, 74
6, 180824, Note_on_c, 5, 62, 0
6, 180836, Note_on_c, 5, 65, 0
6, 180856, Note_on_c, 5, 65, 89
6, 180856, Note_on_c, 5, 62, 81
6, 181216, Note_on_c, 5, 62, 0
6, 181232, Note_on_c, 5, 65, 0
6, 181628, Note_on_c, 5, 69, 95
6, 181628, Note_on_c, 5, 65, 90
6, 181956, Note_on_c, 5, 69, 0
6, 181960, Note_on_c, 5, 65, 0
6, 182024, Note_on_c, 5, 69, 85
6, 182028, Note_on_c, 5, 65, 80
6, 182188, Note_on_c, 5, 67, 65
6, 182200, Note_on_c, 5, 64, 71
6, 182224, Note_on_c, 5, 65, 0
6, 182224, Note_on_c, 5, 69, 0
6, 182380, Note_on_c, 5, 67, 0
6, 182392, Note_on_c, 5, 64, 0
6, 182392, Note_on_c, 5, 65, 75
6, 182400, Note_on_c, 5, 62, 80
6, 182860, Note_on_c, 5, 65, 0
6, 182868, Note_on_c, 5, 62, 0
6, 184308, Note_on_c, 5, 65, 83
6, 184912, Note_on_c, 5, 65, 0
6, 184916, Note_on_c, 5, 62, 75
6, 185104, Note_on_c, 5, 60, 85
6, 185124, Note_on_c, 5, 62, 0
6, 185448, Note_on_c, 5, 48, 78
6, 185632, Note_on_c, 5, 50, 75
6, 185668, Note_on_c, 5, 60, 0
6, 185672, Note_on_c, 5, 48, 0
6, 185840, Note_on_c, 5, 53, 75
6, 185848, Note_on_c, 5, 50, 0
6, 186236, Note_on_c, 5, 53, 0
6, 186236, Note_on_c, 5, 50, 70
6, 186620, Note_on_c, 5, 48, 74
6, 186644, Note_on_c, 5, 50, 0
6, 187128, Note_on_c, 5, 48, 0
6, 187180, Note_on_c, 5, 43, 60
6, 187364, Note_on_c, 5, 43, 0
6, 187380, Note_on_c, 5, 41, 58
6, 188872, Note_on_c, 5, 41, 0
6, 188872, End_track
7, 0, Start_track
7, 0, MIDI_port, 0
7, 0, Title_t, "GYPSY             6 "
7, 0, Program_c, 6, 26
7, 0, Control_c, 6, 10, 72
7, 0, Control_c, 6, 0, 0
7, 0, Control_c, 6, 93, 22
7, 496, Control_c, 6, 7, 88
7, 496, Control_c, 6, 11, 64
7, 3076, Note_on_c, 6, 69, 104
7, 3080, Control_c, 6, 1, 0
7, 3080, Pitch_bend_c, 6, 8192
7, 3100, Control_c, 6, 11, 67
7, 3124, Control_c, 6, 11, 76
7, 3152, Control_c, 6, 11, 84
7, 3176, Control_c, 6, 11, 89
7, 3200, Control_c, 6, 11, 95
7, 3224, Control_c, 6, 11, 101
7, 3252, Control_c, 6, 11, 106
7, 3276, Control_c, 6, 11, 109
7, 3300, Control_c, 6, 11, 111
7, 3324, Control_c, 6, 11, 112
7, 3352, Control_c, 6, 11, 114
7, 3376, Control_c, 6, 11, 118
7, 3400, Control_c, 6, 11, 123
7, 3424, Control_c, 6, 11, 126
7, 3452, Control_c, 6, 11, 127
7, 3476, Control_c, 6, 1, 75
7, 4152, Control_c, 6, 1, 0
7, 4296, Note_on_c, 6, 69, 0
7, 4616, Note_on_c, 6, 72, 118
7, 4652, Control_c, 6, 11, 126
7, 4680, Control_c, 6, 11, 113
7, 4700, Control_c, 6, 11, 99
7, 4732, Control_c, 6, 11, 94
7, 4752, Control_c, 6, 11, 93
7, 4880, Control_c, 6, 11, 96
7, 4904, Control_c, 6, 11, 101
7, 4916, Control_c, 6, 1, 75
7, 4932, Control_c, 6, 11, 108
7, 4956, Control_c, 6, 11, 116
7, 4980, Control_c, 6, 11, 122
7, 5004, Control_c, 6, 11, 127
7, 5736, Control_c, 6, 1, 0
7, 5980, Note_on_c, 6, 72, 0
7, 6000, Control_c, 6, 11, 124
7, 6024, Control_c, 6, 11, 116
7, 6048, Control_c, 6, 11, 102
7, 6072, Control_c, 6, 11, 88
7, 6100, Control_c, 6, 11, 78
7, 6124, Control_c, 6, 11, 72
7, 6128, Note_on_c, 6, 65, 121
7, 6160, Control_c, 6, 11, 78
7, 6184, Control_c, 6, 11, 89
7, 6212, Control_c, 6, 11, 97
7, 6236, Control_c, 6, 11, 104
7, 6264, Control_c, 6, 11, 111
7, 6288, Control_c, 6, 11, 118
7, 6316, Control_c, 6, 11, 124
7, 6340, Control_c, 6, 11, 127
7, 6580, Control_c, 6, 1, 75
7, 7200, Control_c, 6, 1, 0
7, 7632, Note_on_c, 6, 65, 0
7, 13852, Control_c, 6, 11, 125
7, 13884, Control_c, 6, 11, 124
7, 13908, Control_c, 6, 11, 122
7, 13928, Control_c, 6, 11, 121
7, 14076, Control_c, 6, 11, 120
7, 14108, Control_c, 6, 11, 119
7, 14128, Control_c, 6, 11, 118
7, 14180, Control_c, 6, 11, 117
7, 14692, Control_c, 6, 11, 115
7, 14740, Control_c, 6, 11, 113
7, 14768, Control_c, 6, 11, 112
7, 14796, Control_c, 6, 11, 111
7, 14820, Control_c, 6, 11, 110
7, 14844, Control_c, 6, 11, 108
7, 14872, Control_c, 6, 11, 107
7, 14892, Control_c, 6, 11, 106
7, 14920, Control_c, 6, 11, 105
7, 14972, Control_c, 6, 11, 104
7, 15044, Control_c, 6, 11, 103
7, 15076, Control_c, 6, 11, 101
7, 15096, Control_c, 6, 11, 99
7, 15124, Control_c, 6, 11, 94
7, 15148, Control_c, 6, 11, 89
7, 15180, Control_c, 6, 11, 85
7, 15204, Control_c, 6, 11, 81
7, 15228, Control_c, 6, 11, 78
7, 15252, Control_c, 6, 11, 77
7, 15328, Note_on_c, 6, 69, 104
7, 15356, Control_c, 6, 11, 79
7, 15360, Note_on_c, 6, 69, 0
7, 15364, Note_on_c, 6, 69, 104
7, 15388, Control_c, 6, 11, 67
7, 15392, Control_c, 6, 11, 83
7, 15412, Control_c, 6, 11, 76
7, 15440, Control_c, 6, 11, 84
7, 15444, Control_c, 6, 11, 99
7, 15464, Control_c, 6, 11, 89
7, 15488, Control_c, 6, 11, 95
7, 15492, Control_c, 6, 11, 108
7, 15512, Control_c, 6, 11, 101
7, 15516, Control_c, 6, 11, 112
7, 15540, Control_c, 6, 11, 106
7, 15544, Control_c, 6, 11, 116
7, 15564, Control_c, 6, 11, 109
7, 15568, Control_c, 6, 11, 119
7, 15588, Control_c, 6, 11, 111
7, 15592, Control_c, 6, 11, 123
7, 15612, Control_c, 6, 11, 112
7, 15616, Control_c, 6, 11, 126
7, 15640, Control_c, 6, 11, 114
7, 15644, Control_c, 6, 11, 127
7, 15664, Control_c, 6, 11, 118
7, 15688, Control_c, 6, 11, 123
7, 15712, Control_c, 6, 11, 126
7, 15740, Control_c, 6, 11, 127
7, 15764, Control_c, 6, 1, 75
7, 16440, Control_c, 6, 1, 0
7, 16584, Note_on_c, 6, 69, 0
7, 16904, Note_on_c, 6, 72, 118
7, 16940, Control_c, 6, 11, 126
7, 16968, Control_c, 6, 11, 113
7, 16988, Control_c, 6, 11, 99
7, 17020, Control_c, 6, 11, 94
7, 17040, Control_c, 6, 11, 93
7, 17168, Control_c, 6, 11, 96
7, 17192, Control_c, 6, 11, 101
7, 17204, Control_c, 6, 1, 75
7, 17220, Control_c, 6, 11, 108
7, 17244, Control_c, 6, 11, 116
7, 17268, Control_c, 6, 11, 122
7, 17292, Control_c, 6, 11, 127
7, 18024, Control_c, 6, 1, 0
7, 18268, Note_on_c, 6, 72, 0
7, 18288, Control_c, 6, 11, 124
7, 18312, Control_c, 6, 11, 116
7, 18336, Control_c, 6, 11, 102
7, 18360, Control_c, 6, 11, 88
7, 18388, Control_c, 6, 11, 78
7, 18412, Control_c, 6, 11, 72
7, 18416, Note_on_c, 6, 65, 121
7, 18448, Control_c, 6, 11, 78
7, 18472, Control_c, 6, 11, 89
7, 18500, Control_c, 6, 11, 97
7, 18524, Control_c, 6, 11, 104
7, 18552, Control_c, 6, 11, 111
7, 18576, Control_c, 6, 11, 118
7, 18604, Control_c, 6, 11, 124
7, 18628, Control_c, 6, 11, 127
7, 18868, Control_c, 6, 1, 75
7, 19488, Control_c, 6, 1, 0
7, 19920, Note_on_c, 6, 65, 0
7, 26140, Control_c, 6, 11, 125
7, 26172, Control_c, 6, 11, 124
7, 26196, Control_c, 6, 11, 122
7, 26216, Control_c, 6, 11, 121
7, 26364, Control_c, 6, 11, 120
7, 26396, Control_c, 6, 11, 119
7, 26416, Control_c, 6, 11, 118
7, 26468, Control_c, 6, 11, 117
7, 26980, Control_c, 6, 11, 115
7, 27028, Control_c, 6, 11, 113
7, 27056, Control_c, 6, 11, 112
7, 27084, Control_c, 6, 11, 111
7, 27108, Control_c, 6, 11, 110
7, 27132, Control_c, 6, 11, 108
7, 27160, Control_c, 6, 11, 107
7, 27180, Control_c, 6, 11, 106
7, 27208, Control_c, 6, 11, 105
7, 27260, Control_c, 6, 11, 104
7, 27332, Control_c, 6, 11, 103
7, 27364, Control_c, 6, 11, 101
7, 27384, Control_c, 6, 11, 99
7, 27412, Control_c, 6, 11, 94
7, 27436, Control_c, 6, 11, 89
7, 27468, Control_c, 6, 11, 85
7, 27492, Control_c, 6, 11, 81
7, 27516, Control_c, 6, 11, 78
7, 27540, Control_c, 6, 11, 77
7, 27616, Note_on_c, 6, 69, 104
7, 27644, Control_c, 6, 11, 79
7, 27648, Note_on_c, 6, 69, 0
7, 27652, Note_on_c, 6, 69, 104
7, 27676, Control_c, 6, 11, 67
7, 27700, Control_c, 6, 11, 76
7, 27728, Control_c, 6, 11, 84
7, 27752, Control_c, 6, 11, 89
7, 27776, Control_c, 6, 11, 95
7, 27800, Control_c, 6, 11, 101
7, 27828, Control_c, 6, 11, 106
7, 27852, Control_c, 6, 11, 109
7, 27876, Control_c, 6, 11, 111
7, 27900, Control_c, 6, 11, 112
7, 27928, Control_c, 6, 11, 114
7, 27952, Control_c, 6, 11, 118
7, 27976, Control_c, 6, 11, 123
7, 28000, Control_c, 6, 11, 126
7, 28028, Control_c, 6, 11, 127
7, 28052, Control_c, 6, 1, 75
7, 28728, Control_c, 6, 1, 0
7, 28872, Note_on_c, 6, 69, 0
7, 29192, Note_on_c, 6, 72, 118
7, 29228, Control_c, 6, 11, 126
7, 29256, Control_c, 6, 11, 113
7, 29276, Control_c, 6, 11, 99
7, 29308, Control_c, 6, 11, 94
7, 29328, Control_c, 6, 11, 93
7, 29456, Control_c, 6, 11, 96
7, 29480, Control_c, 6, 11, 101
7, 29492, Control_c, 6, 1, 75
7, 29508, Control_c, 6, 11, 108
7, 29532, Control_c, 6, 11, 116
7, 29556, Control_c, 6, 11, 122
7, 29580, Control_c, 6, 11, 127
7, 30312, Control_c, 6, 1, 0
7, 30556, Note_on_c, 6, 72, 0
7, 30576, Control_c, 6, 11, 124
7, 30600, Control_c, 6, 11, 116
7, 30624, Control_c, 6, 11, 102
7, 30648, Control_c, 6, 11, 88
7, 30676, Control_c, 6, 11, 78
7, 30700, Control_c, 6, 11, 72
7, 30704, Note_on_c, 6, 65, 121
7, 30736, Control_c, 6, 11, 78
7, 30760, Control_c, 6, 11, 89
7, 30788, Control_c, 6, 11, 97
7, 30812, Control_c, 6, 11, 104
7, 30840, Control_c, 6, 11, 111
7, 30864, Control_c, 6, 11, 118
7, 30892, Control_c, 6, 11, 124
7, 30916, Control_c, 6, 11, 127
7, 31156, Control_c, 6, 1, 75
7, 31776, Control_c, 6, 1, 0
7, 32208, Note_on_c, 6, 65, 0
7, 38428, Control_c, 6, 11, 125
7, 38460, Control_c, 6, 11, 124
7, 38484, Control_c, 6, 11, 122
7, 38504, Control_c, 6, 11, 121
7, 38652, Control_c, 6, 11, 120
7, 38684, Control_c, 6, 11, 119
7, 38704, Control_c, 6, 11, 118
7, 38756, Control_c, 6, 11, 117
7, 39268, Control_c, 6, 11, 115
7, 39316, Control_c, 6, 11, 113
7, 39344, Control_c, 6, 11, 112
7, 39372, Control_c, 6, 11, 111
7, 39396, Control_c, 6, 11, 110
7, 39420, Control_c, 6, 11, 108
7, 39448, Control_c, 6, 11, 107
7, 39468, Control_c, 6, 11, 106
7, 39496, Control_c, 6, 11, 105
7, 39548, Control_c, 6, 11, 104
7, 39620, Control_c, 6, 11, 103
7, 39652, Control_c, 6, 11, 101
7, 39672, Control_c, 6, 11, 99
7, 39700, Control_c, 6, 11, 94
7, 39724, Control_c, 6, 11, 89
7, 39756, Control_c, 6, 11, 85
7, 39780, Control_c, 6, 11, 81
7, 39804, Control_c, 6, 11, 78
7, 39828, Control_c, 6, 11, 77
7, 39904, Note_on_c, 6, 69, 104
7, 39932, Control_c, 6, 11, 79
7, 40712, Note_on_c, 6, 69, 0
7, 43012, Note_on_c, 6, 69, 104
7, 43036, Control_c, 6, 11, 67
7, 43060, Control_c, 6, 11, 76
7, 43088, Control_c, 6, 11, 84
7, 43112, Control_c, 6, 11, 89
7, 43136, Control_c, 6, 11, 95
7, 43160, Control_c, 6, 11, 101
7, 43188, Control_c, 6, 11, 106
7, 43212, Control_c, 6, 11, 109
7, 43236, Control_c, 6, 11, 111
7, 43260, Control_c, 6, 11, 112
7, 43288, Control_c, 6, 11, 114
7, 43312, Control_c, 6, 11, 118
7, 43336, Control_c, 6, 11, 123
7, 43360, Control_c, 6, 11, 126
7, 43388, Control_c, 6, 11, 127
7, 43412, Control_c, 6, 1, 75
7, 44088, Control_c, 6, 1, 0
7, 44232, Note_on_c, 6, 69, 0
7, 44552, Note_on_c, 6, 72, 118
7, 44588, Control_c, 6, 11, 126
7, 44616, Control_c, 6, 11, 113
7, 44636, Control_c, 6, 11, 99
7, 44668, Control_c, 6, 11, 94
7, 44688, Control_c, 6, 11, 93
7, 44816, Control_c, 6, 11, 96
7, 44840, Control_c, 6, 11, 101
7, 44852, Control_c, 6, 1, 75
7, 44868, Control_c, 6, 11, 108
7, 44892, Control_c, 6, 11, 116
7, 44916, Control_c, 6, 11, 122
7, 44940, Control_c, 6, 11, 127
7, 45672, Control_c, 6, 1, 0
7, 45916, Note_on_c, 6, 72, 0
7, 45936, Control_c, 6, 11, 124
7, 45960, Control_c, 6, 11, 116
7, 45984, Control_c, 6, 11, 102
7, 46008, Control_c, 6, 11, 88
7, 46036, Control_c, 6, 11, 78
7, 46060, Control_c, 6, 11, 72
7, 46064, Note_on_c, 6, 65, 121
7, 46096, Control_c, 6, 11, 78
7, 46120, Control_c, 6, 11, 89
7, 46148, Control_c, 6, 11, 97
7, 46172, Control_c, 6, 11, 104
7, 46200, Control_c, 6, 11, 111
7, 46224, Control_c, 6, 11, 118
7, 46252, Control_c, 6, 11, 124
7, 46276, Control_c, 6, 11, 127
7, 46516, Control_c, 6, 1, 75
7, 47136, Control_c, 6, 1, 0
7, 47568, Note_on_c, 6, 65, 0
7, 53788, Control_c, 6, 11, 125
7, 53820, Control_c, 6, 11, 124
7, 53844, Control_c, 6, 11, 122
7, 53864, Control_c, 6, 11, 121
7, 54012, Control_c, 6, 11, 120
7, 54044, Control_c, 6, 11, 119
7, 54064, Control_c, 6, 11, 118
7, 54116, Control_c, 6, 11, 117
7, 54628, Control_c, 6, 11, 115
7, 54676, Control_c, 6, 11, 113
7, 54704, Control_c, 6, 11, 112
7, 54732, Control_c, 6, 11, 111
7, 54756, Control_c, 6, 11, 110
7, 54780, Control_c, 6, 11, 108
7, 54808, Control_c, 6, 11, 107
7, 54828, Control_c, 6, 11, 106
7, 54856, Control_c, 6, 11, 105
7, 54908, Control_c, 6, 11, 104
7, 54980, Control_c, 6, 11, 103
7, 55012, Control_c, 6, 11, 101
7, 55032, Control_c, 6, 11, 99
7, 55060, Control_c, 6, 11, 94
7, 55084, Control_c, 6, 11, 89
7, 55116, Control_c, 6, 11, 85
7, 55140, Control_c, 6, 11, 81
7, 55164, Control_c, 6, 11, 78
7, 55188, Control_c, 6, 11, 77
7, 55264, Note_on_c, 6, 69, 104
7, 55292, Control_c, 6, 11, 79
7, 55296, Note_on_c, 6, 69, 0
7, 55300, Note_on_c, 6, 69, 104
7, 55324, Control_c, 6, 11, 67
7, 55328, Control_c, 6, 11, 83
7, 55348, Control_c, 6, 11, 76
7, 55376, Control_c, 6, 11, 84
7, 55380, Control_c, 6, 11, 99
7, 55400, Control_c, 6, 11, 89
7, 55424, Control_c, 6, 11, 95
7, 55428, Control_c, 6, 11, 108
7, 55448, Control_c, 6, 11, 101
7, 55452, Control_c, 6, 11, 112
7, 55476, Control_c, 6, 11, 106
7, 55480, Control_c, 6, 11, 116
7, 55500, Control_c, 6, 11, 109
7, 55504, Control_c, 6, 11, 119
7, 55524, Control_c, 6, 11, 111
7, 55528, Control_c, 6, 11, 123
7, 55548, Control_c, 6, 11, 112
7, 55552, Control_c, 6, 11, 126
7, 55576, Control_c, 6, 11, 114
7, 55580, Control_c, 6, 11, 127
7, 55600, Control_c, 6, 11, 118
7, 55624, Control_c, 6, 11, 123
7, 55648, Control_c, 6, 11, 126
7, 55676, Control_c, 6, 11, 127
7, 55700, Control_c, 6, 1, 75
7, 56376, Control_c, 6, 1, 0
7, 56520, Note_on_c, 6, 69, 0
7, 56840, Note_on_c, 6, 72, 118
7, 56876, Control_c, 6, 11, 126
7, 56904, Control_c, 6, 11, 113
7, 56924, Control_c, 6, 11, 99
7, 56956, Control_c, 6, 11, 94
7, 56976, Control_c, 6, 11, 93
7, 57104, Control_c, 6, 11, 96
7, 57128, Control_c, 6, 11, 101
7, 57140, Control_c, 6, 1, 75
7, 57156, Control_c, 6, 11, 108
7, 57180, Control_c, 6, 11, 116
7, 57204, Control_c, 6, 11, 122
7, 57228, Control_c, 6, 11, 127
7, 57960, Control_c, 6, 1, 0
7, 58204, Note_on_c, 6, 72, 0
7, 58224, Control_c, 6, 11, 124
7, 58248, Control_c, 6, 11, 116
7, 58272, Control_c, 6, 11, 102
7, 58296, Control_c, 6, 11, 88
7, 58324, Control_c, 6, 11, 78
7, 58348, Control_c, 6, 11, 72
7, 58352, Note_on_c, 6, 65, 121
7, 58384, Control_c, 6, 11, 78
7, 58408, Control_c, 6, 11, 89
7, 58436, Control_c, 6, 11, 97
7, 58460, Control_c, 6, 11, 104
7, 58488, Control_c, 6, 11, 111
7, 58512, Control_c, 6, 11, 118
7, 58540, Control_c, 6, 11, 124
7, 58564, Control_c, 6, 11, 127
7, 58804, Control_c, 6, 1, 75
7, 59424, Control_c, 6, 1, 0
7, 59856, Note_on_c, 6, 65, 0
7, 66076, Control_c, 6, 11, 125
7, 66108, Control_c, 6, 11, 124
7, 66132, Control_c, 6, 11, 122
7, 66152, Control_c, 6, 11, 121
7, 66300, Control_c, 6, 11, 120
7, 66332, Control_c, 6, 11, 119
7, 66352, Control_c, 6, 11, 118
7, 66404, Control_c, 6, 11, 117
7, 66916, Control_c, 6, 11, 115
7, 66964, Control_c, 6, 11, 113
7, 66992, Control_c, 6, 11, 112
7, 67020, Control_c, 6, 11, 111
7, 67044, Control_c, 6, 11, 110
7, 67068, Control_c, 6, 11, 108
7, 67096, Control_c, 6, 11, 107
7, 67116, Control_c, 6, 11, 106
7, 67144, Control_c, 6, 11, 105
7, 67196, Control_c, 6, 11, 104
7, 67268, Control_c, 6, 11, 103
7, 67300, Control_c, 6, 11, 101
7, 67320, Control_c, 6, 11, 99
7, 67348, Control_c, 6, 11, 94
7, 67372, Control_c, 6, 11, 89
7, 67404, Control_c, 6, 11, 85
7, 67428, Control_c, 6, 11, 81
7, 67452, Control_c, 6, 11, 78
7, 67476, Control_c, 6, 11, 77
7, 67552, Note_on_c, 6, 69, 104
7, 67580, Control_c, 6, 11, 79
7, 67584, Note_on_c, 6, 69, 0
7, 67588, Note_on_c, 6, 69, 104
7, 67612, Control_c, 6, 11, 67
7, 67636, Control_c, 6, 11, 76
7, 67664, Control_c, 6, 11, 84
7, 67688, Control_c, 6, 11, 89
7, 67712, Control_c, 6, 11, 95
7, 67736, Control_c, 6, 11, 101
7, 67764, Control_c, 6, 11, 106
7, 67788, Control_c, 6, 11, 109
7, 67812, Control_c, 6, 11, 111
7, 67836, Control_c, 6, 11, 112
7, 67864, Control_c, 6, 11, 114
7, 67888, Control_c, 6, 11, 118
7, 67912, Control_c, 6, 11, 123
7, 67936, Control_c, 6, 11, 126
7, 67964, Control_c, 6, 11, 127
7, 67988, Control_c, 6, 1, 75
7, 68664, Control_c, 6, 1, 0
7, 68808, Note_on_c, 6, 69, 0
7, 69128, Note_on_c, 6, 72, 118
7, 69164, Control_c, 6, 11, 126
7, 69192, Control_c, 6, 11, 113
7, 69212, Control_c, 6, 11, 99
7, 69244, Control_c, 6, 11, 94
7, 69264, Control_c, 6, 11, 93
7, 69392, Control_c, 6, 11, 96
7, 69416, Control_c, 6, 11, 101
7, 69428, Control_c, 6, 1, 75
7, 69444, Control_c, 6, 11, 108
7, 69468, Control_c, 6, 11, 116
7, 69492, Control_c, 6, 11, 122
7, 69516, Control_c, 6, 11, 127
7, 70248, Control_c, 6, 1, 0
7, 70492, Note_on_c, 6, 72, 0
7, 70512, Control_c, 6, 11, 124
7, 70536, Control_c, 6, 11, 116
7, 70560, Control_c, 6, 11, 102
7, 70584, Control_c, 6, 11, 88
7, 70612, Control_c, 6, 11, 78
7, 70636, Control_c, 6, 11, 72
7, 70640, Note_on_c, 6, 65, 121
7, 70672, Control_c, 6, 11, 78
7, 70696, Control_c, 6, 11, 89
7, 70724, Control_c, 6, 11, 97
7, 70748, Control_c, 6, 11, 104
7, 70776, Control_c, 6, 11, 111
7, 70800, Control_c, 6, 11, 118
7, 70828, Control_c, 6, 11, 124
7, 70852, Control_c, 6, 11, 127
7, 71092, Control_c, 6, 1, 75
7, 71712, Control_c, 6, 1, 0
7, 72144, Note_on_c, 6, 65, 0
7, 78364, Control_c, 6, 11, 125
7, 78396, Control_c, 6, 11, 124
7, 78420, Control_c, 6, 11, 122
7, 78440, Control_c, 6, 11, 121
7, 78588, Control_c, 6, 11, 120
7, 78620, Control_c, 6, 11, 119
7, 78640, Control_c, 6, 11, 118
7, 78692, Control_c, 6, 11, 117
7, 79204, Control_c, 6, 11, 115
7, 79252, Control_c, 6, 11, 113
7, 79280, Control_c, 6, 11, 112
7, 79308, Control_c, 6, 11, 111
7, 79332, Control_c, 6, 11, 110
7, 79356, Control_c, 6, 11, 108
7, 79384, Control_c, 6, 11, 107
7, 79404, Control_c, 6, 11, 106
7, 79432, Control_c, 6, 11, 105
7, 79484, Control_c, 6, 11, 104
7, 79556, Control_c, 6, 11, 103
7, 79588, Control_c, 6, 11, 101
7, 79608, Control_c, 6, 11, 99
7, 79636, Control_c, 6, 11, 94
7, 79660, Control_c, 6, 11, 89
7, 79692, Control_c, 6, 11, 85
7, 79716, Control_c, 6, 11, 81
7, 79740, Control_c, 6, 11, 78
7, 79764, Control_c, 6, 11, 77
7, 79840, Note_on_c, 6, 69, 104
7, 79868, Control_c, 6, 11, 79
7, 80648, Note_on_c, 6, 69, 0
7, 82948, Note_on_c, 6, 69, 104
7, 82972, Control_c, 6, 11, 67
7, 82996, Control_c, 6, 11, 76
7, 83024, Control_c, 6, 11, 84
7, 83048, Control_c, 6, 11, 89
7, 83072, Control_c, 6, 11, 95
7, 83096, Control_c, 6, 11, 101
7, 83124, Control_c, 6, 11, 106
7, 83148, Control_c, 6, 11, 109
7, 83172, Control_c, 6, 11, 111
7, 83196, Control_c, 6, 11, 112
7, 83224, Control_c, 6, 11, 114
7, 83248, Control_c, 6, 11, 118
7, 83272, Control_c, 6, 11, 123
7, 83296, Control_c, 6, 11, 126
7, 83324, Control_c, 6, 11, 127
7, 83348, Control_c, 6, 1, 75
7, 84024, Control_c, 6, 1, 0
7, 84168, Note_on_c, 6, 69, 0
7, 84488, Note_on_c, 6, 72, 118
7, 84524, Control_c, 6, 11, 126
7, 84552, Control_c, 6, 11, 113
7, 84572, Control_c, 6, 11, 99
7, 84604, Control_c, 6, 11, 94
7, 84624, Control_c, 6, 11, 93
7, 84752, Control_c, 6, 11, 96
7, 84776, Control_c, 6, 11, 101
7, 84788, Control_c, 6, 1, 75
7, 84804, Control_c, 6, 11, 108
7, 84828, Control_c, 6, 11, 116
7, 84852, Control_c, 6, 11, 122
7, 84876, Control_c, 6, 11, 127
7, 85608, Control_c, 6, 1, 0
7, 85852, Note_on_c, 6, 72, 0
7, 85872, Control_c, 6, 11, 124
7, 85896, Control_c, 6, 11, 116
7, 85920, Control_c, 6, 11, 102
7, 85944, Control_c, 6, 11, 88
7, 85972, Control_c, 6, 11, 78
7, 85996, Control_c, 6, 11, 72
7, 86000, Note_on_c, 6, 65, 121
7, 86032, Control_c, 6, 11, 78
7, 86056, Control_c, 6, 11, 89
7, 86084, Control_c, 6, 11, 97
7, 86108, Control_c, 6, 11, 104
7, 86136, Control_c, 6, 11, 111
7, 86160, Control_c, 6, 11, 118
7, 86188, Control_c, 6, 11, 124
7, 86212, Control_c, 6, 11, 127
7, 86452, Control_c, 6, 1, 75
7, 87072, Control_c, 6, 1, 0
7, 87504, Note_on_c, 6, 65, 0
7, 89864, Note_on_c, 6, 50, 91
7, 89952, Note_on_c, 6, 50, 0
7, 90044, Note_on_c, 6, 53, 88
7, 90136, Note_on_c, 6, 53, 0
7, 90240, Note_on_c, 6, 57, 96
7, 90348, Note_on_c, 6, 57, 0
7, 90428, Note_on_c, 6, 62, 88
7, 90532, Note_on_c, 6, 62, 0
7, 90624, Note_on_c, 6, 65, 86
7, 90740, Note_on_c, 6, 65, 0
7, 90820, Note_on_c, 6, 72, 91
7, 90964, Note_on_c, 6, 72, 0
7, 91020, Note_on_c, 6, 76, 96
7, 91140, Note_on_c, 6, 76, 0
7, 91212, Note_on_c, 6, 77, 93
7, 91372, Note_on_c, 6, 77, 0
7, 92936, Note_on_c, 6, 48, 91
7, 93044, Note_on_c, 6, 48, 0
7, 93116, Note_on_c, 6, 52, 91
7, 93220, Note_on_c, 6, 52, 0
7, 93316, Note_on_c, 6, 55, 91
7, 93452, Note_on_c, 6, 55, 0
7, 93508, Note_on_c, 6, 60, 98
7, 93632, Note_on_c, 6, 60, 0
7, 93700, Note_on_c, 6, 67, 83
7, 93824, Note_on_c, 6, 67, 0
7, 93884, Note_on_c, 6, 72, 96
7, 94012, Note_on_c, 6, 72, 0
7, 94080, Note_on_c, 6, 74, 96
7, 94204, Note_on_c, 6, 74, 0
7, 94276, Note_on_c, 6, 76, 96
7, 94428, Note_on_c, 6, 76, 0
7, 96004, Note_on_c, 6, 53, 83
7, 96120, Note_on_c, 6, 53, 0
7, 96188, Note_on_c, 6, 57, 96
7, 96292, Note_on_c, 6, 57, 0
7, 96384, Note_on_c, 6, 60, 96
7, 96508, Note_on_c, 6, 60, 0
7, 96580, Note_on_c, 6, 65, 88
7, 96708, Note_on_c, 6, 65, 0
7, 96776, Note_on_c, 6, 65, 83
7, 96896, Note_on_c, 6, 65, 0
7, 96976, Note_on_c, 6, 69, 93
7, 97088, Note_on_c, 6, 69, 0
7, 97164, Note_on_c, 6, 72, 93
7, 97292, Note_on_c, 6, 72, 0
7, 97356, Note_on_c, 6, 77, 101
7, 97492, Note_on_c, 6, 77, 0
7, 99072, Note_on_c, 6, 58, 93
7, 99192, Note_on_c, 6, 58, 0
7, 99268, Note_on_c, 6, 62, 73
7, 99388, Note_on_c, 6, 62, 0
7, 99468, Note_on_c, 6, 65, 88
7, 99632, Note_on_c, 6, 65, 0
7, 99648, Note_on_c, 6, 67, 91
7, 99760, Note_on_c, 6, 67, 0
7, 99844, Note_on_c, 6, 65, 93
7, 100004, Note_on_c, 6, 65, 0
7, 100044, Note_on_c, 6, 70, 76
7, 100144, Note_on_c, 6, 70, 0
7, 100224, Note_on_c, 6, 74, 88
7, 100368, Note_on_c, 6, 74, 0
7, 100420, Note_on_c, 6, 77, 96
7, 100572, Note_on_c, 6, 77, 0
7, 102152, Note_on_c, 6, 50, 91
7, 102240, Note_on_c, 6, 50, 0
7, 102332, Note_on_c, 6, 53, 88
7, 102424, Note_on_c, 6, 53, 0
7, 102528, Note_on_c, 6, 57, 96
7, 102636, Note_on_c, 6, 57, 0
7, 102716, Note_on_c, 6, 62, 88
7, 102820, Note_on_c, 6, 62, 0
7, 102912, Note_on_c, 6, 65, 86
7, 103028, Note_on_c, 6, 65, 0
7, 103108, Note_on_c, 6, 72, 91
7, 103252, Note_on_c, 6, 72, 0
7, 103308, Note_on_c, 6, 76, 96
7, 103428, Note_on_c, 6, 76, 0
7, 103500, Note_on_c, 6, 77, 93
7, 103660, Note_on_c, 6, 77, 0
7, 105224, Note_on_c, 6, 48, 91
7, 105332, Note_on_c, 6, 48, 0
7, 105404, Note_on_c, 6, 52, 91
7, 105508, Note_on_c, 6, 52, 0
7, 105604, Note_on_c, 6, 55, 91
7, 105740, Note_on_c, 6, 55, 0
7, 105796, Note_on_c, 6, 60, 98
7, 105920, Note_on_c, 6, 60, 0
7, 105988, Note_on_c, 6, 67, 83
7, 106112, Note_on_c, 6, 67, 0
7, 106172, Note_on_c, 6, 72, 96
7, 106300, Note_on_c, 6, 72, 0
7, 106368, Note_on_c, 6, 74, 96
7, 106492, Note_on_c, 6, 74, 0
7, 106564, Note_on_c, 6, 76, 96
7, 106716, Note_on_c, 6, 76, 0
7, 108292, Note_on_c, 6, 53, 83
7, 108408, Note_on_c, 6, 53, 0
7, 108476, Note_on_c, 6, 57, 96
7, 108580, Note_on_c, 6, 57, 0
7, 108672, Note_on_c, 6, 60, 96
7, 108796, Note_on_c, 6, 60, 0
7, 108868, Note_on_c, 6, 65, 88
7, 108996, Note_on_c, 6, 65, 0
7, 109064, Note_on_c, 6, 65, 83
7, 109184, Note_on_c, 6, 65, 0
7, 109264, Note_on_c, 6, 69, 93
7, 109376, Note_on_c, 6, 69, 0
7, 109452, Note_on_c, 6, 72, 93
7, 109580, Note_on_c, 6, 72, 0
7, 109644, Note_on_c, 6, 77, 101
7, 109780, Note_on_c, 6, 77, 0
7, 111360, Note_on_c, 6, 58, 93
7, 111480, Note_on_c, 6, 58, 0
7, 111556, Note_on_c, 6, 62, 73
7, 111676, Note_on_c, 6, 62, 0
7, 111756, Note_on_c, 6, 65, 88
7, 111920, Note_on_c, 6, 65, 0
7, 111936, Note_on_c, 6, 67, 91
7, 112048, Note_on_c, 6, 67, 0
7, 112132, Note_on_c, 6, 65, 93
7, 112292, Note_on_c, 6, 65, 0
7, 112332, Note_on_c, 6, 70, 76
7, 112432, Note_on_c, 6, 70, 0
7, 112512, Note_on_c, 6, 74, 88
7, 112656, Note_on_c, 6, 74, 0
7, 112708, Note_on_c, 6, 77, 96
7, 112860, Note_on_c, 6, 77, 0
7, 114436, Note_on_c, 6, 62, 98
7, 114552, Note_on_c, 6, 62, 0
7, 114636, Note_on_c, 6, 65, 91
7, 114732, Note_on_c, 6, 65, 0
7, 114824, Note_on_c, 6, 69, 88
7, 114972, Note_on_c, 6, 69, 0
7, 115012, Note_on_c, 6, 74, 91
7, 115112, Note_on_c, 6, 74, 0
7, 115208, Note_on_c, 6, 65, 86
7, 115332, Note_on_c, 6, 65, 0
7, 115400, Note_on_c, 6, 69, 81
7, 115512, Note_on_c, 6, 69, 0
7, 115596, Note_on_c, 6, 72, 86
7, 115732, Note_on_c, 6, 72, 0
7, 115780, Note_on_c, 6, 77, 83
7, 115968, Note_on_c, 6, 76, 76
7, 115992, Note_on_c, 6, 77, 0
7, 116160, Note_on_c, 6, 74, 79
7, 116188, Note_on_c, 6, 76, 0
7, 116308, Note_on_c, 6, 74, 0
7, 117492, Note_on_c, 6, 48, 93
7, 117612, Note_on_c, 6, 48, 0
7, 117684, Note_on_c, 6, 52, 91
7, 117812, Note_on_c, 6, 52, 0
7, 117880, Note_on_c, 6, 55, 93
7, 118048, Note_on_c, 6, 55, 0
7, 118080, Note_on_c, 6, 60, 93
7, 118152, Note_on_c, 6, 60, 0
7, 118268, Note_on_c, 6, 60, 96
7, 118460, Note_on_c, 6, 64, 88
7, 118548, Note_on_c, 6, 60, 0
7, 118568, Note_on_c, 6, 64, 0
7, 118660, Note_on_c, 6, 67, 83
7, 118836, Note_on_c, 6, 72, 96
7, 118844, Note_on_c, 6, 67, 0
7, 118956, Note_on_c, 6, 72, 0
7, 119044, Note_on_c, 6, 76, 98
7, 119168, Note_on_c, 6, 76, 0
7, 119236, Note_on_c, 6, 74, 83
7, 119384, Note_on_c, 6, 74, 0
7, 119424, Note_on_c, 6, 65, 76
7, 119592, Note_on_c, 6, 65, 0
7, 119604, Note_on_c, 6, 67, 81
7, 119784, Note_on_c, 6, 67, 0
7, 119804, Note_on_c, 6, 65, 81
7, 119812, Note_on_c, 6, 69, 104
7, 119836, Control_c, 6, 11, 67
7, 119840, Control_c, 6, 11, 83
7, 119860, Control_c, 6, 11, 76
7, 119888, Control_c, 6, 11, 84
7, 119892, Control_c, 6, 11, 99
7, 119912, Control_c, 6, 11, 89
7, 119936, Control_c, 6, 11, 95
7, 119940, Control_c, 6, 11, 108
7, 119960, Control_c, 6, 11, 101
7, 119964, Control_c, 6, 11, 112
7, 119988, Control_c, 6, 11, 106
7, 119992, Control_c, 6, 11, 116
7, 120012, Control_c, 6, 11, 109
7, 120016, Control_c, 6, 11, 119
7, 120036, Control_c, 6, 11, 111
7, 120040, Control_c, 6, 11, 123
7, 120060, Control_c, 6, 11, 112
7, 120064, Control_c, 6, 11, 126
7, 120088, Control_c, 6, 11, 114
7, 120092, Control_c, 6, 11, 127
7, 120104, Control_c, 6, 1, 75
7, 120112, Control_c, 6, 11, 118
7, 120136, Control_c, 6, 11, 123
7, 120160, Control_c, 6, 11, 126
7, 120188, Control_c, 6, 11, 127
7, 120656, Note_on_c, 6, 65, 0
7, 120716, Control_c, 6, 1, 0
7, 121032, Note_on_c, 6, 69, 0
7, 121352, Note_on_c, 6, 72, 118
7, 121388, Control_c, 6, 11, 126
7, 121416, Control_c, 6, 11, 113
7, 121436, Control_c, 6, 11, 99
7, 121468, Control_c, 6, 11, 94
7, 121488, Control_c, 6, 11, 93
7, 121616, Control_c, 6, 11, 96
7, 121640, Control_c, 6, 11, 101
7, 121652, Control_c, 6, 1, 75
7, 121668, Control_c, 6, 11, 108
7, 121692, Control_c, 6, 11, 116
7, 121716, Control_c, 6, 11, 122
7, 121740, Control_c, 6, 11, 127
7, 122472, Control_c, 6, 1, 0
7, 122716, Note_on_c, 6, 72, 0
7, 122736, Control_c, 6, 11, 124
7, 122760, Control_c, 6, 11, 116
7, 122784, Control_c, 6, 11, 102
7, 122808, Control_c, 6, 11, 88
7, 122836, Control_c, 6, 11, 78
7, 122860, Control_c, 6, 11, 72
7, 122864, Note_on_c, 6, 65, 121
7, 122896, Control_c, 6, 11, 78
7, 122920, Control_c, 6, 11, 89
7, 122948, Control_c, 6, 11, 97
7, 122972, Control_c, 6, 11, 104
7, 123000, Control_c, 6, 11, 111
7, 123024, Control_c, 6, 11, 118
7, 123052, Control_c, 6, 11, 124
7, 123076, Control_c, 6, 11, 127
7, 123316, Control_c, 6, 1, 75
7, 123936, Control_c, 6, 1, 0
7, 124368, Note_on_c, 6, 65, 0
7, 130588, Control_c, 6, 11, 125
7, 130620, Control_c, 6, 11, 124
7, 130644, Control_c, 6, 11, 122
7, 130664, Control_c, 6, 11, 121
7, 130812, Control_c, 6, 11, 120
7, 130844, Control_c, 6, 11, 119
7, 130864, Control_c, 6, 11, 118
7, 130916, Control_c, 6, 11, 117
7, 131428, Control_c, 6, 11, 115
7, 131476, Control_c, 6, 11, 113
7, 131504, Control_c, 6, 11, 112
7, 131532, Control_c, 6, 11, 111
7, 131556, Control_c, 6, 11, 110
7, 131580, Control_c, 6, 11, 108
7, 131608, Control_c, 6, 11, 107
7, 131628, Control_c, 6, 11, 106
7, 131656, Control_c, 6, 11, 105
7, 131708, Control_c, 6, 11, 104
7, 131780, Control_c, 6, 11, 103
7, 131812, Control_c, 6, 11, 101
7, 131832, Control_c, 6, 11, 99
7, 131860, Control_c, 6, 11, 94
7, 131884, Control_c, 6, 11, 89
7, 131916, Control_c, 6, 11, 85
7, 131940, Control_c, 6, 11, 81
7, 131964, Control_c, 6, 11, 78
7, 131988, Control_c, 6, 11, 77
7, 132064, Note_on_c, 6, 69, 104
7, 132092, Control_c, 6, 11, 79
7, 132096, Note_on_c, 6, 69, 0
7, 132100, Note_on_c, 6, 69, 104
7, 132124, Control_c, 6, 11, 67
7, 132148, Control_c, 6, 11, 76
7, 132176, Control_c, 6, 11, 84
7, 132200, Control_c, 6, 11, 89
7, 132224, Control_c, 6, 11, 95
7, 132248, Control_c, 6, 11, 101
7, 132276, Control_c, 6, 11, 106
7, 132300, Control_c, 6, 11, 109
7, 132324, Control_c, 6, 11, 111
7, 132348, Control_c, 6, 11, 112
7, 132376, Control_c, 6, 11, 114
7, 132400, Control_c, 6, 11, 118
7, 132424, Control_c, 6, 11, 123
7, 132448, Control_c, 6, 11, 126
7, 132476, Control_c, 6, 11, 127
7, 132500, Control_c, 6, 1, 75
7, 133176, Control_c, 6, 1, 0
7, 133320, Note_on_c, 6, 69, 0
7, 133640, Note_on_c, 6, 72, 118
7, 133676, Control_c, 6, 11, 126
7, 133704, Control_c, 6, 11, 113
7, 133724, Control_c, 6, 11, 99
7, 133756, Control_c, 6, 11, 94
7, 133776, Control_c, 6, 11, 93
7, 133904, Control_c, 6, 11, 96
7, 133928, Control_c, 6, 11, 101
7, 133940, Control_c, 6, 1, 75
7, 133956, Control_c, 6, 11, 108
7, 133980, Control_c, 6, 11, 116
7, 134004, Control_c, 6, 11, 122
7, 134028, Control_c, 6, 11, 127
7, 134760, Control_c, 6, 1, 0
7, 135004, Note_on_c, 6, 72, 0
7, 135024, Control_c, 6, 11, 124
7, 135048, Control_c, 6, 11, 116
7, 135072, Control_c, 6, 11, 102
7, 135096, Control_c, 6, 11, 88
7, 135124, Control_c, 6, 11, 78
7, 135148, Control_c, 6, 11, 72
7, 135152, Note_on_c, 6, 65, 121
7, 135184, Control_c, 6, 11, 78
7, 135208, Control_c, 6, 11, 89
7, 135236, Control_c, 6, 11, 97
7, 135260, Control_c, 6, 11, 104
7, 135288, Control_c, 6, 11, 111
7, 135312, Control_c, 6, 11, 118
7, 135340, Control_c, 6, 11, 124
7, 135364, Control_c, 6, 11, 127
7, 135604, Control_c, 6, 1, 75
7, 136224, Control_c, 6, 1, 0
7, 136656, Note_on_c, 6, 65, 0
7, 142876, Control_c, 6, 11, 125
7, 142908, Control_c, 6, 11, 124
7, 142932, Control_c, 6, 11, 122
7, 142952, Control_c, 6, 11, 121
7, 143100, Control_c, 6, 11, 120
7, 143132, Control_c, 6, 11, 119
7, 143152, Control_c, 6, 11, 118
7, 143204, Control_c, 6, 11, 117
7, 143716, Control_c, 6, 11, 115
7, 143764, Control_c, 6, 11, 113
7, 143792, Control_c, 6, 11, 112
7, 143820, Control_c, 6, 11, 111
7, 143844, Control_c, 6, 11, 110
7, 143868, Control_c, 6, 11, 108
7, 143896, Control_c, 6, 11, 107
7, 143916, Control_c, 6, 11, 106
7, 143944, Control_c, 6, 11, 105
7, 143996, Control_c, 6, 11, 104
7, 144068, Control_c, 6, 11, 103
7, 144100, Control_c, 6, 11, 101
7, 144120, Control_c, 6, 11, 99
7, 144148, Control_c, 6, 11, 94
7, 144172, Control_c, 6, 11, 89
7, 144204, Control_c, 6, 11, 85
7, 144228, Control_c, 6, 11, 81
7, 144252, Control_c, 6, 11, 78
7, 144276, Control_c, 6, 11, 77
7, 144352, Note_on_c, 6, 69, 104
7, 144380, Control_c, 6, 11, 79
7, 145160, Note_on_c, 6, 69, 0
7, 150532, Note_on_c, 6, 69, 104
7, 150556, Control_c, 6, 11, 67
7, 150560, Control_c, 6, 11, 83
7, 150580, Control_c, 6, 11, 76
7, 150608, Control_c, 6, 11, 84
7, 150612, Control_c, 6, 11, 99
7, 150632, Control_c, 6, 11, 89
7, 150656, Control_c, 6, 11, 95
7, 150660, Control_c, 6, 11, 108
7, 150680, Control_c, 6, 11, 101
7, 150684, Control_c, 6, 11, 112
7, 150708, Control_c, 6, 11, 106
7, 150712, Control_c, 6, 11, 116
7, 150732, Control_c, 6, 11, 109
7, 150736, Control_c, 6, 11, 119
7, 150756, Control_c, 6, 11, 111
7, 150760, Control_c, 6, 11, 123
7, 150780, Control_c, 6, 11, 112
7, 150784, Control_c, 6, 11, 126
7, 150808, Control_c, 6, 11, 114
7, 150812, Control_c, 6, 11, 127
7, 150832, Control_c, 6, 11, 118
7, 150856, Control_c, 6, 11, 123
7, 150880, Control_c, 6, 11, 126
7, 150908, Control_c, 6, 11, 127
7, 150932, Control_c, 6, 1, 75
7, 151608, Control_c, 6, 1, 0
7, 151752, Note_on_c, 6, 69, 0
7, 152072, Note_on_c, 6, 72, 118
7, 152108, Control_c, 6, 11, 126
7, 152136, Control_c, 6, 11, 113
7, 152156, Control_c, 6, 11, 99
7, 152188, Control_c, 6, 11, 94
7, 152208, Control_c, 6, 11, 93
7, 152336, Control_c, 6, 11, 96
7, 152360, Control_c, 6, 11, 101
7, 152372, Control_c, 6, 1, 75
7, 152388, Control_c, 6, 11, 108
7, 152412, Control_c, 6, 11, 116
7, 152436, Control_c, 6, 11, 122
7, 152460, Control_c, 6, 11, 127
7, 153192, Control_c, 6, 1, 0
7, 153436, Note_on_c, 6, 72, 0
7, 153456, Control_c, 6, 11, 124
7, 153480, Control_c, 6, 11, 116
7, 153504, Control_c, 6, 11, 102
7, 153528, Control_c, 6, 11, 88
7, 153556, Control_c, 6, 11, 78
7, 153580, Control_c, 6, 11, 72
7, 153584, Note_on_c, 6, 65, 121
7, 153616, Control_c, 6, 11, 78
7, 153640, Control_c, 6, 11, 89
7, 153668, Control_c, 6, 11, 97
7, 153692, Control_c, 6, 11, 104
7, 153720, Control_c, 6, 11, 111
7, 153744, Control_c, 6, 11, 118
7, 153772, Control_c, 6, 11, 124
7, 153796, Control_c, 6, 11, 127
7, 154036, Control_c, 6, 1, 75
7, 154656, Control_c, 6, 1, 0
7, 155088, Note_on_c, 6, 65, 0
7, 161308, Control_c, 6, 11, 125
7, 161340, Control_c, 6, 11, 124
7, 161364, Control_c, 6, 11, 122
7, 161384, Control_c, 6, 11, 121
7, 161532, Control_c, 6, 11, 120
7, 161564, Control_c, 6, 11, 119
7, 161584, Control_c, 6, 11, 118
7, 161636, Control_c, 6, 11, 117
7, 162148, Control_c, 6, 11, 115
7, 162196, Control_c, 6, 11, 113
7, 162224, Control_c, 6, 11, 112
7, 162252, Control_c, 6, 11, 111
7, 162276, Control_c, 6, 11, 110
7, 162300, Control_c, 6, 11, 108
7, 162328, Control_c, 6, 11, 107
7, 162348, Control_c, 6, 11, 106
7, 162376, Control_c, 6, 11, 105
7, 162428, Control_c, 6, 11, 104
7, 162500, Control_c, 6, 11, 103
7, 162532, Control_c, 6, 11, 101
7, 162552, Control_c, 6, 11, 99
7, 162580, Control_c, 6, 11, 94
7, 162604, Control_c, 6, 11, 89
7, 162636, Control_c, 6, 11, 85
7, 162660, Control_c, 6, 11, 81
7, 162684, Control_c, 6, 11, 78
7, 162708, Control_c, 6, 11, 77
7, 162784, Note_on_c, 6, 69, 104
7, 162812, Control_c, 6, 11, 79
7, 162816, Note_on_c, 6, 69, 0
7, 162820, Note_on_c, 6, 69, 104
7, 162844, Control_c, 6, 11, 67
7, 162848, Control_c, 6, 11, 83
7, 162868, Control_c, 6, 11, 76
7, 162896, Control_c, 6, 11, 84
7, 162900, Control_c, 6, 11, 99
7, 162920, Control_c, 6, 11, 89
7, 162944, Control_c, 6, 11, 95
7, 162948, Control_c, 6, 11, 108
7, 162968, Control_c, 6, 11, 101
7, 162972, Control_c, 6, 11, 112
7, 162996, Control_c, 6, 11, 106
7, 163000, Control_c, 6, 11, 116
7, 163020, Control_c, 6, 11, 109
7, 163024, Control_c, 6, 11, 119
7, 163044, Control_c, 6, 11, 111
7, 163048, Control_c, 6, 11, 123
7, 163068, Control_c, 6, 11, 112
7, 163072, Control_c, 6, 11, 126
7, 163096, Control_c, 6, 11, 114
7, 163100, Control_c, 6, 11, 127
7, 163120, Control_c, 6, 11, 118
7, 163144, Control_c, 6, 11, 123
7, 163168, Control_c, 6, 11, 126
7, 163196, Control_c, 6, 11, 127
7, 163220, Control_c, 6, 1, 75
7, 163896, Control_c, 6, 1, 0
7, 164040, Note_on_c, 6, 69, 0
7, 164360, Note_on_c, 6, 72, 118
7, 164396, Control_c, 6, 11, 126
7, 164424, Control_c, 6, 11, 113
7, 164444, Control_c, 6, 11, 99
7, 164476, Control_c, 6, 11, 94
7, 164496, Control_c, 6, 11, 93
7, 164624, Control_c, 6, 11, 96
7, 164648, Control_c, 6, 11, 101
7, 164660, Control_c, 6, 1, 75
7, 164676, Control_c, 6, 11, 108
7, 164700, Control_c, 6, 11, 116
7, 164724, Control_c, 6, 11, 122
7, 164748, Control_c, 6, 11, 127
7, 165480, Control_c, 6, 1, 0
7, 165724, Note_on_c, 6, 72, 0
7, 165744, Control_c, 6, 11, 124
7, 165768, Control_c, 6, 11, 116
7, 165792, Control_c, 6, 11, 102
7, 165816, Control_c, 6, 11, 88
7, 165844, Control_c, 6, 11, 78
7, 165868, Control_c, 6, 11, 72
7, 165872, Note_on_c, 6, 65, 121
7, 165904, Control_c, 6, 11, 78
7, 165928, Control_c, 6, 11, 89
7, 165956, Control_c, 6, 11, 97
7, 165980, Control_c, 6, 11, 104
7, 166008, Control_c, 6, 11, 111
7, 166032, Control_c, 6, 11, 118
7, 166060, Control_c, 6, 11, 124
7, 166084, Control_c, 6, 11, 127
7, 166324, Control_c, 6, 1, 75
7, 166944, Control_c, 6, 1, 0
7, 167376, Note_on_c, 6, 65, 0
7, 173596, Control_c, 6, 11, 125
7, 173628, Control_c, 6, 11, 124
7, 173652, Control_c, 6, 11, 122
7, 173672, Control_c, 6, 11, 121
7, 173820, Control_c, 6, 11, 120
7, 173852, Control_c, 6, 11, 119
7, 173872, Control_c, 6, 11, 118
7, 173924, Control_c, 6, 11, 117
7, 174436, Control_c, 6, 11, 115
7, 174484, Control_c, 6, 11, 113
7, 174512, Control_c, 6, 11, 112
7, 174540, Control_c, 6, 11, 111
7, 174564, Control_c, 6, 11, 110
7, 174588, Control_c, 6, 11, 108
7, 174616, Control_c, 6, 11, 107
7, 174636, Control_c, 6, 11, 106
7, 174664, Control_c, 6, 11, 105
7, 174716, Control_c, 6, 11, 104
7, 174788, Control_c, 6, 11, 103
7, 174820, Control_c, 6, 11, 101
7, 174840, Control_c, 6, 11, 99
7, 174868, Control_c, 6, 11, 94
7, 174892, Control_c, 6, 11, 89
7, 174924, Control_c, 6, 11, 85
7, 174948, Control_c, 6, 11, 81
7, 174972, Control_c, 6, 11, 78
7, 174996, Control_c, 6, 11, 77
7, 175072, Note_on_c, 6, 69, 104
7, 175100, Control_c, 6, 11, 79
7, 175104, Note_on_c, 6, 69, 0
7, 175108, Note_on_c, 6, 69, 104
7, 175132, Control_c, 6, 11, 67
7, 175136, Control_c, 6, 11, 83
7, 175156, Control_c, 6, 11, 76
7, 175184, Control_c, 6, 11, 84
7, 175188, Control_c, 6, 11, 99
7, 175208, Control_c, 6, 11, 89
7, 175232, Control_c, 6, 11, 95
7, 175236, Control_c, 6, 11, 108
7, 175256, Control_c, 6, 11, 101
7, 175260, Control_c, 6, 11, 112
7, 175284, Control_c, 6, 11, 106
7, 175288, Control_c, 6, 11, 116
7, 175308, Control_c, 6, 11, 109
7, 175312, Control_c, 6, 11, 119
7, 175332, Control_c, 6, 11, 111
7, 175336, Control_c, 6, 11, 123
7, 175356, Control_c, 6, 11, 112
7, 175360, Control_c, 6, 11, 126
7, 175384, Control_c, 6, 11, 114
7, 175388, Control_c, 6, 11, 127
7, 175408, Control_c, 6, 11, 118
7, 175432, Control_c, 6, 11, 123
7, 175456, Control_c, 6, 11, 126
7, 175484, Control_c, 6, 11, 127
7, 175508, Control_c, 6, 1, 75
7, 176184, Control_c, 6, 1, 0
7, 176328, Note_on_c, 6, 69, 0
7, 176648, Note_on_c, 6, 72, 118
7, 176684, Control_c, 6, 11, 126
7, 176712, Control_c, 6, 11, 113
7, 176732, Control_c, 6, 11, 99
7, 176764, Control_c, 6, 11, 94
7, 176784, Control_c, 6, 11, 93
7, 176912, Control_c, 6, 11, 96
7, 176936, Control_c, 6, 11, 101
7, 176948, Control_c, 6, 1, 75
7, 176964, Control_c, 6, 11, 108
7, 176988, Control_c, 6, 11, 116
7, 177012, Control_c, 6, 11, 122
7, 177036, Control_c, 6, 11, 127
7, 177768, Control_c, 6, 1, 0
7, 178012, Note_on_c, 6, 72, 0
7, 178032, Control_c, 6, 11, 124
7, 178056, Control_c, 6, 11, 116
7, 178080, Control_c, 6, 11, 102
7, 178104, Control_c, 6, 11, 88
7, 178132, Control_c, 6, 11, 78
7, 178156, Control_c, 6, 11, 72
7, 178160, Note_on_c, 6, 65, 121
7, 178192, Control_c, 6, 11, 78
7, 178216, Control_c, 6, 11, 89
7, 178244, Control_c, 6, 11, 97
7, 178268, Control_c, 6, 11, 104
7, 178296, Control_c, 6, 11, 111
7, 178320, Control_c, 6, 11, 118
7, 178348, Control_c, 6, 11, 124
7, 178372, Control_c, 6, 11, 127
7, 178612, Control_c, 6, 1, 75
7, 179232, Control_c, 6, 1, 0
7, 179664, Note_on_c, 6, 65, 0
7, 185884, Control_c, 6, 11, 125
7, 185916, Control_c, 6, 11, 124
7, 185940, Control_c, 6, 11, 122
7, 185960, Control_c, 6, 11, 121
7, 186108, Control_c, 6, 11, 120
7, 186140, Control_c, 6, 11, 119
7, 186160, Control_c, 6, 11, 118
7, 186212, Control_c, 6, 11, 117
7, 186724, Control_c, 6, 11, 115
7, 186772, Control_c, 6, 11, 113
7, 186800, Control_c, 6, 11, 112
7, 186828, Control_c, 6, 11, 111
7, 186852, Control_c, 6, 11, 110
7, 186876, Control_c, 6, 11, 108
7, 186904, Control_c, 6, 11, 107
7, 186924, Control_c, 6, 11, 106
7, 186952, Control_c, 6, 11, 105
7, 187004, Control_c, 6, 11, 104
7, 187076, Control_c, 6, 11, 103
7, 187108, Control_c, 6, 11, 101
7, 187128, Control_c, 6, 11, 99
7, 187156, Control_c, 6, 11, 94
7, 187180, Control_c, 6, 11, 89
7, 187212, Control_c, 6, 11, 85
7, 187236, Control_c, 6, 11, 81
7, 187260, Control_c, 6, 11, 78
7, 187284, Control_c, 6, 11, 77
7, 187360, Note_on_c, 6, 69, 104
7, 187388, Control_c, 6, 11, 79
7, 188616, Note_on_c, 6, 69, 0
7, 188616, End_track
8, 0, Start_track
8, 0, MIDI_port, 0
8, 0, Title_t, "GYPSY             7 "
8, 0, Program_c, 7, 24
8, 0, Control_c, 7, 10, 42
8, 0, Control_c, 7, 0, 0
8, 0, Control_c, 7, 93, 64
8, 516, Control_c, 7, 7, 85
8, 516, Control_c, 7, 11, 127
8, 9236, Note_on_c, 7, 69, 96
8, 9240, Control_c, 7, 1, 0
8, 9240, Pitch_bend_c, 7, 8192
8, 9616, Note_on_c, 7, 72, 109
8, 9992, Note_on_c, 7, 74, 109
8, 10380, Note_on_c, 7, 77, 109
8, 10752, Note_on_c, 7, 74, 0
8, 10756, Note_on_c, 7, 74, 109
8, 11148, Note_on_c, 7, 72, 0
8, 11152, Note_on_c, 7, 72, 109
8, 11516, Note_on_c, 7, 69, 0
8, 11520, Note_on_c, 7, 69, 109
8, 11912, Note_on_c, 7, 67, 93
8, 12288, Note_on_c, 7, 69, 0
8, 12292, Note_on_c, 7, 69, 101
8, 12676, Note_on_c, 7, 72, 0
8, 12680, Note_on_c, 7, 72, 120
8, 13060, Note_on_c, 7, 74, 0
8, 13064, Note_on_c, 7, 74, 109
8, 13444, Note_on_c, 7, 77, 0
8, 13448, Note_on_c, 7, 77, 106
8, 13820, Note_on_c, 7, 74, 0
8, 13824, Note_on_c, 7, 74, 109
8, 14208, Note_on_c, 7, 72, 0
8, 14212, Note_on_c, 7, 72, 106
8, 14588, Note_on_c, 7, 69, 0
8, 14592, Note_on_c, 7, 69, 98
8, 14976, Note_on_c, 7, 67, 0
8, 14980, Note_on_c, 7, 67, 96
8, 15344, Note_on_c, 7, 67, 0
8, 15344, Note_on_c, 7, 69, 0
8, 15344, Note_on_c, 7, 77, 0
8, 15344, Note_on_c, 7, 74, 0
8, 15344, Note_on_c, 7, 72, 0
8, 15368, Note_on_c, 7, 69, 79
8, 16496, Note_on_c, 7, 69, 0
8, 21508, Note_on_c, 7, 69, 93
8, 21912, Note_on_c, 7, 72, 88
8, 22292, Note_on_c, 7, 74, 109
8, 22676, Note_on_c, 7, 77, 104
8, 23052, Note_on_c, 7, 74, 0
8, 23056, Note_on_c, 7, 74, 93
8, 23440, Note_on_c, 7, 72, 0
8, 23444, Note_on_c, 7, 72, 93
8, 23820, Note_on_c, 7, 69, 0
8, 23824, Note_on_c, 7, 69, 96
8, 24196, Note_on_c, 7, 67, 93
8, 24584, Note_on_c, 7, 69, 0
8, 24588, Note_on_c, 7, 69, 98
8, 24964, Note_on_c, 7, 72, 0
8, 24968, Note_on_c, 7, 72, 93
8, 25348, Note_on_c, 7, 74, 0
8, 25352, Note_on_c, 7, 74, 98
8, 25740, Note_on_c, 7, 77, 0
8, 25744, Note_on_c, 7, 77, 101
8, 26112, Note_on_c, 7, 74, 0
8, 26116, Note_on_c, 7, 74, 104
8, 26500, Note_on_c, 7, 72, 0
8, 26504, Note_on_c, 7, 72, 96
8, 26872, Note_on_c, 7, 69, 0
8, 26876, Note_on_c, 7, 69, 93
8, 27272, Note_on_c, 7, 67, 0
8, 27276, Note_on_c, 7, 67, 86
8, 27652, Note_on_c, 7, 67, 0
8, 27652, Note_on_c, 7, 69, 0
8, 27652, Note_on_c, 7, 77, 0
8, 27652, Note_on_c, 7, 74, 0
8, 27652, Note_on_c, 7, 72, 0
8, 33788, Note_on_c, 7, 69, 104
8, 34188, Note_on_c, 7, 72, 91
8, 34564, Note_on_c, 7, 74, 104
8, 34948, Note_on_c, 7, 77, 104
8, 35328, Note_on_c, 7, 74, 0
8, 35332, Note_on_c, 7, 74, 104
8, 35724, Note_on_c, 7, 72, 0
8, 35728, Note_on_c, 7, 72, 96
8, 36104, Note_on_c, 7, 69, 0
8, 36108, Note_on_c, 7, 69, 91
8, 36468, Note_on_c, 7, 67, 93
8, 36876, Note_on_c, 7, 69, 0
8, 36880, Note_on_c, 7, 69, 83
8, 37240, Note_on_c, 7, 72, 0
8, 37244, Note_on_c, 7, 72, 98
8, 37644, Note_on_c, 7, 74, 0
8, 37648, Note_on_c, 7, 74, 93
8, 38024, Note_on_c, 7, 77, 0
8, 38028, Note_on_c, 7, 77, 104
8, 38400, Note_on_c, 7, 74, 0
8, 38404, Note_on_c, 7, 74, 101
8, 38796, Note_on_c, 7, 72, 0
8, 38800, Note_on_c, 7, 72, 98
8, 39176, Note_on_c, 7, 69, 0
8, 39180, Note_on_c, 7, 69, 91
8, 39552, Note_on_c, 7, 67, 0
8, 39556, Note_on_c, 7, 67, 88
8, 39940, Note_on_c, 7, 69, 0
8, 39944, Note_on_c, 7, 69, 93
8, 40316, Note_on_c, 7, 72, 0
8, 40320, Note_on_c, 7, 72, 98
8, 40712, Note_on_c, 7, 74, 0
8, 40716, Note_on_c, 7, 74, 91
8, 41104, Note_on_c, 7, 77, 0
8, 41108, Note_on_c, 7, 77, 98
8, 41472, Note_on_c, 7, 74, 0
8, 41476, Note_on_c, 7, 74, 101
8, 41852, Note_on_c, 7, 72, 0
8, 41856, Note_on_c, 7, 72, 93
8, 42240, Note_on_c, 7, 69, 0
8, 42244, Note_on_c, 7, 69, 93
8, 42632, Note_on_c, 7, 67, 0
8, 42636, Note_on_c, 7, 67, 86
8, 42912, Note_on_c, 7, 67, 0
8, 42912, Note_on_c, 7, 69, 0
8, 42912, Note_on_c, 7, 77, 0
8, 42912, Note_on_c, 7, 74, 0
8, 42912, Note_on_c, 7, 72, 0
8, 49172, Note_on_c, 7, 69, 96
8, 49552, Note_on_c, 7, 72, 109
8, 49928, Note_on_c, 7, 74, 109
8, 50316, Note_on_c, 7, 77, 109
8, 50688, Note_on_c, 7, 74, 0
8, 50692, Note_on_c, 7, 74, 109
8, 51084, Note_on_c, 7, 72, 0
8, 51088, Note_on_c, 7, 72, 109
8, 51452, Note_on_c, 7, 69, 0
8, 51456, Note_on_c, 7, 69, 109
8, 51848, Note_on_c, 7, 67, 93
8, 52224, Note_on_c, 7, 69, 0
8, 52228, Note_on_c, 7, 69, 101
8, 52612, Note_on_c, 7, 72, 0
8, 52616, Note_on_c, 7, 72, 120
8, 52996, Note_on_c, 7, 74, 0
8, 53000, Note_on_c, 7, 74, 109
8, 53380, Note_on_c, 7, 77, 0
8, 53384, Note_on_c, 7, 77, 106
8, 53756, Note_on_c, 7, 74, 0
8, 53760, Note_on_c, 7, 74, 109
8, 54144, Note_on_c, 7, 72, 0
8, 54148, Note_on_c, 7, 72, 106
8, 54524, Note_on_c, 7, 69, 0
8, 54528, Note_on_c, 7, 69, 98
8, 54912, Note_on_c, 7, 67, 0
8, 54916, Note_on_c, 7, 67, 96
8, 55280, Note_on_c, 7, 67, 0
8, 55280, Note_on_c, 7, 69, 0
8, 55280, Note_on_c, 7, 77, 0
8, 55280, Note_on_c, 7, 74, 0
8, 55280, Note_on_c, 7, 72, 0
8, 55304, Note_on_c, 7, 69, 79
8, 56432, Note_on_c, 7, 69, 0
8, 61444, Note_on_c, 7, 69, 93
8, 61848, Note_on_c, 7, 72, 88
8, 62228, Note_on_c, 7, 74, 109
8, 62612, Note_on_c, 7, 77, 104
8, 62988, Note_on_c, 7, 74, 0
8, 62992, Note_on_c, 7, 74, 93
8, 63376, Note_on_c, 7, 72, 0
8, 63380, Note_on_c, 7, 72, 93
8, 63756, Note_on_c, 7, 69, 0
8, 63760, Note_on_c, 7, 69, 96
8, 64132, Note_on_c, 7, 67, 93
8, 64520, Note_on_c, 7, 69, 0
8, 64524, Note_on_c, 7, 69, 98
8, 64900, Note_on_c, 7, 72, 0
8, 64904, Note_on_c, 7, 72, 93
8, 65284, Note_on_c, 7, 74, 0
8, 65288, Note_on_c, 7, 74, 98
8, 65676, Note_on_c, 7, 77, 0
8, 65680, Note_on_c, 7, 77, 101
8, 66048, Note_on_c, 7, 74, 0
8, 66052, Note_on_c, 7, 74, 104
8, 66436, Note_on_c, 7, 72, 0
8, 66440, Note_on_c, 7, 72, 96
8, 66808, Note_on_c, 7, 69, 0
8, 66812, Note_on_c, 7, 69, 93
8, 67208, Note_on_c, 7, 67, 0
8, 67212, Note_on_c, 7, 67, 86
8, 67588, Note_on_c, 7, 67, 0
8, 67588, Note_on_c, 7, 69, 0
8, 67588, Note_on_c, 7, 77, 0
8, 67588, Note_on_c, 7, 74, 0
8, 67588, Note_on_c, 7, 72, 0
8, 73724, Note_on_c, 7, 69, 104
8, 74124, Note_on_c, 7, 72, 91
8, 74500, Note_on_c, 7, 74, 104
8, 74884, Note_on_c, 7, 77, 104
8, 75264, Note_on_c, 7, 74, 0
8, 75268, Note_on_c, 7, 74, 104
8, 75660, Note_on_c, 7, 72, 0
8, 75664, Note_on_c, 7, 72, 96
8, 76040, Note_on_c, 7, 69, 0
8, 76044, Note_on_c, 7, 69, 91
8, 76404, Note_on_c, 7, 67, 93
8, 76812, Note_on_c, 7, 69, 0
8, 76816, Note_on_c, 7, 69, 83
8, 77176, Note_on_c, 7, 72, 0
8, 77180, Note_on_c, 7, 72, 98
8, 77580, Note_on_c, 7, 74, 0
8, 77584, Note_on_c, 7, 74, 93
8, 77960, Note_on_c, 7, 77, 0
8, 77964, Note_on_c, 7, 77, 104
8, 78336, Note_on_c, 7, 74, 0
8, 78340, Note_on_c, 7, 74, 101
8, 78732, Note_on_c, 7, 72, 0
8, 78736, Note_on_c, 7, 72, 98
8, 79112, Note_on_c, 7, 69, 0
8, 79116, Note_on_c, 7, 69, 91
8, 79488, Note_on_c, 7, 67, 0
8, 79492, Note_on_c, 7, 67, 88
8, 79876, Note_on_c, 7, 69, 0
8, 79880, Note_on_c, 7, 69, 93
8, 80252, Note_on_c, 7, 72, 0
8, 80256, Note_on_c, 7, 72, 98
8, 80648, Note_on_c, 7, 74, 0
8, 80652, Note_on_c, 7, 74, 91
8, 81040, Note_on_c, 7, 77, 0
8, 81044, Note_on_c, 7, 77, 98
8, 81408, Note_on_c, 7, 74, 0
8, 81412, Note_on_c, 7, 74, 101
8, 81788, Note_on_c, 7, 72, 0
8, 81792, Note_on_c, 7, 72, 93
8, 82176, Note_on_c, 7, 69, 0
8, 82180, Note_on_c, 7, 69, 93
8, 82568, Note_on_c, 7, 67, 0
8, 82572, Note_on_c, 7, 67, 86
8, 82848, Note_on_c, 7, 67, 0
8, 82848, Note_on_c, 7, 69, 0
8, 82848, Note_on_c, 7, 77, 0
8, 82848, Note_on_c, 7, 74, 0
8, 82848, Note_on_c, 7, 72, 0
8, 119816, Note_on_c, 7, 69, 79
8, 125952, Note_on_c, 7, 69, 0
8, 125956, Note_on_c, 7, 69, 93
8, 126360, Note_on_c, 7, 72, 88
8, 126740, Note_on_c, 7, 74, 109
8, 127124, Note_on_c, 7, 77, 104
8, 127500, Note_on_c, 7, 74, 0
8, 127504, Note_on_c, 7, 74, 93
8, 127888, Note_on_c, 7, 72, 0
8, 127892, Note_on_c, 7, 72, 93
8, 128268, Note_on_c, 7, 69, 0
8, 128272, Note_on_c, 7, 69, 96
8, 128644, Note_on_c, 7, 67, 93
8, 129032, Note_on_c, 7, 69, 0
8, 129036, Note_on_c, 7, 69, 98
8, 129412, Note_on_c, 7, 72, 0
8, 129416, Note_on_c, 7, 72, 93
8, 129796, Note_on_c, 7, 74, 0
8, 129800, Note_on_c, 7, 74, 98
8, 130188, Note_on_c, 7, 77, 0
8, 130192, Note_on_c, 7, 77, 101
8, 130560, Note_on_c, 7, 74, 0
8, 130564, Note_on_c, 7, 74, 104
8, 130948, Note_on_c, 7, 72, 0
8, 130952, Note_on_c, 7, 72, 96
8, 131320, Note_on_c, 7, 69, 0
8, 131324, Note_on_c, 7, 69, 93
8, 131720, Note_on_c, 7, 67, 0
8, 131724, Note_on_c, 7, 67, 86
8, 132100, Note_on_c, 7, 67, 0
8, 132100, Note_on_c, 7, 69, 0
8, 132100, Note_on_c, 7, 77, 0
8, 132100, Note_on_c, 7, 74, 0
8, 132100, Note_on_c, 7, 72, 0
8, 138236, Note_on_c, 7, 69, 104
8, 138636, Note_on_c, 7, 72, 91
8, 139012, Note_on_c, 7, 74, 104
8, 139396, Note_on_c, 7, 77, 104
8, 139776, Note_on_c, 7, 74, 0
8, 139780, Note_on_c, 7, 74, 104
8, 140172, Note_on_c, 7, 72, 0
8, 140176, Note_on_c, 7, 72, 96
8, 140552, Note_on_c, 7, 69, 0
8, 140556, Note_on_c, 7, 69, 91
8, 140916, Note_on_c, 7, 67, 93
8, 141200, Note_on_c, 7, 67, 0
8, 141200, Note_on_c, 7, 74, 0
8, 141200, Note_on_c, 7, 72, 0
8, 141200, Note_on_c, 7, 77, 0
8, 141200, Note_on_c, 7, 69, 0
8, 141328, Note_on_c, 7, 69, 83
8, 141692, Note_on_c, 7, 72, 98
8, 142096, Note_on_c, 7, 74, 93
8, 142476, Note_on_c, 7, 77, 104
8, 142848, Note_on_c, 7, 74, 0
8, 142852, Note_on_c, 7, 74, 101
8, 143244, Note_on_c, 7, 72, 0
8, 143248, Note_on_c, 7, 72, 98
8, 143624, Note_on_c, 7, 69, 0
8, 143628, Note_on_c, 7, 69, 91
8, 144004, Note_on_c, 7, 67, 88
8, 144328, Note_on_c, 7, 67, 0
8, 144328, Note_on_c, 7, 74, 0
8, 144328, Note_on_c, 7, 72, 0
8, 144328, Note_on_c, 7, 77, 0
8, 144328, Note_on_c, 7, 69, 0
8, 144392, Note_on_c, 7, 69, 93
8, 144768, Note_on_c, 7, 72, 98
8, 145164, Note_on_c, 7, 74, 91
8, 145556, Note_on_c, 7, 77, 98
8, 145920, Note_on_c, 7, 74, 0
8, 145924, Note_on_c, 7, 74, 101
8, 146300, Note_on_c, 7, 72, 0
8, 146304, Note_on_c, 7, 72, 93
8, 146688, Note_on_c, 7, 69, 0
8, 146692, Note_on_c, 7, 69, 93
8, 147084, Note_on_c, 7, 67, 86
8, 147396, Note_on_c, 7, 67, 0
8, 147396, Note_on_c, 7, 74, 0
8, 147396, Note_on_c, 7, 72, 0
8, 147396, Note_on_c, 7, 77, 0
8, 147396, Note_on_c, 7, 69, 0
8, 147464, Note_on_c, 7, 69, 93
8, 147840, Note_on_c, 7, 72, 98
8, 148236, Note_on_c, 7, 74, 91
8, 148628, Note_on_c, 7, 77, 98
8, 148992, Note_on_c, 7, 74, 0
8, 148996, Note_on_c, 7, 74, 101
8, 149372, Note_on_c, 7, 72, 0
8, 149376, Note_on_c, 7, 72, 93
8, 149760, Note_on_c, 7, 69, 0
8, 149764, Note_on_c, 7, 69, 93
8, 150156, Note_on_c, 7, 67, 86
8, 150532, Note_on_c, 7, 69, 0
8, 150536, Note_on_c, 7, 69, 79
8, 150580, Note_on_c, 7, 74, 0
8, 150580, Note_on_c, 7, 67, 0
8, 150580, Note_on_c, 7, 72, 0
8, 150580, Note_on_c, 7, 77, 0
8, 151664, Note_on_c, 7, 69, 0
8, 156676, Note_on_c, 7, 69, 93
8, 157080, Note_on_c, 7, 72, 88
8, 157460, Note_on_c, 7, 74, 109
8, 157844, Note_on_c, 7, 77, 104
8, 158220, Note_on_c, 7, 74, 0
8, 158224, Note_on_c, 7, 74, 93
8, 158608, Note_on_c, 7, 72, 0
8, 158612, Note_on_c, 7, 72, 93
8, 158988, Note_on_c, 7, 69, 0
8, 158992, Note_on_c, 7, 69, 96
8, 159364, Note_on_c, 7, 67, 93
8, 159752, Note_on_c, 7, 69, 0
8, 159756, Note_on_c, 7, 69, 98
8, 160132, Note_on_c, 7, 72, 0
8, 160136, Note_on_c, 7, 72, 93
8, 160516, Note_on_c, 7, 74, 0
8, 160520, Note_on_c, 7, 74, 98
8, 160908, Note_on_c, 7, 77, 0
8, 160912, Note_on_c, 7, 77, 101
8, 161280, Note_on_c, 7, 74, 0
8, 161284, Note_on_c, 7, 74, 104
8, 161668, Note_on_c, 7, 72, 0
8, 161672, Note_on_c, 7, 72, 96
8, 162040, Note_on_c, 7, 69, 0
8, 162044, Note_on_c, 7, 69, 93
8, 162440, Note_on_c, 7, 67, 0
8, 162444, Note_on_c, 7, 67, 86
8, 162820, Note_on_c, 7, 69, 0
8, 162824, Note_on_c, 7, 69, 79
8, 168960, Note_on_c, 7, 69, 0
8, 168964, Note_on_c, 7, 69, 93
8, 169364, Note_on_c, 7, 72, 0
8, 169368, Note_on_c, 7, 72, 88
8, 169744, Note_on_c, 7, 74, 0
8, 169748, Note_on_c, 7, 74, 109
8, 170128, Note_on_c, 7, 77, 0
8, 170132, Note_on_c, 7, 77, 104
8, 170508, Note_on_c, 7, 74, 0
8, 170512, Note_on_c, 7, 74, 93
8, 170896, Note_on_c, 7, 72, 0
8, 170900, Note_on_c, 7, 72, 93
8, 171276, Note_on_c, 7, 69, 0
8, 171280, Note_on_c, 7, 69, 96
8, 171648, Note_on_c, 7, 67, 0
8, 171652, Note_on_c, 7, 67, 93
8, 172040, Note_on_c, 7, 69, 0
8, 172044, Note_on_c, 7, 69, 98
8, 172420, Note_on_c, 7, 72, 0
8, 172424, Note_on_c, 7, 72, 93
8, 172804, Note_on_c, 7, 74, 0
8, 172808, Note_on_c, 7, 74, 98
8, 173196, Note_on_c, 7, 77, 0
8, 173200, Note_on_c, 7, 77, 101
8, 173568, Note_on_c, 7, 74, 0
8, 173572, Note_on_c, 7, 74, 104
8, 173956, Note_on_c, 7, 72, 0
8, 173960, Note_on_c, 7, 72, 96
8, 174328, Note_on_c, 7, 69, 0
8, 174332, Note_on_c, 7, 69, 93
8, 174728, Note_on_c, 7, 67, 0
8, 174732, Note_on_c, 7, 67, 86
8, 175104, Note_on_c, 7, 69, 0
8, 175108, Note_on_c, 7, 69, 93
8, 175508, Note_on_c, 7, 72, 0
8, 175512, Note_on_c, 7, 72, 88
8, 175888, Note_on_c, 7, 74, 0
8, 175892, Note_on_c, 7, 74, 109
8, 176272, Note_on_c, 7, 77, 0
8, 176276, Note_on_c, 7, 77, 104
8, 176652, Note_on_c, 7, 74, 0
8, 176656, Note_on_c, 7, 74, 93
8, 177040, Note_on_c, 7, 72, 0
8, 177044, Note_on_c, 7, 72, 93
8, 177420, Note_on_c, 7, 69, 0
8, 177424, Note_on_c, 7, 69, 96
8, 177792, Note_on_c, 7, 67, 0
8, 177796, Note_on_c, 7, 67, 93
8, 178184, Note_on_c, 7, 69, 0
8, 178188, Note_on_c, 7, 69, 98
8, 178564, Note_on_c, 7, 72, 0
8, 178568, Note_on_c, 7, 72, 93
8, 178948, Note_on_c, 7, 74, 0
8, 178952, Note_on_c, 7, 74, 98
8, 179340, Note_on_c, 7, 77, 0
8, 179344, Note_on_c, 7, 77, 101
8, 179712, Note_on_c, 7, 74, 0
8, 179716, Note_on_c, 7, 74, 104
8, 180100, Note_on_c, 7, 72, 0
8, 180104, Note_on_c, 7, 72, 96
8, 180472, Note_on_c, 7, 69, 0
8, 180476, Note_on_c, 7, 69, 93
8, 180872, Note_on_c, 7, 67, 0
8, 180876, Note_on_c, 7, 67, 86
8, 181248, Note_on_c, 7, 69, 0
8, 181252, Note_on_c, 7, 69, 93
8, 181652, Note_on_c, 7, 72, 0
8, 181656, Note_on_c, 7, 72, 88
8, 182032, Note_on_c, 7, 74, 0
8, 182036, Note_on_c, 7, 74, 109
8, 182416, Note_on_c, 7, 77, 0
8, 182420, Note_on_c, 7, 77, 104
8, 182796, Note_on_c, 7, 74, 0
8, 182800, Note_on_c, 7, 74, 93
8, 183184, Note_on_c, 7, 72, 0
8, 183188, Note_on_c, 7, 72, 93
8, 183564, Note_on_c, 7, 69, 0
8, 183568, Note_on_c, 7, 69, 96
8, 183936, Note_on_c, 7, 67, 0
8, 183940, Note_on_c, 7, 67, 93
8, 184328, Note_on_c, 7, 69, 0
8, 184332, Note_on_c, 7, 69, 98
8, 184708, Note_on_c, 7, 72, 0
8, 184712, Note_on_c, 7, 72, 93
8, 185092, Note_on_c, 7, 74, 0
8, 185096, Note_on_c, 7, 74, 98
8, 185484, Note_on_c, 7, 77, 0
8, 185488, Note_on_c, 7, 77, 101
8, 185856, Note_on_c, 7, 74, 0
8, 185860, Note_on_c, 7, 74, 104
8, 186244, Note_on_c, 7, 72, 0
8, 186248, Note_on_c, 7, 72, 96
8, 186616, Note_on_c, 7, 69, 0
8, 186620, Note_on_c, 7, 69, 93
8, 187016, Note_on_c, 7, 67, 0
8, 187020, Note_on_c, 7, 67, 86
8, 187064, Note_on_c, 7, 72, 0
8, 187064, Note_on_c, 7, 69, 0
8, 187064, Note_on_c, 7, 77, 0
8, 187064, Note_on_c, 7, 74, 0
8, 187068, Note_on_c, 7, 67, 0
8, 187068, End_track
9, 0, Start_track
9, 0, MIDI_port, 0
9, 0, Title_t, "GYPSY             8 "
9, 0, Program_c, 8, 51
9, 0, Control_c, 8, 10, 76
9, 0, Control_c, 8, 0, 0
9, 0, Control_c, 8, 93, 64
9, 536, Control_c, 8, 7, 85
9, 536, Control_c, 8, 11, 127
9, 3080, Note_on_c, 8, 57, 83
9, 3084, Control_c, 8, 1, 0
9, 3084, Pitch_bend_c, 8, 8192
9, 3092, Note_on_c, 8, 53, 71
9, 4580, Note_on_c, 8, 53, 0
9, 4584, Note_on_c, 8, 60, 79
9, 6072, Note_on_c, 8, 60, 0
9, 6104, Note_on_c, 8, 57, 0
9, 6112, Note_on_c, 8, 48, 68
9, 6116, Note_on_c, 8, 53, 67
9, 7644, Note_on_c, 8, 53, 0
9, 7644, Note_on_c, 8, 48, 0
9, 7652, Note_on_c, 8, 57, 71
9, 7656, Note_on_c, 8, 60, 69
9, 8876, Note_on_c, 8, 57, 0
9, 8892, Note_on_c, 8, 60, 0
9, 9192, Note_on_c, 8, 62, 74
9, 9192, Note_on_c, 8, 58, 68
9, 10604, Note_on_c, 8, 58, 0
9, 10636, Note_on_c, 8, 62, 0
9, 10700, Note_on_c, 8, 60, 84
9, 10704, Note_on_c, 8, 64, 80
9, 11960, Note_on_c, 8, 60, 0
9, 12240, Note_on_c, 8, 64, 0
9, 12280, Note_on_c, 8, 58, 83
9, 12284, Note_on_c, 8, 62, 77
9, 13748, Note_on_c, 8, 58, 0
9, 13760, Note_on_c, 8, 62, 0
9, 13812, Note_on_c, 8, 64, 75
9, 13824, Note_on_c, 8, 60, 82
9, 15300, Note_on_c, 8, 60, 0
9, 15308, Note_on_c, 8, 64, 0
9, 15344, Note_on_c, 8, 57, 78
9, 15356, Note_on_c, 8, 53, 77
9, 16896, Note_on_c, 8, 60, 75
9, 16908, Note_on_c, 8, 53, 0
9, 18392, Note_on_c, 8, 60, 0
9, 18400, Note_on_c, 8, 57, 0
9, 18412, Note_on_c, 8, 48, 73
9, 18416, Note_on_c, 8, 53, 68
9, 19932, Note_on_c, 8, 48, 0
9, 19944, Note_on_c, 8, 53, 0
9, 19952, Note_on_c, 8, 57, 76
9, 19956, Note_on_c, 8, 60, 79
9, 21476, Note_on_c, 8, 58, 80
9, 21476, Note_on_c, 8, 62, 79
9, 21488, Note_on_c, 8, 57, 0
9, 21496, Note_on_c, 8, 60, 0
9, 22964, Note_on_c, 8, 58, 0
9, 22988, Note_on_c, 8, 62, 0
9, 23012, Note_on_c, 8, 60, 79
9, 23016, Note_on_c, 8, 64, 81
9, 24556, Note_on_c, 8, 60, 0
9, 24564, Note_on_c, 8, 58, 77
9, 24564, Note_on_c, 8, 62, 71
9, 24568, Note_on_c, 8, 64, 0
9, 26088, Note_on_c, 8, 62, 0
9, 26100, Note_on_c, 8, 60, 81
9, 26104, Note_on_c, 8, 58, 0
9, 26104, Note_on_c, 8, 64, 81
9, 27600, Note_on_c, 8, 60, 0
9, 27604, Note_on_c, 8, 64, 0
9, 27644, Note_on_c, 8, 57, 73
9, 27648, Note_on_c, 8, 53, 78
9, 29160, Note_on_c, 8, 60, 79
9, 29176, Note_on_c, 8, 53, 0
9, 30680, Note_on_c, 8, 60, 0
9, 30716, Note_on_c, 8, 53, 71
9, 32156, Note_on_c, 8, 57, 0
9, 32244, Note_on_c, 8, 57, 68
9, 32252, Note_on_c, 8, 60, 73
9, 32256, Note_on_c, 8, 53, 0
9, 33756, Note_on_c, 8, 57, 0
9, 33772, Note_on_c, 8, 58, 77
9, 33776, Note_on_c, 8, 60, 0
9, 33776, Note_on_c, 8, 62, 73
9, 35304, Note_on_c, 8, 58, 0
9, 35332, Note_on_c, 8, 64, 74
9, 35336, Note_on_c, 8, 60, 77
9, 35340, Note_on_c, 8, 62, 0
9, 36816, Note_on_c, 8, 60, 0
9, 36820, Note_on_c, 8, 64, 0
9, 36844, Note_on_c, 8, 58, 78
9, 36844, Note_on_c, 8, 62, 69
9, 38392, Note_on_c, 8, 62, 0
9, 38396, Note_on_c, 8, 58, 0
9, 38404, Note_on_c, 8, 60, 79
9, 38408, Note_on_c, 8, 64, 77
9, 39908, Note_on_c, 8, 60, 0
9, 39912, Note_on_c, 8, 58, 75
9, 39916, Note_on_c, 8, 64, 0
9, 39920, Note_on_c, 8, 62, 67
9, 41428, Note_on_c, 8, 58, 0
9, 41432, Note_on_c, 8, 62, 0
9, 41460, Note_on_c, 8, 60, 74
9, 41464, Note_on_c, 8, 64, 77
9, 42888, Note_on_c, 8, 60, 0
9, 42892, Note_on_c, 8, 64, 0
9, 43016, Note_on_c, 8, 57, 83
9, 43028, Note_on_c, 8, 53, 71
9, 44516, Note_on_c, 8, 53, 0
9, 44520, Note_on_c, 8, 60, 79
9, 46008, Note_on_c, 8, 60, 0
9, 46040, Note_on_c, 8, 57, 0
9, 46048, Note_on_c, 8, 48, 68
9, 46052, Note_on_c, 8, 53, 67
9, 47580, Note_on_c, 8, 53, 0
9, 47580, Note_on_c, 8, 48, 0
9, 47588, Note_on_c, 8, 57, 71
9, 47592, Note_on_c, 8, 60, 69
9, 48812, Note_on_c, 8, 57, 0
9, 48828, Note_on_c, 8, 60, 0
9, 49128, Note_on_c, 8, 62, 74
9, 49128, Note_on_c, 8, 58, 68
9, 50540, Note_on_c, 8, 58, 0
9, 50572, Note_on_c, 8, 62, 0
9, 50636, Note_on_c, 8, 60, 84
9, 50640, Note_on_c, 8, 64, 80
9, 51896, Note_on_c, 8, 60, 0
9, 52176, Note_on_c, 8, 64, 0
9, 52216, Note_on_c, 8, 58, 83
9, 52220, Note_on_c, 8, 62, 77
9, 53684, Note_on_c, 8, 58, 0
9, 53696, Note_on_c, 8, 62, 0
9, 53748, Note_on_c, 8, 64, 75
9, 53760, Note_on_c, 8, 60, 82
9, 55236, Note_on_c, 8, 60, 0
9, 55244, Note_on_c, 8, 64, 0
9, 55280, Note_on_c, 8, 57, 78
9, 55292, Note_on_c, 8, 53, 77
9, 56832, Note_on_c, 8, 60, 75
9, 56844, Note_on_c, 8, 53, 0
9, 58328, Note_on_c, 8, 60, 0
9, 58336, Note_on_c, 8, 57, 0
9, 58348, Note_on_c, 8, 48, 73
9, 58352, Note_on_c, 8, 53, 68
9, 59868, Note_on_c, 8, 48, 0
9, 59880, Note_on_c, 8, 53, 0
9, 59888, Note_on_c, 8, 57, 76
9, 59892, Note_on_c, 8, 60, 79
9, 61412, Note_on_c, 8, 58, 80
9, 61412, Note_on_c, 8, 62, 79
9, 61424, Note_on_c, 8, 57, 0
9, 61432, Note_on_c, 8, 60, 0
9, 62900, Note_on_c, 8, 58, 0
9, 62924, Note_on_c, 8, 62, 0
9, 62948, Note_on_c, 8, 60, 79
9, 62952, Note_on_c, 8, 64, 81
9, 64492, Note_on_c, 8, 60, 0
9, 64500, Note_on_c, 8, 58, 77
9, 64500, Note_on_c, 8, 62, 71
9, 64504, Note_on_c, 8, 64, 0
9, 66024, Note_on_c, 8, 62, 0
9, 66036, Note_on_c, 8, 60, 81
9, 66040, Note_on_c, 8, 58, 0
9, 66040, Note_on_c, 8, 64, 81
9, 67536, Note_on_c, 8, 60, 0
9, 67540, Note_on_c, 8, 64, 0
9, 67580, Note_on_c, 8, 57, 73
9, 67584, Note_on_c, 8, 53, 78
9, 69096, Note_on_c, 8, 60, 79
9, 69112, Note_on_c, 8, 53, 0
9, 70616, Note_on_c, 8, 60, 0
9, 70652, Note_on_c, 8, 53, 71
9, 72092, Note_on_c, 8, 57, 0
9, 72180, Note_on_c, 8, 57, 68
9, 72188, Note_on_c, 8, 60, 73
9, 72192, Note_on_c, 8, 53, 0
9, 73692, Note_on_c, 8, 57, 0
9, 73708, Note_on_c, 8, 58, 77
9, 73712, Note_on_c, 8, 60, 0
9, 73712, Note_on_c, 8, 62, 73
9, 75240, Note_on_c, 8, 58, 0
9, 75268, Note_on_c, 8, 64, 74
9, 75272, Note_on_c, 8, 60, 77
9, 75276, Note_on_c, 8, 62, 0
9, 76752, Note_on_c, 8, 60, 0
9, 76756, Note_on_c, 8, 64, 0
9, 76780, Note_on_c, 8, 58, 78
9, 76780, Note_on_c, 8, 62, 69
9, 78328, Note_on_c, 8, 62, 0
9, 78332, Note_on_c, 8, 58, 0
9, 78340, Note_on_c, 8, 60, 79
9, 78344, Note_on_c, 8, 64, 77
9, 79844, Note_on_c, 8, 60, 0
9, 79848, Note_on_c, 8, 58, 75
9, 79852, Note_on_c, 8, 64, 0
9, 79856, Note_on_c, 8, 62, 67
9, 81364, Note_on_c, 8, 58, 0
9, 81368, Note_on_c, 8, 62, 0
9, 81396, Note_on_c, 8, 60, 74
9, 81400, Note_on_c, 8, 64, 77
9, 82824, Note_on_c, 8, 60, 0
9, 82828, Note_on_c, 8, 64, 0
9, 82952, Note_on_c, 8, 57, 83
9, 82964, Note_on_c, 8, 53, 71
9, 84452, Note_on_c, 8, 53, 0
9, 84456, Note_on_c, 8, 60, 79
9, 85944, Note_on_c, 8, 60, 0
9, 85976, Note_on_c, 8, 57, 0
9, 85984, Note_on_c, 8, 48, 68
9, 85988, Note_on_c, 8, 53, 67
9, 87516, Note_on_c, 8, 53, 0
9, 87516, Note_on_c, 8, 48, 0
9, 87524, Note_on_c, 8, 57, 71
9, 87528, Note_on_c, 8, 60, 69
9, 88748, Note_on_c, 8, 57, 0
9, 88764, Note_on_c, 8, 60, 0
9, 89088, Note_on_c, 8, 62, 76
9, 89092, Note_on_c, 8, 65, 77
9, 92120, Note_on_c, 8, 65, 0
9, 92148, Note_on_c, 8, 62, 0
9, 92160, Note_on_c, 8, 60, 81
9, 92160, Note_on_c, 8, 64, 74
9, 95200, Note_on_c, 8, 64, 0
9, 95220, Note_on_c, 8, 57, 74
9, 98276, Note_on_c, 8, 60, 0
9, 98288, Note_on_c, 8, 58, 71
9, 98304, Note_on_c, 8, 57, 0
9, 98304, Note_on_c, 8, 62, 73
9, 101360, Note_on_c, 8, 65, 70
9, 101368, Note_on_c, 8, 58, 0
9, 104444, Note_on_c, 8, 65, 0
9, 104448, Note_on_c, 8, 60, 76
9, 104448, Note_on_c, 8, 64, 71
9, 104464, Note_on_c, 8, 62, 0
9, 107508, Note_on_c, 8, 57, 73
9, 107512, Note_on_c, 8, 64, 0
9, 110568, Note_on_c, 8, 60, 0
9, 110588, Note_on_c, 8, 58, 79
9, 110596, Note_on_c, 8, 57, 0
9, 110604, Note_on_c, 8, 62, 74
9, 113644, Note_on_c, 8, 58, 0
9, 113648, Note_on_c, 8, 65, 77
9, 116688, Note_on_c, 8, 65, 0
9, 116712, Note_on_c, 8, 62, 0
9, 116728, Note_on_c, 8, 60, 79
9, 116732, Note_on_c, 8, 64, 75
9, 119600, Note_on_c, 8, 64, 0
9, 119612, Note_on_c, 8, 60, 0
9, 121344, Note_on_c, 8, 60, 75
9, 122840, Note_on_c, 8, 60, 0
9, 122860, Note_on_c, 8, 48, 73
9, 122864, Note_on_c, 8, 53, 68
9, 124380, Note_on_c, 8, 48, 0
9, 124392, Note_on_c, 8, 53, 0
9, 124400, Note_on_c, 8, 57, 76
9, 124404, Note_on_c, 8, 60, 79
9, 125924, Note_on_c, 8, 58, 80
9, 125924, Note_on_c, 8, 62, 79
9, 125936, Note_on_c, 8, 57, 0
9, 125944, Note_on_c, 8, 60, 0
9, 127412, Note_on_c, 8, 58, 0
9, 127436, Note_on_c, 8, 62, 0
9, 127460, Note_on_c, 8, 60, 79
9, 127464, Note_on_c, 8, 64, 81
9, 129004, Note_on_c, 8, 60, 0
9, 129012, Note_on_c, 8, 58, 77
9, 129012, Note_on_c, 8, 62, 71
9, 129016, Note_on_c, 8, 64, 0
9, 130536, Note_on_c, 8, 62, 0
9, 130548, Note_on_c, 8, 60, 81
9, 130552, Note_on_c, 8, 58, 0
9, 130552, Note_on_c, 8, 64, 81
9, 132048, Note_on_c, 8, 60, 0
9, 132052, Note_on_c, 8, 64, 0
9, 132092, Note_on_c, 8, 57, 73
9, 132096, Note_on_c, 8, 53, 78
9, 133608, Note_on_c, 8, 60, 79
9, 133624, Note_on_c, 8, 53, 0
9, 135128, Note_on_c, 8, 60, 0
9, 135164, Note_on_c, 8, 53, 71
9, 136604, Note_on_c, 8, 57, 0
9, 136692, Note_on_c, 8, 57, 68
9, 136700, Note_on_c, 8, 60, 73
9, 136704, Note_on_c, 8, 53, 0
9, 138204, Note_on_c, 8, 57, 0
9, 138220, Note_on_c, 8, 58, 77
9, 138224, Note_on_c, 8, 60, 0
9, 138224, Note_on_c, 8, 62, 73
9, 139752, Note_on_c, 8, 58, 0
9, 139780, Note_on_c, 8, 64, 74
9, 139784, Note_on_c, 8, 60, 77
9, 139788, Note_on_c, 8, 62, 0
9, 141264, Note_on_c, 8, 60, 0
9, 141268, Note_on_c, 8, 64, 0
9, 141292, Note_on_c, 8, 58, 78
9, 141292, Note_on_c, 8, 62, 69
9, 142840, Note_on_c, 8, 62, 0
9, 142844, Note_on_c, 8, 58, 0
9, 142852, Note_on_c, 8, 60, 79
9, 142856, Note_on_c, 8, 64, 77
9, 144356, Note_on_c, 8, 60, 0
9, 144360, Note_on_c, 8, 58, 75
9, 144364, Note_on_c, 8, 64, 0
9, 144368, Note_on_c, 8, 62, 67
9, 145876, Note_on_c, 8, 58, 0
9, 145880, Note_on_c, 8, 62, 0
9, 145908, Note_on_c, 8, 60, 74
9, 145912, Note_on_c, 8, 64, 77
9, 147336, Note_on_c, 8, 60, 0
9, 147340, Note_on_c, 8, 64, 0
9, 148980, Note_on_c, 8, 60, 74
9, 148984, Note_on_c, 8, 64, 77
9, 150408, Note_on_c, 8, 60, 0
9, 150412, Note_on_c, 8, 64, 0
9, 152064, Note_on_c, 8, 60, 75
9, 153560, Note_on_c, 8, 60, 0
9, 153580, Note_on_c, 8, 48, 73
9, 153584, Note_on_c, 8, 53, 68
9, 155100, Note_on_c, 8, 48, 0
9, 155112, Note_on_c, 8, 53, 0
9, 155120, Note_on_c, 8, 57, 76
9, 155124, Note_on_c, 8, 60, 79
9, 156644, Note_on_c, 8, 58, 80
9, 156644, Note_on_c, 8, 62, 79
9, 156656, Note_on_c, 8, 57, 0
9, 156664, Note_on_c, 8, 60, 0
9, 158132, Note_on_c, 8, 58, 0
9, 158156, Note_on_c, 8, 62, 0
9, 158180, Note_on_c, 8, 60, 79
9, 158184, Note_on_c, 8, 64, 81
9, 159724, Note_on_c, 8, 60, 0
9, 159732, Note_on_c, 8, 58, 77
9, 159732, Note_on_c, 8, 62, 71
9, 159736, Note_on_c, 8, 64, 0
9, 161256, Note_on_c, 8, 62, 0
9, 161268, Note_on_c, 8, 60, 81
9, 161272, Note_on_c, 8, 58, 0
9, 161272, Note_on_c, 8, 64, 81
9, 162768, Note_on_c, 8, 60, 0
9, 162772, Note_on_c, 8, 64, 0
9, 162812, Note_on_c, 8, 57, 73
9, 164352, Note_on_c, 8, 60, 75
9, 165848, Note_on_c, 8, 60, 0
9, 165868, Note_on_c, 8, 48, 73
9, 165872, Note_on_c, 8, 53, 68
9, 167324, Note_on_c, 8, 57, 0
9, 167388, Note_on_c, 8, 48, 0
9, 167400, Note_on_c, 8, 53, 0
9, 167408, Note_on_c, 8, 57, 76
9, 167412, Note_on_c, 8, 60, 79
9, 168932, Note_on_c, 8, 58, 80
9, 168932, Note_on_c, 8, 62, 79
9, 168944, Note_on_c, 8, 57, 0
9, 168952, Note_on_c, 8, 60, 0
9, 170420, Note_on_c, 8, 58, 0
9, 170444, Note_on_c, 8, 62, 0
9, 170468, Note_on_c, 8, 60, 79
9, 170472, Note_on_c, 8, 64, 81
9, 172012, Note_on_c, 8, 60, 0
9, 172020, Note_on_c, 8, 58, 77
9, 172020, Note_on_c, 8, 62, 71
9, 172024, Note_on_c, 8, 64, 0
9, 173544, Note_on_c, 8, 62, 0
9, 173556, Note_on_c, 8, 60, 81
9, 173560, Note_on_c, 8, 58, 0
9, 173560, Note_on_c, 8, 64, 81
9, 175056, Note_on_c, 8, 60, 0
9, 175060, Note_on_c, 8, 64, 0
9, 175100, Note_on_c, 8, 57, 73
9, 176640, Note_on_c, 8, 60, 75
9, 178136, Note_on_c, 8, 60, 0
9, 178156, Note_on_c, 8, 48, 73
9, 178160, Note_on_c, 8, 53, 68
9, 179612, Note_on_c, 8, 57, 0
9, 179676, Note_on_c, 8, 48, 0
9, 179688, Note_on_c, 8, 53, 0
9, 179696, Note_on_c, 8, 57, 76
9, 179700, Note_on_c, 8, 60, 79
9, 181220, Note_on_c, 8, 58, 80
9, 181220, Note_on_c, 8, 62, 79
9, 181232, Note_on_c, 8, 57, 0
9, 181240, Note_on_c, 8, 60, 0
9, 182708, Note_on_c, 8, 58, 0
9, 182732, Note_on_c, 8, 62, 0
9, 182756, Note_on_c, 8, 60, 79
9, 182760, Note_on_c, 8, 64, 81
9, 184300, Note_on_c, 8, 60, 0
9, 184308, Note_on_c, 8, 58, 77
9, 184308, Note_on_c, 8, 62, 71
9, 184312, Note_on_c, 8, 64, 0
9, 185832, Note_on_c, 8, 62, 0
9, 185844, Note_on_c, 8, 60, 81
9, 185848, Note_on_c, 8, 58, 0
9, 185848, Note_on_c, 8, 64, 81
9, 187344, Note_on_c, 8, 60, 0
9, 187348, Note_on_c, 8, 64, 0
9, 187388, Note_on_c, 8, 57, 73
9, 188824, Note_on_c, 8, 57, 0
9, 188824, End_track
10, 0, Start_track
10, 0, MIDI_port, 0
10, 0, Title_t, "GYPSY             9 "
10, 0, Control_c, 9, 93, 0
10, 556, Control_c, 9, 7, 101
10, 556, Control_c, 9, 11, 127
10, 3072, Note_on_c, 9, 36, 109
10, 3072, Note_on_c, 9, 42, 75
10, 3072, Note_on_c, 9, 70, 82
10, 3076, Control_c, 9, 1, 0
10, 3076, Pitch_bend_c, 9, 8192
10, 3096, Note_on_c, 9, 70, 0
10, 3096, Note_on_c, 9, 42, 0
10, 3096, Note_on_c, 9, 36, 0
10, 3264, Note_on_c, 9, 42, 62
10, 3264, Note_on_c, 9, 70, 31
10, 3288, Note_on_c, 9, 70, 0
10, 3288, Note_on_c, 9, 42, 0
10, 3456, Note_on_c, 9, 42, 81
10, 3456, Note_on_c, 9, 70, 76
10, 3456, Note_on_c, 9, 38, 116
10, 3480, Note_on_c, 9, 38, 0
10, 3480, Note_on_c, 9, 70, 0
10, 3480, Note_on_c, 9, 42, 0
10, 3648, Note_on_c, 9, 42, 54
10, 3648, Note_on_c, 9, 70, 55
10, 3672, Note_on_c, 9, 70, 0
10, 3672, Note_on_c, 9, 42, 0
10, 3840, Note_on_c, 9, 42, 77
10, 3840, Note_on_c, 9, 70, 66
10, 3864, Note_on_c, 9, 70, 0
10, 3864, Note_on_c, 9, 42, 0
10, 4032, Note_on_c, 9, 36, 106
10, 4032, Note_on_c, 9, 42, 56
10, 4032, Note_on_c, 9, 70, 51
10, 4056, Note_on_c, 9, 70, 0
10, 4056, Note_on_c, 9, 42, 0
10, 4056, Note_on_c, 9, 36, 0
10, 4224, Note_on_c, 9, 42, 88
10, 4224, Note_on_c, 9, 70, 72
10, 4224, Note_on_c, 9, 38, 111
10, 4248, Note_on_c, 9, 38, 0
10, 4248, Note_on_c, 9, 70, 0
10, 4248, Note_on_c, 9, 42, 0
10, 4416, Note_on_c, 9, 42, 59
10, 4416, Note_on_c, 9, 70, 51
10, 4440, Note_on_c, 9, 70, 0
10, 4440, Note_on_c, 9, 42, 0
10, 4608, Note_on_c, 9, 36, 114
10, 4608, Note_on_c, 9, 42, 85
10, 4608, Note_on_c, 9, 70, 69
10, 4632, Note_on_c, 9, 70, 0
10, 4632, Note_on_c, 9, 42, 0
10, 4632, Note_on_c, 9, 36, 0
10, 4800, Note_on_c, 9, 42, 54
10, 4800, Note_on_c, 9, 70, 46
10, 4824, Note_on_c, 9, 70, 0
10, 4824, Note_on_c, 9, 42, 0
10, 4992, Note_on_c, 9, 42, 88
10, 4992, Note_on_c, 9, 70, 82
10, 4992, Note_on_c, 9, 38, 116
10, 5016, Note_on_c, 9, 38, 0
10, 5016, Note_on_c, 9, 70, 0
10, 5016, Note_on_c, 9, 42, 0
10, 5184, Note_on_c, 9, 42, 59
10, 5184, Note_on_c, 9, 70, 55
10, 5208, Note_on_c, 9, 70, 0
10, 5208, Note_on_c, 9, 42, 0
10, 5376, Note_on_c, 9, 36, 91
10, 5376, Note_on_c, 9, 42, 66
10, 5376, Note_on_c, 9, 70, 64
10, 5400, Note_on_c, 9, 70, 0
10, 5400, Note_on_c, 9, 42, 0
10, 5400, Note_on_c, 9, 36, 0
10, 5568, Note_on_c, 9, 36, 103
10, 5568, Note_on_c, 9, 42, 81
10, 5568, Note_on_c, 9, 70, 66
10, 5592, Note_on_c, 9, 70, 0
10, 5592, Note_on_c, 9, 42, 0
10, 5592, Note_on_c, 9, 36, 0
10, 5760, Note_on_c, 9, 42, 94
10, 5760, Note_on_c, 9, 70, 69
10, 5760, Note_on_c, 9, 38, 108
10, 5784, Note_on_c, 9, 38, 0
10, 5784, Note_on_c, 9, 70, 0
10, 5784, Note_on_c, 9, 42, 0
10, 5952, Note_on_c, 9, 42, 69
10, 5952, Note_on_c, 9, 70, 57
10, 5976, Note_on_c, 9, 70, 0
10, 5976, Note_on_c, 9, 42, 0
10, 6144, Note_on_c, 9, 36, 109
10, 6144, Note_on_c, 9, 42, 85
10, 6144, Note_on_c, 9, 70, 72
10, 6168, Note_on_c, 9, 70, 0
10, 6168, Note_on_c, 9, 42, 0
10, 6168, Note_on_c, 9, 36, 0
10, 6336, Note_on_c, 9, 42, 62
10, 6336, Note_on_c, 9, 70, 55
10, 6360, Note_on_c, 9, 70, 0
10, 6360, Note_on_c, 9, 42, 0
10, 6528, Note_on_c, 9, 42, 92
10, 6528, Note_on_c, 9, 70, 74
10, 6528, Note_on_c, 9, 38, 108
10, 6552, Note_on_c, 9, 38, 0
10, 6552, Note_on_c, 9, 70, 0
10, 6552, Note_on_c, 9, 42, 0
10, 6720, Note_on_c, 9, 42, 56
10, 6720, Note_on_c, 9, 70, 57
10, 6744, Note_on_c, 9, 70, 0
10, 6744, Note_on_c, 9, 42, 0
10, 6912, Note_on_c, 9, 42, 72
10, 6912, Note_on_c, 9, 70, 69
10, 6936, Note_on_c, 9, 70, 0
10, 6936, Note_on_c, 9, 42, 0
10, 7104, Note_on_c, 9, 36, 114
10, 7104, Note_on_c, 9, 42, 85
10, 7104, Note_on_c, 9, 70, 58
10, 7128, Note_on_c, 9, 70, 0
10, 7128, Note_on_c, 9, 42, 0
10, 7128, Note_on_c, 9, 36, 0
10, 7296, Note_on_c, 9, 42, 92
10, 7296, Note_on_c, 9, 70, 82
10, 7296, Note_on_c, 9, 38, 111
10, 7320, Note_on_c, 9, 38, 0
10, 7320, Note_on_c, 9, 70, 0
10, 7320, Note_on_c, 9, 42, 0
10, 7488, Note_on_c, 9, 42, 69
10, 7488, Note_on_c, 9, 70, 69
10, 7512, Note_on_c, 9, 70, 0
10, 7512, Note_on_c, 9, 42, 0
10, 7680, Note_on_c, 9, 36, 106
10, 7680, Note_on_c, 9, 42, 92
10, 7680, Note_on_c, 9, 70, 72
10, 7704, Note_on_c, 9, 70, 0
10, 7704, Note_on_c, 9, 42, 0
10, 7704, Note_on_c, 9, 36, 0
10, 7872, Note_on_c, 9, 42, 54
10, 7872, Note_on_c, 9, 70, 66
10, 7896, Note_on_c, 9, 70, 0
10, 7896, Note_on_c, 9, 42, 0
10, 8064, Note_on_c, 9, 42, 92
10, 8064, Note_on_c, 9, 70, 74
10, 8064, Note_on_c, 9, 38, 108
10, 8088, Note_on_c, 9, 38, 0
10, 8088, Note_on_c, 9, 70, 0
10, 8088, Note_on_c, 9, 42, 0
10, 8256, Note_on_c, 9, 42, 72
10, 8256, Note_on_c, 9, 70, 64
10, 8280, Note_on_c, 9, 70, 0
10, 8280, Note_on_c, 9, 42, 0
10, 8448, Note_on_c, 9, 36, 98
10, 8448, Note_on_c, 9, 42, 85
10, 8448, Note_on_c, 9, 70, 66
10, 8472, Note_on_c, 9, 70, 0
10, 8472, Note_on_c, 9, 42, 0
10, 8472, Note_on_c, 9, 36, 0
10, 8640, Note_on_c, 9, 36, 106
10, 8640, Note_on_c, 9, 42, 75
10, 8640, Note_on_c, 9, 70, 66
10, 8664, Note_on_c, 9, 70, 0
10, 8664, Note_on_c, 9, 42, 0
10, 8664, Note_on_c, 9, 36, 0
10, 8832, Note_on_c, 9, 42, 88
10, 8832, Note_on_c, 9, 70, 82
10, 8832, Note_on_c, 9, 38, 113
10, 8856, Note_on_c, 9, 38, 0
10, 8856, Note_on_c, 9, 70, 0
10, 8856, Note_on_c, 9, 42, 0
10, 9024, Note_on_c, 9, 42, 72
10, 9024, Note_on_c, 9, 70, 69
10, 9048, Note_on_c, 9, 70, 0
10, 9048, Note_on_c, 9, 42, 0
10, 9216, Note_on_c, 9, 36, 109
10, 9216, Note_on_c, 9, 42, 88
10, 9216, Note_on_c, 9, 70, 64
10, 9240, Note_on_c, 9, 70, 0
10, 9240, Note_on_c, 9, 42, 0
10, 9240, Note_on_c, 9, 36, 0
10, 9408, Note_on_c, 9, 42, 56
10, 9408, Note_on_c, 9, 70, 62
10, 9432, Note_on_c, 9, 70, 0
10, 9432, Note_on_c, 9, 42, 0
10, 9600, Note_on_c, 9, 42, 94
10, 9600, Note_on_c, 9, 70, 72
10, 9600, Note_on_c, 9, 38, 111
10, 9624, Note_on_c, 9, 38, 0
10, 9624, Note_on_c, 9, 70, 0
10, 9624, Note_on_c, 9, 42, 0
10, 9792, Note_on_c, 9, 42, 52
10, 9792, Note_on_c, 9, 70, 60
10, 9816, Note_on_c, 9, 70, 0
10, 9816, Note_on_c, 9, 42, 0
10, 9984, Note_on_c, 9, 42, 77
10, 9984, Note_on_c, 9, 70, 82
10, 10008, Note_on_c, 9, 70, 0
10, 10008, Note_on_c, 9, 42, 0
10, 10176, Note_on_c, 9, 36, 114
10, 10176, Note_on_c, 9, 42, 88
10, 10176, Note_on_c, 9, 70, 55
10, 10200, Note_on_c, 9, 70, 0
10, 10200, Note_on_c, 9, 42, 0
10, 10200, Note_on_c, 9, 36, 0
10, 10368, Note_on_c, 9, 42, 88
10, 10368, Note_on_c, 9, 70, 79
10, 10368, Note_on_c, 9, 38, 108
10, 10392, Note_on_c, 9, 38, 0
10, 10392, Note_on_c, 9, 70, 0
10, 10392, Note_on_c, 9, 42, 0
10, 10560, Note_on_c, 9, 42, 72
10, 10560, Note_on_c, 9, 70, 66
10, 10584, Note_on_c, 9, 70, 0
10, 10584, Note_on_c, 9, 42, 0
10, 10752, Note_on_c, 9, 36, 114
10, 10752, Note_on_c, 9, 42, 88
10, 10752, Note_on_c, 9, 70, 87
10, 10776, Note_on_c, 9, 70, 0
10, 10776, Note_on_c, 9, 42, 0
10, 10776, Note_on_c, 9, 36, 0
10, 10944, Note_on_c, 9, 42, 69
10, 10944, Note_on_c, 9, 70, 69
10, 10968, Note_on_c, 9, 70, 0
10, 10968, Note_on_c, 9, 42, 0
10, 11136, Note_on_c, 9, 42, 92
10, 11136, Note_on_c, 9, 70, 76
10, 11136, Note_on_c, 9, 38, 111
10, 11160, Note_on_c, 9, 38, 0
10, 11160, Note_on_c, 9, 70, 0
10, 11160, Note_on_c, 9, 42, 0
10, 11328, Note_on_c, 9, 42, 64
10, 11328, Note_on_c, 9, 70, 58
10, 11352, Note_on_c, 9, 70, 0
10, 11352, Note_on_c, 9, 42, 0
10, 11520, Note_on_c, 9, 36, 93
10, 11520, Note_on_c, 9, 42, 85
10, 11520, Note_on_c, 9, 70, 85
10, 11544, Note_on_c, 9, 70, 0
10, 11544, Note_on_c, 9, 42, 0
10, 11544, Note_on_c, 9, 36, 0
10, 11712, Note_on_c, 9, 36, 109
10, 11712, Note_on_c, 9, 42, 77
10, 11712, Note_on_c, 9, 70, 69
10, 11736, Note_on_c, 9, 70, 0
10, 11736, Note_on_c, 9, 42, 0
10, 11736, Note_on_c, 9, 36, 0
10, 11904, Note_on_c, 9, 42, 88
10, 11904, Note_on_c, 9, 70, 85
10, 11904, Note_on_c, 9, 38, 111
10, 11928, Note_on_c, 9, 38, 0
10, 11928, Note_on_c, 9, 70, 0
10, 11928, Note_on_c, 9, 42, 0
10, 12096, Note_on_c, 9, 42, 75
10, 12096, Note_on_c, 9, 70, 72
10, 12120, Note_on_c, 9, 70, 0
10, 12120, Note_on_c, 9, 42, 0
10, 12288, Note_on_c, 9, 36, 109
10, 12288, Note_on_c, 9, 42, 88
10, 12288, Note_on_c, 9, 70, 79
10, 12312, Note_on_c, 9, 70, 0
10, 12312, Note_on_c, 9, 42, 0
10, 12312, Note_on_c, 9, 36, 0
10, 12480, Note_on_c, 9, 42, 69
10, 12480, Note_on_c, 9, 70, 66
10, 12504, Note_on_c, 9, 70, 0
10, 12504, Note_on_c, 9, 42, 0
10, 12672, Note_on_c, 9, 42, 92
10, 12672, Note_on_c, 9, 70, 72
10, 12672, Note_on_c, 9, 38, 106
10, 12696, Note_on_c, 9, 38, 0
10, 12696, Note_on_c, 9, 70, 0
10, 12696, Note_on_c, 9, 42, 0
10, 12864, Note_on_c, 9, 42, 77
10, 12864, Note_on_c, 9, 70, 66
10, 12888, Note_on_c, 9, 70, 0
10, 12888, Note_on_c, 9, 42, 0
10, 13056, Note_on_c, 9, 42, 77
10, 13056, Note_on_c, 9, 70, 74
10, 13080, Note_on_c, 9, 70, 0
10, 13080, Note_on_c, 9, 42, 0
10, 13248, Note_on_c, 9, 36, 106
10, 13248, Note_on_c, 9, 42, 92
10, 13248, Note_on_c, 9, 70, 66
10, 13272, Note_on_c, 9, 70, 0
10, 13272, Note_on_c, 9, 42, 0
10, 13272, Note_on_c, 9, 36, 0
10, 13440, Note_on_c, 9, 42, 88
10, 13440, Note_on_c, 9, 70, 91
10, 13440, Note_on_c, 9, 38, 106
10, 13464, Note_on_c, 9, 38, 0
10, 13464, Note_on_c, 9, 70, 0
10, 13464, Note_on_c, 9, 42, 0
10, 13632, Note_on_c, 9, 42, 75
10, 13632, Note_on_c, 9, 70, 64
10, 13656, Note_on_c, 9, 70, 0
10, 13656, Note_on_c, 9, 42, 0
10, 13824, Note_on_c, 9, 36, 103
10, 13824, Note_on_c, 9, 42, 88
10, 13824, Note_on_c, 9, 70, 79
10, 13848, Note_on_c, 9, 70, 0
10, 13848, Note_on_c, 9, 42, 0
10, 13848, Note_on_c, 9, 36, 0
10, 14016, Note_on_c, 9, 42, 69
10, 14016, Note_on_c, 9, 70, 66
10, 14040, Note_on_c, 9, 70, 0
10, 14040, Note_on_c, 9, 42, 0
10, 14208, Note_on_c, 9, 42, 88
10, 14208, Note_on_c, 9, 70, 87
10, 14208, Note_on_c, 9, 38, 106
10, 14232, Note_on_c, 9, 38, 0
10, 14232, Note_on_c, 9, 70, 0
10, 14232, Note_on_c, 9, 42, 0
10, 14400, Note_on_c, 9, 42, 75
10, 14400, Note_on_c, 9, 70, 69
10, 14424, Note_on_c, 9, 70, 0
10, 14424, Note_on_c, 9, 42, 0
10, 14592, Note_on_c, 9, 36, 98
10, 14592, Note_on_c, 9, 42, 88
10, 14592, Note_on_c, 9, 70, 85
10, 14616, Note_on_c, 9, 70, 0
10, 14616, Note_on_c, 9, 42, 0
10, 14616, Note_on_c, 9, 36, 0
10, 14784, Note_on_c, 9, 36, 103
10, 14784, Note_on_c, 9, 42, 81
10, 14784, Note_on_c, 9, 70, 60
10, 14808, Note_on_c, 9, 70, 0
10, 14808, Note_on_c, 9, 42, 0
10, 14808, Note_on_c, 9, 36, 0
10, 14976, Note_on_c, 9, 42, 94
10, 14976, Note_on_c, 9, 70, 85
10, 14976, Note_on_c, 9, 38, 113
10, 15000, Note_on_c, 9, 38, 0
10, 15000, Note_on_c, 9, 70, 0
10, 15000, Note_on_c, 9, 42, 0
10, 15168, Note_on_c, 9, 70, 66
10, 15192, Note_on_c, 9, 70, 0
10, 15360, Note_on_c, 9, 36, 109
10, 15360, Note_on_c, 9, 42, 75
10, 15360, Note_on_c, 9, 70, 85
10, 15384, Note_on_c, 9, 70, 0
10, 15384, Note_on_c, 9, 42, 0
10, 15384, Note_on_c, 9, 36, 0
10, 15552, Note_on_c, 9, 42, 62
10, 15552, Note_on_c, 9, 70, 64
10, 15576, Note_on_c, 9, 70, 0
10, 15576, Note_on_c, 9, 42, 0
10, 15744, Note_on_c, 9, 42, 81
10, 15744, Note_on_c, 9, 70, 82
10, 15744, Note_on_c, 9, 38, 116
10, 15768, Note_on_c, 9, 38, 0
10, 15768, Note_on_c, 9, 70, 0
10, 15768, Note_on_c, 9, 42, 0
10, 15936, Note_on_c, 9, 42, 54
10, 15936, Note_on_c, 9, 70, 60
10, 15960, Note_on_c, 9, 70, 0
10, 15960, Note_on_c, 9, 42, 0
10, 16128, Note_on_c, 9, 42, 77
10, 16128, Note_on_c, 9, 70, 79
10, 16152, Note_on_c, 9, 70, 0
10, 16152, Note_on_c, 9, 42, 0
10, 16320, Note_on_c, 9, 36, 106
10, 16320, Note_on_c, 9, 42, 56
10, 16320, Note_on_c, 9, 70, 60
10, 16344, Note_on_c, 9, 70, 0
10, 16344, Note_on_c, 9, 42, 0
10, 16344, Note_on_c, 9, 36, 0
10, 16512, Note_on_c, 9, 42, 88
10, 16512, Note_on_c, 9, 70, 79
10, 16512, Note_on_c, 9, 38, 111
10, 16536, Note_on_c, 9, 38, 0
10, 16536, Note_on_c, 9, 70, 0
10, 16536, Note_on_c, 9, 42, 0
10, 16704, Note_on_c, 9, 42, 59
10, 16704, Note_on_c, 9, 70, 64
10, 16728, Note_on_c, 9, 70, 0
10, 16728, Note_on_c, 9, 42, 0
10, 16896, Note_on_c, 9, 36, 114
10, 16896, Note_on_c, 9, 42, 85
10, 16896, Note_on_c, 9, 70, 82
10, 16920, Note_on_c, 9, 70, 0
10, 16920, Note_on_c, 9, 42, 0
10, 16920, Note_on_c, 9, 36, 0
10, 17088, Note_on_c, 9, 42, 54
10, 17088, Note_on_c, 9, 70, 57
10, 17112, Note_on_c, 9, 70, 0
10, 17112, Note_on_c, 9, 42, 0
10, 17280, Note_on_c, 9, 42, 88
10, 17280, Note_on_c, 9, 70, 82
10, 17280, Note_on_c, 9, 38, 116
10, 17304, Note_on_c, 9, 38, 0
10, 17304, Note_on_c, 9, 70, 0
10, 17304, Note_on_c, 9, 42, 0
10, 17472, Note_on_c, 9, 42, 59
10, 17472, Note_on_c, 9, 70, 69
10, 17496, Note_on_c, 9, 70, 0
10, 17496, Note_on_c, 9, 42, 0
10, 17664, Note_on_c, 9, 36, 91
10, 17664, Note_on_c, 9, 42, 66
10, 17664, Note_on_c, 9, 70, 79
10, 17688, Note_on_c, 9, 70, 0
10, 17688, Note_on_c, 9, 42, 0
10, 17688, Note_on_c, 9, 36, 0
10, 17856, Note_on_c, 9, 36, 103
10, 17856, Note_on_c, 9, 42, 81
10, 17856, Note_on_c, 9, 70, 72
10, 17880, Note_on_c, 9, 70, 0
10, 17880, Note_on_c, 9, 42, 0
10, 17880, Note_on_c, 9, 36, 0
10, 18048, Note_on_c, 9, 42, 94
10, 18048, Note_on_c, 9, 70, 82
10, 18048, Note_on_c, 9, 38, 108
10, 18072, Note_on_c, 9, 38, 0
10, 18072, Note_on_c, 9, 70, 0
10, 18072, Note_on_c, 9, 42, 0
10, 18240, Note_on_c, 9, 42, 69
10, 18240, Note_on_c, 9, 70, 69
10, 18264, Note_on_c, 9, 70, 0
10, 18264, Note_on_c, 9, 42, 0
10, 18432, Note_on_c, 9, 36, 109
10, 18432, Note_on_c, 9, 42, 85
10, 18432, Note_on_c, 9, 70, 82
10, 18456, Note_on_c, 9, 70, 0
10, 18456, Note_on_c, 9, 42, 0
10, 18456, Note_on_c, 9, 36, 0
10, 18624, Note_on_c, 9, 42, 62
10, 18624, Note_on_c, 9, 70, 66
10, 18648, Note_on_c, 9, 70, 0
10, 18648, Note_on_c, 9, 42, 0
10, 18816, Note_on_c, 9, 42, 92
10, 18816, Note_on_c, 9, 70, 82
10, 18816, Note_on_c, 9, 38, 108
10, 18840, Note_on_c, 9, 38, 0
10, 18840, Note_on_c, 9, 70, 0
10, 18840, Note_on_c, 9, 42, 0
10, 19008, Note_on_c, 9, 42, 56
10, 19008, Note_on_c, 9, 70, 58
10, 19032, Note_on_c, 9, 70, 0
10, 19032, Note_on_c, 9, 42, 0
10, 19200, Note_on_c, 9, 42, 72
10, 19200, Note_on_c, 9, 70, 85
10, 19224, Note_on_c, 9, 70, 0
10, 19224, Note_on_c, 9, 42, 0
10, 19392, Note_on_c, 9, 36, 114
10, 19392, Note_on_c, 9, 42, 85
10, 19392, Note_on_c, 9, 70, 69
10, 19416, Note_on_c, 9, 70, 0
10, 19416, Note_on_c, 9, 42, 0
10, 19416, Note_on_c, 9, 36, 0
10, 19584, Note_on_c, 9, 42, 92
10, 19584, Note_on_c, 9, 70, 85
10, 19584, Note_on_c, 9, 38, 111
10, 19608, Note_on_c, 9, 38, 0
10, 19608, Note_on_c, 9, 70, 0
10, 19608, Note_on_c, 9, 42, 0
10, 19776, Note_on_c, 9, 42, 69
10, 19776, Note_on_c, 9, 70, 64
10, 19800, Note_on_c, 9, 70, 0
10, 19800, Note_on_c, 9, 42, 0
10, 19968, Note_on_c, 9, 36, 106
10, 19968, Note_on_c, 9, 42, 92
10, 19968, Note_on_c, 9, 70, 82
10, 19992, Note_on_c, 9, 70, 0
10, 19992, Note_on_c, 9, 42, 0
10, 19992, Note_on_c, 9, 36, 0
10, 20160, Note_on_c, 9, 42, 54
10, 20160, Note_on_c, 9, 70, 60
10, 20184, Note_on_c, 9, 70, 0
10, 20184, Note_on_c, 9, 42, 0
10, 20352, Note_on_c, 9, 42, 92
10, 20352, Note_on_c, 9, 70, 82
10, 20352, Note_on_c, 9, 38, 108
10, 20376, Note_on_c, 9, 38, 0
10, 20376, Note_on_c, 9, 70, 0
10, 20376, Note_on_c, 9, 42, 0
10, 20544, Note_on_c, 9, 42, 72
10, 20544, Note_on_c, 9, 70, 69
10, 20568, Note_on_c, 9, 70, 0
10, 20568, Note_on_c, 9, 42, 0
10, 20736, Note_on_c, 9, 36, 98
10, 20736, Note_on_c, 9, 42, 85
10, 20736, Note_on_c, 9, 70, 76
10, 20760, Note_on_c, 9, 70, 0
10, 20760, Note_on_c, 9, 42, 0
10, 20760, Note_on_c, 9, 36, 0
10, 20928, Note_on_c, 9, 36, 106
10, 20928, Note_on_c, 9, 42, 75
10, 20928, Note_on_c, 9, 70, 69
10, 20952, Note_on_c, 9, 70, 0
10, 20952, Note_on_c, 9, 42, 0
10, 20952, Note_on_c, 9, 36, 0
10, 21120, Note_on_c, 9, 42, 88
10, 21120, Note_on_c, 9, 70, 85
10, 21120, Note_on_c, 9, 38, 113
10, 21144, Note_on_c, 9, 38, 0
10, 21144, Note_on_c, 9, 70, 0
10, 21144, Note_on_c, 9, 42, 0
10, 21312, Note_on_c, 9, 42, 72
10, 21312, Note_on_c, 9, 70, 66
10, 21336, Note_on_c, 9, 70, 0
10, 21336, Note_on_c, 9, 42, 0
10, 21504, Note_on_c, 9, 36, 109
10, 21504, Note_on_c, 9, 42, 88
10, 21504, Note_on_c, 9, 70, 82
10, 21528, Note_on_c, 9, 70, 0
10, 21528, Note_on_c, 9, 42, 0
10, 21528, Note_on_c, 9, 36, 0
10, 21696, Note_on_c, 9, 42, 56
10, 21696, Note_on_c, 9, 70, 64
10, 21720, Note_on_c, 9, 70, 0
10, 21720, Note_on_c, 9, 42, 0
10, 21888, Note_on_c, 9, 42, 94
10, 21888, Note_on_c, 9, 70, 82
10, 21888, Note_on_c, 9, 38, 111
10, 21912, Note_on_c, 9, 38, 0
10, 21912, Note_on_c, 9, 70, 0
10, 21912, Note_on_c, 9, 42, 0
10, 22080, Note_on_c, 9, 42, 52
10, 22080, Note_on_c, 9, 70, 60
10, 22104, Note_on_c, 9, 70, 0
10, 22104, Note_on_c, 9, 42, 0
10, 22272, Note_on_c, 9, 42, 77
10, 22272, Note_on_c, 9, 70, 82
10, 22296, Note_on_c, 9, 70, 0
10, 22296, Note_on_c, 9, 42, 0
10, 22464, Note_on_c, 9, 36, 114
10, 22464, Note_on_c, 9, 42, 88
10, 22464, Note_on_c, 9, 70, 66
10, 22488, Note_on_c, 9, 70, 0
10, 22488, Note_on_c, 9, 42, 0
10, 22488, Note_on_c, 9, 36, 0
10, 22656, Note_on_c, 9, 42, 88
10, 22656, Note_on_c, 9, 70, 85
10, 22656, Note_on_c, 9, 38, 108
10, 22680, Note_on_c, 9, 38, 0
10, 22680, Note_on_c, 9, 70, 0
10, 22680, Note_on_c, 9, 42, 0
10, 22848, Note_on_c, 9, 42, 72
10, 22848, Note_on_c, 9, 70, 62
10, 22872, Note_on_c, 9, 70, 0
10, 22872, Note_on_c, 9, 42, 0
10, 23040, Note_on_c, 9, 36, 114
10, 23040, Note_on_c, 9, 42, 88
10, 23040, Note_on_c, 9, 70, 85
10, 23064, Note_on_c, 9, 70, 0
10, 23064, Note_on_c, 9, 42, 0
10, 23064, Note_on_c, 9, 36, 0
10, 23232, Note_on_c, 9, 42, 69
10, 23232, Note_on_c, 9, 70, 51
10, 23256, Note_on_c, 9, 70, 0
10, 23256, Note_on_c, 9, 42, 0
10, 23424, Note_on_c, 9, 42, 92
10, 23424, Note_on_c, 9, 70, 85
10, 23424, Note_on_c, 9, 38, 111
10, 23448, Note_on_c, 9, 38, 0
10, 23448, Note_on_c, 9, 70, 0
10, 23448, Note_on_c, 9, 42, 0
10, 23616, Note_on_c, 9, 42, 64
10, 23616, Note_on_c, 9, 70, 64
10, 23640, Note_on_c, 9, 70, 0
10, 23640, Note_on_c, 9, 42, 0
10, 23808, Note_on_c, 9, 36, 93
10, 23808, Note_on_c, 9, 42, 85
10, 23808, Note_on_c, 9, 70, 79
10, 23832, Note_on_c, 9, 70, 0
10, 23832, Note_on_c, 9, 42, 0
10, 23832, Note_on_c, 9, 36, 0
10, 24000, Note_on_c, 9, 36, 109
10, 24000, Note_on_c, 9, 42, 77
10, 24000, Note_on_c, 9, 70, 69
10, 24024, Note_on_c, 9, 70, 0
10, 24024, Note_on_c, 9, 42, 0
10, 24024, Note_on_c, 9, 36, 0
10, 24192, Note_on_c, 9, 42, 88
10, 24192, Note_on_c, 9, 70, 82
10, 24192, Note_on_c, 9, 38, 111
10, 24216, Note_on_c, 9, 38, 0
10, 24216, Note_on_c, 9, 70, 0
10, 24216, Note_on_c, 9, 42, 0
10, 24384, Note_on_c, 9, 42, 75
10, 24384, Note_on_c, 9, 70, 58
10, 24408, Note_on_c, 9, 70, 0
10, 24408, Note_on_c, 9, 42, 0
10, 24576, Note_on_c, 9, 36, 109
10, 24576, Note_on_c, 9, 42, 88
10, 24576, Note_on_c, 9, 70, 87
10, 24600, Note_on_c, 9, 70, 0
10, 24600, Note_on_c, 9, 42, 0
10, 24600, Note_on_c, 9, 36, 0
10, 24768, Note_on_c, 9, 42, 69
10, 24768, Note_on_c, 9, 70, 64
10, 24792, Note_on_c, 9, 70, 0
10, 24792, Note_on_c, 9, 42, 0
10, 24960, Note_on_c, 9, 42, 92
10, 24960, Note_on_c, 9, 70, 87
10, 24960, Note_on_c, 9, 38, 106
10, 24984, Note_on_c, 9, 38, 0
10, 24984, Note_on_c, 9, 70, 0
10, 24984, Note_on_c, 9, 42, 0
10, 25152, Note_on_c, 9, 42, 77
10, 25152, Note_on_c, 9, 70, 62
10, 25176, Note_on_c, 9, 70, 0
10, 25176, Note_on_c, 9, 42, 0
10, 25344, Note_on_c, 9, 42, 77
10, 25344, Note_on_c, 9, 70, 82
10, 25368, Note_on_c, 9, 70, 0
10, 25368, Note_on_c, 9, 42, 0
10, 25536, Note_on_c, 9, 36, 106
10, 25536, Note_on_c, 9, 42, 92
10, 25536, Note_on_c, 9, 70, 58
10, 25560, Note_on_c, 9, 70, 0
10, 25560, Note_on_c, 9, 42, 0
10, 25560, Note_on_c, 9, 36, 0
10, 25728, Note_on_c, 9, 42, 88
10, 25728, Note_on_c, 9, 70, 82
10, 25728, Note_on_c, 9, 38, 106
10, 25752, Note_on_c, 9, 38, 0
10, 25752, Note_on_c, 9, 70, 0
10, 25752, Note_on_c, 9, 42, 0
10, 25920, Note_on_c, 9, 42, 75
10, 25920, Note_on_c, 9, 70, 58
10, 25944, Note_on_c, 9, 70, 0
10, 25944, Note_on_c, 9, 42, 0
10, 26112, Note_on_c, 9, 36, 103
10, 26112, Note_on_c, 9, 42, 88
10, 26112, Note_on_c, 9, 70, 85
10, 26136, Note_on_c, 9, 70, 0
10, 26136, Note_on_c, 9, 42, 0
10, 26136, Note_on_c, 9, 36, 0
10, 26304, Note_on_c, 9, 42, 69
10, 26304, Note_on_c, 9, 70, 66
10, 26328, Note_on_c, 9, 70, 0
10, 26328, Note_on_c, 9, 42, 0
10, 26496, Note_on_c, 9, 42, 88
10, 26496, Note_on_c, 9, 70, 82
10, 26496, Note_on_c, 9, 38, 106
10, 26520, Note_on_c, 9, 38, 0
10, 26520, Note_on_c, 9, 70, 0
10, 26520, Note_on_c, 9, 42, 0
10, 26688, Note_on_c, 9, 42, 75
10, 26688, Note_on_c, 9, 70, 64
10, 26712, Note_on_c, 9, 70, 0
10, 26712, Note_on_c, 9, 42, 0
10, 26880, Note_on_c, 9, 36, 98
10, 26880, Note_on_c, 9, 42, 88
10, 26880, Note_on_c, 9, 70, 87
10, 26904, Note_on_c, 9, 70, 0
10, 26904, Note_on_c, 9, 42, 0
10, 26904, Note_on_c, 9, 36, 0
10, 27072, Note_on_c, 9, 36, 103
10, 27072, Note_on_c, 9, 42, 81
10, 27072, Note_on_c, 9, 70, 66
10, 27096, Note_on_c, 9, 70, 0
10, 27096, Note_on_c, 9, 42, 0
10, 27096, Note_on_c, 9, 36, 0
10, 27264, Note_on_c, 9, 42, 94
10, 27264, Note_on_c, 9, 70, 87
10, 27264, Note_on_c, 9, 38, 113
10, 27288, Note_on_c, 9, 38, 0
10, 27288, Note_on_c, 9, 70, 0
10, 27288, Note_on_c, 9, 42, 0
10, 27456, Note_on_c, 9, 70, 66
10, 27480, Note_on_c, 9, 70, 0
10, 27648, Note_on_c, 9, 36, 109
10, 27648, Note_on_c, 9, 42, 75
10, 27648, Note_on_c, 9, 70, 85
10, 27672, Note_on_c, 9, 70, 0
10, 27672, Note_on_c, 9, 42, 0
10, 27672, Note_on_c, 9, 36, 0
10, 27840, Note_on_c, 9, 42, 62
10, 27840, Note_on_c, 9, 70, 69
10, 27864, Note_on_c, 9, 70, 0
10, 27864, Note_on_c, 9, 42, 0
10, 28032, Note_on_c, 9, 42, 81
10, 28032, Note_on_c, 9, 70, 91
10, 28032, Note_on_c, 9, 38, 116
10, 28056, Note_on_c, 9, 38, 0
10, 28056, Note_on_c, 9, 70, 0
10, 28056, Note_on_c, 9, 42, 0
10, 28224, Note_on_c, 9, 42, 54
10, 28224, Note_on_c, 9, 70, 64
10, 28248, Note_on_c, 9, 70, 0
10, 28248, Note_on_c, 9, 42, 0
10, 28416, Note_on_c, 9, 42, 77
10, 28416, Note_on_c, 9, 70, 79
10, 28440, Note_on_c, 9, 70, 0
10, 28440, Note_on_c, 9, 42, 0
10, 28608, Note_on_c, 9, 36, 106
10, 28608, Note_on_c, 9, 42, 56
10, 28608, Note_on_c, 9, 70, 69
10, 28632, Note_on_c, 9, 70, 0
10, 28632, Note_on_c, 9, 42, 0
10, 28632, Note_on_c, 9, 36, 0
10, 28800, Note_on_c, 9, 42, 88
10, 28800, Note_on_c, 9, 70, 79
10, 28800, Note_on_c, 9, 38, 111
10, 28824, Note_on_c, 9, 38, 0
10, 28824, Note_on_c, 9, 70, 0
10, 28824, Note_on_c, 9, 42, 0
10, 28992, Note_on_c, 9, 42, 59
10, 28992, Note_on_c, 9, 70, 62
10, 29016, Note_on_c, 9, 70, 0
10, 29016, Note_on_c, 9, 42, 0
10, 29184, Note_on_c, 9, 36, 114
10, 29184, Note_on_c, 9, 42, 85
10, 29184, Note_on_c, 9, 70, 76
10, 29208, Note_on_c, 9, 70, 0
10, 29208, Note_on_c, 9, 42, 0
10, 29208, Note_on_c, 9, 36, 0
10, 29376, Note_on_c, 9, 42, 54
10, 29376, Note_on_c, 9, 70, 62
10, 29400, Note_on_c, 9, 70, 0
10, 29400, Note_on_c, 9, 42, 0
10, 29568, Note_on_c, 9, 42, 88
10, 29568, Note_on_c, 9, 70, 82
10, 29568, Note_on_c, 9, 38, 116
10, 29592, Note_on_c, 9, 38, 0
10, 29592, Note_on_c, 9, 70, 0
10, 29592, Note_on_c, 9, 42, 0
10, 29760, Note_on_c, 9, 42, 59
10, 29760, Note_on_c, 9, 70, 66
10, 29784, Note_on_c, 9, 70, 0
10, 29784, Note_on_c, 9, 42, 0
10, 29952, Note_on_c, 9, 36, 91
10, 29952, Note_on_c, 9, 42, 66
10, 29952, Note_on_c, 9, 70, 85
10, 29976, Note_on_c, 9, 70, 0
10, 29976, Note_on_c, 9, 42, 0
10, 29976, Note_on_c, 9, 36, 0
10, 30144, Note_on_c, 9, 36, 103
10, 30144, Note_on_c, 9, 42, 81
10, 30144, Note_on_c, 9, 70, 64
10, 30168, Note_on_c, 9, 70, 0
10, 30168, Note_on_c, 9, 42, 0
10, 30168, Note_on_c, 9, 36, 0
10, 30336, Note_on_c, 9, 42, 94
10, 30336, Note_on_c, 9, 70, 87
10, 30336, Note_on_c, 9, 38, 108
10, 30360, Note_on_c, 9, 38, 0
10, 30360, Note_on_c, 9, 70, 0
10, 30360, Note_on_c, 9, 42, 0
10, 30528, Note_on_c, 9, 42, 69
10, 30528, Note_on_c, 9, 70, 69
10, 30552, Note_on_c, 9, 70, 0
10, 30552, Note_on_c, 9, 42, 0
10, 30720, Note_on_c, 9, 36, 109
10, 30720, Note_on_c, 9, 42, 85
10, 30720, Note_on_c, 9, 70, 85
10, 30744, Note_on_c, 9, 70, 0
10, 30744, Note_on_c, 9, 42, 0
10, 30744, Note_on_c, 9, 36, 0
10, 30912, Note_on_c, 9, 42, 62
10, 30912, Note_on_c, 9, 70, 69
10, 30936, Note_on_c, 9, 70, 0
10, 30936, Note_on_c, 9, 42, 0
10, 31104, Note_on_c, 9, 42, 92
10, 31104, Note_on_c, 9, 70, 87
10, 31104, Note_on_c, 9, 38, 108
10, 31128, Note_on_c, 9, 38, 0
10, 31128, Note_on_c, 9, 70, 0
10, 31128, Note_on_c, 9, 42, 0
10, 31296, Note_on_c, 9, 42, 56
10, 31296, Note_on_c, 9, 70, 55
10, 31320, Note_on_c, 9, 70, 0
10, 31320, Note_on_c, 9, 42, 0
10, 31488, Note_on_c, 9, 42, 72
10, 31488, Note_on_c, 9, 70, 87
10, 31512, Note_on_c, 9, 70, 0
10, 31512, Note_on_c, 9, 42, 0
10, 31680, Note_on_c, 9, 36, 114
10, 31680, Note_on_c, 9, 42, 85
10, 31680, Note_on_c, 9, 70, 66
10, 31704, Note_on_c, 9, 70, 0
10, 31704, Note_on_c, 9, 42, 0
10, 31704, Note_on_c, 9, 36, 0
10, 31872, Note_on_c, 9, 42, 92
10, 31872, Note_on_c, 9, 70, 91
10, 31872, Note_on_c, 9, 38, 111
10, 31896, Note_on_c, 9, 38, 0
10, 31896, Note_on_c, 9, 70, 0
10, 31896, Note_on_c, 9, 42, 0
10, 32064, Note_on_c, 9, 42, 69
10, 32064, Note_on_c, 9, 70, 57
10, 32088, Note_on_c, 9, 70, 0
10, 32088, Note_on_c, 9, 42, 0
10, 32256, Note_on_c, 9, 36, 106
10, 32256, Note_on_c, 9, 42, 92
10, 32256, Note_on_c, 9, 70, 95
10, 32280, Note_on_c, 9, 70, 0
10, 32280, Note_on_c, 9, 42, 0
10, 32280, Note_on_c, 9, 36, 0
10, 32448, Note_on_c, 9, 42, 54
10, 32448, Note_on_c, 9, 70, 64
10, 32472, Note_on_c, 9, 70, 0
10, 32472, Note_on_c, 9, 42, 0
10, 32640, Note_on_c, 9, 42, 92
10, 32640, Note_on_c, 9, 70, 87
10, 32640, Note_on_c, 9, 38, 108
10, 32664, Note_on_c, 9, 38, 0
10, 32664, Note_on_c, 9, 70, 0
10, 32664, Note_on_c, 9, 42, 0
10, 32832, Note_on_c, 9, 42, 72
10, 32832, Note_on_c, 9, 70, 66
10, 32856, Note_on_c, 9, 70, 0
10, 32856, Note_on_c, 9, 42, 0
10, 33024, Note_on_c, 9, 36, 98
10, 33024, Note_on_c, 9, 42, 85
10, 33024, Note_on_c, 9, 70, 85
10, 33048, Note_on_c, 9, 70, 0
10, 33048, Note_on_c, 9, 42, 0
10, 33048, Note_on_c, 9, 36, 0
10, 33216, Note_on_c, 9, 36, 106
10, 33216, Note_on_c, 9, 42, 75
10, 33216, Note_on_c, 9, 70, 66
10, 33240, Note_on_c, 9, 70, 0
10, 33240, Note_on_c, 9, 42, 0
10, 33240, Note_on_c, 9, 36, 0
10, 33408, Note_on_c, 9, 42, 88
10, 33408, Note_on_c, 9, 70, 95
10, 33408, Note_on_c, 9, 38, 113
10, 33432, Note_on_c, 9, 38, 0
10, 33432, Note_on_c, 9, 70, 0
10, 33432, Note_on_c, 9, 42, 0
10, 33600, Note_on_c, 9, 42, 72
10, 33600, Note_on_c, 9, 70, 66
10, 33624, Note_on_c, 9, 70, 0
10, 33624, Note_on_c, 9, 42, 0
10, 33792, Note_on_c, 9, 36, 109
10, 33792, Note_on_c, 9, 42, 88
10, 33792, Note_on_c, 9, 70, 95
10, 33816, Note_on_c, 9, 70, 0
10, 33816, Note_on_c, 9, 42, 0
10, 33816, Note_on_c, 9, 36, 0
10, 33984, Note_on_c, 9, 42, 56
10, 33984, Note_on_c, 9, 70, 66
10, 34008, Note_on_c, 9, 70, 0
10, 34008, Note_on_c, 9, 42, 0
10, 34176, Note_on_c, 9, 42, 94
10, 34176, Note_on_c, 9, 70, 87
10, 34176, Note_on_c, 9, 38, 111
10, 34200, Note_on_c, 9, 38, 0
10, 34200, Note_on_c, 9, 70, 0
10, 34200, Note_on_c, 9, 42, 0
10, 34368, Note_on_c, 9, 42, 52
10, 34368, Note_on_c, 9, 70, 55
10, 34392, Note_on_c, 9, 70, 0
10, 34392, Note_on_c, 9, 42, 0
10, 34560, Note_on_c, 9, 42, 77
10, 34560, Note_on_c, 9, 70, 91
10, 34584, Note_on_c, 9, 70, 0
10, 34584, Note_on_c, 9, 42, 0
10, 34752, Note_on_c, 9, 36, 114
10, 34752, Note_on_c, 9, 42, 88
10, 34752, Note_on_c, 9, 70, 60
10, 34776, Note_on_c, 9, 70, 0
10, 34776, Note_on_c, 9, 42, 0
10, 34776, Note_on_c, 9, 36, 0
10, 34944, Note_on_c, 9, 42, 88
10, 34944, Note_on_c, 9, 70, 87
10, 34944, Note_on_c, 9, 38, 108
10, 34968, Note_on_c, 9, 38, 0
10, 34968, Note_on_c, 9, 70, 0
10, 34968, Note_on_c, 9, 42, 0
10, 35136, Note_on_c, 9, 42, 72
10, 35136, Note_on_c, 9, 70, 64
10, 35160, Note_on_c, 9, 70, 0
10, 35160, Note_on_c, 9, 42, 0
10, 35328, Note_on_c, 9, 36, 114
10, 35328, Note_on_c, 9, 42, 88
10, 35328, Note_on_c, 9, 70, 87
10, 35352, Note_on_c, 9, 70, 0
10, 35352, Note_on_c, 9, 42, 0
10, 35352, Note_on_c, 9, 36, 0
10, 35520, Note_on_c, 9, 42, 69
10, 35520, Note_on_c, 9, 70, 66
10, 35544, Note_on_c, 9, 70, 0
10, 35544, Note_on_c, 9, 42, 0
10, 35712, Note_on_c, 9, 42, 92
10, 35712, Note_on_c, 9, 70, 82
10, 35712, Note_on_c, 9, 38, 111
10, 35736, Note_on_c, 9, 38, 0
10, 35736, Note_on_c, 9, 70, 0
10, 35736, Note_on_c, 9, 42, 0
10, 35904, Note_on_c, 9, 42, 64
10, 35904, Note_on_c, 9, 70, 64
10, 35928, Note_on_c, 9, 70, 0
10, 35928, Note_on_c, 9, 42, 0
10, 36096, Note_on_c, 9, 36, 93
10, 36096, Note_on_c, 9, 42, 85
10, 36096, Note_on_c, 9, 70, 87
10, 36120, Note_on_c, 9, 70, 0
10, 36120, Note_on_c, 9, 42, 0
10, 36120, Note_on_c, 9, 36, 0
10, 36288, Note_on_c, 9, 36, 109
10, 36288, Note_on_c, 9, 42, 77
10, 36288, Note_on_c, 9, 70, 72
10, 36312, Note_on_c, 9, 70, 0
10, 36312, Note_on_c, 9, 42, 0
10, 36312, Note_on_c, 9, 36, 0
10, 36480, Note_on_c, 9, 42, 88
10, 36480, Note_on_c, 9, 70, 85
10, 36480, Note_on_c, 9, 38, 111
10, 36504, Note_on_c, 9, 38, 0
10, 36504, Note_on_c, 9, 70, 0
10, 36504, Note_on_c, 9, 42, 0
10, 36672, Note_on_c, 9, 42, 75
10, 36672, Note_on_c, 9, 70, 64
10, 36696, Note_on_c, 9, 70, 0
10, 36696, Note_on_c, 9, 42, 0
10, 36864, Note_on_c, 9, 36, 109
10, 36864, Note_on_c, 9, 42, 88
10, 36864, Note_on_c, 9, 70, 87
10, 36888, Note_on_c, 9, 70, 0
10, 36888, Note_on_c, 9, 42, 0
10, 36888, Note_on_c, 9, 36, 0
10, 37056, Note_on_c, 9, 42, 69
10, 37056, Note_on_c, 9, 70, 66
10, 37080, Note_on_c, 9, 70, 0
10, 37080, Note_on_c, 9, 42, 0
10, 37248, Note_on_c, 9, 42, 92
10, 37248, Note_on_c, 9, 70, 91
10, 37248, Note_on_c, 9, 38, 106
10, 37272, Note_on_c, 9, 38, 0
10, 37272, Note_on_c, 9, 70, 0
10, 37272, Note_on_c, 9, 42, 0
10, 37440, Note_on_c, 9, 42, 77
10, 37440, Note_on_c, 9, 70, 64
10, 37464, Note_on_c, 9, 70, 0
10, 37464, Note_on_c, 9, 42, 0
10, 37632, Note_on_c, 9, 42, 77
10, 37632, Note_on_c, 9, 70, 95
10, 37656, Note_on_c, 9, 70, 0
10, 37656, Note_on_c, 9, 42, 0
10, 37824, Note_on_c, 9, 36, 106
10, 37824, Note_on_c, 9, 42, 92
10, 37824, Note_on_c, 9, 70, 66
10, 37848, Note_on_c, 9, 70, 0
10, 37848, Note_on_c, 9, 42, 0
10, 37848, Note_on_c, 9, 36, 0
10, 38016, Note_on_c, 9, 42, 88
10, 38016, Note_on_c, 9, 70, 87
10, 38016, Note_on_c, 9, 38, 106
10, 38040, Note_on_c, 9, 38, 0
10, 38040, Note_on_c, 9, 70, 0
10, 38040, Note_on_c, 9, 42, 0
10, 38208, Note_on_c, 9, 42, 75
10, 38208, Note_on_c, 9, 70, 64
10, 38232, Note_on_c, 9, 70, 0
10, 38232, Note_on_c, 9, 42, 0
10, 38400, Note_on_c, 9, 36, 103
10, 38400, Note_on_c, 9, 42, 88
10, 38400, Note_on_c, 9, 70, 79
10, 38424, Note_on_c, 9, 70, 0
10, 38424, Note_on_c, 9, 42, 0
10, 38424, Note_on_c, 9, 36, 0
10, 38592, Note_on_c, 9, 42, 69
10, 38592, Note_on_c, 9, 70, 64
10, 38616, Note_on_c, 9, 70, 0
10, 38616, Note_on_c, 9, 42, 0
10, 38784, Note_on_c, 9, 42, 88
10, 38784, Note_on_c, 9, 70, 87
10, 38784, Note_on_c, 9, 38, 106
10, 38808, Note_on_c, 9, 38, 0
10, 38808, Note_on_c, 9, 70, 0
10, 38808, Note_on_c, 9, 42, 0
10, 38976, Note_on_c, 9, 42, 75
10, 38976, Note_on_c, 9, 70, 57
10, 39000, Note_on_c, 9, 70, 0
10, 39000, Note_on_c, 9, 42, 0
10, 39168, Note_on_c, 9, 36, 98
10, 39168, Note_on_c, 9, 42, 88
10, 39168, Note_on_c, 9, 70, 72
10, 39192, Note_on_c, 9, 70, 0
10, 39192, Note_on_c, 9, 42, 0
10, 39192, Note_on_c, 9, 36, 0
10, 39360, Note_on_c, 9, 36, 103
10, 39360, Note_on_c, 9, 42, 81
10, 39360, Note_on_c, 9, 70, 72
10, 39384, Note_on_c, 9, 70, 0
10, 39384, Note_on_c, 9, 42, 0
10, 39384, Note_on_c, 9, 36, 0
10, 39552, Note_on_c, 9, 42, 94
10, 39552, Note_on_c, 9, 70, 98
10, 39552, Note_on_c, 9, 38, 113
10, 39576, Note_on_c, 9, 38, 0
10, 39576, Note_on_c, 9, 70, 0
10, 39576, Note_on_c, 9, 42, 0
10, 39744, Note_on_c, 9, 70, 66
10, 39768, Note_on_c, 9, 70, 0
10, 39936, Note_on_c, 9, 36, 109
10, 39936, Note_on_c, 9, 42, 75
10, 39936, Note_on_c, 9, 70, 79
10, 39960, Note_on_c, 9, 70, 0
10, 39960, Note_on_c, 9, 42, 0
10, 39960, Note_on_c, 9, 36, 0
10, 40128, Note_on_c, 9, 42, 62
10, 40128, Note_on_c, 9, 70, 58
10, 40152, Note_on_c, 9, 70, 0
10, 40152, Note_on_c, 9, 42, 0
10, 40320, Note_on_c, 9, 42, 81
10, 40320, Note_on_c, 9, 70, 87
10, 40320, Note_on_c, 9, 38, 116
10, 40344, Note_on_c, 9, 38, 0
10, 40344, Note_on_c, 9, 70, 0
10, 40344, Note_on_c, 9, 42, 0
10, 40512, Note_on_c, 9, 42, 54
10, 40512, Note_on_c, 9, 70, 55
10, 40536, Note_on_c, 9, 70, 0
10, 40536, Note_on_c, 9, 42, 0
10, 40704, Note_on_c, 9, 42, 77
10, 40704, Note_on_c, 9, 70, 82
10, 40728, Note_on_c, 9, 70, 0
10, 40728, Note_on_c, 9, 42, 0
10, 40896, Note_on_c, 9, 36, 106
10, 40896, Note_on_c, 9, 42, 56
10, 40896, Note_on_c, 9, 70, 62
10, 40920, Note_on_c, 9, 70, 0
10, 40920, Note_on_c, 9, 42, 0
10, 40920, Note_on_c, 9, 36, 0
10, 41088, Note_on_c, 9, 42, 88
10, 41088, Note_on_c, 9, 70, 85
10, 41088, Note_on_c, 9, 38, 111
10, 41112, Note_on_c, 9, 38, 0
10, 41112, Note_on_c, 9, 70, 0
10, 41112, Note_on_c, 9, 42, 0
10, 41280, Note_on_c, 9, 42, 59
10, 41280, Note_on_c, 9, 70, 57
10, 41304, Note_on_c, 9, 70, 0
10, 41304, Note_on_c, 9, 42, 0
10, 41472, Note_on_c, 9, 36, 114
10, 41472, Note_on_c, 9, 42, 85
10, 41472, Note_on_c, 9, 70, 82
10, 41496, Note_on_c, 9, 70, 0
10, 41496, Note_on_c, 9, 42, 0
10, 41496, Note_on_c, 9, 36, 0
10, 41664, Note_on_c, 9, 42, 54
10, 41664, Note_on_c, 9, 70, 60
10, 41688, Note_on_c, 9, 70, 0
10, 41688, Note_on_c, 9, 42, 0
10, 41856, Note_on_c, 9, 42, 88
10, 41856, Note_on_c, 9, 70, 85
10, 41856, Note_on_c, 9, 38, 116
10, 41880, Note_on_c, 9, 38, 0
10, 41880, Note_on_c, 9, 70, 0
10, 41880, Note_on_c, 9, 42, 0
10, 42048, Note_on_c, 9, 42, 59
10, 42048, Note_on_c, 9, 70, 66
10, 42072, Note_on_c, 9, 70, 0
10, 42072, Note_on_c, 9, 42, 0
10, 42240, Note_on_c, 9, 36, 91
10, 42240, Note_on_c, 9, 42, 66
10, 42240, Note_on_c, 9, 70, 82
10, 42264, Note_on_c, 9, 70, 0
10, 42264, Note_on_c, 9, 42, 0
10, 42264, Note_on_c, 9, 36, 0
10, 42432, Note_on_c, 9, 36, 103
10, 42432, Note_on_c, 9, 42, 81
10, 42432, Note_on_c, 9, 70, 66
10, 42456, Note_on_c, 9, 70, 0
10, 42456, Note_on_c, 9, 42, 0
10, 42456, Note_on_c, 9, 36, 0
10, 42624, Note_on_c, 9, 42, 94
10, 42624, Note_on_c, 9, 70, 82
10, 42624, Note_on_c, 9, 38, 108
10, 42648, Note_on_c, 9, 38, 0
10, 42648, Note_on_c, 9, 70, 0
10, 42648, Note_on_c, 9, 42, 0
10, 42816, Note_on_c, 9, 42, 69
10, 42816, Note_on_c, 9, 70, 69
10, 42840, Note_on_c, 9, 70, 0
10, 42840, Note_on_c, 9, 42, 0
10, 43008, Note_on_c, 9, 36, 109
10, 43008, Note_on_c, 9, 42, 75
10, 43008, Note_on_c, 9, 70, 82
10, 43032, Note_on_c, 9, 70, 0
10, 43032, Note_on_c, 9, 42, 0
10, 43032, Note_on_c, 9, 36, 0
10, 43200, Note_on_c, 9, 42, 62
10, 43200, Note_on_c, 9, 70, 31
10, 43224, Note_on_c, 9, 70, 0
10, 43224, Note_on_c, 9, 42, 0
10, 43392, Note_on_c, 9, 42, 81
10, 43392, Note_on_c, 9, 70, 76
10, 43392, Note_on_c, 9, 38, 116
10, 43416, Note_on_c, 9, 38, 0
10, 43416, Note_on_c, 9, 70, 0
10, 43416, Note_on_c, 9, 42, 0
10, 43584, Note_on_c, 9, 42, 54
10, 43584, Note_on_c, 9, 70, 55
10, 43608, Note_on_c, 9, 70, 0
10, 43608, Note_on_c, 9, 42, 0
10, 43776, Note_on_c, 9, 42, 77
10, 43776, Note_on_c, 9, 70, 66
10, 43800, Note_on_c, 9, 70, 0
10, 43800, Note_on_c, 9, 42, 0
10, 43968, Note_on_c, 9, 36, 106
10, 43968, Note_on_c, 9, 42, 56
10, 43968, Note_on_c, 9, 70, 51
10, 43992, Note_on_c, 9, 70, 0
10, 43992, Note_on_c, 9, 42, 0
10, 43992, Note_on_c, 9, 36, 0
10, 44160, Note_on_c, 9, 42, 88
10, 44160, Note_on_c, 9, 70, 72
10, 44160, Note_on_c, 9, 38, 111
10, 44184, Note_on_c, 9, 38, 0
10, 44184, Note_on_c, 9, 70, 0
10, 44184, Note_on_c, 9, 42, 0
10, 44352, Note_on_c, 9, 42, 59
10, 44352, Note_on_c, 9, 70, 51
10, 44376, Note_on_c, 9, 70, 0
10, 44376, Note_on_c, 9, 42, 0
10, 44544, Note_on_c, 9, 36, 114
10, 44544, Note_on_c, 9, 42, 85
10, 44544, Note_on_c, 9, 70, 69
10, 44568, Note_on_c, 9, 70, 0
10, 44568, Note_on_c, 9, 42, 0
10, 44568, Note_on_c, 9, 36, 0
10, 44736, Note_on_c, 9, 42, 54
10, 44736, Note_on_c, 9, 70, 46
10, 44760, Note_on_c, 9, 70, 0
10, 44760, Note_on_c, 9, 42, 0
10, 44928, Note_on_c, 9, 42, 88
10, 44928, Note_on_c, 9, 70, 82
10, 44928, Note_on_c, 9, 38, 116
10, 44952, Note_on_c, 9, 38, 0
10, 44952, Note_on_c, 9, 70, 0
10, 44952, Note_on_c, 9, 42, 0
10, 45120, Note_on_c, 9, 42, 59
10, 45120, Note_on_c, 9, 70, 55
10, 45144, Note_on_c, 9, 70, 0
10, 45144, Note_on_c, 9, 42, 0
10, 45312, Note_on_c, 9, 36, 91
10, 45312, Note_on_c, 9, 42, 66
10, 45312, Note_on_c, 9, 70, 64
10, 45336, Note_on_c, 9, 70, 0
10, 45336, Note_on_c, 9, 42, 0
10, 45336, Note_on_c, 9, 36, 0
10, 45504, Note_on_c, 9, 36, 103
10, 45504, Note_on_c, 9, 42, 81
10, 45504, Note_on_c, 9, 70, 66
10, 45528, Note_on_c, 9, 70, 0
10, 45528, Note_on_c, 9, 42, 0
10, 45528, Note_on_c, 9, 36, 0
10, 45696, Note_on_c, 9, 42, 94
10, 45696, Note_on_c, 9, 70, 69
10, 45696, Note_on_c, 9, 38, 108
10, 45720, Note_on_c, 9, 38, 0
10, 45720, Note_on_c, 9, 70, 0
10, 45720, Note_on_c, 9, 42, 0
10, 45888, Note_on_c, 9, 42, 69
10, 45888, Note_on_c, 9, 70, 57
10, 45912, Note_on_c, 9, 70, 0
10, 45912, Note_on_c, 9, 42, 0
10, 46080, Note_on_c, 9, 36, 109
10, 46080, Note_on_c, 9, 42, 85
10, 46080, Note_on_c, 9, 70, 72
10, 46104, Note_on_c, 9, 70, 0
10, 46104, Note_on_c, 9, 42, 0
10, 46104, Note_on_c, 9, 36, 0
10, 46272, Note_on_c, 9, 42, 62
10, 46272, Note_on_c, 9, 70, 55
10, 46296, Note_on_c, 9, 70, 0
10, 46296, Note_on_c, 9, 42, 0
10, 46464, Note_on_c, 9, 42, 92
10, 46464, Note_on_c, 9, 70, 74
10, 46464, Note_on_c, 9, 38, 108
10, 46488, Note_on_c, 9, 38, 0
10, 46488, Note_on_c, 9, 70, 0
10, 46488, Note_on_c, 9, 42, 0
10, 46656, Note_on_c, 9, 42, 56
10, 46656, Note_on_c, 9, 70, 57
10, 46680, Note_on_c, 9, 70, 0
10, 46680, Note_on_c, 9, 42, 0
10, 46848, Note_on_c, 9, 42, 72
10, 46848, Note_on_c, 9, 70, 69
10, 46872, Note_on_c, 9, 70, 0
10, 46872, Note_on_c, 9, 42, 0
10, 47040, Note_on_c, 9, 36, 114
10, 47040, Note_on_c, 9, 42, 85
10, 47040, Note_on_c, 9, 70, 58
10, 47064, Note_on_c, 9, 70, 0
10, 47064, Note_on_c, 9, 42, 0
10, 47064, Note_on_c, 9, 36, 0
10, 47232, Note_on_c, 9, 42, 92
10, 47232, Note_on_c, 9, 70, 82
10, 47232, Note_on_c, 9, 38, 111
10, 47256, Note_on_c, 9, 38, 0
10, 47256, Note_on_c, 9, 70, 0
10, 47256, Note_on_c, 9, 42, 0
10, 47424, Note_on_c, 9, 42, 69
10, 47424, Note_on_c, 9, 70, 69
10, 47448, Note_on_c, 9, 70, 0
10, 47448, Note_on_c, 9, 42, 0
10, 47616, Note_on_c, 9, 36, 106
10, 47616, Note_on_c, 9, 42, 92
10, 47616, Note_on_c, 9, 70, 72
10, 47640, Note_on_c, 9, 70, 0
10, 47640, Note_on_c, 9, 42, 0
10, 47640, Note_on_c, 9, 36, 0
10, 47808, Note_on_c, 9, 42, 54
10, 47808, Note_on_c, 9, 70, 66
10, 47832, Note_on_c, 9, 70, 0
10, 47832, Note_on_c, 9, 42, 0
10, 48000, Note_on_c, 9, 42, 92
10, 48000, Note_on_c, 9, 70, 74
10, 48000, Note_on_c, 9, 38, 108
10, 48024, Note_on_c, 9, 38, 0
10, 48024, Note_on_c, 9, 70, 0
10, 48024, Note_on_c, 9, 42, 0
10, 48192, Note_on_c, 9, 42, 72
10, 48192, Note_on_c, 9, 70, 64
10, 48216, Note_on_c, 9, 70, 0
10, 48216, Note_on_c, 9, 42, 0
10, 48384, Note_on_c, 9, 36, 98
10, 48384, Note_on_c, 9, 42, 85
10, 48384, Note_on_c, 9, 70, 66
10, 48408, Note_on_c, 9, 70, 0
10, 48408, Note_on_c, 9, 42, 0
10, 48408, Note_on_c, 9, 36, 0
10, 48576, Note_on_c, 9, 36, 106
10, 48576, Note_on_c, 9, 42, 75
10, 48576, Note_on_c, 9, 70, 66
10, 48600, Note_on_c, 9, 70, 0
10, 48600, Note_on_c, 9, 42, 0
10, 48600, Note_on_c, 9, 36, 0
10, 48768, Note_on_c, 9, 42, 88
10, 48768, Note_on_c, 9, 70, 82
10, 48768, Note_on_c, 9, 38, 113
10, 48792, Note_on_c, 9, 38, 0
10, 48792, Note_on_c, 9, 70, 0
10, 48792, Note_on_c, 9, 42, 0
10, 48960, Note_on_c, 9, 42, 72
10, 48960, Note_on_c, 9, 70, 69
10, 48984, Note_on_c, 9, 70, 0
10, 48984, Note_on_c, 9, 42, 0
10, 49152, Note_on_c, 9, 36, 109
10, 49152, Note_on_c, 9, 42, 88
10, 49152, Note_on_c, 9, 70, 64
10, 49176, Note_on_c, 9, 70, 0
10, 49176, Note_on_c, 9, 42, 0
10, 49176, Note_on_c, 9, 36, 0
10, 49344, Note_on_c, 9, 42, 56
10, 49344, Note_on_c, 9, 70, 62
10, 49368, Note_on_c, 9, 70, 0
10, 49368, Note_on_c, 9, 42, 0
10, 49536, Note_on_c, 9, 42, 94
10, 49536, Note_on_c, 9, 70, 72
10, 49536, Note_on_c, 9, 38, 111
10, 49560, Note_on_c, 9, 38, 0
10, 49560, Note_on_c, 9, 70, 0
10, 49560, Note_on_c, 9, 42, 0
10, 49728, Note_on_c, 9, 42, 52
10, 49728, Note_on_c, 9, 70, 60
10, 49752, Note_on_c, 9, 70, 0
10, 49752, Note_on_c, 9, 42, 0
10, 49920, Note_on_c, 9, 42, 77
10, 49920, Note_on_c, 9, 70, 82
10, 49944, Note_on_c, 9, 70, 0
10, 49944, Note_on_c, 9, 42, 0
10, 50112, Note_on_c, 9, 36, 114
10, 50112, Note_on_c, 9, 42, 88
10, 50112, Note_on_c, 9, 70, 55
10, 50136, Note_on_c, 9, 70, 0
10, 50136, Note_on_c, 9, 42, 0
10, 50136, Note_on_c, 9, 36, 0
10, 50304, Note_on_c, 9, 42, 88
10, 50304, Note_on_c, 9, 70, 79
10, 50304, Note_on_c, 9, 38, 108
10, 50328, Note_on_c, 9, 38, 0
10, 50328, Note_on_c, 9, 70, 0
10, 50328, Note_on_c, 9, 42, 0
10, 50496, Note_on_c, 9, 42, 72
10, 50496, Note_on_c, 9, 70, 66
10, 50520, Note_on_c, 9, 70, 0
10, 50520, Note_on_c, 9, 42, 0
10, 50688, Note_on_c, 9, 36, 114
10, 50688, Note_on_c, 9, 42, 88
10, 50688, Note_on_c, 9, 70, 87
10, 50712, Note_on_c, 9, 70, 0
10, 50712, Note_on_c, 9, 42, 0
10, 50712, Note_on_c, 9, 36, 0
10, 50880, Note_on_c, 9, 42, 69
10, 50880, Note_on_c, 9, 70, 69
10, 50904, Note_on_c, 9, 70, 0
10, 50904, Note_on_c, 9, 42, 0
10, 51072, Note_on_c, 9, 42, 92
10, 51072, Note_on_c, 9, 70, 76
10, 51072, Note_on_c, 9, 38, 111
10, 51096, Note_on_c, 9, 38, 0
10, 51096, Note_on_c, 9, 70, 0
10, 51096, Note_on_c, 9, 42, 0
10, 51264, Note_on_c, 9, 42, 64
10, 51264, Note_on_c, 9, 70, 58
10, 51288, Note_on_c, 9, 70, 0
10, 51288, Note_on_c, 9, 42, 0
10, 51456, Note_on_c, 9, 36, 93
10, 51456, Note_on_c, 9, 42, 85
10, 51456, Note_on_c, 9, 70, 85
10, 51480, Note_on_c, 9, 70, 0
10, 51480, Note_on_c, 9, 42, 0
10, 51480, Note_on_c, 9, 36, 0
10, 51648, Note_on_c, 9, 36, 109
10, 51648, Note_on_c, 9, 42, 77
10, 51648, Note_on_c, 9, 70, 69
10, 51672, Note_on_c, 9, 70, 0
10, 51672, Note_on_c, 9, 42, 0
10, 51672, Note_on_c, 9, 36, 0
10, 51840, Note_on_c, 9, 42, 88
10, 51840, Note_on_c, 9, 70, 85
10, 51840, Note_on_c, 9, 38, 111
10, 51864, Note_on_c, 9, 38, 0
10, 51864, Note_on_c, 9, 70, 0
10, 51864, Note_on_c, 9, 42, 0
10, 52032, Note_on_c, 9, 42, 75
10, 52032, Note_on_c, 9, 70, 72
10, 52056, Note_on_c, 9, 70, 0
10, 52056, Note_on_c, 9, 42, 0
10, 52224, Note_on_c, 9, 36, 109
10, 52224, Note_on_c, 9, 42, 88
10, 52224, Note_on_c, 9, 70, 79
10, 52248, Note_on_c, 9, 70, 0
10, 52248, Note_on_c, 9, 42, 0
10, 52248, Note_on_c, 9, 36, 0
10, 52416, Note_on_c, 9, 42, 69
10, 52416, Note_on_c, 9, 70, 66
10, 52440, Note_on_c, 9, 70, 0
10, 52440, Note_on_c, 9, 42, 0
10, 52608, Note_on_c, 9, 42, 92
10, 52608, Note_on_c, 9, 70, 72
10, 52608, Note_on_c, 9, 38, 106
10, 52632, Note_on_c, 9, 38, 0
10, 52632, Note_on_c, 9, 70, 0
10, 52632, Note_on_c, 9, 42, 0
10, 52800, Note_on_c, 9, 42, 77
10, 52800, Note_on_c, 9, 70, 66
10, 52824, Note_on_c, 9, 70, 0
10, 52824, Note_on_c, 9, 42, 0
10, 52992, Note_on_c, 9, 42, 77
10, 52992, Note_on_c, 9, 70, 74
10, 53016, Note_on_c, 9, 70, 0
10, 53016, Note_on_c, 9, 42, 0
10, 53184, Note_on_c, 9, 36, 106
10, 53184, Note_on_c, 9, 42, 92
10, 53184, Note_on_c, 9, 70, 66
10, 53208, Note_on_c, 9, 70, 0
10, 53208, Note_on_c, 9, 42, 0
10, 53208, Note_on_c, 9, 36, 0
10, 53376, Note_on_c, 9, 42, 88
10, 53376, Note_on_c, 9, 70, 91
10, 53376, Note_on_c, 9, 38, 106
10, 53400, Note_on_c, 9, 38, 0
10, 53400, Note_on_c, 9, 70, 0
10, 53400, Note_on_c, 9, 42, 0
10, 53568, Note_on_c, 9, 42, 75
10, 53568, Note_on_c, 9, 70, 64
10, 53592, Note_on_c, 9, 70, 0
10, 53592, Note_on_c, 9, 42, 0
10, 53760, Note_on_c, 9, 36, 103
10, 53760, Note_on_c, 9, 42, 88
10, 53760, Note_on_c, 9, 70, 79
10, 53784, Note_on_c, 9, 70, 0
10, 53784, Note_on_c, 9, 42, 0
10, 53784, Note_on_c, 9, 36, 0
10, 53952, Note_on_c, 9, 42, 69
10, 53952, Note_on_c, 9, 70, 66
10, 53976, Note_on_c, 9, 70, 0
10, 53976, Note_on_c, 9, 42, 0
10, 54144, Note_on_c, 9, 42, 88
10, 54144, Note_on_c, 9, 70, 87
10, 54144, Note_on_c, 9, 38, 106
10, 54168, Note_on_c, 9, 38, 0
10, 54168, Note_on_c, 9, 70, 0
10, 54168, Note_on_c, 9, 42, 0
10, 54336, Note_on_c, 9, 42, 75
10, 54336, Note_on_c, 9, 70, 69
10, 54360, Note_on_c, 9, 70, 0
10, 54360, Note_on_c, 9, 42, 0
10, 54528, Note_on_c, 9, 36, 98
10, 54528, Note_on_c, 9, 42, 88
10, 54528, Note_on_c, 9, 70, 85
10, 54552, Note_on_c, 9, 70, 0
10, 54552, Note_on_c, 9, 42, 0
10, 54552, Note_on_c, 9, 36, 0
10, 54720, Note_on_c, 9, 36, 103
10, 54720, Note_on_c, 9, 42, 81
10, 54720, Note_on_c, 9, 70, 60
10, 54744, Note_on_c, 9, 70, 0
10, 54744, Note_on_c, 9, 42, 0
10, 54744, Note_on_c, 9, 36, 0
10, 54912, Note_on_c, 9, 42, 94
10, 54912, Note_on_c, 9, 70, 85
10, 54912, Note_on_c, 9, 38, 113
10, 54936, Note_on_c, 9, 38, 0
10, 54936, Note_on_c, 9, 70, 0
10, 54936, Note_on_c, 9, 42, 0
10, 55104, Note_on_c, 9, 70, 66
10, 55128, Note_on_c, 9, 70, 0
10, 55296, Note_on_c, 9, 36, 109
10, 55296, Note_on_c, 9, 42, 75
10, 55296, Note_on_c, 9, 70, 85
10, 55320, Note_on_c, 9, 70, 0
10, 55320, Note_on_c, 9, 42, 0
10, 55320, Note_on_c, 9, 36, 0
10, 55488, Note_on_c, 9, 42, 62
10, 55488, Note_on_c, 9, 70, 64
10, 55512, Note_on_c, 9, 70, 0
10, 55512, Note_on_c, 9, 42, 0
10, 55680, Note_on_c, 9, 42, 81
10, 55680, Note_on_c, 9, 70, 82
10, 55680, Note_on_c, 9, 38, 116
10, 55704, Note_on_c, 9, 38, 0
10, 55704, Note_on_c, 9, 70, 0
10, 55704, Note_on_c, 9, 42, 0
10, 55872, Note_on_c, 9, 42, 54
10, 55872, Note_on_c, 9, 70, 60
10, 55896, Note_on_c, 9, 70, 0
10, 55896, Note_on_c, 9, 42, 0
10, 56064, Note_on_c, 9, 42, 77
10, 56064, Note_on_c, 9, 70, 79
10, 56088, Note_on_c, 9, 70, 0
10, 56088, Note_on_c, 9, 42, 0
10, 56256, Note_on_c, 9, 36, 106
10, 56256, Note_on_c, 9, 42, 56
10, 56256, Note_on_c, 9, 70, 60
10, 56280, Note_on_c, 9, 70, 0
10, 56280, Note_on_c, 9, 42, 0
10, 56280, Note_on_c, 9, 36, 0
10, 56448, Note_on_c, 9, 42, 88
10, 56448, Note_on_c, 9, 70, 79
10, 56448, Note_on_c, 9, 38, 111
10, 56472, Note_on_c, 9, 38, 0
10, 56472, Note_on_c, 9, 70, 0
10, 56472, Note_on_c, 9, 42, 0
10, 56640, Note_on_c, 9, 42, 59
10, 56640, Note_on_c, 9, 70, 64
10, 56664, Note_on_c, 9, 70, 0
10, 56664, Note_on_c, 9, 42, 0
10, 56832, Note_on_c, 9, 36, 114
10, 56832, Note_on_c, 9, 42, 85
10, 56832, Note_on_c, 9, 70, 82
10, 56856, Note_on_c, 9, 70, 0
10, 56856, Note_on_c, 9, 42, 0
10, 56856, Note_on_c, 9, 36, 0
10, 57024, Note_on_c, 9, 42, 54
10, 57024, Note_on_c, 9, 70, 57
10, 57048, Note_on_c, 9, 70, 0
10, 57048, Note_on_c, 9, 42, 0
10, 57216, Note_on_c, 9, 42, 88
10, 57216, Note_on_c, 9, 70, 82
10, 57216, Note_on_c, 9, 38, 116
10, 57240, Note_on_c, 9, 38, 0
10, 57240, Note_on_c, 9, 70, 0
10, 57240, Note_on_c, 9, 42, 0
10, 57408, Note_on_c, 9, 42, 59
10, 57408, Note_on_c, 9, 70, 69
10, 57432, Note_on_c, 9, 70, 0
10, 57432, Note_on_c, 9, 42, 0
10, 57600, Note_on_c, 9, 36, 91
10, 57600, Note_on_c, 9, 42, 66
10, 57600, Note_on_c, 9, 70, 79
10, 57624, Note_on_c, 9, 70, 0
10, 57624, Note_on_c, 9, 42, 0
10, 57624, Note_on_c, 9, 36, 0
10, 57792, Note_on_c, 9, 36, 103
10, 57792, Note_on_c, 9, 42, 81
10, 57792, Note_on_c, 9, 70, 72
10, 57816, Note_on_c, 9, 70, 0
10, 57816, Note_on_c, 9, 42, 0
10, 57816, Note_on_c, 9, 36, 0
10, 57984, Note_on_c, 9, 42, 94
10, 57984, Note_on_c, 9, 70, 82
10, 57984, Note_on_c, 9, 38, 108
10, 58008, Note_on_c, 9, 38, 0
10, 58008, Note_on_c, 9, 70, 0
10, 58008, Note_on_c, 9, 42, 0
10, 58176, Note_on_c, 9, 42, 69
10, 58176, Note_on_c, 9, 70, 69
10, 58200, Note_on_c, 9, 70, 0
10, 58200, Note_on_c, 9, 42, 0
10, 58368, Note_on_c, 9, 36, 109
10, 58368, Note_on_c, 9, 42, 85
10, 58368, Note_on_c, 9, 70, 82
10, 58392, Note_on_c, 9, 70, 0
10, 58392, Note_on_c, 9, 42, 0
10, 58392, Note_on_c, 9, 36, 0
10, 58560, Note_on_c, 9, 42, 62
10, 58560, Note_on_c, 9, 70, 66
10, 58584, Note_on_c, 9, 70, 0
10, 58584, Note_on_c, 9, 42, 0
10, 58752, Note_on_c, 9, 42, 92
10, 58752, Note_on_c, 9, 70, 82
10, 58752, Note_on_c, 9, 38, 108
10, 58776, Note_on_c, 9, 38, 0
10, 58776, Note_on_c, 9, 70, 0
10, 58776, Note_on_c, 9, 42, 0
10, 58944, Note_on_c, 9, 42, 56
10, 58944, Note_on_c, 9, 70, 58
10, 58968, Note_on_c, 9, 70, 0
10, 58968, Note_on_c, 9, 42, 0
10, 59136, Note_on_c, 9, 42, 72
10, 59136, Note_on_c, 9, 70, 85
10, 59160, Note_on_c, 9, 70, 0
10, 59160, Note_on_c, 9, 42, 0
10, 59328, Note_on_c, 9, 36, 114
10, 59328, Note_on_c, 9, 42, 85
10, 59328, Note_on_c, 9, 70, 69
10, 59352, Note_on_c, 9, 70, 0
10, 59352, Note_on_c, 9, 42, 0
10, 59352, Note_on_c, 9, 36, 0
10, 59520, Note_on_c, 9, 42, 92
10, 59520, Note_on_c, 9, 70, 85
10, 59520, Note_on_c, 9, 38, 111
10, 59544, Note_on_c, 9, 38, 0
10, 59544, Note_on_c, 9, 70, 0
10, 59544, Note_on_c, 9, 42, 0
10, 59712, Note_on_c, 9, 42, 69
10, 59712, Note_on_c, 9, 70, 64
10, 59736, Note_on_c, 9, 70, 0
10, 59736, Note_on_c, 9, 42, 0
10, 59904, Note_on_c, 9, 36, 106
10, 59904, Note_on_c, 9, 42, 92
10, 59904, Note_on_c, 9, 70, 82
10, 59928, Note_on_c, 9, 70, 0
10, 59928, Note_on_c, 9, 42, 0
10, 59928, Note_on_c, 9, 36, 0
10, 60096, Note_on_c, 9, 42, 54
10, 60096, Note_on_c, 9, 70, 60
10, 60120, Note_on_c, 9, 70, 0
10, 60120, Note_on_c, 9, 42, 0
10, 60288, Note_on_c, 9, 42, 92
10, 60288, Note_on_c, 9, 70, 82
10, 60288, Note_on_c, 9, 38, 108
10, 60312, Note_on_c, 9, 38, 0
10, 60312, Note_on_c, 9, 70, 0
10, 60312, Note_on_c, 9, 42, 0
10, 60480, Note_on_c, 9, 42, 72
10, 60480, Note_on_c, 9, 70, 69
10, 60504, Note_on_c, 9, 70, 0
10, 60504, Note_on_c, 9, 42, 0
10, 60672, Note_on_c, 9, 36, 98
10, 60672, Note_on_c, 9, 42, 85
10, 60672, Note_on_c, 9, 70, 76
10, 60696, Note_on_c, 9, 70, 0
10, 60696, Note_on_c, 9, 42, 0
10, 60696, Note_on_c, 9, 36, 0
10, 60864, Note_on_c, 9, 36, 106
10, 60864, Note_on_c, 9, 42, 75
10, 60864, Note_on_c, 9, 70, 69
10, 60888, Note_on_c, 9, 70, 0
10, 60888, Note_on_c, 9, 42, 0
10, 60888, Note_on_c, 9, 36, 0
10, 61056, Note_on_c, 9, 42, 88
10, 61056, Note_on_c, 9, 70, 85
10, 61056, Note_on_c, 9, 38, 113
10, 61080, Note_on_c, 9, 38, 0
10, 61080, Note_on_c, 9, 70, 0
10, 61080, Note_on_c, 9, 42, 0
10, 61248, Note_on_c, 9, 42, 72
10, 61248, Note_on_c, 9, 70, 66
10, 61272, Note_on_c, 9, 70, 0
10, 61272, Note_on_c, 9, 42, 0
10, 61440, Note_on_c, 9, 36, 109
10, 61440, Note_on_c, 9, 42, 88
10, 61440, Note_on_c, 9, 70, 82
10, 61464, Note_on_c, 9, 70, 0
10, 61464, Note_on_c, 9, 42, 0
10, 61464, Note_on_c, 9, 36, 0
10, 61632, Note_on_c, 9, 42, 56
10, 61632, Note_on_c, 9, 70, 64
10, 61656, Note_on_c, 9, 70, 0
10, 61656, Note_on_c, 9, 42, 0
10, 61824, Note_on_c, 9, 42, 94
10, 61824, Note_on_c, 9, 70, 82
10, 61824, Note_on_c, 9, 38, 111
10, 61848, Note_on_c, 9, 38, 0
10, 61848, Note_on_c, 9, 70, 0
10, 61848, Note_on_c, 9, 42, 0
10, 62016, Note_on_c, 9, 42, 52
10, 62016, Note_on_c, 9, 70, 60
10, 62040, Note_on_c, 9, 70, 0
10, 62040, Note_on_c, 9, 42, 0
10, 62208, Note_on_c, 9, 42, 77
10, 62208, Note_on_c, 9, 70, 82
10, 62232, Note_on_c, 9, 70, 0
10, 62232, Note_on_c, 9, 42, 0
10, 62400, Note_on_c, 9, 36, 114
10, 62400, Note_on_c, 9, 42, 88
10, 62400, Note_on_c, 9, 70, 66
10, 62424, Note_on_c, 9, 70, 0
10, 62424, Note_on_c, 9, 42, 0
10, 62424, Note_on_c, 9, 36, 0
10, 62592, Note_on_c, 9, 42, 88
10, 62592, Note_on_c, 9, 70, 85
10, 62592, Note_on_c, 9, 38, 108
10, 62616, Note_on_c, 9, 38, 0
10, 62616, Note_on_c, 9, 70, 0
10, 62616, Note_on_c, 9, 42, 0
10, 62784, Note_on_c, 9, 42, 72
10, 62784, Note_on_c, 9, 70, 62
10, 62808, Note_on_c, 9, 70, 0
10, 62808, Note_on_c, 9, 42, 0
10, 62976, Note_on_c, 9, 36, 114
10, 62976, Note_on_c, 9, 42, 88
10, 62976, Note_on_c, 9, 70, 85
10, 63000, Note_on_c, 9, 70, 0
10, 63000, Note_on_c, 9, 42, 0
10, 63000, Note_on_c, 9, 36, 0
10, 63168, Note_on_c, 9, 42, 69
10, 63168, Note_on_c, 9, 70, 51
10, 63192, Note_on_c, 9, 70, 0
10, 63192, Note_on_c, 9, 42, 0
10, 63360, Note_on_c, 9, 42, 92
10, 63360, Note_on_c, 9, 70, 85
10, 63360, Note_on_c, 9, 38, 111
10, 63384, Note_on_c, 9, 38, 0
10, 63384, Note_on_c, 9, 70, 0
10, 63384, Note_on_c, 9, 42, 0
10, 63552, Note_on_c, 9, 42, 64
10, 63552, Note_on_c, 9, 70, 64
10, 63576, Note_on_c, 9, 70, 0
10, 63576, Note_on_c, 9, 42, 0
10, 63744, Note_on_c, 9, 36, 93
10, 63744, Note_on_c, 9, 42, 85
10, 63744, Note_on_c, 9, 70, 79
10, 63768, Note_on_c, 9, 70, 0
10, 63768, Note_on_c, 9, 42, 0
10, 63768, Note_on_c, 9, 36, 0
10, 63936, Note_on_c, 9, 36, 109
10, 63936, Note_on_c, 9, 42, 77
10, 63936, Note_on_c, 9, 70, 69
10, 63960, Note_on_c, 9, 70, 0
10, 63960, Note_on_c, 9, 42, 0
10, 63960, Note_on_c, 9, 36, 0
10, 64128, Note_on_c, 9, 42, 88
10, 64128, Note_on_c, 9, 70, 82
10, 64128, Note_on_c, 9, 38, 111
10, 64152, Note_on_c, 9, 38, 0
10, 64152, Note_on_c, 9, 70, 0
10, 64152, Note_on_c, 9, 42, 0
10, 64320, Note_on_c, 9, 42, 75
10, 64320, Note_on_c, 9, 70, 58
10, 64344, Note_on_c, 9, 70, 0
10, 64344, Note_on_c, 9, 42, 0
10, 64512, Note_on_c, 9, 36, 109
10, 64512, Note_on_c, 9, 42, 88
10, 64512, Note_on_c, 9, 70, 87
10, 64536, Note_on_c, 9, 70, 0
10, 64536, Note_on_c, 9, 42, 0
10, 64536, Note_on_c, 9, 36, 0
10, 64704, Note_on_c, 9, 42, 69
10, 64704, Note_on_c, 9, 70, 64
10, 64728, Note_on_c, 9, 70, 0
10, 64728, Note_on_c, 9, 42, 0
10, 64896, Note_on_c, 9, 42, 92
10, 64896, Note_on_c, 9, 70, 87
10, 64896, Note_on_c, 9, 38, 106
10, 64920, Note_on_c, 9, 38, 0
10, 64920, Note_on_c, 9, 70, 0
10, 64920, Note_on_c, 9, 42, 0
10, 65088, Note_on_c, 9, 42, 77
10, 65088, Note_on_c, 9, 70, 62
10, 65112, Note_on_c, 9, 70, 0
10, 65112, Note_on_c, 9, 42, 0
10, 65280, Note_on_c, 9, 42, 77
10, 65280, Note_on_c, 9, 70, 82
10, 65304, Note_on_c, 9, 70, 0
10, 65304, Note_on_c, 9, 42, 0
10, 65472, Note_on_c, 9, 36, 106
10, 65472, Note_on_c, 9, 42, 92
10, 65472, Note_on_c, 9, 70, 58
10, 65496, Note_on_c, 9, 70, 0
10, 65496, Note_on_c, 9, 42, 0
10, 65496, Note_on_c, 9, 36, 0
10, 65664, Note_on_c, 9, 42, 88
10, 65664, Note_on_c, 9, 70, 82
10, 65664, Note_on_c, 9, 38, 106
10, 65688, Note_on_c, 9, 38, 0
10, 65688, Note_on_c, 9, 70, 0
10, 65688, Note_on_c, 9, 42, 0
10, 65856, Note_on_c, 9, 42, 75
10, 65856, Note_on_c, 9, 70, 58
10, 65880, Note_on_c, 9, 70, 0
10, 65880, Note_on_c, 9, 42, 0
10, 66048, Note_on_c, 9, 36, 103
10, 66048, Note_on_c, 9, 42, 88
10, 66048, Note_on_c, 9, 70, 85
10, 66072, Note_on_c, 9, 70, 0
10, 66072, Note_on_c, 9, 42, 0
10, 66072, Note_on_c, 9, 36, 0
10, 66240, Note_on_c, 9, 42, 69
10, 66240, Note_on_c, 9, 70, 66
10, 66264, Note_on_c, 9, 70, 0
10, 66264, Note_on_c, 9, 42, 0
10, 66432, Note_on_c, 9, 42, 88
10, 66432, Note_on_c, 9, 70, 82
10, 66432, Note_on_c, 9, 38, 106
10, 66456, Note_on_c, 9, 38, 0
10, 66456, Note_on_c, 9, 70, 0
10, 66456, Note_on_c, 9, 42, 0
10, 66624, Note_on_c, 9, 42, 75
10, 66624, Note_on_c, 9, 70, 64
10, 66648, Note_on_c, 9, 70, 0
10, 66648, Note_on_c, 9, 42, 0
10, 66816, Note_on_c, 9, 36, 98
10, 66816, Note_on_c, 9, 42, 88
10, 66816, Note_on_c, 9, 70, 87
10, 66840, Note_on_c, 9, 70, 0
10, 66840, Note_on_c, 9, 42, 0
10, 66840, Note_on_c, 9, 36, 0
10, 67008, Note_on_c, 9, 36, 103
10, 67008, Note_on_c, 9, 42, 81
10, 67008, Note_on_c, 9, 70, 66
10, 67032, Note_on_c, 9, 70, 0
10, 67032, Note_on_c, 9, 42, 0
10, 67032, Note_on_c, 9, 36, 0
10, 67200, Note_on_c, 9, 42, 94
10, 67200, Note_on_c, 9, 70, 87
10, 67200, Note_on_c, 9, 38, 113
10, 67224, Note_on_c, 9, 38, 0
10, 67224, Note_on_c, 9, 70, 0
10, 67224, Note_on_c, 9, 42, 0
10, 67392, Note_on_c, 9, 70, 66
10, 67416, Note_on_c, 9, 70, 0
10, 67584, Note_on_c, 9, 36, 109
10, 67584, Note_on_c, 9, 42, 75
10, 67584, Note_on_c, 9, 70, 85
10, 67608, Note_on_c, 9, 70, 0
10, 67608, Note_on_c, 9, 42, 0
10, 67608, Note_on_c, 9, 36, 0
10, 67776, Note_on_c, 9, 42, 62
10, 67776, Note_on_c, 9, 70, 69
10, 67800, Note_on_c, 9, 70, 0
10, 67800, Note_on_c, 9, 42, 0
10, 67968, Note_on_c, 9, 42, 81
10, 67968, Note_on_c, 9, 70, 91
10, 67968, Note_on_c, 9, 38, 116
10, 67992, Note_on_c, 9, 38, 0
10, 67992, Note_on_c, 9, 70, 0
10, 67992, Note_on_c, 9, 42, 0
10, 68160, Note_on_c, 9, 42, 54
10, 68160, Note_on_c, 9, 70, 64
10, 68184, Note_on_c, 9, 70, 0
10, 68184, Note_on_c, 9, 42, 0
10, 68352, Note_on_c, 9, 42, 77
10, 68352, Note_on_c, 9, 70, 79
10, 68376, Note_on_c, 9, 70, 0
10, 68376, Note_on_c, 9, 42, 0
10, 68544, Note_on_c, 9, 36, 106
10, 68544, Note_on_c, 9, 42, 56
10, 68544, Note_on_c, 9, 70, 69
10, 68568, Note_on_c, 9, 70, 0
10, 68568, Note_on_c, 9, 42, 0
10, 68568, Note_on_c, 9, 36, 0
10, 68736, Note_on_c, 9, 42, 88
10, 68736, Note_on_c, 9, 70, 79
10, 68736, Note_on_c, 9, 38, 111
10, 68760, Note_on_c, 9, 38, 0
10, 68760, Note_on_c, 9, 70, 0
10, 68760, Note_on_c, 9, 42, 0
10, 68928, Note_on_c, 9, 42, 59
10, 68928, Note_on_c, 9, 70, 62
10, 68952, Note_on_c, 9, 70, 0
10, 68952, Note_on_c, 9, 42, 0
10, 69120, Note_on_c, 9, 36, 114
10, 69120, Note_on_c, 9, 42, 85
10, 69120, Note_on_c, 9, 70, 76
10, 69144, Note_on_c, 9, 70, 0
10, 69144, Note_on_c, 9, 42, 0
10, 69144, Note_on_c, 9, 36, 0
10, 69312, Note_on_c, 9, 42, 54
10, 69312, Note_on_c, 9, 70, 62
10, 69336, Note_on_c, 9, 70, 0
10, 69336, Note_on_c, 9, 42, 0
10, 69504, Note_on_c, 9, 42, 88
10, 69504, Note_on_c, 9, 70, 82
10, 69504, Note_on_c, 9, 38, 116
10, 69528, Note_on_c, 9, 38, 0
10, 69528, Note_on_c, 9, 70, 0
10, 69528, Note_on_c, 9, 42, 0
10, 69696, Note_on_c, 9, 42, 59
10, 69696, Note_on_c, 9, 70, 66
10, 69720, Note_on_c, 9, 70, 0
10, 69720, Note_on_c, 9, 42, 0
10, 69888, Note_on_c, 9, 36, 91
10, 69888, Note_on_c, 9, 42, 66
10, 69888, Note_on_c, 9, 70, 85
10, 69912, Note_on_c, 9, 70, 0
10, 69912, Note_on_c, 9, 42, 0
10, 69912, Note_on_c, 9, 36, 0
10, 70080, Note_on_c, 9, 36, 103
10, 70080, Note_on_c, 9, 42, 81
10, 70080, Note_on_c, 9, 70, 64
10, 70104, Note_on_c, 9, 70, 0
10, 70104, Note_on_c, 9, 42, 0
10, 70104, Note_on_c, 9, 36, 0
10, 70272, Note_on_c, 9, 42, 94
10, 70272, Note_on_c, 9, 70, 87
10, 70272, Note_on_c, 9, 38, 108
10, 70296, Note_on_c, 9, 38, 0
10, 70296, Note_on_c, 9, 70, 0
10, 70296, Note_on_c, 9, 42, 0
10, 70464, Note_on_c, 9, 42, 69
10, 70464, Note_on_c, 9, 70, 69
10, 70488, Note_on_c, 9, 70, 0
10, 70488, Note_on_c, 9, 42, 0
10, 70656, Note_on_c, 9, 36, 109
10, 70656, Note_on_c, 9, 42, 85
10, 70656, Note_on_c, 9, 70, 85
10, 70680, Note_on_c, 9, 70, 0
10, 70680, Note_on_c, 9, 42, 0
10, 70680, Note_on_c, 9, 36, 0
10, 70848, Note_on_c, 9, 42, 62
10, 70848, Note_on_c, 9, 70, 69
10, 70872, Note_on_c, 9, 70, 0
10, 70872, Note_on_c, 9, 42, 0
10, 71040, Note_on_c, 9, 42, 92
10, 71040, Note_on_c, 9, 70, 87
10, 71040, Note_on_c, 9, 38, 108
10, 71064, Note_on_c, 9, 38, 0
10, 71064, Note_on_c, 9, 70, 0
10, 71064, Note_on_c, 9, 42, 0
10, 71232, Note_on_c, 9, 42, 56
10, 71232, Note_on_c, 9, 70, 55
10, 71256, Note_on_c, 9, 70, 0
10, 71256, Note_on_c, 9, 42, 0
10, 71424, Note_on_c, 9, 42, 72
10, 71424, Note_on_c, 9, 70, 87
10, 71448, Note_on_c, 9, 70, 0
10, 71448, Note_on_c, 9, 42, 0
10, 71616, Note_on_c, 9, 36, 114
10, 71616, Note_on_c, 9, 42, 85
10, 71616, Note_on_c, 9, 70, 66
10, 71640, Note_on_c, 9, 70, 0
10, 71640, Note_on_c, 9, 42, 0
10, 71640, Note_on_c, 9, 36, 0
10, 71808, Note_on_c, 9, 42, 92
10, 71808, Note_on_c, 9, 70, 91
10, 71808, Note_on_c, 9, 38, 111
10, 71832, Note_on_c, 9, 38, 0
10, 71832, Note_on_c, 9, 70, 0
10, 71832, Note_on_c, 9, 42, 0
10, 72000, Note_on_c, 9, 42, 69
10, 72000, Note_on_c, 9, 70, 57
10, 72024, Note_on_c, 9, 70, 0
10, 72024, Note_on_c, 9, 42, 0
10, 72192, Note_on_c, 9, 36, 106
10, 72192, Note_on_c, 9, 42, 92
10, 72192, Note_on_c, 9, 70, 95
10, 72216, Note_on_c, 9, 70, 0
10, 72216, Note_on_c, 9, 42, 0
10, 72216, Note_on_c, 9, 36, 0
10, 72384, Note_on_c, 9, 42, 54
10, 72384, Note_on_c, 9, 70, 64
10, 72408, Note_on_c, 9, 70, 0
10, 72408, Note_on_c, 9, 42, 0
10, 72576, Note_on_c, 9, 42, 92
10, 72576, Note_on_c, 9, 70, 87
10, 72576, Note_on_c, 9, 38, 108
10, 72600, Note_on_c, 9, 38, 0
10, 72600, Note_on_c, 9, 70, 0
10, 72600, Note_on_c, 9, 42, 0
10, 72768, Note_on_c, 9, 42, 72
10, 72768, Note_on_c, 9, 70, 66
10, 72792, Note_on_c, 9, 70, 0
10, 72792, Note_on_c, 9, 42, 0
10, 72960, Note_on_c, 9, 36, 98
10, 72960, Note_on_c, 9, 42, 85
10, 72960, Note_on_c, 9, 70, 85
10, 72984, Note_on_c, 9, 70, 0
10, 72984, Note_on_c, 9, 42, 0
10, 72984, Note_on_c, 9, 36, 0
10, 73152, Note_on_c, 9, 36, 106
10, 73152, Note_on_c, 9, 42, 75
10, 73152, Note_on_c, 9, 70, 66
10, 73176, Note_on_c, 9, 70, 0
10, 73176, Note_on_c, 9, 42, 0
10, 73176, Note_on_c, 9, 36, 0
10, 73344, Note_on_c, 9, 42, 88
10, 73344, Note_on_c, 9, 70, 95
10, 73344, Note_on_c, 9, 38, 113
10, 73356, Note_on_c, 9, 46, 104
10, 73368, Note_on_c, 9, 38, 0
10, 73368, Note_on_c, 9, 42, 0
10, 73368, Note_on_c, 9, 70, 0
10, 73380, Note_on_c, 9, 46, 0
10, 73536, Note_on_c, 9, 42, 72
10, 73536, Note_on_c, 9, 70, 66
10, 73560, Note_on_c, 9, 70, 0
10, 73560, Note_on_c, 9, 42, 0
10, 73728, Note_on_c, 9, 36, 109
10, 73728, Note_on_c, 9, 42, 88
10, 73728, Note_on_c, 9, 70, 95
10, 73752, Note_on_c, 9, 70, 0
10, 73752, Note_on_c, 9, 42, 0
10, 73752, Note_on_c, 9, 36, 0
10, 73920, Note_on_c, 9, 42, 56
10, 73920, Note_on_c, 9, 70, 66
10, 73944, Note_on_c, 9, 70, 0
10, 73944, Note_on_c, 9, 42, 0
10, 74112, Note_on_c, 9, 42, 94
10, 74112, Note_on_c, 9, 70, 87
10, 74112, Note_on_c, 9, 38, 111
10, 74136, Note_on_c, 9, 38, 0
10, 74136, Note_on_c, 9, 70, 0
10, 74136, Note_on_c, 9, 42, 0
10, 74304, Note_on_c, 9, 42, 52
10, 74304, Note_on_c, 9, 70, 55
10, 74328, Note_on_c, 9, 70, 0
10, 74328, Note_on_c, 9, 42, 0
10, 74496, Note_on_c, 9, 42, 77
10, 74496, Note_on_c, 9, 70, 91
10, 74520, Note_on_c, 9, 70, 0
10, 74520, Note_on_c, 9, 42, 0
10, 74688, Note_on_c, 9, 36, 114
10, 74688, Note_on_c, 9, 42, 88
10, 74688, Note_on_c, 9, 70, 60
10, 74712, Note_on_c, 9, 70, 0
10, 74712, Note_on_c, 9, 42, 0
10, 74712, Note_on_c, 9, 36, 0
10, 74880, Note_on_c, 9, 42, 88
10, 74880, Note_on_c, 9, 70, 87
10, 74880, Note_on_c, 9, 38, 108
10, 74904, Note_on_c, 9, 38, 0
10, 74904, Note_on_c, 9, 70, 0
10, 74904, Note_on_c, 9, 42, 0
10, 75072, Note_on_c, 9, 42, 72
10, 75072, Note_on_c, 9, 70, 64
10, 75096, Note_on_c, 9, 70, 0
10, 75096, Note_on_c, 9, 42, 0
10, 75264, Note_on_c, 9, 36, 114
10, 75264, Note_on_c, 9, 42, 88
10, 75264, Note_on_c, 9, 70, 87
10, 75288, Note_on_c, 9, 70, 0
10, 75288, Note_on_c, 9, 42, 0
10, 75288, Note_on_c, 9, 36, 0
10, 75456, Note_on_c, 9, 42, 69
10, 75456, Note_on_c, 9, 70, 66
10, 75480, Note_on_c, 9, 70, 0
10, 75480, Note_on_c, 9, 42, 0
10, 75648, Note_on_c, 9, 42, 92
10, 75648, Note_on_c, 9, 70, 82
10, 75648, Note_on_c, 9, 38, 111
10, 75672, Note_on_c, 9, 38, 0
10, 75672, Note_on_c, 9, 70, 0
10, 75672, Note_on_c, 9, 42, 0
10, 75840, Note_on_c, 9, 42, 64
10, 75840, Note_on_c, 9, 70, 64
10, 75864, Note_on_c, 9, 70, 0
10, 75864, Note_on_c, 9, 42, 0
10, 76032, Note_on_c, 9, 36, 93
10, 76032, Note_on_c, 9, 42, 85
10, 76032, Note_on_c, 9, 70, 87
10, 76056, Note_on_c, 9, 70, 0
10, 76056, Note_on_c, 9, 42, 0
10, 76056, Note_on_c, 9, 36, 0
10, 76224, Note_on_c, 9, 36, 109
10, 76224, Note_on_c, 9, 42, 77
10, 76224, Note_on_c, 9, 70, 72
10, 76248, Note_on_c, 9, 70, 0
10, 76248, Note_on_c, 9, 42, 0
10, 76248, Note_on_c, 9, 36, 0
10, 76416, Note_on_c, 9, 42, 88
10, 76416, Note_on_c, 9, 70, 85
10, 76416, Note_on_c, 9, 38, 111
10, 76440, Note_on_c, 9, 38, 0
10, 76440, Note_on_c, 9, 70, 0
10, 76440, Note_on_c, 9, 42, 0
10, 76608, Note_on_c, 9, 42, 75
10, 76608, Note_on_c, 9, 70, 64
10, 76632, Note_on_c, 9, 70, 0
10, 76632, Note_on_c, 9, 42, 0
10, 76800, Note_on_c, 9, 36, 109
10, 76800, Note_on_c, 9, 42, 88
10, 76800, Note_on_c, 9, 70, 87
10, 76824, Note_on_c, 9, 70, 0
10, 76824, Note_on_c, 9, 42, 0
10, 76824, Note_on_c, 9, 36, 0
10, 76992, Note_on_c, 9, 42, 69
10, 76992, Note_on_c, 9, 70, 66
10, 77016, Note_on_c, 9, 70, 0
10, 77016, Note_on_c, 9, 42, 0
10, 77184, Note_on_c, 9, 42, 92
10, 77184, Note_on_c, 9, 70, 91
10, 77184, Note_on_c, 9, 38, 106
10, 77208, Note_on_c, 9, 38, 0
10, 77208, Note_on_c, 9, 70, 0
10, 77208, Note_on_c, 9, 42, 0
10, 77376, Note_on_c, 9, 42, 77
10, 77376, Note_on_c, 9, 70, 64
10, 77400, Note_on_c, 9, 70, 0
10, 77400, Note_on_c, 9, 42, 0
10, 77568, Note_on_c, 9, 42, 77
10, 77568, Note_on_c, 9, 70, 95
10, 77592, Note_on_c, 9, 70, 0
10, 77592, Note_on_c, 9, 42, 0
10, 77760, Note_on_c, 9, 36, 106
10, 77760, Note_on_c, 9, 42, 92
10, 77760, Note_on_c, 9, 70, 66
10, 77784, Note_on_c, 9, 70, 0
10, 77784, Note_on_c, 9, 42, 0
10, 77784, Note_on_c, 9, 36, 0
10, 77952, Note_on_c, 9, 42, 88
10, 77952, Note_on_c, 9, 70, 87
10, 77952, Note_on_c, 9, 38, 106
10, 77976, Note_on_c, 9, 38, 0
10, 77976, Note_on_c, 9, 70, 0
10, 77976, Note_on_c, 9, 42, 0
10, 78144, Note_on_c, 9, 42, 75
10, 78144, Note_on_c, 9, 70, 64
10, 78168, Note_on_c, 9, 70, 0
10, 78168, Note_on_c, 9, 42, 0
10, 78336, Note_on_c, 9, 36, 103
10, 78336, Note_on_c, 9, 42, 88
10, 78336, Note_on_c, 9, 70, 79
10, 78360, Note_on_c, 9, 70, 0
10, 78360, Note_on_c, 9, 42, 0
10, 78360, Note_on_c, 9, 36, 0
10, 78528, Note_on_c, 9, 42, 69
10, 78528, Note_on_c, 9, 70, 64
10, 78552, Note_on_c, 9, 70, 0
10, 78552, Note_on_c, 9, 42, 0
10, 78720, Note_on_c, 9, 42, 88
10, 78720, Note_on_c, 9, 70, 87
10, 78720, Note_on_c, 9, 38, 106
10, 78744, Note_on_c, 9, 38, 0
10, 78744, Note_on_c, 9, 70, 0
10, 78744, Note_on_c, 9, 42, 0
10, 78912, Note_on_c, 9, 42, 75
10, 78912, Note_on_c, 9, 70, 57
10, 78936, Note_on_c, 9, 70, 0
10, 78936, Note_on_c, 9, 42, 0
10, 79104, Note_on_c, 9, 36, 98
10, 79104, Note_on_c, 9, 42, 88
10, 79104, Note_on_c, 9, 70, 72
10, 79128, Note_on_c, 9, 70, 0
10, 79128, Note_on_c, 9, 42, 0
10, 79128, Note_on_c, 9, 36, 0
10, 79296, Note_on_c, 9, 36, 103
10, 79296, Note_on_c, 9, 42, 81
10, 79296, Note_on_c, 9, 70, 72
10, 79320, Note_on_c, 9, 70, 0
10, 79320, Note_on_c, 9, 42, 0
10, 79320, Note_on_c, 9, 36, 0
10, 79488, Note_on_c, 9, 42, 94
10, 79488, Note_on_c, 9, 70, 98
10, 79488, Note_on_c, 9, 38, 113
10, 79512, Note_on_c, 9, 38, 0
10, 79512, Note_on_c, 9, 70, 0
10, 79512, Note_on_c, 9, 42, 0
10, 79680, Note_on_c, 9, 70, 66
10, 79704, Note_on_c, 9, 70, 0
10, 79872, Note_on_c, 9, 36, 109
10, 79872, Note_on_c, 9, 42, 75
10, 79872, Note_on_c, 9, 70, 79
10, 79896, Note_on_c, 9, 70, 0
10, 79896, Note_on_c, 9, 42, 0
10, 79896, Note_on_c, 9, 36, 0
10, 80064, Note_on_c, 9, 42, 62
10, 80064, Note_on_c, 9, 70, 58
10, 80088, Note_on_c, 9, 70, 0
10, 80088, Note_on_c, 9, 42, 0
10, 80256, Note_on_c, 9, 42, 81
10, 80256, Note_on_c, 9, 70, 87
10, 80256, Note_on_c, 9, 38, 116
10, 80280, Note_on_c, 9, 38, 0
10, 80280, Note_on_c, 9, 70, 0
10, 80280, Note_on_c, 9, 42, 0
10, 80448, Note_on_c, 9, 42, 54
10, 80448, Note_on_c, 9, 70, 55
10, 80472, Note_on_c, 9, 70, 0
10, 80472, Note_on_c, 9, 42, 0
10, 80640, Note_on_c, 9, 42, 77
10, 80640, Note_on_c, 9, 70, 82
10, 80664, Note_on_c, 9, 70, 0
10, 80664, Note_on_c, 9, 42, 0
10, 80832, Note_on_c, 9, 36, 106
10, 80832, Note_on_c, 9, 42, 56
10, 80832, Note_on_c, 9, 70, 62
10, 80856, Note_on_c, 9, 70, 0
10, 80856, Note_on_c, 9, 42, 0
10, 80856, Note_on_c, 9, 36, 0
10, 81024, Note_on_c, 9, 42, 88
10, 81024, Note_on_c, 9, 70, 85
10, 81024, Note_on_c, 9, 38, 111
10, 81048, Note_on_c, 9, 38, 0
10, 81048, Note_on_c, 9, 70, 0
10, 81048, Note_on_c, 9, 42, 0
10, 81216, Note_on_c, 9, 42, 59
10, 81216, Note_on_c, 9, 70, 57
10, 81240, Note_on_c, 9, 70, 0
10, 81240, Note_on_c, 9, 42, 0
10, 81408, Note_on_c, 9, 36, 114
10, 81408, Note_on_c, 9, 42, 85
10, 81408, Note_on_c, 9, 70, 82
10, 81432, Note_on_c, 9, 70, 0
10, 81432, Note_on_c, 9, 42, 0
10, 81432, Note_on_c, 9, 36, 0
10, 81600, Note_on_c, 9, 42, 54
10, 81600, Note_on_c, 9, 70, 60
10, 81624, Note_on_c, 9, 70, 0
10, 81624, Note_on_c, 9, 42, 0
10, 81792, Note_on_c, 9, 42, 88
10, 81792, Note_on_c, 9, 70, 85
10, 81792, Note_on_c, 9, 38, 116
10, 81816, Note_on_c, 9, 38, 0
10, 81816, Note_on_c, 9, 70, 0
10, 81816, Note_on_c, 9, 42, 0
10, 81984, Note_on_c, 9, 42, 59
10, 81984, Note_on_c, 9, 70, 66
10, 82008, Note_on_c, 9, 70, 0
10, 82008, Note_on_c, 9, 42, 0
10, 82176, Note_on_c, 9, 36, 91
10, 82176, Note_on_c, 9, 42, 66
10, 82176, Note_on_c, 9, 70, 82
10, 82200, Note_on_c, 9, 70, 0
10, 82200, Note_on_c, 9, 42, 0
10, 82200, Note_on_c, 9, 36, 0
10, 82368, Note_on_c, 9, 36, 103
10, 82368, Note_on_c, 9, 42, 81
10, 82368, Note_on_c, 9, 70, 66
10, 82392, Note_on_c, 9, 70, 0
10, 82392, Note_on_c, 9, 42, 0
10, 82392, Note_on_c, 9, 36, 0
10, 82560, Note_on_c, 9, 42, 94
10, 82560, Note_on_c, 9, 70, 82
10, 82560, Note_on_c, 9, 38, 108
10, 82584, Note_on_c, 9, 38, 0
10, 82584, Note_on_c, 9, 70, 0
10, 82584, Note_on_c, 9, 42, 0
10, 82752, Note_on_c, 9, 42, 69
10, 82752, Note_on_c, 9, 70, 69
10, 82776, Note_on_c, 9, 70, 0
10, 82776, Note_on_c, 9, 42, 0
10, 82944, Note_on_c, 9, 36, 109
10, 82944, Note_on_c, 9, 42, 75
10, 82944, Note_on_c, 9, 70, 82
10, 82968, Note_on_c, 9, 70, 0
10, 82968, Note_on_c, 9, 42, 0
10, 82968, Note_on_c, 9, 36, 0
10, 83136, Note_on_c, 9, 42, 62
10, 83136, Note_on_c, 9, 70, 31
10, 83160, Note_on_c, 9, 70, 0
10, 83160, Note_on_c, 9, 42, 0
10, 83328, Note_on_c, 9, 42, 81
10, 83328, Note_on_c, 9, 70, 76
10, 83328, Note_on_c, 9, 38, 116
10, 83352, Note_on_c, 9, 38, 0
10, 83352, Note_on_c, 9, 70, 0
10, 83352, Note_on_c, 9, 42, 0
10, 83520, Note_on_c, 9, 42, 54
10, 83520, Note_on_c, 9, 70, 55
10, 83544, Note_on_c, 9, 70, 0
10, 83544, Note_on_c, 9, 42, 0
10, 83712, Note_on_c, 9, 42, 77
10, 83712, Note_on_c, 9, 70, 66
10, 83736, Note_on_c, 9, 70, 0
10, 83736, Note_on_c, 9, 42, 0
10, 83904, Note_on_c, 9, 36, 106
10, 83904, Note_on_c, 9, 42, 56
10, 83904, Note_on_c, 9, 70, 51
10, 83928, Note_on_c, 9, 70, 0
10, 83928, Note_on_c, 9, 42, 0
10, 83928, Note_on_c, 9, 36, 0
10, 84096, Note_on_c, 9, 42, 88
10, 84096, Note_on_c, 9, 70, 72
10, 84096, Note_on_c, 9, 38, 111
10, 84120, Note_on_c, 9, 38, 0
10, 84120, Note_on_c, 9, 70, 0
10, 84120, Note_on_c, 9, 42, 0
10, 84288, Note_on_c, 9, 42, 59
10, 84288, Note_on_c, 9, 70, 51
10, 84312, Note_on_c, 9, 70, 0
10, 84312, Note_on_c, 9, 42, 0
10, 84480, Note_on_c, 9, 36, 114
10, 84480, Note_on_c, 9, 42, 85
10, 84480, Note_on_c, 9, 70, 69
10, 84504, Note_on_c, 9, 70, 0
10, 84504, Note_on_c, 9, 42, 0
10, 84504, Note_on_c, 9, 36, 0
10, 84672, Note_on_c, 9, 42, 54
10, 84672, Note_on_c, 9, 70, 46
10, 84696, Note_on_c, 9, 70, 0
10, 84696, Note_on_c, 9, 42, 0
10, 84864, Note_on_c, 9, 42, 88
10, 84864, Note_on_c, 9, 70, 82
10, 84864, Note_on_c, 9, 38, 116
10, 84888, Note_on_c, 9, 38, 0
10, 84888, Note_on_c, 9, 70, 0
10, 84888, Note_on_c, 9, 42, 0
10, 85056, Note_on_c, 9, 42, 59
10, 85056, Note_on_c, 9, 70, 55
10, 85080, Note_on_c, 9, 70, 0
10, 85080, Note_on_c, 9, 42, 0
10, 85248, Note_on_c, 9, 36, 91
10, 85248, Note_on_c, 9, 42, 66
10, 85248, Note_on_c, 9, 70, 64
10, 85272, Note_on_c, 9, 70, 0
10, 85272, Note_on_c, 9, 42, 0
10, 85272, Note_on_c, 9, 36, 0
10, 85440, Note_on_c, 9, 36, 103
10, 85440, Note_on_c, 9, 42, 81
10, 85440, Note_on_c, 9, 70, 66
10, 85464, Note_on_c, 9, 70, 0
10, 85464, Note_on_c, 9, 42, 0
10, 85464, Note_on_c, 9, 36, 0
10, 85632, Note_on_c, 9, 42, 94
10, 85632, Note_on_c, 9, 70, 69
10, 85632, Note_on_c, 9, 38, 108
10, 85656, Note_on_c, 9, 38, 0
10, 85656, Note_on_c, 9, 70, 0
10, 85656, Note_on_c, 9, 42, 0
10, 85824, Note_on_c, 9, 42, 69
10, 85824, Note_on_c, 9, 70, 57
10, 85848, Note_on_c, 9, 70, 0
10, 85848, Note_on_c, 9, 42, 0
10, 86016, Note_on_c, 9, 36, 109
10, 86016, Note_on_c, 9, 42, 85
10, 86016, Note_on_c, 9, 70, 72
10, 86040, Note_on_c, 9, 70, 0
10, 86040, Note_on_c, 9, 42, 0
10, 86040, Note_on_c, 9, 36, 0
10, 86208, Note_on_c, 9, 42, 62
10, 86208, Note_on_c, 9, 70, 55
10, 86232, Note_on_c, 9, 70, 0
10, 86232, Note_on_c, 9, 42, 0
10, 86400, Note_on_c, 9, 42, 92
10, 86400, Note_on_c, 9, 70, 74
10, 86400, Note_on_c, 9, 38, 108
10, 86424, Note_on_c, 9, 38, 0
10, 86424, Note_on_c, 9, 70, 0
10, 86424, Note_on_c, 9, 42, 0
10, 86592, Note_on_c, 9, 42, 56
10, 86592, Note_on_c, 9, 70, 57
10, 86616, Note_on_c, 9, 70, 0
10, 86616, Note_on_c, 9, 42, 0
10, 86784, Note_on_c, 9, 42, 72
10, 86784, Note_on_c, 9, 70, 69
10, 86808, Note_on_c, 9, 70, 0
10, 86808, Note_on_c, 9, 42, 0
10, 86976, Note_on_c, 9, 36, 114
10, 86976, Note_on_c, 9, 42, 85
10, 86976, Note_on_c, 9, 70, 58
10, 87000, Note_on_c, 9, 70, 0
10, 87000, Note_on_c, 9, 42, 0
10, 87000, Note_on_c, 9, 36, 0
10, 87168, Note_on_c, 9, 42, 92
10, 87168, Note_on_c, 9, 70, 82
10, 87168, Note_on_c, 9, 38, 111
10, 87192, Note_on_c, 9, 38, 0
10, 87192, Note_on_c, 9, 70, 0
10, 87192, Note_on_c, 9, 42, 0
10, 87360, Note_on_c, 9, 42, 69
10, 87360, Note_on_c, 9, 70, 69
10, 87384, Note_on_c, 9, 70, 0
10, 87384, Note_on_c, 9, 42, 0
10, 87552, Note_on_c, 9, 36, 106
10, 87552, Note_on_c, 9, 42, 92
10, 87552, Note_on_c, 9, 70, 72
10, 87576, Note_on_c, 9, 70, 0
10, 87576, Note_on_c, 9, 42, 0
10, 87576, Note_on_c, 9, 36, 0
10, 87744, Note_on_c, 9, 42, 54
10, 87744, Note_on_c, 9, 70, 66
10, 87768, Note_on_c, 9, 70, 0
10, 87768, Note_on_c, 9, 42, 0
10, 87936, Note_on_c, 9, 42, 92
10, 87936, Note_on_c, 9, 70, 74
10, 87936, Note_on_c, 9, 38, 108
10, 87960, Note_on_c, 9, 38, 0
10, 87960, Note_on_c, 9, 70, 0
10, 87960, Note_on_c, 9, 42, 0
10, 88128, Note_on_c, 9, 42, 72
10, 88128, Note_on_c, 9, 70, 64
10, 88152, Note_on_c, 9, 70, 0
10, 88152, Note_on_c, 9, 42, 0
10, 88320, Note_on_c, 9, 36, 98
10, 88320, Note_on_c, 9, 42, 85
10, 88320, Note_on_c, 9, 70, 66
10, 88344, Note_on_c, 9, 70, 0
10, 88344, Note_on_c, 9, 42, 0
10, 88344, Note_on_c, 9, 36, 0
10, 88512, Note_on_c, 9, 36, 106
10, 88512, Note_on_c, 9, 42, 75
10, 88512, Note_on_c, 9, 70, 66
10, 88536, Note_on_c, 9, 70, 0
10, 88536, Note_on_c, 9, 42, 0
10, 88536, Note_on_c, 9, 36, 0
10, 88704, Note_on_c, 9, 42, 88
10, 88704, Note_on_c, 9, 70, 82
10, 88704, Note_on_c, 9, 38, 113
10, 88728, Note_on_c, 9, 38, 0
10, 88728, Note_on_c, 9, 70, 0
10, 88728, Note_on_c, 9, 42, 0
10, 88896, Note_on_c, 9, 42, 72
10, 88896, Note_on_c, 9, 70, 69
10, 88920, Note_on_c, 9, 70, 0
10, 88920, Note_on_c, 9, 42, 0
10, 89088, Note_on_c, 9, 36, 109
10, 89088, Note_on_c, 9, 42, 75
10, 89088, Note_on_c, 9, 70, 82
10, 89092, Note_on_c, 9, 49, 61
10, 89112, Note_on_c, 9, 70, 0
10, 89112, Note_on_c, 9, 36, 0
10, 89112, Note_on_c, 9, 42, 0
10, 89116, Note_on_c, 9, 49, 0
10, 89280, Note_on_c, 9, 42, 62
10, 89280, Note_on_c, 9, 70, 31
10, 89304, Note_on_c, 9, 70, 0
10, 89304, Note_on_c, 9, 42, 0
10, 89472, Note_on_c, 9, 42, 81
10, 89472, Note_on_c, 9, 70, 76
10, 89472, Note_on_c, 9, 38, 116
10, 89496, Note_on_c, 9, 38, 0
10, 89496, Note_on_c, 9, 70, 0
10, 89496, Note_on_c, 9, 42, 0
10, 89664, Note_on_c, 9, 42, 54
10, 89664, Note_on_c, 9, 70, 55
10, 89688, Note_on_c, 9, 70, 0
10, 89688, Note_on_c, 9, 42, 0
10, 89856, Note_on_c, 9, 42, 77
10, 89856, Note_on_c, 9, 70, 66
10, 89880, Note_on_c, 9, 70, 0
10, 89880, Note_on_c, 9, 42, 0
10, 90048, Note_on_c, 9, 36, 106
10, 90048, Note_on_c, 9, 42, 56
10, 90048, Note_on_c, 9, 70, 51
10, 90072, Note_on_c, 9, 70, 0
10, 90072, Note_on_c, 9, 42, 0
10, 90072, Note_on_c, 9, 36, 0
10, 90240, Note_on_c, 9, 42, 88
10, 90240, Note_on_c, 9, 70, 72
10, 90240, Note_on_c, 9, 38, 111
10, 90264, Note_on_c, 9, 38, 0
10, 90264, Note_on_c, 9, 70, 0
10, 90264, Note_on_c, 9, 42, 0
10, 90432, Note_on_c, 9, 42, 59
10, 90432, Note_on_c, 9, 70, 51
10, 90456, Note_on_c, 9, 70, 0
10, 90456, Note_on_c, 9, 42, 0
10, 90624, Note_on_c, 9, 36, 109
10, 90624, Note_on_c, 9, 42, 75
10, 90624, Note_on_c, 9, 70, 82
10, 90648, Note_on_c, 9, 70, 0
10, 90648, Note_on_c, 9, 42, 0
10, 90648, Note_on_c, 9, 36, 0
10, 90816, Note_on_c, 9, 42, 62
10, 90816, Note_on_c, 9, 70, 31
10, 90840, Note_on_c, 9, 70, 0
10, 90840, Note_on_c, 9, 42, 0
10, 91008, Note_on_c, 9, 42, 81
10, 91008, Note_on_c, 9, 70, 76
10, 91008, Note_on_c, 9, 38, 116
10, 91032, Note_on_c, 9, 38, 0
10, 91032, Note_on_c, 9, 70, 0
10, 91032, Note_on_c, 9, 42, 0
10, 91200, Note_on_c, 9, 42, 54
10, 91200, Note_on_c, 9, 70, 55
10, 91224, Note_on_c, 9, 70, 0
10, 91224, Note_on_c, 9, 42, 0
10, 91392, Note_on_c, 9, 42, 77
10, 91392, Note_on_c, 9, 70, 66
10, 91416, Note_on_c, 9, 70, 0
10, 91416, Note_on_c, 9, 42, 0
10, 91584, Note_on_c, 9, 36, 106
10, 91584, Note_on_c, 9, 42, 56
10, 91584, Note_on_c, 9, 70, 51
10, 91608, Note_on_c, 9, 70, 0
10, 91608, Note_on_c, 9, 42, 0
10, 91608, Note_on_c, 9, 36, 0
10, 91776, Note_on_c, 9, 42, 88
10, 91776, Note_on_c, 9, 70, 72
10, 91776, Note_on_c, 9, 38, 111
10, 91800, Note_on_c, 9, 38, 0
10, 91800, Note_on_c, 9, 70, 0
10, 91800, Note_on_c, 9, 42, 0
10, 91968, Note_on_c, 9, 42, 59
10, 91968, Note_on_c, 9, 70, 51
10, 91992, Note_on_c, 9, 70, 0
10, 91992, Note_on_c, 9, 42, 0
10, 92160, Note_on_c, 9, 36, 109
10, 92160, Note_on_c, 9, 42, 75
10, 92160, Note_on_c, 9, 70, 82
10, 92184, Note_on_c, 9, 70, 0
10, 92184, Note_on_c, 9, 42, 0
10, 92184, Note_on_c, 9, 36, 0
10, 92352, Note_on_c, 9, 42, 62
10, 92352, Note_on_c, 9, 70, 31
10, 92376, Note_on_c, 9, 70, 0
10, 92376, Note_on_c, 9, 42, 0
10, 92544, Note_on_c, 9, 42, 81
10, 92544, Note_on_c, 9, 70, 76
10, 92544, Note_on_c, 9, 38, 116
10, 92568, Note_on_c, 9, 38, 0
10, 92568, Note_on_c, 9, 70, 0
10, 92568, Note_on_c, 9, 42, 0
10, 92736, Note_on_c, 9, 42, 54
10, 92736, Note_on_c, 9, 70, 55
10, 92760, Note_on_c, 9, 70, 0
10, 92760, Note_on_c, 9, 42, 0
10, 92928, Note_on_c, 9, 42, 77
10, 92928, Note_on_c, 9, 70, 66
10, 92952, Note_on_c, 9, 70, 0
10, 92952, Note_on_c, 9, 42, 0
10, 93120, Note_on_c, 9, 36, 106
10, 93120, Note_on_c, 9, 42, 56
10, 93120, Note_on_c, 9, 70, 51
10, 93144, Note_on_c, 9, 70, 0
10, 93144, Note_on_c, 9, 42, 0
10, 93144, Note_on_c, 9, 36, 0
10, 93312, Note_on_c, 9, 42, 88
10, 93312, Note_on_c, 9, 70, 72
10, 93312, Note_on_c, 9, 38, 111
10, 93336, Note_on_c, 9, 38, 0
10, 93336, Note_on_c, 9, 70, 0
10, 93336, Note_on_c, 9, 42, 0
10, 93504, Note_on_c, 9, 42, 59
10, 93504, Note_on_c, 9, 70, 51
10, 93528, Note_on_c, 9, 70, 0
10, 93528, Note_on_c, 9, 42, 0
10, 93696, Note_on_c, 9, 36, 109
10, 93696, Note_on_c, 9, 42, 75
10, 93696, Note_on_c, 9, 70, 82
10, 93720, Note_on_c, 9, 70, 0
10, 93720, Note_on_c, 9, 42, 0
10, 93720, Note_on_c, 9, 36, 0
10, 93888, Note_on_c, 9, 42, 62
10, 93888, Note_on_c, 9, 70, 31
10, 93912, Note_on_c, 9, 70, 0
10, 93912, Note_on_c, 9, 42, 0
10, 94080, Note_on_c, 9, 42, 81
10, 94080, Note_on_c, 9, 70, 76
10, 94080, Note_on_c, 9, 38, 116
10, 94104, Note_on_c, 9, 38, 0
10, 94104, Note_on_c, 9, 70, 0
10, 94104, Note_on_c, 9, 42, 0
10, 94272, Note_on_c, 9, 42, 54
10, 94272, Note_on_c, 9, 70, 55
10, 94296, Note_on_c, 9, 70, 0
10, 94296, Note_on_c, 9, 42, 0
10, 94464, Note_on_c, 9, 42, 77
10, 94464, Note_on_c, 9, 70, 66
10, 94488, Note_on_c, 9, 70, 0
10, 94488, Note_on_c, 9, 42, 0
10, 94656, Note_on_c, 9, 36, 106
10, 94656, Note_on_c, 9, 42, 56
10, 94656, Note_on_c, 9, 70, 51
10, 94680, Note_on_c, 9, 70, 0
10, 94680, Note_on_c, 9, 42, 0
10, 94680, Note_on_c, 9, 36, 0
10, 94848, Note_on_c, 9, 42, 88
10, 94848, Note_on_c, 9, 70, 72
10, 94848, Note_on_c, 9, 38, 111
10, 94872, Note_on_c, 9, 38, 0
10, 94872, Note_on_c, 9, 70, 0
10, 94872, Note_on_c, 9, 42, 0
10, 95040, Note_on_c, 9, 42, 59
10, 95040, Note_on_c, 9, 70, 51
10, 95064, Note_on_c, 9, 70, 0
10, 95064, Note_on_c, 9, 42, 0
10, 95232, Note_on_c, 9, 36, 109
10, 95232, Note_on_c, 9, 42, 75
10, 95232, Note_on_c, 9, 70, 82
10, 95256, Note_on_c, 9, 70, 0
10, 95256, Note_on_c, 9, 42, 0
10, 95256, Note_on_c, 9, 36, 0
10, 95424, Note_on_c, 9, 42, 62
10, 95424, Note_on_c, 9, 70, 31
10, 95448, Note_on_c, 9, 70, 0
10, 95448, Note_on_c, 9, 42, 0
10, 95616, Note_on_c, 9, 42, 81
10, 95616, Note_on_c, 9, 70, 76
10, 95616, Note_on_c, 9, 38, 116
10, 95640, Note_on_c, 9, 38, 0
10, 95640, Note_on_c, 9, 70, 0
10, 95640, Note_on_c, 9, 42, 0
10, 95808, Note_on_c, 9, 42, 54
10, 95808, Note_on_c, 9, 70, 55
10, 95832, Note_on_c, 9, 70, 0
10, 95832, Note_on_c, 9, 42, 0
10, 96000, Note_on_c, 9, 42, 77
10, 96000, Note_on_c, 9, 70, 66
10, 96024, Note_on_c, 9, 70, 0
10, 96024, Note_on_c, 9, 42, 0
10, 96192, Note_on_c, 9, 36, 106
10, 96192, Note_on_c, 9, 42, 56
10, 96192, Note_on_c, 9, 70, 51
10, 96216, Note_on_c, 9, 70, 0
10, 96216, Note_on_c, 9, 42, 0
10, 96216, Note_on_c, 9, 36, 0
10, 96384, Note_on_c, 9, 42, 88
10, 96384, Note_on_c, 9, 70, 72
10, 96384, Note_on_c, 9, 38, 111
10, 96408, Note_on_c, 9, 38, 0
10, 96408, Note_on_c, 9, 70, 0
10, 96408, Note_on_c, 9, 42, 0
10, 96576, Note_on_c, 9, 42, 59
10, 96576, Note_on_c, 9, 70, 51
10, 96600, Note_on_c, 9, 70, 0
10, 96600, Note_on_c, 9, 42, 0
10, 96768, Note_on_c, 9, 36, 109
10, 96768, Note_on_c, 9, 42, 75
10, 96768, Note_on_c, 9, 70, 82
10, 96792, Note_on_c, 9, 70, 0
10, 96792, Note_on_c, 9, 42, 0
10, 96792, Note_on_c, 9, 36, 0
10, 96960, Note_on_c, 9, 42, 62
10, 96960, Note_on_c, 9, 70, 31
10, 96984, Note_on_c, 9, 70, 0
10, 96984, Note_on_c, 9, 42, 0
10, 97152, Note_on_c, 9, 42, 81
10, 97152, Note_on_c, 9, 70, 76
10, 97152, Note_on_c, 9, 38, 116
10, 97176, Note_on_c, 9, 38, 0
10, 97176, Note_on_c, 9, 70, 0
10, 97176, Note_on_c, 9, 42, 0
10, 97344, Note_on_c, 9, 42, 54
10, 97344, Note_on_c, 9, 70, 55
10, 97368, Note_on_c, 9, 70, 0
10, 97368, Note_on_c, 9, 42, 0
10, 97536, Note_on_c, 9, 42, 77
10, 97536, Note_on_c, 9, 70, 66
10, 97560, Note_on_c, 9, 70, 0
10, 97560, Note_on_c, 9, 42, 0
10, 97728, Note_on_c, 9, 36, 106
10, 97728, Note_on_c, 9, 42, 56
10, 97728, Note_on_c, 9, 70, 51
10, 97752, Note_on_c, 9, 70, 0
10, 97752, Note_on_c, 9, 42, 0
10, 97752, Note_on_c, 9, 36, 0
10, 97920, Note_on_c, 9, 42, 88
10, 97920, Note_on_c, 9, 70, 72
10, 97920, Note_on_c, 9, 38, 111
10, 97944, Note_on_c, 9, 38, 0
10, 97944, Note_on_c, 9, 70, 0
10, 97944, Note_on_c, 9, 42, 0
10, 98112, Note_on_c, 9, 42, 59
10, 98112, Note_on_c, 9, 70, 51
10, 98136, Note_on_c, 9, 70, 0
10, 98136, Note_on_c, 9, 42, 0
10, 98304, Note_on_c, 9, 36, 109
10, 98304, Note_on_c, 9, 42, 75
10, 98304, Note_on_c, 9, 70, 82
10, 98328, Note_on_c, 9, 70, 0
10, 98328, Note_on_c, 9, 42, 0
10, 98328, Note_on_c, 9, 36, 0
10, 98496, Note_on_c, 9, 42, 62
10, 98496, Note_on_c, 9, 70, 31
10, 98520, Note_on_c, 9, 70, 0
10, 98520, Note_on_c, 9, 42, 0
10, 98688, Note_on_c, 9, 42, 81
10, 98688, Note_on_c, 9, 70, 76
10, 98688, Note_on_c, 9, 38, 116
10, 98712, Note_on_c, 9, 38, 0
10, 98712, Note_on_c, 9, 70, 0
10, 98712, Note_on_c, 9, 42, 0
10, 98880, Note_on_c, 9, 42, 54
10, 98880, Note_on_c, 9, 70, 55
10, 98904, Note_on_c, 9, 70, 0
10, 98904, Note_on_c, 9, 42, 0
10, 99072, Note_on_c, 9, 42, 77
10, 99072, Note_on_c, 9, 70, 66
10, 99096, Note_on_c, 9, 70, 0
10, 99096, Note_on_c, 9, 42, 0
10, 99264, Note_on_c, 9, 36, 106
10, 99264, Note_on_c, 9, 42, 56
10, 99264, Note_on_c, 9, 70, 51
10, 99288, Note_on_c, 9, 70, 0
10, 99288, Note_on_c, 9, 42, 0
10, 99288, Note_on_c, 9, 36, 0
10, 99456, Note_on_c, 9, 42, 88
10, 99456, Note_on_c, 9, 70, 72
10, 99456, Note_on_c, 9, 38, 111
10, 99480, Note_on_c, 9, 38, 0
10, 99480, Note_on_c, 9, 70, 0
10, 99480, Note_on_c, 9, 42, 0
10, 99648, Note_on_c, 9, 42, 59
10, 99648, Note_on_c, 9, 70, 51
10, 99672, Note_on_c, 9, 70, 0
10, 99672, Note_on_c, 9, 42, 0
10, 99840, Note_on_c, 9, 36, 109
10, 99840, Note_on_c, 9, 42, 75
10, 99840, Note_on_c, 9, 70, 82
10, 99864, Note_on_c, 9, 70, 0
10, 99864, Note_on_c, 9, 42, 0
10, 99864, Note_on_c, 9, 36, 0
10, 100032, Note_on_c, 9, 42, 62
10, 100032, Note_on_c, 9, 70, 31
10, 100056, Note_on_c, 9, 70, 0
10, 100056, Note_on_c, 9, 42, 0
10, 100224, Note_on_c, 9, 42, 81
10, 100224, Note_on_c, 9, 70, 76
10, 100224, Note_on_c, 9, 38, 116
10, 100248, Note_on_c, 9, 38, 0
10, 100248, Note_on_c, 9, 70, 0
10, 100248, Note_on_c, 9, 42, 0
10, 100416, Note_on_c, 9, 42, 54
10, 100416, Note_on_c, 9, 70, 55
10, 100440, Note_on_c, 9, 70, 0
10, 100440, Note_on_c, 9, 42, 0
10, 100608, Note_on_c, 9, 42, 77
10, 100608, Note_on_c, 9, 70, 66
10, 100632, Note_on_c, 9, 70, 0
10, 100632, Note_on_c, 9, 42, 0
10, 100800, Note_on_c, 9, 36, 106
10, 100800, Note_on_c, 9, 42, 56
10, 100800, Note_on_c, 9, 70, 51
10, 100824, Note_on_c, 9, 70, 0
10, 100824, Note_on_c, 9, 42, 0
10, 100824, Note_on_c, 9, 36, 0
10, 100992, Note_on_c, 9, 42, 88
10, 100992, Note_on_c, 9, 70, 72
10, 100992, Note_on_c, 9, 38, 111
10, 101016, Note_on_c, 9, 38, 0
10, 101016, Note_on_c, 9, 70, 0
10, 101016, Note_on_c, 9, 42, 0
10, 101184, Note_on_c, 9, 42, 59
10, 101184, Note_on_c, 9, 70, 51
10, 101208, Note_on_c, 9, 70, 0
10, 101208, Note_on_c, 9, 42, 0
10, 101376, Note_on_c, 9, 36, 109
10, 101376, Note_on_c, 9, 42, 75
10, 101376, Note_on_c, 9, 70, 82
10, 101400, Note_on_c, 9, 70, 0
10, 101400, Note_on_c, 9, 42, 0
10, 101400, Note_on_c, 9, 36, 0
10, 101568, Note_on_c, 9, 42, 62
10, 101568, Note_on_c, 9, 70, 31
10, 101592, Note_on_c, 9, 70, 0
10, 101592, Note_on_c, 9, 42, 0
10, 101760, Note_on_c, 9, 42, 81
10, 101760, Note_on_c, 9, 70, 76
10, 101760, Note_on_c, 9, 38, 116
10, 101784, Note_on_c, 9, 38, 0
10, 101784, Note_on_c, 9, 70, 0
10, 101784, Note_on_c, 9, 42, 0
10, 101952, Note_on_c, 9, 42, 54
10, 101952, Note_on_c, 9, 70, 55
10, 101976, Note_on_c, 9, 70, 0
10, 101976, Note_on_c, 9, 42, 0
10, 102144, Note_on_c, 9, 42, 77
10, 102144, Note_on_c, 9, 70, 66
10, 102168, Note_on_c, 9, 70, 0
10, 102168, Note_on_c, 9, 42, 0
10, 102336, Note_on_c, 9, 36, 106
10, 102336, Note_on_c, 9, 42, 56
10, 102336, Note_on_c, 9, 70, 51
10, 102360, Note_on_c, 9, 70, 0
10, 102360, Note_on_c, 9, 42, 0
10, 102360, Note_on_c, 9, 36, 0
10, 102528, Note_on_c, 9, 42, 88
10, 102528, Note_on_c, 9, 70, 72
10, 102528, Note_on_c, 9, 38, 111
10, 102552, Note_on_c, 9, 38, 0
10, 102552, Note_on_c, 9, 70, 0
10, 102552, Note_on_c, 9, 42, 0
10, 102720, Note_on_c, 9, 42, 59
10, 102720, Note_on_c, 9, 70, 51
10, 102744, Note_on_c, 9, 70, 0
10, 102744, Note_on_c, 9, 42, 0
10, 102912, Note_on_c, 9, 36, 109
10, 102912, Note_on_c, 9, 42, 75
10, 102912, Note_on_c, 9, 70, 82
10, 102936, Note_on_c, 9, 70, 0
10, 102936, Note_on_c, 9, 42, 0
10, 102936, Note_on_c, 9, 36, 0
10, 103104, Note_on_c, 9, 42, 62
10, 103104, Note_on_c, 9, 70, 31
10, 103128, Note_on_c, 9, 70, 0
10, 103128, Note_on_c, 9, 42, 0
10, 103296, Note_on_c, 9, 42, 81
10, 103296, Note_on_c, 9, 70, 76
10, 103296, Note_on_c, 9, 38, 116
10, 103320, Note_on_c, 9, 38, 0
10, 103320, Note_on_c, 9, 70, 0
10, 103320, Note_on_c, 9, 42, 0
10, 103488, Note_on_c, 9, 42, 54
10, 103488, Note_on_c, 9, 70, 55
10, 103512, Note_on_c, 9, 70, 0
10, 103512, Note_on_c, 9, 42, 0
10, 103680, Note_on_c, 9, 42, 77
10, 103680, Note_on_c, 9, 70, 66
10, 103704, Note_on_c, 9, 70, 0
10, 103704, Note_on_c, 9, 42, 0
10, 103872, Note_on_c, 9, 36, 106
10, 103872, Note_on_c, 9, 42, 56
10, 103872, Note_on_c, 9, 70, 51
10, 103896, Note_on_c, 9, 70, 0
10, 103896, Note_on_c, 9, 42, 0
10, 103896, Note_on_c, 9, 36, 0
10, 104064, Note_on_c, 9, 42, 88
10, 104064, Note_on_c, 9, 70, 72
10, 104064, Note_on_c, 9, 38, 111
10, 104088, Note_on_c, 9, 38, 0
10, 104088, Note_on_c, 9, 70, 0
10, 104088, Note_on_c, 9, 42, 0
10, 104256, Note_on_c, 9, 42, 59
10, 104256, Note_on_c, 9, 70, 51
10, 104280, Note_on_c, 9, 70, 0
10, 104280, Note_on_c, 9, 42, 0
10, 104448, Note_on_c, 9, 36, 109
10, 104448, Note_on_c, 9, 42, 75
10, 104448, Note_on_c, 9, 70, 82
10, 104472, Note_on_c, 9, 70, 0
10, 104472, Note_on_c, 9, 42, 0
10, 104472, Note_on_c, 9, 36, 0
10, 104640, Note_on_c, 9, 42, 62
10, 104640, Note_on_c, 9, 70, 31
10, 104664, Note_on_c, 9, 70, 0
10, 104664, Note_on_c, 9, 42, 0
10, 104832, Note_on_c, 9, 42, 81
10, 104832, Note_on_c, 9, 70, 76
10, 104832, Note_on_c, 9, 38, 116
10, 104856, Note_on_c, 9, 38, 0
10, 104856, Note_on_c, 9, 70, 0
10, 104856, Note_on_c, 9, 42, 0
10, 105024, Note_on_c, 9, 42, 54
10, 105024, Note_on_c, 9, 70, 55
10, 105048, Note_on_c, 9, 70, 0
10, 105048, Note_on_c, 9, 42, 0
10, 105216, Note_on_c, 9, 42, 77
10, 105216, Note_on_c, 9, 70, 66
10, 105240, Note_on_c, 9, 70, 0
10, 105240, Note_on_c, 9, 42, 0
10, 105408, Note_on_c, 9, 36, 106
10, 105408, Note_on_c, 9, 42, 56
10, 105408, Note_on_c, 9, 70, 51
10, 105432, Note_on_c, 9, 70, 0
10, 105432, Note_on_c, 9, 42, 0
10, 105432, Note_on_c, 9, 36, 0
10, 105600, Note_on_c, 9, 42, 88
10, 105600, Note_on_c, 9, 70, 72
10, 105600, Note_on_c, 9, 38, 111
10, 105624, Note_on_c, 9, 38, 0
10, 105624, Note_on_c, 9, 70, 0
10, 105624, Note_on_c, 9, 42, 0
10, 105792, Note_on_c, 9, 42, 59
10, 105792, Note_on_c, 9, 70, 51
10, 105816, Note_on_c, 9, 70, 0
10, 105816, Note_on_c, 9, 42, 0
10, 105984, Note_on_c, 9, 36, 109
10, 105984, Note_on_c, 9, 42, 75
10, 105984, Note_on_c, 9, 70, 82
10, 106008, Note_on_c, 9, 70, 0
10, 106008, Note_on_c, 9, 42, 0
10, 106008, Note_on_c, 9, 36, 0
10, 106176, Note_on_c, 9, 42, 62
10, 106176, Note_on_c, 9, 70, 31
10, 106200, Note_on_c, 9, 70, 0
10, 106200, Note_on_c, 9, 42, 0
10, 106368, Note_on_c, 9, 42, 81
10, 106368, Note_on_c, 9, 70, 76
10, 106368, Note_on_c, 9, 38, 116
10, 106392, Note_on_c, 9, 38, 0
10, 106392, Note_on_c, 9, 70, 0
10, 106392, Note_on_c, 9, 42, 0
10, 106560, Note_on_c, 9, 42, 54
10, 106560, Note_on_c, 9, 70, 55
10, 106584, Note_on_c, 9, 70, 0
10, 106584, Note_on_c, 9, 42, 0
10, 106752, Note_on_c, 9, 42, 77
10, 106752, Note_on_c, 9, 70, 66
10, 106776, Note_on_c, 9, 70, 0
10, 106776, Note_on_c, 9, 42, 0
10, 106944, Note_on_c, 9, 36, 106
10, 106944, Note_on_c, 9, 42, 56
10, 106944, Note_on_c, 9, 70, 51
10, 106968, Note_on_c, 9, 70, 0
10, 106968, Note_on_c, 9, 42, 0
10, 106968, Note_on_c, 9, 36, 0
10, 107136, Note_on_c, 9, 42, 88
10, 107136, Note_on_c, 9, 70, 72
10, 107136, Note_on_c, 9, 38, 111
10, 107160, Note_on_c, 9, 38, 0
10, 107160, Note_on_c, 9, 70, 0
10, 107160, Note_on_c, 9, 42, 0
10, 107328, Note_on_c, 9, 42, 59
10, 107328, Note_on_c, 9, 70, 51
10, 107352, Note_on_c, 9, 70, 0
10, 107352, Note_on_c, 9, 42, 0
10, 107520, Note_on_c, 9, 36, 109
10, 107520, Note_on_c, 9, 42, 75
10, 107520, Note_on_c, 9, 70, 82
10, 107544, Note_on_c, 9, 70, 0
10, 107544, Note_on_c, 9, 42, 0
10, 107544, Note_on_c, 9, 36, 0
10, 107712, Note_on_c, 9, 42, 62
10, 107712, Note_on_c, 9, 70, 31
10, 107736, Note_on_c, 9, 70, 0
10, 107736, Note_on_c, 9, 42, 0
10, 107904, Note_on_c, 9, 42, 81
10, 107904, Note_on_c, 9, 70, 76
10, 107904, Note_on_c, 9, 38, 116
10, 107928, Note_on_c, 9, 38, 0
10, 107928, Note_on_c, 9, 70, 0
10, 107928, Note_on_c, 9, 42, 0
10, 108096, Note_on_c, 9, 42, 54
10, 108096, Note_on_c, 9, 70, 55
10, 108120, Note_on_c, 9, 70, 0
10, 108120, Note_on_c, 9, 42, 0
10, 108288, Note_on_c, 9, 42, 77
10, 108288, Note_on_c, 9, 70, 66
10, 108312, Note_on_c, 9, 70, 0
10, 108312, Note_on_c, 9, 42, 0
10, 108480, Note_on_c, 9, 36, 106
10, 108480, Note_on_c, 9, 42, 56
10, 108480, Note_on_c, 9, 70, 51
10, 108504, Note_on_c, 9, 70, 0
10, 108504, Note_on_c, 9, 42, 0
10, 108504, Note_on_c, 9, 36, 0
10, 108672, Note_on_c, 9, 42, 88
10, 108672, Note_on_c, 9, 70, 72
10, 108672, Note_on_c, 9, 38, 111
10, 108696, Note_on_c, 9, 38, 0
10, 108696, Note_on_c, 9, 70, 0
10, 108696, Note_on_c, 9, 42, 0
10, 108864, Note_on_c, 9, 42, 59
10, 108864, Note_on_c, 9, 70, 51
10, 108888, Note_on_c, 9, 70, 0
10, 108888, Note_on_c, 9, 42, 0
10, 109056, Note_on_c, 9, 36, 109
10, 109056, Note_on_c, 9, 42, 75
10, 109056, Note_on_c, 9, 70, 82
10, 109080, Note_on_c, 9, 70, 0
10, 109080, Note_on_c, 9, 42, 0
10, 109080, Note_on_c, 9, 36, 0
10, 109248, Note_on_c, 9, 42, 62
10, 109248, Note_on_c, 9, 70, 31
10, 109272, Note_on_c, 9, 70, 0
10, 109272, Note_on_c, 9, 42, 0
10, 109440, Note_on_c, 9, 42, 81
10, 109440, Note_on_c, 9, 70, 76
10, 109440, Note_on_c, 9, 38, 116
10, 109464, Note_on_c, 9, 38, 0
10, 109464, Note_on_c, 9, 70, 0
10, 109464, Note_on_c, 9, 42, 0
10, 109632, Note_on_c, 9, 42, 54
10, 109632, Note_on_c, 9, 70, 55
10, 109656, Note_on_c, 9, 70, 0
10, 109656, Note_on_c, 9, 42, 0
10, 109824, Note_on_c, 9, 42, 77
10, 109824, Note_on_c, 9, 70, 66
10, 109848, Note_on_c, 9, 70, 0
10, 109848, Note_on_c, 9, 42, 0
10, 110016, Note_on_c, 9, 36, 106
10, 110016, Note_on_c, 9, 42, 56
10, 110016, Note_on_c, 9, 70, 51
10, 110040, Note_on_c, 9, 70, 0
10, 110040, Note_on_c, 9, 42, 0
10, 110040, Note_on_c, 9, 36, 0
10, 110208, Note_on_c, 9, 42, 88
10, 110208, Note_on_c, 9, 70, 72
10, 110208, Note_on_c, 9, 38, 111
10, 110232, Note_on_c, 9, 38, 0
10, 110232, Note_on_c, 9, 70, 0
10, 110232, Note_on_c, 9, 42, 0
10, 110400, Note_on_c, 9, 42, 59
10, 110400, Note_on_c, 9, 70, 51
10, 110424, Note_on_c, 9, 70, 0
10, 110424, Note_on_c, 9, 42, 0
10, 110592, Note_on_c, 9, 36, 109
10, 110592, Note_on_c, 9, 42, 75
10, 110592, Note_on_c, 9, 70, 82
10, 110616, Note_on_c, 9, 70, 0
10, 110616, Note_on_c, 9, 42, 0
10, 110616, Note_on_c, 9, 36, 0
10, 110784, Note_on_c, 9, 42, 62
10, 110784, Note_on_c, 9, 70, 31
10, 110808, Note_on_c, 9, 70, 0
10, 110808, Note_on_c, 9, 42, 0
10, 110976, Note_on_c, 9, 42, 81
10, 110976, Note_on_c, 9, 70, 76
10, 110976, Note_on_c, 9, 38, 116
10, 111000, Note_on_c, 9, 38, 0
10, 111000, Note_on_c, 9, 70, 0
10, 111000, Note_on_c, 9, 42, 0
10, 111168, Note_on_c, 9, 42, 54
10, 111168, Note_on_c, 9, 70, 55
10, 111192, Note_on_c, 9, 70, 0
10, 111192, Note_on_c, 9, 42, 0
10, 111360, Note_on_c, 9, 42, 77
10, 111360, Note_on_c, 9, 70, 66
10, 111384, Note_on_c, 9, 70, 0
10, 111384, Note_on_c, 9, 42, 0
10, 111552, Note_on_c, 9, 36, 106
10, 111552, Note_on_c, 9, 42, 56
10, 111552, Note_on_c, 9, 70, 51
10, 111576, Note_on_c, 9, 70, 0
10, 111576, Note_on_c, 9, 42, 0
10, 111576, Note_on_c, 9, 36, 0
10, 111744, Note_on_c, 9, 42, 88
10, 111744, Note_on_c, 9, 70, 72
10, 111744, Note_on_c, 9, 38, 111
10, 111768, Note_on_c, 9, 38, 0
10, 111768, Note_on_c, 9, 70, 0
10, 111768, Note_on_c, 9, 42, 0
10, 111936, Note_on_c, 9, 42, 59
10, 111936, Note_on_c, 9, 70, 51
10, 111960, Note_on_c, 9, 70, 0
10, 111960, Note_on_c, 9, 42, 0
10, 112128, Note_on_c, 9, 36, 109
10, 112128, Note_on_c, 9, 42, 75
10, 112128, Note_on_c, 9, 70, 82
10, 112152, Note_on_c, 9, 70, 0
10, 112152, Note_on_c, 9, 42, 0
10, 112152, Note_on_c, 9, 36, 0
10, 112320, Note_on_c, 9, 42, 62
10, 112320, Note_on_c, 9, 70, 31
10, 112344, Note_on_c, 9, 70, 0
10, 112344, Note_on_c, 9, 42, 0
10, 112512, Note_on_c, 9, 42, 81
10, 112512, Note_on_c, 9, 70, 76
10, 112512, Note_on_c, 9, 38, 116
10, 112536, Note_on_c, 9, 38, 0
10, 112536, Note_on_c, 9, 70, 0
10, 112536, Note_on_c, 9, 42, 0
10, 112704, Note_on_c, 9, 42, 54
10, 112704, Note_on_c, 9, 70, 55
10, 112728, Note_on_c, 9, 70, 0
10, 112728, Note_on_c, 9, 42, 0
10, 112896, Note_on_c, 9, 42, 77
10, 112896, Note_on_c, 9, 70, 66
10, 112920, Note_on_c, 9, 70, 0
10, 112920, Note_on_c, 9, 42, 0
10, 113088, Note_on_c, 9, 36, 106
10, 113088, Note_on_c, 9, 42, 56
10, 113088, Note_on_c, 9, 70, 51
10, 113112, Note_on_c, 9, 70, 0
10, 113112, Note_on_c, 9, 42, 0
10, 113112, Note_on_c, 9, 36, 0
10, 113280, Note_on_c, 9, 42, 88
10, 113280, Note_on_c, 9, 70, 72
10, 113280, Note_on_c, 9, 38, 111
10, 113304, Note_on_c, 9, 38, 0
10, 113304, Note_on_c, 9, 70, 0
10, 113304, Note_on_c, 9, 42, 0
10, 113472, Note_on_c, 9, 42, 59
10, 113472, Note_on_c, 9, 70, 51
10, 113496, Note_on_c, 9, 70, 0
10, 113496, Note_on_c, 9, 42, 0
10, 113664, Note_on_c, 9, 36, 109
10, 113664, Note_on_c, 9, 42, 75
10, 113664, Note_on_c, 9, 70, 82
10, 113688, Note_on_c, 9, 70, 0
10, 113688, Note_on_c, 9, 42, 0
10, 113688, Note_on_c, 9, 36, 0
10, 113856, Note_on_c, 9, 42, 62
10, 113856, Note_on_c, 9, 70, 31
10, 113880, Note_on_c, 9, 70, 0
10, 113880, Note_on_c, 9, 42, 0
10, 114048, Note_on_c, 9, 42, 81
10, 114048, Note_on_c, 9, 70, 76
10, 114048, Note_on_c, 9, 38, 116
10, 114072, Note_on_c, 9, 38, 0
10, 114072, Note_on_c, 9, 70, 0
10, 114072, Note_on_c, 9, 42, 0
10, 114240, Note_on_c, 9, 42, 54
10, 114240, Note_on_c, 9, 70, 55
10, 114264, Note_on_c, 9, 70, 0
10, 114264, Note_on_c, 9, 42, 0
10, 114432, Note_on_c, 9, 42, 77
10, 114432, Note_on_c, 9, 70, 66
10, 114456, Note_on_c, 9, 70, 0
10, 114456, Note_on_c, 9, 42, 0
10, 114624, Note_on_c, 9, 36, 106
10, 114624, Note_on_c, 9, 42, 56
10, 114624, Note_on_c, 9, 70, 51
10, 114648, Note_on_c, 9, 70, 0
10, 114648, Note_on_c, 9, 42, 0
10, 114648, Note_on_c, 9, 36, 0
10, 114816, Note_on_c, 9, 42, 88
10, 114816, Note_on_c, 9, 70, 72
10, 114816, Note_on_c, 9, 38, 111
10, 114840, Note_on_c, 9, 38, 0
10, 114840, Note_on_c, 9, 70, 0
10, 114840, Note_on_c, 9, 42, 0
10, 115008, Note_on_c, 9, 42, 59
10, 115008, Note_on_c, 9, 70, 51
10, 115032, Note_on_c, 9, 70, 0
10, 115032, Note_on_c, 9, 42, 0
10, 115200, Note_on_c, 9, 36, 109
10, 115200, Note_on_c, 9, 42, 75
10, 115200, Note_on_c, 9, 70, 82
10, 115224, Note_on_c, 9, 70, 0
10, 115224, Note_on_c, 9, 42, 0
10, 115224, Note_on_c, 9, 36, 0
10, 115392, Note_on_c, 9, 42, 62
10, 115392, Note_on_c, 9, 70, 31
10, 115416, Note_on_c, 9, 70, 0
10, 115416, Note_on_c, 9, 42, 0
10, 115584, Note_on_c, 9, 42, 81
10, 115584, Note_on_c, 9, 70, 76
10, 115584, Note_on_c, 9, 38, 116
10, 115608, Note_on_c, 9, 38, 0
10, 115608, Note_on_c, 9, 70, 0
10, 115608, Note_on_c, 9, 42, 0
10, 115776, Note_on_c, 9, 42, 54
10, 115776, Note_on_c, 9, 70, 55
10, 115800, Note_on_c, 9, 70, 0
10, 115800, Note_on_c, 9, 42, 0
10, 115968, Note_on_c, 9, 42, 77
10, 115968, Note_on_c, 9, 70, 66
10, 115992, Note_on_c, 9, 70, 0
10, 115992, Note_on_c, 9, 42, 0
10, 116160, Note_on_c, 9, 36, 106
10, 116160, Note_on_c, 9, 42, 56
10, 116160, Note_on_c, 9, 70, 51
10, 116184, Note_on_c, 9, 70, 0
10, 116184, Note_on_c, 9, 42, 0
10, 116184, Note_on_c, 9, 36, 0
10, 116352, Note_on_c, 9, 42, 88
10, 116352, Note_on_c, 9, 70, 72
10, 116352, Note_on_c, 9, 38, 111
10, 116376, Note_on_c, 9, 38, 0
10, 116376, Note_on_c, 9, 70, 0
10, 116376, Note_on_c, 9, 42, 0
10, 116544, Note_on_c, 9, 42, 59
10, 116544, Note_on_c, 9, 70, 51
10, 116568, Note_on_c, 9, 70, 0
10, 116568, Note_on_c, 9, 42, 0
10, 116736, Note_on_c, 9, 36, 109
10, 116736, Note_on_c, 9, 42, 75
10, 116736, Note_on_c, 9, 70, 82
10, 116760, Note_on_c, 9, 70, 0
10, 116760, Note_on_c, 9, 42, 0
10, 116760, Note_on_c, 9, 36, 0
10, 116928, Note_on_c, 9, 42, 62
10, 116928, Note_on_c, 9, 70, 31
10, 116952, Note_on_c, 9, 70, 0
10, 116952, Note_on_c, 9, 42, 0
10, 117120, Note_on_c, 9, 42, 81
10, 117120, Note_on_c, 9, 70, 76
10, 117120, Note_on_c, 9, 38, 116
10, 117144, Note_on_c, 9, 38, 0
10, 117144, Note_on_c, 9, 70, 0
10, 117144, Note_on_c, 9, 42, 0
10, 117312, Note_on_c, 9, 42, 54
10, 117312, Note_on_c, 9, 70, 55
10, 117336, Note_on_c, 9, 70, 0
10, 117336, Note_on_c, 9, 42, 0
10, 117504, Note_on_c, 9, 42, 77
10, 117504, Note_on_c, 9, 70, 66
10, 117528, Note_on_c, 9, 70, 0
10, 117528, Note_on_c, 9, 42, 0
10, 117696, Note_on_c, 9, 36, 106
10, 117696, Note_on_c, 9, 42, 56
10, 117696, Note_on_c, 9, 70, 51
10, 117720, Note_on_c, 9, 70, 0
10, 117720, Note_on_c, 9, 42, 0
10, 117720, Note_on_c, 9, 36, 0
10, 117888, Note_on_c, 9, 42, 88
10, 117888, Note_on_c, 9, 70, 72
10, 117888, Note_on_c, 9, 38, 111
10, 117912, Note_on_c, 9, 38, 0
10, 117912, Note_on_c, 9, 70, 0
10, 117912, Note_on_c, 9, 42, 0
10, 118080, Note_on_c, 9, 42, 59
10, 118080, Note_on_c, 9, 70, 51
10, 118104, Note_on_c, 9, 70, 0
10, 118104, Note_on_c, 9, 42, 0
10, 118272, Note_on_c, 9, 36, 109
10, 118272, Note_on_c, 9, 42, 75
10, 118272, Note_on_c, 9, 70, 82
10, 118296, Note_on_c, 9, 70, 0
10, 118296, Note_on_c, 9, 42, 0
10, 118296, Note_on_c, 9, 36, 0
10, 118464, Note_on_c, 9, 42, 62
10, 118464, Note_on_c, 9, 70, 31
10, 118488, Note_on_c, 9, 70, 0
10, 118488, Note_on_c, 9, 42, 0
10, 118656, Note_on_c, 9, 42, 81
10, 118656, Note_on_c, 9, 70, 76
10, 118656, Note_on_c, 9, 38, 116
10, 118680, Note_on_c, 9, 38, 0
10, 118680, Note_on_c, 9, 70, 0
10, 118680, Note_on_c, 9, 42, 0
10, 118848, Note_on_c, 9, 42, 54
10, 118848, Note_on_c, 9, 70, 55
10, 118872, Note_on_c, 9, 70, 0
10, 118872, Note_on_c, 9, 42, 0
10, 119040, Note_on_c, 9, 42, 77
10, 119040, Note_on_c, 9, 70, 66
10, 119064, Note_on_c, 9, 70, 0
10, 119064, Note_on_c, 9, 42, 0
10, 119232, Note_on_c, 9, 36, 106
10, 119232, Note_on_c, 9, 42, 56
10, 119232, Note_on_c, 9, 70, 51
10, 119256, Note_on_c, 9, 70, 0
10, 119256, Note_on_c, 9, 42, 0
10, 119256, Note_on_c, 9, 36, 0
10, 119424, Note_on_c, 9, 42, 88
10, 119424, Note_on_c, 9, 70, 72
10, 119424, Note_on_c, 9, 38, 111
10, 119448, Note_on_c, 9, 38, 0
10, 119448, Note_on_c, 9, 70, 0
10, 119448, Note_on_c, 9, 42, 0
10, 119616, Note_on_c, 9, 42, 59
10, 119616, Note_on_c, 9, 70, 51
10, 119640, Note_on_c, 9, 70, 0
10, 119640, Note_on_c, 9, 42, 0
10, 119800, Note_on_c, 9, 49, 70
10, 119808, Note_on_c, 9, 36, 109
10, 119808, Note_on_c, 9, 42, 75
10, 119808, Note_on_c, 9, 70, 85
10, 119824, Note_on_c, 9, 49, 0
10, 119832, Note_on_c, 9, 36, 0
10, 119832, Note_on_c, 9, 42, 0
10, 119832, Note_on_c, 9, 70, 0
10, 120000, Note_on_c, 9, 42, 62
10, 120000, Note_on_c, 9, 70, 64
10, 120024, Note_on_c, 9, 70, 0
10, 120024, Note_on_c, 9, 42, 0
10, 120192, Note_on_c, 9, 42, 81
10, 120192, Note_on_c, 9, 70, 82
10, 120192, Note_on_c, 9, 38, 116
10, 120216, Note_on_c, 9, 38, 0
10, 120216, Note_on_c, 9, 70, 0
10, 120216, Note_on_c, 9, 42, 0
10, 120384, Note_on_c, 9, 42, 54
10, 120384, Note_on_c, 9, 70, 60
10, 120408, Note_on_c, 9, 70, 0
10, 120408, Note_on_c, 9, 42, 0
10, 120576, Note_on_c, 9, 42, 77
10, 120576, Note_on_c, 9, 70, 79
10, 120600, Note_on_c, 9, 70, 0
10, 120600, Note_on_c, 9, 42, 0
10, 120768, Note_on_c, 9, 36, 106
10, 120768, Note_on_c, 9, 42, 56
10, 120768, Note_on_c, 9, 70, 60
10, 120792, Note_on_c, 9, 70, 0
10, 120792, Note_on_c, 9, 42, 0
10, 120792, Note_on_c, 9, 36, 0
10, 120960, Note_on_c, 9, 42, 88
10, 120960, Note_on_c, 9, 70, 79
10, 120960, Note_on_c, 9, 38, 111
10, 120984, Note_on_c, 9, 38, 0
10, 120984, Note_on_c, 9, 70, 0
10, 120984, Note_on_c, 9, 42, 0
10, 121152, Note_on_c, 9, 42, 59
10, 121152, Note_on_c, 9, 70, 64
10, 121176, Note_on_c, 9, 70, 0
10, 121176, Note_on_c, 9, 42, 0
10, 121344, Note_on_c, 9, 36, 114
10, 121344, Note_on_c, 9, 42, 85
10, 121344, Note_on_c, 9, 70, 82
10, 121368, Note_on_c, 9, 70, 0
10, 121368, Note_on_c, 9, 42, 0
10, 121368, Note_on_c, 9, 36, 0
10, 121536, Note_on_c, 9, 42, 54
10, 121536, Note_on_c, 9, 70, 57
10, 121560, Note_on_c, 9, 70, 0
10, 121560, Note_on_c, 9, 42, 0
10, 121728, Note_on_c, 9, 42, 88
10, 121728, Note_on_c, 9, 70, 82
10, 121728, Note_on_c, 9, 38, 116
10, 121752, Note_on_c, 9, 38, 0
10, 121752, Note_on_c, 9, 70, 0
10, 121752, Note_on_c, 9, 42, 0
10, 121920, Note_on_c, 9, 42, 59
10, 121920, Note_on_c, 9, 70, 69
10, 121944, Note_on_c, 9, 70, 0
10, 121944, Note_on_c, 9, 42, 0
10, 122112, Note_on_c, 9, 36, 91
10, 122112, Note_on_c, 9, 42, 66
10, 122112, Note_on_c, 9, 70, 79
10, 122136, Note_on_c, 9, 70, 0
10, 122136, Note_on_c, 9, 42, 0
10, 122136, Note_on_c, 9, 36, 0
10, 122304, Note_on_c, 9, 36, 103
10, 122304, Note_on_c, 9, 42, 81
10, 122304, Note_on_c, 9, 70, 72
10, 122328, Note_on_c, 9, 70, 0
10, 122328, Note_on_c, 9, 42, 0
10, 122328, Note_on_c, 9, 36, 0
10, 122496, Note_on_c, 9, 42, 94
10, 122496, Note_on_c, 9, 70, 82
10, 122496, Note_on_c, 9, 38, 108
10, 122520, Note_on_c, 9, 38, 0
10, 122520, Note_on_c, 9, 70, 0
10, 122520, Note_on_c, 9, 42, 0
10, 122688, Note_on_c, 9, 42, 69
10, 122688, Note_on_c, 9, 70, 69
10, 122712, Note_on_c, 9, 70, 0
10, 122712, Note_on_c, 9, 42, 0
10, 122880, Note_on_c, 9, 36, 109
10, 122880, Note_on_c, 9, 42, 85
10, 122880, Note_on_c, 9, 70, 82
10, 122904, Note_on_c, 9, 70, 0
10, 122904, Note_on_c, 9, 42, 0
10, 122904, Note_on_c, 9, 36, 0
10, 123072, Note_on_c, 9, 42, 62
10, 123072, Note_on_c, 9, 70, 66
10, 123096, Note_on_c, 9, 70, 0
10, 123096, Note_on_c, 9, 42, 0
10, 123264, Note_on_c, 9, 42, 92
10, 123264, Note_on_c, 9, 70, 82
10, 123264, Note_on_c, 9, 38, 108
10, 123288, Note_on_c, 9, 38, 0
10, 123288, Note_on_c, 9, 70, 0
10, 123288, Note_on_c, 9, 42, 0
10, 123456, Note_on_c, 9, 42, 56
10, 123456, Note_on_c, 9, 70, 58
10, 123480, Note_on_c, 9, 70, 0
10, 123480, Note_on_c, 9, 42, 0
10, 123648, Note_on_c, 9, 42, 72
10, 123648, Note_on_c, 9, 70, 85
10, 123672, Note_on_c, 9, 70, 0
10, 123672, Note_on_c, 9, 42, 0
10, 123840, Note_on_c, 9, 36, 114
10, 123840, Note_on_c, 9, 42, 85
10, 123840, Note_on_c, 9, 70, 69
10, 123864, Note_on_c, 9, 70, 0
10, 123864, Note_on_c, 9, 42, 0
10, 123864, Note_on_c, 9, 36, 0
10, 124032, Note_on_c, 9, 42, 92
10, 124032, Note_on_c, 9, 70, 85
10, 124032, Note_on_c, 9, 38, 111
10, 124056, Note_on_c, 9, 38, 0
10, 124056, Note_on_c, 9, 70, 0
10, 124056, Note_on_c, 9, 42, 0
10, 124224, Note_on_c, 9, 42, 69
10, 124224, Note_on_c, 9, 70, 64
10, 124248, Note_on_c, 9, 70, 0
10, 124248, Note_on_c, 9, 42, 0
10, 124416, Note_on_c, 9, 36, 106
10, 124416, Note_on_c, 9, 42, 92
10, 124416, Note_on_c, 9, 70, 82
10, 124440, Note_on_c, 9, 70, 0
10, 124440, Note_on_c, 9, 42, 0
10, 124440, Note_on_c, 9, 36, 0
10, 124608, Note_on_c, 9, 42, 54
10, 124608, Note_on_c, 9, 70, 60
10, 124632, Note_on_c, 9, 70, 0
10, 124632, Note_on_c, 9, 42, 0
10, 124800, Note_on_c, 9, 42, 92
10, 124800, Note_on_c, 9, 70, 82
10, 124800, Note_on_c, 9, 38, 108
10, 124824, Note_on_c, 9, 38, 0
10, 124824, Note_on_c, 9, 70, 0
10, 124824, Note_on_c, 9, 42, 0
10, 124992, Note_on_c, 9, 42, 72
10, 124992, Note_on_c, 9, 70, 69
10, 125016, Note_on_c, 9, 70, 0
10, 125016, Note_on_c, 9, 42, 0
10, 125184, Note_on_c, 9, 36, 98
10, 125184, Note_on_c, 9, 42, 85
10, 125184, Note_on_c, 9, 70, 76
10, 125208, Note_on_c, 9, 70, 0
10, 125208, Note_on_c, 9, 42, 0
10, 125208, Note_on_c, 9, 36, 0
10, 125376, Note_on_c, 9, 36, 106
10, 125376, Note_on_c, 9, 42, 75
10, 125376, Note_on_c, 9, 70, 69
10, 125400, Note_on_c, 9, 70, 0
10, 125400, Note_on_c, 9, 42, 0
10, 125400, Note_on_c, 9, 36, 0
10, 125568, Note_on_c, 9, 42, 88
10, 125568, Note_on_c, 9, 70, 85
10, 125568, Note_on_c, 9, 38, 113
10, 125592, Note_on_c, 9, 38, 0
10, 125592, Note_on_c, 9, 70, 0
10, 125592, Note_on_c, 9, 42, 0
10, 125760, Note_on_c, 9, 42, 72
10, 125760, Note_on_c, 9, 70, 66
10, 125784, Note_on_c, 9, 70, 0
10, 125784, Note_on_c, 9, 42, 0
10, 125952, Note_on_c, 9, 36, 109
10, 125952, Note_on_c, 9, 42, 88
10, 125952, Note_on_c, 9, 70, 82
10, 125976, Note_on_c, 9, 70, 0
10, 125976, Note_on_c, 9, 42, 0
10, 125976, Note_on_c, 9, 36, 0
10, 126144, Note_on_c, 9, 42, 56
10, 126144, Note_on_c, 9, 70, 64
10, 126168, Note_on_c, 9, 70, 0
10, 126168, Note_on_c, 9, 42, 0
10, 126336, Note_on_c, 9, 42, 94
10, 126336, Note_on_c, 9, 70, 82
10, 126336, Note_on_c, 9, 38, 111
10, 126360, Note_on_c, 9, 38, 0
10, 126360, Note_on_c, 9, 70, 0
10, 126360, Note_on_c, 9, 42, 0
10, 126528, Note_on_c, 9, 42, 52
10, 126528, Note_on_c, 9, 70, 60
10, 126552, Note_on_c, 9, 70, 0
10, 126552, Note_on_c, 9, 42, 0
10, 126720, Note_on_c, 9, 42, 77
10, 126720, Note_on_c, 9, 70, 82
10, 126744, Note_on_c, 9, 70, 0
10, 126744, Note_on_c, 9, 42, 0
10, 126912, Note_on_c, 9, 36, 114
10, 126912, Note_on_c, 9, 42, 88
10, 126912, Note_on_c, 9, 70, 66
10, 126936, Note_on_c, 9, 70, 0
10, 126936, Note_on_c, 9, 42, 0
10, 126936, Note_on_c, 9, 36, 0
10, 127104, Note_on_c, 9, 42, 88
10, 127104, Note_on_c, 9, 70, 85
10, 127104, Note_on_c, 9, 38, 108
10, 127128, Note_on_c, 9, 38, 0
10, 127128, Note_on_c, 9, 70, 0
10, 127128, Note_on_c, 9, 42, 0
10, 127296, Note_on_c, 9, 42, 72
10, 127296, Note_on_c, 9, 70, 62
10, 127320, Note_on_c, 9, 70, 0
10, 127320, Note_on_c, 9, 42, 0
10, 127488, Note_on_c, 9, 36, 114
10, 127488, Note_on_c, 9, 42, 88
10, 127488, Note_on_c, 9, 70, 85
10, 127512, Note_on_c, 9, 70, 0
10, 127512, Note_on_c, 9, 42, 0
10, 127512, Note_on_c, 9, 36, 0
10, 127680, Note_on_c, 9, 42, 69
10, 127680, Note_on_c, 9, 70, 51
10, 127704, Note_on_c, 9, 70, 0
10, 127704, Note_on_c, 9, 42, 0
10, 127872, Note_on_c, 9, 42, 92
10, 127872, Note_on_c, 9, 70, 85
10, 127872, Note_on_c, 9, 38, 111
10, 127896, Note_on_c, 9, 38, 0
10, 127896, Note_on_c, 9, 70, 0
10, 127896, Note_on_c, 9, 42, 0
10, 128064, Note_on_c, 9, 42, 64
10, 128064, Note_on_c, 9, 70, 64
10, 128088, Note_on_c, 9, 70, 0
10, 128088, Note_on_c, 9, 42, 0
10, 128256, Note_on_c, 9, 36, 93
10, 128256, Note_on_c, 9, 42, 85
10, 128256, Note_on_c, 9, 70, 79
10, 128280, Note_on_c, 9, 70, 0
10, 128280, Note_on_c, 9, 42, 0
10, 128280, Note_on_c, 9, 36, 0
10, 128448, Note_on_c, 9, 36, 109
10, 128448, Note_on_c, 9, 42, 77
10, 128448, Note_on_c, 9, 70, 69
10, 128472, Note_on_c, 9, 70, 0
10, 128472, Note_on_c, 9, 42, 0
10, 128472, Note_on_c, 9, 36, 0
10, 128640, Note_on_c, 9, 42, 88
10, 128640, Note_on_c, 9, 70, 82
10, 128640, Note_on_c, 9, 38, 111
10, 128664, Note_on_c, 9, 38, 0
10, 128664, Note_on_c, 9, 70, 0
10, 128664, Note_on_c, 9, 42, 0
10, 128832, Note_on_c, 9, 42, 75
10, 128832, Note_on_c, 9, 70, 58
10, 128856, Note_on_c, 9, 70, 0
10, 128856, Note_on_c, 9, 42, 0
10, 129024, Note_on_c, 9, 36, 109
10, 129024, Note_on_c, 9, 42, 88
10, 129024, Note_on_c, 9, 70, 87
10, 129048, Note_on_c, 9, 70, 0
10, 129048, Note_on_c, 9, 42, 0
10, 129048, Note_on_c, 9, 36, 0
10, 129216, Note_on_c, 9, 42, 69
10, 129216, Note_on_c, 9, 70, 64
10, 129240, Note_on_c, 9, 70, 0
10, 129240, Note_on_c, 9, 42, 0
10, 129408, Note_on_c, 9, 42, 92
10, 129408, Note_on_c, 9, 70, 87
10, 129408, Note_on_c, 9, 38, 106
10, 129432, Note_on_c, 9, 38, 0
10, 129432, Note_on_c, 9, 70, 0
10, 129432, Note_on_c, 9, 42, 0
10, 129600, Note_on_c, 9, 42, 77
10, 129600, Note_on_c, 9, 70, 62
10, 129624, Note_on_c, 9, 70, 0
10, 129624, Note_on_c, 9, 42, 0
10, 129792, Note_on_c, 9, 42, 77
10, 129792, Note_on_c, 9, 70, 82
10, 129816, Note_on_c, 9, 70, 0
10, 129816, Note_on_c, 9, 42, 0
10, 129984, Note_on_c, 9, 36, 106
10, 129984, Note_on_c, 9, 42, 92
10, 129984, Note_on_c, 9, 70, 58
10, 130008, Note_on_c, 9, 70, 0
10, 130008, Note_on_c, 9, 42, 0
10, 130008, Note_on_c, 9, 36, 0
10, 130176, Note_on_c, 9, 42, 88
10, 130176, Note_on_c, 9, 70, 82
10, 130176, Note_on_c, 9, 38, 106
10, 130200, Note_on_c, 9, 38, 0
10, 130200, Note_on_c, 9, 70, 0
10, 130200, Note_on_c, 9, 42, 0
10, 130368, Note_on_c, 9, 42, 75
10, 130368, Note_on_c, 9, 70, 58
10, 130392, Note_on_c, 9, 70, 0
10, 130392, Note_on_c, 9, 42, 0
10, 130560, Note_on_c, 9, 36, 103
10, 130560, Note_on_c, 9, 42, 88
10, 130560, Note_on_c, 9, 70, 85
10, 130584, Note_on_c, 9, 70, 0
10, 130584, Note_on_c, 9, 42, 0
10, 130584, Note_on_c, 9, 36, 0
10, 130752, Note_on_c, 9, 42, 69
10, 130752, Note_on_c, 9, 70, 66
10, 130776, Note_on_c, 9, 70, 0
10, 130776, Note_on_c, 9, 42, 0
10, 130944, Note_on_c, 9, 42, 88
10, 130944, Note_on_c, 9, 70, 82
10, 130960, Note_on_c, 9, 38, 111
10, 130968, Note_on_c, 9, 70, 0
10, 130968, Note_on_c, 9, 42, 0
10, 130984, Note_on_c, 9, 38, 0
10, 131136, Note_on_c, 9, 42, 75
10, 131136, Note_on_c, 9, 70, 64
10, 131160, Note_on_c, 9, 70, 0
10, 131160, Note_on_c, 9, 42, 0
10, 131328, Note_on_c, 9, 36, 98
10, 131328, Note_on_c, 9, 42, 88
10, 131328, Note_on_c, 9, 70, 87
10, 131344, Note_on_c, 9, 38, 125
10, 131352, Note_on_c, 9, 70, 0
10, 131352, Note_on_c, 9, 36, 0
10, 131352, Note_on_c, 9, 42, 0
10, 131368, Note_on_c, 9, 38, 0
10, 131520, Note_on_c, 9, 36, 103
10, 131520, Note_on_c, 9, 42, 81
10, 131520, Note_on_c, 9, 70, 66
10, 131544, Note_on_c, 9, 70, 0
10, 131544, Note_on_c, 9, 42, 0
10, 131544, Note_on_c, 9, 36, 0
10, 131712, Note_on_c, 9, 42, 94
10, 131712, Note_on_c, 9, 70, 87
10, 131712, Note_on_c, 9, 38, 122
10, 131736, Note_on_c, 9, 38, 0
10, 131736, Note_on_c, 9, 70, 0
10, 131736, Note_on_c, 9, 42, 0
10, 131904, Note_on_c, 9, 70, 66
10, 131928, Note_on_c, 9, 70, 0
10, 132096, Note_on_c, 9, 36, 109
10, 132096, Note_on_c, 9, 42, 75
10, 132096, Note_on_c, 9, 70, 85
10, 132100, Note_on_c, 9, 38, 125
10, 132120, Note_on_c, 9, 70, 0
10, 132120, Note_on_c, 9, 36, 0
10, 132120, Note_on_c, 9, 42, 0
10, 132124, Note_on_c, 9, 38, 0
10, 132288, Note_on_c, 9, 42, 62
10, 132288, Note_on_c, 9, 70, 69
10, 132312, Note_on_c, 9, 70, 0
10, 132312, Note_on_c, 9, 42, 0
10, 132480, Note_on_c, 9, 42, 81
10, 132480, Note_on_c, 9, 70, 91
10, 132492, Note_on_c, 9, 38, 122
10, 132504, Note_on_c, 9, 70, 0
10, 132504, Note_on_c, 9, 42, 0
10, 132516, Note_on_c, 9, 38, 0
10, 132672, Note_on_c, 9, 42, 54
10, 132672, Note_on_c, 9, 70, 64
10, 132696, Note_on_c, 9, 70, 0
10, 132696, Note_on_c, 9, 42, 0
10, 132864, Note_on_c, 9, 42, 77
10, 132864, Note_on_c, 9, 70, 79
10, 132888, Note_on_c, 9, 70, 0
10, 132888, Note_on_c, 9, 42, 0
10, 133056, Note_on_c, 9, 36, 106
10, 133056, Note_on_c, 9, 42, 56
10, 133056, Note_on_c, 9, 70, 69
10, 133080, Note_on_c, 9, 70, 0
10, 133080, Note_on_c, 9, 42, 0
10, 133080, Note_on_c, 9, 36, 0
10, 133248, Note_on_c, 9, 42, 88
10, 133248, Note_on_c, 9, 70, 79
10, 133256, Note_on_c, 9, 38, 119
10, 133272, Note_on_c, 9, 70, 0
10, 133272, Note_on_c, 9, 42, 0
10, 133280, Note_on_c, 9, 38, 0
10, 133440, Note_on_c, 9, 42, 59
10, 133440, Note_on_c, 9, 70, 62
10, 133464, Note_on_c, 9, 70, 0
10, 133464, Note_on_c, 9, 42, 0
10, 133632, Note_on_c, 9, 36, 114
10, 133632, Note_on_c, 9, 42, 85
10, 133632, Note_on_c, 9, 70, 76
10, 133656, Note_on_c, 9, 70, 0
10, 133656, Note_on_c, 9, 42, 0
10, 133656, Note_on_c, 9, 36, 0
10, 133824, Note_on_c, 9, 42, 54
10, 133824, Note_on_c, 9, 70, 62
10, 133848, Note_on_c, 9, 70, 0
10, 133848, Note_on_c, 9, 42, 0
10, 134016, Note_on_c, 9, 42, 88
10, 134016, Note_on_c, 9, 70, 82
10, 134016, Note_on_c, 9, 38, 116
10, 134040, Note_on_c, 9, 38, 0
10, 134040, Note_on_c, 9, 70, 0
10, 134040, Note_on_c, 9, 42, 0
10, 134208, Note_on_c, 9, 42, 59
10, 134208, Note_on_c, 9, 70, 66
10, 134232, Note_on_c, 9, 70, 0
10, 134232, Note_on_c, 9, 42, 0
10, 134400, Note_on_c, 9, 36, 91
10, 134400, Note_on_c, 9, 42, 66
10, 134400, Note_on_c, 9, 70, 85
10, 134424, Note_on_c, 9, 70, 0
10, 134424, Note_on_c, 9, 42, 0
10, 134424, Note_on_c, 9, 36, 0
10, 134592, Note_on_c, 9, 36, 103
10, 134592, Note_on_c, 9, 42, 81
10, 134592, Note_on_c, 9, 70, 64
10, 134616, Note_on_c, 9, 70, 0
10, 134616, Note_on_c, 9, 42, 0
10, 134616, Note_on_c, 9, 36, 0
10, 134784, Note_on_c, 9, 42, 94
10, 134784, Note_on_c, 9, 70, 87
10, 134784, Note_on_c, 9, 38, 108
10, 134808, Note_on_c, 9, 38, 0
10, 134808, Note_on_c, 9, 70, 0
10, 134808, Note_on_c, 9, 42, 0
10, 134976, Note_on_c, 9, 42, 69
10, 134976, Note_on_c, 9, 70, 69
10, 135000, Note_on_c, 9, 70, 0
10, 135000, Note_on_c, 9, 42, 0
10, 135168, Note_on_c, 9, 36, 109
10, 135168, Note_on_c, 9, 42, 85
10, 135168, Note_on_c, 9, 70, 85
10, 135192, Note_on_c, 9, 70, 0
10, 135192, Note_on_c, 9, 42, 0
10, 135192, Note_on_c, 9, 36, 0
10, 135360, Note_on_c, 9, 42, 62
10, 135360, Note_on_c, 9, 70, 69
10, 135384, Note_on_c, 9, 70, 0
10, 135384, Note_on_c, 9, 42, 0
10, 135552, Note_on_c, 9, 42, 92
10, 135552, Note_on_c, 9, 70, 87
10, 135552, Note_on_c, 9, 38, 108
10, 135576, Note_on_c, 9, 38, 0
10, 135576, Note_on_c, 9, 70, 0
10, 135576, Note_on_c, 9, 42, 0
10, 135744, Note_on_c, 9, 42, 56
10, 135744, Note_on_c, 9, 70, 55
10, 135768, Note_on_c, 9, 70, 0
10, 135768, Note_on_c, 9, 42, 0
10, 135936, Note_on_c, 9, 42, 72
10, 135936, Note_on_c, 9, 70, 87
10, 135960, Note_on_c, 9, 70, 0
10, 135960, Note_on_c, 9, 42, 0
10, 136128, Note_on_c, 9, 36, 114
10, 136128, Note_on_c, 9, 42, 85
10, 136128, Note_on_c, 9, 70, 66
10, 136152, Note_on_c, 9, 70, 0
10, 136152, Note_on_c, 9, 42, 0
10, 136152, Note_on_c, 9, 36, 0
10, 136320, Note_on_c, 9, 42, 92
10, 136320, Note_on_c, 9, 70, 91
10, 136320, Note_on_c, 9, 38, 111
10, 136344, Note_on_c, 9, 38, 0
10, 136344, Note_on_c, 9, 70, 0
10, 136344, Note_on_c, 9, 42, 0
10, 136512, Note_on_c, 9, 42, 69
10, 136512, Note_on_c, 9, 70, 57
10, 136536, Note_on_c, 9, 70, 0
10, 136536, Note_on_c, 9, 42, 0
10, 136704, Note_on_c, 9, 36, 106
10, 136704, Note_on_c, 9, 42, 92
10, 136704, Note_on_c, 9, 70, 95
10, 136728, Note_on_c, 9, 70, 0
10, 136728, Note_on_c, 9, 42, 0
10, 136728, Note_on_c, 9, 36, 0
10, 136896, Note_on_c, 9, 42, 54
10, 136896, Note_on_c, 9, 70, 64
10, 136920, Note_on_c, 9, 70, 0
10, 136920, Note_on_c, 9, 42, 0
10, 137088, Note_on_c, 9, 42, 92
10, 137088, Note_on_c, 9, 70, 87
10, 137088, Note_on_c, 9, 38, 108
10, 137112, Note_on_c, 9, 38, 0
10, 137112, Note_on_c, 9, 70, 0
10, 137112, Note_on_c, 9, 42, 0
10, 137280, Note_on_c, 9, 42, 72
10, 137280, Note_on_c, 9, 70, 66
10, 137304, Note_on_c, 9, 70, 0
10, 137304, Note_on_c, 9, 42, 0
10, 137472, Note_on_c, 9, 36, 98
10, 137472, Note_on_c, 9, 42, 85
10, 137472, Note_on_c, 9, 70, 85
10, 137496, Note_on_c, 9, 70, 0
10, 137496, Note_on_c, 9, 42, 0
10, 137496, Note_on_c, 9, 36, 0
10, 137664, Note_on_c, 9, 36, 106
10, 137664, Note_on_c, 9, 42, 75
10, 137664, Note_on_c, 9, 70, 66
10, 137688, Note_on_c, 9, 70, 0
10, 137688, Note_on_c, 9, 42, 0
10, 137688, Note_on_c, 9, 36, 0
10, 137856, Note_on_c, 9, 42, 88
10, 137856, Note_on_c, 9, 70, 95
10, 137856, Note_on_c, 9, 38, 113
10, 137868, Note_on_c, 9, 46, 104
10, 137880, Note_on_c, 9, 38, 0
10, 137880, Note_on_c, 9, 42, 0
10, 137880, Note_on_c, 9, 70, 0
10, 137892, Note_on_c, 9, 46, 0
10, 138048, Note_on_c, 9, 42, 72
10, 138048, Note_on_c, 9, 70, 66
10, 138072, Note_on_c, 9, 70, 0
10, 138072, Note_on_c, 9, 42, 0
10, 138240, Note_on_c, 9, 36, 109
10, 138240, Note_on_c, 9, 42, 88
10, 138240, Note_on_c, 9, 70, 95
10, 138264, Note_on_c, 9, 70, 0
10, 138264, Note_on_c, 9, 42, 0
10, 138264, Note_on_c, 9, 36, 0
10, 138432, Note_on_c, 9, 42, 56
10, 138432, Note_on_c, 9, 70, 66
10, 138456, Note_on_c, 9, 70, 0
10, 138456, Note_on_c, 9, 42, 0
10, 138624, Note_on_c, 9, 42, 94
10, 138624, Note_on_c, 9, 70, 87
10, 138624, Note_on_c, 9, 38, 111
10, 138648, Note_on_c, 9, 38, 0
10, 138648, Note_on_c, 9, 70, 0
10, 138648, Note_on_c, 9, 42, 0
10, 138816, Note_on_c, 9, 42, 52
10, 138816, Note_on_c, 9, 70, 55
10, 138840, Note_on_c, 9, 70, 0
10, 138840, Note_on_c, 9, 42, 0
10, 139008, Note_on_c, 9, 42, 77
10, 139008, Note_on_c, 9, 70, 91
10, 139032, Note_on_c, 9, 70, 0
10, 139032, Note_on_c, 9, 42, 0
10, 139200, Note_on_c, 9, 36, 114
10, 139200, Note_on_c, 9, 42, 88
10, 139200, Note_on_c, 9, 70, 60
10, 139224, Note_on_c, 9, 70, 0
10, 139224, Note_on_c, 9, 42, 0
10, 139224, Note_on_c, 9, 36, 0
10, 139392, Note_on_c, 9, 42, 88
10, 139392, Note_on_c, 9, 70, 87
10, 139392, Note_on_c, 9, 38, 108
10, 139416, Note_on_c, 9, 38, 0
10, 139416, Note_on_c, 9, 70, 0
10, 139416, Note_on_c, 9, 42, 0
10, 139584, Note_on_c, 9, 42, 72
10, 139584, Note_on_c, 9, 70, 64
10, 139608, Note_on_c, 9, 70, 0
10, 139608, Note_on_c, 9, 42, 0
10, 139776, Note_on_c, 9, 36, 114
10, 139776, Note_on_c, 9, 42, 88
10, 139776, Note_on_c, 9, 70, 87
10, 139800, Note_on_c, 9, 70, 0
10, 139800, Note_on_c, 9, 42, 0
10, 139800, Note_on_c, 9, 36, 0
10, 139968, Note_on_c, 9, 42, 69
10, 139968, Note_on_c, 9, 70, 66
10, 139992, Note_on_c, 9, 70, 0
10, 139992, Note_on_c, 9, 42, 0
10, 140160, Note_on_c, 9, 42, 92
10, 140160, Note_on_c, 9, 70, 82
10, 140160, Note_on_c, 9, 38, 111
10, 140184, Note_on_c, 9, 38, 0
10, 140184, Note_on_c, 9, 70, 0
10, 140184, Note_on_c, 9, 42, 0
10, 140352, Note_on_c, 9, 42, 64
10, 140352, Note_on_c, 9, 70, 64
10, 140376, Note_on_c, 9, 70, 0
10, 140376, Note_on_c, 9, 42, 0
10, 140544, Note_on_c, 9, 36, 93
10, 140544, Note_on_c, 9, 42, 85
10, 140544, Note_on_c, 9, 70, 87
10, 140568, Note_on_c, 9, 70, 0
10, 140568, Note_on_c, 9, 42, 0
10, 140568, Note_on_c, 9, 36, 0
10, 140736, Note_on_c, 9, 36, 109
10, 140736, Note_on_c, 9, 42, 77
10, 140736, Note_on_c, 9, 70, 72
10, 140760, Note_on_c, 9, 70, 0
10, 140760, Note_on_c, 9, 42, 0
10, 140760, Note_on_c, 9, 36, 0
10, 140928, Note_on_c, 9, 42, 88
10, 140928, Note_on_c, 9, 70, 85
10, 140928, Note_on_c, 9, 38, 111
10, 140952, Note_on_c, 9, 38, 0
10, 140952, Note_on_c, 9, 70, 0
10, 140952, Note_on_c, 9, 42, 0
10, 141120, Note_on_c, 9, 42, 75
10, 141120, Note_on_c, 9, 70, 64
10, 141144, Note_on_c, 9, 70, 0
10, 141144, Note_on_c, 9, 42, 0
10, 141312, Note_on_c, 9, 36, 109
10, 141312, Note_on_c, 9, 42, 88
10, 141312, Note_on_c, 9, 70, 87
10, 141336, Note_on_c, 9, 70, 0
10, 141336, Note_on_c, 9, 42, 0
10, 141336, Note_on_c, 9, 36, 0
10, 141504, Note_on_c, 9, 42, 69
10, 141504, Note_on_c, 9, 70, 66
10, 141528, Note_on_c, 9, 70, 0
10, 141528, Note_on_c, 9, 42, 0
10, 141696, Note_on_c, 9, 42, 92
10, 141696, Note_on_c, 9, 70, 91
10, 141696, Note_on_c, 9, 38, 106
10, 141720, Note_on_c, 9, 38, 0
10, 141720, Note_on_c, 9, 70, 0
10, 141720, Note_on_c, 9, 42, 0
10, 141888, Note_on_c, 9, 42, 77
10, 141888, Note_on_c, 9, 70, 64
10, 141912, Note_on_c, 9, 70, 0
10, 141912, Note_on_c, 9, 42, 0
10, 142080, Note_on_c, 9, 42, 77
10, 142080, Note_on_c, 9, 70, 95
10, 142104, Note_on_c, 9, 70, 0
10, 142104, Note_on_c, 9, 42, 0
10, 142272, Note_on_c, 9, 36, 106
10, 142272, Note_on_c, 9, 42, 92
10, 142272, Note_on_c, 9, 70, 66
10, 142296, Note_on_c, 9, 70, 0
10, 142296, Note_on_c, 9, 42, 0
10, 142296, Note_on_c, 9, 36, 0
10, 142464, Note_on_c, 9, 42, 88
10, 142464, Note_on_c, 9, 70, 87
10, 142464, Note_on_c, 9, 38, 106
10, 142488, Note_on_c, 9, 38, 0
10, 142488, Note_on_c, 9, 70, 0
10, 142488, Note_on_c, 9, 42, 0
10, 142656, Note_on_c, 9, 42, 75
10, 142656, Note_on_c, 9, 70, 64
10, 142680, Note_on_c, 9, 70, 0
10, 142680, Note_on_c, 9, 42, 0
10, 142848, Note_on_c, 9, 36, 103
10, 142848, Note_on_c, 9, 42, 88
10, 142848, Note_on_c, 9, 70, 79
10, 142872, Note_on_c, 9, 70, 0
10, 142872, Note_on_c, 9, 42, 0
10, 142872, Note_on_c, 9, 36, 0
10, 143040, Note_on_c, 9, 42, 69
10, 143040, Note_on_c, 9, 70, 64
10, 143064, Note_on_c, 9, 70, 0
10, 143064, Note_on_c, 9, 42, 0
10, 143232, Note_on_c, 9, 42, 88
10, 143232, Note_on_c, 9, 70, 87
10, 143232, Note_on_c, 9, 38, 106
10, 143256, Note_on_c, 9, 38, 0
10, 143256, Note_on_c, 9, 70, 0
10, 143256, Note_on_c, 9, 42, 0
10, 143424, Note_on_c, 9, 42, 75
10, 143424, Note_on_c, 9, 70, 57
10, 143448, Note_on_c, 9, 70, 0
10, 143448, Note_on_c, 9, 42, 0
10, 143616, Note_on_c, 9, 36, 98
10, 143616, Note_on_c, 9, 42, 88
10, 143616, Note_on_c, 9, 70, 72
10, 143640, Note_on_c, 9, 70, 0
10, 143640, Note_on_c, 9, 42, 0
10, 143640, Note_on_c, 9, 36, 0
10, 143808, Note_on_c, 9, 36, 103
10, 143808, Note_on_c, 9, 42, 81
10, 143808, Note_on_c, 9, 70, 72
10, 143832, Note_on_c, 9, 70, 0
10, 143832, Note_on_c, 9, 42, 0
10, 143832, Note_on_c, 9, 36, 0
10, 144000, Note_on_c, 9, 42, 94
10, 144000, Note_on_c, 9, 70, 98
10, 144000, Note_on_c, 9, 38, 113
10, 144024, Note_on_c, 9, 38, 0
10, 144024, Note_on_c, 9, 70, 0
10, 144024, Note_on_c, 9, 42, 0
10, 144192, Note_on_c, 9, 70, 66
10, 144216, Note_on_c, 9, 70, 0
10, 144384, Note_on_c, 9, 36, 109
10, 144384, Note_on_c, 9, 42, 75
10, 144384, Note_on_c, 9, 70, 79
10, 144408, Note_on_c, 9, 70, 0
10, 144408, Note_on_c, 9, 42, 0
10, 144408, Note_on_c, 9, 36, 0
10, 144576, Note_on_c, 9, 42, 62
10, 144576, Note_on_c, 9, 70, 58
10, 144600, Note_on_c, 9, 70, 0
10, 144600, Note_on_c, 9, 42, 0
10, 144768, Note_on_c, 9, 42, 81
10, 144768, Note_on_c, 9, 70, 87
10, 144768, Note_on_c, 9, 38, 116
10, 144792, Note_on_c, 9, 38, 0
10, 144792, Note_on_c, 9, 70, 0
10, 144792, Note_on_c, 9, 42, 0
10, 144960, Note_on_c, 9, 42, 54
10, 144960, Note_on_c, 9, 70, 55
10, 144984, Note_on_c, 9, 70, 0
10, 144984, Note_on_c, 9, 42, 0
10, 145152, Note_on_c, 9, 42, 77
10, 145152, Note_on_c, 9, 70, 82
10, 145176, Note_on_c, 9, 70, 0
10, 145176, Note_on_c, 9, 42, 0
10, 145344, Note_on_c, 9, 36, 106
10, 145344, Note_on_c, 9, 42, 56
10, 145344, Note_on_c, 9, 70, 62
10, 145368, Note_on_c, 9, 70, 0
10, 145368, Note_on_c, 9, 42, 0
10, 145368, Note_on_c, 9, 36, 0
10, 145536, Note_on_c, 9, 42, 88
10, 145536, Note_on_c, 9, 70, 85
10, 145536, Note_on_c, 9, 38, 111
10, 145560, Note_on_c, 9, 38, 0
10, 145560, Note_on_c, 9, 70, 0
10, 145560, Note_on_c, 9, 42, 0
10, 145728, Note_on_c, 9, 42, 59
10, 145728, Note_on_c, 9, 70, 57
10, 145752, Note_on_c, 9, 70, 0
10, 145752, Note_on_c, 9, 42, 0
10, 145920, Note_on_c, 9, 36, 114
10, 145920, Note_on_c, 9, 42, 85
10, 145920, Note_on_c, 9, 70, 82
10, 145944, Note_on_c, 9, 70, 0
10, 145944, Note_on_c, 9, 42, 0
10, 145944, Note_on_c, 9, 36, 0
10, 146112, Note_on_c, 9, 42, 54
10, 146112, Note_on_c, 9, 70, 60
10, 146136, Note_on_c, 9, 70, 0
10, 146136, Note_on_c, 9, 42, 0
10, 146304, Note_on_c, 9, 42, 88
10, 146304, Note_on_c, 9, 70, 85
10, 146304, Note_on_c, 9, 38, 116
10, 146328, Note_on_c, 9, 38, 0
10, 146328, Note_on_c, 9, 70, 0
10, 146328, Note_on_c, 9, 42, 0
10, 146496, Note_on_c, 9, 42, 59
10, 146496, Note_on_c, 9, 70, 66
10, 146520, Note_on_c, 9, 70, 0
10, 146520, Note_on_c, 9, 42, 0
10, 146688, Note_on_c, 9, 36, 91
10, 146688, Note_on_c, 9, 42, 66
10, 146688, Note_on_c, 9, 70, 82
10, 146712, Note_on_c, 9, 70, 0
10, 146712, Note_on_c, 9, 42, 0
10, 146712, Note_on_c, 9, 36, 0
10, 146880, Note_on_c, 9, 36, 103
10, 146880, Note_on_c, 9, 42, 81
10, 146880, Note_on_c, 9, 70, 66
10, 146904, Note_on_c, 9, 70, 0
10, 146904, Note_on_c, 9, 42, 0
10, 146904, Note_on_c, 9, 36, 0
10, 147072, Note_on_c, 9, 42, 94
10, 147072, Note_on_c, 9, 70, 82
10, 147072, Note_on_c, 9, 38, 108
10, 147096, Note_on_c, 9, 38, 0
10, 147096, Note_on_c, 9, 70, 0
10, 147096, Note_on_c, 9, 42, 0
10, 147264, Note_on_c, 9, 42, 69
10, 147264, Note_on_c, 9, 70, 69
10, 147288, Note_on_c, 9, 70, 0
10, 147288, Note_on_c, 9, 42, 0
10, 147456, Note_on_c, 9, 36, 109
10, 147456, Note_on_c, 9, 42, 75
10, 147456, Note_on_c, 9, 70, 79
10, 147480, Note_on_c, 9, 70, 0
10, 147480, Note_on_c, 9, 42, 0
10, 147480, Note_on_c, 9, 36, 0
10, 147648, Note_on_c, 9, 42, 62
10, 147648, Note_on_c, 9, 70, 58
10, 147672, Note_on_c, 9, 70, 0
10, 147672, Note_on_c, 9, 42, 0
10, 147840, Note_on_c, 9, 42, 81
10, 147840, Note_on_c, 9, 70, 87
10, 147840, Note_on_c, 9, 38, 116
10, 147864, Note_on_c, 9, 38, 0
10, 147864, Note_on_c, 9, 70, 0
10, 147864, Note_on_c, 9, 42, 0
10, 148032, Note_on_c, 9, 42, 54
10, 148032, Note_on_c, 9, 70, 55
10, 148056, Note_on_c, 9, 70, 0
10, 148056, Note_on_c, 9, 42, 0
10, 148224, Note_on_c, 9, 42, 77
10, 148224, Note_on_c, 9, 70, 82
10, 148248, Note_on_c, 9, 70, 0
10, 148248, Note_on_c, 9, 42, 0
10, 148416, Note_on_c, 9, 36, 106
10, 148416, Note_on_c, 9, 42, 56
10, 148416, Note_on_c, 9, 70, 62
10, 148440, Note_on_c, 9, 70, 0
10, 148440, Note_on_c, 9, 42, 0
10, 148440, Note_on_c, 9, 36, 0
10, 148608, Note_on_c, 9, 42, 88
10, 148608, Note_on_c, 9, 70, 85
10, 148608, Note_on_c, 9, 38, 111
10, 148632, Note_on_c, 9, 38, 0
10, 148632, Note_on_c, 9, 70, 0
10, 148632, Note_on_c, 9, 42, 0
10, 148800, Note_on_c, 9, 42, 59
10, 148800, Note_on_c, 9, 70, 57
10, 148824, Note_on_c, 9, 70, 0
10, 148824, Note_on_c, 9, 42, 0
10, 148992, Note_on_c, 9, 36, 114
10, 148992, Note_on_c, 9, 42, 85
10, 148992, Note_on_c, 9, 70, 82
10, 149016, Note_on_c, 9, 70, 0
10, 149016, Note_on_c, 9, 42, 0
10, 149016, Note_on_c, 9, 36, 0
10, 149184, Note_on_c, 9, 42, 54
10, 149184, Note_on_c, 9, 70, 60
10, 149208, Note_on_c, 9, 70, 0
10, 149208, Note_on_c, 9, 42, 0
10, 149376, Note_on_c, 9, 42, 88
10, 149376, Note_on_c, 9, 70, 85
10, 149376, Note_on_c, 9, 38, 116
10, 149400, Note_on_c, 9, 38, 0
10, 149400, Note_on_c, 9, 70, 0
10, 149400, Note_on_c, 9, 42, 0
10, 149568, Note_on_c, 9, 42, 59
10, 149568, Note_on_c, 9, 70, 66
10, 149592, Note_on_c, 9, 70, 0
10, 149592, Note_on_c, 9, 42, 0
10, 149760, Note_on_c, 9, 36, 91
10, 149760, Note_on_c, 9, 42, 66
10, 149760, Note_on_c, 9, 70, 82
10, 149784, Note_on_c, 9, 70, 0
10, 149784, Note_on_c, 9, 42, 0
10, 149784, Note_on_c, 9, 36, 0
10, 149952, Note_on_c, 9, 36, 103
10, 149952, Note_on_c, 9, 42, 81
10, 149952, Note_on_c, 9, 70, 66
10, 149976, Note_on_c, 9, 70, 0
10, 149976, Note_on_c, 9, 42, 0
10, 149976, Note_on_c, 9, 36, 0
10, 150144, Note_on_c, 9, 42, 94
10, 150144, Note_on_c, 9, 70, 82
10, 150144, Note_on_c, 9, 38, 108
10, 150168, Note_on_c, 9, 38, 0
10, 150168, Note_on_c, 9, 70, 0
10, 150168, Note_on_c, 9, 42, 0
10, 150336, Note_on_c, 9, 42, 69
10, 150336, Note_on_c, 9, 70, 69
10, 150360, Note_on_c, 9, 70, 0
10, 150360, Note_on_c, 9, 42, 0
10, 150528, Note_on_c, 9, 36, 109
10, 150528, Note_on_c, 9, 42, 75
10, 150528, Note_on_c, 9, 70, 85
10, 150552, Note_on_c, 9, 70, 0
10, 150552, Note_on_c, 9, 42, 0
10, 150552, Note_on_c, 9, 36, 0
10, 150720, Note_on_c, 9, 42, 62
10, 150720, Note_on_c, 9, 70, 64
10, 150744, Note_on_c, 9, 70, 0
10, 150744, Note_on_c, 9, 42, 0
10, 150912, Note_on_c, 9, 42, 81
10, 150912, Note_on_c, 9, 70, 82
10, 150912, Note_on_c, 9, 38, 116
10, 150936, Note_on_c, 9, 38, 0
10, 150936, Note_on_c, 9, 70, 0
10, 150936, Note_on_c, 9, 42, 0
10, 151104, Note_on_c, 9, 42, 54
10, 151104, Note_on_c, 9, 70, 60
10, 151128, Note_on_c, 9, 70, 0
10, 151128, Note_on_c, 9, 42, 0
10, 151296, Note_on_c, 9, 42, 77
10, 151296, Note_on_c, 9, 70, 79
10, 151320, Note_on_c, 9, 70, 0
10, 151320, Note_on_c, 9, 42, 0
10, 151488, Note_on_c, 9, 36, 106
10, 151488, Note_on_c, 9, 42, 56
10, 151488, Note_on_c, 9, 70, 60
10, 151512, Note_on_c, 9, 70, 0
10, 151512, Note_on_c, 9, 42, 0
10, 151512, Note_on_c, 9, 36, 0
10, 151680, Note_on_c, 9, 42, 88
10, 151680, Note_on_c, 9, 70, 79
10, 151680, Note_on_c, 9, 38, 111
10, 151704, Note_on_c, 9, 38, 0
10, 151704, Note_on_c, 9, 70, 0
10, 151704, Note_on_c, 9, 42, 0
10, 151872, Note_on_c, 9, 42, 59
10, 151872, Note_on_c, 9, 70, 64
10, 151896, Note_on_c, 9, 70, 0
10, 151896, Note_on_c, 9, 42, 0
10, 152064, Note_on_c, 9, 36, 114
10, 152064, Note_on_c, 9, 42, 85
10, 152064, Note_on_c, 9, 70, 82
10, 152088, Note_on_c, 9, 70, 0
10, 152088, Note_on_c, 9, 42, 0
10, 152088, Note_on_c, 9, 36, 0
10, 152256, Note_on_c, 9, 42, 54
10, 152256, Note_on_c, 9, 70, 57
10, 152280, Note_on_c, 9, 70, 0
10, 152280, Note_on_c, 9, 42, 0
10, 152448, Note_on_c, 9, 42, 88
10, 152448, Note_on_c, 9, 70, 82
10, 152448, Note_on_c, 9, 38, 116
10, 152472, Note_on_c, 9, 38, 0
10, 152472, Note_on_c, 9, 70, 0
10, 152472, Note_on_c, 9, 42, 0
10, 152640, Note_on_c, 9, 42, 59
10, 152640, Note_on_c, 9, 70, 69
10, 152664, Note_on_c, 9, 70, 0
10, 152664, Note_on_c, 9, 42, 0
10, 152832, Note_on_c, 9, 36, 91
10, 152832, Note_on_c, 9, 42, 66
10, 152832, Note_on_c, 9, 70, 79
10, 152856, Note_on_c, 9, 70, 0
10, 152856, Note_on_c, 9, 42, 0
10, 152856, Note_on_c, 9, 36, 0
10, 153024, Note_on_c, 9, 36, 103
10, 153024, Note_on_c, 9, 42, 81
10, 153024, Note_on_c, 9, 70, 72
10, 153048, Note_on_c, 9, 70, 0
10, 153048, Note_on_c, 9, 42, 0
10, 153048, Note_on_c, 9, 36, 0
10, 153216, Note_on_c, 9, 42, 94
10, 153216, Note_on_c, 9, 70, 82
10, 153216, Note_on_c, 9, 38, 108
10, 153240, Note_on_c, 9, 38, 0
10, 153240, Note_on_c, 9, 70, 0
10, 153240, Note_on_c, 9, 42, 0
10, 153408, Note_on_c, 9, 42, 69
10, 153408, Note_on_c, 9, 70, 69
10, 153432, Note_on_c, 9, 70, 0
10, 153432, Note_on_c, 9, 42, 0
10, 153600, Note_on_c, 9, 36, 109
10, 153600, Note_on_c, 9, 42, 85
10, 153600, Note_on_c, 9, 70, 82
10, 153624, Note_on_c, 9, 70, 0
10, 153624, Note_on_c, 9, 42, 0
10, 153624, Note_on_c, 9, 36, 0
10, 153792, Note_on_c, 9, 42, 62
10, 153792, Note_on_c, 9, 70, 66
10, 153816, Note_on_c, 9, 70, 0
10, 153816, Note_on_c, 9, 42, 0
10, 153984, Note_on_c, 9, 42, 92
10, 153984, Note_on_c, 9, 70, 82
10, 153984, Note_on_c, 9, 38, 108
10, 154008, Note_on_c, 9, 38, 0
10, 154008, Note_on_c, 9, 70, 0
10, 154008, Note_on_c, 9, 42, 0
10, 154176, Note_on_c, 9, 42, 56
10, 154176, Note_on_c, 9, 70, 58
10, 154200, Note_on_c, 9, 70, 0
10, 154200, Note_on_c, 9, 42, 0
10, 154368, Note_on_c, 9, 42, 72
10, 154368, Note_on_c, 9, 70, 85
10, 154392, Note_on_c, 9, 70, 0
10, 154392, Note_on_c, 9, 42, 0
10, 154560, Note_on_c, 9, 36, 114
10, 154560, Note_on_c, 9, 42, 85
10, 154560, Note_on_c, 9, 70, 69
10, 154584, Note_on_c, 9, 70, 0
10, 154584, Note_on_c, 9, 42, 0
10, 154584, Note_on_c, 9, 36, 0
10, 154752, Note_on_c, 9, 42, 92
10, 154752, Note_on_c, 9, 70, 85
10, 154752, Note_on_c, 9, 38, 111
10, 154776, Note_on_c, 9, 38, 0
10, 154776, Note_on_c, 9, 70, 0
10, 154776, Note_on_c, 9, 42, 0
10, 154944, Note_on_c, 9, 42, 69
10, 154944, Note_on_c, 9, 70, 64
10, 154968, Note_on_c, 9, 70, 0
10, 154968, Note_on_c, 9, 42, 0
10, 155136, Note_on_c, 9, 36, 106
10, 155136, Note_on_c, 9, 42, 92
10, 155136, Note_on_c, 9, 70, 82
10, 155160, Note_on_c, 9, 70, 0
10, 155160, Note_on_c, 9, 42, 0
10, 155160, Note_on_c, 9, 36, 0
10, 155328, Note_on_c, 9, 42, 54
10, 155328, Note_on_c, 9, 70, 60
10, 155352, Note_on_c, 9, 70, 0
10, 155352, Note_on_c, 9, 42, 0
10, 155520, Note_on_c, 9, 42, 92
10, 155520, Note_on_c, 9, 70, 82
10, 155520, Note_on_c, 9, 38, 108
10, 155544, Note_on_c, 9, 38, 0
10, 155544, Note_on_c, 9, 70, 0
10, 155544, Note_on_c, 9, 42, 0
10, 155712, Note_on_c, 9, 42, 72
10, 155712, Note_on_c, 9, 70, 69
10, 155736, Note_on_c, 9, 70, 0
10, 155736, Note_on_c, 9, 42, 0
10, 155904, Note_on_c, 9, 36, 98
10, 155904, Note_on_c, 9, 42, 85
10, 155904, Note_on_c, 9, 70, 76
10, 155928, Note_on_c, 9, 70, 0
10, 155928, Note_on_c, 9, 42, 0
10, 155928, Note_on_c, 9, 36, 0
10, 156096, Note_on_c, 9, 36, 106
10, 156096, Note_on_c, 9, 42, 75
10, 156096, Note_on_c, 9, 70, 69
10, 156120, Note_on_c, 9, 70, 0
10, 156120, Note_on_c, 9, 42, 0
10, 156120, Note_on_c, 9, 36, 0
10, 156284, Note_on_c, 9, 54, 57
10, 156288, Note_on_c, 9, 42, 88
10, 156288, Note_on_c, 9, 70, 85
10, 156288, Note_on_c, 9, 38, 113
10, 156308, Note_on_c, 9, 54, 0
10, 156312, Note_on_c, 9, 42, 0
10, 156312, Note_on_c, 9, 70, 0
10, 156312, Note_on_c, 9, 38, 0
10, 156480, Note_on_c, 9, 42, 72
10, 156480, Note_on_c, 9, 70, 66
10, 156504, Note_on_c, 9, 70, 0
10, 156504, Note_on_c, 9, 42, 0
10, 156672, Note_on_c, 9, 36, 109
10, 156672, Note_on_c, 9, 42, 88
10, 156672, Note_on_c, 9, 70, 82
10, 156696, Note_on_c, 9, 70, 0
10, 156696, Note_on_c, 9, 42, 0
10, 156696, Note_on_c, 9, 36, 0
10, 156864, Note_on_c, 9, 42, 56
10, 156864, Note_on_c, 9, 70, 64
10, 156888, Note_on_c, 9, 70, 0
10, 156888, Note_on_c, 9, 42, 0
10, 157056, Note_on_c, 9, 42, 94
10, 157056, Note_on_c, 9, 70, 82
10, 157056, Note_on_c, 9, 38, 111
10, 157080, Note_on_c, 9, 38, 0
10, 157080, Note_on_c, 9, 70, 0
10, 157080, Note_on_c, 9, 42, 0
10, 157248, Note_on_c, 9, 42, 52
10, 157248, Note_on_c, 9, 70, 60
10, 157272, Note_on_c, 9, 70, 0
10, 157272, Note_on_c, 9, 42, 0
10, 157440, Note_on_c, 9, 42, 77
10, 157440, Note_on_c, 9, 70, 82
10, 157464, Note_on_c, 9, 70, 0
10, 157464, Note_on_c, 9, 42, 0
10, 157632, Note_on_c, 9, 36, 114
10, 157632, Note_on_c, 9, 42, 88
10, 157632, Note_on_c, 9, 70, 66
10, 157656, Note_on_c, 9, 70, 0
10, 157656, Note_on_c, 9, 42, 0
10, 157656, Note_on_c, 9, 36, 0
10, 157824, Note_on_c, 9, 42, 88
10, 157824, Note_on_c, 9, 70, 85
10, 157824, Note_on_c, 9, 38, 108
10, 157848, Note_on_c, 9, 38, 0
10, 157848, Note_on_c, 9, 70, 0
10, 157848, Note_on_c, 9, 42, 0
10, 158016, Note_on_c, 9, 42, 72
10, 158016, Note_on_c, 9, 70, 62
10, 158040, Note_on_c, 9, 70, 0
10, 158040, Note_on_c, 9, 42, 0
10, 158208, Note_on_c, 9, 36, 114
10, 158208, Note_on_c, 9, 42, 88
10, 158208, Note_on_c, 9, 70, 85
10, 158232, Note_on_c, 9, 70, 0
10, 158232, Note_on_c, 9, 42, 0
10, 158232, Note_on_c, 9, 36, 0
10, 158400, Note_on_c, 9, 42, 69
10, 158400, Note_on_c, 9, 70, 51
10, 158424, Note_on_c, 9, 70, 0
10, 158424, Note_on_c, 9, 42, 0
10, 158592, Note_on_c, 9, 42, 92
10, 158592, Note_on_c, 9, 70, 85
10, 158592, Note_on_c, 9, 38, 111
10, 158616, Note_on_c, 9, 38, 0
10, 158616, Note_on_c, 9, 70, 0
10, 158616, Note_on_c, 9, 42, 0
10, 158784, Note_on_c, 9, 42, 64
10, 158784, Note_on_c, 9, 70, 64
10, 158808, Note_on_c, 9, 70, 0
10, 158808, Note_on_c, 9, 42, 0
10, 158976, Note_on_c, 9, 36, 93
10, 158976, Note_on_c, 9, 42, 85
10, 158976, Note_on_c, 9, 70, 79
10, 159000, Note_on_c, 9, 70, 0
10, 159000, Note_on_c, 9, 42, 0
10, 159000, Note_on_c, 9, 36, 0
10, 159168, Note_on_c, 9, 36, 109
10, 159168, Note_on_c, 9, 42, 77
10, 159168, Note_on_c, 9, 70, 69
10, 159192, Note_on_c, 9, 70, 0
10, 159192, Note_on_c, 9, 42, 0
10, 159192, Note_on_c, 9, 36, 0
10, 159360, Note_on_c, 9, 42, 88
10, 159360, Note_on_c, 9, 70, 82
10, 159360, Note_on_c, 9, 54, 70
10, 159360, Note_on_c, 9, 38, 111
10, 159384, Note_on_c, 9, 38, 0
10, 159384, Note_on_c, 9, 42, 0
10, 159384, Note_on_c, 9, 70, 0
10, 159384, Note_on_c, 9, 54, 0
10, 159552, Note_on_c, 9, 42, 75
10, 159552, Note_on_c, 9, 70, 58
10, 159576, Note_on_c, 9, 70, 0
10, 159576, Note_on_c, 9, 42, 0
10, 159744, Note_on_c, 9, 36, 109
10, 159744, Note_on_c, 9, 42, 88
10, 159744, Note_on_c, 9, 70, 87
10, 159768, Note_on_c, 9, 70, 0
10, 159768, Note_on_c, 9, 42, 0
10, 159768, Note_on_c, 9, 36, 0
10, 159936, Note_on_c, 9, 42, 69
10, 159936, Note_on_c, 9, 70, 64
10, 159960, Note_on_c, 9, 70, 0
10, 159960, Note_on_c, 9, 42, 0
10, 160128, Note_on_c, 9, 42, 92
10, 160128, Note_on_c, 9, 70, 87
10, 160128, Note_on_c, 9, 38, 106
10, 160152, Note_on_c, 9, 38, 0
10, 160152, Note_on_c, 9, 70, 0
10, 160152, Note_on_c, 9, 42, 0
10, 160320, Note_on_c, 9, 42, 77
10, 160320, Note_on_c, 9, 70, 62
10, 160344, Note_on_c, 9, 70, 0
10, 160344, Note_on_c, 9, 42, 0
10, 160512, Note_on_c, 9, 42, 77
10, 160512, Note_on_c, 9, 70, 82
10, 160536, Note_on_c, 9, 70, 0
10, 160536, Note_on_c, 9, 42, 0
10, 160704, Note_on_c, 9, 36, 106
10, 160704, Note_on_c, 9, 42, 92
10, 160704, Note_on_c, 9, 70, 58
10, 160728, Note_on_c, 9, 70, 0
10, 160728, Note_on_c, 9, 42, 0
10, 160728, Note_on_c, 9, 36, 0
10, 160896, Note_on_c, 9, 42, 88
10, 160896, Note_on_c, 9, 70, 82
10, 160896, Note_on_c, 9, 38, 106
10, 160920, Note_on_c, 9, 38, 0
10, 160920, Note_on_c, 9, 70, 0
10, 160920, Note_on_c, 9, 42, 0
10, 161088, Note_on_c, 9, 42, 75
10, 161088, Note_on_c, 9, 70, 58
10, 161112, Note_on_c, 9, 70, 0
10, 161112, Note_on_c, 9, 42, 0
10, 161280, Note_on_c, 9, 36, 103
10, 161280, Note_on_c, 9, 42, 88
10, 161280, Note_on_c, 9, 70, 85
10, 161304, Note_on_c, 9, 70, 0
10, 161304, Note_on_c, 9, 42, 0
10, 161304, Note_on_c, 9, 36, 0
10, 161472, Note_on_c, 9, 42, 69
10, 161472, Note_on_c, 9, 70, 66
10, 161496, Note_on_c, 9, 70, 0
10, 161496, Note_on_c, 9, 42, 0
10, 161664, Note_on_c, 9, 42, 88
10, 161664, Note_on_c, 9, 70, 82
10, 161664, Note_on_c, 9, 38, 106
10, 161668, Note_on_c, 9, 54, 76
10, 161688, Note_on_c, 9, 38, 0
10, 161688, Note_on_c, 9, 42, 0
10, 161688, Note_on_c, 9, 70, 0
10, 161692, Note_on_c, 9, 54, 0
10, 161856, Note_on_c, 9, 42, 75
10, 161856, Note_on_c, 9, 70, 64
10, 161880, Note_on_c, 9, 70, 0
10, 161880, Note_on_c, 9, 42, 0
10, 162048, Note_on_c, 9, 36, 98
10, 162048, Note_on_c, 9, 42, 88
10, 162048, Note_on_c, 9, 70, 87
10, 162072, Note_on_c, 9, 70, 0
10, 162072, Note_on_c, 9, 42, 0
10, 162072, Note_on_c, 9, 36, 0
10, 162240, Note_on_c, 9, 36, 103
10, 162240, Note_on_c, 9, 42, 81
10, 162240, Note_on_c, 9, 70, 66
10, 162264, Note_on_c, 9, 70, 0
10, 162264, Note_on_c, 9, 42, 0
10, 162264, Note_on_c, 9, 36, 0
10, 162432, Note_on_c, 9, 42, 94
10, 162432, Note_on_c, 9, 70, 87
10, 162432, Note_on_c, 9, 38, 113
10, 162456, Note_on_c, 9, 38, 0
10, 162456, Note_on_c, 9, 70, 0
10, 162456, Note_on_c, 9, 42, 0
10, 162624, Note_on_c, 9, 70, 66
10, 162648, Note_on_c, 9, 70, 0
10, 162816, Note_on_c, 9, 36, 109
10, 162816, Note_on_c, 9, 42, 75
10, 162816, Note_on_c, 9, 70, 85
10, 162840, Note_on_c, 9, 70, 0
10, 162840, Note_on_c, 9, 42, 0
10, 162840, Note_on_c, 9, 36, 0
10, 163008, Note_on_c, 9, 42, 62
10, 163008, Note_on_c, 9, 70, 64
10, 163032, Note_on_c, 9, 70, 0
10, 163032, Note_on_c, 9, 42, 0
10, 163200, Note_on_c, 9, 42, 81
10, 163200, Note_on_c, 9, 70, 82
10, 163200, Note_on_c, 9, 38, 116
10, 163224, Note_on_c, 9, 38, 0
10, 163224, Note_on_c, 9, 70, 0
10, 163224, Note_on_c, 9, 42, 0
10, 163392, Note_on_c, 9, 42, 54
10, 163392, Note_on_c, 9, 70, 60
10, 163416, Note_on_c, 9, 70, 0
10, 163416, Note_on_c, 9, 42, 0
10, 163584, Note_on_c, 9, 42, 77
10, 163584, Note_on_c, 9, 70, 79
10, 163608, Note_on_c, 9, 70, 0
10, 163608, Note_on_c, 9, 42, 0
10, 163776, Note_on_c, 9, 36, 106
10, 163776, Note_on_c, 9, 42, 56
10, 163776, Note_on_c, 9, 70, 60
10, 163800, Note_on_c, 9, 70, 0
10, 163800, Note_on_c, 9, 42, 0
10, 163800, Note_on_c, 9, 36, 0
10, 163968, Note_on_c, 9, 42, 88
10, 163968, Note_on_c, 9, 70, 79
10, 163968, Note_on_c, 9, 38, 111
10, 163992, Note_on_c, 9, 38, 0
10, 163992, Note_on_c, 9, 70, 0
10, 163992, Note_on_c, 9, 42, 0
10, 164160, Note_on_c, 9, 42, 59
10, 164160, Note_on_c, 9, 70, 64
10, 164184, Note_on_c, 9, 70, 0
10, 164184, Note_on_c, 9, 42, 0
10, 164352, Note_on_c, 9, 36, 114
10, 164352, Note_on_c, 9, 42, 85
10, 164352, Note_on_c, 9, 70, 82
10, 164376, Note_on_c, 9, 70, 0
10, 164376, Note_on_c, 9, 42, 0
10, 164376, Note_on_c, 9, 36, 0
10, 164544, Note_on_c, 9, 42, 54
10, 164544, Note_on_c, 9, 70, 57
10, 164568, Note_on_c, 9, 70, 0
10, 164568, Note_on_c, 9, 42, 0
10, 164736, Note_on_c, 9, 42, 88
10, 164736, Note_on_c, 9, 70, 82
10, 164736, Note_on_c, 9, 38, 116
10, 164760, Note_on_c, 9, 38, 0
10, 164760, Note_on_c, 9, 70, 0
10, 164760, Note_on_c, 9, 42, 0
10, 164928, Note_on_c, 9, 42, 59
10, 164928, Note_on_c, 9, 70, 69
10, 164952, Note_on_c, 9, 70, 0
10, 164952, Note_on_c, 9, 42, 0
10, 165120, Note_on_c, 9, 36, 91
10, 165120, Note_on_c, 9, 42, 66
10, 165120, Note_on_c, 9, 70, 79
10, 165144, Note_on_c, 9, 70, 0
10, 165144, Note_on_c, 9, 42, 0
10, 165144, Note_on_c, 9, 36, 0
10, 165312, Note_on_c, 9, 36, 103
10, 165312, Note_on_c, 9, 42, 81
10, 165312, Note_on_c, 9, 70, 72
10, 165336, Note_on_c, 9, 70, 0
10, 165336, Note_on_c, 9, 42, 0
10, 165336, Note_on_c, 9, 36, 0
10, 165504, Note_on_c, 9, 42, 94
10, 165504, Note_on_c, 9, 70, 82
10, 165504, Note_on_c, 9, 38, 108
10, 165528, Note_on_c, 9, 38, 0
10, 165528, Note_on_c, 9, 70, 0
10, 165528, Note_on_c, 9, 42, 0
10, 165696, Note_on_c, 9, 42, 69
10, 165696, Note_on_c, 9, 70, 69
10, 165720, Note_on_c, 9, 70, 0
10, 165720, Note_on_c, 9, 42, 0
10, 165888, Note_on_c, 9, 36, 109
10, 165888, Note_on_c, 9, 42, 85
10, 165888, Note_on_c, 9, 70, 82
10, 165912, Note_on_c, 9, 70, 0
10, 165912, Note_on_c, 9, 42, 0
10, 165912, Note_on_c, 9, 36, 0
10, 166080, Note_on_c, 9, 42, 62
10, 166080, Note_on_c, 9, 70, 66
10, 166104, Note_on_c, 9, 70, 0
10, 166104, Note_on_c, 9, 42, 0
10, 166272, Note_on_c, 9, 42, 92
10, 166272, Note_on_c, 9, 70, 82
10, 166272, Note_on_c, 9, 38, 108
10, 166296, Note_on_c, 9, 38, 0
10, 166296, Note_on_c, 9, 70, 0
10, 166296, Note_on_c, 9, 42, 0
10, 166464, Note_on_c, 9, 42, 56
10, 166464, Note_on_c, 9, 70, 58
10, 166488, Note_on_c, 9, 70, 0
10, 166488, Note_on_c, 9, 42, 0
10, 166656, Note_on_c, 9, 42, 72
10, 166656, Note_on_c, 9, 70, 85
10, 166680, Note_on_c, 9, 70, 0
10, 166680, Note_on_c, 9, 42, 0
10, 166848, Note_on_c, 9, 36, 114
10, 166848, Note_on_c, 9, 42, 85
10, 166848, Note_on_c, 9, 70, 69
10, 166872, Note_on_c, 9, 70, 0
10, 166872, Note_on_c, 9, 42, 0
10, 166872, Note_on_c, 9, 36, 0
10, 167040, Note_on_c, 9, 42, 92
10, 167040, Note_on_c, 9, 70, 85
10, 167040, Note_on_c, 9, 38, 111
10, 167064, Note_on_c, 9, 38, 0
10, 167064, Note_on_c, 9, 70, 0
10, 167064, Note_on_c, 9, 42, 0
10, 167232, Note_on_c, 9, 42, 69
10, 167232, Note_on_c, 9, 70, 64
10, 167256, Note_on_c, 9, 70, 0
10, 167256, Note_on_c, 9, 42, 0
10, 167424, Note_on_c, 9, 36, 106
10, 167424, Note_on_c, 9, 42, 92
10, 167424, Note_on_c, 9, 70, 82
10, 167448, Note_on_c, 9, 70, 0
10, 167448, Note_on_c, 9, 42, 0
10, 167448, Note_on_c, 9, 36, 0
10, 167616, Note_on_c, 9, 42, 54
10, 167616, Note_on_c, 9, 70, 60
10, 167640, Note_on_c, 9, 70, 0
10, 167640, Note_on_c, 9, 42, 0
10, 167808, Note_on_c, 9, 42, 92
10, 167808, Note_on_c, 9, 70, 82
10, 167808, Note_on_c, 9, 38, 108
10, 167832, Note_on_c, 9, 38, 0
10, 167832, Note_on_c, 9, 70, 0
10, 167832, Note_on_c, 9, 42, 0
10, 168000, Note_on_c, 9, 42, 72
10, 168000, Note_on_c, 9, 70, 69
10, 168024, Note_on_c, 9, 70, 0
10, 168024, Note_on_c, 9, 42, 0
10, 168192, Note_on_c, 9, 36, 98
10, 168192, Note_on_c, 9, 42, 85
10, 168192, Note_on_c, 9, 70, 76
10, 168216, Note_on_c, 9, 70, 0
10, 168216, Note_on_c, 9, 42, 0
10, 168216, Note_on_c, 9, 36, 0
10, 168384, Note_on_c, 9, 36, 106
10, 168384, Note_on_c, 9, 42, 75
10, 168384, Note_on_c, 9, 70, 69
10, 168408, Note_on_c, 9, 70, 0
10, 168408, Note_on_c, 9, 42, 0
10, 168408, Note_on_c, 9, 36, 0
10, 168576, Note_on_c, 9, 42, 88
10, 168576, Note_on_c, 9, 70, 85
10, 168576, Note_on_c, 9, 49, 57
10, 168576, Note_on_c, 9, 38, 113
10, 168600, Note_on_c, 9, 38, 0
10, 168600, Note_on_c, 9, 42, 0
10, 168600, Note_on_c, 9, 70, 0
10, 168600, Note_on_c, 9, 49, 0
10, 168768, Note_on_c, 9, 42, 72
10, 168768, Note_on_c, 9, 70, 66
10, 168792, Note_on_c, 9, 70, 0
10, 168792, Note_on_c, 9, 42, 0
10, 168960, Note_on_c, 9, 36, 109
10, 168960, Note_on_c, 9, 42, 88
10, 168960, Note_on_c, 9, 70, 82
10, 168984, Note_on_c, 9, 70, 0
10, 168984, Note_on_c, 9, 42, 0
10, 168984, Note_on_c, 9, 36, 0
10, 169152, Note_on_c, 9, 42, 56
10, 169152, Note_on_c, 9, 70, 64
10, 169176, Note_on_c, 9, 70, 0
10, 169176, Note_on_c, 9, 42, 0
10, 169344, Note_on_c, 9, 42, 94
10, 169344, Note_on_c, 9, 70, 82
10, 169344, Note_on_c, 9, 38, 111
10, 169368, Note_on_c, 9, 38, 0
10, 169368, Note_on_c, 9, 70, 0
10, 169368, Note_on_c, 9, 42, 0
10, 169536, Note_on_c, 9, 42, 52
10, 169536, Note_on_c, 9, 70, 60
10, 169560, Note_on_c, 9, 70, 0
10, 169560, Note_on_c, 9, 42, 0
10, 169728, Note_on_c, 9, 42, 77
10, 169728, Note_on_c, 9, 70, 82
10, 169752, Note_on_c, 9, 70, 0
10, 169752, Note_on_c, 9, 42, 0
10, 169920, Note_on_c, 9, 36, 114
10, 169920, Note_on_c, 9, 42, 88
10, 169920, Note_on_c, 9, 70, 66
10, 169944, Note_on_c, 9, 70, 0
10, 169944, Note_on_c, 9, 42, 0
10, 169944, Note_on_c, 9, 36, 0
10, 170112, Note_on_c, 9, 42, 88
10, 170112, Note_on_c, 9, 70, 85
10, 170112, Note_on_c, 9, 38, 108
10, 170136, Note_on_c, 9, 38, 0
10, 170136, Note_on_c, 9, 70, 0
10, 170136, Note_on_c, 9, 42, 0
10, 170304, Note_on_c, 9, 42, 72
10, 170304, Note_on_c, 9, 70, 62
10, 170328, Note_on_c, 9, 70, 0
10, 170328, Note_on_c, 9, 42, 0
10, 170496, Note_on_c, 9, 36, 114
10, 170496, Note_on_c, 9, 42, 88
10, 170496, Note_on_c, 9, 70, 85
10, 170520, Note_on_c, 9, 70, 0
10, 170520, Note_on_c, 9, 42, 0
10, 170520, Note_on_c, 9, 36, 0
10, 170688, Note_on_c, 9, 42, 69
10, 170688, Note_on_c, 9, 70, 51
10, 170712, Note_on_c, 9, 70, 0
10, 170712, Note_on_c, 9, 42, 0
10, 170880, Note_on_c, 9, 42, 92
10, 170880, Note_on_c, 9, 70, 85
10, 170880, Note_on_c, 9, 38, 111
10, 170904, Note_on_c, 9, 38, 0
10, 170904, Note_on_c, 9, 70, 0
10, 170904, Note_on_c, 9, 42, 0
10, 171072, Note_on_c, 9, 42, 64
10, 171072, Note_on_c, 9, 70, 64
10, 171096, Note_on_c, 9, 70, 0
10, 171096, Note_on_c, 9, 42, 0
10, 171264, Note_on_c, 9, 36, 93
10, 171264, Note_on_c, 9, 42, 85
10, 171264, Note_on_c, 9, 70, 79
10, 171288, Note_on_c, 9, 70, 0
10, 171288, Note_on_c, 9, 42, 0
10, 171288, Note_on_c, 9, 36, 0
10, 171456, Note_on_c, 9, 36, 109
10, 171456, Note_on_c, 9, 42, 77
10, 171456, Note_on_c, 9, 70, 69
10, 171480, Note_on_c, 9, 70, 0
10, 171480, Note_on_c, 9, 42, 0
10, 171480, Note_on_c, 9, 36, 0
10, 171648, Note_on_c, 9, 42, 88
10, 171648, Note_on_c, 9, 70, 82
10, 171648, Note_on_c, 9, 38, 111
10, 171672, Note_on_c, 9, 38, 0
10, 171672, Note_on_c, 9, 70, 0
10, 171672, Note_on_c, 9, 42, 0
10, 171840, Note_on_c, 9, 42, 75
10, 171840, Note_on_c, 9, 70, 58
10, 171864, Note_on_c, 9, 70, 0
10, 171864, Note_on_c, 9, 42, 0
10, 172032, Note_on_c, 9, 36, 109
10, 172032, Note_on_c, 9, 42, 88
10, 172032, Note_on_c, 9, 70, 87
10, 172056, Note_on_c, 9, 70, 0
10, 172056, Note_on_c, 9, 42, 0
10, 172056, Note_on_c, 9, 36, 0
10, 172224, Note_on_c, 9, 42, 69
10, 172224, Note_on_c, 9, 70, 64
10, 172248, Note_on_c, 9, 70, 0
10, 172248, Note_on_c, 9, 42, 0
10, 172416, Note_on_c, 9, 42, 92
10, 172416, Note_on_c, 9, 70, 87
10, 172416, Note_on_c, 9, 38, 106
10, 172440, Note_on_c, 9, 38, 0
10, 172440, Note_on_c, 9, 70, 0
10, 172440, Note_on_c, 9, 42, 0
10, 172608, Note_on_c, 9, 42, 77
10, 172608, Note_on_c, 9, 70, 62
10, 172632, Note_on_c, 9, 70, 0
10, 172632, Note_on_c, 9, 42, 0
10, 172800, Note_on_c, 9, 42, 77
10, 172800, Note_on_c, 9, 70, 82
10, 172824, Note_on_c, 9, 70, 0
10, 172824, Note_on_c, 9, 42, 0
10, 172992, Note_on_c, 9, 36, 106
10, 172992, Note_on_c, 9, 42, 92
10, 172992, Note_on_c, 9, 70, 58
10, 173016, Note_on_c, 9, 70, 0
10, 173016, Note_on_c, 9, 42, 0
10, 173016, Note_on_c, 9, 36, 0
10, 173184, Note_on_c, 9, 42, 88
10, 173184, Note_on_c, 9, 70, 82
10, 173184, Note_on_c, 9, 38, 106
10, 173208, Note_on_c, 9, 38, 0
10, 173208, Note_on_c, 9, 70, 0
10, 173208, Note_on_c, 9, 42, 0
10, 173376, Note_on_c, 9, 42, 75
10, 173376, Note_on_c, 9, 70, 58
10, 173400, Note_on_c, 9, 70, 0
10, 173400, Note_on_c, 9, 42, 0
10, 173568, Note_on_c, 9, 36, 103
10, 173568, Note_on_c, 9, 42, 88
10, 173568, Note_on_c, 9, 70, 85
10, 173592, Note_on_c, 9, 70, 0
10, 173592, Note_on_c, 9, 42, 0
10, 173592, Note_on_c, 9, 36, 0
10, 173760, Note_on_c, 9, 42, 69
10, 173760, Note_on_c, 9, 70, 66
10, 173784, Note_on_c, 9, 70, 0
10, 173784, Note_on_c, 9, 42, 0
10, 173952, Note_on_c, 9, 42, 88
10, 173952, Note_on_c, 9, 70, 82
10, 173952, Note_on_c, 9, 38, 106
10, 173976, Note_on_c, 9, 38, 0
10, 173976, Note_on_c, 9, 70, 0
10, 173976, Note_on_c, 9, 42, 0
10, 174144, Note_on_c, 9, 42, 75
10, 174144, Note_on_c, 9, 70, 64
10, 174168, Note_on_c, 9, 70, 0
10, 174168, Note_on_c, 9, 42, 0
10, 174336, Note_on_c, 9, 36, 98
10, 174336, Note_on_c, 9, 42, 88
10, 174336, Note_on_c, 9, 70, 87
10, 174360, Note_on_c, 9, 70, 0
10, 174360, Note_on_c, 9, 42, 0
10, 174360, Note_on_c, 9, 36, 0
10, 174528, Note_on_c, 9, 36, 103
10, 174528, Note_on_c, 9, 42, 81
10, 174528, Note_on_c, 9, 70, 66
10, 174552, Note_on_c, 9, 70, 0
10, 174552, Note_on_c, 9, 42, 0
10, 174552, Note_on_c, 9, 36, 0
10, 174716, Note_on_c, 9, 49, 57
10, 174720, Note_on_c, 9, 42, 94
10, 174720, Note_on_c, 9, 70, 87
10, 174720, Note_on_c, 9, 38, 113
10, 174740, Note_on_c, 9, 49, 0
10, 174744, Note_on_c, 9, 42, 0
10, 174744, Note_on_c, 9, 70, 0
10, 174744, Note_on_c, 9, 38, 0
10, 174912, Note_on_c, 9, 70, 66
10, 174936, Note_on_c, 9, 70, 0
10, 175104, Note_on_c, 9, 36, 109
10, 175104, Note_on_c, 9, 42, 75
10, 175104, Note_on_c, 9, 70, 85
10, 175128, Note_on_c, 9, 70, 0
10, 175128, Note_on_c, 9, 42, 0
10, 175128, Note_on_c, 9, 36, 0
10, 175296, Note_on_c, 9, 42, 62
10, 175296, Note_on_c, 9, 70, 64
10, 175320, Note_on_c, 9, 70, 0
10, 175320, Note_on_c, 9, 42, 0
10, 175488, Note_on_c, 9, 42, 81
10, 175488, Note_on_c, 9, 70, 82
10, 175488, Note_on_c, 9, 38, 116
10, 175512, Note_on_c, 9, 38, 0
10, 175512, Note_on_c, 9, 70, 0
10, 175512, Note_on_c, 9, 42, 0
10, 175680, Note_on_c, 9, 42, 54
10, 175680, Note_on_c, 9, 70, 60
10, 175704, Note_on_c, 9, 70, 0
10, 175704, Note_on_c, 9, 42, 0
10, 175872, Note_on_c, 9, 42, 77
10, 175872, Note_on_c, 9, 70, 79
10, 175896, Note_on_c, 9, 70, 0
10, 175896, Note_on_c, 9, 42, 0
10, 176064, Note_on_c, 9, 36, 106
10, 176064, Note_on_c, 9, 42, 56
10, 176064, Note_on_c, 9, 70, 60
10, 176088, Note_on_c, 9, 70, 0
10, 176088, Note_on_c, 9, 42, 0
10, 176088, Note_on_c, 9, 36, 0
10, 176256, Note_on_c, 9, 42, 88
10, 176256, Note_on_c, 9, 70, 79
10, 176256, Note_on_c, 9, 38, 111
10, 176280, Note_on_c, 9, 38, 0
10, 176280, Note_on_c, 9, 70, 0
10, 176280, Note_on_c, 9, 42, 0
10, 176448, Note_on_c, 9, 42, 59
10, 176448, Note_on_c, 9, 70, 64
10, 176472, Note_on_c, 9, 70, 0
10, 176472, Note_on_c, 9, 42, 0
10, 176640, Note_on_c, 9, 36, 114
10, 176640, Note_on_c, 9, 42, 85
10, 176640, Note_on_c, 9, 70, 82
10, 176664, Note_on_c, 9, 70, 0
10, 176664, Note_on_c, 9, 42, 0
10, 176664, Note_on_c, 9, 36, 0
10, 176832, Note_on_c, 9, 42, 54
10, 176832, Note_on_c, 9, 70, 57
10, 176856, Note_on_c, 9, 70, 0
10, 176856, Note_on_c, 9, 42, 0
10, 177024, Note_on_c, 9, 42, 88
10, 177024, Note_on_c, 9, 70, 82
10, 177024, Note_on_c, 9, 38, 116
10, 177048, Note_on_c, 9, 38, 0
10, 177048, Note_on_c, 9, 70, 0
10, 177048, Note_on_c, 9, 42, 0
10, 177216, Note_on_c, 9, 42, 59
10, 177216, Note_on_c, 9, 70, 69
10, 177240, Note_on_c, 9, 70, 0
10, 177240, Note_on_c, 9, 42, 0
10, 177408, Note_on_c, 9, 36, 91
10, 177408, Note_on_c, 9, 42, 66
10, 177408, Note_on_c, 9, 70, 79
10, 177432, Note_on_c, 9, 70, 0
10, 177432, Note_on_c, 9, 42, 0
10, 177432, Note_on_c, 9, 36, 0
10, 177600, Note_on_c, 9, 36, 103
10, 177600, Note_on_c, 9, 42, 81
10, 177600, Note_on_c, 9, 70, 72
10, 177624, Note_on_c, 9, 70, 0
10, 177624, Note_on_c, 9, 42, 0
10, 177624, Note_on_c, 9, 36, 0
10, 177792, Note_on_c, 9, 42, 94
10, 177792, Note_on_c, 9, 70, 82
10, 177792, Note_on_c, 9, 38, 108
10, 177816, Note_on_c, 9, 38, 0
10, 177816, Note_on_c, 9, 70, 0
10, 177816, Note_on_c, 9, 42, 0
10, 177984, Note_on_c, 9, 42, 69
10, 177984, Note_on_c, 9, 70, 69
10, 178008, Note_on_c, 9, 70, 0
10, 178008, Note_on_c, 9, 42, 0
10, 178176, Note_on_c, 9, 36, 109
10, 178176, Note_on_c, 9, 42, 85
10, 178176, Note_on_c, 9, 70, 82
10, 178200, Note_on_c, 9, 70, 0
10, 178200, Note_on_c, 9, 42, 0
10, 178200, Note_on_c, 9, 36, 0
10, 178368, Note_on_c, 9, 42, 62
10, 178368, Note_on_c, 9, 70, 66
10, 178392, Note_on_c, 9, 70, 0
10, 178392, Note_on_c, 9, 42, 0
10, 178560, Note_on_c, 9, 42, 92
10, 178560, Note_on_c, 9, 70, 82
10, 178560, Note_on_c, 9, 38, 108
10, 178584, Note_on_c, 9, 38, 0
10, 178584, Note_on_c, 9, 70, 0
10, 178584, Note_on_c, 9, 42, 0
10, 178752, Note_on_c, 9, 42, 56
10, 178752, Note_on_c, 9, 70, 58
10, 178776, Note_on_c, 9, 70, 0
10, 178776, Note_on_c, 9, 42, 0
10, 178944, Note_on_c, 9, 42, 72
10, 178944, Note_on_c, 9, 70, 85
10, 178968, Note_on_c, 9, 70, 0
10, 178968, Note_on_c, 9, 42, 0
10, 179136, Note_on_c, 9, 36, 114
10, 179136, Note_on_c, 9, 42, 85
10, 179136, Note_on_c, 9, 70, 69
10, 179160, Note_on_c, 9, 70, 0
10, 179160, Note_on_c, 9, 42, 0
10, 179160, Note_on_c, 9, 36, 0
10, 179328, Note_on_c, 9, 42, 92
10, 179328, Note_on_c, 9, 70, 85
10, 179328, Note_on_c, 9, 38, 111
10, 179352, Note_on_c, 9, 38, 0
10, 179352, Note_on_c, 9, 70, 0
10, 179352, Note_on_c, 9, 42, 0
10, 179520, Note_on_c, 9, 42, 69
10, 179520, Note_on_c, 9, 70, 64
10, 179544, Note_on_c, 9, 70, 0
10, 179544, Note_on_c, 9, 42, 0
10, 179712, Note_on_c, 9, 36, 106
10, 179712, Note_on_c, 9, 42, 92
10, 179712, Note_on_c, 9, 70, 82
10, 179736, Note_on_c, 9, 70, 0
10, 179736, Note_on_c, 9, 42, 0
10, 179736, Note_on_c, 9, 36, 0
10, 179904, Note_on_c, 9, 42, 54
10, 179904, Note_on_c, 9, 70, 60
10, 179928, Note_on_c, 9, 70, 0
10, 179928, Note_on_c, 9, 42, 0
10, 180096, Note_on_c, 9, 42, 92
10, 180096, Note_on_c, 9, 70, 82
10, 180096, Note_on_c, 9, 38, 108
10, 180120, Note_on_c, 9, 38, 0
10, 180120, Note_on_c, 9, 70, 0
10, 180120, Note_on_c, 9, 42, 0
10, 180288, Note_on_c, 9, 42, 72
10, 180288, Note_on_c, 9, 70, 69
10, 180312, Note_on_c, 9, 70, 0
10, 180312, Note_on_c, 9, 42, 0
10, 180480, Note_on_c, 9, 36, 98
10, 180480, Note_on_c, 9, 42, 85
10, 180480, Note_on_c, 9, 70, 76
10, 180504, Note_on_c, 9, 70, 0
10, 180504, Note_on_c, 9, 42, 0
10, 180504, Note_on_c, 9, 36, 0
10, 180672, Note_on_c, 9, 36, 106
10, 180672, Note_on_c, 9, 42, 75
10, 180672, Note_on_c, 9, 70, 69
10, 180696, Note_on_c, 9, 70, 0
10, 180696, Note_on_c, 9, 42, 0
10, 180696, Note_on_c, 9, 36, 0
10, 180864, Note_on_c, 9, 42, 88
10, 180864, Note_on_c, 9, 70, 85
10, 180864, Note_on_c, 9, 38, 113
10, 180888, Note_on_c, 9, 38, 0
10, 180888, Note_on_c, 9, 70, 0
10, 180888, Note_on_c, 9, 42, 0
10, 181056, Note_on_c, 9, 42, 72
10, 181056, Note_on_c, 9, 70, 66
10, 181080, Note_on_c, 9, 70, 0
10, 181080, Note_on_c, 9, 42, 0
10, 181248, Note_on_c, 9, 36, 109
10, 181248, Note_on_c, 9, 42, 88
10, 181248, Note_on_c, 9, 70, 82
10, 181272, Note_on_c, 9, 70, 0
10, 181272, Note_on_c, 9, 42, 0
10, 181272, Note_on_c, 9, 36, 0
10, 181440, Note_on_c, 9, 42, 56
10, 181440, Note_on_c, 9, 70, 64
10, 181464, Note_on_c, 9, 70, 0
10, 181464, Note_on_c, 9, 42, 0
10, 181632, Note_on_c, 9, 42, 94
10, 181632, Note_on_c, 9, 70, 82
10, 181632, Note_on_c, 9, 38, 111
10, 181656, Note_on_c, 9, 38, 0
10, 181656, Note_on_c, 9, 70, 0
10, 181656, Note_on_c, 9, 42, 0
10, 181824, Note_on_c, 9, 42, 52
10, 181824, Note_on_c, 9, 70, 60
10, 181848, Note_on_c, 9, 70, 0
10, 181848, Note_on_c, 9, 42, 0
10, 182016, Note_on_c, 9, 42, 77
10, 182016, Note_on_c, 9, 70, 82
10, 182040, Note_on_c, 9, 70, 0
10, 182040, Note_on_c, 9, 42, 0
10, 182208, Note_on_c, 9, 36, 114
10, 182208, Note_on_c, 9, 42, 88
10, 182208, Note_on_c, 9, 70, 66
10, 182232, Note_on_c, 9, 70, 0
10, 182232, Note_on_c, 9, 42, 0
10, 182232, Note_on_c, 9, 36, 0
10, 182400, Note_on_c, 9, 42, 88
10, 182400, Note_on_c, 9, 70, 85
10, 182400, Note_on_c, 9, 38, 108
10, 182424, Note_on_c, 9, 38, 0
10, 182424, Note_on_c, 9, 70, 0
10, 182424, Note_on_c, 9, 42, 0
10, 182592, Note_on_c, 9, 42, 72
10, 182592, Note_on_c, 9, 70, 62
10, 182616, Note_on_c, 9, 70, 0
10, 182616, Note_on_c, 9, 42, 0
10, 182784, Note_on_c, 9, 36, 114
10, 182784, Note_on_c, 9, 42, 88
10, 182784, Note_on_c, 9, 70, 85
10, 182808, Note_on_c, 9, 70, 0
10, 182808, Note_on_c, 9, 42, 0
10, 182808, Note_on_c, 9, 36, 0
10, 182976, Note_on_c, 9, 42, 69
10, 182976, Note_on_c, 9, 70, 51
10, 183000, Note_on_c, 9, 70, 0
10, 183000, Note_on_c, 9, 42, 0
10, 183168, Note_on_c, 9, 42, 92
10, 183168, Note_on_c, 9, 70, 85
10, 183168, Note_on_c, 9, 38, 111
10, 183192, Note_on_c, 9, 38, 0
10, 183192, Note_on_c, 9, 70, 0
10, 183192, Note_on_c, 9, 42, 0
10, 183360, Note_on_c, 9, 42, 64
10, 183360, Note_on_c, 9, 70, 64
10, 183384, Note_on_c, 9, 70, 0
10, 183384, Note_on_c, 9, 42, 0
10, 183552, Note_on_c, 9, 36, 93
10, 183552, Note_on_c, 9, 42, 85
10, 183552, Note_on_c, 9, 70, 79
10, 183576, Note_on_c, 9, 70, 0
10, 183576, Note_on_c, 9, 42, 0
10, 183576, Note_on_c, 9, 36, 0
10, 183744, Note_on_c, 9, 36, 109
10, 183744, Note_on_c, 9, 42, 77
10, 183744, Note_on_c, 9, 70, 69
10, 183768, Note_on_c, 9, 70, 0
10, 183768, Note_on_c, 9, 42, 0
10, 183768, Note_on_c, 9, 36, 0
10, 183936, Note_on_c, 9, 42, 88
10, 183936, Note_on_c, 9, 70, 82
10, 183936, Note_on_c, 9, 38, 111
10, 183960, Note_on_c, 9, 38, 0
10, 183960, Note_on_c, 9, 70, 0
10, 183960, Note_on_c, 9, 42, 0
10, 184128, Note_on_c, 9, 42, 75
10, 184128, Note_on_c, 9, 70, 58
10, 184152, Note_on_c, 9, 70, 0
10, 184152, Note_on_c, 9, 42, 0
10, 184320, Note_on_c, 9, 36, 109
10, 184320, Note_on_c, 9, 42, 88
10, 184320, Note_on_c, 9, 70, 87
10, 184344, Note_on_c, 9, 70, 0
10, 184344, Note_on_c, 9, 42, 0
10, 184344, Note_on_c, 9, 36, 0
10, 184512, Note_on_c, 9, 42, 69
10, 184512, Note_on_c, 9, 70, 64
10, 184536, Note_on_c, 9, 70, 0
10, 184536, Note_on_c, 9, 42, 0
10, 184704, Note_on_c, 9, 42, 92
10, 184704, Note_on_c, 9, 70, 87
10, 184704, Note_on_c, 9, 38, 106
10, 184728, Note_on_c, 9, 38, 0
10, 184728, Note_on_c, 9, 70, 0
10, 184728, Note_on_c, 9, 42, 0
10, 184896, Note_on_c, 9, 42, 77
10, 184896, Note_on_c, 9, 70, 62
10, 184920, Note_on_c, 9, 70, 0
10, 184920, Note_on_c, 9, 42, 0
10, 185088, Note_on_c, 9, 42, 77
10, 185088, Note_on_c, 9, 70, 82
10, 185112, Note_on_c, 9, 70, 0
10, 185112, Note_on_c, 9, 42, 0
10, 185280, Note_on_c, 9, 36, 106
10, 185280, Note_on_c, 9, 42, 92
10, 185280, Note_on_c, 9, 70, 58
10, 185304, Note_on_c, 9, 70, 0
10, 185304, Note_on_c, 9, 42, 0
10, 185304, Note_on_c, 9, 36, 0
10, 185472, Note_on_c, 9, 42, 88
10, 185472, Note_on_c, 9, 70, 82
10, 185472, Note_on_c, 9, 38, 106
10, 185496, Note_on_c, 9, 38, 0
10, 185496, Note_on_c, 9, 70, 0
10, 185496, Note_on_c, 9, 42, 0
10, 185664, Note_on_c, 9, 42, 75
10, 185664, Note_on_c, 9, 70, 58
10, 185688, Note_on_c, 9, 70, 0
10, 185688, Note_on_c, 9, 42, 0
10, 185856, Note_on_c, 9, 36, 103
10, 185856, Note_on_c, 9, 42, 88
10, 185856, Note_on_c, 9, 70, 85
10, 185880, Note_on_c, 9, 70, 0
10, 185880, Note_on_c, 9, 42, 0
10, 185880, Note_on_c, 9, 36, 0
10, 186048, Note_on_c, 9, 42, 69
10, 186048, Note_on_c, 9, 70, 66
10, 186072, Note_on_c, 9, 70, 0
10, 186072, Note_on_c, 9, 42, 0
10, 186240, Note_on_c, 9, 42, 88
10, 186240, Note_on_c, 9, 70, 82
10, 186240, Note_on_c, 9, 38, 106
10, 186264, Note_on_c, 9, 38, 0
10, 186264, Note_on_c, 9, 70, 0
10, 186264, Note_on_c, 9, 42, 0
10, 186432, Note_on_c, 9, 42, 75
10, 186432, Note_on_c, 9, 70, 64
10, 186456, Note_on_c, 9, 70, 0
10, 186456, Note_on_c, 9, 42, 0
10, 186624, Note_on_c, 9, 36, 98
10, 186624, Note_on_c, 9, 42, 88
10, 186624, Note_on_c, 9, 70, 87
10, 186648, Note_on_c, 9, 70, 0
10, 186648, Note_on_c, 9, 42, 0
10, 186648, Note_on_c, 9, 36, 0
10, 186816, Note_on_c, 9, 36, 103
10, 186816, Note_on_c, 9, 42, 81
10, 186816, Note_on_c, 9, 70, 66
10, 186840, Note_on_c, 9, 70, 0
10, 186840, Note_on_c, 9, 42, 0
10, 186840, Note_on_c, 9, 36, 0
10, 187008, Note_on_c, 9, 42, 94
10, 187008, Note_on_c, 9, 70, 87
10, 187008, Note_on_c, 9, 38, 113
10, 187032, Note_on_c, 9, 38, 0
10, 187032, Note_on_c, 9, 70, 0
10, 187032, Note_on_c, 9, 42, 0
10, 187200, Note_on_c, 9, 70, 66
10, 187224, Note_on_c, 9, 70, 0
10, 187392, Note_on_c, 9, 49, 75
10, 187392, Note_on_c, 9, 36, 109
10, 187416, Note_on_c, 9, 36, 0
10, 187416, Note_on_c, 9, 49, 0
10, 187416, End_track
11, 0, Start_track
11, 0, MIDI_port, 0
11, 0, Title_t, "GYPSY            10 "
11, 0, Program_c, 10, 29
11, 0, Control_c, 10, 10, 36
11, 0, Control_c, 10, 0, 0
11, 0, Control_c, 10, 93, 50
11, 576, Control_c, 10, 7, 91
11, 576, Control_c, 10, 11, 127
11, 89868, Note_on_c, 10, 50, 91
11, 89872, Control_c, 10, 1, 0
11, 89872, Pitch_bend_c, 10, 8192
11, 89956, Note_on_c, 10, 50, 0
11, 90048, Note_on_c, 10, 53, 88
11, 90140, Note_on_c, 10, 53, 0
11, 90244, Note_on_c, 10, 57, 96
11, 90352, Note_on_c, 10, 57, 0
11, 90432, Note_on_c, 10, 62, 88
11, 90536, Note_on_c, 10, 62, 0
11, 90628, Note_on_c, 10, 65, 86
11, 90740, Note_on_c, 10, 65, 0
11, 90824, Note_on_c, 10, 72, 91
11, 90964, Note_on_c, 10, 72, 0
11, 91020, Note_on_c, 10, 76, 96
11, 91140, Note_on_c, 10, 76, 0
11, 91216, Note_on_c, 10, 77, 93
11, 91376, Note_on_c, 10, 77, 0
11, 92940, Note_on_c, 10, 48, 91
11, 93044, Note_on_c, 10, 48, 0
11, 93120, Note_on_c, 10, 52, 91
11, 93220, Note_on_c, 10, 52, 0
11, 93320, Note_on_c, 10, 55, 91
11, 93456, Note_on_c, 10, 55, 0
11, 93512, Note_on_c, 10, 60, 98
11, 93636, Note_on_c, 10, 60, 0
11, 93704, Note_on_c, 10, 67, 83
11, 93828, Note_on_c, 10, 67, 0
11, 93888, Note_on_c, 10, 72, 96
11, 94016, Note_on_c, 10, 72, 0
11, 94080, Note_on_c, 10, 74, 96
11, 94208, Note_on_c, 10, 74, 0
11, 94280, Note_on_c, 10, 76, 96
11, 94428, Note_on_c, 10, 76, 0
11, 96008, Note_on_c, 10, 53, 83
11, 96120, Note_on_c, 10, 53, 0
11, 96192, Note_on_c, 10, 57, 96
11, 96296, Note_on_c, 10, 57, 0
11, 96384, Note_on_c, 10, 60, 96
11, 96508, Note_on_c, 10, 60, 0
11, 96584, Note_on_c, 10, 65, 88
11, 96712, Note_on_c, 10, 65, 0
11, 96780, Note_on_c, 10, 65, 83
11, 96900, Note_on_c, 10, 65, 0
11, 96980, Note_on_c, 10, 69, 93
11, 97088, Note_on_c, 10, 69, 0
11, 97164, Note_on_c, 10, 72, 93
11, 97296, Note_on_c, 10, 72, 0
11, 97360, Note_on_c, 10, 77, 101
11, 97496, Note_on_c, 10, 77, 0
11, 99072, Note_on_c, 10, 58, 93
11, 99192, Note_on_c, 10, 58, 0
11, 99272, Note_on_c, 10, 62, 73
11, 99388, Note_on_c, 10, 62, 0
11, 99468, Note_on_c, 10, 65, 88
11, 99632, Note_on_c, 10, 65, 0
11, 99652, Note_on_c, 10, 67, 91
11, 99764, Note_on_c, 10, 67, 0
11, 99848, Note_on_c, 10, 65, 93
11, 100004, Note_on_c, 10, 65, 0
11, 100048, Note_on_c, 10, 70, 76
11, 100148, Note_on_c, 10, 70, 0
11, 100224, Note_on_c, 10, 74, 88
11, 100368, Note_on_c, 10, 74, 0
11, 100424, Note_on_c, 10, 77, 96
11, 100576, Note_on_c, 10, 77, 0
11, 102156, Note_on_c, 10, 50, 91
11, 102244, Note_on_c, 10, 50, 0
11, 102336, Note_on_c, 10, 53, 88
11, 102428, Note_on_c, 10, 53, 0
11, 102532, Note_on_c, 10, 57, 96
11, 102640, Note_on_c, 10, 57, 0
11, 102720, Note_on_c, 10, 62, 88
11, 102824, Note_on_c, 10, 62, 0
11, 102916, Note_on_c, 10, 65, 86
11, 103028, Note_on_c, 10, 65, 0
11, 103112, Note_on_c, 10, 72, 91
11, 103252, Note_on_c, 10, 72, 0
11, 103308, Note_on_c, 10, 76, 96
11, 103428, Note_on_c, 10, 76, 0
11, 103504, Note_on_c, 10, 77, 93
11, 103664, Note_on_c, 10, 77, 0
11, 105228, Note_on_c, 10, 48, 91
11, 105332, Note_on_c, 10, 48, 0
11, 105408, Note_on_c, 10, 52, 91
11, 105508, Note_on_c, 10, 52, 0
11, 105608, Note_on_c, 10, 55, 91
11, 105744, Note_on_c, 10, 55, 0
11, 105800, Note_on_c, 10, 60, 98
11, 105924, Note_on_c, 10, 60, 0
11, 105992, Note_on_c, 10, 67, 83
11, 106116, Note_on_c, 10, 67, 0
11, 106176, Note_on_c, 10, 72, 96
11, 106304, Note_on_c, 10, 72, 0
11, 106368, Note_on_c, 10, 74, 96
11, 106496, Note_on_c, 10, 74, 0
11, 106568, Note_on_c, 10, 76, 96
11, 106716, Note_on_c, 10, 76, 0
11, 108296, Note_on_c, 10, 53, 83
11, 108408, Note_on_c, 10, 53, 0
11, 108480, Note_on_c, 10, 57, 96
11, 108584, Note_on_c, 10, 57, 0
11, 108672, Note_on_c, 10, 60, 96
11, 108796, Note_on_c, 10, 60, 0
11, 108872, Note_on_c, 10, 65, 88
11, 109000, Note_on_c, 10, 65, 0
11, 109068, Note_on_c, 10, 65, 83
11, 109188, Note_on_c, 10, 65, 0
11, 109268, Note_on_c, 10, 69, 93
11, 109376, Note_on_c, 10, 69, 0
11, 109452, Note_on_c, 10, 72, 93
11, 109584, Note_on_c, 10, 72, 0
11, 109648, Note_on_c, 10, 77, 101
11, 109784, Note_on_c, 10, 77, 0
11, 111360, Note_on_c, 10, 58, 93
11, 111480, Note_on_c, 10, 58, 0
11, 111560, Note_on_c, 10, 62, 73
11, 111676, Note_on_c, 10, 62, 0
11, 111756, Note_on_c, 10, 65, 88
11, 111920, Note_on_c, 10, 65, 0
11, 111940, Note_on_c, 10, 67, 91
11, 112052, Note_on_c, 10, 67, 0
11, 112136, Note_on_c, 10, 65, 93
11, 112292, Note_on_c, 10, 65, 0
11, 112336, Note_on_c, 10, 70, 76
11, 112436, Note_on_c, 10, 70, 0
11, 112512, Note_on_c, 10, 74, 88
11, 112656, Note_on_c, 10, 74, 0
11, 112712, Note_on_c, 10, 77, 96
11, 112864, Note_on_c, 10, 77, 0
11, 114440, Note_on_c, 10, 62, 98
11, 114552, Note_on_c, 10, 62, 0
11, 114640, Note_on_c, 10, 65, 91
11, 114736, Note_on_c, 10, 65, 0
11, 114828, Note_on_c, 10, 69, 88
11, 114972, Note_on_c, 10, 69, 0
11, 115016, Note_on_c, 10, 74, 91
11, 115116, Note_on_c, 10, 74, 0
11, 115212, Note_on_c, 10, 65, 86
11, 115336, Note_on_c, 10, 65, 0
11, 115400, Note_on_c, 10, 69, 81
11, 115516, Note_on_c, 10, 69, 0
11, 115596, Note_on_c, 10, 72, 86
11, 115736, Note_on_c, 10, 72, 0
11, 115784, Note_on_c, 10, 77, 83
11, 115972, Note_on_c, 10, 76, 76
11, 115996, Note_on_c, 10, 77, 0
11, 116160, Note_on_c, 10, 74, 79
11, 116188, Note_on_c, 10, 76, 0
11, 116312, Note_on_c, 10, 74, 0
11, 117496, Note_on_c, 10, 48, 93
11, 117616, Note_on_c, 10, 48, 0
11, 117684, Note_on_c, 10, 52, 91
11, 117812, Note_on_c, 10, 52, 0
11, 117884, Note_on_c, 10, 55, 93
11, 118052, Note_on_c, 10, 55, 0
11, 118080, Note_on_c, 10, 60, 93
11, 118152, Note_on_c, 10, 60, 0
11, 118272, Note_on_c, 10, 60, 96
11, 118460, Note_on_c, 10, 64, 88
11, 118548, Note_on_c, 10, 60, 0
11, 118572, Note_on_c, 10, 64, 0
11, 118664, Note_on_c, 10, 67, 83
11, 118840, Note_on_c, 10, 72, 96
11, 118848, Note_on_c, 10, 67, 0
11, 118956, Note_on_c, 10, 72, 0
11, 119048, Note_on_c, 10, 76, 98
11, 119172, Note_on_c, 10, 76, 0
11, 119240, Note_on_c, 10, 74, 83
11, 119388, Note_on_c, 10, 74, 0
11, 119424, Note_on_c, 10, 65, 76
11, 119592, Note_on_c, 10, 65, 0
11, 119608, Note_on_c, 10, 67, 81
11, 119788, Note_on_c, 10, 67, 0
11, 119808, Note_on_c, 10, 65, 81
11, 120104, Control_c, 10, 1, 75
11, 120656, Note_on_c, 10, 65, 0
11, 120720, Control_c, 10, 1, 0
11, 120720, End_track
12, 0, Start_track
12, 0, MIDI_port, 0
12, 0, Title_t, "GYPSY            11 "
12, 0, Program_c, 11, 8
12, 0, Control_c, 11, 10, 64
12, 0, Control_c, 11, 0, 0
12, 0, Control_c, 11, 93, 0
12, 596, Control_c, 11, 7, 100
12, 596, Control_c, 11, 11, 127
12, 125952, Note_on_c, 11, 81, 93
12, 125956, Control_c, 11, 1, 0
12, 125956, Pitch_bend_c, 11, 8192
12, 126244, Note_on_c, 11, 81, 0
12, 126352, Note_on_c, 11, 84, 93
12, 126444, Note_on_c, 11, 84, 0
12, 126736, Note_on_c, 11, 86, 90
12, 126816, Note_on_c, 11, 86, 0
12, 127108, Note_on_c, 11, 89, 98
12, 127192, Note_on_c, 11, 89, 0
12, 127484, Note_on_c, 11, 86, 95
12, 127552, Note_on_c, 11, 86, 0
12, 127872, Note_on_c, 11, 84, 96
12, 127968, Note_on_c, 11, 84, 0
12, 128256, Note_on_c, 11, 81, 94
12, 128424, Note_on_c, 11, 81, 0
12, 128644, Note_on_c, 11, 79, 90
12, 128700, Note_on_c, 11, 79, 0
12, 129020, Note_on_c, 11, 81, 93
12, 129096, Note_on_c, 11, 81, 0
12, 129408, Note_on_c, 11, 84, 96
12, 129484, Note_on_c, 11, 84, 0
12, 129808, Note_on_c, 11, 86, 93
12, 129864, Note_on_c, 11, 86, 0
12, 130192, Note_on_c, 11, 89, 96
12, 130260, Note_on_c, 11, 89, 0
12, 130564, Note_on_c, 11, 86, 96
12, 130628, Note_on_c, 11, 86, 0
12, 130944, Note_on_c, 11, 84, 94
12, 131024, Note_on_c, 11, 84, 0
12, 131332, Note_on_c, 11, 81, 93
12, 131436, Note_on_c, 11, 81, 0
12, 131728, Note_on_c, 11, 79, 93
12, 131792, Note_on_c, 11, 79, 0
12, 138244, Note_on_c, 11, 81, 95
12, 138620, Note_on_c, 11, 84, 98
12, 138624, Note_on_c, 11, 81, 0
12, 138948, Note_on_c, 11, 84, 0
12, 139024, Note_on_c, 11, 86, 98
12, 139112, Note_on_c, 11, 86, 0
12, 139392, Note_on_c, 11, 89, 91
12, 139440, Note_on_c, 11, 89, 0
12, 139780, Note_on_c, 11, 86, 100
12, 139840, Note_on_c, 11, 86, 0
12, 140188, Note_on_c, 11, 84, 96
12, 140268, Note_on_c, 11, 84, 0
12, 140540, Note_on_c, 11, 81, 96
12, 140604, Note_on_c, 11, 81, 0
12, 140940, Note_on_c, 11, 79, 94
12, 140984, Note_on_c, 11, 79, 0
12, 141332, Note_on_c, 11, 81, 91
12, 141384, Note_on_c, 11, 81, 0
12, 141696, Note_on_c, 11, 84, 100
12, 141768, Note_on_c, 11, 84, 0
12, 142092, Note_on_c, 11, 86, 96
12, 142144, Note_on_c, 11, 86, 0
12, 142468, Note_on_c, 11, 89, 98
12, 142524, Note_on_c, 11, 89, 0
12, 142840, Note_on_c, 11, 86, 95
12, 142900, Note_on_c, 11, 86, 0
12, 143240, Note_on_c, 11, 84, 91
12, 143316, Note_on_c, 11, 84, 0
12, 143616, Note_on_c, 11, 81, 90
12, 143692, Note_on_c, 11, 81, 0
12, 144000, Note_on_c, 11, 79, 93
12, 144052, Note_on_c, 11, 79, 0
12, 144392, Note_on_c, 11, 81, 93
12, 144456, Note_on_c, 11, 81, 0
12, 144768, Note_on_c, 11, 84, 96
12, 144836, Note_on_c, 11, 84, 0
12, 145156, Note_on_c, 11, 86, 95
12, 145220, Note_on_c, 11, 86, 0
12, 145540, Note_on_c, 11, 89, 99
12, 145600, Note_on_c, 11, 89, 0
12, 145920, Note_on_c, 11, 86, 96
12, 145988, Note_on_c, 11, 86, 0
12, 146304, Note_on_c, 11, 84, 96
12, 146380, Note_on_c, 11, 84, 0
12, 146680, Note_on_c, 11, 81, 94
12, 146768, Note_on_c, 11, 81, 0
12, 147072, Note_on_c, 11, 79, 90
12, 147120, Note_on_c, 11, 79, 0
12, 147472, Note_on_c, 11, 81, 89
12, 147520, Note_on_c, 11, 81, 0
12, 147840, Note_on_c, 11, 84, 95
12, 147900, Note_on_c, 11, 84, 0
12, 148220, Note_on_c, 11, 86, 98
12, 148268, Note_on_c, 11, 86, 0
12, 148612, Note_on_c, 11, 89, 96
12, 148664, Note_on_c, 11, 89, 0
12, 148988, Note_on_c, 11, 86, 100
12, 149056, Note_on_c, 11, 86, 0
12, 149376, Note_on_c, 11, 84, 95
12, 149448, Note_on_c, 11, 84, 0
12, 149772, Note_on_c, 11, 81, 96
12, 149852, Note_on_c, 11, 81, 0
12, 150156, Note_on_c, 11, 79, 94
12, 150212, Note_on_c, 11, 79, 0
12, 156676, Note_on_c, 11, 81, 98
12, 156728, Note_on_c, 11, 81, 0
12, 157052, Note_on_c, 11, 84, 98
12, 157120, Note_on_c, 11, 84, 0
12, 157444, Note_on_c, 11, 86, 96
12, 157496, Note_on_c, 11, 86, 0
12, 157832, Note_on_c, 11, 89, 98
12, 157892, Note_on_c, 11, 89, 0
12, 158208, Note_on_c, 11, 86, 96
12, 158256, Note_on_c, 11, 86, 0
12, 158592, Note_on_c, 11, 84, 96
12, 158668, Note_on_c, 11, 84, 0
12, 158988, Note_on_c, 11, 81, 91
12, 159044, Note_on_c, 11, 81, 0
12, 159356, Note_on_c, 11, 79, 93
12, 159408, Note_on_c, 11, 79, 0
12, 159768, Note_on_c, 11, 81, 91
12, 159800, Note_on_c, 11, 81, 0
12, 160144, Note_on_c, 11, 84, 95
12, 160208, Note_on_c, 11, 84, 0
12, 160508, Note_on_c, 11, 86, 95
12, 160552, Note_on_c, 11, 86, 0
12, 160900, Note_on_c, 11, 89, 91
12, 160952, Note_on_c, 11, 89, 0
12, 161272, Note_on_c, 11, 86, 100
12, 161324, Note_on_c, 11, 86, 0
12, 161672, Note_on_c, 11, 84, 95
12, 161744, Note_on_c, 11, 84, 0
12, 162064, Note_on_c, 11, 81, 93
12, 162128, Note_on_c, 11, 81, 0
12, 162432, Note_on_c, 11, 79, 90
12, 162480, Note_on_c, 11, 79, 0
12, 168968, Note_on_c, 11, 81, 88
12, 169016, Note_on_c, 11, 81, 0
12, 169348, Note_on_c, 11, 84, 91
12, 169424, Note_on_c, 11, 84, 0
12, 169720, Note_on_c, 11, 86, 96
12, 169780, Note_on_c, 11, 86, 0
12, 170116, Note_on_c, 11, 89, 93
12, 170176, Note_on_c, 11, 89, 0
12, 170484, Note_on_c, 11, 86, 98
12, 170552, Note_on_c, 11, 86, 0
12, 170864, Note_on_c, 11, 84, 93
12, 170940, Note_on_c, 11, 84, 0
12, 171268, Note_on_c, 11, 81, 89
12, 171360, Note_on_c, 11, 81, 0
12, 171640, Note_on_c, 11, 79, 88
12, 171700, Note_on_c, 11, 79, 0
12, 172048, Note_on_c, 11, 81, 85
12, 172096, Note_on_c, 11, 81, 0
12, 172428, Note_on_c, 11, 84, 90
12, 172504, Note_on_c, 11, 84, 0
12, 172804, Note_on_c, 11, 86, 93
12, 172860, Note_on_c, 11, 86, 0
12, 173184, Note_on_c, 11, 89, 91
12, 173256, Note_on_c, 11, 89, 0
12, 173568, Note_on_c, 11, 86, 95
12, 173636, Note_on_c, 11, 86, 0
12, 173956, Note_on_c, 11, 84, 90
12, 174036, Note_on_c, 11, 84, 0
12, 174348, Note_on_c, 11, 81, 88
12, 174420, Note_on_c, 11, 81, 0
12, 174728, Note_on_c, 11, 79, 85
12, 174800, Note_on_c, 11, 79, 0
12, 175112, Note_on_c, 11, 81, 88
12, 175160, Note_on_c, 11, 81, 0
12, 175492, Note_on_c, 11, 84, 91
12, 175568, Note_on_c, 11, 84, 0
12, 175864, Note_on_c, 11, 86, 96
12, 175924, Note_on_c, 11, 86, 0
12, 176260, Note_on_c, 11, 89, 93
12, 176320, Note_on_c, 11, 89, 0
12, 176628, Note_on_c, 11, 86, 98
12, 176696, Note_on_c, 11, 86, 0
12, 177008, Note_on_c, 11, 84, 93
12, 177084, Note_on_c, 11, 84, 0
12, 177412, Note_on_c, 11, 81, 89
12, 177504, Note_on_c, 11, 81, 0
12, 177784, Note_on_c, 11, 79, 88
12, 177844, Note_on_c, 11, 79, 0
12, 178192, Note_on_c, 11, 81, 85
12, 178240, Note_on_c, 11, 81, 0
12, 178572, Note_on_c, 11, 84, 90
12, 178648, Note_on_c, 11, 84, 0
12, 178948, Note_on_c, 11, 86, 93
12, 179004, Note_on_c, 11, 86, 0
12, 179328, Note_on_c, 11, 89, 91
12, 179400, Note_on_c, 11, 89, 0
12, 179712, Note_on_c, 11, 86, 95
12, 179780, Note_on_c, 11, 86, 0
12, 180100, Note_on_c, 11, 84, 90
12, 180180, Note_on_c, 11, 84, 0
12, 180492, Note_on_c, 11, 81, 88
12, 180564, Note_on_c, 11, 81, 0
12, 180872, Note_on_c, 11, 79, 85
12, 180944, Note_on_c, 11, 79, 0
12, 181256, Note_on_c, 11, 81, 88
12, 181308, Note_on_c, 11, 81, 0
12, 181624, Note_on_c, 11, 84, 93
12, 181692, Note_on_c, 11, 84, 0
12, 182012, Note_on_c, 11, 86, 95
12, 182064, Note_on_c, 11, 86, 0
12, 182396, Note_on_c, 11, 89, 93
12, 182456, Note_on_c, 11, 89, 0
12, 182780, Note_on_c, 11, 86, 96
12, 182852, Note_on_c, 11, 86, 0
12, 183168, Note_on_c, 11, 84, 91
12, 183244, Note_on_c, 11, 84, 0
12, 183548, Note_on_c, 11, 81, 94
12, 183644, Note_on_c, 11, 81, 0
12, 183940, Note_on_c, 11, 79, 88
12, 183992, Note_on_c, 11, 79, 0
12, 184340, Note_on_c, 11, 81, 89
12, 184388, Note_on_c, 11, 81, 0
12, 184716, Note_on_c, 11, 84, 91
12, 184796, Note_on_c, 11, 84, 0
12, 185088, Note_on_c, 11, 86, 94
12, 185140, Note_on_c, 11, 86, 0
12, 185476, Note_on_c, 11, 89, 93
12, 185544, Note_on_c, 11, 89, 0
12, 185856, Note_on_c, 11, 86, 93
12, 185924, Note_on_c, 11, 86, 0
12, 186236, Note_on_c, 11, 84, 93
12, 186336, Note_on_c, 11, 84, 0
12, 186628, Note_on_c, 11, 81, 88
12, 186728, Note_on_c, 11, 81, 0
12, 187024, Note_on_c, 11, 79, 93
12, 187100, Note_on_c, 11, 79, 0
12, 187100, End_track
0, 0, End_of_file
