0, 0, Header, 1, 6, 120
1, 0, Start_track
1, 0, Title_t, "untitled"
1, 0, Copyright_t, "Copyright © 1998 by Cakewalk"
1, 0, Text_t, "Cakewalk"
1, 0, Time_signature, 4, 2, 24, 8
1, 0, Key_signature, 0, "major"
1, 0, Tempo, 454545
1, 480, Marker_t, "A 1"
1, 4320, Marker_t, "Baixo"
1, 8160, Marker_t, "Tema A1"
1, 12000, Marker_t, "Tema B 1"
1, 15840, Marker_t, "Tema A1"
1, 19680, Marker_t, "Bridge"
1, 20640, Marker_t, "C 1"
1, 28320, Marker_t, "Solo A"
1, 28320, End_track
2, 0, Start_track
2, 0, MIDI_port, 1
2, 0, Title_t, "Bateria"
2, 0, Program_c, 9, 8
2, 0, Control_c, 9, 7, 120
2, 0, Control_c, 9, 10, 64
2, 0, Control_c, 9, 93, 0
2, 0, Control_c, 9, 91, 30
2, 239, Note_on_c, 9, 40, 74
2, 246, Note_on_c, 9, 40, 74
2, 254, Note_on_c, 9, 40, 0
2, 261, Note_on_c, 9, 40, 0
2, 300, Note_on_c, 9, 36, 76
2, 315, Note_on_c, 9, 36, 0
2, 359, Note_on_c, 9, 43, 76
2, 366, Note_on_c, 9, 43, 78
2, 374, Note_on_c, 9, 43, 0
2, 381, Note_on_c, 9, 43, 0
2, 420, Note_on_c, 9, 36, 80
2, 435, Note_on_c, 9, 36, 0
2, 480, Note_on_c, 9, 36, 100
2, 480, Note_on_c, 9, 46, 80
2, 480, Note_on_c, 9, 49, 86
2, 495, Note_on_c, 9, 49, 0
2, 495, Note_on_c, 9, 46, 0
2, 495, Note_on_c, 9, 36, 0
2, 600, Note_on_c, 9, 40, 100
2, 600, Note_on_c, 9, 46, 80
2, 615, Note_on_c, 9, 46, 0
2, 615, Note_on_c, 9, 40, 0
2, 720, Note_on_c, 9, 46, 80
2, 735, Note_on_c, 9, 46, 0
2, 840, Note_on_c, 9, 40, 100
2, 840, Note_on_c, 9, 46, 80
2, 855, Note_on_c, 9, 46, 0
2, 855, Note_on_c, 9, 40, 0
2, 960, Note_on_c, 9, 46, 80
2, 975, Note_on_c, 9, 46, 0
2, 1080, Note_on_c, 9, 46, 80
2, 1080, Note_on_c, 9, 40, 100
2, 1095, Note_on_c, 9, 40, 0
2, 1095, Note_on_c, 9, 46, 0
2, 1200, Note_on_c, 9, 46, 80
2, 1215, Note_on_c, 9, 46, 0
2, 1320, Note_on_c, 9, 46, 80
2, 1320, Note_on_c, 9, 40, 100
2, 1335, Note_on_c, 9, 40, 0
2, 1335, Note_on_c, 9, 46, 0
2, 1440, Note_on_c, 9, 46, 80
2, 1455, Note_on_c, 9, 46, 0
2, 1560, Note_on_c, 9, 46, 80
2, 1560, Note_on_c, 9, 40, 100
2, 1575, Note_on_c, 9, 40, 0
2, 1575, Note_on_c, 9, 46, 0
2, 1680, Note_on_c, 9, 46, 80
2, 1695, Note_on_c, 9, 46, 0
2, 1800, Note_on_c, 9, 40, 100
2, 1800, Note_on_c, 9, 46, 80
2, 1815, Note_on_c, 9, 46, 0
2, 1815, Note_on_c, 9, 40, 0
2, 1920, Note_on_c, 9, 46, 80
2, 1935, Note_on_c, 9, 46, 0
2, 2040, Note_on_c, 9, 40, 100
2, 2040, Note_on_c, 9, 46, 80
2, 2055, Note_on_c, 9, 46, 0
2, 2055, Note_on_c, 9, 40, 0
2, 2160, Note_on_c, 9, 46, 80
2, 2175, Note_on_c, 9, 46, 0
2, 2280, Note_on_c, 9, 46, 80
2, 2280, Note_on_c, 9, 40, 100
2, 2295, Note_on_c, 9, 40, 0
2, 2295, Note_on_c, 9, 46, 0
2, 2340, Note_on_c, 9, 36, 100
2, 2355, Note_on_c, 9, 36, 0
2, 2400, Note_on_c, 9, 46, 80
2, 2400, Note_on_c, 9, 36, 100
2, 2415, Note_on_c, 9, 36, 0
2, 2415, Note_on_c, 9, 46, 0
2, 2460, Note_on_c, 9, 36, 100
2, 2475, Note_on_c, 9, 36, 0
2, 2520, Note_on_c, 9, 40, 100
2, 2520, Note_on_c, 9, 46, 80
2, 2535, Note_on_c, 9, 46, 0
2, 2535, Note_on_c, 9, 40, 0
2, 2640, Note_on_c, 9, 46, 80
2, 2655, Note_on_c, 9, 46, 0
2, 2760, Note_on_c, 9, 40, 100
2, 2760, Note_on_c, 9, 46, 80
2, 2775, Note_on_c, 9, 46, 0
2, 2775, Note_on_c, 9, 40, 0
2, 2880, Note_on_c, 9, 46, 80
2, 2880, Note_on_c, 9, 36, 100
2, 2895, Note_on_c, 9, 36, 0
2, 2895, Note_on_c, 9, 46, 0
2, 3000, Note_on_c, 9, 40, 100
2, 3000, Note_on_c, 9, 46, 80
2, 3015, Note_on_c, 9, 46, 0
2, 3015, Note_on_c, 9, 40, 0
2, 3090, Note_on_c, 9, 36, 91
2, 3105, Note_on_c, 9, 36, 0
2, 3120, Note_on_c, 9, 46, 80
2, 3135, Note_on_c, 9, 46, 0
2, 3240, Note_on_c, 9, 46, 80
2, 3240, Note_on_c, 9, 40, 100
2, 3255, Note_on_c, 9, 40, 0
2, 3255, Note_on_c, 9, 46, 0
2, 3360, Note_on_c, 9, 36, 100
2, 3360, Note_on_c, 9, 46, 80
2, 3375, Note_on_c, 9, 46, 0
2, 3375, Note_on_c, 9, 36, 0
2, 3480, Note_on_c, 9, 46, 80
2, 3480, Note_on_c, 9, 40, 100
2, 3495, Note_on_c, 9, 40, 0
2, 3495, Note_on_c, 9, 46, 0
2, 3600, Note_on_c, 9, 46, 80
2, 3615, Note_on_c, 9, 46, 0
2, 3720, Note_on_c, 9, 40, 100
2, 3720, Note_on_c, 9, 46, 80
2, 3735, Note_on_c, 9, 46, 0
2, 3735, Note_on_c, 9, 40, 0
2, 3840, Note_on_c, 9, 46, 80
2, 3855, Note_on_c, 9, 46, 0
2, 3960, Note_on_c, 9, 46, 80
2, 3960, Note_on_c, 9, 40, 100
2, 3975, Note_on_c, 9, 40, 0
2, 3975, Note_on_c, 9, 46, 0
2, 4080, Note_on_c, 9, 46, 80
2, 4095, Note_on_c, 9, 46, 0
2, 4140, Note_on_c, 9, 36, 100
2, 4155, Note_on_c, 9, 36, 0
2, 4200, Note_on_c, 9, 46, 80
2, 4200, Note_on_c, 9, 40, 100
2, 4215, Note_on_c, 9, 40, 0
2, 4215, Note_on_c, 9, 46, 0
2, 4260, Note_on_c, 9, 36, 100
2, 4275, Note_on_c, 9, 36, 0
2, 4320, Note_on_c, 9, 36, 100
2, 4320, Note_on_c, 9, 49, 100
2, 4320, Note_on_c, 9, 46, 80
2, 4335, Note_on_c, 9, 46, 0
2, 4335, Note_on_c, 9, 49, 0
2, 4335, Note_on_c, 9, 36, 0
2, 4440, Note_on_c, 9, 46, 80
2, 4440, Note_on_c, 9, 40, 100
2, 4455, Note_on_c, 9, 40, 0
2, 4455, Note_on_c, 9, 46, 0
2, 4560, Note_on_c, 9, 36, 100
2, 4560, Note_on_c, 9, 46, 80
2, 4575, Note_on_c, 9, 46, 0
2, 4575, Note_on_c, 9, 36, 0
2, 4680, Note_on_c, 9, 46, 80
2, 4680, Note_on_c, 9, 40, 100
2, 4695, Note_on_c, 9, 40, 0
2, 4695, Note_on_c, 9, 46, 0
2, 4740, Note_on_c, 9, 36, 100
2, 4755, Note_on_c, 9, 36, 0
2, 4800, Note_on_c, 9, 46, 80
2, 4800, Note_on_c, 9, 36, 100
2, 4815, Note_on_c, 9, 36, 0
2, 4815, Note_on_c, 9, 46, 0
2, 4920, Note_on_c, 9, 46, 80
2, 4920, Note_on_c, 9, 40, 100
2, 4935, Note_on_c, 9, 40, 0
2, 4935, Note_on_c, 9, 46, 0
2, 5040, Note_on_c, 9, 36, 100
2, 5040, Note_on_c, 9, 46, 80
2, 5055, Note_on_c, 9, 46, 0
2, 5055, Note_on_c, 9, 36, 0
2, 5160, Note_on_c, 9, 40, 100
2, 5160, Note_on_c, 9, 46, 80
2, 5175, Note_on_c, 9, 46, 0
2, 5175, Note_on_c, 9, 40, 0
2, 5280, Note_on_c, 9, 46, 80
2, 5295, Note_on_c, 9, 46, 0
2, 5340, Note_on_c, 9, 36, 100
2, 5355, Note_on_c, 9, 36, 0
2, 5400, Note_on_c, 9, 46, 80
2, 5400, Note_on_c, 9, 40, 100
2, 5415, Note_on_c, 9, 40, 0
2, 5415, Note_on_c, 9, 46, 0
2, 5520, Note_on_c, 9, 46, 80
2, 5520, Note_on_c, 9, 36, 100
2, 5535, Note_on_c, 9, 36, 0
2, 5535, Note_on_c, 9, 46, 0
2, 5640, Note_on_c, 9, 40, 100
2, 5640, Note_on_c, 9, 46, 80
2, 5655, Note_on_c, 9, 46, 0
2, 5655, Note_on_c, 9, 40, 0
2, 5700, Note_on_c, 9, 36, 100
2, 5715, Note_on_c, 9, 36, 0
2, 5760, Note_on_c, 9, 46, 80
2, 5760, Note_on_c, 9, 36, 100
2, 5775, Note_on_c, 9, 36, 0
2, 5775, Note_on_c, 9, 46, 0
2, 5880, Note_on_c, 9, 46, 80
2, 5880, Note_on_c, 9, 40, 100
2, 5895, Note_on_c, 9, 40, 0
2, 5895, Note_on_c, 9, 46, 0
2, 6000, Note_on_c, 9, 46, 80
2, 6000, Note_on_c, 9, 36, 100
2, 6015, Note_on_c, 9, 36, 0
2, 6015, Note_on_c, 9, 46, 0
2, 6120, Note_on_c, 9, 40, 100
2, 6120, Note_on_c, 9, 46, 80
2, 6135, Note_on_c, 9, 46, 0
2, 6135, Note_on_c, 9, 40, 0
2, 6240, Note_on_c, 9, 46, 80
2, 6255, Note_on_c, 9, 46, 0
2, 6300, Note_on_c, 9, 36, 100
2, 6315, Note_on_c, 9, 36, 0
2, 6360, Note_on_c, 9, 46, 80
2, 6360, Note_on_c, 9, 40, 100
2, 6375, Note_on_c, 9, 40, 0
2, 6375, Note_on_c, 9, 46, 0
2, 6480, Note_on_c, 9, 36, 100
2, 6480, Note_on_c, 9, 46, 80
2, 6495, Note_on_c, 9, 46, 0
2, 6495, Note_on_c, 9, 36, 0
2, 6600, Note_on_c, 9, 40, 100
2, 6600, Note_on_c, 9, 46, 80
2, 6615, Note_on_c, 9, 46, 0
2, 6615, Note_on_c, 9, 40, 0
2, 6660, Note_on_c, 9, 36, 100
2, 6675, Note_on_c, 9, 36, 0
2, 6720, Note_on_c, 9, 36, 100
2, 6720, Note_on_c, 9, 46, 80
2, 6735, Note_on_c, 9, 46, 0
2, 6735, Note_on_c, 9, 36, 0
2, 6840, Note_on_c, 9, 46, 80
2, 6840, Note_on_c, 9, 40, 100
2, 6855, Note_on_c, 9, 40, 0
2, 6855, Note_on_c, 9, 46, 0
2, 6960, Note_on_c, 9, 36, 100
2, 6960, Note_on_c, 9, 46, 80
2, 6975, Note_on_c, 9, 46, 0
2, 6975, Note_on_c, 9, 36, 0
2, 7080, Note_on_c, 9, 40, 100
2, 7080, Note_on_c, 9, 46, 80
2, 7095, Note_on_c, 9, 46, 0
2, 7095, Note_on_c, 9, 40, 0
2, 7200, Note_on_c, 9, 46, 80
2, 7215, Note_on_c, 9, 46, 0
2, 7260, Note_on_c, 9, 36, 100
2, 7275, Note_on_c, 9, 36, 0
2, 7320, Note_on_c, 9, 46, 80
2, 7320, Note_on_c, 9, 40, 100
2, 7335, Note_on_c, 9, 40, 0
2, 7335, Note_on_c, 9, 46, 0
2, 7440, Note_on_c, 9, 36, 100
2, 7440, Note_on_c, 9, 46, 80
2, 7455, Note_on_c, 9, 46, 0
2, 7455, Note_on_c, 9, 36, 0
2, 7560, Note_on_c, 9, 46, 80
2, 7560, Note_on_c, 9, 40, 100
2, 7575, Note_on_c, 9, 40, 0
2, 7575, Note_on_c, 9, 46, 0
2, 7620, Note_on_c, 9, 36, 100
2, 7635, Note_on_c, 9, 36, 0
2, 7680, Note_on_c, 9, 46, 80
2, 7680, Note_on_c, 9, 36, 100
2, 7695, Note_on_c, 9, 36, 0
2, 7695, Note_on_c, 9, 46, 0
2, 7800, Note_on_c, 9, 46, 80
2, 7800, Note_on_c, 9, 40, 100
2, 7815, Note_on_c, 9, 40, 0
2, 7815, Note_on_c, 9, 46, 0
2, 7920, Note_on_c, 9, 36, 100
2, 7920, Note_on_c, 9, 46, 80
2, 7935, Note_on_c, 9, 46, 0
2, 7935, Note_on_c, 9, 36, 0
2, 7980, Note_on_c, 9, 40, 100
2, 7995, Note_on_c, 9, 40, 0
2, 8040, Note_on_c, 9, 40, 100
2, 8055, Note_on_c, 9, 40, 0
2, 8100, Note_on_c, 9, 40, 100
2, 8115, Note_on_c, 9, 40, 0
2, 8130, Note_on_c, 9, 40, 100
2, 8145, Note_on_c, 9, 40, 0
2, 8160, Note_on_c, 9, 36, 100
2, 8160, Note_on_c, 9, 55, 71
2, 8160, Note_on_c, 9, 46, 80
2, 8175, Note_on_c, 9, 46, 0
2, 8175, Note_on_c, 9, 55, 0
2, 8175, Note_on_c, 9, 36, 0
2, 8280, Note_on_c, 9, 46, 80
2, 8280, Note_on_c, 9, 40, 100
2, 8295, Note_on_c, 9, 40, 0
2, 8295, Note_on_c, 9, 46, 0
2, 8400, Note_on_c, 9, 36, 100
2, 8400, Note_on_c, 9, 46, 80
2, 8415, Note_on_c, 9, 46, 0
2, 8415, Note_on_c, 9, 36, 0
2, 8520, Note_on_c, 9, 46, 80
2, 8520, Note_on_c, 9, 40, 100
2, 8535, Note_on_c, 9, 40, 0
2, 8535, Note_on_c, 9, 46, 0
2, 8580, Note_on_c, 9, 36, 100
2, 8595, Note_on_c, 9, 36, 0
2, 8640, Note_on_c, 9, 46, 80
2, 8655, Note_on_c, 9, 46, 0
2, 8700, Note_on_c, 9, 36, 100
2, 8715, Note_on_c, 9, 36, 0
2, 8760, Note_on_c, 9, 46, 80
2, 8760, Note_on_c, 9, 40, 100
2, 8775, Note_on_c, 9, 40, 0
2, 8775, Note_on_c, 9, 46, 0
2, 8880, Note_on_c, 9, 36, 100
2, 8880, Note_on_c, 9, 46, 80
2, 8895, Note_on_c, 9, 46, 0
2, 8895, Note_on_c, 9, 36, 0
2, 9000, Note_on_c, 9, 40, 100
2, 9000, Note_on_c, 9, 46, 80
2, 9015, Note_on_c, 9, 46, 0
2, 9015, Note_on_c, 9, 40, 0
2, 9120, Note_on_c, 9, 46, 80
2, 9120, Note_on_c, 9, 36, 100
2, 9135, Note_on_c, 9, 36, 0
2, 9135, Note_on_c, 9, 46, 0
2, 9240, Note_on_c, 9, 40, 100
2, 9240, Note_on_c, 9, 46, 80
2, 9255, Note_on_c, 9, 46, 0
2, 9255, Note_on_c, 9, 40, 0
2, 9360, Note_on_c, 9, 46, 80
2, 9360, Note_on_c, 9, 36, 100
2, 9375, Note_on_c, 9, 36, 0
2, 9375, Note_on_c, 9, 46, 0
2, 9480, Note_on_c, 9, 40, 100
2, 9480, Note_on_c, 9, 46, 80
2, 9495, Note_on_c, 9, 46, 0
2, 9495, Note_on_c, 9, 40, 0
2, 9540, Note_on_c, 9, 36, 100
2, 9555, Note_on_c, 9, 36, 0
2, 9600, Note_on_c, 9, 46, 80
2, 9600, Note_on_c, 9, 36, 100
2, 9615, Note_on_c, 9, 36, 0
2, 9615, Note_on_c, 9, 46, 0
2, 9720, Note_on_c, 9, 46, 80
2, 9720, Note_on_c, 9, 40, 100
2, 9735, Note_on_c, 9, 40, 0
2, 9735, Note_on_c, 9, 46, 0
2, 9840, Note_on_c, 9, 46, 80
2, 9840, Note_on_c, 9, 36, 100
2, 9855, Note_on_c, 9, 36, 0
2, 9855, Note_on_c, 9, 46, 0
2, 9960, Note_on_c, 9, 46, 80
2, 9960, Note_on_c, 9, 40, 100
2, 9975, Note_on_c, 9, 40, 0
2, 9975, Note_on_c, 9, 46, 0
2, 10080, Note_on_c, 9, 46, 80
2, 10080, Note_on_c, 9, 36, 100
2, 10095, Note_on_c, 9, 36, 0
2, 10095, Note_on_c, 9, 46, 0
2, 10200, Note_on_c, 9, 40, 100
2, 10200, Note_on_c, 9, 46, 80
2, 10215, Note_on_c, 9, 46, 0
2, 10215, Note_on_c, 9, 40, 0
2, 10320, Note_on_c, 9, 36, 100
2, 10320, Note_on_c, 9, 46, 80
2, 10335, Note_on_c, 9, 46, 0
2, 10335, Note_on_c, 9, 36, 0
2, 10440, Note_on_c, 9, 40, 100
2, 10440, Note_on_c, 9, 46, 80
2, 10455, Note_on_c, 9, 46, 0
2, 10455, Note_on_c, 9, 40, 0
2, 10500, Note_on_c, 9, 36, 100
2, 10515, Note_on_c, 9, 36, 0
2, 10560, Note_on_c, 9, 46, 80
2, 10560, Note_on_c, 9, 36, 100
2, 10575, Note_on_c, 9, 36, 0
2, 10575, Note_on_c, 9, 46, 0
2, 10680, Note_on_c, 9, 40, 100
2, 10680, Note_on_c, 9, 46, 80
2, 10695, Note_on_c, 9, 46, 0
2, 10695, Note_on_c, 9, 40, 0
2, 10800, Note_on_c, 9, 36, 100
2, 10800, Note_on_c, 9, 46, 80
2, 10815, Note_on_c, 9, 46, 0
2, 10815, Note_on_c, 9, 36, 0
2, 10920, Note_on_c, 9, 40, 100
2, 10920, Note_on_c, 9, 46, 80
2, 10935, Note_on_c, 9, 46, 0
2, 10935, Note_on_c, 9, 40, 0
2, 11040, Note_on_c, 9, 36, 100
2, 11040, Note_on_c, 9, 46, 80
2, 11055, Note_on_c, 9, 46, 0
2, 11055, Note_on_c, 9, 36, 0
2, 11160, Note_on_c, 9, 40, 100
2, 11160, Note_on_c, 9, 46, 80
2, 11175, Note_on_c, 9, 46, 0
2, 11175, Note_on_c, 9, 40, 0
2, 11280, Note_on_c, 9, 36, 100
2, 11280, Note_on_c, 9, 46, 80
2, 11295, Note_on_c, 9, 46, 0
2, 11295, Note_on_c, 9, 36, 0
2, 11400, Note_on_c, 9, 40, 100
2, 11400, Note_on_c, 9, 46, 80
2, 11415, Note_on_c, 9, 46, 0
2, 11415, Note_on_c, 9, 40, 0
2, 11460, Note_on_c, 9, 36, 100
2, 11475, Note_on_c, 9, 36, 0
2, 11520, Note_on_c, 9, 46, 80
2, 11520, Note_on_c, 9, 36, 100
2, 11535, Note_on_c, 9, 36, 0
2, 11535, Note_on_c, 9, 46, 0
2, 11640, Note_on_c, 9, 46, 80
2, 11640, Note_on_c, 9, 40, 100
2, 11655, Note_on_c, 9, 40, 0
2, 11655, Note_on_c, 9, 46, 0
2, 11760, Note_on_c, 9, 36, 100
2, 11760, Note_on_c, 9, 46, 80
2, 11775, Note_on_c, 9, 46, 0
2, 11775, Note_on_c, 9, 36, 0
2, 11880, Note_on_c, 9, 46, 80
2, 11880, Note_on_c, 9, 40, 100
2, 11895, Note_on_c, 9, 40, 0
2, 11895, Note_on_c, 9, 46, 0
2, 12000, Note_on_c, 9, 53, 80
2, 12000, Note_on_c, 9, 36, 100
2, 12000, Note_on_c, 9, 55, 71
2, 12015, Note_on_c, 9, 55, 0
2, 12015, Note_on_c, 9, 36, 0
2, 12015, Note_on_c, 9, 53, 0
2, 12060, Note_on_c, 9, 44, 60
2, 12075, Note_on_c, 9, 44, 0
2, 12090, Note_on_c, 9, 36, 60
2, 12105, Note_on_c, 9, 36, 0
2, 12120, Note_on_c, 9, 40, 100
2, 12120, Note_on_c, 9, 53, 80
2, 12135, Note_on_c, 9, 53, 0
2, 12135, Note_on_c, 9, 40, 0
2, 12180, Note_on_c, 9, 44, 60
2, 12195, Note_on_c, 9, 44, 0
2, 12210, Note_on_c, 9, 36, 60
2, 12225, Note_on_c, 9, 36, 0
2, 12240, Note_on_c, 9, 36, 100
2, 12240, Note_on_c, 9, 53, 80
2, 12255, Note_on_c, 9, 53, 0
2, 12255, Note_on_c, 9, 36, 0
2, 12300, Note_on_c, 9, 44, 60
2, 12315, Note_on_c, 9, 44, 0
2, 12330, Note_on_c, 9, 36, 60
2, 12345, Note_on_c, 9, 36, 0
2, 12360, Note_on_c, 9, 53, 80
2, 12360, Note_on_c, 9, 40, 100
2, 12375, Note_on_c, 9, 40, 0
2, 12375, Note_on_c, 9, 53, 0
2, 12420, Note_on_c, 9, 44, 60
2, 12435, Note_on_c, 9, 44, 0
2, 12480, Note_on_c, 9, 53, 80
2, 12495, Note_on_c, 9, 53, 0
2, 12540, Note_on_c, 9, 44, 60
2, 12555, Note_on_c, 9, 44, 0
2, 12570, Note_on_c, 9, 36, 60
2, 12585, Note_on_c, 9, 36, 0
2, 12600, Note_on_c, 9, 40, 100
2, 12600, Note_on_c, 9, 53, 80
2, 12615, Note_on_c, 9, 53, 0
2, 12615, Note_on_c, 9, 40, 0
2, 12660, Note_on_c, 9, 44, 60
2, 12675, Note_on_c, 9, 44, 0
2, 12690, Note_on_c, 9, 36, 60
2, 12705, Note_on_c, 9, 36, 0
2, 12720, Note_on_c, 9, 36, 100
2, 12720, Note_on_c, 9, 53, 80
2, 12735, Note_on_c, 9, 53, 0
2, 12735, Note_on_c, 9, 36, 0
2, 12780, Note_on_c, 9, 44, 60
2, 12795, Note_on_c, 9, 44, 0
2, 12810, Note_on_c, 9, 36, 60
2, 12825, Note_on_c, 9, 36, 0
2, 12840, Note_on_c, 9, 40, 100
2, 12840, Note_on_c, 9, 53, 80
2, 12855, Note_on_c, 9, 53, 0
2, 12855, Note_on_c, 9, 40, 0
2, 12900, Note_on_c, 9, 36, 90
2, 12900, Note_on_c, 9, 44, 60
2, 12915, Note_on_c, 9, 44, 0
2, 12915, Note_on_c, 9, 36, 0
2, 12960, Note_on_c, 9, 53, 80
2, 12960, Note_on_c, 9, 36, 100
2, 12975, Note_on_c, 9, 36, 0
2, 12975, Note_on_c, 9, 53, 0
2, 13020, Note_on_c, 9, 44, 60
2, 13035, Note_on_c, 9, 44, 0
2, 13050, Note_on_c, 9, 36, 60
2, 13065, Note_on_c, 9, 36, 0
2, 13080, Note_on_c, 9, 40, 100
2, 13080, Note_on_c, 9, 53, 80
2, 13095, Note_on_c, 9, 53, 0
2, 13095, Note_on_c, 9, 40, 0
2, 13140, Note_on_c, 9, 44, 60
2, 13155, Note_on_c, 9, 44, 0
2, 13170, Note_on_c, 9, 36, 60
2, 13185, Note_on_c, 9, 36, 0
2, 13200, Note_on_c, 9, 36, 100
2, 13200, Note_on_c, 9, 53, 80
2, 13215, Note_on_c, 9, 53, 0
2, 13215, Note_on_c, 9, 36, 0
2, 13260, Note_on_c, 9, 44, 60
2, 13275, Note_on_c, 9, 44, 0
2, 13290, Note_on_c, 9, 36, 60
2, 13305, Note_on_c, 9, 36, 0
2, 13320, Note_on_c, 9, 40, 100
2, 13320, Note_on_c, 9, 55, 60
2, 13335, Note_on_c, 9, 55, 0
2, 13335, Note_on_c, 9, 40, 0
2, 13380, Note_on_c, 9, 40, 100
2, 13380, Note_on_c, 9, 44, 60
2, 13380, Note_on_c, 9, 55, 60
2, 13395, Note_on_c, 9, 55, 0
2, 13395, Note_on_c, 9, 44, 0
2, 13395, Note_on_c, 9, 40, 0
2, 13440, Note_on_c, 9, 53, 80
2, 13455, Note_on_c, 9, 53, 0
2, 13500, Note_on_c, 9, 44, 60
2, 13515, Note_on_c, 9, 44, 0
2, 13530, Note_on_c, 9, 36, 60
2, 13545, Note_on_c, 9, 36, 0
2, 13560, Note_on_c, 9, 53, 80
2, 13560, Note_on_c, 9, 40, 100
2, 13575, Note_on_c, 9, 40, 0
2, 13575, Note_on_c, 9, 53, 0
2, 13620, Note_on_c, 9, 44, 60
2, 13635, Note_on_c, 9, 44, 0
2, 13650, Note_on_c, 9, 36, 60
2, 13665, Note_on_c, 9, 36, 0
2, 13680, Note_on_c, 9, 53, 80
2, 13680, Note_on_c, 9, 36, 100
2, 13695, Note_on_c, 9, 36, 0
2, 13695, Note_on_c, 9, 53, 0
2, 13740, Note_on_c, 9, 44, 60
2, 13755, Note_on_c, 9, 44, 0
2, 13770, Note_on_c, 9, 36, 60
2, 13785, Note_on_c, 9, 36, 0
2, 13800, Note_on_c, 9, 40, 100
2, 13800, Note_on_c, 9, 53, 80
2, 13800, Note_on_c, 9, 55, 71
2, 13815, Note_on_c, 9, 55, 0
2, 13815, Note_on_c, 9, 53, 0
2, 13815, Note_on_c, 9, 40, 0
2, 13860, Note_on_c, 9, 36, 90
2, 13860, Note_on_c, 9, 44, 60
2, 13875, Note_on_c, 9, 44, 0
2, 13875, Note_on_c, 9, 36, 0
2, 13920, Note_on_c, 9, 53, 80
2, 13920, Note_on_c, 9, 36, 100
2, 13935, Note_on_c, 9, 36, 0
2, 13935, Note_on_c, 9, 53, 0
2, 13980, Note_on_c, 9, 44, 60
2, 13995, Note_on_c, 9, 44, 0
2, 14010, Note_on_c, 9, 36, 60
2, 14025, Note_on_c, 9, 36, 0
2, 14040, Note_on_c, 9, 53, 80
2, 14040, Note_on_c, 9, 40, 100
2, 14055, Note_on_c, 9, 40, 0
2, 14055, Note_on_c, 9, 53, 0
2, 14100, Note_on_c, 9, 44, 60
2, 14115, Note_on_c, 9, 44, 0
2, 14130, Note_on_c, 9, 36, 60
2, 14145, Note_on_c, 9, 36, 0
2, 14160, Note_on_c, 9, 53, 80
2, 14160, Note_on_c, 9, 36, 100
2, 14175, Note_on_c, 9, 36, 0
2, 14175, Note_on_c, 9, 53, 0
2, 14220, Note_on_c, 9, 44, 60
2, 14235, Note_on_c, 9, 44, 0
2, 14280, Note_on_c, 9, 53, 80
2, 14280, Note_on_c, 9, 40, 100
2, 14295, Note_on_c, 9, 40, 0
2, 14295, Note_on_c, 9, 53, 0
2, 14340, Note_on_c, 9, 36, 100
2, 14340, Note_on_c, 9, 44, 60
2, 14355, Note_on_c, 9, 44, 0
2, 14355, Note_on_c, 9, 36, 0
2, 14400, Note_on_c, 9, 53, 80
2, 14415, Note_on_c, 9, 53, 0
2, 14460, Note_on_c, 9, 44, 60
2, 14475, Note_on_c, 9, 44, 0
2, 14490, Note_on_c, 9, 36, 60
2, 14505, Note_on_c, 9, 36, 0
2, 14520, Note_on_c, 9, 53, 80
2, 14520, Note_on_c, 9, 40, 100
2, 14535, Note_on_c, 9, 40, 0
2, 14535, Note_on_c, 9, 53, 0
2, 14580, Note_on_c, 9, 44, 60
2, 14595, Note_on_c, 9, 44, 0
2, 14610, Note_on_c, 9, 36, 60
2, 14625, Note_on_c, 9, 36, 0
2, 14640, Note_on_c, 9, 36, 100
2, 14640, Note_on_c, 9, 53, 80
2, 14655, Note_on_c, 9, 53, 0
2, 14655, Note_on_c, 9, 36, 0
2, 14700, Note_on_c, 9, 44, 60
2, 14715, Note_on_c, 9, 44, 0
2, 14730, Note_on_c, 9, 36, 60
2, 14745, Note_on_c, 9, 36, 0
2, 14760, Note_on_c, 9, 53, 80
2, 14760, Note_on_c, 9, 40, 100
2, 14775, Note_on_c, 9, 40, 0
2, 14775, Note_on_c, 9, 53, 0
2, 14820, Note_on_c, 9, 44, 60
2, 14820, Note_on_c, 9, 36, 90
2, 14835, Note_on_c, 9, 36, 0
2, 14835, Note_on_c, 9, 44, 0
2, 14880, Note_on_c, 9, 53, 80
2, 14880, Note_on_c, 9, 36, 100
2, 14895, Note_on_c, 9, 36, 0
2, 14895, Note_on_c, 9, 53, 0
2, 14940, Note_on_c, 9, 44, 60
2, 14955, Note_on_c, 9, 44, 0
2, 14970, Note_on_c, 9, 36, 60
2, 14985, Note_on_c, 9, 36, 0
2, 15000, Note_on_c, 9, 53, 80
2, 15000, Note_on_c, 9, 40, 100
2, 15015, Note_on_c, 9, 40, 0
2, 15015, Note_on_c, 9, 53, 0
2, 15060, Note_on_c, 9, 44, 60
2, 15075, Note_on_c, 9, 44, 0
2, 15090, Note_on_c, 9, 36, 60
2, 15105, Note_on_c, 9, 36, 0
2, 15120, Note_on_c, 9, 36, 100
2, 15120, Note_on_c, 9, 53, 80
2, 15135, Note_on_c, 9, 53, 0
2, 15135, Note_on_c, 9, 36, 0
2, 15180, Note_on_c, 9, 44, 60
2, 15195, Note_on_c, 9, 44, 0
2, 15240, Note_on_c, 9, 53, 80
2, 15240, Note_on_c, 9, 40, 100
2, 15255, Note_on_c, 9, 40, 0
2, 15255, Note_on_c, 9, 53, 0
2, 15300, Note_on_c, 9, 36, 100
2, 15300, Note_on_c, 9, 44, 60
2, 15315, Note_on_c, 9, 44, 0
2, 15315, Note_on_c, 9, 36, 0
2, 15360, Note_on_c, 9, 53, 80
2, 15375, Note_on_c, 9, 53, 0
2, 15420, Note_on_c, 9, 44, 60
2, 15435, Note_on_c, 9, 44, 0
2, 15450, Note_on_c, 9, 36, 60
2, 15465, Note_on_c, 9, 36, 0
2, 15480, Note_on_c, 9, 53, 80
2, 15480, Note_on_c, 9, 40, 100
2, 15495, Note_on_c, 9, 40, 0
2, 15495, Note_on_c, 9, 53, 0
2, 15540, Note_on_c, 9, 44, 60
2, 15555, Note_on_c, 9, 44, 0
2, 15570, Note_on_c, 9, 36, 60
2, 15585, Note_on_c, 9, 36, 0
2, 15600, Note_on_c, 9, 53, 80
2, 15600, Note_on_c, 9, 36, 100
2, 15615, Note_on_c, 9, 36, 0
2, 15615, Note_on_c, 9, 53, 0
2, 15660, Note_on_c, 9, 44, 60
2, 15675, Note_on_c, 9, 44, 0
2, 15690, Note_on_c, 9, 36, 60
2, 15705, Note_on_c, 9, 36, 0
2, 15720, Note_on_c, 9, 40, 100
2, 15720, Note_on_c, 9, 53, 80
2, 15735, Note_on_c, 9, 53, 0
2, 15735, Note_on_c, 9, 40, 0
2, 15780, Note_on_c, 9, 36, 90
2, 15780, Note_on_c, 9, 44, 60
2, 15795, Note_on_c, 9, 44, 0
2, 15795, Note_on_c, 9, 36, 0
2, 15840, Note_on_c, 9, 49, 100
2, 15840, Note_on_c, 9, 36, 100
2, 15840, Note_on_c, 9, 46, 80
2, 15855, Note_on_c, 9, 46, 0
2, 15855, Note_on_c, 9, 36, 0
2, 15855, Note_on_c, 9, 49, 0
2, 15960, Note_on_c, 9, 40, 100
2, 15960, Note_on_c, 9, 46, 80
2, 15975, Note_on_c, 9, 46, 0
2, 15975, Note_on_c, 9, 40, 0
2, 16080, Note_on_c, 9, 46, 80
2, 16080, Note_on_c, 9, 36, 100
2, 16095, Note_on_c, 9, 36, 0
2, 16095, Note_on_c, 9, 46, 0
2, 16200, Note_on_c, 9, 46, 80
2, 16200, Note_on_c, 9, 40, 100
2, 16215, Note_on_c, 9, 40, 0
2, 16215, Note_on_c, 9, 46, 0
2, 16260, Note_on_c, 9, 36, 100
2, 16275, Note_on_c, 9, 36, 0
2, 16320, Note_on_c, 9, 46, 80
2, 16335, Note_on_c, 9, 46, 0
2, 16380, Note_on_c, 9, 36, 100
2, 16395, Note_on_c, 9, 36, 0
2, 16440, Note_on_c, 9, 46, 80
2, 16440, Note_on_c, 9, 40, 100
2, 16455, Note_on_c, 9, 40, 0
2, 16455, Note_on_c, 9, 46, 0
2, 16560, Note_on_c, 9, 46, 80
2, 16560, Note_on_c, 9, 36, 100
2, 16575, Note_on_c, 9, 36, 0
2, 16575, Note_on_c, 9, 46, 0
2, 16680, Note_on_c, 9, 40, 100
2, 16680, Note_on_c, 9, 46, 80
2, 16695, Note_on_c, 9, 46, 0
2, 16695, Note_on_c, 9, 40, 0
2, 16800, Note_on_c, 9, 46, 80
2, 16815, Note_on_c, 9, 46, 0
2, 16860, Note_on_c, 9, 36, 100
2, 16875, Note_on_c, 9, 36, 0
2, 16920, Note_on_c, 9, 46, 80
2, 16920, Note_on_c, 9, 40, 100
2, 16935, Note_on_c, 9, 40, 0
2, 16935, Note_on_c, 9, 46, 0
2, 17040, Note_on_c, 9, 46, 80
2, 17040, Note_on_c, 9, 36, 100
2, 17055, Note_on_c, 9, 36, 0
2, 17055, Note_on_c, 9, 46, 0
2, 17160, Note_on_c, 9, 46, 80
2, 17160, Note_on_c, 9, 40, 100
2, 17175, Note_on_c, 9, 40, 0
2, 17175, Note_on_c, 9, 46, 0
2, 17220, Note_on_c, 9, 36, 100
2, 17235, Note_on_c, 9, 36, 0
2, 17280, Note_on_c, 9, 46, 80
2, 17295, Note_on_c, 9, 46, 0
2, 17340, Note_on_c, 9, 36, 100
2, 17355, Note_on_c, 9, 36, 0
2, 17400, Note_on_c, 9, 40, 100
2, 17400, Note_on_c, 9, 46, 80
2, 17415, Note_on_c, 9, 46, 0
2, 17415, Note_on_c, 9, 40, 0
2, 17520, Note_on_c, 9, 36, 100
2, 17520, Note_on_c, 9, 46, 80
2, 17535, Note_on_c, 9, 46, 0
2, 17535, Note_on_c, 9, 36, 0
2, 17640, Note_on_c, 9, 46, 80
2, 17640, Note_on_c, 9, 40, 100
2, 17655, Note_on_c, 9, 40, 0
2, 17655, Note_on_c, 9, 46, 0
2, 17760, Note_on_c, 9, 36, 100
2, 17760, Note_on_c, 9, 46, 80
2, 17775, Note_on_c, 9, 46, 0
2, 17775, Note_on_c, 9, 36, 0
2, 17880, Note_on_c, 9, 40, 100
2, 17880, Note_on_c, 9, 46, 80
2, 17895, Note_on_c, 9, 46, 0
2, 17895, Note_on_c, 9, 40, 0
2, 18000, Note_on_c, 9, 46, 80
2, 18000, Note_on_c, 9, 36, 100
2, 18015, Note_on_c, 9, 36, 0
2, 18015, Note_on_c, 9, 46, 0
2, 18120, Note_on_c, 9, 40, 100
2, 18120, Note_on_c, 9, 46, 80
2, 18135, Note_on_c, 9, 46, 0
2, 18135, Note_on_c, 9, 40, 0
2, 18180, Note_on_c, 9, 36, 100
2, 18195, Note_on_c, 9, 36, 0
2, 18240, Note_on_c, 9, 46, 80
2, 18255, Note_on_c, 9, 46, 0
2, 18300, Note_on_c, 9, 36, 100
2, 18315, Note_on_c, 9, 36, 0
2, 18360, Note_on_c, 9, 40, 100
2, 18360, Note_on_c, 9, 46, 80
2, 18375, Note_on_c, 9, 46, 0
2, 18375, Note_on_c, 9, 40, 0
2, 18480, Note_on_c, 9, 36, 100
2, 18480, Note_on_c, 9, 46, 80
2, 18495, Note_on_c, 9, 46, 0
2, 18495, Note_on_c, 9, 36, 0
2, 18600, Note_on_c, 9, 40, 100
2, 18600, Note_on_c, 9, 46, 80
2, 18615, Note_on_c, 9, 46, 0
2, 18615, Note_on_c, 9, 40, 0
2, 18720, Note_on_c, 9, 46, 80
2, 18735, Note_on_c, 9, 46, 0
2, 18780, Note_on_c, 9, 36, 100
2, 18795, Note_on_c, 9, 36, 0
2, 18840, Note_on_c, 9, 46, 80
2, 18840, Note_on_c, 9, 40, 100
2, 18855, Note_on_c, 9, 40, 0
2, 18855, Note_on_c, 9, 46, 0
2, 18960, Note_on_c, 9, 36, 100
2, 18960, Note_on_c, 9, 46, 80
2, 18975, Note_on_c, 9, 46, 0
2, 18975, Note_on_c, 9, 36, 0
2, 19080, Note_on_c, 9, 40, 100
2, 19080, Note_on_c, 9, 46, 80
2, 19095, Note_on_c, 9, 46, 0
2, 19095, Note_on_c, 9, 40, 0
2, 19140, Note_on_c, 9, 36, 100
2, 19155, Note_on_c, 9, 36, 0
2, 19200, Note_on_c, 9, 46, 80
2, 19215, Note_on_c, 9, 46, 0
2, 19260, Note_on_c, 9, 36, 100
2, 19275, Note_on_c, 9, 36, 0
2, 19290, Note_on_c, 9, 40, 100
2, 19305, Note_on_c, 9, 40, 0
2, 19320, Note_on_c, 9, 40, 100
2, 19320, Note_on_c, 9, 46, 80
2, 19335, Note_on_c, 9, 46, 0
2, 19335, Note_on_c, 9, 40, 0
2, 19380, Note_on_c, 9, 40, 100
2, 19395, Note_on_c, 9, 40, 0
2, 19440, Note_on_c, 9, 36, 100
2, 19440, Note_on_c, 9, 46, 80
2, 19455, Note_on_c, 9, 46, 0
2, 19455, Note_on_c, 9, 36, 0
2, 19500, Note_on_c, 9, 40, 100
2, 19515, Note_on_c, 9, 40, 0
2, 19560, Note_on_c, 9, 46, 80
2, 19560, Note_on_c, 9, 40, 100
2, 19575, Note_on_c, 9, 40, 0
2, 19575, Note_on_c, 9, 46, 0
2, 19590, Note_on_c, 9, 40, 100
2, 19605, Note_on_c, 9, 40, 0
2, 19680, Note_on_c, 9, 36, 100
2, 19680, Note_on_c, 9, 49, 70
2, 19680, Note_on_c, 9, 46, 80
2, 19695, Note_on_c, 9, 46, 0
2, 19695, Note_on_c, 9, 49, 0
2, 19695, Note_on_c, 9, 36, 0
2, 19800, Note_on_c, 9, 40, 100
2, 19800, Note_on_c, 9, 46, 80
2, 19815, Note_on_c, 9, 46, 0
2, 19815, Note_on_c, 9, 40, 0
2, 19920, Note_on_c, 9, 49, 70
2, 19920, Note_on_c, 9, 36, 100
2, 19935, Note_on_c, 9, 36, 0
2, 19935, Note_on_c, 9, 49, 0
2, 20040, Note_on_c, 9, 40, 100
2, 20040, Note_on_c, 9, 46, 80
2, 20055, Note_on_c, 9, 46, 0
2, 20055, Note_on_c, 9, 40, 0
2, 20160, Note_on_c, 9, 49, 70
2, 20160, Note_on_c, 9, 36, 100
2, 20175, Note_on_c, 9, 36, 0
2, 20175, Note_on_c, 9, 49, 0
2, 20280, Note_on_c, 9, 46, 80
2, 20295, Note_on_c, 9, 46, 0
2, 20400, Note_on_c, 9, 40, 100
2, 20415, Note_on_c, 9, 40, 0
2, 20430, Note_on_c, 9, 40, 100
2, 20445, Note_on_c, 9, 40, 0
2, 20490, Note_on_c, 9, 40, 100
2, 20505, Note_on_c, 9, 40, 0
2, 20520, Note_on_c, 9, 40, 100
2, 20535, Note_on_c, 9, 40, 0
2, 20580, Note_on_c, 9, 43, 64
2, 20595, Note_on_c, 9, 43, 0
2, 20610, Note_on_c, 9, 43, 72
2, 20625, Note_on_c, 9, 43, 0
2, 20640, Note_on_c, 9, 49, 70
2, 20640, Note_on_c, 9, 46, 80
2, 20640, Note_on_c, 9, 36, 100
2, 20655, Note_on_c, 9, 36, 0
2, 20655, Note_on_c, 9, 46, 0
2, 20655, Note_on_c, 9, 49, 0
2, 20730, Note_on_c, 9, 36, 100
2, 20745, Note_on_c, 9, 36, 0
2, 20760, Note_on_c, 9, 46, 80
2, 20760, Note_on_c, 9, 40, 100
2, 20775, Note_on_c, 9, 40, 0
2, 20775, Note_on_c, 9, 46, 0
2, 20880, Note_on_c, 9, 46, 80
2, 20895, Note_on_c, 9, 46, 0
2, 21000, Note_on_c, 9, 46, 80
2, 21000, Note_on_c, 9, 40, 100
2, 21015, Note_on_c, 9, 40, 0
2, 21015, Note_on_c, 9, 46, 0
2, 21090, Note_on_c, 9, 36, 72
2, 21105, Note_on_c, 9, 36, 0
2, 21120, Note_on_c, 9, 36, 100
2, 21120, Note_on_c, 9, 46, 80
2, 21135, Note_on_c, 9, 46, 0
2, 21135, Note_on_c, 9, 36, 0
2, 21210, Note_on_c, 9, 36, 100
2, 21225, Note_on_c, 9, 36, 0
2, 21240, Note_on_c, 9, 46, 80
2, 21240, Note_on_c, 9, 40, 100
2, 21255, Note_on_c, 9, 40, 0
2, 21255, Note_on_c, 9, 46, 0
2, 21330, Note_on_c, 9, 36, 72
2, 21345, Note_on_c, 9, 36, 0
2, 21360, Note_on_c, 9, 36, 100
2, 21360, Note_on_c, 9, 46, 80
2, 21375, Note_on_c, 9, 46, 0
2, 21375, Note_on_c, 9, 36, 0
2, 21420, Note_on_c, 9, 36, 100
2, 21435, Note_on_c, 9, 36, 0
2, 21480, Note_on_c, 9, 46, 80
2, 21480, Note_on_c, 9, 40, 100
2, 21495, Note_on_c, 9, 40, 0
2, 21495, Note_on_c, 9, 46, 0
2, 21540, Note_on_c, 9, 36, 100
2, 21555, Note_on_c, 9, 36, 0
2, 21600, Note_on_c, 9, 46, 80
2, 21600, Note_on_c, 9, 36, 100
2, 21615, Note_on_c, 9, 36, 0
2, 21615, Note_on_c, 9, 46, 0
2, 21690, Note_on_c, 9, 36, 100
2, 21705, Note_on_c, 9, 36, 0
2, 21720, Note_on_c, 9, 40, 100
2, 21720, Note_on_c, 9, 46, 80
2, 21735, Note_on_c, 9, 46, 0
2, 21735, Note_on_c, 9, 40, 0
2, 21840, Note_on_c, 9, 46, 80
2, 21855, Note_on_c, 9, 46, 0
2, 21960, Note_on_c, 9, 46, 80
2, 21960, Note_on_c, 9, 40, 100
2, 21975, Note_on_c, 9, 40, 0
2, 21975, Note_on_c, 9, 46, 0
2, 22050, Note_on_c, 9, 36, 72
2, 22065, Note_on_c, 9, 36, 0
2, 22080, Note_on_c, 9, 46, 80
2, 22080, Note_on_c, 9, 36, 100
2, 22095, Note_on_c, 9, 36, 0
2, 22095, Note_on_c, 9, 46, 0
2, 22170, Note_on_c, 9, 36, 100
2, 22185, Note_on_c, 9, 36, 0
2, 22200, Note_on_c, 9, 46, 80
2, 22200, Note_on_c, 9, 40, 100
2, 22215, Note_on_c, 9, 40, 0
2, 22215, Note_on_c, 9, 46, 0
2, 22320, Note_on_c, 9, 36, 100
2, 22320, Note_on_c, 9, 46, 80
2, 22335, Note_on_c, 9, 46, 0
2, 22335, Note_on_c, 9, 36, 0
2, 22380, Note_on_c, 9, 36, 100
2, 22395, Note_on_c, 9, 36, 0
2, 22440, Note_on_c, 9, 46, 80
2, 22440, Note_on_c, 9, 40, 100
2, 22455, Note_on_c, 9, 40, 0
2, 22455, Note_on_c, 9, 46, 0
2, 22500, Note_on_c, 9, 36, 100
2, 22515, Note_on_c, 9, 36, 0
2, 22560, Note_on_c, 9, 46, 80
2, 22560, Note_on_c, 9, 36, 100
2, 22575, Note_on_c, 9, 36, 0
2, 22575, Note_on_c, 9, 46, 0
2, 22650, Note_on_c, 9, 36, 100
2, 22665, Note_on_c, 9, 36, 0
2, 22680, Note_on_c, 9, 40, 100
2, 22680, Note_on_c, 9, 46, 80
2, 22695, Note_on_c, 9, 46, 0
2, 22695, Note_on_c, 9, 40, 0
2, 22800, Note_on_c, 9, 46, 80
2, 22815, Note_on_c, 9, 46, 0
2, 22920, Note_on_c, 9, 46, 80
2, 22920, Note_on_c, 9, 40, 100
2, 22935, Note_on_c, 9, 40, 0
2, 22935, Note_on_c, 9, 46, 0
2, 23010, Note_on_c, 9, 36, 72
2, 23025, Note_on_c, 9, 36, 0
2, 23040, Note_on_c, 9, 46, 80
2, 23040, Note_on_c, 9, 36, 100
2, 23055, Note_on_c, 9, 36, 0
2, 23055, Note_on_c, 9, 46, 0
2, 23130, Note_on_c, 9, 36, 100
2, 23145, Note_on_c, 9, 36, 0
2, 23160, Note_on_c, 9, 46, 80
2, 23160, Note_on_c, 9, 40, 100
2, 23175, Note_on_c, 9, 40, 0
2, 23175, Note_on_c, 9, 46, 0
2, 23280, Note_on_c, 9, 36, 100
2, 23280, Note_on_c, 9, 46, 80
2, 23295, Note_on_c, 9, 46, 0
2, 23295, Note_on_c, 9, 36, 0
2, 23340, Note_on_c, 9, 36, 100
2, 23355, Note_on_c, 9, 36, 0
2, 23400, Note_on_c, 9, 46, 80
2, 23400, Note_on_c, 9, 40, 100
2, 23415, Note_on_c, 9, 40, 0
2, 23415, Note_on_c, 9, 46, 0
2, 23460, Note_on_c, 9, 36, 100
2, 23475, Note_on_c, 9, 36, 0
2, 23520, Note_on_c, 9, 46, 80
2, 23520, Note_on_c, 9, 36, 100
2, 23535, Note_on_c, 9, 36, 0
2, 23535, Note_on_c, 9, 46, 0
2, 23610, Note_on_c, 9, 36, 100
2, 23625, Note_on_c, 9, 36, 0
2, 23640, Note_on_c, 9, 40, 100
2, 23640, Note_on_c, 9, 46, 80
2, 23655, Note_on_c, 9, 46, 0
2, 23655, Note_on_c, 9, 40, 0
2, 23760, Note_on_c, 9, 46, 80
2, 23775, Note_on_c, 9, 46, 0
2, 23880, Note_on_c, 9, 40, 100
2, 23880, Note_on_c, 9, 46, 80
2, 23895, Note_on_c, 9, 46, 0
2, 23895, Note_on_c, 9, 40, 0
2, 23970, Note_on_c, 9, 36, 72
2, 23985, Note_on_c, 9, 36, 0
2, 24000, Note_on_c, 9, 46, 80
2, 24000, Note_on_c, 9, 36, 100
2, 24015, Note_on_c, 9, 36, 0
2, 24015, Note_on_c, 9, 46, 0
2, 24090, Note_on_c, 9, 36, 100
2, 24105, Note_on_c, 9, 36, 0
2, 24120, Note_on_c, 9, 40, 100
2, 24120, Note_on_c, 9, 46, 80
2, 24135, Note_on_c, 9, 46, 0
2, 24135, Note_on_c, 9, 40, 0
2, 24240, Note_on_c, 9, 36, 100
2, 24240, Note_on_c, 9, 46, 80
2, 24255, Note_on_c, 9, 46, 0
2, 24255, Note_on_c, 9, 36, 0
2, 24300, Note_on_c, 9, 36, 100
2, 24315, Note_on_c, 9, 36, 0
2, 24360, Note_on_c, 9, 40, 100
2, 24360, Note_on_c, 9, 46, 80
2, 24375, Note_on_c, 9, 46, 0
2, 24375, Note_on_c, 9, 40, 0
2, 24420, Note_on_c, 9, 36, 100
2, 24435, Note_on_c, 9, 36, 0
2, 24480, Note_on_c, 9, 36, 100
2, 24480, Note_on_c, 9, 46, 80
2, 24495, Note_on_c, 9, 46, 0
2, 24495, Note_on_c, 9, 36, 0
2, 24570, Note_on_c, 9, 36, 100
2, 24585, Note_on_c, 9, 36, 0
2, 24600, Note_on_c, 9, 40, 100
2, 24600, Note_on_c, 9, 46, 80
2, 24615, Note_on_c, 9, 46, 0
2, 24615, Note_on_c, 9, 40, 0
2, 24720, Note_on_c, 9, 46, 80
2, 24735, Note_on_c, 9, 46, 0
2, 24840, Note_on_c, 9, 40, 100
2, 24840, Note_on_c, 9, 46, 80
2, 24855, Note_on_c, 9, 46, 0
2, 24855, Note_on_c, 9, 40, 0
2, 24930, Note_on_c, 9, 36, 72
2, 24945, Note_on_c, 9, 36, 0
2, 24960, Note_on_c, 9, 46, 80
2, 24960, Note_on_c, 9, 36, 100
2, 24975, Note_on_c, 9, 36, 0
2, 24975, Note_on_c, 9, 46, 0
2, 25050, Note_on_c, 9, 36, 100
2, 25065, Note_on_c, 9, 36, 0
2, 25080, Note_on_c, 9, 46, 80
2, 25080, Note_on_c, 9, 40, 100
2, 25095, Note_on_c, 9, 40, 0
2, 25095, Note_on_c, 9, 46, 0
2, 25200, Note_on_c, 9, 36, 100
2, 25200, Note_on_c, 9, 46, 80
2, 25215, Note_on_c, 9, 46, 0
2, 25215, Note_on_c, 9, 36, 0
2, 25260, Note_on_c, 9, 36, 100
2, 25275, Note_on_c, 9, 36, 0
2, 25320, Note_on_c, 9, 46, 80
2, 25320, Note_on_c, 9, 40, 100
2, 25335, Note_on_c, 9, 40, 0
2, 25335, Note_on_c, 9, 46, 0
2, 25380, Note_on_c, 9, 36, 100
2, 25395, Note_on_c, 9, 36, 0
2, 25440, Note_on_c, 9, 36, 100
2, 25440, Note_on_c, 9, 46, 80
2, 25455, Note_on_c, 9, 46, 0
2, 25455, Note_on_c, 9, 36, 0
2, 25530, Note_on_c, 9, 36, 100
2, 25545, Note_on_c, 9, 36, 0
2, 25560, Note_on_c, 9, 46, 80
2, 25560, Note_on_c, 9, 40, 100
2, 25575, Note_on_c, 9, 40, 0
2, 25575, Note_on_c, 9, 46, 0
2, 25680, Note_on_c, 9, 46, 80
2, 25695, Note_on_c, 9, 46, 0
2, 25800, Note_on_c, 9, 46, 80
2, 25800, Note_on_c, 9, 40, 100
2, 25815, Note_on_c, 9, 40, 0
2, 25815, Note_on_c, 9, 46, 0
2, 25890, Note_on_c, 9, 36, 72
2, 25905, Note_on_c, 9, 36, 0
2, 25920, Note_on_c, 9, 46, 80
2, 25920, Note_on_c, 9, 36, 100
2, 25935, Note_on_c, 9, 36, 0
2, 25935, Note_on_c, 9, 46, 0
2, 26010, Note_on_c, 9, 36, 100
2, 26025, Note_on_c, 9, 36, 0
2, 26040, Note_on_c, 9, 46, 80
2, 26040, Note_on_c, 9, 40, 100
2, 26055, Note_on_c, 9, 40, 0
2, 26055, Note_on_c, 9, 46, 0
2, 26160, Note_on_c, 9, 36, 100
2, 26160, Note_on_c, 9, 46, 80
2, 26175, Note_on_c, 9, 46, 0
2, 26175, Note_on_c, 9, 36, 0
2, 26220, Note_on_c, 9, 36, 100
2, 26235, Note_on_c, 9, 36, 0
2, 26280, Note_on_c, 9, 46, 80
2, 26280, Note_on_c, 9, 40, 100
2, 26295, Note_on_c, 9, 40, 0
2, 26295, Note_on_c, 9, 46, 0
2, 26340, Note_on_c, 9, 36, 100
2, 26355, Note_on_c, 9, 36, 0
2, 26400, Note_on_c, 9, 46, 80
2, 26400, Note_on_c, 9, 36, 100
2, 26415, Note_on_c, 9, 36, 0
2, 26415, Note_on_c, 9, 46, 0
2, 26490, Note_on_c, 9, 36, 100
2, 26505, Note_on_c, 9, 36, 0
2, 26520, Note_on_c, 9, 46, 80
2, 26520, Note_on_c, 9, 40, 100
2, 26535, Note_on_c, 9, 40, 0
2, 26535, Note_on_c, 9, 46, 0
2, 26640, Note_on_c, 9, 46, 80
2, 26655, Note_on_c, 9, 46, 0
2, 26760, Note_on_c, 9, 46, 80
2, 26760, Note_on_c, 9, 40, 100
2, 26775, Note_on_c, 9, 40, 0
2, 26775, Note_on_c, 9, 46, 0
2, 26850, Note_on_c, 9, 36, 72
2, 26865, Note_on_c, 9, 36, 0
2, 26880, Note_on_c, 9, 46, 80
2, 26880, Note_on_c, 9, 36, 100
2, 26895, Note_on_c, 9, 36, 0
2, 26895, Note_on_c, 9, 46, 0
2, 26970, Note_on_c, 9, 36, 100
2, 26985, Note_on_c, 9, 36, 0
2, 27000, Note_on_c, 9, 46, 80
2, 27000, Note_on_c, 9, 40, 100
2, 27015, Note_on_c, 9, 40, 0
2, 27015, Note_on_c, 9, 46, 0
2, 27120, Note_on_c, 9, 40, 100
2, 27120, Note_on_c, 9, 36, 100
2, 27120, Note_on_c, 9, 46, 80
2, 27135, Note_on_c, 9, 46, 0
2, 27135, Note_on_c, 9, 36, 0
2, 27135, Note_on_c, 9, 40, 0
2, 27150, Note_on_c, 9, 40, 45
2, 27165, Note_on_c, 9, 40, 0
2, 27180, Note_on_c, 9, 40, 100
2, 27195, Note_on_c, 9, 40, 0
2, 27210, Note_on_c, 9, 40, 100
2, 27225, Note_on_c, 9, 40, 0
2, 27240, Note_on_c, 9, 46, 80
2, 27240, Note_on_c, 9, 40, 100
2, 27255, Note_on_c, 9, 40, 0
2, 27255, Note_on_c, 9, 46, 0
2, 27270, Note_on_c, 9, 40, 60
2, 27285, Note_on_c, 9, 40, 0
2, 27300, Note_on_c, 9, 49, 60
2, 27300, Note_on_c, 9, 36, 100
2, 27315, Note_on_c, 9, 36, 0
2, 27315, Note_on_c, 9, 49, 0
2, 27480, Note_on_c, 9, 46, 80
2, 27480, Note_on_c, 9, 40, 100
2, 27495, Note_on_c, 9, 40, 0
2, 27495, Note_on_c, 9, 46, 0
2, 27600, Note_on_c, 9, 46, 80
2, 27615, Note_on_c, 9, 46, 0
2, 27720, Note_on_c, 9, 46, 80
2, 27720, Note_on_c, 9, 40, 100
2, 27735, Note_on_c, 9, 40, 0
2, 27735, Note_on_c, 9, 46, 0
2, 27840, Note_on_c, 9, 46, 80
2, 27840, Note_on_c, 9, 36, 100
2, 27855, Note_on_c, 9, 36, 0
2, 27855, Note_on_c, 9, 46, 0
2, 27960, Note_on_c, 9, 40, 100
2, 27960, Note_on_c, 9, 46, 80
2, 27975, Note_on_c, 9, 46, 0
2, 27975, Note_on_c, 9, 40, 0
2, 28080, Note_on_c, 9, 46, 80
2, 28080, Note_on_c, 9, 36, 100
2, 28095, Note_on_c, 9, 36, 0
2, 28095, Note_on_c, 9, 46, 0
2, 28140, Note_on_c, 9, 36, 100
2, 28155, Note_on_c, 9, 36, 0
2, 28200, Note_on_c, 9, 46, 80
2, 28200, Note_on_c, 9, 49, 70
2, 28200, Note_on_c, 9, 40, 100
2, 28215, Note_on_c, 9, 40, 0
2, 28215, Note_on_c, 9, 49, 0
2, 28215, Note_on_c, 9, 46, 0
2, 28260, Note_on_c, 9, 40, 100
2, 28275, Note_on_c, 9, 40, 0
2, 28290, Note_on_c, 9, 40, 100
2, 28305, Note_on_c, 9, 40, 0
2, 28320, Note_on_c, 9, 55, 71
2, 28320, Note_on_c, 9, 36, 100
2, 28320, Note_on_c, 9, 46, 80
2, 28335, Note_on_c, 9, 46, 0
2, 28335, Note_on_c, 9, 36, 0
2, 28335, Note_on_c, 9, 55, 0
2, 28440, Note_on_c, 9, 40, 100
2, 28440, Note_on_c, 9, 46, 80
2, 28455, Note_on_c, 9, 46, 0
2, 28455, Note_on_c, 9, 40, 0
2, 28560, Note_on_c, 9, 46, 80
2, 28560, Note_on_c, 9, 36, 100
2, 28575, Note_on_c, 9, 36, 0
2, 28575, Note_on_c, 9, 46, 0
2, 28680, Note_on_c, 9, 46, 80
2, 28680, Note_on_c, 9, 40, 100
2, 28695, Note_on_c, 9, 40, 0
2, 28695, Note_on_c, 9, 46, 0
2, 28740, Note_on_c, 9, 36, 100
2, 28755, Note_on_c, 9, 36, 0
2, 28800, Note_on_c, 9, 46, 80
2, 28815, Note_on_c, 9, 46, 0
2, 28860, Note_on_c, 9, 36, 100
2, 28875, Note_on_c, 9, 36, 0
2, 28920, Note_on_c, 9, 46, 80
2, 28920, Note_on_c, 9, 40, 100
2, 28935, Note_on_c, 9, 40, 0
2, 28935, Note_on_c, 9, 46, 0
2, 29040, Note_on_c, 9, 46, 80
2, 29040, Note_on_c, 9, 36, 100
2, 29055, Note_on_c, 9, 36, 0
2, 29055, Note_on_c, 9, 46, 0
2, 29160, Note_on_c, 9, 40, 100
2, 29160, Note_on_c, 9, 46, 80
2, 29175, Note_on_c, 9, 46, 0
2, 29175, Note_on_c, 9, 40, 0
2, 29280, Note_on_c, 9, 36, 100
2, 29280, Note_on_c, 9, 46, 80
2, 29295, Note_on_c, 9, 46, 0
2, 29295, Note_on_c, 9, 36, 0
2, 29400, Note_on_c, 9, 46, 80
2, 29400, Note_on_c, 9, 40, 100
2, 29415, Note_on_c, 9, 40, 0
2, 29415, Note_on_c, 9, 46, 0
2, 29520, Note_on_c, 9, 46, 80
2, 29520, Note_on_c, 9, 36, 100
2, 29535, Note_on_c, 9, 36, 0
2, 29535, Note_on_c, 9, 46, 0
2, 29640, Note_on_c, 9, 46, 80
2, 29640, Note_on_c, 9, 40, 100
2, 29655, Note_on_c, 9, 40, 0
2, 29655, Note_on_c, 9, 46, 0
2, 29700, Note_on_c, 9, 36, 100
2, 29715, Note_on_c, 9, 36, 0
2, 29760, Note_on_c, 9, 46, 80
2, 29775, Note_on_c, 9, 46, 0
2, 29820, Note_on_c, 9, 36, 100
2, 29835, Note_on_c, 9, 36, 0
2, 29880, Note_on_c, 9, 46, 80
2, 29880, Note_on_c, 9, 40, 100
2, 29895, Note_on_c, 9, 40, 0
2, 29895, Note_on_c, 9, 46, 0
2, 30000, Note_on_c, 9, 36, 100
2, 30000, Note_on_c, 9, 46, 80
2, 30015, Note_on_c, 9, 46, 0
2, 30015, Note_on_c, 9, 36, 0
2, 30120, Note_on_c, 9, 40, 100
2, 30120, Note_on_c, 9, 46, 80
2, 30135, Note_on_c, 9, 46, 0
2, 30135, Note_on_c, 9, 40, 0
2, 30240, Note_on_c, 9, 46, 80
2, 30240, Note_on_c, 9, 36, 100
2, 30255, Note_on_c, 9, 36, 0
2, 30255, Note_on_c, 9, 46, 0
2, 30360, Note_on_c, 9, 46, 80
2, 30360, Note_on_c, 9, 40, 100
2, 30375, Note_on_c, 9, 40, 0
2, 30375, Note_on_c, 9, 46, 0
2, 30480, Note_on_c, 9, 46, 80
2, 30480, Note_on_c, 9, 36, 100
2, 30495, Note_on_c, 9, 36, 0
2, 30495, Note_on_c, 9, 46, 0
2, 30600, Note_on_c, 9, 40, 100
2, 30600, Note_on_c, 9, 46, 80
2, 30615, Note_on_c, 9, 46, 0
2, 30615, Note_on_c, 9, 40, 0
2, 30660, Note_on_c, 9, 36, 100
2, 30675, Note_on_c, 9, 36, 0
2, 30720, Note_on_c, 9, 46, 80
2, 30735, Note_on_c, 9, 46, 0
2, 30780, Note_on_c, 9, 36, 100
2, 30795, Note_on_c, 9, 36, 0
2, 30840, Note_on_c, 9, 40, 100
2, 30840, Note_on_c, 9, 46, 80
2, 30855, Note_on_c, 9, 46, 0
2, 30855, Note_on_c, 9, 40, 0
2, 30960, Note_on_c, 9, 36, 100
2, 30960, Note_on_c, 9, 46, 80
2, 30975, Note_on_c, 9, 46, 0
2, 30975, Note_on_c, 9, 36, 0
2, 31080, Note_on_c, 9, 46, 80
2, 31080, Note_on_c, 9, 40, 100
2, 31095, Note_on_c, 9, 40, 0
2, 31095, Note_on_c, 9, 46, 0
2, 31200, Note_on_c, 9, 46, 80
2, 31200, Note_on_c, 9, 36, 100
2, 31215, Note_on_c, 9, 36, 0
2, 31215, Note_on_c, 9, 46, 0
2, 31320, Note_on_c, 9, 46, 80
2, 31320, Note_on_c, 9, 40, 100
2, 31335, Note_on_c, 9, 40, 0
2, 31335, Note_on_c, 9, 46, 0
2, 31440, Note_on_c, 9, 36, 100
2, 31440, Note_on_c, 9, 46, 80
2, 31455, Note_on_c, 9, 46, 0
2, 31455, Note_on_c, 9, 36, 0
2, 31560, Note_on_c, 9, 40, 100
2, 31560, Note_on_c, 9, 46, 80
2, 31575, Note_on_c, 9, 46, 0
2, 31575, Note_on_c, 9, 40, 0
2, 31620, Note_on_c, 9, 36, 100
2, 31635, Note_on_c, 9, 36, 0
2, 31680, Note_on_c, 9, 46, 80
2, 31695, Note_on_c, 9, 46, 0
2, 31740, Note_on_c, 9, 36, 100
2, 31755, Note_on_c, 9, 36, 0
2, 31800, Note_on_c, 9, 40, 100
2, 31800, Note_on_c, 9, 46, 80
2, 31815, Note_on_c, 9, 46, 0
2, 31815, Note_on_c, 9, 40, 0
2, 31920, Note_on_c, 9, 46, 80
2, 31920, Note_on_c, 9, 36, 100
2, 31935, Note_on_c, 9, 36, 0
2, 31935, Note_on_c, 9, 46, 0
2, 32040, Note_on_c, 9, 46, 80
2, 32040, Note_on_c, 9, 40, 100
2, 32055, Note_on_c, 9, 40, 0
2, 32055, Note_on_c, 9, 46, 0
2, 32055, End_track
3, 0, Start_track
3, 0, MIDI_port, 0
3, 0, Title_t, "Baixo"
3, 0, Program_c, 0, 35
3, 0, Control_c, 0, 7, 90
3, 0, Control_c, 0, 10, 64
3, 0, Control_c, 0, 91, 0
3, 0, Control_c, 0, 93, 0
3, 4320, Note_on_c, 0, 40, 120
3, 4345, Note_on_c, 0, 40, 0
3, 4380, Note_on_c, 0, 40, 120
3, 4415, Note_on_c, 0, 40, 0
3, 4440, Note_on_c, 0, 37, 120
3, 4465, Note_on_c, 0, 37, 0
3, 4500, Note_on_c, 0, 37, 120
3, 4528, Note_on_c, 0, 37, 0
3, 4560, Note_on_c, 0, 38, 120
3, 4651, Note_on_c, 0, 38, 0
3, 4800, Note_on_c, 0, 31, 120
3, 4874, Note_on_c, 0, 31, 0
3, 4920, Note_on_c, 0, 33, 120
3, 4993, Note_on_c, 0, 33, 0
3, 5040, Note_on_c, 0, 35, 120
3, 5098, Note_on_c, 0, 35, 0
3, 5160, Note_on_c, 0, 43, 120
3, 5267, Note_on_c, 0, 43, 0
3, 5340, Note_on_c, 0, 40, 120
3, 5376, Note_on_c, 0, 40, 0
3, 5400, Note_on_c, 0, 37, 120
3, 5427, Note_on_c, 0, 37, 0
3, 5460, Note_on_c, 0, 37, 120
3, 5486, Note_on_c, 0, 37, 0
3, 5520, Note_on_c, 0, 38, 120
3, 5622, Note_on_c, 0, 38, 0
3, 5760, Note_on_c, 0, 31, 120
3, 5832, Note_on_c, 0, 31, 0
3, 5880, Note_on_c, 0, 33, 120
3, 5951, Note_on_c, 0, 33, 0
3, 6000, Note_on_c, 0, 35, 120
3, 6100, Note_on_c, 0, 35, 0
3, 6120, Note_on_c, 0, 28, 120
3, 6206, Note_on_c, 0, 28, 0
3, 6300, Note_on_c, 0, 40, 120
3, 6335, Note_on_c, 0, 40, 0
3, 6360, Note_on_c, 0, 37, 120
3, 6385, Note_on_c, 0, 37, 0
3, 6420, Note_on_c, 0, 37, 120
3, 6448, Note_on_c, 0, 37, 0
3, 6480, Note_on_c, 0, 38, 120
3, 6571, Note_on_c, 0, 38, 0
3, 6720, Note_on_c, 0, 31, 120
3, 6794, Note_on_c, 0, 31, 0
3, 6840, Note_on_c, 0, 33, 120
3, 6913, Note_on_c, 0, 33, 0
3, 6960, Note_on_c, 0, 35, 120
3, 7018, Note_on_c, 0, 35, 0
3, 7080, Note_on_c, 0, 43, 120
3, 7187, Note_on_c, 0, 43, 0
3, 7260, Note_on_c, 0, 40, 120
3, 7296, Note_on_c, 0, 40, 0
3, 7320, Note_on_c, 0, 37, 120
3, 7347, Note_on_c, 0, 37, 0
3, 7380, Note_on_c, 0, 37, 120
3, 7406, Note_on_c, 0, 37, 0
3, 7440, Note_on_c, 0, 38, 120
3, 7542, Note_on_c, 0, 38, 0
3, 7680, Note_on_c, 0, 35, 120
3, 8160, Note_on_c, 0, 35, 0
3, 8160, Note_on_c, 0, 40, 120
3, 8185, Note_on_c, 0, 40, 0
3, 8220, Note_on_c, 0, 40, 120
3, 8255, Note_on_c, 0, 40, 0
3, 8280, Note_on_c, 0, 37, 120
3, 8305, Note_on_c, 0, 37, 0
3, 8340, Note_on_c, 0, 37, 120
3, 8368, Note_on_c, 0, 37, 0
3, 8400, Note_on_c, 0, 38, 120
3, 8491, Note_on_c, 0, 38, 0
3, 8640, Note_on_c, 0, 31, 120
3, 8714, Note_on_c, 0, 31, 0
3, 8760, Note_on_c, 0, 33, 120
3, 8833, Note_on_c, 0, 33, 0
3, 8880, Note_on_c, 0, 35, 120
3, 8938, Note_on_c, 0, 35, 0
3, 9000, Note_on_c, 0, 43, 120
3, 9107, Note_on_c, 0, 43, 0
3, 9180, Note_on_c, 0, 40, 120
3, 9216, Note_on_c, 0, 40, 0
3, 9240, Note_on_c, 0, 37, 120
3, 9267, Note_on_c, 0, 37, 0
3, 9300, Note_on_c, 0, 37, 120
3, 9326, Note_on_c, 0, 37, 0
3, 9360, Note_on_c, 0, 38, 120
3, 9462, Note_on_c, 0, 38, 0
3, 9600, Note_on_c, 0, 31, 120
3, 9672, Note_on_c, 0, 31, 0
3, 9720, Note_on_c, 0, 33, 120
3, 9791, Note_on_c, 0, 33, 0
3, 9840, Note_on_c, 0, 35, 120
3, 9940, Note_on_c, 0, 35, 0
3, 9960, Note_on_c, 0, 28, 120
3, 10046, Note_on_c, 0, 28, 0
3, 10140, Note_on_c, 0, 40, 120
3, 10175, Note_on_c, 0, 40, 0
3, 10200, Note_on_c, 0, 37, 120
3, 10225, Note_on_c, 0, 37, 0
3, 10260, Note_on_c, 0, 37, 120
3, 10288, Note_on_c, 0, 37, 0
3, 10320, Note_on_c, 0, 38, 120
3, 10411, Note_on_c, 0, 38, 0
3, 10560, Note_on_c, 0, 31, 120
3, 10634, Note_on_c, 0, 31, 0
3, 10680, Note_on_c, 0, 33, 120
3, 10753, Note_on_c, 0, 33, 0
3, 10800, Note_on_c, 0, 35, 120
3, 10858, Note_on_c, 0, 35, 0
3, 10920, Note_on_c, 0, 43, 120
3, 11027, Note_on_c, 0, 43, 0
3, 11100, Note_on_c, 0, 40, 120
3, 11136, Note_on_c, 0, 40, 0
3, 11160, Note_on_c, 0, 37, 120
3, 11187, Note_on_c, 0, 37, 0
3, 11220, Note_on_c, 0, 37, 120
3, 11246, Note_on_c, 0, 37, 0
3, 11280, Note_on_c, 0, 38, 120
3, 11382, Note_on_c, 0, 38, 0
3, 11520, Note_on_c, 0, 31, 120
3, 11592, Note_on_c, 0, 31, 0
3, 11640, Note_on_c, 0, 33, 120
3, 11711, Note_on_c, 0, 33, 0
3, 11760, Note_on_c, 0, 34, 120
3, 11860, Note_on_c, 0, 34, 0
3, 11880, Note_on_c, 0, 35, 120
3, 11966, Note_on_c, 0, 35, 0
3, 12000, Note_on_c, 0, 36, 120
3, 12069, Note_on_c, 0, 36, 0
3, 12120, Note_on_c, 0, 39, 120
3, 12185, Note_on_c, 0, 39, 0
3, 12240, Note_on_c, 0, 31, 120
3, 12292, Note_on_c, 0, 31, 0
3, 12330, Note_on_c, 0, 34, 120
3, 12360, Note_on_c, 0, 36, 120
3, 12372, Note_on_c, 0, 34, 0
3, 12389, Note_on_c, 0, 36, 0
3, 12390, Note_on_c, 0, 34, 120
3, 12420, Note_on_c, 0, 36, 120
3, 12428, Note_on_c, 0, 34, 0
3, 12488, Note_on_c, 0, 36, 0
3, 12540, Note_on_c, 0, 36, 120
3, 12562, Note_on_c, 0, 36, 0
3, 12630, Note_on_c, 0, 39, 120
3, 12679, Note_on_c, 0, 39, 0
3, 12720, Note_on_c, 0, 31, 120
3, 12743, Note_on_c, 0, 31, 0
3, 12780, Note_on_c, 0, 31, 120
3, 12840, Note_on_c, 0, 34, 120
3, 12849, Note_on_c, 0, 31, 0
3, 12872, Note_on_c, 0, 34, 0
3, 12900, Note_on_c, 0, 34, 120
3, 12930, Note_on_c, 0, 34, 0
3, 12960, Note_on_c, 0, 36, 120
3, 13029, Note_on_c, 0, 36, 0
3, 13080, Note_on_c, 0, 39, 120
3, 13145, Note_on_c, 0, 39, 0
3, 13200, Note_on_c, 0, 31, 120
3, 13252, Note_on_c, 0, 31, 0
3, 13290, Note_on_c, 0, 34, 120
3, 13320, Note_on_c, 0, 36, 120
3, 13332, Note_on_c, 0, 34, 0
3, 13349, Note_on_c, 0, 36, 0
3, 13350, Note_on_c, 0, 34, 120
3, 13380, Note_on_c, 0, 31, 120
3, 13388, Note_on_c, 0, 34, 0
3, 13448, Note_on_c, 0, 31, 0
3, 13500, Note_on_c, 0, 36, 120
3, 13522, Note_on_c, 0, 36, 0
3, 13590, Note_on_c, 0, 39, 120
3, 13639, Note_on_c, 0, 39, 0
3, 13680, Note_on_c, 0, 31, 120
3, 13703, Note_on_c, 0, 31, 0
3, 13740, Note_on_c, 0, 34, 120
3, 13800, Note_on_c, 0, 35, 120
3, 13809, Note_on_c, 0, 34, 0
3, 13832, Note_on_c, 0, 35, 0
3, 13860, Note_on_c, 0, 35, 120
3, 13890, Note_on_c, 0, 35, 0
3, 13920, Note_on_c, 0, 36, 120
3, 13989, Note_on_c, 0, 36, 0
3, 14040, Note_on_c, 0, 39, 120
3, 14105, Note_on_c, 0, 39, 0
3, 14160, Note_on_c, 0, 31, 120
3, 14212, Note_on_c, 0, 31, 0
3, 14250, Note_on_c, 0, 34, 120
3, 14280, Note_on_c, 0, 36, 120
3, 14292, Note_on_c, 0, 34, 0
3, 14309, Note_on_c, 0, 36, 0
3, 14310, Note_on_c, 0, 34, 120
3, 14340, Note_on_c, 0, 36, 120
3, 14348, Note_on_c, 0, 34, 0
3, 14408, Note_on_c, 0, 36, 0
3, 14460, Note_on_c, 0, 36, 120
3, 14482, Note_on_c, 0, 36, 0
3, 14550, Note_on_c, 0, 39, 120
3, 14599, Note_on_c, 0, 39, 0
3, 14640, Note_on_c, 0, 31, 120
3, 14663, Note_on_c, 0, 31, 0
3, 14700, Note_on_c, 0, 31, 120
3, 14760, Note_on_c, 0, 34, 120
3, 14769, Note_on_c, 0, 31, 0
3, 14792, Note_on_c, 0, 34, 0
3, 14820, Note_on_c, 0, 34, 120
3, 14850, Note_on_c, 0, 34, 0
3, 14880, Note_on_c, 0, 36, 120
3, 14949, Note_on_c, 0, 36, 0
3, 15000, Note_on_c, 0, 39, 120
3, 15065, Note_on_c, 0, 39, 0
3, 15120, Note_on_c, 0, 31, 120
3, 15172, Note_on_c, 0, 31, 0
3, 15210, Note_on_c, 0, 34, 120
3, 15240, Note_on_c, 0, 36, 120
3, 15252, Note_on_c, 0, 34, 0
3, 15269, Note_on_c, 0, 36, 0
3, 15270, Note_on_c, 0, 34, 120
3, 15300, Note_on_c, 0, 31, 120
3, 15308, Note_on_c, 0, 34, 0
3, 15330, Note_on_c, 0, 31, 0
3, 15360, Note_on_c, 0, 36, 120
3, 15480, Note_on_c, 0, 36, 0
3, 15480, Note_on_c, 0, 35, 120
3, 15600, Note_on_c, 0, 35, 0
3, 15600, Note_on_c, 0, 34, 120
3, 15720, Note_on_c, 0, 34, 0
3, 15720, Note_on_c, 0, 33, 120
3, 15840, Note_on_c, 0, 33, 0
3, 15840, Note_on_c, 0, 40, 120
3, 15865, Note_on_c, 0, 40, 0
3, 15900, Note_on_c, 0, 40, 120
3, 15935, Note_on_c, 0, 40, 0
3, 15960, Note_on_c, 0, 37, 120
3, 15985, Note_on_c, 0, 37, 0
3, 16020, Note_on_c, 0, 37, 120
3, 16048, Note_on_c, 0, 37, 0
3, 16080, Note_on_c, 0, 38, 120
3, 16171, Note_on_c, 0, 38, 0
3, 16320, Note_on_c, 0, 31, 120
3, 16394, Note_on_c, 0, 31, 0
3, 16440, Note_on_c, 0, 33, 120
3, 16513, Note_on_c, 0, 33, 0
3, 16560, Note_on_c, 0, 35, 120
3, 16618, Note_on_c, 0, 35, 0
3, 16680, Note_on_c, 0, 43, 120
3, 16787, Note_on_c, 0, 43, 0
3, 16860, Note_on_c, 0, 40, 120
3, 16896, Note_on_c, 0, 40, 0
3, 16920, Note_on_c, 0, 37, 120
3, 16947, Note_on_c, 0, 37, 0
3, 16980, Note_on_c, 0, 37, 120
3, 17006, Note_on_c, 0, 37, 0
3, 17040, Note_on_c, 0, 38, 120
3, 17142, Note_on_c, 0, 38, 0
3, 17280, Note_on_c, 0, 31, 120
3, 17352, Note_on_c, 0, 31, 0
3, 17400, Note_on_c, 0, 33, 120
3, 17471, Note_on_c, 0, 33, 0
3, 17520, Note_on_c, 0, 35, 120
3, 17620, Note_on_c, 0, 35, 0
3, 17640, Note_on_c, 0, 28, 120
3, 17726, Note_on_c, 0, 28, 0
3, 17820, Note_on_c, 0, 40, 120
3, 17855, Note_on_c, 0, 40, 0
3, 17880, Note_on_c, 0, 37, 120
3, 17905, Note_on_c, 0, 37, 0
3, 17940, Note_on_c, 0, 37, 120
3, 17968, Note_on_c, 0, 37, 0
3, 18000, Note_on_c, 0, 38, 120
3, 18091, Note_on_c, 0, 38, 0
3, 18240, Note_on_c, 0, 31, 120
3, 18314, Note_on_c, 0, 31, 0
3, 18360, Note_on_c, 0, 33, 120
3, 18433, Note_on_c, 0, 33, 0
3, 18480, Note_on_c, 0, 35, 120
3, 18538, Note_on_c, 0, 35, 0
3, 18600, Note_on_c, 0, 43, 120
3, 18707, Note_on_c, 0, 43, 0
3, 18780, Note_on_c, 0, 40, 120
3, 18816, Note_on_c, 0, 40, 0
3, 18840, Note_on_c, 0, 37, 120
3, 18867, Note_on_c, 0, 37, 0
3, 18900, Note_on_c, 0, 37, 120
3, 18926, Note_on_c, 0, 37, 0
3, 18960, Note_on_c, 0, 38, 120
3, 19062, Note_on_c, 0, 38, 0
3, 19200, Note_on_c, 0, 31, 120
3, 19272, Note_on_c, 0, 31, 0
3, 19320, Note_on_c, 0, 33, 120
3, 19391, Note_on_c, 0, 33, 0
3, 19440, Note_on_c, 0, 35, 120
3, 19540, Note_on_c, 0, 35, 0
3, 19560, Note_on_c, 0, 28, 120
3, 19646, Note_on_c, 0, 28, 0
3, 19680, Note_on_c, 0, 39, 120
3, 19920, Note_on_c, 0, 39, 0
3, 19920, Note_on_c, 0, 37, 120
3, 20160, Note_on_c, 0, 37, 0
3, 20160, Note_on_c, 0, 35, 120
3, 20640, Note_on_c, 0, 35, 0
3, 20640, Note_on_c, 0, 38, 120
3, 20730, Note_on_c, 0, 36, 120
3, 20739, Note_on_c, 0, 38, 0
3, 20778, Note_on_c, 0, 36, 0
3, 21120, Note_on_c, 0, 36, 120
3, 21205, Note_on_c, 0, 36, 0
3, 21210, Note_on_c, 0, 33, 120
3, 21255, Note_on_c, 0, 33, 0
3, 21330, Note_on_c, 0, 29, 120
3, 21360, Note_on_c, 0, 31, 120
3, 21372, Note_on_c, 0, 29, 0
3, 21396, Note_on_c, 0, 31, 0
3, 21420, Note_on_c, 0, 31, 120
3, 21475, Note_on_c, 0, 31, 0
3, 21480, Note_on_c, 0, 33, 120
3, 21512, Note_on_c, 0, 33, 0
3, 21540, Note_on_c, 0, 33, 120
3, 21564, Note_on_c, 0, 33, 0
3, 21600, Note_on_c, 0, 38, 120
3, 21683, Note_on_c, 0, 38, 0
3, 21690, Note_on_c, 0, 36, 120
3, 21735, Note_on_c, 0, 36, 0
3, 22080, Note_on_c, 0, 33, 120
3, 22170, Note_on_c, 0, 31, 120
3, 22174, Note_on_c, 0, 33, 0
3, 22210, Note_on_c, 0, 31, 0
3, 22290, Note_on_c, 0, 31, 120
3, 22305, Note_on_c, 0, 31, 0
3, 22320, Note_on_c, 0, 33, 120
3, 22340, Note_on_c, 0, 33, 0
3, 22380, Note_on_c, 0, 33, 120
3, 22440, Note_on_c, 0, 36, 120
3, 22448, Note_on_c, 0, 33, 0
3, 22560, Note_on_c, 0, 36, 0
3, 22560, Note_on_c, 0, 38, 120
3, 22634, Note_on_c, 0, 38, 0
3, 22650, Note_on_c, 0, 36, 120
3, 22691, Note_on_c, 0, 36, 0
3, 23040, Note_on_c, 0, 36, 120
3, 23122, Note_on_c, 0, 36, 0
3, 23130, Note_on_c, 0, 33, 120
3, 23167, Note_on_c, 0, 33, 0
3, 23220, Note_on_c, 0, 29, 120
3, 23252, Note_on_c, 0, 29, 0
3, 23280, Note_on_c, 0, 31, 120
3, 23310, Note_on_c, 0, 31, 0
3, 23340, Note_on_c, 0, 31, 120
3, 23396, Note_on_c, 0, 31, 0
3, 23400, Note_on_c, 0, 33, 120
3, 23431, Note_on_c, 0, 33, 0
3, 23460, Note_on_c, 0, 33, 120
3, 23481, Note_on_c, 0, 33, 0
3, 23520, Note_on_c, 0, 38, 120
3, 23600, Note_on_c, 0, 38, 0
3, 23610, Note_on_c, 0, 36, 120
3, 23645, Note_on_c, 0, 36, 0
3, 24000, Note_on_c, 0, 33, 120
3, 24088, Note_on_c, 0, 33, 0
3, 24090, Note_on_c, 0, 31, 120
3, 24136, Note_on_c, 0, 31, 0
3, 24210, Note_on_c, 0, 31, 120
3, 24240, Note_on_c, 0, 33, 120
3, 24249, Note_on_c, 0, 31, 0
3, 24274, Note_on_c, 0, 33, 0
3, 24300, Note_on_c, 0, 33, 120
3, 24330, Note_on_c, 0, 33, 0
3, 24360, Note_on_c, 0, 36, 120
3, 24419, Note_on_c, 0, 36, 0
3, 24480, Note_on_c, 0, 29, 120
3, 24570, Note_on_c, 0, 27, 120
3, 24581, Note_on_c, 0, 29, 0
3, 24607, Note_on_c, 0, 27, 0
3, 24960, Note_on_c, 0, 27, 120
3, 25050, Note_on_c, 0, 29, 120
3, 25054, Note_on_c, 0, 27, 0
3, 25097, Note_on_c, 0, 29, 0
3, 25440, Note_on_c, 0, 29, 120
3, 25530, Note_on_c, 0, 27, 120
3, 25541, Note_on_c, 0, 29, 0
3, 25569, Note_on_c, 0, 27, 0
3, 26160, Note_on_c, 0, 27, 120
3, 26177, Note_on_c, 0, 27, 0
3, 26220, Note_on_c, 0, 27, 120
3, 26280, Note_on_c, 0, 29, 120
3, 26284, Note_on_c, 0, 27, 0
3, 26305, Note_on_c, 0, 29, 0
3, 26340, Note_on_c, 0, 29, 120
3, 26350, Note_on_c, 0, 29, 0
3, 26400, Note_on_c, 0, 29, 120
3, 26489, Note_on_c, 0, 29, 0
3, 26490, Note_on_c, 0, 27, 120
3, 26528, Note_on_c, 0, 27, 0
3, 26880, Note_on_c, 0, 27, 120
3, 26969, Note_on_c, 0, 27, 0
3, 26970, Note_on_c, 0, 29, 120
3, 27019, Note_on_c, 0, 29, 0
3, 27300, Note_on_c, 0, 41, 120
3, 27480, Note_on_c, 0, 39, 120
3, 27494, Note_on_c, 0, 41, 0
3, 27600, Note_on_c, 0, 38, 120
3, 27608, Note_on_c, 0, 39, 0
3, 27720, Note_on_c, 0, 36, 120
3, 27728, Note_on_c, 0, 38, 0
3, 27840, Note_on_c, 0, 36, 0
3, 27840, Note_on_c, 0, 35, 120
3, 27958, Note_on_c, 0, 35, 0
3, 27960, Note_on_c, 0, 34, 120
3, 28080, Note_on_c, 0, 34, 0
3, 28080, Note_on_c, 0, 33, 120
3, 28197, Note_on_c, 0, 33, 0
3, 28200, Note_on_c, 0, 32, 120
3, 28320, Note_on_c, 0, 32, 0
3, 28320, Note_on_c, 0, 40, 120
3, 28345, Note_on_c, 0, 40, 0
3, 28380, Note_on_c, 0, 40, 120
3, 28415, Note_on_c, 0, 40, 0
3, 28440, Note_on_c, 0, 37, 120
3, 28465, Note_on_c, 0, 37, 0
3, 28500, Note_on_c, 0, 37, 120
3, 28528, Note_on_c, 0, 37, 0
3, 28560, Note_on_c, 0, 38, 120
3, 28651, Note_on_c, 0, 38, 0
3, 28800, Note_on_c, 0, 31, 120
3, 28874, Note_on_c, 0, 31, 0
3, 28920, Note_on_c, 0, 33, 120
3, 28993, Note_on_c, 0, 33, 0
3, 29040, Note_on_c, 0, 35, 120
3, 29098, Note_on_c, 0, 35, 0
3, 29160, Note_on_c, 0, 43, 120
3, 29267, Note_on_c, 0, 43, 0
3, 29340, Note_on_c, 0, 40, 120
3, 29376, Note_on_c, 0, 40, 0
3, 29400, Note_on_c, 0, 37, 120
3, 29427, Note_on_c, 0, 37, 0
3, 29460, Note_on_c, 0, 37, 120
3, 29486, Note_on_c, 0, 37, 0
3, 29520, Note_on_c, 0, 38, 120
3, 29622, Note_on_c, 0, 38, 0
3, 29760, Note_on_c, 0, 31, 120
3, 29832, Note_on_c, 0, 31, 0
3, 29880, Note_on_c, 0, 33, 120
3, 29951, Note_on_c, 0, 33, 0
3, 30000, Note_on_c, 0, 35, 120
3, 30100, Note_on_c, 0, 35, 0
3, 30120, Note_on_c, 0, 28, 120
3, 30206, Note_on_c, 0, 28, 0
3, 30300, Note_on_c, 0, 40, 120
3, 30335, Note_on_c, 0, 40, 0
3, 30360, Note_on_c, 0, 37, 120
3, 30385, Note_on_c, 0, 37, 0
3, 30420, Note_on_c, 0, 37, 120
3, 30448, Note_on_c, 0, 37, 0
3, 30480, Note_on_c, 0, 38, 120
3, 30571, Note_on_c, 0, 38, 0
3, 30720, Note_on_c, 0, 31, 120
3, 30794, Note_on_c, 0, 31, 0
3, 30840, Note_on_c, 0, 33, 120
3, 30913, Note_on_c, 0, 33, 0
3, 30960, Note_on_c, 0, 35, 120
3, 31018, Note_on_c, 0, 35, 0
3, 31080, Note_on_c, 0, 43, 120
3, 31187, Note_on_c, 0, 43, 0
3, 31260, Note_on_c, 0, 40, 120
3, 31296, Note_on_c, 0, 40, 0
3, 31320, Note_on_c, 0, 37, 120
3, 31347, Note_on_c, 0, 37, 0
3, 31380, Note_on_c, 0, 37, 120
3, 31406, Note_on_c, 0, 37, 0
3, 31440, Note_on_c, 0, 38, 120
3, 31542, Note_on_c, 0, 38, 0
3, 31680, Note_on_c, 0, 31, 120
3, 31752, Note_on_c, 0, 31, 0
3, 31800, Note_on_c, 0, 33, 120
3, 31871, Note_on_c, 0, 33, 0
3, 31920, Note_on_c, 0, 34, 120
3, 32020, Note_on_c, 0, 34, 0
3, 32040, Note_on_c, 0, 35, 120
3, 32126, Note_on_c, 0, 35, 0
3, 32126, End_track
4, 0, Start_track
4, 0, MIDI_port, 0
4, 0, Title_t, "Rhodes"
4, 0, Program_c, 2, 4
4, 0, Control_c, 2, 7, 90
4, 0, Control_c, 2, 10, 10
4, 0, Control_c, 2, 91, 59
4, 0, Control_c, 2, 93, 124
4, 0, Control_c, 2, 91, 54
4, 0, Control_c, 2, 93, 118
4, 450, Note_on_c, 2, 67, 100
4, 474, Note_on_c, 2, 67, 0
4, 480, Note_on_c, 2, 68, 100
4, 504, Note_on_c, 2, 68, 0
4, 510, Note_on_c, 2, 71, 100
4, 534, Note_on_c, 2, 71, 0
4, 540, Note_on_c, 2, 74, 100
4, 588, Note_on_c, 2, 74, 0
4, 600, Note_on_c, 2, 68, 100
4, 624, Note_on_c, 2, 68, 0
4, 630, Note_on_c, 2, 71, 100
4, 654, Note_on_c, 2, 71, 0
4, 660, Note_on_c, 2, 67, 100
4, 708, Note_on_c, 2, 67, 0
4, 720, Note_on_c, 2, 65, 100
4, 744, Note_on_c, 2, 65, 0
4, 750, Note_on_c, 2, 63, 100
4, 774, Note_on_c, 2, 63, 0
4, 780, Note_on_c, 2, 60, 100
4, 828, Note_on_c, 2, 60, 0
4, 840, Note_on_c, 2, 59, 100
4, 864, Note_on_c, 2, 59, 0
4, 870, Note_on_c, 2, 67, 100
4, 894, Note_on_c, 2, 67, 0
4, 900, Note_on_c, 2, 58, 100
4, 948, Note_on_c, 2, 58, 0
4, 1020, Note_on_c, 2, 70, 100
4, 1044, Note_on_c, 2, 70, 0
4, 1050, Note_on_c, 2, 69, 100
4, 1074, Note_on_c, 2, 69, 0
4, 1140, Note_on_c, 2, 64, 100
4, 1164, Note_on_c, 2, 64, 0
4, 1170, Note_on_c, 2, 62, 100
4, 1194, Note_on_c, 2, 62, 0
4, 1260, Note_on_c, 2, 57, 100
4, 1284, Note_on_c, 2, 57, 0
4, 1290, Note_on_c, 2, 55, 100
4, 1314, Note_on_c, 2, 55, 0
4, 1380, Note_on_c, 2, 52, 100
4, 1404, Note_on_c, 2, 52, 0
4, 1410, Note_on_c, 2, 50, 100
4, 1434, Note_on_c, 2, 50, 0
4, 1470, Note_on_c, 2, 68, 100
4, 1494, Note_on_c, 2, 68, 0
4, 1500, Note_on_c, 2, 71, 100
4, 1524, Note_on_c, 2, 71, 0
4, 1530, Note_on_c, 2, 74, 100
4, 1554, Note_on_c, 2, 74, 0
4, 1560, Note_on_c, 2, 68, 100
4, 1584, Note_on_c, 2, 68, 0
4, 1590, Note_on_c, 2, 71, 100
4, 1614, Note_on_c, 2, 71, 0
4, 1620, Note_on_c, 2, 67, 100
4, 1668, Note_on_c, 2, 67, 0
4, 1680, Note_on_c, 2, 65, 100
4, 1704, Note_on_c, 2, 65, 0
4, 1710, Note_on_c, 2, 64, 100
4, 1734, Note_on_c, 2, 64, 0
4, 1740, Note_on_c, 2, 63, 100
4, 1764, Note_on_c, 2, 63, 0
4, 1770, Note_on_c, 2, 65, 100
4, 1794, Note_on_c, 2, 65, 0
4, 1800, Note_on_c, 2, 59, 100
4, 1824, Note_on_c, 2, 59, 0
4, 1830, Note_on_c, 2, 58, 100
4, 1854, Note_on_c, 2, 58, 0
4, 1860, Note_on_c, 2, 57, 100
4, 1908, Note_on_c, 2, 57, 0
4, 1980, Note_on_c, 2, 55, 100
4, 2004, Note_on_c, 2, 55, 0
4, 2010, Note_on_c, 2, 56, 100
4, 2034, Note_on_c, 2, 56, 0
4, 2100, Note_on_c, 2, 50, 100
4, 2124, Note_on_c, 2, 50, 0
4, 2130, Note_on_c, 2, 52, 100
4, 2154, Note_on_c, 2, 52, 0
4, 2220, Note_on_c, 2, 57, 100
4, 2244, Note_on_c, 2, 57, 0
4, 2250, Note_on_c, 2, 59, 100
4, 2274, Note_on_c, 2, 59, 0
4, 2340, Note_on_c, 2, 67, 100
4, 2364, Note_on_c, 2, 67, 0
4, 2370, Note_on_c, 2, 64, 100
4, 2394, Note_on_c, 2, 64, 0
4, 2430, Note_on_c, 2, 71, 100
4, 2454, Note_on_c, 2, 71, 0
4, 2460, Note_on_c, 2, 74, 100
4, 2484, Note_on_c, 2, 74, 0
4, 2490, Note_on_c, 2, 77, 100
4, 2514, Note_on_c, 2, 77, 0
4, 2520, Note_on_c, 2, 71, 100
4, 2544, Note_on_c, 2, 71, 0
4, 2550, Note_on_c, 2, 74, 100
4, 2574, Note_on_c, 2, 74, 0
4, 2580, Note_on_c, 2, 70, 100
4, 2628, Note_on_c, 2, 70, 0
4, 2640, Note_on_c, 2, 69, 100
4, 2664, Note_on_c, 2, 69, 0
4, 2670, Note_on_c, 2, 67, 100
4, 2694, Note_on_c, 2, 67, 0
4, 2700, Note_on_c, 2, 66, 100
4, 2724, Note_on_c, 2, 66, 0
4, 2730, Note_on_c, 2, 69, 100
4, 2784, Note_on_c, 2, 69, 0
4, 2790, Note_on_c, 2, 66, 100
4, 2814, Note_on_c, 2, 66, 0
4, 2820, Note_on_c, 2, 67, 100
4, 2844, Note_on_c, 2, 67, 0
4, 2850, Note_on_c, 2, 70, 100
4, 2874, Note_on_c, 2, 70, 0
4, 2880, Note_on_c, 2, 73, 100
4, 2904, Note_on_c, 2, 73, 0
4, 2910, Note_on_c, 2, 70, 100
4, 2934, Note_on_c, 2, 70, 0
4, 2940, Note_on_c, 2, 72, 100
4, 2964, Note_on_c, 2, 72, 0
4, 2970, Note_on_c, 2, 70, 100
4, 2994, Note_on_c, 2, 70, 0
4, 3060, Note_on_c, 2, 67, 100
4, 3084, Note_on_c, 2, 67, 0
4, 3090, Note_on_c, 2, 65, 100
4, 3114, Note_on_c, 2, 65, 0
4, 3180, Note_on_c, 2, 63, 100
4, 3204, Note_on_c, 2, 63, 0
4, 3210, Note_on_c, 2, 55, 100
4, 3234, Note_on_c, 2, 55, 0
4, 3300, Note_on_c, 2, 58, 100
4, 3324, Note_on_c, 2, 58, 0
4, 3330, Note_on_c, 2, 60, 100
4, 3354, Note_on_c, 2, 60, 0
4, 3360, Note_on_c, 2, 62, 100
4, 3384, Note_on_c, 2, 62, 0
4, 3390, Note_on_c, 2, 59, 100
4, 3414, Note_on_c, 2, 59, 0
4, 3420, Note_on_c, 2, 58, 100
4, 3444, Note_on_c, 2, 58, 0
4, 3450, Note_on_c, 2, 62, 100
4, 3474, Note_on_c, 2, 62, 0
4, 3480, Note_on_c, 2, 59, 100
4, 3504, Note_on_c, 2, 59, 0
4, 3510, Note_on_c, 2, 58, 100
4, 3534, Note_on_c, 2, 58, 0
4, 3540, Note_on_c, 2, 63, 100
4, 3564, Note_on_c, 2, 63, 0
4, 3570, Note_on_c, 2, 59, 100
4, 3594, Note_on_c, 2, 59, 0
4, 3600, Note_on_c, 2, 62, 100
4, 3624, Note_on_c, 2, 62, 0
4, 3630, Note_on_c, 2, 59, 100
4, 3654, Note_on_c, 2, 59, 0
4, 3660, Note_on_c, 2, 58, 100
4, 3684, Note_on_c, 2, 58, 0
4, 3690, Note_on_c, 2, 62, 100
4, 3714, Note_on_c, 2, 62, 0
4, 3720, Note_on_c, 2, 59, 100
4, 3744, Note_on_c, 2, 59, 0
4, 3750, Note_on_c, 2, 58, 100
4, 3774, Note_on_c, 2, 58, 0
4, 3780, Note_on_c, 2, 57, 100
4, 3804, Note_on_c, 2, 57, 0
4, 3810, Note_on_c, 2, 59, 100
4, 3834, Note_on_c, 2, 59, 0
4, 3840, Note_on_c, 2, 55, 100
4, 3864, Note_on_c, 2, 55, 0
4, 3870, Note_on_c, 2, 47, 100
4, 3942, Note_on_c, 2, 47, 0
4, 3960, Note_on_c, 2, 52, 100
4, 3984, Note_on_c, 2, 52, 0
4, 3990, Note_on_c, 2, 55, 100
4, 4062, Note_on_c, 2, 55, 0
4, 4080, Note_on_c, 2, 59, 100
4, 4104, Note_on_c, 2, 59, 0
4, 4110, Note_on_c, 2, 67, 100
4, 4182, Note_on_c, 2, 67, 0
4, 4200, Note_on_c, 2, 64, 100
4, 4296, Note_on_c, 2, 64, 0
4, 7680, Note_on_c, 2, 67, 100
4, 7680, Note_on_c, 2, 63, 100
4, 7680, Note_on_c, 2, 57, 100
4, 7680, Note_on_c, 2, 47, 100
4, 8100, Note_on_c, 2, 47, 0
4, 8100, Note_on_c, 2, 67, 0
4, 8100, Note_on_c, 2, 63, 0
4, 8100, Note_on_c, 2, 57, 0
4, 8130, Note_on_c, 2, 67, 100
4, 8130, Note_on_c, 2, 67, 100
4, 8154, Note_on_c, 2, 67, 0
4, 8154, Note_on_c, 2, 67, 0
4, 8160, Note_on_c, 2, 68, 100
4, 8184, Note_on_c, 2, 68, 0
4, 8190, Note_on_c, 2, 71, 100
4, 8214, Note_on_c, 2, 71, 0
4, 8220, Note_on_c, 2, 74, 100
4, 8268, Note_on_c, 2, 74, 0
4, 8280, Note_on_c, 2, 68, 100
4, 8304, Note_on_c, 2, 68, 0
4, 8310, Note_on_c, 2, 71, 100
4, 8334, Note_on_c, 2, 71, 0
4, 8340, Note_on_c, 2, 67, 100
4, 8388, Note_on_c, 2, 67, 0
4, 8400, Note_on_c, 2, 65, 100
4, 8424, Note_on_c, 2, 65, 0
4, 8430, Note_on_c, 2, 63, 100
4, 8454, Note_on_c, 2, 63, 0
4, 8460, Note_on_c, 2, 60, 100
4, 8508, Note_on_c, 2, 60, 0
4, 8520, Note_on_c, 2, 59, 100
4, 8544, Note_on_c, 2, 59, 0
4, 8550, Note_on_c, 2, 67, 100
4, 8574, Note_on_c, 2, 67, 0
4, 8580, Note_on_c, 2, 58, 100
4, 8628, Note_on_c, 2, 58, 0
4, 8700, Note_on_c, 2, 70, 100
4, 8724, Note_on_c, 2, 70, 0
4, 8730, Note_on_c, 2, 69, 100
4, 8754, Note_on_c, 2, 69, 0
4, 8820, Note_on_c, 2, 64, 100
4, 8844, Note_on_c, 2, 64, 0
4, 8850, Note_on_c, 2, 62, 100
4, 8874, Note_on_c, 2, 62, 0
4, 8940, Note_on_c, 2, 57, 100
4, 8964, Note_on_c, 2, 57, 0
4, 8970, Note_on_c, 2, 55, 100
4, 8994, Note_on_c, 2, 55, 0
4, 9060, Note_on_c, 2, 52, 100
4, 9084, Note_on_c, 2, 52, 0
4, 9090, Note_on_c, 2, 50, 100
4, 9114, Note_on_c, 2, 50, 0
4, 9150, Note_on_c, 2, 68, 100
4, 9174, Note_on_c, 2, 68, 0
4, 9180, Note_on_c, 2, 71, 100
4, 9204, Note_on_c, 2, 71, 0
4, 9210, Note_on_c, 2, 74, 100
4, 9234, Note_on_c, 2, 74, 0
4, 9240, Note_on_c, 2, 68, 100
4, 9264, Note_on_c, 2, 68, 0
4, 9270, Note_on_c, 2, 71, 100
4, 9294, Note_on_c, 2, 71, 0
4, 9300, Note_on_c, 2, 67, 100
4, 9348, Note_on_c, 2, 67, 0
4, 9360, Note_on_c, 2, 65, 100
4, 9384, Note_on_c, 2, 65, 0
4, 9390, Note_on_c, 2, 64, 100
4, 9414, Note_on_c, 2, 64, 0
4, 9420, Note_on_c, 2, 63, 100
4, 9444, Note_on_c, 2, 63, 0
4, 9450, Note_on_c, 2, 65, 100
4, 9474, Note_on_c, 2, 65, 0
4, 9480, Note_on_c, 2, 59, 100
4, 9504, Note_on_c, 2, 59, 0
4, 9510, Note_on_c, 2, 58, 100
4, 9534, Note_on_c, 2, 58, 0
4, 9540, Note_on_c, 2, 57, 100
4, 9588, Note_on_c, 2, 57, 0
4, 9660, Note_on_c, 2, 55, 100
4, 9684, Note_on_c, 2, 55, 0
4, 9690, Note_on_c, 2, 56, 100
4, 9714, Note_on_c, 2, 56, 0
4, 9780, Note_on_c, 2, 50, 100
4, 9804, Note_on_c, 2, 50, 0
4, 9810, Note_on_c, 2, 52, 100
4, 9834, Note_on_c, 2, 52, 0
4, 9900, Note_on_c, 2, 57, 100
4, 9924, Note_on_c, 2, 57, 0
4, 9930, Note_on_c, 2, 59, 100
4, 9954, Note_on_c, 2, 59, 0
4, 10020, Note_on_c, 2, 67, 100
4, 10044, Note_on_c, 2, 67, 0
4, 10050, Note_on_c, 2, 64, 100
4, 10074, Note_on_c, 2, 64, 0
4, 10110, Note_on_c, 2, 71, 100
4, 10134, Note_on_c, 2, 71, 0
4, 10140, Note_on_c, 2, 74, 100
4, 10164, Note_on_c, 2, 74, 0
4, 10170, Note_on_c, 2, 77, 100
4, 10194, Note_on_c, 2, 77, 0
4, 10200, Note_on_c, 2, 71, 100
4, 10224, Note_on_c, 2, 71, 0
4, 10230, Note_on_c, 2, 74, 100
4, 10254, Note_on_c, 2, 74, 0
4, 10260, Note_on_c, 2, 70, 100
4, 10308, Note_on_c, 2, 70, 0
4, 10320, Note_on_c, 2, 69, 100
4, 10344, Note_on_c, 2, 69, 0
4, 10350, Note_on_c, 2, 67, 100
4, 10374, Note_on_c, 2, 67, 0
4, 10380, Note_on_c, 2, 66, 100
4, 10404, Note_on_c, 2, 66, 0
4, 10410, Note_on_c, 2, 69, 100
4, 10464, Note_on_c, 2, 69, 0
4, 10470, Note_on_c, 2, 66, 100
4, 10494, Note_on_c, 2, 66, 0
4, 10500, Note_on_c, 2, 67, 100
4, 10524, Note_on_c, 2, 67, 0
4, 10530, Note_on_c, 2, 70, 100
4, 10554, Note_on_c, 2, 70, 0
4, 10560, Note_on_c, 2, 73, 100
4, 10584, Note_on_c, 2, 73, 0
4, 10590, Note_on_c, 2, 70, 100
4, 10614, Note_on_c, 2, 70, 0
4, 10620, Note_on_c, 2, 72, 100
4, 10644, Note_on_c, 2, 72, 0
4, 10650, Note_on_c, 2, 70, 100
4, 10674, Note_on_c, 2, 70, 0
4, 10740, Note_on_c, 2, 67, 100
4, 10764, Note_on_c, 2, 67, 0
4, 10770, Note_on_c, 2, 65, 100
4, 10794, Note_on_c, 2, 65, 0
4, 10860, Note_on_c, 2, 63, 100
4, 10884, Note_on_c, 2, 63, 0
4, 10890, Note_on_c, 2, 55, 100
4, 10914, Note_on_c, 2, 55, 0
4, 10980, Note_on_c, 2, 58, 100
4, 11004, Note_on_c, 2, 58, 0
4, 11010, Note_on_c, 2, 60, 100
4, 11034, Note_on_c, 2, 60, 0
4, 11040, Note_on_c, 2, 62, 100
4, 11064, Note_on_c, 2, 62, 0
4, 11070, Note_on_c, 2, 59, 100
4, 11094, Note_on_c, 2, 59, 0
4, 11100, Note_on_c, 2, 58, 100
4, 11124, Note_on_c, 2, 58, 0
4, 11130, Note_on_c, 2, 62, 100
4, 11154, Note_on_c, 2, 62, 0
4, 11160, Note_on_c, 2, 59, 100
4, 11184, Note_on_c, 2, 59, 0
4, 11190, Note_on_c, 2, 58, 100
4, 11214, Note_on_c, 2, 58, 0
4, 11220, Note_on_c, 2, 63, 100
4, 11244, Note_on_c, 2, 63, 0
4, 11250, Note_on_c, 2, 59, 100
4, 11274, Note_on_c, 2, 59, 0
4, 11280, Note_on_c, 2, 62, 100
4, 11304, Note_on_c, 2, 62, 0
4, 11310, Note_on_c, 2, 59, 100
4, 11334, Note_on_c, 2, 59, 0
4, 11340, Note_on_c, 2, 58, 100
4, 11364, Note_on_c, 2, 58, 0
4, 11370, Note_on_c, 2, 62, 100
4, 11394, Note_on_c, 2, 62, 0
4, 11400, Note_on_c, 2, 59, 100
4, 11424, Note_on_c, 2, 59, 0
4, 11430, Note_on_c, 2, 58, 100
4, 11454, Note_on_c, 2, 58, 0
4, 11460, Note_on_c, 2, 57, 100
4, 11484, Note_on_c, 2, 57, 0
4, 11490, Note_on_c, 2, 59, 100
4, 11514, Note_on_c, 2, 59, 0
4, 11520, Note_on_c, 2, 55, 100
4, 11544, Note_on_c, 2, 55, 0
4, 11550, Note_on_c, 2, 47, 100
4, 11622, Note_on_c, 2, 47, 0
4, 11640, Note_on_c, 2, 52, 100
4, 11664, Note_on_c, 2, 52, 0
4, 11670, Note_on_c, 2, 55, 100
4, 11742, Note_on_c, 2, 55, 0
4, 11760, Note_on_c, 2, 59, 100
4, 11784, Note_on_c, 2, 59, 0
4, 11790, Note_on_c, 2, 67, 100
4, 11862, Note_on_c, 2, 67, 0
4, 11880, Note_on_c, 2, 64, 100
4, 11904, Note_on_c, 2, 64, 0
4, 11910, Note_on_c, 2, 72, 100
4, 11982, Note_on_c, 2, 72, 0
4, 12000, Note_on_c, 2, 75, 100
4, 12024, Note_on_c, 2, 75, 0
4, 12030, Note_on_c, 2, 74, 100
4, 12054, Note_on_c, 2, 74, 0
4, 12060, Note_on_c, 2, 75, 100
4, 12084, Note_on_c, 2, 75, 0
4, 12090, Note_on_c, 2, 74, 100
4, 12114, Note_on_c, 2, 74, 0
4, 12120, Note_on_c, 2, 72, 100
4, 12144, Note_on_c, 2, 72, 0
4, 12150, Note_on_c, 2, 67, 100
4, 12174, Note_on_c, 2, 67, 0
4, 12180, Note_on_c, 2, 65, 100
4, 12204, Note_on_c, 2, 65, 0
4, 12210, Note_on_c, 2, 67, 100
4, 12234, Note_on_c, 2, 67, 0
4, 12240, Note_on_c, 2, 63, 100
4, 12288, Note_on_c, 2, 63, 0
4, 12300, Note_on_c, 2, 65, 100
4, 12348, Note_on_c, 2, 65, 0
4, 12360, Note_on_c, 2, 67, 100
4, 12376, Note_on_c, 2, 67, 0
4, 12380, Note_on_c, 2, 65, 100
4, 12396, Note_on_c, 2, 65, 0
4, 12400, Note_on_c, 2, 63, 100
4, 12416, Note_on_c, 2, 63, 0
4, 12420, Note_on_c, 2, 55, 100
4, 12468, Note_on_c, 2, 55, 0
4, 12960, Note_on_c, 2, 75, 100
4, 12984, Note_on_c, 2, 75, 0
4, 12990, Note_on_c, 2, 74, 100
4, 13014, Note_on_c, 2, 74, 0
4, 13020, Note_on_c, 2, 75, 100
4, 13044, Note_on_c, 2, 75, 0
4, 13050, Note_on_c, 2, 74, 100
4, 13074, Note_on_c, 2, 74, 0
4, 13080, Note_on_c, 2, 72, 100
4, 13104, Note_on_c, 2, 72, 0
4, 13110, Note_on_c, 2, 67, 100
4, 13134, Note_on_c, 2, 67, 0
4, 13140, Note_on_c, 2, 65, 100
4, 13164, Note_on_c, 2, 65, 0
4, 13170, Note_on_c, 2, 67, 100
4, 13194, Note_on_c, 2, 67, 0
4, 13200, Note_on_c, 2, 63, 100
4, 13248, Note_on_c, 2, 63, 0
4, 13260, Note_on_c, 2, 65, 100
4, 13308, Note_on_c, 2, 65, 0
4, 13320, Note_on_c, 2, 67, 100
4, 13336, Note_on_c, 2, 67, 0
4, 13340, Note_on_c, 2, 65, 100
4, 13356, Note_on_c, 2, 65, 0
4, 13360, Note_on_c, 2, 63, 100
4, 13376, Note_on_c, 2, 63, 0
4, 13380, Note_on_c, 2, 55, 100
4, 13428, Note_on_c, 2, 55, 0
4, 13800, Note_on_c, 2, 76, 100
4, 13920, Note_on_c, 2, 76, 0
4, 13950, Note_on_c, 2, 74, 100
4, 13974, Note_on_c, 2, 74, 0
4, 13980, Note_on_c, 2, 75, 100
4, 14004, Note_on_c, 2, 75, 0
4, 14010, Note_on_c, 2, 74, 100
4, 14034, Note_on_c, 2, 74, 0
4, 14040, Note_on_c, 2, 72, 100
4, 14064, Note_on_c, 2, 72, 0
4, 14070, Note_on_c, 2, 67, 100
4, 14094, Note_on_c, 2, 67, 0
4, 14100, Note_on_c, 2, 65, 100
4, 14124, Note_on_c, 2, 65, 0
4, 14130, Note_on_c, 2, 67, 100
4, 14154, Note_on_c, 2, 67, 0
4, 14160, Note_on_c, 2, 63, 100
4, 14208, Note_on_c, 2, 63, 0
4, 14220, Note_on_c, 2, 65, 100
4, 14268, Note_on_c, 2, 65, 0
4, 14280, Note_on_c, 2, 67, 100
4, 14296, Note_on_c, 2, 67, 0
4, 14300, Note_on_c, 2, 65, 100
4, 14316, Note_on_c, 2, 65, 0
4, 14320, Note_on_c, 2, 63, 100
4, 14336, Note_on_c, 2, 63, 0
4, 14340, Note_on_c, 2, 55, 100
4, 14388, Note_on_c, 2, 55, 0
4, 14880, Note_on_c, 2, 75, 100
4, 14904, Note_on_c, 2, 75, 0
4, 14910, Note_on_c, 2, 74, 100
4, 14934, Note_on_c, 2, 74, 0
4, 14940, Note_on_c, 2, 75, 100
4, 14964, Note_on_c, 2, 75, 0
4, 14970, Note_on_c, 2, 74, 100
4, 14994, Note_on_c, 2, 74, 0
4, 15000, Note_on_c, 2, 72, 100
4, 15024, Note_on_c, 2, 72, 0
4, 15030, Note_on_c, 2, 67, 100
4, 15054, Note_on_c, 2, 67, 0
4, 15060, Note_on_c, 2, 65, 100
4, 15084, Note_on_c, 2, 65, 0
4, 15090, Note_on_c, 2, 67, 100
4, 15114, Note_on_c, 2, 67, 0
4, 15120, Note_on_c, 2, 63, 100
4, 15168, Note_on_c, 2, 63, 0
4, 15180, Note_on_c, 2, 65, 100
4, 15228, Note_on_c, 2, 65, 0
4, 15240, Note_on_c, 2, 67, 100
4, 15256, Note_on_c, 2, 67, 0
4, 15260, Note_on_c, 2, 65, 100
4, 15276, Note_on_c, 2, 65, 0
4, 15280, Note_on_c, 2, 63, 100
4, 15296, Note_on_c, 2, 63, 0
4, 15300, Note_on_c, 2, 55, 100
4, 15348, Note_on_c, 2, 55, 0
4, 15360, Note_on_c, 2, 48, 100
4, 15408, Note_on_c, 2, 48, 0
4, 15420, Note_on_c, 2, 51, 100
4, 15468, Note_on_c, 2, 51, 0
4, 15480, Note_on_c, 2, 53, 100
4, 15528, Note_on_c, 2, 53, 0
4, 15540, Note_on_c, 2, 56, 100
4, 15588, Note_on_c, 2, 56, 0
4, 15600, Note_on_c, 2, 58, 100
4, 15648, Note_on_c, 2, 58, 0
4, 15660, Note_on_c, 2, 61, 100
4, 15708, Note_on_c, 2, 61, 0
4, 15720, Note_on_c, 2, 63, 100
4, 15768, Note_on_c, 2, 63, 0
4, 15780, Note_on_c, 2, 66, 100
4, 15828, Note_on_c, 2, 66, 0
4, 15840, Note_on_c, 2, 68, 100
4, 15864, Note_on_c, 2, 68, 0
4, 15870, Note_on_c, 2, 71, 100
4, 15894, Note_on_c, 2, 71, 0
4, 15900, Note_on_c, 2, 74, 100
4, 15948, Note_on_c, 2, 74, 0
4, 15960, Note_on_c, 2, 68, 100
4, 15984, Note_on_c, 2, 68, 0
4, 15990, Note_on_c, 2, 71, 100
4, 16014, Note_on_c, 2, 71, 0
4, 16020, Note_on_c, 2, 67, 100
4, 16068, Note_on_c, 2, 67, 0
4, 16080, Note_on_c, 2, 65, 100
4, 16104, Note_on_c, 2, 65, 0
4, 16110, Note_on_c, 2, 63, 100
4, 16134, Note_on_c, 2, 63, 0
4, 16140, Note_on_c, 2, 60, 100
4, 16188, Note_on_c, 2, 60, 0
4, 16200, Note_on_c, 2, 59, 100
4, 16224, Note_on_c, 2, 59, 0
4, 16230, Note_on_c, 2, 67, 100
4, 16254, Note_on_c, 2, 67, 0
4, 16260, Note_on_c, 2, 58, 100
4, 16308, Note_on_c, 2, 58, 0
4, 16380, Note_on_c, 2, 70, 100
4, 16404, Note_on_c, 2, 70, 0
4, 16410, Note_on_c, 2, 69, 100
4, 16434, Note_on_c, 2, 69, 0
4, 16500, Note_on_c, 2, 64, 100
4, 16524, Note_on_c, 2, 64, 0
4, 16530, Note_on_c, 2, 62, 100
4, 16554, Note_on_c, 2, 62, 0
4, 16620, Note_on_c, 2, 57, 100
4, 16644, Note_on_c, 2, 57, 0
4, 16650, Note_on_c, 2, 55, 100
4, 16674, Note_on_c, 2, 55, 0
4, 16740, Note_on_c, 2, 52, 100
4, 16764, Note_on_c, 2, 52, 0
4, 16770, Note_on_c, 2, 50, 100
4, 16794, Note_on_c, 2, 50, 0
4, 16830, Note_on_c, 2, 68, 100
4, 16854, Note_on_c, 2, 68, 0
4, 16860, Note_on_c, 2, 71, 100
4, 16884, Note_on_c, 2, 71, 0
4, 16890, Note_on_c, 2, 74, 100
4, 16914, Note_on_c, 2, 74, 0
4, 16920, Note_on_c, 2, 68, 100
4, 16944, Note_on_c, 2, 68, 0
4, 16950, Note_on_c, 2, 71, 100
4, 16974, Note_on_c, 2, 71, 0
4, 16980, Note_on_c, 2, 67, 100
4, 17028, Note_on_c, 2, 67, 0
4, 17040, Note_on_c, 2, 65, 100
4, 17064, Note_on_c, 2, 65, 0
4, 17070, Note_on_c, 2, 64, 100
4, 17094, Note_on_c, 2, 64, 0
4, 17100, Note_on_c, 2, 63, 100
4, 17124, Note_on_c, 2, 63, 0
4, 17130, Note_on_c, 2, 65, 100
4, 17154, Note_on_c, 2, 65, 0
4, 17160, Note_on_c, 2, 59, 100
4, 17184, Note_on_c, 2, 59, 0
4, 17190, Note_on_c, 2, 58, 100
4, 17214, Note_on_c, 2, 58, 0
4, 17220, Note_on_c, 2, 57, 100
4, 17268, Note_on_c, 2, 57, 0
4, 17340, Note_on_c, 2, 55, 100
4, 17364, Note_on_c, 2, 55, 0
4, 17370, Note_on_c, 2, 56, 100
4, 17394, Note_on_c, 2, 56, 0
4, 17460, Note_on_c, 2, 50, 100
4, 17484, Note_on_c, 2, 50, 0
4, 17490, Note_on_c, 2, 52, 100
4, 17514, Note_on_c, 2, 52, 0
4, 17580, Note_on_c, 2, 55, 100
4, 17604, Note_on_c, 2, 55, 0
4, 17610, Note_on_c, 2, 57, 100
4, 17634, Note_on_c, 2, 57, 0
4, 17700, Note_on_c, 2, 67, 100
4, 17724, Note_on_c, 2, 67, 0
4, 17730, Note_on_c, 2, 64, 100
4, 17754, Note_on_c, 2, 64, 0
4, 17790, Note_on_c, 2, 71, 100
4, 17814, Note_on_c, 2, 71, 0
4, 17820, Note_on_c, 2, 74, 100
4, 17844, Note_on_c, 2, 74, 0
4, 17850, Note_on_c, 2, 77, 100
4, 17874, Note_on_c, 2, 77, 0
4, 17880, Note_on_c, 2, 71, 100
4, 17904, Note_on_c, 2, 71, 0
4, 17910, Note_on_c, 2, 74, 100
4, 17934, Note_on_c, 2, 74, 0
4, 17940, Note_on_c, 2, 70, 100
4, 17988, Note_on_c, 2, 70, 0
4, 18000, Note_on_c, 2, 69, 100
4, 18024, Note_on_c, 2, 69, 0
4, 18030, Note_on_c, 2, 67, 100
4, 18054, Note_on_c, 2, 67, 0
4, 18060, Note_on_c, 2, 66, 100
4, 18084, Note_on_c, 2, 66, 0
4, 18090, Note_on_c, 2, 69, 100
4, 18144, Note_on_c, 2, 69, 0
4, 18150, Note_on_c, 2, 66, 100
4, 18174, Note_on_c, 2, 66, 0
4, 18180, Note_on_c, 2, 67, 100
4, 18204, Note_on_c, 2, 67, 0
4, 18210, Note_on_c, 2, 70, 100
4, 18234, Note_on_c, 2, 70, 0
4, 18240, Note_on_c, 2, 73, 100
4, 18264, Note_on_c, 2, 73, 0
4, 18270, Note_on_c, 2, 70, 100
4, 18294, Note_on_c, 2, 70, 0
4, 18300, Note_on_c, 2, 72, 100
4, 18324, Note_on_c, 2, 72, 0
4, 18330, Note_on_c, 2, 70, 100
4, 18354, Note_on_c, 2, 70, 0
4, 18420, Note_on_c, 2, 67, 100
4, 18444, Note_on_c, 2, 67, 0
4, 18450, Note_on_c, 2, 65, 100
4, 18474, Note_on_c, 2, 65, 0
4, 18540, Note_on_c, 2, 63, 100
4, 18564, Note_on_c, 2, 63, 0
4, 18570, Note_on_c, 2, 55, 100
4, 18594, Note_on_c, 2, 55, 0
4, 18660, Note_on_c, 2, 58, 100
4, 18684, Note_on_c, 2, 58, 0
4, 18690, Note_on_c, 2, 60, 100
4, 18714, Note_on_c, 2, 60, 0
4, 18720, Note_on_c, 2, 62, 100
4, 18744, Note_on_c, 2, 62, 0
4, 18750, Note_on_c, 2, 59, 100
4, 18774, Note_on_c, 2, 59, 0
4, 18780, Note_on_c, 2, 58, 100
4, 18804, Note_on_c, 2, 58, 0
4, 18810, Note_on_c, 2, 62, 100
4, 18834, Note_on_c, 2, 62, 0
4, 18840, Note_on_c, 2, 59, 100
4, 18864, Note_on_c, 2, 59, 0
4, 18870, Note_on_c, 2, 58, 100
4, 18894, Note_on_c, 2, 58, 0
4, 18900, Note_on_c, 2, 63, 100
4, 18924, Note_on_c, 2, 63, 0
4, 18930, Note_on_c, 2, 59, 100
4, 18954, Note_on_c, 2, 59, 0
4, 18960, Note_on_c, 2, 62, 100
4, 18984, Note_on_c, 2, 62, 0
4, 18990, Note_on_c, 2, 59, 100
4, 19014, Note_on_c, 2, 59, 0
4, 19020, Note_on_c, 2, 58, 100
4, 19044, Note_on_c, 2, 58, 0
4, 19050, Note_on_c, 2, 62, 100
4, 19074, Note_on_c, 2, 62, 0
4, 19080, Note_on_c, 2, 59, 100
4, 19104, Note_on_c, 2, 59, 0
4, 19110, Note_on_c, 2, 58, 100
4, 19134, Note_on_c, 2, 58, 0
4, 19140, Note_on_c, 2, 57, 100
4, 19164, Note_on_c, 2, 57, 0
4, 19170, Note_on_c, 2, 59, 100
4, 19194, Note_on_c, 2, 59, 0
4, 19200, Note_on_c, 2, 55, 100
4, 19224, Note_on_c, 2, 55, 0
4, 19230, Note_on_c, 2, 47, 100
4, 19302, Note_on_c, 2, 47, 0
4, 19320, Note_on_c, 2, 52, 100
4, 19344, Note_on_c, 2, 52, 0
4, 19350, Note_on_c, 2, 55, 100
4, 19422, Note_on_c, 2, 55, 0
4, 19440, Note_on_c, 2, 59, 100
4, 19464, Note_on_c, 2, 59, 0
4, 19470, Note_on_c, 2, 67, 100
4, 19542, Note_on_c, 2, 67, 0
4, 19560, Note_on_c, 2, 64, 100
4, 19584, Note_on_c, 2, 64, 0
4, 19590, Note_on_c, 2, 72, 100
4, 19662, Note_on_c, 2, 72, 0
4, 19680, Note_on_c, 2, 73, 122
4, 19800, Note_on_c, 2, 75, 109
4, 19803, Note_on_c, 2, 73, 0
4, 19919, Note_on_c, 2, 75, 0
4, 19920, Note_on_c, 2, 71, 91
4, 20035, Note_on_c, 2, 71, 0
4, 20040, Note_on_c, 2, 76, 91
4, 20156, Note_on_c, 2, 76, 0
4, 20160, Note_on_c, 2, 79, 98
4, 20514, Note_on_c, 2, 79, 0
4, 20520, Note_on_c, 2, 76, 101
4, 20606, Note_on_c, 2, 76, 0
4, 20640, Note_on_c, 2, 74, 103
4, 20730, Note_on_c, 2, 72, 105
4, 20734, Note_on_c, 2, 74, 0
4, 21060, Note_on_c, 2, 72, 0
4, 21120, Note_on_c, 2, 67, 89
4, 21208, Note_on_c, 2, 67, 0
4, 21210, Note_on_c, 2, 69, 82
4, 21539, Note_on_c, 2, 69, 0
4, 21600, Note_on_c, 2, 74, 89
4, 21684, Note_on_c, 2, 74, 0
4, 21690, Note_on_c, 2, 72, 87
4, 21952, Note_on_c, 2, 72, 0
4, 21960, Note_on_c, 2, 67, 91
4, 22050, Note_on_c, 2, 69, 85
4, 22055, Note_on_c, 2, 67, 0
4, 22508, Note_on_c, 2, 69, 0
4, 22560, Note_on_c, 2, 74, 85
4, 22650, Note_on_c, 2, 72, 89
4, 22651, Note_on_c, 2, 74, 0
4, 23025, Note_on_c, 2, 72, 0
4, 23040, Note_on_c, 2, 67, 93
4, 23130, Note_on_c, 2, 69, 79
4, 23135, Note_on_c, 2, 67, 0
4, 23489, Note_on_c, 2, 69, 0
4, 23520, Note_on_c, 2, 74, 89
4, 23607, Note_on_c, 2, 74, 0
4, 23610, Note_on_c, 2, 72, 93
4, 23877, Note_on_c, 2, 72, 0
4, 23880, Note_on_c, 2, 67, 81
4, 23963, Note_on_c, 2, 67, 0
4, 23970, Note_on_c, 2, 69, 84
4, 24418, Note_on_c, 2, 69, 0
4, 24480, Note_on_c, 2, 75, 107
4, 24555, Note_on_c, 2, 75, 0
4, 24570, Note_on_c, 2, 74, 91
4, 24960, Note_on_c, 2, 72, 85
4, 24964, Note_on_c, 2, 74, 0
4, 25036, Note_on_c, 2, 72, 0
4, 25050, Note_on_c, 2, 74, 96
4, 25399, Note_on_c, 2, 74, 0
4, 25440, Note_on_c, 2, 75, 107
4, 25526, Note_on_c, 2, 75, 0
4, 25530, Note_on_c, 2, 74, 77
4, 25669, Note_on_c, 2, 74, 0
4, 25680, Note_on_c, 2, 72, 85
4, 25770, Note_on_c, 2, 69, 67
4, 25773, Note_on_c, 2, 72, 0
4, 26341, Note_on_c, 2, 69, 0
4, 26400, Note_on_c, 2, 75, 112
4, 26478, Note_on_c, 2, 75, 0
4, 26490, Note_on_c, 2, 74, 91
4, 26878, Note_on_c, 2, 74, 0
4, 26880, Note_on_c, 2, 72, 82
4, 26967, Note_on_c, 2, 72, 0
4, 26970, Note_on_c, 2, 74, 79
4, 27150, Note_on_c, 2, 74, 0
4, 27300, Note_on_c, 2, 77, 100
4, 27480, Note_on_c, 2, 75, 100
4, 27494, Note_on_c, 2, 77, 0
4, 27600, Note_on_c, 2, 74, 100
4, 27608, Note_on_c, 2, 75, 0
4, 27720, Note_on_c, 2, 72, 100
4, 27728, Note_on_c, 2, 74, 0
4, 27840, Note_on_c, 2, 72, 0
4, 27840, Note_on_c, 2, 71, 100
4, 27958, Note_on_c, 2, 71, 0
4, 27960, Note_on_c, 2, 69, 100
4, 28080, Note_on_c, 2, 69, 0
4, 28080, Note_on_c, 2, 68, 100
4, 28197, Note_on_c, 2, 68, 0
4, 28200, Note_on_c, 2, 67, 100
4, 28320, Note_on_c, 2, 67, 0
4, 28320, Note_on_c, 2, 64, 100
4, 28440, Note_on_c, 2, 64, 0
4, 28440, End_track
5, 0, Start_track
5, 0, MIDI_port, 0
5, 0, Title_t, "Chorus Piano"
5, 0, Program_c, 3, 5
5, 0, Control_c, 3, 7, 100
5, 0, Control_c, 3, 10, 110
5, 0, Control_c, 3, 91, 54
5, 0, Control_c, 3, 93, 118
5, 450, Note_on_c, 3, 67, 100
5, 474, Note_on_c, 3, 67, 0
5, 480, Note_on_c, 3, 68, 100
5, 504, Note_on_c, 3, 68, 0
5, 510, Note_on_c, 3, 71, 100
5, 534, Note_on_c, 3, 71, 0
5, 540, Note_on_c, 3, 74, 100
5, 588, Note_on_c, 3, 74, 0
5, 600, Note_on_c, 3, 68, 100
5, 624, Note_on_c, 3, 68, 0
5, 630, Note_on_c, 3, 71, 100
5, 654, Note_on_c, 3, 71, 0
5, 660, Note_on_c, 3, 67, 100
5, 708, Note_on_c, 3, 67, 0
5, 720, Note_on_c, 3, 65, 100
5, 744, Note_on_c, 3, 65, 0
5, 750, Note_on_c, 3, 63, 100
5, 774, Note_on_c, 3, 63, 0
5, 780, Note_on_c, 3, 60, 100
5, 828, Note_on_c, 3, 60, 0
5, 840, Note_on_c, 3, 59, 100
5, 864, Note_on_c, 3, 59, 0
5, 870, Note_on_c, 3, 67, 100
5, 894, Note_on_c, 3, 67, 0
5, 900, Note_on_c, 3, 58, 100
5, 948, Note_on_c, 3, 58, 0
5, 1020, Note_on_c, 3, 70, 100
5, 1044, Note_on_c, 3, 70, 0
5, 1050, Note_on_c, 3, 69, 100
5, 1074, Note_on_c, 3, 69, 0
5, 1140, Note_on_c, 3, 64, 100
5, 1164, Note_on_c, 3, 64, 0
5, 1170, Note_on_c, 3, 62, 100
5, 1194, Note_on_c, 3, 62, 0
5, 1260, Note_on_c, 3, 57, 100
5, 1284, Note_on_c, 3, 57, 0
5, 1290, Note_on_c, 3, 55, 100
5, 1314, Note_on_c, 3, 55, 0
5, 1380, Note_on_c, 3, 52, 100
5, 1404, Note_on_c, 3, 52, 0
5, 1410, Note_on_c, 3, 50, 100
5, 1434, Note_on_c, 3, 50, 0
5, 1470, Note_on_c, 3, 68, 100
5, 1494, Note_on_c, 3, 68, 0
5, 1500, Note_on_c, 3, 71, 100
5, 1524, Note_on_c, 3, 71, 0
5, 1530, Note_on_c, 3, 74, 100
5, 1554, Note_on_c, 3, 74, 0
5, 1560, Note_on_c, 3, 68, 100
5, 1584, Note_on_c, 3, 68, 0
5, 1590, Note_on_c, 3, 71, 100
5, 1614, Note_on_c, 3, 71, 0
5, 1620, Note_on_c, 3, 67, 100
5, 1668, Note_on_c, 3, 67, 0
5, 1680, Note_on_c, 3, 65, 100
5, 1704, Note_on_c, 3, 65, 0
5, 1710, Note_on_c, 3, 64, 100
5, 1734, Note_on_c, 3, 64, 0
5, 1740, Note_on_c, 3, 63, 100
5, 1764, Note_on_c, 3, 63, 0
5, 1770, Note_on_c, 3, 65, 100
5, 1794, Note_on_c, 3, 65, 0
5, 1800, Note_on_c, 3, 59, 100
5, 1824, Note_on_c, 3, 59, 0
5, 1830, Note_on_c, 3, 58, 100
5, 1854, Note_on_c, 3, 58, 0
5, 1860, Note_on_c, 3, 57, 100
5, 1908, Note_on_c, 3, 57, 0
5, 1980, Note_on_c, 3, 55, 100
5, 2004, Note_on_c, 3, 55, 0
5, 2010, Note_on_c, 3, 56, 100
5, 2034, Note_on_c, 3, 56, 0
5, 2100, Note_on_c, 3, 50, 100
5, 2124, Note_on_c, 3, 50, 0
5, 2130, Note_on_c, 3, 52, 100
5, 2154, Note_on_c, 3, 52, 0
5, 2220, Note_on_c, 3, 57, 100
5, 2244, Note_on_c, 3, 57, 0
5, 2250, Note_on_c, 3, 59, 100
5, 2274, Note_on_c, 3, 59, 0
5, 2340, Note_on_c, 3, 67, 100
5, 2364, Note_on_c, 3, 67, 0
5, 2370, Note_on_c, 3, 64, 100
5, 2394, Note_on_c, 3, 64, 0
5, 2430, Note_on_c, 3, 71, 100
5, 2454, Note_on_c, 3, 71, 0
5, 2460, Note_on_c, 3, 74, 100
5, 2484, Note_on_c, 3, 74, 0
5, 2490, Note_on_c, 3, 77, 100
5, 2514, Note_on_c, 3, 77, 0
5, 2520, Note_on_c, 3, 71, 100
5, 2544, Note_on_c, 3, 71, 0
5, 2550, Note_on_c, 3, 74, 100
5, 2574, Note_on_c, 3, 74, 0
5, 2580, Note_on_c, 3, 70, 100
5, 2628, Note_on_c, 3, 70, 0
5, 2640, Note_on_c, 3, 69, 100
5, 2664, Note_on_c, 3, 69, 0
5, 2670, Note_on_c, 3, 67, 100
5, 2694, Note_on_c, 3, 67, 0
5, 2700, Note_on_c, 3, 66, 100
5, 2724, Note_on_c, 3, 66, 0
5, 2730, Note_on_c, 3, 69, 100
5, 2784, Note_on_c, 3, 69, 0
5, 2790, Note_on_c, 3, 66, 100
5, 2814, Note_on_c, 3, 66, 0
5, 2820, Note_on_c, 3, 67, 100
5, 2844, Note_on_c, 3, 67, 0
5, 2850, Note_on_c, 3, 70, 100
5, 2874, Note_on_c, 3, 70, 0
5, 2880, Note_on_c, 3, 73, 100
5, 2904, Note_on_c, 3, 73, 0
5, 2910, Note_on_c, 3, 70, 100
5, 2934, Note_on_c, 3, 70, 0
5, 2940, Note_on_c, 3, 72, 100
5, 2964, Note_on_c, 3, 72, 0
5, 2970, Note_on_c, 3, 70, 100
5, 2994, Note_on_c, 3, 70, 0
5, 3060, Note_on_c, 3, 67, 100
5, 3084, Note_on_c, 3, 67, 0
5, 3090, Note_on_c, 3, 65, 100
5, 3114, Note_on_c, 3, 65, 0
5, 3180, Note_on_c, 3, 63, 100
5, 3204, Note_on_c, 3, 63, 0
5, 3210, Note_on_c, 3, 55, 100
5, 3234, Note_on_c, 3, 55, 0
5, 3300, Note_on_c, 3, 58, 100
5, 3324, Note_on_c, 3, 58, 0
5, 3330, Note_on_c, 3, 60, 100
5, 3354, Note_on_c, 3, 60, 0
5, 3360, Note_on_c, 3, 62, 100
5, 3384, Note_on_c, 3, 62, 0
5, 3390, Note_on_c, 3, 59, 100
5, 3414, Note_on_c, 3, 59, 0
5, 3420, Note_on_c, 3, 58, 100
5, 3444, Note_on_c, 3, 58, 0
5, 3450, Note_on_c, 3, 62, 100
5, 3474, Note_on_c, 3, 62, 0
5, 3480, Note_on_c, 3, 59, 100
5, 3504, Note_on_c, 3, 59, 0
5, 3510, Note_on_c, 3, 58, 100
5, 3534, Note_on_c, 3, 58, 0
5, 3540, Note_on_c, 3, 63, 100
5, 3564, Note_on_c, 3, 63, 0
5, 3570, Note_on_c, 3, 59, 100
5, 3594, Note_on_c, 3, 59, 0
5, 3600, Note_on_c, 3, 62, 100
5, 3624, Note_on_c, 3, 62, 0
5, 3630, Note_on_c, 3, 59, 100
5, 3654, Note_on_c, 3, 59, 0
5, 3660, Note_on_c, 3, 58, 100
5, 3684, Note_on_c, 3, 58, 0
5, 3690, Note_on_c, 3, 62, 100
5, 3714, Note_on_c, 3, 62, 0
5, 3720, Note_on_c, 3, 59, 100
5, 3744, Note_on_c, 3, 59, 0
5, 3750, Note_on_c, 3, 58, 100
5, 3774, Note_on_c, 3, 58, 0
5, 3780, Note_on_c, 3, 57, 100
5, 3804, Note_on_c, 3, 57, 0
5, 3810, Note_on_c, 3, 59, 100
5, 3834, Note_on_c, 3, 59, 0
5, 3840, Note_on_c, 3, 55, 100
5, 3864, Note_on_c, 3, 55, 0
5, 3870, Note_on_c, 3, 47, 100
5, 3942, Note_on_c, 3, 47, 0
5, 3960, Note_on_c, 3, 52, 100
5, 3984, Note_on_c, 3, 52, 0
5, 3990, Note_on_c, 3, 55, 100
5, 4062, Note_on_c, 3, 55, 0
5, 4080, Note_on_c, 3, 59, 100
5, 4104, Note_on_c, 3, 59, 0
5, 4110, Note_on_c, 3, 67, 100
5, 4182, Note_on_c, 3, 67, 0
5, 4200, Note_on_c, 3, 64, 100
5, 4296, Note_on_c, 3, 64, 0
5, 8160, Note_on_c, 3, 68, 100
5, 8184, Note_on_c, 3, 68, 0
5, 8190, Note_on_c, 3, 71, 100
5, 8214, Note_on_c, 3, 71, 0
5, 8220, Note_on_c, 3, 74, 100
5, 8268, Note_on_c, 3, 74, 0
5, 8280, Note_on_c, 3, 68, 100
5, 8304, Note_on_c, 3, 68, 0
5, 8310, Note_on_c, 3, 71, 100
5, 8334, Note_on_c, 3, 71, 0
5, 8340, Note_on_c, 3, 67, 100
5, 8388, Note_on_c, 3, 67, 0
5, 8400, Note_on_c, 3, 65, 100
5, 8424, Note_on_c, 3, 65, 0
5, 8430, Note_on_c, 3, 63, 100
5, 8454, Note_on_c, 3, 63, 0
5, 8460, Note_on_c, 3, 60, 100
5, 8508, Note_on_c, 3, 60, 0
5, 8520, Note_on_c, 3, 59, 100
5, 8544, Note_on_c, 3, 59, 0
5, 8550, Note_on_c, 3, 67, 100
5, 8574, Note_on_c, 3, 67, 0
5, 8580, Note_on_c, 3, 58, 100
5, 8628, Note_on_c, 3, 58, 0
5, 8700, Note_on_c, 3, 70, 100
5, 8724, Note_on_c, 3, 70, 0
5, 8730, Note_on_c, 3, 69, 100
5, 8754, Note_on_c, 3, 69, 0
5, 8820, Note_on_c, 3, 64, 100
5, 8844, Note_on_c, 3, 64, 0
5, 8850, Note_on_c, 3, 62, 100
5, 8874, Note_on_c, 3, 62, 0
5, 8940, Note_on_c, 3, 57, 100
5, 8964, Note_on_c, 3, 57, 0
5, 8970, Note_on_c, 3, 55, 100
5, 8994, Note_on_c, 3, 55, 0
5, 9060, Note_on_c, 3, 52, 100
5, 9084, Note_on_c, 3, 52, 0
5, 9090, Note_on_c, 3, 50, 100
5, 9114, Note_on_c, 3, 50, 0
5, 9150, Note_on_c, 3, 68, 100
5, 9174, Note_on_c, 3, 68, 0
5, 9180, Note_on_c, 3, 71, 100
5, 9204, Note_on_c, 3, 71, 0
5, 9210, Note_on_c, 3, 74, 100
5, 9234, Note_on_c, 3, 74, 0
5, 9240, Note_on_c, 3, 68, 100
5, 9264, Note_on_c, 3, 68, 0
5, 9270, Note_on_c, 3, 71, 100
5, 9294, Note_on_c, 3, 71, 0
5, 9300, Note_on_c, 3, 67, 100
5, 9348, Note_on_c, 3, 67, 0
5, 9360, Note_on_c, 3, 65, 100
5, 9384, Note_on_c, 3, 65, 0
5, 9390, Note_on_c, 3, 64, 100
5, 9414, Note_on_c, 3, 64, 0
5, 9420, Note_on_c, 3, 63, 100
5, 9444, Note_on_c, 3, 63, 0
5, 9450, Note_on_c, 3, 65, 100
5, 9474, Note_on_c, 3, 65, 0
5, 9480, Note_on_c, 3, 59, 100
5, 9504, Note_on_c, 3, 59, 0
5, 9510, Note_on_c, 3, 58, 100
5, 9534, Note_on_c, 3, 58, 0
5, 9540, Note_on_c, 3, 57, 100
5, 9588, Note_on_c, 3, 57, 0
5, 9660, Note_on_c, 3, 55, 100
5, 9684, Note_on_c, 3, 55, 0
5, 9690, Note_on_c, 3, 56, 100
5, 9714, Note_on_c, 3, 56, 0
5, 9780, Note_on_c, 3, 50, 100
5, 9804, Note_on_c, 3, 50, 0
5, 9810, Note_on_c, 3, 52, 100
5, 9834, Note_on_c, 3, 52, 0
5, 9900, Note_on_c, 3, 57, 100
5, 9924, Note_on_c, 3, 57, 0
5, 9930, Note_on_c, 3, 59, 100
5, 9954, Note_on_c, 3, 59, 0
5, 10020, Note_on_c, 3, 67, 100
5, 10044, Note_on_c, 3, 67, 0
5, 10050, Note_on_c, 3, 64, 100
5, 10074, Note_on_c, 3, 64, 0
5, 10110, Note_on_c, 3, 71, 100
5, 10134, Note_on_c, 3, 71, 0
5, 10140, Note_on_c, 3, 74, 100
5, 10164, Note_on_c, 3, 74, 0
5, 10170, Note_on_c, 3, 77, 100
5, 10194, Note_on_c, 3, 77, 0
5, 10200, Note_on_c, 3, 71, 100
5, 10224, Note_on_c, 3, 71, 0
5, 10230, Note_on_c, 3, 74, 100
5, 10254, Note_on_c, 3, 74, 0
5, 10260, Note_on_c, 3, 70, 100
5, 10308, Note_on_c, 3, 70, 0
5, 10320, Note_on_c, 3, 69, 100
5, 10344, Note_on_c, 3, 69, 0
5, 10350, Note_on_c, 3, 67, 100
5, 10374, Note_on_c, 3, 67, 0
5, 10380, Note_on_c, 3, 66, 100
5, 10404, Note_on_c, 3, 66, 0
5, 10410, Note_on_c, 3, 69, 100
5, 10464, Note_on_c, 3, 69, 0
5, 10470, Note_on_c, 3, 66, 100
5, 10494, Note_on_c, 3, 66, 0
5, 10500, Note_on_c, 3, 67, 100
5, 10524, Note_on_c, 3, 67, 0
5, 10530, Note_on_c, 3, 70, 100
5, 10554, Note_on_c, 3, 70, 0
5, 10560, Note_on_c, 3, 73, 100
5, 10584, Note_on_c, 3, 73, 0
5, 10590, Note_on_c, 3, 70, 100
5, 10614, Note_on_c, 3, 70, 0
5, 10620, Note_on_c, 3, 72, 100
5, 10644, Note_on_c, 3, 72, 0
5, 10650, Note_on_c, 3, 70, 100
5, 10674, Note_on_c, 3, 70, 0
5, 10740, Note_on_c, 3, 67, 100
5, 10764, Note_on_c, 3, 67, 0
5, 10770, Note_on_c, 3, 65, 100
5, 10794, Note_on_c, 3, 65, 0
5, 10860, Note_on_c, 3, 63, 100
5, 10884, Note_on_c, 3, 63, 0
5, 10890, Note_on_c, 3, 55, 100
5, 10914, Note_on_c, 3, 55, 0
5, 10980, Note_on_c, 3, 58, 100
5, 11004, Note_on_c, 3, 58, 0
5, 11010, Note_on_c, 3, 60, 100
5, 11034, Note_on_c, 3, 60, 0
5, 11040, Note_on_c, 3, 62, 100
5, 11064, Note_on_c, 3, 62, 0
5, 11070, Note_on_c, 3, 59, 100
5, 11094, Note_on_c, 3, 59, 0
5, 11100, Note_on_c, 3, 58, 100
5, 11124, Note_on_c, 3, 58, 0
5, 11130, Note_on_c, 3, 62, 100
5, 11154, Note_on_c, 3, 62, 0
5, 11160, Note_on_c, 3, 59, 100
5, 11184, Note_on_c, 3, 59, 0
5, 11190, Note_on_c, 3, 58, 100
5, 11214, Note_on_c, 3, 58, 0
5, 11220, Note_on_c, 3, 63, 100
5, 11244, Note_on_c, 3, 63, 0
5, 11250, Note_on_c, 3, 59, 100
5, 11274, Note_on_c, 3, 59, 0
5, 11280, Note_on_c, 3, 62, 100
5, 11304, Note_on_c, 3, 62, 0
5, 11310, Note_on_c, 3, 59, 100
5, 11334, Note_on_c, 3, 59, 0
5, 11340, Note_on_c, 3, 58, 100
5, 11364, Note_on_c, 3, 58, 0
5, 11370, Note_on_c, 3, 62, 100
5, 11394, Note_on_c, 3, 62, 0
5, 11400, Note_on_c, 3, 59, 100
5, 11424, Note_on_c, 3, 59, 0
5, 11430, Note_on_c, 3, 58, 100
5, 11454, Note_on_c, 3, 58, 0
5, 11460, Note_on_c, 3, 57, 100
5, 11484, Note_on_c, 3, 57, 0
5, 11490, Note_on_c, 3, 59, 100
5, 11514, Note_on_c, 3, 59, 0
5, 11520, Note_on_c, 3, 55, 100
5, 11544, Note_on_c, 3, 55, 0
5, 11550, Note_on_c, 3, 47, 100
5, 11622, Note_on_c, 3, 47, 0
5, 11640, Note_on_c, 3, 52, 100
5, 11664, Note_on_c, 3, 52, 0
5, 11670, Note_on_c, 3, 55, 100
5, 11742, Note_on_c, 3, 55, 0
5, 11760, Note_on_c, 3, 59, 100
5, 11784, Note_on_c, 3, 59, 0
5, 11790, Note_on_c, 3, 67, 100
5, 11862, Note_on_c, 3, 67, 0
5, 11880, Note_on_c, 3, 64, 100
5, 11904, Note_on_c, 3, 64, 0
5, 11910, Note_on_c, 3, 72, 100
5, 11982, Note_on_c, 3, 72, 0
5, 12000, Note_on_c, 3, 75, 100
5, 12024, Note_on_c, 3, 75, 0
5, 12030, Note_on_c, 3, 74, 100
5, 12054, Note_on_c, 3, 74, 0
5, 12060, Note_on_c, 3, 75, 100
5, 12084, Note_on_c, 3, 75, 0
5, 12090, Note_on_c, 3, 74, 100
5, 12114, Note_on_c, 3, 74, 0
5, 12120, Note_on_c, 3, 72, 100
5, 12144, Note_on_c, 3, 72, 0
5, 12150, Note_on_c, 3, 67, 100
5, 12174, Note_on_c, 3, 67, 0
5, 12180, Note_on_c, 3, 65, 100
5, 12204, Note_on_c, 3, 65, 0
5, 12210, Note_on_c, 3, 67, 100
5, 12234, Note_on_c, 3, 67, 0
5, 12240, Note_on_c, 3, 63, 100
5, 12288, Note_on_c, 3, 63, 0
5, 12300, Note_on_c, 3, 65, 100
5, 12348, Note_on_c, 3, 65, 0
5, 12360, Note_on_c, 3, 67, 100
5, 12376, Note_on_c, 3, 67, 0
5, 12380, Note_on_c, 3, 65, 100
5, 12396, Note_on_c, 3, 65, 0
5, 12400, Note_on_c, 3, 63, 100
5, 12416, Note_on_c, 3, 63, 0
5, 12420, Note_on_c, 3, 55, 100
5, 12468, Note_on_c, 3, 55, 0
5, 12480, Note_on_c, 3, 58, 100
5, 12480, Note_on_c, 3, 63, 100
5, 12500, Note_on_c, 3, 63, 0
5, 12500, Note_on_c, 3, 58, 0
5, 12540, Note_on_c, 3, 63, 100
5, 12540, Note_on_c, 3, 58, 100
5, 12600, Note_on_c, 3, 58, 0
5, 12600, Note_on_c, 3, 63, 0
5, 12630, Note_on_c, 3, 60, 100
5, 12702, Note_on_c, 3, 60, 0
5, 12720, Note_on_c, 3, 58, 100
5, 12720, Note_on_c, 3, 63, 100
5, 12740, Note_on_c, 3, 63, 0
5, 12740, Note_on_c, 3, 58, 0
5, 12780, Note_on_c, 3, 58, 100
5, 12780, Note_on_c, 3, 63, 100
5, 12828, Note_on_c, 3, 63, 0
5, 12828, Note_on_c, 3, 58, 0
5, 12870, Note_on_c, 3, 60, 100
5, 12942, Note_on_c, 3, 60, 0
5, 12960, Note_on_c, 3, 75, 100
5, 12984, Note_on_c, 3, 75, 0
5, 12990, Note_on_c, 3, 74, 100
5, 13014, Note_on_c, 3, 74, 0
5, 13020, Note_on_c, 3, 75, 100
5, 13044, Note_on_c, 3, 75, 0
5, 13050, Note_on_c, 3, 74, 100
5, 13074, Note_on_c, 3, 74, 0
5, 13080, Note_on_c, 3, 72, 100
5, 13104, Note_on_c, 3, 72, 0
5, 13110, Note_on_c, 3, 67, 100
5, 13134, Note_on_c, 3, 67, 0
5, 13140, Note_on_c, 3, 65, 100
5, 13164, Note_on_c, 3, 65, 0
5, 13170, Note_on_c, 3, 67, 100
5, 13194, Note_on_c, 3, 67, 0
5, 13200, Note_on_c, 3, 63, 100
5, 13248, Note_on_c, 3, 63, 0
5, 13260, Note_on_c, 3, 65, 100
5, 13308, Note_on_c, 3, 65, 0
5, 13320, Note_on_c, 3, 67, 100
5, 13336, Note_on_c, 3, 67, 0
5, 13340, Note_on_c, 3, 65, 100
5, 13356, Note_on_c, 3, 65, 0
5, 13360, Note_on_c, 3, 63, 100
5, 13376, Note_on_c, 3, 63, 0
5, 13380, Note_on_c, 3, 55, 100
5, 13428, Note_on_c, 3, 55, 0
5, 13440, Note_on_c, 3, 58, 100
5, 13440, Note_on_c, 3, 63, 100
5, 13488, Note_on_c, 3, 63, 0
5, 13488, Note_on_c, 3, 58, 0
5, 13500, Note_on_c, 3, 60, 100
5, 13500, Note_on_c, 3, 65, 100
5, 13548, Note_on_c, 3, 65, 0
5, 13548, Note_on_c, 3, 60, 0
5, 13560, Note_on_c, 3, 62, 100
5, 13560, Note_on_c, 3, 67, 100
5, 13608, Note_on_c, 3, 67, 0
5, 13608, Note_on_c, 3, 62, 0
5, 13620, Note_on_c, 3, 58, 100
5, 13620, Note_on_c, 3, 63, 100
5, 13668, Note_on_c, 3, 63, 0
5, 13668, Note_on_c, 3, 58, 0
5, 13680, Note_on_c, 3, 60, 100
5, 13680, Note_on_c, 3, 65, 100
5, 13776, Note_on_c, 3, 65, 0
5, 13776, Note_on_c, 3, 60, 0
5, 13800, Note_on_c, 3, 61, 100
5, 13800, Note_on_c, 3, 67, 100
5, 13800, Note_on_c, 3, 72, 100
5, 13800, Note_on_c, 3, 76, 100
5, 13896, Note_on_c, 3, 76, 0
5, 13896, Note_on_c, 3, 61, 0
5, 13896, Note_on_c, 3, 67, 0
5, 13896, Note_on_c, 3, 72, 0
5, 13950, Note_on_c, 3, 74, 100
5, 13974, Note_on_c, 3, 74, 0
5, 13980, Note_on_c, 3, 75, 100
5, 14004, Note_on_c, 3, 75, 0
5, 14010, Note_on_c, 3, 74, 100
5, 14034, Note_on_c, 3, 74, 0
5, 14040, Note_on_c, 3, 72, 100
5, 14064, Note_on_c, 3, 72, 0
5, 14070, Note_on_c, 3, 67, 100
5, 14094, Note_on_c, 3, 67, 0
5, 14100, Note_on_c, 3, 65, 100
5, 14124, Note_on_c, 3, 65, 0
5, 14130, Note_on_c, 3, 67, 100
5, 14154, Note_on_c, 3, 67, 0
5, 14160, Note_on_c, 3, 63, 100
5, 14208, Note_on_c, 3, 63, 0
5, 14220, Note_on_c, 3, 65, 100
5, 14268, Note_on_c, 3, 65, 0
5, 14280, Note_on_c, 3, 67, 100
5, 14296, Note_on_c, 3, 67, 0
5, 14300, Note_on_c, 3, 65, 100
5, 14316, Note_on_c, 3, 65, 0
5, 14320, Note_on_c, 3, 63, 100
5, 14336, Note_on_c, 3, 63, 0
5, 14340, Note_on_c, 3, 55, 100
5, 14388, Note_on_c, 3, 55, 0
5, 14400, Note_on_c, 3, 58, 100
5, 14400, Note_on_c, 3, 63, 100
5, 14420, Note_on_c, 3, 63, 0
5, 14420, Note_on_c, 3, 58, 0
5, 14460, Note_on_c, 3, 63, 100
5, 14460, Note_on_c, 3, 58, 100
5, 14508, Note_on_c, 3, 58, 0
5, 14508, Note_on_c, 3, 63, 0
5, 14550, Note_on_c, 3, 60, 100
5, 14622, Note_on_c, 3, 60, 0
5, 14640, Note_on_c, 3, 58, 100
5, 14640, Note_on_c, 3, 63, 100
5, 14660, Note_on_c, 3, 63, 0
5, 14660, Note_on_c, 3, 58, 0
5, 14700, Note_on_c, 3, 63, 100
5, 14700, Note_on_c, 3, 58, 100
5, 14748, Note_on_c, 3, 58, 0
5, 14748, Note_on_c, 3, 63, 0
5, 14790, Note_on_c, 3, 60, 100
5, 14862, Note_on_c, 3, 60, 0
5, 14880, Note_on_c, 3, 75, 100
5, 14904, Note_on_c, 3, 75, 0
5, 14910, Note_on_c, 3, 74, 100
5, 14934, Note_on_c, 3, 74, 0
5, 14940, Note_on_c, 3, 75, 100
5, 14964, Note_on_c, 3, 75, 0
5, 14970, Note_on_c, 3, 74, 100
5, 14994, Note_on_c, 3, 74, 0
5, 15000, Note_on_c, 3, 72, 100
5, 15024, Note_on_c, 3, 72, 0
5, 15030, Note_on_c, 3, 67, 100
5, 15054, Note_on_c, 3, 67, 0
5, 15060, Note_on_c, 3, 65, 100
5, 15084, Note_on_c, 3, 65, 0
5, 15090, Note_on_c, 3, 67, 100
5, 15114, Note_on_c, 3, 67, 0
5, 15120, Note_on_c, 3, 63, 100
5, 15168, Note_on_c, 3, 63, 0
5, 15180, Note_on_c, 3, 65, 100
5, 15228, Note_on_c, 3, 65, 0
5, 15240, Note_on_c, 3, 67, 100
5, 15256, Note_on_c, 3, 67, 0
5, 15260, Note_on_c, 3, 65, 100
5, 15276, Note_on_c, 3, 65, 0
5, 15280, Note_on_c, 3, 63, 100
5, 15296, Note_on_c, 3, 63, 0
5, 15300, Note_on_c, 3, 55, 100
5, 15348, Note_on_c, 3, 55, 0
5, 15360, Note_on_c, 3, 48, 100
5, 15408, Note_on_c, 3, 48, 0
5, 15420, Note_on_c, 3, 51, 100
5, 15468, Note_on_c, 3, 51, 0
5, 15480, Note_on_c, 3, 53, 100
5, 15528, Note_on_c, 3, 53, 0
5, 15540, Note_on_c, 3, 56, 100
5, 15588, Note_on_c, 3, 56, 0
5, 15600, Note_on_c, 3, 58, 100
5, 15648, Note_on_c, 3, 58, 0
5, 15660, Note_on_c, 3, 61, 100
5, 15708, Note_on_c, 3, 61, 0
5, 15720, Note_on_c, 3, 63, 100
5, 15768, Note_on_c, 3, 63, 0
5, 15780, Note_on_c, 3, 66, 100
5, 15828, Note_on_c, 3, 66, 0
5, 15840, Note_on_c, 3, 68, 100
5, 15864, Note_on_c, 3, 68, 0
5, 15870, Note_on_c, 3, 71, 100
5, 15894, Note_on_c, 3, 71, 0
5, 15900, Note_on_c, 3, 74, 100
5, 15948, Note_on_c, 3, 74, 0
5, 15960, Note_on_c, 3, 68, 100
5, 15984, Note_on_c, 3, 68, 0
5, 15990, Note_on_c, 3, 71, 100
5, 16014, Note_on_c, 3, 71, 0
5, 16020, Note_on_c, 3, 67, 100
5, 16068, Note_on_c, 3, 67, 0
5, 16080, Note_on_c, 3, 65, 100
5, 16104, Note_on_c, 3, 65, 0
5, 16110, Note_on_c, 3, 63, 100
5, 16134, Note_on_c, 3, 63, 0
5, 16140, Note_on_c, 3, 60, 100
5, 16188, Note_on_c, 3, 60, 0
5, 16200, Note_on_c, 3, 59, 100
5, 16224, Note_on_c, 3, 59, 0
5, 16230, Note_on_c, 3, 67, 100
5, 16254, Note_on_c, 3, 67, 0
5, 16260, Note_on_c, 3, 58, 100
5, 16308, Note_on_c, 3, 58, 0
5, 16380, Note_on_c, 3, 70, 100
5, 16404, Note_on_c, 3, 70, 0
5, 16410, Note_on_c, 3, 69, 100
5, 16434, Note_on_c, 3, 69, 0
5, 16500, Note_on_c, 3, 64, 100
5, 16524, Note_on_c, 3, 64, 0
5, 16530, Note_on_c, 3, 62, 100
5, 16554, Note_on_c, 3, 62, 0
5, 16620, Note_on_c, 3, 57, 100
5, 16644, Note_on_c, 3, 57, 0
5, 16650, Note_on_c, 3, 55, 100
5, 16674, Note_on_c, 3, 55, 0
5, 16740, Note_on_c, 3, 52, 100
5, 16764, Note_on_c, 3, 52, 0
5, 16770, Note_on_c, 3, 50, 100
5, 16794, Note_on_c, 3, 50, 0
5, 16830, Note_on_c, 3, 68, 100
5, 16854, Note_on_c, 3, 68, 0
5, 16860, Note_on_c, 3, 71, 100
5, 16884, Note_on_c, 3, 71, 0
5, 16890, Note_on_c, 3, 74, 100
5, 16914, Note_on_c, 3, 74, 0
5, 16920, Note_on_c, 3, 68, 100
5, 16944, Note_on_c, 3, 68, 0
5, 16950, Note_on_c, 3, 71, 100
5, 16974, Note_on_c, 3, 71, 0
5, 16980, Note_on_c, 3, 67, 100
5, 17028, Note_on_c, 3, 67, 0
5, 17040, Note_on_c, 3, 65, 100
5, 17064, Note_on_c, 3, 65, 0
5, 17070, Note_on_c, 3, 64, 100
5, 17094, Note_on_c, 3, 64, 0
5, 17100, Note_on_c, 3, 63, 100
5, 17124, Note_on_c, 3, 63, 0
5, 17130, Note_on_c, 3, 65, 100
5, 17154, Note_on_c, 3, 65, 0
5, 17160, Note_on_c, 3, 59, 100
5, 17184, Note_on_c, 3, 59, 0
5, 17190, Note_on_c, 3, 58, 100
5, 17214, Note_on_c, 3, 58, 0
5, 17220, Note_on_c, 3, 57, 100
5, 17268, Note_on_c, 3, 57, 0
5, 17340, Note_on_c, 3, 55, 100
5, 17364, Note_on_c, 3, 55, 0
5, 17370, Note_on_c, 3, 56, 100
5, 17394, Note_on_c, 3, 56, 0
5, 17460, Note_on_c, 3, 50, 100
5, 17484, Note_on_c, 3, 50, 0
5, 17490, Note_on_c, 3, 52, 100
5, 17514, Note_on_c, 3, 52, 0
5, 17580, Note_on_c, 3, 55, 100
5, 17604, Note_on_c, 3, 55, 0
5, 17610, Note_on_c, 3, 57, 100
5, 17634, Note_on_c, 3, 57, 0
5, 17700, Note_on_c, 3, 67, 100
5, 17724, Note_on_c, 3, 67, 0
5, 17730, Note_on_c, 3, 64, 100
5, 17754, Note_on_c, 3, 64, 0
5, 17790, Note_on_c, 3, 71, 100
5, 17814, Note_on_c, 3, 71, 0
5, 17820, Note_on_c, 3, 74, 100
5, 17844, Note_on_c, 3, 74, 0
5, 17850, Note_on_c, 3, 77, 100
5, 17874, Note_on_c, 3, 77, 0
5, 17880, Note_on_c, 3, 71, 100
5, 17904, Note_on_c, 3, 71, 0
5, 17910, Note_on_c, 3, 74, 100
5, 17934, Note_on_c, 3, 74, 0
5, 17940, Note_on_c, 3, 70, 100
5, 17988, Note_on_c, 3, 70, 0
5, 18000, Note_on_c, 3, 69, 100
5, 18024, Note_on_c, 3, 69, 0
5, 18030, Note_on_c, 3, 67, 100
5, 18054, Note_on_c, 3, 67, 0
5, 18060, Note_on_c, 3, 66, 100
5, 18084, Note_on_c, 3, 66, 0
5, 18090, Note_on_c, 3, 69, 100
5, 18144, Note_on_c, 3, 69, 0
5, 18150, Note_on_c, 3, 66, 100
5, 18174, Note_on_c, 3, 66, 0
5, 18180, Note_on_c, 3, 67, 100
5, 18204, Note_on_c, 3, 67, 0
5, 18210, Note_on_c, 3, 70, 100
5, 18234, Note_on_c, 3, 70, 0
5, 18240, Note_on_c, 3, 73, 100
5, 18264, Note_on_c, 3, 73, 0
5, 18270, Note_on_c, 3, 70, 100
5, 18294, Note_on_c, 3, 70, 0
5, 18300, Note_on_c, 3, 72, 100
5, 18324, Note_on_c, 3, 72, 0
5, 18330, Note_on_c, 3, 70, 100
5, 18354, Note_on_c, 3, 70, 0
5, 18420, Note_on_c, 3, 67, 100
5, 18444, Note_on_c, 3, 67, 0
5, 18450, Note_on_c, 3, 65, 100
5, 18474, Note_on_c, 3, 65, 0
5, 18540, Note_on_c, 3, 63, 100
5, 18564, Note_on_c, 3, 63, 0
5, 18570, Note_on_c, 3, 55, 100
5, 18594, Note_on_c, 3, 55, 0
5, 18660, Note_on_c, 3, 58, 100
5, 18684, Note_on_c, 3, 58, 0
5, 18690, Note_on_c, 3, 60, 100
5, 18714, Note_on_c, 3, 60, 0
5, 18720, Note_on_c, 3, 62, 100
5, 18744, Note_on_c, 3, 62, 0
5, 18750, Note_on_c, 3, 59, 100
5, 18774, Note_on_c, 3, 59, 0
5, 18780, Note_on_c, 3, 58, 100
5, 18804, Note_on_c, 3, 58, 0
5, 18810, Note_on_c, 3, 62, 100
5, 18834, Note_on_c, 3, 62, 0
5, 18840, Note_on_c, 3, 59, 100
5, 18864, Note_on_c, 3, 59, 0
5, 18870, Note_on_c, 3, 58, 100
5, 18894, Note_on_c, 3, 58, 0
5, 18900, Note_on_c, 3, 63, 100
5, 18924, Note_on_c, 3, 63, 0
5, 18930, Note_on_c, 3, 59, 100
5, 18954, Note_on_c, 3, 59, 0
5, 18960, Note_on_c, 3, 62, 100
5, 18984, Note_on_c, 3, 62, 0
5, 18990, Note_on_c, 3, 59, 100
5, 19014, Note_on_c, 3, 59, 0
5, 19020, Note_on_c, 3, 58, 100
5, 19044, Note_on_c, 3, 58, 0
5, 19050, Note_on_c, 3, 62, 100
5, 19074, Note_on_c, 3, 62, 0
5, 19080, Note_on_c, 3, 59, 100
5, 19104, Note_on_c, 3, 59, 0
5, 19110, Note_on_c, 3, 58, 100
5, 19134, Note_on_c, 3, 58, 0
5, 19140, Note_on_c, 3, 57, 100
5, 19164, Note_on_c, 3, 57, 0
5, 19170, Note_on_c, 3, 59, 100
5, 19194, Note_on_c, 3, 59, 0
5, 19200, Note_on_c, 3, 55, 100
5, 19224, Note_on_c, 3, 55, 0
5, 19230, Note_on_c, 3, 47, 100
5, 19302, Note_on_c, 3, 47, 0
5, 19320, Note_on_c, 3, 52, 100
5, 19344, Note_on_c, 3, 52, 0
5, 19350, Note_on_c, 3, 55, 100
5, 19422, Note_on_c, 3, 55, 0
5, 19440, Note_on_c, 3, 59, 100
5, 19464, Note_on_c, 3, 59, 0
5, 19470, Note_on_c, 3, 67, 100
5, 19542, Note_on_c, 3, 67, 0
5, 19560, Note_on_c, 3, 64, 100
5, 19584, Note_on_c, 3, 64, 0
5, 19590, Note_on_c, 3, 72, 100
5, 19662, Note_on_c, 3, 72, 0
5, 19680, Note_on_c, 3, 73, 122
5, 19800, Note_on_c, 3, 75, 109
5, 19803, Note_on_c, 3, 73, 0
5, 19919, Note_on_c, 3, 75, 0
5, 19920, Note_on_c, 3, 71, 91
5, 20035, Note_on_c, 3, 71, 0
5, 20040, Note_on_c, 3, 76, 91
5, 20156, Note_on_c, 3, 76, 0
5, 20160, Note_on_c, 3, 79, 98
5, 20514, Note_on_c, 3, 79, 0
5, 20520, Note_on_c, 3, 76, 101
5, 20606, Note_on_c, 3, 76, 0
5, 20640, Note_on_c, 3, 74, 103
5, 20730, Note_on_c, 3, 72, 105
5, 20734, Note_on_c, 3, 74, 0
5, 21060, Note_on_c, 3, 72, 0
5, 21120, Note_on_c, 3, 67, 89
5, 21208, Note_on_c, 3, 67, 0
5, 21210, Note_on_c, 3, 69, 82
5, 21539, Note_on_c, 3, 69, 0
5, 21600, Note_on_c, 3, 74, 89
5, 21684, Note_on_c, 3, 74, 0
5, 21690, Note_on_c, 3, 72, 87
5, 21952, Note_on_c, 3, 72, 0
5, 21960, Note_on_c, 3, 67, 91
5, 22050, Note_on_c, 3, 69, 85
5, 22055, Note_on_c, 3, 67, 0
5, 22508, Note_on_c, 3, 69, 0
5, 22560, Note_on_c, 3, 74, 85
5, 22650, Note_on_c, 3, 72, 89
5, 22651, Note_on_c, 3, 74, 0
5, 23025, Note_on_c, 3, 72, 0
5, 23040, Note_on_c, 3, 67, 93
5, 23130, Note_on_c, 3, 69, 79
5, 23135, Note_on_c, 3, 67, 0
5, 23489, Note_on_c, 3, 69, 0
5, 23520, Note_on_c, 3, 74, 89
5, 23607, Note_on_c, 3, 74, 0
5, 23610, Note_on_c, 3, 72, 93
5, 23877, Note_on_c, 3, 72, 0
5, 23880, Note_on_c, 3, 67, 81
5, 23963, Note_on_c, 3, 67, 0
5, 23970, Note_on_c, 3, 69, 84
5, 24418, Note_on_c, 3, 69, 0
5, 24480, Note_on_c, 3, 75, 107
5, 24555, Note_on_c, 3, 75, 0
5, 24570, Note_on_c, 3, 74, 91
5, 24960, Note_on_c, 3, 72, 85
5, 24964, Note_on_c, 3, 74, 0
5, 25036, Note_on_c, 3, 72, 0
5, 25050, Note_on_c, 3, 74, 96
5, 25399, Note_on_c, 3, 74, 0
5, 25440, Note_on_c, 3, 75, 107
5, 25526, Note_on_c, 3, 75, 0
5, 25530, Note_on_c, 3, 74, 77
5, 25669, Note_on_c, 3, 74, 0
5, 25680, Note_on_c, 3, 72, 85
5, 25770, Note_on_c, 3, 69, 67
5, 25773, Note_on_c, 3, 72, 0
5, 26341, Note_on_c, 3, 69, 0
5, 26400, Note_on_c, 3, 75, 112
5, 26478, Note_on_c, 3, 75, 0
5, 26490, Note_on_c, 3, 74, 91
5, 26878, Note_on_c, 3, 74, 0
5, 26880, Note_on_c, 3, 72, 82
5, 26967, Note_on_c, 3, 72, 0
5, 26970, Note_on_c, 3, 74, 79
5, 27150, Note_on_c, 3, 74, 0
5, 27300, Note_on_c, 3, 77, 100
5, 27480, Note_on_c, 3, 75, 100
5, 27494, Note_on_c, 3, 77, 0
5, 27600, Note_on_c, 3, 74, 100
5, 27608, Note_on_c, 3, 75, 0
5, 27720, Note_on_c, 3, 72, 100
5, 27728, Note_on_c, 3, 74, 0
5, 27840, Note_on_c, 3, 72, 0
5, 27840, Note_on_c, 3, 71, 100
5, 27958, Note_on_c, 3, 71, 0
5, 27960, Note_on_c, 3, 69, 100
5, 28080, Note_on_c, 3, 69, 0
5, 28080, Note_on_c, 3, 68, 100
5, 28197, Note_on_c, 3, 68, 0
5, 28200, Note_on_c, 3, 67, 100
5, 28320, Note_on_c, 3, 67, 0
5, 28320, Note_on_c, 3, 64, 100
5, 28440, Note_on_c, 3, 64, 0
5, 28440, End_track
6, 0, Start_track
6, 0, MIDI_port, 0
6, 0, Title_t, "Tempo=132"
6, 0, End_track
0, 0, End_of_file
