0, 0, Header, 1, 32, 120
1, 0, Start_track
1, 0, Time_signature, 4, 2, 24, 8
1, 0, Key_signature, 0, "major"
1, 0, Tempo, 487805
1, 0, Marker_t, "HAPPY SONG - Boney M."
1, 10080, Marker_t, "We are down..."
1, 13920, Marker_t, "Everybody..."
1, 17760, Marker_t, "Music dancing..."
1, 21600, Marker_t, "Everybody..."
1, 25440, Marker_t, "It's time to..."
1, 44160, Marker_t, "Come on boys..."
1, 51840, Marker_t, "We are down..."
1, 59520, Marker_t, "It's time to..."
1, 63360, Marker_t, "Everybody..."
1, 71040, Marker_t, "Everybody... (vocoder)"
1, 83040, Marker_t, "Come on boys... (vocoder)"
1, 88800, Marker_t, "We are down..."
1, 92640, Marker_t, "Everybody..."
1, 96480, Marker_t, "Everybody..."
1, 96480, End_track
2, 0, Start_track
2, 0, MIDI_port, 0
2, 0, Title_t, "Soft Karaoke"
2, 0, Text_t, "@KMIDI KARAOKE FILE"
2, 0, End_track
3, 0, Start_track
3, 0, MIDI_port, 0
3, 0, Title_t, "Words"
3, 0, Text_t, "@LENGL"
3, 1, Text_t, "@THAPPY SONG"
3, 2, Text_t, "@TBoney M."
3, 3, Text_t, "@TSequenced by Raphael Pungin (raphael@cnct.com)"
3, 10080, Text_t, "\\We "
3, 10145, Text_t, "are "
3, 10200, Text_t, "down, "
3, 10262, Text_t, "we're "
3, 10320, Text_t, "cra"
3, 10357, Text_t, "zy "
3, 10417, Text_t, "fools"
3, 10562, Text_t, "/Eve"
3, 10627, Text_t, "ry"
3, 10690, Text_t, "day "
3, 10800, Text_t, "at "
3, 10885, Text_t, "school."
3, 11037, Text_t, "\\Tea"
3, 11100, Text_t, "chers "
3, 11160, Text_t, "here, "
3, 11285, Text_t, "tea"
3, 11320, Text_t, "chers "
3, 11377, Text_t, "there,"
3, 11525, Text_t, "/Books "
3, 11587, Text_t, "and "
3, 11650, Text_t, "books, "
3, 11707, Text_t, "they're "
3, 11760, Text_t, "eve"
3, 11820, Text_t, "ry"
3, 11880, Text_t, "where. "
3, 12000, Text_t, "\\Come "
3, 12060, Text_t, "on "
3, 12120, Text_t, "boys, "
3, 12182, Text_t, "we "
3, 12242, Text_t, "need "
3, 12277, Text_t, "to "
3, 12340, Text_t, "dance,"
3, 12487, Text_t, "/We "
3, 12545, Text_t, "have "
3, 12607, Text_t, "got "
3, 12660, Text_t, "a "
3, 12720, Text_t, "good "
3, 12805, Text_t, "chance."
3, 12957, Text_t, "\\Lay "
3, 13020, Text_t, "your "
3, 13077, Text_t, "prob"
3, 13142, Text_t, "lems "
3, 13202, Text_t, "on "
3, 13237, Text_t, "the "
3, 13295, Text_t, "floor,"
3, 13440, Text_t, "/Clap "
3, 13505, Text_t, "your "
3, 13562, Text_t, "hands "
3, 13622, Text_t, "and "
3, 13685, Text_t, "sing "
3, 13745, Text_t, "once "
3, 13805, Text_t, "more: "
3, 14037, Text_t, "\\Eve"
3, 14095, Text_t, "ry"
3, 14160, Text_t, "bo"
3, 14247, Text_t, "dy, "
3, 14400, Text_t, "let's "
3, 14465, Text_t, "go "
3, 14520, Text_t, "to "
3, 14580, Text_t, "the "
3, 14612, Text_t, """King"","
3, 15000, Text_t, "/We "
3, 15055, Text_t, "can "
3, 15120, Text_t, "dance "
3, 15210, Text_t, "there, "
3, 15357, Text_t, "dance "
3, 15417, Text_t, "and "
3, 15480, Text_t, "eat "
3, 15537, Text_t, "an "
3, 15602, Text_t, "ice "
3, 15692, Text_t, "cream."
3, 15960, Text_t, "\\Eve"
3, 16017, Text_t, "ry"
3, 16080, Text_t, "bo"
3, 16170, Text_t, "dy, "
3, 16317, Text_t, "danc"
3, 16382, Text_t, "ing "
3, 16440, Text_t, "all "
3, 16500, Text_t, "night "
3, 16527, Text_t, "long,"
3, 16922, Text_t, "/Try "
3, 16985, Text_t, "to "
3, 17047, Text_t, "do "
3, 17135, Text_t, "it, "
3, 17277, Text_t, "sing "
3, 17335, Text_t, "a "
3, 17395, Text_t, "hap"
3, 17455, Text_t, "py "
3, 17520, Text_t, "song. "
3, 17760, Text_t, "\\Mu"
3, 17825, Text_t, "sic, "
3, 17880, Text_t, "dan"
3, 17942, Text_t, "cing "
3, 18000, Text_t, "in "
3, 18037, Text_t, "the "
3, 18097, Text_t, "night,"
3, 18242, Text_t, "/We "
3, 18307, Text_t, "can "
3, 18370, Text_t, "get "
3, 18480, Text_t, "so "
3, 18565, Text_t, "high,"
3, 18717, Text_t, "\\For "
3, 18780, Text_t, "no "
3, 18840, Text_t, "rea"
3, 18905, Text_t, "son "
3, 18965, Text_t, "no "
3, 19000, Text_t, "long "
3, 19057, Text_t, "stop,"
3, 19205, Text_t, "/Now's "
3, 19267, Text_t, "the "
3, 19330, Text_t, "time "
3, 19387, Text_t, "to "
3, 19410, Text_t, "go "
3, 19440, Text_t, "to "
3, 19500, Text_t, "the "
3, 19560, Text_t, "top. "
3, 19680, Text_t, "\\It's "
3, 19740, Text_t, "a "
3, 19800, Text_t, "swee"
3, 19862, Text_t, "ter "
3, 19922, Text_t, "hap"
3, 19957, Text_t, "py "
3, 20020, Text_t, "song,"
3, 20167, Text_t, "/We'll "
3, 20225, Text_t, "sing "
3, 20280, Text_t, "all "
3, 20400, Text_t, "night "
3, 20485, Text_t, "long."
3, 20637, Text_t, "\\Lay "
3, 20700, Text_t, "your "
3, 20757, Text_t, "prob"
3, 20822, Text_t, "lems "
3, 20882, Text_t, "on "
3, 20917, Text_t, "the "
3, 20975, Text_t, "floor,"
3, 21120, Text_t, "/Clap "
3, 21185, Text_t, "your "
3, 21242, Text_t, "hands "
3, 21302, Text_t, "and "
3, 21365, Text_t, "sing "
3, 21425, Text_t, "once "
3, 21485, Text_t, "more: "
3, 21717, Text_t, "\\Eve"
3, 21775, Text_t, "ry"
3, 21840, Text_t, "bo"
3, 21927, Text_t, "dy, "
3, 22080, Text_t, "let's "
3, 22145, Text_t, "go "
3, 22200, Text_t, "to "
3, 22260, Text_t, "the "
3, 22292, Text_t, """King"","
3, 22680, Text_t, "/We "
3, 22735, Text_t, "can "
3, 22800, Text_t, "dance "
3, 22890, Text_t, "there, "
3, 23037, Text_t, "dance "
3, 23097, Text_t, "and "
3, 23160, Text_t, "eat "
3, 23217, Text_t, "an "
3, 23282, Text_t, "ice "
3, 23372, Text_t, "cream."
3, 23640, Text_t, "\\Eve"
3, 23697, Text_t, "ry"
3, 23760, Text_t, "bo"
3, 23850, Text_t, "dy, "
3, 23997, Text_t, "danc"
3, 24062, Text_t, "ing "
3, 24120, Text_t, "all "
3, 24180, Text_t, "night "
3, 24207, Text_t, "long,"
3, 24602, Text_t, "/Try "
3, 24665, Text_t, "to "
3, 24727, Text_t, "do "
3, 24815, Text_t, "it, "
3, 24957, Text_t, "sing "
3, 25015, Text_t, "a "
3, 25075, Text_t, "hap"
3, 25135, Text_t, "py "
3, 25200, Text_t, "song. "
3, 25860, Text_t, "\\It's "
3, 25920, Text_t, "time "
3, 25980, Text_t, "to "
3, 26040, Text_t, "dance, "
3, 26100, Text_t, "it's "
3, 26160, Text_t, "time "
3, 26220, Text_t, "to "
3, 26280, Text_t, "sing,"
3, 26340, Text_t, "/Sing "
3, 26370, Text_t, "a "
3, 26400, Text_t, "hap"
3, 26460, Text_t, "py "
3, 26520, Text_t, "song, "
3, 26640, Text_t, "ha "
3, 26670, Text_t, "ha "
3, 26700, Text_t, "ha "
3, 26730, Text_t, "ha"
3, 26820, Text_t, "/A "
3, 26880, Text_t, "hap"
3, 26940, Text_t, "py "
3, 27000, Text_t, "song."
3, 27840, Text_t, "\\Let's "
3, 27960, Text_t, "go, "
3, 28080, Text_t, "let's "
3, 28140, Text_t, "go "
3, 28200, Text_t, "boys,"
3, 28320, Text_t, "/Come "
3, 28380, Text_t, "with "
3, 28440, Text_t, "me "
3, 28500, Text_t, "and "
3, 28560, Text_t, "sing,"
3, 28750, Text_t, "/Sing "
3, 28777, Text_t, "a "
3, 28806, Text_t, "hap"
3, 28869, Text_t, "py "
3, 28921, Text_t, "song."
3, 29280, Text_t, "\\"
3, 29400, Text_t, "\\"
3, 44040, Text_t, "\\{Rap}"
3, 44162, Text_t, "/Come "
3, 44190, Text_t, "on "
3, 44289, Text_t, "boys, "
3, 44340, Text_t, "we "
3, 44400, Text_t, "need "
3, 44465, Text_t, "to "
3, 44521, Text_t, "dance,"
3, 44610, Text_t, "/We "
3, 44633, Text_t, "all "
3, 44696, Text_t, "have "
3, 44752, Text_t, "got "
3, 44820, Text_t, "a "
3, 44880, Text_t, "good, "
3, 44945, Text_t, "good "
3, 45009, Text_t, "chance."
3, 45118, Text_t, "\\Lay "
3, 45177, Text_t, "your "
3, 45238, Text_t, "prob"
3, 45300, Text_t, "lems "
3, 45358, Text_t, "on "
3, 45428, Text_t, "the "
3, 45484, Text_t, "floor,"
3, 45602, Text_t, "/Clap "
3, 45660, Text_t, "your "
3, 45719, Text_t, "hands "
3, 45775, Text_t, "and "
3, 45836, Text_t, "sing "
3, 45892, Text_t, "once "
3, 45953, Text_t, "more."
3, 46077, Text_t, "\\Mu"
3, 46138, Text_t, "sic "
3, 46194, Text_t, "sound "
3, 46321, Text_t, "in "
3, 46380, Text_t, "the "
3, 46410, Text_t, "night,"
3, 46568, Text_t, "/We "
3, 46624, Text_t, "all "
3, 46680, Text_t, "can "
3, 46802, Text_t, "get "
3, 46860, Text_t, "so "
3, 46920, Text_t, "high,"
3, 47046, Text_t, "\\For "
3, 47107, Text_t, "no "
3, 47161, Text_t, "rea"
3, 47219, Text_t, "son "
3, 47280, Text_t, "no "
3, 47341, Text_t, "long "
3, 47400, Text_t, "stop,"
3, 47519, Text_t, "/Now's "
3, 47580, Text_t, "the "
3, 47641, Text_t, "time "
3, 47698, Text_t, "to "
3, 47730, Text_t, "go "
3, 47759, Text_t, "to "
3, 47817, Text_t, "the "
3, 47871, Text_t, "top."
3, 48000, Text_t, "\\"
3, 48120, Text_t, "\\"
3, 51840, Text_t, "\\We "
3, 51905, Text_t, "are "
3, 51960, Text_t, "down, "
3, 52022, Text_t, "we're "
3, 52080, Text_t, "cra"
3, 52117, Text_t, "zy "
3, 52177, Text_t, "fools"
3, 52322, Text_t, "/Eve"
3, 52387, Text_t, "ry"
3, 52450, Text_t, "day "
3, 52560, Text_t, "at "
3, 52645, Text_t, "school."
3, 52797, Text_t, "\\Tea"
3, 52860, Text_t, "chers "
3, 52920, Text_t, "here, "
3, 53045, Text_t, "tea"
3, 53080, Text_t, "chers "
3, 53137, Text_t, "there,"
3, 53285, Text_t, "/Books "
3, 53347, Text_t, "and "
3, 53410, Text_t, "books, "
3, 53467, Text_t, "they're "
3, 53520, Text_t, "eve"
3, 53580, Text_t, "ry"
3, 53640, Text_t, "where. "
3, 53760, Text_t, "\\Come "
3, 53820, Text_t, "on "
3, 53880, Text_t, "boys, "
3, 53942, Text_t, "we "
3, 54002, Text_t, "need "
3, 54037, Text_t, "to "
3, 54100, Text_t, "dance,"
3, 54247, Text_t, "/We "
3, 54305, Text_t, "have "
3, 54367, Text_t, "got "
3, 54420, Text_t, "a "
3, 54480, Text_t, "good "
3, 54565, Text_t, "chance."
3, 54717, Text_t, "\\Lay "
3, 54780, Text_t, "your "
3, 54837, Text_t, "prob"
3, 54902, Text_t, "lems "
3, 54962, Text_t, "on "
3, 54997, Text_t, "the "
3, 55055, Text_t, "floor,"
3, 55200, Text_t, "/Clap "
3, 55265, Text_t, "your "
3, 55322, Text_t, "hands "
3, 55382, Text_t, "and "
3, 55445, Text_t, "sing "
3, 55505, Text_t, "once "
3, 55565, Text_t, "more: "
3, 55797, Text_t, "\\Eve"
3, 55855, Text_t, "ry"
3, 55920, Text_t, "bo"
3, 56007, Text_t, "dy, "
3, 56160, Text_t, "let's "
3, 56225, Text_t, "go "
3, 56280, Text_t, "to "
3, 56340, Text_t, "the "
3, 56372, Text_t, """King"","
3, 56760, Text_t, "/We "
3, 56815, Text_t, "can "
3, 56880, Text_t, "dance "
3, 56970, Text_t, "there, "
3, 57117, Text_t, "dance "
3, 57177, Text_t, "and "
3, 57240, Text_t, "eat "
3, 57297, Text_t, "an "
3, 57362, Text_t, "ice "
3, 57452, Text_t, "cream."
3, 57720, Text_t, "\\Eve"
3, 57777, Text_t, "ry"
3, 57840, Text_t, "bo"
3, 57930, Text_t, "dy, "
3, 58077, Text_t, "danc"
3, 58142, Text_t, "ing "
3, 58200, Text_t, "all "
3, 58260, Text_t, "night "
3, 58287, Text_t, "long,"
3, 58682, Text_t, "/Try "
3, 58745, Text_t, "to "
3, 58807, Text_t, "do "
3, 58895, Text_t, "it, "
3, 59037, Text_t, "sing "
3, 59095, Text_t, "a "
3, 59155, Text_t, "hap"
3, 59215, Text_t, "py "
3, 59280, Text_t, "song. "
3, 59460, Text_t, "\\It's "
3, 59520, Text_t, "time "
3, 59580, Text_t, "to "
3, 59640, Text_t, "dance, "
3, 59700, Text_t, "it's "
3, 59760, Text_t, "time "
3, 59820, Text_t, "to "
3, 59880, Text_t, "sing,"
3, 59940, Text_t, "/Sing "
3, 59970, Text_t, "a "
3, 60000, Text_t, "hap"
3, 60060, Text_t, "py "
3, 60120, Text_t, "song, "
3, 60240, Text_t, "ha "
3, 60270, Text_t, "ha "
3, 60300, Text_t, "ha "
3, 60330, Text_t, "ha"
3, 60420, Text_t, "/A "
3, 60480, Text_t, "hap"
3, 60540, Text_t, "py "
3, 60600, Text_t, "song."
3, 61440, Text_t, "\\Let's "
3, 61560, Text_t, "go, "
3, 61680, Text_t, "let's "
3, 61740, Text_t, "go "
3, 61800, Text_t, "boys,"
3, 61920, Text_t, "/Come "
3, 61980, Text_t, "with "
3, 62040, Text_t, "me "
3, 62100, Text_t, "and "
3, 62160, Text_t, "sing,"
3, 62350, Text_t, "/Sing "
3, 62377, Text_t, "a "
3, 62406, Text_t, "hap"
3, 62469, Text_t, "py "
3, 62521, Text_t, "song."
3, 63477, Text_t, "\\Eve"
3, 63535, Text_t, "ry"
3, 63600, Text_t, "bo"
3, 63687, Text_t, "dy, "
3, 63840, Text_t, "let's "
3, 63905, Text_t, "go "
3, 63960, Text_t, "to "
3, 64020, Text_t, "the "
3, 64052, Text_t, """King"","
3, 64440, Text_t, "/We "
3, 64495, Text_t, "can "
3, 64560, Text_t, "dance "
3, 64650, Text_t, "there, "
3, 64797, Text_t, "dance "
3, 64857, Text_t, "and "
3, 64920, Text_t, "eat "
3, 64977, Text_t, "an "
3, 65042, Text_t, "ice "
3, 65132, Text_t, "cream."
3, 65400, Text_t, "\\Eve"
3, 65457, Text_t, "ry"
3, 65520, Text_t, "bo"
3, 65610, Text_t, "dy, "
3, 65757, Text_t, "danc"
3, 65822, Text_t, "ing "
3, 65880, Text_t, "all "
3, 65940, Text_t, "night "
3, 65967, Text_t, "long,"
3, 66362, Text_t, "/Try "
3, 66425, Text_t, "to "
3, 66487, Text_t, "do "
3, 66575, Text_t, "it, "
3, 66717, Text_t, "sing "
3, 66775, Text_t, "a "
3, 66835, Text_t, "hap"
3, 66895, Text_t, "py "
3, 66960, Text_t, "song. "
3, 71157, Text_t, "\\Eve"
3, 71217, Text_t, "ry"
3, 71280, Text_t, "bo"
3, 71373, Text_t, "dy, "
3, 71517, Text_t, "let's "
3, 71582, Text_t, "go "
3, 71640, Text_t, "to "
3, 71700, Text_t, "the "
3, 71731, Text_t, """King"","
3, 72115, Text_t, "/We "
3, 72175, Text_t, "can "
3, 72237, Text_t, "dance "
3, 72324, Text_t, "there, "
3, 72475, Text_t, "dance "
3, 72537, Text_t, "and "
3, 72600, Text_t, "eat "
3, 72660, Text_t, "an "
3, 72720, Text_t, "ice "
3, 72818, Text_t, "cream."
3, 73080, Text_t, "\\Eve"
3, 73137, Text_t, "ry"
3, 73202, Text_t, "bo"
3, 73293, Text_t, "dy, "
3, 73440, Text_t, "danc"
3, 73502, Text_t, "ing "
3, 73557, Text_t, "all "
3, 73617, Text_t, "night "
3, 73648, Text_t, "long,"
3, 74035, Text_t, "/Try "
3, 74097, Text_t, "to "
3, 74160, Text_t, "do "
3, 74251, Text_t, "it, "
3, 74400, Text_t, "sing "
3, 74460, Text_t, "a "
3, 74524, Text_t, "hap"
3, 74582, Text_t, "py "
3, 74618, Text_t, "song. "
3, 83040, Text_t, "\\Come "
3, 83095, Text_t, "on "
3, 83128, Text_t, "boys, "
3, 83220, Text_t, "we "
3, 83280, Text_t, "need "
3, 83340, Text_t, "to "
3, 83400, Text_t, "dance,"
3, 83490, Text_t, "/We "
3, 83522, Text_t, "all "
3, 83587, Text_t, "have "
3, 83640, Text_t, "got "
3, 83702, Text_t, "a "
3, 83760, Text_t, "good, "
3, 83824, Text_t, "good "
3, 83880, Text_t, "chance."
3, 83997, Text_t, "\\Lay "
3, 84060, Text_t, "your "
3, 84120, Text_t, "prob"
3, 84177, Text_t, "lems "
3, 84240, Text_t, "on "
3, 84300, Text_t, "the "
3, 84357, Text_t, "floor,"
3, 84472, Text_t, "/Clap "
3, 84532, Text_t, "your "
3, 84600, Text_t, "hands "
3, 84655, Text_t, "and "
3, 84717, Text_t, "sing "
3, 84780, Text_t, "once "
3, 84830, Text_t, "more."
3, 84962, Text_t, "\\Mu"
3, 85020, Text_t, "sic "
3, 85080, Text_t, "sound "
3, 85200, Text_t, "in "
3, 85257, Text_t, "the "
3, 85317, Text_t, "night,"
3, 85447, Text_t, "/We "
3, 85500, Text_t, "all "
3, 85560, Text_t, "can "
3, 85684, Text_t, "get "
3, 85732, Text_t, "so "
3, 85800, Text_t, "high,"
3, 85920, Text_t, "\\For "
3, 85977, Text_t, "no "
3, 86008, Text_t, "rea"
3, 86097, Text_t, "son "
3, 86167, Text_t, "no "
3, 86220, Text_t, "long "
3, 86284, Text_t, "stop,"
3, 86404, Text_t, "/Now's "
3, 86460, Text_t, "the "
3, 86520, Text_t, "time "
3, 86550, Text_t, "to "
3, 86580, Text_t, "go "
3, 86635, Text_t, "to "
3, 86695, Text_t, "the "
3, 86755, Text_t, "top."
3, 88800, Text_t, "\\We "
3, 88865, Text_t, "are "
3, 88920, Text_t, "down, "
3, 88982, Text_t, "we're "
3, 89040, Text_t, "cra"
3, 89077, Text_t, "zy "
3, 89137, Text_t, "fools"
3, 89282, Text_t, "/Eve"
3, 89347, Text_t, "ry"
3, 89410, Text_t, "day "
3, 89520, Text_t, "at "
3, 89605, Text_t, "school."
3, 89757, Text_t, "\\Tea"
3, 89820, Text_t, "chers "
3, 89880, Text_t, "here, "
3, 90005, Text_t, "tea"
3, 90040, Text_t, "chers "
3, 90097, Text_t, "there,"
3, 90245, Text_t, "/Books "
3, 90307, Text_t, "and "
3, 90370, Text_t, "books, "
3, 90427, Text_t, "they're "
3, 90480, Text_t, "eve"
3, 90540, Text_t, "ry"
3, 90600, Text_t, "where. "
3, 90720, Text_t, "\\Come "
3, 90780, Text_t, "on "
3, 90840, Text_t, "boys, "
3, 90902, Text_t, "we "
3, 90962, Text_t, "need "
3, 90997, Text_t, "to "
3, 91060, Text_t, "dance,"
3, 91207, Text_t, "/We "
3, 91265, Text_t, "have "
3, 91327, Text_t, "got "
3, 91380, Text_t, "a "
3, 91440, Text_t, "good "
3, 91525, Text_t, "chance."
3, 91677, Text_t, "\\Lay "
3, 91740, Text_t, "your "
3, 91797, Text_t, "prob"
3, 91862, Text_t, "lems "
3, 91922, Text_t, "on "
3, 91957, Text_t, "the "
3, 92015, Text_t, "floor,"
3, 92160, Text_t, "/Clap "
3, 92225, Text_t, "your "
3, 92282, Text_t, "hands "
3, 92342, Text_t, "and "
3, 92405, Text_t, "sing "
3, 92465, Text_t, "once "
3, 92525, Text_t, "more: "
3, 92757, Text_t, "\\Eve"
3, 92815, Text_t, "ry"
3, 92880, Text_t, "bo"
3, 92967, Text_t, "dy, "
3, 93120, Text_t, "let's "
3, 93185, Text_t, "go "
3, 93240, Text_t, "to "
3, 93300, Text_t, "the "
3, 93332, Text_t, """King"","
3, 93720, Text_t, "/We "
3, 93775, Text_t, "can "
3, 93840, Text_t, "dance "
3, 93930, Text_t, "there, "
3, 94077, Text_t, "dance "
3, 94137, Text_t, "and "
3, 94200, Text_t, "eat "
3, 94257, Text_t, "an "
3, 94322, Text_t, "ice "
3, 94412, Text_t, "cream."
3, 94680, Text_t, "\\Eve"
3, 94737, Text_t, "ry"
3, 94800, Text_t, "bo"
3, 94890, Text_t, "dy, "
3, 95037, Text_t, "danc"
3, 95102, Text_t, "ing "
3, 95160, Text_t, "all "
3, 95220, Text_t, "night "
3, 95247, Text_t, "long,"
3, 95642, Text_t, "/Try "
3, 95705, Text_t, "to "
3, 95767, Text_t, "do "
3, 95855, Text_t, "it, "
3, 95997, Text_t, "sing "
3, 96055, Text_t, "a "
3, 96115, Text_t, "hap"
3, 96175, Text_t, "py "
3, 96240, Text_t, "song. "
3, 96597, Text_t, "\\Eve"
3, 96655, Text_t, "ry"
3, 96720, Text_t, "bo"
3, 96807, Text_t, "dy, "
3, 96960, Text_t, "let's "
3, 97025, Text_t, "go "
3, 97080, Text_t, "to "
3, 97140, Text_t, "the "
3, 97172, Text_t, """King"","
3, 97560, Text_t, "/We "
3, 97615, Text_t, "can "
3, 97680, Text_t, "dance "
3, 97770, Text_t, "there, "
3, 97917, Text_t, "dance "
3, 97977, Text_t, "and "
3, 98040, Text_t, "eat "
3, 98097, Text_t, "an "
3, 98162, Text_t, "ice "
3, 98252, Text_t, "cream."
3, 98520, Text_t, "\\Eve"
3, 98577, Text_t, "ry"
3, 98640, Text_t, "bo"
3, 98730, Text_t, "dy, "
3, 98877, Text_t, "danc"
3, 98942, Text_t, "ing "
3, 99000, Text_t, "all "
3, 99060, Text_t, "night "
3, 99087, Text_t, "long,"
3, 99482, Text_t, "/Try "
3, 99545, Text_t, "to "
3, 99607, Text_t, "do "
3, 99695, Text_t, "it, "
3, 99837, Text_t, "sing "
3, 99895, Text_t, "a "
3, 99955, Text_t, "hap"
3, 100015, Text_t, "py "
3, 100080, Text_t, "song. "
3, 100437, Text_t, "/Eve"
3, 100495, Text_t, "ry"
3, 100560, Text_t, "bo"
3, 100647, Text_t, "dy, "
3, 100800, Text_t, "yeah "
3, 100890, Text_t, "yeah "
3, 100890, End_track
4, 0, Start_track
4, 0, MIDI_port, 0
4, 0, Title_t, "Voice 1"
4, 0, Control_c, 3, 0, 0
4, 0, Program_c, 3, 85
4, 0, Control_c, 3, 7, 120
4, 0, Control_c, 3, 10, 64
4, 0, Control_c, 3, 121, 0
4, 0, Control_c, 3, 91, 70
4, 10080, Note_on_c, 3, 67, 101
4, 10110, Note_on_c, 3, 67, 0
4, 10145, Note_on_c, 3, 69, 113
4, 10167, Note_on_c, 3, 69, 0
4, 10200, Note_on_c, 3, 72, 108
4, 10225, Note_on_c, 3, 72, 0
4, 10262, Note_on_c, 3, 69, 113
4, 10287, Note_on_c, 3, 69, 0
4, 10320, Note_on_c, 3, 67, 103
4, 10345, Note_on_c, 3, 67, 0
4, 10357, Note_on_c, 3, 69, 108
4, 10377, Note_on_c, 3, 69, 0
4, 10417, Note_on_c, 3, 69, 106
4, 10445, Note_on_c, 3, 69, 0
4, 10562, Note_on_c, 3, 67, 101
4, 10590, Note_on_c, 3, 67, 0
4, 10627, Note_on_c, 3, 69, 115
4, 10647, Note_on_c, 3, 69, 0
4, 10690, Note_on_c, 3, 69, 113
4, 10715, Note_on_c, 3, 69, 0
4, 10800, Note_on_c, 3, 74, 103
4, 10867, Note_on_c, 3, 74, 0
4, 10885, Note_on_c, 3, 72, 101
4, 10920, Note_on_c, 3, 72, 0
4, 11037, Note_on_c, 3, 74, 101
4, 11062, Note_on_c, 3, 74, 0
4, 11100, Note_on_c, 3, 74, 102
4, 11130, Note_on_c, 3, 74, 0
4, 11160, Note_on_c, 3, 72, 98
4, 11187, Note_on_c, 3, 72, 0
4, 11225, Note_on_c, 3, 69, 103
4, 11245, Note_on_c, 3, 69, 0
4, 11285, Note_on_c, 3, 67, 103
4, 11307, Note_on_c, 3, 67, 0
4, 11320, Note_on_c, 3, 69, 103
4, 11342, Note_on_c, 3, 69, 0
4, 11377, Note_on_c, 3, 69, 102
4, 11402, Note_on_c, 3, 69, 0
4, 11525, Note_on_c, 3, 67, 103
4, 11552, Note_on_c, 3, 67, 0
4, 11587, Note_on_c, 3, 69, 110
4, 11607, Note_on_c, 3, 69, 0
4, 11650, Note_on_c, 3, 69, 105
4, 11665, Note_on_c, 3, 69, 0
4, 11707, Note_on_c, 3, 69, 101
4, 11730, Note_on_c, 3, 69, 0
4, 11760, Note_on_c, 3, 72, 101
4, 11787, Note_on_c, 3, 72, 0
4, 11820, Note_on_c, 3, 69, 101
4, 11842, Note_on_c, 3, 69, 0
4, 11880, Note_on_c, 3, 67, 101
4, 11922, Note_on_c, 3, 67, 0
4, 11940, Note_on_c, 3, 69, 103
4, 11962, Note_on_c, 3, 69, 0
4, 12000, Note_on_c, 3, 67, 101
4, 12030, Note_on_c, 3, 67, 0
4, 12060, Note_on_c, 3, 69, 102
4, 12085, Note_on_c, 3, 69, 0
4, 12120, Note_on_c, 3, 67, 101
4, 12147, Note_on_c, 3, 67, 0
4, 12182, Note_on_c, 3, 69, 103
4, 12205, Note_on_c, 3, 69, 0
4, 12242, Note_on_c, 3, 67, 101
4, 12265, Note_on_c, 3, 67, 0
4, 12277, Note_on_c, 3, 69, 108
4, 12300, Note_on_c, 3, 69, 0
4, 12340, Note_on_c, 3, 69, 105
4, 12372, Note_on_c, 3, 69, 0
4, 12487, Note_on_c, 3, 67, 100
4, 12510, Note_on_c, 3, 67, 0
4, 12545, Note_on_c, 3, 69, 110
4, 12567, Note_on_c, 3, 69, 0
4, 12607, Note_on_c, 3, 69, 110
4, 12637, Note_on_c, 3, 69, 0
4, 12720, Note_on_c, 3, 74, 105
4, 12792, Note_on_c, 3, 74, 0
4, 12805, Note_on_c, 3, 72, 97
4, 12840, Note_on_c, 3, 72, 0
4, 12957, Note_on_c, 3, 74, 105
4, 12985, Note_on_c, 3, 74, 0
4, 13020, Note_on_c, 3, 74, 101
4, 13050, Note_on_c, 3, 74, 0
4, 13077, Note_on_c, 3, 72, 102
4, 13105, Note_on_c, 3, 72, 0
4, 13142, Note_on_c, 3, 69, 102
4, 13167, Note_on_c, 3, 69, 0
4, 13202, Note_on_c, 3, 67, 101
4, 13225, Note_on_c, 3, 67, 0
4, 13237, Note_on_c, 3, 69, 103
4, 13260, Note_on_c, 3, 69, 0
4, 13295, Note_on_c, 3, 69, 102
4, 13317, Note_on_c, 3, 69, 0
4, 13440, Note_on_c, 3, 67, 102
4, 13472, Note_on_c, 3, 67, 0
4, 13505, Note_on_c, 3, 69, 113
4, 13525, Note_on_c, 3, 69, 0
4, 13562, Note_on_c, 3, 69, 105
4, 13585, Note_on_c, 3, 69, 0
4, 13622, Note_on_c, 3, 69, 102
4, 13650, Note_on_c, 3, 69, 0
4, 13685, Note_on_c, 3, 72, 101
4, 13712, Note_on_c, 3, 72, 0
4, 13745, Note_on_c, 3, 69, 101
4, 13767, Note_on_c, 3, 69, 0
4, 13805, Note_on_c, 3, 67, 101
4, 13837, Note_on_c, 3, 67, 0
4, 13860, Note_on_c, 3, 69, 110
4, 13882, Note_on_c, 3, 69, 0
4, 17760, Note_on_c, 3, 67, 101
4, 17790, Note_on_c, 3, 67, 0
4, 17825, Note_on_c, 3, 69, 113
4, 17847, Note_on_c, 3, 69, 0
4, 17880, Note_on_c, 3, 72, 108
4, 17905, Note_on_c, 3, 72, 0
4, 17942, Note_on_c, 3, 69, 113
4, 17967, Note_on_c, 3, 69, 0
4, 18000, Note_on_c, 3, 67, 103
4, 18025, Note_on_c, 3, 67, 0
4, 18037, Note_on_c, 3, 69, 108
4, 18057, Note_on_c, 3, 69, 0
4, 18097, Note_on_c, 3, 69, 106
4, 18125, Note_on_c, 3, 69, 0
4, 18242, Note_on_c, 3, 67, 101
4, 18270, Note_on_c, 3, 67, 0
4, 18307, Note_on_c, 3, 69, 115
4, 18327, Note_on_c, 3, 69, 0
4, 18370, Note_on_c, 3, 69, 113
4, 18395, Note_on_c, 3, 69, 0
4, 18480, Note_on_c, 3, 74, 103
4, 18547, Note_on_c, 3, 74, 0
4, 18565, Note_on_c, 3, 72, 101
4, 18600, Note_on_c, 3, 72, 0
4, 18717, Note_on_c, 3, 74, 101
4, 18742, Note_on_c, 3, 74, 0
4, 18780, Note_on_c, 3, 74, 102
4, 18810, Note_on_c, 3, 74, 0
4, 18840, Note_on_c, 3, 72, 98
4, 18867, Note_on_c, 3, 72, 0
4, 18905, Note_on_c, 3, 69, 103
4, 18925, Note_on_c, 3, 69, 0
4, 18965, Note_on_c, 3, 67, 103
4, 18987, Note_on_c, 3, 67, 0
4, 19000, Note_on_c, 3, 69, 103
4, 19022, Note_on_c, 3, 69, 0
4, 19057, Note_on_c, 3, 69, 102
4, 19082, Note_on_c, 3, 69, 0
4, 19205, Note_on_c, 3, 67, 103
4, 19232, Note_on_c, 3, 67, 0
4, 19267, Note_on_c, 3, 69, 110
4, 19287, Note_on_c, 3, 69, 0
4, 19330, Note_on_c, 3, 69, 105
4, 19345, Note_on_c, 3, 69, 0
4, 19387, Note_on_c, 3, 69, 101
4, 19410, Note_on_c, 3, 69, 0
4, 19440, Note_on_c, 3, 72, 101
4, 19467, Note_on_c, 3, 72, 0
4, 19500, Note_on_c, 3, 69, 101
4, 19522, Note_on_c, 3, 69, 0
4, 19560, Note_on_c, 3, 67, 101
4, 19602, Note_on_c, 3, 67, 0
4, 19620, Note_on_c, 3, 69, 103
4, 19642, Note_on_c, 3, 69, 0
4, 19680, Note_on_c, 3, 67, 101
4, 19710, Note_on_c, 3, 67, 0
4, 19740, Note_on_c, 3, 69, 102
4, 19765, Note_on_c, 3, 69, 0
4, 19800, Note_on_c, 3, 72, 101
4, 19827, Note_on_c, 3, 72, 0
4, 19862, Note_on_c, 3, 69, 103
4, 19885, Note_on_c, 3, 69, 0
4, 19922, Note_on_c, 3, 67, 101
4, 19945, Note_on_c, 3, 67, 0
4, 19957, Note_on_c, 3, 69, 108
4, 19980, Note_on_c, 3, 69, 0
4, 20020, Note_on_c, 3, 69, 105
4, 20052, Note_on_c, 3, 69, 0
4, 20167, Note_on_c, 3, 67, 100
4, 20190, Note_on_c, 3, 67, 0
4, 20225, Note_on_c, 3, 69, 110
4, 20285, Note_on_c, 3, 69, 0
4, 20400, Note_on_c, 3, 74, 105
4, 20472, Note_on_c, 3, 74, 0
4, 20485, Note_on_c, 3, 72, 97
4, 20520, Note_on_c, 3, 72, 0
4, 20637, Note_on_c, 3, 74, 105
4, 20665, Note_on_c, 3, 74, 0
4, 20700, Note_on_c, 3, 74, 101
4, 20730, Note_on_c, 3, 74, 0
4, 20757, Note_on_c, 3, 72, 102
4, 20785, Note_on_c, 3, 72, 0
4, 20822, Note_on_c, 3, 69, 102
4, 20847, Note_on_c, 3, 69, 0
4, 20882, Note_on_c, 3, 67, 101
4, 20905, Note_on_c, 3, 67, 0
4, 20917, Note_on_c, 3, 69, 103
4, 20940, Note_on_c, 3, 69, 0
4, 20975, Note_on_c, 3, 69, 102
4, 20997, Note_on_c, 3, 69, 0
4, 21120, Note_on_c, 3, 67, 102
4, 21152, Note_on_c, 3, 67, 0
4, 21185, Note_on_c, 3, 69, 113
4, 21205, Note_on_c, 3, 69, 0
4, 21242, Note_on_c, 3, 69, 105
4, 21265, Note_on_c, 3, 69, 0
4, 21302, Note_on_c, 3, 69, 102
4, 21330, Note_on_c, 3, 69, 0
4, 21365, Note_on_c, 3, 72, 101
4, 21392, Note_on_c, 3, 72, 0
4, 21425, Note_on_c, 3, 69, 101
4, 21447, Note_on_c, 3, 69, 0
4, 21485, Note_on_c, 3, 67, 101
4, 21517, Note_on_c, 3, 67, 0
4, 21540, Note_on_c, 3, 69, 110
4, 21562, Note_on_c, 3, 69, 0
4, 26827, Note_on_c, 3, 81, 101
4, 26847, Note_on_c, 3, 81, 0
4, 26852, Note_on_c, 3, 81, 102
4, 26869, Note_on_c, 3, 81, 0
4, 26881, Note_on_c, 3, 86, 102
4, 26903, Note_on_c, 3, 86, 0
4, 26942, Note_on_c, 3, 86, 101
4, 26986, Note_on_c, 3, 86, 0
4, 27000, Note_on_c, 3, 84, 100
4, 27842, Note_on_c, 3, 84, 0
4, 28750, Note_on_c, 3, 81, 103
4, 28772, Note_on_c, 3, 81, 0
4, 28777, Note_on_c, 3, 81, 105
4, 28791, Note_on_c, 3, 81, 0
4, 28806, Note_on_c, 3, 86, 106
4, 28823, Note_on_c, 3, 86, 0
4, 28869, Note_on_c, 3, 86, 106
4, 28899, Note_on_c, 3, 86, 0
4, 28921, Note_on_c, 3, 84, 105
4, 29655, Note_on_c, 3, 84, 0
4, 51840, Note_on_c, 3, 67, 101
4, 51870, Note_on_c, 3, 67, 0
4, 51905, Note_on_c, 3, 69, 113
4, 51927, Note_on_c, 3, 69, 0
4, 51960, Note_on_c, 3, 72, 108
4, 51985, Note_on_c, 3, 72, 0
4, 52022, Note_on_c, 3, 69, 113
4, 52047, Note_on_c, 3, 69, 0
4, 52080, Note_on_c, 3, 67, 103
4, 52105, Note_on_c, 3, 67, 0
4, 52117, Note_on_c, 3, 69, 108
4, 52137, Note_on_c, 3, 69, 0
4, 52177, Note_on_c, 3, 69, 106
4, 52205, Note_on_c, 3, 69, 0
4, 52322, Note_on_c, 3, 67, 101
4, 52350, Note_on_c, 3, 67, 0
4, 52387, Note_on_c, 3, 69, 115
4, 52407, Note_on_c, 3, 69, 0
4, 52450, Note_on_c, 3, 69, 113
4, 52475, Note_on_c, 3, 69, 0
4, 52560, Note_on_c, 3, 74, 103
4, 52627, Note_on_c, 3, 74, 0
4, 52645, Note_on_c, 3, 72, 101
4, 52680, Note_on_c, 3, 72, 0
4, 52797, Note_on_c, 3, 74, 101
4, 52822, Note_on_c, 3, 74, 0
4, 52860, Note_on_c, 3, 74, 102
4, 52890, Note_on_c, 3, 74, 0
4, 52920, Note_on_c, 3, 72, 98
4, 52947, Note_on_c, 3, 72, 0
4, 52985, Note_on_c, 3, 69, 103
4, 53005, Note_on_c, 3, 69, 0
4, 53045, Note_on_c, 3, 67, 103
4, 53067, Note_on_c, 3, 67, 0
4, 53080, Note_on_c, 3, 69, 103
4, 53102, Note_on_c, 3, 69, 0
4, 53137, Note_on_c, 3, 69, 102
4, 53162, Note_on_c, 3, 69, 0
4, 53285, Note_on_c, 3, 67, 103
4, 53312, Note_on_c, 3, 67, 0
4, 53347, Note_on_c, 3, 69, 110
4, 53367, Note_on_c, 3, 69, 0
4, 53410, Note_on_c, 3, 69, 105
4, 53425, Note_on_c, 3, 69, 0
4, 53467, Note_on_c, 3, 69, 101
4, 53490, Note_on_c, 3, 69, 0
4, 53520, Note_on_c, 3, 72, 101
4, 53547, Note_on_c, 3, 72, 0
4, 53580, Note_on_c, 3, 69, 101
4, 53602, Note_on_c, 3, 69, 0
4, 53640, Note_on_c, 3, 67, 101
4, 53682, Note_on_c, 3, 67, 0
4, 53700, Note_on_c, 3, 69, 103
4, 53722, Note_on_c, 3, 69, 0
4, 53760, Note_on_c, 3, 67, 101
4, 53790, Note_on_c, 3, 67, 0
4, 53820, Note_on_c, 3, 69, 102
4, 53845, Note_on_c, 3, 69, 0
4, 53880, Note_on_c, 3, 67, 101
4, 53907, Note_on_c, 3, 67, 0
4, 53942, Note_on_c, 3, 69, 103
4, 53965, Note_on_c, 3, 69, 0
4, 54002, Note_on_c, 3, 67, 101
4, 54025, Note_on_c, 3, 67, 0
4, 54037, Note_on_c, 3, 69, 108
4, 54060, Note_on_c, 3, 69, 0
4, 54100, Note_on_c, 3, 69, 105
4, 54132, Note_on_c, 3, 69, 0
4, 54247, Note_on_c, 3, 67, 100
4, 54270, Note_on_c, 3, 67, 0
4, 54305, Note_on_c, 3, 69, 110
4, 54327, Note_on_c, 3, 69, 0
4, 54367, Note_on_c, 3, 69, 110
4, 54397, Note_on_c, 3, 69, 0
4, 54420, Note_on_c, 3, 69, 100
4, 54450, Note_on_c, 3, 69, 0
4, 54480, Note_on_c, 3, 74, 105
4, 54552, Note_on_c, 3, 74, 0
4, 54565, Note_on_c, 3, 72, 97
4, 54600, Note_on_c, 3, 72, 0
4, 54717, Note_on_c, 3, 74, 105
4, 54745, Note_on_c, 3, 74, 0
4, 54780, Note_on_c, 3, 74, 101
4, 54810, Note_on_c, 3, 74, 0
4, 54837, Note_on_c, 3, 72, 102
4, 54865, Note_on_c, 3, 72, 0
4, 54902, Note_on_c, 3, 69, 102
4, 54927, Note_on_c, 3, 69, 0
4, 54962, Note_on_c, 3, 67, 101
4, 54985, Note_on_c, 3, 67, 0
4, 54997, Note_on_c, 3, 69, 103
4, 55020, Note_on_c, 3, 69, 0
4, 55055, Note_on_c, 3, 69, 102
4, 55077, Note_on_c, 3, 69, 0
4, 55200, Note_on_c, 3, 67, 102
4, 55232, Note_on_c, 3, 67, 0
4, 55265, Note_on_c, 3, 69, 113
4, 55285, Note_on_c, 3, 69, 0
4, 55322, Note_on_c, 3, 69, 105
4, 55345, Note_on_c, 3, 69, 0
4, 55382, Note_on_c, 3, 69, 102
4, 55410, Note_on_c, 3, 69, 0
4, 55445, Note_on_c, 3, 72, 101
4, 55472, Note_on_c, 3, 72, 0
4, 55505, Note_on_c, 3, 69, 101
4, 55527, Note_on_c, 3, 69, 0
4, 55565, Note_on_c, 3, 67, 101
4, 55597, Note_on_c, 3, 67, 0
4, 55620, Note_on_c, 3, 69, 110
4, 55642, Note_on_c, 3, 69, 0
4, 60427, Note_on_c, 3, 81, 101
4, 60447, Note_on_c, 3, 81, 0
4, 60452, Note_on_c, 3, 81, 102
4, 60469, Note_on_c, 3, 81, 0
4, 60481, Note_on_c, 3, 86, 102
4, 60503, Note_on_c, 3, 86, 0
4, 60542, Note_on_c, 3, 86, 101
4, 60586, Note_on_c, 3, 86, 0
4, 60600, Note_on_c, 3, 84, 100
4, 61442, Note_on_c, 3, 84, 0
4, 62350, Note_on_c, 3, 81, 103
4, 62372, Note_on_c, 3, 81, 0
4, 62377, Note_on_c, 3, 81, 105
4, 62391, Note_on_c, 3, 81, 0
4, 62406, Note_on_c, 3, 86, 106
4, 62423, Note_on_c, 3, 86, 0
4, 62469, Note_on_c, 3, 86, 106
4, 62499, Note_on_c, 3, 86, 0
4, 62521, Note_on_c, 3, 84, 105
4, 63255, Note_on_c, 3, 84, 0
4, 88800, Note_on_c, 3, 67, 101
4, 88830, Note_on_c, 3, 67, 0
4, 88865, Note_on_c, 3, 69, 113
4, 88887, Note_on_c, 3, 69, 0
4, 88920, Note_on_c, 3, 72, 108
4, 88945, Note_on_c, 3, 72, 0
4, 88982, Note_on_c, 3, 69, 113
4, 89007, Note_on_c, 3, 69, 0
4, 89040, Note_on_c, 3, 67, 103
4, 89065, Note_on_c, 3, 67, 0
4, 89077, Note_on_c, 3, 69, 108
4, 89097, Note_on_c, 3, 69, 0
4, 89137, Note_on_c, 3, 69, 106
4, 89165, Note_on_c, 3, 69, 0
4, 89282, Note_on_c, 3, 67, 101
4, 89310, Note_on_c, 3, 67, 0
4, 89347, Note_on_c, 3, 69, 115
4, 89367, Note_on_c, 3, 69, 0
4, 89410, Note_on_c, 3, 69, 113
4, 89435, Note_on_c, 3, 69, 0
4, 89520, Note_on_c, 3, 74, 103
4, 89587, Note_on_c, 3, 74, 0
4, 89605, Note_on_c, 3, 72, 101
4, 89640, Note_on_c, 3, 72, 0
4, 89757, Note_on_c, 3, 74, 101
4, 89782, Note_on_c, 3, 74, 0
4, 89820, Note_on_c, 3, 74, 102
4, 89850, Note_on_c, 3, 74, 0
4, 89880, Note_on_c, 3, 72, 98
4, 89907, Note_on_c, 3, 72, 0
4, 89945, Note_on_c, 3, 69, 103
4, 89965, Note_on_c, 3, 69, 0
4, 90005, Note_on_c, 3, 67, 103
4, 90027, Note_on_c, 3, 67, 0
4, 90040, Note_on_c, 3, 69, 103
4, 90062, Note_on_c, 3, 69, 0
4, 90097, Note_on_c, 3, 69, 102
4, 90122, Note_on_c, 3, 69, 0
4, 90245, Note_on_c, 3, 67, 103
4, 90272, Note_on_c, 3, 67, 0
4, 90307, Note_on_c, 3, 69, 110
4, 90327, Note_on_c, 3, 69, 0
4, 90370, Note_on_c, 3, 69, 105
4, 90385, Note_on_c, 3, 69, 0
4, 90427, Note_on_c, 3, 69, 101
4, 90450, Note_on_c, 3, 69, 0
4, 90480, Note_on_c, 3, 72, 101
4, 90507, Note_on_c, 3, 72, 0
4, 90540, Note_on_c, 3, 69, 101
4, 90562, Note_on_c, 3, 69, 0
4, 90600, Note_on_c, 3, 67, 101
4, 90642, Note_on_c, 3, 67, 0
4, 90660, Note_on_c, 3, 69, 103
4, 90682, Note_on_c, 3, 69, 0
4, 90720, Note_on_c, 3, 67, 101
4, 90750, Note_on_c, 3, 67, 0
4, 90780, Note_on_c, 3, 69, 102
4, 90805, Note_on_c, 3, 69, 0
4, 90840, Note_on_c, 3, 67, 101
4, 90867, Note_on_c, 3, 67, 0
4, 90902, Note_on_c, 3, 69, 103
4, 90925, Note_on_c, 3, 69, 0
4, 90962, Note_on_c, 3, 67, 101
4, 90985, Note_on_c, 3, 67, 0
4, 90997, Note_on_c, 3, 69, 108
4, 91020, Note_on_c, 3, 69, 0
4, 91060, Note_on_c, 3, 69, 105
4, 91092, Note_on_c, 3, 69, 0
4, 91207, Note_on_c, 3, 67, 100
4, 91230, Note_on_c, 3, 67, 0
4, 91265, Note_on_c, 3, 69, 110
4, 91287, Note_on_c, 3, 69, 0
4, 91327, Note_on_c, 3, 69, 110
4, 91357, Note_on_c, 3, 69, 0
4, 91440, Note_on_c, 3, 74, 105
4, 91512, Note_on_c, 3, 74, 0
4, 91525, Note_on_c, 3, 72, 97
4, 91560, Note_on_c, 3, 72, 0
4, 91677, Note_on_c, 3, 74, 105
4, 91705, Note_on_c, 3, 74, 0
4, 91740, Note_on_c, 3, 74, 101
4, 91770, Note_on_c, 3, 74, 0
4, 91797, Note_on_c, 3, 72, 102
4, 91825, Note_on_c, 3, 72, 0
4, 91862, Note_on_c, 3, 69, 102
4, 91887, Note_on_c, 3, 69, 0
4, 91922, Note_on_c, 3, 67, 101
4, 91945, Note_on_c, 3, 67, 0
4, 91957, Note_on_c, 3, 69, 103
4, 91980, Note_on_c, 3, 69, 0
4, 92015, Note_on_c, 3, 69, 102
4, 92037, Note_on_c, 3, 69, 0
4, 92160, Note_on_c, 3, 67, 102
4, 92192, Note_on_c, 3, 67, 0
4, 92225, Note_on_c, 3, 69, 113
4, 92245, Note_on_c, 3, 69, 0
4, 92282, Note_on_c, 3, 69, 105
4, 92305, Note_on_c, 3, 69, 0
4, 92342, Note_on_c, 3, 69, 102
4, 92370, Note_on_c, 3, 69, 0
4, 92405, Note_on_c, 3, 72, 101
4, 92432, Note_on_c, 3, 72, 0
4, 92465, Note_on_c, 3, 69, 101
4, 92487, Note_on_c, 3, 69, 0
4, 92525, Note_on_c, 3, 67, 101
4, 92557, Note_on_c, 3, 67, 0
4, 92580, Note_on_c, 3, 69, 110
4, 92602, Note_on_c, 3, 69, 0
4, 92602, End_track
5, 0, Start_track
5, 0, MIDI_port, 0
5, 0, Title_t, "Voice 2"
5, 0, Control_c, 4, 0, 0
5, 0, Program_c, 4, 90
5, 0, Control_c, 4, 7, 127
5, 0, Control_c, 4, 10, 64
5, 0, Control_c, 4, 121, 0
5, 0, Control_c, 4, 91, 0
5, 14037, Note_on_c, 4, 57, 106
5, 14065, Note_on_c, 4, 57, 0
5, 14095, Note_on_c, 4, 57, 101
5, 14127, Note_on_c, 4, 57, 0
5, 14160, Note_on_c, 4, 60, 103
5, 14247, Note_on_c, 4, 57, 106
5, 14250, Note_on_c, 4, 60, 0
5, 14282, Note_on_c, 4, 57, 0
5, 14400, Note_on_c, 4, 57, 105
5, 14430, Note_on_c, 4, 57, 0
5, 14465, Note_on_c, 4, 57, 103
5, 14495, Note_on_c, 4, 57, 0
5, 14520, Note_on_c, 4, 60, 113
5, 14545, Note_on_c, 4, 60, 0
5, 14580, Note_on_c, 4, 62, 108
5, 14610, Note_on_c, 4, 62, 0
5, 14612, Note_on_c, 4, 60, 108
5, 14672, Note_on_c, 4, 60, 0
5, 15000, Note_on_c, 4, 57, 108
5, 15025, Note_on_c, 4, 57, 0
5, 15055, Note_on_c, 4, 57, 101
5, 15085, Note_on_c, 4, 57, 0
5, 15120, Note_on_c, 4, 60, 108
5, 15210, Note_on_c, 4, 57, 115
5, 15212, Note_on_c, 4, 60, 0
5, 15245, Note_on_c, 4, 57, 0
5, 15357, Note_on_c, 4, 64, 105
5, 15395, Note_on_c, 4, 64, 0
5, 15417, Note_on_c, 4, 62, 98
5, 15452, Note_on_c, 4, 62, 0
5, 15480, Note_on_c, 4, 60, 110
5, 15510, Note_on_c, 4, 60, 0
5, 15537, Note_on_c, 4, 57, 103
5, 15570, Note_on_c, 4, 57, 0
5, 15602, Note_on_c, 4, 60, 113
5, 15692, Note_on_c, 4, 59, 98
5, 15700, Note_on_c, 4, 60, 0
5, 15742, Note_on_c, 4, 59, 0
5, 15960, Note_on_c, 4, 57, 106
5, 15985, Note_on_c, 4, 57, 0
5, 16017, Note_on_c, 4, 57, 103
5, 16047, Note_on_c, 4, 57, 0
5, 16080, Note_on_c, 4, 60, 113
5, 16170, Note_on_c, 4, 57, 103
5, 16172, Note_on_c, 4, 60, 0
5, 16202, Note_on_c, 4, 57, 0
5, 16317, Note_on_c, 4, 57, 102
5, 16345, Note_on_c, 4, 57, 0
5, 16382, Note_on_c, 4, 57, 102
5, 16407, Note_on_c, 4, 57, 0
5, 16440, Note_on_c, 4, 60, 108
5, 16485, Note_on_c, 4, 60, 0
5, 16500, Note_on_c, 4, 62, 102
5, 16525, Note_on_c, 4, 62, 0
5, 16527, Note_on_c, 4, 60, 115
5, 16587, Note_on_c, 4, 60, 0
5, 16922, Note_on_c, 4, 57, 105
5, 16947, Note_on_c, 4, 57, 0
5, 16985, Note_on_c, 4, 57, 102
5, 17015, Note_on_c, 4, 57, 0
5, 17047, Note_on_c, 4, 60, 110
5, 17135, Note_on_c, 4, 57, 106
5, 17137, Note_on_c, 4, 60, 0
5, 17172, Note_on_c, 4, 57, 0
5, 17277, Note_on_c, 4, 64, 110
5, 17317, Note_on_c, 4, 64, 0
5, 17335, Note_on_c, 4, 62, 102
5, 17365, Note_on_c, 4, 62, 0
5, 17395, Note_on_c, 4, 60, 113
5, 17425, Note_on_c, 4, 60, 0
5, 17455, Note_on_c, 4, 57, 106
5, 17487, Note_on_c, 4, 57, 0
5, 17520, Note_on_c, 4, 60, 113
5, 17610, Note_on_c, 4, 59, 103
5, 17617, Note_on_c, 4, 60, 0
5, 17657, Note_on_c, 4, 59, 0
5, 21717, Note_on_c, 4, 57, 106
5, 21745, Note_on_c, 4, 57, 0
5, 21775, Note_on_c, 4, 57, 101
5, 21807, Note_on_c, 4, 57, 0
5, 21840, Note_on_c, 4, 60, 103
5, 21927, Note_on_c, 4, 57, 106
5, 21930, Note_on_c, 4, 60, 0
5, 21962, Note_on_c, 4, 57, 0
5, 22080, Note_on_c, 4, 57, 105
5, 22110, Note_on_c, 4, 57, 0
5, 22145, Note_on_c, 4, 57, 103
5, 22175, Note_on_c, 4, 57, 0
5, 22200, Note_on_c, 4, 60, 113
5, 22225, Note_on_c, 4, 60, 0
5, 22260, Note_on_c, 4, 62, 108
5, 22290, Note_on_c, 4, 62, 0
5, 22292, Note_on_c, 4, 60, 108
5, 22367, Note_on_c, 4, 60, 0
5, 22680, Note_on_c, 4, 57, 108
5, 22705, Note_on_c, 4, 57, 0
5, 22735, Note_on_c, 4, 57, 101
5, 22765, Note_on_c, 4, 57, 0
5, 22800, Note_on_c, 4, 60, 108
5, 22890, Note_on_c, 4, 57, 115
5, 22892, Note_on_c, 4, 60, 0
5, 22925, Note_on_c, 4, 57, 0
5, 23037, Note_on_c, 4, 64, 105
5, 23075, Note_on_c, 4, 64, 0
5, 23097, Note_on_c, 4, 62, 98
5, 23132, Note_on_c, 4, 62, 0
5, 23160, Note_on_c, 4, 60, 110
5, 23190, Note_on_c, 4, 60, 0
5, 23217, Note_on_c, 4, 57, 103
5, 23250, Note_on_c, 4, 57, 0
5, 23282, Note_on_c, 4, 60, 113
5, 23372, Note_on_c, 4, 59, 98
5, 23380, Note_on_c, 4, 60, 0
5, 23422, Note_on_c, 4, 59, 0
5, 23640, Note_on_c, 4, 57, 106
5, 23665, Note_on_c, 4, 57, 0
5, 23697, Note_on_c, 4, 57, 103
5, 23727, Note_on_c, 4, 57, 0
5, 23760, Note_on_c, 4, 60, 113
5, 23850, Note_on_c, 4, 57, 103
5, 23852, Note_on_c, 4, 60, 0
5, 23882, Note_on_c, 4, 57, 0
5, 23997, Note_on_c, 4, 57, 102
5, 24025, Note_on_c, 4, 57, 0
5, 24062, Note_on_c, 4, 57, 102
5, 24087, Note_on_c, 4, 57, 0
5, 24120, Note_on_c, 4, 60, 108
5, 24165, Note_on_c, 4, 60, 0
5, 24180, Note_on_c, 4, 62, 102
5, 24205, Note_on_c, 4, 62, 0
5, 24207, Note_on_c, 4, 60, 115
5, 24282, Note_on_c, 4, 60, 0
5, 24602, Note_on_c, 4, 57, 105
5, 24627, Note_on_c, 4, 57, 0
5, 24665, Note_on_c, 4, 57, 102
5, 24695, Note_on_c, 4, 57, 0
5, 24727, Note_on_c, 4, 60, 110
5, 24815, Note_on_c, 4, 57, 106
5, 24817, Note_on_c, 4, 60, 0
5, 24852, Note_on_c, 4, 57, 0
5, 24957, Note_on_c, 4, 64, 110
5, 24997, Note_on_c, 4, 64, 0
5, 25015, Note_on_c, 4, 62, 102
5, 25045, Note_on_c, 4, 62, 0
5, 25075, Note_on_c, 4, 60, 113
5, 25105, Note_on_c, 4, 60, 0
5, 25135, Note_on_c, 4, 57, 106
5, 25167, Note_on_c, 4, 57, 0
5, 25200, Note_on_c, 4, 60, 113
5, 25290, Note_on_c, 4, 59, 103
5, 25297, Note_on_c, 4, 60, 0
5, 25337, Note_on_c, 4, 59, 0
5, 44162, Note_on_c, 4, 60, 110
5, 44164, Note_on_c, 4, 45, 117
5, 44245, Note_on_c, 4, 45, 0
5, 44247, Note_on_c, 4, 60, 0
5, 44289, Note_on_c, 4, 60, 102
5, 44289, Note_on_c, 4, 45, 113
5, 44352, Note_on_c, 4, 60, 0
5, 44355, Note_on_c, 4, 45, 0
5, 44379, Note_on_c, 4, 45, 103
5, 44382, Note_on_c, 4, 60, 95
5, 44411, Note_on_c, 4, 45, 0
5, 44421, Note_on_c, 4, 60, 0
5, 44460, Note_on_c, 4, 45, 113
5, 44465, Note_on_c, 4, 60, 110
5, 44479, Note_on_c, 4, 45, 0
5, 44484, Note_on_c, 4, 60, 0
5, 44521, Note_on_c, 4, 60, 110
5, 44521, Note_on_c, 4, 45, 113
5, 44540, Note_on_c, 4, 45, 0
5, 44543, Note_on_c, 4, 60, 0
5, 44633, Note_on_c, 4, 60, 113
5, 44638, Note_on_c, 4, 45, 115
5, 44652, Note_on_c, 4, 45, 0
5, 44657, Note_on_c, 4, 60, 0
5, 44696, Note_on_c, 4, 60, 110
5, 44696, Note_on_c, 4, 45, 115
5, 44711, Note_on_c, 4, 45, 0
5, 44713, Note_on_c, 4, 60, 0
5, 44752, Note_on_c, 4, 60, 108
5, 44752, Note_on_c, 4, 45, 115
5, 44760, Note_on_c, 4, 45, 0
5, 44770, Note_on_c, 4, 60, 0
5, 44777, Note_on_c, 4, 45, 94
5, 44784, Note_on_c, 4, 60, 98
5, 44806, Note_on_c, 4, 45, 0
5, 44811, Note_on_c, 4, 60, 0
5, 44850, Note_on_c, 4, 60, 113
5, 44855, Note_on_c, 4, 45, 113
5, 44877, Note_on_c, 4, 60, 0
5, 44879, Note_on_c, 4, 45, 0
5, 44945, Note_on_c, 4, 60, 113
5, 44948, Note_on_c, 4, 45, 115
5, 44970, Note_on_c, 4, 45, 0
5, 44970, Note_on_c, 4, 60, 0
5, 45009, Note_on_c, 4, 45, 113
5, 45014, Note_on_c, 4, 60, 115
5, 45033, Note_on_c, 4, 60, 0
5, 45035, Note_on_c, 4, 45, 0
5, 45118, Note_on_c, 4, 59, 110
5, 45121, Note_on_c, 4, 43, 113
5, 45140, Note_on_c, 4, 43, 0
5, 45140, Note_on_c, 4, 59, 0
5, 45177, Note_on_c, 4, 43, 113
5, 45182, Note_on_c, 4, 59, 106
5, 45199, Note_on_c, 4, 43, 0
5, 45201, Note_on_c, 4, 59, 0
5, 45238, Note_on_c, 4, 43, 105
5, 45240, Note_on_c, 4, 59, 110
5, 45289, Note_on_c, 4, 43, 0
5, 45299, Note_on_c, 4, 59, 0
5, 45331, Note_on_c, 4, 43, 94
5, 45331, Note_on_c, 4, 59, 98
5, 45358, Note_on_c, 4, 41, 78
5, 45360, Note_on_c, 4, 59, 0
5, 45362, Note_on_c, 4, 43, 0
5, 45362, Note_on_c, 4, 57, 88
5, 45380, Note_on_c, 4, 41, 0
5, 45382, Note_on_c, 4, 57, 0
5, 45428, Note_on_c, 4, 57, 103
5, 45428, Note_on_c, 4, 41, 100
5, 45450, Note_on_c, 4, 41, 0
5, 45450, Note_on_c, 4, 57, 0
5, 45484, Note_on_c, 4, 57, 103
5, 45489, Note_on_c, 4, 41, 101
5, 45516, Note_on_c, 4, 41, 0
5, 45516, Note_on_c, 4, 57, 0
5, 45602, Note_on_c, 4, 60, 102
5, 45602, Note_on_c, 4, 45, 110
5, 45624, Note_on_c, 4, 45, 0
5, 45626, Note_on_c, 4, 60, 0
5, 45660, Note_on_c, 4, 60, 102
5, 45663, Note_on_c, 4, 45, 113
5, 45685, Note_on_c, 4, 45, 0
5, 45687, Note_on_c, 4, 60, 0
5, 45719, Note_on_c, 4, 60, 102
5, 45721, Note_on_c, 4, 45, 117
5, 45753, Note_on_c, 4, 45, 0
5, 45758, Note_on_c, 4, 60, 0
5, 45775, Note_on_c, 4, 45, 98
5, 45780, Note_on_c, 4, 60, 87
5, 45792, Note_on_c, 4, 45, 0
5, 45797, Note_on_c, 4, 60, 0
5, 45836, Note_on_c, 4, 60, 103
5, 45838, Note_on_c, 4, 45, 113
5, 45853, Note_on_c, 4, 60, 0
5, 45858, Note_on_c, 4, 45, 0
5, 45892, Note_on_c, 4, 60, 102
5, 45897, Note_on_c, 4, 45, 115
5, 45919, Note_on_c, 4, 45, 0
5, 45919, Note_on_c, 4, 60, 0
5, 45953, Note_on_c, 4, 60, 106
5, 45953, Note_on_c, 4, 45, 113
5, 45975, Note_on_c, 4, 45, 0
5, 45980, Note_on_c, 4, 60, 0
5, 46077, Note_on_c, 4, 60, 106
5, 46080, Note_on_c, 4, 45, 115
5, 46097, Note_on_c, 4, 45, 0
5, 46099, Note_on_c, 4, 60, 0
5, 46138, Note_on_c, 4, 60, 103
5, 46141, Note_on_c, 4, 45, 117
5, 46155, Note_on_c, 4, 45, 0
5, 46158, Note_on_c, 4, 60, 0
5, 46194, Note_on_c, 4, 60, 106
5, 46197, Note_on_c, 4, 45, 115
5, 46273, Note_on_c, 4, 45, 0
5, 46280, Note_on_c, 4, 60, 0
5, 46321, Note_on_c, 4, 60, 110
5, 46321, Note_on_c, 4, 45, 113
5, 46341, Note_on_c, 4, 45, 0
5, 46343, Note_on_c, 4, 60, 0
5, 46380, Note_on_c, 4, 60, 108
5, 46385, Note_on_c, 4, 45, 113
5, 46392, Note_on_c, 4, 45, 0
5, 46397, Note_on_c, 4, 60, 0
5, 46409, Note_on_c, 4, 45, 106
5, 46417, Note_on_c, 4, 60, 101
5, 46448, Note_on_c, 4, 45, 0
5, 46456, Note_on_c, 4, 60, 0
5, 46568, Note_on_c, 4, 60, 106
5, 46568, Note_on_c, 4, 45, 113
5, 46587, Note_on_c, 4, 45, 0
5, 46590, Note_on_c, 4, 60, 0
5, 46624, Note_on_c, 4, 45, 115
5, 46629, Note_on_c, 4, 60, 102
5, 46641, Note_on_c, 4, 45, 0
5, 46646, Note_on_c, 4, 60, 0
5, 46680, Note_on_c, 4, 60, 108
5, 46685, Note_on_c, 4, 45, 115
5, 46714, Note_on_c, 4, 45, 0
5, 46717, Note_on_c, 4, 60, 0
5, 46739, Note_on_c, 4, 45, 98
5, 46743, Note_on_c, 4, 60, 92
5, 46753, Note_on_c, 4, 45, 0
5, 46761, Note_on_c, 4, 60, 0
5, 46800, Note_on_c, 4, 45, 115
5, 46802, Note_on_c, 4, 60, 108
5, 46819, Note_on_c, 4, 45, 0
5, 46824, Note_on_c, 4, 60, 0
5, 46861, Note_on_c, 4, 45, 108
5, 46861, Note_on_c, 4, 60, 110
5, 46870, Note_on_c, 4, 45, 0
5, 46878, Note_on_c, 4, 60, 0
5, 46887, Note_on_c, 4, 45, 102
5, 46895, Note_on_c, 4, 60, 103
5, 46941, Note_on_c, 4, 60, 0
5, 46941, Note_on_c, 4, 45, 0
5, 47046, Note_on_c, 4, 59, 105
5, 47046, Note_on_c, 4, 43, 106
5, 47066, Note_on_c, 4, 59, 0
5, 47068, Note_on_c, 4, 43, 0
5, 47105, Note_on_c, 4, 43, 108
5, 47107, Note_on_c, 4, 59, 105
5, 47127, Note_on_c, 4, 59, 0
5, 47127, Note_on_c, 4, 43, 0
5, 47161, Note_on_c, 4, 59, 110
5, 47166, Note_on_c, 4, 43, 117
5, 47197, Note_on_c, 4, 43, 0
5, 47205, Note_on_c, 4, 59, 0
5, 47217, Note_on_c, 4, 43, 93
5, 47219, Note_on_c, 4, 59, 89
5, 47251, Note_on_c, 4, 43, 0
5, 47256, Note_on_c, 4, 59, 0
5, 47280, Note_on_c, 4, 57, 89
5, 47288, Note_on_c, 4, 41, 96
5, 47300, Note_on_c, 4, 41, 0
5, 47300, Note_on_c, 4, 57, 0
5, 47341, Note_on_c, 4, 57, 102
5, 47341, Note_on_c, 4, 41, 101
5, 47363, Note_on_c, 4, 57, 0
5, 47366, Note_on_c, 4, 41, 0
5, 47400, Note_on_c, 4, 41, 101
5, 47400, Note_on_c, 4, 57, 110
5, 47436, Note_on_c, 4, 41, 0
5, 47439, Note_on_c, 4, 57, 0
5, 47519, Note_on_c, 4, 60, 103
5, 47522, Note_on_c, 4, 45, 115
5, 47544, Note_on_c, 4, 45, 0
5, 47546, Note_on_c, 4, 60, 0
5, 47580, Note_on_c, 4, 60, 102
5, 47583, Note_on_c, 4, 45, 110
5, 47605, Note_on_c, 4, 45, 0
5, 47607, Note_on_c, 4, 60, 0
5, 47641, Note_on_c, 4, 60, 102
5, 47644, Note_on_c, 4, 45, 113
5, 47671, Note_on_c, 4, 45, 0
5, 47678, Note_on_c, 4, 60, 0
5, 47698, Note_on_c, 4, 45, 100
5, 47700, Note_on_c, 4, 60, 90
5, 47715, Note_on_c, 4, 45, 0
5, 47722, Note_on_c, 4, 60, 0
5, 47759, Note_on_c, 4, 60, 106
5, 47761, Note_on_c, 4, 45, 118
5, 47780, Note_on_c, 4, 60, 0
5, 47783, Note_on_c, 4, 45, 0
5, 47817, Note_on_c, 4, 60, 106
5, 47817, Note_on_c, 4, 45, 110
5, 47837, Note_on_c, 4, 45, 0
5, 47839, Note_on_c, 4, 60, 0
5, 47871, Note_on_c, 4, 45, 110
5, 47873, Note_on_c, 4, 60, 103
5, 47939, Note_on_c, 4, 45, 0
5, 47942, Note_on_c, 4, 60, 0
5, 55797, Note_on_c, 4, 57, 106
5, 55825, Note_on_c, 4, 57, 0
5, 55855, Note_on_c, 4, 57, 101
5, 55887, Note_on_c, 4, 57, 0
5, 55920, Note_on_c, 4, 60, 103
5, 56007, Note_on_c, 4, 57, 106
5, 56010, Note_on_c, 4, 60, 0
5, 56042, Note_on_c, 4, 57, 0
5, 56160, Note_on_c, 4, 57, 105
5, 56190, Note_on_c, 4, 57, 0
5, 56225, Note_on_c, 4, 57, 103
5, 56255, Note_on_c, 4, 57, 0
5, 56280, Note_on_c, 4, 60, 113
5, 56305, Note_on_c, 4, 60, 0
5, 56340, Note_on_c, 4, 62, 108
5, 56370, Note_on_c, 4, 62, 0
5, 56372, Note_on_c, 4, 60, 108
5, 56432, Note_on_c, 4, 60, 0
5, 56760, Note_on_c, 4, 57, 108
5, 56785, Note_on_c, 4, 57, 0
5, 56815, Note_on_c, 4, 57, 101
5, 56845, Note_on_c, 4, 57, 0
5, 56880, Note_on_c, 4, 60, 108
5, 56970, Note_on_c, 4, 57, 115
5, 56972, Note_on_c, 4, 60, 0
5, 57005, Note_on_c, 4, 57, 0
5, 57117, Note_on_c, 4, 64, 105
5, 57155, Note_on_c, 4, 64, 0
5, 57177, Note_on_c, 4, 62, 98
5, 57212, Note_on_c, 4, 62, 0
5, 57240, Note_on_c, 4, 60, 110
5, 57270, Note_on_c, 4, 60, 0
5, 57297, Note_on_c, 4, 57, 103
5, 57330, Note_on_c, 4, 57, 0
5, 57362, Note_on_c, 4, 60, 113
5, 57452, Note_on_c, 4, 59, 98
5, 57460, Note_on_c, 4, 60, 0
5, 57502, Note_on_c, 4, 59, 0
5, 57720, Note_on_c, 4, 57, 106
5, 57745, Note_on_c, 4, 57, 0
5, 57777, Note_on_c, 4, 57, 103
5, 57807, Note_on_c, 4, 57, 0
5, 57840, Note_on_c, 4, 60, 113
5, 57930, Note_on_c, 4, 57, 103
5, 57932, Note_on_c, 4, 60, 0
5, 57962, Note_on_c, 4, 57, 0
5, 58077, Note_on_c, 4, 57, 102
5, 58105, Note_on_c, 4, 57, 0
5, 58142, Note_on_c, 4, 57, 102
5, 58167, Note_on_c, 4, 57, 0
5, 58200, Note_on_c, 4, 60, 108
5, 58245, Note_on_c, 4, 60, 0
5, 58260, Note_on_c, 4, 62, 102
5, 58285, Note_on_c, 4, 62, 0
5, 58287, Note_on_c, 4, 60, 115
5, 58362, Note_on_c, 4, 60, 0
5, 58682, Note_on_c, 4, 57, 105
5, 58707, Note_on_c, 4, 57, 0
5, 58745, Note_on_c, 4, 57, 102
5, 58775, Note_on_c, 4, 57, 0
5, 58807, Note_on_c, 4, 60, 110
5, 58895, Note_on_c, 4, 57, 106
5, 58897, Note_on_c, 4, 60, 0
5, 58932, Note_on_c, 4, 57, 0
5, 59037, Note_on_c, 4, 64, 110
5, 59077, Note_on_c, 4, 64, 0
5, 59095, Note_on_c, 4, 62, 102
5, 59125, Note_on_c, 4, 62, 0
5, 59155, Note_on_c, 4, 60, 113
5, 59185, Note_on_c, 4, 60, 0
5, 59215, Note_on_c, 4, 57, 106
5, 59247, Note_on_c, 4, 57, 0
5, 59280, Note_on_c, 4, 60, 113
5, 59370, Note_on_c, 4, 59, 103
5, 59377, Note_on_c, 4, 60, 0
5, 59417, Note_on_c, 4, 59, 0
5, 63477, Note_on_c, 4, 57, 106
5, 63505, Note_on_c, 4, 57, 0
5, 63535, Note_on_c, 4, 57, 101
5, 63567, Note_on_c, 4, 57, 0
5, 63600, Note_on_c, 4, 60, 103
5, 63687, Note_on_c, 4, 57, 106
5, 63690, Note_on_c, 4, 60, 0
5, 63722, Note_on_c, 4, 57, 0
5, 63840, Note_on_c, 4, 57, 105
5, 63870, Note_on_c, 4, 57, 0
5, 63905, Note_on_c, 4, 57, 103
5, 63935, Note_on_c, 4, 57, 0
5, 63960, Note_on_c, 4, 60, 113
5, 63985, Note_on_c, 4, 60, 0
5, 64020, Note_on_c, 4, 62, 108
5, 64050, Note_on_c, 4, 62, 0
5, 64052, Note_on_c, 4, 60, 108
5, 64112, Note_on_c, 4, 60, 0
5, 64440, Note_on_c, 4, 57, 108
5, 64465, Note_on_c, 4, 57, 0
5, 64495, Note_on_c, 4, 57, 101
5, 64525, Note_on_c, 4, 57, 0
5, 64560, Note_on_c, 4, 60, 108
5, 64650, Note_on_c, 4, 57, 115
5, 64652, Note_on_c, 4, 60, 0
5, 64685, Note_on_c, 4, 57, 0
5, 64797, Note_on_c, 4, 64, 105
5, 64835, Note_on_c, 4, 64, 0
5, 64857, Note_on_c, 4, 62, 98
5, 64892, Note_on_c, 4, 62, 0
5, 64920, Note_on_c, 4, 60, 110
5, 64950, Note_on_c, 4, 60, 0
5, 64977, Note_on_c, 4, 57, 103
5, 65010, Note_on_c, 4, 57, 0
5, 65042, Note_on_c, 4, 60, 113
5, 65132, Note_on_c, 4, 59, 98
5, 65140, Note_on_c, 4, 60, 0
5, 65182, Note_on_c, 4, 59, 0
5, 65400, Note_on_c, 4, 57, 106
5, 65425, Note_on_c, 4, 57, 0
5, 65457, Note_on_c, 4, 57, 103
5, 65487, Note_on_c, 4, 57, 0
5, 65520, Note_on_c, 4, 60, 113
5, 65610, Note_on_c, 4, 57, 103
5, 65612, Note_on_c, 4, 60, 0
5, 65642, Note_on_c, 4, 57, 0
5, 65757, Note_on_c, 4, 57, 102
5, 65785, Note_on_c, 4, 57, 0
5, 65822, Note_on_c, 4, 57, 102
5, 65847, Note_on_c, 4, 57, 0
5, 65880, Note_on_c, 4, 60, 108
5, 65925, Note_on_c, 4, 60, 0
5, 65940, Note_on_c, 4, 62, 102
5, 65965, Note_on_c, 4, 62, 0
5, 65967, Note_on_c, 4, 60, 115
5, 66027, Note_on_c, 4, 60, 0
5, 66362, Note_on_c, 4, 57, 105
5, 66387, Note_on_c, 4, 57, 0
5, 66425, Note_on_c, 4, 57, 102
5, 66455, Note_on_c, 4, 57, 0
5, 66487, Note_on_c, 4, 60, 110
5, 66575, Note_on_c, 4, 57, 106
5, 66577, Note_on_c, 4, 60, 0
5, 66612, Note_on_c, 4, 57, 0
5, 66717, Note_on_c, 4, 64, 110
5, 66757, Note_on_c, 4, 64, 0
5, 66775, Note_on_c, 4, 62, 102
5, 66805, Note_on_c, 4, 62, 0
5, 66835, Note_on_c, 4, 60, 113
5, 66865, Note_on_c, 4, 60, 0
5, 66895, Note_on_c, 4, 57, 106
5, 66927, Note_on_c, 4, 57, 0
5, 66960, Note_on_c, 4, 60, 113
5, 67050, Note_on_c, 4, 59, 103
5, 67057, Note_on_c, 4, 60, 0
5, 67097, Note_on_c, 4, 59, 0
5, 71157, Note_on_c, 4, 57, 101
5, 71160, Note_on_c, 4, 45, 105
5, 71181, Note_on_c, 4, 45, 0
5, 71181, Note_on_c, 4, 57, 0
5, 71217, Note_on_c, 4, 45, 102
5, 71222, Note_on_c, 4, 57, 98
5, 71241, Note_on_c, 4, 45, 0
5, 71246, Note_on_c, 4, 57, 0
5, 71280, Note_on_c, 4, 57, 102
5, 71280, Note_on_c, 4, 45, 102
5, 71342, Note_on_c, 4, 45, 0
5, 71352, Note_on_c, 4, 57, 0
5, 71373, Note_on_c, 4, 45, 100
5, 71376, Note_on_c, 4, 57, 101
5, 71412, Note_on_c, 4, 57, 0
5, 71412, Note_on_c, 4, 45, 0
5, 71517, Note_on_c, 4, 60, 103
5, 71522, Note_on_c, 4, 48, 103
5, 71541, Note_on_c, 4, 60, 0
5, 71544, Note_on_c, 4, 48, 0
5, 71582, Note_on_c, 4, 48, 117
5, 71584, Note_on_c, 4, 60, 101
5, 71601, Note_on_c, 4, 48, 0
5, 71604, Note_on_c, 4, 60, 0
5, 71640, Note_on_c, 4, 60, 102
5, 71640, Note_on_c, 4, 48, 110
5, 71661, Note_on_c, 4, 48, 0
5, 71661, Note_on_c, 4, 60, 0
5, 71700, Note_on_c, 4, 48, 115
5, 71702, Note_on_c, 4, 60, 113
5, 71712, Note_on_c, 4, 48, 0
5, 71716, Note_on_c, 4, 60, 0
5, 71731, Note_on_c, 4, 48, 105
5, 71736, Note_on_c, 4, 60, 103
5, 71800, Note_on_c, 4, 48, 0
5, 71808, Note_on_c, 4, 60, 0
5, 72115, Note_on_c, 4, 53, 101
5, 72115, Note_on_c, 4, 41, 108
5, 72134, Note_on_c, 4, 41, 0
5, 72136, Note_on_c, 4, 53, 0
5, 72175, Note_on_c, 4, 41, 113
5, 72180, Note_on_c, 4, 53, 101
5, 72194, Note_on_c, 4, 41, 0
5, 72199, Note_on_c, 4, 53, 0
5, 72237, Note_on_c, 4, 41, 106
5, 72240, Note_on_c, 4, 53, 102
5, 72288, Note_on_c, 4, 41, 0
5, 72295, Note_on_c, 4, 53, 0
5, 72324, Note_on_c, 4, 41, 103
5, 72326, Note_on_c, 4, 53, 101
5, 72367, Note_on_c, 4, 41, 0
5, 72372, Note_on_c, 4, 53, 0
5, 72475, Note_on_c, 4, 50, 97
5, 72475, Note_on_c, 4, 38, 103
5, 72504, Note_on_c, 4, 38, 0
5, 72506, Note_on_c, 4, 50, 0
5, 72537, Note_on_c, 4, 38, 101
5, 72540, Note_on_c, 4, 50, 98
5, 72561, Note_on_c, 4, 38, 0
5, 72568, Note_on_c, 4, 50, 0
5, 72600, Note_on_c, 4, 38, 100
5, 72604, Note_on_c, 4, 50, 101
5, 72626, Note_on_c, 4, 38, 0
5, 72631, Note_on_c, 4, 50, 0
5, 72660, Note_on_c, 4, 38, 101
5, 72664, Note_on_c, 4, 50, 100
5, 72691, Note_on_c, 4, 38, 0
5, 72698, Note_on_c, 4, 50, 0
5, 72720, Note_on_c, 4, 52, 103
5, 72722, Note_on_c, 4, 40, 106
5, 72784, Note_on_c, 4, 40, 0
5, 72794, Note_on_c, 4, 52, 0
5, 72818, Note_on_c, 4, 52, 101
5, 72818, Note_on_c, 4, 40, 101
5, 72871, Note_on_c, 4, 40, 0
5, 72880, Note_on_c, 4, 52, 0
5, 73080, Note_on_c, 4, 57, 103
5, 73084, Note_on_c, 4, 45, 108
5, 73104, Note_on_c, 4, 45, 0
5, 73104, Note_on_c, 4, 57, 0
5, 73137, Note_on_c, 4, 57, 101
5, 73142, Note_on_c, 4, 45, 108
5, 73164, Note_on_c, 4, 45, 0
5, 73166, Note_on_c, 4, 57, 0
5, 73202, Note_on_c, 4, 57, 103
5, 73204, Note_on_c, 4, 45, 110
5, 73257, Note_on_c, 4, 45, 0
5, 73264, Note_on_c, 4, 57, 0
5, 73293, Note_on_c, 4, 57, 102
5, 73296, Note_on_c, 4, 45, 115
5, 73334, Note_on_c, 4, 45, 0
5, 73339, Note_on_c, 4, 57, 0
5, 73440, Note_on_c, 4, 60, 102
5, 73442, Note_on_c, 4, 48, 103
5, 73464, Note_on_c, 4, 48, 0
5, 73466, Note_on_c, 4, 60, 0
5, 73502, Note_on_c, 4, 48, 102
5, 73504, Note_on_c, 4, 60, 100
5, 73521, Note_on_c, 4, 48, 0
5, 73524, Note_on_c, 4, 60, 0
5, 73557, Note_on_c, 4, 48, 100
5, 73557, Note_on_c, 4, 60, 102
5, 73581, Note_on_c, 4, 48, 0
5, 73584, Note_on_c, 4, 60, 0
5, 73617, Note_on_c, 4, 60, 102
5, 73620, Note_on_c, 4, 48, 106
5, 73632, Note_on_c, 4, 48, 0
5, 73634, Note_on_c, 4, 60, 0
5, 73648, Note_on_c, 4, 48, 100
5, 73653, Note_on_c, 4, 60, 96
5, 73742, Note_on_c, 4, 48, 0
5, 73747, Note_on_c, 4, 60, 0
5, 74035, Note_on_c, 4, 53, 102
5, 74040, Note_on_c, 4, 41, 110
5, 74056, Note_on_c, 4, 41, 0
5, 74061, Note_on_c, 4, 53, 0
5, 74097, Note_on_c, 4, 53, 102
5, 74100, Note_on_c, 4, 41, 113
5, 74121, Note_on_c, 4, 41, 0
5, 74128, Note_on_c, 4, 53, 0
5, 74160, Note_on_c, 4, 41, 113
5, 74160, Note_on_c, 4, 53, 103
5, 74215, Note_on_c, 4, 41, 0
5, 74229, Note_on_c, 4, 53, 0
5, 74251, Note_on_c, 4, 41, 113
5, 74253, Note_on_c, 4, 53, 101
5, 74289, Note_on_c, 4, 41, 0
5, 74304, Note_on_c, 4, 53, 0
5, 74400, Note_on_c, 4, 50, 101
5, 74404, Note_on_c, 4, 38, 105
5, 74426, Note_on_c, 4, 38, 0
5, 74431, Note_on_c, 4, 50, 0
5, 74460, Note_on_c, 4, 38, 100
5, 74464, Note_on_c, 4, 50, 101
5, 74486, Note_on_c, 4, 38, 0
5, 74491, Note_on_c, 4, 50, 0
5, 74524, Note_on_c, 4, 38, 102
5, 74524, Note_on_c, 4, 50, 100
5, 74546, Note_on_c, 4, 38, 0
5, 74551, Note_on_c, 4, 50, 0
5, 74582, Note_on_c, 4, 50, 100
5, 74589, Note_on_c, 4, 38, 101
5, 74606, Note_on_c, 4, 50, 0
5, 74618, Note_on_c, 4, 38, 0
5, 74618, Note_on_c, 4, 52, 101
5, 74623, Note_on_c, 4, 40, 110
5, 74688, Note_on_c, 4, 40, 0
5, 74692, Note_on_c, 4, 52, 0
5, 74712, Note_on_c, 4, 52, 100
5, 74712, Note_on_c, 4, 40, 98
5, 74791, Note_on_c, 4, 40, 0
5, 74796, Note_on_c, 4, 52, 0
5, 83040, Note_on_c, 4, 57, 101
5, 83047, Note_on_c, 4, 45, 100
5, 83059, Note_on_c, 4, 45, 0
5, 83061, Note_on_c, 4, 57, 0
5, 83095, Note_on_c, 4, 45, 101
5, 83097, Note_on_c, 4, 57, 100
5, 83109, Note_on_c, 4, 57, 0
5, 83109, Note_on_c, 4, 45, 0
5, 83128, Note_on_c, 4, 45, 100
5, 83131, Note_on_c, 4, 57, 101
5, 83191, Note_on_c, 4, 57, 0
5, 83193, Note_on_c, 4, 45, 0
5, 83220, Note_on_c, 4, 45, 98
5, 83224, Note_on_c, 4, 57, 101
5, 83244, Note_on_c, 4, 57, 0
5, 83246, Note_on_c, 4, 45, 0
5, 83280, Note_on_c, 4, 45, 97
5, 83280, Note_on_c, 4, 57, 101
5, 83299, Note_on_c, 4, 57, 0
5, 83299, Note_on_c, 4, 45, 0
5, 83340, Note_on_c, 4, 45, 102
5, 83340, Note_on_c, 4, 57, 103
5, 83359, Note_on_c, 4, 57, 0
5, 83359, Note_on_c, 4, 45, 0
5, 83400, Note_on_c, 4, 45, 103
5, 83404, Note_on_c, 4, 57, 105
5, 83424, Note_on_c, 4, 57, 0
5, 83424, Note_on_c, 4, 45, 0
5, 83522, Note_on_c, 4, 45, 101
5, 83527, Note_on_c, 4, 57, 103
5, 83541, Note_on_c, 4, 57, 0
5, 83541, Note_on_c, 4, 45, 0
5, 83587, Note_on_c, 4, 45, 102
5, 83592, Note_on_c, 4, 57, 101
5, 83601, Note_on_c, 4, 57, 0
5, 83601, Note_on_c, 4, 45, 0
5, 83616, Note_on_c, 4, 45, 92
5, 83618, Note_on_c, 4, 57, 101
5, 83671, Note_on_c, 4, 57, 0
5, 83673, Note_on_c, 4, 45, 0
5, 83702, Note_on_c, 4, 45, 101
5, 83707, Note_on_c, 4, 57, 102
5, 83724, Note_on_c, 4, 57, 0
5, 83724, Note_on_c, 4, 45, 0
5, 83760, Note_on_c, 4, 45, 102
5, 83760, Note_on_c, 4, 57, 103
5, 83779, Note_on_c, 4, 57, 0
5, 83781, Note_on_c, 4, 45, 0
5, 83824, Note_on_c, 4, 45, 100
5, 83827, Note_on_c, 4, 57, 102
5, 83844, Note_on_c, 4, 57, 0
5, 83844, Note_on_c, 4, 45, 0
5, 83880, Note_on_c, 4, 45, 103
5, 83882, Note_on_c, 4, 57, 108
5, 83901, Note_on_c, 4, 45, 0
5, 83904, Note_on_c, 4, 57, 0
5, 83997, Note_on_c, 4, 43, 98
5, 84000, Note_on_c, 4, 55, 103
5, 84016, Note_on_c, 4, 43, 0
5, 84019, Note_on_c, 4, 55, 0
5, 84060, Note_on_c, 4, 43, 102
5, 84062, Note_on_c, 4, 55, 103
5, 84076, Note_on_c, 4, 55, 0
5, 84076, Note_on_c, 4, 43, 0
5, 84093, Note_on_c, 4, 43, 93
5, 84093, Note_on_c, 4, 55, 97
5, 84134, Note_on_c, 4, 55, 0
5, 84136, Note_on_c, 4, 43, 0
5, 84177, Note_on_c, 4, 43, 96
5, 84177, Note_on_c, 4, 55, 102
5, 84199, Note_on_c, 4, 55, 0
5, 84199, Note_on_c, 4, 43, 0
5, 84232, Note_on_c, 4, 41, 95
5, 84240, Note_on_c, 4, 53, 110
5, 84259, Note_on_c, 4, 41, 0
5, 84261, Note_on_c, 4, 53, 0
5, 84295, Note_on_c, 4, 41, 102
5, 84300, Note_on_c, 4, 53, 105
5, 84316, Note_on_c, 4, 41, 0
5, 84319, Note_on_c, 4, 53, 0
5, 84355, Note_on_c, 4, 41, 98
5, 84357, Note_on_c, 4, 53, 103
5, 84379, Note_on_c, 4, 41, 0
5, 84381, Note_on_c, 4, 53, 0
5, 84472, Note_on_c, 4, 45, 97
5, 84477, Note_on_c, 4, 57, 103
5, 84494, Note_on_c, 4, 57, 0
5, 84494, Note_on_c, 4, 45, 0
5, 84532, Note_on_c, 4, 45, 101
5, 84535, Note_on_c, 4, 57, 103
5, 84547, Note_on_c, 4, 57, 0
5, 84552, Note_on_c, 4, 45, 0
5, 84561, Note_on_c, 4, 45, 92
5, 84564, Note_on_c, 4, 57, 94
5, 84619, Note_on_c, 4, 57, 0
5, 84619, Note_on_c, 4, 45, 0
5, 84652, Note_on_c, 4, 45, 96
5, 84655, Note_on_c, 4, 57, 103
5, 84676, Note_on_c, 4, 57, 0
5, 84676, Note_on_c, 4, 45, 0
5, 84717, Note_on_c, 4, 45, 101
5, 84717, Note_on_c, 4, 57, 101
5, 84729, Note_on_c, 4, 57, 0
5, 84732, Note_on_c, 4, 45, 0
5, 84744, Note_on_c, 4, 45, 87
5, 84746, Note_on_c, 4, 57, 94
5, 84756, Note_on_c, 4, 57, 0
5, 84763, Note_on_c, 4, 57, 93
5, 84787, Note_on_c, 4, 45, 0
5, 84789, Note_on_c, 4, 57, 0
5, 84825, Note_on_c, 4, 45, 101
5, 84830, Note_on_c, 4, 57, 103
5, 84859, Note_on_c, 4, 45, 0
5, 84861, Note_on_c, 4, 57, 0
5, 84960, Note_on_c, 4, 45, 100
5, 84962, Note_on_c, 4, 57, 103
5, 84976, Note_on_c, 4, 57, 0
5, 84979, Note_on_c, 4, 45, 0
5, 85017, Note_on_c, 4, 45, 101
5, 85017, Note_on_c, 4, 57, 101
5, 85029, Note_on_c, 4, 57, 0
5, 85032, Note_on_c, 4, 45, 0
5, 85046, Note_on_c, 4, 45, 97
5, 85051, Note_on_c, 4, 57, 103
5, 85106, Note_on_c, 4, 57, 0
5, 85108, Note_on_c, 4, 45, 0
5, 85137, Note_on_c, 4, 45, 98
5, 85140, Note_on_c, 4, 57, 103
5, 85159, Note_on_c, 4, 57, 0
5, 85159, Note_on_c, 4, 45, 0
5, 85200, Note_on_c, 4, 45, 101
5, 85202, Note_on_c, 4, 57, 103
5, 85219, Note_on_c, 4, 57, 0
5, 85219, Note_on_c, 4, 45, 0
5, 85257, Note_on_c, 4, 45, 98
5, 85262, Note_on_c, 4, 57, 102
5, 85276, Note_on_c, 4, 57, 0
5, 85276, Note_on_c, 4, 45, 0
5, 85317, Note_on_c, 4, 45, 98
5, 85320, Note_on_c, 4, 57, 106
5, 85339, Note_on_c, 4, 57, 0
5, 85339, Note_on_c, 4, 45, 0
5, 85384, Note_on_c, 4, 45, 86
5, 85392, Note_on_c, 4, 45, 0
5, 85447, Note_on_c, 4, 45, 101
5, 85452, Note_on_c, 4, 57, 106
5, 85459, Note_on_c, 4, 57, 0
5, 85461, Note_on_c, 4, 45, 0
5, 85500, Note_on_c, 4, 45, 102
5, 85502, Note_on_c, 4, 57, 101
5, 85514, Note_on_c, 4, 57, 0
5, 85514, Note_on_c, 4, 45, 0
5, 85528, Note_on_c, 4, 45, 93
5, 85531, Note_on_c, 4, 57, 100
5, 85581, Note_on_c, 4, 57, 0
5, 85581, Note_on_c, 4, 45, 0
5, 85620, Note_on_c, 4, 45, 101
5, 85624, Note_on_c, 4, 57, 105
5, 85641, Note_on_c, 4, 57, 0
5, 85641, Note_on_c, 4, 45, 0
5, 85684, Note_on_c, 4, 57, 95
5, 85684, Note_on_c, 4, 45, 101
5, 85696, Note_on_c, 4, 45, 0
5, 85696, Note_on_c, 4, 57, 0
5, 85706, Note_on_c, 4, 45, 88
5, 85706, Note_on_c, 4, 57, 94
5, 85720, Note_on_c, 4, 57, 0
5, 85720, Note_on_c, 4, 45, 0
5, 85732, Note_on_c, 4, 57, 101
5, 85735, Note_on_c, 4, 45, 93
5, 85759, Note_on_c, 4, 45, 0
5, 85764, Note_on_c, 4, 57, 0
5, 85797, Note_on_c, 4, 45, 101
5, 85800, Note_on_c, 4, 57, 106
5, 85824, Note_on_c, 4, 57, 0
5, 85824, Note_on_c, 4, 45, 0
5, 85920, Note_on_c, 4, 43, 105
5, 85920, Note_on_c, 4, 55, 103
5, 85936, Note_on_c, 4, 55, 0
5, 85936, Note_on_c, 4, 43, 0
5, 85977, Note_on_c, 4, 43, 108
5, 85982, Note_on_c, 4, 55, 98
5, 85992, Note_on_c, 4, 55, 0
5, 85994, Note_on_c, 4, 43, 0
5, 86008, Note_on_c, 4, 43, 96
5, 86011, Note_on_c, 4, 55, 101
5, 86066, Note_on_c, 4, 55, 0
5, 86066, Note_on_c, 4, 43, 0
5, 86097, Note_on_c, 4, 43, 101
5, 86100, Note_on_c, 4, 55, 102
5, 86124, Note_on_c, 4, 55, 0
5, 86126, Note_on_c, 4, 43, 0
5, 86167, Note_on_c, 4, 55, 97
5, 86167, Note_on_c, 4, 53, 98
5, 86167, Note_on_c, 4, 41, 103
5, 86184, Note_on_c, 4, 53, 0
5, 86184, Note_on_c, 4, 55, 0
5, 86188, Note_on_c, 4, 41, 0
5, 86220, Note_on_c, 4, 41, 100
5, 86224, Note_on_c, 4, 53, 100
5, 86246, Note_on_c, 4, 41, 0
5, 86251, Note_on_c, 4, 53, 0
5, 86284, Note_on_c, 4, 41, 101
5, 86289, Note_on_c, 4, 53, 108
5, 86311, Note_on_c, 4, 41, 0
5, 86316, Note_on_c, 4, 53, 0
5, 86404, Note_on_c, 4, 57, 103
5, 86409, Note_on_c, 4, 45, 101
5, 86424, Note_on_c, 4, 45, 0
5, 86424, Note_on_c, 4, 57, 0
5, 86460, Note_on_c, 4, 45, 102
5, 86460, Note_on_c, 4, 57, 101
5, 86474, Note_on_c, 4, 57, 0
5, 86474, Note_on_c, 4, 45, 0
5, 86488, Note_on_c, 4, 45, 93
5, 86491, Note_on_c, 4, 57, 100
5, 86553, Note_on_c, 4, 57, 0
5, 86553, Note_on_c, 4, 45, 0
5, 86577, Note_on_c, 4, 45, 101
5, 86580, Note_on_c, 4, 57, 105
5, 86599, Note_on_c, 4, 57, 0
5, 86599, Note_on_c, 4, 45, 0
5, 86635, Note_on_c, 4, 45, 103
5, 86640, Note_on_c, 4, 57, 106
5, 86656, Note_on_c, 4, 57, 0
5, 86656, Note_on_c, 4, 45, 0
5, 86695, Note_on_c, 4, 45, 103
5, 86695, Note_on_c, 4, 57, 105
5, 86716, Note_on_c, 4, 57, 0
5, 86716, Note_on_c, 4, 45, 0
5, 86755, Note_on_c, 4, 45, 102
5, 86755, Note_on_c, 4, 57, 108
5, 86779, Note_on_c, 4, 45, 0
5, 86781, Note_on_c, 4, 57, 0
5, 92757, Note_on_c, 4, 57, 106
5, 92785, Note_on_c, 4, 57, 0
5, 92815, Note_on_c, 4, 57, 101
5, 92847, Note_on_c, 4, 57, 0
5, 92880, Note_on_c, 4, 60, 103
5, 92967, Note_on_c, 4, 57, 106
5, 92970, Note_on_c, 4, 60, 0
5, 93002, Note_on_c, 4, 57, 0
5, 93120, Note_on_c, 4, 57, 105
5, 93150, Note_on_c, 4, 57, 0
5, 93185, Note_on_c, 4, 57, 103
5, 93215, Note_on_c, 4, 57, 0
5, 93240, Note_on_c, 4, 60, 113
5, 93265, Note_on_c, 4, 60, 0
5, 93300, Note_on_c, 4, 62, 108
5, 93330, Note_on_c, 4, 62, 0
5, 93332, Note_on_c, 4, 60, 108
5, 93407, Note_on_c, 4, 60, 0
5, 93720, Note_on_c, 4, 57, 108
5, 93745, Note_on_c, 4, 57, 0
5, 93775, Note_on_c, 4, 57, 101
5, 93805, Note_on_c, 4, 57, 0
5, 93840, Note_on_c, 4, 60, 108
5, 93930, Note_on_c, 4, 57, 115
5, 93932, Note_on_c, 4, 60, 0
5, 93965, Note_on_c, 4, 57, 0
5, 94077, Note_on_c, 4, 64, 105
5, 94115, Note_on_c, 4, 64, 0
5, 94137, Note_on_c, 4, 62, 98
5, 94172, Note_on_c, 4, 62, 0
5, 94200, Note_on_c, 4, 60, 110
5, 94230, Note_on_c, 4, 60, 0
5, 94257, Note_on_c, 4, 57, 103
5, 94290, Note_on_c, 4, 57, 0
5, 94322, Note_on_c, 4, 60, 113
5, 94412, Note_on_c, 4, 59, 98
5, 94420, Note_on_c, 4, 60, 0
5, 94462, Note_on_c, 4, 59, 0
5, 94680, Note_on_c, 4, 57, 106
5, 94705, Note_on_c, 4, 57, 0
5, 94737, Note_on_c, 4, 57, 103
5, 94767, Note_on_c, 4, 57, 0
5, 94800, Note_on_c, 4, 60, 113
5, 94890, Note_on_c, 4, 57, 103
5, 94892, Note_on_c, 4, 60, 0
5, 94922, Note_on_c, 4, 57, 0
5, 95037, Note_on_c, 4, 57, 102
5, 95065, Note_on_c, 4, 57, 0
5, 95102, Note_on_c, 4, 57, 102
5, 95127, Note_on_c, 4, 57, 0
5, 95160, Note_on_c, 4, 60, 108
5, 95205, Note_on_c, 4, 60, 0
5, 95220, Note_on_c, 4, 62, 102
5, 95245, Note_on_c, 4, 62, 0
5, 95247, Note_on_c, 4, 60, 115
5, 95322, Note_on_c, 4, 60, 0
5, 95642, Note_on_c, 4, 57, 105
5, 95667, Note_on_c, 4, 57, 0
5, 95705, Note_on_c, 4, 57, 102
5, 95735, Note_on_c, 4, 57, 0
5, 95767, Note_on_c, 4, 60, 110
5, 95855, Note_on_c, 4, 57, 106
5, 95857, Note_on_c, 4, 60, 0
5, 95892, Note_on_c, 4, 57, 0
5, 95997, Note_on_c, 4, 64, 110
5, 96037, Note_on_c, 4, 64, 0
5, 96055, Note_on_c, 4, 62, 102
5, 96085, Note_on_c, 4, 62, 0
5, 96115, Note_on_c, 4, 60, 113
5, 96145, Note_on_c, 4, 60, 0
5, 96175, Note_on_c, 4, 57, 106
5, 96207, Note_on_c, 4, 57, 0
5, 96240, Note_on_c, 4, 60, 113
5, 96330, Note_on_c, 4, 59, 103
5, 96337, Note_on_c, 4, 60, 0
5, 96377, Note_on_c, 4, 59, 0
5, 96597, Note_on_c, 4, 57, 106
5, 96625, Note_on_c, 4, 57, 0
5, 96655, Note_on_c, 4, 57, 101
5, 96687, Note_on_c, 4, 57, 0
5, 96720, Note_on_c, 4, 60, 103
5, 96807, Note_on_c, 4, 57, 106
5, 96810, Note_on_c, 4, 60, 0
5, 96842, Note_on_c, 4, 57, 0
5, 96960, Note_on_c, 4, 57, 105
5, 96990, Note_on_c, 4, 57, 0
5, 97025, Note_on_c, 4, 57, 103
5, 97055, Note_on_c, 4, 57, 0
5, 97080, Note_on_c, 4, 60, 113
5, 97105, Note_on_c, 4, 60, 0
5, 97140, Note_on_c, 4, 62, 108
5, 97170, Note_on_c, 4, 62, 0
5, 97172, Note_on_c, 4, 60, 108
5, 97247, Note_on_c, 4, 60, 0
5, 97560, Note_on_c, 4, 57, 108
5, 97585, Note_on_c, 4, 57, 0
5, 97615, Note_on_c, 4, 57, 101
5, 97645, Note_on_c, 4, 57, 0
5, 97680, Note_on_c, 4, 60, 108
5, 97770, Note_on_c, 4, 57, 115
5, 97772, Note_on_c, 4, 60, 0
5, 97805, Note_on_c, 4, 57, 0
5, 97917, Note_on_c, 4, 64, 105
5, 97955, Note_on_c, 4, 64, 0
5, 97977, Note_on_c, 4, 62, 98
5, 98012, Note_on_c, 4, 62, 0
5, 98040, Note_on_c, 4, 60, 110
5, 98070, Note_on_c, 4, 60, 0
5, 98097, Note_on_c, 4, 57, 103
5, 98130, Note_on_c, 4, 57, 0
5, 98162, Note_on_c, 4, 60, 113
5, 98252, Note_on_c, 4, 59, 98
5, 98260, Note_on_c, 4, 60, 0
5, 98302, Note_on_c, 4, 59, 0
5, 98520, Note_on_c, 4, 57, 106
5, 98545, Note_on_c, 4, 57, 0
5, 98577, Note_on_c, 4, 57, 103
5, 98607, Note_on_c, 4, 57, 0
5, 98640, Note_on_c, 4, 60, 113
5, 98730, Note_on_c, 4, 57, 103
5, 98732, Note_on_c, 4, 60, 0
5, 98762, Note_on_c, 4, 57, 0
5, 98877, Note_on_c, 4, 57, 102
5, 98905, Note_on_c, 4, 57, 0
5, 98942, Note_on_c, 4, 57, 102
5, 98967, Note_on_c, 4, 57, 0
5, 99000, Note_on_c, 4, 60, 108
5, 99045, Note_on_c, 4, 60, 0
5, 99060, Note_on_c, 4, 62, 102
5, 99085, Note_on_c, 4, 62, 0
5, 99087, Note_on_c, 4, 60, 115
5, 99147, Note_on_c, 4, 60, 0
5, 99482, Note_on_c, 4, 57, 105
5, 99507, Note_on_c, 4, 57, 0
5, 99545, Note_on_c, 4, 57, 102
5, 99575, Note_on_c, 4, 57, 0
5, 99607, Note_on_c, 4, 60, 110
5, 99695, Note_on_c, 4, 57, 106
5, 99697, Note_on_c, 4, 60, 0
5, 99732, Note_on_c, 4, 57, 0
5, 99837, Note_on_c, 4, 64, 110
5, 99877, Note_on_c, 4, 64, 0
5, 99895, Note_on_c, 4, 62, 102
5, 99925, Note_on_c, 4, 62, 0
5, 99955, Note_on_c, 4, 60, 113
5, 99985, Note_on_c, 4, 60, 0
5, 100015, Note_on_c, 4, 57, 106
5, 100047, Note_on_c, 4, 57, 0
5, 100080, Note_on_c, 4, 60, 113
5, 100170, Note_on_c, 4, 59, 103
5, 100177, Note_on_c, 4, 60, 0
5, 100217, Note_on_c, 4, 59, 0
5, 100437, Note_on_c, 4, 57, 106
5, 100465, Note_on_c, 4, 57, 0
5, 100495, Note_on_c, 4, 57, 101
5, 100527, Note_on_c, 4, 57, 0
5, 100560, Note_on_c, 4, 60, 103
5, 100647, Note_on_c, 4, 57, 106
5, 100650, Note_on_c, 4, 60, 0
5, 100682, Note_on_c, 4, 57, 0
5, 100800, Note_on_c, 4, 88, 86
5, 100802, Pitch_bend_c, 4, 14336
5, 100804, Pitch_bend_c, 4, 13824
5, 100806, Pitch_bend_c, 4, 13440
5, 100808, Pitch_bend_c, 4, 12928
5, 100810, Pitch_bend_c, 4, 12800
5, 100812, Pitch_bend_c, 4, 12672
5, 100814, Pitch_bend_c, 4, 12416
5, 100816, Pitch_bend_c, 4, 12160
5, 100820, Pitch_bend_c, 4, 11904
5, 100822, Pitch_bend_c, 4, 11520
5, 100824, Pitch_bend_c, 4, 11136
5, 100826, Pitch_bend_c, 4, 10880
5, 100828, Pitch_bend_c, 4, 10624
5, 100830, Pitch_bend_c, 4, 10112
5, 100832, Pitch_bend_c, 4, 9856
5, 100834, Pitch_bend_c, 4, 9472
5, 100836, Pitch_bend_c, 4, 9088
5, 100838, Pitch_bend_c, 4, 8576
5, 100840, Pitch_bend_c, 4, 8320
5, 100842, Pitch_bend_c, 4, 7808
5, 100844, Pitch_bend_c, 4, 7296
5, 100846, Pitch_bend_c, 4, 6400
5, 100848, Pitch_bend_c, 4, 5248
5, 100850, Pitch_bend_c, 4, 1152
5, 100852, Pitch_bend_c, 4, 14720
5, 100854, Pitch_bend_c, 4, 14336
5, 100856, Pitch_bend_c, 4, 13696
5, 100858, Pitch_bend_c, 4, 13312
5, 100862, Pitch_bend_c, 4, 12928
5, 100864, Pitch_bend_c, 4, 12544
5, 100866, Pitch_bend_c, 4, 12032
5, 100868, Pitch_bend_c, 4, 11776
5, 100870, Pitch_bend_c, 4, 11264
5, 100872, Pitch_bend_c, 4, 11008
5, 100874, Pitch_bend_c, 4, 10752
5, 100876, Pitch_bend_c, 4, 10496
5, 100878, Pitch_bend_c, 4, 10240
5, 100880, Pitch_bend_c, 4, 9984
5, 100882, Pitch_bend_c, 4, 9728
5, 100884, Pitch_bend_c, 4, 9472
5, 100886, Pitch_bend_c, 4, 9088
5, 100888, Pitch_bend_c, 4, 8320
5, 100890, Note_on_c, 4, 88, 0
5, 100890, Note_on_c, 4, 88, 86
5, 100890, Pitch_bend_c, 4, 7936
5, 100892, Pitch_bend_c, 4, 7552
5, 100894, Pitch_bend_c, 4, 7168
5, 100896, Pitch_bend_c, 4, 6144
5, 100898, Pitch_bend_c, 4, 5632
5, 100900, Pitch_bend_c, 4, 5248
5, 100902, Pitch_bend_c, 4, 3584
5, 100904, Pitch_bend_c, 4, 3072
5, 100906, Pitch_bend_c, 4, 1792
5, 100908, Pitch_bend_c, 4, 1280
5, 100910, Pitch_bend_c, 4, 1024
5, 100912, Pitch_bend_c, 4, 768
5, 100914, Pitch_bend_c, 4, 512
5, 100920, Pitch_bend_c, 4, 8192
5, 100950, Note_on_c, 4, 88, 0
5, 101268, Pitch_bend_c, 4, 8192
5, 101268, End_track
6, 0, Start_track
6, 0, MIDI_port, 0
6, 0, Title_t, "Shamisen"
6, 0, Control_c, 0, 0, 0
6, 0, Control_c, 0, 32, 0
6, 0, Program_c, 0, 106
6, 0, Control_c, 0, 7, 65
6, 0, Control_c, 0, 10, 64
6, 0, Control_c, 0, 121, 0
6, 0, Control_c, 0, 91, 127
6, 480, Note_on_c, 0, 69, 100
6, 509, Note_on_c, 0, 69, 0
6, 510, Note_on_c, 0, 64, 100
6, 539, Note_on_c, 0, 64, 0
6, 540, Note_on_c, 0, 69, 100
6, 569, Note_on_c, 0, 69, 0
6, 570, Note_on_c, 0, 72, 100
6, 599, Note_on_c, 0, 72, 0
6, 600, Note_on_c, 0, 69, 100
6, 629, Note_on_c, 0, 69, 0
6, 630, Note_on_c, 0, 64, 100
6, 659, Note_on_c, 0, 64, 0
6, 660, Note_on_c, 0, 69, 100
6, 689, Note_on_c, 0, 69, 0
6, 690, Note_on_c, 0, 72, 100
6, 719, Note_on_c, 0, 72, 0
6, 720, Note_on_c, 0, 69, 100
6, 749, Note_on_c, 0, 69, 0
6, 750, Note_on_c, 0, 64, 100
6, 779, Note_on_c, 0, 64, 0
6, 780, Note_on_c, 0, 69, 100
6, 809, Note_on_c, 0, 69, 0
6, 810, Note_on_c, 0, 72, 100
6, 839, Note_on_c, 0, 72, 0
6, 840, Note_on_c, 0, 69, 100
6, 869, Note_on_c, 0, 69, 0
6, 870, Note_on_c, 0, 64, 100
6, 899, Note_on_c, 0, 64, 0
6, 900, Note_on_c, 0, 69, 100
6, 929, Note_on_c, 0, 69, 0
6, 930, Note_on_c, 0, 72, 100
6, 959, Note_on_c, 0, 72, 0
6, 960, Note_on_c, 0, 72, 100
6, 989, Note_on_c, 0, 72, 0
6, 990, Note_on_c, 0, 67, 100
6, 1019, Note_on_c, 0, 67, 0
6, 1020, Note_on_c, 0, 72, 100
6, 1049, Note_on_c, 0, 72, 0
6, 1050, Note_on_c, 0, 76, 100
6, 1079, Note_on_c, 0, 76, 0
6, 1080, Note_on_c, 0, 72, 100
6, 1109, Note_on_c, 0, 72, 0
6, 1110, Note_on_c, 0, 67, 100
6, 1139, Note_on_c, 0, 67, 0
6, 1140, Note_on_c, 0, 72, 100
6, 1169, Note_on_c, 0, 72, 0
6, 1170, Note_on_c, 0, 76, 100
6, 1199, Note_on_c, 0, 76, 0
6, 1200, Note_on_c, 0, 72, 100
6, 1229, Note_on_c, 0, 72, 0
6, 1230, Note_on_c, 0, 67, 100
6, 1259, Note_on_c, 0, 67, 0
6, 1260, Note_on_c, 0, 72, 100
6, 1289, Note_on_c, 0, 72, 0
6, 1290, Note_on_c, 0, 76, 100
6, 1319, Note_on_c, 0, 76, 0
6, 1320, Note_on_c, 0, 72, 100
6, 1349, Note_on_c, 0, 72, 0
6, 1350, Note_on_c, 0, 67, 100
6, 1379, Note_on_c, 0, 67, 0
6, 1380, Note_on_c, 0, 72, 100
6, 1409, Note_on_c, 0, 72, 0
6, 1410, Note_on_c, 0, 76, 100
6, 1439, Note_on_c, 0, 76, 0
6, 1440, Note_on_c, 0, 65, 100
6, 1469, Note_on_c, 0, 65, 0
6, 1470, Note_on_c, 0, 60, 100
6, 1499, Note_on_c, 0, 60, 0
6, 1500, Note_on_c, 0, 65, 100
6, 1529, Note_on_c, 0, 65, 0
6, 1530, Note_on_c, 0, 69, 100
6, 1559, Note_on_c, 0, 69, 0
6, 1560, Note_on_c, 0, 65, 100
6, 1589, Note_on_c, 0, 65, 0
6, 1590, Note_on_c, 0, 60, 100
6, 1619, Note_on_c, 0, 60, 0
6, 1620, Note_on_c, 0, 65, 100
6, 1649, Note_on_c, 0, 65, 0
6, 1650, Note_on_c, 0, 69, 100
6, 1679, Note_on_c, 0, 69, 0
6, 1680, Note_on_c, 0, 65, 100
6, 1709, Note_on_c, 0, 65, 0
6, 1710, Note_on_c, 0, 60, 100
6, 1739, Note_on_c, 0, 60, 0
6, 1740, Note_on_c, 0, 65, 100
6, 1769, Note_on_c, 0, 65, 0
6, 1770, Note_on_c, 0, 69, 100
6, 1799, Note_on_c, 0, 69, 0
6, 1800, Note_on_c, 0, 65, 100
6, 1829, Note_on_c, 0, 65, 0
6, 1830, Note_on_c, 0, 60, 100
6, 1859, Note_on_c, 0, 60, 0
6, 1860, Note_on_c, 0, 65, 100
6, 1889, Note_on_c, 0, 65, 0
6, 1890, Note_on_c, 0, 69, 100
6, 1919, Note_on_c, 0, 69, 0
6, 1920, Note_on_c, 0, 62, 100
6, 1949, Note_on_c, 0, 62, 0
6, 1950, Note_on_c, 0, 57, 100
6, 1979, Note_on_c, 0, 57, 0
6, 1980, Note_on_c, 0, 62, 100
6, 2009, Note_on_c, 0, 62, 0
6, 2010, Note_on_c, 0, 65, 100
6, 2039, Note_on_c, 0, 65, 0
6, 2040, Note_on_c, 0, 62, 100
6, 2069, Note_on_c, 0, 62, 0
6, 2070, Note_on_c, 0, 57, 100
6, 2099, Note_on_c, 0, 57, 0
6, 2100, Note_on_c, 0, 62, 100
6, 2129, Note_on_c, 0, 62, 0
6, 2130, Note_on_c, 0, 65, 100
6, 2159, Note_on_c, 0, 65, 0
6, 2160, Note_on_c, 0, 64, 100
6, 2189, Note_on_c, 0, 64, 0
6, 2190, Note_on_c, 0, 59, 100
6, 2219, Note_on_c, 0, 59, 0
6, 2220, Note_on_c, 0, 64, 100
6, 2249, Note_on_c, 0, 64, 0
6, 2250, Note_on_c, 0, 68, 100
6, 2279, Note_on_c, 0, 68, 0
6, 2280, Note_on_c, 0, 64, 100
6, 2309, Note_on_c, 0, 64, 0
6, 2310, Note_on_c, 0, 59, 100
6, 2339, Note_on_c, 0, 59, 0
6, 2340, Note_on_c, 0, 64, 100
6, 2369, Note_on_c, 0, 64, 0
6, 2370, Note_on_c, 0, 68, 100
6, 2399, Note_on_c, 0, 68, 0
6, 2400, Note_on_c, 0, 69, 100
6, 2429, Note_on_c, 0, 69, 0
6, 2430, Note_on_c, 0, 64, 100
6, 2459, Note_on_c, 0, 64, 0
6, 2460, Note_on_c, 0, 69, 100
6, 2489, Note_on_c, 0, 69, 0
6, 2490, Note_on_c, 0, 72, 100
6, 2519, Note_on_c, 0, 72, 0
6, 2520, Note_on_c, 0, 69, 100
6, 2549, Note_on_c, 0, 69, 0
6, 2550, Note_on_c, 0, 64, 100
6, 2579, Note_on_c, 0, 64, 0
6, 2580, Note_on_c, 0, 69, 100
6, 2609, Note_on_c, 0, 69, 0
6, 2610, Note_on_c, 0, 72, 100
6, 2639, Note_on_c, 0, 72, 0
6, 2640, Note_on_c, 0, 69, 100
6, 2669, Note_on_c, 0, 69, 0
6, 2670, Note_on_c, 0, 64, 100
6, 2699, Note_on_c, 0, 64, 0
6, 2700, Note_on_c, 0, 69, 100
6, 2729, Note_on_c, 0, 69, 0
6, 2730, Note_on_c, 0, 72, 100
6, 2759, Note_on_c, 0, 72, 0
6, 2760, Note_on_c, 0, 69, 100
6, 2789, Note_on_c, 0, 69, 0
6, 2790, Note_on_c, 0, 64, 100
6, 2819, Note_on_c, 0, 64, 0
6, 2820, Note_on_c, 0, 69, 100
6, 2849, Note_on_c, 0, 69, 0
6, 2850, Note_on_c, 0, 72, 100
6, 2879, Note_on_c, 0, 72, 0
6, 2880, Note_on_c, 0, 72, 100
6, 2909, Note_on_c, 0, 72, 0
6, 2910, Note_on_c, 0, 67, 100
6, 2939, Note_on_c, 0, 67, 0
6, 2940, Note_on_c, 0, 72, 100
6, 2969, Note_on_c, 0, 72, 0
6, 2970, Note_on_c, 0, 76, 100
6, 2999, Note_on_c, 0, 76, 0
6, 3000, Note_on_c, 0, 72, 100
6, 3029, Note_on_c, 0, 72, 0
6, 3030, Note_on_c, 0, 67, 100
6, 3059, Note_on_c, 0, 67, 0
6, 3060, Note_on_c, 0, 72, 100
6, 3089, Note_on_c, 0, 72, 0
6, 3090, Note_on_c, 0, 76, 100
6, 3119, Note_on_c, 0, 76, 0
6, 3120, Note_on_c, 0, 72, 100
6, 3149, Note_on_c, 0, 72, 0
6, 3150, Note_on_c, 0, 67, 100
6, 3179, Note_on_c, 0, 67, 0
6, 3180, Note_on_c, 0, 72, 100
6, 3209, Note_on_c, 0, 72, 0
6, 3210, Note_on_c, 0, 76, 100
6, 3239, Note_on_c, 0, 76, 0
6, 3240, Note_on_c, 0, 72, 100
6, 3269, Note_on_c, 0, 72, 0
6, 3270, Note_on_c, 0, 67, 100
6, 3299, Note_on_c, 0, 67, 0
6, 3300, Note_on_c, 0, 72, 100
6, 3329, Note_on_c, 0, 72, 0
6, 3330, Note_on_c, 0, 76, 100
6, 3359, Note_on_c, 0, 76, 0
6, 3360, Note_on_c, 0, 65, 100
6, 3389, Note_on_c, 0, 65, 0
6, 3390, Note_on_c, 0, 60, 100
6, 3419, Note_on_c, 0, 60, 0
6, 3420, Note_on_c, 0, 65, 100
6, 3449, Note_on_c, 0, 65, 0
6, 3450, Note_on_c, 0, 69, 100
6, 3479, Note_on_c, 0, 69, 0
6, 3480, Note_on_c, 0, 65, 100
6, 3509, Note_on_c, 0, 65, 0
6, 3510, Note_on_c, 0, 60, 100
6, 3539, Note_on_c, 0, 60, 0
6, 3540, Note_on_c, 0, 65, 100
6, 3569, Note_on_c, 0, 65, 0
6, 3570, Note_on_c, 0, 69, 100
6, 3599, Note_on_c, 0, 69, 0
6, 3600, Note_on_c, 0, 65, 100
6, 3629, Note_on_c, 0, 65, 0
6, 3630, Note_on_c, 0, 60, 100
6, 3659, Note_on_c, 0, 60, 0
6, 3660, Note_on_c, 0, 65, 100
6, 3689, Note_on_c, 0, 65, 0
6, 3690, Note_on_c, 0, 69, 100
6, 3719, Note_on_c, 0, 69, 0
6, 3720, Note_on_c, 0, 65, 100
6, 3749, Note_on_c, 0, 65, 0
6, 3750, Note_on_c, 0, 60, 100
6, 3779, Note_on_c, 0, 60, 0
6, 3780, Note_on_c, 0, 65, 100
6, 3809, Note_on_c, 0, 65, 0
6, 3810, Note_on_c, 0, 69, 100
6, 3839, Note_on_c, 0, 69, 0
6, 3840, Note_on_c, 0, 62, 100
6, 3869, Note_on_c, 0, 62, 0
6, 3870, Note_on_c, 0, 57, 100
6, 3899, Note_on_c, 0, 57, 0
6, 3900, Note_on_c, 0, 62, 100
6, 3929, Note_on_c, 0, 62, 0
6, 3930, Note_on_c, 0, 65, 100
6, 3959, Note_on_c, 0, 65, 0
6, 3960, Note_on_c, 0, 62, 100
6, 3989, Note_on_c, 0, 62, 0
6, 3990, Note_on_c, 0, 57, 100
6, 4019, Note_on_c, 0, 57, 0
6, 4020, Note_on_c, 0, 62, 100
6, 4049, Note_on_c, 0, 62, 0
6, 4050, Note_on_c, 0, 65, 100
6, 4079, Note_on_c, 0, 65, 0
6, 4080, Note_on_c, 0, 64, 100
6, 4109, Note_on_c, 0, 64, 0
6, 4110, Note_on_c, 0, 59, 100
6, 4139, Note_on_c, 0, 59, 0
6, 4140, Note_on_c, 0, 64, 100
6, 4169, Note_on_c, 0, 64, 0
6, 4170, Note_on_c, 0, 68, 100
6, 4199, Note_on_c, 0, 68, 0
6, 4200, Note_on_c, 0, 64, 100
6, 4229, Note_on_c, 0, 64, 0
6, 4230, Note_on_c, 0, 59, 100
6, 4259, Note_on_c, 0, 59, 0
6, 4260, Note_on_c, 0, 64, 100
6, 4289, Note_on_c, 0, 64, 0
6, 4290, Note_on_c, 0, 68, 100
6, 4319, Note_on_c, 0, 68, 0
6, 4320, Note_on_c, 0, 69, 100
6, 4349, Note_on_c, 0, 69, 0
6, 4350, Note_on_c, 0, 64, 100
6, 4379, Note_on_c, 0, 64, 0
6, 4380, Note_on_c, 0, 69, 100
6, 4409, Note_on_c, 0, 69, 0
6, 4410, Note_on_c, 0, 72, 100
6, 4439, Note_on_c, 0, 72, 0
6, 4440, Note_on_c, 0, 69, 100
6, 4469, Note_on_c, 0, 69, 0
6, 4470, Note_on_c, 0, 64, 100
6, 4499, Note_on_c, 0, 64, 0
6, 4500, Note_on_c, 0, 69, 100
6, 4529, Note_on_c, 0, 69, 0
6, 4530, Note_on_c, 0, 72, 100
6, 4559, Note_on_c, 0, 72, 0
6, 4560, Note_on_c, 0, 69, 100
6, 4589, Note_on_c, 0, 69, 0
6, 4590, Note_on_c, 0, 64, 100
6, 4619, Note_on_c, 0, 64, 0
6, 4620, Note_on_c, 0, 69, 100
6, 4649, Note_on_c, 0, 69, 0
6, 4650, Note_on_c, 0, 72, 100
6, 4679, Note_on_c, 0, 72, 0
6, 4680, Note_on_c, 0, 69, 100
6, 4709, Note_on_c, 0, 69, 0
6, 4710, Note_on_c, 0, 64, 100
6, 4739, Note_on_c, 0, 64, 0
6, 4740, Note_on_c, 0, 69, 100
6, 4769, Note_on_c, 0, 69, 0
6, 4770, Note_on_c, 0, 72, 100
6, 4799, Note_on_c, 0, 72, 0
6, 4800, Note_on_c, 0, 72, 100
6, 4829, Note_on_c, 0, 72, 0
6, 4830, Note_on_c, 0, 67, 100
6, 4859, Note_on_c, 0, 67, 0
6, 4860, Note_on_c, 0, 72, 100
6, 4889, Note_on_c, 0, 72, 0
6, 4890, Note_on_c, 0, 76, 100
6, 4919, Note_on_c, 0, 76, 0
6, 4920, Note_on_c, 0, 72, 100
6, 4949, Note_on_c, 0, 72, 0
6, 4950, Note_on_c, 0, 67, 100
6, 4979, Note_on_c, 0, 67, 0
6, 4980, Note_on_c, 0, 72, 100
6, 5009, Note_on_c, 0, 72, 0
6, 5010, Note_on_c, 0, 76, 100
6, 5039, Note_on_c, 0, 76, 0
6, 5040, Note_on_c, 0, 72, 100
6, 5069, Note_on_c, 0, 72, 0
6, 5070, Note_on_c, 0, 67, 100
6, 5099, Note_on_c, 0, 67, 0
6, 5100, Note_on_c, 0, 72, 100
6, 5129, Note_on_c, 0, 72, 0
6, 5130, Note_on_c, 0, 76, 100
6, 5159, Note_on_c, 0, 76, 0
6, 5160, Note_on_c, 0, 72, 100
6, 5189, Note_on_c, 0, 72, 0
6, 5190, Note_on_c, 0, 67, 100
6, 5219, Note_on_c, 0, 67, 0
6, 5220, Note_on_c, 0, 72, 100
6, 5249, Note_on_c, 0, 72, 0
6, 5250, Note_on_c, 0, 76, 100
6, 5279, Note_on_c, 0, 76, 0
6, 5280, Note_on_c, 0, 65, 100
6, 5309, Note_on_c, 0, 65, 0
6, 5310, Note_on_c, 0, 60, 100
6, 5339, Note_on_c, 0, 60, 0
6, 5340, Note_on_c, 0, 65, 100
6, 5369, Note_on_c, 0, 65, 0
6, 5370, Note_on_c, 0, 69, 100
6, 5399, Note_on_c, 0, 69, 0
6, 5400, Note_on_c, 0, 65, 100
6, 5429, Note_on_c, 0, 65, 0
6, 5430, Note_on_c, 0, 60, 100
6, 5459, Note_on_c, 0, 60, 0
6, 5460, Note_on_c, 0, 65, 100
6, 5489, Note_on_c, 0, 65, 0
6, 5490, Note_on_c, 0, 69, 100
6, 5519, Note_on_c, 0, 69, 0
6, 5520, Note_on_c, 0, 65, 100
6, 5549, Note_on_c, 0, 65, 0
6, 5550, Note_on_c, 0, 60, 100
6, 5579, Note_on_c, 0, 60, 0
6, 5580, Note_on_c, 0, 65, 100
6, 5609, Note_on_c, 0, 65, 0
6, 5610, Note_on_c, 0, 69, 100
6, 5639, Note_on_c, 0, 69, 0
6, 5640, Note_on_c, 0, 65, 100
6, 5669, Note_on_c, 0, 65, 0
6, 5670, Note_on_c, 0, 60, 100
6, 5699, Note_on_c, 0, 60, 0
6, 5700, Note_on_c, 0, 65, 100
6, 5729, Note_on_c, 0, 65, 0
6, 5730, Note_on_c, 0, 69, 100
6, 5759, Note_on_c, 0, 69, 0
6, 5760, Note_on_c, 0, 62, 100
6, 5789, Note_on_c, 0, 62, 0
6, 5790, Note_on_c, 0, 57, 100
6, 5819, Note_on_c, 0, 57, 0
6, 5820, Note_on_c, 0, 62, 100
6, 5849, Note_on_c, 0, 62, 0
6, 5850, Note_on_c, 0, 65, 100
6, 5879, Note_on_c, 0, 65, 0
6, 5880, Note_on_c, 0, 62, 100
6, 5909, Note_on_c, 0, 62, 0
6, 5910, Note_on_c, 0, 57, 100
6, 5939, Note_on_c, 0, 57, 0
6, 5940, Note_on_c, 0, 62, 100
6, 5969, Note_on_c, 0, 62, 0
6, 5970, Note_on_c, 0, 65, 100
6, 5999, Note_on_c, 0, 65, 0
6, 6000, Note_on_c, 0, 64, 100
6, 6029, Note_on_c, 0, 64, 0
6, 6030, Note_on_c, 0, 59, 100
6, 6059, Note_on_c, 0, 59, 0
6, 6060, Note_on_c, 0, 64, 100
6, 6089, Note_on_c, 0, 64, 0
6, 6090, Note_on_c, 0, 68, 100
6, 6119, Note_on_c, 0, 68, 0
6, 6120, Note_on_c, 0, 64, 100
6, 6149, Note_on_c, 0, 64, 0
6, 6150, Note_on_c, 0, 59, 100
6, 6179, Note_on_c, 0, 59, 0
6, 6180, Note_on_c, 0, 64, 100
6, 6209, Note_on_c, 0, 64, 0
6, 6210, Note_on_c, 0, 68, 100
6, 6239, Note_on_c, 0, 68, 0
6, 6240, Note_on_c, 0, 69, 100
6, 6269, Note_on_c, 0, 69, 0
6, 6270, Note_on_c, 0, 64, 100
6, 6299, Note_on_c, 0, 64, 0
6, 6300, Note_on_c, 0, 69, 100
6, 6329, Note_on_c, 0, 69, 0
6, 6330, Note_on_c, 0, 72, 100
6, 6359, Note_on_c, 0, 72, 0
6, 6360, Note_on_c, 0, 69, 100
6, 6389, Note_on_c, 0, 69, 0
6, 6390, Note_on_c, 0, 64, 100
6, 6419, Note_on_c, 0, 64, 0
6, 6420, Note_on_c, 0, 69, 100
6, 6449, Note_on_c, 0, 69, 0
6, 6450, Note_on_c, 0, 72, 100
6, 6479, Note_on_c, 0, 72, 0
6, 6480, Note_on_c, 0, 69, 100
6, 6509, Note_on_c, 0, 69, 0
6, 6510, Note_on_c, 0, 64, 100
6, 6539, Note_on_c, 0, 64, 0
6, 6540, Note_on_c, 0, 69, 100
6, 6569, Note_on_c, 0, 69, 0
6, 6570, Note_on_c, 0, 72, 100
6, 6599, Note_on_c, 0, 72, 0
6, 6600, Note_on_c, 0, 69, 100
6, 6629, Note_on_c, 0, 69, 0
6, 6630, Note_on_c, 0, 64, 100
6, 6659, Note_on_c, 0, 64, 0
6, 6660, Note_on_c, 0, 69, 100
6, 6689, Note_on_c, 0, 69, 0
6, 6690, Note_on_c, 0, 72, 100
6, 6719, Note_on_c, 0, 72, 0
6, 6720, Note_on_c, 0, 72, 100
6, 6749, Note_on_c, 0, 72, 0
6, 6750, Note_on_c, 0, 67, 100
6, 6779, Note_on_c, 0, 67, 0
6, 6780, Note_on_c, 0, 72, 100
6, 6809, Note_on_c, 0, 72, 0
6, 6810, Note_on_c, 0, 76, 100
6, 6839, Note_on_c, 0, 76, 0
6, 6840, Note_on_c, 0, 72, 100
6, 6869, Note_on_c, 0, 72, 0
6, 6870, Note_on_c, 0, 67, 100
6, 6899, Note_on_c, 0, 67, 0
6, 6900, Note_on_c, 0, 72, 100
6, 6929, Note_on_c, 0, 72, 0
6, 6930, Note_on_c, 0, 76, 100
6, 6959, Note_on_c, 0, 76, 0
6, 6960, Note_on_c, 0, 72, 100
6, 6989, Note_on_c, 0, 72, 0
6, 6990, Note_on_c, 0, 67, 100
6, 7019, Note_on_c, 0, 67, 0
6, 7020, Note_on_c, 0, 72, 100
6, 7049, Note_on_c, 0, 72, 0
6, 7050, Note_on_c, 0, 76, 100
6, 7079, Note_on_c, 0, 76, 0
6, 7080, Note_on_c, 0, 72, 100
6, 7109, Note_on_c, 0, 72, 0
6, 7110, Note_on_c, 0, 67, 100
6, 7139, Note_on_c, 0, 67, 0
6, 7140, Note_on_c, 0, 72, 100
6, 7169, Note_on_c, 0, 72, 0
6, 7170, Note_on_c, 0, 76, 100
6, 7199, Note_on_c, 0, 76, 0
6, 7200, Note_on_c, 0, 65, 100
6, 7229, Note_on_c, 0, 65, 0
6, 7230, Note_on_c, 0, 60, 100
6, 7259, Note_on_c, 0, 60, 0
6, 7260, Note_on_c, 0, 65, 100
6, 7289, Note_on_c, 0, 65, 0
6, 7290, Note_on_c, 0, 69, 100
6, 7319, Note_on_c, 0, 69, 0
6, 7320, Note_on_c, 0, 65, 100
6, 7349, Note_on_c, 0, 65, 0
6, 7350, Note_on_c, 0, 60, 100
6, 7379, Note_on_c, 0, 60, 0
6, 7380, Note_on_c, 0, 65, 100
6, 7409, Note_on_c, 0, 65, 0
6, 7410, Note_on_c, 0, 69, 100
6, 7439, Note_on_c, 0, 69, 0
6, 7440, Note_on_c, 0, 65, 100
6, 7469, Note_on_c, 0, 65, 0
6, 7470, Note_on_c, 0, 60, 100
6, 7499, Note_on_c, 0, 60, 0
6, 7500, Note_on_c, 0, 65, 100
6, 7529, Note_on_c, 0, 65, 0
6, 7530, Note_on_c, 0, 69, 100
6, 7559, Note_on_c, 0, 69, 0
6, 7560, Note_on_c, 0, 65, 100
6, 7589, Note_on_c, 0, 65, 0
6, 7590, Note_on_c, 0, 60, 100
6, 7619, Note_on_c, 0, 60, 0
6, 7620, Note_on_c, 0, 65, 100
6, 7649, Note_on_c, 0, 65, 0
6, 7650, Note_on_c, 0, 69, 100
6, 7679, Note_on_c, 0, 69, 0
6, 7680, Note_on_c, 0, 62, 100
6, 7709, Note_on_c, 0, 62, 0
6, 7710, Note_on_c, 0, 57, 100
6, 7739, Note_on_c, 0, 57, 0
6, 7740, Note_on_c, 0, 62, 100
6, 7769, Note_on_c, 0, 62, 0
6, 7770, Note_on_c, 0, 65, 100
6, 7799, Note_on_c, 0, 65, 0
6, 7800, Note_on_c, 0, 62, 100
6, 7829, Note_on_c, 0, 62, 0
6, 7830, Note_on_c, 0, 57, 100
6, 7859, Note_on_c, 0, 57, 0
6, 7860, Note_on_c, 0, 62, 100
6, 7889, Note_on_c, 0, 62, 0
6, 7890, Note_on_c, 0, 65, 100
6, 7919, Note_on_c, 0, 65, 0
6, 7920, Note_on_c, 0, 64, 100
6, 7949, Note_on_c, 0, 64, 0
6, 7950, Note_on_c, 0, 59, 100
6, 7979, Note_on_c, 0, 59, 0
6, 7980, Note_on_c, 0, 64, 100
6, 8009, Note_on_c, 0, 64, 0
6, 8010, Note_on_c, 0, 68, 100
6, 8039, Note_on_c, 0, 68, 0
6, 8040, Note_on_c, 0, 64, 100
6, 8069, Note_on_c, 0, 64, 0
6, 8070, Note_on_c, 0, 59, 100
6, 8099, Note_on_c, 0, 59, 0
6, 8100, Note_on_c, 0, 64, 100
6, 8129, Note_on_c, 0, 64, 0
6, 8130, Note_on_c, 0, 68, 100
6, 8159, Note_on_c, 0, 68, 0
6, 8160, Note_on_c, 0, 69, 100
6, 8189, Note_on_c, 0, 69, 0
6, 8190, Note_on_c, 0, 64, 100
6, 8219, Note_on_c, 0, 64, 0
6, 8220, Note_on_c, 0, 69, 100
6, 8249, Note_on_c, 0, 69, 0
6, 8250, Note_on_c, 0, 72, 100
6, 8279, Note_on_c, 0, 72, 0
6, 8280, Note_on_c, 0, 69, 100
6, 8309, Note_on_c, 0, 69, 0
6, 8310, Note_on_c, 0, 64, 100
6, 8339, Note_on_c, 0, 64, 0
6, 8340, Note_on_c, 0, 69, 100
6, 8369, Note_on_c, 0, 69, 0
6, 8370, Note_on_c, 0, 72, 100
6, 8399, Note_on_c, 0, 72, 0
6, 8400, Note_on_c, 0, 69, 100
6, 8429, Note_on_c, 0, 69, 0
6, 8430, Note_on_c, 0, 64, 100
6, 8459, Note_on_c, 0, 64, 0
6, 8460, Note_on_c, 0, 69, 100
6, 8489, Note_on_c, 0, 69, 0
6, 8490, Note_on_c, 0, 72, 100
6, 8519, Note_on_c, 0, 72, 0
6, 8520, Note_on_c, 0, 69, 100
6, 8549, Note_on_c, 0, 69, 0
6, 8550, Note_on_c, 0, 64, 100
6, 8579, Note_on_c, 0, 64, 0
6, 8580, Note_on_c, 0, 69, 100
6, 8609, Note_on_c, 0, 69, 0
6, 8610, Note_on_c, 0, 72, 100
6, 8639, Note_on_c, 0, 72, 0
6, 8640, Note_on_c, 0, 72, 100
6, 8669, Note_on_c, 0, 72, 0
6, 8670, Note_on_c, 0, 67, 100
6, 8699, Note_on_c, 0, 67, 0
6, 8700, Note_on_c, 0, 72, 100
6, 8729, Note_on_c, 0, 72, 0
6, 8730, Note_on_c, 0, 76, 100
6, 8759, Note_on_c, 0, 76, 0
6, 8760, Note_on_c, 0, 72, 100
6, 8789, Note_on_c, 0, 72, 0
6, 8790, Note_on_c, 0, 67, 100
6, 8819, Note_on_c, 0, 67, 0
6, 8820, Note_on_c, 0, 72, 100
6, 8849, Note_on_c, 0, 72, 0
6, 8850, Note_on_c, 0, 76, 100
6, 8879, Note_on_c, 0, 76, 0
6, 8880, Note_on_c, 0, 72, 100
6, 8909, Note_on_c, 0, 72, 0
6, 8910, Note_on_c, 0, 67, 100
6, 8939, Note_on_c, 0, 67, 0
6, 8940, Note_on_c, 0, 72, 100
6, 8969, Note_on_c, 0, 72, 0
6, 8970, Note_on_c, 0, 76, 100
6, 8999, Note_on_c, 0, 76, 0
6, 9000, Note_on_c, 0, 72, 100
6, 9029, Note_on_c, 0, 72, 0
6, 9030, Note_on_c, 0, 67, 100
6, 9059, Note_on_c, 0, 67, 0
6, 9060, Note_on_c, 0, 72, 100
6, 9089, Note_on_c, 0, 72, 0
6, 9090, Note_on_c, 0, 76, 100
6, 9119, Note_on_c, 0, 76, 0
6, 9120, Note_on_c, 0, 65, 100
6, 9149, Note_on_c, 0, 65, 0
6, 9150, Note_on_c, 0, 60, 100
6, 9179, Note_on_c, 0, 60, 0
6, 9180, Note_on_c, 0, 65, 100
6, 9209, Note_on_c, 0, 65, 0
6, 9210, Note_on_c, 0, 69, 100
6, 9239, Note_on_c, 0, 69, 0
6, 9240, Note_on_c, 0, 65, 100
6, 9269, Note_on_c, 0, 65, 0
6, 9270, Note_on_c, 0, 60, 100
6, 9299, Note_on_c, 0, 60, 0
6, 9300, Note_on_c, 0, 65, 100
6, 9329, Note_on_c, 0, 65, 0
6, 9330, Note_on_c, 0, 69, 100
6, 9359, Note_on_c, 0, 69, 0
6, 9360, Note_on_c, 0, 65, 100
6, 9389, Note_on_c, 0, 65, 0
6, 9390, Note_on_c, 0, 60, 100
6, 9419, Note_on_c, 0, 60, 0
6, 9420, Note_on_c, 0, 65, 100
6, 9449, Note_on_c, 0, 65, 0
6, 9450, Note_on_c, 0, 69, 100
6, 9479, Note_on_c, 0, 69, 0
6, 9480, Note_on_c, 0, 65, 100
6, 9509, Note_on_c, 0, 65, 0
6, 9510, Note_on_c, 0, 60, 100
6, 9539, Note_on_c, 0, 60, 0
6, 9540, Note_on_c, 0, 65, 100
6, 9569, Note_on_c, 0, 65, 0
6, 9570, Note_on_c, 0, 69, 100
6, 9599, Note_on_c, 0, 69, 0
6, 9600, Note_on_c, 0, 62, 100
6, 9629, Note_on_c, 0, 62, 0
6, 9630, Note_on_c, 0, 57, 100
6, 9659, Note_on_c, 0, 57, 0
6, 9660, Note_on_c, 0, 62, 100
6, 9689, Note_on_c, 0, 62, 0
6, 9690, Note_on_c, 0, 65, 100
6, 9719, Note_on_c, 0, 65, 0
6, 9720, Note_on_c, 0, 62, 100
6, 9749, Note_on_c, 0, 62, 0
6, 9750, Note_on_c, 0, 57, 100
6, 9779, Note_on_c, 0, 57, 0
6, 9780, Note_on_c, 0, 62, 100
6, 9809, Note_on_c, 0, 62, 0
6, 9810, Note_on_c, 0, 65, 100
6, 9839, Note_on_c, 0, 65, 0
6, 9840, Note_on_c, 0, 64, 100
6, 9869, Note_on_c, 0, 64, 0
6, 9870, Note_on_c, 0, 59, 100
6, 9899, Note_on_c, 0, 59, 0
6, 9900, Note_on_c, 0, 64, 100
6, 9929, Note_on_c, 0, 64, 0
6, 9930, Note_on_c, 0, 68, 100
6, 9959, Note_on_c, 0, 68, 0
6, 9960, Note_on_c, 0, 64, 100
6, 9989, Note_on_c, 0, 64, 0
6, 9990, Note_on_c, 0, 59, 100
6, 10019, Note_on_c, 0, 59, 0
6, 10020, Note_on_c, 0, 64, 100
6, 10049, Note_on_c, 0, 64, 0
6, 10050, Note_on_c, 0, 68, 100
6, 10079, Note_on_c, 0, 68, 0
6, 10080, Note_on_c, 0, 69, 100
6, 10109, Note_on_c, 0, 69, 0
6, 10110, Note_on_c, 0, 64, 100
6, 10139, Note_on_c, 0, 64, 0
6, 10140, Note_on_c, 0, 69, 100
6, 10169, Note_on_c, 0, 69, 0
6, 10170, Note_on_c, 0, 72, 100
6, 10199, Note_on_c, 0, 72, 0
6, 10200, Note_on_c, 0, 69, 100
6, 10229, Note_on_c, 0, 69, 0
6, 10230, Note_on_c, 0, 64, 100
6, 10259, Note_on_c, 0, 64, 0
6, 10260, Note_on_c, 0, 69, 100
6, 10289, Note_on_c, 0, 69, 0
6, 10290, Note_on_c, 0, 72, 100
6, 10319, Note_on_c, 0, 72, 0
6, 10320, Note_on_c, 0, 69, 100
6, 10349, Note_on_c, 0, 69, 0
6, 10350, Note_on_c, 0, 64, 100
6, 10379, Note_on_c, 0, 64, 0
6, 10380, Note_on_c, 0, 69, 100
6, 10409, Note_on_c, 0, 69, 0
6, 10410, Note_on_c, 0, 72, 100
6, 10439, Note_on_c, 0, 72, 0
6, 10440, Note_on_c, 0, 69, 100
6, 10469, Note_on_c, 0, 69, 0
6, 10470, Note_on_c, 0, 64, 100
6, 10499, Note_on_c, 0, 64, 0
6, 10500, Note_on_c, 0, 69, 100
6, 10529, Note_on_c, 0, 69, 0
6, 10530, Note_on_c, 0, 72, 100
6, 10559, Note_on_c, 0, 72, 0
6, 10560, Note_on_c, 0, 69, 100
6, 10589, Note_on_c, 0, 69, 0
6, 10590, Note_on_c, 0, 64, 100
6, 10619, Note_on_c, 0, 64, 0
6, 10620, Note_on_c, 0, 69, 100
6, 10649, Note_on_c, 0, 69, 0
6, 10650, Note_on_c, 0, 72, 100
6, 10679, Note_on_c, 0, 72, 0
6, 10680, Note_on_c, 0, 69, 100
6, 10709, Note_on_c, 0, 69, 0
6, 10710, Note_on_c, 0, 64, 100
6, 10739, Note_on_c, 0, 64, 0
6, 10740, Note_on_c, 0, 69, 100
6, 10769, Note_on_c, 0, 69, 0
6, 10770, Note_on_c, 0, 72, 100
6, 10799, Note_on_c, 0, 72, 0
6, 10800, Note_on_c, 0, 69, 100
6, 10829, Note_on_c, 0, 69, 0
6, 10830, Note_on_c, 0, 64, 100
6, 10859, Note_on_c, 0, 64, 0
6, 10860, Note_on_c, 0, 69, 100
6, 10889, Note_on_c, 0, 69, 0
6, 10890, Note_on_c, 0, 72, 100
6, 10919, Note_on_c, 0, 72, 0
6, 10920, Note_on_c, 0, 69, 100
6, 10949, Note_on_c, 0, 69, 0
6, 10950, Note_on_c, 0, 64, 100
6, 10979, Note_on_c, 0, 64, 0
6, 10980, Note_on_c, 0, 69, 100
6, 11009, Note_on_c, 0, 69, 0
6, 11010, Note_on_c, 0, 72, 100
6, 11039, Note_on_c, 0, 72, 0
6, 11040, Note_on_c, 0, 67, 100
6, 11069, Note_on_c, 0, 67, 0
6, 11070, Note_on_c, 0, 62, 100
6, 11099, Note_on_c, 0, 62, 0
6, 11100, Note_on_c, 0, 67, 100
6, 11129, Note_on_c, 0, 67, 0
6, 11130, Note_on_c, 0, 71, 100
6, 11159, Note_on_c, 0, 71, 0
6, 11160, Note_on_c, 0, 67, 100
6, 11189, Note_on_c, 0, 67, 0
6, 11190, Note_on_c, 0, 62, 100
6, 11219, Note_on_c, 0, 62, 0
6, 11220, Note_on_c, 0, 67, 100
6, 11249, Note_on_c, 0, 67, 0
6, 11250, Note_on_c, 0, 71, 100
6, 11279, Note_on_c, 0, 71, 0
6, 11280, Note_on_c, 0, 65, 100
6, 11309, Note_on_c, 0, 65, 0
6, 11310, Note_on_c, 0, 60, 100
6, 11339, Note_on_c, 0, 60, 0
6, 11340, Note_on_c, 0, 65, 100
6, 11369, Note_on_c, 0, 65, 0
6, 11370, Note_on_c, 0, 69, 100
6, 11399, Note_on_c, 0, 69, 0
6, 11400, Note_on_c, 0, 65, 100
6, 11429, Note_on_c, 0, 65, 0
6, 11430, Note_on_c, 0, 60, 100
6, 11459, Note_on_c, 0, 60, 0
6, 11460, Note_on_c, 0, 65, 100
6, 11489, Note_on_c, 0, 65, 0
6, 11490, Note_on_c, 0, 69, 100
6, 11519, Note_on_c, 0, 69, 0
6, 11520, Note_on_c, 0, 69, 100
6, 11549, Note_on_c, 0, 69, 0
6, 11550, Note_on_c, 0, 64, 100
6, 11579, Note_on_c, 0, 64, 0
6, 11580, Note_on_c, 0, 69, 100
6, 11609, Note_on_c, 0, 69, 0
6, 11610, Note_on_c, 0, 72, 100
6, 11639, Note_on_c, 0, 72, 0
6, 11640, Note_on_c, 0, 69, 100
6, 11669, Note_on_c, 0, 69, 0
6, 11670, Note_on_c, 0, 64, 100
6, 11699, Note_on_c, 0, 64, 0
6, 11700, Note_on_c, 0, 69, 100
6, 11729, Note_on_c, 0, 69, 0
6, 11730, Note_on_c, 0, 72, 100
6, 11759, Note_on_c, 0, 72, 0
6, 11760, Note_on_c, 0, 69, 100
6, 11789, Note_on_c, 0, 69, 0
6, 11790, Note_on_c, 0, 64, 100
6, 11819, Note_on_c, 0, 64, 0
6, 11820, Note_on_c, 0, 69, 100
6, 11849, Note_on_c, 0, 69, 0
6, 11850, Note_on_c, 0, 72, 100
6, 11879, Note_on_c, 0, 72, 0
6, 11880, Note_on_c, 0, 69, 100
6, 11909, Note_on_c, 0, 69, 0
6, 11910, Note_on_c, 0, 64, 100
6, 11939, Note_on_c, 0, 64, 0
6, 11940, Note_on_c, 0, 69, 100
6, 11969, Note_on_c, 0, 69, 0
6, 11970, Note_on_c, 0, 72, 100
6, 11999, Note_on_c, 0, 72, 0
6, 12000, Note_on_c, 0, 69, 100
6, 12029, Note_on_c, 0, 69, 0
6, 12030, Note_on_c, 0, 64, 100
6, 12059, Note_on_c, 0, 64, 0
6, 12060, Note_on_c, 0, 69, 100
6, 12089, Note_on_c, 0, 69, 0
6, 12090, Note_on_c, 0, 72, 100
6, 12119, Note_on_c, 0, 72, 0
6, 12120, Note_on_c, 0, 69, 100
6, 12149, Note_on_c, 0, 69, 0
6, 12150, Note_on_c, 0, 64, 100
6, 12179, Note_on_c, 0, 64, 0
6, 12180, Note_on_c, 0, 69, 100
6, 12209, Note_on_c, 0, 69, 0
6, 12210, Note_on_c, 0, 72, 100
6, 12239, Note_on_c, 0, 72, 0
6, 12240, Note_on_c, 0, 69, 100
6, 12269, Note_on_c, 0, 69, 0
6, 12270, Note_on_c, 0, 64, 100
6, 12299, Note_on_c, 0, 64, 0
6, 12300, Note_on_c, 0, 69, 100
6, 12329, Note_on_c, 0, 69, 0
6, 12330, Note_on_c, 0, 72, 100
6, 12359, Note_on_c, 0, 72, 0
6, 12360, Note_on_c, 0, 69, 100
6, 12389, Note_on_c, 0, 69, 0
6, 12390, Note_on_c, 0, 64, 100
6, 12419, Note_on_c, 0, 64, 0
6, 12420, Note_on_c, 0, 69, 100
6, 12449, Note_on_c, 0, 69, 0
6, 12450, Note_on_c, 0, 72, 100
6, 12479, Note_on_c, 0, 72, 0
6, 12480, Note_on_c, 0, 69, 100
6, 12509, Note_on_c, 0, 69, 0
6, 12510, Note_on_c, 0, 64, 100
6, 12539, Note_on_c, 0, 64, 0
6, 12540, Note_on_c, 0, 69, 100
6, 12569, Note_on_c, 0, 69, 0
6, 12570, Note_on_c, 0, 72, 100
6, 12599, Note_on_c, 0, 72, 0
6, 12600, Note_on_c, 0, 69, 100
6, 12629, Note_on_c, 0, 69, 0
6, 12630, Note_on_c, 0, 64, 100
6, 12659, Note_on_c, 0, 64, 0
6, 12660, Note_on_c, 0, 69, 100
6, 12689, Note_on_c, 0, 69, 0
6, 12690, Note_on_c, 0, 72, 100
6, 12719, Note_on_c, 0, 72, 0
6, 12720, Note_on_c, 0, 69, 100
6, 12749, Note_on_c, 0, 69, 0
6, 12750, Note_on_c, 0, 64, 100
6, 12779, Note_on_c, 0, 64, 0
6, 12780, Note_on_c, 0, 69, 100
6, 12809, Note_on_c, 0, 69, 0
6, 12810, Note_on_c, 0, 72, 100
6, 12839, Note_on_c, 0, 72, 0
6, 12840, Note_on_c, 0, 69, 100
6, 12869, Note_on_c, 0, 69, 0
6, 12870, Note_on_c, 0, 64, 100
6, 12899, Note_on_c, 0, 64, 0
6, 12900, Note_on_c, 0, 69, 100
6, 12929, Note_on_c, 0, 69, 0
6, 12930, Note_on_c, 0, 72, 100
6, 12959, Note_on_c, 0, 72, 0
6, 12960, Note_on_c, 0, 67, 100
6, 12989, Note_on_c, 0, 67, 0
6, 12990, Note_on_c, 0, 62, 100
6, 13019, Note_on_c, 0, 62, 0
6, 13020, Note_on_c, 0, 67, 100
6, 13049, Note_on_c, 0, 67, 0
6, 13050, Note_on_c, 0, 71, 100
6, 13079, Note_on_c, 0, 71, 0
6, 13080, Note_on_c, 0, 67, 100
6, 13109, Note_on_c, 0, 67, 0
6, 13110, Note_on_c, 0, 62, 100
6, 13139, Note_on_c, 0, 62, 0
6, 13140, Note_on_c, 0, 67, 100
6, 13169, Note_on_c, 0, 67, 0
6, 13170, Note_on_c, 0, 71, 100
6, 13199, Note_on_c, 0, 71, 0
6, 13200, Note_on_c, 0, 65, 100
6, 13229, Note_on_c, 0, 65, 0
6, 13230, Note_on_c, 0, 60, 100
6, 13259, Note_on_c, 0, 60, 0
6, 13260, Note_on_c, 0, 65, 100
6, 13289, Note_on_c, 0, 65, 0
6, 13290, Note_on_c, 0, 69, 100
6, 13319, Note_on_c, 0, 69, 0
6, 13320, Note_on_c, 0, 65, 100
6, 13349, Note_on_c, 0, 65, 0
6, 13350, Note_on_c, 0, 60, 100
6, 13379, Note_on_c, 0, 60, 0
6, 13380, Note_on_c, 0, 65, 100
6, 13409, Note_on_c, 0, 65, 0
6, 13410, Note_on_c, 0, 69, 100
6, 13439, Note_on_c, 0, 69, 0
6, 13440, Note_on_c, 0, 69, 100
6, 13469, Note_on_c, 0, 69, 0
6, 13470, Note_on_c, 0, 64, 100
6, 13499, Note_on_c, 0, 64, 0
6, 13500, Note_on_c, 0, 69, 100
6, 13529, Note_on_c, 0, 69, 0
6, 13530, Note_on_c, 0, 72, 100
6, 13559, Note_on_c, 0, 72, 0
6, 13560, Note_on_c, 0, 69, 100
6, 13589, Note_on_c, 0, 69, 0
6, 13590, Note_on_c, 0, 64, 100
6, 13619, Note_on_c, 0, 64, 0
6, 13620, Note_on_c, 0, 69, 100
6, 13649, Note_on_c, 0, 69, 0
6, 13650, Note_on_c, 0, 72, 100
6, 13679, Note_on_c, 0, 72, 0
6, 13680, Note_on_c, 0, 69, 100
6, 13709, Note_on_c, 0, 69, 0
6, 13710, Note_on_c, 0, 64, 100
6, 13739, Note_on_c, 0, 64, 0
6, 13740, Note_on_c, 0, 69, 100
6, 13769, Note_on_c, 0, 69, 0
6, 13770, Note_on_c, 0, 72, 100
6, 13799, Note_on_c, 0, 72, 0
6, 13800, Note_on_c, 0, 69, 100
6, 13829, Note_on_c, 0, 69, 0
6, 13830, Note_on_c, 0, 64, 100
6, 13859, Note_on_c, 0, 64, 0
6, 13860, Note_on_c, 0, 69, 100
6, 13889, Note_on_c, 0, 69, 0
6, 13890, Note_on_c, 0, 72, 100
6, 13919, Note_on_c, 0, 72, 0
6, 13920, Note_on_c, 0, 69, 100
6, 13949, Note_on_c, 0, 69, 0
6, 13950, Note_on_c, 0, 64, 100
6, 13979, Note_on_c, 0, 64, 0
6, 13980, Note_on_c, 0, 69, 100
6, 14009, Note_on_c, 0, 69, 0
6, 14010, Note_on_c, 0, 72, 100
6, 14039, Note_on_c, 0, 72, 0
6, 14040, Note_on_c, 0, 69, 100
6, 14069, Note_on_c, 0, 69, 0
6, 14070, Note_on_c, 0, 64, 100
6, 14099, Note_on_c, 0, 64, 0
6, 14100, Note_on_c, 0, 69, 100
6, 14129, Note_on_c, 0, 69, 0
6, 14130, Note_on_c, 0, 72, 100
6, 14159, Note_on_c, 0, 72, 0
6, 14160, Note_on_c, 0, 69, 100
6, 14189, Note_on_c, 0, 69, 0
6, 14190, Note_on_c, 0, 64, 100
6, 14219, Note_on_c, 0, 64, 0
6, 14220, Note_on_c, 0, 69, 100
6, 14249, Note_on_c, 0, 69, 0
6, 14250, Note_on_c, 0, 72, 100
6, 14279, Note_on_c, 0, 72, 0
6, 14280, Note_on_c, 0, 69, 100
6, 14309, Note_on_c, 0, 69, 0
6, 14310, Note_on_c, 0, 64, 100
6, 14339, Note_on_c, 0, 64, 0
6, 14340, Note_on_c, 0, 69, 100
6, 14369, Note_on_c, 0, 69, 0
6, 14370, Note_on_c, 0, 72, 100
6, 14399, Note_on_c, 0, 72, 0
6, 14400, Note_on_c, 0, 72, 100
6, 14429, Note_on_c, 0, 72, 0
6, 14430, Note_on_c, 0, 67, 100
6, 14459, Note_on_c, 0, 67, 0
6, 14460, Note_on_c, 0, 72, 100
6, 14489, Note_on_c, 0, 72, 0
6, 14490, Note_on_c, 0, 76, 100
6, 14519, Note_on_c, 0, 76, 0
6, 14520, Note_on_c, 0, 72, 100
6, 14549, Note_on_c, 0, 72, 0
6, 14550, Note_on_c, 0, 67, 100
6, 14579, Note_on_c, 0, 67, 0
6, 14580, Note_on_c, 0, 72, 100
6, 14609, Note_on_c, 0, 72, 0
6, 14610, Note_on_c, 0, 76, 100
6, 14639, Note_on_c, 0, 76, 0
6, 14640, Note_on_c, 0, 72, 100
6, 14669, Note_on_c, 0, 72, 0
6, 14670, Note_on_c, 0, 67, 100
6, 14699, Note_on_c, 0, 67, 0
6, 14700, Note_on_c, 0, 72, 100
6, 14729, Note_on_c, 0, 72, 0
6, 14730, Note_on_c, 0, 76, 100
6, 14759, Note_on_c, 0, 76, 0
6, 14760, Note_on_c, 0, 72, 100
6, 14789, Note_on_c, 0, 72, 0
6, 14790, Note_on_c, 0, 67, 100
6, 14819, Note_on_c, 0, 67, 0
6, 14820, Note_on_c, 0, 72, 100
6, 14849, Note_on_c, 0, 72, 0
6, 14850, Note_on_c, 0, 76, 100
6, 14879, Note_on_c, 0, 76, 0
6, 14880, Note_on_c, 0, 65, 100
6, 14909, Note_on_c, 0, 65, 0
6, 14910, Note_on_c, 0, 60, 100
6, 14939, Note_on_c, 0, 60, 0
6, 14940, Note_on_c, 0, 65, 100
6, 14969, Note_on_c, 0, 65, 0
6, 14970, Note_on_c, 0, 69, 100
6, 14999, Note_on_c, 0, 69, 0
6, 15000, Note_on_c, 0, 65, 100
6, 15029, Note_on_c, 0, 65, 0
6, 15030, Note_on_c, 0, 60, 100
6, 15059, Note_on_c, 0, 60, 0
6, 15060, Note_on_c, 0, 65, 100
6, 15089, Note_on_c, 0, 65, 0
6, 15090, Note_on_c, 0, 69, 100
6, 15119, Note_on_c, 0, 69, 0
6, 15120, Note_on_c, 0, 65, 100
6, 15149, Note_on_c, 0, 65, 0
6, 15150, Note_on_c, 0, 60, 100
6, 15179, Note_on_c, 0, 60, 0
6, 15180, Note_on_c, 0, 65, 100
6, 15209, Note_on_c, 0, 65, 0
6, 15210, Note_on_c, 0, 69, 100
6, 15239, Note_on_c, 0, 69, 0
6, 15240, Note_on_c, 0, 65, 100
6, 15269, Note_on_c, 0, 65, 0
6, 15270, Note_on_c, 0, 60, 100
6, 15299, Note_on_c, 0, 60, 0
6, 15300, Note_on_c, 0, 65, 100
6, 15329, Note_on_c, 0, 65, 0
6, 15330, Note_on_c, 0, 69, 100
6, 15359, Note_on_c, 0, 69, 0
6, 15360, Note_on_c, 0, 62, 100
6, 15389, Note_on_c, 0, 62, 0
6, 15390, Note_on_c, 0, 57, 100
6, 15419, Note_on_c, 0, 57, 0
6, 15420, Note_on_c, 0, 62, 100
6, 15449, Note_on_c, 0, 62, 0
6, 15450, Note_on_c, 0, 65, 100
6, 15479, Note_on_c, 0, 65, 0
6, 15480, Note_on_c, 0, 62, 100
6, 15509, Note_on_c, 0, 62, 0
6, 15510, Note_on_c, 0, 57, 100
6, 15539, Note_on_c, 0, 57, 0
6, 15540, Note_on_c, 0, 62, 100
6, 15569, Note_on_c, 0, 62, 0
6, 15570, Note_on_c, 0, 65, 100
6, 15599, Note_on_c, 0, 65, 0
6, 15600, Note_on_c, 0, 64, 100
6, 15629, Note_on_c, 0, 64, 0
6, 15630, Note_on_c, 0, 59, 100
6, 15659, Note_on_c, 0, 59, 0
6, 15660, Note_on_c, 0, 64, 100
6, 15689, Note_on_c, 0, 64, 0
6, 15690, Note_on_c, 0, 68, 100
6, 15719, Note_on_c, 0, 68, 0
6, 15720, Note_on_c, 0, 64, 100
6, 15749, Note_on_c, 0, 64, 0
6, 15750, Note_on_c, 0, 59, 100
6, 15779, Note_on_c, 0, 59, 0
6, 15780, Note_on_c, 0, 64, 100
6, 15809, Note_on_c, 0, 64, 0
6, 15810, Note_on_c, 0, 68, 100
6, 15839, Note_on_c, 0, 68, 0
6, 15840, Note_on_c, 0, 69, 100
6, 15869, Note_on_c, 0, 69, 0
6, 15870, Note_on_c, 0, 64, 100
6, 15899, Note_on_c, 0, 64, 0
6, 15900, Note_on_c, 0, 69, 100
6, 15929, Note_on_c, 0, 69, 0
6, 15930, Note_on_c, 0, 72, 100
6, 15959, Note_on_c, 0, 72, 0
6, 15960, Note_on_c, 0, 69, 100
6, 15989, Note_on_c, 0, 69, 0
6, 15990, Note_on_c, 0, 64, 100
6, 16019, Note_on_c, 0, 64, 0
6, 16020, Note_on_c, 0, 69, 100
6, 16049, Note_on_c, 0, 69, 0
6, 16050, Note_on_c, 0, 72, 100
6, 16079, Note_on_c, 0, 72, 0
6, 16080, Note_on_c, 0, 69, 100
6, 16109, Note_on_c, 0, 69, 0
6, 16110, Note_on_c, 0, 64, 100
6, 16139, Note_on_c, 0, 64, 0
6, 16140, Note_on_c, 0, 69, 100
6, 16169, Note_on_c, 0, 69, 0
6, 16170, Note_on_c, 0, 72, 100
6, 16199, Note_on_c, 0, 72, 0
6, 16200, Note_on_c, 0, 69, 100
6, 16229, Note_on_c, 0, 69, 0
6, 16230, Note_on_c, 0, 64, 100
6, 16259, Note_on_c, 0, 64, 0
6, 16260, Note_on_c, 0, 69, 100
6, 16289, Note_on_c, 0, 69, 0
6, 16290, Note_on_c, 0, 72, 100
6, 16319, Note_on_c, 0, 72, 0
6, 16320, Note_on_c, 0, 72, 100
6, 16349, Note_on_c, 0, 72, 0
6, 16350, Note_on_c, 0, 67, 100
6, 16379, Note_on_c, 0, 67, 0
6, 16380, Note_on_c, 0, 72, 100
6, 16409, Note_on_c, 0, 72, 0
6, 16410, Note_on_c, 0, 76, 100
6, 16439, Note_on_c, 0, 76, 0
6, 16440, Note_on_c, 0, 72, 100
6, 16469, Note_on_c, 0, 72, 0
6, 16470, Note_on_c, 0, 67, 100
6, 16499, Note_on_c, 0, 67, 0
6, 16500, Note_on_c, 0, 72, 100
6, 16529, Note_on_c, 0, 72, 0
6, 16530, Note_on_c, 0, 76, 100
6, 16559, Note_on_c, 0, 76, 0
6, 16560, Note_on_c, 0, 72, 100
6, 16589, Note_on_c, 0, 72, 0
6, 16590, Note_on_c, 0, 67, 100
6, 16619, Note_on_c, 0, 67, 0
6, 16620, Note_on_c, 0, 72, 100
6, 16649, Note_on_c, 0, 72, 0
6, 16650, Note_on_c, 0, 76, 100
6, 16679, Note_on_c, 0, 76, 0
6, 16680, Note_on_c, 0, 72, 100
6, 16709, Note_on_c, 0, 72, 0
6, 16710, Note_on_c, 0, 67, 100
6, 16739, Note_on_c, 0, 67, 0
6, 16740, Note_on_c, 0, 72, 100
6, 16769, Note_on_c, 0, 72, 0
6, 16770, Note_on_c, 0, 76, 100
6, 16799, Note_on_c, 0, 76, 0
6, 16800, Note_on_c, 0, 65, 100
6, 16829, Note_on_c, 0, 65, 0
6, 16830, Note_on_c, 0, 60, 100
6, 16859, Note_on_c, 0, 60, 0
6, 16860, Note_on_c, 0, 65, 100
6, 16889, Note_on_c, 0, 65, 0
6, 16890, Note_on_c, 0, 69, 100
6, 16919, Note_on_c, 0, 69, 0
6, 16920, Note_on_c, 0, 65, 100
6, 16949, Note_on_c, 0, 65, 0
6, 16950, Note_on_c, 0, 60, 100
6, 16979, Note_on_c, 0, 60, 0
6, 16980, Note_on_c, 0, 65, 100
6, 17009, Note_on_c, 0, 65, 0
6, 17010, Note_on_c, 0, 69, 100
6, 17039, Note_on_c, 0, 69, 0
6, 17040, Note_on_c, 0, 65, 100
6, 17069, Note_on_c, 0, 65, 0
6, 17070, Note_on_c, 0, 60, 100
6, 17099, Note_on_c, 0, 60, 0
6, 17100, Note_on_c, 0, 65, 100
6, 17129, Note_on_c, 0, 65, 0
6, 17130, Note_on_c, 0, 69, 100
6, 17159, Note_on_c, 0, 69, 0
6, 17160, Note_on_c, 0, 65, 100
6, 17189, Note_on_c, 0, 65, 0
6, 17190, Note_on_c, 0, 60, 100
6, 17219, Note_on_c, 0, 60, 0
6, 17220, Note_on_c, 0, 65, 100
6, 17249, Note_on_c, 0, 65, 0
6, 17250, Note_on_c, 0, 69, 100
6, 17279, Note_on_c, 0, 69, 0
6, 17280, Note_on_c, 0, 62, 100
6, 17309, Note_on_c, 0, 62, 0
6, 17310, Note_on_c, 0, 57, 100
6, 17339, Note_on_c, 0, 57, 0
6, 17340, Note_on_c, 0, 62, 100
6, 17369, Note_on_c, 0, 62, 0
6, 17370, Note_on_c, 0, 65, 100
6, 17399, Note_on_c, 0, 65, 0
6, 17400, Note_on_c, 0, 62, 100
6, 17429, Note_on_c, 0, 62, 0
6, 17430, Note_on_c, 0, 57, 100
6, 17459, Note_on_c, 0, 57, 0
6, 17460, Note_on_c, 0, 62, 100
6, 17489, Note_on_c, 0, 62, 0
6, 17490, Note_on_c, 0, 65, 100
6, 17519, Note_on_c, 0, 65, 0
6, 17520, Note_on_c, 0, 64, 100
6, 17549, Note_on_c, 0, 64, 0
6, 17550, Note_on_c, 0, 59, 100
6, 17579, Note_on_c, 0, 59, 0
6, 17580, Note_on_c, 0, 64, 100
6, 17609, Note_on_c, 0, 64, 0
6, 17610, Note_on_c, 0, 68, 100
6, 17639, Note_on_c, 0, 68, 0
6, 17640, Note_on_c, 0, 64, 100
6, 17669, Note_on_c, 0, 64, 0
6, 17670, Note_on_c, 0, 59, 100
6, 17699, Note_on_c, 0, 59, 0
6, 17700, Note_on_c, 0, 64, 100
6, 17729, Note_on_c, 0, 64, 0
6, 17730, Note_on_c, 0, 68, 100
6, 17759, Note_on_c, 0, 68, 0
6, 17760, Note_on_c, 0, 69, 100
6, 17789, Note_on_c, 0, 69, 0
6, 17790, Note_on_c, 0, 64, 100
6, 17819, Note_on_c, 0, 64, 0
6, 17820, Note_on_c, 0, 69, 100
6, 17849, Note_on_c, 0, 69, 0
6, 17850, Note_on_c, 0, 72, 100
6, 17879, Note_on_c, 0, 72, 0
6, 17880, Note_on_c, 0, 69, 100
6, 17909, Note_on_c, 0, 69, 0
6, 17910, Note_on_c, 0, 64, 100
6, 17939, Note_on_c, 0, 64, 0
6, 17940, Note_on_c, 0, 69, 100
6, 17969, Note_on_c, 0, 69, 0
6, 17970, Note_on_c, 0, 72, 100
6, 17999, Note_on_c, 0, 72, 0
6, 18000, Note_on_c, 0, 69, 100
6, 18029, Note_on_c, 0, 69, 0
6, 18030, Note_on_c, 0, 64, 100
6, 18059, Note_on_c, 0, 64, 0
6, 18060, Note_on_c, 0, 69, 100
6, 18089, Note_on_c, 0, 69, 0
6, 18090, Note_on_c, 0, 72, 100
6, 18119, Note_on_c, 0, 72, 0
6, 18120, Note_on_c, 0, 69, 100
6, 18149, Note_on_c, 0, 69, 0
6, 18150, Note_on_c, 0, 64, 100
6, 18179, Note_on_c, 0, 64, 0
6, 18180, Note_on_c, 0, 69, 100
6, 18209, Note_on_c, 0, 69, 0
6, 18210, Note_on_c, 0, 72, 100
6, 18239, Note_on_c, 0, 72, 0
6, 18240, Note_on_c, 0, 69, 100
6, 18269, Note_on_c, 0, 69, 0
6, 18270, Note_on_c, 0, 64, 100
6, 18299, Note_on_c, 0, 64, 0
6, 18300, Note_on_c, 0, 69, 100
6, 18329, Note_on_c, 0, 69, 0
6, 18330, Note_on_c, 0, 72, 100
6, 18359, Note_on_c, 0, 72, 0
6, 18360, Note_on_c, 0, 69, 100
6, 18389, Note_on_c, 0, 69, 0
6, 18390, Note_on_c, 0, 64, 100
6, 18419, Note_on_c, 0, 64, 0
6, 18420, Note_on_c, 0, 69, 100
6, 18449, Note_on_c, 0, 69, 0
6, 18450, Note_on_c, 0, 72, 100
6, 18479, Note_on_c, 0, 72, 0
6, 18480, Note_on_c, 0, 69, 100
6, 18509, Note_on_c, 0, 69, 0
6, 18510, Note_on_c, 0, 64, 100
6, 18539, Note_on_c, 0, 64, 0
6, 18540, Note_on_c, 0, 69, 100
6, 18569, Note_on_c, 0, 69, 0
6, 18570, Note_on_c, 0, 72, 100
6, 18599, Note_on_c, 0, 72, 0
6, 18600, Note_on_c, 0, 69, 100
6, 18629, Note_on_c, 0, 69, 0
6, 18630, Note_on_c, 0, 64, 100
6, 18659, Note_on_c, 0, 64, 0
6, 18660, Note_on_c, 0, 69, 100
6, 18689, Note_on_c, 0, 69, 0
6, 18690, Note_on_c, 0, 72, 100
6, 18719, Note_on_c, 0, 72, 0
6, 18720, Note_on_c, 0, 67, 100
6, 18749, Note_on_c, 0, 67, 0
6, 18750, Note_on_c, 0, 62, 100
6, 18779, Note_on_c, 0, 62, 0
6, 18780, Note_on_c, 0, 67, 100
6, 18809, Note_on_c, 0, 67, 0
6, 18810, Note_on_c, 0, 71, 100
6, 18839, Note_on_c, 0, 71, 0
6, 18840, Note_on_c, 0, 67, 100
6, 18869, Note_on_c, 0, 67, 0
6, 18870, Note_on_c, 0, 62, 100
6, 18899, Note_on_c, 0, 62, 0
6, 18900, Note_on_c, 0, 67, 100
6, 18929, Note_on_c, 0, 67, 0
6, 18930, Note_on_c, 0, 71, 100
6, 18959, Note_on_c, 0, 71, 0
6, 18960, Note_on_c, 0, 65, 100
6, 18989, Note_on_c, 0, 65, 0
6, 18990, Note_on_c, 0, 60, 100
6, 19019, Note_on_c, 0, 60, 0
6, 19020, Note_on_c, 0, 65, 100
6, 19049, Note_on_c, 0, 65, 0
6, 19050, Note_on_c, 0, 69, 100
6, 19079, Note_on_c, 0, 69, 0
6, 19080, Note_on_c, 0, 65, 100
6, 19109, Note_on_c, 0, 65, 0
6, 19110, Note_on_c, 0, 60, 100
6, 19139, Note_on_c, 0, 60, 0
6, 19140, Note_on_c, 0, 65, 100
6, 19169, Note_on_c, 0, 65, 0
6, 19170, Note_on_c, 0, 69, 100
6, 19199, Note_on_c, 0, 69, 0
6, 19200, Note_on_c, 0, 69, 100
6, 19229, Note_on_c, 0, 69, 0
6, 19230, Note_on_c, 0, 64, 100
6, 19259, Note_on_c, 0, 64, 0
6, 19260, Note_on_c, 0, 69, 100
6, 19289, Note_on_c, 0, 69, 0
6, 19290, Note_on_c, 0, 72, 100
6, 19319, Note_on_c, 0, 72, 0
6, 19320, Note_on_c, 0, 69, 100
6, 19349, Note_on_c, 0, 69, 0
6, 19350, Note_on_c, 0, 64, 100
6, 19379, Note_on_c, 0, 64, 0
6, 19380, Note_on_c, 0, 69, 100
6, 19409, Note_on_c, 0, 69, 0
6, 19410, Note_on_c, 0, 72, 100
6, 19439, Note_on_c, 0, 72, 0
6, 19440, Note_on_c, 0, 69, 100
6, 19469, Note_on_c, 0, 69, 0
6, 19470, Note_on_c, 0, 64, 100
6, 19499, Note_on_c, 0, 64, 0
6, 19500, Note_on_c, 0, 69, 100
6, 19529, Note_on_c, 0, 69, 0
6, 19530, Note_on_c, 0, 72, 100
6, 19559, Note_on_c, 0, 72, 0
6, 19560, Note_on_c, 0, 69, 100
6, 19589, Note_on_c, 0, 69, 0
6, 19590, Note_on_c, 0, 64, 100
6, 19619, Note_on_c, 0, 64, 0
6, 19620, Note_on_c, 0, 69, 100
6, 19649, Note_on_c, 0, 69, 0
6, 19650, Note_on_c, 0, 72, 100
6, 19679, Note_on_c, 0, 72, 0
6, 19680, Note_on_c, 0, 69, 100
6, 19709, Note_on_c, 0, 69, 0
6, 19710, Note_on_c, 0, 64, 100
6, 19739, Note_on_c, 0, 64, 0
6, 19740, Note_on_c, 0, 69, 100
6, 19769, Note_on_c, 0, 69, 0
6, 19770, Note_on_c, 0, 72, 100
6, 19799, Note_on_c, 0, 72, 0
6, 19800, Note_on_c, 0, 69, 100
6, 19829, Note_on_c, 0, 69, 0
6, 19830, Note_on_c, 0, 64, 100
6, 19859, Note_on_c, 0, 64, 0
6, 19860, Note_on_c, 0, 69, 100
6, 19889, Note_on_c, 0, 69, 0
6, 19890, Note_on_c, 0, 72, 100
6, 19919, Note_on_c, 0, 72, 0
6, 19920, Note_on_c, 0, 69, 100
6, 19949, Note_on_c, 0, 69, 0
6, 19950, Note_on_c, 0, 64, 100
6, 19979, Note_on_c, 0, 64, 0
6, 19980, Note_on_c, 0, 69, 100
6, 20009, Note_on_c, 0, 69, 0
6, 20010, Note_on_c, 0, 72, 100
6, 20039, Note_on_c, 0, 72, 0
6, 20040, Note_on_c, 0, 69, 100
6, 20069, Note_on_c, 0, 69, 0
6, 20070, Note_on_c, 0, 64, 100
6, 20099, Note_on_c, 0, 64, 0
6, 20100, Note_on_c, 0, 69, 100
6, 20129, Note_on_c, 0, 69, 0
6, 20130, Note_on_c, 0, 72, 100
6, 20159, Note_on_c, 0, 72, 0
6, 20160, Note_on_c, 0, 69, 100
6, 20189, Note_on_c, 0, 69, 0
6, 20190, Note_on_c, 0, 64, 100
6, 20219, Note_on_c, 0, 64, 0
6, 20220, Note_on_c, 0, 69, 100
6, 20249, Note_on_c, 0, 69, 0
6, 20250, Note_on_c, 0, 72, 100
6, 20279, Note_on_c, 0, 72, 0
6, 20280, Note_on_c, 0, 69, 100
6, 20309, Note_on_c, 0, 69, 0
6, 20310, Note_on_c, 0, 64, 100
6, 20339, Note_on_c, 0, 64, 0
6, 20340, Note_on_c, 0, 69, 100
6, 20369, Note_on_c, 0, 69, 0
6, 20370, Note_on_c, 0, 72, 100
6, 20399, Note_on_c, 0, 72, 0
6, 20400, Note_on_c, 0, 69, 100
6, 20429, Note_on_c, 0, 69, 0
6, 20430, Note_on_c, 0, 64, 100
6, 20459, Note_on_c, 0, 64, 0
6, 20460, Note_on_c, 0, 69, 100
6, 20489, Note_on_c, 0, 69, 0
6, 20490, Note_on_c, 0, 72, 100
6, 20519, Note_on_c, 0, 72, 0
6, 20520, Note_on_c, 0, 69, 100
6, 20549, Note_on_c, 0, 69, 0
6, 20550, Note_on_c, 0, 64, 100
6, 20579, Note_on_c, 0, 64, 0
6, 20580, Note_on_c, 0, 69, 100
6, 20609, Note_on_c, 0, 69, 0
6, 20610, Note_on_c, 0, 72, 100
6, 20639, Note_on_c, 0, 72, 0
6, 20640, Note_on_c, 0, 67, 100
6, 20669, Note_on_c, 0, 67, 0
6, 20670, Note_on_c, 0, 62, 100
6, 20699, Note_on_c, 0, 62, 0
6, 20700, Note_on_c, 0, 67, 100
6, 20729, Note_on_c, 0, 67, 0
6, 20730, Note_on_c, 0, 71, 100
6, 20759, Note_on_c, 0, 71, 0
6, 20760, Note_on_c, 0, 67, 100
6, 20789, Note_on_c, 0, 67, 0
6, 20790, Note_on_c, 0, 62, 100
6, 20819, Note_on_c, 0, 62, 0
6, 20820, Note_on_c, 0, 67, 100
6, 20849, Note_on_c, 0, 67, 0
6, 20850, Note_on_c, 0, 71, 100
6, 20879, Note_on_c, 0, 71, 0
6, 20880, Note_on_c, 0, 65, 100
6, 20909, Note_on_c, 0, 65, 0
6, 20910, Note_on_c, 0, 60, 100
6, 20939, Note_on_c, 0, 60, 0
6, 20940, Note_on_c, 0, 65, 100
6, 20969, Note_on_c, 0, 65, 0
6, 20970, Note_on_c, 0, 69, 100
6, 20999, Note_on_c, 0, 69, 0
6, 21000, Note_on_c, 0, 65, 100
6, 21029, Note_on_c, 0, 65, 0
6, 21030, Note_on_c, 0, 60, 100
6, 21059, Note_on_c, 0, 60, 0
6, 21060, Note_on_c, 0, 65, 100
6, 21089, Note_on_c, 0, 65, 0
6, 21090, Note_on_c, 0, 69, 100
6, 21119, Note_on_c, 0, 69, 0
6, 21120, Note_on_c, 0, 69, 100
6, 21149, Note_on_c, 0, 69, 0
6, 21150, Note_on_c, 0, 64, 100
6, 21179, Note_on_c, 0, 64, 0
6, 21180, Note_on_c, 0, 69, 100
6, 21209, Note_on_c, 0, 69, 0
6, 21210, Note_on_c, 0, 72, 100
6, 21239, Note_on_c, 0, 72, 0
6, 21240, Note_on_c, 0, 69, 100
6, 21269, Note_on_c, 0, 69, 0
6, 21270, Note_on_c, 0, 64, 100
6, 21299, Note_on_c, 0, 64, 0
6, 21300, Note_on_c, 0, 69, 100
6, 21329, Note_on_c, 0, 69, 0
6, 21330, Note_on_c, 0, 72, 100
6, 21359, Note_on_c, 0, 72, 0
6, 21360, Note_on_c, 0, 69, 100
6, 21389, Note_on_c, 0, 69, 0
6, 21390, Note_on_c, 0, 64, 100
6, 21419, Note_on_c, 0, 64, 0
6, 21420, Note_on_c, 0, 69, 100
6, 21449, Note_on_c, 0, 69, 0
6, 21450, Note_on_c, 0, 72, 100
6, 21479, Note_on_c, 0, 72, 0
6, 21480, Note_on_c, 0, 69, 100
6, 21509, Note_on_c, 0, 69, 0
6, 21510, Note_on_c, 0, 64, 100
6, 21539, Note_on_c, 0, 64, 0
6, 21540, Note_on_c, 0, 69, 100
6, 21569, Note_on_c, 0, 69, 0
6, 21570, Note_on_c, 0, 72, 100
6, 21599, Note_on_c, 0, 72, 0
6, 21600, Note_on_c, 0, 69, 100
6, 21629, Note_on_c, 0, 69, 0
6, 21630, Note_on_c, 0, 64, 100
6, 21659, Note_on_c, 0, 64, 0
6, 21660, Note_on_c, 0, 69, 100
6, 21689, Note_on_c, 0, 69, 0
6, 21690, Note_on_c, 0, 72, 100
6, 21719, Note_on_c, 0, 72, 0
6, 21720, Note_on_c, 0, 69, 100
6, 21749, Note_on_c, 0, 69, 0
6, 21750, Note_on_c, 0, 64, 100
6, 21779, Note_on_c, 0, 64, 0
6, 21780, Note_on_c, 0, 69, 100
6, 21809, Note_on_c, 0, 69, 0
6, 21810, Note_on_c, 0, 72, 100
6, 21839, Note_on_c, 0, 72, 0
6, 21840, Note_on_c, 0, 69, 100
6, 21869, Note_on_c, 0, 69, 0
6, 21870, Note_on_c, 0, 64, 100
6, 21899, Note_on_c, 0, 64, 0
6, 21900, Note_on_c, 0, 69, 100
6, 21929, Note_on_c, 0, 69, 0
6, 21930, Note_on_c, 0, 72, 100
6, 21959, Note_on_c, 0, 72, 0
6, 21960, Note_on_c, 0, 69, 100
6, 21989, Note_on_c, 0, 69, 0
6, 21990, Note_on_c, 0, 64, 100
6, 22019, Note_on_c, 0, 64, 0
6, 22020, Note_on_c, 0, 69, 100
6, 22049, Note_on_c, 0, 69, 0
6, 22050, Note_on_c, 0, 72, 100
6, 22079, Note_on_c, 0, 72, 0
6, 22080, Note_on_c, 0, 72, 100
6, 22109, Note_on_c, 0, 72, 0
6, 22110, Note_on_c, 0, 67, 100
6, 22139, Note_on_c, 0, 67, 0
6, 22140, Note_on_c, 0, 72, 100
6, 22169, Note_on_c, 0, 72, 0
6, 22170, Note_on_c, 0, 76, 100
6, 22199, Note_on_c, 0, 76, 0
6, 22200, Note_on_c, 0, 72, 100
6, 22229, Note_on_c, 0, 72, 0
6, 22230, Note_on_c, 0, 67, 100
6, 22259, Note_on_c, 0, 67, 0
6, 22260, Note_on_c, 0, 72, 100
6, 22289, Note_on_c, 0, 72, 0
6, 22290, Note_on_c, 0, 76, 100
6, 22319, Note_on_c, 0, 76, 0
6, 22320, Note_on_c, 0, 72, 100
6, 22349, Note_on_c, 0, 72, 0
6, 22350, Note_on_c, 0, 67, 100
6, 22379, Note_on_c, 0, 67, 0
6, 22380, Note_on_c, 0, 72, 100
6, 22409, Note_on_c, 0, 72, 0
6, 22410, Note_on_c, 0, 76, 100
6, 22439, Note_on_c, 0, 76, 0
6, 22440, Note_on_c, 0, 72, 100
6, 22469, Note_on_c, 0, 72, 0
6, 22470, Note_on_c, 0, 67, 100
6, 22499, Note_on_c, 0, 67, 0
6, 22500, Note_on_c, 0, 72, 100
6, 22529, Note_on_c, 0, 72, 0
6, 22530, Note_on_c, 0, 76, 100
6, 22559, Note_on_c, 0, 76, 0
6, 22560, Note_on_c, 0, 65, 100
6, 22589, Note_on_c, 0, 65, 0
6, 22590, Note_on_c, 0, 60, 100
6, 22619, Note_on_c, 0, 60, 0
6, 22620, Note_on_c, 0, 65, 100
6, 22649, Note_on_c, 0, 65, 0
6, 22650, Note_on_c, 0, 69, 100
6, 22679, Note_on_c, 0, 69, 0
6, 22680, Note_on_c, 0, 65, 100
6, 22709, Note_on_c, 0, 65, 0
6, 22710, Note_on_c, 0, 60, 100
6, 22739, Note_on_c, 0, 60, 0
6, 22740, Note_on_c, 0, 65, 100
6, 22769, Note_on_c, 0, 65, 0
6, 22770, Note_on_c, 0, 69, 100
6, 22799, Note_on_c, 0, 69, 0
6, 22800, Note_on_c, 0, 65, 100
6, 22829, Note_on_c, 0, 65, 0
6, 22830, Note_on_c, 0, 60, 100
6, 22859, Note_on_c, 0, 60, 0
6, 22860, Note_on_c, 0, 65, 100
6, 22889, Note_on_c, 0, 65, 0
6, 22890, Note_on_c, 0, 69, 100
6, 22919, Note_on_c, 0, 69, 0
6, 22920, Note_on_c, 0, 65, 100
6, 22949, Note_on_c, 0, 65, 0
6, 22950, Note_on_c, 0, 60, 100
6, 22979, Note_on_c, 0, 60, 0
6, 22980, Note_on_c, 0, 65, 100
6, 23009, Note_on_c, 0, 65, 0
6, 23010, Note_on_c, 0, 69, 100
6, 23039, Note_on_c, 0, 69, 0
6, 23040, Note_on_c, 0, 62, 100
6, 23069, Note_on_c, 0, 62, 0
6, 23070, Note_on_c, 0, 57, 100
6, 23099, Note_on_c, 0, 57, 0
6, 23100, Note_on_c, 0, 62, 100
6, 23129, Note_on_c, 0, 62, 0
6, 23130, Note_on_c, 0, 65, 100
6, 23159, Note_on_c, 0, 65, 0
6, 23160, Note_on_c, 0, 62, 100
6, 23189, Note_on_c, 0, 62, 0
6, 23190, Note_on_c, 0, 57, 100
6, 23219, Note_on_c, 0, 57, 0
6, 23220, Note_on_c, 0, 62, 100
6, 23249, Note_on_c, 0, 62, 0
6, 23250, Note_on_c, 0, 65, 100
6, 23279, Note_on_c, 0, 65, 0
6, 23280, Note_on_c, 0, 64, 100
6, 23309, Note_on_c, 0, 64, 0
6, 23310, Note_on_c, 0, 59, 100
6, 23339, Note_on_c, 0, 59, 0
6, 23340, Note_on_c, 0, 64, 100
6, 23369, Note_on_c, 0, 64, 0
6, 23370, Note_on_c, 0, 68, 100
6, 23399, Note_on_c, 0, 68, 0
6, 23400, Note_on_c, 0, 64, 100
6, 23429, Note_on_c, 0, 64, 0
6, 23430, Note_on_c, 0, 59, 100
6, 23459, Note_on_c, 0, 59, 0
6, 23460, Note_on_c, 0, 64, 100
6, 23489, Note_on_c, 0, 64, 0
6, 23490, Note_on_c, 0, 68, 100
6, 23519, Note_on_c, 0, 68, 0
6, 23520, Note_on_c, 0, 69, 100
6, 23549, Note_on_c, 0, 69, 0
6, 23550, Note_on_c, 0, 64, 100
6, 23579, Note_on_c, 0, 64, 0
6, 23580, Note_on_c, 0, 69, 100
6, 23609, Note_on_c, 0, 69, 0
6, 23610, Note_on_c, 0, 72, 100
6, 23639, Note_on_c, 0, 72, 0
6, 23640, Note_on_c, 0, 69, 100
6, 23669, Note_on_c, 0, 69, 0
6, 23670, Note_on_c, 0, 64, 100
6, 23699, Note_on_c, 0, 64, 0
6, 23700, Note_on_c, 0, 69, 100
6, 23729, Note_on_c, 0, 69, 0
6, 23730, Note_on_c, 0, 72, 100
6, 23759, Note_on_c, 0, 72, 0
6, 23760, Note_on_c, 0, 69, 100
6, 23789, Note_on_c, 0, 69, 0
6, 23790, Note_on_c, 0, 64, 100
6, 23819, Note_on_c, 0, 64, 0
6, 23820, Note_on_c, 0, 69, 100
6, 23849, Note_on_c, 0, 69, 0
6, 23850, Note_on_c, 0, 72, 100
6, 23879, Note_on_c, 0, 72, 0
6, 23880, Note_on_c, 0, 69, 100
6, 23909, Note_on_c, 0, 69, 0
6, 23910, Note_on_c, 0, 64, 100
6, 23939, Note_on_c, 0, 64, 0
6, 23940, Note_on_c, 0, 69, 100
6, 23969, Note_on_c, 0, 69, 0
6, 23970, Note_on_c, 0, 72, 100
6, 23999, Note_on_c, 0, 72, 0
6, 24000, Note_on_c, 0, 72, 100
6, 24029, Note_on_c, 0, 72, 0
6, 24030, Note_on_c, 0, 67, 100
6, 24059, Note_on_c, 0, 67, 0
6, 24060, Note_on_c, 0, 72, 100
6, 24089, Note_on_c, 0, 72, 0
6, 24090, Note_on_c, 0, 76, 100
6, 24119, Note_on_c, 0, 76, 0
6, 24120, Note_on_c, 0, 72, 100
6, 24149, Note_on_c, 0, 72, 0
6, 24150, Note_on_c, 0, 67, 100
6, 24179, Note_on_c, 0, 67, 0
6, 24180, Note_on_c, 0, 72, 100
6, 24209, Note_on_c, 0, 72, 0
6, 24210, Note_on_c, 0, 76, 100
6, 24239, Note_on_c, 0, 76, 0
6, 24240, Note_on_c, 0, 72, 100
6, 24269, Note_on_c, 0, 72, 0
6, 24270, Note_on_c, 0, 67, 100
6, 24299, Note_on_c, 0, 67, 0
6, 24300, Note_on_c, 0, 72, 100
6, 24329, Note_on_c, 0, 72, 0
6, 24330, Note_on_c, 0, 76, 100
6, 24359, Note_on_c, 0, 76, 0
6, 24360, Note_on_c, 0, 72, 100
6, 24389, Note_on_c, 0, 72, 0
6, 24390, Note_on_c, 0, 67, 100
6, 24419, Note_on_c, 0, 67, 0
6, 24420, Note_on_c, 0, 72, 100
6, 24449, Note_on_c, 0, 72, 0
6, 24450, Note_on_c, 0, 76, 100
6, 24479, Note_on_c, 0, 76, 0
6, 24480, Note_on_c, 0, 65, 100
6, 24509, Note_on_c, 0, 65, 0
6, 24510, Note_on_c, 0, 60, 100
6, 24539, Note_on_c, 0, 60, 0
6, 24540, Note_on_c, 0, 65, 100
6, 24569, Note_on_c, 0, 65, 0
6, 24570, Note_on_c, 0, 69, 100
6, 24599, Note_on_c, 0, 69, 0
6, 24600, Note_on_c, 0, 65, 100
6, 24629, Note_on_c, 0, 65, 0
6, 24630, Note_on_c, 0, 60, 100
6, 24659, Note_on_c, 0, 60, 0
6, 24660, Note_on_c, 0, 65, 100
6, 24689, Note_on_c, 0, 65, 0
6, 24690, Note_on_c, 0, 69, 100
6, 24719, Note_on_c, 0, 69, 0
6, 24720, Note_on_c, 0, 65, 100
6, 24749, Note_on_c, 0, 65, 0
6, 24750, Note_on_c, 0, 60, 100
6, 24779, Note_on_c, 0, 60, 0
6, 24780, Note_on_c, 0, 65, 100
6, 24809, Note_on_c, 0, 65, 0
6, 24810, Note_on_c, 0, 69, 100
6, 24839, Note_on_c, 0, 69, 0
6, 24840, Note_on_c, 0, 65, 100
6, 24869, Note_on_c, 0, 65, 0
6, 24870, Note_on_c, 0, 60, 100
6, 24899, Note_on_c, 0, 60, 0
6, 24900, Note_on_c, 0, 65, 100
6, 24929, Note_on_c, 0, 65, 0
6, 24930, Note_on_c, 0, 69, 100
6, 24959, Note_on_c, 0, 69, 0
6, 24960, Note_on_c, 0, 62, 100
6, 24989, Note_on_c, 0, 62, 0
6, 24990, Note_on_c, 0, 57, 100
6, 25019, Note_on_c, 0, 57, 0
6, 25020, Note_on_c, 0, 62, 100
6, 25049, Note_on_c, 0, 62, 0
6, 25050, Note_on_c, 0, 65, 100
6, 25079, Note_on_c, 0, 65, 0
6, 25080, Note_on_c, 0, 62, 100
6, 25109, Note_on_c, 0, 62, 0
6, 25110, Note_on_c, 0, 57, 100
6, 25139, Note_on_c, 0, 57, 0
6, 25140, Note_on_c, 0, 62, 100
6, 25169, Note_on_c, 0, 62, 0
6, 25170, Note_on_c, 0, 65, 100
6, 25199, Note_on_c, 0, 65, 0
6, 25200, Note_on_c, 0, 64, 100
6, 25229, Note_on_c, 0, 64, 0
6, 25230, Note_on_c, 0, 59, 100
6, 25259, Note_on_c, 0, 59, 0
6, 25260, Note_on_c, 0, 64, 100
6, 25289, Note_on_c, 0, 64, 0
6, 25290, Note_on_c, 0, 68, 100
6, 25319, Note_on_c, 0, 68, 0
6, 25320, Note_on_c, 0, 64, 100
6, 25349, Note_on_c, 0, 64, 0
6, 25350, Note_on_c, 0, 59, 100
6, 25379, Note_on_c, 0, 59, 0
6, 25380, Note_on_c, 0, 64, 100
6, 25409, Note_on_c, 0, 64, 0
6, 25410, Note_on_c, 0, 68, 100
6, 25439, Note_on_c, 0, 68, 0
6, 25440, Note_on_c, 0, 64, 100
6, 25469, Note_on_c, 0, 64, 0
6, 25470, Note_on_c, 0, 64, 100
6, 25499, Note_on_c, 0, 64, 0
6, 25500, Note_on_c, 0, 69, 100
6, 25529, Note_on_c, 0, 69, 0
6, 25530, Note_on_c, 0, 72, 100
6, 25559, Note_on_c, 0, 72, 0
6, 25560, Note_on_c, 0, 64, 100
6, 25589, Note_on_c, 0, 64, 0
6, 25590, Note_on_c, 0, 64, 100
6, 25619, Note_on_c, 0, 64, 0
6, 25620, Note_on_c, 0, 69, 100
6, 25649, Note_on_c, 0, 69, 0
6, 25650, Note_on_c, 0, 72, 100
6, 25679, Note_on_c, 0, 72, 0
6, 25680, Note_on_c, 0, 64, 100
6, 25709, Note_on_c, 0, 64, 0
6, 25710, Note_on_c, 0, 64, 100
6, 25739, Note_on_c, 0, 64, 0
6, 25740, Note_on_c, 0, 69, 100
6, 25769, Note_on_c, 0, 69, 0
6, 25770, Note_on_c, 0, 72, 100
6, 25799, Note_on_c, 0, 72, 0
6, 25800, Note_on_c, 0, 64, 100
6, 25829, Note_on_c, 0, 64, 0
6, 25830, Note_on_c, 0, 64, 100
6, 25859, Note_on_c, 0, 64, 0
6, 25860, Note_on_c, 0, 69, 100
6, 25889, Note_on_c, 0, 69, 0
6, 25890, Note_on_c, 0, 72, 100
6, 25919, Note_on_c, 0, 72, 0
6, 25920, Note_on_c, 0, 69, 100
6, 25949, Note_on_c, 0, 69, 0
6, 25950, Note_on_c, 0, 64, 100
6, 25979, Note_on_c, 0, 64, 0
6, 25980, Note_on_c, 0, 69, 100
6, 26009, Note_on_c, 0, 69, 0
6, 26010, Note_on_c, 0, 72, 100
6, 26039, Note_on_c, 0, 72, 0
6, 26040, Note_on_c, 0, 69, 100
6, 26069, Note_on_c, 0, 69, 0
6, 26070, Note_on_c, 0, 64, 100
6, 26099, Note_on_c, 0, 64, 0
6, 26100, Note_on_c, 0, 69, 100
6, 26129, Note_on_c, 0, 69, 0
6, 26130, Note_on_c, 0, 72, 100
6, 26159, Note_on_c, 0, 72, 0
6, 26160, Note_on_c, 0, 69, 100
6, 26189, Note_on_c, 0, 69, 0
6, 26190, Note_on_c, 0, 64, 100
6, 26219, Note_on_c, 0, 64, 0
6, 26220, Note_on_c, 0, 69, 100
6, 26249, Note_on_c, 0, 69, 0
6, 26250, Note_on_c, 0, 72, 100
6, 26279, Note_on_c, 0, 72, 0
6, 26280, Note_on_c, 0, 69, 100
6, 26309, Note_on_c, 0, 69, 0
6, 26310, Note_on_c, 0, 64, 100
6, 26339, Note_on_c, 0, 64, 0
6, 26340, Note_on_c, 0, 69, 100
6, 26369, Note_on_c, 0, 69, 0
6, 26370, Note_on_c, 0, 72, 100
6, 26399, Note_on_c, 0, 72, 0
6, 26400, Note_on_c, 0, 72, 100
6, 26429, Note_on_c, 0, 72, 0
6, 26430, Note_on_c, 0, 67, 100
6, 26459, Note_on_c, 0, 67, 0
6, 26460, Note_on_c, 0, 72, 100
6, 26489, Note_on_c, 0, 72, 0
6, 26490, Note_on_c, 0, 76, 100
6, 26519, Note_on_c, 0, 76, 0
6, 26520, Note_on_c, 0, 72, 100
6, 26549, Note_on_c, 0, 72, 0
6, 26550, Note_on_c, 0, 67, 100
6, 26579, Note_on_c, 0, 67, 0
6, 26580, Note_on_c, 0, 72, 100
6, 26609, Note_on_c, 0, 72, 0
6, 26610, Note_on_c, 0, 76, 100
6, 26639, Note_on_c, 0, 76, 0
6, 26640, Note_on_c, 0, 72, 100
6, 26669, Note_on_c, 0, 72, 0
6, 26670, Note_on_c, 0, 67, 100
6, 26699, Note_on_c, 0, 67, 0
6, 26700, Note_on_c, 0, 72, 100
6, 26729, Note_on_c, 0, 72, 0
6, 26730, Note_on_c, 0, 76, 100
6, 26759, Note_on_c, 0, 76, 0
6, 26760, Note_on_c, 0, 72, 100
6, 26789, Note_on_c, 0, 72, 0
6, 26790, Note_on_c, 0, 67, 100
6, 26819, Note_on_c, 0, 67, 0
6, 26820, Note_on_c, 0, 72, 100
6, 26849, Note_on_c, 0, 72, 0
6, 26850, Note_on_c, 0, 76, 100
6, 26879, Note_on_c, 0, 76, 0
6, 26880, Note_on_c, 0, 65, 100
6, 26909, Note_on_c, 0, 65, 0
6, 26910, Note_on_c, 0, 60, 100
6, 26939, Note_on_c, 0, 60, 0
6, 26940, Note_on_c, 0, 65, 100
6, 26969, Note_on_c, 0, 65, 0
6, 26970, Note_on_c, 0, 69, 100
6, 26999, Note_on_c, 0, 69, 0
6, 27000, Note_on_c, 0, 65, 100
6, 27029, Note_on_c, 0, 65, 0
6, 27030, Note_on_c, 0, 60, 100
6, 27059, Note_on_c, 0, 60, 0
6, 27060, Note_on_c, 0, 65, 100
6, 27089, Note_on_c, 0, 65, 0
6, 27090, Note_on_c, 0, 69, 100
6, 27119, Note_on_c, 0, 69, 0
6, 27120, Note_on_c, 0, 65, 100
6, 27149, Note_on_c, 0, 65, 0
6, 27150, Note_on_c, 0, 60, 100
6, 27179, Note_on_c, 0, 60, 0
6, 27180, Note_on_c, 0, 65, 100
6, 27209, Note_on_c, 0, 65, 0
6, 27210, Note_on_c, 0, 69, 100
6, 27239, Note_on_c, 0, 69, 0
6, 27240, Note_on_c, 0, 65, 100
6, 27269, Note_on_c, 0, 65, 0
6, 27270, Note_on_c, 0, 60, 100
6, 27299, Note_on_c, 0, 60, 0
6, 27300, Note_on_c, 0, 65, 100
6, 27329, Note_on_c, 0, 65, 0
6, 27330, Note_on_c, 0, 69, 100
6, 27359, Note_on_c, 0, 69, 0
6, 27360, Note_on_c, 0, 62, 100
6, 27389, Note_on_c, 0, 62, 0
6, 27390, Note_on_c, 0, 57, 100
6, 27419, Note_on_c, 0, 57, 0
6, 27420, Note_on_c, 0, 62, 100
6, 27449, Note_on_c, 0, 62, 0
6, 27450, Note_on_c, 0, 65, 100
6, 27479, Note_on_c, 0, 65, 0
6, 27480, Note_on_c, 0, 62, 100
6, 27509, Note_on_c, 0, 62, 0
6, 27510, Note_on_c, 0, 57, 100
6, 27539, Note_on_c, 0, 57, 0
6, 27540, Note_on_c, 0, 62, 100
6, 27569, Note_on_c, 0, 62, 0
6, 27570, Note_on_c, 0, 65, 100
6, 27599, Note_on_c, 0, 65, 0
6, 27600, Note_on_c, 0, 64, 100
6, 27629, Note_on_c, 0, 64, 0
6, 27630, Note_on_c, 0, 59, 100
6, 27659, Note_on_c, 0, 59, 0
6, 27660, Note_on_c, 0, 64, 100
6, 27689, Note_on_c, 0, 64, 0
6, 27690, Note_on_c, 0, 68, 100
6, 27719, Note_on_c, 0, 68, 0
6, 27720, Note_on_c, 0, 64, 100
6, 27749, Note_on_c, 0, 64, 0
6, 27750, Note_on_c, 0, 59, 100
6, 27779, Note_on_c, 0, 59, 0
6, 27780, Note_on_c, 0, 64, 100
6, 27809, Note_on_c, 0, 64, 0
6, 27810, Note_on_c, 0, 68, 100
6, 27839, Note_on_c, 0, 68, 0
6, 27840, Note_on_c, 0, 69, 100
6, 27869, Note_on_c, 0, 69, 0
6, 27870, Note_on_c, 0, 64, 100
6, 27899, Note_on_c, 0, 64, 0
6, 27900, Note_on_c, 0, 69, 100
6, 27929, Note_on_c, 0, 69, 0
6, 27930, Note_on_c, 0, 72, 100
6, 27959, Note_on_c, 0, 72, 0
6, 27960, Note_on_c, 0, 69, 100
6, 27989, Note_on_c, 0, 69, 0
6, 27990, Note_on_c, 0, 64, 100
6, 28019, Note_on_c, 0, 64, 0
6, 28020, Note_on_c, 0, 69, 100
6, 28049, Note_on_c, 0, 69, 0
6, 28050, Note_on_c, 0, 72, 100
6, 28079, Note_on_c, 0, 72, 0
6, 28080, Note_on_c, 0, 69, 100
6, 28109, Note_on_c, 0, 69, 0
6, 28110, Note_on_c, 0, 64, 100
6, 28139, Note_on_c, 0, 64, 0
6, 28140, Note_on_c, 0, 69, 100
6, 28169, Note_on_c, 0, 69, 0
6, 28170, Note_on_c, 0, 72, 100
6, 28199, Note_on_c, 0, 72, 0
6, 28200, Note_on_c, 0, 69, 100
6, 28229, Note_on_c, 0, 69, 0
6, 28230, Note_on_c, 0, 64, 100
6, 28259, Note_on_c, 0, 64, 0
6, 28260, Note_on_c, 0, 69, 100
6, 28289, Note_on_c, 0, 69, 0
6, 28290, Note_on_c, 0, 72, 100
6, 28319, Note_on_c, 0, 72, 0
6, 28320, Note_on_c, 0, 72, 100
6, 28349, Note_on_c, 0, 72, 0
6, 28350, Note_on_c, 0, 67, 100
6, 28379, Note_on_c, 0, 67, 0
6, 28380, Note_on_c, 0, 72, 100
6, 28409, Note_on_c, 0, 72, 0
6, 28410, Note_on_c, 0, 76, 100
6, 28439, Note_on_c, 0, 76, 0
6, 28440, Note_on_c, 0, 72, 100
6, 28469, Note_on_c, 0, 72, 0
6, 28470, Note_on_c, 0, 67, 100
6, 28499, Note_on_c, 0, 67, 0
6, 28500, Note_on_c, 0, 72, 100
6, 28529, Note_on_c, 0, 72, 0
6, 28530, Note_on_c, 0, 76, 100
6, 28559, Note_on_c, 0, 76, 0
6, 28560, Note_on_c, 0, 72, 100
6, 28589, Note_on_c, 0, 72, 0
6, 28590, Note_on_c, 0, 67, 100
6, 28619, Note_on_c, 0, 67, 0
6, 28620, Note_on_c, 0, 72, 100
6, 28649, Note_on_c, 0, 72, 0
6, 28650, Note_on_c, 0, 76, 100
6, 28679, Note_on_c, 0, 76, 0
6, 28680, Note_on_c, 0, 72, 100
6, 28709, Note_on_c, 0, 72, 0
6, 28710, Note_on_c, 0, 67, 100
6, 28739, Note_on_c, 0, 67, 0
6, 28740, Note_on_c, 0, 72, 100
6, 28769, Note_on_c, 0, 72, 0
6, 28770, Note_on_c, 0, 76, 100
6, 28799, Note_on_c, 0, 76, 0
6, 28800, Note_on_c, 0, 65, 100
6, 28829, Note_on_c, 0, 65, 0
6, 28830, Note_on_c, 0, 60, 100
6, 28859, Note_on_c, 0, 60, 0
6, 28860, Note_on_c, 0, 65, 100
6, 28889, Note_on_c, 0, 65, 0
6, 28890, Note_on_c, 0, 69, 100
6, 28919, Note_on_c, 0, 69, 0
6, 28920, Note_on_c, 0, 65, 100
6, 28949, Note_on_c, 0, 65, 0
6, 28950, Note_on_c, 0, 60, 100
6, 28979, Note_on_c, 0, 60, 0
6, 28980, Note_on_c, 0, 65, 100
6, 29009, Note_on_c, 0, 65, 0
6, 29010, Note_on_c, 0, 69, 100
6, 29039, Note_on_c, 0, 69, 0
6, 29040, Note_on_c, 0, 65, 100
6, 29069, Note_on_c, 0, 65, 0
6, 29070, Note_on_c, 0, 60, 100
6, 29099, Note_on_c, 0, 60, 0
6, 29100, Note_on_c, 0, 65, 100
6, 29129, Note_on_c, 0, 65, 0
6, 29130, Note_on_c, 0, 69, 100
6, 29159, Note_on_c, 0, 69, 0
6, 29160, Note_on_c, 0, 65, 100
6, 29189, Note_on_c, 0, 65, 0
6, 29190, Note_on_c, 0, 60, 100
6, 29219, Note_on_c, 0, 60, 0
6, 29220, Note_on_c, 0, 65, 100
6, 29249, Note_on_c, 0, 65, 0
6, 29250, Note_on_c, 0, 69, 100
6, 29279, Note_on_c, 0, 69, 0
6, 29280, Note_on_c, 0, 62, 100
6, 29309, Note_on_c, 0, 62, 0
6, 29310, Note_on_c, 0, 57, 100
6, 29339, Note_on_c, 0, 57, 0
6, 29340, Note_on_c, 0, 62, 100
6, 29369, Note_on_c, 0, 62, 0
6, 29370, Note_on_c, 0, 65, 100
6, 29399, Note_on_c, 0, 65, 0
6, 29400, Note_on_c, 0, 62, 100
6, 29429, Note_on_c, 0, 62, 0
6, 29430, Note_on_c, 0, 57, 100
6, 29459, Note_on_c, 0, 57, 0
6, 29460, Note_on_c, 0, 62, 100
6, 29489, Note_on_c, 0, 62, 0
6, 29490, Note_on_c, 0, 65, 100
6, 29519, Note_on_c, 0, 65, 0
6, 29520, Note_on_c, 0, 64, 100
6, 29549, Note_on_c, 0, 64, 0
6, 29550, Note_on_c, 0, 59, 100
6, 29579, Note_on_c, 0, 59, 0
6, 29580, Note_on_c, 0, 64, 100
6, 29609, Note_on_c, 0, 64, 0
6, 29610, Note_on_c, 0, 68, 100
6, 29639, Note_on_c, 0, 68, 0
6, 29640, Note_on_c, 0, 64, 100
6, 29669, Note_on_c, 0, 64, 0
6, 29670, Note_on_c, 0, 59, 100
6, 29699, Note_on_c, 0, 59, 0
6, 29700, Note_on_c, 0, 64, 100
6, 29729, Note_on_c, 0, 64, 0
6, 29730, Note_on_c, 0, 68, 100
6, 29759, Note_on_c, 0, 68, 0
6, 29760, Note_on_c, 0, 69, 100
6, 29789, Note_on_c, 0, 69, 0
6, 29790, Note_on_c, 0, 64, 100
6, 29819, Note_on_c, 0, 64, 0
6, 29820, Note_on_c, 0, 69, 100
6, 29849, Note_on_c, 0, 69, 0
6, 29850, Note_on_c, 0, 72, 100
6, 29879, Note_on_c, 0, 72, 0
6, 29880, Note_on_c, 0, 69, 100
6, 29909, Note_on_c, 0, 69, 0
6, 29910, Note_on_c, 0, 64, 100
6, 29939, Note_on_c, 0, 64, 0
6, 29940, Note_on_c, 0, 69, 100
6, 29969, Note_on_c, 0, 69, 0
6, 29970, Note_on_c, 0, 72, 100
6, 29999, Note_on_c, 0, 72, 0
6, 30000, Note_on_c, 0, 69, 100
6, 30029, Note_on_c, 0, 69, 0
6, 30030, Note_on_c, 0, 64, 100
6, 30059, Note_on_c, 0, 64, 0
6, 30060, Note_on_c, 0, 69, 100
6, 30089, Note_on_c, 0, 69, 0
6, 30090, Note_on_c, 0, 72, 100
6, 30119, Note_on_c, 0, 72, 0
6, 30120, Note_on_c, 0, 69, 100
6, 30149, Note_on_c, 0, 69, 0
6, 30150, Note_on_c, 0, 64, 100
6, 30179, Note_on_c, 0, 64, 0
6, 30180, Note_on_c, 0, 69, 100
6, 30209, Note_on_c, 0, 69, 0
6, 30210, Note_on_c, 0, 72, 100
6, 30239, Note_on_c, 0, 72, 0
6, 30240, Note_on_c, 0, 72, 100
6, 30269, Note_on_c, 0, 72, 0
6, 30270, Note_on_c, 0, 67, 100
6, 30299, Note_on_c, 0, 67, 0
6, 30300, Note_on_c, 0, 72, 100
6, 30329, Note_on_c, 0, 72, 0
6, 30330, Note_on_c, 0, 76, 100
6, 30359, Note_on_c, 0, 76, 0
6, 30360, Note_on_c, 0, 72, 100
6, 30389, Note_on_c, 0, 72, 0
6, 30390, Note_on_c, 0, 67, 100
6, 30419, Note_on_c, 0, 67, 0
6, 30420, Note_on_c, 0, 72, 100
6, 30449, Note_on_c, 0, 72, 0
6, 30450, Note_on_c, 0, 76, 100
6, 30479, Note_on_c, 0, 76, 0
6, 30480, Note_on_c, 0, 72, 100
6, 30509, Note_on_c, 0, 72, 0
6, 30510, Note_on_c, 0, 67, 100
6, 30539, Note_on_c, 0, 67, 0
6, 30540, Note_on_c, 0, 72, 100
6, 30569, Note_on_c, 0, 72, 0
6, 30570, Note_on_c, 0, 76, 100
6, 30599, Note_on_c, 0, 76, 0
6, 30600, Note_on_c, 0, 72, 100
6, 30629, Note_on_c, 0, 72, 0
6, 30630, Note_on_c, 0, 67, 100
6, 30659, Note_on_c, 0, 67, 0
6, 30660, Note_on_c, 0, 72, 100
6, 30689, Note_on_c, 0, 72, 0
6, 30690, Note_on_c, 0, 76, 100
6, 30719, Note_on_c, 0, 76, 0
6, 30720, Note_on_c, 0, 65, 100
6, 30749, Note_on_c, 0, 65, 0
6, 30750, Note_on_c, 0, 60, 100
6, 30779, Note_on_c, 0, 60, 0
6, 30780, Note_on_c, 0, 65, 100
6, 30809, Note_on_c, 0, 65, 0
6, 30810, Note_on_c, 0, 69, 100
6, 30839, Note_on_c, 0, 69, 0
6, 30840, Note_on_c, 0, 65, 100
6, 30869, Note_on_c, 0, 65, 0
6, 30870, Note_on_c, 0, 60, 100
6, 30899, Note_on_c, 0, 60, 0
6, 30900, Note_on_c, 0, 65, 100
6, 30929, Note_on_c, 0, 65, 0
6, 30930, Note_on_c, 0, 69, 100
6, 30959, Note_on_c, 0, 69, 0
6, 30960, Note_on_c, 0, 65, 100
6, 30989, Note_on_c, 0, 65, 0
6, 30990, Note_on_c, 0, 60, 100
6, 31019, Note_on_c, 0, 60, 0
6, 31020, Note_on_c, 0, 65, 100
6, 31049, Note_on_c, 0, 65, 0
6, 31050, Note_on_c, 0, 69, 100
6, 31079, Note_on_c, 0, 69, 0
6, 31080, Note_on_c, 0, 65, 100
6, 31109, Note_on_c, 0, 65, 0
6, 31110, Note_on_c, 0, 60, 100
6, 31139, Note_on_c, 0, 60, 0
6, 31140, Note_on_c, 0, 65, 100
6, 31169, Note_on_c, 0, 65, 0
6, 31170, Note_on_c, 0, 69, 100
6, 31199, Note_on_c, 0, 69, 0
6, 31200, Note_on_c, 0, 69, 100
6, 31229, Note_on_c, 0, 69, 0
6, 31230, Note_on_c, 0, 64, 100
6, 31259, Note_on_c, 0, 64, 0
6, 31260, Note_on_c, 0, 69, 100
6, 31289, Note_on_c, 0, 69, 0
6, 31290, Note_on_c, 0, 72, 100
6, 31319, Note_on_c, 0, 72, 0
6, 31320, Note_on_c, 0, 69, 100
6, 31349, Note_on_c, 0, 69, 0
6, 31350, Note_on_c, 0, 64, 100
6, 31379, Note_on_c, 0, 64, 0
6, 31380, Note_on_c, 0, 69, 100
6, 31409, Note_on_c, 0, 69, 0
6, 31410, Note_on_c, 0, 72, 100
6, 31439, Note_on_c, 0, 72, 0
6, 31440, Note_on_c, 0, 69, 100
6, 31469, Note_on_c, 0, 69, 0
6, 31470, Note_on_c, 0, 64, 100
6, 31499, Note_on_c, 0, 64, 0
6, 31500, Note_on_c, 0, 69, 100
6, 31529, Note_on_c, 0, 69, 0
6, 31530, Note_on_c, 0, 72, 100
6, 31559, Note_on_c, 0, 72, 0
6, 31560, Note_on_c, 0, 69, 100
6, 31589, Note_on_c, 0, 69, 0
6, 31590, Note_on_c, 0, 64, 100
6, 31619, Note_on_c, 0, 64, 0
6, 31620, Note_on_c, 0, 69, 100
6, 31649, Note_on_c, 0, 69, 0
6, 31650, Note_on_c, 0, 72, 100
6, 31679, Note_on_c, 0, 72, 0
6, 31680, Note_on_c, 0, 69, 100
6, 31709, Note_on_c, 0, 69, 0
6, 31710, Note_on_c, 0, 64, 100
6, 31739, Note_on_c, 0, 64, 0
6, 31740, Note_on_c, 0, 69, 100
6, 31769, Note_on_c, 0, 69, 0
6, 31770, Note_on_c, 0, 72, 100
6, 31799, Note_on_c, 0, 72, 0
6, 31800, Note_on_c, 0, 69, 100
6, 31829, Note_on_c, 0, 69, 0
6, 31830, Note_on_c, 0, 64, 100
6, 31859, Note_on_c, 0, 64, 0
6, 31860, Note_on_c, 0, 69, 100
6, 31889, Note_on_c, 0, 69, 0
6, 31890, Note_on_c, 0, 72, 100
6, 31919, Note_on_c, 0, 72, 0
6, 31920, Note_on_c, 0, 69, 100
6, 31949, Note_on_c, 0, 69, 0
6, 31950, Note_on_c, 0, 64, 100
6, 31979, Note_on_c, 0, 64, 0
6, 31980, Note_on_c, 0, 69, 100
6, 32009, Note_on_c, 0, 69, 0
6, 32010, Note_on_c, 0, 72, 100
6, 32039, Note_on_c, 0, 72, 0
6, 32040, Note_on_c, 0, 69, 100
6, 32069, Note_on_c, 0, 69, 0
6, 32070, Note_on_c, 0, 64, 100
6, 32099, Note_on_c, 0, 64, 0
6, 32100, Note_on_c, 0, 69, 100
6, 32129, Note_on_c, 0, 69, 0
6, 32130, Note_on_c, 0, 72, 100
6, 32159, Note_on_c, 0, 72, 0
6, 32160, Note_on_c, 0, 69, 100
6, 32189, Note_on_c, 0, 69, 0
6, 32190, Note_on_c, 0, 64, 100
6, 32219, Note_on_c, 0, 64, 0
6, 32220, Note_on_c, 0, 69, 100
6, 32249, Note_on_c, 0, 69, 0
6, 32250, Note_on_c, 0, 72, 100
6, 32279, Note_on_c, 0, 72, 0
6, 32280, Note_on_c, 0, 69, 100
6, 32309, Note_on_c, 0, 69, 0
6, 32310, Note_on_c, 0, 64, 100
6, 32339, Note_on_c, 0, 64, 0
6, 32340, Note_on_c, 0, 69, 100
6, 32369, Note_on_c, 0, 69, 0
6, 32370, Note_on_c, 0, 72, 100
6, 32399, Note_on_c, 0, 72, 0
6, 32400, Note_on_c, 0, 69, 100
6, 32429, Note_on_c, 0, 69, 0
6, 32430, Note_on_c, 0, 64, 100
6, 32459, Note_on_c, 0, 64, 0
6, 32460, Note_on_c, 0, 69, 100
6, 32489, Note_on_c, 0, 69, 0
6, 32490, Note_on_c, 0, 72, 100
6, 32519, Note_on_c, 0, 72, 0
6, 32520, Note_on_c, 0, 69, 100
6, 32549, Note_on_c, 0, 69, 0
6, 32550, Note_on_c, 0, 64, 100
6, 32579, Note_on_c, 0, 64, 0
6, 32580, Note_on_c, 0, 69, 100
6, 32609, Note_on_c, 0, 69, 0
6, 32610, Note_on_c, 0, 72, 100
6, 32639, Note_on_c, 0, 72, 0
6, 32640, Note_on_c, 0, 67, 100
6, 32669, Note_on_c, 0, 67, 0
6, 32670, Note_on_c, 0, 62, 100
6, 32699, Note_on_c, 0, 62, 0
6, 32700, Note_on_c, 0, 67, 100
6, 32729, Note_on_c, 0, 67, 0
6, 32730, Note_on_c, 0, 71, 100
6, 32759, Note_on_c, 0, 71, 0
6, 32760, Note_on_c, 0, 67, 100
6, 32789, Note_on_c, 0, 67, 0
6, 32790, Note_on_c, 0, 62, 100
6, 32819, Note_on_c, 0, 62, 0
6, 32820, Note_on_c, 0, 67, 100
6, 32849, Note_on_c, 0, 67, 0
6, 32850, Note_on_c, 0, 71, 100
6, 32879, Note_on_c, 0, 71, 0
6, 32880, Note_on_c, 0, 65, 100
6, 32909, Note_on_c, 0, 65, 0
6, 32910, Note_on_c, 0, 60, 100
6, 32939, Note_on_c, 0, 60, 0
6, 32940, Note_on_c, 0, 65, 100
6, 32969, Note_on_c, 0, 65, 0
6, 32970, Note_on_c, 0, 69, 100
6, 32999, Note_on_c, 0, 69, 0
6, 33000, Note_on_c, 0, 65, 100
6, 33029, Note_on_c, 0, 65, 0
6, 33030, Note_on_c, 0, 60, 100
6, 33059, Note_on_c, 0, 60, 0
6, 33060, Note_on_c, 0, 65, 100
6, 33089, Note_on_c, 0, 65, 0
6, 33090, Note_on_c, 0, 69, 100
6, 33119, Note_on_c, 0, 69, 0
6, 33120, Note_on_c, 0, 69, 100
6, 33149, Note_on_c, 0, 69, 0
6, 33150, Note_on_c, 0, 64, 100
6, 33179, Note_on_c, 0, 64, 0
6, 33180, Note_on_c, 0, 69, 100
6, 33209, Note_on_c, 0, 69, 0
6, 33210, Note_on_c, 0, 72, 100
6, 33239, Note_on_c, 0, 72, 0
6, 33240, Note_on_c, 0, 69, 100
6, 33269, Note_on_c, 0, 69, 0
6, 33270, Note_on_c, 0, 64, 100
6, 33299, Note_on_c, 0, 64, 0
6, 33300, Note_on_c, 0, 69, 100
6, 33329, Note_on_c, 0, 69, 0
6, 33330, Note_on_c, 0, 72, 100
6, 33359, Note_on_c, 0, 72, 0
6, 33360, Note_on_c, 0, 69, 100
6, 33389, Note_on_c, 0, 69, 0
6, 33390, Note_on_c, 0, 64, 100
6, 33419, Note_on_c, 0, 64, 0
6, 33420, Note_on_c, 0, 69, 100
6, 33449, Note_on_c, 0, 69, 0
6, 33450, Note_on_c, 0, 72, 100
6, 33479, Note_on_c, 0, 72, 0
6, 33480, Note_on_c, 0, 69, 100
6, 33509, Note_on_c, 0, 69, 0
6, 33510, Note_on_c, 0, 64, 100
6, 33539, Note_on_c, 0, 64, 0
6, 33540, Note_on_c, 0, 69, 100
6, 33569, Note_on_c, 0, 69, 0
6, 33570, Note_on_c, 0, 72, 100
6, 33599, Note_on_c, 0, 72, 0
6, 33600, Note_on_c, 0, 69, 100
6, 33629, Note_on_c, 0, 69, 0
6, 33630, Note_on_c, 0, 64, 100
6, 33659, Note_on_c, 0, 64, 0
6, 33660, Note_on_c, 0, 69, 100
6, 33689, Note_on_c, 0, 69, 0
6, 33690, Note_on_c, 0, 72, 100
6, 33719, Note_on_c, 0, 72, 0
6, 33720, Note_on_c, 0, 69, 100
6, 33749, Note_on_c, 0, 69, 0
6, 33750, Note_on_c, 0, 64, 100
6, 33779, Note_on_c, 0, 64, 0
6, 33780, Note_on_c, 0, 69, 100
6, 33809, Note_on_c, 0, 69, 0
6, 33810, Note_on_c, 0, 72, 100
6, 33839, Note_on_c, 0, 72, 0
6, 33840, Note_on_c, 0, 69, 100
6, 33869, Note_on_c, 0, 69, 0
6, 33870, Note_on_c, 0, 64, 100
6, 33899, Note_on_c, 0, 64, 0
6, 33900, Note_on_c, 0, 69, 100
6, 33929, Note_on_c, 0, 69, 0
6, 33930, Note_on_c, 0, 72, 100
6, 33959, Note_on_c, 0, 72, 0
6, 33960, Note_on_c, 0, 69, 100
6, 33989, Note_on_c, 0, 69, 0
6, 33990, Note_on_c, 0, 64, 100
6, 34019, Note_on_c, 0, 64, 0
6, 34020, Note_on_c, 0, 69, 100
6, 34049, Note_on_c, 0, 69, 0
6, 34050, Note_on_c, 0, 72, 100
6, 34079, Note_on_c, 0, 72, 0
6, 34080, Note_on_c, 0, 69, 100
6, 34109, Note_on_c, 0, 69, 0
6, 34110, Note_on_c, 0, 64, 100
6, 34139, Note_on_c, 0, 64, 0
6, 34140, Note_on_c, 0, 69, 100
6, 34169, Note_on_c, 0, 69, 0
6, 34170, Note_on_c, 0, 72, 100
6, 34199, Note_on_c, 0, 72, 0
6, 34200, Note_on_c, 0, 69, 100
6, 34229, Note_on_c, 0, 69, 0
6, 34230, Note_on_c, 0, 64, 100
6, 34259, Note_on_c, 0, 64, 0
6, 34260, Note_on_c, 0, 69, 100
6, 34289, Note_on_c, 0, 69, 0
6, 34290, Note_on_c, 0, 72, 100
6, 34319, Note_on_c, 0, 72, 0
6, 34320, Note_on_c, 0, 69, 100
6, 34349, Note_on_c, 0, 69, 0
6, 34350, Note_on_c, 0, 64, 100
6, 34379, Note_on_c, 0, 64, 0
6, 34380, Note_on_c, 0, 69, 100
6, 34409, Note_on_c, 0, 69, 0
6, 34410, Note_on_c, 0, 72, 100
6, 34439, Note_on_c, 0, 72, 0
6, 34440, Note_on_c, 0, 69, 100
6, 34469, Note_on_c, 0, 69, 0
6, 34470, Note_on_c, 0, 64, 100
6, 34499, Note_on_c, 0, 64, 0
6, 34500, Note_on_c, 0, 69, 100
6, 34529, Note_on_c, 0, 69, 0
6, 34530, Note_on_c, 0, 72, 100
6, 34559, Note_on_c, 0, 72, 0
6, 34560, Note_on_c, 0, 69, 100
6, 34589, Note_on_c, 0, 69, 0
6, 34590, Note_on_c, 0, 64, 100
6, 34619, Note_on_c, 0, 64, 0
6, 34620, Note_on_c, 0, 69, 100
6, 34649, Note_on_c, 0, 69, 0
6, 34650, Note_on_c, 0, 72, 100
6, 34679, Note_on_c, 0, 72, 0
6, 34680, Note_on_c, 0, 69, 100
6, 34709, Note_on_c, 0, 69, 0
6, 34710, Note_on_c, 0, 64, 100
6, 34739, Note_on_c, 0, 64, 0
6, 34740, Note_on_c, 0, 69, 100
6, 34769, Note_on_c, 0, 69, 0
6, 34770, Note_on_c, 0, 72, 100
6, 34799, Note_on_c, 0, 72, 0
6, 34800, Note_on_c, 0, 69, 100
6, 34829, Note_on_c, 0, 69, 0
6, 34830, Note_on_c, 0, 64, 100
6, 34859, Note_on_c, 0, 64, 0
6, 34860, Note_on_c, 0, 69, 100
6, 34889, Note_on_c, 0, 69, 0
6, 34890, Note_on_c, 0, 72, 100
6, 34919, Note_on_c, 0, 72, 0
6, 34920, Note_on_c, 0, 69, 100
6, 34949, Note_on_c, 0, 69, 0
6, 34950, Note_on_c, 0, 64, 100
6, 34979, Note_on_c, 0, 64, 0
6, 34980, Note_on_c, 0, 69, 100
6, 35009, Note_on_c, 0, 69, 0
6, 35010, Note_on_c, 0, 72, 100
6, 35039, Note_on_c, 0, 72, 0
6, 35040, Note_on_c, 0, 69, 100
6, 35069, Note_on_c, 0, 69, 0
6, 35070, Note_on_c, 0, 64, 100
6, 35099, Note_on_c, 0, 64, 0
6, 35100, Note_on_c, 0, 69, 100
6, 35129, Note_on_c, 0, 69, 0
6, 35130, Note_on_c, 0, 72, 100
6, 35159, Note_on_c, 0, 72, 0
6, 35160, Note_on_c, 0, 69, 100
6, 35189, Note_on_c, 0, 69, 0
6, 35190, Note_on_c, 0, 64, 100
6, 35219, Note_on_c, 0, 64, 0
6, 35220, Note_on_c, 0, 69, 100
6, 35249, Note_on_c, 0, 69, 0
6, 35250, Note_on_c, 0, 72, 100
6, 35279, Note_on_c, 0, 72, 0
6, 35280, Note_on_c, 0, 69, 100
6, 35309, Note_on_c, 0, 69, 0
6, 35310, Note_on_c, 0, 64, 100
6, 35339, Note_on_c, 0, 64, 0
6, 35340, Note_on_c, 0, 69, 100
6, 35369, Note_on_c, 0, 69, 0
6, 35370, Note_on_c, 0, 72, 100
6, 35399, Note_on_c, 0, 72, 0
6, 35400, Note_on_c, 0, 69, 100
6, 35429, Note_on_c, 0, 69, 0
6, 35430, Note_on_c, 0, 64, 100
6, 35459, Note_on_c, 0, 64, 0
6, 35460, Note_on_c, 0, 69, 100
6, 35489, Note_on_c, 0, 69, 0
6, 35490, Note_on_c, 0, 72, 100
6, 35519, Note_on_c, 0, 72, 0
6, 35520, Note_on_c, 0, 69, 100
6, 35549, Note_on_c, 0, 69, 0
6, 35550, Note_on_c, 0, 64, 100
6, 35579, Note_on_c, 0, 64, 0
6, 35580, Note_on_c, 0, 69, 100
6, 35609, Note_on_c, 0, 69, 0
6, 35610, Note_on_c, 0, 72, 100
6, 35639, Note_on_c, 0, 72, 0
6, 35640, Note_on_c, 0, 69, 100
6, 35669, Note_on_c, 0, 69, 0
6, 35670, Note_on_c, 0, 64, 100
6, 35699, Note_on_c, 0, 64, 0
6, 35700, Note_on_c, 0, 69, 100
6, 35729, Note_on_c, 0, 69, 0
6, 35730, Note_on_c, 0, 72, 100
6, 35759, Note_on_c, 0, 72, 0
6, 35760, Note_on_c, 0, 69, 100
6, 35789, Note_on_c, 0, 69, 0
6, 35790, Note_on_c, 0, 64, 100
6, 35819, Note_on_c, 0, 64, 0
6, 35820, Note_on_c, 0, 69, 100
6, 35849, Note_on_c, 0, 69, 0
6, 35850, Note_on_c, 0, 72, 100
6, 35879, Note_on_c, 0, 72, 0
6, 35880, Note_on_c, 0, 69, 100
6, 35909, Note_on_c, 0, 69, 0
6, 35910, Note_on_c, 0, 64, 100
6, 35939, Note_on_c, 0, 64, 0
6, 35940, Note_on_c, 0, 69, 100
6, 35969, Note_on_c, 0, 69, 0
6, 35970, Note_on_c, 0, 72, 100
6, 35999, Note_on_c, 0, 72, 0
6, 36000, Note_on_c, 0, 69, 100
6, 36029, Note_on_c, 0, 69, 0
6, 36030, Note_on_c, 0, 64, 100
6, 36059, Note_on_c, 0, 64, 0
6, 36060, Note_on_c, 0, 69, 100
6, 36089, Note_on_c, 0, 69, 0
6, 36090, Note_on_c, 0, 72, 100
6, 36119, Note_on_c, 0, 72, 0
6, 36120, Note_on_c, 0, 69, 100
6, 36149, Note_on_c, 0, 69, 0
6, 36150, Note_on_c, 0, 64, 100
6, 36179, Note_on_c, 0, 64, 0
6, 36180, Note_on_c, 0, 69, 100
6, 36209, Note_on_c, 0, 69, 0
6, 36210, Note_on_c, 0, 72, 100
6, 36239, Note_on_c, 0, 72, 0
6, 36240, Note_on_c, 0, 69, 100
6, 36269, Note_on_c, 0, 69, 0
6, 36270, Note_on_c, 0, 64, 100
6, 36299, Note_on_c, 0, 64, 0
6, 36300, Note_on_c, 0, 69, 100
6, 36329, Note_on_c, 0, 69, 0
6, 36330, Note_on_c, 0, 72, 100
6, 36359, Note_on_c, 0, 72, 0
6, 36360, Note_on_c, 0, 69, 100
6, 36389, Note_on_c, 0, 69, 0
6, 36390, Note_on_c, 0, 64, 100
6, 36419, Note_on_c, 0, 64, 0
6, 36420, Note_on_c, 0, 69, 100
6, 36449, Note_on_c, 0, 69, 0
6, 36450, Note_on_c, 0, 72, 100
6, 36479, Note_on_c, 0, 72, 0
6, 36480, Note_on_c, 0, 69, 100
6, 36509, Note_on_c, 0, 69, 0
6, 36510, Note_on_c, 0, 64, 100
6, 36539, Note_on_c, 0, 64, 0
6, 36540, Note_on_c, 0, 69, 100
6, 36569, Note_on_c, 0, 69, 0
6, 36570, Note_on_c, 0, 72, 100
6, 36599, Note_on_c, 0, 72, 0
6, 36600, Note_on_c, 0, 69, 100
6, 36629, Note_on_c, 0, 69, 0
6, 36630, Note_on_c, 0, 64, 100
6, 36659, Note_on_c, 0, 64, 0
6, 36660, Note_on_c, 0, 69, 100
6, 36689, Note_on_c, 0, 69, 0
6, 36690, Note_on_c, 0, 72, 100
6, 36719, Note_on_c, 0, 72, 0
6, 36720, Note_on_c, 0, 69, 100
6, 36749, Note_on_c, 0, 69, 0
6, 36750, Note_on_c, 0, 64, 100
6, 36779, Note_on_c, 0, 64, 0
6, 36780, Note_on_c, 0, 69, 100
6, 36809, Note_on_c, 0, 69, 0
6, 36810, Note_on_c, 0, 72, 100
6, 36839, Note_on_c, 0, 72, 0
6, 36840, Note_on_c, 0, 69, 100
6, 36869, Note_on_c, 0, 69, 0
6, 36870, Note_on_c, 0, 64, 100
6, 36899, Note_on_c, 0, 64, 0
6, 36900, Note_on_c, 0, 69, 100
6, 36929, Note_on_c, 0, 69, 0
6, 36930, Note_on_c, 0, 72, 100
6, 36959, Note_on_c, 0, 72, 0
6, 36960, Note_on_c, 0, 69, 100
6, 36989, Note_on_c, 0, 69, 0
6, 36990, Note_on_c, 0, 64, 100
6, 37019, Note_on_c, 0, 64, 0
6, 37020, Note_on_c, 0, 69, 100
6, 37049, Note_on_c, 0, 69, 0
6, 37050, Note_on_c, 0, 72, 100
6, 37079, Note_on_c, 0, 72, 0
6, 37080, Note_on_c, 0, 69, 100
6, 37109, Note_on_c, 0, 69, 0
6, 37110, Note_on_c, 0, 64, 100
6, 37139, Note_on_c, 0, 64, 0
6, 37140, Note_on_c, 0, 69, 100
6, 37169, Note_on_c, 0, 69, 0
6, 37170, Note_on_c, 0, 72, 100
6, 37199, Note_on_c, 0, 72, 0
6, 37200, Note_on_c, 0, 69, 100
6, 37229, Note_on_c, 0, 69, 0
6, 37230, Note_on_c, 0, 64, 100
6, 37259, Note_on_c, 0, 64, 0
6, 37260, Note_on_c, 0, 69, 100
6, 37289, Note_on_c, 0, 69, 0
6, 37290, Note_on_c, 0, 72, 100
6, 37319, Note_on_c, 0, 72, 0
6, 37320, Note_on_c, 0, 69, 100
6, 37349, Note_on_c, 0, 69, 0
6, 37350, Note_on_c, 0, 64, 100
6, 37379, Note_on_c, 0, 64, 0
6, 37380, Note_on_c, 0, 69, 100
6, 37409, Note_on_c, 0, 69, 0
6, 37410, Note_on_c, 0, 72, 100
6, 37439, Note_on_c, 0, 72, 0
6, 37440, Note_on_c, 0, 69, 100
6, 37469, Note_on_c, 0, 69, 0
6, 37470, Note_on_c, 0, 64, 100
6, 37499, Note_on_c, 0, 64, 0
6, 37500, Note_on_c, 0, 69, 100
6, 37529, Note_on_c, 0, 69, 0
6, 37530, Note_on_c, 0, 72, 100
6, 37559, Note_on_c, 0, 72, 0
6, 37560, Note_on_c, 0, 69, 100
6, 37589, Note_on_c, 0, 69, 0
6, 37590, Note_on_c, 0, 64, 100
6, 37619, Note_on_c, 0, 64, 0
6, 37620, Note_on_c, 0, 69, 100
6, 37649, Note_on_c, 0, 69, 0
6, 37650, Note_on_c, 0, 72, 100
6, 37679, Note_on_c, 0, 72, 0
6, 37680, Note_on_c, 0, 69, 100
6, 37709, Note_on_c, 0, 69, 0
6, 37710, Note_on_c, 0, 64, 100
6, 37739, Note_on_c, 0, 64, 0
6, 37740, Note_on_c, 0, 69, 100
6, 37769, Note_on_c, 0, 69, 0
6, 37770, Note_on_c, 0, 72, 100
6, 37799, Note_on_c, 0, 72, 0
6, 37800, Note_on_c, 0, 69, 100
6, 37829, Note_on_c, 0, 69, 0
6, 37830, Note_on_c, 0, 64, 100
6, 37859, Note_on_c, 0, 64, 0
6, 37860, Note_on_c, 0, 69, 100
6, 37889, Note_on_c, 0, 69, 0
6, 37890, Note_on_c, 0, 72, 100
6, 37919, Note_on_c, 0, 72, 0
6, 37920, Note_on_c, 0, 69, 100
6, 37949, Note_on_c, 0, 69, 0
6, 37950, Note_on_c, 0, 64, 100
6, 37979, Note_on_c, 0, 64, 0
6, 37980, Note_on_c, 0, 69, 100
6, 38009, Note_on_c, 0, 69, 0
6, 38010, Note_on_c, 0, 72, 100
6, 38039, Note_on_c, 0, 72, 0
6, 38040, Note_on_c, 0, 69, 100
6, 38069, Note_on_c, 0, 69, 0
6, 38070, Note_on_c, 0, 64, 100
6, 38099, Note_on_c, 0, 64, 0
6, 38100, Note_on_c, 0, 69, 100
6, 38129, Note_on_c, 0, 69, 0
6, 38130, Note_on_c, 0, 72, 100
6, 38159, Note_on_c, 0, 72, 0
6, 38160, Note_on_c, 0, 69, 100
6, 38189, Note_on_c, 0, 69, 0
6, 38190, Note_on_c, 0, 64, 100
6, 38219, Note_on_c, 0, 64, 0
6, 38220, Note_on_c, 0, 69, 100
6, 38249, Note_on_c, 0, 69, 0
6, 38250, Note_on_c, 0, 72, 100
6, 38279, Note_on_c, 0, 72, 0
6, 38280, Note_on_c, 0, 69, 100
6, 38309, Note_on_c, 0, 69, 0
6, 38310, Note_on_c, 0, 64, 100
6, 38339, Note_on_c, 0, 64, 0
6, 38340, Note_on_c, 0, 69, 100
6, 38369, Note_on_c, 0, 69, 0
6, 38370, Note_on_c, 0, 72, 100
6, 38399, Note_on_c, 0, 72, 0
6, 38400, Note_on_c, 0, 69, 100
6, 38429, Note_on_c, 0, 69, 0
6, 38430, Note_on_c, 0, 64, 100
6, 38459, Note_on_c, 0, 64, 0
6, 38460, Note_on_c, 0, 69, 100
6, 38489, Note_on_c, 0, 69, 0
6, 38490, Note_on_c, 0, 72, 100
6, 38519, Note_on_c, 0, 72, 0
6, 38520, Note_on_c, 0, 69, 100
6, 38549, Note_on_c, 0, 69, 0
6, 38550, Note_on_c, 0, 64, 100
6, 38579, Note_on_c, 0, 64, 0
6, 38580, Note_on_c, 0, 69, 100
6, 38609, Note_on_c, 0, 69, 0
6, 38610, Note_on_c, 0, 72, 100
6, 38639, Note_on_c, 0, 72, 0
6, 38640, Note_on_c, 0, 69, 100
6, 38669, Note_on_c, 0, 69, 0
6, 38670, Note_on_c, 0, 64, 100
6, 38699, Note_on_c, 0, 64, 0
6, 38700, Note_on_c, 0, 69, 100
6, 38729, Note_on_c, 0, 69, 0
6, 38730, Note_on_c, 0, 72, 100
6, 38759, Note_on_c, 0, 72, 0
6, 38760, Note_on_c, 0, 69, 100
6, 38789, Note_on_c, 0, 69, 0
6, 38790, Note_on_c, 0, 64, 100
6, 38819, Note_on_c, 0, 64, 0
6, 38820, Note_on_c, 0, 69, 100
6, 38849, Note_on_c, 0, 69, 0
6, 38850, Note_on_c, 0, 72, 100
6, 38879, Note_on_c, 0, 72, 0
6, 38880, Note_on_c, 0, 69, 100
6, 38909, Note_on_c, 0, 69, 0
6, 38910, Note_on_c, 0, 64, 100
6, 38939, Note_on_c, 0, 64, 0
6, 38940, Note_on_c, 0, 69, 100
6, 38969, Note_on_c, 0, 69, 0
6, 38970, Note_on_c, 0, 72, 100
6, 38999, Note_on_c, 0, 72, 0
6, 39000, Note_on_c, 0, 69, 100
6, 39029, Note_on_c, 0, 69, 0
6, 39030, Note_on_c, 0, 64, 100
6, 39059, Note_on_c, 0, 64, 0
6, 39060, Note_on_c, 0, 69, 100
6, 39089, Note_on_c, 0, 69, 0
6, 39090, Note_on_c, 0, 72, 100
6, 39119, Note_on_c, 0, 72, 0
6, 39120, Note_on_c, 0, 69, 100
6, 39149, Note_on_c, 0, 69, 0
6, 39150, Note_on_c, 0, 64, 100
6, 39179, Note_on_c, 0, 64, 0
6, 39180, Note_on_c, 0, 69, 100
6, 39209, Note_on_c, 0, 69, 0
6, 39210, Note_on_c, 0, 72, 100
6, 39239, Note_on_c, 0, 72, 0
6, 39240, Note_on_c, 0, 69, 100
6, 39269, Note_on_c, 0, 69, 0
6, 39270, Note_on_c, 0, 64, 100
6, 39299, Note_on_c, 0, 64, 0
6, 39300, Note_on_c, 0, 69, 100
6, 39329, Note_on_c, 0, 69, 0
6, 39330, Note_on_c, 0, 72, 100
6, 39359, Note_on_c, 0, 72, 0
6, 39360, Note_on_c, 0, 69, 100
6, 39389, Note_on_c, 0, 69, 0
6, 39390, Note_on_c, 0, 64, 100
6, 39419, Note_on_c, 0, 64, 0
6, 39420, Note_on_c, 0, 69, 100
6, 39449, Note_on_c, 0, 69, 0
6, 39450, Note_on_c, 0, 72, 100
6, 39479, Note_on_c, 0, 72, 0
6, 39480, Note_on_c, 0, 69, 100
6, 39509, Note_on_c, 0, 69, 0
6, 39510, Note_on_c, 0, 64, 100
6, 39539, Note_on_c, 0, 64, 0
6, 39540, Note_on_c, 0, 69, 100
6, 39569, Note_on_c, 0, 69, 0
6, 39570, Note_on_c, 0, 72, 100
6, 39599, Note_on_c, 0, 72, 0
6, 39600, Note_on_c, 0, 69, 100
6, 39629, Note_on_c, 0, 69, 0
6, 39630, Note_on_c, 0, 64, 100
6, 39659, Note_on_c, 0, 64, 0
6, 39660, Note_on_c, 0, 69, 100
6, 39689, Note_on_c, 0, 69, 0
6, 39690, Note_on_c, 0, 72, 100
6, 39719, Note_on_c, 0, 72, 0
6, 39720, Note_on_c, 0, 69, 100
6, 39749, Note_on_c, 0, 69, 0
6, 39750, Note_on_c, 0, 64, 100
6, 39779, Note_on_c, 0, 64, 0
6, 39780, Note_on_c, 0, 69, 100
6, 39809, Note_on_c, 0, 69, 0
6, 39810, Note_on_c, 0, 72, 100
6, 39839, Note_on_c, 0, 72, 0
6, 39840, Note_on_c, 0, 69, 100
6, 39869, Note_on_c, 0, 69, 0
6, 39870, Note_on_c, 0, 64, 100
6, 39899, Note_on_c, 0, 64, 0
6, 39900, Note_on_c, 0, 69, 100
6, 39929, Note_on_c, 0, 69, 0
6, 39930, Note_on_c, 0, 72, 100
6, 39959, Note_on_c, 0, 72, 0
6, 39960, Note_on_c, 0, 69, 100
6, 39989, Note_on_c, 0, 69, 0
6, 39990, Note_on_c, 0, 64, 100
6, 40019, Note_on_c, 0, 64, 0
6, 40020, Note_on_c, 0, 69, 100
6, 40049, Note_on_c, 0, 69, 0
6, 40050, Note_on_c, 0, 72, 100
6, 40079, Note_on_c, 0, 72, 0
6, 40080, Note_on_c, 0, 69, 100
6, 40109, Note_on_c, 0, 69, 0
6, 40110, Note_on_c, 0, 64, 100
6, 40139, Note_on_c, 0, 64, 0
6, 40140, Note_on_c, 0, 69, 100
6, 40169, Note_on_c, 0, 69, 0
6, 40170, Note_on_c, 0, 72, 100
6, 40199, Note_on_c, 0, 72, 0
6, 40200, Note_on_c, 0, 69, 100
6, 40229, Note_on_c, 0, 69, 0
6, 40230, Note_on_c, 0, 64, 100
6, 40259, Note_on_c, 0, 64, 0
6, 40260, Note_on_c, 0, 69, 100
6, 40289, Note_on_c, 0, 69, 0
6, 40290, Note_on_c, 0, 72, 100
6, 40319, Note_on_c, 0, 72, 0
6, 40320, Note_on_c, 0, 69, 100
6, 40349, Note_on_c, 0, 69, 0
6, 40350, Note_on_c, 0, 64, 100
6, 40379, Note_on_c, 0, 64, 0
6, 40380, Note_on_c, 0, 69, 100
6, 40409, Note_on_c, 0, 69, 0
6, 40410, Note_on_c, 0, 72, 100
6, 40439, Note_on_c, 0, 72, 0
6, 40440, Note_on_c, 0, 69, 100
6, 40469, Note_on_c, 0, 69, 0
6, 40470, Note_on_c, 0, 64, 100
6, 40499, Note_on_c, 0, 64, 0
6, 40500, Note_on_c, 0, 69, 100
6, 40529, Note_on_c, 0, 69, 0
6, 40530, Note_on_c, 0, 72, 100
6, 40559, Note_on_c, 0, 72, 0
6, 40560, Note_on_c, 0, 69, 100
6, 40589, Note_on_c, 0, 69, 0
6, 40590, Note_on_c, 0, 64, 100
6, 40619, Note_on_c, 0, 64, 0
6, 40620, Note_on_c, 0, 69, 100
6, 40649, Note_on_c, 0, 69, 0
6, 40650, Note_on_c, 0, 72, 100
6, 40679, Note_on_c, 0, 72, 0
6, 40680, Note_on_c, 0, 69, 100
6, 40709, Note_on_c, 0, 69, 0
6, 40710, Note_on_c, 0, 64, 100
6, 40739, Note_on_c, 0, 64, 0
6, 40740, Note_on_c, 0, 69, 100
6, 40769, Note_on_c, 0, 69, 0
6, 40770, Note_on_c, 0, 72, 100
6, 40799, Note_on_c, 0, 72, 0
6, 40800, Note_on_c, 0, 69, 100
6, 40829, Note_on_c, 0, 69, 0
6, 40830, Note_on_c, 0, 64, 100
6, 40859, Note_on_c, 0, 64, 0
6, 40860, Note_on_c, 0, 69, 100
6, 40889, Note_on_c, 0, 69, 0
6, 40890, Note_on_c, 0, 72, 100
6, 40919, Note_on_c, 0, 72, 0
6, 40920, Note_on_c, 0, 69, 100
6, 40949, Note_on_c, 0, 69, 0
6, 40950, Note_on_c, 0, 64, 100
6, 40979, Note_on_c, 0, 64, 0
6, 40980, Note_on_c, 0, 69, 100
6, 41009, Note_on_c, 0, 69, 0
6, 41010, Note_on_c, 0, 72, 100
6, 41039, Note_on_c, 0, 72, 0
6, 41040, Note_on_c, 0, 69, 100
6, 41069, Note_on_c, 0, 69, 0
6, 41070, Note_on_c, 0, 64, 100
6, 41099, Note_on_c, 0, 64, 0
6, 41100, Note_on_c, 0, 69, 100
6, 41129, Note_on_c, 0, 69, 0
6, 41130, Note_on_c, 0, 72, 100
6, 41159, Note_on_c, 0, 72, 0
6, 41160, Note_on_c, 0, 69, 100
6, 41189, Note_on_c, 0, 69, 0
6, 41190, Note_on_c, 0, 64, 100
6, 41219, Note_on_c, 0, 64, 0
6, 41220, Note_on_c, 0, 69, 100
6, 41249, Note_on_c, 0, 69, 0
6, 41250, Note_on_c, 0, 72, 100
6, 41279, Note_on_c, 0, 72, 0
6, 41280, Note_on_c, 0, 69, 100
6, 41309, Note_on_c, 0, 69, 0
6, 41310, Note_on_c, 0, 64, 100
6, 41339, Note_on_c, 0, 64, 0
6, 41340, Note_on_c, 0, 69, 100
6, 41369, Note_on_c, 0, 69, 0
6, 41370, Note_on_c, 0, 72, 100
6, 41399, Note_on_c, 0, 72, 0
6, 41400, Note_on_c, 0, 69, 100
6, 41429, Note_on_c, 0, 69, 0
6, 41430, Note_on_c, 0, 64, 100
6, 41459, Note_on_c, 0, 64, 0
6, 41460, Note_on_c, 0, 69, 100
6, 41489, Note_on_c, 0, 69, 0
6, 41490, Note_on_c, 0, 72, 100
6, 41519, Note_on_c, 0, 72, 0
6, 41520, Note_on_c, 0, 69, 100
6, 41549, Note_on_c, 0, 69, 0
6, 41550, Note_on_c, 0, 64, 100
6, 41579, Note_on_c, 0, 64, 0
6, 41580, Note_on_c, 0, 69, 100
6, 41609, Note_on_c, 0, 69, 0
6, 41610, Note_on_c, 0, 72, 100
6, 41639, Note_on_c, 0, 72, 0
6, 41640, Note_on_c, 0, 69, 100
6, 41669, Note_on_c, 0, 69, 0
6, 41670, Note_on_c, 0, 64, 100
6, 41699, Note_on_c, 0, 64, 0
6, 41700, Note_on_c, 0, 69, 100
6, 41729, Note_on_c, 0, 69, 0
6, 41730, Note_on_c, 0, 72, 100
6, 41759, Note_on_c, 0, 72, 0
6, 41760, Note_on_c, 0, 69, 100
6, 41789, Note_on_c, 0, 69, 0
6, 41790, Note_on_c, 0, 64, 100
6, 41819, Note_on_c, 0, 64, 0
6, 41820, Note_on_c, 0, 69, 100
6, 41849, Note_on_c, 0, 69, 0
6, 41850, Note_on_c, 0, 72, 100
6, 41879, Note_on_c, 0, 72, 0
6, 41880, Note_on_c, 0, 69, 100
6, 41909, Note_on_c, 0, 69, 0
6, 41910, Note_on_c, 0, 64, 100
6, 41939, Note_on_c, 0, 64, 0
6, 41940, Note_on_c, 0, 69, 100
6, 41969, Note_on_c, 0, 69, 0
6, 41970, Note_on_c, 0, 72, 100
6, 41999, Note_on_c, 0, 72, 0
6, 42000, Note_on_c, 0, 69, 100
6, 42029, Note_on_c, 0, 69, 0
6, 42030, Note_on_c, 0, 64, 100
6, 42059, Note_on_c, 0, 64, 0
6, 42060, Note_on_c, 0, 69, 100
6, 42089, Note_on_c, 0, 69, 0
6, 42090, Note_on_c, 0, 72, 100
6, 42119, Note_on_c, 0, 72, 0
6, 42120, Note_on_c, 0, 69, 100
6, 42149, Note_on_c, 0, 69, 0
6, 42150, Note_on_c, 0, 64, 100
6, 42179, Note_on_c, 0, 64, 0
6, 42180, Note_on_c, 0, 69, 100
6, 42209, Note_on_c, 0, 69, 0
6, 42210, Note_on_c, 0, 72, 100
6, 42239, Note_on_c, 0, 72, 0
6, 42240, Note_on_c, 0, 69, 100
6, 42269, Note_on_c, 0, 69, 0
6, 42270, Note_on_c, 0, 64, 100
6, 42299, Note_on_c, 0, 64, 0
6, 42300, Note_on_c, 0, 69, 100
6, 42329, Note_on_c, 0, 69, 0
6, 42330, Note_on_c, 0, 72, 100
6, 42359, Note_on_c, 0, 72, 0
6, 42360, Note_on_c, 0, 69, 100
6, 42389, Note_on_c, 0, 69, 0
6, 42390, Note_on_c, 0, 64, 100
6, 42419, Note_on_c, 0, 64, 0
6, 42420, Note_on_c, 0, 69, 100
6, 42449, Note_on_c, 0, 69, 0
6, 42450, Note_on_c, 0, 72, 100
6, 42479, Note_on_c, 0, 72, 0
6, 42480, Note_on_c, 0, 69, 100
6, 42509, Note_on_c, 0, 69, 0
6, 42510, Note_on_c, 0, 64, 100
6, 42539, Note_on_c, 0, 64, 0
6, 42540, Note_on_c, 0, 69, 100
6, 42569, Note_on_c, 0, 69, 0
6, 42570, Note_on_c, 0, 72, 100
6, 42599, Note_on_c, 0, 72, 0
6, 42600, Note_on_c, 0, 69, 100
6, 42629, Note_on_c, 0, 69, 0
6, 42630, Note_on_c, 0, 64, 100
6, 42659, Note_on_c, 0, 64, 0
6, 42660, Note_on_c, 0, 69, 100
6, 42689, Note_on_c, 0, 69, 0
6, 42690, Note_on_c, 0, 72, 100
6, 42719, Note_on_c, 0, 72, 0
6, 42720, Note_on_c, 0, 69, 100
6, 42749, Note_on_c, 0, 69, 0
6, 42750, Note_on_c, 0, 64, 100
6, 42779, Note_on_c, 0, 64, 0
6, 42780, Note_on_c, 0, 69, 100
6, 42809, Note_on_c, 0, 69, 0
6, 42810, Note_on_c, 0, 72, 100
6, 42839, Note_on_c, 0, 72, 0
6, 42840, Note_on_c, 0, 69, 100
6, 42869, Note_on_c, 0, 69, 0
6, 42870, Note_on_c, 0, 64, 100
6, 42899, Note_on_c, 0, 64, 0
6, 42900, Note_on_c, 0, 69, 100
6, 42929, Note_on_c, 0, 69, 0
6, 42930, Note_on_c, 0, 72, 100
6, 42959, Note_on_c, 0, 72, 0
6, 42960, Note_on_c, 0, 69, 100
6, 42989, Note_on_c, 0, 69, 0
6, 42990, Note_on_c, 0, 64, 100
6, 43019, Note_on_c, 0, 64, 0
6, 43020, Note_on_c, 0, 69, 100
6, 43049, Note_on_c, 0, 69, 0
6, 43050, Note_on_c, 0, 72, 100
6, 43079, Note_on_c, 0, 72, 0
6, 43080, Note_on_c, 0, 69, 100
6, 43109, Note_on_c, 0, 69, 0
6, 43110, Note_on_c, 0, 64, 100
6, 43139, Note_on_c, 0, 64, 0
6, 43140, Note_on_c, 0, 69, 100
6, 43169, Note_on_c, 0, 69, 0
6, 43170, Note_on_c, 0, 72, 100
6, 43199, Note_on_c, 0, 72, 0
6, 43200, Note_on_c, 0, 69, 100
6, 43229, Note_on_c, 0, 69, 0
6, 43230, Note_on_c, 0, 64, 100
6, 43259, Note_on_c, 0, 64, 0
6, 43260, Note_on_c, 0, 69, 100
6, 43289, Note_on_c, 0, 69, 0
6, 43290, Note_on_c, 0, 72, 100
6, 43319, Note_on_c, 0, 72, 0
6, 43320, Note_on_c, 0, 69, 100
6, 43349, Note_on_c, 0, 69, 0
6, 43350, Note_on_c, 0, 64, 100
6, 43379, Note_on_c, 0, 64, 0
6, 43380, Note_on_c, 0, 69, 100
6, 43409, Note_on_c, 0, 69, 0
6, 43410, Note_on_c, 0, 72, 100
6, 43439, Note_on_c, 0, 72, 0
6, 43440, Note_on_c, 0, 69, 100
6, 43469, Note_on_c, 0, 69, 0
6, 43470, Note_on_c, 0, 64, 100
6, 43499, Note_on_c, 0, 64, 0
6, 43500, Note_on_c, 0, 69, 100
6, 43529, Note_on_c, 0, 69, 0
6, 43530, Note_on_c, 0, 72, 100
6, 43559, Note_on_c, 0, 72, 0
6, 43560, Note_on_c, 0, 69, 100
6, 43589, Note_on_c, 0, 69, 0
6, 43590, Note_on_c, 0, 64, 100
6, 43619, Note_on_c, 0, 64, 0
6, 43620, Note_on_c, 0, 69, 100
6, 43649, Note_on_c, 0, 69, 0
6, 43650, Note_on_c, 0, 72, 100
6, 43679, Note_on_c, 0, 72, 0
6, 43680, Note_on_c, 0, 69, 100
6, 43709, Note_on_c, 0, 69, 0
6, 43710, Note_on_c, 0, 64, 100
6, 43739, Note_on_c, 0, 64, 0
6, 43740, Note_on_c, 0, 69, 100
6, 43769, Note_on_c, 0, 69, 0
6, 43770, Note_on_c, 0, 72, 100
6, 43799, Note_on_c, 0, 72, 0
6, 43800, Note_on_c, 0, 69, 100
6, 43829, Note_on_c, 0, 69, 0
6, 43830, Note_on_c, 0, 64, 100
6, 43859, Note_on_c, 0, 64, 0
6, 43860, Note_on_c, 0, 69, 100
6, 43889, Note_on_c, 0, 69, 0
6, 43890, Note_on_c, 0, 72, 100
6, 43919, Note_on_c, 0, 72, 0
6, 43920, Note_on_c, 0, 69, 100
6, 43949, Note_on_c, 0, 69, 0
6, 43950, Note_on_c, 0, 64, 100
6, 43979, Note_on_c, 0, 64, 0
6, 43980, Note_on_c, 0, 69, 100
6, 44009, Note_on_c, 0, 69, 0
6, 44010, Note_on_c, 0, 72, 100
6, 44039, Note_on_c, 0, 72, 0
6, 44040, Note_on_c, 0, 69, 100
6, 44069, Note_on_c, 0, 69, 0
6, 44070, Note_on_c, 0, 64, 100
6, 44099, Note_on_c, 0, 64, 0
6, 44100, Note_on_c, 0, 69, 100
6, 44129, Note_on_c, 0, 69, 0
6, 44130, Note_on_c, 0, 72, 100
6, 44159, Note_on_c, 0, 72, 0
6, 44160, Note_on_c, 0, 69, 100
6, 44189, Note_on_c, 0, 69, 0
6, 44190, Note_on_c, 0, 64, 100
6, 44219, Note_on_c, 0, 64, 0
6, 44220, Note_on_c, 0, 69, 100
6, 44249, Note_on_c, 0, 69, 0
6, 44250, Note_on_c, 0, 72, 100
6, 44279, Note_on_c, 0, 72, 0
6, 44280, Note_on_c, 0, 69, 100
6, 44309, Note_on_c, 0, 69, 0
6, 44310, Note_on_c, 0, 64, 100
6, 44339, Note_on_c, 0, 64, 0
6, 44340, Note_on_c, 0, 69, 100
6, 44369, Note_on_c, 0, 69, 0
6, 44370, Note_on_c, 0, 72, 100
6, 44399, Note_on_c, 0, 72, 0
6, 44400, Note_on_c, 0, 69, 100
6, 44429, Note_on_c, 0, 69, 0
6, 44430, Note_on_c, 0, 64, 100
6, 44459, Note_on_c, 0, 64, 0
6, 44460, Note_on_c, 0, 69, 100
6, 44489, Note_on_c, 0, 69, 0
6, 44490, Note_on_c, 0, 72, 100
6, 44519, Note_on_c, 0, 72, 0
6, 44520, Note_on_c, 0, 69, 100
6, 44549, Note_on_c, 0, 69, 0
6, 44550, Note_on_c, 0, 64, 100
6, 44579, Note_on_c, 0, 64, 0
6, 44580, Note_on_c, 0, 69, 100
6, 44609, Note_on_c, 0, 69, 0
6, 44610, Note_on_c, 0, 72, 100
6, 44639, Note_on_c, 0, 72, 0
6, 44640, Note_on_c, 0, 69, 100
6, 44669, Note_on_c, 0, 69, 0
6, 44670, Note_on_c, 0, 64, 100
6, 44699, Note_on_c, 0, 64, 0
6, 44700, Note_on_c, 0, 69, 100
6, 44729, Note_on_c, 0, 69, 0
6, 44730, Note_on_c, 0, 72, 100
6, 44759, Note_on_c, 0, 72, 0
6, 44760, Note_on_c, 0, 69, 100
6, 44789, Note_on_c, 0, 69, 0
6, 44790, Note_on_c, 0, 64, 100
6, 44819, Note_on_c, 0, 64, 0
6, 44820, Note_on_c, 0, 69, 100
6, 44849, Note_on_c, 0, 69, 0
6, 44850, Note_on_c, 0, 72, 100
6, 44879, Note_on_c, 0, 72, 0
6, 44880, Note_on_c, 0, 69, 100
6, 44909, Note_on_c, 0, 69, 0
6, 44910, Note_on_c, 0, 64, 100
6, 44939, Note_on_c, 0, 64, 0
6, 44940, Note_on_c, 0, 69, 100
6, 44969, Note_on_c, 0, 69, 0
6, 44970, Note_on_c, 0, 72, 100
6, 44999, Note_on_c, 0, 72, 0
6, 45000, Note_on_c, 0, 69, 100
6, 45029, Note_on_c, 0, 69, 0
6, 45030, Note_on_c, 0, 64, 100
6, 45059, Note_on_c, 0, 64, 0
6, 45060, Note_on_c, 0, 69, 100
6, 45089, Note_on_c, 0, 69, 0
6, 45090, Note_on_c, 0, 72, 100
6, 45119, Note_on_c, 0, 72, 0
6, 45120, Note_on_c, 0, 67, 100
6, 45149, Note_on_c, 0, 67, 0
6, 45150, Note_on_c, 0, 62, 100
6, 45179, Note_on_c, 0, 62, 0
6, 45180, Note_on_c, 0, 67, 100
6, 45209, Note_on_c, 0, 67, 0
6, 45210, Note_on_c, 0, 71, 100
6, 45239, Note_on_c, 0, 71, 0
6, 45240, Note_on_c, 0, 67, 100
6, 45269, Note_on_c, 0, 67, 0
6, 45270, Note_on_c, 0, 62, 100
6, 45299, Note_on_c, 0, 62, 0
6, 45300, Note_on_c, 0, 67, 100
6, 45329, Note_on_c, 0, 67, 0
6, 45330, Note_on_c, 0, 71, 100
6, 45359, Note_on_c, 0, 71, 0
6, 45360, Note_on_c, 0, 65, 100
6, 45389, Note_on_c, 0, 65, 0
6, 45390, Note_on_c, 0, 60, 100
6, 45419, Note_on_c, 0, 60, 0
6, 45420, Note_on_c, 0, 65, 100
6, 45449, Note_on_c, 0, 65, 0
6, 45450, Note_on_c, 0, 69, 100
6, 45479, Note_on_c, 0, 69, 0
6, 45480, Note_on_c, 0, 65, 100
6, 45509, Note_on_c, 0, 65, 0
6, 45510, Note_on_c, 0, 60, 100
6, 45539, Note_on_c, 0, 60, 0
6, 45540, Note_on_c, 0, 65, 100
6, 45569, Note_on_c, 0, 65, 0
6, 45570, Note_on_c, 0, 69, 100
6, 45599, Note_on_c, 0, 69, 0
6, 45600, Note_on_c, 0, 69, 100
6, 45629, Note_on_c, 0, 69, 0
6, 45630, Note_on_c, 0, 64, 100
6, 45659, Note_on_c, 0, 64, 0
6, 45660, Note_on_c, 0, 69, 100
6, 45689, Note_on_c, 0, 69, 0
6, 45690, Note_on_c, 0, 72, 100
6, 45719, Note_on_c, 0, 72, 0
6, 45720, Note_on_c, 0, 69, 100
6, 45749, Note_on_c, 0, 69, 0
6, 45750, Note_on_c, 0, 64, 100
6, 45779, Note_on_c, 0, 64, 0
6, 45780, Note_on_c, 0, 69, 100
6, 45809, Note_on_c, 0, 69, 0
6, 45810, Note_on_c, 0, 72, 100
6, 45839, Note_on_c, 0, 72, 0
6, 45840, Note_on_c, 0, 69, 100
6, 45869, Note_on_c, 0, 69, 0
6, 45870, Note_on_c, 0, 64, 100
6, 45899, Note_on_c, 0, 64, 0
6, 45900, Note_on_c, 0, 69, 100
6, 45929, Note_on_c, 0, 69, 0
6, 45930, Note_on_c, 0, 72, 100
6, 45959, Note_on_c, 0, 72, 0
6, 45960, Note_on_c, 0, 69, 100
6, 45989, Note_on_c, 0, 69, 0
6, 45990, Note_on_c, 0, 64, 100
6, 46019, Note_on_c, 0, 64, 0
6, 46020, Note_on_c, 0, 69, 100
6, 46049, Note_on_c, 0, 69, 0
6, 46050, Note_on_c, 0, 72, 100
6, 46079, Note_on_c, 0, 72, 0
6, 46080, Note_on_c, 0, 69, 100
6, 46109, Note_on_c, 0, 69, 0
6, 46110, Note_on_c, 0, 64, 100
6, 46139, Note_on_c, 0, 64, 0
6, 46140, Note_on_c, 0, 69, 100
6, 46169, Note_on_c, 0, 69, 0
6, 46170, Note_on_c, 0, 72, 100
6, 46199, Note_on_c, 0, 72, 0
6, 46200, Note_on_c, 0, 69, 100
6, 46229, Note_on_c, 0, 69, 0
6, 46230, Note_on_c, 0, 64, 100
6, 46259, Note_on_c, 0, 64, 0
6, 46260, Note_on_c, 0, 69, 100
6, 46289, Note_on_c, 0, 69, 0
6, 46290, Note_on_c, 0, 72, 100
6, 46319, Note_on_c, 0, 72, 0
6, 46320, Note_on_c, 0, 69, 100
6, 46349, Note_on_c, 0, 69, 0
6, 46350, Note_on_c, 0, 64, 100
6, 46379, Note_on_c, 0, 64, 0
6, 46380, Note_on_c, 0, 69, 100
6, 46409, Note_on_c, 0, 69, 0
6, 46410, Note_on_c, 0, 72, 100
6, 46439, Note_on_c, 0, 72, 0
6, 46440, Note_on_c, 0, 69, 100
6, 46469, Note_on_c, 0, 69, 0
6, 46470, Note_on_c, 0, 64, 100
6, 46499, Note_on_c, 0, 64, 0
6, 46500, Note_on_c, 0, 69, 100
6, 46529, Note_on_c, 0, 69, 0
6, 46530, Note_on_c, 0, 72, 100
6, 46559, Note_on_c, 0, 72, 0
6, 46560, Note_on_c, 0, 69, 100
6, 46589, Note_on_c, 0, 69, 0
6, 46590, Note_on_c, 0, 64, 100
6, 46619, Note_on_c, 0, 64, 0
6, 46620, Note_on_c, 0, 69, 100
6, 46649, Note_on_c, 0, 69, 0
6, 46650, Note_on_c, 0, 72, 100
6, 46679, Note_on_c, 0, 72, 0
6, 46680, Note_on_c, 0, 69, 100
6, 46709, Note_on_c, 0, 69, 0
6, 46710, Note_on_c, 0, 64, 100
6, 46739, Note_on_c, 0, 64, 0
6, 46740, Note_on_c, 0, 69, 100
6, 46769, Note_on_c, 0, 69, 0
6, 46770, Note_on_c, 0, 72, 100
6, 46799, Note_on_c, 0, 72, 0
6, 46800, Note_on_c, 0, 69, 100
6, 46829, Note_on_c, 0, 69, 0
6, 46830, Note_on_c, 0, 64, 100
6, 46859, Note_on_c, 0, 64, 0
6, 46860, Note_on_c, 0, 69, 100
6, 46889, Note_on_c, 0, 69, 0
6, 46890, Note_on_c, 0, 72, 100
6, 46919, Note_on_c, 0, 72, 0
6, 46920, Note_on_c, 0, 69, 100
6, 46949, Note_on_c, 0, 69, 0
6, 46950, Note_on_c, 0, 64, 100
6, 46979, Note_on_c, 0, 64, 0
6, 46980, Note_on_c, 0, 69, 100
6, 47009, Note_on_c, 0, 69, 0
6, 47010, Note_on_c, 0, 72, 100
6, 47039, Note_on_c, 0, 72, 0
6, 47040, Note_on_c, 0, 67, 100
6, 47069, Note_on_c, 0, 67, 0
6, 47070, Note_on_c, 0, 62, 100
6, 47099, Note_on_c, 0, 62, 0
6, 47100, Note_on_c, 0, 67, 100
6, 47129, Note_on_c, 0, 67, 0
6, 47130, Note_on_c, 0, 71, 100
6, 47159, Note_on_c, 0, 71, 0
6, 47160, Note_on_c, 0, 67, 100
6, 47189, Note_on_c, 0, 67, 0
6, 47190, Note_on_c, 0, 62, 100
6, 47219, Note_on_c, 0, 62, 0
6, 47220, Note_on_c, 0, 67, 100
6, 47249, Note_on_c, 0, 67, 0
6, 47250, Note_on_c, 0, 71, 100
6, 47279, Note_on_c, 0, 71, 0
6, 47280, Note_on_c, 0, 65, 100
6, 47309, Note_on_c, 0, 65, 0
6, 47310, Note_on_c, 0, 60, 100
6, 47339, Note_on_c, 0, 60, 0
6, 47340, Note_on_c, 0, 65, 100
6, 47369, Note_on_c, 0, 65, 0
6, 47370, Note_on_c, 0, 69, 100
6, 47399, Note_on_c, 0, 69, 0
6, 47400, Note_on_c, 0, 65, 100
6, 47429, Note_on_c, 0, 65, 0
6, 47430, Note_on_c, 0, 60, 100
6, 47459, Note_on_c, 0, 60, 0
6, 47460, Note_on_c, 0, 65, 100
6, 47489, Note_on_c, 0, 65, 0
6, 47490, Note_on_c, 0, 69, 100
6, 47519, Note_on_c, 0, 69, 0
6, 47520, Note_on_c, 0, 69, 100
6, 47549, Note_on_c, 0, 69, 0
6, 47550, Note_on_c, 0, 64, 100
6, 47579, Note_on_c, 0, 64, 0
6, 47580, Note_on_c, 0, 69, 100
6, 47609, Note_on_c, 0, 69, 0
6, 47610, Note_on_c, 0, 72, 100
6, 47639, Note_on_c, 0, 72, 0
6, 47640, Note_on_c, 0, 69, 100
6, 47669, Note_on_c, 0, 69, 0
6, 47670, Note_on_c, 0, 64, 100
6, 47699, Note_on_c, 0, 64, 0
6, 47700, Note_on_c, 0, 69, 100
6, 47729, Note_on_c, 0, 69, 0
6, 47730, Note_on_c, 0, 72, 100
6, 47759, Note_on_c, 0, 72, 0
6, 47760, Note_on_c, 0, 69, 100
6, 47789, Note_on_c, 0, 69, 0
6, 47790, Note_on_c, 0, 64, 100
6, 47819, Note_on_c, 0, 64, 0
6, 47820, Note_on_c, 0, 69, 100
6, 47849, Note_on_c, 0, 69, 0
6, 47850, Note_on_c, 0, 72, 100
6, 47879, Note_on_c, 0, 72, 0
6, 47880, Note_on_c, 0, 69, 100
6, 47909, Note_on_c, 0, 69, 0
6, 47910, Note_on_c, 0, 64, 100
6, 47939, Note_on_c, 0, 64, 0
6, 47940, Note_on_c, 0, 69, 100
6, 47969, Note_on_c, 0, 69, 0
6, 47970, Note_on_c, 0, 72, 100
6, 47999, Note_on_c, 0, 72, 0
6, 48000, Note_on_c, 0, 69, 100
6, 48029, Note_on_c, 0, 69, 0
6, 48030, Note_on_c, 0, 64, 100
6, 48059, Note_on_c, 0, 64, 0
6, 48060, Note_on_c, 0, 69, 100
6, 48089, Note_on_c, 0, 69, 0
6, 48090, Note_on_c, 0, 72, 100
6, 48119, Note_on_c, 0, 72, 0
6, 48120, Note_on_c, 0, 69, 100
6, 48149, Note_on_c, 0, 69, 0
6, 48150, Note_on_c, 0, 64, 100
6, 48179, Note_on_c, 0, 64, 0
6, 48180, Note_on_c, 0, 69, 100
6, 48209, Note_on_c, 0, 69, 0
6, 48210, Note_on_c, 0, 72, 100
6, 48239, Note_on_c, 0, 72, 0
6, 48240, Note_on_c, 0, 69, 100
6, 48269, Note_on_c, 0, 69, 0
6, 48270, Note_on_c, 0, 64, 100
6, 48299, Note_on_c, 0, 64, 0
6, 48300, Note_on_c, 0, 69, 100
6, 48329, Note_on_c, 0, 69, 0
6, 48330, Note_on_c, 0, 72, 100
6, 48359, Note_on_c, 0, 72, 0
6, 48360, Note_on_c, 0, 69, 100
6, 48389, Note_on_c, 0, 69, 0
6, 48390, Note_on_c, 0, 64, 100
6, 48419, Note_on_c, 0, 64, 0
6, 48420, Note_on_c, 0, 69, 100
6, 48449, Note_on_c, 0, 69, 0
6, 48450, Note_on_c, 0, 72, 100
6, 48479, Note_on_c, 0, 72, 0
6, 48480, Note_on_c, 0, 69, 100
6, 48509, Note_on_c, 0, 69, 0
6, 48510, Note_on_c, 0, 64, 100
6, 48539, Note_on_c, 0, 64, 0
6, 48540, Note_on_c, 0, 69, 100
6, 48569, Note_on_c, 0, 69, 0
6, 48570, Note_on_c, 0, 72, 100
6, 48599, Note_on_c, 0, 72, 0
6, 48600, Note_on_c, 0, 69, 100
6, 48629, Note_on_c, 0, 69, 0
6, 48630, Note_on_c, 0, 64, 100
6, 48659, Note_on_c, 0, 64, 0
6, 48660, Note_on_c, 0, 69, 100
6, 48689, Note_on_c, 0, 69, 0
6, 48690, Note_on_c, 0, 72, 100
6, 48719, Note_on_c, 0, 72, 0
6, 48720, Note_on_c, 0, 69, 100
6, 48749, Note_on_c, 0, 69, 0
6, 48750, Note_on_c, 0, 64, 100
6, 48779, Note_on_c, 0, 64, 0
6, 48780, Note_on_c, 0, 69, 100
6, 48809, Note_on_c, 0, 69, 0
6, 48810, Note_on_c, 0, 72, 100
6, 48839, Note_on_c, 0, 72, 0
6, 48840, Note_on_c, 0, 69, 100
6, 48869, Note_on_c, 0, 69, 0
6, 48870, Note_on_c, 0, 64, 100
6, 48899, Note_on_c, 0, 64, 0
6, 48900, Note_on_c, 0, 69, 100
6, 48929, Note_on_c, 0, 69, 0
6, 48930, Note_on_c, 0, 72, 100
6, 48959, Note_on_c, 0, 72, 0
6, 48960, Note_on_c, 0, 67, 100
6, 48989, Note_on_c, 0, 67, 0
6, 48990, Note_on_c, 0, 62, 100
6, 49019, Note_on_c, 0, 62, 0
6, 49020, Note_on_c, 0, 67, 100
6, 49049, Note_on_c, 0, 67, 0
6, 49050, Note_on_c, 0, 71, 100
6, 49079, Note_on_c, 0, 71, 0
6, 49080, Note_on_c, 0, 67, 100
6, 49109, Note_on_c, 0, 67, 0
6, 49110, Note_on_c, 0, 62, 100
6, 49139, Note_on_c, 0, 62, 0
6, 49140, Note_on_c, 0, 67, 100
6, 49169, Note_on_c, 0, 67, 0
6, 49170, Note_on_c, 0, 71, 100
6, 49199, Note_on_c, 0, 71, 0
6, 49200, Note_on_c, 0, 65, 100
6, 49229, Note_on_c, 0, 65, 0
6, 49230, Note_on_c, 0, 60, 100
6, 49259, Note_on_c, 0, 60, 0
6, 49260, Note_on_c, 0, 65, 100
6, 49289, Note_on_c, 0, 65, 0
6, 49290, Note_on_c, 0, 69, 100
6, 49319, Note_on_c, 0, 69, 0
6, 49320, Note_on_c, 0, 65, 100
6, 49349, Note_on_c, 0, 65, 0
6, 49350, Note_on_c, 0, 60, 100
6, 49379, Note_on_c, 0, 60, 0
6, 49380, Note_on_c, 0, 65, 100
6, 49409, Note_on_c, 0, 65, 0
6, 49410, Note_on_c, 0, 69, 100
6, 49439, Note_on_c, 0, 69, 0
6, 49440, Note_on_c, 0, 69, 100
6, 49469, Note_on_c, 0, 69, 0
6, 49470, Note_on_c, 0, 64, 100
6, 49499, Note_on_c, 0, 64, 0
6, 49500, Note_on_c, 0, 69, 100
6, 49529, Note_on_c, 0, 69, 0
6, 49530, Note_on_c, 0, 72, 100
6, 49559, Note_on_c, 0, 72, 0
6, 49560, Note_on_c, 0, 69, 100
6, 49589, Note_on_c, 0, 69, 0
6, 49590, Note_on_c, 0, 64, 100
6, 49619, Note_on_c, 0, 64, 0
6, 49620, Note_on_c, 0, 69, 100
6, 49649, Note_on_c, 0, 69, 0
6, 49650, Note_on_c, 0, 72, 100
6, 49679, Note_on_c, 0, 72, 0
6, 49680, Note_on_c, 0, 69, 100
6, 49709, Note_on_c, 0, 69, 0
6, 49710, Note_on_c, 0, 64, 100
6, 49739, Note_on_c, 0, 64, 0
6, 49740, Note_on_c, 0, 69, 100
6, 49769, Note_on_c, 0, 69, 0
6, 49770, Note_on_c, 0, 72, 100
6, 49799, Note_on_c, 0, 72, 0
6, 49800, Note_on_c, 0, 69, 100
6, 49829, Note_on_c, 0, 69, 0
6, 49830, Note_on_c, 0, 64, 100
6, 49859, Note_on_c, 0, 64, 0
6, 49860, Note_on_c, 0, 69, 100
6, 49889, Note_on_c, 0, 69, 0
6, 49890, Note_on_c, 0, 72, 100
6, 49919, Note_on_c, 0, 72, 0
6, 49920, Note_on_c, 0, 69, 100
6, 49949, Note_on_c, 0, 69, 0
6, 49950, Note_on_c, 0, 64, 100
6, 49979, Note_on_c, 0, 64, 0
6, 49980, Note_on_c, 0, 69, 100
6, 50009, Note_on_c, 0, 69, 0
6, 50010, Note_on_c, 0, 72, 100
6, 50039, Note_on_c, 0, 72, 0
6, 50040, Note_on_c, 0, 69, 100
6, 50069, Note_on_c, 0, 69, 0
6, 50070, Note_on_c, 0, 64, 100
6, 50099, Note_on_c, 0, 64, 0
6, 50100, Note_on_c, 0, 69, 100
6, 50129, Note_on_c, 0, 69, 0
6, 50130, Note_on_c, 0, 72, 100
6, 50159, Note_on_c, 0, 72, 0
6, 50160, Note_on_c, 0, 69, 100
6, 50189, Note_on_c, 0, 69, 0
6, 50190, Note_on_c, 0, 64, 100
6, 50219, Note_on_c, 0, 64, 0
6, 50220, Note_on_c, 0, 69, 100
6, 50249, Note_on_c, 0, 69, 0
6, 50250, Note_on_c, 0, 72, 100
6, 50279, Note_on_c, 0, 72, 0
6, 50280, Note_on_c, 0, 69, 100
6, 50309, Note_on_c, 0, 69, 0
6, 50310, Note_on_c, 0, 64, 100
6, 50339, Note_on_c, 0, 64, 0
6, 50340, Note_on_c, 0, 69, 100
6, 50369, Note_on_c, 0, 69, 0
6, 50370, Note_on_c, 0, 72, 100
6, 50399, Note_on_c, 0, 72, 0
6, 50400, Note_on_c, 0, 69, 100
6, 50429, Note_on_c, 0, 69, 0
6, 50430, Note_on_c, 0, 64, 100
6, 50459, Note_on_c, 0, 64, 0
6, 50460, Note_on_c, 0, 69, 100
6, 50489, Note_on_c, 0, 69, 0
6, 50490, Note_on_c, 0, 72, 100
6, 50519, Note_on_c, 0, 72, 0
6, 50520, Note_on_c, 0, 69, 100
6, 50549, Note_on_c, 0, 69, 0
6, 50550, Note_on_c, 0, 64, 100
6, 50579, Note_on_c, 0, 64, 0
6, 50580, Note_on_c, 0, 69, 100
6, 50609, Note_on_c, 0, 69, 0
6, 50610, Note_on_c, 0, 72, 100
6, 50639, Note_on_c, 0, 72, 0
6, 50640, Note_on_c, 0, 69, 100
6, 50669, Note_on_c, 0, 69, 0
6, 50670, Note_on_c, 0, 64, 100
6, 50699, Note_on_c, 0, 64, 0
6, 50700, Note_on_c, 0, 69, 100
6, 50729, Note_on_c, 0, 69, 0
6, 50730, Note_on_c, 0, 72, 100
6, 50759, Note_on_c, 0, 72, 0
6, 50760, Note_on_c, 0, 69, 100
6, 50789, Note_on_c, 0, 69, 0
6, 50790, Note_on_c, 0, 64, 100
6, 50819, Note_on_c, 0, 64, 0
6, 50820, Note_on_c, 0, 69, 100
6, 50849, Note_on_c, 0, 69, 0
6, 50850, Note_on_c, 0, 72, 100
6, 50879, Note_on_c, 0, 72, 0
6, 50880, Note_on_c, 0, 67, 100
6, 50909, Note_on_c, 0, 67, 0
6, 50910, Note_on_c, 0, 62, 100
6, 50939, Note_on_c, 0, 62, 0
6, 50940, Note_on_c, 0, 67, 100
6, 50969, Note_on_c, 0, 67, 0
6, 50970, Note_on_c, 0, 71, 100
6, 50999, Note_on_c, 0, 71, 0
6, 51000, Note_on_c, 0, 67, 100
6, 51029, Note_on_c, 0, 67, 0
6, 51030, Note_on_c, 0, 62, 100
6, 51059, Note_on_c, 0, 62, 0
6, 51060, Note_on_c, 0, 67, 100
6, 51089, Note_on_c, 0, 67, 0
6, 51090, Note_on_c, 0, 71, 100
6, 51119, Note_on_c, 0, 71, 0
6, 51120, Note_on_c, 0, 65, 100
6, 51149, Note_on_c, 0, 65, 0
6, 51150, Note_on_c, 0, 60, 100
6, 51179, Note_on_c, 0, 60, 0
6, 51180, Note_on_c, 0, 65, 100
6, 51209, Note_on_c, 0, 65, 0
6, 51210, Note_on_c, 0, 69, 100
6, 51239, Note_on_c, 0, 69, 0
6, 51240, Note_on_c, 0, 65, 100
6, 51269, Note_on_c, 0, 65, 0
6, 51270, Note_on_c, 0, 60, 100
6, 51299, Note_on_c, 0, 60, 0
6, 51300, Note_on_c, 0, 65, 100
6, 51329, Note_on_c, 0, 65, 0
6, 51330, Note_on_c, 0, 69, 100
6, 51359, Note_on_c, 0, 69, 0
6, 51360, Note_on_c, 0, 69, 100
6, 51389, Note_on_c, 0, 69, 0
6, 51390, Note_on_c, 0, 64, 100
6, 51419, Note_on_c, 0, 64, 0
6, 51420, Note_on_c, 0, 69, 100
6, 51449, Note_on_c, 0, 69, 0
6, 51450, Note_on_c, 0, 72, 100
6, 51479, Note_on_c, 0, 72, 0
6, 51480, Note_on_c, 0, 69, 100
6, 51509, Note_on_c, 0, 69, 0
6, 51510, Note_on_c, 0, 64, 100
6, 51539, Note_on_c, 0, 64, 0
6, 51540, Note_on_c, 0, 69, 100
6, 51569, Note_on_c, 0, 69, 0
6, 51570, Note_on_c, 0, 72, 100
6, 51599, Note_on_c, 0, 72, 0
6, 51600, Note_on_c, 0, 69, 100
6, 51629, Note_on_c, 0, 69, 0
6, 51630, Note_on_c, 0, 64, 100
6, 51659, Note_on_c, 0, 64, 0
6, 51660, Note_on_c, 0, 69, 100
6, 51689, Note_on_c, 0, 69, 0
6, 51690, Note_on_c, 0, 72, 100
6, 51719, Note_on_c, 0, 72, 0
6, 51720, Note_on_c, 0, 69, 100
6, 51749, Note_on_c, 0, 69, 0
6, 51750, Note_on_c, 0, 64, 100
6, 51779, Note_on_c, 0, 64, 0
6, 51780, Note_on_c, 0, 69, 100
6, 51809, Note_on_c, 0, 69, 0
6, 51810, Note_on_c, 0, 72, 100
6, 51839, Note_on_c, 0, 72, 0
6, 51840, Note_on_c, 0, 69, 100
6, 51869, Note_on_c, 0, 69, 0
6, 51870, Note_on_c, 0, 64, 100
6, 51899, Note_on_c, 0, 64, 0
6, 51900, Note_on_c, 0, 69, 100
6, 51929, Note_on_c, 0, 69, 0
6, 51930, Note_on_c, 0, 72, 100
6, 51959, Note_on_c, 0, 72, 0
6, 51960, Note_on_c, 0, 69, 100
6, 51989, Note_on_c, 0, 69, 0
6, 51990, Note_on_c, 0, 64, 100
6, 52019, Note_on_c, 0, 64, 0
6, 52020, Note_on_c, 0, 69, 100
6, 52049, Note_on_c, 0, 69, 0
6, 52050, Note_on_c, 0, 72, 100
6, 52079, Note_on_c, 0, 72, 0
6, 52080, Note_on_c, 0, 69, 100
6, 52109, Note_on_c, 0, 69, 0
6, 52110, Note_on_c, 0, 64, 100
6, 52139, Note_on_c, 0, 64, 0
6, 52140, Note_on_c, 0, 69, 100
6, 52169, Note_on_c, 0, 69, 0
6, 52170, Note_on_c, 0, 72, 100
6, 52199, Note_on_c, 0, 72, 0
6, 52200, Note_on_c, 0, 69, 100
6, 52229, Note_on_c, 0, 69, 0
6, 52230, Note_on_c, 0, 64, 100
6, 52259, Note_on_c, 0, 64, 0
6, 52260, Note_on_c, 0, 69, 100
6, 52289, Note_on_c, 0, 69, 0
6, 52290, Note_on_c, 0, 72, 100
6, 52319, Note_on_c, 0, 72, 0
6, 52320, Note_on_c, 0, 69, 100
6, 52349, Note_on_c, 0, 69, 0
6, 52350, Note_on_c, 0, 64, 100
6, 52379, Note_on_c, 0, 64, 0
6, 52380, Note_on_c, 0, 69, 100
6, 52409, Note_on_c, 0, 69, 0
6, 52410, Note_on_c, 0, 72, 100
6, 52439, Note_on_c, 0, 72, 0
6, 52440, Note_on_c, 0, 69, 100
6, 52469, Note_on_c, 0, 69, 0
6, 52470, Note_on_c, 0, 64, 100
6, 52499, Note_on_c, 0, 64, 0
6, 52500, Note_on_c, 0, 69, 100
6, 52529, Note_on_c, 0, 69, 0
6, 52530, Note_on_c, 0, 72, 100
6, 52559, Note_on_c, 0, 72, 0
6, 52560, Note_on_c, 0, 69, 100
6, 52589, Note_on_c, 0, 69, 0
6, 52590, Note_on_c, 0, 64, 100
6, 52619, Note_on_c, 0, 64, 0
6, 52620, Note_on_c, 0, 69, 100
6, 52649, Note_on_c, 0, 69, 0
6, 52650, Note_on_c, 0, 72, 100
6, 52679, Note_on_c, 0, 72, 0
6, 52680, Note_on_c, 0, 69, 100
6, 52709, Note_on_c, 0, 69, 0
6, 52710, Note_on_c, 0, 64, 100
6, 52739, Note_on_c, 0, 64, 0
6, 52740, Note_on_c, 0, 69, 100
6, 52769, Note_on_c, 0, 69, 0
6, 52770, Note_on_c, 0, 72, 100
6, 52799, Note_on_c, 0, 72, 0
6, 52800, Note_on_c, 0, 67, 100
6, 52829, Note_on_c, 0, 67, 0
6, 52830, Note_on_c, 0, 62, 100
6, 52859, Note_on_c, 0, 62, 0
6, 52860, Note_on_c, 0, 67, 100
6, 52889, Note_on_c, 0, 67, 0
6, 52890, Note_on_c, 0, 71, 100
6, 52919, Note_on_c, 0, 71, 0
6, 52920, Note_on_c, 0, 67, 100
6, 52949, Note_on_c, 0, 67, 0
6, 52950, Note_on_c, 0, 62, 100
6, 52979, Note_on_c, 0, 62, 0
6, 52980, Note_on_c, 0, 67, 100
6, 53009, Note_on_c, 0, 67, 0
6, 53010, Note_on_c, 0, 71, 100
6, 53039, Note_on_c, 0, 71, 0
6, 53040, Note_on_c, 0, 65, 100
6, 53069, Note_on_c, 0, 65, 0
6, 53070, Note_on_c, 0, 60, 100
6, 53099, Note_on_c, 0, 60, 0
6, 53100, Note_on_c, 0, 65, 100
6, 53129, Note_on_c, 0, 65, 0
6, 53130, Note_on_c, 0, 69, 100
6, 53159, Note_on_c, 0, 69, 0
6, 53160, Note_on_c, 0, 65, 100
6, 53189, Note_on_c, 0, 65, 0
6, 53190, Note_on_c, 0, 60, 100
6, 53219, Note_on_c, 0, 60, 0
6, 53220, Note_on_c, 0, 65, 100
6, 53249, Note_on_c, 0, 65, 0
6, 53250, Note_on_c, 0, 69, 100
6, 53279, Note_on_c, 0, 69, 0
6, 53280, Note_on_c, 0, 69, 100
6, 53309, Note_on_c, 0, 69, 0
6, 53310, Note_on_c, 0, 64, 100
6, 53339, Note_on_c, 0, 64, 0
6, 53340, Note_on_c, 0, 69, 100
6, 53369, Note_on_c, 0, 69, 0
6, 53370, Note_on_c, 0, 72, 100
6, 53399, Note_on_c, 0, 72, 0
6, 53400, Note_on_c, 0, 69, 100
6, 53429, Note_on_c, 0, 69, 0
6, 53430, Note_on_c, 0, 64, 100
6, 53459, Note_on_c, 0, 64, 0
6, 53460, Note_on_c, 0, 69, 100
6, 53489, Note_on_c, 0, 69, 0
6, 53490, Note_on_c, 0, 72, 100
6, 53519, Note_on_c, 0, 72, 0
6, 53520, Note_on_c, 0, 69, 100
6, 53549, Note_on_c, 0, 69, 0
6, 53550, Note_on_c, 0, 64, 100
6, 53579, Note_on_c, 0, 64, 0
6, 53580, Note_on_c, 0, 69, 100
6, 53609, Note_on_c, 0, 69, 0
6, 53610, Note_on_c, 0, 72, 100
6, 53639, Note_on_c, 0, 72, 0
6, 53640, Note_on_c, 0, 69, 100
6, 53669, Note_on_c, 0, 69, 0
6, 53670, Note_on_c, 0, 64, 100
6, 53699, Note_on_c, 0, 64, 0
6, 53700, Note_on_c, 0, 69, 100
6, 53729, Note_on_c, 0, 69, 0
6, 53730, Note_on_c, 0, 72, 100
6, 53759, Note_on_c, 0, 72, 0
6, 53760, Note_on_c, 0, 69, 100
6, 53789, Note_on_c, 0, 69, 0
6, 53790, Note_on_c, 0, 64, 100
6, 53819, Note_on_c, 0, 64, 0
6, 53820, Note_on_c, 0, 69, 100
6, 53849, Note_on_c, 0, 69, 0
6, 53850, Note_on_c, 0, 72, 100
6, 53879, Note_on_c, 0, 72, 0
6, 53880, Note_on_c, 0, 69, 100
6, 53909, Note_on_c, 0, 69, 0
6, 53910, Note_on_c, 0, 64, 100
6, 53939, Note_on_c, 0, 64, 0
6, 53940, Note_on_c, 0, 69, 100
6, 53969, Note_on_c, 0, 69, 0
6, 53970, Note_on_c, 0, 72, 100
6, 53999, Note_on_c, 0, 72, 0
6, 54000, Note_on_c, 0, 69, 100
6, 54029, Note_on_c, 0, 69, 0
6, 54030, Note_on_c, 0, 64, 100
6, 54059, Note_on_c, 0, 64, 0
6, 54060, Note_on_c, 0, 69, 100
6, 54089, Note_on_c, 0, 69, 0
6, 54090, Note_on_c, 0, 72, 100
6, 54119, Note_on_c, 0, 72, 0
6, 54120, Note_on_c, 0, 69, 100
6, 54149, Note_on_c, 0, 69, 0
6, 54150, Note_on_c, 0, 64, 100
6, 54179, Note_on_c, 0, 64, 0
6, 54180, Note_on_c, 0, 69, 100
6, 54209, Note_on_c, 0, 69, 0
6, 54210, Note_on_c, 0, 72, 100
6, 54239, Note_on_c, 0, 72, 0
6, 54240, Note_on_c, 0, 69, 100
6, 54269, Note_on_c, 0, 69, 0
6, 54270, Note_on_c, 0, 64, 100
6, 54299, Note_on_c, 0, 64, 0
6, 54300, Note_on_c, 0, 69, 100
6, 54329, Note_on_c, 0, 69, 0
6, 54330, Note_on_c, 0, 72, 100
6, 54359, Note_on_c, 0, 72, 0
6, 54360, Note_on_c, 0, 69, 100
6, 54389, Note_on_c, 0, 69, 0
6, 54390, Note_on_c, 0, 64, 100
6, 54419, Note_on_c, 0, 64, 0
6, 54420, Note_on_c, 0, 69, 100
6, 54449, Note_on_c, 0, 69, 0
6, 54450, Note_on_c, 0, 72, 100
6, 54479, Note_on_c, 0, 72, 0
6, 54480, Note_on_c, 0, 69, 100
6, 54509, Note_on_c, 0, 69, 0
6, 54510, Note_on_c, 0, 64, 100
6, 54539, Note_on_c, 0, 64, 0
6, 54540, Note_on_c, 0, 69, 100
6, 54569, Note_on_c, 0, 69, 0
6, 54570, Note_on_c, 0, 72, 100
6, 54599, Note_on_c, 0, 72, 0
6, 54600, Note_on_c, 0, 69, 100
6, 54629, Note_on_c, 0, 69, 0
6, 54630, Note_on_c, 0, 64, 100
6, 54659, Note_on_c, 0, 64, 0
6, 54660, Note_on_c, 0, 69, 100
6, 54689, Note_on_c, 0, 69, 0
6, 54690, Note_on_c, 0, 72, 100
6, 54719, Note_on_c, 0, 72, 0
6, 54720, Note_on_c, 0, 67, 100
6, 54749, Note_on_c, 0, 67, 0
6, 54750, Note_on_c, 0, 62, 100
6, 54779, Note_on_c, 0, 62, 0
6, 54780, Note_on_c, 0, 67, 100
6, 54809, Note_on_c, 0, 67, 0
6, 54810, Note_on_c, 0, 71, 100
6, 54839, Note_on_c, 0, 71, 0
6, 54840, Note_on_c, 0, 67, 100
6, 54869, Note_on_c, 0, 67, 0
6, 54870, Note_on_c, 0, 62, 100
6, 54899, Note_on_c, 0, 62, 0
6, 54900, Note_on_c, 0, 67, 100
6, 54929, Note_on_c, 0, 67, 0
6, 54930, Note_on_c, 0, 71, 100
6, 54959, Note_on_c, 0, 71, 0
6, 54960, Note_on_c, 0, 65, 100
6, 54989, Note_on_c, 0, 65, 0
6, 54990, Note_on_c, 0, 60, 100
6, 55019, Note_on_c, 0, 60, 0
6, 55020, Note_on_c, 0, 65, 100
6, 55049, Note_on_c, 0, 65, 0
6, 55050, Note_on_c, 0, 69, 100
6, 55079, Note_on_c, 0, 69, 0
6, 55080, Note_on_c, 0, 65, 100
6, 55109, Note_on_c, 0, 65, 0
6, 55110, Note_on_c, 0, 60, 100
6, 55139, Note_on_c, 0, 60, 0
6, 55140, Note_on_c, 0, 65, 100
6, 55169, Note_on_c, 0, 65, 0
6, 55170, Note_on_c, 0, 69, 100
6, 55199, Note_on_c, 0, 69, 0
6, 55200, Note_on_c, 0, 69, 100
6, 55229, Note_on_c, 0, 69, 0
6, 55230, Note_on_c, 0, 64, 100
6, 55259, Note_on_c, 0, 64, 0
6, 55260, Note_on_c, 0, 69, 100
6, 55289, Note_on_c, 0, 69, 0
6, 55290, Note_on_c, 0, 72, 100
6, 55319, Note_on_c, 0, 72, 0
6, 55320, Note_on_c, 0, 69, 100
6, 55349, Note_on_c, 0, 69, 0
6, 55350, Note_on_c, 0, 64, 100
6, 55379, Note_on_c, 0, 64, 0
6, 55380, Note_on_c, 0, 69, 100
6, 55409, Note_on_c, 0, 69, 0
6, 55410, Note_on_c, 0, 72, 100
6, 55439, Note_on_c, 0, 72, 0
6, 55440, Note_on_c, 0, 69, 100
6, 55469, Note_on_c, 0, 69, 0
6, 55470, Note_on_c, 0, 64, 100
6, 55499, Note_on_c, 0, 64, 0
6, 55500, Note_on_c, 0, 69, 100
6, 55529, Note_on_c, 0, 69, 0
6, 55530, Note_on_c, 0, 72, 100
6, 55559, Note_on_c, 0, 72, 0
6, 55560, Note_on_c, 0, 69, 100
6, 55589, Note_on_c, 0, 69, 0
6, 55590, Note_on_c, 0, 64, 100
6, 55619, Note_on_c, 0, 64, 0
6, 55620, Note_on_c, 0, 69, 100
6, 55649, Note_on_c, 0, 69, 0
6, 55650, Note_on_c, 0, 72, 100
6, 55679, Note_on_c, 0, 72, 0
6, 55680, Note_on_c, 0, 69, 100
6, 55709, Note_on_c, 0, 69, 0
6, 55710, Note_on_c, 0, 64, 100
6, 55739, Note_on_c, 0, 64, 0
6, 55740, Note_on_c, 0, 69, 100
6, 55769, Note_on_c, 0, 69, 0
6, 55770, Note_on_c, 0, 72, 100
6, 55799, Note_on_c, 0, 72, 0
6, 55800, Note_on_c, 0, 69, 100
6, 55829, Note_on_c, 0, 69, 0
6, 55830, Note_on_c, 0, 64, 100
6, 55859, Note_on_c, 0, 64, 0
6, 55860, Note_on_c, 0, 69, 100
6, 55889, Note_on_c, 0, 69, 0
6, 55890, Note_on_c, 0, 72, 100
6, 55919, Note_on_c, 0, 72, 0
6, 55920, Note_on_c, 0, 69, 100
6, 55949, Note_on_c, 0, 69, 0
6, 55950, Note_on_c, 0, 64, 100
6, 55979, Note_on_c, 0, 64, 0
6, 55980, Note_on_c, 0, 69, 100
6, 56009, Note_on_c, 0, 69, 0
6, 56010, Note_on_c, 0, 72, 100
6, 56039, Note_on_c, 0, 72, 0
6, 56040, Note_on_c, 0, 69, 100
6, 56069, Note_on_c, 0, 69, 0
6, 56070, Note_on_c, 0, 64, 100
6, 56099, Note_on_c, 0, 64, 0
6, 56100, Note_on_c, 0, 69, 100
6, 56129, Note_on_c, 0, 69, 0
6, 56130, Note_on_c, 0, 72, 100
6, 56159, Note_on_c, 0, 72, 0
6, 56160, Note_on_c, 0, 72, 100
6, 56189, Note_on_c, 0, 72, 0
6, 56190, Note_on_c, 0, 67, 100
6, 56219, Note_on_c, 0, 67, 0
6, 56220, Note_on_c, 0, 72, 100
6, 56249, Note_on_c, 0, 72, 0
6, 56250, Note_on_c, 0, 76, 100
6, 56279, Note_on_c, 0, 76, 0
6, 56280, Note_on_c, 0, 72, 100
6, 56309, Note_on_c, 0, 72, 0
6, 56310, Note_on_c, 0, 67, 100
6, 56339, Note_on_c, 0, 67, 0
6, 56340, Note_on_c, 0, 72, 100
6, 56369, Note_on_c, 0, 72, 0
6, 56370, Note_on_c, 0, 76, 100
6, 56399, Note_on_c, 0, 76, 0
6, 56400, Note_on_c, 0, 72, 100
6, 56429, Note_on_c, 0, 72, 0
6, 56430, Note_on_c, 0, 67, 100
6, 56459, Note_on_c, 0, 67, 0
6, 56460, Note_on_c, 0, 72, 100
6, 56489, Note_on_c, 0, 72, 0
6, 56490, Note_on_c, 0, 76, 100
6, 56519, Note_on_c, 0, 76, 0
6, 56520, Note_on_c, 0, 72, 100
6, 56549, Note_on_c, 0, 72, 0
6, 56550, Note_on_c, 0, 67, 100
6, 56579, Note_on_c, 0, 67, 0
6, 56580, Note_on_c, 0, 72, 100
6, 56609, Note_on_c, 0, 72, 0
6, 56610, Note_on_c, 0, 76, 100
6, 56639, Note_on_c, 0, 76, 0
6, 56640, Note_on_c, 0, 65, 100
6, 56669, Note_on_c, 0, 65, 0
6, 56670, Note_on_c, 0, 60, 100
6, 56699, Note_on_c, 0, 60, 0
6, 56700, Note_on_c, 0, 65, 100
6, 56729, Note_on_c, 0, 65, 0
6, 56730, Note_on_c, 0, 69, 100
6, 56759, Note_on_c, 0, 69, 0
6, 56760, Note_on_c, 0, 65, 100
6, 56789, Note_on_c, 0, 65, 0
6, 56790, Note_on_c, 0, 60, 100
6, 56819, Note_on_c, 0, 60, 0
6, 56820, Note_on_c, 0, 65, 100
6, 56849, Note_on_c, 0, 65, 0
6, 56850, Note_on_c, 0, 69, 100
6, 56879, Note_on_c, 0, 69, 0
6, 56880, Note_on_c, 0, 65, 100
6, 56909, Note_on_c, 0, 65, 0
6, 56910, Note_on_c, 0, 60, 100
6, 56939, Note_on_c, 0, 60, 0
6, 56940, Note_on_c, 0, 65, 100
6, 56969, Note_on_c, 0, 65, 0
6, 56970, Note_on_c, 0, 69, 100
6, 56999, Note_on_c, 0, 69, 0
6, 57000, Note_on_c, 0, 65, 100
6, 57029, Note_on_c, 0, 65, 0
6, 57030, Note_on_c, 0, 60, 100
6, 57059, Note_on_c, 0, 60, 0
6, 57060, Note_on_c, 0, 65, 100
6, 57089, Note_on_c, 0, 65, 0
6, 57090, Note_on_c, 0, 69, 100
6, 57119, Note_on_c, 0, 69, 0
6, 57120, Note_on_c, 0, 62, 100
6, 57149, Note_on_c, 0, 62, 0
6, 57150, Note_on_c, 0, 57, 100
6, 57179, Note_on_c, 0, 57, 0
6, 57180, Note_on_c, 0, 62, 100
6, 57209, Note_on_c, 0, 62, 0
6, 57210, Note_on_c, 0, 65, 100
6, 57239, Note_on_c, 0, 65, 0
6, 57240, Note_on_c, 0, 62, 100
6, 57269, Note_on_c, 0, 62, 0
6, 57270, Note_on_c, 0, 57, 100
6, 57299, Note_on_c, 0, 57, 0
6, 57300, Note_on_c, 0, 62, 100
6, 57329, Note_on_c, 0, 62, 0
6, 57330, Note_on_c, 0, 65, 100
6, 57359, Note_on_c, 0, 65, 0
6, 57360, Note_on_c, 0, 64, 100
6, 57389, Note_on_c, 0, 64, 0
6, 57390, Note_on_c, 0, 59, 100
6, 57419, Note_on_c, 0, 59, 0
6, 57420, Note_on_c, 0, 64, 100
6, 57449, Note_on_c, 0, 64, 0
6, 57450, Note_on_c, 0, 68, 100
6, 57479, Note_on_c, 0, 68, 0
6, 57480, Note_on_c, 0, 64, 100
6, 57509, Note_on_c, 0, 64, 0
6, 57510, Note_on_c, 0, 59, 100
6, 57539, Note_on_c, 0, 59, 0
6, 57540, Note_on_c, 0, 64, 100
6, 57569, Note_on_c, 0, 64, 0
6, 57570, Note_on_c, 0, 68, 100
6, 57599, Note_on_c, 0, 68, 0
6, 57600, Note_on_c, 0, 69, 100
6, 57629, Note_on_c, 0, 69, 0
6, 57630, Note_on_c, 0, 64, 100
6, 57659, Note_on_c, 0, 64, 0
6, 57660, Note_on_c, 0, 69, 100
6, 57689, Note_on_c, 0, 69, 0
6, 57690, Note_on_c, 0, 72, 100
6, 57719, Note_on_c, 0, 72, 0
6, 57720, Note_on_c, 0, 69, 100
6, 57749, Note_on_c, 0, 69, 0
6, 57750, Note_on_c, 0, 64, 100
6, 57779, Note_on_c, 0, 64, 0
6, 57780, Note_on_c, 0, 69, 100
6, 57809, Note_on_c, 0, 69, 0
6, 57810, Note_on_c, 0, 72, 100
6, 57839, Note_on_c, 0, 72, 0
6, 57840, Note_on_c, 0, 69, 100
6, 57869, Note_on_c, 0, 69, 0
6, 57870, Note_on_c, 0, 64, 100
6, 57899, Note_on_c, 0, 64, 0
6, 57900, Note_on_c, 0, 69, 100
6, 57929, Note_on_c, 0, 69, 0
6, 57930, Note_on_c, 0, 72, 100
6, 57959, Note_on_c, 0, 72, 0
6, 57960, Note_on_c, 0, 69, 100
6, 57989, Note_on_c, 0, 69, 0
6, 57990, Note_on_c, 0, 64, 100
6, 58019, Note_on_c, 0, 64, 0
6, 58020, Note_on_c, 0, 69, 100
6, 58049, Note_on_c, 0, 69, 0
6, 58050, Note_on_c, 0, 72, 100
6, 58079, Note_on_c, 0, 72, 0
6, 58080, Note_on_c, 0, 72, 100
6, 58109, Note_on_c, 0, 72, 0
6, 58110, Note_on_c, 0, 67, 100
6, 58139, Note_on_c, 0, 67, 0
6, 58140, Note_on_c, 0, 72, 100
6, 58169, Note_on_c, 0, 72, 0
6, 58170, Note_on_c, 0, 76, 100
6, 58199, Note_on_c, 0, 76, 0
6, 58200, Note_on_c, 0, 72, 100
6, 58229, Note_on_c, 0, 72, 0
6, 58230, Note_on_c, 0, 67, 100
6, 58259, Note_on_c, 0, 67, 0
6, 58260, Note_on_c, 0, 72, 100
6, 58289, Note_on_c, 0, 72, 0
6, 58290, Note_on_c, 0, 76, 100
6, 58319, Note_on_c, 0, 76, 0
6, 58320, Note_on_c, 0, 72, 100
6, 58349, Note_on_c, 0, 72, 0
6, 58350, Note_on_c, 0, 67, 100
6, 58379, Note_on_c, 0, 67, 0
6, 58380, Note_on_c, 0, 72, 100
6, 58409, Note_on_c, 0, 72, 0
6, 58410, Note_on_c, 0, 76, 100
6, 58439, Note_on_c, 0, 76, 0
6, 58440, Note_on_c, 0, 72, 100
6, 58469, Note_on_c, 0, 72, 0
6, 58470, Note_on_c, 0, 67, 100
6, 58499, Note_on_c, 0, 67, 0
6, 58500, Note_on_c, 0, 72, 100
6, 58529, Note_on_c, 0, 72, 0
6, 58530, Note_on_c, 0, 76, 100
6, 58559, Note_on_c, 0, 76, 0
6, 58560, Note_on_c, 0, 65, 100
6, 58589, Note_on_c, 0, 65, 0
6, 58590, Note_on_c, 0, 60, 100
6, 58619, Note_on_c, 0, 60, 0
6, 58620, Note_on_c, 0, 65, 100
6, 58649, Note_on_c, 0, 65, 0
6, 58650, Note_on_c, 0, 69, 100
6, 58679, Note_on_c, 0, 69, 0
6, 58680, Note_on_c, 0, 65, 100
6, 58709, Note_on_c, 0, 65, 0
6, 58710, Note_on_c, 0, 60, 100
6, 58739, Note_on_c, 0, 60, 0
6, 58740, Note_on_c, 0, 65, 100
6, 58769, Note_on_c, 0, 65, 0
6, 58770, Note_on_c, 0, 69, 100
6, 58799, Note_on_c, 0, 69, 0
6, 58800, Note_on_c, 0, 65, 100
6, 58829, Note_on_c, 0, 65, 0
6, 58830, Note_on_c, 0, 60, 100
6, 58859, Note_on_c, 0, 60, 0
6, 58860, Note_on_c, 0, 65, 100
6, 58889, Note_on_c, 0, 65, 0
6, 58890, Note_on_c, 0, 69, 100
6, 58919, Note_on_c, 0, 69, 0
6, 58920, Note_on_c, 0, 65, 100
6, 58949, Note_on_c, 0, 65, 0
6, 58950, Note_on_c, 0, 60, 100
6, 58979, Note_on_c, 0, 60, 0
6, 58980, Note_on_c, 0, 65, 100
6, 59009, Note_on_c, 0, 65, 0
6, 59010, Note_on_c, 0, 69, 100
6, 59039, Note_on_c, 0, 69, 0
6, 59040, Note_on_c, 0, 62, 100
6, 59069, Note_on_c, 0, 62, 0
6, 59070, Note_on_c, 0, 57, 100
6, 59099, Note_on_c, 0, 57, 0
6, 59100, Note_on_c, 0, 62, 100
6, 59129, Note_on_c, 0, 62, 0
6, 59130, Note_on_c, 0, 65, 100
6, 59159, Note_on_c, 0, 65, 0
6, 59160, Note_on_c, 0, 62, 100
6, 59189, Note_on_c, 0, 62, 0
6, 59190, Note_on_c, 0, 57, 100
6, 59219, Note_on_c, 0, 57, 0
6, 59220, Note_on_c, 0, 62, 100
6, 59249, Note_on_c, 0, 62, 0
6, 59250, Note_on_c, 0, 65, 100
6, 59279, Note_on_c, 0, 65, 0
6, 59280, Note_on_c, 0, 64, 100
6, 59309, Note_on_c, 0, 64, 0
6, 59310, Note_on_c, 0, 59, 100
6, 59339, Note_on_c, 0, 59, 0
6, 59340, Note_on_c, 0, 64, 100
6, 59369, Note_on_c, 0, 64, 0
6, 59370, Note_on_c, 0, 68, 100
6, 59399, Note_on_c, 0, 68, 0
6, 59400, Note_on_c, 0, 64, 100
6, 59429, Note_on_c, 0, 64, 0
6, 59430, Note_on_c, 0, 59, 100
6, 59459, Note_on_c, 0, 59, 0
6, 59460, Note_on_c, 0, 64, 100
6, 59489, Note_on_c, 0, 64, 0
6, 59490, Note_on_c, 0, 68, 100
6, 59519, Note_on_c, 0, 68, 0
6, 59520, Note_on_c, 0, 69, 100
6, 59549, Note_on_c, 0, 69, 0
6, 59550, Note_on_c, 0, 64, 100
6, 59579, Note_on_c, 0, 64, 0
6, 59580, Note_on_c, 0, 69, 100
6, 59609, Note_on_c, 0, 69, 0
6, 59610, Note_on_c, 0, 72, 100
6, 59639, Note_on_c, 0, 72, 0
6, 59640, Note_on_c, 0, 69, 100
6, 59669, Note_on_c, 0, 69, 0
6, 59670, Note_on_c, 0, 64, 100
6, 59699, Note_on_c, 0, 64, 0
6, 59700, Note_on_c, 0, 69, 100
6, 59729, Note_on_c, 0, 69, 0
6, 59730, Note_on_c, 0, 72, 100
6, 59759, Note_on_c, 0, 72, 0
6, 59760, Note_on_c, 0, 69, 100
6, 59789, Note_on_c, 0, 69, 0
6, 59790, Note_on_c, 0, 64, 100
6, 59819, Note_on_c, 0, 64, 0
6, 59820, Note_on_c, 0, 69, 100
6, 59849, Note_on_c, 0, 69, 0
6, 59850, Note_on_c, 0, 72, 100
6, 59879, Note_on_c, 0, 72, 0
6, 59880, Note_on_c, 0, 69, 100
6, 59909, Note_on_c, 0, 69, 0
6, 59910, Note_on_c, 0, 64, 100
6, 59939, Note_on_c, 0, 64, 0
6, 59940, Note_on_c, 0, 69, 100
6, 59969, Note_on_c, 0, 69, 0
6, 59970, Note_on_c, 0, 72, 100
6, 59999, Note_on_c, 0, 72, 0
6, 60000, Note_on_c, 0, 72, 100
6, 60029, Note_on_c, 0, 72, 0
6, 60030, Note_on_c, 0, 67, 100
6, 60059, Note_on_c, 0, 67, 0
6, 60060, Note_on_c, 0, 72, 100
6, 60089, Note_on_c, 0, 72, 0
6, 60090, Note_on_c, 0, 76, 100
6, 60119, Note_on_c, 0, 76, 0
6, 60120, Note_on_c, 0, 72, 100
6, 60149, Note_on_c, 0, 72, 0
6, 60150, Note_on_c, 0, 67, 100
6, 60179, Note_on_c, 0, 67, 0
6, 60180, Note_on_c, 0, 72, 100
6, 60209, Note_on_c, 0, 72, 0
6, 60210, Note_on_c, 0, 76, 100
6, 60239, Note_on_c, 0, 76, 0
6, 60240, Note_on_c, 0, 72, 100
6, 60269, Note_on_c, 0, 72, 0
6, 60270, Note_on_c, 0, 67, 100
6, 60299, Note_on_c, 0, 67, 0
6, 60300, Note_on_c, 0, 72, 100
6, 60329, Note_on_c, 0, 72, 0
6, 60330, Note_on_c, 0, 76, 100
6, 60359, Note_on_c, 0, 76, 0
6, 60360, Note_on_c, 0, 72, 100
6, 60389, Note_on_c, 0, 72, 0
6, 60390, Note_on_c, 0, 67, 100
6, 60419, Note_on_c, 0, 67, 0
6, 60420, Note_on_c, 0, 72, 100
6, 60449, Note_on_c, 0, 72, 0
6, 60450, Note_on_c, 0, 76, 100
6, 60479, Note_on_c, 0, 76, 0
6, 60480, Note_on_c, 0, 65, 100
6, 60509, Note_on_c, 0, 65, 0
6, 60510, Note_on_c, 0, 60, 100
6, 60539, Note_on_c, 0, 60, 0
6, 60540, Note_on_c, 0, 65, 100
6, 60569, Note_on_c, 0, 65, 0
6, 60570, Note_on_c, 0, 69, 100
6, 60599, Note_on_c, 0, 69, 0
6, 60600, Note_on_c, 0, 65, 100
6, 60629, Note_on_c, 0, 65, 0
6, 60630, Note_on_c, 0, 60, 100
6, 60659, Note_on_c, 0, 60, 0
6, 60660, Note_on_c, 0, 65, 100
6, 60689, Note_on_c, 0, 65, 0
6, 60690, Note_on_c, 0, 69, 100
6, 60719, Note_on_c, 0, 69, 0
6, 60720, Note_on_c, 0, 65, 100
6, 60749, Note_on_c, 0, 65, 0
6, 60750, Note_on_c, 0, 60, 100
6, 60779, Note_on_c, 0, 60, 0
6, 60780, Note_on_c, 0, 65, 100
6, 60809, Note_on_c, 0, 65, 0
6, 60810, Note_on_c, 0, 69, 100
6, 60839, Note_on_c, 0, 69, 0
6, 60840, Note_on_c, 0, 65, 100
6, 60869, Note_on_c, 0, 65, 0
6, 60870, Note_on_c, 0, 60, 100
6, 60899, Note_on_c, 0, 60, 0
6, 60900, Note_on_c, 0, 65, 100
6, 60929, Note_on_c, 0, 65, 0
6, 60930, Note_on_c, 0, 69, 100
6, 60959, Note_on_c, 0, 69, 0
6, 60960, Note_on_c, 0, 62, 100
6, 60989, Note_on_c, 0, 62, 0
6, 60990, Note_on_c, 0, 57, 100
6, 61019, Note_on_c, 0, 57, 0
6, 61020, Note_on_c, 0, 62, 100
6, 61049, Note_on_c, 0, 62, 0
6, 61050, Note_on_c, 0, 65, 100
6, 61079, Note_on_c, 0, 65, 0
6, 61080, Note_on_c, 0, 62, 100
6, 61109, Note_on_c, 0, 62, 0
6, 61110, Note_on_c, 0, 57, 100
6, 61139, Note_on_c, 0, 57, 0
6, 61140, Note_on_c, 0, 62, 100
6, 61169, Note_on_c, 0, 62, 0
6, 61170, Note_on_c, 0, 65, 100
6, 61199, Note_on_c, 0, 65, 0
6, 61200, Note_on_c, 0, 64, 100
6, 61229, Note_on_c, 0, 64, 0
6, 61230, Note_on_c, 0, 59, 100
6, 61259, Note_on_c, 0, 59, 0
6, 61260, Note_on_c, 0, 64, 100
6, 61289, Note_on_c, 0, 64, 0
6, 61290, Note_on_c, 0, 68, 100
6, 61319, Note_on_c, 0, 68, 0
6, 61320, Note_on_c, 0, 64, 100
6, 61349, Note_on_c, 0, 64, 0
6, 61350, Note_on_c, 0, 59, 100
6, 61379, Note_on_c, 0, 59, 0
6, 61380, Note_on_c, 0, 64, 100
6, 61409, Note_on_c, 0, 64, 0
6, 61410, Note_on_c, 0, 68, 100
6, 61439, Note_on_c, 0, 68, 0
6, 61440, Note_on_c, 0, 69, 100
6, 61469, Note_on_c, 0, 69, 0
6, 61470, Note_on_c, 0, 64, 100
6, 61499, Note_on_c, 0, 64, 0
6, 61500, Note_on_c, 0, 69, 100
6, 61529, Note_on_c, 0, 69, 0
6, 61530, Note_on_c, 0, 72, 100
6, 61559, Note_on_c, 0, 72, 0
6, 61560, Note_on_c, 0, 69, 100
6, 61589, Note_on_c, 0, 69, 0
6, 61590, Note_on_c, 0, 64, 100
6, 61619, Note_on_c, 0, 64, 0
6, 61620, Note_on_c, 0, 69, 100
6, 61649, Note_on_c, 0, 69, 0
6, 61650, Note_on_c, 0, 72, 100
6, 61679, Note_on_c, 0, 72, 0
6, 61680, Note_on_c, 0, 69, 100
6, 61709, Note_on_c, 0, 69, 0
6, 61710, Note_on_c, 0, 64, 100
6, 61739, Note_on_c, 0, 64, 0
6, 61740, Note_on_c, 0, 69, 100
6, 61769, Note_on_c, 0, 69, 0
6, 61770, Note_on_c, 0, 72, 100
6, 61799, Note_on_c, 0, 72, 0
6, 61800, Note_on_c, 0, 69, 100
6, 61829, Note_on_c, 0, 69, 0
6, 61830, Note_on_c, 0, 64, 100
6, 61859, Note_on_c, 0, 64, 0
6, 61860, Note_on_c, 0, 69, 100
6, 61889, Note_on_c, 0, 69, 0
6, 61890, Note_on_c, 0, 72, 100
6, 61919, Note_on_c, 0, 72, 0
6, 61920, Note_on_c, 0, 72, 100
6, 61949, Note_on_c, 0, 72, 0
6, 61950, Note_on_c, 0, 67, 100
6, 61979, Note_on_c, 0, 67, 0
6, 61980, Note_on_c, 0, 72, 100
6, 62009, Note_on_c, 0, 72, 0
6, 62010, Note_on_c, 0, 76, 100
6, 62039, Note_on_c, 0, 76, 0
6, 62040, Note_on_c, 0, 72, 100
6, 62069, Note_on_c, 0, 72, 0
6, 62070, Note_on_c, 0, 67, 100
6, 62099, Note_on_c, 0, 67, 0
6, 62100, Note_on_c, 0, 72, 100
6, 62129, Note_on_c, 0, 72, 0
6, 62130, Note_on_c, 0, 76, 100
6, 62159, Note_on_c, 0, 76, 0
6, 62160, Note_on_c, 0, 72, 100
6, 62189, Note_on_c, 0, 72, 0
6, 62190, Note_on_c, 0, 67, 100
6, 62219, Note_on_c, 0, 67, 0
6, 62220, Note_on_c, 0, 72, 100
6, 62249, Note_on_c, 0, 72, 0
6, 62250, Note_on_c, 0, 76, 100
6, 62279, Note_on_c, 0, 76, 0
6, 62280, Note_on_c, 0, 72, 100
6, 62309, Note_on_c, 0, 72, 0
6, 62310, Note_on_c, 0, 67, 100
6, 62339, Note_on_c, 0, 67, 0
6, 62340, Note_on_c, 0, 72, 100
6, 62369, Note_on_c, 0, 72, 0
6, 62370, Note_on_c, 0, 76, 100
6, 62399, Note_on_c, 0, 76, 0
6, 62400, Note_on_c, 0, 65, 100
6, 62429, Note_on_c, 0, 65, 0
6, 62430, Note_on_c, 0, 60, 100
6, 62459, Note_on_c, 0, 60, 0
6, 62460, Note_on_c, 0, 65, 100
6, 62489, Note_on_c, 0, 65, 0
6, 62490, Note_on_c, 0, 69, 100
6, 62519, Note_on_c, 0, 69, 0
6, 62520, Note_on_c, 0, 65, 100
6, 62549, Note_on_c, 0, 65, 0
6, 62550, Note_on_c, 0, 60, 100
6, 62579, Note_on_c, 0, 60, 0
6, 62580, Note_on_c, 0, 65, 100
6, 62609, Note_on_c, 0, 65, 0
6, 62610, Note_on_c, 0, 69, 100
6, 62639, Note_on_c, 0, 69, 0
6, 62640, Note_on_c, 0, 65, 100
6, 62669, Note_on_c, 0, 65, 0
6, 62670, Note_on_c, 0, 60, 100
6, 62699, Note_on_c, 0, 60, 0
6, 62700, Note_on_c, 0, 65, 100
6, 62729, Note_on_c, 0, 65, 0
6, 62730, Note_on_c, 0, 69, 100
6, 62759, Note_on_c, 0, 69, 0
6, 62760, Note_on_c, 0, 65, 100
6, 62789, Note_on_c, 0, 65, 0
6, 62790, Note_on_c, 0, 60, 100
6, 62819, Note_on_c, 0, 60, 0
6, 62820, Note_on_c, 0, 65, 100
6, 62849, Note_on_c, 0, 65, 0
6, 62850, Note_on_c, 0, 69, 100
6, 62879, Note_on_c, 0, 69, 0
6, 62880, Note_on_c, 0, 62, 100
6, 62909, Note_on_c, 0, 62, 0
6, 62910, Note_on_c, 0, 57, 100
6, 62939, Note_on_c, 0, 57, 0
6, 62940, Note_on_c, 0, 62, 100
6, 62969, Note_on_c, 0, 62, 0
6, 62970, Note_on_c, 0, 65, 100
6, 62999, Note_on_c, 0, 65, 0
6, 63000, Note_on_c, 0, 62, 100
6, 63029, Note_on_c, 0, 62, 0
6, 63030, Note_on_c, 0, 57, 100
6, 63059, Note_on_c, 0, 57, 0
6, 63060, Note_on_c, 0, 62, 100
6, 63089, Note_on_c, 0, 62, 0
6, 63090, Note_on_c, 0, 65, 100
6, 63119, Note_on_c, 0, 65, 0
6, 63120, Note_on_c, 0, 64, 100
6, 63149, Note_on_c, 0, 64, 0
6, 63150, Note_on_c, 0, 59, 100
6, 63179, Note_on_c, 0, 59, 0
6, 63180, Note_on_c, 0, 64, 100
6, 63209, Note_on_c, 0, 64, 0
6, 63210, Note_on_c, 0, 68, 100
6, 63239, Note_on_c, 0, 68, 0
6, 63240, Note_on_c, 0, 64, 100
6, 63269, Note_on_c, 0, 64, 0
6, 63270, Note_on_c, 0, 59, 100
6, 63299, Note_on_c, 0, 59, 0
6, 63300, Note_on_c, 0, 64, 100
6, 63329, Note_on_c, 0, 64, 0
6, 63330, Note_on_c, 0, 68, 100
6, 63359, Note_on_c, 0, 68, 0
6, 63360, Note_on_c, 0, 69, 100
6, 63389, Note_on_c, 0, 69, 0
6, 63390, Note_on_c, 0, 64, 100
6, 63419, Note_on_c, 0, 64, 0
6, 63420, Note_on_c, 0, 69, 100
6, 63449, Note_on_c, 0, 69, 0
6, 63450, Note_on_c, 0, 72, 100
6, 63479, Note_on_c, 0, 72, 0
6, 63480, Note_on_c, 0, 69, 100
6, 63509, Note_on_c, 0, 69, 0
6, 63510, Note_on_c, 0, 64, 100
6, 63539, Note_on_c, 0, 64, 0
6, 63540, Note_on_c, 0, 69, 100
6, 63569, Note_on_c, 0, 69, 0
6, 63570, Note_on_c, 0, 72, 100
6, 63599, Note_on_c, 0, 72, 0
6, 63600, Note_on_c, 0, 69, 100
6, 63629, Note_on_c, 0, 69, 0
6, 63630, Note_on_c, 0, 64, 100
6, 63659, Note_on_c, 0, 64, 0
6, 63660, Note_on_c, 0, 69, 100
6, 63689, Note_on_c, 0, 69, 0
6, 63690, Note_on_c, 0, 72, 100
6, 63719, Note_on_c, 0, 72, 0
6, 63720, Note_on_c, 0, 69, 100
6, 63749, Note_on_c, 0, 69, 0
6, 63750, Note_on_c, 0, 64, 100
6, 63779, Note_on_c, 0, 64, 0
6, 63780, Note_on_c, 0, 69, 100
6, 63809, Note_on_c, 0, 69, 0
6, 63810, Note_on_c, 0, 72, 100
6, 63839, Note_on_c, 0, 72, 0
6, 63840, Note_on_c, 0, 72, 100
6, 63869, Note_on_c, 0, 72, 0
6, 63870, Note_on_c, 0, 67, 100
6, 63899, Note_on_c, 0, 67, 0
6, 63900, Note_on_c, 0, 72, 100
6, 63929, Note_on_c, 0, 72, 0
6, 63930, Note_on_c, 0, 76, 100
6, 63959, Note_on_c, 0, 76, 0
6, 63960, Note_on_c, 0, 72, 100
6, 63989, Note_on_c, 0, 72, 0
6, 63990, Note_on_c, 0, 67, 100
6, 64019, Note_on_c, 0, 67, 0
6, 64020, Note_on_c, 0, 72, 100
6, 64049, Note_on_c, 0, 72, 0
6, 64050, Note_on_c, 0, 76, 100
6, 64079, Note_on_c, 0, 76, 0
6, 64080, Note_on_c, 0, 72, 100
6, 64109, Note_on_c, 0, 72, 0
6, 64110, Note_on_c, 0, 67, 100
6, 64139, Note_on_c, 0, 67, 0
6, 64140, Note_on_c, 0, 72, 100
6, 64169, Note_on_c, 0, 72, 0
6, 64170, Note_on_c, 0, 76, 100
6, 64199, Note_on_c, 0, 76, 0
6, 64200, Note_on_c, 0, 72, 100
6, 64229, Note_on_c, 0, 72, 0
6, 64230, Note_on_c, 0, 67, 100
6, 64259, Note_on_c, 0, 67, 0
6, 64260, Note_on_c, 0, 72, 100
6, 64289, Note_on_c, 0, 72, 0
6, 64290, Note_on_c, 0, 76, 100
6, 64319, Note_on_c, 0, 76, 0
6, 64320, Note_on_c, 0, 65, 100
6, 64349, Note_on_c, 0, 65, 0
6, 64350, Note_on_c, 0, 60, 100
6, 64379, Note_on_c, 0, 60, 0
6, 64380, Note_on_c, 0, 65, 100
6, 64409, Note_on_c, 0, 65, 0
6, 64410, Note_on_c, 0, 69, 100
6, 64439, Note_on_c, 0, 69, 0
6, 64440, Note_on_c, 0, 65, 100
6, 64469, Note_on_c, 0, 65, 0
6, 64470, Note_on_c, 0, 60, 100
6, 64499, Note_on_c, 0, 60, 0
6, 64500, Note_on_c, 0, 65, 100
6, 64529, Note_on_c, 0, 65, 0
6, 64530, Note_on_c, 0, 69, 100
6, 64559, Note_on_c, 0, 69, 0
6, 64560, Note_on_c, 0, 65, 100
6, 64589, Note_on_c, 0, 65, 0
6, 64590, Note_on_c, 0, 60, 100
6, 64619, Note_on_c, 0, 60, 0
6, 64620, Note_on_c, 0, 65, 100
6, 64649, Note_on_c, 0, 65, 0
6, 64650, Note_on_c, 0, 69, 100
6, 64679, Note_on_c, 0, 69, 0
6, 64680, Note_on_c, 0, 65, 100
6, 64709, Note_on_c, 0, 65, 0
6, 64710, Note_on_c, 0, 60, 100
6, 64739, Note_on_c, 0, 60, 0
6, 64740, Note_on_c, 0, 65, 100
6, 64769, Note_on_c, 0, 65, 0
6, 64770, Note_on_c, 0, 69, 100
6, 64799, Note_on_c, 0, 69, 0
6, 64800, Note_on_c, 0, 62, 100
6, 64829, Note_on_c, 0, 62, 0
6, 64830, Note_on_c, 0, 57, 100
6, 64859, Note_on_c, 0, 57, 0
6, 64860, Note_on_c, 0, 62, 100
6, 64889, Note_on_c, 0, 62, 0
6, 64890, Note_on_c, 0, 65, 100
6, 64919, Note_on_c, 0, 65, 0
6, 64920, Note_on_c, 0, 62, 100
6, 64949, Note_on_c, 0, 62, 0
6, 64950, Note_on_c, 0, 57, 100
6, 64979, Note_on_c, 0, 57, 0
6, 64980, Note_on_c, 0, 62, 100
6, 65009, Note_on_c, 0, 62, 0
6, 65010, Note_on_c, 0, 65, 100
6, 65039, Note_on_c, 0, 65, 0
6, 65040, Note_on_c, 0, 64, 100
6, 65069, Note_on_c, 0, 64, 0
6, 65070, Note_on_c, 0, 59, 100
6, 65099, Note_on_c, 0, 59, 0
6, 65100, Note_on_c, 0, 64, 100
6, 65129, Note_on_c, 0, 64, 0
6, 65130, Note_on_c, 0, 68, 100
6, 65159, Note_on_c, 0, 68, 0
6, 65160, Note_on_c, 0, 64, 100
6, 65189, Note_on_c, 0, 64, 0
6, 65190, Note_on_c, 0, 59, 100
6, 65219, Note_on_c, 0, 59, 0
6, 65220, Note_on_c, 0, 64, 100
6, 65249, Note_on_c, 0, 64, 0
6, 65250, Note_on_c, 0, 68, 100
6, 65279, Note_on_c, 0, 68, 0
6, 65280, Note_on_c, 0, 69, 100
6, 65309, Note_on_c, 0, 69, 0
6, 65310, Note_on_c, 0, 64, 100
6, 65339, Note_on_c, 0, 64, 0
6, 65340, Note_on_c, 0, 69, 100
6, 65369, Note_on_c, 0, 69, 0
6, 65370, Note_on_c, 0, 72, 100
6, 65399, Note_on_c, 0, 72, 0
6, 65400, Note_on_c, 0, 69, 100
6, 65429, Note_on_c, 0, 69, 0
6, 65430, Note_on_c, 0, 64, 100
6, 65459, Note_on_c, 0, 64, 0
6, 65460, Note_on_c, 0, 69, 100
6, 65489, Note_on_c, 0, 69, 0
6, 65490, Note_on_c, 0, 72, 100
6, 65519, Note_on_c, 0, 72, 0
6, 65520, Note_on_c, 0, 69, 100
6, 65549, Note_on_c, 0, 69, 0
6, 65550, Note_on_c, 0, 64, 100
6, 65579, Note_on_c, 0, 64, 0
6, 65580, Note_on_c, 0, 69, 100
6, 65609, Note_on_c, 0, 69, 0
6, 65610, Note_on_c, 0, 72, 100
6, 65639, Note_on_c, 0, 72, 0
6, 65640, Note_on_c, 0, 69, 100
6, 65669, Note_on_c, 0, 69, 0
6, 65670, Note_on_c, 0, 64, 100
6, 65699, Note_on_c, 0, 64, 0
6, 65700, Note_on_c, 0, 69, 100
6, 65729, Note_on_c, 0, 69, 0
6, 65730, Note_on_c, 0, 72, 100
6, 65759, Note_on_c, 0, 72, 0
6, 65760, Note_on_c, 0, 72, 100
6, 65789, Note_on_c, 0, 72, 0
6, 65790, Note_on_c, 0, 67, 100
6, 65819, Note_on_c, 0, 67, 0
6, 65820, Note_on_c, 0, 72, 100
6, 65849, Note_on_c, 0, 72, 0
6, 65850, Note_on_c, 0, 76, 100
6, 65879, Note_on_c, 0, 76, 0
6, 65880, Note_on_c, 0, 72, 100
6, 65909, Note_on_c, 0, 72, 0
6, 65910, Note_on_c, 0, 67, 100
6, 65939, Note_on_c, 0, 67, 0
6, 65940, Note_on_c, 0, 72, 100
6, 65969, Note_on_c, 0, 72, 0
6, 65970, Note_on_c, 0, 76, 100
6, 65999, Note_on_c, 0, 76, 0
6, 66000, Note_on_c, 0, 72, 100
6, 66029, Note_on_c, 0, 72, 0
6, 66030, Note_on_c, 0, 67, 100
6, 66059, Note_on_c, 0, 67, 0
6, 66060, Note_on_c, 0, 72, 100
6, 66089, Note_on_c, 0, 72, 0
6, 66090, Note_on_c, 0, 76, 100
6, 66119, Note_on_c, 0, 76, 0
6, 66120, Note_on_c, 0, 72, 100
6, 66149, Note_on_c, 0, 72, 0
6, 66150, Note_on_c, 0, 67, 100
6, 66179, Note_on_c, 0, 67, 0
6, 66180, Note_on_c, 0, 72, 100
6, 66209, Note_on_c, 0, 72, 0
6, 66210, Note_on_c, 0, 76, 100
6, 66239, Note_on_c, 0, 76, 0
6, 66240, Note_on_c, 0, 65, 100
6, 66269, Note_on_c, 0, 65, 0
6, 66270, Note_on_c, 0, 60, 100
6, 66299, Note_on_c, 0, 60, 0
6, 66300, Note_on_c, 0, 65, 100
6, 66329, Note_on_c, 0, 65, 0
6, 66330, Note_on_c, 0, 69, 100
6, 66359, Note_on_c, 0, 69, 0
6, 66360, Note_on_c, 0, 65, 100
6, 66389, Note_on_c, 0, 65, 0
6, 66390, Note_on_c, 0, 60, 100
6, 66419, Note_on_c, 0, 60, 0
6, 66420, Note_on_c, 0, 65, 100
6, 66449, Note_on_c, 0, 65, 0
6, 66450, Note_on_c, 0, 69, 100
6, 66479, Note_on_c, 0, 69, 0
6, 66480, Note_on_c, 0, 65, 100
6, 66509, Note_on_c, 0, 65, 0
6, 66510, Note_on_c, 0, 60, 100
6, 66539, Note_on_c, 0, 60, 0
6, 66540, Note_on_c, 0, 65, 100
6, 66569, Note_on_c, 0, 65, 0
6, 66570, Note_on_c, 0, 69, 100
6, 66599, Note_on_c, 0, 69, 0
6, 66600, Note_on_c, 0, 65, 100
6, 66629, Note_on_c, 0, 65, 0
6, 66630, Note_on_c, 0, 60, 100
6, 66659, Note_on_c, 0, 60, 0
6, 66660, Note_on_c, 0, 65, 100
6, 66689, Note_on_c, 0, 65, 0
6, 66690, Note_on_c, 0, 69, 100
6, 66719, Note_on_c, 0, 69, 0
6, 66720, Note_on_c, 0, 62, 100
6, 66749, Note_on_c, 0, 62, 0
6, 66750, Note_on_c, 0, 57, 100
6, 66779, Note_on_c, 0, 57, 0
6, 66780, Note_on_c, 0, 62, 100
6, 66809, Note_on_c, 0, 62, 0
6, 66810, Note_on_c, 0, 65, 100
6, 66839, Note_on_c, 0, 65, 0
6, 66840, Note_on_c, 0, 62, 100
6, 66869, Note_on_c, 0, 62, 0
6, 66870, Note_on_c, 0, 57, 100
6, 66899, Note_on_c, 0, 57, 0
6, 66900, Note_on_c, 0, 62, 100
6, 66929, Note_on_c, 0, 62, 0
6, 66930, Note_on_c, 0, 65, 100
6, 66959, Note_on_c, 0, 65, 0
6, 66960, Note_on_c, 0, 64, 100
6, 66989, Note_on_c, 0, 64, 0
6, 66990, Note_on_c, 0, 59, 100
6, 67019, Note_on_c, 0, 59, 0
6, 67020, Note_on_c, 0, 64, 100
6, 67049, Note_on_c, 0, 64, 0
6, 67050, Note_on_c, 0, 68, 100
6, 67079, Note_on_c, 0, 68, 0
6, 67080, Note_on_c, 0, 64, 100
6, 67109, Note_on_c, 0, 64, 0
6, 67110, Note_on_c, 0, 59, 100
6, 67139, Note_on_c, 0, 59, 0
6, 67140, Note_on_c, 0, 64, 100
6, 67169, Note_on_c, 0, 64, 0
6, 67170, Note_on_c, 0, 68, 100
6, 67199, Note_on_c, 0, 68, 0
6, 67200, Note_on_c, 0, 69, 100
6, 67229, Note_on_c, 0, 69, 0
6, 67230, Note_on_c, 0, 64, 100
6, 67259, Note_on_c, 0, 64, 0
6, 67260, Note_on_c, 0, 69, 100
6, 67289, Note_on_c, 0, 69, 0
6, 67290, Note_on_c, 0, 72, 100
6, 67319, Note_on_c, 0, 72, 0
6, 67320, Note_on_c, 0, 69, 100
6, 67349, Note_on_c, 0, 69, 0
6, 67350, Note_on_c, 0, 64, 100
6, 67379, Note_on_c, 0, 64, 0
6, 67380, Note_on_c, 0, 69, 100
6, 67409, Note_on_c, 0, 69, 0
6, 67410, Note_on_c, 0, 72, 100
6, 67439, Note_on_c, 0, 72, 0
6, 67440, Note_on_c, 0, 69, 100
6, 67469, Note_on_c, 0, 69, 0
6, 67470, Note_on_c, 0, 64, 100
6, 67499, Note_on_c, 0, 64, 0
6, 67500, Note_on_c, 0, 69, 100
6, 67529, Note_on_c, 0, 69, 0
6, 67530, Note_on_c, 0, 72, 100
6, 67559, Note_on_c, 0, 72, 0
6, 67560, Note_on_c, 0, 69, 100
6, 67589, Note_on_c, 0, 69, 0
6, 67590, Note_on_c, 0, 64, 100
6, 67619, Note_on_c, 0, 64, 0
6, 67620, Note_on_c, 0, 69, 100
6, 67649, Note_on_c, 0, 69, 0
6, 67650, Note_on_c, 0, 72, 100
6, 67679, Note_on_c, 0, 72, 0
6, 67680, Note_on_c, 0, 72, 100
6, 67709, Note_on_c, 0, 72, 0
6, 67710, Note_on_c, 0, 67, 100
6, 67739, Note_on_c, 0, 67, 0
6, 67740, Note_on_c, 0, 72, 100
6, 67769, Note_on_c, 0, 72, 0
6, 67770, Note_on_c, 0, 76, 100
6, 67799, Note_on_c, 0, 76, 0
6, 67800, Note_on_c, 0, 72, 100
6, 67829, Note_on_c, 0, 72, 0
6, 67830, Note_on_c, 0, 67, 100
6, 67859, Note_on_c, 0, 67, 0
6, 67860, Note_on_c, 0, 72, 100
6, 67889, Note_on_c, 0, 72, 0
6, 67890, Note_on_c, 0, 76, 100
6, 67919, Note_on_c, 0, 76, 0
6, 67920, Note_on_c, 0, 72, 100
6, 67949, Note_on_c, 0, 72, 0
6, 67950, Note_on_c, 0, 67, 100
6, 67979, Note_on_c, 0, 67, 0
6, 67980, Note_on_c, 0, 72, 100
6, 68009, Note_on_c, 0, 72, 0
6, 68010, Note_on_c, 0, 76, 100
6, 68039, Note_on_c, 0, 76, 0
6, 68040, Note_on_c, 0, 72, 100
6, 68069, Note_on_c, 0, 72, 0
6, 68070, Note_on_c, 0, 67, 100
6, 68099, Note_on_c, 0, 67, 0
6, 68100, Note_on_c, 0, 72, 100
6, 68129, Note_on_c, 0, 72, 0
6, 68130, Note_on_c, 0, 76, 100
6, 68159, Note_on_c, 0, 76, 0
6, 68160, Note_on_c, 0, 65, 100
6, 68189, Note_on_c, 0, 65, 0
6, 68190, Note_on_c, 0, 60, 100
6, 68219, Note_on_c, 0, 60, 0
6, 68220, Note_on_c, 0, 65, 100
6, 68249, Note_on_c, 0, 65, 0
6, 68250, Note_on_c, 0, 69, 100
6, 68279, Note_on_c, 0, 69, 0
6, 68280, Note_on_c, 0, 65, 100
6, 68309, Note_on_c, 0, 65, 0
6, 68310, Note_on_c, 0, 60, 100
6, 68339, Note_on_c, 0, 60, 0
6, 68340, Note_on_c, 0, 65, 100
6, 68369, Note_on_c, 0, 65, 0
6, 68370, Note_on_c, 0, 69, 100
6, 68399, Note_on_c, 0, 69, 0
6, 68400, Note_on_c, 0, 65, 100
6, 68429, Note_on_c, 0, 65, 0
6, 68430, Note_on_c, 0, 60, 100
6, 68459, Note_on_c, 0, 60, 0
6, 68460, Note_on_c, 0, 65, 100
6, 68489, Note_on_c, 0, 65, 0
6, 68490, Note_on_c, 0, 69, 100
6, 68519, Note_on_c, 0, 69, 0
6, 68520, Note_on_c, 0, 65, 100
6, 68549, Note_on_c, 0, 65, 0
6, 68550, Note_on_c, 0, 60, 100
6, 68579, Note_on_c, 0, 60, 0
6, 68580, Note_on_c, 0, 65, 100
6, 68609, Note_on_c, 0, 65, 0
6, 68610, Note_on_c, 0, 69, 100
6, 68639, Note_on_c, 0, 69, 0
6, 68640, Note_on_c, 0, 62, 100
6, 68669, Note_on_c, 0, 62, 0
6, 68670, Note_on_c, 0, 57, 100
6, 68699, Note_on_c, 0, 57, 0
6, 68700, Note_on_c, 0, 62, 100
6, 68729, Note_on_c, 0, 62, 0
6, 68730, Note_on_c, 0, 65, 100
6, 68759, Note_on_c, 0, 65, 0
6, 68760, Note_on_c, 0, 62, 100
6, 68789, Note_on_c, 0, 62, 0
6, 68790, Note_on_c, 0, 57, 100
6, 68819, Note_on_c, 0, 57, 0
6, 68820, Note_on_c, 0, 62, 100
6, 68849, Note_on_c, 0, 62, 0
6, 68850, Note_on_c, 0, 65, 100
6, 68879, Note_on_c, 0, 65, 0
6, 68880, Note_on_c, 0, 64, 100
6, 68909, Note_on_c, 0, 64, 0
6, 68910, Note_on_c, 0, 59, 100
6, 68939, Note_on_c, 0, 59, 0
6, 68940, Note_on_c, 0, 64, 100
6, 68969, Note_on_c, 0, 64, 0
6, 68970, Note_on_c, 0, 68, 100
6, 68999, Note_on_c, 0, 68, 0
6, 69000, Note_on_c, 0, 64, 100
6, 69029, Note_on_c, 0, 64, 0
6, 69030, Note_on_c, 0, 59, 100
6, 69059, Note_on_c, 0, 59, 0
6, 69060, Note_on_c, 0, 64, 100
6, 69089, Note_on_c, 0, 64, 0
6, 69090, Note_on_c, 0, 68, 100
6, 69119, Note_on_c, 0, 68, 0
6, 69120, Note_on_c, 0, 69, 100
6, 69149, Note_on_c, 0, 69, 0
6, 69150, Note_on_c, 0, 64, 100
6, 69179, Note_on_c, 0, 64, 0
6, 69180, Note_on_c, 0, 69, 100
6, 69209, Note_on_c, 0, 69, 0
6, 69210, Note_on_c, 0, 72, 100
6, 69239, Note_on_c, 0, 72, 0
6, 69240, Note_on_c, 0, 69, 100
6, 69269, Note_on_c, 0, 69, 0
6, 69270, Note_on_c, 0, 64, 100
6, 69299, Note_on_c, 0, 64, 0
6, 69300, Note_on_c, 0, 69, 100
6, 69329, Note_on_c, 0, 69, 0
6, 69330, Note_on_c, 0, 72, 100
6, 69359, Note_on_c, 0, 72, 0
6, 69360, Note_on_c, 0, 69, 100
6, 69389, Note_on_c, 0, 69, 0
6, 69390, Note_on_c, 0, 64, 100
6, 69419, Note_on_c, 0, 64, 0
6, 69420, Note_on_c, 0, 69, 100
6, 69449, Note_on_c, 0, 69, 0
6, 69450, Note_on_c, 0, 72, 100
6, 69479, Note_on_c, 0, 72, 0
6, 69480, Note_on_c, 0, 69, 100
6, 69509, Note_on_c, 0, 69, 0
6, 69510, Note_on_c, 0, 64, 100
6, 69539, Note_on_c, 0, 64, 0
6, 69540, Note_on_c, 0, 69, 100
6, 69569, Note_on_c, 0, 69, 0
6, 69570, Note_on_c, 0, 72, 100
6, 69599, Note_on_c, 0, 72, 0
6, 69600, Note_on_c, 0, 72, 100
6, 69629, Note_on_c, 0, 72, 0
6, 69630, Note_on_c, 0, 67, 100
6, 69659, Note_on_c, 0, 67, 0
6, 69660, Note_on_c, 0, 72, 100
6, 69689, Note_on_c, 0, 72, 0
6, 69690, Note_on_c, 0, 76, 100
6, 69719, Note_on_c, 0, 76, 0
6, 69720, Note_on_c, 0, 72, 100
6, 69749, Note_on_c, 0, 72, 0
6, 69750, Note_on_c, 0, 67, 100
6, 69779, Note_on_c, 0, 67, 0
6, 69780, Note_on_c, 0, 72, 100
6, 69809, Note_on_c, 0, 72, 0
6, 69810, Note_on_c, 0, 76, 100
6, 69839, Note_on_c, 0, 76, 0
6, 69840, Note_on_c, 0, 72, 100
6, 69869, Note_on_c, 0, 72, 0
6, 69870, Note_on_c, 0, 67, 100
6, 69899, Note_on_c, 0, 67, 0
6, 69900, Note_on_c, 0, 72, 100
6, 69929, Note_on_c, 0, 72, 0
6, 69930, Note_on_c, 0, 76, 100
6, 69959, Note_on_c, 0, 76, 0
6, 69960, Note_on_c, 0, 72, 100
6, 69989, Note_on_c, 0, 72, 0
6, 69990, Note_on_c, 0, 67, 100
6, 70019, Note_on_c, 0, 67, 0
6, 70020, Note_on_c, 0, 72, 100
6, 70049, Note_on_c, 0, 72, 0
6, 70050, Note_on_c, 0, 76, 100
6, 70079, Note_on_c, 0, 76, 0
6, 70080, Note_on_c, 0, 65, 100
6, 70109, Note_on_c, 0, 65, 0
6, 70110, Note_on_c, 0, 60, 100
6, 70139, Note_on_c, 0, 60, 0
6, 70140, Note_on_c, 0, 65, 100
6, 70169, Note_on_c, 0, 65, 0
6, 70170, Note_on_c, 0, 69, 100
6, 70199, Note_on_c, 0, 69, 0
6, 70200, Note_on_c, 0, 65, 100
6, 70229, Note_on_c, 0, 65, 0
6, 70230, Note_on_c, 0, 60, 100
6, 70259, Note_on_c, 0, 60, 0
6, 70260, Note_on_c, 0, 65, 100
6, 70289, Note_on_c, 0, 65, 0
6, 70290, Note_on_c, 0, 69, 100
6, 70319, Note_on_c, 0, 69, 0
6, 70320, Note_on_c, 0, 65, 100
6, 70349, Note_on_c, 0, 65, 0
6, 70350, Note_on_c, 0, 60, 100
6, 70379, Note_on_c, 0, 60, 0
6, 70380, Note_on_c, 0, 65, 100
6, 70409, Note_on_c, 0, 65, 0
6, 70410, Note_on_c, 0, 69, 100
6, 70439, Note_on_c, 0, 69, 0
6, 70440, Note_on_c, 0, 65, 100
6, 70469, Note_on_c, 0, 65, 0
6, 70470, Note_on_c, 0, 60, 100
6, 70499, Note_on_c, 0, 60, 0
6, 70500, Note_on_c, 0, 65, 100
6, 70529, Note_on_c, 0, 65, 0
6, 70530, Note_on_c, 0, 69, 100
6, 70559, Note_on_c, 0, 69, 0
6, 70560, Note_on_c, 0, 62, 100
6, 70589, Note_on_c, 0, 62, 0
6, 70590, Note_on_c, 0, 57, 100
6, 70619, Note_on_c, 0, 57, 0
6, 70620, Note_on_c, 0, 62, 100
6, 70649, Note_on_c, 0, 62, 0
6, 70650, Note_on_c, 0, 65, 100
6, 70679, Note_on_c, 0, 65, 0
6, 70680, Note_on_c, 0, 62, 100
6, 70709, Note_on_c, 0, 62, 0
6, 70710, Note_on_c, 0, 57, 100
6, 70739, Note_on_c, 0, 57, 0
6, 70740, Note_on_c, 0, 62, 100
6, 70769, Note_on_c, 0, 62, 0
6, 70770, Note_on_c, 0, 65, 100
6, 70799, Note_on_c, 0, 65, 0
6, 70800, Note_on_c, 0, 64, 100
6, 70829, Note_on_c, 0, 64, 0
6, 70830, Note_on_c, 0, 59, 100
6, 70859, Note_on_c, 0, 59, 0
6, 70860, Note_on_c, 0, 64, 100
6, 70889, Note_on_c, 0, 64, 0
6, 70890, Note_on_c, 0, 68, 100
6, 70919, Note_on_c, 0, 68, 0
6, 70920, Note_on_c, 0, 64, 100
6, 70949, Note_on_c, 0, 64, 0
6, 70950, Note_on_c, 0, 59, 100
6, 70979, Note_on_c, 0, 59, 0
6, 70980, Note_on_c, 0, 64, 100
6, 71009, Note_on_c, 0, 64, 0
6, 71010, Note_on_c, 0, 68, 100
6, 71039, Note_on_c, 0, 68, 0
6, 71040, Note_on_c, 0, 69, 100
6, 71069, Note_on_c, 0, 69, 0
6, 71070, Note_on_c, 0, 64, 100
6, 71099, Note_on_c, 0, 64, 0
6, 71100, Note_on_c, 0, 69, 100
6, 71129, Note_on_c, 0, 69, 0
6, 71130, Note_on_c, 0, 72, 100
6, 71159, Note_on_c, 0, 72, 0
6, 71160, Note_on_c, 0, 69, 100
6, 71189, Note_on_c, 0, 69, 0
6, 71190, Note_on_c, 0, 64, 100
6, 71219, Note_on_c, 0, 64, 0
6, 71220, Note_on_c, 0, 69, 100
6, 71249, Note_on_c, 0, 69, 0
6, 71250, Note_on_c, 0, 72, 100
6, 71279, Note_on_c, 0, 72, 0
6, 71280, Note_on_c, 0, 69, 100
6, 71309, Note_on_c, 0, 69, 0
6, 71310, Note_on_c, 0, 64, 100
6, 71339, Note_on_c, 0, 64, 0
6, 71340, Note_on_c, 0, 69, 100
6, 71369, Note_on_c, 0, 69, 0
6, 71370, Note_on_c, 0, 72, 100
6, 71399, Note_on_c, 0, 72, 0
6, 71400, Note_on_c, 0, 69, 100
6, 71429, Note_on_c, 0, 69, 0
6, 71430, Note_on_c, 0, 64, 100
6, 71459, Note_on_c, 0, 64, 0
6, 71460, Note_on_c, 0, 69, 100
6, 71489, Note_on_c, 0, 69, 0
6, 71490, Note_on_c, 0, 72, 100
6, 71519, Note_on_c, 0, 72, 0
6, 71520, Note_on_c, 0, 72, 100
6, 71549, Note_on_c, 0, 72, 0
6, 71550, Note_on_c, 0, 67, 100
6, 71579, Note_on_c, 0, 67, 0
6, 71580, Note_on_c, 0, 72, 100
6, 71609, Note_on_c, 0, 72, 0
6, 71610, Note_on_c, 0, 76, 100
6, 71639, Note_on_c, 0, 76, 0
6, 71640, Note_on_c, 0, 72, 100
6, 71669, Note_on_c, 0, 72, 0
6, 71670, Note_on_c, 0, 67, 100
6, 71699, Note_on_c, 0, 67, 0
6, 71700, Note_on_c, 0, 72, 100
6, 71729, Note_on_c, 0, 72, 0
6, 71730, Note_on_c, 0, 76, 100
6, 71759, Note_on_c, 0, 76, 0
6, 71760, Note_on_c, 0, 72, 100
6, 71789, Note_on_c, 0, 72, 0
6, 71790, Note_on_c, 0, 67, 100
6, 71819, Note_on_c, 0, 67, 0
6, 71820, Note_on_c, 0, 72, 100
6, 71849, Note_on_c, 0, 72, 0
6, 71850, Note_on_c, 0, 76, 100
6, 71879, Note_on_c, 0, 76, 0
6, 71880, Note_on_c, 0, 72, 100
6, 71909, Note_on_c, 0, 72, 0
6, 71910, Note_on_c, 0, 67, 100
6, 71939, Note_on_c, 0, 67, 0
6, 71940, Note_on_c, 0, 72, 100
6, 71969, Note_on_c, 0, 72, 0
6, 71970, Note_on_c, 0, 76, 100
6, 71999, Note_on_c, 0, 76, 0
6, 72000, Note_on_c, 0, 65, 100
6, 72029, Note_on_c, 0, 65, 0
6, 72030, Note_on_c, 0, 60, 100
6, 72059, Note_on_c, 0, 60, 0
6, 72060, Note_on_c, 0, 65, 100
6, 72089, Note_on_c, 0, 65, 0
6, 72090, Note_on_c, 0, 69, 100
6, 72119, Note_on_c, 0, 69, 0
6, 72120, Note_on_c, 0, 65, 100
6, 72149, Note_on_c, 0, 65, 0
6, 72150, Note_on_c, 0, 60, 100
6, 72179, Note_on_c, 0, 60, 0
6, 72180, Note_on_c, 0, 65, 100
6, 72209, Note_on_c, 0, 65, 0
6, 72210, Note_on_c, 0, 69, 100
6, 72239, Note_on_c, 0, 69, 0
6, 72240, Note_on_c, 0, 65, 100
6, 72269, Note_on_c, 0, 65, 0
6, 72270, Note_on_c, 0, 60, 100
6, 72299, Note_on_c, 0, 60, 0
6, 72300, Note_on_c, 0, 65, 100
6, 72329, Note_on_c, 0, 65, 0
6, 72330, Note_on_c, 0, 69, 100
6, 72359, Note_on_c, 0, 69, 0
6, 72360, Note_on_c, 0, 65, 100
6, 72389, Note_on_c, 0, 65, 0
6, 72390, Note_on_c, 0, 60, 100
6, 72419, Note_on_c, 0, 60, 0
6, 72420, Note_on_c, 0, 65, 100
6, 72449, Note_on_c, 0, 65, 0
6, 72450, Note_on_c, 0, 69, 100
6, 72479, Note_on_c, 0, 69, 0
6, 72480, Note_on_c, 0, 62, 100
6, 72509, Note_on_c, 0, 62, 0
6, 72510, Note_on_c, 0, 57, 100
6, 72539, Note_on_c, 0, 57, 0
6, 72540, Note_on_c, 0, 62, 100
6, 72569, Note_on_c, 0, 62, 0
6, 72570, Note_on_c, 0, 65, 100
6, 72599, Note_on_c, 0, 65, 0
6, 72600, Note_on_c, 0, 62, 100
6, 72629, Note_on_c, 0, 62, 0
6, 72630, Note_on_c, 0, 57, 100
6, 72659, Note_on_c, 0, 57, 0
6, 72660, Note_on_c, 0, 62, 100
6, 72689, Note_on_c, 0, 62, 0
6, 72690, Note_on_c, 0, 65, 100
6, 72719, Note_on_c, 0, 65, 0
6, 72720, Note_on_c, 0, 64, 100
6, 72749, Note_on_c, 0, 64, 0
6, 72750, Note_on_c, 0, 59, 100
6, 72779, Note_on_c, 0, 59, 0
6, 72780, Note_on_c, 0, 64, 100
6, 72809, Note_on_c, 0, 64, 0
6, 72810, Note_on_c, 0, 68, 100
6, 72839, Note_on_c, 0, 68, 0
6, 72840, Note_on_c, 0, 64, 100
6, 72869, Note_on_c, 0, 64, 0
6, 72870, Note_on_c, 0, 59, 100
6, 72899, Note_on_c, 0, 59, 0
6, 72900, Note_on_c, 0, 64, 100
6, 72929, Note_on_c, 0, 64, 0
6, 72930, Note_on_c, 0, 68, 100
6, 72959, Note_on_c, 0, 68, 0
6, 72960, Note_on_c, 0, 69, 100
6, 72989, Note_on_c, 0, 69, 0
6, 72990, Note_on_c, 0, 64, 100
6, 73019, Note_on_c, 0, 64, 0
6, 73020, Note_on_c, 0, 69, 100
6, 73049, Note_on_c, 0, 69, 0
6, 73050, Note_on_c, 0, 72, 100
6, 73079, Note_on_c, 0, 72, 0
6, 73080, Note_on_c, 0, 69, 100
6, 73109, Note_on_c, 0, 69, 0
6, 73110, Note_on_c, 0, 64, 100
6, 73139, Note_on_c, 0, 64, 0
6, 73140, Note_on_c, 0, 69, 100
6, 73169, Note_on_c, 0, 69, 0
6, 73170, Note_on_c, 0, 72, 100
6, 73199, Note_on_c, 0, 72, 0
6, 73200, Note_on_c, 0, 69, 100
6, 73229, Note_on_c, 0, 69, 0
6, 73230, Note_on_c, 0, 64, 100
6, 73259, Note_on_c, 0, 64, 0
6, 73260, Note_on_c, 0, 69, 100
6, 73289, Note_on_c, 0, 69, 0
6, 73290, Note_on_c, 0, 72, 100
6, 73319, Note_on_c, 0, 72, 0
6, 73320, Note_on_c, 0, 69, 100
6, 73349, Note_on_c, 0, 69, 0
6, 73350, Note_on_c, 0, 64, 100
6, 73379, Note_on_c, 0, 64, 0
6, 73380, Note_on_c, 0, 69, 100
6, 73409, Note_on_c, 0, 69, 0
6, 73410, Note_on_c, 0, 72, 100
6, 73439, Note_on_c, 0, 72, 0
6, 73440, Note_on_c, 0, 72, 100
6, 73469, Note_on_c, 0, 72, 0
6, 73470, Note_on_c, 0, 67, 100
6, 73499, Note_on_c, 0, 67, 0
6, 73500, Note_on_c, 0, 72, 100
6, 73529, Note_on_c, 0, 72, 0
6, 73530, Note_on_c, 0, 76, 100
6, 73559, Note_on_c, 0, 76, 0
6, 73560, Note_on_c, 0, 72, 100
6, 73589, Note_on_c, 0, 72, 0
6, 73590, Note_on_c, 0, 67, 100
6, 73619, Note_on_c, 0, 67, 0
6, 73620, Note_on_c, 0, 72, 100
6, 73649, Note_on_c, 0, 72, 0
6, 73650, Note_on_c, 0, 76, 100
6, 73679, Note_on_c, 0, 76, 0
6, 73680, Note_on_c, 0, 72, 100
6, 73709, Note_on_c, 0, 72, 0
6, 73710, Note_on_c, 0, 67, 100
6, 73739, Note_on_c, 0, 67, 0
6, 73740, Note_on_c, 0, 72, 100
6, 73769, Note_on_c, 0, 72, 0
6, 73770, Note_on_c, 0, 76, 100
6, 73799, Note_on_c, 0, 76, 0
6, 73800, Note_on_c, 0, 72, 100
6, 73829, Note_on_c, 0, 72, 0
6, 73830, Note_on_c, 0, 67, 100
6, 73859, Note_on_c, 0, 67, 0
6, 73860, Note_on_c, 0, 72, 100
6, 73889, Note_on_c, 0, 72, 0
6, 73890, Note_on_c, 0, 76, 100
6, 73919, Note_on_c, 0, 76, 0
6, 73920, Note_on_c, 0, 65, 100
6, 73949, Note_on_c, 0, 65, 0
6, 73950, Note_on_c, 0, 60, 100
6, 73979, Note_on_c, 0, 60, 0
6, 73980, Note_on_c, 0, 65, 100
6, 74009, Note_on_c, 0, 65, 0
6, 74010, Note_on_c, 0, 69, 100
6, 74039, Note_on_c, 0, 69, 0
6, 74040, Note_on_c, 0, 65, 100
6, 74069, Note_on_c, 0, 65, 0
6, 74070, Note_on_c, 0, 60, 100
6, 74099, Note_on_c, 0, 60, 0
6, 74100, Note_on_c, 0, 65, 100
6, 74129, Note_on_c, 0, 65, 0
6, 74130, Note_on_c, 0, 69, 100
6, 74159, Note_on_c, 0, 69, 0
6, 74160, Note_on_c, 0, 65, 100
6, 74189, Note_on_c, 0, 65, 0
6, 74190, Note_on_c, 0, 60, 100
6, 74219, Note_on_c, 0, 60, 0
6, 74220, Note_on_c, 0, 65, 100
6, 74249, Note_on_c, 0, 65, 0
6, 74250, Note_on_c, 0, 69, 100
6, 74279, Note_on_c, 0, 69, 0
6, 74280, Note_on_c, 0, 65, 100
6, 74309, Note_on_c, 0, 65, 0
6, 74310, Note_on_c, 0, 60, 100
6, 74339, Note_on_c, 0, 60, 0
6, 74340, Note_on_c, 0, 65, 100
6, 74369, Note_on_c, 0, 65, 0
6, 74370, Note_on_c, 0, 69, 100
6, 74399, Note_on_c, 0, 69, 0
6, 74400, Note_on_c, 0, 62, 100
6, 74429, Note_on_c, 0, 62, 0
6, 74430, Note_on_c, 0, 57, 100
6, 74459, Note_on_c, 0, 57, 0
6, 74460, Note_on_c, 0, 62, 100
6, 74489, Note_on_c, 0, 62, 0
6, 74490, Note_on_c, 0, 65, 100
6, 74519, Note_on_c, 0, 65, 0
6, 74520, Note_on_c, 0, 62, 100
6, 74549, Note_on_c, 0, 62, 0
6, 74550, Note_on_c, 0, 57, 100
6, 74579, Note_on_c, 0, 57, 0
6, 74580, Note_on_c, 0, 62, 100
6, 74609, Note_on_c, 0, 62, 0
6, 74610, Note_on_c, 0, 65, 100
6, 74639, Note_on_c, 0, 65, 0
6, 74640, Note_on_c, 0, 64, 100
6, 74669, Note_on_c, 0, 64, 0
6, 74670, Note_on_c, 0, 59, 100
6, 74699, Note_on_c, 0, 59, 0
6, 74700, Note_on_c, 0, 64, 100
6, 74729, Note_on_c, 0, 64, 0
6, 74730, Note_on_c, 0, 68, 100
6, 74759, Note_on_c, 0, 68, 0
6, 74760, Note_on_c, 0, 64, 100
6, 74789, Note_on_c, 0, 64, 0
6, 74790, Note_on_c, 0, 59, 100
6, 74819, Note_on_c, 0, 59, 0
6, 74820, Note_on_c, 0, 64, 100
6, 74849, Note_on_c, 0, 64, 0
6, 74850, Note_on_c, 0, 68, 100
6, 74879, Note_on_c, 0, 68, 0
6, 74880, Note_on_c, 0, 69, 100
6, 74909, Note_on_c, 0, 69, 0
6, 74910, Note_on_c, 0, 64, 100
6, 74939, Note_on_c, 0, 64, 0
6, 74940, Note_on_c, 0, 69, 100
6, 74969, Note_on_c, 0, 69, 0
6, 74970, Note_on_c, 0, 72, 100
6, 74999, Note_on_c, 0, 72, 0
6, 75000, Note_on_c, 0, 69, 100
6, 75029, Note_on_c, 0, 69, 0
6, 75030, Note_on_c, 0, 64, 100
6, 75059, Note_on_c, 0, 64, 0
6, 75060, Note_on_c, 0, 69, 100
6, 75089, Note_on_c, 0, 69, 0
6, 75090, Note_on_c, 0, 72, 100
6, 75119, Note_on_c, 0, 72, 0
6, 75120, Note_on_c, 0, 69, 100
6, 75149, Note_on_c, 0, 69, 0
6, 75150, Note_on_c, 0, 64, 100
6, 75179, Note_on_c, 0, 64, 0
6, 75180, Note_on_c, 0, 69, 100
6, 75209, Note_on_c, 0, 69, 0
6, 75210, Note_on_c, 0, 72, 100
6, 75239, Note_on_c, 0, 72, 0
6, 75240, Note_on_c, 0, 69, 100
6, 75269, Note_on_c, 0, 69, 0
6, 75270, Note_on_c, 0, 64, 100
6, 75299, Note_on_c, 0, 64, 0
6, 75300, Note_on_c, 0, 69, 100
6, 75329, Note_on_c, 0, 69, 0
6, 75330, Note_on_c, 0, 72, 100
6, 75359, Note_on_c, 0, 72, 0
6, 75360, Note_on_c, 0, 69, 100
6, 75389, Note_on_c, 0, 69, 0
6, 75390, Note_on_c, 0, 64, 100
6, 75419, Note_on_c, 0, 64, 0
6, 75420, Note_on_c, 0, 69, 100
6, 75449, Note_on_c, 0, 69, 0
6, 75450, Note_on_c, 0, 72, 100
6, 75479, Note_on_c, 0, 72, 0
6, 75480, Note_on_c, 0, 69, 100
6, 75509, Note_on_c, 0, 69, 0
6, 75510, Note_on_c, 0, 64, 100
6, 75539, Note_on_c, 0, 64, 0
6, 75540, Note_on_c, 0, 69, 100
6, 75569, Note_on_c, 0, 69, 0
6, 75570, Note_on_c, 0, 72, 100
6, 75599, Note_on_c, 0, 72, 0
6, 75600, Note_on_c, 0, 69, 100
6, 75629, Note_on_c, 0, 69, 0
6, 75630, Note_on_c, 0, 64, 100
6, 75659, Note_on_c, 0, 64, 0
6, 75660, Note_on_c, 0, 69, 100
6, 75689, Note_on_c, 0, 69, 0
6, 75690, Note_on_c, 0, 72, 100
6, 75719, Note_on_c, 0, 72, 0
6, 75720, Note_on_c, 0, 69, 100
6, 75749, Note_on_c, 0, 69, 0
6, 75750, Note_on_c, 0, 64, 100
6, 75779, Note_on_c, 0, 64, 0
6, 75780, Note_on_c, 0, 69, 100
6, 75809, Note_on_c, 0, 69, 0
6, 75810, Note_on_c, 0, 72, 100
6, 75839, Note_on_c, 0, 72, 0
6, 75840, Note_on_c, 0, 72, 100
6, 75869, Note_on_c, 0, 72, 0
6, 75870, Note_on_c, 0, 67, 100
6, 75899, Note_on_c, 0, 67, 0
6, 75900, Note_on_c, 0, 72, 100
6, 75929, Note_on_c, 0, 72, 0
6, 75930, Note_on_c, 0, 76, 100
6, 75959, Note_on_c, 0, 76, 0
6, 75960, Note_on_c, 0, 72, 100
6, 75989, Note_on_c, 0, 72, 0
6, 75990, Note_on_c, 0, 67, 100
6, 76019, Note_on_c, 0, 67, 0
6, 76020, Note_on_c, 0, 72, 100
6, 76049, Note_on_c, 0, 72, 0
6, 76050, Note_on_c, 0, 76, 100
6, 76079, Note_on_c, 0, 76, 0
6, 76080, Note_on_c, 0, 72, 100
6, 76109, Note_on_c, 0, 72, 0
6, 76110, Note_on_c, 0, 67, 100
6, 76139, Note_on_c, 0, 67, 0
6, 76140, Note_on_c, 0, 72, 100
6, 76169, Note_on_c, 0, 72, 0
6, 76170, Note_on_c, 0, 76, 100
6, 76199, Note_on_c, 0, 76, 0
6, 76200, Note_on_c, 0, 72, 100
6, 76229, Note_on_c, 0, 72, 0
6, 76230, Note_on_c, 0, 67, 100
6, 76259, Note_on_c, 0, 67, 0
6, 76260, Note_on_c, 0, 72, 100
6, 76289, Note_on_c, 0, 72, 0
6, 76290, Note_on_c, 0, 76, 100
6, 76319, Note_on_c, 0, 76, 0
6, 76320, Note_on_c, 0, 65, 100
6, 76349, Note_on_c, 0, 65, 0
6, 76350, Note_on_c, 0, 60, 100
6, 76379, Note_on_c, 0, 60, 0
6, 76380, Note_on_c, 0, 65, 100
6, 76409, Note_on_c, 0, 65, 0
6, 76410, Note_on_c, 0, 69, 100
6, 76439, Note_on_c, 0, 69, 0
6, 76440, Note_on_c, 0, 65, 100
6, 76469, Note_on_c, 0, 65, 0
6, 76470, Note_on_c, 0, 60, 100
6, 76499, Note_on_c, 0, 60, 0
6, 76500, Note_on_c, 0, 65, 100
6, 76529, Note_on_c, 0, 65, 0
6, 76530, Note_on_c, 0, 69, 100
6, 76559, Note_on_c, 0, 69, 0
6, 76560, Note_on_c, 0, 65, 100
6, 76589, Note_on_c, 0, 65, 0
6, 76590, Note_on_c, 0, 60, 100
6, 76619, Note_on_c, 0, 60, 0
6, 76620, Note_on_c, 0, 65, 100
6, 76649, Note_on_c, 0, 65, 0
6, 76650, Note_on_c, 0, 69, 100
6, 76679, Note_on_c, 0, 69, 0
6, 76680, Note_on_c, 0, 65, 100
6, 76709, Note_on_c, 0, 65, 0
6, 76710, Note_on_c, 0, 60, 100
6, 76739, Note_on_c, 0, 60, 0
6, 76740, Note_on_c, 0, 65, 100
6, 76769, Note_on_c, 0, 65, 0
6, 76770, Note_on_c, 0, 69, 100
6, 76799, Note_on_c, 0, 69, 0
6, 76800, Note_on_c, 0, 62, 100
6, 76829, Note_on_c, 0, 62, 0
6, 76830, Note_on_c, 0, 57, 100
6, 76859, Note_on_c, 0, 57, 0
6, 76860, Note_on_c, 0, 62, 100
6, 76889, Note_on_c, 0, 62, 0
6, 76890, Note_on_c, 0, 65, 100
6, 76919, Note_on_c, 0, 65, 0
6, 76920, Note_on_c, 0, 62, 100
6, 76949, Note_on_c, 0, 62, 0
6, 76950, Note_on_c, 0, 57, 100
6, 76979, Note_on_c, 0, 57, 0
6, 76980, Note_on_c, 0, 62, 100
6, 77009, Note_on_c, 0, 62, 0
6, 77010, Note_on_c, 0, 65, 100
6, 77039, Note_on_c, 0, 65, 0
6, 77040, Note_on_c, 0, 64, 100
6, 77069, Note_on_c, 0, 64, 0
6, 77070, Note_on_c, 0, 59, 100
6, 77099, Note_on_c, 0, 59, 0
6, 77100, Note_on_c, 0, 64, 100
6, 77129, Note_on_c, 0, 64, 0
6, 77130, Note_on_c, 0, 68, 100
6, 77159, Note_on_c, 0, 68, 0
6, 77160, Note_on_c, 0, 64, 100
6, 77189, Note_on_c, 0, 64, 0
6, 77190, Note_on_c, 0, 59, 100
6, 77219, Note_on_c, 0, 59, 0
6, 77220, Note_on_c, 0, 64, 100
6, 77249, Note_on_c, 0, 64, 0
6, 77250, Note_on_c, 0, 68, 100
6, 77279, Note_on_c, 0, 68, 0
6, 77280, Note_on_c, 0, 69, 100
6, 77309, Note_on_c, 0, 69, 0
6, 77310, Note_on_c, 0, 64, 100
6, 77339, Note_on_c, 0, 64, 0
6, 77340, Note_on_c, 0, 69, 100
6, 77369, Note_on_c, 0, 69, 0
6, 77370, Note_on_c, 0, 72, 100
6, 77399, Note_on_c, 0, 72, 0
6, 77400, Note_on_c, 0, 69, 100
6, 77429, Note_on_c, 0, 69, 0
6, 77430, Note_on_c, 0, 64, 100
6, 77459, Note_on_c, 0, 64, 0
6, 77460, Note_on_c, 0, 69, 100
6, 77489, Note_on_c, 0, 69, 0
6, 77490, Note_on_c, 0, 72, 100
6, 77519, Note_on_c, 0, 72, 0
6, 77520, Note_on_c, 0, 69, 100
6, 77549, Note_on_c, 0, 69, 0
6, 77550, Note_on_c, 0, 64, 100
6, 77579, Note_on_c, 0, 64, 0
6, 77580, Note_on_c, 0, 69, 100
6, 77609, Note_on_c, 0, 69, 0
6, 77610, Note_on_c, 0, 72, 100
6, 77639, Note_on_c, 0, 72, 0
6, 77640, Note_on_c, 0, 69, 100
6, 77669, Note_on_c, 0, 69, 0
6, 77670, Note_on_c, 0, 64, 100
6, 77699, Note_on_c, 0, 64, 0
6, 77700, Note_on_c, 0, 69, 100
6, 77729, Note_on_c, 0, 69, 0
6, 77730, Note_on_c, 0, 72, 100
6, 77759, Note_on_c, 0, 72, 0
6, 77760, Note_on_c, 0, 69, 100
6, 77789, Note_on_c, 0, 69, 0
6, 77790, Note_on_c, 0, 64, 100
6, 77819, Note_on_c, 0, 64, 0
6, 77820, Note_on_c, 0, 69, 100
6, 77849, Note_on_c, 0, 69, 0
6, 77850, Note_on_c, 0, 72, 100
6, 77879, Note_on_c, 0, 72, 0
6, 77880, Note_on_c, 0, 69, 100
6, 77909, Note_on_c, 0, 69, 0
6, 77910, Note_on_c, 0, 64, 100
6, 77939, Note_on_c, 0, 64, 0
6, 77940, Note_on_c, 0, 69, 100
6, 77969, Note_on_c, 0, 69, 0
6, 77970, Note_on_c, 0, 72, 100
6, 77999, Note_on_c, 0, 72, 0
6, 78000, Note_on_c, 0, 69, 100
6, 78029, Note_on_c, 0, 69, 0
6, 78030, Note_on_c, 0, 64, 100
6, 78059, Note_on_c, 0, 64, 0
6, 78060, Note_on_c, 0, 69, 100
6, 78089, Note_on_c, 0, 69, 0
6, 78090, Note_on_c, 0, 72, 100
6, 78119, Note_on_c, 0, 72, 0
6, 78120, Note_on_c, 0, 69, 100
6, 78149, Note_on_c, 0, 69, 0
6, 78150, Note_on_c, 0, 64, 100
6, 78179, Note_on_c, 0, 64, 0
6, 78180, Note_on_c, 0, 69, 100
6, 78209, Note_on_c, 0, 69, 0
6, 78210, Note_on_c, 0, 72, 100
6, 78239, Note_on_c, 0, 72, 0
6, 78240, Note_on_c, 0, 69, 100
6, 78269, Note_on_c, 0, 69, 0
6, 78270, Note_on_c, 0, 64, 100
6, 78299, Note_on_c, 0, 64, 0
6, 78300, Note_on_c, 0, 69, 100
6, 78329, Note_on_c, 0, 69, 0
6, 78330, Note_on_c, 0, 72, 100
6, 78359, Note_on_c, 0, 72, 0
6, 78360, Note_on_c, 0, 69, 100
6, 78389, Note_on_c, 0, 69, 0
6, 78390, Note_on_c, 0, 64, 100
6, 78419, Note_on_c, 0, 64, 0
6, 78420, Note_on_c, 0, 69, 100
6, 78449, Note_on_c, 0, 69, 0
6, 78450, Note_on_c, 0, 72, 100
6, 78479, Note_on_c, 0, 72, 0
6, 78480, Note_on_c, 0, 69, 100
6, 78509, Note_on_c, 0, 69, 0
6, 78510, Note_on_c, 0, 64, 100
6, 78539, Note_on_c, 0, 64, 0
6, 78540, Note_on_c, 0, 69, 100
6, 78569, Note_on_c, 0, 69, 0
6, 78570, Note_on_c, 0, 72, 100
6, 78599, Note_on_c, 0, 72, 0
6, 78600, Note_on_c, 0, 69, 100
6, 78629, Note_on_c, 0, 69, 0
6, 78630, Note_on_c, 0, 64, 100
6, 78659, Note_on_c, 0, 64, 0
6, 78660, Note_on_c, 0, 69, 100
6, 78689, Note_on_c, 0, 69, 0
6, 78690, Note_on_c, 0, 72, 100
6, 78719, Note_on_c, 0, 72, 0
6, 78720, Note_on_c, 0, 69, 100
6, 78749, Note_on_c, 0, 69, 0
6, 78750, Note_on_c, 0, 64, 100
6, 78779, Note_on_c, 0, 64, 0
6, 78780, Note_on_c, 0, 69, 100
6, 78809, Note_on_c, 0, 69, 0
6, 78810, Note_on_c, 0, 72, 100
6, 78839, Note_on_c, 0, 72, 0
6, 78840, Note_on_c, 0, 69, 100
6, 78869, Note_on_c, 0, 69, 0
6, 78870, Note_on_c, 0, 64, 100
6, 78899, Note_on_c, 0, 64, 0
6, 78900, Note_on_c, 0, 69, 100
6, 78929, Note_on_c, 0, 69, 0
6, 78930, Note_on_c, 0, 72, 100
6, 78959, Note_on_c, 0, 72, 0
6, 78960, Note_on_c, 0, 69, 100
6, 78989, Note_on_c, 0, 69, 0
6, 78990, Note_on_c, 0, 64, 100
6, 79019, Note_on_c, 0, 64, 0
6, 79020, Note_on_c, 0, 69, 100
6, 79049, Note_on_c, 0, 69, 0
6, 79050, Note_on_c, 0, 72, 100
6, 79079, Note_on_c, 0, 72, 0
6, 79080, Note_on_c, 0, 69, 100
6, 79109, Note_on_c, 0, 69, 0
6, 79110, Note_on_c, 0, 64, 100
6, 79139, Note_on_c, 0, 64, 0
6, 79140, Note_on_c, 0, 69, 100
6, 79169, Note_on_c, 0, 69, 0
6, 79170, Note_on_c, 0, 72, 100
6, 79199, Note_on_c, 0, 72, 0
6, 79200, Note_on_c, 0, 69, 100
6, 79229, Note_on_c, 0, 69, 0
6, 79230, Note_on_c, 0, 64, 100
6, 79259, Note_on_c, 0, 64, 0
6, 79260, Note_on_c, 0, 69, 100
6, 79289, Note_on_c, 0, 69, 0
6, 79290, Note_on_c, 0, 72, 100
6, 79319, Note_on_c, 0, 72, 0
6, 79320, Note_on_c, 0, 69, 100
6, 79349, Note_on_c, 0, 69, 0
6, 79350, Note_on_c, 0, 64, 100
6, 79379, Note_on_c, 0, 64, 0
6, 79380, Note_on_c, 0, 69, 100
6, 79409, Note_on_c, 0, 69, 0
6, 79410, Note_on_c, 0, 72, 100
6, 79439, Note_on_c, 0, 72, 0
6, 79440, Note_on_c, 0, 69, 100
6, 79469, Note_on_c, 0, 69, 0
6, 79470, Note_on_c, 0, 64, 100
6, 79499, Note_on_c, 0, 64, 0
6, 79500, Note_on_c, 0, 69, 100
6, 79529, Note_on_c, 0, 69, 0
6, 79530, Note_on_c, 0, 72, 100
6, 79559, Note_on_c, 0, 72, 0
6, 79560, Note_on_c, 0, 69, 100
6, 79589, Note_on_c, 0, 69, 0
6, 79590, Note_on_c, 0, 64, 100
6, 79619, Note_on_c, 0, 64, 0
6, 79620, Note_on_c, 0, 69, 100
6, 79649, Note_on_c, 0, 69, 0
6, 79650, Note_on_c, 0, 72, 100
6, 79679, Note_on_c, 0, 72, 0
6, 79680, Note_on_c, 0, 69, 100
6, 79709, Note_on_c, 0, 69, 0
6, 79710, Note_on_c, 0, 64, 100
6, 79739, Note_on_c, 0, 64, 0
6, 79740, Note_on_c, 0, 69, 100
6, 79769, Note_on_c, 0, 69, 0
6, 79770, Note_on_c, 0, 72, 100
6, 79799, Note_on_c, 0, 72, 0
6, 79800, Note_on_c, 0, 69, 100
6, 79829, Note_on_c, 0, 69, 0
6, 79830, Note_on_c, 0, 64, 100
6, 79859, Note_on_c, 0, 64, 0
6, 79860, Note_on_c, 0, 69, 100
6, 79889, Note_on_c, 0, 69, 0
6, 79890, Note_on_c, 0, 72, 100
6, 79919, Note_on_c, 0, 72, 0
6, 79920, Note_on_c, 0, 69, 100
6, 79949, Note_on_c, 0, 69, 0
6, 79950, Note_on_c, 0, 64, 100
6, 79979, Note_on_c, 0, 64, 0
6, 79980, Note_on_c, 0, 69, 100
6, 80009, Note_on_c, 0, 69, 0
6, 80010, Note_on_c, 0, 72, 100
6, 80039, Note_on_c, 0, 72, 0
6, 80040, Note_on_c, 0, 69, 100
6, 80069, Note_on_c, 0, 69, 0
6, 80070, Note_on_c, 0, 64, 100
6, 80099, Note_on_c, 0, 64, 0
6, 80100, Note_on_c, 0, 69, 100
6, 80129, Note_on_c, 0, 69, 0
6, 80130, Note_on_c, 0, 72, 100
6, 80159, Note_on_c, 0, 72, 0
6, 80160, Note_on_c, 0, 69, 100
6, 80189, Note_on_c, 0, 69, 0
6, 80190, Note_on_c, 0, 64, 100
6, 80219, Note_on_c, 0, 64, 0
6, 80220, Note_on_c, 0, 69, 100
6, 80249, Note_on_c, 0, 69, 0
6, 80250, Note_on_c, 0, 72, 100
6, 80279, Note_on_c, 0, 72, 0
6, 80280, Note_on_c, 0, 69, 100
6, 80309, Note_on_c, 0, 69, 0
6, 80310, Note_on_c, 0, 64, 100
6, 80339, Note_on_c, 0, 64, 0
6, 80340, Note_on_c, 0, 69, 100
6, 80369, Note_on_c, 0, 69, 0
6, 80370, Note_on_c, 0, 72, 100
6, 80399, Note_on_c, 0, 72, 0
6, 80400, Note_on_c, 0, 69, 100
6, 80429, Note_on_c, 0, 69, 0
6, 80430, Note_on_c, 0, 64, 100
6, 80459, Note_on_c, 0, 64, 0
6, 80460, Note_on_c, 0, 69, 100
6, 80489, Note_on_c, 0, 69, 0
6, 80490, Note_on_c, 0, 72, 100
6, 80519, Note_on_c, 0, 72, 0
6, 80520, Note_on_c, 0, 69, 100
6, 80549, Note_on_c, 0, 69, 0
6, 80550, Note_on_c, 0, 64, 100
6, 80579, Note_on_c, 0, 64, 0
6, 80580, Note_on_c, 0, 69, 100
6, 80609, Note_on_c, 0, 69, 0
6, 80610, Note_on_c, 0, 72, 100
6, 80639, Note_on_c, 0, 72, 0
6, 80640, Note_on_c, 0, 69, 100
6, 80669, Note_on_c, 0, 69, 0
6, 80670, Note_on_c, 0, 64, 100
6, 80699, Note_on_c, 0, 64, 0
6, 80700, Note_on_c, 0, 69, 100
6, 80729, Note_on_c, 0, 69, 0
6, 80730, Note_on_c, 0, 72, 100
6, 80759, Note_on_c, 0, 72, 0
6, 80760, Note_on_c, 0, 69, 100
6, 80789, Note_on_c, 0, 69, 0
6, 80790, Note_on_c, 0, 64, 100
6, 80819, Note_on_c, 0, 64, 0
6, 80820, Note_on_c, 0, 69, 100
6, 80849, Note_on_c, 0, 69, 0
6, 80850, Note_on_c, 0, 72, 100
6, 80879, Note_on_c, 0, 72, 0
6, 80880, Note_on_c, 0, 69, 100
6, 80909, Note_on_c, 0, 69, 0
6, 80910, Note_on_c, 0, 64, 100
6, 80939, Note_on_c, 0, 64, 0
6, 80940, Note_on_c, 0, 69, 100
6, 80969, Note_on_c, 0, 69, 0
6, 80970, Note_on_c, 0, 72, 100
6, 80999, Note_on_c, 0, 72, 0
6, 81000, Note_on_c, 0, 69, 100
6, 81029, Note_on_c, 0, 69, 0
6, 81030, Note_on_c, 0, 64, 100
6, 81059, Note_on_c, 0, 64, 0
6, 81060, Note_on_c, 0, 69, 100
6, 81089, Note_on_c, 0, 69, 0
6, 81090, Note_on_c, 0, 72, 100
6, 81119, Note_on_c, 0, 72, 0
6, 81120, Note_on_c, 0, 69, 100
6, 81149, Note_on_c, 0, 69, 0
6, 81150, Note_on_c, 0, 64, 100
6, 81179, Note_on_c, 0, 64, 0
6, 81180, Note_on_c, 0, 69, 100
6, 81209, Note_on_c, 0, 69, 0
6, 81210, Note_on_c, 0, 72, 100
6, 81239, Note_on_c, 0, 72, 0
6, 81240, Note_on_c, 0, 69, 100
6, 81269, Note_on_c, 0, 69, 0
6, 81270, Note_on_c, 0, 64, 100
6, 81299, Note_on_c, 0, 64, 0
6, 81300, Note_on_c, 0, 69, 100
6, 81329, Note_on_c, 0, 69, 0
6, 81330, Note_on_c, 0, 72, 100
6, 81359, Note_on_c, 0, 72, 0
6, 81360, Note_on_c, 0, 69, 100
6, 81389, Note_on_c, 0, 69, 0
6, 81390, Note_on_c, 0, 64, 100
6, 81419, Note_on_c, 0, 64, 0
6, 81420, Note_on_c, 0, 69, 100
6, 81449, Note_on_c, 0, 69, 0
6, 81450, Note_on_c, 0, 72, 100
6, 81479, Note_on_c, 0, 72, 0
6, 81480, Note_on_c, 0, 69, 100
6, 81509, Note_on_c, 0, 69, 0
6, 81510, Note_on_c, 0, 64, 100
6, 81539, Note_on_c, 0, 64, 0
6, 81540, Note_on_c, 0, 69, 100
6, 81569, Note_on_c, 0, 69, 0
6, 81570, Note_on_c, 0, 72, 100
6, 81599, Note_on_c, 0, 72, 0
6, 81600, Note_on_c, 0, 69, 100
6, 81629, Note_on_c, 0, 69, 0
6, 81630, Note_on_c, 0, 64, 100
6, 81659, Note_on_c, 0, 64, 0
6, 81660, Note_on_c, 0, 69, 100
6, 81689, Note_on_c, 0, 69, 0
6, 81690, Note_on_c, 0, 72, 100
6, 81719, Note_on_c, 0, 72, 0
6, 81720, Note_on_c, 0, 69, 100
6, 81749, Note_on_c, 0, 69, 0
6, 81750, Note_on_c, 0, 64, 100
6, 81779, Note_on_c, 0, 64, 0
6, 81780, Note_on_c, 0, 69, 100
6, 81809, Note_on_c, 0, 69, 0
6, 81810, Note_on_c, 0, 72, 100
6, 81839, Note_on_c, 0, 72, 0
6, 81840, Note_on_c, 0, 69, 100
6, 81869, Note_on_c, 0, 69, 0
6, 81870, Note_on_c, 0, 64, 100
6, 81899, Note_on_c, 0, 64, 0
6, 81900, Note_on_c, 0, 69, 100
6, 81929, Note_on_c, 0, 69, 0
6, 81930, Note_on_c, 0, 72, 100
6, 81959, Note_on_c, 0, 72, 0
6, 81960, Note_on_c, 0, 69, 100
6, 81989, Note_on_c, 0, 69, 0
6, 81990, Note_on_c, 0, 64, 100
6, 82019, Note_on_c, 0, 64, 0
6, 82020, Note_on_c, 0, 69, 100
6, 82049, Note_on_c, 0, 69, 0
6, 82050, Note_on_c, 0, 72, 100
6, 82079, Note_on_c, 0, 72, 0
6, 82080, Note_on_c, 0, 69, 100
6, 82109, Note_on_c, 0, 69, 0
6, 82110, Note_on_c, 0, 64, 100
6, 82139, Note_on_c, 0, 64, 0
6, 82140, Note_on_c, 0, 69, 100
6, 82169, Note_on_c, 0, 69, 0
6, 82170, Note_on_c, 0, 72, 100
6, 82199, Note_on_c, 0, 72, 0
6, 82200, Note_on_c, 0, 69, 100
6, 82229, Note_on_c, 0, 69, 0
6, 82230, Note_on_c, 0, 64, 100
6, 82259, Note_on_c, 0, 64, 0
6, 82260, Note_on_c, 0, 69, 100
6, 82289, Note_on_c, 0, 69, 0
6, 82290, Note_on_c, 0, 72, 100
6, 82319, Note_on_c, 0, 72, 0
6, 82320, Note_on_c, 0, 69, 100
6, 82349, Note_on_c, 0, 69, 0
6, 82350, Note_on_c, 0, 64, 100
6, 82379, Note_on_c, 0, 64, 0
6, 82380, Note_on_c, 0, 69, 100
6, 82409, Note_on_c, 0, 69, 0
6, 82410, Note_on_c, 0, 72, 100
6, 82439, Note_on_c, 0, 72, 0
6, 82440, Note_on_c, 0, 69, 100
6, 82469, Note_on_c, 0, 69, 0
6, 82470, Note_on_c, 0, 64, 100
6, 82499, Note_on_c, 0, 64, 0
6, 82500, Note_on_c, 0, 69, 100
6, 82529, Note_on_c, 0, 69, 0
6, 82530, Note_on_c, 0, 72, 100
6, 82559, Note_on_c, 0, 72, 0
6, 82560, Note_on_c, 0, 69, 100
6, 82589, Note_on_c, 0, 69, 0
6, 82590, Note_on_c, 0, 64, 100
6, 82619, Note_on_c, 0, 64, 0
6, 82620, Note_on_c, 0, 69, 100
6, 82649, Note_on_c, 0, 69, 0
6, 82650, Note_on_c, 0, 72, 100
6, 82679, Note_on_c, 0, 72, 0
6, 82680, Note_on_c, 0, 69, 100
6, 82709, Note_on_c, 0, 69, 0
6, 82710, Note_on_c, 0, 64, 100
6, 82739, Note_on_c, 0, 64, 0
6, 82740, Note_on_c, 0, 69, 100
6, 82769, Note_on_c, 0, 69, 0
6, 82770, Note_on_c, 0, 72, 100
6, 82799, Note_on_c, 0, 72, 0
6, 82800, Note_on_c, 0, 69, 100
6, 82829, Note_on_c, 0, 69, 0
6, 82830, Note_on_c, 0, 64, 100
6, 82859, Note_on_c, 0, 64, 0
6, 82860, Note_on_c, 0, 69, 100
6, 82889, Note_on_c, 0, 69, 0
6, 82890, Note_on_c, 0, 72, 100
6, 82919, Note_on_c, 0, 72, 0
6, 82920, Note_on_c, 0, 69, 100
6, 82949, Note_on_c, 0, 69, 0
6, 82950, Note_on_c, 0, 64, 100
6, 82979, Note_on_c, 0, 64, 0
6, 82980, Note_on_c, 0, 69, 100
6, 83009, Note_on_c, 0, 69, 0
6, 83010, Note_on_c, 0, 72, 100
6, 83039, Note_on_c, 0, 72, 0
6, 83040, Note_on_c, 0, 69, 100
6, 83069, Note_on_c, 0, 69, 0
6, 83070, Note_on_c, 0, 64, 100
6, 83099, Note_on_c, 0, 64, 0
6, 83100, Note_on_c, 0, 69, 100
6, 83129, Note_on_c, 0, 69, 0
6, 83130, Note_on_c, 0, 72, 100
6, 83159, Note_on_c, 0, 72, 0
6, 83160, Note_on_c, 0, 69, 100
6, 83189, Note_on_c, 0, 69, 0
6, 83190, Note_on_c, 0, 64, 100
6, 83219, Note_on_c, 0, 64, 0
6, 83220, Note_on_c, 0, 69, 100
6, 83249, Note_on_c, 0, 69, 0
6, 83250, Note_on_c, 0, 72, 100
6, 83279, Note_on_c, 0, 72, 0
6, 83280, Note_on_c, 0, 69, 100
6, 83309, Note_on_c, 0, 69, 0
6, 83310, Note_on_c, 0, 64, 100
6, 83339, Note_on_c, 0, 64, 0
6, 83340, Note_on_c, 0, 69, 100
6, 83369, Note_on_c, 0, 69, 0
6, 83370, Note_on_c, 0, 72, 100
6, 83399, Note_on_c, 0, 72, 0
6, 83400, Note_on_c, 0, 69, 100
6, 83429, Note_on_c, 0, 69, 0
6, 83430, Note_on_c, 0, 64, 100
6, 83459, Note_on_c, 0, 64, 0
6, 83460, Note_on_c, 0, 69, 100
6, 83489, Note_on_c, 0, 69, 0
6, 83490, Note_on_c, 0, 72, 100
6, 83519, Note_on_c, 0, 72, 0
6, 83520, Note_on_c, 0, 69, 100
6, 83549, Note_on_c, 0, 69, 0
6, 83550, Note_on_c, 0, 64, 100
6, 83579, Note_on_c, 0, 64, 0
6, 83580, Note_on_c, 0, 69, 100
6, 83609, Note_on_c, 0, 69, 0
6, 83610, Note_on_c, 0, 72, 100
6, 83639, Note_on_c, 0, 72, 0
6, 83640, Note_on_c, 0, 69, 100
6, 83669, Note_on_c, 0, 69, 0
6, 83670, Note_on_c, 0, 64, 100
6, 83699, Note_on_c, 0, 64, 0
6, 83700, Note_on_c, 0, 69, 100
6, 83729, Note_on_c, 0, 69, 0
6, 83730, Note_on_c, 0, 72, 100
6, 83759, Note_on_c, 0, 72, 0
6, 83760, Note_on_c, 0, 69, 100
6, 83789, Note_on_c, 0, 69, 0
6, 83790, Note_on_c, 0, 64, 100
6, 83819, Note_on_c, 0, 64, 0
6, 83820, Note_on_c, 0, 69, 100
6, 83849, Note_on_c, 0, 69, 0
6, 83850, Note_on_c, 0, 72, 100
6, 83879, Note_on_c, 0, 72, 0
6, 83880, Note_on_c, 0, 69, 100
6, 83909, Note_on_c, 0, 69, 0
6, 83910, Note_on_c, 0, 64, 100
6, 83939, Note_on_c, 0, 64, 0
6, 83940, Note_on_c, 0, 69, 100
6, 83969, Note_on_c, 0, 69, 0
6, 83970, Note_on_c, 0, 72, 100
6, 83999, Note_on_c, 0, 72, 0
6, 84000, Note_on_c, 0, 67, 100
6, 84029, Note_on_c, 0, 67, 0
6, 84030, Note_on_c, 0, 62, 100
6, 84059, Note_on_c, 0, 62, 0
6, 84060, Note_on_c, 0, 67, 100
6, 84089, Note_on_c, 0, 67, 0
6, 84090, Note_on_c, 0, 71, 100
6, 84119, Note_on_c, 0, 71, 0
6, 84120, Note_on_c, 0, 67, 100
6, 84149, Note_on_c, 0, 67, 0
6, 84150, Note_on_c, 0, 62, 100
6, 84179, Note_on_c, 0, 62, 0
6, 84180, Note_on_c, 0, 67, 100
6, 84209, Note_on_c, 0, 67, 0
6, 84210, Note_on_c, 0, 71, 100
6, 84239, Note_on_c, 0, 71, 0
6, 84240, Note_on_c, 0, 65, 100
6, 84269, Note_on_c, 0, 65, 0
6, 84270, Note_on_c, 0, 60, 100
6, 84299, Note_on_c, 0, 60, 0
6, 84300, Note_on_c, 0, 65, 100
6, 84329, Note_on_c, 0, 65, 0
6, 84330, Note_on_c, 0, 69, 100
6, 84359, Note_on_c, 0, 69, 0
6, 84360, Note_on_c, 0, 65, 100
6, 84389, Note_on_c, 0, 65, 0
6, 84390, Note_on_c, 0, 60, 100
6, 84419, Note_on_c, 0, 60, 0
6, 84420, Note_on_c, 0, 65, 100
6, 84449, Note_on_c, 0, 65, 0
6, 84450, Note_on_c, 0, 69, 100
6, 84479, Note_on_c, 0, 69, 0
6, 84480, Note_on_c, 0, 69, 100
6, 84509, Note_on_c, 0, 69, 0
6, 84510, Note_on_c, 0, 64, 100
6, 84539, Note_on_c, 0, 64, 0
6, 84540, Note_on_c, 0, 69, 100
6, 84569, Note_on_c, 0, 69, 0
6, 84570, Note_on_c, 0, 72, 100
6, 84599, Note_on_c, 0, 72, 0
6, 84600, Note_on_c, 0, 69, 100
6, 84629, Note_on_c, 0, 69, 0
6, 84630, Note_on_c, 0, 64, 100
6, 84659, Note_on_c, 0, 64, 0
6, 84660, Note_on_c, 0, 69, 100
6, 84689, Note_on_c, 0, 69, 0
6, 84690, Note_on_c, 0, 72, 100
6, 84719, Note_on_c, 0, 72, 0
6, 84720, Note_on_c, 0, 69, 100
6, 84749, Note_on_c, 0, 69, 0
6, 84750, Note_on_c, 0, 64, 100
6, 84779, Note_on_c, 0, 64, 0
6, 84780, Note_on_c, 0, 69, 100
6, 84809, Note_on_c, 0, 69, 0
6, 84810, Note_on_c, 0, 72, 100
6, 84839, Note_on_c, 0, 72, 0
6, 84840, Note_on_c, 0, 69, 100
6, 84869, Note_on_c, 0, 69, 0
6, 84870, Note_on_c, 0, 64, 100
6, 84899, Note_on_c, 0, 64, 0
6, 84900, Note_on_c, 0, 69, 100
6, 84929, Note_on_c, 0, 69, 0
6, 84930, Note_on_c, 0, 72, 100
6, 84959, Note_on_c, 0, 72, 0
6, 84960, Note_on_c, 0, 69, 100
6, 84989, Note_on_c, 0, 69, 0
6, 84990, Note_on_c, 0, 64, 100
6, 85019, Note_on_c, 0, 64, 0
6, 85020, Note_on_c, 0, 69, 100
6, 85049, Note_on_c, 0, 69, 0
6, 85050, Note_on_c, 0, 72, 100
6, 85079, Note_on_c, 0, 72, 0
6, 85080, Note_on_c, 0, 69, 100
6, 85109, Note_on_c, 0, 69, 0
6, 85110, Note_on_c, 0, 64, 100
6, 85139, Note_on_c, 0, 64, 0
6, 85140, Note_on_c, 0, 69, 100
6, 85169, Note_on_c, 0, 69, 0
6, 85170, Note_on_c, 0, 72, 100
6, 85199, Note_on_c, 0, 72, 0
6, 85200, Note_on_c, 0, 69, 100
6, 85229, Note_on_c, 0, 69, 0
6, 85230, Note_on_c, 0, 64, 100
6, 85259, Note_on_c, 0, 64, 0
6, 85260, Note_on_c, 0, 69, 100
6, 85289, Note_on_c, 0, 69, 0
6, 85290, Note_on_c, 0, 72, 100
6, 85319, Note_on_c, 0, 72, 0
6, 85320, Note_on_c, 0, 69, 100
6, 85349, Note_on_c, 0, 69, 0
6, 85350, Note_on_c, 0, 64, 100
6, 85379, Note_on_c, 0, 64, 0
6, 85380, Note_on_c, 0, 69, 100
6, 85409, Note_on_c, 0, 69, 0
6, 85410, Note_on_c, 0, 72, 100
6, 85439, Note_on_c, 0, 72, 0
6, 85440, Note_on_c, 0, 69, 100
6, 85469, Note_on_c, 0, 69, 0
6, 85470, Note_on_c, 0, 64, 100
6, 85499, Note_on_c, 0, 64, 0
6, 85500, Note_on_c, 0, 69, 100
6, 85529, Note_on_c, 0, 69, 0
6, 85530, Note_on_c, 0, 72, 100
6, 85559, Note_on_c, 0, 72, 0
6, 85560, Note_on_c, 0, 69, 100
6, 85589, Note_on_c, 0, 69, 0
6, 85590, Note_on_c, 0, 64, 100
6, 85619, Note_on_c, 0, 64, 0
6, 85620, Note_on_c, 0, 69, 100
6, 85649, Note_on_c, 0, 69, 0
6, 85650, Note_on_c, 0, 72, 100
6, 85679, Note_on_c, 0, 72, 0
6, 85680, Note_on_c, 0, 69, 100
6, 85709, Note_on_c, 0, 69, 0
6, 85710, Note_on_c, 0, 64, 100
6, 85739, Note_on_c, 0, 64, 0
6, 85740, Note_on_c, 0, 69, 100
6, 85769, Note_on_c, 0, 69, 0
6, 85770, Note_on_c, 0, 72, 100
6, 85799, Note_on_c, 0, 72, 0
6, 85800, Note_on_c, 0, 69, 100
6, 85829, Note_on_c, 0, 69, 0
6, 85830, Note_on_c, 0, 64, 100
6, 85859, Note_on_c, 0, 64, 0
6, 85860, Note_on_c, 0, 69, 100
6, 85889, Note_on_c, 0, 69, 0
6, 85890, Note_on_c, 0, 72, 100
6, 85919, Note_on_c, 0, 72, 0
6, 85920, Note_on_c, 0, 67, 100
6, 85949, Note_on_c, 0, 67, 0
6, 85950, Note_on_c, 0, 62, 100
6, 85979, Note_on_c, 0, 62, 0
6, 85980, Note_on_c, 0, 67, 100
6, 86009, Note_on_c, 0, 67, 0
6, 86010, Note_on_c, 0, 71, 100
6, 86039, Note_on_c, 0, 71, 0
6, 86040, Note_on_c, 0, 67, 100
6, 86069, Note_on_c, 0, 67, 0
6, 86070, Note_on_c, 0, 62, 100
6, 86099, Note_on_c, 0, 62, 0
6, 86100, Note_on_c, 0, 67, 100
6, 86129, Note_on_c, 0, 67, 0
6, 86130, Note_on_c, 0, 71, 100
6, 86159, Note_on_c, 0, 71, 0
6, 86160, Note_on_c, 0, 65, 100
6, 86189, Note_on_c, 0, 65, 0
6, 86190, Note_on_c, 0, 60, 100
6, 86219, Note_on_c, 0, 60, 0
6, 86220, Note_on_c, 0, 65, 100
6, 86249, Note_on_c, 0, 65, 0
6, 86250, Note_on_c, 0, 69, 100
6, 86279, Note_on_c, 0, 69, 0
6, 86280, Note_on_c, 0, 65, 100
6, 86309, Note_on_c, 0, 65, 0
6, 86310, Note_on_c, 0, 60, 100
6, 86339, Note_on_c, 0, 60, 0
6, 86340, Note_on_c, 0, 65, 100
6, 86369, Note_on_c, 0, 65, 0
6, 86370, Note_on_c, 0, 69, 100
6, 86399, Note_on_c, 0, 69, 0
6, 86400, Note_on_c, 0, 69, 100
6, 86429, Note_on_c, 0, 69, 0
6, 86430, Note_on_c, 0, 64, 100
6, 86459, Note_on_c, 0, 64, 0
6, 86460, Note_on_c, 0, 69, 100
6, 86489, Note_on_c, 0, 69, 0
6, 86490, Note_on_c, 0, 72, 100
6, 86519, Note_on_c, 0, 72, 0
6, 86520, Note_on_c, 0, 69, 100
6, 86549, Note_on_c, 0, 69, 0
6, 86550, Note_on_c, 0, 64, 100
6, 86579, Note_on_c, 0, 64, 0
6, 86580, Note_on_c, 0, 69, 100
6, 86609, Note_on_c, 0, 69, 0
6, 86610, Note_on_c, 0, 72, 100
6, 86639, Note_on_c, 0, 72, 0
6, 86640, Note_on_c, 0, 69, 100
6, 86669, Note_on_c, 0, 69, 0
6, 86670, Note_on_c, 0, 64, 100
6, 86699, Note_on_c, 0, 64, 0
6, 86700, Note_on_c, 0, 69, 100
6, 86729, Note_on_c, 0, 69, 0
6, 86730, Note_on_c, 0, 72, 100
6, 86759, Note_on_c, 0, 72, 0
6, 86760, Note_on_c, 0, 69, 100
6, 86789, Note_on_c, 0, 69, 0
6, 86790, Note_on_c, 0, 64, 100
6, 86819, Note_on_c, 0, 64, 0
6, 86820, Note_on_c, 0, 69, 100
6, 86849, Note_on_c, 0, 69, 0
6, 86850, Note_on_c, 0, 72, 100
6, 86879, Note_on_c, 0, 72, 0
6, 86880, Note_on_c, 0, 69, 100
6, 86909, Note_on_c, 0, 69, 0
6, 86910, Note_on_c, 0, 64, 100
6, 86939, Note_on_c, 0, 64, 0
6, 86940, Note_on_c, 0, 69, 100
6, 86969, Note_on_c, 0, 69, 0
6, 86970, Note_on_c, 0, 72, 100
6, 86999, Note_on_c, 0, 72, 0
6, 87000, Note_on_c, 0, 69, 100
6, 87029, Note_on_c, 0, 69, 0
6, 87030, Note_on_c, 0, 64, 100
6, 87059, Note_on_c, 0, 64, 0
6, 87060, Note_on_c, 0, 69, 100
6, 87089, Note_on_c, 0, 69, 0
6, 87090, Note_on_c, 0, 72, 100
6, 87119, Note_on_c, 0, 72, 0
6, 87120, Note_on_c, 0, 69, 100
6, 87149, Note_on_c, 0, 69, 0
6, 87150, Note_on_c, 0, 64, 100
6, 87179, Note_on_c, 0, 64, 0
6, 87180, Note_on_c, 0, 69, 100
6, 87209, Note_on_c, 0, 69, 0
6, 87210, Note_on_c, 0, 72, 100
6, 87239, Note_on_c, 0, 72, 0
6, 87240, Note_on_c, 0, 69, 100
6, 87269, Note_on_c, 0, 69, 0
6, 87270, Note_on_c, 0, 64, 100
6, 87299, Note_on_c, 0, 64, 0
6, 87300, Note_on_c, 0, 69, 100
6, 87329, Note_on_c, 0, 69, 0
6, 87330, Note_on_c, 0, 72, 100
6, 87359, Note_on_c, 0, 72, 0
6, 87360, Note_on_c, 0, 72, 100
6, 87389, Note_on_c, 0, 72, 0
6, 87390, Note_on_c, 0, 67, 100
6, 87419, Note_on_c, 0, 67, 0
6, 87420, Note_on_c, 0, 72, 100
6, 87449, Note_on_c, 0, 72, 0
6, 87450, Note_on_c, 0, 76, 100
6, 87479, Note_on_c, 0, 76, 0
6, 87480, Note_on_c, 0, 72, 100
6, 87509, Note_on_c, 0, 72, 0
6, 87510, Note_on_c, 0, 67, 100
6, 87539, Note_on_c, 0, 67, 0
6, 87540, Note_on_c, 0, 72, 100
6, 87569, Note_on_c, 0, 72, 0
6, 87570, Note_on_c, 0, 76, 100
6, 87599, Note_on_c, 0, 76, 0
6, 87600, Note_on_c, 0, 72, 100
6, 87629, Note_on_c, 0, 72, 0
6, 87630, Note_on_c, 0, 67, 100
6, 87659, Note_on_c, 0, 67, 0
6, 87660, Note_on_c, 0, 72, 100
6, 87689, Note_on_c, 0, 72, 0
6, 87690, Note_on_c, 0, 76, 100
6, 87719, Note_on_c, 0, 76, 0
6, 87720, Note_on_c, 0, 72, 100
6, 87749, Note_on_c, 0, 72, 0
6, 87750, Note_on_c, 0, 67, 100
6, 87779, Note_on_c, 0, 67, 0
6, 87780, Note_on_c, 0, 72, 100
6, 87809, Note_on_c, 0, 72, 0
6, 87810, Note_on_c, 0, 76, 100
6, 87839, Note_on_c, 0, 76, 0
6, 87840, Note_on_c, 0, 65, 100
6, 87869, Note_on_c, 0, 65, 0
6, 87870, Note_on_c, 0, 60, 100
6, 87899, Note_on_c, 0, 60, 0
6, 87900, Note_on_c, 0, 65, 100
6, 87929, Note_on_c, 0, 65, 0
6, 87930, Note_on_c, 0, 69, 100
6, 87959, Note_on_c, 0, 69, 0
6, 87960, Note_on_c, 0, 65, 100
6, 87989, Note_on_c, 0, 65, 0
6, 87990, Note_on_c, 0, 60, 100
6, 88019, Note_on_c, 0, 60, 0
6, 88020, Note_on_c, 0, 65, 100
6, 88049, Note_on_c, 0, 65, 0
6, 88050, Note_on_c, 0, 69, 100
6, 88079, Note_on_c, 0, 69, 0
6, 88080, Note_on_c, 0, 65, 100
6, 88109, Note_on_c, 0, 65, 0
6, 88110, Note_on_c, 0, 60, 100
6, 88139, Note_on_c, 0, 60, 0
6, 88140, Note_on_c, 0, 65, 100
6, 88169, Note_on_c, 0, 65, 0
6, 88170, Note_on_c, 0, 69, 100
6, 88199, Note_on_c, 0, 69, 0
6, 88200, Note_on_c, 0, 65, 100
6, 88229, Note_on_c, 0, 65, 0
6, 88230, Note_on_c, 0, 60, 100
6, 88259, Note_on_c, 0, 60, 0
6, 88260, Note_on_c, 0, 65, 100
6, 88289, Note_on_c, 0, 65, 0
6, 88290, Note_on_c, 0, 69, 100
6, 88319, Note_on_c, 0, 69, 0
6, 88320, Note_on_c, 0, 62, 100
6, 88349, Note_on_c, 0, 62, 0
6, 88350, Note_on_c, 0, 57, 100
6, 88379, Note_on_c, 0, 57, 0
6, 88380, Note_on_c, 0, 62, 100
6, 88409, Note_on_c, 0, 62, 0
6, 88410, Note_on_c, 0, 65, 100
6, 88439, Note_on_c, 0, 65, 0
6, 88440, Note_on_c, 0, 62, 100
6, 88469, Note_on_c, 0, 62, 0
6, 88470, Note_on_c, 0, 57, 100
6, 88499, Note_on_c, 0, 57, 0
6, 88500, Note_on_c, 0, 62, 100
6, 88529, Note_on_c, 0, 62, 0
6, 88530, Note_on_c, 0, 65, 100
6, 88559, Note_on_c, 0, 65, 0
6, 88560, Note_on_c, 0, 64, 100
6, 88589, Note_on_c, 0, 64, 0
6, 88590, Note_on_c, 0, 59, 100
6, 88619, Note_on_c, 0, 59, 0
6, 88620, Note_on_c, 0, 64, 100
6, 88649, Note_on_c, 0, 64, 0
6, 88650, Note_on_c, 0, 68, 100
6, 88679, Note_on_c, 0, 68, 0
6, 88680, Note_on_c, 0, 64, 100
6, 88709, Note_on_c, 0, 64, 0
6, 88710, Note_on_c, 0, 59, 100
6, 88739, Note_on_c, 0, 59, 0
6, 88740, Note_on_c, 0, 64, 100
6, 88769, Note_on_c, 0, 64, 0
6, 88770, Note_on_c, 0, 68, 100
6, 88799, Note_on_c, 0, 68, 0
6, 88800, Note_on_c, 0, 69, 100
6, 88829, Note_on_c, 0, 69, 0
6, 88830, Note_on_c, 0, 64, 100
6, 88859, Note_on_c, 0, 64, 0
6, 88860, Note_on_c, 0, 69, 100
6, 88889, Note_on_c, 0, 69, 0
6, 88890, Note_on_c, 0, 72, 100
6, 88919, Note_on_c, 0, 72, 0
6, 88920, Note_on_c, 0, 69, 100
6, 88949, Note_on_c, 0, 69, 0
6, 88950, Note_on_c, 0, 64, 100
6, 88979, Note_on_c, 0, 64, 0
6, 88980, Note_on_c, 0, 69, 100
6, 89009, Note_on_c, 0, 69, 0
6, 89010, Note_on_c, 0, 72, 100
6, 89039, Note_on_c, 0, 72, 0
6, 89040, Note_on_c, 0, 69, 100
6, 89069, Note_on_c, 0, 69, 0
6, 89070, Note_on_c, 0, 64, 100
6, 89099, Note_on_c, 0, 64, 0
6, 89100, Note_on_c, 0, 69, 100
6, 89129, Note_on_c, 0, 69, 0
6, 89130, Note_on_c, 0, 72, 100
6, 89159, Note_on_c, 0, 72, 0
6, 89160, Note_on_c, 0, 69, 100
6, 89189, Note_on_c, 0, 69, 0
6, 89190, Note_on_c, 0, 64, 100
6, 89219, Note_on_c, 0, 64, 0
6, 89220, Note_on_c, 0, 69, 100
6, 89249, Note_on_c, 0, 69, 0
6, 89250, Note_on_c, 0, 72, 100
6, 89279, Note_on_c, 0, 72, 0
6, 89280, Note_on_c, 0, 69, 100
6, 89309, Note_on_c, 0, 69, 0
6, 89310, Note_on_c, 0, 64, 100
6, 89339, Note_on_c, 0, 64, 0
6, 89340, Note_on_c, 0, 69, 100
6, 89369, Note_on_c, 0, 69, 0
6, 89370, Note_on_c, 0, 72, 100
6, 89399, Note_on_c, 0, 72, 0
6, 89400, Note_on_c, 0, 69, 100
6, 89429, Note_on_c, 0, 69, 0
6, 89430, Note_on_c, 0, 64, 100
6, 89459, Note_on_c, 0, 64, 0
6, 89460, Note_on_c, 0, 69, 100
6, 89489, Note_on_c, 0, 69, 0
6, 89490, Note_on_c, 0, 72, 100
6, 89519, Note_on_c, 0, 72, 0
6, 89520, Note_on_c, 0, 69, 100
6, 89549, Note_on_c, 0, 69, 0
6, 89550, Note_on_c, 0, 64, 100
6, 89579, Note_on_c, 0, 64, 0
6, 89580, Note_on_c, 0, 69, 100
6, 89609, Note_on_c, 0, 69, 0
6, 89610, Note_on_c, 0, 72, 100
6, 89639, Note_on_c, 0, 72, 0
6, 89640, Note_on_c, 0, 69, 100
6, 89669, Note_on_c, 0, 69, 0
6, 89670, Note_on_c, 0, 64, 100
6, 89699, Note_on_c, 0, 64, 0
6, 89700, Note_on_c, 0, 69, 100
6, 89729, Note_on_c, 0, 69, 0
6, 89730, Note_on_c, 0, 72, 100
6, 89759, Note_on_c, 0, 72, 0
6, 89760, Note_on_c, 0, 67, 100
6, 89789, Note_on_c, 0, 67, 0
6, 89790, Note_on_c, 0, 62, 100
6, 89819, Note_on_c, 0, 62, 0
6, 89820, Note_on_c, 0, 67, 100
6, 89849, Note_on_c, 0, 67, 0
6, 89850, Note_on_c, 0, 71, 100
6, 89879, Note_on_c, 0, 71, 0
6, 89880, Note_on_c, 0, 67, 100
6, 89909, Note_on_c, 0, 67, 0
6, 89910, Note_on_c, 0, 62, 100
6, 89939, Note_on_c, 0, 62, 0
6, 89940, Note_on_c, 0, 67, 100
6, 89969, Note_on_c, 0, 67, 0
6, 89970, Note_on_c, 0, 71, 100
6, 89999, Note_on_c, 0, 71, 0
6, 90000, Note_on_c, 0, 65, 100
6, 90029, Note_on_c, 0, 65, 0
6, 90030, Note_on_c, 0, 60, 100
6, 90059, Note_on_c, 0, 60, 0
6, 90060, Note_on_c, 0, 65, 100
6, 90089, Note_on_c, 0, 65, 0
6, 90090, Note_on_c, 0, 69, 100
6, 90119, Note_on_c, 0, 69, 0
6, 90120, Note_on_c, 0, 65, 100
6, 90149, Note_on_c, 0, 65, 0
6, 90150, Note_on_c, 0, 60, 100
6, 90179, Note_on_c, 0, 60, 0
6, 90180, Note_on_c, 0, 65, 100
6, 90209, Note_on_c, 0, 65, 0
6, 90210, Note_on_c, 0, 69, 100
6, 90239, Note_on_c, 0, 69, 0
6, 90240, Note_on_c, 0, 69, 100
6, 90269, Note_on_c, 0, 69, 0
6, 90270, Note_on_c, 0, 64, 100
6, 90299, Note_on_c, 0, 64, 0
6, 90300, Note_on_c, 0, 69, 100
6, 90329, Note_on_c, 0, 69, 0
6, 90330, Note_on_c, 0, 72, 100
6, 90359, Note_on_c, 0, 72, 0
6, 90360, Note_on_c, 0, 69, 100
6, 90389, Note_on_c, 0, 69, 0
6, 90390, Note_on_c, 0, 64, 100
6, 90419, Note_on_c, 0, 64, 0
6, 90420, Note_on_c, 0, 69, 100
6, 90449, Note_on_c, 0, 69, 0
6, 90450, Note_on_c, 0, 72, 100
6, 90479, Note_on_c, 0, 72, 0
6, 90480, Note_on_c, 0, 69, 100
6, 90509, Note_on_c, 0, 69, 0
6, 90510, Note_on_c, 0, 64, 100
6, 90539, Note_on_c, 0, 64, 0
6, 90540, Note_on_c, 0, 69, 100
6, 90569, Note_on_c, 0, 69, 0
6, 90570, Note_on_c, 0, 72, 100
6, 90599, Note_on_c, 0, 72, 0
6, 90600, Note_on_c, 0, 69, 100
6, 90629, Note_on_c, 0, 69, 0
6, 90630, Note_on_c, 0, 64, 100
6, 90659, Note_on_c, 0, 64, 0
6, 90660, Note_on_c, 0, 69, 100
6, 90689, Note_on_c, 0, 69, 0
6, 90690, Note_on_c, 0, 72, 100
6, 90719, Note_on_c, 0, 72, 0
6, 90720, Note_on_c, 0, 69, 100
6, 90749, Note_on_c, 0, 69, 0
6, 90750, Note_on_c, 0, 64, 100
6, 90779, Note_on_c, 0, 64, 0
6, 90780, Note_on_c, 0, 69, 100
6, 90809, Note_on_c, 0, 69, 0
6, 90810, Note_on_c, 0, 72, 100
6, 90839, Note_on_c, 0, 72, 0
6, 90840, Note_on_c, 0, 69, 100
6, 90869, Note_on_c, 0, 69, 0
6, 90870, Note_on_c, 0, 64, 100
6, 90899, Note_on_c, 0, 64, 0
6, 90900, Note_on_c, 0, 69, 100
6, 90929, Note_on_c, 0, 69, 0
6, 90930, Note_on_c, 0, 72, 100
6, 90959, Note_on_c, 0, 72, 0
6, 90960, Note_on_c, 0, 69, 100
6, 90989, Note_on_c, 0, 69, 0
6, 90990, Note_on_c, 0, 64, 100
6, 91019, Note_on_c, 0, 64, 0
6, 91020, Note_on_c, 0, 69, 100
6, 91049, Note_on_c, 0, 69, 0
6, 91050, Note_on_c, 0, 72, 100
6, 91079, Note_on_c, 0, 72, 0
6, 91080, Note_on_c, 0, 69, 100
6, 91109, Note_on_c, 0, 69, 0
6, 91110, Note_on_c, 0, 64, 100
6, 91139, Note_on_c, 0, 64, 0
6, 91140, Note_on_c, 0, 69, 100
6, 91169, Note_on_c, 0, 69, 0
6, 91170, Note_on_c, 0, 72, 100
6, 91199, Note_on_c, 0, 72, 0
6, 91200, Note_on_c, 0, 69, 100
6, 91229, Note_on_c, 0, 69, 0
6, 91230, Note_on_c, 0, 64, 100
6, 91259, Note_on_c, 0, 64, 0
6, 91260, Note_on_c, 0, 69, 100
6, 91289, Note_on_c, 0, 69, 0
6, 91290, Note_on_c, 0, 72, 100
6, 91319, Note_on_c, 0, 72, 0
6, 91320, Note_on_c, 0, 69, 100
6, 91349, Note_on_c, 0, 69, 0
6, 91350, Note_on_c, 0, 64, 100
6, 91379, Note_on_c, 0, 64, 0
6, 91380, Note_on_c, 0, 69, 100
6, 91409, Note_on_c, 0, 69, 0
6, 91410, Note_on_c, 0, 72, 100
6, 91439, Note_on_c, 0, 72, 0
6, 91440, Note_on_c, 0, 69, 100
6, 91469, Note_on_c, 0, 69, 0
6, 91470, Note_on_c, 0, 64, 100
6, 91499, Note_on_c, 0, 64, 0
6, 91500, Note_on_c, 0, 69, 100
6, 91529, Note_on_c, 0, 69, 0
6, 91530, Note_on_c, 0, 72, 100
6, 91559, Note_on_c, 0, 72, 0
6, 91560, Note_on_c, 0, 69, 100
6, 91589, Note_on_c, 0, 69, 0
6, 91590, Note_on_c, 0, 64, 100
6, 91619, Note_on_c, 0, 64, 0
6, 91620, Note_on_c, 0, 69, 100
6, 91649, Note_on_c, 0, 69, 0
6, 91650, Note_on_c, 0, 72, 100
6, 91679, Note_on_c, 0, 72, 0
6, 91680, Note_on_c, 0, 67, 100
6, 91709, Note_on_c, 0, 67, 0
6, 91710, Note_on_c, 0, 62, 100
6, 91739, Note_on_c, 0, 62, 0
6, 91740, Note_on_c, 0, 67, 100
6, 91769, Note_on_c, 0, 67, 0
6, 91770, Note_on_c, 0, 71, 100
6, 91799, Note_on_c, 0, 71, 0
6, 91800, Note_on_c, 0, 67, 100
6, 91829, Note_on_c, 0, 67, 0
6, 91830, Note_on_c, 0, 62, 100
6, 91859, Note_on_c, 0, 62, 0
6, 91860, Note_on_c, 0, 67, 100
6, 91889, Note_on_c, 0, 67, 0
6, 91890, Note_on_c, 0, 71, 100
6, 91919, Note_on_c, 0, 71, 0
6, 91920, Note_on_c, 0, 65, 100
6, 91949, Note_on_c, 0, 65, 0
6, 91950, Note_on_c, 0, 60, 100
6, 91979, Note_on_c, 0, 60, 0
6, 91980, Note_on_c, 0, 65, 100
6, 92009, Note_on_c, 0, 65, 0
6, 92010, Note_on_c, 0, 69, 100
6, 92039, Note_on_c, 0, 69, 0
6, 92040, Note_on_c, 0, 65, 100
6, 92069, Note_on_c, 0, 65, 0
6, 92070, Note_on_c, 0, 60, 100
6, 92099, Note_on_c, 0, 60, 0
6, 92100, Note_on_c, 0, 65, 100
6, 92129, Note_on_c, 0, 65, 0
6, 92130, Note_on_c, 0, 69, 100
6, 92159, Note_on_c, 0, 69, 0
6, 92160, Note_on_c, 0, 69, 100
6, 92189, Note_on_c, 0, 69, 0
6, 92190, Note_on_c, 0, 64, 100
6, 92219, Note_on_c, 0, 64, 0
6, 92220, Note_on_c, 0, 69, 100
6, 92249, Note_on_c, 0, 69, 0
6, 92250, Note_on_c, 0, 72, 100
6, 92279, Note_on_c, 0, 72, 0
6, 92280, Note_on_c, 0, 69, 100
6, 92309, Note_on_c, 0, 69, 0
6, 92310, Note_on_c, 0, 64, 100
6, 92339, Note_on_c, 0, 64, 0
6, 92340, Note_on_c, 0, 69, 100
6, 92369, Note_on_c, 0, 69, 0
6, 92370, Note_on_c, 0, 72, 100
6, 92399, Note_on_c, 0, 72, 0
6, 92400, Note_on_c, 0, 69, 100
6, 92429, Note_on_c, 0, 69, 0
6, 92430, Note_on_c, 0, 64, 100
6, 92459, Note_on_c, 0, 64, 0
6, 92460, Note_on_c, 0, 69, 100
6, 92489, Note_on_c, 0, 69, 0
6, 92490, Note_on_c, 0, 72, 100
6, 92519, Note_on_c, 0, 72, 0
6, 92520, Note_on_c, 0, 69, 100
6, 92549, Note_on_c, 0, 69, 0
6, 92550, Note_on_c, 0, 64, 100
6, 92579, Note_on_c, 0, 64, 0
6, 92580, Note_on_c, 0, 69, 100
6, 92609, Note_on_c, 0, 69, 0
6, 92610, Note_on_c, 0, 72, 100
6, 92639, Note_on_c, 0, 72, 0
6, 92640, Note_on_c, 0, 69, 100
6, 92669, Note_on_c, 0, 69, 0
6, 92670, Note_on_c, 0, 64, 100
6, 92699, Note_on_c, 0, 64, 0
6, 92700, Note_on_c, 0, 69, 100
6, 92729, Note_on_c, 0, 69, 0
6, 92730, Note_on_c, 0, 72, 100
6, 92759, Note_on_c, 0, 72, 0
6, 92760, Note_on_c, 0, 69, 100
6, 92789, Note_on_c, 0, 69, 0
6, 92790, Note_on_c, 0, 64, 100
6, 92819, Note_on_c, 0, 64, 0
6, 92820, Note_on_c, 0, 69, 100
6, 92849, Note_on_c, 0, 69, 0
6, 92850, Note_on_c, 0, 72, 100
6, 92879, Note_on_c, 0, 72, 0
6, 92880, Note_on_c, 0, 69, 100
6, 92909, Note_on_c, 0, 69, 0
6, 92910, Note_on_c, 0, 64, 100
6, 92939, Note_on_c, 0, 64, 0
6, 92940, Note_on_c, 0, 69, 100
6, 92969, Note_on_c, 0, 69, 0
6, 92970, Note_on_c, 0, 72, 100
6, 92999, Note_on_c, 0, 72, 0
6, 93000, Note_on_c, 0, 69, 100
6, 93029, Note_on_c, 0, 69, 0
6, 93030, Note_on_c, 0, 64, 100
6, 93059, Note_on_c, 0, 64, 0
6, 93060, Note_on_c, 0, 69, 100
6, 93089, Note_on_c, 0, 69, 0
6, 93090, Note_on_c, 0, 72, 100
6, 93119, Note_on_c, 0, 72, 0
6, 93120, Note_on_c, 0, 72, 100
6, 93149, Note_on_c, 0, 72, 0
6, 93150, Note_on_c, 0, 67, 100
6, 93179, Note_on_c, 0, 67, 0
6, 93180, Note_on_c, 0, 72, 100
6, 93209, Note_on_c, 0, 72, 0
6, 93210, Note_on_c, 0, 76, 100
6, 93239, Note_on_c, 0, 76, 0
6, 93240, Note_on_c, 0, 72, 100
6, 93269, Note_on_c, 0, 72, 0
6, 93270, Note_on_c, 0, 67, 100
6, 93299, Note_on_c, 0, 67, 0
6, 93300, Note_on_c, 0, 72, 100
6, 93329, Note_on_c, 0, 72, 0
6, 93330, Note_on_c, 0, 76, 100
6, 93359, Note_on_c, 0, 76, 0
6, 93360, Note_on_c, 0, 72, 100
6, 93389, Note_on_c, 0, 72, 0
6, 93390, Note_on_c, 0, 67, 100
6, 93419, Note_on_c, 0, 67, 0
6, 93420, Note_on_c, 0, 72, 100
6, 93449, Note_on_c, 0, 72, 0
6, 93450, Note_on_c, 0, 76, 100
6, 93479, Note_on_c, 0, 76, 0
6, 93480, Note_on_c, 0, 72, 100
6, 93509, Note_on_c, 0, 72, 0
6, 93510, Note_on_c, 0, 67, 100
6, 93539, Note_on_c, 0, 67, 0
6, 93540, Note_on_c, 0, 72, 100
6, 93569, Note_on_c, 0, 72, 0
6, 93570, Note_on_c, 0, 76, 100
6, 93599, Note_on_c, 0, 76, 0
6, 93600, Note_on_c, 0, 65, 100
6, 93629, Note_on_c, 0, 65, 0
6, 93630, Note_on_c, 0, 60, 100
6, 93659, Note_on_c, 0, 60, 0
6, 93660, Note_on_c, 0, 65, 100
6, 93689, Note_on_c, 0, 65, 0
6, 93690, Note_on_c, 0, 69, 100
6, 93719, Note_on_c, 0, 69, 0
6, 93720, Note_on_c, 0, 65, 100
6, 93749, Note_on_c, 0, 65, 0
6, 93750, Note_on_c, 0, 60, 100
6, 93779, Note_on_c, 0, 60, 0
6, 93780, Note_on_c, 0, 65, 100
6, 93809, Note_on_c, 0, 65, 0
6, 93810, Note_on_c, 0, 69, 100
6, 93839, Note_on_c, 0, 69, 0
6, 93840, Note_on_c, 0, 65, 100
6, 93869, Note_on_c, 0, 65, 0
6, 93870, Note_on_c, 0, 60, 100
6, 93899, Note_on_c, 0, 60, 0
6, 93900, Note_on_c, 0, 65, 100
6, 93929, Note_on_c, 0, 65, 0
6, 93930, Note_on_c, 0, 69, 100
6, 93959, Note_on_c, 0, 69, 0
6, 93960, Note_on_c, 0, 65, 100
6, 93989, Note_on_c, 0, 65, 0
6, 93990, Note_on_c, 0, 60, 100
6, 94019, Note_on_c, 0, 60, 0
6, 94020, Note_on_c, 0, 65, 100
6, 94049, Note_on_c, 0, 65, 0
6, 94050, Note_on_c, 0, 69, 100
6, 94079, Note_on_c, 0, 69, 0
6, 94080, Note_on_c, 0, 62, 100
6, 94109, Note_on_c, 0, 62, 0
6, 94110, Note_on_c, 0, 57, 100
6, 94139, Note_on_c, 0, 57, 0
6, 94140, Note_on_c, 0, 62, 100
6, 94169, Note_on_c, 0, 62, 0
6, 94170, Note_on_c, 0, 65, 100
6, 94199, Note_on_c, 0, 65, 0
6, 94200, Note_on_c, 0, 62, 100
6, 94229, Note_on_c, 0, 62, 0
6, 94230, Note_on_c, 0, 57, 100
6, 94259, Note_on_c, 0, 57, 0
6, 94260, Note_on_c, 0, 62, 100
6, 94289, Note_on_c, 0, 62, 0
6, 94290, Note_on_c, 0, 65, 100
6, 94319, Note_on_c, 0, 65, 0
6, 94320, Note_on_c, 0, 64, 100
6, 94349, Note_on_c, 0, 64, 0
6, 94350, Note_on_c, 0, 59, 100
6, 94379, Note_on_c, 0, 59, 0
6, 94380, Note_on_c, 0, 64, 100
6, 94409, Note_on_c, 0, 64, 0
6, 94410, Note_on_c, 0, 68, 100
6, 94439, Note_on_c, 0, 68, 0
6, 94440, Note_on_c, 0, 64, 100
6, 94469, Note_on_c, 0, 64, 0
6, 94470, Note_on_c, 0, 59, 100
6, 94499, Note_on_c, 0, 59, 0
6, 94500, Note_on_c, 0, 64, 100
6, 94529, Note_on_c, 0, 64, 0
6, 94530, Note_on_c, 0, 68, 100
6, 94559, Note_on_c, 0, 68, 0
6, 94560, Note_on_c, 0, 69, 100
6, 94589, Note_on_c, 0, 69, 0
6, 94590, Note_on_c, 0, 64, 100
6, 94619, Note_on_c, 0, 64, 0
6, 94620, Note_on_c, 0, 69, 100
6, 94649, Note_on_c, 0, 69, 0
6, 94650, Note_on_c, 0, 72, 100
6, 94679, Note_on_c, 0, 72, 0
6, 94680, Note_on_c, 0, 69, 100
6, 94709, Note_on_c, 0, 69, 0
6, 94710, Note_on_c, 0, 64, 100
6, 94739, Note_on_c, 0, 64, 0
6, 94740, Note_on_c, 0, 69, 100
6, 94769, Note_on_c, 0, 69, 0
6, 94770, Note_on_c, 0, 72, 100
6, 94799, Note_on_c, 0, 72, 0
6, 94800, Note_on_c, 0, 69, 100
6, 94829, Note_on_c, 0, 69, 0
6, 94830, Note_on_c, 0, 64, 100
6, 94859, Note_on_c, 0, 64, 0
6, 94860, Note_on_c, 0, 69, 100
6, 94889, Note_on_c, 0, 69, 0
6, 94890, Note_on_c, 0, 72, 100
6, 94919, Note_on_c, 0, 72, 0
6, 94920, Note_on_c, 0, 69, 100
6, 94949, Note_on_c, 0, 69, 0
6, 94950, Note_on_c, 0, 64, 100
6, 94979, Note_on_c, 0, 64, 0
6, 94980, Note_on_c, 0, 69, 100
6, 95009, Note_on_c, 0, 69, 0
6, 95010, Note_on_c, 0, 72, 100
6, 95039, Note_on_c, 0, 72, 0
6, 95040, Note_on_c, 0, 72, 100
6, 95069, Note_on_c, 0, 72, 0
6, 95070, Note_on_c, 0, 67, 100
6, 95099, Note_on_c, 0, 67, 0
6, 95100, Note_on_c, 0, 72, 100
6, 95129, Note_on_c, 0, 72, 0
6, 95130, Note_on_c, 0, 76, 100
6, 95159, Note_on_c, 0, 76, 0
6, 95160, Note_on_c, 0, 72, 100
6, 95189, Note_on_c, 0, 72, 0
6, 95190, Note_on_c, 0, 67, 100
6, 95219, Note_on_c, 0, 67, 0
6, 95220, Note_on_c, 0, 72, 100
6, 95249, Note_on_c, 0, 72, 0
6, 95250, Note_on_c, 0, 76, 100
6, 95279, Note_on_c, 0, 76, 0
6, 95280, Note_on_c, 0, 72, 100
6, 95309, Note_on_c, 0, 72, 0
6, 95310, Note_on_c, 0, 67, 100
6, 95339, Note_on_c, 0, 67, 0
6, 95340, Note_on_c, 0, 72, 100
6, 95369, Note_on_c, 0, 72, 0
6, 95370, Note_on_c, 0, 76, 100
6, 95399, Note_on_c, 0, 76, 0
6, 95400, Note_on_c, 0, 72, 100
6, 95429, Note_on_c, 0, 72, 0
6, 95430, Note_on_c, 0, 67, 100
6, 95459, Note_on_c, 0, 67, 0
6, 95460, Note_on_c, 0, 72, 100
6, 95489, Note_on_c, 0, 72, 0
6, 95490, Note_on_c, 0, 76, 100
6, 95519, Note_on_c, 0, 76, 0
6, 95520, Note_on_c, 0, 65, 100
6, 95549, Note_on_c, 0, 65, 0
6, 95550, Note_on_c, 0, 60, 100
6, 95579, Note_on_c, 0, 60, 0
6, 95580, Note_on_c, 0, 65, 100
6, 95609, Note_on_c, 0, 65, 0
6, 95610, Note_on_c, 0, 69, 100
6, 95639, Note_on_c, 0, 69, 0
6, 95640, Note_on_c, 0, 65, 100
6, 95669, Note_on_c, 0, 65, 0
6, 95670, Note_on_c, 0, 60, 100
6, 95699, Note_on_c, 0, 60, 0
6, 95700, Note_on_c, 0, 65, 100
6, 95729, Note_on_c, 0, 65, 0
6, 95730, Note_on_c, 0, 69, 100
6, 95759, Note_on_c, 0, 69, 0
6, 95760, Note_on_c, 0, 65, 100
6, 95789, Note_on_c, 0, 65, 0
6, 95790, Note_on_c, 0, 60, 100
6, 95819, Note_on_c, 0, 60, 0
6, 95820, Note_on_c, 0, 65, 100
6, 95849, Note_on_c, 0, 65, 0
6, 95850, Note_on_c, 0, 69, 100
6, 95879, Note_on_c, 0, 69, 0
6, 95880, Note_on_c, 0, 65, 100
6, 95909, Note_on_c, 0, 65, 0
6, 95910, Note_on_c, 0, 60, 100
6, 95939, Note_on_c, 0, 60, 0
6, 95940, Note_on_c, 0, 65, 100
6, 95969, Note_on_c, 0, 65, 0
6, 95970, Note_on_c, 0, 69, 100
6, 95999, Note_on_c, 0, 69, 0
6, 96000, Note_on_c, 0, 62, 100
6, 96029, Note_on_c, 0, 62, 0
6, 96030, Note_on_c, 0, 57, 100
6, 96059, Note_on_c, 0, 57, 0
6, 96060, Note_on_c, 0, 62, 100
6, 96089, Note_on_c, 0, 62, 0
6, 96090, Note_on_c, 0, 65, 100
6, 96119, Note_on_c, 0, 65, 0
6, 96120, Note_on_c, 0, 62, 100
6, 96149, Note_on_c, 0, 62, 0
6, 96150, Note_on_c, 0, 57, 100
6, 96179, Note_on_c, 0, 57, 0
6, 96180, Note_on_c, 0, 62, 100
6, 96209, Note_on_c, 0, 62, 0
6, 96210, Note_on_c, 0, 65, 100
6, 96239, Note_on_c, 0, 65, 0
6, 96240, Note_on_c, 0, 64, 100
6, 96269, Note_on_c, 0, 64, 0
6, 96270, Note_on_c, 0, 59, 100
6, 96299, Note_on_c, 0, 59, 0
6, 96300, Note_on_c, 0, 64, 100
6, 96329, Note_on_c, 0, 64, 0
6, 96330, Note_on_c, 0, 68, 100
6, 96359, Note_on_c, 0, 68, 0
6, 96360, Note_on_c, 0, 64, 100
6, 96389, Note_on_c, 0, 64, 0
6, 96390, Note_on_c, 0, 59, 100
6, 96419, Note_on_c, 0, 59, 0
6, 96420, Note_on_c, 0, 64, 100
6, 96449, Note_on_c, 0, 64, 0
6, 96450, Note_on_c, 0, 68, 100
6, 96479, Note_on_c, 0, 68, 0
6, 96480, Note_on_c, 0, 69, 100
6, 96509, Note_on_c, 0, 69, 0
6, 96510, Note_on_c, 0, 64, 100
6, 96539, Note_on_c, 0, 64, 0
6, 96540, Note_on_c, 0, 69, 100
6, 96569, Note_on_c, 0, 69, 0
6, 96570, Note_on_c, 0, 72, 100
6, 96599, Note_on_c, 0, 72, 0
6, 96600, Note_on_c, 0, 69, 100
6, 96629, Note_on_c, 0, 69, 0
6, 96630, Note_on_c, 0, 64, 100
6, 96659, Note_on_c, 0, 64, 0
6, 96660, Note_on_c, 0, 69, 100
6, 96689, Note_on_c, 0, 69, 0
6, 96690, Note_on_c, 0, 72, 100
6, 96719, Note_on_c, 0, 72, 0
6, 96720, Note_on_c, 0, 69, 100
6, 96749, Note_on_c, 0, 69, 0
6, 96750, Note_on_c, 0, 64, 100
6, 96779, Note_on_c, 0, 64, 0
6, 96780, Note_on_c, 0, 69, 100
6, 96809, Note_on_c, 0, 69, 0
6, 96810, Note_on_c, 0, 72, 100
6, 96839, Note_on_c, 0, 72, 0
6, 96840, Note_on_c, 0, 69, 100
6, 96869, Note_on_c, 0, 69, 0
6, 96870, Note_on_c, 0, 64, 100
6, 96899, Note_on_c, 0, 64, 0
6, 96900, Note_on_c, 0, 69, 100
6, 96929, Note_on_c, 0, 69, 0
6, 96930, Note_on_c, 0, 72, 100
6, 96959, Note_on_c, 0, 72, 0
6, 96960, Note_on_c, 0, 72, 100
6, 96989, Note_on_c, 0, 72, 0
6, 96990, Note_on_c, 0, 67, 100
6, 97019, Note_on_c, 0, 67, 0
6, 97020, Note_on_c, 0, 72, 100
6, 97049, Note_on_c, 0, 72, 0
6, 97050, Note_on_c, 0, 76, 100
6, 97079, Note_on_c, 0, 76, 0
6, 97080, Note_on_c, 0, 72, 100
6, 97109, Note_on_c, 0, 72, 0
6, 97110, Note_on_c, 0, 67, 100
6, 97139, Note_on_c, 0, 67, 0
6, 97140, Note_on_c, 0, 72, 100
6, 97169, Note_on_c, 0, 72, 0
6, 97170, Note_on_c, 0, 76, 100
6, 97199, Note_on_c, 0, 76, 0
6, 97200, Note_on_c, 0, 72, 100
6, 97229, Note_on_c, 0, 72, 0
6, 97230, Note_on_c, 0, 67, 100
6, 97259, Note_on_c, 0, 67, 0
6, 97260, Note_on_c, 0, 72, 100
6, 97289, Note_on_c, 0, 72, 0
6, 97290, Note_on_c, 0, 76, 100
6, 97319, Note_on_c, 0, 76, 0
6, 97320, Note_on_c, 0, 72, 100
6, 97349, Note_on_c, 0, 72, 0
6, 97350, Note_on_c, 0, 67, 100
6, 97379, Note_on_c, 0, 67, 0
6, 97380, Note_on_c, 0, 72, 100
6, 97409, Note_on_c, 0, 72, 0
6, 97410, Note_on_c, 0, 76, 100
6, 97439, Note_on_c, 0, 76, 0
6, 97440, Note_on_c, 0, 65, 100
6, 97469, Note_on_c, 0, 65, 0
6, 97470, Note_on_c, 0, 60, 100
6, 97499, Note_on_c, 0, 60, 0
6, 97500, Note_on_c, 0, 65, 100
6, 97529, Note_on_c, 0, 65, 0
6, 97530, Note_on_c, 0, 69, 100
6, 97559, Note_on_c, 0, 69, 0
6, 97560, Note_on_c, 0, 65, 100
6, 97589, Note_on_c, 0, 65, 0
6, 97590, Note_on_c, 0, 60, 100
6, 97619, Note_on_c, 0, 60, 0
6, 97620, Note_on_c, 0, 65, 100
6, 97649, Note_on_c, 0, 65, 0
6, 97650, Note_on_c, 0, 69, 100
6, 97679, Note_on_c, 0, 69, 0
6, 97680, Note_on_c, 0, 65, 100
6, 97709, Note_on_c, 0, 65, 0
6, 97710, Note_on_c, 0, 60, 100
6, 97739, Note_on_c, 0, 60, 0
6, 97740, Note_on_c, 0, 65, 100
6, 97769, Note_on_c, 0, 65, 0
6, 97770, Note_on_c, 0, 69, 100
6, 97799, Note_on_c, 0, 69, 0
6, 97800, Note_on_c, 0, 65, 100
6, 97829, Note_on_c, 0, 65, 0
6, 97830, Note_on_c, 0, 60, 100
6, 97859, Note_on_c, 0, 60, 0
6, 97860, Note_on_c, 0, 65, 100
6, 97889, Note_on_c, 0, 65, 0
6, 97890, Note_on_c, 0, 69, 100
6, 97919, Note_on_c, 0, 69, 0
6, 97920, Note_on_c, 0, 62, 100
6, 97949, Note_on_c, 0, 62, 0
6, 97950, Note_on_c, 0, 57, 100
6, 97979, Note_on_c, 0, 57, 0
6, 97980, Note_on_c, 0, 62, 100
6, 98009, Note_on_c, 0, 62, 0
6, 98010, Note_on_c, 0, 65, 100
6, 98039, Note_on_c, 0, 65, 0
6, 98040, Note_on_c, 0, 62, 100
6, 98069, Note_on_c, 0, 62, 0
6, 98070, Note_on_c, 0, 57, 100
6, 98099, Note_on_c, 0, 57, 0
6, 98100, Note_on_c, 0, 62, 100
6, 98129, Note_on_c, 0, 62, 0
6, 98130, Note_on_c, 0, 65, 100
6, 98159, Note_on_c, 0, 65, 0
6, 98160, Note_on_c, 0, 64, 100
6, 98189, Note_on_c, 0, 64, 0
6, 98190, Note_on_c, 0, 59, 100
6, 98219, Note_on_c, 0, 59, 0
6, 98220, Note_on_c, 0, 64, 100
6, 98249, Note_on_c, 0, 64, 0
6, 98250, Note_on_c, 0, 68, 100
6, 98279, Note_on_c, 0, 68, 0
6, 98280, Note_on_c, 0, 64, 100
6, 98309, Note_on_c, 0, 64, 0
6, 98310, Note_on_c, 0, 59, 100
6, 98339, Note_on_c, 0, 59, 0
6, 98340, Note_on_c, 0, 64, 100
6, 98369, Note_on_c, 0, 64, 0
6, 98370, Note_on_c, 0, 68, 100
6, 98399, Note_on_c, 0, 68, 0
6, 98400, Note_on_c, 0, 69, 100
6, 98429, Note_on_c, 0, 69, 0
6, 98430, Note_on_c, 0, 64, 100
6, 98459, Note_on_c, 0, 64, 0
6, 98460, Note_on_c, 0, 69, 100
6, 98489, Note_on_c, 0, 69, 0
6, 98490, Note_on_c, 0, 72, 100
6, 98519, Note_on_c, 0, 72, 0
6, 98520, Note_on_c, 0, 69, 100
6, 98549, Note_on_c, 0, 69, 0
6, 98550, Note_on_c, 0, 64, 100
6, 98579, Note_on_c, 0, 64, 0
6, 98580, Note_on_c, 0, 69, 100
6, 98609, Note_on_c, 0, 69, 0
6, 98610, Note_on_c, 0, 72, 100
6, 98639, Note_on_c, 0, 72, 0
6, 98640, Note_on_c, 0, 69, 100
6, 98669, Note_on_c, 0, 69, 0
6, 98670, Note_on_c, 0, 64, 100
6, 98699, Note_on_c, 0, 64, 0
6, 98700, Note_on_c, 0, 69, 100
6, 98729, Note_on_c, 0, 69, 0
6, 98730, Note_on_c, 0, 72, 100
6, 98759, Note_on_c, 0, 72, 0
6, 98760, Note_on_c, 0, 69, 100
6, 98789, Note_on_c, 0, 69, 0
6, 98790, Note_on_c, 0, 64, 100
6, 98819, Note_on_c, 0, 64, 0
6, 98820, Note_on_c, 0, 69, 100
6, 98849, Note_on_c, 0, 69, 0
6, 98850, Note_on_c, 0, 72, 100
6, 98879, Note_on_c, 0, 72, 0
6, 98880, Note_on_c, 0, 72, 100
6, 98909, Note_on_c, 0, 72, 0
6, 98910, Note_on_c, 0, 67, 100
6, 98939, Note_on_c, 0, 67, 0
6, 98940, Note_on_c, 0, 72, 100
6, 98969, Note_on_c, 0, 72, 0
6, 98970, Note_on_c, 0, 76, 100
6, 98999, Note_on_c, 0, 76, 0
6, 99000, Note_on_c, 0, 72, 100
6, 99029, Note_on_c, 0, 72, 0
6, 99030, Note_on_c, 0, 67, 100
6, 99059, Note_on_c, 0, 67, 0
6, 99060, Note_on_c, 0, 72, 100
6, 99089, Note_on_c, 0, 72, 0
6, 99090, Note_on_c, 0, 76, 100
6, 99119, Note_on_c, 0, 76, 0
6, 99120, Note_on_c, 0, 72, 100
6, 99149, Note_on_c, 0, 72, 0
6, 99150, Note_on_c, 0, 67, 100
6, 99179, Note_on_c, 0, 67, 0
6, 99180, Note_on_c, 0, 72, 100
6, 99209, Note_on_c, 0, 72, 0
6, 99210, Note_on_c, 0, 76, 100
6, 99239, Note_on_c, 0, 76, 0
6, 99240, Note_on_c, 0, 72, 100
6, 99269, Note_on_c, 0, 72, 0
6, 99270, Note_on_c, 0, 67, 100
6, 99299, Note_on_c, 0, 67, 0
6, 99300, Note_on_c, 0, 72, 100
6, 99329, Note_on_c, 0, 72, 0
6, 99330, Note_on_c, 0, 76, 100
6, 99359, Note_on_c, 0, 76, 0
6, 99360, Note_on_c, 0, 65, 100
6, 99389, Note_on_c, 0, 65, 0
6, 99390, Note_on_c, 0, 60, 100
6, 99419, Note_on_c, 0, 60, 0
6, 99420, Note_on_c, 0, 65, 100
6, 99449, Note_on_c, 0, 65, 0
6, 99450, Note_on_c, 0, 69, 100
6, 99479, Note_on_c, 0, 69, 0
6, 99480, Note_on_c, 0, 65, 100
6, 99509, Note_on_c, 0, 65, 0
6, 99510, Note_on_c, 0, 60, 100
6, 99539, Note_on_c, 0, 60, 0
6, 99540, Note_on_c, 0, 65, 100
6, 99569, Note_on_c, 0, 65, 0
6, 99570, Note_on_c, 0, 69, 100
6, 99599, Note_on_c, 0, 69, 0
6, 99600, Note_on_c, 0, 65, 100
6, 99629, Note_on_c, 0, 65, 0
6, 99630, Note_on_c, 0, 60, 100
6, 99659, Note_on_c, 0, 60, 0
6, 99660, Note_on_c, 0, 65, 100
6, 99689, Note_on_c, 0, 65, 0
6, 99690, Note_on_c, 0, 69, 100
6, 99719, Note_on_c, 0, 69, 0
6, 99720, Note_on_c, 0, 65, 100
6, 99749, Note_on_c, 0, 65, 0
6, 99750, Note_on_c, 0, 60, 100
6, 99779, Note_on_c, 0, 60, 0
6, 99780, Note_on_c, 0, 65, 100
6, 99809, Note_on_c, 0, 65, 0
6, 99810, Note_on_c, 0, 69, 100
6, 99839, Note_on_c, 0, 69, 0
6, 99840, Note_on_c, 0, 62, 100
6, 99869, Note_on_c, 0, 62, 0
6, 99870, Note_on_c, 0, 57, 100
6, 99899, Note_on_c, 0, 57, 0
6, 99900, Note_on_c, 0, 62, 100
6, 99929, Note_on_c, 0, 62, 0
6, 99930, Note_on_c, 0, 65, 100
6, 99959, Note_on_c, 0, 65, 0
6, 99960, Note_on_c, 0, 62, 100
6, 99989, Note_on_c, 0, 62, 0
6, 99990, Note_on_c, 0, 57, 100
6, 100019, Note_on_c, 0, 57, 0
6, 100020, Note_on_c, 0, 62, 100
6, 100049, Note_on_c, 0, 62, 0
6, 100050, Note_on_c, 0, 65, 100
6, 100079, Note_on_c, 0, 65, 0
6, 100080, Note_on_c, 0, 64, 100
6, 100109, Note_on_c, 0, 64, 0
6, 100110, Note_on_c, 0, 59, 100
6, 100139, Note_on_c, 0, 59, 0
6, 100140, Note_on_c, 0, 64, 100
6, 100169, Note_on_c, 0, 64, 0
6, 100170, Note_on_c, 0, 68, 100
6, 100199, Note_on_c, 0, 68, 0
6, 100200, Note_on_c, 0, 64, 100
6, 100229, Note_on_c, 0, 64, 0
6, 100230, Note_on_c, 0, 59, 100
6, 100259, Note_on_c, 0, 59, 0
6, 100260, Note_on_c, 0, 64, 100
6, 100289, Note_on_c, 0, 64, 0
6, 100290, Note_on_c, 0, 68, 100
6, 100319, Note_on_c, 0, 68, 0
6, 100319, End_track
7, 0, Start_track
7, 0, MIDI_port, 0
7, 0, Title_t, "Synth Bass"
7, 0, Control_c, 1, 0, 0
7, 0, Program_c, 1, 38
7, 0, Control_c, 1, 7, 112
7, 0, Control_c, 1, 10, 64
7, 0, Control_c, 1, 121, 0
7, 0, Control_c, 1, 91, 0
7, 2400, Note_on_c, 1, 33, 100
7, 2460, Note_on_c, 1, 33, 0
7, 2460, Note_on_c, 1, 45, 100
7, 2520, Note_on_c, 1, 45, 0
7, 2520, Note_on_c, 1, 33, 100
7, 2580, Note_on_c, 1, 33, 0
7, 2580, Note_on_c, 1, 45, 100
7, 2640, Note_on_c, 1, 45, 0
7, 2640, Note_on_c, 1, 33, 100
7, 2700, Note_on_c, 1, 33, 0
7, 2700, Note_on_c, 1, 45, 100
7, 2760, Note_on_c, 1, 45, 0
7, 2760, Note_on_c, 1, 33, 100
7, 2820, Note_on_c, 1, 33, 0
7, 2820, Note_on_c, 1, 45, 100
7, 2880, Note_on_c, 1, 45, 0
7, 2880, Note_on_c, 1, 36, 97
7, 2939, Note_on_c, 1, 36, 0
7, 2940, Note_on_c, 1, 48, 101
7, 2999, Note_on_c, 1, 48, 0
7, 3000, Note_on_c, 1, 36, 98
7, 3059, Note_on_c, 1, 36, 0
7, 3060, Note_on_c, 1, 48, 105
7, 3119, Note_on_c, 1, 48, 0
7, 3120, Note_on_c, 1, 36, 100
7, 3179, Note_on_c, 1, 36, 0
7, 3180, Note_on_c, 1, 48, 103
7, 3239, Note_on_c, 1, 48, 0
7, 3240, Note_on_c, 1, 36, 98
7, 3299, Note_on_c, 1, 36, 0
7, 3300, Note_on_c, 1, 48, 103
7, 3359, Note_on_c, 1, 48, 0
7, 3360, Note_on_c, 1, 29, 101
7, 3419, Note_on_c, 1, 29, 0
7, 3420, Note_on_c, 1, 41, 100
7, 3479, Note_on_c, 1, 41, 0
7, 3480, Note_on_c, 1, 29, 101
7, 3539, Note_on_c, 1, 29, 0
7, 3540, Note_on_c, 1, 41, 103
7, 3599, Note_on_c, 1, 41, 0
7, 3600, Note_on_c, 1, 29, 101
7, 3659, Note_on_c, 1, 29, 0
7, 3660, Note_on_c, 1, 41, 100
7, 3719, Note_on_c, 1, 41, 0
7, 3720, Note_on_c, 1, 29, 98
7, 3779, Note_on_c, 1, 29, 0
7, 3780, Note_on_c, 1, 41, 101
7, 3839, Note_on_c, 1, 41, 0
7, 3840, Note_on_c, 1, 26, 105
7, 3899, Note_on_c, 1, 26, 0
7, 3900, Note_on_c, 1, 38, 102
7, 3959, Note_on_c, 1, 38, 0
7, 3960, Note_on_c, 1, 26, 100
7, 4019, Note_on_c, 1, 26, 0
7, 4020, Note_on_c, 1, 38, 103
7, 4079, Note_on_c, 1, 38, 0
7, 4080, Note_on_c, 1, 28, 100
7, 4139, Note_on_c, 1, 28, 0
7, 4140, Note_on_c, 1, 40, 103
7, 4199, Note_on_c, 1, 40, 0
7, 4200, Note_on_c, 1, 28, 103
7, 4259, Note_on_c, 1, 28, 0
7, 4260, Note_on_c, 1, 40, 108
7, 4319, Note_on_c, 1, 40, 0
7, 4320, Note_on_c, 1, 33, 100
7, 4380, Note_on_c, 1, 33, 0
7, 4380, Note_on_c, 1, 45, 100
7, 4440, Note_on_c, 1, 45, 0
7, 4440, Note_on_c, 1, 33, 100
7, 4500, Note_on_c, 1, 33, 0
7, 4500, Note_on_c, 1, 45, 100
7, 4560, Note_on_c, 1, 45, 0
7, 4560, Note_on_c, 1, 33, 100
7, 4620, Note_on_c, 1, 33, 0
7, 4620, Note_on_c, 1, 45, 100
7, 4680, Note_on_c, 1, 45, 0
7, 4680, Note_on_c, 1, 33, 100
7, 4740, Note_on_c, 1, 33, 0
7, 4740, Note_on_c, 1, 45, 100
7, 4800, Note_on_c, 1, 45, 0
7, 4800, Note_on_c, 1, 36, 97
7, 4859, Note_on_c, 1, 36, 0
7, 4860, Note_on_c, 1, 48, 101
7, 4919, Note_on_c, 1, 48, 0
7, 4920, Note_on_c, 1, 36, 98
7, 4979, Note_on_c, 1, 36, 0
7, 4980, Note_on_c, 1, 48, 105
7, 5039, Note_on_c, 1, 48, 0
7, 5040, Note_on_c, 1, 36, 100
7, 5099, Note_on_c, 1, 36, 0
7, 5100, Note_on_c, 1, 48, 103
7, 5159, Note_on_c, 1, 48, 0
7, 5160, Note_on_c, 1, 36, 98
7, 5219, Note_on_c, 1, 36, 0
7, 5220, Note_on_c, 1, 48, 103
7, 5279, Note_on_c, 1, 48, 0
7, 5280, Note_on_c, 1, 29, 101
7, 5339, Note_on_c, 1, 29, 0
7, 5340, Note_on_c, 1, 41, 100
7, 5399, Note_on_c, 1, 41, 0
7, 5400, Note_on_c, 1, 29, 101
7, 5459, Note_on_c, 1, 29, 0
7, 5460, Note_on_c, 1, 41, 103
7, 5519, Note_on_c, 1, 41, 0
7, 5520, Note_on_c, 1, 29, 101
7, 5579, Note_on_c, 1, 29, 0
7, 5580, Note_on_c, 1, 41, 100
7, 5639, Note_on_c, 1, 41, 0
7, 5640, Note_on_c, 1, 29, 98
7, 5699, Note_on_c, 1, 29, 0
7, 5700, Note_on_c, 1, 41, 101
7, 5759, Note_on_c, 1, 41, 0
7, 5760, Note_on_c, 1, 26, 105
7, 5819, Note_on_c, 1, 26, 0
7, 5820, Note_on_c, 1, 38, 102
7, 5879, Note_on_c, 1, 38, 0
7, 5880, Note_on_c, 1, 26, 100
7, 5939, Note_on_c, 1, 26, 0
7, 5940, Note_on_c, 1, 38, 103
7, 5999, Note_on_c, 1, 38, 0
7, 6000, Note_on_c, 1, 28, 100
7, 6059, Note_on_c, 1, 28, 0
7, 6060, Note_on_c, 1, 40, 103
7, 6119, Note_on_c, 1, 40, 0
7, 6120, Note_on_c, 1, 28, 103
7, 6179, Note_on_c, 1, 28, 0
7, 6180, Note_on_c, 1, 40, 108
7, 6239, Note_on_c, 1, 40, 0
7, 6240, Note_on_c, 1, 33, 100
7, 6300, Note_on_c, 1, 33, 0
7, 6300, Note_on_c, 1, 45, 100
7, 6360, Note_on_c, 1, 45, 0
7, 6360, Note_on_c, 1, 33, 100
7, 6420, Note_on_c, 1, 33, 0
7, 6420, Note_on_c, 1, 45, 100
7, 6480, Note_on_c, 1, 45, 0
7, 6480, Note_on_c, 1, 33, 100
7, 6540, Note_on_c, 1, 33, 0
7, 6540, Note_on_c, 1, 45, 100
7, 6600, Note_on_c, 1, 45, 0
7, 6600, Note_on_c, 1, 33, 100
7, 6660, Note_on_c, 1, 33, 0
7, 6660, Note_on_c, 1, 45, 100
7, 6720, Note_on_c, 1, 45, 0
7, 6720, Note_on_c, 1, 36, 97
7, 6779, Note_on_c, 1, 36, 0
7, 6780, Note_on_c, 1, 48, 101
7, 6839, Note_on_c, 1, 48, 0
7, 6840, Note_on_c, 1, 36, 98
7, 6899, Note_on_c, 1, 36, 0
7, 6900, Note_on_c, 1, 48, 105
7, 6959, Note_on_c, 1, 48, 0
7, 6960, Note_on_c, 1, 36, 100
7, 7019, Note_on_c, 1, 36, 0
7, 7020, Note_on_c, 1, 48, 103
7, 7079, Note_on_c, 1, 48, 0
7, 7080, Note_on_c, 1, 36, 98
7, 7139, Note_on_c, 1, 36, 0
7, 7140, Note_on_c, 1, 48, 103
7, 7199, Note_on_c, 1, 48, 0
7, 7200, Note_on_c, 1, 29, 101
7, 7259, Note_on_c, 1, 29, 0
7, 7260, Note_on_c, 1, 41, 100
7, 7319, Note_on_c, 1, 41, 0
7, 7320, Note_on_c, 1, 29, 101
7, 7379, Note_on_c, 1, 29, 0
7, 7380, Note_on_c, 1, 41, 103
7, 7439, Note_on_c, 1, 41, 0
7, 7440, Note_on_c, 1, 29, 101
7, 7499, Note_on_c, 1, 29, 0
7, 7500, Note_on_c, 1, 41, 100
7, 7559, Note_on_c, 1, 41, 0
7, 7560, Note_on_c, 1, 29, 98
7, 7619, Note_on_c, 1, 29, 0
7, 7620, Note_on_c, 1, 41, 101
7, 7679, Note_on_c, 1, 41, 0
7, 7680, Note_on_c, 1, 26, 105
7, 7739, Note_on_c, 1, 26, 0
7, 7740, Note_on_c, 1, 38, 102
7, 7799, Note_on_c, 1, 38, 0
7, 7800, Note_on_c, 1, 26, 100
7, 7859, Note_on_c, 1, 26, 0
7, 7860, Note_on_c, 1, 38, 103
7, 7919, Note_on_c, 1, 38, 0
7, 7920, Note_on_c, 1, 28, 100
7, 7979, Note_on_c, 1, 28, 0
7, 7980, Note_on_c, 1, 40, 103
7, 8039, Note_on_c, 1, 40, 0
7, 8040, Note_on_c, 1, 28, 103
7, 8099, Note_on_c, 1, 28, 0
7, 8100, Note_on_c, 1, 40, 108
7, 8159, Note_on_c, 1, 40, 0
7, 8160, Note_on_c, 1, 33, 100
7, 8220, Note_on_c, 1, 33, 0
7, 8220, Note_on_c, 1, 45, 100
7, 8280, Note_on_c, 1, 45, 0
7, 8280, Note_on_c, 1, 33, 100
7, 8340, Note_on_c, 1, 33, 0
7, 8340, Note_on_c, 1, 45, 100
7, 8400, Note_on_c, 1, 45, 0
7, 8400, Note_on_c, 1, 33, 100
7, 8460, Note_on_c, 1, 33, 0
7, 8460, Note_on_c, 1, 45, 100
7, 8520, Note_on_c, 1, 45, 0
7, 8520, Note_on_c, 1, 33, 100
7, 8580, Note_on_c, 1, 33, 0
7, 8580, Note_on_c, 1, 45, 100
7, 8640, Note_on_c, 1, 45, 0
7, 8640, Note_on_c, 1, 36, 97
7, 8699, Note_on_c, 1, 36, 0
7, 8700, Note_on_c, 1, 48, 101
7, 8759, Note_on_c, 1, 48, 0
7, 8760, Note_on_c, 1, 36, 98
7, 8819, Note_on_c, 1, 36, 0
7, 8820, Note_on_c, 1, 48, 105
7, 8879, Note_on_c, 1, 48, 0
7, 8880, Note_on_c, 1, 36, 100
7, 8939, Note_on_c, 1, 36, 0
7, 8940, Note_on_c, 1, 48, 103
7, 8999, Note_on_c, 1, 48, 0
7, 9000, Note_on_c, 1, 36, 98
7, 9059, Note_on_c, 1, 36, 0
7, 9060, Note_on_c, 1, 48, 103
7, 9119, Note_on_c, 1, 48, 0
7, 9120, Note_on_c, 1, 29, 101
7, 9179, Note_on_c, 1, 29, 0
7, 9180, Note_on_c, 1, 41, 100
7, 9239, Note_on_c, 1, 41, 0
7, 9240, Note_on_c, 1, 29, 101
7, 9299, Note_on_c, 1, 29, 0
7, 9300, Note_on_c, 1, 41, 103
7, 9359, Note_on_c, 1, 41, 0
7, 9360, Note_on_c, 1, 29, 101
7, 9419, Note_on_c, 1, 29, 0
7, 9420, Note_on_c, 1, 41, 100
7, 9479, Note_on_c, 1, 41, 0
7, 9480, Note_on_c, 1, 29, 98
7, 9539, Note_on_c, 1, 29, 0
7, 9540, Note_on_c, 1, 41, 101
7, 9599, Note_on_c, 1, 41, 0
7, 9600, Note_on_c, 1, 26, 105
7, 9659, Note_on_c, 1, 26, 0
7, 9660, Note_on_c, 1, 38, 102
7, 9719, Note_on_c, 1, 38, 0
7, 9720, Note_on_c, 1, 26, 100
7, 9779, Note_on_c, 1, 26, 0
7, 9780, Note_on_c, 1, 38, 103
7, 9839, Note_on_c, 1, 38, 0
7, 9840, Note_on_c, 1, 28, 100
7, 9899, Note_on_c, 1, 28, 0
7, 9900, Note_on_c, 1, 40, 103
7, 9959, Note_on_c, 1, 40, 0
7, 9960, Note_on_c, 1, 28, 103
7, 10019, Note_on_c, 1, 28, 0
7, 10020, Note_on_c, 1, 40, 108
7, 10079, Note_on_c, 1, 40, 0
7, 10080, Note_on_c, 1, 33, 100
7, 10140, Note_on_c, 1, 33, 0
7, 10140, Note_on_c, 1, 45, 100
7, 10200, Note_on_c, 1, 45, 0
7, 10200, Note_on_c, 1, 33, 100
7, 10260, Note_on_c, 1, 33, 0
7, 10260, Note_on_c, 1, 45, 100
7, 10320, Note_on_c, 1, 45, 0
7, 10320, Note_on_c, 1, 33, 100
7, 10380, Note_on_c, 1, 33, 0
7, 10380, Note_on_c, 1, 45, 100
7, 10440, Note_on_c, 1, 45, 0
7, 10440, Note_on_c, 1, 33, 100
7, 10500, Note_on_c, 1, 33, 0
7, 10500, Note_on_c, 1, 45, 100
7, 10560, Note_on_c, 1, 45, 0
7, 10560, Note_on_c, 1, 33, 100
7, 10620, Note_on_c, 1, 33, 0
7, 10620, Note_on_c, 1, 45, 100
7, 10680, Note_on_c, 1, 45, 0
7, 10680, Note_on_c, 1, 33, 100
7, 10740, Note_on_c, 1, 33, 0
7, 10740, Note_on_c, 1, 45, 100
7, 10800, Note_on_c, 1, 45, 0
7, 10800, Note_on_c, 1, 33, 100
7, 10860, Note_on_c, 1, 33, 0
7, 10860, Note_on_c, 1, 45, 100
7, 10920, Note_on_c, 1, 45, 0
7, 10920, Note_on_c, 1, 33, 100
7, 10980, Note_on_c, 1, 33, 0
7, 10980, Note_on_c, 1, 45, 100
7, 11040, Note_on_c, 1, 45, 0
7, 11040, Note_on_c, 1, 31, 101
7, 11099, Note_on_c, 1, 31, 0
7, 11100, Note_on_c, 1, 43, 100
7, 11159, Note_on_c, 1, 43, 0
7, 11160, Note_on_c, 1, 31, 101
7, 11219, Note_on_c, 1, 31, 0
7, 11220, Note_on_c, 1, 43, 103
7, 11279, Note_on_c, 1, 43, 0
7, 11280, Note_on_c, 1, 29, 101
7, 11339, Note_on_c, 1, 29, 0
7, 11340, Note_on_c, 1, 41, 100
7, 11399, Note_on_c, 1, 41, 0
7, 11400, Note_on_c, 1, 29, 98
7, 11459, Note_on_c, 1, 29, 0
7, 11460, Note_on_c, 1, 41, 101
7, 11519, Note_on_c, 1, 41, 0
7, 11520, Note_on_c, 1, 33, 100
7, 11580, Note_on_c, 1, 33, 0
7, 11580, Note_on_c, 1, 45, 100
7, 11640, Note_on_c, 1, 45, 0
7, 11640, Note_on_c, 1, 33, 100
7, 11700, Note_on_c, 1, 33, 0
7, 11700, Note_on_c, 1, 45, 100
7, 11760, Note_on_c, 1, 45, 0
7, 11760, Note_on_c, 1, 33, 100
7, 11820, Note_on_c, 1, 33, 0
7, 11820, Note_on_c, 1, 45, 100
7, 11880, Note_on_c, 1, 45, 0
7, 11880, Note_on_c, 1, 33, 100
7, 11940, Note_on_c, 1, 33, 0
7, 11940, Note_on_c, 1, 45, 100
7, 12000, Note_on_c, 1, 45, 0
7, 12000, Note_on_c, 1, 33, 100
7, 12060, Note_on_c, 1, 33, 0
7, 12060, Note_on_c, 1, 45, 100
7, 12120, Note_on_c, 1, 45, 0
7, 12120, Note_on_c, 1, 33, 100
7, 12180, Note_on_c, 1, 33, 0
7, 12180, Note_on_c, 1, 45, 100
7, 12240, Note_on_c, 1, 45, 0
7, 12240, Note_on_c, 1, 33, 100
7, 12300, Note_on_c, 1, 33, 0
7, 12300, Note_on_c, 1, 45, 100
7, 12360, Note_on_c, 1, 45, 0
7, 12360, Note_on_c, 1, 33, 100
7, 12420, Note_on_c, 1, 33, 0
7, 12420, Note_on_c, 1, 45, 100
7, 12480, Note_on_c, 1, 45, 0
7, 12480, Note_on_c, 1, 33, 100
7, 12540, Note_on_c, 1, 33, 0
7, 12540, Note_on_c, 1, 45, 100
7, 12600, Note_on_c, 1, 45, 0
7, 12600, Note_on_c, 1, 33, 100
7, 12660, Note_on_c, 1, 33, 0
7, 12660, Note_on_c, 1, 45, 100
7, 12720, Note_on_c, 1, 45, 0
7, 12720, Note_on_c, 1, 33, 100
7, 12780, Note_on_c, 1, 33, 0
7, 12780, Note_on_c, 1, 45, 100
7, 12840, Note_on_c, 1, 45, 0
7, 12840, Note_on_c, 1, 33, 100
7, 12900, Note_on_c, 1, 33, 0
7, 12900, Note_on_c, 1, 45, 100
7, 12960, Note_on_c, 1, 45, 0
7, 12960, Note_on_c, 1, 31, 101
7, 13019, Note_on_c, 1, 31, 0
7, 13020, Note_on_c, 1, 43, 100
7, 13079, Note_on_c, 1, 43, 0
7, 13080, Note_on_c, 1, 31, 101
7, 13139, Note_on_c, 1, 31, 0
7, 13140, Note_on_c, 1, 43, 103
7, 13199, Note_on_c, 1, 43, 0
7, 13200, Note_on_c, 1, 29, 101
7, 13259, Note_on_c, 1, 29, 0
7, 13260, Note_on_c, 1, 41, 100
7, 13319, Note_on_c, 1, 41, 0
7, 13320, Note_on_c, 1, 29, 98
7, 13379, Note_on_c, 1, 29, 0
7, 13380, Note_on_c, 1, 41, 101
7, 13439, Note_on_c, 1, 41, 0
7, 13440, Note_on_c, 1, 33, 100
7, 13500, Note_on_c, 1, 33, 0
7, 13500, Note_on_c, 1, 45, 100
7, 13560, Note_on_c, 1, 45, 0
7, 13560, Note_on_c, 1, 33, 100
7, 13620, Note_on_c, 1, 33, 0
7, 13620, Note_on_c, 1, 45, 100
7, 13680, Note_on_c, 1, 45, 0
7, 13680, Note_on_c, 1, 33, 100
7, 13740, Note_on_c, 1, 33, 0
7, 13740, Note_on_c, 1, 45, 100
7, 13800, Note_on_c, 1, 45, 0
7, 13800, Note_on_c, 1, 33, 100
7, 13860, Note_on_c, 1, 33, 0
7, 13860, Note_on_c, 1, 45, 100
7, 13920, Note_on_c, 1, 45, 0
7, 13920, Note_on_c, 1, 33, 100
7, 13980, Note_on_c, 1, 33, 0
7, 13980, Note_on_c, 1, 45, 100
7, 14040, Note_on_c, 1, 45, 0
7, 14040, Note_on_c, 1, 33, 100
7, 14100, Note_on_c, 1, 33, 0
7, 14100, Note_on_c, 1, 45, 100
7, 14160, Note_on_c, 1, 45, 0
7, 14160, Note_on_c, 1, 33, 100
7, 14220, Note_on_c, 1, 33, 0
7, 14220, Note_on_c, 1, 45, 100
7, 14280, Note_on_c, 1, 45, 0
7, 14280, Note_on_c, 1, 33, 100
7, 14340, Note_on_c, 1, 33, 0
7, 14340, Note_on_c, 1, 45, 100
7, 14400, Note_on_c, 1, 45, 0
7, 14400, Note_on_c, 1, 36, 97
7, 14459, Note_on_c, 1, 36, 0
7, 14460, Note_on_c, 1, 48, 101
7, 14519, Note_on_c, 1, 48, 0
7, 14520, Note_on_c, 1, 36, 98
7, 14579, Note_on_c, 1, 36, 0
7, 14580, Note_on_c, 1, 48, 105
7, 14639, Note_on_c, 1, 48, 0
7, 14640, Note_on_c, 1, 36, 100
7, 14699, Note_on_c, 1, 36, 0
7, 14700, Note_on_c, 1, 48, 103
7, 14759, Note_on_c, 1, 48, 0
7, 14760, Note_on_c, 1, 36, 98
7, 14819, Note_on_c, 1, 36, 0
7, 14820, Note_on_c, 1, 48, 103
7, 14879, Note_on_c, 1, 48, 0
7, 14880, Note_on_c, 1, 29, 101
7, 14939, Note_on_c, 1, 29, 0
7, 14940, Note_on_c, 1, 41, 100
7, 14999, Note_on_c, 1, 41, 0
7, 15000, Note_on_c, 1, 29, 101
7, 15059, Note_on_c, 1, 29, 0
7, 15060, Note_on_c, 1, 41, 103
7, 15119, Note_on_c, 1, 41, 0
7, 15120, Note_on_c, 1, 29, 101
7, 15179, Note_on_c, 1, 29, 0
7, 15180, Note_on_c, 1, 41, 100
7, 15239, Note_on_c, 1, 41, 0
7, 15240, Note_on_c, 1, 29, 98
7, 15299, Note_on_c, 1, 29, 0
7, 15300, Note_on_c, 1, 41, 101
7, 15357, Note_on_c, 1, 50, 108
7, 15359, Note_on_c, 1, 41, 0
7, 15360, Note_on_c, 1, 26, 105
7, 15415, Note_on_c, 1, 45, 103
7, 15419, Note_on_c, 1, 26, 0
7, 15420, Note_on_c, 1, 38, 102
7, 15427, Note_on_c, 1, 50, 0
7, 15447, Note_on_c, 1, 41, 106
7, 15460, Note_on_c, 1, 45, 0
7, 15477, Note_on_c, 1, 38, 110
7, 15479, Note_on_c, 1, 38, 0
7, 15480, Note_on_c, 1, 26, 100
7, 15487, Note_on_c, 1, 41, 0
7, 15539, Note_on_c, 1, 26, 0
7, 15540, Note_on_c, 1, 38, 103
7, 15577, Note_on_c, 1, 38, 0
7, 15599, Note_on_c, 1, 38, 0
7, 15600, Note_on_c, 1, 28, 100
7, 15605, Note_on_c, 1, 52, 115
7, 15659, Note_on_c, 1, 28, 0
7, 15660, Note_on_c, 1, 40, 103
7, 15660, Note_on_c, 1, 47, 110
7, 15670, Note_on_c, 1, 52, 0
7, 15692, Note_on_c, 1, 44, 115
7, 15705, Note_on_c, 1, 47, 0
7, 15717, Note_on_c, 1, 40, 106
7, 15719, Note_on_c, 1, 40, 0
7, 15720, Note_on_c, 1, 28, 103
7, 15725, Note_on_c, 1, 44, 0
7, 15779, Note_on_c, 1, 28, 0
7, 15780, Note_on_c, 1, 40, 108
7, 15805, Note_on_c, 1, 40, 0
7, 15839, Note_on_c, 1, 40, 0
7, 15840, Note_on_c, 1, 33, 100
7, 15900, Note_on_c, 1, 33, 0
7, 15900, Note_on_c, 1, 45, 100
7, 15960, Note_on_c, 1, 45, 0
7, 15960, Note_on_c, 1, 33, 100
7, 16020, Note_on_c, 1, 33, 0
7, 16020, Note_on_c, 1, 45, 100
7, 16080, Note_on_c, 1, 45, 0
7, 16080, Note_on_c, 1, 33, 100
7, 16140, Note_on_c, 1, 33, 0
7, 16140, Note_on_c, 1, 45, 100
7, 16200, Note_on_c, 1, 45, 0
7, 16200, Note_on_c, 1, 33, 100
7, 16260, Note_on_c, 1, 33, 0
7, 16260, Note_on_c, 1, 45, 100
7, 16320, Note_on_c, 1, 45, 0
7, 16320, Note_on_c, 1, 36, 97
7, 16379, Note_on_c, 1, 36, 0
7, 16380, Note_on_c, 1, 48, 101
7, 16439, Note_on_c, 1, 48, 0
7, 16440, Note_on_c, 1, 36, 98
7, 16499, Note_on_c, 1, 36, 0
7, 16500, Note_on_c, 1, 48, 105
7, 16559, Note_on_c, 1, 48, 0
7, 16560, Note_on_c, 1, 36, 100
7, 16619, Note_on_c, 1, 36, 0
7, 16620, Note_on_c, 1, 48, 103
7, 16679, Note_on_c, 1, 48, 0
7, 16680, Note_on_c, 1, 36, 98
7, 16739, Note_on_c, 1, 36, 0
7, 16740, Note_on_c, 1, 48, 103
7, 16799, Note_on_c, 1, 48, 0
7, 16800, Note_on_c, 1, 29, 101
7, 16859, Note_on_c, 1, 29, 0
7, 16860, Note_on_c, 1, 41, 100
7, 16919, Note_on_c, 1, 41, 0
7, 16920, Note_on_c, 1, 29, 101
7, 16979, Note_on_c, 1, 29, 0
7, 16980, Note_on_c, 1, 41, 103
7, 17039, Note_on_c, 1, 41, 0
7, 17040, Note_on_c, 1, 29, 101
7, 17099, Note_on_c, 1, 29, 0
7, 17100, Note_on_c, 1, 41, 100
7, 17159, Note_on_c, 1, 41, 0
7, 17160, Note_on_c, 1, 29, 98
7, 17219, Note_on_c, 1, 29, 0
7, 17220, Note_on_c, 1, 41, 101
7, 17279, Note_on_c, 1, 41, 0
7, 17280, Note_on_c, 1, 50, 103
7, 17280, Note_on_c, 1, 26, 105
7, 17339, Note_on_c, 1, 26, 0
7, 17340, Note_on_c, 1, 38, 102
7, 17345, Note_on_c, 1, 45, 103
7, 17352, Note_on_c, 1, 50, 0
7, 17372, Note_on_c, 1, 41, 98
7, 17382, Note_on_c, 1, 45, 0
7, 17399, Note_on_c, 1, 38, 0
7, 17400, Note_on_c, 1, 26, 100
7, 17400, Note_on_c, 1, 38, 101
7, 17407, Note_on_c, 1, 41, 0
7, 17459, Note_on_c, 1, 26, 0
7, 17460, Note_on_c, 1, 38, 103
7, 17502, Note_on_c, 1, 38, 0
7, 17519, Note_on_c, 1, 38, 0
7, 17520, Note_on_c, 1, 28, 100
7, 17525, Note_on_c, 1, 52, 117
7, 17579, Note_on_c, 1, 28, 0
7, 17580, Note_on_c, 1, 40, 103
7, 17582, Note_on_c, 1, 47, 113
7, 17587, Note_on_c, 1, 52, 0
7, 17610, Note_on_c, 1, 44, 115
7, 17622, Note_on_c, 1, 47, 0
7, 17635, Note_on_c, 1, 40, 105
7, 17639, Note_on_c, 1, 40, 0
7, 17640, Note_on_c, 1, 28, 103
7, 17645, Note_on_c, 1, 44, 0
7, 17687, Note_on_c, 1, 40, 0
7, 17699, Note_on_c, 1, 28, 0
7, 17700, Note_on_c, 1, 40, 108
7, 17759, Note_on_c, 1, 40, 0
7, 17760, Note_on_c, 1, 33, 100
7, 17820, Note_on_c, 1, 33, 0
7, 17820, Note_on_c, 1, 45, 100
7, 17880, Note_on_c, 1, 45, 0
7, 17880, Note_on_c, 1, 33, 100
7, 17940, Note_on_c, 1, 33, 0
7, 17940, Note_on_c, 1, 45, 100
7, 18000, Note_on_c, 1, 45, 0
7, 18000, Note_on_c, 1, 33, 100
7, 18060, Note_on_c, 1, 33, 0
7, 18060, Note_on_c, 1, 45, 100
7, 18120, Note_on_c, 1, 45, 0
7, 18120, Note_on_c, 1, 33, 100
7, 18180, Note_on_c, 1, 33, 0
7, 18180, Note_on_c, 1, 45, 100
7, 18240, Note_on_c, 1, 45, 0
7, 18240, Note_on_c, 1, 33, 100
7, 18300, Note_on_c, 1, 33, 0
7, 18300, Note_on_c, 1, 45, 100
7, 18360, Note_on_c, 1, 45, 0
7, 18360, Note_on_c, 1, 33, 100
7, 18420, Note_on_c, 1, 33, 0
7, 18420, Note_on_c, 1, 45, 100
7, 18480, Note_on_c, 1, 45, 0
7, 18480, Note_on_c, 1, 33, 100
7, 18540, Note_on_c, 1, 33, 0
7, 18540, Note_on_c, 1, 45, 100
7, 18600, Note_on_c, 1, 45, 0
7, 18600, Note_on_c, 1, 33, 100
7, 18660, Note_on_c, 1, 33, 0
7, 18660, Note_on_c, 1, 45, 100
7, 18720, Note_on_c, 1, 45, 0
7, 18720, Note_on_c, 1, 31, 101
7, 18779, Note_on_c, 1, 31, 0
7, 18780, Note_on_c, 1, 43, 100
7, 18839, Note_on_c, 1, 43, 0
7, 18840, Note_on_c, 1, 31, 101
7, 18899, Note_on_c, 1, 31, 0
7, 18900, Note_on_c, 1, 43, 103
7, 18959, Note_on_c, 1, 43, 0
7, 18960, Note_on_c, 1, 29, 101
7, 19019, Note_on_c, 1, 29, 0
7, 19020, Note_on_c, 1, 41, 100
7, 19079, Note_on_c, 1, 41, 0
7, 19080, Note_on_c, 1, 29, 98
7, 19139, Note_on_c, 1, 29, 0
7, 19140, Note_on_c, 1, 41, 101
7, 19199, Note_on_c, 1, 41, 0
7, 19200, Note_on_c, 1, 33, 100
7, 19260, Note_on_c, 1, 33, 0
7, 19260, Note_on_c, 1, 45, 100
7, 19320, Note_on_c, 1, 45, 0
7, 19320, Note_on_c, 1, 33, 100
7, 19380, Note_on_c, 1, 33, 0
7, 19380, Note_on_c, 1, 45, 100
7, 19440, Note_on_c, 1, 45, 0
7, 19440, Note_on_c, 1, 33, 100
7, 19500, Note_on_c, 1, 33, 0
7, 19500, Note_on_c, 1, 45, 100
7, 19560, Note_on_c, 1, 45, 0
7, 19560, Note_on_c, 1, 33, 100
7, 19620, Note_on_c, 1, 33, 0
7, 19620, Note_on_c, 1, 45, 100
7, 19680, Note_on_c, 1, 45, 0
7, 19680, Note_on_c, 1, 33, 100
7, 19740, Note_on_c, 1, 33, 0
7, 19740, Note_on_c, 1, 45, 100
7, 19800, Note_on_c, 1, 45, 0
7, 19800, Note_on_c, 1, 33, 100
7, 19860, Note_on_c, 1, 33, 0
7, 19860, Note_on_c, 1, 45, 100
7, 19920, Note_on_c, 1, 45, 0
7, 19920, Note_on_c, 1, 33, 100
7, 19980, Note_on_c, 1, 33, 0
7, 19980, Note_on_c, 1, 45, 100
7, 20040, Note_on_c, 1, 45, 0
7, 20040, Note_on_c, 1, 33, 100
7, 20100, Note_on_c, 1, 33, 0
7, 20100, Note_on_c, 1, 45, 100
7, 20160, Note_on_c, 1, 45, 0
7, 20160, Note_on_c, 1, 33, 100
7, 20220, Note_on_c, 1, 33, 0
7, 20220, Note_on_c, 1, 45, 100
7, 20280, Note_on_c, 1, 45, 0
7, 20280, Note_on_c, 1, 33, 100
7, 20340, Note_on_c, 1, 33, 0
7, 20340, Note_on_c, 1, 45, 100
7, 20400, Note_on_c, 1, 45, 0
7, 20400, Note_on_c, 1, 33, 100
7, 20460, Note_on_c, 1, 33, 0
7, 20460, Note_on_c, 1, 45, 100
7, 20520, Note_on_c, 1, 45, 0
7, 20520, Note_on_c, 1, 33, 100
7, 20580, Note_on_c, 1, 33, 0
7, 20580, Note_on_c, 1, 45, 100
7, 20640, Note_on_c, 1, 45, 0
7, 20640, Note_on_c, 1, 31, 101
7, 20699, Note_on_c, 1, 31, 0
7, 20700, Note_on_c, 1, 43, 100
7, 20759, Note_on_c, 1, 43, 0
7, 20760, Note_on_c, 1, 31, 101
7, 20819, Note_on_c, 1, 31, 0
7, 20820, Note_on_c, 1, 43, 103
7, 20879, Note_on_c, 1, 43, 0
7, 20880, Note_on_c, 1, 29, 101
7, 20939, Note_on_c, 1, 29, 0
7, 20940, Note_on_c, 1, 41, 100
7, 20999, Note_on_c, 1, 41, 0
7, 21000, Note_on_c, 1, 29, 98
7, 21059, Note_on_c, 1, 29, 0
7, 21060, Note_on_c, 1, 41, 101
7, 21119, Note_on_c, 1, 41, 0
7, 21120, Note_on_c, 1, 33, 100
7, 21180, Note_on_c, 1, 33, 0
7, 21180, Note_on_c, 1, 45, 100
7, 21240, Note_on_c, 1, 45, 0
7, 21240, Note_on_c, 1, 33, 100
7, 21300, Note_on_c, 1, 33, 0
7, 21300, Note_on_c, 1, 45, 100
7, 21360, Note_on_c, 1, 45, 0
7, 21360, Note_on_c, 1, 33, 100
7, 21420, Note_on_c, 1, 33, 0
7, 21420, Note_on_c, 1, 45, 100
7, 21480, Note_on_c, 1, 45, 0
7, 21480, Note_on_c, 1, 33, 100
7, 21540, Note_on_c, 1, 33, 0
7, 21540, Note_on_c, 1, 45, 100
7, 21600, Note_on_c, 1, 45, 0
7, 21600, Note_on_c, 1, 33, 100
7, 21660, Note_on_c, 1, 33, 0
7, 21660, Note_on_c, 1, 45, 100
7, 21720, Note_on_c, 1, 45, 0
7, 21720, Note_on_c, 1, 33, 100
7, 21780, Note_on_c, 1, 33, 0
7, 21780, Note_on_c, 1, 45, 100
7, 21840, Note_on_c, 1, 45, 0
7, 21840, Note_on_c, 1, 33, 100
7, 21900, Note_on_c, 1, 33, 0
7, 21900, Note_on_c, 1, 45, 100
7, 21960, Note_on_c, 1, 45, 0
7, 21960, Note_on_c, 1, 33, 100
7, 22020, Note_on_c, 1, 33, 0
7, 22020, Note_on_c, 1, 45, 100
7, 22080, Note_on_c, 1, 45, 0
7, 22080, Note_on_c, 1, 36, 97
7, 22139, Note_on_c, 1, 36, 0
7, 22140, Note_on_c, 1, 48, 101
7, 22199, Note_on_c, 1, 48, 0
7, 22200, Note_on_c, 1, 36, 98
7, 22259, Note_on_c, 1, 36, 0
7, 22260, Note_on_c, 1, 48, 105
7, 22319, Note_on_c, 1, 48, 0
7, 22320, Note_on_c, 1, 36, 100
7, 22379, Note_on_c, 1, 36, 0
7, 22380, Note_on_c, 1, 48, 103
7, 22439, Note_on_c, 1, 48, 0
7, 22440, Note_on_c, 1, 36, 98
7, 22499, Note_on_c, 1, 36, 0
7, 22500, Note_on_c, 1, 48, 103
7, 22559, Note_on_c, 1, 48, 0
7, 22560, Note_on_c, 1, 29, 101
7, 22619, Note_on_c, 1, 29, 0
7, 22620, Note_on_c, 1, 41, 100
7, 22679, Note_on_c, 1, 41, 0
7, 22680, Note_on_c, 1, 29, 101
7, 22739, Note_on_c, 1, 29, 0
7, 22740, Note_on_c, 1, 41, 103
7, 22799, Note_on_c, 1, 41, 0
7, 22800, Note_on_c, 1, 29, 101
7, 22859, Note_on_c, 1, 29, 0
7, 22860, Note_on_c, 1, 41, 100
7, 22919, Note_on_c, 1, 41, 0
7, 22920, Note_on_c, 1, 29, 98
7, 22979, Note_on_c, 1, 29, 0
7, 22980, Note_on_c, 1, 41, 101
7, 23037, Note_on_c, 1, 50, 108
7, 23039, Note_on_c, 1, 41, 0
7, 23040, Note_on_c, 1, 26, 105
7, 23095, Note_on_c, 1, 45, 103
7, 23099, Note_on_c, 1, 26, 0
7, 23100, Note_on_c, 1, 38, 102
7, 23107, Note_on_c, 1, 50, 0
7, 23127, Note_on_c, 1, 41, 106
7, 23140, Note_on_c, 1, 45, 0
7, 23157, Note_on_c, 1, 38, 110
7, 23159, Note_on_c, 1, 38, 0
7, 23160, Note_on_c, 1, 26, 100
7, 23167, Note_on_c, 1, 41, 0
7, 23219, Note_on_c, 1, 26, 0
7, 23220, Note_on_c, 1, 38, 103
7, 23257, Note_on_c, 1, 38, 0
7, 23279, Note_on_c, 1, 38, 0
7, 23280, Note_on_c, 1, 28, 100
7, 23285, Note_on_c, 1, 52, 115
7, 23339, Note_on_c, 1, 28, 0
7, 23340, Note_on_c, 1, 40, 103
7, 23340, Note_on_c, 1, 47, 110
7, 23350, Note_on_c, 1, 52, 0
7, 23372, Note_on_c, 1, 44, 115
7, 23385, Note_on_c, 1, 47, 0
7, 23397, Note_on_c, 1, 40, 106
7, 23399, Note_on_c, 1, 40, 0
7, 23400, Note_on_c, 1, 28, 103
7, 23405, Note_on_c, 1, 44, 0
7, 23459, Note_on_c, 1, 28, 0
7, 23460, Note_on_c, 1, 40, 108
7, 23485, Note_on_c, 1, 40, 0
7, 23519, Note_on_c, 1, 40, 0
7, 23520, Note_on_c, 1, 33, 100
7, 23580, Note_on_c, 1, 33, 0
7, 23580, Note_on_c, 1, 45, 100
7, 23640, Note_on_c, 1, 45, 0
7, 23640, Note_on_c, 1, 33, 100
7, 23700, Note_on_c, 1, 33, 0
7, 23700, Note_on_c, 1, 45, 100
7, 23760, Note_on_c, 1, 45, 0
7, 23760, Note_on_c, 1, 33, 100
7, 23820, Note_on_c, 1, 33, 0
7, 23820, Note_on_c, 1, 45, 100
7, 23880, Note_on_c, 1, 45, 0
7, 23880, Note_on_c, 1, 33, 100
7, 23940, Note_on_c, 1, 33, 0
7, 23940, Note_on_c, 1, 45, 100
7, 24000, Note_on_c, 1, 45, 0
7, 24000, Note_on_c, 1, 36, 97
7, 24059, Note_on_c, 1, 36, 0
7, 24060, Note_on_c, 1, 48, 101
7, 24119, Note_on_c, 1, 48, 0
7, 24120, Note_on_c, 1, 36, 98
7, 24179, Note_on_c, 1, 36, 0
7, 24180, Note_on_c, 1, 48, 105
7, 24239, Note_on_c, 1, 48, 0
7, 24240, Note_on_c, 1, 36, 100
7, 24299, Note_on_c, 1, 36, 0
7, 24300, Note_on_c, 1, 48, 103
7, 24359, Note_on_c, 1, 48, 0
7, 24360, Note_on_c, 1, 36, 98
7, 24419, Note_on_c, 1, 36, 0
7, 24420, Note_on_c, 1, 48, 103
7, 24479, Note_on_c, 1, 48, 0
7, 24480, Note_on_c, 1, 29, 101
7, 24539, Note_on_c, 1, 29, 0
7, 24540, Note_on_c, 1, 41, 100
7, 24599, Note_on_c, 1, 41, 0
7, 24600, Note_on_c, 1, 29, 101
7, 24659, Note_on_c, 1, 29, 0
7, 24660, Note_on_c, 1, 41, 103
7, 24719, Note_on_c, 1, 41, 0
7, 24720, Note_on_c, 1, 29, 101
7, 24779, Note_on_c, 1, 29, 0
7, 24780, Note_on_c, 1, 41, 100
7, 24839, Note_on_c, 1, 41, 0
7, 24840, Note_on_c, 1, 29, 98
7, 24899, Note_on_c, 1, 29, 0
7, 24900, Note_on_c, 1, 41, 101
7, 24959, Note_on_c, 1, 41, 0
7, 24960, Note_on_c, 1, 50, 103
7, 24960, Note_on_c, 1, 26, 105
7, 25019, Note_on_c, 1, 26, 0
7, 25020, Note_on_c, 1, 38, 102
7, 25025, Note_on_c, 1, 45, 103
7, 25032, Note_on_c, 1, 50, 0
7, 25052, Note_on_c, 1, 41, 98
7, 25062, Note_on_c, 1, 45, 0
7, 25079, Note_on_c, 1, 38, 0
7, 25080, Note_on_c, 1, 26, 100
7, 25080, Note_on_c, 1, 38, 101
7, 25087, Note_on_c, 1, 41, 0
7, 25139, Note_on_c, 1, 26, 0
7, 25140, Note_on_c, 1, 38, 103
7, 25182, Note_on_c, 1, 38, 0
7, 25199, Note_on_c, 1, 38, 0
7, 25200, Note_on_c, 1, 28, 100
7, 25205, Note_on_c, 1, 52, 117
7, 25259, Note_on_c, 1, 28, 0
7, 25260, Note_on_c, 1, 40, 103
7, 25262, Note_on_c, 1, 47, 113
7, 25267, Note_on_c, 1, 52, 0
7, 25290, Note_on_c, 1, 44, 115
7, 25302, Note_on_c, 1, 47, 0
7, 25315, Note_on_c, 1, 40, 105
7, 25319, Note_on_c, 1, 40, 0
7, 25320, Note_on_c, 1, 28, 103
7, 25325, Note_on_c, 1, 44, 0
7, 25367, Note_on_c, 1, 40, 0
7, 25379, Note_on_c, 1, 28, 0
7, 25380, Note_on_c, 1, 40, 108
7, 25439, Note_on_c, 1, 40, 0
7, 25440, Note_on_c, 1, 33, 100
7, 25500, Note_on_c, 1, 33, 0
7, 25500, Note_on_c, 1, 45, 100
7, 25560, Note_on_c, 1, 45, 0
7, 25560, Note_on_c, 1, 33, 100
7, 25620, Note_on_c, 1, 33, 0
7, 25620, Note_on_c, 1, 45, 100
7, 25680, Note_on_c, 1, 45, 0
7, 25680, Note_on_c, 1, 33, 100
7, 25740, Note_on_c, 1, 33, 0
7, 25740, Note_on_c, 1, 45, 100
7, 25800, Note_on_c, 1, 45, 0
7, 25800, Note_on_c, 1, 33, 100
7, 25860, Note_on_c, 1, 33, 0
7, 25860, Note_on_c, 1, 45, 100
7, 25920, Note_on_c, 1, 45, 0
7, 25920, Note_on_c, 1, 33, 100
7, 25980, Note_on_c, 1, 33, 0
7, 25980, Note_on_c, 1, 45, 100
7, 26040, Note_on_c, 1, 45, 0
7, 26040, Note_on_c, 1, 33, 100
7, 26100, Note_on_c, 1, 33, 0
7, 26100, Note_on_c, 1, 45, 100
7, 26160, Note_on_c, 1, 45, 0
7, 26160, Note_on_c, 1, 33, 100
7, 26220, Note_on_c, 1, 33, 0
7, 26220, Note_on_c, 1, 45, 100
7, 26280, Note_on_c, 1, 45, 0
7, 26280, Note_on_c, 1, 33, 100
7, 26340, Note_on_c, 1, 33, 0
7, 26340, Note_on_c, 1, 45, 100
7, 26400, Note_on_c, 1, 45, 0
7, 26400, Note_on_c, 1, 36, 97
7, 26459, Note_on_c, 1, 36, 0
7, 26460, Note_on_c, 1, 48, 101
7, 26519, Note_on_c, 1, 48, 0
7, 26520, Note_on_c, 1, 36, 98
7, 26579, Note_on_c, 1, 36, 0
7, 26580, Note_on_c, 1, 48, 105
7, 26639, Note_on_c, 1, 48, 0
7, 26640, Note_on_c, 1, 36, 100
7, 26699, Note_on_c, 1, 36, 0
7, 26700, Note_on_c, 1, 48, 103
7, 26759, Note_on_c, 1, 48, 0
7, 26760, Note_on_c, 1, 36, 98
7, 26819, Note_on_c, 1, 36, 0
7, 26820, Note_on_c, 1, 48, 103
7, 26879, Note_on_c, 1, 48, 0
7, 26880, Note_on_c, 1, 29, 101
7, 26939, Note_on_c, 1, 29, 0
7, 26940, Note_on_c, 1, 41, 100
7, 26999, Note_on_c, 1, 41, 0
7, 27000, Note_on_c, 1, 29, 101
7, 27059, Note_on_c, 1, 29, 0
7, 27060, Note_on_c, 1, 41, 103
7, 27119, Note_on_c, 1, 41, 0
7, 27120, Note_on_c, 1, 29, 101
7, 27179, Note_on_c, 1, 29, 0
7, 27180, Note_on_c, 1, 41, 100
7, 27239, Note_on_c, 1, 41, 0
7, 27240, Note_on_c, 1, 29, 98
7, 27299, Note_on_c, 1, 29, 0
7, 27300, Note_on_c, 1, 41, 101
7, 27359, Note_on_c, 1, 41, 0
7, 27360, Note_on_c, 1, 26, 105
7, 27419, Note_on_c, 1, 26, 0
7, 27420, Note_on_c, 1, 38, 102
7, 27479, Note_on_c, 1, 38, 0
7, 27480, Note_on_c, 1, 26, 100
7, 27539, Note_on_c, 1, 26, 0
7, 27540, Note_on_c, 1, 38, 103
7, 27599, Note_on_c, 1, 38, 0
7, 27600, Note_on_c, 1, 28, 100
7, 27659, Note_on_c, 1, 28, 0
7, 27660, Note_on_c, 1, 40, 103
7, 27719, Note_on_c, 1, 40, 0
7, 27720, Note_on_c, 1, 28, 103
7, 27779, Note_on_c, 1, 28, 0
7, 27780, Note_on_c, 1, 40, 108
7, 27839, Note_on_c, 1, 40, 0
7, 27840, Note_on_c, 1, 33, 100
7, 27900, Note_on_c, 1, 33, 0
7, 27900, Note_on_c, 1, 45, 100
7, 27960, Note_on_c, 1, 45, 0
7, 27960, Note_on_c, 1, 33, 100
7, 28020, Note_on_c, 1, 33, 0
7, 28020, Note_on_c, 1, 45, 100
7, 28080, Note_on_c, 1, 45, 0
7, 28080, Note_on_c, 1, 33, 100
7, 28140, Note_on_c, 1, 33, 0
7, 28140, Note_on_c, 1, 45, 100
7, 28200, Note_on_c, 1, 45, 0
7, 28200, Note_on_c, 1, 33, 100
7, 28260, Note_on_c, 1, 33, 0
7, 28260, Note_on_c, 1, 45, 100
7, 28320, Note_on_c, 1, 45, 0
7, 28320, Note_on_c, 1, 36, 97
7, 28379, Note_on_c, 1, 36, 0
7, 28380, Note_on_c, 1, 48, 101
7, 28439, Note_on_c, 1, 48, 0
7, 28440, Note_on_c, 1, 36, 98
7, 28499, Note_on_c, 1, 36, 0
7, 28500, Note_on_c, 1, 48, 105
7, 28559, Note_on_c, 1, 48, 0
7, 28560, Note_on_c, 1, 36, 100
7, 28619, Note_on_c, 1, 36, 0
7, 28620, Note_on_c, 1, 48, 103
7, 28679, Note_on_c, 1, 48, 0
7, 28680, Note_on_c, 1, 36, 98
7, 28739, Note_on_c, 1, 36, 0
7, 28740, Note_on_c, 1, 48, 103
7, 28799, Note_on_c, 1, 48, 0
7, 28800, Note_on_c, 1, 29, 101
7, 28859, Note_on_c, 1, 29, 0
7, 28860, Note_on_c, 1, 41, 100
7, 28919, Note_on_c, 1, 41, 0
7, 28920, Note_on_c, 1, 29, 101
7, 28979, Note_on_c, 1, 29, 0
7, 28980, Note_on_c, 1, 41, 103
7, 29039, Note_on_c, 1, 41, 0
7, 29040, Note_on_c, 1, 29, 101
7, 29099, Note_on_c, 1, 29, 0
7, 29100, Note_on_c, 1, 41, 100
7, 29159, Note_on_c, 1, 41, 0
7, 29160, Note_on_c, 1, 29, 98
7, 29219, Note_on_c, 1, 29, 0
7, 29220, Note_on_c, 1, 41, 101
7, 29279, Note_on_c, 1, 41, 0
7, 29280, Note_on_c, 1, 26, 105
7, 29339, Note_on_c, 1, 26, 0
7, 29340, Note_on_c, 1, 38, 102
7, 29399, Note_on_c, 1, 38, 0
7, 29400, Note_on_c, 1, 26, 100
7, 29459, Note_on_c, 1, 26, 0
7, 29460, Note_on_c, 1, 38, 103
7, 29519, Note_on_c, 1, 38, 0
7, 29520, Note_on_c, 1, 28, 100
7, 29579, Note_on_c, 1, 28, 0
7, 29580, Note_on_c, 1, 40, 103
7, 29639, Note_on_c, 1, 40, 0
7, 29640, Note_on_c, 1, 28, 103
7, 29699, Note_on_c, 1, 28, 0
7, 29700, Note_on_c, 1, 40, 108
7, 29759, Note_on_c, 1, 40, 0
7, 29760, Note_on_c, 1, 33, 100
7, 29820, Note_on_c, 1, 33, 0
7, 29820, Note_on_c, 1, 45, 100
7, 29880, Note_on_c, 1, 45, 0
7, 29880, Note_on_c, 1, 33, 100
7, 29940, Note_on_c, 1, 33, 0
7, 29940, Note_on_c, 1, 45, 100
7, 30000, Note_on_c, 1, 45, 0
7, 30000, Note_on_c, 1, 33, 100
7, 30060, Note_on_c, 1, 33, 0
7, 30060, Note_on_c, 1, 45, 100
7, 30120, Note_on_c, 1, 45, 0
7, 30120, Note_on_c, 1, 33, 100
7, 30180, Note_on_c, 1, 33, 0
7, 30180, Note_on_c, 1, 45, 100
7, 30240, Note_on_c, 1, 45, 0
7, 30240, Note_on_c, 1, 36, 97
7, 30299, Note_on_c, 1, 36, 0
7, 30300, Note_on_c, 1, 48, 101
7, 30359, Note_on_c, 1, 48, 0
7, 30360, Note_on_c, 1, 36, 98
7, 30419, Note_on_c, 1, 36, 0
7, 30420, Note_on_c, 1, 48, 105
7, 30479, Note_on_c, 1, 48, 0
7, 30480, Note_on_c, 1, 36, 100
7, 30539, Note_on_c, 1, 36, 0
7, 30540, Note_on_c, 1, 48, 103
7, 30599, Note_on_c, 1, 48, 0
7, 30600, Note_on_c, 1, 36, 98
7, 30659, Note_on_c, 1, 36, 0
7, 30660, Note_on_c, 1, 48, 103
7, 30719, Note_on_c, 1, 48, 0
7, 30720, Note_on_c, 1, 29, 101
7, 30779, Note_on_c, 1, 29, 0
7, 30780, Note_on_c, 1, 41, 100
7, 30839, Note_on_c, 1, 41, 0
7, 30840, Note_on_c, 1, 29, 101
7, 30899, Note_on_c, 1, 29, 0
7, 30900, Note_on_c, 1, 41, 103
7, 30959, Note_on_c, 1, 41, 0
7, 30960, Note_on_c, 1, 29, 101
7, 31019, Note_on_c, 1, 29, 0
7, 31020, Note_on_c, 1, 41, 100
7, 31079, Note_on_c, 1, 41, 0
7, 31080, Note_on_c, 1, 29, 98
7, 31139, Note_on_c, 1, 29, 0
7, 31140, Note_on_c, 1, 41, 101
7, 31199, Note_on_c, 1, 41, 0
7, 31200, Note_on_c, 1, 33, 100
7, 31260, Note_on_c, 1, 33, 0
7, 31260, Note_on_c, 1, 45, 100
7, 31320, Note_on_c, 1, 45, 0
7, 31320, Note_on_c, 1, 33, 100
7, 31380, Note_on_c, 1, 33, 0
7, 31380, Note_on_c, 1, 45, 100
7, 31440, Note_on_c, 1, 45, 0
7, 31440, Note_on_c, 1, 33, 100
7, 31500, Note_on_c, 1, 33, 0
7, 31500, Note_on_c, 1, 45, 100
7, 31560, Note_on_c, 1, 45, 0
7, 31560, Note_on_c, 1, 33, 100
7, 31620, Note_on_c, 1, 33, 0
7, 31620, Note_on_c, 1, 45, 100
7, 31680, Note_on_c, 1, 45, 0
7, 31680, Note_on_c, 1, 33, 100
7, 31740, Note_on_c, 1, 33, 0
7, 31740, Note_on_c, 1, 45, 100
7, 31800, Note_on_c, 1, 45, 0
7, 31800, Note_on_c, 1, 33, 100
7, 31860, Note_on_c, 1, 33, 0
7, 31860, Note_on_c, 1, 45, 100
7, 31920, Note_on_c, 1, 45, 0
7, 31920, Note_on_c, 1, 33, 100
7, 31980, Note_on_c, 1, 33, 0
7, 31980, Note_on_c, 1, 45, 100
7, 32040, Note_on_c, 1, 45, 0
7, 32040, Note_on_c, 1, 33, 100
7, 32100, Note_on_c, 1, 33, 0
7, 32100, Note_on_c, 1, 45, 100
7, 32160, Note_on_c, 1, 45, 0
7, 32160, Note_on_c, 1, 33, 100
7, 32220, Note_on_c, 1, 33, 0
7, 32220, Note_on_c, 1, 45, 100
7, 32280, Note_on_c, 1, 45, 0
7, 32280, Note_on_c, 1, 33, 100
7, 32340, Note_on_c, 1, 33, 0
7, 32340, Note_on_c, 1, 45, 100
7, 32400, Note_on_c, 1, 45, 0
7, 32400, Note_on_c, 1, 33, 100
7, 32460, Note_on_c, 1, 33, 0
7, 32460, Note_on_c, 1, 45, 100
7, 32520, Note_on_c, 1, 45, 0
7, 32520, Note_on_c, 1, 33, 100
7, 32580, Note_on_c, 1, 33, 0
7, 32580, Note_on_c, 1, 45, 100
7, 32640, Note_on_c, 1, 45, 0
7, 32640, Note_on_c, 1, 31, 101
7, 32699, Note_on_c, 1, 31, 0
7, 32700, Note_on_c, 1, 43, 100
7, 32759, Note_on_c, 1, 43, 0
7, 32760, Note_on_c, 1, 31, 101
7, 32819, Note_on_c, 1, 31, 0
7, 32820, Note_on_c, 1, 43, 103
7, 32879, Note_on_c, 1, 43, 0
7, 32880, Note_on_c, 1, 29, 101
7, 32939, Note_on_c, 1, 29, 0
7, 32940, Note_on_c, 1, 41, 100
7, 32999, Note_on_c, 1, 41, 0
7, 33000, Note_on_c, 1, 29, 98
7, 33059, Note_on_c, 1, 29, 0
7, 33060, Note_on_c, 1, 41, 101
7, 33119, Note_on_c, 1, 41, 0
7, 33120, Note_on_c, 1, 33, 100
7, 33180, Note_on_c, 1, 33, 0
7, 33180, Note_on_c, 1, 45, 100
7, 33240, Note_on_c, 1, 45, 0
7, 33240, Note_on_c, 1, 33, 100
7, 33300, Note_on_c, 1, 33, 0
7, 33300, Note_on_c, 1, 45, 100
7, 33360, Note_on_c, 1, 45, 0
7, 33360, Note_on_c, 1, 33, 100
7, 33420, Note_on_c, 1, 33, 0
7, 33420, Note_on_c, 1, 45, 100
7, 33480, Note_on_c, 1, 45, 0
7, 33480, Note_on_c, 1, 33, 100
7, 33540, Note_on_c, 1, 33, 0
7, 33540, Note_on_c, 1, 45, 100
7, 33600, Note_on_c, 1, 45, 0
7, 44160, Note_on_c, 1, 33, 100
7, 44220, Note_on_c, 1, 33, 0
7, 44220, Note_on_c, 1, 45, 100
7, 44280, Note_on_c, 1, 45, 0
7, 44280, Note_on_c, 1, 33, 100
7, 44340, Note_on_c, 1, 33, 0
7, 44340, Note_on_c, 1, 45, 100
7, 44400, Note_on_c, 1, 45, 0
7, 44400, Note_on_c, 1, 33, 100
7, 44460, Note_on_c, 1, 33, 0
7, 44460, Note_on_c, 1, 45, 100
7, 44520, Note_on_c, 1, 45, 0
7, 44520, Note_on_c, 1, 33, 100
7, 44580, Note_on_c, 1, 33, 0
7, 44580, Note_on_c, 1, 45, 100
7, 44640, Note_on_c, 1, 45, 0
7, 44640, Note_on_c, 1, 33, 100
7, 44700, Note_on_c, 1, 33, 0
7, 44700, Note_on_c, 1, 45, 100
7, 44760, Note_on_c, 1, 45, 0
7, 44760, Note_on_c, 1, 33, 100
7, 44820, Note_on_c, 1, 33, 0
7, 44820, Note_on_c, 1, 45, 100
7, 44880, Note_on_c, 1, 45, 0
7, 44880, Note_on_c, 1, 33, 100
7, 44940, Note_on_c, 1, 33, 0
7, 44940, Note_on_c, 1, 45, 100
7, 45000, Note_on_c, 1, 45, 0
7, 45000, Note_on_c, 1, 33, 100
7, 45060, Note_on_c, 1, 33, 0
7, 45060, Note_on_c, 1, 45, 100
7, 45120, Note_on_c, 1, 45, 0
7, 45120, Note_on_c, 1, 31, 101
7, 45179, Note_on_c, 1, 31, 0
7, 45180, Note_on_c, 1, 43, 100
7, 45239, Note_on_c, 1, 43, 0
7, 45240, Note_on_c, 1, 31, 101
7, 45299, Note_on_c, 1, 31, 0
7, 45300, Note_on_c, 1, 43, 103
7, 45359, Note_on_c, 1, 43, 0
7, 45360, Note_on_c, 1, 29, 101
7, 45419, Note_on_c, 1, 29, 0
7, 45420, Note_on_c, 1, 41, 100
7, 45479, Note_on_c, 1, 41, 0
7, 45480, Note_on_c, 1, 29, 98
7, 45539, Note_on_c, 1, 29, 0
7, 45540, Note_on_c, 1, 41, 101
7, 45599, Note_on_c, 1, 41, 0
7, 45600, Note_on_c, 1, 33, 100
7, 45660, Note_on_c, 1, 33, 0
7, 45660, Note_on_c, 1, 45, 100
7, 45720, Note_on_c, 1, 45, 0
7, 45720, Note_on_c, 1, 33, 100
7, 45780, Note_on_c, 1, 33, 0
7, 45780, Note_on_c, 1, 45, 100
7, 45840, Note_on_c, 1, 45, 0
7, 45840, Note_on_c, 1, 33, 100
7, 45900, Note_on_c, 1, 33, 0
7, 45900, Note_on_c, 1, 45, 100
7, 45960, Note_on_c, 1, 45, 0
7, 45960, Note_on_c, 1, 33, 100
7, 46020, Note_on_c, 1, 33, 0
7, 46020, Note_on_c, 1, 45, 100
7, 46080, Note_on_c, 1, 45, 0
7, 46080, Note_on_c, 1, 33, 100
7, 46140, Note_on_c, 1, 33, 0
7, 46140, Note_on_c, 1, 45, 100
7, 46200, Note_on_c, 1, 45, 0
7, 46200, Note_on_c, 1, 33, 100
7, 46260, Note_on_c, 1, 33, 0
7, 46260, Note_on_c, 1, 45, 100
7, 46320, Note_on_c, 1, 45, 0
7, 46320, Note_on_c, 1, 33, 100
7, 46380, Note_on_c, 1, 33, 0
7, 46380, Note_on_c, 1, 45, 100
7, 46440, Note_on_c, 1, 45, 0
7, 46440, Note_on_c, 1, 33, 100
7, 46500, Note_on_c, 1, 33, 0
7, 46500, Note_on_c, 1, 45, 100
7, 46560, Note_on_c, 1, 45, 0
7, 46560, Note_on_c, 1, 33, 100
7, 46620, Note_on_c, 1, 33, 0
7, 46620, Note_on_c, 1, 45, 100
7, 46680, Note_on_c, 1, 45, 0
7, 46680, Note_on_c, 1, 33, 100
7, 46740, Note_on_c, 1, 33, 0
7, 46740, Note_on_c, 1, 45, 100
7, 46800, Note_on_c, 1, 45, 0
7, 46800, Note_on_c, 1, 33, 100
7, 46860, Note_on_c, 1, 33, 0
7, 46860, Note_on_c, 1, 45, 100
7, 46920, Note_on_c, 1, 45, 0
7, 46920, Note_on_c, 1, 33, 100
7, 46980, Note_on_c, 1, 33, 0
7, 46980, Note_on_c, 1, 45, 100
7, 47040, Note_on_c, 1, 45, 0
7, 47040, Note_on_c, 1, 31, 101
7, 47099, Note_on_c, 1, 31, 0
7, 47100, Note_on_c, 1, 43, 100
7, 47159, Note_on_c, 1, 43, 0
7, 47160, Note_on_c, 1, 31, 101
7, 47219, Note_on_c, 1, 31, 0
7, 47220, Note_on_c, 1, 43, 103
7, 47279, Note_on_c, 1, 43, 0
7, 47280, Note_on_c, 1, 29, 101
7, 47339, Note_on_c, 1, 29, 0
7, 47340, Note_on_c, 1, 41, 100
7, 47399, Note_on_c, 1, 41, 0
7, 47400, Note_on_c, 1, 29, 98
7, 47459, Note_on_c, 1, 29, 0
7, 47460, Note_on_c, 1, 41, 101
7, 47519, Note_on_c, 1, 41, 0
7, 47520, Note_on_c, 1, 33, 100
7, 47580, Note_on_c, 1, 33, 0
7, 47580, Note_on_c, 1, 45, 100
7, 47640, Note_on_c, 1, 45, 0
7, 47640, Note_on_c, 1, 33, 100
7, 47700, Note_on_c, 1, 33, 0
7, 47700, Note_on_c, 1, 45, 100
7, 47760, Note_on_c, 1, 45, 0
7, 47760, Note_on_c, 1, 33, 100
7, 47820, Note_on_c, 1, 33, 0
7, 47820, Note_on_c, 1, 45, 100
7, 47880, Note_on_c, 1, 45, 0
7, 47880, Note_on_c, 1, 33, 100
7, 47940, Note_on_c, 1, 33, 0
7, 47940, Note_on_c, 1, 45, 100
7, 48000, Note_on_c, 1, 45, 0
7, 48000, Note_on_c, 1, 33, 100
7, 48060, Note_on_c, 1, 33, 0
7, 48060, Note_on_c, 1, 45, 100
7, 48120, Note_on_c, 1, 45, 0
7, 48120, Note_on_c, 1, 33, 100
7, 48180, Note_on_c, 1, 33, 0
7, 48180, Note_on_c, 1, 45, 100
7, 48240, Note_on_c, 1, 45, 0
7, 48240, Note_on_c, 1, 33, 100
7, 48300, Note_on_c, 1, 33, 0
7, 48300, Note_on_c, 1, 45, 100
7, 48360, Note_on_c, 1, 45, 0
7, 48360, Note_on_c, 1, 33, 100
7, 48420, Note_on_c, 1, 33, 0
7, 48420, Note_on_c, 1, 45, 100
7, 48480, Note_on_c, 1, 45, 0
7, 48480, Note_on_c, 1, 33, 100
7, 48540, Note_on_c, 1, 33, 0
7, 48540, Note_on_c, 1, 45, 100
7, 48600, Note_on_c, 1, 45, 0
7, 48600, Note_on_c, 1, 33, 100
7, 48660, Note_on_c, 1, 33, 0
7, 48660, Note_on_c, 1, 45, 100
7, 48720, Note_on_c, 1, 45, 0
7, 48720, Note_on_c, 1, 33, 100
7, 48780, Note_on_c, 1, 33, 0
7, 48780, Note_on_c, 1, 45, 100
7, 48840, Note_on_c, 1, 45, 0
7, 48840, Note_on_c, 1, 33, 100
7, 48900, Note_on_c, 1, 33, 0
7, 48900, Note_on_c, 1, 45, 100
7, 48960, Note_on_c, 1, 45, 0
7, 48960, Note_on_c, 1, 31, 101
7, 49019, Note_on_c, 1, 31, 0
7, 49020, Note_on_c, 1, 43, 100
7, 49079, Note_on_c, 1, 43, 0
7, 49080, Note_on_c, 1, 31, 101
7, 49139, Note_on_c, 1, 31, 0
7, 49140, Note_on_c, 1, 43, 103
7, 49199, Note_on_c, 1, 43, 0
7, 49200, Note_on_c, 1, 29, 101
7, 49259, Note_on_c, 1, 29, 0
7, 49260, Note_on_c, 1, 41, 100
7, 49319, Note_on_c, 1, 41, 0
7, 49320, Note_on_c, 1, 29, 98
7, 49379, Note_on_c, 1, 29, 0
7, 49380, Note_on_c, 1, 41, 101
7, 49439, Note_on_c, 1, 41, 0
7, 49440, Note_on_c, 1, 33, 100
7, 49500, Note_on_c, 1, 33, 0
7, 49500, Note_on_c, 1, 45, 100
7, 49560, Note_on_c, 1, 45, 0
7, 49560, Note_on_c, 1, 33, 100
7, 49620, Note_on_c, 1, 33, 0
7, 49620, Note_on_c, 1, 45, 100
7, 49680, Note_on_c, 1, 45, 0
7, 49680, Note_on_c, 1, 33, 100
7, 49740, Note_on_c, 1, 33, 0
7, 49740, Note_on_c, 1, 45, 100
7, 49800, Note_on_c, 1, 45, 0
7, 49800, Note_on_c, 1, 33, 100
7, 49860, Note_on_c, 1, 33, 0
7, 49860, Note_on_c, 1, 45, 100
7, 49920, Note_on_c, 1, 45, 0
7, 49920, Note_on_c, 1, 33, 100
7, 49980, Note_on_c, 1, 33, 0
7, 49980, Note_on_c, 1, 45, 100
7, 50040, Note_on_c, 1, 45, 0
7, 50040, Note_on_c, 1, 33, 100
7, 50100, Note_on_c, 1, 33, 0
7, 50100, Note_on_c, 1, 45, 100
7, 50160, Note_on_c, 1, 45, 0
7, 50160, Note_on_c, 1, 33, 100
7, 50220, Note_on_c, 1, 33, 0
7, 50220, Note_on_c, 1, 45, 100
7, 50280, Note_on_c, 1, 45, 0
7, 50280, Note_on_c, 1, 33, 100
7, 50340, Note_on_c, 1, 33, 0
7, 50340, Note_on_c, 1, 45, 100
7, 50400, Note_on_c, 1, 45, 0
7, 50400, Note_on_c, 1, 33, 100
7, 50460, Note_on_c, 1, 33, 0
7, 50460, Note_on_c, 1, 45, 100
7, 50520, Note_on_c, 1, 45, 0
7, 50520, Note_on_c, 1, 33, 100
7, 50580, Note_on_c, 1, 33, 0
7, 50580, Note_on_c, 1, 45, 100
7, 50640, Note_on_c, 1, 45, 0
7, 50640, Note_on_c, 1, 33, 100
7, 50700, Note_on_c, 1, 33, 0
7, 50700, Note_on_c, 1, 45, 100
7, 50760, Note_on_c, 1, 45, 0
7, 50760, Note_on_c, 1, 33, 100
7, 50820, Note_on_c, 1, 33, 0
7, 50820, Note_on_c, 1, 45, 100
7, 50880, Note_on_c, 1, 45, 0
7, 50880, Note_on_c, 1, 31, 101
7, 50939, Note_on_c, 1, 31, 0
7, 50940, Note_on_c, 1, 43, 100
7, 50999, Note_on_c, 1, 43, 0
7, 51000, Note_on_c, 1, 31, 101
7, 51059, Note_on_c, 1, 31, 0
7, 51060, Note_on_c, 1, 43, 103
7, 51119, Note_on_c, 1, 43, 0
7, 51120, Note_on_c, 1, 29, 101
7, 51179, Note_on_c, 1, 29, 0
7, 51180, Note_on_c, 1, 41, 100
7, 51239, Note_on_c, 1, 41, 0
7, 51240, Note_on_c, 1, 29, 98
7, 51299, Note_on_c, 1, 29, 0
7, 51300, Note_on_c, 1, 41, 101
7, 51359, Note_on_c, 1, 41, 0
7, 51360, Note_on_c, 1, 33, 100
7, 51420, Note_on_c, 1, 33, 0
7, 51420, Note_on_c, 1, 45, 100
7, 51480, Note_on_c, 1, 45, 0
7, 51480, Note_on_c, 1, 33, 100
7, 51540, Note_on_c, 1, 33, 0
7, 51540, Note_on_c, 1, 45, 100
7, 51600, Note_on_c, 1, 45, 0
7, 51600, Note_on_c, 1, 33, 100
7, 51660, Note_on_c, 1, 33, 0
7, 51660, Note_on_c, 1, 45, 100
7, 51720, Note_on_c, 1, 45, 0
7, 51720, Note_on_c, 1, 33, 100
7, 51780, Note_on_c, 1, 33, 0
7, 51780, Note_on_c, 1, 45, 100
7, 51840, Note_on_c, 1, 45, 0
7, 51840, Note_on_c, 1, 33, 100
7, 51900, Note_on_c, 1, 33, 0
7, 51900, Note_on_c, 1, 45, 100
7, 51960, Note_on_c, 1, 45, 0
7, 51960, Note_on_c, 1, 33, 100
7, 52020, Note_on_c, 1, 33, 0
7, 52020, Note_on_c, 1, 45, 100
7, 52080, Note_on_c, 1, 45, 0
7, 52080, Note_on_c, 1, 33, 100
7, 52140, Note_on_c, 1, 33, 0
7, 52140, Note_on_c, 1, 45, 100
7, 52200, Note_on_c, 1, 45, 0
7, 52200, Note_on_c, 1, 33, 100
7, 52260, Note_on_c, 1, 33, 0
7, 52260, Note_on_c, 1, 45, 100
7, 52320, Note_on_c, 1, 45, 0
7, 52320, Note_on_c, 1, 33, 100
7, 52380, Note_on_c, 1, 33, 0
7, 52380, Note_on_c, 1, 45, 100
7, 52440, Note_on_c, 1, 45, 0
7, 52440, Note_on_c, 1, 33, 100
7, 52500, Note_on_c, 1, 33, 0
7, 52500, Note_on_c, 1, 45, 100
7, 52560, Note_on_c, 1, 45, 0
7, 52560, Note_on_c, 1, 33, 100
7, 52620, Note_on_c, 1, 33, 0
7, 52620, Note_on_c, 1, 45, 100
7, 52680, Note_on_c, 1, 45, 0
7, 52680, Note_on_c, 1, 33, 100
7, 52740, Note_on_c, 1, 33, 0
7, 52740, Note_on_c, 1, 45, 100
7, 52800, Note_on_c, 1, 45, 0
7, 52800, Note_on_c, 1, 31, 101
7, 52859, Note_on_c, 1, 31, 0
7, 52860, Note_on_c, 1, 43, 100
7, 52919, Note_on_c, 1, 43, 0
7, 52920, Note_on_c, 1, 31, 101
7, 52979, Note_on_c, 1, 31, 0
7, 52980, Note_on_c, 1, 43, 103
7, 53039, Note_on_c, 1, 43, 0
7, 53040, Note_on_c, 1, 29, 101
7, 53099, Note_on_c, 1, 29, 0
7, 53100, Note_on_c, 1, 41, 100
7, 53159, Note_on_c, 1, 41, 0
7, 53160, Note_on_c, 1, 29, 98
7, 53219, Note_on_c, 1, 29, 0
7, 53220, Note_on_c, 1, 41, 101
7, 53279, Note_on_c, 1, 41, 0
7, 53280, Note_on_c, 1, 33, 100
7, 53340, Note_on_c, 1, 33, 0
7, 53340, Note_on_c, 1, 45, 100
7, 53400, Note_on_c, 1, 45, 0
7, 53400, Note_on_c, 1, 33, 100
7, 53460, Note_on_c, 1, 33, 0
7, 53460, Note_on_c, 1, 45, 100
7, 53520, Note_on_c, 1, 45, 0
7, 53520, Note_on_c, 1, 33, 100
7, 53580, Note_on_c, 1, 33, 0
7, 53580, Note_on_c, 1, 45, 100
7, 53640, Note_on_c, 1, 45, 0
7, 53640, Note_on_c, 1, 33, 100
7, 53700, Note_on_c, 1, 33, 0
7, 53700, Note_on_c, 1, 45, 100
7, 53760, Note_on_c, 1, 45, 0
7, 53760, Note_on_c, 1, 33, 100
7, 53820, Note_on_c, 1, 33, 0
7, 53820, Note_on_c, 1, 45, 100
7, 53880, Note_on_c, 1, 45, 0
7, 53880, Note_on_c, 1, 33, 100
7, 53940, Note_on_c, 1, 33, 0
7, 53940, Note_on_c, 1, 45, 100
7, 54000, Note_on_c, 1, 45, 0
7, 54000, Note_on_c, 1, 33, 100
7, 54060, Note_on_c, 1, 33, 0
7, 54060, Note_on_c, 1, 45, 100
7, 54120, Note_on_c, 1, 45, 0
7, 54120, Note_on_c, 1, 33, 100
7, 54180, Note_on_c, 1, 33, 0
7, 54180, Note_on_c, 1, 45, 100
7, 54240, Note_on_c, 1, 45, 0
7, 54240, Note_on_c, 1, 33, 100
7, 54300, Note_on_c, 1, 33, 0
7, 54300, Note_on_c, 1, 45, 100
7, 54360, Note_on_c, 1, 45, 0
7, 54360, Note_on_c, 1, 33, 100
7, 54420, Note_on_c, 1, 33, 0
7, 54420, Note_on_c, 1, 45, 100
7, 54480, Note_on_c, 1, 45, 0
7, 54480, Note_on_c, 1, 33, 100
7, 54540, Note_on_c, 1, 33, 0
7, 54540, Note_on_c, 1, 45, 100
7, 54600, Note_on_c, 1, 45, 0
7, 54600, Note_on_c, 1, 33, 100
7, 54660, Note_on_c, 1, 33, 0
7, 54660, Note_on_c, 1, 45, 100
7, 54720, Note_on_c, 1, 45, 0
7, 54720, Note_on_c, 1, 31, 101
7, 54779, Note_on_c, 1, 31, 0
7, 54780, Note_on_c, 1, 43, 100
7, 54839, Note_on_c, 1, 43, 0
7, 54840, Note_on_c, 1, 31, 101
7, 54899, Note_on_c, 1, 31, 0
7, 54900, Note_on_c, 1, 43, 103
7, 54959, Note_on_c, 1, 43, 0
7, 54960, Note_on_c, 1, 29, 101
7, 55019, Note_on_c, 1, 29, 0
7, 55020, Note_on_c, 1, 41, 100
7, 55079, Note_on_c, 1, 41, 0
7, 55080, Note_on_c, 1, 29, 98
7, 55139, Note_on_c, 1, 29, 0
7, 55140, Note_on_c, 1, 41, 101
7, 55199, Note_on_c, 1, 41, 0
7, 55200, Note_on_c, 1, 33, 100
7, 55260, Note_on_c, 1, 33, 0
7, 55260, Note_on_c, 1, 45, 100
7, 55320, Note_on_c, 1, 45, 0
7, 55320, Note_on_c, 1, 33, 100
7, 55380, Note_on_c, 1, 33, 0
7, 55380, Note_on_c, 1, 45, 100
7, 55440, Note_on_c, 1, 45, 0
7, 55440, Note_on_c, 1, 33, 100
7, 55500, Note_on_c, 1, 33, 0
7, 55500, Note_on_c, 1, 45, 100
7, 55560, Note_on_c, 1, 45, 0
7, 55560, Note_on_c, 1, 33, 100
7, 55620, Note_on_c, 1, 33, 0
7, 55620, Note_on_c, 1, 45, 100
7, 55680, Note_on_c, 1, 45, 0
7, 55680, Note_on_c, 1, 33, 100
7, 55740, Note_on_c, 1, 33, 0
7, 55740, Note_on_c, 1, 45, 100
7, 55800, Note_on_c, 1, 45, 0
7, 55800, Note_on_c, 1, 33, 100
7, 55860, Note_on_c, 1, 33, 0
7, 55860, Note_on_c, 1, 45, 100
7, 55920, Note_on_c, 1, 45, 0
7, 55920, Note_on_c, 1, 33, 100
7, 55980, Note_on_c, 1, 33, 0
7, 55980, Note_on_c, 1, 45, 100
7, 56040, Note_on_c, 1, 45, 0
7, 56040, Note_on_c, 1, 33, 100
7, 56100, Note_on_c, 1, 33, 0
7, 56100, Note_on_c, 1, 45, 100
7, 56160, Note_on_c, 1, 45, 0
7, 56160, Note_on_c, 1, 36, 97
7, 56219, Note_on_c, 1, 36, 0
7, 56220, Note_on_c, 1, 48, 101
7, 56279, Note_on_c, 1, 48, 0
7, 56280, Note_on_c, 1, 36, 98
7, 56339, Note_on_c, 1, 36, 0
7, 56340, Note_on_c, 1, 48, 105
7, 56399, Note_on_c, 1, 48, 0
7, 56400, Note_on_c, 1, 36, 100
7, 56459, Note_on_c, 1, 36, 0
7, 56460, Note_on_c, 1, 48, 103
7, 56519, Note_on_c, 1, 48, 0
7, 56520, Note_on_c, 1, 36, 98
7, 56579, Note_on_c, 1, 36, 0
7, 56580, Note_on_c, 1, 48, 103
7, 56639, Note_on_c, 1, 48, 0
7, 56640, Note_on_c, 1, 29, 101
7, 56699, Note_on_c, 1, 29, 0
7, 56700, Note_on_c, 1, 41, 100
7, 56759, Note_on_c, 1, 41, 0
7, 56760, Note_on_c, 1, 29, 101
7, 56819, Note_on_c, 1, 29, 0
7, 56820, Note_on_c, 1, 41, 103
7, 56879, Note_on_c, 1, 41, 0
7, 56880, Note_on_c, 1, 29, 101
7, 56939, Note_on_c, 1, 29, 0
7, 56940, Note_on_c, 1, 41, 100
7, 56999, Note_on_c, 1, 41, 0
7, 57000, Note_on_c, 1, 29, 98
7, 57059, Note_on_c, 1, 29, 0
7, 57060, Note_on_c, 1, 41, 101
7, 57117, Note_on_c, 1, 50, 108
7, 57119, Note_on_c, 1, 41, 0
7, 57120, Note_on_c, 1, 26, 105
7, 57175, Note_on_c, 1, 45, 103
7, 57179, Note_on_c, 1, 26, 0
7, 57180, Note_on_c, 1, 38, 102
7, 57187, Note_on_c, 1, 50, 0
7, 57207, Note_on_c, 1, 41, 106
7, 57220, Note_on_c, 1, 45, 0
7, 57237, Note_on_c, 1, 38, 110
7, 57239, Note_on_c, 1, 38, 0
7, 57240, Note_on_c, 1, 26, 100
7, 57247, Note_on_c, 1, 41, 0
7, 57299, Note_on_c, 1, 26, 0
7, 57300, Note_on_c, 1, 38, 103
7, 57337, Note_on_c, 1, 38, 0
7, 57359, Note_on_c, 1, 38, 0
7, 57360, Note_on_c, 1, 28, 100
7, 57365, Note_on_c, 1, 52, 115
7, 57419, Note_on_c, 1, 28, 0
7, 57420, Note_on_c, 1, 40, 103
7, 57420, Note_on_c, 1, 47, 110
7, 57430, Note_on_c, 1, 52, 0
7, 57452, Note_on_c, 1, 44, 115
7, 57465, Note_on_c, 1, 47, 0
7, 57477, Note_on_c, 1, 40, 106
7, 57479, Note_on_c, 1, 40, 0
7, 57480, Note_on_c, 1, 28, 103
7, 57485, Note_on_c, 1, 44, 0
7, 57539, Note_on_c, 1, 28, 0
7, 57540, Note_on_c, 1, 40, 108
7, 57565, Note_on_c, 1, 40, 0
7, 57599, Note_on_c, 1, 40, 0
7, 57600, Note_on_c, 1, 33, 100
7, 57660, Note_on_c, 1, 33, 0
7, 57660, Note_on_c, 1, 45, 100
7, 57720, Note_on_c, 1, 45, 0
7, 57720, Note_on_c, 1, 33, 100
7, 57780, Note_on_c, 1, 33, 0
7, 57780, Note_on_c, 1, 45, 100
7, 57840, Note_on_c, 1, 45, 0
7, 57840, Note_on_c, 1, 33, 100
7, 57900, Note_on_c, 1, 33, 0
7, 57900, Note_on_c, 1, 45, 100
7, 57960, Note_on_c, 1, 45, 0
7, 57960, Note_on_c, 1, 33, 100
7, 58020, Note_on_c, 1, 33, 0
7, 58020, Note_on_c, 1, 45, 100
7, 58080, Note_on_c, 1, 45, 0
7, 58080, Note_on_c, 1, 36, 97
7, 58139, Note_on_c, 1, 36, 0
7, 58140, Note_on_c, 1, 48, 101
7, 58199, Note_on_c, 1, 48, 0
7, 58200, Note_on_c, 1, 36, 98
7, 58259, Note_on_c, 1, 36, 0
7, 58260, Note_on_c, 1, 48, 105
7, 58319, Note_on_c, 1, 48, 0
7, 58320, Note_on_c, 1, 36, 100
7, 58379, Note_on_c, 1, 36, 0
7, 58380, Note_on_c, 1, 48, 103
7, 58439, Note_on_c, 1, 48, 0
7, 58440, Note_on_c, 1, 36, 98
7, 58499, Note_on_c, 1, 36, 0
7, 58500, Note_on_c, 1, 48, 103
7, 58559, Note_on_c, 1, 48, 0
7, 58560, Note_on_c, 1, 29, 101
7, 58619, Note_on_c, 1, 29, 0
7, 58620, Note_on_c, 1, 41, 100
7, 58679, Note_on_c, 1, 41, 0
7, 58680, Note_on_c, 1, 29, 101
7, 58739, Note_on_c, 1, 29, 0
7, 58740, Note_on_c, 1, 41, 103
7, 58799, Note_on_c, 1, 41, 0
7, 58800, Note_on_c, 1, 29, 101
7, 58859, Note_on_c, 1, 29, 0
7, 58860, Note_on_c, 1, 41, 100
7, 58919, Note_on_c, 1, 41, 0
7, 58920, Note_on_c, 1, 29, 98
7, 58979, Note_on_c, 1, 29, 0
7, 58980, Note_on_c, 1, 41, 101
7, 59039, Note_on_c, 1, 41, 0
7, 59040, Note_on_c, 1, 50, 103
7, 59040, Note_on_c, 1, 26, 105
7, 59099, Note_on_c, 1, 26, 0
7, 59100, Note_on_c, 1, 38, 102
7, 59105, Note_on_c, 1, 45, 103
7, 59112, Note_on_c, 1, 50, 0
7, 59132, Note_on_c, 1, 41, 98
7, 59142, Note_on_c, 1, 45, 0
7, 59159, Note_on_c, 1, 38, 0
7, 59160, Note_on_c, 1, 26, 100
7, 59160, Note_on_c, 1, 38, 101
7, 59167, Note_on_c, 1, 41, 0
7, 59219, Note_on_c, 1, 26, 0
7, 59220, Note_on_c, 1, 38, 103
7, 59262, Note_on_c, 1, 38, 0
7, 59279, Note_on_c, 1, 38, 0
7, 59280, Note_on_c, 1, 28, 100
7, 59285, Note_on_c, 1, 52, 117
7, 59339, Note_on_c, 1, 28, 0
7, 59340, Note_on_c, 1, 40, 103
7, 59342, Note_on_c, 1, 47, 113
7, 59347, Note_on_c, 1, 52, 0
7, 59370, Note_on_c, 1, 44, 115
7, 59382, Note_on_c, 1, 47, 0
7, 59395, Note_on_c, 1, 40, 105
7, 59399, Note_on_c, 1, 40, 0
7, 59400, Note_on_c, 1, 28, 103
7, 59405, Note_on_c, 1, 44, 0
7, 59447, Note_on_c, 1, 40, 0
7, 59459, Note_on_c, 1, 28, 0
7, 59460, Note_on_c, 1, 40, 108
7, 59519, Note_on_c, 1, 40, 0
7, 59520, Note_on_c, 1, 33, 100
7, 59580, Note_on_c, 1, 33, 0
7, 59580, Note_on_c, 1, 45, 100
7, 59640, Note_on_c, 1, 45, 0
7, 59640, Note_on_c, 1, 33, 100
7, 59700, Note_on_c, 1, 33, 0
7, 59700, Note_on_c, 1, 45, 100
7, 59760, Note_on_c, 1, 45, 0
7, 59760, Note_on_c, 1, 33, 100
7, 59820, Note_on_c, 1, 33, 0
7, 59820, Note_on_c, 1, 45, 100
7, 59880, Note_on_c, 1, 45, 0
7, 59880, Note_on_c, 1, 33, 100
7, 59940, Note_on_c, 1, 33, 0
7, 59940, Note_on_c, 1, 45, 100
7, 60000, Note_on_c, 1, 45, 0
7, 60000, Note_on_c, 1, 36, 97
7, 60059, Note_on_c, 1, 36, 0
7, 60060, Note_on_c, 1, 48, 101
7, 60119, Note_on_c, 1, 48, 0
7, 60120, Note_on_c, 1, 36, 98
7, 60179, Note_on_c, 1, 36, 0
7, 60180, Note_on_c, 1, 48, 105
7, 60239, Note_on_c, 1, 48, 0
7, 60240, Note_on_c, 1, 36, 100
7, 60299, Note_on_c, 1, 36, 0
7, 60300, Note_on_c, 1, 48, 103
7, 60359, Note_on_c, 1, 48, 0
7, 60360, Note_on_c, 1, 36, 98
7, 60419, Note_on_c, 1, 36, 0
7, 60420, Note_on_c, 1, 48, 103
7, 60479, Note_on_c, 1, 48, 0
7, 60480, Note_on_c, 1, 29, 101
7, 60539, Note_on_c, 1, 29, 0
7, 60540, Note_on_c, 1, 41, 100
7, 60599, Note_on_c, 1, 41, 0
7, 60600, Note_on_c, 1, 29, 101
7, 60659, Note_on_c, 1, 29, 0
7, 60660, Note_on_c, 1, 41, 103
7, 60719, Note_on_c, 1, 41, 0
7, 60720, Note_on_c, 1, 29, 101
7, 60779, Note_on_c, 1, 29, 0
7, 60780, Note_on_c, 1, 41, 100
7, 60839, Note_on_c, 1, 41, 0
7, 60840, Note_on_c, 1, 29, 98
7, 60899, Note_on_c, 1, 29, 0
7, 60900, Note_on_c, 1, 41, 101
7, 60959, Note_on_c, 1, 41, 0
7, 60960, Note_on_c, 1, 26, 105
7, 61019, Note_on_c, 1, 26, 0
7, 61020, Note_on_c, 1, 38, 102
7, 61079, Note_on_c, 1, 38, 0
7, 61080, Note_on_c, 1, 26, 100
7, 61139, Note_on_c, 1, 26, 0
7, 61140, Note_on_c, 1, 38, 103
7, 61199, Note_on_c, 1, 38, 0
7, 61200, Note_on_c, 1, 28, 100
7, 61259, Note_on_c, 1, 28, 0
7, 61260, Note_on_c, 1, 40, 103
7, 61319, Note_on_c, 1, 40, 0
7, 61320, Note_on_c, 1, 28, 103
7, 61379, Note_on_c, 1, 28, 0
7, 61380, Note_on_c, 1, 40, 108
7, 61439, Note_on_c, 1, 40, 0
7, 61440, Note_on_c, 1, 33, 100
7, 61500, Note_on_c, 1, 33, 0
7, 61500, Note_on_c, 1, 45, 100
7, 61560, Note_on_c, 1, 45, 0
7, 61560, Note_on_c, 1, 33, 100
7, 61620, Note_on_c, 1, 33, 0
7, 61620, Note_on_c, 1, 45, 100
7, 61680, Note_on_c, 1, 45, 0
7, 61680, Note_on_c, 1, 33, 100
7, 61740, Note_on_c, 1, 33, 0
7, 61740, Note_on_c, 1, 45, 100
7, 61800, Note_on_c, 1, 45, 0
7, 61800, Note_on_c, 1, 33, 100
7, 61860, Note_on_c, 1, 33, 0
7, 61860, Note_on_c, 1, 45, 100
7, 61920, Note_on_c, 1, 45, 0
7, 61920, Note_on_c, 1, 36, 97
7, 61979, Note_on_c, 1, 36, 0
7, 61980, Note_on_c, 1, 48, 101
7, 62039, Note_on_c, 1, 48, 0
7, 62040, Note_on_c, 1, 36, 98
7, 62099, Note_on_c, 1, 36, 0
7, 62100, Note_on_c, 1, 48, 105
7, 62159, Note_on_c, 1, 48, 0
7, 62160, Note_on_c, 1, 36, 100
7, 62219, Note_on_c, 1, 36, 0
7, 62220, Note_on_c, 1, 48, 103
7, 62279, Note_on_c, 1, 48, 0
7, 62280, Note_on_c, 1, 36, 98
7, 62339, Note_on_c, 1, 36, 0
7, 62340, Note_on_c, 1, 48, 103
7, 62399, Note_on_c, 1, 48, 0
7, 62400, Note_on_c, 1, 29, 101
7, 62459, Note_on_c, 1, 29, 0
7, 62460, Note_on_c, 1, 41, 100
7, 62519, Note_on_c, 1, 41, 0
7, 62520, Note_on_c, 1, 29, 101
7, 62579, Note_on_c, 1, 29, 0
7, 62580, Note_on_c, 1, 41, 103
7, 62639, Note_on_c, 1, 41, 0
7, 62640, Note_on_c, 1, 29, 101
7, 62699, Note_on_c, 1, 29, 0
7, 62700, Note_on_c, 1, 41, 100
7, 62759, Note_on_c, 1, 41, 0
7, 62760, Note_on_c, 1, 29, 98
7, 62819, Note_on_c, 1, 29, 0
7, 62820, Note_on_c, 1, 41, 101
7, 62879, Note_on_c, 1, 41, 0
7, 62880, Note_on_c, 1, 26, 105
7, 62939, Note_on_c, 1, 26, 0
7, 62940, Note_on_c, 1, 38, 102
7, 62999, Note_on_c, 1, 38, 0
7, 63000, Note_on_c, 1, 26, 100
7, 63059, Note_on_c, 1, 26, 0
7, 63060, Note_on_c, 1, 38, 103
7, 63119, Note_on_c, 1, 38, 0
7, 63120, Note_on_c, 1, 28, 100
7, 63179, Note_on_c, 1, 28, 0
7, 63180, Note_on_c, 1, 40, 103
7, 63239, Note_on_c, 1, 40, 0
7, 63240, Note_on_c, 1, 28, 103
7, 63299, Note_on_c, 1, 28, 0
7, 63300, Note_on_c, 1, 40, 108
7, 63359, Note_on_c, 1, 40, 0
7, 63360, Note_on_c, 1, 33, 100
7, 63420, Note_on_c, 1, 33, 0
7, 63420, Note_on_c, 1, 45, 100
7, 63480, Note_on_c, 1, 45, 0
7, 63480, Note_on_c, 1, 33, 100
7, 63540, Note_on_c, 1, 33, 0
7, 63540, Note_on_c, 1, 45, 100
7, 63600, Note_on_c, 1, 45, 0
7, 63600, Note_on_c, 1, 33, 100
7, 63660, Note_on_c, 1, 33, 0
7, 63660, Note_on_c, 1, 45, 100
7, 63720, Note_on_c, 1, 45, 0
7, 63720, Note_on_c, 1, 33, 100
7, 63780, Note_on_c, 1, 33, 0
7, 63780, Note_on_c, 1, 45, 100
7, 63840, Note_on_c, 1, 45, 0
7, 63840, Note_on_c, 1, 36, 97
7, 63899, Note_on_c, 1, 36, 0
7, 63900, Note_on_c, 1, 48, 101
7, 63959, Note_on_c, 1, 48, 0
7, 63960, Note_on_c, 1, 36, 98
7, 64019, Note_on_c, 1, 36, 0
7, 64020, Note_on_c, 1, 48, 105
7, 64079, Note_on_c, 1, 48, 0
7, 64080, Note_on_c, 1, 36, 100
7, 64139, Note_on_c, 1, 36, 0
7, 64140, Note_on_c, 1, 48, 103
7, 64199, Note_on_c, 1, 48, 0
7, 64200, Note_on_c, 1, 36, 98
7, 64259, Note_on_c, 1, 36, 0
7, 64260, Note_on_c, 1, 48, 103
7, 64319, Note_on_c, 1, 48, 0
7, 64320, Note_on_c, 1, 29, 101
7, 64379, Note_on_c, 1, 29, 0
7, 64380, Note_on_c, 1, 41, 100
7, 64439, Note_on_c, 1, 41, 0
7, 64440, Note_on_c, 1, 29, 101
7, 64499, Note_on_c, 1, 29, 0
7, 64500, Note_on_c, 1, 41, 103
7, 64559, Note_on_c, 1, 41, 0
7, 64560, Note_on_c, 1, 29, 101
7, 64619, Note_on_c, 1, 29, 0
7, 64620, Note_on_c, 1, 41, 100
7, 64679, Note_on_c, 1, 41, 0
7, 64680, Note_on_c, 1, 29, 98
7, 64739, Note_on_c, 1, 29, 0
7, 64740, Note_on_c, 1, 41, 101
7, 64797, Note_on_c, 1, 50, 108
7, 64799, Note_on_c, 1, 41, 0
7, 64800, Note_on_c, 1, 26, 105
7, 64855, Note_on_c, 1, 45, 103
7, 64859, Note_on_c, 1, 26, 0
7, 64860, Note_on_c, 1, 38, 102
7, 64867, Note_on_c, 1, 50, 0
7, 64887, Note_on_c, 1, 41, 106
7, 64900, Note_on_c, 1, 45, 0
7, 64917, Note_on_c, 1, 38, 110
7, 64919, Note_on_c, 1, 38, 0
7, 64920, Note_on_c, 1, 26, 100
7, 64927, Note_on_c, 1, 41, 0
7, 64979, Note_on_c, 1, 26, 0
7, 64980, Note_on_c, 1, 38, 103
7, 65017, Note_on_c, 1, 38, 0
7, 65039, Note_on_c, 1, 38, 0
7, 65040, Note_on_c, 1, 28, 100
7, 65045, Note_on_c, 1, 52, 115
7, 65099, Note_on_c, 1, 28, 0
7, 65100, Note_on_c, 1, 40, 103
7, 65100, Note_on_c, 1, 47, 110
7, 65110, Note_on_c, 1, 52, 0
7, 65132, Note_on_c, 1, 44, 115
7, 65145, Note_on_c, 1, 47, 0
7, 65157, Note_on_c, 1, 40, 106
7, 65159, Note_on_c, 1, 40, 0
7, 65160, Note_on_c, 1, 28, 103
7, 65165, Note_on_c, 1, 44, 0
7, 65219, Note_on_c, 1, 28, 0
7, 65220, Note_on_c, 1, 40, 108
7, 65245, Note_on_c, 1, 40, 0
7, 65279, Note_on_c, 1, 40, 0
7, 65280, Note_on_c, 1, 33, 100
7, 65340, Note_on_c, 1, 33, 0
7, 65340, Note_on_c, 1, 45, 100
7, 65400, Note_on_c, 1, 45, 0
7, 65400, Note_on_c, 1, 33, 100
7, 65460, Note_on_c, 1, 33, 0
7, 65460, Note_on_c, 1, 45, 100
7, 65520, Note_on_c, 1, 45, 0
7, 65520, Note_on_c, 1, 33, 100
7, 65580, Note_on_c, 1, 33, 0
7, 65580, Note_on_c, 1, 45, 100
7, 65640, Note_on_c, 1, 45, 0
7, 65640, Note_on_c, 1, 33, 100
7, 65700, Note_on_c, 1, 33, 0
7, 65700, Note_on_c, 1, 45, 100
7, 65760, Note_on_c, 1, 45, 0
7, 65760, Note_on_c, 1, 36, 97
7, 65819, Note_on_c, 1, 36, 0
7, 65820, Note_on_c, 1, 48, 101
7, 65879, Note_on_c, 1, 48, 0
7, 65880, Note_on_c, 1, 36, 98
7, 65939, Note_on_c, 1, 36, 0
7, 65940, Note_on_c, 1, 48, 105
7, 65999, Note_on_c, 1, 48, 0
7, 66000, Note_on_c, 1, 36, 100
7, 66059, Note_on_c, 1, 36, 0
7, 66060, Note_on_c, 1, 48, 103
7, 66119, Note_on_c, 1, 48, 0
7, 66120, Note_on_c, 1, 36, 98
7, 66179, Note_on_c, 1, 36, 0
7, 66180, Note_on_c, 1, 48, 103
7, 66239, Note_on_c, 1, 48, 0
7, 66240, Note_on_c, 1, 29, 101
7, 66299, Note_on_c, 1, 29, 0
7, 66300, Note_on_c, 1, 41, 100
7, 66359, Note_on_c, 1, 41, 0
7, 66360, Note_on_c, 1, 29, 101
7, 66419, Note_on_c, 1, 29, 0
7, 66420, Note_on_c, 1, 41, 103
7, 66479, Note_on_c, 1, 41, 0
7, 66480, Note_on_c, 1, 29, 101
7, 66539, Note_on_c, 1, 29, 0
7, 66540, Note_on_c, 1, 41, 100
7, 66599, Note_on_c, 1, 41, 0
7, 66600, Note_on_c, 1, 29, 98
7, 66659, Note_on_c, 1, 29, 0
7, 66660, Note_on_c, 1, 41, 101
7, 66719, Note_on_c, 1, 41, 0
7, 66720, Note_on_c, 1, 50, 103
7, 66720, Note_on_c, 1, 26, 105
7, 66779, Note_on_c, 1, 26, 0
7, 66780, Note_on_c, 1, 38, 102
7, 66785, Note_on_c, 1, 45, 103
7, 66792, Note_on_c, 1, 50, 0
7, 66812, Note_on_c, 1, 41, 98
7, 66822, Note_on_c, 1, 45, 0
7, 66839, Note_on_c, 1, 38, 0
7, 66840, Note_on_c, 1, 26, 100
7, 66840, Note_on_c, 1, 38, 101
7, 66847, Note_on_c, 1, 41, 0
7, 66899, Note_on_c, 1, 26, 0
7, 66900, Note_on_c, 1, 38, 103
7, 66942, Note_on_c, 1, 38, 0
7, 66959, Note_on_c, 1, 38, 0
7, 66960, Note_on_c, 1, 28, 100
7, 66965, Note_on_c, 1, 52, 117
7, 67019, Note_on_c, 1, 28, 0
7, 67020, Note_on_c, 1, 40, 103
7, 67022, Note_on_c, 1, 47, 113
7, 67027, Note_on_c, 1, 52, 0
7, 67050, Note_on_c, 1, 44, 115
7, 67062, Note_on_c, 1, 47, 0
7, 67075, Note_on_c, 1, 40, 105
7, 67079, Note_on_c, 1, 40, 0
7, 67080, Note_on_c, 1, 28, 103
7, 67085, Note_on_c, 1, 44, 0
7, 67127, Note_on_c, 1, 40, 0
7, 67139, Note_on_c, 1, 28, 0
7, 67140, Note_on_c, 1, 40, 108
7, 67199, Note_on_c, 1, 40, 0
7, 69120, Note_on_c, 1, 33, 100
7, 69180, Note_on_c, 1, 33, 0
7, 69180, Note_on_c, 1, 45, 100
7, 69240, Note_on_c, 1, 45, 0
7, 69240, Note_on_c, 1, 33, 100
7, 69300, Note_on_c, 1, 33, 0
7, 69300, Note_on_c, 1, 45, 100
7, 69360, Note_on_c, 1, 45, 0
7, 69360, Note_on_c, 1, 33, 100
7, 69420, Note_on_c, 1, 33, 0
7, 69420, Note_on_c, 1, 45, 100
7, 69480, Note_on_c, 1, 45, 0
7, 69480, Note_on_c, 1, 33, 100
7, 69540, Note_on_c, 1, 33, 0
7, 69540, Note_on_c, 1, 45, 100
7, 69600, Note_on_c, 1, 45, 0
7, 69600, Note_on_c, 1, 36, 97
7, 69659, Note_on_c, 1, 36, 0
7, 69660, Note_on_c, 1, 48, 101
7, 69719, Note_on_c, 1, 48, 0
7, 69720, Note_on_c, 1, 36, 98
7, 69779, Note_on_c, 1, 36, 0
7, 69780, Note_on_c, 1, 48, 105
7, 69839, Note_on_c, 1, 48, 0
7, 69840, Note_on_c, 1, 36, 100
7, 69899, Note_on_c, 1, 36, 0
7, 69900, Note_on_c, 1, 48, 103
7, 69959, Note_on_c, 1, 48, 0
7, 69960, Note_on_c, 1, 36, 98
7, 70019, Note_on_c, 1, 36, 0
7, 70020, Note_on_c, 1, 48, 103
7, 70079, Note_on_c, 1, 48, 0
7, 70080, Note_on_c, 1, 29, 101
7, 70139, Note_on_c, 1, 29, 0
7, 70140, Note_on_c, 1, 41, 100
7, 70199, Note_on_c, 1, 41, 0
7, 70200, Note_on_c, 1, 29, 101
7, 70259, Note_on_c, 1, 29, 0
7, 70260, Note_on_c, 1, 41, 103
7, 70319, Note_on_c, 1, 41, 0
7, 70320, Note_on_c, 1, 29, 101
7, 70379, Note_on_c, 1, 29, 0
7, 70380, Note_on_c, 1, 41, 100
7, 70439, Note_on_c, 1, 41, 0
7, 70440, Note_on_c, 1, 29, 98
7, 70499, Note_on_c, 1, 29, 0
7, 70500, Note_on_c, 1, 41, 101
7, 70559, Note_on_c, 1, 41, 0
7, 70560, Note_on_c, 1, 26, 105
7, 70619, Note_on_c, 1, 26, 0
7, 70620, Note_on_c, 1, 38, 102
7, 70679, Note_on_c, 1, 38, 0
7, 70680, Note_on_c, 1, 26, 100
7, 70739, Note_on_c, 1, 26, 0
7, 70740, Note_on_c, 1, 38, 103
7, 70799, Note_on_c, 1, 38, 0
7, 70800, Note_on_c, 1, 28, 100
7, 70859, Note_on_c, 1, 28, 0
7, 70860, Note_on_c, 1, 40, 103
7, 70919, Note_on_c, 1, 40, 0
7, 70920, Note_on_c, 1, 28, 103
7, 70979, Note_on_c, 1, 28, 0
7, 70980, Note_on_c, 1, 40, 108
7, 71039, Note_on_c, 1, 40, 0
7, 71040, Note_on_c, 1, 33, 100
7, 71100, Note_on_c, 1, 33, 0
7, 71100, Note_on_c, 1, 45, 100
7, 71160, Note_on_c, 1, 45, 0
7, 71160, Note_on_c, 1, 33, 100
7, 71220, Note_on_c, 1, 33, 0
7, 71220, Note_on_c, 1, 45, 100
7, 71280, Note_on_c, 1, 45, 0
7, 71280, Note_on_c, 1, 33, 100
7, 71340, Note_on_c, 1, 33, 0
7, 71340, Note_on_c, 1, 45, 100
7, 71400, Note_on_c, 1, 45, 0
7, 71400, Note_on_c, 1, 33, 100
7, 71460, Note_on_c, 1, 33, 0
7, 71460, Note_on_c, 1, 45, 100
7, 71520, Note_on_c, 1, 45, 0
7, 71520, Note_on_c, 1, 36, 97
7, 71579, Note_on_c, 1, 36, 0
7, 71580, Note_on_c, 1, 48, 101
7, 71639, Note_on_c, 1, 48, 0
7, 71640, Note_on_c, 1, 36, 98
7, 71699, Note_on_c, 1, 36, 0
7, 71700, Note_on_c, 1, 48, 105
7, 71759, Note_on_c, 1, 48, 0
7, 71760, Note_on_c, 1, 36, 100
7, 71819, Note_on_c, 1, 36, 0
7, 71820, Note_on_c, 1, 48, 103
7, 71879, Note_on_c, 1, 48, 0
7, 71880, Note_on_c, 1, 36, 98
7, 71939, Note_on_c, 1, 36, 0
7, 71940, Note_on_c, 1, 48, 103
7, 71999, Note_on_c, 1, 48, 0
7, 72000, Note_on_c, 1, 29, 101
7, 72059, Note_on_c, 1, 29, 0
7, 72060, Note_on_c, 1, 41, 100
7, 72119, Note_on_c, 1, 41, 0
7, 72120, Note_on_c, 1, 29, 101
7, 72179, Note_on_c, 1, 29, 0
7, 72180, Note_on_c, 1, 41, 103
7, 72239, Note_on_c, 1, 41, 0
7, 72240, Note_on_c, 1, 29, 101
7, 72299, Note_on_c, 1, 29, 0
7, 72300, Note_on_c, 1, 41, 100
7, 72359, Note_on_c, 1, 41, 0
7, 72360, Note_on_c, 1, 29, 98
7, 72419, Note_on_c, 1, 29, 0
7, 72420, Note_on_c, 1, 41, 101
7, 72479, Note_on_c, 1, 41, 0
7, 72480, Note_on_c, 1, 26, 105
7, 72539, Note_on_c, 1, 26, 0
7, 72540, Note_on_c, 1, 38, 102
7, 72599, Note_on_c, 1, 38, 0
7, 72600, Note_on_c, 1, 26, 100
7, 72659, Note_on_c, 1, 26, 0
7, 72660, Note_on_c, 1, 38, 103
7, 72719, Note_on_c, 1, 38, 0
7, 72720, Note_on_c, 1, 28, 100
7, 72779, Note_on_c, 1, 28, 0
7, 72780, Note_on_c, 1, 40, 103
7, 72839, Note_on_c, 1, 40, 0
7, 72840, Note_on_c, 1, 28, 103
7, 72899, Note_on_c, 1, 28, 0
7, 72900, Note_on_c, 1, 40, 108
7, 72959, Note_on_c, 1, 40, 0
7, 72960, Note_on_c, 1, 33, 100
7, 73020, Note_on_c, 1, 33, 0
7, 73020, Note_on_c, 1, 45, 100
7, 73080, Note_on_c, 1, 45, 0
7, 73080, Note_on_c, 1, 33, 100
7, 73140, Note_on_c, 1, 33, 0
7, 73140, Note_on_c, 1, 45, 100
7, 73200, Note_on_c, 1, 45, 0
7, 73200, Note_on_c, 1, 33, 100
7, 73260, Note_on_c, 1, 33, 0
7, 73260, Note_on_c, 1, 45, 100
7, 73320, Note_on_c, 1, 45, 0
7, 73320, Note_on_c, 1, 33, 100
7, 73380, Note_on_c, 1, 33, 0
7, 73380, Note_on_c, 1, 45, 100
7, 73440, Note_on_c, 1, 45, 0
7, 73440, Note_on_c, 1, 36, 97
7, 73499, Note_on_c, 1, 36, 0
7, 73500, Note_on_c, 1, 48, 101
7, 73559, Note_on_c, 1, 48, 0
7, 73560, Note_on_c, 1, 36, 98
7, 73619, Note_on_c, 1, 36, 0
7, 73620, Note_on_c, 1, 48, 105
7, 73679, Note_on_c, 1, 48, 0
7, 73680, Note_on_c, 1, 36, 100
7, 73739, Note_on_c, 1, 36, 0
7, 73740, Note_on_c, 1, 48, 103
7, 73799, Note_on_c, 1, 48, 0
7, 73800, Note_on_c, 1, 36, 98
7, 73859, Note_on_c, 1, 36, 0
7, 73860, Note_on_c, 1, 48, 103
7, 73919, Note_on_c, 1, 48, 0
7, 73920, Note_on_c, 1, 29, 101
7, 73979, Note_on_c, 1, 29, 0
7, 73980, Note_on_c, 1, 41, 100
7, 74039, Note_on_c, 1, 41, 0
7, 74040, Note_on_c, 1, 29, 101
7, 74099, Note_on_c, 1, 29, 0
7, 74100, Note_on_c, 1, 41, 103
7, 74159, Note_on_c, 1, 41, 0
7, 74160, Note_on_c, 1, 29, 101
7, 74219, Note_on_c, 1, 29, 0
7, 74220, Note_on_c, 1, 41, 100
7, 74279, Note_on_c, 1, 41, 0
7, 74280, Note_on_c, 1, 29, 98
7, 74339, Note_on_c, 1, 29, 0
7, 74340, Note_on_c, 1, 41, 101
7, 74399, Note_on_c, 1, 41, 0
7, 74400, Note_on_c, 1, 26, 105
7, 74459, Note_on_c, 1, 26, 0
7, 74460, Note_on_c, 1, 38, 102
7, 74519, Note_on_c, 1, 38, 0
7, 74520, Note_on_c, 1, 26, 100
7, 74579, Note_on_c, 1, 26, 0
7, 74580, Note_on_c, 1, 38, 103
7, 74639, Note_on_c, 1, 38, 0
7, 74640, Note_on_c, 1, 28, 100
7, 74699, Note_on_c, 1, 28, 0
7, 74700, Note_on_c, 1, 40, 103
7, 74759, Note_on_c, 1, 40, 0
7, 74760, Note_on_c, 1, 28, 103
7, 74819, Note_on_c, 1, 28, 0
7, 74820, Note_on_c, 1, 40, 108
7, 74879, Note_on_c, 1, 40, 0
7, 74880, Note_on_c, 1, 33, 100
7, 74940, Note_on_c, 1, 33, 0
7, 74940, Note_on_c, 1, 45, 100
7, 75000, Note_on_c, 1, 45, 0
7, 75000, Note_on_c, 1, 33, 100
7, 75060, Note_on_c, 1, 33, 0
7, 75060, Note_on_c, 1, 45, 100
7, 75120, Note_on_c, 1, 45, 0
7, 75120, Note_on_c, 1, 33, 100
7, 75180, Note_on_c, 1, 33, 0
7, 75180, Note_on_c, 1, 45, 100
7, 75240, Note_on_c, 1, 45, 0
7, 75240, Note_on_c, 1, 33, 100
7, 75300, Note_on_c, 1, 33, 0
7, 75300, Note_on_c, 1, 45, 100
7, 75360, Note_on_c, 1, 45, 0
7, 75360, Note_on_c, 1, 33, 100
7, 75420, Note_on_c, 1, 33, 0
7, 75420, Note_on_c, 1, 45, 100
7, 75480, Note_on_c, 1, 45, 0
7, 75480, Note_on_c, 1, 33, 100
7, 75540, Note_on_c, 1, 33, 0
7, 75540, Note_on_c, 1, 45, 100
7, 75600, Note_on_c, 1, 45, 0
7, 75600, Note_on_c, 1, 33, 100
7, 75660, Note_on_c, 1, 33, 0
7, 75660, Note_on_c, 1, 45, 100
7, 75720, Note_on_c, 1, 45, 0
7, 75720, Note_on_c, 1, 33, 100
7, 75780, Note_on_c, 1, 33, 0
7, 75780, Note_on_c, 1, 45, 100
7, 75840, Note_on_c, 1, 45, 0
7, 75840, Note_on_c, 1, 36, 97
7, 75899, Note_on_c, 1, 36, 0
7, 75900, Note_on_c, 1, 48, 101
7, 75959, Note_on_c, 1, 48, 0
7, 75960, Note_on_c, 1, 36, 98
7, 76019, Note_on_c, 1, 36, 0
7, 76020, Note_on_c, 1, 48, 105
7, 76079, Note_on_c, 1, 48, 0
7, 76080, Note_on_c, 1, 36, 100
7, 76139, Note_on_c, 1, 36, 0
7, 76140, Note_on_c, 1, 48, 103
7, 76199, Note_on_c, 1, 48, 0
7, 76200, Note_on_c, 1, 36, 98
7, 76259, Note_on_c, 1, 36, 0
7, 76260, Note_on_c, 1, 48, 103
7, 76319, Note_on_c, 1, 48, 0
7, 76320, Note_on_c, 1, 29, 101
7, 76379, Note_on_c, 1, 29, 0
7, 76380, Note_on_c, 1, 41, 100
7, 76439, Note_on_c, 1, 41, 0
7, 76440, Note_on_c, 1, 29, 101
7, 76499, Note_on_c, 1, 29, 0
7, 76500, Note_on_c, 1, 41, 103
7, 76559, Note_on_c, 1, 41, 0
7, 76560, Note_on_c, 1, 29, 101
7, 76619, Note_on_c, 1, 29, 0
7, 76620, Note_on_c, 1, 41, 100
7, 76679, Note_on_c, 1, 41, 0
7, 76680, Note_on_c, 1, 29, 98
7, 76739, Note_on_c, 1, 29, 0
7, 76740, Note_on_c, 1, 41, 101
7, 76799, Note_on_c, 1, 41, 0
7, 76800, Note_on_c, 1, 26, 105
7, 76859, Note_on_c, 1, 26, 0
7, 76860, Note_on_c, 1, 38, 102
7, 76919, Note_on_c, 1, 38, 0
7, 76920, Note_on_c, 1, 26, 100
7, 76979, Note_on_c, 1, 26, 0
7, 76980, Note_on_c, 1, 38, 103
7, 77039, Note_on_c, 1, 38, 0
7, 77040, Note_on_c, 1, 28, 100
7, 77099, Note_on_c, 1, 28, 0
7, 77100, Note_on_c, 1, 40, 103
7, 77159, Note_on_c, 1, 40, 0
7, 77160, Note_on_c, 1, 28, 103
7, 77219, Note_on_c, 1, 28, 0
7, 77220, Note_on_c, 1, 40, 108
7, 77279, Note_on_c, 1, 40, 0
7, 83040, Note_on_c, 1, 33, 100
7, 83100, Note_on_c, 1, 33, 0
7, 83100, Note_on_c, 1, 45, 100
7, 83160, Note_on_c, 1, 45, 0
7, 83160, Note_on_c, 1, 33, 100
7, 83220, Note_on_c, 1, 33, 0
7, 83220, Note_on_c, 1, 45, 100
7, 83280, Note_on_c, 1, 45, 0
7, 83280, Note_on_c, 1, 33, 100
7, 83340, Note_on_c, 1, 33, 0
7, 83340, Note_on_c, 1, 45, 100
7, 83400, Note_on_c, 1, 45, 0
7, 83400, Note_on_c, 1, 33, 100
7, 83460, Note_on_c, 1, 33, 0
7, 83460, Note_on_c, 1, 45, 100
7, 83520, Note_on_c, 1, 45, 0
7, 83520, Note_on_c, 1, 33, 100
7, 83580, Note_on_c, 1, 33, 0
7, 83580, Note_on_c, 1, 45, 100
7, 83640, Note_on_c, 1, 45, 0
7, 83640, Note_on_c, 1, 33, 100
7, 83700, Note_on_c, 1, 33, 0
7, 83700, Note_on_c, 1, 45, 100
7, 83760, Note_on_c, 1, 45, 0
7, 83760, Note_on_c, 1, 33, 100
7, 83820, Note_on_c, 1, 33, 0
7, 83820, Note_on_c, 1, 45, 100
7, 83880, Note_on_c, 1, 45, 0
7, 83880, Note_on_c, 1, 33, 100
7, 83940, Note_on_c, 1, 33, 0
7, 83940, Note_on_c, 1, 45, 100
7, 84000, Note_on_c, 1, 45, 0
7, 84000, Note_on_c, 1, 31, 101
7, 84059, Note_on_c, 1, 31, 0
7, 84060, Note_on_c, 1, 43, 100
7, 84119, Note_on_c, 1, 43, 0
7, 84120, Note_on_c, 1, 31, 101
7, 84179, Note_on_c, 1, 31, 0
7, 84180, Note_on_c, 1, 43, 103
7, 84239, Note_on_c, 1, 43, 0
7, 84240, Note_on_c, 1, 29, 101
7, 84299, Note_on_c, 1, 29, 0
7, 84300, Note_on_c, 1, 41, 100
7, 84359, Note_on_c, 1, 41, 0
7, 84360, Note_on_c, 1, 29, 98
7, 84419, Note_on_c, 1, 29, 0
7, 84420, Note_on_c, 1, 41, 101
7, 84479, Note_on_c, 1, 41, 0
7, 84480, Note_on_c, 1, 33, 100
7, 84540, Note_on_c, 1, 33, 0
7, 84540, Note_on_c, 1, 45, 100
7, 84600, Note_on_c, 1, 45, 0
7, 84600, Note_on_c, 1, 33, 100
7, 84660, Note_on_c, 1, 33, 0
7, 84660, Note_on_c, 1, 45, 100
7, 84720, Note_on_c, 1, 45, 0
7, 84720, Note_on_c, 1, 33, 100
7, 84780, Note_on_c, 1, 33, 0
7, 84780, Note_on_c, 1, 45, 100
7, 84840, Note_on_c, 1, 45, 0
7, 84840, Note_on_c, 1, 33, 100
7, 84900, Note_on_c, 1, 33, 0
7, 84900, Note_on_c, 1, 45, 100
7, 84960, Note_on_c, 1, 45, 0
7, 84960, Note_on_c, 1, 33, 100
7, 85020, Note_on_c, 1, 33, 0
7, 85020, Note_on_c, 1, 45, 100
7, 85080, Note_on_c, 1, 45, 0
7, 85080, Note_on_c, 1, 33, 100
7, 85140, Note_on_c, 1, 33, 0
7, 85140, Note_on_c, 1, 45, 100
7, 85200, Note_on_c, 1, 45, 0
7, 85200, Note_on_c, 1, 33, 100
7, 85260, Note_on_c, 1, 33, 0
7, 85260, Note_on_c, 1, 45, 100
7, 85320, Note_on_c, 1, 45, 0
7, 85320, Note_on_c, 1, 33, 100
7, 85380, Note_on_c, 1, 33, 0
7, 85380, Note_on_c, 1, 45, 100
7, 85440, Note_on_c, 1, 45, 0
7, 85440, Note_on_c, 1, 33, 100
7, 85500, Note_on_c, 1, 33, 0
7, 85500, Note_on_c, 1, 45, 100
7, 85560, Note_on_c, 1, 45, 0
7, 85560, Note_on_c, 1, 33, 100
7, 85620, Note_on_c, 1, 33, 0
7, 85620, Note_on_c, 1, 45, 100
7, 85680, Note_on_c, 1, 45, 0
7, 85680, Note_on_c, 1, 33, 100
7, 85740, Note_on_c, 1, 33, 0
7, 85740, Note_on_c, 1, 45, 100
7, 85800, Note_on_c, 1, 45, 0
7, 85800, Note_on_c, 1, 33, 100
7, 85860, Note_on_c, 1, 33, 0
7, 85860, Note_on_c, 1, 45, 100
7, 85920, Note_on_c, 1, 45, 0
7, 85920, Note_on_c, 1, 31, 101
7, 85979, Note_on_c, 1, 31, 0
7, 85980, Note_on_c, 1, 43, 100
7, 86039, Note_on_c, 1, 43, 0
7, 86040, Note_on_c, 1, 31, 101
7, 86099, Note_on_c, 1, 31, 0
7, 86100, Note_on_c, 1, 43, 103
7, 86159, Note_on_c, 1, 43, 0
7, 86160, Note_on_c, 1, 29, 101
7, 86219, Note_on_c, 1, 29, 0
7, 86220, Note_on_c, 1, 41, 100
7, 86279, Note_on_c, 1, 41, 0
7, 86280, Note_on_c, 1, 29, 98
7, 86339, Note_on_c, 1, 29, 0
7, 86340, Note_on_c, 1, 41, 101
7, 86399, Note_on_c, 1, 41, 0
7, 86400, Note_on_c, 1, 33, 100
7, 86460, Note_on_c, 1, 33, 0
7, 86460, Note_on_c, 1, 45, 100
7, 86520, Note_on_c, 1, 45, 0
7, 86520, Note_on_c, 1, 33, 100
7, 86580, Note_on_c, 1, 33, 0
7, 86580, Note_on_c, 1, 45, 100
7, 86640, Note_on_c, 1, 45, 0
7, 86640, Note_on_c, 1, 33, 100
7, 86700, Note_on_c, 1, 33, 0
7, 86700, Note_on_c, 1, 45, 100
7, 86760, Note_on_c, 1, 45, 0
7, 86760, Note_on_c, 1, 33, 100
7, 86820, Note_on_c, 1, 33, 0
7, 86820, Note_on_c, 1, 45, 100
7, 86880, Note_on_c, 1, 45, 0
7, 86880, Note_on_c, 1, 33, 100
7, 86940, Note_on_c, 1, 33, 0
7, 86940, Note_on_c, 1, 45, 100
7, 87000, Note_on_c, 1, 45, 0
7, 87000, Note_on_c, 1, 33, 100
7, 87060, Note_on_c, 1, 33, 0
7, 87060, Note_on_c, 1, 45, 100
7, 87120, Note_on_c, 1, 45, 0
7, 87120, Note_on_c, 1, 33, 100
7, 87180, Note_on_c, 1, 33, 0
7, 87180, Note_on_c, 1, 45, 100
7, 87240, Note_on_c, 1, 45, 0
7, 87240, Note_on_c, 1, 33, 100
7, 87300, Note_on_c, 1, 33, 0
7, 87300, Note_on_c, 1, 45, 100
7, 87360, Note_on_c, 1, 45, 0
7, 87360, Note_on_c, 1, 36, 97
7, 87419, Note_on_c, 1, 36, 0
7, 87420, Note_on_c, 1, 48, 101
7, 87479, Note_on_c, 1, 48, 0
7, 87480, Note_on_c, 1, 36, 98
7, 87539, Note_on_c, 1, 36, 0
7, 87540, Note_on_c, 1, 48, 105
7, 87599, Note_on_c, 1, 48, 0
7, 87600, Note_on_c, 1, 36, 100
7, 87659, Note_on_c, 1, 36, 0
7, 87660, Note_on_c, 1, 48, 103
7, 87719, Note_on_c, 1, 48, 0
7, 87720, Note_on_c, 1, 36, 98
7, 87779, Note_on_c, 1, 36, 0
7, 87780, Note_on_c, 1, 48, 103
7, 87839, Note_on_c, 1, 48, 0
7, 87840, Note_on_c, 1, 29, 101
7, 87899, Note_on_c, 1, 29, 0
7, 87900, Note_on_c, 1, 41, 100
7, 87959, Note_on_c, 1, 41, 0
7, 87960, Note_on_c, 1, 29, 101
7, 88019, Note_on_c, 1, 29, 0
7, 88020, Note_on_c, 1, 41, 103
7, 88079, Note_on_c, 1, 41, 0
7, 88080, Note_on_c, 1, 29, 101
7, 88139, Note_on_c, 1, 29, 0
7, 88140, Note_on_c, 1, 41, 100
7, 88199, Note_on_c, 1, 41, 0
7, 88200, Note_on_c, 1, 29, 98
7, 88259, Note_on_c, 1, 29, 0
7, 88260, Note_on_c, 1, 41, 101
7, 88319, Note_on_c, 1, 41, 0
7, 88320, Note_on_c, 1, 26, 105
7, 88379, Note_on_c, 1, 26, 0
7, 88380, Note_on_c, 1, 38, 102
7, 88439, Note_on_c, 1, 38, 0
7, 88440, Note_on_c, 1, 26, 100
7, 88499, Note_on_c, 1, 26, 0
7, 88500, Note_on_c, 1, 38, 103
7, 88559, Note_on_c, 1, 38, 0
7, 88560, Note_on_c, 1, 28, 100
7, 88619, Note_on_c, 1, 28, 0
7, 88620, Note_on_c, 1, 40, 103
7, 88679, Note_on_c, 1, 40, 0
7, 88680, Note_on_c, 1, 28, 103
7, 88739, Note_on_c, 1, 28, 0
7, 88740, Note_on_c, 1, 40, 108
7, 88799, Note_on_c, 1, 40, 0
7, 88800, Note_on_c, 1, 33, 100
7, 88860, Note_on_c, 1, 33, 0
7, 88860, Note_on_c, 1, 45, 100
7, 88920, Note_on_c, 1, 45, 0
7, 88920, Note_on_c, 1, 33, 100
7, 88980, Note_on_c, 1, 33, 0
7, 88980, Note_on_c, 1, 45, 100
7, 89040, Note_on_c, 1, 45, 0
7, 89040, Note_on_c, 1, 33, 100
7, 89100, Note_on_c, 1, 33, 0
7, 89100, Note_on_c, 1, 45, 100
7, 89160, Note_on_c, 1, 45, 0
7, 89160, Note_on_c, 1, 33, 100
7, 89220, Note_on_c, 1, 33, 0
7, 89220, Note_on_c, 1, 45, 100
7, 89280, Note_on_c, 1, 45, 0
7, 89280, Note_on_c, 1, 33, 100
7, 89340, Note_on_c, 1, 33, 0
7, 89340, Note_on_c, 1, 45, 100
7, 89400, Note_on_c, 1, 45, 0
7, 89400, Note_on_c, 1, 33, 100
7, 89460, Note_on_c, 1, 33, 0
7, 89460, Note_on_c, 1, 45, 100
7, 89520, Note_on_c, 1, 45, 0
7, 89520, Note_on_c, 1, 33, 100
7, 89580, Note_on_c, 1, 33, 0
7, 89580, Note_on_c, 1, 45, 100
7, 89640, Note_on_c, 1, 45, 0
7, 89640, Note_on_c, 1, 33, 100
7, 89700, Note_on_c, 1, 33, 0
7, 89700, Note_on_c, 1, 45, 100
7, 89760, Note_on_c, 1, 45, 0
7, 89760, Note_on_c, 1, 31, 101
7, 89819, Note_on_c, 1, 31, 0
7, 89820, Note_on_c, 1, 43, 100
7, 89879, Note_on_c, 1, 43, 0
7, 89880, Note_on_c, 1, 31, 101
7, 89939, Note_on_c, 1, 31, 0
7, 89940, Note_on_c, 1, 43, 103
7, 89999, Note_on_c, 1, 43, 0
7, 90000, Note_on_c, 1, 29, 101
7, 90059, Note_on_c, 1, 29, 0
7, 90060, Note_on_c, 1, 41, 100
7, 90119, Note_on_c, 1, 41, 0
7, 90120, Note_on_c, 1, 29, 98
7, 90179, Note_on_c, 1, 29, 0
7, 90180, Note_on_c, 1, 41, 101
7, 90239, Note_on_c, 1, 41, 0
7, 90240, Note_on_c, 1, 33, 100
7, 90300, Note_on_c, 1, 33, 0
7, 90300, Note_on_c, 1, 45, 100
7, 90360, Note_on_c, 1, 45, 0
7, 90360, Note_on_c, 1, 33, 100
7, 90420, Note_on_c, 1, 33, 0
7, 90420, Note_on_c, 1, 45, 100
7, 90480, Note_on_c, 1, 45, 0
7, 90480, Note_on_c, 1, 33, 100
7, 90540, Note_on_c, 1, 33, 0
7, 90540, Note_on_c, 1, 45, 100
7, 90600, Note_on_c, 1, 45, 0
7, 90600, Note_on_c, 1, 33, 100
7, 90660, Note_on_c, 1, 33, 0
7, 90660, Note_on_c, 1, 45, 100
7, 90720, Note_on_c, 1, 45, 0
7, 90720, Note_on_c, 1, 33, 100
7, 90780, Note_on_c, 1, 33, 0
7, 90780, Note_on_c, 1, 45, 100
7, 90840, Note_on_c, 1, 45, 0
7, 90840, Note_on_c, 1, 33, 100
7, 90900, Note_on_c, 1, 33, 0
7, 90900, Note_on_c, 1, 45, 100
7, 90960, Note_on_c, 1, 45, 0
7, 90960, Note_on_c, 1, 33, 100
7, 91020, Note_on_c, 1, 33, 0
7, 91020, Note_on_c, 1, 45, 100
7, 91080, Note_on_c, 1, 45, 0
7, 91080, Note_on_c, 1, 33, 100
7, 91140, Note_on_c, 1, 33, 0
7, 91140, Note_on_c, 1, 45, 100
7, 91200, Note_on_c, 1, 45, 0
7, 91200, Note_on_c, 1, 33, 100
7, 91260, Note_on_c, 1, 33, 0
7, 91260, Note_on_c, 1, 45, 100
7, 91320, Note_on_c, 1, 45, 0
7, 91320, Note_on_c, 1, 33, 100
7, 91380, Note_on_c, 1, 33, 0
7, 91380, Note_on_c, 1, 45, 100
7, 91440, Note_on_c, 1, 45, 0
7, 91440, Note_on_c, 1, 33, 100
7, 91500, Note_on_c, 1, 33, 0
7, 91500, Note_on_c, 1, 45, 100
7, 91560, Note_on_c, 1, 45, 0
7, 91560, Note_on_c, 1, 33, 100
7, 91620, Note_on_c, 1, 33, 0
7, 91620, Note_on_c, 1, 45, 100
7, 91680, Note_on_c, 1, 45, 0
7, 91680, Note_on_c, 1, 31, 101
7, 91739, Note_on_c, 1, 31, 0
7, 91740, Note_on_c, 1, 43, 100
7, 91799, Note_on_c, 1, 43, 0
7, 91800, Note_on_c, 1, 31, 101
7, 91859, Note_on_c, 1, 31, 0
7, 91860, Note_on_c, 1, 43, 103
7, 91919, Note_on_c, 1, 43, 0
7, 91920, Note_on_c, 1, 29, 101
7, 91979, Note_on_c, 1, 29, 0
7, 91980, Note_on_c, 1, 41, 100
7, 92039, Note_on_c, 1, 41, 0
7, 92040, Note_on_c, 1, 29, 98
7, 92099, Note_on_c, 1, 29, 0
7, 92100, Note_on_c, 1, 41, 101
7, 92159, Note_on_c, 1, 41, 0
7, 92160, Note_on_c, 1, 33, 100
7, 92220, Note_on_c, 1, 33, 0
7, 92220, Note_on_c, 1, 45, 100
7, 92280, Note_on_c, 1, 45, 0
7, 92280, Note_on_c, 1, 33, 100
7, 92340, Note_on_c, 1, 33, 0
7, 92340, Note_on_c, 1, 45, 100
7, 92400, Note_on_c, 1, 45, 0
7, 92400, Note_on_c, 1, 33, 100
7, 92460, Note_on_c, 1, 33, 0
7, 92460, Note_on_c, 1, 45, 100
7, 92520, Note_on_c, 1, 45, 0
7, 92520, Note_on_c, 1, 33, 100
7, 92580, Note_on_c, 1, 33, 0
7, 92580, Note_on_c, 1, 45, 100
7, 92640, Note_on_c, 1, 45, 0
7, 92640, Note_on_c, 1, 33, 100
7, 92700, Note_on_c, 1, 33, 0
7, 92700, Note_on_c, 1, 45, 100
7, 92760, Note_on_c, 1, 45, 0
7, 92760, Note_on_c, 1, 33, 100
7, 92820, Note_on_c, 1, 33, 0
7, 92820, Note_on_c, 1, 45, 100
7, 92880, Note_on_c, 1, 45, 0
7, 92880, Note_on_c, 1, 33, 100
7, 92940, Note_on_c, 1, 33, 0
7, 92940, Note_on_c, 1, 45, 100
7, 93000, Note_on_c, 1, 45, 0
7, 93000, Note_on_c, 1, 33, 100
7, 93060, Note_on_c, 1, 33, 0
7, 93060, Note_on_c, 1, 45, 100
7, 93120, Note_on_c, 1, 45, 0
7, 93120, Note_on_c, 1, 36, 97
7, 93179, Note_on_c, 1, 36, 0
7, 93180, Note_on_c, 1, 48, 101
7, 93239, Note_on_c, 1, 48, 0
7, 93240, Note_on_c, 1, 36, 98
7, 93299, Note_on_c, 1, 36, 0
7, 93300, Note_on_c, 1, 48, 105
7, 93359, Note_on_c, 1, 48, 0
7, 93360, Note_on_c, 1, 36, 100
7, 93419, Note_on_c, 1, 36, 0
7, 93420, Note_on_c, 1, 48, 103
7, 93479, Note_on_c, 1, 48, 0
7, 93480, Note_on_c, 1, 36, 98
7, 93539, Note_on_c, 1, 36, 0
7, 93540, Note_on_c, 1, 48, 103
7, 93599, Note_on_c, 1, 48, 0
7, 93600, Note_on_c, 1, 29, 101
7, 93659, Note_on_c, 1, 29, 0
7, 93660, Note_on_c, 1, 41, 100
7, 93719, Note_on_c, 1, 41, 0
7, 93720, Note_on_c, 1, 29, 101
7, 93779, Note_on_c, 1, 29, 0
7, 93780, Note_on_c, 1, 41, 103
7, 93839, Note_on_c, 1, 41, 0
7, 93840, Note_on_c, 1, 29, 101
7, 93899, Note_on_c, 1, 29, 0
7, 93900, Note_on_c, 1, 41, 100
7, 93959, Note_on_c, 1, 41, 0
7, 93960, Note_on_c, 1, 29, 98
7, 94019, Note_on_c, 1, 29, 0
7, 94020, Note_on_c, 1, 41, 101
7, 94077, Note_on_c, 1, 50, 108
7, 94079, Note_on_c, 1, 41, 0
7, 94080, Note_on_c, 1, 26, 105
7, 94135, Note_on_c, 1, 45, 103
7, 94139, Note_on_c, 1, 26, 0
7, 94140, Note_on_c, 1, 38, 102
7, 94147, Note_on_c, 1, 50, 0
7, 94167, Note_on_c, 1, 41, 106
7, 94180, Note_on_c, 1, 45, 0
7, 94197, Note_on_c, 1, 38, 110
7, 94199, Note_on_c, 1, 38, 0
7, 94200, Note_on_c, 1, 26, 100
7, 94207, Note_on_c, 1, 41, 0
7, 94259, Note_on_c, 1, 26, 0
7, 94260, Note_on_c, 1, 38, 103
7, 94297, Note_on_c, 1, 38, 0
7, 94319, Note_on_c, 1, 38, 0
7, 94320, Note_on_c, 1, 28, 100
7, 94325, Note_on_c, 1, 52, 115
7, 94379, Note_on_c, 1, 28, 0
7, 94380, Note_on_c, 1, 40, 103
7, 94380, Note_on_c, 1, 47, 110
7, 94390, Note_on_c, 1, 52, 0
7, 94412, Note_on_c, 1, 44, 115
7, 94425, Note_on_c, 1, 47, 0
7, 94437, Note_on_c, 1, 40, 106
7, 94439, Note_on_c, 1, 40, 0
7, 94440, Note_on_c, 1, 28, 103
7, 94445, Note_on_c, 1, 44, 0
7, 94499, Note_on_c, 1, 28, 0
7, 94500, Note_on_c, 1, 40, 108
7, 94525, Note_on_c, 1, 40, 0
7, 94559, Note_on_c, 1, 40, 0
7, 94560, Note_on_c, 1, 33, 100
7, 94620, Note_on_c, 1, 33, 0
7, 94620, Note_on_c, 1, 45, 100
7, 94680, Note_on_c, 1, 45, 0
7, 94680, Note_on_c, 1, 33, 100
7, 94740, Note_on_c, 1, 33, 0
7, 94740, Note_on_c, 1, 45, 100
7, 94800, Note_on_c, 1, 45, 0
7, 94800, Note_on_c, 1, 33, 100
7, 94860, Note_on_c, 1, 33, 0
7, 94860, Note_on_c, 1, 45, 100
7, 94920, Note_on_c, 1, 45, 0
7, 94920, Note_on_c, 1, 33, 100
7, 94980, Note_on_c, 1, 33, 0
7, 94980, Note_on_c, 1, 45, 100
7, 95040, Note_on_c, 1, 45, 0
7, 95040, Note_on_c, 1, 36, 97
7, 95099, Note_on_c, 1, 36, 0
7, 95100, Note_on_c, 1, 48, 101
7, 95159, Note_on_c, 1, 48, 0
7, 95160, Note_on_c, 1, 36, 98
7, 95219, Note_on_c, 1, 36, 0
7, 95220, Note_on_c, 1, 48, 105
7, 95279, Note_on_c, 1, 48, 0
7, 95280, Note_on_c, 1, 36, 100
7, 95339, Note_on_c, 1, 36, 0
7, 95340, Note_on_c, 1, 48, 103
7, 95399, Note_on_c, 1, 48, 0
7, 95400, Note_on_c, 1, 36, 98
7, 95459, Note_on_c, 1, 36, 0
7, 95460, Note_on_c, 1, 48, 103
7, 95519, Note_on_c, 1, 48, 0
7, 95520, Note_on_c, 1, 29, 101
7, 95579, Note_on_c, 1, 29, 0
7, 95580, Note_on_c, 1, 41, 100
7, 95639, Note_on_c, 1, 41, 0
7, 95640, Note_on_c, 1, 29, 101
7, 95699, Note_on_c, 1, 29, 0
7, 95700, Note_on_c, 1, 41, 103
7, 95759, Note_on_c, 1, 41, 0
7, 95760, Note_on_c, 1, 29, 101
7, 95819, Note_on_c, 1, 29, 0
7, 95820, Note_on_c, 1, 41, 100
7, 95879, Note_on_c, 1, 41, 0
7, 95880, Note_on_c, 1, 29, 98
7, 95939, Note_on_c, 1, 29, 0
7, 95940, Note_on_c, 1, 41, 101
7, 95999, Note_on_c, 1, 41, 0
7, 96000, Note_on_c, 1, 50, 103
7, 96000, Note_on_c, 1, 26, 105
7, 96059, Note_on_c, 1, 26, 0
7, 96060, Note_on_c, 1, 38, 102
7, 96065, Note_on_c, 1, 45, 103
7, 96072, Note_on_c, 1, 50, 0
7, 96092, Note_on_c, 1, 41, 98
7, 96102, Note_on_c, 1, 45, 0
7, 96119, Note_on_c, 1, 38, 0
7, 96120, Note_on_c, 1, 26, 100
7, 96120, Note_on_c, 1, 38, 101
7, 96127, Note_on_c, 1, 41, 0
7, 96179, Note_on_c, 1, 26, 0
7, 96180, Note_on_c, 1, 38, 103
7, 96222, Note_on_c, 1, 38, 0
7, 96239, Note_on_c, 1, 38, 0
7, 96240, Note_on_c, 1, 28, 100
7, 96245, Note_on_c, 1, 52, 117
7, 96299, Note_on_c, 1, 28, 0
7, 96300, Note_on_c, 1, 40, 103
7, 96302, Note_on_c, 1, 47, 113
7, 96307, Note_on_c, 1, 52, 0
7, 96330, Note_on_c, 1, 44, 115
7, 96342, Note_on_c, 1, 47, 0
7, 96355, Note_on_c, 1, 40, 105
7, 96359, Note_on_c, 1, 40, 0
7, 96360, Note_on_c, 1, 28, 103
7, 96365, Note_on_c, 1, 44, 0
7, 96407, Note_on_c, 1, 40, 0
7, 96419, Note_on_c, 1, 28, 0
7, 96420, Note_on_c, 1, 40, 108
7, 96479, Note_on_c, 1, 40, 0
7, 96480, Note_on_c, 1, 33, 100
7, 96540, Note_on_c, 1, 33, 0
7, 96540, Note_on_c, 1, 45, 100
7, 96600, Note_on_c, 1, 45, 0
7, 96600, Note_on_c, 1, 33, 100
7, 96660, Note_on_c, 1, 33, 0
7, 96660, Note_on_c, 1, 45, 100
7, 96720, Note_on_c, 1, 45, 0
7, 96720, Note_on_c, 1, 33, 100
7, 96780, Note_on_c, 1, 33, 0
7, 96780, Note_on_c, 1, 45, 100
7, 96840, Note_on_c, 1, 45, 0
7, 96840, Note_on_c, 1, 33, 100
7, 96900, Note_on_c, 1, 33, 0
7, 96900, Note_on_c, 1, 45, 100
7, 96960, Note_on_c, 1, 45, 0
7, 96960, Note_on_c, 1, 36, 97
7, 97019, Note_on_c, 1, 36, 0
7, 97020, Note_on_c, 1, 48, 101
7, 97079, Note_on_c, 1, 48, 0
7, 97080, Note_on_c, 1, 36, 98
7, 97139, Note_on_c, 1, 36, 0
7, 97140, Note_on_c, 1, 48, 105
7, 97199, Note_on_c, 1, 48, 0
7, 97200, Note_on_c, 1, 36, 100
7, 97259, Note_on_c, 1, 36, 0
7, 97260, Note_on_c, 1, 48, 103
7, 97319, Note_on_c, 1, 48, 0
7, 97320, Note_on_c, 1, 36, 98
7, 97379, Note_on_c, 1, 36, 0
7, 97380, Note_on_c, 1, 48, 103
7, 97439, Note_on_c, 1, 48, 0
7, 97440, Note_on_c, 1, 29, 101
7, 97499, Note_on_c, 1, 29, 0
7, 97500, Note_on_c, 1, 41, 100
7, 97559, Note_on_c, 1, 41, 0
7, 97560, Note_on_c, 1, 29, 101
7, 97619, Note_on_c, 1, 29, 0
7, 97620, Note_on_c, 1, 41, 103
7, 97679, Note_on_c, 1, 41, 0
7, 97680, Note_on_c, 1, 29, 101
7, 97739, Note_on_c, 1, 29, 0
7, 97740, Note_on_c, 1, 41, 100
7, 97799, Note_on_c, 1, 41, 0
7, 97800, Note_on_c, 1, 29, 98
7, 97859, Note_on_c, 1, 29, 0
7, 97860, Note_on_c, 1, 41, 101
7, 97917, Note_on_c, 1, 50, 108
7, 97919, Note_on_c, 1, 41, 0
7, 97920, Note_on_c, 1, 26, 105
7, 97975, Note_on_c, 1, 45, 103
7, 97979, Note_on_c, 1, 26, 0
7, 97980, Note_on_c, 1, 38, 102
7, 97987, Note_on_c, 1, 50, 0
7, 98007, Note_on_c, 1, 41, 106
7, 98020, Note_on_c, 1, 45, 0
7, 98037, Note_on_c, 1, 38, 110
7, 98039, Note_on_c, 1, 38, 0
7, 98040, Note_on_c, 1, 26, 100
7, 98047, Note_on_c, 1, 41, 0
7, 98099, Note_on_c, 1, 26, 0
7, 98100, Note_on_c, 1, 38, 103
7, 98137, Note_on_c, 1, 38, 0
7, 98159, Note_on_c, 1, 38, 0
7, 98160, Note_on_c, 1, 28, 100
7, 98165, Note_on_c, 1, 52, 115
7, 98219, Note_on_c, 1, 28, 0
7, 98220, Note_on_c, 1, 40, 103
7, 98220, Note_on_c, 1, 47, 110
7, 98230, Note_on_c, 1, 52, 0
7, 98252, Note_on_c, 1, 44, 115
7, 98265, Note_on_c, 1, 47, 0
7, 98277, Note_on_c, 1, 40, 106
7, 98279, Note_on_c, 1, 40, 0
7, 98280, Note_on_c, 1, 28, 103
7, 98285, Note_on_c, 1, 44, 0
7, 98339, Note_on_c, 1, 28, 0
7, 98340, Note_on_c, 1, 40, 108
7, 98365, Note_on_c, 1, 40, 0
7, 98399, Note_on_c, 1, 40, 0
7, 98400, Note_on_c, 1, 33, 100
7, 98460, Note_on_c, 1, 33, 0
7, 98460, Note_on_c, 1, 45, 100
7, 98520, Note_on_c, 1, 45, 0
7, 98520, Note_on_c, 1, 33, 100
7, 98580, Note_on_c, 1, 33, 0
7, 98580, Note_on_c, 1, 45, 100
7, 98640, Note_on_c, 1, 45, 0
7, 98640, Note_on_c, 1, 33, 100
7, 98700, Note_on_c, 1, 33, 0
7, 98700, Note_on_c, 1, 45, 100
7, 98760, Note_on_c, 1, 45, 0
7, 98760, Note_on_c, 1, 33, 100
7, 98820, Note_on_c, 1, 33, 0
7, 98820, Note_on_c, 1, 45, 100
7, 98880, Note_on_c, 1, 45, 0
7, 98880, Note_on_c, 1, 36, 97
7, 98939, Note_on_c, 1, 36, 0
7, 98940, Note_on_c, 1, 48, 101
7, 98999, Note_on_c, 1, 48, 0
7, 99000, Note_on_c, 1, 36, 98
7, 99059, Note_on_c, 1, 36, 0
7, 99060, Note_on_c, 1, 48, 105
7, 99119, Note_on_c, 1, 48, 0
7, 99120, Note_on_c, 1, 36, 100
7, 99179, Note_on_c, 1, 36, 0
7, 99180, Note_on_c, 1, 48, 103
7, 99239, Note_on_c, 1, 48, 0
7, 99240, Note_on_c, 1, 36, 98
7, 99299, Note_on_c, 1, 36, 0
7, 99300, Note_on_c, 1, 48, 103
7, 99359, Note_on_c, 1, 48, 0
7, 99360, Note_on_c, 1, 29, 101
7, 99419, Note_on_c, 1, 29, 0
7, 99420, Note_on_c, 1, 41, 100
7, 99479, Note_on_c, 1, 41, 0
7, 99480, Note_on_c, 1, 29, 101
7, 99539, Note_on_c, 1, 29, 0
7, 99540, Note_on_c, 1, 41, 103
7, 99599, Note_on_c, 1, 41, 0
7, 99600, Note_on_c, 1, 29, 101
7, 99659, Note_on_c, 1, 29, 0
7, 99660, Note_on_c, 1, 41, 100
7, 99719, Note_on_c, 1, 41, 0
7, 99720, Note_on_c, 1, 29, 98
7, 99779, Note_on_c, 1, 29, 0
7, 99780, Note_on_c, 1, 41, 101
7, 99839, Note_on_c, 1, 41, 0
7, 99840, Note_on_c, 1, 50, 103
7, 99840, Note_on_c, 1, 26, 105
7, 99899, Note_on_c, 1, 26, 0
7, 99900, Note_on_c, 1, 38, 102
7, 99905, Note_on_c, 1, 45, 103
7, 99912, Note_on_c, 1, 50, 0
7, 99932, Note_on_c, 1, 41, 98
7, 99942, Note_on_c, 1, 45, 0
7, 99959, Note_on_c, 1, 38, 0
7, 99960, Note_on_c, 1, 26, 100
7, 99960, Note_on_c, 1, 38, 101
7, 99967, Note_on_c, 1, 41, 0
7, 100019, Note_on_c, 1, 26, 0
7, 100020, Note_on_c, 1, 38, 103
7, 100062, Note_on_c, 1, 38, 0
7, 100079, Note_on_c, 1, 38, 0
7, 100080, Note_on_c, 1, 28, 100
7, 100085, Note_on_c, 1, 52, 117
7, 100139, Note_on_c, 1, 28, 0
7, 100140, Note_on_c, 1, 40, 103
7, 100142, Note_on_c, 1, 47, 113
7, 100147, Note_on_c, 1, 52, 0
7, 100170, Note_on_c, 1, 44, 115
7, 100182, Note_on_c, 1, 47, 0
7, 100195, Note_on_c, 1, 40, 105
7, 100199, Note_on_c, 1, 40, 0
7, 100200, Note_on_c, 1, 28, 103
7, 100205, Note_on_c, 1, 44, 0
7, 100247, Note_on_c, 1, 40, 0
7, 100259, Note_on_c, 1, 28, 0
7, 100260, Note_on_c, 1, 40, 108
7, 100319, Note_on_c, 1, 40, 0
7, 100319, End_track
8, 0, Start_track
8, 0, MIDI_port, 0
8, 0, Title_t, "Guitar"
8, 0, Control_c, 2, 0, 0
8, 0, Program_c, 2, 27
8, 0, Control_c, 2, 7, 65
8, 0, Control_c, 2, 10, 64
8, 0, Control_c, 2, 121, 0
8, 0, Control_c, 2, 91, 127
8, 13920, Note_on_c, 2, 57, 115
8, 13934, Note_on_c, 2, 57, 0
8, 13950, Note_on_c, 2, 57, 106
8, 13970, Note_on_c, 2, 57, 0
8, 14010, Note_on_c, 2, 57, 115
8, 14024, Note_on_c, 2, 57, 0
8, 14040, Note_on_c, 2, 57, 110
8, 14057, Note_on_c, 2, 57, 0
8, 14100, Note_on_c, 2, 57, 117
8, 14112, Note_on_c, 2, 57, 0
8, 14130, Note_on_c, 2, 57, 110
8, 14147, Note_on_c, 2, 57, 0
8, 14160, Note_on_c, 2, 57, 113
8, 14179, Note_on_c, 2, 57, 0
8, 14190, Note_on_c, 2, 57, 102
8, 14207, Note_on_c, 2, 57, 0
8, 14250, Note_on_c, 2, 57, 115
8, 14267, Note_on_c, 2, 57, 0
8, 14280, Note_on_c, 2, 57, 105
8, 14297, Note_on_c, 2, 57, 0
8, 14340, Note_on_c, 2, 57, 113
8, 14357, Note_on_c, 2, 57, 0
8, 14370, Note_on_c, 2, 57, 103
8, 14386, Note_on_c, 2, 57, 0
8, 14400, Note_on_c, 2, 60, 103
8, 14417, Note_on_c, 2, 60, 0
8, 14430, Note_on_c, 2, 60, 101
8, 14445, Note_on_c, 2, 60, 0
8, 14490, Note_on_c, 2, 60, 100
8, 14509, Note_on_c, 2, 60, 0
8, 14520, Note_on_c, 2, 60, 97
8, 14530, Note_on_c, 2, 60, 0
8, 14580, Note_on_c, 2, 60, 101
8, 14592, Note_on_c, 2, 60, 0
8, 14610, Note_on_c, 2, 60, 98
8, 14622, Note_on_c, 2, 60, 0
8, 14640, Note_on_c, 2, 60, 100
8, 14659, Note_on_c, 2, 60, 0
8, 14670, Note_on_c, 2, 60, 101
8, 14687, Note_on_c, 2, 60, 0
8, 14730, Note_on_c, 2, 60, 101
8, 14749, Note_on_c, 2, 60, 0
8, 14760, Note_on_c, 2, 60, 96
8, 14774, Note_on_c, 2, 60, 0
8, 14820, Note_on_c, 2, 60, 102
8, 14837, Note_on_c, 2, 60, 0
8, 14850, Note_on_c, 2, 60, 102
8, 14865, Note_on_c, 2, 60, 0
8, 14880, Note_on_c, 2, 53, 101
8, 14897, Note_on_c, 2, 53, 0
8, 14910, Note_on_c, 2, 53, 93
8, 14920, Note_on_c, 2, 53, 0
8, 14970, Note_on_c, 2, 53, 100
8, 14989, Note_on_c, 2, 53, 0
8, 15000, Note_on_c, 2, 53, 101
8, 15016, Note_on_c, 2, 53, 0
8, 15060, Note_on_c, 2, 53, 103
8, 15074, Note_on_c, 2, 53, 0
8, 15090, Note_on_c, 2, 53, 98
8, 15105, Note_on_c, 2, 53, 0
8, 15120, Note_on_c, 2, 53, 108
8, 15139, Note_on_c, 2, 53, 0
8, 15150, Note_on_c, 2, 53, 100
8, 15167, Note_on_c, 2, 53, 0
8, 15210, Note_on_c, 2, 53, 101
8, 15227, Note_on_c, 2, 53, 0
8, 15240, Note_on_c, 2, 53, 96
8, 15260, Note_on_c, 2, 53, 0
8, 15300, Note_on_c, 2, 53, 101
8, 15320, Note_on_c, 2, 53, 0
8, 15330, Note_on_c, 2, 53, 102
8, 15344, Note_on_c, 2, 53, 0
8, 15360, Note_on_c, 2, 50, 100
8, 15377, Note_on_c, 2, 50, 0
8, 15390, Note_on_c, 2, 50, 101
8, 15404, Note_on_c, 2, 50, 0
8, 15450, Note_on_c, 2, 50, 100
8, 15471, Note_on_c, 2, 50, 0
8, 15480, Note_on_c, 2, 50, 100
8, 15494, Note_on_c, 2, 50, 0
8, 15540, Note_on_c, 2, 50, 103
8, 15557, Note_on_c, 2, 50, 0
8, 15570, Note_on_c, 2, 50, 103
8, 15587, Note_on_c, 2, 50, 0
8, 15600, Note_on_c, 2, 52, 115
8, 15619, Note_on_c, 2, 52, 0
8, 15630, Note_on_c, 2, 52, 103
8, 15647, Note_on_c, 2, 52, 0
8, 15690, Note_on_c, 2, 52, 113
8, 15709, Note_on_c, 2, 52, 0
8, 15720, Note_on_c, 2, 52, 103
8, 15739, Note_on_c, 2, 52, 0
8, 15780, Note_on_c, 2, 52, 115
8, 15799, Note_on_c, 2, 52, 0
8, 15810, Note_on_c, 2, 52, 101
8, 15822, Note_on_c, 2, 52, 0
8, 15840, Note_on_c, 2, 57, 115
8, 15854, Note_on_c, 2, 57, 0
8, 15870, Note_on_c, 2, 57, 106
8, 15890, Note_on_c, 2, 57, 0
8, 15930, Note_on_c, 2, 57, 115
8, 15944, Note_on_c, 2, 57, 0
8, 15960, Note_on_c, 2, 57, 110
8, 15977, Note_on_c, 2, 57, 0
8, 16020, Note_on_c, 2, 57, 117
8, 16032, Note_on_c, 2, 57, 0
8, 16050, Note_on_c, 2, 57, 110
8, 16067, Note_on_c, 2, 57, 0
8, 16080, Note_on_c, 2, 57, 113
8, 16099, Note_on_c, 2, 57, 0
8, 16110, Note_on_c, 2, 57, 102
8, 16127, Note_on_c, 2, 57, 0
8, 16170, Note_on_c, 2, 57, 115
8, 16187, Note_on_c, 2, 57, 0
8, 16200, Note_on_c, 2, 57, 105
8, 16217, Note_on_c, 2, 57, 0
8, 16260, Note_on_c, 2, 57, 113
8, 16277, Note_on_c, 2, 57, 0
8, 16290, Note_on_c, 2, 57, 103
8, 16306, Note_on_c, 2, 57, 0
8, 16320, Note_on_c, 2, 60, 103
8, 16337, Note_on_c, 2, 60, 0
8, 16350, Note_on_c, 2, 60, 101
8, 16365, Note_on_c, 2, 60, 0
8, 16410, Note_on_c, 2, 60, 100
8, 16429, Note_on_c, 2, 60, 0
8, 16440, Note_on_c, 2, 60, 97
8, 16450, Note_on_c, 2, 60, 0
8, 16500, Note_on_c, 2, 60, 101
8, 16512, Note_on_c, 2, 60, 0
8, 16530, Note_on_c, 2, 60, 98
8, 16542, Note_on_c, 2, 60, 0
8, 16560, Note_on_c, 2, 60, 100
8, 16579, Note_on_c, 2, 60, 0
8, 16590, Note_on_c, 2, 60, 101
8, 16607, Note_on_c, 2, 60, 0
8, 16650, Note_on_c, 2, 60, 101
8, 16669, Note_on_c, 2, 60, 0
8, 16680, Note_on_c, 2, 60, 96
8, 16694, Note_on_c, 2, 60, 0
8, 16740, Note_on_c, 2, 60, 102
8, 16757, Note_on_c, 2, 60, 0
8, 16770, Note_on_c, 2, 60, 102
8, 16785, Note_on_c, 2, 60, 0
8, 16800, Note_on_c, 2, 53, 101
8, 16817, Note_on_c, 2, 53, 0
8, 16830, Note_on_c, 2, 53, 93
8, 16840, Note_on_c, 2, 53, 0
8, 16890, Note_on_c, 2, 53, 100
8, 16909, Note_on_c, 2, 53, 0
8, 16920, Note_on_c, 2, 53, 101
8, 16936, Note_on_c, 2, 53, 0
8, 16980, Note_on_c, 2, 53, 103
8, 16994, Note_on_c, 2, 53, 0
8, 17010, Note_on_c, 2, 53, 98
8, 17025, Note_on_c, 2, 53, 0
8, 17040, Note_on_c, 2, 53, 108
8, 17059, Note_on_c, 2, 53, 0
8, 17070, Note_on_c, 2, 53, 100
8, 17087, Note_on_c, 2, 53, 0
8, 17130, Note_on_c, 2, 53, 101
8, 17147, Note_on_c, 2, 53, 0
8, 17160, Note_on_c, 2, 53, 96
8, 17180, Note_on_c, 2, 53, 0
8, 17220, Note_on_c, 2, 53, 101
8, 17240, Note_on_c, 2, 53, 0
8, 17250, Note_on_c, 2, 53, 102
8, 17264, Note_on_c, 2, 53, 0
8, 17280, Note_on_c, 2, 50, 100
8, 17297, Note_on_c, 2, 50, 0
8, 17310, Note_on_c, 2, 50, 101
8, 17324, Note_on_c, 2, 50, 0
8, 17370, Note_on_c, 2, 50, 100
8, 17391, Note_on_c, 2, 50, 0
8, 17400, Note_on_c, 2, 50, 100
8, 17414, Note_on_c, 2, 50, 0
8, 17460, Note_on_c, 2, 50, 103
8, 17477, Note_on_c, 2, 50, 0
8, 17490, Note_on_c, 2, 50, 103
8, 17507, Note_on_c, 2, 50, 0
8, 17520, Note_on_c, 2, 52, 115
8, 17539, Note_on_c, 2, 52, 0
8, 17550, Note_on_c, 2, 52, 103
8, 17567, Note_on_c, 2, 52, 0
8, 17610, Note_on_c, 2, 52, 113
8, 17629, Note_on_c, 2, 52, 0
8, 17640, Note_on_c, 2, 52, 103
8, 17659, Note_on_c, 2, 52, 0
8, 17700, Note_on_c, 2, 52, 115
8, 17719, Note_on_c, 2, 52, 0
8, 17730, Note_on_c, 2, 52, 101
8, 17742, Note_on_c, 2, 52, 0
8, 21600, Note_on_c, 2, 57, 115
8, 21614, Note_on_c, 2, 57, 0
8, 21630, Note_on_c, 2, 57, 106
8, 21650, Note_on_c, 2, 57, 0
8, 21690, Note_on_c, 2, 57, 115
8, 21704, Note_on_c, 2, 57, 0
8, 21720, Note_on_c, 2, 57, 110
8, 21737, Note_on_c, 2, 57, 0
8, 21780, Note_on_c, 2, 57, 117
8, 21792, Note_on_c, 2, 57, 0
8, 21810, Note_on_c, 2, 57, 110
8, 21827, Note_on_c, 2, 57, 0
8, 21840, Note_on_c, 2, 57, 113
8, 21859, Note_on_c, 2, 57, 0
8, 21870, Note_on_c, 2, 57, 102
8, 21887, Note_on_c, 2, 57, 0
8, 21930, Note_on_c, 2, 57, 115
8, 21947, Note_on_c, 2, 57, 0
8, 21960, Note_on_c, 2, 57, 105
8, 21977, Note_on_c, 2, 57, 0
8, 22020, Note_on_c, 2, 57, 113
8, 22037, Note_on_c, 2, 57, 0
8, 22050, Note_on_c, 2, 57, 103
8, 22066, Note_on_c, 2, 57, 0
8, 22080, Note_on_c, 2, 60, 103
8, 22097, Note_on_c, 2, 60, 0
8, 22110, Note_on_c, 2, 60, 101
8, 22125, Note_on_c, 2, 60, 0
8, 22170, Note_on_c, 2, 60, 100
8, 22189, Note_on_c, 2, 60, 0
8, 22200, Note_on_c, 2, 60, 97
8, 22210, Note_on_c, 2, 60, 0
8, 22260, Note_on_c, 2, 60, 101
8, 22272, Note_on_c, 2, 60, 0
8, 22290, Note_on_c, 2, 60, 98
8, 22302, Note_on_c, 2, 60, 0
8, 22320, Note_on_c, 2, 60, 100
8, 22339, Note_on_c, 2, 60, 0
8, 22350, Note_on_c, 2, 60, 101
8, 22367, Note_on_c, 2, 60, 0
8, 22410, Note_on_c, 2, 60, 101
8, 22429, Note_on_c, 2, 60, 0
8, 22440, Note_on_c, 2, 60, 96
8, 22454, Note_on_c, 2, 60, 0
8, 22500, Note_on_c, 2, 60, 102
8, 22517, Note_on_c, 2, 60, 0
8, 22530, Note_on_c, 2, 60, 102
8, 22545, Note_on_c, 2, 60, 0
8, 22560, Note_on_c, 2, 53, 101
8, 22577, Note_on_c, 2, 53, 0
8, 22590, Note_on_c, 2, 53, 93
8, 22600, Note_on_c, 2, 53, 0
8, 22650, Note_on_c, 2, 53, 100
8, 22669, Note_on_c, 2, 53, 0
8, 22680, Note_on_c, 2, 53, 101
8, 22696, Note_on_c, 2, 53, 0
8, 22740, Note_on_c, 2, 53, 103
8, 22754, Note_on_c, 2, 53, 0
8, 22770, Note_on_c, 2, 53, 98
8, 22785, Note_on_c, 2, 53, 0
8, 22800, Note_on_c, 2, 53, 108
8, 22819, Note_on_c, 2, 53, 0
8, 22830, Note_on_c, 2, 53, 100
8, 22847, Note_on_c, 2, 53, 0
8, 22890, Note_on_c, 2, 53, 101
8, 22907, Note_on_c, 2, 53, 0
8, 22920, Note_on_c, 2, 53, 96
8, 22940, Note_on_c, 2, 53, 0
8, 22980, Note_on_c, 2, 53, 101
8, 23000, Note_on_c, 2, 53, 0
8, 23010, Note_on_c, 2, 53, 102
8, 23024, Note_on_c, 2, 53, 0
8, 23040, Note_on_c, 2, 50, 100
8, 23057, Note_on_c, 2, 50, 0
8, 23070, Note_on_c, 2, 50, 101
8, 23084, Note_on_c, 2, 50, 0
8, 23130, Note_on_c, 2, 50, 100
8, 23151, Note_on_c, 2, 50, 0
8, 23160, Note_on_c, 2, 50, 100
8, 23174, Note_on_c, 2, 50, 0
8, 23220, Note_on_c, 2, 50, 103
8, 23237, Note_on_c, 2, 50, 0
8, 23250, Note_on_c, 2, 50, 103
8, 23267, Note_on_c, 2, 50, 0
8, 23280, Note_on_c, 2, 52, 115
8, 23299, Note_on_c, 2, 52, 0
8, 23310, Note_on_c, 2, 52, 103
8, 23327, Note_on_c, 2, 52, 0
8, 23370, Note_on_c, 2, 52, 113
8, 23389, Note_on_c, 2, 52, 0
8, 23400, Note_on_c, 2, 52, 103
8, 23419, Note_on_c, 2, 52, 0
8, 23460, Note_on_c, 2, 52, 115
8, 23479, Note_on_c, 2, 52, 0
8, 23490, Note_on_c, 2, 52, 101
8, 23502, Note_on_c, 2, 52, 0
8, 23520, Note_on_c, 2, 57, 115
8, 23534, Note_on_c, 2, 57, 0
8, 23550, Note_on_c, 2, 57, 106
8, 23570, Note_on_c, 2, 57, 0
8, 23610, Note_on_c, 2, 57, 115
8, 23624, Note_on_c, 2, 57, 0
8, 23640, Note_on_c, 2, 57, 110
8, 23657, Note_on_c, 2, 57, 0
8, 23700, Note_on_c, 2, 57, 117
8, 23712, Note_on_c, 2, 57, 0
8, 23730, Note_on_c, 2, 57, 110
8, 23747, Note_on_c, 2, 57, 0
8, 23760, Note_on_c, 2, 57, 113
8, 23779, Note_on_c, 2, 57, 0
8, 23790, Note_on_c, 2, 57, 102
8, 23807, Note_on_c, 2, 57, 0
8, 23850, Note_on_c, 2, 57, 115
8, 23867, Note_on_c, 2, 57, 0
8, 23880, Note_on_c, 2, 57, 105
8, 23897, Note_on_c, 2, 57, 0
8, 23940, Note_on_c, 2, 57, 113
8, 23957, Note_on_c, 2, 57, 0
8, 23970, Note_on_c, 2, 57, 103
8, 23986, Note_on_c, 2, 57, 0
8, 24000, Note_on_c, 2, 60, 103
8, 24017, Note_on_c, 2, 60, 0
8, 24030, Note_on_c, 2, 60, 101
8, 24045, Note_on_c, 2, 60, 0
8, 24090, Note_on_c, 2, 60, 100
8, 24109, Note_on_c, 2, 60, 0
8, 24120, Note_on_c, 2, 60, 97
8, 24130, Note_on_c, 2, 60, 0
8, 24180, Note_on_c, 2, 60, 101
8, 24192, Note_on_c, 2, 60, 0
8, 24210, Note_on_c, 2, 60, 98
8, 24222, Note_on_c, 2, 60, 0
8, 24240, Note_on_c, 2, 60, 100
8, 24259, Note_on_c, 2, 60, 0
8, 24270, Note_on_c, 2, 60, 101
8, 24287, Note_on_c, 2, 60, 0
8, 24330, Note_on_c, 2, 60, 101
8, 24349, Note_on_c, 2, 60, 0
8, 24360, Note_on_c, 2, 60, 96
8, 24374, Note_on_c, 2, 60, 0
8, 24420, Note_on_c, 2, 60, 102
8, 24437, Note_on_c, 2, 60, 0
8, 24450, Note_on_c, 2, 60, 102
8, 24465, Note_on_c, 2, 60, 0
8, 24480, Note_on_c, 2, 53, 101
8, 24497, Note_on_c, 2, 53, 0
8, 24510, Note_on_c, 2, 53, 93
8, 24520, Note_on_c, 2, 53, 0
8, 24570, Note_on_c, 2, 53, 100
8, 24589, Note_on_c, 2, 53, 0
8, 24600, Note_on_c, 2, 53, 101
8, 24616, Note_on_c, 2, 53, 0
8, 24660, Note_on_c, 2, 53, 103
8, 24674, Note_on_c, 2, 53, 0
8, 24690, Note_on_c, 2, 53, 98
8, 24705, Note_on_c, 2, 53, 0
8, 24720, Note_on_c, 2, 53, 108
8, 24739, Note_on_c, 2, 53, 0
8, 24750, Note_on_c, 2, 53, 100
8, 24767, Note_on_c, 2, 53, 0
8, 24810, Note_on_c, 2, 53, 101
8, 24827, Note_on_c, 2, 53, 0
8, 24840, Note_on_c, 2, 53, 96
8, 24860, Note_on_c, 2, 53, 0
8, 24900, Note_on_c, 2, 53, 101
8, 24920, Note_on_c, 2, 53, 0
8, 24930, Note_on_c, 2, 53, 102
8, 24944, Note_on_c, 2, 53, 0
8, 24960, Note_on_c, 2, 50, 100
8, 24977, Note_on_c, 2, 50, 0
8, 24990, Note_on_c, 2, 50, 101
8, 25004, Note_on_c, 2, 50, 0
8, 25050, Note_on_c, 2, 50, 100
8, 25071, Note_on_c, 2, 50, 0
8, 25080, Note_on_c, 2, 50, 100
8, 25094, Note_on_c, 2, 50, 0
8, 25140, Note_on_c, 2, 50, 103
8, 25157, Note_on_c, 2, 50, 0
8, 25170, Note_on_c, 2, 50, 103
8, 25187, Note_on_c, 2, 50, 0
8, 25200, Note_on_c, 2, 52, 115
8, 25219, Note_on_c, 2, 52, 0
8, 25230, Note_on_c, 2, 52, 103
8, 25247, Note_on_c, 2, 52, 0
8, 25290, Note_on_c, 2, 52, 113
8, 25309, Note_on_c, 2, 52, 0
8, 25320, Note_on_c, 2, 52, 103
8, 25339, Note_on_c, 2, 52, 0
8, 25380, Note_on_c, 2, 52, 115
8, 25399, Note_on_c, 2, 52, 0
8, 25410, Note_on_c, 2, 52, 101
8, 25422, Note_on_c, 2, 52, 0
8, 55680, Note_on_c, 2, 57, 115
8, 55694, Note_on_c, 2, 57, 0
8, 55710, Note_on_c, 2, 57, 106
8, 55730, Note_on_c, 2, 57, 0
8, 55770, Note_on_c, 2, 57, 115
8, 55784, Note_on_c, 2, 57, 0
8, 55800, Note_on_c, 2, 57, 110
8, 55817, Note_on_c, 2, 57, 0
8, 55860, Note_on_c, 2, 57, 117
8, 55872, Note_on_c, 2, 57, 0
8, 55890, Note_on_c, 2, 57, 110
8, 55907, Note_on_c, 2, 57, 0
8, 55920, Note_on_c, 2, 57, 113
8, 55939, Note_on_c, 2, 57, 0
8, 55950, Note_on_c, 2, 57, 102
8, 55967, Note_on_c, 2, 57, 0
8, 56010, Note_on_c, 2, 57, 115
8, 56027, Note_on_c, 2, 57, 0
8, 56040, Note_on_c, 2, 57, 105
8, 56057, Note_on_c, 2, 57, 0
8, 56100, Note_on_c, 2, 57, 113
8, 56117, Note_on_c, 2, 57, 0
8, 56130, Note_on_c, 2, 57, 103
8, 56146, Note_on_c, 2, 57, 0
8, 56160, Note_on_c, 2, 60, 103
8, 56177, Note_on_c, 2, 60, 0
8, 56190, Note_on_c, 2, 60, 101
8, 56205, Note_on_c, 2, 60, 0
8, 56250, Note_on_c, 2, 60, 100
8, 56269, Note_on_c, 2, 60, 0
8, 56280, Note_on_c, 2, 60, 97
8, 56290, Note_on_c, 2, 60, 0
8, 56340, Note_on_c, 2, 60, 101
8, 56352, Note_on_c, 2, 60, 0
8, 56370, Note_on_c, 2, 60, 98
8, 56382, Note_on_c, 2, 60, 0
8, 56400, Note_on_c, 2, 60, 100
8, 56419, Note_on_c, 2, 60, 0
8, 56430, Note_on_c, 2, 60, 101
8, 56447, Note_on_c, 2, 60, 0
8, 56490, Note_on_c, 2, 60, 101
8, 56509, Note_on_c, 2, 60, 0
8, 56520, Note_on_c, 2, 60, 96
8, 56534, Note_on_c, 2, 60, 0
8, 56580, Note_on_c, 2, 60, 102
8, 56597, Note_on_c, 2, 60, 0
8, 56610, Note_on_c, 2, 60, 102
8, 56625, Note_on_c, 2, 60, 0
8, 56640, Note_on_c, 2, 53, 101
8, 56657, Note_on_c, 2, 53, 0
8, 56670, Note_on_c, 2, 53, 93
8, 56680, Note_on_c, 2, 53, 0
8, 56730, Note_on_c, 2, 53, 100
8, 56749, Note_on_c, 2, 53, 0
8, 56760, Note_on_c, 2, 53, 101
8, 56776, Note_on_c, 2, 53, 0
8, 56820, Note_on_c, 2, 53, 103
8, 56834, Note_on_c, 2, 53, 0
8, 56850, Note_on_c, 2, 53, 98
8, 56865, Note_on_c, 2, 53, 0
8, 56880, Note_on_c, 2, 53, 108
8, 56899, Note_on_c, 2, 53, 0
8, 56910, Note_on_c, 2, 53, 100
8, 56927, Note_on_c, 2, 53, 0
8, 56970, Note_on_c, 2, 53, 101
8, 56987, Note_on_c, 2, 53, 0
8, 57000, Note_on_c, 2, 53, 96
8, 57020, Note_on_c, 2, 53, 0
8, 57060, Note_on_c, 2, 53, 101
8, 57080, Note_on_c, 2, 53, 0
8, 57090, Note_on_c, 2, 53, 102
8, 57104, Note_on_c, 2, 53, 0
8, 57120, Note_on_c, 2, 50, 100
8, 57137, Note_on_c, 2, 50, 0
8, 57150, Note_on_c, 2, 50, 101
8, 57164, Note_on_c, 2, 50, 0
8, 57210, Note_on_c, 2, 50, 100
8, 57231, Note_on_c, 2, 50, 0
8, 57240, Note_on_c, 2, 50, 100
8, 57254, Note_on_c, 2, 50, 0
8, 57300, Note_on_c, 2, 50, 103
8, 57317, Note_on_c, 2, 50, 0
8, 57330, Note_on_c, 2, 50, 103
8, 57347, Note_on_c, 2, 50, 0
8, 57360, Note_on_c, 2, 52, 115
8, 57379, Note_on_c, 2, 52, 0
8, 57390, Note_on_c, 2, 52, 103
8, 57407, Note_on_c, 2, 52, 0
8, 57450, Note_on_c, 2, 52, 113
8, 57469, Note_on_c, 2, 52, 0
8, 57480, Note_on_c, 2, 52, 103
8, 57499, Note_on_c, 2, 52, 0
8, 57540, Note_on_c, 2, 52, 115
8, 57559, Note_on_c, 2, 52, 0
8, 57570, Note_on_c, 2, 52, 101
8, 57582, Note_on_c, 2, 52, 0
8, 57600, Note_on_c, 2, 57, 115
8, 57614, Note_on_c, 2, 57, 0
8, 57630, Note_on_c, 2, 57, 106
8, 57650, Note_on_c, 2, 57, 0
8, 57690, Note_on_c, 2, 57, 115
8, 57704, Note_on_c, 2, 57, 0
8, 57720, Note_on_c, 2, 57, 110
8, 57737, Note_on_c, 2, 57, 0
8, 57780, Note_on_c, 2, 57, 117
8, 57792, Note_on_c, 2, 57, 0
8, 57810, Note_on_c, 2, 57, 110
8, 57827, Note_on_c, 2, 57, 0
8, 57840, Note_on_c, 2, 57, 113
8, 57859, Note_on_c, 2, 57, 0
8, 57870, Note_on_c, 2, 57, 102
8, 57887, Note_on_c, 2, 57, 0
8, 57930, Note_on_c, 2, 57, 115
8, 57947, Note_on_c, 2, 57, 0
8, 57960, Note_on_c, 2, 57, 105
8, 57977, Note_on_c, 2, 57, 0
8, 58020, Note_on_c, 2, 57, 113
8, 58037, Note_on_c, 2, 57, 0
8, 58050, Note_on_c, 2, 57, 103
8, 58066, Note_on_c, 2, 57, 0
8, 58080, Note_on_c, 2, 60, 103
8, 58097, Note_on_c, 2, 60, 0
8, 58110, Note_on_c, 2, 60, 101
8, 58125, Note_on_c, 2, 60, 0
8, 58170, Note_on_c, 2, 60, 100
8, 58189, Note_on_c, 2, 60, 0
8, 58200, Note_on_c, 2, 60, 97
8, 58210, Note_on_c, 2, 60, 0
8, 58260, Note_on_c, 2, 60, 101
8, 58272, Note_on_c, 2, 60, 0
8, 58290, Note_on_c, 2, 60, 98
8, 58302, Note_on_c, 2, 60, 0
8, 58320, Note_on_c, 2, 60, 100
8, 58339, Note_on_c, 2, 60, 0
8, 58350, Note_on_c, 2, 60, 101
8, 58367, Note_on_c, 2, 60, 0
8, 58410, Note_on_c, 2, 60, 101
8, 58429, Note_on_c, 2, 60, 0
8, 58440, Note_on_c, 2, 60, 96
8, 58454, Note_on_c, 2, 60, 0
8, 58500, Note_on_c, 2, 60, 102
8, 58517, Note_on_c, 2, 60, 0
8, 58530, Note_on_c, 2, 60, 102
8, 58545, Note_on_c, 2, 60, 0
8, 58560, Note_on_c, 2, 53, 101
8, 58577, Note_on_c, 2, 53, 0
8, 58590, Note_on_c, 2, 53, 93
8, 58600, Note_on_c, 2, 53, 0
8, 58650, Note_on_c, 2, 53, 100
8, 58669, Note_on_c, 2, 53, 0
8, 58680, Note_on_c, 2, 53, 101
8, 58696, Note_on_c, 2, 53, 0
8, 58740, Note_on_c, 2, 53, 103
8, 58754, Note_on_c, 2, 53, 0
8, 58770, Note_on_c, 2, 53, 98
8, 58785, Note_on_c, 2, 53, 0
8, 58800, Note_on_c, 2, 53, 108
8, 58819, Note_on_c, 2, 53, 0
8, 58830, Note_on_c, 2, 53, 100
8, 58847, Note_on_c, 2, 53, 0
8, 58890, Note_on_c, 2, 53, 101
8, 58907, Note_on_c, 2, 53, 0
8, 58920, Note_on_c, 2, 53, 96
8, 58940, Note_on_c, 2, 53, 0
8, 58980, Note_on_c, 2, 53, 101
8, 59000, Note_on_c, 2, 53, 0
8, 59010, Note_on_c, 2, 53, 102
8, 59024, Note_on_c, 2, 53, 0
8, 59040, Note_on_c, 2, 50, 100
8, 59057, Note_on_c, 2, 50, 0
8, 59070, Note_on_c, 2, 50, 101
8, 59084, Note_on_c, 2, 50, 0
8, 59130, Note_on_c, 2, 50, 100
8, 59151, Note_on_c, 2, 50, 0
8, 59160, Note_on_c, 2, 50, 100
8, 59174, Note_on_c, 2, 50, 0
8, 59220, Note_on_c, 2, 50, 103
8, 59237, Note_on_c, 2, 50, 0
8, 59250, Note_on_c, 2, 50, 103
8, 59267, Note_on_c, 2, 50, 0
8, 59280, Note_on_c, 2, 52, 115
8, 59299, Note_on_c, 2, 52, 0
8, 59310, Note_on_c, 2, 52, 103
8, 59327, Note_on_c, 2, 52, 0
8, 59370, Note_on_c, 2, 52, 113
8, 59389, Note_on_c, 2, 52, 0
8, 59400, Note_on_c, 2, 52, 103
8, 59419, Note_on_c, 2, 52, 0
8, 59460, Note_on_c, 2, 52, 115
8, 59479, Note_on_c, 2, 52, 0
8, 59490, Note_on_c, 2, 52, 101
8, 59502, Note_on_c, 2, 52, 0
8, 63360, Note_on_c, 2, 57, 115
8, 63374, Note_on_c, 2, 57, 0
8, 63390, Note_on_c, 2, 57, 106
8, 63410, Note_on_c, 2, 57, 0
8, 63450, Note_on_c, 2, 57, 115
8, 63464, Note_on_c, 2, 57, 0
8, 63480, Note_on_c, 2, 57, 110
8, 63497, Note_on_c, 2, 57, 0
8, 63540, Note_on_c, 2, 57, 117
8, 63552, Note_on_c, 2, 57, 0
8, 63570, Note_on_c, 2, 57, 110
8, 63587, Note_on_c, 2, 57, 0
8, 63600, Note_on_c, 2, 57, 113
8, 63619, Note_on_c, 2, 57, 0
8, 63630, Note_on_c, 2, 57, 102
8, 63647, Note_on_c, 2, 57, 0
8, 63690, Note_on_c, 2, 57, 115
8, 63707, Note_on_c, 2, 57, 0
8, 63720, Note_on_c, 2, 57, 105
8, 63737, Note_on_c, 2, 57, 0
8, 63780, Note_on_c, 2, 57, 113
8, 63797, Note_on_c, 2, 57, 0
8, 63810, Note_on_c, 2, 57, 103
8, 63826, Note_on_c, 2, 57, 0
8, 63840, Note_on_c, 2, 60, 103
8, 63857, Note_on_c, 2, 60, 0
8, 63870, Note_on_c, 2, 60, 101
8, 63885, Note_on_c, 2, 60, 0
8, 63930, Note_on_c, 2, 60, 100
8, 63949, Note_on_c, 2, 60, 0
8, 63960, Note_on_c, 2, 60, 97
8, 63970, Note_on_c, 2, 60, 0
8, 64020, Note_on_c, 2, 60, 101
8, 64032, Note_on_c, 2, 60, 0
8, 64050, Note_on_c, 2, 60, 98
8, 64062, Note_on_c, 2, 60, 0
8, 64080, Note_on_c, 2, 60, 100
8, 64099, Note_on_c, 2, 60, 0
8, 64110, Note_on_c, 2, 60, 101
8, 64127, Note_on_c, 2, 60, 0
8, 64170, Note_on_c, 2, 60, 101
8, 64189, Note_on_c, 2, 60, 0
8, 64200, Note_on_c, 2, 60, 96
8, 64214, Note_on_c, 2, 60, 0
8, 64260, Note_on_c, 2, 60, 102
8, 64277, Note_on_c, 2, 60, 0
8, 64290, Note_on_c, 2, 60, 102
8, 64305, Note_on_c, 2, 60, 0
8, 64320, Note_on_c, 2, 53, 101
8, 64337, Note_on_c, 2, 53, 0
8, 64350, Note_on_c, 2, 53, 93
8, 64360, Note_on_c, 2, 53, 0
8, 64410, Note_on_c, 2, 53, 100
8, 64429, Note_on_c, 2, 53, 0
8, 64440, Note_on_c, 2, 53, 101
8, 64456, Note_on_c, 2, 53, 0
8, 64500, Note_on_c, 2, 53, 103
8, 64514, Note_on_c, 2, 53, 0
8, 64530, Note_on_c, 2, 53, 98
8, 64545, Note_on_c, 2, 53, 0
8, 64560, Note_on_c, 2, 53, 108
8, 64579, Note_on_c, 2, 53, 0
8, 64590, Note_on_c, 2, 53, 100
8, 64607, Note_on_c, 2, 53, 0
8, 64650, Note_on_c, 2, 53, 101
8, 64667, Note_on_c, 2, 53, 0
8, 64680, Note_on_c, 2, 53, 96
8, 64700, Note_on_c, 2, 53, 0
8, 64740, Note_on_c, 2, 53, 101
8, 64760, Note_on_c, 2, 53, 0
8, 64770, Note_on_c, 2, 53, 102
8, 64784, Note_on_c, 2, 53, 0
8, 64800, Note_on_c, 2, 50, 100
8, 64817, Note_on_c, 2, 50, 0
8, 64830, Note_on_c, 2, 50, 101
8, 64844, Note_on_c, 2, 50, 0
8, 64890, Note_on_c, 2, 50, 100
8, 64911, Note_on_c, 2, 50, 0
8, 64920, Note_on_c, 2, 50, 100
8, 64934, Note_on_c, 2, 50, 0
8, 64980, Note_on_c, 2, 50, 103
8, 64997, Note_on_c, 2, 50, 0
8, 65010, Note_on_c, 2, 50, 103
8, 65027, Note_on_c, 2, 50, 0
8, 65040, Note_on_c, 2, 52, 115
8, 65059, Note_on_c, 2, 52, 0
8, 65070, Note_on_c, 2, 52, 103
8, 65087, Note_on_c, 2, 52, 0
8, 65130, Note_on_c, 2, 52, 113
8, 65149, Note_on_c, 2, 52, 0
8, 65160, Note_on_c, 2, 52, 103
8, 65179, Note_on_c, 2, 52, 0
8, 65220, Note_on_c, 2, 52, 115
8, 65239, Note_on_c, 2, 52, 0
8, 65250, Note_on_c, 2, 52, 101
8, 65262, Note_on_c, 2, 52, 0
8, 65280, Note_on_c, 2, 57, 115
8, 65294, Note_on_c, 2, 57, 0
8, 65310, Note_on_c, 2, 57, 106
8, 65330, Note_on_c, 2, 57, 0
8, 65370, Note_on_c, 2, 57, 115
8, 65384, Note_on_c, 2, 57, 0
8, 65400, Note_on_c, 2, 57, 110
8, 65417, Note_on_c, 2, 57, 0
8, 65460, Note_on_c, 2, 57, 117
8, 65472, Note_on_c, 2, 57, 0
8, 65490, Note_on_c, 2, 57, 110
8, 65507, Note_on_c, 2, 57, 0
8, 65520, Note_on_c, 2, 57, 113
8, 65539, Note_on_c, 2, 57, 0
8, 65550, Note_on_c, 2, 57, 102
8, 65567, Note_on_c, 2, 57, 0
8, 65610, Note_on_c, 2, 57, 115
8, 65627, Note_on_c, 2, 57, 0
8, 65640, Note_on_c, 2, 57, 105
8, 65657, Note_on_c, 2, 57, 0
8, 65700, Note_on_c, 2, 57, 113
8, 65717, Note_on_c, 2, 57, 0
8, 65730, Note_on_c, 2, 57, 103
8, 65746, Note_on_c, 2, 57, 0
8, 65760, Note_on_c, 2, 60, 103
8, 65777, Note_on_c, 2, 60, 0
8, 65790, Note_on_c, 2, 60, 101
8, 65805, Note_on_c, 2, 60, 0
8, 65850, Note_on_c, 2, 60, 100
8, 65869, Note_on_c, 2, 60, 0
8, 65880, Note_on_c, 2, 60, 97
8, 65890, Note_on_c, 2, 60, 0
8, 65940, Note_on_c, 2, 60, 101
8, 65952, Note_on_c, 2, 60, 0
8, 65970, Note_on_c, 2, 60, 98
8, 65982, Note_on_c, 2, 60, 0
8, 66000, Note_on_c, 2, 60, 100
8, 66019, Note_on_c, 2, 60, 0
8, 66030, Note_on_c, 2, 60, 101
8, 66047, Note_on_c, 2, 60, 0
8, 66090, Note_on_c, 2, 60, 101
8, 66109, Note_on_c, 2, 60, 0
8, 66120, Note_on_c, 2, 60, 96
8, 66134, Note_on_c, 2, 60, 0
8, 66180, Note_on_c, 2, 60, 102
8, 66197, Note_on_c, 2, 60, 0
8, 66210, Note_on_c, 2, 60, 102
8, 66225, Note_on_c, 2, 60, 0
8, 66240, Note_on_c, 2, 53, 101
8, 66257, Note_on_c, 2, 53, 0
8, 66270, Note_on_c, 2, 53, 93
8, 66280, Note_on_c, 2, 53, 0
8, 66330, Note_on_c, 2, 53, 100
8, 66349, Note_on_c, 2, 53, 0
8, 66360, Note_on_c, 2, 53, 101
8, 66376, Note_on_c, 2, 53, 0
8, 66420, Note_on_c, 2, 53, 103
8, 66434, Note_on_c, 2, 53, 0
8, 66450, Note_on_c, 2, 53, 98
8, 66465, Note_on_c, 2, 53, 0
8, 66480, Note_on_c, 2, 53, 108
8, 66499, Note_on_c, 2, 53, 0
8, 66510, Note_on_c, 2, 53, 100
8, 66527, Note_on_c, 2, 53, 0
8, 66570, Note_on_c, 2, 53, 101
8, 66587, Note_on_c, 2, 53, 0
8, 66600, Note_on_c, 2, 53, 96
8, 66620, Note_on_c, 2, 53, 0
8, 66660, Note_on_c, 2, 53, 101
8, 66680, Note_on_c, 2, 53, 0
8, 66690, Note_on_c, 2, 53, 102
8, 66704, Note_on_c, 2, 53, 0
8, 66720, Note_on_c, 2, 50, 100
8, 66737, Note_on_c, 2, 50, 0
8, 66750, Note_on_c, 2, 50, 101
8, 66764, Note_on_c, 2, 50, 0
8, 66810, Note_on_c, 2, 50, 100
8, 66831, Note_on_c, 2, 50, 0
8, 66840, Note_on_c, 2, 50, 100
8, 66854, Note_on_c, 2, 50, 0
8, 66900, Note_on_c, 2, 50, 103
8, 66917, Note_on_c, 2, 50, 0
8, 66930, Note_on_c, 2, 50, 103
8, 66947, Note_on_c, 2, 50, 0
8, 66960, Note_on_c, 2, 52, 115
8, 66979, Note_on_c, 2, 52, 0
8, 66990, Note_on_c, 2, 52, 103
8, 67007, Note_on_c, 2, 52, 0
8, 67050, Note_on_c, 2, 52, 113
8, 67069, Note_on_c, 2, 52, 0
8, 67080, Note_on_c, 2, 52, 103
8, 67099, Note_on_c, 2, 52, 0
8, 67140, Note_on_c, 2, 52, 115
8, 67159, Note_on_c, 2, 52, 0
8, 67170, Note_on_c, 2, 52, 101
8, 67182, Note_on_c, 2, 52, 0
8, 92640, Note_on_c, 2, 57, 115
8, 92654, Note_on_c, 2, 57, 0
8, 92670, Note_on_c, 2, 57, 106
8, 92690, Note_on_c, 2, 57, 0
8, 92730, Note_on_c, 2, 57, 115
8, 92744, Note_on_c, 2, 57, 0
8, 92760, Note_on_c, 2, 57, 110
8, 92777, Note_on_c, 2, 57, 0
8, 92820, Note_on_c, 2, 57, 117
8, 92832, Note_on_c, 2, 57, 0
8, 92850, Note_on_c, 2, 57, 110
8, 92867, Note_on_c, 2, 57, 0
8, 92880, Note_on_c, 2, 57, 113
8, 92899, Note_on_c, 2, 57, 0
8, 92910, Note_on_c, 2, 57, 102
8, 92927, Note_on_c, 2, 57, 0
8, 92970, Note_on_c, 2, 57, 115
8, 92987, Note_on_c, 2, 57, 0
8, 93000, Note_on_c, 2, 57, 105
8, 93017, Note_on_c, 2, 57, 0
8, 93060, Note_on_c, 2, 57, 113
8, 93077, Note_on_c, 2, 57, 0
8, 93090, Note_on_c, 2, 57, 103
8, 93106, Note_on_c, 2, 57, 0
8, 93120, Note_on_c, 2, 60, 103
8, 93137, Note_on_c, 2, 60, 0
8, 93150, Note_on_c, 2, 60, 101
8, 93165, Note_on_c, 2, 60, 0
8, 93210, Note_on_c, 2, 60, 100
8, 93229, Note_on_c, 2, 60, 0
8, 93240, Note_on_c, 2, 60, 97
8, 93250, Note_on_c, 2, 60, 0
8, 93300, Note_on_c, 2, 60, 101
8, 93312, Note_on_c, 2, 60, 0
8, 93330, Note_on_c, 2, 60, 98
8, 93342, Note_on_c, 2, 60, 0
8, 93360, Note_on_c, 2, 60, 100
8, 93379, Note_on_c, 2, 60, 0
8, 93390, Note_on_c, 2, 60, 101
8, 93407, Note_on_c, 2, 60, 0
8, 93450, Note_on_c, 2, 60, 101
8, 93469, Note_on_c, 2, 60, 0
8, 93480, Note_on_c, 2, 60, 96
8, 93494, Note_on_c, 2, 60, 0
8, 93540, Note_on_c, 2, 60, 102
8, 93557, Note_on_c, 2, 60, 0
8, 93570, Note_on_c, 2, 60, 102
8, 93585, Note_on_c, 2, 60, 0
8, 93600, Note_on_c, 2, 53, 101
8, 93617, Note_on_c, 2, 53, 0
8, 93630, Note_on_c, 2, 53, 93
8, 93640, Note_on_c, 2, 53, 0
8, 93690, Note_on_c, 2, 53, 100
8, 93709, Note_on_c, 2, 53, 0
8, 93720, Note_on_c, 2, 53, 101
8, 93736, Note_on_c, 2, 53, 0
8, 93780, Note_on_c, 2, 53, 103
8, 93794, Note_on_c, 2, 53, 0
8, 93810, Note_on_c, 2, 53, 98
8, 93825, Note_on_c, 2, 53, 0
8, 93840, Note_on_c, 2, 53, 108
8, 93859, Note_on_c, 2, 53, 0
8, 93870, Note_on_c, 2, 53, 100
8, 93887, Note_on_c, 2, 53, 0
8, 93930, Note_on_c, 2, 53, 101
8, 93947, Note_on_c, 2, 53, 0
8, 93960, Note_on_c, 2, 53, 96
8, 93980, Note_on_c, 2, 53, 0
8, 94020, Note_on_c, 2, 53, 101
8, 94040, Note_on_c, 2, 53, 0
8, 94050, Note_on_c, 2, 53, 102
8, 94064, Note_on_c, 2, 53, 0
8, 94080, Note_on_c, 2, 50, 100
8, 94097, Note_on_c, 2, 50, 0
8, 94110, Note_on_c, 2, 50, 101
8, 94124, Note_on_c, 2, 50, 0
8, 94170, Note_on_c, 2, 50, 100
8, 94191, Note_on_c, 2, 50, 0
8, 94200, Note_on_c, 2, 50, 100
8, 94214, Note_on_c, 2, 50, 0
8, 94260, Note_on_c, 2, 50, 103
8, 94277, Note_on_c, 2, 50, 0
8, 94290, Note_on_c, 2, 50, 103
8, 94307, Note_on_c, 2, 50, 0
8, 94320, Note_on_c, 2, 52, 115
8, 94339, Note_on_c, 2, 52, 0
8, 94350, Note_on_c, 2, 52, 103
8, 94367, Note_on_c, 2, 52, 0
8, 94410, Note_on_c, 2, 52, 113
8, 94429, Note_on_c, 2, 52, 0
8, 94440, Note_on_c, 2, 52, 103
8, 94459, Note_on_c, 2, 52, 0
8, 94500, Note_on_c, 2, 52, 115
8, 94519, Note_on_c, 2, 52, 0
8, 94530, Note_on_c, 2, 52, 101
8, 94542, Note_on_c, 2, 52, 0
8, 94560, Note_on_c, 2, 57, 115
8, 94574, Note_on_c, 2, 57, 0
8, 94590, Note_on_c, 2, 57, 106
8, 94610, Note_on_c, 2, 57, 0
8, 94650, Note_on_c, 2, 57, 115
8, 94664, Note_on_c, 2, 57, 0
8, 94680, Note_on_c, 2, 57, 110
8, 94697, Note_on_c, 2, 57, 0
8, 94740, Note_on_c, 2, 57, 117
8, 94752, Note_on_c, 2, 57, 0
8, 94770, Note_on_c, 2, 57, 110
8, 94787, Note_on_c, 2, 57, 0
8, 94800, Note_on_c, 2, 57, 113
8, 94819, Note_on_c, 2, 57, 0
8, 94830, Note_on_c, 2, 57, 102
8, 94847, Note_on_c, 2, 57, 0
8, 94890, Note_on_c, 2, 57, 115
8, 94907, Note_on_c, 2, 57, 0
8, 94920, Note_on_c, 2, 57, 105
8, 94937, Note_on_c, 2, 57, 0
8, 94980, Note_on_c, 2, 57, 113
8, 94997, Note_on_c, 2, 57, 0
8, 95010, Note_on_c, 2, 57, 103
8, 95026, Note_on_c, 2, 57, 0
8, 95040, Note_on_c, 2, 60, 103
8, 95057, Note_on_c, 2, 60, 0
8, 95070, Note_on_c, 2, 60, 101
8, 95085, Note_on_c, 2, 60, 0
8, 95130, Note_on_c, 2, 60, 100
8, 95149, Note_on_c, 2, 60, 0
8, 95160, Note_on_c, 2, 60, 97
8, 95170, Note_on_c, 2, 60, 0
8, 95220, Note_on_c, 2, 60, 101
8, 95232, Note_on_c, 2, 60, 0
8, 95250, Note_on_c, 2, 60, 98
8, 95262, Note_on_c, 2, 60, 0
8, 95280, Note_on_c, 2, 60, 100
8, 95299, Note_on_c, 2, 60, 0
8, 95310, Note_on_c, 2, 60, 101
8, 95327, Note_on_c, 2, 60, 0
8, 95370, Note_on_c, 2, 60, 101
8, 95389, Note_on_c, 2, 60, 0
8, 95400, Note_on_c, 2, 60, 96
8, 95414, Note_on_c, 2, 60, 0
8, 95460, Note_on_c, 2, 60, 102
8, 95477, Note_on_c, 2, 60, 0
8, 95490, Note_on_c, 2, 60, 102
8, 95505, Note_on_c, 2, 60, 0
8, 95520, Note_on_c, 2, 53, 101
8, 95537, Note_on_c, 2, 53, 0
8, 95550, Note_on_c, 2, 53, 93
8, 95560, Note_on_c, 2, 53, 0
8, 95610, Note_on_c, 2, 53, 100
8, 95629, Note_on_c, 2, 53, 0
8, 95640, Note_on_c, 2, 53, 101
8, 95656, Note_on_c, 2, 53, 0
8, 95700, Note_on_c, 2, 53, 103
8, 95714, Note_on_c, 2, 53, 0
8, 95730, Note_on_c, 2, 53, 98
8, 95745, Note_on_c, 2, 53, 0
8, 95760, Note_on_c, 2, 53, 108
8, 95779, Note_on_c, 2, 53, 0
8, 95790, Note_on_c, 2, 53, 100
8, 95807, Note_on_c, 2, 53, 0
8, 95850, Note_on_c, 2, 53, 101
8, 95867, Note_on_c, 2, 53, 0
8, 95880, Note_on_c, 2, 53, 96
8, 95900, Note_on_c, 2, 53, 0
8, 95940, Note_on_c, 2, 53, 101
8, 95960, Note_on_c, 2, 53, 0
8, 95970, Note_on_c, 2, 53, 102
8, 95984, Note_on_c, 2, 53, 0
8, 96000, Note_on_c, 2, 50, 100
8, 96017, Note_on_c, 2, 50, 0
8, 96030, Note_on_c, 2, 50, 101
8, 96044, Note_on_c, 2, 50, 0
8, 96090, Note_on_c, 2, 50, 100
8, 96111, Note_on_c, 2, 50, 0
8, 96120, Note_on_c, 2, 50, 100
8, 96134, Note_on_c, 2, 50, 0
8, 96180, Note_on_c, 2, 50, 103
8, 96197, Note_on_c, 2, 50, 0
8, 96210, Note_on_c, 2, 50, 103
8, 96227, Note_on_c, 2, 50, 0
8, 96240, Note_on_c, 2, 52, 115
8, 96259, Note_on_c, 2, 52, 0
8, 96270, Note_on_c, 2, 52, 103
8, 96287, Note_on_c, 2, 52, 0
8, 96330, Note_on_c, 2, 52, 113
8, 96349, Note_on_c, 2, 52, 0
8, 96360, Note_on_c, 2, 52, 103
8, 96379, Note_on_c, 2, 52, 0
8, 96420, Note_on_c, 2, 52, 115
8, 96439, Note_on_c, 2, 52, 0
8, 96450, Note_on_c, 2, 52, 101
8, 96462, Note_on_c, 2, 52, 0
8, 96480, Note_on_c, 2, 57, 115
8, 96494, Note_on_c, 2, 57, 0
8, 96510, Note_on_c, 2, 57, 106
8, 96530, Note_on_c, 2, 57, 0
8, 96570, Note_on_c, 2, 57, 115
8, 96584, Note_on_c, 2, 57, 0
8, 96600, Note_on_c, 2, 57, 110
8, 96617, Note_on_c, 2, 57, 0
8, 96660, Note_on_c, 2, 57, 117
8, 96672, Note_on_c, 2, 57, 0
8, 96690, Note_on_c, 2, 57, 110
8, 96707, Note_on_c, 2, 57, 0
8, 96720, Note_on_c, 2, 57, 113
8, 96739, Note_on_c, 2, 57, 0
8, 96750, Note_on_c, 2, 57, 102
8, 96767, Note_on_c, 2, 57, 0
8, 96810, Note_on_c, 2, 57, 115
8, 96827, Note_on_c, 2, 57, 0
8, 96840, Note_on_c, 2, 57, 105
8, 96857, Note_on_c, 2, 57, 0
8, 96900, Note_on_c, 2, 57, 113
8, 96917, Note_on_c, 2, 57, 0
8, 96930, Note_on_c, 2, 57, 103
8, 96946, Note_on_c, 2, 57, 0
8, 96960, Note_on_c, 2, 60, 103
8, 96977, Note_on_c, 2, 60, 0
8, 96990, Note_on_c, 2, 60, 101
8, 97005, Note_on_c, 2, 60, 0
8, 97050, Note_on_c, 2, 60, 100
8, 97069, Note_on_c, 2, 60, 0
8, 97080, Note_on_c, 2, 60, 97
8, 97090, Note_on_c, 2, 60, 0
8, 97140, Note_on_c, 2, 60, 101
8, 97152, Note_on_c, 2, 60, 0
8, 97170, Note_on_c, 2, 60, 98
8, 97182, Note_on_c, 2, 60, 0
8, 97200, Note_on_c, 2, 60, 100
8, 97219, Note_on_c, 2, 60, 0
8, 97230, Note_on_c, 2, 60, 101
8, 97247, Note_on_c, 2, 60, 0
8, 97290, Note_on_c, 2, 60, 101
8, 97309, Note_on_c, 2, 60, 0
8, 97320, Note_on_c, 2, 60, 96
8, 97334, Note_on_c, 2, 60, 0
8, 97380, Note_on_c, 2, 60, 102
8, 97397, Note_on_c, 2, 60, 0
8, 97410, Note_on_c, 2, 60, 102
8, 97425, Note_on_c, 2, 60, 0
8, 97440, Note_on_c, 2, 53, 101
8, 97457, Note_on_c, 2, 53, 0
8, 97470, Note_on_c, 2, 53, 93
8, 97480, Note_on_c, 2, 53, 0
8, 97530, Note_on_c, 2, 53, 100
8, 97549, Note_on_c, 2, 53, 0
8, 97560, Note_on_c, 2, 53, 101
8, 97576, Note_on_c, 2, 53, 0
8, 97620, Note_on_c, 2, 53, 103
8, 97634, Note_on_c, 2, 53, 0
8, 97650, Note_on_c, 2, 53, 98
8, 97665, Note_on_c, 2, 53, 0
8, 97680, Note_on_c, 2, 53, 108
8, 97699, Note_on_c, 2, 53, 0
8, 97710, Note_on_c, 2, 53, 100
8, 97727, Note_on_c, 2, 53, 0
8, 97770, Note_on_c, 2, 53, 101
8, 97787, Note_on_c, 2, 53, 0
8, 97800, Note_on_c, 2, 53, 96
8, 97820, Note_on_c, 2, 53, 0
8, 97860, Note_on_c, 2, 53, 101
8, 97880, Note_on_c, 2, 53, 0
8, 97890, Note_on_c, 2, 53, 102
8, 97904, Note_on_c, 2, 53, 0
8, 97920, Note_on_c, 2, 50, 100
8, 97937, Note_on_c, 2, 50, 0
8, 97950, Note_on_c, 2, 50, 101
8, 97964, Note_on_c, 2, 50, 0
8, 98010, Note_on_c, 2, 50, 100
8, 98031, Note_on_c, 2, 50, 0
8, 98040, Note_on_c, 2, 50, 100
8, 98054, Note_on_c, 2, 50, 0
8, 98100, Note_on_c, 2, 50, 103
8, 98117, Note_on_c, 2, 50, 0
8, 98130, Note_on_c, 2, 50, 103
8, 98147, Note_on_c, 2, 50, 0
8, 98160, Note_on_c, 2, 52, 115
8, 98179, Note_on_c, 2, 52, 0
8, 98190, Note_on_c, 2, 52, 103
8, 98207, Note_on_c, 2, 52, 0
8, 98250, Note_on_c, 2, 52, 113
8, 98269, Note_on_c, 2, 52, 0
8, 98280, Note_on_c, 2, 52, 103
8, 98299, Note_on_c, 2, 52, 0
8, 98340, Note_on_c, 2, 52, 115
8, 98359, Note_on_c, 2, 52, 0
8, 98370, Note_on_c, 2, 52, 101
8, 98382, Note_on_c, 2, 52, 0
8, 98400, Note_on_c, 2, 57, 115
8, 98414, Note_on_c, 2, 57, 0
8, 98430, Note_on_c, 2, 57, 106
8, 98450, Note_on_c, 2, 57, 0
8, 98490, Note_on_c, 2, 57, 115
8, 98504, Note_on_c, 2, 57, 0
8, 98520, Note_on_c, 2, 57, 110
8, 98537, Note_on_c, 2, 57, 0
8, 98580, Note_on_c, 2, 57, 117
8, 98592, Note_on_c, 2, 57, 0
8, 98610, Note_on_c, 2, 57, 110
8, 98627, Note_on_c, 2, 57, 0
8, 98640, Note_on_c, 2, 57, 113
8, 98659, Note_on_c, 2, 57, 0
8, 98670, Note_on_c, 2, 57, 102
8, 98687, Note_on_c, 2, 57, 0
8, 98730, Note_on_c, 2, 57, 115
8, 98747, Note_on_c, 2, 57, 0
8, 98760, Note_on_c, 2, 57, 105
8, 98777, Note_on_c, 2, 57, 0
8, 98820, Note_on_c, 2, 57, 113
8, 98837, Note_on_c, 2, 57, 0
8, 98850, Note_on_c, 2, 57, 103
8, 98866, Note_on_c, 2, 57, 0
8, 98880, Note_on_c, 2, 60, 103
8, 98897, Note_on_c, 2, 60, 0
8, 98910, Note_on_c, 2, 60, 101
8, 98925, Note_on_c, 2, 60, 0
8, 98970, Note_on_c, 2, 60, 100
8, 98989, Note_on_c, 2, 60, 0
8, 99000, Note_on_c, 2, 60, 97
8, 99010, Note_on_c, 2, 60, 0
8, 99060, Note_on_c, 2, 60, 101
8, 99072, Note_on_c, 2, 60, 0
8, 99090, Note_on_c, 2, 60, 98
8, 99102, Note_on_c, 2, 60, 0
8, 99120, Note_on_c, 2, 60, 100
8, 99139, Note_on_c, 2, 60, 0
8, 99150, Note_on_c, 2, 60, 101
8, 99167, Note_on_c, 2, 60, 0
8, 99210, Note_on_c, 2, 60, 101
8, 99229, Note_on_c, 2, 60, 0
8, 99240, Note_on_c, 2, 60, 96
8, 99254, Note_on_c, 2, 60, 0
8, 99300, Note_on_c, 2, 60, 102
8, 99317, Note_on_c, 2, 60, 0
8, 99330, Note_on_c, 2, 60, 102
8, 99345, Note_on_c, 2, 60, 0
8, 99360, Note_on_c, 2, 53, 101
8, 99377, Note_on_c, 2, 53, 0
8, 99390, Note_on_c, 2, 53, 93
8, 99400, Note_on_c, 2, 53, 0
8, 99450, Note_on_c, 2, 53, 100
8, 99469, Note_on_c, 2, 53, 0
8, 99480, Note_on_c, 2, 53, 101
8, 99496, Note_on_c, 2, 53, 0
8, 99540, Note_on_c, 2, 53, 103
8, 99554, Note_on_c, 2, 53, 0
8, 99570, Note_on_c, 2, 53, 98
8, 99585, Note_on_c, 2, 53, 0
8, 99600, Note_on_c, 2, 53, 108
8, 99619, Note_on_c, 2, 53, 0
8, 99630, Note_on_c, 2, 53, 100
8, 99647, Note_on_c, 2, 53, 0
8, 99690, Note_on_c, 2, 53, 101
8, 99707, Note_on_c, 2, 53, 0
8, 99720, Note_on_c, 2, 53, 96
8, 99740, Note_on_c, 2, 53, 0
8, 99780, Note_on_c, 2, 53, 101
8, 99800, Note_on_c, 2, 53, 0
8, 99810, Note_on_c, 2, 53, 102
8, 99824, Note_on_c, 2, 53, 0
8, 99840, Note_on_c, 2, 50, 100
8, 99857, Note_on_c, 2, 50, 0
8, 99870, Note_on_c, 2, 50, 101
8, 99884, Note_on_c, 2, 50, 0
8, 99930, Note_on_c, 2, 50, 100
8, 99951, Note_on_c, 2, 50, 0
8, 99960, Note_on_c, 2, 50, 100
8, 99974, Note_on_c, 2, 50, 0
8, 100020, Note_on_c, 2, 50, 103
8, 100037, Note_on_c, 2, 50, 0
8, 100050, Note_on_c, 2, 50, 103
8, 100067, Note_on_c, 2, 50, 0
8, 100080, Note_on_c, 2, 52, 115
8, 100099, Note_on_c, 2, 52, 0
8, 100110, Note_on_c, 2, 52, 103
8, 100127, Note_on_c, 2, 52, 0
8, 100170, Note_on_c, 2, 52, 113
8, 100189, Note_on_c, 2, 52, 0
8, 100200, Note_on_c, 2, 52, 103
8, 100219, Note_on_c, 2, 52, 0
8, 100260, Note_on_c, 2, 52, 115
8, 100279, Note_on_c, 2, 52, 0
8, 100290, Note_on_c, 2, 52, 101
8, 100302, Note_on_c, 2, 52, 0
8, 100302, End_track
9, 0, Start_track
9, 0, MIDI_port, 0
9, 0, Title_t, "Shamisen"
9, 0, Control_c, 13, 0, 0
9, 0, Program_c, 13, 106
9, 0, Control_c, 13, 7, 127
9, 0, Control_c, 13, 10, 64
9, 0, Control_c, 13, 121, 0
9, 0, Control_c, 13, 91, 0
9, 2460, Note_on_c, 13, 67, 100
9, 2475, Note_on_c, 13, 67, 0
9, 2520, Note_on_c, 13, 69, 100
9, 2535, Note_on_c, 13, 69, 0
9, 2640, Note_on_c, 13, 67, 100
9, 2655, Note_on_c, 13, 67, 0
9, 2700, Note_on_c, 13, 69, 100
9, 2715, Note_on_c, 13, 69, 0
9, 2940, Note_on_c, 13, 67, 100
9, 2955, Note_on_c, 13, 67, 0
9, 3000, Note_on_c, 13, 69, 100
9, 3015, Note_on_c, 13, 69, 0
9, 3120, Note_on_c, 13, 67, 100
9, 3135, Note_on_c, 13, 67, 0
9, 3180, Note_on_c, 13, 69, 100
9, 3195, Note_on_c, 13, 69, 0
9, 3420, Note_on_c, 13, 67, 100
9, 3435, Note_on_c, 13, 67, 0
9, 3480, Note_on_c, 13, 69, 100
9, 3495, Note_on_c, 13, 69, 0
9, 3600, Note_on_c, 13, 67, 100
9, 3615, Note_on_c, 13, 67, 0
9, 3660, Note_on_c, 13, 69, 100
9, 3675, Note_on_c, 13, 69, 0
9, 3900, Note_on_c, 13, 67, 100
9, 3915, Note_on_c, 13, 67, 0
9, 3960, Note_on_c, 13, 69, 100
9, 3975, Note_on_c, 13, 69, 0
9, 4020, Note_on_c, 13, 67, 100
9, 4035, Note_on_c, 13, 67, 0
9, 4080, Note_on_c, 13, 72, 100
9, 4095, Note_on_c, 13, 72, 0
9, 4110, Note_on_c, 13, 72, 100
9, 4125, Note_on_c, 13, 72, 0
9, 4140, Note_on_c, 13, 71, 100
9, 4155, Note_on_c, 13, 71, 0
9, 4200, Note_on_c, 13, 69, 100
9, 4215, Note_on_c, 13, 69, 0
9, 4260, Note_on_c, 13, 67, 100
9, 4275, Note_on_c, 13, 67, 0
9, 4290, Note_on_c, 13, 69, 100
9, 4305, Note_on_c, 13, 69, 0
9, 4380, Note_on_c, 13, 67, 100
9, 4395, Note_on_c, 13, 67, 0
9, 4440, Note_on_c, 13, 69, 100
9, 4455, Note_on_c, 13, 69, 0
9, 4560, Note_on_c, 13, 67, 100
9, 4575, Note_on_c, 13, 67, 0
9, 4620, Note_on_c, 13, 69, 100
9, 4635, Note_on_c, 13, 69, 0
9, 4860, Note_on_c, 13, 67, 100
9, 4875, Note_on_c, 13, 67, 0
9, 4920, Note_on_c, 13, 69, 100
9, 4935, Note_on_c, 13, 69, 0
9, 5040, Note_on_c, 13, 67, 100
9, 5055, Note_on_c, 13, 67, 0
9, 5100, Note_on_c, 13, 69, 100
9, 5115, Note_on_c, 13, 69, 0
9, 5340, Note_on_c, 13, 67, 100
9, 5355, Note_on_c, 13, 67, 0
9, 5400, Note_on_c, 13, 69, 100
9, 5415, Note_on_c, 13, 69, 0
9, 5520, Note_on_c, 13, 67, 100
9, 5535, Note_on_c, 13, 67, 0
9, 5580, Note_on_c, 13, 69, 100
9, 5595, Note_on_c, 13, 69, 0
9, 5820, Note_on_c, 13, 67, 100
9, 5835, Note_on_c, 13, 67, 0
9, 5880, Note_on_c, 13, 69, 100
9, 5895, Note_on_c, 13, 69, 0
9, 5940, Note_on_c, 13, 67, 100
9, 5955, Note_on_c, 13, 67, 0
9, 6000, Note_on_c, 13, 72, 100
9, 6015, Note_on_c, 13, 72, 0
9, 6030, Note_on_c, 13, 72, 100
9, 6045, Note_on_c, 13, 72, 0
9, 6060, Note_on_c, 13, 71, 100
9, 6075, Note_on_c, 13, 71, 0
9, 6120, Note_on_c, 13, 69, 100
9, 6135, Note_on_c, 13, 69, 0
9, 6180, Note_on_c, 13, 67, 100
9, 6195, Note_on_c, 13, 67, 0
9, 6210, Note_on_c, 13, 69, 100
9, 6225, Note_on_c, 13, 69, 0
9, 6300, Note_on_c, 13, 67, 100
9, 6300, Note_on_c, 13, 67, 100
9, 6315, Note_on_c, 13, 67, 0
9, 6330, Note_on_c, 13, 67, 0
9, 6360, Note_on_c, 13, 69, 100
9, 6360, Note_on_c, 13, 69, 100
9, 6375, Note_on_c, 13, 69, 0
9, 6390, Note_on_c, 13, 69, 0
9, 6480, Note_on_c, 13, 67, 100
9, 6480, Note_on_c, 13, 67, 100
9, 6495, Note_on_c, 13, 67, 0
9, 6510, Note_on_c, 13, 67, 0
9, 6540, Note_on_c, 13, 69, 100
9, 6540, Note_on_c, 13, 69, 100
9, 6555, Note_on_c, 13, 69, 0
9, 6570, Note_on_c, 13, 69, 0
9, 6780, Note_on_c, 13, 67, 100
9, 6780, Note_on_c, 13, 67, 100
9, 6795, Note_on_c, 13, 67, 0
9, 6810, Note_on_c, 13, 67, 0
9, 6840, Note_on_c, 13, 69, 100
9, 6840, Note_on_c, 13, 69, 100
9, 6855, Note_on_c, 13, 69, 0
9, 6870, Note_on_c, 13, 69, 0
9, 6960, Note_on_c, 13, 67, 100
9, 6960, Note_on_c, 13, 67, 100
9, 6975, Note_on_c, 13, 67, 0
9, 6990, Note_on_c, 13, 67, 0
9, 7020, Note_on_c, 13, 69, 100
9, 7020, Note_on_c, 13, 69, 100
9, 7035, Note_on_c, 13, 69, 0
9, 7050, Note_on_c, 13, 69, 0
9, 7260, Note_on_c, 13, 67, 100
9, 7260, Note_on_c, 13, 67, 100
9, 7275, Note_on_c, 13, 67, 0
9, 7290, Note_on_c, 13, 67, 0
9, 7320, Note_on_c, 13, 69, 100
9, 7320, Note_on_c, 13, 69, 100
9, 7335, Note_on_c, 13, 69, 0
9, 7350, Note_on_c, 13, 69, 0
9, 7440, Note_on_c, 13, 67, 100
9, 7440, Note_on_c, 13, 67, 100
9, 7455, Note_on_c, 13, 67, 0
9, 7470, Note_on_c, 13, 67, 0
9, 7500, Note_on_c, 13, 69, 100
9, 7500, Note_on_c, 13, 69, 100
9, 7515, Note_on_c, 13, 69, 0
9, 7530, Note_on_c, 13, 69, 0
9, 7740, Note_on_c, 13, 67, 100
9, 7740, Note_on_c, 13, 67, 100
9, 7755, Note_on_c, 13, 67, 0
9, 7770, Note_on_c, 13, 67, 0
9, 7800, Note_on_c, 13, 69, 100
9, 7800, Note_on_c, 13, 69, 100
9, 7815, Note_on_c, 13, 69, 0
9, 7830, Note_on_c, 13, 69, 0
9, 7860, Note_on_c, 13, 67, 100
9, 7860, Note_on_c, 13, 67, 100
9, 7875, Note_on_c, 13, 67, 0
9, 7890, Note_on_c, 13, 67, 0
9, 7920, Note_on_c, 13, 72, 100
9, 7920, Note_on_c, 13, 72, 100
9, 7935, Note_on_c, 13, 72, 0
9, 7950, Note_on_c, 13, 72, 0
9, 7950, Note_on_c, 13, 72, 100
9, 7950, Note_on_c, 13, 72, 100
9, 7965, Note_on_c, 13, 72, 0
9, 7980, Note_on_c, 13, 72, 0
9, 7980, Note_on_c, 13, 71, 100
9, 7980, Note_on_c, 13, 71, 100
9, 7995, Note_on_c, 13, 71, 0
9, 8010, Note_on_c, 13, 71, 0
9, 8040, Note_on_c, 13, 69, 100
9, 8040, Note_on_c, 13, 69, 100
9, 8055, Note_on_c, 13, 69, 0
9, 8070, Note_on_c, 13, 69, 0
9, 8100, Note_on_c, 13, 67, 100
9, 8100, Note_on_c, 13, 67, 100
9, 8115, Note_on_c, 13, 67, 0
9, 8130, Note_on_c, 13, 67, 0
9, 8130, Note_on_c, 13, 69, 100
9, 8130, Note_on_c, 13, 69, 100
9, 8145, Note_on_c, 13, 69, 0
9, 8160, Note_on_c, 13, 69, 0
9, 8220, Note_on_c, 13, 67, 100
9, 8220, Note_on_c, 13, 67, 100
9, 8235, Note_on_c, 13, 67, 0
9, 8250, Note_on_c, 13, 67, 0
9, 8280, Note_on_c, 13, 69, 100
9, 8280, Note_on_c, 13, 69, 100
9, 8295, Note_on_c, 13, 69, 0
9, 8310, Note_on_c, 13, 69, 0
9, 8400, Note_on_c, 13, 67, 100
9, 8400, Note_on_c, 13, 67, 100
9, 8415, Note_on_c, 13, 67, 0
9, 8430, Note_on_c, 13, 67, 0
9, 8460, Note_on_c, 13, 69, 100
9, 8460, Note_on_c, 13, 69, 100
9, 8475, Note_on_c, 13, 69, 0
9, 8490, Note_on_c, 13, 69, 0
9, 8700, Note_on_c, 13, 67, 100
9, 8700, Note_on_c, 13, 67, 100
9, 8715, Note_on_c, 13, 67, 0
9, 8730, Note_on_c, 13, 67, 0
9, 8760, Note_on_c, 13, 69, 100
9, 8760, Note_on_c, 13, 69, 100
9, 8775, Note_on_c, 13, 69, 0
9, 8790, Note_on_c, 13, 69, 0
9, 8880, Note_on_c, 13, 67, 100
9, 8880, Note_on_c, 13, 67, 100
9, 8895, Note_on_c, 13, 67, 0
9, 8910, Note_on_c, 13, 67, 0
9, 8940, Note_on_c, 13, 69, 100
9, 8940, Note_on_c, 13, 69, 100
9, 8955, Note_on_c, 13, 69, 0
9, 8970, Note_on_c, 13, 69, 0
9, 9180, Note_on_c, 13, 67, 100
9, 9180, Note_on_c, 13, 67, 100
9, 9195, Note_on_c, 13, 67, 0
9, 9210, Note_on_c, 13, 67, 0
9, 9240, Note_on_c, 13, 69, 100
9, 9240, Note_on_c, 13, 69, 100
9, 9255, Note_on_c, 13, 69, 0
9, 9270, Note_on_c, 13, 69, 0
9, 9360, Note_on_c, 13, 67, 100
9, 9360, Note_on_c, 13, 67, 100
9, 9375, Note_on_c, 13, 67, 0
9, 9390, Note_on_c, 13, 67, 0
9, 9420, Note_on_c, 13, 69, 100
9, 9420, Note_on_c, 13, 69, 100
9, 9435, Note_on_c, 13, 69, 0
9, 9450, Note_on_c, 13, 69, 0
9, 9660, Note_on_c, 13, 67, 100
9, 9660, Note_on_c, 13, 67, 100
9, 9675, Note_on_c, 13, 67, 0
9, 9690, Note_on_c, 13, 67, 0
9, 9720, Note_on_c, 13, 69, 100
9, 9720, Note_on_c, 13, 69, 100
9, 9735, Note_on_c, 13, 69, 0
9, 9750, Note_on_c, 13, 69, 0
9, 9780, Note_on_c, 13, 67, 100
9, 9780, Note_on_c, 13, 67, 100
9, 9795, Note_on_c, 13, 67, 0
9, 9810, Note_on_c, 13, 67, 0
9, 9840, Note_on_c, 13, 72, 100
9, 9840, Note_on_c, 13, 72, 100
9, 9855, Note_on_c, 13, 72, 0
9, 9870, Note_on_c, 13, 72, 0
9, 9870, Note_on_c, 13, 72, 100
9, 9870, Note_on_c, 13, 72, 100
9, 9885, Note_on_c, 13, 72, 0
9, 9900, Note_on_c, 13, 72, 0
9, 9900, Note_on_c, 13, 71, 100
9, 9900, Note_on_c, 13, 71, 100
9, 9915, Note_on_c, 13, 71, 0
9, 9930, Note_on_c, 13, 71, 0
9, 9960, Note_on_c, 13, 69, 100
9, 9960, Note_on_c, 13, 69, 100
9, 9975, Note_on_c, 13, 69, 0
9, 9990, Note_on_c, 13, 69, 0
9, 10020, Note_on_c, 13, 67, 100
9, 10020, Note_on_c, 13, 67, 100
9, 10035, Note_on_c, 13, 67, 0
9, 10050, Note_on_c, 13, 67, 0
9, 10050, Note_on_c, 13, 69, 100
9, 10050, Note_on_c, 13, 69, 100
9, 10065, Note_on_c, 13, 69, 0
9, 10080, Note_on_c, 13, 69, 0
9, 31740, Note_on_c, 13, 67, 100
9, 31770, Note_on_c, 13, 67, 0
9, 31800, Note_on_c, 13, 69, 100
9, 31830, Note_on_c, 13, 69, 0
9, 31920, Note_on_c, 13, 67, 100
9, 31950, Note_on_c, 13, 67, 0
9, 31980, Note_on_c, 13, 69, 100
9, 32010, Note_on_c, 13, 69, 0
9, 32220, Note_on_c, 13, 67, 100
9, 32250, Note_on_c, 13, 67, 0
9, 32280, Note_on_c, 13, 69, 100
9, 32310, Note_on_c, 13, 69, 0
9, 32400, Note_on_c, 13, 67, 100
9, 32430, Note_on_c, 13, 67, 0
9, 32460, Note_on_c, 13, 69, 100
9, 32490, Note_on_c, 13, 69, 0
9, 32700, Note_on_c, 13, 67, 100
9, 32730, Note_on_c, 13, 67, 0
9, 32760, Note_on_c, 13, 69, 100
9, 32790, Note_on_c, 13, 69, 0
9, 32880, Note_on_c, 13, 67, 100
9, 32910, Note_on_c, 13, 67, 0
9, 32940, Note_on_c, 13, 69, 100
9, 32970, Note_on_c, 13, 69, 0
9, 33180, Note_on_c, 13, 67, 100
9, 33210, Note_on_c, 13, 67, 0
9, 33240, Note_on_c, 13, 69, 100
9, 33270, Note_on_c, 13, 69, 0
9, 33300, Note_on_c, 13, 67, 100
9, 33330, Note_on_c, 13, 67, 0
9, 33360, Note_on_c, 13, 72, 100
9, 33390, Note_on_c, 13, 72, 0
9, 33390, Note_on_c, 13, 72, 100
9, 33420, Note_on_c, 13, 72, 0
9, 33420, Note_on_c, 13, 71, 100
9, 33450, Note_on_c, 13, 71, 0
9, 33480, Note_on_c, 13, 69, 100
9, 33510, Note_on_c, 13, 69, 0
9, 33540, Note_on_c, 13, 67, 100
9, 33570, Note_on_c, 13, 67, 0
9, 33570, Note_on_c, 13, 69, 100
9, 33600, Note_on_c, 13, 69, 0
9, 69180, Note_on_c, 13, 67, 100
9, 69210, Note_on_c, 13, 67, 0
9, 69240, Note_on_c, 13, 69, 100
9, 69270, Note_on_c, 13, 69, 0
9, 69360, Note_on_c, 13, 67, 100
9, 69390, Note_on_c, 13, 67, 0
9, 69420, Note_on_c, 13, 69, 100
9, 69450, Note_on_c, 13, 69, 0
9, 69660, Note_on_c, 13, 67, 100
9, 69690, Note_on_c, 13, 67, 0
9, 69720, Note_on_c, 13, 69, 100
9, 69750, Note_on_c, 13, 69, 0
9, 69840, Note_on_c, 13, 67, 100
9, 69870, Note_on_c, 13, 67, 0
9, 69900, Note_on_c, 13, 69, 100
9, 69930, Note_on_c, 13, 69, 0
9, 70140, Note_on_c, 13, 67, 100
9, 70170, Note_on_c, 13, 67, 0
9, 70200, Note_on_c, 13, 69, 100
9, 70230, Note_on_c, 13, 69, 0
9, 70320, Note_on_c, 13, 67, 100
9, 70350, Note_on_c, 13, 67, 0
9, 70380, Note_on_c, 13, 69, 100
9, 70410, Note_on_c, 13, 69, 0
9, 70620, Note_on_c, 13, 67, 100
9, 70650, Note_on_c, 13, 67, 0
9, 70680, Note_on_c, 13, 69, 100
9, 70710, Note_on_c, 13, 69, 0
9, 70740, Note_on_c, 13, 67, 100
9, 70770, Note_on_c, 13, 67, 0
9, 70800, Note_on_c, 13, 72, 100
9, 70830, Note_on_c, 13, 72, 0
9, 70830, Note_on_c, 13, 72, 100
9, 70860, Note_on_c, 13, 72, 0
9, 70860, Note_on_c, 13, 71, 100
9, 70890, Note_on_c, 13, 71, 0
9, 70920, Note_on_c, 13, 69, 100
9, 70950, Note_on_c, 13, 69, 0
9, 70980, Note_on_c, 13, 67, 100
9, 71010, Note_on_c, 13, 67, 0
9, 71010, Note_on_c, 13, 69, 100
9, 71040, Note_on_c, 13, 69, 0
9, 71040, End_track
10, 0, Start_track
10, 0, MIDI_port, 0
10, 0, Title_t, "Koto"
10, 0, Control_c, 5, 0, 0
10, 0, Program_c, 5, 107
10, 0, Control_c, 5, 7, 127
10, 0, Control_c, 5, 10, 64
10, 0, Control_c, 5, 121, 0
10, 0, Control_c, 5, 91, 0
10, 2460, Note_on_c, 5, 67, 100
10, 2475, Note_on_c, 5, 67, 0
10, 2520, Note_on_c, 5, 69, 100
10, 2535, Note_on_c, 5, 69, 0
10, 2640, Note_on_c, 5, 67, 100
10, 2655, Note_on_c, 5, 67, 0
10, 2700, Note_on_c, 5, 69, 100
10, 2715, Note_on_c, 5, 69, 0
10, 2940, Note_on_c, 5, 67, 100
10, 2955, Note_on_c, 5, 67, 0
10, 3000, Note_on_c, 5, 69, 100
10, 3015, Note_on_c, 5, 69, 0
10, 3120, Note_on_c, 5, 67, 100
10, 3135, Note_on_c, 5, 67, 0
10, 3180, Note_on_c, 5, 69, 100
10, 3195, Note_on_c, 5, 69, 0
10, 3420, Note_on_c, 5, 67, 100
10, 3435, Note_on_c, 5, 67, 0
10, 3480, Note_on_c, 5, 69, 100
10, 3495, Note_on_c, 5, 69, 0
10, 3600, Note_on_c, 5, 67, 100
10, 3615, Note_on_c, 5, 67, 0
10, 3660, Note_on_c, 5, 69, 100
10, 3675, Note_on_c, 5, 69, 0
10, 3900, Note_on_c, 5, 67, 100
10, 3915, Note_on_c, 5, 67, 0
10, 3960, Note_on_c, 5, 69, 100
10, 3975, Note_on_c, 5, 69, 0
10, 4020, Note_on_c, 5, 67, 100
10, 4035, Note_on_c, 5, 67, 0
10, 4080, Note_on_c, 5, 72, 100
10, 4095, Note_on_c, 5, 72, 0
10, 4110, Note_on_c, 5, 72, 100
10, 4125, Note_on_c, 5, 72, 0
10, 4140, Note_on_c, 5, 71, 100
10, 4155, Note_on_c, 5, 71, 0
10, 4200, Note_on_c, 5, 69, 100
10, 4215, Note_on_c, 5, 69, 0
10, 4260, Note_on_c, 5, 67, 100
10, 4275, Note_on_c, 5, 67, 0
10, 4290, Note_on_c, 5, 69, 100
10, 4305, Note_on_c, 5, 69, 0
10, 4380, Note_on_c, 5, 67, 100
10, 4395, Note_on_c, 5, 67, 0
10, 4440, Note_on_c, 5, 69, 100
10, 4455, Note_on_c, 5, 69, 0
10, 4560, Note_on_c, 5, 67, 100
10, 4575, Note_on_c, 5, 67, 0
10, 4620, Note_on_c, 5, 69, 100
10, 4635, Note_on_c, 5, 69, 0
10, 4860, Note_on_c, 5, 67, 100
10, 4875, Note_on_c, 5, 67, 0
10, 4920, Note_on_c, 5, 69, 100
10, 4935, Note_on_c, 5, 69, 0
10, 5040, Note_on_c, 5, 67, 100
10, 5055, Note_on_c, 5, 67, 0
10, 5100, Note_on_c, 5, 69, 100
10, 5115, Note_on_c, 5, 69, 0
10, 5340, Note_on_c, 5, 67, 100
10, 5355, Note_on_c, 5, 67, 0
10, 5400, Note_on_c, 5, 69, 100
10, 5415, Note_on_c, 5, 69, 0
10, 5520, Note_on_c, 5, 67, 100
10, 5535, Note_on_c, 5, 67, 0
10, 5580, Note_on_c, 5, 69, 100
10, 5595, Note_on_c, 5, 69, 0
10, 5820, Note_on_c, 5, 67, 100
10, 5835, Note_on_c, 5, 67, 0
10, 5880, Note_on_c, 5, 69, 100
10, 5895, Note_on_c, 5, 69, 0
10, 5940, Note_on_c, 5, 67, 100
10, 5955, Note_on_c, 5, 67, 0
10, 6000, Note_on_c, 5, 72, 100
10, 6015, Note_on_c, 5, 72, 0
10, 6030, Note_on_c, 5, 72, 100
10, 6045, Note_on_c, 5, 72, 0
10, 6060, Note_on_c, 5, 71, 100
10, 6075, Note_on_c, 5, 71, 0
10, 6120, Note_on_c, 5, 69, 100
10, 6135, Note_on_c, 5, 69, 0
10, 6180, Note_on_c, 5, 67, 100
10, 6195, Note_on_c, 5, 67, 0
10, 6210, Note_on_c, 5, 69, 100
10, 6225, Note_on_c, 5, 69, 0
10, 6300, Note_on_c, 5, 67, 100
10, 6300, Note_on_c, 5, 67, 100
10, 6315, Note_on_c, 5, 67, 0
10, 6330, Note_on_c, 5, 67, 0
10, 6360, Note_on_c, 5, 69, 100
10, 6360, Note_on_c, 5, 69, 100
10, 6375, Note_on_c, 5, 69, 0
10, 6390, Note_on_c, 5, 69, 0
10, 6480, Note_on_c, 5, 67, 100
10, 6480, Note_on_c, 5, 67, 100
10, 6495, Note_on_c, 5, 67, 0
10, 6510, Note_on_c, 5, 67, 0
10, 6540, Note_on_c, 5, 69, 100
10, 6540, Note_on_c, 5, 69, 100
10, 6555, Note_on_c, 5, 69, 0
10, 6570, Note_on_c, 5, 69, 0
10, 6780, Note_on_c, 5, 67, 100
10, 6780, Note_on_c, 5, 67, 100
10, 6795, Note_on_c, 5, 67, 0
10, 6810, Note_on_c, 5, 67, 0
10, 6840, Note_on_c, 5, 69, 100
10, 6840, Note_on_c, 5, 69, 100
10, 6855, Note_on_c, 5, 69, 0
10, 6870, Note_on_c, 5, 69, 0
10, 6960, Note_on_c, 5, 67, 100
10, 6960, Note_on_c, 5, 67, 100
10, 6975, Note_on_c, 5, 67, 0
10, 6990, Note_on_c, 5, 67, 0
10, 7020, Note_on_c, 5, 69, 100
10, 7020, Note_on_c, 5, 69, 100
10, 7035, Note_on_c, 5, 69, 0
10, 7050, Note_on_c, 5, 69, 0
10, 7260, Note_on_c, 5, 67, 100
10, 7260, Note_on_c, 5, 67, 100
10, 7275, Note_on_c, 5, 67, 0
10, 7290, Note_on_c, 5, 67, 0
10, 7320, Note_on_c, 5, 69, 100
10, 7320, Note_on_c, 5, 69, 100
10, 7335, Note_on_c, 5, 69, 0
10, 7350, Note_on_c, 5, 69, 0
10, 7440, Note_on_c, 5, 67, 100
10, 7440, Note_on_c, 5, 67, 100
10, 7455, Note_on_c, 5, 67, 0
10, 7470, Note_on_c, 5, 67, 0
10, 7500, Note_on_c, 5, 69, 100
10, 7500, Note_on_c, 5, 69, 100
10, 7515, Note_on_c, 5, 69, 0
10, 7530, Note_on_c, 5, 69, 0
10, 7740, Note_on_c, 5, 67, 100
10, 7740, Note_on_c, 5, 67, 100
10, 7755, Note_on_c, 5, 67, 0
10, 7770, Note_on_c, 5, 67, 0
10, 7800, Note_on_c, 5, 69, 100
10, 7800, Note_on_c, 5, 69, 100
10, 7815, Note_on_c, 5, 69, 0
10, 7830, Note_on_c, 5, 69, 0
10, 7860, Note_on_c, 5, 67, 100
10, 7860, Note_on_c, 5, 67, 100
10, 7875, Note_on_c, 5, 67, 0
10, 7890, Note_on_c, 5, 67, 0
10, 7920, Note_on_c, 5, 72, 100
10, 7920, Note_on_c, 5, 72, 100
10, 7935, Note_on_c, 5, 72, 0
10, 7950, Note_on_c, 5, 72, 0
10, 7950, Note_on_c, 5, 72, 100
10, 7950, Note_on_c, 5, 72, 100
10, 7965, Note_on_c, 5, 72, 0
10, 7980, Note_on_c, 5, 72, 0
10, 7980, Note_on_c, 5, 71, 100
10, 7980, Note_on_c, 5, 71, 100
10, 7995, Note_on_c, 5, 71, 0
10, 8010, Note_on_c, 5, 71, 0
10, 8040, Note_on_c, 5, 69, 100
10, 8040, Note_on_c, 5, 69, 100
10, 8055, Note_on_c, 5, 69, 0
10, 8070, Note_on_c, 5, 69, 0
10, 8100, Note_on_c, 5, 67, 100
10, 8100, Note_on_c, 5, 67, 100
10, 8115, Note_on_c, 5, 67, 0
10, 8130, Note_on_c, 5, 67, 0
10, 8130, Note_on_c, 5, 69, 100
10, 8130, Note_on_c, 5, 69, 100
10, 8145, Note_on_c, 5, 69, 0
10, 8160, Note_on_c, 5, 69, 0
10, 8220, Note_on_c, 5, 67, 100
10, 8220, Note_on_c, 5, 67, 100
10, 8235, Note_on_c, 5, 67, 0
10, 8250, Note_on_c, 5, 67, 0
10, 8280, Note_on_c, 5, 69, 100
10, 8280, Note_on_c, 5, 69, 100
10, 8295, Note_on_c, 5, 69, 0
10, 8310, Note_on_c, 5, 69, 0
10, 8400, Note_on_c, 5, 67, 100
10, 8400, Note_on_c, 5, 67, 100
10, 8415, Note_on_c, 5, 67, 0
10, 8430, Note_on_c, 5, 67, 0
10, 8460, Note_on_c, 5, 69, 100
10, 8460, Note_on_c, 5, 69, 100
10, 8475, Note_on_c, 5, 69, 0
10, 8490, Note_on_c, 5, 69, 0
10, 8700, Note_on_c, 5, 67, 100
10, 8700, Note_on_c, 5, 67, 100
10, 8715, Note_on_c, 5, 67, 0
10, 8730, Note_on_c, 5, 67, 0
10, 8760, Note_on_c, 5, 69, 100
10, 8760, Note_on_c, 5, 69, 100
10, 8775, Note_on_c, 5, 69, 0
10, 8790, Note_on_c, 5, 69, 0
10, 8880, Note_on_c, 5, 67, 100
10, 8880, Note_on_c, 5, 67, 100
10, 8895, Note_on_c, 5, 67, 0
10, 8910, Note_on_c, 5, 67, 0
10, 8940, Note_on_c, 5, 69, 100
10, 8940, Note_on_c, 5, 69, 100
10, 8955, Note_on_c, 5, 69, 0
10, 8970, Note_on_c, 5, 69, 0
10, 9180, Note_on_c, 5, 67, 100
10, 9180, Note_on_c, 5, 67, 100
10, 9195, Note_on_c, 5, 67, 0
10, 9210, Note_on_c, 5, 67, 0
10, 9240, Note_on_c, 5, 69, 100
10, 9240, Note_on_c, 5, 69, 100
10, 9255, Note_on_c, 5, 69, 0
10, 9270, Note_on_c, 5, 69, 0
10, 9360, Note_on_c, 5, 67, 100
10, 9360, Note_on_c, 5, 67, 100
10, 9375, Note_on_c, 5, 67, 0
10, 9390, Note_on_c, 5, 67, 0
10, 9420, Note_on_c, 5, 69, 100
10, 9420, Note_on_c, 5, 69, 100
10, 9435, Note_on_c, 5, 69, 0
10, 9450, Note_on_c, 5, 69, 0
10, 9660, Note_on_c, 5, 67, 100
10, 9660, Note_on_c, 5, 67, 100
10, 9675, Note_on_c, 5, 67, 0
10, 9690, Note_on_c, 5, 67, 0
10, 9720, Note_on_c, 5, 69, 100
10, 9720, Note_on_c, 5, 69, 100
10, 9735, Note_on_c, 5, 69, 0
10, 9750, Note_on_c, 5, 69, 0
10, 9780, Note_on_c, 5, 67, 100
10, 9780, Note_on_c, 5, 67, 100
10, 9795, Note_on_c, 5, 67, 0
10, 9810, Note_on_c, 5, 67, 0
10, 9840, Note_on_c, 5, 72, 100
10, 9840, Note_on_c, 5, 72, 100
10, 9855, Note_on_c, 5, 72, 0
10, 9870, Note_on_c, 5, 72, 0
10, 9870, Note_on_c, 5, 72, 100
10, 9870, Note_on_c, 5, 72, 100
10, 9885, Note_on_c, 5, 72, 0
10, 9900, Note_on_c, 5, 72, 0
10, 9900, Note_on_c, 5, 71, 100
10, 9900, Note_on_c, 5, 71, 100
10, 9915, Note_on_c, 5, 71, 0
10, 9930, Note_on_c, 5, 71, 0
10, 9960, Note_on_c, 5, 69, 100
10, 9960, Note_on_c, 5, 69, 100
10, 9975, Note_on_c, 5, 69, 0
10, 9990, Note_on_c, 5, 69, 0
10, 10020, Note_on_c, 5, 67, 100
10, 10020, Note_on_c, 5, 67, 100
10, 10035, Note_on_c, 5, 67, 0
10, 10050, Note_on_c, 5, 67, 0
10, 10050, Note_on_c, 5, 69, 100
10, 10050, Note_on_c, 5, 69, 100
10, 10065, Note_on_c, 5, 69, 0
10, 10080, Note_on_c, 5, 69, 0
10, 31740, Note_on_c, 5, 67, 100
10, 31770, Note_on_c, 5, 67, 0
10, 31800, Note_on_c, 5, 69, 100
10, 31830, Note_on_c, 5, 69, 0
10, 31920, Note_on_c, 5, 67, 100
10, 31950, Note_on_c, 5, 67, 0
10, 31980, Note_on_c, 5, 69, 100
10, 32010, Note_on_c, 5, 69, 0
10, 32220, Note_on_c, 5, 67, 100
10, 32250, Note_on_c, 5, 67, 0
10, 32280, Note_on_c, 5, 69, 100
10, 32310, Note_on_c, 5, 69, 0
10, 32400, Note_on_c, 5, 67, 100
10, 32430, Note_on_c, 5, 67, 0
10, 32460, Note_on_c, 5, 69, 100
10, 32490, Note_on_c, 5, 69, 0
10, 32700, Note_on_c, 5, 67, 100
10, 32730, Note_on_c, 5, 67, 0
10, 32760, Note_on_c, 5, 69, 100
10, 32790, Note_on_c, 5, 69, 0
10, 32880, Note_on_c, 5, 67, 100
10, 32910, Note_on_c, 5, 67, 0
10, 32940, Note_on_c, 5, 69, 100
10, 32970, Note_on_c, 5, 69, 0
10, 33180, Note_on_c, 5, 67, 100
10, 33210, Note_on_c, 5, 67, 0
10, 33240, Note_on_c, 5, 69, 100
10, 33270, Note_on_c, 5, 69, 0
10, 33300, Note_on_c, 5, 67, 100
10, 33330, Note_on_c, 5, 67, 0
10, 33360, Note_on_c, 5, 72, 100
10, 33390, Note_on_c, 5, 72, 0
10, 33390, Note_on_c, 5, 72, 100
10, 33420, Note_on_c, 5, 72, 0
10, 33420, Note_on_c, 5, 71, 100
10, 33450, Note_on_c, 5, 71, 0
10, 33480, Note_on_c, 5, 69, 100
10, 33510, Note_on_c, 5, 69, 0
10, 33540, Note_on_c, 5, 67, 100
10, 33570, Note_on_c, 5, 67, 0
10, 33570, Note_on_c, 5, 69, 100
10, 33600, Note_on_c, 5, 69, 0
10, 69180, Note_on_c, 5, 67, 100
10, 69210, Note_on_c, 5, 67, 0
10, 69240, Note_on_c, 5, 69, 100
10, 69270, Note_on_c, 5, 69, 0
10, 69360, Note_on_c, 5, 67, 100
10, 69390, Note_on_c, 5, 67, 0
10, 69420, Note_on_c, 5, 69, 100
10, 69450, Note_on_c, 5, 69, 0
10, 69660, Note_on_c, 5, 67, 100
10, 69690, Note_on_c, 5, 67, 0
10, 69720, Note_on_c, 5, 69, 100
10, 69750, Note_on_c, 5, 69, 0
10, 69840, Note_on_c, 5, 67, 100
10, 69870, Note_on_c, 5, 67, 0
10, 69900, Note_on_c, 5, 69, 100
10, 69930, Note_on_c, 5, 69, 0
10, 70140, Note_on_c, 5, 67, 100
10, 70170, Note_on_c, 5, 67, 0
10, 70200, Note_on_c, 5, 69, 100
10, 70230, Note_on_c, 5, 69, 0
10, 70320, Note_on_c, 5, 67, 100
10, 70350, Note_on_c, 5, 67, 0
10, 70380, Note_on_c, 5, 69, 100
10, 70410, Note_on_c, 5, 69, 0
10, 70620, Note_on_c, 5, 67, 100
10, 70650, Note_on_c, 5, 67, 0
10, 70680, Note_on_c, 5, 69, 100
10, 70710, Note_on_c, 5, 69, 0
10, 70740, Note_on_c, 5, 67, 100
10, 70770, Note_on_c, 5, 67, 0
10, 70800, Note_on_c, 5, 72, 100
10, 70830, Note_on_c, 5, 72, 0
10, 70830, Note_on_c, 5, 72, 100
10, 70860, Note_on_c, 5, 72, 0
10, 70860, Note_on_c, 5, 71, 100
10, 70890, Note_on_c, 5, 71, 0
10, 70920, Note_on_c, 5, 69, 100
10, 70950, Note_on_c, 5, 69, 0
10, 70980, Note_on_c, 5, 67, 100
10, 71010, Note_on_c, 5, 67, 0
10, 71010, Note_on_c, 5, 69, 100
10, 71040, Note_on_c, 5, 69, 0
10, 71040, End_track
11, 0, Start_track
11, 0, MIDI_port, 0
11, 0, Title_t, "Seq Pads"
11, 0, Control_c, 6, 0, 0
11, 0, Program_c, 6, 94
11, 0, Control_c, 6, 7, 127
11, 0, Control_c, 6, 10, 64
11, 0, Control_c, 6, 121, 0
11, 0, Control_c, 6, 91, 50
11, 0, Control_c, 6, 101, 0
11, 0, Control_c, 6, 100, 0
11, 0, Control_c, 6, 6, 2
11, 0, Control_c, 6, 38, 0
11, 6240, Note_on_c, 6, 72, 100
11, 6270, Note_on_c, 6, 72, 0
11, 6300, Note_on_c, 6, 72, 100
11, 6330, Note_on_c, 6, 72, 0
11, 6360, Note_on_c, 6, 69, 100
11, 6390, Note_on_c, 6, 69, 0
11, 6420, Note_on_c, 6, 74, 100
11, 6450, Note_on_c, 6, 74, 0
11, 6480, Note_on_c, 6, 72, 100
11, 6538, Pitch_bend_c, 6, 9600
11, 6568, Pitch_bend_c, 6, 8192
11, 6570, Note_on_c, 6, 72, 0
11, 6570, Note_on_c, 6, 69, 100
11, 6600, Note_on_c, 6, 69, 0
11, 6720, Note_on_c, 6, 72, 100
11, 6750, Note_on_c, 6, 72, 0
11, 6780, Note_on_c, 6, 72, 100
11, 6810, Note_on_c, 6, 72, 0
11, 6840, Note_on_c, 6, 69, 100
11, 6870, Note_on_c, 6, 69, 0
11, 6900, Note_on_c, 6, 74, 100
11, 6930, Note_on_c, 6, 74, 0
11, 6960, Note_on_c, 6, 72, 100
11, 6990, Note_on_c, 6, 72, 0
11, 6990, Note_on_c, 6, 72, 100
11, 7020, Note_on_c, 6, 72, 0
11, 7050, Note_on_c, 6, 69, 100
11, 7080, Note_on_c, 6, 69, 0
11, 7260, Note_on_c, 6, 72, 100
11, 7290, Note_on_c, 6, 72, 0
11, 7320, Note_on_c, 6, 69, 100
11, 7350, Note_on_c, 6, 69, 0
11, 7380, Note_on_c, 6, 74, 100
11, 7410, Note_on_c, 6, 74, 0
11, 7440, Note_on_c, 6, 72, 100
11, 7500, Pitch_bend_c, 6, 9856
11, 7530, Note_on_c, 6, 72, 0
11, 7530, Note_on_c, 6, 69, 100
11, 7530, Pitch_bend_c, 6, 8192
11, 7560, Note_on_c, 6, 69, 0
11, 7680, Note_on_c, 6, 76, 100
11, 7710, Note_on_c, 6, 76, 0
11, 7740, Note_on_c, 6, 74, 100
11, 7770, Note_on_c, 6, 74, 0
11, 7800, Note_on_c, 6, 72, 100
11, 7830, Note_on_c, 6, 72, 0
11, 7860, Note_on_c, 6, 69, 100
11, 7890, Note_on_c, 6, 69, 0
11, 7920, Note_on_c, 6, 72, 100
11, 7950, Note_on_c, 6, 72, 0
11, 7950, Note_on_c, 6, 72, 100
11, 7980, Note_on_c, 6, 72, 0
11, 8010, Note_on_c, 6, 74, 100
11, 8040, Note_on_c, 6, 74, 0
11, 8160, Note_on_c, 6, 72, 100
11, 8190, Note_on_c, 6, 72, 0
11, 8220, Note_on_c, 6, 72, 100
11, 8250, Note_on_c, 6, 72, 0
11, 8280, Note_on_c, 6, 69, 100
11, 8310, Note_on_c, 6, 69, 0
11, 8340, Note_on_c, 6, 74, 100
11, 8370, Note_on_c, 6, 74, 0
11, 8400, Note_on_c, 6, 72, 100
11, 8458, Pitch_bend_c, 6, 9600
11, 8488, Pitch_bend_c, 6, 8192
11, 8490, Note_on_c, 6, 72, 0
11, 8490, Note_on_c, 6, 69, 100
11, 8520, Note_on_c, 6, 69, 0
11, 8640, Note_on_c, 6, 72, 100
11, 8670, Note_on_c, 6, 72, 0
11, 8700, Note_on_c, 6, 72, 100
11, 8730, Note_on_c, 6, 72, 0
11, 8760, Note_on_c, 6, 69, 100
11, 8790, Note_on_c, 6, 69, 0
11, 8820, Note_on_c, 6, 74, 100
11, 8850, Note_on_c, 6, 74, 0
11, 8880, Note_on_c, 6, 72, 100
11, 8910, Note_on_c, 6, 72, 0
11, 8910, Note_on_c, 6, 72, 100
11, 8940, Note_on_c, 6, 72, 0
11, 8970, Note_on_c, 6, 69, 100
11, 9000, Note_on_c, 6, 69, 0
11, 9180, Note_on_c, 6, 72, 100
11, 9210, Note_on_c, 6, 72, 0
11, 9240, Note_on_c, 6, 69, 100
11, 9270, Note_on_c, 6, 69, 0
11, 9300, Note_on_c, 6, 74, 100
11, 9330, Note_on_c, 6, 74, 0
11, 9360, Note_on_c, 6, 72, 100
11, 9420, Pitch_bend_c, 6, 9856
11, 9450, Note_on_c, 6, 72, 0
11, 9450, Note_on_c, 6, 69, 100
11, 9450, Pitch_bend_c, 6, 8192
11, 9480, Note_on_c, 6, 69, 0
11, 9600, Note_on_c, 6, 76, 100
11, 9630, Note_on_c, 6, 76, 0
11, 9660, Note_on_c, 6, 74, 100
11, 9690, Note_on_c, 6, 74, 0
11, 9720, Note_on_c, 6, 72, 100
11, 9750, Note_on_c, 6, 72, 0
11, 9780, Note_on_c, 6, 69, 100
11, 9810, Note_on_c, 6, 69, 0
11, 9840, Note_on_c, 6, 72, 100
11, 9870, Note_on_c, 6, 72, 0
11, 9870, Note_on_c, 6, 72, 100
11, 9900, Note_on_c, 6, 72, 0
11, 9930, Note_on_c, 6, 74, 100
11, 9960, Note_on_c, 6, 74, 0
11, 29760, Note_on_c, 6, 72, 100
11, 29790, Note_on_c, 6, 72, 0
11, 29820, Note_on_c, 6, 72, 100
11, 29850, Note_on_c, 6, 72, 0
11, 29880, Note_on_c, 6, 69, 100
11, 29910, Note_on_c, 6, 69, 0
11, 29940, Note_on_c, 6, 74, 100
11, 29970, Note_on_c, 6, 74, 0
11, 30000, Note_on_c, 6, 72, 100
11, 30058, Pitch_bend_c, 6, 9600
11, 30088, Pitch_bend_c, 6, 8192
11, 30090, Note_on_c, 6, 72, 0
11, 30090, Note_on_c, 6, 69, 100
11, 30120, Note_on_c, 6, 69, 0
11, 30240, Note_on_c, 6, 72, 100
11, 30270, Note_on_c, 6, 72, 0
11, 30300, Note_on_c, 6, 72, 100
11, 30330, Note_on_c, 6, 72, 0
11, 30360, Note_on_c, 6, 69, 100
11, 30390, Note_on_c, 6, 69, 0
11, 30420, Note_on_c, 6, 74, 100
11, 30450, Note_on_c, 6, 74, 0
11, 30480, Note_on_c, 6, 72, 100
11, 30510, Note_on_c, 6, 72, 0
11, 30510, Note_on_c, 6, 72, 100
11, 30540, Note_on_c, 6, 72, 0
11, 30570, Note_on_c, 6, 69, 100
11, 30600, Note_on_c, 6, 69, 0
11, 30780, Note_on_c, 6, 72, 100
11, 30810, Note_on_c, 6, 72, 0
11, 30840, Note_on_c, 6, 69, 100
11, 30870, Note_on_c, 6, 69, 0
11, 30900, Note_on_c, 6, 74, 100
11, 30930, Note_on_c, 6, 74, 0
11, 30960, Note_on_c, 6, 72, 100
11, 31020, Pitch_bend_c, 6, 9856
11, 31050, Note_on_c, 6, 72, 0
11, 31050, Note_on_c, 6, 69, 100
11, 31050, Pitch_bend_c, 6, 8192
11, 31080, Note_on_c, 6, 69, 0
11, 31200, Note_on_c, 6, 76, 100
11, 31230, Note_on_c, 6, 76, 0
11, 31260, Note_on_c, 6, 74, 100
11, 31290, Note_on_c, 6, 74, 0
11, 31320, Note_on_c, 6, 72, 100
11, 31350, Note_on_c, 6, 72, 0
11, 31380, Note_on_c, 6, 69, 100
11, 31410, Note_on_c, 6, 69, 0
11, 31440, Note_on_c, 6, 72, 100
11, 31470, Note_on_c, 6, 72, 0
11, 31470, Note_on_c, 6, 72, 100
11, 31500, Note_on_c, 6, 72, 0
11, 31530, Note_on_c, 6, 74, 100
11, 31560, Note_on_c, 6, 74, 0
11, 48000, Note_on_c, 6, 72, 100
11, 48030, Note_on_c, 6, 72, 0
11, 48060, Note_on_c, 6, 72, 100
11, 48090, Note_on_c, 6, 72, 0
11, 48120, Note_on_c, 6, 69, 100
11, 48150, Note_on_c, 6, 69, 0
11, 48180, Note_on_c, 6, 74, 100
11, 48210, Note_on_c, 6, 74, 0
11, 48240, Note_on_c, 6, 72, 100
11, 48298, Pitch_bend_c, 6, 9600
11, 48328, Pitch_bend_c, 6, 8192
11, 48330, Note_on_c, 6, 72, 0
11, 48330, Note_on_c, 6, 69, 100
11, 48360, Note_on_c, 6, 69, 0
11, 48480, Note_on_c, 6, 72, 100
11, 48510, Note_on_c, 6, 72, 0
11, 48540, Note_on_c, 6, 72, 100
11, 48570, Note_on_c, 6, 72, 0
11, 48600, Note_on_c, 6, 69, 100
11, 48630, Note_on_c, 6, 69, 0
11, 48660, Note_on_c, 6, 74, 100
11, 48690, Note_on_c, 6, 74, 0
11, 48720, Note_on_c, 6, 72, 100
11, 48750, Note_on_c, 6, 72, 0
11, 48750, Note_on_c, 6, 72, 100
11, 48780, Note_on_c, 6, 72, 0
11, 48810, Note_on_c, 6, 69, 100
11, 48840, Note_on_c, 6, 69, 0
11, 49020, Note_on_c, 6, 72, 100
11, 49050, Note_on_c, 6, 72, 0
11, 49080, Note_on_c, 6, 69, 100
11, 49110, Note_on_c, 6, 69, 0
11, 49140, Note_on_c, 6, 74, 100
11, 49170, Note_on_c, 6, 74, 0
11, 49200, Note_on_c, 6, 72, 100
11, 49260, Pitch_bend_c, 6, 9856
11, 49290, Note_on_c, 6, 72, 0
11, 49290, Note_on_c, 6, 69, 100
11, 49290, Pitch_bend_c, 6, 8192
11, 49320, Note_on_c, 6, 69, 0
11, 49440, Note_on_c, 6, 76, 100
11, 49470, Note_on_c, 6, 76, 0
11, 49500, Note_on_c, 6, 74, 100
11, 49530, Note_on_c, 6, 74, 0
11, 49560, Note_on_c, 6, 72, 100
11, 49590, Note_on_c, 6, 72, 0
11, 49620, Note_on_c, 6, 69, 100
11, 49650, Note_on_c, 6, 69, 0
11, 49680, Note_on_c, 6, 72, 100
11, 49710, Note_on_c, 6, 72, 0
11, 49710, Note_on_c, 6, 72, 100
11, 49740, Note_on_c, 6, 72, 0
11, 49770, Note_on_c, 6, 74, 100
11, 49800, Note_on_c, 6, 74, 0
11, 49920, Note_on_c, 6, 72, 100
11, 49950, Note_on_c, 6, 72, 0
11, 49980, Note_on_c, 6, 72, 100
11, 50010, Note_on_c, 6, 72, 0
11, 50040, Note_on_c, 6, 69, 100
11, 50070, Note_on_c, 6, 69, 0
11, 50100, Note_on_c, 6, 74, 100
11, 50130, Note_on_c, 6, 74, 0
11, 50160, Note_on_c, 6, 72, 100
11, 50218, Pitch_bend_c, 6, 9600
11, 50248, Pitch_bend_c, 6, 8192
11, 50250, Note_on_c, 6, 72, 0
11, 50250, Note_on_c, 6, 69, 100
11, 50280, Note_on_c, 6, 69, 0
11, 50400, Note_on_c, 6, 72, 100
11, 50430, Note_on_c, 6, 72, 0
11, 50460, Note_on_c, 6, 72, 100
11, 50490, Note_on_c, 6, 72, 0
11, 50520, Note_on_c, 6, 69, 100
11, 50550, Note_on_c, 6, 69, 0
11, 50580, Note_on_c, 6, 74, 100
11, 50610, Note_on_c, 6, 74, 0
11, 50640, Note_on_c, 6, 72, 100
11, 50670, Note_on_c, 6, 72, 0
11, 50670, Note_on_c, 6, 72, 100
11, 50700, Note_on_c, 6, 72, 0
11, 50730, Note_on_c, 6, 69, 100
11, 50760, Note_on_c, 6, 69, 0
11, 50940, Note_on_c, 6, 72, 100
11, 50970, Note_on_c, 6, 72, 0
11, 51000, Note_on_c, 6, 69, 100
11, 51030, Note_on_c, 6, 69, 0
11, 51060, Note_on_c, 6, 74, 100
11, 51090, Note_on_c, 6, 74, 0
11, 51120, Note_on_c, 6, 72, 100
11, 51180, Pitch_bend_c, 6, 9856
11, 51210, Note_on_c, 6, 72, 0
11, 51210, Note_on_c, 6, 69, 100
11, 51210, Pitch_bend_c, 6, 8192
11, 51240, Note_on_c, 6, 69, 0
11, 51360, Note_on_c, 6, 76, 100
11, 51390, Note_on_c, 6, 76, 0
11, 51420, Note_on_c, 6, 74, 100
11, 51450, Note_on_c, 6, 74, 0
11, 51480, Note_on_c, 6, 72, 100
11, 51510, Note_on_c, 6, 72, 0
11, 51540, Note_on_c, 6, 69, 100
11, 51570, Note_on_c, 6, 69, 0
11, 51600, Note_on_c, 6, 72, 100
11, 51630, Note_on_c, 6, 72, 0
11, 51630, Note_on_c, 6, 72, 100
11, 51660, Note_on_c, 6, 72, 0
11, 51690, Note_on_c, 6, 74, 100
11, 51720, Note_on_c, 6, 74, 0
11, 51720, End_track
12, 0, Start_track
12, 0, MIDI_port, 0
12, 0, Title_t, "Electric Guitar"
12, 0, Control_c, 7, 0, 0
12, 0, Program_c, 7, 28
12, 0, Control_c, 7, 7, 115
12, 0, Control_c, 7, 10, 64
12, 0, Control_c, 7, 121, 0
12, 0, Control_c, 7, 91, 50
12, 0, Control_c, 7, 101, 0
12, 0, Control_c, 7, 100, 0
12, 0, Control_c, 7, 6, 2
12, 0, Control_c, 7, 38, 0
12, 25445, Note_on_c, 7, 60, 89
12, 25452, Note_on_c, 7, 62, 93
12, 25457, Note_on_c, 7, 60, 0
12, 25460, Note_on_c, 7, 64, 95
12, 25465, Note_on_c, 7, 62, 0
12, 25467, Note_on_c, 7, 65, 96
12, 25472, Note_on_c, 7, 64, 0
12, 25477, Note_on_c, 7, 67, 100
12, 25480, Note_on_c, 7, 65, 0
12, 25485, Note_on_c, 7, 69, 98
12, 25490, Note_on_c, 7, 67, 0
12, 25495, Note_on_c, 7, 71, 96
12, 25497, Note_on_c, 7, 69, 0
12, 25505, Note_on_c, 7, 72, 97
12, 25510, Note_on_c, 7, 71, 0
12, 25515, Note_on_c, 7, 74, 96
12, 25520, Note_on_c, 7, 72, 0
12, 25525, Note_on_c, 7, 76, 96
12, 25527, Note_on_c, 7, 74, 0
12, 25537, Note_on_c, 7, 77, 96
12, 25540, Note_on_c, 7, 76, 0
12, 25542, Note_on_c, 7, 67, 88
12, 25545, Note_on_c, 7, 77, 0
12, 25550, Note_on_c, 7, 69, 80
12, 25555, Note_on_c, 7, 67, 0
12, 25562, Note_on_c, 7, 71, 47
12, 25570, Note_on_c, 7, 69, 0
12, 25572, Note_on_c, 7, 72, 81
12, 25575, Note_on_c, 7, 71, 0
12, 25582, Note_on_c, 7, 74, 87
12, 25585, Note_on_c, 7, 72, 0
12, 25590, Note_on_c, 7, 76, 88
12, 25595, Note_on_c, 7, 74, 0
12, 25600, Note_on_c, 7, 77, 89
12, 25602, Note_on_c, 7, 76, 0
12, 25610, Note_on_c, 7, 79, 87
12, 25615, Note_on_c, 7, 77, 0
12, 25620, Note_on_c, 7, 81, 86
12, 25622, Note_on_c, 7, 79, 0
12, 25630, Note_on_c, 7, 83, 87
12, 25632, Note_on_c, 7, 81, 0
12, 25640, Note_on_c, 7, 84, 93
12, 25642, Note_on_c, 7, 83, 0
12, 25650, Note_on_c, 7, 86, 96
12, 25655, Note_on_c, 7, 84, 0
12, 25660, Note_on_c, 7, 71, 81
12, 25662, Note_on_c, 7, 88, 77
12, 25662, Note_on_c, 7, 72, 95
12, 25667, Note_on_c, 7, 71, 0
12, 25667, Note_on_c, 7, 86, 0
12, 25672, Note_on_c, 7, 88, 0
12, 25672, Note_on_c, 7, 74, 66
12, 25677, Note_on_c, 7, 72, 0
12, 25682, Note_on_c, 7, 76, 76
12, 25690, Note_on_c, 7, 74, 0
12, 25692, Note_on_c, 7, 77, 88
12, 25697, Note_on_c, 7, 76, 0
12, 25700, Note_on_c, 7, 79, 92
12, 25705, Note_on_c, 7, 77, 0
12, 25710, Note_on_c, 7, 81, 92
12, 25712, Note_on_c, 7, 79, 0
12, 25717, Note_on_c, 7, 83, 96
12, 25720, Note_on_c, 7, 81, 0
12, 25725, Note_on_c, 7, 84, 96
12, 25727, Note_on_c, 7, 83, 0
12, 25732, Note_on_c, 7, 86, 100
12, 25737, Note_on_c, 7, 84, 0
12, 25740, Note_on_c, 7, 88, 101
12, 25745, Note_on_c, 7, 86, 0
12, 25750, Note_on_c, 7, 89, 100
12, 25752, Note_on_c, 7, 88, 0
12, 25757, Note_on_c, 7, 91, 101
12, 25760, Note_on_c, 7, 89, 0
12, 25765, Note_on_c, 7, 93, 103
12, 25770, Note_on_c, 7, 91, 0
12, 25775, Note_on_c, 7, 95, 100
12, 25777, Note_on_c, 7, 93, 0
12, 25785, Note_on_c, 7, 96, 101
12, 25787, Note_on_c, 7, 95, 0
12, 25792, Note_on_c, 7, 98, 105
12, 25795, Note_on_c, 7, 96, 0
12, 25800, Note_on_c, 7, 98, 0
12, 25805, Note_on_c, 7, 88, 81
12, 25805, Note_on_c, 7, 89, 103
12, 25810, Note_on_c, 7, 88, 0
12, 25815, Note_on_c, 7, 91, 94
12, 25817, Note_on_c, 7, 89, 0
12, 25820, Note_on_c, 7, 93, 93
12, 25825, Note_on_c, 7, 91, 0
12, 25827, Note_on_c, 7, 95, 98
12, 25830, Note_on_c, 7, 93, 0
12, 25837, Note_on_c, 7, 96, 103
12, 25840, Note_on_c, 7, 95, 0
12, 25842, Note_on_c, 7, 98, 106
12, 25847, Note_on_c, 7, 96, 0
12, 25852, Note_on_c, 7, 100, 105
12, 25855, Note_on_c, 7, 98, 0
12, 25860, Note_on_c, 7, 101, 103
12, 25862, Note_on_c, 7, 100, 0
12, 25870, Note_on_c, 7, 103, 102
12, 25875, Note_on_c, 7, 101, 0
12, 25880, Note_on_c, 7, 105, 105
12, 25882, Note_on_c, 7, 103, 0
12, 25890, Note_on_c, 7, 107, 103
12, 25895, Note_on_c, 7, 105, 0
12, 25902, Note_on_c, 7, 108, 100
12, 25907, Note_on_c, 7, 107, 0
12, 25917, Note_on_c, 7, 108, 0
12, 38400, Note_on_c, 7, 76, 100
12, 38400, Note_on_c, 7, 81, 100
12, 38404, Pitch_bend_c, 7, 4096
12, 38406, Pitch_bend_c, 7, 4352
12, 38410, Pitch_bend_c, 7, 4608
12, 38414, Pitch_bend_c, 7, 4864
12, 38416, Pitch_bend_c, 7, 5120
12, 38422, Pitch_bend_c, 7, 5376
12, 38426, Pitch_bend_c, 7, 5632
12, 38430, Pitch_bend_c, 7, 5760
12, 38434, Pitch_bend_c, 7, 6016
12, 38436, Pitch_bend_c, 7, 6144
12, 38438, Pitch_bend_c, 7, 6400
12, 38442, Pitch_bend_c, 7, 6656
12, 38448, Pitch_bend_c, 7, 6912
12, 38454, Pitch_bend_c, 7, 7168
12, 38456, Pitch_bend_c, 7, 7296
12, 38458, Pitch_bend_c, 7, 7424
12, 38460, Note_on_c, 7, 81, 0
12, 38460, Note_on_c, 7, 76, 0
12, 38460, Pitch_bend_c, 7, 7552
12, 38464, Pitch_bend_c, 7, 7680
12, 38466, Pitch_bend_c, 7, 7936
12, 38468, Pitch_bend_c, 7, 8192
12, 38490, Note_on_c, 7, 76, 100
12, 38490, Note_on_c, 7, 81, 100
12, 38520, Note_on_c, 7, 81, 0
12, 38520, Note_on_c, 7, 76, 0
12, 38550, Note_on_c, 7, 76, 100
12, 38550, Note_on_c, 7, 81, 100
12, 38580, Note_on_c, 7, 81, 0
12, 38580, Note_on_c, 7, 76, 0
12, 38580, Note_on_c, 7, 74, 100
12, 38580, Note_on_c, 7, 79, 100
12, 38610, Note_on_c, 7, 79, 0
12, 38610, Note_on_c, 7, 74, 0
12, 38640, Note_on_c, 7, 76, 100
12, 38640, Note_on_c, 7, 81, 100
12, 38670, Note_on_c, 7, 81, 0
12, 38670, Note_on_c, 7, 76, 0
12, 38880, Note_on_c, 7, 76, 100
12, 38880, Note_on_c, 7, 81, 100
12, 38884, Pitch_bend_c, 7, 4096
12, 38886, Pitch_bend_c, 7, 4352
12, 38890, Pitch_bend_c, 7, 4608
12, 38894, Pitch_bend_c, 7, 4864
12, 38896, Pitch_bend_c, 7, 5120
12, 38902, Pitch_bend_c, 7, 5376
12, 38906, Pitch_bend_c, 7, 5632
12, 38910, Pitch_bend_c, 7, 5760
12, 38914, Pitch_bend_c, 7, 6016
12, 38916, Pitch_bend_c, 7, 6144
12, 38918, Pitch_bend_c, 7, 6400
12, 38922, Pitch_bend_c, 7, 6656
12, 38928, Pitch_bend_c, 7, 6912
12, 38934, Pitch_bend_c, 7, 7168
12, 38936, Pitch_bend_c, 7, 7296
12, 38938, Pitch_bend_c, 7, 7424
12, 38940, Note_on_c, 7, 81, 0
12, 38940, Note_on_c, 7, 76, 0
12, 38940, Pitch_bend_c, 7, 7552
12, 38944, Pitch_bend_c, 7, 7680
12, 38946, Pitch_bend_c, 7, 7936
12, 38948, Pitch_bend_c, 7, 8192
12, 38970, Note_on_c, 7, 76, 100
12, 38970, Note_on_c, 7, 81, 100
12, 39000, Note_on_c, 7, 81, 0
12, 39000, Note_on_c, 7, 76, 0
12, 39030, Note_on_c, 7, 76, 100
12, 39030, Note_on_c, 7, 81, 100
12, 39060, Note_on_c, 7, 81, 0
12, 39060, Note_on_c, 7, 76, 0
12, 39060, Note_on_c, 7, 74, 100
12, 39060, Note_on_c, 7, 79, 100
12, 39090, Note_on_c, 7, 79, 0
12, 39090, Note_on_c, 7, 74, 0
12, 39120, Note_on_c, 7, 76, 100
12, 39120, Note_on_c, 7, 81, 100
12, 39150, Note_on_c, 7, 81, 0
12, 39150, Note_on_c, 7, 76, 0
12, 39180, Note_on_c, 7, 76, 100
12, 39180, Note_on_c, 7, 81, 100
12, 39210, Note_on_c, 7, 81, 0
12, 39210, Note_on_c, 7, 76, 0
12, 39240, Note_on_c, 7, 76, 100
12, 39240, Note_on_c, 7, 81, 100
12, 39270, Note_on_c, 7, 81, 0
12, 39270, Note_on_c, 7, 76, 0
12, 39270, Note_on_c, 7, 74, 100
12, 39270, Note_on_c, 7, 79, 100
12, 39300, Note_on_c, 7, 79, 0
12, 39300, Note_on_c, 7, 74, 0
12, 39360, Note_on_c, 7, 76, 100
12, 39360, Note_on_c, 7, 81, 100
12, 39364, Pitch_bend_c, 7, 4096
12, 39366, Pitch_bend_c, 7, 4352
12, 39370, Pitch_bend_c, 7, 4608
12, 39374, Pitch_bend_c, 7, 4864
12, 39376, Pitch_bend_c, 7, 5120
12, 39382, Pitch_bend_c, 7, 5376
12, 39386, Pitch_bend_c, 7, 5632
12, 39390, Pitch_bend_c, 7, 5760
12, 39394, Pitch_bend_c, 7, 6016
12, 39396, Pitch_bend_c, 7, 6144
12, 39398, Pitch_bend_c, 7, 6400
12, 39402, Pitch_bend_c, 7, 6656
12, 39408, Pitch_bend_c, 7, 6912
12, 39414, Pitch_bend_c, 7, 7168
12, 39416, Pitch_bend_c, 7, 7296
12, 39418, Pitch_bend_c, 7, 7424
12, 39420, Note_on_c, 7, 81, 0
12, 39420, Note_on_c, 7, 76, 0
12, 39420, Pitch_bend_c, 7, 7552
12, 39424, Pitch_bend_c, 7, 7680
12, 39426, Pitch_bend_c, 7, 7936
12, 39428, Pitch_bend_c, 7, 8192
12, 39450, Note_on_c, 7, 76, 100
12, 39450, Note_on_c, 7, 81, 100
12, 39480, Note_on_c, 7, 81, 0
12, 39480, Note_on_c, 7, 76, 0
12, 39510, Note_on_c, 7, 76, 100
12, 39510, Note_on_c, 7, 81, 100
12, 39540, Note_on_c, 7, 81, 0
12, 39540, Note_on_c, 7, 76, 0
12, 39540, Note_on_c, 7, 74, 100
12, 39540, Note_on_c, 7, 79, 100
12, 39570, Note_on_c, 7, 79, 0
12, 39570, Note_on_c, 7, 74, 0
12, 39600, Note_on_c, 7, 76, 100
12, 39600, Note_on_c, 7, 81, 100
12, 39630, Note_on_c, 7, 81, 0
12, 39630, Note_on_c, 7, 76, 0
12, 39840, Note_on_c, 7, 76, 100
12, 39840, Note_on_c, 7, 81, 100
12, 39844, Pitch_bend_c, 7, 4096
12, 39846, Pitch_bend_c, 7, 4352
12, 39850, Pitch_bend_c, 7, 4608
12, 39854, Pitch_bend_c, 7, 4864
12, 39856, Pitch_bend_c, 7, 5120
12, 39862, Pitch_bend_c, 7, 5376
12, 39866, Pitch_bend_c, 7, 5632
12, 39870, Pitch_bend_c, 7, 5760
12, 39874, Pitch_bend_c, 7, 6016
12, 39876, Pitch_bend_c, 7, 6144
12, 39878, Pitch_bend_c, 7, 6400
12, 39882, Pitch_bend_c, 7, 6656
12, 39888, Pitch_bend_c, 7, 6912
12, 39894, Pitch_bend_c, 7, 7168
12, 39896, Pitch_bend_c, 7, 7296
12, 39898, Pitch_bend_c, 7, 7424
12, 39900, Note_on_c, 7, 81, 0
12, 39900, Note_on_c, 7, 76, 0
12, 39900, Pitch_bend_c, 7, 7552
12, 39904, Pitch_bend_c, 7, 7680
12, 39906, Pitch_bend_c, 7, 7936
12, 39908, Pitch_bend_c, 7, 8192
12, 39930, Note_on_c, 7, 76, 100
12, 39930, Note_on_c, 7, 81, 100
12, 39960, Note_on_c, 7, 81, 0
12, 39960, Note_on_c, 7, 76, 0
12, 39990, Note_on_c, 7, 76, 100
12, 39990, Note_on_c, 7, 81, 100
12, 40020, Note_on_c, 7, 81, 0
12, 40020, Note_on_c, 7, 76, 0
12, 40020, Note_on_c, 7, 74, 100
12, 40020, Note_on_c, 7, 79, 100
12, 40050, Note_on_c, 7, 79, 0
12, 40050, Note_on_c, 7, 74, 0
12, 40080, Note_on_c, 7, 76, 100
12, 40080, Note_on_c, 7, 81, 100
12, 40110, Note_on_c, 7, 81, 0
12, 40110, Note_on_c, 7, 76, 0
12, 40140, Note_on_c, 7, 76, 100
12, 40140, Note_on_c, 7, 81, 100
12, 40170, Note_on_c, 7, 81, 0
12, 40170, Note_on_c, 7, 76, 0
12, 40200, Note_on_c, 7, 76, 100
12, 40200, Note_on_c, 7, 81, 100
12, 40230, Note_on_c, 7, 81, 0
12, 40230, Note_on_c, 7, 76, 0
12, 40230, Note_on_c, 7, 74, 100
12, 40230, Note_on_c, 7, 79, 100
12, 40260, Note_on_c, 7, 79, 0
12, 40260, Note_on_c, 7, 74, 0
12, 40320, Note_on_c, 7, 76, 100
12, 40320, Note_on_c, 7, 81, 100
12, 40324, Pitch_bend_c, 7, 4096
12, 40326, Pitch_bend_c, 7, 4352
12, 40330, Pitch_bend_c, 7, 4608
12, 40334, Pitch_bend_c, 7, 4864
12, 40336, Pitch_bend_c, 7, 5120
12, 40342, Pitch_bend_c, 7, 5376
12, 40346, Pitch_bend_c, 7, 5632
12, 40350, Pitch_bend_c, 7, 5760
12, 40354, Pitch_bend_c, 7, 6016
12, 40356, Pitch_bend_c, 7, 6144
12, 40358, Pitch_bend_c, 7, 6400
12, 40362, Pitch_bend_c, 7, 6656
12, 40368, Pitch_bend_c, 7, 6912
12, 40374, Pitch_bend_c, 7, 7168
12, 40376, Pitch_bend_c, 7, 7296
12, 40378, Pitch_bend_c, 7, 7424
12, 40380, Note_on_c, 7, 81, 0
12, 40380, Note_on_c, 7, 76, 0
12, 40380, Pitch_bend_c, 7, 7552
12, 40384, Pitch_bend_c, 7, 7680
12, 40386, Pitch_bend_c, 7, 7936
12, 40388, Pitch_bend_c, 7, 8192
12, 40410, Note_on_c, 7, 76, 100
12, 40410, Note_on_c, 7, 81, 100
12, 40440, Note_on_c, 7, 81, 0
12, 40440, Note_on_c, 7, 76, 0
12, 40470, Note_on_c, 7, 76, 100
12, 40470, Note_on_c, 7, 81, 100
12, 40500, Note_on_c, 7, 81, 0
12, 40500, Note_on_c, 7, 76, 0
12, 40500, Note_on_c, 7, 74, 100
12, 40500, Note_on_c, 7, 79, 100
12, 40530, Note_on_c, 7, 79, 0
12, 40530, Note_on_c, 7, 74, 0
12, 40560, Note_on_c, 7, 76, 100
12, 40560, Note_on_c, 7, 81, 100
12, 40590, Note_on_c, 7, 81, 0
12, 40590, Note_on_c, 7, 76, 0
12, 40800, Note_on_c, 7, 76, 100
12, 40800, Note_on_c, 7, 81, 100
12, 40804, Pitch_bend_c, 7, 4096
12, 40806, Pitch_bend_c, 7, 4352
12, 40810, Pitch_bend_c, 7, 4608
12, 40814, Pitch_bend_c, 7, 4864
12, 40816, Pitch_bend_c, 7, 5120
12, 40822, Pitch_bend_c, 7, 5376
12, 40826, Pitch_bend_c, 7, 5632
12, 40830, Pitch_bend_c, 7, 5760
12, 40834, Pitch_bend_c, 7, 6016
12, 40836, Pitch_bend_c, 7, 6144
12, 40838, Pitch_bend_c, 7, 6400
12, 40842, Pitch_bend_c, 7, 6656
12, 40848, Pitch_bend_c, 7, 6912
12, 40854, Pitch_bend_c, 7, 7168
12, 40856, Pitch_bend_c, 7, 7296
12, 40858, Pitch_bend_c, 7, 7424
12, 40860, Note_on_c, 7, 81, 0
12, 40860, Note_on_c, 7, 76, 0
12, 40860, Pitch_bend_c, 7, 7552
12, 40864, Pitch_bend_c, 7, 7680
12, 40866, Pitch_bend_c, 7, 7936
12, 40868, Pitch_bend_c, 7, 8192
12, 40890, Note_on_c, 7, 76, 100
12, 40890, Note_on_c, 7, 81, 100
12, 40920, Note_on_c, 7, 81, 0
12, 40920, Note_on_c, 7, 76, 0
12, 40950, Note_on_c, 7, 76, 100
12, 40950, Note_on_c, 7, 81, 100
12, 40980, Note_on_c, 7, 81, 0
12, 40980, Note_on_c, 7, 76, 0
12, 40980, Note_on_c, 7, 74, 100
12, 40980, Note_on_c, 7, 79, 100
12, 41010, Note_on_c, 7, 79, 0
12, 41010, Note_on_c, 7, 74, 0
12, 41040, Note_on_c, 7, 76, 100
12, 41040, Note_on_c, 7, 81, 100
12, 41070, Note_on_c, 7, 81, 0
12, 41070, Note_on_c, 7, 76, 0
12, 41100, Note_on_c, 7, 76, 100
12, 41100, Note_on_c, 7, 81, 100
12, 41130, Note_on_c, 7, 81, 0
12, 41130, Note_on_c, 7, 76, 0
12, 41160, Note_on_c, 7, 76, 100
12, 41160, Note_on_c, 7, 81, 100
12, 41190, Note_on_c, 7, 81, 0
12, 41190, Note_on_c, 7, 76, 0
12, 41190, Note_on_c, 7, 74, 100
12, 41190, Note_on_c, 7, 79, 100
12, 41220, Note_on_c, 7, 79, 0
12, 41220, Note_on_c, 7, 74, 0
12, 41280, Note_on_c, 7, 76, 100
12, 41280, Note_on_c, 7, 81, 100
12, 41284, Pitch_bend_c, 7, 4096
12, 41286, Pitch_bend_c, 7, 4352
12, 41290, Pitch_bend_c, 7, 4608
12, 41294, Pitch_bend_c, 7, 4864
12, 41296, Pitch_bend_c, 7, 5120
12, 41302, Pitch_bend_c, 7, 5376
12, 41306, Pitch_bend_c, 7, 5632
12, 41310, Pitch_bend_c, 7, 5760
12, 41314, Pitch_bend_c, 7, 6016
12, 41316, Pitch_bend_c, 7, 6144
12, 41318, Pitch_bend_c, 7, 6400
12, 41322, Pitch_bend_c, 7, 6656
12, 41328, Pitch_bend_c, 7, 6912
12, 41334, Pitch_bend_c, 7, 7168
12, 41336, Pitch_bend_c, 7, 7296
12, 41338, Pitch_bend_c, 7, 7424
12, 41340, Note_on_c, 7, 81, 0
12, 41340, Note_on_c, 7, 76, 0
12, 41340, Pitch_bend_c, 7, 7552
12, 41344, Pitch_bend_c, 7, 7680
12, 41346, Pitch_bend_c, 7, 7936
12, 41348, Pitch_bend_c, 7, 8192
12, 41370, Note_on_c, 7, 76, 100
12, 41370, Note_on_c, 7, 81, 100
12, 41400, Note_on_c, 7, 81, 0
12, 41400, Note_on_c, 7, 76, 0
12, 41430, Note_on_c, 7, 76, 100
12, 41430, Note_on_c, 7, 81, 100
12, 41460, Note_on_c, 7, 81, 0
12, 41460, Note_on_c, 7, 76, 0
12, 41460, Note_on_c, 7, 74, 100
12, 41460, Note_on_c, 7, 79, 100
12, 41490, Note_on_c, 7, 79, 0
12, 41490, Note_on_c, 7, 74, 0
12, 41520, Note_on_c, 7, 76, 100
12, 41520, Note_on_c, 7, 81, 100
12, 41550, Note_on_c, 7, 81, 0
12, 41550, Note_on_c, 7, 76, 0
12, 41760, Note_on_c, 7, 76, 100
12, 41760, Note_on_c, 7, 81, 100
12, 41764, Pitch_bend_c, 7, 4096
12, 41766, Pitch_bend_c, 7, 4352
12, 41770, Pitch_bend_c, 7, 4608
12, 41774, Pitch_bend_c, 7, 4864
12, 41776, Pitch_bend_c, 7, 5120
12, 41782, Pitch_bend_c, 7, 5376
12, 41786, Pitch_bend_c, 7, 5632
12, 41790, Pitch_bend_c, 7, 5760
12, 41794, Pitch_bend_c, 7, 6016
12, 41796, Pitch_bend_c, 7, 6144
12, 41798, Pitch_bend_c, 7, 6400
12, 41802, Pitch_bend_c, 7, 6656
12, 41808, Pitch_bend_c, 7, 6912
12, 41814, Pitch_bend_c, 7, 7168
12, 41816, Pitch_bend_c, 7, 7296
12, 41818, Pitch_bend_c, 7, 7424
12, 41820, Note_on_c, 7, 81, 0
12, 41820, Note_on_c, 7, 76, 0
12, 41820, Pitch_bend_c, 7, 7552
12, 41824, Pitch_bend_c, 7, 7680
12, 41826, Pitch_bend_c, 7, 7936
12, 41828, Pitch_bend_c, 7, 8192
12, 41850, Note_on_c, 7, 76, 100
12, 41850, Note_on_c, 7, 81, 100
12, 41880, Note_on_c, 7, 81, 0
12, 41880, Note_on_c, 7, 76, 0
12, 41910, Note_on_c, 7, 76, 100
12, 41910, Note_on_c, 7, 81, 100
12, 41940, Note_on_c, 7, 81, 0
12, 41940, Note_on_c, 7, 76, 0
12, 41940, Note_on_c, 7, 74, 100
12, 41940, Note_on_c, 7, 79, 100
12, 41970, Note_on_c, 7, 79, 0
12, 41970, Note_on_c, 7, 74, 0
12, 42000, Note_on_c, 7, 76, 100
12, 42000, Note_on_c, 7, 81, 100
12, 42030, Note_on_c, 7, 81, 0
12, 42030, Note_on_c, 7, 76, 0
12, 42060, Note_on_c, 7, 76, 100
12, 42060, Note_on_c, 7, 81, 100
12, 42090, Note_on_c, 7, 81, 0
12, 42090, Note_on_c, 7, 76, 0
12, 42120, Note_on_c, 7, 76, 100
12, 42120, Note_on_c, 7, 81, 100
12, 42150, Note_on_c, 7, 81, 0
12, 42150, Note_on_c, 7, 76, 0
12, 42150, Note_on_c, 7, 74, 100
12, 42150, Note_on_c, 7, 79, 100
12, 42180, Note_on_c, 7, 79, 0
12, 42180, Note_on_c, 7, 74, 0
12, 42240, Note_on_c, 7, 76, 100
12, 42240, Note_on_c, 7, 81, 100
12, 42244, Pitch_bend_c, 7, 4096
12, 42246, Pitch_bend_c, 7, 4352
12, 42250, Pitch_bend_c, 7, 4608
12, 42254, Pitch_bend_c, 7, 4864
12, 42256, Pitch_bend_c, 7, 5120
12, 42262, Pitch_bend_c, 7, 5376
12, 42266, Pitch_bend_c, 7, 5632
12, 42270, Pitch_bend_c, 7, 5760
12, 42274, Pitch_bend_c, 7, 6016
12, 42276, Pitch_bend_c, 7, 6144
12, 42278, Pitch_bend_c, 7, 6400
12, 42282, Pitch_bend_c, 7, 6656
12, 42288, Pitch_bend_c, 7, 6912
12, 42294, Pitch_bend_c, 7, 7168
12, 42296, Pitch_bend_c, 7, 7296
12, 42298, Pitch_bend_c, 7, 7424
12, 42300, Note_on_c, 7, 81, 0
12, 42300, Note_on_c, 7, 76, 0
12, 42300, Pitch_bend_c, 7, 7552
12, 42304, Pitch_bend_c, 7, 7680
12, 42306, Pitch_bend_c, 7, 7936
12, 42308, Pitch_bend_c, 7, 8192
12, 42330, Note_on_c, 7, 76, 100
12, 42330, Note_on_c, 7, 81, 100
12, 42360, Note_on_c, 7, 81, 0
12, 42360, Note_on_c, 7, 76, 0
12, 42390, Note_on_c, 7, 76, 100
12, 42390, Note_on_c, 7, 81, 100
12, 42420, Note_on_c, 7, 81, 0
12, 42420, Note_on_c, 7, 76, 0
12, 42420, Note_on_c, 7, 74, 100
12, 42420, Note_on_c, 7, 79, 100
12, 42450, Note_on_c, 7, 79, 0
12, 42450, Note_on_c, 7, 74, 0
12, 42480, Note_on_c, 7, 76, 100
12, 42480, Note_on_c, 7, 81, 100
12, 42510, Note_on_c, 7, 81, 0
12, 42510, Note_on_c, 7, 76, 0
12, 42720, Note_on_c, 7, 76, 100
12, 42720, Note_on_c, 7, 81, 100
12, 42724, Pitch_bend_c, 7, 4096
12, 42726, Pitch_bend_c, 7, 4352
12, 42730, Pitch_bend_c, 7, 4608
12, 42734, Pitch_bend_c, 7, 4864
12, 42736, Pitch_bend_c, 7, 5120
12, 42742, Pitch_bend_c, 7, 5376
12, 42746, Pitch_bend_c, 7, 5632
12, 42750, Pitch_bend_c, 7, 5760
12, 42754, Pitch_bend_c, 7, 6016
12, 42756, Pitch_bend_c, 7, 6144
12, 42758, Pitch_bend_c, 7, 6400
12, 42762, Pitch_bend_c, 7, 6656
12, 42768, Pitch_bend_c, 7, 6912
12, 42774, Pitch_bend_c, 7, 7168
12, 42776, Pitch_bend_c, 7, 7296
12, 42778, Pitch_bend_c, 7, 7424
12, 42780, Note_on_c, 7, 81, 0
12, 42780, Note_on_c, 7, 76, 0
12, 42780, Pitch_bend_c, 7, 7552
12, 42784, Pitch_bend_c, 7, 7680
12, 42786, Pitch_bend_c, 7, 7936
12, 42788, Pitch_bend_c, 7, 8192
12, 42810, Note_on_c, 7, 76, 100
12, 42810, Note_on_c, 7, 81, 100
12, 42840, Note_on_c, 7, 81, 0
12, 42840, Note_on_c, 7, 76, 0
12, 42870, Note_on_c, 7, 76, 100
12, 42870, Note_on_c, 7, 81, 100
12, 42900, Note_on_c, 7, 81, 0
12, 42900, Note_on_c, 7, 76, 0
12, 42900, Note_on_c, 7, 74, 100
12, 42900, Note_on_c, 7, 79, 100
12, 42930, Note_on_c, 7, 79, 0
12, 42930, Note_on_c, 7, 74, 0
12, 42960, Note_on_c, 7, 76, 100
12, 42960, Note_on_c, 7, 81, 100
12, 42990, Note_on_c, 7, 81, 0
12, 42990, Note_on_c, 7, 76, 0
12, 43020, Note_on_c, 7, 76, 100
12, 43020, Note_on_c, 7, 81, 100
12, 43050, Note_on_c, 7, 81, 0
12, 43050, Note_on_c, 7, 76, 0
12, 43080, Note_on_c, 7, 76, 100
12, 43080, Note_on_c, 7, 81, 100
12, 43110, Note_on_c, 7, 81, 0
12, 43110, Note_on_c, 7, 76, 0
12, 43110, Note_on_c, 7, 74, 100
12, 43110, Note_on_c, 7, 79, 100
12, 43140, Note_on_c, 7, 79, 0
12, 43140, Note_on_c, 7, 74, 0
12, 43200, Note_on_c, 7, 76, 100
12, 43200, Note_on_c, 7, 81, 100
12, 43204, Pitch_bend_c, 7, 4096
12, 43206, Pitch_bend_c, 7, 4352
12, 43210, Pitch_bend_c, 7, 4608
12, 43214, Pitch_bend_c, 7, 4864
12, 43216, Pitch_bend_c, 7, 5120
12, 43222, Pitch_bend_c, 7, 5376
12, 43226, Pitch_bend_c, 7, 5632
12, 43230, Pitch_bend_c, 7, 5760
12, 43234, Pitch_bend_c, 7, 6016
12, 43236, Pitch_bend_c, 7, 6144
12, 43238, Pitch_bend_c, 7, 6400
12, 43242, Pitch_bend_c, 7, 6656
12, 43248, Pitch_bend_c, 7, 6912
12, 43254, Pitch_bend_c, 7, 7168
12, 43256, Pitch_bend_c, 7, 7296
12, 43258, Pitch_bend_c, 7, 7424
12, 43260, Note_on_c, 7, 81, 0
12, 43260, Note_on_c, 7, 76, 0
12, 43260, Pitch_bend_c, 7, 7552
12, 43264, Pitch_bend_c, 7, 7680
12, 43266, Pitch_bend_c, 7, 7936
12, 43268, Pitch_bend_c, 7, 8192
12, 43290, Note_on_c, 7, 76, 100
12, 43290, Note_on_c, 7, 81, 100
12, 43320, Note_on_c, 7, 81, 0
12, 43320, Note_on_c, 7, 76, 0
12, 43350, Note_on_c, 7, 76, 100
12, 43350, Note_on_c, 7, 81, 100
12, 43380, Note_on_c, 7, 81, 0
12, 43380, Note_on_c, 7, 76, 0
12, 43380, Note_on_c, 7, 74, 100
12, 43380, Note_on_c, 7, 79, 100
12, 43410, Note_on_c, 7, 79, 0
12, 43410, Note_on_c, 7, 74, 0
12, 43440, Note_on_c, 7, 76, 100
12, 43440, Note_on_c, 7, 81, 100
12, 43470, Note_on_c, 7, 81, 0
12, 43470, Note_on_c, 7, 76, 0
12, 43680, Note_on_c, 7, 76, 100
12, 43680, Note_on_c, 7, 81, 100
12, 43684, Pitch_bend_c, 7, 4096
12, 43685, Note_on_c, 7, 60, 89
12, 43686, Pitch_bend_c, 7, 4352
12, 43690, Pitch_bend_c, 7, 4608
12, 43692, Note_on_c, 7, 62, 93
12, 43694, Pitch_bend_c, 7, 4864
12, 43696, Pitch_bend_c, 7, 5120
12, 43697, Note_on_c, 7, 60, 0
12, 43700, Note_on_c, 7, 64, 95
12, 43702, Pitch_bend_c, 7, 5376
12, 43705, Note_on_c, 7, 62, 0
12, 43706, Pitch_bend_c, 7, 5632
12, 43707, Note_on_c, 7, 65, 96
12, 43710, Pitch_bend_c, 7, 5760
12, 43712, Note_on_c, 7, 64, 0
12, 43714, Pitch_bend_c, 7, 6016
12, 43716, Pitch_bend_c, 7, 6144
12, 43717, Note_on_c, 7, 67, 100
12, 43718, Pitch_bend_c, 7, 6400
12, 43720, Note_on_c, 7, 65, 0
12, 43722, Pitch_bend_c, 7, 6656
12, 43725, Note_on_c, 7, 69, 98
12, 43728, Pitch_bend_c, 7, 6912
12, 43730, Note_on_c, 7, 67, 0
12, 43734, Pitch_bend_c, 7, 7168
12, 43735, Note_on_c, 7, 71, 96
12, 43736, Pitch_bend_c, 7, 7296
12, 43737, Note_on_c, 7, 69, 0
12, 43738, Pitch_bend_c, 7, 7424
12, 43740, Note_on_c, 7, 76, 0
12, 43740, Note_on_c, 7, 81, 0
12, 43740, Pitch_bend_c, 7, 7552
12, 43744, Pitch_bend_c, 7, 7680
12, 43745, Note_on_c, 7, 72, 97
12, 43746, Pitch_bend_c, 7, 7936
12, 43748, Pitch_bend_c, 7, 8192
12, 43750, Note_on_c, 7, 71, 0
12, 43755, Note_on_c, 7, 74, 96
12, 43760, Note_on_c, 7, 72, 0
12, 43765, Note_on_c, 7, 76, 96
12, 43767, Note_on_c, 7, 74, 0
12, 43770, Note_on_c, 7, 81, 100
12, 43777, Note_on_c, 7, 77, 96
12, 43780, Note_on_c, 7, 76, 0
12, 43782, Note_on_c, 7, 67, 88
12, 43785, Note_on_c, 7, 77, 0
12, 43790, Note_on_c, 7, 69, 80
12, 43795, Note_on_c, 7, 67, 0
12, 43800, Note_on_c, 7, 81, 0
12, 43802, Note_on_c, 7, 71, 47
12, 43810, Note_on_c, 7, 69, 0
12, 43812, Note_on_c, 7, 72, 81
12, 43815, Note_on_c, 7, 71, 0
12, 43822, Note_on_c, 7, 74, 87
12, 43825, Note_on_c, 7, 72, 0
12, 43830, Note_on_c, 7, 81, 100
12, 43830, Note_on_c, 7, 76, 88
12, 43835, Note_on_c, 7, 74, 0
12, 43840, Note_on_c, 7, 77, 89
12, 43842, Note_on_c, 7, 76, 0
12, 43850, Note_on_c, 7, 79, 87
12, 43855, Note_on_c, 7, 77, 0
12, 43860, Note_on_c, 7, 81, 0
12, 43860, Note_on_c, 7, 79, 100
12, 43860, Note_on_c, 7, 81, 86
12, 43862, Note_on_c, 7, 79, 0
12, 43870, Note_on_c, 7, 83, 87
12, 43872, Note_on_c, 7, 81, 0
12, 43880, Note_on_c, 7, 84, 93
12, 43882, Note_on_c, 7, 83, 0
12, 43890, Note_on_c, 7, 79, 0
12, 43890, Note_on_c, 7, 86, 96
12, 43895, Note_on_c, 7, 84, 0
12, 43900, Note_on_c, 7, 71, 81
12, 43902, Note_on_c, 7, 88, 77
12, 43902, Note_on_c, 7, 72, 95
12, 43907, Note_on_c, 7, 71, 0
12, 43907, Note_on_c, 7, 86, 0
12, 43912, Note_on_c, 7, 88, 0
12, 43912, Note_on_c, 7, 74, 66
12, 43917, Note_on_c, 7, 72, 0
12, 43920, Note_on_c, 7, 81, 100
12, 43922, Note_on_c, 7, 76, 76
12, 43930, Note_on_c, 7, 74, 0
12, 43932, Note_on_c, 7, 77, 88
12, 43937, Note_on_c, 7, 76, 0
12, 43940, Note_on_c, 7, 79, 92
12, 43945, Note_on_c, 7, 77, 0
12, 43950, Note_on_c, 7, 81, 0
12, 43950, Note_on_c, 7, 81, 92
12, 43952, Note_on_c, 7, 79, 0
12, 43957, Note_on_c, 7, 83, 96
12, 43960, Note_on_c, 7, 81, 0
12, 43965, Note_on_c, 7, 84, 96
12, 43967, Note_on_c, 7, 83, 0
12, 43972, Note_on_c, 7, 86, 100
12, 43977, Note_on_c, 7, 84, 0
12, 43980, Note_on_c, 7, 88, 101
12, 43985, Note_on_c, 7, 86, 0
12, 43990, Note_on_c, 7, 89, 100
12, 43992, Note_on_c, 7, 88, 0
12, 43997, Note_on_c, 7, 91, 101
12, 44000, Note_on_c, 7, 89, 0
12, 44005, Note_on_c, 7, 93, 103
12, 44010, Note_on_c, 7, 91, 0
12, 44015, Note_on_c, 7, 95, 100
12, 44017, Note_on_c, 7, 93, 0
12, 44025, Note_on_c, 7, 96, 101
12, 44027, Note_on_c, 7, 95, 0
12, 44032, Note_on_c, 7, 98, 105
12, 44035, Note_on_c, 7, 96, 0
12, 44040, Note_on_c, 7, 98, 0
12, 44045, Note_on_c, 7, 88, 81
12, 44045, Note_on_c, 7, 89, 103
12, 44050, Note_on_c, 7, 88, 0
12, 44055, Note_on_c, 7, 91, 94
12, 44057, Note_on_c, 7, 89, 0
12, 44060, Note_on_c, 7, 93, 93
12, 44065, Note_on_c, 7, 91, 0
12, 44067, Note_on_c, 7, 95, 98
12, 44070, Note_on_c, 7, 93, 0
12, 44077, Note_on_c, 7, 96, 103
12, 44080, Note_on_c, 7, 95, 0
12, 44082, Note_on_c, 7, 98, 106
12, 44087, Note_on_c, 7, 96, 0
12, 44092, Note_on_c, 7, 100, 105
12, 44095, Note_on_c, 7, 98, 0
12, 44100, Note_on_c, 7, 101, 103
12, 44102, Note_on_c, 7, 100, 0
12, 44110, Note_on_c, 7, 103, 102
12, 44115, Note_on_c, 7, 101, 0
12, 44120, Note_on_c, 7, 105, 105
12, 44122, Note_on_c, 7, 103, 0
12, 44130, Note_on_c, 7, 107, 103
12, 44135, Note_on_c, 7, 105, 0
12, 44142, Note_on_c, 7, 108, 100
12, 44147, Note_on_c, 7, 107, 0
12, 44157, Note_on_c, 7, 108, 0
12, 74885, Note_on_c, 7, 60, 89
12, 74892, Note_on_c, 7, 62, 93
12, 74897, Note_on_c, 7, 60, 0
12, 74900, Note_on_c, 7, 64, 95
12, 74905, Note_on_c, 7, 62, 0
12, 74907, Note_on_c, 7, 65, 96
12, 74912, Note_on_c, 7, 64, 0
12, 74917, Note_on_c, 7, 67, 100
12, 74920, Note_on_c, 7, 65, 0
12, 74925, Note_on_c, 7, 69, 98
12, 74930, Note_on_c, 7, 67, 0
12, 74935, Note_on_c, 7, 71, 96
12, 74937, Note_on_c, 7, 69, 0
12, 74945, Note_on_c, 7, 72, 97
12, 74950, Note_on_c, 7, 71, 0
12, 74955, Note_on_c, 7, 74, 96
12, 74960, Note_on_c, 7, 72, 0
12, 74965, Note_on_c, 7, 76, 96
12, 74967, Note_on_c, 7, 74, 0
12, 74977, Note_on_c, 7, 77, 96
12, 74980, Note_on_c, 7, 76, 0
12, 74982, Note_on_c, 7, 67, 88
12, 74985, Note_on_c, 7, 77, 0
12, 74990, Note_on_c, 7, 69, 80
12, 74995, Note_on_c, 7, 67, 0
12, 75002, Note_on_c, 7, 71, 47
12, 75010, Note_on_c, 7, 69, 0
12, 75012, Note_on_c, 7, 72, 81
12, 75015, Note_on_c, 7, 71, 0
12, 75022, Note_on_c, 7, 74, 87
12, 75025, Note_on_c, 7, 72, 0
12, 75030, Note_on_c, 7, 76, 88
12, 75035, Note_on_c, 7, 74, 0
12, 75040, Note_on_c, 7, 77, 89
12, 75042, Note_on_c, 7, 76, 0
12, 75050, Note_on_c, 7, 79, 87
12, 75055, Note_on_c, 7, 77, 0
12, 75060, Note_on_c, 7, 81, 86
12, 75062, Note_on_c, 7, 79, 0
12, 75070, Note_on_c, 7, 83, 87
12, 75072, Note_on_c, 7, 81, 0
12, 75080, Note_on_c, 7, 84, 93
12, 75082, Note_on_c, 7, 83, 0
12, 75090, Note_on_c, 7, 86, 96
12, 75095, Note_on_c, 7, 84, 0
12, 75100, Note_on_c, 7, 71, 81
12, 75102, Note_on_c, 7, 88, 77
12, 75102, Note_on_c, 7, 72, 95
12, 75107, Note_on_c, 7, 71, 0
12, 75107, Note_on_c, 7, 86, 0
12, 75112, Note_on_c, 7, 88, 0
12, 75112, Note_on_c, 7, 74, 66
12, 75117, Note_on_c, 7, 72, 0
12, 75122, Note_on_c, 7, 76, 76
12, 75130, Note_on_c, 7, 74, 0
12, 75132, Note_on_c, 7, 77, 88
12, 75137, Note_on_c, 7, 76, 0
12, 75140, Note_on_c, 7, 79, 92
12, 75145, Note_on_c, 7, 77, 0
12, 75150, Note_on_c, 7, 81, 92
12, 75152, Note_on_c, 7, 79, 0
12, 75157, Note_on_c, 7, 83, 96
12, 75160, Note_on_c, 7, 81, 0
12, 75165, Note_on_c, 7, 84, 96
12, 75167, Note_on_c, 7, 83, 0
12, 75172, Note_on_c, 7, 86, 100
12, 75177, Note_on_c, 7, 84, 0
12, 75180, Note_on_c, 7, 88, 101
12, 75185, Note_on_c, 7, 86, 0
12, 75190, Note_on_c, 7, 89, 100
12, 75192, Note_on_c, 7, 88, 0
12, 75197, Note_on_c, 7, 91, 101
12, 75200, Note_on_c, 7, 89, 0
12, 75205, Note_on_c, 7, 93, 103
12, 75210, Note_on_c, 7, 91, 0
12, 75215, Note_on_c, 7, 95, 100
12, 75217, Note_on_c, 7, 93, 0
12, 75225, Note_on_c, 7, 96, 101
12, 75227, Note_on_c, 7, 95, 0
12, 75232, Note_on_c, 7, 98, 105
12, 75235, Note_on_c, 7, 96, 0
12, 75240, Note_on_c, 7, 98, 0
12, 75245, Note_on_c, 7, 88, 81
12, 75245, Note_on_c, 7, 89, 103
12, 75250, Note_on_c, 7, 88, 0
12, 75255, Note_on_c, 7, 91, 94
12, 75257, Note_on_c, 7, 89, 0
12, 75260, Note_on_c, 7, 93, 93
12, 75265, Note_on_c, 7, 91, 0
12, 75267, Note_on_c, 7, 95, 98
12, 75270, Note_on_c, 7, 93, 0
12, 75277, Note_on_c, 7, 96, 103
12, 75280, Note_on_c, 7, 95, 0
12, 75282, Note_on_c, 7, 98, 106
12, 75287, Note_on_c, 7, 96, 0
12, 75292, Note_on_c, 7, 100, 105
12, 75295, Note_on_c, 7, 98, 0
12, 75300, Note_on_c, 7, 101, 103
12, 75302, Note_on_c, 7, 100, 0
12, 75310, Note_on_c, 7, 103, 102
12, 75315, Note_on_c, 7, 101, 0
12, 75320, Note_on_c, 7, 105, 105
12, 75322, Note_on_c, 7, 103, 0
12, 75330, Note_on_c, 7, 107, 103
12, 75335, Note_on_c, 7, 105, 0
12, 75342, Note_on_c, 7, 108, 100
12, 75347, Note_on_c, 7, 107, 0
12, 75357, Note_on_c, 7, 108, 0
12, 79200, Note_on_c, 7, 81, 100
12, 79200, Note_on_c, 7, 76, 100
12, 79200, Note_on_c, 7, 81, 100
12, 79204, Pitch_bend_c, 7, 4096
12, 79204, Pitch_bend_c, 7, 4096
12, 79206, Pitch_bend_c, 7, 4352
12, 79206, Pitch_bend_c, 7, 4352
12, 79210, Pitch_bend_c, 7, 4608
12, 79210, Pitch_bend_c, 7, 4608
12, 79214, Pitch_bend_c, 7, 4864
12, 79214, Pitch_bend_c, 7, 4864
12, 79216, Pitch_bend_c, 7, 5120
12, 79216, Pitch_bend_c, 7, 5120
12, 79222, Pitch_bend_c, 7, 5376
12, 79222, Pitch_bend_c, 7, 5376
12, 79226, Pitch_bend_c, 7, 5632
12, 79226, Pitch_bend_c, 7, 5632
12, 79230, Pitch_bend_c, 7, 5760
12, 79230, Pitch_bend_c, 7, 5760
12, 79234, Pitch_bend_c, 7, 6016
12, 79234, Pitch_bend_c, 7, 6016
12, 79236, Pitch_bend_c, 7, 6144
12, 79236, Pitch_bend_c, 7, 6144
12, 79238, Pitch_bend_c, 7, 6400
12, 79238, Pitch_bend_c, 7, 6400
12, 79242, Pitch_bend_c, 7, 6656
12, 79242, Pitch_bend_c, 7, 6656
12, 79248, Pitch_bend_c, 7, 6912
12, 79248, Pitch_bend_c, 7, 6912
12, 79254, Pitch_bend_c, 7, 7168
12, 79254, Pitch_bend_c, 7, 7168
12, 79256, Pitch_bend_c, 7, 7296
12, 79256, Pitch_bend_c, 7, 7296
12, 79258, Pitch_bend_c, 7, 7424
12, 79258, Pitch_bend_c, 7, 7424
12, 79260, Note_on_c, 7, 81, 0
12, 79260, Note_on_c, 7, 76, 0
12, 79260, Note_on_c, 7, 81, 0
12, 79260, Pitch_bend_c, 7, 7552
12, 79260, Pitch_bend_c, 7, 7552
12, 79264, Pitch_bend_c, 7, 7680
12, 79264, Pitch_bend_c, 7, 7680
12, 79266, Pitch_bend_c, 7, 7936
12, 79266, Pitch_bend_c, 7, 7936
12, 79268, Pitch_bend_c, 7, 8192
12, 79268, Pitch_bend_c, 7, 8192
12, 79290, Note_on_c, 7, 81, 100
12, 79290, Note_on_c, 7, 76, 100
12, 79290, Note_on_c, 7, 81, 100
12, 79320, Note_on_c, 7, 81, 0
12, 79320, Note_on_c, 7, 76, 0
12, 79320, Note_on_c, 7, 81, 0
12, 79350, Note_on_c, 7, 81, 100
12, 79350, Note_on_c, 7, 76, 100
12, 79350, Note_on_c, 7, 81, 100
12, 79380, Note_on_c, 7, 81, 0
12, 79380, Note_on_c, 7, 76, 0
12, 79380, Note_on_c, 7, 81, 0
12, 79380, Note_on_c, 7, 79, 100
12, 79380, Note_on_c, 7, 74, 100
12, 79380, Note_on_c, 7, 79, 100
12, 79410, Note_on_c, 7, 79, 0
12, 79410, Note_on_c, 7, 74, 0
12, 79410, Note_on_c, 7, 79, 0
12, 79440, Note_on_c, 7, 81, 100
12, 79440, Note_on_c, 7, 76, 100
12, 79440, Note_on_c, 7, 81, 100
12, 79470, Note_on_c, 7, 81, 0
12, 79470, Note_on_c, 7, 76, 0
12, 79470, Note_on_c, 7, 81, 0
12, 79680, Note_on_c, 7, 81, 100
12, 79680, Note_on_c, 7, 76, 100
12, 79680, Note_on_c, 7, 81, 100
12, 79684, Pitch_bend_c, 7, 4096
12, 79684, Pitch_bend_c, 7, 4096
12, 79686, Pitch_bend_c, 7, 4352
12, 79686, Pitch_bend_c, 7, 4352
12, 79690, Pitch_bend_c, 7, 4608
12, 79690, Pitch_bend_c, 7, 4608
12, 79694, Pitch_bend_c, 7, 4864
12, 79694, Pitch_bend_c, 7, 4864
12, 79696, Pitch_bend_c, 7, 5120
12, 79696, Pitch_bend_c, 7, 5120
12, 79702, Pitch_bend_c, 7, 5376
12, 79702, Pitch_bend_c, 7, 5376
12, 79706, Pitch_bend_c, 7, 5632
12, 79706, Pitch_bend_c, 7, 5632
12, 79710, Pitch_bend_c, 7, 5760
12, 79710, Pitch_bend_c, 7, 5760
12, 79714, Pitch_bend_c, 7, 6016
12, 79714, Pitch_bend_c, 7, 6016
12, 79716, Pitch_bend_c, 7, 6144
12, 79716, Pitch_bend_c, 7, 6144
12, 79718, Pitch_bend_c, 7, 6400
12, 79718, Pitch_bend_c, 7, 6400
12, 79722, Pitch_bend_c, 7, 6656
12, 79722, Pitch_bend_c, 7, 6656
12, 79728, Pitch_bend_c, 7, 6912
12, 79728, Pitch_bend_c, 7, 6912
12, 79734, Pitch_bend_c, 7, 7168
12, 79734, Pitch_bend_c, 7, 7168
12, 79736, Pitch_bend_c, 7, 7296
12, 79736, Pitch_bend_c, 7, 7296
12, 79738, Pitch_bend_c, 7, 7424
12, 79738, Pitch_bend_c, 7, 7424
12, 79740, Note_on_c, 7, 81, 0
12, 79740, Note_on_c, 7, 76, 0
12, 79740, Note_on_c, 7, 81, 0
12, 79740, Pitch_bend_c, 7, 7552
12, 79740, Pitch_bend_c, 7, 7552
12, 79744, Pitch_bend_c, 7, 7680
12, 79744, Pitch_bend_c, 7, 7680
12, 79746, Pitch_bend_c, 7, 7936
12, 79746, Pitch_bend_c, 7, 7936
12, 79748, Pitch_bend_c, 7, 8192
12, 79748, Pitch_bend_c, 7, 8192
12, 79770, Note_on_c, 7, 81, 100
12, 79770, Note_on_c, 7, 76, 100
12, 79770, Note_on_c, 7, 81, 100
12, 79800, Note_on_c, 7, 81, 0
12, 79800, Note_on_c, 7, 76, 0
12, 79800, Note_on_c, 7, 81, 0
12, 79830, Note_on_c, 7, 81, 100
12, 79830, Note_on_c, 7, 76, 100
12, 79830, Note_on_c, 7, 81, 100
12, 79860, Note_on_c, 7, 81, 0
12, 79860, Note_on_c, 7, 76, 0
12, 79860, Note_on_c, 7, 81, 0
12, 79860, Note_on_c, 7, 79, 100
12, 79860, Note_on_c, 7, 74, 100
12, 79860, Note_on_c, 7, 79, 100
12, 79890, Note_on_c, 7, 79, 0
12, 79890, Note_on_c, 7, 74, 0
12, 79890, Note_on_c, 7, 79, 0
12, 79920, Note_on_c, 7, 81, 100
12, 79920, Note_on_c, 7, 76, 100
12, 79920, Note_on_c, 7, 81, 100
12, 79950, Note_on_c, 7, 81, 0
12, 79950, Note_on_c, 7, 76, 0
12, 79950, Note_on_c, 7, 81, 0
12, 79980, Note_on_c, 7, 81, 100
12, 79980, Note_on_c, 7, 76, 100
12, 79980, Note_on_c, 7, 81, 100
12, 80010, Note_on_c, 7, 81, 0
12, 80010, Note_on_c, 7, 76, 0
12, 80010, Note_on_c, 7, 81, 0
12, 80040, Note_on_c, 7, 81, 100
12, 80040, Note_on_c, 7, 76, 100
12, 80040, Note_on_c, 7, 81, 100
12, 80070, Note_on_c, 7, 81, 0
12, 80070, Note_on_c, 7, 76, 0
12, 80070, Note_on_c, 7, 81, 0
12, 80070, Note_on_c, 7, 79, 100
12, 80070, Note_on_c, 7, 74, 100
12, 80070, Note_on_c, 7, 79, 100
12, 80100, Note_on_c, 7, 79, 0
12, 80100, Note_on_c, 7, 74, 0
12, 80100, Note_on_c, 7, 79, 0
12, 80160, Note_on_c, 7, 81, 100
12, 80160, Note_on_c, 7, 76, 100
12, 80160, Note_on_c, 7, 81, 100
12, 80164, Pitch_bend_c, 7, 4096
12, 80164, Pitch_bend_c, 7, 4096
12, 80166, Pitch_bend_c, 7, 4352
12, 80166, Pitch_bend_c, 7, 4352
12, 80170, Pitch_bend_c, 7, 4608
12, 80170, Pitch_bend_c, 7, 4608
12, 80174, Pitch_bend_c, 7, 4864
12, 80174, Pitch_bend_c, 7, 4864
12, 80176, Pitch_bend_c, 7, 5120
12, 80176, Pitch_bend_c, 7, 5120
12, 80182, Pitch_bend_c, 7, 5376
12, 80182, Pitch_bend_c, 7, 5376
12, 80186, Pitch_bend_c, 7, 5632
12, 80186, Pitch_bend_c, 7, 5632
12, 80190, Pitch_bend_c, 7, 5760
12, 80190, Pitch_bend_c, 7, 5760
12, 80194, Pitch_bend_c, 7, 6016
12, 80194, Pitch_bend_c, 7, 6016
12, 80196, Pitch_bend_c, 7, 6144
12, 80196, Pitch_bend_c, 7, 6144
12, 80198, Pitch_bend_c, 7, 6400
12, 80198, Pitch_bend_c, 7, 6400
12, 80202, Pitch_bend_c, 7, 6656
12, 80202, Pitch_bend_c, 7, 6656
12, 80208, Pitch_bend_c, 7, 6912
12, 80208, Pitch_bend_c, 7, 6912
12, 80214, Pitch_bend_c, 7, 7168
12, 80214, Pitch_bend_c, 7, 7168
12, 80216, Pitch_bend_c, 7, 7296
12, 80216, Pitch_bend_c, 7, 7296
12, 80218, Pitch_bend_c, 7, 7424
12, 80218, Pitch_bend_c, 7, 7424
12, 80220, Note_on_c, 7, 81, 0
12, 80220, Note_on_c, 7, 76, 0
12, 80220, Note_on_c, 7, 81, 0
12, 80220, Pitch_bend_c, 7, 7552
12, 80220, Pitch_bend_c, 7, 7552
12, 80224, Pitch_bend_c, 7, 7680
12, 80224, Pitch_bend_c, 7, 7680
12, 80226, Pitch_bend_c, 7, 7936
12, 80226, Pitch_bend_c, 7, 7936
12, 80228, Pitch_bend_c, 7, 8192
12, 80228, Pitch_bend_c, 7, 8192
12, 80250, Note_on_c, 7, 81, 100
12, 80250, Note_on_c, 7, 76, 100
12, 80250, Note_on_c, 7, 81, 100
12, 80280, Note_on_c, 7, 81, 0
12, 80280, Note_on_c, 7, 76, 0
12, 80280, Note_on_c, 7, 81, 0
12, 80310, Note_on_c, 7, 81, 100
12, 80310, Note_on_c, 7, 76, 100
12, 80310, Note_on_c, 7, 81, 100
12, 80340, Note_on_c, 7, 81, 0
12, 80340, Note_on_c, 7, 76, 0
12, 80340, Note_on_c, 7, 81, 0
12, 80340, Note_on_c, 7, 79, 100
12, 80340, Note_on_c, 7, 74, 100
12, 80340, Note_on_c, 7, 79, 100
12, 80370, Note_on_c, 7, 79, 0
12, 80370, Note_on_c, 7, 74, 0
12, 80370, Note_on_c, 7, 79, 0
12, 80400, Note_on_c, 7, 81, 100
12, 80400, Note_on_c, 7, 76, 100
12, 80400, Note_on_c, 7, 81, 100
12, 80430, Note_on_c, 7, 81, 0
12, 80430, Note_on_c, 7, 76, 0
12, 80430, Note_on_c, 7, 81, 0
12, 80640, Note_on_c, 7, 81, 100
12, 80640, Note_on_c, 7, 76, 100
12, 80640, Note_on_c, 7, 81, 100
12, 80644, Pitch_bend_c, 7, 4096
12, 80644, Pitch_bend_c, 7, 4096
12, 80646, Pitch_bend_c, 7, 4352
12, 80646, Pitch_bend_c, 7, 4352
12, 80650, Pitch_bend_c, 7, 4608
12, 80650, Pitch_bend_c, 7, 4608
12, 80654, Pitch_bend_c, 7, 4864
12, 80654, Pitch_bend_c, 7, 4864
12, 80656, Pitch_bend_c, 7, 5120
12, 80656, Pitch_bend_c, 7, 5120
12, 80662, Pitch_bend_c, 7, 5376
12, 80662, Pitch_bend_c, 7, 5376
12, 80666, Pitch_bend_c, 7, 5632
12, 80666, Pitch_bend_c, 7, 5632
12, 80670, Pitch_bend_c, 7, 5760
12, 80670, Pitch_bend_c, 7, 5760
12, 80674, Pitch_bend_c, 7, 6016
12, 80674, Pitch_bend_c, 7, 6016
12, 80676, Pitch_bend_c, 7, 6144
12, 80676, Pitch_bend_c, 7, 6144
12, 80678, Pitch_bend_c, 7, 6400
12, 80678, Pitch_bend_c, 7, 6400
12, 80682, Pitch_bend_c, 7, 6656
12, 80682, Pitch_bend_c, 7, 6656
12, 80688, Pitch_bend_c, 7, 6912
12, 80688, Pitch_bend_c, 7, 6912
12, 80694, Pitch_bend_c, 7, 7168
12, 80694, Pitch_bend_c, 7, 7168
12, 80696, Pitch_bend_c, 7, 7296
12, 80696, Pitch_bend_c, 7, 7296
12, 80698, Pitch_bend_c, 7, 7424
12, 80698, Pitch_bend_c, 7, 7424
12, 80700, Note_on_c, 7, 81, 0
12, 80700, Note_on_c, 7, 76, 0
12, 80700, Note_on_c, 7, 81, 0
12, 80700, Pitch_bend_c, 7, 7552
12, 80700, Pitch_bend_c, 7, 7552
12, 80704, Pitch_bend_c, 7, 7680
12, 80704, Pitch_bend_c, 7, 7680
12, 80706, Pitch_bend_c, 7, 7936
12, 80706, Pitch_bend_c, 7, 7936
12, 80708, Pitch_bend_c, 7, 8192
12, 80708, Pitch_bend_c, 7, 8192
12, 80730, Note_on_c, 7, 81, 100
12, 80730, Note_on_c, 7, 76, 100
12, 80730, Note_on_c, 7, 81, 100
12, 80760, Note_on_c, 7, 81, 0
12, 80760, Note_on_c, 7, 76, 0
12, 80760, Note_on_c, 7, 81, 0
12, 80790, Note_on_c, 7, 81, 100
12, 80790, Note_on_c, 7, 76, 100
12, 80790, Note_on_c, 7, 81, 100
12, 80820, Note_on_c, 7, 81, 0
12, 80820, Note_on_c, 7, 76, 0
12, 80820, Note_on_c, 7, 81, 0
12, 80820, Note_on_c, 7, 79, 100
12, 80820, Note_on_c, 7, 74, 100
12, 80820, Note_on_c, 7, 79, 100
12, 80850, Note_on_c, 7, 79, 0
12, 80850, Note_on_c, 7, 74, 0
12, 80850, Note_on_c, 7, 79, 0
12, 80880, Note_on_c, 7, 81, 100
12, 80880, Note_on_c, 7, 76, 100
12, 80880, Note_on_c, 7, 81, 100
12, 80910, Note_on_c, 7, 81, 0
12, 80910, Note_on_c, 7, 76, 0
12, 80910, Note_on_c, 7, 81, 0
12, 80940, Note_on_c, 7, 81, 100
12, 80940, Note_on_c, 7, 76, 100
12, 80940, Note_on_c, 7, 81, 100
12, 80970, Note_on_c, 7, 81, 0
12, 80970, Note_on_c, 7, 76, 0
12, 80970, Note_on_c, 7, 81, 0
12, 81000, Note_on_c, 7, 81, 100
12, 81000, Note_on_c, 7, 76, 100
12, 81000, Note_on_c, 7, 81, 100
12, 81030, Note_on_c, 7, 81, 0
12, 81030, Note_on_c, 7, 76, 0
12, 81030, Note_on_c, 7, 81, 0
12, 81030, Note_on_c, 7, 79, 100
12, 81030, Note_on_c, 7, 74, 100
12, 81030, Note_on_c, 7, 79, 100
12, 81060, Note_on_c, 7, 79, 0
12, 81060, Note_on_c, 7, 74, 0
12, 81060, Note_on_c, 7, 79, 0
12, 81120, Note_on_c, 7, 81, 100
12, 81120, Note_on_c, 7, 76, 100
12, 81120, Note_on_c, 7, 81, 100
12, 81124, Pitch_bend_c, 7, 4096
12, 81124, Pitch_bend_c, 7, 4096
12, 81126, Pitch_bend_c, 7, 4352
12, 81126, Pitch_bend_c, 7, 4352
12, 81130, Pitch_bend_c, 7, 4608
12, 81130, Pitch_bend_c, 7, 4608
12, 81134, Pitch_bend_c, 7, 4864
12, 81134, Pitch_bend_c, 7, 4864
12, 81136, Pitch_bend_c, 7, 5120
12, 81136, Pitch_bend_c, 7, 5120
12, 81142, Pitch_bend_c, 7, 5376
12, 81142, Pitch_bend_c, 7, 5376
12, 81146, Pitch_bend_c, 7, 5632
12, 81146, Pitch_bend_c, 7, 5632
12, 81150, Pitch_bend_c, 7, 5760
12, 81150, Pitch_bend_c, 7, 5760
12, 81154, Pitch_bend_c, 7, 6016
12, 81154, Pitch_bend_c, 7, 6016
12, 81156, Pitch_bend_c, 7, 6144
12, 81156, Pitch_bend_c, 7, 6144
12, 81158, Pitch_bend_c, 7, 6400
12, 81158, Pitch_bend_c, 7, 6400
12, 81162, Pitch_bend_c, 7, 6656
12, 81162, Pitch_bend_c, 7, 6656
12, 81168, Pitch_bend_c, 7, 6912
12, 81168, Pitch_bend_c, 7, 6912
12, 81174, Pitch_bend_c, 7, 7168
12, 81174, Pitch_bend_c, 7, 7168
12, 81176, Pitch_bend_c, 7, 7296
12, 81176, Pitch_bend_c, 7, 7296
12, 81178, Pitch_bend_c, 7, 7424
12, 81178, Pitch_bend_c, 7, 7424
12, 81180, Note_on_c, 7, 81, 0
12, 81180, Note_on_c, 7, 76, 0
12, 81180, Note_on_c, 7, 81, 0
12, 81180, Pitch_bend_c, 7, 7552
12, 81180, Pitch_bend_c, 7, 7552
12, 81184, Pitch_bend_c, 7, 7680
12, 81184, Pitch_bend_c, 7, 7680
12, 81186, Pitch_bend_c, 7, 7936
12, 81186, Pitch_bend_c, 7, 7936
12, 81188, Pitch_bend_c, 7, 8192
12, 81188, Pitch_bend_c, 7, 8192
12, 81210, Note_on_c, 7, 81, 100
12, 81210, Note_on_c, 7, 76, 100
12, 81210, Note_on_c, 7, 81, 100
12, 81240, Note_on_c, 7, 81, 0
12, 81240, Note_on_c, 7, 76, 0
12, 81240, Note_on_c, 7, 81, 0
12, 81270, Note_on_c, 7, 81, 100
12, 81270, Note_on_c, 7, 76, 100
12, 81270, Note_on_c, 7, 81, 100
12, 81300, Note_on_c, 7, 81, 0
12, 81300, Note_on_c, 7, 76, 0
12, 81300, Note_on_c, 7, 81, 0
12, 81300, Note_on_c, 7, 79, 100
12, 81300, Note_on_c, 7, 74, 100
12, 81300, Note_on_c, 7, 79, 100
12, 81330, Note_on_c, 7, 79, 0
12, 81330, Note_on_c, 7, 74, 0
12, 81330, Note_on_c, 7, 79, 0
12, 81360, Note_on_c, 7, 81, 100
12, 81360, Note_on_c, 7, 76, 100
12, 81360, Note_on_c, 7, 81, 100
12, 81390, Note_on_c, 7, 81, 0
12, 81390, Note_on_c, 7, 76, 0
12, 81390, Note_on_c, 7, 81, 0
12, 81600, Note_on_c, 7, 81, 100
12, 81600, Note_on_c, 7, 76, 100
12, 81600, Note_on_c, 7, 81, 100
12, 81604, Pitch_bend_c, 7, 4096
12, 81604, Pitch_bend_c, 7, 4096
12, 81606, Pitch_bend_c, 7, 4352
12, 81606, Pitch_bend_c, 7, 4352
12, 81610, Pitch_bend_c, 7, 4608
12, 81610, Pitch_bend_c, 7, 4608
12, 81614, Pitch_bend_c, 7, 4864
12, 81614, Pitch_bend_c, 7, 4864
12, 81616, Pitch_bend_c, 7, 5120
12, 81616, Pitch_bend_c, 7, 5120
12, 81622, Pitch_bend_c, 7, 5376
12, 81622, Pitch_bend_c, 7, 5376
12, 81626, Pitch_bend_c, 7, 5632
12, 81626, Pitch_bend_c, 7, 5632
12, 81630, Pitch_bend_c, 7, 5760
12, 81630, Pitch_bend_c, 7, 5760
12, 81634, Pitch_bend_c, 7, 6016
12, 81634, Pitch_bend_c, 7, 6016
12, 81636, Pitch_bend_c, 7, 6144
12, 81636, Pitch_bend_c, 7, 6144
12, 81638, Pitch_bend_c, 7, 6400
12, 81638, Pitch_bend_c, 7, 6400
12, 81642, Pitch_bend_c, 7, 6656
12, 81642, Pitch_bend_c, 7, 6656
12, 81648, Pitch_bend_c, 7, 6912
12, 81648, Pitch_bend_c, 7, 6912
12, 81654, Pitch_bend_c, 7, 7168
12, 81654, Pitch_bend_c, 7, 7168
12, 81656, Pitch_bend_c, 7, 7296
12, 81656, Pitch_bend_c, 7, 7296
12, 81658, Pitch_bend_c, 7, 7424
12, 81658, Pitch_bend_c, 7, 7424
12, 81660, Note_on_c, 7, 81, 0
12, 81660, Note_on_c, 7, 76, 0
12, 81660, Note_on_c, 7, 81, 0
12, 81660, Pitch_bend_c, 7, 7552
12, 81660, Pitch_bend_c, 7, 7552
12, 81664, Pitch_bend_c, 7, 7680
12, 81664, Pitch_bend_c, 7, 7680
12, 81666, Pitch_bend_c, 7, 7936
12, 81666, Pitch_bend_c, 7, 7936
12, 81668, Pitch_bend_c, 7, 8192
12, 81668, Pitch_bend_c, 7, 8192
12, 81690, Note_on_c, 7, 81, 100
12, 81690, Note_on_c, 7, 76, 100
12, 81690, Note_on_c, 7, 81, 100
12, 81720, Note_on_c, 7, 81, 0
12, 81720, Note_on_c, 7, 76, 0
12, 81720, Note_on_c, 7, 81, 0
12, 81750, Note_on_c, 7, 81, 100
12, 81750, Note_on_c, 7, 76, 100
12, 81750, Note_on_c, 7, 81, 100
12, 81780, Note_on_c, 7, 81, 0
12, 81780, Note_on_c, 7, 76, 0
12, 81780, Note_on_c, 7, 81, 0
12, 81780, Note_on_c, 7, 79, 100
12, 81780, Note_on_c, 7, 74, 100
12, 81780, Note_on_c, 7, 79, 100
12, 81810, Note_on_c, 7, 79, 0
12, 81810, Note_on_c, 7, 74, 0
12, 81810, Note_on_c, 7, 79, 0
12, 81840, Note_on_c, 7, 81, 100
12, 81840, Note_on_c, 7, 76, 100
12, 81840, Note_on_c, 7, 81, 100
12, 81870, Note_on_c, 7, 81, 0
12, 81870, Note_on_c, 7, 76, 0
12, 81870, Note_on_c, 7, 81, 0
12, 81900, Note_on_c, 7, 81, 100
12, 81900, Note_on_c, 7, 76, 100
12, 81900, Note_on_c, 7, 81, 100
12, 81930, Note_on_c, 7, 81, 0
12, 81930, Note_on_c, 7, 76, 0
12, 81930, Note_on_c, 7, 81, 0
12, 81960, Note_on_c, 7, 81, 100
12, 81960, Note_on_c, 7, 76, 100
12, 81960, Note_on_c, 7, 81, 100
12, 81990, Note_on_c, 7, 81, 0
12, 81990, Note_on_c, 7, 76, 0
12, 81990, Note_on_c, 7, 81, 0
12, 81990, Note_on_c, 7, 79, 100
12, 81990, Note_on_c, 7, 74, 100
12, 81990, Note_on_c, 7, 79, 100
12, 82020, Note_on_c, 7, 79, 0
12, 82020, Note_on_c, 7, 74, 0
12, 82020, Note_on_c, 7, 79, 0
12, 82080, Note_on_c, 7, 81, 100
12, 82080, Note_on_c, 7, 76, 100
12, 82080, Note_on_c, 7, 81, 100
12, 82084, Pitch_bend_c, 7, 4096
12, 82084, Pitch_bend_c, 7, 4096
12, 82086, Pitch_bend_c, 7, 4352
12, 82086, Pitch_bend_c, 7, 4352
12, 82090, Pitch_bend_c, 7, 4608
12, 82090, Pitch_bend_c, 7, 4608
12, 82094, Pitch_bend_c, 7, 4864
12, 82094, Pitch_bend_c, 7, 4864
12, 82096, Pitch_bend_c, 7, 5120
12, 82096, Pitch_bend_c, 7, 5120
12, 82102, Pitch_bend_c, 7, 5376
12, 82102, Pitch_bend_c, 7, 5376
12, 82106, Pitch_bend_c, 7, 5632
12, 82106, Pitch_bend_c, 7, 5632
12, 82110, Pitch_bend_c, 7, 5760
12, 82110, Pitch_bend_c, 7, 5760
12, 82114, Pitch_bend_c, 7, 6016
12, 82114, Pitch_bend_c, 7, 6016
12, 82116, Pitch_bend_c, 7, 6144
12, 82116, Pitch_bend_c, 7, 6144
12, 82118, Pitch_bend_c, 7, 6400
12, 82118, Pitch_bend_c, 7, 6400
12, 82122, Pitch_bend_c, 7, 6656
12, 82122, Pitch_bend_c, 7, 6656
12, 82128, Pitch_bend_c, 7, 6912
12, 82128, Pitch_bend_c, 7, 6912
12, 82134, Pitch_bend_c, 7, 7168
12, 82134, Pitch_bend_c, 7, 7168
12, 82136, Pitch_bend_c, 7, 7296
12, 82136, Pitch_bend_c, 7, 7296
12, 82138, Pitch_bend_c, 7, 7424
12, 82138, Pitch_bend_c, 7, 7424
12, 82140, Note_on_c, 7, 81, 0
12, 82140, Note_on_c, 7, 76, 0
12, 82140, Note_on_c, 7, 81, 0
12, 82140, Pitch_bend_c, 7, 7552
12, 82140, Pitch_bend_c, 7, 7552
12, 82144, Pitch_bend_c, 7, 7680
12, 82144, Pitch_bend_c, 7, 7680
12, 82146, Pitch_bend_c, 7, 7936
12, 82146, Pitch_bend_c, 7, 7936
12, 82148, Pitch_bend_c, 7, 8192
12, 82148, Pitch_bend_c, 7, 8192
12, 82170, Note_on_c, 7, 81, 100
12, 82170, Note_on_c, 7, 76, 100
12, 82170, Note_on_c, 7, 81, 100
12, 82200, Note_on_c, 7, 81, 0
12, 82200, Note_on_c, 7, 76, 0
12, 82200, Note_on_c, 7, 81, 0
12, 82230, Note_on_c, 7, 81, 100
12, 82230, Note_on_c, 7, 76, 100
12, 82230, Note_on_c, 7, 81, 100
12, 82260, Note_on_c, 7, 81, 0
12, 82260, Note_on_c, 7, 76, 0
12, 82260, Note_on_c, 7, 81, 0
12, 82260, Note_on_c, 7, 79, 100
12, 82260, Note_on_c, 7, 74, 100
12, 82260, Note_on_c, 7, 79, 100
12, 82290, Note_on_c, 7, 79, 0
12, 82290, Note_on_c, 7, 74, 0
12, 82290, Note_on_c, 7, 79, 0
12, 82320, Note_on_c, 7, 81, 100
12, 82320, Note_on_c, 7, 76, 100
12, 82320, Note_on_c, 7, 81, 100
12, 82350, Note_on_c, 7, 81, 0
12, 82350, Note_on_c, 7, 76, 0
12, 82350, Note_on_c, 7, 81, 0
12, 82560, Note_on_c, 7, 81, 100
12, 82560, Note_on_c, 7, 76, 100
12, 82560, Note_on_c, 7, 81, 100
12, 82564, Pitch_bend_c, 7, 4096
12, 82564, Pitch_bend_c, 7, 4096
12, 82565, Note_on_c, 7, 60, 89
12, 82565, Note_on_c, 7, 60, 89
12, 82566, Pitch_bend_c, 7, 4352
12, 82566, Pitch_bend_c, 7, 4352
12, 82570, Pitch_bend_c, 7, 4608
12, 82570, Pitch_bend_c, 7, 4608
12, 82572, Note_on_c, 7, 62, 93
12, 82572, Note_on_c, 7, 62, 93
12, 82574, Pitch_bend_c, 7, 4864
12, 82574, Pitch_bend_c, 7, 4864
12, 82576, Pitch_bend_c, 7, 5120
12, 82576, Pitch_bend_c, 7, 5120
12, 82577, Note_on_c, 7, 60, 0
12, 82577, Note_on_c, 7, 60, 0
12, 82580, Note_on_c, 7, 64, 95
12, 82580, Note_on_c, 7, 64, 95
12, 82582, Pitch_bend_c, 7, 5376
12, 82582, Pitch_bend_c, 7, 5376
12, 82585, Note_on_c, 7, 62, 0
12, 82585, Note_on_c, 7, 62, 0
12, 82586, Pitch_bend_c, 7, 5632
12, 82586, Pitch_bend_c, 7, 5632
12, 82587, Note_on_c, 7, 65, 96
12, 82587, Note_on_c, 7, 65, 96
12, 82590, Pitch_bend_c, 7, 5760
12, 82590, Pitch_bend_c, 7, 5760
12, 82592, Note_on_c, 7, 64, 0
12, 82592, Note_on_c, 7, 64, 0
12, 82594, Pitch_bend_c, 7, 6016
12, 82594, Pitch_bend_c, 7, 6016
12, 82596, Pitch_bend_c, 7, 6144
12, 82596, Pitch_bend_c, 7, 6144
12, 82597, Note_on_c, 7, 67, 100
12, 82597, Note_on_c, 7, 67, 100
12, 82598, Pitch_bend_c, 7, 6400
12, 82598, Pitch_bend_c, 7, 6400
12, 82600, Note_on_c, 7, 65, 0
12, 82600, Note_on_c, 7, 65, 0
12, 82602, Pitch_bend_c, 7, 6656
12, 82602, Pitch_bend_c, 7, 6656
12, 82605, Note_on_c, 7, 69, 98
12, 82605, Note_on_c, 7, 69, 98
12, 82608, Pitch_bend_c, 7, 6912
12, 82608, Pitch_bend_c, 7, 6912
12, 82610, Note_on_c, 7, 67, 0
12, 82610, Note_on_c, 7, 67, 0
12, 82614, Pitch_bend_c, 7, 7168
12, 82614, Pitch_bend_c, 7, 7168
12, 82615, Note_on_c, 7, 71, 96
12, 82615, Note_on_c, 7, 71, 96
12, 82616, Pitch_bend_c, 7, 7296
12, 82616, Pitch_bend_c, 7, 7296
12, 82617, Note_on_c, 7, 69, 0
12, 82617, Note_on_c, 7, 69, 0
12, 82618, Pitch_bend_c, 7, 7424
12, 82618, Pitch_bend_c, 7, 7424
12, 82620, Note_on_c, 7, 76, 0
12, 82620, Note_on_c, 7, 81, 0
12, 82620, Note_on_c, 7, 81, 0
12, 82620, Pitch_bend_c, 7, 7552
12, 82620, Pitch_bend_c, 7, 7552
12, 82624, Pitch_bend_c, 7, 7680
12, 82624, Pitch_bend_c, 7, 7680
12, 82625, Note_on_c, 7, 72, 97
12, 82625, Note_on_c, 7, 72, 97
12, 82626, Pitch_bend_c, 7, 7936
12, 82626, Pitch_bend_c, 7, 7936
12, 82628, Pitch_bend_c, 7, 8192
12, 82628, Pitch_bend_c, 7, 8192
12, 82630, Note_on_c, 7, 71, 0
12, 82630, Note_on_c, 7, 71, 0
12, 82635, Note_on_c, 7, 74, 96
12, 82635, Note_on_c, 7, 74, 96
12, 82640, Note_on_c, 7, 72, 0
12, 82640, Note_on_c, 7, 72, 0
12, 82645, Note_on_c, 7, 76, 96
12, 82645, Note_on_c, 7, 76, 96
12, 82647, Note_on_c, 7, 74, 0
12, 82647, Note_on_c, 7, 74, 0
12, 82650, Note_on_c, 7, 81, 100
12, 82650, Note_on_c, 7, 81, 100
12, 82657, Note_on_c, 7, 77, 96
12, 82657, Note_on_c, 7, 77, 96
12, 82660, Note_on_c, 7, 76, 0
12, 82660, Note_on_c, 7, 76, 0
12, 82662, Note_on_c, 7, 67, 88
12, 82662, Note_on_c, 7, 67, 88
12, 82665, Note_on_c, 7, 77, 0
12, 82665, Note_on_c, 7, 77, 0
12, 82670, Note_on_c, 7, 69, 80
12, 82670, Note_on_c, 7, 69, 80
12, 82675, Note_on_c, 7, 67, 0
12, 82675, Note_on_c, 7, 67, 0
12, 82680, Note_on_c, 7, 81, 0
12, 82680, Note_on_c, 7, 81, 0
12, 82682, Note_on_c, 7, 71, 47
12, 82682, Note_on_c, 7, 71, 47
12, 82690, Note_on_c, 7, 69, 0
12, 82690, Note_on_c, 7, 69, 0
12, 82692, Note_on_c, 7, 72, 81
12, 82692, Note_on_c, 7, 72, 81
12, 82695, Note_on_c, 7, 71, 0
12, 82695, Note_on_c, 7, 71, 0
12, 82702, Note_on_c, 7, 74, 87
12, 82702, Note_on_c, 7, 74, 87
12, 82705, Note_on_c, 7, 72, 0
12, 82705, Note_on_c, 7, 72, 0
12, 82710, Note_on_c, 7, 81, 100
12, 82710, Note_on_c, 7, 76, 88
12, 82710, Note_on_c, 7, 81, 100
12, 82710, Note_on_c, 7, 76, 88
12, 82715, Note_on_c, 7, 74, 0
12, 82715, Note_on_c, 7, 74, 0
12, 82720, Note_on_c, 7, 77, 89
12, 82720, Note_on_c, 7, 77, 89
12, 82722, Note_on_c, 7, 76, 0
12, 82722, Note_on_c, 7, 76, 0
12, 82730, Note_on_c, 7, 79, 87
12, 82730, Note_on_c, 7, 79, 87
12, 82735, Note_on_c, 7, 77, 0
12, 82735, Note_on_c, 7, 77, 0
12, 82740, Note_on_c, 7, 81, 0
12, 82740, Note_on_c, 7, 81, 0
12, 82740, Note_on_c, 7, 79, 100
12, 82740, Note_on_c, 7, 81, 86
12, 82740, Note_on_c, 7, 79, 100
12, 82740, Note_on_c, 7, 81, 86
12, 82742, Note_on_c, 7, 79, 0
12, 82742, Note_on_c, 7, 79, 0
12, 82750, Note_on_c, 7, 83, 87
12, 82750, Note_on_c, 7, 83, 87
12, 82752, Note_on_c, 7, 81, 0
12, 82752, Note_on_c, 7, 81, 0
12, 82760, Note_on_c, 7, 84, 93
12, 82760, Note_on_c, 7, 84, 93
12, 82762, Note_on_c, 7, 83, 0
12, 82762, Note_on_c, 7, 83, 0
12, 82770, Note_on_c, 7, 79, 0
12, 82770, Note_on_c, 7, 79, 0
12, 82770, Note_on_c, 7, 86, 96
12, 82770, Note_on_c, 7, 86, 96
12, 82775, Note_on_c, 7, 84, 0
12, 82775, Note_on_c, 7, 84, 0
12, 82780, Note_on_c, 7, 71, 81
12, 82780, Note_on_c, 7, 71, 81
12, 82782, Note_on_c, 7, 88, 77
12, 82782, Note_on_c, 7, 72, 95
12, 82782, Note_on_c, 7, 88, 77
12, 82782, Note_on_c, 7, 72, 95
12, 82787, Note_on_c, 7, 71, 0
12, 82787, Note_on_c, 7, 71, 0
12, 82787, Note_on_c, 7, 86, 0
12, 82787, Note_on_c, 7, 86, 0
12, 82792, Note_on_c, 7, 88, 0
12, 82792, Note_on_c, 7, 88, 0
12, 82792, Note_on_c, 7, 74, 66
12, 82792, Note_on_c, 7, 74, 66
12, 82797, Note_on_c, 7, 72, 0
12, 82797, Note_on_c, 7, 72, 0
12, 82800, Note_on_c, 7, 81, 100
12, 82800, Note_on_c, 7, 81, 100
12, 82802, Note_on_c, 7, 76, 76
12, 82802, Note_on_c, 7, 76, 76
12, 82810, Note_on_c, 7, 74, 0
12, 82810, Note_on_c, 7, 74, 0
12, 82812, Note_on_c, 7, 77, 88
12, 82812, Note_on_c, 7, 77, 88
12, 82817, Note_on_c, 7, 76, 0
12, 82817, Note_on_c, 7, 76, 0
12, 82820, Note_on_c, 7, 79, 92
12, 82820, Note_on_c, 7, 79, 92
12, 82825, Note_on_c, 7, 77, 0
12, 82825, Note_on_c, 7, 77, 0
12, 82830, Note_on_c, 7, 81, 0
12, 82830, Note_on_c, 7, 81, 0
12, 82830, Note_on_c, 7, 81, 92
12, 82830, Note_on_c, 7, 81, 92
12, 82832, Note_on_c, 7, 79, 0
12, 82832, Note_on_c, 7, 79, 0
12, 82837, Note_on_c, 7, 83, 96
12, 82837, Note_on_c, 7, 83, 96
12, 82840, Note_on_c, 7, 81, 0
12, 82840, Note_on_c, 7, 81, 0
12, 82845, Note_on_c, 7, 84, 96
12, 82845, Note_on_c, 7, 84, 96
12, 82847, Note_on_c, 7, 83, 0
12, 82847, Note_on_c, 7, 83, 0
12, 82852, Note_on_c, 7, 86, 100
12, 82852, Note_on_c, 7, 86, 100
12, 82857, Note_on_c, 7, 84, 0
12, 82857, Note_on_c, 7, 84, 0
12, 82860, Note_on_c, 7, 81, 100
12, 82860, Note_on_c, 7, 88, 101
12, 82860, Note_on_c, 7, 88, 101
12, 82865, Note_on_c, 7, 86, 0
12, 82865, Note_on_c, 7, 86, 0
12, 82870, Note_on_c, 7, 89, 100
12, 82870, Note_on_c, 7, 89, 100
12, 82872, Note_on_c, 7, 88, 0
12, 82872, Note_on_c, 7, 88, 0
12, 82877, Note_on_c, 7, 91, 101
12, 82877, Note_on_c, 7, 91, 101
12, 82880, Note_on_c, 7, 89, 0
12, 82880, Note_on_c, 7, 89, 0
12, 82885, Note_on_c, 7, 93, 103
12, 82885, Note_on_c, 7, 93, 103
12, 82890, Note_on_c, 7, 91, 0
12, 82890, Note_on_c, 7, 91, 0
12, 82890, Note_on_c, 7, 81, 0
12, 82895, Note_on_c, 7, 95, 100
12, 82895, Note_on_c, 7, 95, 100
12, 82897, Note_on_c, 7, 93, 0
12, 82897, Note_on_c, 7, 93, 0
12, 82905, Note_on_c, 7, 96, 101
12, 82905, Note_on_c, 7, 96, 101
12, 82907, Note_on_c, 7, 95, 0
12, 82907, Note_on_c, 7, 95, 0
12, 82912, Note_on_c, 7, 98, 105
12, 82912, Note_on_c, 7, 98, 105
12, 82915, Note_on_c, 7, 96, 0
12, 82915, Note_on_c, 7, 96, 0
12, 82920, Note_on_c, 7, 98, 0
12, 82920, Note_on_c, 7, 98, 0
12, 82920, Note_on_c, 7, 81, 100
12, 82925, Note_on_c, 7, 88, 81
12, 82925, Note_on_c, 7, 89, 103
12, 82925, Note_on_c, 7, 88, 81
12, 82925, Note_on_c, 7, 89, 103
12, 82930, Note_on_c, 7, 88, 0
12, 82930, Note_on_c, 7, 88, 0
12, 82935, Note_on_c, 7, 91, 94
12, 82935, Note_on_c, 7, 91, 94
12, 82937, Note_on_c, 7, 89, 0
12, 82937, Note_on_c, 7, 89, 0
12, 82940, Note_on_c, 7, 93, 93
12, 82940, Note_on_c, 7, 93, 93
12, 82945, Note_on_c, 7, 91, 0
12, 82945, Note_on_c, 7, 91, 0
12, 82947, Note_on_c, 7, 95, 98
12, 82947, Note_on_c, 7, 95, 98
12, 82950, Note_on_c, 7, 81, 0
12, 82950, Note_on_c, 7, 93, 0
12, 82950, Note_on_c, 7, 93, 0
12, 82950, Note_on_c, 7, 79, 100
12, 82957, Note_on_c, 7, 96, 103
12, 82957, Note_on_c, 7, 96, 103
12, 82960, Note_on_c, 7, 95, 0
12, 82960, Note_on_c, 7, 95, 0
12, 82962, Note_on_c, 7, 98, 106
12, 82962, Note_on_c, 7, 98, 106
12, 82967, Note_on_c, 7, 96, 0
12, 82967, Note_on_c, 7, 96, 0
12, 82972, Note_on_c, 7, 100, 105
12, 82972, Note_on_c, 7, 100, 105
12, 82975, Note_on_c, 7, 98, 0
12, 82975, Note_on_c, 7, 98, 0
12, 82980, Note_on_c, 7, 79, 0
12, 82980, Note_on_c, 7, 101, 103
12, 82980, Note_on_c, 7, 101, 103
12, 82982, Note_on_c, 7, 100, 0
12, 82982, Note_on_c, 7, 100, 0
12, 82990, Note_on_c, 7, 103, 102
12, 82990, Note_on_c, 7, 103, 102
12, 82995, Note_on_c, 7, 101, 0
12, 82995, Note_on_c, 7, 101, 0
12, 83000, Note_on_c, 7, 105, 105
12, 83000, Note_on_c, 7, 105, 105
12, 83002, Note_on_c, 7, 103, 0
12, 83002, Note_on_c, 7, 103, 0
12, 83010, Note_on_c, 7, 107, 103
12, 83010, Note_on_c, 7, 107, 103
12, 83015, Note_on_c, 7, 105, 0
12, 83015, Note_on_c, 7, 105, 0
12, 83022, Note_on_c, 7, 108, 100
12, 83022, Note_on_c, 7, 108, 100
12, 83027, Note_on_c, 7, 107, 0
12, 83027, Note_on_c, 7, 107, 0
12, 83037, Note_on_c, 7, 108, 0
12, 83037, Note_on_c, 7, 108, 0
12, 83037, End_track
13, 0, Start_track
13, 0, MIDI_port, 0
13, 0, Title_t, "Strings"
13, 0, Control_c, 8, 0, 0
13, 0, Program_c, 8, 51
13, 0, Control_c, 8, 7, 126
13, 0, Control_c, 8, 10, 64
13, 0, Control_c, 8, 121, 0
13, 0, Control_c, 8, 91, 40
13, 13920, Note_on_c, 8, 57, 80
13, 13920, Note_on_c, 8, 60, 80
13, 13920, Note_on_c, 8, 64, 80
13, 13936, Control_c, 8, 7, 125
13, 13943, Control_c, 8, 7, 124
13, 13946, Control_c, 8, 7, 123
13, 13956, Control_c, 8, 7, 121
13, 13960, Control_c, 8, 7, 120
13, 13963, Control_c, 8, 7, 119
13, 13970, Control_c, 8, 7, 117
13, 13976, Control_c, 8, 7, 116
13, 13980, Control_c, 8, 7, 115
13, 13986, Control_c, 8, 7, 113
13, 13993, Control_c, 8, 7, 112
13, 13996, Control_c, 8, 7, 111
13, 14003, Control_c, 8, 7, 109
13, 14016, Control_c, 8, 7, 107
13, 14026, Control_c, 8, 7, 105
13, 14050, Control_c, 8, 7, 103
13, 14066, Control_c, 8, 7, 101
13, 14080, Control_c, 8, 7, 100
13, 14083, Control_c, 8, 7, 99
13, 14100, Control_c, 8, 7, 97
13, 14113, Control_c, 8, 7, 96
13, 14116, Control_c, 8, 7, 95
13, 14133, Control_c, 8, 7, 93
13, 14163, Control_c, 8, 7, 91
13, 14173, Control_c, 8, 7, 90
13, 14183, Control_c, 8, 7, 89
13, 14213, Control_c, 8, 7, 87
13, 14226, Control_c, 8, 7, 86
13, 14240, Control_c, 8, 7, 85
13, 14250, Control_c, 8, 7, 84
13, 14266, Control_c, 8, 7, 83
13, 14286, Control_c, 8, 7, 82
13, 14300, Control_c, 8, 7, 81
13, 14396, Control_c, 8, 7, 80
13, 14400, Note_on_c, 8, 60, 0
13, 14400, Note_on_c, 8, 57, 0
13, 14400, Note_on_c, 8, 55, 80
13, 14400, Note_on_c, 8, 60, 80
13, 14400, Note_on_c, 8, 64, 80
13, 14406, Control_c, 8, 7, 127
13, 14410, Control_c, 8, 7, 125
13, 14415, Note_on_c, 8, 64, 0
13, 14416, Control_c, 8, 7, 124
13, 14420, Control_c, 8, 7, 123
13, 14426, Control_c, 8, 7, 121
13, 14433, Control_c, 8, 7, 120
13, 14440, Control_c, 8, 7, 119
13, 14443, Control_c, 8, 7, 117
13, 14453, Control_c, 8, 7, 116
13, 14456, Control_c, 8, 7, 115
13, 14466, Control_c, 8, 7, 113
13, 14470, Control_c, 8, 7, 111
13, 14480, Control_c, 8, 7, 110
13, 14483, Control_c, 8, 7, 109
13, 14490, Control_c, 8, 7, 107
13, 14493, Control_c, 8, 7, 105
13, 14506, Control_c, 8, 7, 103
13, 14510, Control_c, 8, 7, 101
13, 14520, Control_c, 8, 7, 99
13, 14523, Control_c, 8, 7, 98
13, 14533, Control_c, 8, 7, 97
13, 14543, Control_c, 8, 7, 93
13, 14550, Control_c, 8, 7, 92
13, 14556, Control_c, 8, 7, 91
13, 14566, Control_c, 8, 7, 89
13, 14573, Control_c, 8, 7, 88
13, 14576, Control_c, 8, 7, 87
13, 14590, Control_c, 8, 7, 85
13, 14616, Control_c, 8, 7, 83
13, 14636, Control_c, 8, 7, 81
13, 14663, Control_c, 8, 7, 80
13, 14670, Control_c, 8, 7, 79
13, 14716, Control_c, 8, 7, 77
13, 14880, Note_on_c, 8, 64, 0
13, 14880, Note_on_c, 8, 55, 0
13, 14880, Note_on_c, 8, 60, 0
13, 14880, Note_on_c, 8, 65, 80
13, 14880, Note_on_c, 8, 60, 80
13, 14880, Note_on_c, 8, 57, 80
13, 14883, Control_c, 8, 7, 127
13, 14900, Control_c, 8, 7, 126
13, 14903, Control_c, 8, 7, 125
13, 14906, Control_c, 8, 7, 124
13, 14910, Control_c, 8, 7, 123
13, 14916, Control_c, 8, 7, 121
13, 14926, Control_c, 8, 7, 120
13, 14933, Control_c, 8, 7, 119
13, 14936, Control_c, 8, 7, 118
13, 14943, Control_c, 8, 7, 115
13, 14956, Control_c, 8, 7, 113
13, 14973, Control_c, 8, 7, 111
13, 14983, Control_c, 8, 7, 109
13, 14993, Control_c, 8, 7, 108
13, 15000, Control_c, 8, 7, 107
13, 15003, Control_c, 8, 7, 106
13, 15006, Control_c, 8, 7, 105
13, 15013, Control_c, 8, 7, 103
13, 15023, Control_c, 8, 7, 101
13, 15030, Control_c, 8, 7, 100
13, 15033, Control_c, 8, 7, 99
13, 15043, Control_c, 8, 7, 98
13, 15050, Control_c, 8, 7, 97
13, 15053, Control_c, 8, 7, 96
13, 15056, Control_c, 8, 7, 95
13, 15066, Control_c, 8, 7, 93
13, 15073, Control_c, 8, 7, 92
13, 15076, Control_c, 8, 7, 91
13, 15086, Control_c, 8, 7, 89
13, 15096, Control_c, 8, 7, 88
13, 15103, Control_c, 8, 7, 87
13, 15116, Control_c, 8, 7, 85
13, 15360, Note_on_c, 8, 57, 0
13, 15360, Note_on_c, 8, 60, 0
13, 15360, Note_on_c, 8, 65, 0
13, 15360, Note_on_c, 8, 57, 80
13, 15360, Note_on_c, 8, 65, 80
13, 15360, Note_on_c, 8, 62, 80
13, 15363, Control_c, 8, 7, 127
13, 15376, Control_c, 8, 7, 126
13, 15383, Control_c, 8, 7, 124
13, 15390, Control_c, 8, 7, 122
13, 15396, Control_c, 8, 7, 120
13, 15406, Control_c, 8, 7, 118
13, 15413, Control_c, 8, 7, 116
13, 15423, Control_c, 8, 7, 114
13, 15430, Control_c, 8, 7, 112
13, 15436, Control_c, 8, 7, 110
13, 15443, Control_c, 8, 7, 108
13, 15450, Control_c, 8, 7, 106
13, 15456, Control_c, 8, 7, 104
13, 15463, Control_c, 8, 7, 102
13, 15470, Control_c, 8, 7, 101
13, 15473, Control_c, 8, 7, 100
13, 15476, Control_c, 8, 7, 98
13, 15483, Control_c, 8, 7, 97
13, 15486, Control_c, 8, 7, 96
13, 15493, Control_c, 8, 7, 94
13, 15503, Control_c, 8, 7, 93
13, 15510, Control_c, 8, 7, 90
13, 15523, Control_c, 8, 7, 88
13, 15530, Control_c, 8, 7, 87
13, 15533, Control_c, 8, 7, 86
13, 15543, Control_c, 8, 7, 85
13, 15550, Control_c, 8, 7, 84
13, 15560, Control_c, 8, 7, 83
13, 15566, Control_c, 8, 7, 82
13, 15586, Control_c, 8, 7, 81
13, 15590, Control_c, 8, 7, 80
13, 15600, Note_on_c, 8, 62, 0
13, 15600, Note_on_c, 8, 65, 0
13, 15600, Note_on_c, 8, 57, 0
13, 15600, Note_on_c, 8, 56, 80
13, 15600, Note_on_c, 8, 64, 80
13, 15600, Note_on_c, 8, 59, 80
13, 15603, Control_c, 8, 7, 125
13, 15620, Control_c, 8, 7, 124
13, 15623, Control_c, 8, 7, 123
13, 15626, Control_c, 8, 7, 122
13, 15630, Control_c, 8, 7, 120
13, 15636, Control_c, 8, 7, 118
13, 15640, Control_c, 8, 7, 117
13, 15646, Control_c, 8, 7, 114
13, 15650, Control_c, 8, 7, 112
13, 15656, Control_c, 8, 7, 109
13, 15663, Control_c, 8, 7, 106
13, 15666, Control_c, 8, 7, 105
13, 15670, Control_c, 8, 7, 104
13, 15676, Control_c, 8, 7, 102
13, 15680, Control_c, 8, 7, 100
13, 15683, Control_c, 8, 7, 98
13, 15686, Control_c, 8, 7, 97
13, 15690, Control_c, 8, 7, 96
13, 15693, Control_c, 8, 7, 94
13, 15696, Control_c, 8, 7, 92
13, 15706, Control_c, 8, 7, 90
13, 15710, Control_c, 8, 7, 89
13, 15713, Control_c, 8, 7, 88
13, 15716, Control_c, 8, 7, 87
13, 15720, Control_c, 8, 7, 86
13, 15723, Control_c, 8, 7, 84
13, 15726, Control_c, 8, 7, 82
13, 15730, Control_c, 8, 7, 81
13, 15733, Control_c, 8, 7, 80
13, 15770, Control_c, 8, 7, 79
13, 15776, Control_c, 8, 7, 78
13, 15840, Note_on_c, 8, 59, 0
13, 15840, Note_on_c, 8, 64, 0
13, 15840, Note_on_c, 8, 56, 0
13, 15840, Note_on_c, 8, 57, 80
13, 15840, Note_on_c, 8, 60, 80
13, 15840, Note_on_c, 8, 64, 80
13, 15843, Control_c, 8, 7, 126
13, 15856, Control_c, 8, 7, 125
13, 15863, Control_c, 8, 7, 124
13, 15866, Control_c, 8, 7, 123
13, 15876, Control_c, 8, 7, 121
13, 15880, Control_c, 8, 7, 120
13, 15883, Control_c, 8, 7, 119
13, 15890, Control_c, 8, 7, 117
13, 15896, Control_c, 8, 7, 116
13, 15900, Control_c, 8, 7, 115
13, 15906, Control_c, 8, 7, 113
13, 15913, Control_c, 8, 7, 112
13, 15916, Control_c, 8, 7, 111
13, 15923, Control_c, 8, 7, 109
13, 15936, Control_c, 8, 7, 107
13, 15946, Control_c, 8, 7, 105
13, 15970, Control_c, 8, 7, 103
13, 15986, Control_c, 8, 7, 101
13, 16000, Control_c, 8, 7, 100
13, 16003, Control_c, 8, 7, 99
13, 16020, Control_c, 8, 7, 97
13, 16033, Control_c, 8, 7, 96
13, 16036, Control_c, 8, 7, 95
13, 16053, Control_c, 8, 7, 93
13, 16083, Control_c, 8, 7, 91
13, 16093, Control_c, 8, 7, 90
13, 16103, Control_c, 8, 7, 89
13, 16133, Control_c, 8, 7, 87
13, 16146, Control_c, 8, 7, 86
13, 16160, Control_c, 8, 7, 85
13, 16170, Control_c, 8, 7, 84
13, 16186, Control_c, 8, 7, 83
13, 16206, Control_c, 8, 7, 82
13, 16220, Control_c, 8, 7, 81
13, 16316, Control_c, 8, 7, 80
13, 16320, Note_on_c, 8, 60, 0
13, 16320, Note_on_c, 8, 57, 0
13, 16320, Note_on_c, 8, 55, 80
13, 16320, Note_on_c, 8, 60, 80
13, 16320, Note_on_c, 8, 64, 80
13, 16326, Control_c, 8, 7, 127
13, 16330, Control_c, 8, 7, 125
13, 16335, Note_on_c, 8, 64, 0
13, 16336, Control_c, 8, 7, 124
13, 16340, Control_c, 8, 7, 123
13, 16346, Control_c, 8, 7, 121
13, 16353, Control_c, 8, 7, 120
13, 16360, Control_c, 8, 7, 119
13, 16363, Control_c, 8, 7, 117
13, 16373, Control_c, 8, 7, 116
13, 16376, Control_c, 8, 7, 115
13, 16386, Control_c, 8, 7, 113
13, 16390, Control_c, 8, 7, 111
13, 16400, Control_c, 8, 7, 110
13, 16403, Control_c, 8, 7, 109
13, 16410, Control_c, 8, 7, 107
13, 16413, Control_c, 8, 7, 105
13, 16426, Control_c, 8, 7, 103
13, 16430, Control_c, 8, 7, 101
13, 16440, Control_c, 8, 7, 99
13, 16443, Control_c, 8, 7, 98
13, 16453, Control_c, 8, 7, 97
13, 16463, Control_c, 8, 7, 93
13, 16470, Control_c, 8, 7, 92
13, 16476, Control_c, 8, 7, 91
13, 16486, Control_c, 8, 7, 89
13, 16493, Control_c, 8, 7, 88
13, 16496, Control_c, 8, 7, 87
13, 16510, Control_c, 8, 7, 85
13, 16536, Control_c, 8, 7, 83
13, 16556, Control_c, 8, 7, 81
13, 16583, Control_c, 8, 7, 80
13, 16590, Control_c, 8, 7, 79
13, 16636, Control_c, 8, 7, 77
13, 16800, Note_on_c, 8, 64, 0
13, 16800, Note_on_c, 8, 55, 0
13, 16800, Note_on_c, 8, 60, 0
13, 16800, Note_on_c, 8, 65, 80
13, 16800, Note_on_c, 8, 60, 80
13, 16800, Note_on_c, 8, 57, 80
13, 16803, Control_c, 8, 7, 127
13, 16820, Control_c, 8, 7, 126
13, 16823, Control_c, 8, 7, 125
13, 16826, Control_c, 8, 7, 124
13, 16830, Control_c, 8, 7, 123
13, 16836, Control_c, 8, 7, 121
13, 16846, Control_c, 8, 7, 120
13, 16853, Control_c, 8, 7, 119
13, 16856, Control_c, 8, 7, 118
13, 16863, Control_c, 8, 7, 115
13, 16876, Control_c, 8, 7, 113
13, 16893, Control_c, 8, 7, 111
13, 16903, Control_c, 8, 7, 109
13, 16913, Control_c, 8, 7, 108
13, 16920, Control_c, 8, 7, 107
13, 16923, Control_c, 8, 7, 106
13, 16926, Control_c, 8, 7, 105
13, 16933, Control_c, 8, 7, 103
13, 16943, Control_c, 8, 7, 101
13, 16950, Control_c, 8, 7, 100
13, 16953, Control_c, 8, 7, 99
13, 16963, Control_c, 8, 7, 98
13, 16970, Control_c, 8, 7, 97
13, 16973, Control_c, 8, 7, 96
13, 16976, Control_c, 8, 7, 95
13, 16986, Control_c, 8, 7, 93
13, 16993, Control_c, 8, 7, 92
13, 16996, Control_c, 8, 7, 91
13, 17006, Control_c, 8, 7, 89
13, 17016, Control_c, 8, 7, 88
13, 17023, Control_c, 8, 7, 87
13, 17036, Control_c, 8, 7, 85
13, 17280, Note_on_c, 8, 57, 0
13, 17280, Note_on_c, 8, 60, 0
13, 17280, Note_on_c, 8, 65, 0
13, 17280, Note_on_c, 8, 57, 80
13, 17280, Note_on_c, 8, 65, 80
13, 17280, Note_on_c, 8, 62, 80
13, 17283, Control_c, 8, 7, 127
13, 17296, Control_c, 8, 7, 126
13, 17303, Control_c, 8, 7, 124
13, 17310, Control_c, 8, 7, 122
13, 17316, Control_c, 8, 7, 120
13, 17326, Control_c, 8, 7, 118
13, 17333, Control_c, 8, 7, 116
13, 17343, Control_c, 8, 7, 114
13, 17350, Control_c, 8, 7, 112
13, 17356, Control_c, 8, 7, 110
13, 17363, Control_c, 8, 7, 108
13, 17370, Control_c, 8, 7, 106
13, 17376, Control_c, 8, 7, 104
13, 17383, Control_c, 8, 7, 102
13, 17390, Control_c, 8, 7, 101
13, 17393, Control_c, 8, 7, 100
13, 17396, Control_c, 8, 7, 98
13, 17403, Control_c, 8, 7, 97
13, 17406, Control_c, 8, 7, 96
13, 17413, Control_c, 8, 7, 94
13, 17423, Control_c, 8, 7, 93
13, 17430, Control_c, 8, 7, 90
13, 17443, Control_c, 8, 7, 88
13, 17450, Control_c, 8, 7, 87
13, 17453, Control_c, 8, 7, 86
13, 17463, Control_c, 8, 7, 85
13, 17470, Control_c, 8, 7, 84
13, 17480, Control_c, 8, 7, 83
13, 17486, Control_c, 8, 7, 82
13, 17506, Control_c, 8, 7, 81
13, 17510, Control_c, 8, 7, 80
13, 17520, Note_on_c, 8, 62, 0
13, 17520, Note_on_c, 8, 65, 0
13, 17520, Note_on_c, 8, 57, 0
13, 17520, Note_on_c, 8, 56, 80
13, 17520, Note_on_c, 8, 64, 80
13, 17520, Note_on_c, 8, 59, 80
13, 17523, Control_c, 8, 7, 125
13, 17540, Control_c, 8, 7, 124
13, 17543, Control_c, 8, 7, 123
13, 17546, Control_c, 8, 7, 122
13, 17550, Control_c, 8, 7, 120
13, 17556, Control_c, 8, 7, 118
13, 17560, Control_c, 8, 7, 117
13, 17566, Control_c, 8, 7, 114
13, 17570, Control_c, 8, 7, 112
13, 17576, Control_c, 8, 7, 109
13, 17583, Control_c, 8, 7, 106
13, 17586, Control_c, 8, 7, 105
13, 17590, Control_c, 8, 7, 104
13, 17596, Control_c, 8, 7, 102
13, 17600, Control_c, 8, 7, 100
13, 17603, Control_c, 8, 7, 98
13, 17606, Control_c, 8, 7, 97
13, 17610, Control_c, 8, 7, 96
13, 17613, Control_c, 8, 7, 94
13, 17616, Control_c, 8, 7, 92
13, 17626, Control_c, 8, 7, 90
13, 17630, Control_c, 8, 7, 89
13, 17633, Control_c, 8, 7, 88
13, 17636, Control_c, 8, 7, 87
13, 17640, Control_c, 8, 7, 86
13, 17643, Control_c, 8, 7, 84
13, 17646, Control_c, 8, 7, 82
13, 17650, Control_c, 8, 7, 81
13, 17653, Control_c, 8, 7, 80
13, 17690, Control_c, 8, 7, 79
13, 17696, Control_c, 8, 7, 78
13, 17760, Note_on_c, 8, 59, 0
13, 17760, Note_on_c, 8, 64, 0
13, 17760, Note_on_c, 8, 56, 0
13, 21600, Note_on_c, 8, 57, 80
13, 21600, Note_on_c, 8, 60, 80
13, 21600, Note_on_c, 8, 64, 80
13, 21603, Control_c, 8, 7, 126
13, 21616, Control_c, 8, 7, 125
13, 21623, Control_c, 8, 7, 124
13, 21626, Control_c, 8, 7, 123
13, 21636, Control_c, 8, 7, 121
13, 21640, Control_c, 8, 7, 120
13, 21643, Control_c, 8, 7, 119
13, 21650, Control_c, 8, 7, 117
13, 21656, Control_c, 8, 7, 116
13, 21660, Control_c, 8, 7, 115
13, 21666, Control_c, 8, 7, 113
13, 21673, Control_c, 8, 7, 112
13, 21676, Control_c, 8, 7, 111
13, 21683, Control_c, 8, 7, 109
13, 21696, Control_c, 8, 7, 107
13, 21706, Control_c, 8, 7, 105
13, 21730, Control_c, 8, 7, 103
13, 21746, Control_c, 8, 7, 101
13, 21760, Control_c, 8, 7, 100
13, 21763, Control_c, 8, 7, 99
13, 21780, Control_c, 8, 7, 97
13, 21793, Control_c, 8, 7, 96
13, 21796, Control_c, 8, 7, 95
13, 21813, Control_c, 8, 7, 93
13, 21843, Control_c, 8, 7, 91
13, 21853, Control_c, 8, 7, 90
13, 21863, Control_c, 8, 7, 89
13, 21893, Control_c, 8, 7, 87
13, 21906, Control_c, 8, 7, 86
13, 21920, Control_c, 8, 7, 85
13, 21930, Control_c, 8, 7, 84
13, 21946, Control_c, 8, 7, 83
13, 21966, Control_c, 8, 7, 82
13, 21980, Control_c, 8, 7, 81
13, 22076, Control_c, 8, 7, 80
13, 22080, Note_on_c, 8, 60, 0
13, 22080, Note_on_c, 8, 57, 0
13, 22080, Note_on_c, 8, 55, 80
13, 22080, Note_on_c, 8, 60, 80
13, 22080, Note_on_c, 8, 64, 80
13, 22086, Control_c, 8, 7, 127
13, 22090, Control_c, 8, 7, 125
13, 22095, Note_on_c, 8, 64, 0
13, 22096, Control_c, 8, 7, 124
13, 22100, Control_c, 8, 7, 123
13, 22106, Control_c, 8, 7, 121
13, 22113, Control_c, 8, 7, 120
13, 22120, Control_c, 8, 7, 119
13, 22123, Control_c, 8, 7, 117
13, 22133, Control_c, 8, 7, 116
13, 22136, Control_c, 8, 7, 115
13, 22146, Control_c, 8, 7, 113
13, 22150, Control_c, 8, 7, 111
13, 22160, Control_c, 8, 7, 110
13, 22163, Control_c, 8, 7, 109
13, 22170, Control_c, 8, 7, 107
13, 22173, Control_c, 8, 7, 105
13, 22186, Control_c, 8, 7, 103
13, 22190, Control_c, 8, 7, 101
13, 22200, Control_c, 8, 7, 99
13, 22203, Control_c, 8, 7, 98
13, 22213, Control_c, 8, 7, 97
13, 22223, Control_c, 8, 7, 93
13, 22230, Control_c, 8, 7, 92
13, 22236, Control_c, 8, 7, 91
13, 22246, Control_c, 8, 7, 89
13, 22253, Control_c, 8, 7, 88
13, 22256, Control_c, 8, 7, 87
13, 22270, Control_c, 8, 7, 85
13, 22296, Control_c, 8, 7, 83
13, 22316, Control_c, 8, 7, 81
13, 22343, Control_c, 8, 7, 80
13, 22350, Control_c, 8, 7, 79
13, 22396, Control_c, 8, 7, 77
13, 22560, Note_on_c, 8, 64, 0
13, 22560, Note_on_c, 8, 55, 0
13, 22560, Note_on_c, 8, 60, 0
13, 22560, Note_on_c, 8, 65, 80
13, 22560, Note_on_c, 8, 60, 80
13, 22560, Note_on_c, 8, 57, 80
13, 22563, Control_c, 8, 7, 127
13, 22580, Control_c, 8, 7, 126
13, 22583, Control_c, 8, 7, 125
13, 22586, Control_c, 8, 7, 124
13, 22590, Control_c, 8, 7, 123
13, 22596, Control_c, 8, 7, 121
13, 22606, Control_c, 8, 7, 120
13, 22613, Control_c, 8, 7, 119
13, 22616, Control_c, 8, 7, 118
13, 22623, Control_c, 8, 7, 115
13, 22636, Control_c, 8, 7, 113
13, 22653, Control_c, 8, 7, 111
13, 22663, Control_c, 8, 7, 109
13, 22673, Control_c, 8, 7, 108
13, 22680, Control_c, 8, 7, 107
13, 22683, Control_c, 8, 7, 106
13, 22686, Control_c, 8, 7, 105
13, 22693, Control_c, 8, 7, 103
13, 22703, Control_c, 8, 7, 101
13, 22710, Control_c, 8, 7, 100
13, 22713, Control_c, 8, 7, 99
13, 22723, Control_c, 8, 7, 98
13, 22730, Control_c, 8, 7, 97
13, 22733, Control_c, 8, 7, 96
13, 22736, Control_c, 8, 7, 95
13, 22746, Control_c, 8, 7, 93
13, 22753, Control_c, 8, 7, 92
13, 22756, Control_c, 8, 7, 91
13, 22766, Control_c, 8, 7, 89
13, 22776, Control_c, 8, 7, 88
13, 22783, Control_c, 8, 7, 87
13, 22796, Control_c, 8, 7, 85
13, 23040, Note_on_c, 8, 57, 0
13, 23040, Note_on_c, 8, 60, 0
13, 23040, Note_on_c, 8, 65, 0
13, 23040, Note_on_c, 8, 57, 80
13, 23040, Note_on_c, 8, 65, 80
13, 23040, Note_on_c, 8, 62, 80
13, 23043, Control_c, 8, 7, 127
13, 23056, Control_c, 8, 7, 126
13, 23063, Control_c, 8, 7, 124
13, 23070, Control_c, 8, 7, 122
13, 23076, Control_c, 8, 7, 120
13, 23086, Control_c, 8, 7, 118
13, 23093, Control_c, 8, 7, 116
13, 23103, Control_c, 8, 7, 114
13, 23110, Control_c, 8, 7, 112
13, 23116, Control_c, 8, 7, 110
13, 23123, Control_c, 8, 7, 108
13, 23130, Control_c, 8, 7, 106
13, 23136, Control_c, 8, 7, 104
13, 23143, Control_c, 8, 7, 102
13, 23150, Control_c, 8, 7, 101
13, 23153, Control_c, 8, 7, 100
13, 23156, Control_c, 8, 7, 98
13, 23163, Control_c, 8, 7, 97
13, 23166, Control_c, 8, 7, 96
13, 23173, Control_c, 8, 7, 94
13, 23183, Control_c, 8, 7, 93
13, 23190, Control_c, 8, 7, 90
13, 23203, Control_c, 8, 7, 88
13, 23210, Control_c, 8, 7, 87
13, 23213, Control_c, 8, 7, 86
13, 23223, Control_c, 8, 7, 85
13, 23230, Control_c, 8, 7, 84
13, 23240, Control_c, 8, 7, 83
13, 23246, Control_c, 8, 7, 82
13, 23266, Control_c, 8, 7, 81
13, 23270, Control_c, 8, 7, 80
13, 23280, Note_on_c, 8, 62, 0
13, 23280, Note_on_c, 8, 65, 0
13, 23280, Note_on_c, 8, 57, 0
13, 23280, Note_on_c, 8, 56, 80
13, 23280, Note_on_c, 8, 64, 80
13, 23280, Note_on_c, 8, 59, 80
13, 23283, Control_c, 8, 7, 125
13, 23300, Control_c, 8, 7, 124
13, 23303, Control_c, 8, 7, 123
13, 23306, Control_c, 8, 7, 122
13, 23310, Control_c, 8, 7, 120
13, 23316, Control_c, 8, 7, 118
13, 23320, Control_c, 8, 7, 117
13, 23326, Control_c, 8, 7, 114
13, 23330, Control_c, 8, 7, 112
13, 23336, Control_c, 8, 7, 109
13, 23343, Control_c, 8, 7, 106
13, 23346, Control_c, 8, 7, 105
13, 23350, Control_c, 8, 7, 104
13, 23356, Control_c, 8, 7, 102
13, 23360, Control_c, 8, 7, 100
13, 23363, Control_c, 8, 7, 98
13, 23366, Control_c, 8, 7, 97
13, 23370, Control_c, 8, 7, 96
13, 23373, Control_c, 8, 7, 94
13, 23376, Control_c, 8, 7, 92
13, 23386, Control_c, 8, 7, 90
13, 23390, Control_c, 8, 7, 89
13, 23393, Control_c, 8, 7, 88
13, 23396, Control_c, 8, 7, 87
13, 23400, Control_c, 8, 7, 86
13, 23403, Control_c, 8, 7, 84
13, 23406, Control_c, 8, 7, 82
13, 23410, Control_c, 8, 7, 81
13, 23413, Control_c, 8, 7, 80
13, 23450, Control_c, 8, 7, 79
13, 23456, Control_c, 8, 7, 78
13, 23520, Note_on_c, 8, 59, 0
13, 23520, Note_on_c, 8, 64, 0
13, 23520, Note_on_c, 8, 56, 0
13, 23520, Note_on_c, 8, 57, 80
13, 23520, Note_on_c, 8, 60, 80
13, 23520, Note_on_c, 8, 64, 80
13, 23523, Control_c, 8, 7, 126
13, 23536, Control_c, 8, 7, 125
13, 23543, Control_c, 8, 7, 124
13, 23546, Control_c, 8, 7, 123
13, 23556, Control_c, 8, 7, 121
13, 23560, Control_c, 8, 7, 120
13, 23563, Control_c, 8, 7, 119
13, 23570, Control_c, 8, 7, 117
13, 23576, Control_c, 8, 7, 116
13, 23580, Control_c, 8, 7, 115
13, 23586, Control_c, 8, 7, 113
13, 23593, Control_c, 8, 7, 112
13, 23596, Control_c, 8, 7, 111
13, 23603, Control_c, 8, 7, 109
13, 23616, Control_c, 8, 7, 107
13, 23626, Control_c, 8, 7, 105
13, 23650, Control_c, 8, 7, 103
13, 23666, Control_c, 8, 7, 101
13, 23680, Control_c, 8, 7, 100
13, 23683, Control_c, 8, 7, 99
13, 23700, Control_c, 8, 7, 97
13, 23713, Control_c, 8, 7, 96
13, 23716, Control_c, 8, 7, 95
13, 23733, Control_c, 8, 7, 93
13, 23763, Control_c, 8, 7, 91
13, 23773, Control_c, 8, 7, 90
13, 23783, Control_c, 8, 7, 89
13, 23813, Control_c, 8, 7, 87
13, 23826, Control_c, 8, 7, 86
13, 23840, Control_c, 8, 7, 85
13, 23850, Control_c, 8, 7, 84
13, 23866, Control_c, 8, 7, 83
13, 23886, Control_c, 8, 7, 82
13, 23900, Control_c, 8, 7, 81
13, 23996, Control_c, 8, 7, 80
13, 24000, Note_on_c, 8, 60, 0
13, 24000, Note_on_c, 8, 57, 0
13, 24000, Note_on_c, 8, 55, 80
13, 24000, Note_on_c, 8, 60, 80
13, 24000, Note_on_c, 8, 64, 80
13, 24006, Control_c, 8, 7, 127
13, 24010, Control_c, 8, 7, 125
13, 24015, Note_on_c, 8, 64, 0
13, 24016, Control_c, 8, 7, 124
13, 24020, Control_c, 8, 7, 123
13, 24026, Control_c, 8, 7, 121
13, 24033, Control_c, 8, 7, 120
13, 24040, Control_c, 8, 7, 119
13, 24043, Control_c, 8, 7, 117
13, 24053, Control_c, 8, 7, 116
13, 24056, Control_c, 8, 7, 115
13, 24066, Control_c, 8, 7, 113
13, 24070, Control_c, 8, 7, 111
13, 24080, Control_c, 8, 7, 110
13, 24083, Control_c, 8, 7, 109
13, 24090, Control_c, 8, 7, 107
13, 24093, Control_c, 8, 7, 105
13, 24106, Control_c, 8, 7, 103
13, 24110, Control_c, 8, 7, 101
13, 24120, Control_c, 8, 7, 99
13, 24123, Control_c, 8, 7, 98
13, 24133, Control_c, 8, 7, 97
13, 24143, Control_c, 8, 7, 93
13, 24150, Control_c, 8, 7, 92
13, 24156, Control_c, 8, 7, 91
13, 24166, Control_c, 8, 7, 89
13, 24173, Control_c, 8, 7, 88
13, 24176, Control_c, 8, 7, 87
13, 24190, Control_c, 8, 7, 85
13, 24216, Control_c, 8, 7, 83
13, 24236, Control_c, 8, 7, 81
13, 24263, Control_c, 8, 7, 80
13, 24270, Control_c, 8, 7, 79
13, 24316, Control_c, 8, 7, 77
13, 24480, Note_on_c, 8, 64, 0
13, 24480, Note_on_c, 8, 55, 0
13, 24480, Note_on_c, 8, 60, 0
13, 24480, Note_on_c, 8, 65, 80
13, 24480, Note_on_c, 8, 60, 80
13, 24480, Note_on_c, 8, 57, 80
13, 24483, Control_c, 8, 7, 127
13, 24500, Control_c, 8, 7, 126
13, 24503, Control_c, 8, 7, 125
13, 24506, Control_c, 8, 7, 124
13, 24510, Control_c, 8, 7, 123
13, 24516, Control_c, 8, 7, 121
13, 24526, Control_c, 8, 7, 120
13, 24533, Control_c, 8, 7, 119
13, 24536, Control_c, 8, 7, 118
13, 24543, Control_c, 8, 7, 115
13, 24556, Control_c, 8, 7, 113
13, 24573, Control_c, 8, 7, 111
13, 24583, Control_c, 8, 7, 109
13, 24593, Control_c, 8, 7, 108
13, 24600, Control_c, 8, 7, 107
13, 24603, Control_c, 8, 7, 106
13, 24606, Control_c, 8, 7, 105
13, 24613, Control_c, 8, 7, 103
13, 24623, Control_c, 8, 7, 101
13, 24630, Control_c, 8, 7, 100
13, 24633, Control_c, 8, 7, 99
13, 24643, Control_c, 8, 7, 98
13, 24650, Control_c, 8, 7, 97
13, 24653, Control_c, 8, 7, 96
13, 24656, Control_c, 8, 7, 95
13, 24666, Control_c, 8, 7, 93
13, 24673, Control_c, 8, 7, 92
13, 24676, Control_c, 8, 7, 91
13, 24686, Control_c, 8, 7, 89
13, 24696, Control_c, 8, 7, 88
13, 24703, Control_c, 8, 7, 87
13, 24716, Control_c, 8, 7, 85
13, 24960, Note_on_c, 8, 57, 0
13, 24960, Note_on_c, 8, 60, 0
13, 24960, Note_on_c, 8, 65, 0
13, 24960, Note_on_c, 8, 57, 80
13, 24960, Note_on_c, 8, 65, 80
13, 24960, Note_on_c, 8, 62, 80
13, 24963, Control_c, 8, 7, 127
13, 24976, Control_c, 8, 7, 126
13, 24983, Control_c, 8, 7, 124
13, 24990, Control_c, 8, 7, 122
13, 24996, Control_c, 8, 7, 120
13, 25006, Control_c, 8, 7, 118
13, 25013, Control_c, 8, 7, 116
13, 25023, Control_c, 8, 7, 114
13, 25030, Control_c, 8, 7, 112
13, 25036, Control_c, 8, 7, 110
13, 25043, Control_c, 8, 7, 108
13, 25050, Control_c, 8, 7, 106
13, 25056, Control_c, 8, 7, 104
13, 25063, Control_c, 8, 7, 102
13, 25070, Control_c, 8, 7, 101
13, 25073, Control_c, 8, 7, 100
13, 25076, Control_c, 8, 7, 98
13, 25083, Control_c, 8, 7, 97
13, 25086, Control_c, 8, 7, 96
13, 25093, Control_c, 8, 7, 94
13, 25103, Control_c, 8, 7, 93
13, 25110, Control_c, 8, 7, 90
13, 25123, Control_c, 8, 7, 88
13, 25130, Control_c, 8, 7, 87
13, 25133, Control_c, 8, 7, 86
13, 25143, Control_c, 8, 7, 85
13, 25150, Control_c, 8, 7, 84
13, 25160, Control_c, 8, 7, 83
13, 25166, Control_c, 8, 7, 82
13, 25186, Control_c, 8, 7, 81
13, 25190, Control_c, 8, 7, 80
13, 25200, Note_on_c, 8, 62, 0
13, 25200, Note_on_c, 8, 65, 0
13, 25200, Note_on_c, 8, 57, 0
13, 25200, Note_on_c, 8, 56, 80
13, 25200, Note_on_c, 8, 64, 80
13, 25200, Note_on_c, 8, 59, 80
13, 25203, Control_c, 8, 7, 125
13, 25220, Control_c, 8, 7, 124
13, 25223, Control_c, 8, 7, 123
13, 25226, Control_c, 8, 7, 122
13, 25230, Control_c, 8, 7, 120
13, 25236, Control_c, 8, 7, 118
13, 25240, Control_c, 8, 7, 117
13, 25246, Control_c, 8, 7, 114
13, 25250, Control_c, 8, 7, 112
13, 25256, Control_c, 8, 7, 109
13, 25263, Control_c, 8, 7, 106
13, 25266, Control_c, 8, 7, 105
13, 25270, Control_c, 8, 7, 104
13, 25276, Control_c, 8, 7, 102
13, 25280, Control_c, 8, 7, 100
13, 25283, Control_c, 8, 7, 98
13, 25286, Control_c, 8, 7, 97
13, 25290, Control_c, 8, 7, 96
13, 25293, Control_c, 8, 7, 94
13, 25296, Control_c, 8, 7, 92
13, 25306, Control_c, 8, 7, 90
13, 25310, Control_c, 8, 7, 89
13, 25313, Control_c, 8, 7, 88
13, 25316, Control_c, 8, 7, 87
13, 25320, Control_c, 8, 7, 86
13, 25323, Control_c, 8, 7, 84
13, 25326, Control_c, 8, 7, 82
13, 25330, Control_c, 8, 7, 81
13, 25333, Control_c, 8, 7, 80
13, 25370, Control_c, 8, 7, 79
13, 25376, Control_c, 8, 7, 78
13, 25440, Note_on_c, 8, 59, 0
13, 25440, Note_on_c, 8, 64, 0
13, 25440, Note_on_c, 8, 56, 0
13, 55680, Note_on_c, 8, 57, 80
13, 55680, Note_on_c, 8, 60, 80
13, 55680, Note_on_c, 8, 64, 80
13, 55683, Control_c, 8, 7, 126
13, 55696, Control_c, 8, 7, 125
13, 55703, Control_c, 8, 7, 124
13, 55706, Control_c, 8, 7, 123
13, 55716, Control_c, 8, 7, 121
13, 55720, Control_c, 8, 7, 120
13, 55723, Control_c, 8, 7, 119
13, 55730, Control_c, 8, 7, 117
13, 55736, Control_c, 8, 7, 116
13, 55740, Control_c, 8, 7, 115
13, 55746, Control_c, 8, 7, 113
13, 55753, Control_c, 8, 7, 112
13, 55756, Control_c, 8, 7, 111
13, 55763, Control_c, 8, 7, 109
13, 55776, Control_c, 8, 7, 107
13, 55786, Control_c, 8, 7, 105
13, 55810, Control_c, 8, 7, 103
13, 55826, Control_c, 8, 7, 101
13, 55840, Control_c, 8, 7, 100
13, 55843, Control_c, 8, 7, 99
13, 55860, Control_c, 8, 7, 97
13, 55873, Control_c, 8, 7, 96
13, 55876, Control_c, 8, 7, 95
13, 55893, Control_c, 8, 7, 93
13, 55923, Control_c, 8, 7, 91
13, 55933, Control_c, 8, 7, 90
13, 55943, Control_c, 8, 7, 89
13, 55973, Control_c, 8, 7, 87
13, 55986, Control_c, 8, 7, 86
13, 56000, Control_c, 8, 7, 85
13, 56010, Control_c, 8, 7, 84
13, 56026, Control_c, 8, 7, 83
13, 56046, Control_c, 8, 7, 82
13, 56060, Control_c, 8, 7, 81
13, 56156, Control_c, 8, 7, 80
13, 56160, Note_on_c, 8, 60, 0
13, 56160, Note_on_c, 8, 57, 0
13, 56160, Note_on_c, 8, 55, 80
13, 56160, Note_on_c, 8, 60, 80
13, 56160, Note_on_c, 8, 64, 80
13, 56166, Control_c, 8, 7, 127
13, 56170, Control_c, 8, 7, 125
13, 56175, Note_on_c, 8, 64, 0
13, 56176, Control_c, 8, 7, 124
13, 56180, Control_c, 8, 7, 123
13, 56186, Control_c, 8, 7, 121
13, 56193, Control_c, 8, 7, 120
13, 56200, Control_c, 8, 7, 119
13, 56203, Control_c, 8, 7, 117
13, 56213, Control_c, 8, 7, 116
13, 56216, Control_c, 8, 7, 115
13, 56226, Control_c, 8, 7, 113
13, 56230, Control_c, 8, 7, 111
13, 56240, Control_c, 8, 7, 110
13, 56243, Control_c, 8, 7, 109
13, 56250, Control_c, 8, 7, 107
13, 56253, Control_c, 8, 7, 105
13, 56266, Control_c, 8, 7, 103
13, 56270, Control_c, 8, 7, 101
13, 56280, Control_c, 8, 7, 99
13, 56283, Control_c, 8, 7, 98
13, 56293, Control_c, 8, 7, 97
13, 56303, Control_c, 8, 7, 93
13, 56310, Control_c, 8, 7, 92
13, 56316, Control_c, 8, 7, 91
13, 56326, Control_c, 8, 7, 89
13, 56333, Control_c, 8, 7, 88
13, 56336, Control_c, 8, 7, 87
13, 56350, Control_c, 8, 7, 85
13, 56376, Control_c, 8, 7, 83
13, 56396, Control_c, 8, 7, 81
13, 56423, Control_c, 8, 7, 80
13, 56430, Control_c, 8, 7, 79
13, 56476, Control_c, 8, 7, 77
13, 56640, Note_on_c, 8, 64, 0
13, 56640, Note_on_c, 8, 55, 0
13, 56640, Note_on_c, 8, 60, 0
13, 56640, Note_on_c, 8, 65, 80
13, 56640, Note_on_c, 8, 60, 80
13, 56640, Note_on_c, 8, 57, 80
13, 56643, Control_c, 8, 7, 127
13, 56660, Control_c, 8, 7, 126
13, 56663, Control_c, 8, 7, 125
13, 56666, Control_c, 8, 7, 124
13, 56670, Control_c, 8, 7, 123
13, 56676, Control_c, 8, 7, 121
13, 56686, Control_c, 8, 7, 120
13, 56693, Control_c, 8, 7, 119
13, 56696, Control_c, 8, 7, 118
13, 56703, Control_c, 8, 7, 115
13, 56716, Control_c, 8, 7, 113
13, 56733, Control_c, 8, 7, 111
13, 56743, Control_c, 8, 7, 109
13, 56753, Control_c, 8, 7, 108
13, 56760, Control_c, 8, 7, 107
13, 56763, Control_c, 8, 7, 106
13, 56766, Control_c, 8, 7, 105
13, 56773, Control_c, 8, 7, 103
13, 56783, Control_c, 8, 7, 101
13, 56790, Control_c, 8, 7, 100
13, 56793, Control_c, 8, 7, 99
13, 56803, Control_c, 8, 7, 98
13, 56810, Control_c, 8, 7, 97
13, 56813, Control_c, 8, 7, 96
13, 56816, Control_c, 8, 7, 95
13, 56826, Control_c, 8, 7, 93
13, 56833, Control_c, 8, 7, 92
13, 56836, Control_c, 8, 7, 91
13, 56846, Control_c, 8, 7, 89
13, 56856, Control_c, 8, 7, 88
13, 56863, Control_c, 8, 7, 87
13, 56876, Control_c, 8, 7, 85
13, 57120, Note_on_c, 8, 57, 0
13, 57120, Note_on_c, 8, 60, 0
13, 57120, Note_on_c, 8, 65, 0
13, 57120, Note_on_c, 8, 57, 80
13, 57120, Note_on_c, 8, 65, 80
13, 57120, Note_on_c, 8, 62, 80
13, 57123, Control_c, 8, 7, 127
13, 57136, Control_c, 8, 7, 126
13, 57143, Control_c, 8, 7, 124
13, 57150, Control_c, 8, 7, 122
13, 57156, Control_c, 8, 7, 120
13, 57166, Control_c, 8, 7, 118
13, 57173, Control_c, 8, 7, 116
13, 57183, Control_c, 8, 7, 114
13, 57190, Control_c, 8, 7, 112
13, 57196, Control_c, 8, 7, 110
13, 57203, Control_c, 8, 7, 108
13, 57210, Control_c, 8, 7, 106
13, 57216, Control_c, 8, 7, 104
13, 57223, Control_c, 8, 7, 102
13, 57230, Control_c, 8, 7, 101
13, 57233, Control_c, 8, 7, 100
13, 57236, Control_c, 8, 7, 98
13, 57243, Control_c, 8, 7, 97
13, 57246, Control_c, 8, 7, 96
13, 57253, Control_c, 8, 7, 94
13, 57263, Control_c, 8, 7, 93
13, 57270, Control_c, 8, 7, 90
13, 57283, Control_c, 8, 7, 88
13, 57290, Control_c, 8, 7, 87
13, 57293, Control_c, 8, 7, 86
13, 57303, Control_c, 8, 7, 85
13, 57310, Control_c, 8, 7, 84
13, 57320, Control_c, 8, 7, 83
13, 57326, Control_c, 8, 7, 82
13, 57346, Control_c, 8, 7, 81
13, 57350, Control_c, 8, 7, 80
13, 57360, Note_on_c, 8, 62, 0
13, 57360, Note_on_c, 8, 65, 0
13, 57360, Note_on_c, 8, 57, 0
13, 57360, Note_on_c, 8, 56, 80
13, 57360, Note_on_c, 8, 64, 80
13, 57360, Note_on_c, 8, 59, 80
13, 57363, Control_c, 8, 7, 125
13, 57380, Control_c, 8, 7, 124
13, 57383, Control_c, 8, 7, 123
13, 57386, Control_c, 8, 7, 122
13, 57390, Control_c, 8, 7, 120
13, 57396, Control_c, 8, 7, 118
13, 57400, Control_c, 8, 7, 117
13, 57406, Control_c, 8, 7, 114
13, 57410, Control_c, 8, 7, 112
13, 57416, Control_c, 8, 7, 109
13, 57423, Control_c, 8, 7, 106
13, 57426, Control_c, 8, 7, 105
13, 57430, Control_c, 8, 7, 104
13, 57436, Control_c, 8, 7, 102
13, 57440, Control_c, 8, 7, 100
13, 57443, Control_c, 8, 7, 98
13, 57446, Control_c, 8, 7, 97
13, 57450, Control_c, 8, 7, 96
13, 57453, Control_c, 8, 7, 94
13, 57456, Control_c, 8, 7, 92
13, 57466, Control_c, 8, 7, 90
13, 57470, Control_c, 8, 7, 89
13, 57473, Control_c, 8, 7, 88
13, 57476, Control_c, 8, 7, 87
13, 57480, Control_c, 8, 7, 86
13, 57483, Control_c, 8, 7, 84
13, 57486, Control_c, 8, 7, 82
13, 57490, Control_c, 8, 7, 81
13, 57493, Control_c, 8, 7, 80
13, 57530, Control_c, 8, 7, 79
13, 57536, Control_c, 8, 7, 78
13, 57600, Note_on_c, 8, 59, 0
13, 57600, Note_on_c, 8, 64, 0
13, 57600, Note_on_c, 8, 56, 0
13, 57600, Note_on_c, 8, 57, 80
13, 57600, Note_on_c, 8, 60, 80
13, 57600, Note_on_c, 8, 64, 80
13, 57603, Control_c, 8, 7, 126
13, 57616, Control_c, 8, 7, 125
13, 57623, Control_c, 8, 7, 124
13, 57626, Control_c, 8, 7, 123
13, 57636, Control_c, 8, 7, 121
13, 57640, Control_c, 8, 7, 120
13, 57643, Control_c, 8, 7, 119
13, 57650, Control_c, 8, 7, 117
13, 57656, Control_c, 8, 7, 116
13, 57660, Control_c, 8, 7, 115
13, 57666, Control_c, 8, 7, 113
13, 57673, Control_c, 8, 7, 112
13, 57676, Control_c, 8, 7, 111
13, 57683, Control_c, 8, 7, 109
13, 57696, Control_c, 8, 7, 107
13, 57706, Control_c, 8, 7, 105
13, 57730, Control_c, 8, 7, 103
13, 57746, Control_c, 8, 7, 101
13, 57760, Control_c, 8, 7, 100
13, 57763, Control_c, 8, 7, 99
13, 57780, Control_c, 8, 7, 97
13, 57793, Control_c, 8, 7, 96
13, 57796, Control_c, 8, 7, 95
13, 57813, Control_c, 8, 7, 93
13, 57843, Control_c, 8, 7, 91
13, 57853, Control_c, 8, 7, 90
13, 57863, Control_c, 8, 7, 89
13, 57893, Control_c, 8, 7, 87
13, 57906, Control_c, 8, 7, 86
13, 57920, Control_c, 8, 7, 85
13, 57930, Control_c, 8, 7, 84
13, 57946, Control_c, 8, 7, 83
13, 57966, Control_c, 8, 7, 82
13, 57980, Control_c, 8, 7, 81
13, 58076, Control_c, 8, 7, 80
13, 58080, Note_on_c, 8, 60, 0
13, 58080, Note_on_c, 8, 57, 0
13, 58080, Note_on_c, 8, 55, 80
13, 58080, Note_on_c, 8, 60, 80
13, 58080, Note_on_c, 8, 64, 80
13, 58086, Control_c, 8, 7, 127
13, 58090, Control_c, 8, 7, 125
13, 58095, Note_on_c, 8, 64, 0
13, 58096, Control_c, 8, 7, 124
13, 58100, Control_c, 8, 7, 123
13, 58106, Control_c, 8, 7, 121
13, 58113, Control_c, 8, 7, 120
13, 58120, Control_c, 8, 7, 119
13, 58123, Control_c, 8, 7, 117
13, 58133, Control_c, 8, 7, 116
13, 58136, Control_c, 8, 7, 115
13, 58146, Control_c, 8, 7, 113
13, 58150, Control_c, 8, 7, 111
13, 58160, Control_c, 8, 7, 110
13, 58163, Control_c, 8, 7, 109
13, 58170, Control_c, 8, 7, 107
13, 58173, Control_c, 8, 7, 105
13, 58186, Control_c, 8, 7, 103
13, 58190, Control_c, 8, 7, 101
13, 58200, Control_c, 8, 7, 99
13, 58203, Control_c, 8, 7, 98
13, 58213, Control_c, 8, 7, 97
13, 58223, Control_c, 8, 7, 93
13, 58230, Control_c, 8, 7, 92
13, 58236, Control_c, 8, 7, 91
13, 58246, Control_c, 8, 7, 89
13, 58253, Control_c, 8, 7, 88
13, 58256, Control_c, 8, 7, 87
13, 58270, Control_c, 8, 7, 85
13, 58296, Control_c, 8, 7, 83
13, 58316, Control_c, 8, 7, 81
13, 58343, Control_c, 8, 7, 80
13, 58350, Control_c, 8, 7, 79
13, 58396, Control_c, 8, 7, 77
13, 58560, Note_on_c, 8, 64, 0
13, 58560, Note_on_c, 8, 55, 0
13, 58560, Note_on_c, 8, 60, 0
13, 58560, Note_on_c, 8, 65, 80
13, 58560, Note_on_c, 8, 60, 80
13, 58560, Note_on_c, 8, 57, 80
13, 58563, Control_c, 8, 7, 127
13, 58580, Control_c, 8, 7, 126
13, 58583, Control_c, 8, 7, 125
13, 58586, Control_c, 8, 7, 124
13, 58590, Control_c, 8, 7, 123
13, 58596, Control_c, 8, 7, 121
13, 58606, Control_c, 8, 7, 120
13, 58613, Control_c, 8, 7, 119
13, 58616, Control_c, 8, 7, 118
13, 58623, Control_c, 8, 7, 115
13, 58636, Control_c, 8, 7, 113
13, 58653, Control_c, 8, 7, 111
13, 58663, Control_c, 8, 7, 109
13, 58673, Control_c, 8, 7, 108
13, 58680, Control_c, 8, 7, 107
13, 58683, Control_c, 8, 7, 106
13, 58686, Control_c, 8, 7, 105
13, 58693, Control_c, 8, 7, 103
13, 58703, Control_c, 8, 7, 101
13, 58710, Control_c, 8, 7, 100
13, 58713, Control_c, 8, 7, 99
13, 58723, Control_c, 8, 7, 98
13, 58730, Control_c, 8, 7, 97
13, 58733, Control_c, 8, 7, 96
13, 58736, Control_c, 8, 7, 95
13, 58746, Control_c, 8, 7, 93
13, 58753, Control_c, 8, 7, 92
13, 58756, Control_c, 8, 7, 91
13, 58766, Control_c, 8, 7, 89
13, 58776, Control_c, 8, 7, 88
13, 58783, Control_c, 8, 7, 87
13, 58796, Control_c, 8, 7, 85
13, 59040, Note_on_c, 8, 57, 0
13, 59040, Note_on_c, 8, 60, 0
13, 59040, Note_on_c, 8, 65, 0
13, 59040, Note_on_c, 8, 57, 80
13, 59040, Note_on_c, 8, 65, 80
13, 59040, Note_on_c, 8, 62, 80
13, 59043, Control_c, 8, 7, 127
13, 59056, Control_c, 8, 7, 126
13, 59063, Control_c, 8, 7, 124
13, 59070, Control_c, 8, 7, 122
13, 59076, Control_c, 8, 7, 120
13, 59086, Control_c, 8, 7, 118
13, 59093, Control_c, 8, 7, 116
13, 59103, Control_c, 8, 7, 114
13, 59110, Control_c, 8, 7, 112
13, 59116, Control_c, 8, 7, 110
13, 59123, Control_c, 8, 7, 108
13, 59130, Control_c, 8, 7, 106
13, 59136, Control_c, 8, 7, 104
13, 59143, Control_c, 8, 7, 102
13, 59150, Control_c, 8, 7, 101
13, 59153, Control_c, 8, 7, 100
13, 59156, Control_c, 8, 7, 98
13, 59163, Control_c, 8, 7, 97
13, 59166, Control_c, 8, 7, 96
13, 59173, Control_c, 8, 7, 94
13, 59183, Control_c, 8, 7, 93
13, 59190, Control_c, 8, 7, 90
13, 59203, Control_c, 8, 7, 88
13, 59210, Control_c, 8, 7, 87
13, 59213, Control_c, 8, 7, 86
13, 59223, Control_c, 8, 7, 85
13, 59230, Control_c, 8, 7, 84
13, 59240, Control_c, 8, 7, 83
13, 59246, Control_c, 8, 7, 82
13, 59266, Control_c, 8, 7, 81
13, 59270, Control_c, 8, 7, 80
13, 59280, Note_on_c, 8, 62, 0
13, 59280, Note_on_c, 8, 65, 0
13, 59280, Note_on_c, 8, 57, 0
13, 59280, Note_on_c, 8, 56, 80
13, 59280, Note_on_c, 8, 64, 80
13, 59280, Note_on_c, 8, 59, 80
13, 59283, Control_c, 8, 7, 125
13, 59300, Control_c, 8, 7, 124
13, 59303, Control_c, 8, 7, 123
13, 59306, Control_c, 8, 7, 122
13, 59310, Control_c, 8, 7, 120
13, 59316, Control_c, 8, 7, 118
13, 59320, Control_c, 8, 7, 117
13, 59326, Control_c, 8, 7, 114
13, 59330, Control_c, 8, 7, 112
13, 59336, Control_c, 8, 7, 109
13, 59343, Control_c, 8, 7, 106
13, 59346, Control_c, 8, 7, 105
13, 59350, Control_c, 8, 7, 104
13, 59356, Control_c, 8, 7, 102
13, 59360, Control_c, 8, 7, 100
13, 59363, Control_c, 8, 7, 98
13, 59366, Control_c, 8, 7, 97
13, 59370, Control_c, 8, 7, 96
13, 59373, Control_c, 8, 7, 94
13, 59376, Control_c, 8, 7, 92
13, 59386, Control_c, 8, 7, 90
13, 59390, Control_c, 8, 7, 89
13, 59393, Control_c, 8, 7, 88
13, 59396, Control_c, 8, 7, 87
13, 59400, Control_c, 8, 7, 86
13, 59403, Control_c, 8, 7, 84
13, 59406, Control_c, 8, 7, 82
13, 59410, Control_c, 8, 7, 81
13, 59413, Control_c, 8, 7, 80
13, 59450, Control_c, 8, 7, 79
13, 59456, Control_c, 8, 7, 78
13, 59520, Note_on_c, 8, 59, 0
13, 59520, Note_on_c, 8, 64, 0
13, 59520, Note_on_c, 8, 56, 0
13, 63360, Note_on_c, 8, 57, 80
13, 63360, Note_on_c, 8, 60, 80
13, 63360, Note_on_c, 8, 64, 80
13, 63363, Control_c, 8, 7, 126
13, 63376, Control_c, 8, 7, 125
13, 63383, Control_c, 8, 7, 124
13, 63386, Control_c, 8, 7, 123
13, 63396, Control_c, 8, 7, 121
13, 63400, Control_c, 8, 7, 120
13, 63403, Control_c, 8, 7, 119
13, 63410, Control_c, 8, 7, 117
13, 63416, Control_c, 8, 7, 116
13, 63420, Control_c, 8, 7, 115
13, 63426, Control_c, 8, 7, 113
13, 63433, Control_c, 8, 7, 112
13, 63436, Control_c, 8, 7, 111
13, 63443, Control_c, 8, 7, 109
13, 63456, Control_c, 8, 7, 107
13, 63466, Control_c, 8, 7, 105
13, 63490, Control_c, 8, 7, 103
13, 63506, Control_c, 8, 7, 101
13, 63520, Control_c, 8, 7, 100
13, 63523, Control_c, 8, 7, 99
13, 63540, Control_c, 8, 7, 97
13, 63553, Control_c, 8, 7, 96
13, 63556, Control_c, 8, 7, 95
13, 63573, Control_c, 8, 7, 93
13, 63603, Control_c, 8, 7, 91
13, 63613, Control_c, 8, 7, 90
13, 63623, Control_c, 8, 7, 89
13, 63653, Control_c, 8, 7, 87
13, 63666, Control_c, 8, 7, 86
13, 63680, Control_c, 8, 7, 85
13, 63690, Control_c, 8, 7, 84
13, 63706, Control_c, 8, 7, 83
13, 63726, Control_c, 8, 7, 82
13, 63740, Control_c, 8, 7, 81
13, 63836, Control_c, 8, 7, 80
13, 63840, Note_on_c, 8, 60, 0
13, 63840, Note_on_c, 8, 57, 0
13, 63840, Note_on_c, 8, 55, 80
13, 63840, Note_on_c, 8, 60, 80
13, 63840, Note_on_c, 8, 64, 80
13, 63846, Control_c, 8, 7, 127
13, 63850, Control_c, 8, 7, 125
13, 63855, Note_on_c, 8, 64, 0
13, 63856, Control_c, 8, 7, 124
13, 63860, Control_c, 8, 7, 123
13, 63866, Control_c, 8, 7, 121
13, 63873, Control_c, 8, 7, 120
13, 63880, Control_c, 8, 7, 119
13, 63883, Control_c, 8, 7, 117
13, 63893, Control_c, 8, 7, 116
13, 63896, Control_c, 8, 7, 115
13, 63906, Control_c, 8, 7, 113
13, 63910, Control_c, 8, 7, 111
13, 63920, Control_c, 8, 7, 110
13, 63923, Control_c, 8, 7, 109
13, 63930, Control_c, 8, 7, 107
13, 63933, Control_c, 8, 7, 105
13, 63946, Control_c, 8, 7, 103
13, 63950, Control_c, 8, 7, 101
13, 63960, Control_c, 8, 7, 99
13, 63963, Control_c, 8, 7, 98
13, 63973, Control_c, 8, 7, 97
13, 63983, Control_c, 8, 7, 93
13, 63990, Control_c, 8, 7, 92
13, 63996, Control_c, 8, 7, 91
13, 64006, Control_c, 8, 7, 89
13, 64013, Control_c, 8, 7, 88
13, 64016, Control_c, 8, 7, 87
13, 64030, Control_c, 8, 7, 85
13, 64056, Control_c, 8, 7, 83
13, 64076, Control_c, 8, 7, 81
13, 64103, Control_c, 8, 7, 80
13, 64110, Control_c, 8, 7, 79
13, 64156, Control_c, 8, 7, 77
13, 64320, Note_on_c, 8, 64, 0
13, 64320, Note_on_c, 8, 55, 0
13, 64320, Note_on_c, 8, 60, 0
13, 64320, Note_on_c, 8, 65, 80
13, 64320, Note_on_c, 8, 60, 80
13, 64320, Note_on_c, 8, 57, 80
13, 64323, Control_c, 8, 7, 127
13, 64340, Control_c, 8, 7, 126
13, 64343, Control_c, 8, 7, 125
13, 64346, Control_c, 8, 7, 124
13, 64350, Control_c, 8, 7, 123
13, 64356, Control_c, 8, 7, 121
13, 64366, Control_c, 8, 7, 120
13, 64373, Control_c, 8, 7, 119
13, 64376, Control_c, 8, 7, 118
13, 64383, Control_c, 8, 7, 115
13, 64396, Control_c, 8, 7, 113
13, 64413, Control_c, 8, 7, 111
13, 64423, Control_c, 8, 7, 109
13, 64433, Control_c, 8, 7, 108
13, 64440, Control_c, 8, 7, 107
13, 64443, Control_c, 8, 7, 106
13, 64446, Control_c, 8, 7, 105
13, 64453, Control_c, 8, 7, 103
13, 64463, Control_c, 8, 7, 101
13, 64470, Control_c, 8, 7, 100
13, 64473, Control_c, 8, 7, 99
13, 64483, Control_c, 8, 7, 98
13, 64490, Control_c, 8, 7, 97
13, 64493, Control_c, 8, 7, 96
13, 64496, Control_c, 8, 7, 95
13, 64506, Control_c, 8, 7, 93
13, 64513, Control_c, 8, 7, 92
13, 64516, Control_c, 8, 7, 91
13, 64526, Control_c, 8, 7, 89
13, 64536, Control_c, 8, 7, 88
13, 64543, Control_c, 8, 7, 87
13, 64556, Control_c, 8, 7, 85
13, 64800, Note_on_c, 8, 57, 0
13, 64800, Note_on_c, 8, 60, 0
13, 64800, Note_on_c, 8, 65, 0
13, 64800, Note_on_c, 8, 57, 80
13, 64800, Note_on_c, 8, 65, 80
13, 64800, Note_on_c, 8, 62, 80
13, 64803, Control_c, 8, 7, 127
13, 64816, Control_c, 8, 7, 126
13, 64823, Control_c, 8, 7, 124
13, 64830, Control_c, 8, 7, 122
13, 64836, Control_c, 8, 7, 120
13, 64846, Control_c, 8, 7, 118
13, 64853, Control_c, 8, 7, 116
13, 64863, Control_c, 8, 7, 114
13, 64870, Control_c, 8, 7, 112
13, 64876, Control_c, 8, 7, 110
13, 64883, Control_c, 8, 7, 108
13, 64890, Control_c, 8, 7, 106
13, 64896, Control_c, 8, 7, 104
13, 64903, Control_c, 8, 7, 102
13, 64910, Control_c, 8, 7, 101
13, 64913, Control_c, 8, 7, 100
13, 64916, Control_c, 8, 7, 98
13, 64923, Control_c, 8, 7, 97
13, 64926, Control_c, 8, 7, 96
13, 64933, Control_c, 8, 7, 94
13, 64943, Control_c, 8, 7, 93
13, 64950, Control_c, 8, 7, 90
13, 64963, Control_c, 8, 7, 88
13, 64970, Control_c, 8, 7, 87
13, 64973, Control_c, 8, 7, 86
13, 64983, Control_c, 8, 7, 85
13, 64990, Control_c, 8, 7, 84
13, 65000, Control_c, 8, 7, 83
13, 65006, Control_c, 8, 7, 82
13, 65026, Control_c, 8, 7, 81
13, 65030, Control_c, 8, 7, 80
13, 65040, Note_on_c, 8, 62, 0
13, 65040, Note_on_c, 8, 65, 0
13, 65040, Note_on_c, 8, 57, 0
13, 65040, Note_on_c, 8, 56, 80
13, 65040, Note_on_c, 8, 64, 80
13, 65040, Note_on_c, 8, 59, 80
13, 65043, Control_c, 8, 7, 125
13, 65060, Control_c, 8, 7, 124
13, 65063, Control_c, 8, 7, 123
13, 65066, Control_c, 8, 7, 122
13, 65070, Control_c, 8, 7, 120
13, 65076, Control_c, 8, 7, 118
13, 65080, Control_c, 8, 7, 117
13, 65086, Control_c, 8, 7, 114
13, 65090, Control_c, 8, 7, 112
13, 65096, Control_c, 8, 7, 109
13, 65103, Control_c, 8, 7, 106
13, 65106, Control_c, 8, 7, 105
13, 65110, Control_c, 8, 7, 104
13, 65116, Control_c, 8, 7, 102
13, 65120, Control_c, 8, 7, 100
13, 65123, Control_c, 8, 7, 98
13, 65126, Control_c, 8, 7, 97
13, 65130, Control_c, 8, 7, 96
13, 65133, Control_c, 8, 7, 94
13, 65136, Control_c, 8, 7, 92
13, 65146, Control_c, 8, 7, 90
13, 65150, Control_c, 8, 7, 89
13, 65153, Control_c, 8, 7, 88
13, 65156, Control_c, 8, 7, 87
13, 65160, Control_c, 8, 7, 86
13, 65163, Control_c, 8, 7, 84
13, 65166, Control_c, 8, 7, 82
13, 65170, Control_c, 8, 7, 81
13, 65173, Control_c, 8, 7, 80
13, 65210, Control_c, 8, 7, 79
13, 65216, Control_c, 8, 7, 78
13, 65280, Note_on_c, 8, 59, 0
13, 65280, Note_on_c, 8, 64, 0
13, 65280, Note_on_c, 8, 56, 0
13, 65280, Note_on_c, 8, 57, 80
13, 65280, Note_on_c, 8, 60, 80
13, 65280, Note_on_c, 8, 64, 80
13, 65283, Control_c, 8, 7, 126
13, 65296, Control_c, 8, 7, 125
13, 65303, Control_c, 8, 7, 124
13, 65306, Control_c, 8, 7, 123
13, 65316, Control_c, 8, 7, 121
13, 65320, Control_c, 8, 7, 120
13, 65323, Control_c, 8, 7, 119
13, 65330, Control_c, 8, 7, 117
13, 65336, Control_c, 8, 7, 116
13, 65340, Control_c, 8, 7, 115
13, 65346, Control_c, 8, 7, 113
13, 65353, Control_c, 8, 7, 112
13, 65356, Control_c, 8, 7, 111
13, 65363, Control_c, 8, 7, 109
13, 65376, Control_c, 8, 7, 107
13, 65386, Control_c, 8, 7, 105
13, 65410, Control_c, 8, 7, 103
13, 65426, Control_c, 8, 7, 101
13, 65440, Control_c, 8, 7, 100
13, 65443, Control_c, 8, 7, 99
13, 65460, Control_c, 8, 7, 97
13, 65473, Control_c, 8, 7, 96
13, 65476, Control_c, 8, 7, 95
13, 65493, Control_c, 8, 7, 93
13, 65523, Control_c, 8, 7, 91
13, 65533, Control_c, 8, 7, 90
13, 65543, Control_c, 8, 7, 89
13, 65573, Control_c, 8, 7, 87
13, 65586, Control_c, 8, 7, 86
13, 65600, Control_c, 8, 7, 85
13, 65610, Control_c, 8, 7, 84
13, 65626, Control_c, 8, 7, 83
13, 65646, Control_c, 8, 7, 82
13, 65660, Control_c, 8, 7, 81
13, 65756, Control_c, 8, 7, 80
13, 65760, Note_on_c, 8, 60, 0
13, 65760, Note_on_c, 8, 57, 0
13, 65760, Note_on_c, 8, 55, 80
13, 65760, Note_on_c, 8, 60, 80
13, 65760, Note_on_c, 8, 64, 80
13, 65766, Control_c, 8, 7, 127
13, 65770, Control_c, 8, 7, 125
13, 65775, Note_on_c, 8, 64, 0
13, 65776, Control_c, 8, 7, 124
13, 65780, Control_c, 8, 7, 123
13, 65786, Control_c, 8, 7, 121
13, 65793, Control_c, 8, 7, 120
13, 65800, Control_c, 8, 7, 119
13, 65803, Control_c, 8, 7, 117
13, 65813, Control_c, 8, 7, 116
13, 65816, Control_c, 8, 7, 115
13, 65826, Control_c, 8, 7, 113
13, 65830, Control_c, 8, 7, 111
13, 65840, Control_c, 8, 7, 110
13, 65843, Control_c, 8, 7, 109
13, 65850, Control_c, 8, 7, 107
13, 65853, Control_c, 8, 7, 105
13, 65866, Control_c, 8, 7, 103
13, 65870, Control_c, 8, 7, 101
13, 65880, Control_c, 8, 7, 99
13, 65883, Control_c, 8, 7, 98
13, 65893, Control_c, 8, 7, 97
13, 65903, Control_c, 8, 7, 93
13, 65910, Control_c, 8, 7, 92
13, 65916, Control_c, 8, 7, 91
13, 65926, Control_c, 8, 7, 89
13, 65933, Control_c, 8, 7, 88
13, 65936, Control_c, 8, 7, 87
13, 65950, Control_c, 8, 7, 85
13, 65976, Control_c, 8, 7, 83
13, 65996, Control_c, 8, 7, 81
13, 66023, Control_c, 8, 7, 80
13, 66030, Control_c, 8, 7, 79
13, 66076, Control_c, 8, 7, 77
13, 66240, Note_on_c, 8, 64, 0
13, 66240, Note_on_c, 8, 55, 0
13, 66240, Note_on_c, 8, 60, 0
13, 66240, Note_on_c, 8, 65, 80
13, 66240, Note_on_c, 8, 60, 80
13, 66240, Note_on_c, 8, 57, 80
13, 66243, Control_c, 8, 7, 127
13, 66260, Control_c, 8, 7, 126
13, 66263, Control_c, 8, 7, 125
13, 66266, Control_c, 8, 7, 124
13, 66270, Control_c, 8, 7, 123
13, 66276, Control_c, 8, 7, 121
13, 66286, Control_c, 8, 7, 120
13, 66293, Control_c, 8, 7, 119
13, 66296, Control_c, 8, 7, 118
13, 66303, Control_c, 8, 7, 115
13, 66316, Control_c, 8, 7, 113
13, 66333, Control_c, 8, 7, 111
13, 66343, Control_c, 8, 7, 109
13, 66353, Control_c, 8, 7, 108
13, 66360, Control_c, 8, 7, 107
13, 66363, Control_c, 8, 7, 106
13, 66366, Control_c, 8, 7, 105
13, 66373, Control_c, 8, 7, 103
13, 66383, Control_c, 8, 7, 101
13, 66390, Control_c, 8, 7, 100
13, 66393, Control_c, 8, 7, 99
13, 66403, Control_c, 8, 7, 98
13, 66410, Control_c, 8, 7, 97
13, 66413, Control_c, 8, 7, 96
13, 66416, Control_c, 8, 7, 95
13, 66426, Control_c, 8, 7, 93
13, 66433, Control_c, 8, 7, 92
13, 66436, Control_c, 8, 7, 91
13, 66446, Control_c, 8, 7, 89
13, 66456, Control_c, 8, 7, 88
13, 66463, Control_c, 8, 7, 87
13, 66476, Control_c, 8, 7, 85
13, 66720, Note_on_c, 8, 57, 0
13, 66720, Note_on_c, 8, 60, 0
13, 66720, Note_on_c, 8, 65, 0
13, 66720, Note_on_c, 8, 57, 80
13, 66720, Note_on_c, 8, 65, 80
13, 66720, Note_on_c, 8, 62, 80
13, 66723, Control_c, 8, 7, 127
13, 66736, Control_c, 8, 7, 126
13, 66743, Control_c, 8, 7, 124
13, 66750, Control_c, 8, 7, 122
13, 66756, Control_c, 8, 7, 120
13, 66766, Control_c, 8, 7, 118
13, 66773, Control_c, 8, 7, 116
13, 66783, Control_c, 8, 7, 114
13, 66790, Control_c, 8, 7, 112
13, 66796, Control_c, 8, 7, 110
13, 66803, Control_c, 8, 7, 108
13, 66810, Control_c, 8, 7, 106
13, 66816, Control_c, 8, 7, 104
13, 66823, Control_c, 8, 7, 102
13, 66830, Control_c, 8, 7, 101
13, 66833, Control_c, 8, 7, 100
13, 66836, Control_c, 8, 7, 98
13, 66843, Control_c, 8, 7, 97
13, 66846, Control_c, 8, 7, 96
13, 66853, Control_c, 8, 7, 94
13, 66863, Control_c, 8, 7, 93
13, 66870, Control_c, 8, 7, 90
13, 66883, Control_c, 8, 7, 88
13, 66890, Control_c, 8, 7, 87
13, 66893, Control_c, 8, 7, 86
13, 66903, Control_c, 8, 7, 85
13, 66910, Control_c, 8, 7, 84
13, 66920, Control_c, 8, 7, 83
13, 66926, Control_c, 8, 7, 82
13, 66946, Control_c, 8, 7, 81
13, 66950, Control_c, 8, 7, 80
13, 66960, Note_on_c, 8, 62, 0
13, 66960, Note_on_c, 8, 65, 0
13, 66960, Note_on_c, 8, 57, 0
13, 66960, Note_on_c, 8, 56, 80
13, 66960, Note_on_c, 8, 64, 80
13, 66960, Note_on_c, 8, 59, 80
13, 66963, Control_c, 8, 7, 125
13, 66980, Control_c, 8, 7, 124
13, 66983, Control_c, 8, 7, 123
13, 66986, Control_c, 8, 7, 122
13, 66990, Control_c, 8, 7, 120
13, 66996, Control_c, 8, 7, 118
13, 67000, Control_c, 8, 7, 117
13, 67006, Control_c, 8, 7, 114
13, 67010, Control_c, 8, 7, 112
13, 67016, Control_c, 8, 7, 109
13, 67023, Control_c, 8, 7, 106
13, 67026, Control_c, 8, 7, 105
13, 67030, Control_c, 8, 7, 104
13, 67036, Control_c, 8, 7, 102
13, 67040, Control_c, 8, 7, 100
13, 67043, Control_c, 8, 7, 98
13, 67046, Control_c, 8, 7, 97
13, 67050, Control_c, 8, 7, 96
13, 67053, Control_c, 8, 7, 94
13, 67056, Control_c, 8, 7, 92
13, 67066, Control_c, 8, 7, 90
13, 67070, Control_c, 8, 7, 89
13, 67073, Control_c, 8, 7, 88
13, 67076, Control_c, 8, 7, 87
13, 67080, Control_c, 8, 7, 86
13, 67083, Control_c, 8, 7, 84
13, 67086, Control_c, 8, 7, 82
13, 67090, Control_c, 8, 7, 81
13, 67093, Control_c, 8, 7, 80
13, 67130, Control_c, 8, 7, 79
13, 67136, Control_c, 8, 7, 78
13, 67200, Note_on_c, 8, 59, 0
13, 67200, Note_on_c, 8, 64, 0
13, 67200, Note_on_c, 8, 56, 0
13, 72960, Note_on_c, 8, 57, 80
13, 72960, Note_on_c, 8, 60, 80
13, 72960, Note_on_c, 8, 64, 80
13, 72963, Control_c, 8, 7, 126
13, 72976, Control_c, 8, 7, 125
13, 72983, Control_c, 8, 7, 124
13, 72986, Control_c, 8, 7, 123
13, 72996, Control_c, 8, 7, 121
13, 73000, Control_c, 8, 7, 120
13, 73003, Control_c, 8, 7, 119
13, 73010, Control_c, 8, 7, 117
13, 73016, Control_c, 8, 7, 116
13, 73020, Control_c, 8, 7, 115
13, 73026, Control_c, 8, 7, 113
13, 73033, Control_c, 8, 7, 112
13, 73036, Control_c, 8, 7, 111
13, 73043, Control_c, 8, 7, 109
13, 73056, Control_c, 8, 7, 107
13, 73066, Control_c, 8, 7, 105
13, 73090, Control_c, 8, 7, 103
13, 73106, Control_c, 8, 7, 101
13, 73120, Control_c, 8, 7, 100
13, 73123, Control_c, 8, 7, 99
13, 73140, Control_c, 8, 7, 97
13, 73153, Control_c, 8, 7, 96
13, 73156, Control_c, 8, 7, 95
13, 73173, Control_c, 8, 7, 93
13, 73203, Control_c, 8, 7, 91
13, 73213, Control_c, 8, 7, 90
13, 73223, Control_c, 8, 7, 89
13, 73253, Control_c, 8, 7, 87
13, 73266, Control_c, 8, 7, 86
13, 73280, Control_c, 8, 7, 85
13, 73290, Control_c, 8, 7, 84
13, 73306, Control_c, 8, 7, 83
13, 73326, Control_c, 8, 7, 82
13, 73340, Control_c, 8, 7, 81
13, 73436, Control_c, 8, 7, 80
13, 73440, Note_on_c, 8, 60, 0
13, 73440, Note_on_c, 8, 57, 0
13, 73440, Note_on_c, 8, 55, 80
13, 73440, Note_on_c, 8, 60, 80
13, 73440, Note_on_c, 8, 64, 80
13, 73446, Control_c, 8, 7, 127
13, 73450, Control_c, 8, 7, 125
13, 73455, Note_on_c, 8, 64, 0
13, 73456, Control_c, 8, 7, 124
13, 73460, Control_c, 8, 7, 123
13, 73466, Control_c, 8, 7, 121
13, 73473, Control_c, 8, 7, 120
13, 73480, Control_c, 8, 7, 119
13, 73483, Control_c, 8, 7, 117
13, 73493, Control_c, 8, 7, 116
13, 73496, Control_c, 8, 7, 115
13, 73506, Control_c, 8, 7, 113
13, 73510, Control_c, 8, 7, 111
13, 73520, Control_c, 8, 7, 110
13, 73523, Control_c, 8, 7, 109
13, 73530, Control_c, 8, 7, 107
13, 73533, Control_c, 8, 7, 105
13, 73546, Control_c, 8, 7, 103
13, 73550, Control_c, 8, 7, 101
13, 73560, Control_c, 8, 7, 99
13, 73563, Control_c, 8, 7, 98
13, 73573, Control_c, 8, 7, 97
13, 73583, Control_c, 8, 7, 93
13, 73590, Control_c, 8, 7, 92
13, 73596, Control_c, 8, 7, 91
13, 73606, Control_c, 8, 7, 89
13, 73613, Control_c, 8, 7, 88
13, 73616, Control_c, 8, 7, 87
13, 73630, Control_c, 8, 7, 85
13, 73656, Control_c, 8, 7, 83
13, 73676, Control_c, 8, 7, 81
13, 73703, Control_c, 8, 7, 80
13, 73710, Control_c, 8, 7, 79
13, 73756, Control_c, 8, 7, 77
13, 73920, Note_on_c, 8, 64, 0
13, 73920, Note_on_c, 8, 55, 0
13, 73920, Note_on_c, 8, 60, 0
13, 73920, Note_on_c, 8, 65, 80
13, 73920, Note_on_c, 8, 60, 80
13, 73920, Note_on_c, 8, 57, 80
13, 73923, Control_c, 8, 7, 127
13, 73940, Control_c, 8, 7, 126
13, 73943, Control_c, 8, 7, 125
13, 73946, Control_c, 8, 7, 124
13, 73950, Control_c, 8, 7, 123
13, 73956, Control_c, 8, 7, 121
13, 73966, Control_c, 8, 7, 120
13, 73973, Control_c, 8, 7, 119
13, 73976, Control_c, 8, 7, 118
13, 73983, Control_c, 8, 7, 115
13, 73996, Control_c, 8, 7, 113
13, 74013, Control_c, 8, 7, 111
13, 74023, Control_c, 8, 7, 109
13, 74033, Control_c, 8, 7, 108
13, 74040, Control_c, 8, 7, 107
13, 74043, Control_c, 8, 7, 106
13, 74046, Control_c, 8, 7, 105
13, 74053, Control_c, 8, 7, 103
13, 74063, Control_c, 8, 7, 101
13, 74070, Control_c, 8, 7, 100
13, 74073, Control_c, 8, 7, 99
13, 74083, Control_c, 8, 7, 98
13, 74090, Control_c, 8, 7, 97
13, 74093, Control_c, 8, 7, 96
13, 74096, Control_c, 8, 7, 95
13, 74106, Control_c, 8, 7, 93
13, 74113, Control_c, 8, 7, 92
13, 74116, Control_c, 8, 7, 91
13, 74126, Control_c, 8, 7, 89
13, 74136, Control_c, 8, 7, 88
13, 74143, Control_c, 8, 7, 87
13, 74156, Control_c, 8, 7, 85
13, 74400, Note_on_c, 8, 57, 0
13, 74400, Note_on_c, 8, 60, 0
13, 74400, Note_on_c, 8, 65, 0
13, 74400, Note_on_c, 8, 57, 80
13, 74400, Note_on_c, 8, 65, 80
13, 74400, Note_on_c, 8, 62, 80
13, 74403, Control_c, 8, 7, 127
13, 74416, Control_c, 8, 7, 126
13, 74423, Control_c, 8, 7, 124
13, 74430, Control_c, 8, 7, 122
13, 74436, Control_c, 8, 7, 120
13, 74446, Control_c, 8, 7, 118
13, 74453, Control_c, 8, 7, 116
13, 74463, Control_c, 8, 7, 114
13, 74470, Control_c, 8, 7, 112
13, 74476, Control_c, 8, 7, 110
13, 74483, Control_c, 8, 7, 108
13, 74490, Control_c, 8, 7, 106
13, 74496, Control_c, 8, 7, 104
13, 74503, Control_c, 8, 7, 102
13, 74510, Control_c, 8, 7, 101
13, 74513, Control_c, 8, 7, 100
13, 74516, Control_c, 8, 7, 98
13, 74523, Control_c, 8, 7, 97
13, 74526, Control_c, 8, 7, 96
13, 74533, Control_c, 8, 7, 94
13, 74543, Control_c, 8, 7, 93
13, 74550, Control_c, 8, 7, 90
13, 74563, Control_c, 8, 7, 88
13, 74570, Control_c, 8, 7, 87
13, 74573, Control_c, 8, 7, 86
13, 74583, Control_c, 8, 7, 85
13, 74590, Control_c, 8, 7, 84
13, 74600, Control_c, 8, 7, 83
13, 74606, Control_c, 8, 7, 82
13, 74626, Control_c, 8, 7, 81
13, 74630, Control_c, 8, 7, 80
13, 74640, Note_on_c, 8, 62, 0
13, 74640, Note_on_c, 8, 65, 0
13, 74640, Note_on_c, 8, 57, 0
13, 74640, Note_on_c, 8, 56, 80
13, 74640, Note_on_c, 8, 64, 80
13, 74640, Note_on_c, 8, 59, 80
13, 74643, Control_c, 8, 7, 125
13, 74660, Control_c, 8, 7, 124
13, 74663, Control_c, 8, 7, 123
13, 74666, Control_c, 8, 7, 122
13, 74670, Control_c, 8, 7, 120
13, 74676, Control_c, 8, 7, 118
13, 74680, Control_c, 8, 7, 117
13, 74686, Control_c, 8, 7, 114
13, 74690, Control_c, 8, 7, 112
13, 74696, Control_c, 8, 7, 109
13, 74703, Control_c, 8, 7, 106
13, 74706, Control_c, 8, 7, 105
13, 74710, Control_c, 8, 7, 104
13, 74716, Control_c, 8, 7, 102
13, 74720, Control_c, 8, 7, 100
13, 74723, Control_c, 8, 7, 98
13, 74726, Control_c, 8, 7, 97
13, 74730, Control_c, 8, 7, 96
13, 74733, Control_c, 8, 7, 94
13, 74736, Control_c, 8, 7, 92
13, 74746, Control_c, 8, 7, 90
13, 74750, Control_c, 8, 7, 89
13, 74753, Control_c, 8, 7, 88
13, 74756, Control_c, 8, 7, 87
13, 74760, Control_c, 8, 7, 86
13, 74763, Control_c, 8, 7, 84
13, 74766, Control_c, 8, 7, 82
13, 74770, Control_c, 8, 7, 81
13, 74773, Control_c, 8, 7, 80
13, 74810, Control_c, 8, 7, 79
13, 74816, Control_c, 8, 7, 78
13, 74880, Note_on_c, 8, 59, 0
13, 74880, Note_on_c, 8, 64, 0
13, 74880, Note_on_c, 8, 56, 0
13, 92640, Note_on_c, 8, 57, 80
13, 92640, Note_on_c, 8, 60, 80
13, 92640, Note_on_c, 8, 64, 80
13, 92643, Control_c, 8, 7, 126
13, 92656, Control_c, 8, 7, 125
13, 92663, Control_c, 8, 7, 124
13, 92666, Control_c, 8, 7, 123
13, 92676, Control_c, 8, 7, 121
13, 92680, Control_c, 8, 7, 120
13, 92683, Control_c, 8, 7, 119
13, 92690, Control_c, 8, 7, 117
13, 92696, Control_c, 8, 7, 116
13, 92700, Control_c, 8, 7, 115
13, 92706, Control_c, 8, 7, 113
13, 92713, Control_c, 8, 7, 112
13, 92716, Control_c, 8, 7, 111
13, 92723, Control_c, 8, 7, 109
13, 92736, Control_c, 8, 7, 107
13, 92746, Control_c, 8, 7, 105
13, 92770, Control_c, 8, 7, 103
13, 92786, Control_c, 8, 7, 101
13, 92800, Control_c, 8, 7, 100
13, 92803, Control_c, 8, 7, 99
13, 92820, Control_c, 8, 7, 97
13, 92833, Control_c, 8, 7, 96
13, 92836, Control_c, 8, 7, 95
13, 92853, Control_c, 8, 7, 93
13, 92883, Control_c, 8, 7, 91
13, 92893, Control_c, 8, 7, 90
13, 92903, Control_c, 8, 7, 89
13, 92933, Control_c, 8, 7, 87
13, 92946, Control_c, 8, 7, 86
13, 92960, Control_c, 8, 7, 85
13, 92970, Control_c, 8, 7, 84
13, 92986, Control_c, 8, 7, 83
13, 93006, Control_c, 8, 7, 82
13, 93020, Control_c, 8, 7, 81
13, 93116, Control_c, 8, 7, 80
13, 93120, Note_on_c, 8, 60, 0
13, 93120, Note_on_c, 8, 57, 0
13, 93120, Note_on_c, 8, 55, 80
13, 93120, Note_on_c, 8, 60, 80
13, 93120, Note_on_c, 8, 64, 80
13, 93126, Control_c, 8, 7, 127
13, 93130, Control_c, 8, 7, 125
13, 93135, Note_on_c, 8, 64, 0
13, 93136, Control_c, 8, 7, 124
13, 93140, Control_c, 8, 7, 123
13, 93146, Control_c, 8, 7, 121
13, 93153, Control_c, 8, 7, 120
13, 93160, Control_c, 8, 7, 119
13, 93163, Control_c, 8, 7, 117
13, 93173, Control_c, 8, 7, 116
13, 93176, Control_c, 8, 7, 115
13, 93186, Control_c, 8, 7, 113
13, 93190, Control_c, 8, 7, 111
13, 93200, Control_c, 8, 7, 110
13, 93203, Control_c, 8, 7, 109
13, 93210, Control_c, 8, 7, 107
13, 93213, Control_c, 8, 7, 105
13, 93226, Control_c, 8, 7, 103
13, 93230, Control_c, 8, 7, 101
13, 93240, Control_c, 8, 7, 99
13, 93243, Control_c, 8, 7, 98
13, 93253, Control_c, 8, 7, 97
13, 93263, Control_c, 8, 7, 93
13, 93270, Control_c, 8, 7, 92
13, 93276, Control_c, 8, 7, 91
13, 93286, Control_c, 8, 7, 89
13, 93293, Control_c, 8, 7, 88
13, 93296, Control_c, 8, 7, 87
13, 93310, Control_c, 8, 7, 85
13, 93336, Control_c, 8, 7, 83
13, 93356, Control_c, 8, 7, 81
13, 93383, Control_c, 8, 7, 80
13, 93390, Control_c, 8, 7, 79
13, 93436, Control_c, 8, 7, 77
13, 93600, Note_on_c, 8, 64, 0
13, 93600, Note_on_c, 8, 55, 0
13, 93600, Note_on_c, 8, 60, 0
13, 93600, Note_on_c, 8, 65, 80
13, 93600, Note_on_c, 8, 60, 80
13, 93600, Note_on_c, 8, 57, 80
13, 93603, Control_c, 8, 7, 127
13, 93620, Control_c, 8, 7, 126
13, 93623, Control_c, 8, 7, 125
13, 93626, Control_c, 8, 7, 124
13, 93630, Control_c, 8, 7, 123
13, 93636, Control_c, 8, 7, 121
13, 93646, Control_c, 8, 7, 120
13, 93653, Control_c, 8, 7, 119
13, 93656, Control_c, 8, 7, 118
13, 93663, Control_c, 8, 7, 115
13, 93676, Control_c, 8, 7, 113
13, 93693, Control_c, 8, 7, 111
13, 93703, Control_c, 8, 7, 109
13, 93713, Control_c, 8, 7, 108
13, 93720, Control_c, 8, 7, 107
13, 93723, Control_c, 8, 7, 106
13, 93726, Control_c, 8, 7, 105
13, 93733, Control_c, 8, 7, 103
13, 93743, Control_c, 8, 7, 101
13, 93750, Control_c, 8, 7, 100
13, 93753, Control_c, 8, 7, 99
13, 93763, Control_c, 8, 7, 98
13, 93770, Control_c, 8, 7, 97
13, 93773, Control_c, 8, 7, 96
13, 93776, Control_c, 8, 7, 95
13, 93786, Control_c, 8, 7, 93
13, 93793, Control_c, 8, 7, 92
13, 93796, Control_c, 8, 7, 91
13, 93806, Control_c, 8, 7, 89
13, 93816, Control_c, 8, 7, 88
13, 93823, Control_c, 8, 7, 87
13, 93836, Control_c, 8, 7, 85
13, 94080, Note_on_c, 8, 57, 0
13, 94080, Note_on_c, 8, 60, 0
13, 94080, Note_on_c, 8, 65, 0
13, 94080, Note_on_c, 8, 57, 80
13, 94080, Note_on_c, 8, 65, 80
13, 94080, Note_on_c, 8, 62, 80
13, 94083, Control_c, 8, 7, 127
13, 94096, Control_c, 8, 7, 126
13, 94103, Control_c, 8, 7, 124
13, 94110, Control_c, 8, 7, 122
13, 94116, Control_c, 8, 7, 120
13, 94126, Control_c, 8, 7, 118
13, 94133, Control_c, 8, 7, 116
13, 94143, Control_c, 8, 7, 114
13, 94150, Control_c, 8, 7, 112
13, 94156, Control_c, 8, 7, 110
13, 94163, Control_c, 8, 7, 108
13, 94170, Control_c, 8, 7, 106
13, 94176, Control_c, 8, 7, 104
13, 94183, Control_c, 8, 7, 102
13, 94190, Control_c, 8, 7, 101
13, 94193, Control_c, 8, 7, 100
13, 94196, Control_c, 8, 7, 98
13, 94203, Control_c, 8, 7, 97
13, 94206, Control_c, 8, 7, 96
13, 94213, Control_c, 8, 7, 94
13, 94223, Control_c, 8, 7, 93
13, 94230, Control_c, 8, 7, 90
13, 94243, Control_c, 8, 7, 88
13, 94250, Control_c, 8, 7, 87
13, 94253, Control_c, 8, 7, 86
13, 94263, Control_c, 8, 7, 85
13, 94270, Control_c, 8, 7, 84
13, 94280, Control_c, 8, 7, 83
13, 94286, Control_c, 8, 7, 82
13, 94306, Control_c, 8, 7, 81
13, 94310, Control_c, 8, 7, 80
13, 94320, Note_on_c, 8, 62, 0
13, 94320, Note_on_c, 8, 65, 0
13, 94320, Note_on_c, 8, 57, 0
13, 94320, Note_on_c, 8, 56, 80
13, 94320, Note_on_c, 8, 64, 80
13, 94320, Note_on_c, 8, 59, 80
13, 94323, Control_c, 8, 7, 125
13, 94340, Control_c, 8, 7, 124
13, 94343, Control_c, 8, 7, 123
13, 94346, Control_c, 8, 7, 122
13, 94350, Control_c, 8, 7, 120
13, 94356, Control_c, 8, 7, 118
13, 94360, Control_c, 8, 7, 117
13, 94366, Control_c, 8, 7, 114
13, 94370, Control_c, 8, 7, 112
13, 94376, Control_c, 8, 7, 109
13, 94383, Control_c, 8, 7, 106
13, 94386, Control_c, 8, 7, 105
13, 94390, Control_c, 8, 7, 104
13, 94396, Control_c, 8, 7, 102
13, 94400, Control_c, 8, 7, 100
13, 94403, Control_c, 8, 7, 98
13, 94406, Control_c, 8, 7, 97
13, 94410, Control_c, 8, 7, 96
13, 94413, Control_c, 8, 7, 94
13, 94416, Control_c, 8, 7, 92
13, 94426, Control_c, 8, 7, 90
13, 94430, Control_c, 8, 7, 89
13, 94433, Control_c, 8, 7, 88
13, 94436, Control_c, 8, 7, 87
13, 94440, Control_c, 8, 7, 86
13, 94443, Control_c, 8, 7, 84
13, 94446, Control_c, 8, 7, 82
13, 94450, Control_c, 8, 7, 81
13, 94453, Control_c, 8, 7, 80
13, 94490, Control_c, 8, 7, 79
13, 94496, Control_c, 8, 7, 78
13, 94560, Note_on_c, 8, 59, 0
13, 94560, Note_on_c, 8, 64, 0
13, 94560, Note_on_c, 8, 56, 0
13, 94560, Note_on_c, 8, 57, 80
13, 94560, Note_on_c, 8, 60, 80
13, 94560, Note_on_c, 8, 64, 80
13, 94563, Control_c, 8, 7, 126
13, 94576, Control_c, 8, 7, 125
13, 94583, Control_c, 8, 7, 124
13, 94586, Control_c, 8, 7, 123
13, 94596, Control_c, 8, 7, 121
13, 94600, Control_c, 8, 7, 120
13, 94603, Control_c, 8, 7, 119
13, 94610, Control_c, 8, 7, 117
13, 94616, Control_c, 8, 7, 116
13, 94620, Control_c, 8, 7, 115
13, 94626, Control_c, 8, 7, 113
13, 94633, Control_c, 8, 7, 112
13, 94636, Control_c, 8, 7, 111
13, 94643, Control_c, 8, 7, 109
13, 94656, Control_c, 8, 7, 107
13, 94666, Control_c, 8, 7, 105
13, 94690, Control_c, 8, 7, 103
13, 94706, Control_c, 8, 7, 101
13, 94720, Control_c, 8, 7, 100
13, 94723, Control_c, 8, 7, 99
13, 94740, Control_c, 8, 7, 97
13, 94753, Control_c, 8, 7, 96
13, 94756, Control_c, 8, 7, 95
13, 94773, Control_c, 8, 7, 93
13, 94803, Control_c, 8, 7, 91
13, 94813, Control_c, 8, 7, 90
13, 94823, Control_c, 8, 7, 89
13, 94853, Control_c, 8, 7, 87
13, 94866, Control_c, 8, 7, 86
13, 94880, Control_c, 8, 7, 85
13, 94890, Control_c, 8, 7, 84
13, 94906, Control_c, 8, 7, 83
13, 94926, Control_c, 8, 7, 82
13, 94940, Control_c, 8, 7, 81
13, 95036, Control_c, 8, 7, 80
13, 95040, Note_on_c, 8, 60, 0
13, 95040, Note_on_c, 8, 57, 0
13, 95040, Note_on_c, 8, 55, 80
13, 95040, Note_on_c, 8, 60, 80
13, 95040, Note_on_c, 8, 64, 80
13, 95046, Control_c, 8, 7, 127
13, 95050, Control_c, 8, 7, 125
13, 95055, Note_on_c, 8, 64, 0
13, 95056, Control_c, 8, 7, 124
13, 95060, Control_c, 8, 7, 123
13, 95066, Control_c, 8, 7, 121
13, 95073, Control_c, 8, 7, 120
13, 95080, Control_c, 8, 7, 119
13, 95083, Control_c, 8, 7, 117
13, 95093, Control_c, 8, 7, 116
13, 95096, Control_c, 8, 7, 115
13, 95106, Control_c, 8, 7, 113
13, 95110, Control_c, 8, 7, 111
13, 95120, Control_c, 8, 7, 110
13, 95123, Control_c, 8, 7, 109
13, 95130, Control_c, 8, 7, 107
13, 95133, Control_c, 8, 7, 105
13, 95146, Control_c, 8, 7, 103
13, 95150, Control_c, 8, 7, 101
13, 95160, Control_c, 8, 7, 99
13, 95163, Control_c, 8, 7, 98
13, 95173, Control_c, 8, 7, 97
13, 95183, Control_c, 8, 7, 93
13, 95190, Control_c, 8, 7, 92
13, 95196, Control_c, 8, 7, 91
13, 95206, Control_c, 8, 7, 89
13, 95213, Control_c, 8, 7, 88
13, 95216, Control_c, 8, 7, 87
13, 95230, Control_c, 8, 7, 85
13, 95256, Control_c, 8, 7, 83
13, 95276, Control_c, 8, 7, 81
13, 95303, Control_c, 8, 7, 80
13, 95310, Control_c, 8, 7, 79
13, 95356, Control_c, 8, 7, 77
13, 95520, Note_on_c, 8, 64, 0
13, 95520, Note_on_c, 8, 55, 0
13, 95520, Note_on_c, 8, 60, 0
13, 95520, Note_on_c, 8, 65, 80
13, 95520, Note_on_c, 8, 60, 80
13, 95520, Note_on_c, 8, 57, 80
13, 95523, Control_c, 8, 7, 127
13, 95540, Control_c, 8, 7, 126
13, 95543, Control_c, 8, 7, 125
13, 95546, Control_c, 8, 7, 124
13, 95550, Control_c, 8, 7, 123
13, 95556, Control_c, 8, 7, 121
13, 95566, Control_c, 8, 7, 120
13, 95573, Control_c, 8, 7, 119
13, 95576, Control_c, 8, 7, 118
13, 95583, Control_c, 8, 7, 115
13, 95596, Control_c, 8, 7, 113
13, 95613, Control_c, 8, 7, 111
13, 95623, Control_c, 8, 7, 109
13, 95633, Control_c, 8, 7, 108
13, 95640, Control_c, 8, 7, 107
13, 95643, Control_c, 8, 7, 106
13, 95646, Control_c, 8, 7, 105
13, 95653, Control_c, 8, 7, 103
13, 95663, Control_c, 8, 7, 101
13, 95670, Control_c, 8, 7, 100
13, 95673, Control_c, 8, 7, 99
13, 95683, Control_c, 8, 7, 98
13, 95690, Control_c, 8, 7, 97
13, 95693, Control_c, 8, 7, 96
13, 95696, Control_c, 8, 7, 95
13, 95706, Control_c, 8, 7, 93
13, 95713, Control_c, 8, 7, 92
13, 95716, Control_c, 8, 7, 91
13, 95726, Control_c, 8, 7, 89
13, 95736, Control_c, 8, 7, 88
13, 95743, Control_c, 8, 7, 87
13, 95756, Control_c, 8, 7, 85
13, 96000, Note_on_c, 8, 57, 0
13, 96000, Note_on_c, 8, 60, 0
13, 96000, Note_on_c, 8, 65, 0
13, 96000, Note_on_c, 8, 57, 80
13, 96000, Note_on_c, 8, 65, 80
13, 96000, Note_on_c, 8, 62, 80
13, 96003, Control_c, 8, 7, 127
13, 96016, Control_c, 8, 7, 126
13, 96023, Control_c, 8, 7, 124
13, 96030, Control_c, 8, 7, 122
13, 96036, Control_c, 8, 7, 120
13, 96046, Control_c, 8, 7, 118
13, 96053, Control_c, 8, 7, 116
13, 96063, Control_c, 8, 7, 114
13, 96070, Control_c, 8, 7, 112
13, 96076, Control_c, 8, 7, 110
13, 96083, Control_c, 8, 7, 108
13, 96090, Control_c, 8, 7, 106
13, 96096, Control_c, 8, 7, 104
13, 96103, Control_c, 8, 7, 102
13, 96110, Control_c, 8, 7, 101
13, 96113, Control_c, 8, 7, 100
13, 96116, Control_c, 8, 7, 98
13, 96123, Control_c, 8, 7, 97
13, 96126, Control_c, 8, 7, 96
13, 96133, Control_c, 8, 7, 94
13, 96143, Control_c, 8, 7, 93
13, 96150, Control_c, 8, 7, 90
13, 96163, Control_c, 8, 7, 88
13, 96170, Control_c, 8, 7, 87
13, 96173, Control_c, 8, 7, 86
13, 96183, Control_c, 8, 7, 85
13, 96190, Control_c, 8, 7, 84
13, 96200, Control_c, 8, 7, 83
13, 96206, Control_c, 8, 7, 82
13, 96226, Control_c, 8, 7, 81
13, 96230, Control_c, 8, 7, 80
13, 96240, Note_on_c, 8, 62, 0
13, 96240, Note_on_c, 8, 65, 0
13, 96240, Note_on_c, 8, 57, 0
13, 96240, Note_on_c, 8, 56, 80
13, 96240, Note_on_c, 8, 64, 80
13, 96240, Note_on_c, 8, 59, 80
13, 96243, Control_c, 8, 7, 125
13, 96260, Control_c, 8, 7, 124
13, 96263, Control_c, 8, 7, 123
13, 96266, Control_c, 8, 7, 122
13, 96270, Control_c, 8, 7, 120
13, 96276, Control_c, 8, 7, 118
13, 96280, Control_c, 8, 7, 117
13, 96286, Control_c, 8, 7, 114
13, 96290, Control_c, 8, 7, 112
13, 96296, Control_c, 8, 7, 109
13, 96303, Control_c, 8, 7, 106
13, 96306, Control_c, 8, 7, 105
13, 96310, Control_c, 8, 7, 104
13, 96316, Control_c, 8, 7, 102
13, 96320, Control_c, 8, 7, 100
13, 96323, Control_c, 8, 7, 98
13, 96326, Control_c, 8, 7, 97
13, 96330, Control_c, 8, 7, 96
13, 96333, Control_c, 8, 7, 94
13, 96336, Control_c, 8, 7, 92
13, 96346, Control_c, 8, 7, 90
13, 96350, Control_c, 8, 7, 89
13, 96353, Control_c, 8, 7, 88
13, 96356, Control_c, 8, 7, 87
13, 96360, Control_c, 8, 7, 86
13, 96363, Control_c, 8, 7, 84
13, 96366, Control_c, 8, 7, 82
13, 96370, Control_c, 8, 7, 81
13, 96373, Control_c, 8, 7, 80
13, 96410, Control_c, 8, 7, 79
13, 96416, Control_c, 8, 7, 78
13, 96480, Note_on_c, 8, 59, 0
13, 96480, Note_on_c, 8, 64, 0
13, 96480, Note_on_c, 8, 56, 0
13, 96480, Note_on_c, 8, 57, 80
13, 96480, Note_on_c, 8, 60, 80
13, 96480, Note_on_c, 8, 64, 80
13, 96483, Control_c, 8, 7, 126
13, 96496, Control_c, 8, 7, 125
13, 96503, Control_c, 8, 7, 124
13, 96506, Control_c, 8, 7, 123
13, 96516, Control_c, 8, 7, 121
13, 96520, Control_c, 8, 7, 120
13, 96523, Control_c, 8, 7, 119
13, 96530, Control_c, 8, 7, 117
13, 96536, Control_c, 8, 7, 116
13, 96540, Control_c, 8, 7, 115
13, 96546, Control_c, 8, 7, 113
13, 96553, Control_c, 8, 7, 112
13, 96556, Control_c, 8, 7, 111
13, 96563, Control_c, 8, 7, 109
13, 96576, Control_c, 8, 7, 107
13, 96586, Control_c, 8, 7, 105
13, 96610, Control_c, 8, 7, 103
13, 96626, Control_c, 8, 7, 101
13, 96640, Control_c, 8, 7, 100
13, 96643, Control_c, 8, 7, 99
13, 96660, Control_c, 8, 7, 97
13, 96673, Control_c, 8, 7, 96
13, 96676, Control_c, 8, 7, 95
13, 96693, Control_c, 8, 7, 93
13, 96723, Control_c, 8, 7, 91
13, 96733, Control_c, 8, 7, 90
13, 96743, Control_c, 8, 7, 89
13, 96773, Control_c, 8, 7, 87
13, 96786, Control_c, 8, 7, 86
13, 96800, Control_c, 8, 7, 85
13, 96810, Control_c, 8, 7, 84
13, 96826, Control_c, 8, 7, 83
13, 96846, Control_c, 8, 7, 82
13, 96860, Control_c, 8, 7, 81
13, 96956, Control_c, 8, 7, 80
13, 96960, Note_on_c, 8, 60, 0
13, 96960, Note_on_c, 8, 57, 0
13, 96960, Note_on_c, 8, 55, 80
13, 96960, Note_on_c, 8, 60, 80
13, 96960, Note_on_c, 8, 64, 80
13, 96966, Control_c, 8, 7, 127
13, 96970, Control_c, 8, 7, 125
13, 96975, Note_on_c, 8, 64, 0
13, 96976, Control_c, 8, 7, 124
13, 96980, Control_c, 8, 7, 123
13, 96986, Control_c, 8, 7, 121
13, 96993, Control_c, 8, 7, 120
13, 97000, Control_c, 8, 7, 119
13, 97003, Control_c, 8, 7, 117
13, 97013, Control_c, 8, 7, 116
13, 97016, Control_c, 8, 7, 115
13, 97026, Control_c, 8, 7, 113
13, 97030, Control_c, 8, 7, 111
13, 97040, Control_c, 8, 7, 110
13, 97043, Control_c, 8, 7, 109
13, 97050, Control_c, 8, 7, 107
13, 97053, Control_c, 8, 7, 105
13, 97066, Control_c, 8, 7, 103
13, 97070, Control_c, 8, 7, 101
13, 97080, Control_c, 8, 7, 99
13, 97083, Control_c, 8, 7, 98
13, 97093, Control_c, 8, 7, 97
13, 97103, Control_c, 8, 7, 93
13, 97110, Control_c, 8, 7, 92
13, 97116, Control_c, 8, 7, 91
13, 97126, Control_c, 8, 7, 89
13, 97133, Control_c, 8, 7, 88
13, 97136, Control_c, 8, 7, 87
13, 97150, Control_c, 8, 7, 85
13, 97176, Control_c, 8, 7, 83
13, 97196, Control_c, 8, 7, 81
13, 97223, Control_c, 8, 7, 80
13, 97230, Control_c, 8, 7, 79
13, 97276, Control_c, 8, 7, 77
13, 97440, Note_on_c, 8, 64, 0
13, 97440, Note_on_c, 8, 55, 0
13, 97440, Note_on_c, 8, 60, 0
13, 97440, Note_on_c, 8, 65, 80
13, 97440, Note_on_c, 8, 60, 80
13, 97440, Note_on_c, 8, 57, 80
13, 97443, Control_c, 8, 7, 127
13, 97460, Control_c, 8, 7, 126
13, 97463, Control_c, 8, 7, 125
13, 97466, Control_c, 8, 7, 124
13, 97470, Control_c, 8, 7, 123
13, 97476, Control_c, 8, 7, 121
13, 97486, Control_c, 8, 7, 120
13, 97493, Control_c, 8, 7, 119
13, 97496, Control_c, 8, 7, 118
13, 97503, Control_c, 8, 7, 115
13, 97516, Control_c, 8, 7, 113
13, 97533, Control_c, 8, 7, 111
13, 97543, Control_c, 8, 7, 109
13, 97553, Control_c, 8, 7, 108
13, 97560, Control_c, 8, 7, 107
13, 97563, Control_c, 8, 7, 106
13, 97566, Control_c, 8, 7, 105
13, 97573, Control_c, 8, 7, 103
13, 97583, Control_c, 8, 7, 101
13, 97590, Control_c, 8, 7, 100
13, 97593, Control_c, 8, 7, 99
13, 97603, Control_c, 8, 7, 98
13, 97610, Control_c, 8, 7, 97
13, 97613, Control_c, 8, 7, 96
13, 97616, Control_c, 8, 7, 95
13, 97626, Control_c, 8, 7, 93
13, 97633, Control_c, 8, 7, 92
13, 97636, Control_c, 8, 7, 91
13, 97646, Control_c, 8, 7, 89
13, 97656, Control_c, 8, 7, 88
13, 97663, Control_c, 8, 7, 87
13, 97676, Control_c, 8, 7, 85
13, 97920, Note_on_c, 8, 57, 0
13, 97920, Note_on_c, 8, 60, 0
13, 97920, Note_on_c, 8, 65, 0
13, 97920, Note_on_c, 8, 57, 80
13, 97920, Note_on_c, 8, 65, 80
13, 97920, Note_on_c, 8, 62, 80
13, 97923, Control_c, 8, 7, 127
13, 97936, Control_c, 8, 7, 126
13, 97943, Control_c, 8, 7, 124
13, 97950, Control_c, 8, 7, 122
13, 97956, Control_c, 8, 7, 120
13, 97966, Control_c, 8, 7, 118
13, 97973, Control_c, 8, 7, 116
13, 97983, Control_c, 8, 7, 114
13, 97990, Control_c, 8, 7, 112
13, 97996, Control_c, 8, 7, 110
13, 98003, Control_c, 8, 7, 108
13, 98010, Control_c, 8, 7, 106
13, 98016, Control_c, 8, 7, 104
13, 98023, Control_c, 8, 7, 102
13, 98030, Control_c, 8, 7, 101
13, 98033, Control_c, 8, 7, 100
13, 98036, Control_c, 8, 7, 98
13, 98043, Control_c, 8, 7, 97
13, 98046, Control_c, 8, 7, 96
13, 98053, Control_c, 8, 7, 94
13, 98063, Control_c, 8, 7, 93
13, 98070, Control_c, 8, 7, 90
13, 98083, Control_c, 8, 7, 88
13, 98090, Control_c, 8, 7, 87
13, 98093, Control_c, 8, 7, 86
13, 98103, Control_c, 8, 7, 85
13, 98110, Control_c, 8, 7, 84
13, 98120, Control_c, 8, 7, 83
13, 98126, Control_c, 8, 7, 82
13, 98146, Control_c, 8, 7, 81
13, 98150, Control_c, 8, 7, 80
13, 98160, Note_on_c, 8, 62, 0
13, 98160, Note_on_c, 8, 65, 0
13, 98160, Note_on_c, 8, 57, 0
13, 98160, Note_on_c, 8, 56, 80
13, 98160, Note_on_c, 8, 64, 80
13, 98160, Note_on_c, 8, 59, 80
13, 98163, Control_c, 8, 7, 125
13, 98180, Control_c, 8, 7, 124
13, 98183, Control_c, 8, 7, 123
13, 98186, Control_c, 8, 7, 122
13, 98190, Control_c, 8, 7, 120
13, 98196, Control_c, 8, 7, 118
13, 98200, Control_c, 8, 7, 117
13, 98206, Control_c, 8, 7, 114
13, 98210, Control_c, 8, 7, 112
13, 98216, Control_c, 8, 7, 109
13, 98223, Control_c, 8, 7, 106
13, 98226, Control_c, 8, 7, 105
13, 98230, Control_c, 8, 7, 104
13, 98236, Control_c, 8, 7, 102
13, 98240, Control_c, 8, 7, 100
13, 98243, Control_c, 8, 7, 98
13, 98246, Control_c, 8, 7, 97
13, 98250, Control_c, 8, 7, 96
13, 98253, Control_c, 8, 7, 94
13, 98256, Control_c, 8, 7, 92
13, 98266, Control_c, 8, 7, 90
13, 98270, Control_c, 8, 7, 89
13, 98273, Control_c, 8, 7, 88
13, 98276, Control_c, 8, 7, 87
13, 98280, Control_c, 8, 7, 86
13, 98283, Control_c, 8, 7, 84
13, 98286, Control_c, 8, 7, 82
13, 98290, Control_c, 8, 7, 81
13, 98293, Control_c, 8, 7, 80
13, 98330, Control_c, 8, 7, 79
13, 98336, Control_c, 8, 7, 78
13, 98400, Note_on_c, 8, 59, 0
13, 98400, Note_on_c, 8, 64, 0
13, 98400, Note_on_c, 8, 56, 0
13, 98400, Note_on_c, 8, 57, 80
13, 98400, Note_on_c, 8, 60, 80
13, 98400, Note_on_c, 8, 64, 80
13, 98403, Control_c, 8, 7, 126
13, 98416, Control_c, 8, 7, 125
13, 98423, Control_c, 8, 7, 124
13, 98426, Control_c, 8, 7, 123
13, 98436, Control_c, 8, 7, 121
13, 98440, Control_c, 8, 7, 120
13, 98443, Control_c, 8, 7, 119
13, 98450, Control_c, 8, 7, 117
13, 98456, Control_c, 8, 7, 116
13, 98460, Control_c, 8, 7, 115
13, 98466, Control_c, 8, 7, 113
13, 98473, Control_c, 8, 7, 112
13, 98476, Control_c, 8, 7, 111
13, 98483, Control_c, 8, 7, 109
13, 98496, Control_c, 8, 7, 107
13, 98506, Control_c, 8, 7, 105
13, 98530, Control_c, 8, 7, 103
13, 98546, Control_c, 8, 7, 101
13, 98560, Control_c, 8, 7, 100
13, 98563, Control_c, 8, 7, 99
13, 98580, Control_c, 8, 7, 97
13, 98593, Control_c, 8, 7, 96
13, 98596, Control_c, 8, 7, 95
13, 98613, Control_c, 8, 7, 93
13, 98643, Control_c, 8, 7, 91
13, 98653, Control_c, 8, 7, 90
13, 98663, Control_c, 8, 7, 89
13, 98693, Control_c, 8, 7, 87
13, 98706, Control_c, 8, 7, 86
13, 98720, Control_c, 8, 7, 85
13, 98730, Control_c, 8, 7, 84
13, 98746, Control_c, 8, 7, 83
13, 98766, Control_c, 8, 7, 82
13, 98780, Control_c, 8, 7, 81
13, 98876, Control_c, 8, 7, 80
13, 98880, Note_on_c, 8, 60, 0
13, 98880, Note_on_c, 8, 57, 0
13, 98880, Note_on_c, 8, 55, 80
13, 98880, Note_on_c, 8, 60, 80
13, 98880, Note_on_c, 8, 64, 80
13, 98886, Control_c, 8, 7, 127
13, 98890, Control_c, 8, 7, 125
13, 98895, Note_on_c, 8, 64, 0
13, 98896, Control_c, 8, 7, 124
13, 98900, Control_c, 8, 7, 123
13, 98906, Control_c, 8, 7, 121
13, 98913, Control_c, 8, 7, 120
13, 98920, Control_c, 8, 7, 119
13, 98923, Control_c, 8, 7, 117
13, 98933, Control_c, 8, 7, 116
13, 98936, Control_c, 8, 7, 115
13, 98946, Control_c, 8, 7, 113
13, 98950, Control_c, 8, 7, 111
13, 98960, Control_c, 8, 7, 110
13, 98963, Control_c, 8, 7, 109
13, 98970, Control_c, 8, 7, 107
13, 98973, Control_c, 8, 7, 105
13, 98986, Control_c, 8, 7, 103
13, 98990, Control_c, 8, 7, 101
13, 99000, Control_c, 8, 7, 99
13, 99003, Control_c, 8, 7, 98
13, 99013, Control_c, 8, 7, 97
13, 99023, Control_c, 8, 7, 93
13, 99030, Control_c, 8, 7, 92
13, 99036, Control_c, 8, 7, 91
13, 99046, Control_c, 8, 7, 89
13, 99053, Control_c, 8, 7, 88
13, 99056, Control_c, 8, 7, 87
13, 99070, Control_c, 8, 7, 85
13, 99096, Control_c, 8, 7, 83
13, 99116, Control_c, 8, 7, 81
13, 99143, Control_c, 8, 7, 80
13, 99150, Control_c, 8, 7, 79
13, 99196, Control_c, 8, 7, 77
13, 99360, Note_on_c, 8, 64, 0
13, 99360, Note_on_c, 8, 55, 0
13, 99360, Note_on_c, 8, 60, 0
13, 99360, Note_on_c, 8, 65, 80
13, 99360, Note_on_c, 8, 60, 80
13, 99360, Note_on_c, 8, 57, 80
13, 99363, Control_c, 8, 7, 127
13, 99380, Control_c, 8, 7, 126
13, 99383, Control_c, 8, 7, 125
13, 99386, Control_c, 8, 7, 124
13, 99390, Control_c, 8, 7, 123
13, 99396, Control_c, 8, 7, 121
13, 99406, Control_c, 8, 7, 120
13, 99413, Control_c, 8, 7, 119
13, 99416, Control_c, 8, 7, 118
13, 99423, Control_c, 8, 7, 115
13, 99436, Control_c, 8, 7, 113
13, 99453, Control_c, 8, 7, 111
13, 99463, Control_c, 8, 7, 109
13, 99473, Control_c, 8, 7, 108
13, 99480, Control_c, 8, 7, 107
13, 99483, Control_c, 8, 7, 106
13, 99486, Control_c, 8, 7, 105
13, 99493, Control_c, 8, 7, 103
13, 99503, Control_c, 8, 7, 101
13, 99510, Control_c, 8, 7, 100
13, 99513, Control_c, 8, 7, 99
13, 99523, Control_c, 8, 7, 98
13, 99530, Control_c, 8, 7, 97
13, 99533, Control_c, 8, 7, 96
13, 99536, Control_c, 8, 7, 95
13, 99546, Control_c, 8, 7, 93
13, 99553, Control_c, 8, 7, 92
13, 99556, Control_c, 8, 7, 91
13, 99566, Control_c, 8, 7, 89
13, 99576, Control_c, 8, 7, 88
13, 99583, Control_c, 8, 7, 87
13, 99596, Control_c, 8, 7, 85
13, 99840, Note_on_c, 8, 57, 0
13, 99840, Note_on_c, 8, 60, 0
13, 99840, Note_on_c, 8, 65, 0
13, 99840, Note_on_c, 8, 57, 80
13, 99840, Note_on_c, 8, 65, 80
13, 99840, Note_on_c, 8, 62, 80
13, 99843, Control_c, 8, 7, 127
13, 99856, Control_c, 8, 7, 126
13, 99863, Control_c, 8, 7, 124
13, 99870, Control_c, 8, 7, 122
13, 99876, Control_c, 8, 7, 120
13, 99886, Control_c, 8, 7, 118
13, 99893, Control_c, 8, 7, 116
13, 99903, Control_c, 8, 7, 114
13, 99910, Control_c, 8, 7, 112
13, 99916, Control_c, 8, 7, 110
13, 99923, Control_c, 8, 7, 108
13, 99930, Control_c, 8, 7, 106
13, 99936, Control_c, 8, 7, 104
13, 99943, Control_c, 8, 7, 102
13, 99950, Control_c, 8, 7, 101
13, 99953, Control_c, 8, 7, 100
13, 99956, Control_c, 8, 7, 98
13, 99963, Control_c, 8, 7, 97
13, 99966, Control_c, 8, 7, 96
13, 99973, Control_c, 8, 7, 94
13, 99983, Control_c, 8, 7, 93
13, 99990, Control_c, 8, 7, 90
13, 100003, Control_c, 8, 7, 88
13, 100010, Control_c, 8, 7, 87
13, 100013, Control_c, 8, 7, 86
13, 100023, Control_c, 8, 7, 85
13, 100030, Control_c, 8, 7, 84
13, 100040, Control_c, 8, 7, 83
13, 100046, Control_c, 8, 7, 82
13, 100066, Control_c, 8, 7, 81
13, 100070, Control_c, 8, 7, 80
13, 100080, Note_on_c, 8, 62, 0
13, 100080, Note_on_c, 8, 65, 0
13, 100080, Note_on_c, 8, 57, 0
13, 100080, Note_on_c, 8, 56, 80
13, 100080, Note_on_c, 8, 64, 80
13, 100080, Note_on_c, 8, 59, 80
13, 100083, Control_c, 8, 7, 125
13, 100100, Control_c, 8, 7, 124
13, 100103, Control_c, 8, 7, 123
13, 100106, Control_c, 8, 7, 122
13, 100110, Control_c, 8, 7, 120
13, 100116, Control_c, 8, 7, 118
13, 100120, Control_c, 8, 7, 117
13, 100126, Control_c, 8, 7, 114
13, 100130, Control_c, 8, 7, 112
13, 100136, Control_c, 8, 7, 109
13, 100143, Control_c, 8, 7, 106
13, 100146, Control_c, 8, 7, 105
13, 100150, Control_c, 8, 7, 104
13, 100156, Control_c, 8, 7, 102
13, 100160, Control_c, 8, 7, 100
13, 100163, Control_c, 8, 7, 98
13, 100166, Control_c, 8, 7, 97
13, 100170, Control_c, 8, 7, 96
13, 100173, Control_c, 8, 7, 94
13, 100176, Control_c, 8, 7, 92
13, 100186, Control_c, 8, 7, 90
13, 100190, Control_c, 8, 7, 89
13, 100193, Control_c, 8, 7, 88
13, 100196, Control_c, 8, 7, 87
13, 100200, Control_c, 8, 7, 86
13, 100203, Control_c, 8, 7, 84
13, 100206, Control_c, 8, 7, 82
13, 100210, Control_c, 8, 7, 81
13, 100213, Control_c, 8, 7, 80
13, 100250, Control_c, 8, 7, 79
13, 100256, Control_c, 8, 7, 78
13, 100320, Note_on_c, 8, 59, 0
13, 100320, Note_on_c, 8, 64, 0
13, 100320, Note_on_c, 8, 56, 0
13, 100320, End_track
14, 0, Start_track
14, 0, MIDI_port, 0
14, 0, Title_t, "Flute"
14, 0, Control_c, 10, 0, 0
14, 0, Program_c, 10, 75
14, 0, Control_c, 10, 7, 127
14, 0, Control_c, 10, 10, 64
14, 0, Control_c, 10, 121, 0
14, 0, Control_c, 10, 91, 60
14, 25920, Note_on_c, 10, 79, 100
14, 25935, Note_on_c, 10, 79, 0
14, 25950, Note_on_c, 10, 79, 100
14, 25965, Note_on_c, 10, 79, 0
14, 25980, Note_on_c, 10, 79, 100
14, 25995, Note_on_c, 10, 79, 0
14, 26010, Note_on_c, 10, 79, 100
14, 26025, Note_on_c, 10, 79, 0
14, 26040, Note_on_c, 10, 79, 100
14, 26055, Note_on_c, 10, 79, 0
14, 26070, Note_on_c, 10, 81, 100
14, 26100, Note_on_c, 10, 81, 0
14, 26400, Note_on_c, 10, 79, 100
14, 26415, Note_on_c, 10, 79, 0
14, 26430, Note_on_c, 10, 79, 100
14, 26445, Note_on_c, 10, 79, 0
14, 26460, Note_on_c, 10, 79, 100
14, 26475, Note_on_c, 10, 79, 0
14, 26490, Note_on_c, 10, 79, 100
14, 26505, Note_on_c, 10, 79, 0
14, 26520, Note_on_c, 10, 79, 100
14, 26535, Note_on_c, 10, 79, 0
14, 26550, Note_on_c, 10, 81, 100
14, 26580, Note_on_c, 10, 81, 0
14, 26880, Note_on_c, 10, 79, 100
14, 26895, Note_on_c, 10, 79, 0
14, 26910, Note_on_c, 10, 79, 100
14, 26925, Note_on_c, 10, 79, 0
14, 26940, Note_on_c, 10, 79, 100
14, 26955, Note_on_c, 10, 79, 0
14, 26970, Note_on_c, 10, 79, 100
14, 26985, Note_on_c, 10, 79, 0
14, 27000, Note_on_c, 10, 79, 100
14, 27015, Note_on_c, 10, 79, 0
14, 27030, Note_on_c, 10, 81, 100
14, 27045, Note_on_c, 10, 81, 0
14, 27360, Note_on_c, 10, 77, 100
14, 27390, Note_on_c, 10, 77, 0
14, 27390, Note_on_c, 10, 81, 100
14, 27420, Note_on_c, 10, 81, 0
14, 27420, Note_on_c, 10, 84, 100
14, 27450, Note_on_c, 10, 84, 0
14, 27450, Note_on_c, 10, 89, 100
14, 27480, Note_on_c, 10, 89, 0
14, 27480, Note_on_c, 10, 77, 100
14, 27510, Note_on_c, 10, 77, 0
14, 27510, Note_on_c, 10, 81, 100
14, 27540, Note_on_c, 10, 81, 0
14, 27540, Note_on_c, 10, 84, 100
14, 27570, Note_on_c, 10, 84, 0
14, 27570, Note_on_c, 10, 89, 100
14, 27600, Note_on_c, 10, 89, 0
14, 27600, Note_on_c, 10, 80, 100
14, 27630, Note_on_c, 10, 80, 0
14, 27630, Note_on_c, 10, 83, 100
14, 27660, Note_on_c, 10, 83, 0
14, 27660, Note_on_c, 10, 88, 100
14, 27690, Note_on_c, 10, 88, 0
14, 27690, Note_on_c, 10, 92, 100
14, 27720, Note_on_c, 10, 92, 0
14, 27720, Note_on_c, 10, 80, 100
14, 27750, Note_on_c, 10, 80, 0
14, 27750, Note_on_c, 10, 83, 100
14, 27780, Note_on_c, 10, 83, 0
14, 27780, Note_on_c, 10, 88, 100
14, 27810, Note_on_c, 10, 88, 0
14, 27810, Note_on_c, 10, 92, 100
14, 27840, Note_on_c, 10, 92, 0
14, 27840, Note_on_c, 10, 79, 100
14, 27855, Note_on_c, 10, 79, 0
14, 27870, Note_on_c, 10, 79, 100
14, 27885, Note_on_c, 10, 79, 0
14, 27900, Note_on_c, 10, 79, 100
14, 27915, Note_on_c, 10, 79, 0
14, 27930, Note_on_c, 10, 79, 100
14, 27945, Note_on_c, 10, 79, 0
14, 27960, Note_on_c, 10, 79, 100
14, 27975, Note_on_c, 10, 79, 0
14, 27990, Note_on_c, 10, 81, 100
14, 28020, Note_on_c, 10, 81, 0
14, 28320, Note_on_c, 10, 79, 100
14, 28335, Note_on_c, 10, 79, 0
14, 28350, Note_on_c, 10, 79, 100
14, 28365, Note_on_c, 10, 79, 0
14, 28380, Note_on_c, 10, 79, 100
14, 28395, Note_on_c, 10, 79, 0
14, 28410, Note_on_c, 10, 79, 100
14, 28425, Note_on_c, 10, 79, 0
14, 28440, Note_on_c, 10, 79, 100
14, 28455, Note_on_c, 10, 79, 0
14, 28470, Note_on_c, 10, 81, 100
14, 28500, Note_on_c, 10, 81, 0
14, 28800, Note_on_c, 10, 79, 100
14, 28815, Note_on_c, 10, 79, 0
14, 28830, Note_on_c, 10, 79, 100
14, 28845, Note_on_c, 10, 79, 0
14, 28860, Note_on_c, 10, 79, 100
14, 28875, Note_on_c, 10, 79, 0
14, 28890, Note_on_c, 10, 79, 100
14, 28905, Note_on_c, 10, 79, 0
14, 28920, Note_on_c, 10, 79, 100
14, 28935, Note_on_c, 10, 79, 0
14, 28950, Note_on_c, 10, 81, 100
14, 28980, Note_on_c, 10, 81, 0
14, 29280, Note_on_c, 10, 77, 100
14, 29310, Note_on_c, 10, 77, 0
14, 29310, Note_on_c, 10, 81, 100
14, 29340, Note_on_c, 10, 81, 0
14, 29340, Note_on_c, 10, 84, 100
14, 29370, Note_on_c, 10, 84, 0
14, 29370, Note_on_c, 10, 89, 100
14, 29400, Note_on_c, 10, 89, 0
14, 29400, Note_on_c, 10, 77, 100
14, 29430, Note_on_c, 10, 77, 0
14, 29430, Note_on_c, 10, 81, 100
14, 29460, Note_on_c, 10, 81, 0
14, 29460, Note_on_c, 10, 84, 100
14, 29490, Note_on_c, 10, 84, 0
14, 29490, Note_on_c, 10, 89, 100
14, 29520, Note_on_c, 10, 89, 0
14, 29520, Note_on_c, 10, 80, 100
14, 29550, Note_on_c, 10, 80, 0
14, 29550, Note_on_c, 10, 83, 100
14, 29580, Note_on_c, 10, 83, 0
14, 29580, Note_on_c, 10, 88, 100
14, 29610, Note_on_c, 10, 88, 0
14, 29610, Note_on_c, 10, 92, 100
14, 29640, Note_on_c, 10, 92, 0
14, 29640, Note_on_c, 10, 80, 100
14, 29670, Note_on_c, 10, 80, 0
14, 29670, Note_on_c, 10, 83, 100
14, 29700, Note_on_c, 10, 83, 0
14, 29700, Note_on_c, 10, 88, 100
14, 29730, Note_on_c, 10, 88, 0
14, 29730, Note_on_c, 10, 92, 100
14, 29760, Note_on_c, 10, 92, 0
14, 59520, Note_on_c, 10, 79, 100
14, 59535, Note_on_c, 10, 79, 0
14, 59550, Note_on_c, 10, 79, 100
14, 59565, Note_on_c, 10, 79, 0
14, 59580, Note_on_c, 10, 79, 100
14, 59595, Note_on_c, 10, 79, 0
14, 59610, Note_on_c, 10, 79, 100
14, 59625, Note_on_c, 10, 79, 0
14, 59640, Note_on_c, 10, 79, 100
14, 59655, Note_on_c, 10, 79, 0
14, 59670, Note_on_c, 10, 81, 100
14, 59700, Note_on_c, 10, 81, 0
14, 60000, Note_on_c, 10, 79, 100
14, 60015, Note_on_c, 10, 79, 0
14, 60030, Note_on_c, 10, 79, 100
14, 60045, Note_on_c, 10, 79, 0
14, 60060, Note_on_c, 10, 79, 100
14, 60075, Note_on_c, 10, 79, 0
14, 60090, Note_on_c, 10, 79, 100
14, 60105, Note_on_c, 10, 79, 0
14, 60120, Note_on_c, 10, 79, 100
14, 60135, Note_on_c, 10, 79, 0
14, 60150, Note_on_c, 10, 81, 100
14, 60180, Note_on_c, 10, 81, 0
14, 60480, Note_on_c, 10, 79, 100
14, 60495, Note_on_c, 10, 79, 0
14, 60510, Note_on_c, 10, 79, 100
14, 60525, Note_on_c, 10, 79, 0
14, 60540, Note_on_c, 10, 79, 100
14, 60555, Note_on_c, 10, 79, 0
14, 60570, Note_on_c, 10, 79, 100
14, 60585, Note_on_c, 10, 79, 0
14, 60600, Note_on_c, 10, 79, 100
14, 60615, Note_on_c, 10, 79, 0
14, 60630, Note_on_c, 10, 81, 100
14, 60660, Note_on_c, 10, 81, 0
14, 60960, Note_on_c, 10, 77, 100
14, 60990, Note_on_c, 10, 77, 0
14, 60990, Note_on_c, 10, 81, 100
14, 61020, Note_on_c, 10, 81, 0
14, 61020, Note_on_c, 10, 84, 100
14, 61050, Note_on_c, 10, 84, 0
14, 61050, Note_on_c, 10, 89, 100
14, 61080, Note_on_c, 10, 89, 0
14, 61080, Note_on_c, 10, 77, 100
14, 61110, Note_on_c, 10, 77, 0
14, 61110, Note_on_c, 10, 81, 100
14, 61140, Note_on_c, 10, 81, 0
14, 61140, Note_on_c, 10, 84, 100
14, 61170, Note_on_c, 10, 84, 0
14, 61170, Note_on_c, 10, 89, 100
14, 61200, Note_on_c, 10, 89, 0
14, 61200, Note_on_c, 10, 80, 100
14, 61230, Note_on_c, 10, 80, 0
14, 61230, Note_on_c, 10, 83, 100
14, 61260, Note_on_c, 10, 83, 0
14, 61260, Note_on_c, 10, 88, 100
14, 61290, Note_on_c, 10, 88, 0
14, 61290, Note_on_c, 10, 92, 100
14, 61320, Note_on_c, 10, 92, 0
14, 61320, Note_on_c, 10, 80, 100
14, 61350, Note_on_c, 10, 80, 0
14, 61350, Note_on_c, 10, 83, 100
14, 61380, Note_on_c, 10, 83, 0
14, 61380, Note_on_c, 10, 88, 100
14, 61410, Note_on_c, 10, 88, 0
14, 61410, Note_on_c, 10, 92, 100
14, 61440, Note_on_c, 10, 92, 0
14, 61440, Note_on_c, 10, 79, 100
14, 61455, Note_on_c, 10, 79, 0
14, 61470, Note_on_c, 10, 79, 100
14, 61485, Note_on_c, 10, 79, 0
14, 61500, Note_on_c, 10, 79, 100
14, 61515, Note_on_c, 10, 79, 0
14, 61530, Note_on_c, 10, 79, 100
14, 61545, Note_on_c, 10, 79, 0
14, 61560, Note_on_c, 10, 79, 100
14, 61575, Note_on_c, 10, 79, 0
14, 61590, Note_on_c, 10, 81, 100
14, 61620, Note_on_c, 10, 81, 0
14, 61920, Note_on_c, 10, 79, 100
14, 61935, Note_on_c, 10, 79, 0
14, 61950, Note_on_c, 10, 79, 100
14, 61965, Note_on_c, 10, 79, 0
14, 61980, Note_on_c, 10, 79, 100
14, 61995, Note_on_c, 10, 79, 0
14, 62010, Note_on_c, 10, 79, 100
14, 62025, Note_on_c, 10, 79, 0
14, 62040, Note_on_c, 10, 79, 100
14, 62055, Note_on_c, 10, 79, 0
14, 62070, Note_on_c, 10, 81, 100
14, 62100, Note_on_c, 10, 81, 0
14, 62400, Note_on_c, 10, 79, 100
14, 62415, Note_on_c, 10, 79, 0
14, 62430, Note_on_c, 10, 79, 100
14, 62445, Note_on_c, 10, 79, 0
14, 62460, Note_on_c, 10, 79, 100
14, 62475, Note_on_c, 10, 79, 0
14, 62490, Note_on_c, 10, 79, 100
14, 62505, Note_on_c, 10, 79, 0
14, 62520, Note_on_c, 10, 79, 100
14, 62535, Note_on_c, 10, 79, 0
14, 62550, Note_on_c, 10, 81, 100
14, 62580, Note_on_c, 10, 81, 0
14, 62880, Note_on_c, 10, 77, 100
14, 62910, Note_on_c, 10, 77, 0
14, 62910, Note_on_c, 10, 81, 100
14, 62940, Note_on_c, 10, 81, 0
14, 62940, Note_on_c, 10, 84, 100
14, 62970, Note_on_c, 10, 84, 0
14, 62970, Note_on_c, 10, 89, 100
14, 63000, Note_on_c, 10, 89, 0
14, 63000, Note_on_c, 10, 77, 100
14, 63030, Note_on_c, 10, 77, 0
14, 63030, Note_on_c, 10, 81, 100
14, 63060, Note_on_c, 10, 81, 0
14, 63060, Note_on_c, 10, 84, 100
14, 63090, Note_on_c, 10, 84, 0
14, 63090, Note_on_c, 10, 89, 100
14, 63120, Note_on_c, 10, 89, 0
14, 63120, Note_on_c, 10, 80, 100
14, 63150, Note_on_c, 10, 80, 0
14, 63150, Note_on_c, 10, 83, 100
14, 63180, Note_on_c, 10, 83, 0
14, 63180, Note_on_c, 10, 88, 100
14, 63210, Note_on_c, 10, 88, 0
14, 63210, Note_on_c, 10, 92, 100
14, 63240, Note_on_c, 10, 92, 0
14, 63240, Note_on_c, 10, 80, 100
14, 63270, Note_on_c, 10, 80, 0
14, 63270, Note_on_c, 10, 83, 100
14, 63300, Note_on_c, 10, 83, 0
14, 63300, Note_on_c, 10, 88, 100
14, 63330, Note_on_c, 10, 88, 0
14, 63330, Note_on_c, 10, 92, 100
14, 63360, Note_on_c, 10, 92, 0
14, 63360, Note_on_c, 10, 79, 100
14, 63375, Note_on_c, 10, 79, 0
14, 63390, Note_on_c, 10, 79, 100
14, 63405, Note_on_c, 10, 79, 0
14, 63420, Note_on_c, 10, 79, 100
14, 63435, Note_on_c, 10, 79, 0
14, 63450, Note_on_c, 10, 79, 100
14, 63465, Note_on_c, 10, 79, 0
14, 63480, Note_on_c, 10, 79, 100
14, 63510, Note_on_c, 10, 81, 100
14, 63531, Note_on_c, 10, 79, 0
14, 63540, Note_on_c, 10, 81, 0
14, 63840, Note_on_c, 10, 79, 100
14, 63855, Note_on_c, 10, 79, 0
14, 63870, Note_on_c, 10, 79, 100
14, 63885, Note_on_c, 10, 79, 0
14, 63900, Note_on_c, 10, 79, 100
14, 63915, Note_on_c, 10, 79, 0
14, 63930, Note_on_c, 10, 79, 100
14, 63945, Note_on_c, 10, 79, 0
14, 63960, Note_on_c, 10, 79, 100
14, 63975, Note_on_c, 10, 79, 0
14, 63990, Note_on_c, 10, 81, 100
14, 64020, Note_on_c, 10, 81, 0
14, 64320, Note_on_c, 10, 79, 100
14, 64335, Note_on_c, 10, 79, 0
14, 64350, Note_on_c, 10, 79, 100
14, 64365, Note_on_c, 10, 79, 0
14, 64380, Note_on_c, 10, 79, 100
14, 64395, Note_on_c, 10, 79, 0
14, 64410, Note_on_c, 10, 79, 100
14, 64425, Note_on_c, 10, 79, 0
14, 64440, Note_on_c, 10, 79, 100
14, 64455, Note_on_c, 10, 79, 0
14, 64470, Note_on_c, 10, 81, 100
14, 64500, Note_on_c, 10, 81, 0
14, 64800, Note_on_c, 10, 77, 100
14, 64830, Note_on_c, 10, 77, 0
14, 64830, Note_on_c, 10, 81, 100
14, 64860, Note_on_c, 10, 81, 0
14, 64860, Note_on_c, 10, 84, 100
14, 64890, Note_on_c, 10, 84, 0
14, 64890, Note_on_c, 10, 89, 100
14, 64920, Note_on_c, 10, 89, 0
14, 64920, Note_on_c, 10, 77, 100
14, 64950, Note_on_c, 10, 77, 0
14, 64950, Note_on_c, 10, 81, 100
14, 64980, Note_on_c, 10, 81, 0
14, 64980, Note_on_c, 10, 84, 100
14, 65010, Note_on_c, 10, 84, 0
14, 65010, Note_on_c, 10, 89, 100
14, 65040, Note_on_c, 10, 89, 0
14, 65040, Note_on_c, 10, 80, 100
14, 65070, Note_on_c, 10, 80, 0
14, 65070, Note_on_c, 10, 83, 100
14, 65100, Note_on_c, 10, 83, 0
14, 65100, Note_on_c, 10, 88, 100
14, 65130, Note_on_c, 10, 88, 0
14, 65130, Note_on_c, 10, 92, 100
14, 65160, Note_on_c, 10, 92, 0
14, 65160, Note_on_c, 10, 80, 100
14, 65190, Note_on_c, 10, 80, 0
14, 65190, Note_on_c, 10, 83, 100
14, 65220, Note_on_c, 10, 83, 0
14, 65220, Note_on_c, 10, 88, 100
14, 65250, Note_on_c, 10, 88, 0
14, 65250, Note_on_c, 10, 92, 100
14, 65280, Note_on_c, 10, 92, 0
14, 65280, Note_on_c, 10, 79, 100
14, 65295, Note_on_c, 10, 79, 0
14, 65310, Note_on_c, 10, 79, 100
14, 65325, Note_on_c, 10, 79, 0
14, 65340, Note_on_c, 10, 79, 100
14, 65355, Note_on_c, 10, 79, 0
14, 65370, Note_on_c, 10, 79, 100
14, 65385, Note_on_c, 10, 79, 0
14, 65400, Note_on_c, 10, 79, 100
14, 65415, Note_on_c, 10, 79, 0
14, 65430, Note_on_c, 10, 81, 100
14, 65460, Note_on_c, 10, 81, 0
14, 65760, Note_on_c, 10, 79, 100
14, 65775, Note_on_c, 10, 79, 0
14, 65790, Note_on_c, 10, 79, 100
14, 65805, Note_on_c, 10, 79, 0
14, 65820, Note_on_c, 10, 79, 100
14, 65835, Note_on_c, 10, 79, 0
14, 65850, Note_on_c, 10, 79, 100
14, 65880, Note_on_c, 10, 79, 100
14, 65895, Note_on_c, 10, 79, 0
14, 65901, Note_on_c, 10, 79, 0
14, 65910, Note_on_c, 10, 81, 100
14, 65940, Note_on_c, 10, 81, 0
14, 66240, Note_on_c, 10, 79, 100
14, 66255, Note_on_c, 10, 79, 0
14, 66270, Note_on_c, 10, 79, 100
14, 66285, Note_on_c, 10, 79, 0
14, 66300, Note_on_c, 10, 79, 100
14, 66315, Note_on_c, 10, 79, 0
14, 66330, Note_on_c, 10, 79, 100
14, 66345, Note_on_c, 10, 79, 0
14, 66360, Note_on_c, 10, 79, 100
14, 66375, Note_on_c, 10, 79, 0
14, 66390, Note_on_c, 10, 81, 100
14, 66420, Note_on_c, 10, 81, 0
14, 66720, Note_on_c, 10, 77, 100
14, 66750, Note_on_c, 10, 77, 0
14, 66750, Note_on_c, 10, 81, 100
14, 66780, Note_on_c, 10, 81, 0
14, 66780, Note_on_c, 10, 84, 100
14, 66810, Note_on_c, 10, 84, 0
14, 66810, Note_on_c, 10, 89, 100
14, 66840, Note_on_c, 10, 89, 0
14, 66840, Note_on_c, 10, 77, 100
14, 66870, Note_on_c, 10, 77, 0
14, 66870, Note_on_c, 10, 81, 100
14, 66900, Note_on_c, 10, 81, 0
14, 66900, Note_on_c, 10, 84, 100
14, 66930, Note_on_c, 10, 84, 0
14, 66930, Note_on_c, 10, 89, 100
14, 66960, Note_on_c, 10, 89, 0
14, 66960, Note_on_c, 10, 80, 100
14, 66990, Note_on_c, 10, 80, 0
14, 66990, Note_on_c, 10, 83, 100
14, 67020, Note_on_c, 10, 83, 0
14, 67020, Note_on_c, 10, 88, 100
14, 67050, Note_on_c, 10, 88, 0
14, 67050, Note_on_c, 10, 92, 100
14, 67080, Note_on_c, 10, 92, 0
14, 67080, Note_on_c, 10, 80, 100
14, 67110, Note_on_c, 10, 80, 0
14, 67110, Note_on_c, 10, 83, 100
14, 67140, Note_on_c, 10, 83, 0
14, 67140, Note_on_c, 10, 88, 100
14, 67170, Note_on_c, 10, 88, 0
14, 67170, Note_on_c, 10, 92, 100
14, 67200, Note_on_c, 10, 92, 0
14, 75360, Note_on_c, 10, 79, 100
14, 75375, Note_on_c, 10, 79, 0
14, 75390, Note_on_c, 10, 79, 100
14, 75405, Note_on_c, 10, 79, 0
14, 75420, Note_on_c, 10, 79, 100
14, 75435, Note_on_c, 10, 79, 0
14, 75450, Note_on_c, 10, 79, 100
14, 75465, Note_on_c, 10, 79, 0
14, 75480, Note_on_c, 10, 79, 100
14, 75495, Note_on_c, 10, 79, 0
14, 75510, Note_on_c, 10, 81, 100
14, 75540, Note_on_c, 10, 81, 0
14, 75840, Note_on_c, 10, 79, 100
14, 75855, Note_on_c, 10, 79, 0
14, 75870, Note_on_c, 10, 79, 100
14, 75885, Note_on_c, 10, 79, 0
14, 75900, Note_on_c, 10, 79, 100
14, 75915, Note_on_c, 10, 79, 0
14, 75930, Note_on_c, 10, 79, 100
14, 75945, Note_on_c, 10, 79, 0
14, 75960, Note_on_c, 10, 79, 100
14, 75975, Note_on_c, 10, 79, 0
14, 75990, Note_on_c, 10, 81, 100
14, 76020, Note_on_c, 10, 81, 0
14, 76320, Note_on_c, 10, 79, 100
14, 76335, Note_on_c, 10, 79, 0
14, 76350, Note_on_c, 10, 79, 100
14, 76365, Note_on_c, 10, 79, 0
14, 76380, Note_on_c, 10, 79, 100
14, 76395, Note_on_c, 10, 79, 0
14, 76410, Note_on_c, 10, 79, 100
14, 76425, Note_on_c, 10, 79, 0
14, 76440, Note_on_c, 10, 79, 100
14, 76455, Note_on_c, 10, 79, 0
14, 76470, Note_on_c, 10, 81, 100
14, 76500, Note_on_c, 10, 81, 0
14, 76800, Note_on_c, 10, 77, 100
14, 76830, Note_on_c, 10, 77, 0
14, 76830, Note_on_c, 10, 81, 100
14, 76860, Note_on_c, 10, 81, 0
14, 76860, Note_on_c, 10, 84, 100
14, 76890, Note_on_c, 10, 84, 0
14, 76890, Note_on_c, 10, 89, 100
14, 76920, Note_on_c, 10, 89, 0
14, 76920, Note_on_c, 10, 77, 100
14, 76950, Note_on_c, 10, 77, 0
14, 76950, Note_on_c, 10, 81, 100
14, 76980, Note_on_c, 10, 81, 0
14, 76980, Note_on_c, 10, 84, 100
14, 77010, Note_on_c, 10, 84, 0
14, 77010, Note_on_c, 10, 89, 100
14, 77040, Note_on_c, 10, 89, 0
14, 77040, Note_on_c, 10, 80, 100
14, 77070, Note_on_c, 10, 80, 0
14, 77070, Note_on_c, 10, 83, 100
14, 77100, Note_on_c, 10, 83, 0
14, 77100, Note_on_c, 10, 88, 100
14, 77130, Note_on_c, 10, 88, 0
14, 77130, Note_on_c, 10, 92, 100
14, 77160, Note_on_c, 10, 92, 0
14, 77160, Note_on_c, 10, 80, 100
14, 77190, Note_on_c, 10, 80, 0
14, 77190, Note_on_c, 10, 83, 100
14, 77220, Note_on_c, 10, 83, 0
14, 77220, Note_on_c, 10, 88, 100
14, 77250, Note_on_c, 10, 88, 0
14, 77250, Note_on_c, 10, 92, 100
14, 77280, Note_on_c, 10, 92, 0
14, 86880, Note_on_c, 10, 79, 100
14, 86895, Note_on_c, 10, 79, 0
14, 86910, Note_on_c, 10, 79, 100
14, 86925, Note_on_c, 10, 79, 0
14, 86940, Note_on_c, 10, 79, 100
14, 86955, Note_on_c, 10, 79, 0
14, 86970, Note_on_c, 10, 79, 100
14, 86985, Note_on_c, 10, 79, 0
14, 87000, Note_on_c, 10, 79, 100
14, 87015, Note_on_c, 10, 79, 0
14, 87030, Note_on_c, 10, 81, 100
14, 87060, Note_on_c, 10, 81, 0
14, 87360, Note_on_c, 10, 79, 100
14, 87375, Note_on_c, 10, 79, 0
14, 87390, Note_on_c, 10, 79, 100
14, 87405, Note_on_c, 10, 79, 0
14, 87420, Note_on_c, 10, 79, 100
14, 87435, Note_on_c, 10, 79, 0
14, 87450, Note_on_c, 10, 79, 100
14, 87465, Note_on_c, 10, 79, 0
14, 87480, Note_on_c, 10, 79, 100
14, 87495, Note_on_c, 10, 79, 0
14, 87510, Note_on_c, 10, 81, 100
14, 87540, Note_on_c, 10, 81, 0
14, 87840, Note_on_c, 10, 79, 100
14, 87855, Note_on_c, 10, 79, 0
14, 87870, Note_on_c, 10, 79, 100
14, 87885, Note_on_c, 10, 79, 0
14, 87900, Note_on_c, 10, 79, 100
14, 87915, Note_on_c, 10, 79, 0
14, 87930, Note_on_c, 10, 79, 100
14, 87945, Note_on_c, 10, 79, 0
14, 87960, Note_on_c, 10, 79, 100
14, 87975, Note_on_c, 10, 79, 0
14, 87990, Note_on_c, 10, 81, 100
14, 88020, Note_on_c, 10, 81, 0
14, 88320, Note_on_c, 10, 77, 100
14, 88350, Note_on_c, 10, 77, 0
14, 88350, Note_on_c, 10, 81, 100
14, 88380, Note_on_c, 10, 81, 0
14, 88380, Note_on_c, 10, 84, 100
14, 88410, Note_on_c, 10, 84, 0
14, 88410, Note_on_c, 10, 89, 100
14, 88440, Note_on_c, 10, 89, 0
14, 88440, Note_on_c, 10, 77, 100
14, 88470, Note_on_c, 10, 77, 0
14, 88470, Note_on_c, 10, 81, 100
14, 88500, Note_on_c, 10, 81, 0
14, 88500, Note_on_c, 10, 84, 100
14, 88530, Note_on_c, 10, 84, 0
14, 88530, Note_on_c, 10, 89, 100
14, 88560, Note_on_c, 10, 89, 0
14, 88560, Note_on_c, 10, 80, 100
14, 88590, Note_on_c, 10, 80, 0
14, 88590, Note_on_c, 10, 83, 100
14, 88620, Note_on_c, 10, 83, 0
14, 88620, Note_on_c, 10, 88, 100
14, 88650, Note_on_c, 10, 88, 0
14, 88650, Note_on_c, 10, 92, 100
14, 88680, Note_on_c, 10, 92, 0
14, 88680, Note_on_c, 10, 80, 100
14, 88710, Note_on_c, 10, 80, 0
14, 88710, Note_on_c, 10, 83, 100
14, 88740, Note_on_c, 10, 83, 0
14, 88740, Note_on_c, 10, 88, 100
14, 88770, Note_on_c, 10, 88, 0
14, 88770, Note_on_c, 10, 92, 100
14, 88800, Note_on_c, 10, 92, 0
14, 88800, End_track
15, 0, Start_track
15, 0, MIDI_port, 0
15, 0, Title_t, "Organ"
15, 0, Control_c, 11, 0, 0
15, 0, Program_c, 11, 17
15, 0, Control_c, 11, 7, 127
15, 0, Control_c, 11, 10, 64
15, 0, Control_c, 11, 121, 0
15, 0, Control_c, 11, 91, 127
15, 17760, Note_on_c, 11, 79, 100
15, 17798, Control_c, 11, 7, 126
15, 17808, Control_c, 11, 7, 124
15, 17824, Control_c, 11, 7, 123
15, 17828, Control_c, 11, 7, 122
15, 17840, Control_c, 11, 7, 120
15, 17848, Control_c, 11, 7, 119
15, 17852, Control_c, 11, 7, 118
15, 17864, Control_c, 11, 7, 116
15, 17888, Control_c, 11, 7, 115
15, 17902, Control_c, 11, 7, 114
15, 17916, Control_c, 11, 7, 113
15, 17924, Control_c, 11, 7, 112
15, 17942, Control_c, 11, 7, 111
15, 17950, Control_c, 11, 7, 110
15, 17954, Control_c, 11, 7, 109
15, 17964, Control_c, 11, 7, 108
15, 17998, Control_c, 11, 7, 107
15, 18008, Control_c, 11, 7, 106
15, 18016, Control_c, 11, 7, 105
15, 18022, Control_c, 11, 7, 104
15, 18054, Control_c, 11, 7, 103
15, 18062, Control_c, 11, 7, 102
15, 18078, Control_c, 11, 7, 101
15, 18092, Control_c, 11, 7, 100
15, 18106, Control_c, 11, 7, 98
15, 18118, Control_c, 11, 7, 96
15, 18144, Control_c, 11, 7, 94
15, 18152, Control_c, 11, 7, 93
15, 18168, Control_c, 11, 7, 92
15, 18178, Control_c, 11, 7, 91
15, 18184, Control_c, 11, 7, 90
15, 18202, Control_c, 11, 7, 89
15, 18204, Control_c, 11, 7, 88
15, 18222, Control_c, 11, 7, 86
15, 18240, Control_c, 11, 7, 85
15, 18244, Control_c, 11, 7, 84
15, 18268, Control_c, 11, 7, 83
15, 18270, Control_c, 11, 7, 82
15, 18284, Control_c, 11, 7, 81
15, 18290, Control_c, 11, 7, 80
15, 18310, Control_c, 11, 7, 79
15, 18318, Control_c, 11, 7, 78
15, 18326, Control_c, 11, 7, 77
15, 18338, Control_c, 11, 7, 76
15, 18364, Control_c, 11, 7, 74
15, 18380, Control_c, 11, 7, 72
15, 18396, Control_c, 11, 7, 71
15, 18402, Control_c, 11, 7, 70
15, 18418, Control_c, 11, 7, 68
15, 18430, Control_c, 11, 7, 67
15, 18438, Control_c, 11, 7, 66
15, 18448, Control_c, 11, 7, 65
15, 18456, Control_c, 11, 7, 64
15, 18472, Control_c, 11, 7, 62
15, 18482, Control_c, 11, 7, 60
15, 18500, Control_c, 11, 7, 59
15, 18512, Control_c, 11, 7, 56
15, 18538, Control_c, 11, 7, 55
15, 18552, Control_c, 11, 7, 52
15, 18580, Control_c, 11, 7, 50
15, 18612, Control_c, 11, 7, 48
15, 18660, Control_c, 11, 7, 47
15, 18670, Control_c, 11, 7, 46
15, 18700, Control_c, 11, 7, 45
15, 18716, Control_c, 11, 7, 44
15, 18736, Control_c, 11, 7, 43
15, 18748, Control_c, 11, 7, 41
15, 18764, Control_c, 11, 7, 38
15, 18772, Control_c, 11, 7, 36
15, 18778, Control_c, 11, 7, 34
15, 18790, Control_c, 11, 7, 31
15, 18800, Control_c, 11, 7, 29
15, 18806, Control_c, 11, 7, 28
15, 18816, Control_c, 11, 7, 27
15, 18818, Control_c, 11, 7, 26
15, 18830, Control_c, 11, 7, 25
15, 18834, Control_c, 11, 7, 24
15, 18854, Control_c, 11, 7, 23
15, 18862, Control_c, 11, 7, 22
15, 18876, Control_c, 11, 7, 20
15, 18892, Control_c, 11, 7, 18
15, 18910, Control_c, 11, 7, 14
15, 18920, Control_c, 11, 7, 8
15, 18930, Control_c, 11, 7, 7
15, 18937, Control_c, 11, 7, 5
15, 18950, Control_c, 11, 7, 3
15, 18967, Control_c, 11, 7, 1
15, 19200, Note_on_c, 11, 79, 0
15, 19202, Control_c, 11, 7, 127
15, 19680, Note_on_c, 11, 79, 100
15, 19682, Control_c, 11, 7, 127
15, 19718, Control_c, 11, 7, 126
15, 19728, Control_c, 11, 7, 124
15, 19744, Control_c, 11, 7, 123
15, 19748, Control_c, 11, 7, 122
15, 19760, Control_c, 11, 7, 120
15, 19768, Control_c, 11, 7, 119
15, 19772, Control_c, 11, 7, 118
15, 19784, Control_c, 11, 7, 116
15, 19808, Control_c, 11, 7, 115
15, 19822, Control_c, 11, 7, 114
15, 19836, Control_c, 11, 7, 113
15, 19844, Control_c, 11, 7, 112
15, 19862, Control_c, 11, 7, 111
15, 19870, Control_c, 11, 7, 110
15, 19874, Control_c, 11, 7, 109
15, 19884, Control_c, 11, 7, 108
15, 19918, Control_c, 11, 7, 107
15, 19928, Control_c, 11, 7, 106
15, 19936, Control_c, 11, 7, 105
15, 19942, Control_c, 11, 7, 104
15, 19974, Control_c, 11, 7, 103
15, 19982, Control_c, 11, 7, 102
15, 19998, Control_c, 11, 7, 101
15, 20012, Control_c, 11, 7, 100
15, 20026, Control_c, 11, 7, 98
15, 20038, Control_c, 11, 7, 96
15, 20064, Control_c, 11, 7, 94
15, 20072, Control_c, 11, 7, 93
15, 20088, Control_c, 11, 7, 92
15, 20098, Control_c, 11, 7, 91
15, 20104, Control_c, 11, 7, 90
15, 20122, Control_c, 11, 7, 89
15, 20124, Control_c, 11, 7, 88
15, 20142, Control_c, 11, 7, 86
15, 20160, Control_c, 11, 7, 85
15, 20164, Control_c, 11, 7, 84
15, 20188, Control_c, 11, 7, 83
15, 20190, Control_c, 11, 7, 82
15, 20204, Control_c, 11, 7, 81
15, 20210, Control_c, 11, 7, 80
15, 20230, Control_c, 11, 7, 79
15, 20238, Control_c, 11, 7, 78
15, 20246, Control_c, 11, 7, 77
15, 20258, Control_c, 11, 7, 76
15, 20284, Control_c, 11, 7, 74
15, 20300, Control_c, 11, 7, 72
15, 20316, Control_c, 11, 7, 71
15, 20322, Control_c, 11, 7, 70
15, 20338, Control_c, 11, 7, 68
15, 20350, Control_c, 11, 7, 67
15, 20358, Control_c, 11, 7, 66
15, 20368, Control_c, 11, 7, 65
15, 20376, Control_c, 11, 7, 64
15, 20392, Control_c, 11, 7, 62
15, 20402, Control_c, 11, 7, 60
15, 20420, Control_c, 11, 7, 59
15, 20432, Control_c, 11, 7, 56
15, 20458, Control_c, 11, 7, 55
15, 20472, Control_c, 11, 7, 52
15, 20500, Control_c, 11, 7, 50
15, 20532, Control_c, 11, 7, 48
15, 20580, Control_c, 11, 7, 47
15, 20590, Control_c, 11, 7, 46
15, 20620, Control_c, 11, 7, 45
15, 20636, Control_c, 11, 7, 44
15, 20656, Control_c, 11, 7, 43
15, 20668, Control_c, 11, 7, 41
15, 20684, Control_c, 11, 7, 38
15, 20692, Control_c, 11, 7, 36
15, 20698, Control_c, 11, 7, 34
15, 20710, Control_c, 11, 7, 31
15, 20720, Control_c, 11, 7, 29
15, 20726, Control_c, 11, 7, 28
15, 20736, Control_c, 11, 7, 27
15, 20738, Control_c, 11, 7, 26
15, 20750, Control_c, 11, 7, 25
15, 20754, Control_c, 11, 7, 24
15, 20774, Control_c, 11, 7, 23
15, 20782, Control_c, 11, 7, 22
15, 20796, Control_c, 11, 7, 20
15, 20812, Control_c, 11, 7, 18
15, 20830, Control_c, 11, 7, 14
15, 20840, Control_c, 11, 7, 8
15, 20850, Control_c, 11, 7, 7
15, 20857, Control_c, 11, 7, 5
15, 20870, Control_c, 11, 7, 3
15, 20887, Control_c, 11, 7, 1
15, 21120, Note_on_c, 11, 79, 0
15, 21122, Control_c, 11, 7, 127
15, 31680, Note_on_c, 11, 79, 100
15, 31682, Control_c, 11, 7, 127
15, 31718, Control_c, 11, 7, 126
15, 31728, Control_c, 11, 7, 124
15, 31744, Control_c, 11, 7, 123
15, 31748, Control_c, 11, 7, 122
15, 31760, Control_c, 11, 7, 120
15, 31768, Control_c, 11, 7, 119
15, 31772, Control_c, 11, 7, 118
15, 31784, Control_c, 11, 7, 116
15, 31808, Control_c, 11, 7, 115
15, 31822, Control_c, 11, 7, 114
15, 31836, Control_c, 11, 7, 113
15, 31844, Control_c, 11, 7, 112
15, 31862, Control_c, 11, 7, 111
15, 31870, Control_c, 11, 7, 110
15, 31874, Control_c, 11, 7, 109
15, 31884, Control_c, 11, 7, 108
15, 31918, Control_c, 11, 7, 107
15, 31928, Control_c, 11, 7, 106
15, 31936, Control_c, 11, 7, 105
15, 31942, Control_c, 11, 7, 104
15, 31974, Control_c, 11, 7, 103
15, 31982, Control_c, 11, 7, 102
15, 31998, Control_c, 11, 7, 101
15, 32012, Control_c, 11, 7, 100
15, 32026, Control_c, 11, 7, 98
15, 32038, Control_c, 11, 7, 96
15, 32064, Control_c, 11, 7, 94
15, 32072, Control_c, 11, 7, 93
15, 32088, Control_c, 11, 7, 92
15, 32098, Control_c, 11, 7, 91
15, 32104, Control_c, 11, 7, 90
15, 32122, Control_c, 11, 7, 89
15, 32124, Control_c, 11, 7, 88
15, 32142, Control_c, 11, 7, 86
15, 32160, Control_c, 11, 7, 85
15, 32164, Control_c, 11, 7, 84
15, 32188, Control_c, 11, 7, 83
15, 32190, Control_c, 11, 7, 82
15, 32204, Control_c, 11, 7, 81
15, 32210, Control_c, 11, 7, 80
15, 32230, Control_c, 11, 7, 79
15, 32238, Control_c, 11, 7, 78
15, 32246, Control_c, 11, 7, 77
15, 32258, Control_c, 11, 7, 76
15, 32284, Control_c, 11, 7, 74
15, 32300, Control_c, 11, 7, 72
15, 32316, Control_c, 11, 7, 71
15, 32322, Control_c, 11, 7, 70
15, 32338, Control_c, 11, 7, 68
15, 32350, Control_c, 11, 7, 67
15, 32358, Control_c, 11, 7, 66
15, 32368, Control_c, 11, 7, 65
15, 32376, Control_c, 11, 7, 64
15, 32392, Control_c, 11, 7, 62
15, 32402, Control_c, 11, 7, 60
15, 32420, Control_c, 11, 7, 59
15, 32432, Control_c, 11, 7, 56
15, 32458, Control_c, 11, 7, 55
15, 32472, Control_c, 11, 7, 52
15, 32500, Control_c, 11, 7, 50
15, 32532, Control_c, 11, 7, 48
15, 32580, Control_c, 11, 7, 47
15, 32590, Control_c, 11, 7, 46
15, 32620, Control_c, 11, 7, 45
15, 32636, Control_c, 11, 7, 44
15, 32656, Control_c, 11, 7, 43
15, 32668, Control_c, 11, 7, 41
15, 32684, Control_c, 11, 7, 38
15, 32692, Control_c, 11, 7, 36
15, 32698, Control_c, 11, 7, 34
15, 32710, Control_c, 11, 7, 31
15, 32720, Control_c, 11, 7, 29
15, 32726, Control_c, 11, 7, 28
15, 32736, Control_c, 11, 7, 27
15, 32738, Control_c, 11, 7, 26
15, 32750, Control_c, 11, 7, 25
15, 32754, Control_c, 11, 7, 24
15, 32774, Control_c, 11, 7, 23
15, 32782, Control_c, 11, 7, 22
15, 32796, Control_c, 11, 7, 20
15, 32812, Control_c, 11, 7, 18
15, 32830, Control_c, 11, 7, 14
15, 32840, Control_c, 11, 7, 8
15, 32850, Control_c, 11, 7, 7
15, 32857, Control_c, 11, 7, 5
15, 32870, Control_c, 11, 7, 3
15, 32887, Control_c, 11, 7, 1
15, 33120, Note_on_c, 11, 79, 0
15, 33122, Control_c, 11, 7, 127
15, 44160, Note_on_c, 11, 79, 100
15, 44162, Control_c, 11, 7, 127
15, 44198, Control_c, 11, 7, 126
15, 44208, Control_c, 11, 7, 124
15, 44224, Control_c, 11, 7, 123
15, 44228, Control_c, 11, 7, 122
15, 44240, Control_c, 11, 7, 120
15, 44248, Control_c, 11, 7, 119
15, 44252, Control_c, 11, 7, 118
15, 44264, Control_c, 11, 7, 116
15, 44288, Control_c, 11, 7, 115
15, 44302, Control_c, 11, 7, 114
15, 44316, Control_c, 11, 7, 113
15, 44324, Control_c, 11, 7, 112
15, 44342, Control_c, 11, 7, 111
15, 44350, Control_c, 11, 7, 110
15, 44354, Control_c, 11, 7, 109
15, 44364, Control_c, 11, 7, 108
15, 44398, Control_c, 11, 7, 107
15, 44408, Control_c, 11, 7, 106
15, 44416, Control_c, 11, 7, 105
15, 44422, Control_c, 11, 7, 104
15, 44454, Control_c, 11, 7, 103
15, 44462, Control_c, 11, 7, 102
15, 44478, Control_c, 11, 7, 101
15, 44492, Control_c, 11, 7, 100
15, 44506, Control_c, 11, 7, 98
15, 44518, Control_c, 11, 7, 96
15, 44544, Control_c, 11, 7, 94
15, 44552, Control_c, 11, 7, 93
15, 44568, Control_c, 11, 7, 92
15, 44578, Control_c, 11, 7, 91
15, 44584, Control_c, 11, 7, 90
15, 44602, Control_c, 11, 7, 89
15, 44604, Control_c, 11, 7, 88
15, 44622, Control_c, 11, 7, 86
15, 44640, Control_c, 11, 7, 85
15, 44644, Control_c, 11, 7, 84
15, 44668, Control_c, 11, 7, 83
15, 44670, Control_c, 11, 7, 82
15, 44684, Control_c, 11, 7, 81
15, 44690, Control_c, 11, 7, 80
15, 44710, Control_c, 11, 7, 79
15, 44718, Control_c, 11, 7, 78
15, 44726, Control_c, 11, 7, 77
15, 44738, Control_c, 11, 7, 76
15, 44764, Control_c, 11, 7, 74
15, 44780, Control_c, 11, 7, 72
15, 44796, Control_c, 11, 7, 71
15, 44802, Control_c, 11, 7, 70
15, 44818, Control_c, 11, 7, 68
15, 44830, Control_c, 11, 7, 67
15, 44838, Control_c, 11, 7, 66
15, 44848, Control_c, 11, 7, 65
15, 44856, Control_c, 11, 7, 64
15, 44872, Control_c, 11, 7, 62
15, 44882, Control_c, 11, 7, 60
15, 44900, Control_c, 11, 7, 59
15, 44912, Control_c, 11, 7, 56
15, 44938, Control_c, 11, 7, 55
15, 44952, Control_c, 11, 7, 52
15, 44980, Control_c, 11, 7, 50
15, 45012, Control_c, 11, 7, 48
15, 45060, Control_c, 11, 7, 47
15, 45070, Control_c, 11, 7, 46
15, 45100, Control_c, 11, 7, 45
15, 45116, Control_c, 11, 7, 44
15, 45136, Control_c, 11, 7, 43
15, 45148, Control_c, 11, 7, 41
15, 45164, Control_c, 11, 7, 38
15, 45172, Control_c, 11, 7, 36
15, 45178, Control_c, 11, 7, 34
15, 45190, Control_c, 11, 7, 31
15, 45200, Control_c, 11, 7, 29
15, 45206, Control_c, 11, 7, 28
15, 45216, Control_c, 11, 7, 27
15, 45218, Control_c, 11, 7, 26
15, 45230, Control_c, 11, 7, 25
15, 45234, Control_c, 11, 7, 24
15, 45254, Control_c, 11, 7, 23
15, 45262, Control_c, 11, 7, 22
15, 45276, Control_c, 11, 7, 20
15, 45292, Control_c, 11, 7, 18
15, 45310, Control_c, 11, 7, 14
15, 45320, Control_c, 11, 7, 8
15, 45330, Control_c, 11, 7, 7
15, 45337, Control_c, 11, 7, 5
15, 45350, Control_c, 11, 7, 3
15, 45367, Control_c, 11, 7, 1
15, 45600, Note_on_c, 11, 79, 0
15, 45602, Control_c, 11, 7, 127
15, 49920, Note_on_c, 11, 79, 100
15, 49922, Control_c, 11, 7, 127
15, 49958, Control_c, 11, 7, 126
15, 49968, Control_c, 11, 7, 124
15, 49984, Control_c, 11, 7, 123
15, 49988, Control_c, 11, 7, 122
15, 50000, Control_c, 11, 7, 120
15, 50008, Control_c, 11, 7, 119
15, 50012, Control_c, 11, 7, 118
15, 50024, Control_c, 11, 7, 116
15, 50048, Control_c, 11, 7, 115
15, 50062, Control_c, 11, 7, 114
15, 50076, Control_c, 11, 7, 113
15, 50084, Control_c, 11, 7, 112
15, 50102, Control_c, 11, 7, 111
15, 50110, Control_c, 11, 7, 110
15, 50114, Control_c, 11, 7, 109
15, 50124, Control_c, 11, 7, 108
15, 50158, Control_c, 11, 7, 107
15, 50168, Control_c, 11, 7, 106
15, 50176, Control_c, 11, 7, 105
15, 50182, Control_c, 11, 7, 104
15, 50214, Control_c, 11, 7, 103
15, 50222, Control_c, 11, 7, 102
15, 50238, Control_c, 11, 7, 101
15, 50252, Control_c, 11, 7, 100
15, 50266, Control_c, 11, 7, 98
15, 50278, Control_c, 11, 7, 96
15, 50304, Control_c, 11, 7, 94
15, 50312, Control_c, 11, 7, 93
15, 50328, Control_c, 11, 7, 92
15, 50338, Control_c, 11, 7, 91
15, 50344, Control_c, 11, 7, 90
15, 50362, Control_c, 11, 7, 89
15, 50364, Control_c, 11, 7, 88
15, 50382, Control_c, 11, 7, 86
15, 50400, Control_c, 11, 7, 85
15, 50404, Control_c, 11, 7, 84
15, 50428, Control_c, 11, 7, 83
15, 50430, Control_c, 11, 7, 82
15, 50444, Control_c, 11, 7, 81
15, 50450, Control_c, 11, 7, 80
15, 50470, Control_c, 11, 7, 79
15, 50478, Control_c, 11, 7, 78
15, 50486, Control_c, 11, 7, 77
15, 50498, Control_c, 11, 7, 76
15, 50524, Control_c, 11, 7, 74
15, 50540, Control_c, 11, 7, 72
15, 50556, Control_c, 11, 7, 71
15, 50562, Control_c, 11, 7, 70
15, 50578, Control_c, 11, 7, 68
15, 50590, Control_c, 11, 7, 67
15, 50598, Control_c, 11, 7, 66
15, 50608, Control_c, 11, 7, 65
15, 50616, Control_c, 11, 7, 64
15, 50632, Control_c, 11, 7, 62
15, 50642, Control_c, 11, 7, 60
15, 50660, Control_c, 11, 7, 59
15, 50672, Control_c, 11, 7, 56
15, 50698, Control_c, 11, 7, 55
15, 50712, Control_c, 11, 7, 52
15, 50740, Control_c, 11, 7, 50
15, 50772, Control_c, 11, 7, 48
15, 50820, Control_c, 11, 7, 47
15, 50830, Control_c, 11, 7, 46
15, 50860, Control_c, 11, 7, 45
15, 50876, Control_c, 11, 7, 44
15, 50896, Control_c, 11, 7, 43
15, 50908, Control_c, 11, 7, 41
15, 50924, Control_c, 11, 7, 38
15, 50932, Control_c, 11, 7, 36
15, 50938, Control_c, 11, 7, 34
15, 50950, Control_c, 11, 7, 31
15, 50960, Control_c, 11, 7, 29
15, 50966, Control_c, 11, 7, 28
15, 50976, Control_c, 11, 7, 27
15, 50978, Control_c, 11, 7, 26
15, 50990, Control_c, 11, 7, 25
15, 50994, Control_c, 11, 7, 24
15, 51014, Control_c, 11, 7, 23
15, 51022, Control_c, 11, 7, 22
15, 51036, Control_c, 11, 7, 20
15, 51052, Control_c, 11, 7, 18
15, 51070, Control_c, 11, 7, 14
15, 51080, Control_c, 11, 7, 8
15, 51090, Control_c, 11, 7, 7
15, 51097, Control_c, 11, 7, 5
15, 51110, Control_c, 11, 7, 3
15, 51127, Control_c, 11, 7, 1
15, 51360, Note_on_c, 11, 79, 0
15, 51362, Control_c, 11, 7, 127
15, 53760, Note_on_c, 11, 79, 100
15, 53762, Control_c, 11, 7, 127
15, 53798, Control_c, 11, 7, 126
15, 53808, Control_c, 11, 7, 124
15, 53824, Control_c, 11, 7, 123
15, 53828, Control_c, 11, 7, 122
15, 53840, Control_c, 11, 7, 120
15, 53848, Control_c, 11, 7, 119
15, 53852, Control_c, 11, 7, 118
15, 53864, Control_c, 11, 7, 116
15, 53888, Control_c, 11, 7, 115
15, 53902, Control_c, 11, 7, 114
15, 53916, Control_c, 11, 7, 113
15, 53924, Control_c, 11, 7, 112
15, 53942, Control_c, 11, 7, 111
15, 53950, Control_c, 11, 7, 110
15, 53954, Control_c, 11, 7, 109
15, 53964, Control_c, 11, 7, 108
15, 53998, Control_c, 11, 7, 107
15, 54008, Control_c, 11, 7, 106
15, 54016, Control_c, 11, 7, 105
15, 54022, Control_c, 11, 7, 104
15, 54054, Control_c, 11, 7, 103
15, 54062, Control_c, 11, 7, 102
15, 54078, Control_c, 11, 7, 101
15, 54092, Control_c, 11, 7, 100
15, 54106, Control_c, 11, 7, 98
15, 54118, Control_c, 11, 7, 96
15, 54144, Control_c, 11, 7, 94
15, 54152, Control_c, 11, 7, 93
15, 54168, Control_c, 11, 7, 92
15, 54178, Control_c, 11, 7, 91
15, 54184, Control_c, 11, 7, 90
15, 54202, Control_c, 11, 7, 89
15, 54204, Control_c, 11, 7, 88
15, 54222, Control_c, 11, 7, 86
15, 54240, Control_c, 11, 7, 85
15, 54244, Control_c, 11, 7, 84
15, 54268, Control_c, 11, 7, 83
15, 54270, Control_c, 11, 7, 82
15, 54284, Control_c, 11, 7, 81
15, 54290, Control_c, 11, 7, 80
15, 54310, Control_c, 11, 7, 79
15, 54318, Control_c, 11, 7, 78
15, 54326, Control_c, 11, 7, 77
15, 54338, Control_c, 11, 7, 76
15, 54364, Control_c, 11, 7, 74
15, 54380, Control_c, 11, 7, 72
15, 54396, Control_c, 11, 7, 71
15, 54402, Control_c, 11, 7, 70
15, 54418, Control_c, 11, 7, 68
15, 54430, Control_c, 11, 7, 67
15, 54438, Control_c, 11, 7, 66
15, 54448, Control_c, 11, 7, 65
15, 54456, Control_c, 11, 7, 64
15, 54472, Control_c, 11, 7, 62
15, 54482, Control_c, 11, 7, 60
15, 54500, Control_c, 11, 7, 59
15, 54512, Control_c, 11, 7, 56
15, 54538, Control_c, 11, 7, 55
15, 54552, Control_c, 11, 7, 52
15, 54580, Control_c, 11, 7, 50
15, 54612, Control_c, 11, 7, 48
15, 54660, Control_c, 11, 7, 47
15, 54670, Control_c, 11, 7, 46
15, 54700, Control_c, 11, 7, 45
15, 54716, Control_c, 11, 7, 44
15, 54736, Control_c, 11, 7, 43
15, 54748, Control_c, 11, 7, 41
15, 54764, Control_c, 11, 7, 38
15, 54772, Control_c, 11, 7, 36
15, 54778, Control_c, 11, 7, 34
15, 54790, Control_c, 11, 7, 31
15, 54800, Control_c, 11, 7, 29
15, 54806, Control_c, 11, 7, 28
15, 54816, Control_c, 11, 7, 27
15, 54818, Control_c, 11, 7, 26
15, 54830, Control_c, 11, 7, 25
15, 54834, Control_c, 11, 7, 24
15, 54854, Control_c, 11, 7, 23
15, 54862, Control_c, 11, 7, 22
15, 54876, Control_c, 11, 7, 20
15, 54892, Control_c, 11, 7, 18
15, 54910, Control_c, 11, 7, 14
15, 54920, Control_c, 11, 7, 8
15, 54930, Control_c, 11, 7, 7
15, 54937, Control_c, 11, 7, 5
15, 54950, Control_c, 11, 7, 3
15, 54967, Control_c, 11, 7, 1
15, 55200, Note_on_c, 11, 79, 0
15, 55202, Control_c, 11, 7, 127
15, 90720, Note_on_c, 11, 79, 100
15, 90722, Control_c, 11, 7, 127
15, 90758, Control_c, 11, 7, 126
15, 90768, Control_c, 11, 7, 124
15, 90784, Control_c, 11, 7, 123
15, 90788, Control_c, 11, 7, 122
15, 90800, Control_c, 11, 7, 120
15, 90808, Control_c, 11, 7, 119
15, 90812, Control_c, 11, 7, 118
15, 90824, Control_c, 11, 7, 116
15, 90848, Control_c, 11, 7, 115
15, 90862, Control_c, 11, 7, 114
15, 90876, Control_c, 11, 7, 113
15, 90884, Control_c, 11, 7, 112
15, 90902, Control_c, 11, 7, 111
15, 90910, Control_c, 11, 7, 110
15, 90914, Control_c, 11, 7, 109
15, 90924, Control_c, 11, 7, 108
15, 90958, Control_c, 11, 7, 107
15, 90968, Control_c, 11, 7, 106
15, 90976, Control_c, 11, 7, 105
15, 90982, Control_c, 11, 7, 104
15, 91014, Control_c, 11, 7, 103
15, 91022, Control_c, 11, 7, 102
15, 91038, Control_c, 11, 7, 101
15, 91052, Control_c, 11, 7, 100
15, 91066, Control_c, 11, 7, 98
15, 91078, Control_c, 11, 7, 96
15, 91104, Control_c, 11, 7, 94
15, 91112, Control_c, 11, 7, 93
15, 91128, Control_c, 11, 7, 92
15, 91138, Control_c, 11, 7, 91
15, 91144, Control_c, 11, 7, 90
15, 91162, Control_c, 11, 7, 89
15, 91164, Control_c, 11, 7, 88
15, 91182, Control_c, 11, 7, 86
15, 91200, Control_c, 11, 7, 85
15, 91204, Control_c, 11, 7, 84
15, 91228, Control_c, 11, 7, 83
15, 91230, Control_c, 11, 7, 82
15, 91244, Control_c, 11, 7, 81
15, 91250, Control_c, 11, 7, 80
15, 91270, Control_c, 11, 7, 79
15, 91278, Control_c, 11, 7, 78
15, 91286, Control_c, 11, 7, 77
15, 91298, Control_c, 11, 7, 76
15, 91324, Control_c, 11, 7, 74
15, 91340, Control_c, 11, 7, 72
15, 91356, Control_c, 11, 7, 71
15, 91362, Control_c, 11, 7, 70
15, 91378, Control_c, 11, 7, 68
15, 91390, Control_c, 11, 7, 67
15, 91398, Control_c, 11, 7, 66
15, 91408, Control_c, 11, 7, 65
15, 91416, Control_c, 11, 7, 64
15, 91432, Control_c, 11, 7, 62
15, 91442, Control_c, 11, 7, 60
15, 91460, Control_c, 11, 7, 59
15, 91472, Control_c, 11, 7, 56
15, 91498, Control_c, 11, 7, 55
15, 91512, Control_c, 11, 7, 52
15, 91540, Control_c, 11, 7, 50
15, 91572, Control_c, 11, 7, 48
15, 91620, Control_c, 11, 7, 47
15, 91630, Control_c, 11, 7, 46
15, 91660, Control_c, 11, 7, 45
15, 91676, Control_c, 11, 7, 44
15, 91696, Control_c, 11, 7, 43
15, 91708, Control_c, 11, 7, 41
15, 91724, Control_c, 11, 7, 38
15, 91732, Control_c, 11, 7, 36
15, 91738, Control_c, 11, 7, 34
15, 91750, Control_c, 11, 7, 31
15, 91760, Control_c, 11, 7, 29
15, 91766, Control_c, 11, 7, 28
15, 91776, Control_c, 11, 7, 27
15, 91778, Control_c, 11, 7, 26
15, 91790, Control_c, 11, 7, 25
15, 91794, Control_c, 11, 7, 24
15, 91814, Control_c, 11, 7, 23
15, 91822, Control_c, 11, 7, 22
15, 91836, Control_c, 11, 7, 20
15, 91852, Control_c, 11, 7, 18
15, 91870, Control_c, 11, 7, 14
15, 91880, Control_c, 11, 7, 8
15, 91890, Control_c, 11, 7, 7
15, 91897, Control_c, 11, 7, 5
15, 91910, Control_c, 11, 7, 3
15, 91927, Control_c, 11, 7, 1
15, 92160, Note_on_c, 11, 79, 0
15, 92162, Control_c, 11, 7, 127
15, 92162, End_track
16, 0, Start_track
16, 0, MIDI_port, 0
16, 0, Title_t, "Slap Bass"
16, 0, Control_c, 12, 0, 0
16, 0, Program_c, 12, 37
16, 0, Control_c, 12, 7, 127
16, 0, Control_c, 12, 10, 64
16, 0, Control_c, 12, 121, 0
16, 0, Control_c, 12, 91, 20
16, 40305, Note_on_c, 12, 33, 127
16, 40320, Note_on_c, 12, 31, 127
16, 40326, Note_on_c, 12, 33, 0
16, 40380, Note_on_c, 12, 33, 127
16, 40392, Note_on_c, 12, 31, 0
16, 40439, Note_on_c, 12, 33, 0
16, 40440, Note_on_c, 12, 36, 127
16, 40499, Note_on_c, 12, 36, 0
16, 40500, Note_on_c, 12, 38, 127
16, 40559, Note_on_c, 12, 38, 0
16, 40560, Note_on_c, 12, 33, 127
16, 40589, Note_on_c, 12, 33, 0
16, 40785, Note_on_c, 12, 33, 127
16, 40800, Note_on_c, 12, 31, 127
16, 40801, Control_c, 12, 1, 0
16, 40814, Note_on_c, 12, 33, 0
16, 40859, Note_on_c, 12, 31, 0
16, 40860, Note_on_c, 12, 33, 127
16, 40919, Note_on_c, 12, 33, 0
16, 40920, Note_on_c, 12, 36, 127
16, 40979, Note_on_c, 12, 36, 0
16, 40980, Note_on_c, 12, 38, 127
16, 41039, Note_on_c, 12, 38, 0
16, 41040, Note_on_c, 12, 40, 127
16, 41069, Note_on_c, 12, 40, 0
16, 41100, Note_on_c, 12, 43, 127
16, 41129, Note_on_c, 12, 43, 0
16, 41159, Control_c, 12, 1, 126
16, 41160, Note_on_c, 12, 38, 127
16, 41189, Note_on_c, 12, 38, 0
16, 41190, Note_on_c, 12, 36, 127
16, 41265, Note_on_c, 12, 33, 127
16, 41279, Note_on_c, 12, 36, 0
16, 41279, Control_c, 12, 1, 0
16, 41280, Note_on_c, 12, 31, 127
16, 41294, Note_on_c, 12, 33, 0
16, 41339, Note_on_c, 12, 31, 0
16, 41340, Note_on_c, 12, 33, 127
16, 41399, Note_on_c, 12, 33, 0
16, 41400, Note_on_c, 12, 36, 127
16, 41459, Note_on_c, 12, 36, 0
16, 41460, Note_on_c, 12, 38, 127
16, 41519, Note_on_c, 12, 38, 0
16, 41520, Note_on_c, 12, 33, 127
16, 41549, Note_on_c, 12, 33, 0
16, 41745, Note_on_c, 12, 33, 127
16, 41760, Note_on_c, 12, 31, 127
16, 41774, Note_on_c, 12, 33, 0
16, 41819, Note_on_c, 12, 31, 0
16, 41820, Note_on_c, 12, 33, 127
16, 41879, Note_on_c, 12, 33, 0
16, 41880, Note_on_c, 12, 36, 127
16, 41939, Note_on_c, 12, 36, 0
16, 41940, Note_on_c, 12, 38, 127
16, 41969, Note_on_c, 12, 38, 0
16, 41985, Note_on_c, 12, 43, 127
16, 42000, Note_on_c, 12, 45, 127
16, 42014, Note_on_c, 12, 43, 0
16, 42060, Note_on_c, 12, 45, 0
16, 42060, Note_on_c, 12, 43, 127
16, 42119, Note_on_c, 12, 43, 0
16, 42120, Note_on_c, 12, 40, 127
16, 42149, Note_on_c, 12, 40, 0
16, 42150, Note_on_c, 12, 38, 127
16, 42179, Note_on_c, 12, 38, 0
16, 42180, Note_on_c, 12, 36, 127
16, 42209, Note_on_c, 12, 36, 0
16, 42225, Note_on_c, 12, 33, 127
16, 42240, Note_on_c, 12, 31, 127
16, 42246, Note_on_c, 12, 33, 0
16, 42300, Note_on_c, 12, 33, 127
16, 42312, Note_on_c, 12, 31, 0
16, 42359, Note_on_c, 12, 33, 0
16, 42360, Note_on_c, 12, 36, 127
16, 42419, Note_on_c, 12, 36, 0
16, 42420, Note_on_c, 12, 38, 127
16, 42479, Note_on_c, 12, 38, 0
16, 42480, Note_on_c, 12, 33, 127
16, 42509, Note_on_c, 12, 33, 0
16, 42705, Note_on_c, 12, 33, 127
16, 42720, Note_on_c, 12, 31, 127
16, 42734, Note_on_c, 12, 33, 0
16, 42779, Note_on_c, 12, 31, 0
16, 42780, Note_on_c, 12, 33, 127
16, 42839, Note_on_c, 12, 33, 0
16, 42840, Note_on_c, 12, 36, 127
16, 42899, Note_on_c, 12, 36, 0
16, 42900, Note_on_c, 12, 38, 127
16, 42959, Note_on_c, 12, 38, 0
16, 42960, Note_on_c, 12, 40, 127
16, 42989, Note_on_c, 12, 40, 0
16, 43020, Note_on_c, 12, 43, 127
16, 43049, Note_on_c, 12, 43, 0
16, 43078, Control_c, 12, 1, 127
16, 43080, Note_on_c, 12, 38, 127
16, 43109, Note_on_c, 12, 38, 0
16, 43110, Note_on_c, 12, 36, 127
16, 43185, Note_on_c, 12, 33, 127
16, 43199, Note_on_c, 12, 36, 0
16, 43200, Note_on_c, 12, 31, 127
16, 43200, Control_c, 12, 1, 0
16, 43214, Note_on_c, 12, 33, 0
16, 43259, Note_on_c, 12, 31, 0
16, 43260, Note_on_c, 12, 33, 127
16, 43319, Note_on_c, 12, 33, 0
16, 43320, Note_on_c, 12, 36, 127
16, 43379, Note_on_c, 12, 36, 0
16, 43380, Note_on_c, 12, 38, 127
16, 43439, Note_on_c, 12, 38, 0
16, 43440, Note_on_c, 12, 33, 127
16, 43469, Note_on_c, 12, 33, 0
16, 43665, Note_on_c, 12, 33, 127
16, 43680, Note_on_c, 12, 31, 127
16, 43694, Note_on_c, 12, 33, 0
16, 43739, Note_on_c, 12, 31, 0
16, 43740, Note_on_c, 12, 33, 127
16, 43799, Note_on_c, 12, 33, 0
16, 43800, Note_on_c, 12, 36, 127
16, 43859, Note_on_c, 12, 36, 0
16, 43860, Note_on_c, 12, 38, 127
16, 43889, Note_on_c, 12, 38, 0
16, 43920, Note_on_c, 12, 33, 127
16, 43935, Note_on_c, 12, 33, 0
16, 43935, Note_on_c, 12, 36, 127
16, 43950, Note_on_c, 12, 36, 0
16, 43950, Note_on_c, 12, 40, 127
16, 43965, Note_on_c, 12, 40, 0
16, 43965, Note_on_c, 12, 45, 127
16, 43980, Note_on_c, 12, 45, 0
16, 43980, Note_on_c, 12, 36, 127
16, 43995, Note_on_c, 12, 36, 0
16, 43995, Note_on_c, 12, 40, 127
16, 44010, Note_on_c, 12, 40, 0
16, 44010, Note_on_c, 12, 45, 127
16, 44025, Note_on_c, 12, 45, 0
16, 44025, Note_on_c, 12, 48, 127
16, 44040, Note_on_c, 12, 48, 0
16, 44040, Note_on_c, 12, 40, 127
16, 44055, Note_on_c, 12, 40, 0
16, 44055, Note_on_c, 12, 45, 127
16, 44070, Note_on_c, 12, 45, 0
16, 44070, Note_on_c, 12, 48, 127
16, 44085, Note_on_c, 12, 48, 0
16, 44085, Note_on_c, 12, 52, 127
16, 44100, Note_on_c, 12, 52, 0
16, 44100, Note_on_c, 12, 45, 127
16, 44115, Note_on_c, 12, 45, 0
16, 44115, Note_on_c, 12, 48, 127
16, 44130, Note_on_c, 12, 48, 0
16, 44130, Note_on_c, 12, 52, 127
16, 44145, Note_on_c, 12, 52, 0
16, 44145, Note_on_c, 12, 55, 127
16, 44160, Note_on_c, 12, 55, 0
16, 81120, Note_on_c, 12, 31, 127
16, 81180, Note_on_c, 12, 33, 127
16, 81192, Note_on_c, 12, 31, 0
16, 81239, Note_on_c, 12, 33, 0
16, 81240, Note_on_c, 12, 36, 127
16, 81299, Note_on_c, 12, 36, 0
16, 81300, Note_on_c, 12, 38, 127
16, 81359, Note_on_c, 12, 38, 0
16, 81360, Note_on_c, 12, 33, 127
16, 81389, Note_on_c, 12, 33, 0
16, 81585, Note_on_c, 12, 33, 127
16, 81600, Note_on_c, 12, 31, 127
16, 81614, Note_on_c, 12, 33, 0
16, 81659, Note_on_c, 12, 31, 0
16, 81660, Note_on_c, 12, 33, 127
16, 81719, Note_on_c, 12, 33, 0
16, 81720, Note_on_c, 12, 36, 127
16, 81779, Note_on_c, 12, 36, 0
16, 81780, Note_on_c, 12, 38, 127
16, 81839, Note_on_c, 12, 38, 0
16, 81840, Note_on_c, 12, 40, 127
16, 81869, Note_on_c, 12, 40, 0
16, 81900, Note_on_c, 12, 43, 127
16, 81929, Note_on_c, 12, 43, 0
16, 81960, Note_on_c, 12, 38, 127
16, 81989, Note_on_c, 12, 38, 0
16, 81990, Note_on_c, 12, 36, 127
16, 82065, Note_on_c, 12, 33, 127
16, 82079, Note_on_c, 12, 36, 0
16, 82080, Note_on_c, 12, 31, 127
16, 82094, Note_on_c, 12, 33, 0
16, 82139, Note_on_c, 12, 31, 0
16, 82140, Note_on_c, 12, 33, 127
16, 82199, Note_on_c, 12, 33, 0
16, 82200, Note_on_c, 12, 36, 127
16, 82259, Note_on_c, 12, 36, 0
16, 82260, Note_on_c, 12, 38, 127
16, 82319, Note_on_c, 12, 38, 0
16, 82320, Note_on_c, 12, 33, 127
16, 82349, Note_on_c, 12, 33, 0
16, 82545, Note_on_c, 12, 33, 127
16, 82560, Note_on_c, 12, 31, 127
16, 82574, Note_on_c, 12, 33, 0
16, 82619, Note_on_c, 12, 31, 0
16, 82620, Note_on_c, 12, 33, 127
16, 82679, Note_on_c, 12, 33, 0
16, 82680, Note_on_c, 12, 36, 127
16, 82739, Note_on_c, 12, 36, 0
16, 82740, Note_on_c, 12, 38, 127
16, 82769, Note_on_c, 12, 38, 0
16, 82800, Note_on_c, 12, 33, 127
16, 82815, Note_on_c, 12, 33, 0
16, 82815, Note_on_c, 12, 36, 127
16, 82830, Note_on_c, 12, 36, 0
16, 82830, Note_on_c, 12, 40, 127
16, 82845, Note_on_c, 12, 40, 0
16, 82845, Note_on_c, 12, 45, 127
16, 82860, Note_on_c, 12, 45, 0
16, 82860, Note_on_c, 12, 36, 127
16, 82875, Note_on_c, 12, 36, 0
16, 82875, Note_on_c, 12, 40, 127
16, 82890, Note_on_c, 12, 40, 0
16, 82890, Note_on_c, 12, 45, 127
16, 82905, Note_on_c, 12, 45, 0
16, 82905, Note_on_c, 12, 48, 127
16, 82920, Note_on_c, 12, 48, 0
16, 82920, Note_on_c, 12, 40, 127
16, 82935, Note_on_c, 12, 40, 0
16, 82935, Note_on_c, 12, 45, 127
16, 82950, Note_on_c, 12, 45, 0
16, 82950, Note_on_c, 12, 48, 127
16, 82965, Note_on_c, 12, 48, 0
16, 82965, Note_on_c, 12, 52, 127
16, 82980, Note_on_c, 12, 52, 0
16, 82980, Note_on_c, 12, 45, 127
16, 82995, Note_on_c, 12, 45, 0
16, 82995, Note_on_c, 12, 48, 127
16, 83010, Note_on_c, 12, 48, 0
16, 83010, Note_on_c, 12, 52, 127
16, 83025, Note_on_c, 12, 52, 0
16, 83025, Note_on_c, 12, 55, 127
16, 83040, Note_on_c, 12, 55, 0
16, 83040, End_track
17, 0, Start_track
17, 0, MIDI_port, 0
17, 0, Title_t, "Bass Drum"
17, 0, Control_c, 9, 0, 0
17, 0, Control_c, 9, 32, 0
17, 0, Program_c, 9, 0
17, 0, Control_c, 9, 7, 127
17, 0, Control_c, 9, 10, 64
17, 0, Control_c, 9, 121, 0
17, 0, Control_c, 9, 91, 80
17, 480, Note_on_c, 9, 36, 127
17, 540, Note_on_c, 9, 36, 0
17, 600, Note_on_c, 9, 36, 127
17, 660, Note_on_c, 9, 36, 0
17, 720, Note_on_c, 9, 36, 127
17, 780, Note_on_c, 9, 36, 0
17, 840, Note_on_c, 9, 36, 127
17, 900, Note_on_c, 9, 36, 0
17, 960, Note_on_c, 9, 36, 127
17, 1020, Note_on_c, 9, 36, 0
17, 1080, Note_on_c, 9, 36, 127
17, 1140, Note_on_c, 9, 36, 0
17, 1200, Note_on_c, 9, 36, 127
17, 1260, Note_on_c, 9, 36, 0
17, 1320, Note_on_c, 9, 36, 127
17, 1380, Note_on_c, 9, 36, 0
17, 1440, Note_on_c, 9, 36, 127
17, 1500, Note_on_c, 9, 36, 0
17, 1560, Note_on_c, 9, 36, 127
17, 1620, Note_on_c, 9, 36, 0
17, 1680, Note_on_c, 9, 36, 127
17, 1740, Note_on_c, 9, 36, 0
17, 1800, Note_on_c, 9, 36, 127
17, 1860, Note_on_c, 9, 36, 0
17, 1920, Note_on_c, 9, 36, 127
17, 1980, Note_on_c, 9, 36, 0
17, 2040, Note_on_c, 9, 36, 127
17, 2100, Note_on_c, 9, 36, 0
17, 2160, Note_on_c, 9, 36, 127
17, 2220, Note_on_c, 9, 36, 0
17, 2280, Note_on_c, 9, 36, 127
17, 2340, Note_on_c, 9, 36, 0
17, 2400, Note_on_c, 9, 36, 127
17, 2460, Note_on_c, 9, 36, 0
17, 2520, Note_on_c, 9, 36, 127
17, 2580, Note_on_c, 9, 36, 0
17, 2640, Note_on_c, 9, 36, 127
17, 2700, Note_on_c, 9, 36, 0
17, 2760, Note_on_c, 9, 36, 127
17, 2820, Note_on_c, 9, 36, 0
17, 2880, Note_on_c, 9, 36, 127
17, 2940, Note_on_c, 9, 36, 0
17, 3000, Note_on_c, 9, 36, 127
17, 3060, Note_on_c, 9, 36, 0
17, 3120, Note_on_c, 9, 36, 127
17, 3180, Note_on_c, 9, 36, 0
17, 3240, Note_on_c, 9, 36, 127
17, 3300, Note_on_c, 9, 36, 0
17, 3360, Note_on_c, 9, 36, 127
17, 3420, Note_on_c, 9, 36, 0
17, 3480, Note_on_c, 9, 36, 127
17, 3540, Note_on_c, 9, 36, 0
17, 3600, Note_on_c, 9, 36, 127
17, 3660, Note_on_c, 9, 36, 0
17, 3720, Note_on_c, 9, 36, 127
17, 3780, Note_on_c, 9, 36, 0
17, 3840, Note_on_c, 9, 36, 127
17, 3900, Note_on_c, 9, 36, 0
17, 3960, Note_on_c, 9, 36, 127
17, 4020, Note_on_c, 9, 36, 0
17, 4080, Note_on_c, 9, 36, 127
17, 4140, Note_on_c, 9, 36, 0
17, 4200, Note_on_c, 9, 36, 127
17, 4260, Note_on_c, 9, 36, 0
17, 4320, Note_on_c, 9, 36, 127
17, 4380, Note_on_c, 9, 36, 0
17, 4440, Note_on_c, 9, 36, 127
17, 4500, Note_on_c, 9, 36, 0
17, 4560, Note_on_c, 9, 36, 127
17, 4620, Note_on_c, 9, 36, 0
17, 4680, Note_on_c, 9, 36, 127
17, 4740, Note_on_c, 9, 36, 0
17, 4800, Note_on_c, 9, 36, 127
17, 4860, Note_on_c, 9, 36, 0
17, 4920, Note_on_c, 9, 36, 127
17, 4980, Note_on_c, 9, 36, 0
17, 5040, Note_on_c, 9, 36, 127
17, 5100, Note_on_c, 9, 36, 0
17, 5160, Note_on_c, 9, 36, 127
17, 5220, Note_on_c, 9, 36, 0
17, 5280, Note_on_c, 9, 36, 127
17, 5340, Note_on_c, 9, 36, 0
17, 5400, Note_on_c, 9, 36, 127
17, 5460, Note_on_c, 9, 36, 0
17, 5520, Note_on_c, 9, 36, 127
17, 5580, Note_on_c, 9, 36, 0
17, 5640, Note_on_c, 9, 36, 127
17, 5700, Note_on_c, 9, 36, 0
17, 5760, Note_on_c, 9, 36, 127
17, 5820, Note_on_c, 9, 36, 0
17, 5880, Note_on_c, 9, 36, 127
17, 5940, Note_on_c, 9, 36, 0
17, 6000, Note_on_c, 9, 36, 127
17, 6060, Note_on_c, 9, 36, 0
17, 6120, Note_on_c, 9, 36, 127
17, 6180, Note_on_c, 9, 36, 0
17, 6240, Note_on_c, 9, 36, 127
17, 6300, Note_on_c, 9, 36, 0
17, 6360, Note_on_c, 9, 36, 127
17, 6420, Note_on_c, 9, 36, 0
17, 6480, Note_on_c, 9, 36, 127
17, 6540, Note_on_c, 9, 36, 0
17, 6600, Note_on_c, 9, 36, 127
17, 6660, Note_on_c, 9, 36, 0
17, 6720, Note_on_c, 9, 36, 127
17, 6780, Note_on_c, 9, 36, 0
17, 6840, Note_on_c, 9, 36, 127
17, 6900, Note_on_c, 9, 36, 0
17, 6960, Note_on_c, 9, 36, 127
17, 7020, Note_on_c, 9, 36, 0
17, 7080, Note_on_c, 9, 36, 127
17, 7140, Note_on_c, 9, 36, 0
17, 7200, Note_on_c, 9, 36, 127
17, 7260, Note_on_c, 9, 36, 0
17, 7320, Note_on_c, 9, 36, 127
17, 7380, Note_on_c, 9, 36, 0
17, 7440, Note_on_c, 9, 36, 127
17, 7500, Note_on_c, 9, 36, 0
17, 7560, Note_on_c, 9, 36, 127
17, 7620, Note_on_c, 9, 36, 0
17, 7680, Note_on_c, 9, 36, 127
17, 7740, Note_on_c, 9, 36, 0
17, 7800, Note_on_c, 9, 36, 127
17, 7860, Note_on_c, 9, 36, 0
17, 7920, Note_on_c, 9, 36, 127
17, 7980, Note_on_c, 9, 36, 0
17, 8040, Note_on_c, 9, 36, 127
17, 8100, Note_on_c, 9, 36, 0
17, 8160, Note_on_c, 9, 36, 127
17, 8220, Note_on_c, 9, 36, 0
17, 8280, Note_on_c, 9, 36, 127
17, 8340, Note_on_c, 9, 36, 0
17, 8400, Note_on_c, 9, 36, 127
17, 8460, Note_on_c, 9, 36, 0
17, 8520, Note_on_c, 9, 36, 127
17, 8580, Note_on_c, 9, 36, 0
17, 8640, Note_on_c, 9, 36, 127
17, 8700, Note_on_c, 9, 36, 0
17, 8760, Note_on_c, 9, 36, 127
17, 8820, Note_on_c, 9, 36, 0
17, 8880, Note_on_c, 9, 36, 127
17, 8940, Note_on_c, 9, 36, 0
17, 9000, Note_on_c, 9, 36, 127
17, 9060, Note_on_c, 9, 36, 0
17, 9120, Note_on_c, 9, 36, 127
17, 9180, Note_on_c, 9, 36, 0
17, 9240, Note_on_c, 9, 36, 127
17, 9300, Note_on_c, 9, 36, 0
17, 9360, Note_on_c, 9, 36, 127
17, 9420, Note_on_c, 9, 36, 0
17, 9480, Note_on_c, 9, 36, 127
17, 9540, Note_on_c, 9, 36, 0
17, 9600, Note_on_c, 9, 36, 127
17, 9660, Note_on_c, 9, 36, 0
17, 9720, Note_on_c, 9, 36, 127
17, 9780, Note_on_c, 9, 36, 0
17, 9840, Note_on_c, 9, 36, 127
17, 9900, Note_on_c, 9, 36, 0
17, 9960, Note_on_c, 9, 36, 127
17, 10020, Note_on_c, 9, 36, 0
17, 10080, Note_on_c, 9, 36, 127
17, 10140, Note_on_c, 9, 36, 0
17, 10200, Note_on_c, 9, 36, 127
17, 10260, Note_on_c, 9, 36, 0
17, 10320, Note_on_c, 9, 36, 127
17, 10380, Note_on_c, 9, 36, 0
17, 10440, Note_on_c, 9, 36, 127
17, 10500, Note_on_c, 9, 36, 0
17, 10560, Note_on_c, 9, 36, 127
17, 10620, Note_on_c, 9, 36, 0
17, 10680, Note_on_c, 9, 36, 127
17, 10740, Note_on_c, 9, 36, 0
17, 10800, Note_on_c, 9, 36, 127
17, 10860, Note_on_c, 9, 36, 0
17, 10920, Note_on_c, 9, 36, 127
17, 10980, Note_on_c, 9, 36, 0
17, 11040, Note_on_c, 9, 36, 127
17, 11100, Note_on_c, 9, 36, 0
17, 11160, Note_on_c, 9, 36, 127
17, 11220, Note_on_c, 9, 36, 0
17, 11280, Note_on_c, 9, 36, 127
17, 11340, Note_on_c, 9, 36, 0
17, 11400, Note_on_c, 9, 36, 127
17, 11460, Note_on_c, 9, 36, 0
17, 11520, Note_on_c, 9, 36, 127
17, 11580, Note_on_c, 9, 36, 0
17, 11640, Note_on_c, 9, 36, 127
17, 11700, Note_on_c, 9, 36, 0
17, 11760, Note_on_c, 9, 36, 127
17, 11820, Note_on_c, 9, 36, 0
17, 11880, Note_on_c, 9, 36, 127
17, 11940, Note_on_c, 9, 36, 0
17, 12000, Note_on_c, 9, 36, 127
17, 12060, Note_on_c, 9, 36, 0
17, 12120, Note_on_c, 9, 36, 127
17, 12180, Note_on_c, 9, 36, 0
17, 12240, Note_on_c, 9, 36, 127
17, 12300, Note_on_c, 9, 36, 0
17, 12360, Note_on_c, 9, 36, 127
17, 12420, Note_on_c, 9, 36, 0
17, 12480, Note_on_c, 9, 36, 127
17, 12540, Note_on_c, 9, 36, 0
17, 12600, Note_on_c, 9, 36, 127
17, 12660, Note_on_c, 9, 36, 0
17, 12720, Note_on_c, 9, 36, 127
17, 12780, Note_on_c, 9, 36, 0
17, 12840, Note_on_c, 9, 36, 127
17, 12900, Note_on_c, 9, 36, 0
17, 12960, Note_on_c, 9, 36, 127
17, 13020, Note_on_c, 9, 36, 0
17, 13080, Note_on_c, 9, 36, 127
17, 13140, Note_on_c, 9, 36, 0
17, 13200, Note_on_c, 9, 36, 127
17, 13260, Note_on_c, 9, 36, 0
17, 13320, Note_on_c, 9, 36, 127
17, 13380, Note_on_c, 9, 36, 0
17, 13440, Note_on_c, 9, 36, 127
17, 13500, Note_on_c, 9, 36, 0
17, 13560, Note_on_c, 9, 36, 127
17, 13620, Note_on_c, 9, 36, 0
17, 13680, Note_on_c, 9, 36, 127
17, 13740, Note_on_c, 9, 36, 0
17, 13800, Note_on_c, 9, 36, 127
17, 13860, Note_on_c, 9, 36, 0
17, 13920, Note_on_c, 9, 36, 127
17, 13980, Note_on_c, 9, 36, 0
17, 14040, Note_on_c, 9, 36, 127
17, 14100, Note_on_c, 9, 36, 0
17, 14160, Note_on_c, 9, 36, 127
17, 14220, Note_on_c, 9, 36, 0
17, 14280, Note_on_c, 9, 36, 127
17, 14340, Note_on_c, 9, 36, 0
17, 14400, Note_on_c, 9, 36, 127
17, 14460, Note_on_c, 9, 36, 0
17, 14520, Note_on_c, 9, 36, 127
17, 14580, Note_on_c, 9, 36, 0
17, 14640, Note_on_c, 9, 36, 127
17, 14700, Note_on_c, 9, 36, 0
17, 14760, Note_on_c, 9, 36, 127
17, 14820, Note_on_c, 9, 36, 0
17, 14880, Note_on_c, 9, 36, 127
17, 14940, Note_on_c, 9, 36, 0
17, 15000, Note_on_c, 9, 36, 127
17, 15060, Note_on_c, 9, 36, 0
17, 15120, Note_on_c, 9, 36, 127
17, 15180, Note_on_c, 9, 36, 0
17, 15240, Note_on_c, 9, 36, 127
17, 15300, Note_on_c, 9, 36, 0
17, 15360, Note_on_c, 9, 36, 127
17, 15420, Note_on_c, 9, 36, 0
17, 15480, Note_on_c, 9, 36, 127
17, 15540, Note_on_c, 9, 36, 0
17, 15600, Note_on_c, 9, 36, 127
17, 15660, Note_on_c, 9, 36, 0
17, 15720, Note_on_c, 9, 36, 127
17, 15780, Note_on_c, 9, 36, 0
17, 15840, Note_on_c, 9, 36, 127
17, 15900, Note_on_c, 9, 36, 0
17, 15960, Note_on_c, 9, 36, 127
17, 16020, Note_on_c, 9, 36, 0
17, 16080, Note_on_c, 9, 36, 127
17, 16140, Note_on_c, 9, 36, 0
17, 16200, Note_on_c, 9, 36, 127
17, 16260, Note_on_c, 9, 36, 0
17, 16320, Note_on_c, 9, 36, 127
17, 16380, Note_on_c, 9, 36, 0
17, 16440, Note_on_c, 9, 36, 127
17, 16500, Note_on_c, 9, 36, 0
17, 16560, Note_on_c, 9, 36, 127
17, 16620, Note_on_c, 9, 36, 0
17, 16680, Note_on_c, 9, 36, 127
17, 16740, Note_on_c, 9, 36, 0
17, 16800, Note_on_c, 9, 36, 127
17, 16860, Note_on_c, 9, 36, 0
17, 16920, Note_on_c, 9, 36, 127
17, 16980, Note_on_c, 9, 36, 0
17, 17040, Note_on_c, 9, 36, 127
17, 17100, Note_on_c, 9, 36, 0
17, 17160, Note_on_c, 9, 36, 127
17, 17220, Note_on_c, 9, 36, 0
17, 17280, Note_on_c, 9, 36, 127
17, 17340, Note_on_c, 9, 36, 0
17, 17400, Note_on_c, 9, 36, 127
17, 17460, Note_on_c, 9, 36, 0
17, 17520, Note_on_c, 9, 36, 127
17, 17580, Note_on_c, 9, 36, 0
17, 17640, Note_on_c, 9, 36, 127
17, 17700, Note_on_c, 9, 36, 0
17, 17760, Note_on_c, 9, 36, 127
17, 17820, Note_on_c, 9, 36, 0
17, 17880, Note_on_c, 9, 36, 127
17, 17940, Note_on_c, 9, 36, 0
17, 18000, Note_on_c, 9, 36, 127
17, 18060, Note_on_c, 9, 36, 0
17, 18120, Note_on_c, 9, 36, 127
17, 18180, Note_on_c, 9, 36, 0
17, 18240, Note_on_c, 9, 36, 127
17, 18300, Note_on_c, 9, 36, 0
17, 18360, Note_on_c, 9, 36, 127
17, 18420, Note_on_c, 9, 36, 0
17, 18480, Note_on_c, 9, 36, 127
17, 18540, Note_on_c, 9, 36, 0
17, 18600, Note_on_c, 9, 36, 127
17, 18660, Note_on_c, 9, 36, 0
17, 18720, Note_on_c, 9, 36, 127
17, 18780, Note_on_c, 9, 36, 0
17, 18840, Note_on_c, 9, 36, 127
17, 18900, Note_on_c, 9, 36, 0
17, 18960, Note_on_c, 9, 36, 127
17, 19020, Note_on_c, 9, 36, 0
17, 19080, Note_on_c, 9, 36, 127
17, 19140, Note_on_c, 9, 36, 0
17, 19200, Note_on_c, 9, 36, 127
17, 19260, Note_on_c, 9, 36, 0
17, 19320, Note_on_c, 9, 36, 127
17, 19380, Note_on_c, 9, 36, 0
17, 19440, Note_on_c, 9, 36, 127
17, 19500, Note_on_c, 9, 36, 0
17, 19560, Note_on_c, 9, 36, 127
17, 19620, Note_on_c, 9, 36, 0
17, 19680, Note_on_c, 9, 36, 127
17, 19740, Note_on_c, 9, 36, 0
17, 19800, Note_on_c, 9, 36, 127
17, 19860, Note_on_c, 9, 36, 0
17, 19920, Note_on_c, 9, 36, 127
17, 19980, Note_on_c, 9, 36, 0
17, 20040, Note_on_c, 9, 36, 127
17, 20100, Note_on_c, 9, 36, 0
17, 20160, Note_on_c, 9, 36, 127
17, 20220, Note_on_c, 9, 36, 0
17, 20280, Note_on_c, 9, 36, 127
17, 20340, Note_on_c, 9, 36, 0
17, 20400, Note_on_c, 9, 36, 127
17, 20460, Note_on_c, 9, 36, 0
17, 20520, Note_on_c, 9, 36, 127
17, 20580, Note_on_c, 9, 36, 0
17, 20640, Note_on_c, 9, 36, 127
17, 20700, Note_on_c, 9, 36, 0
17, 20760, Note_on_c, 9, 36, 127
17, 20820, Note_on_c, 9, 36, 0
17, 20880, Note_on_c, 9, 36, 127
17, 20940, Note_on_c, 9, 36, 0
17, 21000, Note_on_c, 9, 36, 127
17, 21060, Note_on_c, 9, 36, 0
17, 21120, Note_on_c, 9, 36, 127
17, 21180, Note_on_c, 9, 36, 0
17, 21240, Note_on_c, 9, 36, 127
17, 21300, Note_on_c, 9, 36, 0
17, 21360, Note_on_c, 9, 36, 127
17, 21420, Note_on_c, 9, 36, 0
17, 21480, Note_on_c, 9, 36, 127
17, 21540, Note_on_c, 9, 36, 0
17, 21600, Note_on_c, 9, 36, 127
17, 21660, Note_on_c, 9, 36, 0
17, 21720, Note_on_c, 9, 36, 127
17, 21780, Note_on_c, 9, 36, 0
17, 21840, Note_on_c, 9, 36, 127
17, 21900, Note_on_c, 9, 36, 0
17, 21960, Note_on_c, 9, 36, 127
17, 22020, Note_on_c, 9, 36, 0
17, 22080, Note_on_c, 9, 36, 127
17, 22140, Note_on_c, 9, 36, 0
17, 22200, Note_on_c, 9, 36, 127
17, 22260, Note_on_c, 9, 36, 0
17, 22320, Note_on_c, 9, 36, 127
17, 22380, Note_on_c, 9, 36, 0
17, 22440, Note_on_c, 9, 36, 127
17, 22500, Note_on_c, 9, 36, 0
17, 22560, Note_on_c, 9, 36, 127
17, 22620, Note_on_c, 9, 36, 0
17, 22680, Note_on_c, 9, 36, 127
17, 22740, Note_on_c, 9, 36, 0
17, 22800, Note_on_c, 9, 36, 127
17, 22860, Note_on_c, 9, 36, 0
17, 22920, Note_on_c, 9, 36, 127
17, 22980, Note_on_c, 9, 36, 0
17, 23040, Note_on_c, 9, 36, 127
17, 23100, Note_on_c, 9, 36, 0
17, 23160, Note_on_c, 9, 36, 127
17, 23220, Note_on_c, 9, 36, 0
17, 23280, Note_on_c, 9, 36, 127
17, 23340, Note_on_c, 9, 36, 0
17, 23400, Note_on_c, 9, 36, 127
17, 23460, Note_on_c, 9, 36, 0
17, 23520, Note_on_c, 9, 36, 127
17, 23580, Note_on_c, 9, 36, 0
17, 23640, Note_on_c, 9, 36, 127
17, 23700, Note_on_c, 9, 36, 0
17, 23760, Note_on_c, 9, 36, 127
17, 23820, Note_on_c, 9, 36, 0
17, 23880, Note_on_c, 9, 36, 127
17, 23940, Note_on_c, 9, 36, 0
17, 24000, Note_on_c, 9, 36, 127
17, 24060, Note_on_c, 9, 36, 0
17, 24120, Note_on_c, 9, 36, 127
17, 24180, Note_on_c, 9, 36, 0
17, 24240, Note_on_c, 9, 36, 127
17, 24300, Note_on_c, 9, 36, 0
17, 24360, Note_on_c, 9, 36, 127
17, 24420, Note_on_c, 9, 36, 0
17, 24480, Note_on_c, 9, 36, 127
17, 24540, Note_on_c, 9, 36, 0
17, 24600, Note_on_c, 9, 36, 127
17, 24660, Note_on_c, 9, 36, 0
17, 24720, Note_on_c, 9, 36, 127
17, 24780, Note_on_c, 9, 36, 0
17, 24840, Note_on_c, 9, 36, 127
17, 24900, Note_on_c, 9, 36, 0
17, 24960, Note_on_c, 9, 36, 127
17, 25020, Note_on_c, 9, 36, 0
17, 25080, Note_on_c, 9, 36, 127
17, 25140, Note_on_c, 9, 36, 0
17, 25200, Note_on_c, 9, 36, 127
17, 25260, Note_on_c, 9, 36, 0
17, 25320, Note_on_c, 9, 36, 127
17, 25380, Note_on_c, 9, 36, 0
17, 25440, Note_on_c, 9, 36, 127
17, 25500, Note_on_c, 9, 36, 0
17, 25560, Note_on_c, 9, 36, 127
17, 25620, Note_on_c, 9, 36, 0
17, 25680, Note_on_c, 9, 36, 127
17, 25740, Note_on_c, 9, 36, 0
17, 25800, Note_on_c, 9, 36, 127
17, 25860, Note_on_c, 9, 36, 0
17, 25920, Note_on_c, 9, 36, 127
17, 25980, Note_on_c, 9, 36, 0
17, 26040, Note_on_c, 9, 36, 127
17, 26100, Note_on_c, 9, 36, 0
17, 26160, Note_on_c, 9, 36, 127
17, 26220, Note_on_c, 9, 36, 0
17, 26280, Note_on_c, 9, 36, 127
17, 26340, Note_on_c, 9, 36, 0
17, 26400, Note_on_c, 9, 36, 127
17, 26460, Note_on_c, 9, 36, 0
17, 26520, Note_on_c, 9, 36, 127
17, 26580, Note_on_c, 9, 36, 0
17, 26640, Note_on_c, 9, 36, 127
17, 26700, Note_on_c, 9, 36, 0
17, 26760, Note_on_c, 9, 36, 127
17, 26820, Note_on_c, 9, 36, 0
17, 26880, Note_on_c, 9, 36, 127
17, 26940, Note_on_c, 9, 36, 0
17, 27000, Note_on_c, 9, 36, 127
17, 27060, Note_on_c, 9, 36, 0
17, 27120, Note_on_c, 9, 36, 127
17, 27180, Note_on_c, 9, 36, 0
17, 27240, Note_on_c, 9, 36, 127
17, 27300, Note_on_c, 9, 36, 0
17, 27360, Note_on_c, 9, 36, 127
17, 27420, Note_on_c, 9, 36, 0
17, 27480, Note_on_c, 9, 36, 127
17, 27540, Note_on_c, 9, 36, 0
17, 27600, Note_on_c, 9, 36, 127
17, 27660, Note_on_c, 9, 36, 0
17, 27720, Note_on_c, 9, 36, 127
17, 27780, Note_on_c, 9, 36, 0
17, 27840, Note_on_c, 9, 36, 127
17, 27900, Note_on_c, 9, 36, 0
17, 27960, Note_on_c, 9, 36, 127
17, 28020, Note_on_c, 9, 36, 0
17, 28080, Note_on_c, 9, 36, 127
17, 28140, Note_on_c, 9, 36, 0
17, 28200, Note_on_c, 9, 36, 127
17, 28260, Note_on_c, 9, 36, 0
17, 28320, Note_on_c, 9, 36, 127
17, 28380, Note_on_c, 9, 36, 0
17, 28440, Note_on_c, 9, 36, 127
17, 28500, Note_on_c, 9, 36, 0
17, 28560, Note_on_c, 9, 36, 127
17, 28620, Note_on_c, 9, 36, 0
17, 28680, Note_on_c, 9, 36, 127
17, 28740, Note_on_c, 9, 36, 0
17, 28800, Note_on_c, 9, 36, 127
17, 28860, Note_on_c, 9, 36, 0
17, 28920, Note_on_c, 9, 36, 127
17, 28980, Note_on_c, 9, 36, 0
17, 29040, Note_on_c, 9, 36, 127
17, 29100, Note_on_c, 9, 36, 0
17, 29160, Note_on_c, 9, 36, 127
17, 29220, Note_on_c, 9, 36, 0
17, 29280, Note_on_c, 9, 36, 127
17, 29340, Note_on_c, 9, 36, 0
17, 29400, Note_on_c, 9, 36, 127
17, 29460, Note_on_c, 9, 36, 0
17, 29520, Note_on_c, 9, 36, 127
17, 29580, Note_on_c, 9, 36, 0
17, 29640, Note_on_c, 9, 36, 127
17, 29700, Note_on_c, 9, 36, 0
17, 29760, Note_on_c, 9, 36, 127
17, 29820, Note_on_c, 9, 36, 0
17, 29880, Note_on_c, 9, 36, 127
17, 29940, Note_on_c, 9, 36, 0
17, 30000, Note_on_c, 9, 36, 127
17, 30060, Note_on_c, 9, 36, 0
17, 30120, Note_on_c, 9, 36, 127
17, 30180, Note_on_c, 9, 36, 0
17, 30240, Note_on_c, 9, 36, 127
17, 30300, Note_on_c, 9, 36, 0
17, 30360, Note_on_c, 9, 36, 127
17, 30420, Note_on_c, 9, 36, 0
17, 30480, Note_on_c, 9, 36, 127
17, 30540, Note_on_c, 9, 36, 0
17, 30600, Note_on_c, 9, 36, 127
17, 30660, Note_on_c, 9, 36, 0
17, 30720, Note_on_c, 9, 36, 127
17, 30780, Note_on_c, 9, 36, 0
17, 30840, Note_on_c, 9, 36, 127
17, 30900, Note_on_c, 9, 36, 0
17, 30960, Note_on_c, 9, 36, 127
17, 31020, Note_on_c, 9, 36, 0
17, 31080, Note_on_c, 9, 36, 127
17, 31140, Note_on_c, 9, 36, 0
17, 31200, Note_on_c, 9, 36, 127
17, 31260, Note_on_c, 9, 36, 0
17, 31320, Note_on_c, 9, 36, 127
17, 31380, Note_on_c, 9, 36, 0
17, 31440, Note_on_c, 9, 36, 127
17, 31500, Note_on_c, 9, 36, 0
17, 31560, Note_on_c, 9, 36, 127
17, 31620, Note_on_c, 9, 36, 0
17, 31680, Note_on_c, 9, 36, 127
17, 31740, Note_on_c, 9, 36, 0
17, 31800, Note_on_c, 9, 36, 127
17, 31860, Note_on_c, 9, 36, 0
17, 31920, Note_on_c, 9, 36, 127
17, 31980, Note_on_c, 9, 36, 0
17, 32040, Note_on_c, 9, 36, 127
17, 32100, Note_on_c, 9, 36, 0
17, 32160, Note_on_c, 9, 36, 127
17, 32220, Note_on_c, 9, 36, 0
17, 32280, Note_on_c, 9, 36, 127
17, 32340, Note_on_c, 9, 36, 0
17, 32400, Note_on_c, 9, 36, 127
17, 32460, Note_on_c, 9, 36, 0
17, 32520, Note_on_c, 9, 36, 127
17, 32580, Note_on_c, 9, 36, 0
17, 32640, Note_on_c, 9, 36, 127
17, 32700, Note_on_c, 9, 36, 0
17, 32760, Note_on_c, 9, 36, 127
17, 32820, Note_on_c, 9, 36, 0
17, 32880, Note_on_c, 9, 36, 127
17, 32940, Note_on_c, 9, 36, 0
17, 33000, Note_on_c, 9, 36, 127
17, 33060, Note_on_c, 9, 36, 0
17, 33120, Note_on_c, 9, 36, 127
17, 33180, Note_on_c, 9, 36, 0
17, 33240, Note_on_c, 9, 36, 127
17, 33300, Note_on_c, 9, 36, 0
17, 33360, Note_on_c, 9, 36, 127
17, 33420, Note_on_c, 9, 36, 0
17, 33480, Note_on_c, 9, 36, 127
17, 33540, Note_on_c, 9, 36, 0
17, 33600, Note_on_c, 9, 36, 127
17, 33660, Note_on_c, 9, 36, 0
17, 33720, Note_on_c, 9, 36, 127
17, 33780, Note_on_c, 9, 36, 0
17, 33840, Note_on_c, 9, 36, 127
17, 33900, Note_on_c, 9, 36, 0
17, 33960, Note_on_c, 9, 36, 127
17, 34020, Note_on_c, 9, 36, 0
17, 34080, Note_on_c, 9, 36, 127
17, 34140, Note_on_c, 9, 36, 0
17, 34200, Note_on_c, 9, 36, 127
17, 34260, Note_on_c, 9, 36, 0
17, 34320, Note_on_c, 9, 36, 127
17, 34380, Note_on_c, 9, 36, 0
17, 34440, Note_on_c, 9, 36, 127
17, 34500, Note_on_c, 9, 36, 0
17, 34560, Note_on_c, 9, 36, 127
17, 34620, Note_on_c, 9, 36, 0
17, 34680, Note_on_c, 9, 36, 127
17, 34740, Note_on_c, 9, 36, 0
17, 34800, Note_on_c, 9, 36, 127
17, 34860, Note_on_c, 9, 36, 0
17, 34920, Note_on_c, 9, 36, 127
17, 34980, Note_on_c, 9, 36, 0
17, 35040, Note_on_c, 9, 36, 127
17, 35100, Note_on_c, 9, 36, 0
17, 35160, Note_on_c, 9, 36, 127
17, 35220, Note_on_c, 9, 36, 0
17, 35280, Note_on_c, 9, 36, 127
17, 35340, Note_on_c, 9, 36, 0
17, 35400, Note_on_c, 9, 36, 127
17, 35460, Note_on_c, 9, 36, 0
17, 35520, Note_on_c, 9, 36, 127
17, 35580, Note_on_c, 9, 36, 0
17, 35640, Note_on_c, 9, 36, 127
17, 35700, Note_on_c, 9, 36, 0
17, 35760, Note_on_c, 9, 36, 127
17, 35820, Note_on_c, 9, 36, 0
17, 35880, Note_on_c, 9, 36, 127
17, 35940, Note_on_c, 9, 36, 0
17, 36000, Note_on_c, 9, 36, 127
17, 36060, Note_on_c, 9, 36, 0
17, 36120, Note_on_c, 9, 36, 127
17, 36180, Note_on_c, 9, 36, 0
17, 36240, Note_on_c, 9, 36, 127
17, 36300, Note_on_c, 9, 36, 0
17, 36360, Note_on_c, 9, 36, 127
17, 36420, Note_on_c, 9, 36, 0
17, 36480, Note_on_c, 9, 36, 127
17, 36540, Note_on_c, 9, 36, 0
17, 36600, Note_on_c, 9, 36, 127
17, 36660, Note_on_c, 9, 36, 0
17, 36720, Note_on_c, 9, 36, 127
17, 36780, Note_on_c, 9, 36, 0
17, 36840, Note_on_c, 9, 36, 127
17, 36900, Note_on_c, 9, 36, 0
17, 36960, Note_on_c, 9, 36, 127
17, 37020, Note_on_c, 9, 36, 0
17, 37080, Note_on_c, 9, 36, 127
17, 37140, Note_on_c, 9, 36, 0
17, 37200, Note_on_c, 9, 36, 127
17, 37260, Note_on_c, 9, 36, 0
17, 37320, Note_on_c, 9, 36, 127
17, 37380, Note_on_c, 9, 36, 0
17, 37440, Note_on_c, 9, 36, 127
17, 37500, Note_on_c, 9, 36, 0
17, 37560, Note_on_c, 9, 36, 127
17, 37620, Note_on_c, 9, 36, 0
17, 37680, Note_on_c, 9, 36, 127
17, 37740, Note_on_c, 9, 36, 0
17, 37800, Note_on_c, 9, 36, 127
17, 37860, Note_on_c, 9, 36, 0
17, 37920, Note_on_c, 9, 36, 127
17, 37980, Note_on_c, 9, 36, 0
17, 38040, Note_on_c, 9, 36, 127
17, 38100, Note_on_c, 9, 36, 0
17, 38160, Note_on_c, 9, 36, 127
17, 38220, Note_on_c, 9, 36, 0
17, 38280, Note_on_c, 9, 36, 127
17, 38340, Note_on_c, 9, 36, 0
17, 38400, Note_on_c, 9, 36, 127
17, 38460, Note_on_c, 9, 36, 0
17, 38520, Note_on_c, 9, 36, 127
17, 38580, Note_on_c, 9, 36, 0
17, 38640, Note_on_c, 9, 36, 127
17, 38700, Note_on_c, 9, 36, 0
17, 38760, Note_on_c, 9, 36, 127
17, 38820, Note_on_c, 9, 36, 0
17, 38880, Note_on_c, 9, 36, 127
17, 38940, Note_on_c, 9, 36, 0
17, 39000, Note_on_c, 9, 36, 127
17, 39060, Note_on_c, 9, 36, 0
17, 39120, Note_on_c, 9, 36, 127
17, 39180, Note_on_c, 9, 36, 0
17, 39240, Note_on_c, 9, 36, 127
17, 39300, Note_on_c, 9, 36, 0
17, 39360, Note_on_c, 9, 36, 127
17, 39420, Note_on_c, 9, 36, 0
17, 39480, Note_on_c, 9, 36, 127
17, 39540, Note_on_c, 9, 36, 0
17, 39600, Note_on_c, 9, 36, 127
17, 39660, Note_on_c, 9, 36, 0
17, 39720, Note_on_c, 9, 36, 127
17, 39780, Note_on_c, 9, 36, 0
17, 39840, Note_on_c, 9, 36, 127
17, 39900, Note_on_c, 9, 36, 0
17, 39960, Note_on_c, 9, 36, 127
17, 40020, Note_on_c, 9, 36, 0
17, 40080, Note_on_c, 9, 36, 127
17, 40140, Note_on_c, 9, 36, 0
17, 40200, Note_on_c, 9, 36, 127
17, 40260, Note_on_c, 9, 36, 0
17, 40320, Note_on_c, 9, 36, 127
17, 40380, Note_on_c, 9, 36, 0
17, 40440, Note_on_c, 9, 36, 127
17, 40500, Note_on_c, 9, 36, 0
17, 40560, Note_on_c, 9, 36, 127
17, 40620, Note_on_c, 9, 36, 0
17, 40680, Note_on_c, 9, 36, 127
17, 40740, Note_on_c, 9, 36, 0
17, 40800, Note_on_c, 9, 36, 127
17, 40860, Note_on_c, 9, 36, 0
17, 40920, Note_on_c, 9, 36, 127
17, 40980, Note_on_c, 9, 36, 0
17, 41040, Note_on_c, 9, 36, 127
17, 41100, Note_on_c, 9, 36, 0
17, 41160, Note_on_c, 9, 36, 127
17, 41220, Note_on_c, 9, 36, 0
17, 41280, Note_on_c, 9, 36, 127
17, 41340, Note_on_c, 9, 36, 0
17, 41400, Note_on_c, 9, 36, 127
17, 41460, Note_on_c, 9, 36, 0
17, 41520, Note_on_c, 9, 36, 127
17, 41580, Note_on_c, 9, 36, 0
17, 41640, Note_on_c, 9, 36, 127
17, 41700, Note_on_c, 9, 36, 0
17, 41760, Note_on_c, 9, 36, 127
17, 41820, Note_on_c, 9, 36, 0
17, 41880, Note_on_c, 9, 36, 127
17, 41940, Note_on_c, 9, 36, 0
17, 42000, Note_on_c, 9, 36, 127
17, 42060, Note_on_c, 9, 36, 0
17, 42120, Note_on_c, 9, 36, 127
17, 42180, Note_on_c, 9, 36, 0
17, 42240, Note_on_c, 9, 36, 127
17, 42300, Note_on_c, 9, 36, 0
17, 42360, Note_on_c, 9, 36, 127
17, 42420, Note_on_c, 9, 36, 0
17, 42480, Note_on_c, 9, 36, 127
17, 42540, Note_on_c, 9, 36, 0
17, 42600, Note_on_c, 9, 36, 127
17, 42660, Note_on_c, 9, 36, 0
17, 42720, Note_on_c, 9, 36, 127
17, 42780, Note_on_c, 9, 36, 0
17, 42840, Note_on_c, 9, 36, 127
17, 42900, Note_on_c, 9, 36, 0
17, 42960, Note_on_c, 9, 36, 127
17, 43020, Note_on_c, 9, 36, 0
17, 43080, Note_on_c, 9, 36, 127
17, 43140, Note_on_c, 9, 36, 0
17, 43200, Note_on_c, 9, 36, 127
17, 43260, Note_on_c, 9, 36, 0
17, 43320, Note_on_c, 9, 36, 127
17, 43380, Note_on_c, 9, 36, 0
17, 43440, Note_on_c, 9, 36, 127
17, 43500, Note_on_c, 9, 36, 0
17, 43560, Note_on_c, 9, 36, 127
17, 43620, Note_on_c, 9, 36, 0
17, 43680, Note_on_c, 9, 36, 127
17, 43740, Note_on_c, 9, 36, 0
17, 43800, Note_on_c, 9, 36, 127
17, 43860, Note_on_c, 9, 36, 0
17, 43920, Note_on_c, 9, 36, 127
17, 43980, Note_on_c, 9, 36, 0
17, 44040, Note_on_c, 9, 36, 127
17, 44100, Note_on_c, 9, 36, 0
17, 44160, Note_on_c, 9, 36, 127
17, 44220, Note_on_c, 9, 36, 0
17, 44280, Note_on_c, 9, 36, 127
17, 44340, Note_on_c, 9, 36, 0
17, 44400, Note_on_c, 9, 36, 127
17, 44460, Note_on_c, 9, 36, 0
17, 44520, Note_on_c, 9, 36, 127
17, 44580, Note_on_c, 9, 36, 0
17, 44640, Note_on_c, 9, 36, 127
17, 44700, Note_on_c, 9, 36, 0
17, 44760, Note_on_c, 9, 36, 127
17, 44820, Note_on_c, 9, 36, 0
17, 44880, Note_on_c, 9, 36, 127
17, 44940, Note_on_c, 9, 36, 0
17, 45000, Note_on_c, 9, 36, 127
17, 45060, Note_on_c, 9, 36, 0
17, 45120, Note_on_c, 9, 36, 127
17, 45180, Note_on_c, 9, 36, 0
17, 45240, Note_on_c, 9, 36, 127
17, 45300, Note_on_c, 9, 36, 0
17, 45360, Note_on_c, 9, 36, 127
17, 45420, Note_on_c, 9, 36, 0
17, 45480, Note_on_c, 9, 36, 127
17, 45540, Note_on_c, 9, 36, 0
17, 45600, Note_on_c, 9, 36, 127
17, 45660, Note_on_c, 9, 36, 0
17, 45720, Note_on_c, 9, 36, 127
17, 45780, Note_on_c, 9, 36, 0
17, 45840, Note_on_c, 9, 36, 127
17, 45900, Note_on_c, 9, 36, 0
17, 45960, Note_on_c, 9, 36, 127
17, 46020, Note_on_c, 9, 36, 0
17, 46080, Note_on_c, 9, 36, 127
17, 46140, Note_on_c, 9, 36, 0
17, 46200, Note_on_c, 9, 36, 127
17, 46260, Note_on_c, 9, 36, 0
17, 46320, Note_on_c, 9, 36, 127
17, 46380, Note_on_c, 9, 36, 0
17, 46440, Note_on_c, 9, 36, 127
17, 46500, Note_on_c, 9, 36, 0
17, 46560, Note_on_c, 9, 36, 127
17, 46620, Note_on_c, 9, 36, 0
17, 46680, Note_on_c, 9, 36, 127
17, 46740, Note_on_c, 9, 36, 0
17, 46800, Note_on_c, 9, 36, 127
17, 46860, Note_on_c, 9, 36, 0
17, 46920, Note_on_c, 9, 36, 127
17, 46980, Note_on_c, 9, 36, 0
17, 47040, Note_on_c, 9, 36, 127
17, 47100, Note_on_c, 9, 36, 0
17, 47160, Note_on_c, 9, 36, 127
17, 47220, Note_on_c, 9, 36, 0
17, 47280, Note_on_c, 9, 36, 127
17, 47340, Note_on_c, 9, 36, 0
17, 47400, Note_on_c, 9, 36, 127
17, 47460, Note_on_c, 9, 36, 0
17, 47520, Note_on_c, 9, 36, 127
17, 47580, Note_on_c, 9, 36, 0
17, 47640, Note_on_c, 9, 36, 127
17, 47700, Note_on_c, 9, 36, 0
17, 47760, Note_on_c, 9, 36, 127
17, 47820, Note_on_c, 9, 36, 0
17, 47880, Note_on_c, 9, 36, 127
17, 47940, Note_on_c, 9, 36, 0
17, 48000, Note_on_c, 9, 36, 127
17, 48060, Note_on_c, 9, 36, 0
17, 48120, Note_on_c, 9, 36, 127
17, 48180, Note_on_c, 9, 36, 0
17, 48240, Note_on_c, 9, 36, 127
17, 48300, Note_on_c, 9, 36, 0
17, 48360, Note_on_c, 9, 36, 127
17, 48420, Note_on_c, 9, 36, 0
17, 48480, Note_on_c, 9, 36, 127
17, 48540, Note_on_c, 9, 36, 0
17, 48600, Note_on_c, 9, 36, 127
17, 48660, Note_on_c, 9, 36, 0
17, 48720, Note_on_c, 9, 36, 127
17, 48780, Note_on_c, 9, 36, 0
17, 48840, Note_on_c, 9, 36, 127
17, 48900, Note_on_c, 9, 36, 0
17, 48960, Note_on_c, 9, 36, 127
17, 49020, Note_on_c, 9, 36, 0
17, 49080, Note_on_c, 9, 36, 127
17, 49140, Note_on_c, 9, 36, 0
17, 49200, Note_on_c, 9, 36, 127
17, 49260, Note_on_c, 9, 36, 0
17, 49320, Note_on_c, 9, 36, 127
17, 49380, Note_on_c, 9, 36, 0
17, 49440, Note_on_c, 9, 36, 127
17, 49500, Note_on_c, 9, 36, 0
17, 49560, Note_on_c, 9, 36, 127
17, 49620, Note_on_c, 9, 36, 0
17, 49680, Note_on_c, 9, 36, 127
17, 49740, Note_on_c, 9, 36, 0
17, 49800, Note_on_c, 9, 36, 127
17, 49860, Note_on_c, 9, 36, 0
17, 49920, Note_on_c, 9, 36, 127
17, 49980, Note_on_c, 9, 36, 0
17, 50040, Note_on_c, 9, 36, 127
17, 50100, Note_on_c, 9, 36, 0
17, 50160, Note_on_c, 9, 36, 127
17, 50220, Note_on_c, 9, 36, 0
17, 50280, Note_on_c, 9, 36, 127
17, 50340, Note_on_c, 9, 36, 0
17, 50400, Note_on_c, 9, 36, 127
17, 50460, Note_on_c, 9, 36, 0
17, 50520, Note_on_c, 9, 36, 127
17, 50580, Note_on_c, 9, 36, 0
17, 50640, Note_on_c, 9, 36, 127
17, 50700, Note_on_c, 9, 36, 0
17, 50760, Note_on_c, 9, 36, 127
17, 50820, Note_on_c, 9, 36, 0
17, 50880, Note_on_c, 9, 36, 127
17, 50940, Note_on_c, 9, 36, 0
17, 51000, Note_on_c, 9, 36, 127
17, 51060, Note_on_c, 9, 36, 0
17, 51120, Note_on_c, 9, 36, 127
17, 51180, Note_on_c, 9, 36, 0
17, 51240, Note_on_c, 9, 36, 127
17, 51300, Note_on_c, 9, 36, 0
17, 51360, Note_on_c, 9, 36, 127
17, 51420, Note_on_c, 9, 36, 0
17, 51480, Note_on_c, 9, 36, 127
17, 51540, Note_on_c, 9, 36, 0
17, 51600, Note_on_c, 9, 36, 127
17, 51660, Note_on_c, 9, 36, 0
17, 51720, Note_on_c, 9, 36, 127
17, 51780, Note_on_c, 9, 36, 0
17, 51840, Note_on_c, 9, 36, 127
17, 51900, Note_on_c, 9, 36, 0
17, 51960, Note_on_c, 9, 36, 127
17, 52020, Note_on_c, 9, 36, 0
17, 52080, Note_on_c, 9, 36, 127
17, 52140, Note_on_c, 9, 36, 0
17, 52200, Note_on_c, 9, 36, 127
17, 52260, Note_on_c, 9, 36, 0
17, 52320, Note_on_c, 9, 36, 127
17, 52380, Note_on_c, 9, 36, 0
17, 52440, Note_on_c, 9, 36, 127
17, 52500, Note_on_c, 9, 36, 0
17, 52560, Note_on_c, 9, 36, 127
17, 52620, Note_on_c, 9, 36, 0
17, 52680, Note_on_c, 9, 36, 127
17, 52740, Note_on_c, 9, 36, 0
17, 52800, Note_on_c, 9, 36, 127
17, 52860, Note_on_c, 9, 36, 0
17, 52920, Note_on_c, 9, 36, 127
17, 52980, Note_on_c, 9, 36, 0
17, 53040, Note_on_c, 9, 36, 127
17, 53100, Note_on_c, 9, 36, 0
17, 53160, Note_on_c, 9, 36, 127
17, 53220, Note_on_c, 9, 36, 0
17, 53280, Note_on_c, 9, 36, 127
17, 53340, Note_on_c, 9, 36, 0
17, 53400, Note_on_c, 9, 36, 127
17, 53460, Note_on_c, 9, 36, 0
17, 53520, Note_on_c, 9, 36, 127
17, 53580, Note_on_c, 9, 36, 0
17, 53640, Note_on_c, 9, 36, 127
17, 53700, Note_on_c, 9, 36, 0
17, 53760, Note_on_c, 9, 36, 127
17, 53820, Note_on_c, 9, 36, 0
17, 53880, Note_on_c, 9, 36, 127
17, 53940, Note_on_c, 9, 36, 0
17, 54000, Note_on_c, 9, 36, 127
17, 54060, Note_on_c, 9, 36, 0
17, 54120, Note_on_c, 9, 36, 127
17, 54180, Note_on_c, 9, 36, 0
17, 54240, Note_on_c, 9, 36, 127
17, 54300, Note_on_c, 9, 36, 0
17, 54360, Note_on_c, 9, 36, 127
17, 54420, Note_on_c, 9, 36, 0
17, 54480, Note_on_c, 9, 36, 127
17, 54540, Note_on_c, 9, 36, 0
17, 54600, Note_on_c, 9, 36, 127
17, 54660, Note_on_c, 9, 36, 0
17, 54720, Note_on_c, 9, 36, 127
17, 54780, Note_on_c, 9, 36, 0
17, 54840, Note_on_c, 9, 36, 127
17, 54900, Note_on_c, 9, 36, 0
17, 54960, Note_on_c, 9, 36, 127
17, 55020, Note_on_c, 9, 36, 0
17, 55080, Note_on_c, 9, 36, 127
17, 55140, Note_on_c, 9, 36, 0
17, 55200, Note_on_c, 9, 36, 127
17, 55260, Note_on_c, 9, 36, 0
17, 55320, Note_on_c, 9, 36, 127
17, 55380, Note_on_c, 9, 36, 0
17, 55440, Note_on_c, 9, 36, 127
17, 55500, Note_on_c, 9, 36, 0
17, 55560, Note_on_c, 9, 36, 127
17, 55620, Note_on_c, 9, 36, 0
17, 55680, Note_on_c, 9, 36, 127
17, 55740, Note_on_c, 9, 36, 0
17, 55800, Note_on_c, 9, 36, 127
17, 55860, Note_on_c, 9, 36, 0
17, 55920, Note_on_c, 9, 36, 127
17, 55980, Note_on_c, 9, 36, 0
17, 56040, Note_on_c, 9, 36, 127
17, 56100, Note_on_c, 9, 36, 0
17, 56160, Note_on_c, 9, 36, 127
17, 56220, Note_on_c, 9, 36, 0
17, 56280, Note_on_c, 9, 36, 127
17, 56340, Note_on_c, 9, 36, 0
17, 56400, Note_on_c, 9, 36, 127
17, 56460, Note_on_c, 9, 36, 0
17, 56520, Note_on_c, 9, 36, 127
17, 56580, Note_on_c, 9, 36, 0
17, 56640, Note_on_c, 9, 36, 127
17, 56700, Note_on_c, 9, 36, 0
17, 56760, Note_on_c, 9, 36, 127
17, 56820, Note_on_c, 9, 36, 0
17, 56880, Note_on_c, 9, 36, 127
17, 56940, Note_on_c, 9, 36, 0
17, 57000, Note_on_c, 9, 36, 127
17, 57060, Note_on_c, 9, 36, 0
17, 57120, Note_on_c, 9, 36, 127
17, 57180, Note_on_c, 9, 36, 0
17, 57240, Note_on_c, 9, 36, 127
17, 57300, Note_on_c, 9, 36, 0
17, 57360, Note_on_c, 9, 36, 127
17, 57420, Note_on_c, 9, 36, 0
17, 57480, Note_on_c, 9, 36, 127
17, 57540, Note_on_c, 9, 36, 0
17, 57600, Note_on_c, 9, 36, 127
17, 57660, Note_on_c, 9, 36, 0
17, 57720, Note_on_c, 9, 36, 127
17, 57780, Note_on_c, 9, 36, 0
17, 57840, Note_on_c, 9, 36, 127
17, 57900, Note_on_c, 9, 36, 0
17, 57960, Note_on_c, 9, 36, 127
17, 58020, Note_on_c, 9, 36, 0
17, 58080, Note_on_c, 9, 36, 127
17, 58140, Note_on_c, 9, 36, 0
17, 58200, Note_on_c, 9, 36, 127
17, 58260, Note_on_c, 9, 36, 0
17, 58320, Note_on_c, 9, 36, 127
17, 58380, Note_on_c, 9, 36, 0
17, 58440, Note_on_c, 9, 36, 127
17, 58500, Note_on_c, 9, 36, 0
17, 58560, Note_on_c, 9, 36, 127
17, 58620, Note_on_c, 9, 36, 0
17, 58680, Note_on_c, 9, 36, 127
17, 58740, Note_on_c, 9, 36, 0
17, 58800, Note_on_c, 9, 36, 127
17, 58860, Note_on_c, 9, 36, 0
17, 58920, Note_on_c, 9, 36, 127
17, 58980, Note_on_c, 9, 36, 0
17, 59040, Note_on_c, 9, 36, 127
17, 59100, Note_on_c, 9, 36, 0
17, 59160, Note_on_c, 9, 36, 127
17, 59220, Note_on_c, 9, 36, 0
17, 59280, Note_on_c, 9, 36, 127
17, 59340, Note_on_c, 9, 36, 0
17, 59400, Note_on_c, 9, 36, 127
17, 59460, Note_on_c, 9, 36, 0
17, 59520, Note_on_c, 9, 36, 127
17, 59580, Note_on_c, 9, 36, 0
17, 59640, Note_on_c, 9, 36, 127
17, 59700, Note_on_c, 9, 36, 0
17, 59760, Note_on_c, 9, 36, 127
17, 59820, Note_on_c, 9, 36, 0
17, 59880, Note_on_c, 9, 36, 127
17, 59940, Note_on_c, 9, 36, 0
17, 60000, Note_on_c, 9, 36, 127
17, 60060, Note_on_c, 9, 36, 0
17, 60120, Note_on_c, 9, 36, 127
17, 60180, Note_on_c, 9, 36, 0
17, 60240, Note_on_c, 9, 36, 127
17, 60300, Note_on_c, 9, 36, 0
17, 60360, Note_on_c, 9, 36, 127
17, 60420, Note_on_c, 9, 36, 0
17, 60480, Note_on_c, 9, 36, 127
17, 60540, Note_on_c, 9, 36, 0
17, 60600, Note_on_c, 9, 36, 127
17, 60660, Note_on_c, 9, 36, 0
17, 60720, Note_on_c, 9, 36, 127
17, 60780, Note_on_c, 9, 36, 0
17, 60840, Note_on_c, 9, 36, 127
17, 60900, Note_on_c, 9, 36, 0
17, 60960, Note_on_c, 9, 36, 127
17, 61020, Note_on_c, 9, 36, 0
17, 61080, Note_on_c, 9, 36, 127
17, 61140, Note_on_c, 9, 36, 0
17, 61200, Note_on_c, 9, 36, 127
17, 61260, Note_on_c, 9, 36, 0
17, 61320, Note_on_c, 9, 36, 127
17, 61380, Note_on_c, 9, 36, 0
17, 61440, Note_on_c, 9, 36, 127
17, 61500, Note_on_c, 9, 36, 0
17, 61560, Note_on_c, 9, 36, 127
17, 61620, Note_on_c, 9, 36, 0
17, 61680, Note_on_c, 9, 36, 127
17, 61740, Note_on_c, 9, 36, 0
17, 61800, Note_on_c, 9, 36, 127
17, 61860, Note_on_c, 9, 36, 0
17, 61920, Note_on_c, 9, 36, 127
17, 61980, Note_on_c, 9, 36, 0
17, 62040, Note_on_c, 9, 36, 127
17, 62100, Note_on_c, 9, 36, 0
17, 62160, Note_on_c, 9, 36, 127
17, 62220, Note_on_c, 9, 36, 0
17, 62280, Note_on_c, 9, 36, 127
17, 62340, Note_on_c, 9, 36, 0
17, 62400, Note_on_c, 9, 36, 127
17, 62460, Note_on_c, 9, 36, 0
17, 62520, Note_on_c, 9, 36, 127
17, 62580, Note_on_c, 9, 36, 0
17, 62640, Note_on_c, 9, 36, 127
17, 62700, Note_on_c, 9, 36, 0
17, 62760, Note_on_c, 9, 36, 127
17, 62820, Note_on_c, 9, 36, 0
17, 62880, Note_on_c, 9, 36, 127
17, 62940, Note_on_c, 9, 36, 0
17, 63000, Note_on_c, 9, 36, 127
17, 63060, Note_on_c, 9, 36, 0
17, 63120, Note_on_c, 9, 36, 127
17, 63180, Note_on_c, 9, 36, 0
17, 63240, Note_on_c, 9, 36, 127
17, 63300, Note_on_c, 9, 36, 0
17, 63360, Note_on_c, 9, 36, 127
17, 63420, Note_on_c, 9, 36, 0
17, 63480, Note_on_c, 9, 36, 127
17, 63540, Note_on_c, 9, 36, 0
17, 63600, Note_on_c, 9, 36, 127
17, 63660, Note_on_c, 9, 36, 0
17, 63720, Note_on_c, 9, 36, 127
17, 63780, Note_on_c, 9, 36, 0
17, 63840, Note_on_c, 9, 36, 127
17, 63900, Note_on_c, 9, 36, 0
17, 63960, Note_on_c, 9, 36, 127
17, 64020, Note_on_c, 9, 36, 0
17, 64080, Note_on_c, 9, 36, 127
17, 64140, Note_on_c, 9, 36, 0
17, 64200, Note_on_c, 9, 36, 127
17, 64260, Note_on_c, 9, 36, 0
17, 64320, Note_on_c, 9, 36, 127
17, 64380, Note_on_c, 9, 36, 0
17, 64440, Note_on_c, 9, 36, 127
17, 64500, Note_on_c, 9, 36, 0
17, 64560, Note_on_c, 9, 36, 127
17, 64620, Note_on_c, 9, 36, 0
17, 64680, Note_on_c, 9, 36, 127
17, 64740, Note_on_c, 9, 36, 0
17, 64800, Note_on_c, 9, 36, 127
17, 64860, Note_on_c, 9, 36, 0
17, 64920, Note_on_c, 9, 36, 127
17, 64980, Note_on_c, 9, 36, 0
17, 65040, Note_on_c, 9, 36, 127
17, 65100, Note_on_c, 9, 36, 0
17, 65160, Note_on_c, 9, 36, 127
17, 65220, Note_on_c, 9, 36, 0
17, 65280, Note_on_c, 9, 36, 127
17, 65340, Note_on_c, 9, 36, 0
17, 65400, Note_on_c, 9, 36, 127
17, 65460, Note_on_c, 9, 36, 0
17, 65520, Note_on_c, 9, 36, 127
17, 65580, Note_on_c, 9, 36, 0
17, 65640, Note_on_c, 9, 36, 127
17, 65700, Note_on_c, 9, 36, 0
17, 65760, Note_on_c, 9, 36, 127
17, 65820, Note_on_c, 9, 36, 0
17, 65880, Note_on_c, 9, 36, 127
17, 65940, Note_on_c, 9, 36, 0
17, 66000, Note_on_c, 9, 36, 127
17, 66060, Note_on_c, 9, 36, 0
17, 66120, Note_on_c, 9, 36, 127
17, 66180, Note_on_c, 9, 36, 0
17, 66240, Note_on_c, 9, 36, 127
17, 66300, Note_on_c, 9, 36, 0
17, 66360, Note_on_c, 9, 36, 127
17, 66420, Note_on_c, 9, 36, 0
17, 66480, Note_on_c, 9, 36, 127
17, 66540, Note_on_c, 9, 36, 0
17, 66600, Note_on_c, 9, 36, 127
17, 66660, Note_on_c, 9, 36, 0
17, 66720, Note_on_c, 9, 36, 127
17, 66780, Note_on_c, 9, 36, 0
17, 66840, Note_on_c, 9, 36, 127
17, 66900, Note_on_c, 9, 36, 0
17, 66960, Note_on_c, 9, 36, 127
17, 67020, Note_on_c, 9, 36, 0
17, 67080, Note_on_c, 9, 36, 127
17, 67140, Note_on_c, 9, 36, 0
17, 67200, Note_on_c, 9, 36, 127
17, 67260, Note_on_c, 9, 36, 0
17, 67320, Note_on_c, 9, 36, 127
17, 67380, Note_on_c, 9, 36, 0
17, 67440, Note_on_c, 9, 36, 127
17, 67500, Note_on_c, 9, 36, 0
17, 67560, Note_on_c, 9, 36, 127
17, 67620, Note_on_c, 9, 36, 0
17, 67680, Note_on_c, 9, 36, 127
17, 67740, Note_on_c, 9, 36, 0
17, 67800, Note_on_c, 9, 36, 127
17, 67860, Note_on_c, 9, 36, 0
17, 67920, Note_on_c, 9, 36, 127
17, 67980, Note_on_c, 9, 36, 0
17, 68040, Note_on_c, 9, 36, 127
17, 68100, Note_on_c, 9, 36, 0
17, 68160, Note_on_c, 9, 36, 127
17, 68220, Note_on_c, 9, 36, 0
17, 68280, Note_on_c, 9, 36, 127
17, 68340, Note_on_c, 9, 36, 0
17, 68400, Note_on_c, 9, 36, 127
17, 68460, Note_on_c, 9, 36, 0
17, 68520, Note_on_c, 9, 36, 127
17, 68580, Note_on_c, 9, 36, 0
17, 68640, Note_on_c, 9, 36, 127
17, 68700, Note_on_c, 9, 36, 0
17, 68760, Note_on_c, 9, 36, 127
17, 68820, Note_on_c, 9, 36, 0
17, 68880, Note_on_c, 9, 36, 127
17, 68940, Note_on_c, 9, 36, 0
17, 69000, Note_on_c, 9, 36, 127
17, 69060, Note_on_c, 9, 36, 0
17, 69120, Note_on_c, 9, 36, 127
17, 69180, Note_on_c, 9, 36, 0
17, 69240, Note_on_c, 9, 36, 127
17, 69300, Note_on_c, 9, 36, 0
17, 69360, Note_on_c, 9, 36, 127
17, 69420, Note_on_c, 9, 36, 0
17, 69480, Note_on_c, 9, 36, 127
17, 69540, Note_on_c, 9, 36, 0
17, 69600, Note_on_c, 9, 36, 127
17, 69660, Note_on_c, 9, 36, 0
17, 69720, Note_on_c, 9, 36, 127
17, 69780, Note_on_c, 9, 36, 0
17, 69840, Note_on_c, 9, 36, 127
17, 69900, Note_on_c, 9, 36, 0
17, 69960, Note_on_c, 9, 36, 127
17, 70020, Note_on_c, 9, 36, 0
17, 70080, Note_on_c, 9, 36, 127
17, 70140, Note_on_c, 9, 36, 0
17, 70200, Note_on_c, 9, 36, 127
17, 70260, Note_on_c, 9, 36, 0
17, 70320, Note_on_c, 9, 36, 127
17, 70380, Note_on_c, 9, 36, 0
17, 70440, Note_on_c, 9, 36, 127
17, 70500, Note_on_c, 9, 36, 0
17, 70560, Note_on_c, 9, 36, 127
17, 70620, Note_on_c, 9, 36, 0
17, 70680, Note_on_c, 9, 36, 127
17, 70740, Note_on_c, 9, 36, 0
17, 70800, Note_on_c, 9, 36, 127
17, 70860, Note_on_c, 9, 36, 0
17, 70920, Note_on_c, 9, 36, 127
17, 70980, Note_on_c, 9, 36, 0
17, 71040, Note_on_c, 9, 36, 127
17, 71100, Note_on_c, 9, 36, 0
17, 71160, Note_on_c, 9, 36, 127
17, 71220, Note_on_c, 9, 36, 0
17, 71280, Note_on_c, 9, 36, 127
17, 71340, Note_on_c, 9, 36, 0
17, 71400, Note_on_c, 9, 36, 127
17, 71460, Note_on_c, 9, 36, 0
17, 71520, Note_on_c, 9, 36, 127
17, 71580, Note_on_c, 9, 36, 0
17, 71640, Note_on_c, 9, 36, 127
17, 71700, Note_on_c, 9, 36, 0
17, 71760, Note_on_c, 9, 36, 127
17, 71820, Note_on_c, 9, 36, 0
17, 71880, Note_on_c, 9, 36, 127
17, 71940, Note_on_c, 9, 36, 0
17, 72000, Note_on_c, 9, 36, 127
17, 72060, Note_on_c, 9, 36, 0
17, 72120, Note_on_c, 9, 36, 127
17, 72180, Note_on_c, 9, 36, 0
17, 72240, Note_on_c, 9, 36, 127
17, 72300, Note_on_c, 9, 36, 0
17, 72360, Note_on_c, 9, 36, 127
17, 72420, Note_on_c, 9, 36, 0
17, 72480, Note_on_c, 9, 36, 127
17, 72540, Note_on_c, 9, 36, 0
17, 72600, Note_on_c, 9, 36, 127
17, 72660, Note_on_c, 9, 36, 0
17, 72720, Note_on_c, 9, 36, 127
17, 72780, Note_on_c, 9, 36, 0
17, 72840, Note_on_c, 9, 36, 127
17, 72900, Note_on_c, 9, 36, 0
17, 72960, Note_on_c, 9, 36, 127
17, 73020, Note_on_c, 9, 36, 0
17, 73080, Note_on_c, 9, 36, 127
17, 73140, Note_on_c, 9, 36, 0
17, 73200, Note_on_c, 9, 36, 127
17, 73260, Note_on_c, 9, 36, 0
17, 73320, Note_on_c, 9, 36, 127
17, 73380, Note_on_c, 9, 36, 0
17, 73440, Note_on_c, 9, 36, 127
17, 73500, Note_on_c, 9, 36, 0
17, 73560, Note_on_c, 9, 36, 127
17, 73620, Note_on_c, 9, 36, 0
17, 73680, Note_on_c, 9, 36, 127
17, 73740, Note_on_c, 9, 36, 0
17, 73800, Note_on_c, 9, 36, 127
17, 73860, Note_on_c, 9, 36, 0
17, 73920, Note_on_c, 9, 36, 127
17, 73980, Note_on_c, 9, 36, 0
17, 74040, Note_on_c, 9, 36, 127
17, 74100, Note_on_c, 9, 36, 0
17, 74160, Note_on_c, 9, 36, 127
17, 74220, Note_on_c, 9, 36, 0
17, 74280, Note_on_c, 9, 36, 127
17, 74340, Note_on_c, 9, 36, 0
17, 74400, Note_on_c, 9, 36, 127
17, 74460, Note_on_c, 9, 36, 0
17, 74520, Note_on_c, 9, 36, 127
17, 74580, Note_on_c, 9, 36, 0
17, 74640, Note_on_c, 9, 36, 127
17, 74700, Note_on_c, 9, 36, 0
17, 74760, Note_on_c, 9, 36, 127
17, 74820, Note_on_c, 9, 36, 0
17, 74880, Note_on_c, 9, 36, 127
17, 74940, Note_on_c, 9, 36, 0
17, 75000, Note_on_c, 9, 36, 127
17, 75060, Note_on_c, 9, 36, 0
17, 75120, Note_on_c, 9, 36, 127
17, 75180, Note_on_c, 9, 36, 0
17, 75240, Note_on_c, 9, 36, 127
17, 75300, Note_on_c, 9, 36, 0
17, 75360, Note_on_c, 9, 36, 127
17, 75420, Note_on_c, 9, 36, 0
17, 75480, Note_on_c, 9, 36, 127
17, 75540, Note_on_c, 9, 36, 0
17, 75600, Note_on_c, 9, 36, 127
17, 75660, Note_on_c, 9, 36, 0
17, 75720, Note_on_c, 9, 36, 127
17, 75780, Note_on_c, 9, 36, 0
17, 75840, Note_on_c, 9, 36, 127
17, 75900, Note_on_c, 9, 36, 0
17, 75960, Note_on_c, 9, 36, 127
17, 76020, Note_on_c, 9, 36, 0
17, 76080, Note_on_c, 9, 36, 127
17, 76140, Note_on_c, 9, 36, 0
17, 76200, Note_on_c, 9, 36, 127
17, 76260, Note_on_c, 9, 36, 0
17, 76320, Note_on_c, 9, 36, 127
17, 76380, Note_on_c, 9, 36, 0
17, 76440, Note_on_c, 9, 36, 127
17, 76500, Note_on_c, 9, 36, 0
17, 76560, Note_on_c, 9, 36, 127
17, 76620, Note_on_c, 9, 36, 0
17, 76680, Note_on_c, 9, 36, 127
17, 76740, Note_on_c, 9, 36, 0
17, 76800, Note_on_c, 9, 36, 127
17, 76860, Note_on_c, 9, 36, 0
17, 76920, Note_on_c, 9, 36, 127
17, 76980, Note_on_c, 9, 36, 0
17, 77040, Note_on_c, 9, 36, 127
17, 77100, Note_on_c, 9, 36, 0
17, 77160, Note_on_c, 9, 36, 127
17, 77220, Note_on_c, 9, 36, 0
17, 77280, Note_on_c, 9, 36, 127
17, 77340, Note_on_c, 9, 36, 0
17, 77400, Note_on_c, 9, 36, 127
17, 77460, Note_on_c, 9, 36, 0
17, 77520, Note_on_c, 9, 36, 127
17, 77580, Note_on_c, 9, 36, 0
17, 77640, Note_on_c, 9, 36, 127
17, 77700, Note_on_c, 9, 36, 0
17, 77760, Note_on_c, 9, 36, 127
17, 77820, Note_on_c, 9, 36, 0
17, 77880, Note_on_c, 9, 36, 127
17, 77940, Note_on_c, 9, 36, 0
17, 78000, Note_on_c, 9, 36, 127
17, 78060, Note_on_c, 9, 36, 0
17, 78120, Note_on_c, 9, 36, 127
17, 78180, Note_on_c, 9, 36, 0
17, 78240, Note_on_c, 9, 36, 127
17, 78300, Note_on_c, 9, 36, 0
17, 78360, Note_on_c, 9, 36, 127
17, 78420, Note_on_c, 9, 36, 0
17, 78480, Note_on_c, 9, 36, 127
17, 78540, Note_on_c, 9, 36, 0
17, 78600, Note_on_c, 9, 36, 127
17, 78660, Note_on_c, 9, 36, 0
17, 78720, Note_on_c, 9, 36, 127
17, 78780, Note_on_c, 9, 36, 0
17, 78840, Note_on_c, 9, 36, 127
17, 78900, Note_on_c, 9, 36, 0
17, 78960, Note_on_c, 9, 36, 127
17, 79020, Note_on_c, 9, 36, 0
17, 79080, Note_on_c, 9, 36, 127
17, 79140, Note_on_c, 9, 36, 0
17, 79200, Note_on_c, 9, 36, 127
17, 79260, Note_on_c, 9, 36, 0
17, 79320, Note_on_c, 9, 36, 127
17, 79380, Note_on_c, 9, 36, 0
17, 79440, Note_on_c, 9, 36, 127
17, 79500, Note_on_c, 9, 36, 0
17, 79560, Note_on_c, 9, 36, 127
17, 79620, Note_on_c, 9, 36, 0
17, 79680, Note_on_c, 9, 36, 127
17, 79740, Note_on_c, 9, 36, 0
17, 79800, Note_on_c, 9, 36, 127
17, 79860, Note_on_c, 9, 36, 0
17, 79920, Note_on_c, 9, 36, 127
17, 79980, Note_on_c, 9, 36, 0
17, 80040, Note_on_c, 9, 36, 127
17, 80100, Note_on_c, 9, 36, 0
17, 80160, Note_on_c, 9, 36, 127
17, 80220, Note_on_c, 9, 36, 0
17, 80280, Note_on_c, 9, 36, 127
17, 80340, Note_on_c, 9, 36, 0
17, 80400, Note_on_c, 9, 36, 127
17, 80460, Note_on_c, 9, 36, 0
17, 80520, Note_on_c, 9, 36, 127
17, 80580, Note_on_c, 9, 36, 0
17, 80640, Note_on_c, 9, 36, 127
17, 80700, Note_on_c, 9, 36, 0
17, 80760, Note_on_c, 9, 36, 127
17, 80820, Note_on_c, 9, 36, 0
17, 80880, Note_on_c, 9, 36, 127
17, 80940, Note_on_c, 9, 36, 0
17, 81000, Note_on_c, 9, 36, 127
17, 81060, Note_on_c, 9, 36, 0
17, 81120, Note_on_c, 9, 36, 127
17, 81180, Note_on_c, 9, 36, 0
17, 81240, Note_on_c, 9, 36, 127
17, 81300, Note_on_c, 9, 36, 0
17, 81360, Note_on_c, 9, 36, 127
17, 81420, Note_on_c, 9, 36, 0
17, 81480, Note_on_c, 9, 36, 127
17, 81540, Note_on_c, 9, 36, 0
17, 81600, Note_on_c, 9, 36, 127
17, 81660, Note_on_c, 9, 36, 0
17, 81720, Note_on_c, 9, 36, 127
17, 81780, Note_on_c, 9, 36, 0
17, 81840, Note_on_c, 9, 36, 127
17, 81900, Note_on_c, 9, 36, 0
17, 81960, Note_on_c, 9, 36, 127
17, 82020, Note_on_c, 9, 36, 0
17, 82080, Note_on_c, 9, 36, 127
17, 82140, Note_on_c, 9, 36, 0
17, 82200, Note_on_c, 9, 36, 127
17, 82260, Note_on_c, 9, 36, 0
17, 82320, Note_on_c, 9, 36, 127
17, 82380, Note_on_c, 9, 36, 0
17, 82440, Note_on_c, 9, 36, 127
17, 82500, Note_on_c, 9, 36, 0
17, 82560, Note_on_c, 9, 36, 127
17, 82620, Note_on_c, 9, 36, 0
17, 82680, Note_on_c, 9, 36, 127
17, 82740, Note_on_c, 9, 36, 0
17, 82800, Note_on_c, 9, 36, 127
17, 82860, Note_on_c, 9, 36, 0
17, 82920, Note_on_c, 9, 36, 127
17, 82980, Note_on_c, 9, 36, 0
17, 83040, Note_on_c, 9, 36, 127
17, 83100, Note_on_c, 9, 36, 0
17, 83160, Note_on_c, 9, 36, 127
17, 83220, Note_on_c, 9, 36, 0
17, 83280, Note_on_c, 9, 36, 127
17, 83340, Note_on_c, 9, 36, 0
17, 83400, Note_on_c, 9, 36, 127
17, 83460, Note_on_c, 9, 36, 0
17, 83520, Note_on_c, 9, 36, 127
17, 83580, Note_on_c, 9, 36, 0
17, 83640, Note_on_c, 9, 36, 127
17, 83700, Note_on_c, 9, 36, 0
17, 83760, Note_on_c, 9, 36, 127
17, 83820, Note_on_c, 9, 36, 0
17, 83880, Note_on_c, 9, 36, 127
17, 83940, Note_on_c, 9, 36, 0
17, 84000, Note_on_c, 9, 36, 127
17, 84060, Note_on_c, 9, 36, 0
17, 84120, Note_on_c, 9, 36, 127
17, 84180, Note_on_c, 9, 36, 0
17, 84240, Note_on_c, 9, 36, 127
17, 84300, Note_on_c, 9, 36, 0
17, 84360, Note_on_c, 9, 36, 127
17, 84420, Note_on_c, 9, 36, 0
17, 84480, Note_on_c, 9, 36, 127
17, 84540, Note_on_c, 9, 36, 0
17, 84600, Note_on_c, 9, 36, 127
17, 84660, Note_on_c, 9, 36, 0
17, 84720, Note_on_c, 9, 36, 127
17, 84780, Note_on_c, 9, 36, 0
17, 84840, Note_on_c, 9, 36, 127
17, 84900, Note_on_c, 9, 36, 0
17, 84960, Note_on_c, 9, 36, 127
17, 85020, Note_on_c, 9, 36, 0
17, 85080, Note_on_c, 9, 36, 127
17, 85140, Note_on_c, 9, 36, 0
17, 85200, Note_on_c, 9, 36, 127
17, 85260, Note_on_c, 9, 36, 0
17, 85320, Note_on_c, 9, 36, 127
17, 85380, Note_on_c, 9, 36, 0
17, 85440, Note_on_c, 9, 36, 127
17, 85500, Note_on_c, 9, 36, 0
17, 85560, Note_on_c, 9, 36, 127
17, 85620, Note_on_c, 9, 36, 0
17, 85680, Note_on_c, 9, 36, 127
17, 85740, Note_on_c, 9, 36, 0
17, 85800, Note_on_c, 9, 36, 127
17, 85860, Note_on_c, 9, 36, 0
17, 85920, Note_on_c, 9, 36, 127
17, 85980, Note_on_c, 9, 36, 0
17, 86040, Note_on_c, 9, 36, 127
17, 86100, Note_on_c, 9, 36, 0
17, 86160, Note_on_c, 9, 36, 127
17, 86220, Note_on_c, 9, 36, 0
17, 86280, Note_on_c, 9, 36, 127
17, 86340, Note_on_c, 9, 36, 0
17, 86400, Note_on_c, 9, 36, 127
17, 86460, Note_on_c, 9, 36, 0
17, 86520, Note_on_c, 9, 36, 127
17, 86580, Note_on_c, 9, 36, 0
17, 86640, Note_on_c, 9, 36, 127
17, 86700, Note_on_c, 9, 36, 0
17, 86760, Note_on_c, 9, 36, 127
17, 86820, Note_on_c, 9, 36, 0
17, 86880, Note_on_c, 9, 36, 127
17, 86940, Note_on_c, 9, 36, 0
17, 87000, Note_on_c, 9, 36, 127
17, 87060, Note_on_c, 9, 36, 0
17, 87120, Note_on_c, 9, 36, 127
17, 87180, Note_on_c, 9, 36, 0
17, 87240, Note_on_c, 9, 36, 127
17, 87300, Note_on_c, 9, 36, 0
17, 87360, Note_on_c, 9, 36, 127
17, 87420, Note_on_c, 9, 36, 0
17, 87480, Note_on_c, 9, 36, 127
17, 87540, Note_on_c, 9, 36, 0
17, 87600, Note_on_c, 9, 36, 127
17, 87660, Note_on_c, 9, 36, 0
17, 87720, Note_on_c, 9, 36, 127
17, 87780, Note_on_c, 9, 36, 0
17, 87840, Note_on_c, 9, 36, 127
17, 87900, Note_on_c, 9, 36, 0
17, 87960, Note_on_c, 9, 36, 127
17, 88020, Note_on_c, 9, 36, 0
17, 88080, Note_on_c, 9, 36, 127
17, 88140, Note_on_c, 9, 36, 0
17, 88200, Note_on_c, 9, 36, 127
17, 88260, Note_on_c, 9, 36, 0
17, 88320, Note_on_c, 9, 36, 127
17, 88380, Note_on_c, 9, 36, 0
17, 88440, Note_on_c, 9, 36, 127
17, 88500, Note_on_c, 9, 36, 0
17, 88560, Note_on_c, 9, 36, 127
17, 88620, Note_on_c, 9, 36, 0
17, 88680, Note_on_c, 9, 36, 127
17, 88740, Note_on_c, 9, 36, 0
17, 88800, Note_on_c, 9, 36, 127
17, 88860, Note_on_c, 9, 36, 0
17, 88920, Note_on_c, 9, 36, 127
17, 88980, Note_on_c, 9, 36, 0
17, 89040, Note_on_c, 9, 36, 127
17, 89100, Note_on_c, 9, 36, 0
17, 89160, Note_on_c, 9, 36, 127
17, 89220, Note_on_c, 9, 36, 0
17, 89280, Note_on_c, 9, 36, 127
17, 89340, Note_on_c, 9, 36, 0
17, 89400, Note_on_c, 9, 36, 127
17, 89460, Note_on_c, 9, 36, 0
17, 89520, Note_on_c, 9, 36, 127
17, 89580, Note_on_c, 9, 36, 0
17, 89640, Note_on_c, 9, 36, 127
17, 89700, Note_on_c, 9, 36, 0
17, 89760, Note_on_c, 9, 36, 127
17, 89820, Note_on_c, 9, 36, 0
17, 89880, Note_on_c, 9, 36, 127
17, 89940, Note_on_c, 9, 36, 0
17, 90000, Note_on_c, 9, 36, 127
17, 90060, Note_on_c, 9, 36, 0
17, 90120, Note_on_c, 9, 36, 127
17, 90180, Note_on_c, 9, 36, 0
17, 90240, Note_on_c, 9, 36, 127
17, 90300, Note_on_c, 9, 36, 0
17, 90360, Note_on_c, 9, 36, 127
17, 90420, Note_on_c, 9, 36, 0
17, 90480, Note_on_c, 9, 36, 127
17, 90540, Note_on_c, 9, 36, 0
17, 90600, Note_on_c, 9, 36, 127
17, 90660, Note_on_c, 9, 36, 0
17, 90720, Note_on_c, 9, 36, 127
17, 90780, Note_on_c, 9, 36, 0
17, 90840, Note_on_c, 9, 36, 127
17, 90900, Note_on_c, 9, 36, 0
17, 90960, Note_on_c, 9, 36, 127
17, 91020, Note_on_c, 9, 36, 0
17, 91080, Note_on_c, 9, 36, 127
17, 91140, Note_on_c, 9, 36, 0
17, 91200, Note_on_c, 9, 36, 127
17, 91260, Note_on_c, 9, 36, 0
17, 91320, Note_on_c, 9, 36, 127
17, 91380, Note_on_c, 9, 36, 0
17, 91440, Note_on_c, 9, 36, 127
17, 91500, Note_on_c, 9, 36, 0
17, 91560, Note_on_c, 9, 36, 127
17, 91620, Note_on_c, 9, 36, 0
17, 91680, Note_on_c, 9, 36, 127
17, 91740, Note_on_c, 9, 36, 0
17, 91800, Note_on_c, 9, 36, 127
17, 91860, Note_on_c, 9, 36, 0
17, 91920, Note_on_c, 9, 36, 127
17, 91980, Note_on_c, 9, 36, 0
17, 92040, Note_on_c, 9, 36, 127
17, 92100, Note_on_c, 9, 36, 0
17, 92160, Note_on_c, 9, 36, 127
17, 92220, Note_on_c, 9, 36, 0
17, 92280, Note_on_c, 9, 36, 127
17, 92340, Note_on_c, 9, 36, 0
17, 92400, Note_on_c, 9, 36, 127
17, 92460, Note_on_c, 9, 36, 0
17, 92520, Note_on_c, 9, 36, 127
17, 92580, Note_on_c, 9, 36, 0
17, 92640, Note_on_c, 9, 36, 127
17, 92700, Note_on_c, 9, 36, 0
17, 92760, Note_on_c, 9, 36, 127
17, 92820, Note_on_c, 9, 36, 0
17, 92880, Note_on_c, 9, 36, 127
17, 92940, Note_on_c, 9, 36, 0
17, 93000, Note_on_c, 9, 36, 127
17, 93060, Note_on_c, 9, 36, 0
17, 93120, Note_on_c, 9, 36, 127
17, 93180, Note_on_c, 9, 36, 0
17, 93240, Note_on_c, 9, 36, 127
17, 93300, Note_on_c, 9, 36, 0
17, 93360, Note_on_c, 9, 36, 127
17, 93420, Note_on_c, 9, 36, 0
17, 93480, Note_on_c, 9, 36, 127
17, 93540, Note_on_c, 9, 36, 0
17, 93600, Note_on_c, 9, 36, 127
17, 93660, Note_on_c, 9, 36, 0
17, 93720, Note_on_c, 9, 36, 127
17, 93780, Note_on_c, 9, 36, 0
17, 93840, Note_on_c, 9, 36, 127
17, 93900, Note_on_c, 9, 36, 0
17, 93960, Note_on_c, 9, 36, 127
17, 94020, Note_on_c, 9, 36, 0
17, 94080, Note_on_c, 9, 36, 127
17, 94140, Note_on_c, 9, 36, 0
17, 94200, Note_on_c, 9, 36, 127
17, 94260, Note_on_c, 9, 36, 0
17, 94320, Note_on_c, 9, 36, 127
17, 94380, Note_on_c, 9, 36, 0
17, 94440, Note_on_c, 9, 36, 127
17, 94500, Note_on_c, 9, 36, 0
17, 94560, Note_on_c, 9, 36, 127
17, 94620, Note_on_c, 9, 36, 0
17, 94680, Note_on_c, 9, 36, 127
17, 94740, Note_on_c, 9, 36, 0
17, 94800, Note_on_c, 9, 36, 127
17, 94860, Note_on_c, 9, 36, 0
17, 94920, Note_on_c, 9, 36, 127
17, 94980, Note_on_c, 9, 36, 0
17, 95040, Note_on_c, 9, 36, 127
17, 95100, Note_on_c, 9, 36, 0
17, 95160, Note_on_c, 9, 36, 127
17, 95220, Note_on_c, 9, 36, 0
17, 95280, Note_on_c, 9, 36, 127
17, 95340, Note_on_c, 9, 36, 0
17, 95400, Note_on_c, 9, 36, 127
17, 95460, Note_on_c, 9, 36, 0
17, 95520, Note_on_c, 9, 36, 127
17, 95580, Note_on_c, 9, 36, 0
17, 95640, Note_on_c, 9, 36, 127
17, 95700, Note_on_c, 9, 36, 0
17, 95760, Note_on_c, 9, 36, 127
17, 95820, Note_on_c, 9, 36, 0
17, 95880, Note_on_c, 9, 36, 127
17, 95940, Note_on_c, 9, 36, 0
17, 96000, Note_on_c, 9, 36, 127
17, 96060, Note_on_c, 9, 36, 0
17, 96120, Note_on_c, 9, 36, 127
17, 96180, Note_on_c, 9, 36, 0
17, 96240, Note_on_c, 9, 36, 127
17, 96300, Note_on_c, 9, 36, 0
17, 96360, Note_on_c, 9, 36, 127
17, 96420, Note_on_c, 9, 36, 0
17, 96480, Note_on_c, 9, 36, 127
17, 96540, Note_on_c, 9, 36, 0
17, 96600, Note_on_c, 9, 36, 127
17, 96660, Note_on_c, 9, 36, 0
17, 96720, Note_on_c, 9, 36, 127
17, 96780, Note_on_c, 9, 36, 0
17, 96840, Note_on_c, 9, 36, 127
17, 96900, Note_on_c, 9, 36, 0
17, 96960, Note_on_c, 9, 36, 127
17, 97020, Note_on_c, 9, 36, 0
17, 97080, Note_on_c, 9, 36, 127
17, 97140, Note_on_c, 9, 36, 0
17, 97200, Note_on_c, 9, 36, 127
17, 97260, Note_on_c, 9, 36, 0
17, 97320, Note_on_c, 9, 36, 127
17, 97380, Note_on_c, 9, 36, 0
17, 97440, Note_on_c, 9, 36, 127
17, 97500, Note_on_c, 9, 36, 0
17, 97560, Note_on_c, 9, 36, 127
17, 97620, Note_on_c, 9, 36, 0
17, 97680, Note_on_c, 9, 36, 127
17, 97740, Note_on_c, 9, 36, 0
17, 97800, Note_on_c, 9, 36, 127
17, 97860, Note_on_c, 9, 36, 0
17, 97920, Note_on_c, 9, 36, 127
17, 97980, Note_on_c, 9, 36, 0
17, 98040, Note_on_c, 9, 36, 127
17, 98100, Note_on_c, 9, 36, 0
17, 98160, Note_on_c, 9, 36, 127
17, 98220, Note_on_c, 9, 36, 0
17, 98280, Note_on_c, 9, 36, 127
17, 98340, Note_on_c, 9, 36, 0
17, 98400, Note_on_c, 9, 36, 127
17, 98460, Note_on_c, 9, 36, 0
17, 98520, Note_on_c, 9, 36, 127
17, 98580, Note_on_c, 9, 36, 0
17, 98640, Note_on_c, 9, 36, 127
17, 98700, Note_on_c, 9, 36, 0
17, 98760, Note_on_c, 9, 36, 127
17, 98820, Note_on_c, 9, 36, 0
17, 98880, Note_on_c, 9, 36, 127
17, 98940, Note_on_c, 9, 36, 0
17, 99000, Note_on_c, 9, 36, 127
17, 99060, Note_on_c, 9, 36, 0
17, 99120, Note_on_c, 9, 36, 127
17, 99180, Note_on_c, 9, 36, 0
17, 99240, Note_on_c, 9, 36, 127
17, 99300, Note_on_c, 9, 36, 0
17, 99360, Note_on_c, 9, 36, 127
17, 99420, Note_on_c, 9, 36, 0
17, 99480, Note_on_c, 9, 36, 127
17, 99540, Note_on_c, 9, 36, 0
17, 99600, Note_on_c, 9, 36, 127
17, 99660, Note_on_c, 9, 36, 0
17, 99720, Note_on_c, 9, 36, 127
17, 99780, Note_on_c, 9, 36, 0
17, 99840, Note_on_c, 9, 36, 127
17, 99900, Note_on_c, 9, 36, 0
17, 99960, Note_on_c, 9, 36, 127
17, 100020, Note_on_c, 9, 36, 0
17, 100080, Note_on_c, 9, 36, 127
17, 100140, Note_on_c, 9, 36, 0
17, 100200, Note_on_c, 9, 36, 127
17, 100260, Note_on_c, 9, 36, 0
17, 100260, End_track
18, 0, Start_track
18, 0, MIDI_port, 0
18, 0, Title_t, "Snare"
18, 2520, Note_on_c, 9, 38, 115
18, 2579, Note_on_c, 9, 38, 0
18, 2760, Note_on_c, 9, 38, 115
18, 2819, Note_on_c, 9, 38, 0
18, 3000, Note_on_c, 9, 38, 115
18, 3059, Note_on_c, 9, 38, 0
18, 3240, Note_on_c, 9, 38, 115
18, 3299, Note_on_c, 9, 38, 0
18, 3480, Note_on_c, 9, 38, 115
18, 3539, Note_on_c, 9, 38, 0
18, 3720, Note_on_c, 9, 38, 115
18, 3779, Note_on_c, 9, 38, 0
18, 3960, Note_on_c, 9, 38, 115
18, 4019, Note_on_c, 9, 38, 0
18, 4200, Note_on_c, 9, 38, 115
18, 4259, Note_on_c, 9, 38, 0
18, 4440, Note_on_c, 9, 38, 115
18, 4499, Note_on_c, 9, 38, 0
18, 4680, Note_on_c, 9, 38, 115
18, 4739, Note_on_c, 9, 38, 0
18, 4920, Note_on_c, 9, 38, 115
18, 4979, Note_on_c, 9, 38, 0
18, 5160, Note_on_c, 9, 38, 115
18, 5219, Note_on_c, 9, 38, 0
18, 5400, Note_on_c, 9, 38, 115
18, 5459, Note_on_c, 9, 38, 0
18, 5640, Note_on_c, 9, 38, 115
18, 5699, Note_on_c, 9, 38, 0
18, 5880, Note_on_c, 9, 38, 115
18, 5939, Note_on_c, 9, 38, 0
18, 6120, Note_on_c, 9, 38, 115
18, 6179, Note_on_c, 9, 38, 0
18, 6360, Note_on_c, 9, 38, 115
18, 6419, Note_on_c, 9, 38, 0
18, 6600, Note_on_c, 9, 38, 115
18, 6659, Note_on_c, 9, 38, 0
18, 6840, Note_on_c, 9, 38, 115
18, 6899, Note_on_c, 9, 38, 0
18, 7080, Note_on_c, 9, 38, 115
18, 7139, Note_on_c, 9, 38, 0
18, 7320, Note_on_c, 9, 38, 115
18, 7379, Note_on_c, 9, 38, 0
18, 7560, Note_on_c, 9, 38, 115
18, 7619, Note_on_c, 9, 38, 0
18, 7800, Note_on_c, 9, 38, 115
18, 7859, Note_on_c, 9, 38, 0
18, 8040, Note_on_c, 9, 38, 115
18, 8099, Note_on_c, 9, 38, 0
18, 8280, Note_on_c, 9, 38, 115
18, 8339, Note_on_c, 9, 38, 0
18, 8520, Note_on_c, 9, 38, 115
18, 8579, Note_on_c, 9, 38, 0
18, 8760, Note_on_c, 9, 38, 115
18, 8819, Note_on_c, 9, 38, 0
18, 9000, Note_on_c, 9, 38, 115
18, 9059, Note_on_c, 9, 38, 0
18, 9240, Note_on_c, 9, 38, 115
18, 9299, Note_on_c, 9, 38, 0
18, 9480, Note_on_c, 9, 38, 115
18, 9539, Note_on_c, 9, 38, 0
18, 9720, Note_on_c, 9, 38, 115
18, 9779, Note_on_c, 9, 38, 0
18, 9960, Note_on_c, 9, 38, 115
18, 10019, Note_on_c, 9, 38, 0
18, 10200, Note_on_c, 9, 38, 115
18, 10259, Note_on_c, 9, 38, 0
18, 10440, Note_on_c, 9, 38, 115
18, 10499, Note_on_c, 9, 38, 0
18, 10680, Note_on_c, 9, 38, 115
18, 10739, Note_on_c, 9, 38, 0
18, 10920, Note_on_c, 9, 38, 115
18, 10979, Note_on_c, 9, 38, 0
18, 11160, Note_on_c, 9, 38, 115
18, 11219, Note_on_c, 9, 38, 0
18, 11400, Note_on_c, 9, 38, 115
18, 11459, Note_on_c, 9, 38, 0
18, 11640, Note_on_c, 9, 38, 115
18, 11699, Note_on_c, 9, 38, 0
18, 11880, Note_on_c, 9, 38, 115
18, 11939, Note_on_c, 9, 38, 0
18, 12120, Note_on_c, 9, 38, 115
18, 12179, Note_on_c, 9, 38, 0
18, 12360, Note_on_c, 9, 38, 115
18, 12419, Note_on_c, 9, 38, 0
18, 12600, Note_on_c, 9, 38, 115
18, 12659, Note_on_c, 9, 38, 0
18, 12840, Note_on_c, 9, 38, 115
18, 12899, Note_on_c, 9, 38, 0
18, 13080, Note_on_c, 9, 38, 115
18, 13139, Note_on_c, 9, 38, 0
18, 13320, Note_on_c, 9, 38, 115
18, 13379, Note_on_c, 9, 38, 0
18, 13560, Note_on_c, 9, 38, 115
18, 13619, Note_on_c, 9, 38, 0
18, 13800, Note_on_c, 9, 38, 115
18, 13859, Note_on_c, 9, 38, 0
18, 14040, Note_on_c, 9, 38, 115
18, 14099, Note_on_c, 9, 38, 0
18, 14280, Note_on_c, 9, 38, 115
18, 14339, Note_on_c, 9, 38, 0
18, 14520, Note_on_c, 9, 38, 115
18, 14579, Note_on_c, 9, 38, 0
18, 14760, Note_on_c, 9, 38, 115
18, 14819, Note_on_c, 9, 38, 0
18, 15000, Note_on_c, 9, 38, 115
18, 15059, Note_on_c, 9, 38, 0
18, 15240, Note_on_c, 9, 38, 115
18, 15299, Note_on_c, 9, 38, 0
18, 15480, Note_on_c, 9, 38, 115
18, 15539, Note_on_c, 9, 38, 0
18, 15720, Note_on_c, 9, 38, 115
18, 15779, Note_on_c, 9, 38, 0
18, 15960, Note_on_c, 9, 38, 115
18, 16019, Note_on_c, 9, 38, 0
18, 16200, Note_on_c, 9, 38, 115
18, 16259, Note_on_c, 9, 38, 0
18, 16440, Note_on_c, 9, 38, 115
18, 16499, Note_on_c, 9, 38, 0
18, 16680, Note_on_c, 9, 38, 115
18, 16739, Note_on_c, 9, 38, 0
18, 16920, Note_on_c, 9, 38, 115
18, 16979, Note_on_c, 9, 38, 0
18, 17160, Note_on_c, 9, 38, 115
18, 17219, Note_on_c, 9, 38, 0
18, 17400, Note_on_c, 9, 38, 115
18, 17459, Note_on_c, 9, 38, 0
18, 17640, Note_on_c, 9, 38, 115
18, 17699, Note_on_c, 9, 38, 0
18, 17880, Note_on_c, 9, 38, 115
18, 17939, Note_on_c, 9, 38, 0
18, 18120, Note_on_c, 9, 38, 115
18, 18179, Note_on_c, 9, 38, 0
18, 18360, Note_on_c, 9, 38, 115
18, 18419, Note_on_c, 9, 38, 0
18, 18600, Note_on_c, 9, 38, 115
18, 18659, Note_on_c, 9, 38, 0
18, 18840, Note_on_c, 9, 38, 115
18, 18899, Note_on_c, 9, 38, 0
18, 19080, Note_on_c, 9, 38, 115
18, 19139, Note_on_c, 9, 38, 0
18, 19320, Note_on_c, 9, 38, 115
18, 19379, Note_on_c, 9, 38, 0
18, 19560, Note_on_c, 9, 38, 115
18, 19619, Note_on_c, 9, 38, 0
18, 19800, Note_on_c, 9, 38, 115
18, 19859, Note_on_c, 9, 38, 0
18, 20040, Note_on_c, 9, 38, 115
18, 20099, Note_on_c, 9, 38, 0
18, 20280, Note_on_c, 9, 38, 115
18, 20339, Note_on_c, 9, 38, 0
18, 20520, Note_on_c, 9, 38, 115
18, 20579, Note_on_c, 9, 38, 0
18, 20760, Note_on_c, 9, 38, 115
18, 20819, Note_on_c, 9, 38, 0
18, 21000, Note_on_c, 9, 38, 115
18, 21059, Note_on_c, 9, 38, 0
18, 21240, Note_on_c, 9, 38, 115
18, 21299, Note_on_c, 9, 38, 0
18, 21480, Note_on_c, 9, 38, 115
18, 21539, Note_on_c, 9, 38, 0
18, 21720, Note_on_c, 9, 38, 115
18, 21779, Note_on_c, 9, 38, 0
18, 21960, Note_on_c, 9, 38, 115
18, 22019, Note_on_c, 9, 38, 0
18, 22200, Note_on_c, 9, 38, 115
18, 22259, Note_on_c, 9, 38, 0
18, 22440, Note_on_c, 9, 38, 115
18, 22499, Note_on_c, 9, 38, 0
18, 22680, Note_on_c, 9, 38, 115
18, 22739, Note_on_c, 9, 38, 0
18, 22920, Note_on_c, 9, 38, 115
18, 22979, Note_on_c, 9, 38, 0
18, 23160, Note_on_c, 9, 38, 115
18, 23219, Note_on_c, 9, 38, 0
18, 23400, Note_on_c, 9, 38, 115
18, 23459, Note_on_c, 9, 38, 0
18, 23640, Note_on_c, 9, 38, 115
18, 23699, Note_on_c, 9, 38, 0
18, 23880, Note_on_c, 9, 38, 115
18, 23939, Note_on_c, 9, 38, 0
18, 24120, Note_on_c, 9, 38, 115
18, 24179, Note_on_c, 9, 38, 0
18, 24360, Note_on_c, 9, 38, 115
18, 24419, Note_on_c, 9, 38, 0
18, 24600, Note_on_c, 9, 38, 115
18, 24659, Note_on_c, 9, 38, 0
18, 24840, Note_on_c, 9, 38, 115
18, 24899, Note_on_c, 9, 38, 0
18, 25080, Note_on_c, 9, 38, 115
18, 25139, Note_on_c, 9, 38, 0
18, 25320, Note_on_c, 9, 38, 115
18, 25379, Note_on_c, 9, 38, 0
18, 25560, Note_on_c, 9, 38, 115
18, 25619, Note_on_c, 9, 38, 0
18, 25800, Note_on_c, 9, 38, 115
18, 25859, Note_on_c, 9, 38, 0
18, 26040, Note_on_c, 9, 38, 115
18, 26099, Note_on_c, 9, 38, 0
18, 26280, Note_on_c, 9, 38, 115
18, 26339, Note_on_c, 9, 38, 0
18, 26520, Note_on_c, 9, 38, 115
18, 26579, Note_on_c, 9, 38, 0
18, 26760, Note_on_c, 9, 38, 115
18, 26819, Note_on_c, 9, 38, 0
18, 27000, Note_on_c, 9, 38, 115
18, 27059, Note_on_c, 9, 38, 0
18, 27240, Note_on_c, 9, 38, 115
18, 27299, Note_on_c, 9, 38, 0
18, 27480, Note_on_c, 9, 38, 115
18, 27539, Note_on_c, 9, 38, 0
18, 27720, Note_on_c, 9, 38, 115
18, 27779, Note_on_c, 9, 38, 0
18, 27960, Note_on_c, 9, 38, 115
18, 28019, Note_on_c, 9, 38, 0
18, 28200, Note_on_c, 9, 38, 115
18, 28259, Note_on_c, 9, 38, 0
18, 28440, Note_on_c, 9, 38, 115
18, 28499, Note_on_c, 9, 38, 0
18, 28680, Note_on_c, 9, 38, 115
18, 28739, Note_on_c, 9, 38, 0
18, 28920, Note_on_c, 9, 38, 115
18, 28979, Note_on_c, 9, 38, 0
18, 29160, Note_on_c, 9, 38, 115
18, 29219, Note_on_c, 9, 38, 0
18, 29400, Note_on_c, 9, 38, 115
18, 29459, Note_on_c, 9, 38, 0
18, 29640, Note_on_c, 9, 38, 115
18, 29699, Note_on_c, 9, 38, 0
18, 29880, Note_on_c, 9, 38, 115
18, 29939, Note_on_c, 9, 38, 0
18, 30120, Note_on_c, 9, 38, 115
18, 30179, Note_on_c, 9, 38, 0
18, 30360, Note_on_c, 9, 38, 115
18, 30419, Note_on_c, 9, 38, 0
18, 30600, Note_on_c, 9, 38, 115
18, 30659, Note_on_c, 9, 38, 0
18, 30840, Note_on_c, 9, 38, 115
18, 30899, Note_on_c, 9, 38, 0
18, 31080, Note_on_c, 9, 38, 115
18, 31139, Note_on_c, 9, 38, 0
18, 31320, Note_on_c, 9, 38, 115
18, 31379, Note_on_c, 9, 38, 0
18, 31560, Note_on_c, 9, 38, 115
18, 31619, Note_on_c, 9, 38, 0
18, 31800, Note_on_c, 9, 38, 115
18, 31859, Note_on_c, 9, 38, 0
18, 32040, Note_on_c, 9, 38, 115
18, 32099, Note_on_c, 9, 38, 0
18, 32280, Note_on_c, 9, 38, 115
18, 32339, Note_on_c, 9, 38, 0
18, 32520, Note_on_c, 9, 38, 115
18, 32579, Note_on_c, 9, 38, 0
18, 32760, Note_on_c, 9, 38, 115
18, 32819, Note_on_c, 9, 38, 0
18, 33000, Note_on_c, 9, 38, 115
18, 33059, Note_on_c, 9, 38, 0
18, 33240, Note_on_c, 9, 38, 115
18, 33299, Note_on_c, 9, 38, 0
18, 33480, Note_on_c, 9, 38, 115
18, 33539, Note_on_c, 9, 38, 0
18, 38760, Note_on_c, 9, 38, 100
18, 38880, Note_on_c, 9, 38, 0
18, 39720, Note_on_c, 9, 38, 100
18, 39840, Note_on_c, 9, 38, 0
18, 40680, Note_on_c, 9, 38, 100
18, 40800, Note_on_c, 9, 38, 0
18, 41640, Note_on_c, 9, 38, 100
18, 41760, Note_on_c, 9, 38, 0
18, 42360, Note_on_c, 9, 38, 115
18, 42419, Note_on_c, 9, 38, 0
18, 42600, Note_on_c, 9, 38, 115
18, 42659, Note_on_c, 9, 38, 0
18, 42840, Note_on_c, 9, 38, 115
18, 42899, Note_on_c, 9, 38, 0
18, 43080, Note_on_c, 9, 38, 115
18, 43139, Note_on_c, 9, 38, 0
18, 43320, Note_on_c, 9, 38, 115
18, 43379, Note_on_c, 9, 38, 0
18, 43560, Note_on_c, 9, 38, 115
18, 43619, Note_on_c, 9, 38, 0
18, 43800, Note_on_c, 9, 38, 115
18, 43859, Note_on_c, 9, 38, 0
18, 44040, Note_on_c, 9, 38, 115
18, 44099, Note_on_c, 9, 38, 0
18, 46200, Note_on_c, 9, 38, 115
18, 46259, Note_on_c, 9, 38, 0
18, 46440, Note_on_c, 9, 38, 115
18, 46499, Note_on_c, 9, 38, 0
18, 46680, Note_on_c, 9, 38, 115
18, 46739, Note_on_c, 9, 38, 0
18, 46920, Note_on_c, 9, 38, 115
18, 46979, Note_on_c, 9, 38, 0
18, 47160, Note_on_c, 9, 38, 115
18, 47219, Note_on_c, 9, 38, 0
18, 47400, Note_on_c, 9, 38, 115
18, 47459, Note_on_c, 9, 38, 0
18, 47640, Note_on_c, 9, 38, 115
18, 47699, Note_on_c, 9, 38, 0
18, 47880, Note_on_c, 9, 38, 115
18, 47939, Note_on_c, 9, 38, 0
18, 48120, Note_on_c, 9, 38, 115
18, 48179, Note_on_c, 9, 38, 0
18, 48360, Note_on_c, 9, 38, 115
18, 48419, Note_on_c, 9, 38, 0
18, 48600, Note_on_c, 9, 38, 115
18, 48659, Note_on_c, 9, 38, 0
18, 48840, Note_on_c, 9, 38, 115
18, 48899, Note_on_c, 9, 38, 0
18, 49080, Note_on_c, 9, 38, 115
18, 49139, Note_on_c, 9, 38, 0
18, 49320, Note_on_c, 9, 38, 115
18, 49379, Note_on_c, 9, 38, 0
18, 49560, Note_on_c, 9, 38, 115
18, 49619, Note_on_c, 9, 38, 0
18, 49800, Note_on_c, 9, 38, 115
18, 49859, Note_on_c, 9, 38, 0
18, 50040, Note_on_c, 9, 38, 115
18, 50099, Note_on_c, 9, 38, 0
18, 50280, Note_on_c, 9, 38, 115
18, 50339, Note_on_c, 9, 38, 0
18, 50520, Note_on_c, 9, 38, 115
18, 50579, Note_on_c, 9, 38, 0
18, 50760, Note_on_c, 9, 38, 115
18, 50819, Note_on_c, 9, 38, 0
18, 51000, Note_on_c, 9, 38, 115
18, 51059, Note_on_c, 9, 38, 0
18, 51240, Note_on_c, 9, 38, 115
18, 51299, Note_on_c, 9, 38, 0
18, 51480, Note_on_c, 9, 38, 115
18, 51539, Note_on_c, 9, 38, 0
18, 51720, Note_on_c, 9, 38, 115
18, 51779, Note_on_c, 9, 38, 0
18, 51960, Note_on_c, 9, 38, 115
18, 52019, Note_on_c, 9, 38, 0
18, 52200, Note_on_c, 9, 38, 115
18, 52259, Note_on_c, 9, 38, 0
18, 52440, Note_on_c, 9, 38, 115
18, 52499, Note_on_c, 9, 38, 0
18, 52680, Note_on_c, 9, 38, 115
18, 52739, Note_on_c, 9, 38, 0
18, 52920, Note_on_c, 9, 38, 115
18, 52979, Note_on_c, 9, 38, 0
18, 53160, Note_on_c, 9, 38, 115
18, 53219, Note_on_c, 9, 38, 0
18, 53400, Note_on_c, 9, 38, 115
18, 53459, Note_on_c, 9, 38, 0
18, 53640, Note_on_c, 9, 38, 115
18, 53699, Note_on_c, 9, 38, 0
18, 53880, Note_on_c, 9, 38, 115
18, 53939, Note_on_c, 9, 38, 0
18, 54120, Note_on_c, 9, 38, 115
18, 54179, Note_on_c, 9, 38, 0
18, 54360, Note_on_c, 9, 38, 115
18, 54419, Note_on_c, 9, 38, 0
18, 54600, Note_on_c, 9, 38, 115
18, 54659, Note_on_c, 9, 38, 0
18, 54840, Note_on_c, 9, 38, 115
18, 54899, Note_on_c, 9, 38, 0
18, 55080, Note_on_c, 9, 38, 115
18, 55139, Note_on_c, 9, 38, 0
18, 55320, Note_on_c, 9, 38, 115
18, 55379, Note_on_c, 9, 38, 0
18, 55560, Note_on_c, 9, 38, 115
18, 55619, Note_on_c, 9, 38, 0
18, 55800, Note_on_c, 9, 38, 115
18, 55859, Note_on_c, 9, 38, 0
18, 56040, Note_on_c, 9, 38, 115
18, 56099, Note_on_c, 9, 38, 0
18, 56280, Note_on_c, 9, 38, 115
18, 56339, Note_on_c, 9, 38, 0
18, 56520, Note_on_c, 9, 38, 115
18, 56579, Note_on_c, 9, 38, 0
18, 56760, Note_on_c, 9, 38, 115
18, 56819, Note_on_c, 9, 38, 0
18, 57000, Note_on_c, 9, 38, 115
18, 57059, Note_on_c, 9, 38, 0
18, 57240, Note_on_c, 9, 38, 115
18, 57299, Note_on_c, 9, 38, 0
18, 57480, Note_on_c, 9, 38, 115
18, 57539, Note_on_c, 9, 38, 0
18, 57720, Note_on_c, 9, 38, 115
18, 57779, Note_on_c, 9, 38, 0
18, 57960, Note_on_c, 9, 38, 115
18, 58019, Note_on_c, 9, 38, 0
18, 58200, Note_on_c, 9, 38, 115
18, 58259, Note_on_c, 9, 38, 0
18, 58440, Note_on_c, 9, 38, 115
18, 58499, Note_on_c, 9, 38, 0
18, 58680, Note_on_c, 9, 38, 115
18, 58739, Note_on_c, 9, 38, 0
18, 58920, Note_on_c, 9, 38, 115
18, 58979, Note_on_c, 9, 38, 0
18, 59160, Note_on_c, 9, 38, 115
18, 59219, Note_on_c, 9, 38, 0
18, 59400, Note_on_c, 9, 38, 115
18, 59459, Note_on_c, 9, 38, 0
18, 61560, Note_on_c, 9, 38, 115
18, 61619, Note_on_c, 9, 38, 0
18, 61800, Note_on_c, 9, 38, 115
18, 61859, Note_on_c, 9, 38, 0
18, 62040, Note_on_c, 9, 38, 115
18, 62099, Note_on_c, 9, 38, 0
18, 62280, Note_on_c, 9, 38, 115
18, 62339, Note_on_c, 9, 38, 0
18, 62520, Note_on_c, 9, 38, 115
18, 62579, Note_on_c, 9, 38, 0
18, 62760, Note_on_c, 9, 38, 115
18, 62819, Note_on_c, 9, 38, 0
18, 63000, Note_on_c, 9, 38, 115
18, 63059, Note_on_c, 9, 38, 0
18, 63240, Note_on_c, 9, 38, 115
18, 63299, Note_on_c, 9, 38, 0
18, 63480, Note_on_c, 9, 38, 115
18, 63539, Note_on_c, 9, 38, 0
18, 63720, Note_on_c, 9, 38, 115
18, 63779, Note_on_c, 9, 38, 0
18, 63960, Note_on_c, 9, 38, 115
18, 64019, Note_on_c, 9, 38, 0
18, 64200, Note_on_c, 9, 38, 115
18, 64259, Note_on_c, 9, 38, 0
18, 64440, Note_on_c, 9, 38, 115
18, 64499, Note_on_c, 9, 38, 0
18, 64680, Note_on_c, 9, 38, 115
18, 64739, Note_on_c, 9, 38, 0
18, 64920, Note_on_c, 9, 38, 115
18, 64979, Note_on_c, 9, 38, 0
18, 65160, Note_on_c, 9, 38, 115
18, 65219, Note_on_c, 9, 38, 0
18, 65400, Note_on_c, 9, 38, 115
18, 65459, Note_on_c, 9, 38, 0
18, 65640, Note_on_c, 9, 38, 115
18, 65699, Note_on_c, 9, 38, 0
18, 65880, Note_on_c, 9, 38, 115
18, 65939, Note_on_c, 9, 38, 0
18, 66120, Note_on_c, 9, 38, 115
18, 66179, Note_on_c, 9, 38, 0
18, 66360, Note_on_c, 9, 38, 115
18, 66419, Note_on_c, 9, 38, 0
18, 66600, Note_on_c, 9, 38, 115
18, 66659, Note_on_c, 9, 38, 0
18, 66840, Note_on_c, 9, 38, 115
18, 66899, Note_on_c, 9, 38, 0
18, 67080, Note_on_c, 9, 38, 115
18, 67139, Note_on_c, 9, 38, 0
18, 73080, Note_on_c, 9, 38, 115
18, 73139, Note_on_c, 9, 38, 0
18, 73320, Note_on_c, 9, 38, 115
18, 73379, Note_on_c, 9, 38, 0
18, 73560, Note_on_c, 9, 38, 115
18, 73619, Note_on_c, 9, 38, 0
18, 73800, Note_on_c, 9, 38, 115
18, 73859, Note_on_c, 9, 38, 0
18, 74040, Note_on_c, 9, 38, 115
18, 74099, Note_on_c, 9, 38, 0
18, 74280, Note_on_c, 9, 38, 115
18, 74339, Note_on_c, 9, 38, 0
18, 74520, Note_on_c, 9, 38, 115
18, 74579, Note_on_c, 9, 38, 0
18, 74760, Note_on_c, 9, 38, 115
18, 74819, Note_on_c, 9, 38, 0
18, 75000, Note_on_c, 9, 38, 115
18, 75059, Note_on_c, 9, 38, 0
18, 75240, Note_on_c, 9, 38, 115
18, 75299, Note_on_c, 9, 38, 0
18, 75480, Note_on_c, 9, 38, 115
18, 75539, Note_on_c, 9, 38, 0
18, 75720, Note_on_c, 9, 38, 115
18, 75779, Note_on_c, 9, 38, 0
18, 75960, Note_on_c, 9, 38, 115
18, 76019, Note_on_c, 9, 38, 0
18, 76200, Note_on_c, 9, 38, 115
18, 76259, Note_on_c, 9, 38, 0
18, 76440, Note_on_c, 9, 38, 115
18, 76499, Note_on_c, 9, 38, 0
18, 76680, Note_on_c, 9, 38, 115
18, 76739, Note_on_c, 9, 38, 0
18, 76920, Note_on_c, 9, 38, 115
18, 76979, Note_on_c, 9, 38, 0
18, 77160, Note_on_c, 9, 38, 115
18, 77219, Note_on_c, 9, 38, 0
18, 79560, Note_on_c, 9, 38, 100
18, 79680, Note_on_c, 9, 38, 0
18, 80520, Note_on_c, 9, 38, 100
18, 80640, Note_on_c, 9, 38, 0
18, 81240, Note_on_c, 9, 38, 115
18, 81299, Note_on_c, 9, 38, 0
18, 81480, Note_on_c, 9, 38, 115
18, 81539, Note_on_c, 9, 38, 0
18, 81720, Note_on_c, 9, 38, 115
18, 81779, Note_on_c, 9, 38, 0
18, 81960, Note_on_c, 9, 38, 115
18, 82019, Note_on_c, 9, 38, 0
18, 82200, Note_on_c, 9, 38, 115
18, 82259, Note_on_c, 9, 38, 0
18, 82440, Note_on_c, 9, 38, 115
18, 82499, Note_on_c, 9, 38, 0
18, 82680, Note_on_c, 9, 38, 115
18, 82739, Note_on_c, 9, 38, 0
18, 82920, Note_on_c, 9, 38, 115
18, 82979, Note_on_c, 9, 38, 0
18, 88920, Note_on_c, 9, 38, 115
18, 88979, Note_on_c, 9, 38, 0
18, 89160, Note_on_c, 9, 38, 115
18, 89219, Note_on_c, 9, 38, 0
18, 89400, Note_on_c, 9, 38, 115
18, 89459, Note_on_c, 9, 38, 0
18, 89640, Note_on_c, 9, 38, 115
18, 89699, Note_on_c, 9, 38, 0
18, 89880, Note_on_c, 9, 38, 115
18, 89939, Note_on_c, 9, 38, 0
18, 90120, Note_on_c, 9, 38, 115
18, 90179, Note_on_c, 9, 38, 0
18, 90360, Note_on_c, 9, 38, 115
18, 90419, Note_on_c, 9, 38, 0
18, 90600, Note_on_c, 9, 38, 115
18, 90659, Note_on_c, 9, 38, 0
18, 90840, Note_on_c, 9, 38, 115
18, 90899, Note_on_c, 9, 38, 0
18, 91080, Note_on_c, 9, 38, 115
18, 91139, Note_on_c, 9, 38, 0
18, 91320, Note_on_c, 9, 38, 115
18, 91379, Note_on_c, 9, 38, 0
18, 91560, Note_on_c, 9, 38, 115
18, 91619, Note_on_c, 9, 38, 0
18, 91800, Note_on_c, 9, 38, 115
18, 91859, Note_on_c, 9, 38, 0
18, 92040, Note_on_c, 9, 38, 115
18, 92099, Note_on_c, 9, 38, 0
18, 92280, Note_on_c, 9, 38, 115
18, 92339, Note_on_c, 9, 38, 0
18, 92520, Note_on_c, 9, 38, 115
18, 92579, Note_on_c, 9, 38, 0
18, 92760, Note_on_c, 9, 38, 115
18, 92819, Note_on_c, 9, 38, 0
18, 93000, Note_on_c, 9, 38, 115
18, 93059, Note_on_c, 9, 38, 0
18, 93240, Note_on_c, 9, 38, 115
18, 93299, Note_on_c, 9, 38, 0
18, 93480, Note_on_c, 9, 38, 115
18, 93539, Note_on_c, 9, 38, 0
18, 93720, Note_on_c, 9, 38, 115
18, 93779, Note_on_c, 9, 38, 0
18, 93960, Note_on_c, 9, 38, 115
18, 94019, Note_on_c, 9, 38, 0
18, 94200, Note_on_c, 9, 38, 115
18, 94259, Note_on_c, 9, 38, 0
18, 94440, Note_on_c, 9, 38, 115
18, 94499, Note_on_c, 9, 38, 0
18, 94680, Note_on_c, 9, 38, 115
18, 94739, Note_on_c, 9, 38, 0
18, 94920, Note_on_c, 9, 38, 115
18, 94979, Note_on_c, 9, 38, 0
18, 95160, Note_on_c, 9, 38, 115
18, 95219, Note_on_c, 9, 38, 0
18, 95400, Note_on_c, 9, 38, 115
18, 95459, Note_on_c, 9, 38, 0
18, 95640, Note_on_c, 9, 38, 115
18, 95699, Note_on_c, 9, 38, 0
18, 95880, Note_on_c, 9, 38, 115
18, 95939, Note_on_c, 9, 38, 0
18, 96120, Note_on_c, 9, 38, 115
18, 96179, Note_on_c, 9, 38, 0
18, 96360, Note_on_c, 9, 38, 115
18, 96419, Note_on_c, 9, 38, 0
18, 96600, Note_on_c, 9, 38, 115
18, 96659, Note_on_c, 9, 38, 0
18, 96840, Note_on_c, 9, 38, 115
18, 96899, Note_on_c, 9, 38, 0
18, 97080, Note_on_c, 9, 38, 115
18, 97139, Note_on_c, 9, 38, 0
18, 97320, Note_on_c, 9, 38, 115
18, 97379, Note_on_c, 9, 38, 0
18, 97560, Note_on_c, 9, 38, 115
18, 97619, Note_on_c, 9, 38, 0
18, 97800, Note_on_c, 9, 38, 115
18, 97859, Note_on_c, 9, 38, 0
18, 98040, Note_on_c, 9, 38, 115
18, 98099, Note_on_c, 9, 38, 0
18, 98280, Note_on_c, 9, 38, 115
18, 98339, Note_on_c, 9, 38, 0
18, 98520, Note_on_c, 9, 38, 115
18, 98579, Note_on_c, 9, 38, 0
18, 98760, Note_on_c, 9, 38, 115
18, 98819, Note_on_c, 9, 38, 0
18, 99000, Note_on_c, 9, 38, 115
18, 99059, Note_on_c, 9, 38, 0
18, 99240, Note_on_c, 9, 38, 115
18, 99299, Note_on_c, 9, 38, 0
18, 99480, Note_on_c, 9, 38, 115
18, 99539, Note_on_c, 9, 38, 0
18, 99720, Note_on_c, 9, 38, 115
18, 99779, Note_on_c, 9, 38, 0
18, 99960, Note_on_c, 9, 38, 115
18, 100019, Note_on_c, 9, 38, 0
18, 100200, Note_on_c, 9, 38, 115
18, 100259, Note_on_c, 9, 38, 0
18, 100259, End_track
19, 0, Start_track
19, 0, MIDI_port, 0
19, 0, Title_t, "Crash Cymbal"
19, 2400, Note_on_c, 9, 49, 100
19, 2520, Note_on_c, 9, 49, 0
19, 6240, Note_on_c, 9, 49, 100
19, 6360, Note_on_c, 9, 49, 0
19, 10080, Note_on_c, 9, 49, 100
19, 10200, Note_on_c, 9, 49, 0
19, 13920, Note_on_c, 9, 49, 100
19, 14040, Note_on_c, 9, 49, 0
19, 17760, Note_on_c, 9, 49, 100
19, 17880, Note_on_c, 9, 49, 0
19, 19680, Note_on_c, 9, 49, 100
19, 19800, Note_on_c, 9, 49, 0
19, 21600, Note_on_c, 9, 49, 100
19, 21720, Note_on_c, 9, 49, 0
19, 31680, Note_on_c, 9, 49, 100
19, 31800, Note_on_c, 9, 49, 0
19, 38760, Note_on_c, 9, 49, 100
19, 38880, Note_on_c, 9, 49, 0
19, 39720, Note_on_c, 9, 49, 100
19, 39840, Note_on_c, 9, 49, 0
19, 40680, Note_on_c, 9, 49, 100
19, 40800, Note_on_c, 9, 49, 0
19, 41640, Note_on_c, 9, 49, 100
19, 41760, Note_on_c, 9, 49, 0
19, 42240, Note_on_c, 9, 49, 100
19, 42360, Note_on_c, 9, 49, 0
19, 44160, Note_on_c, 9, 49, 100
19, 44280, Note_on_c, 9, 49, 0
19, 51840, Note_on_c, 9, 49, 100
19, 51960, Note_on_c, 9, 49, 0
19, 55680, Note_on_c, 9, 49, 100
19, 55800, Note_on_c, 9, 49, 0
19, 63360, Note_on_c, 9, 49, 100
19, 63480, Note_on_c, 9, 49, 0
19, 71040, Note_on_c, 9, 49, 100
19, 71160, Note_on_c, 9, 49, 0
19, 75360, Note_on_c, 9, 49, 100
19, 75480, Note_on_c, 9, 49, 0
19, 79560, Note_on_c, 9, 49, 100
19, 79680, Note_on_c, 9, 49, 0
19, 80520, Note_on_c, 9, 49, 100
19, 80640, Note_on_c, 9, 49, 0
19, 81495, Note_on_c, 9, 49, 100
19, 81615, Note_on_c, 9, 49, 0
19, 82440, Note_on_c, 9, 49, 100
19, 82560, Note_on_c, 9, 49, 0
19, 83040, Note_on_c, 9, 49, 100
19, 83160, Note_on_c, 9, 49, 0
19, 88800, Note_on_c, 9, 49, 100
19, 88920, Note_on_c, 9, 49, 0
19, 90720, Note_on_c, 9, 49, 100
19, 90840, Note_on_c, 9, 49, 0
19, 92640, Note_on_c, 9, 49, 100
19, 92760, Note_on_c, 9, 49, 0
19, 96480, Note_on_c, 9, 49, 100
19, 96600, Note_on_c, 9, 49, 0
19, 100320, Note_on_c, 9, 49, 100
19, 100440, Note_on_c, 9, 49, 0
19, 100440, End_track
20, 0, Start_track
20, 0, MIDI_port, 0
20, 0, Title_t, "Hi Hat"
20, 2460, Note_on_c, 9, 42, 100
20, 2490, Note_on_c, 9, 42, 0
20, 2580, Note_on_c, 9, 42, 100
20, 2610, Note_on_c, 9, 42, 0
20, 2700, Note_on_c, 9, 42, 100
20, 2730, Note_on_c, 9, 42, 0
20, 2730, Note_on_c, 9, 42, 100
20, 2760, Note_on_c, 9, 42, 0
20, 2820, Note_on_c, 9, 42, 100
20, 2850, Note_on_c, 9, 42, 0
20, 2940, Note_on_c, 9, 42, 100
20, 2970, Note_on_c, 9, 42, 0
20, 3060, Note_on_c, 9, 42, 100
20, 3090, Note_on_c, 9, 42, 0
20, 3180, Note_on_c, 9, 42, 100
20, 3210, Note_on_c, 9, 42, 0
20, 3210, Note_on_c, 9, 42, 100
20, 3240, Note_on_c, 9, 42, 0
20, 3300, Note_on_c, 9, 42, 100
20, 3330, Note_on_c, 9, 42, 0
20, 3420, Note_on_c, 9, 42, 100
20, 3450, Note_on_c, 9, 42, 0
20, 3540, Note_on_c, 9, 42, 100
20, 3570, Note_on_c, 9, 42, 0
20, 3660, Note_on_c, 9, 42, 100
20, 3690, Note_on_c, 9, 42, 0
20, 3690, Note_on_c, 9, 42, 100
20, 3720, Note_on_c, 9, 42, 0
20, 3780, Note_on_c, 9, 42, 100
20, 3810, Note_on_c, 9, 42, 0
20, 3900, Note_on_c, 9, 42, 100
20, 3930, Note_on_c, 9, 42, 0
20, 4020, Note_on_c, 9, 42, 100
20, 4050, Note_on_c, 9, 42, 0
20, 4140, Note_on_c, 9, 42, 100
20, 4170, Note_on_c, 9, 42, 0
20, 4170, Note_on_c, 9, 42, 100
20, 4200, Note_on_c, 9, 42, 0
20, 4260, Note_on_c, 9, 42, 100
20, 4290, Note_on_c, 9, 42, 0
20, 4380, Note_on_c, 9, 42, 100
20, 4410, Note_on_c, 9, 42, 0
20, 4500, Note_on_c, 9, 42, 100
20, 4530, Note_on_c, 9, 42, 0
20, 4620, Note_on_c, 9, 42, 100
20, 4650, Note_on_c, 9, 42, 0
20, 4650, Note_on_c, 9, 42, 100
20, 4680, Note_on_c, 9, 42, 0
20, 4740, Note_on_c, 9, 42, 100
20, 4770, Note_on_c, 9, 42, 0
20, 4860, Note_on_c, 9, 42, 100
20, 4890, Note_on_c, 9, 42, 0
20, 4980, Note_on_c, 9, 42, 100
20, 5010, Note_on_c, 9, 42, 0
20, 5100, Note_on_c, 9, 42, 100
20, 5130, Note_on_c, 9, 42, 0
20, 5130, Note_on_c, 9, 42, 100
20, 5160, Note_on_c, 9, 42, 0
20, 5220, Note_on_c, 9, 42, 100
20, 5250, Note_on_c, 9, 42, 0
20, 5340, Note_on_c, 9, 42, 100
20, 5370, Note_on_c, 9, 42, 0
20, 5460, Note_on_c, 9, 42, 100
20, 5490, Note_on_c, 9, 42, 0
20, 5580, Note_on_c, 9, 42, 100
20, 5610, Note_on_c, 9, 42, 0
20, 5610, Note_on_c, 9, 42, 100
20, 5640, Note_on_c, 9, 42, 0
20, 5700, Note_on_c, 9, 42, 100
20, 5730, Note_on_c, 9, 42, 0
20, 5820, Note_on_c, 9, 42, 100
20, 5850, Note_on_c, 9, 42, 0
20, 5940, Note_on_c, 9, 42, 100
20, 5970, Note_on_c, 9, 42, 0
20, 6060, Note_on_c, 9, 42, 100
20, 6090, Note_on_c, 9, 42, 0
20, 6090, Note_on_c, 9, 42, 100
20, 6120, Note_on_c, 9, 42, 0
20, 6180, Note_on_c, 9, 42, 100
20, 6210, Note_on_c, 9, 42, 0
20, 6300, Note_on_c, 9, 42, 100
20, 6330, Note_on_c, 9, 42, 0
20, 6420, Note_on_c, 9, 42, 100
20, 6450, Note_on_c, 9, 42, 0
20, 6540, Note_on_c, 9, 42, 100
20, 6570, Note_on_c, 9, 42, 0
20, 6570, Note_on_c, 9, 42, 100
20, 6600, Note_on_c, 9, 42, 0
20, 6660, Note_on_c, 9, 42, 100
20, 6690, Note_on_c, 9, 42, 0
20, 6780, Note_on_c, 9, 42, 100
20, 6810, Note_on_c, 9, 42, 0
20, 6900, Note_on_c, 9, 42, 100
20, 6930, Note_on_c, 9, 42, 0
20, 7020, Note_on_c, 9, 42, 100
20, 7050, Note_on_c, 9, 42, 0
20, 7050, Note_on_c, 9, 42, 100
20, 7080, Note_on_c, 9, 42, 0
20, 7140, Note_on_c, 9, 42, 100
20, 7170, Note_on_c, 9, 42, 0
20, 7260, Note_on_c, 9, 42, 100
20, 7290, Note_on_c, 9, 42, 0
20, 7380, Note_on_c, 9, 42, 100
20, 7410, Note_on_c, 9, 42, 0
20, 7500, Note_on_c, 9, 42, 100
20, 7530, Note_on_c, 9, 42, 0
20, 7530, Note_on_c, 9, 42, 100
20, 7560, Note_on_c, 9, 42, 0
20, 7620, Note_on_c, 9, 42, 100
20, 7650, Note_on_c, 9, 42, 0
20, 7740, Note_on_c, 9, 42, 100
20, 7770, Note_on_c, 9, 42, 0
20, 7860, Note_on_c, 9, 42, 100
20, 7890, Note_on_c, 9, 42, 0
20, 7980, Note_on_c, 9, 42, 100
20, 8010, Note_on_c, 9, 42, 0
20, 8010, Note_on_c, 9, 42, 100
20, 8040, Note_on_c, 9, 42, 0
20, 8100, Note_on_c, 9, 42, 100
20, 8130, Note_on_c, 9, 42, 0
20, 8220, Note_on_c, 9, 42, 100
20, 8250, Note_on_c, 9, 42, 0
20, 8340, Note_on_c, 9, 42, 100
20, 8370, Note_on_c, 9, 42, 0
20, 8460, Note_on_c, 9, 42, 100
20, 8490, Note_on_c, 9, 42, 0
20, 8490, Note_on_c, 9, 42, 100
20, 8520, Note_on_c, 9, 42, 0
20, 8580, Note_on_c, 9, 42, 100
20, 8610, Note_on_c, 9, 42, 0
20, 8700, Note_on_c, 9, 42, 100
20, 8730, Note_on_c, 9, 42, 0
20, 8820, Note_on_c, 9, 42, 100
20, 8850, Note_on_c, 9, 42, 0
20, 8940, Note_on_c, 9, 42, 100
20, 8970, Note_on_c, 9, 42, 0
20, 8970, Note_on_c, 9, 42, 100
20, 9000, Note_on_c, 9, 42, 0
20, 9060, Note_on_c, 9, 42, 100
20, 9090, Note_on_c, 9, 42, 0
20, 9180, Note_on_c, 9, 42, 100
20, 9210, Note_on_c, 9, 42, 0
20, 9300, Note_on_c, 9, 42, 100
20, 9330, Note_on_c, 9, 42, 0
20, 9420, Note_on_c, 9, 42, 100
20, 9450, Note_on_c, 9, 42, 0
20, 9450, Note_on_c, 9, 42, 100
20, 9480, Note_on_c, 9, 42, 0
20, 9540, Note_on_c, 9, 42, 100
20, 9570, Note_on_c, 9, 42, 0
20, 9660, Note_on_c, 9, 42, 100
20, 9690, Note_on_c, 9, 42, 0
20, 9780, Note_on_c, 9, 42, 100
20, 9810, Note_on_c, 9, 42, 0
20, 9900, Note_on_c, 9, 42, 100
20, 9930, Note_on_c, 9, 42, 0
20, 9930, Note_on_c, 9, 42, 100
20, 9960, Note_on_c, 9, 42, 0
20, 10020, Note_on_c, 9, 42, 100
20, 10050, Note_on_c, 9, 42, 0
20, 10140, Note_on_c, 9, 42, 100
20, 10170, Note_on_c, 9, 42, 0
20, 10260, Note_on_c, 9, 42, 100
20, 10290, Note_on_c, 9, 42, 0
20, 10380, Note_on_c, 9, 42, 100
20, 10410, Note_on_c, 9, 42, 0
20, 10410, Note_on_c, 9, 42, 100
20, 10440, Note_on_c, 9, 42, 0
20, 10500, Note_on_c, 9, 42, 100
20, 10530, Note_on_c, 9, 42, 0
20, 10620, Note_on_c, 9, 42, 100
20, 10650, Note_on_c, 9, 42, 0
20, 10740, Note_on_c, 9, 42, 100
20, 10770, Note_on_c, 9, 42, 0
20, 10860, Note_on_c, 9, 42, 100
20, 10890, Note_on_c, 9, 42, 0
20, 10890, Note_on_c, 9, 42, 100
20, 10920, Note_on_c, 9, 42, 0
20, 10980, Note_on_c, 9, 42, 100
20, 11010, Note_on_c, 9, 42, 0
20, 11100, Note_on_c, 9, 42, 100
20, 11130, Note_on_c, 9, 42, 0
20, 11220, Note_on_c, 9, 42, 100
20, 11250, Note_on_c, 9, 42, 0
20, 11340, Note_on_c, 9, 42, 100
20, 11370, Note_on_c, 9, 42, 0
20, 11370, Note_on_c, 9, 42, 100
20, 11400, Note_on_c, 9, 42, 0
20, 11460, Note_on_c, 9, 42, 100
20, 11490, Note_on_c, 9, 42, 0
20, 11580, Note_on_c, 9, 42, 100
20, 11610, Note_on_c, 9, 42, 0
20, 11700, Note_on_c, 9, 42, 100
20, 11730, Note_on_c, 9, 42, 0
20, 11820, Note_on_c, 9, 42, 100
20, 11850, Note_on_c, 9, 42, 0
20, 11850, Note_on_c, 9, 42, 100
20, 11880, Note_on_c, 9, 42, 0
20, 11940, Note_on_c, 9, 42, 100
20, 11970, Note_on_c, 9, 42, 0
20, 12060, Note_on_c, 9, 42, 100
20, 12090, Note_on_c, 9, 42, 0
20, 12180, Note_on_c, 9, 42, 100
20, 12210, Note_on_c, 9, 42, 0
20, 12300, Note_on_c, 9, 42, 100
20, 12330, Note_on_c, 9, 42, 0
20, 12330, Note_on_c, 9, 42, 100
20, 12360, Note_on_c, 9, 42, 0
20, 12420, Note_on_c, 9, 42, 100
20, 12450, Note_on_c, 9, 42, 0
20, 12540, Note_on_c, 9, 42, 100
20, 12570, Note_on_c, 9, 42, 0
20, 12660, Note_on_c, 9, 42, 100
20, 12690, Note_on_c, 9, 42, 0
20, 12780, Note_on_c, 9, 42, 100
20, 12810, Note_on_c, 9, 42, 0
20, 12810, Note_on_c, 9, 42, 100
20, 12840, Note_on_c, 9, 42, 0
20, 12900, Note_on_c, 9, 42, 100
20, 12930, Note_on_c, 9, 42, 0
20, 13020, Note_on_c, 9, 42, 100
20, 13050, Note_on_c, 9, 42, 0
20, 13140, Note_on_c, 9, 42, 100
20, 13170, Note_on_c, 9, 42, 0
20, 13260, Note_on_c, 9, 42, 100
20, 13290, Note_on_c, 9, 42, 0
20, 13290, Note_on_c, 9, 42, 100
20, 13320, Note_on_c, 9, 42, 0
20, 13380, Note_on_c, 9, 42, 100
20, 13410, Note_on_c, 9, 42, 0
20, 13500, Note_on_c, 9, 42, 100
20, 13530, Note_on_c, 9, 42, 0
20, 13620, Note_on_c, 9, 42, 100
20, 13650, Note_on_c, 9, 42, 0
20, 13740, Note_on_c, 9, 42, 100
20, 13770, Note_on_c, 9, 42, 0
20, 13770, Note_on_c, 9, 42, 100
20, 13800, Note_on_c, 9, 42, 0
20, 13860, Note_on_c, 9, 42, 100
20, 13890, Note_on_c, 9, 42, 0
20, 13980, Note_on_c, 9, 42, 100
20, 14010, Note_on_c, 9, 42, 0
20, 14100, Note_on_c, 9, 42, 100
20, 14130, Note_on_c, 9, 42, 0
20, 14220, Note_on_c, 9, 42, 100
20, 14250, Note_on_c, 9, 42, 0
20, 14250, Note_on_c, 9, 42, 100
20, 14280, Note_on_c, 9, 42, 0
20, 14340, Note_on_c, 9, 42, 100
20, 14370, Note_on_c, 9, 42, 0
20, 14460, Note_on_c, 9, 42, 100
20, 14490, Note_on_c, 9, 42, 0
20, 14580, Note_on_c, 9, 42, 100
20, 14610, Note_on_c, 9, 42, 0
20, 14700, Note_on_c, 9, 42, 100
20, 14730, Note_on_c, 9, 42, 0
20, 14730, Note_on_c, 9, 42, 100
20, 14760, Note_on_c, 9, 42, 0
20, 14820, Note_on_c, 9, 42, 100
20, 14850, Note_on_c, 9, 42, 0
20, 14940, Note_on_c, 9, 42, 100
20, 14970, Note_on_c, 9, 42, 0
20, 15060, Note_on_c, 9, 42, 100
20, 15090, Note_on_c, 9, 42, 0
20, 15180, Note_on_c, 9, 42, 100
20, 15210, Note_on_c, 9, 42, 0
20, 15210, Note_on_c, 9, 42, 100
20, 15240, Note_on_c, 9, 42, 0
20, 15300, Note_on_c, 9, 42, 100
20, 15330, Note_on_c, 9, 42, 0
20, 15420, Note_on_c, 9, 42, 100
20, 15450, Note_on_c, 9, 42, 0
20, 15540, Note_on_c, 9, 42, 100
20, 15570, Note_on_c, 9, 42, 0
20, 15660, Note_on_c, 9, 42, 100
20, 15690, Note_on_c, 9, 42, 0
20, 15690, Note_on_c, 9, 42, 100
20, 15720, Note_on_c, 9, 42, 0
20, 15780, Note_on_c, 9, 42, 100
20, 15810, Note_on_c, 9, 42, 0
20, 15900, Note_on_c, 9, 42, 100
20, 15930, Note_on_c, 9, 42, 0
20, 16020, Note_on_c, 9, 42, 100
20, 16050, Note_on_c, 9, 42, 0
20, 16140, Note_on_c, 9, 42, 100
20, 16170, Note_on_c, 9, 42, 0
20, 16170, Note_on_c, 9, 42, 100
20, 16200, Note_on_c, 9, 42, 0
20, 16260, Note_on_c, 9, 42, 100
20, 16290, Note_on_c, 9, 42, 0
20, 16380, Note_on_c, 9, 42, 100
20, 16410, Note_on_c, 9, 42, 0
20, 16500, Note_on_c, 9, 42, 100
20, 16530, Note_on_c, 9, 42, 0
20, 16620, Note_on_c, 9, 42, 100
20, 16650, Note_on_c, 9, 42, 0
20, 16650, Note_on_c, 9, 42, 100
20, 16680, Note_on_c, 9, 42, 0
20, 16740, Note_on_c, 9, 42, 100
20, 16770, Note_on_c, 9, 42, 0
20, 16860, Note_on_c, 9, 42, 100
20, 16890, Note_on_c, 9, 42, 0
20, 16980, Note_on_c, 9, 42, 100
20, 17010, Note_on_c, 9, 42, 0
20, 17100, Note_on_c, 9, 42, 100
20, 17130, Note_on_c, 9, 42, 0
20, 17130, Note_on_c, 9, 42, 100
20, 17160, Note_on_c, 9, 42, 0
20, 17220, Note_on_c, 9, 42, 100
20, 17250, Note_on_c, 9, 42, 0
20, 17340, Note_on_c, 9, 42, 100
20, 17370, Note_on_c, 9, 42, 0
20, 17460, Note_on_c, 9, 42, 100
20, 17490, Note_on_c, 9, 42, 0
20, 17580, Note_on_c, 9, 42, 100
20, 17610, Note_on_c, 9, 42, 0
20, 17610, Note_on_c, 9, 42, 100
20, 17640, Note_on_c, 9, 42, 0
20, 17700, Note_on_c, 9, 42, 100
20, 17730, Note_on_c, 9, 42, 0
20, 17820, Note_on_c, 9, 42, 100
20, 17850, Note_on_c, 9, 42, 0
20, 17940, Note_on_c, 9, 42, 100
20, 17970, Note_on_c, 9, 42, 0
20, 18060, Note_on_c, 9, 42, 100
20, 18090, Note_on_c, 9, 42, 0
20, 18090, Note_on_c, 9, 42, 100
20, 18120, Note_on_c, 9, 42, 0
20, 18180, Note_on_c, 9, 42, 100
20, 18210, Note_on_c, 9, 42, 0
20, 18300, Note_on_c, 9, 42, 100
20, 18330, Note_on_c, 9, 42, 0
20, 18420, Note_on_c, 9, 42, 100
20, 18450, Note_on_c, 9, 42, 0
20, 18540, Note_on_c, 9, 42, 100
20, 18570, Note_on_c, 9, 42, 0
20, 18570, Note_on_c, 9, 42, 100
20, 18600, Note_on_c, 9, 42, 0
20, 18660, Note_on_c, 9, 42, 100
20, 18690, Note_on_c, 9, 42, 0
20, 18780, Note_on_c, 9, 42, 100
20, 18810, Note_on_c, 9, 42, 0
20, 18900, Note_on_c, 9, 42, 100
20, 18930, Note_on_c, 9, 42, 0
20, 19020, Note_on_c, 9, 42, 100
20, 19050, Note_on_c, 9, 42, 0
20, 19050, Note_on_c, 9, 42, 100
20, 19080, Note_on_c, 9, 42, 0
20, 19140, Note_on_c, 9, 42, 100
20, 19170, Note_on_c, 9, 42, 0
20, 19260, Note_on_c, 9, 42, 100
20, 19290, Note_on_c, 9, 42, 0
20, 19380, Note_on_c, 9, 42, 100
20, 19410, Note_on_c, 9, 42, 0
20, 19500, Note_on_c, 9, 42, 100
20, 19530, Note_on_c, 9, 42, 0
20, 19530, Note_on_c, 9, 42, 100
20, 19560, Note_on_c, 9, 42, 0
20, 19620, Note_on_c, 9, 42, 100
20, 19650, Note_on_c, 9, 42, 0
20, 19740, Note_on_c, 9, 42, 100
20, 19770, Note_on_c, 9, 42, 0
20, 19860, Note_on_c, 9, 42, 100
20, 19890, Note_on_c, 9, 42, 0
20, 19980, Note_on_c, 9, 42, 100
20, 20010, Note_on_c, 9, 42, 0
20, 20010, Note_on_c, 9, 42, 100
20, 20040, Note_on_c, 9, 42, 0
20, 20100, Note_on_c, 9, 42, 100
20, 20130, Note_on_c, 9, 42, 0
20, 20220, Note_on_c, 9, 42, 100
20, 20250, Note_on_c, 9, 42, 0
20, 20340, Note_on_c, 9, 42, 100
20, 20370, Note_on_c, 9, 42, 0
20, 20460, Note_on_c, 9, 42, 100
20, 20490, Note_on_c, 9, 42, 0
20, 20490, Note_on_c, 9, 42, 100
20, 20520, Note_on_c, 9, 42, 0
20, 20580, Note_on_c, 9, 42, 100
20, 20610, Note_on_c, 9, 42, 0
20, 20700, Note_on_c, 9, 42, 100
20, 20730, Note_on_c, 9, 42, 0
20, 20820, Note_on_c, 9, 42, 100
20, 20850, Note_on_c, 9, 42, 0
20, 20940, Note_on_c, 9, 42, 100
20, 20970, Note_on_c, 9, 42, 0
20, 20970, Note_on_c, 9, 42, 100
20, 21000, Note_on_c, 9, 42, 0
20, 21060, Note_on_c, 9, 42, 100
20, 21090, Note_on_c, 9, 42, 0
20, 21180, Note_on_c, 9, 42, 100
20, 21210, Note_on_c, 9, 42, 0
20, 21300, Note_on_c, 9, 42, 100
20, 21330, Note_on_c, 9, 42, 0
20, 21420, Note_on_c, 9, 42, 100
20, 21450, Note_on_c, 9, 42, 0
20, 21450, Note_on_c, 9, 42, 100
20, 21480, Note_on_c, 9, 42, 0
20, 21540, Note_on_c, 9, 42, 100
20, 21570, Note_on_c, 9, 42, 0
20, 21660, Note_on_c, 9, 42, 100
20, 21690, Note_on_c, 9, 42, 0
20, 21780, Note_on_c, 9, 42, 100
20, 21810, Note_on_c, 9, 42, 0
20, 21900, Note_on_c, 9, 42, 100
20, 21930, Note_on_c, 9, 42, 0
20, 21930, Note_on_c, 9, 42, 100
20, 21960, Note_on_c, 9, 42, 0
20, 22020, Note_on_c, 9, 42, 100
20, 22050, Note_on_c, 9, 42, 0
20, 22140, Note_on_c, 9, 42, 100
20, 22170, Note_on_c, 9, 42, 0
20, 22260, Note_on_c, 9, 42, 100
20, 22290, Note_on_c, 9, 42, 0
20, 22380, Note_on_c, 9, 42, 100
20, 22410, Note_on_c, 9, 42, 0
20, 22410, Note_on_c, 9, 42, 100
20, 22440, Note_on_c, 9, 42, 0
20, 22500, Note_on_c, 9, 42, 100
20, 22530, Note_on_c, 9, 42, 0
20, 22620, Note_on_c, 9, 42, 100
20, 22650, Note_on_c, 9, 42, 0
20, 22740, Note_on_c, 9, 42, 100
20, 22770, Note_on_c, 9, 42, 0
20, 22860, Note_on_c, 9, 42, 100
20, 22890, Note_on_c, 9, 42, 0
20, 22890, Note_on_c, 9, 42, 100
20, 22920, Note_on_c, 9, 42, 0
20, 22980, Note_on_c, 9, 42, 100
20, 23010, Note_on_c, 9, 42, 0
20, 23100, Note_on_c, 9, 42, 100
20, 23130, Note_on_c, 9, 42, 0
20, 23220, Note_on_c, 9, 42, 100
20, 23250, Note_on_c, 9, 42, 0
20, 23340, Note_on_c, 9, 42, 100
20, 23370, Note_on_c, 9, 42, 0
20, 23370, Note_on_c, 9, 42, 100
20, 23400, Note_on_c, 9, 42, 0
20, 23460, Note_on_c, 9, 42, 100
20, 23490, Note_on_c, 9, 42, 0
20, 23580, Note_on_c, 9, 42, 100
20, 23610, Note_on_c, 9, 42, 0
20, 23700, Note_on_c, 9, 42, 100
20, 23730, Note_on_c, 9, 42, 0
20, 23820, Note_on_c, 9, 42, 100
20, 23850, Note_on_c, 9, 42, 0
20, 23850, Note_on_c, 9, 42, 100
20, 23880, Note_on_c, 9, 42, 0
20, 23940, Note_on_c, 9, 42, 100
20, 23970, Note_on_c, 9, 42, 0
20, 24060, Note_on_c, 9, 42, 100
20, 24090, Note_on_c, 9, 42, 0
20, 24180, Note_on_c, 9, 42, 100
20, 24210, Note_on_c, 9, 42, 0
20, 24300, Note_on_c, 9, 42, 100
20, 24330, Note_on_c, 9, 42, 0
20, 24330, Note_on_c, 9, 42, 100
20, 24360, Note_on_c, 9, 42, 0
20, 24420, Note_on_c, 9, 42, 100
20, 24450, Note_on_c, 9, 42, 0
20, 24540, Note_on_c, 9, 42, 100
20, 24570, Note_on_c, 9, 42, 0
20, 24660, Note_on_c, 9, 42, 100
20, 24690, Note_on_c, 9, 42, 0
20, 24780, Note_on_c, 9, 42, 100
20, 24810, Note_on_c, 9, 42, 0
20, 24810, Note_on_c, 9, 42, 100
20, 24840, Note_on_c, 9, 42, 0
20, 24900, Note_on_c, 9, 42, 100
20, 24930, Note_on_c, 9, 42, 0
20, 25020, Note_on_c, 9, 42, 100
20, 25050, Note_on_c, 9, 42, 0
20, 25140, Note_on_c, 9, 42, 100
20, 25170, Note_on_c, 9, 42, 0
20, 25260, Note_on_c, 9, 42, 100
20, 25290, Note_on_c, 9, 42, 0
20, 25290, Note_on_c, 9, 42, 100
20, 25320, Note_on_c, 9, 42, 0
20, 25380, Note_on_c, 9, 42, 100
20, 25410, Note_on_c, 9, 42, 0
20, 25500, Note_on_c, 9, 42, 100
20, 25530, Note_on_c, 9, 42, 0
20, 25620, Note_on_c, 9, 42, 100
20, 25650, Note_on_c, 9, 42, 0
20, 25740, Note_on_c, 9, 42, 100
20, 25770, Note_on_c, 9, 42, 0
20, 25770, Note_on_c, 9, 42, 100
20, 25800, Note_on_c, 9, 42, 0
20, 25860, Note_on_c, 9, 42, 100
20, 25890, Note_on_c, 9, 42, 0
20, 25980, Note_on_c, 9, 42, 100
20, 26010, Note_on_c, 9, 42, 0
20, 26100, Note_on_c, 9, 42, 100
20, 26130, Note_on_c, 9, 42, 0
20, 26220, Note_on_c, 9, 42, 100
20, 26250, Note_on_c, 9, 42, 0
20, 26250, Note_on_c, 9, 42, 100
20, 26280, Note_on_c, 9, 42, 0
20, 26340, Note_on_c, 9, 42, 100
20, 26370, Note_on_c, 9, 42, 0
20, 26460, Note_on_c, 9, 42, 100
20, 26490, Note_on_c, 9, 42, 0
20, 26580, Note_on_c, 9, 42, 100
20, 26610, Note_on_c, 9, 42, 0
20, 26700, Note_on_c, 9, 42, 100
20, 26730, Note_on_c, 9, 42, 0
20, 26730, Note_on_c, 9, 42, 100
20, 26760, Note_on_c, 9, 42, 0
20, 26820, Note_on_c, 9, 42, 100
20, 26850, Note_on_c, 9, 42, 0
20, 26940, Note_on_c, 9, 42, 100
20, 26970, Note_on_c, 9, 42, 0
20, 27060, Note_on_c, 9, 42, 100
20, 27090, Note_on_c, 9, 42, 0
20, 27180, Note_on_c, 9, 42, 100
20, 27210, Note_on_c, 9, 42, 0
20, 27210, Note_on_c, 9, 42, 100
20, 27240, Note_on_c, 9, 42, 0
20, 27300, Note_on_c, 9, 42, 100
20, 27330, Note_on_c, 9, 42, 0
20, 27420, Note_on_c, 9, 42, 100
20, 27450, Note_on_c, 9, 42, 0
20, 27540, Note_on_c, 9, 42, 100
20, 27570, Note_on_c, 9, 42, 0
20, 27660, Note_on_c, 9, 42, 100
20, 27690, Note_on_c, 9, 42, 0
20, 27690, Note_on_c, 9, 42, 100
20, 27720, Note_on_c, 9, 42, 0
20, 27780, Note_on_c, 9, 42, 100
20, 27810, Note_on_c, 9, 42, 0
20, 27900, Note_on_c, 9, 42, 100
20, 27930, Note_on_c, 9, 42, 0
20, 28020, Note_on_c, 9, 42, 100
20, 28050, Note_on_c, 9, 42, 0
20, 28140, Note_on_c, 9, 42, 100
20, 28170, Note_on_c, 9, 42, 0
20, 28170, Note_on_c, 9, 42, 100
20, 28200, Note_on_c, 9, 42, 0
20, 28260, Note_on_c, 9, 42, 100
20, 28290, Note_on_c, 9, 42, 0
20, 28380, Note_on_c, 9, 42, 100
20, 28410, Note_on_c, 9, 42, 0
20, 28500, Note_on_c, 9, 42, 100
20, 28530, Note_on_c, 9, 42, 0
20, 28620, Note_on_c, 9, 42, 100
20, 28650, Note_on_c, 9, 42, 0
20, 28650, Note_on_c, 9, 42, 100
20, 28680, Note_on_c, 9, 42, 0
20, 28740, Note_on_c, 9, 42, 100
20, 28770, Note_on_c, 9, 42, 0
20, 28860, Note_on_c, 9, 42, 100
20, 28890, Note_on_c, 9, 42, 0
20, 28980, Note_on_c, 9, 42, 100
20, 29010, Note_on_c, 9, 42, 0
20, 29100, Note_on_c, 9, 42, 100
20, 29130, Note_on_c, 9, 42, 0
20, 29130, Note_on_c, 9, 42, 100
20, 29160, Note_on_c, 9, 42, 0
20, 29220, Note_on_c, 9, 42, 100
20, 29250, Note_on_c, 9, 42, 0
20, 29340, Note_on_c, 9, 42, 100
20, 29370, Note_on_c, 9, 42, 0
20, 29460, Note_on_c, 9, 42, 100
20, 29490, Note_on_c, 9, 42, 0
20, 29580, Note_on_c, 9, 42, 100
20, 29610, Note_on_c, 9, 42, 0
20, 29610, Note_on_c, 9, 42, 100
20, 29640, Note_on_c, 9, 42, 0
20, 29700, Note_on_c, 9, 42, 100
20, 29730, Note_on_c, 9, 42, 0
20, 29820, Note_on_c, 9, 42, 100
20, 29850, Note_on_c, 9, 42, 0
20, 29940, Note_on_c, 9, 42, 100
20, 29970, Note_on_c, 9, 42, 0
20, 30060, Note_on_c, 9, 42, 100
20, 30090, Note_on_c, 9, 42, 0
20, 30090, Note_on_c, 9, 42, 100
20, 30120, Note_on_c, 9, 42, 0
20, 30180, Note_on_c, 9, 42, 100
20, 30210, Note_on_c, 9, 42, 0
20, 30300, Note_on_c, 9, 42, 100
20, 30330, Note_on_c, 9, 42, 0
20, 30420, Note_on_c, 9, 42, 100
20, 30450, Note_on_c, 9, 42, 0
20, 30540, Note_on_c, 9, 42, 100
20, 30570, Note_on_c, 9, 42, 0
20, 30570, Note_on_c, 9, 42, 100
20, 30600, Note_on_c, 9, 42, 0
20, 30660, Note_on_c, 9, 42, 100
20, 30690, Note_on_c, 9, 42, 0
20, 30780, Note_on_c, 9, 42, 100
20, 30810, Note_on_c, 9, 42, 0
20, 30900, Note_on_c, 9, 42, 100
20, 30930, Note_on_c, 9, 42, 0
20, 31020, Note_on_c, 9, 42, 100
20, 31050, Note_on_c, 9, 42, 0
20, 31050, Note_on_c, 9, 42, 100
20, 31080, Note_on_c, 9, 42, 0
20, 31140, Note_on_c, 9, 42, 100
20, 31170, Note_on_c, 9, 42, 0
20, 31260, Note_on_c, 9, 42, 100
20, 31290, Note_on_c, 9, 42, 0
20, 31380, Note_on_c, 9, 42, 100
20, 31410, Note_on_c, 9, 42, 0
20, 31500, Note_on_c, 9, 42, 100
20, 31530, Note_on_c, 9, 42, 0
20, 31530, Note_on_c, 9, 42, 100
20, 31560, Note_on_c, 9, 42, 0
20, 31620, Note_on_c, 9, 42, 100
20, 31650, Note_on_c, 9, 42, 0
20, 31740, Note_on_c, 9, 42, 100
20, 31770, Note_on_c, 9, 42, 0
20, 31860, Note_on_c, 9, 42, 100
20, 31890, Note_on_c, 9, 42, 0
20, 31980, Note_on_c, 9, 42, 100
20, 32010, Note_on_c, 9, 42, 0
20, 32010, Note_on_c, 9, 42, 100
20, 32040, Note_on_c, 9, 42, 0
20, 32100, Note_on_c, 9, 42, 100
20, 32130, Note_on_c, 9, 42, 0
20, 32220, Note_on_c, 9, 42, 100
20, 32250, Note_on_c, 9, 42, 0
20, 32340, Note_on_c, 9, 42, 100
20, 32370, Note_on_c, 9, 42, 0
20, 32460, Note_on_c, 9, 42, 100
20, 32490, Note_on_c, 9, 42, 0
20, 32490, Note_on_c, 9, 42, 100
20, 32520, Note_on_c, 9, 42, 0
20, 32580, Note_on_c, 9, 42, 100
20, 32610, Note_on_c, 9, 42, 0
20, 32700, Note_on_c, 9, 42, 100
20, 32730, Note_on_c, 9, 42, 0
20, 32820, Note_on_c, 9, 42, 100
20, 32850, Note_on_c, 9, 42, 0
20, 32940, Note_on_c, 9, 42, 100
20, 32970, Note_on_c, 9, 42, 0
20, 32970, Note_on_c, 9, 42, 100
20, 33000, Note_on_c, 9, 42, 0
20, 33060, Note_on_c, 9, 42, 100
20, 33090, Note_on_c, 9, 42, 0
20, 33180, Note_on_c, 9, 42, 100
20, 33210, Note_on_c, 9, 42, 0
20, 33300, Note_on_c, 9, 42, 100
20, 33330, Note_on_c, 9, 42, 0
20, 33420, Note_on_c, 9, 42, 100
20, 33450, Note_on_c, 9, 42, 0
20, 33450, Note_on_c, 9, 42, 100
20, 33480, Note_on_c, 9, 42, 0
20, 33540, Note_on_c, 9, 42, 100
20, 33570, Note_on_c, 9, 42, 0
20, 42300, Note_on_c, 9, 42, 100
20, 42330, Note_on_c, 9, 42, 0
20, 42420, Note_on_c, 9, 42, 100
20, 42450, Note_on_c, 9, 42, 0
20, 42540, Note_on_c, 9, 42, 100
20, 42570, Note_on_c, 9, 42, 0
20, 42570, Note_on_c, 9, 42, 100
20, 42600, Note_on_c, 9, 42, 0
20, 42660, Note_on_c, 9, 42, 100
20, 42690, Note_on_c, 9, 42, 0
20, 42780, Note_on_c, 9, 42, 100
20, 42810, Note_on_c, 9, 42, 0
20, 42900, Note_on_c, 9, 42, 100
20, 42930, Note_on_c, 9, 42, 0
20, 43020, Note_on_c, 9, 42, 100
20, 43050, Note_on_c, 9, 42, 0
20, 43050, Note_on_c, 9, 42, 100
20, 43080, Note_on_c, 9, 42, 0
20, 43140, Note_on_c, 9, 42, 100
20, 43170, Note_on_c, 9, 42, 0
20, 43260, Note_on_c, 9, 42, 100
20, 43290, Note_on_c, 9, 42, 0
20, 43380, Note_on_c, 9, 42, 100
20, 43410, Note_on_c, 9, 42, 0
20, 43500, Note_on_c, 9, 42, 100
20, 43530, Note_on_c, 9, 42, 0
20, 43530, Note_on_c, 9, 42, 100
20, 43560, Note_on_c, 9, 42, 0
20, 43620, Note_on_c, 9, 42, 100
20, 43650, Note_on_c, 9, 42, 0
20, 43740, Note_on_c, 9, 42, 100
20, 43770, Note_on_c, 9, 42, 0
20, 43860, Note_on_c, 9, 42, 100
20, 43890, Note_on_c, 9, 42, 0
20, 43980, Note_on_c, 9, 42, 100
20, 44010, Note_on_c, 9, 42, 0
20, 44010, Note_on_c, 9, 42, 100
20, 44040, Note_on_c, 9, 42, 0
20, 44100, Note_on_c, 9, 42, 100
20, 44130, Note_on_c, 9, 42, 0
20, 44220, Note_on_c, 9, 42, 100
20, 44250, Note_on_c, 9, 42, 0
20, 44340, Note_on_c, 9, 42, 100
20, 44370, Note_on_c, 9, 42, 0
20, 44460, Note_on_c, 9, 42, 100
20, 44490, Note_on_c, 9, 42, 0
20, 44490, Note_on_c, 9, 42, 100
20, 44520, Note_on_c, 9, 42, 0
20, 44580, Note_on_c, 9, 42, 100
20, 44610, Note_on_c, 9, 42, 0
20, 44700, Note_on_c, 9, 42, 100
20, 44730, Note_on_c, 9, 42, 0
20, 44820, Note_on_c, 9, 42, 100
20, 44850, Note_on_c, 9, 42, 0
20, 44940, Note_on_c, 9, 42, 100
20, 44970, Note_on_c, 9, 42, 0
20, 44970, Note_on_c, 9, 42, 100
20, 45000, Note_on_c, 9, 42, 0
20, 45060, Note_on_c, 9, 42, 100
20, 45090, Note_on_c, 9, 42, 0
20, 45180, Note_on_c, 9, 42, 100
20, 45210, Note_on_c, 9, 42, 0
20, 45300, Note_on_c, 9, 42, 100
20, 45330, Note_on_c, 9, 42, 0
20, 45420, Note_on_c, 9, 42, 100
20, 45450, Note_on_c, 9, 42, 0
20, 45450, Note_on_c, 9, 42, 100
20, 45480, Note_on_c, 9, 42, 0
20, 45540, Note_on_c, 9, 42, 100
20, 45570, Note_on_c, 9, 42, 0
20, 45660, Note_on_c, 9, 42, 100
20, 45690, Note_on_c, 9, 42, 0
20, 45780, Note_on_c, 9, 42, 100
20, 45810, Note_on_c, 9, 42, 0
20, 45900, Note_on_c, 9, 42, 100
20, 45930, Note_on_c, 9, 42, 0
20, 45930, Note_on_c, 9, 42, 100
20, 45960, Note_on_c, 9, 42, 0
20, 46020, Note_on_c, 9, 42, 100
20, 46050, Note_on_c, 9, 42, 0
20, 46140, Note_on_c, 9, 42, 100
20, 46170, Note_on_c, 9, 42, 0
20, 46260, Note_on_c, 9, 42, 100
20, 46290, Note_on_c, 9, 42, 0
20, 46380, Note_on_c, 9, 42, 100
20, 46410, Note_on_c, 9, 42, 0
20, 46410, Note_on_c, 9, 42, 100
20, 46440, Note_on_c, 9, 42, 0
20, 46500, Note_on_c, 9, 42, 100
20, 46530, Note_on_c, 9, 42, 0
20, 46620, Note_on_c, 9, 42, 100
20, 46650, Note_on_c, 9, 42, 0
20, 46740, Note_on_c, 9, 42, 100
20, 46770, Note_on_c, 9, 42, 0
20, 46860, Note_on_c, 9, 42, 100
20, 46890, Note_on_c, 9, 42, 0
20, 46890, Note_on_c, 9, 42, 100
20, 46920, Note_on_c, 9, 42, 0
20, 46980, Note_on_c, 9, 42, 100
20, 47010, Note_on_c, 9, 42, 0
20, 47100, Note_on_c, 9, 42, 100
20, 47130, Note_on_c, 9, 42, 0
20, 47220, Note_on_c, 9, 42, 100
20, 47250, Note_on_c, 9, 42, 0
20, 47340, Note_on_c, 9, 42, 100
20, 47370, Note_on_c, 9, 42, 0
20, 47370, Note_on_c, 9, 42, 100
20, 47400, Note_on_c, 9, 42, 0
20, 47460, Note_on_c, 9, 42, 100
20, 47490, Note_on_c, 9, 42, 0
20, 47580, Note_on_c, 9, 42, 100
20, 47610, Note_on_c, 9, 42, 0
20, 47700, Note_on_c, 9, 42, 100
20, 47730, Note_on_c, 9, 42, 0
20, 47820, Note_on_c, 9, 42, 100
20, 47850, Note_on_c, 9, 42, 0
20, 47850, Note_on_c, 9, 42, 100
20, 47880, Note_on_c, 9, 42, 0
20, 47940, Note_on_c, 9, 42, 100
20, 47970, Note_on_c, 9, 42, 0
20, 48060, Note_on_c, 9, 42, 100
20, 48090, Note_on_c, 9, 42, 0
20, 48180, Note_on_c, 9, 42, 100
20, 48210, Note_on_c, 9, 42, 0
20, 48300, Note_on_c, 9, 42, 100
20, 48330, Note_on_c, 9, 42, 0
20, 48330, Note_on_c, 9, 42, 100
20, 48360, Note_on_c, 9, 42, 0
20, 48420, Note_on_c, 9, 42, 100
20, 48450, Note_on_c, 9, 42, 0
20, 48540, Note_on_c, 9, 42, 100
20, 48570, Note_on_c, 9, 42, 0
20, 48660, Note_on_c, 9, 42, 100
20, 48690, Note_on_c, 9, 42, 0
20, 48780, Note_on_c, 9, 42, 100
20, 48810, Note_on_c, 9, 42, 0
20, 48810, Note_on_c, 9, 42, 100
20, 48840, Note_on_c, 9, 42, 0
20, 48900, Note_on_c, 9, 42, 100
20, 48930, Note_on_c, 9, 42, 0
20, 49020, Note_on_c, 9, 42, 100
20, 49050, Note_on_c, 9, 42, 0
20, 49140, Note_on_c, 9, 42, 100
20, 49170, Note_on_c, 9, 42, 0
20, 49260, Note_on_c, 9, 42, 100
20, 49290, Note_on_c, 9, 42, 0
20, 49290, Note_on_c, 9, 42, 100
20, 49320, Note_on_c, 9, 42, 0
20, 49380, Note_on_c, 9, 42, 100
20, 49410, Note_on_c, 9, 42, 0
20, 49500, Note_on_c, 9, 42, 100
20, 49530, Note_on_c, 9, 42, 0
20, 49620, Note_on_c, 9, 42, 100
20, 49650, Note_on_c, 9, 42, 0
20, 49740, Note_on_c, 9, 42, 100
20, 49770, Note_on_c, 9, 42, 0
20, 49770, Note_on_c, 9, 42, 100
20, 49800, Note_on_c, 9, 42, 0
20, 49860, Note_on_c, 9, 42, 100
20, 49890, Note_on_c, 9, 42, 0
20, 49980, Note_on_c, 9, 42, 100
20, 50010, Note_on_c, 9, 42, 0
20, 50100, Note_on_c, 9, 42, 100
20, 50130, Note_on_c, 9, 42, 0
20, 50220, Note_on_c, 9, 42, 100
20, 50250, Note_on_c, 9, 42, 0
20, 50250, Note_on_c, 9, 42, 100
20, 50280, Note_on_c, 9, 42, 0
20, 50340, Note_on_c, 9, 42, 100
20, 50370, Note_on_c, 9, 42, 0
20, 50460, Note_on_c, 9, 42, 100
20, 50490, Note_on_c, 9, 42, 0
20, 50580, Note_on_c, 9, 42, 100
20, 50610, Note_on_c, 9, 42, 0
20, 50700, Note_on_c, 9, 42, 100
20, 50730, Note_on_c, 9, 42, 0
20, 50730, Note_on_c, 9, 42, 100
20, 50760, Note_on_c, 9, 42, 0
20, 50820, Note_on_c, 9, 42, 100
20, 50850, Note_on_c, 9, 42, 0
20, 50940, Note_on_c, 9, 42, 100
20, 50970, Note_on_c, 9, 42, 0
20, 51060, Note_on_c, 9, 42, 100
20, 51090, Note_on_c, 9, 42, 0
20, 51180, Note_on_c, 9, 42, 100
20, 51210, Note_on_c, 9, 42, 0
20, 51210, Note_on_c, 9, 42, 100
20, 51240, Note_on_c, 9, 42, 0
20, 51300, Note_on_c, 9, 42, 100
20, 51330, Note_on_c, 9, 42, 0
20, 51420, Note_on_c, 9, 42, 100
20, 51450, Note_on_c, 9, 42, 0
20, 51540, Note_on_c, 9, 42, 100
20, 51570, Note_on_c, 9, 42, 0
20, 51660, Note_on_c, 9, 42, 100
20, 51690, Note_on_c, 9, 42, 0
20, 51690, Note_on_c, 9, 42, 100
20, 51720, Note_on_c, 9, 42, 0
20, 51780, Note_on_c, 9, 42, 100
20, 51810, Note_on_c, 9, 42, 0
20, 51900, Note_on_c, 9, 42, 100
20, 51930, Note_on_c, 9, 42, 0
20, 52020, Note_on_c, 9, 42, 100
20, 52050, Note_on_c, 9, 42, 0
20, 52140, Note_on_c, 9, 42, 100
20, 52170, Note_on_c, 9, 42, 0
20, 52170, Note_on_c, 9, 42, 100
20, 52200, Note_on_c, 9, 42, 0
20, 52260, Note_on_c, 9, 42, 100
20, 52290, Note_on_c, 9, 42, 0
20, 52380, Note_on_c, 9, 42, 100
20, 52410, Note_on_c, 9, 42, 0
20, 52500, Note_on_c, 9, 42, 100
20, 52530, Note_on_c, 9, 42, 0
20, 52620, Note_on_c, 9, 42, 100
20, 52650, Note_on_c, 9, 42, 0
20, 52650, Note_on_c, 9, 42, 100
20, 52680, Note_on_c, 9, 42, 0
20, 52740, Note_on_c, 9, 42, 100
20, 52770, Note_on_c, 9, 42, 0
20, 52860, Note_on_c, 9, 42, 100
20, 52890, Note_on_c, 9, 42, 0
20, 52980, Note_on_c, 9, 42, 100
20, 53010, Note_on_c, 9, 42, 0
20, 53100, Note_on_c, 9, 42, 100
20, 53130, Note_on_c, 9, 42, 0
20, 53130, Note_on_c, 9, 42, 100
20, 53160, Note_on_c, 9, 42, 0
20, 53220, Note_on_c, 9, 42, 100
20, 53250, Note_on_c, 9, 42, 0
20, 53340, Note_on_c, 9, 42, 100
20, 53370, Note_on_c, 9, 42, 0
20, 53460, Note_on_c, 9, 42, 100
20, 53490, Note_on_c, 9, 42, 0
20, 53580, Note_on_c, 9, 42, 100
20, 53610, Note_on_c, 9, 42, 0
20, 53610, Note_on_c, 9, 42, 100
20, 53640, Note_on_c, 9, 42, 0
20, 53700, Note_on_c, 9, 42, 100
20, 53730, Note_on_c, 9, 42, 0
20, 53820, Note_on_c, 9, 42, 100
20, 53850, Note_on_c, 9, 42, 0
20, 53940, Note_on_c, 9, 42, 100
20, 53970, Note_on_c, 9, 42, 0
20, 54060, Note_on_c, 9, 42, 100
20, 54090, Note_on_c, 9, 42, 0
20, 54090, Note_on_c, 9, 42, 100
20, 54120, Note_on_c, 9, 42, 0
20, 54180, Note_on_c, 9, 42, 100
20, 54210, Note_on_c, 9, 42, 0
20, 54300, Note_on_c, 9, 42, 100
20, 54330, Note_on_c, 9, 42, 0
20, 54420, Note_on_c, 9, 42, 100
20, 54450, Note_on_c, 9, 42, 0
20, 54540, Note_on_c, 9, 42, 100
20, 54570, Note_on_c, 9, 42, 0
20, 54570, Note_on_c, 9, 42, 100
20, 54600, Note_on_c, 9, 42, 0
20, 54660, Note_on_c, 9, 42, 100
20, 54690, Note_on_c, 9, 42, 0
20, 54780, Note_on_c, 9, 42, 100
20, 54810, Note_on_c, 9, 42, 0
20, 54900, Note_on_c, 9, 42, 100
20, 54930, Note_on_c, 9, 42, 0
20, 55020, Note_on_c, 9, 42, 100
20, 55050, Note_on_c, 9, 42, 0
20, 55050, Note_on_c, 9, 42, 100
20, 55080, Note_on_c, 9, 42, 0
20, 55140, Note_on_c, 9, 42, 100
20, 55170, Note_on_c, 9, 42, 0
20, 55260, Note_on_c, 9, 42, 100
20, 55290, Note_on_c, 9, 42, 0
20, 55380, Note_on_c, 9, 42, 100
20, 55410, Note_on_c, 9, 42, 0
20, 55500, Note_on_c, 9, 42, 100
20, 55530, Note_on_c, 9, 42, 0
20, 55530, Note_on_c, 9, 42, 100
20, 55560, Note_on_c, 9, 42, 0
20, 55620, Note_on_c, 9, 42, 100
20, 55650, Note_on_c, 9, 42, 0
20, 55740, Note_on_c, 9, 42, 100
20, 55770, Note_on_c, 9, 42, 0
20, 55860, Note_on_c, 9, 42, 100
20, 55890, Note_on_c, 9, 42, 0
20, 55980, Note_on_c, 9, 42, 100
20, 56010, Note_on_c, 9, 42, 0
20, 56010, Note_on_c, 9, 42, 100
20, 56040, Note_on_c, 9, 42, 0
20, 56100, Note_on_c, 9, 42, 100
20, 56130, Note_on_c, 9, 42, 0
20, 56220, Note_on_c, 9, 42, 100
20, 56250, Note_on_c, 9, 42, 0
20, 56340, Note_on_c, 9, 42, 100
20, 56370, Note_on_c, 9, 42, 0
20, 56460, Note_on_c, 9, 42, 100
20, 56490, Note_on_c, 9, 42, 0
20, 56490, Note_on_c, 9, 42, 100
20, 56520, Note_on_c, 9, 42, 0
20, 56580, Note_on_c, 9, 42, 100
20, 56610, Note_on_c, 9, 42, 0
20, 56700, Note_on_c, 9, 42, 100
20, 56730, Note_on_c, 9, 42, 0
20, 56820, Note_on_c, 9, 42, 100
20, 56850, Note_on_c, 9, 42, 0
20, 56940, Note_on_c, 9, 42, 100
20, 56970, Note_on_c, 9, 42, 0
20, 56970, Note_on_c, 9, 42, 100
20, 57000, Note_on_c, 9, 42, 0
20, 57060, Note_on_c, 9, 42, 100
20, 57090, Note_on_c, 9, 42, 0
20, 57180, Note_on_c, 9, 42, 100
20, 57210, Note_on_c, 9, 42, 0
20, 57300, Note_on_c, 9, 42, 100
20, 57330, Note_on_c, 9, 42, 0
20, 57420, Note_on_c, 9, 42, 100
20, 57450, Note_on_c, 9, 42, 0
20, 57450, Note_on_c, 9, 42, 100
20, 57480, Note_on_c, 9, 42, 0
20, 57540, Note_on_c, 9, 42, 100
20, 57570, Note_on_c, 9, 42, 0
20, 57660, Note_on_c, 9, 42, 100
20, 57690, Note_on_c, 9, 42, 0
20, 57780, Note_on_c, 9, 42, 100
20, 57810, Note_on_c, 9, 42, 0
20, 57900, Note_on_c, 9, 42, 100
20, 57930, Note_on_c, 9, 42, 0
20, 57930, Note_on_c, 9, 42, 100
20, 57960, Note_on_c, 9, 42, 0
20, 58020, Note_on_c, 9, 42, 100
20, 58050, Note_on_c, 9, 42, 0
20, 58140, Note_on_c, 9, 42, 100
20, 58170, Note_on_c, 9, 42, 0
20, 58260, Note_on_c, 9, 42, 100
20, 58290, Note_on_c, 9, 42, 0
20, 58380, Note_on_c, 9, 42, 100
20, 58410, Note_on_c, 9, 42, 0
20, 58410, Note_on_c, 9, 42, 100
20, 58440, Note_on_c, 9, 42, 0
20, 58500, Note_on_c, 9, 42, 100
20, 58530, Note_on_c, 9, 42, 0
20, 58620, Note_on_c, 9, 42, 100
20, 58650, Note_on_c, 9, 42, 0
20, 58740, Note_on_c, 9, 42, 100
20, 58770, Note_on_c, 9, 42, 0
20, 58860, Note_on_c, 9, 42, 100
20, 58890, Note_on_c, 9, 42, 0
20, 58890, Note_on_c, 9, 42, 100
20, 58920, Note_on_c, 9, 42, 0
20, 58980, Note_on_c, 9, 42, 100
20, 59010, Note_on_c, 9, 42, 0
20, 59100, Note_on_c, 9, 42, 100
20, 59130, Note_on_c, 9, 42, 0
20, 59220, Note_on_c, 9, 42, 100
20, 59250, Note_on_c, 9, 42, 0
20, 59340, Note_on_c, 9, 42, 100
20, 59370, Note_on_c, 9, 42, 0
20, 59370, Note_on_c, 9, 42, 100
20, 59400, Note_on_c, 9, 42, 0
20, 59460, Note_on_c, 9, 42, 100
20, 59490, Note_on_c, 9, 42, 0
20, 59580, Note_on_c, 9, 42, 100
20, 59610, Note_on_c, 9, 42, 0
20, 59700, Note_on_c, 9, 42, 100
20, 59730, Note_on_c, 9, 42, 0
20, 59820, Note_on_c, 9, 42, 100
20, 59850, Note_on_c, 9, 42, 0
20, 59850, Note_on_c, 9, 42, 100
20, 59880, Note_on_c, 9, 42, 0
20, 59940, Note_on_c, 9, 42, 100
20, 59970, Note_on_c, 9, 42, 0
20, 60060, Note_on_c, 9, 42, 100
20, 60090, Note_on_c, 9, 42, 0
20, 60180, Note_on_c, 9, 42, 100
20, 60210, Note_on_c, 9, 42, 0
20, 60300, Note_on_c, 9, 42, 100
20, 60330, Note_on_c, 9, 42, 0
20, 60330, Note_on_c, 9, 42, 100
20, 60360, Note_on_c, 9, 42, 0
20, 60420, Note_on_c, 9, 42, 100
20, 60450, Note_on_c, 9, 42, 0
20, 60540, Note_on_c, 9, 42, 100
20, 60570, Note_on_c, 9, 42, 0
20, 60660, Note_on_c, 9, 42, 100
20, 60690, Note_on_c, 9, 42, 0
20, 60780, Note_on_c, 9, 42, 100
20, 60810, Note_on_c, 9, 42, 0
20, 60810, Note_on_c, 9, 42, 100
20, 60840, Note_on_c, 9, 42, 0
20, 60900, Note_on_c, 9, 42, 100
20, 60930, Note_on_c, 9, 42, 0
20, 61020, Note_on_c, 9, 42, 100
20, 61050, Note_on_c, 9, 42, 0
20, 61140, Note_on_c, 9, 42, 100
20, 61170, Note_on_c, 9, 42, 0
20, 61260, Note_on_c, 9, 42, 100
20, 61290, Note_on_c, 9, 42, 0
20, 61290, Note_on_c, 9, 42, 100
20, 61320, Note_on_c, 9, 42, 0
20, 61380, Note_on_c, 9, 42, 100
20, 61410, Note_on_c, 9, 42, 0
20, 61500, Note_on_c, 9, 42, 100
20, 61530, Note_on_c, 9, 42, 0
20, 61620, Note_on_c, 9, 42, 100
20, 61650, Note_on_c, 9, 42, 0
20, 61740, Note_on_c, 9, 42, 100
20, 61770, Note_on_c, 9, 42, 0
20, 61770, Note_on_c, 9, 42, 100
20, 61800, Note_on_c, 9, 42, 0
20, 61860, Note_on_c, 9, 42, 100
20, 61890, Note_on_c, 9, 42, 0
20, 61980, Note_on_c, 9, 42, 100
20, 62010, Note_on_c, 9, 42, 0
20, 62100, Note_on_c, 9, 42, 100
20, 62130, Note_on_c, 9, 42, 0
20, 62220, Note_on_c, 9, 42, 100
20, 62250, Note_on_c, 9, 42, 0
20, 62250, Note_on_c, 9, 42, 100
20, 62280, Note_on_c, 9, 42, 0
20, 62340, Note_on_c, 9, 42, 100
20, 62370, Note_on_c, 9, 42, 0
20, 62460, Note_on_c, 9, 42, 100
20, 62490, Note_on_c, 9, 42, 0
20, 62580, Note_on_c, 9, 42, 100
20, 62610, Note_on_c, 9, 42, 0
20, 62700, Note_on_c, 9, 42, 100
20, 62730, Note_on_c, 9, 42, 0
20, 62730, Note_on_c, 9, 42, 100
20, 62760, Note_on_c, 9, 42, 0
20, 62820, Note_on_c, 9, 42, 100
20, 62850, Note_on_c, 9, 42, 0
20, 62940, Note_on_c, 9, 42, 100
20, 62970, Note_on_c, 9, 42, 0
20, 63060, Note_on_c, 9, 42, 100
20, 63090, Note_on_c, 9, 42, 0
20, 63180, Note_on_c, 9, 42, 100
20, 63210, Note_on_c, 9, 42, 0
20, 63210, Note_on_c, 9, 42, 100
20, 63240, Note_on_c, 9, 42, 0
20, 63300, Note_on_c, 9, 42, 100
20, 63330, Note_on_c, 9, 42, 0
20, 63420, Note_on_c, 9, 42, 100
20, 63450, Note_on_c, 9, 42, 0
20, 63540, Note_on_c, 9, 42, 100
20, 63570, Note_on_c, 9, 42, 0
20, 63660, Note_on_c, 9, 42, 100
20, 63690, Note_on_c, 9, 42, 0
20, 63690, Note_on_c, 9, 42, 100
20, 63720, Note_on_c, 9, 42, 0
20, 63780, Note_on_c, 9, 42, 100
20, 63810, Note_on_c, 9, 42, 0
20, 63900, Note_on_c, 9, 42, 100
20, 63930, Note_on_c, 9, 42, 0
20, 64020, Note_on_c, 9, 42, 100
20, 64050, Note_on_c, 9, 42, 0
20, 64140, Note_on_c, 9, 42, 100
20, 64170, Note_on_c, 9, 42, 0
20, 64170, Note_on_c, 9, 42, 100
20, 64200, Note_on_c, 9, 42, 0
20, 64260, Note_on_c, 9, 42, 100
20, 64290, Note_on_c, 9, 42, 0
20, 64380, Note_on_c, 9, 42, 100
20, 64410, Note_on_c, 9, 42, 0
20, 64500, Note_on_c, 9, 42, 100
20, 64530, Note_on_c, 9, 42, 0
20, 64620, Note_on_c, 9, 42, 100
20, 64650, Note_on_c, 9, 42, 0
20, 64650, Note_on_c, 9, 42, 100
20, 64680, Note_on_c, 9, 42, 0
20, 64740, Note_on_c, 9, 42, 100
20, 64770, Note_on_c, 9, 42, 0
20, 64860, Note_on_c, 9, 42, 100
20, 64890, Note_on_c, 9, 42, 0
20, 64980, Note_on_c, 9, 42, 100
20, 65010, Note_on_c, 9, 42, 0
20, 65100, Note_on_c, 9, 42, 100
20, 65130, Note_on_c, 9, 42, 0
20, 65130, Note_on_c, 9, 42, 100
20, 65160, Note_on_c, 9, 42, 0
20, 65220, Note_on_c, 9, 42, 100
20, 65250, Note_on_c, 9, 42, 0
20, 65340, Note_on_c, 9, 42, 100
20, 65370, Note_on_c, 9, 42, 0
20, 65460, Note_on_c, 9, 42, 100
20, 65490, Note_on_c, 9, 42, 0
20, 65580, Note_on_c, 9, 42, 100
20, 65610, Note_on_c, 9, 42, 0
20, 65610, Note_on_c, 9, 42, 100
20, 65640, Note_on_c, 9, 42, 0
20, 65700, Note_on_c, 9, 42, 100
20, 65730, Note_on_c, 9, 42, 0
20, 65820, Note_on_c, 9, 42, 100
20, 65850, Note_on_c, 9, 42, 0
20, 65940, Note_on_c, 9, 42, 100
20, 65970, Note_on_c, 9, 42, 0
20, 66060, Note_on_c, 9, 42, 100
20, 66090, Note_on_c, 9, 42, 0
20, 66090, Note_on_c, 9, 42, 100
20, 66120, Note_on_c, 9, 42, 0
20, 66180, Note_on_c, 9, 42, 100
20, 66210, Note_on_c, 9, 42, 0
20, 66300, Note_on_c, 9, 42, 100
20, 66330, Note_on_c, 9, 42, 0
20, 66420, Note_on_c, 9, 42, 100
20, 66450, Note_on_c, 9, 42, 0
20, 66540, Note_on_c, 9, 42, 100
20, 66570, Note_on_c, 9, 42, 0
20, 66570, Note_on_c, 9, 42, 100
20, 66600, Note_on_c, 9, 42, 0
20, 66660, Note_on_c, 9, 42, 100
20, 66690, Note_on_c, 9, 42, 0
20, 66780, Note_on_c, 9, 42, 100
20, 66810, Note_on_c, 9, 42, 0
20, 66900, Note_on_c, 9, 42, 100
20, 66930, Note_on_c, 9, 42, 0
20, 67020, Note_on_c, 9, 42, 100
20, 67050, Note_on_c, 9, 42, 0
20, 67050, Note_on_c, 9, 42, 100
20, 67080, Note_on_c, 9, 42, 0
20, 67140, Note_on_c, 9, 42, 100
20, 67170, Note_on_c, 9, 42, 0
20, 67260, Note_on_c, 9, 42, 100
20, 67290, Note_on_c, 9, 42, 0
20, 67380, Note_on_c, 9, 42, 100
20, 67410, Note_on_c, 9, 42, 0
20, 67500, Note_on_c, 9, 42, 100
20, 67530, Note_on_c, 9, 42, 0
20, 67530, Note_on_c, 9, 42, 100
20, 67560, Note_on_c, 9, 42, 0
20, 67620, Note_on_c, 9, 42, 100
20, 67650, Note_on_c, 9, 42, 0
20, 67740, Note_on_c, 9, 42, 100
20, 67770, Note_on_c, 9, 42, 0
20, 67860, Note_on_c, 9, 42, 100
20, 67890, Note_on_c, 9, 42, 0
20, 67980, Note_on_c, 9, 42, 100
20, 68010, Note_on_c, 9, 42, 0
20, 68010, Note_on_c, 9, 42, 100
20, 68040, Note_on_c, 9, 42, 0
20, 68100, Note_on_c, 9, 42, 100
20, 68130, Note_on_c, 9, 42, 0
20, 68220, Note_on_c, 9, 42, 100
20, 68250, Note_on_c, 9, 42, 0
20, 68340, Note_on_c, 9, 42, 100
20, 68370, Note_on_c, 9, 42, 0
20, 68460, Note_on_c, 9, 42, 100
20, 68490, Note_on_c, 9, 42, 0
20, 68490, Note_on_c, 9, 42, 100
20, 68520, Note_on_c, 9, 42, 0
20, 68580, Note_on_c, 9, 42, 100
20, 68610, Note_on_c, 9, 42, 0
20, 68700, Note_on_c, 9, 42, 100
20, 68730, Note_on_c, 9, 42, 0
20, 68820, Note_on_c, 9, 42, 100
20, 68850, Note_on_c, 9, 42, 0
20, 68940, Note_on_c, 9, 42, 100
20, 68970, Note_on_c, 9, 42, 0
20, 68970, Note_on_c, 9, 42, 100
20, 69000, Note_on_c, 9, 42, 0
20, 69060, Note_on_c, 9, 42, 100
20, 69090, Note_on_c, 9, 42, 0
20, 69180, Note_on_c, 9, 42, 100
20, 69210, Note_on_c, 9, 42, 0
20, 69300, Note_on_c, 9, 42, 100
20, 69330, Note_on_c, 9, 42, 0
20, 69420, Note_on_c, 9, 42, 100
20, 69450, Note_on_c, 9, 42, 0
20, 69450, Note_on_c, 9, 42, 100
20, 69480, Note_on_c, 9, 42, 0
20, 69540, Note_on_c, 9, 42, 100
20, 69570, Note_on_c, 9, 42, 0
20, 69660, Note_on_c, 9, 42, 100
20, 69690, Note_on_c, 9, 42, 0
20, 69780, Note_on_c, 9, 42, 100
20, 69810, Note_on_c, 9, 42, 0
20, 69900, Note_on_c, 9, 42, 100
20, 69930, Note_on_c, 9, 42, 0
20, 69930, Note_on_c, 9, 42, 100
20, 69960, Note_on_c, 9, 42, 0
20, 70020, Note_on_c, 9, 42, 100
20, 70050, Note_on_c, 9, 42, 0
20, 70140, Note_on_c, 9, 42, 100
20, 70170, Note_on_c, 9, 42, 0
20, 70260, Note_on_c, 9, 42, 100
20, 70290, Note_on_c, 9, 42, 0
20, 70380, Note_on_c, 9, 42, 100
20, 70410, Note_on_c, 9, 42, 0
20, 70410, Note_on_c, 9, 42, 100
20, 70440, Note_on_c, 9, 42, 0
20, 70500, Note_on_c, 9, 42, 100
20, 70530, Note_on_c, 9, 42, 0
20, 70620, Note_on_c, 9, 42, 100
20, 70650, Note_on_c, 9, 42, 0
20, 70740, Note_on_c, 9, 42, 100
20, 70770, Note_on_c, 9, 42, 0
20, 70860, Note_on_c, 9, 42, 100
20, 70890, Note_on_c, 9, 42, 0
20, 70890, Note_on_c, 9, 42, 100
20, 70920, Note_on_c, 9, 42, 0
20, 70980, Note_on_c, 9, 42, 100
20, 71010, Note_on_c, 9, 42, 0
20, 71100, Note_on_c, 9, 42, 100
20, 71130, Note_on_c, 9, 42, 0
20, 71220, Note_on_c, 9, 42, 100
20, 71250, Note_on_c, 9, 42, 0
20, 71340, Note_on_c, 9, 42, 100
20, 71370, Note_on_c, 9, 42, 0
20, 71370, Note_on_c, 9, 42, 100
20, 71400, Note_on_c, 9, 42, 0
20, 71460, Note_on_c, 9, 42, 100
20, 71490, Note_on_c, 9, 42, 0
20, 71580, Note_on_c, 9, 42, 100
20, 71610, Note_on_c, 9, 42, 0
20, 71700, Note_on_c, 9, 42, 100
20, 71730, Note_on_c, 9, 42, 0
20, 71820, Note_on_c, 9, 42, 100
20, 71850, Note_on_c, 9, 42, 0
20, 71850, Note_on_c, 9, 42, 100
20, 71880, Note_on_c, 9, 42, 0
20, 71940, Note_on_c, 9, 42, 100
20, 71970, Note_on_c, 9, 42, 0
20, 72060, Note_on_c, 9, 42, 100
20, 72090, Note_on_c, 9, 42, 0
20, 72180, Note_on_c, 9, 42, 100
20, 72210, Note_on_c, 9, 42, 0
20, 72300, Note_on_c, 9, 42, 100
20, 72330, Note_on_c, 9, 42, 0
20, 72330, Note_on_c, 9, 42, 100
20, 72360, Note_on_c, 9, 42, 0
20, 72420, Note_on_c, 9, 42, 100
20, 72450, Note_on_c, 9, 42, 0
20, 72540, Note_on_c, 9, 42, 100
20, 72570, Note_on_c, 9, 42, 0
20, 72660, Note_on_c, 9, 42, 100
20, 72690, Note_on_c, 9, 42, 0
20, 72780, Note_on_c, 9, 42, 100
20, 72810, Note_on_c, 9, 42, 0
20, 72810, Note_on_c, 9, 42, 100
20, 72840, Note_on_c, 9, 42, 0
20, 72900, Note_on_c, 9, 42, 100
20, 72930, Note_on_c, 9, 42, 0
20, 73020, Note_on_c, 9, 42, 100
20, 73050, Note_on_c, 9, 42, 0
20, 73140, Note_on_c, 9, 42, 100
20, 73170, Note_on_c, 9, 42, 0
20, 73260, Note_on_c, 9, 42, 100
20, 73290, Note_on_c, 9, 42, 0
20, 73290, Note_on_c, 9, 42, 100
20, 73320, Note_on_c, 9, 42, 0
20, 73380, Note_on_c, 9, 42, 100
20, 73410, Note_on_c, 9, 42, 0
20, 73500, Note_on_c, 9, 42, 100
20, 73530, Note_on_c, 9, 42, 0
20, 73620, Note_on_c, 9, 42, 100
20, 73650, Note_on_c, 9, 42, 0
20, 73740, Note_on_c, 9, 42, 100
20, 73770, Note_on_c, 9, 42, 0
20, 73770, Note_on_c, 9, 42, 100
20, 73800, Note_on_c, 9, 42, 0
20, 73860, Note_on_c, 9, 42, 100
20, 73890, Note_on_c, 9, 42, 0
20, 73980, Note_on_c, 9, 42, 100
20, 74010, Note_on_c, 9, 42, 0
20, 74100, Note_on_c, 9, 42, 100
20, 74130, Note_on_c, 9, 42, 0
20, 74220, Note_on_c, 9, 42, 100
20, 74250, Note_on_c, 9, 42, 0
20, 74250, Note_on_c, 9, 42, 100
20, 74280, Note_on_c, 9, 42, 0
20, 74340, Note_on_c, 9, 42, 100
20, 74370, Note_on_c, 9, 42, 0
20, 74460, Note_on_c, 9, 42, 100
20, 74490, Note_on_c, 9, 42, 0
20, 74580, Note_on_c, 9, 42, 100
20, 74610, Note_on_c, 9, 42, 0
20, 74700, Note_on_c, 9, 42, 100
20, 74730, Note_on_c, 9, 42, 0
20, 74730, Note_on_c, 9, 42, 100
20, 74760, Note_on_c, 9, 42, 0
20, 74820, Note_on_c, 9, 42, 100
20, 74850, Note_on_c, 9, 42, 0
20, 74940, Note_on_c, 9, 42, 100
20, 74970, Note_on_c, 9, 42, 0
20, 75060, Note_on_c, 9, 42, 100
20, 75090, Note_on_c, 9, 42, 0
20, 75180, Note_on_c, 9, 42, 100
20, 75210, Note_on_c, 9, 42, 0
20, 75210, Note_on_c, 9, 42, 100
20, 75240, Note_on_c, 9, 42, 0
20, 75300, Note_on_c, 9, 42, 100
20, 75330, Note_on_c, 9, 42, 0
20, 75420, Note_on_c, 9, 42, 100
20, 75450, Note_on_c, 9, 42, 0
20, 75540, Note_on_c, 9, 42, 100
20, 75570, Note_on_c, 9, 42, 0
20, 75660, Note_on_c, 9, 42, 100
20, 75690, Note_on_c, 9, 42, 0
20, 75690, Note_on_c, 9, 42, 100
20, 75720, Note_on_c, 9, 42, 0
20, 75780, Note_on_c, 9, 42, 100
20, 75810, Note_on_c, 9, 42, 0
20, 75900, Note_on_c, 9, 42, 100
20, 75930, Note_on_c, 9, 42, 0
20, 76020, Note_on_c, 9, 42, 100
20, 76050, Note_on_c, 9, 42, 0
20, 76140, Note_on_c, 9, 42, 100
20, 76170, Note_on_c, 9, 42, 0
20, 76170, Note_on_c, 9, 42, 100
20, 76200, Note_on_c, 9, 42, 0
20, 76260, Note_on_c, 9, 42, 100
20, 76290, Note_on_c, 9, 42, 0
20, 76380, Note_on_c, 9, 42, 100
20, 76410, Note_on_c, 9, 42, 0
20, 76500, Note_on_c, 9, 42, 100
20, 76530, Note_on_c, 9, 42, 0
20, 76620, Note_on_c, 9, 42, 100
20, 76650, Note_on_c, 9, 42, 0
20, 76650, Note_on_c, 9, 42, 100
20, 76680, Note_on_c, 9, 42, 0
20, 76740, Note_on_c, 9, 42, 100
20, 76770, Note_on_c, 9, 42, 0
20, 76860, Note_on_c, 9, 42, 100
20, 76890, Note_on_c, 9, 42, 0
20, 76980, Note_on_c, 9, 42, 100
20, 77010, Note_on_c, 9, 42, 0
20, 77100, Note_on_c, 9, 42, 100
20, 77130, Note_on_c, 9, 42, 0
20, 77130, Note_on_c, 9, 42, 100
20, 77160, Note_on_c, 9, 42, 0
20, 77220, Note_on_c, 9, 42, 100
20, 77250, Note_on_c, 9, 42, 0
20, 77340, Note_on_c, 9, 42, 100
20, 77370, Note_on_c, 9, 42, 0
20, 77460, Note_on_c, 9, 42, 100
20, 77490, Note_on_c, 9, 42, 0
20, 77580, Note_on_c, 9, 42, 100
20, 77610, Note_on_c, 9, 42, 0
20, 77610, Note_on_c, 9, 42, 100
20, 77640, Note_on_c, 9, 42, 0
20, 77700, Note_on_c, 9, 42, 100
20, 77730, Note_on_c, 9, 42, 0
20, 77820, Note_on_c, 9, 42, 100
20, 77850, Note_on_c, 9, 42, 0
20, 77940, Note_on_c, 9, 42, 100
20, 77970, Note_on_c, 9, 42, 0
20, 78060, Note_on_c, 9, 42, 100
20, 78090, Note_on_c, 9, 42, 0
20, 78090, Note_on_c, 9, 42, 100
20, 78120, Note_on_c, 9, 42, 0
20, 78180, Note_on_c, 9, 42, 100
20, 78210, Note_on_c, 9, 42, 0
20, 78300, Note_on_c, 9, 42, 100
20, 78330, Note_on_c, 9, 42, 0
20, 78420, Note_on_c, 9, 42, 100
20, 78450, Note_on_c, 9, 42, 0
20, 78540, Note_on_c, 9, 42, 100
20, 78570, Note_on_c, 9, 42, 0
20, 78570, Note_on_c, 9, 42, 100
20, 78600, Note_on_c, 9, 42, 0
20, 78660, Note_on_c, 9, 42, 100
20, 78690, Note_on_c, 9, 42, 0
20, 78780, Note_on_c, 9, 42, 100
20, 78810, Note_on_c, 9, 42, 0
20, 78900, Note_on_c, 9, 42, 100
20, 78930, Note_on_c, 9, 42, 0
20, 79020, Note_on_c, 9, 42, 100
20, 79050, Note_on_c, 9, 42, 0
20, 79050, Note_on_c, 9, 42, 100
20, 79080, Note_on_c, 9, 42, 0
20, 79140, Note_on_c, 9, 42, 100
20, 79170, Note_on_c, 9, 42, 0
20, 79260, Note_on_c, 9, 42, 100
20, 79290, Note_on_c, 9, 42, 0
20, 79380, Note_on_c, 9, 42, 100
20, 79410, Note_on_c, 9, 42, 0
20, 79500, Note_on_c, 9, 42, 100
20, 79530, Note_on_c, 9, 42, 0
20, 79530, Note_on_c, 9, 42, 100
20, 79560, Note_on_c, 9, 42, 0
20, 79620, Note_on_c, 9, 42, 100
20, 79650, Note_on_c, 9, 42, 0
20, 79740, Note_on_c, 9, 42, 100
20, 79770, Note_on_c, 9, 42, 0
20, 79860, Note_on_c, 9, 42, 100
20, 79890, Note_on_c, 9, 42, 0
20, 79980, Note_on_c, 9, 42, 100
20, 80010, Note_on_c, 9, 42, 0
20, 80010, Note_on_c, 9, 42, 100
20, 80040, Note_on_c, 9, 42, 0
20, 80100, Note_on_c, 9, 42, 100
20, 80130, Note_on_c, 9, 42, 0
20, 80220, Note_on_c, 9, 42, 100
20, 80250, Note_on_c, 9, 42, 0
20, 80340, Note_on_c, 9, 42, 100
20, 80370, Note_on_c, 9, 42, 0
20, 80460, Note_on_c, 9, 42, 100
20, 80490, Note_on_c, 9, 42, 0
20, 80490, Note_on_c, 9, 42, 100
20, 80520, Note_on_c, 9, 42, 0
20, 80580, Note_on_c, 9, 42, 100
20, 80610, Note_on_c, 9, 42, 0
20, 80700, Note_on_c, 9, 42, 100
20, 80730, Note_on_c, 9, 42, 0
20, 80820, Note_on_c, 9, 42, 100
20, 80850, Note_on_c, 9, 42, 0
20, 80940, Note_on_c, 9, 42, 100
20, 80970, Note_on_c, 9, 42, 0
20, 80970, Note_on_c, 9, 42, 100
20, 81000, Note_on_c, 9, 42, 0
20, 81060, Note_on_c, 9, 42, 100
20, 81090, Note_on_c, 9, 42, 0
20, 81180, Note_on_c, 9, 42, 100
20, 81210, Note_on_c, 9, 42, 0
20, 81300, Note_on_c, 9, 42, 100
20, 81330, Note_on_c, 9, 42, 0
20, 81420, Note_on_c, 9, 42, 100
20, 81450, Note_on_c, 9, 42, 0
20, 81450, Note_on_c, 9, 42, 100
20, 81480, Note_on_c, 9, 42, 0
20, 81540, Note_on_c, 9, 42, 100
20, 81570, Note_on_c, 9, 42, 0
20, 81660, Note_on_c, 9, 42, 100
20, 81690, Note_on_c, 9, 42, 0
20, 81780, Note_on_c, 9, 42, 100
20, 81810, Note_on_c, 9, 42, 0
20, 81900, Note_on_c, 9, 42, 100
20, 81930, Note_on_c, 9, 42, 0
20, 81930, Note_on_c, 9, 42, 100
20, 81960, Note_on_c, 9, 42, 0
20, 82020, Note_on_c, 9, 42, 100
20, 82050, Note_on_c, 9, 42, 0
20, 82140, Note_on_c, 9, 42, 100
20, 82170, Note_on_c, 9, 42, 0
20, 82260, Note_on_c, 9, 42, 100
20, 82290, Note_on_c, 9, 42, 0
20, 82380, Note_on_c, 9, 42, 100
20, 82410, Note_on_c, 9, 42, 0
20, 82410, Note_on_c, 9, 42, 100
20, 82440, Note_on_c, 9, 42, 0
20, 82500, Note_on_c, 9, 42, 100
20, 82530, Note_on_c, 9, 42, 0
20, 82620, Note_on_c, 9, 42, 100
20, 82650, Note_on_c, 9, 42, 0
20, 82740, Note_on_c, 9, 42, 100
20, 82770, Note_on_c, 9, 42, 0
20, 82860, Note_on_c, 9, 42, 100
20, 82890, Note_on_c, 9, 42, 0
20, 82890, Note_on_c, 9, 42, 100
20, 82920, Note_on_c, 9, 42, 0
20, 82980, Note_on_c, 9, 42, 100
20, 83010, Note_on_c, 9, 42, 0
20, 83100, Note_on_c, 9, 42, 100
20, 83130, Note_on_c, 9, 42, 0
20, 83220, Note_on_c, 9, 42, 100
20, 83250, Note_on_c, 9, 42, 0
20, 83340, Note_on_c, 9, 42, 100
20, 83370, Note_on_c, 9, 42, 0
20, 83370, Note_on_c, 9, 42, 100
20, 83400, Note_on_c, 9, 42, 0
20, 83460, Note_on_c, 9, 42, 100
20, 83490, Note_on_c, 9, 42, 0
20, 83580, Note_on_c, 9, 42, 100
20, 83610, Note_on_c, 9, 42, 0
20, 83700, Note_on_c, 9, 42, 100
20, 83730, Note_on_c, 9, 42, 0
20, 83820, Note_on_c, 9, 42, 100
20, 83850, Note_on_c, 9, 42, 0
20, 83850, Note_on_c, 9, 42, 100
20, 83880, Note_on_c, 9, 42, 0
20, 83940, Note_on_c, 9, 42, 100
20, 83970, Note_on_c, 9, 42, 0
20, 84060, Note_on_c, 9, 42, 100
20, 84090, Note_on_c, 9, 42, 0
20, 84180, Note_on_c, 9, 42, 100
20, 84210, Note_on_c, 9, 42, 0
20, 84300, Note_on_c, 9, 42, 100
20, 84330, Note_on_c, 9, 42, 0
20, 84330, Note_on_c, 9, 42, 100
20, 84360, Note_on_c, 9, 42, 0
20, 84420, Note_on_c, 9, 42, 100
20, 84450, Note_on_c, 9, 42, 0
20, 84540, Note_on_c, 9, 42, 100
20, 84570, Note_on_c, 9, 42, 0
20, 84660, Note_on_c, 9, 42, 100
20, 84690, Note_on_c, 9, 42, 0
20, 84780, Note_on_c, 9, 42, 100
20, 84810, Note_on_c, 9, 42, 0
20, 84810, Note_on_c, 9, 42, 100
20, 84840, Note_on_c, 9, 42, 0
20, 84900, Note_on_c, 9, 42, 100
20, 84930, Note_on_c, 9, 42, 0
20, 85020, Note_on_c, 9, 42, 100
20, 85050, Note_on_c, 9, 42, 0
20, 85140, Note_on_c, 9, 42, 100
20, 85170, Note_on_c, 9, 42, 0
20, 85260, Note_on_c, 9, 42, 100
20, 85290, Note_on_c, 9, 42, 0
20, 85290, Note_on_c, 9, 42, 100
20, 85320, Note_on_c, 9, 42, 0
20, 85380, Note_on_c, 9, 42, 100
20, 85410, Note_on_c, 9, 42, 0
20, 85500, Note_on_c, 9, 42, 100
20, 85530, Note_on_c, 9, 42, 0
20, 85620, Note_on_c, 9, 42, 100
20, 85650, Note_on_c, 9, 42, 0
20, 85740, Note_on_c, 9, 42, 100
20, 85770, Note_on_c, 9, 42, 0
20, 85770, Note_on_c, 9, 42, 100
20, 85800, Note_on_c, 9, 42, 0
20, 85860, Note_on_c, 9, 42, 100
20, 85890, Note_on_c, 9, 42, 0
20, 85980, Note_on_c, 9, 42, 100
20, 86010, Note_on_c, 9, 42, 0
20, 86100, Note_on_c, 9, 42, 100
20, 86130, Note_on_c, 9, 42, 0
20, 86220, Note_on_c, 9, 42, 100
20, 86250, Note_on_c, 9, 42, 0
20, 86250, Note_on_c, 9, 42, 100
20, 86280, Note_on_c, 9, 42, 0
20, 86340, Note_on_c, 9, 42, 100
20, 86370, Note_on_c, 9, 42, 0
20, 86460, Note_on_c, 9, 42, 100
20, 86490, Note_on_c, 9, 42, 0
20, 86580, Note_on_c, 9, 42, 100
20, 86610, Note_on_c, 9, 42, 0
20, 86700, Note_on_c, 9, 42, 100
20, 86730, Note_on_c, 9, 42, 0
20, 86730, Note_on_c, 9, 42, 100
20, 86760, Note_on_c, 9, 42, 0
20, 86820, Note_on_c, 9, 42, 100
20, 86850, Note_on_c, 9, 42, 0
20, 86940, Note_on_c, 9, 42, 100
20, 86970, Note_on_c, 9, 42, 0
20, 87060, Note_on_c, 9, 42, 100
20, 87090, Note_on_c, 9, 42, 0
20, 87180, Note_on_c, 9, 42, 100
20, 87210, Note_on_c, 9, 42, 0
20, 87210, Note_on_c, 9, 42, 100
20, 87240, Note_on_c, 9, 42, 0
20, 87300, Note_on_c, 9, 42, 100
20, 87330, Note_on_c, 9, 42, 0
20, 87420, Note_on_c, 9, 42, 100
20, 87450, Note_on_c, 9, 42, 0
20, 87540, Note_on_c, 9, 42, 100
20, 87570, Note_on_c, 9, 42, 0
20, 87660, Note_on_c, 9, 42, 100
20, 87690, Note_on_c, 9, 42, 0
20, 87690, Note_on_c, 9, 42, 100
20, 87720, Note_on_c, 9, 42, 0
20, 87780, Note_on_c, 9, 42, 100
20, 87810, Note_on_c, 9, 42, 0
20, 87900, Note_on_c, 9, 42, 100
20, 87930, Note_on_c, 9, 42, 0
20, 88020, Note_on_c, 9, 42, 100
20, 88050, Note_on_c, 9, 42, 0
20, 88140, Note_on_c, 9, 42, 100
20, 88170, Note_on_c, 9, 42, 0
20, 88170, Note_on_c, 9, 42, 100
20, 88200, Note_on_c, 9, 42, 0
20, 88260, Note_on_c, 9, 42, 100
20, 88290, Note_on_c, 9, 42, 0
20, 88380, Note_on_c, 9, 42, 100
20, 88410, Note_on_c, 9, 42, 0
20, 88500, Note_on_c, 9, 42, 100
20, 88530, Note_on_c, 9, 42, 0
20, 88620, Note_on_c, 9, 42, 100
20, 88650, Note_on_c, 9, 42, 0
20, 88650, Note_on_c, 9, 42, 100
20, 88680, Note_on_c, 9, 42, 0
20, 88740, Note_on_c, 9, 42, 100
20, 88770, Note_on_c, 9, 42, 0
20, 88860, Note_on_c, 9, 42, 100
20, 88890, Note_on_c, 9, 42, 0
20, 88980, Note_on_c, 9, 42, 100
20, 89010, Note_on_c, 9, 42, 0
20, 89100, Note_on_c, 9, 42, 100
20, 89130, Note_on_c, 9, 42, 0
20, 89130, Note_on_c, 9, 42, 100
20, 89160, Note_on_c, 9, 42, 0
20, 89220, Note_on_c, 9, 42, 100
20, 89250, Note_on_c, 9, 42, 0
20, 89340, Note_on_c, 9, 42, 100
20, 89370, Note_on_c, 9, 42, 0
20, 89460, Note_on_c, 9, 42, 100
20, 89490, Note_on_c, 9, 42, 0
20, 89580, Note_on_c, 9, 42, 100
20, 89610, Note_on_c, 9, 42, 0
20, 89610, Note_on_c, 9, 42, 100
20, 89640, Note_on_c, 9, 42, 0
20, 89700, Note_on_c, 9, 42, 100
20, 89730, Note_on_c, 9, 42, 0
20, 89820, Note_on_c, 9, 42, 100
20, 89850, Note_on_c, 9, 42, 0
20, 89940, Note_on_c, 9, 42, 100
20, 89970, Note_on_c, 9, 42, 0
20, 90060, Note_on_c, 9, 42, 100
20, 90090, Note_on_c, 9, 42, 0
20, 90090, Note_on_c, 9, 42, 100
20, 90120, Note_on_c, 9, 42, 0
20, 90180, Note_on_c, 9, 42, 100
20, 90210, Note_on_c, 9, 42, 0
20, 90300, Note_on_c, 9, 42, 100
20, 90330, Note_on_c, 9, 42, 0
20, 90420, Note_on_c, 9, 42, 100
20, 90450, Note_on_c, 9, 42, 0
20, 90540, Note_on_c, 9, 42, 100
20, 90570, Note_on_c, 9, 42, 0
20, 90570, Note_on_c, 9, 42, 100
20, 90600, Note_on_c, 9, 42, 0
20, 90660, Note_on_c, 9, 42, 100
20, 90690, Note_on_c, 9, 42, 0
20, 90780, Note_on_c, 9, 42, 100
20, 90810, Note_on_c, 9, 42, 0
20, 90900, Note_on_c, 9, 42, 100
20, 90930, Note_on_c, 9, 42, 0
20, 91020, Note_on_c, 9, 42, 100
20, 91050, Note_on_c, 9, 42, 0
20, 91050, Note_on_c, 9, 42, 100
20, 91080, Note_on_c, 9, 42, 0
20, 91140, Note_on_c, 9, 42, 100
20, 91170, Note_on_c, 9, 42, 0
20, 91260, Note_on_c, 9, 42, 100
20, 91290, Note_on_c, 9, 42, 0
20, 91380, Note_on_c, 9, 42, 100
20, 91410, Note_on_c, 9, 42, 0
20, 91500, Note_on_c, 9, 42, 100
20, 91530, Note_on_c, 9, 42, 0
20, 91530, Note_on_c, 9, 42, 100
20, 91560, Note_on_c, 9, 42, 0
20, 91620, Note_on_c, 9, 42, 100
20, 91650, Note_on_c, 9, 42, 0
20, 91740, Note_on_c, 9, 42, 100
20, 91770, Note_on_c, 9, 42, 0
20, 91860, Note_on_c, 9, 42, 100
20, 91890, Note_on_c, 9, 42, 0
20, 91980, Note_on_c, 9, 42, 100
20, 92010, Note_on_c, 9, 42, 0
20, 92010, Note_on_c, 9, 42, 100
20, 92040, Note_on_c, 9, 42, 0
20, 92100, Note_on_c, 9, 42, 100
20, 92130, Note_on_c, 9, 42, 0
20, 92220, Note_on_c, 9, 42, 100
20, 92250, Note_on_c, 9, 42, 0
20, 92340, Note_on_c, 9, 42, 100
20, 92370, Note_on_c, 9, 42, 0
20, 92460, Note_on_c, 9, 42, 100
20, 92490, Note_on_c, 9, 42, 0
20, 92490, Note_on_c, 9, 42, 100
20, 92520, Note_on_c, 9, 42, 0
20, 92580, Note_on_c, 9, 42, 100
20, 92610, Note_on_c, 9, 42, 0
20, 92700, Note_on_c, 9, 42, 100
20, 92730, Note_on_c, 9, 42, 0
20, 92820, Note_on_c, 9, 42, 100
20, 92850, Note_on_c, 9, 42, 0
20, 92940, Note_on_c, 9, 42, 100
20, 92970, Note_on_c, 9, 42, 0
20, 92970, Note_on_c, 9, 42, 100
20, 93000, Note_on_c, 9, 42, 0
20, 93060, Note_on_c, 9, 42, 100
20, 93090, Note_on_c, 9, 42, 0
20, 93180, Note_on_c, 9, 42, 100
20, 93210, Note_on_c, 9, 42, 0
20, 93300, Note_on_c, 9, 42, 100
20, 93330, Note_on_c, 9, 42, 0
20, 93420, Note_on_c, 9, 42, 100
20, 93450, Note_on_c, 9, 42, 0
20, 93450, Note_on_c, 9, 42, 100
20, 93480, Note_on_c, 9, 42, 0
20, 93540, Note_on_c, 9, 42, 100
20, 93570, Note_on_c, 9, 42, 0
20, 93660, Note_on_c, 9, 42, 100
20, 93690, Note_on_c, 9, 42, 0
20, 93780, Note_on_c, 9, 42, 100
20, 93810, Note_on_c, 9, 42, 0
20, 93900, Note_on_c, 9, 42, 100
20, 93930, Note_on_c, 9, 42, 0
20, 93930, Note_on_c, 9, 42, 100
20, 93960, Note_on_c, 9, 42, 0
20, 94020, Note_on_c, 9, 42, 100
20, 94050, Note_on_c, 9, 42, 0
20, 94140, Note_on_c, 9, 42, 100
20, 94170, Note_on_c, 9, 42, 0
20, 94260, Note_on_c, 9, 42, 100
20, 94290, Note_on_c, 9, 42, 0
20, 94380, Note_on_c, 9, 42, 100
20, 94410, Note_on_c, 9, 42, 0
20, 94410, Note_on_c, 9, 42, 100
20, 94440, Note_on_c, 9, 42, 0
20, 94500, Note_on_c, 9, 42, 100
20, 94530, Note_on_c, 9, 42, 0
20, 94620, Note_on_c, 9, 42, 100
20, 94650, Note_on_c, 9, 42, 0
20, 94740, Note_on_c, 9, 42, 100
20, 94770, Note_on_c, 9, 42, 0
20, 94860, Note_on_c, 9, 42, 100
20, 94890, Note_on_c, 9, 42, 0
20, 94890, Note_on_c, 9, 42, 100
20, 94920, Note_on_c, 9, 42, 0
20, 94980, Note_on_c, 9, 42, 100
20, 95010, Note_on_c, 9, 42, 0
20, 95100, Note_on_c, 9, 42, 100
20, 95130, Note_on_c, 9, 42, 0
20, 95220, Note_on_c, 9, 42, 100
20, 95250, Note_on_c, 9, 42, 0
20, 95340, Note_on_c, 9, 42, 100
20, 95370, Note_on_c, 9, 42, 0
20, 95370, Note_on_c, 9, 42, 100
20, 95400, Note_on_c, 9, 42, 0
20, 95460, Note_on_c, 9, 42, 100
20, 95490, Note_on_c, 9, 42, 0
20, 95580, Note_on_c, 9, 42, 100
20, 95610, Note_on_c, 9, 42, 0
20, 95700, Note_on_c, 9, 42, 100
20, 95730, Note_on_c, 9, 42, 0
20, 95820, Note_on_c, 9, 42, 100
20, 95850, Note_on_c, 9, 42, 0
20, 95850, Note_on_c, 9, 42, 100
20, 95880, Note_on_c, 9, 42, 0
20, 95940, Note_on_c, 9, 42, 100
20, 95970, Note_on_c, 9, 42, 0
20, 96060, Note_on_c, 9, 42, 100
20, 96090, Note_on_c, 9, 42, 0
20, 96180, Note_on_c, 9, 42, 100
20, 96210, Note_on_c, 9, 42, 0
20, 96300, Note_on_c, 9, 42, 100
20, 96330, Note_on_c, 9, 42, 0
20, 96330, Note_on_c, 9, 42, 100
20, 96360, Note_on_c, 9, 42, 0
20, 96420, Note_on_c, 9, 42, 100
20, 96450, Note_on_c, 9, 42, 0
20, 96540, Note_on_c, 9, 42, 100
20, 96570, Note_on_c, 9, 42, 0
20, 96660, Note_on_c, 9, 42, 100
20, 96690, Note_on_c, 9, 42, 0
20, 96780, Note_on_c, 9, 42, 100
20, 96810, Note_on_c, 9, 42, 0
20, 96810, Note_on_c, 9, 42, 100
20, 96840, Note_on_c, 9, 42, 0
20, 96900, Note_on_c, 9, 42, 100
20, 96930, Note_on_c, 9, 42, 0
20, 97020, Note_on_c, 9, 42, 100
20, 97050, Note_on_c, 9, 42, 0
20, 97140, Note_on_c, 9, 42, 100
20, 97170, Note_on_c, 9, 42, 0
20, 97260, Note_on_c, 9, 42, 100
20, 97290, Note_on_c, 9, 42, 0
20, 97290, Note_on_c, 9, 42, 100
20, 97320, Note_on_c, 9, 42, 0
20, 97380, Note_on_c, 9, 42, 100
20, 97410, Note_on_c, 9, 42, 0
20, 97500, Note_on_c, 9, 42, 100
20, 97530, Note_on_c, 9, 42, 0
20, 97620, Note_on_c, 9, 42, 100
20, 97650, Note_on_c, 9, 42, 0
20, 97740, Note_on_c, 9, 42, 100
20, 97770, Note_on_c, 9, 42, 0
20, 97770, Note_on_c, 9, 42, 100
20, 97800, Note_on_c, 9, 42, 0
20, 97860, Note_on_c, 9, 42, 100
20, 97890, Note_on_c, 9, 42, 0
20, 97980, Note_on_c, 9, 42, 100
20, 98010, Note_on_c, 9, 42, 0
20, 98100, Note_on_c, 9, 42, 100
20, 98130, Note_on_c, 9, 42, 0
20, 98220, Note_on_c, 9, 42, 100
20, 98250, Note_on_c, 9, 42, 0
20, 98250, Note_on_c, 9, 42, 100
20, 98280, Note_on_c, 9, 42, 0
20, 98340, Note_on_c, 9, 42, 100
20, 98370, Note_on_c, 9, 42, 0
20, 98460, Note_on_c, 9, 42, 100
20, 98490, Note_on_c, 9, 42, 0
20, 98580, Note_on_c, 9, 42, 100
20, 98610, Note_on_c, 9, 42, 0
20, 98700, Note_on_c, 9, 42, 100
20, 98730, Note_on_c, 9, 42, 0
20, 98730, Note_on_c, 9, 42, 100
20, 98760, Note_on_c, 9, 42, 0
20, 98820, Note_on_c, 9, 42, 100
20, 98850, Note_on_c, 9, 42, 0
20, 98940, Note_on_c, 9, 42, 100
20, 98970, Note_on_c, 9, 42, 0
20, 99060, Note_on_c, 9, 42, 100
20, 99090, Note_on_c, 9, 42, 0
20, 99180, Note_on_c, 9, 42, 100
20, 99210, Note_on_c, 9, 42, 0
20, 99210, Note_on_c, 9, 42, 100
20, 99240, Note_on_c, 9, 42, 0
20, 99300, Note_on_c, 9, 42, 100
20, 99330, Note_on_c, 9, 42, 0
20, 99420, Note_on_c, 9, 42, 100
20, 99450, Note_on_c, 9, 42, 0
20, 99540, Note_on_c, 9, 42, 100
20, 99570, Note_on_c, 9, 42, 0
20, 99660, Note_on_c, 9, 42, 100
20, 99690, Note_on_c, 9, 42, 0
20, 99690, Note_on_c, 9, 42, 100
20, 99720, Note_on_c, 9, 42, 0
20, 99780, Note_on_c, 9, 42, 100
20, 99810, Note_on_c, 9, 42, 0
20, 99900, Note_on_c, 9, 42, 100
20, 99930, Note_on_c, 9, 42, 0
20, 100020, Note_on_c, 9, 42, 100
20, 100050, Note_on_c, 9, 42, 0
20, 100140, Note_on_c, 9, 42, 100
20, 100170, Note_on_c, 9, 42, 0
20, 100170, Note_on_c, 9, 42, 100
20, 100200, Note_on_c, 9, 42, 0
20, 100260, Note_on_c, 9, 42, 100
20, 100290, Note_on_c, 9, 42, 0
20, 100290, End_track
21, 0, Start_track
21, 0, MIDI_port, 0
21, 0, Title_t, "Claps"
21, 480, Note_on_c, 9, 39, 100
21, 510, Note_on_c, 9, 39, 0
21, 510, Note_on_c, 9, 39, 100
21, 540, Note_on_c, 9, 39, 0
21, 540, Note_on_c, 9, 39, 100
21, 570, Note_on_c, 9, 39, 0
21, 570, Note_on_c, 9, 39, 100
21, 600, Note_on_c, 9, 39, 0
21, 600, Note_on_c, 9, 39, 100
21, 630, Note_on_c, 9, 39, 0
21, 630, Note_on_c, 9, 39, 100
21, 660, Note_on_c, 9, 39, 0
21, 1440, Note_on_c, 9, 39, 100
21, 1470, Note_on_c, 9, 39, 0
21, 1470, Note_on_c, 9, 39, 100
21, 1500, Note_on_c, 9, 39, 0
21, 1500, Note_on_c, 9, 39, 100
21, 1530, Note_on_c, 9, 39, 0
21, 1530, Note_on_c, 9, 39, 100
21, 1560, Note_on_c, 9, 39, 0
21, 1560, Note_on_c, 9, 39, 100
21, 1590, Note_on_c, 9, 39, 0
21, 1590, Note_on_c, 9, 39, 100
21, 1620, Note_on_c, 9, 39, 0
21, 34560, Note_on_c, 9, 39, 117
21, 34589, Note_on_c, 9, 39, 0
21, 34590, Note_on_c, 9, 39, 115
21, 34619, Note_on_c, 9, 39, 0
21, 34650, Note_on_c, 9, 39, 113
21, 34679, Note_on_c, 9, 39, 0
21, 34680, Note_on_c, 9, 39, 115
21, 34709, Note_on_c, 9, 39, 0
21, 34740, Note_on_c, 9, 39, 113
21, 34769, Note_on_c, 9, 39, 0
21, 34770, Note_on_c, 9, 39, 115
21, 34799, Note_on_c, 9, 39, 0
21, 34800, Note_on_c, 9, 39, 110
21, 34829, Note_on_c, 9, 39, 0
21, 34830, Note_on_c, 9, 39, 117
21, 34859, Note_on_c, 9, 39, 0
21, 34890, Note_on_c, 9, 39, 117
21, 34919, Note_on_c, 9, 39, 0
21, 34920, Note_on_c, 9, 39, 115
21, 34949, Note_on_c, 9, 39, 0
21, 35040, Note_on_c, 9, 39, 117
21, 35069, Note_on_c, 9, 39, 0
21, 35070, Note_on_c, 9, 39, 118
21, 35099, Note_on_c, 9, 39, 0
21, 35130, Note_on_c, 9, 39, 117
21, 35159, Note_on_c, 9, 39, 0
21, 35160, Note_on_c, 9, 39, 115
21, 35189, Note_on_c, 9, 39, 0
21, 35220, Note_on_c, 9, 39, 115
21, 35249, Note_on_c, 9, 39, 0
21, 35250, Note_on_c, 9, 39, 113
21, 35279, Note_on_c, 9, 39, 0
21, 35280, Note_on_c, 9, 39, 113
21, 35309, Note_on_c, 9, 39, 0
21, 35310, Note_on_c, 9, 39, 117
21, 35339, Note_on_c, 9, 39, 0
21, 35370, Note_on_c, 9, 39, 117
21, 35399, Note_on_c, 9, 39, 0
21, 35400, Note_on_c, 9, 39, 117
21, 35429, Note_on_c, 9, 39, 0
21, 35520, Note_on_c, 9, 39, 117
21, 35549, Note_on_c, 9, 39, 0
21, 35550, Note_on_c, 9, 39, 115
21, 35579, Note_on_c, 9, 39, 0
21, 35580, Note_on_c, 9, 39, 110
21, 35609, Note_on_c, 9, 39, 0
21, 35610, Note_on_c, 9, 39, 117
21, 35639, Note_on_c, 9, 39, 0
21, 35640, Note_on_c, 9, 39, 113
21, 35669, Note_on_c, 9, 39, 0
21, 35670, Note_on_c, 9, 39, 123
21, 35699, Note_on_c, 9, 39, 0
21, 35820, Note_on_c, 9, 39, 117
21, 35849, Note_on_c, 9, 39, 0
21, 35850, Note_on_c, 9, 39, 115
21, 35879, Note_on_c, 9, 39, 0
21, 35910, Note_on_c, 9, 39, 117
21, 35939, Note_on_c, 9, 39, 0
21, 35940, Note_on_c, 9, 39, 120
21, 35969, Note_on_c, 9, 39, 0
21, 36480, Note_on_c, 9, 39, 117
21, 36509, Note_on_c, 9, 39, 0
21, 36510, Note_on_c, 9, 39, 115
21, 36539, Note_on_c, 9, 39, 0
21, 36570, Note_on_c, 9, 39, 113
21, 36599, Note_on_c, 9, 39, 0
21, 36600, Note_on_c, 9, 39, 115
21, 36629, Note_on_c, 9, 39, 0
21, 36660, Note_on_c, 9, 39, 113
21, 36689, Note_on_c, 9, 39, 0
21, 36690, Note_on_c, 9, 39, 115
21, 36719, Note_on_c, 9, 39, 0
21, 36720, Note_on_c, 9, 39, 110
21, 36749, Note_on_c, 9, 39, 0
21, 36750, Note_on_c, 9, 39, 117
21, 36779, Note_on_c, 9, 39, 0
21, 36810, Note_on_c, 9, 39, 117
21, 36839, Note_on_c, 9, 39, 0
21, 36840, Note_on_c, 9, 39, 115
21, 36869, Note_on_c, 9, 39, 0
21, 36960, Note_on_c, 9, 39, 117
21, 36989, Note_on_c, 9, 39, 0
21, 36990, Note_on_c, 9, 39, 118
21, 37019, Note_on_c, 9, 39, 0
21, 37050, Note_on_c, 9, 39, 117
21, 37079, Note_on_c, 9, 39, 0
21, 37080, Note_on_c, 9, 39, 115
21, 37109, Note_on_c, 9, 39, 0
21, 37140, Note_on_c, 9, 39, 115
21, 37169, Note_on_c, 9, 39, 0
21, 37170, Note_on_c, 9, 39, 113
21, 37199, Note_on_c, 9, 39, 0
21, 37200, Note_on_c, 9, 39, 113
21, 37229, Note_on_c, 9, 39, 0
21, 37230, Note_on_c, 9, 39, 117
21, 37259, Note_on_c, 9, 39, 0
21, 37290, Note_on_c, 9, 39, 117
21, 37319, Note_on_c, 9, 39, 0
21, 37320, Note_on_c, 9, 39, 117
21, 37349, Note_on_c, 9, 39, 0
21, 37440, Note_on_c, 9, 39, 117
21, 37469, Note_on_c, 9, 39, 0
21, 37470, Note_on_c, 9, 39, 115
21, 37499, Note_on_c, 9, 39, 0
21, 37500, Note_on_c, 9, 39, 110
21, 37529, Note_on_c, 9, 39, 0
21, 37530, Note_on_c, 9, 39, 117
21, 37559, Note_on_c, 9, 39, 0
21, 37560, Note_on_c, 9, 39, 113
21, 37589, Note_on_c, 9, 39, 0
21, 37590, Note_on_c, 9, 39, 123
21, 37619, Note_on_c, 9, 39, 0
21, 37740, Note_on_c, 9, 39, 117
21, 37769, Note_on_c, 9, 39, 0
21, 37770, Note_on_c, 9, 39, 115
21, 37799, Note_on_c, 9, 39, 0
21, 37830, Note_on_c, 9, 39, 117
21, 37859, Note_on_c, 9, 39, 0
21, 37860, Note_on_c, 9, 39, 120
21, 37889, Note_on_c, 9, 39, 0
21, 40680, Note_on_c, 9, 39, 100
21, 40800, Note_on_c, 9, 39, 0
21, 41640, Note_on_c, 9, 39, 100
21, 41760, Note_on_c, 9, 39, 0
21, 42360, Note_on_c, 9, 39, 100
21, 42480, Note_on_c, 9, 39, 0
21, 42600, Note_on_c, 9, 39, 100
21, 42720, Note_on_c, 9, 39, 0
21, 42840, Note_on_c, 9, 39, 100
21, 42960, Note_on_c, 9, 39, 0
21, 43080, Note_on_c, 9, 39, 100
21, 43200, Note_on_c, 9, 39, 0
21, 43320, Note_on_c, 9, 39, 100
21, 43440, Note_on_c, 9, 39, 0
21, 43560, Note_on_c, 9, 39, 100
21, 43680, Note_on_c, 9, 39, 0
21, 43800, Note_on_c, 9, 39, 100
21, 43920, Note_on_c, 9, 39, 0
21, 44040, Note_on_c, 9, 39, 100
21, 44160, Note_on_c, 9, 39, 0
21, 44160, Note_on_c, 9, 39, 100
21, 44280, Note_on_c, 9, 39, 0
21, 44280, Note_on_c, 9, 39, 100
21, 44400, Note_on_c, 9, 39, 0
21, 44400, Note_on_c, 9, 39, 100
21, 44520, Note_on_c, 9, 39, 0
21, 44520, Note_on_c, 9, 39, 100
21, 44640, Note_on_c, 9, 39, 0
21, 44640, Note_on_c, 9, 39, 100
21, 44760, Note_on_c, 9, 39, 0
21, 44760, Note_on_c, 9, 39, 100
21, 44880, Note_on_c, 9, 39, 0
21, 44880, Note_on_c, 9, 39, 100
21, 45000, Note_on_c, 9, 39, 0
21, 45000, Note_on_c, 9, 39, 100
21, 45120, Note_on_c, 9, 39, 0
21, 45120, Note_on_c, 9, 39, 100
21, 45240, Note_on_c, 9, 39, 0
21, 45240, Note_on_c, 9, 39, 100
21, 45360, Note_on_c, 9, 39, 0
21, 45360, Note_on_c, 9, 39, 100
21, 45480, Note_on_c, 9, 39, 0
21, 45480, Note_on_c, 9, 39, 100
21, 45600, Note_on_c, 9, 39, 0
21, 45600, Note_on_c, 9, 39, 100
21, 45720, Note_on_c, 9, 39, 0
21, 45720, Note_on_c, 9, 39, 100
21, 45840, Note_on_c, 9, 39, 0
21, 45840, Note_on_c, 9, 39, 100
21, 45960, Note_on_c, 9, 39, 0
21, 45960, Note_on_c, 9, 39, 100
21, 46080, Note_on_c, 9, 39, 0
21, 46080, Note_on_c, 9, 39, 100
21, 46200, Note_on_c, 9, 39, 0
21, 46200, Note_on_c, 9, 39, 100
21, 46320, Note_on_c, 9, 39, 0
21, 46320, Note_on_c, 9, 39, 100
21, 46440, Note_on_c, 9, 39, 0
21, 46440, Note_on_c, 9, 39, 100
21, 46560, Note_on_c, 9, 39, 0
21, 46560, Note_on_c, 9, 39, 100
21, 46680, Note_on_c, 9, 39, 0
21, 46680, Note_on_c, 9, 39, 100
21, 46800, Note_on_c, 9, 39, 0
21, 46800, Note_on_c, 9, 39, 100
21, 46920, Note_on_c, 9, 39, 0
21, 46920, Note_on_c, 9, 39, 100
21, 47040, Note_on_c, 9, 39, 0
21, 47040, Note_on_c, 9, 39, 100
21, 47160, Note_on_c, 9, 39, 0
21, 47160, Note_on_c, 9, 39, 100
21, 47280, Note_on_c, 9, 39, 0
21, 47280, Note_on_c, 9, 39, 100
21, 47400, Note_on_c, 9, 39, 0
21, 47400, Note_on_c, 9, 39, 100
21, 47520, Note_on_c, 9, 39, 0
21, 47520, Note_on_c, 9, 39, 100
21, 47640, Note_on_c, 9, 39, 0
21, 47640, Note_on_c, 9, 39, 100
21, 47760, Note_on_c, 9, 39, 0
21, 47760, Note_on_c, 9, 39, 100
21, 47880, Note_on_c, 9, 39, 0
21, 47880, Note_on_c, 9, 39, 100
21, 48000, Note_on_c, 9, 39, 0
21, 48000, Note_on_c, 9, 39, 100
21, 48120, Note_on_c, 9, 39, 0
21, 48120, Note_on_c, 9, 39, 100
21, 48240, Note_on_c, 9, 39, 0
21, 48240, Note_on_c, 9, 39, 100
21, 48360, Note_on_c, 9, 39, 0
21, 48360, Note_on_c, 9, 39, 100
21, 48480, Note_on_c, 9, 39, 0
21, 48480, Note_on_c, 9, 39, 100
21, 48600, Note_on_c, 9, 39, 0
21, 48600, Note_on_c, 9, 39, 100
21, 48720, Note_on_c, 9, 39, 0
21, 48720, Note_on_c, 9, 39, 100
21, 48840, Note_on_c, 9, 39, 0
21, 48840, Note_on_c, 9, 39, 100
21, 48960, Note_on_c, 9, 39, 0
21, 48960, Note_on_c, 9, 39, 100
21, 49080, Note_on_c, 9, 39, 0
21, 49080, Note_on_c, 9, 39, 100
21, 49200, Note_on_c, 9, 39, 0
21, 49200, Note_on_c, 9, 39, 100
21, 49320, Note_on_c, 9, 39, 0
21, 49320, Note_on_c, 9, 39, 100
21, 49440, Note_on_c, 9, 39, 0
21, 49440, Note_on_c, 9, 39, 100
21, 49560, Note_on_c, 9, 39, 0
21, 49560, Note_on_c, 9, 39, 100
21, 49680, Note_on_c, 9, 39, 0
21, 49680, Note_on_c, 9, 39, 100
21, 49800, Note_on_c, 9, 39, 0
21, 49800, Note_on_c, 9, 39, 100
21, 49920, Note_on_c, 9, 39, 0
21, 49920, Note_on_c, 9, 39, 100
21, 50040, Note_on_c, 9, 39, 0
21, 50040, Note_on_c, 9, 39, 100
21, 50160, Note_on_c, 9, 39, 0
21, 50160, Note_on_c, 9, 39, 100
21, 50280, Note_on_c, 9, 39, 0
21, 50280, Note_on_c, 9, 39, 100
21, 50400, Note_on_c, 9, 39, 0
21, 50400, Note_on_c, 9, 39, 100
21, 50520, Note_on_c, 9, 39, 0
21, 50520, Note_on_c, 9, 39, 100
21, 50640, Note_on_c, 9, 39, 0
21, 50640, Note_on_c, 9, 39, 100
21, 50760, Note_on_c, 9, 39, 0
21, 50760, Note_on_c, 9, 39, 100
21, 50880, Note_on_c, 9, 39, 0
21, 50880, Note_on_c, 9, 39, 100
21, 51000, Note_on_c, 9, 39, 0
21, 51000, Note_on_c, 9, 39, 100
21, 51120, Note_on_c, 9, 39, 0
21, 51120, Note_on_c, 9, 39, 100
21, 51240, Note_on_c, 9, 39, 0
21, 51240, Note_on_c, 9, 39, 100
21, 51360, Note_on_c, 9, 39, 0
21, 51360, Note_on_c, 9, 39, 100
21, 51480, Note_on_c, 9, 39, 0
21, 51480, Note_on_c, 9, 39, 100
21, 51600, Note_on_c, 9, 39, 0
21, 51600, Note_on_c, 9, 39, 100
21, 51720, Note_on_c, 9, 39, 0
21, 51720, Note_on_c, 9, 39, 100
21, 51840, Note_on_c, 9, 39, 0
21, 67200, Note_on_c, 9, 39, 100
21, 67230, Note_on_c, 9, 39, 0
21, 67230, Note_on_c, 9, 39, 100
21, 67260, Note_on_c, 9, 39, 0
21, 67260, Note_on_c, 9, 39, 100
21, 67290, Note_on_c, 9, 39, 0
21, 67290, Note_on_c, 9, 39, 100
21, 67320, Note_on_c, 9, 39, 0
21, 67320, Note_on_c, 9, 39, 100
21, 67350, Note_on_c, 9, 39, 0
21, 67350, Note_on_c, 9, 39, 100
21, 67380, Note_on_c, 9, 39, 0
21, 68160, Note_on_c, 9, 39, 100
21, 68190, Note_on_c, 9, 39, 0
21, 68190, Note_on_c, 9, 39, 100
21, 68220, Note_on_c, 9, 39, 0
21, 68220, Note_on_c, 9, 39, 100
21, 68250, Note_on_c, 9, 39, 0
21, 68250, Note_on_c, 9, 39, 100
21, 68280, Note_on_c, 9, 39, 0
21, 68280, Note_on_c, 9, 39, 100
21, 68310, Note_on_c, 9, 39, 0
21, 68310, Note_on_c, 9, 39, 100
21, 68340, Note_on_c, 9, 39, 0
21, 77280, Note_on_c, 9, 39, 117
21, 77309, Note_on_c, 9, 39, 0
21, 77310, Note_on_c, 9, 39, 115
21, 77339, Note_on_c, 9, 39, 0
21, 77370, Note_on_c, 9, 39, 113
21, 77399, Note_on_c, 9, 39, 0
21, 77400, Note_on_c, 9, 39, 115
21, 77429, Note_on_c, 9, 39, 0
21, 77460, Note_on_c, 9, 39, 113
21, 77489, Note_on_c, 9, 39, 0
21, 77490, Note_on_c, 9, 39, 115
21, 77519, Note_on_c, 9, 39, 0
21, 77520, Note_on_c, 9, 39, 110
21, 77549, Note_on_c, 9, 39, 0
21, 77550, Note_on_c, 9, 39, 117
21, 77579, Note_on_c, 9, 39, 0
21, 77610, Note_on_c, 9, 39, 117
21, 77639, Note_on_c, 9, 39, 0
21, 77640, Note_on_c, 9, 39, 115
21, 77669, Note_on_c, 9, 39, 0
21, 77760, Note_on_c, 9, 39, 117
21, 77789, Note_on_c, 9, 39, 0
21, 77790, Note_on_c, 9, 39, 118
21, 77819, Note_on_c, 9, 39, 0
21, 77850, Note_on_c, 9, 39, 117
21, 77879, Note_on_c, 9, 39, 0
21, 77880, Note_on_c, 9, 39, 115
21, 77909, Note_on_c, 9, 39, 0
21, 77940, Note_on_c, 9, 39, 115
21, 77969, Note_on_c, 9, 39, 0
21, 77970, Note_on_c, 9, 39, 113
21, 77999, Note_on_c, 9, 39, 0
21, 78000, Note_on_c, 9, 39, 113
21, 78029, Note_on_c, 9, 39, 0
21, 78030, Note_on_c, 9, 39, 117
21, 78059, Note_on_c, 9, 39, 0
21, 78090, Note_on_c, 9, 39, 117
21, 78119, Note_on_c, 9, 39, 0
21, 78120, Note_on_c, 9, 39, 117
21, 78149, Note_on_c, 9, 39, 0
21, 78240, Note_on_c, 9, 39, 117
21, 78269, Note_on_c, 9, 39, 0
21, 78270, Note_on_c, 9, 39, 115
21, 78299, Note_on_c, 9, 39, 0
21, 78300, Note_on_c, 9, 39, 110
21, 78329, Note_on_c, 9, 39, 0
21, 78330, Note_on_c, 9, 39, 117
21, 78359, Note_on_c, 9, 39, 0
21, 78360, Note_on_c, 9, 39, 113
21, 78389, Note_on_c, 9, 39, 0
21, 78390, Note_on_c, 9, 39, 123
21, 78419, Note_on_c, 9, 39, 0
21, 78540, Note_on_c, 9, 39, 117
21, 78569, Note_on_c, 9, 39, 0
21, 78570, Note_on_c, 9, 39, 115
21, 78599, Note_on_c, 9, 39, 0
21, 78630, Note_on_c, 9, 39, 117
21, 78659, Note_on_c, 9, 39, 0
21, 78660, Note_on_c, 9, 39, 120
21, 78689, Note_on_c, 9, 39, 0
21, 84960, Note_on_c, 9, 39, 100
21, 85080, Note_on_c, 9, 39, 0
21, 85080, Note_on_c, 9, 39, 100
21, 85200, Note_on_c, 9, 39, 0
21, 85200, Note_on_c, 9, 39, 100
21, 85320, Note_on_c, 9, 39, 0
21, 85320, Note_on_c, 9, 39, 100
21, 85440, Note_on_c, 9, 39, 0
21, 85440, Note_on_c, 9, 39, 100
21, 85560, Note_on_c, 9, 39, 0
21, 85560, Note_on_c, 9, 39, 100
21, 85680, Note_on_c, 9, 39, 0
21, 85680, Note_on_c, 9, 39, 100
21, 85800, Note_on_c, 9, 39, 0
21, 85800, Note_on_c, 9, 39, 100
21, 85920, Note_on_c, 9, 39, 0
21, 85920, Note_on_c, 9, 39, 100
21, 86040, Note_on_c, 9, 39, 0
21, 86040, Note_on_c, 9, 39, 100
21, 86160, Note_on_c, 9, 39, 0
21, 86160, Note_on_c, 9, 39, 100
21, 86280, Note_on_c, 9, 39, 0
21, 86280, Note_on_c, 9, 39, 100
21, 86400, Note_on_c, 9, 39, 0
21, 86400, Note_on_c, 9, 39, 100
21, 86520, Note_on_c, 9, 39, 0
21, 86520, Note_on_c, 9, 39, 100
21, 86640, Note_on_c, 9, 39, 0
21, 86640, Note_on_c, 9, 39, 100
21, 86760, Note_on_c, 9, 39, 0
21, 86760, Note_on_c, 9, 39, 100
21, 86880, Note_on_c, 9, 39, 0
21, 86880, End_track
22, 0, Start_track
22, 0, MIDI_port, 0
22, 0, Title_t, "Hi Timbale"
22, 390, Note_on_c, 9, 65, 100
22, 405, Note_on_c, 9, 65, 0
22, 405, Note_on_c, 9, 65, 100
22, 420, Note_on_c, 9, 65, 0
22, 420, Note_on_c, 9, 65, 100
22, 435, Note_on_c, 9, 65, 0
22, 1920, Note_on_c, 9, 65, 100
22, 1950, Note_on_c, 9, 65, 0
22, 1980, Note_on_c, 9, 65, 100
22, 2010, Note_on_c, 9, 65, 0
22, 2010, Note_on_c, 9, 65, 100
22, 2040, Note_on_c, 9, 65, 0
22, 2070, Note_on_c, 9, 65, 100
22, 2100, Note_on_c, 9, 65, 0
22, 2100, Note_on_c, 9, 65, 100
22, 2130, Note_on_c, 9, 65, 0
22, 2160, Note_on_c, 9, 65, 100
22, 2190, Note_on_c, 9, 65, 0
22, 6000, Note_on_c, 9, 65, 100
22, 6030, Note_on_c, 9, 65, 0
22, 6030, Note_on_c, 9, 65, 100
22, 6060, Note_on_c, 9, 65, 0
22, 6060, Note_on_c, 9, 65, 100
22, 6090, Note_on_c, 9, 65, 0
22, 6150, Note_on_c, 9, 65, 100
22, 6180, Note_on_c, 9, 65, 0
22, 7800, Note_on_c, 9, 65, 100
22, 7830, Note_on_c, 9, 65, 0
22, 7950, Note_on_c, 9, 65, 100
22, 7980, Note_on_c, 9, 65, 0
22, 7980, Note_on_c, 9, 65, 100
22, 8010, Note_on_c, 9, 65, 0
22, 8100, Note_on_c, 9, 65, 100
22, 8130, Note_on_c, 9, 65, 0
22, 8130, Note_on_c, 9, 65, 100
22, 8160, Note_on_c, 9, 65, 0
22, 9810, Note_on_c, 9, 65, 100
22, 9825, Note_on_c, 9, 65, 0
22, 9825, Note_on_c, 9, 65, 100
22, 9840, Note_on_c, 9, 65, 0
22, 9840, Note_on_c, 9, 65, 100
22, 9870, Note_on_c, 9, 65, 0
22, 9870, Note_on_c, 9, 65, 100
22, 9900, Note_on_c, 9, 65, 0
22, 9900, Note_on_c, 9, 65, 100
22, 9930, Note_on_c, 9, 65, 0
22, 13650, Note_on_c, 9, 65, 100
22, 13665, Note_on_c, 9, 65, 0
22, 13665, Note_on_c, 9, 65, 100
22, 13680, Note_on_c, 9, 65, 0
22, 13680, Note_on_c, 9, 65, 100
22, 13710, Note_on_c, 9, 65, 0
22, 13710, Note_on_c, 9, 65, 100
22, 13740, Note_on_c, 9, 65, 0
22, 13740, Note_on_c, 9, 65, 100
22, 13770, Note_on_c, 9, 65, 0
22, 17490, Note_on_c, 9, 65, 100
22, 17505, Note_on_c, 9, 65, 0
22, 17505, Note_on_c, 9, 65, 100
22, 17520, Note_on_c, 9, 65, 0
22, 17520, Note_on_c, 9, 65, 100
22, 17550, Note_on_c, 9, 65, 0
22, 17550, Note_on_c, 9, 65, 100
22, 17580, Note_on_c, 9, 65, 0
22, 17580, Note_on_c, 9, 65, 100
22, 17610, Note_on_c, 9, 65, 0
22, 21330, Note_on_c, 9, 65, 100
22, 21345, Note_on_c, 9, 65, 0
22, 21345, Note_on_c, 9, 65, 100
22, 21360, Note_on_c, 9, 65, 0
22, 21360, Note_on_c, 9, 65, 100
22, 21390, Note_on_c, 9, 65, 0
22, 21390, Note_on_c, 9, 65, 100
22, 21420, Note_on_c, 9, 65, 0
22, 21420, Note_on_c, 9, 65, 100
22, 21450, Note_on_c, 9, 65, 0
22, 25170, Note_on_c, 9, 65, 100
22, 25185, Note_on_c, 9, 65, 0
22, 25185, Note_on_c, 9, 65, 100
22, 25200, Note_on_c, 9, 65, 0
22, 25200, Note_on_c, 9, 65, 100
22, 25230, Note_on_c, 9, 65, 0
22, 25230, Note_on_c, 9, 65, 100
22, 25260, Note_on_c, 9, 65, 0
22, 25260, Note_on_c, 9, 65, 100
22, 25290, Note_on_c, 9, 65, 0
22, 29490, Note_on_c, 9, 65, 100
22, 29505, Note_on_c, 9, 65, 0
22, 29505, Note_on_c, 9, 65, 100
22, 29520, Note_on_c, 9, 65, 0
22, 29520, Note_on_c, 9, 65, 100
22, 29550, Note_on_c, 9, 65, 0
22, 29550, Note_on_c, 9, 65, 100
22, 29580, Note_on_c, 9, 65, 0
22, 29580, Note_on_c, 9, 65, 100
22, 29610, Note_on_c, 9, 65, 0
22, 31410, Note_on_c, 9, 65, 100
22, 31425, Note_on_c, 9, 65, 0
22, 31425, Note_on_c, 9, 65, 100
22, 31440, Note_on_c, 9, 65, 0
22, 31440, Note_on_c, 9, 65, 100
22, 31470, Note_on_c, 9, 65, 0
22, 31470, Note_on_c, 9, 65, 100
22, 31500, Note_on_c, 9, 65, 0
22, 31500, Note_on_c, 9, 65, 100
22, 31530, Note_on_c, 9, 65, 0
22, 33330, Note_on_c, 9, 65, 100
22, 33345, Note_on_c, 9, 65, 0
22, 33345, Note_on_c, 9, 65, 100
22, 33360, Note_on_c, 9, 65, 0
22, 33360, Note_on_c, 9, 65, 100
22, 33390, Note_on_c, 9, 65, 0
22, 33390, Note_on_c, 9, 65, 100
22, 33420, Note_on_c, 9, 65, 0
22, 33420, Note_on_c, 9, 65, 100
22, 33450, Note_on_c, 9, 65, 0
22, 43890, Note_on_c, 9, 65, 100
22, 43905, Note_on_c, 9, 65, 0
22, 43905, Note_on_c, 9, 65, 100
22, 43920, Note_on_c, 9, 65, 0
22, 43920, Note_on_c, 9, 65, 100
22, 43950, Note_on_c, 9, 65, 0
22, 43950, Note_on_c, 9, 65, 100
22, 43980, Note_on_c, 9, 65, 0
22, 43980, Note_on_c, 9, 65, 100
22, 44010, Note_on_c, 9, 65, 0
22, 47730, Note_on_c, 9, 65, 100
22, 47745, Note_on_c, 9, 65, 0
22, 47745, Note_on_c, 9, 65, 100
22, 47760, Note_on_c, 9, 65, 0
22, 47760, Note_on_c, 9, 65, 100
22, 47790, Note_on_c, 9, 65, 0
22, 47790, Note_on_c, 9, 65, 100
22, 47820, Note_on_c, 9, 65, 0
22, 47820, Note_on_c, 9, 65, 100
22, 47850, Note_on_c, 9, 65, 0
22, 49650, Note_on_c, 9, 65, 100
22, 49665, Note_on_c, 9, 65, 0
22, 49665, Note_on_c, 9, 65, 100
22, 49680, Note_on_c, 9, 65, 0
22, 49680, Note_on_c, 9, 65, 100
22, 49710, Note_on_c, 9, 65, 0
22, 49710, Note_on_c, 9, 65, 100
22, 49740, Note_on_c, 9, 65, 0
22, 49740, Note_on_c, 9, 65, 100
22, 49770, Note_on_c, 9, 65, 0
22, 51570, Note_on_c, 9, 65, 100
22, 51585, Note_on_c, 9, 65, 0
22, 51585, Note_on_c, 9, 65, 100
22, 51600, Note_on_c, 9, 65, 0
22, 51600, Note_on_c, 9, 65, 100
22, 51630, Note_on_c, 9, 65, 0
22, 51630, Note_on_c, 9, 65, 100
22, 51660, Note_on_c, 9, 65, 0
22, 51660, Note_on_c, 9, 65, 100
22, 51690, Note_on_c, 9, 65, 0
22, 55410, Note_on_c, 9, 65, 100
22, 55425, Note_on_c, 9, 65, 0
22, 55425, Note_on_c, 9, 65, 100
22, 55440, Note_on_c, 9, 65, 0
22, 55440, Note_on_c, 9, 65, 100
22, 55470, Note_on_c, 9, 65, 0
22, 55470, Note_on_c, 9, 65, 100
22, 55500, Note_on_c, 9, 65, 0
22, 55500, Note_on_c, 9, 65, 100
22, 55530, Note_on_c, 9, 65, 0
22, 68640, Note_on_c, 9, 65, 100
22, 68670, Note_on_c, 9, 65, 0
22, 68700, Note_on_c, 9, 65, 100
22, 68730, Note_on_c, 9, 65, 0
22, 68730, Note_on_c, 9, 65, 100
22, 68760, Note_on_c, 9, 65, 0
22, 68790, Note_on_c, 9, 65, 100
22, 68820, Note_on_c, 9, 65, 0
22, 68820, Note_on_c, 9, 65, 100
22, 68850, Note_on_c, 9, 65, 0
22, 68880, Note_on_c, 9, 65, 100
22, 68910, Note_on_c, 9, 65, 0
22, 70560, Note_on_c, 9, 65, 100
22, 70590, Note_on_c, 9, 65, 0
22, 70620, Note_on_c, 9, 65, 100
22, 70650, Note_on_c, 9, 65, 0
22, 70650, Note_on_c, 9, 65, 100
22, 70680, Note_on_c, 9, 65, 0
22, 70710, Note_on_c, 9, 65, 100
22, 70740, Note_on_c, 9, 65, 0
22, 70740, Note_on_c, 9, 65, 100
22, 70770, Note_on_c, 9, 65, 0
22, 70800, Note_on_c, 9, 65, 100
22, 70830, Note_on_c, 9, 65, 0
22, 70920, Note_on_c, 9, 65, 100
22, 70950, Note_on_c, 9, 65, 0
22, 74580, Note_on_c, 9, 65, 100
22, 74610, Note_on_c, 9, 65, 0
22, 74640, Note_on_c, 9, 65, 100
22, 74670, Note_on_c, 9, 65, 0
22, 74760, Note_on_c, 9, 65, 100
22, 74790, Note_on_c, 9, 65, 0
22, 80400, Note_on_c, 9, 65, 100
22, 80415, Note_on_c, 9, 65, 0
22, 80415, Note_on_c, 9, 65, 100
22, 80430, Note_on_c, 9, 65, 0
22, 80430, Note_on_c, 9, 65, 100
22, 80445, Note_on_c, 9, 65, 0
22, 80445, Note_on_c, 9, 65, 100
22, 80460, Note_on_c, 9, 65, 0
22, 80460, Note_on_c, 9, 65, 100
22, 80475, Note_on_c, 9, 65, 0
22, 80475, Note_on_c, 9, 65, 100
22, 80490, Note_on_c, 9, 65, 0
22, 80490, Note_on_c, 9, 65, 100
22, 80505, Note_on_c, 9, 65, 0
22, 80505, Note_on_c, 9, 65, 100
22, 80520, Note_on_c, 9, 65, 0
22, 82770, Note_on_c, 9, 65, 100
22, 82785, Note_on_c, 9, 65, 0
22, 82785, Note_on_c, 9, 65, 100
22, 82800, Note_on_c, 9, 65, 0
22, 82800, Note_on_c, 9, 65, 100
22, 82830, Note_on_c, 9, 65, 0
22, 82830, Note_on_c, 9, 65, 100
22, 82860, Note_on_c, 9, 65, 0
22, 82860, Note_on_c, 9, 65, 100
22, 82890, Note_on_c, 9, 65, 0
22, 92370, Note_on_c, 9, 65, 100
22, 92385, Note_on_c, 9, 65, 0
22, 92385, Note_on_c, 9, 65, 100
22, 92400, Note_on_c, 9, 65, 0
22, 92400, Note_on_c, 9, 65, 100
22, 92430, Note_on_c, 9, 65, 0
22, 92430, Note_on_c, 9, 65, 100
22, 92460, Note_on_c, 9, 65, 0
22, 92460, Note_on_c, 9, 65, 100
22, 92490, Note_on_c, 9, 65, 0
22, 94260, Note_on_c, 9, 65, 100
22, 94290, Note_on_c, 9, 65, 0
22, 94320, Note_on_c, 9, 65, 100
22, 94350, Note_on_c, 9, 65, 0
22, 94440, Note_on_c, 9, 65, 100
22, 94470, Note_on_c, 9, 65, 0
22, 96180, Note_on_c, 9, 65, 100
22, 96210, Note_on_c, 9, 65, 0
22, 96240, Note_on_c, 9, 65, 100
22, 96270, Note_on_c, 9, 65, 0
22, 96360, Note_on_c, 9, 65, 100
22, 96390, Note_on_c, 9, 65, 0
22, 98100, Note_on_c, 9, 65, 100
22, 98130, Note_on_c, 9, 65, 0
22, 98160, Note_on_c, 9, 65, 100
22, 98190, Note_on_c, 9, 65, 0
22, 98280, Note_on_c, 9, 65, 100
22, 98310, Note_on_c, 9, 65, 0
22, 100020, Note_on_c, 9, 65, 100
22, 100050, Note_on_c, 9, 65, 0
22, 100080, Note_on_c, 9, 65, 100
22, 100110, Note_on_c, 9, 65, 0
22, 100200, Note_on_c, 9, 65, 100
22, 100230, Note_on_c, 9, 65, 0
22, 100230, End_track
23, 0, Start_track
23, 0, MIDI_port, 0
23, 0, Title_t, "Lo Timbale"
23, 2220, Note_on_c, 9, 66, 100
23, 2250, Note_on_c, 9, 66, 0
23, 2250, Note_on_c, 9, 66, 100
23, 2280, Note_on_c, 9, 66, 0
23, 5820, Note_on_c, 9, 66, 100
23, 5835, Note_on_c, 9, 66, 0
23, 5835, Note_on_c, 9, 66, 100
23, 5850, Note_on_c, 9, 66, 0
23, 5850, Note_on_c, 9, 66, 100
23, 5865, Note_on_c, 9, 66, 0
23, 5865, Note_on_c, 9, 66, 100
23, 5880, Note_on_c, 9, 66, 0
23, 5880, Note_on_c, 9, 66, 100
23, 5910, Note_on_c, 9, 66, 0
23, 5940, Note_on_c, 9, 66, 100
23, 5970, Note_on_c, 9, 66, 0
23, 6120, Note_on_c, 9, 66, 100
23, 6150, Note_on_c, 9, 66, 0
23, 6180, Note_on_c, 9, 66, 100
23, 6210, Note_on_c, 9, 66, 0
23, 6210, Note_on_c, 9, 66, 100
23, 6240, Note_on_c, 9, 66, 0
23, 7725, Note_on_c, 9, 66, 100
23, 7740, Note_on_c, 9, 66, 0
23, 7740, Note_on_c, 9, 66, 100
23, 7755, Note_on_c, 9, 66, 0
23, 7755, Note_on_c, 9, 66, 100
23, 7770, Note_on_c, 9, 66, 0
23, 7770, Note_on_c, 9, 66, 100
23, 7785, Note_on_c, 9, 66, 0
23, 7785, Note_on_c, 9, 66, 100
23, 7800, Note_on_c, 9, 66, 0
23, 7800, Note_on_c, 9, 66, 100
23, 7815, Note_on_c, 9, 66, 0
23, 7920, Note_on_c, 9, 66, 100
23, 7950, Note_on_c, 9, 66, 0
23, 8010, Note_on_c, 9, 66, 100
23, 8040, Note_on_c, 9, 66, 0
23, 8040, Note_on_c, 9, 66, 100
23, 8070, Note_on_c, 9, 66, 0
23, 8070, Note_on_c, 9, 66, 100
23, 8100, Note_on_c, 9, 66, 0
23, 9960, Note_on_c, 9, 66, 100
23, 9990, Note_on_c, 9, 66, 0
23, 10020, Note_on_c, 9, 66, 100
23, 10050, Note_on_c, 9, 66, 0
23, 10050, Note_on_c, 9, 66, 100
23, 10080, Note_on_c, 9, 66, 0
23, 13860, Note_on_c, 9, 66, 100
23, 13890, Note_on_c, 9, 66, 0
23, 13890, Note_on_c, 9, 66, 100
23, 13920, Note_on_c, 9, 66, 0
23, 17700, Note_on_c, 9, 66, 100
23, 17730, Note_on_c, 9, 66, 0
23, 17730, Note_on_c, 9, 66, 100
23, 17760, Note_on_c, 9, 66, 0
23, 21540, Note_on_c, 9, 66, 100
23, 21570, Note_on_c, 9, 66, 0
23, 21570, Note_on_c, 9, 66, 100
23, 21600, Note_on_c, 9, 66, 0
23, 25200, Note_on_c, 9, 66, 100
23, 25230, Note_on_c, 9, 66, 0
23, 25350, Note_on_c, 9, 66, 100
23, 25380, Note_on_c, 9, 66, 0
23, 25380, Note_on_c, 9, 66, 100
23, 25410, Note_on_c, 9, 66, 0
23, 25410, Note_on_c, 9, 66, 100
23, 25440, Note_on_c, 9, 66, 0
23, 29700, Note_on_c, 9, 66, 100
23, 29730, Note_on_c, 9, 66, 0
23, 29730, Note_on_c, 9, 66, 100
23, 29760, Note_on_c, 9, 66, 0
23, 31200, Note_on_c, 9, 66, 100
23, 31230, Note_on_c, 9, 66, 0
23, 31230, Note_on_c, 9, 66, 100
23, 31260, Note_on_c, 9, 66, 0
23, 31260, Note_on_c, 9, 66, 100
23, 31290, Note_on_c, 9, 66, 0
23, 31335, Note_on_c, 9, 66, 100
23, 31350, Note_on_c, 9, 66, 0
23, 31350, Note_on_c, 9, 66, 100
23, 31365, Note_on_c, 9, 66, 0
23, 31365, Note_on_c, 9, 66, 100
23, 31380, Note_on_c, 9, 66, 0
23, 31380, Note_on_c, 9, 66, 100
23, 31410, Note_on_c, 9, 66, 0
23, 31620, Note_on_c, 9, 66, 100
23, 31650, Note_on_c, 9, 66, 0
23, 31650, Note_on_c, 9, 66, 100
23, 31680, Note_on_c, 9, 66, 0
23, 33540, Note_on_c, 9, 66, 100
23, 33570, Note_on_c, 9, 66, 0
23, 33570, Note_on_c, 9, 66, 100
23, 33600, Note_on_c, 9, 66, 0
23, 44100, Note_on_c, 9, 66, 100
23, 44130, Note_on_c, 9, 66, 0
23, 44130, Note_on_c, 9, 66, 100
23, 44160, Note_on_c, 9, 66, 0
23, 47940, Note_on_c, 9, 66, 100
23, 47970, Note_on_c, 9, 66, 0
23, 47970, Note_on_c, 9, 66, 100
23, 48000, Note_on_c, 9, 66, 0
23, 49860, Note_on_c, 9, 66, 100
23, 49890, Note_on_c, 9, 66, 0
23, 49890, Note_on_c, 9, 66, 100
23, 49920, Note_on_c, 9, 66, 0
23, 51780, Note_on_c, 9, 66, 100
23, 51810, Note_on_c, 9, 66, 0
23, 51810, Note_on_c, 9, 66, 100
23, 51840, Note_on_c, 9, 66, 0
23, 55620, Note_on_c, 9, 66, 100
23, 55650, Note_on_c, 9, 66, 0
23, 55650, Note_on_c, 9, 66, 100
23, 55680, Note_on_c, 9, 66, 0
23, 68940, Note_on_c, 9, 66, 100
23, 68970, Note_on_c, 9, 66, 0
23, 68970, Note_on_c, 9, 66, 100
23, 69000, Note_on_c, 9, 66, 0
23, 70560, Note_on_c, 9, 66, 100
23, 70575, Note_on_c, 9, 66, 0
23, 70575, Note_on_c, 9, 66, 100
23, 70590, Note_on_c, 9, 66, 0
23, 70590, Note_on_c, 9, 66, 100
23, 70605, Note_on_c, 9, 66, 0
23, 70605, Note_on_c, 9, 66, 100
23, 70620, Note_on_c, 9, 66, 0
23, 70620, Note_on_c, 9, 66, 100
23, 70635, Note_on_c, 9, 66, 0
23, 70860, Note_on_c, 9, 66, 100
23, 70890, Note_on_c, 9, 66, 0
23, 70890, Note_on_c, 9, 66, 100
23, 70920, Note_on_c, 9, 66, 0
23, 70980, Note_on_c, 9, 66, 100
23, 71010, Note_on_c, 9, 66, 0
23, 71010, Note_on_c, 9, 66, 100
23, 71040, Note_on_c, 9, 66, 0
23, 74700, Note_on_c, 9, 66, 100
23, 74730, Note_on_c, 9, 66, 0
23, 74730, Note_on_c, 9, 66, 100
23, 74760, Note_on_c, 9, 66, 0
23, 74820, Note_on_c, 9, 66, 100
23, 74850, Note_on_c, 9, 66, 0
23, 74850, Note_on_c, 9, 66, 100
23, 74880, Note_on_c, 9, 66, 0
23, 82980, Note_on_c, 9, 66, 100
23, 83010, Note_on_c, 9, 66, 0
23, 83010, Note_on_c, 9, 66, 100
23, 83040, Note_on_c, 9, 66, 0
23, 92580, Note_on_c, 9, 66, 100
23, 92610, Note_on_c, 9, 66, 0
23, 92610, Note_on_c, 9, 66, 100
23, 92640, Note_on_c, 9, 66, 0
23, 94380, Note_on_c, 9, 66, 100
23, 94410, Note_on_c, 9, 66, 0
23, 94410, Note_on_c, 9, 66, 100
23, 94440, Note_on_c, 9, 66, 0
23, 94500, Note_on_c, 9, 66, 100
23, 94530, Note_on_c, 9, 66, 0
23, 94530, Note_on_c, 9, 66, 100
23, 94560, Note_on_c, 9, 66, 0
23, 96300, Note_on_c, 9, 66, 100
23, 96330, Note_on_c, 9, 66, 0
23, 96330, Note_on_c, 9, 66, 100
23, 96360, Note_on_c, 9, 66, 0
23, 96420, Note_on_c, 9, 66, 100
23, 96450, Note_on_c, 9, 66, 0
23, 96450, Note_on_c, 9, 66, 100
23, 96480, Note_on_c, 9, 66, 0
23, 98220, Note_on_c, 9, 66, 100
23, 98250, Note_on_c, 9, 66, 0
23, 98250, Note_on_c, 9, 66, 100
23, 98280, Note_on_c, 9, 66, 0
23, 98340, Note_on_c, 9, 66, 100
23, 98370, Note_on_c, 9, 66, 0
23, 98370, Note_on_c, 9, 66, 100
23, 98400, Note_on_c, 9, 66, 0
23, 100140, Note_on_c, 9, 66, 100
23, 100170, Note_on_c, 9, 66, 0
23, 100170, Note_on_c, 9, 66, 100
23, 100200, Note_on_c, 9, 66, 0
23, 100260, Note_on_c, 9, 66, 100
23, 100290, Note_on_c, 9, 66, 0
23, 100290, Note_on_c, 9, 66, 100
23, 100320, Note_on_c, 9, 66, 0
23, 100320, End_track
24, 0, Start_track
24, 0, MIDI_port, 0
24, 0, Title_t, "Synth Tom"
24, 10020, Note_on_c, 9, 43, 100
24, 10080, Note_on_c, 9, 43, 0
24, 19560, Note_on_c, 9, 43, 100
24, 19620, Note_on_c, 9, 43, 0
24, 19620, Note_on_c, 9, 43, 100
24, 19650, Note_on_c, 9, 43, 0
24, 19650, Note_on_c, 9, 43, 100
24, 19680, Note_on_c, 9, 43, 0
24, 31620, Note_on_c, 9, 43, 100
24, 31650, Note_on_c, 9, 43, 0
24, 31650, Note_on_c, 9, 43, 100
24, 31680, Note_on_c, 9, 43, 0
24, 31680, Note_on_c, 9, 43, 100
24, 31710, Note_on_c, 9, 43, 0
24, 34380, Note_on_c, 9, 43, 100
24, 34395, Note_on_c, 9, 43, 0
24, 34395, Note_on_c, 9, 43, 100
24, 34410, Note_on_c, 9, 43, 0
24, 34410, Note_on_c, 9, 43, 100
24, 34425, Note_on_c, 9, 43, 0
24, 34425, Note_on_c, 9, 43, 100
24, 34440, Note_on_c, 9, 43, 0
24, 34440, Note_on_c, 9, 43, 100
24, 34500, Note_on_c, 9, 43, 0
24, 39675, Note_on_c, 9, 43, 100
24, 39690, Note_on_c, 9, 43, 0
24, 39690, Note_on_c, 9, 43, 100
24, 39705, Note_on_c, 9, 43, 0
24, 39705, Note_on_c, 9, 43, 100
24, 39720, Note_on_c, 9, 43, 0
24, 39840, Note_on_c, 9, 43, 100
24, 39870, Note_on_c, 9, 43, 0
24, 39900, Note_on_c, 9, 43, 100
24, 39930, Note_on_c, 9, 43, 0
24, 39930, Note_on_c, 9, 43, 100
24, 39960, Note_on_c, 9, 43, 0
24, 40050, Note_on_c, 9, 43, 100
24, 40080, Note_on_c, 9, 43, 0
24, 40080, Note_on_c, 9, 43, 100
24, 40110, Note_on_c, 9, 43, 0
24, 40200, Note_on_c, 9, 43, 100
24, 40230, Note_on_c, 9, 43, 0
24, 40230, Note_on_c, 9, 43, 100
24, 40260, Note_on_c, 9, 43, 0
24, 40260, Note_on_c, 9, 43, 100
24, 40290, Note_on_c, 9, 43, 0
24, 51720, Note_on_c, 9, 43, 100
24, 51780, Note_on_c, 9, 43, 0
24, 55200, Note_on_c, 9, 43, 100
24, 55230, Note_on_c, 9, 43, 0
24, 55230, Note_on_c, 9, 43, 100
24, 55260, Note_on_c, 9, 43, 0
24, 55260, Note_on_c, 9, 43, 100
24, 55290, Note_on_c, 9, 43, 0
24, 55290, Note_on_c, 9, 43, 100
24, 55320, Note_on_c, 9, 43, 0
24, 55560, Note_on_c, 9, 43, 100
24, 55620, Note_on_c, 9, 43, 0
24, 70800, Note_on_c, 9, 43, 100
24, 70830, Note_on_c, 9, 43, 0
24, 70920, Note_on_c, 9, 43, 100
24, 70950, Note_on_c, 9, 43, 0
24, 70980, Note_on_c, 9, 43, 100
24, 71010, Note_on_c, 9, 43, 0
24, 80640, Note_on_c, 9, 43, 100
24, 80670, Note_on_c, 9, 43, 0
24, 80700, Note_on_c, 9, 43, 100
24, 80730, Note_on_c, 9, 43, 0
24, 80730, Note_on_c, 9, 43, 100
24, 80760, Note_on_c, 9, 43, 0
24, 80820, Note_on_c, 9, 43, 100
24, 80850, Note_on_c, 9, 43, 0
24, 80880, Note_on_c, 9, 43, 100
24, 80910, Note_on_c, 9, 43, 0
24, 80940, Note_on_c, 9, 43, 100
24, 80970, Note_on_c, 9, 43, 0
24, 80970, Note_on_c, 9, 43, 100
24, 81000, Note_on_c, 9, 43, 0
24, 81000, Note_on_c, 9, 43, 100
24, 81030, Note_on_c, 9, 43, 0
24, 81060, Note_on_c, 9, 43, 100
24, 81090, Note_on_c, 9, 43, 0
24, 81090, Note_on_c, 9, 43, 100
24, 81120, Note_on_c, 9, 43, 0
24, 94140, Note_on_c, 9, 43, 100
24, 94155, Note_on_c, 9, 43, 0
24, 94155, Note_on_c, 9, 43, 100
24, 94170, Note_on_c, 9, 43, 0
24, 94170, Note_on_c, 9, 43, 100
24, 94185, Note_on_c, 9, 43, 0
24, 94185, Note_on_c, 9, 43, 100
24, 94200, Note_on_c, 9, 43, 0
24, 94200, Note_on_c, 9, 43, 100
24, 94215, Note_on_c, 9, 43, 0
24, 94215, Note_on_c, 9, 43, 100
24, 94230, Note_on_c, 9, 43, 0
24, 95310, Note_on_c, 9, 43, 100
24, 95340, Note_on_c, 9, 43, 0
24, 95340, Note_on_c, 9, 43, 100
24, 95370, Note_on_c, 9, 43, 0
24, 95400, Note_on_c, 9, 43, 100
24, 95430, Note_on_c, 9, 43, 0
24, 95460, Note_on_c, 9, 43, 100
24, 95490, Note_on_c, 9, 43, 0
24, 95490, Note_on_c, 9, 43, 100
24, 95520, Note_on_c, 9, 43, 0
24, 96000, Note_on_c, 9, 43, 100
24, 96030, Note_on_c, 9, 43, 0
24, 96030, Note_on_c, 9, 43, 100
24, 96060, Note_on_c, 9, 43, 0
24, 96060, Note_on_c, 9, 43, 100
24, 96090, Note_on_c, 9, 43, 0
24, 96090, Note_on_c, 9, 43, 100
24, 96120, Note_on_c, 9, 43, 0
24, 96120, Note_on_c, 9, 43, 100
24, 96150, Note_on_c, 9, 43, 0
24, 97320, Note_on_c, 9, 43, 100
24, 97350, Note_on_c, 9, 43, 0
24, 97380, Note_on_c, 9, 43, 100
24, 97410, Note_on_c, 9, 43, 0
24, 97410, Note_on_c, 9, 43, 100
24, 97440, Note_on_c, 9, 43, 0
24, 97920, Note_on_c, 9, 43, 100
24, 97950, Note_on_c, 9, 43, 0
24, 97980, Note_on_c, 9, 43, 100
24, 98010, Note_on_c, 9, 43, 0
24, 98010, Note_on_c, 9, 43, 100
24, 98040, Note_on_c, 9, 43, 0
24, 98160, Note_on_c, 9, 43, 100
24, 98190, Note_on_c, 9, 43, 0
24, 98190, Note_on_c, 9, 43, 100
24, 98220, Note_on_c, 9, 43, 0
24, 98220, Note_on_c, 9, 43, 100
24, 98250, Note_on_c, 9, 43, 0
24, 99180, Note_on_c, 9, 43, 100
24, 99195, Note_on_c, 9, 43, 0
24, 99195, Note_on_c, 9, 43, 100
24, 99210, Note_on_c, 9, 43, 0
24, 99210, Note_on_c, 9, 43, 100
24, 99225, Note_on_c, 9, 43, 0
24, 99225, Note_on_c, 9, 43, 100
24, 99240, Note_on_c, 9, 43, 0
24, 99240, Note_on_c, 9, 43, 100
24, 99255, Note_on_c, 9, 43, 0
24, 99255, End_track
25, 0, Start_track
25, 0, MIDI_port, 0
25, 0, Title_t, "Cow Bell"
25, 840, Note_on_c, 9, 56, 80
25, 870, Note_on_c, 9, 56, 0
25, 870, Note_on_c, 9, 56, 80
25, 900, Note_on_c, 9, 56, 0
25, 900, Note_on_c, 9, 56, 80
25, 930, Note_on_c, 9, 56, 0
25, 930, Note_on_c, 9, 56, 80
25, 960, Note_on_c, 9, 56, 0
25, 1320, Note_on_c, 9, 56, 80
25, 1350, Note_on_c, 9, 56, 0
25, 1350, Note_on_c, 9, 56, 80
25, 1380, Note_on_c, 9, 56, 0
25, 1380, Note_on_c, 9, 56, 80
25, 1410, Note_on_c, 9, 56, 0
25, 1410, Note_on_c, 9, 56, 80
25, 1440, Note_on_c, 9, 56, 0
25, 1800, Note_on_c, 9, 56, 80
25, 1830, Note_on_c, 9, 56, 0
25, 1830, Note_on_c, 9, 56, 80
25, 1860, Note_on_c, 9, 56, 0
25, 1860, Note_on_c, 9, 56, 80
25, 1890, Note_on_c, 9, 56, 0
25, 1890, Note_on_c, 9, 56, 80
25, 1920, Note_on_c, 9, 56, 0
25, 2280, Note_on_c, 9, 56, 80
25, 2310, Note_on_c, 9, 56, 0
25, 2310, Note_on_c, 9, 56, 80
25, 2340, Note_on_c, 9, 56, 0
25, 2340, Note_on_c, 9, 56, 80
25, 2370, Note_on_c, 9, 56, 0
25, 2370, Note_on_c, 9, 56, 80
25, 2400, Note_on_c, 9, 56, 0
25, 2760, Note_on_c, 9, 56, 80
25, 2790, Note_on_c, 9, 56, 0
25, 2790, Note_on_c, 9, 56, 80
25, 2820, Note_on_c, 9, 56, 0
25, 2820, Note_on_c, 9, 56, 80
25, 2850, Note_on_c, 9, 56, 0
25, 2850, Note_on_c, 9, 56, 80
25, 2880, Note_on_c, 9, 56, 0
25, 3240, Note_on_c, 9, 56, 80
25, 3270, Note_on_c, 9, 56, 0
25, 3270, Note_on_c, 9, 56, 80
25, 3300, Note_on_c, 9, 56, 0
25, 3300, Note_on_c, 9, 56, 80
25, 3330, Note_on_c, 9, 56, 0
25, 3330, Note_on_c, 9, 56, 80
25, 3360, Note_on_c, 9, 56, 0
25, 3720, Note_on_c, 9, 56, 80
25, 3750, Note_on_c, 9, 56, 0
25, 3750, Note_on_c, 9, 56, 80
25, 3780, Note_on_c, 9, 56, 0
25, 3780, Note_on_c, 9, 56, 80
25, 3810, Note_on_c, 9, 56, 0
25, 3810, Note_on_c, 9, 56, 80
25, 3840, Note_on_c, 9, 56, 0
25, 4200, Note_on_c, 9, 56, 80
25, 4230, Note_on_c, 9, 56, 0
25, 4230, Note_on_c, 9, 56, 80
25, 4260, Note_on_c, 9, 56, 0
25, 4260, Note_on_c, 9, 56, 80
25, 4290, Note_on_c, 9, 56, 0
25, 4290, Note_on_c, 9, 56, 80
25, 4320, Note_on_c, 9, 56, 0
25, 4680, Note_on_c, 9, 56, 80
25, 4710, Note_on_c, 9, 56, 0
25, 4710, Note_on_c, 9, 56, 80
25, 4740, Note_on_c, 9, 56, 0
25, 4740, Note_on_c, 9, 56, 80
25, 4770, Note_on_c, 9, 56, 0
25, 4770, Note_on_c, 9, 56, 80
25, 4800, Note_on_c, 9, 56, 0
25, 5160, Note_on_c, 9, 56, 80
25, 5190, Note_on_c, 9, 56, 0
25, 5190, Note_on_c, 9, 56, 80
25, 5220, Note_on_c, 9, 56, 0
25, 5220, Note_on_c, 9, 56, 80
25, 5250, Note_on_c, 9, 56, 0
25, 5250, Note_on_c, 9, 56, 80
25, 5280, Note_on_c, 9, 56, 0
25, 5640, Note_on_c, 9, 56, 80
25, 5670, Note_on_c, 9, 56, 0
25, 5670, Note_on_c, 9, 56, 80
25, 5700, Note_on_c, 9, 56, 0
25, 5700, Note_on_c, 9, 56, 80
25, 5730, Note_on_c, 9, 56, 0
25, 5730, Note_on_c, 9, 56, 80
25, 5760, Note_on_c, 9, 56, 0
25, 6120, Note_on_c, 9, 56, 80
25, 6150, Note_on_c, 9, 56, 0
25, 6150, Note_on_c, 9, 56, 80
25, 6180, Note_on_c, 9, 56, 0
25, 6180, Note_on_c, 9, 56, 80
25, 6210, Note_on_c, 9, 56, 0
25, 6210, Note_on_c, 9, 56, 80
25, 6240, Note_on_c, 9, 56, 0
25, 6600, Note_on_c, 9, 56, 80
25, 6630, Note_on_c, 9, 56, 0
25, 6630, Note_on_c, 9, 56, 80
25, 6660, Note_on_c, 9, 56, 0
25, 6660, Note_on_c, 9, 56, 80
25, 6690, Note_on_c, 9, 56, 0
25, 6690, Note_on_c, 9, 56, 80
25, 6720, Note_on_c, 9, 56, 0
25, 7080, Note_on_c, 9, 56, 80
25, 7110, Note_on_c, 9, 56, 0
25, 7110, Note_on_c, 9, 56, 80
25, 7140, Note_on_c, 9, 56, 0
25, 7140, Note_on_c, 9, 56, 80
25, 7170, Note_on_c, 9, 56, 0
25, 7170, Note_on_c, 9, 56, 80
25, 7200, Note_on_c, 9, 56, 0
25, 7560, Note_on_c, 9, 56, 80
25, 7590, Note_on_c, 9, 56, 0
25, 7590, Note_on_c, 9, 56, 80
25, 7620, Note_on_c, 9, 56, 0
25, 7620, Note_on_c, 9, 56, 80
25, 7650, Note_on_c, 9, 56, 0
25, 7650, Note_on_c, 9, 56, 80
25, 7680, Note_on_c, 9, 56, 0
25, 8040, Note_on_c, 9, 56, 80
25, 8070, Note_on_c, 9, 56, 0
25, 8070, Note_on_c, 9, 56, 80
25, 8100, Note_on_c, 9, 56, 0
25, 8100, Note_on_c, 9, 56, 80
25, 8130, Note_on_c, 9, 56, 0
25, 8130, Note_on_c, 9, 56, 80
25, 8160, Note_on_c, 9, 56, 0
25, 8520, Note_on_c, 9, 56, 80
25, 8550, Note_on_c, 9, 56, 0
25, 8550, Note_on_c, 9, 56, 80
25, 8580, Note_on_c, 9, 56, 0
25, 8580, Note_on_c, 9, 56, 80
25, 8610, Note_on_c, 9, 56, 0
25, 8610, Note_on_c, 9, 56, 80
25, 8640, Note_on_c, 9, 56, 0
25, 9000, Note_on_c, 9, 56, 80
25, 9030, Note_on_c, 9, 56, 0
25, 9030, Note_on_c, 9, 56, 80
25, 9060, Note_on_c, 9, 56, 0
25, 9060, Note_on_c, 9, 56, 80
25, 9090, Note_on_c, 9, 56, 0
25, 9090, Note_on_c, 9, 56, 80
25, 9120, Note_on_c, 9, 56, 0
25, 9480, Note_on_c, 9, 56, 80
25, 9510, Note_on_c, 9, 56, 0
25, 9510, Note_on_c, 9, 56, 80
25, 9540, Note_on_c, 9, 56, 0
25, 9540, Note_on_c, 9, 56, 80
25, 9570, Note_on_c, 9, 56, 0
25, 9570, Note_on_c, 9, 56, 80
25, 9600, Note_on_c, 9, 56, 0
25, 9960, Note_on_c, 9, 56, 80
25, 9990, Note_on_c, 9, 56, 0
25, 9990, Note_on_c, 9, 56, 80
25, 10020, Note_on_c, 9, 56, 0
25, 10020, Note_on_c, 9, 56, 80
25, 10050, Note_on_c, 9, 56, 0
25, 10050, Note_on_c, 9, 56, 80
25, 10080, Note_on_c, 9, 56, 0
25, 10440, Note_on_c, 9, 56, 80
25, 10470, Note_on_c, 9, 56, 0
25, 10470, Note_on_c, 9, 56, 80
25, 10500, Note_on_c, 9, 56, 0
25, 10500, Note_on_c, 9, 56, 80
25, 10530, Note_on_c, 9, 56, 0
25, 10530, Note_on_c, 9, 56, 80
25, 10560, Note_on_c, 9, 56, 0
25, 10920, Note_on_c, 9, 56, 80
25, 10950, Note_on_c, 9, 56, 0
25, 10950, Note_on_c, 9, 56, 80
25, 10980, Note_on_c, 9, 56, 0
25, 10980, Note_on_c, 9, 56, 80
25, 11010, Note_on_c, 9, 56, 0
25, 11010, Note_on_c, 9, 56, 80
25, 11040, Note_on_c, 9, 56, 0
25, 11400, Note_on_c, 9, 56, 80
25, 11430, Note_on_c, 9, 56, 0
25, 11430, Note_on_c, 9, 56, 80
25, 11460, Note_on_c, 9, 56, 0
25, 11460, Note_on_c, 9, 56, 80
25, 11490, Note_on_c, 9, 56, 0
25, 11490, Note_on_c, 9, 56, 80
25, 11520, Note_on_c, 9, 56, 0
25, 11880, Note_on_c, 9, 56, 80
25, 11910, Note_on_c, 9, 56, 0
25, 11910, Note_on_c, 9, 56, 80
25, 11940, Note_on_c, 9, 56, 0
25, 11940, Note_on_c, 9, 56, 80
25, 11970, Note_on_c, 9, 56, 0
25, 11970, Note_on_c, 9, 56, 80
25, 12000, Note_on_c, 9, 56, 0
25, 12360, Note_on_c, 9, 56, 80
25, 12390, Note_on_c, 9, 56, 0
25, 12390, Note_on_c, 9, 56, 80
25, 12420, Note_on_c, 9, 56, 0
25, 12420, Note_on_c, 9, 56, 80
25, 12450, Note_on_c, 9, 56, 0
25, 12450, Note_on_c, 9, 56, 80
25, 12480, Note_on_c, 9, 56, 0
25, 12840, Note_on_c, 9, 56, 80
25, 12870, Note_on_c, 9, 56, 0
25, 12870, Note_on_c, 9, 56, 80
25, 12900, Note_on_c, 9, 56, 0
25, 12900, Note_on_c, 9, 56, 80
25, 12930, Note_on_c, 9, 56, 0
25, 12930, Note_on_c, 9, 56, 80
25, 12960, Note_on_c, 9, 56, 0
25, 13320, Note_on_c, 9, 56, 80
25, 13350, Note_on_c, 9, 56, 0
25, 13350, Note_on_c, 9, 56, 80
25, 13380, Note_on_c, 9, 56, 0
25, 13380, Note_on_c, 9, 56, 80
25, 13410, Note_on_c, 9, 56, 0
25, 13410, Note_on_c, 9, 56, 80
25, 13440, Note_on_c, 9, 56, 0
25, 13800, Note_on_c, 9, 56, 80
25, 13830, Note_on_c, 9, 56, 0
25, 13830, Note_on_c, 9, 56, 80
25, 13860, Note_on_c, 9, 56, 0
25, 13860, Note_on_c, 9, 56, 80
25, 13890, Note_on_c, 9, 56, 0
25, 13890, Note_on_c, 9, 56, 80
25, 13920, Note_on_c, 9, 56, 0
25, 14280, Note_on_c, 9, 56, 80
25, 14310, Note_on_c, 9, 56, 0
25, 14310, Note_on_c, 9, 56, 80
25, 14340, Note_on_c, 9, 56, 0
25, 14340, Note_on_c, 9, 56, 80
25, 14370, Note_on_c, 9, 56, 0
25, 14370, Note_on_c, 9, 56, 80
25, 14400, Note_on_c, 9, 56, 0
25, 14760, Note_on_c, 9, 56, 80
25, 14790, Note_on_c, 9, 56, 0
25, 14790, Note_on_c, 9, 56, 80
25, 14820, Note_on_c, 9, 56, 0
25, 14820, Note_on_c, 9, 56, 80
25, 14850, Note_on_c, 9, 56, 0
25, 14850, Note_on_c, 9, 56, 80
25, 14880, Note_on_c, 9, 56, 0
25, 15240, Note_on_c, 9, 56, 80
25, 15270, Note_on_c, 9, 56, 0
25, 15270, Note_on_c, 9, 56, 80
25, 15300, Note_on_c, 9, 56, 0
25, 15300, Note_on_c, 9, 56, 80
25, 15330, Note_on_c, 9, 56, 0
25, 15330, Note_on_c, 9, 56, 80
25, 15360, Note_on_c, 9, 56, 0
25, 15720, Note_on_c, 9, 56, 80
25, 15750, Note_on_c, 9, 56, 0
25, 15750, Note_on_c, 9, 56, 80
25, 15780, Note_on_c, 9, 56, 0
25, 15780, Note_on_c, 9, 56, 80
25, 15810, Note_on_c, 9, 56, 0
25, 15810, Note_on_c, 9, 56, 80
25, 15840, Note_on_c, 9, 56, 0
25, 16200, Note_on_c, 9, 56, 80
25, 16230, Note_on_c, 9, 56, 0
25, 16230, Note_on_c, 9, 56, 80
25, 16260, Note_on_c, 9, 56, 0
25, 16260, Note_on_c, 9, 56, 80
25, 16290, Note_on_c, 9, 56, 0
25, 16290, Note_on_c, 9, 56, 80
25, 16320, Note_on_c, 9, 56, 0
25, 16680, Note_on_c, 9, 56, 80
25, 16710, Note_on_c, 9, 56, 0
25, 16710, Note_on_c, 9, 56, 80
25, 16740, Note_on_c, 9, 56, 0
25, 16740, Note_on_c, 9, 56, 80
25, 16770, Note_on_c, 9, 56, 0
25, 16770, Note_on_c, 9, 56, 80
25, 16800, Note_on_c, 9, 56, 0
25, 17160, Note_on_c, 9, 56, 80
25, 17190, Note_on_c, 9, 56, 0
25, 17190, Note_on_c, 9, 56, 80
25, 17220, Note_on_c, 9, 56, 0
25, 17220, Note_on_c, 9, 56, 80
25, 17250, Note_on_c, 9, 56, 0
25, 17250, Note_on_c, 9, 56, 80
25, 17280, Note_on_c, 9, 56, 0
25, 17640, Note_on_c, 9, 56, 80
25, 17670, Note_on_c, 9, 56, 0
25, 17670, Note_on_c, 9, 56, 80
25, 17700, Note_on_c, 9, 56, 0
25, 17700, Note_on_c, 9, 56, 80
25, 17730, Note_on_c, 9, 56, 0
25, 17730, Note_on_c, 9, 56, 80
25, 17760, Note_on_c, 9, 56, 0
25, 18120, Note_on_c, 9, 56, 80
25, 18150, Note_on_c, 9, 56, 0
25, 18150, Note_on_c, 9, 56, 80
25, 18180, Note_on_c, 9, 56, 0
25, 18180, Note_on_c, 9, 56, 80
25, 18210, Note_on_c, 9, 56, 0
25, 18210, Note_on_c, 9, 56, 80
25, 18240, Note_on_c, 9, 56, 0
25, 18600, Note_on_c, 9, 56, 80
25, 18630, Note_on_c, 9, 56, 0
25, 18630, Note_on_c, 9, 56, 80
25, 18660, Note_on_c, 9, 56, 0
25, 18660, Note_on_c, 9, 56, 80
25, 18690, Note_on_c, 9, 56, 0
25, 18690, Note_on_c, 9, 56, 80
25, 18720, Note_on_c, 9, 56, 0
25, 19080, Note_on_c, 9, 56, 80
25, 19110, Note_on_c, 9, 56, 0
25, 19110, Note_on_c, 9, 56, 80
25, 19140, Note_on_c, 9, 56, 0
25, 19140, Note_on_c, 9, 56, 80
25, 19170, Note_on_c, 9, 56, 0
25, 19170, Note_on_c, 9, 56, 80
25, 19200, Note_on_c, 9, 56, 0
25, 19560, Note_on_c, 9, 56, 80
25, 19590, Note_on_c, 9, 56, 0
25, 19590, Note_on_c, 9, 56, 80
25, 19620, Note_on_c, 9, 56, 0
25, 19620, Note_on_c, 9, 56, 80
25, 19650, Note_on_c, 9, 56, 0
25, 19650, Note_on_c, 9, 56, 80
25, 19680, Note_on_c, 9, 56, 0
25, 20040, Note_on_c, 9, 56, 80
25, 20070, Note_on_c, 9, 56, 0
25, 20070, Note_on_c, 9, 56, 80
25, 20100, Note_on_c, 9, 56, 0
25, 20100, Note_on_c, 9, 56, 80
25, 20130, Note_on_c, 9, 56, 0
25, 20130, Note_on_c, 9, 56, 80
25, 20160, Note_on_c, 9, 56, 0
25, 20520, Note_on_c, 9, 56, 80
25, 20550, Note_on_c, 9, 56, 0
25, 20550, Note_on_c, 9, 56, 80
25, 20580, Note_on_c, 9, 56, 0
25, 20580, Note_on_c, 9, 56, 80
25, 20610, Note_on_c, 9, 56, 0
25, 20610, Note_on_c, 9, 56, 80
25, 20640, Note_on_c, 9, 56, 0
25, 21000, Note_on_c, 9, 56, 80
25, 21030, Note_on_c, 9, 56, 0
25, 21030, Note_on_c, 9, 56, 80
25, 21060, Note_on_c, 9, 56, 0
25, 21060, Note_on_c, 9, 56, 80
25, 21090, Note_on_c, 9, 56, 0
25, 21090, Note_on_c, 9, 56, 80
25, 21120, Note_on_c, 9, 56, 0
25, 21480, Note_on_c, 9, 56, 80
25, 21510, Note_on_c, 9, 56, 0
25, 21510, Note_on_c, 9, 56, 80
25, 21540, Note_on_c, 9, 56, 0
25, 21540, Note_on_c, 9, 56, 80
25, 21570, Note_on_c, 9, 56, 0
25, 21570, Note_on_c, 9, 56, 80
25, 21600, Note_on_c, 9, 56, 0
25, 21960, Note_on_c, 9, 56, 80
25, 21990, Note_on_c, 9, 56, 0
25, 21990, Note_on_c, 9, 56, 80
25, 22020, Note_on_c, 9, 56, 0
25, 22020, Note_on_c, 9, 56, 80
25, 22050, Note_on_c, 9, 56, 0
25, 22050, Note_on_c, 9, 56, 80
25, 22080, Note_on_c, 9, 56, 0
25, 22440, Note_on_c, 9, 56, 80
25, 22470, Note_on_c, 9, 56, 0
25, 22470, Note_on_c, 9, 56, 80
25, 22500, Note_on_c, 9, 56, 0
25, 22500, Note_on_c, 9, 56, 80
25, 22530, Note_on_c, 9, 56, 0
25, 22530, Note_on_c, 9, 56, 80
25, 22560, Note_on_c, 9, 56, 0
25, 22920, Note_on_c, 9, 56, 80
25, 22950, Note_on_c, 9, 56, 0
25, 22950, Note_on_c, 9, 56, 80
25, 22980, Note_on_c, 9, 56, 0
25, 22980, Note_on_c, 9, 56, 80
25, 23010, Note_on_c, 9, 56, 0
25, 23010, Note_on_c, 9, 56, 80
25, 23040, Note_on_c, 9, 56, 0
25, 23400, Note_on_c, 9, 56, 80
25, 23430, Note_on_c, 9, 56, 0
25, 23430, Note_on_c, 9, 56, 80
25, 23460, Note_on_c, 9, 56, 0
25, 23460, Note_on_c, 9, 56, 80
25, 23490, Note_on_c, 9, 56, 0
25, 23490, Note_on_c, 9, 56, 80
25, 23520, Note_on_c, 9, 56, 0
25, 23880, Note_on_c, 9, 56, 80
25, 23910, Note_on_c, 9, 56, 0
25, 23910, Note_on_c, 9, 56, 80
25, 23940, Note_on_c, 9, 56, 0
25, 23940, Note_on_c, 9, 56, 80
25, 23970, Note_on_c, 9, 56, 0
25, 23970, Note_on_c, 9, 56, 80
25, 24000, Note_on_c, 9, 56, 0
25, 24360, Note_on_c, 9, 56, 80
25, 24390, Note_on_c, 9, 56, 0
25, 24390, Note_on_c, 9, 56, 80
25, 24420, Note_on_c, 9, 56, 0
25, 24420, Note_on_c, 9, 56, 80
25, 24450, Note_on_c, 9, 56, 0
25, 24450, Note_on_c, 9, 56, 80
25, 24480, Note_on_c, 9, 56, 0
25, 24840, Note_on_c, 9, 56, 80
25, 24870, Note_on_c, 9, 56, 0
25, 24870, Note_on_c, 9, 56, 80
25, 24900, Note_on_c, 9, 56, 0
25, 24900, Note_on_c, 9, 56, 80
25, 24930, Note_on_c, 9, 56, 0
25, 24930, Note_on_c, 9, 56, 80
25, 24960, Note_on_c, 9, 56, 0
25, 25320, Note_on_c, 9, 56, 80
25, 25350, Note_on_c, 9, 56, 0
25, 25350, Note_on_c, 9, 56, 80
25, 25380, Note_on_c, 9, 56, 0
25, 25380, Note_on_c, 9, 56, 80
25, 25410, Note_on_c, 9, 56, 0
25, 25410, Note_on_c, 9, 56, 80
25, 25440, Note_on_c, 9, 56, 0
25, 25800, Note_on_c, 9, 56, 80
25, 25830, Note_on_c, 9, 56, 0
25, 25830, Note_on_c, 9, 56, 80
25, 25860, Note_on_c, 9, 56, 0
25, 25860, Note_on_c, 9, 56, 80
25, 25890, Note_on_c, 9, 56, 0
25, 25890, Note_on_c, 9, 56, 80
25, 25920, Note_on_c, 9, 56, 0
25, 26280, Note_on_c, 9, 56, 80
25, 26310, Note_on_c, 9, 56, 0
25, 26310, Note_on_c, 9, 56, 80
25, 26340, Note_on_c, 9, 56, 0
25, 26340, Note_on_c, 9, 56, 80
25, 26370, Note_on_c, 9, 56, 0
25, 26370, Note_on_c, 9, 56, 80
25, 26400, Note_on_c, 9, 56, 0
25, 26760, Note_on_c, 9, 56, 80
25, 26790, Note_on_c, 9, 56, 0
25, 26790, Note_on_c, 9, 56, 80
25, 26820, Note_on_c, 9, 56, 0
25, 26820, Note_on_c, 9, 56, 80
25, 26850, Note_on_c, 9, 56, 0
25, 26850, Note_on_c, 9, 56, 80
25, 26880, Note_on_c, 9, 56, 0
25, 27240, Note_on_c, 9, 56, 80
25, 27270, Note_on_c, 9, 56, 0
25, 27270, Note_on_c, 9, 56, 80
25, 27300, Note_on_c, 9, 56, 0
25, 27300, Note_on_c, 9, 56, 80
25, 27330, Note_on_c, 9, 56, 0
25, 27330, Note_on_c, 9, 56, 80
25, 27360, Note_on_c, 9, 56, 0
25, 27720, Note_on_c, 9, 56, 80
25, 27750, Note_on_c, 9, 56, 0
25, 27750, Note_on_c, 9, 56, 80
25, 27780, Note_on_c, 9, 56, 0
25, 27780, Note_on_c, 9, 56, 80
25, 27810, Note_on_c, 9, 56, 0
25, 27810, Note_on_c, 9, 56, 80
25, 27840, Note_on_c, 9, 56, 0
25, 28200, Note_on_c, 9, 56, 80
25, 28230, Note_on_c, 9, 56, 0
25, 28230, Note_on_c, 9, 56, 80
25, 28260, Note_on_c, 9, 56, 0
25, 28260, Note_on_c, 9, 56, 80
25, 28290, Note_on_c, 9, 56, 0
25, 28290, Note_on_c, 9, 56, 80
25, 28320, Note_on_c, 9, 56, 0
25, 28680, Note_on_c, 9, 56, 80
25, 28710, Note_on_c, 9, 56, 0
25, 28710, Note_on_c, 9, 56, 80
25, 28740, Note_on_c, 9, 56, 0
25, 28740, Note_on_c, 9, 56, 80
25, 28770, Note_on_c, 9, 56, 0
25, 28770, Note_on_c, 9, 56, 80
25, 28800, Note_on_c, 9, 56, 0
25, 29160, Note_on_c, 9, 56, 80
25, 29190, Note_on_c, 9, 56, 0
25, 29190, Note_on_c, 9, 56, 80
25, 29220, Note_on_c, 9, 56, 0
25, 29220, Note_on_c, 9, 56, 80
25, 29250, Note_on_c, 9, 56, 0
25, 29250, Note_on_c, 9, 56, 80
25, 29280, Note_on_c, 9, 56, 0
25, 29640, Note_on_c, 9, 56, 80
25, 29670, Note_on_c, 9, 56, 0
25, 29670, Note_on_c, 9, 56, 80
25, 29700, Note_on_c, 9, 56, 0
25, 29700, Note_on_c, 9, 56, 80
25, 29730, Note_on_c, 9, 56, 0
25, 29730, Note_on_c, 9, 56, 80
25, 29760, Note_on_c, 9, 56, 0
25, 30120, Note_on_c, 9, 56, 80
25, 30150, Note_on_c, 9, 56, 0
25, 30150, Note_on_c, 9, 56, 80
25, 30180, Note_on_c, 9, 56, 0
25, 30180, Note_on_c, 9, 56, 80
25, 30210, Note_on_c, 9, 56, 0
25, 30210, Note_on_c, 9, 56, 80
25, 30240, Note_on_c, 9, 56, 0
25, 30600, Note_on_c, 9, 56, 80
25, 30630, Note_on_c, 9, 56, 0
25, 30630, Note_on_c, 9, 56, 80
25, 30660, Note_on_c, 9, 56, 0
25, 30660, Note_on_c, 9, 56, 80
25, 30690, Note_on_c, 9, 56, 0
25, 30690, Note_on_c, 9, 56, 80
25, 30720, Note_on_c, 9, 56, 0
25, 31080, Note_on_c, 9, 56, 80
25, 31110, Note_on_c, 9, 56, 0
25, 31110, Note_on_c, 9, 56, 80
25, 31140, Note_on_c, 9, 56, 0
25, 31140, Note_on_c, 9, 56, 80
25, 31170, Note_on_c, 9, 56, 0
25, 31170, Note_on_c, 9, 56, 80
25, 31200, Note_on_c, 9, 56, 0
25, 31560, Note_on_c, 9, 56, 80
25, 31590, Note_on_c, 9, 56, 0
25, 31590, Note_on_c, 9, 56, 80
25, 31620, Note_on_c, 9, 56, 0
25, 31620, Note_on_c, 9, 56, 80
25, 31650, Note_on_c, 9, 56, 0
25, 31650, Note_on_c, 9, 56, 80
25, 31680, Note_on_c, 9, 56, 0
25, 32040, Note_on_c, 9, 56, 80
25, 32070, Note_on_c, 9, 56, 0
25, 32070, Note_on_c, 9, 56, 80
25, 32100, Note_on_c, 9, 56, 0
25, 32100, Note_on_c, 9, 56, 80
25, 32130, Note_on_c, 9, 56, 0
25, 32130, Note_on_c, 9, 56, 80
25, 32160, Note_on_c, 9, 56, 0
25, 32520, Note_on_c, 9, 56, 80
25, 32550, Note_on_c, 9, 56, 0
25, 32550, Note_on_c, 9, 56, 80
25, 32580, Note_on_c, 9, 56, 0
25, 32580, Note_on_c, 9, 56, 80
25, 32610, Note_on_c, 9, 56, 0
25, 32610, Note_on_c, 9, 56, 80
25, 32640, Note_on_c, 9, 56, 0
25, 33000, Note_on_c, 9, 56, 80
25, 33030, Note_on_c, 9, 56, 0
25, 33030, Note_on_c, 9, 56, 80
25, 33060, Note_on_c, 9, 56, 0
25, 33060, Note_on_c, 9, 56, 80
25, 33090, Note_on_c, 9, 56, 0
25, 33090, Note_on_c, 9, 56, 80
25, 33120, Note_on_c, 9, 56, 0
25, 33480, Note_on_c, 9, 56, 80
25, 33510, Note_on_c, 9, 56, 0
25, 33510, Note_on_c, 9, 56, 80
25, 33540, Note_on_c, 9, 56, 0
25, 33540, Note_on_c, 9, 56, 80
25, 33570, Note_on_c, 9, 56, 0
25, 33570, Note_on_c, 9, 56, 80
25, 33600, Note_on_c, 9, 56, 0
25, 33960, Note_on_c, 9, 56, 80
25, 33990, Note_on_c, 9, 56, 0
25, 33990, Note_on_c, 9, 56, 80
25, 34020, Note_on_c, 9, 56, 0
25, 34020, Note_on_c, 9, 56, 80
25, 34050, Note_on_c, 9, 56, 0
25, 34050, Note_on_c, 9, 56, 80
25, 34080, Note_on_c, 9, 56, 0
25, 34440, Note_on_c, 9, 56, 80
25, 34470, Note_on_c, 9, 56, 0
25, 34470, Note_on_c, 9, 56, 80
25, 34500, Note_on_c, 9, 56, 0
25, 34500, Note_on_c, 9, 56, 80
25, 34530, Note_on_c, 9, 56, 0
25, 34530, Note_on_c, 9, 56, 80
25, 34560, Note_on_c, 9, 56, 0
25, 34920, Note_on_c, 9, 56, 80
25, 34950, Note_on_c, 9, 56, 0
25, 34950, Note_on_c, 9, 56, 80
25, 34980, Note_on_c, 9, 56, 0
25, 34980, Note_on_c, 9, 56, 80
25, 35010, Note_on_c, 9, 56, 0
25, 35010, Note_on_c, 9, 56, 80
25, 35040, Note_on_c, 9, 56, 0
25, 35400, Note_on_c, 9, 56, 80
25, 35430, Note_on_c, 9, 56, 0
25, 35430, Note_on_c, 9, 56, 80
25, 35460, Note_on_c, 9, 56, 0
25, 35460, Note_on_c, 9, 56, 80
25, 35490, Note_on_c, 9, 56, 0
25, 35490, Note_on_c, 9, 56, 80
25, 35520, Note_on_c, 9, 56, 0
25, 35880, Note_on_c, 9, 56, 80
25, 35910, Note_on_c, 9, 56, 0
25, 35910, Note_on_c, 9, 56, 80
25, 35940, Note_on_c, 9, 56, 0
25, 35940, Note_on_c, 9, 56, 80
25, 35970, Note_on_c, 9, 56, 0
25, 35970, Note_on_c, 9, 56, 80
25, 36000, Note_on_c, 9, 56, 0
25, 36360, Note_on_c, 9, 56, 80
25, 36390, Note_on_c, 9, 56, 0
25, 36390, Note_on_c, 9, 56, 80
25, 36420, Note_on_c, 9, 56, 0
25, 36420, Note_on_c, 9, 56, 80
25, 36450, Note_on_c, 9, 56, 0
25, 36450, Note_on_c, 9, 56, 80
25, 36480, Note_on_c, 9, 56, 0
25, 36840, Note_on_c, 9, 56, 80
25, 36870, Note_on_c, 9, 56, 0
25, 36870, Note_on_c, 9, 56, 80
25, 36900, Note_on_c, 9, 56, 0
25, 36900, Note_on_c, 9, 56, 80
25, 36930, Note_on_c, 9, 56, 0
25, 36930, Note_on_c, 9, 56, 80
25, 36960, Note_on_c, 9, 56, 0
25, 37320, Note_on_c, 9, 56, 80
25, 37350, Note_on_c, 9, 56, 0
25, 37350, Note_on_c, 9, 56, 80
25, 37380, Note_on_c, 9, 56, 0
25, 37380, Note_on_c, 9, 56, 80
25, 37410, Note_on_c, 9, 56, 0
25, 37410, Note_on_c, 9, 56, 80
25, 37440, Note_on_c, 9, 56, 0
25, 37800, Note_on_c, 9, 56, 80
25, 37830, Note_on_c, 9, 56, 0
25, 37830, Note_on_c, 9, 56, 80
25, 37860, Note_on_c, 9, 56, 0
25, 37860, Note_on_c, 9, 56, 80
25, 37890, Note_on_c, 9, 56, 0
25, 37890, Note_on_c, 9, 56, 80
25, 37920, Note_on_c, 9, 56, 0
25, 38280, Note_on_c, 9, 56, 80
25, 38310, Note_on_c, 9, 56, 0
25, 38310, Note_on_c, 9, 56, 80
25, 38340, Note_on_c, 9, 56, 0
25, 38340, Note_on_c, 9, 56, 80
25, 38370, Note_on_c, 9, 56, 0
25, 38370, Note_on_c, 9, 56, 80
25, 38400, Note_on_c, 9, 56, 0
25, 38760, Note_on_c, 9, 56, 80
25, 38790, Note_on_c, 9, 56, 0
25, 38790, Note_on_c, 9, 56, 80
25, 38820, Note_on_c, 9, 56, 0
25, 38820, Note_on_c, 9, 56, 80
25, 38850, Note_on_c, 9, 56, 0
25, 38850, Note_on_c, 9, 56, 80
25, 38880, Note_on_c, 9, 56, 0
25, 39240, Note_on_c, 9, 56, 80
25, 39270, Note_on_c, 9, 56, 0
25, 39270, Note_on_c, 9, 56, 80
25, 39300, Note_on_c, 9, 56, 0
25, 39300, Note_on_c, 9, 56, 80
25, 39330, Note_on_c, 9, 56, 0
25, 39330, Note_on_c, 9, 56, 80
25, 39360, Note_on_c, 9, 56, 0
25, 39720, Note_on_c, 9, 56, 80
25, 39750, Note_on_c, 9, 56, 0
25, 39750, Note_on_c, 9, 56, 80
25, 39780, Note_on_c, 9, 56, 0
25, 39780, Note_on_c, 9, 56, 80
25, 39810, Note_on_c, 9, 56, 0
25, 39810, Note_on_c, 9, 56, 80
25, 39840, Note_on_c, 9, 56, 0
25, 40200, Note_on_c, 9, 56, 80
25, 40230, Note_on_c, 9, 56, 0
25, 40230, Note_on_c, 9, 56, 80
25, 40260, Note_on_c, 9, 56, 0
25, 40260, Note_on_c, 9, 56, 80
25, 40290, Note_on_c, 9, 56, 0
25, 40290, Note_on_c, 9, 56, 80
25, 40320, Note_on_c, 9, 56, 0
25, 40680, Note_on_c, 9, 56, 80
25, 40710, Note_on_c, 9, 56, 0
25, 40710, Note_on_c, 9, 56, 80
25, 40740, Note_on_c, 9, 56, 0
25, 40740, Note_on_c, 9, 56, 80
25, 40770, Note_on_c, 9, 56, 0
25, 40770, Note_on_c, 9, 56, 80
25, 40800, Note_on_c, 9, 56, 0
25, 41160, Note_on_c, 9, 56, 80
25, 41190, Note_on_c, 9, 56, 0
25, 41190, Note_on_c, 9, 56, 80
25, 41220, Note_on_c, 9, 56, 0
25, 41220, Note_on_c, 9, 56, 80
25, 41250, Note_on_c, 9, 56, 0
25, 41250, Note_on_c, 9, 56, 80
25, 41280, Note_on_c, 9, 56, 0
25, 41640, Note_on_c, 9, 56, 80
25, 41670, Note_on_c, 9, 56, 0
25, 41670, Note_on_c, 9, 56, 80
25, 41700, Note_on_c, 9, 56, 0
25, 41700, Note_on_c, 9, 56, 80
25, 41730, Note_on_c, 9, 56, 0
25, 41730, Note_on_c, 9, 56, 80
25, 41760, Note_on_c, 9, 56, 0
25, 42120, Note_on_c, 9, 56, 80
25, 42150, Note_on_c, 9, 56, 0
25, 42150, Note_on_c, 9, 56, 80
25, 42180, Note_on_c, 9, 56, 0
25, 42180, Note_on_c, 9, 56, 80
25, 42210, Note_on_c, 9, 56, 0
25, 42210, Note_on_c, 9, 56, 80
25, 42240, Note_on_c, 9, 56, 0
25, 42600, Note_on_c, 9, 56, 80
25, 42630, Note_on_c, 9, 56, 0
25, 42630, Note_on_c, 9, 56, 80
25, 42660, Note_on_c, 9, 56, 0
25, 42660, Note_on_c, 9, 56, 80
25, 42690, Note_on_c, 9, 56, 0
25, 42690, Note_on_c, 9, 56, 80
25, 42720, Note_on_c, 9, 56, 0
25, 43080, Note_on_c, 9, 56, 80
25, 43110, Note_on_c, 9, 56, 0
25, 43110, Note_on_c, 9, 56, 80
25, 43140, Note_on_c, 9, 56, 0
25, 43140, Note_on_c, 9, 56, 80
25, 43170, Note_on_c, 9, 56, 0
25, 43170, Note_on_c, 9, 56, 80
25, 43200, Note_on_c, 9, 56, 0
25, 43560, Note_on_c, 9, 56, 80
25, 43590, Note_on_c, 9, 56, 0
25, 43590, Note_on_c, 9, 56, 80
25, 43620, Note_on_c, 9, 56, 0
25, 43620, Note_on_c, 9, 56, 80
25, 43650, Note_on_c, 9, 56, 0
25, 43650, Note_on_c, 9, 56, 80
25, 43680, Note_on_c, 9, 56, 0
25, 44040, Note_on_c, 9, 56, 80
25, 44070, Note_on_c, 9, 56, 0
25, 44070, Note_on_c, 9, 56, 80
25, 44100, Note_on_c, 9, 56, 0
25, 44100, Note_on_c, 9, 56, 80
25, 44130, Note_on_c, 9, 56, 0
25, 44130, Note_on_c, 9, 56, 80
25, 44160, Note_on_c, 9, 56, 0
25, 44520, Note_on_c, 9, 56, 80
25, 44550, Note_on_c, 9, 56, 0
25, 44550, Note_on_c, 9, 56, 80
25, 44580, Note_on_c, 9, 56, 0
25, 44580, Note_on_c, 9, 56, 80
25, 44610, Note_on_c, 9, 56, 0
25, 44610, Note_on_c, 9, 56, 80
25, 44640, Note_on_c, 9, 56, 0
25, 45000, Note_on_c, 9, 56, 80
25, 45030, Note_on_c, 9, 56, 0
25, 45030, Note_on_c, 9, 56, 80
25, 45060, Note_on_c, 9, 56, 0
25, 45060, Note_on_c, 9, 56, 80
25, 45090, Note_on_c, 9, 56, 0
25, 45090, Note_on_c, 9, 56, 80
25, 45120, Note_on_c, 9, 56, 0
25, 45480, Note_on_c, 9, 56, 80
25, 45510, Note_on_c, 9, 56, 0
25, 45510, Note_on_c, 9, 56, 80
25, 45540, Note_on_c, 9, 56, 0
25, 45540, Note_on_c, 9, 56, 80
25, 45570, Note_on_c, 9, 56, 0
25, 45570, Note_on_c, 9, 56, 80
25, 45600, Note_on_c, 9, 56, 0
25, 45960, Note_on_c, 9, 56, 80
25, 45990, Note_on_c, 9, 56, 0
25, 45990, Note_on_c, 9, 56, 80
25, 46020, Note_on_c, 9, 56, 0
25, 46020, Note_on_c, 9, 56, 80
25, 46050, Note_on_c, 9, 56, 0
25, 46050, Note_on_c, 9, 56, 80
25, 46080, Note_on_c, 9, 56, 0
25, 46440, Note_on_c, 9, 56, 80
25, 46470, Note_on_c, 9, 56, 0
25, 46470, Note_on_c, 9, 56, 80
25, 46500, Note_on_c, 9, 56, 0
25, 46500, Note_on_c, 9, 56, 80
25, 46530, Note_on_c, 9, 56, 0
25, 46530, Note_on_c, 9, 56, 80
25, 46560, Note_on_c, 9, 56, 0
25, 46920, Note_on_c, 9, 56, 80
25, 46950, Note_on_c, 9, 56, 0
25, 46950, Note_on_c, 9, 56, 80
25, 46980, Note_on_c, 9, 56, 0
25, 46980, Note_on_c, 9, 56, 80
25, 47010, Note_on_c, 9, 56, 0
25, 47010, Note_on_c, 9, 56, 80
25, 47040, Note_on_c, 9, 56, 0
25, 47400, Note_on_c, 9, 56, 80
25, 47430, Note_on_c, 9, 56, 0
25, 47430, Note_on_c, 9, 56, 80
25, 47460, Note_on_c, 9, 56, 0
25, 47460, Note_on_c, 9, 56, 80
25, 47490, Note_on_c, 9, 56, 0
25, 47490, Note_on_c, 9, 56, 80
25, 47520, Note_on_c, 9, 56, 0
25, 47880, Note_on_c, 9, 56, 80
25, 47910, Note_on_c, 9, 56, 0
25, 47910, Note_on_c, 9, 56, 80
25, 47940, Note_on_c, 9, 56, 0
25, 47940, Note_on_c, 9, 56, 80
25, 47970, Note_on_c, 9, 56, 0
25, 47970, Note_on_c, 9, 56, 80
25, 48000, Note_on_c, 9, 56, 0
25, 48360, Note_on_c, 9, 56, 80
25, 48390, Note_on_c, 9, 56, 0
25, 48390, Note_on_c, 9, 56, 80
25, 48420, Note_on_c, 9, 56, 0
25, 48420, Note_on_c, 9, 56, 80
25, 48450, Note_on_c, 9, 56, 0
25, 48450, Note_on_c, 9, 56, 80
25, 48480, Note_on_c, 9, 56, 0
25, 48840, Note_on_c, 9, 56, 80
25, 48870, Note_on_c, 9, 56, 0
25, 48870, Note_on_c, 9, 56, 80
25, 48900, Note_on_c, 9, 56, 0
25, 48900, Note_on_c, 9, 56, 80
25, 48930, Note_on_c, 9, 56, 0
25, 48930, Note_on_c, 9, 56, 80
25, 48960, Note_on_c, 9, 56, 0
25, 49320, Note_on_c, 9, 56, 80
25, 49350, Note_on_c, 9, 56, 0
25, 49350, Note_on_c, 9, 56, 80
25, 49380, Note_on_c, 9, 56, 0
25, 49380, Note_on_c, 9, 56, 80
25, 49410, Note_on_c, 9, 56, 0
25, 49410, Note_on_c, 9, 56, 80
25, 49440, Note_on_c, 9, 56, 0
25, 49800, Note_on_c, 9, 56, 80
25, 49830, Note_on_c, 9, 56, 0
25, 49830, Note_on_c, 9, 56, 80
25, 49860, Note_on_c, 9, 56, 0
25, 49860, Note_on_c, 9, 56, 80
25, 49890, Note_on_c, 9, 56, 0
25, 49890, Note_on_c, 9, 56, 80
25, 49920, Note_on_c, 9, 56, 0
25, 50280, Note_on_c, 9, 56, 80
25, 50310, Note_on_c, 9, 56, 0
25, 50310, Note_on_c, 9, 56, 80
25, 50340, Note_on_c, 9, 56, 0
25, 50340, Note_on_c, 9, 56, 80
25, 50370, Note_on_c, 9, 56, 0
25, 50370, Note_on_c, 9, 56, 80
25, 50400, Note_on_c, 9, 56, 0
25, 50760, Note_on_c, 9, 56, 80
25, 50790, Note_on_c, 9, 56, 0
25, 50790, Note_on_c, 9, 56, 80
25, 50820, Note_on_c, 9, 56, 0
25, 50820, Note_on_c, 9, 56, 80
25, 50850, Note_on_c, 9, 56, 0
25, 50850, Note_on_c, 9, 56, 80
25, 50880, Note_on_c, 9, 56, 0
25, 51240, Note_on_c, 9, 56, 80
25, 51270, Note_on_c, 9, 56, 0
25, 51270, Note_on_c, 9, 56, 80
25, 51300, Note_on_c, 9, 56, 0
25, 51300, Note_on_c, 9, 56, 80
25, 51330, Note_on_c, 9, 56, 0
25, 51330, Note_on_c, 9, 56, 80
25, 51360, Note_on_c, 9, 56, 0
25, 51720, Note_on_c, 9, 56, 80
25, 51750, Note_on_c, 9, 56, 0
25, 51750, Note_on_c, 9, 56, 80
25, 51780, Note_on_c, 9, 56, 0
25, 51780, Note_on_c, 9, 56, 80
25, 51810, Note_on_c, 9, 56, 0
25, 51810, Note_on_c, 9, 56, 80
25, 51840, Note_on_c, 9, 56, 0
25, 52200, Note_on_c, 9, 56, 80
25, 52230, Note_on_c, 9, 56, 0
25, 52230, Note_on_c, 9, 56, 80
25, 52260, Note_on_c, 9, 56, 0
25, 52260, Note_on_c, 9, 56, 80
25, 52290, Note_on_c, 9, 56, 0
25, 52290, Note_on_c, 9, 56, 80
25, 52320, Note_on_c, 9, 56, 0
25, 52680, Note_on_c, 9, 56, 80
25, 52710, Note_on_c, 9, 56, 0
25, 52710, Note_on_c, 9, 56, 80
25, 52740, Note_on_c, 9, 56, 0
25, 52740, Note_on_c, 9, 56, 80
25, 52770, Note_on_c, 9, 56, 0
25, 52770, Note_on_c, 9, 56, 80
25, 52800, Note_on_c, 9, 56, 0
25, 53160, Note_on_c, 9, 56, 80
25, 53190, Note_on_c, 9, 56, 0
25, 53190, Note_on_c, 9, 56, 80
25, 53220, Note_on_c, 9, 56, 0
25, 53220, Note_on_c, 9, 56, 80
25, 53250, Note_on_c, 9, 56, 0
25, 53250, Note_on_c, 9, 56, 80
25, 53280, Note_on_c, 9, 56, 0
25, 53640, Note_on_c, 9, 56, 80
25, 53670, Note_on_c, 9, 56, 0
25, 53670, Note_on_c, 9, 56, 80
25, 53700, Note_on_c, 9, 56, 0
25, 53700, Note_on_c, 9, 56, 80
25, 53730, Note_on_c, 9, 56, 0
25, 53730, Note_on_c, 9, 56, 80
25, 53760, Note_on_c, 9, 56, 0
25, 54120, Note_on_c, 9, 56, 80
25, 54150, Note_on_c, 9, 56, 0
25, 54150, Note_on_c, 9, 56, 80
25, 54180, Note_on_c, 9, 56, 0
25, 54180, Note_on_c, 9, 56, 80
25, 54210, Note_on_c, 9, 56, 0
25, 54210, Note_on_c, 9, 56, 80
25, 54240, Note_on_c, 9, 56, 0
25, 54600, Note_on_c, 9, 56, 80
25, 54630, Note_on_c, 9, 56, 0
25, 54630, Note_on_c, 9, 56, 80
25, 54660, Note_on_c, 9, 56, 0
25, 54660, Note_on_c, 9, 56, 80
25, 54690, Note_on_c, 9, 56, 0
25, 54690, Note_on_c, 9, 56, 80
25, 54720, Note_on_c, 9, 56, 0
25, 55080, Note_on_c, 9, 56, 80
25, 55110, Note_on_c, 9, 56, 0
25, 55110, Note_on_c, 9, 56, 80
25, 55140, Note_on_c, 9, 56, 0
25, 55140, Note_on_c, 9, 56, 80
25, 55170, Note_on_c, 9, 56, 0
25, 55170, Note_on_c, 9, 56, 80
25, 55200, Note_on_c, 9, 56, 0
25, 55560, Note_on_c, 9, 56, 80
25, 55590, Note_on_c, 9, 56, 0
25, 55590, Note_on_c, 9, 56, 80
25, 55620, Note_on_c, 9, 56, 0
25, 55620, Note_on_c, 9, 56, 80
25, 55650, Note_on_c, 9, 56, 0
25, 55650, Note_on_c, 9, 56, 80
25, 55680, Note_on_c, 9, 56, 0
25, 56040, Note_on_c, 9, 56, 80
25, 56070, Note_on_c, 9, 56, 0
25, 56070, Note_on_c, 9, 56, 80
25, 56100, Note_on_c, 9, 56, 0
25, 56100, Note_on_c, 9, 56, 80
25, 56130, Note_on_c, 9, 56, 0
25, 56130, Note_on_c, 9, 56, 80
25, 56160, Note_on_c, 9, 56, 0
25, 56520, Note_on_c, 9, 56, 80
25, 56550, Note_on_c, 9, 56, 0
25, 56550, Note_on_c, 9, 56, 80
25, 56580, Note_on_c, 9, 56, 0
25, 56580, Note_on_c, 9, 56, 80
25, 56610, Note_on_c, 9, 56, 0
25, 56610, Note_on_c, 9, 56, 80
25, 56640, Note_on_c, 9, 56, 0
25, 57000, Note_on_c, 9, 56, 80
25, 57030, Note_on_c, 9, 56, 0
25, 57030, Note_on_c, 9, 56, 80
25, 57060, Note_on_c, 9, 56, 0
25, 57060, Note_on_c, 9, 56, 80
25, 57090, Note_on_c, 9, 56, 0
25, 57090, Note_on_c, 9, 56, 80
25, 57120, Note_on_c, 9, 56, 0
25, 57480, Note_on_c, 9, 56, 80
25, 57510, Note_on_c, 9, 56, 0
25, 57510, Note_on_c, 9, 56, 80
25, 57540, Note_on_c, 9, 56, 0
25, 57540, Note_on_c, 9, 56, 80
25, 57570, Note_on_c, 9, 56, 0
25, 57570, Note_on_c, 9, 56, 80
25, 57600, Note_on_c, 9, 56, 0
25, 57960, Note_on_c, 9, 56, 80
25, 57990, Note_on_c, 9, 56, 0
25, 57990, Note_on_c, 9, 56, 80
25, 58020, Note_on_c, 9, 56, 0
25, 58020, Note_on_c, 9, 56, 80
25, 58050, Note_on_c, 9, 56, 0
25, 58050, Note_on_c, 9, 56, 80
25, 58080, Note_on_c, 9, 56, 0
25, 58440, Note_on_c, 9, 56, 80
25, 58470, Note_on_c, 9, 56, 0
25, 58470, Note_on_c, 9, 56, 80
25, 58500, Note_on_c, 9, 56, 0
25, 58500, Note_on_c, 9, 56, 80
25, 58530, Note_on_c, 9, 56, 0
25, 58530, Note_on_c, 9, 56, 80
25, 58560, Note_on_c, 9, 56, 0
25, 58920, Note_on_c, 9, 56, 80
25, 58950, Note_on_c, 9, 56, 0
25, 58950, Note_on_c, 9, 56, 80
25, 58980, Note_on_c, 9, 56, 0
25, 58980, Note_on_c, 9, 56, 80
25, 59010, Note_on_c, 9, 56, 0
25, 59010, Note_on_c, 9, 56, 80
25, 59040, Note_on_c, 9, 56, 0
25, 59400, Note_on_c, 9, 56, 80
25, 59430, Note_on_c, 9, 56, 0
25, 59430, Note_on_c, 9, 56, 80
25, 59460, Note_on_c, 9, 56, 0
25, 59460, Note_on_c, 9, 56, 80
25, 59490, Note_on_c, 9, 56, 0
25, 59490, Note_on_c, 9, 56, 80
25, 59520, Note_on_c, 9, 56, 0
25, 59880, Note_on_c, 9, 56, 80
25, 59910, Note_on_c, 9, 56, 0
25, 59910, Note_on_c, 9, 56, 80
25, 59940, Note_on_c, 9, 56, 0
25, 59940, Note_on_c, 9, 56, 80
25, 59970, Note_on_c, 9, 56, 0
25, 59970, Note_on_c, 9, 56, 80
25, 60000, Note_on_c, 9, 56, 0
25, 60360, Note_on_c, 9, 56, 80
25, 60390, Note_on_c, 9, 56, 0
25, 60390, Note_on_c, 9, 56, 80
25, 60420, Note_on_c, 9, 56, 0
25, 60420, Note_on_c, 9, 56, 80
25, 60450, Note_on_c, 9, 56, 0
25, 60450, Note_on_c, 9, 56, 80
25, 60480, Note_on_c, 9, 56, 0
25, 60840, Note_on_c, 9, 56, 80
25, 60870, Note_on_c, 9, 56, 0
25, 60870, Note_on_c, 9, 56, 80
25, 60900, Note_on_c, 9, 56, 0
25, 60900, Note_on_c, 9, 56, 80
25, 60930, Note_on_c, 9, 56, 0
25, 60930, Note_on_c, 9, 56, 80
25, 60960, Note_on_c, 9, 56, 0
25, 61320, Note_on_c, 9, 56, 80
25, 61350, Note_on_c, 9, 56, 0
25, 61350, Note_on_c, 9, 56, 80
25, 61380, Note_on_c, 9, 56, 0
25, 61380, Note_on_c, 9, 56, 80
25, 61410, Note_on_c, 9, 56, 0
25, 61410, Note_on_c, 9, 56, 80
25, 61440, Note_on_c, 9, 56, 0
25, 61800, Note_on_c, 9, 56, 80
25, 61830, Note_on_c, 9, 56, 0
25, 61830, Note_on_c, 9, 56, 80
25, 61860, Note_on_c, 9, 56, 0
25, 61860, Note_on_c, 9, 56, 80
25, 61890, Note_on_c, 9, 56, 0
25, 61890, Note_on_c, 9, 56, 80
25, 61920, Note_on_c, 9, 56, 0
25, 62280, Note_on_c, 9, 56, 80
25, 62310, Note_on_c, 9, 56, 0
25, 62310, Note_on_c, 9, 56, 80
25, 62340, Note_on_c, 9, 56, 0
25, 62340, Note_on_c, 9, 56, 80
25, 62370, Note_on_c, 9, 56, 0
25, 62370, Note_on_c, 9, 56, 80
25, 62400, Note_on_c, 9, 56, 0
25, 62760, Note_on_c, 9, 56, 80
25, 62790, Note_on_c, 9, 56, 0
25, 62790, Note_on_c, 9, 56, 80
25, 62820, Note_on_c, 9, 56, 0
25, 62820, Note_on_c, 9, 56, 80
25, 62850, Note_on_c, 9, 56, 0
25, 62850, Note_on_c, 9, 56, 80
25, 62880, Note_on_c, 9, 56, 0
25, 63240, Note_on_c, 9, 56, 80
25, 63270, Note_on_c, 9, 56, 0
25, 63270, Note_on_c, 9, 56, 80
25, 63300, Note_on_c, 9, 56, 0
25, 63300, Note_on_c, 9, 56, 80
25, 63330, Note_on_c, 9, 56, 0
25, 63330, Note_on_c, 9, 56, 80
25, 63360, Note_on_c, 9, 56, 0
25, 63720, Note_on_c, 9, 56, 80
25, 63750, Note_on_c, 9, 56, 0
25, 63750, Note_on_c, 9, 56, 80
25, 63780, Note_on_c, 9, 56, 0
25, 63780, Note_on_c, 9, 56, 80
25, 63810, Note_on_c, 9, 56, 0
25, 63810, Note_on_c, 9, 56, 80
25, 63840, Note_on_c, 9, 56, 0
25, 64200, Note_on_c, 9, 56, 80
25, 64230, Note_on_c, 9, 56, 0
25, 64230, Note_on_c, 9, 56, 80
25, 64260, Note_on_c, 9, 56, 0
25, 64260, Note_on_c, 9, 56, 80
25, 64290, Note_on_c, 9, 56, 0
25, 64290, Note_on_c, 9, 56, 80
25, 64320, Note_on_c, 9, 56, 0
25, 64680, Note_on_c, 9, 56, 80
25, 64710, Note_on_c, 9, 56, 0
25, 64710, Note_on_c, 9, 56, 80
25, 64740, Note_on_c, 9, 56, 0
25, 64740, Note_on_c, 9, 56, 80
25, 64770, Note_on_c, 9, 56, 0
25, 64770, Note_on_c, 9, 56, 80
25, 64800, Note_on_c, 9, 56, 0
25, 65160, Note_on_c, 9, 56, 80
25, 65190, Note_on_c, 9, 56, 0
25, 65190, Note_on_c, 9, 56, 80
25, 65220, Note_on_c, 9, 56, 0
25, 65220, Note_on_c, 9, 56, 80
25, 65250, Note_on_c, 9, 56, 0
25, 65250, Note_on_c, 9, 56, 80
25, 65280, Note_on_c, 9, 56, 0
25, 65640, Note_on_c, 9, 56, 80
25, 65670, Note_on_c, 9, 56, 0
25, 65670, Note_on_c, 9, 56, 80
25, 65700, Note_on_c, 9, 56, 0
25, 65700, Note_on_c, 9, 56, 80
25, 65730, Note_on_c, 9, 56, 0
25, 65730, Note_on_c, 9, 56, 80
25, 65760, Note_on_c, 9, 56, 0
25, 66120, Note_on_c, 9, 56, 80
25, 66150, Note_on_c, 9, 56, 0
25, 66150, Note_on_c, 9, 56, 80
25, 66180, Note_on_c, 9, 56, 0
25, 66180, Note_on_c, 9, 56, 80
25, 66210, Note_on_c, 9, 56, 0
25, 66210, Note_on_c, 9, 56, 80
25, 66240, Note_on_c, 9, 56, 0
25, 66600, Note_on_c, 9, 56, 80
25, 66630, Note_on_c, 9, 56, 0
25, 66630, Note_on_c, 9, 56, 80
25, 66660, Note_on_c, 9, 56, 0
25, 66660, Note_on_c, 9, 56, 80
25, 66690, Note_on_c, 9, 56, 0
25, 66690, Note_on_c, 9, 56, 80
25, 66720, Note_on_c, 9, 56, 0
25, 67080, Note_on_c, 9, 56, 80
25, 67110, Note_on_c, 9, 56, 0
25, 67110, Note_on_c, 9, 56, 80
25, 67140, Note_on_c, 9, 56, 0
25, 67140, Note_on_c, 9, 56, 80
25, 67170, Note_on_c, 9, 56, 0
25, 67170, Note_on_c, 9, 56, 80
25, 67200, Note_on_c, 9, 56, 0
25, 67560, Note_on_c, 9, 56, 80
25, 67590, Note_on_c, 9, 56, 0
25, 67590, Note_on_c, 9, 56, 80
25, 67620, Note_on_c, 9, 56, 0
25, 67620, Note_on_c, 9, 56, 80
25, 67650, Note_on_c, 9, 56, 0
25, 67650, Note_on_c, 9, 56, 80
25, 67680, Note_on_c, 9, 56, 0
25, 68040, Note_on_c, 9, 56, 80
25, 68070, Note_on_c, 9, 56, 0
25, 68070, Note_on_c, 9, 56, 80
25, 68100, Note_on_c, 9, 56, 0
25, 68100, Note_on_c, 9, 56, 80
25, 68130, Note_on_c, 9, 56, 0
25, 68130, Note_on_c, 9, 56, 80
25, 68160, Note_on_c, 9, 56, 0
25, 68520, Note_on_c, 9, 56, 80
25, 68550, Note_on_c, 9, 56, 0
25, 68550, Note_on_c, 9, 56, 80
25, 68580, Note_on_c, 9, 56, 0
25, 68580, Note_on_c, 9, 56, 80
25, 68610, Note_on_c, 9, 56, 0
25, 68610, Note_on_c, 9, 56, 80
25, 68640, Note_on_c, 9, 56, 0
25, 69000, Note_on_c, 9, 56, 80
25, 69030, Note_on_c, 9, 56, 0
25, 69030, Note_on_c, 9, 56, 80
25, 69060, Note_on_c, 9, 56, 0
25, 69060, Note_on_c, 9, 56, 80
25, 69090, Note_on_c, 9, 56, 0
25, 69090, Note_on_c, 9, 56, 80
25, 69120, Note_on_c, 9, 56, 0
25, 69480, Note_on_c, 9, 56, 80
25, 69510, Note_on_c, 9, 56, 0
25, 69510, Note_on_c, 9, 56, 80
25, 69540, Note_on_c, 9, 56, 0
25, 69540, Note_on_c, 9, 56, 80
25, 69570, Note_on_c, 9, 56, 0
25, 69570, Note_on_c, 9, 56, 80
25, 69600, Note_on_c, 9, 56, 0
25, 69960, Note_on_c, 9, 56, 80
25, 69990, Note_on_c, 9, 56, 0
25, 69990, Note_on_c, 9, 56, 80
25, 70020, Note_on_c, 9, 56, 0
25, 70020, Note_on_c, 9, 56, 80
25, 70050, Note_on_c, 9, 56, 0
25, 70050, Note_on_c, 9, 56, 80
25, 70080, Note_on_c, 9, 56, 0
25, 70440, Note_on_c, 9, 56, 80
25, 70470, Note_on_c, 9, 56, 0
25, 70470, Note_on_c, 9, 56, 80
25, 70500, Note_on_c, 9, 56, 0
25, 70500, Note_on_c, 9, 56, 80
25, 70530, Note_on_c, 9, 56, 0
25, 70530, Note_on_c, 9, 56, 80
25, 70560, Note_on_c, 9, 56, 0
25, 70920, Note_on_c, 9, 56, 80
25, 70950, Note_on_c, 9, 56, 0
25, 70950, Note_on_c, 9, 56, 80
25, 70980, Note_on_c, 9, 56, 0
25, 70980, Note_on_c, 9, 56, 80
25, 71010, Note_on_c, 9, 56, 0
25, 71010, Note_on_c, 9, 56, 80
25, 71040, Note_on_c, 9, 56, 0
25, 71400, Note_on_c, 9, 56, 80
25, 71430, Note_on_c, 9, 56, 0
25, 71430, Note_on_c, 9, 56, 80
25, 71460, Note_on_c, 9, 56, 0
25, 71460, Note_on_c, 9, 56, 80
25, 71490, Note_on_c, 9, 56, 0
25, 71490, Note_on_c, 9, 56, 80
25, 71520, Note_on_c, 9, 56, 0
25, 71880, Note_on_c, 9, 56, 80
25, 71910, Note_on_c, 9, 56, 0
25, 71910, Note_on_c, 9, 56, 80
25, 71940, Note_on_c, 9, 56, 0
25, 71940, Note_on_c, 9, 56, 80
25, 71970, Note_on_c, 9, 56, 0
25, 71970, Note_on_c, 9, 56, 80
25, 72000, Note_on_c, 9, 56, 0
25, 72360, Note_on_c, 9, 56, 80
25, 72390, Note_on_c, 9, 56, 0
25, 72390, Note_on_c, 9, 56, 80
25, 72420, Note_on_c, 9, 56, 0
25, 72420, Note_on_c, 9, 56, 80
25, 72450, Note_on_c, 9, 56, 0
25, 72450, Note_on_c, 9, 56, 80
25, 72480, Note_on_c, 9, 56, 0
25, 72840, Note_on_c, 9, 56, 80
25, 72870, Note_on_c, 9, 56, 0
25, 72870, Note_on_c, 9, 56, 80
25, 72900, Note_on_c, 9, 56, 0
25, 72900, Note_on_c, 9, 56, 80
25, 72930, Note_on_c, 9, 56, 0
25, 72930, Note_on_c, 9, 56, 80
25, 72960, Note_on_c, 9, 56, 0
25, 73320, Note_on_c, 9, 56, 80
25, 73350, Note_on_c, 9, 56, 0
25, 73350, Note_on_c, 9, 56, 80
25, 73380, Note_on_c, 9, 56, 0
25, 73380, Note_on_c, 9, 56, 80
25, 73410, Note_on_c, 9, 56, 0
25, 73410, Note_on_c, 9, 56, 80
25, 73440, Note_on_c, 9, 56, 0
25, 73800, Note_on_c, 9, 56, 80
25, 73830, Note_on_c, 9, 56, 0
25, 73830, Note_on_c, 9, 56, 80
25, 73860, Note_on_c, 9, 56, 0
25, 73860, Note_on_c, 9, 56, 80
25, 73890, Note_on_c, 9, 56, 0
25, 73890, Note_on_c, 9, 56, 80
25, 73920, Note_on_c, 9, 56, 0
25, 74280, Note_on_c, 9, 56, 80
25, 74310, Note_on_c, 9, 56, 0
25, 74310, Note_on_c, 9, 56, 80
25, 74340, Note_on_c, 9, 56, 0
25, 74340, Note_on_c, 9, 56, 80
25, 74370, Note_on_c, 9, 56, 0
25, 74370, Note_on_c, 9, 56, 80
25, 74400, Note_on_c, 9, 56, 0
25, 74760, Note_on_c, 9, 56, 80
25, 74790, Note_on_c, 9, 56, 0
25, 74790, Note_on_c, 9, 56, 80
25, 74820, Note_on_c, 9, 56, 0
25, 74820, Note_on_c, 9, 56, 80
25, 74850, Note_on_c, 9, 56, 0
25, 74850, Note_on_c, 9, 56, 80
25, 74880, Note_on_c, 9, 56, 0
25, 75240, Note_on_c, 9, 56, 80
25, 75270, Note_on_c, 9, 56, 0
25, 75270, Note_on_c, 9, 56, 80
25, 75300, Note_on_c, 9, 56, 0
25, 75300, Note_on_c, 9, 56, 80
25, 75330, Note_on_c, 9, 56, 0
25, 75330, Note_on_c, 9, 56, 80
25, 75360, Note_on_c, 9, 56, 0
25, 75720, Note_on_c, 9, 56, 80
25, 75750, Note_on_c, 9, 56, 0
25, 75750, Note_on_c, 9, 56, 80
25, 75780, Note_on_c, 9, 56, 0
25, 75780, Note_on_c, 9, 56, 80
25, 75810, Note_on_c, 9, 56, 0
25, 75810, Note_on_c, 9, 56, 80
25, 75840, Note_on_c, 9, 56, 0
25, 76200, Note_on_c, 9, 56, 80
25, 76230, Note_on_c, 9, 56, 0
25, 76230, Note_on_c, 9, 56, 80
25, 76260, Note_on_c, 9, 56, 0
25, 76260, Note_on_c, 9, 56, 80
25, 76290, Note_on_c, 9, 56, 0
25, 76290, Note_on_c, 9, 56, 80
25, 76320, Note_on_c, 9, 56, 0
25, 76680, Note_on_c, 9, 56, 80
25, 76710, Note_on_c, 9, 56, 0
25, 76710, Note_on_c, 9, 56, 80
25, 76740, Note_on_c, 9, 56, 0
25, 76740, Note_on_c, 9, 56, 80
25, 76770, Note_on_c, 9, 56, 0
25, 76770, Note_on_c, 9, 56, 80
25, 76800, Note_on_c, 9, 56, 0
25, 77160, Note_on_c, 9, 56, 80
25, 77190, Note_on_c, 9, 56, 0
25, 77190, Note_on_c, 9, 56, 80
25, 77220, Note_on_c, 9, 56, 0
25, 77220, Note_on_c, 9, 56, 80
25, 77250, Note_on_c, 9, 56, 0
25, 77250, Note_on_c, 9, 56, 80
25, 77280, Note_on_c, 9, 56, 0
25, 77640, Note_on_c, 9, 56, 80
25, 77670, Note_on_c, 9, 56, 0
25, 77670, Note_on_c, 9, 56, 80
25, 77700, Note_on_c, 9, 56, 0
25, 77700, Note_on_c, 9, 56, 80
25, 77730, Note_on_c, 9, 56, 0
25, 77730, Note_on_c, 9, 56, 80
25, 77760, Note_on_c, 9, 56, 0
25, 78120, Note_on_c, 9, 56, 80
25, 78150, Note_on_c, 9, 56, 0
25, 78150, Note_on_c, 9, 56, 80
25, 78180, Note_on_c, 9, 56, 0
25, 78180, Note_on_c, 9, 56, 80
25, 78210, Note_on_c, 9, 56, 0
25, 78210, Note_on_c, 9, 56, 80
25, 78240, Note_on_c, 9, 56, 0
25, 78600, Note_on_c, 9, 56, 80
25, 78630, Note_on_c, 9, 56, 0
25, 78630, Note_on_c, 9, 56, 80
25, 78660, Note_on_c, 9, 56, 0
25, 78660, Note_on_c, 9, 56, 80
25, 78690, Note_on_c, 9, 56, 0
25, 78690, Note_on_c, 9, 56, 80
25, 78720, Note_on_c, 9, 56, 0
25, 79080, Note_on_c, 9, 56, 80
25, 79110, Note_on_c, 9, 56, 0
25, 79110, Note_on_c, 9, 56, 80
25, 79140, Note_on_c, 9, 56, 0
25, 79140, Note_on_c, 9, 56, 80
25, 79170, Note_on_c, 9, 56, 0
25, 79170, Note_on_c, 9, 56, 80
25, 79200, Note_on_c, 9, 56, 0
25, 79560, Note_on_c, 9, 56, 80
25, 79590, Note_on_c, 9, 56, 0
25, 79590, Note_on_c, 9, 56, 80
25, 79620, Note_on_c, 9, 56, 0
25, 79620, Note_on_c, 9, 56, 80
25, 79650, Note_on_c, 9, 56, 0
25, 79650, Note_on_c, 9, 56, 80
25, 79680, Note_on_c, 9, 56, 0
25, 80040, Note_on_c, 9, 56, 80
25, 80070, Note_on_c, 9, 56, 0
25, 80070, Note_on_c, 9, 56, 80
25, 80100, Note_on_c, 9, 56, 0
25, 80100, Note_on_c, 9, 56, 80
25, 80130, Note_on_c, 9, 56, 0
25, 80130, Note_on_c, 9, 56, 80
25, 80160, Note_on_c, 9, 56, 0
25, 80520, Note_on_c, 9, 56, 80
25, 80550, Note_on_c, 9, 56, 0
25, 80550, Note_on_c, 9, 56, 80
25, 80580, Note_on_c, 9, 56, 0
25, 80580, Note_on_c, 9, 56, 80
25, 80610, Note_on_c, 9, 56, 0
25, 80610, Note_on_c, 9, 56, 80
25, 80640, Note_on_c, 9, 56, 0
25, 81000, Note_on_c, 9, 56, 80
25, 81030, Note_on_c, 9, 56, 0
25, 81030, Note_on_c, 9, 56, 80
25, 81060, Note_on_c, 9, 56, 0
25, 81060, Note_on_c, 9, 56, 80
25, 81090, Note_on_c, 9, 56, 0
25, 81090, Note_on_c, 9, 56, 80
25, 81120, Note_on_c, 9, 56, 0
25, 81480, Note_on_c, 9, 56, 80
25, 81510, Note_on_c, 9, 56, 0
25, 81510, Note_on_c, 9, 56, 80
25, 81540, Note_on_c, 9, 56, 0
25, 81540, Note_on_c, 9, 56, 80
25, 81570, Note_on_c, 9, 56, 0
25, 81570, Note_on_c, 9, 56, 80
25, 81600, Note_on_c, 9, 56, 0
25, 81960, Note_on_c, 9, 56, 80
25, 81990, Note_on_c, 9, 56, 0
25, 81990, Note_on_c, 9, 56, 80
25, 82020, Note_on_c, 9, 56, 0
25, 82020, Note_on_c, 9, 56, 80
25, 82050, Note_on_c, 9, 56, 0
25, 82050, Note_on_c, 9, 56, 80
25, 82080, Note_on_c, 9, 56, 0
25, 82440, Note_on_c, 9, 56, 80
25, 82470, Note_on_c, 9, 56, 0
25, 82470, Note_on_c, 9, 56, 80
25, 82500, Note_on_c, 9, 56, 0
25, 82500, Note_on_c, 9, 56, 80
25, 82530, Note_on_c, 9, 56, 0
25, 82530, Note_on_c, 9, 56, 80
25, 82560, Note_on_c, 9, 56, 0
25, 82920, Note_on_c, 9, 56, 80
25, 82950, Note_on_c, 9, 56, 0
25, 82950, Note_on_c, 9, 56, 80
25, 82980, Note_on_c, 9, 56, 0
25, 82980, Note_on_c, 9, 56, 80
25, 83010, Note_on_c, 9, 56, 0
25, 83010, Note_on_c, 9, 56, 80
25, 83040, Note_on_c, 9, 56, 0
25, 83400, Note_on_c, 9, 56, 80
25, 83430, Note_on_c, 9, 56, 0
25, 83430, Note_on_c, 9, 56, 80
25, 83460, Note_on_c, 9, 56, 0
25, 83460, Note_on_c, 9, 56, 80
25, 83490, Note_on_c, 9, 56, 0
25, 83490, Note_on_c, 9, 56, 80
25, 83520, Note_on_c, 9, 56, 0
25, 83880, Note_on_c, 9, 56, 80
25, 83910, Note_on_c, 9, 56, 0
25, 83910, Note_on_c, 9, 56, 80
25, 83940, Note_on_c, 9, 56, 0
25, 83940, Note_on_c, 9, 56, 80
25, 83970, Note_on_c, 9, 56, 0
25, 83970, Note_on_c, 9, 56, 80
25, 84000, Note_on_c, 9, 56, 0
25, 84360, Note_on_c, 9, 56, 80
25, 84390, Note_on_c, 9, 56, 0
25, 84390, Note_on_c, 9, 56, 80
25, 84420, Note_on_c, 9, 56, 0
25, 84420, Note_on_c, 9, 56, 80
25, 84450, Note_on_c, 9, 56, 0
25, 84450, Note_on_c, 9, 56, 80
25, 84480, Note_on_c, 9, 56, 0
25, 84840, Note_on_c, 9, 56, 80
25, 84870, Note_on_c, 9, 56, 0
25, 84870, Note_on_c, 9, 56, 80
25, 84900, Note_on_c, 9, 56, 0
25, 84900, Note_on_c, 9, 56, 80
25, 84930, Note_on_c, 9, 56, 0
25, 84930, Note_on_c, 9, 56, 80
25, 84960, Note_on_c, 9, 56, 0
25, 85320, Note_on_c, 9, 56, 80
25, 85350, Note_on_c, 9, 56, 0
25, 85350, Note_on_c, 9, 56, 80
25, 85380, Note_on_c, 9, 56, 0
25, 85380, Note_on_c, 9, 56, 80
25, 85410, Note_on_c, 9, 56, 0
25, 85410, Note_on_c, 9, 56, 80
25, 85440, Note_on_c, 9, 56, 0
25, 85800, Note_on_c, 9, 56, 80
25, 85830, Note_on_c, 9, 56, 0
25, 85830, Note_on_c, 9, 56, 80
25, 85860, Note_on_c, 9, 56, 0
25, 85860, Note_on_c, 9, 56, 80
25, 85890, Note_on_c, 9, 56, 0
25, 85890, Note_on_c, 9, 56, 80
25, 85920, Note_on_c, 9, 56, 0
25, 86280, Note_on_c, 9, 56, 80
25, 86310, Note_on_c, 9, 56, 0
25, 86310, Note_on_c, 9, 56, 80
25, 86340, Note_on_c, 9, 56, 0
25, 86340, Note_on_c, 9, 56, 80
25, 86370, Note_on_c, 9, 56, 0
25, 86370, Note_on_c, 9, 56, 80
25, 86400, Note_on_c, 9, 56, 0
25, 86760, Note_on_c, 9, 56, 80
25, 86790, Note_on_c, 9, 56, 0
25, 86790, Note_on_c, 9, 56, 80
25, 86820, Note_on_c, 9, 56, 0
25, 86820, Note_on_c, 9, 56, 80
25, 86850, Note_on_c, 9, 56, 0
25, 86850, Note_on_c, 9, 56, 80
25, 86880, Note_on_c, 9, 56, 0
25, 87240, Note_on_c, 9, 56, 80
25, 87270, Note_on_c, 9, 56, 0
25, 87270, Note_on_c, 9, 56, 80
25, 87300, Note_on_c, 9, 56, 0
25, 87300, Note_on_c, 9, 56, 80
25, 87330, Note_on_c, 9, 56, 0
25, 87330, Note_on_c, 9, 56, 80
25, 87360, Note_on_c, 9, 56, 0
25, 87720, Note_on_c, 9, 56, 80
25, 87750, Note_on_c, 9, 56, 0
25, 87750, Note_on_c, 9, 56, 80
25, 87780, Note_on_c, 9, 56, 0
25, 87780, Note_on_c, 9, 56, 80
25, 87810, Note_on_c, 9, 56, 0
25, 87810, Note_on_c, 9, 56, 80
25, 87840, Note_on_c, 9, 56, 0
25, 88200, Note_on_c, 9, 56, 80
25, 88230, Note_on_c, 9, 56, 0
25, 88230, Note_on_c, 9, 56, 80
25, 88260, Note_on_c, 9, 56, 0
25, 88260, Note_on_c, 9, 56, 80
25, 88290, Note_on_c, 9, 56, 0
25, 88290, Note_on_c, 9, 56, 80
25, 88320, Note_on_c, 9, 56, 0
25, 88680, Note_on_c, 9, 56, 80
25, 88710, Note_on_c, 9, 56, 0
25, 88710, Note_on_c, 9, 56, 80
25, 88740, Note_on_c, 9, 56, 0
25, 88740, Note_on_c, 9, 56, 80
25, 88770, Note_on_c, 9, 56, 0
25, 88770, Note_on_c, 9, 56, 80
25, 88800, Note_on_c, 9, 56, 0
25, 89160, Note_on_c, 9, 56, 80
25, 89190, Note_on_c, 9, 56, 0
25, 89190, Note_on_c, 9, 56, 80
25, 89220, Note_on_c, 9, 56, 0
25, 89220, Note_on_c, 9, 56, 80
25, 89250, Note_on_c, 9, 56, 0
25, 89250, Note_on_c, 9, 56, 80
25, 89280, Note_on_c, 9, 56, 0
25, 89640, Note_on_c, 9, 56, 80
25, 89670, Note_on_c, 9, 56, 0
25, 89670, Note_on_c, 9, 56, 80
25, 89700, Note_on_c, 9, 56, 0
25, 89700, Note_on_c, 9, 56, 80
25, 89730, Note_on_c, 9, 56, 0
25, 89730, Note_on_c, 9, 56, 80
25, 89760, Note_on_c, 9, 56, 0
25, 90120, Note_on_c, 9, 56, 80
25, 90150, Note_on_c, 9, 56, 0
25, 90150, Note_on_c, 9, 56, 80
25, 90180, Note_on_c, 9, 56, 0
25, 90180, Note_on_c, 9, 56, 80
25, 90210, Note_on_c, 9, 56, 0
25, 90210, Note_on_c, 9, 56, 80
25, 90240, Note_on_c, 9, 56, 0
25, 90600, Note_on_c, 9, 56, 80
25, 90630, Note_on_c, 9, 56, 0
25, 90630, Note_on_c, 9, 56, 80
25, 90660, Note_on_c, 9, 56, 0
25, 90660, Note_on_c, 9, 56, 80
25, 90690, Note_on_c, 9, 56, 0
25, 90690, Note_on_c, 9, 56, 80
25, 90720, Note_on_c, 9, 56, 0
25, 91080, Note_on_c, 9, 56, 80
25, 91110, Note_on_c, 9, 56, 0
25, 91110, Note_on_c, 9, 56, 80
25, 91140, Note_on_c, 9, 56, 0
25, 91140, Note_on_c, 9, 56, 80
25, 91170, Note_on_c, 9, 56, 0
25, 91170, Note_on_c, 9, 56, 80
25, 91200, Note_on_c, 9, 56, 0
25, 91560, Note_on_c, 9, 56, 80
25, 91590, Note_on_c, 9, 56, 0
25, 91590, Note_on_c, 9, 56, 80
25, 91620, Note_on_c, 9, 56, 0
25, 91620, Note_on_c, 9, 56, 80
25, 91650, Note_on_c, 9, 56, 0
25, 91650, Note_on_c, 9, 56, 80
25, 91680, Note_on_c, 9, 56, 0
25, 92040, Note_on_c, 9, 56, 80
25, 92070, Note_on_c, 9, 56, 0
25, 92070, Note_on_c, 9, 56, 80
25, 92100, Note_on_c, 9, 56, 0
25, 92100, Note_on_c, 9, 56, 80
25, 92130, Note_on_c, 9, 56, 0
25, 92130, Note_on_c, 9, 56, 80
25, 92160, Note_on_c, 9, 56, 0
25, 92520, Note_on_c, 9, 56, 80
25, 92550, Note_on_c, 9, 56, 0
25, 92550, Note_on_c, 9, 56, 80
25, 92580, Note_on_c, 9, 56, 0
25, 92580, Note_on_c, 9, 56, 80
25, 92610, Note_on_c, 9, 56, 0
25, 92610, Note_on_c, 9, 56, 80
25, 92640, Note_on_c, 9, 56, 0
25, 93000, Note_on_c, 9, 56, 80
25, 93030, Note_on_c, 9, 56, 0
25, 93030, Note_on_c, 9, 56, 80
25, 93060, Note_on_c, 9, 56, 0
25, 93060, Note_on_c, 9, 56, 80
25, 93090, Note_on_c, 9, 56, 0
25, 93090, Note_on_c, 9, 56, 80
25, 93120, Note_on_c, 9, 56, 0
25, 93480, Note_on_c, 9, 56, 80
25, 93510, Note_on_c, 9, 56, 0
25, 93510, Note_on_c, 9, 56, 80
25, 93540, Note_on_c, 9, 56, 0
25, 93540, Note_on_c, 9, 56, 80
25, 93570, Note_on_c, 9, 56, 0
25, 93570, Note_on_c, 9, 56, 80
25, 93600, Note_on_c, 9, 56, 0
25, 93960, Note_on_c, 9, 56, 80
25, 93990, Note_on_c, 9, 56, 0
25, 93990, Note_on_c, 9, 56, 80
25, 94020, Note_on_c, 9, 56, 0
25, 94020, Note_on_c, 9, 56, 80
25, 94050, Note_on_c, 9, 56, 0
25, 94050, Note_on_c, 9, 56, 80
25, 94080, Note_on_c, 9, 56, 0
25, 94440, Note_on_c, 9, 56, 80
25, 94470, Note_on_c, 9, 56, 0
25, 94470, Note_on_c, 9, 56, 80
25, 94500, Note_on_c, 9, 56, 0
25, 94500, Note_on_c, 9, 56, 80
25, 94530, Note_on_c, 9, 56, 0
25, 94530, Note_on_c, 9, 56, 80
25, 94560, Note_on_c, 9, 56, 0
25, 94920, Note_on_c, 9, 56, 80
25, 94950, Note_on_c, 9, 56, 0
25, 94950, Note_on_c, 9, 56, 80
25, 94980, Note_on_c, 9, 56, 0
25, 94980, Note_on_c, 9, 56, 80
25, 95010, Note_on_c, 9, 56, 0
25, 95010, Note_on_c, 9, 56, 80
25, 95040, Note_on_c, 9, 56, 0
25, 95400, Note_on_c, 9, 56, 80
25, 95430, Note_on_c, 9, 56, 0
25, 95430, Note_on_c, 9, 56, 80
25, 95460, Note_on_c, 9, 56, 0
25, 95460, Note_on_c, 9, 56, 80
25, 95490, Note_on_c, 9, 56, 0
25, 95490, Note_on_c, 9, 56, 80
25, 95520, Note_on_c, 9, 56, 0
25, 95880, Note_on_c, 9, 56, 80
25, 95910, Note_on_c, 9, 56, 0
25, 95910, Note_on_c, 9, 56, 80
25, 95940, Note_on_c, 9, 56, 0
25, 95940, Note_on_c, 9, 56, 80
25, 95970, Note_on_c, 9, 56, 0
25, 95970, Note_on_c, 9, 56, 80
25, 96000, Note_on_c, 9, 56, 0
25, 96360, Note_on_c, 9, 56, 80
25, 96390, Note_on_c, 9, 56, 0
25, 96390, Note_on_c, 9, 56, 80
25, 96420, Note_on_c, 9, 56, 0
25, 96420, Note_on_c, 9, 56, 80
25, 96450, Note_on_c, 9, 56, 0
25, 96450, Note_on_c, 9, 56, 80
25, 96480, Note_on_c, 9, 56, 0
25, 96840, Note_on_c, 9, 56, 80
25, 96870, Note_on_c, 9, 56, 0
25, 96870, Note_on_c, 9, 56, 80
25, 96900, Note_on_c, 9, 56, 0
25, 96900, Note_on_c, 9, 56, 80
25, 96930, Note_on_c, 9, 56, 0
25, 96930, Note_on_c, 9, 56, 80
25, 96960, Note_on_c, 9, 56, 0
25, 97320, Note_on_c, 9, 56, 80
25, 97350, Note_on_c, 9, 56, 0
25, 97350, Note_on_c, 9, 56, 80
25, 97380, Note_on_c, 9, 56, 0
25, 97380, Note_on_c, 9, 56, 80
25, 97410, Note_on_c, 9, 56, 0
25, 97410, Note_on_c, 9, 56, 80
25, 97440, Note_on_c, 9, 56, 0
25, 97800, Note_on_c, 9, 56, 80
25, 97830, Note_on_c, 9, 56, 0
25, 97830, Note_on_c, 9, 56, 80
25, 97860, Note_on_c, 9, 56, 0
25, 97860, Note_on_c, 9, 56, 80
25, 97890, Note_on_c, 9, 56, 0
25, 97890, Note_on_c, 9, 56, 80
25, 97920, Note_on_c, 9, 56, 0
25, 98280, Note_on_c, 9, 56, 80
25, 98310, Note_on_c, 9, 56, 0
25, 98310, Note_on_c, 9, 56, 80
25, 98340, Note_on_c, 9, 56, 0
25, 98340, Note_on_c, 9, 56, 80
25, 98370, Note_on_c, 9, 56, 0
25, 98370, Note_on_c, 9, 56, 80
25, 98400, Note_on_c, 9, 56, 0
25, 98760, Note_on_c, 9, 56, 80
25, 98790, Note_on_c, 9, 56, 0
25, 98790, Note_on_c, 9, 56, 80
25, 98820, Note_on_c, 9, 56, 0
25, 98820, Note_on_c, 9, 56, 80
25, 98850, Note_on_c, 9, 56, 0
25, 98850, Note_on_c, 9, 56, 80
25, 98880, Note_on_c, 9, 56, 0
25, 99240, Note_on_c, 9, 56, 80
25, 99270, Note_on_c, 9, 56, 0
25, 99270, Note_on_c, 9, 56, 80
25, 99300, Note_on_c, 9, 56, 0
25, 99300, Note_on_c, 9, 56, 80
25, 99330, Note_on_c, 9, 56, 0
25, 99330, Note_on_c, 9, 56, 80
25, 99360, Note_on_c, 9, 56, 0
25, 99720, Note_on_c, 9, 56, 80
25, 99750, Note_on_c, 9, 56, 0
25, 99750, Note_on_c, 9, 56, 80
25, 99780, Note_on_c, 9, 56, 0
25, 99780, Note_on_c, 9, 56, 80
25, 99810, Note_on_c, 9, 56, 0
25, 99810, Note_on_c, 9, 56, 80
25, 99840, Note_on_c, 9, 56, 0
25, 100200, Note_on_c, 9, 56, 80
25, 100230, Note_on_c, 9, 56, 0
25, 100230, Note_on_c, 9, 56, 80
25, 100260, Note_on_c, 9, 56, 0
25, 100260, Note_on_c, 9, 56, 80
25, 100290, Note_on_c, 9, 56, 0
25, 100290, Note_on_c, 9, 56, 80
25, 100320, Note_on_c, 9, 56, 0
25, 100320, End_track
26, 0, Start_track
26, 0, MIDI_port, 3
26, 0, Title_t, "~~~~~~~~~~~~~~~~~~~~~"
26, 0, End_track
27, 0, Start_track
27, 0, MIDI_port, 0
27, 0, Title_t, """Happy Song"""
27, 0, End_track
28, 0, Start_track
28, 0, MIDI_port, 0
28, 0, Title_t, "Boney M."
28, 0, End_track
29, 0, Start_track
29, 0, MIDI_port, 0
29, 0, Title_t, "Sequenced by:"
29, 0, End_track
30, 0, Start_track
30, 0, MIDI_port, 0
30, 0, Title_t, "Raphael Pungin"
30, 0, End_track
31, 0, Start_track
31, 0, MIDI_port, 0
31, 0, Title_t, "raphael@cnct.com"
31, 0, End_track
32, 0, Start_track
32, 0, MIDI_port, 0
32, 0, Title_t, "br326@cleveland.freenet.edu"
32, 0, End_track
0, 0, End_of_file
