0, 0, Header, 0, 1, 240
1, 0, Start_track
1, 0, Time_signature, 4, 2, 24, 8
1, 0, Tempo, 315789
1, 0, Program_c, 0, 25
1, 0, Control_c, 0, 7, 70
1, 0, Program_c, 11, 32
1, 0, Control_c, 11, 7, 127
1, 0, Program_c, 2, 26
1, 0, Control_c, 2, 7, 127
1, 0, Program_c, 3, 7
1, 0, Control_c, 3, 7, 127
1, 0, Program_c, 5, 16
1, 0, Control_c, 5, 7, 94
1, 0, Program_c, 6, 58
1, 0, Control_c, 6, 7, 127
1, 0, Program_c, 7, 57
1, 0, Control_c, 7, 7, 127
1, 0, Program_c, 9, 0
1, 0, Control_c, 9, 7, 127
1, 1677, Note_on_c, 3, 67, 87
1, 1680, Control_c, 3, 1, 0
1, 1680, Pitch_bend_c, 3, 8192
1, 1797, Note_off_c, 3, 67, 64
1, 1837, Note_on_c, 3, 67, 79
1, 1892, Note_off_c, 3, 67, 64
1, 1917, Note_on_c, 0, 60, 96
1, 1917, Note_on_c, 0, 55, 66
1, 1917, Control_c, 0, 1, 0
1, 1917, Pitch_bend_c, 0, 8192
1, 1917, Note_on_c, 3, 72, 104
1, 1920, Note_on_c, 0, 64, 95
1, 1920, Note_on_c, 11, 36, 114
1, 1920, Note_on_c, 9, 42, 113
1, 1920, Note_on_c, 9, 35, 91
1, 1920, Note_on_c, 9, 40, 85
1, 1922, Note_off_c, 9, 40, 64
1, 1922, Note_off_c, 9, 35, 64
1, 1922, Note_off_c, 9, 42, 64
1, 1922, Control_c, 11, 1, 0
1, 1922, Pitch_bend_c, 11, 8192
1, 1922, Note_on_c, 6, 79, 70
1, 1922, Note_on_c, 6, 72, 94
1, 1922, Note_on_c, 7, 64, 103
1, 1922, Control_c, 9, 1, 0
1, 1922, Pitch_bend_c, 9, 8192
1, 1925, Control_c, 6, 1, 0
1, 1925, Pitch_bend_c, 6, 8192
1, 1925, Control_c, 7, 1, 0
1, 1925, Pitch_bend_c, 7, 8192
1, 1952, Note_off_c, 7, 64, 64
1, 1967, Note_off_c, 6, 79, 64
1, 2002, Note_off_c, 6, 72, 64
1, 2040, Note_off_c, 0, 64, 64
1, 2057, Note_off_c, 0, 60, 64
1, 2062, Note_off_c, 0, 55, 64
1, 2067, Note_off_c, 11, 36, 64
1, 2120, Note_off_c, 3, 72, 64
1, 2157, Note_on_c, 3, 72, 93
1, 2292, Note_off_c, 3, 72, 64
1, 2320, Note_on_c, 3, 72, 81
1, 2385, Note_off_c, 3, 72, 64
1, 2400, Note_on_c, 3, 75, 107
1, 2542, Note_off_c, 3, 75, 64
1, 2562, Note_on_c, 3, 76, 102
1, 2680, Note_off_c, 3, 76, 64
1, 2800, Note_on_c, 3, 67, 80
1, 2862, Note_off_c, 3, 67, 64
1, 2877, Note_on_c, 6, 72, 92
1, 2877, Note_on_c, 6, 79, 70
1, 2877, Note_on_c, 7, 64, 108
1, 2880, Note_on_c, 0, 55, 82
1, 2880, Note_on_c, 0, 60, 99
1, 2880, Note_on_c, 11, 36, 116
1, 2880, Note_on_c, 3, 72, 107
1, 2880, Note_on_c, 9, 42, 110
1, 2880, Note_on_c, 9, 40, 91
1, 2880, Note_on_c, 9, 35, 89
1, 2882, Note_off_c, 9, 35, 64
1, 2882, Note_off_c, 9, 40, 64
1, 2882, Note_off_c, 9, 42, 64
1, 2882, Note_on_c, 0, 64, 98
1, 2910, Note_off_c, 7, 64, 64
1, 2927, Note_off_c, 6, 79, 64
1, 2965, Note_off_c, 6, 72, 64
1, 3015, Note_off_c, 0, 64, 64
1, 3025, Note_off_c, 0, 60, 64
1, 3025, Note_off_c, 0, 55, 64
1, 3027, Note_off_c, 11, 36, 64
1, 3065, Note_off_c, 3, 72, 64
1, 3117, Note_on_c, 3, 72, 85
1, 3242, Note_off_c, 3, 72, 64
1, 3277, Note_on_c, 3, 72, 74
1, 3357, Note_on_c, 3, 76, 112
1, 3370, Note_off_c, 3, 72, 64
1, 3525, Note_off_c, 3, 76, 64
1, 3837, Note_on_c, 0, 55, 67
1, 3837, Note_on_c, 7, 64, 109
1, 3840, Note_on_c, 0, 60, 96
1, 3840, Note_on_c, 0, 64, 99
1, 3840, Note_on_c, 11, 36, 119
1, 3840, Note_on_c, 3, 75, 116
1, 3840, Note_on_c, 9, 42, 107
1, 3840, Note_on_c, 9, 40, 91
1, 3840, Note_on_c, 9, 35, 89
1, 3842, Note_off_c, 9, 35, 64
1, 3842, Note_off_c, 9, 40, 64
1, 3842, Note_off_c, 9, 42, 64
1, 3842, Note_on_c, 6, 72, 98
1, 3842, Note_on_c, 6, 79, 73
1, 3885, Note_off_c, 6, 79, 64
1, 3900, Note_off_c, 7, 64, 64
1, 3905, Note_off_c, 6, 72, 64
1, 3950, Note_off_c, 3, 75, 64
1, 3952, Note_off_c, 0, 64, 64
1, 3970, Note_off_c, 0, 60, 64
1, 3975, Note_off_c, 0, 55, 64
1, 3987, Note_off_c, 11, 36, 64
1, 4002, Note_on_c, 3, 75, 67
1, 4040, Note_off_c, 3, 75, 64
1, 4080, Note_on_c, 3, 75, 81
1, 4195, Note_off_c, 3, 75, 64
1, 4242, Note_on_c, 3, 75, 79
1, 4287, Note_off_c, 3, 75, 64
1, 4322, Note_on_c, 3, 75, 89
1, 4427, Note_off_c, 3, 75, 64
1, 4480, Note_on_c, 3, 75, 73
1, 4537, Note_off_c, 3, 75, 64
1, 4562, Note_on_c, 3, 75, 79
1, 4675, Note_off_c, 3, 75, 64
1, 4720, Note_on_c, 3, 75, 78
1, 4770, Note_off_c, 3, 75, 64
1, 4802, Note_on_c, 3, 75, 101
1, 4802, Note_on_c, 7, 60, 122
1, 4910, Note_off_c, 3, 75, 64
1, 4962, Note_on_c, 3, 75, 84
1, 5015, Note_off_c, 3, 75, 64
1, 5035, Pitch_bend_c, 7, 8309
1, 5042, Note_on_c, 3, 75, 82
1, 5070, Pitch_bend_c, 7, 8426
1, 5082, Pitch_bend_c, 7, 8777
1, 5095, Pitch_bend_c, 7, 9011
1, 5120, Pitch_bend_c, 7, 9362
1, 5137, Note_off_c, 3, 75, 64
1, 5145, Pitch_bend_c, 7, 9479
1, 5157, Pitch_bend_c, 7, 9713
1, 5167, Pitch_bend_c, 7, 9947
1, 5180, Pitch_bend_c, 7, 10181
1, 5192, Pitch_bend_c, 7, 10415
1, 5197, Note_on_c, 3, 75, 82
1, 5217, Pitch_bend_c, 7, 10532
1, 5247, Note_off_c, 3, 75, 64
1, 5255, Pitch_bend_c, 7, 10766
1, 5267, Pitch_bend_c, 7, 10883
1, 5282, Note_on_c, 3, 75, 104
1, 5292, Pitch_bend_c, 7, 11117
1, 5330, Pitch_bend_c, 7, 11351
1, 5342, Pitch_bend_c, 7, 11585
1, 5367, Pitch_bend_c, 7, 11936
1, 5402, Pitch_bend_c, 7, 12053
1, 5430, Pitch_bend_c, 7, 12287
1, 5440, Note_on_c, 9, 40, 80
1, 5442, Note_off_c, 9, 40, 64
1, 5452, Pitch_bend_c, 7, 12521
1, 5465, Pitch_bend_c, 7, 12755
1, 5487, Note_off_c, 3, 75, 64
1, 5490, Pitch_bend_c, 7, 12989
1, 5517, Note_on_c, 3, 72, 91
1, 5520, Note_on_c, 9, 40, 84
1, 5522, Note_off_c, 9, 40, 64
1, 5527, Pitch_bend_c, 7, 13223
1, 5550, Pitch_bend_c, 7, 13340
1, 5590, Pitch_bend_c, 7, 13574
1, 5602, Pitch_bend_c, 7, 13691
1, 5615, Pitch_bend_c, 7, 13925
1, 5627, Pitch_bend_c, 7, 14042
1, 5640, Pitch_bend_c, 7, 14510
1, 5652, Pitch_bend_c, 7, 15212
1, 5655, Note_off_c, 3, 72, 64
1, 5665, Pitch_bend_c, 7, 16265
1, 5677, Pitch_bend_c, 7, 16383
1, 5682, Note_on_c, 3, 72, 91
1, 5757, Note_on_c, 0, 53, 35
1, 5760, Note_on_c, 0, 57, 74
1, 5760, Note_on_c, 11, 41, 106
1, 5760, Note_on_c, 9, 51, 94
1, 5760, Note_on_c, 9, 35, 96
1, 5762, Note_off_c, 9, 35, 64
1, 5762, Note_off_c, 9, 51, 64
1, 5762, Note_on_c, 0, 60, 91
1, 5762, Note_on_c, 0, 65, 90
1, 5770, Note_on_c, 2, 53, 103
1, 5772, Control_c, 2, 1, 0
1, 5772, Pitch_bend_c, 2, 8192
1, 5805, Note_off_c, 3, 72, 64
1, 5860, Note_off_c, 7, 60, 64
1, 5870, Note_off_c, 2, 53, 64
1, 5900, Note_off_c, 0, 65, 64
1, 5917, Note_on_c, 6, 79, 74
1, 5917, Note_on_c, 6, 72, 80
1, 5920, Note_on_c, 7, 60, 96
1, 5922, Note_off_c, 0, 60, 64
1, 5922, Note_off_c, 0, 57, 64
1, 5922, Note_on_c, 0, 65, 87
1, 5925, Note_on_c, 0, 60, 94
1, 5925, Note_on_c, 0, 57, 61
1, 5935, Note_on_c, 2, 53, 96
1, 5965, Note_off_c, 7, 60, 64
1, 5967, Note_off_c, 11, 41, 64
1, 5972, Note_off_c, 6, 79, 64
1, 5980, Note_off_c, 6, 72, 64
1, 5987, Note_off_c, 0, 57, 64
1, 5997, Note_off_c, 0, 60, 64
1, 6000, Note_on_c, 11, 45, 104
1, 6000, Note_on_c, 9, 51, 110
1, 6000, Note_on_c, 9, 40, 86
1, 6002, Note_off_c, 9, 40, 64
1, 6002, Note_off_c, 9, 51, 64
1, 6002, Note_off_c, 0, 65, 64
1, 6002, Note_on_c, 5, 70, 86
1, 6002, Note_on_c, 5, 74, 92
1, 6002, Note_on_c, 5, 65, 92
1, 6005, Control_c, 5, 1, 0
1, 6005, Pitch_bend_c, 5, 8192
1, 6015, Note_on_c, 2, 57, 96
1, 6022, Note_off_c, 0, 53, 64
1, 6037, Note_off_c, 2, 53, 64
1, 6120, Note_off_c, 5, 70, 64
1, 6122, Note_off_c, 5, 74, 64
1, 6132, Note_off_c, 5, 65, 64
1, 6157, Note_on_c, 0, 65, 99
1, 6160, Note_on_c, 9, 51, 81
1, 6162, Note_off_c, 9, 51, 64
1, 6162, Note_on_c, 0, 60, 94
1, 6162, Note_on_c, 5, 63, 99
1, 6162, Note_on_c, 5, 72, 101
1, 6162, Note_on_c, 5, 69, 101
1, 6165, Note_on_c, 0, 57, 79
1, 6165, Note_on_c, 0, 53, 26
1, 6207, Note_off_c, 11, 45, 64
1, 6237, Note_on_c, 2, 60, 99
1, 6240, Note_on_c, 11, 48, 106
1, 6240, Note_on_c, 6, 72, 82
1, 6240, Note_on_c, 9, 51, 101
1, 6240, Note_on_c, 9, 35, 89
1, 6242, Note_off_c, 9, 35, 64
1, 6242, Note_off_c, 9, 51, 64
1, 6242, Note_on_c, 6, 79, 71
1, 6242, Note_on_c, 7, 60, 108
1, 6265, Note_off_c, 2, 57, 64
1, 6285, Note_off_c, 7, 60, 64
1, 6300, Note_off_c, 6, 79, 64
1, 6300, Note_off_c, 6, 72, 64
1, 6302, Note_off_c, 5, 69, 64
1, 6312, Note_off_c, 5, 72, 64
1, 6317, Note_off_c, 5, 63, 64
1, 6400, Note_off_c, 0, 65, 64
1, 6402, Note_off_c, 0, 57, 64
1, 6402, Note_off_c, 0, 60, 64
1, 6402, Note_on_c, 0, 65, 99
1, 6405, Note_on_c, 0, 60, 98
1, 6405, Note_on_c, 0, 57, 70
1, 6447, Note_off_c, 11, 48, 64
1, 6455, Note_off_c, 2, 60, 64
1, 6462, Note_off_c, 0, 60, 64
1, 6470, Note_off_c, 0, 57, 64
1, 6470, Note_off_c, 0, 53, 64
1, 6475, Note_off_c, 0, 65, 64
1, 6480, Note_on_c, 11, 45, 114
1, 6480, Note_on_c, 9, 51, 110
1, 6480, Note_on_c, 9, 40, 89
1, 6482, Note_off_c, 9, 40, 64
1, 6482, Note_off_c, 9, 51, 64
1, 6487, Note_on_c, 2, 62, 111
1, 6615, Note_off_c, 2, 62, 64
1, 6640, Note_on_c, 9, 51, 78
1, 6642, Note_off_c, 9, 51, 64
1, 6660, Pitch_bend_c, 2, 7723
1, 6672, Pitch_bend_c, 2, 6436
1, 6685, Pitch_bend_c, 2, 4915
1, 6687, Note_off_c, 11, 45, 64
1, 6697, Pitch_bend_c, 2, 3628
1, 6707, Pitch_bend_c, 2, 2575
1, 6717, Note_on_c, 3, 75, 107
1, 6720, Note_on_c, 0, 57, 85
1, 6720, Note_on_c, 11, 41, 102
1, 6720, Pitch_bend_c, 2, 2224
1, 6720, Note_on_c, 9, 51, 79
1, 6720, Note_on_c, 9, 35, 86
1, 6722, Note_off_c, 9, 35, 64
1, 6722, Note_off_c, 9, 51, 64
1, 6722, Note_on_c, 0, 60, 98
1, 6722, Note_on_c, 0, 65, 94
1, 6722, Note_on_c, 6, 72, 85
1, 6722, Note_on_c, 6, 79, 68
1, 6722, Note_on_c, 7, 60, 100
1, 6725, Note_on_c, 0, 53, 37
1, 6735, Note_on_c, 2, 63, 96
1, 6745, Pitch_bend_c, 2, 2692
1, 6755, Note_off_c, 7, 60, 64
1, 6757, Note_off_c, 6, 79, 64
1, 6757, Pitch_bend_c, 2, 3277
1, 6772, Pitch_bend_c, 2, 4213
1, 6777, Note_off_c, 6, 72, 64
1, 6785, Pitch_bend_c, 2, 5266
1, 6797, Pitch_bend_c, 2, 6319
1, 6807, Pitch_bend_c, 2, 7138
1, 6822, Pitch_bend_c, 2, 8074
1, 6835, Pitch_bend_c, 2, 8192
1, 6860, Note_off_c, 3, 75, 64
1, 6870, Note_off_c, 0, 65, 64
1, 6877, Note_on_c, 3, 72, 70
1, 6880, Note_off_c, 0, 60, 64
1, 6882, Note_off_c, 0, 57, 64
1, 6882, Note_on_c, 0, 65, 100
1, 6882, Note_on_c, 0, 60, 97
1, 6885, Note_on_c, 0, 57, 78
1, 6910, Note_off_c, 2, 63, 64
1, 6927, Note_off_c, 0, 57, 64
1, 6927, Note_off_c, 11, 41, 64
1, 6935, Note_off_c, 3, 72, 64
1, 6942, Note_off_c, 0, 60, 64
1, 6957, Note_on_c, 3, 75, 113
1, 6960, Note_on_c, 11, 45, 111
1, 6960, Note_on_c, 9, 51, 113
1, 6960, Note_on_c, 9, 40, 85
1, 6962, Note_off_c, 9, 40, 64
1, 6962, Note_off_c, 9, 51, 64
1, 6962, Note_off_c, 0, 65, 64
1, 6962, Note_off_c, 0, 53, 64
1, 6972, Pitch_bend_c, 2, 5851
1, 6980, Note_on_c, 2, 63, 112
1, 6985, Pitch_bend_c, 2, 4798
1, 6997, Pitch_bend_c, 2, 4330
1, 7020, Pitch_bend_c, 2, 4681
1, 7032, Pitch_bend_c, 2, 5383
1, 7045, Pitch_bend_c, 2, 6319
1, 7057, Pitch_bend_c, 2, 7372
1, 7070, Pitch_bend_c, 2, 8192
1, 7092, Note_off_c, 3, 75, 64
1, 7117, Note_on_c, 0, 65, 95
1, 7117, Note_on_c, 0, 60, 97
1, 7117, Note_on_c, 3, 72, 71
1, 7117, Note_on_c, 6, 79, 78
1, 7117, Note_on_c, 6, 72, 84
1, 7117, Note_on_c, 7, 60, 109
1, 7120, Note_on_c, 9, 51, 84
1, 7122, Note_off_c, 9, 51, 64
1, 7122, Note_on_c, 0, 57, 81
1, 7125, Note_on_c, 0, 53, 38
1, 7157, Note_off_c, 2, 63, 64
1, 7160, Note_off_c, 7, 60, 64
1, 7165, Note_off_c, 3, 72, 64
1, 7167, Note_off_c, 11, 45, 64
1, 7170, Pitch_bend_c, 2, 7606
1, 7175, Note_off_c, 6, 72, 64
1, 7180, Note_off_c, 6, 79, 64
1, 7182, Pitch_bend_c, 2, 6085
1, 7195, Pitch_bend_c, 2, 4564
1, 7200, Note_on_c, 11, 48, 89
1, 7200, Note_on_c, 3, 74, 108
1, 7200, Note_on_c, 9, 51, 89
1, 7200, Note_on_c, 9, 35, 89
1, 7202, Note_off_c, 9, 35, 64
1, 7202, Note_off_c, 9, 51, 64
1, 7202, Pitch_bend_c, 2, 3628
1, 7222, Pitch_bend_c, 2, 3511
1, 7225, Note_on_c, 2, 63, 112
1, 7235, Pitch_bend_c, 2, 3979
1, 7247, Pitch_bend_c, 2, 4798
1, 7260, Pitch_bend_c, 2, 5851
1, 7272, Pitch_bend_c, 2, 7021
1, 7285, Pitch_bend_c, 2, 8192
1, 7357, Note_off_c, 0, 65, 64
1, 7360, Note_off_c, 0, 60, 64
1, 7360, Note_on_c, 0, 65, 100
1, 7360, Note_on_c, 9, 40, 88
1, 7362, Note_off_c, 9, 40, 64
1, 7362, Note_on_c, 0, 60, 100
1, 7385, Note_off_c, 2, 63, 64
1, 7392, Note_off_c, 3, 74, 64
1, 7407, Note_off_c, 11, 48, 64
1, 7432, Pitch_bend_c, 2, 3394
1, 7437, Note_off_c, 0, 65, 64
1, 7437, Note_off_c, 0, 53, 64
1, 7437, Note_on_c, 3, 72, 99
1, 7440, Note_on_c, 11, 51, 98
1, 7440, Note_on_c, 9, 40, 77
1, 7442, Note_off_c, 9, 40, 64
1, 7442, Note_off_c, 0, 60, 64
1, 7447, Note_off_c, 0, 57, 64
1, 7452, Note_on_c, 2, 63, 106
1, 7457, Pitch_bend_c, 2, 3862
1, 7470, Pitch_bend_c, 2, 4915
1, 7482, Pitch_bend_c, 2, 6085
1, 7495, Pitch_bend_c, 2, 7489
1, 7507, Pitch_bend_c, 2, 8192
1, 7567, Pitch_bend_c, 7, 14861
1, 7570, Note_off_c, 3, 72, 64
1, 7580, Pitch_bend_c, 7, 10649
1, 7592, Pitch_bend_c, 7, 8192
1, 7597, Note_on_c, 3, 72, 91
1, 7600, Note_on_c, 2, 60, 107
1, 7607, Note_off_c, 2, 63, 64
1, 7647, Note_off_c, 11, 51, 64
1, 7677, Note_on_c, 0, 52, 47
1, 7680, Note_on_c, 0, 55, 88
1, 7680, Note_on_c, 11, 36, 114
1, 7680, Note_on_c, 9, 51, 72
1, 7680, Note_on_c, 9, 35, 81
1, 7682, Note_off_c, 9, 35, 64
1, 7682, Note_off_c, 9, 51, 64
1, 7682, Note_on_c, 0, 60, 99
1, 7682, Note_on_c, 0, 64, 88
1, 7705, Note_off_c, 3, 72, 64
1, 7817, Note_off_c, 0, 64, 64
1, 7835, Note_off_c, 0, 60, 64
1, 7837, Note_on_c, 0, 64, 76
1, 7837, Note_on_c, 6, 79, 77
1, 7837, Note_on_c, 7, 64, 110
1, 7842, Note_on_c, 0, 60, 79
1, 7842, Note_on_c, 6, 72, 90
1, 7882, Note_off_c, 6, 79, 64
1, 7887, Note_off_c, 7, 64, 64
1, 7887, Note_off_c, 11, 36, 64
1, 7907, Note_off_c, 6, 72, 64
1, 7915, Note_off_c, 0, 60, 64
1, 7920, Note_on_c, 11, 40, 98
1, 7920, Note_on_c, 9, 51, 110
1, 7920, Note_on_c, 9, 40, 92
1, 7922, Note_off_c, 9, 40, 64
1, 7922, Note_off_c, 9, 51, 64
1, 7922, Note_off_c, 0, 64, 64
1, 7945, Note_off_c, 0, 52, 64
1, 7957, Note_off_c, 0, 55, 64
1, 7980, Pitch_bend_c, 2, 7957
1, 7992, Pitch_bend_c, 2, 7138
1, 8005, Pitch_bend_c, 2, 6670
1, 8017, Pitch_bend_c, 2, 5851
1, 8020, Note_off_c, 2, 60, 64
1, 8030, Pitch_bend_c, 2, 5266
1, 8042, Pitch_bend_c, 2, 5032
1, 8045, Note_on_c, 2, 63, 109
1, 8070, Pitch_bend_c, 2, 5266
1, 8077, Note_on_c, 0, 64, 98
1, 8080, Pitch_bend_c, 2, 5617
1, 8080, Note_on_c, 9, 51, 86
1, 8082, Note_off_c, 9, 51, 64
1, 8082, Note_on_c, 0, 60, 101
1, 8082, Note_on_c, 0, 55, 83
1, 8092, Pitch_bend_c, 2, 6085
1, 8105, Pitch_bend_c, 2, 6670
1, 8117, Pitch_bend_c, 2, 7372
1, 8127, Note_off_c, 11, 40, 64
1, 8130, Pitch_bend_c, 2, 8192
1, 8160, Note_on_c, 11, 43, 104
1, 8160, Note_on_c, 9, 51, 93
1, 8160, Note_on_c, 9, 35, 86
1, 8162, Note_off_c, 9, 35, 64
1, 8162, Note_off_c, 9, 51, 64
1, 8162, Note_on_c, 6, 72, 88
1, 8162, Note_on_c, 6, 79, 70
1, 8162, Note_on_c, 7, 64, 103
1, 8210, Note_off_c, 7, 64, 64
1, 8217, Note_off_c, 6, 79, 64
1, 8222, Note_off_c, 6, 72, 64
1, 8272, Note_off_c, 2, 63, 64
1, 8287, Note_on_c, 2, 60, 73
1, 8317, Note_off_c, 2, 60, 64
1, 8317, Note_off_c, 0, 60, 64
1, 8317, Note_on_c, 3, 67, 75
1, 8320, Note_off_c, 0, 64, 64
1, 8322, Note_on_c, 0, 64, 104
1, 8322, Note_on_c, 0, 60, 97
1, 8352, Note_off_c, 3, 67, 64
1, 8367, Note_off_c, 11, 43, 64
1, 8380, Pitch_bend_c, 2, 4096
1, 8385, Note_on_c, 2, 63, 112
1, 8397, Note_on_c, 3, 69, 100
1, 8400, Note_on_c, 11, 45, 91
1, 8400, Pitch_bend_c, 2, 4681
1, 8400, Note_on_c, 9, 51, 121
1, 8400, Note_on_c, 9, 40, 91
1, 8402, Note_off_c, 9, 40, 64
1, 8402, Note_off_c, 9, 51, 64
1, 8417, Note_off_c, 0, 64, 64
1, 8417, Pitch_bend_c, 2, 5383
1, 8422, Note_off_c, 0, 55, 64
1, 8430, Pitch_bend_c, 2, 6202
1, 8440, Note_off_c, 0, 60, 64
1, 8442, Pitch_bend_c, 2, 7021
1, 8455, Pitch_bend_c, 2, 7606
1, 8465, Pitch_bend_c, 2, 8192
1, 8540, Note_off_c, 3, 69, 64
1, 8557, Note_on_c, 3, 72, 97
1, 8560, Note_on_c, 9, 51, 79
1, 8562, Note_off_c, 9, 51, 64
1, 8595, Note_off_c, 2, 63, 64
1, 8607, Note_off_c, 11, 45, 64
1, 8627, Note_on_c, 2, 60, 99
1, 8640, Note_on_c, 11, 48, 98
1, 8640, Note_on_c, 9, 51, 78
1, 8640, Note_on_c, 9, 35, 81
1, 8642, Note_off_c, 9, 35, 64
1, 8642, Note_off_c, 9, 51, 64
1, 8642, Note_on_c, 0, 55, 80
1, 8642, Note_on_c, 0, 52, 32
1, 8642, Note_on_c, 6, 72, 94
1, 8642, Note_on_c, 6, 79, 71
1, 8642, Note_on_c, 7, 64, 94
1, 8645, Note_on_c, 0, 64, 91
1, 8645, Note_on_c, 0, 60, 100
1, 8677, Note_off_c, 7, 64, 64
1, 8677, Note_off_c, 6, 79, 64
1, 8687, Note_off_c, 3, 72, 64
1, 8700, Note_off_c, 6, 72, 64
1, 8777, Note_off_c, 0, 60, 64
1, 8777, Note_off_c, 0, 64, 64
1, 8800, Note_on_c, 0, 64, 94
1, 8802, Note_on_c, 0, 60, 88
1, 8847, Note_off_c, 11, 48, 64
1, 8862, Note_off_c, 0, 52, 64
1, 8877, Note_off_c, 0, 60, 64
1, 8880, Note_off_c, 0, 55, 64
1, 8880, Note_on_c, 11, 45, 106
1, 8880, Note_on_c, 9, 51, 117
1, 8880, Note_on_c, 9, 40, 86
1, 8882, Note_off_c, 9, 40, 64
1, 8882, Note_off_c, 9, 51, 64
1, 8897, Note_off_c, 0, 64, 64
1, 8942, Note_off_c, 2, 60, 64
1, 9027, Note_on_c, 2, 60, 119
1, 9037, Note_on_c, 0, 64, 101
1, 9037, Note_on_c, 6, 79, 70
1, 9037, Note_on_c, 6, 72, 96
1, 9037, Note_on_c, 7, 64, 101
1, 9040, Note_on_c, 9, 51, 81
1, 9042, Note_off_c, 9, 51, 64
1, 9042, Note_on_c, 0, 60, 100
1, 9042, Note_on_c, 0, 55, 83
1, 9045, Note_on_c, 0, 52, 41
1, 9082, Note_off_c, 7, 64, 64
1, 9087, Note_off_c, 6, 79, 64
1, 9087, Note_off_c, 11, 45, 64
1, 9102, Note_off_c, 6, 72, 64
1, 9120, Note_on_c, 11, 43, 102
1, 9120, Note_on_c, 9, 51, 89
1, 9120, Note_on_c, 9, 35, 89
1, 9122, Note_off_c, 9, 35, 64
1, 9122, Note_off_c, 9, 51, 64
1, 9252, Note_off_c, 2, 60, 64
1, 9280, Note_off_c, 0, 64, 64
1, 9280, Note_on_c, 9, 40, 100
1, 9282, Note_off_c, 9, 40, 64
1, 9282, Note_off_c, 0, 60, 64
1, 9282, Note_on_c, 0, 64, 106
1, 9285, Note_on_c, 0, 60, 103
1, 9310, Note_on_c, 2, 60, 96
1, 9327, Note_off_c, 11, 43, 64
1, 9342, Note_off_c, 0, 55, 64
1, 9352, Note_off_c, 0, 52, 64
1, 9360, Note_on_c, 11, 40, 86
1, 9360, Note_on_c, 9, 40, 100
1, 9362, Note_off_c, 9, 40, 64
1, 9365, Note_off_c, 2, 60, 64
1, 9365, Note_off_c, 0, 60, 64
1, 9372, Note_off_c, 0, 64, 64
1, 9387, Note_on_c, 2, 60, 75
1, 9502, Note_off_c, 2, 60, 64
1, 9517, Note_on_c, 3, 72, 107
1, 9567, Note_off_c, 11, 40, 64
1, 9572, Note_off_c, 3, 72, 64
1, 9597, Note_on_c, 0, 55, 16
1, 9600, Note_on_c, 11, 43, 102
1, 9600, Note_on_c, 3, 74, 117
1, 9600, Note_on_c, 9, 51, 93
1, 9600, Note_on_c, 9, 35, 114
1, 9602, Note_off_c, 9, 35, 64
1, 9602, Note_off_c, 9, 51, 64
1, 9602, Note_on_c, 0, 59, 88
1, 9602, Note_on_c, 0, 62, 98
1, 9602, Note_on_c, 0, 67, 97
1, 9620, Note_on_c, 2, 55, 91
1, 9720, Note_off_c, 2, 55, 64
1, 9747, Note_off_c, 0, 67, 64
1, 9757, Note_on_c, 6, 79, 70
1, 9757, Note_on_c, 6, 71, 91
1, 9757, Note_on_c, 7, 62, 104
1, 9760, Note_off_c, 0, 62, 64
1, 9762, Note_off_c, 0, 59, 64
1, 9762, Note_on_c, 0, 67, 100
1, 9762, Note_on_c, 0, 62, 99
1, 9765, Note_on_c, 0, 59, 85
1, 9775, Note_on_c, 2, 55, 113
1, 9780, Note_off_c, 3, 74, 64
1, 9802, Note_off_c, 6, 79, 64
1, 9807, Note_off_c, 11, 43, 64
1, 9810, Note_off_c, 7, 62, 64
1, 9820, Note_off_c, 0, 59, 64
1, 9827, Note_off_c, 6, 71, 64
1, 9837, Note_on_c, 3, 74, 97
1, 9840, Note_on_c, 11, 47, 102
1, 9840, Note_on_c, 9, 51, 110
1, 9840, Note_on_c, 9, 40, 91
1, 9842, Note_off_c, 9, 40, 64
1, 9842, Note_off_c, 9, 51, 64
1, 9842, Note_off_c, 0, 67, 64
1, 9847, Note_off_c, 0, 62, 64
1, 9855, Note_on_c, 2, 59, 105
1, 9877, Note_off_c, 2, 55, 64
1, 9880, Note_off_c, 0, 55, 64
1, 9942, Note_off_c, 3, 74, 64
1, 9997, Note_on_c, 0, 67, 96
1, 9997, Note_on_c, 0, 62, 96
1, 9997, Note_on_c, 3, 74, 85
1, 10000, Note_on_c, 9, 51, 85
1, 10002, Note_off_c, 9, 51, 64
1, 10002, Note_on_c, 0, 59, 82
1, 10005, Note_on_c, 0, 55, 23
1, 10045, Note_off_c, 3, 74, 64
1, 10047, Note_off_c, 11, 47, 64
1, 10080, Note_on_c, 11, 50, 98
1, 10080, Note_on_c, 7, 62, 104
1, 10080, Note_on_c, 9, 51, 81
1, 10080, Note_on_c, 9, 35, 88
1, 10082, Note_off_c, 9, 35, 64
1, 10082, Note_off_c, 9, 51, 64
1, 10082, Note_on_c, 3, 74, 98
1, 10082, Note_on_c, 6, 71, 84
1, 10082, Note_on_c, 6, 79, 75
1, 10085, Note_on_c, 2, 62, 93
1, 10115, Note_off_c, 2, 59, 64
1, 10130, Note_off_c, 6, 71, 64
1, 10142, Note_off_c, 6, 79, 64
1, 10152, Note_off_c, 7, 62, 64
1, 10207, Note_off_c, 3, 74, 64
1, 10235, Note_off_c, 0, 67, 64
1, 10237, Note_off_c, 0, 59, 64
1, 10237, Note_off_c, 0, 62, 64
1, 10237, Note_on_c, 0, 67, 101
1, 10242, Note_on_c, 0, 62, 97
1, 10242, Note_on_c, 0, 59, 77
1, 10242, Note_on_c, 3, 74, 79
1, 10282, Note_off_c, 0, 67, 64
1, 10287, Note_off_c, 11, 50, 64
1, 10295, Note_off_c, 3, 74, 64
1, 10297, Note_off_c, 0, 59, 64
1, 10310, Note_off_c, 0, 62, 64
1, 10310, Pitch_bend_c, 2, 3160
1, 10312, Note_on_c, 2, 70, 106
1, 10317, Note_on_c, 0, 59, 95
1, 10320, Note_off_c, 2, 62, 64
1, 10320, Note_on_c, 11, 52, 96
1, 10320, Note_on_c, 9, 51, 113
1, 10320, Note_on_c, 9, 40, 89
1, 10322, Note_off_c, 9, 40, 64
1, 10322, Note_off_c, 9, 51, 64
1, 10322, Note_on_c, 3, 74, 88
1, 10325, Note_off_c, 0, 55, 64
1, 10335, Pitch_bend_c, 2, 3277
1, 10347, Pitch_bend_c, 2, 3979
1, 10360, Pitch_bend_c, 2, 4798
1, 10372, Pitch_bend_c, 2, 5617
1, 10375, Note_off_c, 0, 59, 64
1, 10385, Pitch_bend_c, 2, 6436
1, 10397, Pitch_bend_c, 2, 7138
1, 10410, Pitch_bend_c, 2, 7840
1, 10422, Pitch_bend_c, 2, 8192
1, 10427, Note_off_c, 3, 74, 64
1, 10477, Note_on_c, 3, 74, 90
1, 10480, Note_on_c, 9, 51, 85
1, 10482, Note_off_c, 9, 51, 64
1, 10527, Note_off_c, 11, 52, 64
1, 10532, Note_off_c, 3, 74, 64
1, 10557, Note_on_c, 3, 75, 110
1, 10560, Note_on_c, 11, 41, 102
1, 10560, Note_on_c, 2, 67, 103
1, 10560, Note_on_c, 7, 63, 104
1, 10560, Note_on_c, 9, 51, 72
1, 10560, Note_on_c, 9, 35, 91
1, 10562, Note_off_c, 9, 35, 64
1, 10562, Note_off_c, 9, 51, 64
1, 10562, Note_on_c, 6, 72, 87
1, 10562, Note_on_c, 6, 79, 74
1, 10565, Note_on_c, 0, 57, 61
1, 10565, Note_on_c, 0, 60, 61
1, 10565, Note_on_c, 0, 65, 35
1, 10575, Note_off_c, 2, 70, 64
1, 10602, Note_off_c, 6, 79, 64
1, 10605, Note_off_c, 7, 63, 64
1, 10620, Note_off_c, 6, 72, 64
1, 10697, Note_off_c, 0, 65, 64
1, 10707, Note_off_c, 0, 60, 64
1, 10707, Note_off_c, 0, 57, 64
1, 10725, Note_on_c, 0, 65, 90
1, 10725, Note_on_c, 0, 60, 76
1, 10742, Note_off_c, 2, 67, 64
1, 10750, Note_off_c, 3, 75, 64
1, 10767, Note_off_c, 11, 41, 64
1, 10797, Note_on_c, 3, 74, 104
1, 10800, Note_off_c, 0, 65, 64
1, 10800, Note_on_c, 11, 45, 82
1, 10800, Note_on_c, 9, 51, 113
1, 10800, Note_on_c, 9, 40, 94
1, 10802, Note_off_c, 9, 40, 64
1, 10802, Note_off_c, 9, 51, 64
1, 10802, Pitch_bend_c, 2, 3511
1, 10807, Note_on_c, 2, 63, 90
1, 10812, Note_off_c, 0, 60, 64
1, 10815, Pitch_bend_c, 2, 3043
1, 10820, Pitch_bend_c, 2, 2575
1, 10827, Pitch_bend_c, 2, 2458
1, 10845, Pitch_bend_c, 2, 2692
1, 10852, Pitch_bend_c, 2, 3160
1, 10857, Pitch_bend_c, 2, 3745
1, 10865, Pitch_bend_c, 2, 4447
1, 10870, Pitch_bend_c, 2, 5032
1, 10875, Pitch_bend_c, 2, 5734
1, 10882, Pitch_bend_c, 2, 6436
1, 10887, Pitch_bend_c, 2, 7021
1, 10895, Pitch_bend_c, 2, 7723
1, 10900, Pitch_bend_c, 2, 8192
1, 10950, Note_off_c, 3, 74, 64
1, 10955, Note_on_c, 2, 60, 79
1, 10957, Note_on_c, 0, 65, 100
1, 10957, Note_on_c, 3, 72, 73
1, 10957, Note_on_c, 6, 79, 76
1, 10957, Note_on_c, 6, 72, 94
1, 10957, Note_on_c, 7, 63, 115
1, 10960, Note_on_c, 9, 51, 85
1, 10962, Note_off_c, 9, 51, 64
1, 10962, Note_on_c, 0, 60, 97
1, 10965, Note_on_c, 0, 57, 78
1, 10965, Note_on_c, 0, 53, 16
1, 10970, Note_off_c, 2, 63, 64
1, 10990, Note_off_c, 2, 60, 64
1, 11007, Note_off_c, 11, 45, 64
1, 11010, Note_off_c, 7, 63, 64
1, 11010, Note_off_c, 6, 79, 64
1, 11010, Note_off_c, 3, 72, 64
1, 11020, Note_off_c, 6, 72, 64
1, 11037, Note_on_c, 3, 74, 106
1, 11040, Note_on_c, 11, 48, 92
1, 11040, Pitch_bend_c, 2, 2926
1, 11040, Note_on_c, 2, 63, 100
1, 11040, Note_on_c, 9, 51, 68
1, 11040, Note_on_c, 9, 35, 85
1, 11042, Note_off_c, 9, 35, 64
1, 11042, Note_off_c, 9, 51, 64
1, 11045, Pitch_bend_c, 2, 2575
1, 11070, Pitch_bend_c, 2, 3043
1, 11075, Pitch_bend_c, 2, 3628
1, 11082, Pitch_bend_c, 2, 4330
1, 11087, Pitch_bend_c, 2, 4915
1, 11095, Pitch_bend_c, 2, 5617
1, 11100, Pitch_bend_c, 2, 6202
1, 11107, Pitch_bend_c, 2, 6904
1, 11112, Pitch_bend_c, 2, 7489
1, 11120, Pitch_bend_c, 2, 7957
1, 11125, Pitch_bend_c, 2, 8192
1, 11195, Note_off_c, 0, 60, 64
1, 11195, Note_off_c, 0, 65, 64
1, 11197, Note_on_c, 0, 65, 100
1, 11200, Note_on_c, 9, 40, 89
1, 11202, Note_off_c, 9, 40, 64
1, 11202, Note_on_c, 0, 60, 88
1, 11235, Note_off_c, 2, 63, 64
1, 11247, Note_off_c, 11, 48, 64
1, 11257, Note_off_c, 3, 74, 64
1, 11272, Note_off_c, 0, 60, 64
1, 11275, Pitch_bend_c, 2, 4915
1, 11277, Note_on_c, 3, 72, 95
1, 11280, Note_off_c, 0, 57, 64
1, 11280, Note_on_c, 11, 50, 89
1, 11280, Note_on_c, 2, 63, 100
1, 11280, Note_on_c, 9, 40, 100
1, 11282, Note_off_c, 9, 40, 64
1, 11282, Pitch_bend_c, 2, 3862
1, 11287, Pitch_bend_c, 2, 3043
1, 11295, Pitch_bend_c, 2, 2575
1, 11297, Note_off_c, 0, 65, 64
1, 11300, Pitch_bend_c, 2, 2224
1, 11315, Note_off_c, 0, 53, 64
1, 11320, Pitch_bend_c, 2, 2458
1, 11325, Pitch_bend_c, 2, 2692
1, 11332, Pitch_bend_c, 2, 3160
1, 11337, Pitch_bend_c, 2, 3745
1, 11345, Pitch_bend_c, 2, 4447
1, 11350, Pitch_bend_c, 2, 5032
1, 11355, Pitch_bend_c, 2, 5734
1, 11362, Pitch_bend_c, 2, 6319
1, 11370, Pitch_bend_c, 2, 6787
1, 11375, Pitch_bend_c, 2, 7255
1, 11382, Pitch_bend_c, 2, 7606
1, 11387, Pitch_bend_c, 2, 7840
1, 11395, Pitch_bend_c, 2, 8192
1, 11410, Note_off_c, 3, 72, 64
1, 11437, Note_on_c, 0, 64, 44
1, 11442, Note_on_c, 3, 72, 99
1, 11485, Note_off_c, 0, 64, 64
1, 11487, Note_off_c, 11, 50, 64
1, 11495, Note_off_c, 2, 63, 64
1, 11517, Note_on_c, 0, 52, 54
1, 11517, Note_on_c, 2, 60, 96
1, 11520, Note_on_c, 11, 36, 92
1, 11520, Note_on_c, 9, 51, 81
1, 11520, Note_on_c, 9, 35, 104
1, 11522, Note_off_c, 9, 35, 64
1, 11522, Note_off_c, 9, 51, 64
1, 11522, Note_on_c, 0, 55, 90
1, 11522, Note_on_c, 0, 60, 98
1, 11525, Note_on_c, 0, 64, 66
1, 11542, Note_off_c, 3, 72, 64
1, 11667, Note_off_c, 0, 64, 64
1, 11677, Note_on_c, 6, 79, 81
1, 11677, Note_on_c, 6, 72, 89
1, 11677, Note_on_c, 7, 64, 109
1, 11680, Note_off_c, 0, 60, 64
1, 11682, Note_off_c, 0, 55, 64
1, 11682, Note_on_c, 0, 64, 91
1, 11682, Note_on_c, 0, 60, 84
1, 11685, Note_on_c, 0, 55, 47
1, 11700, Note_off_c, 2, 60, 64
1, 11707, Note_on_c, 2, 60, 111
1, 11727, Note_off_c, 11, 36, 64
1, 11735, Note_off_c, 6, 72, 64
1, 11737, Note_off_c, 0, 55, 64
1, 11737, Note_off_c, 6, 79, 64
1, 11740, Note_off_c, 7, 64, 64
1, 11742, Note_off_c, 0, 60, 64
1, 11760, Note_off_c, 2, 60, 64
1, 11760, Note_on_c, 11, 40, 77
1, 11760, Note_on_c, 9, 51, 117
1, 11760, Note_on_c, 9, 40, 98
1, 11762, Note_off_c, 9, 40, 64
1, 11762, Note_off_c, 9, 51, 64
1, 11780, Note_off_c, 0, 52, 64
1, 11787, Note_off_c, 0, 64, 64
1, 11787, Note_on_c, 2, 60, 103
1, 11910, Note_off_c, 2, 60, 64
1, 11917, Note_on_c, 0, 64, 99
1, 11920, Note_on_c, 9, 51, 91
1, 11922, Note_off_c, 9, 51, 64
1, 11922, Note_on_c, 0, 60, 94
1, 11922, Note_on_c, 0, 55, 73
1, 11937, Note_on_c, 2, 60, 119
1, 11967, Note_off_c, 11, 40, 64
1, 12000, Note_on_c, 11, 43, 92
1, 12000, Note_on_c, 9, 51, 76
1, 12000, Note_on_c, 9, 35, 89
1, 12002, Note_off_c, 9, 35, 64
1, 12002, Note_off_c, 9, 51, 64
1, 12002, Note_on_c, 6, 72, 90
1, 12002, Note_on_c, 6, 79, 74
1, 12002, Note_on_c, 7, 64, 110
1, 12060, Note_off_c, 6, 79, 64
1, 12070, Note_off_c, 6, 72, 64
1, 12075, Note_off_c, 7, 64, 64
1, 12102, Note_off_c, 2, 60, 64
1, 12157, Note_on_c, 3, 67, 83
1, 12160, Note_off_c, 0, 60, 64
1, 12160, Note_off_c, 0, 64, 64
1, 12162, Note_off_c, 0, 55, 64
1, 12162, Note_on_c, 0, 64, 99
1, 12162, Note_on_c, 0, 60, 93
1, 12165, Note_on_c, 0, 55, 74
1, 12175, Note_on_c, 2, 60, 85
1, 12200, Note_off_c, 3, 67, 64
1, 12207, Note_off_c, 11, 43, 64
1, 12210, Note_off_c, 0, 55, 64
1, 12217, Note_off_c, 0, 60, 64
1, 12220, Note_off_c, 0, 64, 64
1, 12225, Note_off_c, 2, 60, 64
1, 12237, Note_on_c, 2, 60, 58
1, 12237, Note_on_c, 3, 69, 104
1, 12240, Note_on_c, 11, 45, 88
1, 12240, Note_on_c, 9, 51, 121
1, 12240, Note_on_c, 9, 40, 96
1, 12242, Note_off_c, 9, 40, 64
1, 12242, Note_off_c, 9, 51, 64
1, 12385, Note_off_c, 3, 69, 64
1, 12397, Note_off_c, 2, 60, 64
1, 12397, Note_on_c, 0, 64, 65
1, 12397, Note_on_c, 3, 72, 84
1, 12400, Note_on_c, 9, 51, 93
1, 12402, Note_off_c, 9, 51, 64
1, 12402, Note_on_c, 0, 60, 91
1, 12405, Note_on_c, 0, 55, 78
1, 12447, Note_off_c, 11, 45, 64
1, 12475, Note_off_c, 0, 60, 64
1, 12475, Note_on_c, 2, 60, 97
1, 12480, Note_on_c, 11, 48, 79
1, 12480, Note_on_c, 6, 72, 90
1, 12480, Note_on_c, 6, 79, 77
1, 12480, Note_on_c, 9, 51, 87
1, 12480, Note_on_c, 9, 35, 84
1, 12482, Note_off_c, 9, 35, 64
1, 12482, Note_off_c, 9, 51, 64
1, 12482, Note_off_c, 0, 64, 64
1, 12482, Note_on_c, 0, 60, 99
1, 12482, Note_on_c, 7, 64, 106
1, 12485, Note_on_c, 0, 64, 67
1, 12517, Note_off_c, 3, 72, 64
1, 12537, Note_off_c, 6, 72, 64
1, 12540, Note_off_c, 6, 79, 64
1, 12545, Note_off_c, 7, 64, 64
1, 12607, Note_off_c, 2, 60, 64
1, 12627, Note_off_c, 0, 64, 64
1, 12630, Note_on_c, 2, 60, 89
1, 12642, Note_off_c, 0, 60, 64
1, 12642, Note_on_c, 0, 64, 80
1, 12645, Note_on_c, 0, 60, 79
1, 12687, Note_off_c, 11, 48, 64
1, 12700, Note_off_c, 0, 55, 64
1, 12705, Note_off_c, 0, 60, 64
1, 12717, Note_off_c, 0, 64, 64
1, 12720, Note_on_c, 11, 45, 94
1, 12720, Note_on_c, 9, 51, 110
1, 12720, Note_on_c, 9, 40, 102
1, 12722, Note_off_c, 9, 40, 64
1, 12722, Note_off_c, 9, 51, 64
1, 12820, Note_off_c, 2, 60, 64
1, 12875, Note_on_c, 2, 60, 115
1, 12877, Note_on_c, 0, 64, 87
1, 12877, Note_on_c, 6, 79, 78
1, 12877, Note_on_c, 6, 72, 92
1, 12877, Note_on_c, 7, 64, 109
1, 12880, Note_on_c, 9, 51, 87
1, 12882, Note_off_c, 9, 51, 64
1, 12882, Note_on_c, 0, 55, 54
1, 12885, Note_on_c, 0, 60, 79
1, 12927, Note_off_c, 11, 45, 64
1, 12932, Note_off_c, 6, 72, 64
1, 12932, Note_off_c, 6, 79, 64
1, 12942, Note_off_c, 7, 64, 64
1, 12960, Note_on_c, 11, 43, 100
1, 12960, Note_on_c, 9, 51, 93
1, 12960, Note_on_c, 9, 35, 85
1, 12962, Note_off_c, 9, 35, 64
1, 12962, Note_off_c, 9, 51, 64
1, 13062, Note_off_c, 2, 60, 64
1, 13095, Note_off_c, 0, 60, 64
1, 13112, Note_off_c, 0, 64, 64
1, 13115, Note_on_c, 2, 60, 85
1, 13117, Note_on_c, 0, 64, 90
1, 13120, Note_off_c, 0, 55, 64
1, 13120, Note_on_c, 0, 60, 96
1, 13120, Note_on_c, 9, 40, 91
1, 13122, Note_off_c, 9, 40, 64
1, 13122, Note_on_c, 0, 55, 75
1, 13162, Note_off_c, 2, 60, 64
1, 13167, Note_off_c, 11, 43, 64
1, 13180, Note_off_c, 0, 60, 64
1, 13195, Note_off_c, 0, 64, 64
1, 13200, Note_on_c, 11, 40, 102
1, 13200, Note_on_c, 2, 60, 102
1, 13200, Note_on_c, 9, 40, 93
1, 13202, Note_off_c, 9, 40, 64
1, 13212, Note_off_c, 0, 55, 64
1, 13342, Note_off_c, 2, 60, 64
1, 13357, Note_on_c, 3, 67, 83
1, 13407, Note_off_c, 11, 40, 64
1, 13410, Note_off_c, 3, 67, 64
1, 13437, Note_on_c, 0, 52, 60
1, 13437, Note_on_c, 3, 72, 99
1, 13440, Note_on_c, 0, 55, 101
1, 13440, Note_on_c, 11, 36, 98
1, 13440, Note_on_c, 6, 79, 70
1, 13440, Note_on_c, 9, 42, 93
1, 13440, Note_on_c, 9, 35, 121
1, 13440, Note_on_c, 9, 40, 98
1, 13442, Note_off_c, 9, 40, 64
1, 13442, Note_off_c, 9, 35, 64
1, 13442, Note_off_c, 9, 42, 64
1, 13442, Note_on_c, 0, 60, 100
1, 13442, Note_on_c, 0, 64, 103
1, 13442, Note_on_c, 6, 72, 94
1, 13442, Note_on_c, 7, 64, 103
1, 13455, Note_on_c, 2, 60, 107
1, 13472, Note_off_c, 7, 64, 64
1, 13485, Note_off_c, 6, 79, 64
1, 13522, Note_off_c, 6, 72, 64
1, 13562, Note_off_c, 0, 64, 64
1, 13575, Note_off_c, 0, 55, 64
1, 13580, Note_off_c, 2, 60, 64
1, 13580, Note_off_c, 0, 60, 64
1, 13587, Note_off_c, 11, 36, 64
1, 13597, Note_off_c, 0, 52, 64
1, 13635, Note_off_c, 3, 72, 64
1, 13677, Note_on_c, 3, 72, 93
1, 13800, Note_off_c, 3, 72, 64
1, 13842, Note_on_c, 3, 72, 84
1, 13907, Note_off_c, 3, 72, 64
1, 13922, Note_on_c, 3, 76, 104
1, 14097, Note_off_c, 3, 76, 64
1, 14157, Note_on_c, 3, 67, 85
1, 14265, Note_off_c, 3, 67, 64
1, 14322, Note_on_c, 3, 67, 71
1, 14362, Note_off_c, 3, 67, 64
1, 14395, Note_on_c, 2, 60, 99
1, 14397, Note_on_c, 3, 72, 99
1, 14397, Note_on_c, 6, 72, 92
1, 14397, Note_on_c, 7, 64, 108
1, 14400, Note_on_c, 0, 48, 16
1, 14400, Note_on_c, 0, 52, 75
1, 14400, Note_on_c, 11, 36, 108
1, 14400, Note_on_c, 9, 42, 121
1, 14400, Note_on_c, 9, 40, 94
1, 14400, Note_on_c, 9, 35, 102
1, 14402, Note_off_c, 9, 35, 64
1, 14402, Note_off_c, 9, 40, 64
1, 14402, Note_off_c, 9, 42, 64
1, 14402, Note_on_c, 0, 55, 103
1, 14402, Note_on_c, 0, 60, 101
1, 14402, Note_on_c, 6, 79, 78
1, 14405, Note_on_c, 0, 64, 105
1, 14430, Note_off_c, 7, 64, 64
1, 14455, Note_off_c, 6, 79, 64
1, 14485, Note_off_c, 6, 72, 64
1, 14527, Note_off_c, 0, 64, 64
1, 14532, Note_off_c, 0, 60, 64
1, 14535, Note_off_c, 2, 60, 64
1, 14537, Note_off_c, 0, 55, 64
1, 14547, Note_off_c, 11, 36, 64
1, 14555, Note_off_c, 0, 48, 64
1, 14562, Note_off_c, 0, 52, 64
1, 14590, Note_off_c, 3, 72, 64
1, 14637, Note_on_c, 3, 72, 97
1, 14772, Note_off_c, 3, 72, 64
1, 14797, Note_on_c, 3, 76, 104
1, 14982, Note_off_c, 3, 76, 64
1, 15355, Note_on_c, 2, 60, 113
1, 15357, Note_on_c, 0, 55, 92
1, 15357, Note_on_c, 0, 52, 24
1, 15357, Note_on_c, 3, 75, 97
1, 15357, Note_on_c, 6, 79, 75
1, 15357, Note_on_c, 7, 64, 109
1, 15360, Note_on_c, 0, 60, 100
1, 15360, Note_on_c, 11, 36, 111
1, 15360, Note_on_c, 9, 42, 121
1, 15360, Note_on_c, 9, 40, 98
1, 15360, Note_on_c, 9, 35, 106
1, 15362, Note_off_c, 9, 35, 64
1, 15362, Note_off_c, 9, 40, 64
1, 15362, Note_off_c, 9, 42, 64
1, 15362, Note_on_c, 0, 64, 105
1, 15362, Note_on_c, 6, 72, 98
1, 15397, Note_off_c, 6, 79, 64
1, 15420, Note_off_c, 7, 64, 64
1, 15425, Note_off_c, 6, 72, 64
1, 15460, Note_off_c, 2, 60, 64
1, 15462, Note_off_c, 3, 75, 64
1, 15490, Note_off_c, 0, 55, 64
1, 15492, Note_off_c, 0, 60, 64
1, 15502, Note_off_c, 0, 64, 64
1, 15507, Note_off_c, 11, 36, 64
1, 15520, Note_on_c, 3, 75, 87
1, 15525, Note_off_c, 0, 52, 64
1, 15567, Note_off_c, 3, 75, 64
1, 15602, Note_on_c, 3, 75, 79
1, 15690, Note_off_c, 3, 75, 64
1, 15757, Note_on_c, 3, 75, 93
1, 15805, Note_off_c, 3, 75, 64
1, 15842, Note_on_c, 3, 75, 91
1, 15935, Note_off_c, 3, 75, 64
1, 15997, Note_on_c, 3, 75, 91
1, 16045, Note_off_c, 3, 75, 64
1, 16082, Note_on_c, 3, 75, 74
1, 16195, Note_off_c, 3, 75, 64
1, 16242, Note_on_c, 3, 75, 89
1, 16287, Note_off_c, 3, 75, 64
1, 16322, Note_on_c, 3, 75, 104
1, 16322, Note_on_c, 7, 60, 122
1, 16420, Note_off_c, 3, 75, 64
1, 16482, Note_on_c, 3, 75, 81
1, 16530, Note_off_c, 3, 75, 64
1, 16555, Pitch_bend_c, 7, 8309
1, 16562, Note_on_c, 3, 75, 91
1, 16590, Pitch_bend_c, 7, 8426
1, 16602, Pitch_bend_c, 7, 8777
1, 16615, Pitch_bend_c, 7, 9011
1, 16640, Pitch_bend_c, 7, 9362
1, 16647, Note_off_c, 3, 75, 64
1, 16665, Pitch_bend_c, 7, 9479
1, 16677, Pitch_bend_c, 7, 9713
1, 16687, Pitch_bend_c, 7, 9947
1, 16700, Pitch_bend_c, 7, 10181
1, 16712, Pitch_bend_c, 7, 10415
1, 16722, Note_on_c, 3, 75, 73
1, 16737, Pitch_bend_c, 7, 10532
1, 16775, Pitch_bend_c, 7, 10766
1, 16780, Note_off_c, 3, 75, 64
1, 16787, Pitch_bend_c, 7, 10883
1, 16805, Note_on_c, 3, 75, 110
1, 16812, Pitch_bend_c, 7, 11117
1, 16850, Pitch_bend_c, 7, 11351
1, 16862, Pitch_bend_c, 7, 11585
1, 16887, Pitch_bend_c, 7, 11936
1, 16922, Pitch_bend_c, 7, 12053
1, 16950, Pitch_bend_c, 7, 12287
1, 16960, Note_on_c, 9, 40, 98
1, 16962, Note_off_c, 9, 40, 64
1, 16972, Pitch_bend_c, 7, 12521
1, 16985, Pitch_bend_c, 7, 12755
1, 16997, Note_off_c, 3, 75, 64
1, 17010, Pitch_bend_c, 7, 12989
1, 17040, Note_on_c, 9, 40, 92
1, 17042, Note_off_c, 9, 40, 64
1, 17042, Note_on_c, 3, 72, 97
1, 17047, Pitch_bend_c, 7, 13223
1, 17070, Pitch_bend_c, 7, 13340
1, 17110, Pitch_bend_c, 7, 13574
1, 17122, Pitch_bend_c, 7, 13691
1, 17135, Pitch_bend_c, 7, 13925
1, 17147, Pitch_bend_c, 7, 14042
1, 17155, Note_off_c, 3, 72, 64
1, 17160, Pitch_bend_c, 7, 14510
1, 17172, Pitch_bend_c, 7, 15212
1, 17185, Pitch_bend_c, 7, 16265
1, 17197, Pitch_bend_c, 7, 16383
1, 17202, Note_on_c, 3, 72, 97
1, 17270, Note_on_c, 2, 53, 100
1, 17277, Note_on_c, 0, 60, 100
1, 17277, Note_on_c, 0, 57, 91
1, 17277, Note_on_c, 0, 53, 38
1, 17280, Note_on_c, 0, 65, 103
1, 17280, Note_on_c, 11, 41, 104
1, 17280, Note_on_c, 9, 51, 98
1, 17280, Note_on_c, 9, 35, 108
1, 17282, Note_off_c, 9, 35, 64
1, 17282, Note_off_c, 9, 51, 64
1, 17327, Note_off_c, 3, 72, 64
1, 17345, Note_off_c, 2, 53, 64
1, 17380, Note_off_c, 7, 60, 64
1, 17427, Note_on_c, 2, 53, 89
1, 17435, Note_off_c, 0, 65, 64
1, 17437, Note_on_c, 6, 79, 76
1, 17437, Note_on_c, 6, 72, 80
1, 17440, Note_off_c, 0, 60, 64
1, 17440, Note_on_c, 7, 60, 96
1, 17442, Note_on_c, 0, 65, 101
1, 17442, Note_on_c, 0, 60, 94
1, 17485, Note_off_c, 7, 60, 64
1, 17487, Note_off_c, 11, 41, 64
1, 17490, Note_off_c, 6, 79, 64
1, 17497, Note_on_c, 2, 57, 103
1, 17500, Note_off_c, 6, 72, 64
1, 17512, Note_off_c, 2, 53, 64
1, 17517, Note_on_c, 5, 74, 86
1, 17517, Note_on_c, 5, 70, 88
1, 17520, Note_on_c, 11, 45, 106
1, 17520, Note_on_c, 5, 65, 83
1, 17520, Note_on_c, 9, 51, 98
1, 17520, Note_on_c, 9, 40, 89
1, 17522, Note_off_c, 9, 40, 64
1, 17522, Note_off_c, 9, 51, 64
1, 17522, Note_off_c, 0, 57, 64
1, 17535, Note_off_c, 0, 53, 64
1, 17537, Note_off_c, 0, 65, 64
1, 17545, Note_off_c, 0, 60, 64
1, 17580, Note_off_c, 2, 57, 64
1, 17645, Note_off_c, 5, 70, 64
1, 17652, Note_off_c, 5, 74, 64
1, 17670, Note_on_c, 2, 57, 96
1, 17677, Note_off_c, 5, 65, 64
1, 17677, Note_on_c, 0, 65, 103
1, 17677, Note_on_c, 5, 63, 96
1, 17680, Note_on_c, 9, 51, 94
1, 17682, Note_off_c, 9, 51, 64
1, 17682, Note_on_c, 0, 60, 99
1, 17682, Note_on_c, 0, 57, 79
1, 17682, Note_on_c, 5, 72, 97
1, 17682, Note_on_c, 5, 69, 82
1, 17685, Note_on_c, 0, 53, 26
1, 17727, Note_off_c, 11, 45, 64
1, 17750, Note_on_c, 2, 60, 95
1, 17760, Note_off_c, 2, 57, 64
1, 17760, Note_on_c, 11, 48, 98
1, 17760, Note_on_c, 6, 72, 82
1, 17760, Note_on_c, 6, 79, 70
1, 17760, Note_on_c, 9, 51, 87
1, 17760, Note_on_c, 9, 35, 78
1, 17762, Note_off_c, 9, 35, 64
1, 17762, Note_off_c, 9, 51, 64
1, 17762, Note_on_c, 7, 60, 108
1, 17797, Note_off_c, 6, 79, 64
1, 17805, Note_off_c, 7, 60, 64
1, 17820, Note_off_c, 6, 72, 64
1, 17840, Note_off_c, 5, 72, 64
1, 17852, Note_off_c, 2, 60, 64
1, 17852, Note_off_c, 5, 69, 64
1, 17852, Note_off_c, 5, 63, 64
1, 17920, Note_off_c, 0, 60, 64
1, 17920, Note_off_c, 0, 65, 64
1, 17922, Note_on_c, 0, 65, 101
1, 17922, Note_on_c, 0, 60, 100
1, 17927, Note_on_c, 2, 60, 102
1, 17967, Note_off_c, 11, 48, 64
1, 17975, Note_off_c, 0, 57, 64
1, 17995, Note_on_c, 2, 62, 103
1, 18000, Note_on_c, 11, 45, 111
1, 18000, Note_on_c, 9, 51, 113
1, 18000, Note_on_c, 9, 40, 96
1, 18002, Note_off_c, 9, 40, 64
1, 18002, Note_off_c, 9, 51, 64
1, 18015, Note_off_c, 0, 53, 64
1, 18017, Note_off_c, 0, 65, 64
1, 18025, Note_off_c, 2, 60, 64
1, 18027, Note_off_c, 0, 60, 64
1, 18112, Note_off_c, 2, 62, 64
1, 18160, Note_on_c, 9, 51, 76
1, 18162, Note_off_c, 9, 51, 64
1, 18195, Pitch_bend_c, 2, 7723
1, 18207, Note_off_c, 11, 45, 64
1, 18207, Pitch_bend_c, 2, 6553
1, 18220, Pitch_bend_c, 2, 5266
1, 18232, Pitch_bend_c, 2, 4096
1, 18237, Note_on_c, 0, 53, 50
1, 18237, Note_on_c, 3, 75, 113
1, 18240, Note_on_c, 0, 57, 91
1, 18240, Note_on_c, 11, 41, 111
1, 18240, Note_on_c, 2, 63, 106
1, 18240, Pitch_bend_c, 2, 3043
1, 18240, Note_on_c, 9, 51, 93
1, 18240, Note_on_c, 9, 35, 100
1, 18242, Note_off_c, 9, 35, 64
1, 18242, Note_off_c, 9, 51, 64
1, 18242, Note_on_c, 0, 60, 99
1, 18242, Note_on_c, 0, 65, 97
1, 18242, Note_on_c, 6, 72, 85
1, 18242, Note_on_c, 6, 79, 73
1, 18242, Note_on_c, 7, 60, 100
1, 18257, Pitch_bend_c, 2, 2341
1, 18270, Pitch_bend_c, 2, 2107
1, 18275, Note_off_c, 7, 60, 64
1, 18280, Pitch_bend_c, 2, 2341
1, 18292, Note_off_c, 6, 79, 64
1, 18295, Pitch_bend_c, 2, 3043
1, 18297, Note_off_c, 6, 72, 64
1, 18305, Pitch_bend_c, 2, 3979
1, 18320, Pitch_bend_c, 2, 5149
1, 18332, Pitch_bend_c, 2, 6202
1, 18345, Pitch_bend_c, 2, 7138
1, 18357, Pitch_bend_c, 2, 8074
1, 18370, Pitch_bend_c, 2, 8192
1, 18377, Note_off_c, 3, 75, 64
1, 18390, Note_off_c, 0, 65, 64
1, 18397, Note_on_c, 3, 72, 67
1, 18400, Note_off_c, 0, 60, 64
1, 18402, Note_on_c, 0, 65, 78
1, 18402, Note_on_c, 0, 60, 87
1, 18427, Note_off_c, 2, 63, 64
1, 18432, Pitch_bend_c, 2, 7723
1, 18440, Note_off_c, 3, 72, 64
1, 18445, Pitch_bend_c, 2, 6670
1, 18447, Note_off_c, 11, 41, 64
1, 18457, Pitch_bend_c, 2, 5032
1, 18465, Note_off_c, 0, 60, 64
1, 18470, Pitch_bend_c, 2, 3628
1, 18472, Note_off_c, 0, 65, 64
1, 18472, Note_off_c, 0, 57, 64
1, 18477, Note_on_c, 3, 74, 102
1, 18480, Note_on_c, 11, 45, 106
1, 18480, Pitch_bend_c, 2, 2458
1, 18480, Note_on_c, 9, 51, 117
1, 18480, Note_on_c, 9, 40, 96
1, 18482, Note_off_c, 9, 40, 64
1, 18482, Note_off_c, 9, 51, 64
1, 18482, Note_off_c, 0, 53, 64
1, 18492, Note_on_c, 2, 63, 106
1, 18492, Pitch_bend_c, 2, 1756
1, 18507, Pitch_bend_c, 2, 1522
1, 18520, Pitch_bend_c, 2, 1756
1, 18532, Pitch_bend_c, 2, 2458
1, 18545, Pitch_bend_c, 2, 3511
1, 18557, Pitch_bend_c, 2, 4915
1, 18570, Pitch_bend_c, 2, 6085
1, 18580, Pitch_bend_c, 2, 7255
1, 18592, Pitch_bend_c, 2, 8192
1, 18630, Note_off_c, 3, 74, 64
1, 18637, Note_on_c, 0, 65, 99
1, 18637, Note_on_c, 3, 72, 81
1, 18637, Note_on_c, 6, 79, 77
1, 18637, Note_on_c, 6, 72, 84
1, 18637, Note_on_c, 7, 60, 102
1, 18640, Note_on_c, 9, 51, 89
1, 18642, Note_off_c, 9, 51, 64
1, 18642, Note_on_c, 0, 60, 95
1, 18642, Note_on_c, 0, 57, 71
1, 18645, Note_on_c, 0, 53, 19
1, 18677, Note_off_c, 2, 63, 64
1, 18680, Note_off_c, 7, 60, 64
1, 18682, Note_off_c, 3, 72, 64
1, 18687, Note_off_c, 11, 45, 64
1, 18695, Note_off_c, 6, 72, 64
1, 18695, Note_off_c, 6, 79, 64
1, 18707, Pitch_bend_c, 2, 7021
1, 18720, Note_on_c, 11, 48, 104
1, 18720, Pitch_bend_c, 2, 5383
1, 18720, Note_on_c, 3, 74, 104
1, 18720, Note_on_c, 9, 51, 83
1, 18720, Note_on_c, 9, 35, 81
1, 18722, Note_off_c, 9, 35, 64
1, 18722, Note_off_c, 9, 51, 64
1, 18732, Pitch_bend_c, 2, 3862
1, 18737, Note_on_c, 2, 63, 106
1, 18745, Pitch_bend_c, 2, 2575
1, 18757, Pitch_bend_c, 2, 1873
1, 18792, Pitch_bend_c, 2, 2692
1, 18805, Pitch_bend_c, 2, 3979
1, 18817, Pitch_bend_c, 2, 5617
1, 18830, Pitch_bend_c, 2, 7372
1, 18842, Pitch_bend_c, 2, 8192
1, 18877, Note_off_c, 0, 65, 64
1, 18880, Note_off_c, 0, 60, 64
1, 18880, Note_on_c, 0, 65, 98
1, 18880, Note_on_c, 9, 40, 97
1, 18882, Note_off_c, 9, 40, 64
1, 18882, Note_off_c, 0, 53, 64
1, 18882, Note_on_c, 0, 60, 99
1, 18885, Note_on_c, 0, 53, 40
1, 18915, Note_off_c, 2, 63, 64
1, 18927, Note_off_c, 11, 48, 64
1, 18932, Pitch_bend_c, 2, 7840
1, 18937, Note_off_c, 3, 74, 64
1, 18945, Pitch_bend_c, 2, 6202
1, 18950, Note_off_c, 0, 57, 64
1, 18957, Pitch_bend_c, 2, 4447
1, 18957, Note_on_c, 3, 72, 93
1, 18960, Note_on_c, 11, 51, 84
1, 18960, Note_on_c, 9, 40, 97
1, 18962, Note_off_c, 9, 40, 64
1, 18962, Note_off_c, 0, 53, 64
1, 18970, Note_off_c, 0, 60, 64
1, 18970, Pitch_bend_c, 2, 2575
1, 18972, Note_off_c, 0, 65, 64
1, 18982, Pitch_bend_c, 2, 1054
1, 18990, Note_on_c, 2, 63, 102
1, 18995, Pitch_bend_c, 2, 1
1, 19007, Pitch_bend_c, 2, 0
1, 19032, Pitch_bend_c, 2, 118
1, 19045, Pitch_bend_c, 2, 1171
1, 19055, Pitch_bend_c, 2, 2575
1, 19067, Pitch_bend_c, 2, 4447
1, 19080, Pitch_bend_c, 2, 6202
1, 19087, Pitch_bend_c, 7, 14861
1, 19090, Note_off_c, 3, 72, 64
1, 19092, Pitch_bend_c, 2, 7723
1, 19100, Pitch_bend_c, 7, 10649
1, 19105, Pitch_bend_c, 2, 8192
1, 19112, Pitch_bend_c, 7, 8192
1, 19120, Note_on_c, 3, 72, 93
1, 19167, Note_off_c, 11, 51, 64
1, 19197, Note_on_c, 0, 52, 46
1, 19200, Note_on_c, 11, 36, 98
1, 19200, Note_on_c, 9, 51, 93
1, 19200, Note_on_c, 9, 35, 111
1, 19202, Note_off_c, 9, 35, 64
1, 19202, Note_off_c, 9, 51, 64
1, 19202, Note_on_c, 0, 55, 89
1, 19202, Note_on_c, 0, 60, 99
1, 19205, Note_on_c, 0, 64, 75
1, 19212, Note_off_c, 2, 63, 64
1, 19212, Note_on_c, 2, 60, 107
1, 19250, Note_off_c, 3, 72, 64
1, 19350, Note_off_c, 0, 64, 64
1, 19350, Note_off_c, 0, 55, 64
1, 19357, Note_on_c, 6, 79, 77
1, 19357, Note_on_c, 7, 64, 105
1, 19362, Note_off_c, 0, 60, 64
1, 19362, Note_on_c, 0, 64, 96
1, 19362, Note_on_c, 6, 72, 90
1, 19365, Note_on_c, 0, 60, 97
1, 19365, Note_on_c, 0, 55, 63
1, 19395, Pitch_bend_c, 2, 7255
1, 19405, Note_off_c, 0, 55, 64
1, 19407, Note_off_c, 7, 64, 64
1, 19407, Note_off_c, 2, 60, 64
1, 19407, Note_off_c, 11, 36, 64
1, 19407, Pitch_bend_c, 2, 5617
1, 19415, Note_off_c, 6, 79, 64
1, 19420, Pitch_bend_c, 2, 3979
1, 19427, Note_off_c, 6, 72, 64
1, 19432, Note_off_c, 0, 60, 64
1, 19432, Pitch_bend_c, 2, 2575
1, 19440, Note_on_c, 0, 55, 87
1, 19440, Note_on_c, 11, 40, 98
1, 19440, Note_on_c, 9, 51, 121
1, 19440, Note_on_c, 9, 40, 96
1, 19442, Note_off_c, 9, 40, 64
1, 19442, Note_off_c, 9, 51, 64
1, 19445, Pitch_bend_c, 2, 1756
1, 19447, Note_off_c, 0, 64, 64
1, 19455, Note_on_c, 2, 63, 115
1, 19457, Pitch_bend_c, 2, 1522
1, 19467, Note_off_c, 0, 52, 64
1, 19470, Pitch_bend_c, 2, 1873
1, 19480, Note_off_c, 0, 55, 64
1, 19482, Pitch_bend_c, 2, 2809
1, 19497, Pitch_bend_c, 2, 4096
1, 19510, Pitch_bend_c, 2, 5617
1, 19522, Pitch_bend_c, 2, 7255
1, 19535, Pitch_bend_c, 2, 8192
1, 19597, Note_on_c, 0, 64, 101
1, 19600, Note_on_c, 9, 51, 83
1, 19602, Note_off_c, 9, 51, 64
1, 19602, Note_on_c, 0, 60, 97
1, 19602, Note_on_c, 0, 55, 78
1, 19605, Note_off_c, 2, 63, 64
1, 19605, Note_on_c, 0, 52, 33
1, 19615, Note_on_c, 2, 60, 83
1, 19647, Note_off_c, 11, 40, 64
1, 19680, Note_on_c, 11, 43, 98
1, 19680, Note_on_c, 6, 79, 75
1, 19680, Note_on_c, 9, 51, 83
1, 19680, Note_on_c, 9, 35, 102
1, 19682, Note_off_c, 9, 35, 64
1, 19682, Note_off_c, 9, 51, 64
1, 19682, Note_on_c, 6, 72, 88
1, 19682, Note_on_c, 7, 64, 105
1, 19695, Note_off_c, 2, 60, 64
1, 19697, Note_on_c, 2, 63, 102
1, 19730, Note_off_c, 7, 64, 64
1, 19742, Note_off_c, 6, 72, 64
1, 19747, Note_off_c, 6, 79, 64
1, 19837, Note_off_c, 0, 64, 64
1, 19840, Note_off_c, 0, 60, 64
1, 19840, Note_on_c, 0, 64, 104
1, 19840, Note_on_c, 3, 67, 71
1, 19842, Note_on_c, 0, 60, 99
1, 19845, Note_off_c, 2, 63, 64
1, 19862, Note_on_c, 2, 60, 102
1, 19877, Note_off_c, 3, 67, 64
1, 19887, Note_off_c, 11, 43, 64
1, 19892, Note_off_c, 0, 55, 64
1, 19912, Note_off_c, 0, 60, 64
1, 19917, Note_on_c, 3, 69, 98
1, 19920, Note_off_c, 2, 60, 64
1, 19920, Note_on_c, 11, 45, 86
1, 19920, Note_on_c, 9, 51, 121
1, 19920, Note_on_c, 9, 40, 96
1, 19922, Note_off_c, 9, 40, 64
1, 19922, Note_off_c, 9, 51, 64
1, 19922, Note_off_c, 0, 52, 64
1, 19937, Note_off_c, 0, 64, 64
1, 19947, Note_on_c, 2, 63, 118
1, 20065, Note_off_c, 3, 69, 64
1, 20077, Note_on_c, 3, 72, 84
1, 20080, Note_on_c, 9, 51, 79
1, 20082, Note_off_c, 9, 51, 64
1, 20127, Note_off_c, 11, 45, 64
1, 20160, Note_on_c, 0, 52, 43
1, 20160, Note_on_c, 11, 48, 94
1, 20160, Note_on_c, 9, 51, 85
1, 20160, Note_on_c, 9, 35, 94
1, 20162, Note_off_c, 9, 35, 64
1, 20162, Note_off_c, 9, 51, 64
1, 20162, Note_on_c, 0, 55, 86
1, 20162, Note_on_c, 0, 60, 96
1, 20162, Note_on_c, 6, 72, 94
1, 20162, Note_on_c, 6, 79, 77
1, 20162, Note_on_c, 7, 64, 97
1, 20165, Note_on_c, 0, 64, 76
1, 20172, Note_off_c, 2, 63, 64
1, 20197, Note_off_c, 7, 64, 64
1, 20197, Note_on_c, 2, 60, 119
1, 20220, Note_off_c, 6, 72, 64
1, 20222, Note_off_c, 6, 79, 64
1, 20225, Note_off_c, 3, 72, 64
1, 20297, Note_off_c, 0, 64, 64
1, 20312, Note_off_c, 0, 60, 64
1, 20320, Note_on_c, 0, 64, 96
1, 20322, Note_off_c, 2, 60, 64
1, 20322, Note_on_c, 0, 60, 87
1, 20330, Note_on_c, 2, 60, 119
1, 20367, Note_off_c, 11, 48, 64
1, 20380, Note_off_c, 2, 60, 64
1, 20400, Note_on_c, 11, 45, 100
1, 20400, Note_on_c, 2, 60, 103
1, 20400, Note_on_c, 9, 51, 110
1, 20400, Note_on_c, 9, 40, 98
1, 20402, Note_off_c, 9, 40, 64
1, 20402, Note_off_c, 9, 51, 64
1, 20405, Note_off_c, 0, 60, 64
1, 20407, Note_off_c, 0, 64, 64
1, 20417, Note_off_c, 0, 55, 64
1, 20427, Note_off_c, 0, 52, 64
1, 20540, Note_off_c, 2, 60, 64
1, 20557, Note_on_c, 0, 64, 105
1, 20557, Note_on_c, 2, 60, 117
1, 20557, Note_on_c, 6, 79, 78
1, 20557, Note_on_c, 6, 72, 96
1, 20557, Note_on_c, 7, 64, 106
1, 20560, Note_on_c, 9, 51, 98
1, 20562, Note_off_c, 9, 51, 64
1, 20562, Note_on_c, 0, 60, 97
1, 20562, Note_on_c, 0, 55, 85
1, 20602, Note_off_c, 7, 64, 64
1, 20607, Note_off_c, 11, 45, 64
1, 20617, Note_off_c, 6, 79, 64
1, 20622, Note_off_c, 6, 72, 64
1, 20635, Note_on_c, 0, 52, 28
1, 20640, Note_on_c, 11, 43, 96
1, 20640, Note_on_c, 9, 51, 83
1, 20640, Note_on_c, 9, 35, 79
1, 20642, Note_off_c, 9, 35, 64
1, 20642, Note_off_c, 9, 51, 64
1, 20762, Note_off_c, 2, 60, 64
1, 20792, Note_on_c, 2, 60, 92
1, 20795, Note_off_c, 0, 64, 64
1, 20797, Note_on_c, 0, 64, 105
1, 20800, Note_off_c, 0, 55, 64
1, 20800, Note_off_c, 0, 60, 64
1, 20800, Note_on_c, 9, 40, 97
1, 20802, Note_off_c, 9, 40, 64
1, 20802, Note_off_c, 0, 52, 64
1, 20802, Note_on_c, 0, 60, 101
1, 20802, Note_on_c, 0, 55, 92
1, 20805, Note_on_c, 0, 52, 55
1, 20847, Note_off_c, 11, 43, 64
1, 20872, Note_off_c, 0, 60, 64
1, 20880, Note_off_c, 0, 52, 64
1, 20880, Note_on_c, 11, 40, 81
1, 20880, Note_on_c, 9, 40, 99
1, 20882, Note_off_c, 9, 40, 64
1, 20892, Note_off_c, 0, 64, 64
1, 20895, Note_off_c, 0, 55, 64
1, 21015, Note_off_c, 2, 60, 64
1, 21037, Note_on_c, 3, 72, 72
1, 21087, Note_off_c, 11, 40, 64
1, 21095, Note_off_c, 3, 72, 64
1, 21117, Note_on_c, 0, 62, 100
1, 21117, Note_on_c, 0, 59, 86
1, 21117, Note_on_c, 3, 74, 120
1, 21120, Note_on_c, 11, 43, 106
1, 21120, Note_on_c, 9, 51, 87
1, 21120, Note_on_c, 9, 35, 108
1, 21122, Note_off_c, 9, 35, 64
1, 21122, Note_off_c, 9, 51, 64
1, 21122, Note_on_c, 0, 67, 100
1, 21130, Note_on_c, 2, 55, 90
1, 21275, Note_off_c, 0, 67, 64
1, 21277, Note_on_c, 0, 67, 101
1, 21277, Note_on_c, 6, 79, 71
1, 21277, Note_on_c, 6, 71, 91
1, 21277, Note_on_c, 7, 62, 105
1, 21280, Note_off_c, 0, 62, 64
1, 21282, Note_on_c, 0, 62, 99
1, 21305, Note_off_c, 3, 74, 64
1, 21327, Note_off_c, 11, 43, 64
1, 21330, Note_off_c, 7, 62, 64
1, 21330, Note_off_c, 6, 79, 64
1, 21347, Note_off_c, 6, 71, 64
1, 21355, Note_on_c, 2, 58, 96
1, 21357, Note_off_c, 0, 59, 64
1, 21357, Note_on_c, 3, 74, 104
1, 21360, Note_on_c, 11, 47, 94
1, 21360, Note_on_c, 9, 51, 121
1, 21360, Note_on_c, 9, 40, 98
1, 21362, Note_off_c, 9, 40, 64
1, 21362, Note_off_c, 9, 51, 64
1, 21362, Note_on_c, 0, 59, 98
1, 21370, Note_off_c, 0, 67, 64
1, 21370, Note_off_c, 2, 55, 64
1, 21385, Note_off_c, 0, 62, 64
1, 21400, Note_off_c, 0, 59, 64
1, 21482, Note_off_c, 3, 74, 64
1, 21502, Note_on_c, 2, 59, 97
1, 21515, Note_off_c, 2, 58, 64
1, 21517, Note_on_c, 0, 67, 100
1, 21520, Note_on_c, 9, 51, 98
1, 21522, Note_off_c, 9, 51, 64
1, 21522, Note_on_c, 0, 62, 97
1, 21522, Note_on_c, 0, 59, 73
1, 21522, Note_on_c, 3, 74, 81
1, 21567, Note_off_c, 11, 47, 64
1, 21570, Note_off_c, 3, 74, 64
1, 21595, Note_on_c, 2, 62, 109
1, 21600, Note_on_c, 11, 50, 98
1, 21600, Note_on_c, 3, 74, 98
1, 21600, Note_on_c, 7, 62, 105
1, 21600, Note_on_c, 9, 51, 81
1, 21600, Note_on_c, 9, 35, 100
1, 21602, Note_off_c, 9, 35, 64
1, 21602, Note_off_c, 9, 51, 64
1, 21602, Note_on_c, 6, 71, 84
1, 21602, Note_on_c, 6, 79, 76
1, 21610, Note_off_c, 2, 59, 64
1, 21650, Note_off_c, 6, 71, 64
1, 21665, Note_off_c, 6, 79, 64
1, 21672, Note_off_c, 7, 62, 64
1, 21730, Note_off_c, 3, 74, 64
1, 21760, Note_off_c, 0, 59, 64
1, 21760, Note_off_c, 0, 62, 64
1, 21760, Note_off_c, 0, 67, 64
1, 21762, Note_on_c, 0, 67, 101
1, 21762, Note_on_c, 0, 62, 97
1, 21762, Note_on_c, 0, 59, 87
1, 21762, Note_on_c, 3, 74, 90
1, 21765, Note_on_c, 0, 55, 21
1, 21807, Note_off_c, 0, 59, 64
1, 21807, Note_off_c, 11, 50, 64
1, 21812, Note_off_c, 3, 74, 64
1, 21832, Note_on_c, 2, 67, 102
1, 21837, Note_off_c, 0, 55, 64
1, 21840, Note_on_c, 11, 52, 108
1, 21840, Note_on_c, 9, 51, 94
1, 21840, Note_on_c, 9, 40, 104
1, 21842, Note_off_c, 9, 40, 64
1, 21842, Note_off_c, 9, 51, 64
1, 21842, Note_on_c, 3, 74, 94
1, 21852, Note_off_c, 0, 62, 64
1, 21855, Note_off_c, 0, 67, 64
1, 21862, Note_off_c, 2, 62, 64
1, 21912, Note_off_c, 2, 67, 64
1, 21950, Note_off_c, 3, 74, 64
1, 22000, Note_on_c, 9, 51, 93
1, 22002, Note_off_c, 9, 51, 64
1, 22002, Note_on_c, 3, 74, 90
1, 22047, Note_off_c, 11, 52, 64
1, 22060, Note_off_c, 3, 74, 64
1, 22077, Note_on_c, 6, 79, 80
1, 22080, Note_on_c, 0, 57, 101
1, 22080, Note_on_c, 11, 41, 111
1, 22080, Note_on_c, 7, 63, 109
1, 22080, Note_on_c, 9, 51, 83
1, 22080, Note_on_c, 9, 35, 98
1, 22082, Note_off_c, 9, 35, 64
1, 22082, Note_off_c, 9, 51, 64
1, 22082, Note_on_c, 0, 60, 103
1, 22082, Note_on_c, 0, 65, 98
1, 22082, Note_on_c, 3, 75, 116
1, 22082, Note_on_c, 6, 72, 87
1, 22090, Note_on_c, 2, 60, 113
1, 22125, Note_off_c, 7, 63, 64
1, 22137, Note_off_c, 6, 79, 64
1, 22140, Note_off_c, 6, 72, 64
1, 22235, Note_off_c, 0, 65, 64
1, 22242, Note_off_c, 0, 60, 64
1, 22242, Note_on_c, 0, 65, 98
1, 22245, Note_on_c, 0, 60, 97
1, 22260, Note_off_c, 2, 60, 64
1, 22265, Note_off_c, 3, 75, 64
1, 22270, Pitch_bend_c, 2, 7138
1, 22272, Note_off_c, 0, 57, 64
1, 22285, Pitch_bend_c, 2, 5734
1, 22287, Note_off_c, 11, 41, 64
1, 22297, Pitch_bend_c, 2, 4330
1, 22307, Pitch_bend_c, 2, 3043
1, 22315, Note_on_c, 2, 63, 106
1, 22317, Note_on_c, 3, 74, 106
1, 22320, Note_on_c, 11, 45, 89
1, 22320, Pitch_bend_c, 2, 2224
1, 22320, Note_on_c, 9, 51, 113
1, 22320, Note_on_c, 9, 40, 102
1, 22322, Note_off_c, 9, 40, 64
1, 22322, Note_off_c, 9, 51, 64
1, 22322, Note_on_c, 0, 57, 81
1, 22330, Note_off_c, 0, 65, 64
1, 22332, Pitch_bend_c, 2, 1873
1, 22337, Note_off_c, 0, 60, 64
1, 22360, Pitch_bend_c, 2, 2458
1, 22367, Note_off_c, 0, 57, 64
1, 22372, Pitch_bend_c, 2, 3277
1, 22382, Pitch_bend_c, 2, 4447
1, 22397, Pitch_bend_c, 2, 5383
1, 22410, Pitch_bend_c, 2, 6436
1, 22422, Pitch_bend_c, 2, 7255
1, 22435, Pitch_bend_c, 2, 8074
1, 22447, Pitch_bend_c, 2, 8192
1, 22465, Note_off_c, 3, 74, 64
1, 22477, Note_on_c, 0, 65, 98
1, 22477, Note_on_c, 6, 79, 74
1, 22477, Note_on_c, 6, 72, 94
1, 22477, Note_on_c, 7, 63, 115
1, 22480, Note_on_c, 9, 51, 78
1, 22482, Note_off_c, 9, 51, 64
1, 22482, Note_on_c, 0, 60, 97
1, 22482, Note_on_c, 3, 72, 91
1, 22485, Note_on_c, 0, 57, 66
1, 22520, Note_off_c, 2, 63, 64
1, 22522, Pitch_bend_c, 2, 7723
1, 22527, Note_off_c, 11, 45, 64
1, 22530, Note_off_c, 7, 63, 64
1, 22532, Note_off_c, 3, 72, 64
1, 22532, Note_off_c, 6, 79, 64
1, 22532, Pitch_bend_c, 2, 7021
1, 22540, Note_off_c, 6, 72, 64
1, 22545, Pitch_bend_c, 2, 5968
1, 22557, Pitch_bend_c, 2, 5032
1, 22560, Note_on_c, 11, 48, 100
1, 22560, Note_on_c, 9, 51, 87
1, 22560, Note_on_c, 9, 35, 98
1, 22562, Note_off_c, 9, 35, 64
1, 22562, Note_off_c, 9, 51, 64
1, 22562, Note_on_c, 3, 74, 106
1, 22570, Pitch_bend_c, 2, 4096
1, 22575, Note_on_c, 2, 63, 104
1, 22582, Pitch_bend_c, 2, 3511
1, 22595, Pitch_bend_c, 2, 3277
1, 22620, Pitch_bend_c, 2, 3628
1, 22632, Pitch_bend_c, 2, 4447
1, 22645, Pitch_bend_c, 2, 5383
1, 22657, Pitch_bend_c, 2, 6436
1, 22670, Pitch_bend_c, 2, 7372
1, 22682, Pitch_bend_c, 2, 8192
1, 22720, Note_off_c, 0, 60, 64
1, 22720, Note_off_c, 0, 65, 64
1, 22720, Note_on_c, 9, 40, 85
1, 22722, Note_off_c, 9, 40, 64
1, 22722, Note_off_c, 0, 57, 64
1, 22722, Note_on_c, 0, 65, 84
1, 22722, Note_on_c, 0, 60, 91
1, 22725, Note_on_c, 0, 57, 67
1, 22747, Pitch_bend_c, 2, 8074
1, 22755, Note_off_c, 2, 63, 64
1, 22760, Pitch_bend_c, 2, 7021
1, 22767, Note_off_c, 11, 48, 64
1, 22772, Note_off_c, 0, 57, 64
1, 22772, Pitch_bend_c, 2, 5617
1, 22782, Note_off_c, 3, 74, 64
1, 22785, Pitch_bend_c, 2, 4330
1, 22792, Note_off_c, 0, 60, 64
1, 22797, Pitch_bend_c, 2, 3160
1, 22797, Note_on_c, 3, 72, 93
1, 22800, Note_on_c, 11, 50, 96
1, 22800, Note_on_c, 9, 40, 93
1, 22802, Note_off_c, 9, 40, 64
1, 22810, Pitch_bend_c, 2, 2224
1, 22810, Note_on_c, 2, 63, 106
1, 22820, Note_off_c, 0, 65, 64
1, 22822, Pitch_bend_c, 2, 1873
1, 22845, Pitch_bend_c, 2, 2575
1, 22857, Pitch_bend_c, 2, 3628
1, 22870, Pitch_bend_c, 2, 5032
1, 22882, Pitch_bend_c, 2, 6319
1, 22895, Pitch_bend_c, 2, 7606
1, 22907, Pitch_bend_c, 2, 8192
1, 22915, Note_off_c, 3, 72, 64
1, 22957, Note_on_c, 3, 72, 101
1, 23007, Note_off_c, 11, 50, 64
1, 23032, Note_off_c, 2, 63, 64
1, 23037, Note_on_c, 0, 48, 16
1, 23040, Note_on_c, 0, 52, 61
1, 23040, Note_on_c, 11, 36, 96
1, 23040, Note_on_c, 9, 51, 95
1, 23040, Note_on_c, 9, 35, 119
1, 23042, Note_off_c, 9, 35, 64
1, 23042, Note_off_c, 9, 51, 64
1, 23042, Note_on_c, 0, 55, 74
1, 23042, Note_on_c, 0, 60, 101
1, 23045, Note_on_c, 0, 64, 88
1, 23055, Note_on_c, 2, 60, 111
1, 23062, Note_off_c, 3, 72, 64
1, 23175, Note_off_c, 0, 64, 64
1, 23197, Note_off_c, 0, 60, 64
1, 23197, Note_on_c, 6, 79, 78
1, 23197, Note_on_c, 6, 72, 89
1, 23197, Note_on_c, 7, 64, 109
1, 23202, Note_on_c, 0, 64, 87
1, 23202, Note_on_c, 0, 60, 76
1, 23210, Note_off_c, 2, 60, 64
1, 23247, Note_off_c, 11, 36, 64
1, 23255, Note_off_c, 6, 72, 64
1, 23260, Note_off_c, 7, 64, 64
1, 23260, Note_off_c, 6, 79, 64
1, 23280, Note_on_c, 11, 40, 85
1, 23280, Note_on_c, 9, 51, 110
1, 23280, Note_on_c, 9, 40, 106
1, 23282, Note_off_c, 9, 40, 64
1, 23282, Note_off_c, 9, 51, 64
1, 23285, Note_off_c, 0, 64, 64
1, 23297, Note_off_c, 0, 55, 64
1, 23297, Note_off_c, 0, 48, 64
1, 23302, Note_off_c, 0, 60, 64
1, 23307, Note_off_c, 0, 52, 64
1, 23420, Note_on_c, 2, 60, 102
1, 23437, Note_on_c, 0, 64, 99
1, 23440, Note_on_c, 9, 51, 64
1, 23442, Note_off_c, 9, 51, 64
1, 23442, Note_on_c, 0, 55, 70
1, 23442, Note_on_c, 0, 60, 91
1, 23487, Note_off_c, 11, 40, 64
1, 23515, Note_on_c, 0, 52, 16
1, 23520, Note_on_c, 11, 43, 104
1, 23520, Note_on_c, 6, 79, 75
1, 23520, Note_on_c, 9, 51, 78
1, 23520, Note_on_c, 9, 35, 80
1, 23522, Note_off_c, 9, 35, 64
1, 23522, Note_off_c, 9, 51, 64
1, 23522, Note_on_c, 6, 72, 90
1, 23522, Note_on_c, 7, 64, 110
1, 23582, Note_off_c, 6, 79, 64
1, 23590, Note_off_c, 6, 72, 64
1, 23595, Note_off_c, 7, 64, 64
1, 23660, Note_off_c, 0, 60, 64
1, 23675, Note_off_c, 0, 64, 64
1, 23677, Note_on_c, 0, 64, 97
1, 23682, Note_on_c, 0, 60, 87
1, 23727, Note_off_c, 11, 43, 64
1, 23732, Note_off_c, 0, 55, 64
1, 23760, Note_on_c, 11, 45, 92
1, 23760, Note_on_c, 9, 51, 121
1, 23760, Note_on_c, 9, 40, 100
1, 23762, Note_off_c, 9, 40, 64
1, 23762, Note_off_c, 9, 51, 64
1, 23765, Note_off_c, 0, 64, 64
1, 23780, Note_off_c, 0, 60, 64
1, 23785, Note_off_c, 2, 60, 64
1, 23807, Note_off_c, 0, 52, 64
1, 23915, Note_on_c, 0, 64, 72
1, 23920, Note_on_c, 9, 51, 89
1, 23922, Note_off_c, 9, 51, 64
1, 23967, Note_off_c, 11, 45, 64
1, 23997, Note_on_c, 0, 55, 80
1, 23997, Note_on_c, 6, 79, 77
1, 24000, Note_off_c, 0, 64, 64
1, 24000, Note_on_c, 11, 48, 88
1, 24000, Note_on_c, 6, 72, 90
1, 24000, Note_on_c, 9, 51, 78
1, 24000, Note_on_c, 9, 35, 104
1, 24002, Note_off_c, 9, 35, 64
1, 24002, Note_off_c, 9, 51, 64
1, 24002, Note_on_c, 0, 64, 72
1, 24002, Note_on_c, 0, 60, 99
1, 24002, Note_on_c, 7, 64, 106
1, 24055, Note_off_c, 6, 79, 64
1, 24057, Note_off_c, 6, 72, 64
1, 24065, Note_off_c, 7, 64, 64
1, 24140, Note_off_c, 0, 64, 64
1, 24157, Note_on_c, 0, 64, 81
1, 24207, Note_off_c, 11, 48, 64
1, 24212, Note_off_c, 0, 60, 64
1, 24237, Note_off_c, 0, 64, 64
1, 24240, Note_on_c, 11, 45, 94
1, 24240, Note_on_c, 9, 51, 121
1, 24240, Note_on_c, 9, 40, 98
1, 24242, Note_off_c, 9, 40, 64
1, 24242, Note_off_c, 9, 51, 64
1, 24272, Note_off_c, 0, 55, 64
1, 24395, Note_on_c, 0, 64, 103
1, 24397, Note_on_c, 0, 55, 91
1, 24397, Note_on_c, 6, 79, 85
1, 24397, Note_on_c, 6, 72, 92
1, 24397, Note_on_c, 7, 64, 109
1, 24400, Note_on_c, 9, 51, 87
1, 24402, Note_off_c, 9, 51, 64
1, 24402, Note_on_c, 0, 60, 104
1, 24402, Note_on_c, 0, 52, 41
1, 24435, Note_off_c, 6, 79, 64
1, 24447, Note_off_c, 11, 45, 64
1, 24452, Note_off_c, 6, 72, 64
1, 24460, Note_off_c, 0, 55, 64
1, 24462, Note_off_c, 7, 64, 64
1, 24472, Note_off_c, 0, 52, 64
1, 24475, Note_off_c, 0, 60, 64
1, 24480, Note_on_c, 11, 43, 106
1, 24480, Note_on_c, 9, 51, 85
1, 24480, Note_on_c, 9, 35, 96
1, 24482, Note_off_c, 9, 35, 64
1, 24482, Note_off_c, 9, 51, 64
1, 24495, Note_off_c, 0, 64, 64
1, 24627, Note_on_c, 2, 63, 127
1, 24637, Note_on_c, 0, 64, 103
1, 24640, Note_on_c, 9, 40, 102
1, 24642, Note_off_c, 9, 40, 64
1, 24642, Note_on_c, 0, 60, 99
1, 24642, Note_on_c, 0, 55, 71
1, 24687, Note_off_c, 11, 43, 64
1, 24695, Note_off_c, 0, 55, 64
1, 24712, Note_off_c, 0, 60, 64
1, 24715, Note_on_c, 0, 52, 16
1, 24717, Note_off_c, 0, 64, 64
1, 24717, Note_on_c, 0, 55, 99
1, 24720, Note_on_c, 0, 60, 104
1, 24720, Note_on_c, 0, 64, 106
1, 24720, Note_on_c, 11, 40, 102
1, 24720, Note_on_c, 9, 40, 111
1, 24722, Note_off_c, 9, 40, 64
1, 24750, Note_on_c, 2, 64, 103
1, 24757, Note_off_c, 2, 63, 64
1, 24862, Note_off_c, 0, 60, 64
1, 24867, Note_off_c, 2, 64, 64
1, 24867, Note_off_c, 0, 55, 64
1, 24870, Note_off_c, 0, 64, 64
1, 24872, Note_on_c, 2, 67, 127
1, 24887, Note_off_c, 0, 52, 64
1, 24927, Note_off_c, 11, 40, 64
1, 24960, Note_on_c, 11, 36, 106
1, 24960, Note_on_c, 9, 42, 104
1, 24960, Note_on_c, 9, 40, 106
1, 24960, Note_on_c, 9, 35, 88
1, 24962, Note_off_c, 9, 35, 64
1, 24962, Note_off_c, 9, 40, 64
1, 24962, Note_off_c, 9, 42, 64
1, 24962, Note_on_c, 0, 55, 90
1, 24965, Note_on_c, 0, 60, 101
1, 24965, Note_on_c, 0, 64, 103
1, 24970, Note_on_c, 2, 72, 127
1, 24975, Note_off_c, 2, 67, 64
1, 25065, Note_off_c, 2, 72, 64
1, 25092, Note_on_c, 2, 72, 97
1, 25097, Note_off_c, 0, 64, 64
1, 25105, Note_off_c, 0, 60, 64
1, 25112, Note_off_c, 0, 55, 64
1, 25167, Note_off_c, 11, 36, 64
1, 25177, Note_off_c, 2, 72, 64
1, 25207, Note_on_c, 2, 72, 119
1, 25302, Note_off_c, 2, 72, 64
1, 25330, Note_on_c, 2, 72, 99
1, 25415, Note_off_c, 2, 72, 64
1, 25447, Note_on_c, 2, 72, 127
1, 25542, Note_off_c, 2, 72, 64
1, 25555, Note_on_c, 2, 72, 100
1, 25650, Note_off_c, 2, 72, 64
1, 25680, Note_on_c, 2, 72, 109
1, 25782, Note_off_c, 2, 72, 64
1, 25802, Note_on_c, 2, 72, 95
1, 25892, Note_off_c, 2, 72, 64
1, 25917, Note_on_c, 2, 72, 127
1, 26020, Note_off_c, 2, 72, 64
1, 26037, Note_on_c, 2, 72, 90
1, 26132, Note_off_c, 2, 72, 64
1, 26155, Note_on_c, 2, 72, 115
1, 26252, Note_off_c, 2, 72, 64
1, 26272, Note_on_c, 2, 72, 100
1, 26370, Note_off_c, 2, 72, 64
1, 26395, Note_on_c, 2, 72, 127
1, 26500, Note_off_c, 2, 72, 64
1, 26510, Note_on_c, 2, 72, 111
1, 26610, Note_off_c, 2, 72, 64
1, 26630, Note_on_c, 2, 72, 127
1, 26730, Note_off_c, 2, 72, 64
1, 26750, Note_on_c, 2, 72, 122
1, 26847, Note_off_c, 2, 72, 64
1, 26860, Note_on_c, 2, 71, 115
1, 26992, Note_on_c, 2, 72, 97
1, 27000, Note_off_c, 2, 71, 64
1, 27082, Note_off_c, 2, 72, 64
1, 27115, Note_on_c, 2, 66, 116
1, 27232, Note_on_c, 2, 67, 91
1, 27242, Note_off_c, 2, 66, 64
1, 27330, Note_off_c, 2, 67, 64
1, 27362, Note_on_c, 2, 63, 107
1, 27487, Note_on_c, 2, 64, 93
1, 27492, Note_off_c, 2, 63, 64
1, 27570, Note_off_c, 2, 64, 64
1, 27612, Note_on_c, 2, 59, 114
1, 27730, Note_on_c, 2, 60, 99
1, 27745, Note_off_c, 2, 59, 64
1, 27810, Note_off_c, 2, 60, 64
1, 27842, Note_on_c, 7, 60, 122
1, 27845, Note_on_c, 2, 55, 100
1, 28075, Pitch_bend_c, 7, 8309
1, 28097, Pitch_bend_c, 2, 8426
1, 28110, Pitch_bend_c, 2, 8660
1, 28110, Pitch_bend_c, 7, 8426
1, 28122, Pitch_bend_c, 2, 9011
1, 28122, Pitch_bend_c, 7, 8777
1, 28135, Pitch_bend_c, 2, 9245
1, 28135, Pitch_bend_c, 7, 9011
1, 28147, Pitch_bend_c, 2, 9479
1, 28160, Pitch_bend_c, 2, 9596
1, 28160, Pitch_bend_c, 7, 9362
1, 28185, Pitch_bend_c, 7, 9479
1, 28197, Pitch_bend_c, 7, 9713
1, 28207, Pitch_bend_c, 7, 9947
1, 28220, Pitch_bend_c, 7, 10181
1, 28232, Pitch_bend_c, 7, 10415
1, 28235, Pitch_bend_c, 2, 9830
1, 28247, Pitch_bend_c, 2, 10181
1, 28257, Pitch_bend_c, 7, 10532
1, 28260, Pitch_bend_c, 2, 10649
1, 28272, Pitch_bend_c, 2, 11117
1, 28285, Pitch_bend_c, 2, 11702
1, 28295, Pitch_bend_c, 7, 10766
1, 28297, Pitch_bend_c, 2, 12053
1, 28307, Pitch_bend_c, 7, 10883
1, 28332, Pitch_bend_c, 7, 11117
1, 28370, Pitch_bend_c, 2, 11819
1, 28370, Pitch_bend_c, 7, 11351
1, 28382, Pitch_bend_c, 2, 11585
1, 28382, Pitch_bend_c, 7, 11585
1, 28407, Pitch_bend_c, 7, 11936
1, 28410, Pitch_bend_c, 2, 11351
1, 28422, Pitch_bend_c, 2, 11117
1, 28442, Pitch_bend_c, 7, 12053
1, 28447, Pitch_bend_c, 2, 10883
1, 28470, Pitch_bend_c, 7, 12287
1, 28480, Note_on_c, 9, 40, 92
1, 28482, Note_off_c, 9, 40, 64
1, 28482, Pitch_bend_c, 2, 10766
1, 28492, Pitch_bend_c, 7, 12521
1, 28505, Pitch_bend_c, 7, 12755
1, 28507, Pitch_bend_c, 2, 10415
1, 28522, Pitch_bend_c, 2, 10181
1, 28530, Pitch_bend_c, 7, 12989
1, 28547, Pitch_bend_c, 2, 9830
1, 28557, Note_on_c, 3, 75, 107
1, 28560, Note_on_c, 9, 40, 94
1, 28562, Note_off_c, 9, 40, 64
1, 28567, Pitch_bend_c, 7, 13223
1, 28572, Pitch_bend_c, 2, 9596
1, 28585, Pitch_bend_c, 2, 9362
1, 28590, Pitch_bend_c, 7, 13340
1, 28597, Pitch_bend_c, 2, 8894
1, 28610, Pitch_bend_c, 2, 8309
1, 28622, Pitch_bend_c, 2, 8192
1, 28630, Pitch_bend_c, 7, 13574
1, 28642, Pitch_bend_c, 7, 13691
1, 28655, Pitch_bend_c, 7, 13925
1, 28667, Pitch_bend_c, 7, 14042
1, 28680, Pitch_bend_c, 7, 14510
1, 28687, Note_off_c, 2, 55, 64
1, 28692, Pitch_bend_c, 7, 15212
1, 28700, Note_off_c, 3, 75, 64
1, 28705, Pitch_bend_c, 7, 16265
1, 28717, Note_on_c, 3, 72, 101
1, 28717, Pitch_bend_c, 7, 16383
1, 28800, Note_on_c, 0, 57, 74
1, 28800, Note_on_c, 11, 41, 106
1, 28800, Note_on_c, 2, 53, 111
1, 28800, Note_on_c, 9, 51, 94
1, 28800, Note_on_c, 9, 35, 96
1, 28802, Note_off_c, 9, 35, 64
1, 28802, Note_off_c, 9, 51, 64
1, 28802, Note_on_c, 0, 60, 91
1, 28802, Note_on_c, 0, 65, 90
1, 28842, Note_off_c, 3, 72, 64
1, 28900, Note_off_c, 7, 60, 64
1, 28902, Note_off_c, 2, 53, 64
1, 28940, Note_off_c, 0, 65, 64
1, 28957, Note_on_c, 6, 79, 82
1, 28957, Note_on_c, 6, 72, 80
1, 28960, Note_on_c, 7, 60, 96
1, 28962, Note_off_c, 0, 60, 64
1, 28962, Note_off_c, 0, 57, 64
1, 28962, Note_on_c, 0, 65, 87
1, 28965, Note_on_c, 0, 60, 94
1, 28965, Note_on_c, 0, 57, 61
1, 28967, Note_on_c, 2, 53, 95
1, 29005, Note_off_c, 7, 60, 64
1, 29007, Note_off_c, 11, 41, 64
1, 29015, Note_off_c, 6, 79, 64
1, 29020, Note_off_c, 6, 72, 64
1, 29027, Note_off_c, 0, 57, 64
1, 29037, Note_off_c, 0, 60, 64
1, 29040, Note_on_c, 11, 45, 104
1, 29040, Note_on_c, 5, 65, 89
1, 29040, Note_on_c, 5, 74, 93
1, 29040, Note_on_c, 5, 70, 96
1, 29040, Note_on_c, 9, 51, 110
1, 29040, Note_on_c, 9, 40, 86
1, 29042, Note_off_c, 9, 40, 64
1, 29042, Note_off_c, 9, 51, 64
1, 29042, Note_off_c, 0, 65, 64
1, 29055, Note_on_c, 2, 57, 113
1, 29067, Note_off_c, 2, 53, 64
1, 29150, Note_off_c, 2, 57, 64
1, 29180, Note_off_c, 5, 70, 64
1, 29190, Note_off_c, 5, 74, 64
1, 29197, Note_on_c, 0, 65, 99
1, 29200, Note_on_c, 5, 63, 102
1, 29200, Note_on_c, 9, 51, 81
1, 29202, Note_off_c, 9, 51, 64
1, 29202, Note_on_c, 0, 60, 94
1, 29202, Note_on_c, 5, 72, 87
1, 29202, Note_on_c, 5, 69, 93
1, 29205, Note_on_c, 0, 57, 79
1, 29205, Note_on_c, 0, 53, 26
1, 29210, Note_on_c, 2, 57, 102
1, 29215, Note_off_c, 5, 65, 64
1, 29247, Note_off_c, 11, 45, 64
1, 29277, Note_on_c, 6, 79, 75
1, 29280, Note_on_c, 11, 48, 106
1, 29280, Note_on_c, 6, 72, 82
1, 29280, Note_on_c, 9, 51, 101
1, 29280, Note_on_c, 9, 35, 89
1, 29282, Note_off_c, 9, 35, 64
1, 29282, Note_off_c, 9, 51, 64
1, 29282, Note_on_c, 7, 60, 108
1, 29310, Note_on_c, 2, 60, 105
1, 29325, Note_off_c, 7, 60, 64
1, 29335, Note_off_c, 6, 79, 64
1, 29340, Note_off_c, 6, 72, 64
1, 29342, Note_off_c, 2, 57, 64
1, 29362, Note_off_c, 5, 69, 64
1, 29367, Note_off_c, 5, 72, 64
1, 29382, Note_off_c, 5, 63, 64
1, 29412, Note_off_c, 2, 60, 64
1, 29440, Note_off_c, 0, 65, 64
1, 29442, Note_off_c, 0, 57, 64
1, 29442, Note_off_c, 0, 60, 64
1, 29442, Note_on_c, 0, 65, 99
1, 29445, Note_on_c, 0, 60, 98
1, 29445, Note_on_c, 0, 57, 70
1, 29452, Note_on_c, 2, 60, 93
1, 29487, Note_off_c, 11, 48, 64
1, 29502, Note_off_c, 0, 60, 64
1, 29510, Note_off_c, 0, 57, 64
1, 29510, Note_off_c, 0, 53, 64
1, 29515, Note_off_c, 0, 65, 64
1, 29520, Note_on_c, 11, 45, 114
1, 29520, Note_on_c, 9, 51, 110
1, 29520, Note_on_c, 9, 40, 89
1, 29522, Note_off_c, 9, 40, 64
1, 29522, Note_off_c, 9, 51, 64
1, 29550, Note_on_c, 2, 62, 111
1, 29577, Note_off_c, 2, 60, 64
1, 29645, Note_off_c, 2, 62, 64
1, 29680, Note_on_c, 9, 51, 78
1, 29682, Note_off_c, 9, 51, 64
1, 29697, Note_on_c, 2, 62, 115
1, 29727, Note_off_c, 11, 45, 64
1, 29750, Pitch_bend_c, 2, 5266
1, 29752, Note_on_c, 2, 63, 112
1, 29757, Note_on_c, 3, 75, 104
1, 29757, Note_on_c, 6, 79, 71
1, 29760, Note_on_c, 0, 57, 85
1, 29760, Note_on_c, 11, 41, 102
1, 29760, Note_on_c, 9, 51, 79
1, 29760, Note_on_c, 9, 35, 86
1, 29762, Note_off_c, 9, 35, 64
1, 29762, Note_off_c, 9, 51, 64
1, 29762, Note_on_c, 0, 60, 98
1, 29762, Note_on_c, 0, 65, 94
1, 29762, Note_on_c, 6, 72, 85
1, 29762, Note_on_c, 7, 60, 100
1, 29765, Note_on_c, 0, 53, 37
1, 29765, Pitch_bend_c, 2, 4330
1, 29772, Pitch_bend_c, 2, 3745
1, 29785, Note_off_c, 2, 62, 64
1, 29785, Pitch_bend_c, 2, 3511
1, 29795, Note_off_c, 7, 60, 64
1, 29802, Note_off_c, 6, 79, 64
1, 29810, Pitch_bend_c, 2, 3979
1, 29817, Note_off_c, 6, 72, 64
1, 29822, Pitch_bend_c, 2, 4798
1, 29835, Pitch_bend_c, 2, 5851
1, 29847, Pitch_bend_c, 2, 7021
1, 29857, Pitch_bend_c, 2, 8192
1, 29905, Note_off_c, 3, 75, 64
1, 29910, Note_off_c, 0, 65, 64
1, 29917, Note_on_c, 3, 72, 72
1, 29920, Note_off_c, 0, 60, 64
1, 29922, Note_off_c, 0, 57, 64
1, 29922, Note_on_c, 0, 65, 100
1, 29922, Note_on_c, 0, 60, 97
1, 29925, Note_on_c, 0, 57, 78
1, 29947, Note_off_c, 2, 63, 64
1, 29965, Note_off_c, 3, 72, 64
1, 29967, Note_off_c, 0, 57, 64
1, 29967, Note_off_c, 11, 41, 64
1, 29982, Note_off_c, 0, 60, 64
1, 29997, Note_on_c, 3, 75, 107
1, 30000, Note_on_c, 11, 45, 111
1, 30000, Pitch_bend_c, 2, 5149
1, 30000, Note_on_c, 9, 51, 113
1, 30000, Note_on_c, 9, 40, 85
1, 30002, Note_off_c, 9, 40, 64
1, 30002, Note_off_c, 9, 51, 64
1, 30002, Note_off_c, 0, 65, 64
1, 30002, Note_off_c, 0, 53, 64
1, 30002, Note_on_c, 2, 63, 104
1, 30010, Pitch_bend_c, 2, 4447
1, 30022, Pitch_bend_c, 2, 4213
1, 30047, Pitch_bend_c, 2, 4330
1, 30060, Pitch_bend_c, 2, 4915
1, 30072, Pitch_bend_c, 2, 5734
1, 30085, Pitch_bend_c, 2, 7021
1, 30097, Pitch_bend_c, 2, 8192
1, 30157, Note_on_c, 0, 65, 95
1, 30157, Note_on_c, 0, 60, 97
1, 30157, Note_on_c, 6, 79, 77
1, 30157, Note_on_c, 6, 72, 84
1, 30157, Note_on_c, 7, 60, 102
1, 30160, Note_on_c, 9, 51, 84
1, 30162, Note_off_c, 9, 51, 64
1, 30162, Note_on_c, 0, 57, 81
1, 30162, Note_on_c, 3, 72, 68
1, 30165, Note_off_c, 3, 75, 64
1, 30165, Note_on_c, 0, 53, 38
1, 30192, Note_off_c, 2, 63, 64
1, 30197, Note_off_c, 3, 72, 64
1, 30200, Note_off_c, 7, 60, 64
1, 30207, Note_off_c, 11, 45, 64
1, 30215, Note_off_c, 6, 72, 64
1, 30217, Note_off_c, 6, 79, 64
1, 30235, Pitch_bend_c, 2, 2575
1, 30240, Note_on_c, 11, 48, 89
1, 30240, Note_on_c, 2, 63, 102
1, 30240, Pitch_bend_c, 2, 2224
1, 30240, Note_on_c, 3, 74, 97
1, 30240, Note_on_c, 9, 51, 89
1, 30240, Note_on_c, 9, 35, 89
1, 30242, Note_off_c, 9, 35, 64
1, 30242, Note_off_c, 9, 51, 64
1, 30285, Pitch_bend_c, 2, 3043
1, 30297, Pitch_bend_c, 2, 4096
1, 30310, Pitch_bend_c, 2, 5500
1, 30322, Pitch_bend_c, 2, 7021
1, 30335, Pitch_bend_c, 2, 8192
1, 30397, Note_off_c, 0, 65, 64
1, 30400, Note_off_c, 0, 60, 64
1, 30400, Note_on_c, 0, 65, 100
1, 30400, Note_on_c, 9, 40, 88
1, 30402, Note_off_c, 9, 40, 64
1, 30402, Note_on_c, 0, 60, 100
1, 30430, Note_off_c, 2, 63, 64
1, 30447, Note_off_c, 11, 48, 64
1, 30452, Note_off_c, 3, 74, 64
1, 30477, Note_off_c, 0, 65, 64
1, 30477, Note_off_c, 0, 53, 64
1, 30477, Note_on_c, 3, 72, 101
1, 30480, Note_on_c, 11, 51, 98
1, 30480, Note_on_c, 9, 40, 77
1, 30482, Note_off_c, 9, 40, 64
1, 30482, Note_off_c, 0, 60, 64
1, 30482, Pitch_bend_c, 2, 3277
1, 30487, Note_off_c, 0, 57, 64
1, 30490, Note_on_c, 2, 63, 109
1, 30497, Pitch_bend_c, 2, 2809
1, 30510, Pitch_bend_c, 2, 2692
1, 30535, Pitch_bend_c, 2, 3043
1, 30547, Pitch_bend_c, 2, 3862
1, 30560, Pitch_bend_c, 2, 4915
1, 30572, Pitch_bend_c, 2, 6085
1, 30585, Pitch_bend_c, 2, 7138
1, 30597, Pitch_bend_c, 2, 8192
1, 30607, Pitch_bend_c, 7, 14861
1, 30610, Note_off_c, 3, 72, 64
1, 30620, Pitch_bend_c, 7, 10649
1, 30632, Pitch_bend_c, 7, 8192
1, 30637, Note_on_c, 3, 72, 91
1, 30687, Note_off_c, 11, 51, 64
1, 30717, Note_on_c, 0, 52, 47
1, 30720, Note_on_c, 0, 55, 88
1, 30720, Note_on_c, 11, 36, 114
1, 30720, Note_on_c, 2, 60, 84
1, 30720, Note_on_c, 9, 51, 72
1, 30720, Note_on_c, 9, 35, 81
1, 30722, Note_off_c, 9, 35, 64
1, 30722, Note_off_c, 9, 51, 64
1, 30722, Note_off_c, 2, 63, 64
1, 30722, Note_on_c, 0, 60, 99
1, 30722, Note_on_c, 0, 64, 88
1, 30755, Note_off_c, 3, 72, 64
1, 30857, Note_off_c, 0, 64, 64
1, 30875, Note_off_c, 0, 60, 64
1, 30877, Note_on_c, 0, 64, 76
1, 30877, Note_on_c, 7, 64, 105
1, 30880, Note_on_c, 6, 79, 64
1, 30882, Note_on_c, 0, 60, 79
1, 30882, Note_on_c, 6, 72, 90
1, 30915, Note_off_c, 6, 79, 64
1, 30927, Note_off_c, 7, 64, 64
1, 30927, Note_off_c, 11, 36, 64
1, 30947, Note_off_c, 6, 72, 64
1, 30955, Note_off_c, 0, 60, 64
1, 30955, Note_on_c, 2, 63, 109
1, 30960, Note_on_c, 11, 40, 98
1, 30960, Note_on_c, 9, 51, 110
1, 30960, Note_on_c, 9, 40, 92
1, 30962, Note_off_c, 9, 40, 64
1, 30962, Note_off_c, 9, 51, 64
1, 30962, Note_off_c, 0, 64, 64
1, 30962, Note_off_c, 2, 60, 64
1, 30985, Note_off_c, 0, 52, 64
1, 30997, Note_off_c, 0, 55, 64
1, 31117, Note_on_c, 0, 64, 98
1, 31120, Note_on_c, 9, 51, 86
1, 31122, Note_off_c, 9, 51, 64
1, 31122, Note_on_c, 0, 60, 101
1, 31122, Note_on_c, 0, 55, 83
1, 31127, Note_on_c, 2, 62, 92
1, 31135, Note_off_c, 2, 63, 64
1, 31167, Note_off_c, 11, 40, 64
1, 31200, Note_on_c, 11, 43, 104
1, 31200, Note_on_c, 9, 51, 93
1, 31200, Note_on_c, 9, 35, 86
1, 31202, Note_off_c, 9, 35, 64
1, 31202, Note_off_c, 9, 51, 64
1, 31202, Note_on_c, 6, 72, 88
1, 31202, Note_on_c, 6, 79, 73
1, 31202, Note_on_c, 7, 64, 105
1, 31215, Note_on_c, 2, 63, 94
1, 31240, Note_off_c, 2, 62, 64
1, 31250, Note_off_c, 7, 64, 64
1, 31257, Note_off_c, 6, 79, 64
1, 31262, Note_off_c, 6, 72, 64
1, 31357, Note_off_c, 0, 60, 64
1, 31360, Note_off_c, 0, 64, 64
1, 31362, Note_on_c, 0, 64, 104
1, 31362, Note_on_c, 0, 60, 97
1, 31362, Note_on_c, 3, 67, 72
1, 31375, Note_on_c, 2, 62, 102
1, 31377, Note_off_c, 2, 63, 64
1, 31407, Note_off_c, 11, 43, 64
1, 31420, Note_off_c, 3, 67, 64
1, 31440, Note_on_c, 11, 45, 91
1, 31440, Note_on_c, 3, 69, 92
1, 31440, Note_on_c, 9, 51, 121
1, 31440, Note_on_c, 9, 40, 91
1, 31442, Note_off_c, 9, 40, 64
1, 31442, Note_off_c, 9, 51, 64
1, 31457, Note_off_c, 0, 64, 64
1, 31462, Note_off_c, 0, 55, 64
1, 31480, Note_off_c, 0, 60, 64
1, 31482, Note_off_c, 2, 62, 64
1, 31482, Note_on_c, 2, 63, 98
1, 31582, Note_off_c, 3, 69, 64
1, 31600, Note_on_c, 9, 51, 79
1, 31602, Note_off_c, 9, 51, 64
1, 31602, Note_on_c, 3, 72, 89
1, 31612, Note_on_c, 2, 62, 103
1, 31645, Note_off_c, 2, 63, 64
1, 31647, Note_off_c, 11, 45, 64
1, 31680, Note_on_c, 11, 48, 98
1, 31680, Note_on_c, 6, 79, 75
1, 31680, Note_on_c, 9, 51, 78
1, 31680, Note_on_c, 9, 35, 81
1, 31682, Note_off_c, 9, 35, 64
1, 31682, Note_off_c, 9, 51, 64
1, 31682, Note_on_c, 0, 55, 80
1, 31682, Note_on_c, 0, 52, 32
1, 31682, Note_on_c, 6, 72, 94
1, 31682, Note_on_c, 7, 64, 97
1, 31685, Note_on_c, 0, 64, 91
1, 31685, Note_on_c, 0, 60, 100
1, 31700, Note_off_c, 2, 62, 64
1, 31715, Note_on_c, 2, 60, 111
1, 31717, Note_off_c, 7, 64, 64
1, 31717, Note_off_c, 3, 72, 64
1, 31732, Note_off_c, 6, 79, 64
1, 31740, Note_off_c, 6, 72, 64
1, 31817, Note_off_c, 2, 60, 64
1, 31817, Note_off_c, 0, 60, 64
1, 31817, Note_off_c, 0, 64, 64
1, 31840, Note_on_c, 0, 64, 94
1, 31842, Note_on_c, 0, 60, 88
1, 31867, Note_on_c, 2, 60, 100
1, 31887, Note_off_c, 11, 48, 64
1, 31902, Note_off_c, 0, 52, 64
1, 31917, Note_off_c, 0, 60, 64
1, 31920, Note_off_c, 0, 55, 64
1, 31920, Note_on_c, 11, 45, 106
1, 31920, Note_on_c, 9, 51, 117
1, 31920, Note_on_c, 9, 40, 86
1, 31922, Note_off_c, 9, 40, 64
1, 31922, Note_off_c, 9, 51, 64
1, 31922, Note_off_c, 2, 60, 64
1, 31937, Note_off_c, 0, 64, 64
1, 31945, Note_on_c, 2, 60, 103
1, 32015, Note_off_c, 2, 60, 64
1, 32077, Note_on_c, 0, 64, 101
1, 32077, Note_on_c, 6, 79, 78
1, 32077, Note_on_c, 6, 72, 96
1, 32077, Note_on_c, 7, 64, 106
1, 32080, Note_on_c, 9, 51, 81
1, 32082, Note_off_c, 9, 51, 64
1, 32082, Note_on_c, 0, 60, 100
1, 32082, Note_on_c, 0, 55, 83
1, 32085, Note_on_c, 0, 52, 41
1, 32090, Note_on_c, 2, 60, 103
1, 32122, Note_off_c, 7, 64, 64
1, 32127, Note_off_c, 11, 45, 64
1, 32142, Note_off_c, 6, 72, 64
1, 32142, Note_off_c, 6, 79, 64
1, 32160, Note_on_c, 11, 43, 102
1, 32160, Note_on_c, 9, 51, 89
1, 32160, Note_on_c, 9, 35, 89
1, 32162, Note_off_c, 9, 35, 64
1, 32162, Note_off_c, 9, 51, 64
1, 32227, Note_off_c, 2, 60, 64
1, 32300, Note_on_c, 2, 60, 86
1, 32320, Note_off_c, 0, 64, 64
1, 32320, Note_on_c, 9, 40, 100
1, 32322, Note_off_c, 9, 40, 64
1, 32322, Note_off_c, 0, 60, 64
1, 32322, Note_on_c, 0, 64, 106
1, 32325, Note_on_c, 0, 60, 103
1, 32367, Note_off_c, 11, 43, 64
1, 32372, Note_off_c, 2, 60, 64
1, 32382, Note_off_c, 0, 55, 64
1, 32387, Note_on_c, 2, 60, 111
1, 32392, Note_off_c, 0, 52, 64
1, 32400, Note_on_c, 11, 40, 86
1, 32400, Note_on_c, 9, 40, 100
1, 32402, Note_off_c, 9, 40, 64
1, 32405, Note_off_c, 0, 60, 64
1, 32412, Note_off_c, 0, 64, 64
1, 32482, Note_off_c, 2, 60, 64
1, 32557, Note_on_c, 3, 72, 110
1, 32607, Note_off_c, 11, 40, 64
1, 32625, Note_off_c, 3, 72, 64
1, 32637, Note_on_c, 0, 55, 16
1, 32637, Note_on_c, 3, 74, 106
1, 32640, Note_on_c, 11, 43, 102
1, 32640, Note_on_c, 9, 51, 93
1, 32640, Note_on_c, 9, 35, 114
1, 32642, Note_off_c, 9, 35, 64
1, 32642, Note_off_c, 9, 51, 64
1, 32642, Note_on_c, 0, 59, 88
1, 32642, Note_on_c, 0, 62, 98
1, 32642, Note_on_c, 0, 67, 97
1, 32685, Note_on_c, 2, 55, 88
1, 32787, Note_off_c, 0, 67, 64
1, 32797, Note_on_c, 6, 79, 70
1, 32797, Note_on_c, 6, 71, 91
1, 32797, Note_on_c, 7, 62, 105
1, 32800, Note_off_c, 0, 62, 64
1, 32802, Note_off_c, 0, 59, 64
1, 32802, Note_on_c, 0, 67, 100
1, 32802, Note_on_c, 0, 62, 99
1, 32805, Note_on_c, 0, 59, 85
1, 32822, Note_off_c, 3, 74, 64
1, 32840, Note_off_c, 6, 79, 64
1, 32847, Note_off_c, 11, 43, 64
1, 32850, Note_off_c, 7, 62, 64
1, 32860, Note_off_c, 0, 59, 64
1, 32867, Note_off_c, 6, 71, 64
1, 32877, Note_on_c, 2, 58, 112
1, 32877, Note_on_c, 3, 74, 100
1, 32880, Note_on_c, 11, 47, 102
1, 32880, Note_on_c, 9, 51, 110
1, 32880, Note_on_c, 9, 40, 91
1, 32882, Note_off_c, 9, 40, 64
1, 32882, Note_off_c, 9, 51, 64
1, 32882, Note_off_c, 0, 67, 64
1, 32887, Note_off_c, 0, 62, 64
1, 32917, Note_off_c, 2, 55, 64
1, 32920, Note_off_c, 0, 55, 64
1, 32997, Note_off_c, 3, 74, 64
1, 33030, Note_on_c, 2, 59, 102
1, 33037, Note_on_c, 0, 67, 96
1, 33037, Note_on_c, 0, 62, 96
1, 33037, Note_on_c, 3, 74, 97
1, 33040, Note_off_c, 2, 58, 64
1, 33040, Note_on_c, 9, 51, 85
1, 33042, Note_off_c, 9, 51, 64
1, 33042, Note_on_c, 0, 59, 82
1, 33045, Note_on_c, 0, 55, 23
1, 33087, Note_off_c, 3, 74, 64
1, 33087, Note_off_c, 11, 47, 64
1, 33117, Note_on_c, 2, 62, 91
1, 33120, Note_on_c, 11, 50, 98
1, 33120, Note_on_c, 3, 74, 95
1, 33120, Note_on_c, 7, 62, 105
1, 33120, Note_on_c, 9, 51, 81
1, 33120, Note_on_c, 9, 35, 88
1, 33122, Note_off_c, 9, 35, 64
1, 33122, Note_off_c, 9, 51, 64
1, 33122, Note_on_c, 6, 71, 84
1, 33122, Note_on_c, 6, 79, 77
1, 33142, Note_off_c, 2, 59, 64
1, 33170, Note_off_c, 6, 71, 64
1, 33185, Note_off_c, 6, 79, 64
1, 33192, Note_off_c, 7, 62, 64
1, 33237, Note_off_c, 3, 74, 64
1, 33275, Note_off_c, 0, 67, 64
1, 33277, Note_off_c, 0, 59, 64
1, 33277, Note_off_c, 0, 62, 64
1, 33277, Note_on_c, 0, 67, 101
1, 33282, Note_on_c, 0, 62, 97
1, 33282, Note_on_c, 0, 59, 77
1, 33282, Note_on_c, 3, 74, 104
1, 33322, Note_off_c, 0, 67, 64
1, 33327, Note_off_c, 11, 50, 64
1, 33337, Note_off_c, 3, 74, 64
1, 33337, Note_off_c, 0, 59, 64
1, 33350, Note_off_c, 0, 62, 64
1, 33350, Note_on_c, 2, 64, 97
1, 33357, Note_on_c, 0, 59, 95
1, 33360, Note_on_c, 11, 52, 96
1, 33360, Note_on_c, 9, 51, 113
1, 33360, Note_on_c, 9, 40, 89
1, 33362, Note_off_c, 9, 40, 64
1, 33362, Note_off_c, 9, 51, 64
1, 33362, Note_on_c, 3, 74, 97
1, 33365, Note_off_c, 0, 55, 64
1, 33375, Note_off_c, 2, 62, 64
1, 33415, Note_off_c, 0, 59, 64
1, 33487, Note_off_c, 3, 74, 64
1, 33500, Note_off_c, 2, 64, 64
1, 33500, Note_on_c, 2, 65, 102
1, 33520, Note_on_c, 9, 51, 85
1, 33522, Note_off_c, 9, 51, 64
1, 33522, Note_on_c, 3, 74, 73
1, 33542, Note_off_c, 2, 65, 64
1, 33567, Note_off_c, 3, 74, 64
1, 33567, Note_off_c, 11, 52, 64
1, 33590, Note_on_c, 2, 60, 109
1, 33597, Note_on_c, 6, 79, 70
1, 33600, Note_on_c, 11, 41, 102
1, 33600, Note_on_c, 7, 63, 109
1, 33600, Note_on_c, 9, 51, 72
1, 33600, Note_on_c, 9, 35, 91
1, 33602, Note_off_c, 9, 35, 64
1, 33602, Note_off_c, 9, 51, 64
1, 33602, Note_on_c, 3, 75, 110
1, 33602, Note_on_c, 6, 72, 87
1, 33605, Note_on_c, 0, 57, 61
1, 33605, Note_on_c, 0, 60, 61
1, 33605, Note_on_c, 0, 65, 35
1, 33645, Note_off_c, 7, 63, 64
1, 33647, Note_off_c, 6, 79, 64
1, 33660, Note_off_c, 6, 72, 64
1, 33730, Note_off_c, 2, 60, 64
1, 33737, Note_off_c, 0, 65, 64
1, 33747, Note_off_c, 0, 60, 64
1, 33747, Note_off_c, 0, 57, 64
1, 33765, Note_on_c, 0, 65, 90
1, 33765, Note_on_c, 0, 60, 76
1, 33785, Note_off_c, 3, 75, 64
1, 33807, Note_off_c, 11, 41, 64
1, 33837, Pitch_bend_c, 2, 3628
1, 33837, Note_on_c, 3, 74, 106
1, 33840, Note_off_c, 0, 65, 64
1, 33840, Note_on_c, 11, 45, 82
1, 33840, Note_on_c, 2, 63, 106
1, 33840, Note_on_c, 9, 51, 113
1, 33840, Note_on_c, 9, 40, 94
1, 33842, Note_off_c, 9, 40, 64
1, 33842, Note_off_c, 9, 51, 64
1, 33850, Pitch_bend_c, 2, 3277
1, 33852, Note_off_c, 0, 60, 64
1, 33887, Pitch_bend_c, 2, 4096
1, 33900, Pitch_bend_c, 2, 5149
1, 33910, Pitch_bend_c, 2, 6202
1, 33922, Pitch_bend_c, 2, 7138
1, 33935, Pitch_bend_c, 2, 7957
1, 33947, Pitch_bend_c, 2, 8192
1, 33990, Note_off_c, 3, 74, 64
1, 33997, Note_on_c, 0, 65, 100
1, 33997, Note_on_c, 6, 79, 77
1, 33997, Note_on_c, 6, 72, 94
1, 33997, Note_on_c, 7, 63, 115
1, 34000, Note_on_c, 3, 72, 87
1, 34000, Note_on_c, 9, 51, 85
1, 34002, Note_off_c, 9, 51, 64
1, 34002, Note_on_c, 0, 60, 97
1, 34005, Note_on_c, 0, 57, 78
1, 34005, Note_on_c, 0, 53, 16
1, 34020, Note_off_c, 2, 63, 64
1, 34042, Note_off_c, 3, 72, 64
1, 34047, Note_off_c, 11, 45, 64
1, 34050, Note_off_c, 7, 63, 64
1, 34060, Note_off_c, 6, 72, 64
1, 34065, Note_off_c, 6, 79, 64
1, 34075, Pitch_bend_c, 2, 1873
1, 34080, Note_on_c, 11, 48, 92
1, 34080, Note_on_c, 2, 63, 109
1, 34080, Note_on_c, 9, 51, 68
1, 34080, Note_on_c, 9, 35, 85
1, 34082, Note_off_c, 9, 35, 64
1, 34082, Note_off_c, 9, 51, 64
1, 34082, Note_on_c, 3, 74, 106
1, 34087, Pitch_bend_c, 2, 1522
1, 34100, Pitch_bend_c, 2, 1873
1, 34112, Pitch_bend_c, 2, 2575
1, 34122, Pitch_bend_c, 2, 3394
1, 34135, Pitch_bend_c, 2, 4330
1, 34147, Pitch_bend_c, 2, 5149
1, 34160, Pitch_bend_c, 2, 6085
1, 34172, Pitch_bend_c, 2, 7021
1, 34185, Pitch_bend_c, 2, 7957
1, 34197, Pitch_bend_c, 2, 8192
1, 34235, Note_off_c, 0, 60, 64
1, 34235, Note_off_c, 0, 65, 64
1, 34237, Note_on_c, 0, 65, 100
1, 34240, Note_on_c, 9, 40, 89
1, 34242, Note_off_c, 9, 40, 64
1, 34242, Note_on_c, 0, 60, 88
1, 34252, Note_off_c, 2, 63, 64
1, 34287, Note_off_c, 11, 48, 64
1, 34300, Note_off_c, 3, 74, 64
1, 34312, Note_off_c, 0, 60, 64
1, 34317, Note_on_c, 3, 72, 101
1, 34320, Note_off_c, 0, 57, 64
1, 34320, Note_on_c, 11, 50, 89
1, 34320, Note_on_c, 9, 40, 100
1, 34322, Note_off_c, 9, 40, 64
1, 34325, Pitch_bend_c, 2, 4798
1, 34325, Note_on_c, 2, 63, 109
1, 34337, Note_off_c, 0, 65, 64
1, 34337, Pitch_bend_c, 2, 3628
1, 34350, Pitch_bend_c, 2, 3160
1, 34355, Note_off_c, 0, 53, 64
1, 34375, Pitch_bend_c, 2, 3511
1, 34387, Pitch_bend_c, 2, 4213
1, 34397, Pitch_bend_c, 2, 5032
1, 34410, Pitch_bend_c, 2, 6085
1, 34422, Pitch_bend_c, 2, 6904
1, 34435, Pitch_bend_c, 2, 7723
1, 34447, Pitch_bend_c, 2, 8192
1, 34450, Note_off_c, 3, 72, 64
1, 34477, Note_on_c, 0, 64, 44
1, 34480, Note_on_c, 3, 72, 97
1, 34525, Note_off_c, 0, 64, 64
1, 34527, Note_off_c, 11, 50, 64
1, 34530, Note_off_c, 2, 63, 64
1, 34557, Note_on_c, 0, 52, 54
1, 34560, Note_on_c, 11, 36, 92
1, 34560, Note_on_c, 9, 51, 81
1, 34560, Note_on_c, 9, 35, 104
1, 34562, Note_off_c, 9, 35, 64
1, 34562, Note_off_c, 9, 51, 64
1, 34562, Note_on_c, 0, 55, 90
1, 34562, Note_on_c, 0, 60, 98
1, 34565, Note_on_c, 0, 64, 66
1, 34570, Note_on_c, 2, 60, 117
1, 34600, Note_off_c, 3, 72, 64
1, 34700, Note_off_c, 2, 60, 64
1, 34707, Note_off_c, 0, 64, 64
1, 34717, Note_on_c, 6, 79, 76
1, 34717, Note_on_c, 6, 72, 89
1, 34717, Note_on_c, 7, 64, 109
1, 34720, Note_off_c, 0, 60, 64
1, 34722, Note_off_c, 0, 55, 64
1, 34722, Note_on_c, 0, 64, 91
1, 34722, Note_on_c, 0, 60, 84
1, 34725, Note_on_c, 0, 55, 47
1, 34730, Note_on_c, 2, 60, 90
1, 34767, Note_off_c, 11, 36, 64
1, 34775, Note_off_c, 6, 72, 64
1, 34777, Note_off_c, 0, 55, 64
1, 34780, Note_off_c, 7, 64, 64
1, 34782, Note_off_c, 0, 60, 64
1, 34782, Note_off_c, 6, 79, 64
1, 34790, Note_off_c, 2, 60, 64
1, 34800, Note_on_c, 11, 40, 77
1, 34800, Note_on_c, 9, 51, 117
1, 34800, Note_on_c, 9, 40, 98
1, 34802, Note_off_c, 9, 40, 64
1, 34802, Note_off_c, 9, 51, 64
1, 34810, Note_on_c, 2, 60, 92
1, 34820, Note_off_c, 0, 52, 64
1, 34827, Note_off_c, 0, 64, 64
1, 34957, Note_off_c, 2, 60, 64
1, 34957, Note_on_c, 0, 64, 99
1, 34960, Note_on_c, 9, 51, 91
1, 34962, Note_off_c, 9, 51, 64
1, 34962, Note_on_c, 0, 60, 94
1, 34962, Note_on_c, 0, 55, 73
1, 34975, Note_on_c, 2, 60, 109
1, 35007, Note_off_c, 11, 40, 64
1, 35040, Note_on_c, 11, 43, 92
1, 35040, Note_on_c, 6, 79, 80
1, 35040, Note_on_c, 9, 51, 76
1, 35040, Note_on_c, 9, 35, 89
1, 35042, Note_off_c, 9, 35, 64
1, 35042, Note_off_c, 9, 51, 64
1, 35042, Note_on_c, 6, 72, 90
1, 35042, Note_on_c, 7, 64, 110
1, 35095, Note_off_c, 2, 60, 64
1, 35110, Note_off_c, 6, 72, 64
1, 35115, Note_off_c, 7, 64, 64
1, 35122, Note_off_c, 6, 79, 64
1, 35197, Note_on_c, 2, 60, 102
1, 35200, Note_off_c, 0, 60, 64
1, 35200, Note_off_c, 0, 64, 64
1, 35202, Note_off_c, 0, 55, 64
1, 35202, Note_on_c, 0, 64, 99
1, 35202, Note_on_c, 0, 60, 93
1, 35205, Note_on_c, 0, 55, 74
1, 35247, Note_off_c, 11, 43, 64
1, 35250, Note_off_c, 0, 55, 64
1, 35257, Note_off_c, 0, 60, 64
1, 35257, Note_off_c, 2, 60, 64
1, 35260, Note_off_c, 0, 64, 64
1, 35280, Note_on_c, 11, 45, 88
1, 35280, Note_on_c, 9, 51, 121
1, 35280, Note_on_c, 9, 40, 96
1, 35282, Note_off_c, 9, 40, 64
1, 35282, Note_off_c, 9, 51, 64
1, 35287, Note_on_c, 2, 60, 113
1, 35370, Note_off_c, 2, 60, 64
1, 35437, Note_on_c, 0, 64, 65
1, 35440, Note_on_c, 9, 51, 93
1, 35442, Note_off_c, 9, 51, 64
1, 35442, Note_on_c, 0, 60, 91
1, 35445, Note_on_c, 0, 55, 78
1, 35450, Note_on_c, 2, 60, 107
1, 35487, Note_off_c, 11, 45, 64
1, 35495, Note_off_c, 2, 60, 64
1, 35515, Note_off_c, 0, 60, 64
1, 35517, Note_on_c, 2, 60, 107
1, 35517, Note_on_c, 6, 79, 69
1, 35520, Note_on_c, 11, 48, 79
1, 35520, Note_on_c, 6, 72, 90
1, 35520, Note_on_c, 9, 51, 87
1, 35520, Note_on_c, 9, 35, 84
1, 35522, Note_off_c, 9, 35, 64
1, 35522, Note_off_c, 9, 51, 64
1, 35522, Note_off_c, 0, 64, 64
1, 35522, Note_on_c, 0, 60, 99
1, 35522, Note_on_c, 7, 64, 106
1, 35525, Note_on_c, 0, 64, 67
1, 35577, Note_off_c, 6, 72, 64
1, 35582, Note_off_c, 6, 79, 64
1, 35585, Note_off_c, 7, 64, 64
1, 35587, Note_off_c, 2, 60, 64
1, 35657, Note_on_c, 2, 60, 107
1, 35667, Note_off_c, 0, 64, 64
1, 35682, Note_off_c, 0, 60, 64
1, 35682, Note_on_c, 0, 64, 80
1, 35685, Note_on_c, 0, 60, 79
1, 35725, Note_off_c, 2, 60, 64
1, 35727, Note_off_c, 11, 48, 64
1, 35740, Note_off_c, 0, 55, 64
1, 35745, Note_off_c, 0, 60, 64
1, 35757, Note_off_c, 0, 64, 64
1, 35760, Note_on_c, 11, 45, 94
1, 35760, Note_on_c, 9, 51, 110
1, 35760, Note_on_c, 9, 40, 102
1, 35762, Note_off_c, 9, 40, 64
1, 35762, Note_off_c, 9, 51, 64
1, 35762, Note_on_c, 2, 60, 115
1, 35892, Note_off_c, 2, 60, 64
1, 35907, Note_on_c, 2, 60, 122
1, 35917, Note_on_c, 0, 64, 87
1, 35917, Note_on_c, 6, 79, 78
1, 35917, Note_on_c, 6, 72, 92
1, 35917, Note_on_c, 7, 64, 109
1, 35920, Note_on_c, 9, 51, 87
1, 35922, Note_off_c, 9, 51, 64
1, 35922, Note_on_c, 0, 55, 54
1, 35925, Note_on_c, 0, 60, 79
1, 35967, Note_off_c, 11, 45, 64
1, 35972, Note_off_c, 6, 72, 64
1, 35975, Note_off_c, 6, 79, 64
1, 35982, Note_off_c, 7, 64, 64
1, 36000, Note_on_c, 11, 43, 100
1, 36000, Note_on_c, 9, 51, 93
1, 36000, Note_on_c, 9, 35, 85
1, 36002, Note_off_c, 9, 35, 64
1, 36002, Note_off_c, 9, 51, 64
1, 36102, Note_off_c, 2, 60, 64
1, 36135, Note_off_c, 0, 60, 64
1, 36145, Note_on_c, 2, 60, 85
1, 36152, Note_off_c, 0, 64, 64
1, 36157, Note_on_c, 0, 64, 90
1, 36160, Note_off_c, 0, 55, 64
1, 36160, Note_on_c, 0, 60, 96
1, 36160, Note_on_c, 9, 40, 91
1, 36162, Note_off_c, 9, 40, 64
1, 36162, Note_on_c, 0, 55, 75
1, 36197, Note_off_c, 2, 60, 64
1, 36207, Note_off_c, 11, 43, 64
1, 36220, Note_off_c, 0, 60, 64
1, 36235, Note_off_c, 0, 64, 64
1, 36240, Note_on_c, 11, 40, 102
1, 36240, Note_on_c, 9, 40, 93
1, 36242, Note_off_c, 9, 40, 64
1, 36250, Note_on_c, 2, 60, 119
1, 36252, Note_off_c, 0, 55, 64
1, 36322, Note_off_c, 2, 60, 64
1, 36397, Note_on_c, 3, 67, 73
1, 36447, Note_off_c, 11, 40, 64
1, 36452, Note_off_c, 3, 67, 64
1, 36477, Note_on_c, 0, 52, 60
1, 36477, Note_on_c, 3, 72, 123
1, 36480, Note_on_c, 0, 55, 101
1, 36480, Note_on_c, 11, 36, 114
1, 36480, Note_on_c, 9, 42, 113
1, 36480, Note_on_c, 9, 35, 91
1, 36480, Note_on_c, 9, 40, 85
1, 36482, Note_off_c, 9, 40, 64
1, 36482, Note_off_c, 9, 35, 64
1, 36482, Note_off_c, 9, 42, 64
1, 36482, Note_on_c, 0, 60, 100
1, 36482, Note_on_c, 0, 64, 103
1, 36482, Note_on_c, 6, 72, 94
1, 36482, Note_on_c, 6, 79, 75
1, 36482, Note_on_c, 7, 64, 103
1, 36490, Note_on_c, 2, 60, 100
1, 36512, Note_off_c, 7, 64, 64
1, 36532, Note_off_c, 6, 79, 64
1, 36562, Note_off_c, 6, 72, 64
1, 36597, Note_off_c, 3, 72, 64
1, 36602, Note_off_c, 0, 64, 64
1, 36605, Note_off_c, 2, 60, 64
1, 36615, Note_off_c, 0, 55, 64
1, 36620, Note_off_c, 0, 60, 64
1, 36627, Note_off_c, 11, 36, 64
1, 36637, Note_off_c, 0, 52, 64
1, 36642, Note_on_c, 3, 72, 70
1, 36682, Note_off_c, 3, 72, 64
1, 36717, Note_on_c, 3, 72, 97
1, 36842, Note_off_c, 3, 72, 64
1, 36880, Note_on_c, 3, 72, 89
1, 36947, Note_off_c, 3, 72, 64
1, 36957, Note_on_c, 3, 75, 95
1, 37082, Note_off_c, 3, 75, 64
1, 37117, Note_on_c, 3, 76, 100
1, 37255, Note_off_c, 3, 76, 64
1, 37437, Note_on_c, 6, 72, 92
1, 37437, Note_on_c, 7, 64, 108
1, 37440, Note_on_c, 0, 48, 16
1, 37440, Note_on_c, 0, 52, 75
1, 37440, Note_on_c, 11, 36, 116
1, 37440, Note_on_c, 6, 79, 65
1, 37440, Note_on_c, 9, 42, 110
1, 37440, Note_on_c, 9, 40, 91
1, 37440, Note_on_c, 9, 35, 89
1, 37442, Note_off_c, 9, 35, 64
1, 37442, Note_off_c, 9, 40, 64
1, 37442, Note_off_c, 9, 42, 64
1, 37442, Note_on_c, 0, 55, 103
1, 37442, Note_on_c, 0, 60, 101
1, 37442, Note_on_c, 2, 60, 109
1, 37442, Note_on_c, 3, 72, 116
1, 37445, Note_on_c, 0, 64, 105
1, 37470, Note_off_c, 7, 64, 64
1, 37485, Note_off_c, 6, 79, 64
1, 37525, Note_off_c, 6, 72, 64
1, 37552, Note_off_c, 2, 60, 64
1, 37567, Note_off_c, 0, 64, 64
1, 37572, Note_off_c, 0, 60, 64
1, 37577, Note_off_c, 0, 55, 64
1, 37587, Note_off_c, 11, 36, 64
1, 37595, Note_off_c, 0, 48, 64
1, 37602, Note_off_c, 0, 52, 64
1, 37617, Note_off_c, 3, 72, 64
1, 37677, Note_on_c, 3, 72, 104
1, 37825, Note_off_c, 3, 72, 64
1, 37837, Note_on_c, 3, 76, 106
1, 37980, Note_off_c, 3, 76, 64
1, 38302, Note_on_c, 3, 72, 107
1, 38397, Note_on_c, 0, 55, 92
1, 38397, Note_on_c, 0, 52, 24
1, 38397, Note_on_c, 6, 79, 84
1, 38397, Note_on_c, 7, 64, 109
1, 38400, Note_off_c, 3, 72, 64
1, 38400, Note_on_c, 0, 60, 100
1, 38400, Note_on_c, 11, 36, 119
1, 38400, Note_on_c, 2, 60, 99
1, 38400, Note_on_c, 9, 42, 107
1, 38400, Note_on_c, 9, 40, 91
1, 38400, Note_on_c, 9, 35, 89
1, 38402, Note_off_c, 9, 35, 64
1, 38402, Note_off_c, 9, 40, 64
1, 38402, Note_off_c, 9, 42, 64
1, 38402, Note_on_c, 0, 64, 105
1, 38402, Note_on_c, 3, 75, 116
1, 38402, Note_on_c, 6, 72, 98
1, 38447, Note_off_c, 6, 79, 64
1, 38460, Note_off_c, 7, 64, 64
1, 38465, Note_off_c, 6, 72, 64
1, 38490, Note_off_c, 2, 60, 64
1, 38500, Note_off_c, 3, 75, 64
1, 38530, Note_off_c, 0, 55, 64
1, 38532, Note_off_c, 0, 60, 64
1, 38542, Note_off_c, 0, 64, 64
1, 38547, Note_off_c, 11, 36, 64
1, 38557, Note_on_c, 3, 75, 78
1, 38565, Note_off_c, 0, 52, 64
1, 38592, Note_off_c, 3, 75, 64
1, 38637, Note_on_c, 3, 75, 93
1, 38752, Note_off_c, 3, 75, 64
1, 38797, Note_on_c, 3, 75, 82
1, 38845, Note_off_c, 3, 75, 64
1, 38877, Note_on_c, 3, 75, 91
1, 39002, Note_off_c, 3, 75, 64
1, 39037, Note_on_c, 3, 75, 89
1, 39085, Note_off_c, 3, 75, 64
1, 39117, Note_on_c, 3, 75, 87
1, 39242, Note_off_c, 3, 75, 64
1, 39277, Note_on_c, 3, 75, 87
1, 39325, Note_off_c, 3, 75, 64
1, 39357, Note_on_c, 3, 75, 84
1, 39362, Note_on_c, 7, 60, 122
1, 39477, Note_off_c, 3, 75, 64
1, 39517, Note_on_c, 3, 75, 93
1, 39570, Note_off_c, 3, 75, 64
1, 39595, Pitch_bend_c, 7, 8309
1, 39597, Note_on_c, 3, 75, 84
1, 39630, Pitch_bend_c, 7, 8426
1, 39642, Pitch_bend_c, 7, 8777
1, 39655, Pitch_bend_c, 7, 9011
1, 39680, Pitch_bend_c, 7, 9362
1, 39705, Pitch_bend_c, 7, 9479
1, 39717, Pitch_bend_c, 7, 9713
1, 39720, Note_off_c, 3, 75, 64
1, 39727, Pitch_bend_c, 7, 9947
1, 39740, Pitch_bend_c, 7, 10181
1, 39752, Pitch_bend_c, 7, 10415
1, 39757, Note_on_c, 3, 75, 67
1, 39777, Pitch_bend_c, 7, 10532
1, 39805, Note_off_c, 3, 75, 64
1, 39815, Pitch_bend_c, 7, 10766
1, 39827, Pitch_bend_c, 7, 10883
1, 39837, Note_on_c, 3, 75, 93
1, 39852, Pitch_bend_c, 7, 11117
1, 39890, Pitch_bend_c, 7, 11351
1, 39902, Pitch_bend_c, 7, 11585
1, 39927, Pitch_bend_c, 7, 11936
1, 39962, Pitch_bend_c, 7, 12053
1, 39990, Pitch_bend_c, 7, 12287
1, 40000, Note_on_c, 9, 40, 80
1, 40002, Note_off_c, 9, 40, 64
1, 40012, Pitch_bend_c, 7, 12521
1, 40025, Pitch_bend_c, 7, 12755
1, 40050, Pitch_bend_c, 7, 12989
1, 40055, Note_off_c, 3, 75, 64
1, 40077, Note_on_c, 3, 72, 99
1, 40080, Note_on_c, 9, 40, 84
1, 40082, Note_off_c, 9, 40, 64
1, 40087, Pitch_bend_c, 7, 13223
1, 40110, Pitch_bend_c, 7, 13340
1, 40150, Pitch_bend_c, 7, 13574
1, 40162, Pitch_bend_c, 7, 13691
1, 40175, Pitch_bend_c, 7, 13925
1, 40187, Pitch_bend_c, 7, 14042
1, 40200, Pitch_bend_c, 7, 14510
1, 40210, Note_off_c, 3, 72, 64
1, 40212, Pitch_bend_c, 7, 15212
1, 40225, Pitch_bend_c, 7, 16265
1, 40237, Note_on_c, 3, 72, 87
1, 40237, Pitch_bend_c, 7, 16383
1, 40317, Note_on_c, 0, 60, 100
1, 40317, Note_on_c, 0, 57, 91
1, 40317, Note_on_c, 0, 53, 38
1, 40320, Note_on_c, 0, 65, 103
1, 40320, Note_on_c, 11, 41, 106
1, 40320, Note_on_c, 2, 53, 102
1, 40320, Note_on_c, 9, 51, 94
1, 40320, Note_on_c, 9, 35, 96
1, 40322, Note_off_c, 9, 35, 64
1, 40322, Note_off_c, 9, 51, 64
1, 40337, Note_off_c, 3, 72, 64
1, 40385, Note_off_c, 2, 53, 64
1, 40420, Note_off_c, 7, 60, 64
1, 40452, Note_on_c, 2, 53, 109
1, 40475, Note_off_c, 0, 65, 64
1, 40477, Note_on_c, 6, 79, 78
1, 40477, Note_on_c, 6, 72, 80
1, 40480, Note_off_c, 0, 60, 64
1, 40480, Note_on_c, 7, 60, 96
1, 40482, Note_on_c, 0, 65, 101
1, 40482, Note_on_c, 0, 60, 94
1, 40525, Note_off_c, 7, 60, 64
1, 40525, Note_off_c, 6, 79, 64
1, 40527, Note_off_c, 11, 41, 64
1, 40540, Note_off_c, 6, 72, 64
1, 40545, Note_on_c, 2, 57, 117
1, 40560, Note_on_c, 11, 45, 104
1, 40560, Note_on_c, 5, 70, 90
1, 40560, Note_on_c, 5, 65, 90
1, 40560, Note_on_c, 5, 74, 89
1, 40560, Note_on_c, 9, 51, 110
1, 40560, Note_on_c, 9, 40, 86
1, 40562, Note_off_c, 9, 40, 64
1, 40562, Note_off_c, 9, 51, 64
1, 40562, Note_off_c, 0, 57, 64
1, 40575, Note_off_c, 2, 53, 64
1, 40575, Note_off_c, 0, 53, 64
1, 40577, Note_off_c, 0, 65, 64
1, 40585, Note_off_c, 0, 60, 64
1, 40657, Note_off_c, 2, 57, 64
1, 40695, Note_off_c, 5, 70, 64
1, 40707, Note_off_c, 5, 74, 64
1, 40717, Note_on_c, 0, 65, 103
1, 40720, Note_on_c, 5, 63, 99
1, 40720, Note_on_c, 9, 51, 81
1, 40722, Note_off_c, 9, 51, 64
1, 40722, Note_on_c, 0, 60, 99
1, 40722, Note_on_c, 0, 57, 79
1, 40722, Note_on_c, 5, 72, 90
1, 40722, Note_on_c, 5, 69, 87
1, 40725, Note_on_c, 0, 53, 26
1, 40727, Note_on_c, 2, 57, 88
1, 40737, Note_off_c, 5, 65, 64
1, 40767, Note_off_c, 11, 45, 64
1, 40800, Note_on_c, 11, 48, 106
1, 40800, Note_on_c, 6, 72, 82
1, 40800, Note_on_c, 9, 51, 101
1, 40800, Note_on_c, 9, 35, 89
1, 40802, Note_off_c, 9, 35, 64
1, 40802, Note_off_c, 9, 51, 64
1, 40802, Note_on_c, 6, 79, 80
1, 40802, Note_on_c, 7, 60, 108
1, 40822, Note_on_c, 2, 60, 100
1, 40832, Note_off_c, 2, 57, 64
1, 40845, Note_off_c, 7, 60, 64
1, 40857, Note_off_c, 6, 79, 64
1, 40860, Note_off_c, 6, 72, 64
1, 40875, Note_off_c, 5, 69, 64
1, 40890, Note_off_c, 5, 72, 64
1, 40897, Note_off_c, 5, 63, 64
1, 40905, Note_off_c, 2, 60, 64
1, 40960, Note_off_c, 0, 60, 64
1, 40960, Note_off_c, 0, 65, 64
1, 40962, Note_on_c, 0, 65, 101
1, 40962, Note_on_c, 0, 60, 100
1, 40967, Note_on_c, 2, 60, 97
1, 41007, Note_off_c, 11, 48, 64
1, 41015, Note_off_c, 0, 57, 64
1, 41040, Note_on_c, 11, 45, 114
1, 41040, Note_on_c, 9, 51, 110
1, 41040, Note_on_c, 9, 40, 89
1, 41042, Note_off_c, 9, 40, 64
1, 41042, Note_off_c, 9, 51, 64
1, 41042, Note_on_c, 2, 62, 100
1, 41055, Note_off_c, 0, 53, 64
1, 41057, Note_off_c, 2, 60, 64
1, 41057, Note_off_c, 0, 65, 64
1, 41067, Note_off_c, 0, 60, 64
1, 41152, Note_off_c, 2, 62, 64
1, 41197, Note_on_c, 2, 62, 105
1, 41200, Note_on_c, 9, 51, 78
1, 41202, Note_off_c, 9, 51, 64
1, 41247, Note_off_c, 11, 45, 64
1, 41277, Note_on_c, 0, 53, 50
1, 41277, Note_on_c, 3, 75, 119
1, 41280, Note_on_c, 0, 57, 91
1, 41280, Note_on_c, 11, 41, 102
1, 41280, Note_on_c, 9, 51, 79
1, 41280, Note_on_c, 9, 35, 86
1, 41282, Note_off_c, 9, 35, 64
1, 41282, Note_off_c, 9, 51, 64
1, 41282, Note_off_c, 2, 62, 64
1, 41282, Note_on_c, 0, 60, 99
1, 41282, Note_on_c, 0, 65, 97
1, 41282, Note_on_c, 6, 72, 85
1, 41282, Note_on_c, 6, 79, 73
1, 41282, Note_on_c, 7, 60, 100
1, 41290, Note_on_c, 2, 63, 96
1, 41315, Note_off_c, 7, 60, 64
1, 41315, Note_off_c, 6, 79, 64
1, 41337, Note_off_c, 6, 72, 64
1, 41402, Note_off_c, 3, 75, 64
1, 41430, Note_off_c, 0, 65, 64
1, 41440, Note_off_c, 0, 60, 64
1, 41442, Note_on_c, 0, 65, 78
1, 41442, Note_on_c, 0, 60, 87
1, 41442, Note_on_c, 3, 72, 78
1, 41445, Note_on_c, 2, 62, 102
1, 41457, Note_off_c, 2, 63, 64
1, 41477, Note_off_c, 3, 72, 64
1, 41487, Note_off_c, 11, 41, 64
1, 41505, Note_off_c, 0, 60, 64
1, 41512, Note_off_c, 0, 65, 64
1, 41512, Note_off_c, 0, 57, 64
1, 41517, Note_on_c, 3, 75, 116
1, 41520, Note_on_c, 11, 45, 111
1, 41520, Note_on_c, 9, 51, 113
1, 41520, Note_on_c, 9, 40, 85
1, 41522, Note_off_c, 9, 40, 64
1, 41522, Note_off_c, 9, 51, 64
1, 41522, Note_off_c, 0, 53, 64
1, 41545, Note_on_c, 2, 63, 92
1, 41550, Note_off_c, 2, 62, 64
1, 41675, Note_off_c, 3, 75, 64
1, 41677, Note_on_c, 0, 65, 99
1, 41677, Note_on_c, 6, 72, 84
1, 41677, Note_on_c, 7, 60, 102
1, 41680, Note_on_c, 6, 79, 75
1, 41680, Note_on_c, 9, 51, 84
1, 41682, Note_off_c, 9, 51, 64
1, 41682, Note_on_c, 0, 60, 95
1, 41682, Note_on_c, 0, 57, 71
1, 41682, Note_on_c, 3, 72, 64
1, 41685, Note_on_c, 0, 53, 19
1, 41685, Note_on_c, 2, 62, 91
1, 41700, Note_off_c, 2, 63, 64
1, 41717, Note_off_c, 3, 72, 64
1, 41720, Note_off_c, 7, 60, 64
1, 41725, Note_off_c, 6, 79, 64
1, 41727, Note_off_c, 11, 45, 64
1, 41735, Note_off_c, 6, 72, 64
1, 41757, Note_on_c, 3, 74, 117
1, 41760, Note_on_c, 11, 48, 89
1, 41760, Note_on_c, 9, 51, 89
1, 41760, Note_on_c, 9, 35, 89
1, 41762, Note_off_c, 9, 35, 64
1, 41762, Note_off_c, 9, 51, 64
1, 41790, Note_on_c, 2, 63, 90
1, 41807, Note_off_c, 2, 62, 64
1, 41917, Note_off_c, 0, 65, 64
1, 41920, Note_off_c, 0, 60, 64
1, 41920, Note_on_c, 0, 65, 98
1, 41920, Note_on_c, 9, 40, 88
1, 41922, Note_off_c, 9, 40, 64
1, 41922, Note_off_c, 0, 53, 64
1, 41922, Note_on_c, 0, 60, 99
1, 41925, Note_on_c, 0, 53, 40
1, 41935, Note_on_c, 2, 62, 97
1, 41950, Note_off_c, 3, 74, 64
1, 41955, Note_off_c, 2, 63, 64
1, 41967, Note_off_c, 11, 48, 64
1, 41990, Note_off_c, 0, 57, 64
1, 41997, Note_on_c, 3, 72, 119
1, 42000, Note_on_c, 11, 51, 98
1, 42000, Note_on_c, 9, 40, 77
1, 42002, Note_off_c, 9, 40, 64
1, 42002, Note_off_c, 0, 53, 64
1, 42010, Note_off_c, 0, 60, 64
1, 42012, Note_off_c, 0, 65, 64
1, 42042, Note_on_c, 2, 63, 98
1, 42052, Note_off_c, 2, 62, 64
1, 42127, Pitch_bend_c, 7, 14861
1, 42132, Note_off_c, 3, 72, 64
1, 42140, Pitch_bend_c, 7, 10649
1, 42152, Pitch_bend_c, 7, 8192
1, 42160, Note_on_c, 2, 62, 92
1, 42162, Note_on_c, 3, 72, 97
1, 42195, Note_off_c, 2, 63, 64
1, 42207, Note_off_c, 11, 51, 64
1, 42237, Note_on_c, 0, 52, 46
1, 42240, Note_on_c, 11, 36, 114
1, 42240, Note_on_c, 9, 51, 72
1, 42240, Note_on_c, 9, 35, 81
1, 42242, Note_off_c, 9, 35, 64
1, 42242, Note_off_c, 9, 51, 64
1, 42242, Note_on_c, 0, 55, 89
1, 42242, Note_on_c, 0, 60, 99
1, 42245, Note_on_c, 0, 64, 75
1, 42255, Note_off_c, 2, 62, 64
1, 42257, Note_on_c, 2, 60, 113
1, 42260, Note_off_c, 3, 72, 64
1, 42390, Note_off_c, 0, 64, 64
1, 42390, Note_off_c, 0, 55, 64
1, 42397, Note_off_c, 2, 60, 64
1, 42397, Note_on_c, 7, 64, 105
1, 42402, Note_off_c, 0, 60, 64
1, 42402, Note_on_c, 0, 64, 96
1, 42402, Note_on_c, 6, 72, 90
1, 42402, Note_on_c, 6, 79, 75
1, 42405, Note_on_c, 0, 60, 97
1, 42405, Note_on_c, 0, 55, 63
1, 42422, Note_on_c, 2, 60, 102
1, 42442, Note_off_c, 6, 79, 64
1, 42445, Note_off_c, 0, 55, 64
1, 42447, Note_off_c, 7, 64, 64
1, 42447, Note_off_c, 11, 36, 64
1, 42467, Note_off_c, 6, 72, 64
1, 42472, Note_off_c, 0, 60, 64
1, 42480, Note_on_c, 0, 55, 87
1, 42480, Note_on_c, 11, 40, 98
1, 42480, Note_on_c, 9, 51, 110
1, 42480, Note_on_c, 9, 40, 92
1, 42482, Note_off_c, 9, 40, 64
1, 42482, Note_off_c, 9, 51, 64
1, 42487, Note_off_c, 0, 64, 64
1, 42490, Note_off_c, 2, 60, 64
1, 42505, Note_on_c, 2, 60, 97
1, 42507, Note_off_c, 0, 52, 64
1, 42520, Note_off_c, 0, 55, 64
1, 42637, Note_off_c, 2, 60, 64
1, 42637, Note_on_c, 0, 64, 101
1, 42640, Note_on_c, 9, 51, 86
1, 42642, Note_off_c, 9, 51, 64
1, 42642, Note_on_c, 0, 60, 97
1, 42642, Note_on_c, 0, 55, 78
1, 42645, Note_on_c, 0, 52, 33
1, 42657, Note_on_c, 2, 60, 127
1, 42687, Note_off_c, 11, 40, 64
1, 42720, Note_on_c, 11, 43, 104
1, 42720, Note_on_c, 9, 51, 93
1, 42720, Note_on_c, 9, 35, 86
1, 42722, Note_off_c, 9, 35, 64
1, 42722, Note_off_c, 9, 51, 64
1, 42722, Note_on_c, 6, 72, 88
1, 42722, Note_on_c, 6, 79, 78
1, 42722, Note_on_c, 7, 64, 105
1, 42770, Note_off_c, 7, 64, 64
1, 42780, Note_off_c, 6, 79, 64
1, 42782, Note_off_c, 6, 72, 64
1, 42792, Note_off_c, 2, 60, 64
1, 42865, Note_on_c, 2, 60, 117
1, 42877, Note_off_c, 0, 64, 64
1, 42877, Note_on_c, 3, 67, 98
1, 42880, Note_off_c, 0, 60, 64
1, 42880, Note_on_c, 0, 64, 104
1, 42882, Note_on_c, 0, 60, 99
1, 42927, Note_off_c, 2, 60, 64
1, 42927, Note_off_c, 11, 43, 64
1, 42930, Note_off_c, 3, 67, 64
1, 42932, Note_off_c, 0, 55, 64
1, 42952, Note_off_c, 0, 60, 64
1, 42957, Note_on_c, 3, 69, 100
1, 42960, Note_on_c, 11, 45, 91
1, 42960, Note_on_c, 2, 60, 102
1, 42960, Note_on_c, 9, 51, 121
1, 42960, Note_on_c, 9, 40, 91
1, 42962, Note_off_c, 9, 40, 64
1, 42962, Note_off_c, 9, 51, 64
1, 42962, Note_off_c, 0, 52, 64
1, 42977, Note_off_c, 0, 64, 64
1, 43052, Note_off_c, 2, 60, 64
1, 43102, Note_off_c, 3, 69, 64
1, 43117, Note_on_c, 3, 72, 85
1, 43120, Note_on_c, 9, 51, 79
1, 43122, Note_off_c, 9, 51, 64
1, 43167, Note_off_c, 11, 45, 64
1, 43200, Note_on_c, 0, 52, 43
1, 43200, Note_on_c, 11, 48, 98
1, 43200, Note_on_c, 2, 60, 117
1, 43200, Note_on_c, 9, 51, 78
1, 43200, Note_on_c, 9, 35, 81
1, 43202, Note_off_c, 9, 35, 64
1, 43202, Note_off_c, 9, 51, 64
1, 43202, Note_on_c, 0, 55, 86
1, 43202, Note_on_c, 0, 60, 96
1, 43202, Note_on_c, 6, 72, 94
1, 43202, Note_on_c, 6, 79, 74
1, 43202, Note_on_c, 7, 64, 97
1, 43205, Note_on_c, 0, 64, 76
1, 43227, Note_off_c, 3, 72, 64
1, 43237, Note_off_c, 7, 64, 64
1, 43250, Note_off_c, 6, 79, 64
1, 43260, Note_off_c, 6, 72, 64
1, 43322, Note_off_c, 2, 60, 64
1, 43337, Note_off_c, 0, 64, 64
1, 43352, Note_off_c, 0, 60, 64
1, 43360, Note_on_c, 0, 64, 96
1, 43362, Note_on_c, 0, 60, 87
1, 43365, Note_on_c, 2, 60, 109
1, 43407, Note_off_c, 11, 48, 64
1, 43430, Note_off_c, 2, 60, 64
1, 43440, Note_on_c, 11, 45, 106
1, 43440, Note_on_c, 9, 51, 117
1, 43440, Note_on_c, 9, 40, 86
1, 43442, Note_off_c, 9, 40, 64
1, 43442, Note_off_c, 9, 51, 64
1, 43445, Note_off_c, 0, 60, 64
1, 43447, Note_off_c, 0, 64, 64
1, 43455, Note_on_c, 2, 60, 115
1, 43457, Note_off_c, 0, 55, 64
1, 43467, Note_off_c, 0, 52, 64
1, 43552, Note_off_c, 2, 60, 64
1, 43597, Note_on_c, 0, 64, 105
1, 43597, Note_on_c, 6, 79, 80
1, 43597, Note_on_c, 6, 72, 96
1, 43597, Note_on_c, 7, 64, 106
1, 43600, Note_on_c, 9, 51, 81
1, 43602, Note_off_c, 9, 51, 64
1, 43602, Note_on_c, 0, 60, 97
1, 43602, Note_on_c, 0, 55, 85
1, 43607, Note_on_c, 2, 60, 127
1, 43642, Note_off_c, 7, 64, 64
1, 43647, Note_off_c, 11, 45, 64
1, 43660, Note_off_c, 6, 79, 64
1, 43662, Note_off_c, 6, 72, 64
1, 43675, Note_on_c, 0, 52, 28
1, 43680, Note_on_c, 11, 43, 102
1, 43680, Note_on_c, 9, 51, 89
1, 43680, Note_on_c, 9, 35, 89
1, 43682, Note_off_c, 9, 35, 64
1, 43682, Note_off_c, 9, 51, 64
1, 43707, Note_off_c, 2, 60, 64
1, 43835, Note_off_c, 0, 64, 64
1, 43837, Note_on_c, 0, 64, 105
1, 43840, Note_off_c, 0, 55, 64
1, 43840, Note_off_c, 0, 60, 64
1, 43840, Note_on_c, 9, 40, 100
1, 43842, Note_off_c, 9, 40, 64
1, 43842, Note_off_c, 0, 52, 64
1, 43842, Note_on_c, 0, 60, 101
1, 43842, Note_on_c, 0, 55, 92
1, 43845, Note_on_c, 0, 52, 55
1, 43887, Note_off_c, 11, 43, 64
1, 43912, Note_off_c, 0, 60, 64
1, 43920, Note_off_c, 0, 52, 64
1, 43920, Note_on_c, 11, 40, 86
1, 43920, Note_on_c, 9, 40, 100
1, 43922, Note_off_c, 9, 40, 64
1, 43932, Note_off_c, 0, 64, 64
1, 43935, Note_off_c, 0, 55, 64
1, 44080, Note_on_c, 3, 72, 97
1, 44127, Note_off_c, 11, 40, 64
1, 44140, Note_off_c, 3, 72, 64
1, 44157, Note_on_c, 0, 62, 100
1, 44157, Note_on_c, 0, 59, 86
1, 44160, Note_on_c, 11, 43, 102
1, 44160, Note_on_c, 2, 55, 117
1, 44160, Note_on_c, 9, 51, 93
1, 44160, Note_on_c, 9, 35, 114
1, 44162, Note_off_c, 9, 35, 64
1, 44162, Note_off_c, 9, 51, 64
1, 44162, Note_on_c, 0, 67, 100
1, 44162, Note_on_c, 3, 74, 112
1, 44315, Note_off_c, 0, 67, 64
1, 44317, Note_off_c, 3, 74, 64
1, 44317, Note_off_c, 2, 55, 64
1, 44317, Note_on_c, 0, 67, 101
1, 44317, Note_on_c, 6, 79, 74
1, 44317, Note_on_c, 6, 71, 91
1, 44317, Note_on_c, 7, 62, 105
1, 44320, Note_off_c, 0, 62, 64
1, 44322, Note_on_c, 0, 62, 99
1, 44367, Note_off_c, 11, 43, 64
1, 44370, Note_off_c, 7, 62, 64
1, 44370, Note_off_c, 6, 79, 64
1, 44382, Note_on_c, 2, 58, 109
1, 44387, Note_off_c, 6, 71, 64
1, 44390, Pitch_bend_c, 2, 7606
1, 44397, Note_off_c, 0, 59, 64
1, 44397, Note_on_c, 3, 74, 108
1, 44400, Note_on_c, 11, 45, 102
1, 44400, Note_on_c, 9, 51, 110
1, 44400, Note_on_c, 9, 40, 91
1, 44402, Note_off_c, 9, 40, 64
1, 44402, Note_off_c, 9, 51, 64
1, 44402, Note_on_c, 0, 59, 98
1, 44402, Pitch_bend_c, 2, 7255
1, 44410, Note_off_c, 0, 67, 64
1, 44425, Note_off_c, 0, 62, 64
1, 44440, Note_off_c, 0, 59, 64
1, 44440, Pitch_bend_c, 2, 7606
1, 44452, Pitch_bend_c, 2, 8192
1, 44510, Note_off_c, 3, 74, 64
1, 44557, Note_on_c, 0, 67, 100
1, 44557, Note_on_c, 3, 74, 80
1, 44560, Note_on_c, 9, 51, 85
1, 44562, Note_off_c, 9, 51, 64
1, 44562, Note_on_c, 0, 62, 97
1, 44562, Note_on_c, 0, 59, 73
1, 44587, Note_off_c, 3, 74, 64
1, 44592, Note_off_c, 2, 58, 64
1, 44607, Note_off_c, 11, 45, 64
1, 44637, Pitch_bend_c, 2, 3160
1, 44637, Note_on_c, 3, 74, 106
1, 44640, Note_on_c, 11, 46, 98
1, 44640, Note_on_c, 6, 79, 77
1, 44640, Note_on_c, 7, 62, 105
1, 44640, Note_on_c, 9, 51, 81
1, 44640, Note_on_c, 9, 35, 88
1, 44642, Note_off_c, 9, 35, 64
1, 44642, Note_off_c, 9, 51, 64
1, 44642, Note_on_c, 6, 71, 84
1, 44647, Note_on_c, 2, 58, 112
1, 44650, Pitch_bend_c, 2, 2458
1, 44662, Pitch_bend_c, 2, 2341
1, 44675, Pitch_bend_c, 2, 2575
1, 44687, Pitch_bend_c, 2, 3394
1, 44690, Note_off_c, 6, 71, 64
1, 44690, Note_off_c, 6, 79, 64
1, 44702, Pitch_bend_c, 2, 4330
1, 44712, Note_off_c, 7, 62, 64
1, 44715, Pitch_bend_c, 2, 5617
1, 44727, Pitch_bend_c, 2, 7021
1, 44740, Pitch_bend_c, 2, 8192
1, 44760, Note_off_c, 3, 74, 64
1, 44797, Note_on_c, 3, 74, 97
1, 44800, Note_off_c, 0, 59, 64
1, 44800, Note_off_c, 0, 62, 64
1, 44800, Note_off_c, 0, 67, 64
1, 44802, Note_on_c, 0, 67, 101
1, 44802, Note_on_c, 0, 62, 97
1, 44802, Note_on_c, 0, 59, 87
1, 44805, Note_on_c, 0, 55, 21
1, 44832, Note_off_c, 2, 58, 64
1, 44837, Note_off_c, 3, 74, 64
1, 44847, Note_off_c, 0, 59, 64
1, 44847, Note_off_c, 11, 46, 64
1, 44875, Pitch_bend_c, 2, 5383
1, 44877, Note_off_c, 0, 55, 64
1, 44877, Note_on_c, 3, 74, 102
1, 44880, Note_on_c, 11, 46, 96
1, 44880, Note_on_c, 2, 58, 104
1, 44880, Note_on_c, 9, 51, 113
1, 44880, Note_on_c, 9, 40, 89
1, 44882, Note_off_c, 9, 40, 64
1, 44882, Note_off_c, 9, 51, 64
1, 44887, Pitch_bend_c, 2, 4096
1, 44892, Note_off_c, 0, 62, 64
1, 44895, Note_off_c, 0, 67, 64
1, 44900, Pitch_bend_c, 2, 3160
1, 44912, Pitch_bend_c, 2, 2926
1, 44925, Pitch_bend_c, 2, 3160
1, 44937, Pitch_bend_c, 2, 3862
1, 44950, Pitch_bend_c, 2, 5032
1, 44962, Pitch_bend_c, 2, 6202
1, 44975, Pitch_bend_c, 2, 7255
1, 44987, Pitch_bend_c, 2, 8192
1, 44995, Note_off_c, 3, 74, 64
1, 45040, Note_on_c, 3, 74, 85
1, 45040, Note_on_c, 9, 51, 85
1, 45042, Note_off_c, 9, 51, 64
1, 45087, Note_off_c, 11, 46, 64
1, 45090, Note_off_c, 3, 74, 64
1, 45110, Note_off_c, 2, 58, 64
1, 45120, Note_on_c, 0, 57, 101
1, 45120, Note_on_c, 11, 41, 102
1, 45120, Note_on_c, 3, 75, 107
1, 45120, Note_on_c, 6, 79, 80
1, 45120, Note_on_c, 7, 63, 109
1, 45120, Note_on_c, 9, 51, 72
1, 45120, Note_on_c, 9, 35, 91
1, 45122, Note_off_c, 9, 35, 64
1, 45122, Note_off_c, 9, 51, 64
1, 45122, Note_on_c, 0, 60, 103
1, 45122, Note_on_c, 0, 65, 98
1, 45122, Note_on_c, 6, 72, 87
1, 45137, Note_on_c, 2, 60, 109
1, 45165, Note_off_c, 7, 63, 64
1, 45180, Note_off_c, 6, 72, 64
1, 45182, Note_off_c, 6, 79, 64
1, 45275, Note_off_c, 0, 65, 64
1, 45282, Note_off_c, 0, 60, 64
1, 45282, Note_on_c, 0, 65, 98
1, 45285, Note_on_c, 0, 60, 97
1, 45297, Note_off_c, 3, 75, 64
1, 45302, Note_off_c, 2, 60, 64
1, 45312, Note_off_c, 0, 57, 64
1, 45327, Note_off_c, 11, 41, 64
1, 45357, Note_on_c, 3, 74, 114
1, 45360, Note_on_c, 11, 43, 82
1, 45360, Pitch_bend_c, 2, 3628
1, 45360, Note_on_c, 9, 51, 113
1, 45360, Note_on_c, 9, 40, 94
1, 45362, Note_off_c, 9, 40, 64
1, 45362, Note_off_c, 9, 51, 64
1, 45362, Note_on_c, 0, 57, 81
1, 45362, Note_on_c, 2, 63, 104
1, 45370, Note_off_c, 0, 65, 64
1, 45370, Pitch_bend_c, 2, 2575
1, 45377, Note_off_c, 0, 60, 64
1, 45385, Pitch_bend_c, 2, 1873
1, 45397, Pitch_bend_c, 2, 1639
1, 45407, Note_off_c, 0, 57, 64
1, 45410, Pitch_bend_c, 2, 1873
1, 45422, Pitch_bend_c, 2, 2575
1, 45435, Pitch_bend_c, 2, 3628
1, 45447, Pitch_bend_c, 2, 5032
1, 45460, Pitch_bend_c, 2, 6319
1, 45472, Pitch_bend_c, 2, 7372
1, 45485, Pitch_bend_c, 2, 8074
1, 45497, Pitch_bend_c, 2, 8192
1, 45517, Note_on_c, 0, 65, 98
1, 45517, Note_on_c, 6, 79, 80
1, 45517, Note_on_c, 6, 72, 94
1, 45517, Note_on_c, 7, 63, 115
1, 45520, Note_on_c, 9, 51, 85
1, 45522, Note_off_c, 9, 51, 64
1, 45522, Note_off_c, 3, 74, 64
1, 45522, Note_on_c, 0, 60, 97
1, 45522, Note_on_c, 3, 72, 91
1, 45525, Note_on_c, 0, 57, 66
1, 45537, Note_off_c, 2, 63, 64
1, 45565, Note_off_c, 3, 72, 64
1, 45567, Note_off_c, 11, 43, 64
1, 45570, Note_off_c, 7, 63, 64
1, 45580, Note_off_c, 6, 72, 64
1, 45587, Note_off_c, 6, 79, 64
1, 45597, Pitch_bend_c, 2, 2107
1, 45597, Note_on_c, 2, 63, 106
1, 45600, Note_on_c, 11, 44, 92
1, 45600, Note_on_c, 9, 51, 68
1, 45600, Note_on_c, 9, 35, 85
1, 45602, Note_off_c, 9, 35, 64
1, 45602, Note_off_c, 9, 51, 64
1, 45602, Note_on_c, 3, 74, 106
1, 45620, Pitch_bend_c, 2, 2575
1, 45632, Pitch_bend_c, 2, 3394
1, 45645, Pitch_bend_c, 2, 4564
1, 45660, Pitch_bend_c, 2, 5968
1, 45672, Pitch_bend_c, 2, 7255
1, 45685, Pitch_bend_c, 2, 8192
1, 45760, Note_off_c, 0, 60, 64
1, 45760, Note_off_c, 0, 65, 64
1, 45760, Note_on_c, 9, 40, 89
1, 45762, Note_off_c, 9, 40, 64
1, 45762, Note_off_c, 0, 57, 64
1, 45762, Note_on_c, 0, 65, 84
1, 45762, Note_on_c, 0, 60, 91
1, 45765, Note_on_c, 0, 57, 67
1, 45772, Note_off_c, 2, 63, 64
1, 45807, Note_off_c, 11, 44, 64
1, 45812, Note_off_c, 0, 57, 64
1, 45817, Note_off_c, 3, 74, 64
1, 45832, Note_off_c, 0, 60, 64
1, 45832, Pitch_bend_c, 2, 235
1, 45840, Note_on_c, 11, 44, 89
1, 45840, Note_on_c, 2, 63, 109
1, 45840, Note_on_c, 3, 72, 95
1, 45840, Note_on_c, 9, 40, 100
1, 45842, Note_off_c, 9, 40, 64
1, 45857, Pitch_bend_c, 2, 703
1, 45860, Note_off_c, 0, 65, 64
1, 45870, Pitch_bend_c, 2, 1639
1, 45882, Pitch_bend_c, 2, 3160
1, 45895, Pitch_bend_c, 2, 5617
1, 45907, Pitch_bend_c, 2, 8192
1, 45965, Note_off_c, 3, 72, 64
1, 45997, Note_off_c, 2, 63, 64
1, 46002, Note_on_c, 3, 72, 97
1, 46047, Note_off_c, 11, 44, 64
1, 46077, Note_on_c, 0, 48, 16
1, 46080, Note_on_c, 0, 52, 61
1, 46080, Note_on_c, 11, 36, 92
1, 46080, Note_on_c, 9, 51, 81
1, 46080, Note_on_c, 9, 35, 104
1, 46082, Note_off_c, 9, 35, 64
1, 46082, Note_off_c, 9, 51, 64
1, 46082, Note_on_c, 0, 55, 74
1, 46082, Note_on_c, 0, 60, 101
1, 46082, Note_on_c, 2, 60, 113
1, 46085, Note_on_c, 0, 64, 88
1, 46100, Note_off_c, 3, 72, 64
1, 46195, Note_off_c, 2, 60, 64
1, 46215, Note_off_c, 0, 64, 64
1, 46230, Note_on_c, 2, 60, 103
1, 46237, Note_off_c, 0, 60, 64
1, 46237, Note_on_c, 6, 72, 89
1, 46237, Note_on_c, 7, 64, 109
1, 46240, Note_on_c, 6, 79, 78
1, 46242, Note_on_c, 0, 64, 87
1, 46242, Note_on_c, 0, 60, 76
1, 46287, Note_off_c, 11, 36, 64
1, 46290, Note_off_c, 2, 60, 64
1, 46295, Note_off_c, 6, 72, 64
1, 46300, Note_off_c, 7, 64, 64
1, 46302, Note_off_c, 6, 79, 64
1, 46320, Note_on_c, 11, 40, 77
1, 46320, Note_on_c, 9, 51, 117
1, 46320, Note_on_c, 9, 40, 98
1, 46322, Note_off_c, 9, 40, 64
1, 46322, Note_off_c, 9, 51, 64
1, 46325, Note_off_c, 0, 64, 64
1, 46330, Note_on_c, 2, 60, 103
1, 46337, Note_off_c, 0, 55, 64
1, 46337, Note_off_c, 0, 48, 64
1, 46342, Note_off_c, 0, 60, 64
1, 46347, Note_off_c, 0, 52, 64
1, 46460, Note_off_c, 2, 60, 64
1, 46477, Note_on_c, 0, 64, 99
1, 46480, Note_on_c, 9, 51, 91
1, 46482, Note_off_c, 9, 51, 64
1, 46482, Note_on_c, 0, 55, 70
1, 46482, Note_on_c, 0, 60, 91
1, 46482, Note_on_c, 2, 60, 119
1, 46527, Note_off_c, 11, 40, 64
1, 46555, Note_on_c, 0, 52, 16
1, 46560, Note_on_c, 11, 43, 92
1, 46560, Note_on_c, 9, 51, 76
1, 46560, Note_on_c, 9, 35, 89
1, 46562, Note_off_c, 9, 35, 64
1, 46562, Note_off_c, 9, 51, 64
1, 46562, Note_on_c, 6, 72, 90
1, 46562, Note_on_c, 6, 79, 74
1, 46562, Note_on_c, 7, 64, 110
1, 46572, Note_off_c, 2, 60, 64
1, 46612, Note_off_c, 6, 79, 64
1, 46630, Note_off_c, 6, 72, 64
1, 46635, Note_off_c, 7, 64, 64
1, 46685, Note_on_c, 2, 60, 105
1, 46700, Note_off_c, 0, 60, 64
1, 46715, Note_off_c, 0, 64, 64
1, 46717, Note_on_c, 0, 64, 97
1, 46722, Note_on_c, 0, 60, 87
1, 46722, Note_on_c, 3, 67, 80
1, 46757, Note_off_c, 2, 60, 64
1, 46762, Note_off_c, 3, 67, 64
1, 46767, Note_off_c, 11, 43, 64
1, 46772, Note_off_c, 0, 55, 64
1, 46792, Note_on_c, 2, 60, 113
1, 46800, Note_on_c, 11, 45, 88
1, 46800, Note_on_c, 9, 51, 121
1, 46800, Note_on_c, 9, 40, 96
1, 46802, Note_off_c, 9, 40, 64
1, 46802, Note_off_c, 9, 51, 64
1, 46802, Note_on_c, 3, 69, 102
1, 46805, Note_off_c, 0, 64, 64
1, 46820, Note_off_c, 0, 60, 64
1, 46847, Note_off_c, 0, 52, 64
1, 46867, Note_off_c, 2, 60, 64
1, 46932, Note_off_c, 3, 69, 64
1, 46955, Note_on_c, 0, 64, 72
1, 46955, Note_on_c, 2, 60, 105
1, 46957, Note_on_c, 3, 72, 78
1, 46960, Note_on_c, 9, 51, 93
1, 46962, Note_off_c, 9, 51, 64
1, 47007, Note_off_c, 11, 45, 64
1, 47012, Note_off_c, 2, 60, 64
1, 47037, Note_on_c, 0, 55, 80
1, 47040, Note_off_c, 0, 64, 64
1, 47040, Note_on_c, 11, 48, 79
1, 47040, Note_on_c, 6, 72, 90
1, 47040, Note_on_c, 6, 79, 76
1, 47040, Note_on_c, 9, 51, 87
1, 47040, Note_on_c, 9, 35, 84
1, 47042, Note_off_c, 9, 35, 64
1, 47042, Note_off_c, 9, 51, 64
1, 47042, Note_on_c, 0, 64, 72
1, 47042, Note_on_c, 0, 60, 99
1, 47042, Note_on_c, 7, 64, 106
1, 47047, Note_on_c, 2, 60, 107
1, 47057, Note_off_c, 3, 72, 64
1, 47097, Note_off_c, 6, 72, 64
1, 47100, Note_off_c, 6, 79, 64
1, 47105, Note_off_c, 7, 64, 64
1, 47120, Note_off_c, 2, 60, 64
1, 47180, Note_off_c, 0, 64, 64
1, 47197, Note_on_c, 0, 64, 81
1, 47197, Note_on_c, 2, 60, 111
1, 47247, Note_off_c, 11, 48, 64
1, 47252, Note_off_c, 0, 60, 64
1, 47275, Note_off_c, 2, 60, 64
1, 47277, Note_off_c, 0, 64, 64
1, 47280, Note_on_c, 11, 45, 94
1, 47280, Note_on_c, 9, 51, 110
1, 47280, Note_on_c, 9, 40, 102
1, 47282, Note_off_c, 9, 40, 64
1, 47282, Note_off_c, 9, 51, 64
1, 47300, Note_on_c, 2, 60, 119
1, 47312, Note_off_c, 0, 55, 64
1, 47375, Note_off_c, 2, 60, 64
1, 47435, Note_on_c, 0, 64, 103
1, 47437, Note_on_c, 0, 55, 91
1, 47437, Note_on_c, 6, 72, 92
1, 47437, Note_on_c, 7, 64, 109
1, 47440, Note_on_c, 9, 51, 87
1, 47442, Note_off_c, 9, 51, 64
1, 47442, Note_on_c, 0, 60, 104
1, 47442, Note_on_c, 0, 52, 41
1, 47442, Note_on_c, 6, 79, 80
1, 47455, Note_on_c, 2, 60, 127
1, 47487, Note_off_c, 11, 45, 64
1, 47492, Note_off_c, 6, 72, 64
1, 47500, Note_off_c, 0, 55, 64
1, 47502, Note_off_c, 6, 79, 64
1, 47502, Note_off_c, 7, 64, 64
1, 47512, Note_off_c, 0, 52, 64
1, 47515, Note_off_c, 0, 60, 64
1, 47520, Note_on_c, 11, 43, 100
1, 47520, Note_on_c, 9, 51, 93
1, 47520, Note_on_c, 9, 35, 85
1, 47522, Note_off_c, 9, 35, 64
1, 47522, Note_off_c, 9, 51, 64
1, 47535, Note_off_c, 0, 64, 64
1, 47645, Note_off_c, 2, 60, 64
1, 47670, Note_on_c, 2, 60, 119
1, 47677, Note_on_c, 0, 64, 103
1, 47680, Note_on_c, 9, 40, 91
1, 47682, Note_off_c, 9, 40, 64
1, 47682, Note_on_c, 0, 60, 99
1, 47682, Note_on_c, 0, 55, 71
1, 47725, Note_off_c, 2, 60, 64
1, 47727, Note_off_c, 11, 43, 64
1, 47735, Note_off_c, 0, 55, 64
1, 47752, Note_off_c, 0, 60, 64
1, 47755, Note_on_c, 0, 52, 16
1, 47757, Note_off_c, 0, 64, 64
1, 47757, Note_on_c, 0, 55, 99
1, 47760, Note_on_c, 0, 60, 104
1, 47760, Note_on_c, 0, 64, 106
1, 47760, Note_on_c, 11, 40, 102
1, 47760, Note_on_c, 9, 40, 93
1, 47762, Note_off_c, 9, 40, 64
1, 47785, Note_on_c, 2, 60, 122
1, 47865, Note_off_c, 2, 60, 64
1, 47902, Note_off_c, 0, 60, 64
1, 47907, Note_off_c, 0, 55, 64
1, 47910, Note_off_c, 0, 64, 64
1, 47917, Note_on_c, 3, 67, 78
1, 47927, Note_off_c, 0, 52, 64
1, 47967, Note_off_c, 3, 67, 64
1, 47967, Note_off_c, 11, 40, 64
1, 47997, Note_on_c, 3, 72, 116
1, 48000, Note_on_c, 11, 36, 98
1, 48000, Note_on_c, 2, 60, 111
1, 48000, Note_on_c, 9, 42, 93
1, 48000, Note_on_c, 9, 35, 121
1, 48000, Note_on_c, 9, 40, 98
1, 48002, Note_off_c, 9, 40, 64
1, 48002, Note_off_c, 9, 35, 64
1, 48002, Note_off_c, 9, 42, 64
1, 48002, Note_on_c, 0, 55, 90
1, 48002, Note_on_c, 6, 72, 94
1, 48002, Note_on_c, 6, 79, 76
1, 48002, Note_on_c, 7, 64, 103
1, 48005, Note_on_c, 0, 60, 101
1, 48005, Note_on_c, 0, 64, 103
1, 48032, Note_off_c, 7, 64, 64
1, 48077, Note_off_c, 6, 79, 64
1, 48082, Note_off_c, 6, 72, 64
1, 48102, Note_off_c, 2, 60, 64
1, 48137, Note_off_c, 0, 64, 64
1, 48142, Note_off_c, 3, 72, 64
1, 48145, Note_off_c, 0, 60, 64
1, 48147, Note_off_c, 11, 36, 64
1, 48152, Note_off_c, 0, 55, 64
1, 48237, Note_on_c, 3, 72, 107
1, 48360, Note_off_c, 3, 72, 64
1, 48397, Note_on_c, 3, 72, 82
1, 48442, Note_off_c, 3, 72, 64
1, 48477, Note_on_c, 3, 75, 107
1, 48605, Note_off_c, 3, 75, 64
1, 48637, Note_on_c, 3, 76, 98
1, 48710, Note_off_c, 3, 76, 64
1, 48717, Note_on_c, 3, 72, 91
1, 48842, Note_off_c, 3, 72, 64
1, 48877, Note_on_c, 3, 72, 101
1, 48957, Note_on_c, 6, 72, 92
1, 48957, Note_on_c, 6, 79, 78
1, 48957, Note_on_c, 7, 64, 108
1, 48960, Note_on_c, 0, 48, 16
1, 48960, Note_on_c, 0, 52, 75
1, 48960, Note_on_c, 11, 36, 108
1, 48960, Note_on_c, 2, 60, 109
1, 48960, Note_on_c, 9, 42, 121
1, 48960, Note_on_c, 9, 40, 94
1, 48960, Note_on_c, 9, 35, 102
1, 48962, Note_off_c, 9, 35, 64
1, 48962, Note_off_c, 9, 40, 64
1, 48962, Note_off_c, 9, 42, 64
1, 48962, Note_on_c, 0, 55, 103
1, 48962, Note_on_c, 0, 60, 101
1, 48965, Note_on_c, 0, 64, 105
1, 48970, Note_off_c, 3, 72, 64
1, 48990, Note_off_c, 7, 64, 64
1, 49017, Note_off_c, 6, 79, 64
1, 49045, Note_off_c, 6, 72, 64
1, 49057, Note_off_c, 2, 60, 64
1, 49087, Note_off_c, 0, 64, 64
1, 49092, Note_off_c, 0, 60, 64
1, 49097, Note_off_c, 0, 55, 64
1, 49107, Note_off_c, 11, 36, 64
1, 49115, Note_off_c, 0, 48, 64
1, 49122, Note_off_c, 0, 52, 64
1, 49197, Note_on_c, 3, 72, 97
1, 49310, Note_off_c, 3, 72, 64
1, 49357, Note_on_c, 3, 72, 84
1, 49412, Note_off_c, 3, 72, 64
1, 49437, Note_on_c, 3, 76, 114
1, 49587, Note_off_c, 3, 76, 64
1, 49912, Note_on_c, 2, 60, 122
1, 49917, Note_on_c, 0, 55, 92
1, 49917, Note_on_c, 0, 52, 24
1, 49917, Note_on_c, 3, 75, 107
1, 49917, Note_on_c, 6, 79, 81
1, 49917, Note_on_c, 7, 64, 109
1, 49920, Note_on_c, 0, 60, 100
1, 49920, Note_on_c, 11, 36, 111
1, 49920, Note_on_c, 9, 42, 121
1, 49920, Note_on_c, 9, 40, 98
1, 49920, Note_on_c, 9, 35, 106
1, 49922, Note_off_c, 9, 35, 64
1, 49922, Note_off_c, 9, 40, 64
1, 49922, Note_off_c, 9, 42, 64
1, 49922, Note_on_c, 0, 64, 105
1, 49922, Note_on_c, 6, 72, 98
1, 49967, Note_off_c, 6, 79, 64
1, 49980, Note_off_c, 7, 64, 64
1, 49985, Note_off_c, 6, 72, 64
1, 49992, Note_off_c, 2, 60, 64
1, 50027, Note_off_c, 3, 75, 64
1, 50050, Note_off_c, 0, 55, 64
1, 50052, Note_off_c, 0, 60, 64
1, 50062, Note_off_c, 0, 64, 64
1, 50067, Note_off_c, 11, 36, 64
1, 50077, Note_on_c, 3, 75, 77
1, 50085, Note_off_c, 0, 52, 64
1, 50125, Note_off_c, 3, 75, 64
1, 50157, Note_on_c, 3, 75, 91
1, 50265, Note_off_c, 3, 75, 64
1, 50317, Note_on_c, 3, 75, 72
1, 50357, Note_off_c, 3, 75, 64
1, 50397, Note_on_c, 3, 75, 97
1, 50507, Note_off_c, 3, 75, 64
1, 50557, Note_on_c, 3, 75, 81
1, 50612, Note_off_c, 3, 75, 64
1, 50635, Note_on_c, 3, 75, 87
1, 50755, Note_off_c, 3, 75, 64
1, 50797, Note_on_c, 3, 75, 89
1, 50845, Note_off_c, 3, 75, 64
1, 50877, Note_on_c, 3, 75, 91
1, 50882, Note_on_c, 7, 60, 122
1, 50987, Note_off_c, 3, 75, 64
1, 51037, Note_on_c, 3, 75, 82
1, 51085, Note_off_c, 3, 75, 64
1, 51115, Pitch_bend_c, 7, 8309
1, 51117, Note_on_c, 3, 75, 93
1, 51150, Pitch_bend_c, 7, 8426
1, 51162, Pitch_bend_c, 7, 8777
1, 51175, Pitch_bend_c, 7, 9011
1, 51200, Pitch_bend_c, 7, 9362
1, 51225, Pitch_bend_c, 7, 9479
1, 51227, Note_off_c, 3, 75, 64
1, 51237, Pitch_bend_c, 7, 9713
1, 51247, Pitch_bend_c, 7, 9947
1, 51260, Pitch_bend_c, 7, 10181
1, 51272, Pitch_bend_c, 7, 10415
1, 51277, Note_on_c, 3, 75, 82
1, 51297, Pitch_bend_c, 7, 10532
1, 51325, Note_off_c, 3, 75, 64
1, 51335, Pitch_bend_c, 7, 10766
1, 51347, Pitch_bend_c, 7, 10883
1, 51357, Note_on_c, 3, 75, 101
1, 51372, Pitch_bend_c, 7, 11117
1, 51410, Pitch_bend_c, 7, 11351
1, 51422, Pitch_bend_c, 7, 11585
1, 51447, Pitch_bend_c, 7, 11936
1, 51482, Pitch_bend_c, 7, 12053
1, 51510, Pitch_bend_c, 7, 12287
1, 51520, Note_on_c, 9, 40, 98
1, 51522, Note_off_c, 9, 40, 64
1, 51532, Pitch_bend_c, 7, 12521
1, 51545, Pitch_bend_c, 7, 12755
1, 51562, Note_off_c, 3, 75, 64
1, 51570, Pitch_bend_c, 7, 12989
1, 51597, Note_on_c, 3, 72, 99
1, 51600, Note_on_c, 9, 40, 92
1, 51602, Note_off_c, 9, 40, 64
1, 51607, Pitch_bend_c, 7, 13223
1, 51630, Pitch_bend_c, 7, 13340
1, 51670, Pitch_bend_c, 7, 13574
1, 51682, Pitch_bend_c, 7, 13691
1, 51695, Pitch_bend_c, 7, 13925
1, 51707, Pitch_bend_c, 7, 14042
1, 51720, Pitch_bend_c, 7, 14510
1, 51730, Note_off_c, 3, 72, 64
1, 51732, Pitch_bend_c, 7, 15212
1, 51745, Pitch_bend_c, 7, 16265
1, 51757, Note_on_c, 3, 72, 93
1, 51757, Pitch_bend_c, 7, 16383
1, 51837, Note_on_c, 0, 60, 100
1, 51837, Note_on_c, 0, 57, 91
1, 51837, Note_on_c, 0, 53, 38
1, 51840, Note_on_c, 11, 41, 104
1, 51840, Note_on_c, 2, 53, 102
1, 51840, Note_on_c, 9, 51, 98
1, 51840, Note_on_c, 9, 35, 108
1, 51842, Note_off_c, 9, 35, 64
1, 51842, Note_off_c, 9, 51, 64
1, 51842, Note_on_c, 0, 65, 90
1, 51865, Note_off_c, 3, 72, 64
1, 51905, Note_off_c, 2, 53, 64
1, 51940, Note_off_c, 7, 60, 64
1, 51972, Note_on_c, 2, 53, 109
1, 51980, Note_off_c, 0, 65, 64
1, 51997, Note_on_c, 6, 79, 85
1, 51997, Note_on_c, 6, 72, 80
1, 52000, Note_on_c, 7, 60, 96
1, 52002, Note_off_c, 0, 57, 64
1, 52002, Note_off_c, 0, 60, 64
1, 52002, Note_on_c, 0, 65, 87
1, 52005, Note_on_c, 0, 60, 94
1, 52005, Note_on_c, 0, 57, 61
1, 52045, Note_off_c, 7, 60, 64
1, 52047, Note_off_c, 11, 41, 64
1, 52060, Note_off_c, 6, 72, 64
1, 52065, Note_off_c, 6, 79, 64
1, 52065, Note_on_c, 2, 57, 117
1, 52077, Note_off_c, 0, 60, 64
1, 52080, Note_on_c, 11, 45, 106
1, 52080, Note_on_c, 9, 51, 98
1, 52080, Note_on_c, 9, 40, 89
1, 52082, Note_off_c, 9, 40, 64
1, 52082, Note_off_c, 9, 51, 64
1, 52082, Note_off_c, 0, 57, 64
1, 52082, Note_off_c, 0, 65, 64
1, 52082, Note_on_c, 5, 65, 97
1, 52082, Note_on_c, 5, 74, 97
1, 52082, Note_on_c, 5, 70, 90
1, 52095, Note_off_c, 2, 53, 64
1, 52095, Note_off_c, 0, 53, 64
1, 52177, Note_off_c, 2, 57, 64
1, 52212, Note_off_c, 5, 74, 64
1, 52217, Note_off_c, 5, 70, 64
1, 52237, Note_on_c, 0, 65, 99
1, 52240, Note_on_c, 9, 51, 94
1, 52242, Note_off_c, 9, 51, 64
1, 52242, Note_on_c, 0, 60, 94
1, 52242, Note_on_c, 5, 63, 96
1, 52242, Note_on_c, 5, 72, 90
1, 52242, Note_on_c, 5, 69, 87
1, 52245, Note_on_c, 0, 57, 79
1, 52245, Note_on_c, 0, 53, 26
1, 52247, Note_on_c, 2, 57, 88
1, 52250, Note_off_c, 5, 65, 64
1, 52287, Note_off_c, 11, 45, 64
1, 52317, Note_on_c, 6, 79, 78
1, 52320, Note_on_c, 11, 48, 98
1, 52320, Note_on_c, 6, 72, 82
1, 52320, Note_on_c, 9, 51, 87
1, 52320, Note_on_c, 9, 35, 78
1, 52322, Note_off_c, 9, 35, 64
1, 52322, Note_off_c, 9, 51, 64
1, 52322, Note_on_c, 7, 60, 108
1, 52342, Note_on_c, 2, 60, 100
1, 52352, Note_off_c, 2, 57, 64
1, 52365, Note_off_c, 7, 60, 64
1, 52380, Note_off_c, 6, 72, 64
1, 52387, Note_off_c, 6, 79, 64
1, 52420, Note_off_c, 5, 63, 64
1, 52425, Note_off_c, 2, 60, 64
1, 52447, Note_off_c, 5, 69, 64
1, 52457, Note_off_c, 5, 72, 64
1, 52480, Note_off_c, 0, 65, 64
1, 52482, Note_off_c, 0, 57, 64
1, 52482, Note_off_c, 0, 60, 64
1, 52482, Note_on_c, 0, 65, 99
1, 52485, Note_on_c, 0, 60, 98
1, 52485, Note_on_c, 0, 57, 70
1, 52487, Note_on_c, 2, 60, 97
1, 52527, Note_off_c, 11, 48, 64
1, 52542, Note_off_c, 0, 60, 64
1, 52550, Note_off_c, 0, 57, 64
1, 52550, Note_off_c, 0, 53, 64
1, 52555, Note_off_c, 0, 65, 64
1, 52560, Note_on_c, 11, 45, 111
1, 52560, Note_on_c, 9, 51, 113
1, 52560, Note_on_c, 9, 40, 96
1, 52562, Note_off_c, 9, 40, 64
1, 52562, Note_off_c, 9, 51, 64
1, 52562, Note_on_c, 2, 62, 100
1, 52577, Note_off_c, 2, 60, 64
1, 52672, Note_off_c, 2, 62, 64
1, 52717, Note_on_c, 2, 62, 105
1, 52720, Note_on_c, 9, 51, 76
1, 52722, Note_off_c, 9, 51, 64
1, 52767, Note_off_c, 11, 45, 64
1, 52797, Note_on_c, 3, 75, 119
1, 52800, Note_on_c, 0, 57, 85
1, 52800, Note_on_c, 11, 41, 111
1, 52800, Note_on_c, 6, 79, 75
1, 52800, Note_on_c, 9, 51, 93
1, 52800, Note_on_c, 9, 35, 100
1, 52802, Note_off_c, 9, 35, 64
1, 52802, Note_off_c, 9, 51, 64
1, 52802, Note_off_c, 2, 62, 64
1, 52802, Note_on_c, 0, 60, 98
1, 52802, Note_on_c, 0, 65, 94
1, 52802, Note_on_c, 6, 72, 85
1, 52802, Note_on_c, 7, 60, 100
1, 52805, Note_on_c, 0, 53, 37
1, 52810, Note_on_c, 2, 63, 96
1, 52835, Note_off_c, 7, 60, 64
1, 52850, Note_off_c, 6, 79, 64
1, 52857, Note_off_c, 6, 72, 64
1, 52927, Note_off_c, 3, 75, 64
1, 52950, Note_off_c, 0, 65, 64
1, 52957, Note_on_c, 3, 72, 71
1, 52960, Note_off_c, 0, 60, 64
1, 52962, Note_off_c, 0, 57, 64
1, 52962, Note_on_c, 0, 65, 100
1, 52962, Note_on_c, 0, 60, 97
1, 52965, Note_on_c, 0, 57, 78
1, 52965, Note_on_c, 2, 62, 102
1, 52977, Note_off_c, 2, 63, 64
1, 53005, Note_off_c, 3, 72, 64
1, 53007, Note_off_c, 0, 57, 64
1, 53007, Note_off_c, 11, 41, 64
1, 53022, Note_off_c, 0, 60, 64
1, 53037, Note_on_c, 3, 75, 110
1, 53040, Note_on_c, 11, 45, 106
1, 53040, Note_on_c, 9, 51, 117
1, 53040, Note_on_c, 9, 40, 96
1, 53042, Note_off_c, 9, 40, 64
1, 53042, Note_off_c, 9, 51, 64
1, 53042, Note_off_c, 0, 65, 64
1, 53042, Note_off_c, 0, 53, 64
1, 53065, Note_on_c, 2, 63, 92
1, 53070, Note_off_c, 2, 62, 64
1, 53192, Note_off_c, 3, 75, 64
1, 53197, Note_on_c, 0, 65, 95
1, 53197, Note_on_c, 0, 60, 97
1, 53197, Note_on_c, 6, 79, 78
1, 53197, Note_on_c, 6, 72, 84
1, 53197, Note_on_c, 7, 60, 102
1, 53200, Note_on_c, 9, 51, 89
1, 53202, Note_off_c, 9, 51, 64
1, 53202, Note_on_c, 0, 57, 81
1, 53202, Note_on_c, 3, 72, 73
1, 53205, Note_on_c, 0, 53, 38
1, 53205, Note_on_c, 2, 62, 91
1, 53220, Note_off_c, 2, 63, 64
1, 53240, Note_off_c, 7, 60, 64
1, 53247, Note_off_c, 11, 45, 64
1, 53250, Note_off_c, 3, 72, 64
1, 53255, Note_off_c, 6, 72, 64
1, 53257, Note_off_c, 6, 79, 64
1, 53280, Note_on_c, 11, 48, 104
1, 53280, Note_on_c, 3, 74, 102
1, 53280, Note_on_c, 9, 51, 83
1, 53280, Note_on_c, 9, 35, 81
1, 53282, Note_off_c, 9, 35, 64
1, 53282, Note_off_c, 9, 51, 64
1, 53310, Note_on_c, 2, 63, 90
1, 53327, Note_off_c, 2, 62, 64
1, 53437, Note_off_c, 0, 65, 64
1, 53440, Note_off_c, 0, 60, 64
1, 53440, Note_on_c, 0, 65, 100
1, 53440, Note_on_c, 9, 40, 97
1, 53442, Note_off_c, 9, 40, 64
1, 53442, Note_on_c, 0, 60, 100
1, 53447, Note_off_c, 3, 74, 64
1, 53455, Note_on_c, 2, 62, 97
1, 53475, Note_off_c, 2, 63, 64
1, 53487, Note_off_c, 11, 48, 64
1, 53517, Note_off_c, 0, 65, 64
1, 53517, Note_off_c, 0, 53, 64
1, 53517, Note_on_c, 3, 72, 104
1, 53520, Note_on_c, 11, 51, 84
1, 53520, Note_on_c, 9, 40, 97
1, 53522, Note_off_c, 9, 40, 64
1, 53522, Note_off_c, 0, 60, 64
1, 53527, Note_off_c, 0, 57, 64
1, 53562, Note_on_c, 2, 63, 98
1, 53572, Note_off_c, 2, 62, 64
1, 53647, Note_off_c, 3, 72, 64
1, 53647, Pitch_bend_c, 7, 14861
1, 53660, Pitch_bend_c, 7, 10649
1, 53672, Pitch_bend_c, 7, 8192
1, 53677, Note_on_c, 3, 72, 89
1, 53680, Note_on_c, 2, 62, 92
1, 53715, Note_off_c, 2, 63, 64
1, 53727, Note_off_c, 11, 51, 64
1, 53757, Note_on_c, 0, 52, 47
1, 53760, Note_on_c, 0, 55, 88
1, 53760, Note_on_c, 11, 36, 98
1, 53760, Note_on_c, 9, 51, 93
1, 53760, Note_on_c, 9, 35, 111
1, 53762, Note_off_c, 9, 35, 64
1, 53762, Note_off_c, 9, 51, 64
1, 53762, Note_on_c, 0, 60, 99
1, 53762, Note_on_c, 0, 64, 88
1, 53775, Note_off_c, 2, 62, 64
1, 53777, Note_on_c, 2, 60, 113
1, 53785, Note_off_c, 3, 72, 64
1, 53897, Note_off_c, 0, 64, 64
1, 53915, Note_off_c, 0, 60, 64
1, 53917, Note_off_c, 2, 60, 64
1, 53917, Note_on_c, 0, 64, 76
1, 53917, Note_on_c, 6, 79, 67
1, 53917, Note_on_c, 7, 64, 105
1, 53922, Note_on_c, 0, 60, 79
1, 53922, Note_on_c, 6, 72, 90
1, 53942, Note_on_c, 2, 60, 102
1, 53952, Note_off_c, 6, 79, 64
1, 53967, Note_off_c, 7, 64, 64
1, 53967, Note_off_c, 11, 36, 64
1, 53987, Note_off_c, 6, 72, 64
1, 53995, Note_off_c, 0, 60, 64
1, 54000, Note_on_c, 11, 40, 98
1, 54000, Note_on_c, 9, 51, 121
1, 54000, Note_on_c, 9, 40, 96
1, 54002, Note_off_c, 9, 40, 64
1, 54002, Note_off_c, 9, 51, 64
1, 54002, Note_off_c, 0, 64, 64
1, 54010, Note_off_c, 2, 60, 64
1, 54025, Note_off_c, 0, 52, 64
1, 54025, Note_on_c, 2, 60, 97
1, 54037, Note_off_c, 0, 55, 64
1, 54157, Note_off_c, 2, 60, 64
1, 54157, Note_on_c, 0, 64, 98
1, 54160, Note_on_c, 9, 51, 83
1, 54162, Note_off_c, 9, 51, 64
1, 54162, Note_on_c, 0, 60, 101
1, 54162, Note_on_c, 0, 55, 83
1, 54177, Note_on_c, 2, 60, 127
1, 54207, Note_off_c, 11, 40, 64
1, 54240, Note_on_c, 11, 43, 98
1, 54240, Note_on_c, 9, 51, 83
1, 54240, Note_on_c, 9, 35, 102
1, 54242, Note_off_c, 9, 35, 64
1, 54242, Note_off_c, 9, 51, 64
1, 54242, Note_on_c, 6, 72, 88
1, 54242, Note_on_c, 6, 79, 75
1, 54242, Note_on_c, 7, 64, 105
1, 54290, Note_off_c, 7, 64, 64
1, 54300, Note_off_c, 6, 79, 64
1, 54302, Note_off_c, 6, 72, 64
1, 54312, Note_off_c, 2, 60, 64
1, 54385, Note_on_c, 2, 60, 117
1, 54397, Note_off_c, 0, 60, 64
1, 54397, Note_on_c, 3, 67, 80
1, 54400, Note_off_c, 0, 64, 64
1, 54402, Note_on_c, 0, 64, 104
1, 54402, Note_on_c, 0, 60, 97
1, 54445, Note_off_c, 3, 67, 64
1, 54447, Note_off_c, 2, 60, 64
1, 54447, Note_off_c, 11, 43, 64
1, 54477, Note_on_c, 3, 69, 106
1, 54480, Note_on_c, 11, 45, 86
1, 54480, Note_on_c, 2, 60, 102
1, 54480, Note_on_c, 9, 51, 121
1, 54480, Note_on_c, 9, 40, 96
1, 54482, Note_off_c, 9, 40, 64
1, 54482, Note_off_c, 9, 51, 64
1, 54497, Note_off_c, 0, 64, 64
1, 54502, Note_off_c, 0, 55, 64
1, 54520, Note_off_c, 0, 60, 64
1, 54572, Note_off_c, 2, 60, 64
1, 54617, Note_off_c, 3, 69, 64
1, 54637, Note_on_c, 3, 72, 95
1, 54640, Note_on_c, 9, 51, 79
1, 54642, Note_off_c, 9, 51, 64
1, 54687, Note_off_c, 11, 45, 64
1, 54717, Note_on_c, 6, 79, 76
1, 54720, Note_on_c, 11, 48, 94
1, 54720, Note_on_c, 2, 60, 117
1, 54720, Note_on_c, 9, 51, 85
1, 54720, Note_on_c, 9, 35, 94
1, 54722, Note_off_c, 9, 35, 64
1, 54722, Note_off_c, 9, 51, 64
1, 54722, Note_on_c, 0, 55, 80
1, 54722, Note_on_c, 0, 52, 32
1, 54722, Note_on_c, 6, 72, 94
1, 54722, Note_on_c, 7, 64, 97
1, 54725, Note_on_c, 0, 64, 91
1, 54725, Note_on_c, 0, 60, 100
1, 54747, Note_off_c, 3, 72, 64
1, 54757, Note_off_c, 7, 64, 64
1, 54765, Note_off_c, 6, 79, 64
1, 54780, Note_off_c, 6, 72, 64
1, 54842, Note_off_c, 2, 60, 64
1, 54857, Note_off_c, 0, 60, 64
1, 54857, Note_off_c, 0, 64, 64
1, 54880, Note_on_c, 0, 64, 94
1, 54882, Note_on_c, 0, 60, 88
1, 54885, Note_on_c, 2, 60, 109
1, 54927, Note_off_c, 11, 48, 64
1, 54942, Note_off_c, 0, 52, 64
1, 54950, Note_off_c, 2, 60, 64
1, 54957, Note_off_c, 0, 60, 64
1, 54960, Note_off_c, 0, 55, 64
1, 54960, Note_on_c, 11, 45, 100
1, 54960, Note_on_c, 9, 51, 110
1, 54960, Note_on_c, 9, 40, 98
1, 54962, Note_off_c, 9, 40, 64
1, 54962, Note_off_c, 9, 51, 64
1, 54975, Note_on_c, 2, 60, 115
1, 54977, Note_off_c, 0, 64, 64
1, 55072, Note_off_c, 2, 60, 64
1, 55117, Note_on_c, 0, 64, 101
1, 55117, Note_on_c, 6, 79, 75
1, 55117, Note_on_c, 6, 72, 96
1, 55117, Note_on_c, 7, 64, 106
1, 55120, Note_on_c, 9, 51, 98
1, 55122, Note_off_c, 9, 51, 64
1, 55122, Note_on_c, 0, 60, 100
1, 55122, Note_on_c, 0, 55, 83
1, 55125, Note_on_c, 0, 52, 41
1, 55127, Note_on_c, 2, 60, 127
1, 55162, Note_off_c, 7, 64, 64
1, 55167, Note_off_c, 11, 45, 64
1, 55180, Note_off_c, 6, 79, 64
1, 55182, Note_off_c, 6, 72, 64
1, 55200, Note_on_c, 11, 43, 96
1, 55200, Note_on_c, 9, 51, 83
1, 55200, Note_on_c, 9, 35, 79
1, 55202, Note_off_c, 9, 35, 64
1, 55202, Note_off_c, 9, 51, 64
1, 55227, Note_off_c, 2, 60, 64
1, 55360, Note_off_c, 0, 64, 64
1, 55360, Note_on_c, 9, 40, 97
1, 55362, Note_off_c, 9, 40, 64
1, 55362, Note_off_c, 0, 60, 64
1, 55362, Note_on_c, 0, 64, 106
1, 55365, Note_on_c, 0, 60, 103
1, 55407, Note_off_c, 11, 43, 64
1, 55422, Note_off_c, 0, 55, 64
1, 55432, Note_off_c, 0, 52, 64
1, 55440, Note_on_c, 11, 40, 81
1, 55440, Note_on_c, 9, 40, 99
1, 55442, Note_off_c, 9, 40, 64
1, 55445, Note_off_c, 0, 60, 64
1, 55452, Note_off_c, 0, 64, 64
1, 55597, Note_on_c, 3, 72, 104
1, 55647, Note_off_c, 11, 40, 64
1, 55665, Note_off_c, 3, 72, 64
1, 55677, Note_on_c, 0, 55, 16
1, 55677, Note_on_c, 3, 74, 108
1, 55680, Note_on_c, 11, 43, 106
1, 55680, Note_on_c, 2, 55, 117
1, 55680, Note_on_c, 9, 51, 87
1, 55680, Note_on_c, 9, 35, 108
1, 55682, Note_off_c, 9, 35, 64
1, 55682, Note_off_c, 9, 51, 64
1, 55682, Note_on_c, 0, 59, 88
1, 55682, Note_on_c, 0, 62, 98
1, 55682, Note_on_c, 0, 67, 97
1, 55827, Note_off_c, 0, 67, 64
1, 55837, Note_off_c, 2, 55, 64
1, 55837, Note_on_c, 6, 79, 74
1, 55837, Note_on_c, 6, 71, 91
1, 55837, Note_on_c, 7, 62, 105
1, 55840, Note_off_c, 0, 62, 64
1, 55842, Note_off_c, 0, 59, 64
1, 55842, Note_on_c, 0, 67, 100
1, 55842, Note_on_c, 0, 62, 99
1, 55845, Note_on_c, 0, 59, 85
1, 55850, Note_off_c, 3, 74, 64
1, 55887, Note_off_c, 6, 79, 64
1, 55887, Note_off_c, 11, 43, 64
1, 55890, Note_off_c, 7, 62, 64
1, 55900, Note_off_c, 0, 59, 64
1, 55902, Note_on_c, 2, 58, 109
1, 55907, Note_off_c, 6, 71, 64
1, 55910, Pitch_bend_c, 2, 7606
1, 55917, Note_on_c, 3, 74, 110
1, 55920, Note_on_c, 11, 47, 94
1, 55920, Note_on_c, 9, 51, 121
1, 55920, Note_on_c, 9, 40, 98
1, 55922, Note_off_c, 9, 40, 64
1, 55922, Note_off_c, 9, 51, 64
1, 55922, Note_off_c, 0, 67, 64
1, 55922, Pitch_bend_c, 2, 7255
1, 55927, Note_off_c, 0, 62, 64
1, 55960, Note_off_c, 0, 55, 64
1, 55960, Pitch_bend_c, 2, 7606
1, 55972, Pitch_bend_c, 2, 8192
1, 56050, Note_off_c, 3, 74, 64
1, 56077, Note_on_c, 0, 67, 96
1, 56077, Note_on_c, 0, 62, 96
1, 56080, Note_on_c, 9, 51, 98
1, 56082, Note_off_c, 9, 51, 64
1, 56082, Note_on_c, 0, 59, 82
1, 56082, Note_on_c, 3, 74, 80
1, 56085, Note_on_c, 0, 55, 23
1, 56112, Note_off_c, 2, 58, 64
1, 56127, Note_off_c, 11, 47, 64
1, 56132, Note_off_c, 3, 74, 64
1, 56157, Pitch_bend_c, 2, 3160
1, 56160, Note_on_c, 11, 50, 98
1, 56160, Note_on_c, 3, 74, 91
1, 56160, Note_on_c, 6, 79, 75
1, 56160, Note_on_c, 7, 62, 105
1, 56160, Note_on_c, 9, 51, 81
1, 56160, Note_on_c, 9, 35, 100
1, 56162, Note_off_c, 9, 35, 64
1, 56162, Note_off_c, 9, 51, 64
1, 56162, Note_on_c, 6, 71, 84
1, 56167, Note_on_c, 2, 58, 112
1, 56170, Pitch_bend_c, 2, 2458
1, 56182, Pitch_bend_c, 2, 2341
1, 56195, Pitch_bend_c, 2, 2575
1, 56207, Pitch_bend_c, 2, 3394
1, 56210, Note_off_c, 6, 71, 64
1, 56220, Note_off_c, 6, 79, 64
1, 56222, Pitch_bend_c, 2, 4330
1, 56232, Note_off_c, 7, 62, 64
1, 56235, Pitch_bend_c, 2, 5617
1, 56247, Pitch_bend_c, 2, 7021
1, 56260, Pitch_bend_c, 2, 8192
1, 56280, Note_off_c, 3, 74, 64
1, 56315, Note_off_c, 0, 67, 64
1, 56317, Note_off_c, 0, 59, 64
1, 56317, Note_off_c, 0, 62, 64
1, 56317, Note_on_c, 0, 67, 101
1, 56322, Note_on_c, 0, 62, 97
1, 56322, Note_on_c, 0, 59, 77
1, 56322, Note_on_c, 3, 74, 92
1, 56352, Note_off_c, 2, 58, 64
1, 56362, Note_off_c, 0, 67, 64
1, 56367, Note_off_c, 11, 50, 64
1, 56370, Note_off_c, 3, 74, 64
1, 56377, Note_off_c, 0, 59, 64
1, 56390, Note_off_c, 0, 62, 64
1, 56395, Pitch_bend_c, 2, 5383
1, 56397, Note_on_c, 0, 59, 95
1, 56397, Note_on_c, 3, 74, 95
1, 56400, Note_on_c, 11, 52, 108
1, 56400, Note_on_c, 2, 58, 104
1, 56400, Note_on_c, 9, 51, 94
1, 56400, Note_on_c, 9, 40, 104
1, 56402, Note_off_c, 9, 40, 64
1, 56402, Note_off_c, 9, 51, 64
1, 56405, Note_off_c, 0, 55, 64
1, 56407, Pitch_bend_c, 2, 4096
1, 56420, Pitch_bend_c, 2, 3160
1, 56432, Pitch_bend_c, 2, 2926
1, 56445, Pitch_bend_c, 2, 3160
1, 56455, Note_off_c, 0, 59, 64
1, 56457, Pitch_bend_c, 2, 3862
1, 56470, Pitch_bend_c, 2, 5032
1, 56482, Pitch_bend_c, 2, 6202
1, 56495, Pitch_bend_c, 2, 7255
1, 56507, Pitch_bend_c, 2, 8192
1, 56517, Note_off_c, 3, 74, 64
1, 56560, Note_on_c, 9, 51, 93
1, 56562, Note_off_c, 9, 51, 64
1, 56562, Note_on_c, 3, 74, 88
1, 56607, Note_off_c, 11, 52, 64
1, 56630, Note_off_c, 2, 58, 64
1, 56632, Note_off_c, 3, 74, 64
1, 56637, Note_on_c, 6, 79, 71
1, 56640, Note_on_c, 11, 41, 111
1, 56640, Note_on_c, 7, 63, 109
1, 56640, Note_on_c, 9, 51, 83
1, 56640, Note_on_c, 9, 35, 98
1, 56642, Note_off_c, 9, 35, 64
1, 56642, Note_off_c, 9, 51, 64
1, 56642, Note_on_c, 3, 75, 107
1, 56642, Note_on_c, 6, 72, 87
1, 56645, Note_on_c, 0, 57, 61
1, 56645, Note_on_c, 0, 60, 61
1, 56645, Note_on_c, 0, 65, 35
1, 56657, Note_on_c, 2, 60, 109
1, 56682, Note_off_c, 6, 79, 64
1, 56685, Note_off_c, 7, 63, 64
1, 56700, Note_off_c, 6, 72, 64
1, 56777, Note_off_c, 0, 65, 64
1, 56787, Note_off_c, 0, 60, 64
1, 56787, Note_off_c, 0, 57, 64
1, 56800, Note_off_c, 3, 75, 64
1, 56805, Note_on_c, 0, 65, 90
1, 56805, Note_on_c, 0, 60, 76
1, 56822, Note_off_c, 2, 60, 64
1, 56847, Note_off_c, 11, 41, 64
1, 56877, Note_on_c, 3, 74, 114
1, 56880, Note_off_c, 0, 65, 64
1, 56880, Note_on_c, 11, 45, 89
1, 56880, Pitch_bend_c, 2, 3628
1, 56880, Note_on_c, 9, 51, 113
1, 56880, Note_on_c, 9, 40, 102
1, 56882, Note_off_c, 9, 40, 64
1, 56882, Note_off_c, 9, 51, 64
1, 56882, Note_on_c, 2, 63, 104
1, 56890, Pitch_bend_c, 2, 2575
1, 56892, Note_off_c, 0, 60, 64
1, 56905, Pitch_bend_c, 2, 1873
1, 56917, Pitch_bend_c, 2, 1639
1, 56930, Pitch_bend_c, 2, 1873
1, 56942, Pitch_bend_c, 2, 2575
1, 56955, Pitch_bend_c, 2, 3628
1, 56967, Pitch_bend_c, 2, 5032
1, 56980, Pitch_bend_c, 2, 6319
1, 56992, Pitch_bend_c, 2, 7372
1, 57005, Pitch_bend_c, 2, 8074
1, 57017, Note_off_c, 3, 74, 64
1, 57017, Pitch_bend_c, 2, 8192
1, 57037, Note_on_c, 0, 65, 100
1, 57037, Note_on_c, 3, 72, 89
1, 57037, Note_on_c, 6, 79, 73
1, 57037, Note_on_c, 6, 72, 94
1, 57037, Note_on_c, 7, 63, 115
1, 57040, Note_on_c, 9, 51, 78
1, 57042, Note_off_c, 9, 51, 64
1, 57042, Note_on_c, 0, 60, 97
1, 57045, Note_on_c, 0, 57, 78
1, 57045, Note_on_c, 0, 53, 16
1, 57057, Note_off_c, 2, 63, 64
1, 57087, Note_off_c, 11, 45, 64
1, 57090, Note_off_c, 7, 63, 64
1, 57090, Note_off_c, 6, 79, 64
1, 57090, Note_off_c, 3, 72, 64
1, 57100, Note_off_c, 6, 72, 64
1, 57117, Pitch_bend_c, 2, 2107
1, 57117, Note_on_c, 2, 63, 106
1, 57117, Note_on_c, 3, 74, 104
1, 57120, Note_on_c, 11, 48, 100
1, 57120, Note_on_c, 9, 51, 87
1, 57120, Note_on_c, 9, 35, 98
1, 57122, Note_off_c, 9, 35, 64
1, 57122, Note_off_c, 9, 51, 64
1, 57140, Pitch_bend_c, 2, 2575
1, 57152, Pitch_bend_c, 2, 3394
1, 57165, Pitch_bend_c, 2, 4564
1, 57180, Pitch_bend_c, 2, 5968
1, 57192, Pitch_bend_c, 2, 7255
1, 57205, Pitch_bend_c, 2, 8192
1, 57275, Note_off_c, 0, 60, 64
1, 57275, Note_off_c, 0, 65, 64
1, 57277, Note_on_c, 0, 65, 100
1, 57280, Note_on_c, 9, 40, 85
1, 57282, Note_off_c, 9, 40, 64
1, 57282, Note_on_c, 0, 60, 88
1, 57292, Note_off_c, 2, 63, 64
1, 57320, Note_off_c, 3, 74, 64
1, 57327, Note_off_c, 11, 48, 64
1, 57352, Note_off_c, 0, 60, 64
1, 57352, Pitch_bend_c, 2, 235
1, 57357, Note_on_c, 3, 72, 99
1, 57360, Note_off_c, 0, 57, 64
1, 57360, Note_on_c, 11, 50, 96
1, 57360, Note_on_c, 2, 63, 109
1, 57360, Note_on_c, 9, 40, 93
1, 57362, Note_off_c, 9, 40, 64
1, 57377, Note_off_c, 0, 65, 64
1, 57377, Pitch_bend_c, 2, 703
1, 57390, Pitch_bend_c, 2, 1639
1, 57395, Note_off_c, 0, 53, 64
1, 57402, Pitch_bend_c, 2, 3160
1, 57415, Pitch_bend_c, 2, 5617
1, 57427, Pitch_bend_c, 2, 8192
1, 57487, Note_off_c, 3, 72, 64
1, 57517, Note_off_c, 2, 63, 64
1, 57517, Note_on_c, 0, 64, 44
1, 57520, Note_on_c, 3, 72, 99
1, 57565, Note_off_c, 0, 64, 64
1, 57567, Note_off_c, 11, 50, 64
1, 57597, Note_on_c, 0, 52, 54
1, 57600, Note_on_c, 11, 36, 96
1, 57600, Note_on_c, 9, 51, 95
1, 57600, Note_on_c, 9, 35, 119
1, 57602, Note_off_c, 9, 35, 64
1, 57602, Note_off_c, 9, 51, 64
1, 57602, Note_on_c, 0, 55, 90
1, 57602, Note_on_c, 0, 60, 98
1, 57602, Note_on_c, 2, 60, 113
1, 57605, Note_on_c, 0, 64, 66
1, 57615, Note_off_c, 3, 72, 64
1, 57715, Note_off_c, 2, 60, 64
1, 57747, Note_off_c, 0, 64, 64
1, 57750, Note_on_c, 2, 60, 103
1, 57757, Note_on_c, 6, 79, 76
1, 57757, Note_on_c, 6, 72, 89
1, 57757, Note_on_c, 7, 64, 109
1, 57760, Note_off_c, 0, 60, 64
1, 57762, Note_off_c, 0, 55, 64
1, 57762, Note_on_c, 0, 64, 91
1, 57762, Note_on_c, 0, 60, 84
1, 57765, Note_on_c, 0, 55, 47
1, 57807, Note_off_c, 11, 36, 64
1, 57810, Note_off_c, 2, 60, 64
1, 57815, Note_off_c, 6, 72, 64
1, 57817, Note_off_c, 0, 55, 64
1, 57820, Note_off_c, 7, 64, 64
1, 57822, Note_off_c, 0, 60, 64
1, 57822, Note_off_c, 6, 79, 64
1, 57840, Note_on_c, 11, 40, 85
1, 57840, Note_on_c, 9, 51, 110
1, 57840, Note_on_c, 9, 40, 106
1, 57842, Note_off_c, 9, 40, 64
1, 57842, Note_off_c, 9, 51, 64
1, 57850, Note_on_c, 2, 60, 103
1, 57860, Note_off_c, 0, 52, 64
1, 57867, Note_off_c, 0, 64, 64
1, 57980, Note_off_c, 2, 60, 64
1, 57997, Note_on_c, 0, 64, 99
1, 58000, Note_on_c, 9, 51, 64
1, 58002, Note_off_c, 9, 51, 64
1, 58002, Note_on_c, 0, 60, 94
1, 58002, Note_on_c, 0, 55, 73
1, 58002, Note_on_c, 2, 60, 119
1, 58047, Note_off_c, 11, 40, 64
1, 58080, Note_on_c, 11, 43, 104
1, 58080, Note_on_c, 9, 51, 78
1, 58080, Note_on_c, 9, 35, 80
1, 58082, Note_off_c, 9, 35, 64
1, 58082, Note_off_c, 9, 51, 64
1, 58082, Note_on_c, 6, 72, 90
1, 58082, Note_on_c, 6, 79, 75
1, 58082, Note_on_c, 7, 64, 110
1, 58092, Note_off_c, 2, 60, 64
1, 58140, Note_off_c, 6, 79, 64
1, 58150, Note_off_c, 6, 72, 64
1, 58155, Note_off_c, 7, 64, 64
1, 58205, Note_on_c, 2, 60, 105
1, 58240, Note_off_c, 0, 60, 64
1, 58240, Note_off_c, 0, 64, 64
1, 58242, Note_off_c, 0, 55, 64
1, 58242, Note_on_c, 0, 64, 99
1, 58242, Note_on_c, 0, 60, 93
1, 58245, Note_on_c, 0, 55, 74
1, 58277, Note_off_c, 2, 60, 64
1, 58287, Note_off_c, 11, 43, 64
1, 58290, Note_off_c, 0, 55, 64
1, 58297, Note_off_c, 0, 60, 64
1, 58300, Note_off_c, 0, 64, 64
1, 58312, Note_on_c, 2, 60, 113
1, 58320, Note_on_c, 11, 45, 92
1, 58320, Note_on_c, 9, 51, 121
1, 58320, Note_on_c, 9, 40, 100
1, 58322, Note_off_c, 9, 40, 64
1, 58322, Note_off_c, 9, 51, 64
1, 58387, Note_off_c, 2, 60, 64
1, 58475, Note_on_c, 2, 60, 105
1, 58477, Note_on_c, 0, 64, 65
1, 58480, Note_on_c, 9, 51, 89
1, 58482, Note_off_c, 9, 51, 64
1, 58482, Note_on_c, 0, 60, 91
1, 58485, Note_on_c, 0, 55, 78
1, 58527, Note_off_c, 11, 45, 64
1, 58532, Note_off_c, 2, 60, 64
1, 58555, Note_off_c, 0, 60, 64
1, 58557, Note_on_c, 6, 79, 75
1, 58560, Note_on_c, 11, 48, 88
1, 58560, Note_on_c, 6, 72, 90
1, 58560, Note_on_c, 9, 51, 78
1, 58560, Note_on_c, 9, 35, 104
1, 58562, Note_off_c, 9, 35, 64
1, 58562, Note_off_c, 9, 51, 64
1, 58562, Note_off_c, 0, 64, 64
1, 58562, Note_on_c, 0, 60, 99
1, 58562, Note_on_c, 7, 64, 106
1, 58565, Note_on_c, 0, 64, 67
1, 58567, Note_on_c, 2, 60, 107
1, 58615, Note_off_c, 6, 79, 64
1, 58617, Note_off_c, 6, 72, 64
1, 58625, Note_off_c, 7, 64, 64
1, 58640, Note_off_c, 2, 60, 64
1, 58707, Note_off_c, 0, 64, 64
1, 58717, Note_on_c, 2, 60, 111
1, 58722, Note_off_c, 0, 60, 64
1, 58722, Note_on_c, 0, 64, 80
1, 58725, Note_on_c, 0, 60, 79
1, 58767, Note_off_c, 11, 48, 64
1, 58780, Note_off_c, 0, 55, 64
1, 58785, Note_off_c, 0, 60, 64
1, 58795, Note_off_c, 2, 60, 64
1, 58797, Note_off_c, 0, 64, 64
1, 58800, Note_on_c, 11, 45, 94
1, 58800, Note_on_c, 9, 51, 121
1, 58800, Note_on_c, 9, 40, 98
1, 58802, Note_off_c, 9, 40, 64
1, 58802, Note_off_c, 9, 51, 64
1, 58820, Note_on_c, 2, 60, 119
1, 58895, Note_off_c, 2, 60, 64
1, 58957, Note_on_c, 0, 64, 87
1, 58957, Note_on_c, 6, 79, 78
1, 58957, Note_on_c, 6, 72, 92
1, 58957, Note_on_c, 7, 64, 109
1, 58960, Note_on_c, 9, 51, 87
1, 58962, Note_off_c, 9, 51, 64
1, 58962, Note_on_c, 0, 55, 54
1, 58965, Note_on_c, 0, 60, 79
1, 58975, Note_on_c, 2, 60, 127
1, 59005, Note_off_c, 6, 79, 64
1, 59007, Note_off_c, 11, 45, 64
1, 59012, Note_off_c, 6, 72, 64
1, 59022, Note_off_c, 7, 64, 64
1, 59040, Note_on_c, 11, 43, 106
1, 59040, Note_on_c, 9, 51, 85
1, 59040, Note_on_c, 9, 35, 96
1, 59042, Note_off_c, 9, 35, 64
1, 59042, Note_off_c, 9, 51, 64
1, 59165, Note_off_c, 2, 60, 64
1, 59175, Note_off_c, 0, 60, 64
1, 59192, Note_off_c, 0, 64, 64
1, 59197, Note_on_c, 0, 64, 90
1, 59200, Note_off_c, 0, 55, 64
1, 59200, Note_on_c, 0, 60, 96
1, 59200, Note_on_c, 9, 40, 102
1, 59202, Note_off_c, 9, 40, 64
1, 59202, Note_on_c, 0, 55, 75
1, 59207, Note_on_c, 2, 63, 115
1, 59247, Note_off_c, 11, 43, 64
1, 59260, Note_off_c, 0, 60, 64
1, 59275, Note_off_c, 0, 64, 64
1, 59280, Note_on_c, 11, 40, 102
1, 59280, Note_on_c, 9, 40, 111
1, 59282, Note_off_c, 9, 40, 64
1, 59292, Note_off_c, 0, 55, 64
1, 59300, Note_on_c, 2, 64, 105
1, 59305, Note_off_c, 2, 63, 64
1, 59455, Note_off_c, 2, 64, 64
1, 59487, Note_off_c, 11, 40, 64
1, 59517, Note_on_c, 0, 52, 60
1, 59520, Note_on_c, 0, 55, 101
1, 59520, Note_on_c, 11, 36, 106
1, 59520, Note_on_c, 9, 42, 104
1, 59520, Note_on_c, 9, 40, 106
1, 59520, Note_on_c, 9, 35, 88
1, 59522, Note_off_c, 9, 35, 64
1, 59522, Note_off_c, 9, 40, 64
1, 59522, Note_off_c, 9, 42, 64
1, 59522, Note_on_c, 0, 60, 100
1, 59522, Note_on_c, 0, 64, 103
1, 59530, Note_on_c, 2, 72, 127
1, 59625, Note_off_c, 2, 72, 64
1, 59642, Note_off_c, 0, 64, 64
1, 59652, Note_on_c, 2, 72, 97
1, 59655, Note_off_c, 0, 55, 64
1, 59660, Note_off_c, 0, 60, 64
1, 59677, Note_off_c, 0, 52, 64
1, 59727, Note_off_c, 11, 36, 64
1, 59737, Note_off_c, 2, 72, 64
1, 59767, Note_on_c, 2, 72, 119
1, 59862, Note_off_c, 2, 72, 64
1, 59890, Note_on_c, 2, 72, 99
1, 59975, Note_off_c, 2, 72, 64
1, 60007, Note_on_c, 2, 72, 127
1, 60102, Note_off_c, 2, 72, 64
1, 60115, Note_on_c, 2, 72, 100
1, 60210, Note_off_c, 2, 72, 64
1, 60240, Note_on_c, 2, 72, 109
1, 60342, Note_off_c, 2, 72, 64
1, 60362, Note_on_c, 2, 72, 95
1, 60452, Note_off_c, 2, 72, 64
1, 60477, Note_on_c, 2, 72, 127
1, 60580, Note_off_c, 2, 72, 64
1, 60597, Note_on_c, 2, 72, 90
1, 60692, Note_off_c, 2, 72, 64
1, 60715, Note_on_c, 2, 72, 115
1, 60812, Note_off_c, 2, 72, 64
1, 60832, Note_on_c, 2, 72, 100
1, 60930, Note_off_c, 2, 72, 64
1, 60955, Note_on_c, 2, 72, 127
1, 61060, Note_off_c, 2, 72, 64
1, 61070, Note_on_c, 2, 72, 111
1, 61170, Note_off_c, 2, 72, 64
1, 61190, Note_on_c, 2, 72, 127
1, 61290, Note_off_c, 2, 72, 64
1, 61310, Note_on_c, 2, 72, 122
1, 61407, Note_off_c, 2, 72, 64
1, 61420, Note_on_c, 2, 71, 123
1, 61552, Note_on_c, 2, 72, 97
1, 61560, Note_off_c, 2, 71, 64
1, 61642, Note_off_c, 2, 72, 64
1, 61675, Note_on_c, 2, 66, 122
1, 61792, Note_on_c, 2, 67, 91
1, 61802, Note_off_c, 2, 66, 64
1, 61890, Note_off_c, 2, 67, 64
1, 61922, Note_on_c, 2, 63, 124
1, 62047, Note_on_c, 2, 64, 93
1, 62052, Note_off_c, 2, 63, 64
1, 62130, Note_off_c, 2, 64, 64
1, 62172, Note_on_c, 2, 59, 126
1, 62290, Note_on_c, 2, 60, 99
1, 62305, Note_off_c, 2, 59, 64
1, 62370, Note_off_c, 2, 60, 64
1, 62385, Note_on_c, 7, 63, 127
1, 62405, Note_on_c, 2, 55, 100
1, 62480, Note_off_c, 7, 63, 64
1, 62480, Note_on_c, 7, 64, 103
1, 62562, Note_on_c, 6, 80, 109
1, 62575, Note_on_c, 7, 65, 116
1, 62582, Note_off_c, 7, 64, 64
1, 62640, Note_off_c, 6, 80, 64
1, 62657, Pitch_bend_c, 2, 8426
1, 62670, Pitch_bend_c, 2, 8660
1, 62677, Note_on_c, 7, 66, 117
1, 62682, Pitch_bend_c, 2, 9011
1, 62695, Note_off_c, 7, 65, 64
1, 62695, Pitch_bend_c, 2, 9245
1, 62707, Pitch_bend_c, 2, 9479
1, 62720, Pitch_bend_c, 2, 9596
1, 62777, Note_on_c, 7, 67, 126
1, 62782, Note_off_c, 7, 66, 64
1, 62795, Pitch_bend_c, 2, 9830
1, 62802, Note_on_c, 6, 80, 113
1, 62807, Pitch_bend_c, 2, 10181
1, 62820, Pitch_bend_c, 2, 10649
1, 62832, Pitch_bend_c, 2, 11117
1, 62845, Pitch_bend_c, 2, 11702
1, 62857, Pitch_bend_c, 2, 12053
1, 62912, Note_off_c, 6, 80, 64
1, 62930, Pitch_bend_c, 2, 11819
1, 62942, Pitch_bend_c, 2, 11585
1, 62970, Pitch_bend_c, 2, 11351
1, 62982, Pitch_bend_c, 2, 11117
1, 63007, Pitch_bend_c, 2, 10883
1, 63040, Note_on_c, 9, 40, 92
1, 63042, Note_off_c, 9, 40, 64
1, 63042, Pitch_bend_c, 2, 10766
1, 63042, Note_on_c, 3, 67, 100
1, 63042, Note_on_c, 6, 80, 106
1, 63067, Pitch_bend_c, 2, 10415
1, 63082, Pitch_bend_c, 2, 10181
1, 63100, Note_off_c, 3, 67, 64
1, 63107, Pitch_bend_c, 2, 9830
1, 63117, Note_on_c, 3, 69, 104
1, 63120, Note_on_c, 7, 66, 103
1, 63120, Note_on_c, 9, 40, 94
1, 63122, Note_off_c, 9, 40, 64
1, 63132, Pitch_bend_c, 2, 9596
1, 63135, Note_off_c, 6, 80, 64
1, 63145, Pitch_bend_c, 2, 9362
1, 63147, Note_off_c, 7, 67, 64
1, 63157, Pitch_bend_c, 2, 8894
1, 63170, Pitch_bend_c, 2, 8309
1, 63182, Pitch_bend_c, 2, 8192
1, 63200, Note_on_c, 7, 65, 106
1, 63222, Note_off_c, 7, 66, 64
1, 63247, Note_off_c, 3, 69, 64
1, 63247, Note_off_c, 2, 55, 64
1, 63277, Note_on_c, 3, 72, 119
1, 63282, Note_on_c, 6, 80, 109
1, 63287, Note_on_c, 7, 64, 108
1, 63292, Note_off_c, 7, 65, 64
1, 63350, Note_off_c, 3, 72, 64
1, 63360, Note_on_c, 0, 65, 103
1, 63360, Note_on_c, 11, 41, 106
1, 63360, Note_on_c, 2, 53, 102
1, 63360, Note_on_c, 9, 51, 94
1, 63360, Note_on_c, 9, 35, 96
1, 63362, Note_off_c, 9, 35, 64
1, 63362, Note_off_c, 9, 51, 64
1, 63362, Note_on_c, 7, 63, 127
1, 63412, Note_off_c, 7, 64, 64
1, 63425, Note_off_c, 2, 53, 64
1, 63492, Note_on_c, 2, 53, 109
1, 63515, Note_off_c, 0, 65, 64
1, 63517, Note_on_c, 3, 67, 83
1, 63522, Note_on_c, 0, 65, 101
1, 63522, Note_on_c, 0, 60, 94
1, 63567, Note_off_c, 11, 41, 64
1, 63577, Note_off_c, 3, 67, 64
1, 63585, Note_on_c, 2, 57, 117
1, 63597, Note_on_c, 3, 69, 100
1, 63600, Note_on_c, 11, 45, 104
1, 63600, Note_on_c, 9, 51, 110
1, 63600, Note_on_c, 9, 40, 86
1, 63602, Note_off_c, 9, 40, 64
1, 63602, Note_off_c, 9, 51, 64
1, 63615, Note_off_c, 2, 53, 64
1, 63617, Note_off_c, 0, 65, 64
1, 63625, Note_off_c, 0, 60, 64
1, 63670, Note_off_c, 6, 80, 64
1, 63697, Note_off_c, 2, 57, 64
1, 63740, Note_off_c, 3, 69, 64
1, 63757, Note_on_c, 0, 65, 103
1, 63757, Note_on_c, 3, 72, 116
1, 63760, Note_on_c, 9, 51, 81
1, 63762, Note_off_c, 9, 51, 64
1, 63762, Note_on_c, 0, 60, 99
1, 63762, Note_on_c, 0, 57, 79
1, 63765, Note_on_c, 0, 53, 26
1, 63767, Note_on_c, 2, 57, 88
1, 63807, Note_off_c, 11, 45, 64
1, 63835, Note_off_c, 3, 72, 64
1, 63837, Note_on_c, 6, 80, 113
1, 63840, Note_on_c, 11, 48, 106
1, 63840, Note_on_c, 9, 51, 101
1, 63840, Note_on_c, 9, 35, 89
1, 63842, Note_off_c, 9, 35, 64
1, 63842, Note_off_c, 9, 51, 64
1, 63862, Note_on_c, 2, 60, 100
1, 63872, Note_off_c, 2, 57, 64
1, 63945, Note_off_c, 2, 60, 64
1, 63997, Note_on_c, 3, 67, 87
1, 64000, Note_off_c, 0, 60, 64
1, 64000, Note_off_c, 0, 65, 64
1, 64002, Note_on_c, 0, 65, 101
1, 64002, Note_on_c, 0, 60, 100
1, 64007, Note_on_c, 2, 60, 97
1, 64045, Note_off_c, 3, 67, 64
1, 64047, Note_off_c, 11, 48, 64
1, 64055, Note_off_c, 0, 57, 64
1, 64077, Note_on_c, 3, 69, 95
1, 64080, Note_on_c, 11, 50, 114
1, 64080, Note_on_c, 9, 51, 110
1, 64080, Note_on_c, 9, 40, 89
1, 64082, Note_off_c, 9, 40, 64
1, 64082, Note_off_c, 9, 51, 64
1, 64082, Note_on_c, 2, 62, 100
1, 64095, Note_off_c, 0, 53, 64
1, 64097, Note_off_c, 2, 60, 64
1, 64097, Note_off_c, 0, 65, 64
1, 64107, Note_off_c, 0, 60, 64
1, 64170, Note_off_c, 6, 80, 64
1, 64185, Note_off_c, 7, 63, 64
1, 64192, Note_off_c, 2, 62, 64
1, 64230, Note_off_c, 3, 69, 64
1, 64237, Note_on_c, 2, 62, 105
1, 64237, Note_on_c, 3, 72, 116
1, 64240, Note_on_c, 9, 51, 78
1, 64242, Note_off_c, 9, 51, 64
1, 64287, Note_off_c, 11, 50, 64
1, 64310, Note_off_c, 3, 72, 64
1, 64317, Note_on_c, 0, 53, 50
1, 64317, Note_on_c, 6, 80, 109
1, 64317, Note_on_c, 7, 63, 122
1, 64320, Note_on_c, 0, 57, 91
1, 64320, Note_on_c, 11, 53, 102
1, 64320, Note_on_c, 9, 51, 79
1, 64320, Note_on_c, 9, 35, 86
1, 64322, Note_off_c, 9, 35, 64
1, 64322, Note_off_c, 9, 51, 64
1, 64322, Note_off_c, 2, 62, 64
1, 64322, Note_on_c, 0, 60, 99
1, 64322, Note_on_c, 0, 65, 97
1, 64330, Note_on_c, 2, 63, 96
1, 64460, Note_off_c, 6, 80, 64
1, 64470, Note_off_c, 0, 65, 64
1, 64477, Note_on_c, 3, 67, 81
1, 64480, Note_off_c, 0, 60, 64
1, 64482, Note_on_c, 0, 65, 78
1, 64482, Note_on_c, 0, 60, 87
1, 64485, Note_on_c, 2, 62, 102
1, 64497, Note_off_c, 2, 63, 64
1, 64525, Note_off_c, 3, 67, 64
1, 64527, Note_off_c, 11, 53, 64
1, 64545, Note_off_c, 0, 60, 64
1, 64552, Note_off_c, 0, 65, 64
1, 64552, Note_off_c, 0, 57, 64
1, 64557, Note_on_c, 3, 69, 100
1, 64557, Note_on_c, 6, 78, 91
1, 64560, Note_on_c, 11, 50, 111
1, 64560, Note_on_c, 9, 51, 113
1, 64560, Note_on_c, 9, 40, 85
1, 64562, Note_off_c, 9, 40, 64
1, 64562, Note_off_c, 9, 51, 64
1, 64562, Note_off_c, 0, 53, 64
1, 64585, Note_on_c, 2, 63, 92
1, 64590, Note_off_c, 2, 62, 64
1, 64685, Note_off_c, 6, 78, 64
1, 64695, Note_off_c, 3, 69, 64
1, 64717, Note_on_c, 0, 65, 99
1, 64717, Note_on_c, 3, 72, 119
1, 64720, Note_on_c, 6, 79, 88
1, 64720, Note_on_c, 9, 51, 84
1, 64722, Note_off_c, 9, 51, 64
1, 64722, Note_on_c, 0, 60, 95
1, 64722, Note_on_c, 0, 57, 71
1, 64725, Note_on_c, 0, 53, 19
1, 64725, Note_on_c, 2, 62, 91
1, 64740, Note_off_c, 2, 63, 64
1, 64767, Note_off_c, 11, 50, 64
1, 64792, Note_off_c, 3, 72, 64
1, 64800, Note_on_c, 11, 48, 89
1, 64800, Note_on_c, 9, 51, 89
1, 64800, Note_on_c, 9, 35, 89
1, 64802, Note_off_c, 9, 35, 64
1, 64802, Note_off_c, 9, 51, 64
1, 64802, Note_off_c, 6, 79, 64
1, 64802, Note_on_c, 6, 75, 89
1, 64830, Note_on_c, 2, 63, 90
1, 64847, Note_off_c, 2, 62, 64
1, 64915, Note_off_c, 7, 63, 64
1, 64925, Note_off_c, 6, 75, 64
1, 64955, Note_on_c, 7, 63, 127
1, 64957, Note_off_c, 0, 65, 64
1, 64957, Note_on_c, 3, 67, 98
1, 64957, Note_on_c, 6, 76, 80
1, 64960, Note_off_c, 0, 60, 64
1, 64960, Note_on_c, 0, 65, 98
1, 64960, Note_on_c, 9, 40, 88
1, 64962, Note_off_c, 9, 40, 64
1, 64962, Note_off_c, 0, 53, 64
1, 64962, Note_on_c, 0, 60, 99
1, 64965, Note_on_c, 0, 53, 40
1, 64975, Note_on_c, 2, 62, 97
1, 64995, Note_off_c, 2, 63, 64
1, 65007, Note_off_c, 11, 48, 64
1, 65015, Note_off_c, 3, 67, 64
1, 65030, Note_off_c, 0, 57, 64
1, 65037, Note_off_c, 6, 76, 64
1, 65037, Note_on_c, 3, 69, 102
1, 65040, Note_on_c, 11, 45, 98
1, 65040, Note_on_c, 9, 40, 77
1, 65042, Note_off_c, 9, 40, 64
1, 65042, Note_off_c, 0, 53, 64
1, 65042, Note_on_c, 6, 77, 96
1, 65050, Note_off_c, 0, 60, 64
1, 65052, Note_off_c, 0, 65, 64
1, 65082, Note_on_c, 2, 63, 98
1, 65092, Note_off_c, 2, 62, 64
1, 65147, Note_off_c, 7, 63, 64
1, 65177, Note_off_c, 3, 69, 64
1, 65177, Note_on_c, 7, 63, 97
1, 65187, Note_off_c, 6, 77, 64
1, 65197, Note_on_c, 3, 72, 119
1, 65197, Note_on_c, 6, 78, 71
1, 65197, Note_on_c, 7, 64, 118
1, 65200, Note_on_c, 2, 62, 92
1, 65235, Note_off_c, 7, 63, 64
1, 65235, Note_off_c, 2, 63, 64
1, 65247, Note_off_c, 11, 45, 64
1, 65257, Note_off_c, 6, 78, 64
1, 65272, Note_off_c, 3, 72, 64
1, 65277, Note_on_c, 0, 52, 46
1, 65277, Note_on_c, 6, 79, 96
1, 65280, Note_on_c, 11, 36, 114
1, 65280, Note_on_c, 9, 51, 72
1, 65280, Note_on_c, 9, 35, 81
1, 65282, Note_off_c, 9, 35, 64
1, 65282, Note_off_c, 9, 51, 64
1, 65282, Note_on_c, 0, 55, 89
1, 65282, Note_on_c, 0, 60, 99
1, 65285, Note_on_c, 0, 64, 75
1, 65295, Note_off_c, 2, 62, 64
1, 65297, Note_on_c, 2, 60, 113
1, 65430, Note_off_c, 0, 64, 64
1, 65430, Note_off_c, 0, 55, 64
1, 65435, Note_off_c, 6, 79, 64
1, 65437, Note_off_c, 2, 60, 64
1, 65437, Note_on_c, 6, 75, 79
1, 65442, Note_off_c, 0, 60, 64
1, 65442, Note_on_c, 0, 64, 96
1, 65445, Note_on_c, 0, 60, 97
1, 65445, Note_on_c, 0, 55, 63
1, 65462, Note_on_c, 2, 60, 102
1, 65485, Note_off_c, 0, 55, 64
1, 65487, Note_off_c, 11, 36, 64
1, 65512, Note_off_c, 0, 60, 64
1, 65517, Note_on_c, 6, 76, 96
1, 65520, Note_on_c, 0, 55, 87
1, 65520, Note_on_c, 11, 40, 98
1, 65520, Note_on_c, 9, 51, 110
1, 65520, Note_on_c, 9, 40, 92
1, 65522, Note_off_c, 9, 40, 64
1, 65522, Note_off_c, 9, 51, 64
1, 65525, Note_off_c, 6, 75, 64
1, 65527, Note_off_c, 0, 64, 64
1, 65530, Note_off_c, 2, 60, 64
1, 65545, Note_on_c, 2, 60, 97
1, 65547, Note_off_c, 0, 52, 64
1, 65560, Note_off_c, 0, 55, 64
1, 65657, Note_off_c, 6, 76, 64
1, 65675, Note_on_c, 6, 72, 92
1, 65677, Note_off_c, 2, 60, 64
1, 65677, Note_on_c, 0, 64, 101
1, 65680, Note_on_c, 9, 51, 86
1, 65682, Note_off_c, 9, 51, 64
1, 65682, Note_on_c, 0, 60, 97
1, 65682, Note_on_c, 0, 55, 78
1, 65685, Note_on_c, 0, 52, 33
1, 65697, Note_on_c, 2, 60, 127
1, 65705, Note_off_c, 7, 64, 64
1, 65727, Note_off_c, 11, 40, 64
1, 65757, Note_on_c, 7, 67, 127
1, 65760, Note_on_c, 11, 43, 104
1, 65760, Note_on_c, 9, 51, 93
1, 65760, Note_on_c, 9, 35, 86
1, 65762, Note_off_c, 9, 35, 64
1, 65762, Note_off_c, 9, 51, 64
1, 65822, Note_off_c, 6, 72, 64
1, 65832, Note_off_c, 2, 60, 64
1, 65905, Note_off_c, 7, 67, 64
1, 65905, Note_on_c, 2, 60, 117
1, 65917, Note_off_c, 0, 64, 64
1, 65920, Note_off_c, 0, 60, 64
1, 65920, Note_on_c, 0, 64, 104
1, 65922, Note_on_c, 0, 60, 99
1, 65967, Note_off_c, 2, 60, 64
1, 65967, Note_off_c, 11, 43, 64
1, 65972, Note_off_c, 0, 55, 64
1, 65992, Note_off_c, 0, 60, 64
1, 66000, Note_on_c, 11, 45, 91
1, 66000, Note_on_c, 2, 60, 102
1, 66000, Note_on_c, 7, 65, 124
1, 66000, Note_on_c, 9, 51, 121
1, 66000, Note_on_c, 9, 40, 91
1, 66002, Note_off_c, 9, 40, 64
1, 66002, Note_off_c, 9, 51, 64
1, 66002, Note_off_c, 0, 52, 64
1, 66017, Note_off_c, 0, 64, 64
1, 66092, Note_off_c, 2, 60, 64
1, 66135, Note_off_c, 7, 65, 64
1, 66157, Note_on_c, 7, 64, 106
1, 66160, Note_on_c, 9, 51, 79
1, 66162, Note_off_c, 9, 51, 64
1, 66207, Note_off_c, 11, 45, 64
1, 66240, Note_on_c, 0, 52, 43
1, 66240, Note_on_c, 11, 48, 98
1, 66240, Note_on_c, 2, 60, 117
1, 66240, Note_on_c, 9, 51, 78
1, 66240, Note_on_c, 9, 35, 81
1, 66242, Note_off_c, 9, 35, 64
1, 66242, Note_off_c, 9, 51, 64
1, 66242, Note_on_c, 0, 55, 86
1, 66242, Note_on_c, 0, 60, 96
1, 66245, Note_on_c, 0, 64, 76
1, 66362, Note_off_c, 2, 60, 64
1, 66377, Note_off_c, 0, 64, 64
1, 66392, Note_off_c, 0, 60, 64
1, 66397, Note_on_c, 6, 69, 100
1, 66400, Note_on_c, 0, 64, 96
1, 66402, Note_on_c, 0, 60, 87
1, 66405, Note_on_c, 2, 60, 109
1, 66447, Note_off_c, 11, 48, 64
1, 66470, Note_off_c, 2, 60, 64
1, 66477, Note_on_c, 6, 67, 75
1, 66480, Note_on_c, 11, 45, 106
1, 66480, Note_on_c, 9, 51, 117
1, 66480, Note_on_c, 9, 40, 86
1, 66482, Note_off_c, 9, 40, 64
1, 66482, Note_off_c, 9, 51, 64
1, 66482, Note_off_c, 6, 69, 64
1, 66485, Note_off_c, 0, 60, 64
1, 66487, Note_off_c, 0, 64, 64
1, 66495, Note_on_c, 2, 60, 115
1, 66497, Note_off_c, 0, 55, 64
1, 66507, Note_off_c, 0, 52, 64
1, 66592, Note_off_c, 2, 60, 64
1, 66592, Note_off_c, 6, 67, 64
1, 66637, Note_on_c, 0, 64, 105
1, 66637, Note_on_c, 6, 60, 73
1, 66640, Note_on_c, 9, 51, 81
1, 66642, Note_off_c, 9, 51, 64
1, 66642, Note_on_c, 0, 60, 97
1, 66642, Note_on_c, 0, 55, 85
1, 66647, Note_on_c, 2, 60, 127
1, 66687, Note_off_c, 11, 45, 64
1, 66715, Note_on_c, 0, 52, 28
1, 66720, Note_on_c, 11, 43, 102
1, 66720, Note_on_c, 9, 51, 89
1, 66720, Note_on_c, 9, 35, 89
1, 66722, Note_off_c, 9, 35, 64
1, 66722, Note_off_c, 9, 51, 64
1, 66745, Note_off_c, 6, 60, 64
1, 66747, Note_off_c, 2, 60, 64
1, 66875, Note_off_c, 0, 64, 64
1, 66877, Note_on_c, 0, 64, 105
1, 66877, Note_on_c, 6, 82, 117
1, 66880, Note_off_c, 0, 55, 64
1, 66880, Note_off_c, 0, 60, 64
1, 66880, Note_on_c, 9, 40, 100
1, 66882, Note_off_c, 9, 40, 64
1, 66882, Note_off_c, 0, 52, 64
1, 66882, Note_on_c, 0, 60, 101
1, 66882, Note_on_c, 0, 55, 92
1, 66882, Note_on_c, 3, 69, 106
1, 66885, Note_on_c, 0, 52, 55
1, 66907, Note_off_c, 7, 64, 64
1, 66925, Note_off_c, 3, 69, 64
1, 66927, Note_off_c, 11, 43, 64
1, 66937, Note_off_c, 6, 82, 64
1, 66952, Note_off_c, 0, 60, 64
1, 66957, Note_on_c, 3, 71, 106
1, 66960, Note_off_c, 0, 52, 64
1, 66960, Note_on_c, 11, 40, 86
1, 66960, Note_on_c, 6, 83, 76
1, 66960, Note_on_c, 9, 40, 100
1, 66962, Note_off_c, 9, 40, 64
1, 66972, Note_off_c, 0, 64, 64
1, 66975, Note_off_c, 0, 55, 64
1, 67020, Note_off_c, 6, 83, 64
1, 67037, Note_on_c, 6, 84, 94
1, 67085, Note_off_c, 3, 71, 64
1, 67112, Note_off_c, 6, 84, 64
1, 67117, Note_on_c, 3, 74, 120
1, 67122, Note_on_c, 6, 85, 87
1, 67167, Note_off_c, 11, 40, 64
1, 67185, Note_off_c, 6, 85, 64
1, 67195, Note_on_c, 7, 63, 125
1, 67197, Note_on_c, 0, 62, 100
1, 67197, Note_on_c, 0, 59, 86
1, 67200, Note_on_c, 11, 43, 102
1, 67200, Note_on_c, 2, 55, 117
1, 67200, Note_on_c, 9, 51, 93
1, 67200, Note_on_c, 9, 35, 114
1, 67202, Note_off_c, 9, 35, 64
1, 67202, Note_off_c, 9, 51, 64
1, 67202, Note_on_c, 0, 67, 100
1, 67202, Note_on_c, 6, 86, 112
1, 67202, Pitch_bend_c, 7, 8777
1, 67212, Pitch_bend_c, 7, 11000
1, 67215, Note_off_c, 3, 74, 64
1, 67225, Pitch_bend_c, 7, 12170
1, 67237, Pitch_bend_c, 7, 12989
1, 67250, Pitch_bend_c, 7, 13340
1, 67300, Pitch_bend_c, 7, 13457
1, 67337, Pitch_bend_c, 7, 13691
1, 67355, Note_off_c, 0, 67, 64
1, 67357, Note_off_c, 2, 55, 64
1, 67357, Note_on_c, 0, 67, 101
1, 67360, Note_off_c, 0, 62, 64
1, 67362, Note_on_c, 0, 62, 99
1, 67362, Pitch_bend_c, 7, 13808
1, 67407, Note_off_c, 11, 43, 64
1, 67422, Note_on_c, 2, 58, 109
1, 67437, Note_off_c, 0, 59, 64
1, 67440, Note_on_c, 11, 47, 102
1, 67440, Note_on_c, 9, 51, 110
1, 67440, Note_on_c, 9, 40, 91
1, 67442, Note_off_c, 9, 40, 64
1, 67442, Note_off_c, 9, 51, 64
1, 67442, Note_on_c, 0, 59, 98
1, 67450, Note_off_c, 0, 67, 64
1, 67465, Note_off_c, 0, 62, 64
1, 67480, Note_off_c, 0, 59, 64
1, 67592, Note_off_c, 6, 86, 64
1, 67597, Note_on_c, 0, 67, 100
1, 67600, Note_on_c, 9, 51, 85
1, 67602, Note_off_c, 9, 51, 64
1, 67602, Note_on_c, 0, 62, 97
1, 67602, Note_on_c, 0, 59, 73
1, 67632, Note_off_c, 2, 58, 64
1, 67647, Note_off_c, 11, 47, 64
1, 67677, Pitch_bend_c, 2, 3160
1, 67680, Note_on_c, 11, 50, 98
1, 67680, Note_on_c, 9, 51, 81
1, 67680, Note_on_c, 9, 35, 88
1, 67682, Note_off_c, 9, 35, 64
1, 67682, Note_off_c, 9, 51, 64
1, 67682, Note_on_c, 6, 82, 113
1, 67687, Note_on_c, 2, 58, 112
1, 67690, Pitch_bend_c, 2, 2458
1, 67702, Pitch_bend_c, 2, 2341
1, 67715, Pitch_bend_c, 2, 2575
1, 67727, Pitch_bend_c, 2, 3394
1, 67742, Pitch_bend_c, 2, 4330
1, 67755, Pitch_bend_c, 2, 5617
1, 67767, Pitch_bend_c, 2, 7021
1, 67780, Pitch_bend_c, 2, 8192
1, 67837, Note_on_c, 6, 84, 102
1, 67840, Note_off_c, 0, 59, 64
1, 67840, Note_off_c, 0, 62, 64
1, 67840, Note_off_c, 0, 67, 64
1, 67842, Note_on_c, 0, 67, 101
1, 67842, Note_on_c, 0, 62, 97
1, 67842, Note_on_c, 0, 59, 87
1, 67845, Note_on_c, 0, 55, 21
1, 67847, Note_off_c, 6, 82, 64
1, 67872, Note_off_c, 2, 58, 64
1, 67887, Note_off_c, 0, 59, 64
1, 67887, Note_off_c, 11, 50, 64
1, 67915, Pitch_bend_c, 2, 5383
1, 67917, Note_off_c, 0, 55, 64
1, 67920, Note_on_c, 11, 52, 96
1, 67920, Note_on_c, 2, 58, 104
1, 67920, Note_on_c, 9, 51, 113
1, 67920, Note_on_c, 9, 40, 89
1, 67922, Note_off_c, 9, 40, 64
1, 67922, Note_off_c, 9, 51, 64
1, 67927, Pitch_bend_c, 2, 4096
1, 67932, Note_off_c, 0, 62, 64
1, 67935, Note_off_c, 0, 67, 64
1, 67940, Pitch_bend_c, 2, 3160
1, 67952, Pitch_bend_c, 2, 2926
1, 67965, Pitch_bend_c, 2, 3160
1, 67972, Note_off_c, 6, 84, 64
1, 67977, Pitch_bend_c, 2, 3862
1, 67990, Pitch_bend_c, 2, 5032
1, 68002, Pitch_bend_c, 2, 6202
1, 68015, Pitch_bend_c, 2, 7255
1, 68027, Pitch_bend_c, 2, 8192
1, 68077, Note_on_c, 6, 80, 106
1, 68080, Note_on_c, 9, 51, 85
1, 68082, Note_off_c, 9, 51, 64
1, 68122, Pitch_bend_c, 7, 13574
1, 68127, Note_off_c, 11, 52, 64
1, 68137, Pitch_bend_c, 7, 12638
1, 68147, Pitch_bend_c, 7, 8192
1, 68150, Note_off_c, 2, 58, 64
1, 68160, Note_on_c, 0, 57, 101
1, 68160, Note_on_c, 11, 41, 102
1, 68160, Note_on_c, 9, 51, 72
1, 68160, Note_on_c, 9, 35, 91
1, 68162, Note_off_c, 9, 35, 64
1, 68162, Note_off_c, 9, 51, 64
1, 68162, Note_on_c, 0, 60, 103
1, 68162, Note_on_c, 0, 65, 98
1, 68177, Note_on_c, 2, 60, 109
1, 68315, Note_off_c, 0, 65, 64
1, 68322, Note_off_c, 0, 60, 64
1, 68322, Note_off_c, 6, 80, 64
1, 68322, Note_on_c, 0, 65, 98
1, 68325, Note_on_c, 0, 60, 97
1, 68342, Note_off_c, 2, 60, 64
1, 68352, Note_off_c, 0, 57, 64
1, 68367, Note_off_c, 11, 41, 64
1, 68397, Note_on_c, 6, 78, 97
1, 68400, Note_on_c, 11, 45, 82
1, 68400, Pitch_bend_c, 2, 3628
1, 68400, Note_on_c, 9, 51, 113
1, 68400, Note_on_c, 9, 40, 94
1, 68402, Note_off_c, 9, 40, 64
1, 68402, Note_off_c, 9, 51, 64
1, 68402, Note_on_c, 0, 57, 81
1, 68402, Note_on_c, 2, 63, 104
1, 68410, Note_off_c, 0, 65, 64
1, 68410, Pitch_bend_c, 2, 2575
1, 68417, Note_off_c, 0, 60, 64
1, 68425, Pitch_bend_c, 2, 1873
1, 68437, Pitch_bend_c, 2, 1639
1, 68447, Note_off_c, 0, 57, 64
1, 68450, Pitch_bend_c, 2, 1873
1, 68462, Pitch_bend_c, 2, 2575
1, 68475, Pitch_bend_c, 2, 3628
1, 68487, Pitch_bend_c, 2, 5032
1, 68500, Pitch_bend_c, 2, 6319
1, 68512, Pitch_bend_c, 2, 7372
1, 68525, Pitch_bend_c, 2, 8074
1, 68532, Note_off_c, 6, 78, 64
1, 68537, Pitch_bend_c, 2, 8192
1, 68557, Note_on_c, 0, 65, 98
1, 68557, Note_on_c, 6, 79, 81
1, 68560, Note_on_c, 9, 51, 85
1, 68562, Note_off_c, 9, 51, 64
1, 68562, Note_on_c, 0, 60, 97
1, 68565, Note_on_c, 0, 57, 66
1, 68577, Note_off_c, 2, 63, 64
1, 68607, Note_off_c, 11, 45, 64
1, 68630, Note_off_c, 6, 79, 64
1, 68637, Pitch_bend_c, 2, 2107
1, 68637, Note_on_c, 2, 63, 106
1, 68640, Note_on_c, 11, 48, 92
1, 68640, Note_on_c, 9, 51, 68
1, 68640, Note_on_c, 9, 35, 85
1, 68642, Note_off_c, 9, 35, 64
1, 68642, Note_off_c, 9, 51, 64
1, 68642, Note_on_c, 6, 75, 85
1, 68660, Pitch_bend_c, 2, 2575
1, 68672, Pitch_bend_c, 2, 3394
1, 68685, Pitch_bend_c, 2, 4564
1, 68700, Pitch_bend_c, 2, 5968
1, 68712, Pitch_bend_c, 2, 7255
1, 68725, Pitch_bend_c, 2, 8192
1, 68752, Note_off_c, 6, 75, 64
1, 68797, Note_on_c, 3, 67, 91
1, 68800, Note_off_c, 0, 60, 64
1, 68800, Note_off_c, 0, 65, 64
1, 68800, Note_on_c, 9, 40, 89
1, 68802, Note_off_c, 9, 40, 64
1, 68802, Note_off_c, 0, 57, 64
1, 68802, Note_on_c, 0, 65, 84
1, 68802, Note_on_c, 0, 60, 91
1, 68802, Note_on_c, 6, 76, 85
1, 68805, Note_on_c, 0, 57, 67
1, 68812, Note_off_c, 2, 63, 64
1, 68837, Note_off_c, 3, 67, 64
1, 68847, Note_off_c, 11, 48, 64
1, 68852, Note_off_c, 0, 57, 64
1, 68872, Note_off_c, 0, 60, 64
1, 68872, Pitch_bend_c, 2, 235
1, 68877, Note_on_c, 3, 69, 106
1, 68880, Note_on_c, 11, 50, 89
1, 68880, Note_on_c, 2, 63, 109
1, 68880, Note_on_c, 9, 40, 100
1, 68882, Note_off_c, 9, 40, 64
1, 68897, Pitch_bend_c, 2, 703
1, 68900, Note_off_c, 0, 65, 64
1, 68910, Pitch_bend_c, 2, 1639
1, 68922, Pitch_bend_c, 2, 3160
1, 68935, Pitch_bend_c, 2, 5617
1, 68947, Pitch_bend_c, 2, 8192
1, 68987, Note_off_c, 6, 76, 64
1, 69015, Note_off_c, 3, 69, 64
1, 69037, Note_off_c, 2, 63, 64
1, 69037, Note_on_c, 3, 72, 123
1, 69087, Note_off_c, 11, 50, 64
1, 69115, Note_off_c, 3, 72, 64
1, 69117, Note_off_c, 7, 63, 64
1, 69117, Note_on_c, 0, 48, 16
1, 69117, Note_on_c, 7, 60, 120
1, 69120, Note_on_c, 0, 52, 61
1, 69120, Note_on_c, 11, 36, 92
1, 69120, Note_on_c, 9, 51, 81
1, 69120, Note_on_c, 9, 35, 104
1, 69122, Note_off_c, 9, 35, 64
1, 69122, Note_off_c, 9, 51, 64
1, 69122, Note_on_c, 0, 55, 74
1, 69122, Note_on_c, 0, 60, 101
1, 69122, Note_on_c, 2, 60, 113
1, 69122, Note_on_c, 6, 75, 117
1, 69125, Note_on_c, 0, 64, 88
1, 69222, Note_off_c, 6, 75, 64
1, 69235, Note_off_c, 2, 60, 64
1, 69255, Note_off_c, 0, 64, 64
1, 69270, Note_on_c, 2, 60, 103
1, 69277, Note_off_c, 0, 60, 64
1, 69282, Note_on_c, 0, 64, 87
1, 69282, Note_on_c, 0, 60, 76
1, 69327, Note_off_c, 11, 36, 64
1, 69330, Note_off_c, 2, 60, 64
1, 69360, Note_on_c, 11, 40, 77
1, 69360, Note_on_c, 6, 74, 112
1, 69360, Note_on_c, 9, 51, 117
1, 69360, Note_on_c, 9, 40, 98
1, 69362, Note_off_c, 9, 40, 64
1, 69362, Note_off_c, 9, 51, 64
1, 69365, Note_off_c, 0, 64, 64
1, 69370, Note_on_c, 2, 60, 103
1, 69377, Note_off_c, 0, 55, 64
1, 69377, Note_off_c, 0, 48, 64
1, 69382, Note_off_c, 0, 60, 64
1, 69387, Note_off_c, 0, 52, 64
1, 69500, Note_off_c, 2, 60, 64
1, 69517, Note_on_c, 0, 64, 99
1, 69517, Note_on_c, 6, 72, 100
1, 69520, Note_on_c, 9, 51, 91
1, 69522, Note_off_c, 9, 51, 64
1, 69522, Note_on_c, 0, 55, 70
1, 69522, Note_on_c, 0, 60, 91
1, 69522, Note_on_c, 2, 60, 119
1, 69530, Note_off_c, 6, 74, 64
1, 69567, Note_off_c, 11, 40, 64
1, 69595, Note_on_c, 0, 52, 16
1, 69600, Note_on_c, 11, 43, 92
1, 69600, Note_on_c, 9, 51, 76
1, 69600, Note_on_c, 9, 35, 89
1, 69602, Note_off_c, 9, 35, 64
1, 69602, Note_off_c, 9, 51, 64
1, 69612, Note_off_c, 2, 60, 64
1, 69645, Note_off_c, 6, 72, 64
1, 69697, Note_off_c, 7, 60, 64
1, 69725, Note_on_c, 2, 60, 105
1, 69740, Note_off_c, 0, 60, 64
1, 69755, Note_off_c, 0, 64, 64
1, 69755, Note_on_c, 6, 67, 88
1, 69757, Note_on_c, 0, 64, 97
1, 69757, Note_on_c, 7, 55, 127
1, 69762, Note_on_c, 0, 60, 87
1, 69797, Note_off_c, 2, 60, 64
1, 69807, Note_off_c, 11, 43, 64
1, 69812, Note_off_c, 0, 55, 64
1, 69832, Note_on_c, 2, 60, 113
1, 69837, Note_on_c, 6, 72, 102
1, 69840, Note_on_c, 11, 45, 88
1, 69840, Note_on_c, 7, 57, 113
1, 69840, Note_on_c, 9, 51, 121
1, 69840, Note_on_c, 9, 40, 96
1, 69842, Note_off_c, 9, 40, 64
1, 69842, Note_off_c, 9, 51, 64
1, 69845, Note_off_c, 7, 55, 64
1, 69845, Note_off_c, 0, 64, 64
1, 69860, Note_off_c, 0, 60, 64
1, 69865, Note_off_c, 6, 67, 64
1, 69887, Note_off_c, 0, 52, 64
1, 69907, Note_off_c, 2, 60, 64
1, 69922, Note_on_c, 6, 69, 68
1, 69955, Note_off_c, 6, 72, 64
1, 69975, Note_off_c, 7, 57, 64
1, 69995, Note_on_c, 0, 64, 72
1, 69995, Note_on_c, 2, 60, 105
1, 69997, Note_on_c, 6, 67, 71
1, 69997, Note_on_c, 7, 48, 113
1, 70000, Note_on_c, 9, 51, 93
1, 70002, Note_off_c, 9, 51, 64
1, 70007, Note_off_c, 6, 69, 64
1, 70047, Note_off_c, 11, 45, 64
1, 70052, Note_off_c, 2, 60, 64
1, 70077, Note_off_c, 6, 67, 64
1, 70077, Note_on_c, 0, 55, 80
1, 70077, Note_on_c, 6, 64, 96
1, 70080, Note_off_c, 0, 64, 64
1, 70080, Note_on_c, 11, 48, 79
1, 70080, Note_on_c, 9, 51, 87
1, 70080, Note_on_c, 9, 35, 84
1, 70082, Note_off_c, 9, 35, 64
1, 70082, Note_off_c, 9, 51, 64
1, 70082, Note_on_c, 0, 64, 72
1, 70082, Note_on_c, 0, 60, 99
1, 70087, Note_on_c, 2, 60, 107
1, 70160, Note_off_c, 2, 60, 64
1, 70220, Note_off_c, 0, 64, 64
1, 70237, Note_on_c, 0, 64, 81
1, 70237, Note_on_c, 2, 60, 111
1, 70287, Note_off_c, 11, 48, 64
1, 70292, Note_off_c, 0, 60, 64
1, 70300, Note_off_c, 6, 64, 64
1, 70315, Note_off_c, 2, 60, 64
1, 70317, Note_off_c, 0, 64, 64
1, 70317, Note_on_c, 6, 63, 109
1, 70320, Note_on_c, 11, 45, 94
1, 70320, Note_on_c, 9, 51, 110
1, 70320, Note_on_c, 9, 40, 102
1, 70322, Note_off_c, 9, 40, 64
1, 70322, Note_off_c, 9, 51, 64
1, 70340, Note_on_c, 2, 60, 119
1, 70352, Note_off_c, 0, 55, 64
1, 70415, Note_off_c, 2, 60, 64
1, 70462, Note_off_c, 6, 63, 64
1, 70475, Note_on_c, 0, 64, 103
1, 70477, Note_on_c, 0, 55, 91
1, 70477, Note_on_c, 6, 60, 94
1, 70480, Note_on_c, 9, 51, 87
1, 70482, Note_off_c, 9, 51, 64
1, 70482, Note_on_c, 0, 60, 104
1, 70482, Note_on_c, 0, 52, 41
1, 70495, Note_on_c, 2, 60, 127
1, 70527, Note_off_c, 11, 45, 64
1, 70540, Note_off_c, 0, 55, 64
1, 70542, Note_off_c, 7, 48, 64
1, 70552, Note_off_c, 0, 52, 64
1, 70555, Note_off_c, 0, 60, 64
1, 70560, Note_on_c, 11, 43, 100
1, 70560, Note_on_c, 9, 51, 93
1, 70560, Note_on_c, 9, 35, 85
1, 70562, Note_off_c, 9, 35, 64
1, 70562, Note_off_c, 9, 51, 64
1, 70575, Note_off_c, 0, 64, 64
1, 70632, Note_off_c, 6, 60, 64
1, 70685, Note_off_c, 2, 60, 64
1, 70710, Note_on_c, 2, 60, 119
1, 70717, Note_on_c, 0, 64, 103
1, 70720, Note_on_c, 9, 40, 91
1, 70722, Note_off_c, 9, 40, 64
1, 70722, Note_on_c, 0, 60, 99
1, 70722, Note_on_c, 0, 55, 71
1, 70765, Note_off_c, 2, 60, 64
1, 70767, Note_off_c, 11, 43, 64
1, 70775, Note_off_c, 0, 55, 64
1, 70792, Note_off_c, 0, 60, 64
1, 70795, Note_on_c, 0, 52, 16
1, 70797, Note_off_c, 0, 64, 64
1, 70797, Note_on_c, 0, 55, 99
1, 70800, Note_on_c, 0, 60, 104
1, 70800, Note_on_c, 0, 64, 106
1, 70800, Note_on_c, 11, 40, 102
1, 70800, Note_on_c, 9, 40, 93
1, 70802, Note_off_c, 9, 40, 64
1, 70825, Note_on_c, 2, 60, 122
1, 70905, Note_off_c, 2, 60, 64
1, 70942, Note_off_c, 0, 60, 64
1, 70947, Note_off_c, 0, 55, 64
1, 70950, Note_off_c, 0, 64, 64
1, 70957, Note_on_c, 3, 67, 77
1, 70967, Note_off_c, 0, 52, 64
1, 71007, Note_off_c, 11, 40, 64
1, 71017, Note_off_c, 3, 67, 64
1, 71037, Note_on_c, 3, 72, 116
1, 71040, Note_on_c, 11, 36, 98
1, 71040, Note_on_c, 2, 60, 111
1, 71040, Note_on_c, 9, 42, 93
1, 71040, Note_on_c, 9, 35, 121
1, 71040, Note_on_c, 9, 40, 98
1, 71042, Note_off_c, 9, 40, 64
1, 71042, Note_off_c, 9, 35, 64
1, 71042, Note_off_c, 9, 42, 64
1, 71042, Note_on_c, 0, 55, 90
1, 71042, Note_on_c, 6, 72, 94
1, 71042, Note_on_c, 6, 79, 71
1, 71045, Note_on_c, 0, 60, 101
1, 71045, Note_on_c, 0, 64, 103
1, 71122, Note_off_c, 6, 72, 64
1, 71130, Note_off_c, 6, 79, 64
1, 71142, Note_off_c, 2, 60, 64
1, 71177, Note_off_c, 0, 64, 64
1, 71185, Note_off_c, 0, 60, 64
1, 71187, Note_off_c, 11, 36, 64
1, 71192, Note_off_c, 0, 55, 64
1, 71202, Note_off_c, 3, 72, 64
1, 71275, Note_on_c, 3, 72, 97
1, 71392, Note_off_c, 3, 72, 64
1, 71437, Note_on_c, 3, 72, 85
1, 71505, Note_off_c, 3, 72, 64
1, 71517, Note_on_c, 3, 75, 93
1, 71655, Note_off_c, 3, 75, 64
1, 71675, Note_on_c, 3, 76, 100
1, 71805, Note_off_c, 3, 76, 64
1, 71922, Note_on_c, 3, 67, 83
1, 71972, Note_off_c, 3, 67, 64
1, 71997, Note_on_c, 3, 72, 113
1, 71997, Note_on_c, 6, 79, 68
1, 71997, Note_on_c, 6, 72, 92
1, 71997, Note_on_c, 7, 64, 108
1, 72000, Note_on_c, 0, 48, 16
1, 72000, Note_on_c, 0, 52, 75
1, 72000, Note_on_c, 11, 36, 108
1, 72000, Note_on_c, 2, 60, 109
1, 72000, Note_on_c, 9, 42, 121
1, 72000, Note_on_c, 9, 40, 94
1, 72000, Note_on_c, 9, 35, 102
1, 72002, Note_off_c, 9, 35, 64
1, 72002, Note_off_c, 9, 40, 64
1, 72002, Note_off_c, 9, 42, 64
1, 72002, Note_on_c, 0, 55, 103
1, 72002, Note_on_c, 0, 60, 101
1, 72005, Note_on_c, 0, 64, 105
1, 72030, Note_off_c, 7, 64, 64
1, 72052, Note_off_c, 6, 79, 64
1, 72085, Note_off_c, 6, 72, 64
1, 72097, Note_off_c, 2, 60, 64
1, 72127, Note_off_c, 0, 64, 64
1, 72132, Note_off_c, 0, 60, 64
1, 72137, Note_off_c, 0, 55, 64
1, 72147, Note_off_c, 11, 36, 64
1, 72155, Note_off_c, 0, 48, 64
1, 72157, Note_off_c, 3, 72, 64
1, 72162, Note_off_c, 0, 52, 64
1, 72235, Note_on_c, 3, 72, 97
1, 72347, Note_off_c, 3, 72, 64
1, 72397, Note_on_c, 3, 72, 95
1, 72475, Note_off_c, 3, 72, 64
1, 72477, Note_on_c, 3, 76, 108
1, 72647, Note_off_c, 3, 76, 64
1, 72952, Note_on_c, 2, 60, 122
1, 72957, Note_on_c, 0, 55, 92
1, 72957, Note_on_c, 0, 52, 24
1, 72957, Note_on_c, 6, 79, 73
1, 72957, Note_on_c, 7, 64, 109
1, 72960, Note_on_c, 0, 60, 100
1, 72960, Note_on_c, 11, 36, 111
1, 72960, Note_on_c, 3, 75, 113
1, 72960, Note_on_c, 9, 42, 121
1, 72960, Note_on_c, 9, 40, 98
1, 72960, Note_on_c, 9, 35, 106
1, 72962, Note_off_c, 9, 35, 64
1, 72962, Note_off_c, 9, 40, 64
1, 72962, Note_off_c, 9, 42, 64
1, 72962, Note_on_c, 0, 64, 105
1, 72962, Note_on_c, 6, 72, 98
1, 73020, Note_off_c, 7, 64, 64
1, 73025, Note_off_c, 6, 72, 64
1, 73032, Note_off_c, 2, 60, 64
1, 73035, Note_off_c, 6, 79, 64
1, 73075, Note_off_c, 3, 75, 64
1, 73090, Note_off_c, 0, 55, 64
1, 73092, Note_off_c, 0, 60, 64
1, 73102, Note_off_c, 0, 64, 64
1, 73107, Note_off_c, 11, 36, 64
1, 73122, Note_on_c, 3, 75, 84
1, 73125, Note_off_c, 0, 52, 64
1, 73167, Note_off_c, 3, 75, 64
1, 73202, Note_on_c, 3, 75, 91
1, 73302, Note_off_c, 3, 75, 64
1, 73362, Note_on_c, 3, 75, 68
1, 73402, Note_off_c, 3, 75, 64
1, 73437, Note_on_c, 3, 75, 93
1, 73547, Note_off_c, 3, 75, 64
1, 73600, Note_on_c, 3, 75, 91
1, 73655, Note_off_c, 3, 75, 64
1, 73680, Note_on_c, 3, 75, 87
1, 73790, Note_off_c, 3, 75, 64
1, 73837, Note_on_c, 3, 75, 99
1, 73895, Note_off_c, 3, 75, 64
1, 73917, Note_on_c, 3, 75, 89
1, 73922, Note_on_c, 7, 60, 122
1, 74015, Note_off_c, 3, 75, 64
1, 74077, Note_on_c, 3, 75, 97
1, 74135, Note_off_c, 3, 75, 64
1, 74155, Pitch_bend_c, 7, 8309
1, 74160, Note_on_c, 3, 75, 97
1, 74190, Pitch_bend_c, 7, 8426
1, 74202, Pitch_bend_c, 7, 8777
1, 74215, Pitch_bend_c, 7, 9011
1, 74240, Pitch_bend_c, 7, 9362
1, 74265, Note_off_c, 3, 75, 64
1, 74265, Pitch_bend_c, 7, 9479
1, 74277, Pitch_bend_c, 7, 9713
1, 74287, Pitch_bend_c, 7, 9947
1, 74300, Pitch_bend_c, 7, 10181
1, 74312, Pitch_bend_c, 7, 10415
1, 74317, Note_on_c, 3, 75, 95
1, 74337, Pitch_bend_c, 7, 10532
1, 74367, Note_off_c, 3, 75, 64
1, 74375, Pitch_bend_c, 7, 10766
1, 74387, Pitch_bend_c, 7, 10883
1, 74397, Note_on_c, 3, 75, 116
1, 74412, Pitch_bend_c, 7, 11117
1, 74450, Pitch_bend_c, 7, 11351
1, 74462, Pitch_bend_c, 7, 11585
1, 74487, Pitch_bend_c, 7, 11936
1, 74522, Pitch_bend_c, 7, 12053
1, 74550, Pitch_bend_c, 7, 12287
1, 74560, Note_on_c, 9, 40, 98
1, 74562, Note_off_c, 9, 40, 64
1, 74572, Pitch_bend_c, 7, 12521
1, 74585, Pitch_bend_c, 7, 12755
1, 74610, Pitch_bend_c, 7, 12989
1, 74640, Note_on_c, 9, 40, 92
1, 74642, Note_off_c, 9, 40, 64
1, 74642, Note_on_c, 3, 72, 97
1, 74647, Pitch_bend_c, 7, 13223
1, 74650, Note_off_c, 3, 75, 64
1, 74670, Pitch_bend_c, 7, 13340
1, 74710, Pitch_bend_c, 7, 13574
1, 74722, Pitch_bend_c, 7, 13691
1, 74735, Pitch_bend_c, 7, 13925
1, 74747, Pitch_bend_c, 7, 14042
1, 74757, Note_off_c, 3, 72, 64
1, 74760, Pitch_bend_c, 7, 14510
1, 74772, Pitch_bend_c, 7, 15212
1, 74785, Pitch_bend_c, 7, 16265
1, 74797, Pitch_bend_c, 7, 16383
1, 74802, Note_on_c, 3, 72, 101
1, 74877, Note_on_c, 0, 60, 100
1, 74877, Note_on_c, 0, 57, 91
1, 74877, Note_on_c, 0, 53, 38
1, 74880, Note_on_c, 0, 65, 103
1, 74880, Note_on_c, 11, 41, 104
1, 74880, Note_on_c, 2, 53, 102
1, 74880, Note_on_c, 9, 51, 98
1, 74880, Note_on_c, 9, 35, 108
1, 74882, Note_off_c, 9, 35, 64
1, 74882, Note_off_c, 9, 51, 64
1, 74945, Note_off_c, 2, 53, 64
1, 74955, Note_off_c, 3, 72, 64
1, 74980, Note_off_c, 7, 60, 64
1, 75012, Note_on_c, 2, 53, 109
1, 75035, Note_off_c, 0, 65, 64
1, 75037, Note_on_c, 6, 72, 80
1, 75040, Note_off_c, 0, 60, 64
1, 75040, Note_on_c, 6, 79, 73
1, 75040, Note_on_c, 7, 60, 96
1, 75042, Note_on_c, 0, 65, 101
1, 75042, Note_on_c, 0, 60, 94
1, 75085, Note_off_c, 7, 60, 64
1, 75087, Note_off_c, 11, 41, 64
1, 75090, Note_off_c, 6, 79, 64
1, 75100, Note_off_c, 6, 72, 64
1, 75105, Note_on_c, 2, 57, 117
1, 75120, Note_on_c, 11, 45, 106
1, 75120, Note_on_c, 9, 51, 98
1, 75120, Note_on_c, 9, 40, 89
1, 75122, Note_off_c, 9, 40, 64
1, 75122, Note_off_c, 9, 51, 64
1, 75122, Note_off_c, 0, 57, 64
1, 75122, Note_on_c, 5, 74, 99
1, 75122, Note_on_c, 5, 70, 102
1, 75122, Note_on_c, 5, 65, 90
1, 75135, Note_off_c, 2, 53, 64
1, 75135, Note_off_c, 0, 53, 64
1, 75137, Note_off_c, 0, 65, 64
1, 75145, Note_off_c, 0, 60, 64
1, 75217, Note_off_c, 2, 57, 64
1, 75237, Note_off_c, 5, 70, 64
1, 75257, Note_off_c, 5, 74, 64
1, 75277, Note_on_c, 0, 65, 103
1, 75280, Note_on_c, 9, 51, 94
1, 75282, Note_off_c, 9, 51, 64
1, 75282, Note_on_c, 0, 60, 99
1, 75282, Note_on_c, 0, 57, 79
1, 75282, Note_on_c, 5, 63, 88
1, 75282, Note_on_c, 5, 72, 80
1, 75282, Note_on_c, 5, 69, 75
1, 75285, Note_off_c, 5, 65, 64
1, 75285, Note_on_c, 0, 53, 26
1, 75287, Note_on_c, 2, 57, 88
1, 75327, Note_off_c, 11, 45, 64
1, 75360, Note_on_c, 11, 48, 98
1, 75360, Note_on_c, 6, 72, 82
1, 75360, Note_on_c, 9, 51, 87
1, 75360, Note_on_c, 9, 35, 78
1, 75362, Note_off_c, 9, 35, 64
1, 75362, Note_off_c, 9, 51, 64
1, 75362, Note_on_c, 6, 79, 73
1, 75362, Note_on_c, 7, 60, 108
1, 75382, Note_on_c, 2, 60, 100
1, 75392, Note_off_c, 2, 57, 64
1, 75405, Note_off_c, 7, 60, 64
1, 75420, Note_off_c, 6, 72, 64
1, 75422, Note_off_c, 6, 79, 64
1, 75465, Note_off_c, 2, 60, 64
1, 75470, Note_off_c, 5, 69, 64
1, 75475, Note_off_c, 5, 63, 64
1, 75495, Note_off_c, 5, 72, 64
1, 75520, Note_off_c, 0, 60, 64
1, 75520, Note_off_c, 0, 65, 64
1, 75522, Note_on_c, 0, 65, 101
1, 75522, Note_on_c, 0, 60, 100
1, 75527, Note_on_c, 2, 60, 97
1, 75567, Note_off_c, 11, 48, 64
1, 75575, Note_off_c, 0, 57, 64
1, 75600, Note_on_c, 11, 45, 111
1, 75600, Note_on_c, 9, 51, 113
1, 75600, Note_on_c, 9, 40, 96
1, 75602, Note_off_c, 9, 40, 64
1, 75602, Note_off_c, 9, 51, 64
1, 75602, Note_on_c, 2, 62, 100
1, 75615, Note_off_c, 0, 53, 64
1, 75617, Note_off_c, 2, 60, 64
1, 75617, Note_off_c, 0, 65, 64
1, 75627, Note_off_c, 0, 60, 64
1, 75712, Note_off_c, 2, 62, 64
1, 75757, Note_on_c, 2, 62, 105
1, 75760, Note_on_c, 9, 51, 76
1, 75762, Note_off_c, 9, 51, 64
1, 75807, Note_off_c, 11, 45, 64
1, 75837, Note_on_c, 0, 53, 50
1, 75837, Note_on_c, 3, 75, 116
1, 75840, Note_on_c, 0, 57, 91
1, 75840, Note_on_c, 11, 41, 111
1, 75840, Note_on_c, 9, 51, 93
1, 75840, Note_on_c, 9, 35, 100
1, 75842, Note_off_c, 9, 35, 64
1, 75842, Note_off_c, 9, 51, 64
1, 75842, Note_off_c, 2, 62, 64
1, 75842, Note_on_c, 0, 60, 99
1, 75842, Note_on_c, 0, 65, 97
1, 75842, Note_on_c, 6, 72, 85
1, 75842, Note_on_c, 6, 79, 71
1, 75842, Note_on_c, 7, 60, 100
1, 75850, Note_on_c, 2, 63, 96
1, 75875, Note_off_c, 7, 60, 64
1, 75897, Note_off_c, 6, 79, 64
1, 75897, Note_off_c, 6, 72, 64
1, 75987, Note_off_c, 3, 75, 64
1, 75990, Note_off_c, 0, 65, 64
1, 76000, Note_off_c, 0, 60, 64
1, 76002, Note_on_c, 0, 65, 78
1, 76002, Note_on_c, 0, 60, 87
1, 76002, Note_on_c, 3, 72, 75
1, 76005, Note_on_c, 2, 62, 102
1, 76017, Note_off_c, 2, 63, 64
1, 76047, Note_off_c, 11, 41, 64
1, 76050, Note_off_c, 3, 72, 64
1, 76065, Note_off_c, 0, 60, 64
1, 76072, Note_off_c, 0, 65, 64
1, 76072, Note_off_c, 0, 57, 64
1, 76077, Note_on_c, 3, 74, 97
1, 76080, Note_on_c, 11, 45, 106
1, 76080, Note_on_c, 9, 51, 117
1, 76080, Note_on_c, 9, 40, 96
1, 76082, Note_off_c, 9, 40, 64
1, 76082, Note_off_c, 9, 51, 64
1, 76082, Note_off_c, 0, 53, 64
1, 76105, Note_on_c, 2, 63, 92
1, 76110, Note_off_c, 2, 62, 64
1, 76237, Note_on_c, 0, 65, 99
1, 76237, Note_on_c, 6, 79, 74
1, 76237, Note_on_c, 6, 72, 84
1, 76237, Note_on_c, 7, 60, 102
1, 76240, Note_on_c, 9, 51, 89
1, 76242, Note_off_c, 9, 51, 64
1, 76242, Note_off_c, 3, 74, 64
1, 76242, Note_on_c, 0, 60, 95
1, 76242, Note_on_c, 0, 57, 71
1, 76242, Note_on_c, 3, 72, 74
1, 76245, Note_on_c, 0, 53, 19
1, 76245, Note_on_c, 2, 62, 91
1, 76260, Note_off_c, 2, 63, 64
1, 76275, Note_off_c, 3, 72, 64
1, 76280, Note_off_c, 7, 60, 64
1, 76287, Note_off_c, 11, 45, 64
1, 76295, Note_off_c, 6, 72, 64
1, 76302, Note_off_c, 6, 79, 64
1, 76320, Note_on_c, 11, 48, 104
1, 76320, Note_on_c, 3, 74, 110
1, 76320, Note_on_c, 9, 51, 83
1, 76320, Note_on_c, 9, 35, 81
1, 76322, Note_off_c, 9, 35, 64
1, 76322, Note_off_c, 9, 51, 64
1, 76350, Note_on_c, 2, 63, 90
1, 76367, Note_off_c, 2, 62, 64
1, 76477, Note_off_c, 0, 65, 64
1, 76480, Note_off_c, 0, 60, 64
1, 76480, Note_on_c, 0, 65, 98
1, 76480, Note_on_c, 9, 40, 97
1, 76482, Note_off_c, 9, 40, 64
1, 76482, Note_off_c, 0, 53, 64
1, 76482, Note_on_c, 0, 60, 99
1, 76485, Note_on_c, 0, 53, 40
1, 76495, Note_on_c, 2, 62, 97
1, 76515, Note_off_c, 2, 63, 64
1, 76527, Note_off_c, 11, 48, 64
1, 76537, Note_off_c, 3, 74, 64
1, 76550, Note_off_c, 0, 57, 64
1, 76557, Note_on_c, 3, 72, 93
1, 76560, Note_on_c, 11, 51, 84
1, 76560, Note_on_c, 9, 40, 97
1, 76562, Note_off_c, 9, 40, 64
1, 76562, Note_off_c, 0, 53, 64
1, 76570, Note_off_c, 0, 60, 64
1, 76572, Note_off_c, 0, 65, 64
1, 76602, Note_on_c, 2, 63, 98
1, 76612, Note_off_c, 2, 62, 64
1, 76682, Note_off_c, 3, 72, 64
1, 76687, Pitch_bend_c, 7, 14861
1, 76700, Pitch_bend_c, 7, 10649
1, 76712, Pitch_bend_c, 7, 8192
1, 76720, Note_on_c, 2, 62, 92
1, 76720, Note_on_c, 3, 72, 99
1, 76755, Note_off_c, 2, 63, 64
1, 76767, Note_off_c, 11, 51, 64
1, 76797, Note_on_c, 0, 52, 46
1, 76800, Note_on_c, 11, 36, 98
1, 76800, Note_on_c, 9, 51, 93
1, 76800, Note_on_c, 9, 35, 111
1, 76802, Note_off_c, 9, 35, 64
1, 76802, Note_off_c, 9, 51, 64
1, 76802, Note_on_c, 0, 55, 89
1, 76802, Note_on_c, 0, 60, 99
1, 76805, Note_on_c, 0, 64, 75
1, 76815, Note_off_c, 2, 62, 64
1, 76817, Note_on_c, 2, 60, 113
1, 76845, Note_off_c, 3, 72, 64
1, 76950, Note_off_c, 0, 64, 64
1, 76950, Note_off_c, 0, 55, 64
1, 76957, Note_off_c, 2, 60, 64
1, 76957, Note_on_c, 7, 64, 105
1, 76962, Note_off_c, 0, 60, 64
1, 76962, Note_on_c, 0, 64, 96
1, 76962, Note_on_c, 6, 72, 90
1, 76962, Note_on_c, 6, 79, 70
1, 76965, Note_on_c, 0, 60, 97
1, 76965, Note_on_c, 0, 55, 63
1, 76982, Note_on_c, 2, 60, 102
1, 77005, Note_off_c, 0, 55, 64
1, 77007, Note_off_c, 7, 64, 64
1, 77007, Note_off_c, 11, 36, 64
1, 77027, Note_off_c, 6, 79, 64
1, 77027, Note_off_c, 6, 72, 64
1, 77032, Note_off_c, 0, 60, 64
1, 77040, Note_on_c, 0, 55, 87
1, 77040, Note_on_c, 11, 40, 98
1, 77040, Note_on_c, 9, 51, 121
1, 77040, Note_on_c, 9, 40, 96
1, 77042, Note_off_c, 9, 40, 64
1, 77042, Note_off_c, 9, 51, 64
1, 77047, Note_off_c, 0, 64, 64
1, 77050, Note_off_c, 2, 60, 64
1, 77065, Note_on_c, 2, 60, 97
1, 77067, Note_off_c, 0, 52, 64
1, 77080, Note_off_c, 0, 55, 64
1, 77197, Note_off_c, 2, 60, 64
1, 77197, Note_on_c, 0, 64, 101
1, 77200, Note_on_c, 9, 51, 83
1, 77202, Note_off_c, 9, 51, 64
1, 77202, Note_on_c, 0, 60, 97
1, 77202, Note_on_c, 0, 55, 78
1, 77205, Note_on_c, 0, 52, 33
1, 77217, Note_on_c, 2, 60, 127
1, 77247, Note_off_c, 11, 40, 64
1, 77280, Note_on_c, 11, 43, 98
1, 77280, Note_on_c, 9, 51, 83
1, 77280, Note_on_c, 9, 35, 102
1, 77282, Note_off_c, 9, 35, 64
1, 77282, Note_off_c, 9, 51, 64
1, 77282, Note_on_c, 6, 72, 88
1, 77282, Note_on_c, 6, 79, 77
1, 77282, Note_on_c, 7, 64, 105
1, 77330, Note_off_c, 7, 64, 64
1, 77342, Note_off_c, 6, 72, 64
1, 77352, Note_off_c, 2, 60, 64
1, 77355, Note_off_c, 6, 79, 64
1, 77425, Note_on_c, 2, 60, 117
1, 77437, Note_off_c, 0, 64, 64
1, 77437, Note_on_c, 3, 67, 80
1, 77440, Note_off_c, 0, 60, 64
1, 77440, Note_on_c, 0, 64, 104
1, 77442, Note_on_c, 0, 60, 99
1, 77480, Note_off_c, 3, 67, 64
1, 77487, Note_off_c, 2, 60, 64
1, 77487, Note_off_c, 11, 43, 64
1, 77492, Note_off_c, 0, 55, 64
1, 77512, Note_off_c, 0, 60, 64
1, 77517, Note_on_c, 3, 69, 106
1, 77520, Note_on_c, 11, 45, 86
1, 77520, Note_on_c, 2, 60, 102
1, 77520, Note_on_c, 9, 51, 121
1, 77520, Note_on_c, 9, 40, 96
1, 77522, Note_off_c, 9, 40, 64
1, 77522, Note_off_c, 9, 51, 64
1, 77522, Note_off_c, 0, 52, 64
1, 77537, Note_off_c, 0, 64, 64
1, 77612, Note_off_c, 2, 60, 64
1, 77672, Note_off_c, 3, 69, 64
1, 77677, Note_on_c, 3, 72, 107
1, 77680, Note_on_c, 9, 51, 79
1, 77682, Note_off_c, 9, 51, 64
1, 77727, Note_off_c, 11, 45, 64
1, 77760, Note_on_c, 0, 52, 43
1, 77760, Note_on_c, 11, 48, 94
1, 77760, Note_on_c, 2, 60, 117
1, 77760, Note_on_c, 9, 51, 85
1, 77760, Note_on_c, 9, 35, 94
1, 77762, Note_off_c, 9, 35, 64
1, 77762, Note_off_c, 9, 51, 64
1, 77762, Note_on_c, 0, 55, 86
1, 77762, Note_on_c, 0, 60, 96
1, 77762, Note_on_c, 6, 72, 94
1, 77762, Note_on_c, 6, 79, 74
1, 77762, Note_on_c, 7, 64, 97
1, 77765, Note_on_c, 0, 64, 76
1, 77797, Note_off_c, 7, 64, 64
1, 77802, Note_off_c, 3, 72, 64
1, 77820, Note_off_c, 6, 72, 64
1, 77822, Note_off_c, 6, 79, 64
1, 77882, Note_off_c, 2, 60, 64
1, 77897, Note_off_c, 0, 64, 64
1, 77912, Note_off_c, 0, 60, 64
1, 77920, Note_on_c, 0, 64, 96
1, 77922, Note_on_c, 0, 60, 87
1, 77925, Note_on_c, 2, 60, 109
1, 77967, Note_off_c, 11, 48, 64
1, 77990, Note_off_c, 2, 60, 64
1, 78000, Note_on_c, 11, 45, 100
1, 78000, Note_on_c, 9, 51, 110
1, 78000, Note_on_c, 9, 40, 98
1, 78002, Note_off_c, 9, 40, 64
1, 78002, Note_off_c, 9, 51, 64
1, 78005, Note_off_c, 0, 60, 64
1, 78007, Note_off_c, 0, 64, 64
1, 78015, Note_on_c, 2, 60, 115
1, 78017, Note_off_c, 0, 55, 64
1, 78027, Note_off_c, 0, 52, 64
1, 78112, Note_off_c, 2, 60, 64
1, 78157, Note_on_c, 0, 64, 105
1, 78157, Note_on_c, 6, 79, 75
1, 78157, Note_on_c, 6, 72, 96
1, 78157, Note_on_c, 7, 64, 106
1, 78160, Note_on_c, 9, 51, 98
1, 78162, Note_off_c, 9, 51, 64
1, 78162, Note_on_c, 0, 60, 97
1, 78162, Note_on_c, 0, 55, 85
1, 78167, Note_on_c, 2, 60, 127
1, 78202, Note_off_c, 7, 64, 64
1, 78207, Note_off_c, 11, 45, 64
1, 78222, Note_off_c, 6, 72, 64
1, 78222, Note_off_c, 6, 79, 64
1, 78235, Note_on_c, 0, 52, 28
1, 78240, Note_on_c, 11, 43, 96
1, 78240, Note_on_c, 9, 51, 83
1, 78240, Note_on_c, 9, 35, 79
1, 78242, Note_off_c, 9, 35, 64
1, 78242, Note_off_c, 9, 51, 64
1, 78267, Note_off_c, 2, 60, 64
1, 78395, Note_off_c, 0, 64, 64
1, 78397, Note_on_c, 0, 64, 105
1, 78400, Note_off_c, 0, 55, 64
1, 78400, Note_off_c, 0, 60, 64
1, 78400, Note_on_c, 9, 40, 97
1, 78402, Note_off_c, 9, 40, 64
1, 78402, Note_off_c, 0, 52, 64
1, 78402, Note_on_c, 0, 60, 101
1, 78402, Note_on_c, 0, 55, 92
1, 78405, Note_on_c, 0, 52, 55
1, 78447, Note_off_c, 11, 43, 64
1, 78472, Note_off_c, 0, 60, 64
1, 78480, Note_off_c, 0, 52, 64
1, 78480, Note_on_c, 11, 40, 81
1, 78480, Note_on_c, 9, 40, 99
1, 78482, Note_off_c, 9, 40, 64
1, 78492, Note_off_c, 0, 64, 64
1, 78495, Note_off_c, 0, 55, 64
1, 78637, Note_on_c, 3, 72, 84
1, 78687, Note_off_c, 11, 40, 64
1, 78692, Note_off_c, 3, 72, 64
1, 78717, Note_on_c, 0, 62, 100
1, 78717, Note_on_c, 0, 59, 86
1, 78717, Note_on_c, 3, 74, 112
1, 78720, Note_on_c, 11, 43, 106
1, 78720, Note_on_c, 2, 55, 117
1, 78720, Note_on_c, 9, 51, 87
1, 78720, Note_on_c, 9, 35, 108
1, 78722, Note_off_c, 9, 35, 64
1, 78722, Note_off_c, 9, 51, 64
1, 78722, Note_on_c, 0, 67, 100
1, 78875, Note_off_c, 0, 67, 64
1, 78877, Note_off_c, 2, 55, 64
1, 78877, Note_on_c, 0, 67, 101
1, 78877, Note_on_c, 6, 79, 74
1, 78877, Note_on_c, 6, 71, 91
1, 78877, Note_on_c, 7, 62, 105
1, 78880, Note_off_c, 0, 62, 64
1, 78882, Note_on_c, 0, 62, 99
1, 78887, Note_off_c, 3, 74, 64
1, 78927, Note_off_c, 11, 43, 64
1, 78930, Note_off_c, 7, 62, 64
1, 78942, Note_off_c, 6, 79, 64
1, 78942, Note_on_c, 2, 58, 109
1, 78947, Note_off_c, 6, 71, 64
1, 78950, Pitch_bend_c, 2, 7606
1, 78957, Note_off_c, 0, 59, 64
1, 78957, Note_on_c, 3, 74, 92
1, 78960, Note_on_c, 11, 47, 94
1, 78960, Note_on_c, 9, 51, 121
1, 78960, Note_on_c, 9, 40, 98
1, 78962, Note_off_c, 9, 40, 64
1, 78962, Note_off_c, 9, 51, 64
1, 78962, Note_on_c, 0, 59, 98
1, 78962, Pitch_bend_c, 2, 7255
1, 78970, Note_off_c, 0, 67, 64
1, 78985, Note_off_c, 0, 62, 64
1, 79000, Note_off_c, 0, 59, 64
1, 79000, Pitch_bend_c, 2, 7606
1, 79012, Pitch_bend_c, 2, 8192
1, 79080, Note_off_c, 3, 74, 64
1, 79117, Note_on_c, 0, 67, 100
1, 79120, Note_on_c, 9, 51, 98
1, 79122, Note_off_c, 9, 51, 64
1, 79122, Note_on_c, 0, 62, 97
1, 79122, Note_on_c, 0, 59, 73
1, 79122, Note_on_c, 3, 74, 106
1, 79152, Note_off_c, 2, 58, 64
1, 79167, Note_off_c, 11, 47, 64
1, 79180, Note_off_c, 3, 74, 64
1, 79197, Pitch_bend_c, 2, 3160
1, 79197, Note_on_c, 6, 79, 76
1, 79200, Note_on_c, 11, 50, 98
1, 79200, Note_on_c, 7, 62, 105
1, 79200, Note_on_c, 9, 51, 81
1, 79200, Note_on_c, 9, 35, 100
1, 79202, Note_off_c, 9, 35, 64
1, 79202, Note_off_c, 9, 51, 64
1, 79202, Note_on_c, 3, 74, 104
1, 79202, Note_on_c, 6, 71, 84
1, 79207, Note_on_c, 2, 58, 112
1, 79210, Pitch_bend_c, 2, 2458
1, 79222, Pitch_bend_c, 2, 2341
1, 79235, Pitch_bend_c, 2, 2575
1, 79247, Pitch_bend_c, 2, 3394
1, 79250, Note_off_c, 6, 71, 64
1, 79262, Note_off_c, 6, 79, 64
1, 79262, Pitch_bend_c, 2, 4330
1, 79272, Note_off_c, 7, 62, 64
1, 79275, Pitch_bend_c, 2, 5617
1, 79287, Pitch_bend_c, 2, 7021
1, 79300, Pitch_bend_c, 2, 8192
1, 79322, Note_off_c, 3, 74, 64
1, 79360, Note_off_c, 0, 59, 64
1, 79360, Note_off_c, 0, 62, 64
1, 79360, Note_off_c, 0, 67, 64
1, 79362, Note_on_c, 0, 67, 101
1, 79362, Note_on_c, 0, 62, 97
1, 79362, Note_on_c, 0, 59, 87
1, 79362, Note_on_c, 3, 74, 100
1, 79365, Note_on_c, 0, 55, 21
1, 79392, Note_off_c, 2, 58, 64
1, 79407, Note_off_c, 0, 59, 64
1, 79407, Note_off_c, 11, 50, 64
1, 79422, Note_off_c, 3, 74, 64
1, 79435, Pitch_bend_c, 2, 5383
1, 79437, Note_off_c, 0, 55, 64
1, 79440, Note_on_c, 11, 52, 108
1, 79440, Note_on_c, 2, 58, 104
1, 79440, Note_on_c, 3, 74, 80
1, 79440, Note_on_c, 9, 51, 94
1, 79440, Note_on_c, 9, 40, 104
1, 79442, Note_off_c, 9, 40, 64
1, 79442, Note_off_c, 9, 51, 64
1, 79447, Pitch_bend_c, 2, 4096
1, 79452, Note_off_c, 0, 62, 64
1, 79455, Note_off_c, 0, 67, 64
1, 79460, Pitch_bend_c, 2, 3160
1, 79472, Pitch_bend_c, 2, 2926
1, 79485, Pitch_bend_c, 2, 3160
1, 79497, Pitch_bend_c, 2, 3862
1, 79510, Pitch_bend_c, 2, 5032
1, 79522, Pitch_bend_c, 2, 6202
1, 79535, Pitch_bend_c, 2, 7255
1, 79547, Pitch_bend_c, 2, 8192
1, 79552, Note_off_c, 3, 74, 64
1, 79600, Note_on_c, 3, 74, 88
1, 79600, Note_on_c, 9, 51, 93
1, 79602, Note_off_c, 9, 51, 64
1, 79647, Note_off_c, 11, 52, 64
1, 79667, Note_off_c, 3, 74, 64
1, 79670, Note_off_c, 2, 58, 64
1, 79677, Note_on_c, 6, 79, 73
1, 79680, Note_on_c, 0, 57, 101
1, 79680, Note_on_c, 11, 41, 111
1, 79680, Note_on_c, 3, 75, 110
1, 79680, Note_on_c, 7, 63, 109
1, 79680, Note_on_c, 9, 51, 83
1, 79680, Note_on_c, 9, 35, 98
1, 79682, Note_off_c, 9, 35, 64
1, 79682, Note_off_c, 9, 51, 64
1, 79682, Note_on_c, 0, 60, 103
1, 79682, Note_on_c, 0, 65, 98
1, 79682, Note_on_c, 6, 72, 87
1, 79697, Note_on_c, 2, 60, 109
1, 79725, Note_off_c, 7, 63, 64
1, 79740, Note_off_c, 6, 72, 64
1, 79747, Note_off_c, 6, 79, 64
1, 79835, Note_off_c, 0, 65, 64
1, 79842, Note_off_c, 0, 60, 64
1, 79842, Note_on_c, 0, 65, 98
1, 79845, Note_on_c, 0, 60, 97
1, 79857, Note_off_c, 3, 75, 64
1, 79862, Note_off_c, 2, 60, 64
1, 79872, Note_off_c, 0, 57, 64
1, 79887, Note_off_c, 11, 41, 64
1, 79917, Note_on_c, 3, 74, 110
1, 79920, Note_on_c, 11, 45, 89
1, 79920, Pitch_bend_c, 2, 3628
1, 79920, Note_on_c, 9, 51, 113
1, 79920, Note_on_c, 9, 40, 102
1, 79922, Note_off_c, 9, 40, 64
1, 79922, Note_off_c, 9, 51, 64
1, 79922, Note_on_c, 0, 57, 81
1, 79922, Note_on_c, 2, 63, 104
1, 79930, Note_off_c, 0, 65, 64
1, 79930, Pitch_bend_c, 2, 2575
1, 79937, Note_off_c, 0, 60, 64
1, 79945, Pitch_bend_c, 2, 1873
1, 79957, Pitch_bend_c, 2, 1639
1, 79967, Note_off_c, 0, 57, 64
1, 79970, Pitch_bend_c, 2, 1873
1, 79982, Pitch_bend_c, 2, 2575
1, 79995, Pitch_bend_c, 2, 3628
1, 80007, Pitch_bend_c, 2, 5032
1, 80020, Pitch_bend_c, 2, 6319
1, 80032, Pitch_bend_c, 2, 7372
1, 80045, Pitch_bend_c, 2, 8074
1, 80057, Pitch_bend_c, 2, 8192
1, 80077, Note_on_c, 0, 65, 98
1, 80077, Note_on_c, 3, 72, 90
1, 80077, Note_on_c, 6, 79, 75
1, 80077, Note_on_c, 6, 72, 94
1, 80077, Note_on_c, 7, 63, 115
1, 80080, Note_off_c, 3, 74, 64
1, 80080, Note_on_c, 9, 51, 78
1, 80082, Note_off_c, 9, 51, 64
1, 80082, Note_on_c, 0, 60, 97
1, 80085, Note_on_c, 0, 57, 66
1, 80097, Note_off_c, 2, 63, 64
1, 80127, Note_off_c, 11, 45, 64
1, 80130, Note_off_c, 7, 63, 64
1, 80130, Note_off_c, 3, 72, 64
1, 80140, Note_off_c, 6, 72, 64
1, 80147, Note_off_c, 6, 79, 64
1, 80157, Pitch_bend_c, 2, 2107
1, 80157, Note_on_c, 2, 63, 106
1, 80157, Note_on_c, 3, 74, 108
1, 80160, Note_on_c, 11, 48, 100
1, 80160, Note_on_c, 9, 51, 87
1, 80160, Note_on_c, 9, 35, 98
1, 80162, Note_off_c, 9, 35, 64
1, 80162, Note_off_c, 9, 51, 64
1, 80180, Pitch_bend_c, 2, 2575
1, 80192, Pitch_bend_c, 2, 3394
1, 80205, Pitch_bend_c, 2, 4564
1, 80220, Pitch_bend_c, 2, 5968
1, 80232, Pitch_bend_c, 2, 7255
1, 80245, Pitch_bend_c, 2, 8192
1, 80320, Note_off_c, 0, 60, 64
1, 80320, Note_off_c, 0, 65, 64
1, 80320, Note_on_c, 9, 40, 85
1, 80322, Note_off_c, 9, 40, 64
1, 80322, Note_off_c, 0, 57, 64
1, 80322, Note_on_c, 0, 65, 84
1, 80322, Note_on_c, 0, 60, 91
1, 80325, Note_on_c, 0, 57, 67
1, 80332, Note_off_c, 2, 63, 64
1, 80367, Note_off_c, 11, 48, 64
1, 80372, Note_off_c, 0, 57, 64
1, 80392, Note_off_c, 0, 60, 64
1, 80392, Pitch_bend_c, 2, 235
1, 80397, Note_on_c, 3, 72, 99
1, 80400, Note_on_c, 11, 50, 96
1, 80400, Note_on_c, 2, 63, 109
1, 80400, Note_on_c, 9, 40, 93
1, 80402, Note_off_c, 9, 40, 64
1, 80407, Note_off_c, 3, 74, 64
1, 80417, Pitch_bend_c, 2, 703
1, 80420, Note_off_c, 0, 65, 64
1, 80430, Pitch_bend_c, 2, 1639
1, 80442, Pitch_bend_c, 2, 3160
1, 80455, Pitch_bend_c, 2, 5617
1, 80467, Pitch_bend_c, 2, 8192
1, 80530, Note_off_c, 3, 72, 64
1, 80557, Note_off_c, 2, 63, 64
1, 80560, Note_on_c, 3, 72, 99
1, 80607, Note_off_c, 11, 50, 64
1, 80637, Note_on_c, 0, 48, 16
1, 80640, Note_on_c, 0, 52, 61
1, 80640, Note_on_c, 11, 36, 96
1, 80640, Note_on_c, 9, 51, 95
1, 80640, Note_on_c, 9, 35, 119
1, 80642, Note_off_c, 9, 35, 64
1, 80642, Note_off_c, 9, 51, 64
1, 80642, Note_on_c, 0, 55, 74
1, 80642, Note_on_c, 0, 60, 101
1, 80645, Note_on_c, 0, 64, 88
1, 80675, Note_off_c, 3, 72, 64
1, 80762, Note_on_c, 6, 72, 70
1, 80762, Note_on_c, 7, 64, 84
1, 80775, Note_off_c, 0, 64, 64
1, 80782, Note_on_c, 2, 60, 109
1, 80795, Note_off_c, 7, 64, 64
1, 80797, Note_off_c, 0, 60, 64
1, 80802, Note_on_c, 0, 64, 87
1, 80802, Note_on_c, 0, 60, 76
1, 80835, Note_off_c, 6, 72, 64
1, 80847, Note_off_c, 11, 36, 64
1, 80860, Note_off_c, 2, 60, 64
1, 80877, Note_on_c, 7, 64, 90
1, 80880, Note_on_c, 11, 40, 85
1, 80880, Note_on_c, 6, 72, 69
1, 80880, Note_on_c, 9, 51, 110
1, 80880, Note_on_c, 9, 40, 106
1, 80882, Note_off_c, 9, 40, 64
1, 80882, Note_off_c, 9, 51, 64
1, 80882, Note_on_c, 2, 60, 111
1, 80885, Note_off_c, 0, 64, 64
1, 80897, Note_off_c, 0, 55, 64
1, 80897, Note_off_c, 0, 48, 64
1, 80902, Note_off_c, 0, 60, 64
1, 80907, Note_off_c, 0, 52, 64
1, 80927, Note_off_c, 7, 64, 64
1, 80955, Note_off_c, 6, 72, 64
1, 80962, Note_off_c, 2, 60, 64
1, 80997, Note_on_c, 7, 64, 98
1, 81000, Note_on_c, 6, 72, 73
1, 81002, Note_on_c, 2, 60, 109
1, 81037, Note_on_c, 0, 64, 99
1, 81040, Note_on_c, 9, 51, 64
1, 81042, Note_off_c, 9, 51, 64
1, 81042, Note_on_c, 0, 55, 70
1, 81042, Note_on_c, 0, 60, 91
1, 81055, Note_off_c, 7, 64, 64
1, 81075, Note_off_c, 6, 72, 64
1, 81087, Note_off_c, 11, 40, 64
1, 81095, Note_off_c, 2, 60, 64
1, 81115, Note_on_c, 0, 52, 16
1, 81117, Note_on_c, 6, 72, 70
1, 81117, Note_on_c, 7, 64, 96
1, 81120, Note_on_c, 11, 43, 104
1, 81120, Note_on_c, 2, 60, 111
1, 81120, Note_on_c, 9, 51, 78
1, 81120, Note_on_c, 9, 35, 80
1, 81122, Note_off_c, 9, 35, 64
1, 81122, Note_off_c, 9, 51, 64
1, 81182, Note_off_c, 7, 64, 64
1, 81185, Note_off_c, 6, 72, 64
1, 81200, Note_off_c, 2, 60, 64
1, 81237, Note_on_c, 6, 72, 78
1, 81237, Note_on_c, 7, 64, 97
1, 81252, Note_on_c, 2, 60, 115
1, 81260, Note_off_c, 0, 60, 64
1, 81275, Note_off_c, 0, 64, 64
1, 81277, Note_on_c, 0, 64, 97
1, 81282, Note_on_c, 0, 60, 87
1, 81297, Note_off_c, 7, 64, 64
1, 81315, Note_off_c, 6, 72, 64
1, 81327, Note_off_c, 11, 43, 64
1, 81330, Note_off_c, 2, 60, 64
1, 81332, Note_off_c, 0, 55, 64
1, 81357, Note_on_c, 6, 72, 73
1, 81357, Note_on_c, 7, 64, 97
1, 81360, Note_on_c, 11, 45, 92
1, 81360, Note_on_c, 9, 51, 121
1, 81360, Note_on_c, 9, 40, 100
1, 81362, Note_off_c, 9, 40, 64
1, 81362, Note_off_c, 9, 51, 64
1, 81362, Note_on_c, 2, 60, 103
1, 81365, Note_off_c, 0, 64, 64
1, 81380, Note_off_c, 0, 60, 64
1, 81407, Note_off_c, 0, 52, 64
1, 81417, Note_off_c, 7, 64, 64
1, 81435, Note_off_c, 6, 72, 64
1, 81445, Note_off_c, 2, 60, 64
1, 81477, Note_on_c, 6, 72, 82
1, 81477, Note_on_c, 7, 64, 109
1, 81487, Note_on_c, 2, 60, 117
1, 81515, Note_on_c, 0, 64, 72
1, 81520, Note_on_c, 9, 51, 89
1, 81522, Note_off_c, 9, 51, 64
1, 81530, Note_off_c, 7, 64, 64
1, 81547, Note_off_c, 6, 72, 64
1, 81567, Note_off_c, 11, 45, 64
1, 81580, Note_off_c, 2, 60, 64
1, 81597, Note_on_c, 0, 55, 80
1, 81597, Note_on_c, 6, 72, 85
1, 81597, Note_on_c, 7, 64, 108
1, 81600, Note_off_c, 0, 64, 64
1, 81600, Note_on_c, 11, 48, 88
1, 81600, Note_on_c, 9, 51, 78
1, 81600, Note_on_c, 9, 35, 104
1, 81602, Note_off_c, 9, 35, 64
1, 81602, Note_off_c, 9, 51, 64
1, 81602, Note_on_c, 0, 64, 72
1, 81602, Note_on_c, 0, 60, 99
1, 81602, Note_on_c, 2, 60, 113
1, 81647, Note_off_c, 7, 64, 64
1, 81670, Note_off_c, 6, 72, 64
1, 81685, Note_off_c, 2, 60, 64
1, 81717, Note_on_c, 6, 72, 85
1, 81717, Note_on_c, 7, 64, 120
1, 81730, Note_on_c, 2, 60, 117
1, 81740, Note_off_c, 0, 64, 64
1, 81757, Note_on_c, 0, 64, 81
1, 81772, Note_off_c, 7, 64, 64
1, 81790, Note_off_c, 6, 72, 64
1, 81807, Note_off_c, 11, 48, 64
1, 81812, Note_off_c, 0, 60, 64
1, 81817, Note_off_c, 2, 60, 64
1, 81837, Note_off_c, 0, 64, 64
1, 81837, Note_on_c, 7, 64, 113
1, 81840, Note_on_c, 11, 45, 94
1, 81840, Note_on_c, 6, 72, 92
1, 81840, Note_on_c, 9, 51, 121
1, 81840, Note_on_c, 9, 40, 98
1, 81842, Note_off_c, 9, 40, 64
1, 81842, Note_off_c, 9, 51, 64
1, 81845, Note_on_c, 2, 60, 113
1, 81872, Note_off_c, 0, 55, 64
1, 81890, Note_off_c, 7, 64, 64
1, 81910, Note_off_c, 6, 72, 64
1, 81915, Note_off_c, 2, 60, 64
1, 81957, Note_on_c, 7, 64, 127
1, 81962, Note_on_c, 2, 60, 117
1, 81962, Note_on_c, 6, 72, 96
1, 81995, Note_on_c, 0, 64, 103
1, 81997, Note_on_c, 0, 55, 91
1, 82000, Note_on_c, 9, 51, 87
1, 82002, Note_off_c, 9, 51, 64
1, 82002, Note_on_c, 0, 60, 104
1, 82002, Note_on_c, 0, 52, 41
1, 82012, Note_off_c, 7, 64, 64
1, 82032, Note_off_c, 6, 72, 64
1, 82047, Note_off_c, 11, 45, 64
1, 82050, Note_off_c, 2, 60, 64
1, 82060, Note_off_c, 0, 55, 64
1, 82072, Note_off_c, 0, 52, 64
1, 82072, Note_on_c, 2, 60, 115
1, 82075, Note_off_c, 0, 60, 64
1, 82077, Note_on_c, 7, 64, 118
1, 82080, Note_on_c, 11, 43, 106
1, 82080, Note_on_c, 6, 72, 96
1, 82080, Note_on_c, 9, 51, 85
1, 82080, Note_on_c, 9, 35, 96
1, 82082, Note_off_c, 9, 35, 64
1, 82082, Note_off_c, 9, 51, 64
1, 82095, Note_off_c, 0, 64, 64
1, 82137, Note_off_c, 7, 64, 64
1, 82147, Note_off_c, 2, 60, 64
1, 82152, Note_off_c, 6, 72, 64
1, 82197, Note_on_c, 7, 64, 116
1, 82200, Note_on_c, 2, 60, 122
1, 82202, Note_on_c, 6, 72, 98
1, 82237, Note_on_c, 0, 64, 103
1, 82240, Note_on_c, 9, 40, 102
1, 82242, Note_off_c, 9, 40, 64
1, 82242, Note_on_c, 0, 60, 99
1, 82242, Note_on_c, 0, 55, 71
1, 82260, Note_off_c, 7, 64, 64
1, 82270, Note_off_c, 6, 72, 64
1, 82287, Note_off_c, 11, 43, 64
1, 82295, Note_off_c, 0, 55, 64
1, 82307, Note_off_c, 2, 60, 64
1, 82312, Note_off_c, 0, 60, 64
1, 82315, Note_on_c, 0, 52, 16
1, 82315, Note_on_c, 2, 60, 115
1, 82317, Note_off_c, 0, 64, 64
1, 82317, Note_on_c, 0, 55, 99
1, 82317, Note_on_c, 7, 64, 110
1, 82320, Note_on_c, 0, 60, 104
1, 82320, Note_on_c, 0, 64, 106
1, 82320, Note_on_c, 11, 40, 102
1, 82320, Note_on_c, 6, 72, 104
1, 82320, Note_on_c, 9, 40, 111
1, 82322, Note_off_c, 9, 40, 64
1, 82377, Note_off_c, 7, 64, 64
1, 82387, Note_off_c, 2, 60, 64
1, 82395, Note_off_c, 6, 72, 64
1, 82437, Note_on_c, 7, 64, 127
1, 82442, Note_on_c, 6, 72, 102
1, 82445, Note_on_c, 2, 60, 127
1, 82462, Note_off_c, 0, 60, 64
1, 82467, Note_off_c, 0, 55, 64
1, 82470, Note_off_c, 0, 64, 64
1, 82477, Note_on_c, 3, 72, 87
1, 82480, Note_off_c, 7, 64, 64
1, 82487, Note_off_c, 0, 52, 64
1, 82492, Note_off_c, 2, 60, 64
1, 82517, Note_off_c, 6, 72, 64
1, 82527, Note_off_c, 11, 40, 64
1, 82530, Note_off_c, 3, 72, 64
1, 82557, Note_on_c, 3, 74, 110
1, 82560, Note_on_c, 11, 43, 104
1, 82560, Note_on_c, 9, 51, 103
1, 82560, Note_on_c, 9, 35, 121
1, 82562, Note_off_c, 9, 35, 64
1, 82562, Note_off_c, 9, 51, 64
1, 82562, Note_on_c, 0, 59, 100
1, 82562, Note_on_c, 0, 62, 100
1, 82562, Note_on_c, 0, 67, 100
1, 82570, Note_on_c, 2, 67, 117
1, 82715, Note_off_c, 0, 67, 64
1, 82715, Note_off_c, 0, 62, 64
1, 82715, Note_off_c, 0, 59, 64
1, 82717, Note_on_c, 0, 67, 101
1, 82722, Note_on_c, 0, 62, 99
1, 82735, Note_off_c, 3, 74, 64
1, 82767, Note_off_c, 11, 43, 64
1, 82785, Note_on_c, 2, 70, 96
1, 82795, Note_on_c, 3, 74, 97
1, 82800, Note_on_c, 11, 47, 74
1, 82800, Note_on_c, 9, 51, 117
1, 82800, Note_on_c, 9, 40, 121
1, 82802, Note_off_c, 9, 40, 64
1, 82802, Note_off_c, 9, 51, 64
1, 82802, Note_on_c, 0, 59, 98
1, 82810, Note_off_c, 0, 67, 64
1, 82822, Note_off_c, 2, 67, 64
1, 82825, Note_off_c, 0, 62, 64
1, 82840, Note_off_c, 0, 59, 64
1, 82922, Note_off_c, 3, 74, 64
1, 82955, Note_on_c, 2, 69, 79
1, 82957, Note_on_c, 0, 67, 100
1, 82957, Note_on_c, 3, 74, 98
1, 82960, Note_on_c, 9, 51, 93
1, 82962, Note_off_c, 9, 51, 64
1, 82962, Note_on_c, 0, 62, 97
1, 82962, Note_on_c, 0, 59, 73
1, 82975, Note_off_c, 2, 70, 64
1, 83007, Note_off_c, 3, 74, 64
1, 83007, Note_off_c, 11, 47, 64
1, 83037, Note_on_c, 3, 74, 100
1, 83040, Note_on_c, 11, 50, 98
1, 83040, Note_on_c, 9, 51, 98
1, 83040, Note_on_c, 9, 35, 119
1, 83042, Note_off_c, 9, 35, 64
1, 83042, Note_off_c, 9, 51, 64
1, 83062, Note_on_c, 2, 70, 86
1, 83082, Note_off_c, 2, 69, 64
1, 83172, Note_off_c, 3, 74, 64
1, 83200, Note_off_c, 0, 59, 64
1, 83200, Note_off_c, 0, 62, 64
1, 83200, Note_off_c, 0, 67, 64
1, 83202, Note_on_c, 0, 67, 101
1, 83202, Note_on_c, 0, 62, 97
1, 83202, Note_on_c, 0, 59, 87
1, 83202, Note_on_c, 3, 74, 104
1, 83205, Note_on_c, 0, 55, 21
1, 83227, Note_on_c, 2, 69, 86
1, 83235, Note_off_c, 2, 70, 64
1, 83247, Note_off_c, 0, 59, 64
1, 83247, Note_off_c, 11, 50, 64
1, 83260, Note_off_c, 3, 74, 64
1, 83277, Note_off_c, 0, 55, 64
1, 83280, Note_on_c, 11, 52, 106
1, 83280, Note_on_c, 9, 51, 104
1, 83280, Note_on_c, 9, 40, 121
1, 83282, Note_off_c, 9, 40, 64
1, 83282, Note_off_c, 9, 51, 64
1, 83282, Note_on_c, 3, 74, 98
1, 83292, Note_off_c, 0, 62, 64
1, 83295, Note_off_c, 0, 67, 64
1, 83302, Note_on_c, 2, 70, 89
1, 83322, Note_off_c, 2, 69, 64
1, 83402, Note_off_c, 3, 74, 64
1, 83407, Note_on_c, 2, 69, 95
1, 83440, Note_off_c, 2, 70, 64
1, 83440, Note_on_c, 9, 51, 72
1, 83442, Note_off_c, 9, 51, 64
1, 83442, Note_on_c, 3, 74, 97
1, 83487, Note_off_c, 11, 52, 64
1, 83505, Note_off_c, 3, 74, 64
1, 83505, Note_off_c, 2, 69, 64
1, 83520, Note_on_c, 0, 57, 101
1, 83520, Note_on_c, 11, 41, 108
1, 83520, Note_on_c, 9, 51, 101
1, 83520, Note_on_c, 9, 35, 121
1, 83522, Note_off_c, 9, 35, 64
1, 83522, Note_off_c, 9, 51, 64
1, 83522, Note_on_c, 0, 60, 103
1, 83522, Note_on_c, 0, 65, 98
1, 83522, Note_on_c, 3, 75, 110
1, 83535, Note_on_c, 2, 60, 127
1, 83675, Note_off_c, 0, 65, 64
1, 83682, Note_off_c, 0, 60, 64
1, 83682, Note_on_c, 0, 65, 98
1, 83685, Note_on_c, 0, 60, 97
1, 83712, Note_off_c, 0, 57, 64
1, 83745, Note_on_c, 2, 63, 104
1, 83760, Note_on_c, 9, 51, 121
1, 83760, Note_on_c, 9, 40, 106
1, 83762, Note_off_c, 9, 40, 64
1, 83762, Note_off_c, 9, 51, 64
1, 83762, Note_on_c, 0, 57, 81
1, 83770, Note_off_c, 0, 65, 64
1, 83777, Note_off_c, 0, 60, 64
1, 83790, Note_off_c, 2, 60, 64
1, 83807, Note_off_c, 0, 57, 64
1, 83817, Note_off_c, 11, 41, 64
1, 83915, Note_on_c, 2, 62, 92
1, 83917, Note_on_c, 0, 65, 98
1, 83920, Note_off_c, 2, 63, 64
1, 83920, Note_on_c, 9, 51, 78
1, 83922, Note_off_c, 9, 51, 64
1, 83922, Note_on_c, 0, 60, 97
1, 83925, Note_on_c, 0, 57, 66
1, 83980, Note_off_c, 3, 75, 64
1, 83997, Note_on_c, 3, 72, 85
1, 84000, Note_on_c, 11, 41, 94
1, 84000, Note_on_c, 2, 63, 82
1, 84000, Note_on_c, 9, 51, 99
1, 84000, Note_on_c, 9, 35, 106
1, 84002, Note_off_c, 9, 35, 64
1, 84002, Note_off_c, 9, 51, 64
1, 84030, Note_off_c, 2, 62, 64
1, 84147, Note_off_c, 3, 72, 64
1, 84152, Note_on_c, 2, 62, 92
1, 84157, Note_on_c, 3, 72, 84
1, 84160, Note_off_c, 2, 63, 64
1, 84160, Note_off_c, 0, 60, 64
1, 84160, Note_off_c, 0, 65, 64
1, 84162, Note_off_c, 0, 57, 64
1, 84162, Note_on_c, 0, 65, 84
1, 84162, Note_on_c, 0, 60, 91
1, 84165, Note_on_c, 0, 57, 67
1, 84212, Note_off_c, 0, 57, 64
1, 84232, Note_off_c, 0, 60, 64
1, 84240, Note_on_c, 9, 51, 121
1, 84240, Note_on_c, 9, 40, 104
1, 84242, Note_off_c, 9, 40, 64
1, 84242, Note_off_c, 9, 51, 64
1, 84247, Note_on_c, 2, 63, 92
1, 84260, Note_off_c, 0, 65, 64
1, 84275, Note_off_c, 2, 62, 64
1, 84285, Note_off_c, 3, 72, 64
1, 84357, Note_off_c, 11, 41, 64
1, 84385, Note_off_c, 2, 63, 64
1, 84385, Note_on_c, 2, 62, 95
1, 84400, Note_on_c, 9, 51, 78
1, 84402, Note_off_c, 9, 51, 64
1, 84442, Note_off_c, 2, 62, 64
1, 84477, Note_on_c, 3, 75, 119
1, 84480, Note_on_c, 11, 43, 96
1, 84480, Note_on_c, 2, 67, 115
1, 84480, Note_on_c, 9, 51, 102
1, 84480, Note_on_c, 9, 35, 121
1, 84482, Note_off_c, 9, 35, 64
1, 84482, Note_off_c, 9, 51, 64
1, 84482, Note_on_c, 0, 59, 100
1, 84482, Note_on_c, 0, 62, 100
1, 84482, Note_on_c, 0, 67, 100
1, 84635, Note_off_c, 0, 67, 64
1, 84635, Note_off_c, 0, 62, 64
1, 84635, Note_off_c, 0, 59, 64
1, 84637, Note_on_c, 0, 67, 101
1, 84642, Note_on_c, 0, 62, 99
1, 84690, Note_on_c, 2, 70, 100
1, 84702, Note_off_c, 2, 67, 64
1, 84720, Note_on_c, 9, 51, 110
1, 84720, Note_on_c, 9, 40, 121
1, 84722, Note_off_c, 9, 40, 64
1, 84722, Note_off_c, 9, 51, 64
1, 84722, Note_on_c, 0, 59, 98
1, 84730, Note_off_c, 0, 67, 64
1, 84745, Note_off_c, 0, 62, 64
1, 84760, Note_off_c, 0, 59, 64
1, 84852, Note_on_c, 2, 69, 80
1, 84877, Note_on_c, 0, 67, 100
1, 84880, Note_on_c, 9, 51, 88
1, 84882, Note_off_c, 9, 51, 64
1, 84882, Note_on_c, 0, 62, 97
1, 84882, Note_on_c, 0, 59, 73
1, 84885, Note_off_c, 2, 70, 64
1, 84895, Note_off_c, 3, 75, 64
1, 84927, Note_off_c, 11, 43, 64
1, 84952, Note_on_c, 2, 67, 100
1, 84957, Note_on_c, 3, 75, 119
1, 84960, Note_on_c, 11, 45, 104
1, 84960, Note_on_c, 9, 51, 94
1, 84960, Note_on_c, 9, 35, 121
1, 84962, Note_off_c, 9, 35, 64
1, 84962, Note_off_c, 9, 51, 64
1, 84967, Note_off_c, 2, 69, 64
1, 85120, Note_off_c, 0, 59, 64
1, 85120, Note_off_c, 0, 62, 64
1, 85120, Note_off_c, 0, 67, 64
1, 85120, Note_on_c, 2, 69, 107
1, 85120, Note_on_c, 9, 40, 98
1, 85122, Note_off_c, 9, 40, 64
1, 85122, Note_on_c, 0, 67, 101
1, 85122, Note_on_c, 0, 62, 97
1, 85122, Note_on_c, 0, 59, 87
1, 85125, Note_on_c, 0, 55, 21
1, 85140, Note_off_c, 2, 67, 64
1, 85167, Note_off_c, 0, 59, 64
1, 85197, Note_off_c, 0, 55, 64
1, 85200, Note_on_c, 9, 40, 116
1, 85202, Note_off_c, 9, 40, 64
1, 85212, Note_off_c, 0, 62, 64
1, 85215, Note_off_c, 0, 67, 64
1, 85220, Note_on_c, 2, 70, 90
1, 85270, Note_off_c, 2, 69, 64
1, 85367, Note_on_c, 2, 71, 111
1, 85380, Note_off_c, 2, 70, 64
1, 85407, Note_off_c, 11, 45, 64
1, 85427, Note_off_c, 2, 71, 64
1, 85435, Note_off_c, 3, 75, 64
1, 85440, Note_on_c, 11, 48, 102
1, 85440, Note_on_c, 3, 76, 114
1, 85440, Note_on_c, 9, 51, 121
1, 85440, Note_on_c, 9, 35, 121
1, 85442, Note_off_c, 9, 35, 64
1, 85442, Note_off_c, 9, 51, 64
1, 85442, Note_on_c, 7, 48, 126
1, 85452, Note_on_c, 2, 72, 119
1, 85455, Note_on_c, 0, 60, 105
1, 85587, Note_off_c, 2, 72, 64
1, 85597, Note_on_c, 6, 72, 117
1, 85622, Note_on_c, 2, 72, 93
1, 85677, Note_off_c, 2, 72, 64
1, 85680, Note_on_c, 9, 51, 121
1, 85680, Note_on_c, 9, 41, 85
1, 85680, Note_on_c, 9, 40, 121
1, 85682, Note_off_c, 9, 40, 64
1, 85682, Note_off_c, 9, 41, 64
1, 85682, Note_off_c, 9, 51, 64
1, 85700, Note_on_c, 2, 72, 122
1, 85705, Note_off_c, 6, 72, 64
1, 85830, Note_off_c, 0, 60, 64
1, 85850, Note_on_c, 0, 60, 83
1, 85887, Note_off_c, 11, 48, 64
1, 85892, Note_off_c, 2, 72, 64
1, 85917, Note_off_c, 0, 60, 64
1, 85917, Note_on_c, 6, 72, 117
1, 85917, Note_on_c, 7, 46, 127
1, 85920, Note_off_c, 7, 48, 64
1, 85920, Note_on_c, 11, 46, 110
1, 85920, Note_on_c, 9, 51, 110
1, 85920, Note_on_c, 9, 35, 121
1, 85922, Note_off_c, 9, 35, 64
1, 85922, Note_off_c, 9, 51, 64
1, 85950, Note_on_c, 0, 58, 106
1, 85955, Note_on_c, 2, 70, 112
1, 86027, Note_off_c, 6, 72, 64
1, 86082, Note_off_c, 2, 70, 64
1, 86102, Note_on_c, 2, 70, 92
1, 86150, Note_off_c, 2, 70, 64
1, 86160, Note_on_c, 9, 51, 121
1, 86160, Note_on_c, 9, 41, 89
1, 86160, Note_on_c, 9, 40, 121
1, 86162, Note_off_c, 9, 40, 64
1, 86162, Note_off_c, 9, 41, 64
1, 86162, Note_off_c, 9, 51, 64
1, 86162, Note_on_c, 2, 70, 104
1, 86330, Note_off_c, 0, 58, 64
1, 86337, Note_off_c, 2, 70, 64
1, 86345, Note_off_c, 7, 46, 64
1, 86345, Note_on_c, 0, 58, 87
1, 86367, Note_off_c, 11, 46, 64
1, 86397, Note_on_c, 6, 72, 117
1, 86397, Note_on_c, 7, 45, 127
1, 86400, Note_on_c, 11, 45, 114
1, 86400, Note_on_c, 2, 69, 96
1, 86400, Note_on_c, 9, 51, 121
1, 86400, Note_on_c, 9, 35, 121
1, 86402, Note_off_c, 9, 35, 64
1, 86402, Note_off_c, 9, 51, 64
1, 86410, Note_off_c, 0, 58, 64
1, 86412, Note_on_c, 0, 57, 80
1, 86415, Note_off_c, 0, 57, 64
1, 86440, Note_on_c, 0, 57, 109
1, 86525, Note_off_c, 6, 72, 64
1, 86542, Note_off_c, 2, 69, 64
1, 86557, Note_on_c, 6, 67, 63
1, 86567, Note_on_c, 2, 69, 99
1, 86587, Control_c, 3, 11, 124
1, 86600, Control_c, 3, 11, 120
1, 86610, Control_c, 3, 11, 117
1, 86620, Control_c, 3, 11, 114
1, 86625, Note_off_c, 2, 69, 64
1, 86627, Note_off_c, 6, 67, 64
1, 86630, Control_c, 3, 11, 112
1, 86637, Note_on_c, 6, 69, 88
1, 86640, Note_on_c, 2, 69, 115
1, 86640, Control_c, 3, 11, 109
1, 86640, Note_on_c, 9, 51, 121
1, 86640, Note_on_c, 9, 40, 121
1, 86640, Note_on_c, 9, 41, 94
1, 86642, Note_off_c, 9, 41, 64
1, 86642, Note_off_c, 9, 40, 64
1, 86642, Note_off_c, 9, 51, 64
1, 86652, Control_c, 3, 11, 107
1, 86662, Control_c, 3, 11, 105
1, 86672, Control_c, 3, 11, 104
1, 86682, Control_c, 3, 11, 102
1, 86692, Control_c, 3, 11, 100
1, 86705, Control_c, 3, 11, 99
1, 86727, Control_c, 3, 11, 96
1, 86747, Control_c, 3, 11, 94
1, 86757, Control_c, 3, 11, 92
1, 86767, Control_c, 3, 11, 91
1, 86772, Note_off_c, 6, 69, 64
1, 86777, Control_c, 3, 11, 89
1, 86780, Note_off_c, 0, 57, 64
1, 86790, Control_c, 3, 11, 88
1, 86797, Note_on_c, 0, 57, 83
1, 86797, Note_on_c, 6, 72, 104
1, 86810, Control_c, 3, 11, 85
1, 86820, Control_c, 3, 11, 84
1, 86825, Note_off_c, 0, 57, 64
1, 86840, Note_off_c, 2, 69, 64
1, 86840, Control_c, 3, 11, 81
1, 86847, Note_off_c, 11, 45, 64
1, 86862, Control_c, 3, 11, 79
1, 86875, Note_off_c, 7, 45, 64
1, 86875, Control_c, 3, 11, 77
1, 86880, Note_on_c, 11, 44, 101
1, 86880, Control_c, 3, 11, 76
1, 86880, Note_on_c, 7, 44, 127
1, 86880, Note_on_c, 9, 51, 121
1, 86880, Note_on_c, 9, 35, 121
1, 86882, Note_off_c, 9, 35, 64
1, 86882, Note_off_c, 9, 51, 64
1, 86882, Note_on_c, 0, 56, 105
1, 86890, Note_on_c, 2, 68, 112
1, 86895, Control_c, 3, 11, 74
1, 86897, Note_off_c, 6, 72, 64
1, 86905, Control_c, 3, 11, 73
1, 86917, Control_c, 3, 11, 71
1, 86927, Control_c, 3, 11, 69
1, 86937, Control_c, 3, 11, 67
1, 86947, Control_c, 3, 11, 66
1, 86960, Control_c, 3, 11, 64
1, 86970, Control_c, 3, 11, 62
1, 86980, Control_c, 3, 11, 60
1, 86990, Control_c, 3, 11, 58
1, 87002, Control_c, 3, 11, 55
1, 87010, Control_c, 3, 11, 53
1, 87022, Control_c, 3, 11, 50
1, 87032, Note_off_c, 2, 68, 64
1, 87032, Control_c, 3, 11, 47
1, 87037, Note_on_c, 6, 72, 117
1, 87042, Control_c, 3, 11, 44
1, 87045, Note_on_c, 2, 68, 73
1, 87052, Control_c, 3, 11, 41
1, 87065, Control_c, 3, 11, 37
1, 87075, Control_c, 3, 11, 34
1, 87085, Control_c, 3, 11, 30
1, 87095, Note_off_c, 2, 68, 64
1, 87095, Control_c, 3, 11, 25
1, 87105, Control_c, 3, 11, 20
1, 87117, Note_on_c, 2, 68, 115
1, 87117, Control_c, 3, 11, 14
1, 87120, Note_on_c, 9, 51, 121
1, 87120, Note_on_c, 9, 40, 121
1, 87120, Note_on_c, 9, 41, 108
1, 87122, Note_off_c, 9, 41, 64
1, 87122, Note_off_c, 9, 40, 64
1, 87122, Note_off_c, 9, 51, 64
1, 87122, Control_c, 3, 11, 9
1, 87137, Control_c, 3, 11, 3
1, 87147, Control_c, 3, 11, 0
1, 87165, Note_off_c, 6, 72, 64
1, 87235, Note_off_c, 3, 76, 64
1, 87272, Note_off_c, 0, 56, 64
1, 87287, Note_off_c, 7, 44, 64
1, 87297, Note_off_c, 11, 44, 64
1, 87297, Note_on_c, 0, 56, 83
1, 87297, Control_c, 3, 11, 1
1, 87305, Note_off_c, 2, 68, 64
1, 87307, Control_c, 3, 11, 4
1, 87317, Control_c, 3, 11, 9
1, 87327, Control_c, 3, 11, 15
1, 87337, Control_c, 3, 11, 21
1, 87342, Note_on_c, 2, 67, 107
1, 87350, Control_c, 3, 11, 27
1, 87357, Control_c, 3, 11, 33
1, 87357, Note_on_c, 6, 79, 115
1, 87357, Note_on_c, 7, 43, 127
1, 87360, Note_off_c, 0, 56, 64
1, 87360, Note_on_c, 11, 43, 89
1, 87360, Note_on_c, 9, 51, 121
1, 87360, Note_on_c, 9, 35, 121
1, 87362, Note_off_c, 9, 35, 64
1, 87362, Note_off_c, 9, 51, 64
1, 87370, Control_c, 3, 11, 40
1, 87380, Control_c, 3, 11, 48
1, 87385, Note_on_c, 0, 55, 105
1, 87390, Control_c, 3, 11, 57
1, 87400, Control_c, 3, 11, 66
1, 87412, Control_c, 3, 11, 77
1, 87422, Control_c, 3, 11, 93
1, 87432, Control_c, 3, 11, 115
1, 87445, Control_c, 3, 11, 127
1, 87495, Note_off_c, 6, 79, 64
1, 87502, Note_off_c, 2, 67, 64
1, 87517, Note_on_c, 6, 75, 74
1, 87520, Note_on_c, 9, 40, 121
1, 87522, Note_off_c, 9, 40, 64
1, 87565, Note_off_c, 0, 55, 64
1, 87597, Note_off_c, 11, 43, 64
1, 87597, Note_on_c, 6, 76, 96
1, 87600, Note_on_c, 9, 40, 114
1, 87602, Note_off_c, 9, 40, 64
1, 87602, Note_off_c, 6, 75, 64
1, 87745, Note_off_c, 7, 43, 64
1, 87750, Note_off_c, 6, 76, 64
1, 87757, Note_on_c, 6, 72, 117
1, 87837, Note_on_c, 7, 43, 127
1, 87840, Note_off_c, 6, 72, 64
1, 87840, Note_on_c, 9, 51, 121
1, 87840, Note_on_c, 9, 35, 121
1, 87842, Note_off_c, 9, 35, 64
1, 87842, Note_off_c, 9, 51, 64
1, 87997, Note_on_c, 6, 72, 117
1, 88000, Note_on_c, 9, 51, 113
1, 88002, Note_off_c, 9, 51, 64
1, 88080, Note_on_c, 9, 51, 117
1, 88080, Note_on_c, 9, 40, 108
1, 88080, Note_on_c, 9, 41, 116
1, 88082, Note_off_c, 9, 41, 64
1, 88082, Note_off_c, 9, 40, 64
1, 88082, Note_off_c, 9, 51, 64
1, 88102, Note_off_c, 6, 72, 64
1, 88122, Note_off_c, 7, 43, 64
1, 88317, Note_on_c, 6, 72, 117
1, 88320, Note_on_c, 9, 51, 121
1, 88320, Note_on_c, 9, 35, 121
1, 88322, Note_off_c, 9, 35, 64
1, 88322, Note_off_c, 9, 51, 64
1, 88432, Note_off_c, 6, 72, 64
1, 88477, Note_on_c, 6, 67, 69
1, 88477, Note_on_c, 7, 43, 127
1, 88480, Note_on_c, 11, 43, 108
1, 88480, Note_on_c, 9, 40, 121
1, 88482, Note_off_c, 9, 40, 64
1, 88492, Note_on_c, 2, 67, 115
1, 88535, Note_off_c, 11, 43, 64
1, 88550, Note_off_c, 6, 67, 64
1, 88557, Note_on_c, 6, 69, 102
1, 88557, Note_on_c, 7, 45, 127
1, 88560, Note_on_c, 11, 45, 96
1, 88560, Note_on_c, 9, 40, 121
1, 88562, Note_off_c, 9, 40, 64
1, 88585, Note_on_c, 2, 69, 96
1, 88597, Note_off_c, 2, 67, 64
1, 88600, Note_off_c, 7, 43, 64
1, 88667, Note_off_c, 6, 69, 64
1, 88695, Note_off_c, 11, 45, 64
1, 88710, Note_on_c, 9, 35, 121
1, 88712, Note_off_c, 9, 35, 64
1, 88712, Note_off_c, 7, 45, 64
1, 88717, Note_on_c, 6, 72, 117
1, 88720, Note_on_c, 11, 48, 111
1, 88720, Note_on_c, 7, 48, 127
1, 88725, Note_on_c, 2, 72, 117
1, 88737, Note_off_c, 2, 69, 64
1, 88760, Note_on_c, 0, 64, 96
1, 88760, Note_on_c, 0, 72, 87
1, 88770, Note_on_c, 0, 67, 92
1, 88815, Note_off_c, 2, 72, 64
1, 88880, Note_off_c, 6, 72, 64
1, 88890, Note_off_c, 7, 48, 64
1, 88895, Control_c, 7, 101, 0
1, 88900, Control_c, 7, 100, 0
1, 88905, Control_c, 7, 6, 2
1, 88905, Control_c, 7, 101, 127
1, 88905, Control_c, 7, 100, 127
1, 88915, Note_off_c, 0, 72, 64
1, 88927, Note_off_c, 11, 48, 64
1, 88932, Note_off_c, 0, 67, 64
1, 88945, Note_off_c, 0, 64, 64
1, 88945, End_track
0, 0, End_of_file
