0, 0, Header, 1, 23, 960
1, 0, Start_track
1, 0, Sequencer_specific, 11, 5, 15, 18, 3, 3, 127, 127, 0, 255, 1, 5
1, 0, Sequencer_specific, 15, 5, 15, 28, 50, 48, 49, 50, 46, 49, 48, 46, 48, 56, 1, 3
1, 0, Sequencer_specific, 42, 5, 15, 45, 77, 105, 99, 114, 111, 115, 111, 102, 116, 32, 83, 97, 110, 115, 32, 83, 101, 114, 105, 102, 44, 56, 46, 50, 53, 44, 70, 97, 108, 115, 101, 44, 70, 97, 108, 115, 101, 44, 49
1, 0, Time_signature, 4, 2, 24, 8
1, 0, Key_signature, -2, "major"
1, 0, Tempo, 638298
1, 0, End_track
2, 0, Start_track
2, 0, Title_t, "Soft karaoke"
2, 0, Text_t, "@KMIDI KARAOKE FILE"
2, 0, Text_t, "@IGenerated with Karakan version 6.2"
2, 0, End_track
3, 0, Start_track
3, 0, Title_t, "Words"
3, 0, Text_t, "@LENGL"
3, 0, Text_t, "@TOtis Redding - Hard to Handle 1968"
3, 0, Text_t, "@TKAR by Estrada 4th November 2012"
3, 15360, Text_t, "\\B"
3, 15840, Text_t, "a"
3, 16320, Text_t, "b"
3, 16800, Text_t, "y.."
3, 17280, Text_t, " Here"
3, 17520, Text_t, " I"
3, 18000, Text_t, " am"
3, 18960, Text_t, "/I'm"
3, 19200, Text_t, " a"
3, 19440, Text_t, " m"
3, 19680, Text_t, "a"
3, 19920, Text_t, "n"
3, 20160, Text_t, " on"
3, 20640, Text_t, " the"
3, 20880, Text_t, " sc"
3, 21120, Text_t, "e"
3, 21360, Text_t, "n"
3, 21600, Text_t, "e"
3, 23040, Text_t, "/I"
3, 23520, Text_t, " can"
3, 24000, Text_t, " give"
3, 24480, Text_t, " you"
3, 24960, Text_t, " what"
3, 25440, Text_t, " you"
3, 25680, Text_t, " wa"
3, 25920, Text_t, "nt"
3, 26160, Text_t, "/But"
3, 26400, Text_t, " you"
3, 26640, Text_t, " go"
3, 26880, Text_t, "t"
3, 27120, Text_t, " to"
3, 27360, Text_t, " go"
3, 27840, Text_t, " home"
3, 28320, Text_t, " with"
3, 28560, Text_t, " m"
3, 28800, Text_t, "~"
3, 29040, Text_t, "e"
3, 30720, Text_t, "/I've"
3, 31200, Text_t, " a"
3, 31440, Text_t, " go"
3, 31680, Text_t, "t"
3, 31920, Text_t, " some"
3, 32400, Text_t, " goo"
3, 32640, Text_t, "d"
3, 32880, Text_t, " old"
3, 33360, Text_t, " lo"
3, 33600, Text_t, "v"
3, 33840, Text_t, "in'"
3, 34080, Text_t, "/And"
3, 34320, Text_t, " I"
3, 34560, Text_t, " got"
3, 35280, Text_t, " some"
3, 35520, Text_t, " in"
3, 36000, Text_t, " sto"
3, 36240, Text_t, "r"
3, 36480, Text_t, "e"
3, 38400, Text_t, "/When"
3, 38640, Text_t, " I"
3, 39120, Text_t, " ge"
3, 39360, Text_t, "t"
3, 39600, Text_t, " through"
3, 40080, Text_t, " thro"
3, 40320, Text_t, "w"
3, 40560, Text_t, "in'"
3, 40800, Text_t, " it"
3, 41040, Text_t, " o"
3, 41280, Text_t, "n"
3, 41520, Text_t, " you"
3, 41760, Text_t, "/You"
3, 42000, Text_t, " go"
3, 42240, Text_t, "t"
3, 42480, Text_t, " to"
3, 42720, Text_t, " come"
3, 43200, Text_t, " back"
3, 43680, Text_t, " for"
3, 43920, Text_t, " mo"
3, 44160, Text_t, "r"
3, 44400, Text_t, "e"
3, 46080, Text_t, "\\Boys"
3, 46560, Text_t, " and"
3, 47040, Text_t, " things"
3, 47520, Text_t, " will"
3, 47760, Text_t, " co"
3, 48000, Text_t, "me"
3, 48240, Text_t, " by"
3, 48720, Text_t, " the"
3, 48960, Text_t, " doz"
3, 49200, Text_t, "en"
3, 49680, Text_t, "/But"
3, 49920, Text_t, " that"
3, 50160, Text_t, " ain't"
3, 50640, Text_t, " no"
3, 50880, Text_t, "th"
3, 51120, Text_t, "in'"
3, 51360, Text_t, " but"
3, 51840, Text_t, " drug"
3, 52320, Text_t, " store"
3, 52800, Text_t, " lov"
3, 53040, Text_t, "in'"
3, 53760, Text_t, "/Pret"
3, 54000, Text_t, "ty"
3, 54240, Text_t, " lit"
3, 54480, Text_t, "tle"
3, 54720, Text_t, " thing,"
3, 55200, Text_t, " let"
3, 55440, Text_t, " me"
3, 55680, Text_t, " light"
3, 56160, Text_t, " your"
3, 56400, Text_t, " can"
3, 56640, Text_t, "dle"
3, 56880, Text_t, "/'Cause"
3, 57360, Text_t, " Ma"
3, 57600, Text_t, "ma"
3, 57840, Text_t, " I'm"
3, 58320, Text_t, " su"
3, 58560, Text_t, "re"
3, 58800, Text_t, " hard"
3, 59280, Text_t, " to"
3, 59520, Text_t, " han"
3, 59760, Text_t, "dle,"
3, 60000, Text_t, " now,"
3, 60480, Text_t, "/Yes"
3, 60720, Text_t, " a"
3, 60960, Text_t, "round..."
3, 69120, Text_t, "\\Ac"
3, 69600, Text_t, "tion"
3, 70080, Text_t, " spe"
3, 70560, Text_t, "aks"
3, 71040, Text_t, " loud"
3, 71280, Text_t, "er"
3, 71760, Text_t, " than"
3, 72000, Text_t, " wo"
3, 72240, Text_t, "rd"
3, 72480, Text_t, "s"
3, 72720, Text_t, "/And I'm"
3, 72960, Text_t, " a"
3, 73200, Text_t, " ma"
3, 73440, Text_t, "n"
3, 73680, Text_t, " with a"
3, 73920, Text_t, " great"
3, 74400, Text_t, " ex"
3, 74640, Text_t, "pe"
3, 74880, Text_t, "ri"
3, 75120, Text_t, "e"
3, 75360, Text_t, "n"
3, 75600, Text_t, "ce"
3, 76800, Text_t, "/I"
3, 77280, Text_t, " know"
3, 77760, Text_t, " you"
3, 78240, Text_t, " got"
3, 78720, Text_t, " you"
3, 79200, Text_t, " an"
3, 79440, Text_t, "oth"
3, 79680, Text_t, "er"
3, 79920, Text_t, " man"
3, 80160, Text_t, "/But"
3, 80400, Text_t, " I"
3, 80640, Text_t, " can"
3, 80880, Text_t, " love"
3, 81120, Text_t, " you"
3, 81600, Text_t, " bet"
3, 82080, Text_t, "ter"
3, 82320, Text_t, " than"
3, 82560, Text_t, " hi"
3, 82800, Text_t, "m"
3, 84480, Text_t, "/Take"
3, 84960, Text_t, " my"
3, 85200, Text_t, " ha"
3, 85440, Text_t, "nd,"
3, 86160, Text_t, " don't"
3, 86400, Text_t, " be"
3, 86640, Text_t, " a"
3, 87120, Text_t, "fra"
3, 87360, Text_t, "id"
3, 87600, Text_t, "/I"
3, 87840, Text_t, " wan"
3, 88080, Text_t, "na"
3, 88320, Text_t, " prove"
3, 89040, Text_t, " ev"
3, 89280, Text_t, "ery"
3, 89760, Text_t, " word"
3, 90000, Text_t, " I"
3, 90240, Text_t, " say"
3, 92160, Text_t, "/I"
3, 92400, Text_t, "'m"
3, 92880, Text_t, " ad"
3, 93120, Text_t, "ver"
3, 93360, Text_t, "tis"
3, 93840, Text_t, "in'"
3, 94080, Text_t, " lo"
3, 94320, Text_t, "ve"
3, 94560, Text_t, " fo"
3, 94800, Text_t, "r"
3, 95040, Text_t, " fre"
3, 95280, Text_t, "e"
3, 95520, Text_t, "/So,"
3, 95760, Text_t, " won't"
3, 96000, Text_t, " you"
3, 96240, Text_t, " place"
3, 96480, Text_t, " your"
3, 96960, Text_t, " a"
3, 97440, Text_t, "d"
3, 97680, Text_t, " with"
3, 97920, Text_t, " m"
3, 98160, Text_t, "e"
3, 99840, Text_t, "\\Boys"
3, 100320, Text_t, " will"
3, 100800, Text_t, " come"
3, 101280, Text_t, " a"
3, 101520, Text_t, " di"
3, 101760, Text_t, "me"
3, 102000, Text_t, " by"
3, 102480, Text_t, " the"
3, 102720, Text_t, " doz"
3, 102960, Text_t, "en"
3, 103440, Text_t, "/But"
3, 103680, Text_t, " that"
3, 103920, Text_t, " ain't"
3, 104400, Text_t, " no"
3, 104640, Text_t, "th"
3, 104880, Text_t, "in'"
3, 105120, Text_t, " but"
3, 105600, Text_t, " ten"
3, 106080, Text_t, " cent"
3, 106560, Text_t, " lo"
3, 106800, Text_t, "ve"
3, 107520, Text_t, "/Pret"
3, 107760, Text_t, "ty"
3, 108000, Text_t, " lit"
3, 108240, Text_t, "tle"
3, 108480, Text_t, " thing,"
3, 108960, Text_t, " let"
3, 109200, Text_t, " me"
3, 109440, Text_t, " light"
3, 109920, Text_t, " your"
3, 110160, Text_t, " can"
3, 110400, Text_t, "dle"
3, 110640, Text_t, "/'Cause"
3, 111120, Text_t, " Ma"
3, 111360, Text_t, "ma"
3, 111600, Text_t, " I'm"
3, 112080, Text_t, " su"
3, 112320, Text_t, "re"
3, 112560, Text_t, " hard"
3, 113040, Text_t, " to"
3, 113280, Text_t, " han"
3, 113520, Text_t, "dle,"
3, 113760, Text_t, " now,"
3, 114240, Text_t, "/Yes"
3, 114480, Text_t, " a"
3, 114720, Text_t, "round..."
3, 130560, Text_t, "\\B"
3, 131040, Text_t, "a"
3, 131520, Text_t, "b"
3, 132000, Text_t, "y.."
3, 132480, Text_t, " Here"
3, 132720, Text_t, " I"
3, 133200, Text_t, " am"
3, 134160, Text_t, "/I'm"
3, 134400, Text_t, " a"
3, 134640, Text_t, " m"
3, 134880, Text_t, "a"
3, 135120, Text_t, "n"
3, 135360, Text_t, " on"
3, 135840, Text_t, " the"
3, 136080, Text_t, " sc"
3, 136320, Text_t, "e"
3, 136560, Text_t, "n"
3, 136800, Text_t, "e"
3, 138240, Text_t, "/I"
3, 138720, Text_t, " ca"
3, 139200, Text_t, "n't"
3, 139680, Text_t, " give"
3, 140160, Text_t, " you"
3, 140640, Text_t, " what"
3, 140880, Text_t, " you"
3, 141120, Text_t, " wa"
3, 141360, Text_t, "nt"
3, 141600, Text_t, "/'less"
3, 141840, Text_t, " you"
3, 142080, Text_t, " co"
3, 142320, Text_t, "me"
3, 142560, Text_t, " go"
3, 143040, Text_t, " ho"
3, 143520, Text_t, "me"
3, 143760, Text_t, " with"
3, 144000, Text_t, " m"
3, 144240, Text_t, "e"
3, 145920, Text_t, "/I've"
3, 146400, Text_t, " a"
3, 146640, Text_t, " go"
3, 146880, Text_t, "t"
3, 147120, Text_t, " some"
3, 147600, Text_t, " goo"
3, 147840, Text_t, "d"
3, 148080, Text_t, " old"
3, 148560, Text_t, " lo"
3, 148800, Text_t, "v"
3, 149040, Text_t, "in'"
3, 149280, Text_t, "/And"
3, 149520, Text_t, " I"
3, 149760, Text_t, " got"
3, 150480, Text_t, " bet"
3, 150720, Text_t, "ter"
3, 151200, Text_t, " in"
3, 151440, Text_t, " sto"
3, 151680, Text_t, "re"
3, 153600, Text_t, "/When"
3, 153840, Text_t, " I"
3, 154320, Text_t, " ge"
3, 154560, Text_t, "t"
3, 154800, Text_t, " through"
3, 155280, Text_t, " thro"
3, 155520, Text_t, "w"
3, 155760, Text_t, "in'"
3, 156000, Text_t, " it"
3, 156240, Text_t, " o"
3, 156480, Text_t, "n"
3, 156720, Text_t, " you"
3, 156960, Text_t, "/You"
3, 157200, Text_t, " go"
3, 157440, Text_t, "t"
3, 157680, Text_t, " to"
3, 157920, Text_t, " come"
3, 158400, Text_t, " back"
3, 158880, Text_t, " for"
3, 159120, Text_t, " mo"
3, 159360, Text_t, "r"
3, 159600, Text_t, "e"
3, 161280, Text_t, "\\Boys"
3, 161760, Text_t, " will"
3, 162240, Text_t, " come"
3, 162720, Text_t, " a"
3, 162960, Text_t, " di"
3, 163200, Text_t, "me"
3, 163440, Text_t, " by"
3, 163920, Text_t, " the"
3, 164160, Text_t, " doz"
3, 164400, Text_t, "en"
3, 164880, Text_t, "/But"
3, 165120, Text_t, " that"
3, 165360, Text_t, " ain't"
3, 165840, Text_t, " no"
3, 166080, Text_t, "th"
3, 166320, Text_t, "in'"
3, 166560, Text_t, " but"
3, 167040, Text_t, " drug"
3, 167520, Text_t, " store"
3, 168000, Text_t, " lo"
3, 168240, Text_t, "ve"
3, 168960, Text_t, "/Pret"
3, 169200, Text_t, "ty"
3, 169440, Text_t, " lit"
3, 169680, Text_t, "tle"
3, 169920, Text_t, " thing,"
3, 170400, Text_t, " let"
3, 170640, Text_t, " me"
3, 170880, Text_t, " light"
3, 171360, Text_t, " your"
3, 171600, Text_t, " can"
3, 171840, Text_t, "dle"
3, 172080, Text_t, "/'Cause"
3, 172560, Text_t, " Ma"
3, 172800, Text_t, "ma"
3, 173040, Text_t, " I'm"
3, 173520, Text_t, " su"
3, 173760, Text_t, "re"
3, 174000, Text_t, " hard"
3, 174480, Text_t, " to"
3, 174720, Text_t, " han"
3, 174960, Text_t, "dle,"
3, 175200, Text_t, " now,"
3, 175680, Text_t, "/Yes"
3, 175920, Text_t, " a"
3, 176160, Text_t, "round..."
3, 192000, Text_t, "\\Give"
3, 192240, Text_t, " it"
3, 192480, Text_t, " to"
3, 192720, Text_t, " me.."
3, 195120, Text_t, "/I"
3, 195360, Text_t, " got"
3, 195600, Text_t, " to"
3, 195840, Text_t, " have"
3, 196320, Text_t, " it.."
3, 198000, Text_t, "/Gi"
3, 198240, Text_t, "ve"
3, 198480, Text_t, " me"
3, 198960, Text_t, " some"
3, 199200, Text_t, " good"
3, 199440, Text_t, " 'ole"
3, 199680, Text_t, " lov"
3, 200160, Text_t, "in'.."
3, 201840, Text_t, "/Some"
3, 202080, Text_t, " of"
3, 202320, Text_t, " your"
3, 202560, Text_t, " good"
3, 203040, Text_t, " lovin'....."
3, 203040, End_track
4, 0, Start_track
4, 0, Title_t, "Otis Redding - Hard To Handle 1968"
4, 0, Program_c, 0, 39
4, 0, Sequencer_specific, 5, 5, 15, 9, 8, 64
4, 0, Sequencer_specific, 15, 5, 15, 6, 71, 101, 110, 101, 114, 97, 108, 32, 77, 73, 68, 73
4, 0, Key_signature, -2, "major"
4, 0, Control_c, 0, 101, 0
4, 0, Control_c, 0, 100, 0
4, 0, Control_c, 0, 6, 12
4, 0, Time_signature, 4, 2, 24, 8
4, 1920, Key_signature, -2, "major"
4, 1920, Key_signature, -2, "major"
4, 1920, Key_signature, 0, "major"
4, 2400, Note_on_c, 0, 34, 95
4, 2640, Note_off_c, 0, 34, 95
4, 2640, Note_on_c, 0, 34, 95
4, 2880, Note_off_c, 0, 34, 95
4, 2880, Note_on_c, 0, 38, 95
4, 3120, Note_off_c, 0, 38, 95
4, 3120, Note_on_c, 0, 39, 95
4, 3600, Note_off_c, 0, 39, 95
4, 3600, Note_on_c, 0, 41, 95
4, 5760, Note_off_c, 0, 41, 95
4, 6240, Note_on_c, 0, 41, 95
4, 6480, Note_off_c, 0, 41, 95
4, 6480, Note_on_c, 0, 37, 95
4, 6720, Note_off_c, 0, 37, 95
4, 6720, Note_on_c, 0, 39, 95
4, 6960, Note_off_c, 0, 39, 95
4, 6960, Note_on_c, 0, 37, 95
4, 7440, Note_off_c, 0, 37, 95
4, 7440, Note_on_c, 0, 34, 95
4, 9600, Note_off_c, 0, 34, 95
4, 10080, Note_on_c, 0, 34, 95
4, 10320, Note_off_c, 0, 34, 95
4, 10320, Note_on_c, 0, 34, 95
4, 10560, Note_off_c, 0, 34, 95
4, 10560, Note_on_c, 0, 38, 95
4, 10800, Note_off_c, 0, 38, 95
4, 10800, Note_on_c, 0, 39, 95
4, 11280, Note_off_c, 0, 39, 95
4, 11280, Note_on_c, 0, 41, 95
4, 13440, Note_off_c, 0, 41, 95
4, 13920, Note_on_c, 0, 41, 95
4, 14160, Note_off_c, 0, 41, 95
4, 14160, Note_on_c, 0, 37, 95
4, 14400, Note_off_c, 0, 37, 95
4, 14400, Note_on_c, 0, 39, 95
4, 14640, Note_off_c, 0, 39, 95
4, 14640, Note_on_c, 0, 37, 95
4, 15360, Note_off_c, 0, 37, 95
4, 15360, Note_on_c, 0, 34, 95
4, 16320, Note_off_c, 0, 34, 95
4, 16320, Note_on_c, 0, 34, 95
4, 17040, Note_off_c, 0, 34, 95
4, 17040, Note_on_c, 0, 41, 95
4, 17280, Note_off_c, 0, 41, 95
4, 17280, Note_on_c, 0, 46, 95
4, 17520, Note_off_c, 0, 46, 95
4, 17520, Note_on_c, 0, 41, 95
4, 17760, Note_off_c, 0, 41, 95
4, 17760, Note_on_c, 0, 29, 95
4, 18240, Note_off_c, 0, 29, 95
4, 18240, Note_on_c, 0, 31, 95
4, 18720, Note_off_c, 0, 31, 95
4, 18720, Note_on_c, 0, 33, 95
4, 19200, Note_off_c, 0, 33, 95
4, 19200, Note_on_c, 0, 34, 95
4, 20160, Note_off_c, 0, 34, 95
4, 20160, Note_on_c, 0, 34, 95
4, 20880, Note_off_c, 0, 34, 95
4, 20880, Note_on_c, 0, 41, 95
4, 21120, Note_off_c, 0, 41, 95
4, 21120, Note_on_c, 0, 46, 95
4, 21360, Note_off_c, 0, 46, 95
4, 21360, Note_on_c, 0, 41, 95
4, 21600, Note_off_c, 0, 41, 95
4, 21600, Note_on_c, 0, 29, 95
4, 22080, Note_off_c, 0, 29, 95
4, 22080, Note_on_c, 0, 31, 95
4, 22560, Note_off_c, 0, 31, 95
4, 22560, Note_on_c, 0, 33, 95
4, 23040, Note_off_c, 0, 33, 95
4, 23040, Note_on_c, 0, 34, 95
4, 24000, Note_off_c, 0, 34, 95
4, 24000, Note_on_c, 0, 34, 95
4, 24720, Note_off_c, 0, 34, 95
4, 24720, Note_on_c, 0, 41, 95
4, 24960, Note_off_c, 0, 41, 95
4, 24960, Note_on_c, 0, 46, 95
4, 25200, Note_off_c, 0, 46, 95
4, 25200, Note_on_c, 0, 41, 95
4, 25440, Note_off_c, 0, 41, 95
4, 25440, Note_on_c, 0, 29, 95
4, 25920, Note_off_c, 0, 29, 95
4, 25920, Note_on_c, 0, 31, 95
4, 26400, Note_off_c, 0, 31, 95
4, 26400, Note_on_c, 0, 33, 95
4, 26880, Note_off_c, 0, 33, 95
4, 26880, Note_on_c, 0, 34, 95
4, 27840, Note_off_c, 0, 34, 95
4, 27840, Note_on_c, 0, 34, 95
4, 28560, Note_off_c, 0, 34, 95
4, 28560, Note_on_c, 0, 41, 95
4, 28800, Note_off_c, 0, 41, 95
4, 28800, Note_on_c, 0, 46, 95
4, 29040, Note_off_c, 0, 46, 95
4, 29040, Note_on_c, 0, 41, 95
4, 29280, Note_off_c, 0, 41, 95
4, 29280, Note_on_c, 0, 29, 95
4, 29760, Note_off_c, 0, 29, 95
4, 29760, Note_on_c, 0, 31, 95
4, 30240, Note_off_c, 0, 31, 95
4, 30240, Note_on_c, 0, 33, 95
4, 30720, Note_off_c, 0, 33, 95
4, 30720, Note_on_c, 0, 34, 95
4, 31680, Note_off_c, 0, 34, 95
4, 31680, Note_on_c, 0, 34, 95
4, 32400, Note_off_c, 0, 34, 95
4, 32400, Note_on_c, 0, 41, 95
4, 32640, Note_off_c, 0, 41, 95
4, 32640, Note_on_c, 0, 46, 95
4, 32880, Note_off_c, 0, 46, 95
4, 32880, Note_on_c, 0, 41, 95
4, 33120, Note_off_c, 0, 41, 95
4, 33120, Note_on_c, 0, 29, 95
4, 33600, Note_off_c, 0, 29, 95
4, 33600, Note_on_c, 0, 31, 95
4, 34080, Note_off_c, 0, 31, 95
4, 34080, Note_on_c, 0, 33, 95
4, 34560, Note_off_c, 0, 33, 95
4, 34560, Note_on_c, 0, 34, 95
4, 35520, Note_off_c, 0, 34, 95
4, 35520, Note_on_c, 0, 34, 95
4, 36240, Note_off_c, 0, 34, 95
4, 36240, Note_on_c, 0, 41, 95
4, 36480, Note_off_c, 0, 41, 95
4, 36480, Note_on_c, 0, 46, 95
4, 36720, Note_off_c, 0, 46, 95
4, 36720, Note_on_c, 0, 41, 95
4, 36960, Note_off_c, 0, 41, 95
4, 36960, Note_on_c, 0, 29, 95
4, 37440, Note_off_c, 0, 29, 95
4, 37440, Note_on_c, 0, 31, 95
4, 37920, Note_off_c, 0, 31, 95
4, 37920, Note_on_c, 0, 33, 95
4, 38400, Note_off_c, 0, 33, 95
4, 38400, Note_on_c, 0, 34, 95
4, 39360, Note_off_c, 0, 34, 95
4, 39360, Note_on_c, 0, 34, 95
4, 40080, Note_off_c, 0, 34, 95
4, 40080, Note_on_c, 0, 41, 95
4, 40320, Note_off_c, 0, 41, 95
4, 40320, Note_on_c, 0, 46, 95
4, 40560, Note_off_c, 0, 46, 95
4, 40560, Note_on_c, 0, 41, 95
4, 40800, Note_off_c, 0, 41, 95
4, 40800, Note_on_c, 0, 29, 95
4, 41280, Note_off_c, 0, 29, 95
4, 41280, Note_on_c, 0, 31, 95
4, 41760, Note_off_c, 0, 31, 95
4, 41760, Note_on_c, 0, 33, 95
4, 42240, Note_off_c, 0, 33, 95
4, 42240, Note_on_c, 0, 34, 95
4, 43200, Note_off_c, 0, 34, 95
4, 43200, Note_on_c, 0, 34, 95
4, 43920, Note_off_c, 0, 34, 95
4, 43920, Note_on_c, 0, 41, 95
4, 44160, Note_off_c, 0, 41, 95
4, 44160, Note_on_c, 0, 46, 95
4, 44400, Note_off_c, 0, 46, 95
4, 44400, Note_on_c, 0, 41, 95
4, 44640, Note_off_c, 0, 41, 95
4, 44640, Note_on_c, 0, 29, 95
4, 45120, Note_off_c, 0, 29, 95
4, 45120, Note_on_c, 0, 31, 95
4, 45600, Note_off_c, 0, 31, 95
4, 45600, Note_on_c, 0, 34, 127
4, 46080, Note_off_c, 0, 34, 127
4, 46080, Note_on_c, 0, 41, 95
4, 47040, Note_off_c, 0, 41, 95
4, 47040, Note_on_c, 0, 41, 95
4, 47760, Note_off_c, 0, 41, 95
4, 47760, Note_on_c, 0, 36, 95
4, 48000, Note_off_c, 0, 36, 95
4, 48000, Note_on_c, 0, 41, 95
4, 48240, Note_off_c, 0, 41, 95
4, 48240, Note_on_c, 0, 33, 95
4, 48720, Note_off_c, 0, 33, 95
4, 48720, Note_on_c, 0, 33, 95
4, 48960, Note_off_c, 0, 33, 95
4, 48960, Note_on_c, 0, 34, 95
4, 49440, Note_off_c, 0, 34, 95
4, 49440, Note_on_c, 0, 36, 95
4, 49920, Note_off_c, 0, 36, 95
4, 49920, Note_on_c, 0, 41, 95
4, 50880, Note_off_c, 0, 41, 95
4, 50880, Note_on_c, 0, 41, 95
4, 51600, Note_off_c, 0, 41, 95
4, 51600, Note_on_c, 0, 36, 95
4, 51840, Note_off_c, 0, 36, 95
4, 51840, Note_on_c, 0, 41, 95
4, 52080, Note_off_c, 0, 41, 95
4, 52080, Note_on_c, 0, 33, 95
4, 52560, Note_off_c, 0, 33, 95
4, 52560, Note_on_c, 0, 33, 95
4, 52800, Note_off_c, 0, 33, 95
4, 52800, Note_on_c, 0, 34, 95
4, 53280, Note_off_c, 0, 34, 95
4, 53280, Note_on_c, 0, 36, 95
4, 53760, Note_off_c, 0, 36, 95
4, 53760, Note_on_c, 0, 41, 95
4, 54720, Note_off_c, 0, 41, 95
4, 61440, Note_on_c, 0, 39, 95
4, 62400, Note_off_c, 0, 39, 95
4, 62400, Note_on_c, 0, 39, 95
4, 63120, Note_off_c, 0, 39, 95
4, 63120, Note_on_c, 0, 39, 95
4, 63360, Note_off_c, 0, 39, 95
4, 63360, Note_on_c, 0, 41, 95
4, 64320, Note_off_c, 0, 41, 95
4, 64320, Note_on_c, 0, 41, 95
4, 65280, Note_off_c, 0, 41, 95
4, 65280, Note_on_c, 0, 44, 95
4, 65760, Note_off_c, 0, 44, 95
4, 65760, Note_on_c, 0, 44, 95
4, 66000, Note_off_c, 0, 44, 95
4, 66000, Note_on_c, 0, 39, 95
4, 66480, Note_off_c, 0, 39, 95
4, 66480, Note_on_c, 0, 39, 95
4, 66720, Note_off_c, 0, 39, 95
4, 66720, Note_on_c, 0, 34, 95
4, 68160, Note_off_c, 0, 34, 95
4, 68160, Note_on_c, 0, 29, 95
4, 68640, Note_off_c, 0, 29, 95
4, 68640, Note_on_c, 0, 31, 95
4, 69120, Note_off_c, 0, 31, 95
4, 69120, Note_on_c, 0, 34, 95
4, 70080, Note_off_c, 0, 34, 95
4, 70080, Note_on_c, 0, 34, 95
4, 70800, Note_off_c, 0, 34, 95
4, 70800, Note_on_c, 0, 41, 95
4, 71040, Note_off_c, 0, 41, 95
4, 71040, Note_on_c, 0, 46, 95
4, 71280, Note_off_c, 0, 46, 95
4, 71280, Note_on_c, 0, 41, 95
4, 71520, Note_off_c, 0, 41, 95
4, 71520, Note_on_c, 0, 29, 95
4, 72000, Note_off_c, 0, 29, 95
4, 72000, Note_on_c, 0, 31, 95
4, 72480, Note_off_c, 0, 31, 95
4, 72480, Note_on_c, 0, 33, 95
4, 72960, Note_off_c, 0, 33, 95
4, 72960, Note_on_c, 0, 34, 95
4, 73920, Note_off_c, 0, 34, 95
4, 73920, Note_on_c, 0, 34, 95
4, 74640, Note_off_c, 0, 34, 95
4, 74640, Note_on_c, 0, 41, 95
4, 74880, Note_off_c, 0, 41, 95
4, 74880, Note_on_c, 0, 46, 95
4, 75120, Note_off_c, 0, 46, 95
4, 75120, Note_on_c, 0, 41, 95
4, 75360, Note_off_c, 0, 41, 95
4, 75360, Note_on_c, 0, 29, 95
4, 75840, Note_off_c, 0, 29, 95
4, 75840, Note_on_c, 0, 31, 95
4, 76320, Note_off_c, 0, 31, 95
4, 76320, Note_on_c, 0, 33, 95
4, 76800, Note_off_c, 0, 33, 95
4, 76800, Note_on_c, 0, 34, 95
4, 77760, Note_off_c, 0, 34, 95
4, 77760, Note_on_c, 0, 34, 95
4, 78480, Note_off_c, 0, 34, 95
4, 78480, Note_on_c, 0, 41, 95
4, 78720, Note_off_c, 0, 41, 95
4, 78720, Note_on_c, 0, 46, 95
4, 78960, Note_off_c, 0, 46, 95
4, 78960, Note_on_c, 0, 41, 95
4, 79200, Note_off_c, 0, 41, 95
4, 79200, Note_on_c, 0, 29, 95
4, 79680, Note_off_c, 0, 29, 95
4, 79680, Note_on_c, 0, 31, 95
4, 80160, Note_off_c, 0, 31, 95
4, 80160, Note_on_c, 0, 33, 95
4, 80640, Note_off_c, 0, 33, 95
4, 80640, Note_on_c, 0, 34, 95
4, 81600, Note_off_c, 0, 34, 95
4, 81600, Note_on_c, 0, 34, 95
4, 82320, Note_off_c, 0, 34, 95
4, 82320, Note_on_c, 0, 41, 95
4, 82560, Note_off_c, 0, 41, 95
4, 82560, Note_on_c, 0, 46, 95
4, 82800, Note_off_c, 0, 46, 95
4, 82800, Note_on_c, 0, 41, 95
4, 83040, Note_off_c, 0, 41, 95
4, 83040, Note_on_c, 0, 29, 95
4, 83520, Note_off_c, 0, 29, 95
4, 83520, Note_on_c, 0, 31, 95
4, 84000, Note_off_c, 0, 31, 95
4, 84000, Note_on_c, 0, 33, 95
4, 84480, Note_off_c, 0, 33, 95
4, 84480, Note_on_c, 0, 34, 95
4, 85440, Note_off_c, 0, 34, 95
4, 85440, Note_on_c, 0, 34, 95
4, 86160, Note_off_c, 0, 34, 95
4, 86160, Note_on_c, 0, 41, 95
4, 86400, Note_off_c, 0, 41, 95
4, 86400, Note_on_c, 0, 46, 95
4, 86640, Note_off_c, 0, 46, 95
4, 86640, Note_on_c, 0, 41, 95
4, 86880, Note_off_c, 0, 41, 95
4, 86880, Note_on_c, 0, 29, 95
4, 87360, Note_off_c, 0, 29, 95
4, 87360, Note_on_c, 0, 31, 95
4, 87840, Note_off_c, 0, 31, 95
4, 87840, Note_on_c, 0, 33, 95
4, 88320, Note_off_c, 0, 33, 95
4, 88320, Note_on_c, 0, 34, 95
4, 89280, Note_off_c, 0, 34, 95
4, 89280, Note_on_c, 0, 34, 95
4, 90000, Note_off_c, 0, 34, 95
4, 90000, Note_on_c, 0, 41, 95
4, 90240, Note_off_c, 0, 41, 95
4, 90240, Note_on_c, 0, 46, 95
4, 90480, Note_off_c, 0, 46, 95
4, 90480, Note_on_c, 0, 41, 95
4, 90720, Note_off_c, 0, 41, 95
4, 90720, Note_on_c, 0, 29, 95
4, 91200, Note_off_c, 0, 29, 95
4, 91200, Note_on_c, 0, 31, 95
4, 91680, Note_off_c, 0, 31, 95
4, 91680, Note_on_c, 0, 33, 95
4, 92160, Note_off_c, 0, 33, 95
4, 92160, Note_on_c, 0, 34, 95
4, 93120, Note_off_c, 0, 34, 95
4, 93120, Note_on_c, 0, 34, 95
4, 93840, Note_off_c, 0, 34, 95
4, 93840, Note_on_c, 0, 41, 95
4, 94080, Note_off_c, 0, 41, 95
4, 94080, Note_on_c, 0, 46, 95
4, 94320, Note_off_c, 0, 46, 95
4, 94320, Note_on_c, 0, 41, 95
4, 94560, Note_off_c, 0, 41, 95
4, 94560, Note_on_c, 0, 29, 95
4, 95040, Note_off_c, 0, 29, 95
4, 95040, Note_on_c, 0, 31, 95
4, 95520, Note_off_c, 0, 31, 95
4, 95520, Note_on_c, 0, 33, 95
4, 96000, Note_off_c, 0, 33, 95
4, 96000, Note_on_c, 0, 34, 95
4, 96960, Note_off_c, 0, 34, 95
4, 96960, Note_on_c, 0, 34, 95
4, 97680, Note_off_c, 0, 34, 95
4, 97680, Note_on_c, 0, 41, 95
4, 97920, Note_off_c, 0, 41, 95
4, 97920, Note_on_c, 0, 46, 95
4, 98160, Note_off_c, 0, 46, 95
4, 98160, Note_on_c, 0, 41, 95
4, 98400, Note_off_c, 0, 41, 95
4, 98400, Note_on_c, 0, 29, 95
4, 98880, Note_off_c, 0, 29, 95
4, 98880, Note_on_c, 0, 31, 95
4, 99360, Note_off_c, 0, 31, 95
4, 99360, Note_on_c, 0, 34, 127
4, 99840, Note_off_c, 0, 34, 127
4, 99840, Note_on_c, 0, 41, 95
4, 100800, Note_off_c, 0, 41, 95
4, 100800, Note_on_c, 0, 41, 95
4, 101520, Note_off_c, 0, 41, 95
4, 101520, Note_on_c, 0, 36, 95
4, 101760, Note_off_c, 0, 36, 95
4, 101760, Note_on_c, 0, 41, 95
4, 102000, Note_off_c, 0, 41, 95
4, 102000, Note_on_c, 0, 33, 95
4, 102480, Note_off_c, 0, 33, 95
4, 102480, Note_on_c, 0, 33, 95
4, 102720, Note_off_c, 0, 33, 95
4, 102720, Note_on_c, 0, 34, 95
4, 103200, Note_off_c, 0, 34, 95
4, 103200, Note_on_c, 0, 36, 95
4, 103680, Note_off_c, 0, 36, 95
4, 103680, Note_on_c, 0, 41, 95
4, 104640, Note_off_c, 0, 41, 95
4, 104640, Note_on_c, 0, 41, 95
4, 105360, Note_off_c, 0, 41, 95
4, 105360, Note_on_c, 0, 36, 95
4, 105600, Note_off_c, 0, 36, 95
4, 105600, Note_on_c, 0, 41, 95
4, 105840, Note_off_c, 0, 41, 95
4, 105840, Note_on_c, 0, 33, 95
4, 106320, Note_off_c, 0, 33, 95
4, 106320, Note_on_c, 0, 33, 95
4, 106560, Note_off_c, 0, 33, 95
4, 106560, Note_on_c, 0, 34, 95
4, 107040, Note_off_c, 0, 34, 95
4, 107040, Note_on_c, 0, 36, 95
4, 107520, Note_off_c, 0, 36, 95
4, 107520, Note_on_c, 0, 41, 95
4, 108480, Note_off_c, 0, 41, 95
4, 115200, Note_on_c, 0, 44, 95
4, 115680, Note_off_c, 0, 44, 95
4, 115680, Note_on_c, 0, 44, 95
4, 115920, Note_off_c, 0, 44, 95
4, 115920, Note_on_c, 0, 39, 95
4, 116400, Note_off_c, 0, 39, 95
4, 116400, Note_on_c, 0, 39, 95
4, 116640, Note_off_c, 0, 39, 95
4, 116640, Note_on_c, 0, 34, 95
4, 119040, Note_off_c, 0, 34, 95
4, 119040, Note_on_c, 0, 44, 95
4, 119520, Note_off_c, 0, 44, 95
4, 119520, Note_on_c, 0, 44, 95
4, 119760, Note_off_c, 0, 44, 95
4, 119760, Note_on_c, 0, 39, 95
4, 120240, Note_off_c, 0, 39, 95
4, 120240, Note_on_c, 0, 39, 95
4, 120480, Note_off_c, 0, 39, 95
4, 120480, Note_on_c, 0, 34, 95
4, 122880, Note_off_c, 0, 34, 95
4, 122880, Note_on_c, 0, 44, 95
4, 123360, Note_off_c, 0, 44, 95
4, 123360, Note_on_c, 0, 44, 95
4, 123600, Note_off_c, 0, 44, 95
4, 123600, Note_on_c, 0, 39, 95
4, 124080, Note_off_c, 0, 39, 95
4, 124080, Note_on_c, 0, 39, 95
4, 124320, Note_off_c, 0, 39, 95
4, 124320, Note_on_c, 0, 34, 95
4, 126720, Note_off_c, 0, 34, 95
4, 126720, Note_on_c, 0, 44, 95
4, 127200, Note_off_c, 0, 44, 95
4, 127200, Note_on_c, 0, 44, 95
4, 127440, Note_off_c, 0, 44, 95
4, 127440, Note_on_c, 0, 39, 95
4, 127920, Note_off_c, 0, 39, 95
4, 127920, Note_on_c, 0, 39, 95
4, 128160, Note_off_c, 0, 39, 95
4, 128160, Note_on_c, 0, 34, 95
4, 129600, Note_off_c, 0, 34, 95
4, 129600, Note_on_c, 0, 29, 95
4, 130080, Note_off_c, 0, 29, 95
4, 130080, Note_on_c, 0, 31, 95
4, 130560, Note_off_c, 0, 31, 95
4, 130560, Note_on_c, 0, 34, 95
4, 131520, Note_off_c, 0, 34, 95
4, 131520, Note_on_c, 0, 34, 95
4, 132240, Note_off_c, 0, 34, 95
4, 132240, Note_on_c, 0, 41, 95
4, 132480, Note_off_c, 0, 41, 95
4, 132480, Note_on_c, 0, 46, 95
4, 132720, Note_off_c, 0, 46, 95
4, 132720, Note_on_c, 0, 41, 95
4, 132960, Note_off_c, 0, 41, 95
4, 132960, Note_on_c, 0, 29, 95
4, 133440, Note_off_c, 0, 29, 95
4, 133440, Note_on_c, 0, 31, 95
4, 133920, Note_off_c, 0, 31, 95
4, 133920, Note_on_c, 0, 33, 95
4, 134400, Note_off_c, 0, 33, 95
4, 134400, Note_on_c, 0, 34, 95
4, 135360, Note_off_c, 0, 34, 95
4, 135360, Note_on_c, 0, 34, 95
4, 136080, Note_off_c, 0, 34, 95
4, 136080, Note_on_c, 0, 41, 95
4, 136320, Note_off_c, 0, 41, 95
4, 136320, Note_on_c, 0, 46, 95
4, 136560, Note_off_c, 0, 46, 95
4, 136560, Note_on_c, 0, 41, 95
4, 136800, Note_off_c, 0, 41, 95
4, 136800, Note_on_c, 0, 29, 95
4, 137280, Note_off_c, 0, 29, 95
4, 137280, Note_on_c, 0, 31, 95
4, 137760, Note_off_c, 0, 31, 95
4, 137760, Note_on_c, 0, 33, 95
4, 138240, Note_off_c, 0, 33, 95
4, 138240, Note_on_c, 0, 34, 95
4, 139200, Note_off_c, 0, 34, 95
4, 139200, Note_on_c, 0, 34, 95
4, 139920, Note_off_c, 0, 34, 95
4, 139920, Note_on_c, 0, 41, 95
4, 140160, Note_off_c, 0, 41, 95
4, 140160, Note_on_c, 0, 46, 95
4, 140400, Note_off_c, 0, 46, 95
4, 140400, Note_on_c, 0, 41, 95
4, 140640, Note_off_c, 0, 41, 95
4, 140640, Note_on_c, 0, 29, 95
4, 141120, Note_off_c, 0, 29, 95
4, 141120, Note_on_c, 0, 31, 95
4, 141600, Note_off_c, 0, 31, 95
4, 141600, Note_on_c, 0, 33, 95
4, 142080, Note_off_c, 0, 33, 95
4, 142080, Note_on_c, 0, 34, 95
4, 143040, Note_off_c, 0, 34, 95
4, 143040, Note_on_c, 0, 34, 95
4, 143760, Note_off_c, 0, 34, 95
4, 143760, Note_on_c, 0, 41, 95
4, 144000, Note_off_c, 0, 41, 95
4, 144000, Note_on_c, 0, 46, 95
4, 144240, Note_off_c, 0, 46, 95
4, 144240, Note_on_c, 0, 41, 95
4, 144480, Note_off_c, 0, 41, 95
4, 144480, Note_on_c, 0, 29, 95
4, 144960, Note_off_c, 0, 29, 95
4, 144960, Note_on_c, 0, 31, 95
4, 145440, Note_off_c, 0, 31, 95
4, 145440, Note_on_c, 0, 33, 95
4, 145920, Note_off_c, 0, 33, 95
4, 145920, Note_on_c, 0, 34, 95
4, 146880, Note_off_c, 0, 34, 95
4, 146880, Note_on_c, 0, 34, 95
4, 147600, Note_off_c, 0, 34, 95
4, 147600, Note_on_c, 0, 41, 95
4, 147840, Note_off_c, 0, 41, 95
4, 147840, Note_on_c, 0, 46, 95
4, 148080, Note_off_c, 0, 46, 95
4, 148080, Note_on_c, 0, 41, 95
4, 148320, Note_off_c, 0, 41, 95
4, 148320, Note_on_c, 0, 29, 95
4, 148800, Note_off_c, 0, 29, 95
4, 148800, Note_on_c, 0, 31, 95
4, 149280, Note_off_c, 0, 31, 95
4, 149280, Note_on_c, 0, 33, 95
4, 149760, Note_off_c, 0, 33, 95
4, 149760, Note_on_c, 0, 34, 95
4, 150720, Note_off_c, 0, 34, 95
4, 150720, Note_on_c, 0, 34, 95
4, 151440, Note_off_c, 0, 34, 95
4, 151440, Note_on_c, 0, 41, 95
4, 151680, Note_off_c, 0, 41, 95
4, 151680, Note_on_c, 0, 46, 95
4, 151920, Note_off_c, 0, 46, 95
4, 151920, Note_on_c, 0, 41, 95
4, 152160, Note_off_c, 0, 41, 95
4, 152160, Note_on_c, 0, 29, 95
4, 152640, Note_off_c, 0, 29, 95
4, 152640, Note_on_c, 0, 31, 95
4, 153120, Note_off_c, 0, 31, 95
4, 153120, Note_on_c, 0, 33, 95
4, 153600, Note_off_c, 0, 33, 95
4, 153600, Note_on_c, 0, 34, 95
4, 154560, Note_off_c, 0, 34, 95
4, 154560, Note_on_c, 0, 34, 95
4, 155280, Note_off_c, 0, 34, 95
4, 155280, Note_on_c, 0, 41, 95
4, 155520, Note_off_c, 0, 41, 95
4, 155520, Note_on_c, 0, 46, 95
4, 155760, Note_off_c, 0, 46, 95
4, 155760, Note_on_c, 0, 41, 95
4, 156000, Note_off_c, 0, 41, 95
4, 156000, Note_on_c, 0, 29, 95
4, 156480, Note_off_c, 0, 29, 95
4, 156480, Note_on_c, 0, 31, 95
4, 156960, Note_off_c, 0, 31, 95
4, 156960, Note_on_c, 0, 33, 95
4, 157440, Note_off_c, 0, 33, 95
4, 157440, Note_on_c, 0, 34, 95
4, 158400, Note_off_c, 0, 34, 95
4, 158400, Note_on_c, 0, 34, 95
4, 159120, Note_off_c, 0, 34, 95
4, 159120, Note_on_c, 0, 41, 95
4, 159360, Note_off_c, 0, 41, 95
4, 159360, Note_on_c, 0, 46, 95
4, 159600, Note_off_c, 0, 46, 95
4, 159600, Note_on_c, 0, 41, 95
4, 159840, Note_off_c, 0, 41, 95
4, 159840, Note_on_c, 0, 29, 95
4, 160320, Note_off_c, 0, 29, 95
4, 160320, Note_on_c, 0, 31, 95
4, 160800, Note_off_c, 0, 31, 95
4, 160800, Note_on_c, 0, 34, 127
4, 161280, Note_off_c, 0, 34, 127
4, 161280, Note_on_c, 0, 41, 95
4, 162240, Note_off_c, 0, 41, 95
4, 162240, Note_on_c, 0, 41, 95
4, 162960, Note_off_c, 0, 41, 95
4, 162960, Note_on_c, 0, 36, 95
4, 163200, Note_off_c, 0, 36, 95
4, 163200, Note_on_c, 0, 41, 95
4, 163440, Note_off_c, 0, 41, 95
4, 163440, Note_on_c, 0, 33, 95
4, 163920, Note_off_c, 0, 33, 95
4, 163920, Note_on_c, 0, 33, 95
4, 164160, Note_off_c, 0, 33, 95
4, 164160, Note_on_c, 0, 34, 95
4, 164640, Note_off_c, 0, 34, 95
4, 164640, Note_on_c, 0, 36, 95
4, 165120, Note_off_c, 0, 36, 95
4, 165120, Note_on_c, 0, 41, 95
4, 166080, Note_off_c, 0, 41, 95
4, 166080, Note_on_c, 0, 41, 95
4, 166800, Note_off_c, 0, 41, 95
4, 166800, Note_on_c, 0, 36, 95
4, 167040, Note_off_c, 0, 36, 95
4, 167040, Note_on_c, 0, 41, 95
4, 167280, Note_off_c, 0, 41, 95
4, 167280, Note_on_c, 0, 33, 95
4, 167760, Note_off_c, 0, 33, 95
4, 167760, Note_on_c, 0, 33, 95
4, 168000, Note_off_c, 0, 33, 95
4, 168000, Note_on_c, 0, 34, 95
4, 168480, Note_off_c, 0, 34, 95
4, 168480, Note_on_c, 0, 36, 95
4, 168960, Note_off_c, 0, 36, 95
4, 168960, Note_on_c, 0, 41, 95
4, 169920, Note_off_c, 0, 41, 95
4, 176640, Note_on_c, 0, 44, 95
4, 177120, Note_off_c, 0, 44, 95
4, 177120, Note_on_c, 0, 44, 95
4, 177360, Note_off_c, 0, 44, 95
4, 177360, Note_on_c, 0, 39, 95
4, 177840, Note_off_c, 0, 39, 95
4, 177840, Note_on_c, 0, 39, 95
4, 178080, Note_off_c, 0, 39, 95
4, 178080, Note_on_c, 0, 34, 95
4, 180480, Note_off_c, 0, 34, 95
4, 180480, Note_on_c, 0, 44, 95
4, 180960, Note_off_c, 0, 44, 95
4, 180960, Note_on_c, 0, 44, 95
4, 181200, Note_off_c, 0, 44, 95
4, 181200, Note_on_c, 0, 39, 95
4, 181680, Note_off_c, 0, 39, 95
4, 181680, Note_on_c, 0, 39, 95
4, 181920, Note_off_c, 0, 39, 95
4, 181920, Note_on_c, 0, 34, 95
4, 184320, Note_off_c, 0, 34, 95
4, 184320, Note_on_c, 0, 44, 95
4, 184800, Note_off_c, 0, 44, 95
4, 184800, Note_on_c, 0, 44, 95
4, 185040, Note_off_c, 0, 44, 95
4, 185040, Note_on_c, 0, 39, 95
4, 185520, Note_off_c, 0, 39, 95
4, 185520, Note_on_c, 0, 39, 95
4, 185760, Note_off_c, 0, 39, 95
4, 185760, Note_on_c, 0, 34, 95
4, 188160, Note_off_c, 0, 34, 95
4, 188160, Note_on_c, 0, 44, 95
4, 188640, Note_off_c, 0, 44, 95
4, 188640, Note_on_c, 0, 44, 95
4, 188880, Note_off_c, 0, 44, 95
4, 188880, Note_on_c, 0, 39, 95
4, 189360, Note_off_c, 0, 39, 95
4, 189360, Note_on_c, 0, 39, 95
4, 189600, Note_off_c, 0, 39, 95
4, 189600, Note_on_c, 0, 34, 95
4, 191040, Note_off_c, 0, 34, 95
4, 191040, Note_on_c, 0, 29, 95
4, 191520, Note_off_c, 0, 29, 95
4, 191520, Note_on_c, 0, 31, 95
4, 192000, Note_off_c, 0, 31, 95
4, 192000, Note_on_c, 0, 34, 95
4, 192960, Note_off_c, 0, 34, 95
4, 192960, Note_on_c, 0, 34, 95
4, 193680, Note_off_c, 0, 34, 95
4, 193680, Note_on_c, 0, 41, 95
4, 193920, Note_off_c, 0, 41, 95
4, 193920, Note_on_c, 0, 46, 95
4, 194160, Note_off_c, 0, 46, 95
4, 194160, Note_on_c, 0, 41, 95
4, 194400, Note_off_c, 0, 41, 95
4, 194400, Note_on_c, 0, 29, 95
4, 194880, Note_off_c, 0, 29, 95
4, 194880, Note_on_c, 0, 31, 95
4, 195360, Note_off_c, 0, 31, 95
4, 195360, Note_on_c, 0, 33, 95
4, 195840, Note_off_c, 0, 33, 95
4, 195840, Note_on_c, 0, 34, 95
4, 196800, Note_off_c, 0, 34, 95
4, 196800, Note_on_c, 0, 34, 95
4, 197520, Note_off_c, 0, 34, 95
4, 197520, Note_on_c, 0, 41, 95
4, 197760, Note_off_c, 0, 41, 95
4, 197760, Note_on_c, 0, 46, 95
4, 198000, Note_off_c, 0, 46, 95
4, 198000, Note_on_c, 0, 41, 95
4, 198240, Note_off_c, 0, 41, 95
4, 198240, Note_on_c, 0, 29, 95
4, 198720, Note_off_c, 0, 29, 95
4, 198720, Note_on_c, 0, 31, 95
4, 199200, Note_off_c, 0, 31, 95
4, 199200, Note_on_c, 0, 33, 95
4, 199680, Note_off_c, 0, 33, 95
4, 199680, Note_on_c, 0, 34, 95
4, 200640, Note_off_c, 0, 34, 95
4, 200640, Note_on_c, 0, 34, 95
4, 201360, Note_off_c, 0, 34, 95
4, 201360, Note_on_c, 0, 41, 95
4, 201600, Note_off_c, 0, 41, 95
4, 201600, Note_on_c, 0, 46, 95
4, 201840, Note_off_c, 0, 46, 95
4, 201840, Note_on_c, 0, 41, 95
4, 202080, Note_off_c, 0, 41, 95
4, 202080, Note_on_c, 0, 29, 95
4, 202560, Note_off_c, 0, 29, 95
4, 202560, Note_on_c, 0, 31, 95
4, 203040, Note_off_c, 0, 31, 95
4, 203040, Note_on_c, 0, 33, 95
4, 203520, Note_off_c, 0, 33, 95
4, 203520, Note_on_c, 0, 34, 95
4, 204480, Note_off_c, 0, 34, 95
4, 204480, Note_on_c, 0, 34, 95
4, 205200, Note_off_c, 0, 34, 95
4, 205200, Note_on_c, 0, 41, 95
4, 205440, Note_off_c, 0, 41, 95
4, 205440, Note_on_c, 0, 46, 95
4, 205680, Note_off_c, 0, 46, 95
4, 205680, Note_on_c, 0, 41, 95
4, 205920, Note_off_c, 0, 41, 95
4, 205920, Note_on_c, 0, 29, 95
4, 206400, Note_off_c, 0, 29, 95
4, 206400, Note_on_c, 0, 31, 95
4, 206880, Note_off_c, 0, 31, 95
4, 206880, Note_on_c, 0, 33, 95
4, 207360, Note_off_c, 0, 33, 95
4, 207360, Note_on_c, 0, 34, 95
4, 208320, Note_off_c, 0, 34, 95
4, 208320, Note_on_c, 0, 34, 95
4, 209040, Note_off_c, 0, 34, 95
4, 209040, Note_on_c, 0, 41, 95
4, 209280, Note_off_c, 0, 41, 95
4, 209280, Note_on_c, 0, 46, 95
4, 209520, Note_off_c, 0, 46, 95
4, 209520, Note_on_c, 0, 41, 95
4, 209760, Note_off_c, 0, 41, 95
4, 209760, Note_on_c, 0, 29, 95
4, 210240, Note_off_c, 0, 29, 95
4, 210240, Note_on_c, 0, 31, 95
4, 210720, Note_off_c, 0, 31, 95
4, 210720, Note_on_c, 0, 33, 95
4, 211200, Note_off_c, 0, 33, 95
4, 211200, End_track
5, 0, Start_track
5, 0, Sequencer_specific, 5, 5, 15, 9, 8, 64
5, 0, Title_t, "From The Album ""The Immortal Otis Redding"""
5, 0, Control_c, 7, 10, 123
5, 0, Program_c, 7, 17
5, 0, Sequencer_specific, 15, 5, 15, 6, 71, 101, 110, 101, 114, 97, 108, 32, 77, 73, 68, 73
5, 0, Key_signature, -2, "major"
5, 3149, Pitch_bend_c, 7, 8192
5, 3149, Control_c, 7, 7, 127
5, 3149, Control_c, 7, 7, 127
5, 15360, Note_on_c, 7, 82, 100
5, 15840, Note_off_c, 7, 82, 0
5, 15840, Note_on_c, 7, 77, 100
5, 16320, Note_off_c, 7, 77, 0
5, 16320, Note_on_c, 7, 79, 100
5, 16800, Note_off_c, 7, 79, 0
5, 16800, Note_on_c, 7, 74, 100
5, 17280, Note_off_c, 7, 74, 0
5, 17280, Note_on_c, 7, 77, 100
5, 17520, Note_off_c, 7, 77, 0
5, 17520, Note_on_c, 7, 72, 100
5, 18000, Note_off_c, 7, 72, 0
5, 18000, Note_on_c, 7, 74, 100
5, 18240, Note_off_c, 7, 74, 0
5, 18240, Note_on_c, 7, 72, 100
5, 18480, Note_off_c, 7, 72, 0
5, 18480, Note_on_c, 7, 70, 100
5, 18720, Note_off_c, 7, 70, 0
5, 18720, Note_on_c, 7, 70, 100
5, 18960, Note_off_c, 7, 70, 0
5, 18960, Note_on_c, 7, 70, 100
5, 19200, Note_off_c, 7, 70, 0
5, 19200, Note_on_c, 7, 74, 100
5, 19440, Note_off_c, 7, 74, 0
5, 19440, Note_on_c, 7, 72, 100
5, 19680, Note_off_c, 7, 72, 0
5, 19680, Note_on_c, 7, 70, 100
5, 19920, Note_off_c, 7, 70, 0
5, 19920, Note_on_c, 7, 67, 100
5, 20160, Note_off_c, 7, 67, 0
5, 20160, Note_on_c, 7, 70, 100
5, 20640, Note_off_c, 7, 70, 0
5, 20640, Note_on_c, 7, 70, 100
5, 20880, Note_off_c, 7, 70, 0
5, 20880, Note_on_c, 7, 74, 100
5, 21120, Note_off_c, 7, 74, 0
5, 21120, Note_on_c, 7, 74, 100
5, 21360, Note_off_c, 7, 74, 0
5, 21360, Note_on_c, 7, 72, 100
5, 21600, Note_off_c, 7, 72, 0
5, 21600, Note_on_c, 7, 70, 100
5, 21840, Note_off_c, 7, 70, 0
5, 21840, Note_on_c, 7, 67, 100
5, 22080, Note_off_c, 7, 67, 0
5, 23040, Note_on_c, 7, 77, 100
5, 23520, Note_off_c, 7, 77, 0
5, 23520, Note_on_c, 7, 79, 100
5, 24000, Note_off_c, 7, 79, 0
5, 24000, Note_on_c, 7, 79, 100
5, 24480, Note_off_c, 7, 79, 0
5, 24480, Note_on_c, 7, 73, 100
5, 24960, Note_off_c, 7, 73, 0
5, 24960, Note_on_c, 7, 74, 100
5, 25440, Note_off_c, 7, 74, 0
5, 25440, Note_on_c, 7, 70, 100
5, 25680, Note_off_c, 7, 70, 0
5, 25680, Note_on_c, 7, 74, 100
5, 25920, Note_off_c, 7, 74, 0
5, 25920, Note_on_c, 7, 74, 100
5, 26160, Note_off_c, 7, 74, 0
5, 26160, Note_on_c, 7, 70, 100
5, 26400, Note_off_c, 7, 70, 0
5, 26400, Note_on_c, 7, 70, 100
5, 26640, Note_off_c, 7, 70, 0
5, 26640, Note_on_c, 7, 74, 100
5, 26880, Note_off_c, 7, 74, 0
5, 26880, Note_on_c, 7, 74, 100
5, 27120, Note_off_c, 7, 74, 0
5, 27120, Note_on_c, 7, 70, 100
5, 27360, Note_off_c, 7, 70, 0
5, 27360, Note_on_c, 7, 70, 100
5, 27840, Note_off_c, 7, 70, 0
5, 27840, Note_on_c, 7, 70, 100
5, 27840, Sequencer_specific, 4, 5, 15, 15, 1
5, 28320, Note_off_c, 7, 70, 0
5, 28320, Note_on_c, 7, 67, 100
5, 28560, Note_off_c, 7, 67, 0
5, 28560, Note_on_c, 7, 65, 100
5, 28800, Note_off_c, 7, 65, 0
5, 28800, Note_on_c, 7, 67, 100
5, 29040, Note_off_c, 7, 67, 0
5, 29040, Note_on_c, 7, 70, 100
5, 29280, Note_off_c, 7, 70, 0
5, 30720, Note_on_c, 7, 81, 100
5, 31200, Note_off_c, 7, 81, 0
5, 31200, Note_on_c, 7, 77, 100
5, 31440, Note_off_c, 7, 77, 0
5, 31440, Note_on_c, 7, 79, 100
5, 31680, Note_off_c, 7, 79, 0
5, 31680, Note_on_c, 7, 79, 100
5, 31920, Note_off_c, 7, 79, 0
5, 31920, Note_on_c, 7, 73, 100
5, 32400, Note_off_c, 7, 73, 0
5, 32400, Note_on_c, 7, 74, 100
5, 32640, Note_off_c, 7, 74, 0
5, 32640, Note_on_c, 7, 74, 100
5, 32880, Note_off_c, 7, 74, 0
5, 32880, Note_on_c, 7, 74, 100
5, 33360, Note_off_c, 7, 74, 0
5, 33360, Note_on_c, 7, 74, 100
5, 33600, Note_off_c, 7, 74, 0
5, 33600, Note_on_c, 7, 72, 100
5, 33840, Note_off_c, 7, 72, 0
5, 33840, Note_on_c, 7, 70, 100
5, 34080, Note_off_c, 7, 70, 0
5, 34080, Note_on_c, 7, 70, 100
5, 34320, Note_off_c, 7, 70, 0
5, 34320, Note_on_c, 7, 70, 100
5, 34560, Note_off_c, 7, 70, 0
5, 34560, Note_on_c, 7, 74, 100
5, 35040, Note_off_c, 7, 74, 0
5, 35280, Note_on_c, 7, 70, 100
5, 35520, Note_off_c, 7, 70, 0
5, 35520, Note_on_c, 7, 70, 100
5, 36000, Note_off_c, 7, 70, 0
5, 36000, Note_on_c, 7, 74, 100
5, 36240, Note_off_c, 7, 74, 0
5, 36240, Note_on_c, 7, 72, 100
5, 36480, Note_off_c, 7, 72, 0
5, 36480, Note_on_c, 7, 72, 100
5, 36720, Note_off_c, 7, 72, 0
5, 38400, Note_on_c, 7, 79, 100
5, 38640, Note_off_c, 7, 79, 0
5, 38640, Note_on_c, 7, 77, 100
5, 39120, Note_off_c, 7, 77, 0
5, 39120, Note_on_c, 7, 79, 100
5, 39360, Note_off_c, 7, 79, 0
5, 39360, Note_on_c, 7, 79, 100
5, 39600, Note_off_c, 7, 79, 0
5, 39600, Note_on_c, 7, 73, 100
5, 40080, Note_off_c, 7, 73, 0
5, 40080, Note_on_c, 7, 74, 100
5, 40320, Note_off_c, 7, 74, 0
5, 40320, Note_on_c, 7, 72, 100
5, 40560, Note_off_c, 7, 72, 0
5, 40560, Note_on_c, 7, 70, 100
5, 40800, Note_off_c, 7, 70, 0
5, 40800, Note_on_c, 7, 70, 100
5, 41040, Note_off_c, 7, 70, 0
5, 41040, Note_on_c, 7, 74, 100
5, 41280, Note_off_c, 7, 74, 0
5, 41280, Note_on_c, 7, 74, 100
5, 41520, Note_off_c, 7, 74, 0
5, 41520, Note_on_c, 7, 70, 100
5, 41760, Note_off_c, 7, 70, 0
5, 41760, Note_on_c, 7, 70, 100
5, 42000, Note_off_c, 7, 70, 0
5, 42000, Note_on_c, 7, 74, 100
5, 42240, Note_off_c, 7, 74, 0
5, 42240, Note_on_c, 7, 74, 100
5, 42480, Note_off_c, 7, 74, 0
5, 42480, Note_on_c, 7, 70, 100
5, 42720, Note_off_c, 7, 70, 0
5, 42720, Note_on_c, 7, 70, 100
5, 43200, Note_off_c, 7, 70, 0
5, 43200, Note_on_c, 7, 70, 100
5, 43200, Sequencer_specific, 4, 5, 15, 15, 1
5, 43680, Note_off_c, 7, 70, 0
5, 43680, Note_on_c, 7, 67, 100
5, 43920, Note_off_c, 7, 67, 0
5, 43920, Note_on_c, 7, 65, 100
5, 44160, Note_off_c, 7, 65, 0
5, 44160, Note_on_c, 7, 67, 100
5, 44400, Note_off_c, 7, 67, 0
5, 44400, Note_on_c, 7, 70, 100
5, 44640, Note_off_c, 7, 70, 0
5, 46080, Note_on_c, 7, 77, 100
5, 46560, Note_off_c, 7, 77, 0
5, 46560, Note_on_c, 7, 77, 100
5, 47040, Note_off_c, 7, 77, 0
5, 47040, Note_on_c, 7, 77, 100
5, 47520, Note_off_c, 7, 77, 0
5, 47520, Note_on_c, 7, 74, 100
5, 47760, Note_off_c, 7, 74, 0
5, 47760, Note_on_c, 7, 77, 100
5, 48000, Note_off_c, 7, 77, 0
5, 48000, Note_on_c, 7, 77, 100
5, 48240, Note_off_c, 7, 77, 0
5, 48240, Note_on_c, 7, 77, 100
5, 48720, Note_off_c, 7, 77, 0
5, 48720, Note_on_c, 7, 74, 100
5, 48960, Note_off_c, 7, 74, 0
5, 48960, Note_on_c, 7, 77, 100
5, 49200, Note_off_c, 7, 77, 0
5, 49200, Note_on_c, 7, 79, 100
5, 49440, Note_off_c, 7, 79, 0
5, 49680, Note_on_c, 7, 72, 100
5, 49920, Note_off_c, 7, 72, 0
5, 49920, Note_on_c, 7, 74, 100
5, 50160, Note_off_c, 7, 74, 0
5, 50160, Note_on_c, 7, 77, 100
5, 50640, Note_off_c, 7, 77, 0
5, 50640, Note_on_c, 7, 77, 100
5, 50880, Note_off_c, 7, 77, 0
5, 50880, Note_on_c, 7, 77, 100
5, 51120, Note_off_c, 7, 77, 0
5, 51120, Note_on_c, 7, 74, 100
5, 51360, Note_off_c, 7, 74, 0
5, 51360, Note_on_c, 7, 77, 100
5, 51840, Note_off_c, 7, 77, 0
5, 51840, Note_on_c, 7, 79, 100
5, 52320, Note_off_c, 7, 79, 0
5, 52320, Note_on_c, 7, 73, 100
5, 52800, Note_off_c, 7, 73, 0
5, 52800, Note_on_c, 7, 70, 100
5, 53040, Note_off_c, 7, 70, 0
5, 53040, Note_on_c, 7, 70, 100
5, 53280, Note_off_c, 7, 70, 0
5, 53760, Note_on_c, 7, 82, 100
5, 54000, Note_off_c, 7, 82, 0
5, 54000, Note_on_c, 7, 82, 100
5, 54240, Note_off_c, 7, 82, 0
5, 54240, Note_on_c, 7, 79, 100
5, 54480, Note_off_c, 7, 79, 0
5, 54480, Note_on_c, 7, 77, 100
5, 54720, Note_off_c, 7, 77, 0
5, 54720, Note_on_c, 7, 79, 100
5, 55200, Note_off_c, 7, 79, 0
5, 55200, Note_on_c, 7, 72, 100
5, 55440, Note_off_c, 7, 72, 0
5, 55440, Note_on_c, 7, 72, 100
5, 55680, Note_off_c, 7, 72, 0
5, 55680, Note_on_c, 7, 73, 100
5, 56160, Note_off_c, 7, 73, 0
5, 56160, Note_on_c, 7, 70, 100
5, 56400, Note_off_c, 7, 70, 0
5, 56400, Note_on_c, 7, 73, 100
5, 56640, Note_off_c, 7, 73, 0
5, 56640, Note_on_c, 7, 73, 100
5, 56880, Note_off_c, 7, 73, 0
5, 56880, Note_on_c, 7, 70, 100
5, 57360, Note_off_c, 7, 70, 0
5, 57360, Note_on_c, 7, 73, 100
5, 57600, Note_off_c, 7, 73, 0
5, 57600, Note_on_c, 7, 73, 100
5, 57840, Note_off_c, 7, 73, 0
5, 57840, Note_on_c, 7, 70, 100
5, 58320, Note_off_c, 7, 70, 0
5, 58320, Note_on_c, 7, 77, 100
5, 58560, Note_off_c, 7, 77, 0
5, 58560, Note_on_c, 7, 77, 100
5, 58800, Note_off_c, 7, 77, 0
5, 58800, Note_on_c, 7, 75, 100
5, 59280, Note_off_c, 7, 75, 0
5, 59280, Note_on_c, 7, 70, 100
5, 59520, Note_off_c, 7, 70, 0
5, 59520, Note_on_c, 7, 74, 100
5, 59520, Sequencer_specific, 4, 5, 15, 15, 2
5, 59760, Note_off_c, 7, 74, 0
5, 59760, Note_on_c, 7, 68, 100
5, 59760, Sequencer_specific, 4, 5, 15, 15, 2
5, 60000, Note_off_c, 7, 68, 0
5, 60000, Note_on_c, 7, 69, 100
5, 60480, Note_off_c, 7, 69, 0
5, 60480, Note_on_c, 7, 69, 100
5, 60720, Note_off_c, 7, 69, 0
5, 60720, Note_on_c, 7, 69, 100
5, 60960, Note_off_c, 7, 69, 0
5, 60960, Note_on_c, 7, 69, 100
5, 61440, Note_off_c, 7, 69, 0
5, 69120, Note_on_c, 7, 82, 100
5, 69600, Note_off_c, 7, 82, 0
5, 69600, Note_on_c, 7, 77, 100
5, 70080, Note_off_c, 7, 77, 0
5, 70080, Note_on_c, 7, 79, 100
5, 70560, Note_off_c, 7, 79, 0
5, 70560, Note_on_c, 7, 74, 100
5, 71040, Note_off_c, 7, 74, 0
5, 71040, Note_on_c, 7, 77, 100
5, 71280, Note_off_c, 7, 77, 0
5, 71280, Note_on_c, 7, 72, 100
5, 71760, Note_off_c, 7, 72, 0
5, 71760, Note_on_c, 7, 74, 100
5, 72000, Note_off_c, 7, 74, 0
5, 72000, Note_on_c, 7, 72, 100
5, 72240, Note_off_c, 7, 72, 0
5, 72240, Note_on_c, 7, 70, 100
5, 72480, Note_off_c, 7, 70, 0
5, 72480, Note_on_c, 7, 70, 100
5, 72720, Note_off_c, 7, 70, 0
5, 72720, Note_on_c, 7, 70, 100
5, 72960, Note_off_c, 7, 70, 0
5, 72960, Note_on_c, 7, 74, 100
5, 73200, Note_off_c, 7, 74, 0
5, 73200, Note_on_c, 7, 72, 100
5, 73440, Note_off_c, 7, 72, 0
5, 73440, Note_on_c, 7, 70, 100
5, 73680, Note_off_c, 7, 70, 0
5, 73680, Note_on_c, 7, 67, 100
5, 73920, Note_off_c, 7, 67, 0
5, 73920, Note_on_c, 7, 70, 100
5, 74400, Note_off_c, 7, 70, 0
5, 74400, Note_on_c, 7, 70, 100
5, 74640, Note_off_c, 7, 70, 0
5, 74640, Note_on_c, 7, 74, 100
5, 74880, Note_off_c, 7, 74, 0
5, 74880, Note_on_c, 7, 74, 100
5, 75120, Note_off_c, 7, 74, 0
5, 75120, Note_on_c, 7, 72, 100
5, 75360, Note_off_c, 7, 72, 0
5, 75360, Note_on_c, 7, 70, 100
5, 75600, Note_off_c, 7, 70, 0
5, 75600, Note_on_c, 7, 67, 100
5, 75840, Note_off_c, 7, 67, 0
5, 76800, Note_on_c, 7, 77, 100
5, 77280, Note_off_c, 7, 77, 0
5, 77280, Note_on_c, 7, 79, 100
5, 77760, Note_off_c, 7, 79, 0
5, 77760, Note_on_c, 7, 79, 100
5, 78240, Note_off_c, 7, 79, 0
5, 78240, Note_on_c, 7, 73, 100
5, 78720, Note_off_c, 7, 73, 0
5, 78720, Note_on_c, 7, 74, 100
5, 79200, Note_off_c, 7, 74, 0
5, 79200, Note_on_c, 7, 70, 100
5, 79440, Note_off_c, 7, 70, 0
5, 79440, Note_on_c, 7, 74, 100
5, 79680, Note_off_c, 7, 74, 0
5, 79680, Note_on_c, 7, 74, 100
5, 79920, Note_off_c, 7, 74, 0
5, 79920, Note_on_c, 7, 70, 100
5, 80160, Note_off_c, 7, 70, 0
5, 80160, Note_on_c, 7, 70, 100
5, 80400, Note_off_c, 7, 70, 0
5, 80400, Note_on_c, 7, 74, 100
5, 80640, Note_off_c, 7, 74, 0
5, 80640, Note_on_c, 7, 74, 100
5, 80880, Note_off_c, 7, 74, 0
5, 80880, Note_on_c, 7, 70, 100
5, 81120, Note_off_c, 7, 70, 0
5, 81120, Note_on_c, 7, 70, 100
5, 81600, Note_off_c, 7, 70, 0
5, 81600, Note_on_c, 7, 70, 100
5, 81600, Sequencer_specific, 4, 5, 15, 15, 1
5, 82080, Note_off_c, 7, 70, 0
5, 82080, Note_on_c, 7, 67, 100
5, 82320, Note_off_c, 7, 67, 0
5, 82320, Note_on_c, 7, 65, 100
5, 82560, Note_off_c, 7, 65, 0
5, 82560, Note_on_c, 7, 67, 100
5, 82800, Note_off_c, 7, 67, 0
5, 82800, Note_on_c, 7, 70, 100
5, 83040, Note_off_c, 7, 70, 0
5, 84480, Note_on_c, 7, 81, 100
5, 84960, Note_off_c, 7, 81, 0
5, 84960, Note_on_c, 7, 77, 100
5, 85200, Note_off_c, 7, 77, 0
5, 85200, Note_on_c, 7, 79, 100
5, 85440, Note_off_c, 7, 79, 0
5, 85440, Note_on_c, 7, 79, 100
5, 85680, Note_off_c, 7, 79, 0
5, 85680, Note_on_c, 7, 73, 100
5, 86160, Note_off_c, 7, 73, 0
5, 86160, Note_on_c, 7, 74, 100
5, 86400, Note_off_c, 7, 74, 0
5, 86400, Note_on_c, 7, 74, 100
5, 86640, Note_off_c, 7, 74, 0
5, 86640, Note_on_c, 7, 74, 100
5, 87120, Note_off_c, 7, 74, 0
5, 87120, Note_on_c, 7, 74, 100
5, 87360, Note_off_c, 7, 74, 0
5, 87360, Note_on_c, 7, 72, 100
5, 87600, Note_off_c, 7, 72, 0
5, 87600, Note_on_c, 7, 70, 100
5, 87840, Note_off_c, 7, 70, 0
5, 87840, Note_on_c, 7, 70, 100
5, 88080, Note_off_c, 7, 70, 0
5, 88080, Note_on_c, 7, 70, 100
5, 88320, Note_off_c, 7, 70, 0
5, 88320, Note_on_c, 7, 74, 100
5, 88800, Note_off_c, 7, 74, 0
5, 89040, Note_on_c, 7, 70, 100
5, 89280, Note_off_c, 7, 70, 0
5, 89280, Note_on_c, 7, 70, 100
5, 89760, Note_off_c, 7, 70, 0
5, 89760, Note_on_c, 7, 74, 100
5, 90000, Note_off_c, 7, 74, 0
5, 90000, Note_on_c, 7, 72, 100
5, 90240, Note_off_c, 7, 72, 0
5, 90240, Note_on_c, 7, 72, 100
5, 90480, Note_off_c, 7, 72, 0
5, 92160, Note_on_c, 7, 79, 100
5, 92400, Note_off_c, 7, 79, 0
5, 92400, Note_on_c, 7, 77, 100
5, 92880, Note_off_c, 7, 77, 0
5, 92880, Note_on_c, 7, 79, 100
5, 93120, Note_off_c, 7, 79, 0
5, 93120, Note_on_c, 7, 79, 100
5, 93360, Note_off_c, 7, 79, 0
5, 93360, Note_on_c, 7, 73, 100
5, 93840, Note_off_c, 7, 73, 0
5, 93840, Note_on_c, 7, 74, 100
5, 94080, Note_off_c, 7, 74, 0
5, 94080, Note_on_c, 7, 72, 100
5, 94320, Note_off_c, 7, 72, 0
5, 94320, Note_on_c, 7, 70, 100
5, 94560, Note_off_c, 7, 70, 0
5, 94560, Note_on_c, 7, 70, 100
5, 94800, Note_off_c, 7, 70, 0
5, 94800, Note_on_c, 7, 74, 100
5, 95040, Note_off_c, 7, 74, 0
5, 95040, Note_on_c, 7, 74, 100
5, 95280, Note_off_c, 7, 74, 0
5, 95280, Note_on_c, 7, 70, 100
5, 95520, Note_off_c, 7, 70, 0
5, 95520, Note_on_c, 7, 70, 100
5, 95760, Note_off_c, 7, 70, 0
5, 95760, Note_on_c, 7, 74, 100
5, 96000, Note_off_c, 7, 74, 0
5, 96000, Note_on_c, 7, 74, 100
5, 96240, Note_off_c, 7, 74, 0
5, 96240, Note_on_c, 7, 70, 100
5, 96480, Note_off_c, 7, 70, 0
5, 96480, Note_on_c, 7, 70, 100
5, 96960, Note_off_c, 7, 70, 0
5, 96960, Note_on_c, 7, 70, 100
5, 96960, Sequencer_specific, 4, 5, 15, 15, 1
5, 97440, Note_off_c, 7, 70, 0
5, 97440, Note_on_c, 7, 67, 100
5, 97680, Note_off_c, 7, 67, 0
5, 97680, Note_on_c, 7, 65, 100
5, 97920, Note_off_c, 7, 65, 0
5, 97920, Note_on_c, 7, 67, 100
5, 98160, Note_off_c, 7, 67, 0
5, 98160, Note_on_c, 7, 70, 100
5, 98400, Note_off_c, 7, 70, 0
5, 99840, Note_on_c, 7, 77, 100
5, 100320, Note_off_c, 7, 77, 0
5, 100320, Note_on_c, 7, 77, 100
5, 100800, Note_off_c, 7, 77, 0
5, 100800, Note_on_c, 7, 77, 100
5, 101280, Note_off_c, 7, 77, 0
5, 101280, Note_on_c, 7, 74, 100
5, 101520, Note_off_c, 7, 74, 0
5, 101520, Note_on_c, 7, 77, 100
5, 101760, Note_off_c, 7, 77, 0
5, 101760, Note_on_c, 7, 77, 100
5, 102000, Note_off_c, 7, 77, 0
5, 102000, Note_on_c, 7, 77, 100
5, 102480, Note_off_c, 7, 77, 0
5, 102480, Note_on_c, 7, 74, 100
5, 102720, Note_off_c, 7, 74, 0
5, 102720, Note_on_c, 7, 77, 100
5, 102960, Note_off_c, 7, 77, 0
5, 102960, Note_on_c, 7, 79, 100
5, 103200, Note_off_c, 7, 79, 0
5, 103440, Note_on_c, 7, 72, 100
5, 103680, Note_off_c, 7, 72, 0
5, 103680, Note_on_c, 7, 74, 100
5, 103920, Note_off_c, 7, 74, 0
5, 103920, Note_on_c, 7, 77, 100
5, 104400, Note_off_c, 7, 77, 0
5, 104400, Note_on_c, 7, 77, 100
5, 104640, Note_off_c, 7, 77, 0
5, 104640, Note_on_c, 7, 77, 100
5, 104880, Note_off_c, 7, 77, 0
5, 104880, Note_on_c, 7, 74, 100
5, 105120, Note_off_c, 7, 74, 0
5, 105120, Note_on_c, 7, 77, 100
5, 105600, Note_off_c, 7, 77, 0
5, 105600, Note_on_c, 7, 79, 100
5, 106080, Note_off_c, 7, 79, 0
5, 106080, Note_on_c, 7, 73, 100
5, 106560, Note_off_c, 7, 73, 0
5, 106560, Note_on_c, 7, 70, 100
5, 106800, Note_off_c, 7, 70, 0
5, 106800, Note_on_c, 7, 70, 100
5, 107040, Note_off_c, 7, 70, 0
5, 107520, Note_on_c, 7, 82, 100
5, 107760, Note_off_c, 7, 82, 0
5, 107760, Note_on_c, 7, 82, 100
5, 108000, Note_off_c, 7, 82, 0
5, 108000, Note_on_c, 7, 79, 100
5, 108240, Note_off_c, 7, 79, 0
5, 108240, Note_on_c, 7, 77, 100
5, 108480, Note_off_c, 7, 77, 0
5, 108480, Note_on_c, 7, 79, 100
5, 108960, Note_off_c, 7, 79, 0
5, 108960, Note_on_c, 7, 72, 100
5, 109200, Note_off_c, 7, 72, 0
5, 109200, Note_on_c, 7, 72, 100
5, 109440, Note_off_c, 7, 72, 0
5, 109440, Note_on_c, 7, 73, 100
5, 109920, Note_off_c, 7, 73, 0
5, 109920, Note_on_c, 7, 70, 100
5, 110160, Note_off_c, 7, 70, 0
5, 110160, Note_on_c, 7, 73, 100
5, 110400, Note_off_c, 7, 73, 0
5, 110400, Note_on_c, 7, 73, 100
5, 110640, Note_off_c, 7, 73, 0
5, 110640, Note_on_c, 7, 70, 100
5, 111120, Note_off_c, 7, 70, 0
5, 111120, Note_on_c, 7, 73, 100
5, 111360, Note_off_c, 7, 73, 0
5, 111360, Note_on_c, 7, 73, 100
5, 111600, Note_off_c, 7, 73, 0
5, 111600, Note_on_c, 7, 70, 100
5, 112080, Note_off_c, 7, 70, 0
5, 112080, Note_on_c, 7, 77, 100
5, 112320, Note_off_c, 7, 77, 0
5, 112320, Note_on_c, 7, 77, 100
5, 112560, Note_off_c, 7, 77, 0
5, 112560, Note_on_c, 7, 75, 100
5, 113040, Note_off_c, 7, 75, 0
5, 113040, Note_on_c, 7, 70, 100
5, 113280, Note_off_c, 7, 70, 0
5, 113280, Note_on_c, 7, 74, 100
5, 113280, Sequencer_specific, 4, 5, 15, 15, 2
5, 113520, Note_off_c, 7, 74, 0
5, 113520, Note_on_c, 7, 68, 100
5, 113520, Sequencer_specific, 4, 5, 15, 15, 2
5, 113760, Note_off_c, 7, 68, 0
5, 113760, Note_on_c, 7, 69, 100
5, 114240, Note_off_c, 7, 69, 0
5, 114240, Note_on_c, 7, 69, 100
5, 114480, Note_off_c, 7, 69, 0
5, 114480, Note_on_c, 7, 69, 100
5, 114720, Note_off_c, 7, 69, 0
5, 114720, Note_on_c, 7, 69, 100
5, 115200, Note_off_c, 7, 69, 0
5, 130560, Note_on_c, 7, 82, 100
5, 131040, Note_off_c, 7, 82, 0
5, 131040, Note_on_c, 7, 77, 100
5, 131520, Note_off_c, 7, 77, 0
5, 131520, Note_on_c, 7, 79, 100
5, 132000, Note_off_c, 7, 79, 0
5, 132000, Note_on_c, 7, 74, 100
5, 132480, Note_off_c, 7, 74, 0
5, 132480, Note_on_c, 7, 77, 100
5, 132720, Note_off_c, 7, 77, 0
5, 132720, Note_on_c, 7, 72, 100
5, 133200, Note_off_c, 7, 72, 0
5, 133200, Note_on_c, 7, 74, 100
5, 133440, Note_off_c, 7, 74, 0
5, 133440, Note_on_c, 7, 72, 100
5, 133680, Note_off_c, 7, 72, 0
5, 133680, Note_on_c, 7, 70, 100
5, 133920, Note_off_c, 7, 70, 0
5, 133920, Note_on_c, 7, 70, 100
5, 134160, Note_off_c, 7, 70, 0
5, 134160, Note_on_c, 7, 70, 100
5, 134400, Note_off_c, 7, 70, 0
5, 134400, Note_on_c, 7, 74, 100
5, 134640, Note_off_c, 7, 74, 0
5, 134640, Note_on_c, 7, 72, 100
5, 134880, Note_off_c, 7, 72, 0
5, 134880, Note_on_c, 7, 70, 100
5, 135120, Note_off_c, 7, 70, 0
5, 135120, Note_on_c, 7, 67, 100
5, 135360, Note_off_c, 7, 67, 0
5, 135360, Note_on_c, 7, 70, 100
5, 135840, Note_off_c, 7, 70, 0
5, 135840, Note_on_c, 7, 70, 100
5, 136080, Note_off_c, 7, 70, 0
5, 136080, Note_on_c, 7, 74, 100
5, 136320, Note_off_c, 7, 74, 0
5, 136320, Note_on_c, 7, 74, 100
5, 136560, Note_off_c, 7, 74, 0
5, 136560, Note_on_c, 7, 72, 100
5, 136800, Note_off_c, 7, 72, 0
5, 136800, Note_on_c, 7, 70, 100
5, 137040, Note_off_c, 7, 70, 0
5, 137040, Note_on_c, 7, 67, 100
5, 137280, Note_off_c, 7, 67, 0
5, 138240, Note_on_c, 7, 77, 100
5, 138720, Note_off_c, 7, 77, 0
5, 138720, Note_on_c, 7, 79, 100
5, 139200, Note_off_c, 7, 79, 0
5, 139200, Note_on_c, 7, 79, 100
5, 139680, Note_off_c, 7, 79, 0
5, 139680, Note_on_c, 7, 73, 100
5, 140160, Note_off_c, 7, 73, 0
5, 140160, Note_on_c, 7, 74, 100
5, 140640, Note_off_c, 7, 74, 0
5, 140640, Note_on_c, 7, 70, 100
5, 140880, Note_off_c, 7, 70, 0
5, 140880, Note_on_c, 7, 74, 100
5, 141120, Note_off_c, 7, 74, 0
5, 141120, Note_on_c, 7, 74, 100
5, 141360, Note_off_c, 7, 74, 0
5, 141360, Note_on_c, 7, 70, 100
5, 141600, Note_off_c, 7, 70, 0
5, 141600, Note_on_c, 7, 70, 100
5, 141840, Note_off_c, 7, 70, 0
5, 141840, Note_on_c, 7, 74, 100
5, 142080, Note_off_c, 7, 74, 0
5, 142080, Note_on_c, 7, 74, 100
5, 142320, Note_off_c, 7, 74, 0
5, 142320, Note_on_c, 7, 70, 100
5, 142560, Note_off_c, 7, 70, 0
5, 142560, Note_on_c, 7, 70, 100
5, 143040, Note_off_c, 7, 70, 0
5, 143040, Note_on_c, 7, 70, 100
5, 143040, Sequencer_specific, 4, 5, 15, 15, 1
5, 143520, Note_off_c, 7, 70, 0
5, 143520, Note_on_c, 7, 67, 100
5, 143760, Note_off_c, 7, 67, 0
5, 143760, Note_on_c, 7, 65, 100
5, 144000, Note_off_c, 7, 65, 0
5, 144000, Note_on_c, 7, 67, 100
5, 144240, Note_off_c, 7, 67, 0
5, 144240, Note_on_c, 7, 70, 100
5, 144480, Note_off_c, 7, 70, 0
5, 145920, Note_on_c, 7, 81, 100
5, 146400, Note_off_c, 7, 81, 0
5, 146400, Note_on_c, 7, 77, 100
5, 146640, Note_off_c, 7, 77, 0
5, 146640, Note_on_c, 7, 79, 100
5, 146880, Note_off_c, 7, 79, 0
5, 146880, Note_on_c, 7, 79, 100
5, 147120, Note_off_c, 7, 79, 0
5, 147120, Note_on_c, 7, 73, 100
5, 147600, Note_off_c, 7, 73, 0
5, 147600, Note_on_c, 7, 74, 100
5, 147840, Note_off_c, 7, 74, 0
5, 147840, Note_on_c, 7, 74, 100
5, 148080, Note_off_c, 7, 74, 0
5, 148080, Note_on_c, 7, 74, 100
5, 148560, Note_off_c, 7, 74, 0
5, 148560, Note_on_c, 7, 74, 100
5, 148800, Note_off_c, 7, 74, 0
5, 148800, Note_on_c, 7, 72, 100
5, 149040, Note_off_c, 7, 72, 0
5, 149040, Note_on_c, 7, 70, 100
5, 149280, Note_off_c, 7, 70, 0
5, 149280, Note_on_c, 7, 70, 100
5, 149520, Note_off_c, 7, 70, 0
5, 149520, Note_on_c, 7, 70, 100
5, 149760, Note_off_c, 7, 70, 0
5, 149760, Note_on_c, 7, 74, 100
5, 150240, Note_off_c, 7, 74, 0
5, 150480, Note_on_c, 7, 70, 100
5, 150720, Note_off_c, 7, 70, 0
5, 150720, Note_on_c, 7, 70, 100
5, 151200, Note_off_c, 7, 70, 0
5, 151200, Note_on_c, 7, 74, 100
5, 151440, Note_off_c, 7, 74, 0
5, 151440, Note_on_c, 7, 72, 100
5, 151680, Note_off_c, 7, 72, 0
5, 151680, Note_on_c, 7, 72, 100
5, 151920, Note_off_c, 7, 72, 0
5, 153600, Note_on_c, 7, 79, 100
5, 153840, Note_off_c, 7, 79, 0
5, 153840, Note_on_c, 7, 77, 100
5, 154320, Note_off_c, 7, 77, 0
5, 154320, Note_on_c, 7, 79, 100
5, 154560, Note_off_c, 7, 79, 0
5, 154560, Note_on_c, 7, 79, 100
5, 154800, Note_off_c, 7, 79, 0
5, 154800, Note_on_c, 7, 73, 100
5, 155280, Note_off_c, 7, 73, 0
5, 155280, Note_on_c, 7, 74, 100
5, 155520, Note_off_c, 7, 74, 0
5, 155520, Note_on_c, 7, 72, 100
5, 155760, Note_off_c, 7, 72, 0
5, 155760, Note_on_c, 7, 70, 100
5, 156000, Note_off_c, 7, 70, 0
5, 156000, Note_on_c, 7, 70, 100
5, 156240, Note_off_c, 7, 70, 0
5, 156240, Note_on_c, 7, 74, 100
5, 156480, Note_off_c, 7, 74, 0
5, 156480, Note_on_c, 7, 74, 100
5, 156720, Note_off_c, 7, 74, 0
5, 156720, Note_on_c, 7, 70, 100
5, 156960, Note_off_c, 7, 70, 0
5, 156960, Note_on_c, 7, 70, 100
5, 157200, Note_off_c, 7, 70, 0
5, 157200, Note_on_c, 7, 74, 100
5, 157440, Note_off_c, 7, 74, 0
5, 157440, Note_on_c, 7, 74, 100
5, 157680, Note_off_c, 7, 74, 0
5, 157680, Note_on_c, 7, 70, 100
5, 157920, Note_off_c, 7, 70, 0
5, 157920, Note_on_c, 7, 70, 100
5, 158400, Note_off_c, 7, 70, 0
5, 158400, Note_on_c, 7, 70, 100
5, 158400, Sequencer_specific, 4, 5, 15, 15, 1
5, 158880, Note_off_c, 7, 70, 0
5, 158880, Note_on_c, 7, 67, 100
5, 159120, Note_off_c, 7, 67, 0
5, 159120, Note_on_c, 7, 65, 100
5, 159360, Note_off_c, 7, 65, 0
5, 159360, Note_on_c, 7, 67, 100
5, 159600, Note_off_c, 7, 67, 0
5, 159600, Note_on_c, 7, 70, 100
5, 159840, Note_off_c, 7, 70, 0
5, 161280, Note_on_c, 7, 77, 100
5, 161760, Note_off_c, 7, 77, 0
5, 161760, Note_on_c, 7, 77, 100
5, 162240, Note_off_c, 7, 77, 0
5, 162240, Note_on_c, 7, 77, 100
5, 162720, Note_off_c, 7, 77, 0
5, 162720, Note_on_c, 7, 74, 100
5, 162960, Note_off_c, 7, 74, 0
5, 162960, Note_on_c, 7, 77, 100
5, 163200, Note_off_c, 7, 77, 0
5, 163200, Note_on_c, 7, 77, 100
5, 163440, Note_off_c, 7, 77, 0
5, 163440, Note_on_c, 7, 77, 100
5, 163920, Note_off_c, 7, 77, 0
5, 163920, Note_on_c, 7, 74, 100
5, 164160, Note_off_c, 7, 74, 0
5, 164160, Note_on_c, 7, 77, 100
5, 164400, Note_off_c, 7, 77, 0
5, 164400, Note_on_c, 7, 79, 100
5, 164640, Note_off_c, 7, 79, 0
5, 164880, Note_on_c, 7, 72, 100
5, 165120, Note_off_c, 7, 72, 0
5, 165120, Note_on_c, 7, 74, 100
5, 165360, Note_off_c, 7, 74, 0
5, 165360, Note_on_c, 7, 77, 100
5, 165840, Note_off_c, 7, 77, 0
5, 165840, Note_on_c, 7, 77, 100
5, 166080, Note_off_c, 7, 77, 0
5, 166080, Note_on_c, 7, 77, 100
5, 166320, Note_off_c, 7, 77, 0
5, 166320, Note_on_c, 7, 74, 100
5, 166560, Note_off_c, 7, 74, 0
5, 166560, Note_on_c, 7, 77, 100
5, 167040, Note_off_c, 7, 77, 0
5, 167040, Note_on_c, 7, 79, 100
5, 167520, Note_off_c, 7, 79, 0
5, 167520, Note_on_c, 7, 73, 100
5, 168000, Note_off_c, 7, 73, 0
5, 168000, Note_on_c, 7, 70, 100
5, 168240, Note_off_c, 7, 70, 0
5, 168240, Note_on_c, 7, 70, 100
5, 168480, Note_off_c, 7, 70, 0
5, 168960, Note_on_c, 7, 82, 100
5, 169200, Note_off_c, 7, 82, 0
5, 169200, Note_on_c, 7, 82, 100
5, 169440, Note_off_c, 7, 82, 0
5, 169440, Note_on_c, 7, 79, 100
5, 169680, Note_off_c, 7, 79, 0
5, 169680, Note_on_c, 7, 77, 100
5, 169920, Note_off_c, 7, 77, 0
5, 169920, Note_on_c, 7, 79, 100
5, 170400, Note_off_c, 7, 79, 0
5, 170400, Note_on_c, 7, 72, 100
5, 170640, Note_off_c, 7, 72, 0
5, 170640, Note_on_c, 7, 72, 100
5, 170880, Note_off_c, 7, 72, 0
5, 170880, Note_on_c, 7, 73, 100
5, 171360, Note_off_c, 7, 73, 0
5, 171360, Note_on_c, 7, 70, 100
5, 171600, Note_off_c, 7, 70, 0
5, 171600, Note_on_c, 7, 73, 100
5, 171840, Note_off_c, 7, 73, 0
5, 171840, Note_on_c, 7, 73, 100
5, 172080, Note_off_c, 7, 73, 0
5, 172080, Note_on_c, 7, 70, 100
5, 172560, Note_off_c, 7, 70, 0
5, 172560, Note_on_c, 7, 73, 100
5, 172800, Note_off_c, 7, 73, 0
5, 172800, Note_on_c, 7, 73, 100
5, 173040, Note_off_c, 7, 73, 0
5, 173040, Note_on_c, 7, 70, 100
5, 173520, Note_off_c, 7, 70, 0
5, 173520, Note_on_c, 7, 77, 100
5, 173760, Note_off_c, 7, 77, 0
5, 173760, Note_on_c, 7, 77, 100
5, 174000, Note_off_c, 7, 77, 0
5, 174000, Note_on_c, 7, 75, 100
5, 174480, Note_off_c, 7, 75, 0
5, 174480, Note_on_c, 7, 70, 100
5, 174720, Note_off_c, 7, 70, 0
5, 174720, Note_on_c, 7, 74, 100
5, 174720, Sequencer_specific, 4, 5, 15, 15, 2
5, 174960, Note_off_c, 7, 74, 0
5, 174960, Note_on_c, 7, 68, 100
5, 174960, Sequencer_specific, 4, 5, 15, 15, 2
5, 175200, Note_off_c, 7, 68, 0
5, 175200, Note_on_c, 7, 69, 100
5, 175680, Note_off_c, 7, 69, 0
5, 175680, Note_on_c, 7, 69, 100
5, 175920, Note_off_c, 7, 69, 0
5, 175920, Note_on_c, 7, 69, 100
5, 176160, Note_off_c, 7, 69, 0
5, 176160, Note_on_c, 7, 69, 100
5, 176640, Note_off_c, 7, 69, 0
5, 192000, Note_on_c, 7, 82, 100
5, 192240, Note_off_c, 7, 82, 0
5, 192240, Note_on_c, 7, 82, 100
5, 192480, Note_off_c, 7, 82, 0
5, 192480, Note_on_c, 7, 80, 100
5, 192720, Note_off_c, 7, 80, 0
5, 192720, Note_on_c, 7, 77, 100
5, 192960, Note_off_c, 7, 77, 0
5, 195120, Note_on_c, 7, 82, 100
5, 195360, Note_off_c, 7, 82, 0
5, 195360, Note_on_c, 7, 79, 100
5, 195600, Note_off_c, 7, 79, 0
5, 195600, Note_on_c, 7, 77, 100
5, 195840, Note_off_c, 7, 77, 0
5, 195840, Note_on_c, 7, 79, 100
5, 196320, Note_off_c, 7, 79, 0
5, 196320, Note_on_c, 7, 82, 100
5, 196800, Note_off_c, 7, 82, 0
5, 196800, Note_on_c, 7, 51, 100
5, 197040, Note_off_c, 7, 51, 0
5, 198000, Note_on_c, 7, 82, 100
5, 198240, Note_off_c, 7, 82, 0
5, 198240, Note_on_c, 7, 79, 100
5, 198480, Note_off_c, 7, 79, 0
5, 198480, Note_on_c, 7, 77, 100
5, 198720, Note_off_c, 7, 77, 0
5, 198960, Note_on_c, 7, 82, 100
5, 199200, Note_off_c, 7, 82, 0
5, 199200, Note_on_c, 7, 79, 100
5, 199440, Note_off_c, 7, 79, 0
5, 199440, Note_on_c, 7, 77, 100
5, 199680, Note_off_c, 7, 77, 0
5, 199680, Note_on_c, 7, 79, 100
5, 200160, Note_off_c, 7, 79, 0
5, 200160, Note_on_c, 7, 82, 100
5, 200640, Note_off_c, 7, 82, 0
5, 201840, Note_on_c, 7, 82, 100
5, 202080, Note_off_c, 7, 82, 0
5, 202080, Note_on_c, 7, 79, 100
5, 202320, Note_off_c, 7, 79, 0
5, 202320, Note_on_c, 7, 77, 100
5, 202560, Note_off_c, 7, 77, 0
5, 202560, Note_on_c, 7, 82, 100
5, 203040, Note_off_c, 7, 82, 0
5, 203040, Note_on_c, 7, 79, 100
5, 203520, Note_off_c, 7, 79, 0
5, 203520, Control_c, 7, 7, 127
5, 203520, Pitch_bend_c, 7, 8192
5, 203520, End_track
6, 0, Start_track
6, 0, Title_t, "Chart Position UK No. 15"
6, 0, Control_c, 9, 7, 125
6, 0, Sequencer_specific, 5, 5, 15, 9, 8, 64
6, 0, Sequencer_specific, 15, 5, 15, 6, 71, 101, 110, 101, 114, 97, 108, 32, 77, 73, 68, 73
6, 0, Key_signature, -2, "major"
6, 0, Sequencer_specific, 4, 5, 15, 16, 25
6, 0, Program_c, 9, 0
6, 0, Control_c, 9, 6, 12
6, 0, Control_c, 9, 100, 0
6, 0, Control_c, 9, 101, 0
6, 1920, Key_signature, -2, "major"
6, 1920, Key_signature, 0, "major"
6, 3840, Note_on_c, 9, 42, 95
6, 3840, Note_on_c, 9, 36, 111
6, 4320, Note_off_c, 9, 42, 95
6, 4320, Note_off_c, 9, 36, 111
6, 4320, Note_on_c, 9, 42, 95
6, 4320, Note_on_c, 9, 36, 95
6, 4800, Note_off_c, 9, 42, 95
6, 4800, Note_off_c, 9, 36, 95
6, 4800, Note_on_c, 9, 42, 95
6, 4800, Note_on_c, 9, 38, 95
6, 5040, Note_off_c, 9, 42, 95
6, 5040, Note_off_c, 9, 38, 95
6, 5280, Note_on_c, 9, 42, 95
6, 5520, Note_off_c, 9, 42, 95
6, 5520, Note_on_c, 9, 36, 95
6, 5760, Note_off_c, 9, 36, 95
6, 5760, Note_on_c, 9, 42, 95
6, 5760, Note_on_c, 9, 36, 111
6, 6240, Note_off_c, 9, 42, 95
6, 6240, Note_off_c, 9, 36, 111
6, 6240, Note_on_c, 9, 42, 95
6, 6240, Note_on_c, 9, 36, 95
6, 6720, Note_off_c, 9, 42, 95
6, 6720, Note_off_c, 9, 36, 95
6, 6720, Note_on_c, 9, 42, 95
6, 6720, Note_on_c, 9, 38, 111
6, 7200, Note_off_c, 9, 42, 95
6, 7200, Note_off_c, 9, 38, 111
6, 7200, Note_on_c, 9, 42, 95
6, 7680, Note_off_c, 9, 42, 95
6, 7680, Note_on_c, 9, 42, 95
6, 7680, Note_on_c, 9, 36, 111
6, 8160, Note_off_c, 9, 42, 95
6, 8160, Note_off_c, 9, 36, 111
6, 8160, Note_on_c, 9, 42, 95
6, 8160, Note_on_c, 9, 36, 95
6, 8640, Note_off_c, 9, 42, 95
6, 8640, Note_off_c, 9, 36, 95
6, 8640, Note_on_c, 9, 42, 95
6, 8640, Note_on_c, 9, 38, 95
6, 8880, Note_off_c, 9, 42, 95
6, 8880, Note_off_c, 9, 38, 95
6, 9120, Note_on_c, 9, 42, 95
6, 9360, Note_off_c, 9, 42, 95
6, 9360, Note_on_c, 9, 36, 95
6, 9600, Note_off_c, 9, 36, 95
6, 9600, Note_on_c, 9, 42, 95
6, 9600, Note_on_c, 9, 36, 111
6, 10080, Note_off_c, 9, 42, 95
6, 10080, Note_off_c, 9, 36, 111
6, 10080, Note_on_c, 9, 42, 95
6, 10080, Note_on_c, 9, 36, 95
6, 10560, Note_off_c, 9, 42, 95
6, 10560, Note_off_c, 9, 36, 95
6, 10560, Note_on_c, 9, 42, 95
6, 10560, Note_on_c, 9, 38, 111
6, 11040, Note_off_c, 9, 42, 95
6, 11040, Note_off_c, 9, 38, 111
6, 11040, Note_on_c, 9, 42, 95
6, 11520, Note_off_c, 9, 42, 95
6, 11520, Note_on_c, 9, 42, 95
6, 11520, Note_on_c, 9, 36, 95
6, 12000, Note_off_c, 9, 42, 95
6, 12000, Note_off_c, 9, 36, 95
6, 12000, Note_on_c, 9, 42, 95
6, 12000, Note_on_c, 9, 36, 95
6, 12480, Note_off_c, 9, 42, 95
6, 12480, Note_off_c, 9, 36, 95
6, 12480, Note_on_c, 9, 42, 95
6, 12480, Note_on_c, 9, 38, 95
6, 12720, Note_off_c, 9, 42, 95
6, 12720, Note_off_c, 9, 38, 95
6, 12960, Note_on_c, 9, 42, 95
6, 13200, Note_off_c, 9, 42, 95
6, 13200, Note_on_c, 9, 36, 95
6, 13440, Note_off_c, 9, 36, 95
6, 13440, Note_on_c, 9, 42, 95
6, 13440, Note_on_c, 9, 36, 95
6, 13920, Note_off_c, 9, 42, 95
6, 13920, Note_off_c, 9, 36, 95
6, 13920, Note_on_c, 9, 42, 95
6, 13920, Note_on_c, 9, 36, 95
6, 14400, Note_off_c, 9, 42, 95
6, 14400, Note_off_c, 9, 36, 95
6, 14400, Note_on_c, 9, 42, 95
6, 14400, Note_on_c, 9, 38, 111
6, 14880, Note_off_c, 9, 42, 95
6, 14880, Note_off_c, 9, 38, 111
6, 14880, Note_on_c, 9, 42, 95
6, 14880, Note_on_c, 9, 38, 111
6, 15360, Note_off_c, 9, 42, 95
6, 15360, Note_off_c, 9, 38, 111
6, 15360, Note_on_c, 9, 42, 95
6, 15360, Note_on_c, 9, 36, 111
6, 15600, Note_off_c, 9, 42, 95
6, 15600, Note_off_c, 9, 36, 111
6, 15600, Note_on_c, 9, 42, 63
6, 15840, Note_off_c, 9, 42, 63
6, 15840, Note_on_c, 9, 42, 95
6, 15840, Note_on_c, 9, 36, 95
6, 16080, Note_off_c, 9, 42, 95
6, 16080, Note_off_c, 9, 36, 95
6, 16080, Note_on_c, 9, 42, 63
6, 16320, Note_off_c, 9, 42, 63
6, 16320, Note_on_c, 9, 42, 95
6, 16320, Note_on_c, 9, 38, 95
6, 16560, Note_off_c, 9, 42, 95
6, 16560, Note_off_c, 9, 38, 95
6, 16560, Note_on_c, 9, 42, 63
6, 16800, Note_off_c, 9, 42, 63
6, 16800, Note_on_c, 9, 42, 95
6, 17040, Note_off_c, 9, 42, 95
6, 17040, Note_on_c, 9, 42, 63
6, 17040, Note_on_c, 9, 36, 95
6, 17280, Note_off_c, 9, 42, 63
6, 17280, Note_off_c, 9, 36, 95
6, 17280, Note_on_c, 9, 42, 95
6, 17280, Note_on_c, 9, 36, 111
6, 17520, Note_off_c, 9, 42, 95
6, 17520, Note_off_c, 9, 36, 111
6, 17520, Note_on_c, 9, 42, 63
6, 17760, Note_off_c, 9, 42, 63
6, 17760, Note_on_c, 9, 42, 95
6, 17760, Note_on_c, 9, 36, 95
6, 18000, Note_off_c, 9, 42, 95
6, 18000, Note_off_c, 9, 36, 95
6, 18000, Note_on_c, 9, 42, 63
6, 18240, Note_off_c, 9, 42, 63
6, 18240, Note_on_c, 9, 42, 95
6, 18240, Note_on_c, 9, 38, 111
6, 18480, Note_off_c, 9, 42, 95
6, 18480, Note_off_c, 9, 38, 111
6, 18480, Note_on_c, 9, 42, 63
6, 18720, Note_off_c, 9, 42, 63
6, 18720, Note_on_c, 9, 42, 95
6, 18960, Note_off_c, 9, 42, 95
6, 18960, Note_on_c, 9, 42, 63
6, 19200, Note_off_c, 9, 42, 63
6, 19200, Note_on_c, 9, 42, 95
6, 19200, Note_on_c, 9, 36, 111
6, 19440, Note_off_c, 9, 42, 95
6, 19440, Note_off_c, 9, 36, 111
6, 19440, Note_on_c, 9, 42, 63
6, 19680, Note_off_c, 9, 42, 63
6, 19680, Note_on_c, 9, 42, 95
6, 19680, Note_on_c, 9, 36, 95
6, 19920, Note_off_c, 9, 42, 95
6, 19920, Note_off_c, 9, 36, 95
6, 19920, Note_on_c, 9, 42, 63
6, 20160, Note_off_c, 9, 42, 63
6, 20160, Note_on_c, 9, 42, 95
6, 20160, Note_on_c, 9, 38, 95
6, 20400, Note_off_c, 9, 42, 95
6, 20400, Note_off_c, 9, 38, 95
6, 20400, Note_on_c, 9, 42, 63
6, 20640, Note_off_c, 9, 42, 63
6, 20640, Note_on_c, 9, 42, 95
6, 20880, Note_off_c, 9, 42, 95
6, 20880, Note_on_c, 9, 42, 63
6, 20880, Note_on_c, 9, 36, 95
6, 21120, Note_off_c, 9, 42, 63
6, 21120, Note_off_c, 9, 36, 95
6, 21120, Note_on_c, 9, 42, 95
6, 21120, Note_on_c, 9, 36, 111
6, 21360, Note_off_c, 9, 42, 95
6, 21360, Note_off_c, 9, 36, 111
6, 21360, Note_on_c, 9, 42, 63
6, 21600, Note_off_c, 9, 42, 63
6, 21600, Note_on_c, 9, 42, 95
6, 21600, Note_on_c, 9, 36, 95
6, 21840, Note_off_c, 9, 42, 95
6, 21840, Note_off_c, 9, 36, 95
6, 21840, Note_on_c, 9, 42, 63
6, 22080, Note_off_c, 9, 42, 63
6, 22080, Note_on_c, 9, 42, 95
6, 22080, Note_on_c, 9, 38, 111
6, 22320, Note_off_c, 9, 42, 95
6, 22320, Note_off_c, 9, 38, 111
6, 22320, Note_on_c, 9, 42, 63
6, 22560, Note_off_c, 9, 42, 63
6, 22560, Note_on_c, 9, 42, 95
6, 22800, Note_off_c, 9, 42, 95
6, 22800, Note_on_c, 9, 42, 63
6, 23040, Note_off_c, 9, 42, 63
6, 23040, Note_on_c, 9, 42, 95
6, 23040, Note_on_c, 9, 36, 111
6, 23280, Note_off_c, 9, 42, 95
6, 23280, Note_off_c, 9, 36, 111
6, 23280, Note_on_c, 9, 42, 63
6, 23520, Note_off_c, 9, 42, 63
6, 23520, Note_on_c, 9, 42, 95
6, 23520, Note_on_c, 9, 36, 95
6, 23760, Note_off_c, 9, 42, 95
6, 23760, Note_off_c, 9, 36, 95
6, 23760, Note_on_c, 9, 42, 63
6, 24000, Note_off_c, 9, 42, 63
6, 24000, Note_on_c, 9, 42, 95
6, 24000, Note_on_c, 9, 38, 95
6, 24240, Note_off_c, 9, 42, 95
6, 24240, Note_off_c, 9, 38, 95
6, 24240, Note_on_c, 9, 42, 63
6, 24480, Note_off_c, 9, 42, 63
6, 24480, Note_on_c, 9, 42, 95
6, 24720, Note_off_c, 9, 42, 95
6, 24720, Note_on_c, 9, 42, 63
6, 24720, Note_on_c, 9, 36, 95
6, 24960, Note_off_c, 9, 42, 63
6, 24960, Note_off_c, 9, 36, 95
6, 24960, Note_on_c, 9, 42, 95
6, 24960, Note_on_c, 9, 36, 111
6, 25200, Note_off_c, 9, 42, 95
6, 25200, Note_off_c, 9, 36, 111
6, 25200, Note_on_c, 9, 42, 63
6, 25440, Note_off_c, 9, 42, 63
6, 25440, Note_on_c, 9, 42, 95
6, 25440, Note_on_c, 9, 36, 95
6, 25680, Note_off_c, 9, 42, 95
6, 25680, Note_off_c, 9, 36, 95
6, 25680, Note_on_c, 9, 42, 63
6, 25920, Note_off_c, 9, 42, 63
6, 25920, Note_on_c, 9, 42, 95
6, 25920, Note_on_c, 9, 38, 111
6, 26160, Note_off_c, 9, 42, 95
6, 26160, Note_off_c, 9, 38, 111
6, 26160, Note_on_c, 9, 42, 63
6, 26400, Note_off_c, 9, 42, 63
6, 26400, Note_on_c, 9, 42, 95
6, 26640, Note_off_c, 9, 42, 95
6, 26640, Note_on_c, 9, 42, 63
6, 26880, Note_off_c, 9, 42, 63
6, 26880, Note_on_c, 9, 42, 95
6, 26880, Note_on_c, 9, 36, 111
6, 27120, Note_off_c, 9, 42, 95
6, 27120, Note_off_c, 9, 36, 111
6, 27120, Note_on_c, 9, 42, 63
6, 27360, Note_off_c, 9, 42, 63
6, 27360, Note_on_c, 9, 42, 95
6, 27360, Note_on_c, 9, 36, 95
6, 27600, Note_off_c, 9, 42, 95
6, 27600, Note_off_c, 9, 36, 95
6, 27600, Note_on_c, 9, 42, 63
6, 27840, Note_off_c, 9, 42, 63
6, 27840, Note_on_c, 9, 42, 95
6, 27840, Note_on_c, 9, 38, 95
6, 28080, Note_off_c, 9, 42, 95
6, 28080, Note_off_c, 9, 38, 95
6, 28080, Note_on_c, 9, 42, 63
6, 28320, Note_off_c, 9, 42, 63
6, 28320, Note_on_c, 9, 42, 95
6, 28560, Note_off_c, 9, 42, 95
6, 28560, Note_on_c, 9, 42, 63
6, 28560, Note_on_c, 9, 36, 95
6, 28800, Note_off_c, 9, 42, 63
6, 28800, Note_off_c, 9, 36, 95
6, 28800, Note_on_c, 9, 42, 95
6, 28800, Note_on_c, 9, 36, 111
6, 29040, Note_off_c, 9, 42, 95
6, 29040, Note_off_c, 9, 36, 111
6, 29040, Note_on_c, 9, 42, 63
6, 29280, Note_off_c, 9, 42, 63
6, 29280, Note_on_c, 9, 42, 95
6, 29280, Note_on_c, 9, 36, 95
6, 29520, Note_off_c, 9, 42, 95
6, 29520, Note_off_c, 9, 36, 95
6, 29520, Note_on_c, 9, 42, 63
6, 29760, Note_off_c, 9, 42, 63
6, 29760, Note_on_c, 9, 42, 95
6, 29760, Note_on_c, 9, 38, 111
6, 30000, Note_off_c, 9, 42, 95
6, 30000, Note_off_c, 9, 38, 111
6, 30000, Note_on_c, 9, 42, 63
6, 30240, Note_off_c, 9, 42, 63
6, 30240, Note_on_c, 9, 42, 95
6, 30480, Note_off_c, 9, 42, 95
6, 30480, Note_on_c, 9, 42, 63
6, 30720, Note_off_c, 9, 42, 63
6, 30720, Note_on_c, 9, 42, 95
6, 30720, Note_on_c, 9, 36, 111
6, 30960, Note_off_c, 9, 42, 95
6, 30960, Note_off_c, 9, 36, 111
6, 30960, Note_on_c, 9, 42, 63
6, 31200, Note_off_c, 9, 42, 63
6, 31200, Note_on_c, 9, 42, 95
6, 31200, Note_on_c, 9, 36, 95
6, 31440, Note_off_c, 9, 42, 95
6, 31440, Note_off_c, 9, 36, 95
6, 31440, Note_on_c, 9, 42, 63
6, 31680, Note_off_c, 9, 42, 63
6, 31680, Note_on_c, 9, 42, 95
6, 31680, Note_on_c, 9, 38, 95
6, 31920, Note_off_c, 9, 42, 95
6, 31920, Note_off_c, 9, 38, 95
6, 31920, Note_on_c, 9, 42, 63
6, 32160, Note_off_c, 9, 42, 63
6, 32160, Note_on_c, 9, 42, 95
6, 32400, Note_off_c, 9, 42, 95
6, 32400, Note_on_c, 9, 42, 63
6, 32400, Note_on_c, 9, 36, 95
6, 32640, Note_off_c, 9, 42, 63
6, 32640, Note_off_c, 9, 36, 95
6, 32640, Note_on_c, 9, 42, 95
6, 32640, Note_on_c, 9, 36, 111
6, 32880, Note_off_c, 9, 42, 95
6, 32880, Note_off_c, 9, 36, 111
6, 32880, Note_on_c, 9, 42, 63
6, 33120, Note_off_c, 9, 42, 63
6, 33120, Note_on_c, 9, 42, 95
6, 33120, Note_on_c, 9, 36, 95
6, 33360, Note_off_c, 9, 42, 95
6, 33360, Note_off_c, 9, 36, 95
6, 33360, Note_on_c, 9, 42, 63
6, 33600, Note_off_c, 9, 42, 63
6, 33600, Note_on_c, 9, 42, 95
6, 33600, Note_on_c, 9, 38, 111
6, 33840, Note_off_c, 9, 42, 95
6, 33840, Note_off_c, 9, 38, 111
6, 33840, Note_on_c, 9, 42, 63
6, 34080, Note_off_c, 9, 42, 63
6, 34080, Note_on_c, 9, 42, 95
6, 34320, Note_off_c, 9, 42, 95
6, 34320, Note_on_c, 9, 42, 63
6, 34560, Note_off_c, 9, 42, 63
6, 34560, Note_on_c, 9, 42, 95
6, 34560, Note_on_c, 9, 36, 111
6, 34800, Note_off_c, 9, 42, 95
6, 34800, Note_off_c, 9, 36, 111
6, 34800, Note_on_c, 9, 42, 63
6, 35040, Note_off_c, 9, 42, 63
6, 35040, Note_on_c, 9, 42, 95
6, 35040, Note_on_c, 9, 36, 95
6, 35280, Note_off_c, 9, 42, 95
6, 35280, Note_off_c, 9, 36, 95
6, 35280, Note_on_c, 9, 42, 63
6, 35520, Note_off_c, 9, 42, 63
6, 35520, Note_on_c, 9, 42, 95
6, 35520, Note_on_c, 9, 38, 95
6, 35760, Note_off_c, 9, 42, 95
6, 35760, Note_off_c, 9, 38, 95
6, 35760, Note_on_c, 9, 42, 63
6, 36000, Note_off_c, 9, 42, 63
6, 36000, Note_on_c, 9, 42, 95
6, 36240, Note_off_c, 9, 42, 95
6, 36240, Note_on_c, 9, 42, 63
6, 36240, Note_on_c, 9, 36, 95
6, 36480, Note_off_c, 9, 42, 63
6, 36480, Note_off_c, 9, 36, 95
6, 36480, Note_on_c, 9, 42, 95
6, 36480, Note_on_c, 9, 36, 111
6, 36720, Note_off_c, 9, 42, 95
6, 36720, Note_off_c, 9, 36, 111
6, 36720, Note_on_c, 9, 42, 63
6, 36960, Note_off_c, 9, 42, 63
6, 36960, Note_on_c, 9, 42, 95
6, 36960, Note_on_c, 9, 36, 95
6, 37200, Note_off_c, 9, 42, 95
6, 37200, Note_off_c, 9, 36, 95
6, 37200, Note_on_c, 9, 42, 63
6, 37440, Note_off_c, 9, 42, 63
6, 37440, Note_on_c, 9, 42, 95
6, 37440, Note_on_c, 9, 38, 111
6, 37680, Note_off_c, 9, 42, 95
6, 37680, Note_off_c, 9, 38, 111
6, 37680, Note_on_c, 9, 42, 63
6, 37920, Note_off_c, 9, 42, 63
6, 37920, Note_on_c, 9, 42, 95
6, 38160, Note_off_c, 9, 42, 95
6, 38160, Note_on_c, 9, 42, 63
6, 38400, Note_off_c, 9, 42, 63
6, 38400, Note_on_c, 9, 42, 95
6, 38400, Note_on_c, 9, 36, 111
6, 38640, Note_off_c, 9, 42, 95
6, 38640, Note_off_c, 9, 36, 111
6, 38640, Note_on_c, 9, 42, 63
6, 38880, Note_off_c, 9, 42, 63
6, 38880, Note_on_c, 9, 42, 95
6, 38880, Note_on_c, 9, 36, 95
6, 39120, Note_off_c, 9, 42, 95
6, 39120, Note_off_c, 9, 36, 95
6, 39120, Note_on_c, 9, 42, 63
6, 39360, Note_off_c, 9, 42, 63
6, 39360, Note_on_c, 9, 42, 95
6, 39360, Note_on_c, 9, 38, 95
6, 39600, Note_off_c, 9, 42, 95
6, 39600, Note_off_c, 9, 38, 95
6, 39600, Note_on_c, 9, 42, 63
6, 39840, Note_off_c, 9, 42, 63
6, 39840, Note_on_c, 9, 42, 95
6, 40080, Note_off_c, 9, 42, 95
6, 40080, Note_on_c, 9, 42, 63
6, 40080, Note_on_c, 9, 36, 95
6, 40320, Note_off_c, 9, 42, 63
6, 40320, Note_off_c, 9, 36, 95
6, 40320, Note_on_c, 9, 42, 95
6, 40320, Note_on_c, 9, 36, 111
6, 40560, Note_off_c, 9, 42, 95
6, 40560, Note_off_c, 9, 36, 111
6, 40560, Note_on_c, 9, 42, 63
6, 40800, Note_off_c, 9, 42, 63
6, 40800, Note_on_c, 9, 42, 95
6, 40800, Note_on_c, 9, 36, 95
6, 41040, Note_off_c, 9, 42, 95
6, 41040, Note_off_c, 9, 36, 95
6, 41040, Note_on_c, 9, 42, 63
6, 41280, Note_off_c, 9, 42, 63
6, 41280, Note_on_c, 9, 42, 95
6, 41280, Note_on_c, 9, 38, 111
6, 41520, Note_off_c, 9, 42, 95
6, 41520, Note_off_c, 9, 38, 111
6, 41520, Note_on_c, 9, 42, 63
6, 41760, Note_off_c, 9, 42, 63
6, 41760, Note_on_c, 9, 42, 95
6, 42000, Note_off_c, 9, 42, 95
6, 42000, Note_on_c, 9, 42, 63
6, 42240, Note_off_c, 9, 42, 63
6, 42240, Note_on_c, 9, 42, 95
6, 42240, Note_on_c, 9, 36, 111
6, 42480, Note_off_c, 9, 42, 95
6, 42480, Note_off_c, 9, 36, 111
6, 42480, Note_on_c, 9, 42, 63
6, 42720, Note_off_c, 9, 42, 63
6, 42720, Note_on_c, 9, 42, 95
6, 42720, Note_on_c, 9, 36, 95
6, 42960, Note_off_c, 9, 42, 95
6, 42960, Note_off_c, 9, 36, 95
6, 42960, Note_on_c, 9, 42, 63
6, 43200, Note_off_c, 9, 42, 63
6, 43200, Note_on_c, 9, 42, 95
6, 43200, Note_on_c, 9, 38, 95
6, 43440, Note_off_c, 9, 42, 95
6, 43440, Note_off_c, 9, 38, 95
6, 43440, Note_on_c, 9, 42, 63
6, 43680, Note_off_c, 9, 42, 63
6, 43680, Note_on_c, 9, 42, 95
6, 43920, Note_off_c, 9, 42, 95
6, 43920, Note_on_c, 9, 42, 63
6, 43920, Note_on_c, 9, 36, 95
6, 44160, Note_off_c, 9, 42, 63
6, 44160, Note_off_c, 9, 36, 95
6, 44160, Note_on_c, 9, 42, 95
6, 44160, Note_on_c, 9, 36, 111
6, 44400, Note_off_c, 9, 42, 95
6, 44400, Note_off_c, 9, 36, 111
6, 44400, Note_on_c, 9, 42, 63
6, 44640, Note_off_c, 9, 42, 63
6, 44640, Note_on_c, 9, 42, 95
6, 44640, Note_on_c, 9, 36, 95
6, 44880, Note_off_c, 9, 42, 95
6, 44880, Note_off_c, 9, 36, 95
6, 44880, Note_on_c, 9, 42, 63
6, 45120, Note_off_c, 9, 42, 63
6, 45120, Note_on_c, 9, 42, 95
6, 45120, Note_on_c, 9, 38, 111
6, 45360, Note_off_c, 9, 42, 95
6, 45360, Note_off_c, 9, 38, 111
6, 45360, Note_on_c, 9, 42, 63
6, 45600, Note_off_c, 9, 42, 63
6, 45600, Note_on_c, 9, 42, 95
6, 45840, Note_off_c, 9, 42, 95
6, 45840, Note_on_c, 9, 42, 63
6, 46080, Note_off_c, 9, 42, 63
6, 46080, Note_on_c, 9, 42, 95
6, 46080, Note_on_c, 9, 36, 111
6, 46320, Note_off_c, 9, 42, 95
6, 46320, Note_off_c, 9, 36, 111
6, 46320, Note_on_c, 9, 42, 63
6, 46560, Note_off_c, 9, 42, 63
6, 46560, Note_on_c, 9, 42, 95
6, 46560, Note_on_c, 9, 36, 95
6, 46800, Note_off_c, 9, 42, 95
6, 46800, Note_off_c, 9, 36, 95
6, 46800, Note_on_c, 9, 42, 63
6, 47040, Note_off_c, 9, 42, 63
6, 47040, Note_on_c, 9, 42, 95
6, 47040, Note_on_c, 9, 38, 95
6, 47280, Note_off_c, 9, 42, 95
6, 47280, Note_off_c, 9, 38, 95
6, 47280, Note_on_c, 9, 42, 63
6, 47520, Note_off_c, 9, 42, 63
6, 47520, Note_on_c, 9, 42, 95
6, 47760, Note_off_c, 9, 42, 95
6, 47760, Note_on_c, 9, 42, 63
6, 47760, Note_on_c, 9, 36, 95
6, 48000, Note_off_c, 9, 42, 63
6, 48000, Note_off_c, 9, 36, 95
6, 48000, Note_on_c, 9, 42, 95
6, 48000, Note_on_c, 9, 36, 111
6, 48240, Note_off_c, 9, 42, 95
6, 48240, Note_off_c, 9, 36, 111
6, 48240, Note_on_c, 9, 42, 63
6, 48480, Note_off_c, 9, 42, 63
6, 48480, Note_on_c, 9, 42, 95
6, 48480, Note_on_c, 9, 36, 95
6, 48720, Note_off_c, 9, 42, 95
6, 48720, Note_off_c, 9, 36, 95
6, 48720, Note_on_c, 9, 42, 63
6, 48960, Note_off_c, 9, 42, 63
6, 48960, Note_on_c, 9, 42, 95
6, 48960, Note_on_c, 9, 38, 111
6, 49200, Note_off_c, 9, 42, 95
6, 49200, Note_off_c, 9, 38, 111
6, 49200, Note_on_c, 9, 42, 63
6, 49440, Note_off_c, 9, 42, 63
6, 49440, Note_on_c, 9, 42, 95
6, 49680, Note_off_c, 9, 42, 95
6, 49680, Note_on_c, 9, 42, 63
6, 49920, Note_off_c, 9, 42, 63
6, 49920, Note_on_c, 9, 42, 95
6, 49920, Note_on_c, 9, 36, 111
6, 50160, Note_off_c, 9, 42, 95
6, 50160, Note_off_c, 9, 36, 111
6, 50160, Note_on_c, 9, 42, 63
6, 50400, Note_off_c, 9, 42, 63
6, 50400, Note_on_c, 9, 42, 95
6, 50400, Note_on_c, 9, 36, 95
6, 50640, Note_off_c, 9, 42, 95
6, 50640, Note_off_c, 9, 36, 95
6, 50640, Note_on_c, 9, 42, 63
6, 50880, Note_off_c, 9, 42, 63
6, 50880, Note_on_c, 9, 42, 95
6, 50880, Note_on_c, 9, 38, 95
6, 51120, Note_off_c, 9, 42, 95
6, 51120, Note_off_c, 9, 38, 95
6, 51120, Note_on_c, 9, 42, 63
6, 51360, Note_off_c, 9, 42, 63
6, 51360, Note_on_c, 9, 42, 95
6, 51600, Note_off_c, 9, 42, 95
6, 51600, Note_on_c, 9, 42, 63
6, 51600, Note_on_c, 9, 36, 95
6, 51840, Note_off_c, 9, 42, 63
6, 51840, Note_off_c, 9, 36, 95
6, 51840, Note_on_c, 9, 42, 95
6, 51840, Note_on_c, 9, 36, 111
6, 52080, Note_off_c, 9, 42, 95
6, 52080, Note_off_c, 9, 36, 111
6, 52080, Note_on_c, 9, 42, 63
6, 52320, Note_off_c, 9, 42, 63
6, 52320, Note_on_c, 9, 42, 95
6, 52320, Note_on_c, 9, 36, 95
6, 52560, Note_off_c, 9, 42, 95
6, 52560, Note_off_c, 9, 36, 95
6, 52560, Note_on_c, 9, 42, 63
6, 52800, Note_off_c, 9, 42, 63
6, 52800, Note_on_c, 9, 42, 95
6, 52800, Note_on_c, 9, 38, 111
6, 53040, Note_off_c, 9, 42, 95
6, 53040, Note_off_c, 9, 38, 111
6, 53040, Note_on_c, 9, 42, 63
6, 53280, Note_off_c, 9, 42, 63
6, 53280, Note_on_c, 9, 46, 111
6, 53760, Note_off_c, 9, 46, 111
6, 53760, Note_on_c, 9, 57, 95
6, 53760, Note_on_c, 9, 36, 111
6, 54720, Note_off_c, 9, 57, 95
6, 54720, Note_off_c, 9, 36, 111
6, 60240, Note_on_c, 9, 38, 95
6, 60480, Note_off_c, 9, 38, 95
6, 60480, Note_on_c, 9, 38, 111
6, 60720, Note_off_c, 9, 38, 111
6, 60960, Note_on_c, 9, 38, 111
6, 61200, Note_off_c, 9, 38, 111
6, 61440, Note_on_c, 9, 51, 95
6, 61440, Note_on_c, 9, 36, 111
6, 61920, Note_off_c, 9, 51, 95
6, 61920, Note_off_c, 9, 36, 111
6, 61920, Note_on_c, 9, 51, 95
6, 61920, Note_on_c, 9, 36, 95
6, 62400, Note_off_c, 9, 51, 95
6, 62400, Note_off_c, 9, 36, 95
6, 62400, Note_on_c, 9, 51, 95
6, 62400, Note_on_c, 9, 38, 95
6, 62640, Note_off_c, 9, 51, 95
6, 62640, Note_off_c, 9, 38, 95
6, 62880, Note_on_c, 9, 51, 95
6, 63120, Note_off_c, 9, 51, 95
6, 63120, Note_on_c, 9, 36, 95
6, 63360, Note_off_c, 9, 36, 95
6, 63360, Note_on_c, 9, 51, 95
6, 63360, Note_on_c, 9, 36, 111
6, 63840, Note_off_c, 9, 51, 95
6, 63840, Note_off_c, 9, 36, 111
6, 63840, Note_on_c, 9, 51, 95
6, 63840, Note_on_c, 9, 36, 95
6, 64320, Note_off_c, 9, 51, 95
6, 64320, Note_off_c, 9, 36, 95
6, 64320, Note_on_c, 9, 51, 95
6, 64320, Note_on_c, 9, 38, 111
6, 64800, Note_off_c, 9, 51, 95
6, 64800, Note_off_c, 9, 38, 111
6, 64800, Note_on_c, 9, 51, 95
6, 65280, Note_off_c, 9, 51, 95
6, 65280, Note_on_c, 9, 42, 111
6, 65280, Note_on_c, 9, 36, 111
6, 65760, Note_off_c, 9, 42, 111
6, 65760, Note_off_c, 9, 36, 111
6, 65760, Note_on_c, 9, 38, 127
6, 66000, Note_off_c, 9, 38, 127
6, 66000, Note_on_c, 9, 36, 95
6, 66240, Note_off_c, 9, 36, 95
6, 66720, Note_on_c, 9, 36, 95
6, 67200, Note_off_c, 9, 36, 95
6, 67200, Note_on_c, 9, 38, 63
6, 67320, Note_off_c, 9, 38, 63
6, 67320, Note_on_c, 9, 38, 63
6, 67440, Note_off_c, 9, 38, 63
6, 67440, Note_on_c, 9, 38, 79
6, 67560, Note_off_c, 9, 38, 79
6, 67560, Note_on_c, 9, 38, 111
6, 67680, Note_off_c, 9, 38, 111
6, 67680, Note_on_c, 9, 38, 111
6, 68160, Note_off_c, 9, 38, 111
6, 68160, Note_on_c, 9, 38, 111
6, 68640, Note_off_c, 9, 38, 111
6, 68640, Note_on_c, 9, 38, 127
6, 69120, Note_off_c, 9, 38, 127
6, 69120, Note_on_c, 9, 42, 95
6, 69120, Note_on_c, 9, 36, 111
6, 69360, Note_off_c, 9, 42, 95
6, 69360, Note_off_c, 9, 36, 111
6, 69360, Note_on_c, 9, 42, 63
6, 69600, Note_off_c, 9, 42, 63
6, 69600, Note_on_c, 9, 42, 95
6, 69600, Note_on_c, 9, 36, 95
6, 69840, Note_off_c, 9, 42, 95
6, 69840, Note_off_c, 9, 36, 95
6, 69840, Note_on_c, 9, 42, 63
6, 70080, Note_off_c, 9, 42, 63
6, 70080, Note_on_c, 9, 42, 95
6, 70080, Note_on_c, 9, 38, 95
6, 70320, Note_off_c, 9, 42, 95
6, 70320, Note_off_c, 9, 38, 95
6, 70320, Note_on_c, 9, 42, 63
6, 70560, Note_off_c, 9, 42, 63
6, 70560, Note_on_c, 9, 42, 95
6, 70800, Note_off_c, 9, 42, 95
6, 70800, Note_on_c, 9, 42, 63
6, 70800, Note_on_c, 9, 36, 95
6, 71040, Note_off_c, 9, 42, 63
6, 71040, Note_off_c, 9, 36, 95
6, 71040, Note_on_c, 9, 42, 95
6, 71040, Note_on_c, 9, 36, 111
6, 71280, Note_off_c, 9, 42, 95
6, 71280, Note_off_c, 9, 36, 111
6, 71280, Note_on_c, 9, 42, 63
6, 71520, Note_off_c, 9, 42, 63
6, 71520, Note_on_c, 9, 42, 95
6, 71520, Note_on_c, 9, 36, 95
6, 71760, Note_off_c, 9, 42, 95
6, 71760, Note_off_c, 9, 36, 95
6, 71760, Note_on_c, 9, 42, 63
6, 72000, Note_off_c, 9, 42, 63
6, 72000, Note_on_c, 9, 42, 95
6, 72000, Note_on_c, 9, 38, 111
6, 72240, Note_off_c, 9, 42, 95
6, 72240, Note_off_c, 9, 38, 111
6, 72240, Note_on_c, 9, 42, 63
6, 72480, Note_off_c, 9, 42, 63
6, 72480, Note_on_c, 9, 42, 95
6, 72720, Note_off_c, 9, 42, 95
6, 72720, Note_on_c, 9, 42, 63
6, 72960, Note_off_c, 9, 42, 63
6, 72960, Note_on_c, 9, 42, 95
6, 72960, Note_on_c, 9, 36, 111
6, 73200, Note_off_c, 9, 42, 95
6, 73200, Note_off_c, 9, 36, 111
6, 73200, Note_on_c, 9, 42, 63
6, 73440, Note_off_c, 9, 42, 63
6, 73440, Note_on_c, 9, 42, 95
6, 73440, Note_on_c, 9, 36, 95
6, 73680, Note_off_c, 9, 42, 95
6, 73680, Note_off_c, 9, 36, 95
6, 73680, Note_on_c, 9, 42, 63
6, 73920, Note_off_c, 9, 42, 63
6, 73920, Note_on_c, 9, 42, 95
6, 73920, Note_on_c, 9, 38, 95
6, 74160, Note_off_c, 9, 42, 95
6, 74160, Note_off_c, 9, 38, 95
6, 74160, Note_on_c, 9, 42, 63
6, 74400, Note_off_c, 9, 42, 63
6, 74400, Note_on_c, 9, 42, 95
6, 74640, Note_off_c, 9, 42, 95
6, 74640, Note_on_c, 9, 42, 63
6, 74640, Note_on_c, 9, 36, 95
6, 74880, Note_off_c, 9, 42, 63
6, 74880, Note_off_c, 9, 36, 95
6, 74880, Note_on_c, 9, 42, 95
6, 74880, Note_on_c, 9, 36, 111
6, 75120, Note_off_c, 9, 42, 95
6, 75120, Note_off_c, 9, 36, 111
6, 75120, Note_on_c, 9, 42, 63
6, 75360, Note_off_c, 9, 42, 63
6, 75360, Note_on_c, 9, 42, 95
6, 75360, Note_on_c, 9, 36, 95
6, 75600, Note_off_c, 9, 42, 95
6, 75600, Note_off_c, 9, 36, 95
6, 75600, Note_on_c, 9, 42, 63
6, 75840, Note_off_c, 9, 42, 63
6, 75840, Note_on_c, 9, 42, 95
6, 75840, Note_on_c, 9, 38, 111
6, 76080, Note_off_c, 9, 42, 95
6, 76080, Note_off_c, 9, 38, 111
6, 76080, Note_on_c, 9, 42, 63
6, 76320, Note_off_c, 9, 42, 63
6, 76320, Note_on_c, 9, 42, 95
6, 76560, Note_off_c, 9, 42, 95
6, 76560, Note_on_c, 9, 42, 63
6, 76800, Note_off_c, 9, 42, 63
6, 76800, Note_on_c, 9, 42, 95
6, 76800, Note_on_c, 9, 36, 111
6, 77040, Note_off_c, 9, 42, 95
6, 77040, Note_off_c, 9, 36, 111
6, 77040, Note_on_c, 9, 42, 63
6, 77280, Note_off_c, 9, 42, 63
6, 77280, Note_on_c, 9, 42, 95
6, 77280, Note_on_c, 9, 36, 95
6, 77520, Note_off_c, 9, 42, 95
6, 77520, Note_off_c, 9, 36, 95
6, 77520, Note_on_c, 9, 42, 63
6, 77760, Note_off_c, 9, 42, 63
6, 77760, Note_on_c, 9, 42, 95
6, 77760, Note_on_c, 9, 38, 95
6, 78000, Note_off_c, 9, 42, 95
6, 78000, Note_off_c, 9, 38, 95
6, 78000, Note_on_c, 9, 42, 63
6, 78240, Note_off_c, 9, 42, 63
6, 78240, Note_on_c, 9, 42, 95
6, 78480, Note_off_c, 9, 42, 95
6, 78480, Note_on_c, 9, 42, 63
6, 78480, Note_on_c, 9, 36, 95
6, 78720, Note_off_c, 9, 42, 63
6, 78720, Note_off_c, 9, 36, 95
6, 78720, Note_on_c, 9, 42, 95
6, 78720, Note_on_c, 9, 36, 111
6, 78960, Note_off_c, 9, 42, 95
6, 78960, Note_off_c, 9, 36, 111
6, 78960, Note_on_c, 9, 42, 63
6, 79200, Note_off_c, 9, 42, 63
6, 79200, Note_on_c, 9, 42, 95
6, 79200, Note_on_c, 9, 36, 95
6, 79440, Note_off_c, 9, 42, 95
6, 79440, Note_off_c, 9, 36, 95
6, 79440, Note_on_c, 9, 42, 63
6, 79680, Note_off_c, 9, 42, 63
6, 79680, Note_on_c, 9, 42, 95
6, 79680, Note_on_c, 9, 38, 111
6, 79920, Note_off_c, 9, 42, 95
6, 79920, Note_off_c, 9, 38, 111
6, 79920, Note_on_c, 9, 42, 63
6, 80160, Note_off_c, 9, 42, 63
6, 80160, Note_on_c, 9, 42, 95
6, 80400, Note_off_c, 9, 42, 95
6, 80400, Note_on_c, 9, 42, 63
6, 80640, Note_off_c, 9, 42, 63
6, 80640, Note_on_c, 9, 42, 95
6, 80640, Note_on_c, 9, 36, 111
6, 80880, Note_off_c, 9, 42, 95
6, 80880, Note_off_c, 9, 36, 111
6, 80880, Note_on_c, 9, 42, 63
6, 81120, Note_off_c, 9, 42, 63
6, 81120, Note_on_c, 9, 42, 95
6, 81120, Note_on_c, 9, 36, 95
6, 81360, Note_off_c, 9, 42, 95
6, 81360, Note_off_c, 9, 36, 95
6, 81360, Note_on_c, 9, 42, 63
6, 81600, Note_off_c, 9, 42, 63
6, 81600, Note_on_c, 9, 42, 95
6, 81600, Note_on_c, 9, 38, 95
6, 81840, Note_off_c, 9, 42, 95
6, 81840, Note_off_c, 9, 38, 95
6, 81840, Note_on_c, 9, 42, 63
6, 82080, Note_off_c, 9, 42, 63
6, 82080, Note_on_c, 9, 42, 95
6, 82320, Note_off_c, 9, 42, 95
6, 82320, Note_on_c, 9, 42, 63
6, 82320, Note_on_c, 9, 36, 95
6, 82560, Note_off_c, 9, 42, 63
6, 82560, Note_off_c, 9, 36, 95
6, 82560, Note_on_c, 9, 42, 95
6, 82560, Note_on_c, 9, 36, 111
6, 82800, Note_off_c, 9, 42, 95
6, 82800, Note_off_c, 9, 36, 111
6, 82800, Note_on_c, 9, 42, 63
6, 83040, Note_off_c, 9, 42, 63
6, 83040, Note_on_c, 9, 42, 95
6, 83040, Note_on_c, 9, 36, 95
6, 83280, Note_off_c, 9, 42, 95
6, 83280, Note_off_c, 9, 36, 95
6, 83280, Note_on_c, 9, 42, 63
6, 83520, Note_off_c, 9, 42, 63
6, 83520, Note_on_c, 9, 42, 95
6, 83520, Note_on_c, 9, 38, 111
6, 83760, Note_off_c, 9, 42, 95
6, 83760, Note_off_c, 9, 38, 111
6, 83760, Note_on_c, 9, 42, 63
6, 84000, Note_off_c, 9, 42, 63
6, 84000, Note_on_c, 9, 42, 95
6, 84240, Note_off_c, 9, 42, 95
6, 84240, Note_on_c, 9, 42, 63
6, 84480, Note_off_c, 9, 42, 63
6, 84480, Note_on_c, 9, 42, 95
6, 84480, Note_on_c, 9, 36, 111
6, 84720, Note_off_c, 9, 42, 95
6, 84720, Note_off_c, 9, 36, 111
6, 84720, Note_on_c, 9, 42, 63
6, 84960, Note_off_c, 9, 42, 63
6, 84960, Note_on_c, 9, 42, 95
6, 84960, Note_on_c, 9, 36, 95
6, 85200, Note_off_c, 9, 42, 95
6, 85200, Note_off_c, 9, 36, 95
6, 85200, Note_on_c, 9, 42, 63
6, 85440, Note_off_c, 9, 42, 63
6, 85440, Note_on_c, 9, 42, 95
6, 85440, Note_on_c, 9, 38, 95
6, 85680, Note_off_c, 9, 42, 95
6, 85680, Note_off_c, 9, 38, 95
6, 85680, Note_on_c, 9, 42, 63
6, 85920, Note_off_c, 9, 42, 63
6, 85920, Note_on_c, 9, 42, 95
6, 86160, Note_off_c, 9, 42, 95
6, 86160, Note_on_c, 9, 42, 63
6, 86160, Note_on_c, 9, 36, 95
6, 86400, Note_off_c, 9, 42, 63
6, 86400, Note_off_c, 9, 36, 95
6, 86400, Note_on_c, 9, 42, 95
6, 86400, Note_on_c, 9, 36, 111
6, 86640, Note_off_c, 9, 42, 95
6, 86640, Note_off_c, 9, 36, 111
6, 86640, Note_on_c, 9, 42, 63
6, 86880, Note_off_c, 9, 42, 63
6, 86880, Note_on_c, 9, 42, 95
6, 86880, Note_on_c, 9, 36, 95
6, 87120, Note_off_c, 9, 42, 95
6, 87120, Note_off_c, 9, 36, 95
6, 87120, Note_on_c, 9, 42, 63
6, 87360, Note_off_c, 9, 42, 63
6, 87360, Note_on_c, 9, 42, 95
6, 87360, Note_on_c, 9, 38, 111
6, 87600, Note_off_c, 9, 42, 95
6, 87600, Note_off_c, 9, 38, 111
6, 87600, Note_on_c, 9, 42, 63
6, 87840, Note_off_c, 9, 42, 63
6, 87840, Note_on_c, 9, 42, 95
6, 88080, Note_off_c, 9, 42, 95
6, 88080, Note_on_c, 9, 42, 63
6, 88320, Note_off_c, 9, 42, 63
6, 88320, Note_on_c, 9, 42, 95
6, 88320, Note_on_c, 9, 36, 111
6, 88560, Note_off_c, 9, 42, 95
6, 88560, Note_off_c, 9, 36, 111
6, 88560, Note_on_c, 9, 42, 63
6, 88800, Note_off_c, 9, 42, 63
6, 88800, Note_on_c, 9, 42, 95
6, 88800, Note_on_c, 9, 36, 95
6, 89040, Note_off_c, 9, 42, 95
6, 89040, Note_off_c, 9, 36, 95
6, 89040, Note_on_c, 9, 42, 63
6, 89280, Note_off_c, 9, 42, 63
6, 89280, Note_on_c, 9, 42, 95
6, 89280, Note_on_c, 9, 38, 95
6, 89520, Note_off_c, 9, 42, 95
6, 89520, Note_off_c, 9, 38, 95
6, 89520, Note_on_c, 9, 42, 63
6, 89760, Note_off_c, 9, 42, 63
6, 89760, Note_on_c, 9, 42, 95
6, 90000, Note_off_c, 9, 42, 95
6, 90000, Note_on_c, 9, 42, 63
6, 90000, Note_on_c, 9, 36, 95
6, 90240, Note_off_c, 9, 42, 63
6, 90240, Note_off_c, 9, 36, 95
6, 90240, Note_on_c, 9, 42, 95
6, 90240, Note_on_c, 9, 36, 111
6, 90480, Note_off_c, 9, 42, 95
6, 90480, Note_off_c, 9, 36, 111
6, 90480, Note_on_c, 9, 42, 63
6, 90720, Note_off_c, 9, 42, 63
6, 90720, Note_on_c, 9, 42, 95
6, 90720, Note_on_c, 9, 36, 95
6, 90960, Note_off_c, 9, 42, 95
6, 90960, Note_off_c, 9, 36, 95
6, 90960, Note_on_c, 9, 42, 63
6, 91200, Note_off_c, 9, 42, 63
6, 91200, Note_on_c, 9, 42, 95
6, 91200, Note_on_c, 9, 38, 111
6, 91440, Note_off_c, 9, 42, 95
6, 91440, Note_off_c, 9, 38, 111
6, 91440, Note_on_c, 9, 42, 63
6, 91680, Note_off_c, 9, 42, 63
6, 91680, Note_on_c, 9, 42, 95
6, 91920, Note_off_c, 9, 42, 95
6, 91920, Note_on_c, 9, 42, 63
6, 92160, Note_off_c, 9, 42, 63
6, 92160, Note_on_c, 9, 42, 95
6, 92160, Note_on_c, 9, 36, 111
6, 92400, Note_off_c, 9, 42, 95
6, 92400, Note_off_c, 9, 36, 111
6, 92400, Note_on_c, 9, 42, 63
6, 92640, Note_off_c, 9, 42, 63
6, 92640, Note_on_c, 9, 42, 95
6, 92640, Note_on_c, 9, 36, 95
6, 92880, Note_off_c, 9, 42, 95
6, 92880, Note_off_c, 9, 36, 95
6, 92880, Note_on_c, 9, 42, 63
6, 93120, Note_off_c, 9, 42, 63
6, 93120, Note_on_c, 9, 42, 95
6, 93120, Note_on_c, 9, 38, 95
6, 93360, Note_off_c, 9, 42, 95
6, 93360, Note_off_c, 9, 38, 95
6, 93360, Note_on_c, 9, 42, 63
6, 93600, Note_off_c, 9, 42, 63
6, 93600, Note_on_c, 9, 42, 95
6, 93840, Note_off_c, 9, 42, 95
6, 93840, Note_on_c, 9, 42, 63
6, 93840, Note_on_c, 9, 36, 95
6, 94080, Note_off_c, 9, 42, 63
6, 94080, Note_off_c, 9, 36, 95
6, 94080, Note_on_c, 9, 42, 95
6, 94080, Note_on_c, 9, 36, 111
6, 94320, Note_off_c, 9, 42, 95
6, 94320, Note_off_c, 9, 36, 111
6, 94320, Note_on_c, 9, 42, 63
6, 94560, Note_off_c, 9, 42, 63
6, 94560, Note_on_c, 9, 42, 95
6, 94560, Note_on_c, 9, 36, 95
6, 94800, Note_off_c, 9, 42, 95
6, 94800, Note_off_c, 9, 36, 95
6, 94800, Note_on_c, 9, 42, 63
6, 95040, Note_off_c, 9, 42, 63
6, 95040, Note_on_c, 9, 42, 95
6, 95040, Note_on_c, 9, 38, 111
6, 95280, Note_off_c, 9, 42, 95
6, 95280, Note_off_c, 9, 38, 111
6, 95280, Note_on_c, 9, 42, 63
6, 95520, Note_off_c, 9, 42, 63
6, 95520, Note_on_c, 9, 42, 95
6, 95760, Note_off_c, 9, 42, 95
6, 95760, Note_on_c, 9, 42, 63
6, 96000, Note_off_c, 9, 42, 63
6, 96000, Note_on_c, 9, 42, 95
6, 96000, Note_on_c, 9, 36, 111
6, 96240, Note_off_c, 9, 42, 95
6, 96240, Note_off_c, 9, 36, 111
6, 96240, Note_on_c, 9, 42, 63
6, 96480, Note_off_c, 9, 42, 63
6, 96480, Note_on_c, 9, 42, 95
6, 96480, Note_on_c, 9, 36, 95
6, 96720, Note_off_c, 9, 42, 95
6, 96720, Note_off_c, 9, 36, 95
6, 96720, Note_on_c, 9, 42, 63
6, 96960, Note_off_c, 9, 42, 63
6, 96960, Note_on_c, 9, 42, 95
6, 96960, Note_on_c, 9, 38, 95
6, 97200, Note_off_c, 9, 42, 95
6, 97200, Note_off_c, 9, 38, 95
6, 97200, Note_on_c, 9, 42, 63
6, 97440, Note_off_c, 9, 42, 63
6, 97440, Note_on_c, 9, 42, 95
6, 97680, Note_off_c, 9, 42, 95
6, 97680, Note_on_c, 9, 42, 63
6, 97680, Note_on_c, 9, 36, 95
6, 97920, Note_off_c, 9, 42, 63
6, 97920, Note_off_c, 9, 36, 95
6, 97920, Note_on_c, 9, 42, 95
6, 97920, Note_on_c, 9, 36, 111
6, 98160, Note_off_c, 9, 42, 95
6, 98160, Note_off_c, 9, 36, 111
6, 98160, Note_on_c, 9, 42, 63
6, 98400, Note_off_c, 9, 42, 63
6, 98400, Note_on_c, 9, 42, 95
6, 98400, Note_on_c, 9, 36, 95
6, 98640, Note_off_c, 9, 42, 95
6, 98640, Note_off_c, 9, 36, 95
6, 98640, Note_on_c, 9, 42, 63
6, 98880, Note_off_c, 9, 42, 63
6, 98880, Note_on_c, 9, 42, 95
6, 98880, Note_on_c, 9, 38, 111
6, 99120, Note_off_c, 9, 42, 95
6, 99120, Note_off_c, 9, 38, 111
6, 99120, Note_on_c, 9, 42, 63
6, 99360, Note_off_c, 9, 42, 63
6, 99360, Note_on_c, 9, 42, 95
6, 99600, Note_off_c, 9, 42, 95
6, 99600, Note_on_c, 9, 42, 63
6, 99840, Note_off_c, 9, 42, 63
6, 99840, Note_on_c, 9, 42, 95
6, 99840, Note_on_c, 9, 36, 111
6, 100080, Note_off_c, 9, 42, 95
6, 100080, Note_off_c, 9, 36, 111
6, 100080, Note_on_c, 9, 42, 63
6, 100320, Note_off_c, 9, 42, 63
6, 100320, Note_on_c, 9, 42, 95
6, 100320, Note_on_c, 9, 36, 95
6, 100560, Note_off_c, 9, 42, 95
6, 100560, Note_off_c, 9, 36, 95
6, 100560, Note_on_c, 9, 42, 63
6, 100800, Note_off_c, 9, 42, 63
6, 100800, Note_on_c, 9, 42, 95
6, 100800, Note_on_c, 9, 38, 95
6, 101040, Note_off_c, 9, 42, 95
6, 101040, Note_off_c, 9, 38, 95
6, 101040, Note_on_c, 9, 42, 63
6, 101280, Note_off_c, 9, 42, 63
6, 101280, Note_on_c, 9, 42, 95
6, 101520, Note_off_c, 9, 42, 95
6, 101520, Note_on_c, 9, 42, 63
6, 101520, Note_on_c, 9, 36, 95
6, 101760, Note_off_c, 9, 42, 63
6, 101760, Note_off_c, 9, 36, 95
6, 101760, Note_on_c, 9, 42, 95
6, 101760, Note_on_c, 9, 36, 111
6, 102000, Note_off_c, 9, 42, 95
6, 102000, Note_off_c, 9, 36, 111
6, 102000, Note_on_c, 9, 42, 63
6, 102240, Note_off_c, 9, 42, 63
6, 102240, Note_on_c, 9, 42, 95
6, 102240, Note_on_c, 9, 36, 95
6, 102480, Note_off_c, 9, 42, 95
6, 102480, Note_off_c, 9, 36, 95
6, 102480, Note_on_c, 9, 42, 63
6, 102720, Note_off_c, 9, 42, 63
6, 102720, Note_on_c, 9, 42, 95
6, 102720, Note_on_c, 9, 38, 111
6, 102960, Note_off_c, 9, 42, 95
6, 102960, Note_off_c, 9, 38, 111
6, 102960, Note_on_c, 9, 42, 63
6, 103200, Note_off_c, 9, 42, 63
6, 103200, Note_on_c, 9, 42, 95
6, 103440, Note_off_c, 9, 42, 95
6, 103440, Note_on_c, 9, 42, 63
6, 103680, Note_off_c, 9, 42, 63
6, 103680, Note_on_c, 9, 42, 95
6, 103680, Note_on_c, 9, 36, 111
6, 103920, Note_off_c, 9, 42, 95
6, 103920, Note_off_c, 9, 36, 111
6, 103920, Note_on_c, 9, 42, 63
6, 104160, Note_off_c, 9, 42, 63
6, 104160, Note_on_c, 9, 42, 95
6, 104160, Note_on_c, 9, 36, 95
6, 104400, Note_off_c, 9, 42, 95
6, 104400, Note_off_c, 9, 36, 95
6, 104400, Note_on_c, 9, 42, 63
6, 104640, Note_off_c, 9, 42, 63
6, 104640, Note_on_c, 9, 42, 95
6, 104640, Note_on_c, 9, 38, 95
6, 104880, Note_off_c, 9, 42, 95
6, 104880, Note_off_c, 9, 38, 95
6, 104880, Note_on_c, 9, 42, 63
6, 105120, Note_off_c, 9, 42, 63
6, 105120, Note_on_c, 9, 42, 95
6, 105360, Note_off_c, 9, 42, 95
6, 105360, Note_on_c, 9, 42, 63
6, 105360, Note_on_c, 9, 36, 95
6, 105600, Note_off_c, 9, 42, 63
6, 105600, Note_off_c, 9, 36, 95
6, 105600, Note_on_c, 9, 42, 95
6, 105600, Note_on_c, 9, 36, 111
6, 105840, Note_off_c, 9, 42, 95
6, 105840, Note_off_c, 9, 36, 111
6, 105840, Note_on_c, 9, 42, 63
6, 106080, Note_off_c, 9, 42, 63
6, 106080, Note_on_c, 9, 42, 95
6, 106080, Note_on_c, 9, 36, 95
6, 106320, Note_off_c, 9, 42, 95
6, 106320, Note_off_c, 9, 36, 95
6, 106320, Note_on_c, 9, 42, 63
6, 106560, Note_off_c, 9, 42, 63
6, 106560, Note_on_c, 9, 42, 95
6, 106560, Note_on_c, 9, 38, 111
6, 106800, Note_off_c, 9, 42, 95
6, 106800, Note_off_c, 9, 38, 111
6, 106800, Note_on_c, 9, 42, 63
6, 107040, Note_off_c, 9, 42, 63
6, 107040, Note_on_c, 9, 46, 111
6, 107520, Note_off_c, 9, 46, 111
6, 107520, Note_on_c, 9, 57, 95
6, 107520, Note_on_c, 9, 36, 111
6, 108480, Note_off_c, 9, 57, 95
6, 108480, Note_off_c, 9, 36, 111
6, 114000, Note_on_c, 9, 38, 95
6, 114240, Note_off_c, 9, 38, 95
6, 114240, Note_on_c, 9, 38, 111
6, 114480, Note_off_c, 9, 38, 111
6, 114720, Note_on_c, 9, 38, 111
6, 114960, Note_off_c, 9, 38, 111
6, 115200, Note_on_c, 9, 51, 95
6, 115200, Note_on_c, 9, 36, 111
6, 115680, Note_off_c, 9, 51, 95
6, 115680, Note_off_c, 9, 36, 111
6, 115680, Note_on_c, 9, 51, 95
6, 115680, Note_on_c, 9, 36, 95
6, 116160, Note_off_c, 9, 51, 95
6, 116160, Note_off_c, 9, 36, 95
6, 116160, Note_on_c, 9, 51, 95
6, 116160, Note_on_c, 9, 38, 95
6, 116400, Note_off_c, 9, 51, 95
6, 116400, Note_off_c, 9, 38, 95
6, 116640, Note_on_c, 9, 51, 95
6, 116880, Note_off_c, 9, 51, 95
6, 116880, Note_on_c, 9, 36, 95
6, 117120, Note_off_c, 9, 36, 95
6, 117120, Note_on_c, 9, 51, 95
6, 117120, Note_on_c, 9, 36, 111
6, 117600, Note_off_c, 9, 51, 95
6, 117600, Note_off_c, 9, 36, 111
6, 117600, Note_on_c, 9, 51, 95
6, 117600, Note_on_c, 9, 36, 95
6, 118080, Note_off_c, 9, 51, 95
6, 118080, Note_off_c, 9, 36, 95
6, 118080, Note_on_c, 9, 51, 95
6, 118080, Note_on_c, 9, 38, 111
6, 118560, Note_off_c, 9, 51, 95
6, 118560, Note_off_c, 9, 38, 111
6, 118560, Note_on_c, 9, 51, 95
6, 119040, Note_off_c, 9, 51, 95
6, 119040, Note_on_c, 9, 51, 95
6, 119040, Note_on_c, 9, 36, 111
6, 119520, Note_off_c, 9, 51, 95
6, 119520, Note_off_c, 9, 36, 111
6, 119520, Note_on_c, 9, 51, 95
6, 119520, Note_on_c, 9, 36, 95
6, 120000, Note_off_c, 9, 51, 95
6, 120000, Note_off_c, 9, 36, 95
6, 120000, Note_on_c, 9, 51, 95
6, 120000, Note_on_c, 9, 38, 95
6, 120240, Note_off_c, 9, 51, 95
6, 120240, Note_off_c, 9, 38, 95
6, 120480, Note_on_c, 9, 51, 95
6, 120720, Note_off_c, 9, 51, 95
6, 120720, Note_on_c, 9, 36, 95
6, 120960, Note_off_c, 9, 36, 95
6, 120960, Note_on_c, 9, 51, 95
6, 120960, Note_on_c, 9, 36, 111
6, 121440, Note_off_c, 9, 51, 95
6, 121440, Note_off_c, 9, 36, 111
6, 121440, Note_on_c, 9, 51, 95
6, 121440, Note_on_c, 9, 36, 111
6, 121920, Note_off_c, 9, 51, 95
6, 121920, Note_off_c, 9, 36, 111
6, 121920, Note_on_c, 9, 51, 95
6, 121920, Note_on_c, 9, 38, 111
6, 122400, Note_off_c, 9, 51, 95
6, 122400, Note_off_c, 9, 38, 111
6, 122400, Note_on_c, 9, 51, 95
6, 122880, Note_off_c, 9, 51, 95
6, 122880, Note_on_c, 9, 51, 95
6, 122880, Note_on_c, 9, 36, 111
6, 123360, Note_off_c, 9, 51, 95
6, 123360, Note_off_c, 9, 36, 111
6, 123360, Note_on_c, 9, 51, 95
6, 123360, Note_on_c, 9, 36, 95
6, 123840, Note_off_c, 9, 51, 95
6, 123840, Note_off_c, 9, 36, 95
6, 123840, Note_on_c, 9, 51, 95
6, 123840, Note_on_c, 9, 38, 95
6, 124080, Note_off_c, 9, 51, 95
6, 124080, Note_off_c, 9, 38, 95
6, 124320, Note_on_c, 9, 51, 95
6, 124560, Note_off_c, 9, 51, 95
6, 124560, Note_on_c, 9, 36, 95
6, 124800, Note_off_c, 9, 36, 95
6, 124800, Note_on_c, 9, 51, 95
6, 124800, Note_on_c, 9, 36, 111
6, 125280, Note_off_c, 9, 51, 95
6, 125280, Note_off_c, 9, 36, 111
6, 125280, Note_on_c, 9, 51, 95
6, 125280, Note_on_c, 9, 36, 111
6, 125760, Note_off_c, 9, 51, 95
6, 125760, Note_off_c, 9, 36, 111
6, 125760, Note_on_c, 9, 51, 95
6, 125760, Note_on_c, 9, 38, 111
6, 126240, Note_off_c, 9, 51, 95
6, 126240, Note_off_c, 9, 38, 111
6, 126240, Note_on_c, 9, 51, 95
6, 126720, Note_off_c, 9, 51, 95
6, 126720, Note_on_c, 9, 42, 111
6, 126720, Note_on_c, 9, 36, 111
6, 127200, Note_off_c, 9, 42, 111
6, 127200, Note_off_c, 9, 36, 111
6, 127200, Note_on_c, 9, 38, 127
6, 127440, Note_off_c, 9, 38, 127
6, 127440, Note_on_c, 9, 36, 95
6, 127680, Note_off_c, 9, 36, 95
6, 128160, Note_on_c, 9, 36, 95
6, 128640, Note_off_c, 9, 36, 95
6, 128640, Note_on_c, 9, 38, 63
6, 128760, Note_off_c, 9, 38, 63
6, 128760, Note_on_c, 9, 38, 63
6, 128880, Note_off_c, 9, 38, 63
6, 128880, Note_on_c, 9, 38, 79
6, 129000, Note_off_c, 9, 38, 79
6, 129000, Note_on_c, 9, 38, 111
6, 129120, Note_off_c, 9, 38, 111
6, 129120, Note_on_c, 9, 38, 111
6, 129600, Note_off_c, 9, 38, 111
6, 129600, Note_on_c, 9, 38, 111
6, 130080, Note_off_c, 9, 38, 111
6, 130080, Note_on_c, 9, 38, 127
6, 130560, Note_off_c, 9, 38, 127
6, 130560, Note_on_c, 9, 42, 95
6, 130560, Note_on_c, 9, 36, 111
6, 130800, Note_off_c, 9, 42, 95
6, 130800, Note_off_c, 9, 36, 111
6, 130800, Note_on_c, 9, 42, 63
6, 131040, Note_off_c, 9, 42, 63
6, 131040, Note_on_c, 9, 42, 95
6, 131040, Note_on_c, 9, 36, 95
6, 131280, Note_off_c, 9, 42, 95
6, 131280, Note_off_c, 9, 36, 95
6, 131280, Note_on_c, 9, 42, 63
6, 131520, Note_off_c, 9, 42, 63
6, 131520, Note_on_c, 9, 42, 95
6, 131520, Note_on_c, 9, 38, 95
6, 131760, Note_off_c, 9, 42, 95
6, 131760, Note_off_c, 9, 38, 95
6, 131760, Note_on_c, 9, 42, 63
6, 132000, Note_off_c, 9, 42, 63
6, 132000, Note_on_c, 9, 42, 95
6, 132240, Note_off_c, 9, 42, 95
6, 132240, Note_on_c, 9, 42, 63
6, 132240, Note_on_c, 9, 36, 95
6, 132480, Note_off_c, 9, 42, 63
6, 132480, Note_off_c, 9, 36, 95
6, 132480, Note_on_c, 9, 42, 95
6, 132480, Note_on_c, 9, 36, 111
6, 132720, Note_off_c, 9, 42, 95
6, 132720, Note_off_c, 9, 36, 111
6, 132720, Note_on_c, 9, 42, 63
6, 132960, Note_off_c, 9, 42, 63
6, 132960, Note_on_c, 9, 42, 95
6, 132960, Note_on_c, 9, 36, 95
6, 133200, Note_off_c, 9, 42, 95
6, 133200, Note_off_c, 9, 36, 95
6, 133200, Note_on_c, 9, 42, 63
6, 133440, Note_off_c, 9, 42, 63
6, 133440, Note_on_c, 9, 42, 95
6, 133440, Note_on_c, 9, 38, 111
6, 133680, Note_off_c, 9, 42, 95
6, 133680, Note_off_c, 9, 38, 111
6, 133680, Note_on_c, 9, 42, 63
6, 133920, Note_off_c, 9, 42, 63
6, 133920, Note_on_c, 9, 42, 95
6, 134160, Note_off_c, 9, 42, 95
6, 134160, Note_on_c, 9, 42, 63
6, 134400, Note_off_c, 9, 42, 63
6, 134400, Note_on_c, 9, 42, 95
6, 134400, Note_on_c, 9, 36, 111
6, 134640, Note_off_c, 9, 42, 95
6, 134640, Note_off_c, 9, 36, 111
6, 134640, Note_on_c, 9, 42, 63
6, 134880, Note_off_c, 9, 42, 63
6, 134880, Note_on_c, 9, 42, 95
6, 134880, Note_on_c, 9, 36, 95
6, 135120, Note_off_c, 9, 42, 95
6, 135120, Note_off_c, 9, 36, 95
6, 135120, Note_on_c, 9, 42, 63
6, 135360, Note_off_c, 9, 42, 63
6, 135360, Note_on_c, 9, 42, 95
6, 135360, Note_on_c, 9, 38, 95
6, 135600, Note_off_c, 9, 42, 95
6, 135600, Note_off_c, 9, 38, 95
6, 135600, Note_on_c, 9, 42, 63
6, 135840, Note_off_c, 9, 42, 63
6, 135840, Note_on_c, 9, 42, 95
6, 136080, Note_off_c, 9, 42, 95
6, 136080, Note_on_c, 9, 42, 63
6, 136080, Note_on_c, 9, 36, 95
6, 136320, Note_off_c, 9, 42, 63
6, 136320, Note_off_c, 9, 36, 95
6, 136320, Note_on_c, 9, 42, 95
6, 136320, Note_on_c, 9, 36, 111
6, 136560, Note_off_c, 9, 42, 95
6, 136560, Note_off_c, 9, 36, 111
6, 136560, Note_on_c, 9, 42, 63
6, 136800, Note_off_c, 9, 42, 63
6, 136800, Note_on_c, 9, 42, 95
6, 136800, Note_on_c, 9, 36, 95
6, 137040, Note_off_c, 9, 42, 95
6, 137040, Note_off_c, 9, 36, 95
6, 137040, Note_on_c, 9, 42, 63
6, 137280, Note_off_c, 9, 42, 63
6, 137280, Note_on_c, 9, 42, 95
6, 137280, Note_on_c, 9, 38, 111
6, 137520, Note_off_c, 9, 42, 95
6, 137520, Note_off_c, 9, 38, 111
6, 137520, Note_on_c, 9, 42, 63
6, 137760, Note_off_c, 9, 42, 63
6, 137760, Note_on_c, 9, 42, 95
6, 138000, Note_off_c, 9, 42, 95
6, 138000, Note_on_c, 9, 42, 63
6, 138240, Note_off_c, 9, 42, 63
6, 138240, Note_on_c, 9, 42, 95
6, 138240, Note_on_c, 9, 36, 111
6, 138480, Note_off_c, 9, 42, 95
6, 138480, Note_off_c, 9, 36, 111
6, 138480, Note_on_c, 9, 42, 63
6, 138720, Note_off_c, 9, 42, 63
6, 138720, Note_on_c, 9, 42, 95
6, 138720, Note_on_c, 9, 36, 95
6, 138960, Note_off_c, 9, 42, 95
6, 138960, Note_off_c, 9, 36, 95
6, 138960, Note_on_c, 9, 42, 63
6, 139200, Note_off_c, 9, 42, 63
6, 139200, Note_on_c, 9, 42, 95
6, 139200, Note_on_c, 9, 38, 95
6, 139440, Note_off_c, 9, 42, 95
6, 139440, Note_off_c, 9, 38, 95
6, 139440, Note_on_c, 9, 42, 63
6, 139680, Note_off_c, 9, 42, 63
6, 139680, Note_on_c, 9, 42, 95
6, 139920, Note_off_c, 9, 42, 95
6, 139920, Note_on_c, 9, 42, 63
6, 139920, Note_on_c, 9, 36, 95
6, 140160, Note_off_c, 9, 42, 63
6, 140160, Note_off_c, 9, 36, 95
6, 140160, Note_on_c, 9, 42, 95
6, 140160, Note_on_c, 9, 36, 111
6, 140400, Note_off_c, 9, 42, 95
6, 140400, Note_off_c, 9, 36, 111
6, 140400, Note_on_c, 9, 42, 63
6, 140640, Note_off_c, 9, 42, 63
6, 140640, Note_on_c, 9, 42, 95
6, 140640, Note_on_c, 9, 36, 95
6, 140880, Note_off_c, 9, 42, 95
6, 140880, Note_off_c, 9, 36, 95
6, 140880, Note_on_c, 9, 42, 63
6, 141120, Note_off_c, 9, 42, 63
6, 141120, Note_on_c, 9, 42, 95
6, 141120, Note_on_c, 9, 38, 111
6, 141360, Note_off_c, 9, 42, 95
6, 141360, Note_off_c, 9, 38, 111
6, 141360, Note_on_c, 9, 42, 63
6, 141600, Note_off_c, 9, 42, 63
6, 141600, Note_on_c, 9, 42, 95
6, 141840, Note_off_c, 9, 42, 95
6, 141840, Note_on_c, 9, 42, 63
6, 142080, Note_off_c, 9, 42, 63
6, 142080, Note_on_c, 9, 42, 95
6, 142080, Note_on_c, 9, 36, 111
6, 142320, Note_off_c, 9, 42, 95
6, 142320, Note_off_c, 9, 36, 111
6, 142320, Note_on_c, 9, 42, 63
6, 142560, Note_off_c, 9, 42, 63
6, 142560, Note_on_c, 9, 42, 95
6, 142560, Note_on_c, 9, 36, 95
6, 142800, Note_off_c, 9, 42, 95
6, 142800, Note_off_c, 9, 36, 95
6, 142800, Note_on_c, 9, 42, 63
6, 143040, Note_off_c, 9, 42, 63
6, 143040, Note_on_c, 9, 42, 95
6, 143040, Note_on_c, 9, 38, 95
6, 143280, Note_off_c, 9, 42, 95
6, 143280, Note_off_c, 9, 38, 95
6, 143280, Note_on_c, 9, 42, 63
6, 143520, Note_off_c, 9, 42, 63
6, 143520, Note_on_c, 9, 42, 95
6, 143760, Note_off_c, 9, 42, 95
6, 143760, Note_on_c, 9, 42, 63
6, 143760, Note_on_c, 9, 36, 95
6, 144000, Note_off_c, 9, 42, 63
6, 144000, Note_off_c, 9, 36, 95
6, 144000, Note_on_c, 9, 42, 95
6, 144000, Note_on_c, 9, 36, 111
6, 144240, Note_off_c, 9, 42, 95
6, 144240, Note_off_c, 9, 36, 111
6, 144240, Note_on_c, 9, 42, 63
6, 144480, Note_off_c, 9, 42, 63
6, 144480, Note_on_c, 9, 42, 95
6, 144480, Note_on_c, 9, 36, 95
6, 144720, Note_off_c, 9, 42, 95
6, 144720, Note_off_c, 9, 36, 95
6, 144720, Note_on_c, 9, 42, 63
6, 144960, Note_off_c, 9, 42, 63
6, 144960, Note_on_c, 9, 42, 95
6, 144960, Note_on_c, 9, 38, 111
6, 145200, Note_off_c, 9, 42, 95
6, 145200, Note_off_c, 9, 38, 111
6, 145200, Note_on_c, 9, 42, 63
6, 145440, Note_off_c, 9, 42, 63
6, 145440, Note_on_c, 9, 42, 95
6, 145680, Note_off_c, 9, 42, 95
6, 145680, Note_on_c, 9, 42, 63
6, 145920, Note_off_c, 9, 42, 63
6, 145920, Note_on_c, 9, 42, 95
6, 145920, Note_on_c, 9, 36, 111
6, 146160, Note_off_c, 9, 42, 95
6, 146160, Note_off_c, 9, 36, 111
6, 146160, Note_on_c, 9, 42, 63
6, 146400, Note_off_c, 9, 42, 63
6, 146400, Note_on_c, 9, 42, 95
6, 146400, Note_on_c, 9, 36, 95
6, 146640, Note_off_c, 9, 42, 95
6, 146640, Note_off_c, 9, 36, 95
6, 146640, Note_on_c, 9, 42, 63
6, 146880, Note_off_c, 9, 42, 63
6, 146880, Note_on_c, 9, 42, 95
6, 146880, Note_on_c, 9, 38, 95
6, 147120, Note_off_c, 9, 42, 95
6, 147120, Note_off_c, 9, 38, 95
6, 147120, Note_on_c, 9, 42, 63
6, 147360, Note_off_c, 9, 42, 63
6, 147360, Note_on_c, 9, 42, 95
6, 147600, Note_off_c, 9, 42, 95
6, 147600, Note_on_c, 9, 42, 63
6, 147600, Note_on_c, 9, 36, 95
6, 147840, Note_off_c, 9, 42, 63
6, 147840, Note_off_c, 9, 36, 95
6, 147840, Note_on_c, 9, 42, 95
6, 147840, Note_on_c, 9, 36, 111
6, 148080, Note_off_c, 9, 42, 95
6, 148080, Note_off_c, 9, 36, 111
6, 148080, Note_on_c, 9, 42, 63
6, 148320, Note_off_c, 9, 42, 63
6, 148320, Note_on_c, 9, 42, 95
6, 148320, Note_on_c, 9, 36, 95
6, 148560, Note_off_c, 9, 42, 95
6, 148560, Note_off_c, 9, 36, 95
6, 148560, Note_on_c, 9, 42, 63
6, 148800, Note_off_c, 9, 42, 63
6, 148800, Note_on_c, 9, 42, 95
6, 148800, Note_on_c, 9, 38, 111
6, 149040, Note_off_c, 9, 42, 95
6, 149040, Note_off_c, 9, 38, 111
6, 149040, Note_on_c, 9, 42, 63
6, 149280, Note_off_c, 9, 42, 63
6, 149280, Note_on_c, 9, 42, 95
6, 149520, Note_off_c, 9, 42, 95
6, 149520, Note_on_c, 9, 42, 63
6, 149760, Note_off_c, 9, 42, 63
6, 149760, Note_on_c, 9, 42, 95
6, 149760, Note_on_c, 9, 36, 111
6, 150000, Note_off_c, 9, 42, 95
6, 150000, Note_off_c, 9, 36, 111
6, 150000, Note_on_c, 9, 42, 63
6, 150240, Note_off_c, 9, 42, 63
6, 150240, Note_on_c, 9, 42, 95
6, 150240, Note_on_c, 9, 36, 95
6, 150480, Note_off_c, 9, 42, 95
6, 150480, Note_off_c, 9, 36, 95
6, 150480, Note_on_c, 9, 42, 63
6, 150720, Note_off_c, 9, 42, 63
6, 150720, Note_on_c, 9, 42, 95
6, 150720, Note_on_c, 9, 38, 95
6, 150960, Note_off_c, 9, 42, 95
6, 150960, Note_off_c, 9, 38, 95
6, 150960, Note_on_c, 9, 42, 63
6, 151200, Note_off_c, 9, 42, 63
6, 151200, Note_on_c, 9, 42, 95
6, 151440, Note_off_c, 9, 42, 95
6, 151440, Note_on_c, 9, 42, 63
6, 151440, Note_on_c, 9, 36, 95
6, 151680, Note_off_c, 9, 42, 63
6, 151680, Note_off_c, 9, 36, 95
6, 151680, Note_on_c, 9, 42, 95
6, 151680, Note_on_c, 9, 36, 111
6, 151920, Note_off_c, 9, 42, 95
6, 151920, Note_off_c, 9, 36, 111
6, 151920, Note_on_c, 9, 42, 63
6, 152160, Note_off_c, 9, 42, 63
6, 152160, Note_on_c, 9, 42, 95
6, 152160, Note_on_c, 9, 36, 95
6, 152400, Note_off_c, 9, 42, 95
6, 152400, Note_off_c, 9, 36, 95
6, 152400, Note_on_c, 9, 42, 63
6, 152640, Note_off_c, 9, 42, 63
6, 152640, Note_on_c, 9, 42, 95
6, 152640, Note_on_c, 9, 38, 111
6, 152880, Note_off_c, 9, 42, 95
6, 152880, Note_off_c, 9, 38, 111
6, 152880, Note_on_c, 9, 42, 63
6, 153120, Note_off_c, 9, 42, 63
6, 153120, Note_on_c, 9, 42, 95
6, 153360, Note_off_c, 9, 42, 95
6, 153360, Note_on_c, 9, 42, 63
6, 153600, Note_off_c, 9, 42, 63
6, 153600, Note_on_c, 9, 42, 95
6, 153600, Note_on_c, 9, 36, 111
6, 153840, Note_off_c, 9, 42, 95
6, 153840, Note_off_c, 9, 36, 111
6, 153840, Note_on_c, 9, 42, 63
6, 154080, Note_off_c, 9, 42, 63
6, 154080, Note_on_c, 9, 42, 95
6, 154080, Note_on_c, 9, 36, 95
6, 154320, Note_off_c, 9, 42, 95
6, 154320, Note_off_c, 9, 36, 95
6, 154320, Note_on_c, 9, 42, 63
6, 154560, Note_off_c, 9, 42, 63
6, 154560, Note_on_c, 9, 42, 95
6, 154560, Note_on_c, 9, 38, 95
6, 154800, Note_off_c, 9, 42, 95
6, 154800, Note_off_c, 9, 38, 95
6, 154800, Note_on_c, 9, 42, 63
6, 155040, Note_off_c, 9, 42, 63
6, 155040, Note_on_c, 9, 42, 95
6, 155280, Note_off_c, 9, 42, 95
6, 155280, Note_on_c, 9, 42, 63
6, 155280, Note_on_c, 9, 36, 95
6, 155520, Note_off_c, 9, 42, 63
6, 155520, Note_off_c, 9, 36, 95
6, 155520, Note_on_c, 9, 42, 95
6, 155520, Note_on_c, 9, 36, 111
6, 155760, Note_off_c, 9, 42, 95
6, 155760, Note_off_c, 9, 36, 111
6, 155760, Note_on_c, 9, 42, 63
6, 156000, Note_off_c, 9, 42, 63
6, 156000, Note_on_c, 9, 42, 95
6, 156000, Note_on_c, 9, 36, 95
6, 156240, Note_off_c, 9, 42, 95
6, 156240, Note_off_c, 9, 36, 95
6, 156240, Note_on_c, 9, 42, 63
6, 156480, Note_off_c, 9, 42, 63
6, 156480, Note_on_c, 9, 42, 95
6, 156480, Note_on_c, 9, 38, 111
6, 156720, Note_off_c, 9, 42, 95
6, 156720, Note_off_c, 9, 38, 111
6, 156720, Note_on_c, 9, 42, 63
6, 156960, Note_off_c, 9, 42, 63
6, 156960, Note_on_c, 9, 42, 95
6, 157200, Note_off_c, 9, 42, 95
6, 157200, Note_on_c, 9, 42, 63
6, 157440, Note_off_c, 9, 42, 63
6, 157440, Note_on_c, 9, 42, 95
6, 157440, Note_on_c, 9, 36, 111
6, 157680, Note_off_c, 9, 42, 95
6, 157680, Note_off_c, 9, 36, 111
6, 157680, Note_on_c, 9, 42, 63
6, 157920, Note_off_c, 9, 42, 63
6, 157920, Note_on_c, 9, 42, 95
6, 157920, Note_on_c, 9, 36, 95
6, 158160, Note_off_c, 9, 42, 95
6, 158160, Note_off_c, 9, 36, 95
6, 158160, Note_on_c, 9, 42, 63
6, 158400, Note_off_c, 9, 42, 63
6, 158400, Note_on_c, 9, 42, 95
6, 158400, Note_on_c, 9, 38, 95
6, 158640, Note_off_c, 9, 42, 95
6, 158640, Note_off_c, 9, 38, 95
6, 158640, Note_on_c, 9, 42, 63
6, 158880, Note_off_c, 9, 42, 63
6, 158880, Note_on_c, 9, 42, 95
6, 159120, Note_off_c, 9, 42, 95
6, 159120, Note_on_c, 9, 42, 63
6, 159120, Note_on_c, 9, 36, 95
6, 159360, Note_off_c, 9, 42, 63
6, 159360, Note_off_c, 9, 36, 95
6, 159360, Note_on_c, 9, 42, 95
6, 159360, Note_on_c, 9, 36, 111
6, 159600, Note_off_c, 9, 42, 95
6, 159600, Note_off_c, 9, 36, 111
6, 159600, Note_on_c, 9, 42, 63
6, 159840, Note_off_c, 9, 42, 63
6, 159840, Note_on_c, 9, 42, 95
6, 159840, Note_on_c, 9, 36, 95
6, 160080, Note_off_c, 9, 42, 95
6, 160080, Note_off_c, 9, 36, 95
6, 160080, Note_on_c, 9, 42, 63
6, 160320, Note_off_c, 9, 42, 63
6, 160320, Note_on_c, 9, 42, 95
6, 160320, Note_on_c, 9, 38, 111
6, 160560, Note_off_c, 9, 42, 95
6, 160560, Note_off_c, 9, 38, 111
6, 160560, Note_on_c, 9, 42, 63
6, 160800, Note_off_c, 9, 42, 63
6, 160800, Note_on_c, 9, 42, 95
6, 161040, Note_off_c, 9, 42, 95
6, 161040, Note_on_c, 9, 42, 63
6, 161280, Note_off_c, 9, 42, 63
6, 161280, Note_on_c, 9, 42, 95
6, 161280, Note_on_c, 9, 36, 111
6, 161520, Note_off_c, 9, 42, 95
6, 161520, Note_off_c, 9, 36, 111
6, 161520, Note_on_c, 9, 42, 63
6, 161760, Note_off_c, 9, 42, 63
6, 161760, Note_on_c, 9, 42, 95
6, 161760, Note_on_c, 9, 36, 95
6, 162000, Note_off_c, 9, 42, 95
6, 162000, Note_off_c, 9, 36, 95
6, 162000, Note_on_c, 9, 42, 63
6, 162240, Note_off_c, 9, 42, 63
6, 162240, Note_on_c, 9, 42, 95
6, 162240, Note_on_c, 9, 38, 95
6, 162480, Note_off_c, 9, 42, 95
6, 162480, Note_off_c, 9, 38, 95
6, 162480, Note_on_c, 9, 42, 63
6, 162720, Note_off_c, 9, 42, 63
6, 162720, Note_on_c, 9, 42, 95
6, 162960, Note_off_c, 9, 42, 95
6, 162960, Note_on_c, 9, 42, 63
6, 162960, Note_on_c, 9, 36, 95
6, 163200, Note_off_c, 9, 42, 63
6, 163200, Note_off_c, 9, 36, 95
6, 163200, Note_on_c, 9, 42, 95
6, 163200, Note_on_c, 9, 36, 111
6, 163440, Note_off_c, 9, 42, 95
6, 163440, Note_off_c, 9, 36, 111
6, 163440, Note_on_c, 9, 42, 63
6, 163680, Note_off_c, 9, 42, 63
6, 163680, Note_on_c, 9, 42, 95
6, 163680, Note_on_c, 9, 36, 95
6, 163920, Note_off_c, 9, 42, 95
6, 163920, Note_off_c, 9, 36, 95
6, 163920, Note_on_c, 9, 42, 63
6, 164160, Note_off_c, 9, 42, 63
6, 164160, Note_on_c, 9, 42, 95
6, 164160, Note_on_c, 9, 38, 111
6, 164400, Note_off_c, 9, 42, 95
6, 164400, Note_off_c, 9, 38, 111
6, 164400, Note_on_c, 9, 42, 63
6, 164640, Note_off_c, 9, 42, 63
6, 164640, Note_on_c, 9, 42, 95
6, 164880, Note_off_c, 9, 42, 95
6, 164880, Note_on_c, 9, 42, 63
6, 165120, Note_off_c, 9, 42, 63
6, 165120, Note_on_c, 9, 42, 95
6, 165120, Note_on_c, 9, 36, 111
6, 165360, Note_off_c, 9, 42, 95
6, 165360, Note_off_c, 9, 36, 111
6, 165360, Note_on_c, 9, 42, 63
6, 165600, Note_off_c, 9, 42, 63
6, 165600, Note_on_c, 9, 42, 95
6, 165600, Note_on_c, 9, 36, 95
6, 165840, Note_off_c, 9, 42, 95
6, 165840, Note_off_c, 9, 36, 95
6, 165840, Note_on_c, 9, 42, 63
6, 166080, Note_off_c, 9, 42, 63
6, 166080, Note_on_c, 9, 42, 95
6, 166080, Note_on_c, 9, 38, 95
6, 166320, Note_off_c, 9, 42, 95
6, 166320, Note_off_c, 9, 38, 95
6, 166320, Note_on_c, 9, 42, 63
6, 166560, Note_off_c, 9, 42, 63
6, 166560, Note_on_c, 9, 42, 95
6, 166800, Note_off_c, 9, 42, 95
6, 166800, Note_on_c, 9, 42, 63
6, 166800, Note_on_c, 9, 36, 95
6, 167040, Note_off_c, 9, 42, 63
6, 167040, Note_off_c, 9, 36, 95
6, 167040, Note_on_c, 9, 42, 95
6, 167040, Note_on_c, 9, 36, 111
6, 167280, Note_off_c, 9, 42, 95
6, 167280, Note_off_c, 9, 36, 111
6, 167280, Note_on_c, 9, 42, 63
6, 167520, Note_off_c, 9, 42, 63
6, 167520, Note_on_c, 9, 42, 95
6, 167520, Note_on_c, 9, 36, 95
6, 167760, Note_off_c, 9, 42, 95
6, 167760, Note_off_c, 9, 36, 95
6, 167760, Note_on_c, 9, 42, 63
6, 168000, Note_off_c, 9, 42, 63
6, 168000, Note_on_c, 9, 42, 95
6, 168000, Note_on_c, 9, 38, 111
6, 168240, Note_off_c, 9, 42, 95
6, 168240, Note_off_c, 9, 38, 111
6, 168240, Note_on_c, 9, 42, 63
6, 168480, Note_off_c, 9, 42, 63
6, 168480, Note_on_c, 9, 46, 111
6, 168960, Note_off_c, 9, 46, 111
6, 168960, Note_on_c, 9, 57, 95
6, 168960, Note_on_c, 9, 36, 111
6, 169920, Note_off_c, 9, 57, 95
6, 169920, Note_off_c, 9, 36, 111
6, 175440, Note_on_c, 9, 38, 95
6, 175680, Note_off_c, 9, 38, 95
6, 175680, Note_on_c, 9, 38, 111
6, 175920, Note_off_c, 9, 38, 111
6, 176160, Note_on_c, 9, 38, 111
6, 176400, Note_off_c, 9, 38, 111
6, 176640, Note_on_c, 9, 51, 95
6, 176640, Note_on_c, 9, 36, 111
6, 177120, Note_off_c, 9, 51, 95
6, 177120, Note_off_c, 9, 36, 111
6, 177120, Note_on_c, 9, 51, 95
6, 177120, Note_on_c, 9, 36, 95
6, 177600, Note_off_c, 9, 51, 95
6, 177600, Note_off_c, 9, 36, 95
6, 177600, Note_on_c, 9, 51, 95
6, 177600, Note_on_c, 9, 38, 95
6, 177840, Note_off_c, 9, 51, 95
6, 177840, Note_off_c, 9, 38, 95
6, 178080, Note_on_c, 9, 51, 95
6, 178320, Note_off_c, 9, 51, 95
6, 178320, Note_on_c, 9, 36, 95
6, 178560, Note_off_c, 9, 36, 95
6, 178560, Note_on_c, 9, 51, 95
6, 178560, Note_on_c, 9, 36, 111
6, 179040, Note_off_c, 9, 51, 95
6, 179040, Note_off_c, 9, 36, 111
6, 179040, Note_on_c, 9, 51, 95
6, 179040, Note_on_c, 9, 36, 95
6, 179520, Note_off_c, 9, 51, 95
6, 179520, Note_off_c, 9, 36, 95
6, 179520, Note_on_c, 9, 51, 95
6, 179520, Note_on_c, 9, 38, 111
6, 180000, Note_off_c, 9, 51, 95
6, 180000, Note_off_c, 9, 38, 111
6, 180000, Note_on_c, 9, 51, 95
6, 180480, Note_off_c, 9, 51, 95
6, 180480, Note_on_c, 9, 51, 95
6, 180480, Note_on_c, 9, 36, 111
6, 180960, Note_off_c, 9, 51, 95
6, 180960, Note_off_c, 9, 36, 111
6, 180960, Note_on_c, 9, 51, 95
6, 180960, Note_on_c, 9, 36, 95
6, 181440, Note_off_c, 9, 51, 95
6, 181440, Note_off_c, 9, 36, 95
6, 181440, Note_on_c, 9, 51, 95
6, 181440, Note_on_c, 9, 38, 95
6, 181680, Note_off_c, 9, 51, 95
6, 181680, Note_off_c, 9, 38, 95
6, 181920, Note_on_c, 9, 51, 95
6, 182160, Note_off_c, 9, 51, 95
6, 182160, Note_on_c, 9, 36, 95
6, 182400, Note_off_c, 9, 36, 95
6, 182400, Note_on_c, 9, 51, 95
6, 182400, Note_on_c, 9, 36, 111
6, 182880, Note_off_c, 9, 51, 95
6, 182880, Note_off_c, 9, 36, 111
6, 182880, Note_on_c, 9, 51, 95
6, 182880, Note_on_c, 9, 36, 111
6, 183360, Note_off_c, 9, 51, 95
6, 183360, Note_off_c, 9, 36, 111
6, 183360, Note_on_c, 9, 51, 95
6, 183360, Note_on_c, 9, 38, 111
6, 183840, Note_off_c, 9, 51, 95
6, 183840, Note_off_c, 9, 38, 111
6, 183840, Note_on_c, 9, 51, 95
6, 184320, Note_off_c, 9, 51, 95
6, 184320, Note_on_c, 9, 51, 95
6, 184320, Note_on_c, 9, 36, 111
6, 184800, Note_off_c, 9, 51, 95
6, 184800, Note_off_c, 9, 36, 111
6, 184800, Note_on_c, 9, 51, 95
6, 184800, Note_on_c, 9, 36, 95
6, 185280, Note_off_c, 9, 51, 95
6, 185280, Note_off_c, 9, 36, 95
6, 185280, Note_on_c, 9, 51, 95
6, 185280, Note_on_c, 9, 38, 95
6, 185520, Note_off_c, 9, 51, 95
6, 185520, Note_off_c, 9, 38, 95
6, 185760, Note_on_c, 9, 51, 95
6, 186000, Note_off_c, 9, 51, 95
6, 186000, Note_on_c, 9, 36, 95
6, 186240, Note_off_c, 9, 36, 95
6, 186240, Note_on_c, 9, 51, 95
6, 186240, Note_on_c, 9, 36, 111
6, 186720, Note_off_c, 9, 51, 95
6, 186720, Note_off_c, 9, 36, 111
6, 186720, Note_on_c, 9, 51, 95
6, 186720, Note_on_c, 9, 36, 111
6, 187200, Note_off_c, 9, 51, 95
6, 187200, Note_off_c, 9, 36, 111
6, 187200, Note_on_c, 9, 51, 95
6, 187200, Note_on_c, 9, 38, 111
6, 187680, Note_off_c, 9, 51, 95
6, 187680, Note_off_c, 9, 38, 111
6, 187680, Note_on_c, 9, 51, 95
6, 188160, Note_off_c, 9, 51, 95
6, 188160, Note_on_c, 9, 42, 111
6, 188160, Note_on_c, 9, 36, 111
6, 188640, Note_off_c, 9, 42, 111
6, 188640, Note_off_c, 9, 36, 111
6, 188640, Note_on_c, 9, 38, 127
6, 188880, Note_off_c, 9, 38, 127
6, 188880, Note_on_c, 9, 36, 95
6, 189120, Note_off_c, 9, 36, 95
6, 189600, Note_on_c, 9, 36, 95
6, 190080, Note_off_c, 9, 36, 95
6, 190080, Note_on_c, 9, 38, 63
6, 190200, Note_off_c, 9, 38, 63
6, 190200, Note_on_c, 9, 38, 63
6, 190320, Note_off_c, 9, 38, 63
6, 190320, Note_on_c, 9, 38, 79
6, 190440, Note_off_c, 9, 38, 79
6, 190440, Note_on_c, 9, 38, 111
6, 190560, Note_off_c, 9, 38, 111
6, 190560, Note_on_c, 9, 38, 111
6, 191040, Note_off_c, 9, 38, 111
6, 191040, Note_on_c, 9, 38, 111
6, 191520, Note_off_c, 9, 38, 111
6, 191520, Note_on_c, 9, 38, 127
6, 192000, Note_off_c, 9, 38, 127
6, 192000, Note_on_c, 9, 42, 95
6, 192000, Note_on_c, 9, 36, 111
6, 192240, Note_off_c, 9, 42, 95
6, 192240, Note_off_c, 9, 36, 111
6, 192240, Note_on_c, 9, 42, 63
6, 192480, Note_off_c, 9, 42, 63
6, 192480, Note_on_c, 9, 42, 95
6, 192480, Note_on_c, 9, 36, 95
6, 192720, Note_off_c, 9, 42, 95
6, 192720, Note_off_c, 9, 36, 95
6, 192720, Note_on_c, 9, 42, 63
6, 192960, Note_off_c, 9, 42, 63
6, 192960, Note_on_c, 9, 42, 95
6, 192960, Note_on_c, 9, 38, 95
6, 193200, Note_off_c, 9, 42, 95
6, 193200, Note_off_c, 9, 38, 95
6, 193200, Note_on_c, 9, 42, 63
6, 193440, Note_off_c, 9, 42, 63
6, 193440, Note_on_c, 9, 42, 95
6, 193680, Note_off_c, 9, 42, 95
6, 193680, Note_on_c, 9, 42, 63
6, 193680, Note_on_c, 9, 36, 95
6, 193920, Note_off_c, 9, 42, 63
6, 193920, Note_off_c, 9, 36, 95
6, 193920, Note_on_c, 9, 42, 95
6, 193920, Note_on_c, 9, 36, 111
6, 194160, Note_off_c, 9, 42, 95
6, 194160, Note_off_c, 9, 36, 111
6, 194160, Note_on_c, 9, 42, 63
6, 194400, Note_off_c, 9, 42, 63
6, 194400, Note_on_c, 9, 42, 95
6, 194400, Note_on_c, 9, 36, 95
6, 194640, Note_off_c, 9, 42, 95
6, 194640, Note_off_c, 9, 36, 95
6, 194640, Note_on_c, 9, 42, 63
6, 194880, Note_off_c, 9, 42, 63
6, 194880, Note_on_c, 9, 42, 95
6, 194880, Note_on_c, 9, 38, 111
6, 195120, Note_off_c, 9, 42, 95
6, 195120, Note_off_c, 9, 38, 111
6, 195120, Note_on_c, 9, 42, 63
6, 195360, Note_off_c, 9, 42, 63
6, 195360, Note_on_c, 9, 42, 95
6, 195600, Note_off_c, 9, 42, 95
6, 195600, Note_on_c, 9, 42, 63
6, 195840, Note_off_c, 9, 42, 63
6, 195840, Note_on_c, 9, 42, 95
6, 195840, Note_on_c, 9, 36, 111
6, 196080, Note_off_c, 9, 42, 95
6, 196080, Note_off_c, 9, 36, 111
6, 196080, Note_on_c, 9, 42, 63
6, 196320, Note_off_c, 9, 42, 63
6, 196320, Note_on_c, 9, 42, 95
6, 196320, Note_on_c, 9, 36, 95
6, 196560, Note_off_c, 9, 42, 95
6, 196560, Note_off_c, 9, 36, 95
6, 196560, Note_on_c, 9, 42, 63
6, 196800, Note_off_c, 9, 42, 63
6, 196800, Note_on_c, 9, 42, 95
6, 196800, Note_on_c, 9, 38, 95
6, 197040, Note_off_c, 9, 42, 95
6, 197040, Note_off_c, 9, 38, 95
6, 197040, Note_on_c, 9, 42, 63
6, 197280, Note_off_c, 9, 42, 63
6, 197280, Note_on_c, 9, 42, 95
6, 197520, Note_off_c, 9, 42, 95
6, 197520, Note_on_c, 9, 42, 63
6, 197520, Note_on_c, 9, 36, 95
6, 197760, Note_off_c, 9, 42, 63
6, 197760, Note_off_c, 9, 36, 95
6, 197760, Note_on_c, 9, 42, 95
6, 197760, Note_on_c, 9, 36, 111
6, 198000, Note_off_c, 9, 42, 95
6, 198000, Note_off_c, 9, 36, 111
6, 198000, Note_on_c, 9, 42, 63
6, 198240, Note_off_c, 9, 42, 63
6, 198240, Note_on_c, 9, 42, 95
6, 198240, Note_on_c, 9, 36, 95
6, 198480, Note_off_c, 9, 42, 95
6, 198480, Note_off_c, 9, 36, 95
6, 198480, Note_on_c, 9, 42, 63
6, 198720, Note_off_c, 9, 42, 63
6, 198720, Note_on_c, 9, 42, 95
6, 198720, Note_on_c, 9, 38, 111
6, 198960, Note_off_c, 9, 42, 95
6, 198960, Note_off_c, 9, 38, 111
6, 198960, Note_on_c, 9, 42, 63
6, 199200, Note_off_c, 9, 42, 63
6, 199200, Note_on_c, 9, 42, 95
6, 199440, Note_off_c, 9, 42, 95
6, 199440, Note_on_c, 9, 42, 63
6, 199680, Note_off_c, 9, 42, 63
6, 199680, Note_on_c, 9, 42, 95
6, 199680, Note_on_c, 9, 36, 111
6, 199920, Note_off_c, 9, 42, 95
6, 199920, Note_off_c, 9, 36, 111
6, 199920, Note_on_c, 9, 42, 63
6, 200160, Note_off_c, 9, 42, 63
6, 200160, Note_on_c, 9, 42, 95
6, 200160, Note_on_c, 9, 36, 95
6, 200400, Note_off_c, 9, 42, 95
6, 200400, Note_off_c, 9, 36, 95
6, 200400, Note_on_c, 9, 42, 63
6, 200640, Note_off_c, 9, 42, 63
6, 200640, Note_on_c, 9, 42, 95
6, 200640, Note_on_c, 9, 38, 95
6, 200880, Note_off_c, 9, 42, 95
6, 200880, Note_off_c, 9, 38, 95
6, 200880, Note_on_c, 9, 42, 63
6, 201120, Note_off_c, 9, 42, 63
6, 201120, Note_on_c, 9, 42, 95
6, 201360, Note_off_c, 9, 42, 95
6, 201360, Note_on_c, 9, 42, 63
6, 201360, Note_on_c, 9, 36, 95
6, 201600, Note_off_c, 9, 42, 63
6, 201600, Note_off_c, 9, 36, 95
6, 201600, Note_on_c, 9, 42, 95
6, 201600, Note_on_c, 9, 36, 111
6, 201840, Note_off_c, 9, 42, 95
6, 201840, Note_off_c, 9, 36, 111
6, 201840, Note_on_c, 9, 42, 63
6, 202080, Note_off_c, 9, 42, 63
6, 202080, Note_on_c, 9, 42, 95
6, 202080, Note_on_c, 9, 36, 95
6, 202320, Note_off_c, 9, 42, 95
6, 202320, Note_off_c, 9, 36, 95
6, 202320, Note_on_c, 9, 42, 63
6, 202560, Note_off_c, 9, 42, 63
6, 202560, Note_on_c, 9, 42, 95
6, 202560, Note_on_c, 9, 38, 111
6, 202800, Note_off_c, 9, 42, 95
6, 202800, Note_off_c, 9, 38, 111
6, 202800, Note_on_c, 9, 42, 63
6, 203040, Note_off_c, 9, 42, 63
6, 203040, Note_on_c, 9, 42, 95
6, 203280, Note_off_c, 9, 42, 95
6, 203280, Note_on_c, 9, 42, 63
6, 203520, Note_off_c, 9, 42, 63
6, 203520, Note_on_c, 9, 42, 95
6, 203520, Note_on_c, 9, 36, 111
6, 203760, Note_off_c, 9, 42, 95
6, 203760, Note_off_c, 9, 36, 111
6, 203760, Note_on_c, 9, 42, 63
6, 204000, Note_off_c, 9, 42, 63
6, 204000, Note_on_c, 9, 42, 95
6, 204000, Note_on_c, 9, 36, 95
6, 204240, Note_off_c, 9, 42, 95
6, 204240, Note_off_c, 9, 36, 95
6, 204240, Note_on_c, 9, 42, 63
6, 204480, Note_off_c, 9, 42, 63
6, 204480, Note_on_c, 9, 42, 95
6, 204480, Note_on_c, 9, 38, 95
6, 204720, Note_off_c, 9, 42, 95
6, 204720, Note_off_c, 9, 38, 95
6, 204720, Note_on_c, 9, 42, 63
6, 204960, Note_off_c, 9, 42, 63
6, 204960, Note_on_c, 9, 42, 95
6, 205200, Note_off_c, 9, 42, 95
6, 205200, Note_on_c, 9, 42, 63
6, 205200, Note_on_c, 9, 36, 95
6, 205440, Note_off_c, 9, 42, 63
6, 205440, Note_off_c, 9, 36, 95
6, 205440, Note_on_c, 9, 42, 95
6, 205440, Note_on_c, 9, 36, 111
6, 205680, Note_off_c, 9, 42, 95
6, 205680, Note_off_c, 9, 36, 111
6, 205680, Note_on_c, 9, 42, 63
6, 205920, Note_off_c, 9, 42, 63
6, 205920, Note_on_c, 9, 42, 95
6, 205920, Note_on_c, 9, 36, 95
6, 206160, Note_off_c, 9, 42, 95
6, 206160, Note_off_c, 9, 36, 95
6, 206160, Note_on_c, 9, 42, 63
6, 206400, Note_off_c, 9, 42, 63
6, 206400, Note_on_c, 9, 42, 95
6, 206400, Note_on_c, 9, 38, 111
6, 206640, Note_off_c, 9, 42, 95
6, 206640, Note_off_c, 9, 38, 111
6, 206640, Note_on_c, 9, 42, 63
6, 206880, Note_off_c, 9, 42, 63
6, 206880, Note_on_c, 9, 42, 95
6, 207120, Note_off_c, 9, 42, 95
6, 207120, Note_on_c, 9, 42, 63
6, 207360, Note_off_c, 9, 42, 63
6, 207360, Note_on_c, 9, 42, 95
6, 207360, Note_on_c, 9, 36, 111
6, 207600, Note_off_c, 9, 42, 95
6, 207600, Note_off_c, 9, 36, 111
6, 207600, Note_on_c, 9, 42, 63
6, 207840, Note_off_c, 9, 42, 63
6, 207840, Note_on_c, 9, 42, 95
6, 207840, Note_on_c, 9, 36, 95
6, 208080, Note_off_c, 9, 42, 95
6, 208080, Note_off_c, 9, 36, 95
6, 208080, Note_on_c, 9, 42, 63
6, 208320, Note_off_c, 9, 42, 63
6, 208320, Note_on_c, 9, 42, 95
6, 208320, Note_on_c, 9, 38, 95
6, 208560, Note_off_c, 9, 42, 95
6, 208560, Note_off_c, 9, 38, 95
6, 208560, Note_on_c, 9, 42, 63
6, 208800, Note_off_c, 9, 42, 63
6, 208800, Note_on_c, 9, 42, 95
6, 209040, Note_off_c, 9, 42, 95
6, 209040, Note_on_c, 9, 42, 63
6, 209040, Note_on_c, 9, 36, 95
6, 209280, Note_off_c, 9, 42, 63
6, 209280, Note_off_c, 9, 36, 95
6, 209280, Note_on_c, 9, 42, 95
6, 209280, Note_on_c, 9, 36, 111
6, 209520, Note_off_c, 9, 42, 95
6, 209520, Note_off_c, 9, 36, 111
6, 209520, Note_on_c, 9, 42, 63
6, 209760, Note_off_c, 9, 42, 63
6, 209760, Note_on_c, 9, 42, 95
6, 209760, Note_on_c, 9, 36, 95
6, 210000, Note_off_c, 9, 42, 95
6, 210000, Note_off_c, 9, 36, 95
6, 210000, Note_on_c, 9, 42, 63
6, 210240, Note_off_c, 9, 42, 63
6, 210240, Note_on_c, 9, 42, 95
6, 210240, Note_on_c, 9, 38, 111
6, 210480, Note_off_c, 9, 42, 95
6, 210480, Note_off_c, 9, 38, 111
6, 210480, Note_on_c, 9, 42, 63
6, 210720, Note_off_c, 9, 42, 63
6, 210720, Note_on_c, 9, 42, 95
6, 210960, Note_off_c, 9, 42, 95
6, 210960, Note_on_c, 9, 42, 63
6, 211200, Note_off_c, 9, 42, 63
6, 211200, End_track
7, 0, Start_track
7, 0, Title_t, "Sequenced by Estrada 4th November 2012"
7, 0, Control_c, 8, 10, 7
7, 0, Control_c, 8, 7, 127
7, 0, Program_c, 8, 17
7, 0, Sequencer_specific, 5, 5, 15, 9, 8, 64
7, 0, Sequencer_specific, 15, 5, 15, 6, 71, 101, 110, 101, 114, 97, 108, 32, 77, 73, 68, 73
7, 0, Key_signature, -2, "major"
7, 15360, Note_on_c, 8, 82, 100
7, 15840, Note_off_c, 8, 82, 0
7, 15840, Note_on_c, 8, 77, 100
7, 16320, Note_off_c, 8, 77, 0
7, 16320, Note_on_c, 8, 79, 100
7, 16800, Note_off_c, 8, 79, 0
7, 16800, Note_on_c, 8, 74, 100
7, 17280, Note_off_c, 8, 74, 0
7, 17280, Note_on_c, 8, 77, 100
7, 17520, Note_off_c, 8, 77, 0
7, 17520, Note_on_c, 8, 72, 100
7, 18000, Note_off_c, 8, 72, 0
7, 18000, Note_on_c, 8, 74, 100
7, 18240, Note_off_c, 8, 74, 0
7, 18240, Note_on_c, 8, 72, 100
7, 18480, Note_off_c, 8, 72, 0
7, 18480, Note_on_c, 8, 70, 100
7, 18720, Note_off_c, 8, 70, 0
7, 18720, Note_on_c, 8, 70, 100
7, 18960, Note_off_c, 8, 70, 0
7, 18960, Note_on_c, 8, 70, 100
7, 19200, Note_off_c, 8, 70, 0
7, 19200, Note_on_c, 8, 74, 100
7, 19440, Note_off_c, 8, 74, 0
7, 19440, Note_on_c, 8, 72, 100
7, 19680, Note_off_c, 8, 72, 0
7, 19680, Note_on_c, 8, 70, 100
7, 19920, Note_off_c, 8, 70, 0
7, 19920, Note_on_c, 8, 67, 100
7, 20160, Note_off_c, 8, 67, 0
7, 20160, Note_on_c, 8, 70, 100
7, 20640, Note_off_c, 8, 70, 0
7, 20640, Note_on_c, 8, 70, 100
7, 20880, Note_off_c, 8, 70, 0
7, 20880, Note_on_c, 8, 74, 100
7, 21120, Note_off_c, 8, 74, 0
7, 21120, Note_on_c, 8, 74, 100
7, 21360, Note_off_c, 8, 74, 0
7, 21360, Note_on_c, 8, 72, 100
7, 21600, Note_off_c, 8, 72, 0
7, 21600, Note_on_c, 8, 70, 100
7, 21840, Note_off_c, 8, 70, 0
7, 21840, Note_on_c, 8, 67, 100
7, 22080, Note_off_c, 8, 67, 0
7, 23040, Note_on_c, 8, 77, 100
7, 23520, Note_off_c, 8, 77, 0
7, 23520, Note_on_c, 8, 79, 100
7, 24000, Note_off_c, 8, 79, 0
7, 24000, Note_on_c, 8, 79, 100
7, 24480, Note_off_c, 8, 79, 0
7, 24480, Note_on_c, 8, 73, 100
7, 24960, Note_off_c, 8, 73, 0
7, 24960, Note_on_c, 8, 74, 100
7, 25440, Note_off_c, 8, 74, 0
7, 25440, Note_on_c, 8, 70, 100
7, 25680, Note_off_c, 8, 70, 0
7, 25680, Note_on_c, 8, 74, 100
7, 25920, Note_off_c, 8, 74, 0
7, 25920, Note_on_c, 8, 74, 100
7, 26160, Note_off_c, 8, 74, 0
7, 26160, Note_on_c, 8, 70, 100
7, 26400, Note_off_c, 8, 70, 0
7, 26400, Note_on_c, 8, 70, 100
7, 26640, Note_off_c, 8, 70, 0
7, 26640, Note_on_c, 8, 74, 100
7, 26880, Note_off_c, 8, 74, 0
7, 26880, Note_on_c, 8, 74, 100
7, 27120, Note_off_c, 8, 74, 0
7, 27120, Note_on_c, 8, 70, 100
7, 27360, Note_off_c, 8, 70, 0
7, 27360, Note_on_c, 8, 70, 100
7, 27840, Note_off_c, 8, 70, 0
7, 27840, Note_on_c, 8, 70, 100
7, 27840, Sequencer_specific, 4, 5, 15, 15, 1
7, 28320, Note_off_c, 8, 70, 0
7, 28320, Note_on_c, 8, 67, 100
7, 28560, Note_off_c, 8, 67, 0
7, 28560, Note_on_c, 8, 65, 100
7, 28800, Note_off_c, 8, 65, 0
7, 28800, Note_on_c, 8, 67, 100
7, 29040, Note_off_c, 8, 67, 0
7, 29040, Note_on_c, 8, 70, 100
7, 29280, Note_off_c, 8, 70, 0
7, 30720, Note_on_c, 8, 81, 100
7, 31200, Note_off_c, 8, 81, 0
7, 31200, Note_on_c, 8, 77, 100
7, 31440, Note_off_c, 8, 77, 0
7, 31440, Note_on_c, 8, 79, 100
7, 31680, Note_off_c, 8, 79, 0
7, 31680, Note_on_c, 8, 79, 100
7, 31920, Note_off_c, 8, 79, 0
7, 31920, Note_on_c, 8, 73, 100
7, 32400, Note_off_c, 8, 73, 0
7, 32400, Note_on_c, 8, 74, 100
7, 32640, Note_off_c, 8, 74, 0
7, 32640, Note_on_c, 8, 74, 100
7, 32880, Note_off_c, 8, 74, 0
7, 32880, Note_on_c, 8, 74, 100
7, 33360, Note_off_c, 8, 74, 0
7, 33360, Note_on_c, 8, 74, 100
7, 33600, Note_off_c, 8, 74, 0
7, 33600, Note_on_c, 8, 72, 100
7, 33840, Note_off_c, 8, 72, 0
7, 33840, Note_on_c, 8, 70, 100
7, 34080, Note_off_c, 8, 70, 0
7, 34080, Note_on_c, 8, 70, 100
7, 34320, Note_off_c, 8, 70, 0
7, 34320, Note_on_c, 8, 70, 100
7, 34560, Note_off_c, 8, 70, 0
7, 34560, Note_on_c, 8, 74, 100
7, 35040, Note_off_c, 8, 74, 0
7, 35280, Note_on_c, 8, 70, 100
7, 35520, Note_off_c, 8, 70, 0
7, 35520, Note_on_c, 8, 70, 100
7, 36000, Note_off_c, 8, 70, 0
7, 36000, Note_on_c, 8, 74, 100
7, 36240, Note_off_c, 8, 74, 0
7, 36240, Note_on_c, 8, 72, 100
7, 36480, Note_off_c, 8, 72, 0
7, 36480, Note_on_c, 8, 72, 100
7, 36720, Note_off_c, 8, 72, 0
7, 38400, Note_on_c, 8, 79, 100
7, 38640, Note_off_c, 8, 79, 0
7, 38640, Note_on_c, 8, 77, 100
7, 39120, Note_off_c, 8, 77, 0
7, 39120, Note_on_c, 8, 79, 100
7, 39360, Note_off_c, 8, 79, 0
7, 39360, Note_on_c, 8, 79, 100
7, 39600, Note_off_c, 8, 79, 0
7, 39600, Note_on_c, 8, 73, 100
7, 40080, Note_off_c, 8, 73, 0
7, 40080, Note_on_c, 8, 74, 100
7, 40320, Note_off_c, 8, 74, 0
7, 40320, Note_on_c, 8, 72, 100
7, 40560, Note_off_c, 8, 72, 0
7, 40560, Note_on_c, 8, 70, 100
7, 40800, Note_off_c, 8, 70, 0
7, 40800, Note_on_c, 8, 70, 100
7, 41040, Note_off_c, 8, 70, 0
7, 41040, Note_on_c, 8, 74, 100
7, 41280, Note_off_c, 8, 74, 0
7, 41280, Note_on_c, 8, 74, 100
7, 41520, Note_off_c, 8, 74, 0
7, 41520, Note_on_c, 8, 70, 100
7, 41760, Note_off_c, 8, 70, 0
7, 41760, Note_on_c, 8, 70, 100
7, 42000, Note_off_c, 8, 70, 0
7, 42000, Note_on_c, 8, 74, 100
7, 42240, Note_off_c, 8, 74, 0
7, 42240, Note_on_c, 8, 74, 100
7, 42480, Note_off_c, 8, 74, 0
7, 42480, Note_on_c, 8, 70, 100
7, 42720, Note_off_c, 8, 70, 0
7, 42720, Note_on_c, 8, 70, 100
7, 43200, Note_off_c, 8, 70, 0
7, 43200, Note_on_c, 8, 70, 100
7, 43200, Sequencer_specific, 4, 5, 15, 15, 1
7, 43680, Note_off_c, 8, 70, 0
7, 43680, Note_on_c, 8, 67, 100
7, 43920, Note_off_c, 8, 67, 0
7, 43920, Note_on_c, 8, 65, 100
7, 44160, Note_off_c, 8, 65, 0
7, 44160, Note_on_c, 8, 67, 100
7, 44400, Note_off_c, 8, 67, 0
7, 44400, Note_on_c, 8, 70, 100
7, 44640, Note_off_c, 8, 70, 0
7, 46080, Note_on_c, 8, 77, 100
7, 46560, Note_off_c, 8, 77, 0
7, 46560, Note_on_c, 8, 77, 100
7, 47040, Note_off_c, 8, 77, 0
7, 47040, Note_on_c, 8, 77, 100
7, 47520, Note_off_c, 8, 77, 0
7, 47520, Note_on_c, 8, 74, 100
7, 47760, Note_off_c, 8, 74, 0
7, 47760, Note_on_c, 8, 77, 100
7, 48000, Note_off_c, 8, 77, 0
7, 48000, Note_on_c, 8, 77, 100
7, 48240, Note_off_c, 8, 77, 0
7, 48240, Note_on_c, 8, 77, 100
7, 48720, Note_off_c, 8, 77, 0
7, 48720, Note_on_c, 8, 74, 100
7, 48960, Note_off_c, 8, 74, 0
7, 48960, Note_on_c, 8, 77, 100
7, 49200, Note_off_c, 8, 77, 0
7, 49200, Note_on_c, 8, 79, 100
7, 49440, Note_off_c, 8, 79, 0
7, 49680, Note_on_c, 8, 72, 100
7, 49920, Note_off_c, 8, 72, 0
7, 49920, Note_on_c, 8, 74, 100
7, 50160, Note_off_c, 8, 74, 0
7, 50160, Note_on_c, 8, 77, 100
7, 50640, Note_off_c, 8, 77, 0
7, 50640, Note_on_c, 8, 77, 100
7, 50880, Note_off_c, 8, 77, 0
7, 50880, Note_on_c, 8, 77, 100
7, 51120, Note_off_c, 8, 77, 0
7, 51120, Note_on_c, 8, 74, 100
7, 51360, Note_off_c, 8, 74, 0
7, 51360, Note_on_c, 8, 77, 100
7, 51840, Note_off_c, 8, 77, 0
7, 51840, Note_on_c, 8, 79, 100
7, 52320, Note_off_c, 8, 79, 0
7, 52320, Note_on_c, 8, 73, 100
7, 52800, Note_off_c, 8, 73, 0
7, 52800, Note_on_c, 8, 70, 100
7, 53040, Note_off_c, 8, 70, 0
7, 53040, Note_on_c, 8, 70, 100
7, 53280, Note_off_c, 8, 70, 0
7, 53760, Note_on_c, 8, 82, 100
7, 54000, Note_off_c, 8, 82, 0
7, 54000, Note_on_c, 8, 82, 100
7, 54240, Note_off_c, 8, 82, 0
7, 54240, Note_on_c, 8, 79, 100
7, 54480, Note_off_c, 8, 79, 0
7, 54480, Note_on_c, 8, 77, 100
7, 54720, Note_off_c, 8, 77, 0
7, 54720, Note_on_c, 8, 79, 100
7, 55200, Note_off_c, 8, 79, 0
7, 55200, Note_on_c, 8, 72, 100
7, 55440, Note_off_c, 8, 72, 0
7, 55440, Note_on_c, 8, 72, 100
7, 55680, Note_off_c, 8, 72, 0
7, 55680, Note_on_c, 8, 73, 100
7, 56160, Note_off_c, 8, 73, 0
7, 56160, Note_on_c, 8, 70, 100
7, 56400, Note_off_c, 8, 70, 0
7, 56400, Note_on_c, 8, 73, 100
7, 56640, Note_off_c, 8, 73, 0
7, 56640, Note_on_c, 8, 73, 100
7, 56880, Note_off_c, 8, 73, 0
7, 56880, Note_on_c, 8, 70, 100
7, 57360, Note_off_c, 8, 70, 0
7, 57360, Note_on_c, 8, 73, 100
7, 57600, Note_off_c, 8, 73, 0
7, 57600, Note_on_c, 8, 73, 100
7, 57840, Note_off_c, 8, 73, 0
7, 57840, Note_on_c, 8, 70, 100
7, 58320, Note_off_c, 8, 70, 0
7, 58320, Note_on_c, 8, 77, 100
7, 58560, Note_off_c, 8, 77, 0
7, 58560, Note_on_c, 8, 77, 100
7, 58800, Note_off_c, 8, 77, 0
7, 58800, Note_on_c, 8, 75, 100
7, 59280, Note_off_c, 8, 75, 0
7, 59280, Note_on_c, 8, 70, 100
7, 59520, Note_off_c, 8, 70, 0
7, 59520, Note_on_c, 8, 74, 100
7, 59520, Sequencer_specific, 4, 5, 15, 15, 2
7, 59760, Note_off_c, 8, 74, 0
7, 59760, Note_on_c, 8, 68, 100
7, 59760, Sequencer_specific, 4, 5, 15, 15, 2
7, 60000, Note_off_c, 8, 68, 0
7, 60000, Note_on_c, 8, 69, 100
7, 60480, Note_off_c, 8, 69, 0
7, 60480, Note_on_c, 8, 69, 100
7, 60720, Note_off_c, 8, 69, 0
7, 60720, Note_on_c, 8, 69, 100
7, 60960, Note_off_c, 8, 69, 0
7, 60960, Note_on_c, 8, 69, 100
7, 61440, Note_off_c, 8, 69, 0
7, 69120, Note_on_c, 8, 82, 100
7, 69600, Note_off_c, 8, 82, 0
7, 69600, Note_on_c, 8, 77, 100
7, 70080, Note_off_c, 8, 77, 0
7, 70080, Note_on_c, 8, 79, 100
7, 70560, Note_off_c, 8, 79, 0
7, 70560, Note_on_c, 8, 74, 100
7, 71040, Note_off_c, 8, 74, 0
7, 71040, Note_on_c, 8, 77, 100
7, 71280, Note_off_c, 8, 77, 0
7, 71280, Note_on_c, 8, 72, 100
7, 71760, Note_off_c, 8, 72, 0
7, 71760, Note_on_c, 8, 74, 100
7, 72000, Note_off_c, 8, 74, 0
7, 72000, Note_on_c, 8, 72, 100
7, 72240, Note_off_c, 8, 72, 0
7, 72240, Note_on_c, 8, 70, 100
7, 72480, Note_off_c, 8, 70, 0
7, 72480, Note_on_c, 8, 70, 100
7, 72720, Note_off_c, 8, 70, 0
7, 72720, Note_on_c, 8, 70, 100
7, 72960, Note_off_c, 8, 70, 0
7, 72960, Note_on_c, 8, 74, 100
7, 73200, Note_off_c, 8, 74, 0
7, 73200, Note_on_c, 8, 72, 100
7, 73440, Note_off_c, 8, 72, 0
7, 73440, Note_on_c, 8, 70, 100
7, 73680, Note_off_c, 8, 70, 0
7, 73680, Note_on_c, 8, 67, 100
7, 73920, Note_off_c, 8, 67, 0
7, 73920, Note_on_c, 8, 70, 100
7, 74400, Note_off_c, 8, 70, 0
7, 74400, Note_on_c, 8, 70, 100
7, 74640, Note_off_c, 8, 70, 0
7, 74640, Note_on_c, 8, 74, 100
7, 74880, Note_off_c, 8, 74, 0
7, 74880, Note_on_c, 8, 74, 100
7, 75120, Note_off_c, 8, 74, 0
7, 75120, Note_on_c, 8, 72, 100
7, 75360, Note_off_c, 8, 72, 0
7, 75360, Note_on_c, 8, 70, 100
7, 75600, Note_off_c, 8, 70, 0
7, 75600, Note_on_c, 8, 67, 100
7, 75840, Note_off_c, 8, 67, 0
7, 76800, Note_on_c, 8, 77, 100
7, 77280, Note_off_c, 8, 77, 0
7, 77280, Note_on_c, 8, 79, 100
7, 77760, Note_off_c, 8, 79, 0
7, 77760, Note_on_c, 8, 79, 100
7, 78240, Note_off_c, 8, 79, 0
7, 78240, Note_on_c, 8, 73, 100
7, 78720, Note_off_c, 8, 73, 0
7, 78720, Note_on_c, 8, 74, 100
7, 79200, Note_off_c, 8, 74, 0
7, 79200, Note_on_c, 8, 70, 100
7, 79440, Note_off_c, 8, 70, 0
7, 79440, Note_on_c, 8, 74, 100
7, 79680, Note_off_c, 8, 74, 0
7, 79680, Note_on_c, 8, 74, 100
7, 79920, Note_off_c, 8, 74, 0
7, 79920, Note_on_c, 8, 70, 100
7, 80160, Note_off_c, 8, 70, 0
7, 80160, Note_on_c, 8, 70, 100
7, 80400, Note_off_c, 8, 70, 0
7, 80400, Note_on_c, 8, 74, 100
7, 80640, Note_off_c, 8, 74, 0
7, 80640, Note_on_c, 8, 74, 100
7, 80880, Note_off_c, 8, 74, 0
7, 80880, Note_on_c, 8, 70, 100
7, 81120, Note_off_c, 8, 70, 0
7, 81120, Note_on_c, 8, 70, 100
7, 81600, Note_off_c, 8, 70, 0
7, 81600, Note_on_c, 8, 70, 100
7, 81600, Sequencer_specific, 4, 5, 15, 15, 1
7, 82080, Note_off_c, 8, 70, 0
7, 82080, Note_on_c, 8, 67, 100
7, 82320, Note_off_c, 8, 67, 0
7, 82320, Note_on_c, 8, 65, 100
7, 82560, Note_off_c, 8, 65, 0
7, 82560, Note_on_c, 8, 67, 100
7, 82800, Note_off_c, 8, 67, 0
7, 82800, Note_on_c, 8, 70, 100
7, 83040, Note_off_c, 8, 70, 0
7, 84480, Note_on_c, 8, 81, 100
7, 84960, Note_off_c, 8, 81, 0
7, 84960, Note_on_c, 8, 77, 100
7, 85200, Note_off_c, 8, 77, 0
7, 85200, Note_on_c, 8, 79, 100
7, 85440, Note_off_c, 8, 79, 0
7, 85440, Note_on_c, 8, 79, 100
7, 85680, Note_off_c, 8, 79, 0
7, 85680, Note_on_c, 8, 73, 100
7, 86160, Note_off_c, 8, 73, 0
7, 86160, Note_on_c, 8, 74, 100
7, 86400, Note_off_c, 8, 74, 0
7, 86400, Note_on_c, 8, 74, 100
7, 86640, Note_off_c, 8, 74, 0
7, 86640, Note_on_c, 8, 74, 100
7, 87120, Note_off_c, 8, 74, 0
7, 87120, Note_on_c, 8, 74, 100
7, 87360, Note_off_c, 8, 74, 0
7, 87360, Note_on_c, 8, 72, 100
7, 87600, Note_off_c, 8, 72, 0
7, 87600, Note_on_c, 8, 70, 100
7, 87840, Note_off_c, 8, 70, 0
7, 87840, Note_on_c, 8, 70, 100
7, 88080, Note_off_c, 8, 70, 0
7, 88080, Note_on_c, 8, 70, 100
7, 88320, Note_off_c, 8, 70, 0
7, 88320, Note_on_c, 8, 74, 100
7, 88800, Note_off_c, 8, 74, 0
7, 89040, Note_on_c, 8, 70, 100
7, 89280, Note_off_c, 8, 70, 0
7, 89280, Note_on_c, 8, 70, 100
7, 89760, Note_off_c, 8, 70, 0
7, 89760, Note_on_c, 8, 74, 100
7, 90000, Note_off_c, 8, 74, 0
7, 90000, Note_on_c, 8, 72, 100
7, 90240, Note_off_c, 8, 72, 0
7, 90240, Note_on_c, 8, 72, 100
7, 90480, Note_off_c, 8, 72, 0
7, 92160, Note_on_c, 8, 79, 100
7, 92400, Note_off_c, 8, 79, 0
7, 92400, Note_on_c, 8, 77, 100
7, 92880, Note_off_c, 8, 77, 0
7, 92880, Note_on_c, 8, 79, 100
7, 93120, Note_off_c, 8, 79, 0
7, 93120, Note_on_c, 8, 79, 100
7, 93360, Note_off_c, 8, 79, 0
7, 93360, Note_on_c, 8, 73, 100
7, 93840, Note_off_c, 8, 73, 0
7, 93840, Note_on_c, 8, 74, 100
7, 94080, Note_off_c, 8, 74, 0
7, 94080, Note_on_c, 8, 72, 100
7, 94320, Note_off_c, 8, 72, 0
7, 94320, Note_on_c, 8, 70, 100
7, 94560, Note_off_c, 8, 70, 0
7, 94560, Note_on_c, 8, 70, 100
7, 94800, Note_off_c, 8, 70, 0
7, 94800, Note_on_c, 8, 74, 100
7, 95040, Note_off_c, 8, 74, 0
7, 95040, Note_on_c, 8, 74, 100
7, 95280, Note_off_c, 8, 74, 0
7, 95280, Note_on_c, 8, 70, 100
7, 95520, Note_off_c, 8, 70, 0
7, 95520, Note_on_c, 8, 70, 100
7, 95760, Note_off_c, 8, 70, 0
7, 95760, Note_on_c, 8, 74, 100
7, 96000, Note_off_c, 8, 74, 0
7, 96000, Note_on_c, 8, 74, 100
7, 96240, Note_off_c, 8, 74, 0
7, 96240, Note_on_c, 8, 70, 100
7, 96480, Note_off_c, 8, 70, 0
7, 96480, Note_on_c, 8, 70, 100
7, 96960, Note_off_c, 8, 70, 0
7, 96960, Note_on_c, 8, 70, 100
7, 96960, Sequencer_specific, 4, 5, 15, 15, 1
7, 97440, Note_off_c, 8, 70, 0
7, 97440, Note_on_c, 8, 67, 100
7, 97680, Note_off_c, 8, 67, 0
7, 97680, Note_on_c, 8, 65, 100
7, 97920, Note_off_c, 8, 65, 0
7, 97920, Note_on_c, 8, 67, 100
7, 98160, Note_off_c, 8, 67, 0
7, 98160, Note_on_c, 8, 70, 100
7, 98400, Note_off_c, 8, 70, 0
7, 99840, Note_on_c, 8, 77, 100
7, 100320, Note_off_c, 8, 77, 0
7, 100320, Note_on_c, 8, 77, 100
7, 100800, Note_off_c, 8, 77, 0
7, 100800, Note_on_c, 8, 77, 100
7, 101280, Note_off_c, 8, 77, 0
7, 101280, Note_on_c, 8, 74, 100
7, 101520, Note_off_c, 8, 74, 0
7, 101520, Note_on_c, 8, 77, 100
7, 101760, Note_off_c, 8, 77, 0
7, 101760, Note_on_c, 8, 77, 100
7, 102000, Note_off_c, 8, 77, 0
7, 102000, Note_on_c, 8, 77, 100
7, 102480, Note_off_c, 8, 77, 0
7, 102480, Note_on_c, 8, 74, 100
7, 102720, Note_off_c, 8, 74, 0
7, 102720, Note_on_c, 8, 77, 100
7, 102960, Note_off_c, 8, 77, 0
7, 102960, Note_on_c, 8, 79, 100
7, 103200, Note_off_c, 8, 79, 0
7, 103440, Note_on_c, 8, 72, 100
7, 103680, Note_off_c, 8, 72, 0
7, 103680, Note_on_c, 8, 74, 100
7, 103920, Note_off_c, 8, 74, 0
7, 103920, Note_on_c, 8, 77, 100
7, 104400, Note_off_c, 8, 77, 0
7, 104400, Note_on_c, 8, 77, 100
7, 104640, Note_off_c, 8, 77, 0
7, 104640, Note_on_c, 8, 77, 100
7, 104880, Note_off_c, 8, 77, 0
7, 104880, Note_on_c, 8, 74, 100
7, 105120, Note_off_c, 8, 74, 0
7, 105120, Note_on_c, 8, 77, 100
7, 105600, Note_off_c, 8, 77, 0
7, 105600, Note_on_c, 8, 79, 100
7, 106080, Note_off_c, 8, 79, 0
7, 106080, Note_on_c, 8, 73, 100
7, 106560, Note_off_c, 8, 73, 0
7, 106560, Note_on_c, 8, 70, 100
7, 106800, Note_off_c, 8, 70, 0
7, 106800, Note_on_c, 8, 70, 100
7, 107040, Note_off_c, 8, 70, 0
7, 107520, Note_on_c, 8, 82, 100
7, 107760, Note_off_c, 8, 82, 0
7, 107760, Note_on_c, 8, 82, 100
7, 108000, Note_off_c, 8, 82, 0
7, 108000, Note_on_c, 8, 79, 100
7, 108240, Note_off_c, 8, 79, 0
7, 108240, Note_on_c, 8, 77, 100
7, 108480, Note_off_c, 8, 77, 0
7, 108480, Note_on_c, 8, 79, 100
7, 108960, Note_off_c, 8, 79, 0
7, 108960, Note_on_c, 8, 72, 100
7, 109200, Note_off_c, 8, 72, 0
7, 109200, Note_on_c, 8, 72, 100
7, 109440, Note_off_c, 8, 72, 0
7, 109440, Note_on_c, 8, 73, 100
7, 109920, Note_off_c, 8, 73, 0
7, 109920, Note_on_c, 8, 70, 100
7, 110160, Note_off_c, 8, 70, 0
7, 110160, Note_on_c, 8, 73, 100
7, 110400, Note_off_c, 8, 73, 0
7, 110400, Note_on_c, 8, 73, 100
7, 110640, Note_off_c, 8, 73, 0
7, 110640, Note_on_c, 8, 70, 100
7, 111120, Note_off_c, 8, 70, 0
7, 111120, Note_on_c, 8, 73, 100
7, 111360, Note_off_c, 8, 73, 0
7, 111360, Note_on_c, 8, 73, 100
7, 111600, Note_off_c, 8, 73, 0
7, 111600, Note_on_c, 8, 70, 100
7, 112080, Note_off_c, 8, 70, 0
7, 112080, Note_on_c, 8, 77, 100
7, 112320, Note_off_c, 8, 77, 0
7, 112320, Note_on_c, 8, 77, 100
7, 112560, Note_off_c, 8, 77, 0
7, 112560, Note_on_c, 8, 75, 100
7, 113040, Note_off_c, 8, 75, 0
7, 113040, Note_on_c, 8, 70, 100
7, 113280, Note_off_c, 8, 70, 0
7, 113280, Note_on_c, 8, 74, 100
7, 113280, Sequencer_specific, 4, 5, 15, 15, 2
7, 113520, Note_off_c, 8, 74, 0
7, 113520, Note_on_c, 8, 68, 100
7, 113520, Sequencer_specific, 4, 5, 15, 15, 2
7, 113760, Note_off_c, 8, 68, 0
7, 113760, Note_on_c, 8, 69, 100
7, 114240, Note_off_c, 8, 69, 0
7, 114240, Note_on_c, 8, 69, 100
7, 114480, Note_off_c, 8, 69, 0
7, 114480, Note_on_c, 8, 69, 100
7, 114720, Note_off_c, 8, 69, 0
7, 114720, Note_on_c, 8, 69, 100
7, 115200, Note_off_c, 8, 69, 0
7, 130560, Note_on_c, 8, 82, 100
7, 131040, Note_off_c, 8, 82, 0
7, 131040, Note_on_c, 8, 77, 100
7, 131520, Note_off_c, 8, 77, 0
7, 131520, Note_on_c, 8, 79, 100
7, 132000, Note_off_c, 8, 79, 0
7, 132000, Note_on_c, 8, 74, 100
7, 132480, Note_off_c, 8, 74, 0
7, 132480, Note_on_c, 8, 77, 100
7, 132720, Note_off_c, 8, 77, 0
7, 132720, Note_on_c, 8, 72, 100
7, 133200, Note_off_c, 8, 72, 0
7, 133200, Note_on_c, 8, 74, 100
7, 133440, Note_off_c, 8, 74, 0
7, 133440, Note_on_c, 8, 72, 100
7, 133680, Note_off_c, 8, 72, 0
7, 133680, Note_on_c, 8, 70, 100
7, 133920, Note_off_c, 8, 70, 0
7, 133920, Note_on_c, 8, 70, 100
7, 134160, Note_off_c, 8, 70, 0
7, 134160, Note_on_c, 8, 70, 100
7, 134400, Note_off_c, 8, 70, 0
7, 134400, Note_on_c, 8, 74, 100
7, 134640, Note_off_c, 8, 74, 0
7, 134640, Note_on_c, 8, 72, 100
7, 134880, Note_off_c, 8, 72, 0
7, 134880, Note_on_c, 8, 70, 100
7, 135120, Note_off_c, 8, 70, 0
7, 135120, Note_on_c, 8, 67, 100
7, 135360, Note_off_c, 8, 67, 0
7, 135360, Note_on_c, 8, 70, 100
7, 135840, Note_off_c, 8, 70, 0
7, 135840, Note_on_c, 8, 70, 100
7, 136080, Note_off_c, 8, 70, 0
7, 136080, Note_on_c, 8, 74, 100
7, 136320, Note_off_c, 8, 74, 0
7, 136320, Note_on_c, 8, 74, 100
7, 136560, Note_off_c, 8, 74, 0
7, 136560, Note_on_c, 8, 72, 100
7, 136800, Note_off_c, 8, 72, 0
7, 136800, Note_on_c, 8, 70, 100
7, 137040, Note_off_c, 8, 70, 0
7, 137040, Note_on_c, 8, 67, 100
7, 137280, Note_off_c, 8, 67, 0
7, 138240, Note_on_c, 8, 77, 100
7, 138720, Note_off_c, 8, 77, 0
7, 138720, Note_on_c, 8, 79, 100
7, 139200, Note_off_c, 8, 79, 0
7, 139200, Note_on_c, 8, 79, 100
7, 139680, Note_off_c, 8, 79, 0
7, 139680, Note_on_c, 8, 73, 100
7, 140160, Note_off_c, 8, 73, 0
7, 140160, Note_on_c, 8, 74, 100
7, 140640, Note_off_c, 8, 74, 0
7, 140640, Note_on_c, 8, 70, 100
7, 140880, Note_off_c, 8, 70, 0
7, 140880, Note_on_c, 8, 74, 100
7, 141120, Note_off_c, 8, 74, 0
7, 141120, Note_on_c, 8, 74, 100
7, 141360, Note_off_c, 8, 74, 0
7, 141360, Note_on_c, 8, 70, 100
7, 141600, Note_off_c, 8, 70, 0
7, 141600, Note_on_c, 8, 70, 100
7, 141840, Note_off_c, 8, 70, 0
7, 141840, Note_on_c, 8, 74, 100
7, 142080, Note_off_c, 8, 74, 0
7, 142080, Note_on_c, 8, 74, 100
7, 142320, Note_off_c, 8, 74, 0
7, 142320, Note_on_c, 8, 70, 100
7, 142560, Note_off_c, 8, 70, 0
7, 142560, Note_on_c, 8, 70, 100
7, 143040, Note_off_c, 8, 70, 0
7, 143040, Note_on_c, 8, 70, 100
7, 143040, Sequencer_specific, 4, 5, 15, 15, 1
7, 143520, Note_off_c, 8, 70, 0
7, 143520, Note_on_c, 8, 67, 100
7, 143760, Note_off_c, 8, 67, 0
7, 143760, Note_on_c, 8, 65, 100
7, 144000, Note_off_c, 8, 65, 0
7, 144000, Note_on_c, 8, 67, 100
7, 144240, Note_off_c, 8, 67, 0
7, 144240, Note_on_c, 8, 70, 100
7, 144480, Note_off_c, 8, 70, 0
7, 145920, Note_on_c, 8, 81, 100
7, 146400, Note_off_c, 8, 81, 0
7, 146400, Note_on_c, 8, 77, 100
7, 146640, Note_off_c, 8, 77, 0
7, 146640, Note_on_c, 8, 79, 100
7, 146880, Note_off_c, 8, 79, 0
7, 146880, Note_on_c, 8, 79, 100
7, 147120, Note_off_c, 8, 79, 0
7, 147120, Note_on_c, 8, 73, 100
7, 147600, Note_off_c, 8, 73, 0
7, 147600, Note_on_c, 8, 74, 100
7, 147840, Note_off_c, 8, 74, 0
7, 147840, Note_on_c, 8, 74, 100
7, 148080, Note_off_c, 8, 74, 0
7, 148080, Note_on_c, 8, 74, 100
7, 148560, Note_off_c, 8, 74, 0
7, 148560, Note_on_c, 8, 74, 100
7, 148800, Note_off_c, 8, 74, 0
7, 148800, Note_on_c, 8, 72, 100
7, 149040, Note_off_c, 8, 72, 0
7, 149040, Note_on_c, 8, 70, 100
7, 149280, Note_off_c, 8, 70, 0
7, 149280, Note_on_c, 8, 70, 100
7, 149520, Note_off_c, 8, 70, 0
7, 149520, Note_on_c, 8, 70, 100
7, 149760, Note_off_c, 8, 70, 0
7, 149760, Note_on_c, 8, 74, 100
7, 150240, Note_off_c, 8, 74, 0
7, 150480, Note_on_c, 8, 70, 100
7, 150720, Note_off_c, 8, 70, 0
7, 150720, Note_on_c, 8, 70, 100
7, 151200, Note_off_c, 8, 70, 0
7, 151200, Note_on_c, 8, 74, 100
7, 151440, Note_off_c, 8, 74, 0
7, 151440, Note_on_c, 8, 72, 100
7, 151680, Note_off_c, 8, 72, 0
7, 151680, Note_on_c, 8, 72, 100
7, 151920, Note_off_c, 8, 72, 0
7, 153600, Note_on_c, 8, 79, 100
7, 153840, Note_off_c, 8, 79, 0
7, 153840, Note_on_c, 8, 77, 100
7, 154320, Note_off_c, 8, 77, 0
7, 154320, Note_on_c, 8, 79, 100
7, 154560, Note_off_c, 8, 79, 0
7, 154560, Note_on_c, 8, 79, 100
7, 154800, Note_off_c, 8, 79, 0
7, 154800, Note_on_c, 8, 73, 100
7, 155280, Note_off_c, 8, 73, 0
7, 155280, Note_on_c, 8, 74, 100
7, 155520, Note_off_c, 8, 74, 0
7, 155520, Note_on_c, 8, 72, 100
7, 155760, Note_off_c, 8, 72, 0
7, 155760, Note_on_c, 8, 70, 100
7, 156000, Note_off_c, 8, 70, 0
7, 156000, Note_on_c, 8, 70, 100
7, 156240, Note_off_c, 8, 70, 0
7, 156240, Note_on_c, 8, 74, 100
7, 156480, Note_off_c, 8, 74, 0
7, 156480, Note_on_c, 8, 74, 100
7, 156720, Note_off_c, 8, 74, 0
7, 156720, Note_on_c, 8, 70, 100
7, 156960, Note_off_c, 8, 70, 0
7, 156960, Note_on_c, 8, 70, 100
7, 157200, Note_off_c, 8, 70, 0
7, 157200, Note_on_c, 8, 74, 100
7, 157440, Note_off_c, 8, 74, 0
7, 157440, Note_on_c, 8, 74, 100
7, 157680, Note_off_c, 8, 74, 0
7, 157680, Note_on_c, 8, 70, 100
7, 157920, Note_off_c, 8, 70, 0
7, 157920, Note_on_c, 8, 70, 100
7, 158400, Note_off_c, 8, 70, 0
7, 158400, Note_on_c, 8, 70, 100
7, 158400, Sequencer_specific, 4, 5, 15, 15, 1
7, 158880, Note_off_c, 8, 70, 0
7, 158880, Note_on_c, 8, 67, 100
7, 159120, Note_off_c, 8, 67, 0
7, 159120, Note_on_c, 8, 65, 100
7, 159360, Note_off_c, 8, 65, 0
7, 159360, Note_on_c, 8, 67, 100
7, 159600, Note_off_c, 8, 67, 0
7, 159600, Note_on_c, 8, 70, 100
7, 159840, Note_off_c, 8, 70, 0
7, 161280, Note_on_c, 8, 77, 100
7, 161760, Note_off_c, 8, 77, 0
7, 161760, Note_on_c, 8, 77, 100
7, 162240, Note_off_c, 8, 77, 0
7, 162240, Note_on_c, 8, 77, 100
7, 162720, Note_off_c, 8, 77, 0
7, 162720, Note_on_c, 8, 74, 100
7, 162960, Note_off_c, 8, 74, 0
7, 162960, Note_on_c, 8, 77, 100
7, 163200, Note_off_c, 8, 77, 0
7, 163200, Note_on_c, 8, 77, 100
7, 163440, Note_off_c, 8, 77, 0
7, 163440, Note_on_c, 8, 77, 100
7, 163920, Note_off_c, 8, 77, 0
7, 163920, Note_on_c, 8, 74, 100
7, 164160, Note_off_c, 8, 74, 0
7, 164160, Note_on_c, 8, 77, 100
7, 164400, Note_off_c, 8, 77, 0
7, 164400, Note_on_c, 8, 79, 100
7, 164640, Note_off_c, 8, 79, 0
7, 164880, Note_on_c, 8, 72, 100
7, 165120, Note_off_c, 8, 72, 0
7, 165120, Note_on_c, 8, 74, 100
7, 165360, Note_off_c, 8, 74, 0
7, 165360, Note_on_c, 8, 77, 100
7, 165840, Note_off_c, 8, 77, 0
7, 165840, Note_on_c, 8, 77, 100
7, 166080, Note_off_c, 8, 77, 0
7, 166080, Note_on_c, 8, 77, 100
7, 166320, Note_off_c, 8, 77, 0
7, 166320, Note_on_c, 8, 74, 100
7, 166560, Note_off_c, 8, 74, 0
7, 166560, Note_on_c, 8, 77, 100
7, 167040, Note_off_c, 8, 77, 0
7, 167040, Note_on_c, 8, 79, 100
7, 167520, Note_off_c, 8, 79, 0
7, 167520, Note_on_c, 8, 73, 100
7, 168000, Note_off_c, 8, 73, 0
7, 168000, Note_on_c, 8, 70, 100
7, 168240, Note_off_c, 8, 70, 0
7, 168240, Note_on_c, 8, 70, 100
7, 168480, Note_off_c, 8, 70, 0
7, 168960, Note_on_c, 8, 82, 100
7, 169200, Note_off_c, 8, 82, 0
7, 169200, Note_on_c, 8, 82, 100
7, 169440, Note_off_c, 8, 82, 0
7, 169440, Note_on_c, 8, 79, 100
7, 169680, Note_off_c, 8, 79, 0
7, 169680, Note_on_c, 8, 77, 100
7, 169920, Note_off_c, 8, 77, 0
7, 169920, Note_on_c, 8, 79, 100
7, 170400, Note_off_c, 8, 79, 0
7, 170400, Note_on_c, 8, 72, 100
7, 170640, Note_off_c, 8, 72, 0
7, 170640, Note_on_c, 8, 72, 100
7, 170880, Note_off_c, 8, 72, 0
7, 170880, Note_on_c, 8, 73, 100
7, 171360, Note_off_c, 8, 73, 0
7, 171360, Note_on_c, 8, 70, 100
7, 171600, Note_off_c, 8, 70, 0
7, 171600, Note_on_c, 8, 73, 100
7, 171840, Note_off_c, 8, 73, 0
7, 171840, Note_on_c, 8, 73, 100
7, 172080, Note_off_c, 8, 73, 0
7, 172080, Note_on_c, 8, 70, 100
7, 172560, Note_off_c, 8, 70, 0
7, 172560, Note_on_c, 8, 73, 100
7, 172800, Note_off_c, 8, 73, 0
7, 172800, Note_on_c, 8, 73, 100
7, 173040, Note_off_c, 8, 73, 0
7, 173040, Note_on_c, 8, 70, 100
7, 173520, Note_off_c, 8, 70, 0
7, 173520, Note_on_c, 8, 77, 100
7, 173760, Note_off_c, 8, 77, 0
7, 173760, Note_on_c, 8, 77, 100
7, 174000, Note_off_c, 8, 77, 0
7, 174000, Note_on_c, 8, 75, 100
7, 174480, Note_off_c, 8, 75, 0
7, 174480, Note_on_c, 8, 70, 100
7, 174720, Note_off_c, 8, 70, 0
7, 174720, Note_on_c, 8, 74, 100
7, 174720, Sequencer_specific, 4, 5, 15, 15, 2
7, 174960, Note_off_c, 8, 74, 0
7, 174960, Note_on_c, 8, 68, 100
7, 174960, Sequencer_specific, 4, 5, 15, 15, 2
7, 175200, Note_off_c, 8, 68, 0
7, 175200, Note_on_c, 8, 69, 100
7, 175680, Note_off_c, 8, 69, 0
7, 175680, Note_on_c, 8, 69, 100
7, 175920, Note_off_c, 8, 69, 0
7, 175920, Note_on_c, 8, 69, 100
7, 176160, Note_off_c, 8, 69, 0
7, 176160, Note_on_c, 8, 69, 100
7, 176640, Note_off_c, 8, 69, 0
7, 192000, Note_on_c, 8, 82, 100
7, 192240, Note_off_c, 8, 82, 0
7, 192240, Note_on_c, 8, 82, 100
7, 192480, Note_off_c, 8, 82, 0
7, 192480, Note_on_c, 8, 80, 100
7, 192720, Note_off_c, 8, 80, 0
7, 192720, Note_on_c, 8, 77, 100
7, 192960, Note_off_c, 8, 77, 0
7, 195120, Note_on_c, 8, 82, 100
7, 195360, Note_off_c, 8, 82, 0
7, 195360, Note_on_c, 8, 79, 100
7, 195600, Note_off_c, 8, 79, 0
7, 195600, Note_on_c, 8, 77, 100
7, 195840, Note_off_c, 8, 77, 0
7, 195840, Note_on_c, 8, 79, 100
7, 196320, Note_off_c, 8, 79, 0
7, 196320, Note_on_c, 8, 82, 100
7, 196800, Note_off_c, 8, 82, 0
7, 196800, Note_on_c, 8, 51, 100
7, 197040, Note_off_c, 8, 51, 0
7, 198000, Note_on_c, 8, 82, 100
7, 198240, Note_off_c, 8, 82, 0
7, 198240, Note_on_c, 8, 79, 100
7, 198480, Note_off_c, 8, 79, 0
7, 198480, Note_on_c, 8, 77, 100
7, 198720, Note_off_c, 8, 77, 0
7, 198960, Note_on_c, 8, 82, 100
7, 199200, Note_off_c, 8, 82, 0
7, 199200, Note_on_c, 8, 79, 100
7, 199440, Note_off_c, 8, 79, 0
7, 199440, Note_on_c, 8, 77, 100
7, 199680, Note_off_c, 8, 77, 0
7, 199680, Note_on_c, 8, 79, 100
7, 200160, Note_off_c, 8, 79, 0
7, 200160, Note_on_c, 8, 82, 100
7, 200640, Note_off_c, 8, 82, 0
7, 201840, Note_on_c, 8, 82, 100
7, 202080, Note_off_c, 8, 82, 0
7, 202080, Note_on_c, 8, 79, 100
7, 202320, Note_off_c, 8, 79, 0
7, 202320, Note_on_c, 8, 77, 100
7, 202560, Note_off_c, 8, 77, 0
7, 202560, Note_on_c, 8, 82, 100
7, 203040, Note_off_c, 8, 82, 0
7, 203040, Note_on_c, 8, 79, 100
7, 203520, Note_off_c, 8, 79, 0
7, 207360, Sequencer_specific, 3, 5, 15, 10
7, 207360, End_track
8, 0, Start_track
8, 0, Control_c, 1, 7, 88
8, 0, Title_t, "Percussive Organ"
8, 0, Program_c, 1, 17
8, 0, Sequencer_specific, 5, 5, 15, 9, 8, 64
8, 0, Sequencer_specific, 15, 5, 15, 6, 71, 101, 110, 101, 114, 97, 108, 32, 77, 73, 68, 73
8, 0, Key_signature, -2, "major"
8, 0, Control_c, 1, 6, 12
8, 0, Control_c, 1, 100, 0
8, 0, Control_c, 1, 101, 0
8, 203520, Note_on_c, 1, 79, 100
8, 204000, Note_off_c, 1, 79, 0
8, 204000, Note_on_c, 1, 82, 100
8, 204480, Note_off_c, 1, 82, 0
8, 205680, Note_on_c, 1, 74, 100
8, 205920, Note_off_c, 1, 74, 0
8, 205920, Note_on_c, 1, 77, 100
8, 206160, Note_off_c, 1, 77, 0
8, 206160, Note_on_c, 1, 74, 100
8, 206400, Note_off_c, 1, 74, 0
8, 206400, Note_on_c, 1, 82, 100
8, 206640, Note_off_c, 1, 82, 0
8, 206640, Note_on_c, 1, 79, 100
8, 206880, Note_off_c, 1, 79, 0
8, 206880, Note_on_c, 1, 77, 100
8, 207120, Note_off_c, 1, 77, 0
8, 207120, Note_on_c, 1, 79, 100
8, 207360, Note_off_c, 1, 79, 0
8, 207360, Note_on_c, 1, 79, 100
8, 207600, Note_off_c, 1, 79, 0
8, 207600, Note_on_c, 1, 79, 100
8, 208080, Note_off_c, 1, 79, 0
8, 208080, Note_on_c, 1, 82, 100
8, 208320, Note_off_c, 1, 82, 0
8, 211200, Sequencer_specific, 3, 5, 15, 10
8, 211200, End_track
9, 0, Start_track
9, 0, Control_c, 2, 7, 117
9, 0, Control_c, 2, 10, 127
9, 0, Title_t, "Electric Guitar (muted)"
9, 0, Sequencer_specific, 5, 5, 15, 9, 8, 64
9, 0, Sequencer_specific, 15, 5, 15, 6, 71, 101, 110, 101, 114, 97, 108, 32, 77, 73, 68, 73
9, 0, Key_signature, -2, "major"
9, 0, Program_c, 2, 28
9, 0, Control_c, 2, 6, 12
9, 0, Control_c, 2, 100, 0
9, 0, Control_c, 2, 101, 0
9, 15360, Note_on_c, 2, 62, 95
9, 15360, Note_on_c, 2, 58, 95
9, 15360, Note_on_c, 2, 53, 95
9, 15360, Note_on_c, 2, 46, 95
9, 15840, Note_off_c, 2, 46, 95
9, 15840, Note_off_c, 2, 53, 95
9, 15840, Note_off_c, 2, 58, 95
9, 15840, Note_off_c, 2, 62, 95
9, 15840, Note_on_c, 2, 70, 95
9, 15840, Note_on_c, 2, 68, 95
9, 15840, Note_on_c, 2, 62, 95
9, 15840, Note_on_c, 2, 58, 95
9, 16080, Note_off_c, 2, 58, 95
9, 16080, Note_off_c, 2, 62, 95
9, 16080, Note_off_c, 2, 68, 95
9, 16080, Note_off_c, 2, 70, 95
9, 16320, Note_on_c, 2, 59, 95
9, 16320, Note_on_c, 2, 55, 95
9, 16320, Note_on_c, 2, 50, 95
9, 16368, Note_off_c, 2, 50, 95
9, 16368, Note_off_c, 2, 55, 95
9, 16368, Note_off_c, 2, 59, 95
9, 16560, Note_on_c, 2, 70, 95
9, 16560, Note_on_c, 2, 68, 95
9, 16560, Note_on_c, 2, 62, 95
9, 16560, Note_on_c, 2, 58, 95
9, 16800, Note_off_c, 2, 58, 95
9, 16800, Note_off_c, 2, 62, 95
9, 16800, Note_off_c, 2, 68, 95
9, 16800, Note_off_c, 2, 70, 95
9, 17040, Note_on_c, 2, 70, 95
9, 17040, Note_on_c, 2, 68, 95
9, 17040, Note_on_c, 2, 62, 95
9, 17040, Note_on_c, 2, 58, 95
9, 17280, Note_off_c, 2, 58, 95
9, 17280, Note_off_c, 2, 62, 95
9, 17280, Note_off_c, 2, 68, 95
9, 17280, Note_off_c, 2, 70, 95
9, 17520, Note_on_c, 2, 70, 95
9, 17520, Note_on_c, 2, 68, 95
9, 17520, Note_on_c, 2, 62, 95
9, 17520, Note_on_c, 2, 58, 95
9, 17760, Note_off_c, 2, 58, 95
9, 17760, Note_off_c, 2, 62, 95
9, 17760, Note_off_c, 2, 68, 95
9, 17760, Note_off_c, 2, 70, 95
9, 18000, Note_on_c, 2, 68, 95
9, 18000, Note_on_c, 2, 63, 95
9, 18000, Note_on_c, 2, 60, 95
9, 18000, Note_on_c, 2, 56, 95
9, 18000, Note_on_c, 2, 51, 95
9, 18240, Note_off_c, 2, 51, 95
9, 18240, Note_off_c, 2, 56, 95
9, 18240, Note_off_c, 2, 60, 95
9, 18240, Note_off_c, 2, 63, 95
9, 18240, Note_off_c, 2, 68, 95
9, 18240, Note_on_c, 2, 68, 95
9, 18240, Note_on_c, 2, 63, 95
9, 18240, Note_on_c, 2, 60, 95
9, 18240, Note_on_c, 2, 56, 95
9, 18240, Note_on_c, 2, 51, 95
9, 18480, Note_off_c, 2, 51, 95
9, 18480, Note_off_c, 2, 56, 95
9, 18480, Note_off_c, 2, 60, 95
9, 18480, Note_off_c, 2, 63, 95
9, 18480, Note_off_c, 2, 68, 95
9, 18480, Note_on_c, 2, 67, 95
9, 18480, Note_on_c, 2, 63, 95
9, 18480, Note_on_c, 2, 58, 95
9, 18480, Note_on_c, 2, 51, 95
9, 18720, Note_off_c, 2, 51, 95
9, 18720, Note_off_c, 2, 58, 95
9, 18720, Note_off_c, 2, 63, 95
9, 18720, Note_off_c, 2, 67, 95
9, 18720, Note_on_c, 2, 67, 95
9, 18720, Note_on_c, 2, 63, 95
9, 18720, Note_on_c, 2, 58, 95
9, 18720, Note_on_c, 2, 51, 95
9, 18960, Note_off_c, 2, 51, 95
9, 18960, Note_off_c, 2, 58, 95
9, 18960, Note_off_c, 2, 63, 95
9, 18960, Note_off_c, 2, 67, 95
9, 18960, Note_on_c, 2, 62, 47
9, 18960, Note_on_c, 2, 58, 47
9, 18960, Note_on_c, 2, 53, 47
9, 19200, Note_off_c, 2, 53, 47
9, 19200, Note_off_c, 2, 58, 47
9, 19200, Note_off_c, 2, 62, 47
9, 19200, Note_on_c, 2, 62, 95
9, 19200, Note_on_c, 2, 58, 95
9, 19200, Note_on_c, 2, 53, 95
9, 19200, Note_on_c, 2, 46, 95
9, 19680, Note_off_c, 2, 46, 95
9, 19680, Note_off_c, 2, 53, 95
9, 19680, Note_off_c, 2, 58, 95
9, 19680, Note_off_c, 2, 62, 95
9, 19680, Note_on_c, 2, 70, 95
9, 19680, Note_on_c, 2, 68, 95
9, 19680, Note_on_c, 2, 62, 95
9, 19680, Note_on_c, 2, 58, 95
9, 19920, Note_off_c, 2, 58, 95
9, 19920, Note_off_c, 2, 62, 95
9, 19920, Note_off_c, 2, 68, 95
9, 19920, Note_off_c, 2, 70, 95
9, 20160, Note_on_c, 2, 59, 95
9, 20160, Note_on_c, 2, 55, 95
9, 20160, Note_on_c, 2, 50, 95
9, 20208, Note_off_c, 2, 50, 95
9, 20208, Note_off_c, 2, 55, 95
9, 20208, Note_off_c, 2, 59, 95
9, 20400, Note_on_c, 2, 70, 95
9, 20400, Note_on_c, 2, 68, 95
9, 20400, Note_on_c, 2, 62, 95
9, 20400, Note_on_c, 2, 58, 95
9, 20640, Note_off_c, 2, 58, 95
9, 20640, Note_off_c, 2, 62, 95
9, 20640, Note_off_c, 2, 68, 95
9, 20640, Note_off_c, 2, 70, 95
9, 20880, Note_on_c, 2, 70, 95
9, 20880, Note_on_c, 2, 68, 95
9, 20880, Note_on_c, 2, 62, 95
9, 20880, Note_on_c, 2, 58, 95
9, 21120, Note_off_c, 2, 58, 95
9, 21120, Note_off_c, 2, 62, 95
9, 21120, Note_off_c, 2, 68, 95
9, 21120, Note_off_c, 2, 70, 95
9, 21360, Note_on_c, 2, 70, 95
9, 21360, Note_on_c, 2, 68, 95
9, 21360, Note_on_c, 2, 62, 95
9, 21360, Note_on_c, 2, 58, 95
9, 21600, Note_off_c, 2, 58, 95
9, 21600, Note_off_c, 2, 62, 95
9, 21600, Note_off_c, 2, 68, 95
9, 21600, Note_off_c, 2, 70, 95
9, 21840, Note_on_c, 2, 68, 95
9, 21840, Note_on_c, 2, 63, 95
9, 21840, Note_on_c, 2, 60, 95
9, 21840, Note_on_c, 2, 56, 95
9, 21840, Note_on_c, 2, 51, 95
9, 22080, Note_off_c, 2, 51, 95
9, 22080, Note_off_c, 2, 56, 95
9, 22080, Note_off_c, 2, 60, 95
9, 22080, Note_off_c, 2, 63, 95
9, 22080, Note_off_c, 2, 68, 95
9, 22080, Note_on_c, 2, 68, 95
9, 22080, Note_on_c, 2, 63, 95
9, 22080, Note_on_c, 2, 60, 95
9, 22080, Note_on_c, 2, 56, 95
9, 22080, Note_on_c, 2, 51, 95
9, 22320, Note_off_c, 2, 51, 95
9, 22320, Note_off_c, 2, 56, 95
9, 22320, Note_off_c, 2, 60, 95
9, 22320, Note_off_c, 2, 63, 95
9, 22320, Note_off_c, 2, 68, 95
9, 22320, Note_on_c, 2, 67, 95
9, 22320, Note_on_c, 2, 63, 95
9, 22320, Note_on_c, 2, 58, 95
9, 22320, Note_on_c, 2, 51, 95
9, 22560, Note_off_c, 2, 51, 95
9, 22560, Note_off_c, 2, 58, 95
9, 22560, Note_off_c, 2, 63, 95
9, 22560, Note_off_c, 2, 67, 95
9, 22560, Note_on_c, 2, 67, 95
9, 22560, Note_on_c, 2, 63, 95
9, 22560, Note_on_c, 2, 58, 95
9, 22560, Note_on_c, 2, 51, 95
9, 22800, Note_off_c, 2, 51, 95
9, 22800, Note_off_c, 2, 58, 95
9, 22800, Note_off_c, 2, 63, 95
9, 22800, Note_off_c, 2, 67, 95
9, 22800, Note_on_c, 2, 62, 47
9, 22800, Note_on_c, 2, 58, 47
9, 22800, Note_on_c, 2, 53, 47
9, 23040, Note_off_c, 2, 53, 47
9, 23040, Note_off_c, 2, 58, 47
9, 23040, Note_off_c, 2, 62, 47
9, 23040, Note_on_c, 2, 62, 95
9, 23040, Note_on_c, 2, 58, 95
9, 23040, Note_on_c, 2, 53, 95
9, 23040, Note_on_c, 2, 46, 95
9, 23520, Note_off_c, 2, 46, 95
9, 23520, Note_off_c, 2, 53, 95
9, 23520, Note_off_c, 2, 58, 95
9, 23520, Note_off_c, 2, 62, 95
9, 23520, Note_on_c, 2, 70, 95
9, 23520, Note_on_c, 2, 68, 95
9, 23520, Note_on_c, 2, 62, 95
9, 23520, Note_on_c, 2, 58, 95
9, 23760, Note_off_c, 2, 58, 95
9, 23760, Note_off_c, 2, 62, 95
9, 23760, Note_off_c, 2, 68, 95
9, 23760, Note_off_c, 2, 70, 95
9, 24000, Note_on_c, 2, 59, 95
9, 24000, Note_on_c, 2, 55, 95
9, 24000, Note_on_c, 2, 50, 95
9, 24048, Note_off_c, 2, 50, 95
9, 24048, Note_off_c, 2, 55, 95
9, 24048, Note_off_c, 2, 59, 95
9, 24240, Note_on_c, 2, 70, 95
9, 24240, Note_on_c, 2, 68, 95
9, 24240, Note_on_c, 2, 62, 95
9, 24240, Note_on_c, 2, 58, 95
9, 24480, Note_off_c, 2, 58, 95
9, 24480, Note_off_c, 2, 62, 95
9, 24480, Note_off_c, 2, 68, 95
9, 24480, Note_off_c, 2, 70, 95
9, 24720, Note_on_c, 2, 70, 95
9, 24720, Note_on_c, 2, 68, 95
9, 24720, Note_on_c, 2, 62, 95
9, 24720, Note_on_c, 2, 58, 95
9, 24960, Note_off_c, 2, 58, 95
9, 24960, Note_off_c, 2, 62, 95
9, 24960, Note_off_c, 2, 68, 95
9, 24960, Note_off_c, 2, 70, 95
9, 25200, Note_on_c, 2, 70, 95
9, 25200, Note_on_c, 2, 68, 95
9, 25200, Note_on_c, 2, 62, 95
9, 25200, Note_on_c, 2, 58, 95
9, 25440, Note_off_c, 2, 58, 95
9, 25440, Note_off_c, 2, 62, 95
9, 25440, Note_off_c, 2, 68, 95
9, 25440, Note_off_c, 2, 70, 95
9, 25680, Note_on_c, 2, 68, 95
9, 25680, Note_on_c, 2, 63, 95
9, 25680, Note_on_c, 2, 60, 95
9, 25680, Note_on_c, 2, 56, 95
9, 25680, Note_on_c, 2, 51, 95
9, 25920, Note_off_c, 2, 51, 95
9, 25920, Note_off_c, 2, 56, 95
9, 25920, Note_off_c, 2, 60, 95
9, 25920, Note_off_c, 2, 63, 95
9, 25920, Note_off_c, 2, 68, 95
9, 25920, Note_on_c, 2, 68, 95
9, 25920, Note_on_c, 2, 63, 95
9, 25920, Note_on_c, 2, 60, 95
9, 25920, Note_on_c, 2, 56, 95
9, 25920, Note_on_c, 2, 51, 95
9, 26160, Note_off_c, 2, 51, 95
9, 26160, Note_off_c, 2, 56, 95
9, 26160, Note_off_c, 2, 60, 95
9, 26160, Note_off_c, 2, 63, 95
9, 26160, Note_off_c, 2, 68, 95
9, 26160, Note_on_c, 2, 67, 95
9, 26160, Note_on_c, 2, 63, 95
9, 26160, Note_on_c, 2, 58, 95
9, 26160, Note_on_c, 2, 51, 95
9, 26400, Note_off_c, 2, 51, 95
9, 26400, Note_off_c, 2, 58, 95
9, 26400, Note_off_c, 2, 63, 95
9, 26400, Note_off_c, 2, 67, 95
9, 26400, Note_on_c, 2, 67, 95
9, 26400, Note_on_c, 2, 63, 95
9, 26400, Note_on_c, 2, 58, 95
9, 26400, Note_on_c, 2, 51, 95
9, 26640, Note_off_c, 2, 51, 95
9, 26640, Note_off_c, 2, 58, 95
9, 26640, Note_off_c, 2, 63, 95
9, 26640, Note_off_c, 2, 67, 95
9, 26640, Note_on_c, 2, 62, 47
9, 26640, Note_on_c, 2, 58, 47
9, 26640, Note_on_c, 2, 53, 47
9, 26880, Note_off_c, 2, 53, 47
9, 26880, Note_off_c, 2, 58, 47
9, 26880, Note_off_c, 2, 62, 47
9, 26880, Note_on_c, 2, 62, 95
9, 26880, Note_on_c, 2, 58, 95
9, 26880, Note_on_c, 2, 53, 95
9, 26880, Note_on_c, 2, 46, 95
9, 27360, Note_off_c, 2, 46, 95
9, 27360, Note_off_c, 2, 53, 95
9, 27360, Note_off_c, 2, 58, 95
9, 27360, Note_off_c, 2, 62, 95
9, 27360, Note_on_c, 2, 70, 95
9, 27360, Note_on_c, 2, 68, 95
9, 27360, Note_on_c, 2, 62, 95
9, 27360, Note_on_c, 2, 58, 95
9, 27600, Note_off_c, 2, 58, 95
9, 27600, Note_off_c, 2, 62, 95
9, 27600, Note_off_c, 2, 68, 95
9, 27600, Note_off_c, 2, 70, 95
9, 27840, Note_on_c, 2, 59, 95
9, 27840, Note_on_c, 2, 55, 95
9, 27840, Note_on_c, 2, 50, 95
9, 27888, Note_off_c, 2, 50, 95
9, 27888, Note_off_c, 2, 55, 95
9, 27888, Note_off_c, 2, 59, 95
9, 28080, Note_on_c, 2, 70, 95
9, 28080, Note_on_c, 2, 68, 95
9, 28080, Note_on_c, 2, 62, 95
9, 28080, Note_on_c, 2, 58, 95
9, 28320, Note_off_c, 2, 58, 95
9, 28320, Note_off_c, 2, 62, 95
9, 28320, Note_off_c, 2, 68, 95
9, 28320, Note_off_c, 2, 70, 95
9, 28560, Note_on_c, 2, 70, 95
9, 28560, Note_on_c, 2, 68, 95
9, 28560, Note_on_c, 2, 62, 95
9, 28560, Note_on_c, 2, 58, 95
9, 28800, Note_off_c, 2, 58, 95
9, 28800, Note_off_c, 2, 62, 95
9, 28800, Note_off_c, 2, 68, 95
9, 28800, Note_off_c, 2, 70, 95
9, 29040, Note_on_c, 2, 70, 95
9, 29040, Note_on_c, 2, 68, 95
9, 29040, Note_on_c, 2, 62, 95
9, 29040, Note_on_c, 2, 58, 95
9, 29280, Note_off_c, 2, 58, 95
9, 29280, Note_off_c, 2, 62, 95
9, 29280, Note_off_c, 2, 68, 95
9, 29280, Note_off_c, 2, 70, 95
9, 29520, Note_on_c, 2, 68, 95
9, 29520, Note_on_c, 2, 63, 95
9, 29520, Note_on_c, 2, 60, 95
9, 29520, Note_on_c, 2, 56, 95
9, 29520, Note_on_c, 2, 51, 95
9, 29760, Note_off_c, 2, 51, 95
9, 29760, Note_off_c, 2, 56, 95
9, 29760, Note_off_c, 2, 60, 95
9, 29760, Note_off_c, 2, 63, 95
9, 29760, Note_off_c, 2, 68, 95
9, 29760, Note_on_c, 2, 68, 95
9, 29760, Note_on_c, 2, 63, 95
9, 29760, Note_on_c, 2, 60, 95
9, 29760, Note_on_c, 2, 56, 95
9, 29760, Note_on_c, 2, 51, 95
9, 30000, Note_off_c, 2, 51, 95
9, 30000, Note_off_c, 2, 56, 95
9, 30000, Note_off_c, 2, 60, 95
9, 30000, Note_off_c, 2, 63, 95
9, 30000, Note_off_c, 2, 68, 95
9, 30000, Note_on_c, 2, 67, 95
9, 30000, Note_on_c, 2, 63, 95
9, 30000, Note_on_c, 2, 58, 95
9, 30000, Note_on_c, 2, 51, 95
9, 30240, Note_off_c, 2, 51, 95
9, 30240, Note_off_c, 2, 58, 95
9, 30240, Note_off_c, 2, 63, 95
9, 30240, Note_off_c, 2, 67, 95
9, 30240, Note_on_c, 2, 67, 95
9, 30240, Note_on_c, 2, 63, 95
9, 30240, Note_on_c, 2, 58, 95
9, 30240, Note_on_c, 2, 51, 95
9, 30480, Note_off_c, 2, 51, 95
9, 30480, Note_off_c, 2, 58, 95
9, 30480, Note_off_c, 2, 63, 95
9, 30480, Note_off_c, 2, 67, 95
9, 30480, Note_on_c, 2, 62, 47
9, 30480, Note_on_c, 2, 58, 47
9, 30480, Note_on_c, 2, 53, 47
9, 30720, Note_off_c, 2, 53, 47
9, 30720, Note_off_c, 2, 58, 47
9, 30720, Note_off_c, 2, 62, 47
9, 30720, Note_on_c, 2, 62, 95
9, 30720, Note_on_c, 2, 58, 95
9, 30720, Note_on_c, 2, 53, 95
9, 30720, Note_on_c, 2, 46, 95
9, 31200, Note_off_c, 2, 46, 95
9, 31200, Note_off_c, 2, 53, 95
9, 31200, Note_off_c, 2, 58, 95
9, 31200, Note_off_c, 2, 62, 95
9, 31200, Note_on_c, 2, 70, 95
9, 31200, Note_on_c, 2, 68, 95
9, 31200, Note_on_c, 2, 62, 95
9, 31200, Note_on_c, 2, 58, 95
9, 31440, Note_off_c, 2, 58, 95
9, 31440, Note_off_c, 2, 62, 95
9, 31440, Note_off_c, 2, 68, 95
9, 31440, Note_off_c, 2, 70, 95
9, 31680, Note_on_c, 2, 59, 95
9, 31680, Note_on_c, 2, 55, 95
9, 31680, Note_on_c, 2, 50, 95
9, 31728, Note_off_c, 2, 50, 95
9, 31728, Note_off_c, 2, 55, 95
9, 31728, Note_off_c, 2, 59, 95
9, 31920, Note_on_c, 2, 70, 95
9, 31920, Note_on_c, 2, 68, 95
9, 31920, Note_on_c, 2, 62, 95
9, 31920, Note_on_c, 2, 58, 95
9, 32160, Note_off_c, 2, 58, 95
9, 32160, Note_off_c, 2, 62, 95
9, 32160, Note_off_c, 2, 68, 95
9, 32160, Note_off_c, 2, 70, 95
9, 32400, Note_on_c, 2, 70, 95
9, 32400, Note_on_c, 2, 68, 95
9, 32400, Note_on_c, 2, 62, 95
9, 32400, Note_on_c, 2, 58, 95
9, 32640, Note_off_c, 2, 58, 95
9, 32640, Note_off_c, 2, 62, 95
9, 32640, Note_off_c, 2, 68, 95
9, 32640, Note_off_c, 2, 70, 95
9, 32880, Note_on_c, 2, 70, 95
9, 32880, Note_on_c, 2, 68, 95
9, 32880, Note_on_c, 2, 62, 95
9, 32880, Note_on_c, 2, 58, 95
9, 33120, Note_off_c, 2, 58, 95
9, 33120, Note_off_c, 2, 62, 95
9, 33120, Note_off_c, 2, 68, 95
9, 33120, Note_off_c, 2, 70, 95
9, 33360, Note_on_c, 2, 68, 95
9, 33360, Note_on_c, 2, 63, 95
9, 33360, Note_on_c, 2, 60, 95
9, 33360, Note_on_c, 2, 56, 95
9, 33360, Note_on_c, 2, 51, 95
9, 33600, Note_off_c, 2, 51, 95
9, 33600, Note_off_c, 2, 56, 95
9, 33600, Note_off_c, 2, 60, 95
9, 33600, Note_off_c, 2, 63, 95
9, 33600, Note_off_c, 2, 68, 95
9, 33600, Note_on_c, 2, 68, 95
9, 33600, Note_on_c, 2, 63, 95
9, 33600, Note_on_c, 2, 60, 95
9, 33600, Note_on_c, 2, 56, 95
9, 33600, Note_on_c, 2, 51, 95
9, 33840, Note_off_c, 2, 51, 95
9, 33840, Note_off_c, 2, 56, 95
9, 33840, Note_off_c, 2, 60, 95
9, 33840, Note_off_c, 2, 63, 95
9, 33840, Note_off_c, 2, 68, 95
9, 33840, Note_on_c, 2, 67, 95
9, 33840, Note_on_c, 2, 63, 95
9, 33840, Note_on_c, 2, 58, 95
9, 33840, Note_on_c, 2, 51, 95
9, 34080, Note_off_c, 2, 51, 95
9, 34080, Note_off_c, 2, 58, 95
9, 34080, Note_off_c, 2, 63, 95
9, 34080, Note_off_c, 2, 67, 95
9, 34080, Note_on_c, 2, 67, 95
9, 34080, Note_on_c, 2, 63, 95
9, 34080, Note_on_c, 2, 58, 95
9, 34080, Note_on_c, 2, 51, 95
9, 34320, Note_off_c, 2, 51, 95
9, 34320, Note_off_c, 2, 58, 95
9, 34320, Note_off_c, 2, 63, 95
9, 34320, Note_off_c, 2, 67, 95
9, 34320, Note_on_c, 2, 62, 47
9, 34320, Note_on_c, 2, 58, 47
9, 34320, Note_on_c, 2, 53, 47
9, 34560, Note_off_c, 2, 53, 47
9, 34560, Note_off_c, 2, 58, 47
9, 34560, Note_off_c, 2, 62, 47
9, 34560, Note_on_c, 2, 62, 95
9, 34560, Note_on_c, 2, 58, 95
9, 34560, Note_on_c, 2, 53, 95
9, 34560, Note_on_c, 2, 46, 95
9, 35040, Note_off_c, 2, 46, 95
9, 35040, Note_off_c, 2, 53, 95
9, 35040, Note_off_c, 2, 58, 95
9, 35040, Note_off_c, 2, 62, 95
9, 35040, Note_on_c, 2, 70, 95
9, 35040, Note_on_c, 2, 68, 95
9, 35040, Note_on_c, 2, 62, 95
9, 35040, Note_on_c, 2, 58, 95
9, 35280, Note_off_c, 2, 58, 95
9, 35280, Note_off_c, 2, 62, 95
9, 35280, Note_off_c, 2, 68, 95
9, 35280, Note_off_c, 2, 70, 95
9, 35520, Note_on_c, 2, 59, 95
9, 35520, Note_on_c, 2, 55, 95
9, 35520, Note_on_c, 2, 50, 95
9, 35568, Note_off_c, 2, 50, 95
9, 35568, Note_off_c, 2, 55, 95
9, 35568, Note_off_c, 2, 59, 95
9, 35760, Note_on_c, 2, 70, 95
9, 35760, Note_on_c, 2, 68, 95
9, 35760, Note_on_c, 2, 62, 95
9, 35760, Note_on_c, 2, 58, 95
9, 36000, Note_off_c, 2, 58, 95
9, 36000, Note_off_c, 2, 62, 95
9, 36000, Note_off_c, 2, 68, 95
9, 36000, Note_off_c, 2, 70, 95
9, 36240, Note_on_c, 2, 70, 95
9, 36240, Note_on_c, 2, 68, 95
9, 36240, Note_on_c, 2, 62, 95
9, 36240, Note_on_c, 2, 58, 95
9, 36480, Note_off_c, 2, 58, 95
9, 36480, Note_off_c, 2, 62, 95
9, 36480, Note_off_c, 2, 68, 95
9, 36480, Note_off_c, 2, 70, 95
9, 36720, Note_on_c, 2, 70, 95
9, 36720, Note_on_c, 2, 68, 95
9, 36720, Note_on_c, 2, 62, 95
9, 36720, Note_on_c, 2, 58, 95
9, 36960, Note_off_c, 2, 58, 95
9, 36960, Note_off_c, 2, 62, 95
9, 36960, Note_off_c, 2, 68, 95
9, 36960, Note_off_c, 2, 70, 95
9, 37200, Note_on_c, 2, 68, 95
9, 37200, Note_on_c, 2, 63, 95
9, 37200, Note_on_c, 2, 60, 95
9, 37200, Note_on_c, 2, 56, 95
9, 37200, Note_on_c, 2, 51, 95
9, 37440, Note_off_c, 2, 51, 95
9, 37440, Note_off_c, 2, 56, 95
9, 37440, Note_off_c, 2, 60, 95
9, 37440, Note_off_c, 2, 63, 95
9, 37440, Note_off_c, 2, 68, 95
9, 37440, Note_on_c, 2, 68, 95
9, 37440, Note_on_c, 2, 63, 95
9, 37440, Note_on_c, 2, 60, 95
9, 37440, Note_on_c, 2, 56, 95
9, 37440, Note_on_c, 2, 51, 95
9, 37680, Note_off_c, 2, 51, 95
9, 37680, Note_off_c, 2, 56, 95
9, 37680, Note_off_c, 2, 60, 95
9, 37680, Note_off_c, 2, 63, 95
9, 37680, Note_off_c, 2, 68, 95
9, 37680, Note_on_c, 2, 67, 95
9, 37680, Note_on_c, 2, 63, 95
9, 37680, Note_on_c, 2, 58, 95
9, 37680, Note_on_c, 2, 51, 95
9, 37920, Note_off_c, 2, 51, 95
9, 37920, Note_off_c, 2, 58, 95
9, 37920, Note_off_c, 2, 63, 95
9, 37920, Note_off_c, 2, 67, 95
9, 37920, Note_on_c, 2, 67, 95
9, 37920, Note_on_c, 2, 63, 95
9, 37920, Note_on_c, 2, 58, 95
9, 37920, Note_on_c, 2, 51, 95
9, 38160, Note_off_c, 2, 51, 95
9, 38160, Note_off_c, 2, 58, 95
9, 38160, Note_off_c, 2, 63, 95
9, 38160, Note_off_c, 2, 67, 95
9, 38160, Note_on_c, 2, 62, 47
9, 38160, Note_on_c, 2, 58, 47
9, 38160, Note_on_c, 2, 53, 47
9, 38400, Note_off_c, 2, 53, 47
9, 38400, Note_off_c, 2, 58, 47
9, 38400, Note_off_c, 2, 62, 47
9, 38400, Note_on_c, 2, 62, 95
9, 38400, Note_on_c, 2, 58, 95
9, 38400, Note_on_c, 2, 53, 95
9, 38400, Note_on_c, 2, 46, 95
9, 38880, Note_off_c, 2, 46, 95
9, 38880, Note_off_c, 2, 53, 95
9, 38880, Note_off_c, 2, 58, 95
9, 38880, Note_off_c, 2, 62, 95
9, 38880, Note_on_c, 2, 70, 95
9, 38880, Note_on_c, 2, 68, 95
9, 38880, Note_on_c, 2, 62, 95
9, 38880, Note_on_c, 2, 58, 95
9, 39120, Note_off_c, 2, 58, 95
9, 39120, Note_off_c, 2, 62, 95
9, 39120, Note_off_c, 2, 68, 95
9, 39120, Note_off_c, 2, 70, 95
9, 39360, Note_on_c, 2, 59, 95
9, 39360, Note_on_c, 2, 55, 95
9, 39360, Note_on_c, 2, 50, 95
9, 39408, Note_off_c, 2, 50, 95
9, 39408, Note_off_c, 2, 55, 95
9, 39408, Note_off_c, 2, 59, 95
9, 39600, Note_on_c, 2, 70, 95
9, 39600, Note_on_c, 2, 68, 95
9, 39600, Note_on_c, 2, 62, 95
9, 39600, Note_on_c, 2, 58, 95
9, 39840, Note_off_c, 2, 58, 95
9, 39840, Note_off_c, 2, 62, 95
9, 39840, Note_off_c, 2, 68, 95
9, 39840, Note_off_c, 2, 70, 95
9, 40080, Note_on_c, 2, 70, 95
9, 40080, Note_on_c, 2, 68, 95
9, 40080, Note_on_c, 2, 62, 95
9, 40080, Note_on_c, 2, 58, 95
9, 40320, Note_off_c, 2, 58, 95
9, 40320, Note_off_c, 2, 62, 95
9, 40320, Note_off_c, 2, 68, 95
9, 40320, Note_off_c, 2, 70, 95
9, 40560, Note_on_c, 2, 70, 95
9, 40560, Note_on_c, 2, 68, 95
9, 40560, Note_on_c, 2, 62, 95
9, 40560, Note_on_c, 2, 58, 95
9, 40800, Note_off_c, 2, 58, 95
9, 40800, Note_off_c, 2, 62, 95
9, 40800, Note_off_c, 2, 68, 95
9, 40800, Note_off_c, 2, 70, 95
9, 41040, Note_on_c, 2, 68, 95
9, 41040, Note_on_c, 2, 63, 95
9, 41040, Note_on_c, 2, 60, 95
9, 41040, Note_on_c, 2, 56, 95
9, 41040, Note_on_c, 2, 51, 95
9, 41280, Note_off_c, 2, 51, 95
9, 41280, Note_off_c, 2, 56, 95
9, 41280, Note_off_c, 2, 60, 95
9, 41280, Note_off_c, 2, 63, 95
9, 41280, Note_off_c, 2, 68, 95
9, 41280, Note_on_c, 2, 68, 95
9, 41280, Note_on_c, 2, 63, 95
9, 41280, Note_on_c, 2, 60, 95
9, 41280, Note_on_c, 2, 56, 95
9, 41280, Note_on_c, 2, 51, 95
9, 41520, Note_off_c, 2, 51, 95
9, 41520, Note_off_c, 2, 56, 95
9, 41520, Note_off_c, 2, 60, 95
9, 41520, Note_off_c, 2, 63, 95
9, 41520, Note_off_c, 2, 68, 95
9, 41520, Note_on_c, 2, 67, 95
9, 41520, Note_on_c, 2, 63, 95
9, 41520, Note_on_c, 2, 58, 95
9, 41520, Note_on_c, 2, 51, 95
9, 41760, Note_off_c, 2, 51, 95
9, 41760, Note_off_c, 2, 58, 95
9, 41760, Note_off_c, 2, 63, 95
9, 41760, Note_off_c, 2, 67, 95
9, 41760, Note_on_c, 2, 67, 95
9, 41760, Note_on_c, 2, 63, 95
9, 41760, Note_on_c, 2, 58, 95
9, 41760, Note_on_c, 2, 51, 95
9, 42000, Note_off_c, 2, 51, 95
9, 42000, Note_off_c, 2, 58, 95
9, 42000, Note_off_c, 2, 63, 95
9, 42000, Note_off_c, 2, 67, 95
9, 42000, Note_on_c, 2, 62, 47
9, 42000, Note_on_c, 2, 58, 47
9, 42000, Note_on_c, 2, 53, 47
9, 42240, Note_off_c, 2, 53, 47
9, 42240, Note_off_c, 2, 58, 47
9, 42240, Note_off_c, 2, 62, 47
9, 42240, Note_on_c, 2, 62, 95
9, 42240, Note_on_c, 2, 58, 95
9, 42240, Note_on_c, 2, 53, 95
9, 42240, Note_on_c, 2, 46, 95
9, 42720, Note_off_c, 2, 46, 95
9, 42720, Note_off_c, 2, 53, 95
9, 42720, Note_off_c, 2, 58, 95
9, 42720, Note_off_c, 2, 62, 95
9, 42720, Note_on_c, 2, 70, 95
9, 42720, Note_on_c, 2, 68, 95
9, 42720, Note_on_c, 2, 62, 95
9, 42720, Note_on_c, 2, 58, 95
9, 42960, Note_off_c, 2, 58, 95
9, 42960, Note_off_c, 2, 62, 95
9, 42960, Note_off_c, 2, 68, 95
9, 42960, Note_off_c, 2, 70, 95
9, 43200, Note_on_c, 2, 59, 95
9, 43200, Note_on_c, 2, 55, 95
9, 43200, Note_on_c, 2, 50, 95
9, 43248, Note_off_c, 2, 50, 95
9, 43248, Note_off_c, 2, 55, 95
9, 43248, Note_off_c, 2, 59, 95
9, 43440, Note_on_c, 2, 70, 95
9, 43440, Note_on_c, 2, 68, 95
9, 43440, Note_on_c, 2, 62, 95
9, 43440, Note_on_c, 2, 58, 95
9, 43680, Note_off_c, 2, 58, 95
9, 43680, Note_off_c, 2, 62, 95
9, 43680, Note_off_c, 2, 68, 95
9, 43680, Note_off_c, 2, 70, 95
9, 43920, Note_on_c, 2, 70, 95
9, 43920, Note_on_c, 2, 68, 95
9, 43920, Note_on_c, 2, 62, 95
9, 43920, Note_on_c, 2, 58, 95
9, 44160, Note_off_c, 2, 58, 95
9, 44160, Note_off_c, 2, 62, 95
9, 44160, Note_off_c, 2, 68, 95
9, 44160, Note_off_c, 2, 70, 95
9, 44400, Note_on_c, 2, 70, 95
9, 44400, Note_on_c, 2, 68, 95
9, 44400, Note_on_c, 2, 62, 95
9, 44400, Note_on_c, 2, 58, 95
9, 44640, Note_off_c, 2, 58, 95
9, 44640, Note_off_c, 2, 62, 95
9, 44640, Note_off_c, 2, 68, 95
9, 44640, Note_off_c, 2, 70, 95
9, 44880, Note_on_c, 2, 68, 95
9, 44880, Note_on_c, 2, 63, 95
9, 44880, Note_on_c, 2, 60, 95
9, 44880, Note_on_c, 2, 56, 95
9, 44880, Note_on_c, 2, 51, 95
9, 45120, Note_off_c, 2, 51, 95
9, 45120, Note_off_c, 2, 56, 95
9, 45120, Note_off_c, 2, 60, 95
9, 45120, Note_off_c, 2, 63, 95
9, 45120, Note_off_c, 2, 68, 95
9, 45120, Note_on_c, 2, 68, 95
9, 45120, Note_on_c, 2, 63, 95
9, 45120, Note_on_c, 2, 60, 95
9, 45120, Note_on_c, 2, 56, 95
9, 45120, Note_on_c, 2, 51, 95
9, 45360, Note_off_c, 2, 51, 95
9, 45360, Note_off_c, 2, 56, 95
9, 45360, Note_off_c, 2, 60, 95
9, 45360, Note_off_c, 2, 63, 95
9, 45360, Note_off_c, 2, 68, 95
9, 45360, Note_on_c, 2, 67, 95
9, 45360, Note_on_c, 2, 63, 95
9, 45360, Note_on_c, 2, 58, 95
9, 45360, Note_on_c, 2, 51, 95
9, 45600, Note_off_c, 2, 51, 95
9, 45600, Note_off_c, 2, 58, 95
9, 45600, Note_off_c, 2, 63, 95
9, 45600, Note_off_c, 2, 67, 95
9, 45600, Note_on_c, 2, 67, 95
9, 45600, Note_on_c, 2, 63, 95
9, 45600, Note_on_c, 2, 58, 95
9, 45600, Note_on_c, 2, 51, 95
9, 45840, Note_off_c, 2, 51, 95
9, 45840, Note_off_c, 2, 58, 95
9, 45840, Note_off_c, 2, 63, 95
9, 45840, Note_off_c, 2, 67, 95
9, 45840, Note_on_c, 2, 62, 47
9, 45840, Note_on_c, 2, 58, 47
9, 45840, Note_on_c, 2, 53, 47
9, 46080, Note_off_c, 2, 53, 47
9, 46080, Note_off_c, 2, 58, 47
9, 46080, Note_off_c, 2, 62, 47
9, 46080, Note_on_c, 2, 60, 95
9, 46080, Note_on_c, 2, 53, 95
9, 46080, Note_on_c, 2, 48, 95
9, 46560, Note_off_c, 2, 48, 95
9, 46560, Note_off_c, 2, 53, 95
9, 46560, Note_off_c, 2, 60, 95
9, 46560, Note_on_c, 2, 72, 95
9, 46560, Note_on_c, 2, 69, 95
9, 46560, Note_on_c, 2, 63, 95
9, 46560, Note_on_c, 2, 60, 95
9, 46800, Note_off_c, 2, 60, 95
9, 46800, Note_off_c, 2, 63, 95
9, 46800, Note_off_c, 2, 69, 95
9, 46800, Note_off_c, 2, 72, 95
9, 47040, Note_on_c, 2, 69, 95
9, 47040, Note_on_c, 2, 63, 95
9, 47040, Note_on_c, 2, 60, 95
9, 47088, Note_off_c, 2, 60, 95
9, 47088, Note_off_c, 2, 63, 95
9, 47088, Note_off_c, 2, 69, 95
9, 47280, Note_on_c, 2, 72, 95
9, 47280, Note_on_c, 2, 69, 95
9, 47280, Note_on_c, 2, 63, 95
9, 47280, Note_on_c, 2, 60, 95
9, 47520, Note_off_c, 2, 60, 95
9, 47520, Note_off_c, 2, 63, 95
9, 47520, Note_off_c, 2, 69, 95
9, 47520, Note_off_c, 2, 72, 95
9, 47760, Note_on_c, 2, 72, 95
9, 47760, Note_on_c, 2, 69, 95
9, 47760, Note_on_c, 2, 63, 95
9, 47760, Note_on_c, 2, 60, 95
9, 48000, Note_off_c, 2, 60, 95
9, 48000, Note_off_c, 2, 63, 95
9, 48000, Note_off_c, 2, 69, 95
9, 48000, Note_off_c, 2, 72, 95
9, 48240, Note_on_c, 2, 72, 95
9, 48240, Note_on_c, 2, 69, 95
9, 48240, Note_on_c, 2, 63, 95
9, 48240, Note_on_c, 2, 60, 95
9, 48480, Note_off_c, 2, 60, 95
9, 48480, Note_off_c, 2, 63, 95
9, 48480, Note_off_c, 2, 69, 95
9, 48480, Note_off_c, 2, 72, 95
9, 48720, Note_on_c, 2, 69, 95
9, 48720, Note_on_c, 2, 63, 95
9, 48720, Note_on_c, 2, 60, 95
9, 48720, Note_on_c, 2, 53, 95
9, 48960, Note_off_c, 2, 53, 95
9, 48960, Note_off_c, 2, 60, 95
9, 48960, Note_off_c, 2, 63, 95
9, 48960, Note_off_c, 2, 69, 95
9, 48960, Note_on_c, 2, 69, 95
9, 48960, Note_on_c, 2, 63, 95
9, 48960, Note_on_c, 2, 60, 95
9, 48960, Note_on_c, 2, 53, 95
9, 49200, Note_off_c, 2, 53, 95
9, 49200, Note_off_c, 2, 60, 95
9, 49200, Note_off_c, 2, 63, 95
9, 49200, Note_off_c, 2, 69, 95
9, 49200, Note_on_c, 2, 69, 95
9, 49200, Note_on_c, 2, 63, 95
9, 49200, Note_on_c, 2, 60, 95
9, 49200, Note_on_c, 2, 53, 95
9, 49440, Note_off_c, 2, 53, 95
9, 49440, Note_off_c, 2, 60, 95
9, 49440, Note_off_c, 2, 63, 95
9, 49440, Note_off_c, 2, 69, 95
9, 49440, Note_on_c, 2, 69, 95
9, 49440, Note_on_c, 2, 63, 95
9, 49440, Note_on_c, 2, 60, 95
9, 49440, Note_on_c, 2, 53, 95
9, 49680, Note_off_c, 2, 53, 95
9, 49680, Note_off_c, 2, 60, 95
9, 49680, Note_off_c, 2, 63, 95
9, 49680, Note_off_c, 2, 69, 95
9, 49680, Note_on_c, 2, 63, 95
9, 49680, Note_on_c, 2, 60, 95
9, 49680, Note_on_c, 2, 53, 95
9, 49920, Note_off_c, 2, 53, 95
9, 49920, Note_off_c, 2, 60, 95
9, 49920, Note_off_c, 2, 63, 95
9, 49920, Note_on_c, 2, 60, 95
9, 49920, Note_on_c, 2, 53, 95
9, 49920, Note_on_c, 2, 48, 95
9, 50400, Note_off_c, 2, 48, 95
9, 50400, Note_off_c, 2, 53, 95
9, 50400, Note_off_c, 2, 60, 95
9, 50400, Note_on_c, 2, 72, 95
9, 50400, Note_on_c, 2, 69, 95
9, 50400, Note_on_c, 2, 63, 95
9, 50400, Note_on_c, 2, 60, 95
9, 50640, Note_off_c, 2, 60, 95
9, 50640, Note_off_c, 2, 63, 95
9, 50640, Note_off_c, 2, 69, 95
9, 50640, Note_off_c, 2, 72, 95
9, 50880, Note_on_c, 2, 69, 95
9, 50880, Note_on_c, 2, 63, 95
9, 50880, Note_on_c, 2, 60, 95
9, 50928, Note_off_c, 2, 60, 95
9, 50928, Note_off_c, 2, 63, 95
9, 50928, Note_off_c, 2, 69, 95
9, 51120, Note_on_c, 2, 72, 95
9, 51120, Note_on_c, 2, 69, 95
9, 51120, Note_on_c, 2, 63, 95
9, 51120, Note_on_c, 2, 60, 95
9, 51360, Note_off_c, 2, 60, 95
9, 51360, Note_off_c, 2, 63, 95
9, 51360, Note_off_c, 2, 69, 95
9, 51360, Note_off_c, 2, 72, 95
9, 51600, Note_on_c, 2, 72, 95
9, 51600, Note_on_c, 2, 69, 95
9, 51600, Note_on_c, 2, 63, 95
9, 51600, Note_on_c, 2, 60, 95
9, 51840, Note_off_c, 2, 60, 95
9, 51840, Note_off_c, 2, 63, 95
9, 51840, Note_off_c, 2, 69, 95
9, 51840, Note_off_c, 2, 72, 95
9, 52080, Note_on_c, 2, 72, 95
9, 52080, Note_on_c, 2, 69, 95
9, 52080, Note_on_c, 2, 63, 95
9, 52080, Note_on_c, 2, 60, 95
9, 52320, Note_off_c, 2, 60, 95
9, 52320, Note_off_c, 2, 63, 95
9, 52320, Note_off_c, 2, 69, 95
9, 52320, Note_off_c, 2, 72, 95
9, 52560, Note_on_c, 2, 69, 95
9, 52560, Note_on_c, 2, 63, 95
9, 52560, Note_on_c, 2, 60, 95
9, 52560, Note_on_c, 2, 53, 95
9, 52800, Note_off_c, 2, 53, 95
9, 52800, Note_off_c, 2, 60, 95
9, 52800, Note_off_c, 2, 63, 95
9, 52800, Note_off_c, 2, 69, 95
9, 52800, Note_on_c, 2, 69, 95
9, 52800, Note_on_c, 2, 63, 95
9, 52800, Note_on_c, 2, 60, 95
9, 52800, Note_on_c, 2, 53, 95
9, 53040, Note_off_c, 2, 53, 95
9, 53040, Note_off_c, 2, 60, 95
9, 53040, Note_off_c, 2, 63, 95
9, 53040, Note_off_c, 2, 69, 95
9, 53040, Note_on_c, 2, 69, 95
9, 53040, Note_on_c, 2, 63, 95
9, 53040, Note_on_c, 2, 60, 95
9, 53040, Note_on_c, 2, 53, 95
9, 53280, Note_off_c, 2, 53, 95
9, 53280, Note_off_c, 2, 60, 95
9, 53280, Note_off_c, 2, 63, 95
9, 53280, Note_off_c, 2, 69, 95
9, 53280, Note_on_c, 2, 69, 95
9, 53280, Note_on_c, 2, 63, 95
9, 53280, Note_on_c, 2, 60, 95
9, 53280, Note_on_c, 2, 53, 95
9, 53520, Note_off_c, 2, 53, 95
9, 53520, Note_off_c, 2, 60, 95
9, 53520, Note_off_c, 2, 63, 95
9, 53520, Note_off_c, 2, 69, 95
9, 53520, Note_on_c, 2, 63, 95
9, 53520, Note_on_c, 2, 60, 95
9, 53520, Note_on_c, 2, 53, 95
9, 53760, Note_off_c, 2, 53, 95
9, 53760, Note_off_c, 2, 60, 95
9, 53760, Note_off_c, 2, 63, 95
9, 53760, Note_on_c, 2, 69, 127
9, 53760, Note_on_c, 2, 63, 127
9, 53760, Note_on_c, 2, 60, 127
9, 53760, Note_on_c, 2, 53, 127
9, 53760, Note_on_c, 2, 48, 127
9, 54240, Note_off_c, 2, 48, 127
9, 54240, Note_off_c, 2, 53, 127
9, 54240, Note_off_c, 2, 60, 127
9, 54240, Note_off_c, 2, 63, 127
9, 54240, Note_off_c, 2, 69, 127
9, 61440, Note_on_c, 2, 67, 127
9, 61440, Note_on_c, 2, 63, 127
9, 61440, Note_on_c, 2, 58, 127
9, 61440, Note_on_c, 2, 55, 127
9, 61440, Note_on_c, 2, 51, 127
9, 62400, Note_off_c, 2, 51, 127
9, 62400, Note_off_c, 2, 55, 127
9, 62400, Note_off_c, 2, 58, 127
9, 62400, Note_off_c, 2, 63, 127
9, 62400, Note_off_c, 2, 67, 127
9, 62880, Note_on_c, 2, 69, 127
9, 62880, Note_on_c, 2, 65, 127
9, 62880, Note_on_c, 2, 60, 127
9, 62880, Note_on_c, 2, 57, 127
9, 62880, Note_on_c, 2, 53, 127
9, 65280, Note_off_c, 2, 53, 127
9, 65280, Note_off_c, 2, 57, 127
9, 65280, Note_off_c, 2, 60, 127
9, 65280, Note_off_c, 2, 65, 127
9, 65280, Note_off_c, 2, 69, 127
9, 65280, Note_on_c, 2, 63, 111
9, 65280, Note_on_c, 2, 60, 111
9, 65280, Note_on_c, 2, 56, 111
9, 65280, Note_on_c, 2, 51, 111
9, 65280, Note_on_c, 2, 44, 111
9, 65760, Note_off_c, 2, 44, 111
9, 65760, Note_off_c, 2, 51, 111
9, 65760, Note_off_c, 2, 56, 111
9, 65760, Note_off_c, 2, 60, 111
9, 65760, Note_off_c, 2, 63, 111
9, 65760, Note_on_c, 2, 59, 95
9, 65760, Note_on_c, 2, 55, 95
9, 65760, Note_on_c, 2, 50, 95
9, 65760, Note_on_c, 2, 45, 95
9, 65808, Note_off_c, 2, 45, 95
9, 65808, Note_off_c, 2, 50, 95
9, 65808, Note_off_c, 2, 55, 95
9, 65808, Note_off_c, 2, 59, 95
9, 66000, Note_on_c, 2, 63, 111
9, 66000, Note_on_c, 2, 58, 111
9, 66000, Note_on_c, 2, 55, 111
9, 66000, Note_on_c, 2, 51, 111
9, 66480, Note_off_c, 2, 51, 111
9, 66480, Note_off_c, 2, 55, 111
9, 66480, Note_off_c, 2, 58, 111
9, 66480, Note_off_c, 2, 63, 111
9, 66480, Note_on_c, 2, 58, 95
9, 66480, Note_on_c, 2, 55, 95
9, 66480, Note_on_c, 2, 51, 95
9, 66720, Note_off_c, 2, 51, 95
9, 66720, Note_off_c, 2, 55, 95
9, 66720, Note_off_c, 2, 58, 95
9, 66720, Note_on_c, 2, 65, 111
9, 66720, Note_on_c, 2, 62, 111
9, 66720, Note_on_c, 2, 58, 111
9, 66720, Note_on_c, 2, 53, 111
9, 66720, Note_on_c, 2, 46, 111
9, 69120, Note_off_c, 2, 46, 111
9, 69120, Note_off_c, 2, 53, 111
9, 69120, Note_off_c, 2, 58, 111
9, 69120, Note_off_c, 2, 62, 111
9, 69120, Note_off_c, 2, 65, 111
9, 69120, Note_on_c, 2, 62, 95
9, 69120, Note_on_c, 2, 58, 95
9, 69120, Note_on_c, 2, 53, 95
9, 69120, Note_on_c, 2, 46, 95
9, 69600, Note_off_c, 2, 46, 95
9, 69600, Note_off_c, 2, 53, 95
9, 69600, Note_off_c, 2, 58, 95
9, 69600, Note_off_c, 2, 62, 95
9, 69600, Note_on_c, 2, 70, 95
9, 69600, Note_on_c, 2, 68, 95
9, 69600, Note_on_c, 2, 62, 95
9, 69600, Note_on_c, 2, 58, 95
9, 69840, Note_off_c, 2, 58, 95
9, 69840, Note_off_c, 2, 62, 95
9, 69840, Note_off_c, 2, 68, 95
9, 69840, Note_off_c, 2, 70, 95
9, 70080, Note_on_c, 2, 59, 95
9, 70080, Note_on_c, 2, 55, 95
9, 70080, Note_on_c, 2, 50, 95
9, 70128, Note_off_c, 2, 50, 95
9, 70128, Note_off_c, 2, 55, 95
9, 70128, Note_off_c, 2, 59, 95
9, 70320, Note_on_c, 2, 70, 95
9, 70320, Note_on_c, 2, 68, 95
9, 70320, Note_on_c, 2, 62, 95
9, 70320, Note_on_c, 2, 58, 95
9, 70560, Note_off_c, 2, 58, 95
9, 70560, Note_off_c, 2, 62, 95
9, 70560, Note_off_c, 2, 68, 95
9, 70560, Note_off_c, 2, 70, 95
9, 70800, Note_on_c, 2, 70, 95
9, 70800, Note_on_c, 2, 68, 95
9, 70800, Note_on_c, 2, 62, 95
9, 70800, Note_on_c, 2, 58, 95
9, 71040, Note_off_c, 2, 58, 95
9, 71040, Note_off_c, 2, 62, 95
9, 71040, Note_off_c, 2, 68, 95
9, 71040, Note_off_c, 2, 70, 95
9, 71280, Note_on_c, 2, 70, 95
9, 71280, Note_on_c, 2, 68, 95
9, 71280, Note_on_c, 2, 62, 95
9, 71280, Note_on_c, 2, 58, 95
9, 71520, Note_off_c, 2, 58, 95
9, 71520, Note_off_c, 2, 62, 95
9, 71520, Note_off_c, 2, 68, 95
9, 71520, Note_off_c, 2, 70, 95
9, 71760, Note_on_c, 2, 68, 95
9, 71760, Note_on_c, 2, 63, 95
9, 71760, Note_on_c, 2, 60, 95
9, 71760, Note_on_c, 2, 56, 95
9, 71760, Note_on_c, 2, 51, 95
9, 72000, Note_off_c, 2, 51, 95
9, 72000, Note_off_c, 2, 56, 95
9, 72000, Note_off_c, 2, 60, 95
9, 72000, Note_off_c, 2, 63, 95
9, 72000, Note_off_c, 2, 68, 95
9, 72000, Note_on_c, 2, 68, 95
9, 72000, Note_on_c, 2, 63, 95
9, 72000, Note_on_c, 2, 60, 95
9, 72000, Note_on_c, 2, 56, 95
9, 72000, Note_on_c, 2, 51, 95
9, 72240, Note_off_c, 2, 51, 95
9, 72240, Note_off_c, 2, 56, 95
9, 72240, Note_off_c, 2, 60, 95
9, 72240, Note_off_c, 2, 63, 95
9, 72240, Note_off_c, 2, 68, 95
9, 72240, Note_on_c, 2, 67, 95
9, 72240, Note_on_c, 2, 63, 95
9, 72240, Note_on_c, 2, 58, 95
9, 72240, Note_on_c, 2, 51, 95
9, 72480, Note_off_c, 2, 51, 95
9, 72480, Note_off_c, 2, 58, 95
9, 72480, Note_off_c, 2, 63, 95
9, 72480, Note_off_c, 2, 67, 95
9, 72480, Note_on_c, 2, 67, 95
9, 72480, Note_on_c, 2, 63, 95
9, 72480, Note_on_c, 2, 58, 95
9, 72480, Note_on_c, 2, 51, 95
9, 72720, Note_off_c, 2, 51, 95
9, 72720, Note_off_c, 2, 58, 95
9, 72720, Note_off_c, 2, 63, 95
9, 72720, Note_off_c, 2, 67, 95
9, 72720, Note_on_c, 2, 62, 47
9, 72720, Note_on_c, 2, 58, 47
9, 72720, Note_on_c, 2, 53, 47
9, 72960, Note_off_c, 2, 53, 47
9, 72960, Note_off_c, 2, 58, 47
9, 72960, Note_off_c, 2, 62, 47
9, 72960, Note_on_c, 2, 62, 95
9, 72960, Note_on_c, 2, 58, 95
9, 72960, Note_on_c, 2, 53, 95
9, 72960, Note_on_c, 2, 46, 95
9, 73440, Note_off_c, 2, 46, 95
9, 73440, Note_off_c, 2, 53, 95
9, 73440, Note_off_c, 2, 58, 95
9, 73440, Note_off_c, 2, 62, 95
9, 73440, Note_on_c, 2, 70, 95
9, 73440, Note_on_c, 2, 68, 95
9, 73440, Note_on_c, 2, 62, 95
9, 73440, Note_on_c, 2, 58, 95
9, 73680, Note_off_c, 2, 58, 95
9, 73680, Note_off_c, 2, 62, 95
9, 73680, Note_off_c, 2, 68, 95
9, 73680, Note_off_c, 2, 70, 95
9, 73920, Note_on_c, 2, 59, 95
9, 73920, Note_on_c, 2, 55, 95
9, 73920, Note_on_c, 2, 50, 95
9, 73968, Note_off_c, 2, 50, 95
9, 73968, Note_off_c, 2, 55, 95
9, 73968, Note_off_c, 2, 59, 95
9, 74160, Note_on_c, 2, 70, 95
9, 74160, Note_on_c, 2, 68, 95
9, 74160, Note_on_c, 2, 62, 95
9, 74160, Note_on_c, 2, 58, 95
9, 74400, Note_off_c, 2, 58, 95
9, 74400, Note_off_c, 2, 62, 95
9, 74400, Note_off_c, 2, 68, 95
9, 74400, Note_off_c, 2, 70, 95
9, 74640, Note_on_c, 2, 70, 95
9, 74640, Note_on_c, 2, 68, 95
9, 74640, Note_on_c, 2, 62, 95
9, 74640, Note_on_c, 2, 58, 95
9, 74880, Note_off_c, 2, 58, 95
9, 74880, Note_off_c, 2, 62, 95
9, 74880, Note_off_c, 2, 68, 95
9, 74880, Note_off_c, 2, 70, 95
9, 75120, Note_on_c, 2, 70, 95
9, 75120, Note_on_c, 2, 68, 95
9, 75120, Note_on_c, 2, 62, 95
9, 75120, Note_on_c, 2, 58, 95
9, 75360, Note_off_c, 2, 58, 95
9, 75360, Note_off_c, 2, 62, 95
9, 75360, Note_off_c, 2, 68, 95
9, 75360, Note_off_c, 2, 70, 95
9, 75600, Note_on_c, 2, 68, 95
9, 75600, Note_on_c, 2, 63, 95
9, 75600, Note_on_c, 2, 60, 95
9, 75600, Note_on_c, 2, 56, 95
9, 75600, Note_on_c, 2, 51, 95
9, 75840, Note_off_c, 2, 51, 95
9, 75840, Note_off_c, 2, 56, 95
9, 75840, Note_off_c, 2, 60, 95
9, 75840, Note_off_c, 2, 63, 95
9, 75840, Note_off_c, 2, 68, 95
9, 75840, Note_on_c, 2, 68, 95
9, 75840, Note_on_c, 2, 63, 95
9, 75840, Note_on_c, 2, 60, 95
9, 75840, Note_on_c, 2, 56, 95
9, 75840, Note_on_c, 2, 51, 95
9, 76080, Note_off_c, 2, 51, 95
9, 76080, Note_off_c, 2, 56, 95
9, 76080, Note_off_c, 2, 60, 95
9, 76080, Note_off_c, 2, 63, 95
9, 76080, Note_off_c, 2, 68, 95
9, 76080, Note_on_c, 2, 67, 95
9, 76080, Note_on_c, 2, 63, 95
9, 76080, Note_on_c, 2, 58, 95
9, 76080, Note_on_c, 2, 51, 95
9, 76320, Note_off_c, 2, 51, 95
9, 76320, Note_off_c, 2, 58, 95
9, 76320, Note_off_c, 2, 63, 95
9, 76320, Note_off_c, 2, 67, 95
9, 76320, Note_on_c, 2, 67, 95
9, 76320, Note_on_c, 2, 63, 95
9, 76320, Note_on_c, 2, 58, 95
9, 76320, Note_on_c, 2, 51, 95
9, 76560, Note_off_c, 2, 51, 95
9, 76560, Note_off_c, 2, 58, 95
9, 76560, Note_off_c, 2, 63, 95
9, 76560, Note_off_c, 2, 67, 95
9, 76560, Note_on_c, 2, 62, 47
9, 76560, Note_on_c, 2, 58, 47
9, 76560, Note_on_c, 2, 53, 47
9, 76800, Note_off_c, 2, 53, 47
9, 76800, Note_off_c, 2, 58, 47
9, 76800, Note_off_c, 2, 62, 47
9, 76800, Note_on_c, 2, 62, 95
9, 76800, Note_on_c, 2, 58, 95
9, 76800, Note_on_c, 2, 53, 95
9, 76800, Note_on_c, 2, 46, 95
9, 77280, Note_off_c, 2, 46, 95
9, 77280, Note_off_c, 2, 53, 95
9, 77280, Note_off_c, 2, 58, 95
9, 77280, Note_off_c, 2, 62, 95
9, 77280, Note_on_c, 2, 70, 95
9, 77280, Note_on_c, 2, 68, 95
9, 77280, Note_on_c, 2, 62, 95
9, 77280, Note_on_c, 2, 58, 95
9, 77520, Note_off_c, 2, 58, 95
9, 77520, Note_off_c, 2, 62, 95
9, 77520, Note_off_c, 2, 68, 95
9, 77520, Note_off_c, 2, 70, 95
9, 77760, Note_on_c, 2, 59, 95
9, 77760, Note_on_c, 2, 55, 95
9, 77760, Note_on_c, 2, 50, 95
9, 77808, Note_off_c, 2, 50, 95
9, 77808, Note_off_c, 2, 55, 95
9, 77808, Note_off_c, 2, 59, 95
9, 78000, Note_on_c, 2, 70, 95
9, 78000, Note_on_c, 2, 68, 95
9, 78000, Note_on_c, 2, 62, 95
9, 78000, Note_on_c, 2, 58, 95
9, 78240, Note_off_c, 2, 58, 95
9, 78240, Note_off_c, 2, 62, 95
9, 78240, Note_off_c, 2, 68, 95
9, 78240, Note_off_c, 2, 70, 95
9, 78480, Note_on_c, 2, 70, 95
9, 78480, Note_on_c, 2, 68, 95
9, 78480, Note_on_c, 2, 62, 95
9, 78480, Note_on_c, 2, 58, 95
9, 78720, Note_off_c, 2, 58, 95
9, 78720, Note_off_c, 2, 62, 95
9, 78720, Note_off_c, 2, 68, 95
9, 78720, Note_off_c, 2, 70, 95
9, 78960, Note_on_c, 2, 70, 95
9, 78960, Note_on_c, 2, 68, 95
9, 78960, Note_on_c, 2, 62, 95
9, 78960, Note_on_c, 2, 58, 95
9, 79200, Note_off_c, 2, 58, 95
9, 79200, Note_off_c, 2, 62, 95
9, 79200, Note_off_c, 2, 68, 95
9, 79200, Note_off_c, 2, 70, 95
9, 79440, Note_on_c, 2, 68, 95
9, 79440, Note_on_c, 2, 63, 95
9, 79440, Note_on_c, 2, 60, 95
9, 79440, Note_on_c, 2, 56, 95
9, 79440, Note_on_c, 2, 51, 95
9, 79680, Note_off_c, 2, 51, 95
9, 79680, Note_off_c, 2, 56, 95
9, 79680, Note_off_c, 2, 60, 95
9, 79680, Note_off_c, 2, 63, 95
9, 79680, Note_off_c, 2, 68, 95
9, 79680, Note_on_c, 2, 68, 95
9, 79680, Note_on_c, 2, 63, 95
9, 79680, Note_on_c, 2, 60, 95
9, 79680, Note_on_c, 2, 56, 95
9, 79680, Note_on_c, 2, 51, 95
9, 79920, Note_off_c, 2, 51, 95
9, 79920, Note_off_c, 2, 56, 95
9, 79920, Note_off_c, 2, 60, 95
9, 79920, Note_off_c, 2, 63, 95
9, 79920, Note_off_c, 2, 68, 95
9, 79920, Note_on_c, 2, 67, 95
9, 79920, Note_on_c, 2, 63, 95
9, 79920, Note_on_c, 2, 58, 95
9, 79920, Note_on_c, 2, 51, 95
9, 80160, Note_off_c, 2, 51, 95
9, 80160, Note_off_c, 2, 58, 95
9, 80160, Note_off_c, 2, 63, 95
9, 80160, Note_off_c, 2, 67, 95
9, 80160, Note_on_c, 2, 67, 95
9, 80160, Note_on_c, 2, 63, 95
9, 80160, Note_on_c, 2, 58, 95
9, 80160, Note_on_c, 2, 51, 95
9, 80400, Note_off_c, 2, 51, 95
9, 80400, Note_off_c, 2, 58, 95
9, 80400, Note_off_c, 2, 63, 95
9, 80400, Note_off_c, 2, 67, 95
9, 80400, Note_on_c, 2, 62, 47
9, 80400, Note_on_c, 2, 58, 47
9, 80400, Note_on_c, 2, 53, 47
9, 80640, Note_off_c, 2, 53, 47
9, 80640, Note_off_c, 2, 58, 47
9, 80640, Note_off_c, 2, 62, 47
9, 80640, Note_on_c, 2, 62, 95
9, 80640, Note_on_c, 2, 58, 95
9, 80640, Note_on_c, 2, 53, 95
9, 80640, Note_on_c, 2, 46, 95
9, 81120, Note_off_c, 2, 46, 95
9, 81120, Note_off_c, 2, 53, 95
9, 81120, Note_off_c, 2, 58, 95
9, 81120, Note_off_c, 2, 62, 95
9, 81120, Note_on_c, 2, 70, 95
9, 81120, Note_on_c, 2, 68, 95
9, 81120, Note_on_c, 2, 62, 95
9, 81120, Note_on_c, 2, 58, 95
9, 81360, Note_off_c, 2, 58, 95
9, 81360, Note_off_c, 2, 62, 95
9, 81360, Note_off_c, 2, 68, 95
9, 81360, Note_off_c, 2, 70, 95
9, 81600, Note_on_c, 2, 59, 95
9, 81600, Note_on_c, 2, 55, 95
9, 81600, Note_on_c, 2, 50, 95
9, 81648, Note_off_c, 2, 50, 95
9, 81648, Note_off_c, 2, 55, 95
9, 81648, Note_off_c, 2, 59, 95
9, 81840, Note_on_c, 2, 70, 95
9, 81840, Note_on_c, 2, 68, 95
9, 81840, Note_on_c, 2, 62, 95
9, 81840, Note_on_c, 2, 58, 95
9, 82080, Note_off_c, 2, 58, 95
9, 82080, Note_off_c, 2, 62, 95
9, 82080, Note_off_c, 2, 68, 95
9, 82080, Note_off_c, 2, 70, 95
9, 82320, Note_on_c, 2, 70, 95
9, 82320, Note_on_c, 2, 68, 95
9, 82320, Note_on_c, 2, 62, 95
9, 82320, Note_on_c, 2, 58, 95
9, 82560, Note_off_c, 2, 58, 95
9, 82560, Note_off_c, 2, 62, 95
9, 82560, Note_off_c, 2, 68, 95
9, 82560, Note_off_c, 2, 70, 95
9, 82800, Note_on_c, 2, 70, 95
9, 82800, Note_on_c, 2, 68, 95
9, 82800, Note_on_c, 2, 62, 95
9, 82800, Note_on_c, 2, 58, 95
9, 83040, Note_off_c, 2, 58, 95
9, 83040, Note_off_c, 2, 62, 95
9, 83040, Note_off_c, 2, 68, 95
9, 83040, Note_off_c, 2, 70, 95
9, 83280, Note_on_c, 2, 68, 95
9, 83280, Note_on_c, 2, 63, 95
9, 83280, Note_on_c, 2, 60, 95
9, 83280, Note_on_c, 2, 56, 95
9, 83280, Note_on_c, 2, 51, 95
9, 83520, Note_off_c, 2, 51, 95
9, 83520, Note_off_c, 2, 56, 95
9, 83520, Note_off_c, 2, 60, 95
9, 83520, Note_off_c, 2, 63, 95
9, 83520, Note_off_c, 2, 68, 95
9, 83520, Note_on_c, 2, 68, 95
9, 83520, Note_on_c, 2, 63, 95
9, 83520, Note_on_c, 2, 60, 95
9, 83520, Note_on_c, 2, 56, 95
9, 83520, Note_on_c, 2, 51, 95
9, 83760, Note_off_c, 2, 51, 95
9, 83760, Note_off_c, 2, 56, 95
9, 83760, Note_off_c, 2, 60, 95
9, 83760, Note_off_c, 2, 63, 95
9, 83760, Note_off_c, 2, 68, 95
9, 83760, Note_on_c, 2, 67, 95
9, 83760, Note_on_c, 2, 63, 95
9, 83760, Note_on_c, 2, 58, 95
9, 83760, Note_on_c, 2, 51, 95
9, 84000, Note_off_c, 2, 51, 95
9, 84000, Note_off_c, 2, 58, 95
9, 84000, Note_off_c, 2, 63, 95
9, 84000, Note_off_c, 2, 67, 95
9, 84000, Note_on_c, 2, 67, 95
9, 84000, Note_on_c, 2, 63, 95
9, 84000, Note_on_c, 2, 58, 95
9, 84000, Note_on_c, 2, 51, 95
9, 84240, Note_off_c, 2, 51, 95
9, 84240, Note_off_c, 2, 58, 95
9, 84240, Note_off_c, 2, 63, 95
9, 84240, Note_off_c, 2, 67, 95
9, 84240, Note_on_c, 2, 62, 47
9, 84240, Note_on_c, 2, 58, 47
9, 84240, Note_on_c, 2, 53, 47
9, 84480, Note_off_c, 2, 53, 47
9, 84480, Note_off_c, 2, 58, 47
9, 84480, Note_off_c, 2, 62, 47
9, 84480, Note_on_c, 2, 62, 95
9, 84480, Note_on_c, 2, 58, 95
9, 84480, Note_on_c, 2, 53, 95
9, 84480, Note_on_c, 2, 46, 95
9, 84960, Note_off_c, 2, 46, 95
9, 84960, Note_off_c, 2, 53, 95
9, 84960, Note_off_c, 2, 58, 95
9, 84960, Note_off_c, 2, 62, 95
9, 84960, Note_on_c, 2, 70, 95
9, 84960, Note_on_c, 2, 68, 95
9, 84960, Note_on_c, 2, 62, 95
9, 84960, Note_on_c, 2, 58, 95
9, 85200, Note_off_c, 2, 58, 95
9, 85200, Note_off_c, 2, 62, 95
9, 85200, Note_off_c, 2, 68, 95
9, 85200, Note_off_c, 2, 70, 95
9, 85440, Note_on_c, 2, 59, 95
9, 85440, Note_on_c, 2, 55, 95
9, 85440, Note_on_c, 2, 50, 95
9, 85488, Note_off_c, 2, 50, 95
9, 85488, Note_off_c, 2, 55, 95
9, 85488, Note_off_c, 2, 59, 95
9, 85680, Note_on_c, 2, 70, 95
9, 85680, Note_on_c, 2, 68, 95
9, 85680, Note_on_c, 2, 62, 95
9, 85680, Note_on_c, 2, 58, 95
9, 85920, Note_off_c, 2, 58, 95
9, 85920, Note_off_c, 2, 62, 95
9, 85920, Note_off_c, 2, 68, 95
9, 85920, Note_off_c, 2, 70, 95
9, 86160, Note_on_c, 2, 70, 95
9, 86160, Note_on_c, 2, 68, 95
9, 86160, Note_on_c, 2, 62, 95
9, 86160, Note_on_c, 2, 58, 95
9, 86400, Note_off_c, 2, 58, 95
9, 86400, Note_off_c, 2, 62, 95
9, 86400, Note_off_c, 2, 68, 95
9, 86400, Note_off_c, 2, 70, 95
9, 86640, Note_on_c, 2, 70, 95
9, 86640, Note_on_c, 2, 68, 95
9, 86640, Note_on_c, 2, 62, 95
9, 86640, Note_on_c, 2, 58, 95
9, 86880, Note_off_c, 2, 58, 95
9, 86880, Note_off_c, 2, 62, 95
9, 86880, Note_off_c, 2, 68, 95
9, 86880, Note_off_c, 2, 70, 95
9, 87120, Note_on_c, 2, 68, 95
9, 87120, Note_on_c, 2, 63, 95
9, 87120, Note_on_c, 2, 60, 95
9, 87120, Note_on_c, 2, 56, 95
9, 87120, Note_on_c, 2, 51, 95
9, 87360, Note_off_c, 2, 51, 95
9, 87360, Note_off_c, 2, 56, 95
9, 87360, Note_off_c, 2, 60, 95
9, 87360, Note_off_c, 2, 63, 95
9, 87360, Note_off_c, 2, 68, 95
9, 87360, Note_on_c, 2, 68, 95
9, 87360, Note_on_c, 2, 63, 95
9, 87360, Note_on_c, 2, 60, 95
9, 87360, Note_on_c, 2, 56, 95
9, 87360, Note_on_c, 2, 51, 95
9, 87600, Note_off_c, 2, 51, 95
9, 87600, Note_off_c, 2, 56, 95
9, 87600, Note_off_c, 2, 60, 95
9, 87600, Note_off_c, 2, 63, 95
9, 87600, Note_off_c, 2, 68, 95
9, 87600, Note_on_c, 2, 67, 95
9, 87600, Note_on_c, 2, 63, 95
9, 87600, Note_on_c, 2, 58, 95
9, 87600, Note_on_c, 2, 51, 95
9, 87840, Note_off_c, 2, 51, 95
9, 87840, Note_off_c, 2, 58, 95
9, 87840, Note_off_c, 2, 63, 95
9, 87840, Note_off_c, 2, 67, 95
9, 87840, Note_on_c, 2, 67, 95
9, 87840, Note_on_c, 2, 63, 95
9, 87840, Note_on_c, 2, 58, 95
9, 87840, Note_on_c, 2, 51, 95
9, 88080, Note_off_c, 2, 51, 95
9, 88080, Note_off_c, 2, 58, 95
9, 88080, Note_off_c, 2, 63, 95
9, 88080, Note_off_c, 2, 67, 95
9, 88080, Note_on_c, 2, 62, 47
9, 88080, Note_on_c, 2, 58, 47
9, 88080, Note_on_c, 2, 53, 47
9, 88320, Note_off_c, 2, 53, 47
9, 88320, Note_off_c, 2, 58, 47
9, 88320, Note_off_c, 2, 62, 47
9, 88320, Note_on_c, 2, 62, 95
9, 88320, Note_on_c, 2, 58, 95
9, 88320, Note_on_c, 2, 53, 95
9, 88320, Note_on_c, 2, 46, 95
9, 88800, Note_off_c, 2, 46, 95
9, 88800, Note_off_c, 2, 53, 95
9, 88800, Note_off_c, 2, 58, 95
9, 88800, Note_off_c, 2, 62, 95
9, 88800, Note_on_c, 2, 70, 95
9, 88800, Note_on_c, 2, 68, 95
9, 88800, Note_on_c, 2, 62, 95
9, 88800, Note_on_c, 2, 58, 95
9, 89040, Note_off_c, 2, 58, 95
9, 89040, Note_off_c, 2, 62, 95
9, 89040, Note_off_c, 2, 68, 95
9, 89040, Note_off_c, 2, 70, 95
9, 89280, Note_on_c, 2, 59, 95
9, 89280, Note_on_c, 2, 55, 95
9, 89280, Note_on_c, 2, 50, 95
9, 89328, Note_off_c, 2, 50, 95
9, 89328, Note_off_c, 2, 55, 95
9, 89328, Note_off_c, 2, 59, 95
9, 89520, Note_on_c, 2, 70, 95
9, 89520, Note_on_c, 2, 68, 95
9, 89520, Note_on_c, 2, 62, 95
9, 89520, Note_on_c, 2, 58, 95
9, 89760, Note_off_c, 2, 58, 95
9, 89760, Note_off_c, 2, 62, 95
9, 89760, Note_off_c, 2, 68, 95
9, 89760, Note_off_c, 2, 70, 95
9, 90000, Note_on_c, 2, 70, 95
9, 90000, Note_on_c, 2, 68, 95
9, 90000, Note_on_c, 2, 62, 95
9, 90000, Note_on_c, 2, 58, 95
9, 90240, Note_off_c, 2, 58, 95
9, 90240, Note_off_c, 2, 62, 95
9, 90240, Note_off_c, 2, 68, 95
9, 90240, Note_off_c, 2, 70, 95
9, 90480, Note_on_c, 2, 70, 95
9, 90480, Note_on_c, 2, 68, 95
9, 90480, Note_on_c, 2, 62, 95
9, 90480, Note_on_c, 2, 58, 95
9, 90720, Note_off_c, 2, 58, 95
9, 90720, Note_off_c, 2, 62, 95
9, 90720, Note_off_c, 2, 68, 95
9, 90720, Note_off_c, 2, 70, 95
9, 90960, Note_on_c, 2, 68, 95
9, 90960, Note_on_c, 2, 63, 95
9, 90960, Note_on_c, 2, 60, 95
9, 90960, Note_on_c, 2, 56, 95
9, 90960, Note_on_c, 2, 51, 95
9, 91200, Note_off_c, 2, 51, 95
9, 91200, Note_off_c, 2, 56, 95
9, 91200, Note_off_c, 2, 60, 95
9, 91200, Note_off_c, 2, 63, 95
9, 91200, Note_off_c, 2, 68, 95
9, 91200, Note_on_c, 2, 68, 95
9, 91200, Note_on_c, 2, 63, 95
9, 91200, Note_on_c, 2, 60, 95
9, 91200, Note_on_c, 2, 56, 95
9, 91200, Note_on_c, 2, 51, 95
9, 91440, Note_off_c, 2, 51, 95
9, 91440, Note_off_c, 2, 56, 95
9, 91440, Note_off_c, 2, 60, 95
9, 91440, Note_off_c, 2, 63, 95
9, 91440, Note_off_c, 2, 68, 95
9, 91440, Note_on_c, 2, 67, 95
9, 91440, Note_on_c, 2, 63, 95
9, 91440, Note_on_c, 2, 58, 95
9, 91440, Note_on_c, 2, 51, 95
9, 91680, Note_off_c, 2, 51, 95
9, 91680, Note_off_c, 2, 58, 95
9, 91680, Note_off_c, 2, 63, 95
9, 91680, Note_off_c, 2, 67, 95
9, 91680, Note_on_c, 2, 67, 95
9, 91680, Note_on_c, 2, 63, 95
9, 91680, Note_on_c, 2, 58, 95
9, 91680, Note_on_c, 2, 51, 95
9, 91920, Note_off_c, 2, 51, 95
9, 91920, Note_off_c, 2, 58, 95
9, 91920, Note_off_c, 2, 63, 95
9, 91920, Note_off_c, 2, 67, 95
9, 91920, Note_on_c, 2, 62, 47
9, 91920, Note_on_c, 2, 58, 47
9, 91920, Note_on_c, 2, 53, 47
9, 92160, Note_off_c, 2, 53, 47
9, 92160, Note_off_c, 2, 58, 47
9, 92160, Note_off_c, 2, 62, 47
9, 92160, Note_on_c, 2, 62, 95
9, 92160, Note_on_c, 2, 58, 95
9, 92160, Note_on_c, 2, 53, 95
9, 92160, Note_on_c, 2, 46, 95
9, 92640, Note_off_c, 2, 46, 95
9, 92640, Note_off_c, 2, 53, 95
9, 92640, Note_off_c, 2, 58, 95
9, 92640, Note_off_c, 2, 62, 95
9, 92640, Note_on_c, 2, 70, 95
9, 92640, Note_on_c, 2, 68, 95
9, 92640, Note_on_c, 2, 62, 95
9, 92640, Note_on_c, 2, 58, 95
9, 92880, Note_off_c, 2, 58, 95
9, 92880, Note_off_c, 2, 62, 95
9, 92880, Note_off_c, 2, 68, 95
9, 92880, Note_off_c, 2, 70, 95
9, 93120, Note_on_c, 2, 59, 95
9, 93120, Note_on_c, 2, 55, 95
9, 93120, Note_on_c, 2, 50, 95
9, 93168, Note_off_c, 2, 50, 95
9, 93168, Note_off_c, 2, 55, 95
9, 93168, Note_off_c, 2, 59, 95
9, 93360, Note_on_c, 2, 70, 95
9, 93360, Note_on_c, 2, 68, 95
9, 93360, Note_on_c, 2, 62, 95
9, 93360, Note_on_c, 2, 58, 95
9, 93600, Note_off_c, 2, 58, 95
9, 93600, Note_off_c, 2, 62, 95
9, 93600, Note_off_c, 2, 68, 95
9, 93600, Note_off_c, 2, 70, 95
9, 93840, Note_on_c, 2, 70, 95
9, 93840, Note_on_c, 2, 68, 95
9, 93840, Note_on_c, 2, 62, 95
9, 93840, Note_on_c, 2, 58, 95
9, 94080, Note_off_c, 2, 58, 95
9, 94080, Note_off_c, 2, 62, 95
9, 94080, Note_off_c, 2, 68, 95
9, 94080, Note_off_c, 2, 70, 95
9, 94320, Note_on_c, 2, 70, 95
9, 94320, Note_on_c, 2, 68, 95
9, 94320, Note_on_c, 2, 62, 95
9, 94320, Note_on_c, 2, 58, 95
9, 94560, Note_off_c, 2, 58, 95
9, 94560, Note_off_c, 2, 62, 95
9, 94560, Note_off_c, 2, 68, 95
9, 94560, Note_off_c, 2, 70, 95
9, 94800, Note_on_c, 2, 68, 95
9, 94800, Note_on_c, 2, 63, 95
9, 94800, Note_on_c, 2, 60, 95
9, 94800, Note_on_c, 2, 56, 95
9, 94800, Note_on_c, 2, 51, 95
9, 95040, Note_off_c, 2, 51, 95
9, 95040, Note_off_c, 2, 56, 95
9, 95040, Note_off_c, 2, 60, 95
9, 95040, Note_off_c, 2, 63, 95
9, 95040, Note_off_c, 2, 68, 95
9, 95040, Note_on_c, 2, 68, 95
9, 95040, Note_on_c, 2, 63, 95
9, 95040, Note_on_c, 2, 60, 95
9, 95040, Note_on_c, 2, 56, 95
9, 95040, Note_on_c, 2, 51, 95
9, 95280, Note_off_c, 2, 51, 95
9, 95280, Note_off_c, 2, 56, 95
9, 95280, Note_off_c, 2, 60, 95
9, 95280, Note_off_c, 2, 63, 95
9, 95280, Note_off_c, 2, 68, 95
9, 95280, Note_on_c, 2, 67, 95
9, 95280, Note_on_c, 2, 63, 95
9, 95280, Note_on_c, 2, 58, 95
9, 95280, Note_on_c, 2, 51, 95
9, 95520, Note_off_c, 2, 51, 95
9, 95520, Note_off_c, 2, 58, 95
9, 95520, Note_off_c, 2, 63, 95
9, 95520, Note_off_c, 2, 67, 95
9, 95520, Note_on_c, 2, 67, 95
9, 95520, Note_on_c, 2, 63, 95
9, 95520, Note_on_c, 2, 58, 95
9, 95520, Note_on_c, 2, 51, 95
9, 95760, Note_off_c, 2, 51, 95
9, 95760, Note_off_c, 2, 58, 95
9, 95760, Note_off_c, 2, 63, 95
9, 95760, Note_off_c, 2, 67, 95
9, 95760, Note_on_c, 2, 62, 47
9, 95760, Note_on_c, 2, 58, 47
9, 95760, Note_on_c, 2, 53, 47
9, 96000, Note_off_c, 2, 53, 47
9, 96000, Note_off_c, 2, 58, 47
9, 96000, Note_off_c, 2, 62, 47
9, 96000, Note_on_c, 2, 62, 95
9, 96000, Note_on_c, 2, 58, 95
9, 96000, Note_on_c, 2, 53, 95
9, 96000, Note_on_c, 2, 46, 95
9, 96480, Note_off_c, 2, 46, 95
9, 96480, Note_off_c, 2, 53, 95
9, 96480, Note_off_c, 2, 58, 95
9, 96480, Note_off_c, 2, 62, 95
9, 96480, Note_on_c, 2, 70, 95
9, 96480, Note_on_c, 2, 68, 95
9, 96480, Note_on_c, 2, 62, 95
9, 96480, Note_on_c, 2, 58, 95
9, 96720, Note_off_c, 2, 58, 95
9, 96720, Note_off_c, 2, 62, 95
9, 96720, Note_off_c, 2, 68, 95
9, 96720, Note_off_c, 2, 70, 95
9, 96960, Note_on_c, 2, 59, 95
9, 96960, Note_on_c, 2, 55, 95
9, 96960, Note_on_c, 2, 50, 95
9, 97008, Note_off_c, 2, 50, 95
9, 97008, Note_off_c, 2, 55, 95
9, 97008, Note_off_c, 2, 59, 95
9, 97200, Note_on_c, 2, 70, 95
9, 97200, Note_on_c, 2, 68, 95
9, 97200, Note_on_c, 2, 62, 95
9, 97200, Note_on_c, 2, 58, 95
9, 97440, Note_off_c, 2, 58, 95
9, 97440, Note_off_c, 2, 62, 95
9, 97440, Note_off_c, 2, 68, 95
9, 97440, Note_off_c, 2, 70, 95
9, 97680, Note_on_c, 2, 70, 95
9, 97680, Note_on_c, 2, 68, 95
9, 97680, Note_on_c, 2, 62, 95
9, 97680, Note_on_c, 2, 58, 95
9, 97920, Note_off_c, 2, 58, 95
9, 97920, Note_off_c, 2, 62, 95
9, 97920, Note_off_c, 2, 68, 95
9, 97920, Note_off_c, 2, 70, 95
9, 98160, Note_on_c, 2, 70, 95
9, 98160, Note_on_c, 2, 68, 95
9, 98160, Note_on_c, 2, 62, 95
9, 98160, Note_on_c, 2, 58, 95
9, 98400, Note_off_c, 2, 58, 95
9, 98400, Note_off_c, 2, 62, 95
9, 98400, Note_off_c, 2, 68, 95
9, 98400, Note_off_c, 2, 70, 95
9, 98640, Note_on_c, 2, 68, 95
9, 98640, Note_on_c, 2, 63, 95
9, 98640, Note_on_c, 2, 60, 95
9, 98640, Note_on_c, 2, 56, 95
9, 98640, Note_on_c, 2, 51, 95
9, 98880, Note_off_c, 2, 51, 95
9, 98880, Note_off_c, 2, 56, 95
9, 98880, Note_off_c, 2, 60, 95
9, 98880, Note_off_c, 2, 63, 95
9, 98880, Note_off_c, 2, 68, 95
9, 98880, Note_on_c, 2, 68, 95
9, 98880, Note_on_c, 2, 63, 95
9, 98880, Note_on_c, 2, 60, 95
9, 98880, Note_on_c, 2, 56, 95
9, 98880, Note_on_c, 2, 51, 95
9, 99120, Note_off_c, 2, 51, 95
9, 99120, Note_off_c, 2, 56, 95
9, 99120, Note_off_c, 2, 60, 95
9, 99120, Note_off_c, 2, 63, 95
9, 99120, Note_off_c, 2, 68, 95
9, 99120, Note_on_c, 2, 67, 95
9, 99120, Note_on_c, 2, 63, 95
9, 99120, Note_on_c, 2, 58, 95
9, 99120, Note_on_c, 2, 51, 95
9, 99360, Note_off_c, 2, 51, 95
9, 99360, Note_off_c, 2, 58, 95
9, 99360, Note_off_c, 2, 63, 95
9, 99360, Note_off_c, 2, 67, 95
9, 99360, Note_on_c, 2, 67, 95
9, 99360, Note_on_c, 2, 63, 95
9, 99360, Note_on_c, 2, 58, 95
9, 99360, Note_on_c, 2, 51, 95
9, 99600, Note_off_c, 2, 51, 95
9, 99600, Note_off_c, 2, 58, 95
9, 99600, Note_off_c, 2, 63, 95
9, 99600, Note_off_c, 2, 67, 95
9, 99600, Note_on_c, 2, 62, 47
9, 99600, Note_on_c, 2, 58, 47
9, 99600, Note_on_c, 2, 53, 47
9, 99840, Note_off_c, 2, 53, 47
9, 99840, Note_off_c, 2, 58, 47
9, 99840, Note_off_c, 2, 62, 47
9, 99840, Note_on_c, 2, 60, 95
9, 99840, Note_on_c, 2, 53, 95
9, 99840, Note_on_c, 2, 48, 95
9, 100320, Note_off_c, 2, 48, 95
9, 100320, Note_off_c, 2, 53, 95
9, 100320, Note_off_c, 2, 60, 95
9, 100320, Note_on_c, 2, 72, 95
9, 100320, Note_on_c, 2, 69, 95
9, 100320, Note_on_c, 2, 63, 95
9, 100320, Note_on_c, 2, 60, 95
9, 100560, Note_off_c, 2, 60, 95
9, 100560, Note_off_c, 2, 63, 95
9, 100560, Note_off_c, 2, 69, 95
9, 100560, Note_off_c, 2, 72, 95
9, 100800, Note_on_c, 2, 69, 95
9, 100800, Note_on_c, 2, 63, 95
9, 100800, Note_on_c, 2, 60, 95
9, 100848, Note_off_c, 2, 60, 95
9, 100848, Note_off_c, 2, 63, 95
9, 100848, Note_off_c, 2, 69, 95
9, 101040, Note_on_c, 2, 72, 95
9, 101040, Note_on_c, 2, 69, 95
9, 101040, Note_on_c, 2, 63, 95
9, 101040, Note_on_c, 2, 60, 95
9, 101280, Note_off_c, 2, 60, 95
9, 101280, Note_off_c, 2, 63, 95
9, 101280, Note_off_c, 2, 69, 95
9, 101280, Note_off_c, 2, 72, 95
9, 101520, Note_on_c, 2, 72, 95
9, 101520, Note_on_c, 2, 69, 95
9, 101520, Note_on_c, 2, 63, 95
9, 101520, Note_on_c, 2, 60, 95
9, 101760, Note_off_c, 2, 60, 95
9, 101760, Note_off_c, 2, 63, 95
9, 101760, Note_off_c, 2, 69, 95
9, 101760, Note_off_c, 2, 72, 95
9, 102000, Note_on_c, 2, 72, 95
9, 102000, Note_on_c, 2, 69, 95
9, 102000, Note_on_c, 2, 63, 95
9, 102000, Note_on_c, 2, 60, 95
9, 102240, Note_off_c, 2, 60, 95
9, 102240, Note_off_c, 2, 63, 95
9, 102240, Note_off_c, 2, 69, 95
9, 102240, Note_off_c, 2, 72, 95
9, 102480, Note_on_c, 2, 69, 95
9, 102480, Note_on_c, 2, 63, 95
9, 102480, Note_on_c, 2, 60, 95
9, 102480, Note_on_c, 2, 53, 95
9, 102720, Note_off_c, 2, 53, 95
9, 102720, Note_off_c, 2, 60, 95
9, 102720, Note_off_c, 2, 63, 95
9, 102720, Note_off_c, 2, 69, 95
9, 102720, Note_on_c, 2, 69, 95
9, 102720, Note_on_c, 2, 63, 95
9, 102720, Note_on_c, 2, 60, 95
9, 102720, Note_on_c, 2, 53, 95
9, 102960, Note_off_c, 2, 53, 95
9, 102960, Note_off_c, 2, 60, 95
9, 102960, Note_off_c, 2, 63, 95
9, 102960, Note_off_c, 2, 69, 95
9, 102960, Note_on_c, 2, 69, 95
9, 102960, Note_on_c, 2, 63, 95
9, 102960, Note_on_c, 2, 60, 95
9, 102960, Note_on_c, 2, 53, 95
9, 103200, Note_off_c, 2, 53, 95
9, 103200, Note_off_c, 2, 60, 95
9, 103200, Note_off_c, 2, 63, 95
9, 103200, Note_off_c, 2, 69, 95
9, 103200, Note_on_c, 2, 69, 95
9, 103200, Note_on_c, 2, 63, 95
9, 103200, Note_on_c, 2, 60, 95
9, 103200, Note_on_c, 2, 53, 95
9, 103440, Note_off_c, 2, 53, 95
9, 103440, Note_off_c, 2, 60, 95
9, 103440, Note_off_c, 2, 63, 95
9, 103440, Note_off_c, 2, 69, 95
9, 103440, Note_on_c, 2, 63, 95
9, 103440, Note_on_c, 2, 60, 95
9, 103440, Note_on_c, 2, 53, 95
9, 103680, Note_off_c, 2, 53, 95
9, 103680, Note_off_c, 2, 60, 95
9, 103680, Note_off_c, 2, 63, 95
9, 103680, Note_on_c, 2, 60, 95
9, 103680, Note_on_c, 2, 53, 95
9, 103680, Note_on_c, 2, 48, 95
9, 104160, Note_off_c, 2, 48, 95
9, 104160, Note_off_c, 2, 53, 95
9, 104160, Note_off_c, 2, 60, 95
9, 104160, Note_on_c, 2, 72, 95
9, 104160, Note_on_c, 2, 69, 95
9, 104160, Note_on_c, 2, 63, 95
9, 104160, Note_on_c, 2, 60, 95
9, 104400, Note_off_c, 2, 60, 95
9, 104400, Note_off_c, 2, 63, 95
9, 104400, Note_off_c, 2, 69, 95
9, 104400, Note_off_c, 2, 72, 95
9, 104640, Note_on_c, 2, 69, 95
9, 104640, Note_on_c, 2, 63, 95
9, 104640, Note_on_c, 2, 60, 95
9, 104688, Note_off_c, 2, 60, 95
9, 104688, Note_off_c, 2, 63, 95
9, 104688, Note_off_c, 2, 69, 95
9, 104880, Note_on_c, 2, 72, 95
9, 104880, Note_on_c, 2, 69, 95
9, 104880, Note_on_c, 2, 63, 95
9, 104880, Note_on_c, 2, 60, 95
9, 105120, Note_off_c, 2, 60, 95
9, 105120, Note_off_c, 2, 63, 95
9, 105120, Note_off_c, 2, 69, 95
9, 105120, Note_off_c, 2, 72, 95
9, 105360, Note_on_c, 2, 72, 95
9, 105360, Note_on_c, 2, 69, 95
9, 105360, Note_on_c, 2, 63, 95
9, 105360, Note_on_c, 2, 60, 95
9, 105600, Note_off_c, 2, 60, 95
9, 105600, Note_off_c, 2, 63, 95
9, 105600, Note_off_c, 2, 69, 95
9, 105600, Note_off_c, 2, 72, 95
9, 105840, Note_on_c, 2, 72, 95
9, 105840, Note_on_c, 2, 69, 95
9, 105840, Note_on_c, 2, 63, 95
9, 105840, Note_on_c, 2, 60, 95
9, 106080, Note_off_c, 2, 60, 95
9, 106080, Note_off_c, 2, 63, 95
9, 106080, Note_off_c, 2, 69, 95
9, 106080, Note_off_c, 2, 72, 95
9, 106320, Note_on_c, 2, 69, 95
9, 106320, Note_on_c, 2, 63, 95
9, 106320, Note_on_c, 2, 60, 95
9, 106320, Note_on_c, 2, 53, 95
9, 106560, Note_off_c, 2, 53, 95
9, 106560, Note_off_c, 2, 60, 95
9, 106560, Note_off_c, 2, 63, 95
9, 106560, Note_off_c, 2, 69, 95
9, 106560, Note_on_c, 2, 69, 95
9, 106560, Note_on_c, 2, 63, 95
9, 106560, Note_on_c, 2, 60, 95
9, 106560, Note_on_c, 2, 53, 95
9, 106800, Note_off_c, 2, 53, 95
9, 106800, Note_off_c, 2, 60, 95
9, 106800, Note_off_c, 2, 63, 95
9, 106800, Note_off_c, 2, 69, 95
9, 106800, Note_on_c, 2, 69, 95
9, 106800, Note_on_c, 2, 63, 95
9, 106800, Note_on_c, 2, 60, 95
9, 106800, Note_on_c, 2, 53, 95
9, 107040, Note_off_c, 2, 53, 95
9, 107040, Note_off_c, 2, 60, 95
9, 107040, Note_off_c, 2, 63, 95
9, 107040, Note_off_c, 2, 69, 95
9, 107040, Note_on_c, 2, 69, 95
9, 107040, Note_on_c, 2, 63, 95
9, 107040, Note_on_c, 2, 60, 95
9, 107040, Note_on_c, 2, 53, 95
9, 107280, Note_off_c, 2, 53, 95
9, 107280, Note_off_c, 2, 60, 95
9, 107280, Note_off_c, 2, 63, 95
9, 107280, Note_off_c, 2, 69, 95
9, 107280, Note_on_c, 2, 63, 95
9, 107280, Note_on_c, 2, 60, 95
9, 107280, Note_on_c, 2, 53, 95
9, 107520, Note_off_c, 2, 53, 95
9, 107520, Note_off_c, 2, 60, 95
9, 107520, Note_off_c, 2, 63, 95
9, 107520, Note_on_c, 2, 69, 127
9, 107520, Note_on_c, 2, 63, 127
9, 107520, Note_on_c, 2, 60, 127
9, 107520, Note_on_c, 2, 53, 127
9, 107520, Note_on_c, 2, 48, 127
9, 108000, Note_off_c, 2, 48, 127
9, 108000, Note_off_c, 2, 53, 127
9, 108000, Note_off_c, 2, 60, 127
9, 108000, Note_off_c, 2, 63, 127
9, 108000, Note_off_c, 2, 69, 127
9, 115200, Note_on_c, 2, 63, 111
9, 115200, Note_on_c, 2, 60, 111
9, 115200, Note_on_c, 2, 56, 111
9, 115200, Note_on_c, 2, 51, 111
9, 115200, Note_on_c, 2, 44, 111
9, 115680, Note_off_c, 2, 44, 111
9, 115680, Note_off_c, 2, 51, 111
9, 115680, Note_off_c, 2, 56, 111
9, 115680, Note_off_c, 2, 60, 111
9, 115680, Note_off_c, 2, 63, 111
9, 115680, Note_on_c, 2, 59, 95
9, 115680, Note_on_c, 2, 55, 95
9, 115680, Note_on_c, 2, 50, 95
9, 115680, Note_on_c, 2, 45, 95
9, 115728, Note_off_c, 2, 45, 95
9, 115728, Note_off_c, 2, 50, 95
9, 115728, Note_off_c, 2, 55, 95
9, 115728, Note_off_c, 2, 59, 95
9, 115920, Note_on_c, 2, 63, 111
9, 115920, Note_on_c, 2, 58, 111
9, 115920, Note_on_c, 2, 55, 111
9, 115920, Note_on_c, 2, 51, 111
9, 116400, Note_off_c, 2, 51, 111
9, 116400, Note_off_c, 2, 55, 111
9, 116400, Note_off_c, 2, 58, 111
9, 116400, Note_off_c, 2, 63, 111
9, 116400, Note_on_c, 2, 58, 95
9, 116400, Note_on_c, 2, 55, 95
9, 116400, Note_on_c, 2, 51, 95
9, 116640, Note_off_c, 2, 51, 95
9, 116640, Note_off_c, 2, 55, 95
9, 116640, Note_off_c, 2, 58, 95
9, 116640, Note_on_c, 2, 65, 111
9, 116640, Note_on_c, 2, 62, 111
9, 116640, Note_on_c, 2, 58, 111
9, 116640, Note_on_c, 2, 53, 111
9, 116640, Note_on_c, 2, 46, 111
9, 119040, Note_off_c, 2, 46, 111
9, 119040, Note_off_c, 2, 53, 111
9, 119040, Note_off_c, 2, 58, 111
9, 119040, Note_off_c, 2, 62, 111
9, 119040, Note_off_c, 2, 65, 111
9, 119040, Note_on_c, 2, 63, 111
9, 119040, Note_on_c, 2, 60, 111
9, 119040, Note_on_c, 2, 56, 111
9, 119040, Note_on_c, 2, 51, 111
9, 119040, Note_on_c, 2, 44, 111
9, 119520, Note_off_c, 2, 44, 111
9, 119520, Note_off_c, 2, 51, 111
9, 119520, Note_off_c, 2, 56, 111
9, 119520, Note_off_c, 2, 60, 111
9, 119520, Note_off_c, 2, 63, 111
9, 119520, Note_on_c, 2, 59, 95
9, 119520, Note_on_c, 2, 55, 95
9, 119520, Note_on_c, 2, 50, 95
9, 119520, Note_on_c, 2, 45, 95
9, 119568, Note_off_c, 2, 45, 95
9, 119568, Note_off_c, 2, 50, 95
9, 119568, Note_off_c, 2, 55, 95
9, 119568, Note_off_c, 2, 59, 95
9, 119760, Note_on_c, 2, 63, 111
9, 119760, Note_on_c, 2, 58, 111
9, 119760, Note_on_c, 2, 55, 111
9, 119760, Note_on_c, 2, 51, 111
9, 120240, Note_off_c, 2, 51, 111
9, 120240, Note_off_c, 2, 55, 111
9, 120240, Note_off_c, 2, 58, 111
9, 120240, Note_off_c, 2, 63, 111
9, 120240, Note_on_c, 2, 58, 95
9, 120240, Note_on_c, 2, 55, 95
9, 120240, Note_on_c, 2, 51, 95
9, 120480, Note_off_c, 2, 51, 95
9, 120480, Note_off_c, 2, 55, 95
9, 120480, Note_off_c, 2, 58, 95
9, 120480, Note_on_c, 2, 65, 111
9, 120480, Note_on_c, 2, 62, 111
9, 120480, Note_on_c, 2, 58, 111
9, 120480, Note_on_c, 2, 53, 111
9, 120480, Note_on_c, 2, 46, 111
9, 122880, Note_off_c, 2, 46, 111
9, 122880, Note_off_c, 2, 53, 111
9, 122880, Note_off_c, 2, 58, 111
9, 122880, Note_off_c, 2, 62, 111
9, 122880, Note_off_c, 2, 65, 111
9, 122880, Note_on_c, 2, 63, 111
9, 122880, Note_on_c, 2, 60, 111
9, 122880, Note_on_c, 2, 56, 111
9, 122880, Note_on_c, 2, 51, 111
9, 122880, Note_on_c, 2, 44, 111
9, 123360, Note_off_c, 2, 44, 111
9, 123360, Note_off_c, 2, 51, 111
9, 123360, Note_off_c, 2, 56, 111
9, 123360, Note_off_c, 2, 60, 111
9, 123360, Note_off_c, 2, 63, 111
9, 123360, Note_on_c, 2, 59, 95
9, 123360, Note_on_c, 2, 55, 95
9, 123360, Note_on_c, 2, 50, 95
9, 123360, Note_on_c, 2, 45, 95
9, 123408, Note_off_c, 2, 45, 95
9, 123408, Note_off_c, 2, 50, 95
9, 123408, Note_off_c, 2, 55, 95
9, 123408, Note_off_c, 2, 59, 95
9, 123600, Note_on_c, 2, 63, 111
9, 123600, Note_on_c, 2, 58, 111
9, 123600, Note_on_c, 2, 55, 111
9, 123600, Note_on_c, 2, 51, 111
9, 124080, Note_off_c, 2, 51, 111
9, 124080, Note_off_c, 2, 55, 111
9, 124080, Note_off_c, 2, 58, 111
9, 124080, Note_off_c, 2, 63, 111
9, 124080, Note_on_c, 2, 58, 95
9, 124080, Note_on_c, 2, 55, 95
9, 124080, Note_on_c, 2, 51, 95
9, 124320, Note_off_c, 2, 51, 95
9, 124320, Note_off_c, 2, 55, 95
9, 124320, Note_off_c, 2, 58, 95
9, 124320, Note_on_c, 2, 65, 111
9, 124320, Note_on_c, 2, 62, 111
9, 124320, Note_on_c, 2, 58, 111
9, 124320, Note_on_c, 2, 53, 111
9, 124320, Note_on_c, 2, 46, 111
9, 126720, Note_off_c, 2, 46, 111
9, 126720, Note_off_c, 2, 53, 111
9, 126720, Note_off_c, 2, 58, 111
9, 126720, Note_off_c, 2, 62, 111
9, 126720, Note_off_c, 2, 65, 111
9, 126720, Note_on_c, 2, 63, 111
9, 126720, Note_on_c, 2, 60, 111
9, 126720, Note_on_c, 2, 56, 111
9, 126720, Note_on_c, 2, 51, 111
9, 126720, Note_on_c, 2, 44, 111
9, 127200, Note_off_c, 2, 44, 111
9, 127200, Note_off_c, 2, 51, 111
9, 127200, Note_off_c, 2, 56, 111
9, 127200, Note_off_c, 2, 60, 111
9, 127200, Note_off_c, 2, 63, 111
9, 127200, Note_on_c, 2, 59, 95
9, 127200, Note_on_c, 2, 55, 95
9, 127200, Note_on_c, 2, 50, 95
9, 127200, Note_on_c, 2, 45, 95
9, 127248, Note_off_c, 2, 45, 95
9, 127248, Note_off_c, 2, 50, 95
9, 127248, Note_off_c, 2, 55, 95
9, 127248, Note_off_c, 2, 59, 95
9, 127440, Note_on_c, 2, 63, 111
9, 127440, Note_on_c, 2, 58, 111
9, 127440, Note_on_c, 2, 55, 111
9, 127440, Note_on_c, 2, 51, 111
9, 127920, Note_off_c, 2, 51, 111
9, 127920, Note_off_c, 2, 55, 111
9, 127920, Note_off_c, 2, 58, 111
9, 127920, Note_off_c, 2, 63, 111
9, 127920, Note_on_c, 2, 58, 95
9, 127920, Note_on_c, 2, 55, 95
9, 127920, Note_on_c, 2, 51, 95
9, 128160, Note_off_c, 2, 51, 95
9, 128160, Note_off_c, 2, 55, 95
9, 128160, Note_off_c, 2, 58, 95
9, 128160, Note_on_c, 2, 65, 111
9, 128160, Note_on_c, 2, 62, 111
9, 128160, Note_on_c, 2, 58, 111
9, 128160, Note_on_c, 2, 53, 111
9, 128160, Note_on_c, 2, 46, 111
9, 130560, Note_off_c, 2, 46, 111
9, 130560, Note_off_c, 2, 53, 111
9, 130560, Note_off_c, 2, 58, 111
9, 130560, Note_off_c, 2, 62, 111
9, 130560, Note_off_c, 2, 65, 111
9, 130560, Note_on_c, 2, 62, 95
9, 130560, Note_on_c, 2, 58, 95
9, 130560, Note_on_c, 2, 53, 95
9, 130560, Note_on_c, 2, 46, 95
9, 131040, Note_off_c, 2, 46, 95
9, 131040, Note_off_c, 2, 53, 95
9, 131040, Note_off_c, 2, 58, 95
9, 131040, Note_off_c, 2, 62, 95
9, 131040, Note_on_c, 2, 70, 95
9, 131040, Note_on_c, 2, 68, 95
9, 131040, Note_on_c, 2, 62, 95
9, 131040, Note_on_c, 2, 58, 95
9, 131280, Note_off_c, 2, 58, 95
9, 131280, Note_off_c, 2, 62, 95
9, 131280, Note_off_c, 2, 68, 95
9, 131280, Note_off_c, 2, 70, 95
9, 131520, Note_on_c, 2, 59, 95
9, 131520, Note_on_c, 2, 55, 95
9, 131520, Note_on_c, 2, 50, 95
9, 131568, Note_off_c, 2, 50, 95
9, 131568, Note_off_c, 2, 55, 95
9, 131568, Note_off_c, 2, 59, 95
9, 131760, Note_on_c, 2, 70, 95
9, 131760, Note_on_c, 2, 68, 95
9, 131760, Note_on_c, 2, 62, 95
9, 131760, Note_on_c, 2, 58, 95
9, 132000, Note_off_c, 2, 58, 95
9, 132000, Note_off_c, 2, 62, 95
9, 132000, Note_off_c, 2, 68, 95
9, 132000, Note_off_c, 2, 70, 95
9, 132240, Note_on_c, 2, 70, 95
9, 132240, Note_on_c, 2, 68, 95
9, 132240, Note_on_c, 2, 62, 95
9, 132240, Note_on_c, 2, 58, 95
9, 132480, Note_off_c, 2, 58, 95
9, 132480, Note_off_c, 2, 62, 95
9, 132480, Note_off_c, 2, 68, 95
9, 132480, Note_off_c, 2, 70, 95
9, 132720, Note_on_c, 2, 70, 95
9, 132720, Note_on_c, 2, 68, 95
9, 132720, Note_on_c, 2, 62, 95
9, 132720, Note_on_c, 2, 58, 95
9, 132960, Note_off_c, 2, 58, 95
9, 132960, Note_off_c, 2, 62, 95
9, 132960, Note_off_c, 2, 68, 95
9, 132960, Note_off_c, 2, 70, 95
9, 133200, Note_on_c, 2, 68, 95
9, 133200, Note_on_c, 2, 63, 95
9, 133200, Note_on_c, 2, 60, 95
9, 133200, Note_on_c, 2, 56, 95
9, 133200, Note_on_c, 2, 51, 95
9, 133440, Note_off_c, 2, 51, 95
9, 133440, Note_off_c, 2, 56, 95
9, 133440, Note_off_c, 2, 60, 95
9, 133440, Note_off_c, 2, 63, 95
9, 133440, Note_off_c, 2, 68, 95
9, 133440, Note_on_c, 2, 68, 95
9, 133440, Note_on_c, 2, 63, 95
9, 133440, Note_on_c, 2, 60, 95
9, 133440, Note_on_c, 2, 56, 95
9, 133440, Note_on_c, 2, 51, 95
9, 133680, Note_off_c, 2, 51, 95
9, 133680, Note_off_c, 2, 56, 95
9, 133680, Note_off_c, 2, 60, 95
9, 133680, Note_off_c, 2, 63, 95
9, 133680, Note_off_c, 2, 68, 95
9, 133680, Note_on_c, 2, 67, 95
9, 133680, Note_on_c, 2, 63, 95
9, 133680, Note_on_c, 2, 58, 95
9, 133680, Note_on_c, 2, 51, 95
9, 133920, Note_off_c, 2, 51, 95
9, 133920, Note_off_c, 2, 58, 95
9, 133920, Note_off_c, 2, 63, 95
9, 133920, Note_off_c, 2, 67, 95
9, 133920, Note_on_c, 2, 67, 95
9, 133920, Note_on_c, 2, 63, 95
9, 133920, Note_on_c, 2, 58, 95
9, 133920, Note_on_c, 2, 51, 95
9, 134160, Note_off_c, 2, 51, 95
9, 134160, Note_off_c, 2, 58, 95
9, 134160, Note_off_c, 2, 63, 95
9, 134160, Note_off_c, 2, 67, 95
9, 134160, Note_on_c, 2, 62, 47
9, 134160, Note_on_c, 2, 58, 47
9, 134160, Note_on_c, 2, 53, 47
9, 134400, Note_off_c, 2, 53, 47
9, 134400, Note_off_c, 2, 58, 47
9, 134400, Note_off_c, 2, 62, 47
9, 134400, Note_on_c, 2, 62, 95
9, 134400, Note_on_c, 2, 58, 95
9, 134400, Note_on_c, 2, 53, 95
9, 134400, Note_on_c, 2, 46, 95
9, 134880, Note_off_c, 2, 46, 95
9, 134880, Note_off_c, 2, 53, 95
9, 134880, Note_off_c, 2, 58, 95
9, 134880, Note_off_c, 2, 62, 95
9, 134880, Note_on_c, 2, 70, 95
9, 134880, Note_on_c, 2, 68, 95
9, 134880, Note_on_c, 2, 62, 95
9, 134880, Note_on_c, 2, 58, 95
9, 135120, Note_off_c, 2, 58, 95
9, 135120, Note_off_c, 2, 62, 95
9, 135120, Note_off_c, 2, 68, 95
9, 135120, Note_off_c, 2, 70, 95
9, 135360, Note_on_c, 2, 59, 95
9, 135360, Note_on_c, 2, 55, 95
9, 135360, Note_on_c, 2, 50, 95
9, 135408, Note_off_c, 2, 50, 95
9, 135408, Note_off_c, 2, 55, 95
9, 135408, Note_off_c, 2, 59, 95
9, 135600, Note_on_c, 2, 70, 95
9, 135600, Note_on_c, 2, 68, 95
9, 135600, Note_on_c, 2, 62, 95
9, 135600, Note_on_c, 2, 58, 95
9, 135840, Note_off_c, 2, 58, 95
9, 135840, Note_off_c, 2, 62, 95
9, 135840, Note_off_c, 2, 68, 95
9, 135840, Note_off_c, 2, 70, 95
9, 136080, Note_on_c, 2, 70, 95
9, 136080, Note_on_c, 2, 68, 95
9, 136080, Note_on_c, 2, 62, 95
9, 136080, Note_on_c, 2, 58, 95
9, 136320, Note_off_c, 2, 58, 95
9, 136320, Note_off_c, 2, 62, 95
9, 136320, Note_off_c, 2, 68, 95
9, 136320, Note_off_c, 2, 70, 95
9, 136560, Note_on_c, 2, 70, 95
9, 136560, Note_on_c, 2, 68, 95
9, 136560, Note_on_c, 2, 62, 95
9, 136560, Note_on_c, 2, 58, 95
9, 136800, Note_off_c, 2, 58, 95
9, 136800, Note_off_c, 2, 62, 95
9, 136800, Note_off_c, 2, 68, 95
9, 136800, Note_off_c, 2, 70, 95
9, 137040, Note_on_c, 2, 68, 95
9, 137040, Note_on_c, 2, 63, 95
9, 137040, Note_on_c, 2, 60, 95
9, 137040, Note_on_c, 2, 56, 95
9, 137040, Note_on_c, 2, 51, 95
9, 137280, Note_off_c, 2, 51, 95
9, 137280, Note_off_c, 2, 56, 95
9, 137280, Note_off_c, 2, 60, 95
9, 137280, Note_off_c, 2, 63, 95
9, 137280, Note_off_c, 2, 68, 95
9, 137280, Note_on_c, 2, 68, 95
9, 137280, Note_on_c, 2, 63, 95
9, 137280, Note_on_c, 2, 60, 95
9, 137280, Note_on_c, 2, 56, 95
9, 137280, Note_on_c, 2, 51, 95
9, 137520, Note_off_c, 2, 51, 95
9, 137520, Note_off_c, 2, 56, 95
9, 137520, Note_off_c, 2, 60, 95
9, 137520, Note_off_c, 2, 63, 95
9, 137520, Note_off_c, 2, 68, 95
9, 137520, Note_on_c, 2, 67, 95
9, 137520, Note_on_c, 2, 63, 95
9, 137520, Note_on_c, 2, 58, 95
9, 137520, Note_on_c, 2, 51, 95
9, 137760, Note_off_c, 2, 51, 95
9, 137760, Note_off_c, 2, 58, 95
9, 137760, Note_off_c, 2, 63, 95
9, 137760, Note_off_c, 2, 67, 95
9, 137760, Note_on_c, 2, 67, 95
9, 137760, Note_on_c, 2, 63, 95
9, 137760, Note_on_c, 2, 58, 95
9, 137760, Note_on_c, 2, 51, 95
9, 138000, Note_off_c, 2, 51, 95
9, 138000, Note_off_c, 2, 58, 95
9, 138000, Note_off_c, 2, 63, 95
9, 138000, Note_off_c, 2, 67, 95
9, 138000, Note_on_c, 2, 62, 47
9, 138000, Note_on_c, 2, 58, 47
9, 138000, Note_on_c, 2, 53, 47
9, 138240, Note_off_c, 2, 53, 47
9, 138240, Note_off_c, 2, 58, 47
9, 138240, Note_off_c, 2, 62, 47
9, 138240, Note_on_c, 2, 62, 95
9, 138240, Note_on_c, 2, 58, 95
9, 138240, Note_on_c, 2, 53, 95
9, 138240, Note_on_c, 2, 46, 95
9, 138720, Note_off_c, 2, 46, 95
9, 138720, Note_off_c, 2, 53, 95
9, 138720, Note_off_c, 2, 58, 95
9, 138720, Note_off_c, 2, 62, 95
9, 138720, Note_on_c, 2, 70, 95
9, 138720, Note_on_c, 2, 68, 95
9, 138720, Note_on_c, 2, 62, 95
9, 138720, Note_on_c, 2, 58, 95
9, 138960, Note_off_c, 2, 58, 95
9, 138960, Note_off_c, 2, 62, 95
9, 138960, Note_off_c, 2, 68, 95
9, 138960, Note_off_c, 2, 70, 95
9, 139200, Note_on_c, 2, 59, 95
9, 139200, Note_on_c, 2, 55, 95
9, 139200, Note_on_c, 2, 50, 95
9, 139248, Note_off_c, 2, 50, 95
9, 139248, Note_off_c, 2, 55, 95
9, 139248, Note_off_c, 2, 59, 95
9, 139440, Note_on_c, 2, 70, 95
9, 139440, Note_on_c, 2, 68, 95
9, 139440, Note_on_c, 2, 62, 95
9, 139440, Note_on_c, 2, 58, 95
9, 139680, Note_off_c, 2, 58, 95
9, 139680, Note_off_c, 2, 62, 95
9, 139680, Note_off_c, 2, 68, 95
9, 139680, Note_off_c, 2, 70, 95
9, 139920, Note_on_c, 2, 70, 95
9, 139920, Note_on_c, 2, 68, 95
9, 139920, Note_on_c, 2, 62, 95
9, 139920, Note_on_c, 2, 58, 95
9, 140160, Note_off_c, 2, 58, 95
9, 140160, Note_off_c, 2, 62, 95
9, 140160, Note_off_c, 2, 68, 95
9, 140160, Note_off_c, 2, 70, 95
9, 140400, Note_on_c, 2, 70, 95
9, 140400, Note_on_c, 2, 68, 95
9, 140400, Note_on_c, 2, 62, 95
9, 140400, Note_on_c, 2, 58, 95
9, 140640, Note_off_c, 2, 58, 95
9, 140640, Note_off_c, 2, 62, 95
9, 140640, Note_off_c, 2, 68, 95
9, 140640, Note_off_c, 2, 70, 95
9, 140880, Note_on_c, 2, 68, 95
9, 140880, Note_on_c, 2, 63, 95
9, 140880, Note_on_c, 2, 60, 95
9, 140880, Note_on_c, 2, 56, 95
9, 140880, Note_on_c, 2, 51, 95
9, 141120, Note_off_c, 2, 51, 95
9, 141120, Note_off_c, 2, 56, 95
9, 141120, Note_off_c, 2, 60, 95
9, 141120, Note_off_c, 2, 63, 95
9, 141120, Note_off_c, 2, 68, 95
9, 141120, Note_on_c, 2, 68, 95
9, 141120, Note_on_c, 2, 63, 95
9, 141120, Note_on_c, 2, 60, 95
9, 141120, Note_on_c, 2, 56, 95
9, 141120, Note_on_c, 2, 51, 95
9, 141360, Note_off_c, 2, 51, 95
9, 141360, Note_off_c, 2, 56, 95
9, 141360, Note_off_c, 2, 60, 95
9, 141360, Note_off_c, 2, 63, 95
9, 141360, Note_off_c, 2, 68, 95
9, 141360, Note_on_c, 2, 67, 95
9, 141360, Note_on_c, 2, 63, 95
9, 141360, Note_on_c, 2, 58, 95
9, 141360, Note_on_c, 2, 51, 95
9, 141600, Note_off_c, 2, 51, 95
9, 141600, Note_off_c, 2, 58, 95
9, 141600, Note_off_c, 2, 63, 95
9, 141600, Note_off_c, 2, 67, 95
9, 141600, Note_on_c, 2, 67, 95
9, 141600, Note_on_c, 2, 63, 95
9, 141600, Note_on_c, 2, 58, 95
9, 141600, Note_on_c, 2, 51, 95
9, 141840, Note_off_c, 2, 51, 95
9, 141840, Note_off_c, 2, 58, 95
9, 141840, Note_off_c, 2, 63, 95
9, 141840, Note_off_c, 2, 67, 95
9, 141840, Note_on_c, 2, 62, 47
9, 141840, Note_on_c, 2, 58, 47
9, 141840, Note_on_c, 2, 53, 47
9, 142080, Note_off_c, 2, 53, 47
9, 142080, Note_off_c, 2, 58, 47
9, 142080, Note_off_c, 2, 62, 47
9, 142080, Note_on_c, 2, 62, 95
9, 142080, Note_on_c, 2, 58, 95
9, 142080, Note_on_c, 2, 53, 95
9, 142080, Note_on_c, 2, 46, 95
9, 142560, Note_off_c, 2, 46, 95
9, 142560, Note_off_c, 2, 53, 95
9, 142560, Note_off_c, 2, 58, 95
9, 142560, Note_off_c, 2, 62, 95
9, 142560, Note_on_c, 2, 70, 95
9, 142560, Note_on_c, 2, 68, 95
9, 142560, Note_on_c, 2, 62, 95
9, 142560, Note_on_c, 2, 58, 95
9, 142800, Note_off_c, 2, 58, 95
9, 142800, Note_off_c, 2, 62, 95
9, 142800, Note_off_c, 2, 68, 95
9, 142800, Note_off_c, 2, 70, 95
9, 143040, Note_on_c, 2, 59, 95
9, 143040, Note_on_c, 2, 55, 95
9, 143040, Note_on_c, 2, 50, 95
9, 143088, Note_off_c, 2, 50, 95
9, 143088, Note_off_c, 2, 55, 95
9, 143088, Note_off_c, 2, 59, 95
9, 143280, Note_on_c, 2, 70, 95
9, 143280, Note_on_c, 2, 68, 95
9, 143280, Note_on_c, 2, 62, 95
9, 143280, Note_on_c, 2, 58, 95
9, 143520, Note_off_c, 2, 58, 95
9, 143520, Note_off_c, 2, 62, 95
9, 143520, Note_off_c, 2, 68, 95
9, 143520, Note_off_c, 2, 70, 95
9, 143760, Note_on_c, 2, 70, 95
9, 143760, Note_on_c, 2, 68, 95
9, 143760, Note_on_c, 2, 62, 95
9, 143760, Note_on_c, 2, 58, 95
9, 144000, Note_off_c, 2, 58, 95
9, 144000, Note_off_c, 2, 62, 95
9, 144000, Note_off_c, 2, 68, 95
9, 144000, Note_off_c, 2, 70, 95
9, 144240, Note_on_c, 2, 70, 95
9, 144240, Note_on_c, 2, 68, 95
9, 144240, Note_on_c, 2, 62, 95
9, 144240, Note_on_c, 2, 58, 95
9, 144480, Note_off_c, 2, 58, 95
9, 144480, Note_off_c, 2, 62, 95
9, 144480, Note_off_c, 2, 68, 95
9, 144480, Note_off_c, 2, 70, 95
9, 144720, Note_on_c, 2, 68, 95
9, 144720, Note_on_c, 2, 63, 95
9, 144720, Note_on_c, 2, 60, 95
9, 144720, Note_on_c, 2, 56, 95
9, 144720, Note_on_c, 2, 51, 95
9, 144960, Note_off_c, 2, 51, 95
9, 144960, Note_off_c, 2, 56, 95
9, 144960, Note_off_c, 2, 60, 95
9, 144960, Note_off_c, 2, 63, 95
9, 144960, Note_off_c, 2, 68, 95
9, 144960, Note_on_c, 2, 68, 95
9, 144960, Note_on_c, 2, 63, 95
9, 144960, Note_on_c, 2, 60, 95
9, 144960, Note_on_c, 2, 56, 95
9, 144960, Note_on_c, 2, 51, 95
9, 145200, Note_off_c, 2, 51, 95
9, 145200, Note_off_c, 2, 56, 95
9, 145200, Note_off_c, 2, 60, 95
9, 145200, Note_off_c, 2, 63, 95
9, 145200, Note_off_c, 2, 68, 95
9, 145200, Note_on_c, 2, 67, 95
9, 145200, Note_on_c, 2, 63, 95
9, 145200, Note_on_c, 2, 58, 95
9, 145200, Note_on_c, 2, 51, 95
9, 145440, Note_off_c, 2, 51, 95
9, 145440, Note_off_c, 2, 58, 95
9, 145440, Note_off_c, 2, 63, 95
9, 145440, Note_off_c, 2, 67, 95
9, 145440, Note_on_c, 2, 67, 95
9, 145440, Note_on_c, 2, 63, 95
9, 145440, Note_on_c, 2, 58, 95
9, 145440, Note_on_c, 2, 51, 95
9, 145680, Note_off_c, 2, 51, 95
9, 145680, Note_off_c, 2, 58, 95
9, 145680, Note_off_c, 2, 63, 95
9, 145680, Note_off_c, 2, 67, 95
9, 145680, Note_on_c, 2, 62, 47
9, 145680, Note_on_c, 2, 58, 47
9, 145680, Note_on_c, 2, 53, 47
9, 145920, Note_off_c, 2, 53, 47
9, 145920, Note_off_c, 2, 58, 47
9, 145920, Note_off_c, 2, 62, 47
9, 145920, Note_on_c, 2, 62, 95
9, 145920, Note_on_c, 2, 58, 95
9, 145920, Note_on_c, 2, 53, 95
9, 145920, Note_on_c, 2, 46, 95
9, 146400, Note_off_c, 2, 46, 95
9, 146400, Note_off_c, 2, 53, 95
9, 146400, Note_off_c, 2, 58, 95
9, 146400, Note_off_c, 2, 62, 95
9, 146400, Note_on_c, 2, 70, 95
9, 146400, Note_on_c, 2, 68, 95
9, 146400, Note_on_c, 2, 62, 95
9, 146400, Note_on_c, 2, 58, 95
9, 146640, Note_off_c, 2, 58, 95
9, 146640, Note_off_c, 2, 62, 95
9, 146640, Note_off_c, 2, 68, 95
9, 146640, Note_off_c, 2, 70, 95
9, 146880, Note_on_c, 2, 59, 95
9, 146880, Note_on_c, 2, 55, 95
9, 146880, Note_on_c, 2, 50, 95
9, 146928, Note_off_c, 2, 50, 95
9, 146928, Note_off_c, 2, 55, 95
9, 146928, Note_off_c, 2, 59, 95
9, 147120, Note_on_c, 2, 70, 95
9, 147120, Note_on_c, 2, 68, 95
9, 147120, Note_on_c, 2, 62, 95
9, 147120, Note_on_c, 2, 58, 95
9, 147360, Note_off_c, 2, 58, 95
9, 147360, Note_off_c, 2, 62, 95
9, 147360, Note_off_c, 2, 68, 95
9, 147360, Note_off_c, 2, 70, 95
9, 147600, Note_on_c, 2, 70, 95
9, 147600, Note_on_c, 2, 68, 95
9, 147600, Note_on_c, 2, 62, 95
9, 147600, Note_on_c, 2, 58, 95
9, 147840, Note_off_c, 2, 58, 95
9, 147840, Note_off_c, 2, 62, 95
9, 147840, Note_off_c, 2, 68, 95
9, 147840, Note_off_c, 2, 70, 95
9, 148080, Note_on_c, 2, 70, 95
9, 148080, Note_on_c, 2, 68, 95
9, 148080, Note_on_c, 2, 62, 95
9, 148080, Note_on_c, 2, 58, 95
9, 148320, Note_off_c, 2, 58, 95
9, 148320, Note_off_c, 2, 62, 95
9, 148320, Note_off_c, 2, 68, 95
9, 148320, Note_off_c, 2, 70, 95
9, 148560, Note_on_c, 2, 68, 95
9, 148560, Note_on_c, 2, 63, 95
9, 148560, Note_on_c, 2, 60, 95
9, 148560, Note_on_c, 2, 56, 95
9, 148560, Note_on_c, 2, 51, 95
9, 148800, Note_off_c, 2, 51, 95
9, 148800, Note_off_c, 2, 56, 95
9, 148800, Note_off_c, 2, 60, 95
9, 148800, Note_off_c, 2, 63, 95
9, 148800, Note_off_c, 2, 68, 95
9, 148800, Note_on_c, 2, 68, 95
9, 148800, Note_on_c, 2, 63, 95
9, 148800, Note_on_c, 2, 60, 95
9, 148800, Note_on_c, 2, 56, 95
9, 148800, Note_on_c, 2, 51, 95
9, 149040, Note_off_c, 2, 51, 95
9, 149040, Note_off_c, 2, 56, 95
9, 149040, Note_off_c, 2, 60, 95
9, 149040, Note_off_c, 2, 63, 95
9, 149040, Note_off_c, 2, 68, 95
9, 149040, Note_on_c, 2, 67, 95
9, 149040, Note_on_c, 2, 63, 95
9, 149040, Note_on_c, 2, 58, 95
9, 149040, Note_on_c, 2, 51, 95
9, 149280, Note_off_c, 2, 51, 95
9, 149280, Note_off_c, 2, 58, 95
9, 149280, Note_off_c, 2, 63, 95
9, 149280, Note_off_c, 2, 67, 95
9, 149280, Note_on_c, 2, 67, 95
9, 149280, Note_on_c, 2, 63, 95
9, 149280, Note_on_c, 2, 58, 95
9, 149280, Note_on_c, 2, 51, 95
9, 149520, Note_off_c, 2, 51, 95
9, 149520, Note_off_c, 2, 58, 95
9, 149520, Note_off_c, 2, 63, 95
9, 149520, Note_off_c, 2, 67, 95
9, 149520, Note_on_c, 2, 62, 47
9, 149520, Note_on_c, 2, 58, 47
9, 149520, Note_on_c, 2, 53, 47
9, 149760, Note_off_c, 2, 53, 47
9, 149760, Note_off_c, 2, 58, 47
9, 149760, Note_off_c, 2, 62, 47
9, 149760, Note_on_c, 2, 62, 95
9, 149760, Note_on_c, 2, 58, 95
9, 149760, Note_on_c, 2, 53, 95
9, 149760, Note_on_c, 2, 46, 95
9, 150240, Note_off_c, 2, 46, 95
9, 150240, Note_off_c, 2, 53, 95
9, 150240, Note_off_c, 2, 58, 95
9, 150240, Note_off_c, 2, 62, 95
9, 150240, Note_on_c, 2, 70, 95
9, 150240, Note_on_c, 2, 68, 95
9, 150240, Note_on_c, 2, 62, 95
9, 150240, Note_on_c, 2, 58, 95
9, 150480, Note_off_c, 2, 58, 95
9, 150480, Note_off_c, 2, 62, 95
9, 150480, Note_off_c, 2, 68, 95
9, 150480, Note_off_c, 2, 70, 95
9, 150720, Note_on_c, 2, 59, 95
9, 150720, Note_on_c, 2, 55, 95
9, 150720, Note_on_c, 2, 50, 95
9, 150768, Note_off_c, 2, 50, 95
9, 150768, Note_off_c, 2, 55, 95
9, 150768, Note_off_c, 2, 59, 95
9, 150960, Note_on_c, 2, 70, 95
9, 150960, Note_on_c, 2, 68, 95
9, 150960, Note_on_c, 2, 62, 95
9, 150960, Note_on_c, 2, 58, 95
9, 151200, Note_off_c, 2, 58, 95
9, 151200, Note_off_c, 2, 62, 95
9, 151200, Note_off_c, 2, 68, 95
9, 151200, Note_off_c, 2, 70, 95
9, 151440, Note_on_c, 2, 70, 95
9, 151440, Note_on_c, 2, 68, 95
9, 151440, Note_on_c, 2, 62, 95
9, 151440, Note_on_c, 2, 58, 95
9, 151680, Note_off_c, 2, 58, 95
9, 151680, Note_off_c, 2, 62, 95
9, 151680, Note_off_c, 2, 68, 95
9, 151680, Note_off_c, 2, 70, 95
9, 151920, Note_on_c, 2, 70, 95
9, 151920, Note_on_c, 2, 68, 95
9, 151920, Note_on_c, 2, 62, 95
9, 151920, Note_on_c, 2, 58, 95
9, 152160, Note_off_c, 2, 58, 95
9, 152160, Note_off_c, 2, 62, 95
9, 152160, Note_off_c, 2, 68, 95
9, 152160, Note_off_c, 2, 70, 95
9, 152400, Note_on_c, 2, 68, 95
9, 152400, Note_on_c, 2, 63, 95
9, 152400, Note_on_c, 2, 60, 95
9, 152400, Note_on_c, 2, 56, 95
9, 152400, Note_on_c, 2, 51, 95
9, 152640, Note_off_c, 2, 51, 95
9, 152640, Note_off_c, 2, 56, 95
9, 152640, Note_off_c, 2, 60, 95
9, 152640, Note_off_c, 2, 63, 95
9, 152640, Note_off_c, 2, 68, 95
9, 152640, Note_on_c, 2, 68, 95
9, 152640, Note_on_c, 2, 63, 95
9, 152640, Note_on_c, 2, 60, 95
9, 152640, Note_on_c, 2, 56, 95
9, 152640, Note_on_c, 2, 51, 95
9, 152880, Note_off_c, 2, 51, 95
9, 152880, Note_off_c, 2, 56, 95
9, 152880, Note_off_c, 2, 60, 95
9, 152880, Note_off_c, 2, 63, 95
9, 152880, Note_off_c, 2, 68, 95
9, 152880, Note_on_c, 2, 67, 95
9, 152880, Note_on_c, 2, 63, 95
9, 152880, Note_on_c, 2, 58, 95
9, 152880, Note_on_c, 2, 51, 95
9, 153120, Note_off_c, 2, 51, 95
9, 153120, Note_off_c, 2, 58, 95
9, 153120, Note_off_c, 2, 63, 95
9, 153120, Note_off_c, 2, 67, 95
9, 153120, Note_on_c, 2, 67, 95
9, 153120, Note_on_c, 2, 63, 95
9, 153120, Note_on_c, 2, 58, 95
9, 153120, Note_on_c, 2, 51, 95
9, 153360, Note_off_c, 2, 51, 95
9, 153360, Note_off_c, 2, 58, 95
9, 153360, Note_off_c, 2, 63, 95
9, 153360, Note_off_c, 2, 67, 95
9, 153360, Note_on_c, 2, 62, 47
9, 153360, Note_on_c, 2, 58, 47
9, 153360, Note_on_c, 2, 53, 47
9, 153600, Note_off_c, 2, 53, 47
9, 153600, Note_off_c, 2, 58, 47
9, 153600, Note_off_c, 2, 62, 47
9, 153600, Note_on_c, 2, 62, 95
9, 153600, Note_on_c, 2, 58, 95
9, 153600, Note_on_c, 2, 53, 95
9, 153600, Note_on_c, 2, 46, 95
9, 154080, Note_off_c, 2, 46, 95
9, 154080, Note_off_c, 2, 53, 95
9, 154080, Note_off_c, 2, 58, 95
9, 154080, Note_off_c, 2, 62, 95
9, 154080, Note_on_c, 2, 70, 95
9, 154080, Note_on_c, 2, 68, 95
9, 154080, Note_on_c, 2, 62, 95
9, 154080, Note_on_c, 2, 58, 95
9, 154320, Note_off_c, 2, 58, 95
9, 154320, Note_off_c, 2, 62, 95
9, 154320, Note_off_c, 2, 68, 95
9, 154320, Note_off_c, 2, 70, 95
9, 154560, Note_on_c, 2, 59, 95
9, 154560, Note_on_c, 2, 55, 95
9, 154560, Note_on_c, 2, 50, 95
9, 154608, Note_off_c, 2, 50, 95
9, 154608, Note_off_c, 2, 55, 95
9, 154608, Note_off_c, 2, 59, 95
9, 154800, Note_on_c, 2, 70, 95
9, 154800, Note_on_c, 2, 68, 95
9, 154800, Note_on_c, 2, 62, 95
9, 154800, Note_on_c, 2, 58, 95
9, 155040, Note_off_c, 2, 58, 95
9, 155040, Note_off_c, 2, 62, 95
9, 155040, Note_off_c, 2, 68, 95
9, 155040, Note_off_c, 2, 70, 95
9, 155280, Note_on_c, 2, 70, 95
9, 155280, Note_on_c, 2, 68, 95
9, 155280, Note_on_c, 2, 62, 95
9, 155280, Note_on_c, 2, 58, 95
9, 155520, Note_off_c, 2, 58, 95
9, 155520, Note_off_c, 2, 62, 95
9, 155520, Note_off_c, 2, 68, 95
9, 155520, Note_off_c, 2, 70, 95
9, 155760, Note_on_c, 2, 70, 95
9, 155760, Note_on_c, 2, 68, 95
9, 155760, Note_on_c, 2, 62, 95
9, 155760, Note_on_c, 2, 58, 95
9, 156000, Note_off_c, 2, 58, 95
9, 156000, Note_off_c, 2, 62, 95
9, 156000, Note_off_c, 2, 68, 95
9, 156000, Note_off_c, 2, 70, 95
9, 156240, Note_on_c, 2, 68, 95
9, 156240, Note_on_c, 2, 63, 95
9, 156240, Note_on_c, 2, 60, 95
9, 156240, Note_on_c, 2, 56, 95
9, 156240, Note_on_c, 2, 51, 95
9, 156480, Note_off_c, 2, 51, 95
9, 156480, Note_off_c, 2, 56, 95
9, 156480, Note_off_c, 2, 60, 95
9, 156480, Note_off_c, 2, 63, 95
9, 156480, Note_off_c, 2, 68, 95
9, 156480, Note_on_c, 2, 68, 95
9, 156480, Note_on_c, 2, 63, 95
9, 156480, Note_on_c, 2, 60, 95
9, 156480, Note_on_c, 2, 56, 95
9, 156480, Note_on_c, 2, 51, 95
9, 156720, Note_off_c, 2, 51, 95
9, 156720, Note_off_c, 2, 56, 95
9, 156720, Note_off_c, 2, 60, 95
9, 156720, Note_off_c, 2, 63, 95
9, 156720, Note_off_c, 2, 68, 95
9, 156720, Note_on_c, 2, 67, 95
9, 156720, Note_on_c, 2, 63, 95
9, 156720, Note_on_c, 2, 58, 95
9, 156720, Note_on_c, 2, 51, 95
9, 156960, Note_off_c, 2, 51, 95
9, 156960, Note_off_c, 2, 58, 95
9, 156960, Note_off_c, 2, 63, 95
9, 156960, Note_off_c, 2, 67, 95
9, 156960, Note_on_c, 2, 67, 95
9, 156960, Note_on_c, 2, 63, 95
9, 156960, Note_on_c, 2, 58, 95
9, 156960, Note_on_c, 2, 51, 95
9, 157200, Note_off_c, 2, 51, 95
9, 157200, Note_off_c, 2, 58, 95
9, 157200, Note_off_c, 2, 63, 95
9, 157200, Note_off_c, 2, 67, 95
9, 157200, Note_on_c, 2, 62, 47
9, 157200, Note_on_c, 2, 58, 47
9, 157200, Note_on_c, 2, 53, 47
9, 157440, Note_off_c, 2, 53, 47
9, 157440, Note_off_c, 2, 58, 47
9, 157440, Note_off_c, 2, 62, 47
9, 157440, Note_on_c, 2, 62, 95
9, 157440, Note_on_c, 2, 58, 95
9, 157440, Note_on_c, 2, 53, 95
9, 157440, Note_on_c, 2, 46, 95
9, 157920, Note_off_c, 2, 46, 95
9, 157920, Note_off_c, 2, 53, 95
9, 157920, Note_off_c, 2, 58, 95
9, 157920, Note_off_c, 2, 62, 95
9, 157920, Note_on_c, 2, 70, 95
9, 157920, Note_on_c, 2, 68, 95
9, 157920, Note_on_c, 2, 62, 95
9, 157920, Note_on_c, 2, 58, 95
9, 158160, Note_off_c, 2, 58, 95
9, 158160, Note_off_c, 2, 62, 95
9, 158160, Note_off_c, 2, 68, 95
9, 158160, Note_off_c, 2, 70, 95
9, 158400, Note_on_c, 2, 59, 95
9, 158400, Note_on_c, 2, 55, 95
9, 158400, Note_on_c, 2, 50, 95
9, 158448, Note_off_c, 2, 50, 95
9, 158448, Note_off_c, 2, 55, 95
9, 158448, Note_off_c, 2, 59, 95
9, 158640, Note_on_c, 2, 70, 95
9, 158640, Note_on_c, 2, 68, 95
9, 158640, Note_on_c, 2, 62, 95
9, 158640, Note_on_c, 2, 58, 95
9, 158880, Note_off_c, 2, 58, 95
9, 158880, Note_off_c, 2, 62, 95
9, 158880, Note_off_c, 2, 68, 95
9, 158880, Note_off_c, 2, 70, 95
9, 159120, Note_on_c, 2, 70, 95
9, 159120, Note_on_c, 2, 68, 95
9, 159120, Note_on_c, 2, 62, 95
9, 159120, Note_on_c, 2, 58, 95
9, 159360, Note_off_c, 2, 58, 95
9, 159360, Note_off_c, 2, 62, 95
9, 159360, Note_off_c, 2, 68, 95
9, 159360, Note_off_c, 2, 70, 95
9, 159600, Note_on_c, 2, 70, 95
9, 159600, Note_on_c, 2, 68, 95
9, 159600, Note_on_c, 2, 62, 95
9, 159600, Note_on_c, 2, 58, 95
9, 159840, Note_off_c, 2, 58, 95
9, 159840, Note_off_c, 2, 62, 95
9, 159840, Note_off_c, 2, 68, 95
9, 159840, Note_off_c, 2, 70, 95
9, 160080, Note_on_c, 2, 68, 95
9, 160080, Note_on_c, 2, 63, 95
9, 160080, Note_on_c, 2, 60, 95
9, 160080, Note_on_c, 2, 56, 95
9, 160080, Note_on_c, 2, 51, 95
9, 160320, Note_off_c, 2, 51, 95
9, 160320, Note_off_c, 2, 56, 95
9, 160320, Note_off_c, 2, 60, 95
9, 160320, Note_off_c, 2, 63, 95
9, 160320, Note_off_c, 2, 68, 95
9, 160320, Note_on_c, 2, 68, 95
9, 160320, Note_on_c, 2, 63, 95
9, 160320, Note_on_c, 2, 60, 95
9, 160320, Note_on_c, 2, 56, 95
9, 160320, Note_on_c, 2, 51, 95
9, 160560, Note_off_c, 2, 51, 95
9, 160560, Note_off_c, 2, 56, 95
9, 160560, Note_off_c, 2, 60, 95
9, 160560, Note_off_c, 2, 63, 95
9, 160560, Note_off_c, 2, 68, 95
9, 160560, Note_on_c, 2, 67, 95
9, 160560, Note_on_c, 2, 63, 95
9, 160560, Note_on_c, 2, 58, 95
9, 160560, Note_on_c, 2, 51, 95
9, 160800, Note_off_c, 2, 51, 95
9, 160800, Note_off_c, 2, 58, 95
9, 160800, Note_off_c, 2, 63, 95
9, 160800, Note_off_c, 2, 67, 95
9, 160800, Note_on_c, 2, 67, 95
9, 160800, Note_on_c, 2, 63, 95
9, 160800, Note_on_c, 2, 58, 95
9, 160800, Note_on_c, 2, 51, 95
9, 161040, Note_off_c, 2, 51, 95
9, 161040, Note_off_c, 2, 58, 95
9, 161040, Note_off_c, 2, 63, 95
9, 161040, Note_off_c, 2, 67, 95
9, 161040, Note_on_c, 2, 62, 47
9, 161040, Note_on_c, 2, 58, 47
9, 161040, Note_on_c, 2, 53, 47
9, 161280, Note_off_c, 2, 53, 47
9, 161280, Note_off_c, 2, 58, 47
9, 161280, Note_off_c, 2, 62, 47
9, 161280, Note_on_c, 2, 60, 95
9, 161280, Note_on_c, 2, 53, 95
9, 161280, Note_on_c, 2, 48, 95
9, 161760, Note_off_c, 2, 48, 95
9, 161760, Note_off_c, 2, 53, 95
9, 161760, Note_off_c, 2, 60, 95
9, 161760, Note_on_c, 2, 72, 95
9, 161760, Note_on_c, 2, 69, 95
9, 161760, Note_on_c, 2, 63, 95
9, 161760, Note_on_c, 2, 60, 95
9, 162000, Note_off_c, 2, 60, 95
9, 162000, Note_off_c, 2, 63, 95
9, 162000, Note_off_c, 2, 69, 95
9, 162000, Note_off_c, 2, 72, 95
9, 162240, Note_on_c, 2, 69, 95
9, 162240, Note_on_c, 2, 63, 95
9, 162240, Note_on_c, 2, 60, 95
9, 162288, Note_off_c, 2, 60, 95
9, 162288, Note_off_c, 2, 63, 95
9, 162288, Note_off_c, 2, 69, 95
9, 162480, Note_on_c, 2, 72, 95
9, 162480, Note_on_c, 2, 69, 95
9, 162480, Note_on_c, 2, 63, 95
9, 162480, Note_on_c, 2, 60, 95
9, 162720, Note_off_c, 2, 60, 95
9, 162720, Note_off_c, 2, 63, 95
9, 162720, Note_off_c, 2, 69, 95
9, 162720, Note_off_c, 2, 72, 95
9, 162960, Note_on_c, 2, 72, 95
9, 162960, Note_on_c, 2, 69, 95
9, 162960, Note_on_c, 2, 63, 95
9, 162960, Note_on_c, 2, 60, 95
9, 163200, Note_off_c, 2, 60, 95
9, 163200, Note_off_c, 2, 63, 95
9, 163200, Note_off_c, 2, 69, 95
9, 163200, Note_off_c, 2, 72, 95
9, 163440, Note_on_c, 2, 72, 95
9, 163440, Note_on_c, 2, 69, 95
9, 163440, Note_on_c, 2, 63, 95
9, 163440, Note_on_c, 2, 60, 95
9, 163680, Note_off_c, 2, 60, 95
9, 163680, Note_off_c, 2, 63, 95
9, 163680, Note_off_c, 2, 69, 95
9, 163680, Note_off_c, 2, 72, 95
9, 163920, Note_on_c, 2, 69, 95
9, 163920, Note_on_c, 2, 63, 95
9, 163920, Note_on_c, 2, 60, 95
9, 163920, Note_on_c, 2, 53, 95
9, 164160, Note_off_c, 2, 53, 95
9, 164160, Note_off_c, 2, 60, 95
9, 164160, Note_off_c, 2, 63, 95
9, 164160, Note_off_c, 2, 69, 95
9, 164160, Note_on_c, 2, 69, 95
9, 164160, Note_on_c, 2, 63, 95
9, 164160, Note_on_c, 2, 60, 95
9, 164160, Note_on_c, 2, 53, 95
9, 164400, Note_off_c, 2, 53, 95
9, 164400, Note_off_c, 2, 60, 95
9, 164400, Note_off_c, 2, 63, 95
9, 164400, Note_off_c, 2, 69, 95
9, 164400, Note_on_c, 2, 69, 95
9, 164400, Note_on_c, 2, 63, 95
9, 164400, Note_on_c, 2, 60, 95
9, 164400, Note_on_c, 2, 53, 95
9, 164640, Note_off_c, 2, 53, 95
9, 164640, Note_off_c, 2, 60, 95
9, 164640, Note_off_c, 2, 63, 95
9, 164640, Note_off_c, 2, 69, 95
9, 164640, Note_on_c, 2, 69, 95
9, 164640, Note_on_c, 2, 63, 95
9, 164640, Note_on_c, 2, 60, 95
9, 164640, Note_on_c, 2, 53, 95
9, 164880, Note_off_c, 2, 53, 95
9, 164880, Note_off_c, 2, 60, 95
9, 164880, Note_off_c, 2, 63, 95
9, 164880, Note_off_c, 2, 69, 95
9, 164880, Note_on_c, 2, 63, 95
9, 164880, Note_on_c, 2, 60, 95
9, 164880, Note_on_c, 2, 53, 95
9, 165120, Note_off_c, 2, 53, 95
9, 165120, Note_off_c, 2, 60, 95
9, 165120, Note_off_c, 2, 63, 95
9, 165120, Note_on_c, 2, 60, 95
9, 165120, Note_on_c, 2, 53, 95
9, 165120, Note_on_c, 2, 48, 95
9, 165600, Note_off_c, 2, 48, 95
9, 165600, Note_off_c, 2, 53, 95
9, 165600, Note_off_c, 2, 60, 95
9, 165600, Note_on_c, 2, 72, 95
9, 165600, Note_on_c, 2, 69, 95
9, 165600, Note_on_c, 2, 63, 95
9, 165600, Note_on_c, 2, 60, 95
9, 165840, Note_off_c, 2, 60, 95
9, 165840, Note_off_c, 2, 63, 95
9, 165840, Note_off_c, 2, 69, 95
9, 165840, Note_off_c, 2, 72, 95
9, 166080, Note_on_c, 2, 69, 95
9, 166080, Note_on_c, 2, 63, 95
9, 166080, Note_on_c, 2, 60, 95
9, 166128, Note_off_c, 2, 60, 95
9, 166128, Note_off_c, 2, 63, 95
9, 166128, Note_off_c, 2, 69, 95
9, 166320, Note_on_c, 2, 72, 95
9, 166320, Note_on_c, 2, 69, 95
9, 166320, Note_on_c, 2, 63, 95
9, 166320, Note_on_c, 2, 60, 95
9, 166560, Note_off_c, 2, 60, 95
9, 166560, Note_off_c, 2, 63, 95
9, 166560, Note_off_c, 2, 69, 95
9, 166560, Note_off_c, 2, 72, 95
9, 166800, Note_on_c, 2, 72, 95
9, 166800, Note_on_c, 2, 69, 95
9, 166800, Note_on_c, 2, 63, 95
9, 166800, Note_on_c, 2, 60, 95
9, 167040, Note_off_c, 2, 60, 95
9, 167040, Note_off_c, 2, 63, 95
9, 167040, Note_off_c, 2, 69, 95
9, 167040, Note_off_c, 2, 72, 95
9, 167280, Note_on_c, 2, 72, 95
9, 167280, Note_on_c, 2, 69, 95
9, 167280, Note_on_c, 2, 63, 95
9, 167280, Note_on_c, 2, 60, 95
9, 167520, Note_off_c, 2, 60, 95
9, 167520, Note_off_c, 2, 63, 95
9, 167520, Note_off_c, 2, 69, 95
9, 167520, Note_off_c, 2, 72, 95
9, 167760, Note_on_c, 2, 69, 95
9, 167760, Note_on_c, 2, 63, 95
9, 167760, Note_on_c, 2, 60, 95
9, 167760, Note_on_c, 2, 53, 95
9, 168000, Note_off_c, 2, 53, 95
9, 168000, Note_off_c, 2, 60, 95
9, 168000, Note_off_c, 2, 63, 95
9, 168000, Note_off_c, 2, 69, 95
9, 168000, Note_on_c, 2, 69, 95
9, 168000, Note_on_c, 2, 63, 95
9, 168000, Note_on_c, 2, 60, 95
9, 168000, Note_on_c, 2, 53, 95
9, 168240, Note_off_c, 2, 53, 95
9, 168240, Note_off_c, 2, 60, 95
9, 168240, Note_off_c, 2, 63, 95
9, 168240, Note_off_c, 2, 69, 95
9, 168240, Note_on_c, 2, 69, 95
9, 168240, Note_on_c, 2, 63, 95
9, 168240, Note_on_c, 2, 60, 95
9, 168240, Note_on_c, 2, 53, 95
9, 168480, Note_off_c, 2, 53, 95
9, 168480, Note_off_c, 2, 60, 95
9, 168480, Note_off_c, 2, 63, 95
9, 168480, Note_off_c, 2, 69, 95
9, 168480, Note_on_c, 2, 69, 95
9, 168480, Note_on_c, 2, 63, 95
9, 168480, Note_on_c, 2, 60, 95
9, 168480, Note_on_c, 2, 53, 95
9, 168720, Note_off_c, 2, 53, 95
9, 168720, Note_off_c, 2, 60, 95
9, 168720, Note_off_c, 2, 63, 95
9, 168720, Note_off_c, 2, 69, 95
9, 168720, Note_on_c, 2, 63, 95
9, 168720, Note_on_c, 2, 60, 95
9, 168720, Note_on_c, 2, 53, 95
9, 168960, Note_off_c, 2, 53, 95
9, 168960, Note_off_c, 2, 60, 95
9, 168960, Note_off_c, 2, 63, 95
9, 168960, Note_on_c, 2, 69, 127
9, 168960, Note_on_c, 2, 63, 127
9, 168960, Note_on_c, 2, 60, 127
9, 168960, Note_on_c, 2, 53, 127
9, 168960, Note_on_c, 2, 48, 127
9, 169440, Note_off_c, 2, 48, 127
9, 169440, Note_off_c, 2, 53, 127
9, 169440, Note_off_c, 2, 60, 127
9, 169440, Note_off_c, 2, 63, 127
9, 169440, Note_off_c, 2, 69, 127
9, 176640, Note_on_c, 2, 63, 111
9, 176640, Note_on_c, 2, 60, 111
9, 176640, Note_on_c, 2, 56, 111
9, 176640, Note_on_c, 2, 51, 111
9, 176640, Note_on_c, 2, 44, 111
9, 177120, Note_off_c, 2, 44, 111
9, 177120, Note_off_c, 2, 51, 111
9, 177120, Note_off_c, 2, 56, 111
9, 177120, Note_off_c, 2, 60, 111
9, 177120, Note_off_c, 2, 63, 111
9, 177120, Note_on_c, 2, 59, 95
9, 177120, Note_on_c, 2, 55, 95
9, 177120, Note_on_c, 2, 50, 95
9, 177120, Note_on_c, 2, 45, 95
9, 177168, Note_off_c, 2, 45, 95
9, 177168, Note_off_c, 2, 50, 95
9, 177168, Note_off_c, 2, 55, 95
9, 177168, Note_off_c, 2, 59, 95
9, 177360, Note_on_c, 2, 63, 111
9, 177360, Note_on_c, 2, 58, 111
9, 177360, Note_on_c, 2, 55, 111
9, 177360, Note_on_c, 2, 51, 111
9, 177840, Note_off_c, 2, 51, 111
9, 177840, Note_off_c, 2, 55, 111
9, 177840, Note_off_c, 2, 58, 111
9, 177840, Note_off_c, 2, 63, 111
9, 177840, Note_on_c, 2, 58, 95
9, 177840, Note_on_c, 2, 55, 95
9, 177840, Note_on_c, 2, 51, 95
9, 178080, Note_off_c, 2, 51, 95
9, 178080, Note_off_c, 2, 55, 95
9, 178080, Note_off_c, 2, 58, 95
9, 178080, Note_on_c, 2, 65, 111
9, 178080, Note_on_c, 2, 62, 111
9, 178080, Note_on_c, 2, 58, 111
9, 178080, Note_on_c, 2, 53, 111
9, 178080, Note_on_c, 2, 46, 111
9, 180480, Note_off_c, 2, 46, 111
9, 180480, Note_off_c, 2, 53, 111
9, 180480, Note_off_c, 2, 58, 111
9, 180480, Note_off_c, 2, 62, 111
9, 180480, Note_off_c, 2, 65, 111
9, 180480, Note_on_c, 2, 63, 111
9, 180480, Note_on_c, 2, 60, 111
9, 180480, Note_on_c, 2, 56, 111
9, 180480, Note_on_c, 2, 51, 111
9, 180480, Note_on_c, 2, 44, 111
9, 180960, Note_off_c, 2, 44, 111
9, 180960, Note_off_c, 2, 51, 111
9, 180960, Note_off_c, 2, 56, 111
9, 180960, Note_off_c, 2, 60, 111
9, 180960, Note_off_c, 2, 63, 111
9, 180960, Note_on_c, 2, 59, 95
9, 180960, Note_on_c, 2, 55, 95
9, 180960, Note_on_c, 2, 50, 95
9, 180960, Note_on_c, 2, 45, 95
9, 181008, Note_off_c, 2, 45, 95
9, 181008, Note_off_c, 2, 50, 95
9, 181008, Note_off_c, 2, 55, 95
9, 181008, Note_off_c, 2, 59, 95
9, 181200, Note_on_c, 2, 63, 111
9, 181200, Note_on_c, 2, 58, 111
9, 181200, Note_on_c, 2, 55, 111
9, 181200, Note_on_c, 2, 51, 111
9, 181680, Note_off_c, 2, 51, 111
9, 181680, Note_off_c, 2, 55, 111
9, 181680, Note_off_c, 2, 58, 111
9, 181680, Note_off_c, 2, 63, 111
9, 181680, Note_on_c, 2, 58, 95
9, 181680, Note_on_c, 2, 55, 95
9, 181680, Note_on_c, 2, 51, 95
9, 181920, Note_off_c, 2, 51, 95
9, 181920, Note_off_c, 2, 55, 95
9, 181920, Note_off_c, 2, 58, 95
9, 181920, Note_on_c, 2, 65, 111
9, 181920, Note_on_c, 2, 62, 111
9, 181920, Note_on_c, 2, 58, 111
9, 181920, Note_on_c, 2, 53, 111
9, 181920, Note_on_c, 2, 46, 111
9, 184320, Note_off_c, 2, 46, 111
9, 184320, Note_off_c, 2, 53, 111
9, 184320, Note_off_c, 2, 58, 111
9, 184320, Note_off_c, 2, 62, 111
9, 184320, Note_off_c, 2, 65, 111
9, 184320, Note_on_c, 2, 63, 111
9, 184320, Note_on_c, 2, 60, 111
9, 184320, Note_on_c, 2, 56, 111
9, 184320, Note_on_c, 2, 51, 111
9, 184320, Note_on_c, 2, 44, 111
9, 184800, Note_off_c, 2, 44, 111
9, 184800, Note_off_c, 2, 51, 111
9, 184800, Note_off_c, 2, 56, 111
9, 184800, Note_off_c, 2, 60, 111
9, 184800, Note_off_c, 2, 63, 111
9, 184800, Note_on_c, 2, 59, 95
9, 184800, Note_on_c, 2, 55, 95
9, 184800, Note_on_c, 2, 50, 95
9, 184800, Note_on_c, 2, 45, 95
9, 184848, Note_off_c, 2, 45, 95
9, 184848, Note_off_c, 2, 50, 95
9, 184848, Note_off_c, 2, 55, 95
9, 184848, Note_off_c, 2, 59, 95
9, 185040, Note_on_c, 2, 63, 111
9, 185040, Note_on_c, 2, 58, 111
9, 185040, Note_on_c, 2, 55, 111
9, 185040, Note_on_c, 2, 51, 111
9, 185520, Note_off_c, 2, 51, 111
9, 185520, Note_off_c, 2, 55, 111
9, 185520, Note_off_c, 2, 58, 111
9, 185520, Note_off_c, 2, 63, 111
9, 185520, Note_on_c, 2, 58, 95
9, 185520, Note_on_c, 2, 55, 95
9, 185520, Note_on_c, 2, 51, 95
9, 185760, Note_off_c, 2, 51, 95
9, 185760, Note_off_c, 2, 55, 95
9, 185760, Note_off_c, 2, 58, 95
9, 185760, Note_on_c, 2, 65, 111
9, 185760, Note_on_c, 2, 62, 111
9, 185760, Note_on_c, 2, 58, 111
9, 185760, Note_on_c, 2, 53, 111
9, 185760, Note_on_c, 2, 46, 111
9, 188160, Note_off_c, 2, 46, 111
9, 188160, Note_off_c, 2, 53, 111
9, 188160, Note_off_c, 2, 58, 111
9, 188160, Note_off_c, 2, 62, 111
9, 188160, Note_off_c, 2, 65, 111
9, 188160, Note_on_c, 2, 63, 111
9, 188160, Note_on_c, 2, 60, 111
9, 188160, Note_on_c, 2, 56, 111
9, 188160, Note_on_c, 2, 51, 111
9, 188160, Note_on_c, 2, 44, 111
9, 188640, Note_off_c, 2, 44, 111
9, 188640, Note_off_c, 2, 51, 111
9, 188640, Note_off_c, 2, 56, 111
9, 188640, Note_off_c, 2, 60, 111
9, 188640, Note_off_c, 2, 63, 111
9, 188640, Note_on_c, 2, 59, 95
9, 188640, Note_on_c, 2, 55, 95
9, 188640, Note_on_c, 2, 50, 95
9, 188640, Note_on_c, 2, 45, 95
9, 188688, Note_off_c, 2, 45, 95
9, 188688, Note_off_c, 2, 50, 95
9, 188688, Note_off_c, 2, 55, 95
9, 188688, Note_off_c, 2, 59, 95
9, 188880, Note_on_c, 2, 63, 111
9, 188880, Note_on_c, 2, 58, 111
9, 188880, Note_on_c, 2, 55, 111
9, 188880, Note_on_c, 2, 51, 111
9, 189360, Note_off_c, 2, 51, 111
9, 189360, Note_off_c, 2, 55, 111
9, 189360, Note_off_c, 2, 58, 111
9, 189360, Note_off_c, 2, 63, 111
9, 189360, Note_on_c, 2, 58, 95
9, 189360, Note_on_c, 2, 55, 95
9, 189360, Note_on_c, 2, 51, 95
9, 189600, Note_off_c, 2, 51, 95
9, 189600, Note_off_c, 2, 55, 95
9, 189600, Note_off_c, 2, 58, 95
9, 189600, Note_on_c, 2, 65, 111
9, 189600, Note_on_c, 2, 62, 111
9, 189600, Note_on_c, 2, 58, 111
9, 189600, Note_on_c, 2, 53, 111
9, 189600, Note_on_c, 2, 46, 111
9, 192000, Note_off_c, 2, 46, 111
9, 192000, Note_off_c, 2, 53, 111
9, 192000, Note_off_c, 2, 58, 111
9, 192000, Note_off_c, 2, 62, 111
9, 192000, Note_off_c, 2, 65, 111
9, 192000, Note_on_c, 2, 62, 95
9, 192000, Note_on_c, 2, 58, 95
9, 192000, Note_on_c, 2, 53, 95
9, 192000, Note_on_c, 2, 46, 95
9, 192480, Note_off_c, 2, 46, 95
9, 192480, Note_off_c, 2, 53, 95
9, 192480, Note_off_c, 2, 58, 95
9, 192480, Note_off_c, 2, 62, 95
9, 192480, Note_on_c, 2, 70, 95
9, 192480, Note_on_c, 2, 68, 95
9, 192480, Note_on_c, 2, 62, 95
9, 192480, Note_on_c, 2, 58, 95
9, 192720, Note_off_c, 2, 58, 95
9, 192720, Note_off_c, 2, 62, 95
9, 192720, Note_off_c, 2, 68, 95
9, 192720, Note_off_c, 2, 70, 95
9, 192960, Note_on_c, 2, 59, 95
9, 192960, Note_on_c, 2, 55, 95
9, 192960, Note_on_c, 2, 50, 95
9, 193008, Note_off_c, 2, 50, 95
9, 193008, Note_off_c, 2, 55, 95
9, 193008, Note_off_c, 2, 59, 95
9, 193200, Note_on_c, 2, 70, 95
9, 193200, Note_on_c, 2, 68, 95
9, 193200, Note_on_c, 2, 62, 95
9, 193200, Note_on_c, 2, 58, 95
9, 193440, Note_off_c, 2, 58, 95
9, 193440, Note_off_c, 2, 62, 95
9, 193440, Note_off_c, 2, 68, 95
9, 193440, Note_off_c, 2, 70, 95
9, 193680, Note_on_c, 2, 70, 95
9, 193680, Note_on_c, 2, 68, 95
9, 193680, Note_on_c, 2, 62, 95
9, 193680, Note_on_c, 2, 58, 95
9, 193920, Note_off_c, 2, 58, 95
9, 193920, Note_off_c, 2, 62, 95
9, 193920, Note_off_c, 2, 68, 95
9, 193920, Note_off_c, 2, 70, 95
9, 194160, Note_on_c, 2, 70, 95
9, 194160, Note_on_c, 2, 68, 95
9, 194160, Note_on_c, 2, 62, 95
9, 194160, Note_on_c, 2, 58, 95
9, 194400, Note_off_c, 2, 58, 95
9, 194400, Note_off_c, 2, 62, 95
9, 194400, Note_off_c, 2, 68, 95
9, 194400, Note_off_c, 2, 70, 95
9, 194640, Note_on_c, 2, 68, 95
9, 194640, Note_on_c, 2, 63, 95
9, 194640, Note_on_c, 2, 60, 95
9, 194640, Note_on_c, 2, 56, 95
9, 194640, Note_on_c, 2, 51, 95
9, 194880, Note_off_c, 2, 51, 95
9, 194880, Note_off_c, 2, 56, 95
9, 194880, Note_off_c, 2, 60, 95
9, 194880, Note_off_c, 2, 63, 95
9, 194880, Note_off_c, 2, 68, 95
9, 194880, Note_on_c, 2, 68, 95
9, 194880, Note_on_c, 2, 63, 95
9, 194880, Note_on_c, 2, 60, 95
9, 194880, Note_on_c, 2, 56, 95
9, 194880, Note_on_c, 2, 51, 95
9, 195120, Note_off_c, 2, 51, 95
9, 195120, Note_off_c, 2, 56, 95
9, 195120, Note_off_c, 2, 60, 95
9, 195120, Note_off_c, 2, 63, 95
9, 195120, Note_off_c, 2, 68, 95
9, 195120, Note_on_c, 2, 67, 95
9, 195120, Note_on_c, 2, 63, 95
9, 195120, Note_on_c, 2, 58, 95
9, 195120, Note_on_c, 2, 51, 95
9, 195360, Note_off_c, 2, 51, 95
9, 195360, Note_off_c, 2, 58, 95
9, 195360, Note_off_c, 2, 63, 95
9, 195360, Note_off_c, 2, 67, 95
9, 195360, Note_on_c, 2, 67, 95
9, 195360, Note_on_c, 2, 63, 95
9, 195360, Note_on_c, 2, 58, 95
9, 195360, Note_on_c, 2, 51, 95
9, 195600, Note_off_c, 2, 51, 95
9, 195600, Note_off_c, 2, 58, 95
9, 195600, Note_off_c, 2, 63, 95
9, 195600, Note_off_c, 2, 67, 95
9, 195600, Note_on_c, 2, 62, 47
9, 195600, Note_on_c, 2, 58, 47
9, 195600, Note_on_c, 2, 53, 47
9, 195840, Note_off_c, 2, 53, 47
9, 195840, Note_off_c, 2, 58, 47
9, 195840, Note_off_c, 2, 62, 47
9, 195840, Note_on_c, 2, 62, 95
9, 195840, Note_on_c, 2, 58, 95
9, 195840, Note_on_c, 2, 53, 95
9, 195840, Note_on_c, 2, 46, 95
9, 196320, Note_off_c, 2, 46, 95
9, 196320, Note_off_c, 2, 53, 95
9, 196320, Note_off_c, 2, 58, 95
9, 196320, Note_off_c, 2, 62, 95
9, 196320, Note_on_c, 2, 70, 95
9, 196320, Note_on_c, 2, 68, 95
9, 196320, Note_on_c, 2, 62, 95
9, 196320, Note_on_c, 2, 58, 95
9, 196560, Note_off_c, 2, 58, 95
9, 196560, Note_off_c, 2, 62, 95
9, 196560, Note_off_c, 2, 68, 95
9, 196560, Note_off_c, 2, 70, 95
9, 196800, Note_on_c, 2, 59, 95
9, 196800, Note_on_c, 2, 55, 95
9, 196800, Note_on_c, 2, 50, 95
9, 196848, Note_off_c, 2, 50, 95
9, 196848, Note_off_c, 2, 55, 95
9, 196848, Note_off_c, 2, 59, 95
9, 197040, Note_on_c, 2, 70, 95
9, 197040, Note_on_c, 2, 68, 95
9, 197040, Note_on_c, 2, 62, 95
9, 197040, Note_on_c, 2, 58, 95
9, 197280, Note_off_c, 2, 58, 95
9, 197280, Note_off_c, 2, 62, 95
9, 197280, Note_off_c, 2, 68, 95
9, 197280, Note_off_c, 2, 70, 95
9, 197520, Note_on_c, 2, 70, 95
9, 197520, Note_on_c, 2, 68, 95
9, 197520, Note_on_c, 2, 62, 95
9, 197520, Note_on_c, 2, 58, 95
9, 197760, Note_off_c, 2, 58, 95
9, 197760, Note_off_c, 2, 62, 95
9, 197760, Note_off_c, 2, 68, 95
9, 197760, Note_off_c, 2, 70, 95
9, 198000, Note_on_c, 2, 70, 95
9, 198000, Note_on_c, 2, 68, 95
9, 198000, Note_on_c, 2, 62, 95
9, 198000, Note_on_c, 2, 58, 95
9, 198240, Note_off_c, 2, 58, 95
9, 198240, Note_off_c, 2, 62, 95
9, 198240, Note_off_c, 2, 68, 95
9, 198240, Note_off_c, 2, 70, 95
9, 198480, Note_on_c, 2, 68, 95
9, 198480, Note_on_c, 2, 63, 95
9, 198480, Note_on_c, 2, 60, 95
9, 198480, Note_on_c, 2, 56, 95
9, 198480, Note_on_c, 2, 51, 95
9, 198720, Note_off_c, 2, 51, 95
9, 198720, Note_off_c, 2, 56, 95
9, 198720, Note_off_c, 2, 60, 95
9, 198720, Note_off_c, 2, 63, 95
9, 198720, Note_off_c, 2, 68, 95
9, 198720, Note_on_c, 2, 68, 95
9, 198720, Note_on_c, 2, 63, 95
9, 198720, Note_on_c, 2, 60, 95
9, 198720, Note_on_c, 2, 56, 95
9, 198720, Note_on_c, 2, 51, 95
9, 198960, Note_off_c, 2, 51, 95
9, 198960, Note_off_c, 2, 56, 95
9, 198960, Note_off_c, 2, 60, 95
9, 198960, Note_off_c, 2, 63, 95
9, 198960, Note_off_c, 2, 68, 95
9, 198960, Note_on_c, 2, 67, 95
9, 198960, Note_on_c, 2, 63, 95
9, 198960, Note_on_c, 2, 58, 95
9, 198960, Note_on_c, 2, 51, 95
9, 199200, Note_off_c, 2, 51, 95
9, 199200, Note_off_c, 2, 58, 95
9, 199200, Note_off_c, 2, 63, 95
9, 199200, Note_off_c, 2, 67, 95
9, 199200, Note_on_c, 2, 67, 95
9, 199200, Note_on_c, 2, 63, 95
9, 199200, Note_on_c, 2, 58, 95
9, 199200, Note_on_c, 2, 51, 95
9, 199440, Note_off_c, 2, 51, 95
9, 199440, Note_off_c, 2, 58, 95
9, 199440, Note_off_c, 2, 63, 95
9, 199440, Note_off_c, 2, 67, 95
9, 199440, Note_on_c, 2, 62, 47
9, 199440, Note_on_c, 2, 58, 47
9, 199440, Note_on_c, 2, 53, 47
9, 199680, Note_off_c, 2, 53, 47
9, 199680, Note_off_c, 2, 58, 47
9, 199680, Note_off_c, 2, 62, 47
9, 199680, Note_on_c, 2, 62, 95
9, 199680, Note_on_c, 2, 58, 95
9, 199680, Note_on_c, 2, 53, 95
9, 199680, Note_on_c, 2, 46, 95
9, 200160, Note_off_c, 2, 46, 95
9, 200160, Note_off_c, 2, 53, 95
9, 200160, Note_off_c, 2, 58, 95
9, 200160, Note_off_c, 2, 62, 95
9, 200160, Note_on_c, 2, 70, 95
9, 200160, Note_on_c, 2, 68, 95
9, 200160, Note_on_c, 2, 62, 95
9, 200160, Note_on_c, 2, 58, 95
9, 200400, Note_off_c, 2, 58, 95
9, 200400, Note_off_c, 2, 62, 95
9, 200400, Note_off_c, 2, 68, 95
9, 200400, Note_off_c, 2, 70, 95
9, 200640, Note_on_c, 2, 59, 95
9, 200640, Note_on_c, 2, 55, 95
9, 200640, Note_on_c, 2, 50, 95
9, 200688, Note_off_c, 2, 50, 95
9, 200688, Note_off_c, 2, 55, 95
9, 200688, Note_off_c, 2, 59, 95
9, 200880, Note_on_c, 2, 70, 95
9, 200880, Note_on_c, 2, 68, 95
9, 200880, Note_on_c, 2, 62, 95
9, 200880, Note_on_c, 2, 58, 95
9, 201120, Note_off_c, 2, 58, 95
9, 201120, Note_off_c, 2, 62, 95
9, 201120, Note_off_c, 2, 68, 95
9, 201120, Note_off_c, 2, 70, 95
9, 201360, Note_on_c, 2, 70, 95
9, 201360, Note_on_c, 2, 68, 95
9, 201360, Note_on_c, 2, 62, 95
9, 201360, Note_on_c, 2, 58, 95
9, 201600, Note_off_c, 2, 58, 95
9, 201600, Note_off_c, 2, 62, 95
9, 201600, Note_off_c, 2, 68, 95
9, 201600, Note_off_c, 2, 70, 95
9, 201840, Note_on_c, 2, 70, 95
9, 201840, Note_on_c, 2, 68, 95
9, 201840, Note_on_c, 2, 62, 95
9, 201840, Note_on_c, 2, 58, 95
9, 202080, Note_off_c, 2, 58, 95
9, 202080, Note_off_c, 2, 62, 95
9, 202080, Note_off_c, 2, 68, 95
9, 202080, Note_off_c, 2, 70, 95
9, 202320, Note_on_c, 2, 68, 95
9, 202320, Note_on_c, 2, 63, 95
9, 202320, Note_on_c, 2, 60, 95
9, 202320, Note_on_c, 2, 56, 95
9, 202320, Note_on_c, 2, 51, 95
9, 202560, Note_off_c, 2, 51, 95
9, 202560, Note_off_c, 2, 56, 95
9, 202560, Note_off_c, 2, 60, 95
9, 202560, Note_off_c, 2, 63, 95
9, 202560, Note_off_c, 2, 68, 95
9, 202560, Note_on_c, 2, 68, 95
9, 202560, Note_on_c, 2, 63, 95
9, 202560, Note_on_c, 2, 60, 95
9, 202560, Note_on_c, 2, 56, 95
9, 202560, Note_on_c, 2, 51, 95
9, 202800, Note_off_c, 2, 51, 95
9, 202800, Note_off_c, 2, 56, 95
9, 202800, Note_off_c, 2, 60, 95
9, 202800, Note_off_c, 2, 63, 95
9, 202800, Note_off_c, 2, 68, 95
9, 202800, Note_on_c, 2, 67, 95
9, 202800, Note_on_c, 2, 63, 95
9, 202800, Note_on_c, 2, 58, 95
9, 202800, Note_on_c, 2, 51, 95
9, 203040, Note_off_c, 2, 51, 95
9, 203040, Note_off_c, 2, 58, 95
9, 203040, Note_off_c, 2, 63, 95
9, 203040, Note_off_c, 2, 67, 95
9, 203040, Note_on_c, 2, 67, 95
9, 203040, Note_on_c, 2, 63, 95
9, 203040, Note_on_c, 2, 58, 95
9, 203040, Note_on_c, 2, 51, 95
9, 203280, Note_off_c, 2, 51, 95
9, 203280, Note_off_c, 2, 58, 95
9, 203280, Note_off_c, 2, 63, 95
9, 203280, Note_off_c, 2, 67, 95
9, 203280, Note_on_c, 2, 62, 47
9, 203280, Note_on_c, 2, 58, 47
9, 203280, Note_on_c, 2, 53, 47
9, 203520, Note_off_c, 2, 53, 47
9, 203520, Note_off_c, 2, 58, 47
9, 203520, Note_off_c, 2, 62, 47
9, 203520, End_track
10, 0, Start_track
10, 0, Title_t, "Electric Guitar (muted)"
10, 0, Control_c, 3, 7, 71
10, 0, Sequencer_specific, 5, 5, 15, 9, 8, 64
10, 0, Sequencer_specific, 15, 5, 15, 6, 71, 101, 110, 101, 114, 97, 108, 32, 77, 73, 68, 73
10, 0, Key_signature, -2, "major"
10, 0, Program_c, 3, 28
10, 0, Control_c, 3, 6, 12
10, 0, Control_c, 3, 100, 0
10, 0, Control_c, 3, 101, 0
10, 60480, Note_on_c, 3, 67, 47
10, 60480, Note_on_c, 3, 63, 47
10, 60480, Note_on_c, 3, 58, 47
10, 60480, Note_on_c, 3, 55, 47
10, 60480, Note_on_c, 3, 51, 47
10, 60960, Note_off_c, 3, 51, 47
10, 60960, Note_off_c, 3, 55, 47
10, 60960, Note_off_c, 3, 58, 47
10, 60960, Note_off_c, 3, 63, 47
10, 60960, Note_off_c, 3, 67, 47
10, 203520, Note_on_c, 3, 62, 95
10, 203520, Note_on_c, 3, 58, 95
10, 203520, Note_on_c, 3, 53, 95
10, 203520, Note_on_c, 3, 46, 95
10, 204000, Note_off_c, 3, 46, 95
10, 204000, Note_off_c, 3, 53, 95
10, 204000, Note_off_c, 3, 58, 95
10, 204000, Note_off_c, 3, 62, 95
10, 204000, Note_on_c, 3, 70, 95
10, 204000, Note_on_c, 3, 68, 95
10, 204000, Note_on_c, 3, 62, 95
10, 204000, Note_on_c, 3, 58, 95
10, 204240, Note_off_c, 3, 58, 95
10, 204240, Note_off_c, 3, 62, 95
10, 204240, Note_off_c, 3, 68, 95
10, 204240, Note_off_c, 3, 70, 95
10, 204480, Note_on_c, 3, 59, 95
10, 204480, Note_on_c, 3, 55, 95
10, 204480, Note_on_c, 3, 50, 95
10, 204528, Note_off_c, 3, 50, 95
10, 204528, Note_off_c, 3, 55, 95
10, 204528, Note_off_c, 3, 59, 95
10, 204720, Note_on_c, 3, 70, 95
10, 204720, Note_on_c, 3, 68, 95
10, 204720, Note_on_c, 3, 62, 95
10, 204720, Note_on_c, 3, 58, 95
10, 204960, Note_off_c, 3, 58, 95
10, 204960, Note_off_c, 3, 62, 95
10, 204960, Note_off_c, 3, 68, 95
10, 204960, Note_off_c, 3, 70, 95
10, 205200, Note_on_c, 3, 70, 95
10, 205200, Note_on_c, 3, 68, 95
10, 205200, Note_on_c, 3, 62, 95
10, 205200, Note_on_c, 3, 58, 95
10, 205440, Note_off_c, 3, 58, 95
10, 205440, Note_off_c, 3, 62, 95
10, 205440, Note_off_c, 3, 68, 95
10, 205440, Note_off_c, 3, 70, 95
10, 205680, Note_on_c, 3, 70, 95
10, 205680, Note_on_c, 3, 68, 95
10, 205680, Note_on_c, 3, 62, 95
10, 205680, Note_on_c, 3, 58, 95
10, 205920, Note_off_c, 3, 58, 95
10, 205920, Note_off_c, 3, 62, 95
10, 205920, Note_off_c, 3, 68, 95
10, 205920, Note_off_c, 3, 70, 95
10, 206160, Note_on_c, 3, 68, 95
10, 206160, Note_on_c, 3, 63, 95
10, 206160, Note_on_c, 3, 60, 95
10, 206160, Note_on_c, 3, 56, 95
10, 206160, Note_on_c, 3, 51, 95
10, 206400, Note_off_c, 3, 51, 95
10, 206400, Note_off_c, 3, 56, 95
10, 206400, Note_off_c, 3, 60, 95
10, 206400, Note_off_c, 3, 63, 95
10, 206400, Note_off_c, 3, 68, 95
10, 206400, Note_on_c, 3, 68, 95
10, 206400, Note_on_c, 3, 63, 95
10, 206400, Note_on_c, 3, 60, 95
10, 206400, Note_on_c, 3, 56, 95
10, 206400, Note_on_c, 3, 51, 95
10, 206640, Note_off_c, 3, 51, 95
10, 206640, Note_off_c, 3, 56, 95
10, 206640, Note_off_c, 3, 60, 95
10, 206640, Note_off_c, 3, 63, 95
10, 206640, Note_off_c, 3, 68, 95
10, 206640, Note_on_c, 3, 67, 95
10, 206640, Note_on_c, 3, 63, 95
10, 206640, Note_on_c, 3, 58, 95
10, 206640, Note_on_c, 3, 51, 95
10, 206880, Note_off_c, 3, 51, 95
10, 206880, Note_off_c, 3, 58, 95
10, 206880, Note_off_c, 3, 63, 95
10, 206880, Note_off_c, 3, 67, 95
10, 206880, Note_on_c, 3, 67, 95
10, 206880, Note_on_c, 3, 63, 95
10, 206880, Note_on_c, 3, 58, 95
10, 206880, Note_on_c, 3, 51, 95
10, 207120, Note_off_c, 3, 51, 95
10, 207120, Note_off_c, 3, 58, 95
10, 207120, Note_off_c, 3, 63, 95
10, 207120, Note_off_c, 3, 67, 95
10, 207120, Note_on_c, 3, 62, 47
10, 207120, Note_on_c, 3, 58, 47
10, 207120, Note_on_c, 3, 53, 47
10, 207360, Note_off_c, 3, 53, 47
10, 207360, Note_off_c, 3, 58, 47
10, 207360, Note_off_c, 3, 62, 47
10, 207360, Note_on_c, 3, 62, 95
10, 207360, Note_on_c, 3, 58, 95
10, 207360, Note_on_c, 3, 53, 95
10, 207360, Note_on_c, 3, 46, 95
10, 207840, Note_off_c, 3, 46, 95
10, 207840, Note_off_c, 3, 53, 95
10, 207840, Note_off_c, 3, 58, 95
10, 207840, Note_off_c, 3, 62, 95
10, 207840, Note_on_c, 3, 70, 95
10, 207840, Note_on_c, 3, 68, 95
10, 207840, Note_on_c, 3, 62, 95
10, 207840, Note_on_c, 3, 58, 95
10, 208080, Note_off_c, 3, 58, 95
10, 208080, Note_off_c, 3, 62, 95
10, 208080, Note_off_c, 3, 68, 95
10, 208080, Note_off_c, 3, 70, 95
10, 208320, Note_on_c, 3, 59, 95
10, 208320, Note_on_c, 3, 55, 95
10, 208320, Note_on_c, 3, 50, 95
10, 208368, Note_off_c, 3, 50, 95
10, 208368, Note_off_c, 3, 55, 95
10, 208368, Note_off_c, 3, 59, 95
10, 208560, Note_on_c, 3, 70, 95
10, 208560, Note_on_c, 3, 68, 95
10, 208560, Note_on_c, 3, 62, 95
10, 208560, Note_on_c, 3, 58, 95
10, 208800, Note_off_c, 3, 58, 95
10, 208800, Note_off_c, 3, 62, 95
10, 208800, Note_off_c, 3, 68, 95
10, 208800, Note_off_c, 3, 70, 95
10, 209040, Note_on_c, 3, 70, 95
10, 209040, Note_on_c, 3, 68, 95
10, 209040, Note_on_c, 3, 62, 95
10, 209040, Note_on_c, 3, 58, 95
10, 209280, Note_off_c, 3, 58, 95
10, 209280, Note_off_c, 3, 62, 95
10, 209280, Note_off_c, 3, 68, 95
10, 209280, Note_off_c, 3, 70, 95
10, 209520, Note_on_c, 3, 70, 95
10, 209520, Note_on_c, 3, 68, 95
10, 209520, Note_on_c, 3, 62, 95
10, 209520, Note_on_c, 3, 58, 95
10, 209760, Note_off_c, 3, 58, 95
10, 209760, Note_off_c, 3, 62, 95
10, 209760, Note_off_c, 3, 68, 95
10, 209760, Note_off_c, 3, 70, 95
10, 210000, Note_on_c, 3, 68, 95
10, 210000, Note_on_c, 3, 63, 95
10, 210000, Note_on_c, 3, 60, 95
10, 210000, Note_on_c, 3, 56, 95
10, 210000, Note_on_c, 3, 51, 95
10, 210240, Note_off_c, 3, 51, 95
10, 210240, Note_off_c, 3, 56, 95
10, 210240, Note_off_c, 3, 60, 95
10, 210240, Note_off_c, 3, 63, 95
10, 210240, Note_off_c, 3, 68, 95
10, 210240, Note_on_c, 3, 68, 95
10, 210240, Note_on_c, 3, 63, 95
10, 210240, Note_on_c, 3, 60, 95
10, 210240, Note_on_c, 3, 56, 95
10, 210240, Note_on_c, 3, 51, 95
10, 210480, Note_off_c, 3, 51, 95
10, 210480, Note_off_c, 3, 56, 95
10, 210480, Note_off_c, 3, 60, 95
10, 210480, Note_off_c, 3, 63, 95
10, 210480, Note_off_c, 3, 68, 95
10, 210480, Note_on_c, 3, 67, 95
10, 210480, Note_on_c, 3, 63, 95
10, 210480, Note_on_c, 3, 58, 95
10, 210480, Note_on_c, 3, 51, 95
10, 210720, Note_off_c, 3, 51, 95
10, 210720, Note_off_c, 3, 58, 95
10, 210720, Note_off_c, 3, 63, 95
10, 210720, Note_off_c, 3, 67, 95
10, 210720, Note_on_c, 3, 67, 95
10, 210720, Note_on_c, 3, 63, 95
10, 210720, Note_on_c, 3, 58, 95
10, 210720, Note_on_c, 3, 51, 95
10, 210960, Note_off_c, 3, 51, 95
10, 210960, Note_off_c, 3, 58, 95
10, 210960, Note_off_c, 3, 63, 95
10, 210960, Note_off_c, 3, 67, 95
10, 210960, Note_on_c, 3, 62, 47
10, 210960, Note_on_c, 3, 58, 47
10, 210960, Note_on_c, 3, 53, 47
10, 211200, Note_off_c, 3, 53, 47
10, 211200, Note_off_c, 3, 58, 47
10, 211200, Note_off_c, 3, 62, 47
10, 215040, Sequencer_specific, 3, 5, 15, 10
10, 215040, End_track
11, 0, Start_track
11, 0, Title_t, "Brass Section"
11, 0, Control_c, 4, 7, 101
11, 0, Sequencer_specific, 5, 5, 15, 9, 8, 64
11, 0, Sequencer_specific, 15, 5, 15, 6, 71, 101, 110, 101, 114, 97, 108, 32, 77, 73, 68, 73
11, 0, Key_signature, -2, "major"
11, 0, Program_c, 4, 61
11, 0, Control_c, 4, 6, 12
11, 0, Control_c, 4, 100, 0
11, 0, Control_c, 4, 101, 0
11, 10080, Note_on_c, 4, 70, 95
11, 10080, Note_on_c, 4, 58, 95
11, 10320, Note_off_c, 4, 58, 95
11, 10320, Note_off_c, 4, 70, 95
11, 10320, Note_on_c, 4, 70, 95
11, 10320, Note_on_c, 4, 58, 95
11, 10560, Note_off_c, 4, 58, 95
11, 10560, Note_off_c, 4, 70, 95
11, 10560, Note_on_c, 4, 74, 95
11, 10560, Note_on_c, 4, 62, 95
11, 10800, Note_off_c, 4, 62, 95
11, 10800, Note_off_c, 4, 74, 95
11, 10800, Note_on_c, 4, 75, 95
11, 10800, Note_on_c, 4, 63, 95
11, 11280, Note_off_c, 4, 63, 95
11, 11280, Note_off_c, 4, 75, 95
11, 11280, Note_on_c, 4, 77, 95
11, 11280, Note_on_c, 4, 65, 95
11, 13440, Note_off_c, 4, 65, 95
11, 13440, Note_off_c, 4, 77, 95
11, 13920, Note_on_c, 4, 75, 95
11, 13920, Note_on_c, 4, 63, 95
11, 14160, Note_off_c, 4, 63, 95
11, 14160, Note_off_c, 4, 75, 95
11, 14160, Note_on_c, 4, 73, 95
11, 14160, Note_on_c, 4, 61, 95
11, 14400, Note_off_c, 4, 61, 95
11, 14400, Note_off_c, 4, 73, 95
11, 14400, Note_on_c, 4, 75, 95
11, 14400, Note_on_c, 4, 63, 95
11, 14640, Note_off_c, 4, 63, 95
11, 14640, Note_off_c, 4, 75, 95
11, 14640, Note_on_c, 4, 73, 95
11, 14640, Note_on_c, 4, 61, 95
11, 15360, Note_off_c, 4, 61, 95
11, 15360, Note_off_c, 4, 73, 95
11, 15360, Note_on_c, 4, 82, 95
11, 15360, Note_on_c, 4, 70, 95
11, 23040, Note_off_c, 4, 70, 95
11, 23040, Note_off_c, 4, 82, 95
11, 46080, Note_on_c, 4, 65, 95
11, 46080, Note_on_c, 4, 53, 95
11, 47520, Note_off_c, 4, 53, 95
11, 47520, Note_off_c, 4, 65, 95
11, 47760, Note_on_c, 4, 69, 95
11, 47760, Note_on_c, 4, 57, 95
11, 48000, Note_off_c, 4, 57, 95
11, 48000, Note_off_c, 4, 69, 95
11, 48240, Note_on_c, 4, 70, 95
11, 48240, Note_on_c, 4, 58, 95
11, 48480, Note_off_c, 4, 58, 95
11, 48480, Note_off_c, 4, 70, 95
11, 48720, Note_on_c, 4, 70, 95
11, 48720, Note_on_c, 4, 58, 95
11, 48960, Note_off_c, 4, 58, 95
11, 48960, Note_off_c, 4, 70, 95
11, 48960, Note_on_c, 4, 72, 70
11, 48960, Note_on_c, 4, 60, 95
11, 49440, Note_off_c, 4, 60, 95
11, 49440, Note_off_c, 4, 72, 70
11, 49920, Note_on_c, 4, 65, 95
11, 49920, Note_on_c, 4, 53, 95
11, 51360, Note_off_c, 4, 53, 95
11, 51360, Note_off_c, 4, 65, 95
11, 51600, Note_on_c, 4, 69, 95
11, 51600, Note_on_c, 4, 57, 95
11, 51840, Note_off_c, 4, 57, 95
11, 51840, Note_off_c, 4, 69, 95
11, 52080, Note_on_c, 4, 70, 95
11, 52080, Note_on_c, 4, 58, 95
11, 52320, Note_off_c, 4, 58, 95
11, 52320, Note_off_c, 4, 70, 95
11, 52560, Note_on_c, 4, 70, 95
11, 52560, Note_on_c, 4, 58, 95
11, 52800, Note_off_c, 4, 58, 95
11, 52800, Note_off_c, 4, 70, 95
11, 52800, Note_on_c, 4, 72, 70
11, 52800, Note_on_c, 4, 60, 95
11, 53280, Note_off_c, 4, 60, 95
11, 53280, Note_off_c, 4, 72, 70
11, 61920, Note_on_c, 4, 75, 95
11, 61920, Note_on_c, 4, 63, 95
11, 62160, Note_off_c, 4, 63, 95
11, 62160, Note_off_c, 4, 75, 95
11, 62160, Note_on_c, 4, 75, 95
11, 62160, Note_on_c, 4, 63, 95
11, 62400, Note_off_c, 4, 63, 95
11, 62400, Note_off_c, 4, 75, 95
11, 62640, Note_on_c, 4, 75, 95
11, 62640, Note_on_c, 4, 63, 95
11, 62880, Note_off_c, 4, 63, 95
11, 62880, Note_off_c, 4, 75, 95
11, 62880, Note_on_c, 4, 75, 95
11, 62880, Note_on_c, 4, 63, 95
11, 63120, Note_off_c, 4, 63, 95
11, 63120, Note_off_c, 4, 75, 95
11, 63600, Note_on_c, 4, 77, 95
11, 63600, Note_on_c, 4, 65, 95
11, 63840, Note_off_c, 4, 65, 95
11, 63840, Note_off_c, 4, 77, 95
11, 63840, Note_on_c, 4, 77, 95
11, 63840, Note_on_c, 4, 65, 95
11, 64080, Note_off_c, 4, 65, 95
11, 64080, Note_off_c, 4, 77, 95
11, 64080, Note_on_c, 4, 77, 95
11, 64080, Note_on_c, 4, 65, 95
11, 64320, Note_off_c, 4, 65, 95
11, 64320, Note_off_c, 4, 77, 95
11, 64560, Note_on_c, 4, 77, 95
11, 64560, Note_on_c, 4, 65, 95
11, 64800, Note_off_c, 4, 65, 95
11, 64800, Note_off_c, 4, 77, 95
11, 64800, Note_on_c, 4, 77, 95
11, 64800, Note_on_c, 4, 65, 95
11, 65040, Note_off_c, 4, 65, 95
11, 65040, Note_off_c, 4, 77, 95
11, 65280, Note_on_c, 4, 80, 95
11, 65280, Note_on_c, 4, 68, 95
11, 65760, Note_off_c, 4, 68, 95
11, 65760, Note_off_c, 4, 80, 95
11, 65760, Note_on_c, 4, 80, 95
11, 65760, Note_on_c, 4, 68, 95
11, 66000, Note_off_c, 4, 68, 95
11, 66000, Note_off_c, 4, 80, 95
11, 66000, Note_on_c, 4, 75, 95
11, 66000, Note_on_c, 4, 63, 95
11, 66240, Note_off_c, 4, 75, 95
11, 66480, Note_off_c, 4, 63, 95
11, 66480, Note_on_c, 4, 75, 95
11, 66480, Note_on_c, 4, 63, 95
11, 66720, Note_off_c, 4, 63, 95
11, 66720, Note_off_c, 4, 75, 95
11, 66720, Note_on_c, 4, 70, 95
11, 66720, Note_on_c, 4, 58, 95
11, 69120, Note_off_c, 4, 58, 95
11, 69120, Note_off_c, 4, 70, 95
11, 72960, Note_on_c, 4, 74, 95
11, 72960, Note_on_c, 4, 62, 95
11, 76800, Note_off_c, 4, 62, 95
11, 76800, Note_off_c, 4, 74, 95
11, 76800, Note_on_c, 4, 74, 95
11, 76800, Note_on_c, 4, 62, 95
11, 80640, Note_off_c, 4, 62, 95
11, 80640, Note_off_c, 4, 74, 95
11, 80640, Note_on_c, 4, 74, 95
11, 80640, Note_on_c, 4, 62, 95
11, 84480, Note_off_c, 4, 62, 95
11, 84480, Note_off_c, 4, 74, 95
11, 84480, Note_on_c, 4, 74, 95
11, 84480, Note_on_c, 4, 62, 95
11, 88320, Note_off_c, 4, 62, 95
11, 88320, Note_off_c, 4, 74, 95
11, 88320, Note_on_c, 4, 74, 95
11, 88320, Note_on_c, 4, 62, 95
11, 92160, Note_off_c, 4, 62, 95
11, 92160, Note_off_c, 4, 74, 95
11, 92160, Note_on_c, 4, 74, 95
11, 92160, Note_on_c, 4, 62, 95
11, 96000, Note_off_c, 4, 62, 95
11, 96000, Note_off_c, 4, 74, 95
11, 96000, Note_on_c, 4, 74, 95
11, 96000, Note_on_c, 4, 62, 95
11, 99840, Note_off_c, 4, 62, 95
11, 99840, Note_off_c, 4, 74, 95
11, 99840, Note_on_c, 4, 65, 95
11, 99840, Note_on_c, 4, 53, 95
11, 101280, Note_off_c, 4, 53, 95
11, 101280, Note_off_c, 4, 65, 95
11, 101520, Note_on_c, 4, 69, 95
11, 101520, Note_on_c, 4, 57, 95
11, 101760, Note_off_c, 4, 57, 95
11, 101760, Note_off_c, 4, 69, 95
11, 102000, Note_on_c, 4, 70, 95
11, 102000, Note_on_c, 4, 58, 95
11, 102240, Note_off_c, 4, 58, 95
11, 102240, Note_off_c, 4, 70, 95
11, 102480, Note_on_c, 4, 70, 95
11, 102480, Note_on_c, 4, 58, 95
11, 102720, Note_off_c, 4, 58, 95
11, 102720, Note_off_c, 4, 70, 95
11, 102720, Note_on_c, 4, 72, 70
11, 102720, Note_on_c, 4, 60, 95
11, 103200, Note_off_c, 4, 60, 95
11, 103200, Note_off_c, 4, 72, 70
11, 103680, Note_on_c, 4, 65, 95
11, 103680, Note_on_c, 4, 53, 95
11, 105120, Note_off_c, 4, 53, 95
11, 105120, Note_off_c, 4, 65, 95
11, 105360, Note_on_c, 4, 69, 95
11, 105360, Note_on_c, 4, 57, 95
11, 105600, Note_off_c, 4, 57, 95
11, 105600, Note_off_c, 4, 69, 95
11, 105840, Note_on_c, 4, 70, 95
11, 105840, Note_on_c, 4, 58, 95
11, 106080, Note_off_c, 4, 58, 95
11, 106080, Note_off_c, 4, 70, 95
11, 106320, Note_on_c, 4, 70, 95
11, 106320, Note_on_c, 4, 58, 95
11, 106560, Note_off_c, 4, 58, 95
11, 106560, Note_off_c, 4, 70, 95
11, 106560, Note_on_c, 4, 72, 70
11, 106560, Note_on_c, 4, 60, 95
11, 107040, Note_off_c, 4, 60, 95
11, 107040, Note_off_c, 4, 72, 70
11, 117600, Note_on_c, 4, 70, 95
11, 117600, Note_on_c, 4, 58, 95
11, 117840, Note_off_c, 4, 58, 95
11, 117840, Note_off_c, 4, 70, 95
11, 117840, Note_on_c, 4, 70, 95
11, 117840, Note_on_c, 4, 58, 95
11, 118080, Note_off_c, 4, 58, 95
11, 118080, Note_off_c, 4, 70, 95
11, 118080, Note_on_c, 4, 74, 95
11, 118080, Note_on_c, 4, 62, 95
11, 118320, Note_off_c, 4, 62, 95
11, 118320, Note_off_c, 4, 74, 95
11, 118320, Note_on_c, 4, 75, 95
11, 118320, Note_on_c, 4, 63, 95
11, 118800, Note_off_c, 4, 63, 95
11, 118800, Note_off_c, 4, 75, 95
11, 118800, Note_on_c, 4, 77, 95
11, 118800, Note_on_c, 4, 65, 95
11, 120960, Note_off_c, 4, 65, 95
11, 120960, Note_off_c, 4, 77, 95
11, 120960, Note_on_c, 4, 75, 95
11, 120960, Note_on_c, 4, 63, 95
11, 121200, Note_off_c, 4, 63, 95
11, 121200, Note_off_c, 4, 75, 95
11, 121200, Note_on_c, 4, 73, 95
11, 121200, Note_on_c, 4, 61, 95
11, 121440, Note_off_c, 4, 61, 95
11, 121440, Note_off_c, 4, 73, 95
11, 121440, Note_on_c, 4, 75, 95
11, 121440, Note_on_c, 4, 63, 95
11, 121680, Note_off_c, 4, 63, 95
11, 121680, Note_off_c, 4, 75, 95
11, 121680, Note_on_c, 4, 73, 95
11, 121680, Note_on_c, 4, 61, 95
11, 121920, Note_off_c, 4, 61, 95
11, 121920, Note_off_c, 4, 73, 95
11, 121920, Note_on_c, 4, 70, 95
11, 121920, Note_on_c, 4, 58, 95
11, 122160, Note_off_c, 4, 58, 95
11, 122160, Note_off_c, 4, 70, 95
11, 122160, Note_on_c, 4, 68, 95
11, 122160, Note_on_c, 4, 56, 95
11, 122400, Note_off_c, 4, 56, 95
11, 122400, Note_off_c, 4, 68, 95
11, 122400, Note_on_c, 4, 70, 95
11, 122400, Note_on_c, 4, 58, 95
11, 123840, Note_off_c, 4, 58, 95
11, 123840, Note_off_c, 4, 70, 95
11, 124320, Note_on_c, 4, 70, 95
11, 124320, Note_on_c, 4, 58, 95
11, 124560, Note_off_c, 4, 58, 95
11, 124560, Note_off_c, 4, 70, 95
11, 124560, Note_on_c, 4, 70, 95
11, 124560, Note_on_c, 4, 58, 95
11, 124800, Note_off_c, 4, 58, 95
11, 124800, Note_off_c, 4, 70, 95
11, 124800, Note_on_c, 4, 74, 95
11, 124800, Note_on_c, 4, 62, 95
11, 125040, Note_off_c, 4, 62, 95
11, 125040, Note_off_c, 4, 74, 95
11, 125040, Note_on_c, 4, 75, 95
11, 125040, Note_on_c, 4, 63, 95
11, 125520, Note_off_c, 4, 63, 95
11, 125520, Note_off_c, 4, 75, 95
11, 125520, Note_on_c, 4, 82, 95
11, 125520, Note_on_c, 4, 70, 95
11, 126720, Note_off_c, 4, 70, 95
11, 126720, Note_off_c, 4, 82, 95
11, 126720, Note_on_c, 4, 80, 95
11, 126720, Note_on_c, 4, 68, 95
11, 127440, Note_off_c, 4, 68, 95
11, 127440, Note_off_c, 4, 80, 95
11, 127440, Note_on_c, 4, 75, 95
11, 127440, Note_on_c, 4, 63, 95
11, 128160, Note_off_c, 4, 63, 95
11, 128160, Note_off_c, 4, 75, 95
11, 128160, Note_on_c, 4, 70, 95
11, 128160, Note_on_c, 4, 58, 95
11, 128640, Note_off_c, 4, 58, 95
11, 129600, Note_off_c, 4, 70, 95
11, 134400, Note_on_c, 4, 74, 95
11, 134400, Note_on_c, 4, 62, 95
11, 138240, Note_off_c, 4, 62, 95
11, 138240, Note_off_c, 4, 74, 95
11, 138240, Note_on_c, 4, 74, 95
11, 138240, Note_on_c, 4, 62, 95
11, 142080, Note_off_c, 4, 62, 95
11, 142080, Note_off_c, 4, 74, 95
11, 142080, Note_on_c, 4, 74, 95
11, 142080, Note_on_c, 4, 62, 95
11, 145920, Note_off_c, 4, 62, 95
11, 145920, Note_off_c, 4, 74, 95
11, 145920, Note_on_c, 4, 74, 95
11, 145920, Note_on_c, 4, 62, 95
11, 149760, Note_off_c, 4, 62, 95
11, 149760, Note_off_c, 4, 74, 95
11, 149760, Note_on_c, 4, 74, 95
11, 149760, Note_on_c, 4, 62, 95
11, 153600, Note_off_c, 4, 62, 95
11, 153600, Note_off_c, 4, 74, 95
11, 153600, Note_on_c, 4, 74, 95
11, 153600, Note_on_c, 4, 62, 95
11, 157440, Note_off_c, 4, 62, 95
11, 157440, Note_off_c, 4, 74, 95
11, 157440, Note_on_c, 4, 74, 95
11, 157440, Note_on_c, 4, 62, 95
11, 161280, Note_off_c, 4, 62, 95
11, 161280, Note_off_c, 4, 74, 95
11, 161280, Note_on_c, 4, 65, 95
11, 161280, Note_on_c, 4, 53, 95
11, 162720, Note_off_c, 4, 53, 95
11, 162720, Note_off_c, 4, 65, 95
11, 162960, Note_on_c, 4, 69, 95
11, 162960, Note_on_c, 4, 57, 95
11, 163200, Note_off_c, 4, 57, 95
11, 163200, Note_off_c, 4, 69, 95
11, 163440, Note_on_c, 4, 70, 95
11, 163440, Note_on_c, 4, 58, 95
11, 163680, Note_off_c, 4, 58, 95
11, 163680, Note_off_c, 4, 70, 95
11, 163920, Note_on_c, 4, 70, 95
11, 163920, Note_on_c, 4, 58, 95
11, 164160, Note_off_c, 4, 58, 95
11, 164160, Note_off_c, 4, 70, 95
11, 164160, Note_on_c, 4, 72, 70
11, 164160, Note_on_c, 4, 60, 95
11, 164640, Note_off_c, 4, 60, 95
11, 164640, Note_off_c, 4, 72, 70
11, 165120, Note_on_c, 4, 65, 95
11, 165120, Note_on_c, 4, 53, 95
11, 166560, Note_off_c, 4, 53, 95
11, 166560, Note_off_c, 4, 65, 95
11, 166800, Note_on_c, 4, 69, 95
11, 166800, Note_on_c, 4, 57, 95
11, 167040, Note_off_c, 4, 57, 95
11, 167040, Note_off_c, 4, 69, 95
11, 167280, Note_on_c, 4, 70, 95
11, 167280, Note_on_c, 4, 58, 95
11, 167520, Note_off_c, 4, 58, 95
11, 167520, Note_off_c, 4, 70, 95
11, 167760, Note_on_c, 4, 70, 95
11, 167760, Note_on_c, 4, 58, 95
11, 168000, Note_off_c, 4, 58, 95
11, 168000, Note_off_c, 4, 70, 95
11, 168000, Note_on_c, 4, 72, 70
11, 168000, Note_on_c, 4, 60, 95
11, 168480, Note_off_c, 4, 60, 95
11, 168480, Note_off_c, 4, 72, 70
11, 179040, Note_on_c, 4, 70, 95
11, 179040, Note_on_c, 4, 58, 95
11, 179280, Note_off_c, 4, 58, 95
11, 179280, Note_off_c, 4, 70, 95
11, 179280, Note_on_c, 4, 70, 95
11, 179280, Note_on_c, 4, 58, 95
11, 179520, Note_off_c, 4, 58, 95
11, 179520, Note_off_c, 4, 70, 95
11, 179520, Note_on_c, 4, 74, 95
11, 179520, Note_on_c, 4, 62, 95
11, 179760, Note_off_c, 4, 62, 95
11, 179760, Note_off_c, 4, 74, 95
11, 179760, Note_on_c, 4, 75, 95
11, 179760, Note_on_c, 4, 63, 95
11, 180240, Note_off_c, 4, 63, 95
11, 180240, Note_off_c, 4, 75, 95
11, 180240, Note_on_c, 4, 77, 95
11, 180240, Note_on_c, 4, 65, 95
11, 182400, Note_off_c, 4, 65, 95
11, 182400, Note_off_c, 4, 77, 95
11, 182400, Note_on_c, 4, 75, 95
11, 182400, Note_on_c, 4, 63, 95
11, 182640, Note_off_c, 4, 63, 95
11, 182640, Note_off_c, 4, 75, 95
11, 182640, Note_on_c, 4, 73, 95
11, 182640, Note_on_c, 4, 61, 95
11, 182880, Note_off_c, 4, 61, 95
11, 182880, Note_off_c, 4, 73, 95
11, 182880, Note_on_c, 4, 75, 95
11, 182880, Note_on_c, 4, 63, 95
11, 183120, Note_off_c, 4, 63, 95
11, 183120, Note_off_c, 4, 75, 95
11, 183120, Note_on_c, 4, 73, 95
11, 183120, Note_on_c, 4, 61, 95
11, 183360, Note_off_c, 4, 61, 95
11, 183360, Note_off_c, 4, 73, 95
11, 183360, Note_on_c, 4, 70, 95
11, 183360, Note_on_c, 4, 58, 95
11, 183600, Note_off_c, 4, 58, 95
11, 183600, Note_off_c, 4, 70, 95
11, 183600, Note_on_c, 4, 68, 95
11, 183600, Note_on_c, 4, 56, 95
11, 183840, Note_off_c, 4, 56, 95
11, 183840, Note_off_c, 4, 68, 95
11, 183840, Note_on_c, 4, 70, 95
11, 183840, Note_on_c, 4, 58, 95
11, 185280, Note_off_c, 4, 58, 95
11, 185280, Note_off_c, 4, 70, 95
11, 185760, Note_on_c, 4, 70, 95
11, 185760, Note_on_c, 4, 58, 95
11, 186000, Note_off_c, 4, 58, 95
11, 186000, Note_off_c, 4, 70, 95
11, 186000, Note_on_c, 4, 70, 95
11, 186000, Note_on_c, 4, 58, 95
11, 186240, Note_off_c, 4, 58, 95
11, 186240, Note_off_c, 4, 70, 95
11, 186240, Note_on_c, 4, 74, 95
11, 186240, Note_on_c, 4, 62, 95
11, 186480, Note_off_c, 4, 62, 95
11, 186480, Note_off_c, 4, 74, 95
11, 186480, Note_on_c, 4, 75, 95
11, 186480, Note_on_c, 4, 63, 95
11, 186960, Note_off_c, 4, 63, 95
11, 186960, Note_off_c, 4, 75, 95
11, 186960, Note_on_c, 4, 82, 95
11, 186960, Note_on_c, 4, 70, 95
11, 188160, Note_off_c, 4, 70, 95
11, 188160, Note_off_c, 4, 82, 95
11, 188160, Note_on_c, 4, 80, 95
11, 188160, Note_on_c, 4, 68, 95
11, 188880, Note_off_c, 4, 68, 95
11, 188880, Note_off_c, 4, 80, 95
11, 188880, Note_on_c, 4, 75, 95
11, 188880, Note_on_c, 4, 63, 95
11, 189600, Note_off_c, 4, 63, 95
11, 189600, Note_off_c, 4, 75, 95
11, 189600, Note_on_c, 4, 70, 95
11, 189600, Note_on_c, 4, 58, 95
11, 190080, Note_off_c, 4, 58, 95
11, 191040, Note_off_c, 4, 70, 95
11, 192000, Note_on_c, 4, 70, 95
11, 192000, Note_on_c, 4, 58, 95
11, 192240, Note_off_c, 4, 58, 95
11, 192240, Note_off_c, 4, 70, 95
11, 192240, Note_on_c, 4, 70, 95
11, 192240, Note_on_c, 4, 58, 95
11, 192480, Note_off_c, 4, 58, 95
11, 192480, Note_off_c, 4, 70, 95
11, 192480, Note_on_c, 4, 70, 95
11, 192480, Note_on_c, 4, 58, 95
11, 192720, Note_off_c, 4, 58, 95
11, 192720, Note_off_c, 4, 70, 95
11, 192720, Note_on_c, 4, 70, 95
11, 192720, Note_on_c, 4, 58, 95
11, 192960, Note_off_c, 4, 58, 95
11, 192960, Note_off_c, 4, 70, 95
11, 193200, Note_on_c, 4, 70, 95
11, 193200, Note_on_c, 4, 58, 95
11, 193440, Note_off_c, 4, 58, 95
11, 193440, Note_off_c, 4, 70, 95
11, 193440, Note_on_c, 4, 70, 95
11, 193440, Note_on_c, 4, 58, 95
11, 193680, Note_off_c, 4, 58, 95
11, 193680, Note_off_c, 4, 70, 95
11, 193680, Note_on_c, 4, 70, 95
11, 193680, Note_on_c, 4, 58, 95
11, 193920, Note_off_c, 4, 58, 95
11, 193920, Note_off_c, 4, 70, 95
11, 194160, Note_on_c, 4, 70, 95
11, 194160, Note_on_c, 4, 58, 95
11, 194400, Note_off_c, 4, 58, 95
11, 194400, Note_off_c, 4, 70, 95
11, 194400, Note_on_c, 4, 70, 95
11, 194400, Note_on_c, 4, 58, 95
11, 194640, Note_off_c, 4, 58, 95
11, 194640, Note_off_c, 4, 70, 95
11, 194640, Note_on_c, 4, 70, 95
11, 194640, Note_on_c, 4, 58, 95
11, 194880, Note_off_c, 4, 58, 95
11, 195360, Note_off_c, 4, 70, 95
11, 195840, Note_on_c, 4, 70, 95
11, 195840, Note_on_c, 4, 58, 95
11, 196080, Note_off_c, 4, 58, 95
11, 196080, Note_off_c, 4, 70, 95
11, 196080, Note_on_c, 4, 70, 95
11, 196080, Note_on_c, 4, 58, 95
11, 196320, Note_off_c, 4, 58, 95
11, 196320, Note_off_c, 4, 70, 95
11, 196320, Note_on_c, 4, 70, 95
11, 196320, Note_on_c, 4, 58, 95
11, 196560, Note_off_c, 4, 58, 95
11, 196560, Note_off_c, 4, 70, 95
11, 196560, Note_on_c, 4, 70, 95
11, 196560, Note_on_c, 4, 58, 95
11, 196800, Note_off_c, 4, 58, 95
11, 196800, Note_off_c, 4, 70, 95
11, 197040, Note_on_c, 4, 70, 95
11, 197040, Note_on_c, 4, 58, 95
11, 197280, Note_off_c, 4, 58, 95
11, 197280, Note_off_c, 4, 70, 95
11, 197280, Note_on_c, 4, 70, 95
11, 197280, Note_on_c, 4, 58, 95
11, 197520, Note_off_c, 4, 58, 95
11, 197520, Note_off_c, 4, 70, 95
11, 197520, Note_on_c, 4, 70, 95
11, 197520, Note_on_c, 4, 58, 95
11, 197760, Note_off_c, 4, 58, 95
11, 197760, Note_off_c, 4, 70, 95
11, 198000, Note_on_c, 4, 70, 47
11, 198000, Note_on_c, 4, 58, 47
11, 198240, Note_off_c, 4, 58, 47
11, 198240, Note_off_c, 4, 70, 47
11, 198240, Note_on_c, 4, 70, 95
11, 198240, Note_on_c, 4, 58, 95
11, 198480, Note_off_c, 4, 58, 95
11, 198480, Note_off_c, 4, 70, 95
11, 198480, Note_on_c, 4, 70, 95
11, 198480, Note_on_c, 4, 58, 95
11, 199200, Note_off_c, 4, 58, 95
11, 199200, Note_off_c, 4, 70, 95
11, 199680, Note_on_c, 4, 70, 95
11, 199680, Note_on_c, 4, 58, 95
11, 199920, Note_off_c, 4, 58, 95
11, 199920, Note_off_c, 4, 70, 95
11, 199920, Note_on_c, 4, 74, 95
11, 199920, Note_on_c, 4, 62, 95
11, 200160, Note_off_c, 4, 62, 95
11, 200160, Note_off_c, 4, 74, 95
11, 200160, Note_on_c, 4, 74, 95
11, 200160, Note_on_c, 4, 62, 95
11, 200400, Note_off_c, 4, 62, 95
11, 200400, Note_off_c, 4, 74, 95
11, 200400, Note_on_c, 4, 74, 95
11, 200400, Note_on_c, 4, 62, 95
11, 200640, Note_off_c, 4, 62, 95
11, 200640, Note_off_c, 4, 74, 95
11, 200880, Note_on_c, 4, 74, 95
11, 200880, Note_on_c, 4, 62, 95
11, 201120, Note_off_c, 4, 62, 95
11, 201120, Note_off_c, 4, 74, 95
11, 201120, Note_on_c, 4, 74, 95
11, 201120, Note_on_c, 4, 62, 95
11, 201360, Note_off_c, 4, 62, 95
11, 201360, Note_off_c, 4, 74, 95
11, 201360, Note_on_c, 4, 74, 95
11, 201360, Note_on_c, 4, 62, 95
11, 201600, Note_off_c, 4, 62, 95
11, 201600, Note_off_c, 4, 74, 95
11, 201840, Note_on_c, 4, 74, 47
11, 201840, Note_on_c, 4, 62, 47
11, 202080, Note_off_c, 4, 62, 47
11, 202080, Note_off_c, 4, 74, 47
11, 202080, Note_on_c, 4, 74, 95
11, 202080, Note_on_c, 4, 62, 95
11, 202320, Note_off_c, 4, 62, 95
11, 202320, Note_off_c, 4, 74, 95
11, 202320, Note_on_c, 4, 74, 95
11, 202320, Note_on_c, 4, 62, 95
11, 203040, Note_off_c, 4, 62, 95
11, 203040, Note_off_c, 4, 74, 95
11, 203520, Sequencer_specific, 3, 5, 15, 10
11, 203520, End_track
12, 0, Start_track
12, 0, Title_t, "Brass Section"
12, 0, Control_c, 5, 7, 101
12, 0, Control_c, 5, 6, 12
12, 0, Control_c, 5, 100, 0
12, 0, Control_c, 5, 101, 0
12, 0, Sequencer_specific, 5, 5, 15, 9, 8, 64
12, 0, Sequencer_specific, 15, 5, 15, 6, 71, 101, 110, 101, 114, 97, 108, 32, 77, 73, 68, 73
12, 0, Key_signature, -2, "major"
12, 0, Program_c, 5, 61
12, 0, Control_c, 5, 6, 12
12, 0, Control_c, 5, 100, 0
12, 0, Control_c, 5, 101, 0
12, 10080, Note_on_c, 5, 70, 95
12, 10080, Note_on_c, 5, 58, 95
12, 10320, Note_off_c, 5, 58, 95
12, 10320, Note_off_c, 5, 70, 95
12, 10320, Note_on_c, 5, 70, 95
12, 10320, Note_on_c, 5, 58, 95
12, 10560, Note_off_c, 5, 58, 95
12, 10560, Note_off_c, 5, 70, 95
12, 10560, Note_on_c, 5, 74, 95
12, 10560, Note_on_c, 5, 62, 95
12, 10800, Note_off_c, 5, 62, 95
12, 10800, Note_off_c, 5, 74, 95
12, 10800, Note_on_c, 5, 75, 95
12, 10800, Note_on_c, 5, 63, 95
12, 11280, Note_off_c, 5, 63, 95
12, 11280, Note_off_c, 5, 75, 95
12, 11280, Note_on_c, 5, 77, 95
12, 11280, Note_on_c, 5, 65, 95
12, 13440, Note_off_c, 5, 65, 95
12, 13440, Note_off_c, 5, 77, 95
12, 13920, Note_on_c, 5, 75, 95
12, 13920, Note_on_c, 5, 63, 95
12, 14160, Note_off_c, 5, 63, 95
12, 14160, Note_off_c, 5, 75, 95
12, 14160, Note_on_c, 5, 73, 95
12, 14160, Note_on_c, 5, 61, 95
12, 14400, Note_off_c, 5, 61, 95
12, 14400, Note_off_c, 5, 73, 95
12, 14400, Note_on_c, 5, 75, 95
12, 14400, Note_on_c, 5, 63, 95
12, 14640, Note_off_c, 5, 63, 95
12, 14640, Note_off_c, 5, 75, 95
12, 14640, Note_on_c, 5, 73, 95
12, 14640, Note_on_c, 5, 61, 95
12, 15360, Note_off_c, 5, 61, 95
12, 15360, Note_off_c, 5, 73, 95
12, 15360, Note_on_c, 5, 82, 95
12, 15360, Note_on_c, 5, 70, 95
12, 23040, Note_off_c, 5, 70, 95
12, 23040, Note_off_c, 5, 82, 95
12, 46080, Note_on_c, 5, 65, 95
12, 46080, Note_on_c, 5, 53, 95
12, 47520, Note_off_c, 5, 53, 95
12, 47520, Note_off_c, 5, 65, 95
12, 47760, Note_on_c, 5, 69, 95
12, 47760, Note_on_c, 5, 57, 95
12, 48000, Note_off_c, 5, 57, 95
12, 48000, Note_off_c, 5, 69, 95
12, 48240, Note_on_c, 5, 70, 95
12, 48240, Note_on_c, 5, 58, 95
12, 48480, Note_off_c, 5, 58, 95
12, 48480, Note_off_c, 5, 70, 95
12, 48720, Note_on_c, 5, 70, 95
12, 48720, Note_on_c, 5, 58, 95
12, 48960, Note_off_c, 5, 58, 95
12, 48960, Note_off_c, 5, 70, 95
12, 48960, Note_on_c, 5, 72, 70
12, 48960, Note_on_c, 5, 60, 95
12, 49440, Note_off_c, 5, 60, 95
12, 49440, Note_off_c, 5, 72, 70
12, 49920, Note_on_c, 5, 65, 95
12, 49920, Note_on_c, 5, 53, 95
12, 51360, Note_off_c, 5, 53, 95
12, 51360, Note_off_c, 5, 65, 95
12, 51600, Note_on_c, 5, 69, 95
12, 51600, Note_on_c, 5, 57, 95
12, 51840, Note_off_c, 5, 57, 95
12, 51840, Note_off_c, 5, 69, 95
12, 52080, Note_on_c, 5, 70, 95
12, 52080, Note_on_c, 5, 58, 95
12, 52320, Note_off_c, 5, 58, 95
12, 52320, Note_off_c, 5, 70, 95
12, 52560, Note_on_c, 5, 70, 95
12, 52560, Note_on_c, 5, 58, 95
12, 52800, Note_off_c, 5, 58, 95
12, 52800, Note_off_c, 5, 70, 95
12, 52800, Note_on_c, 5, 72, 70
12, 52800, Note_on_c, 5, 60, 95
12, 53280, Note_off_c, 5, 60, 95
12, 53280, Note_off_c, 5, 72, 70
12, 61920, Note_on_c, 5, 75, 95
12, 61920, Note_on_c, 5, 63, 95
12, 62160, Note_off_c, 5, 63, 95
12, 62160, Note_off_c, 5, 75, 95
12, 62160, Note_on_c, 5, 75, 95
12, 62160, Note_on_c, 5, 63, 95
12, 62400, Note_off_c, 5, 63, 95
12, 62400, Note_off_c, 5, 75, 95
12, 62640, Note_on_c, 5, 75, 95
12, 62640, Note_on_c, 5, 63, 95
12, 62880, Note_off_c, 5, 63, 95
12, 62880, Note_off_c, 5, 75, 95
12, 62880, Note_on_c, 5, 75, 95
12, 62880, Note_on_c, 5, 63, 95
12, 63120, Note_off_c, 5, 63, 95
12, 63120, Note_off_c, 5, 75, 95
12, 63600, Note_on_c, 5, 77, 95
12, 63600, Note_on_c, 5, 65, 95
12, 63840, Note_off_c, 5, 65, 95
12, 63840, Note_off_c, 5, 77, 95
12, 63840, Note_on_c, 5, 77, 95
12, 63840, Note_on_c, 5, 65, 95
12, 64080, Note_off_c, 5, 65, 95
12, 64080, Note_off_c, 5, 77, 95
12, 64080, Note_on_c, 5, 77, 95
12, 64080, Note_on_c, 5, 65, 95
12, 64320, Note_off_c, 5, 65, 95
12, 64320, Note_off_c, 5, 77, 95
12, 64560, Note_on_c, 5, 77, 95
12, 64560, Note_on_c, 5, 65, 95
12, 64800, Note_off_c, 5, 65, 95
12, 64800, Note_off_c, 5, 77, 95
12, 64800, Note_on_c, 5, 77, 95
12, 64800, Note_on_c, 5, 65, 95
12, 65040, Note_off_c, 5, 65, 95
12, 65040, Note_off_c, 5, 77, 95
12, 65280, Note_on_c, 5, 80, 95
12, 65280, Note_on_c, 5, 68, 95
12, 65760, Note_off_c, 5, 68, 95
12, 65760, Note_off_c, 5, 80, 95
12, 65760, Note_on_c, 5, 80, 95
12, 65760, Note_on_c, 5, 68, 95
12, 66000, Note_off_c, 5, 68, 95
12, 66000, Note_off_c, 5, 80, 95
12, 66000, Note_on_c, 5, 75, 95
12, 66000, Note_on_c, 5, 63, 95
12, 66240, Note_off_c, 5, 75, 95
12, 66480, Note_off_c, 5, 63, 95
12, 66480, Note_on_c, 5, 75, 95
12, 66480, Note_on_c, 5, 63, 95
12, 66720, Note_off_c, 5, 63, 95
12, 66720, Note_off_c, 5, 75, 95
12, 66720, Note_on_c, 5, 70, 95
12, 66720, Note_on_c, 5, 58, 95
12, 69120, Note_off_c, 5, 58, 95
12, 69120, Note_off_c, 5, 70, 95
12, 72960, Note_on_c, 5, 74, 95
12, 72960, Note_on_c, 5, 62, 95
12, 76800, Note_off_c, 5, 62, 95
12, 76800, Note_off_c, 5, 74, 95
12, 76800, Note_on_c, 5, 74, 95
12, 76800, Note_on_c, 5, 62, 95
12, 80640, Note_off_c, 5, 62, 95
12, 80640, Note_off_c, 5, 74, 95
12, 80640, Note_on_c, 5, 74, 95
12, 80640, Note_on_c, 5, 62, 95
12, 84480, Note_off_c, 5, 62, 95
12, 84480, Note_off_c, 5, 74, 95
12, 84480, Note_on_c, 5, 74, 95
12, 84480, Note_on_c, 5, 62, 95
12, 88320, Note_off_c, 5, 62, 95
12, 88320, Note_off_c, 5, 74, 95
12, 88320, Note_on_c, 5, 74, 95
12, 88320, Note_on_c, 5, 62, 95
12, 92160, Note_off_c, 5, 62, 95
12, 92160, Note_off_c, 5, 74, 95
12, 92160, Note_on_c, 5, 74, 95
12, 92160, Note_on_c, 5, 62, 95
12, 96000, Note_off_c, 5, 62, 95
12, 96000, Note_off_c, 5, 74, 95
12, 96000, Note_on_c, 5, 74, 95
12, 96000, Note_on_c, 5, 62, 95
12, 99840, Note_off_c, 5, 62, 95
12, 99840, Note_off_c, 5, 74, 95
12, 99840, Note_on_c, 5, 65, 95
12, 99840, Note_on_c, 5, 53, 95
12, 101280, Note_off_c, 5, 53, 95
12, 101280, Note_off_c, 5, 65, 95
12, 101520, Note_on_c, 5, 69, 95
12, 101520, Note_on_c, 5, 57, 95
12, 101760, Note_off_c, 5, 57, 95
12, 101760, Note_off_c, 5, 69, 95
12, 102000, Note_on_c, 5, 70, 95
12, 102000, Note_on_c, 5, 58, 95
12, 102240, Note_off_c, 5, 58, 95
12, 102240, Note_off_c, 5, 70, 95
12, 102480, Note_on_c, 5, 70, 95
12, 102480, Note_on_c, 5, 58, 95
12, 102720, Note_off_c, 5, 58, 95
12, 102720, Note_off_c, 5, 70, 95
12, 102720, Note_on_c, 5, 72, 70
12, 102720, Note_on_c, 5, 60, 95
12, 103200, Note_off_c, 5, 60, 95
12, 103200, Note_off_c, 5, 72, 70
12, 103680, Note_on_c, 5, 65, 95
12, 103680, Note_on_c, 5, 53, 95
12, 105120, Note_off_c, 5, 53, 95
12, 105120, Note_off_c, 5, 65, 95
12, 105360, Note_on_c, 5, 69, 95
12, 105360, Note_on_c, 5, 57, 95
12, 105600, Note_off_c, 5, 57, 95
12, 105600, Note_off_c, 5, 69, 95
12, 105840, Note_on_c, 5, 70, 95
12, 105840, Note_on_c, 5, 58, 95
12, 106080, Note_off_c, 5, 58, 95
12, 106080, Note_off_c, 5, 70, 95
12, 106320, Note_on_c, 5, 70, 95
12, 106320, Note_on_c, 5, 58, 95
12, 106560, Note_off_c, 5, 58, 95
12, 106560, Note_off_c, 5, 70, 95
12, 106560, Note_on_c, 5, 72, 70
12, 106560, Note_on_c, 5, 60, 95
12, 107040, Note_off_c, 5, 60, 95
12, 107040, Note_off_c, 5, 72, 70
12, 117600, Note_on_c, 5, 70, 95
12, 117600, Note_on_c, 5, 58, 95
12, 117840, Note_off_c, 5, 58, 95
12, 117840, Note_off_c, 5, 70, 95
12, 117840, Note_on_c, 5, 70, 95
12, 117840, Note_on_c, 5, 58, 95
12, 118080, Note_off_c, 5, 58, 95
12, 118080, Note_off_c, 5, 70, 95
12, 118080, Note_on_c, 5, 74, 95
12, 118080, Note_on_c, 5, 62, 95
12, 118320, Note_off_c, 5, 62, 95
12, 118320, Note_off_c, 5, 74, 95
12, 118320, Note_on_c, 5, 75, 95
12, 118320, Note_on_c, 5, 63, 95
12, 118800, Note_off_c, 5, 63, 95
12, 118800, Note_off_c, 5, 75, 95
12, 118800, Note_on_c, 5, 77, 95
12, 118800, Note_on_c, 5, 65, 95
12, 120960, Note_off_c, 5, 65, 95
12, 120960, Note_off_c, 5, 77, 95
12, 120960, Note_on_c, 5, 75, 95
12, 120960, Note_on_c, 5, 63, 95
12, 121200, Note_off_c, 5, 63, 95
12, 121200, Note_off_c, 5, 75, 95
12, 121200, Note_on_c, 5, 73, 95
12, 121200, Note_on_c, 5, 61, 95
12, 121440, Note_off_c, 5, 61, 95
12, 121440, Note_off_c, 5, 73, 95
12, 121440, Note_on_c, 5, 75, 95
12, 121440, Note_on_c, 5, 63, 95
12, 121680, Note_off_c, 5, 63, 95
12, 121680, Note_off_c, 5, 75, 95
12, 121680, Note_on_c, 5, 73, 95
12, 121680, Note_on_c, 5, 61, 95
12, 121920, Note_off_c, 5, 61, 95
12, 121920, Note_off_c, 5, 73, 95
12, 121920, Note_on_c, 5, 70, 95
12, 121920, Note_on_c, 5, 58, 95
12, 122160, Note_off_c, 5, 58, 95
12, 122160, Note_off_c, 5, 70, 95
12, 122160, Note_on_c, 5, 68, 95
12, 122160, Note_on_c, 5, 56, 95
12, 122400, Note_off_c, 5, 56, 95
12, 122400, Note_off_c, 5, 68, 95
12, 122400, Note_on_c, 5, 70, 95
12, 122400, Note_on_c, 5, 58, 95
12, 123840, Note_off_c, 5, 58, 95
12, 123840, Note_off_c, 5, 70, 95
12, 124320, Note_on_c, 5, 70, 95
12, 124320, Note_on_c, 5, 58, 95
12, 124560, Note_off_c, 5, 58, 95
12, 124560, Note_off_c, 5, 70, 95
12, 124560, Note_on_c, 5, 70, 95
12, 124560, Note_on_c, 5, 58, 95
12, 124800, Note_off_c, 5, 58, 95
12, 124800, Note_off_c, 5, 70, 95
12, 124800, Note_on_c, 5, 74, 95
12, 124800, Note_on_c, 5, 62, 95
12, 125040, Note_off_c, 5, 62, 95
12, 125040, Note_off_c, 5, 74, 95
12, 125040, Note_on_c, 5, 75, 95
12, 125040, Note_on_c, 5, 63, 95
12, 125520, Note_off_c, 5, 63, 95
12, 125520, Note_off_c, 5, 75, 95
12, 125520, Note_on_c, 5, 82, 95
12, 125520, Note_on_c, 5, 70, 95
12, 126720, Note_off_c, 5, 70, 95
12, 126720, Note_off_c, 5, 82, 95
12, 126720, Note_on_c, 5, 80, 95
12, 126720, Note_on_c, 5, 68, 95
12, 127440, Note_off_c, 5, 68, 95
12, 127440, Note_off_c, 5, 80, 95
12, 127440, Note_on_c, 5, 75, 95
12, 127440, Note_on_c, 5, 63, 95
12, 128160, Note_off_c, 5, 63, 95
12, 128160, Note_off_c, 5, 75, 95
12, 128160, Note_on_c, 5, 70, 95
12, 128160, Note_on_c, 5, 58, 95
12, 128640, Note_off_c, 5, 58, 95
12, 129600, Note_off_c, 5, 70, 95
12, 134400, Note_on_c, 5, 74, 95
12, 134400, Note_on_c, 5, 62, 95
12, 138240, Note_off_c, 5, 62, 95
12, 138240, Note_off_c, 5, 74, 95
12, 138240, Note_on_c, 5, 74, 95
12, 138240, Note_on_c, 5, 62, 95
12, 142080, Note_off_c, 5, 62, 95
12, 142080, Note_off_c, 5, 74, 95
12, 142080, Note_on_c, 5, 74, 95
12, 142080, Note_on_c, 5, 62, 95
12, 145920, Note_off_c, 5, 62, 95
12, 145920, Note_off_c, 5, 74, 95
12, 145920, Note_on_c, 5, 74, 95
12, 145920, Note_on_c, 5, 62, 95
12, 149760, Note_off_c, 5, 62, 95
12, 149760, Note_off_c, 5, 74, 95
12, 149760, Note_on_c, 5, 74, 95
12, 149760, Note_on_c, 5, 62, 95
12, 153600, Note_off_c, 5, 62, 95
12, 153600, Note_off_c, 5, 74, 95
12, 153600, Note_on_c, 5, 74, 95
12, 153600, Note_on_c, 5, 62, 95
12, 157440, Note_off_c, 5, 62, 95
12, 157440, Note_off_c, 5, 74, 95
12, 157440, Note_on_c, 5, 74, 95
12, 157440, Note_on_c, 5, 62, 95
12, 161280, Note_off_c, 5, 62, 95
12, 161280, Note_off_c, 5, 74, 95
12, 161280, Note_on_c, 5, 65, 95
12, 161280, Note_on_c, 5, 53, 95
12, 162720, Note_off_c, 5, 53, 95
12, 162720, Note_off_c, 5, 65, 95
12, 162960, Note_on_c, 5, 69, 95
12, 162960, Note_on_c, 5, 57, 95
12, 163200, Note_off_c, 5, 57, 95
12, 163200, Note_off_c, 5, 69, 95
12, 163440, Note_on_c, 5, 70, 95
12, 163440, Note_on_c, 5, 58, 95
12, 163680, Note_off_c, 5, 58, 95
12, 163680, Note_off_c, 5, 70, 95
12, 163920, Note_on_c, 5, 70, 95
12, 163920, Note_on_c, 5, 58, 95
12, 164160, Note_off_c, 5, 58, 95
12, 164160, Note_off_c, 5, 70, 95
12, 164160, Note_on_c, 5, 72, 70
12, 164160, Note_on_c, 5, 60, 95
12, 164640, Note_off_c, 5, 60, 95
12, 164640, Note_off_c, 5, 72, 70
12, 165120, Note_on_c, 5, 65, 95
12, 165120, Note_on_c, 5, 53, 95
12, 166560, Note_off_c, 5, 53, 95
12, 166560, Note_off_c, 5, 65, 95
12, 166800, Note_on_c, 5, 69, 95
12, 166800, Note_on_c, 5, 57, 95
12, 167040, Note_off_c, 5, 57, 95
12, 167040, Note_off_c, 5, 69, 95
12, 167280, Note_on_c, 5, 70, 95
12, 167280, Note_on_c, 5, 58, 95
12, 167520, Note_off_c, 5, 58, 95
12, 167520, Note_off_c, 5, 70, 95
12, 167760, Note_on_c, 5, 70, 95
12, 167760, Note_on_c, 5, 58, 95
12, 168000, Note_off_c, 5, 58, 95
12, 168000, Note_off_c, 5, 70, 95
12, 168000, Note_on_c, 5, 72, 70
12, 168000, Note_on_c, 5, 60, 95
12, 168480, Note_off_c, 5, 60, 95
12, 168480, Note_off_c, 5, 72, 70
12, 179040, Note_on_c, 5, 70, 95
12, 179040, Note_on_c, 5, 58, 95
12, 179280, Note_off_c, 5, 58, 95
12, 179280, Note_off_c, 5, 70, 95
12, 179280, Note_on_c, 5, 70, 95
12, 179280, Note_on_c, 5, 58, 95
12, 179520, Note_off_c, 5, 58, 95
12, 179520, Note_off_c, 5, 70, 95
12, 179520, Note_on_c, 5, 74, 95
12, 179520, Note_on_c, 5, 62, 95
12, 179760, Note_off_c, 5, 62, 95
12, 179760, Note_off_c, 5, 74, 95
12, 179760, Note_on_c, 5, 75, 95
12, 179760, Note_on_c, 5, 63, 95
12, 180240, Note_off_c, 5, 63, 95
12, 180240, Note_off_c, 5, 75, 95
12, 180240, Note_on_c, 5, 77, 95
12, 180240, Note_on_c, 5, 65, 95
12, 182400, Note_off_c, 5, 65, 95
12, 182400, Note_off_c, 5, 77, 95
12, 182400, Note_on_c, 5, 75, 95
12, 182400, Note_on_c, 5, 63, 95
12, 182640, Note_off_c, 5, 63, 95
12, 182640, Note_off_c, 5, 75, 95
12, 182640, Note_on_c, 5, 73, 95
12, 182640, Note_on_c, 5, 61, 95
12, 182880, Note_off_c, 5, 61, 95
12, 182880, Note_off_c, 5, 73, 95
12, 182880, Note_on_c, 5, 75, 95
12, 182880, Note_on_c, 5, 63, 95
12, 183120, Note_off_c, 5, 63, 95
12, 183120, Note_off_c, 5, 75, 95
12, 183120, Note_on_c, 5, 73, 95
12, 183120, Note_on_c, 5, 61, 95
12, 183360, Note_off_c, 5, 61, 95
12, 183360, Note_off_c, 5, 73, 95
12, 183360, Note_on_c, 5, 70, 95
12, 183360, Note_on_c, 5, 58, 95
12, 183600, Note_off_c, 5, 58, 95
12, 183600, Note_off_c, 5, 70, 95
12, 183600, Note_on_c, 5, 68, 95
12, 183600, Note_on_c, 5, 56, 95
12, 183840, Note_off_c, 5, 56, 95
12, 183840, Note_off_c, 5, 68, 95
12, 183840, Note_on_c, 5, 70, 95
12, 183840, Note_on_c, 5, 58, 95
12, 185280, Note_off_c, 5, 58, 95
12, 185280, Note_off_c, 5, 70, 95
12, 185760, Note_on_c, 5, 70, 95
12, 185760, Note_on_c, 5, 58, 95
12, 186000, Note_off_c, 5, 58, 95
12, 186000, Note_off_c, 5, 70, 95
12, 186000, Note_on_c, 5, 70, 95
12, 186000, Note_on_c, 5, 58, 95
12, 186240, Note_off_c, 5, 58, 95
12, 186240, Note_off_c, 5, 70, 95
12, 186240, Note_on_c, 5, 74, 95
12, 186240, Note_on_c, 5, 62, 95
12, 186480, Note_off_c, 5, 62, 95
12, 186480, Note_off_c, 5, 74, 95
12, 186480, Note_on_c, 5, 75, 95
12, 186480, Note_on_c, 5, 63, 95
12, 186960, Note_off_c, 5, 63, 95
12, 186960, Note_off_c, 5, 75, 95
12, 186960, Note_on_c, 5, 82, 95
12, 186960, Note_on_c, 5, 70, 95
12, 188160, Note_off_c, 5, 70, 95
12, 188160, Note_off_c, 5, 82, 95
12, 188160, Note_on_c, 5, 80, 95
12, 188160, Note_on_c, 5, 68, 95
12, 188880, Note_off_c, 5, 68, 95
12, 188880, Note_off_c, 5, 80, 95
12, 188880, Note_on_c, 5, 75, 95
12, 188880, Note_on_c, 5, 63, 95
12, 189600, Note_off_c, 5, 63, 95
12, 189600, Note_off_c, 5, 75, 95
12, 189600, Note_on_c, 5, 70, 95
12, 189600, Note_on_c, 5, 58, 95
12, 190080, Note_off_c, 5, 58, 95
12, 191040, Note_off_c, 5, 70, 95
12, 192000, Note_on_c, 5, 70, 95
12, 192000, Note_on_c, 5, 58, 95
12, 192240, Note_off_c, 5, 58, 95
12, 192240, Note_off_c, 5, 70, 95
12, 192240, Note_on_c, 5, 70, 95
12, 192240, Note_on_c, 5, 58, 95
12, 192480, Note_off_c, 5, 58, 95
12, 192480, Note_off_c, 5, 70, 95
12, 192480, Note_on_c, 5, 70, 95
12, 192480, Note_on_c, 5, 58, 95
12, 192720, Note_off_c, 5, 58, 95
12, 192720, Note_off_c, 5, 70, 95
12, 192720, Note_on_c, 5, 70, 95
12, 192720, Note_on_c, 5, 58, 95
12, 192960, Note_off_c, 5, 58, 95
12, 192960, Note_off_c, 5, 70, 95
12, 193200, Note_on_c, 5, 70, 95
12, 193200, Note_on_c, 5, 58, 95
12, 193440, Note_off_c, 5, 58, 95
12, 193440, Note_off_c, 5, 70, 95
12, 193440, Note_on_c, 5, 70, 95
12, 193440, Note_on_c, 5, 58, 95
12, 193680, Note_off_c, 5, 58, 95
12, 193680, Note_off_c, 5, 70, 95
12, 193680, Note_on_c, 5, 70, 95
12, 193680, Note_on_c, 5, 58, 95
12, 193920, Note_off_c, 5, 58, 95
12, 193920, Note_off_c, 5, 70, 95
12, 194160, Note_on_c, 5, 70, 95
12, 194160, Note_on_c, 5, 58, 95
12, 194400, Note_off_c, 5, 58, 95
12, 194400, Note_off_c, 5, 70, 95
12, 194400, Note_on_c, 5, 70, 95
12, 194400, Note_on_c, 5, 58, 95
12, 194640, Note_off_c, 5, 58, 95
12, 194640, Note_off_c, 5, 70, 95
12, 194640, Note_on_c, 5, 70, 95
12, 194640, Note_on_c, 5, 58, 95
12, 194880, Note_off_c, 5, 58, 95
12, 195360, Note_off_c, 5, 70, 95
12, 195840, Note_on_c, 5, 70, 95
12, 195840, Note_on_c, 5, 58, 95
12, 196080, Note_off_c, 5, 58, 95
12, 196080, Note_off_c, 5, 70, 95
12, 196080, Note_on_c, 5, 70, 95
12, 196080, Note_on_c, 5, 58, 95
12, 196320, Note_off_c, 5, 58, 95
12, 196320, Note_off_c, 5, 70, 95
12, 196320, Note_on_c, 5, 70, 95
12, 196320, Note_on_c, 5, 58, 95
12, 196560, Note_off_c, 5, 58, 95
12, 196560, Note_off_c, 5, 70, 95
12, 196560, Note_on_c, 5, 70, 95
12, 196560, Note_on_c, 5, 58, 95
12, 196800, Note_off_c, 5, 58, 95
12, 196800, Note_off_c, 5, 70, 95
12, 197040, Note_on_c, 5, 70, 95
12, 197040, Note_on_c, 5, 58, 95
12, 197280, Note_off_c, 5, 58, 95
12, 197280, Note_off_c, 5, 70, 95
12, 197280, Note_on_c, 5, 70, 95
12, 197280, Note_on_c, 5, 58, 95
12, 197520, Note_off_c, 5, 58, 95
12, 197520, Note_off_c, 5, 70, 95
12, 197520, Note_on_c, 5, 70, 95
12, 197520, Note_on_c, 5, 58, 95
12, 197760, Note_off_c, 5, 58, 95
12, 197760, Note_off_c, 5, 70, 95
12, 198000, Note_on_c, 5, 70, 47
12, 198000, Note_on_c, 5, 58, 47
12, 198240, Note_off_c, 5, 58, 47
12, 198240, Note_off_c, 5, 70, 47
12, 198240, Note_on_c, 5, 70, 95
12, 198240, Note_on_c, 5, 58, 95
12, 198480, Note_off_c, 5, 58, 95
12, 198480, Note_off_c, 5, 70, 95
12, 198480, Note_on_c, 5, 70, 95
12, 198480, Note_on_c, 5, 58, 95
12, 199200, Note_off_c, 5, 58, 95
12, 199200, Note_off_c, 5, 70, 95
12, 199680, Note_on_c, 5, 70, 95
12, 199680, Note_on_c, 5, 58, 95
12, 199920, Note_off_c, 5, 58, 95
12, 199920, Note_off_c, 5, 70, 95
12, 199920, Note_on_c, 5, 74, 95
12, 199920, Note_on_c, 5, 62, 95
12, 200160, Note_off_c, 5, 62, 95
12, 200160, Note_off_c, 5, 74, 95
12, 200160, Note_on_c, 5, 74, 95
12, 200160, Note_on_c, 5, 62, 95
12, 200400, Note_off_c, 5, 62, 95
12, 200400, Note_off_c, 5, 74, 95
12, 200400, Note_on_c, 5, 74, 95
12, 200400, Note_on_c, 5, 62, 95
12, 200640, Note_off_c, 5, 62, 95
12, 200640, Note_off_c, 5, 74, 95
12, 200880, Note_on_c, 5, 74, 95
12, 200880, Note_on_c, 5, 62, 95
12, 201120, Note_off_c, 5, 62, 95
12, 201120, Note_off_c, 5, 74, 95
12, 201120, Note_on_c, 5, 74, 95
12, 201120, Note_on_c, 5, 62, 95
12, 201360, Note_off_c, 5, 62, 95
12, 201360, Note_off_c, 5, 74, 95
12, 201360, Note_on_c, 5, 74, 95
12, 201360, Note_on_c, 5, 62, 95
12, 201600, Note_off_c, 5, 62, 95
12, 201600, Note_off_c, 5, 74, 95
12, 201840, Note_on_c, 5, 74, 47
12, 201840, Note_on_c, 5, 62, 47
12, 202080, Note_off_c, 5, 62, 47
12, 202080, Note_off_c, 5, 74, 47
12, 202080, Note_on_c, 5, 74, 95
12, 202080, Note_on_c, 5, 62, 95
12, 202320, Note_off_c, 5, 62, 95
12, 202320, Note_off_c, 5, 74, 95
12, 202320, Note_on_c, 5, 74, 95
12, 202320, Note_on_c, 5, 62, 95
12, 203040, Note_off_c, 5, 62, 95
12, 203040, Note_off_c, 5, 74, 95
12, 207360, Sequencer_specific, 3, 5, 15, 10
12, 207360, End_track
13, 0, Start_track
13, 0, Title_t, "Slap Bass 2"
13, 0, Program_c, 6, 37
13, 0, Sequencer_specific, 5, 5, 15, 9, 8, 64
13, 0, Sequencer_specific, 15, 5, 15, 6, 71, 101, 110, 101, 114, 97, 108, 32, 77, 73, 68, 73
13, 0, Key_signature, -2, "major"
13, 0, Control_c, 6, 6, 12
13, 0, Control_c, 6, 100, 0
13, 0, Control_c, 6, 101, 0
13, 2400, Note_on_c, 6, 46, 95
13, 2640, Note_off_c, 6, 46, 95
13, 2640, Note_on_c, 6, 46, 95
13, 2880, Note_off_c, 6, 46, 95
13, 2880, Note_on_c, 6, 50, 95
13, 3120, Note_off_c, 6, 50, 95
13, 3120, Note_on_c, 6, 51, 95
13, 3600, Note_off_c, 6, 51, 95
13, 3600, Note_on_c, 6, 53, 95
13, 5760, Note_off_c, 6, 53, 95
13, 6240, Note_on_c, 6, 51, 95
13, 6480, Note_off_c, 6, 51, 95
13, 6480, Note_on_c, 6, 49, 95
13, 6720, Note_off_c, 6, 49, 95
13, 6720, Note_on_c, 6, 51, 95
13, 6960, Note_off_c, 6, 51, 95
13, 6960, Note_on_c, 6, 49, 95
13, 7440, Note_off_c, 6, 49, 95
13, 7440, Note_on_c, 6, 46, 95
13, 9600, Note_off_c, 6, 46, 95
13, 10080, Note_on_c, 6, 58, 95
13, 10320, Note_off_c, 6, 58, 95
13, 10320, Note_on_c, 6, 58, 95
13, 10560, Note_off_c, 6, 58, 95
13, 10560, Note_on_c, 6, 62, 95
13, 10800, Note_off_c, 6, 62, 95
13, 10800, Note_on_c, 6, 63, 95
13, 11280, Note_off_c, 6, 63, 95
13, 11280, Note_on_c, 6, 65, 95
13, 13440, Note_off_c, 6, 65, 95
13, 13920, Note_on_c, 6, 51, 95
13, 14160, Note_off_c, 6, 51, 95
13, 14160, Note_on_c, 6, 49, 95
13, 14400, Note_off_c, 6, 49, 95
13, 14400, Note_on_c, 6, 51, 95
13, 14640, Note_off_c, 6, 51, 95
13, 14640, Note_on_c, 6, 49, 95
13, 15120, Note_off_c, 6, 49, 95
13, 15120, Note_on_c, 6, 46, 95
13, 15840, Note_on_c, 6, 62, 95
13, 15840, Note_on_c, 6, 58, 95
13, 15840, Note_on_c, 6, 53, 95
13, 16320, Note_off_c, 6, 53, 95
13, 16320, Note_off_c, 6, 58, 95
13, 16320, Note_off_c, 6, 62, 95
13, 16320, Note_off_c, 6, 46, 95
13, 16320, Note_on_c, 6, 62, 95
13, 16320, Note_on_c, 6, 58, 95
13, 16320, Note_on_c, 6, 53, 95
13, 17280, Note_off_c, 6, 53, 95
13, 17280, Note_off_c, 6, 58, 95
13, 17280, Note_off_c, 6, 62, 95
13, 17280, Note_on_c, 6, 46, 95
13, 17760, Note_off_c, 6, 46, 95
13, 17760, Note_on_c, 6, 62, 95
13, 17760, Note_on_c, 6, 58, 95
13, 17760, Note_on_c, 6, 53, 95
13, 17760, Note_on_c, 6, 41, 95
13, 18000, Note_off_c, 6, 41, 95
13, 18000, Note_off_c, 6, 53, 95
13, 18000, Note_off_c, 6, 58, 95
13, 18000, Note_off_c, 6, 62, 95
13, 18000, Note_on_c, 6, 62, 95
13, 18000, Note_on_c, 6, 58, 95
13, 18000, Note_on_c, 6, 53, 95
13, 18000, Note_on_c, 6, 41, 95
13, 18480, Note_off_c, 6, 41, 95
13, 18480, Note_off_c, 6, 53, 95
13, 18480, Note_off_c, 6, 58, 95
13, 18480, Note_off_c, 6, 62, 95
13, 18480, Note_on_c, 6, 62, 95
13, 18480, Note_on_c, 6, 58, 95
13, 18480, Note_on_c, 6, 53, 95
13, 18720, Note_off_c, 6, 53, 95
13, 18720, Note_off_c, 6, 58, 95
13, 18720, Note_off_c, 6, 62, 95
13, 18720, Note_on_c, 6, 62, 95
13, 18720, Note_on_c, 6, 58, 95
13, 18720, Note_on_c, 6, 53, 95
13, 18720, Note_on_c, 6, 41, 95
13, 19200, Note_off_c, 6, 41, 95
13, 19200, Note_off_c, 6, 53, 95
13, 19200, Note_off_c, 6, 58, 95
13, 19200, Note_off_c, 6, 62, 95
13, 19200, Note_on_c, 6, 46, 95
13, 19680, Note_on_c, 6, 62, 95
13, 19680, Note_on_c, 6, 58, 95
13, 19680, Note_on_c, 6, 53, 95
13, 20160, Note_off_c, 6, 53, 95
13, 20160, Note_off_c, 6, 58, 95
13, 20160, Note_off_c, 6, 62, 95
13, 20160, Note_off_c, 6, 46, 95
13, 20160, Note_on_c, 6, 62, 95
13, 20160, Note_on_c, 6, 58, 95
13, 20160, Note_on_c, 6, 53, 95
13, 21120, Note_off_c, 6, 53, 95
13, 21120, Note_off_c, 6, 58, 95
13, 21120, Note_off_c, 6, 62, 95
13, 21120, Note_on_c, 6, 46, 95
13, 21600, Note_on_c, 6, 62, 95
13, 21600, Note_on_c, 6, 58, 95
13, 21600, Note_on_c, 6, 53, 95
13, 21840, Note_off_c, 6, 53, 95
13, 21840, Note_off_c, 6, 58, 95
13, 21840, Note_off_c, 6, 62, 95
13, 21840, Note_on_c, 6, 62, 95
13, 21840, Note_on_c, 6, 58, 95
13, 21840, Note_on_c, 6, 53, 95
13, 22080, Note_off_c, 6, 46, 95
13, 22320, Note_off_c, 6, 53, 95
13, 22320, Note_off_c, 6, 58, 95
13, 22320, Note_off_c, 6, 62, 95
13, 22320, Note_on_c, 6, 62, 95
13, 22320, Note_on_c, 6, 58, 95
13, 22320, Note_on_c, 6, 53, 95
13, 22560, Note_off_c, 6, 53, 95
13, 22560, Note_off_c, 6, 58, 95
13, 22560, Note_off_c, 6, 62, 95
13, 22560, Note_on_c, 6, 62, 95
13, 22560, Note_on_c, 6, 58, 95
13, 22560, Note_on_c, 6, 53, 95
13, 23040, Note_off_c, 6, 53, 95
13, 23040, Note_off_c, 6, 58, 95
13, 23040, Note_off_c, 6, 62, 95
13, 23040, Note_on_c, 6, 46, 95
13, 23520, Note_on_c, 6, 62, 95
13, 23520, Note_on_c, 6, 58, 95
13, 23520, Note_on_c, 6, 53, 95
13, 24000, Note_off_c, 6, 53, 95
13, 24000, Note_off_c, 6, 58, 95
13, 24000, Note_off_c, 6, 62, 95
13, 24000, Note_off_c, 6, 46, 95
13, 24000, Note_on_c, 6, 62, 95
13, 24000, Note_on_c, 6, 58, 95
13, 24000, Note_on_c, 6, 53, 95
13, 24960, Note_off_c, 6, 53, 95
13, 24960, Note_off_c, 6, 58, 95
13, 24960, Note_off_c, 6, 62, 95
13, 24960, Note_on_c, 6, 46, 95
13, 25440, Note_off_c, 6, 46, 95
13, 25440, Note_on_c, 6, 62, 95
13, 25440, Note_on_c, 6, 58, 95
13, 25440, Note_on_c, 6, 53, 95
13, 25440, Note_on_c, 6, 41, 95
13, 25680, Note_off_c, 6, 41, 95
13, 25680, Note_off_c, 6, 53, 95
13, 25680, Note_off_c, 6, 58, 95
13, 25680, Note_off_c, 6, 62, 95
13, 25680, Note_on_c, 6, 62, 95
13, 25680, Note_on_c, 6, 58, 95
13, 25680, Note_on_c, 6, 53, 95
13, 25680, Note_on_c, 6, 41, 95
13, 26160, Note_off_c, 6, 41, 95
13, 26160, Note_off_c, 6, 53, 95
13, 26160, Note_off_c, 6, 58, 95
13, 26160, Note_off_c, 6, 62, 95
13, 26160, Note_on_c, 6, 62, 95
13, 26160, Note_on_c, 6, 58, 95
13, 26160, Note_on_c, 6, 53, 95
13, 26400, Note_off_c, 6, 53, 95
13, 26400, Note_off_c, 6, 58, 95
13, 26400, Note_off_c, 6, 62, 95
13, 26400, Note_on_c, 6, 62, 95
13, 26400, Note_on_c, 6, 58, 95
13, 26400, Note_on_c, 6, 53, 95
13, 26400, Note_on_c, 6, 41, 95
13, 26880, Note_off_c, 6, 41, 95
13, 26880, Note_off_c, 6, 53, 95
13, 26880, Note_off_c, 6, 58, 95
13, 26880, Note_off_c, 6, 62, 95
13, 26880, Note_on_c, 6, 46, 95
13, 27360, Note_on_c, 6, 62, 95
13, 27360, Note_on_c, 6, 58, 95
13, 27360, Note_on_c, 6, 53, 95
13, 27840, Note_off_c, 6, 53, 95
13, 27840, Note_off_c, 6, 58, 95
13, 27840, Note_off_c, 6, 62, 95
13, 27840, Note_off_c, 6, 46, 95
13, 27840, Note_on_c, 6, 62, 95
13, 27840, Note_on_c, 6, 58, 95
13, 27840, Note_on_c, 6, 53, 95
13, 28800, Note_off_c, 6, 53, 95
13, 28800, Note_off_c, 6, 58, 95
13, 28800, Note_off_c, 6, 62, 95
13, 28800, Note_on_c, 6, 46, 95
13, 29280, Note_on_c, 6, 62, 95
13, 29280, Note_on_c, 6, 58, 95
13, 29280, Note_on_c, 6, 53, 95
13, 29520, Note_off_c, 6, 53, 95
13, 29520, Note_off_c, 6, 58, 95
13, 29520, Note_off_c, 6, 62, 95
13, 29520, Note_on_c, 6, 62, 95
13, 29520, Note_on_c, 6, 58, 95
13, 29520, Note_on_c, 6, 53, 95
13, 29760, Note_off_c, 6, 46, 95
13, 30000, Note_off_c, 6, 53, 95
13, 30000, Note_off_c, 6, 58, 95
13, 30000, Note_off_c, 6, 62, 95
13, 30000, Note_on_c, 6, 62, 95
13, 30000, Note_on_c, 6, 58, 95
13, 30000, Note_on_c, 6, 53, 95
13, 30240, Note_off_c, 6, 53, 95
13, 30240, Note_off_c, 6, 58, 95
13, 30240, Note_off_c, 6, 62, 95
13, 30240, Note_on_c, 6, 62, 95
13, 30240, Note_on_c, 6, 58, 95
13, 30240, Note_on_c, 6, 53, 95
13, 30720, Note_off_c, 6, 53, 95
13, 30720, Note_off_c, 6, 58, 95
13, 30720, Note_off_c, 6, 62, 95
13, 30720, Note_on_c, 6, 46, 95
13, 31200, Note_on_c, 6, 62, 95
13, 31200, Note_on_c, 6, 58, 95
13, 31200, Note_on_c, 6, 53, 95
13, 31680, Note_off_c, 6, 53, 95
13, 31680, Note_off_c, 6, 58, 95
13, 31680, Note_off_c, 6, 62, 95
13, 31680, Note_off_c, 6, 46, 95
13, 31680, Note_on_c, 6, 62, 95
13, 31680, Note_on_c, 6, 58, 95
13, 31680, Note_on_c, 6, 53, 95
13, 32640, Note_off_c, 6, 53, 95
13, 32640, Note_off_c, 6, 58, 95
13, 32640, Note_off_c, 6, 62, 95
13, 32640, Note_on_c, 6, 46, 95
13, 33120, Note_off_c, 6, 46, 95
13, 33120, Note_on_c, 6, 62, 95
13, 33120, Note_on_c, 6, 58, 95
13, 33120, Note_on_c, 6, 53, 95
13, 33120, Note_on_c, 6, 41, 95
13, 33360, Note_off_c, 6, 41, 95
13, 33360, Note_off_c, 6, 53, 95
13, 33360, Note_off_c, 6, 58, 95
13, 33360, Note_off_c, 6, 62, 95
13, 33360, Note_on_c, 6, 62, 95
13, 33360, Note_on_c, 6, 58, 95
13, 33360, Note_on_c, 6, 53, 95
13, 33360, Note_on_c, 6, 41, 95
13, 33840, Note_off_c, 6, 41, 95
13, 33840, Note_off_c, 6, 53, 95
13, 33840, Note_off_c, 6, 58, 95
13, 33840, Note_off_c, 6, 62, 95
13, 33840, Note_on_c, 6, 62, 95
13, 33840, Note_on_c, 6, 58, 95
13, 33840, Note_on_c, 6, 53, 95
13, 34080, Note_off_c, 6, 53, 95
13, 34080, Note_off_c, 6, 58, 95
13, 34080, Note_off_c, 6, 62, 95
13, 34080, Note_on_c, 6, 62, 95
13, 34080, Note_on_c, 6, 58, 95
13, 34080, Note_on_c, 6, 53, 95
13, 34080, Note_on_c, 6, 41, 95
13, 34560, Note_off_c, 6, 41, 95
13, 34560, Note_off_c, 6, 53, 95
13, 34560, Note_off_c, 6, 58, 95
13, 34560, Note_off_c, 6, 62, 95
13, 34560, Note_on_c, 6, 46, 95
13, 35040, Note_on_c, 6, 62, 95
13, 35040, Note_on_c, 6, 58, 95
13, 35040, Note_on_c, 6, 53, 95
13, 35520, Note_off_c, 6, 53, 95
13, 35520, Note_off_c, 6, 58, 95
13, 35520, Note_off_c, 6, 62, 95
13, 35520, Note_off_c, 6, 46, 95
13, 35520, Note_on_c, 6, 62, 95
13, 35520, Note_on_c, 6, 58, 95
13, 35520, Note_on_c, 6, 53, 95
13, 36480, Note_off_c, 6, 53, 95
13, 36480, Note_off_c, 6, 58, 95
13, 36480, Note_off_c, 6, 62, 95
13, 36480, Note_on_c, 6, 46, 95
13, 36960, Note_on_c, 6, 62, 95
13, 36960, Note_on_c, 6, 58, 95
13, 36960, Note_on_c, 6, 53, 95
13, 37200, Note_off_c, 6, 53, 95
13, 37200, Note_off_c, 6, 58, 95
13, 37200, Note_off_c, 6, 62, 95
13, 37200, Note_on_c, 6, 62, 95
13, 37200, Note_on_c, 6, 58, 95
13, 37200, Note_on_c, 6, 53, 95
13, 37680, Note_off_c, 6, 53, 95
13, 37680, Note_off_c, 6, 58, 95
13, 37680, Note_off_c, 6, 62, 95
13, 37680, Note_on_c, 6, 62, 95
13, 37680, Note_on_c, 6, 58, 95
13, 37680, Note_on_c, 6, 53, 95
13, 37920, Note_off_c, 6, 53, 95
13, 37920, Note_off_c, 6, 58, 95
13, 37920, Note_off_c, 6, 62, 95
13, 37920, Note_on_c, 6, 62, 95
13, 37920, Note_on_c, 6, 58, 95
13, 37920, Note_on_c, 6, 53, 95
13, 38400, Note_off_c, 6, 53, 95
13, 38400, Note_off_c, 6, 58, 95
13, 38400, Note_off_c, 6, 62, 95
13, 38880, Note_on_c, 6, 62, 95
13, 38880, Note_on_c, 6, 58, 95
13, 38880, Note_on_c, 6, 53, 95
13, 39360, Note_off_c, 6, 53, 95
13, 39360, Note_off_c, 6, 58, 95
13, 39360, Note_off_c, 6, 62, 95
13, 39360, Note_off_c, 6, 46, 95
13, 39360, Note_on_c, 6, 62, 95
13, 39360, Note_on_c, 6, 58, 95
13, 39360, Note_on_c, 6, 53, 95
13, 40320, Note_off_c, 6, 53, 95
13, 40320, Note_off_c, 6, 58, 95
13, 40320, Note_off_c, 6, 62, 95
13, 40320, Note_on_c, 6, 46, 95
13, 40800, Note_off_c, 6, 46, 95
13, 40800, Note_on_c, 6, 62, 95
13, 40800, Note_on_c, 6, 58, 95
13, 40800, Note_on_c, 6, 53, 95
13, 40800, Note_on_c, 6, 41, 95
13, 41040, Note_off_c, 6, 41, 95
13, 41040, Note_off_c, 6, 53, 95
13, 41040, Note_off_c, 6, 58, 95
13, 41040, Note_off_c, 6, 62, 95
13, 41040, Note_on_c, 6, 62, 95
13, 41040, Note_on_c, 6, 58, 95
13, 41040, Note_on_c, 6, 53, 95
13, 41040, Note_on_c, 6, 41, 95
13, 41520, Note_off_c, 6, 41, 95
13, 41520, Note_off_c, 6, 53, 95
13, 41520, Note_off_c, 6, 58, 95
13, 41520, Note_off_c, 6, 62, 95
13, 41520, Note_on_c, 6, 62, 95
13, 41520, Note_on_c, 6, 58, 95
13, 41520, Note_on_c, 6, 53, 95
13, 41760, Note_off_c, 6, 53, 95
13, 41760, Note_off_c, 6, 58, 95
13, 41760, Note_off_c, 6, 62, 95
13, 41760, Note_on_c, 6, 62, 95
13, 41760, Note_on_c, 6, 58, 95
13, 41760, Note_on_c, 6, 53, 95
13, 41760, Note_on_c, 6, 41, 95
13, 42240, Note_off_c, 6, 41, 95
13, 42240, Note_off_c, 6, 53, 95
13, 42240, Note_off_c, 6, 58, 95
13, 42240, Note_off_c, 6, 62, 95
13, 42240, Note_on_c, 6, 46, 95
13, 42720, Note_on_c, 6, 62, 95
13, 42720, Note_on_c, 6, 58, 95
13, 42720, Note_on_c, 6, 53, 95
13, 43200, Note_off_c, 6, 53, 95
13, 43200, Note_off_c, 6, 58, 95
13, 43200, Note_off_c, 6, 62, 95
13, 43200, Note_off_c, 6, 46, 95
13, 43200, Note_on_c, 6, 62, 95
13, 43200, Note_on_c, 6, 58, 95
13, 43200, Note_on_c, 6, 53, 95
13, 44160, Note_off_c, 6, 53, 95
13, 44160, Note_off_c, 6, 58, 95
13, 44160, Note_off_c, 6, 62, 95
13, 44160, Note_on_c, 6, 46, 95
13, 44640, Note_on_c, 6, 62, 95
13, 44640, Note_on_c, 6, 58, 95
13, 44640, Note_on_c, 6, 53, 95
13, 44880, Note_off_c, 6, 53, 95
13, 44880, Note_off_c, 6, 58, 95
13, 44880, Note_off_c, 6, 62, 95
13, 44880, Note_on_c, 6, 62, 95
13, 44880, Note_on_c, 6, 58, 95
13, 44880, Note_on_c, 6, 53, 95
13, 45120, Note_off_c, 6, 46, 95
13, 45360, Note_off_c, 6, 53, 95
13, 45360, Note_off_c, 6, 58, 95
13, 45360, Note_off_c, 6, 62, 95
13, 45360, Note_on_c, 6, 62, 95
13, 45360, Note_on_c, 6, 58, 95
13, 45360, Note_on_c, 6, 53, 95
13, 45600, Note_off_c, 6, 53, 95
13, 45600, Note_off_c, 6, 58, 95
13, 45600, Note_off_c, 6, 62, 95
13, 45600, Note_on_c, 6, 62, 95
13, 45600, Note_on_c, 6, 58, 95
13, 45600, Note_on_c, 6, 53, 95
13, 45840, Note_off_c, 6, 53, 95
13, 45840, Note_off_c, 6, 58, 95
13, 45840, Note_off_c, 6, 62, 95
13, 45840, Note_on_c, 6, 62, 95
13, 45840, Note_on_c, 6, 58, 95
13, 45840, Note_on_c, 6, 53, 95
13, 46080, Note_off_c, 6, 53, 95
13, 46080, Note_off_c, 6, 58, 95
13, 46080, Note_off_c, 6, 62, 95
13, 46080, Note_on_c, 6, 41, 95
13, 46560, Note_on_c, 6, 60, 95
13, 46560, Note_on_c, 6, 57, 95
13, 46560, Note_on_c, 6, 51, 95
13, 47040, Note_off_c, 6, 51, 95
13, 47040, Note_off_c, 6, 57, 95
13, 47040, Note_off_c, 6, 60, 95
13, 47040, Note_off_c, 6, 41, 95
13, 47040, Note_on_c, 6, 60, 95
13, 47040, Note_on_c, 6, 57, 95
13, 47040, Note_on_c, 6, 51, 95
13, 47760, Note_off_c, 6, 51, 95
13, 47760, Note_off_c, 6, 57, 95
13, 47760, Note_off_c, 6, 60, 95
13, 47760, Note_on_c, 6, 62, 95
13, 47760, Note_on_c, 6, 58, 95
13, 47760, Note_on_c, 6, 53, 95
13, 48000, Note_on_c, 6, 41, 95
13, 48240, Note_off_c, 6, 53, 95
13, 48240, Note_off_c, 6, 58, 95
13, 48240, Note_off_c, 6, 62, 95
13, 48240, Note_on_c, 6, 62, 95
13, 48240, Note_on_c, 6, 58, 95
13, 48240, Note_on_c, 6, 53, 95
13, 48720, Note_off_c, 6, 53, 95
13, 48720, Note_off_c, 6, 58, 95
13, 48720, Note_off_c, 6, 62, 95
13, 48720, Note_on_c, 6, 62, 95
13, 48720, Note_on_c, 6, 58, 95
13, 48720, Note_on_c, 6, 53, 95
13, 48960, Note_off_c, 6, 53, 95
13, 48960, Note_off_c, 6, 58, 95
13, 48960, Note_off_c, 6, 62, 95
13, 48960, Note_off_c, 6, 41, 95
13, 48960, Note_on_c, 6, 62, 95
13, 48960, Note_on_c, 6, 58, 95
13, 48960, Note_on_c, 6, 53, 95
13, 49200, Note_off_c, 6, 53, 95
13, 49200, Note_off_c, 6, 58, 95
13, 49200, Note_off_c, 6, 62, 95
13, 49200, Note_on_c, 6, 62, 95
13, 49200, Note_on_c, 6, 58, 95
13, 49200, Note_on_c, 6, 53, 95
13, 49440, Note_off_c, 6, 53, 95
13, 49440, Note_off_c, 6, 58, 95
13, 49440, Note_off_c, 6, 62, 95
13, 49440, Note_on_c, 6, 62, 95
13, 49440, Note_on_c, 6, 58, 95
13, 49440, Note_on_c, 6, 53, 95
13, 49920, Note_off_c, 6, 53, 95
13, 49920, Note_off_c, 6, 58, 95
13, 49920, Note_off_c, 6, 62, 95
13, 49920, Note_on_c, 6, 41, 95
13, 50400, Note_on_c, 6, 60, 95
13, 50400, Note_on_c, 6, 57, 95
13, 50400, Note_on_c, 6, 51, 95
13, 50880, Note_off_c, 6, 51, 95
13, 50880, Note_off_c, 6, 57, 95
13, 50880, Note_off_c, 6, 60, 95
13, 50880, Note_off_c, 6, 41, 95
13, 50880, Note_on_c, 6, 60, 95
13, 50880, Note_on_c, 6, 57, 95
13, 50880, Note_on_c, 6, 51, 95
13, 51600, Note_off_c, 6, 51, 95
13, 51600, Note_off_c, 6, 57, 95
13, 51600, Note_off_c, 6, 60, 95
13, 51600, Note_on_c, 6, 60, 95
13, 51600, Note_on_c, 6, 57, 95
13, 51600, Note_on_c, 6, 51, 95
13, 51840, Note_on_c, 6, 41, 95
13, 52080, Note_off_c, 6, 51, 95
13, 52080, Note_off_c, 6, 57, 95
13, 52080, Note_off_c, 6, 60, 95
13, 52080, Note_on_c, 6, 60, 95
13, 52080, Note_on_c, 6, 57, 95
13, 52080, Note_on_c, 6, 51, 95
13, 52560, Note_off_c, 6, 51, 95
13, 52560, Note_off_c, 6, 57, 95
13, 52560, Note_off_c, 6, 60, 95
13, 52560, Note_on_c, 6, 60, 95
13, 52560, Note_on_c, 6, 57, 95
13, 52560, Note_on_c, 6, 51, 95
13, 52800, Note_off_c, 6, 51, 95
13, 52800, Note_off_c, 6, 57, 95
13, 52800, Note_off_c, 6, 60, 95
13, 52800, Note_off_c, 6, 41, 95
13, 52800, Note_on_c, 6, 60, 95
13, 52800, Note_on_c, 6, 57, 95
13, 52800, Note_on_c, 6, 51, 95
13, 53040, Note_off_c, 6, 51, 95
13, 53040, Note_off_c, 6, 57, 95
13, 53040, Note_off_c, 6, 60, 95
13, 53040, Note_on_c, 6, 60, 95
13, 53040, Note_on_c, 6, 57, 95
13, 53040, Note_on_c, 6, 51, 95
13, 53280, Note_off_c, 6, 51, 95
13, 53280, Note_off_c, 6, 57, 95
13, 53280, Note_off_c, 6, 60, 95
13, 53280, Note_on_c, 6, 60, 95
13, 53280, Note_on_c, 6, 57, 95
13, 53280, Note_on_c, 6, 51, 95
13, 53760, Note_off_c, 6, 51, 95
13, 53760, Note_off_c, 6, 57, 95
13, 53760, Note_off_c, 6, 60, 95
13, 53760, Note_on_c, 6, 60, 95
13, 53760, Note_on_c, 6, 57, 95
13, 53760, Note_on_c, 6, 51, 95
13, 53760, Note_on_c, 6, 41, 95
13, 54720, Note_off_c, 6, 41, 95
13, 54720, Note_off_c, 6, 51, 95
13, 54720, Note_off_c, 6, 57, 95
13, 54720, Note_off_c, 6, 60, 95
13, 61440, Note_on_c, 6, 58, 95
13, 61440, Note_on_c, 6, 55, 95
13, 61440, Note_on_c, 6, 51, 95
13, 62160, Note_off_c, 6, 51, 95
13, 62160, Note_off_c, 6, 55, 95
13, 62160, Note_off_c, 6, 58, 95
13, 62160, Note_on_c, 6, 58, 95
13, 62160, Note_on_c, 6, 55, 95
13, 62160, Note_on_c, 6, 51, 95
13, 62880, Note_off_c, 6, 51, 95
13, 62880, Note_off_c, 6, 55, 95
13, 62880, Note_off_c, 6, 58, 95
13, 62880, Note_on_c, 6, 58, 95
13, 62880, Note_on_c, 6, 55, 95
13, 62880, Note_on_c, 6, 51, 95
13, 63360, Note_off_c, 6, 51, 95
13, 63360, Note_off_c, 6, 55, 95
13, 63360, Note_off_c, 6, 58, 95
13, 63360, Note_on_c, 6, 60, 95
13, 63360, Note_on_c, 6, 57, 95
13, 63360, Note_on_c, 6, 53, 95
13, 64080, Note_off_c, 6, 53, 95
13, 64080, Note_off_c, 6, 57, 95
13, 64080, Note_off_c, 6, 60, 95
13, 64080, Note_on_c, 6, 60, 95
13, 64080, Note_on_c, 6, 57, 95
13, 64080, Note_on_c, 6, 53, 95
13, 64800, Note_off_c, 6, 53, 95
13, 64800, Note_off_c, 6, 57, 95
13, 64800, Note_off_c, 6, 60, 95
13, 64800, Note_on_c, 6, 60, 95
13, 64800, Note_on_c, 6, 57, 95
13, 64800, Note_on_c, 6, 53, 95
13, 65280, Note_off_c, 6, 53, 95
13, 65280, Note_off_c, 6, 57, 95
13, 65280, Note_off_c, 6, 60, 95
13, 65280, Note_on_c, 6, 60, 95
13, 65280, Note_on_c, 6, 56, 95
13, 65280, Note_on_c, 6, 51, 95
13, 65280, Note_on_c, 6, 44, 95
13, 66000, Note_off_c, 6, 44, 95
13, 66000, Note_off_c, 6, 51, 95
13, 66000, Note_off_c, 6, 56, 95
13, 66000, Note_off_c, 6, 60, 95
13, 66000, Note_on_c, 6, 58, 95
13, 66000, Note_on_c, 6, 55, 95
13, 66000, Note_on_c, 6, 51, 95
13, 66000, Note_on_c, 6, 40, 95
13, 66240, Note_off_c, 6, 40, 95
13, 66720, Note_off_c, 6, 51, 95
13, 66720, Note_off_c, 6, 55, 95
13, 66720, Note_off_c, 6, 58, 95
13, 66720, Note_on_c, 6, 58, 95
13, 66720, Note_on_c, 6, 53, 95
13, 66720, Note_on_c, 6, 50, 95
13, 66720, Note_on_c, 6, 46, 95
13, 69120, Note_off_c, 6, 46, 95
13, 69120, Note_off_c, 6, 53, 95
13, 69120, Note_off_c, 6, 58, 95
13, 69600, Note_on_c, 6, 62, 95
13, 69600, Note_on_c, 6, 58, 95
13, 69600, Note_on_c, 6, 53, 95
13, 70080, Note_off_c, 6, 53, 95
13, 70080, Note_off_c, 6, 58, 95
13, 70080, Note_off_c, 6, 62, 95
13, 70080, Note_off_c, 6, 50, 95
13, 70080, Note_on_c, 6, 62, 95
13, 70080, Note_on_c, 6, 58, 95
13, 70080, Note_on_c, 6, 53, 95
13, 71040, Note_off_c, 6, 53, 95
13, 71040, Note_off_c, 6, 58, 95
13, 71040, Note_off_c, 6, 62, 95
13, 71040, Note_on_c, 6, 46, 95
13, 71520, Note_off_c, 6, 46, 95
13, 71520, Note_on_c, 6, 62, 95
13, 71520, Note_on_c, 6, 58, 95
13, 71520, Note_on_c, 6, 53, 95
13, 71520, Note_on_c, 6, 41, 95
13, 71760, Note_off_c, 6, 41, 95
13, 71760, Note_off_c, 6, 53, 95
13, 71760, Note_off_c, 6, 58, 95
13, 71760, Note_off_c, 6, 62, 95
13, 71760, Note_on_c, 6, 62, 95
13, 71760, Note_on_c, 6, 58, 95
13, 71760, Note_on_c, 6, 53, 95
13, 71760, Note_on_c, 6, 41, 95
13, 72240, Note_off_c, 6, 41, 95
13, 72240, Note_off_c, 6, 53, 95
13, 72240, Note_off_c, 6, 58, 95
13, 72240, Note_off_c, 6, 62, 95
13, 72240, Note_on_c, 6, 62, 95
13, 72240, Note_on_c, 6, 58, 95
13, 72240, Note_on_c, 6, 53, 95
13, 72480, Note_off_c, 6, 53, 95
13, 72480, Note_off_c, 6, 58, 95
13, 72480, Note_off_c, 6, 62, 95
13, 72480, Note_on_c, 6, 62, 95
13, 72480, Note_on_c, 6, 58, 95
13, 72480, Note_on_c, 6, 53, 95
13, 72480, Note_on_c, 6, 41, 95
13, 72960, Note_off_c, 6, 41, 95
13, 72960, Note_off_c, 6, 53, 95
13, 72960, Note_off_c, 6, 58, 95
13, 72960, Note_off_c, 6, 62, 95
13, 72960, Note_on_c, 6, 46, 95
13, 73440, Note_on_c, 6, 62, 95
13, 73440, Note_on_c, 6, 58, 95
13, 73440, Note_on_c, 6, 53, 95
13, 73920, Note_off_c, 6, 53, 95
13, 73920, Note_off_c, 6, 58, 95
13, 73920, Note_off_c, 6, 62, 95
13, 73920, Note_off_c, 6, 46, 95
13, 73920, Note_on_c, 6, 62, 95
13, 73920, Note_on_c, 6, 58, 95
13, 73920, Note_on_c, 6, 53, 95
13, 74880, Note_off_c, 6, 53, 95
13, 74880, Note_off_c, 6, 58, 95
13, 74880, Note_off_c, 6, 62, 95
13, 74880, Note_on_c, 6, 46, 95
13, 75360, Note_on_c, 6, 62, 95
13, 75360, Note_on_c, 6, 58, 95
13, 75360, Note_on_c, 6, 53, 95
13, 75600, Note_off_c, 6, 53, 95
13, 75600, Note_off_c, 6, 58, 95
13, 75600, Note_off_c, 6, 62, 95
13, 75600, Note_on_c, 6, 62, 95
13, 75600, Note_on_c, 6, 58, 95
13, 75600, Note_on_c, 6, 53, 95
13, 75840, Note_off_c, 6, 46, 95
13, 76080, Note_off_c, 6, 53, 95
13, 76080, Note_off_c, 6, 58, 95
13, 76080, Note_off_c, 6, 62, 95
13, 76080, Note_on_c, 6, 62, 95
13, 76080, Note_on_c, 6, 58, 95
13, 76080, Note_on_c, 6, 53, 95
13, 76320, Note_off_c, 6, 53, 95
13, 76320, Note_off_c, 6, 58, 95
13, 76320, Note_off_c, 6, 62, 95
13, 76320, Note_on_c, 6, 62, 95
13, 76320, Note_on_c, 6, 58, 95
13, 76320, Note_on_c, 6, 53, 95
13, 76800, Note_off_c, 6, 53, 95
13, 76800, Note_off_c, 6, 58, 95
13, 76800, Note_off_c, 6, 62, 95
13, 76800, Note_on_c, 6, 46, 95
13, 77280, Note_on_c, 6, 62, 95
13, 77280, Note_on_c, 6, 58, 95
13, 77280, Note_on_c, 6, 53, 95
13, 77760, Note_off_c, 6, 53, 95
13, 77760, Note_off_c, 6, 58, 95
13, 77760, Note_off_c, 6, 62, 95
13, 77760, Note_off_c, 6, 46, 95
13, 77760, Note_on_c, 6, 62, 95
13, 77760, Note_on_c, 6, 58, 95
13, 77760, Note_on_c, 6, 53, 95
13, 78720, Note_off_c, 6, 53, 95
13, 78720, Note_off_c, 6, 58, 95
13, 78720, Note_off_c, 6, 62, 95
13, 78720, Note_on_c, 6, 46, 95
13, 79200, Note_off_c, 6, 46, 95
13, 79200, Note_on_c, 6, 62, 95
13, 79200, Note_on_c, 6, 58, 95
13, 79200, Note_on_c, 6, 53, 95
13, 79200, Note_on_c, 6, 41, 95
13, 79440, Note_off_c, 6, 41, 95
13, 79440, Note_off_c, 6, 53, 95
13, 79440, Note_off_c, 6, 58, 95
13, 79440, Note_off_c, 6, 62, 95
13, 79440, Note_on_c, 6, 62, 95
13, 79440, Note_on_c, 6, 58, 95
13, 79440, Note_on_c, 6, 53, 95
13, 79440, Note_on_c, 6, 41, 95
13, 79920, Note_off_c, 6, 41, 95
13, 79920, Note_off_c, 6, 53, 95
13, 79920, Note_off_c, 6, 58, 95
13, 79920, Note_off_c, 6, 62, 95
13, 79920, Note_on_c, 6, 62, 95
13, 79920, Note_on_c, 6, 58, 95
13, 79920, Note_on_c, 6, 53, 95
13, 80160, Note_off_c, 6, 53, 95
13, 80160, Note_off_c, 6, 58, 95
13, 80160, Note_off_c, 6, 62, 95
13, 80160, Note_on_c, 6, 62, 95
13, 80160, Note_on_c, 6, 58, 95
13, 80160, Note_on_c, 6, 53, 95
13, 80160, Note_on_c, 6, 41, 95
13, 80640, Note_off_c, 6, 41, 95
13, 80640, Note_off_c, 6, 53, 95
13, 80640, Note_off_c, 6, 58, 95
13, 80640, Note_off_c, 6, 62, 95
13, 80640, Note_on_c, 6, 46, 95
13, 81120, Note_on_c, 6, 62, 95
13, 81120, Note_on_c, 6, 58, 95
13, 81120, Note_on_c, 6, 53, 95
13, 81600, Note_off_c, 6, 53, 95
13, 81600, Note_off_c, 6, 58, 95
13, 81600, Note_off_c, 6, 62, 95
13, 81600, Note_off_c, 6, 46, 95
13, 81600, Note_on_c, 6, 62, 95
13, 81600, Note_on_c, 6, 58, 95
13, 81600, Note_on_c, 6, 53, 95
13, 82560, Note_off_c, 6, 53, 95
13, 82560, Note_off_c, 6, 58, 95
13, 82560, Note_off_c, 6, 62, 95
13, 82560, Note_on_c, 6, 46, 95
13, 83040, Note_on_c, 6, 62, 95
13, 83040, Note_on_c, 6, 58, 95
13, 83040, Note_on_c, 6, 53, 95
13, 83280, Note_off_c, 6, 53, 95
13, 83280, Note_off_c, 6, 58, 95
13, 83280, Note_off_c, 6, 62, 95
13, 83280, Note_on_c, 6, 62, 95
13, 83280, Note_on_c, 6, 58, 95
13, 83280, Note_on_c, 6, 53, 95
13, 83520, Note_off_c, 6, 46, 95
13, 83760, Note_off_c, 6, 53, 95
13, 83760, Note_off_c, 6, 58, 95
13, 83760, Note_off_c, 6, 62, 95
13, 83760, Note_on_c, 6, 62, 95
13, 83760, Note_on_c, 6, 58, 95
13, 83760, Note_on_c, 6, 53, 95
13, 84000, Note_off_c, 6, 53, 95
13, 84000, Note_off_c, 6, 58, 95
13, 84000, Note_off_c, 6, 62, 95
13, 84000, Note_on_c, 6, 62, 95
13, 84000, Note_on_c, 6, 58, 95
13, 84000, Note_on_c, 6, 53, 95
13, 84480, Note_off_c, 6, 53, 95
13, 84480, Note_off_c, 6, 58, 95
13, 84480, Note_off_c, 6, 62, 95
13, 84480, Note_on_c, 6, 46, 95
13, 84960, Note_on_c, 6, 62, 95
13, 84960, Note_on_c, 6, 58, 95
13, 84960, Note_on_c, 6, 53, 95
13, 85440, Note_off_c, 6, 53, 95
13, 85440, Note_off_c, 6, 58, 95
13, 85440, Note_off_c, 6, 62, 95
13, 85440, Note_off_c, 6, 46, 95
13, 85440, Note_on_c, 6, 62, 95
13, 85440, Note_on_c, 6, 58, 95
13, 85440, Note_on_c, 6, 53, 95
13, 86400, Note_off_c, 6, 53, 95
13, 86400, Note_off_c, 6, 58, 95
13, 86400, Note_off_c, 6, 62, 95
13, 86400, Note_on_c, 6, 46, 95
13, 86880, Note_off_c, 6, 46, 95
13, 86880, Note_on_c, 6, 62, 95
13, 86880, Note_on_c, 6, 58, 95
13, 86880, Note_on_c, 6, 53, 95
13, 86880, Note_on_c, 6, 41, 95
13, 87120, Note_off_c, 6, 41, 95
13, 87120, Note_off_c, 6, 53, 95
13, 87120, Note_off_c, 6, 58, 95
13, 87120, Note_off_c, 6, 62, 95
13, 87120, Note_on_c, 6, 62, 95
13, 87120, Note_on_c, 6, 58, 95
13, 87120, Note_on_c, 6, 53, 95
13, 87120, Note_on_c, 6, 41, 95
13, 87600, Note_off_c, 6, 41, 95
13, 87600, Note_off_c, 6, 53, 95
13, 87600, Note_off_c, 6, 58, 95
13, 87600, Note_off_c, 6, 62, 95
13, 87600, Note_on_c, 6, 62, 95
13, 87600, Note_on_c, 6, 58, 95
13, 87600, Note_on_c, 6, 53, 95
13, 87840, Note_off_c, 6, 53, 95
13, 87840, Note_off_c, 6, 58, 95
13, 87840, Note_off_c, 6, 62, 95
13, 87840, Note_on_c, 6, 62, 95
13, 87840, Note_on_c, 6, 58, 95
13, 87840, Note_on_c, 6, 53, 95
13, 87840, Note_on_c, 6, 41, 95
13, 88320, Note_off_c, 6, 41, 95
13, 88320, Note_off_c, 6, 53, 95
13, 88320, Note_off_c, 6, 58, 95
13, 88320, Note_off_c, 6, 62, 95
13, 88320, Note_on_c, 6, 46, 95
13, 88800, Note_on_c, 6, 62, 95
13, 88800, Note_on_c, 6, 58, 95
13, 88800, Note_on_c, 6, 53, 95
13, 89280, Note_off_c, 6, 53, 95
13, 89280, Note_off_c, 6, 58, 95
13, 89280, Note_off_c, 6, 62, 95
13, 89280, Note_off_c, 6, 46, 95
13, 89280, Note_on_c, 6, 62, 95
13, 89280, Note_on_c, 6, 58, 95
13, 89280, Note_on_c, 6, 53, 95
13, 90240, Note_off_c, 6, 53, 95
13, 90240, Note_off_c, 6, 58, 95
13, 90240, Note_off_c, 6, 62, 95
13, 90240, Note_on_c, 6, 46, 95
13, 90720, Note_on_c, 6, 62, 95
13, 90720, Note_on_c, 6, 58, 95
13, 90720, Note_on_c, 6, 53, 95
13, 90960, Note_off_c, 6, 53, 95
13, 90960, Note_off_c, 6, 58, 95
13, 90960, Note_off_c, 6, 62, 95
13, 90960, Note_on_c, 6, 62, 95
13, 90960, Note_on_c, 6, 58, 95
13, 90960, Note_on_c, 6, 53, 95
13, 91440, Note_off_c, 6, 53, 95
13, 91440, Note_off_c, 6, 58, 95
13, 91440, Note_off_c, 6, 62, 95
13, 91440, Note_on_c, 6, 62, 95
13, 91440, Note_on_c, 6, 58, 95
13, 91440, Note_on_c, 6, 53, 95
13, 91680, Note_off_c, 6, 53, 95
13, 91680, Note_off_c, 6, 58, 95
13, 91680, Note_off_c, 6, 62, 95
13, 91680, Note_on_c, 6, 62, 95
13, 91680, Note_on_c, 6, 58, 95
13, 91680, Note_on_c, 6, 53, 95
13, 92160, Note_off_c, 6, 53, 95
13, 92160, Note_off_c, 6, 58, 95
13, 92160, Note_off_c, 6, 62, 95
13, 92640, Note_on_c, 6, 62, 95
13, 92640, Note_on_c, 6, 58, 95
13, 92640, Note_on_c, 6, 53, 95
13, 93120, Note_off_c, 6, 53, 95
13, 93120, Note_off_c, 6, 58, 95
13, 93120, Note_off_c, 6, 62, 95
13, 93120, Note_off_c, 6, 46, 95
13, 93120, Note_on_c, 6, 62, 95
13, 93120, Note_on_c, 6, 58, 95
13, 93120, Note_on_c, 6, 53, 95
13, 94080, Note_off_c, 6, 53, 95
13, 94080, Note_off_c, 6, 58, 95
13, 94080, Note_off_c, 6, 62, 95
13, 94080, Note_on_c, 6, 46, 95
13, 94560, Note_off_c, 6, 46, 95
13, 94560, Note_on_c, 6, 62, 95
13, 94560, Note_on_c, 6, 58, 95
13, 94560, Note_on_c, 6, 53, 95
13, 94560, Note_on_c, 6, 41, 95
13, 94800, Note_off_c, 6, 41, 95
13, 94800, Note_off_c, 6, 53, 95
13, 94800, Note_off_c, 6, 58, 95
13, 94800, Note_off_c, 6, 62, 95
13, 94800, Note_on_c, 6, 62, 95
13, 94800, Note_on_c, 6, 58, 95
13, 94800, Note_on_c, 6, 53, 95
13, 94800, Note_on_c, 6, 41, 95
13, 95280, Note_off_c, 6, 41, 95
13, 95280, Note_off_c, 6, 53, 95
13, 95280, Note_off_c, 6, 58, 95
13, 95280, Note_off_c, 6, 62, 95
13, 95280, Note_on_c, 6, 62, 95
13, 95280, Note_on_c, 6, 58, 95
13, 95280, Note_on_c, 6, 53, 95
13, 95520, Note_off_c, 6, 53, 95
13, 95520, Note_off_c, 6, 58, 95
13, 95520, Note_off_c, 6, 62, 95
13, 95520, Note_on_c, 6, 62, 95
13, 95520, Note_on_c, 6, 58, 95
13, 95520, Note_on_c, 6, 53, 95
13, 95520, Note_on_c, 6, 41, 95
13, 96000, Note_off_c, 6, 41, 95
13, 96000, Note_off_c, 6, 53, 95
13, 96000, Note_off_c, 6, 58, 95
13, 96000, Note_off_c, 6, 62, 95
13, 96000, Note_on_c, 6, 46, 95
13, 96480, Note_on_c, 6, 62, 95
13, 96480, Note_on_c, 6, 58, 95
13, 96480, Note_on_c, 6, 53, 95
13, 96960, Note_off_c, 6, 53, 95
13, 96960, Note_off_c, 6, 58, 95
13, 96960, Note_off_c, 6, 62, 95
13, 96960, Note_off_c, 6, 46, 95
13, 96960, Note_on_c, 6, 62, 95
13, 96960, Note_on_c, 6, 58, 95
13, 96960, Note_on_c, 6, 53, 95
13, 97920, Note_off_c, 6, 53, 95
13, 97920, Note_off_c, 6, 58, 95
13, 97920, Note_off_c, 6, 62, 95
13, 97920, Note_on_c, 6, 46, 95
13, 98400, Note_on_c, 6, 62, 95
13, 98400, Note_on_c, 6, 58, 95
13, 98400, Note_on_c, 6, 53, 95
13, 98640, Note_off_c, 6, 53, 95
13, 98640, Note_off_c, 6, 58, 95
13, 98640, Note_off_c, 6, 62, 95
13, 98640, Note_on_c, 6, 62, 95
13, 98640, Note_on_c, 6, 58, 95
13, 98640, Note_on_c, 6, 53, 95
13, 98880, Note_off_c, 6, 46, 95
13, 99120, Note_off_c, 6, 53, 95
13, 99120, Note_off_c, 6, 58, 95
13, 99120, Note_off_c, 6, 62, 95
13, 99120, Note_on_c, 6, 62, 95
13, 99120, Note_on_c, 6, 58, 95
13, 99120, Note_on_c, 6, 53, 95
13, 99360, Note_off_c, 6, 53, 95
13, 99360, Note_off_c, 6, 58, 95
13, 99360, Note_off_c, 6, 62, 95
13, 99360, Note_on_c, 6, 62, 95
13, 99360, Note_on_c, 6, 58, 95
13, 99360, Note_on_c, 6, 53, 95
13, 99600, Note_off_c, 6, 53, 95
13, 99600, Note_off_c, 6, 58, 95
13, 99600, Note_off_c, 6, 62, 95
13, 99600, Note_on_c, 6, 62, 95
13, 99600, Note_on_c, 6, 58, 95
13, 99600, Note_on_c, 6, 53, 95
13, 99840, Note_off_c, 6, 53, 95
13, 99840, Note_off_c, 6, 58, 95
13, 99840, Note_off_c, 6, 62, 95
13, 99840, Note_on_c, 6, 41, 95
13, 100320, Note_on_c, 6, 60, 95
13, 100320, Note_on_c, 6, 57, 95
13, 100320, Note_on_c, 6, 51, 95
13, 100800, Note_off_c, 6, 51, 95
13, 100800, Note_off_c, 6, 57, 95
13, 100800, Note_off_c, 6, 60, 95
13, 100800, Note_off_c, 6, 41, 95
13, 100800, Note_on_c, 6, 60, 95
13, 100800, Note_on_c, 6, 57, 95
13, 100800, Note_on_c, 6, 51, 95
13, 101520, Note_off_c, 6, 51, 95
13, 101520, Note_off_c, 6, 57, 95
13, 101520, Note_off_c, 6, 60, 95
13, 101520, Note_on_c, 6, 62, 95
13, 101520, Note_on_c, 6, 58, 95
13, 101520, Note_on_c, 6, 53, 95
13, 101760, Note_on_c, 6, 41, 95
13, 102000, Note_off_c, 6, 53, 95
13, 102000, Note_off_c, 6, 58, 95
13, 102000, Note_off_c, 6, 62, 95
13, 102000, Note_on_c, 6, 62, 95
13, 102000, Note_on_c, 6, 58, 95
13, 102000, Note_on_c, 6, 53, 95
13, 102480, Note_off_c, 6, 53, 95
13, 102480, Note_off_c, 6, 58, 95
13, 102480, Note_off_c, 6, 62, 95
13, 102480, Note_on_c, 6, 62, 95
13, 102480, Note_on_c, 6, 58, 95
13, 102480, Note_on_c, 6, 53, 95
13, 102720, Note_off_c, 6, 53, 95
13, 102720, Note_off_c, 6, 58, 95
13, 102720, Note_off_c, 6, 62, 95
13, 102720, Note_off_c, 6, 41, 95
13, 102720, Note_on_c, 6, 62, 95
13, 102720, Note_on_c, 6, 58, 95
13, 102720, Note_on_c, 6, 53, 95
13, 102960, Note_off_c, 6, 53, 95
13, 102960, Note_off_c, 6, 58, 95
13, 102960, Note_off_c, 6, 62, 95
13, 102960, Note_on_c, 6, 62, 95
13, 102960, Note_on_c, 6, 58, 95
13, 102960, Note_on_c, 6, 53, 95
13, 103200, Note_off_c, 6, 53, 95
13, 103200, Note_off_c, 6, 58, 95
13, 103200, Note_off_c, 6, 62, 95
13, 103200, Note_on_c, 6, 62, 95
13, 103200, Note_on_c, 6, 58, 95
13, 103200, Note_on_c, 6, 53, 95
13, 103680, Note_off_c, 6, 53, 95
13, 103680, Note_off_c, 6, 58, 95
13, 103680, Note_off_c, 6, 62, 95
13, 103680, Note_on_c, 6, 41, 95
13, 104160, Note_on_c, 6, 60, 95
13, 104160, Note_on_c, 6, 57, 95
13, 104160, Note_on_c, 6, 51, 95
13, 104640, Note_off_c, 6, 51, 95
13, 104640, Note_off_c, 6, 57, 95
13, 104640, Note_off_c, 6, 60, 95
13, 104640, Note_off_c, 6, 41, 95
13, 104640, Note_on_c, 6, 60, 95
13, 104640, Note_on_c, 6, 57, 95
13, 104640, Note_on_c, 6, 51, 95
13, 105360, Note_off_c, 6, 51, 95
13, 105360, Note_off_c, 6, 57, 95
13, 105360, Note_off_c, 6, 60, 95
13, 105360, Note_on_c, 6, 60, 95
13, 105360, Note_on_c, 6, 57, 95
13, 105360, Note_on_c, 6, 51, 95
13, 105600, Note_on_c, 6, 41, 95
13, 105840, Note_off_c, 6, 51, 95
13, 105840, Note_off_c, 6, 57, 95
13, 105840, Note_off_c, 6, 60, 95
13, 105840, Note_on_c, 6, 60, 95
13, 105840, Note_on_c, 6, 57, 95
13, 105840, Note_on_c, 6, 51, 95
13, 106320, Note_off_c, 6, 51, 95
13, 106320, Note_off_c, 6, 57, 95
13, 106320, Note_off_c, 6, 60, 95
13, 106320, Note_on_c, 6, 60, 95
13, 106320, Note_on_c, 6, 57, 95
13, 106320, Note_on_c, 6, 51, 95
13, 106560, Note_off_c, 6, 51, 95
13, 106560, Note_off_c, 6, 57, 95
13, 106560, Note_off_c, 6, 60, 95
13, 106560, Note_off_c, 6, 41, 95
13, 106560, Note_on_c, 6, 60, 95
13, 106560, Note_on_c, 6, 57, 95
13, 106560, Note_on_c, 6, 51, 95
13, 106800, Note_off_c, 6, 51, 95
13, 106800, Note_off_c, 6, 57, 95
13, 106800, Note_off_c, 6, 60, 95
13, 106800, Note_on_c, 6, 60, 95
13, 106800, Note_on_c, 6, 57, 95
13, 106800, Note_on_c, 6, 51, 95
13, 107040, Note_off_c, 6, 51, 95
13, 107040, Note_off_c, 6, 57, 95
13, 107040, Note_off_c, 6, 60, 95
13, 107040, Note_on_c, 6, 60, 95
13, 107040, Note_on_c, 6, 57, 95
13, 107040, Note_on_c, 6, 51, 95
13, 107520, Note_off_c, 6, 51, 95
13, 107520, Note_off_c, 6, 57, 95
13, 107520, Note_off_c, 6, 60, 95
13, 107520, Note_on_c, 6, 60, 95
13, 107520, Note_on_c, 6, 57, 95
13, 107520, Note_on_c, 6, 51, 95
13, 107520, Note_on_c, 6, 41, 95
13, 108480, Note_off_c, 6, 41, 95
13, 108480, Note_off_c, 6, 51, 95
13, 108480, Note_off_c, 6, 57, 95
13, 108480, Note_off_c, 6, 60, 95
13, 115200, Note_on_c, 6, 56, 95
13, 115200, Note_on_c, 6, 51, 95
13, 115200, Note_on_c, 6, 48, 95
13, 115200, Note_on_c, 6, 44, 95
13, 115680, Note_off_c, 6, 44, 95
13, 115680, Note_off_c, 6, 48, 95
13, 115680, Note_off_c, 6, 51, 95
13, 115680, Note_off_c, 6, 56, 95
13, 115680, Note_on_c, 6, 56, 95
13, 115680, Note_on_c, 6, 51, 95
13, 115680, Note_on_c, 6, 48, 95
13, 115680, Note_on_c, 6, 44, 95
13, 115920, Note_off_c, 6, 44, 95
13, 115920, Note_off_c, 6, 48, 95
13, 115920, Note_off_c, 6, 51, 95
13, 115920, Note_off_c, 6, 56, 95
13, 115920, Note_on_c, 6, 55, 95
13, 115920, Note_on_c, 6, 51, 95
13, 115920, Note_on_c, 6, 46, 95
13, 116400, Note_off_c, 6, 46, 95
13, 116400, Note_off_c, 6, 51, 95
13, 116400, Note_off_c, 6, 55, 95
13, 116400, Note_on_c, 6, 55, 95
13, 116400, Note_on_c, 6, 51, 95
13, 116400, Note_on_c, 6, 46, 95
13, 116640, Note_off_c, 6, 46, 95
13, 116640, Note_off_c, 6, 51, 95
13, 116640, Note_off_c, 6, 55, 95
13, 116640, Note_on_c, 6, 53, 95
13, 116640, Note_on_c, 6, 50, 95
13, 116640, Note_on_c, 6, 46, 95
13, 119040, Note_off_c, 6, 46, 95
13, 119040, Note_off_c, 6, 50, 95
13, 119040, Note_off_c, 6, 53, 95
13, 119040, Note_on_c, 6, 56, 95
13, 119040, Note_on_c, 6, 51, 95
13, 119040, Note_on_c, 6, 48, 95
13, 119040, Note_on_c, 6, 44, 95
13, 119520, Note_off_c, 6, 44, 95
13, 119520, Note_off_c, 6, 48, 95
13, 119520, Note_off_c, 6, 51, 95
13, 119520, Note_off_c, 6, 56, 95
13, 119520, Note_on_c, 6, 56, 95
13, 119520, Note_on_c, 6, 51, 95
13, 119520, Note_on_c, 6, 48, 95
13, 119520, Note_on_c, 6, 44, 95
13, 119760, Note_off_c, 6, 44, 95
13, 119760, Note_off_c, 6, 48, 95
13, 119760, Note_off_c, 6, 51, 95
13, 119760, Note_off_c, 6, 56, 95
13, 119760, Note_on_c, 6, 55, 95
13, 119760, Note_on_c, 6, 51, 95
13, 119760, Note_on_c, 6, 46, 95
13, 120240, Note_off_c, 6, 46, 95
13, 120240, Note_off_c, 6, 51, 95
13, 120240, Note_off_c, 6, 55, 95
13, 120240, Note_on_c, 6, 55, 95
13, 120240, Note_on_c, 6, 51, 95
13, 120240, Note_on_c, 6, 46, 95
13, 120480, Note_off_c, 6, 46, 95
13, 120480, Note_off_c, 6, 51, 95
13, 120480, Note_off_c, 6, 55, 95
13, 120480, Note_on_c, 6, 53, 95
13, 120480, Note_on_c, 6, 50, 95
13, 120480, Note_on_c, 6, 46, 95
13, 122880, Note_off_c, 6, 46, 95
13, 122880, Note_off_c, 6, 50, 95
13, 122880, Note_off_c, 6, 53, 95
13, 122880, Note_on_c, 6, 56, 95
13, 122880, Note_on_c, 6, 51, 95
13, 122880, Note_on_c, 6, 48, 95
13, 122880, Note_on_c, 6, 44, 95
13, 123360, Note_off_c, 6, 44, 95
13, 123360, Note_off_c, 6, 48, 95
13, 123360, Note_off_c, 6, 51, 95
13, 123360, Note_off_c, 6, 56, 95
13, 123360, Note_on_c, 6, 56, 95
13, 123360, Note_on_c, 6, 51, 95
13, 123360, Note_on_c, 6, 48, 95
13, 123360, Note_on_c, 6, 44, 95
13, 123600, Note_off_c, 6, 44, 95
13, 123600, Note_off_c, 6, 48, 95
13, 123600, Note_off_c, 6, 51, 95
13, 123600, Note_off_c, 6, 56, 95
13, 123600, Note_on_c, 6, 55, 95
13, 123600, Note_on_c, 6, 51, 95
13, 123600, Note_on_c, 6, 46, 95
13, 124080, Note_off_c, 6, 46, 95
13, 124080, Note_off_c, 6, 51, 95
13, 124080, Note_off_c, 6, 55, 95
13, 124080, Note_on_c, 6, 55, 95
13, 124080, Note_on_c, 6, 51, 95
13, 124080, Note_on_c, 6, 46, 95
13, 124320, Note_off_c, 6, 46, 95
13, 124320, Note_off_c, 6, 51, 95
13, 124320, Note_off_c, 6, 55, 95
13, 124320, Note_on_c, 6, 53, 95
13, 124320, Note_on_c, 6, 50, 95
13, 124320, Note_on_c, 6, 46, 95
13, 126720, Note_off_c, 6, 46, 95
13, 126720, Note_off_c, 6, 50, 95
13, 126720, Note_off_c, 6, 53, 95
13, 126720, Note_on_c, 6, 56, 95
13, 126720, Note_on_c, 6, 51, 95
13, 126720, Note_on_c, 6, 48, 95
13, 126720, Note_on_c, 6, 44, 95
13, 127200, Note_off_c, 6, 44, 95
13, 127200, Note_off_c, 6, 48, 95
13, 127200, Note_off_c, 6, 51, 95
13, 127200, Note_off_c, 6, 56, 95
13, 127200, Note_on_c, 6, 56, 95
13, 127200, Note_on_c, 6, 51, 95
13, 127200, Note_on_c, 6, 48, 95
13, 127200, Note_on_c, 6, 44, 95
13, 127440, Note_off_c, 6, 44, 95
13, 127440, Note_off_c, 6, 48, 95
13, 127440, Note_off_c, 6, 51, 95
13, 127440, Note_off_c, 6, 56, 95
13, 127440, Note_on_c, 6, 55, 95
13, 127440, Note_on_c, 6, 51, 95
13, 127440, Note_on_c, 6, 46, 95
13, 127920, Note_off_c, 6, 46, 95
13, 127920, Note_off_c, 6, 51, 95
13, 127920, Note_off_c, 6, 55, 95
13, 127920, Note_on_c, 6, 55, 95
13, 127920, Note_on_c, 6, 51, 95
13, 127920, Note_on_c, 6, 46, 95
13, 128160, Note_off_c, 6, 46, 95
13, 128160, Note_off_c, 6, 51, 95
13, 128160, Note_off_c, 6, 55, 95
13, 128160, Note_on_c, 6, 53, 95
13, 128160, Note_on_c, 6, 50, 95
13, 128160, Note_on_c, 6, 46, 95
13, 130560, Note_off_c, 6, 46, 95
13, 130560, Note_off_c, 6, 50, 95
13, 130560, Note_off_c, 6, 53, 95
13, 130560, Note_on_c, 6, 46, 95
13, 131040, Note_on_c, 6, 62, 95
13, 131040, Note_on_c, 6, 58, 95
13, 131040, Note_on_c, 6, 53, 95
13, 131520, Note_off_c, 6, 53, 95
13, 131520, Note_off_c, 6, 58, 95
13, 131520, Note_off_c, 6, 62, 95
13, 131520, Note_off_c, 6, 46, 95
13, 131520, Note_on_c, 6, 62, 95
13, 131520, Note_on_c, 6, 58, 95
13, 131520, Note_on_c, 6, 53, 95
13, 132480, Note_off_c, 6, 53, 95
13, 132480, Note_off_c, 6, 58, 95
13, 132480, Note_off_c, 6, 62, 95
13, 132480, Note_on_c, 6, 46, 95
13, 132960, Note_off_c, 6, 46, 95
13, 132960, Note_on_c, 6, 62, 95
13, 132960, Note_on_c, 6, 58, 95
13, 132960, Note_on_c, 6, 53, 95
13, 132960, Note_on_c, 6, 41, 95
13, 133200, Note_off_c, 6, 41, 95
13, 133200, Note_off_c, 6, 53, 95
13, 133200, Note_off_c, 6, 58, 95
13, 133200, Note_off_c, 6, 62, 95
13, 133200, Note_on_c, 6, 62, 95
13, 133200, Note_on_c, 6, 58, 95
13, 133200, Note_on_c, 6, 53, 95
13, 133200, Note_on_c, 6, 41, 95
13, 133680, Note_off_c, 6, 41, 95
13, 133680, Note_off_c, 6, 53, 95
13, 133680, Note_off_c, 6, 58, 95
13, 133680, Note_off_c, 6, 62, 95
13, 133680, Note_on_c, 6, 62, 95
13, 133680, Note_on_c, 6, 58, 95
13, 133680, Note_on_c, 6, 53, 95
13, 133920, Note_off_c, 6, 53, 95
13, 133920, Note_off_c, 6, 58, 95
13, 133920, Note_off_c, 6, 62, 95
13, 133920, Note_on_c, 6, 62, 95
13, 133920, Note_on_c, 6, 58, 95
13, 133920, Note_on_c, 6, 53, 95
13, 133920, Note_on_c, 6, 41, 95
13, 134400, Note_off_c, 6, 41, 95
13, 134400, Note_off_c, 6, 53, 95
13, 134400, Note_off_c, 6, 58, 95
13, 134400, Note_off_c, 6, 62, 95
13, 134400, Note_on_c, 6, 46, 95
13, 134880, Note_on_c, 6, 62, 95
13, 134880, Note_on_c, 6, 58, 95
13, 134880, Note_on_c, 6, 53, 95
13, 135360, Note_off_c, 6, 53, 95
13, 135360, Note_off_c, 6, 58, 95
13, 135360, Note_off_c, 6, 62, 95
13, 135360, Note_off_c, 6, 46, 95
13, 135360, Note_on_c, 6, 62, 95
13, 135360, Note_on_c, 6, 58, 95
13, 135360, Note_on_c, 6, 53, 95
13, 136320, Note_off_c, 6, 53, 95
13, 136320, Note_off_c, 6, 58, 95
13, 136320, Note_off_c, 6, 62, 95
13, 136320, Note_on_c, 6, 46, 95
13, 136800, Note_on_c, 6, 62, 95
13, 136800, Note_on_c, 6, 58, 95
13, 136800, Note_on_c, 6, 53, 95
13, 137040, Note_off_c, 6, 53, 95
13, 137040, Note_off_c, 6, 58, 95
13, 137040, Note_off_c, 6, 62, 95
13, 137040, Note_on_c, 6, 62, 95
13, 137040, Note_on_c, 6, 58, 95
13, 137040, Note_on_c, 6, 53, 95
13, 137280, Note_off_c, 6, 46, 95
13, 137520, Note_off_c, 6, 53, 95
13, 137520, Note_off_c, 6, 58, 95
13, 137520, Note_off_c, 6, 62, 95
13, 137520, Note_on_c, 6, 62, 95
13, 137520, Note_on_c, 6, 58, 95
13, 137520, Note_on_c, 6, 53, 95
13, 137760, Note_off_c, 6, 53, 95
13, 137760, Note_off_c, 6, 58, 95
13, 137760, Note_off_c, 6, 62, 95
13, 137760, Note_on_c, 6, 62, 95
13, 137760, Note_on_c, 6, 58, 95
13, 137760, Note_on_c, 6, 53, 95
13, 138240, Note_off_c, 6, 53, 95
13, 138240, Note_off_c, 6, 58, 95
13, 138240, Note_off_c, 6, 62, 95
13, 138240, Note_on_c, 6, 46, 95
13, 138720, Note_on_c, 6, 62, 95
13, 138720, Note_on_c, 6, 58, 95
13, 138720, Note_on_c, 6, 53, 95
13, 139200, Note_off_c, 6, 53, 95
13, 139200, Note_off_c, 6, 58, 95
13, 139200, Note_off_c, 6, 62, 95
13, 139200, Note_off_c, 6, 46, 95
13, 139200, Note_on_c, 6, 62, 95
13, 139200, Note_on_c, 6, 58, 95
13, 139200, Note_on_c, 6, 53, 95
13, 140160, Note_off_c, 6, 53, 95
13, 140160, Note_off_c, 6, 58, 95
13, 140160, Note_off_c, 6, 62, 95
13, 140160, Note_on_c, 6, 46, 95
13, 140640, Note_off_c, 6, 46, 95
13, 140640, Note_on_c, 6, 62, 95
13, 140640, Note_on_c, 6, 58, 95
13, 140640, Note_on_c, 6, 53, 95
13, 140640, Note_on_c, 6, 41, 95
13, 140880, Note_off_c, 6, 41, 95
13, 140880, Note_off_c, 6, 53, 95
13, 140880, Note_off_c, 6, 58, 95
13, 140880, Note_off_c, 6, 62, 95
13, 140880, Note_on_c, 6, 62, 95
13, 140880, Note_on_c, 6, 58, 95
13, 140880, Note_on_c, 6, 53, 95
13, 140880, Note_on_c, 6, 41, 95
13, 141360, Note_off_c, 6, 41, 95
13, 141360, Note_off_c, 6, 53, 95
13, 141360, Note_off_c, 6, 58, 95
13, 141360, Note_off_c, 6, 62, 95
13, 141360, Note_on_c, 6, 62, 95
13, 141360, Note_on_c, 6, 58, 95
13, 141360, Note_on_c, 6, 53, 95
13, 141600, Note_off_c, 6, 53, 95
13, 141600, Note_off_c, 6, 58, 95
13, 141600, Note_off_c, 6, 62, 95
13, 141600, Note_on_c, 6, 62, 95
13, 141600, Note_on_c, 6, 58, 95
13, 141600, Note_on_c, 6, 53, 95
13, 141600, Note_on_c, 6, 41, 95
13, 142080, Note_off_c, 6, 41, 95
13, 142080, Note_off_c, 6, 53, 95
13, 142080, Note_off_c, 6, 58, 95
13, 142080, Note_off_c, 6, 62, 95
13, 142080, Note_on_c, 6, 46, 95
13, 142560, Note_on_c, 6, 62, 95
13, 142560, Note_on_c, 6, 58, 95
13, 142560, Note_on_c, 6, 53, 95
13, 143040, Note_off_c, 6, 53, 95
13, 143040, Note_off_c, 6, 58, 95
13, 143040, Note_off_c, 6, 62, 95
13, 143040, Note_off_c, 6, 46, 95
13, 143040, Note_on_c, 6, 62, 95
13, 143040, Note_on_c, 6, 58, 95
13, 143040, Note_on_c, 6, 53, 95
13, 144000, Note_off_c, 6, 53, 95
13, 144000, Note_off_c, 6, 58, 95
13, 144000, Note_off_c, 6, 62, 95
13, 144000, Note_on_c, 6, 46, 95
13, 144480, Note_on_c, 6, 62, 95
13, 144480, Note_on_c, 6, 58, 95
13, 144480, Note_on_c, 6, 53, 95
13, 144720, Note_off_c, 6, 53, 95
13, 144720, Note_off_c, 6, 58, 95
13, 144720, Note_off_c, 6, 62, 95
13, 144720, Note_on_c, 6, 62, 95
13, 144720, Note_on_c, 6, 58, 95
13, 144720, Note_on_c, 6, 53, 95
13, 144960, Note_off_c, 6, 46, 95
13, 145200, Note_off_c, 6, 53, 95
13, 145200, Note_off_c, 6, 58, 95
13, 145200, Note_off_c, 6, 62, 95
13, 145200, Note_on_c, 6, 62, 95
13, 145200, Note_on_c, 6, 58, 95
13, 145200, Note_on_c, 6, 53, 95
13, 145440, Note_off_c, 6, 53, 95
13, 145440, Note_off_c, 6, 58, 95
13, 145440, Note_off_c, 6, 62, 95
13, 145440, Note_on_c, 6, 62, 95
13, 145440, Note_on_c, 6, 58, 95
13, 145440, Note_on_c, 6, 53, 95
13, 145920, Note_off_c, 6, 53, 95
13, 145920, Note_off_c, 6, 58, 95
13, 145920, Note_off_c, 6, 62, 95
13, 145920, Note_on_c, 6, 46, 95
13, 146400, Note_on_c, 6, 62, 95
13, 146400, Note_on_c, 6, 58, 95
13, 146400, Note_on_c, 6, 53, 95
13, 146880, Note_off_c, 6, 53, 95
13, 146880, Note_off_c, 6, 58, 95
13, 146880, Note_off_c, 6, 62, 95
13, 146880, Note_off_c, 6, 46, 95
13, 146880, Note_on_c, 6, 62, 95
13, 146880, Note_on_c, 6, 58, 95
13, 146880, Note_on_c, 6, 53, 95
13, 147840, Note_off_c, 6, 53, 95
13, 147840, Note_off_c, 6, 58, 95
13, 147840, Note_off_c, 6, 62, 95
13, 147840, Note_on_c, 6, 46, 95
13, 148320, Note_off_c, 6, 46, 95
13, 148320, Note_on_c, 6, 62, 95
13, 148320, Note_on_c, 6, 58, 95
13, 148320, Note_on_c, 6, 53, 95
13, 148320, Note_on_c, 6, 41, 95
13, 148560, Note_off_c, 6, 41, 95
13, 148560, Note_off_c, 6, 53, 95
13, 148560, Note_off_c, 6, 58, 95
13, 148560, Note_off_c, 6, 62, 95
13, 148560, Note_on_c, 6, 62, 95
13, 148560, Note_on_c, 6, 58, 95
13, 148560, Note_on_c, 6, 53, 95
13, 148560, Note_on_c, 6, 41, 95
13, 149040, Note_off_c, 6, 41, 95
13, 149040, Note_off_c, 6, 53, 95
13, 149040, Note_off_c, 6, 58, 95
13, 149040, Note_off_c, 6, 62, 95
13, 149040, Note_on_c, 6, 62, 95
13, 149040, Note_on_c, 6, 58, 95
13, 149040, Note_on_c, 6, 53, 95
13, 149280, Note_off_c, 6, 53, 95
13, 149280, Note_off_c, 6, 58, 95
13, 149280, Note_off_c, 6, 62, 95
13, 149280, Note_on_c, 6, 62, 95
13, 149280, Note_on_c, 6, 58, 95
13, 149280, Note_on_c, 6, 53, 95
13, 149280, Note_on_c, 6, 41, 95
13, 149760, Note_off_c, 6, 41, 95
13, 149760, Note_off_c, 6, 53, 95
13, 149760, Note_off_c, 6, 58, 95
13, 149760, Note_off_c, 6, 62, 95
13, 149760, Note_on_c, 6, 46, 95
13, 150240, Note_on_c, 6, 62, 95
13, 150240, Note_on_c, 6, 58, 95
13, 150240, Note_on_c, 6, 53, 95
13, 150720, Note_off_c, 6, 53, 95
13, 150720, Note_off_c, 6, 58, 95
13, 150720, Note_off_c, 6, 62, 95
13, 150720, Note_off_c, 6, 46, 95
13, 150720, Note_on_c, 6, 62, 95
13, 150720, Note_on_c, 6, 58, 95
13, 150720, Note_on_c, 6, 53, 95
13, 151680, Note_off_c, 6, 53, 95
13, 151680, Note_off_c, 6, 58, 95
13, 151680, Note_off_c, 6, 62, 95
13, 151680, Note_on_c, 6, 46, 95
13, 152160, Note_on_c, 6, 62, 95
13, 152160, Note_on_c, 6, 58, 95
13, 152160, Note_on_c, 6, 53, 95
13, 152400, Note_off_c, 6, 53, 95
13, 152400, Note_off_c, 6, 58, 95
13, 152400, Note_off_c, 6, 62, 95
13, 152400, Note_on_c, 6, 62, 95
13, 152400, Note_on_c, 6, 58, 95
13, 152400, Note_on_c, 6, 53, 95
13, 152640, Note_off_c, 6, 46, 95
13, 152880, Note_off_c, 6, 53, 95
13, 152880, Note_off_c, 6, 58, 95
13, 152880, Note_off_c, 6, 62, 95
13, 152880, Note_on_c, 6, 62, 95
13, 152880, Note_on_c, 6, 58, 95
13, 152880, Note_on_c, 6, 53, 95
13, 153120, Note_off_c, 6, 53, 95
13, 153120, Note_off_c, 6, 58, 95
13, 153120, Note_off_c, 6, 62, 95
13, 153120, Note_on_c, 6, 62, 95
13, 153120, Note_on_c, 6, 58, 95
13, 153120, Note_on_c, 6, 53, 95
13, 153600, Note_off_c, 6, 53, 95
13, 153600, Note_off_c, 6, 58, 95
13, 153600, Note_off_c, 6, 62, 95
13, 153600, Note_on_c, 6, 46, 95
13, 154080, Note_on_c, 6, 62, 95
13, 154080, Note_on_c, 6, 58, 95
13, 154080, Note_on_c, 6, 53, 95
13, 154560, Note_off_c, 6, 53, 95
13, 154560, Note_off_c, 6, 58, 95
13, 154560, Note_off_c, 6, 62, 95
13, 154560, Note_off_c, 6, 46, 95
13, 154560, Note_on_c, 6, 62, 95
13, 154560, Note_on_c, 6, 58, 95
13, 154560, Note_on_c, 6, 53, 95
13, 155520, Note_off_c, 6, 53, 95
13, 155520, Note_off_c, 6, 58, 95
13, 155520, Note_off_c, 6, 62, 95
13, 155520, Note_on_c, 6, 46, 95
13, 156000, Note_off_c, 6, 46, 95
13, 156000, Note_on_c, 6, 62, 95
13, 156000, Note_on_c, 6, 58, 95
13, 156000, Note_on_c, 6, 53, 95
13, 156000, Note_on_c, 6, 41, 95
13, 156240, Note_off_c, 6, 41, 95
13, 156240, Note_off_c, 6, 53, 95
13, 156240, Note_off_c, 6, 58, 95
13, 156240, Note_off_c, 6, 62, 95
13, 156240, Note_on_c, 6, 62, 95
13, 156240, Note_on_c, 6, 58, 95
13, 156240, Note_on_c, 6, 53, 95
13, 156240, Note_on_c, 6, 41, 95
13, 156720, Note_off_c, 6, 41, 95
13, 156720, Note_off_c, 6, 53, 95
13, 156720, Note_off_c, 6, 58, 95
13, 156720, Note_off_c, 6, 62, 95
13, 156720, Note_on_c, 6, 62, 95
13, 156720, Note_on_c, 6, 58, 95
13, 156720, Note_on_c, 6, 53, 95
13, 156960, Note_off_c, 6, 53, 95
13, 156960, Note_off_c, 6, 58, 95
13, 156960, Note_off_c, 6, 62, 95
13, 156960, Note_on_c, 6, 62, 95
13, 156960, Note_on_c, 6, 58, 95
13, 156960, Note_on_c, 6, 53, 95
13, 156960, Note_on_c, 6, 41, 95
13, 157440, Note_off_c, 6, 41, 95
13, 157440, Note_off_c, 6, 53, 95
13, 157440, Note_off_c, 6, 58, 95
13, 157440, Note_off_c, 6, 62, 95
13, 157440, Note_on_c, 6, 46, 95
13, 157920, Note_on_c, 6, 62, 95
13, 157920, Note_on_c, 6, 58, 95
13, 157920, Note_on_c, 6, 53, 95
13, 158400, Note_off_c, 6, 53, 95
13, 158400, Note_off_c, 6, 58, 95
13, 158400, Note_off_c, 6, 62, 95
13, 158400, Note_off_c, 6, 46, 95
13, 158400, Note_on_c, 6, 62, 95
13, 158400, Note_on_c, 6, 58, 95
13, 158400, Note_on_c, 6, 53, 95
13, 159360, Note_off_c, 6, 53, 95
13, 159360, Note_off_c, 6, 58, 95
13, 159360, Note_off_c, 6, 62, 95
13, 159360, Note_on_c, 6, 46, 95
13, 159840, Note_on_c, 6, 62, 95
13, 159840, Note_on_c, 6, 58, 95
13, 159840, Note_on_c, 6, 53, 95
13, 160080, Note_off_c, 6, 53, 95
13, 160080, Note_off_c, 6, 58, 95
13, 160080, Note_off_c, 6, 62, 95
13, 160080, Note_on_c, 6, 62, 95
13, 160080, Note_on_c, 6, 58, 95
13, 160080, Note_on_c, 6, 53, 95
13, 160320, Note_off_c, 6, 46, 95
13, 160560, Note_off_c, 6, 53, 95
13, 160560, Note_off_c, 6, 58, 95
13, 160560, Note_off_c, 6, 62, 95
13, 160560, Note_on_c, 6, 62, 95
13, 160560, Note_on_c, 6, 58, 95
13, 160560, Note_on_c, 6, 53, 95
13, 160800, Note_off_c, 6, 53, 95
13, 160800, Note_off_c, 6, 58, 95
13, 160800, Note_off_c, 6, 62, 95
13, 160800, Note_on_c, 6, 62, 95
13, 160800, Note_on_c, 6, 58, 95
13, 160800, Note_on_c, 6, 53, 95
13, 161040, Note_off_c, 6, 53, 95
13, 161040, Note_off_c, 6, 58, 95
13, 161040, Note_off_c, 6, 62, 95
13, 161040, Note_on_c, 6, 62, 95
13, 161040, Note_on_c, 6, 58, 95
13, 161040, Note_on_c, 6, 53, 95
13, 161280, Note_off_c, 6, 53, 95
13, 161280, Note_off_c, 6, 58, 95
13, 161280, Note_off_c, 6, 62, 95
13, 161280, Note_on_c, 6, 41, 95
13, 161760, Note_on_c, 6, 60, 95
13, 161760, Note_on_c, 6, 57, 95
13, 161760, Note_on_c, 6, 51, 95
13, 162240, Note_off_c, 6, 51, 95
13, 162240, Note_off_c, 6, 57, 95
13, 162240, Note_off_c, 6, 60, 95
13, 162240, Note_off_c, 6, 41, 95
13, 162240, Note_on_c, 6, 60, 95
13, 162240, Note_on_c, 6, 57, 95
13, 162240, Note_on_c, 6, 51, 95
13, 162960, Note_off_c, 6, 51, 95
13, 162960, Note_off_c, 6, 57, 95
13, 162960, Note_off_c, 6, 60, 95
13, 162960, Note_on_c, 6, 62, 95
13, 162960, Note_on_c, 6, 58, 95
13, 162960, Note_on_c, 6, 53, 95
13, 163200, Note_on_c, 6, 41, 95
13, 163440, Note_off_c, 6, 53, 95
13, 163440, Note_off_c, 6, 58, 95
13, 163440, Note_off_c, 6, 62, 95
13, 163440, Note_on_c, 6, 62, 95
13, 163440, Note_on_c, 6, 58, 95
13, 163440, Note_on_c, 6, 53, 95
13, 163920, Note_off_c, 6, 53, 95
13, 163920, Note_off_c, 6, 58, 95
13, 163920, Note_off_c, 6, 62, 95
13, 163920, Note_on_c, 6, 62, 95
13, 163920, Note_on_c, 6, 58, 95
13, 163920, Note_on_c, 6, 53, 95
13, 164160, Note_off_c, 6, 53, 95
13, 164160, Note_off_c, 6, 58, 95
13, 164160, Note_off_c, 6, 62, 95
13, 164160, Note_off_c, 6, 41, 95
13, 164160, Note_on_c, 6, 62, 95
13, 164160, Note_on_c, 6, 58, 95
13, 164160, Note_on_c, 6, 53, 95
13, 164400, Note_off_c, 6, 53, 95
13, 164400, Note_off_c, 6, 58, 95
13, 164400, Note_off_c, 6, 62, 95
13, 164400, Note_on_c, 6, 62, 95
13, 164400, Note_on_c, 6, 58, 95
13, 164400, Note_on_c, 6, 53, 95
13, 164640, Note_off_c, 6, 53, 95
13, 164640, Note_off_c, 6, 58, 95
13, 164640, Note_off_c, 6, 62, 95
13, 164640, Note_on_c, 6, 62, 95
13, 164640, Note_on_c, 6, 58, 95
13, 164640, Note_on_c, 6, 53, 95
13, 165120, Note_off_c, 6, 53, 95
13, 165120, Note_off_c, 6, 58, 95
13, 165120, Note_off_c, 6, 62, 95
13, 165120, Note_on_c, 6, 41, 95
13, 165600, Note_on_c, 6, 60, 95
13, 165600, Note_on_c, 6, 57, 95
13, 165600, Note_on_c, 6, 51, 95
13, 166080, Note_off_c, 6, 51, 95
13, 166080, Note_off_c, 6, 57, 95
13, 166080, Note_off_c, 6, 60, 95
13, 166080, Note_off_c, 6, 41, 95
13, 166080, Note_on_c, 6, 60, 95
13, 166080, Note_on_c, 6, 57, 95
13, 166080, Note_on_c, 6, 51, 95
13, 166800, Note_off_c, 6, 51, 95
13, 166800, Note_off_c, 6, 57, 95
13, 166800, Note_off_c, 6, 60, 95
13, 166800, Note_on_c, 6, 60, 95
13, 166800, Note_on_c, 6, 57, 95
13, 166800, Note_on_c, 6, 51, 95
13, 167040, Note_on_c, 6, 41, 95
13, 167280, Note_off_c, 6, 51, 95
13, 167280, Note_off_c, 6, 57, 95
13, 167280, Note_off_c, 6, 60, 95
13, 167280, Note_on_c, 6, 60, 95
13, 167280, Note_on_c, 6, 57, 95
13, 167280, Note_on_c, 6, 51, 95
13, 167760, Note_off_c, 6, 51, 95
13, 167760, Note_off_c, 6, 57, 95
13, 167760, Note_off_c, 6, 60, 95
13, 167760, Note_on_c, 6, 60, 95
13, 167760, Note_on_c, 6, 57, 95
13, 167760, Note_on_c, 6, 51, 95
13, 168000, Note_off_c, 6, 51, 95
13, 168000, Note_off_c, 6, 57, 95
13, 168000, Note_off_c, 6, 60, 95
13, 168000, Note_off_c, 6, 41, 95
13, 168000, Note_on_c, 6, 60, 95
13, 168000, Note_on_c, 6, 57, 95
13, 168000, Note_on_c, 6, 51, 95
13, 168240, Note_off_c, 6, 51, 95
13, 168240, Note_off_c, 6, 57, 95
13, 168240, Note_off_c, 6, 60, 95
13, 168240, Note_on_c, 6, 60, 95
13, 168240, Note_on_c, 6, 57, 95
13, 168240, Note_on_c, 6, 51, 95
13, 168480, Note_off_c, 6, 51, 95
13, 168480, Note_off_c, 6, 57, 95
13, 168480, Note_off_c, 6, 60, 95
13, 168480, Note_on_c, 6, 60, 95
13, 168480, Note_on_c, 6, 57, 95
13, 168480, Note_on_c, 6, 51, 95
13, 168960, Note_off_c, 6, 51, 95
13, 168960, Note_off_c, 6, 57, 95
13, 168960, Note_off_c, 6, 60, 95
13, 168960, Note_on_c, 6, 60, 95
13, 168960, Note_on_c, 6, 57, 95
13, 168960, Note_on_c, 6, 51, 95
13, 168960, Note_on_c, 6, 41, 95
13, 169920, Note_off_c, 6, 41, 95
13, 169920, Note_off_c, 6, 51, 95
13, 169920, Note_off_c, 6, 57, 95
13, 169920, Note_off_c, 6, 60, 95
13, 176640, Note_on_c, 6, 56, 95
13, 176640, Note_on_c, 6, 51, 95
13, 176640, Note_on_c, 6, 48, 95
13, 176640, Note_on_c, 6, 44, 95
13, 177120, Note_off_c, 6, 44, 95
13, 177120, Note_off_c, 6, 48, 95
13, 177120, Note_off_c, 6, 51, 95
13, 177120, Note_off_c, 6, 56, 95
13, 177120, Note_on_c, 6, 56, 95
13, 177120, Note_on_c, 6, 51, 95
13, 177120, Note_on_c, 6, 48, 95
13, 177120, Note_on_c, 6, 44, 95
13, 177360, Note_off_c, 6, 44, 95
13, 177360, Note_off_c, 6, 48, 95
13, 177360, Note_off_c, 6, 51, 95
13, 177360, Note_off_c, 6, 56, 95
13, 177360, Note_on_c, 6, 55, 95
13, 177360, Note_on_c, 6, 51, 95
13, 177360, Note_on_c, 6, 46, 95
13, 177840, Note_off_c, 6, 46, 95
13, 177840, Note_off_c, 6, 51, 95
13, 177840, Note_off_c, 6, 55, 95
13, 177840, Note_on_c, 6, 55, 95
13, 177840, Note_on_c, 6, 51, 95
13, 177840, Note_on_c, 6, 46, 95
13, 178080, Note_off_c, 6, 46, 95
13, 178080, Note_off_c, 6, 51, 95
13, 178080, Note_off_c, 6, 55, 95
13, 178080, Note_on_c, 6, 53, 95
13, 178080, Note_on_c, 6, 50, 95
13, 178080, Note_on_c, 6, 46, 95
13, 180480, Note_off_c, 6, 46, 95
13, 180480, Note_off_c, 6, 50, 95
13, 180480, Note_off_c, 6, 53, 95
13, 180480, Note_on_c, 6, 56, 95
13, 180480, Note_on_c, 6, 51, 95
13, 180480, Note_on_c, 6, 48, 95
13, 180480, Note_on_c, 6, 44, 95
13, 180960, Note_off_c, 6, 44, 95
13, 180960, Note_off_c, 6, 48, 95
13, 180960, Note_off_c, 6, 51, 95
13, 180960, Note_off_c, 6, 56, 95
13, 180960, Note_on_c, 6, 56, 95
13, 180960, Note_on_c, 6, 51, 95
13, 180960, Note_on_c, 6, 48, 95
13, 180960, Note_on_c, 6, 44, 95
13, 181200, Note_off_c, 6, 44, 95
13, 181200, Note_off_c, 6, 48, 95
13, 181200, Note_off_c, 6, 51, 95
13, 181200, Note_off_c, 6, 56, 95
13, 181200, Note_on_c, 6, 55, 95
13, 181200, Note_on_c, 6, 51, 95
13, 181200, Note_on_c, 6, 46, 95
13, 181680, Note_off_c, 6, 46, 95
13, 181680, Note_off_c, 6, 51, 95
13, 181680, Note_off_c, 6, 55, 95
13, 181680, Note_on_c, 6, 55, 95
13, 181680, Note_on_c, 6, 51, 95
13, 181680, Note_on_c, 6, 46, 95
13, 181920, Note_off_c, 6, 46, 95
13, 181920, Note_off_c, 6, 51, 95
13, 181920, Note_off_c, 6, 55, 95
13, 181920, Note_on_c, 6, 53, 95
13, 181920, Note_on_c, 6, 50, 95
13, 181920, Note_on_c, 6, 46, 95
13, 184320, Note_off_c, 6, 46, 95
13, 184320, Note_off_c, 6, 50, 95
13, 184320, Note_off_c, 6, 53, 95
13, 184320, Note_on_c, 6, 56, 95
13, 184320, Note_on_c, 6, 51, 95
13, 184320, Note_on_c, 6, 48, 95
13, 184320, Note_on_c, 6, 44, 95
13, 184800, Note_off_c, 6, 44, 95
13, 184800, Note_off_c, 6, 48, 95
13, 184800, Note_off_c, 6, 51, 95
13, 184800, Note_off_c, 6, 56, 95
13, 184800, Note_on_c, 6, 56, 95
13, 184800, Note_on_c, 6, 51, 95
13, 184800, Note_on_c, 6, 48, 95
13, 184800, Note_on_c, 6, 44, 95
13, 185040, Note_off_c, 6, 44, 95
13, 185040, Note_off_c, 6, 48, 95
13, 185040, Note_off_c, 6, 51, 95
13, 185040, Note_off_c, 6, 56, 95
13, 185040, Note_on_c, 6, 55, 95
13, 185040, Note_on_c, 6, 51, 95
13, 185040, Note_on_c, 6, 46, 95
13, 185520, Note_off_c, 6, 46, 95
13, 185520, Note_off_c, 6, 51, 95
13, 185520, Note_off_c, 6, 55, 95
13, 185520, Note_on_c, 6, 55, 95
13, 185520, Note_on_c, 6, 51, 95
13, 185520, Note_on_c, 6, 46, 95
13, 185760, Note_off_c, 6, 46, 95
13, 185760, Note_off_c, 6, 51, 95
13, 185760, Note_off_c, 6, 55, 95
13, 185760, Note_on_c, 6, 53, 95
13, 185760, Note_on_c, 6, 50, 95
13, 185760, Note_on_c, 6, 46, 95
13, 188160, Note_off_c, 6, 46, 95
13, 188160, Note_off_c, 6, 50, 95
13, 188160, Note_off_c, 6, 53, 95
13, 188160, Note_on_c, 6, 56, 95
13, 188160, Note_on_c, 6, 51, 95
13, 188160, Note_on_c, 6, 48, 95
13, 188160, Note_on_c, 6, 44, 95
13, 188640, Note_off_c, 6, 44, 95
13, 188640, Note_off_c, 6, 48, 95
13, 188640, Note_off_c, 6, 51, 95
13, 188640, Note_off_c, 6, 56, 95
13, 188640, Note_on_c, 6, 56, 95
13, 188640, Note_on_c, 6, 51, 95
13, 188640, Note_on_c, 6, 48, 95
13, 188640, Note_on_c, 6, 44, 95
13, 188880, Note_off_c, 6, 44, 95
13, 188880, Note_off_c, 6, 48, 95
13, 188880, Note_off_c, 6, 51, 95
13, 188880, Note_off_c, 6, 56, 95
13, 188880, Note_on_c, 6, 55, 95
13, 188880, Note_on_c, 6, 51, 95
13, 188880, Note_on_c, 6, 46, 95
13, 189360, Note_off_c, 6, 46, 95
13, 189360, Note_off_c, 6, 51, 95
13, 189360, Note_off_c, 6, 55, 95
13, 189360, Note_on_c, 6, 55, 95
13, 189360, Note_on_c, 6, 51, 95
13, 189360, Note_on_c, 6, 46, 95
13, 189600, Note_off_c, 6, 46, 95
13, 189600, Note_off_c, 6, 51, 95
13, 189600, Note_off_c, 6, 55, 95
13, 189600, Note_on_c, 6, 53, 95
13, 189600, Note_on_c, 6, 50, 95
13, 189600, Note_on_c, 6, 46, 95
13, 192000, Note_off_c, 6, 46, 95
13, 192000, Note_off_c, 6, 50, 95
13, 192000, Note_off_c, 6, 53, 95
13, 192000, Note_on_c, 6, 46, 95
13, 192480, Note_on_c, 6, 62, 95
13, 192480, Note_on_c, 6, 58, 95
13, 192480, Note_on_c, 6, 53, 95
13, 192960, Note_off_c, 6, 53, 95
13, 192960, Note_off_c, 6, 58, 95
13, 192960, Note_off_c, 6, 62, 95
13, 192960, Note_off_c, 6, 46, 95
13, 192960, Note_on_c, 6, 62, 95
13, 192960, Note_on_c, 6, 58, 95
13, 192960, Note_on_c, 6, 53, 95
13, 193920, Note_off_c, 6, 53, 95
13, 193920, Note_off_c, 6, 58, 95
13, 193920, Note_off_c, 6, 62, 95
13, 193920, Note_on_c, 6, 46, 95
13, 194400, Note_off_c, 6, 46, 95
13, 194400, Note_on_c, 6, 62, 95
13, 194400, Note_on_c, 6, 58, 95
13, 194400, Note_on_c, 6, 53, 95
13, 194400, Note_on_c, 6, 41, 95
13, 194640, Note_off_c, 6, 41, 95
13, 194640, Note_off_c, 6, 53, 95
13, 194640, Note_off_c, 6, 58, 95
13, 194640, Note_off_c, 6, 62, 95
13, 194640, Note_on_c, 6, 62, 95
13, 194640, Note_on_c, 6, 58, 95
13, 194640, Note_on_c, 6, 53, 95
13, 194640, Note_on_c, 6, 41, 95
13, 195120, Note_off_c, 6, 41, 95
13, 195120, Note_off_c, 6, 53, 95
13, 195120, Note_off_c, 6, 58, 95
13, 195120, Note_off_c, 6, 62, 95
13, 195120, Note_on_c, 6, 62, 95
13, 195120, Note_on_c, 6, 58, 95
13, 195120, Note_on_c, 6, 53, 95
13, 195360, Note_off_c, 6, 53, 95
13, 195360, Note_off_c, 6, 58, 95
13, 195360, Note_off_c, 6, 62, 95
13, 195360, Note_on_c, 6, 62, 95
13, 195360, Note_on_c, 6, 58, 95
13, 195360, Note_on_c, 6, 53, 95
13, 195360, Note_on_c, 6, 41, 95
13, 195840, Note_off_c, 6, 41, 95
13, 195840, Note_off_c, 6, 53, 95
13, 195840, Note_off_c, 6, 58, 95
13, 195840, Note_off_c, 6, 62, 95
13, 195840, Note_on_c, 6, 46, 95
13, 196320, Note_on_c, 6, 62, 95
13, 196320, Note_on_c, 6, 58, 95
13, 196320, Note_on_c, 6, 53, 95
13, 196800, Note_off_c, 6, 53, 95
13, 196800, Note_off_c, 6, 58, 95
13, 196800, Note_off_c, 6, 62, 95
13, 196800, Note_off_c, 6, 46, 95
13, 196800, Note_on_c, 6, 62, 95
13, 196800, Note_on_c, 6, 58, 95
13, 196800, Note_on_c, 6, 53, 95
13, 197760, Note_off_c, 6, 53, 95
13, 197760, Note_off_c, 6, 58, 95
13, 197760, Note_off_c, 6, 62, 95
13, 197760, Note_on_c, 6, 46, 95
13, 198240, Note_off_c, 6, 46, 95
13, 198240, Note_on_c, 6, 62, 95
13, 198240, Note_on_c, 6, 58, 95
13, 198240, Note_on_c, 6, 53, 95
13, 198240, Note_on_c, 6, 41, 95
13, 198480, Note_off_c, 6, 41, 95
13, 198480, Note_off_c, 6, 53, 95
13, 198480, Note_off_c, 6, 58, 95
13, 198480, Note_off_c, 6, 62, 95
13, 198480, Note_on_c, 6, 62, 95
13, 198480, Note_on_c, 6, 58, 95
13, 198480, Note_on_c, 6, 53, 95
13, 198480, Note_on_c, 6, 41, 95
13, 198960, Note_off_c, 6, 41, 95
13, 198960, Note_off_c, 6, 53, 95
13, 198960, Note_off_c, 6, 58, 95
13, 198960, Note_off_c, 6, 62, 95
13, 198960, Note_on_c, 6, 62, 95
13, 198960, Note_on_c, 6, 58, 95
13, 198960, Note_on_c, 6, 53, 95
13, 199200, Note_off_c, 6, 53, 95
13, 199200, Note_off_c, 6, 58, 95
13, 199200, Note_off_c, 6, 62, 95
13, 199200, Note_on_c, 6, 62, 95
13, 199200, Note_on_c, 6, 58, 95
13, 199200, Note_on_c, 6, 53, 95
13, 199200, Note_on_c, 6, 41, 95
13, 199680, Note_off_c, 6, 41, 95
13, 199680, Note_off_c, 6, 53, 95
13, 199680, Note_off_c, 6, 58, 95
13, 199680, Note_off_c, 6, 62, 95
13, 199680, Note_on_c, 6, 46, 95
13, 200160, Note_on_c, 6, 62, 95
13, 200160, Note_on_c, 6, 58, 95
13, 200160, Note_on_c, 6, 53, 95
13, 200640, Note_off_c, 6, 53, 95
13, 200640, Note_off_c, 6, 58, 95
13, 200640, Note_off_c, 6, 62, 95
13, 200640, Note_off_c, 6, 46, 95
13, 200640, Note_on_c, 6, 62, 95
13, 200640, Note_on_c, 6, 58, 95
13, 200640, Note_on_c, 6, 53, 95
13, 201600, Note_off_c, 6, 53, 95
13, 201600, Note_off_c, 6, 58, 95
13, 201600, Note_off_c, 6, 62, 95
13, 201600, Note_on_c, 6, 46, 95
13, 202080, Note_off_c, 6, 46, 95
13, 202080, Note_on_c, 6, 62, 95
13, 202080, Note_on_c, 6, 58, 95
13, 202080, Note_on_c, 6, 53, 95
13, 202080, Note_on_c, 6, 41, 95
13, 202320, Note_off_c, 6, 41, 95
13, 202320, Note_off_c, 6, 53, 95
13, 202320, Note_off_c, 6, 58, 95
13, 202320, Note_off_c, 6, 62, 95
13, 202320, Note_on_c, 6, 62, 95
13, 202320, Note_on_c, 6, 58, 95
13, 202320, Note_on_c, 6, 53, 95
13, 202320, Note_on_c, 6, 41, 95
13, 202800, Note_off_c, 6, 41, 95
13, 202800, Note_off_c, 6, 53, 95
13, 202800, Note_off_c, 6, 58, 95
13, 202800, Note_off_c, 6, 62, 95
13, 202800, Note_on_c, 6, 62, 95
13, 202800, Note_on_c, 6, 58, 95
13, 202800, Note_on_c, 6, 53, 95
13, 203040, Note_off_c, 6, 53, 95
13, 203040, Note_off_c, 6, 58, 95
13, 203040, Note_off_c, 6, 62, 95
13, 203040, Note_on_c, 6, 62, 95
13, 203040, Note_on_c, 6, 58, 95
13, 203040, Note_on_c, 6, 53, 95
13, 203040, Note_on_c, 6, 41, 95
13, 203520, Note_off_c, 6, 41, 95
13, 203520, Note_off_c, 6, 53, 95
13, 203520, Note_off_c, 6, 58, 95
13, 203520, Note_off_c, 6, 62, 95
13, 203520, End_track
14, 0, Start_track
14, 0, Title_t, "Tenor Sax"
14, 0, Control_c, 12, 10, 127
14, 0, Control_c, 12, 6, 12
14, 0, Control_c, 12, 100, 0
14, 0, Control_c, 12, 101, 0
14, 0, Program_c, 12, 66
14, 0, Sequencer_specific, 5, 5, 15, 9, 8, 64
14, 0, Sequencer_specific, 15, 5, 15, 6, 71, 101, 110, 101, 114, 97, 108, 32, 77, 73, 68, 73
14, 0, Key_signature, -2, "major"
14, 0, Control_c, 12, 6, 12
14, 0, Control_c, 12, 100, 0
14, 0, Control_c, 12, 101, 0
14, 2400, Note_on_c, 12, 46, 95
14, 2640, Note_off_c, 12, 46, 95
14, 2640, Note_on_c, 12, 46, 95
14, 2880, Note_off_c, 12, 46, 95
14, 2880, Note_on_c, 12, 50, 95
14, 3120, Note_off_c, 12, 50, 95
14, 3120, Note_on_c, 12, 51, 95
14, 3600, Note_off_c, 12, 51, 95
14, 3600, Note_on_c, 12, 53, 95
14, 5760, Note_off_c, 12, 53, 95
14, 6240, Note_on_c, 12, 51, 95
14, 6480, Note_off_c, 12, 51, 95
14, 6480, Note_on_c, 12, 49, 95
14, 6720, Note_off_c, 12, 49, 95
14, 6720, Note_on_c, 12, 51, 95
14, 6960, Note_off_c, 12, 51, 95
14, 6960, Note_on_c, 12, 49, 95
14, 7440, Note_off_c, 12, 49, 95
14, 7440, Note_on_c, 12, 46, 95
14, 9600, Note_off_c, 12, 46, 95
14, 10080, Note_on_c, 12, 58, 95
14, 10320, Note_off_c, 12, 58, 95
14, 10320, Note_on_c, 12, 58, 95
14, 10560, Note_off_c, 12, 58, 95
14, 10560, Note_on_c, 12, 62, 95
14, 10800, Note_off_c, 12, 62, 95
14, 10800, Note_on_c, 12, 63, 95
14, 11280, Note_off_c, 12, 63, 95
14, 11280, Note_on_c, 12, 65, 95
14, 13440, Note_off_c, 12, 65, 95
14, 13920, Note_on_c, 12, 51, 95
14, 14160, Note_off_c, 12, 51, 95
14, 14160, Note_on_c, 12, 49, 95
14, 14400, Note_off_c, 12, 49, 95
14, 14400, Note_on_c, 12, 51, 95
14, 14640, Note_off_c, 12, 51, 95
14, 14640, Note_on_c, 12, 49, 95
14, 15120, Note_off_c, 12, 49, 95
14, 15360, Sequencer_specific, 3, 5, 15, 10
14, 46080, Note_on_c, 12, 65, 95
14, 46080, Note_on_c, 12, 53, 95
14, 47520, Note_off_c, 12, 53, 95
14, 47520, Note_off_c, 12, 65, 95
14, 47760, Note_on_c, 12, 69, 95
14, 47760, Note_on_c, 12, 57, 95
14, 48000, Note_off_c, 12, 57, 95
14, 48000, Note_off_c, 12, 69, 95
14, 48240, Note_on_c, 12, 70, 95
14, 48240, Note_on_c, 12, 58, 95
14, 48480, Note_off_c, 12, 58, 95
14, 48480, Note_off_c, 12, 70, 95
14, 48720, Note_on_c, 12, 70, 95
14, 48720, Note_on_c, 12, 58, 95
14, 48960, Note_off_c, 12, 58, 95
14, 48960, Note_off_c, 12, 70, 95
14, 48960, Note_on_c, 12, 72, 70
14, 48960, Note_on_c, 12, 60, 95
14, 49440, Note_off_c, 12, 60, 95
14, 49440, Note_off_c, 12, 72, 70
14, 49920, Note_on_c, 12, 65, 95
14, 49920, Note_on_c, 12, 53, 95
14, 51360, Note_off_c, 12, 53, 95
14, 51360, Note_off_c, 12, 65, 95
14, 51600, Note_on_c, 12, 69, 95
14, 51600, Note_on_c, 12, 57, 95
14, 51840, Note_off_c, 12, 57, 95
14, 51840, Note_off_c, 12, 69, 95
14, 52080, Note_on_c, 12, 70, 95
14, 52080, Note_on_c, 12, 58, 95
14, 52320, Note_off_c, 12, 58, 95
14, 52320, Note_off_c, 12, 70, 95
14, 52560, Note_on_c, 12, 70, 95
14, 52560, Note_on_c, 12, 58, 95
14, 52800, Note_off_c, 12, 58, 95
14, 52800, Note_off_c, 12, 70, 95
14, 52800, Note_on_c, 12, 72, 70
14, 52800, Note_on_c, 12, 60, 95
14, 53280, Note_off_c, 12, 60, 95
14, 53280, Note_off_c, 12, 72, 70
14, 61920, Note_on_c, 12, 75, 95
14, 61920, Note_on_c, 12, 63, 95
14, 62160, Note_off_c, 12, 63, 95
14, 62160, Note_off_c, 12, 75, 95
14, 62160, Note_on_c, 12, 75, 95
14, 62160, Note_on_c, 12, 63, 95
14, 62400, Note_off_c, 12, 63, 95
14, 62400, Note_off_c, 12, 75, 95
14, 62640, Note_on_c, 12, 75, 95
14, 62640, Note_on_c, 12, 63, 95
14, 62880, Note_off_c, 12, 63, 95
14, 62880, Note_off_c, 12, 75, 95
14, 62880, Note_on_c, 12, 75, 95
14, 62880, Note_on_c, 12, 63, 95
14, 63120, Note_off_c, 12, 63, 95
14, 63120, Note_off_c, 12, 75, 95
14, 63600, Note_on_c, 12, 77, 95
14, 63600, Note_on_c, 12, 65, 95
14, 63840, Note_off_c, 12, 65, 95
14, 63840, Note_off_c, 12, 77, 95
14, 63840, Note_on_c, 12, 77, 95
14, 63840, Note_on_c, 12, 65, 95
14, 64080, Note_off_c, 12, 65, 95
14, 64080, Note_off_c, 12, 77, 95
14, 64080, Note_on_c, 12, 77, 95
14, 64080, Note_on_c, 12, 65, 95
14, 64320, Note_off_c, 12, 65, 95
14, 64320, Note_off_c, 12, 77, 95
14, 64560, Note_on_c, 12, 77, 95
14, 64560, Note_on_c, 12, 65, 95
14, 64800, Note_off_c, 12, 65, 95
14, 64800, Note_off_c, 12, 77, 95
14, 64800, Note_on_c, 12, 77, 95
14, 64800, Note_on_c, 12, 65, 95
14, 65040, Note_off_c, 12, 65, 95
14, 65040, Note_off_c, 12, 77, 95
14, 65280, Note_on_c, 12, 80, 95
14, 65280, Note_on_c, 12, 68, 95
14, 65760, Note_off_c, 12, 68, 95
14, 65760, Note_off_c, 12, 80, 95
14, 65760, Note_on_c, 12, 80, 95
14, 65760, Note_on_c, 12, 68, 95
14, 66000, Note_off_c, 12, 68, 95
14, 66000, Note_off_c, 12, 80, 95
14, 66000, Note_on_c, 12, 75, 95
14, 66000, Note_on_c, 12, 63, 95
14, 66240, Note_off_c, 12, 75, 95
14, 66480, Note_off_c, 12, 63, 95
14, 66480, Note_on_c, 12, 75, 95
14, 66480, Note_on_c, 12, 63, 95
14, 66720, Note_off_c, 12, 63, 95
14, 66720, Note_off_c, 12, 75, 95
14, 66720, Note_on_c, 12, 70, 95
14, 66720, Note_on_c, 12, 58, 95
14, 69120, Note_off_c, 12, 58, 95
14, 69120, Note_off_c, 12, 70, 95
14, 117600, Note_on_c, 12, 70, 95
14, 117600, Note_on_c, 12, 58, 95
14, 117840, Note_off_c, 12, 58, 95
14, 117840, Note_off_c, 12, 70, 95
14, 117840, Note_on_c, 12, 70, 95
14, 117840, Note_on_c, 12, 58, 95
14, 118080, Note_off_c, 12, 58, 95
14, 118080, Note_off_c, 12, 70, 95
14, 118080, Note_on_c, 12, 74, 95
14, 118080, Note_on_c, 12, 62, 95
14, 118320, Note_off_c, 12, 62, 95
14, 118320, Note_off_c, 12, 74, 95
14, 118320, Note_on_c, 12, 75, 95
14, 118320, Note_on_c, 12, 63, 95
14, 118800, Note_off_c, 12, 63, 95
14, 118800, Note_off_c, 12, 75, 95
14, 118800, Note_on_c, 12, 77, 95
14, 118800, Note_on_c, 12, 65, 95
14, 120960, Note_off_c, 12, 65, 95
14, 120960, Note_off_c, 12, 77, 95
14, 120960, Note_on_c, 12, 75, 95
14, 120960, Note_on_c, 12, 63, 95
14, 121200, Note_off_c, 12, 63, 95
14, 121200, Note_off_c, 12, 75, 95
14, 121200, Note_on_c, 12, 73, 95
14, 121200, Note_on_c, 12, 61, 95
14, 121440, Note_off_c, 12, 61, 95
14, 121440, Note_off_c, 12, 73, 95
14, 121440, Note_on_c, 12, 75, 95
14, 121440, Note_on_c, 12, 63, 95
14, 121680, Note_off_c, 12, 63, 95
14, 121680, Note_off_c, 12, 75, 95
14, 121680, Note_on_c, 12, 73, 95
14, 121680, Note_on_c, 12, 61, 95
14, 121920, Note_off_c, 12, 61, 95
14, 121920, Note_off_c, 12, 73, 95
14, 121920, Note_on_c, 12, 70, 95
14, 121920, Note_on_c, 12, 58, 95
14, 122160, Note_off_c, 12, 58, 95
14, 122160, Note_off_c, 12, 70, 95
14, 122160, Note_on_c, 12, 68, 95
14, 122160, Note_on_c, 12, 56, 95
14, 122400, Note_off_c, 12, 56, 95
14, 122400, Note_off_c, 12, 68, 95
14, 122400, Note_on_c, 12, 70, 95
14, 122400, Note_on_c, 12, 58, 95
14, 123840, Note_off_c, 12, 58, 95
14, 123840, Note_off_c, 12, 70, 95
14, 124320, Note_on_c, 12, 70, 95
14, 124320, Note_on_c, 12, 58, 95
14, 124560, Note_off_c, 12, 58, 95
14, 124560, Note_off_c, 12, 70, 95
14, 124560, Note_on_c, 12, 70, 95
14, 124560, Note_on_c, 12, 58, 95
14, 124800, Note_off_c, 12, 58, 95
14, 124800, Note_off_c, 12, 70, 95
14, 124800, Note_on_c, 12, 74, 95
14, 124800, Note_on_c, 12, 62, 95
14, 125040, Note_off_c, 12, 62, 95
14, 125040, Note_off_c, 12, 74, 95
14, 125040, Note_on_c, 12, 75, 95
14, 125040, Note_on_c, 12, 63, 95
14, 125520, Note_off_c, 12, 63, 95
14, 125520, Note_off_c, 12, 75, 95
14, 125520, Note_on_c, 12, 82, 95
14, 125520, Note_on_c, 12, 70, 95
14, 126720, Note_off_c, 12, 70, 95
14, 126720, Note_off_c, 12, 82, 95
14, 126720, Note_on_c, 12, 80, 95
14, 126720, Note_on_c, 12, 68, 95
14, 127440, Note_off_c, 12, 68, 95
14, 127440, Note_off_c, 12, 80, 95
14, 127440, Note_on_c, 12, 75, 95
14, 127440, Note_on_c, 12, 63, 95
14, 128160, Note_off_c, 12, 63, 95
14, 128160, Note_off_c, 12, 75, 95
14, 128160, Note_on_c, 12, 70, 95
14, 128160, Note_on_c, 12, 58, 95
14, 128640, Note_off_c, 12, 58, 95
14, 129600, Note_off_c, 12, 70, 95
14, 179040, Note_on_c, 12, 70, 95
14, 179040, Note_on_c, 12, 58, 95
14, 179280, Note_off_c, 12, 58, 95
14, 179280, Note_off_c, 12, 70, 95
14, 179280, Note_on_c, 12, 70, 95
14, 179280, Note_on_c, 12, 58, 95
14, 179520, Note_off_c, 12, 58, 95
14, 179520, Note_off_c, 12, 70, 95
14, 179520, Note_on_c, 12, 74, 95
14, 179520, Note_on_c, 12, 62, 95
14, 179760, Note_off_c, 12, 62, 95
14, 179760, Note_off_c, 12, 74, 95
14, 179760, Note_on_c, 12, 75, 95
14, 179760, Note_on_c, 12, 63, 95
14, 180240, Note_off_c, 12, 63, 95
14, 180240, Note_off_c, 12, 75, 95
14, 180240, Note_on_c, 12, 77, 95
14, 180240, Note_on_c, 12, 65, 95
14, 182400, Note_off_c, 12, 65, 95
14, 182400, Note_off_c, 12, 77, 95
14, 182400, Note_on_c, 12, 75, 95
14, 182400, Note_on_c, 12, 63, 95
14, 182640, Note_off_c, 12, 63, 95
14, 182640, Note_off_c, 12, 75, 95
14, 182640, Note_on_c, 12, 73, 95
14, 182640, Note_on_c, 12, 61, 95
14, 182880, Note_off_c, 12, 61, 95
14, 182880, Note_off_c, 12, 73, 95
14, 182880, Note_on_c, 12, 75, 95
14, 182880, Note_on_c, 12, 63, 95
14, 183120, Note_off_c, 12, 63, 95
14, 183120, Note_off_c, 12, 75, 95
14, 183120, Note_on_c, 12, 73, 95
14, 183120, Note_on_c, 12, 61, 95
14, 183360, Note_off_c, 12, 61, 95
14, 183360, Note_off_c, 12, 73, 95
14, 183360, Note_on_c, 12, 70, 95
14, 183360, Note_on_c, 12, 58, 95
14, 183600, Note_off_c, 12, 58, 95
14, 183600, Note_off_c, 12, 70, 95
14, 183600, Note_on_c, 12, 68, 95
14, 183600, Note_on_c, 12, 56, 95
14, 183840, Note_off_c, 12, 56, 95
14, 183840, Note_off_c, 12, 68, 95
14, 183840, Note_on_c, 12, 70, 95
14, 183840, Note_on_c, 12, 58, 95
14, 185280, Note_off_c, 12, 58, 95
14, 185280, Note_off_c, 12, 70, 95
14, 185760, Note_on_c, 12, 70, 95
14, 185760, Note_on_c, 12, 58, 95
14, 186000, Note_off_c, 12, 58, 95
14, 186000, Note_off_c, 12, 70, 95
14, 186000, Note_on_c, 12, 70, 95
14, 186000, Note_on_c, 12, 58, 95
14, 186240, Note_off_c, 12, 58, 95
14, 186240, Note_off_c, 12, 70, 95
14, 186240, Note_on_c, 12, 74, 95
14, 186240, Note_on_c, 12, 62, 95
14, 186480, Note_off_c, 12, 62, 95
14, 186480, Note_off_c, 12, 74, 95
14, 186480, Note_on_c, 12, 75, 95
14, 186480, Note_on_c, 12, 63, 95
14, 186960, Note_off_c, 12, 63, 95
14, 186960, Note_off_c, 12, 75, 95
14, 186960, Note_on_c, 12, 82, 95
14, 186960, Note_on_c, 12, 70, 95
14, 188160, Note_off_c, 12, 70, 95
14, 188160, Note_off_c, 12, 82, 95
14, 188160, Note_on_c, 12, 80, 95
14, 188160, Note_on_c, 12, 68, 95
14, 188880, Note_off_c, 12, 68, 95
14, 188880, Note_off_c, 12, 80, 95
14, 188880, Note_on_c, 12, 75, 95
14, 188880, Note_on_c, 12, 63, 95
14, 189600, Note_off_c, 12, 63, 95
14, 189600, Note_off_c, 12, 75, 95
14, 189600, Note_on_c, 12, 70, 95
14, 189600, Note_on_c, 12, 58, 95
14, 190080, Note_off_c, 12, 58, 95
14, 191040, Note_off_c, 12, 70, 95
14, 211200, Sequencer_specific, 3, 5, 15, 10
14, 211200, End_track
15, 0, Start_track
15, 0, Title_t, "Brass Section"
15, 0, Control_c, 13, 6, 12
15, 0, Control_c, 13, 100, 0
15, 0, Control_c, 13, 101, 0
15, 0, Program_c, 13, 61
15, 0, Sequencer_specific, 5, 5, 15, 9, 8, 64
15, 0, Sequencer_specific, 15, 5, 15, 6, 71, 101, 110, 101, 114, 97, 108, 32, 77, 73, 68, 73
15, 0, Key_signature, -2, "major"
15, 0, Control_c, 13, 6, 12
15, 0, Control_c, 13, 100, 0
15, 0, Control_c, 13, 101, 0
15, 10080, Note_on_c, 13, 70, 95
15, 10080, Note_on_c, 13, 58, 95
15, 10320, Note_off_c, 13, 58, 95
15, 10320, Note_off_c, 13, 70, 95
15, 10320, Note_on_c, 13, 70, 95
15, 10320, Note_on_c, 13, 58, 95
15, 10560, Note_off_c, 13, 58, 95
15, 10560, Note_off_c, 13, 70, 95
15, 10560, Note_on_c, 13, 74, 95
15, 10560, Note_on_c, 13, 62, 95
15, 10800, Note_off_c, 13, 62, 95
15, 10800, Note_off_c, 13, 74, 95
15, 10800, Note_on_c, 13, 75, 95
15, 10800, Note_on_c, 13, 63, 95
15, 11280, Note_off_c, 13, 63, 95
15, 11280, Note_off_c, 13, 75, 95
15, 11280, Note_on_c, 13, 77, 95
15, 11280, Note_on_c, 13, 65, 95
15, 13440, Note_off_c, 13, 65, 95
15, 13440, Note_off_c, 13, 77, 95
15, 13920, Note_on_c, 13, 75, 95
15, 13920, Note_on_c, 13, 63, 95
15, 14160, Note_off_c, 13, 63, 95
15, 14160, Note_off_c, 13, 75, 95
15, 14160, Note_on_c, 13, 73, 95
15, 14160, Note_on_c, 13, 61, 95
15, 14400, Note_off_c, 13, 61, 95
15, 14400, Note_off_c, 13, 73, 95
15, 14400, Note_on_c, 13, 75, 95
15, 14400, Note_on_c, 13, 63, 95
15, 14640, Note_off_c, 13, 63, 95
15, 14640, Note_off_c, 13, 75, 95
15, 14640, Note_on_c, 13, 73, 95
15, 14640, Note_on_c, 13, 61, 95
15, 15360, Note_off_c, 13, 61, 95
15, 15360, Note_off_c, 13, 73, 95
15, 15360, Note_on_c, 13, 82, 95
15, 15360, Note_on_c, 13, 70, 95
15, 23040, Note_off_c, 13, 70, 95
15, 23040, Note_off_c, 13, 82, 95
15, 46080, Note_on_c, 13, 65, 95
15, 46080, Note_on_c, 13, 53, 95
15, 47520, Note_off_c, 13, 53, 95
15, 47520, Note_off_c, 13, 65, 95
15, 47760, Note_on_c, 13, 69, 95
15, 47760, Note_on_c, 13, 57, 95
15, 48000, Note_off_c, 13, 57, 95
15, 48000, Note_off_c, 13, 69, 95
15, 48240, Note_on_c, 13, 70, 95
15, 48240, Note_on_c, 13, 58, 95
15, 48480, Note_off_c, 13, 58, 95
15, 48480, Note_off_c, 13, 70, 95
15, 48720, Note_on_c, 13, 70, 95
15, 48720, Note_on_c, 13, 58, 95
15, 48960, Note_off_c, 13, 58, 95
15, 48960, Note_off_c, 13, 70, 95
15, 48960, Note_on_c, 13, 72, 70
15, 48960, Note_on_c, 13, 60, 95
15, 49440, Note_off_c, 13, 60, 95
15, 49440, Note_off_c, 13, 72, 70
15, 49920, Note_on_c, 13, 65, 95
15, 49920, Note_on_c, 13, 53, 95
15, 51360, Note_off_c, 13, 53, 95
15, 51360, Note_off_c, 13, 65, 95
15, 51600, Note_on_c, 13, 69, 95
15, 51600, Note_on_c, 13, 57, 95
15, 51840, Note_off_c, 13, 57, 95
15, 51840, Note_off_c, 13, 69, 95
15, 52080, Note_on_c, 13, 70, 95
15, 52080, Note_on_c, 13, 58, 95
15, 52320, Note_off_c, 13, 58, 95
15, 52320, Note_off_c, 13, 70, 95
15, 52560, Note_on_c, 13, 70, 95
15, 52560, Note_on_c, 13, 58, 95
15, 52800, Note_off_c, 13, 58, 95
15, 52800, Note_off_c, 13, 70, 95
15, 52800, Note_on_c, 13, 72, 70
15, 52800, Note_on_c, 13, 60, 95
15, 53280, Note_off_c, 13, 60, 95
15, 53280, Note_off_c, 13, 72, 70
15, 61920, Note_on_c, 13, 75, 95
15, 61920, Note_on_c, 13, 63, 95
15, 62160, Note_off_c, 13, 63, 95
15, 62160, Note_off_c, 13, 75, 95
15, 62160, Note_on_c, 13, 75, 95
15, 62160, Note_on_c, 13, 63, 95
15, 62400, Note_off_c, 13, 63, 95
15, 62400, Note_off_c, 13, 75, 95
15, 62640, Note_on_c, 13, 75, 95
15, 62640, Note_on_c, 13, 63, 95
15, 62880, Note_off_c, 13, 63, 95
15, 62880, Note_off_c, 13, 75, 95
15, 62880, Note_on_c, 13, 75, 95
15, 62880, Note_on_c, 13, 63, 95
15, 63120, Note_off_c, 13, 63, 95
15, 63120, Note_off_c, 13, 75, 95
15, 63600, Note_on_c, 13, 77, 95
15, 63600, Note_on_c, 13, 65, 95
15, 63840, Note_off_c, 13, 65, 95
15, 63840, Note_off_c, 13, 77, 95
15, 63840, Note_on_c, 13, 77, 95
15, 63840, Note_on_c, 13, 65, 95
15, 64080, Note_off_c, 13, 65, 95
15, 64080, Note_off_c, 13, 77, 95
15, 64080, Note_on_c, 13, 77, 95
15, 64080, Note_on_c, 13, 65, 95
15, 64320, Note_off_c, 13, 65, 95
15, 64320, Note_off_c, 13, 77, 95
15, 64560, Note_on_c, 13, 77, 95
15, 64560, Note_on_c, 13, 65, 95
15, 64800, Note_off_c, 13, 65, 95
15, 64800, Note_off_c, 13, 77, 95
15, 64800, Note_on_c, 13, 77, 95
15, 64800, Note_on_c, 13, 65, 95
15, 65040, Note_off_c, 13, 65, 95
15, 65040, Note_off_c, 13, 77, 95
15, 65280, Note_on_c, 13, 80, 95
15, 65280, Note_on_c, 13, 68, 95
15, 65760, Note_off_c, 13, 68, 95
15, 65760, Note_off_c, 13, 80, 95
15, 65760, Note_on_c, 13, 80, 95
15, 65760, Note_on_c, 13, 68, 95
15, 66000, Note_off_c, 13, 68, 95
15, 66000, Note_off_c, 13, 80, 95
15, 66000, Note_on_c, 13, 75, 95
15, 66000, Note_on_c, 13, 63, 95
15, 66240, Note_off_c, 13, 75, 95
15, 66480, Note_off_c, 13, 63, 95
15, 66480, Note_on_c, 13, 75, 95
15, 66480, Note_on_c, 13, 63, 95
15, 66720, Note_off_c, 13, 63, 95
15, 66720, Note_off_c, 13, 75, 95
15, 66720, Note_on_c, 13, 70, 95
15, 66720, Note_on_c, 13, 58, 95
15, 69120, Note_off_c, 13, 58, 95
15, 69120, Note_off_c, 13, 70, 95
15, 117600, Note_on_c, 13, 70, 95
15, 117600, Note_on_c, 13, 58, 95
15, 117840, Note_off_c, 13, 58, 95
15, 117840, Note_off_c, 13, 70, 95
15, 117840, Note_on_c, 13, 70, 95
15, 117840, Note_on_c, 13, 58, 95
15, 118080, Note_off_c, 13, 58, 95
15, 118080, Note_off_c, 13, 70, 95
15, 118080, Note_on_c, 13, 74, 95
15, 118080, Note_on_c, 13, 62, 95
15, 118320, Note_off_c, 13, 62, 95
15, 118320, Note_off_c, 13, 74, 95
15, 118320, Note_on_c, 13, 75, 95
15, 118320, Note_on_c, 13, 63, 95
15, 118800, Note_off_c, 13, 63, 95
15, 118800, Note_off_c, 13, 75, 95
15, 118800, Note_on_c, 13, 77, 95
15, 118800, Note_on_c, 13, 65, 95
15, 120960, Note_off_c, 13, 65, 95
15, 120960, Note_off_c, 13, 77, 95
15, 120960, Note_on_c, 13, 75, 95
15, 120960, Note_on_c, 13, 63, 95
15, 121200, Note_off_c, 13, 63, 95
15, 121200, Note_off_c, 13, 75, 95
15, 121200, Note_on_c, 13, 73, 95
15, 121200, Note_on_c, 13, 61, 95
15, 121440, Note_off_c, 13, 61, 95
15, 121440, Note_off_c, 13, 73, 95
15, 121440, Note_on_c, 13, 75, 95
15, 121440, Note_on_c, 13, 63, 95
15, 121680, Note_off_c, 13, 63, 95
15, 121680, Note_off_c, 13, 75, 95
15, 121680, Note_on_c, 13, 73, 95
15, 121680, Note_on_c, 13, 61, 95
15, 121920, Note_off_c, 13, 61, 95
15, 121920, Note_off_c, 13, 73, 95
15, 121920, Note_on_c, 13, 70, 95
15, 121920, Note_on_c, 13, 58, 95
15, 122160, Note_off_c, 13, 58, 95
15, 122160, Note_off_c, 13, 70, 95
15, 122160, Note_on_c, 13, 68, 95
15, 122160, Note_on_c, 13, 56, 95
15, 122400, Note_off_c, 13, 56, 95
15, 122400, Note_off_c, 13, 68, 95
15, 122400, Note_on_c, 13, 70, 95
15, 122400, Note_on_c, 13, 58, 95
15, 123840, Note_off_c, 13, 58, 95
15, 123840, Note_off_c, 13, 70, 95
15, 124320, Note_on_c, 13, 70, 95
15, 124320, Note_on_c, 13, 58, 95
15, 124560, Note_off_c, 13, 58, 95
15, 124560, Note_off_c, 13, 70, 95
15, 124560, Note_on_c, 13, 70, 95
15, 124560, Note_on_c, 13, 58, 95
15, 124800, Note_off_c, 13, 58, 95
15, 124800, Note_off_c, 13, 70, 95
15, 124800, Note_on_c, 13, 74, 95
15, 124800, Note_on_c, 13, 62, 95
15, 125040, Note_off_c, 13, 62, 95
15, 125040, Note_off_c, 13, 74, 95
15, 125040, Note_on_c, 13, 75, 95
15, 125040, Note_on_c, 13, 63, 95
15, 125520, Note_off_c, 13, 63, 95
15, 125520, Note_off_c, 13, 75, 95
15, 125520, Note_on_c, 13, 82, 95
15, 125520, Note_on_c, 13, 70, 95
15, 126720, Note_off_c, 13, 70, 95
15, 126720, Note_off_c, 13, 82, 95
15, 126720, Note_on_c, 13, 80, 95
15, 126720, Note_on_c, 13, 68, 95
15, 127440, Note_off_c, 13, 68, 95
15, 127440, Note_off_c, 13, 80, 95
15, 127440, Note_on_c, 13, 75, 95
15, 127440, Note_on_c, 13, 63, 95
15, 128160, Note_off_c, 13, 63, 95
15, 128160, Note_off_c, 13, 75, 95
15, 128160, Note_on_c, 13, 70, 95
15, 128160, Note_on_c, 13, 58, 95
15, 128640, Note_off_c, 13, 58, 95
15, 129600, Note_off_c, 13, 70, 95
15, 179040, Note_on_c, 13, 70, 95
15, 179040, Note_on_c, 13, 58, 95
15, 179280, Note_off_c, 13, 58, 95
15, 179280, Note_off_c, 13, 70, 95
15, 179280, Note_on_c, 13, 70, 95
15, 179280, Note_on_c, 13, 58, 95
15, 179520, Note_off_c, 13, 58, 95
15, 179520, Note_off_c, 13, 70, 95
15, 179520, Note_on_c, 13, 74, 95
15, 179520, Note_on_c, 13, 62, 95
15, 179760, Note_off_c, 13, 62, 95
15, 179760, Note_off_c, 13, 74, 95
15, 179760, Note_on_c, 13, 75, 95
15, 179760, Note_on_c, 13, 63, 95
15, 180240, Note_off_c, 13, 63, 95
15, 180240, Note_off_c, 13, 75, 95
15, 180240, Note_on_c, 13, 77, 95
15, 180240, Note_on_c, 13, 65, 95
15, 182400, Note_off_c, 13, 65, 95
15, 182400, Note_off_c, 13, 77, 95
15, 182400, Note_on_c, 13, 75, 95
15, 182400, Note_on_c, 13, 63, 95
15, 182640, Note_off_c, 13, 63, 95
15, 182640, Note_off_c, 13, 75, 95
15, 182640, Note_on_c, 13, 73, 95
15, 182640, Note_on_c, 13, 61, 95
15, 182880, Note_off_c, 13, 61, 95
15, 182880, Note_off_c, 13, 73, 95
15, 182880, Note_on_c, 13, 75, 95
15, 182880, Note_on_c, 13, 63, 95
15, 183120, Note_off_c, 13, 63, 95
15, 183120, Note_off_c, 13, 75, 95
15, 183120, Note_on_c, 13, 73, 95
15, 183120, Note_on_c, 13, 61, 95
15, 183360, Note_off_c, 13, 61, 95
15, 183360, Note_off_c, 13, 73, 95
15, 183360, Note_on_c, 13, 70, 95
15, 183360, Note_on_c, 13, 58, 95
15, 183600, Note_off_c, 13, 58, 95
15, 183600, Note_off_c, 13, 70, 95
15, 183600, Note_on_c, 13, 68, 95
15, 183600, Note_on_c, 13, 56, 95
15, 183840, Note_off_c, 13, 56, 95
15, 183840, Note_off_c, 13, 68, 95
15, 183840, Note_on_c, 13, 70, 95
15, 183840, Note_on_c, 13, 58, 95
15, 185280, Note_off_c, 13, 58, 95
15, 185280, Note_off_c, 13, 70, 95
15, 185760, Note_on_c, 13, 70, 95
15, 185760, Note_on_c, 13, 58, 95
15, 186000, Note_off_c, 13, 58, 95
15, 186000, Note_off_c, 13, 70, 95
15, 186000, Note_on_c, 13, 70, 95
15, 186000, Note_on_c, 13, 58, 95
15, 186240, Note_off_c, 13, 58, 95
15, 186240, Note_off_c, 13, 70, 95
15, 186240, Note_on_c, 13, 74, 95
15, 186240, Note_on_c, 13, 62, 95
15, 186480, Note_off_c, 13, 62, 95
15, 186480, Note_off_c, 13, 74, 95
15, 186480, Note_on_c, 13, 75, 95
15, 186480, Note_on_c, 13, 63, 95
15, 186960, Note_off_c, 13, 63, 95
15, 186960, Note_off_c, 13, 75, 95
15, 186960, Note_on_c, 13, 82, 95
15, 186960, Note_on_c, 13, 70, 95
15, 188160, Note_off_c, 13, 70, 95
15, 188160, Note_off_c, 13, 82, 95
15, 188160, Note_on_c, 13, 80, 95
15, 188160, Note_on_c, 13, 68, 95
15, 188880, Note_off_c, 13, 68, 95
15, 188880, Note_off_c, 13, 80, 95
15, 188880, Note_on_c, 13, 75, 95
15, 188880, Note_on_c, 13, 63, 95
15, 189600, Note_off_c, 13, 63, 95
15, 189600, Note_off_c, 13, 75, 95
15, 189600, Note_on_c, 13, 70, 95
15, 189600, Note_on_c, 13, 58, 95
15, 190080, Note_off_c, 13, 58, 95
15, 191040, Note_off_c, 13, 70, 95
15, 211200, Sequencer_specific, 3, 5, 15, 10
15, 211200, End_track
16, 0, Start_track
16, 0, Title_t, "Brass Section"
16, 0, Control_c, 14, 7, 69
16, 0, Program_c, 14, 61
16, 0, Sequencer_specific, 5, 5, 15, 9, 8, 64
16, 0, Sequencer_specific, 15, 5, 15, 6, 71, 101, 110, 101, 114, 97, 108, 32, 77, 73, 68, 73
16, 0, Key_signature, -2, "major"
16, 0, Control_c, 14, 6, 12
16, 0, Control_c, 14, 100, 0
16, 0, Control_c, 14, 101, 0
16, 203520, Note_on_c, 14, 77, 95
16, 203520, Note_on_c, 14, 65, 95
16, 203760, Note_off_c, 14, 65, 95
16, 203760, Note_off_c, 14, 77, 95
16, 203760, Note_on_c, 14, 82, 95
16, 203760, Note_on_c, 14, 70, 95
16, 204000, Note_off_c, 14, 70, 95
16, 204000, Note_off_c, 14, 82, 95
16, 204000, Note_on_c, 14, 82, 95
16, 204000, Note_on_c, 14, 70, 95
16, 204240, Note_off_c, 14, 70, 95
16, 204240, Note_off_c, 14, 82, 95
16, 204240, Note_on_c, 14, 82, 95
16, 204240, Note_on_c, 14, 70, 95
16, 204480, Note_off_c, 14, 70, 95
16, 204480, Note_off_c, 14, 82, 95
16, 204720, Note_on_c, 14, 82, 95
16, 204720, Note_on_c, 14, 70, 95
16, 204960, Note_off_c, 14, 70, 95
16, 204960, Note_off_c, 14, 82, 95
16, 204960, Note_on_c, 14, 82, 95
16, 204960, Note_on_c, 14, 70, 95
16, 205200, Note_off_c, 14, 70, 95
16, 205200, Note_off_c, 14, 82, 95
16, 205200, Note_on_c, 14, 82, 95
16, 205200, Note_on_c, 14, 70, 95
16, 205440, Note_off_c, 14, 70, 95
16, 205440, Note_off_c, 14, 82, 95
16, 205680, Note_on_c, 14, 82, 47
16, 205680, Note_on_c, 14, 70, 47
16, 205920, Note_off_c, 14, 70, 47
16, 205920, Note_off_c, 14, 82, 47
16, 205920, Note_on_c, 14, 82, 95
16, 205920, Note_on_c, 14, 70, 95
16, 206160, Note_off_c, 14, 70, 95
16, 206160, Note_off_c, 14, 82, 95
16, 206160, Note_on_c, 14, 82, 95
16, 206160, Note_on_c, 14, 70, 95
16, 206880, Note_off_c, 14, 70, 95
16, 206880, Note_off_c, 14, 82, 95
16, 207360, Note_on_c, 14, 77, 95
16, 207360, Note_on_c, 14, 65, 95
16, 207600, Note_off_c, 14, 65, 95
16, 207600, Note_off_c, 14, 77, 95
16, 207600, Note_on_c, 14, 82, 95
16, 207600, Note_on_c, 14, 70, 95
16, 207840, Note_off_c, 14, 70, 95
16, 207840, Note_off_c, 14, 82, 95
16, 207840, Note_on_c, 14, 82, 95
16, 207840, Note_on_c, 14, 70, 95
16, 208080, Note_off_c, 14, 70, 95
16, 208080, Note_off_c, 14, 82, 95
16, 208080, Note_on_c, 14, 82, 95
16, 208080, Note_on_c, 14, 70, 95
16, 208320, Note_off_c, 14, 70, 95
16, 208320, Note_off_c, 14, 82, 95
16, 208560, Note_on_c, 14, 82, 95
16, 208560, Note_on_c, 14, 70, 95
16, 208800, Note_off_c, 14, 70, 95
16, 208800, Note_off_c, 14, 82, 95
16, 208800, Note_on_c, 14, 82, 95
16, 208800, Note_on_c, 14, 70, 95
16, 209040, Note_off_c, 14, 70, 95
16, 209040, Note_off_c, 14, 82, 95
16, 209040, Note_on_c, 14, 82, 95
16, 209040, Note_on_c, 14, 70, 95
16, 209280, Note_off_c, 14, 70, 95
16, 209280, Note_off_c, 14, 82, 95
16, 209520, Note_on_c, 14, 82, 47
16, 209520, Note_on_c, 14, 70, 47
16, 209760, Note_off_c, 14, 70, 47
16, 209760, Note_off_c, 14, 82, 47
16, 209760, Note_on_c, 14, 82, 95
16, 209760, Note_on_c, 14, 70, 95
16, 210000, Note_off_c, 14, 70, 95
16, 210000, Note_off_c, 14, 82, 95
16, 210000, Note_on_c, 14, 82, 95
16, 210000, Note_on_c, 14, 70, 95
16, 210720, Note_off_c, 14, 70, 95
16, 210720, Note_off_c, 14, 82, 95
16, 211200, Sequencer_specific, 3, 5, 15, 10
16, 211200, End_track
17, 0, Start_track
17, 0, Title_t, "Slap Bass 2"
17, 0, Control_c, 15, 7, 69
17, 0, Program_c, 15, 37
17, 0, Sequencer_specific, 5, 5, 15, 9, 8, 64
17, 0, Sequencer_specific, 15, 5, 15, 6, 71, 101, 110, 101, 114, 97, 108, 32, 77, 73, 68, 73
17, 0, Key_signature, -2, "major"
17, 0, Control_c, 15, 6, 12
17, 0, Control_c, 15, 100, 0
17, 0, Control_c, 15, 101, 0
17, 203520, Note_on_c, 15, 46, 95
17, 204000, Note_on_c, 15, 62, 95
17, 204000, Note_on_c, 15, 58, 95
17, 204000, Note_on_c, 15, 53, 95
17, 204480, Note_off_c, 15, 53, 95
17, 204480, Note_off_c, 15, 58, 95
17, 204480, Note_off_c, 15, 62, 95
17, 204480, Note_off_c, 15, 46, 95
17, 204480, Note_on_c, 15, 62, 95
17, 204480, Note_on_c, 15, 58, 95
17, 204480, Note_on_c, 15, 53, 95
17, 205440, Note_off_c, 15, 53, 95
17, 205440, Note_off_c, 15, 58, 95
17, 205440, Note_off_c, 15, 62, 95
17, 205440, Note_on_c, 15, 46, 95
17, 205920, Note_off_c, 15, 46, 95
17, 205920, Note_on_c, 15, 62, 95
17, 205920, Note_on_c, 15, 58, 95
17, 205920, Note_on_c, 15, 53, 95
17, 205920, Note_on_c, 15, 41, 95
17, 206160, Note_off_c, 15, 41, 95
17, 206160, Note_off_c, 15, 53, 95
17, 206160, Note_off_c, 15, 58, 95
17, 206160, Note_off_c, 15, 62, 95
17, 206160, Note_on_c, 15, 62, 95
17, 206160, Note_on_c, 15, 58, 95
17, 206160, Note_on_c, 15, 53, 95
17, 206160, Note_on_c, 15, 41, 95
17, 206640, Note_off_c, 15, 41, 95
17, 206640, Note_off_c, 15, 53, 95
17, 206640, Note_off_c, 15, 58, 95
17, 206640, Note_off_c, 15, 62, 95
17, 206640, Note_on_c, 15, 62, 95
17, 206640, Note_on_c, 15, 58, 95
17, 206640, Note_on_c, 15, 53, 95
17, 206880, Note_off_c, 15, 53, 95
17, 206880, Note_off_c, 15, 58, 95
17, 206880, Note_off_c, 15, 62, 95
17, 206880, Note_on_c, 15, 62, 95
17, 206880, Note_on_c, 15, 58, 95
17, 206880, Note_on_c, 15, 53, 95
17, 206880, Note_on_c, 15, 41, 95
17, 207360, Note_off_c, 15, 41, 95
17, 207360, Note_off_c, 15, 53, 95
17, 207360, Note_off_c, 15, 58, 95
17, 207360, Note_off_c, 15, 62, 95
17, 207360, Note_on_c, 15, 46, 95
17, 207840, Note_on_c, 15, 62, 95
17, 207840, Note_on_c, 15, 58, 95
17, 207840, Note_on_c, 15, 53, 95
17, 208320, Note_off_c, 15, 53, 95
17, 208320, Note_off_c, 15, 58, 95
17, 208320, Note_off_c, 15, 62, 95
17, 208320, Note_off_c, 15, 46, 95
17, 208320, Note_on_c, 15, 62, 95
17, 208320, Note_on_c, 15, 58, 95
17, 208320, Note_on_c, 15, 53, 95
17, 209280, Note_off_c, 15, 53, 95
17, 209280, Note_off_c, 15, 58, 95
17, 209280, Note_off_c, 15, 62, 95
17, 209280, Note_on_c, 15, 46, 95
17, 209760, Note_off_c, 15, 46, 95
17, 209760, Note_on_c, 15, 62, 95
17, 209760, Note_on_c, 15, 58, 95
17, 209760, Note_on_c, 15, 53, 95
17, 209760, Note_on_c, 15, 41, 95
17, 210000, Note_off_c, 15, 41, 95
17, 210000, Note_off_c, 15, 53, 95
17, 210000, Note_off_c, 15, 58, 95
17, 210000, Note_off_c, 15, 62, 95
17, 210000, Note_on_c, 15, 62, 95
17, 210000, Note_on_c, 15, 58, 95
17, 210000, Note_on_c, 15, 53, 95
17, 210000, Note_on_c, 15, 41, 95
17, 210480, Note_off_c, 15, 41, 95
17, 210480, Note_off_c, 15, 53, 95
17, 210480, Note_off_c, 15, 58, 95
17, 210480, Note_off_c, 15, 62, 95
17, 210480, Note_on_c, 15, 62, 95
17, 210480, Note_on_c, 15, 58, 95
17, 210480, Note_on_c, 15, 53, 95
17, 210720, Note_off_c, 15, 53, 95
17, 210720, Note_off_c, 15, 58, 95
17, 210720, Note_off_c, 15, 62, 95
17, 210720, Note_on_c, 15, 62, 95
17, 210720, Note_on_c, 15, 58, 95
17, 210720, Note_on_c, 15, 53, 95
17, 210720, Note_on_c, 15, 41, 95
17, 211200, Note_off_c, 15, 41, 95
17, 211200, Note_off_c, 15, 53, 95
17, 211200, Note_off_c, 15, 58, 95
17, 211200, Note_off_c, 15, 62, 95
17, 215040, Sequencer_specific, 3, 5, 15, 10
17, 215040, End_track
18, 0, Start_track
18, 0, Sequencer_specific, 5, 5, 15, 9, 12, 64
18, 0, Sequencer_specific, 15, 5, 15, 6, 71, 101, 110, 101, 114, 97, 108, 32, 77, 73, 68, 73
18, 0, Title_t, "Tenor Sax"
18, 0, Control_c, 10, 10, 4
18, 0, Program_c, 10, 66
18, 0, Control_c, 10, 6, 12
18, 0, Control_c, 10, 100, 0
18, 0, Control_c, 10, 101, 0
18, 0, Control_c, 10, 6, 12
18, 0, Control_c, 10, 100, 0
18, 0, Control_c, 10, 101, 0
18, 0, Sequencer_specific, 4, 5, 15, 10, 1
18, 0, Key_signature, -2, "major"
18, 2400, Note_on_c, 10, 46, 95
18, 2640, Note_off_c, 10, 46, 95
18, 2640, Note_on_c, 10, 46, 95
18, 2880, Note_off_c, 10, 46, 95
18, 2880, Note_on_c, 10, 50, 95
18, 3120, Note_off_c, 10, 50, 95
18, 3120, Note_on_c, 10, 51, 95
18, 3600, Note_off_c, 10, 51, 95
18, 3600, Note_on_c, 10, 53, 95
18, 5760, Note_off_c, 10, 53, 95
18, 6240, Note_on_c, 10, 51, 95
18, 6480, Note_off_c, 10, 51, 95
18, 6480, Note_on_c, 10, 49, 95
18, 6720, Note_off_c, 10, 49, 95
18, 6720, Note_on_c, 10, 51, 95
18, 6960, Note_off_c, 10, 51, 95
18, 6960, Note_on_c, 10, 49, 95
18, 7440, Note_off_c, 10, 49, 95
18, 7440, Note_on_c, 10, 46, 95
18, 9600, Note_off_c, 10, 46, 95
18, 10080, Note_on_c, 10, 58, 95
18, 10320, Note_off_c, 10, 58, 95
18, 10320, Note_on_c, 10, 58, 95
18, 10560, Note_off_c, 10, 58, 95
18, 10560, Note_on_c, 10, 62, 95
18, 10800, Note_off_c, 10, 62, 95
18, 10800, Note_on_c, 10, 63, 95
18, 11280, Note_off_c, 10, 63, 95
18, 11280, Note_on_c, 10, 65, 95
18, 13440, Note_off_c, 10, 65, 95
18, 13920, Note_on_c, 10, 51, 95
18, 14160, Note_off_c, 10, 51, 95
18, 14160, Note_on_c, 10, 49, 95
18, 14400, Note_off_c, 10, 49, 95
18, 14400, Note_on_c, 10, 51, 95
18, 14640, Note_off_c, 10, 51, 95
18, 14640, Note_on_c, 10, 49, 95
18, 15120, Note_off_c, 10, 49, 95
18, 19200, Sequencer_specific, 3, 5, 15, 10
18, 46080, Note_on_c, 10, 65, 95
18, 46080, Note_on_c, 10, 53, 95
18, 47520, Note_off_c, 10, 53, 95
18, 47520, Note_off_c, 10, 65, 95
18, 47760, Note_on_c, 10, 69, 95
18, 47760, Note_on_c, 10, 57, 95
18, 48000, Note_off_c, 10, 57, 95
18, 48000, Note_off_c, 10, 69, 95
18, 48240, Note_on_c, 10, 70, 95
18, 48240, Note_on_c, 10, 58, 95
18, 48480, Note_off_c, 10, 58, 95
18, 48480, Note_off_c, 10, 70, 95
18, 48720, Note_on_c, 10, 70, 95
18, 48720, Note_on_c, 10, 58, 95
18, 48960, Note_off_c, 10, 58, 95
18, 48960, Note_off_c, 10, 70, 95
18, 48960, Note_on_c, 10, 72, 70
18, 48960, Note_on_c, 10, 60, 95
18, 49440, Note_off_c, 10, 60, 95
18, 49440, Note_off_c, 10, 72, 70
18, 49920, Note_on_c, 10, 65, 95
18, 49920, Note_on_c, 10, 53, 95
18, 51360, Note_off_c, 10, 53, 95
18, 51360, Note_off_c, 10, 65, 95
18, 51600, Note_on_c, 10, 69, 95
18, 51600, Note_on_c, 10, 57, 95
18, 51840, Note_off_c, 10, 57, 95
18, 51840, Note_off_c, 10, 69, 95
18, 52080, Note_on_c, 10, 70, 95
18, 52080, Note_on_c, 10, 58, 95
18, 52320, Note_off_c, 10, 58, 95
18, 52320, Note_off_c, 10, 70, 95
18, 52560, Note_on_c, 10, 70, 95
18, 52560, Note_on_c, 10, 58, 95
18, 52800, Note_off_c, 10, 58, 95
18, 52800, Note_off_c, 10, 70, 95
18, 52800, Note_on_c, 10, 72, 70
18, 52800, Note_on_c, 10, 60, 95
18, 53280, Note_off_c, 10, 60, 95
18, 53280, Note_off_c, 10, 72, 70
18, 61920, Note_on_c, 10, 75, 95
18, 61920, Note_on_c, 10, 63, 95
18, 62160, Note_off_c, 10, 63, 95
18, 62160, Note_off_c, 10, 75, 95
18, 62160, Note_on_c, 10, 75, 95
18, 62160, Note_on_c, 10, 63, 95
18, 62400, Note_off_c, 10, 63, 95
18, 62400, Note_off_c, 10, 75, 95
18, 62640, Note_on_c, 10, 75, 95
18, 62640, Note_on_c, 10, 63, 95
18, 62880, Note_off_c, 10, 63, 95
18, 62880, Note_off_c, 10, 75, 95
18, 62880, Note_on_c, 10, 75, 95
18, 62880, Note_on_c, 10, 63, 95
18, 63120, Note_off_c, 10, 63, 95
18, 63120, Note_off_c, 10, 75, 95
18, 63600, Note_on_c, 10, 77, 95
18, 63600, Note_on_c, 10, 65, 95
18, 63840, Note_off_c, 10, 65, 95
18, 63840, Note_off_c, 10, 77, 95
18, 63840, Note_on_c, 10, 77, 95
18, 63840, Note_on_c, 10, 65, 95
18, 64080, Note_off_c, 10, 65, 95
18, 64080, Note_off_c, 10, 77, 95
18, 64080, Note_on_c, 10, 77, 95
18, 64080, Note_on_c, 10, 65, 95
18, 64320, Note_off_c, 10, 65, 95
18, 64320, Note_off_c, 10, 77, 95
18, 64560, Note_on_c, 10, 77, 95
18, 64560, Note_on_c, 10, 65, 95
18, 64800, Note_off_c, 10, 65, 95
18, 64800, Note_off_c, 10, 77, 95
18, 64800, Note_on_c, 10, 77, 95
18, 64800, Note_on_c, 10, 65, 95
18, 65040, Note_off_c, 10, 65, 95
18, 65040, Note_off_c, 10, 77, 95
18, 65280, Note_on_c, 10, 80, 95
18, 65280, Note_on_c, 10, 68, 95
18, 65760, Note_off_c, 10, 68, 95
18, 65760, Note_off_c, 10, 80, 95
18, 65760, Note_on_c, 10, 80, 95
18, 65760, Note_on_c, 10, 68, 95
18, 66000, Note_off_c, 10, 68, 95
18, 66000, Note_off_c, 10, 80, 95
18, 66000, Note_on_c, 10, 75, 95
18, 66000, Note_on_c, 10, 63, 95
18, 66240, Note_off_c, 10, 75, 95
18, 66480, Note_off_c, 10, 63, 95
18, 66480, Note_on_c, 10, 75, 95
18, 66480, Note_on_c, 10, 63, 95
18, 66720, Note_off_c, 10, 63, 95
18, 66720, Note_off_c, 10, 75, 95
18, 66720, Note_on_c, 10, 70, 95
18, 66720, Note_on_c, 10, 58, 95
18, 69120, Note_off_c, 10, 58, 95
18, 69120, Note_off_c, 10, 70, 95
18, 117600, Note_on_c, 10, 70, 95
18, 117600, Note_on_c, 10, 58, 95
18, 117840, Note_off_c, 10, 58, 95
18, 117840, Note_off_c, 10, 70, 95
18, 117840, Note_on_c, 10, 70, 95
18, 117840, Note_on_c, 10, 58, 95
18, 118080, Note_off_c, 10, 58, 95
18, 118080, Note_off_c, 10, 70, 95
18, 118080, Note_on_c, 10, 74, 95
18, 118080, Note_on_c, 10, 62, 95
18, 118320, Note_off_c, 10, 62, 95
18, 118320, Note_off_c, 10, 74, 95
18, 118320, Note_on_c, 10, 75, 95
18, 118320, Note_on_c, 10, 63, 95
18, 118800, Note_off_c, 10, 63, 95
18, 118800, Note_off_c, 10, 75, 95
18, 118800, Note_on_c, 10, 77, 95
18, 118800, Note_on_c, 10, 65, 95
18, 120960, Note_off_c, 10, 65, 95
18, 120960, Note_off_c, 10, 77, 95
18, 120960, Note_on_c, 10, 75, 95
18, 120960, Note_on_c, 10, 63, 95
18, 121200, Note_off_c, 10, 63, 95
18, 121200, Note_off_c, 10, 75, 95
18, 121200, Note_on_c, 10, 73, 95
18, 121200, Note_on_c, 10, 61, 95
18, 121440, Note_off_c, 10, 61, 95
18, 121440, Note_off_c, 10, 73, 95
18, 121440, Note_on_c, 10, 75, 95
18, 121440, Note_on_c, 10, 63, 95
18, 121680, Note_off_c, 10, 63, 95
18, 121680, Note_off_c, 10, 75, 95
18, 121680, Note_on_c, 10, 73, 95
18, 121680, Note_on_c, 10, 61, 95
18, 121920, Note_off_c, 10, 61, 95
18, 121920, Note_off_c, 10, 73, 95
18, 121920, Note_on_c, 10, 70, 95
18, 121920, Note_on_c, 10, 58, 95
18, 122160, Note_off_c, 10, 58, 95
18, 122160, Note_off_c, 10, 70, 95
18, 122160, Note_on_c, 10, 68, 95
18, 122160, Note_on_c, 10, 56, 95
18, 122400, Note_off_c, 10, 56, 95
18, 122400, Note_off_c, 10, 68, 95
18, 122400, Note_on_c, 10, 70, 95
18, 122400, Note_on_c, 10, 58, 95
18, 123840, Note_off_c, 10, 58, 95
18, 123840, Note_off_c, 10, 70, 95
18, 124320, Note_on_c, 10, 70, 95
18, 124320, Note_on_c, 10, 58, 95
18, 124560, Note_off_c, 10, 58, 95
18, 124560, Note_off_c, 10, 70, 95
18, 124560, Note_on_c, 10, 70, 95
18, 124560, Note_on_c, 10, 58, 95
18, 124800, Note_off_c, 10, 58, 95
18, 124800, Note_off_c, 10, 70, 95
18, 124800, Note_on_c, 10, 74, 95
18, 124800, Note_on_c, 10, 62, 95
18, 125040, Note_off_c, 10, 62, 95
18, 125040, Note_off_c, 10, 74, 95
18, 125040, Note_on_c, 10, 75, 95
18, 125040, Note_on_c, 10, 63, 95
18, 125520, Note_off_c, 10, 63, 95
18, 125520, Note_off_c, 10, 75, 95
18, 125520, Note_on_c, 10, 82, 95
18, 125520, Note_on_c, 10, 70, 95
18, 126720, Note_off_c, 10, 70, 95
18, 126720, Note_off_c, 10, 82, 95
18, 126720, Note_on_c, 10, 80, 95
18, 126720, Note_on_c, 10, 68, 95
18, 127440, Note_off_c, 10, 68, 95
18, 127440, Note_off_c, 10, 80, 95
18, 127440, Note_on_c, 10, 75, 95
18, 127440, Note_on_c, 10, 63, 95
18, 128160, Note_off_c, 10, 63, 95
18, 128160, Note_off_c, 10, 75, 95
18, 128160, Note_on_c, 10, 70, 95
18, 128160, Note_on_c, 10, 58, 95
18, 128640, Note_off_c, 10, 58, 95
18, 129600, Note_off_c, 10, 70, 95
18, 179040, Note_on_c, 10, 70, 95
18, 179040, Note_on_c, 10, 58, 95
18, 179280, Note_off_c, 10, 58, 95
18, 179280, Note_off_c, 10, 70, 95
18, 179280, Note_on_c, 10, 70, 95
18, 179280, Note_on_c, 10, 58, 95
18, 179520, Note_off_c, 10, 58, 95
18, 179520, Note_off_c, 10, 70, 95
18, 179520, Note_on_c, 10, 74, 95
18, 179520, Note_on_c, 10, 62, 95
18, 179760, Note_off_c, 10, 62, 95
18, 179760, Note_off_c, 10, 74, 95
18, 179760, Note_on_c, 10, 75, 95
18, 179760, Note_on_c, 10, 63, 95
18, 180240, Note_off_c, 10, 63, 95
18, 180240, Note_off_c, 10, 75, 95
18, 180240, Note_on_c, 10, 77, 95
18, 180240, Note_on_c, 10, 65, 95
18, 182400, Note_off_c, 10, 65, 95
18, 182400, Note_off_c, 10, 77, 95
18, 182400, Note_on_c, 10, 75, 95
18, 182400, Note_on_c, 10, 63, 95
18, 182640, Note_off_c, 10, 63, 95
18, 182640, Note_off_c, 10, 75, 95
18, 182640, Note_on_c, 10, 73, 95
18, 182640, Note_on_c, 10, 61, 95
18, 182880, Note_off_c, 10, 61, 95
18, 182880, Note_off_c, 10, 73, 95
18, 182880, Note_on_c, 10, 75, 95
18, 182880, Note_on_c, 10, 63, 95
18, 183120, Note_off_c, 10, 63, 95
18, 183120, Note_off_c, 10, 75, 95
18, 183120, Note_on_c, 10, 73, 95
18, 183120, Note_on_c, 10, 61, 95
18, 183360, Note_off_c, 10, 61, 95
18, 183360, Note_off_c, 10, 73, 95
18, 183360, Note_on_c, 10, 70, 95
18, 183360, Note_on_c, 10, 58, 95
18, 183600, Note_off_c, 10, 58, 95
18, 183600, Note_off_c, 10, 70, 95
18, 183600, Note_on_c, 10, 68, 95
18, 183600, Note_on_c, 10, 56, 95
18, 183840, Note_off_c, 10, 56, 95
18, 183840, Note_off_c, 10, 68, 95
18, 183840, Note_on_c, 10, 70, 95
18, 183840, Note_on_c, 10, 58, 95
18, 185280, Note_off_c, 10, 58, 95
18, 185280, Note_off_c, 10, 70, 95
18, 185760, Note_on_c, 10, 70, 95
18, 185760, Note_on_c, 10, 58, 95
18, 186000, Note_off_c, 10, 58, 95
18, 186000, Note_off_c, 10, 70, 95
18, 186000, Note_on_c, 10, 70, 95
18, 186000, Note_on_c, 10, 58, 95
18, 186240, Note_off_c, 10, 58, 95
18, 186240, Note_off_c, 10, 70, 95
18, 186240, Note_on_c, 10, 74, 95
18, 186240, Note_on_c, 10, 62, 95
18, 186480, Note_off_c, 10, 62, 95
18, 186480, Note_off_c, 10, 74, 95
18, 186480, Note_on_c, 10, 75, 95
18, 186480, Note_on_c, 10, 63, 95
18, 186960, Note_off_c, 10, 63, 95
18, 186960, Note_off_c, 10, 75, 95
18, 186960, Note_on_c, 10, 82, 95
18, 186960, Note_on_c, 10, 70, 95
18, 188160, Note_off_c, 10, 70, 95
18, 188160, Note_off_c, 10, 82, 95
18, 188160, Note_on_c, 10, 80, 95
18, 188160, Note_on_c, 10, 68, 95
18, 188880, Note_off_c, 10, 68, 95
18, 188880, Note_off_c, 10, 80, 95
18, 188880, Note_on_c, 10, 75, 95
18, 188880, Note_on_c, 10, 63, 95
18, 189600, Note_off_c, 10, 63, 95
18, 189600, Note_off_c, 10, 75, 95
18, 189600, Note_on_c, 10, 70, 95
18, 189600, Note_on_c, 10, 58, 95
18, 190080, Note_off_c, 10, 58, 95
18, 191040, Note_off_c, 10, 70, 95
18, 199680, Sequencer_specific, 3, 5, 15, 10
18, 199680, End_track
19, 0, Start_track
19, 0, Sequencer_specific, 5, 5, 15, 9, 12, 64
19, 0, Title_t, "Electric Guitar (muted)"
19, 0, Sequencer_specific, 15, 5, 15, 6, 71, 101, 110, 101, 114, 97, 108, 32, 77, 73, 68, 73
19, 0, Control_c, 11, 7, 115
19, 0, Control_c, 11, 10, 3
19, 0, Program_c, 11, 28
19, 0, Control_c, 11, 6, 12
19, 0, Control_c, 11, 100, 0
19, 0, Control_c, 11, 101, 0
19, 0, Sequencer_specific, 4, 5, 15, 10, 1
19, 0, Key_signature, -2, "major"
19, 15360, Note_on_c, 11, 62, 95
19, 15360, Note_on_c, 11, 58, 95
19, 15360, Note_on_c, 11, 53, 95
19, 15360, Note_on_c, 11, 46, 95
19, 15840, Note_off_c, 11, 46, 95
19, 15840, Note_off_c, 11, 53, 95
19, 15840, Note_off_c, 11, 58, 95
19, 15840, Note_off_c, 11, 62, 95
19, 15840, Note_on_c, 11, 70, 95
19, 15840, Note_on_c, 11, 68, 95
19, 15840, Note_on_c, 11, 62, 95
19, 15840, Note_on_c, 11, 58, 95
19, 16080, Note_off_c, 11, 58, 95
19, 16080, Note_off_c, 11, 62, 95
19, 16080, Note_off_c, 11, 68, 95
19, 16080, Note_off_c, 11, 70, 95
19, 16320, Note_on_c, 11, 59, 95
19, 16320, Note_on_c, 11, 55, 95
19, 16320, Note_on_c, 11, 50, 95
19, 16368, Note_off_c, 11, 50, 95
19, 16368, Note_off_c, 11, 55, 95
19, 16368, Note_off_c, 11, 59, 95
19, 16560, Note_on_c, 11, 70, 95
19, 16560, Note_on_c, 11, 68, 95
19, 16560, Note_on_c, 11, 62, 95
19, 16560, Note_on_c, 11, 58, 95
19, 16800, Note_off_c, 11, 58, 95
19, 16800, Note_off_c, 11, 62, 95
19, 16800, Note_off_c, 11, 68, 95
19, 16800, Note_off_c, 11, 70, 95
19, 17040, Note_on_c, 11, 70, 95
19, 17040, Note_on_c, 11, 68, 95
19, 17040, Note_on_c, 11, 62, 95
19, 17040, Note_on_c, 11, 58, 95
19, 17280, Note_off_c, 11, 58, 95
19, 17280, Note_off_c, 11, 62, 95
19, 17280, Note_off_c, 11, 68, 95
19, 17280, Note_off_c, 11, 70, 95
19, 17520, Note_on_c, 11, 70, 95
19, 17520, Note_on_c, 11, 68, 95
19, 17520, Note_on_c, 11, 62, 95
19, 17520, Note_on_c, 11, 58, 95
19, 17760, Note_off_c, 11, 58, 95
19, 17760, Note_off_c, 11, 62, 95
19, 17760, Note_off_c, 11, 68, 95
19, 17760, Note_off_c, 11, 70, 95
19, 18000, Note_on_c, 11, 68, 95
19, 18000, Note_on_c, 11, 63, 95
19, 18000, Note_on_c, 11, 60, 95
19, 18000, Note_on_c, 11, 56, 95
19, 18000, Note_on_c, 11, 51, 95
19, 18240, Note_off_c, 11, 51, 95
19, 18240, Note_off_c, 11, 56, 95
19, 18240, Note_off_c, 11, 60, 95
19, 18240, Note_off_c, 11, 63, 95
19, 18240, Note_off_c, 11, 68, 95
19, 18240, Note_on_c, 11, 68, 95
19, 18240, Note_on_c, 11, 63, 95
19, 18240, Note_on_c, 11, 60, 95
19, 18240, Note_on_c, 11, 56, 95
19, 18240, Note_on_c, 11, 51, 95
19, 18480, Note_off_c, 11, 51, 95
19, 18480, Note_off_c, 11, 56, 95
19, 18480, Note_off_c, 11, 60, 95
19, 18480, Note_off_c, 11, 63, 95
19, 18480, Note_off_c, 11, 68, 95
19, 18480, Note_on_c, 11, 67, 95
19, 18480, Note_on_c, 11, 63, 95
19, 18480, Note_on_c, 11, 58, 95
19, 18480, Note_on_c, 11, 51, 95
19, 18720, Note_off_c, 11, 51, 95
19, 18720, Note_off_c, 11, 58, 95
19, 18720, Note_off_c, 11, 63, 95
19, 18720, Note_off_c, 11, 67, 95
19, 18720, Note_on_c, 11, 67, 95
19, 18720, Note_on_c, 11, 63, 95
19, 18720, Note_on_c, 11, 58, 95
19, 18720, Note_on_c, 11, 51, 95
19, 18960, Note_off_c, 11, 51, 95
19, 18960, Note_off_c, 11, 58, 95
19, 18960, Note_off_c, 11, 63, 95
19, 18960, Note_off_c, 11, 67, 95
19, 18960, Note_on_c, 11, 62, 47
19, 18960, Note_on_c, 11, 58, 47
19, 18960, Note_on_c, 11, 53, 47
19, 19200, Note_off_c, 11, 53, 47
19, 19200, Note_off_c, 11, 58, 47
19, 19200, Note_off_c, 11, 62, 47
19, 19200, Note_on_c, 11, 62, 95
19, 19200, Note_on_c, 11, 58, 95
19, 19200, Note_on_c, 11, 53, 95
19, 19200, Note_on_c, 11, 46, 95
19, 19680, Note_off_c, 11, 46, 95
19, 19680, Note_off_c, 11, 53, 95
19, 19680, Note_off_c, 11, 58, 95
19, 19680, Note_off_c, 11, 62, 95
19, 19680, Note_on_c, 11, 70, 95
19, 19680, Note_on_c, 11, 68, 95
19, 19680, Note_on_c, 11, 62, 95
19, 19680, Note_on_c, 11, 58, 95
19, 19920, Note_off_c, 11, 58, 95
19, 19920, Note_off_c, 11, 62, 95
19, 19920, Note_off_c, 11, 68, 95
19, 19920, Note_off_c, 11, 70, 95
19, 20160, Note_on_c, 11, 59, 95
19, 20160, Note_on_c, 11, 55, 95
19, 20160, Note_on_c, 11, 50, 95
19, 20208, Note_off_c, 11, 50, 95
19, 20208, Note_off_c, 11, 55, 95
19, 20208, Note_off_c, 11, 59, 95
19, 20400, Note_on_c, 11, 70, 95
19, 20400, Note_on_c, 11, 68, 95
19, 20400, Note_on_c, 11, 62, 95
19, 20400, Note_on_c, 11, 58, 95
19, 20640, Note_off_c, 11, 58, 95
19, 20640, Note_off_c, 11, 62, 95
19, 20640, Note_off_c, 11, 68, 95
19, 20640, Note_off_c, 11, 70, 95
19, 20880, Note_on_c, 11, 70, 95
19, 20880, Note_on_c, 11, 68, 95
19, 20880, Note_on_c, 11, 62, 95
19, 20880, Note_on_c, 11, 58, 95
19, 21120, Note_off_c, 11, 58, 95
19, 21120, Note_off_c, 11, 62, 95
19, 21120, Note_off_c, 11, 68, 95
19, 21120, Note_off_c, 11, 70, 95
19, 21360, Note_on_c, 11, 70, 95
19, 21360, Note_on_c, 11, 68, 95
19, 21360, Note_on_c, 11, 62, 95
19, 21360, Note_on_c, 11, 58, 95
19, 21600, Note_off_c, 11, 58, 95
19, 21600, Note_off_c, 11, 62, 95
19, 21600, Note_off_c, 11, 68, 95
19, 21600, Note_off_c, 11, 70, 95
19, 21840, Note_on_c, 11, 68, 95
19, 21840, Note_on_c, 11, 63, 95
19, 21840, Note_on_c, 11, 60, 95
19, 21840, Note_on_c, 11, 56, 95
19, 21840, Note_on_c, 11, 51, 95
19, 22080, Note_off_c, 11, 51, 95
19, 22080, Note_off_c, 11, 56, 95
19, 22080, Note_off_c, 11, 60, 95
19, 22080, Note_off_c, 11, 63, 95
19, 22080, Note_off_c, 11, 68, 95
19, 22080, Note_on_c, 11, 68, 95
19, 22080, Note_on_c, 11, 63, 95
19, 22080, Note_on_c, 11, 60, 95
19, 22080, Note_on_c, 11, 56, 95
19, 22080, Note_on_c, 11, 51, 95
19, 22320, Note_off_c, 11, 51, 95
19, 22320, Note_off_c, 11, 56, 95
19, 22320, Note_off_c, 11, 60, 95
19, 22320, Note_off_c, 11, 63, 95
19, 22320, Note_off_c, 11, 68, 95
19, 22320, Note_on_c, 11, 67, 95
19, 22320, Note_on_c, 11, 63, 95
19, 22320, Note_on_c, 11, 58, 95
19, 22320, Note_on_c, 11, 51, 95
19, 22560, Note_off_c, 11, 51, 95
19, 22560, Note_off_c, 11, 58, 95
19, 22560, Note_off_c, 11, 63, 95
19, 22560, Note_off_c, 11, 67, 95
19, 22560, Note_on_c, 11, 67, 95
19, 22560, Note_on_c, 11, 63, 95
19, 22560, Note_on_c, 11, 58, 95
19, 22560, Note_on_c, 11, 51, 95
19, 22800, Note_off_c, 11, 51, 95
19, 22800, Note_off_c, 11, 58, 95
19, 22800, Note_off_c, 11, 63, 95
19, 22800, Note_off_c, 11, 67, 95
19, 22800, Note_on_c, 11, 62, 47
19, 22800, Note_on_c, 11, 58, 47
19, 22800, Note_on_c, 11, 53, 47
19, 23040, Note_off_c, 11, 53, 47
19, 23040, Note_off_c, 11, 58, 47
19, 23040, Note_off_c, 11, 62, 47
19, 23040, Note_on_c, 11, 62, 95
19, 23040, Note_on_c, 11, 58, 95
19, 23040, Note_on_c, 11, 53, 95
19, 23040, Note_on_c, 11, 46, 95
19, 23520, Note_off_c, 11, 46, 95
19, 23520, Note_off_c, 11, 53, 95
19, 23520, Note_off_c, 11, 58, 95
19, 23520, Note_off_c, 11, 62, 95
19, 23520, Note_on_c, 11, 70, 95
19, 23520, Note_on_c, 11, 68, 95
19, 23520, Note_on_c, 11, 62, 95
19, 23520, Note_on_c, 11, 58, 95
19, 23760, Note_off_c, 11, 58, 95
19, 23760, Note_off_c, 11, 62, 95
19, 23760, Note_off_c, 11, 68, 95
19, 23760, Note_off_c, 11, 70, 95
19, 24000, Note_on_c, 11, 59, 95
19, 24000, Note_on_c, 11, 55, 95
19, 24000, Note_on_c, 11, 50, 95
19, 24048, Note_off_c, 11, 50, 95
19, 24048, Note_off_c, 11, 55, 95
19, 24048, Note_off_c, 11, 59, 95
19, 24240, Note_on_c, 11, 70, 95
19, 24240, Note_on_c, 11, 68, 95
19, 24240, Note_on_c, 11, 62, 95
19, 24240, Note_on_c, 11, 58, 95
19, 24480, Note_off_c, 11, 58, 95
19, 24480, Note_off_c, 11, 62, 95
19, 24480, Note_off_c, 11, 68, 95
19, 24480, Note_off_c, 11, 70, 95
19, 24720, Note_on_c, 11, 70, 95
19, 24720, Note_on_c, 11, 68, 95
19, 24720, Note_on_c, 11, 62, 95
19, 24720, Note_on_c, 11, 58, 95
19, 24960, Note_off_c, 11, 58, 95
19, 24960, Note_off_c, 11, 62, 95
19, 24960, Note_off_c, 11, 68, 95
19, 24960, Note_off_c, 11, 70, 95
19, 25200, Note_on_c, 11, 70, 95
19, 25200, Note_on_c, 11, 68, 95
19, 25200, Note_on_c, 11, 62, 95
19, 25200, Note_on_c, 11, 58, 95
19, 25440, Note_off_c, 11, 58, 95
19, 25440, Note_off_c, 11, 62, 95
19, 25440, Note_off_c, 11, 68, 95
19, 25440, Note_off_c, 11, 70, 95
19, 25680, Note_on_c, 11, 68, 95
19, 25680, Note_on_c, 11, 63, 95
19, 25680, Note_on_c, 11, 60, 95
19, 25680, Note_on_c, 11, 56, 95
19, 25680, Note_on_c, 11, 51, 95
19, 25920, Note_off_c, 11, 51, 95
19, 25920, Note_off_c, 11, 56, 95
19, 25920, Note_off_c, 11, 60, 95
19, 25920, Note_off_c, 11, 63, 95
19, 25920, Note_off_c, 11, 68, 95
19, 25920, Note_on_c, 11, 68, 95
19, 25920, Note_on_c, 11, 63, 95
19, 25920, Note_on_c, 11, 60, 95
19, 25920, Note_on_c, 11, 56, 95
19, 25920, Note_on_c, 11, 51, 95
19, 26160, Note_off_c, 11, 51, 95
19, 26160, Note_off_c, 11, 56, 95
19, 26160, Note_off_c, 11, 60, 95
19, 26160, Note_off_c, 11, 63, 95
19, 26160, Note_off_c, 11, 68, 95
19, 26160, Note_on_c, 11, 67, 95
19, 26160, Note_on_c, 11, 63, 95
19, 26160, Note_on_c, 11, 58, 95
19, 26160, Note_on_c, 11, 51, 95
19, 26400, Note_off_c, 11, 51, 95
19, 26400, Note_off_c, 11, 58, 95
19, 26400, Note_off_c, 11, 63, 95
19, 26400, Note_off_c, 11, 67, 95
19, 26400, Note_on_c, 11, 67, 95
19, 26400, Note_on_c, 11, 63, 95
19, 26400, Note_on_c, 11, 58, 95
19, 26400, Note_on_c, 11, 51, 95
19, 26640, Note_off_c, 11, 51, 95
19, 26640, Note_off_c, 11, 58, 95
19, 26640, Note_off_c, 11, 63, 95
19, 26640, Note_off_c, 11, 67, 95
19, 26640, Note_on_c, 11, 62, 47
19, 26640, Note_on_c, 11, 58, 47
19, 26640, Note_on_c, 11, 53, 47
19, 26880, Note_off_c, 11, 53, 47
19, 26880, Note_off_c, 11, 58, 47
19, 26880, Note_off_c, 11, 62, 47
19, 26880, Note_on_c, 11, 62, 95
19, 26880, Note_on_c, 11, 58, 95
19, 26880, Note_on_c, 11, 53, 95
19, 26880, Note_on_c, 11, 46, 95
19, 27360, Note_off_c, 11, 46, 95
19, 27360, Note_off_c, 11, 53, 95
19, 27360, Note_off_c, 11, 58, 95
19, 27360, Note_off_c, 11, 62, 95
19, 27360, Note_on_c, 11, 70, 95
19, 27360, Note_on_c, 11, 68, 95
19, 27360, Note_on_c, 11, 62, 95
19, 27360, Note_on_c, 11, 58, 95
19, 27600, Note_off_c, 11, 58, 95
19, 27600, Note_off_c, 11, 62, 95
19, 27600, Note_off_c, 11, 68, 95
19, 27600, Note_off_c, 11, 70, 95
19, 27840, Note_on_c, 11, 59, 95
19, 27840, Note_on_c, 11, 55, 95
19, 27840, Note_on_c, 11, 50, 95
19, 27888, Note_off_c, 11, 50, 95
19, 27888, Note_off_c, 11, 55, 95
19, 27888, Note_off_c, 11, 59, 95
19, 28080, Note_on_c, 11, 70, 95
19, 28080, Note_on_c, 11, 68, 95
19, 28080, Note_on_c, 11, 62, 95
19, 28080, Note_on_c, 11, 58, 95
19, 28320, Note_off_c, 11, 58, 95
19, 28320, Note_off_c, 11, 62, 95
19, 28320, Note_off_c, 11, 68, 95
19, 28320, Note_off_c, 11, 70, 95
19, 28560, Note_on_c, 11, 70, 95
19, 28560, Note_on_c, 11, 68, 95
19, 28560, Note_on_c, 11, 62, 95
19, 28560, Note_on_c, 11, 58, 95
19, 28800, Note_off_c, 11, 58, 95
19, 28800, Note_off_c, 11, 62, 95
19, 28800, Note_off_c, 11, 68, 95
19, 28800, Note_off_c, 11, 70, 95
19, 29040, Note_on_c, 11, 70, 95
19, 29040, Note_on_c, 11, 68, 95
19, 29040, Note_on_c, 11, 62, 95
19, 29040, Note_on_c, 11, 58, 95
19, 29280, Note_off_c, 11, 58, 95
19, 29280, Note_off_c, 11, 62, 95
19, 29280, Note_off_c, 11, 68, 95
19, 29280, Note_off_c, 11, 70, 95
19, 29520, Note_on_c, 11, 68, 95
19, 29520, Note_on_c, 11, 63, 95
19, 29520, Note_on_c, 11, 60, 95
19, 29520, Note_on_c, 11, 56, 95
19, 29520, Note_on_c, 11, 51, 95
19, 29760, Note_off_c, 11, 51, 95
19, 29760, Note_off_c, 11, 56, 95
19, 29760, Note_off_c, 11, 60, 95
19, 29760, Note_off_c, 11, 63, 95
19, 29760, Note_off_c, 11, 68, 95
19, 29760, Note_on_c, 11, 68, 95
19, 29760, Note_on_c, 11, 63, 95
19, 29760, Note_on_c, 11, 60, 95
19, 29760, Note_on_c, 11, 56, 95
19, 29760, Note_on_c, 11, 51, 95
19, 30000, Note_off_c, 11, 51, 95
19, 30000, Note_off_c, 11, 56, 95
19, 30000, Note_off_c, 11, 60, 95
19, 30000, Note_off_c, 11, 63, 95
19, 30000, Note_off_c, 11, 68, 95
19, 30000, Note_on_c, 11, 67, 95
19, 30000, Note_on_c, 11, 63, 95
19, 30000, Note_on_c, 11, 58, 95
19, 30000, Note_on_c, 11, 51, 95
19, 30240, Note_off_c, 11, 51, 95
19, 30240, Note_off_c, 11, 58, 95
19, 30240, Note_off_c, 11, 63, 95
19, 30240, Note_off_c, 11, 67, 95
19, 30240, Note_on_c, 11, 67, 95
19, 30240, Note_on_c, 11, 63, 95
19, 30240, Note_on_c, 11, 58, 95
19, 30240, Note_on_c, 11, 51, 95
19, 30480, Note_off_c, 11, 51, 95
19, 30480, Note_off_c, 11, 58, 95
19, 30480, Note_off_c, 11, 63, 95
19, 30480, Note_off_c, 11, 67, 95
19, 30480, Note_on_c, 11, 62, 47
19, 30480, Note_on_c, 11, 58, 47
19, 30480, Note_on_c, 11, 53, 47
19, 30720, Note_off_c, 11, 53, 47
19, 30720, Note_off_c, 11, 58, 47
19, 30720, Note_off_c, 11, 62, 47
19, 30720, Note_on_c, 11, 62, 95
19, 30720, Note_on_c, 11, 58, 95
19, 30720, Note_on_c, 11, 53, 95
19, 30720, Note_on_c, 11, 46, 95
19, 31200, Note_off_c, 11, 46, 95
19, 31200, Note_off_c, 11, 53, 95
19, 31200, Note_off_c, 11, 58, 95
19, 31200, Note_off_c, 11, 62, 95
19, 31200, Note_on_c, 11, 70, 95
19, 31200, Note_on_c, 11, 68, 95
19, 31200, Note_on_c, 11, 62, 95
19, 31200, Note_on_c, 11, 58, 95
19, 31440, Note_off_c, 11, 58, 95
19, 31440, Note_off_c, 11, 62, 95
19, 31440, Note_off_c, 11, 68, 95
19, 31440, Note_off_c, 11, 70, 95
19, 31680, Note_on_c, 11, 59, 95
19, 31680, Note_on_c, 11, 55, 95
19, 31680, Note_on_c, 11, 50, 95
19, 31728, Note_off_c, 11, 50, 95
19, 31728, Note_off_c, 11, 55, 95
19, 31728, Note_off_c, 11, 59, 95
19, 31920, Note_on_c, 11, 70, 95
19, 31920, Note_on_c, 11, 68, 95
19, 31920, Note_on_c, 11, 62, 95
19, 31920, Note_on_c, 11, 58, 95
19, 32160, Note_off_c, 11, 58, 95
19, 32160, Note_off_c, 11, 62, 95
19, 32160, Note_off_c, 11, 68, 95
19, 32160, Note_off_c, 11, 70, 95
19, 32400, Note_on_c, 11, 70, 95
19, 32400, Note_on_c, 11, 68, 95
19, 32400, Note_on_c, 11, 62, 95
19, 32400, Note_on_c, 11, 58, 95
19, 32640, Note_off_c, 11, 58, 95
19, 32640, Note_off_c, 11, 62, 95
19, 32640, Note_off_c, 11, 68, 95
19, 32640, Note_off_c, 11, 70, 95
19, 32880, Note_on_c, 11, 70, 95
19, 32880, Note_on_c, 11, 68, 95
19, 32880, Note_on_c, 11, 62, 95
19, 32880, Note_on_c, 11, 58, 95
19, 33120, Note_off_c, 11, 58, 95
19, 33120, Note_off_c, 11, 62, 95
19, 33120, Note_off_c, 11, 68, 95
19, 33120, Note_off_c, 11, 70, 95
19, 33360, Note_on_c, 11, 68, 95
19, 33360, Note_on_c, 11, 63, 95
19, 33360, Note_on_c, 11, 60, 95
19, 33360, Note_on_c, 11, 56, 95
19, 33360, Note_on_c, 11, 51, 95
19, 33600, Note_off_c, 11, 51, 95
19, 33600, Note_off_c, 11, 56, 95
19, 33600, Note_off_c, 11, 60, 95
19, 33600, Note_off_c, 11, 63, 95
19, 33600, Note_off_c, 11, 68, 95
19, 33600, Note_on_c, 11, 68, 95
19, 33600, Note_on_c, 11, 63, 95
19, 33600, Note_on_c, 11, 60, 95
19, 33600, Note_on_c, 11, 56, 95
19, 33600, Note_on_c, 11, 51, 95
19, 33840, Note_off_c, 11, 51, 95
19, 33840, Note_off_c, 11, 56, 95
19, 33840, Note_off_c, 11, 60, 95
19, 33840, Note_off_c, 11, 63, 95
19, 33840, Note_off_c, 11, 68, 95
19, 33840, Note_on_c, 11, 67, 95
19, 33840, Note_on_c, 11, 63, 95
19, 33840, Note_on_c, 11, 58, 95
19, 33840, Note_on_c, 11, 51, 95
19, 34080, Note_off_c, 11, 51, 95
19, 34080, Note_off_c, 11, 58, 95
19, 34080, Note_off_c, 11, 63, 95
19, 34080, Note_off_c, 11, 67, 95
19, 34080, Note_on_c, 11, 67, 95
19, 34080, Note_on_c, 11, 63, 95
19, 34080, Note_on_c, 11, 58, 95
19, 34080, Note_on_c, 11, 51, 95
19, 34320, Note_off_c, 11, 51, 95
19, 34320, Note_off_c, 11, 58, 95
19, 34320, Note_off_c, 11, 63, 95
19, 34320, Note_off_c, 11, 67, 95
19, 34320, Note_on_c, 11, 62, 47
19, 34320, Note_on_c, 11, 58, 47
19, 34320, Note_on_c, 11, 53, 47
19, 34560, Note_off_c, 11, 53, 47
19, 34560, Note_off_c, 11, 58, 47
19, 34560, Note_off_c, 11, 62, 47
19, 34560, Note_on_c, 11, 62, 95
19, 34560, Note_on_c, 11, 58, 95
19, 34560, Note_on_c, 11, 53, 95
19, 34560, Note_on_c, 11, 46, 95
19, 35040, Note_off_c, 11, 46, 95
19, 35040, Note_off_c, 11, 53, 95
19, 35040, Note_off_c, 11, 58, 95
19, 35040, Note_off_c, 11, 62, 95
19, 35040, Note_on_c, 11, 70, 95
19, 35040, Note_on_c, 11, 68, 95
19, 35040, Note_on_c, 11, 62, 95
19, 35040, Note_on_c, 11, 58, 95
19, 35280, Note_off_c, 11, 58, 95
19, 35280, Note_off_c, 11, 62, 95
19, 35280, Note_off_c, 11, 68, 95
19, 35280, Note_off_c, 11, 70, 95
19, 35520, Note_on_c, 11, 59, 95
19, 35520, Note_on_c, 11, 55, 95
19, 35520, Note_on_c, 11, 50, 95
19, 35568, Note_off_c, 11, 50, 95
19, 35568, Note_off_c, 11, 55, 95
19, 35568, Note_off_c, 11, 59, 95
19, 35760, Note_on_c, 11, 70, 95
19, 35760, Note_on_c, 11, 68, 95
19, 35760, Note_on_c, 11, 62, 95
19, 35760, Note_on_c, 11, 58, 95
19, 36000, Note_off_c, 11, 58, 95
19, 36000, Note_off_c, 11, 62, 95
19, 36000, Note_off_c, 11, 68, 95
19, 36000, Note_off_c, 11, 70, 95
19, 36240, Note_on_c, 11, 70, 95
19, 36240, Note_on_c, 11, 68, 95
19, 36240, Note_on_c, 11, 62, 95
19, 36240, Note_on_c, 11, 58, 95
19, 36480, Note_off_c, 11, 58, 95
19, 36480, Note_off_c, 11, 62, 95
19, 36480, Note_off_c, 11, 68, 95
19, 36480, Note_off_c, 11, 70, 95
19, 36720, Note_on_c, 11, 70, 95
19, 36720, Note_on_c, 11, 68, 95
19, 36720, Note_on_c, 11, 62, 95
19, 36720, Note_on_c, 11, 58, 95
19, 36960, Note_off_c, 11, 58, 95
19, 36960, Note_off_c, 11, 62, 95
19, 36960, Note_off_c, 11, 68, 95
19, 36960, Note_off_c, 11, 70, 95
19, 37200, Note_on_c, 11, 68, 95
19, 37200, Note_on_c, 11, 63, 95
19, 37200, Note_on_c, 11, 60, 95
19, 37200, Note_on_c, 11, 56, 95
19, 37200, Note_on_c, 11, 51, 95
19, 37440, Note_off_c, 11, 51, 95
19, 37440, Note_off_c, 11, 56, 95
19, 37440, Note_off_c, 11, 60, 95
19, 37440, Note_off_c, 11, 63, 95
19, 37440, Note_off_c, 11, 68, 95
19, 37440, Note_on_c, 11, 68, 95
19, 37440, Note_on_c, 11, 63, 95
19, 37440, Note_on_c, 11, 60, 95
19, 37440, Note_on_c, 11, 56, 95
19, 37440, Note_on_c, 11, 51, 95
19, 37680, Note_off_c, 11, 51, 95
19, 37680, Note_off_c, 11, 56, 95
19, 37680, Note_off_c, 11, 60, 95
19, 37680, Note_off_c, 11, 63, 95
19, 37680, Note_off_c, 11, 68, 95
19, 37680, Note_on_c, 11, 67, 95
19, 37680, Note_on_c, 11, 63, 95
19, 37680, Note_on_c, 11, 58, 95
19, 37680, Note_on_c, 11, 51, 95
19, 37920, Note_off_c, 11, 51, 95
19, 37920, Note_off_c, 11, 58, 95
19, 37920, Note_off_c, 11, 63, 95
19, 37920, Note_off_c, 11, 67, 95
19, 37920, Note_on_c, 11, 67, 95
19, 37920, Note_on_c, 11, 63, 95
19, 37920, Note_on_c, 11, 58, 95
19, 37920, Note_on_c, 11, 51, 95
19, 38160, Note_off_c, 11, 51, 95
19, 38160, Note_off_c, 11, 58, 95
19, 38160, Note_off_c, 11, 63, 95
19, 38160, Note_off_c, 11, 67, 95
19, 38160, Note_on_c, 11, 62, 47
19, 38160, Note_on_c, 11, 58, 47
19, 38160, Note_on_c, 11, 53, 47
19, 38400, Note_off_c, 11, 53, 47
19, 38400, Note_off_c, 11, 58, 47
19, 38400, Note_off_c, 11, 62, 47
19, 38400, Note_on_c, 11, 62, 95
19, 38400, Note_on_c, 11, 58, 95
19, 38400, Note_on_c, 11, 53, 95
19, 38400, Note_on_c, 11, 46, 95
19, 38880, Note_off_c, 11, 46, 95
19, 38880, Note_off_c, 11, 53, 95
19, 38880, Note_off_c, 11, 58, 95
19, 38880, Note_off_c, 11, 62, 95
19, 38880, Note_on_c, 11, 70, 95
19, 38880, Note_on_c, 11, 68, 95
19, 38880, Note_on_c, 11, 62, 95
19, 38880, Note_on_c, 11, 58, 95
19, 39120, Note_off_c, 11, 58, 95
19, 39120, Note_off_c, 11, 62, 95
19, 39120, Note_off_c, 11, 68, 95
19, 39120, Note_off_c, 11, 70, 95
19, 39360, Note_on_c, 11, 59, 95
19, 39360, Note_on_c, 11, 55, 95
19, 39360, Note_on_c, 11, 50, 95
19, 39408, Note_off_c, 11, 50, 95
19, 39408, Note_off_c, 11, 55, 95
19, 39408, Note_off_c, 11, 59, 95
19, 39600, Note_on_c, 11, 70, 95
19, 39600, Note_on_c, 11, 68, 95
19, 39600, Note_on_c, 11, 62, 95
19, 39600, Note_on_c, 11, 58, 95
19, 39840, Note_off_c, 11, 58, 95
19, 39840, Note_off_c, 11, 62, 95
19, 39840, Note_off_c, 11, 68, 95
19, 39840, Note_off_c, 11, 70, 95
19, 40080, Note_on_c, 11, 70, 95
19, 40080, Note_on_c, 11, 68, 95
19, 40080, Note_on_c, 11, 62, 95
19, 40080, Note_on_c, 11, 58, 95
19, 40320, Note_off_c, 11, 58, 95
19, 40320, Note_off_c, 11, 62, 95
19, 40320, Note_off_c, 11, 68, 95
19, 40320, Note_off_c, 11, 70, 95
19, 40560, Note_on_c, 11, 70, 95
19, 40560, Note_on_c, 11, 68, 95
19, 40560, Note_on_c, 11, 62, 95
19, 40560, Note_on_c, 11, 58, 95
19, 40800, Note_off_c, 11, 58, 95
19, 40800, Note_off_c, 11, 62, 95
19, 40800, Note_off_c, 11, 68, 95
19, 40800, Note_off_c, 11, 70, 95
19, 41040, Note_on_c, 11, 68, 95
19, 41040, Note_on_c, 11, 63, 95
19, 41040, Note_on_c, 11, 60, 95
19, 41040, Note_on_c, 11, 56, 95
19, 41040, Note_on_c, 11, 51, 95
19, 41280, Note_off_c, 11, 51, 95
19, 41280, Note_off_c, 11, 56, 95
19, 41280, Note_off_c, 11, 60, 95
19, 41280, Note_off_c, 11, 63, 95
19, 41280, Note_off_c, 11, 68, 95
19, 41280, Note_on_c, 11, 68, 95
19, 41280, Note_on_c, 11, 63, 95
19, 41280, Note_on_c, 11, 60, 95
19, 41280, Note_on_c, 11, 56, 95
19, 41280, Note_on_c, 11, 51, 95
19, 41520, Note_off_c, 11, 51, 95
19, 41520, Note_off_c, 11, 56, 95
19, 41520, Note_off_c, 11, 60, 95
19, 41520, Note_off_c, 11, 63, 95
19, 41520, Note_off_c, 11, 68, 95
19, 41520, Note_on_c, 11, 67, 95
19, 41520, Note_on_c, 11, 63, 95
19, 41520, Note_on_c, 11, 58, 95
19, 41520, Note_on_c, 11, 51, 95
19, 41760, Note_off_c, 11, 51, 95
19, 41760, Note_off_c, 11, 58, 95
19, 41760, Note_off_c, 11, 63, 95
19, 41760, Note_off_c, 11, 67, 95
19, 41760, Note_on_c, 11, 67, 95
19, 41760, Note_on_c, 11, 63, 95
19, 41760, Note_on_c, 11, 58, 95
19, 41760, Note_on_c, 11, 51, 95
19, 42000, Note_off_c, 11, 51, 95
19, 42000, Note_off_c, 11, 58, 95
19, 42000, Note_off_c, 11, 63, 95
19, 42000, Note_off_c, 11, 67, 95
19, 42000, Note_on_c, 11, 62, 47
19, 42000, Note_on_c, 11, 58, 47
19, 42000, Note_on_c, 11, 53, 47
19, 42240, Note_off_c, 11, 53, 47
19, 42240, Note_off_c, 11, 58, 47
19, 42240, Note_off_c, 11, 62, 47
19, 42240, Note_on_c, 11, 62, 95
19, 42240, Note_on_c, 11, 58, 95
19, 42240, Note_on_c, 11, 53, 95
19, 42240, Note_on_c, 11, 46, 95
19, 42720, Note_off_c, 11, 46, 95
19, 42720, Note_off_c, 11, 53, 95
19, 42720, Note_off_c, 11, 58, 95
19, 42720, Note_off_c, 11, 62, 95
19, 42720, Note_on_c, 11, 70, 95
19, 42720, Note_on_c, 11, 68, 95
19, 42720, Note_on_c, 11, 62, 95
19, 42720, Note_on_c, 11, 58, 95
19, 42960, Note_off_c, 11, 58, 95
19, 42960, Note_off_c, 11, 62, 95
19, 42960, Note_off_c, 11, 68, 95
19, 42960, Note_off_c, 11, 70, 95
19, 43200, Note_on_c, 11, 59, 95
19, 43200, Note_on_c, 11, 55, 95
19, 43200, Note_on_c, 11, 50, 95
19, 43248, Note_off_c, 11, 50, 95
19, 43248, Note_off_c, 11, 55, 95
19, 43248, Note_off_c, 11, 59, 95
19, 43440, Note_on_c, 11, 70, 95
19, 43440, Note_on_c, 11, 68, 95
19, 43440, Note_on_c, 11, 62, 95
19, 43440, Note_on_c, 11, 58, 95
19, 43680, Note_off_c, 11, 58, 95
19, 43680, Note_off_c, 11, 62, 95
19, 43680, Note_off_c, 11, 68, 95
19, 43680, Note_off_c, 11, 70, 95
19, 43920, Note_on_c, 11, 70, 95
19, 43920, Note_on_c, 11, 68, 95
19, 43920, Note_on_c, 11, 62, 95
19, 43920, Note_on_c, 11, 58, 95
19, 44160, Note_off_c, 11, 58, 95
19, 44160, Note_off_c, 11, 62, 95
19, 44160, Note_off_c, 11, 68, 95
19, 44160, Note_off_c, 11, 70, 95
19, 44400, Note_on_c, 11, 70, 95
19, 44400, Note_on_c, 11, 68, 95
19, 44400, Note_on_c, 11, 62, 95
19, 44400, Note_on_c, 11, 58, 95
19, 44640, Note_off_c, 11, 58, 95
19, 44640, Note_off_c, 11, 62, 95
19, 44640, Note_off_c, 11, 68, 95
19, 44640, Note_off_c, 11, 70, 95
19, 44880, Note_on_c, 11, 68, 95
19, 44880, Note_on_c, 11, 63, 95
19, 44880, Note_on_c, 11, 60, 95
19, 44880, Note_on_c, 11, 56, 95
19, 44880, Note_on_c, 11, 51, 95
19, 45120, Note_off_c, 11, 51, 95
19, 45120, Note_off_c, 11, 56, 95
19, 45120, Note_off_c, 11, 60, 95
19, 45120, Note_off_c, 11, 63, 95
19, 45120, Note_off_c, 11, 68, 95
19, 45120, Note_on_c, 11, 68, 95
19, 45120, Note_on_c, 11, 63, 95
19, 45120, Note_on_c, 11, 60, 95
19, 45120, Note_on_c, 11, 56, 95
19, 45120, Note_on_c, 11, 51, 95
19, 45360, Note_off_c, 11, 51, 95
19, 45360, Note_off_c, 11, 56, 95
19, 45360, Note_off_c, 11, 60, 95
19, 45360, Note_off_c, 11, 63, 95
19, 45360, Note_off_c, 11, 68, 95
19, 45360, Note_on_c, 11, 67, 95
19, 45360, Note_on_c, 11, 63, 95
19, 45360, Note_on_c, 11, 58, 95
19, 45360, Note_on_c, 11, 51, 95
19, 45600, Note_off_c, 11, 51, 95
19, 45600, Note_off_c, 11, 58, 95
19, 45600, Note_off_c, 11, 63, 95
19, 45600, Note_off_c, 11, 67, 95
19, 45600, Note_on_c, 11, 67, 95
19, 45600, Note_on_c, 11, 63, 95
19, 45600, Note_on_c, 11, 58, 95
19, 45600, Note_on_c, 11, 51, 95
19, 45840, Note_off_c, 11, 51, 95
19, 45840, Note_off_c, 11, 58, 95
19, 45840, Note_off_c, 11, 63, 95
19, 45840, Note_off_c, 11, 67, 95
19, 45840, Note_on_c, 11, 62, 47
19, 45840, Note_on_c, 11, 58, 47
19, 45840, Note_on_c, 11, 53, 47
19, 46080, Note_off_c, 11, 53, 47
19, 46080, Note_off_c, 11, 58, 47
19, 46080, Note_off_c, 11, 62, 47
19, 46080, Note_on_c, 11, 60, 95
19, 46080, Note_on_c, 11, 53, 95
19, 46080, Note_on_c, 11, 48, 95
19, 46560, Note_off_c, 11, 48, 95
19, 46560, Note_off_c, 11, 53, 95
19, 46560, Note_off_c, 11, 60, 95
19, 46560, Note_on_c, 11, 72, 95
19, 46560, Note_on_c, 11, 69, 95
19, 46560, Note_on_c, 11, 63, 95
19, 46560, Note_on_c, 11, 60, 95
19, 46800, Note_off_c, 11, 60, 95
19, 46800, Note_off_c, 11, 63, 95
19, 46800, Note_off_c, 11, 69, 95
19, 46800, Note_off_c, 11, 72, 95
19, 47040, Note_on_c, 11, 69, 95
19, 47040, Note_on_c, 11, 63, 95
19, 47040, Note_on_c, 11, 60, 95
19, 47088, Note_off_c, 11, 60, 95
19, 47088, Note_off_c, 11, 63, 95
19, 47088, Note_off_c, 11, 69, 95
19, 47280, Note_on_c, 11, 72, 95
19, 47280, Note_on_c, 11, 69, 95
19, 47280, Note_on_c, 11, 63, 95
19, 47280, Note_on_c, 11, 60, 95
19, 47520, Note_off_c, 11, 60, 95
19, 47520, Note_off_c, 11, 63, 95
19, 47520, Note_off_c, 11, 69, 95
19, 47520, Note_off_c, 11, 72, 95
19, 47760, Note_on_c, 11, 72, 95
19, 47760, Note_on_c, 11, 69, 95
19, 47760, Note_on_c, 11, 63, 95
19, 47760, Note_on_c, 11, 60, 95
19, 48000, Note_off_c, 11, 60, 95
19, 48000, Note_off_c, 11, 63, 95
19, 48000, Note_off_c, 11, 69, 95
19, 48000, Note_off_c, 11, 72, 95
19, 48240, Note_on_c, 11, 72, 95
19, 48240, Note_on_c, 11, 69, 95
19, 48240, Note_on_c, 11, 63, 95
19, 48240, Note_on_c, 11, 60, 95
19, 48480, Note_off_c, 11, 60, 95
19, 48480, Note_off_c, 11, 63, 95
19, 48480, Note_off_c, 11, 69, 95
19, 48480, Note_off_c, 11, 72, 95
19, 48720, Note_on_c, 11, 69, 95
19, 48720, Note_on_c, 11, 63, 95
19, 48720, Note_on_c, 11, 60, 95
19, 48720, Note_on_c, 11, 53, 95
19, 48960, Note_off_c, 11, 53, 95
19, 48960, Note_off_c, 11, 60, 95
19, 48960, Note_off_c, 11, 63, 95
19, 48960, Note_off_c, 11, 69, 95
19, 48960, Note_on_c, 11, 69, 95
19, 48960, Note_on_c, 11, 63, 95
19, 48960, Note_on_c, 11, 60, 95
19, 48960, Note_on_c, 11, 53, 95
19, 49200, Note_off_c, 11, 53, 95
19, 49200, Note_off_c, 11, 60, 95
19, 49200, Note_off_c, 11, 63, 95
19, 49200, Note_off_c, 11, 69, 95
19, 49200, Note_on_c, 11, 69, 95
19, 49200, Note_on_c, 11, 63, 95
19, 49200, Note_on_c, 11, 60, 95
19, 49200, Note_on_c, 11, 53, 95
19, 49440, Note_off_c, 11, 53, 95
19, 49440, Note_off_c, 11, 60, 95
19, 49440, Note_off_c, 11, 63, 95
19, 49440, Note_off_c, 11, 69, 95
19, 49440, Note_on_c, 11, 69, 95
19, 49440, Note_on_c, 11, 63, 95
19, 49440, Note_on_c, 11, 60, 95
19, 49440, Note_on_c, 11, 53, 95
19, 49680, Note_off_c, 11, 53, 95
19, 49680, Note_off_c, 11, 60, 95
19, 49680, Note_off_c, 11, 63, 95
19, 49680, Note_off_c, 11, 69, 95
19, 49680, Note_on_c, 11, 63, 95
19, 49680, Note_on_c, 11, 60, 95
19, 49680, Note_on_c, 11, 53, 95
19, 49920, Note_off_c, 11, 53, 95
19, 49920, Note_off_c, 11, 60, 95
19, 49920, Note_off_c, 11, 63, 95
19, 49920, Note_on_c, 11, 60, 95
19, 49920, Note_on_c, 11, 53, 95
19, 49920, Note_on_c, 11, 48, 95
19, 50400, Note_off_c, 11, 48, 95
19, 50400, Note_off_c, 11, 53, 95
19, 50400, Note_off_c, 11, 60, 95
19, 50400, Note_on_c, 11, 72, 95
19, 50400, Note_on_c, 11, 69, 95
19, 50400, Note_on_c, 11, 63, 95
19, 50400, Note_on_c, 11, 60, 95
19, 50640, Note_off_c, 11, 60, 95
19, 50640, Note_off_c, 11, 63, 95
19, 50640, Note_off_c, 11, 69, 95
19, 50640, Note_off_c, 11, 72, 95
19, 50880, Note_on_c, 11, 69, 95
19, 50880, Note_on_c, 11, 63, 95
19, 50880, Note_on_c, 11, 60, 95
19, 50928, Note_off_c, 11, 60, 95
19, 50928, Note_off_c, 11, 63, 95
19, 50928, Note_off_c, 11, 69, 95
19, 51120, Note_on_c, 11, 72, 95
19, 51120, Note_on_c, 11, 69, 95
19, 51120, Note_on_c, 11, 63, 95
19, 51120, Note_on_c, 11, 60, 95
19, 51360, Note_off_c, 11, 60, 95
19, 51360, Note_off_c, 11, 63, 95
19, 51360, Note_off_c, 11, 69, 95
19, 51360, Note_off_c, 11, 72, 95
19, 51600, Note_on_c, 11, 72, 95
19, 51600, Note_on_c, 11, 69, 95
19, 51600, Note_on_c, 11, 63, 95
19, 51600, Note_on_c, 11, 60, 95
19, 51840, Note_off_c, 11, 60, 95
19, 51840, Note_off_c, 11, 63, 95
19, 51840, Note_off_c, 11, 69, 95
19, 51840, Note_off_c, 11, 72, 95
19, 52080, Note_on_c, 11, 72, 95
19, 52080, Note_on_c, 11, 69, 95
19, 52080, Note_on_c, 11, 63, 95
19, 52080, Note_on_c, 11, 60, 95
19, 52320, Note_off_c, 11, 60, 95
19, 52320, Note_off_c, 11, 63, 95
19, 52320, Note_off_c, 11, 69, 95
19, 52320, Note_off_c, 11, 72, 95
19, 52560, Note_on_c, 11, 69, 95
19, 52560, Note_on_c, 11, 63, 95
19, 52560, Note_on_c, 11, 60, 95
19, 52560, Note_on_c, 11, 53, 95
19, 52800, Note_off_c, 11, 53, 95
19, 52800, Note_off_c, 11, 60, 95
19, 52800, Note_off_c, 11, 63, 95
19, 52800, Note_off_c, 11, 69, 95
19, 52800, Note_on_c, 11, 69, 95
19, 52800, Note_on_c, 11, 63, 95
19, 52800, Note_on_c, 11, 60, 95
19, 52800, Note_on_c, 11, 53, 95
19, 53040, Note_off_c, 11, 53, 95
19, 53040, Note_off_c, 11, 60, 95
19, 53040, Note_off_c, 11, 63, 95
19, 53040, Note_off_c, 11, 69, 95
19, 53040, Note_on_c, 11, 69, 95
19, 53040, Note_on_c, 11, 63, 95
19, 53040, Note_on_c, 11, 60, 95
19, 53040, Note_on_c, 11, 53, 95
19, 53280, Note_off_c, 11, 53, 95
19, 53280, Note_off_c, 11, 60, 95
19, 53280, Note_off_c, 11, 63, 95
19, 53280, Note_off_c, 11, 69, 95
19, 53280, Note_on_c, 11, 69, 95
19, 53280, Note_on_c, 11, 63, 95
19, 53280, Note_on_c, 11, 60, 95
19, 53280, Note_on_c, 11, 53, 95
19, 53520, Note_off_c, 11, 53, 95
19, 53520, Note_off_c, 11, 60, 95
19, 53520, Note_off_c, 11, 63, 95
19, 53520, Note_off_c, 11, 69, 95
19, 53520, Note_on_c, 11, 63, 95
19, 53520, Note_on_c, 11, 60, 95
19, 53520, Note_on_c, 11, 53, 95
19, 53760, Note_off_c, 11, 53, 95
19, 53760, Note_off_c, 11, 60, 95
19, 53760, Note_off_c, 11, 63, 95
19, 53760, Note_on_c, 11, 69, 127
19, 53760, Note_on_c, 11, 63, 127
19, 53760, Note_on_c, 11, 60, 127
19, 53760, Note_on_c, 11, 53, 127
19, 53760, Note_on_c, 11, 48, 127
19, 54240, Note_off_c, 11, 48, 127
19, 54240, Note_off_c, 11, 53, 127
19, 54240, Note_off_c, 11, 60, 127
19, 54240, Note_off_c, 11, 63, 127
19, 54240, Note_off_c, 11, 69, 127
19, 61440, Note_on_c, 11, 67, 127
19, 61440, Note_on_c, 11, 63, 127
19, 61440, Note_on_c, 11, 58, 127
19, 61440, Note_on_c, 11, 55, 127
19, 61440, Note_on_c, 11, 51, 127
19, 62400, Note_off_c, 11, 51, 127
19, 62400, Note_off_c, 11, 55, 127
19, 62400, Note_off_c, 11, 58, 127
19, 62400, Note_off_c, 11, 63, 127
19, 62400, Note_off_c, 11, 67, 127
19, 62880, Note_on_c, 11, 69, 127
19, 62880, Note_on_c, 11, 65, 127
19, 62880, Note_on_c, 11, 60, 127
19, 62880, Note_on_c, 11, 57, 127
19, 62880, Note_on_c, 11, 53, 127
19, 65280, Note_off_c, 11, 53, 127
19, 65280, Note_off_c, 11, 57, 127
19, 65280, Note_off_c, 11, 60, 127
19, 65280, Note_off_c, 11, 65, 127
19, 65280, Note_off_c, 11, 69, 127
19, 65280, Note_on_c, 11, 63, 111
19, 65280, Note_on_c, 11, 60, 111
19, 65280, Note_on_c, 11, 56, 111
19, 65280, Note_on_c, 11, 51, 111
19, 65280, Note_on_c, 11, 44, 111
19, 65760, Note_off_c, 11, 44, 111
19, 65760, Note_off_c, 11, 51, 111
19, 65760, Note_off_c, 11, 56, 111
19, 65760, Note_off_c, 11, 60, 111
19, 65760, Note_off_c, 11, 63, 111
19, 65760, Note_on_c, 11, 59, 95
19, 65760, Note_on_c, 11, 55, 95
19, 65760, Note_on_c, 11, 50, 95
19, 65760, Note_on_c, 11, 45, 95
19, 65808, Note_off_c, 11, 45, 95
19, 65808, Note_off_c, 11, 50, 95
19, 65808, Note_off_c, 11, 55, 95
19, 65808, Note_off_c, 11, 59, 95
19, 66000, Note_on_c, 11, 63, 111
19, 66000, Note_on_c, 11, 58, 111
19, 66000, Note_on_c, 11, 55, 111
19, 66000, Note_on_c, 11, 51, 111
19, 66480, Note_off_c, 11, 51, 111
19, 66480, Note_off_c, 11, 55, 111
19, 66480, Note_off_c, 11, 58, 111
19, 66480, Note_off_c, 11, 63, 111
19, 66480, Note_on_c, 11, 58, 95
19, 66480, Note_on_c, 11, 55, 95
19, 66480, Note_on_c, 11, 51, 95
19, 66720, Note_off_c, 11, 51, 95
19, 66720, Note_off_c, 11, 55, 95
19, 66720, Note_off_c, 11, 58, 95
19, 66720, Note_on_c, 11, 65, 111
19, 66720, Note_on_c, 11, 62, 111
19, 66720, Note_on_c, 11, 58, 111
19, 66720, Note_on_c, 11, 53, 111
19, 66720, Note_on_c, 11, 46, 111
19, 69120, Note_off_c, 11, 46, 111
19, 69120, Note_off_c, 11, 53, 111
19, 69120, Note_off_c, 11, 58, 111
19, 69120, Note_off_c, 11, 62, 111
19, 69120, Note_off_c, 11, 65, 111
19, 69120, Note_on_c, 11, 62, 95
19, 69120, Note_on_c, 11, 58, 95
19, 69120, Note_on_c, 11, 53, 95
19, 69120, Note_on_c, 11, 46, 95
19, 69600, Note_off_c, 11, 46, 95
19, 69600, Note_off_c, 11, 53, 95
19, 69600, Note_off_c, 11, 58, 95
19, 69600, Note_off_c, 11, 62, 95
19, 69600, Note_on_c, 11, 70, 95
19, 69600, Note_on_c, 11, 68, 95
19, 69600, Note_on_c, 11, 62, 95
19, 69600, Note_on_c, 11, 58, 95
19, 69840, Note_off_c, 11, 58, 95
19, 69840, Note_off_c, 11, 62, 95
19, 69840, Note_off_c, 11, 68, 95
19, 69840, Note_off_c, 11, 70, 95
19, 70080, Note_on_c, 11, 59, 95
19, 70080, Note_on_c, 11, 55, 95
19, 70080, Note_on_c, 11, 50, 95
19, 70128, Note_off_c, 11, 50, 95
19, 70128, Note_off_c, 11, 55, 95
19, 70128, Note_off_c, 11, 59, 95
19, 70320, Note_on_c, 11, 70, 95
19, 70320, Note_on_c, 11, 68, 95
19, 70320, Note_on_c, 11, 62, 95
19, 70320, Note_on_c, 11, 58, 95
19, 70560, Note_off_c, 11, 58, 95
19, 70560, Note_off_c, 11, 62, 95
19, 70560, Note_off_c, 11, 68, 95
19, 70560, Note_off_c, 11, 70, 95
19, 70800, Note_on_c, 11, 70, 95
19, 70800, Note_on_c, 11, 68, 95
19, 70800, Note_on_c, 11, 62, 95
19, 70800, Note_on_c, 11, 58, 95
19, 71040, Note_off_c, 11, 58, 95
19, 71040, Note_off_c, 11, 62, 95
19, 71040, Note_off_c, 11, 68, 95
19, 71040, Note_off_c, 11, 70, 95
19, 71280, Note_on_c, 11, 70, 95
19, 71280, Note_on_c, 11, 68, 95
19, 71280, Note_on_c, 11, 62, 95
19, 71280, Note_on_c, 11, 58, 95
19, 71520, Note_off_c, 11, 58, 95
19, 71520, Note_off_c, 11, 62, 95
19, 71520, Note_off_c, 11, 68, 95
19, 71520, Note_off_c, 11, 70, 95
19, 71760, Note_on_c, 11, 68, 95
19, 71760, Note_on_c, 11, 63, 95
19, 71760, Note_on_c, 11, 60, 95
19, 71760, Note_on_c, 11, 56, 95
19, 71760, Note_on_c, 11, 51, 95
19, 72000, Note_off_c, 11, 51, 95
19, 72000, Note_off_c, 11, 56, 95
19, 72000, Note_off_c, 11, 60, 95
19, 72000, Note_off_c, 11, 63, 95
19, 72000, Note_off_c, 11, 68, 95
19, 72000, Note_on_c, 11, 68, 95
19, 72000, Note_on_c, 11, 63, 95
19, 72000, Note_on_c, 11, 60, 95
19, 72000, Note_on_c, 11, 56, 95
19, 72000, Note_on_c, 11, 51, 95
19, 72240, Note_off_c, 11, 51, 95
19, 72240, Note_off_c, 11, 56, 95
19, 72240, Note_off_c, 11, 60, 95
19, 72240, Note_off_c, 11, 63, 95
19, 72240, Note_off_c, 11, 68, 95
19, 72240, Note_on_c, 11, 67, 95
19, 72240, Note_on_c, 11, 63, 95
19, 72240, Note_on_c, 11, 58, 95
19, 72240, Note_on_c, 11, 51, 95
19, 72480, Note_off_c, 11, 51, 95
19, 72480, Note_off_c, 11, 58, 95
19, 72480, Note_off_c, 11, 63, 95
19, 72480, Note_off_c, 11, 67, 95
19, 72480, Note_on_c, 11, 67, 95
19, 72480, Note_on_c, 11, 63, 95
19, 72480, Note_on_c, 11, 58, 95
19, 72480, Note_on_c, 11, 51, 95
19, 72720, Note_off_c, 11, 51, 95
19, 72720, Note_off_c, 11, 58, 95
19, 72720, Note_off_c, 11, 63, 95
19, 72720, Note_off_c, 11, 67, 95
19, 72720, Note_on_c, 11, 62, 47
19, 72720, Note_on_c, 11, 58, 47
19, 72720, Note_on_c, 11, 53, 47
19, 72960, Note_off_c, 11, 53, 47
19, 72960, Note_off_c, 11, 58, 47
19, 72960, Note_off_c, 11, 62, 47
19, 72960, Note_on_c, 11, 62, 95
19, 72960, Note_on_c, 11, 58, 95
19, 72960, Note_on_c, 11, 53, 95
19, 72960, Note_on_c, 11, 46, 95
19, 73440, Note_off_c, 11, 46, 95
19, 73440, Note_off_c, 11, 53, 95
19, 73440, Note_off_c, 11, 58, 95
19, 73440, Note_off_c, 11, 62, 95
19, 73440, Note_on_c, 11, 70, 95
19, 73440, Note_on_c, 11, 68, 95
19, 73440, Note_on_c, 11, 62, 95
19, 73440, Note_on_c, 11, 58, 95
19, 73680, Note_off_c, 11, 58, 95
19, 73680, Note_off_c, 11, 62, 95
19, 73680, Note_off_c, 11, 68, 95
19, 73680, Note_off_c, 11, 70, 95
19, 73920, Note_on_c, 11, 59, 95
19, 73920, Note_on_c, 11, 55, 95
19, 73920, Note_on_c, 11, 50, 95
19, 73968, Note_off_c, 11, 50, 95
19, 73968, Note_off_c, 11, 55, 95
19, 73968, Note_off_c, 11, 59, 95
19, 74160, Note_on_c, 11, 70, 95
19, 74160, Note_on_c, 11, 68, 95
19, 74160, Note_on_c, 11, 62, 95
19, 74160, Note_on_c, 11, 58, 95
19, 74400, Note_off_c, 11, 58, 95
19, 74400, Note_off_c, 11, 62, 95
19, 74400, Note_off_c, 11, 68, 95
19, 74400, Note_off_c, 11, 70, 95
19, 74640, Note_on_c, 11, 70, 95
19, 74640, Note_on_c, 11, 68, 95
19, 74640, Note_on_c, 11, 62, 95
19, 74640, Note_on_c, 11, 58, 95
19, 74880, Note_off_c, 11, 58, 95
19, 74880, Note_off_c, 11, 62, 95
19, 74880, Note_off_c, 11, 68, 95
19, 74880, Note_off_c, 11, 70, 95
19, 75120, Note_on_c, 11, 70, 95
19, 75120, Note_on_c, 11, 68, 95
19, 75120, Note_on_c, 11, 62, 95
19, 75120, Note_on_c, 11, 58, 95
19, 75360, Note_off_c, 11, 58, 95
19, 75360, Note_off_c, 11, 62, 95
19, 75360, Note_off_c, 11, 68, 95
19, 75360, Note_off_c, 11, 70, 95
19, 75600, Note_on_c, 11, 68, 95
19, 75600, Note_on_c, 11, 63, 95
19, 75600, Note_on_c, 11, 60, 95
19, 75600, Note_on_c, 11, 56, 95
19, 75600, Note_on_c, 11, 51, 95
19, 75840, Note_off_c, 11, 51, 95
19, 75840, Note_off_c, 11, 56, 95
19, 75840, Note_off_c, 11, 60, 95
19, 75840, Note_off_c, 11, 63, 95
19, 75840, Note_off_c, 11, 68, 95
19, 75840, Note_on_c, 11, 68, 95
19, 75840, Note_on_c, 11, 63, 95
19, 75840, Note_on_c, 11, 60, 95
19, 75840, Note_on_c, 11, 56, 95
19, 75840, Note_on_c, 11, 51, 95
19, 76080, Note_off_c, 11, 51, 95
19, 76080, Note_off_c, 11, 56, 95
19, 76080, Note_off_c, 11, 60, 95
19, 76080, Note_off_c, 11, 63, 95
19, 76080, Note_off_c, 11, 68, 95
19, 76080, Note_on_c, 11, 67, 95
19, 76080, Note_on_c, 11, 63, 95
19, 76080, Note_on_c, 11, 58, 95
19, 76080, Note_on_c, 11, 51, 95
19, 76320, Note_off_c, 11, 51, 95
19, 76320, Note_off_c, 11, 58, 95
19, 76320, Note_off_c, 11, 63, 95
19, 76320, Note_off_c, 11, 67, 95
19, 76320, Note_on_c, 11, 67, 95
19, 76320, Note_on_c, 11, 63, 95
19, 76320, Note_on_c, 11, 58, 95
19, 76320, Note_on_c, 11, 51, 95
19, 76560, Note_off_c, 11, 51, 95
19, 76560, Note_off_c, 11, 58, 95
19, 76560, Note_off_c, 11, 63, 95
19, 76560, Note_off_c, 11, 67, 95
19, 76560, Note_on_c, 11, 62, 47
19, 76560, Note_on_c, 11, 58, 47
19, 76560, Note_on_c, 11, 53, 47
19, 76800, Note_off_c, 11, 53, 47
19, 76800, Note_off_c, 11, 58, 47
19, 76800, Note_off_c, 11, 62, 47
19, 76800, Note_on_c, 11, 62, 95
19, 76800, Note_on_c, 11, 58, 95
19, 76800, Note_on_c, 11, 53, 95
19, 76800, Note_on_c, 11, 46, 95
19, 77280, Note_off_c, 11, 46, 95
19, 77280, Note_off_c, 11, 53, 95
19, 77280, Note_off_c, 11, 58, 95
19, 77280, Note_off_c, 11, 62, 95
19, 77280, Note_on_c, 11, 70, 95
19, 77280, Note_on_c, 11, 68, 95
19, 77280, Note_on_c, 11, 62, 95
19, 77280, Note_on_c, 11, 58, 95
19, 77520, Note_off_c, 11, 58, 95
19, 77520, Note_off_c, 11, 62, 95
19, 77520, Note_off_c, 11, 68, 95
19, 77520, Note_off_c, 11, 70, 95
19, 77760, Note_on_c, 11, 59, 95
19, 77760, Note_on_c, 11, 55, 95
19, 77760, Note_on_c, 11, 50, 95
19, 77808, Note_off_c, 11, 50, 95
19, 77808, Note_off_c, 11, 55, 95
19, 77808, Note_off_c, 11, 59, 95
19, 78000, Note_on_c, 11, 70, 95
19, 78000, Note_on_c, 11, 68, 95
19, 78000, Note_on_c, 11, 62, 95
19, 78000, Note_on_c, 11, 58, 95
19, 78240, Note_off_c, 11, 58, 95
19, 78240, Note_off_c, 11, 62, 95
19, 78240, Note_off_c, 11, 68, 95
19, 78240, Note_off_c, 11, 70, 95
19, 78480, Note_on_c, 11, 70, 95
19, 78480, Note_on_c, 11, 68, 95
19, 78480, Note_on_c, 11, 62, 95
19, 78480, Note_on_c, 11, 58, 95
19, 78720, Note_off_c, 11, 58, 95
19, 78720, Note_off_c, 11, 62, 95
19, 78720, Note_off_c, 11, 68, 95
19, 78720, Note_off_c, 11, 70, 95
19, 78960, Note_on_c, 11, 70, 95
19, 78960, Note_on_c, 11, 68, 95
19, 78960, Note_on_c, 11, 62, 95
19, 78960, Note_on_c, 11, 58, 95
19, 79200, Note_off_c, 11, 58, 95
19, 79200, Note_off_c, 11, 62, 95
19, 79200, Note_off_c, 11, 68, 95
19, 79200, Note_off_c, 11, 70, 95
19, 79440, Note_on_c, 11, 68, 95
19, 79440, Note_on_c, 11, 63, 95
19, 79440, Note_on_c, 11, 60, 95
19, 79440, Note_on_c, 11, 56, 95
19, 79440, Note_on_c, 11, 51, 95
19, 79680, Note_off_c, 11, 51, 95
19, 79680, Note_off_c, 11, 56, 95
19, 79680, Note_off_c, 11, 60, 95
19, 79680, Note_off_c, 11, 63, 95
19, 79680, Note_off_c, 11, 68, 95
19, 79680, Note_on_c, 11, 68, 95
19, 79680, Note_on_c, 11, 63, 95
19, 79680, Note_on_c, 11, 60, 95
19, 79680, Note_on_c, 11, 56, 95
19, 79680, Note_on_c, 11, 51, 95
19, 79920, Note_off_c, 11, 51, 95
19, 79920, Note_off_c, 11, 56, 95
19, 79920, Note_off_c, 11, 60, 95
19, 79920, Note_off_c, 11, 63, 95
19, 79920, Note_off_c, 11, 68, 95
19, 79920, Note_on_c, 11, 67, 95
19, 79920, Note_on_c, 11, 63, 95
19, 79920, Note_on_c, 11, 58, 95
19, 79920, Note_on_c, 11, 51, 95
19, 80160, Note_off_c, 11, 51, 95
19, 80160, Note_off_c, 11, 58, 95
19, 80160, Note_off_c, 11, 63, 95
19, 80160, Note_off_c, 11, 67, 95
19, 80160, Note_on_c, 11, 67, 95
19, 80160, Note_on_c, 11, 63, 95
19, 80160, Note_on_c, 11, 58, 95
19, 80160, Note_on_c, 11, 51, 95
19, 80400, Note_off_c, 11, 51, 95
19, 80400, Note_off_c, 11, 58, 95
19, 80400, Note_off_c, 11, 63, 95
19, 80400, Note_off_c, 11, 67, 95
19, 80400, Note_on_c, 11, 62, 47
19, 80400, Note_on_c, 11, 58, 47
19, 80400, Note_on_c, 11, 53, 47
19, 80640, Note_off_c, 11, 53, 47
19, 80640, Note_off_c, 11, 58, 47
19, 80640, Note_off_c, 11, 62, 47
19, 80640, Note_on_c, 11, 62, 95
19, 80640, Note_on_c, 11, 58, 95
19, 80640, Note_on_c, 11, 53, 95
19, 80640, Note_on_c, 11, 46, 95
19, 81120, Note_off_c, 11, 46, 95
19, 81120, Note_off_c, 11, 53, 95
19, 81120, Note_off_c, 11, 58, 95
19, 81120, Note_off_c, 11, 62, 95
19, 81120, Note_on_c, 11, 70, 95
19, 81120, Note_on_c, 11, 68, 95
19, 81120, Note_on_c, 11, 62, 95
19, 81120, Note_on_c, 11, 58, 95
19, 81360, Note_off_c, 11, 58, 95
19, 81360, Note_off_c, 11, 62, 95
19, 81360, Note_off_c, 11, 68, 95
19, 81360, Note_off_c, 11, 70, 95
19, 81600, Note_on_c, 11, 59, 95
19, 81600, Note_on_c, 11, 55, 95
19, 81600, Note_on_c, 11, 50, 95
19, 81648, Note_off_c, 11, 50, 95
19, 81648, Note_off_c, 11, 55, 95
19, 81648, Note_off_c, 11, 59, 95
19, 81840, Note_on_c, 11, 70, 95
19, 81840, Note_on_c, 11, 68, 95
19, 81840, Note_on_c, 11, 62, 95
19, 81840, Note_on_c, 11, 58, 95
19, 82080, Note_off_c, 11, 58, 95
19, 82080, Note_off_c, 11, 62, 95
19, 82080, Note_off_c, 11, 68, 95
19, 82080, Note_off_c, 11, 70, 95
19, 82320, Note_on_c, 11, 70, 95
19, 82320, Note_on_c, 11, 68, 95
19, 82320, Note_on_c, 11, 62, 95
19, 82320, Note_on_c, 11, 58, 95
19, 82560, Note_off_c, 11, 58, 95
19, 82560, Note_off_c, 11, 62, 95
19, 82560, Note_off_c, 11, 68, 95
19, 82560, Note_off_c, 11, 70, 95
19, 82800, Note_on_c, 11, 70, 95
19, 82800, Note_on_c, 11, 68, 95
19, 82800, Note_on_c, 11, 62, 95
19, 82800, Note_on_c, 11, 58, 95
19, 83040, Note_off_c, 11, 58, 95
19, 83040, Note_off_c, 11, 62, 95
19, 83040, Note_off_c, 11, 68, 95
19, 83040, Note_off_c, 11, 70, 95
19, 83280, Note_on_c, 11, 68, 95
19, 83280, Note_on_c, 11, 63, 95
19, 83280, Note_on_c, 11, 60, 95
19, 83280, Note_on_c, 11, 56, 95
19, 83280, Note_on_c, 11, 51, 95
19, 83520, Note_off_c, 11, 51, 95
19, 83520, Note_off_c, 11, 56, 95
19, 83520, Note_off_c, 11, 60, 95
19, 83520, Note_off_c, 11, 63, 95
19, 83520, Note_off_c, 11, 68, 95
19, 83520, Note_on_c, 11, 68, 95
19, 83520, Note_on_c, 11, 63, 95
19, 83520, Note_on_c, 11, 60, 95
19, 83520, Note_on_c, 11, 56, 95
19, 83520, Note_on_c, 11, 51, 95
19, 83760, Note_off_c, 11, 51, 95
19, 83760, Note_off_c, 11, 56, 95
19, 83760, Note_off_c, 11, 60, 95
19, 83760, Note_off_c, 11, 63, 95
19, 83760, Note_off_c, 11, 68, 95
19, 83760, Note_on_c, 11, 67, 95
19, 83760, Note_on_c, 11, 63, 95
19, 83760, Note_on_c, 11, 58, 95
19, 83760, Note_on_c, 11, 51, 95
19, 84000, Note_off_c, 11, 51, 95
19, 84000, Note_off_c, 11, 58, 95
19, 84000, Note_off_c, 11, 63, 95
19, 84000, Note_off_c, 11, 67, 95
19, 84000, Note_on_c, 11, 67, 95
19, 84000, Note_on_c, 11, 63, 95
19, 84000, Note_on_c, 11, 58, 95
19, 84000, Note_on_c, 11, 51, 95
19, 84240, Note_off_c, 11, 51, 95
19, 84240, Note_off_c, 11, 58, 95
19, 84240, Note_off_c, 11, 63, 95
19, 84240, Note_off_c, 11, 67, 95
19, 84240, Note_on_c, 11, 62, 47
19, 84240, Note_on_c, 11, 58, 47
19, 84240, Note_on_c, 11, 53, 47
19, 84480, Note_off_c, 11, 53, 47
19, 84480, Note_off_c, 11, 58, 47
19, 84480, Note_off_c, 11, 62, 47
19, 84480, Note_on_c, 11, 62, 95
19, 84480, Note_on_c, 11, 58, 95
19, 84480, Note_on_c, 11, 53, 95
19, 84480, Note_on_c, 11, 46, 95
19, 84960, Note_off_c, 11, 46, 95
19, 84960, Note_off_c, 11, 53, 95
19, 84960, Note_off_c, 11, 58, 95
19, 84960, Note_off_c, 11, 62, 95
19, 84960, Note_on_c, 11, 70, 95
19, 84960, Note_on_c, 11, 68, 95
19, 84960, Note_on_c, 11, 62, 95
19, 84960, Note_on_c, 11, 58, 95
19, 85200, Note_off_c, 11, 58, 95
19, 85200, Note_off_c, 11, 62, 95
19, 85200, Note_off_c, 11, 68, 95
19, 85200, Note_off_c, 11, 70, 95
19, 85440, Note_on_c, 11, 59, 95
19, 85440, Note_on_c, 11, 55, 95
19, 85440, Note_on_c, 11, 50, 95
19, 85488, Note_off_c, 11, 50, 95
19, 85488, Note_off_c, 11, 55, 95
19, 85488, Note_off_c, 11, 59, 95
19, 85680, Note_on_c, 11, 70, 95
19, 85680, Note_on_c, 11, 68, 95
19, 85680, Note_on_c, 11, 62, 95
19, 85680, Note_on_c, 11, 58, 95
19, 85920, Note_off_c, 11, 58, 95
19, 85920, Note_off_c, 11, 62, 95
19, 85920, Note_off_c, 11, 68, 95
19, 85920, Note_off_c, 11, 70, 95
19, 86160, Note_on_c, 11, 70, 95
19, 86160, Note_on_c, 11, 68, 95
19, 86160, Note_on_c, 11, 62, 95
19, 86160, Note_on_c, 11, 58, 95
19, 86400, Note_off_c, 11, 58, 95
19, 86400, Note_off_c, 11, 62, 95
19, 86400, Note_off_c, 11, 68, 95
19, 86400, Note_off_c, 11, 70, 95
19, 86640, Note_on_c, 11, 70, 95
19, 86640, Note_on_c, 11, 68, 95
19, 86640, Note_on_c, 11, 62, 95
19, 86640, Note_on_c, 11, 58, 95
19, 86880, Note_off_c, 11, 58, 95
19, 86880, Note_off_c, 11, 62, 95
19, 86880, Note_off_c, 11, 68, 95
19, 86880, Note_off_c, 11, 70, 95
19, 87120, Note_on_c, 11, 68, 95
19, 87120, Note_on_c, 11, 63, 95
19, 87120, Note_on_c, 11, 60, 95
19, 87120, Note_on_c, 11, 56, 95
19, 87120, Note_on_c, 11, 51, 95
19, 87360, Note_off_c, 11, 51, 95
19, 87360, Note_off_c, 11, 56, 95
19, 87360, Note_off_c, 11, 60, 95
19, 87360, Note_off_c, 11, 63, 95
19, 87360, Note_off_c, 11, 68, 95
19, 87360, Note_on_c, 11, 68, 95
19, 87360, Note_on_c, 11, 63, 95
19, 87360, Note_on_c, 11, 60, 95
19, 87360, Note_on_c, 11, 56, 95
19, 87360, Note_on_c, 11, 51, 95
19, 87600, Note_off_c, 11, 51, 95
19, 87600, Note_off_c, 11, 56, 95
19, 87600, Note_off_c, 11, 60, 95
19, 87600, Note_off_c, 11, 63, 95
19, 87600, Note_off_c, 11, 68, 95
19, 87600, Note_on_c, 11, 67, 95
19, 87600, Note_on_c, 11, 63, 95
19, 87600, Note_on_c, 11, 58, 95
19, 87600, Note_on_c, 11, 51, 95
19, 87840, Note_off_c, 11, 51, 95
19, 87840, Note_off_c, 11, 58, 95
19, 87840, Note_off_c, 11, 63, 95
19, 87840, Note_off_c, 11, 67, 95
19, 87840, Note_on_c, 11, 67, 95
19, 87840, Note_on_c, 11, 63, 95
19, 87840, Note_on_c, 11, 58, 95
19, 87840, Note_on_c, 11, 51, 95
19, 88080, Note_off_c, 11, 51, 95
19, 88080, Note_off_c, 11, 58, 95
19, 88080, Note_off_c, 11, 63, 95
19, 88080, Note_off_c, 11, 67, 95
19, 88080, Note_on_c, 11, 62, 47
19, 88080, Note_on_c, 11, 58, 47
19, 88080, Note_on_c, 11, 53, 47
19, 88320, Note_off_c, 11, 53, 47
19, 88320, Note_off_c, 11, 58, 47
19, 88320, Note_off_c, 11, 62, 47
19, 88320, Note_on_c, 11, 62, 95
19, 88320, Note_on_c, 11, 58, 95
19, 88320, Note_on_c, 11, 53, 95
19, 88320, Note_on_c, 11, 46, 95
19, 88800, Note_off_c, 11, 46, 95
19, 88800, Note_off_c, 11, 53, 95
19, 88800, Note_off_c, 11, 58, 95
19, 88800, Note_off_c, 11, 62, 95
19, 88800, Note_on_c, 11, 70, 95
19, 88800, Note_on_c, 11, 68, 95
19, 88800, Note_on_c, 11, 62, 95
19, 88800, Note_on_c, 11, 58, 95
19, 89040, Note_off_c, 11, 58, 95
19, 89040, Note_off_c, 11, 62, 95
19, 89040, Note_off_c, 11, 68, 95
19, 89040, Note_off_c, 11, 70, 95
19, 89280, Note_on_c, 11, 59, 95
19, 89280, Note_on_c, 11, 55, 95
19, 89280, Note_on_c, 11, 50, 95
19, 89328, Note_off_c, 11, 50, 95
19, 89328, Note_off_c, 11, 55, 95
19, 89328, Note_off_c, 11, 59, 95
19, 89520, Note_on_c, 11, 70, 95
19, 89520, Note_on_c, 11, 68, 95
19, 89520, Note_on_c, 11, 62, 95
19, 89520, Note_on_c, 11, 58, 95
19, 89760, Note_off_c, 11, 58, 95
19, 89760, Note_off_c, 11, 62, 95
19, 89760, Note_off_c, 11, 68, 95
19, 89760, Note_off_c, 11, 70, 95
19, 90000, Note_on_c, 11, 70, 95
19, 90000, Note_on_c, 11, 68, 95
19, 90000, Note_on_c, 11, 62, 95
19, 90000, Note_on_c, 11, 58, 95
19, 90240, Note_off_c, 11, 58, 95
19, 90240, Note_off_c, 11, 62, 95
19, 90240, Note_off_c, 11, 68, 95
19, 90240, Note_off_c, 11, 70, 95
19, 90480, Note_on_c, 11, 70, 95
19, 90480, Note_on_c, 11, 68, 95
19, 90480, Note_on_c, 11, 62, 95
19, 90480, Note_on_c, 11, 58, 95
19, 90720, Note_off_c, 11, 58, 95
19, 90720, Note_off_c, 11, 62, 95
19, 90720, Note_off_c, 11, 68, 95
19, 90720, Note_off_c, 11, 70, 95
19, 90960, Note_on_c, 11, 68, 95
19, 90960, Note_on_c, 11, 63, 95
19, 90960, Note_on_c, 11, 60, 95
19, 90960, Note_on_c, 11, 56, 95
19, 90960, Note_on_c, 11, 51, 95
19, 91200, Note_off_c, 11, 51, 95
19, 91200, Note_off_c, 11, 56, 95
19, 91200, Note_off_c, 11, 60, 95
19, 91200, Note_off_c, 11, 63, 95
19, 91200, Note_off_c, 11, 68, 95
19, 91200, Note_on_c, 11, 68, 95
19, 91200, Note_on_c, 11, 63, 95
19, 91200, Note_on_c, 11, 60, 95
19, 91200, Note_on_c, 11, 56, 95
19, 91200, Note_on_c, 11, 51, 95
19, 91440, Note_off_c, 11, 51, 95
19, 91440, Note_off_c, 11, 56, 95
19, 91440, Note_off_c, 11, 60, 95
19, 91440, Note_off_c, 11, 63, 95
19, 91440, Note_off_c, 11, 68, 95
19, 91440, Note_on_c, 11, 67, 95
19, 91440, Note_on_c, 11, 63, 95
19, 91440, Note_on_c, 11, 58, 95
19, 91440, Note_on_c, 11, 51, 95
19, 91680, Note_off_c, 11, 51, 95
19, 91680, Note_off_c, 11, 58, 95
19, 91680, Note_off_c, 11, 63, 95
19, 91680, Note_off_c, 11, 67, 95
19, 91680, Note_on_c, 11, 67, 95
19, 91680, Note_on_c, 11, 63, 95
19, 91680, Note_on_c, 11, 58, 95
19, 91680, Note_on_c, 11, 51, 95
19, 91920, Note_off_c, 11, 51, 95
19, 91920, Note_off_c, 11, 58, 95
19, 91920, Note_off_c, 11, 63, 95
19, 91920, Note_off_c, 11, 67, 95
19, 91920, Note_on_c, 11, 62, 47
19, 91920, Note_on_c, 11, 58, 47
19, 91920, Note_on_c, 11, 53, 47
19, 92160, Note_off_c, 11, 53, 47
19, 92160, Note_off_c, 11, 58, 47
19, 92160, Note_off_c, 11, 62, 47
19, 92160, Note_on_c, 11, 62, 95
19, 92160, Note_on_c, 11, 58, 95
19, 92160, Note_on_c, 11, 53, 95
19, 92160, Note_on_c, 11, 46, 95
19, 92640, Note_off_c, 11, 46, 95
19, 92640, Note_off_c, 11, 53, 95
19, 92640, Note_off_c, 11, 58, 95
19, 92640, Note_off_c, 11, 62, 95
19, 92640, Note_on_c, 11, 70, 95
19, 92640, Note_on_c, 11, 68, 95
19, 92640, Note_on_c, 11, 62, 95
19, 92640, Note_on_c, 11, 58, 95
19, 92880, Note_off_c, 11, 58, 95
19, 92880, Note_off_c, 11, 62, 95
19, 92880, Note_off_c, 11, 68, 95
19, 92880, Note_off_c, 11, 70, 95
19, 93120, Note_on_c, 11, 59, 95
19, 93120, Note_on_c, 11, 55, 95
19, 93120, Note_on_c, 11, 50, 95
19, 93168, Note_off_c, 11, 50, 95
19, 93168, Note_off_c, 11, 55, 95
19, 93168, Note_off_c, 11, 59, 95
19, 93360, Note_on_c, 11, 70, 95
19, 93360, Note_on_c, 11, 68, 95
19, 93360, Note_on_c, 11, 62, 95
19, 93360, Note_on_c, 11, 58, 95
19, 93600, Note_off_c, 11, 58, 95
19, 93600, Note_off_c, 11, 62, 95
19, 93600, Note_off_c, 11, 68, 95
19, 93600, Note_off_c, 11, 70, 95
19, 93840, Note_on_c, 11, 70, 95
19, 93840, Note_on_c, 11, 68, 95
19, 93840, Note_on_c, 11, 62, 95
19, 93840, Note_on_c, 11, 58, 95
19, 94080, Note_off_c, 11, 58, 95
19, 94080, Note_off_c, 11, 62, 95
19, 94080, Note_off_c, 11, 68, 95
19, 94080, Note_off_c, 11, 70, 95
19, 94320, Note_on_c, 11, 70, 95
19, 94320, Note_on_c, 11, 68, 95
19, 94320, Note_on_c, 11, 62, 95
19, 94320, Note_on_c, 11, 58, 95
19, 94560, Note_off_c, 11, 58, 95
19, 94560, Note_off_c, 11, 62, 95
19, 94560, Note_off_c, 11, 68, 95
19, 94560, Note_off_c, 11, 70, 95
19, 94800, Note_on_c, 11, 68, 95
19, 94800, Note_on_c, 11, 63, 95
19, 94800, Note_on_c, 11, 60, 95
19, 94800, Note_on_c, 11, 56, 95
19, 94800, Note_on_c, 11, 51, 95
19, 95040, Note_off_c, 11, 51, 95
19, 95040, Note_off_c, 11, 56, 95
19, 95040, Note_off_c, 11, 60, 95
19, 95040, Note_off_c, 11, 63, 95
19, 95040, Note_off_c, 11, 68, 95
19, 95040, Note_on_c, 11, 68, 95
19, 95040, Note_on_c, 11, 63, 95
19, 95040, Note_on_c, 11, 60, 95
19, 95040, Note_on_c, 11, 56, 95
19, 95040, Note_on_c, 11, 51, 95
19, 95280, Note_off_c, 11, 51, 95
19, 95280, Note_off_c, 11, 56, 95
19, 95280, Note_off_c, 11, 60, 95
19, 95280, Note_off_c, 11, 63, 95
19, 95280, Note_off_c, 11, 68, 95
19, 95280, Note_on_c, 11, 67, 95
19, 95280, Note_on_c, 11, 63, 95
19, 95280, Note_on_c, 11, 58, 95
19, 95280, Note_on_c, 11, 51, 95
19, 95520, Note_off_c, 11, 51, 95
19, 95520, Note_off_c, 11, 58, 95
19, 95520, Note_off_c, 11, 63, 95
19, 95520, Note_off_c, 11, 67, 95
19, 95520, Note_on_c, 11, 67, 95
19, 95520, Note_on_c, 11, 63, 95
19, 95520, Note_on_c, 11, 58, 95
19, 95520, Note_on_c, 11, 51, 95
19, 95760, Note_off_c, 11, 51, 95
19, 95760, Note_off_c, 11, 58, 95
19, 95760, Note_off_c, 11, 63, 95
19, 95760, Note_off_c, 11, 67, 95
19, 95760, Note_on_c, 11, 62, 47
19, 95760, Note_on_c, 11, 58, 47
19, 95760, Note_on_c, 11, 53, 47
19, 96000, Note_off_c, 11, 53, 47
19, 96000, Note_off_c, 11, 58, 47
19, 96000, Note_off_c, 11, 62, 47
19, 96000, Note_on_c, 11, 62, 95
19, 96000, Note_on_c, 11, 58, 95
19, 96000, Note_on_c, 11, 53, 95
19, 96000, Note_on_c, 11, 46, 95
19, 96480, Note_off_c, 11, 46, 95
19, 96480, Note_off_c, 11, 53, 95
19, 96480, Note_off_c, 11, 58, 95
19, 96480, Note_off_c, 11, 62, 95
19, 96480, Note_on_c, 11, 70, 95
19, 96480, Note_on_c, 11, 68, 95
19, 96480, Note_on_c, 11, 62, 95
19, 96480, Note_on_c, 11, 58, 95
19, 96720, Note_off_c, 11, 58, 95
19, 96720, Note_off_c, 11, 62, 95
19, 96720, Note_off_c, 11, 68, 95
19, 96720, Note_off_c, 11, 70, 95
19, 96960, Note_on_c, 11, 59, 95
19, 96960, Note_on_c, 11, 55, 95
19, 96960, Note_on_c, 11, 50, 95
19, 97008, Note_off_c, 11, 50, 95
19, 97008, Note_off_c, 11, 55, 95
19, 97008, Note_off_c, 11, 59, 95
19, 97200, Note_on_c, 11, 70, 95
19, 97200, Note_on_c, 11, 68, 95
19, 97200, Note_on_c, 11, 62, 95
19, 97200, Note_on_c, 11, 58, 95
19, 97440, Note_off_c, 11, 58, 95
19, 97440, Note_off_c, 11, 62, 95
19, 97440, Note_off_c, 11, 68, 95
19, 97440, Note_off_c, 11, 70, 95
19, 97680, Note_on_c, 11, 70, 95
19, 97680, Note_on_c, 11, 68, 95
19, 97680, Note_on_c, 11, 62, 95
19, 97680, Note_on_c, 11, 58, 95
19, 97920, Note_off_c, 11, 58, 95
19, 97920, Note_off_c, 11, 62, 95
19, 97920, Note_off_c, 11, 68, 95
19, 97920, Note_off_c, 11, 70, 95
19, 98160, Note_on_c, 11, 70, 95
19, 98160, Note_on_c, 11, 68, 95
19, 98160, Note_on_c, 11, 62, 95
19, 98160, Note_on_c, 11, 58, 95
19, 98400, Note_off_c, 11, 58, 95
19, 98400, Note_off_c, 11, 62, 95
19, 98400, Note_off_c, 11, 68, 95
19, 98400, Note_off_c, 11, 70, 95
19, 98640, Note_on_c, 11, 68, 95
19, 98640, Note_on_c, 11, 63, 95
19, 98640, Note_on_c, 11, 60, 95
19, 98640, Note_on_c, 11, 56, 95
19, 98640, Note_on_c, 11, 51, 95
19, 98880, Note_off_c, 11, 51, 95
19, 98880, Note_off_c, 11, 56, 95
19, 98880, Note_off_c, 11, 60, 95
19, 98880, Note_off_c, 11, 63, 95
19, 98880, Note_off_c, 11, 68, 95
19, 98880, Note_on_c, 11, 68, 95
19, 98880, Note_on_c, 11, 63, 95
19, 98880, Note_on_c, 11, 60, 95
19, 98880, Note_on_c, 11, 56, 95
19, 98880, Note_on_c, 11, 51, 95
19, 99120, Note_off_c, 11, 51, 95
19, 99120, Note_off_c, 11, 56, 95
19, 99120, Note_off_c, 11, 60, 95
19, 99120, Note_off_c, 11, 63, 95
19, 99120, Note_off_c, 11, 68, 95
19, 99120, Note_on_c, 11, 67, 95
19, 99120, Note_on_c, 11, 63, 95
19, 99120, Note_on_c, 11, 58, 95
19, 99120, Note_on_c, 11, 51, 95
19, 99360, Note_off_c, 11, 51, 95
19, 99360, Note_off_c, 11, 58, 95
19, 99360, Note_off_c, 11, 63, 95
19, 99360, Note_off_c, 11, 67, 95
19, 99360, Note_on_c, 11, 67, 95
19, 99360, Note_on_c, 11, 63, 95
19, 99360, Note_on_c, 11, 58, 95
19, 99360, Note_on_c, 11, 51, 95
19, 99600, Note_off_c, 11, 51, 95
19, 99600, Note_off_c, 11, 58, 95
19, 99600, Note_off_c, 11, 63, 95
19, 99600, Note_off_c, 11, 67, 95
19, 99600, Note_on_c, 11, 62, 47
19, 99600, Note_on_c, 11, 58, 47
19, 99600, Note_on_c, 11, 53, 47
19, 99840, Note_off_c, 11, 53, 47
19, 99840, Note_off_c, 11, 58, 47
19, 99840, Note_off_c, 11, 62, 47
19, 99840, Note_on_c, 11, 60, 95
19, 99840, Note_on_c, 11, 53, 95
19, 99840, Note_on_c, 11, 48, 95
19, 100320, Note_off_c, 11, 48, 95
19, 100320, Note_off_c, 11, 53, 95
19, 100320, Note_off_c, 11, 60, 95
19, 100320, Note_on_c, 11, 72, 95
19, 100320, Note_on_c, 11, 69, 95
19, 100320, Note_on_c, 11, 63, 95
19, 100320, Note_on_c, 11, 60, 95
19, 100560, Note_off_c, 11, 60, 95
19, 100560, Note_off_c, 11, 63, 95
19, 100560, Note_off_c, 11, 69, 95
19, 100560, Note_off_c, 11, 72, 95
19, 100800, Note_on_c, 11, 69, 95
19, 100800, Note_on_c, 11, 63, 95
19, 100800, Note_on_c, 11, 60, 95
19, 100848, Note_off_c, 11, 60, 95
19, 100848, Note_off_c, 11, 63, 95
19, 100848, Note_off_c, 11, 69, 95
19, 101040, Note_on_c, 11, 72, 95
19, 101040, Note_on_c, 11, 69, 95
19, 101040, Note_on_c, 11, 63, 95
19, 101040, Note_on_c, 11, 60, 95
19, 101280, Note_off_c, 11, 60, 95
19, 101280, Note_off_c, 11, 63, 95
19, 101280, Note_off_c, 11, 69, 95
19, 101280, Note_off_c, 11, 72, 95
19, 101520, Note_on_c, 11, 72, 95
19, 101520, Note_on_c, 11, 69, 95
19, 101520, Note_on_c, 11, 63, 95
19, 101520, Note_on_c, 11, 60, 95
19, 101760, Note_off_c, 11, 60, 95
19, 101760, Note_off_c, 11, 63, 95
19, 101760, Note_off_c, 11, 69, 95
19, 101760, Note_off_c, 11, 72, 95
19, 102000, Note_on_c, 11, 72, 95
19, 102000, Note_on_c, 11, 69, 95
19, 102000, Note_on_c, 11, 63, 95
19, 102000, Note_on_c, 11, 60, 95
19, 102240, Note_off_c, 11, 60, 95
19, 102240, Note_off_c, 11, 63, 95
19, 102240, Note_off_c, 11, 69, 95
19, 102240, Note_off_c, 11, 72, 95
19, 102480, Note_on_c, 11, 69, 95
19, 102480, Note_on_c, 11, 63, 95
19, 102480, Note_on_c, 11, 60, 95
19, 102480, Note_on_c, 11, 53, 95
19, 102720, Note_off_c, 11, 53, 95
19, 102720, Note_off_c, 11, 60, 95
19, 102720, Note_off_c, 11, 63, 95
19, 102720, Note_off_c, 11, 69, 95
19, 102720, Note_on_c, 11, 69, 95
19, 102720, Note_on_c, 11, 63, 95
19, 102720, Note_on_c, 11, 60, 95
19, 102720, Note_on_c, 11, 53, 95
19, 102960, Note_off_c, 11, 53, 95
19, 102960, Note_off_c, 11, 60, 95
19, 102960, Note_off_c, 11, 63, 95
19, 102960, Note_off_c, 11, 69, 95
19, 102960, Note_on_c, 11, 69, 95
19, 102960, Note_on_c, 11, 63, 95
19, 102960, Note_on_c, 11, 60, 95
19, 102960, Note_on_c, 11, 53, 95
19, 103200, Note_off_c, 11, 53, 95
19, 103200, Note_off_c, 11, 60, 95
19, 103200, Note_off_c, 11, 63, 95
19, 103200, Note_off_c, 11, 69, 95
19, 103200, Note_on_c, 11, 69, 95
19, 103200, Note_on_c, 11, 63, 95
19, 103200, Note_on_c, 11, 60, 95
19, 103200, Note_on_c, 11, 53, 95
19, 103440, Note_off_c, 11, 53, 95
19, 103440, Note_off_c, 11, 60, 95
19, 103440, Note_off_c, 11, 63, 95
19, 103440, Note_off_c, 11, 69, 95
19, 103440, Note_on_c, 11, 63, 95
19, 103440, Note_on_c, 11, 60, 95
19, 103440, Note_on_c, 11, 53, 95
19, 103680, Note_off_c, 11, 53, 95
19, 103680, Note_off_c, 11, 60, 95
19, 103680, Note_off_c, 11, 63, 95
19, 103680, Note_on_c, 11, 60, 95
19, 103680, Note_on_c, 11, 53, 95
19, 103680, Note_on_c, 11, 48, 95
19, 104160, Note_off_c, 11, 48, 95
19, 104160, Note_off_c, 11, 53, 95
19, 104160, Note_off_c, 11, 60, 95
19, 104160, Note_on_c, 11, 72, 95
19, 104160, Note_on_c, 11, 69, 95
19, 104160, Note_on_c, 11, 63, 95
19, 104160, Note_on_c, 11, 60, 95
19, 104400, Note_off_c, 11, 60, 95
19, 104400, Note_off_c, 11, 63, 95
19, 104400, Note_off_c, 11, 69, 95
19, 104400, Note_off_c, 11, 72, 95
19, 104640, Note_on_c, 11, 69, 95
19, 104640, Note_on_c, 11, 63, 95
19, 104640, Note_on_c, 11, 60, 95
19, 104688, Note_off_c, 11, 60, 95
19, 104688, Note_off_c, 11, 63, 95
19, 104688, Note_off_c, 11, 69, 95
19, 104880, Note_on_c, 11, 72, 95
19, 104880, Note_on_c, 11, 69, 95
19, 104880, Note_on_c, 11, 63, 95
19, 104880, Note_on_c, 11, 60, 95
19, 105120, Note_off_c, 11, 60, 95
19, 105120, Note_off_c, 11, 63, 95
19, 105120, Note_off_c, 11, 69, 95
19, 105120, Note_off_c, 11, 72, 95
19, 105360, Note_on_c, 11, 72, 95
19, 105360, Note_on_c, 11, 69, 95
19, 105360, Note_on_c, 11, 63, 95
19, 105360, Note_on_c, 11, 60, 95
19, 105600, Note_off_c, 11, 60, 95
19, 105600, Note_off_c, 11, 63, 95
19, 105600, Note_off_c, 11, 69, 95
19, 105600, Note_off_c, 11, 72, 95
19, 105840, Note_on_c, 11, 72, 95
19, 105840, Note_on_c, 11, 69, 95
19, 105840, Note_on_c, 11, 63, 95
19, 105840, Note_on_c, 11, 60, 95
19, 106080, Note_off_c, 11, 60, 95
19, 106080, Note_off_c, 11, 63, 95
19, 106080, Note_off_c, 11, 69, 95
19, 106080, Note_off_c, 11, 72, 95
19, 106320, Note_on_c, 11, 69, 95
19, 106320, Note_on_c, 11, 63, 95
19, 106320, Note_on_c, 11, 60, 95
19, 106320, Note_on_c, 11, 53, 95
19, 106560, Note_off_c, 11, 53, 95
19, 106560, Note_off_c, 11, 60, 95
19, 106560, Note_off_c, 11, 63, 95
19, 106560, Note_off_c, 11, 69, 95
19, 106560, Note_on_c, 11, 69, 95
19, 106560, Note_on_c, 11, 63, 95
19, 106560, Note_on_c, 11, 60, 95
19, 106560, Note_on_c, 11, 53, 95
19, 106800, Note_off_c, 11, 53, 95
19, 106800, Note_off_c, 11, 60, 95
19, 106800, Note_off_c, 11, 63, 95
19, 106800, Note_off_c, 11, 69, 95
19, 106800, Note_on_c, 11, 69, 95
19, 106800, Note_on_c, 11, 63, 95
19, 106800, Note_on_c, 11, 60, 95
19, 106800, Note_on_c, 11, 53, 95
19, 107040, Note_off_c, 11, 53, 95
19, 107040, Note_off_c, 11, 60, 95
19, 107040, Note_off_c, 11, 63, 95
19, 107040, Note_off_c, 11, 69, 95
19, 107040, Note_on_c, 11, 69, 95
19, 107040, Note_on_c, 11, 63, 95
19, 107040, Note_on_c, 11, 60, 95
19, 107040, Note_on_c, 11, 53, 95
19, 107280, Note_off_c, 11, 53, 95
19, 107280, Note_off_c, 11, 60, 95
19, 107280, Note_off_c, 11, 63, 95
19, 107280, Note_off_c, 11, 69, 95
19, 107280, Note_on_c, 11, 63, 95
19, 107280, Note_on_c, 11, 60, 95
19, 107280, Note_on_c, 11, 53, 95
19, 107520, Note_off_c, 11, 53, 95
19, 107520, Note_off_c, 11, 60, 95
19, 107520, Note_off_c, 11, 63, 95
19, 107520, Note_on_c, 11, 69, 127
19, 107520, Note_on_c, 11, 63, 127
19, 107520, Note_on_c, 11, 60, 127
19, 107520, Note_on_c, 11, 53, 127
19, 107520, Note_on_c, 11, 48, 127
19, 108000, Note_off_c, 11, 48, 127
19, 108000, Note_off_c, 11, 53, 127
19, 108000, Note_off_c, 11, 60, 127
19, 108000, Note_off_c, 11, 63, 127
19, 108000, Note_off_c, 11, 69, 127
19, 115200, Note_on_c, 11, 63, 111
19, 115200, Note_on_c, 11, 60, 111
19, 115200, Note_on_c, 11, 56, 111
19, 115200, Note_on_c, 11, 51, 111
19, 115200, Note_on_c, 11, 44, 111
19, 115680, Note_off_c, 11, 44, 111
19, 115680, Note_off_c, 11, 51, 111
19, 115680, Note_off_c, 11, 56, 111
19, 115680, Note_off_c, 11, 60, 111
19, 115680, Note_off_c, 11, 63, 111
19, 115680, Note_on_c, 11, 59, 95
19, 115680, Note_on_c, 11, 55, 95
19, 115680, Note_on_c, 11, 50, 95
19, 115680, Note_on_c, 11, 45, 95
19, 115728, Note_off_c, 11, 45, 95
19, 115728, Note_off_c, 11, 50, 95
19, 115728, Note_off_c, 11, 55, 95
19, 115728, Note_off_c, 11, 59, 95
19, 115920, Note_on_c, 11, 63, 111
19, 115920, Note_on_c, 11, 58, 111
19, 115920, Note_on_c, 11, 55, 111
19, 115920, Note_on_c, 11, 51, 111
19, 116400, Note_off_c, 11, 51, 111
19, 116400, Note_off_c, 11, 55, 111
19, 116400, Note_off_c, 11, 58, 111
19, 116400, Note_off_c, 11, 63, 111
19, 116400, Note_on_c, 11, 58, 95
19, 116400, Note_on_c, 11, 55, 95
19, 116400, Note_on_c, 11, 51, 95
19, 116640, Note_off_c, 11, 51, 95
19, 116640, Note_off_c, 11, 55, 95
19, 116640, Note_off_c, 11, 58, 95
19, 116640, Note_on_c, 11, 65, 111
19, 116640, Note_on_c, 11, 62, 111
19, 116640, Note_on_c, 11, 58, 111
19, 116640, Note_on_c, 11, 53, 111
19, 116640, Note_on_c, 11, 46, 111
19, 119040, Note_off_c, 11, 46, 111
19, 119040, Note_off_c, 11, 53, 111
19, 119040, Note_off_c, 11, 58, 111
19, 119040, Note_off_c, 11, 62, 111
19, 119040, Note_off_c, 11, 65, 111
19, 119040, Note_on_c, 11, 63, 111
19, 119040, Note_on_c, 11, 60, 111
19, 119040, Note_on_c, 11, 56, 111
19, 119040, Note_on_c, 11, 51, 111
19, 119040, Note_on_c, 11, 44, 111
19, 119520, Note_off_c, 11, 44, 111
19, 119520, Note_off_c, 11, 51, 111
19, 119520, Note_off_c, 11, 56, 111
19, 119520, Note_off_c, 11, 60, 111
19, 119520, Note_off_c, 11, 63, 111
19, 119520, Note_on_c, 11, 59, 95
19, 119520, Note_on_c, 11, 55, 95
19, 119520, Note_on_c, 11, 50, 95
19, 119520, Note_on_c, 11, 45, 95
19, 119568, Note_off_c, 11, 45, 95
19, 119568, Note_off_c, 11, 50, 95
19, 119568, Note_off_c, 11, 55, 95
19, 119568, Note_off_c, 11, 59, 95
19, 119760, Note_on_c, 11, 63, 111
19, 119760, Note_on_c, 11, 58, 111
19, 119760, Note_on_c, 11, 55, 111
19, 119760, Note_on_c, 11, 51, 111
19, 120240, Note_off_c, 11, 51, 111
19, 120240, Note_off_c, 11, 55, 111
19, 120240, Note_off_c, 11, 58, 111
19, 120240, Note_off_c, 11, 63, 111
19, 120240, Note_on_c, 11, 58, 95
19, 120240, Note_on_c, 11, 55, 95
19, 120240, Note_on_c, 11, 51, 95
19, 120480, Note_off_c, 11, 51, 95
19, 120480, Note_off_c, 11, 55, 95
19, 120480, Note_off_c, 11, 58, 95
19, 120480, Note_on_c, 11, 65, 111
19, 120480, Note_on_c, 11, 62, 111
19, 120480, Note_on_c, 11, 58, 111
19, 120480, Note_on_c, 11, 53, 111
19, 120480, Note_on_c, 11, 46, 111
19, 122880, Note_off_c, 11, 46, 111
19, 122880, Note_off_c, 11, 53, 111
19, 122880, Note_off_c, 11, 58, 111
19, 122880, Note_off_c, 11, 62, 111
19, 122880, Note_off_c, 11, 65, 111
19, 122880, Note_on_c, 11, 63, 111
19, 122880, Note_on_c, 11, 60, 111
19, 122880, Note_on_c, 11, 56, 111
19, 122880, Note_on_c, 11, 51, 111
19, 122880, Note_on_c, 11, 44, 111
19, 123360, Note_off_c, 11, 44, 111
19, 123360, Note_off_c, 11, 51, 111
19, 123360, Note_off_c, 11, 56, 111
19, 123360, Note_off_c, 11, 60, 111
19, 123360, Note_off_c, 11, 63, 111
19, 123360, Note_on_c, 11, 59, 95
19, 123360, Note_on_c, 11, 55, 95
19, 123360, Note_on_c, 11, 50, 95
19, 123360, Note_on_c, 11, 45, 95
19, 123408, Note_off_c, 11, 45, 95
19, 123408, Note_off_c, 11, 50, 95
19, 123408, Note_off_c, 11, 55, 95
19, 123408, Note_off_c, 11, 59, 95
19, 123600, Note_on_c, 11, 63, 111
19, 123600, Note_on_c, 11, 58, 111
19, 123600, Note_on_c, 11, 55, 111
19, 123600, Note_on_c, 11, 51, 111
19, 124080, Note_off_c, 11, 51, 111
19, 124080, Note_off_c, 11, 55, 111
19, 124080, Note_off_c, 11, 58, 111
19, 124080, Note_off_c, 11, 63, 111
19, 124080, Note_on_c, 11, 58, 95
19, 124080, Note_on_c, 11, 55, 95
19, 124080, Note_on_c, 11, 51, 95
19, 124320, Note_off_c, 11, 51, 95
19, 124320, Note_off_c, 11, 55, 95
19, 124320, Note_off_c, 11, 58, 95
19, 124320, Note_on_c, 11, 65, 111
19, 124320, Note_on_c, 11, 62, 111
19, 124320, Note_on_c, 11, 58, 111
19, 124320, Note_on_c, 11, 53, 111
19, 124320, Note_on_c, 11, 46, 111
19, 126720, Note_off_c, 11, 46, 111
19, 126720, Note_off_c, 11, 53, 111
19, 126720, Note_off_c, 11, 58, 111
19, 126720, Note_off_c, 11, 62, 111
19, 126720, Note_off_c, 11, 65, 111
19, 126720, Note_on_c, 11, 63, 111
19, 126720, Note_on_c, 11, 60, 111
19, 126720, Note_on_c, 11, 56, 111
19, 126720, Note_on_c, 11, 51, 111
19, 126720, Note_on_c, 11, 44, 111
19, 127200, Note_off_c, 11, 44, 111
19, 127200, Note_off_c, 11, 51, 111
19, 127200, Note_off_c, 11, 56, 111
19, 127200, Note_off_c, 11, 60, 111
19, 127200, Note_off_c, 11, 63, 111
19, 127200, Note_on_c, 11, 59, 95
19, 127200, Note_on_c, 11, 55, 95
19, 127200, Note_on_c, 11, 50, 95
19, 127200, Note_on_c, 11, 45, 95
19, 127248, Note_off_c, 11, 45, 95
19, 127248, Note_off_c, 11, 50, 95
19, 127248, Note_off_c, 11, 55, 95
19, 127248, Note_off_c, 11, 59, 95
19, 127440, Note_on_c, 11, 63, 111
19, 127440, Note_on_c, 11, 58, 111
19, 127440, Note_on_c, 11, 55, 111
19, 127440, Note_on_c, 11, 51, 111
19, 127920, Note_off_c, 11, 51, 111
19, 127920, Note_off_c, 11, 55, 111
19, 127920, Note_off_c, 11, 58, 111
19, 127920, Note_off_c, 11, 63, 111
19, 127920, Note_on_c, 11, 58, 95
19, 127920, Note_on_c, 11, 55, 95
19, 127920, Note_on_c, 11, 51, 95
19, 128160, Note_off_c, 11, 51, 95
19, 128160, Note_off_c, 11, 55, 95
19, 128160, Note_off_c, 11, 58, 95
19, 128160, Note_on_c, 11, 65, 111
19, 128160, Note_on_c, 11, 62, 111
19, 128160, Note_on_c, 11, 58, 111
19, 128160, Note_on_c, 11, 53, 111
19, 128160, Note_on_c, 11, 46, 111
19, 130560, Note_off_c, 11, 46, 111
19, 130560, Note_off_c, 11, 53, 111
19, 130560, Note_off_c, 11, 58, 111
19, 130560, Note_off_c, 11, 62, 111
19, 130560, Note_off_c, 11, 65, 111
19, 130560, Note_on_c, 11, 62, 95
19, 130560, Note_on_c, 11, 58, 95
19, 130560, Note_on_c, 11, 53, 95
19, 130560, Note_on_c, 11, 46, 95
19, 131040, Note_off_c, 11, 46, 95
19, 131040, Note_off_c, 11, 53, 95
19, 131040, Note_off_c, 11, 58, 95
19, 131040, Note_off_c, 11, 62, 95
19, 131040, Note_on_c, 11, 70, 95
19, 131040, Note_on_c, 11, 68, 95
19, 131040, Note_on_c, 11, 62, 95
19, 131040, Note_on_c, 11, 58, 95
19, 131280, Note_off_c, 11, 58, 95
19, 131280, Note_off_c, 11, 62, 95
19, 131280, Note_off_c, 11, 68, 95
19, 131280, Note_off_c, 11, 70, 95
19, 131520, Note_on_c, 11, 59, 95
19, 131520, Note_on_c, 11, 55, 95
19, 131520, Note_on_c, 11, 50, 95
19, 131568, Note_off_c, 11, 50, 95
19, 131568, Note_off_c, 11, 55, 95
19, 131568, Note_off_c, 11, 59, 95
19, 131760, Note_on_c, 11, 70, 95
19, 131760, Note_on_c, 11, 68, 95
19, 131760, Note_on_c, 11, 62, 95
19, 131760, Note_on_c, 11, 58, 95
19, 132000, Note_off_c, 11, 58, 95
19, 132000, Note_off_c, 11, 62, 95
19, 132000, Note_off_c, 11, 68, 95
19, 132000, Note_off_c, 11, 70, 95
19, 132240, Note_on_c, 11, 70, 95
19, 132240, Note_on_c, 11, 68, 95
19, 132240, Note_on_c, 11, 62, 95
19, 132240, Note_on_c, 11, 58, 95
19, 132480, Note_off_c, 11, 58, 95
19, 132480, Note_off_c, 11, 62, 95
19, 132480, Note_off_c, 11, 68, 95
19, 132480, Note_off_c, 11, 70, 95
19, 132720, Note_on_c, 11, 70, 95
19, 132720, Note_on_c, 11, 68, 95
19, 132720, Note_on_c, 11, 62, 95
19, 132720, Note_on_c, 11, 58, 95
19, 132960, Note_off_c, 11, 58, 95
19, 132960, Note_off_c, 11, 62, 95
19, 132960, Note_off_c, 11, 68, 95
19, 132960, Note_off_c, 11, 70, 95
19, 133200, Note_on_c, 11, 68, 95
19, 133200, Note_on_c, 11, 63, 95
19, 133200, Note_on_c, 11, 60, 95
19, 133200, Note_on_c, 11, 56, 95
19, 133200, Note_on_c, 11, 51, 95
19, 133440, Note_off_c, 11, 51, 95
19, 133440, Note_off_c, 11, 56, 95
19, 133440, Note_off_c, 11, 60, 95
19, 133440, Note_off_c, 11, 63, 95
19, 133440, Note_off_c, 11, 68, 95
19, 133440, Note_on_c, 11, 68, 95
19, 133440, Note_on_c, 11, 63, 95
19, 133440, Note_on_c, 11, 60, 95
19, 133440, Note_on_c, 11, 56, 95
19, 133440, Note_on_c, 11, 51, 95
19, 133680, Note_off_c, 11, 51, 95
19, 133680, Note_off_c, 11, 56, 95
19, 133680, Note_off_c, 11, 60, 95
19, 133680, Note_off_c, 11, 63, 95
19, 133680, Note_off_c, 11, 68, 95
19, 133680, Note_on_c, 11, 67, 95
19, 133680, Note_on_c, 11, 63, 95
19, 133680, Note_on_c, 11, 58, 95
19, 133680, Note_on_c, 11, 51, 95
19, 133920, Note_off_c, 11, 51, 95
19, 133920, Note_off_c, 11, 58, 95
19, 133920, Note_off_c, 11, 63, 95
19, 133920, Note_off_c, 11, 67, 95
19, 133920, Note_on_c, 11, 67, 95
19, 133920, Note_on_c, 11, 63, 95
19, 133920, Note_on_c, 11, 58, 95
19, 133920, Note_on_c, 11, 51, 95
19, 134160, Note_off_c, 11, 51, 95
19, 134160, Note_off_c, 11, 58, 95
19, 134160, Note_off_c, 11, 63, 95
19, 134160, Note_off_c, 11, 67, 95
19, 134160, Note_on_c, 11, 62, 47
19, 134160, Note_on_c, 11, 58, 47
19, 134160, Note_on_c, 11, 53, 47
19, 134400, Note_off_c, 11, 53, 47
19, 134400, Note_off_c, 11, 58, 47
19, 134400, Note_off_c, 11, 62, 47
19, 134400, Note_on_c, 11, 62, 95
19, 134400, Note_on_c, 11, 58, 95
19, 134400, Note_on_c, 11, 53, 95
19, 134400, Note_on_c, 11, 46, 95
19, 134880, Note_off_c, 11, 46, 95
19, 134880, Note_off_c, 11, 53, 95
19, 134880, Note_off_c, 11, 58, 95
19, 134880, Note_off_c, 11, 62, 95
19, 134880, Note_on_c, 11, 70, 95
19, 134880, Note_on_c, 11, 68, 95
19, 134880, Note_on_c, 11, 62, 95
19, 134880, Note_on_c, 11, 58, 95
19, 135120, Note_off_c, 11, 58, 95
19, 135120, Note_off_c, 11, 62, 95
19, 135120, Note_off_c, 11, 68, 95
19, 135120, Note_off_c, 11, 70, 95
19, 135360, Note_on_c, 11, 59, 95
19, 135360, Note_on_c, 11, 55, 95
19, 135360, Note_on_c, 11, 50, 95
19, 135408, Note_off_c, 11, 50, 95
19, 135408, Note_off_c, 11, 55, 95
19, 135408, Note_off_c, 11, 59, 95
19, 135600, Note_on_c, 11, 70, 95
19, 135600, Note_on_c, 11, 68, 95
19, 135600, Note_on_c, 11, 62, 95
19, 135600, Note_on_c, 11, 58, 95
19, 135840, Note_off_c, 11, 58, 95
19, 135840, Note_off_c, 11, 62, 95
19, 135840, Note_off_c, 11, 68, 95
19, 135840, Note_off_c, 11, 70, 95
19, 136080, Note_on_c, 11, 70, 95
19, 136080, Note_on_c, 11, 68, 95
19, 136080, Note_on_c, 11, 62, 95
19, 136080, Note_on_c, 11, 58, 95
19, 136320, Note_off_c, 11, 58, 95
19, 136320, Note_off_c, 11, 62, 95
19, 136320, Note_off_c, 11, 68, 95
19, 136320, Note_off_c, 11, 70, 95
19, 136560, Note_on_c, 11, 70, 95
19, 136560, Note_on_c, 11, 68, 95
19, 136560, Note_on_c, 11, 62, 95
19, 136560, Note_on_c, 11, 58, 95
19, 136800, Note_off_c, 11, 58, 95
19, 136800, Note_off_c, 11, 62, 95
19, 136800, Note_off_c, 11, 68, 95
19, 136800, Note_off_c, 11, 70, 95
19, 137040, Note_on_c, 11, 68, 95
19, 137040, Note_on_c, 11, 63, 95
19, 137040, Note_on_c, 11, 60, 95
19, 137040, Note_on_c, 11, 56, 95
19, 137040, Note_on_c, 11, 51, 95
19, 137280, Note_off_c, 11, 51, 95
19, 137280, Note_off_c, 11, 56, 95
19, 137280, Note_off_c, 11, 60, 95
19, 137280, Note_off_c, 11, 63, 95
19, 137280, Note_off_c, 11, 68, 95
19, 137280, Note_on_c, 11, 68, 95
19, 137280, Note_on_c, 11, 63, 95
19, 137280, Note_on_c, 11, 60, 95
19, 137280, Note_on_c, 11, 56, 95
19, 137280, Note_on_c, 11, 51, 95
19, 137520, Note_off_c, 11, 51, 95
19, 137520, Note_off_c, 11, 56, 95
19, 137520, Note_off_c, 11, 60, 95
19, 137520, Note_off_c, 11, 63, 95
19, 137520, Note_off_c, 11, 68, 95
19, 137520, Note_on_c, 11, 67, 95
19, 137520, Note_on_c, 11, 63, 95
19, 137520, Note_on_c, 11, 58, 95
19, 137520, Note_on_c, 11, 51, 95
19, 137760, Note_off_c, 11, 51, 95
19, 137760, Note_off_c, 11, 58, 95
19, 137760, Note_off_c, 11, 63, 95
19, 137760, Note_off_c, 11, 67, 95
19, 137760, Note_on_c, 11, 67, 95
19, 137760, Note_on_c, 11, 63, 95
19, 137760, Note_on_c, 11, 58, 95
19, 137760, Note_on_c, 11, 51, 95
19, 138000, Note_off_c, 11, 51, 95
19, 138000, Note_off_c, 11, 58, 95
19, 138000, Note_off_c, 11, 63, 95
19, 138000, Note_off_c, 11, 67, 95
19, 138000, Note_on_c, 11, 62, 47
19, 138000, Note_on_c, 11, 58, 47
19, 138000, Note_on_c, 11, 53, 47
19, 138240, Note_off_c, 11, 53, 47
19, 138240, Note_off_c, 11, 58, 47
19, 138240, Note_off_c, 11, 62, 47
19, 138240, Note_on_c, 11, 62, 95
19, 138240, Note_on_c, 11, 58, 95
19, 138240, Note_on_c, 11, 53, 95
19, 138240, Note_on_c, 11, 46, 95
19, 138720, Note_off_c, 11, 46, 95
19, 138720, Note_off_c, 11, 53, 95
19, 138720, Note_off_c, 11, 58, 95
19, 138720, Note_off_c, 11, 62, 95
19, 138720, Note_on_c, 11, 70, 95
19, 138720, Note_on_c, 11, 68, 95
19, 138720, Note_on_c, 11, 62, 95
19, 138720, Note_on_c, 11, 58, 95
19, 138960, Note_off_c, 11, 58, 95
19, 138960, Note_off_c, 11, 62, 95
19, 138960, Note_off_c, 11, 68, 95
19, 138960, Note_off_c, 11, 70, 95
19, 139200, Note_on_c, 11, 59, 95
19, 139200, Note_on_c, 11, 55, 95
19, 139200, Note_on_c, 11, 50, 95
19, 139248, Note_off_c, 11, 50, 95
19, 139248, Note_off_c, 11, 55, 95
19, 139248, Note_off_c, 11, 59, 95
19, 139440, Note_on_c, 11, 70, 95
19, 139440, Note_on_c, 11, 68, 95
19, 139440, Note_on_c, 11, 62, 95
19, 139440, Note_on_c, 11, 58, 95
19, 139680, Note_off_c, 11, 58, 95
19, 139680, Note_off_c, 11, 62, 95
19, 139680, Note_off_c, 11, 68, 95
19, 139680, Note_off_c, 11, 70, 95
19, 139920, Note_on_c, 11, 70, 95
19, 139920, Note_on_c, 11, 68, 95
19, 139920, Note_on_c, 11, 62, 95
19, 139920, Note_on_c, 11, 58, 95
19, 140160, Note_off_c, 11, 58, 95
19, 140160, Note_off_c, 11, 62, 95
19, 140160, Note_off_c, 11, 68, 95
19, 140160, Note_off_c, 11, 70, 95
19, 140400, Note_on_c, 11, 70, 95
19, 140400, Note_on_c, 11, 68, 95
19, 140400, Note_on_c, 11, 62, 95
19, 140400, Note_on_c, 11, 58, 95
19, 140640, Note_off_c, 11, 58, 95
19, 140640, Note_off_c, 11, 62, 95
19, 140640, Note_off_c, 11, 68, 95
19, 140640, Note_off_c, 11, 70, 95
19, 140880, Note_on_c, 11, 68, 95
19, 140880, Note_on_c, 11, 63, 95
19, 140880, Note_on_c, 11, 60, 95
19, 140880, Note_on_c, 11, 56, 95
19, 140880, Note_on_c, 11, 51, 95
19, 141120, Note_off_c, 11, 51, 95
19, 141120, Note_off_c, 11, 56, 95
19, 141120, Note_off_c, 11, 60, 95
19, 141120, Note_off_c, 11, 63, 95
19, 141120, Note_off_c, 11, 68, 95
19, 141120, Note_on_c, 11, 68, 95
19, 141120, Note_on_c, 11, 63, 95
19, 141120, Note_on_c, 11, 60, 95
19, 141120, Note_on_c, 11, 56, 95
19, 141120, Note_on_c, 11, 51, 95
19, 141360, Note_off_c, 11, 51, 95
19, 141360, Note_off_c, 11, 56, 95
19, 141360, Note_off_c, 11, 60, 95
19, 141360, Note_off_c, 11, 63, 95
19, 141360, Note_off_c, 11, 68, 95
19, 141360, Note_on_c, 11, 67, 95
19, 141360, Note_on_c, 11, 63, 95
19, 141360, Note_on_c, 11, 58, 95
19, 141360, Note_on_c, 11, 51, 95
19, 141600, Note_off_c, 11, 51, 95
19, 141600, Note_off_c, 11, 58, 95
19, 141600, Note_off_c, 11, 63, 95
19, 141600, Note_off_c, 11, 67, 95
19, 141600, Note_on_c, 11, 67, 95
19, 141600, Note_on_c, 11, 63, 95
19, 141600, Note_on_c, 11, 58, 95
19, 141600, Note_on_c, 11, 51, 95
19, 141840, Note_off_c, 11, 51, 95
19, 141840, Note_off_c, 11, 58, 95
19, 141840, Note_off_c, 11, 63, 95
19, 141840, Note_off_c, 11, 67, 95
19, 141840, Note_on_c, 11, 62, 47
19, 141840, Note_on_c, 11, 58, 47
19, 141840, Note_on_c, 11, 53, 47
19, 142080, Note_off_c, 11, 53, 47
19, 142080, Note_off_c, 11, 58, 47
19, 142080, Note_off_c, 11, 62, 47
19, 142080, Note_on_c, 11, 62, 95
19, 142080, Note_on_c, 11, 58, 95
19, 142080, Note_on_c, 11, 53, 95
19, 142080, Note_on_c, 11, 46, 95
19, 142560, Note_off_c, 11, 46, 95
19, 142560, Note_off_c, 11, 53, 95
19, 142560, Note_off_c, 11, 58, 95
19, 142560, Note_off_c, 11, 62, 95
19, 142560, Note_on_c, 11, 70, 95
19, 142560, Note_on_c, 11, 68, 95
19, 142560, Note_on_c, 11, 62, 95
19, 142560, Note_on_c, 11, 58, 95
19, 142800, Note_off_c, 11, 58, 95
19, 142800, Note_off_c, 11, 62, 95
19, 142800, Note_off_c, 11, 68, 95
19, 142800, Note_off_c, 11, 70, 95
19, 143040, Note_on_c, 11, 59, 95
19, 143040, Note_on_c, 11, 55, 95
19, 143040, Note_on_c, 11, 50, 95
19, 143088, Note_off_c, 11, 50, 95
19, 143088, Note_off_c, 11, 55, 95
19, 143088, Note_off_c, 11, 59, 95
19, 143280, Note_on_c, 11, 70, 95
19, 143280, Note_on_c, 11, 68, 95
19, 143280, Note_on_c, 11, 62, 95
19, 143280, Note_on_c, 11, 58, 95
19, 143520, Note_off_c, 11, 58, 95
19, 143520, Note_off_c, 11, 62, 95
19, 143520, Note_off_c, 11, 68, 95
19, 143520, Note_off_c, 11, 70, 95
19, 143760, Note_on_c, 11, 70, 95
19, 143760, Note_on_c, 11, 68, 95
19, 143760, Note_on_c, 11, 62, 95
19, 143760, Note_on_c, 11, 58, 95
19, 144000, Note_off_c, 11, 58, 95
19, 144000, Note_off_c, 11, 62, 95
19, 144000, Note_off_c, 11, 68, 95
19, 144000, Note_off_c, 11, 70, 95
19, 144240, Note_on_c, 11, 70, 95
19, 144240, Note_on_c, 11, 68, 95
19, 144240, Note_on_c, 11, 62, 95
19, 144240, Note_on_c, 11, 58, 95
19, 144480, Note_off_c, 11, 58, 95
19, 144480, Note_off_c, 11, 62, 95
19, 144480, Note_off_c, 11, 68, 95
19, 144480, Note_off_c, 11, 70, 95
19, 144720, Note_on_c, 11, 68, 95
19, 144720, Note_on_c, 11, 63, 95
19, 144720, Note_on_c, 11, 60, 95
19, 144720, Note_on_c, 11, 56, 95
19, 144720, Note_on_c, 11, 51, 95
19, 144960, Note_off_c, 11, 51, 95
19, 144960, Note_off_c, 11, 56, 95
19, 144960, Note_off_c, 11, 60, 95
19, 144960, Note_off_c, 11, 63, 95
19, 144960, Note_off_c, 11, 68, 95
19, 144960, Note_on_c, 11, 68, 95
19, 144960, Note_on_c, 11, 63, 95
19, 144960, Note_on_c, 11, 60, 95
19, 144960, Note_on_c, 11, 56, 95
19, 144960, Note_on_c, 11, 51, 95
19, 145200, Note_off_c, 11, 51, 95
19, 145200, Note_off_c, 11, 56, 95
19, 145200, Note_off_c, 11, 60, 95
19, 145200, Note_off_c, 11, 63, 95
19, 145200, Note_off_c, 11, 68, 95
19, 145200, Note_on_c, 11, 67, 95
19, 145200, Note_on_c, 11, 63, 95
19, 145200, Note_on_c, 11, 58, 95
19, 145200, Note_on_c, 11, 51, 95
19, 145440, Note_off_c, 11, 51, 95
19, 145440, Note_off_c, 11, 58, 95
19, 145440, Note_off_c, 11, 63, 95
19, 145440, Note_off_c, 11, 67, 95
19, 145440, Note_on_c, 11, 67, 95
19, 145440, Note_on_c, 11, 63, 95
19, 145440, Note_on_c, 11, 58, 95
19, 145440, Note_on_c, 11, 51, 95
19, 145680, Note_off_c, 11, 51, 95
19, 145680, Note_off_c, 11, 58, 95
19, 145680, Note_off_c, 11, 63, 95
19, 145680, Note_off_c, 11, 67, 95
19, 145680, Note_on_c, 11, 62, 47
19, 145680, Note_on_c, 11, 58, 47
19, 145680, Note_on_c, 11, 53, 47
19, 145920, Note_off_c, 11, 53, 47
19, 145920, Note_off_c, 11, 58, 47
19, 145920, Note_off_c, 11, 62, 47
19, 145920, Note_on_c, 11, 62, 95
19, 145920, Note_on_c, 11, 58, 95
19, 145920, Note_on_c, 11, 53, 95
19, 145920, Note_on_c, 11, 46, 95
19, 146400, Note_off_c, 11, 46, 95
19, 146400, Note_off_c, 11, 53, 95
19, 146400, Note_off_c, 11, 58, 95
19, 146400, Note_off_c, 11, 62, 95
19, 146400, Note_on_c, 11, 70, 95
19, 146400, Note_on_c, 11, 68, 95
19, 146400, Note_on_c, 11, 62, 95
19, 146400, Note_on_c, 11, 58, 95
19, 146640, Note_off_c, 11, 58, 95
19, 146640, Note_off_c, 11, 62, 95
19, 146640, Note_off_c, 11, 68, 95
19, 146640, Note_off_c, 11, 70, 95
19, 146880, Note_on_c, 11, 59, 95
19, 146880, Note_on_c, 11, 55, 95
19, 146880, Note_on_c, 11, 50, 95
19, 146928, Note_off_c, 11, 50, 95
19, 146928, Note_off_c, 11, 55, 95
19, 146928, Note_off_c, 11, 59, 95
19, 147120, Note_on_c, 11, 70, 95
19, 147120, Note_on_c, 11, 68, 95
19, 147120, Note_on_c, 11, 62, 95
19, 147120, Note_on_c, 11, 58, 95
19, 147360, Note_off_c, 11, 58, 95
19, 147360, Note_off_c, 11, 62, 95
19, 147360, Note_off_c, 11, 68, 95
19, 147360, Note_off_c, 11, 70, 95
19, 147600, Note_on_c, 11, 70, 95
19, 147600, Note_on_c, 11, 68, 95
19, 147600, Note_on_c, 11, 62, 95
19, 147600, Note_on_c, 11, 58, 95
19, 147840, Note_off_c, 11, 58, 95
19, 147840, Note_off_c, 11, 62, 95
19, 147840, Note_off_c, 11, 68, 95
19, 147840, Note_off_c, 11, 70, 95
19, 148080, Note_on_c, 11, 70, 95
19, 148080, Note_on_c, 11, 68, 95
19, 148080, Note_on_c, 11, 62, 95
19, 148080, Note_on_c, 11, 58, 95
19, 148320, Note_off_c, 11, 58, 95
19, 148320, Note_off_c, 11, 62, 95
19, 148320, Note_off_c, 11, 68, 95
19, 148320, Note_off_c, 11, 70, 95
19, 148560, Note_on_c, 11, 68, 95
19, 148560, Note_on_c, 11, 63, 95
19, 148560, Note_on_c, 11, 60, 95
19, 148560, Note_on_c, 11, 56, 95
19, 148560, Note_on_c, 11, 51, 95
19, 148800, Note_off_c, 11, 51, 95
19, 148800, Note_off_c, 11, 56, 95
19, 148800, Note_off_c, 11, 60, 95
19, 148800, Note_off_c, 11, 63, 95
19, 148800, Note_off_c, 11, 68, 95
19, 148800, Note_on_c, 11, 68, 95
19, 148800, Note_on_c, 11, 63, 95
19, 148800, Note_on_c, 11, 60, 95
19, 148800, Note_on_c, 11, 56, 95
19, 148800, Note_on_c, 11, 51, 95
19, 149040, Note_off_c, 11, 51, 95
19, 149040, Note_off_c, 11, 56, 95
19, 149040, Note_off_c, 11, 60, 95
19, 149040, Note_off_c, 11, 63, 95
19, 149040, Note_off_c, 11, 68, 95
19, 149040, Note_on_c, 11, 67, 95
19, 149040, Note_on_c, 11, 63, 95
19, 149040, Note_on_c, 11, 58, 95
19, 149040, Note_on_c, 11, 51, 95
19, 149280, Note_off_c, 11, 51, 95
19, 149280, Note_off_c, 11, 58, 95
19, 149280, Note_off_c, 11, 63, 95
19, 149280, Note_off_c, 11, 67, 95
19, 149280, Note_on_c, 11, 67, 95
19, 149280, Note_on_c, 11, 63, 95
19, 149280, Note_on_c, 11, 58, 95
19, 149280, Note_on_c, 11, 51, 95
19, 149520, Note_off_c, 11, 51, 95
19, 149520, Note_off_c, 11, 58, 95
19, 149520, Note_off_c, 11, 63, 95
19, 149520, Note_off_c, 11, 67, 95
19, 149520, Note_on_c, 11, 62, 47
19, 149520, Note_on_c, 11, 58, 47
19, 149520, Note_on_c, 11, 53, 47
19, 149760, Note_off_c, 11, 53, 47
19, 149760, Note_off_c, 11, 58, 47
19, 149760, Note_off_c, 11, 62, 47
19, 149760, Note_on_c, 11, 62, 95
19, 149760, Note_on_c, 11, 58, 95
19, 149760, Note_on_c, 11, 53, 95
19, 149760, Note_on_c, 11, 46, 95
19, 150240, Note_off_c, 11, 46, 95
19, 150240, Note_off_c, 11, 53, 95
19, 150240, Note_off_c, 11, 58, 95
19, 150240, Note_off_c, 11, 62, 95
19, 150240, Note_on_c, 11, 70, 95
19, 150240, Note_on_c, 11, 68, 95
19, 150240, Note_on_c, 11, 62, 95
19, 150240, Note_on_c, 11, 58, 95
19, 150480, Note_off_c, 11, 58, 95
19, 150480, Note_off_c, 11, 62, 95
19, 150480, Note_off_c, 11, 68, 95
19, 150480, Note_off_c, 11, 70, 95
19, 150720, Note_on_c, 11, 59, 95
19, 150720, Note_on_c, 11, 55, 95
19, 150720, Note_on_c, 11, 50, 95
19, 150768, Note_off_c, 11, 50, 95
19, 150768, Note_off_c, 11, 55, 95
19, 150768, Note_off_c, 11, 59, 95
19, 150960, Note_on_c, 11, 70, 95
19, 150960, Note_on_c, 11, 68, 95
19, 150960, Note_on_c, 11, 62, 95
19, 150960, Note_on_c, 11, 58, 95
19, 151200, Note_off_c, 11, 58, 95
19, 151200, Note_off_c, 11, 62, 95
19, 151200, Note_off_c, 11, 68, 95
19, 151200, Note_off_c, 11, 70, 95
19, 151440, Note_on_c, 11, 70, 95
19, 151440, Note_on_c, 11, 68, 95
19, 151440, Note_on_c, 11, 62, 95
19, 151440, Note_on_c, 11, 58, 95
19, 151680, Note_off_c, 11, 58, 95
19, 151680, Note_off_c, 11, 62, 95
19, 151680, Note_off_c, 11, 68, 95
19, 151680, Note_off_c, 11, 70, 95
19, 151920, Note_on_c, 11, 70, 95
19, 151920, Note_on_c, 11, 68, 95
19, 151920, Note_on_c, 11, 62, 95
19, 151920, Note_on_c, 11, 58, 95
19, 152160, Note_off_c, 11, 58, 95
19, 152160, Note_off_c, 11, 62, 95
19, 152160, Note_off_c, 11, 68, 95
19, 152160, Note_off_c, 11, 70, 95
19, 152400, Note_on_c, 11, 68, 95
19, 152400, Note_on_c, 11, 63, 95
19, 152400, Note_on_c, 11, 60, 95
19, 152400, Note_on_c, 11, 56, 95
19, 152400, Note_on_c, 11, 51, 95
19, 152640, Note_off_c, 11, 51, 95
19, 152640, Note_off_c, 11, 56, 95
19, 152640, Note_off_c, 11, 60, 95
19, 152640, Note_off_c, 11, 63, 95
19, 152640, Note_off_c, 11, 68, 95
19, 152640, Note_on_c, 11, 68, 95
19, 152640, Note_on_c, 11, 63, 95
19, 152640, Note_on_c, 11, 60, 95
19, 152640, Note_on_c, 11, 56, 95
19, 152640, Note_on_c, 11, 51, 95
19, 152880, Note_off_c, 11, 51, 95
19, 152880, Note_off_c, 11, 56, 95
19, 152880, Note_off_c, 11, 60, 95
19, 152880, Note_off_c, 11, 63, 95
19, 152880, Note_off_c, 11, 68, 95
19, 152880, Note_on_c, 11, 67, 95
19, 152880, Note_on_c, 11, 63, 95
19, 152880, Note_on_c, 11, 58, 95
19, 152880, Note_on_c, 11, 51, 95
19, 153120, Note_off_c, 11, 51, 95
19, 153120, Note_off_c, 11, 58, 95
19, 153120, Note_off_c, 11, 63, 95
19, 153120, Note_off_c, 11, 67, 95
19, 153120, Note_on_c, 11, 67, 95
19, 153120, Note_on_c, 11, 63, 95
19, 153120, Note_on_c, 11, 58, 95
19, 153120, Note_on_c, 11, 51, 95
19, 153360, Note_off_c, 11, 51, 95
19, 153360, Note_off_c, 11, 58, 95
19, 153360, Note_off_c, 11, 63, 95
19, 153360, Note_off_c, 11, 67, 95
19, 153360, Note_on_c, 11, 62, 47
19, 153360, Note_on_c, 11, 58, 47
19, 153360, Note_on_c, 11, 53, 47
19, 153600, Note_off_c, 11, 53, 47
19, 153600, Note_off_c, 11, 58, 47
19, 153600, Note_off_c, 11, 62, 47
19, 153600, Note_on_c, 11, 62, 95
19, 153600, Note_on_c, 11, 58, 95
19, 153600, Note_on_c, 11, 53, 95
19, 153600, Note_on_c, 11, 46, 95
19, 154080, Note_off_c, 11, 46, 95
19, 154080, Note_off_c, 11, 53, 95
19, 154080, Note_off_c, 11, 58, 95
19, 154080, Note_off_c, 11, 62, 95
19, 154080, Note_on_c, 11, 70, 95
19, 154080, Note_on_c, 11, 68, 95
19, 154080, Note_on_c, 11, 62, 95
19, 154080, Note_on_c, 11, 58, 95
19, 154320, Note_off_c, 11, 58, 95
19, 154320, Note_off_c, 11, 62, 95
19, 154320, Note_off_c, 11, 68, 95
19, 154320, Note_off_c, 11, 70, 95
19, 154560, Note_on_c, 11, 59, 95
19, 154560, Note_on_c, 11, 55, 95
19, 154560, Note_on_c, 11, 50, 95
19, 154608, Note_off_c, 11, 50, 95
19, 154608, Note_off_c, 11, 55, 95
19, 154608, Note_off_c, 11, 59, 95
19, 154800, Note_on_c, 11, 70, 95
19, 154800, Note_on_c, 11, 68, 95
19, 154800, Note_on_c, 11, 62, 95
19, 154800, Note_on_c, 11, 58, 95
19, 155040, Note_off_c, 11, 58, 95
19, 155040, Note_off_c, 11, 62, 95
19, 155040, Note_off_c, 11, 68, 95
19, 155040, Note_off_c, 11, 70, 95
19, 155280, Note_on_c, 11, 70, 95
19, 155280, Note_on_c, 11, 68, 95
19, 155280, Note_on_c, 11, 62, 95
19, 155280, Note_on_c, 11, 58, 95
19, 155520, Note_off_c, 11, 58, 95
19, 155520, Note_off_c, 11, 62, 95
19, 155520, Note_off_c, 11, 68, 95
19, 155520, Note_off_c, 11, 70, 95
19, 155760, Note_on_c, 11, 70, 95
19, 155760, Note_on_c, 11, 68, 95
19, 155760, Note_on_c, 11, 62, 95
19, 155760, Note_on_c, 11, 58, 95
19, 156000, Note_off_c, 11, 58, 95
19, 156000, Note_off_c, 11, 62, 95
19, 156000, Note_off_c, 11, 68, 95
19, 156000, Note_off_c, 11, 70, 95
19, 156240, Note_on_c, 11, 68, 95
19, 156240, Note_on_c, 11, 63, 95
19, 156240, Note_on_c, 11, 60, 95
19, 156240, Note_on_c, 11, 56, 95
19, 156240, Note_on_c, 11, 51, 95
19, 156480, Note_off_c, 11, 51, 95
19, 156480, Note_off_c, 11, 56, 95
19, 156480, Note_off_c, 11, 60, 95
19, 156480, Note_off_c, 11, 63, 95
19, 156480, Note_off_c, 11, 68, 95
19, 156480, Note_on_c, 11, 68, 95
19, 156480, Note_on_c, 11, 63, 95
19, 156480, Note_on_c, 11, 60, 95
19, 156480, Note_on_c, 11, 56, 95
19, 156480, Note_on_c, 11, 51, 95
19, 156720, Note_off_c, 11, 51, 95
19, 156720, Note_off_c, 11, 56, 95
19, 156720, Note_off_c, 11, 60, 95
19, 156720, Note_off_c, 11, 63, 95
19, 156720, Note_off_c, 11, 68, 95
19, 156720, Note_on_c, 11, 67, 95
19, 156720, Note_on_c, 11, 63, 95
19, 156720, Note_on_c, 11, 58, 95
19, 156720, Note_on_c, 11, 51, 95
19, 156960, Note_off_c, 11, 51, 95
19, 156960, Note_off_c, 11, 58, 95
19, 156960, Note_off_c, 11, 63, 95
19, 156960, Note_off_c, 11, 67, 95
19, 156960, Note_on_c, 11, 67, 95
19, 156960, Note_on_c, 11, 63, 95
19, 156960, Note_on_c, 11, 58, 95
19, 156960, Note_on_c, 11, 51, 95
19, 157200, Note_off_c, 11, 51, 95
19, 157200, Note_off_c, 11, 58, 95
19, 157200, Note_off_c, 11, 63, 95
19, 157200, Note_off_c, 11, 67, 95
19, 157200, Note_on_c, 11, 62, 47
19, 157200, Note_on_c, 11, 58, 47
19, 157200, Note_on_c, 11, 53, 47
19, 157440, Note_off_c, 11, 53, 47
19, 157440, Note_off_c, 11, 58, 47
19, 157440, Note_off_c, 11, 62, 47
19, 157440, Note_on_c, 11, 62, 95
19, 157440, Note_on_c, 11, 58, 95
19, 157440, Note_on_c, 11, 53, 95
19, 157440, Note_on_c, 11, 46, 95
19, 157920, Note_off_c, 11, 46, 95
19, 157920, Note_off_c, 11, 53, 95
19, 157920, Note_off_c, 11, 58, 95
19, 157920, Note_off_c, 11, 62, 95
19, 157920, Note_on_c, 11, 70, 95
19, 157920, Note_on_c, 11, 68, 95
19, 157920, Note_on_c, 11, 62, 95
19, 157920, Note_on_c, 11, 58, 95
19, 158160, Note_off_c, 11, 58, 95
19, 158160, Note_off_c, 11, 62, 95
19, 158160, Note_off_c, 11, 68, 95
19, 158160, Note_off_c, 11, 70, 95
19, 158400, Note_on_c, 11, 59, 95
19, 158400, Note_on_c, 11, 55, 95
19, 158400, Note_on_c, 11, 50, 95
19, 158448, Note_off_c, 11, 50, 95
19, 158448, Note_off_c, 11, 55, 95
19, 158448, Note_off_c, 11, 59, 95
19, 158640, Note_on_c, 11, 70, 95
19, 158640, Note_on_c, 11, 68, 95
19, 158640, Note_on_c, 11, 62, 95
19, 158640, Note_on_c, 11, 58, 95
19, 158880, Note_off_c, 11, 58, 95
19, 158880, Note_off_c, 11, 62, 95
19, 158880, Note_off_c, 11, 68, 95
19, 158880, Note_off_c, 11, 70, 95
19, 159120, Note_on_c, 11, 70, 95
19, 159120, Note_on_c, 11, 68, 95
19, 159120, Note_on_c, 11, 62, 95
19, 159120, Note_on_c, 11, 58, 95
19, 159360, Note_off_c, 11, 58, 95
19, 159360, Note_off_c, 11, 62, 95
19, 159360, Note_off_c, 11, 68, 95
19, 159360, Note_off_c, 11, 70, 95
19, 159600, Note_on_c, 11, 70, 95
19, 159600, Note_on_c, 11, 68, 95
19, 159600, Note_on_c, 11, 62, 95
19, 159600, Note_on_c, 11, 58, 95
19, 159840, Note_off_c, 11, 58, 95
19, 159840, Note_off_c, 11, 62, 95
19, 159840, Note_off_c, 11, 68, 95
19, 159840, Note_off_c, 11, 70, 95
19, 160080, Note_on_c, 11, 68, 95
19, 160080, Note_on_c, 11, 63, 95
19, 160080, Note_on_c, 11, 60, 95
19, 160080, Note_on_c, 11, 56, 95
19, 160080, Note_on_c, 11, 51, 95
19, 160320, Note_off_c, 11, 51, 95
19, 160320, Note_off_c, 11, 56, 95
19, 160320, Note_off_c, 11, 60, 95
19, 160320, Note_off_c, 11, 63, 95
19, 160320, Note_off_c, 11, 68, 95
19, 160320, Note_on_c, 11, 68, 95
19, 160320, Note_on_c, 11, 63, 95
19, 160320, Note_on_c, 11, 60, 95
19, 160320, Note_on_c, 11, 56, 95
19, 160320, Note_on_c, 11, 51, 95
19, 160560, Note_off_c, 11, 51, 95
19, 160560, Note_off_c, 11, 56, 95
19, 160560, Note_off_c, 11, 60, 95
19, 160560, Note_off_c, 11, 63, 95
19, 160560, Note_off_c, 11, 68, 95
19, 160560, Note_on_c, 11, 67, 95
19, 160560, Note_on_c, 11, 63, 95
19, 160560, Note_on_c, 11, 58, 95
19, 160560, Note_on_c, 11, 51, 95
19, 160800, Note_off_c, 11, 51, 95
19, 160800, Note_off_c, 11, 58, 95
19, 160800, Note_off_c, 11, 63, 95
19, 160800, Note_off_c, 11, 67, 95
19, 160800, Note_on_c, 11, 67, 95
19, 160800, Note_on_c, 11, 63, 95
19, 160800, Note_on_c, 11, 58, 95
19, 160800, Note_on_c, 11, 51, 95
19, 161040, Note_off_c, 11, 51, 95
19, 161040, Note_off_c, 11, 58, 95
19, 161040, Note_off_c, 11, 63, 95
19, 161040, Note_off_c, 11, 67, 95
19, 161040, Note_on_c, 11, 62, 47
19, 161040, Note_on_c, 11, 58, 47
19, 161040, Note_on_c, 11, 53, 47
19, 161280, Note_off_c, 11, 53, 47
19, 161280, Note_off_c, 11, 58, 47
19, 161280, Note_off_c, 11, 62, 47
19, 161280, Note_on_c, 11, 60, 95
19, 161280, Note_on_c, 11, 53, 95
19, 161280, Note_on_c, 11, 48, 95
19, 161760, Note_off_c, 11, 48, 95
19, 161760, Note_off_c, 11, 53, 95
19, 161760, Note_off_c, 11, 60, 95
19, 161760, Note_on_c, 11, 72, 95
19, 161760, Note_on_c, 11, 69, 95
19, 161760, Note_on_c, 11, 63, 95
19, 161760, Note_on_c, 11, 60, 95
19, 162000, Note_off_c, 11, 60, 95
19, 162000, Note_off_c, 11, 63, 95
19, 162000, Note_off_c, 11, 69, 95
19, 162000, Note_off_c, 11, 72, 95
19, 162240, Note_on_c, 11, 69, 95
19, 162240, Note_on_c, 11, 63, 95
19, 162240, Note_on_c, 11, 60, 95
19, 162288, Note_off_c, 11, 60, 95
19, 162288, Note_off_c, 11, 63, 95
19, 162288, Note_off_c, 11, 69, 95
19, 162480, Note_on_c, 11, 72, 95
19, 162480, Note_on_c, 11, 69, 95
19, 162480, Note_on_c, 11, 63, 95
19, 162480, Note_on_c, 11, 60, 95
19, 162720, Note_off_c, 11, 60, 95
19, 162720, Note_off_c, 11, 63, 95
19, 162720, Note_off_c, 11, 69, 95
19, 162720, Note_off_c, 11, 72, 95
19, 162960, Note_on_c, 11, 72, 95
19, 162960, Note_on_c, 11, 69, 95
19, 162960, Note_on_c, 11, 63, 95
19, 162960, Note_on_c, 11, 60, 95
19, 163200, Note_off_c, 11, 60, 95
19, 163200, Note_off_c, 11, 63, 95
19, 163200, Note_off_c, 11, 69, 95
19, 163200, Note_off_c, 11, 72, 95
19, 163440, Note_on_c, 11, 72, 95
19, 163440, Note_on_c, 11, 69, 95
19, 163440, Note_on_c, 11, 63, 95
19, 163440, Note_on_c, 11, 60, 95
19, 163680, Note_off_c, 11, 60, 95
19, 163680, Note_off_c, 11, 63, 95
19, 163680, Note_off_c, 11, 69, 95
19, 163680, Note_off_c, 11, 72, 95
19, 163920, Note_on_c, 11, 69, 95
19, 163920, Note_on_c, 11, 63, 95
19, 163920, Note_on_c, 11, 60, 95
19, 163920, Note_on_c, 11, 53, 95
19, 164160, Note_off_c, 11, 53, 95
19, 164160, Note_off_c, 11, 60, 95
19, 164160, Note_off_c, 11, 63, 95
19, 164160, Note_off_c, 11, 69, 95
19, 164160, Note_on_c, 11, 69, 95
19, 164160, Note_on_c, 11, 63, 95
19, 164160, Note_on_c, 11, 60, 95
19, 164160, Note_on_c, 11, 53, 95
19, 164400, Note_off_c, 11, 53, 95
19, 164400, Note_off_c, 11, 60, 95
19, 164400, Note_off_c, 11, 63, 95
19, 164400, Note_off_c, 11, 69, 95
19, 164400, Note_on_c, 11, 69, 95
19, 164400, Note_on_c, 11, 63, 95
19, 164400, Note_on_c, 11, 60, 95
19, 164400, Note_on_c, 11, 53, 95
19, 164640, Note_off_c, 11, 53, 95
19, 164640, Note_off_c, 11, 60, 95
19, 164640, Note_off_c, 11, 63, 95
19, 164640, Note_off_c, 11, 69, 95
19, 164640, Note_on_c, 11, 69, 95
19, 164640, Note_on_c, 11, 63, 95
19, 164640, Note_on_c, 11, 60, 95
19, 164640, Note_on_c, 11, 53, 95
19, 164880, Note_off_c, 11, 53, 95
19, 164880, Note_off_c, 11, 60, 95
19, 164880, Note_off_c, 11, 63, 95
19, 164880, Note_off_c, 11, 69, 95
19, 164880, Note_on_c, 11, 63, 95
19, 164880, Note_on_c, 11, 60, 95
19, 164880, Note_on_c, 11, 53, 95
19, 165120, Note_off_c, 11, 53, 95
19, 165120, Note_off_c, 11, 60, 95
19, 165120, Note_off_c, 11, 63, 95
19, 165120, Note_on_c, 11, 60, 95
19, 165120, Note_on_c, 11, 53, 95
19, 165120, Note_on_c, 11, 48, 95
19, 165600, Note_off_c, 11, 48, 95
19, 165600, Note_off_c, 11, 53, 95
19, 165600, Note_off_c, 11, 60, 95
19, 165600, Note_on_c, 11, 72, 95
19, 165600, Note_on_c, 11, 69, 95
19, 165600, Note_on_c, 11, 63, 95
19, 165600, Note_on_c, 11, 60, 95
19, 165840, Note_off_c, 11, 60, 95
19, 165840, Note_off_c, 11, 63, 95
19, 165840, Note_off_c, 11, 69, 95
19, 165840, Note_off_c, 11, 72, 95
19, 166080, Note_on_c, 11, 69, 95
19, 166080, Note_on_c, 11, 63, 95
19, 166080, Note_on_c, 11, 60, 95
19, 166128, Note_off_c, 11, 60, 95
19, 166128, Note_off_c, 11, 63, 95
19, 166128, Note_off_c, 11, 69, 95
19, 166320, Note_on_c, 11, 72, 95
19, 166320, Note_on_c, 11, 69, 95
19, 166320, Note_on_c, 11, 63, 95
19, 166320, Note_on_c, 11, 60, 95
19, 166560, Note_off_c, 11, 60, 95
19, 166560, Note_off_c, 11, 63, 95
19, 166560, Note_off_c, 11, 69, 95
19, 166560, Note_off_c, 11, 72, 95
19, 166800, Note_on_c, 11, 72, 95
19, 166800, Note_on_c, 11, 69, 95
19, 166800, Note_on_c, 11, 63, 95
19, 166800, Note_on_c, 11, 60, 95
19, 167040, Note_off_c, 11, 60, 95
19, 167040, Note_off_c, 11, 63, 95
19, 167040, Note_off_c, 11, 69, 95
19, 167040, Note_off_c, 11, 72, 95
19, 167280, Note_on_c, 11, 72, 95
19, 167280, Note_on_c, 11, 69, 95
19, 167280, Note_on_c, 11, 63, 95
19, 167280, Note_on_c, 11, 60, 95
19, 167520, Note_off_c, 11, 60, 95
19, 167520, Note_off_c, 11, 63, 95
19, 167520, Note_off_c, 11, 69, 95
19, 167520, Note_off_c, 11, 72, 95
19, 167760, Note_on_c, 11, 69, 95
19, 167760, Note_on_c, 11, 63, 95
19, 167760, Note_on_c, 11, 60, 95
19, 167760, Note_on_c, 11, 53, 95
19, 168000, Note_off_c, 11, 53, 95
19, 168000, Note_off_c, 11, 60, 95
19, 168000, Note_off_c, 11, 63, 95
19, 168000, Note_off_c, 11, 69, 95
19, 168000, Note_on_c, 11, 69, 95
19, 168000, Note_on_c, 11, 63, 95
19, 168000, Note_on_c, 11, 60, 95
19, 168000, Note_on_c, 11, 53, 95
19, 168240, Note_off_c, 11, 53, 95
19, 168240, Note_off_c, 11, 60, 95
19, 168240, Note_off_c, 11, 63, 95
19, 168240, Note_off_c, 11, 69, 95
19, 168240, Note_on_c, 11, 69, 95
19, 168240, Note_on_c, 11, 63, 95
19, 168240, Note_on_c, 11, 60, 95
19, 168240, Note_on_c, 11, 53, 95
19, 168480, Note_off_c, 11, 53, 95
19, 168480, Note_off_c, 11, 60, 95
19, 168480, Note_off_c, 11, 63, 95
19, 168480, Note_off_c, 11, 69, 95
19, 168480, Note_on_c, 11, 69, 95
19, 168480, Note_on_c, 11, 63, 95
19, 168480, Note_on_c, 11, 60, 95
19, 168480, Note_on_c, 11, 53, 95
19, 168720, Note_off_c, 11, 53, 95
19, 168720, Note_off_c, 11, 60, 95
19, 168720, Note_off_c, 11, 63, 95
19, 168720, Note_off_c, 11, 69, 95
19, 168720, Note_on_c, 11, 63, 95
19, 168720, Note_on_c, 11, 60, 95
19, 168720, Note_on_c, 11, 53, 95
19, 168960, Note_off_c, 11, 53, 95
19, 168960, Note_off_c, 11, 60, 95
19, 168960, Note_off_c, 11, 63, 95
19, 168960, Note_on_c, 11, 69, 127
19, 168960, Note_on_c, 11, 63, 127
19, 168960, Note_on_c, 11, 60, 127
19, 168960, Note_on_c, 11, 53, 127
19, 168960, Note_on_c, 11, 48, 127
19, 169440, Note_off_c, 11, 48, 127
19, 169440, Note_off_c, 11, 53, 127
19, 169440, Note_off_c, 11, 60, 127
19, 169440, Note_off_c, 11, 63, 127
19, 169440, Note_off_c, 11, 69, 127
19, 176640, Note_on_c, 11, 63, 111
19, 176640, Note_on_c, 11, 60, 111
19, 176640, Note_on_c, 11, 56, 111
19, 176640, Note_on_c, 11, 51, 111
19, 176640, Note_on_c, 11, 44, 111
19, 177120, Note_off_c, 11, 44, 111
19, 177120, Note_off_c, 11, 51, 111
19, 177120, Note_off_c, 11, 56, 111
19, 177120, Note_off_c, 11, 60, 111
19, 177120, Note_off_c, 11, 63, 111
19, 177120, Note_on_c, 11, 59, 95
19, 177120, Note_on_c, 11, 55, 95
19, 177120, Note_on_c, 11, 50, 95
19, 177120, Note_on_c, 11, 45, 95
19, 177168, Note_off_c, 11, 45, 95
19, 177168, Note_off_c, 11, 50, 95
19, 177168, Note_off_c, 11, 55, 95
19, 177168, Note_off_c, 11, 59, 95
19, 177360, Note_on_c, 11, 63, 111
19, 177360, Note_on_c, 11, 58, 111
19, 177360, Note_on_c, 11, 55, 111
19, 177360, Note_on_c, 11, 51, 111
19, 177840, Note_off_c, 11, 51, 111
19, 177840, Note_off_c, 11, 55, 111
19, 177840, Note_off_c, 11, 58, 111
19, 177840, Note_off_c, 11, 63, 111
19, 177840, Note_on_c, 11, 58, 95
19, 177840, Note_on_c, 11, 55, 95
19, 177840, Note_on_c, 11, 51, 95
19, 178080, Note_off_c, 11, 51, 95
19, 178080, Note_off_c, 11, 55, 95
19, 178080, Note_off_c, 11, 58, 95
19, 178080, Note_on_c, 11, 65, 111
19, 178080, Note_on_c, 11, 62, 111
19, 178080, Note_on_c, 11, 58, 111
19, 178080, Note_on_c, 11, 53, 111
19, 178080, Note_on_c, 11, 46, 111
19, 180480, Note_off_c, 11, 46, 111
19, 180480, Note_off_c, 11, 53, 111
19, 180480, Note_off_c, 11, 58, 111
19, 180480, Note_off_c, 11, 62, 111
19, 180480, Note_off_c, 11, 65, 111
19, 180480, Note_on_c, 11, 63, 111
19, 180480, Note_on_c, 11, 60, 111
19, 180480, Note_on_c, 11, 56, 111
19, 180480, Note_on_c, 11, 51, 111
19, 180480, Note_on_c, 11, 44, 111
19, 180960, Note_off_c, 11, 44, 111
19, 180960, Note_off_c, 11, 51, 111
19, 180960, Note_off_c, 11, 56, 111
19, 180960, Note_off_c, 11, 60, 111
19, 180960, Note_off_c, 11, 63, 111
19, 180960, Note_on_c, 11, 59, 95
19, 180960, Note_on_c, 11, 55, 95
19, 180960, Note_on_c, 11, 50, 95
19, 180960, Note_on_c, 11, 45, 95
19, 181008, Note_off_c, 11, 45, 95
19, 181008, Note_off_c, 11, 50, 95
19, 181008, Note_off_c, 11, 55, 95
19, 181008, Note_off_c, 11, 59, 95
19, 181200, Note_on_c, 11, 63, 111
19, 181200, Note_on_c, 11, 58, 111
19, 181200, Note_on_c, 11, 55, 111
19, 181200, Note_on_c, 11, 51, 111
19, 181680, Note_off_c, 11, 51, 111
19, 181680, Note_off_c, 11, 55, 111
19, 181680, Note_off_c, 11, 58, 111
19, 181680, Note_off_c, 11, 63, 111
19, 181680, Note_on_c, 11, 58, 95
19, 181680, Note_on_c, 11, 55, 95
19, 181680, Note_on_c, 11, 51, 95
19, 181920, Note_off_c, 11, 51, 95
19, 181920, Note_off_c, 11, 55, 95
19, 181920, Note_off_c, 11, 58, 95
19, 181920, Note_on_c, 11, 65, 111
19, 181920, Note_on_c, 11, 62, 111
19, 181920, Note_on_c, 11, 58, 111
19, 181920, Note_on_c, 11, 53, 111
19, 181920, Note_on_c, 11, 46, 111
19, 184320, Note_off_c, 11, 46, 111
19, 184320, Note_off_c, 11, 53, 111
19, 184320, Note_off_c, 11, 58, 111
19, 184320, Note_off_c, 11, 62, 111
19, 184320, Note_off_c, 11, 65, 111
19, 184320, Note_on_c, 11, 63, 111
19, 184320, Note_on_c, 11, 60, 111
19, 184320, Note_on_c, 11, 56, 111
19, 184320, Note_on_c, 11, 51, 111
19, 184320, Note_on_c, 11, 44, 111
19, 184800, Note_off_c, 11, 44, 111
19, 184800, Note_off_c, 11, 51, 111
19, 184800, Note_off_c, 11, 56, 111
19, 184800, Note_off_c, 11, 60, 111
19, 184800, Note_off_c, 11, 63, 111
19, 184800, Note_on_c, 11, 59, 95
19, 184800, Note_on_c, 11, 55, 95
19, 184800, Note_on_c, 11, 50, 95
19, 184800, Note_on_c, 11, 45, 95
19, 184848, Note_off_c, 11, 45, 95
19, 184848, Note_off_c, 11, 50, 95
19, 184848, Note_off_c, 11, 55, 95
19, 184848, Note_off_c, 11, 59, 95
19, 185040, Note_on_c, 11, 63, 111
19, 185040, Note_on_c, 11, 58, 111
19, 185040, Note_on_c, 11, 55, 111
19, 185040, Note_on_c, 11, 51, 111
19, 185520, Note_off_c, 11, 51, 111
19, 185520, Note_off_c, 11, 55, 111
19, 185520, Note_off_c, 11, 58, 111
19, 185520, Note_off_c, 11, 63, 111
19, 185520, Note_on_c, 11, 58, 95
19, 185520, Note_on_c, 11, 55, 95
19, 185520, Note_on_c, 11, 51, 95
19, 185760, Note_off_c, 11, 51, 95
19, 185760, Note_off_c, 11, 55, 95
19, 185760, Note_off_c, 11, 58, 95
19, 185760, Note_on_c, 11, 65, 111
19, 185760, Note_on_c, 11, 62, 111
19, 185760, Note_on_c, 11, 58, 111
19, 185760, Note_on_c, 11, 53, 111
19, 185760, Note_on_c, 11, 46, 111
19, 188160, Note_off_c, 11, 46, 111
19, 188160, Note_off_c, 11, 53, 111
19, 188160, Note_off_c, 11, 58, 111
19, 188160, Note_off_c, 11, 62, 111
19, 188160, Note_off_c, 11, 65, 111
19, 188160, Note_on_c, 11, 63, 111
19, 188160, Note_on_c, 11, 60, 111
19, 188160, Note_on_c, 11, 56, 111
19, 188160, Note_on_c, 11, 51, 111
19, 188160, Note_on_c, 11, 44, 111
19, 188640, Note_off_c, 11, 44, 111
19, 188640, Note_off_c, 11, 51, 111
19, 188640, Note_off_c, 11, 56, 111
19, 188640, Note_off_c, 11, 60, 111
19, 188640, Note_off_c, 11, 63, 111
19, 188640, Note_on_c, 11, 59, 95
19, 188640, Note_on_c, 11, 55, 95
19, 188640, Note_on_c, 11, 50, 95
19, 188640, Note_on_c, 11, 45, 95
19, 188688, Note_off_c, 11, 45, 95
19, 188688, Note_off_c, 11, 50, 95
19, 188688, Note_off_c, 11, 55, 95
19, 188688, Note_off_c, 11, 59, 95
19, 188880, Note_on_c, 11, 63, 111
19, 188880, Note_on_c, 11, 58, 111
19, 188880, Note_on_c, 11, 55, 111
19, 188880, Note_on_c, 11, 51, 111
19, 189360, Note_off_c, 11, 51, 111
19, 189360, Note_off_c, 11, 55, 111
19, 189360, Note_off_c, 11, 58, 111
19, 189360, Note_off_c, 11, 63, 111
19, 189360, Note_on_c, 11, 58, 95
19, 189360, Note_on_c, 11, 55, 95
19, 189360, Note_on_c, 11, 51, 95
19, 189600, Note_off_c, 11, 51, 95
19, 189600, Note_off_c, 11, 55, 95
19, 189600, Note_off_c, 11, 58, 95
19, 189600, Note_on_c, 11, 65, 111
19, 189600, Note_on_c, 11, 62, 111
19, 189600, Note_on_c, 11, 58, 111
19, 189600, Note_on_c, 11, 53, 111
19, 189600, Note_on_c, 11, 46, 111
19, 192000, Note_off_c, 11, 46, 111
19, 192000, Note_off_c, 11, 53, 111
19, 192000, Note_off_c, 11, 58, 111
19, 192000, Note_off_c, 11, 62, 111
19, 192000, Note_off_c, 11, 65, 111
19, 192000, Note_on_c, 11, 62, 95
19, 192000, Note_on_c, 11, 58, 95
19, 192000, Note_on_c, 11, 53, 95
19, 192000, Note_on_c, 11, 46, 95
19, 192480, Note_off_c, 11, 46, 95
19, 192480, Note_off_c, 11, 53, 95
19, 192480, Note_off_c, 11, 58, 95
19, 192480, Note_off_c, 11, 62, 95
19, 192480, Note_on_c, 11, 70, 95
19, 192480, Note_on_c, 11, 68, 95
19, 192480, Note_on_c, 11, 62, 95
19, 192480, Note_on_c, 11, 58, 95
19, 192720, Note_off_c, 11, 58, 95
19, 192720, Note_off_c, 11, 62, 95
19, 192720, Note_off_c, 11, 68, 95
19, 192720, Note_off_c, 11, 70, 95
19, 192960, Note_on_c, 11, 59, 95
19, 192960, Note_on_c, 11, 55, 95
19, 192960, Note_on_c, 11, 50, 95
19, 193008, Note_off_c, 11, 50, 95
19, 193008, Note_off_c, 11, 55, 95
19, 193008, Note_off_c, 11, 59, 95
19, 193200, Note_on_c, 11, 70, 95
19, 193200, Note_on_c, 11, 68, 95
19, 193200, Note_on_c, 11, 62, 95
19, 193200, Note_on_c, 11, 58, 95
19, 193440, Note_off_c, 11, 58, 95
19, 193440, Note_off_c, 11, 62, 95
19, 193440, Note_off_c, 11, 68, 95
19, 193440, Note_off_c, 11, 70, 95
19, 193680, Note_on_c, 11, 70, 95
19, 193680, Note_on_c, 11, 68, 95
19, 193680, Note_on_c, 11, 62, 95
19, 193680, Note_on_c, 11, 58, 95
19, 193920, Note_off_c, 11, 58, 95
19, 193920, Note_off_c, 11, 62, 95
19, 193920, Note_off_c, 11, 68, 95
19, 193920, Note_off_c, 11, 70, 95
19, 194160, Note_on_c, 11, 70, 95
19, 194160, Note_on_c, 11, 68, 95
19, 194160, Note_on_c, 11, 62, 95
19, 194160, Note_on_c, 11, 58, 95
19, 194400, Note_off_c, 11, 58, 95
19, 194400, Note_off_c, 11, 62, 95
19, 194400, Note_off_c, 11, 68, 95
19, 194400, Note_off_c, 11, 70, 95
19, 194640, Note_on_c, 11, 68, 95
19, 194640, Note_on_c, 11, 63, 95
19, 194640, Note_on_c, 11, 60, 95
19, 194640, Note_on_c, 11, 56, 95
19, 194640, Note_on_c, 11, 51, 95
19, 194880, Note_off_c, 11, 51, 95
19, 194880, Note_off_c, 11, 56, 95
19, 194880, Note_off_c, 11, 60, 95
19, 194880, Note_off_c, 11, 63, 95
19, 194880, Note_off_c, 11, 68, 95
19, 194880, Note_on_c, 11, 68, 95
19, 194880, Note_on_c, 11, 63, 95
19, 194880, Note_on_c, 11, 60, 95
19, 194880, Note_on_c, 11, 56, 95
19, 194880, Note_on_c, 11, 51, 95
19, 195120, Note_off_c, 11, 51, 95
19, 195120, Note_off_c, 11, 56, 95
19, 195120, Note_off_c, 11, 60, 95
19, 195120, Note_off_c, 11, 63, 95
19, 195120, Note_off_c, 11, 68, 95
19, 195120, Note_on_c, 11, 67, 95
19, 195120, Note_on_c, 11, 63, 95
19, 195120, Note_on_c, 11, 58, 95
19, 195120, Note_on_c, 11, 51, 95
19, 195360, Note_off_c, 11, 51, 95
19, 195360, Note_off_c, 11, 58, 95
19, 195360, Note_off_c, 11, 63, 95
19, 195360, Note_off_c, 11, 67, 95
19, 195360, Note_on_c, 11, 67, 95
19, 195360, Note_on_c, 11, 63, 95
19, 195360, Note_on_c, 11, 58, 95
19, 195360, Note_on_c, 11, 51, 95
19, 195600, Note_off_c, 11, 51, 95
19, 195600, Note_off_c, 11, 58, 95
19, 195600, Note_off_c, 11, 63, 95
19, 195600, Note_off_c, 11, 67, 95
19, 195600, Note_on_c, 11, 62, 47
19, 195600, Note_on_c, 11, 58, 47
19, 195600, Note_on_c, 11, 53, 47
19, 195840, Note_off_c, 11, 53, 47
19, 195840, Note_off_c, 11, 58, 47
19, 195840, Note_off_c, 11, 62, 47
19, 195840, Note_on_c, 11, 62, 95
19, 195840, Note_on_c, 11, 58, 95
19, 195840, Note_on_c, 11, 53, 95
19, 195840, Note_on_c, 11, 46, 95
19, 196320, Note_off_c, 11, 46, 95
19, 196320, Note_off_c, 11, 53, 95
19, 196320, Note_off_c, 11, 58, 95
19, 196320, Note_off_c, 11, 62, 95
19, 196320, Note_on_c, 11, 70, 95
19, 196320, Note_on_c, 11, 68, 95
19, 196320, Note_on_c, 11, 62, 95
19, 196320, Note_on_c, 11, 58, 95
19, 196560, Note_off_c, 11, 58, 95
19, 196560, Note_off_c, 11, 62, 95
19, 196560, Note_off_c, 11, 68, 95
19, 196560, Note_off_c, 11, 70, 95
19, 196800, Note_on_c, 11, 59, 95
19, 196800, Note_on_c, 11, 55, 95
19, 196800, Note_on_c, 11, 50, 95
19, 196848, Note_off_c, 11, 50, 95
19, 196848, Note_off_c, 11, 55, 95
19, 196848, Note_off_c, 11, 59, 95
19, 197040, Note_on_c, 11, 70, 95
19, 197040, Note_on_c, 11, 68, 95
19, 197040, Note_on_c, 11, 62, 95
19, 197040, Note_on_c, 11, 58, 95
19, 197280, Note_off_c, 11, 58, 95
19, 197280, Note_off_c, 11, 62, 95
19, 197280, Note_off_c, 11, 68, 95
19, 197280, Note_off_c, 11, 70, 95
19, 197520, Note_on_c, 11, 70, 95
19, 197520, Note_on_c, 11, 68, 95
19, 197520, Note_on_c, 11, 62, 95
19, 197520, Note_on_c, 11, 58, 95
19, 197760, Note_off_c, 11, 58, 95
19, 197760, Note_off_c, 11, 62, 95
19, 197760, Note_off_c, 11, 68, 95
19, 197760, Note_off_c, 11, 70, 95
19, 198000, Note_on_c, 11, 70, 95
19, 198000, Note_on_c, 11, 68, 95
19, 198000, Note_on_c, 11, 62, 95
19, 198000, Note_on_c, 11, 58, 95
19, 198240, Note_off_c, 11, 58, 95
19, 198240, Note_off_c, 11, 62, 95
19, 198240, Note_off_c, 11, 68, 95
19, 198240, Note_off_c, 11, 70, 95
19, 198480, Note_on_c, 11, 68, 95
19, 198480, Note_on_c, 11, 63, 95
19, 198480, Note_on_c, 11, 60, 95
19, 198480, Note_on_c, 11, 56, 95
19, 198480, Note_on_c, 11, 51, 95
19, 198720, Note_off_c, 11, 51, 95
19, 198720, Note_off_c, 11, 56, 95
19, 198720, Note_off_c, 11, 60, 95
19, 198720, Note_off_c, 11, 63, 95
19, 198720, Note_off_c, 11, 68, 95
19, 198720, Note_on_c, 11, 68, 95
19, 198720, Note_on_c, 11, 63, 95
19, 198720, Note_on_c, 11, 60, 95
19, 198720, Note_on_c, 11, 56, 95
19, 198720, Note_on_c, 11, 51, 95
19, 198960, Note_off_c, 11, 51, 95
19, 198960, Note_off_c, 11, 56, 95
19, 198960, Note_off_c, 11, 60, 95
19, 198960, Note_off_c, 11, 63, 95
19, 198960, Note_off_c, 11, 68, 95
19, 198960, Note_on_c, 11, 67, 95
19, 198960, Note_on_c, 11, 63, 95
19, 198960, Note_on_c, 11, 58, 95
19, 198960, Note_on_c, 11, 51, 95
19, 199200, Note_off_c, 11, 51, 95
19, 199200, Note_off_c, 11, 58, 95
19, 199200, Note_off_c, 11, 63, 95
19, 199200, Note_off_c, 11, 67, 95
19, 199200, Note_on_c, 11, 67, 95
19, 199200, Note_on_c, 11, 63, 95
19, 199200, Note_on_c, 11, 58, 95
19, 199200, Note_on_c, 11, 51, 95
19, 199440, Note_off_c, 11, 51, 95
19, 199440, Note_off_c, 11, 58, 95
19, 199440, Note_off_c, 11, 63, 95
19, 199440, Note_off_c, 11, 67, 95
19, 199440, Note_on_c, 11, 62, 47
19, 199440, Note_on_c, 11, 58, 47
19, 199440, Note_on_c, 11, 53, 47
19, 199680, Note_off_c, 11, 53, 47
19, 199680, Note_off_c, 11, 58, 47
19, 199680, Note_off_c, 11, 62, 47
19, 199680, Note_on_c, 11, 62, 95
19, 199680, Note_on_c, 11, 58, 95
19, 199680, Note_on_c, 11, 53, 95
19, 199680, Note_on_c, 11, 46, 95
19, 200160, Note_off_c, 11, 46, 95
19, 200160, Note_off_c, 11, 53, 95
19, 200160, Note_off_c, 11, 58, 95
19, 200160, Note_off_c, 11, 62, 95
19, 200160, Note_on_c, 11, 70, 95
19, 200160, Note_on_c, 11, 68, 95
19, 200160, Note_on_c, 11, 62, 95
19, 200160, Note_on_c, 11, 58, 95
19, 200400, Note_off_c, 11, 58, 95
19, 200400, Note_off_c, 11, 62, 95
19, 200400, Note_off_c, 11, 68, 95
19, 200400, Note_off_c, 11, 70, 95
19, 200640, Note_on_c, 11, 59, 95
19, 200640, Note_on_c, 11, 55, 95
19, 200640, Note_on_c, 11, 50, 95
19, 200688, Note_off_c, 11, 50, 95
19, 200688, Note_off_c, 11, 55, 95
19, 200688, Note_off_c, 11, 59, 95
19, 200880, Note_on_c, 11, 70, 95
19, 200880, Note_on_c, 11, 68, 95
19, 200880, Note_on_c, 11, 62, 95
19, 200880, Note_on_c, 11, 58, 95
19, 201120, Note_off_c, 11, 58, 95
19, 201120, Note_off_c, 11, 62, 95
19, 201120, Note_off_c, 11, 68, 95
19, 201120, Note_off_c, 11, 70, 95
19, 201360, Note_on_c, 11, 70, 95
19, 201360, Note_on_c, 11, 68, 95
19, 201360, Note_on_c, 11, 62, 95
19, 201360, Note_on_c, 11, 58, 95
19, 201600, Note_off_c, 11, 58, 95
19, 201600, Note_off_c, 11, 62, 95
19, 201600, Note_off_c, 11, 68, 95
19, 201600, Note_off_c, 11, 70, 95
19, 201840, Note_on_c, 11, 70, 95
19, 201840, Note_on_c, 11, 68, 95
19, 201840, Note_on_c, 11, 62, 95
19, 201840, Note_on_c, 11, 58, 95
19, 202080, Note_off_c, 11, 58, 95
19, 202080, Note_off_c, 11, 62, 95
19, 202080, Note_off_c, 11, 68, 95
19, 202080, Note_off_c, 11, 70, 95
19, 202320, Note_on_c, 11, 68, 95
19, 202320, Note_on_c, 11, 63, 95
19, 202320, Note_on_c, 11, 60, 95
19, 202320, Note_on_c, 11, 56, 95
19, 202320, Note_on_c, 11, 51, 95
19, 202560, Note_off_c, 11, 51, 95
19, 202560, Note_off_c, 11, 56, 95
19, 202560, Note_off_c, 11, 60, 95
19, 202560, Note_off_c, 11, 63, 95
19, 202560, Note_off_c, 11, 68, 95
19, 202560, Note_on_c, 11, 68, 95
19, 202560, Note_on_c, 11, 63, 95
19, 202560, Note_on_c, 11, 60, 95
19, 202560, Note_on_c, 11, 56, 95
19, 202560, Note_on_c, 11, 51, 95
19, 202800, Note_off_c, 11, 51, 95
19, 202800, Note_off_c, 11, 56, 95
19, 202800, Note_off_c, 11, 60, 95
19, 202800, Note_off_c, 11, 63, 95
19, 202800, Note_off_c, 11, 68, 95
19, 202800, Note_on_c, 11, 67, 95
19, 202800, Note_on_c, 11, 63, 95
19, 202800, Note_on_c, 11, 58, 95
19, 202800, Note_on_c, 11, 51, 95
19, 203040, Note_off_c, 11, 51, 95
19, 203040, Note_off_c, 11, 58, 95
19, 203040, Note_off_c, 11, 63, 95
19, 203040, Note_off_c, 11, 67, 95
19, 203040, Note_on_c, 11, 67, 95
19, 203040, Note_on_c, 11, 63, 95
19, 203040, Note_on_c, 11, 58, 95
19, 203040, Note_on_c, 11, 51, 95
19, 203280, Note_off_c, 11, 51, 95
19, 203280, Note_off_c, 11, 58, 95
19, 203280, Note_off_c, 11, 63, 95
19, 203280, Note_off_c, 11, 67, 95
19, 203280, Note_on_c, 11, 62, 47
19, 203280, Note_on_c, 11, 58, 47
19, 203280, Note_on_c, 11, 53, 47
19, 203520, Note_off_c, 11, 53, 47
19, 203520, Note_off_c, 11, 58, 47
19, 203520, Note_off_c, 11, 62, 47
19, 207360, Sequencer_specific, 3, 5, 15, 10
19, 207360, End_track
20, 0, Start_track
20, 0, Sequencer_specific, 5, 5, 15, 9, 12, 64
20, 0, Sequencer_specific, 15, 5, 15, 6, 71, 101, 110, 101, 114, 97, 108, 32, 77, 73, 68, 73
20, 0, Title_t, "Electric Guitar (muted)"
20, 0, Control_c, 3, 7, 40
20, 0, Program_c, 3, 28
20, 0, Sequencer_specific, 4, 5, 15, 10, 1
20, 0, Key_signature, -2, "major"
20, 211200, Note_on_c, 3, 62, 95
20, 211200, Note_on_c, 3, 58, 95
20, 211200, Note_on_c, 3, 53, 95
20, 211200, Note_on_c, 3, 46, 95
20, 211680, Note_off_c, 3, 46, 95
20, 211680, Note_off_c, 3, 53, 95
20, 211680, Note_off_c, 3, 58, 95
20, 211680, Note_off_c, 3, 62, 95
20, 211680, Note_on_c, 3, 70, 95
20, 211680, Note_on_c, 3, 68, 95
20, 211680, Note_on_c, 3, 62, 95
20, 211680, Note_on_c, 3, 58, 95
20, 211920, Note_off_c, 3, 58, 95
20, 211920, Note_off_c, 3, 62, 95
20, 211920, Note_off_c, 3, 68, 95
20, 211920, Note_off_c, 3, 70, 95
20, 212160, Note_on_c, 3, 59, 95
20, 212160, Note_on_c, 3, 55, 95
20, 212160, Note_on_c, 3, 50, 95
20, 212208, Note_off_c, 3, 50, 95
20, 212208, Note_off_c, 3, 55, 95
20, 212208, Note_off_c, 3, 59, 95
20, 212400, Note_on_c, 3, 70, 95
20, 212400, Note_on_c, 3, 68, 95
20, 212400, Note_on_c, 3, 62, 95
20, 212400, Note_on_c, 3, 58, 95
20, 212640, Note_off_c, 3, 58, 95
20, 212640, Note_off_c, 3, 62, 95
20, 212640, Note_off_c, 3, 68, 95
20, 212640, Note_off_c, 3, 70, 95
20, 212880, Note_on_c, 3, 70, 95
20, 212880, Note_on_c, 3, 68, 95
20, 212880, Note_on_c, 3, 62, 95
20, 212880, Note_on_c, 3, 58, 95
20, 213120, Note_off_c, 3, 58, 95
20, 213120, Note_off_c, 3, 62, 95
20, 213120, Note_off_c, 3, 68, 95
20, 213120, Note_off_c, 3, 70, 95
20, 213360, Note_on_c, 3, 70, 95
20, 213360, Note_on_c, 3, 68, 95
20, 213360, Note_on_c, 3, 62, 95
20, 213360, Note_on_c, 3, 58, 95
20, 213600, Note_off_c, 3, 58, 95
20, 213600, Note_off_c, 3, 62, 95
20, 213600, Note_off_c, 3, 68, 95
20, 213600, Note_off_c, 3, 70, 95
20, 213840, Note_on_c, 3, 68, 95
20, 213840, Note_on_c, 3, 63, 95
20, 213840, Note_on_c, 3, 60, 95
20, 213840, Note_on_c, 3, 56, 95
20, 213840, Note_on_c, 3, 51, 95
20, 214080, Note_off_c, 3, 51, 95
20, 214080, Note_off_c, 3, 56, 95
20, 214080, Note_off_c, 3, 60, 95
20, 214080, Note_off_c, 3, 63, 95
20, 214080, Note_off_c, 3, 68, 95
20, 214080, Note_on_c, 3, 68, 95
20, 214080, Note_on_c, 3, 63, 95
20, 214080, Note_on_c, 3, 60, 95
20, 214080, Note_on_c, 3, 56, 95
20, 214080, Note_on_c, 3, 51, 95
20, 214320, Note_off_c, 3, 51, 95
20, 214320, Note_off_c, 3, 56, 95
20, 214320, Note_off_c, 3, 60, 95
20, 214320, Note_off_c, 3, 63, 95
20, 214320, Note_off_c, 3, 68, 95
20, 214320, Note_on_c, 3, 67, 95
20, 214320, Note_on_c, 3, 63, 95
20, 214320, Note_on_c, 3, 58, 95
20, 214320, Note_on_c, 3, 51, 95
20, 214560, Note_off_c, 3, 51, 95
20, 214560, Note_off_c, 3, 58, 95
20, 214560, Note_off_c, 3, 63, 95
20, 214560, Note_off_c, 3, 67, 95
20, 214560, Note_on_c, 3, 67, 95
20, 214560, Note_on_c, 3, 63, 95
20, 214560, Note_on_c, 3, 58, 95
20, 214560, Note_on_c, 3, 51, 95
20, 214800, Note_off_c, 3, 51, 95
20, 214800, Note_off_c, 3, 58, 95
20, 214800, Note_off_c, 3, 63, 95
20, 214800, Note_off_c, 3, 67, 95
20, 214800, Note_on_c, 3, 62, 47
20, 214800, Note_on_c, 3, 58, 47
20, 214800, Note_on_c, 3, 53, 47
20, 215040, Note_off_c, 3, 53, 47
20, 215040, Note_off_c, 3, 58, 47
20, 215040, Note_off_c, 3, 62, 47
20, 215040, Note_on_c, 3, 62, 95
20, 215040, Note_on_c, 3, 58, 95
20, 215040, Note_on_c, 3, 53, 95
20, 215040, Note_on_c, 3, 46, 95
20, 215520, Note_off_c, 3, 46, 95
20, 215520, Note_off_c, 3, 53, 95
20, 215520, Note_off_c, 3, 58, 95
20, 215520, Note_off_c, 3, 62, 95
20, 215520, Note_on_c, 3, 70, 95
20, 215520, Note_on_c, 3, 68, 95
20, 215520, Note_on_c, 3, 62, 95
20, 215520, Note_on_c, 3, 58, 95
20, 215760, Note_off_c, 3, 58, 95
20, 215760, Note_off_c, 3, 62, 95
20, 215760, Note_off_c, 3, 68, 95
20, 215760, Note_off_c, 3, 70, 95
20, 216000, Note_on_c, 3, 59, 95
20, 216000, Note_on_c, 3, 55, 95
20, 216000, Note_on_c, 3, 50, 95
20, 216048, Note_off_c, 3, 50, 95
20, 216048, Note_off_c, 3, 55, 95
20, 216048, Note_off_c, 3, 59, 95
20, 216240, Note_on_c, 3, 70, 95
20, 216240, Note_on_c, 3, 68, 95
20, 216240, Note_on_c, 3, 62, 95
20, 216240, Note_on_c, 3, 58, 95
20, 216480, Note_off_c, 3, 58, 95
20, 216480, Note_off_c, 3, 62, 95
20, 216480, Note_off_c, 3, 68, 95
20, 216480, Note_off_c, 3, 70, 95
20, 216720, Note_on_c, 3, 70, 95
20, 216720, Note_on_c, 3, 68, 95
20, 216720, Note_on_c, 3, 62, 95
20, 216720, Note_on_c, 3, 58, 95
20, 216960, Note_off_c, 3, 58, 95
20, 216960, Note_off_c, 3, 62, 95
20, 216960, Note_off_c, 3, 68, 95
20, 216960, Note_off_c, 3, 70, 95
20, 217200, Note_on_c, 3, 70, 95
20, 217200, Note_on_c, 3, 68, 95
20, 217200, Note_on_c, 3, 62, 95
20, 217200, Note_on_c, 3, 58, 95
20, 217440, Note_off_c, 3, 58, 95
20, 217440, Note_off_c, 3, 62, 95
20, 217440, Note_off_c, 3, 68, 95
20, 217440, Note_off_c, 3, 70, 95
20, 217680, Note_on_c, 3, 68, 95
20, 217680, Note_on_c, 3, 63, 95
20, 217680, Note_on_c, 3, 60, 95
20, 217680, Note_on_c, 3, 56, 95
20, 217680, Note_on_c, 3, 51, 95
20, 217920, Note_off_c, 3, 51, 95
20, 217920, Note_off_c, 3, 56, 95
20, 217920, Note_off_c, 3, 60, 95
20, 217920, Note_off_c, 3, 63, 95
20, 217920, Note_off_c, 3, 68, 95
20, 217920, Note_on_c, 3, 68, 95
20, 217920, Note_on_c, 3, 63, 95
20, 217920, Note_on_c, 3, 60, 95
20, 217920, Note_on_c, 3, 56, 95
20, 217920, Note_on_c, 3, 51, 95
20, 218160, Note_off_c, 3, 51, 95
20, 218160, Note_off_c, 3, 56, 95
20, 218160, Note_off_c, 3, 60, 95
20, 218160, Note_off_c, 3, 63, 95
20, 218160, Note_off_c, 3, 68, 95
20, 218160, Note_on_c, 3, 67, 95
20, 218160, Note_on_c, 3, 63, 95
20, 218160, Note_on_c, 3, 58, 95
20, 218160, Note_on_c, 3, 51, 95
20, 218400, Note_off_c, 3, 51, 95
20, 218400, Note_off_c, 3, 58, 95
20, 218400, Note_off_c, 3, 63, 95
20, 218400, Note_off_c, 3, 67, 95
20, 218400, Note_on_c, 3, 67, 95
20, 218400, Note_on_c, 3, 63, 95
20, 218400, Note_on_c, 3, 58, 95
20, 218400, Note_on_c, 3, 51, 95
20, 218640, Note_off_c, 3, 51, 95
20, 218640, Note_off_c, 3, 58, 95
20, 218640, Note_off_c, 3, 63, 95
20, 218640, Note_off_c, 3, 67, 95
20, 218640, Note_on_c, 3, 62, 47
20, 218640, Note_on_c, 3, 58, 47
20, 218640, Note_on_c, 3, 53, 47
20, 218880, Note_off_c, 3, 53, 47
20, 218880, Note_off_c, 3, 58, 47
20, 218880, Note_off_c, 3, 62, 47
20, 222720, Sequencer_specific, 3, 5, 15, 10
20, 222720, End_track
21, 0, Start_track
21, 0, Sequencer_specific, 5, 5, 15, 9, 12, 64
21, 0, Sequencer_specific, 15, 5, 15, 6, 71, 101, 110, 101, 114, 97, 108, 32, 77, 73, 68, 73
21, 0, Title_t, "Brass Section"
21, 0, Control_c, 14, 7, 41
21, 0, Program_c, 14, 61
21, 0, Sequencer_specific, 4, 5, 15, 10, 1
21, 0, Key_signature, -2, "major"
21, 207360, Sequencer_specific, 3, 5, 15, 10
21, 211200, Note_on_c, 14, 77, 95
21, 211200, Note_on_c, 14, 65, 95
21, 211440, Note_off_c, 14, 65, 95
21, 211440, Note_off_c, 14, 77, 95
21, 211440, Note_on_c, 14, 82, 95
21, 211440, Note_on_c, 14, 70, 95
21, 211680, Note_off_c, 14, 70, 95
21, 211680, Note_off_c, 14, 82, 95
21, 211680, Note_on_c, 14, 82, 95
21, 211680, Note_on_c, 14, 70, 95
21, 211920, Note_off_c, 14, 70, 95
21, 211920, Note_off_c, 14, 82, 95
21, 211920, Note_on_c, 14, 82, 95
21, 211920, Note_on_c, 14, 70, 95
21, 212160, Note_off_c, 14, 70, 95
21, 212160, Note_off_c, 14, 82, 95
21, 212400, Note_on_c, 14, 82, 95
21, 212400, Note_on_c, 14, 70, 95
21, 212640, Note_off_c, 14, 70, 95
21, 212640, Note_off_c, 14, 82, 95
21, 212640, Note_on_c, 14, 82, 95
21, 212640, Note_on_c, 14, 70, 95
21, 212880, Note_off_c, 14, 70, 95
21, 212880, Note_off_c, 14, 82, 95
21, 212880, Note_on_c, 14, 82, 95
21, 212880, Note_on_c, 14, 70, 95
21, 213120, Note_off_c, 14, 70, 95
21, 213120, Note_off_c, 14, 82, 95
21, 213360, Note_on_c, 14, 82, 47
21, 213360, Note_on_c, 14, 70, 47
21, 213600, Note_off_c, 14, 70, 47
21, 213600, Note_off_c, 14, 82, 47
21, 213600, Note_on_c, 14, 82, 95
21, 213600, Note_on_c, 14, 70, 95
21, 213840, Note_off_c, 14, 70, 95
21, 213840, Note_off_c, 14, 82, 95
21, 213840, Note_on_c, 14, 82, 95
21, 213840, Note_on_c, 14, 70, 95
21, 214560, Note_off_c, 14, 70, 95
21, 214560, Note_off_c, 14, 82, 95
21, 215040, Note_on_c, 14, 77, 95
21, 215040, Note_on_c, 14, 65, 95
21, 215280, Note_off_c, 14, 65, 95
21, 215280, Note_off_c, 14, 77, 95
21, 215280, Note_on_c, 14, 82, 95
21, 215280, Note_on_c, 14, 70, 95
21, 215520, Note_off_c, 14, 70, 95
21, 215520, Note_off_c, 14, 82, 95
21, 215520, Note_on_c, 14, 82, 95
21, 215520, Note_on_c, 14, 70, 95
21, 215760, Note_off_c, 14, 70, 95
21, 215760, Note_off_c, 14, 82, 95
21, 215760, Note_on_c, 14, 82, 95
21, 215760, Note_on_c, 14, 70, 95
21, 216000, Note_off_c, 14, 70, 95
21, 216000, Note_off_c, 14, 82, 95
21, 216240, Note_on_c, 14, 82, 95
21, 216240, Note_on_c, 14, 70, 95
21, 216480, Note_off_c, 14, 70, 95
21, 216480, Note_off_c, 14, 82, 95
21, 216480, Note_on_c, 14, 82, 95
21, 216480, Note_on_c, 14, 70, 95
21, 216720, Note_off_c, 14, 70, 95
21, 216720, Note_off_c, 14, 82, 95
21, 216720, Note_on_c, 14, 82, 95
21, 216720, Note_on_c, 14, 70, 95
21, 216960, Note_off_c, 14, 70, 95
21, 216960, Note_off_c, 14, 82, 95
21, 217200, Note_on_c, 14, 82, 47
21, 217200, Note_on_c, 14, 70, 47
21, 217440, Note_off_c, 14, 70, 47
21, 217440, Note_off_c, 14, 82, 47
21, 217440, Note_on_c, 14, 82, 95
21, 217440, Note_on_c, 14, 70, 95
21, 217680, Note_off_c, 14, 70, 95
21, 217680, Note_off_c, 14, 82, 95
21, 217680, Note_on_c, 14, 82, 95
21, 217680, Note_on_c, 14, 70, 95
21, 218400, Note_off_c, 14, 70, 95
21, 218400, Note_off_c, 14, 82, 95
21, 218880, Sequencer_specific, 3, 5, 15, 10
21, 218880, End_track
22, 0, Start_track
22, 0, Sequencer_specific, 5, 5, 15, 9, 76, 72
22, 0, Sequencer_specific, 15, 5, 15, 6, 71, 101, 110, 101, 114, 97, 108, 32, 77, 73, 68, 73
22, 0, Title_t, "Slap Bass 2"
22, 0, Control_c, 15, 7, 43
22, 0, Program_c, 15, 37
22, 0, Sequencer_specific, 4, 5, 15, 10, 1
22, 0, Key_signature, -2, "major"
22, 211200, Note_on_c, 15, 46, 95
22, 211680, Note_on_c, 15, 62, 95
22, 211680, Note_on_c, 15, 58, 95
22, 211680, Note_on_c, 15, 53, 95
22, 212160, Note_off_c, 15, 53, 95
22, 212160, Note_off_c, 15, 58, 95
22, 212160, Note_off_c, 15, 62, 95
22, 212160, Note_off_c, 15, 46, 95
22, 212160, Note_on_c, 15, 62, 95
22, 212160, Note_on_c, 15, 58, 95
22, 212160, Note_on_c, 15, 53, 95
22, 213120, Note_off_c, 15, 53, 95
22, 213120, Note_off_c, 15, 58, 95
22, 213120, Note_off_c, 15, 62, 95
22, 213120, Note_on_c, 15, 46, 95
22, 213600, Note_off_c, 15, 46, 95
22, 213600, Note_on_c, 15, 62, 95
22, 213600, Note_on_c, 15, 58, 95
22, 213600, Note_on_c, 15, 53, 95
22, 213600, Note_on_c, 15, 41, 95
22, 213840, Note_off_c, 15, 41, 95
22, 213840, Note_off_c, 15, 53, 95
22, 213840, Note_off_c, 15, 58, 95
22, 213840, Note_off_c, 15, 62, 95
22, 213840, Note_on_c, 15, 62, 95
22, 213840, Note_on_c, 15, 58, 95
22, 213840, Note_on_c, 15, 53, 95
22, 213840, Note_on_c, 15, 41, 95
22, 214320, Note_off_c, 15, 41, 95
22, 214320, Note_off_c, 15, 53, 95
22, 214320, Note_off_c, 15, 58, 95
22, 214320, Note_off_c, 15, 62, 95
22, 214320, Note_on_c, 15, 62, 95
22, 214320, Note_on_c, 15, 58, 95
22, 214320, Note_on_c, 15, 53, 95
22, 214560, Note_off_c, 15, 53, 95
22, 214560, Note_off_c, 15, 58, 95
22, 214560, Note_off_c, 15, 62, 95
22, 214560, Note_on_c, 15, 62, 95
22, 214560, Note_on_c, 15, 58, 95
22, 214560, Note_on_c, 15, 53, 95
22, 214560, Note_on_c, 15, 41, 95
22, 215040, Note_off_c, 15, 41, 95
22, 215040, Note_off_c, 15, 53, 95
22, 215040, Note_off_c, 15, 58, 95
22, 215040, Note_off_c, 15, 62, 95
22, 215040, Note_on_c, 15, 46, 95
22, 215520, Note_on_c, 15, 62, 95
22, 215520, Note_on_c, 15, 58, 95
22, 215520, Note_on_c, 15, 53, 95
22, 216000, Note_off_c, 15, 53, 95
22, 216000, Note_off_c, 15, 58, 95
22, 216000, Note_off_c, 15, 62, 95
22, 216000, Note_off_c, 15, 46, 95
22, 216000, Note_on_c, 15, 62, 95
22, 216000, Note_on_c, 15, 58, 95
22, 216000, Note_on_c, 15, 53, 95
22, 216960, Note_off_c, 15, 53, 95
22, 216960, Note_off_c, 15, 58, 95
22, 216960, Note_off_c, 15, 62, 95
22, 216960, Note_on_c, 15, 46, 95
22, 217440, Note_off_c, 15, 46, 95
22, 217440, Note_on_c, 15, 62, 95
22, 217440, Note_on_c, 15, 58, 95
22, 217440, Note_on_c, 15, 53, 95
22, 217440, Note_on_c, 15, 41, 95
22, 217680, Note_off_c, 15, 41, 95
22, 217680, Note_off_c, 15, 53, 95
22, 217680, Note_off_c, 15, 58, 95
22, 217680, Note_off_c, 15, 62, 95
22, 217680, Note_on_c, 15, 62, 95
22, 217680, Note_on_c, 15, 58, 95
22, 217680, Note_on_c, 15, 53, 95
22, 217680, Note_on_c, 15, 41, 95
22, 218160, Note_off_c, 15, 41, 95
22, 218160, Note_off_c, 15, 53, 95
22, 218160, Note_off_c, 15, 58, 95
22, 218160, Note_off_c, 15, 62, 95
22, 218160, Note_on_c, 15, 62, 95
22, 218160, Note_on_c, 15, 58, 95
22, 218160, Note_on_c, 15, 53, 95
22, 218400, Note_off_c, 15, 53, 95
22, 218400, Note_off_c, 15, 58, 95
22, 218400, Note_off_c, 15, 62, 95
22, 218400, Note_on_c, 15, 62, 95
22, 218400, Note_on_c, 15, 58, 95
22, 218400, Note_on_c, 15, 53, 95
22, 218400, Note_on_c, 15, 41, 95
22, 218880, Note_off_c, 15, 41, 95
22, 218880, Note_off_c, 15, 53, 95
22, 218880, Note_off_c, 15, 58, 95
22, 218880, Note_off_c, 15, 62, 95
22, 222720, Sequencer_specific, 3, 5, 15, 10
22, 222720, End_track
23, 0, Start_track
23, 0, Sequencer_specific, 5, 5, 15, 9, 12, 64
23, 0, Sequencer_specific, 15, 5, 15, 6, 71, 101, 110, 101, 114, 97, 108, 32, 77, 73, 68, 73
23, 0, Title_t, "Brass Section"
23, 0, Control_c, 14, 7, 17
23, 0, Program_c, 14, 61
23, 0, Key_signature, -2, "major"
23, 218880, Note_on_c, 14, 77, 95
23, 218880, Note_on_c, 14, 65, 95
23, 219120, Note_off_c, 14, 65, 95
23, 219120, Note_off_c, 14, 77, 95
23, 219120, Note_on_c, 14, 82, 95
23, 219120, Note_on_c, 14, 70, 95
23, 219360, Note_off_c, 14, 70, 95
23, 219360, Note_off_c, 14, 82, 95
23, 219360, Note_on_c, 14, 82, 95
23, 219360, Note_on_c, 14, 70, 95
23, 219600, Note_off_c, 14, 70, 95
23, 219600, Note_off_c, 14, 82, 95
23, 219600, Note_on_c, 14, 82, 95
23, 219600, Note_on_c, 14, 70, 95
23, 219840, Note_off_c, 14, 70, 95
23, 219840, Note_off_c, 14, 82, 95
23, 220080, Note_on_c, 14, 82, 95
23, 220080, Note_on_c, 14, 70, 95
23, 220320, Note_off_c, 14, 70, 95
23, 220320, Note_off_c, 14, 82, 95
23, 220320, Note_on_c, 14, 82, 95
23, 220320, Note_on_c, 14, 70, 95
23, 220560, Note_off_c, 14, 70, 95
23, 220560, Note_off_c, 14, 82, 95
23, 220560, Note_on_c, 14, 82, 95
23, 220560, Note_on_c, 14, 70, 95
23, 220800, Note_off_c, 14, 70, 95
23, 220800, Note_off_c, 14, 82, 95
23, 221040, Note_on_c, 14, 82, 47
23, 221040, Note_on_c, 14, 70, 47
23, 221280, Note_off_c, 14, 70, 47
23, 221280, Note_off_c, 14, 82, 47
23, 221280, Note_on_c, 14, 82, 95
23, 221280, Note_on_c, 14, 70, 95
23, 221520, Note_off_c, 14, 70, 95
23, 221520, Note_off_c, 14, 82, 95
23, 221520, Note_on_c, 14, 82, 95
23, 221520, Note_on_c, 14, 70, 95
23, 222240, Note_off_c, 14, 70, 95
23, 222240, Note_off_c, 14, 82, 95
23, 222720, Sequencer_specific, 3, 5, 15, 10
23, 222720, End_track
0, 0, End_of_file
