0, 0, Header, 1, 9, 384
1, 0, Start_track
1, 0, Tempo, 857106
1, 0, Time_signature, 4, 2, 24, 8
1, 116736, End_track
2, 0, Start_track
2, 0, Title_t, "Partout J"
2, 1536, End_track
3, 0, Start_track
3, 0, Title_t, "Fretless "
3, 32, Control_c, 0, 120, 0
3, 64, Control_c, 0, 121, 0
3, 96, Control_c, 0, 11, 127
3, 128, Control_c, 0, 121, 0
3, 160, Control_c, 0, 0, 0
3, 192, Control_c, 0, 32, 0
3, 224, Program_c, 0, 33
3, 256, Control_c, 0, 7, 120
3, 288, Control_c, 0, 10, 64
3, 320, Control_c, 0, 91, 30
3, 352, Control_c, 0, 93, 30
3, 384, Control_c, 0, 101, 0
3, 416, Control_c, 0, 100, 0
3, 448, Control_c, 0, 6, 2
3, 1536, Note_on_c, 0, 28, 113
3, 2276, Note_off_c, 0, 28, 64
3, 2304, Note_on_c, 0, 33, 108
3, 2672, Note_off_c, 0, 33, 64
3, 2688, Note_on_c, 0, 32, 111
3, 2796, Note_off_c, 0, 32, 64
3, 2880, Note_on_c, 0, 35, 118
3, 3644, Note_off_c, 0, 35, 64
3, 3648, Note_on_c, 0, 30, 105
3, 3840, Note_on_c, 0, 28, 121
3, 3848, Note_off_c, 0, 30, 64
3, 4224, Note_on_c, 0, 32, 106
3, 4244, Note_off_c, 0, 28, 64
3, 4408, Note_off_c, 0, 32, 64
3, 4416, Note_on_c, 0, 33, 116
3, 4944, Note_off_c, 0, 33, 64
3, 4992, Note_on_c, 0, 33, 107
3, 5132, Note_off_c, 0, 33, 64
3, 5184, Note_on_c, 0, 33, 113
3, 5368, Note_off_c, 0, 33, 64
3, 5376, Note_on_c, 0, 32, 114
3, 6144, Note_on_c, 0, 33, 105
3, 6152, Note_off_c, 0, 32, 64
3, 6712, Note_off_c, 0, 33, 64
3, 6720, Note_on_c, 0, 35, 112
3, 7104, Note_on_c, 0, 37, 118
3, 7112, Note_off_c, 0, 35, 64
3, 7392, Note_off_c, 0, 37, 64
3, 7392, Note_on_c, 0, 39, 111
3, 7668, Note_off_c, 0, 39, 64
3, 7680, Note_on_c, 0, 40, 108
3, 8424, Note_off_c, 0, 40, 64
3, 8448, Note_on_c, 0, 33, 105
3, 8832, Note_on_c, 0, 32, 106
3, 8864, Note_off_c, 0, 33, 64
3, 9016, Note_off_c, 0, 32, 64
3, 9024, Note_on_c, 0, 35, 112
3, 9772, Note_off_c, 0, 35, 64
3, 9792, Note_on_c, 0, 30, 106
3, 9984, Note_off_c, 0, 30, 64
3, 9984, Note_on_c, 0, 28, 116
3, 10368, Note_on_c, 0, 32, 112
3, 10388, Note_off_c, 0, 28, 64
3, 10560, Note_on_c, 0, 33, 101
3, 10576, Note_off_c, 0, 32, 64
3, 11080, Note_off_c, 0, 33, 64
3, 11136, Note_on_c, 0, 33, 109
3, 11284, Note_off_c, 0, 33, 64
3, 11328, Note_on_c, 0, 33, 103
3, 11520, Note_on_c, 0, 32, 109
3, 11532, Note_off_c, 0, 33, 64
3, 12284, Note_off_c, 0, 32, 64
3, 12288, Note_on_c, 0, 33, 106
3, 12864, Note_on_c, 0, 35, 115
3, 12872, Note_off_c, 0, 33, 64
3, 13368, Note_off_c, 0, 35, 64
3, 13440, Note_on_c, 0, 35, 114
3, 13820, Note_off_c, 0, 35, 64
3, 13824, Note_on_c, 0, 28, 112
3, 14396, Note_off_c, 0, 28, 64
3, 14400, Note_on_c, 0, 40, 105
3, 14592, Note_on_c, 0, 39, 103
3, 14596, Note_off_c, 0, 40, 64
3, 15352, Note_off_c, 0, 39, 64
3, 15360, Note_on_c, 0, 38, 101
3, 16128, Note_on_c, 0, 37, 114
3, 16148, Note_off_c, 0, 38, 64
3, 16692, Note_off_c, 0, 37, 64
3, 16704, Note_on_c, 0, 37, 118
3, 16896, Note_on_c, 0, 36, 103
3, 16908, Note_off_c, 0, 37, 64
3, 17648, Note_off_c, 0, 36, 64
3, 17664, Note_on_c, 0, 31, 109
3, 18432, Note_off_c, 0, 31, 64
3, 18432, Note_on_c, 0, 33, 112
3, 19196, Note_off_c, 0, 33, 64
3, 19200, Note_on_c, 0, 35, 100
3, 19536, Note_off_c, 0, 35, 64
3, 19584, Note_on_c, 0, 35, 112
3, 19956, Note_off_c, 0, 35, 64
3, 19968, Note_on_c, 0, 28, 117
3, 20544, Note_on_c, 0, 40, 108
3, 20556, Note_off_c, 0, 28, 64
3, 20736, Note_on_c, 0, 39, 106
3, 20744, Note_off_c, 0, 40, 64
3, 21484, Note_off_c, 0, 39, 64
3, 21504, Note_on_c, 0, 38, 101
3, 22272, Note_on_c, 0, 37, 107
3, 22296, Note_off_c, 0, 38, 64
3, 22776, Note_off_c, 0, 37, 64
3, 22848, Note_on_c, 0, 37, 111
3, 23040, Note_on_c, 0, 36, 112
3, 23044, Note_off_c, 0, 37, 64
3, 23808, Note_on_c, 0, 31, 101
3, 23820, Note_off_c, 0, 36, 64
3, 24576, Note_on_c, 0, 33, 110
3, 24580, Note_off_c, 0, 31, 64
3, 25332, Note_off_c, 0, 33, 64
3, 25344, Note_on_c, 0, 35, 114
3, 25680, Note_off_c, 0, 35, 64
3, 25728, Note_on_c, 0, 35, 113
3, 26112, Note_on_c, 0, 33, 112
3, 26116, Note_off_c, 0, 35, 64
3, 26640, Note_off_c, 0, 33, 64
3, 26688, Note_on_c, 0, 33, 109
3, 26880, Note_on_c, 0, 35, 116
3, 26884, Note_off_c, 0, 33, 64
3, 27456, Note_on_c, 0, 37, 111
3, 27460, Note_off_c, 0, 35, 64
3, 27552, Note_on_c, 0, 39, 105
3, 27556, Note_off_c, 0, 37, 64
3, 27648, Note_on_c, 0, 32, 113
3, 27652, Note_off_c, 0, 39, 64
3, 28400, Note_off_c, 0, 32, 64
3, 28416, Note_on_c, 0, 37, 107
3, 29180, Note_off_c, 0, 37, 64
3, 29184, Note_on_c, 0, 33, 114
3, 29716, Note_off_c, 0, 33, 64
3, 29760, Note_on_c, 0, 33, 115
3, 29948, Note_off_c, 0, 33, 64
3, 29952, Note_on_c, 0, 35, 118
3, 30696, Note_off_c, 0, 35, 64
3, 30720, Note_on_c, 0, 32, 111
3, 31104, Note_off_c, 0, 32, 64
3, 31104, Note_on_c, 0, 35, 116
3, 31292, Note_off_c, 0, 35, 64
3, 31296, Note_on_c, 0, 37, 112
3, 31828, Note_off_c, 0, 37, 64
3, 31872, Note_on_c, 0, 37, 119
3, 32240, Note_off_c, 0, 37, 64
3, 32256, Note_on_c, 0, 33, 111
3, 32792, Note_off_c, 0, 33, 64
3, 32832, Note_on_c, 0, 33, 115
3, 33024, Note_on_c, 0, 35, 118
3, 33032, Note_off_c, 0, 33, 64
3, 33792, Note_on_c, 0, 32, 113
3, 33796, Note_off_c, 0, 35, 64
3, 34296, Note_off_c, 0, 32, 64
3, 34368, Note_on_c, 0, 32, 114
3, 34552, Note_off_c, 0, 32, 64
3, 34560, Note_on_c, 0, 37, 114
3, 34944, Note_off_c, 0, 37, 64
3, 34944, Note_on_c, 0, 35, 118
3, 35328, Note_on_c, 0, 33, 112
3, 35340, Note_off_c, 0, 35, 64
3, 35852, Note_off_c, 0, 33, 64
3, 35904, Note_on_c, 0, 33, 109
3, 36096, Note_on_c, 0, 32, 109
3, 36100, Note_off_c, 0, 33, 64
3, 36612, Note_off_c, 0, 32, 64
3, 36672, Note_on_c, 0, 32, 116
3, 36856, Note_off_c, 0, 32, 64
3, 36864, Note_on_c, 0, 33, 111
3, 37628, Note_off_c, 0, 33, 64
3, 37632, Note_on_c, 0, 35, 107
3, 38400, Note_on_c, 0, 28, 118
3, 38420, Note_off_c, 0, 35, 64
3, 39164, Note_off_c, 0, 28, 64
3, 39168, Note_on_c, 0, 33, 111
3, 39540, Note_off_c, 0, 33, 64
3, 39552, Note_on_c, 0, 32, 109
3, 39744, Note_on_c, 0, 35, 114
3, 39760, Note_off_c, 0, 32, 64
3, 40484, Note_off_c, 0, 35, 64
3, 40512, Note_on_c, 0, 30, 111
3, 40704, Note_on_c, 0, 28, 119
3, 40708, Note_off_c, 0, 30, 64
3, 41088, Note_on_c, 0, 32, 114
3, 41100, Note_off_c, 0, 28, 64
3, 41276, Note_off_c, 0, 32, 64
3, 41280, Note_on_c, 0, 33, 111
3, 41840, Note_off_c, 0, 33, 64
3, 41856, Note_on_c, 0, 33, 116
3, 41976, Note_off_c, 0, 33, 64
3, 42048, Note_on_c, 0, 33, 111
3, 42224, Note_off_c, 0, 33, 64
3, 42240, Note_on_c, 0, 32, 109
3, 43004, Note_off_c, 0, 32, 64
3, 43008, Note_on_c, 0, 33, 115
3, 43776, Note_off_c, 0, 33, 64
3, 43776, Note_on_c, 0, 35, 115
3, 44108, Note_off_c, 0, 35, 64
3, 44160, Note_on_c, 0, 35, 118
3, 44544, Note_on_c, 0, 28, 122
3, 44552, Note_off_c, 0, 35, 64
3, 45104, Note_off_c, 0, 28, 64
3, 45120, Note_on_c, 0, 40, 109
3, 45312, Note_on_c, 0, 39, 114
3, 45328, Note_off_c, 0, 40, 64
3, 46080, Note_on_c, 0, 38, 111
3, 46088, Note_off_c, 0, 39, 64
3, 46848, Note_on_c, 0, 37, 113
3, 46864, Note_off_c, 0, 38, 64
3, 47360, Note_off_c, 0, 37, 64
3, 47424, Note_on_c, 0, 37, 108
3, 47616, Note_on_c, 0, 36, 109
3, 47632, Note_off_c, 0, 37, 64
3, 48136, Note_off_c, 0, 36, 64
3, 48192, Note_on_c, 0, 36, 100
3, 48384, Note_on_c, 0, 31, 110
3, 48388, Note_off_c, 0, 36, 64
3, 49148, Note_off_c, 0, 31, 64
3, 49152, Note_on_c, 0, 33, 111
3, 49912, Note_off_c, 0, 33, 64
3, 49920, Note_on_c, 0, 35, 108
3, 50256, Note_off_c, 0, 35, 64
3, 50304, Note_on_c, 0, 35, 112
3, 50688, Note_on_c, 0, 28, 112
3, 50692, Note_off_c, 0, 35, 64
3, 51264, Note_on_c, 0, 40, 104
3, 51268, Note_off_c, 0, 28, 64
3, 51456, Note_off_c, 0, 40, 64
3, 51456, Note_on_c, 0, 39, 100
3, 52224, Note_on_c, 0, 38, 108
3, 52232, Note_off_c, 0, 39, 64
3, 52992, Note_on_c, 0, 37, 114
3, 53004, Note_off_c, 0, 38, 64
3, 53500, Note_off_c, 0, 37, 64
3, 53568, Note_on_c, 0, 37, 114
3, 53760, Note_on_c, 0, 36, 110
3, 53772, Note_off_c, 0, 37, 64
3, 54528, Note_on_c, 0, 31, 104
3, 54532, Note_off_c, 0, 36, 64
3, 55296, Note_on_c, 0, 33, 111
3, 55308, Note_off_c, 0, 31, 64
3, 56052, Note_off_c, 0, 33, 64
3, 56064, Note_on_c, 0, 35, 107
3, 56400, Note_off_c, 0, 35, 64
3, 56448, Note_on_c, 0, 35, 114
3, 56812, Note_off_c, 0, 35, 64
3, 56832, Note_on_c, 0, 33, 104
3, 57348, Note_off_c, 0, 33, 64
3, 57408, Note_on_c, 0, 33, 109
3, 57592, Note_off_c, 0, 33, 64
3, 57600, Note_on_c, 0, 35, 114
3, 58176, Note_on_c, 0, 37, 106
3, 58180, Note_off_c, 0, 35, 64
3, 58272, Note_on_c, 0, 39, 105
3, 58284, Note_off_c, 0, 37, 64
3, 58368, Note_on_c, 0, 32, 116
3, 58372, Note_off_c, 0, 39, 64
3, 59108, Note_off_c, 0, 32, 64
3, 59136, Note_on_c, 0, 37, 117
3, 59712, Note_on_c, 0, 35, 109
3, 59732, Note_off_c, 0, 37, 64
3, 59904, Note_on_c, 0, 33, 112
3, 59928, Note_off_c, 0, 35, 64
3, 60412, Note_off_c, 0, 33, 64
3, 60480, Note_on_c, 0, 33, 111
3, 60672, Note_on_c, 0, 35, 113
3, 60680, Note_off_c, 0, 33, 64
3, 61440, Note_on_c, 0, 32, 114
3, 61444, Note_off_c, 0, 35, 64
3, 61824, Note_on_c, 0, 35, 108
3, 61836, Note_off_c, 0, 32, 64
3, 62012, Note_off_c, 0, 35, 64
3, 62016, Note_on_c, 0, 37, 112
3, 62708, Note_off_c, 0, 37, 64
3, 62784, Note_on_c, 0, 37, 119
3, 62976, Note_off_c, 0, 37, 64
3, 62976, Note_on_c, 0, 33, 111
3, 63516, Note_off_c, 0, 33, 64
3, 63552, Note_on_c, 0, 33, 116
3, 63744, Note_off_c, 0, 33, 64
3, 63744, Note_on_c, 0, 35, 112
3, 64496, Note_off_c, 0, 35, 64
3, 64512, Note_on_c, 0, 32, 111
3, 65060, Note_off_c, 0, 32, 64
3, 65088, Note_on_c, 0, 32, 116
3, 65276, Note_off_c, 0, 32, 64
3, 65280, Note_on_c, 0, 37, 108
3, 65664, Note_off_c, 0, 37, 64
3, 65664, Note_on_c, 0, 35, 116
3, 66048, Note_on_c, 0, 33, 113
3, 66052, Note_off_c, 0, 35, 64
3, 66588, Note_off_c, 0, 33, 64
3, 66624, Note_on_c, 0, 33, 104
3, 66816, Note_on_c, 0, 32, 112
3, 66820, Note_off_c, 0, 33, 64
3, 67324, Note_off_c, 0, 32, 64
3, 67392, Note_on_c, 0, 32, 114
3, 67584, Note_on_c, 0, 33, 110
3, 67592, Note_off_c, 0, 32, 64
3, 68348, Note_off_c, 0, 33, 64
3, 68352, Note_on_c, 0, 35, 111
3, 69120, Note_on_c, 0, 28, 114
3, 69128, Note_off_c, 0, 35, 64
3, 69888, Note_on_c, 0, 33, 111
3, 69892, Note_off_c, 0, 28, 64
3, 70260, Note_off_c, 0, 33, 64
3, 70272, Note_on_c, 0, 32, 110
3, 70464, Note_on_c, 0, 35, 112
3, 70480, Note_off_c, 0, 32, 64
3, 71212, Note_off_c, 0, 35, 64
3, 71232, Note_on_c, 0, 30, 106
3, 71424, Note_off_c, 0, 30, 64
3, 71424, Note_on_c, 0, 28, 118
3, 71808, Note_on_c, 0, 32, 111
3, 71824, Note_off_c, 0, 28, 64
3, 72000, Note_on_c, 0, 33, 111
3, 72012, Note_off_c, 0, 32, 64
3, 72528, Note_off_c, 0, 33, 64
3, 72576, Note_on_c, 0, 33, 118
3, 72732, Note_off_c, 0, 33, 64
3, 72768, Note_on_c, 0, 33, 112
3, 72960, Note_on_c, 0, 32, 111
3, 72968, Note_off_c, 0, 33, 64
3, 73728, Note_on_c, 0, 33, 104
3, 73736, Note_off_c, 0, 32, 64
3, 74484, Note_off_c, 0, 33, 64
3, 74496, Note_on_c, 0, 35, 107
3, 75264, Note_on_c, 0, 36, 110
3, 75280, Note_off_c, 0, 35, 64
3, 75996, Note_off_c, 0, 36, 64
3, 76032, Note_on_c, 0, 38, 109
3, 76540, Note_off_c, 0, 38, 64
3, 76608, Note_on_c, 0, 38, 107
3, 76800, Note_on_c, 0, 35, 116
3, 76808, Note_off_c, 0, 38, 64
3, 77568, Note_on_c, 0, 40, 111
3, 77588, Note_off_c, 0, 35, 64
3, 77952, Note_on_c, 0, 38, 112
3, 77956, Note_off_c, 0, 40, 64
3, 78316, Note_off_c, 0, 38, 64
3, 78336, Note_on_c, 0, 36, 110
3, 78876, Note_off_c, 0, 36, 64
3, 78912, Note_on_c, 0, 36, 116
3, 79104, Note_on_c, 0, 38, 114
3, 79116, Note_off_c, 0, 36, 64
3, 79868, Note_off_c, 0, 38, 64
3, 79872, Note_on_c, 0, 35, 116
3, 80256, Note_off_c, 0, 35, 64
3, 80256, Note_on_c, 0, 38, 115
3, 80632, Note_off_c, 0, 38, 64
3, 80640, Note_on_c, 0, 40, 111
3, 81024, Note_off_c, 0, 40, 64
3, 81024, Note_on_c, 0, 38, 107
3, 81408, Note_on_c, 0, 36, 110
3, 81428, Note_off_c, 0, 38, 64
3, 81916, Note_off_c, 0, 36, 64
3, 81984, Note_on_c, 0, 36, 108
3, 82172, Note_off_c, 0, 36, 64
3, 82176, Note_on_c, 0, 38, 109
3, 82924, Note_off_c, 0, 38, 64
3, 82944, Note_on_c, 0, 35, 112
3, 83328, Note_on_c, 0, 38, 110
3, 83340, Note_off_c, 0, 35, 64
3, 83712, Note_on_c, 0, 40, 100
3, 83720, Note_off_c, 0, 38, 64
3, 83904, Note_on_c, 0, 28, 112
3, 83912, Note_off_c, 0, 40, 64
3, 84096, Note_on_c, 0, 38, 112
3, 84108, Note_off_c, 0, 28, 64
3, 84452, Note_off_c, 0, 38, 64
3, 84480, Note_on_c, 0, 36, 105
3, 85000, Note_off_c, 0, 36, 64
3, 85056, Note_on_c, 0, 36, 110
3, 85248, Note_on_c, 0, 35, 106
3, 85252, Note_off_c, 0, 36, 64
3, 86008, Note_off_c, 0, 35, 64
3, 86016, Note_on_c, 0, 36, 106
3, 86784, Note_on_c, 0, 38, 114
3, 86788, Note_off_c, 0, 36, 64
3, 86908, Note_off_c, 0, 38, 64
3, 87552, Note_on_c, 0, 36, 97
3, 88316, Note_off_c, 0, 36, 64
3, 88320, Note_on_c, 0, 38, 100
3, 89080, Note_off_c, 0, 38, 64
3, 89088, Note_on_c, 0, 35, 111
3, 89856, Note_on_c, 0, 28, 106
3, 89864, Note_off_c, 0, 35, 64
3, 90624, Note_on_c, 0, 36, 106
3, 90636, Note_off_c, 0, 28, 64
3, 91384, Note_off_c, 0, 36, 64
3, 91392, Note_on_c, 0, 38, 108
3, 92160, Note_on_c, 0, 35, 109
3, 92168, Note_off_c, 0, 38, 64
3, 92544, Note_on_c, 0, 38, 108
3, 92564, Note_off_c, 0, 35, 64
3, 92924, Note_off_c, 0, 38, 64
3, 92928, Note_on_c, 0, 28, 119
3, 93312, Note_on_c, 0, 38, 118
3, 93320, Note_off_c, 0, 28, 64
3, 93408, Note_on_c, 0, 40, 109
3, 93424, Note_off_c, 0, 38, 64
3, 93504, Note_on_c, 0, 38, 117
3, 93508, Note_off_c, 0, 40, 64
3, 93692, Note_off_c, 0, 38, 64
3, 93696, Note_on_c, 0, 36, 116
3, 94464, Note_on_c, 0, 38, 107
3, 94468, Note_off_c, 0, 36, 64
3, 94972, Note_off_c, 0, 38, 64
3, 95040, Note_on_c, 0, 38, 116
3, 95232, Note_on_c, 0, 35, 116
3, 95244, Note_off_c, 0, 38, 64
3, 95748, Note_off_c, 0, 35, 64
3, 95808, Note_on_c, 0, 35, 112
3, 96000, Note_on_c, 0, 40, 119
3, 96012, Note_off_c, 0, 35, 64
3, 96364, Note_off_c, 0, 40, 64
3, 96384, Note_on_c, 0, 38, 108
3, 96768, Note_on_c, 0, 36, 108
3, 96780, Note_off_c, 0, 38, 64
3, 97280, Note_off_c, 0, 36, 64
3, 97344, Note_on_c, 0, 36, 112
3, 97536, Note_on_c, 0, 35, 112
3, 97552, Note_off_c, 0, 36, 64
3, 98280, Note_off_c, 0, 35, 64
3, 98304, Note_on_c, 0, 36, 112
3, 98812, Note_off_c, 0, 36, 64
3, 98880, Note_on_c, 0, 36, 113
3, 99064, Note_off_c, 0, 36, 64
3, 99072, Note_on_c, 0, 38, 117
3, 99416, Note_off_c, 0, 38, 64
3, 99456, Note_on_c, 0, 38, 108
3, 99552, Note_off_c, 0, 38, 64
3, 99552, Note_on_c, 0, 40, 108
3, 99644, Note_off_c, 0, 40, 64
3, 99648, Note_on_c, 0, 38, 111
3, 99840, Note_on_c, 0, 36, 113
3, 99844, Note_off_c, 0, 38, 64
3, 100368, Note_off_c, 0, 36, 64
3, 100416, Note_on_c, 0, 36, 111
3, 100608, Note_on_c, 0, 35, 116
3, 100636, Note_off_c, 0, 36, 64
3, 101352, Note_off_c, 0, 35, 64
3, 101376, Note_on_c, 0, 36, 115
3, 101880, Note_off_c, 0, 36, 64
3, 101952, Note_on_c, 0, 36, 113
3, 102144, Note_on_c, 0, 38, 112
3, 102156, Note_off_c, 0, 36, 64
3, 102320, Note_off_c, 0, 38, 64
3, 102336, Note_on_c, 0, 26, 96
3, 102528, Note_on_c, 0, 38, 121
3, 102544, Note_off_c, 0, 26, 64
3, 102912, Note_on_c, 0, 36, 113
3, 102916, Note_off_c, 0, 38, 64
3, 103448, Note_off_c, 0, 36, 64
3, 103488, Note_on_c, 0, 36, 115
3, 103680, Note_on_c, 0, 35, 116
3, 103684, Note_off_c, 0, 36, 64
3, 104372, Note_off_c, 0, 35, 64
3, 104448, Note_on_c, 0, 36, 112
3, 104956, Note_off_c, 0, 36, 64
3, 105024, Note_on_c, 0, 36, 112
3, 105188, Note_off_c, 0, 36, 64
3, 105216, Note_on_c, 0, 38, 105
3, 105572, Note_off_c, 0, 38, 64
3, 105600, Note_on_c, 0, 40, 116
3, 105696, Note_on_c, 0, 38, 97
3, 105704, Note_off_c, 0, 40, 64
3, 105984, Note_off_c, 0, 38, 64
3, 105984, Note_on_c, 0, 31, 106
3, 106752, Note_off_c, 0, 31, 64
3, 106752, Note_on_c, 0, 36, 110
3, 107136, Note_off_c, 0, 36, 64
3, 107136, Note_on_c, 0, 35, 114
3, 107328, Note_on_c, 0, 38, 105
3, 107344, Note_off_c, 0, 35, 64
3, 108096, Note_on_c, 0, 33, 104
3, 108100, Note_off_c, 0, 38, 64
3, 108280, Note_off_c, 0, 33, 64
3, 108288, Note_on_c, 0, 31, 108
3, 108660, Note_off_c, 0, 31, 64
3, 108672, Note_on_c, 0, 35, 118
3, 108864, Note_on_c, 0, 36, 113
3, 108884, Note_off_c, 0, 35, 64
3, 109576, Note_off_c, 0, 36, 64
3, 109632, Note_on_c, 0, 36, 106
3, 109824, Note_off_c, 0, 36, 64
3, 109824, Note_on_c, 0, 35, 117
3, 110592, Note_on_c, 0, 36, 110
3, 110596, Note_off_c, 0, 35, 64
3, 111360, Note_on_c, 0, 38, 104
3, 111364, Note_off_c, 0, 36, 64
3, 112128, Note_on_c, 0, 31, 103
3, 112156, Note_off_c, 0, 38, 64
3, 114904, Note_off_c, 0, 31, 64
3, 115200, End_track
4, 0, Start_track
4, 0, Title_t, "E.Piano 2"
4, 32, Control_c, 1, 120, 0
4, 64, Control_c, 1, 121, 0
4, 96, Control_c, 1, 11, 127
4, 128, Control_c, 1, 121, 0
4, 160, Control_c, 1, 0, 0
4, 192, Control_c, 1, 32, 0
4, 224, Program_c, 1, 5
4, 256, Control_c, 1, 7, 120
4, 288, Control_c, 1, 10, 64
4, 320, Control_c, 1, 91, 80
4, 352, Control_c, 1, 93, 50
4, 384, Control_c, 1, 101, 0
4, 416, Control_c, 1, 100, 0
4, 448, Control_c, 1, 6, 2
4, 1536, Note_on_c, 1, 52, 97
4, 1536, Note_on_c, 1, 56, 102
4, 1536, Note_on_c, 1, 59, 101
4, 2016, Control_c, 1, 64, 127
4, 2124, Note_off_c, 1, 56, 64
4, 2132, Note_off_c, 1, 52, 64
4, 2136, Note_off_c, 1, 59, 64
4, 2304, Control_c, 1, 64, 0
4, 2304, Note_on_c, 1, 57, 102
4, 2304, Note_on_c, 1, 52, 102
4, 2304, Note_on_c, 1, 61, 104
4, 2400, Control_c, 1, 64, 127
4, 2448, Note_off_c, 1, 61, 64
4, 2460, Note_off_c, 1, 57, 64
4, 2464, Note_off_c, 1, 52, 64
4, 2688, Control_c, 1, 64, 0
4, 2688, Note_on_c, 1, 56, 106
4, 2688, Note_on_c, 1, 59, 106
4, 2688, Note_on_c, 1, 52, 106
4, 2764, Note_off_c, 1, 52, 64
4, 2768, Note_off_c, 1, 59, 64
4, 2780, Note_off_c, 1, 56, 64
4, 2880, Note_on_c, 1, 51, 99
4, 2880, Note_on_c, 1, 59, 106
4, 2880, Note_on_c, 1, 54, 115
4, 3552, Control_c, 1, 64, 127
4, 3664, Note_off_c, 1, 54, 64
4, 3668, Note_off_c, 1, 59, 64
4, 3692, Note_off_c, 1, 51, 64
4, 3840, Control_c, 1, 64, 0
4, 3840, Note_on_c, 1, 56, 103
4, 3840, Note_on_c, 1, 59, 98
4, 3840, Note_on_c, 1, 52, 93
4, 4032, Control_c, 1, 64, 127
4, 4092, Note_off_c, 1, 59, 64
4, 4092, Note_off_c, 1, 56, 64
4, 4100, Note_off_c, 1, 52, 64
4, 4224, Control_c, 1, 64, 0
4, 4224, Note_on_c, 1, 59, 94
4, 4224, Note_on_c, 1, 56, 99
4, 4224, Note_on_c, 1, 52, 89
4, 4288, Note_off_c, 1, 52, 64
4, 4296, Note_off_c, 1, 56, 64
4, 4308, Note_off_c, 1, 59, 64
4, 4416, Note_on_c, 1, 57, 107
4, 4416, Note_on_c, 1, 52, 107
4, 4416, Note_on_c, 1, 61, 106
4, 5088, Control_c, 1, 64, 127
4, 5236, Note_off_c, 1, 61, 64
4, 5240, Note_off_c, 1, 57, 64
4, 5252, Note_off_c, 1, 52, 64
4, 5376, Control_c, 1, 64, 0
4, 5376, Note_on_c, 1, 52, 99
4, 5376, Note_on_c, 1, 56, 106
4, 5376, Note_on_c, 1, 59, 103
4, 5760, Control_c, 1, 64, 127
4, 5856, Note_off_c, 1, 59, 64
4, 5860, Note_off_c, 1, 56, 64
4, 5876, Note_off_c, 1, 52, 64
4, 6144, Control_c, 1, 64, 0
4, 6144, Note_on_c, 1, 57, 108
4, 6144, Note_on_c, 1, 61, 108
4, 6144, Note_on_c, 1, 52, 102
4, 6240, Control_c, 1, 64, 127
4, 6320, Note_off_c, 1, 57, 64
4, 6324, Note_off_c, 1, 52, 64
4, 6336, Note_off_c, 1, 61, 64
4, 6720, Control_c, 1, 64, 0
4, 6720, Note_on_c, 1, 63, 107
4, 6720, Note_on_c, 1, 54, 104
4, 6720, Note_on_c, 1, 59, 112
4, 6912, Control_c, 1, 64, 127
4, 6920, Note_off_c, 1, 54, 64
4, 6936, Note_off_c, 1, 59, 64
4, 6968, Note_off_c, 1, 63, 64
4, 7104, Control_c, 1, 64, 0
4, 7104, Note_on_c, 1, 57, 107
4, 7104, Note_on_c, 1, 61, 114
4, 7104, Note_on_c, 1, 64, 118
4, 7296, Note_off_c, 1, 61, 64
4, 7296, Control_c, 1, 64, 127
4, 7300, Note_off_c, 1, 57, 64
4, 7312, Note_off_c, 1, 64, 64
4, 7392, Control_c, 1, 64, 0
4, 7392, Note_on_c, 1, 59, 110
4, 7392, Note_on_c, 1, 63, 116
4, 7392, Note_on_c, 1, 66, 108
4, 7488, Control_c, 1, 64, 127
4, 7516, Note_off_c, 1, 66, 64
4, 7516, Note_off_c, 1, 63, 64
4, 7528, Note_off_c, 1, 59, 64
4, 7680, Control_c, 1, 64, 0
4, 7680, Note_on_c, 1, 56, 96
4, 7680, Note_on_c, 1, 59, 108
4, 7680, Note_on_c, 1, 64, 104
4, 8064, Control_c, 1, 64, 127
4, 8268, Note_off_c, 1, 59, 64
4, 8268, Note_off_c, 1, 56, 64
4, 8280, Note_off_c, 1, 64, 64
4, 8448, Control_c, 1, 64, 0
4, 8448, Note_on_c, 1, 57, 88
4, 8448, Note_on_c, 1, 64, 98
4, 8448, Note_on_c, 1, 61, 102
4, 8544, Control_c, 1, 64, 127
4, 8640, Note_off_c, 1, 61, 64
4, 8644, Note_off_c, 1, 64, 64
4, 8644, Note_off_c, 1, 57, 64
4, 8832, Control_c, 1, 64, 0
4, 8832, Note_on_c, 1, 56, 87
4, 8832, Note_on_c, 1, 64, 99
4, 8832, Note_on_c, 1, 59, 106
4, 8912, Note_off_c, 1, 59, 64
4, 8912, Note_off_c, 1, 64, 64
4, 8916, Note_off_c, 1, 56, 64
4, 9024, Note_on_c, 1, 59, 105
4, 9024, Note_on_c, 1, 54, 104
4, 9024, Note_on_c, 1, 63, 108
4, 9600, Control_c, 1, 64, 127
4, 9768, Note_off_c, 1, 54, 64
4, 9772, Note_off_c, 1, 63, 64
4, 9788, Note_off_c, 1, 59, 64
4, 9984, Control_c, 1, 64, 0
4, 9984, Note_on_c, 1, 56, 99
4, 9984, Note_on_c, 1, 59, 110
4, 9984, Note_on_c, 1, 64, 106
4, 10080, Control_c, 1, 64, 127
4, 10180, Note_off_c, 1, 64, 64
4, 10180, Note_off_c, 1, 59, 64
4, 10188, Note_off_c, 1, 56, 64
4, 10368, Control_c, 1, 64, 0
4, 10368, Note_on_c, 1, 56, 91
4, 10368, Note_on_c, 1, 59, 104
4, 10368, Note_on_c, 1, 64, 98
4, 10444, Note_off_c, 1, 56, 64
4, 10452, Note_off_c, 1, 64, 64
4, 10452, Note_off_c, 1, 59, 64
4, 10560, Note_on_c, 1, 57, 102
4, 10560, Note_on_c, 1, 64, 103
4, 10560, Note_on_c, 1, 61, 106
4, 11136, Control_c, 1, 64, 127
4, 11356, Note_off_c, 1, 61, 64
4, 11356, Note_off_c, 1, 64, 64
4, 11360, Note_off_c, 1, 57, 64
4, 11520, Control_c, 1, 64, 0
4, 11520, Note_on_c, 1, 56, 108
4, 11520, Note_on_c, 1, 59, 111
4, 11520, Note_on_c, 1, 64, 108
4, 11904, Control_c, 1, 64, 127
4, 12028, Note_off_c, 1, 64, 64
4, 12032, Note_off_c, 1, 59, 64
4, 12048, Note_off_c, 1, 56, 64
4, 12288, Control_c, 1, 64, 0
4, 12288, Note_on_c, 1, 52, 101
4, 12288, Note_on_c, 1, 61, 108
4, 12288, Note_on_c, 1, 57, 106
4, 12672, Control_c, 1, 64, 127
4, 12716, Note_off_c, 1, 52, 64
4, 12720, Note_off_c, 1, 61, 64
4, 12724, Note_off_c, 1, 57, 64
4, 12864, Control_c, 1, 64, 0
4, 12864, Note_on_c, 1, 63, 105
4, 12864, Note_on_c, 1, 59, 110
4, 12864, Note_on_c, 1, 54, 99
4, 13152, Control_c, 1, 64, 127
4, 13216, Note_off_c, 1, 59, 64
4, 13228, Note_off_c, 1, 54, 64
4, 13232, Note_off_c, 1, 63, 64
4, 13440, Control_c, 1, 64, 0
4, 13440, Note_on_c, 1, 52, 103
4, 13440, Note_on_c, 1, 57, 112
4, 13440, Note_on_c, 1, 61, 112
4, 13536, Control_c, 1, 64, 127
4, 13612, Note_off_c, 1, 61, 64
4, 13624, Note_off_c, 1, 57, 64
4, 13628, Note_off_c, 1, 52, 64
4, 13824, Control_c, 1, 64, 0
4, 13824, Note_on_c, 1, 59, 106
4, 13824, Note_on_c, 1, 52, 93
4, 13824, Note_on_c, 1, 56, 102
4, 14016, Control_c, 1, 64, 127
4, 14340, Note_off_c, 1, 52, 64
4, 14400, Note_off_c, 1, 59, 64
4, 14404, Note_off_c, 1, 56, 64
4, 14592, Control_c, 1, 64, 0
4, 14592, Note_on_c, 1, 54, 108
4, 14592, Note_on_c, 1, 51, 100
4, 14592, Note_on_c, 1, 59, 104
4, 14784, Control_c, 1, 64, 127
4, 14924, Note_off_c, 1, 54, 64
4, 14928, Note_off_c, 1, 51, 64
4, 14936, Note_off_c, 1, 59, 64
4, 15360, Control_c, 1, 64, 0
4, 15360, Note_on_c, 1, 57, 104
4, 15360, Note_on_c, 1, 54, 104
4, 15360, Note_on_c, 1, 62, 108
4, 15744, Control_c, 1, 64, 127
4, 15820, Note_off_c, 1, 62, 64
4, 15840, Note_off_c, 1, 54, 64
4, 15840, Note_off_c, 1, 57, 64
4, 16128, Control_c, 1, 64, 0
4, 16128, Note_on_c, 1, 52, 91
4, 16128, Note_on_c, 1, 57, 97
4, 16128, Note_on_c, 1, 61, 99
4, 16416, Control_c, 1, 64, 127
4, 16568, Note_off_c, 1, 52, 64
4, 16704, Note_on_c, 1, 52, 85
4, 16780, Note_off_c, 1, 52, 64
4, 16784, Note_off_c, 1, 61, 64
4, 16784, Note_off_c, 1, 57, 64
4, 16896, Control_c, 1, 64, 0
4, 16896, Note_on_c, 1, 55, 105
4, 16896, Note_on_c, 1, 52, 98
4, 16896, Note_on_c, 1, 60, 103
4, 17088, Control_c, 1, 64, 127
4, 17312, Note_off_c, 1, 60, 64
4, 17332, Note_off_c, 1, 55, 64
4, 17340, Note_off_c, 1, 52, 64
4, 17664, Control_c, 1, 64, 0
4, 17664, Note_on_c, 1, 55, 103
4, 17664, Note_on_c, 1, 59, 106
4, 17664, Note_on_c, 1, 50, 107
4, 18048, Control_c, 1, 64, 127
4, 18164, Note_off_c, 1, 50, 64
4, 18164, Note_off_c, 1, 55, 64
4, 18180, Note_off_c, 1, 59, 64
4, 18432, Control_c, 1, 64, 0
4, 18432, Note_on_c, 1, 52, 99
4, 18432, Note_on_c, 1, 57, 103
4, 18432, Note_on_c, 1, 61, 106
4, 18816, Control_c, 1, 64, 127
4, 18880, Note_off_c, 1, 52, 64
4, 19008, Note_on_c, 1, 52, 68
4, 19072, Note_off_c, 1, 61, 64
4, 19072, Note_off_c, 1, 57, 64
4, 19080, Note_off_c, 1, 52, 64
4, 19200, Control_c, 1, 64, 0
4, 19200, Note_on_c, 1, 63, 105
4, 19200, Note_on_c, 1, 59, 112
4, 19200, Note_on_c, 1, 54, 102
4, 19296, Control_c, 1, 64, 127
4, 19348, Note_off_c, 1, 59, 64
4, 19352, Note_off_c, 1, 63, 64
4, 19364, Note_off_c, 1, 54, 64
4, 19584, Control_c, 1, 64, 0
4, 19584, Note_on_c, 1, 57, 105
4, 19584, Note_on_c, 1, 52, 101
4, 19584, Note_on_c, 1, 61, 102
4, 19680, Control_c, 1, 64, 127
4, 19748, Note_off_c, 1, 61, 64
4, 19772, Note_off_c, 1, 52, 64
4, 19772, Note_off_c, 1, 57, 64
4, 19968, Control_c, 1, 64, 0
4, 19968, Note_on_c, 1, 52, 103
4, 19968, Note_on_c, 1, 56, 106
4, 19968, Note_on_c, 1, 59, 100
4, 20352, Control_c, 1, 64, 127
4, 20440, Note_off_c, 1, 52, 64
4, 20464, Note_off_c, 1, 59, 64
4, 20492, Note_off_c, 1, 56, 64
4, 20544, Note_on_c, 1, 52, 75
4, 20584, Note_off_c, 1, 52, 64
4, 20736, Control_c, 1, 64, 0
4, 20736, Note_on_c, 1, 51, 95
4, 20736, Note_on_c, 1, 59, 102
4, 20736, Note_on_c, 1, 54, 106
4, 21120, Control_c, 1, 64, 127
4, 21128, Note_off_c, 1, 54, 64
4, 21136, Note_off_c, 1, 51, 64
4, 21152, Note_off_c, 1, 59, 64
4, 21504, Control_c, 1, 64, 0
4, 21504, Note_on_c, 1, 57, 113
4, 21504, Note_on_c, 1, 54, 112
4, 21504, Note_on_c, 1, 62, 107
4, 21888, Control_c, 1, 64, 127
4, 22032, Note_off_c, 1, 62, 64
4, 22036, Note_off_c, 1, 57, 64
4, 22044, Note_off_c, 1, 54, 64
4, 22272, Control_c, 1, 64, 0
4, 22272, Note_on_c, 1, 57, 105
4, 22272, Note_on_c, 1, 52, 101
4, 22272, Note_on_c, 1, 61, 104
4, 22464, Control_c, 1, 64, 127
4, 22696, Note_off_c, 1, 52, 64
4, 22732, Note_off_c, 1, 61, 64
4, 22824, Note_off_c, 1, 57, 64
4, 22848, Note_on_c, 1, 52, 59
4, 22920, Note_off_c, 1, 52, 64
4, 23040, Control_c, 1, 64, 0
4, 23040, Note_on_c, 1, 52, 108
4, 23040, Note_on_c, 1, 55, 108
4, 23040, Note_on_c, 1, 60, 104
4, 23136, Control_c, 1, 64, 127
4, 23440, Note_off_c, 1, 60, 64
4, 23472, Note_off_c, 1, 55, 64
4, 23472, Note_off_c, 1, 52, 64
4, 23808, Control_c, 1, 64, 0
4, 23808, Note_on_c, 1, 55, 106
4, 23808, Note_on_c, 1, 50, 101
4, 23808, Note_on_c, 1, 59, 108
4, 24000, Control_c, 1, 64, 127
4, 24360, Note_off_c, 1, 59, 64
4, 24360, Note_off_c, 1, 50, 64
4, 24360, Note_off_c, 1, 55, 64
4, 24576, Control_c, 1, 64, 0
4, 24576, Note_on_c, 1, 52, 100
4, 24576, Note_on_c, 1, 57, 104
4, 24576, Note_on_c, 1, 61, 99
4, 24672, Control_c, 1, 64, 127
4, 24920, Note_off_c, 1, 57, 64
4, 24920, Note_off_c, 1, 52, 64
4, 24940, Note_off_c, 1, 61, 64
4, 25152, Note_on_c, 1, 52, 79
4, 25208, Note_off_c, 1, 52, 64
4, 25344, Control_c, 1, 64, 0
4, 25344, Note_on_c, 1, 54, 106
4, 25344, Note_on_c, 1, 63, 104
4, 25344, Note_on_c, 1, 59, 112
4, 25440, Control_c, 1, 64, 127
4, 25492, Note_off_c, 1, 59, 64
4, 25504, Note_off_c, 1, 63, 64
4, 25528, Note_off_c, 1, 54, 64
4, 25728, Control_c, 1, 64, 0
4, 25728, Note_on_c, 1, 52, 78
4, 25728, Note_on_c, 1, 57, 101
4, 25728, Note_on_c, 1, 61, 91
4, 25824, Control_c, 1, 64, 127
4, 25896, Note_off_c, 1, 61, 64
4, 25900, Note_off_c, 1, 52, 64
4, 25904, Note_off_c, 1, 57, 64
4, 26112, Control_c, 1, 64, 0
4, 26112, Note_on_c, 1, 57, 106
4, 26112, Note_on_c, 1, 52, 102
4, 26112, Note_on_c, 1, 61, 99
4, 26304, Control_c, 1, 64, 127
4, 26568, Note_off_c, 1, 52, 64
4, 26572, Note_off_c, 1, 61, 64
4, 26592, Note_off_c, 1, 57, 64
4, 26688, Note_on_c, 1, 52, 69
4, 26740, Note_off_c, 1, 52, 64
4, 26880, Control_c, 1, 64, 0
4, 26880, Note_on_c, 1, 54, 101
4, 26880, Note_on_c, 1, 59, 110
4, 26880, Note_on_c, 1, 63, 108
4, 27072, Control_c, 1, 64, 127
4, 27328, Note_off_c, 1, 54, 64
4, 27436, Note_off_c, 1, 59, 64
4, 27440, Note_off_c, 1, 63, 64
4, 27648, Control_c, 1, 64, 0
4, 27648, Note_on_c, 1, 56, 104
4, 27648, Note_on_c, 1, 51, 98
4, 27648, Note_on_c, 1, 59, 106
4, 28032, Control_c, 1, 64, 127
4, 28128, Note_off_c, 1, 51, 64
4, 28164, Note_off_c, 1, 59, 64
4, 28172, Note_off_c, 1, 56, 64
4, 28224, Note_on_c, 1, 51, 59
4, 28288, Note_off_c, 1, 51, 64
4, 28416, Control_c, 1, 64, 0
4, 28416, Note_on_c, 1, 52, 102
4, 28416, Note_on_c, 1, 61, 102
4, 28416, Note_on_c, 1, 56, 107
4, 28800, Control_c, 1, 64, 127
4, 28912, Note_off_c, 1, 52, 64
4, 28936, Note_off_c, 1, 61, 64
4, 28964, Note_off_c, 1, 56, 64
4, 28992, Note_on_c, 1, 52, 77
4, 29048, Note_off_c, 1, 52, 64
4, 29184, Control_c, 1, 64, 0
4, 29184, Note_on_c, 1, 52, 108
4, 29184, Note_on_c, 1, 57, 108
4, 29184, Note_on_c, 1, 61, 104
4, 29280, Control_c, 1, 64, 127
4, 29584, Note_off_c, 1, 57, 64
4, 29604, Note_off_c, 1, 52, 64
4, 29612, Note_off_c, 1, 61, 64
4, 29760, Note_on_c, 1, 52, 70
4, 29800, Note_off_c, 1, 52, 64
4, 29952, Control_c, 1, 64, 0
4, 29952, Note_on_c, 1, 63, 108
4, 29952, Note_on_c, 1, 54, 104
4, 29952, Note_on_c, 1, 59, 110
4, 30048, Control_c, 1, 64, 127
4, 30420, Note_off_c, 1, 59, 64
4, 30444, Note_off_c, 1, 63, 64
4, 30456, Note_off_c, 1, 54, 64
4, 30720, Control_c, 1, 64, 0
4, 30720, Note_on_c, 1, 51, 93
4, 30720, Note_on_c, 1, 59, 112
4, 30720, Note_on_c, 1, 56, 112
4, 30816, Control_c, 1, 64, 127
4, 30932, Note_off_c, 1, 51, 64
4, 30976, Note_off_c, 1, 59, 64
4, 31012, Note_off_c, 1, 56, 64
4, 31104, Note_on_c, 1, 51, 87
4, 31168, Note_off_c, 1, 51, 64
4, 31296, Control_c, 1, 64, 0
4, 31296, Note_on_c, 1, 56, 109
4, 31296, Note_on_c, 1, 52, 106
4, 31296, Note_on_c, 1, 61, 108
4, 31584, Control_c, 1, 64, 127
4, 31672, Note_off_c, 1, 61, 64
4, 31680, Note_off_c, 1, 56, 64
4, 31688, Note_off_c, 1, 52, 64
4, 31872, Note_on_c, 1, 52, 82
4, 31968, Note_on_c, 1, 56, 81
4, 32108, Note_off_c, 1, 56, 64
4, 32132, Note_off_c, 1, 52, 64
4, 32256, Control_c, 1, 64, 0
4, 32256, Note_on_c, 1, 52, 90
4, 32256, Note_on_c, 1, 57, 98
4, 32256, Note_on_c, 1, 61, 94
4, 32352, Control_c, 1, 64, 127
4, 32660, Note_off_c, 1, 61, 64
4, 32664, Note_off_c, 1, 57, 64
4, 32676, Note_off_c, 1, 52, 64
4, 32832, Note_on_c, 1, 52, 89
4, 32884, Note_off_c, 1, 52, 64
4, 33024, Control_c, 1, 64, 0
4, 33024, Note_on_c, 1, 63, 106
4, 33024, Note_on_c, 1, 54, 104
4, 33024, Note_on_c, 1, 59, 110
4, 33120, Control_c, 1, 64, 127
4, 33328, Note_off_c, 1, 63, 64
4, 33344, Note_off_c, 1, 54, 64
4, 33464, Note_off_c, 1, 59, 64
4, 33600, Note_on_c, 1, 54, 82
4, 33640, Note_off_c, 1, 54, 64
4, 33792, Control_c, 1, 64, 0
4, 33792, Note_on_c, 1, 56, 101
4, 33792, Note_on_c, 1, 59, 112
4, 33792, Note_on_c, 1, 51, 77
4, 33888, Control_c, 1, 64, 127
4, 34216, Note_off_c, 1, 51, 64
4, 34244, Note_off_c, 1, 59, 64
4, 34248, Note_off_c, 1, 56, 64
4, 34368, Note_on_c, 1, 51, 61
4, 34476, Note_off_c, 1, 51, 64
4, 34560, Control_c, 1, 64, 0
4, 34560, Note_on_c, 1, 52, 107
4, 34560, Note_on_c, 1, 56, 116
4, 34560, Note_on_c, 1, 61, 114
4, 34656, Control_c, 1, 64, 127
4, 35068, Note_off_c, 1, 56, 64
4, 35080, Note_off_c, 1, 52, 64
4, 35092, Note_off_c, 1, 61, 64
4, 35328, Control_c, 1, 64, 0
4, 35328, Note_on_c, 1, 57, 104
4, 35328, Note_on_c, 1, 52, 101
4, 35328, Note_on_c, 1, 61, 104
4, 35520, Control_c, 1, 64, 127
4, 35784, Note_off_c, 1, 52, 64
4, 35792, Note_off_c, 1, 61, 64
4, 35796, Note_off_c, 1, 57, 64
4, 35904, Note_on_c, 1, 52, 74
4, 35968, Note_off_c, 1, 52, 64
4, 36096, Control_c, 1, 64, 0
4, 36096, Note_on_c, 1, 56, 106
4, 36096, Note_on_c, 1, 52, 102
4, 36096, Note_on_c, 1, 59, 108
4, 36192, Control_c, 1, 64, 127
4, 36324, Note_off_c, 1, 52, 64
4, 36336, Note_off_c, 1, 56, 64
4, 36340, Note_off_c, 1, 59, 64
4, 36480, Note_on_c, 1, 52, 61
4, 36576, Note_on_c, 1, 56, 93
4, 36672, Note_on_c, 1, 59, 98
4, 36744, Note_off_c, 1, 52, 64
4, 36772, Note_off_c, 1, 56, 64
4, 36808, Note_off_c, 1, 59, 64
4, 36864, Control_c, 1, 64, 0
4, 36864, Note_on_c, 1, 61, 108
4, 36864, Note_on_c, 1, 52, 101
4, 36864, Note_on_c, 1, 57, 98
4, 36960, Control_c, 1, 64, 127
4, 37228, Note_off_c, 1, 52, 64
4, 37284, Note_off_c, 1, 57, 64
4, 37312, Note_off_c, 1, 61, 64
4, 37440, Note_on_c, 1, 52, 73
4, 37460, Note_off_c, 1, 52, 64
4, 37632, Control_c, 1, 64, 0
4, 37632, Note_on_c, 1, 63, 104
4, 37632, Note_on_c, 1, 54, 108
4, 37632, Note_on_c, 1, 59, 112
4, 37728, Control_c, 1, 64, 127
4, 38052, Note_off_c, 1, 59, 64
4, 38068, Note_off_c, 1, 63, 64
4, 38088, Note_off_c, 1, 54, 64
4, 38400, Control_c, 1, 64, 0
4, 38400, Note_on_c, 1, 59, 105
4, 38400, Note_on_c, 1, 52, 81
4, 38400, Note_on_c, 1, 56, 101
4, 38400, Note_on_c, 1, 64, 99
4, 38496, Control_c, 1, 64, 127
4, 38892, Note_off_c, 1, 52, 64
4, 38944, Note_off_c, 1, 64, 64
4, 38960, Note_off_c, 1, 56, 64
4, 38972, Note_off_c, 1, 59, 64
4, 38976, Note_on_c, 1, 52, 52
4, 39036, Note_off_c, 1, 52, 64
4, 39168, Control_c, 1, 64, 0
4, 39168, Note_on_c, 1, 57, 106
4, 39168, Note_on_c, 1, 52, 101
4, 39168, Note_on_c, 1, 61, 107
4, 39264, Control_c, 1, 64, 127
4, 39312, Note_off_c, 1, 61, 64
4, 39332, Note_off_c, 1, 52, 64
4, 39332, Note_off_c, 1, 57, 64
4, 39456, Control_c, 1, 64, 0
4, 39552, Control_c, 1, 64, 127
4, 39552, Note_on_c, 1, 56, 96
4, 39552, Note_on_c, 1, 52, 98
4, 39552, Note_on_c, 1, 59, 104
4, 39604, Note_off_c, 1, 59, 64
4, 39608, Note_off_c, 1, 56, 64
4, 39616, Note_off_c, 1, 52, 64
4, 39648, Control_c, 1, 64, 0
4, 39744, Note_on_c, 1, 54, 104
4, 39744, Note_on_c, 1, 51, 98
4, 39744, Note_on_c, 1, 59, 109
4, 40320, Control_c, 1, 64, 127
4, 40432, Note_off_c, 1, 51, 64
4, 40440, Note_off_c, 1, 59, 64
4, 40448, Note_off_c, 1, 54, 64
4, 40512, Note_on_c, 1, 51, 103
4, 40584, Note_off_c, 1, 51, 64
4, 40704, Control_c, 1, 64, 0
4, 40704, Note_on_c, 1, 52, 108
4, 40704, Note_on_c, 1, 56, 111
4, 40704, Note_on_c, 1, 59, 106
4, 40896, Control_c, 1, 64, 127
4, 40928, Note_off_c, 1, 59, 64
4, 40932, Note_off_c, 1, 52, 64
4, 40944, Note_off_c, 1, 56, 64
4, 41088, Note_on_c, 1, 52, 73
4, 41148, Note_off_c, 1, 52, 64
4, 41280, Control_c, 1, 64, 0
4, 41280, Note_on_c, 1, 52, 106
4, 41280, Note_on_c, 1, 57, 108
4, 41280, Note_on_c, 1, 61, 104
4, 41664, Control_c, 1, 64, 127
4, 41908, Note_off_c, 1, 61, 64
4, 41928, Note_off_c, 1, 57, 64
4, 41932, Note_off_c, 1, 52, 64
4, 42048, Note_on_c, 1, 52, 78
4, 42108, Note_off_c, 1, 52, 64
4, 42240, Control_c, 1, 64, 0
4, 42240, Note_on_c, 1, 52, 97
4, 42240, Note_on_c, 1, 56, 104
4, 42240, Note_on_c, 1, 59, 105
4, 42336, Control_c, 1, 64, 127
4, 42804, Note_off_c, 1, 52, 64
4, 42816, Note_off_c, 1, 56, 64
4, 42824, Note_off_c, 1, 59, 64
4, 43008, Control_c, 1, 64, 0
4, 43008, Note_on_c, 1, 61, 103
4, 43008, Note_on_c, 1, 57, 103
4, 43008, Note_on_c, 1, 52, 93
4, 43488, Control_c, 1, 64, 127
4, 43564, Note_off_c, 1, 52, 64
4, 43580, Note_off_c, 1, 57, 64
4, 43580, Note_off_c, 1, 61, 64
4, 43776, Control_c, 1, 64, 0
4, 43776, Note_on_c, 1, 54, 104
4, 43776, Note_on_c, 1, 59, 110
4, 43776, Note_on_c, 1, 63, 107
4, 43872, Control_c, 1, 64, 127
4, 43944, Note_off_c, 1, 63, 64
4, 43960, Note_off_c, 1, 59, 64
4, 43964, Note_off_c, 1, 54, 64
4, 44160, Control_c, 1, 64, 0
4, 44160, Note_on_c, 1, 52, 97
4, 44160, Note_on_c, 1, 57, 106
4, 44160, Note_on_c, 1, 61, 105
4, 44256, Control_c, 1, 64, 127
4, 44320, Note_off_c, 1, 61, 64
4, 44332, Note_off_c, 1, 57, 64
4, 44344, Note_off_c, 1, 52, 64
4, 44544, Control_c, 1, 64, 0
4, 44544, Note_on_c, 1, 59, 104
4, 44544, Note_on_c, 1, 56, 108
4, 44544, Note_on_c, 1, 52, 99
4, 44736, Control_c, 1, 64, 127
4, 44936, Note_off_c, 1, 59, 64
4, 44944, Note_off_c, 1, 52, 64
4, 44948, Note_off_c, 1, 56, 64
4, 45120, Note_on_c, 1, 52, 58
4, 45160, Note_off_c, 1, 52, 64
4, 45312, Control_c, 1, 64, 0
4, 45312, Note_on_c, 1, 59, 100
4, 45312, Note_on_c, 1, 51, 94
4, 45312, Note_on_c, 1, 54, 104
4, 45504, Control_c, 1, 64, 127
4, 45696, Note_off_c, 1, 51, 64
4, 45864, Note_off_c, 1, 54, 64
4, 45888, Note_on_c, 1, 51, 71
4, 45896, Note_off_c, 1, 59, 64
4, 45952, Note_off_c, 1, 51, 64
4, 46080, Control_c, 1, 64, 0
4, 46080, Note_on_c, 1, 57, 104
4, 46080, Note_on_c, 1, 50, 101
4, 46080, Note_on_c, 1, 54, 116
4, 46176, Control_c, 1, 64, 127
4, 46472, Note_off_c, 1, 50, 64
4, 46496, Note_off_c, 1, 54, 64
4, 46516, Note_off_c, 1, 57, 64
4, 46848, Control_c, 1, 64, 0
4, 46848, Note_on_c, 1, 57, 107
4, 46848, Note_on_c, 1, 52, 104
4, 46848, Note_on_c, 1, 61, 104
4, 46944, Control_c, 1, 64, 127
4, 47288, Note_off_c, 1, 52, 64
4, 47300, Note_off_c, 1, 61, 64
4, 47312, Note_off_c, 1, 57, 64
4, 47424, Note_on_c, 1, 52, 77
4, 47472, Note_off_c, 1, 52, 64
4, 47616, Control_c, 1, 64, 0
4, 47616, Note_on_c, 1, 55, 101
4, 47616, Note_on_c, 1, 60, 106
4, 47616, Note_on_c, 1, 52, 108
4, 47712, Control_c, 1, 64, 127
4, 48024, Note_off_c, 1, 52, 64
4, 48036, Note_off_c, 1, 60, 64
4, 48048, Note_off_c, 1, 55, 64
4, 48192, Note_on_c, 1, 52, 63
4, 48248, Note_off_c, 1, 52, 64
4, 48384, Control_c, 1, 64, 0
4, 48384, Note_on_c, 1, 50, 101
4, 48384, Note_on_c, 1, 59, 108
4, 48384, Note_on_c, 1, 55, 106
4, 48480, Control_c, 1, 64, 127
4, 48836, Note_off_c, 1, 50, 64
4, 48848, Note_off_c, 1, 59, 64
4, 48852, Note_off_c, 1, 55, 64
4, 49152, Control_c, 1, 64, 0
4, 49152, Note_on_c, 1, 57, 104
4, 49152, Note_on_c, 1, 52, 99
4, 49152, Note_on_c, 1, 61, 104
4, 49248, Control_c, 1, 64, 127
4, 49564, Note_off_c, 1, 52, 64
4, 49564, Note_off_c, 1, 57, 64
4, 49568, Note_off_c, 1, 61, 64
4, 49728, Note_on_c, 1, 52, 82
4, 49768, Note_off_c, 1, 52, 64
4, 49920, Control_c, 1, 64, 0
4, 49920, Note_on_c, 1, 59, 113
4, 49920, Note_on_c, 1, 54, 112
4, 49920, Note_on_c, 1, 63, 110
4, 50016, Control_c, 1, 64, 127
4, 50044, Note_off_c, 1, 63, 64
4, 50044, Note_off_c, 1, 59, 64
4, 50056, Note_off_c, 1, 54, 64
4, 50304, Control_c, 1, 64, 0
4, 50304, Note_on_c, 1, 57, 107
4, 50304, Note_on_c, 1, 52, 107
4, 50304, Note_on_c, 1, 61, 103
4, 50400, Control_c, 1, 64, 127
4, 50460, Note_off_c, 1, 61, 64
4, 50476, Note_off_c, 1, 57, 64
4, 50484, Note_off_c, 1, 52, 64
4, 50688, Control_c, 1, 64, 0
4, 50688, Note_on_c, 1, 56, 110
4, 50688, Note_on_c, 1, 52, 108
4, 50688, Note_on_c, 1, 59, 108
4, 51072, Control_c, 1, 64, 127
4, 51104, Note_off_c, 1, 59, 64
4, 51108, Note_off_c, 1, 52, 64
4, 51120, Note_off_c, 1, 56, 64
4, 51264, Note_on_c, 1, 52, 88
4, 51300, Note_off_c, 1, 52, 64
4, 51456, Control_c, 1, 64, 0
4, 51456, Note_on_c, 1, 51, 98
4, 51456, Note_on_c, 1, 59, 110
4, 51456, Note_on_c, 1, 54, 109
4, 51552, Control_c, 1, 64, 127
4, 51672, Note_off_c, 1, 59, 64
4, 51696, Note_off_c, 1, 51, 64
4, 51732, Note_off_c, 1, 54, 64
4, 51840, Note_on_c, 1, 51, 69
4, 51936, Note_on_c, 1, 54, 99
4, 52056, Note_off_c, 1, 54, 64
4, 52084, Note_off_c, 1, 51, 64
4, 52224, Control_c, 1, 64, 0
4, 52224, Note_on_c, 1, 54, 113
4, 52224, Note_on_c, 1, 50, 104
4, 52224, Note_on_c, 1, 57, 100
4, 52320, Control_c, 1, 64, 127
4, 52668, Note_off_c, 1, 50, 64
4, 52676, Note_off_c, 1, 57, 64
4, 52680, Note_off_c, 1, 54, 64
4, 52800, Note_on_c, 1, 50, 81
4, 52848, Note_off_c, 1, 50, 64
4, 52992, Control_c, 1, 64, 0
4, 52992, Note_on_c, 1, 57, 109
4, 52992, Note_on_c, 1, 52, 108
4, 52992, Note_on_c, 1, 61, 107
4, 53184, Control_c, 1, 64, 127
4, 53456, Note_off_c, 1, 52, 64
4, 53484, Note_off_c, 1, 61, 64
4, 53484, Note_off_c, 1, 57, 64
4, 53760, Control_c, 1, 64, 0
4, 53760, Note_on_c, 1, 55, 103
4, 53760, Note_on_c, 1, 60, 100
4, 53760, Note_on_c, 1, 52, 96
4, 53856, Control_c, 1, 64, 127
4, 54156, Note_off_c, 1, 52, 64
4, 54188, Note_off_c, 1, 55, 64
4, 54196, Note_off_c, 1, 60, 64
4, 54336, Note_on_c, 1, 52, 69
4, 54384, Note_off_c, 1, 52, 64
4, 54528, Control_c, 1, 64, 0
4, 54528, Note_on_c, 1, 50, 99
4, 54528, Note_on_c, 1, 55, 108
4, 54528, Note_on_c, 1, 59, 109
4, 54624, Control_c, 1, 64, 127
4, 54976, Note_off_c, 1, 59, 64
4, 54980, Note_off_c, 1, 55, 64
4, 54988, Note_off_c, 1, 50, 64
4, 55296, Control_c, 1, 64, 0
4, 55296, Note_on_c, 1, 57, 111
4, 55296, Note_on_c, 1, 52, 107
4, 55296, Note_on_c, 1, 61, 106
4, 55392, Control_c, 1, 64, 127
4, 55740, Note_off_c, 1, 61, 64
4, 55740, Note_off_c, 1, 57, 64
4, 55748, Note_off_c, 1, 52, 64
4, 55872, Note_on_c, 1, 52, 82
4, 55912, Note_off_c, 1, 52, 64
4, 56064, Control_c, 1, 64, 0
4, 56064, Note_on_c, 1, 54, 108
4, 56064, Note_on_c, 1, 63, 111
4, 56064, Note_on_c, 1, 59, 115
4, 56160, Control_c, 1, 64, 127
4, 56184, Note_off_c, 1, 59, 64
4, 56188, Note_off_c, 1, 63, 64
4, 56208, Note_off_c, 1, 54, 64
4, 56448, Control_c, 1, 64, 0
4, 56448, Note_on_c, 1, 52, 85
4, 56448, Note_on_c, 1, 57, 97
4, 56448, Note_on_c, 1, 61, 95
4, 56544, Control_c, 1, 64, 127
4, 56628, Note_off_c, 1, 61, 64
4, 56628, Note_off_c, 1, 57, 64
4, 56644, Note_off_c, 1, 52, 64
4, 56832, Control_c, 1, 64, 0
4, 56832, Note_on_c, 1, 57, 104
4, 56832, Note_on_c, 1, 52, 107
4, 56832, Note_on_c, 1, 61, 105
4, 57024, Control_c, 1, 64, 127
4, 57244, Note_off_c, 1, 61, 64
4, 57252, Note_off_c, 1, 52, 64
4, 57272, Note_off_c, 1, 57, 64
4, 57408, Note_on_c, 1, 52, 67
4, 57460, Note_off_c, 1, 52, 64
4, 57600, Control_c, 1, 64, 0
4, 57600, Note_on_c, 1, 63, 107
4, 57600, Note_on_c, 1, 54, 108
4, 57600, Note_on_c, 1, 59, 117
4, 57696, Control_c, 1, 64, 127
4, 57828, Note_off_c, 1, 63, 64
4, 57832, Note_off_c, 1, 54, 64
4, 57840, Note_off_c, 1, 59, 64
4, 57984, Note_on_c, 1, 54, 61
4, 58080, Note_on_c, 1, 59, 79
4, 58176, Note_on_c, 1, 63, 103
4, 58208, Note_off_c, 1, 59, 64
4, 58224, Note_off_c, 1, 54, 64
4, 58232, Note_off_c, 1, 63, 64
4, 58368, Control_c, 1, 64, 0
4, 58368, Note_on_c, 1, 51, 98
4, 58368, Note_on_c, 1, 56, 106
4, 58368, Note_on_c, 1, 59, 107
4, 58560, Control_c, 1, 64, 127
4, 58772, Note_off_c, 1, 59, 64
4, 58816, Note_off_c, 1, 51, 64
4, 58824, Note_off_c, 1, 56, 64
4, 58944, Note_on_c, 1, 51, 85
4, 59016, Note_off_c, 1, 51, 64
4, 59136, Control_c, 1, 64, 0
4, 59136, Note_on_c, 1, 56, 112
4, 59136, Note_on_c, 1, 52, 108
4, 59136, Note_on_c, 1, 61, 108
4, 59232, Control_c, 1, 64, 127
4, 59520, Note_on_c, 1, 59, 69
4, 59676, Note_off_c, 1, 61, 64
4, 59680, Note_off_c, 1, 52, 64
4, 59684, Note_off_c, 1, 56, 64
4, 59696, Note_off_c, 1, 59, 64
4, 59904, Control_c, 1, 64, 0
4, 59904, Note_on_c, 1, 57, 103
4, 59904, Note_on_c, 1, 52, 94
4, 59904, Note_on_c, 1, 61, 99
4, 60000, Control_c, 1, 64, 127
4, 60328, Note_off_c, 1, 57, 64
4, 60336, Note_off_c, 1, 61, 64
4, 60336, Note_off_c, 1, 52, 64
4, 60480, Note_on_c, 1, 52, 82
4, 60540, Note_off_c, 1, 52, 64
4, 60672, Control_c, 1, 64, 0
4, 60672, Note_on_c, 1, 54, 106
4, 60672, Note_on_c, 1, 63, 103
4, 60672, Note_on_c, 1, 59, 107
4, 60768, Control_c, 1, 64, 127
4, 61096, Note_off_c, 1, 54, 64
4, 61100, Note_off_c, 1, 59, 64
4, 61112, Note_off_c, 1, 63, 64
4, 61440, Control_c, 1, 64, 0
4, 61440, Note_on_c, 1, 59, 85
4, 61440, Note_on_c, 1, 56, 96
4, 61440, Note_on_c, 1, 51, 90
4, 61440, Note_on_c, 1, 54, 100
4, 61536, Control_c, 1, 64, 127
4, 61656, Note_off_c, 1, 51, 64
4, 61660, Note_off_c, 1, 59, 64
4, 61668, Note_off_c, 1, 54, 64
4, 61684, Note_off_c, 1, 56, 64
4, 61824, Note_on_c, 1, 51, 82
4, 61876, Note_off_c, 1, 51, 64
4, 62016, Control_c, 1, 64, 0
4, 62016, Note_on_c, 1, 59, 102
4, 62016, Note_on_c, 1, 56, 102
4, 62016, Note_on_c, 1, 61, 99
4, 62016, Note_on_c, 1, 52, 91
4, 62304, Control_c, 1, 64, 127
4, 62372, Note_off_c, 1, 61, 64
4, 62384, Note_off_c, 1, 56, 64
4, 62388, Note_off_c, 1, 52, 64
4, 62396, Note_off_c, 1, 59, 64
4, 62592, Note_on_c, 1, 52, 74
4, 62672, Note_off_c, 1, 52, 64
4, 62976, Control_c, 1, 64, 0
4, 62976, Note_on_c, 1, 57, 100
4, 62976, Note_on_c, 1, 52, 101
4, 62976, Note_on_c, 1, 61, 106
4, 63072, Control_c, 1, 64, 127
4, 63416, Note_off_c, 1, 61, 64
4, 63416, Note_off_c, 1, 52, 64
4, 63436, Note_off_c, 1, 57, 64
4, 63744, Control_c, 1, 64, 0
4, 63744, Note_on_c, 1, 54, 101
4, 63744, Note_on_c, 1, 63, 105
4, 63744, Note_on_c, 1, 59, 108
4, 63840, Control_c, 1, 64, 127
4, 64224, Note_on_c, 1, 57, 74
4, 64340, Note_off_c, 1, 59, 64
4, 64340, Note_off_c, 1, 63, 64
4, 64348, Note_off_c, 1, 54, 64
4, 64356, Note_off_c, 1, 57, 64
4, 64512, Control_c, 1, 64, 0
4, 64512, Note_on_c, 1, 56, 97
4, 64512, Note_on_c, 1, 59, 101
4, 64512, Note_on_c, 1, 51, 93
4, 64608, Control_c, 1, 64, 127
4, 64680, Note_off_c, 1, 59, 64
4, 64696, Note_off_c, 1, 56, 64
4, 64732, Note_off_c, 1, 51, 64
4, 64896, Note_on_c, 1, 51, 79
4, 64956, Note_off_c, 1, 51, 64
4, 65280, Control_c, 1, 64, 0
4, 65280, Note_on_c, 1, 61, 97
4, 65280, Note_on_c, 1, 56, 97
4, 65280, Note_on_c, 1, 59, 101
4, 65280, Note_on_c, 1, 52, 98
4, 65376, Control_c, 1, 64, 127
4, 65584, Note_off_c, 1, 52, 64
4, 65600, Note_off_c, 1, 61, 64
4, 65636, Note_off_c, 1, 59, 64
4, 65664, Note_on_c, 1, 52, 69
4, 65696, Note_off_c, 1, 56, 64
4, 65756, Note_off_c, 1, 52, 64
4, 66048, Control_c, 1, 64, 0
4, 66048, Note_on_c, 1, 57, 108
4, 66048, Note_on_c, 1, 52, 103
4, 66048, Note_on_c, 1, 61, 102
4, 66144, Control_c, 1, 64, 127
4, 66504, Note_off_c, 1, 52, 64
4, 66508, Note_off_c, 1, 61, 64
4, 66528, Note_off_c, 1, 57, 64
4, 66624, Note_on_c, 1, 52, 63
4, 66688, Note_off_c, 1, 52, 64
4, 66816, Control_c, 1, 64, 0
4, 66816, Note_on_c, 1, 52, 101
4, 66816, Note_on_c, 1, 56, 104
4, 66816, Note_on_c, 1, 59, 107
4, 66912, Control_c, 1, 64, 127
4, 67248, Note_off_c, 1, 52, 64
4, 67276, Note_off_c, 1, 59, 64
4, 67276, Note_off_c, 1, 56, 64
4, 67392, Note_on_c, 1, 52, 80
4, 67452, Note_off_c, 1, 52, 64
4, 67584, Control_c, 1, 64, 0
4, 67584, Note_on_c, 1, 52, 111
4, 67584, Note_on_c, 1, 57, 108
4, 67584, Note_on_c, 1, 61, 106
4, 67680, Control_c, 1, 64, 127
4, 68016, Note_off_c, 1, 57, 64
4, 68024, Note_off_c, 1, 61, 64
4, 68040, Note_off_c, 1, 52, 64
4, 68160, Note_on_c, 1, 52, 73
4, 68204, Note_off_c, 1, 52, 64
4, 68352, Control_c, 1, 64, 0
4, 68352, Note_on_c, 1, 63, 105
4, 68352, Note_on_c, 1, 54, 104
4, 68352, Note_on_c, 1, 59, 111
4, 68448, Control_c, 1, 64, 127
4, 68932, Note_off_c, 1, 59, 64
4, 68940, Note_off_c, 1, 54, 64
4, 68940, Note_off_c, 1, 63, 64
4, 69120, Note_on_c, 1, 56, 102
4, 69120, Note_on_c, 1, 52, 94
4, 69120, Note_on_c, 1, 59, 101
4, 69600, Control_c, 1, 64, 127
4, 69604, Note_off_c, 1, 52, 64
4, 69652, Note_off_c, 1, 59, 64
4, 69684, Note_off_c, 1, 56, 64
4, 69888, Control_c, 1, 64, 0
4, 69888, Note_on_c, 1, 52, 105
4, 69888, Note_on_c, 1, 57, 106
4, 69888, Note_on_c, 1, 61, 106
4, 70032, Note_off_c, 1, 61, 64
4, 70048, Note_off_c, 1, 57, 64
4, 70064, Note_off_c, 1, 52, 64
4, 70080, Control_c, 1, 64, 127
4, 70176, Control_c, 1, 64, 0
4, 70272, Note_on_c, 1, 52, 89
4, 70272, Note_on_c, 1, 59, 91
4, 70272, Note_on_c, 1, 56, 95
4, 70356, Note_off_c, 1, 52, 64
4, 70360, Note_off_c, 1, 59, 64
4, 70376, Note_off_c, 1, 56, 64
4, 70464, Note_on_c, 1, 54, 111
4, 70464, Note_on_c, 1, 51, 110
4, 70464, Note_on_c, 1, 59, 111
4, 70944, Control_c, 1, 64, 127
4, 71104, Note_off_c, 1, 59, 64
4, 71104, Note_off_c, 1, 51, 64
4, 71120, Note_off_c, 1, 54, 64
4, 71232, Note_on_c, 1, 51, 84
4, 71312, Note_off_c, 1, 51, 64
4, 71424, Control_c, 1, 64, 0
4, 71424, Note_on_c, 1, 52, 105
4, 71424, Note_on_c, 1, 56, 107
4, 71424, Note_on_c, 1, 59, 105
4, 71520, Control_c, 1, 64, 127
4, 71652, Note_off_c, 1, 56, 64
4, 71656, Note_off_c, 1, 52, 64
4, 71668, Note_off_c, 1, 59, 64
4, 71808, Note_on_c, 1, 52, 75
4, 71868, Note_off_c, 1, 52, 64
4, 72000, Control_c, 1, 64, 0
4, 72000, Note_on_c, 1, 57, 99
4, 72000, Note_on_c, 1, 61, 106
4, 72000, Note_on_c, 1, 52, 106
4, 72384, Control_c, 1, 64, 127
4, 72668, Note_off_c, 1, 52, 64
4, 72680, Note_off_c, 1, 61, 64
4, 72684, Note_off_c, 1, 57, 64
4, 72768, Note_on_c, 1, 52, 86
4, 72840, Note_off_c, 1, 52, 64
4, 72960, Control_c, 1, 64, 0
4, 72960, Note_on_c, 1, 52, 104
4, 72960, Note_on_c, 1, 59, 106
4, 72960, Note_on_c, 1, 56, 110
4, 73440, Control_c, 1, 64, 127
4, 73496, Note_off_c, 1, 52, 64
4, 73552, Note_off_c, 1, 56, 64
4, 73552, Note_off_c, 1, 59, 64
4, 73728, Control_c, 1, 64, 0
4, 73728, Note_on_c, 1, 52, 102
4, 73728, Note_on_c, 1, 57, 103
4, 73728, Note_on_c, 1, 61, 108
4, 73824, Control_c, 1, 64, 127
4, 74272, Note_off_c, 1, 52, 64
4, 74280, Note_off_c, 1, 57, 64
4, 74304, Note_off_c, 1, 61, 64
4, 74496, Control_c, 1, 64, 0
4, 74496, Note_on_c, 1, 54, 112
4, 74496, Note_on_c, 1, 63, 112
4, 74496, Note_on_c, 1, 59, 116
4, 74592, Control_c, 1, 64, 127
4, 74792, Note_off_c, 1, 54, 64
4, 74808, Note_off_c, 1, 63, 64
4, 74840, Note_off_c, 1, 59, 64
4, 74880, Note_on_c, 1, 54, 86
4, 74984, Note_off_c, 1, 54, 64
4, 75264, Control_c, 1, 64, 0
4, 75264, Note_on_c, 1, 60, 111
4, 75264, Note_on_c, 1, 64, 112
4, 75264, Note_on_c, 1, 55, 110
4, 75360, Control_c, 1, 64, 127
4, 75592, Note_off_c, 1, 55, 64
4, 75660, Note_off_c, 1, 64, 64
4, 75680, Note_off_c, 1, 60, 64
4, 75840, Note_on_c, 1, 55, 85
4, 75884, Note_off_c, 1, 55, 64
4, 76032, Control_c, 1, 64, 0
4, 76032, Note_on_c, 1, 62, 112
4, 76032, Note_on_c, 1, 54, 111
4, 76032, Note_on_c, 1, 57, 110
4, 76128, Control_c, 1, 64, 127
4, 76452, Note_off_c, 1, 57, 64
4, 76452, Note_off_c, 1, 54, 64
4, 76488, Note_off_c, 1, 62, 64
4, 76512, Note_on_c, 1, 54, 93
4, 76608, Note_on_c, 1, 57, 90
4, 76636, Note_off_c, 1, 54, 64
4, 76700, Note_off_c, 1, 57, 64
4, 76800, Control_c, 1, 64, 0
4, 76800, Note_on_c, 1, 57, 106
4, 76800, Note_on_c, 1, 62, 108
4, 76800, Note_on_c, 1, 54, 108
4, 76800, Note_on_c, 1, 59, 111
4, 76896, Control_c, 1, 64, 127
4, 77092, Note_off_c, 1, 54, 64
4, 77112, Note_off_c, 1, 62, 64
4, 77160, Note_off_c, 1, 57, 64
4, 77180, Note_off_c, 1, 59, 64
4, 77568, Control_c, 1, 64, 0
4, 77568, Note_on_c, 1, 55, 99
4, 77568, Note_on_c, 1, 59, 105
4, 77568, Note_on_c, 1, 52, 88
4, 77568, Note_on_c, 1, 62, 87
4, 77664, Control_c, 1, 64, 127
4, 77804, Note_off_c, 1, 62, 64
4, 77816, Note_off_c, 1, 52, 64
4, 77836, Note_off_c, 1, 59, 64
4, 77840, Note_off_c, 1, 55, 64
4, 77952, Note_on_c, 1, 52, 79
4, 78048, Note_on_c, 1, 55, 91
4, 78144, Note_on_c, 1, 59, 102
4, 78200, Note_off_c, 1, 55, 64
4, 78200, Note_off_c, 1, 52, 64
4, 78208, Note_off_c, 1, 59, 64
4, 78336, Control_c, 1, 64, 0
4, 78336, Note_on_c, 1, 60, 108
4, 78336, Note_on_c, 1, 55, 104
4, 78336, Note_on_c, 1, 52, 98
4, 78432, Control_c, 1, 64, 127
4, 78616, Note_off_c, 1, 52, 64
4, 78632, Note_off_c, 1, 60, 64
4, 78660, Note_off_c, 1, 55, 64
4, 78720, Note_on_c, 1, 52, 93
4, 78912, Note_off_c, 1, 52, 64
4, 78912, Note_on_c, 1, 55, 91
4, 78972, Note_off_c, 1, 55, 64
4, 79104, Control_c, 1, 64, 0
4, 79104, Note_on_c, 1, 54, 101
4, 79104, Note_on_c, 1, 57, 102
4, 79104, Note_on_c, 1, 62, 99
4, 79200, Control_c, 1, 64, 127
4, 79348, Note_off_c, 1, 57, 64
4, 79360, Note_off_c, 1, 54, 64
4, 79368, Note_off_c, 1, 62, 64
4, 79680, Note_on_c, 1, 54, 90
4, 79724, Note_off_c, 1, 54, 64
4, 79872, Control_c, 1, 64, 0
4, 79872, Note_on_c, 1, 62, 105
4, 79872, Note_on_c, 1, 57, 101
4, 79872, Note_on_c, 1, 59, 102
4, 79872, Note_on_c, 1, 54, 104
4, 79968, Control_c, 1, 64, 127
4, 80112, Note_off_c, 1, 62, 64
4, 80124, Note_off_c, 1, 59, 64
4, 80124, Note_off_c, 1, 57, 64
4, 80128, Note_off_c, 1, 54, 64
4, 80256, Note_on_c, 1, 54, 92
4, 80448, Note_on_c, 1, 57, 99
4, 80464, Note_off_c, 1, 54, 64
4, 80508, Note_off_c, 1, 57, 64
4, 80640, Control_c, 1, 64, 0
4, 80640, Note_on_c, 1, 55, 96
4, 80640, Note_on_c, 1, 59, 106
4, 80640, Note_on_c, 1, 52, 96
4, 80736, Control_c, 1, 64, 127
4, 81024, Note_on_c, 1, 64, 112
4, 81116, Note_off_c, 1, 52, 64
4, 81196, Note_off_c, 1, 64, 64
4, 81216, Note_on_c, 1, 52, 70
4, 81224, Note_off_c, 1, 59, 64
4, 81248, Note_off_c, 1, 55, 64
4, 81296, Note_off_c, 1, 52, 64
4, 81408, Control_c, 1, 64, 0
4, 81408, Note_on_c, 1, 55, 102
4, 81408, Note_on_c, 1, 52, 109
4, 81408, Note_on_c, 1, 60, 106
4, 81504, Control_c, 1, 64, 127
4, 81824, Note_off_c, 1, 52, 64
4, 81840, Note_off_c, 1, 60, 64
4, 81844, Note_off_c, 1, 55, 64
4, 81888, Note_on_c, 1, 52, 85
4, 81984, Note_on_c, 1, 55, 103
4, 82040, Note_off_c, 1, 52, 64
4, 82048, Note_off_c, 1, 55, 64
4, 82176, Control_c, 1, 64, 0
4, 82176, Note_on_c, 1, 57, 106
4, 82176, Note_on_c, 1, 54, 100
4, 82176, Note_on_c, 1, 62, 104
4, 82272, Control_c, 1, 64, 127
4, 82440, Note_off_c, 1, 62, 64
4, 82440, Note_off_c, 1, 54, 64
4, 82444, Note_off_c, 1, 57, 64
4, 82560, Note_on_c, 1, 54, 90
4, 82736, Note_off_c, 1, 54, 64
4, 82752, Note_on_c, 1, 57, 96
4, 82812, Note_off_c, 1, 57, 64
4, 82944, Control_c, 1, 64, 0
4, 82944, Note_on_c, 1, 59, 108
4, 82944, Note_on_c, 1, 57, 106
4, 82944, Note_on_c, 1, 62, 104
4, 82944, Note_on_c, 1, 54, 106
4, 83040, Control_c, 1, 64, 127
4, 83172, Note_off_c, 1, 54, 64
4, 83180, Note_off_c, 1, 62, 64
4, 83236, Note_off_c, 1, 59, 64
4, 83240, Note_off_c, 1, 57, 64
4, 83328, Note_on_c, 1, 54, 90
4, 83520, Note_on_c, 1, 57, 86
4, 83528, Note_off_c, 1, 54, 64
4, 83568, Note_off_c, 1, 57, 64
4, 83712, Control_c, 1, 64, 0
4, 83712, Note_on_c, 1, 64, 99
4, 83712, Note_on_c, 1, 59, 106
4, 83712, Note_on_c, 1, 55, 103
4, 83712, Note_on_c, 1, 52, 91
4, 83808, Control_c, 1, 64, 127
4, 83936, Note_off_c, 1, 52, 64
4, 83940, Note_off_c, 1, 64, 64
4, 83956, Note_off_c, 1, 55, 64
4, 83960, Note_off_c, 1, 59, 64
4, 84096, Control_c, 1, 64, 0
4, 84096, Note_on_c, 1, 55, 93
4, 84096, Note_on_c, 1, 62, 101
4, 84096, Note_on_c, 1, 52, 74
4, 84096, Note_on_c, 1, 59, 98
4, 84192, Control_c, 1, 64, 127
4, 84204, Note_off_c, 1, 52, 64
4, 84244, Note_off_c, 1, 62, 64
4, 84268, Note_off_c, 1, 59, 64
4, 84284, Note_off_c, 1, 55, 64
4, 84480, Control_c, 1, 64, 0
4, 84480, Note_on_c, 1, 55, 105
4, 84480, Note_on_c, 1, 60, 105
4, 84480, Note_on_c, 1, 52, 107
4, 84576, Control_c, 1, 64, 127
4, 84920, Note_off_c, 1, 52, 64
4, 84940, Note_off_c, 1, 55, 64
4, 85008, Note_off_c, 1, 60, 64
4, 85056, Note_on_c, 1, 52, 82
4, 85104, Note_off_c, 1, 52, 64
4, 85248, Control_c, 1, 64, 0
4, 85248, Note_on_c, 1, 59, 102
4, 85248, Note_on_c, 1, 62, 99
4, 85248, Note_on_c, 1, 50, 86
4, 85248, Note_on_c, 1, 55, 101
4, 85344, Control_c, 1, 64, 127
4, 85692, Note_off_c, 1, 62, 64
4, 85696, Note_off_c, 1, 50, 64
4, 85708, Note_off_c, 1, 55, 64
4, 85736, Note_off_c, 1, 59, 64
4, 85824, Note_on_c, 1, 50, 77
4, 85880, Note_off_c, 1, 50, 64
4, 86016, Control_c, 1, 64, 0
4, 86016, Note_on_c, 1, 52, 105
4, 86016, Note_on_c, 1, 55, 98
4, 86016, Note_on_c, 1, 60, 102
4, 86112, Control_c, 1, 64, 127
4, 86440, Note_off_c, 1, 52, 64
4, 86444, Note_off_c, 1, 60, 64
4, 86444, Note_off_c, 1, 55, 64
4, 86592, Note_on_c, 1, 52, 88
4, 86624, Note_off_c, 1, 52, 64
4, 86784, Control_c, 1, 64, 0
4, 86784, Note_on_c, 1, 57, 114
4, 86784, Note_on_c, 1, 54, 113
4, 86784, Note_on_c, 1, 62, 109
4, 86884, Note_off_c, 1, 62, 64
4, 86884, Note_off_c, 1, 54, 64
4, 86896, Note_off_c, 1, 57, 64
4, 87552, Note_on_c, 1, 52, 93
4, 87552, Note_on_c, 1, 60, 85
4, 87552, Note_on_c, 1, 55, 98
4, 87648, Control_c, 1, 64, 127
4, 87992, Note_off_c, 1, 52, 64
4, 88024, Note_off_c, 1, 55, 64
4, 88028, Note_off_c, 1, 60, 64
4, 88320, Control_c, 1, 64, 0
4, 88320, Note_on_c, 1, 57, 92
4, 88320, Note_on_c, 1, 62, 88
4, 88320, Note_on_c, 1, 54, 82
4, 88512, Control_c, 1, 64, 127
4, 88848, Note_off_c, 1, 57, 64
4, 88856, Note_off_c, 1, 54, 64
4, 88856, Note_off_c, 1, 62, 64
4, 89088, Control_c, 1, 64, 0
4, 89088, Note_on_c, 1, 62, 95
4, 89088, Note_on_c, 1, 59, 90
4, 89088, Note_on_c, 1, 54, 92
4, 89280, Control_c, 1, 64, 127
4, 89548, Note_off_c, 1, 54, 64
4, 89548, Note_off_c, 1, 59, 64
4, 89548, Note_off_c, 1, 62, 64
4, 89856, Control_c, 1, 64, 0
4, 89856, Note_on_c, 1, 59, 95
4, 89856, Note_on_c, 1, 55, 92
4, 89856, Note_on_c, 1, 52, 67
4, 89856, Note_on_c, 1, 64, 83
4, 90144, Control_c, 1, 64, 127
4, 90368, Note_off_c, 1, 64, 64
4, 90372, Note_off_c, 1, 52, 64
4, 90388, Note_off_c, 1, 55, 64
4, 90388, Note_off_c, 1, 59, 64
4, 90624, Control_c, 1, 64, 0
4, 90624, Note_on_c, 1, 60, 83
4, 90624, Note_on_c, 1, 55, 89
4, 90624, Note_on_c, 1, 52, 62
4, 90720, Control_c, 1, 64, 127
4, 91148, Note_off_c, 1, 52, 64
4, 91172, Note_off_c, 1, 55, 64
4, 91196, Note_off_c, 1, 60, 64
4, 91392, Control_c, 1, 64, 0
4, 91392, Note_on_c, 1, 57, 86
4, 91392, Note_on_c, 1, 62, 82
4, 91392, Note_on_c, 1, 54, 79
4, 91680, Control_c, 1, 64, 127
4, 91904, Note_off_c, 1, 57, 64
4, 91912, Note_off_c, 1, 54, 64
4, 91912, Note_off_c, 1, 62, 64
4, 92160, Control_c, 1, 64, 0
4, 92160, Note_on_c, 1, 59, 92
4, 92160, Note_on_c, 1, 57, 90
4, 92160, Note_on_c, 1, 62, 86
4, 92160, Note_on_c, 1, 54, 68
4, 92544, Control_c, 1, 64, 127
4, 92652, Note_off_c, 1, 54, 64
4, 92656, Note_off_c, 1, 57, 64
4, 92664, Note_off_c, 1, 62, 64
4, 92664, Note_off_c, 1, 59, 64
4, 92928, Control_c, 1, 64, 0
4, 92928, Note_on_c, 1, 55, 88
4, 92928, Note_on_c, 1, 64, 67
4, 92928, Note_on_c, 1, 59, 98
4, 92928, Note_on_c, 1, 52, 61
4, 93120, Control_c, 1, 64, 127
4, 93168, Note_off_c, 1, 64, 64
4, 93312, Note_on_c, 1, 62, 114
4, 93432, Note_off_c, 1, 52, 64
4, 93472, Note_off_c, 1, 59, 64
4, 93476, Note_off_c, 1, 55, 64
4, 93480, Note_off_c, 1, 62, 64
4, 93696, Control_c, 1, 64, 0
4, 93696, Note_on_c, 1, 55, 115
4, 93696, Note_on_c, 1, 52, 112
4, 93696, Note_on_c, 1, 60, 109
4, 93792, Control_c, 1, 64, 127
4, 93920, Note_off_c, 1, 52, 64
4, 93924, Note_off_c, 1, 55, 64
4, 93932, Note_off_c, 1, 60, 64
4, 94080, Note_on_c, 1, 52, 88
4, 94176, Note_on_c, 1, 55, 105
4, 94272, Note_on_c, 1, 60, 105
4, 94300, Note_off_c, 1, 52, 64
4, 94308, Note_off_c, 1, 55, 64
4, 94344, Note_off_c, 1, 60, 64
4, 94464, Control_c, 1, 64, 0
4, 94464, Note_on_c, 1, 57, 102
4, 94464, Note_on_c, 1, 62, 104
4, 94464, Note_on_c, 1, 54, 108
4, 94560, Control_c, 1, 64, 127
4, 94688, Note_off_c, 1, 54, 64
4, 94688, Note_off_c, 1, 62, 64
4, 94700, Note_off_c, 1, 57, 64
4, 94848, Note_on_c, 1, 54, 89
4, 95024, Note_off_c, 1, 54, 64
4, 95040, Note_on_c, 1, 57, 94
4, 95080, Note_off_c, 1, 57, 64
4, 95232, Control_c, 1, 64, 0
4, 95232, Note_on_c, 1, 57, 113
4, 95232, Note_on_c, 1, 54, 109
4, 95232, Note_on_c, 1, 59, 108
4, 95232, Note_on_c, 1, 62, 110
4, 95328, Control_c, 1, 64, 127
4, 95436, Note_off_c, 1, 62, 64
4, 95452, Note_off_c, 1, 54, 64
4, 95472, Note_off_c, 1, 59, 64
4, 95476, Note_off_c, 1, 57, 64
4, 95616, Note_on_c, 1, 54, 81
4, 95808, Note_on_c, 1, 57, 94
4, 95836, Note_off_c, 1, 54, 64
4, 95840, Note_off_c, 1, 57, 64
4, 96000, Control_c, 1, 64, 0
4, 96000, Note_on_c, 1, 59, 108
4, 96000, Note_on_c, 1, 55, 103
4, 96000, Note_on_c, 1, 52, 96
4, 96096, Control_c, 1, 64, 127
4, 96384, Note_on_c, 1, 64, 108
4, 96488, Note_off_c, 1, 64, 64
4, 96596, Note_off_c, 1, 59, 64
4, 96612, Note_off_c, 1, 55, 64
4, 96620, Note_off_c, 1, 52, 64
4, 96768, Control_c, 1, 64, 0
4, 96768, Note_on_c, 1, 55, 98
4, 96768, Note_on_c, 1, 60, 103
4, 96768, Note_on_c, 1, 52, 101
4, 96864, Control_c, 1, 64, 127
4, 97052, Note_off_c, 1, 52, 64
4, 97068, Note_off_c, 1, 55, 64
4, 97076, Note_off_c, 1, 60, 64
4, 97152, Note_on_c, 1, 52, 83
4, 97344, Note_on_c, 1, 55, 89
4, 97368, Note_off_c, 1, 52, 64
4, 97424, Note_off_c, 1, 55, 64
4, 97536, Control_c, 1, 64, 0
4, 97536, Note_on_c, 1, 59, 106
4, 97536, Note_on_c, 1, 50, 90
4, 97536, Note_on_c, 1, 55, 103
4, 97536, Note_on_c, 1, 62, 103
4, 97632, Control_c, 1, 64, 127
4, 97764, Note_off_c, 1, 62, 64
4, 97800, Note_off_c, 1, 55, 64
4, 97804, Note_off_c, 1, 59, 64
4, 97808, Note_off_c, 1, 50, 64
4, 97920, Note_on_c, 1, 50, 90
4, 98016, Note_on_c, 1, 55, 95
4, 98112, Note_on_c, 1, 59, 106
4, 98160, Note_off_c, 1, 50, 64
4, 98176, Note_off_c, 1, 55, 64
4, 98180, Note_off_c, 1, 59, 64
4, 98304, Control_c, 1, 64, 0
4, 98304, Note_on_c, 1, 55, 100
4, 98304, Note_on_c, 1, 52, 102
4, 98304, Note_on_c, 1, 60, 107
4, 98400, Control_c, 1, 64, 127
4, 98556, Note_off_c, 1, 60, 64
4, 98560, Note_off_c, 1, 55, 64
4, 98564, Note_off_c, 1, 52, 64
4, 98688, Note_on_c, 1, 52, 88
4, 98880, Note_on_c, 1, 55, 98
4, 98888, Note_off_c, 1, 52, 64
4, 98948, Note_off_c, 1, 55, 64
4, 99072, Control_c, 1, 64, 0
4, 99072, Note_on_c, 1, 57, 102
4, 99072, Note_on_c, 1, 54, 102
4, 99072, Note_on_c, 1, 62, 99
4, 99168, Control_c, 1, 64, 127
4, 99280, Note_off_c, 1, 62, 64
4, 99300, Note_off_c, 1, 54, 64
4, 99312, Note_off_c, 1, 57, 64
4, 99456, Note_on_c, 1, 57, 102
4, 99456, Note_on_c, 1, 54, 96
4, 99596, Note_off_c, 1, 54, 64
4, 99596, Note_off_c, 1, 57, 64
4, 99840, Control_c, 1, 64, 0
4, 99840, Note_on_c, 1, 55, 103
4, 99840, Note_on_c, 1, 52, 104
4, 99840, Note_on_c, 1, 60, 97
4, 99936, Control_c, 1, 64, 127
4, 100164, Note_off_c, 1, 52, 64
4, 100292, Note_off_c, 1, 55, 64
4, 100304, Note_off_c, 1, 60, 64
4, 100416, Note_on_c, 1, 52, 84
4, 100476, Note_off_c, 1, 52, 64
4, 100608, Control_c, 1, 64, 0
4, 100608, Note_on_c, 1, 55, 100
4, 100608, Note_on_c, 1, 59, 109
4, 100608, Note_on_c, 1, 62, 101
4, 100704, Control_c, 1, 64, 127
4, 100768, Note_off_c, 1, 62, 64
4, 100784, Note_off_c, 1, 59, 64
4, 100792, Note_off_c, 1, 55, 64
4, 100992, Note_on_c, 1, 50, 89
4, 101088, Note_on_c, 1, 55, 100
4, 101184, Note_on_c, 1, 59, 109
4, 101196, Note_off_c, 1, 50, 64
4, 101228, Note_off_c, 1, 55, 64
4, 101280, Note_on_c, 1, 50, 85
4, 101296, Note_off_c, 1, 59, 64
4, 101316, Note_off_c, 1, 50, 64
4, 101376, Control_c, 1, 64, 0
4, 101376, Note_on_c, 1, 55, 112
4, 101376, Note_on_c, 1, 60, 110
4, 101472, Control_c, 1, 64, 127
4, 101564, Note_off_c, 1, 60, 64
4, 101584, Note_off_c, 1, 55, 64
4, 101760, Note_on_c, 1, 52, 89
4, 101952, Note_on_c, 1, 55, 100
4, 101952, Note_on_c, 1, 60, 87
4, 101980, Note_off_c, 1, 60, 64
4, 101984, Note_off_c, 1, 52, 64
4, 102036, Note_off_c, 1, 55, 64
4, 102144, Control_c, 1, 64, 0
4, 102144, Note_on_c, 1, 57, 108
4, 102144, Note_on_c, 1, 62, 107
4, 102144, Note_on_c, 1, 54, 104
4, 102240, Control_c, 1, 64, 127
4, 102304, Note_off_c, 1, 57, 64
4, 102308, Note_off_c, 1, 54, 64
4, 102316, Note_off_c, 1, 62, 64
4, 102528, Note_on_c, 1, 66, 114
4, 102624, Note_on_c, 1, 54, 91
4, 102656, Note_off_c, 1, 66, 64
4, 102720, Note_on_c, 1, 57, 93
4, 102756, Note_off_c, 1, 54, 64
4, 102760, Note_off_c, 1, 57, 64
4, 102912, Control_c, 1, 64, 0
4, 102912, Note_on_c, 1, 55, 104
4, 102912, Note_on_c, 1, 60, 106
4, 102912, Note_on_c, 1, 52, 95
4, 103008, Control_c, 1, 64, 127
4, 103148, Note_off_c, 1, 52, 64
4, 103164, Note_off_c, 1, 55, 64
4, 103172, Note_off_c, 1, 60, 64
4, 103296, Note_on_c, 1, 52, 85
4, 103488, Note_on_c, 1, 55, 89
4, 103528, Note_off_c, 1, 52, 64
4, 103552, Note_off_c, 1, 55, 64
4, 103680, Control_c, 1, 64, 0
4, 103680, Note_on_c, 1, 55, 103
4, 103680, Note_on_c, 1, 50, 96
4, 103680, Note_on_c, 1, 59, 110
4, 103776, Control_c, 1, 64, 127
4, 103860, Note_off_c, 1, 59, 64
4, 103868, Note_off_c, 1, 55, 64
4, 103876, Note_off_c, 1, 50, 64
4, 104064, Note_on_c, 1, 55, 104
4, 104064, Note_on_c, 1, 50, 90
4, 104064, Note_on_c, 1, 59, 108
4, 104156, Note_off_c, 1, 50, 64
4, 104256, Note_on_c, 1, 50, 88
4, 104288, Note_off_c, 1, 55, 64
4, 104316, Note_off_c, 1, 50, 64
4, 104316, Note_off_c, 1, 59, 64
4, 104448, Control_c, 1, 64, 0
4, 104448, Note_on_c, 1, 60, 101
4, 104448, Note_on_c, 1, 52, 104
4, 104448, Note_on_c, 1, 55, 98
4, 104544, Control_c, 1, 64, 127
4, 104668, Note_off_c, 1, 55, 64
4, 104684, Note_off_c, 1, 52, 64
4, 104692, Note_off_c, 1, 60, 64
4, 104832, Note_on_c, 1, 55, 103
4, 104832, Note_on_c, 1, 60, 99
4, 104832, Note_on_c, 1, 52, 102
4, 104928, Note_off_c, 1, 52, 64
4, 105020, Note_off_c, 1, 60, 64
4, 105024, Note_on_c, 1, 52, 101
4, 105032, Note_off_c, 1, 55, 64
4, 105076, Note_off_c, 1, 52, 64
4, 105216, Control_c, 1, 64, 0
4, 105216, Note_on_c, 1, 54, 104
4, 105216, Note_on_c, 1, 57, 107
4, 105216, Note_on_c, 1, 62, 102
4, 105312, Control_c, 1, 64, 127
4, 105408, Note_off_c, 1, 62, 64
4, 105412, Note_off_c, 1, 57, 64
4, 105412, Note_off_c, 1, 54, 64
4, 105600, Note_on_c, 1, 54, 103
4, 105600, Note_on_c, 1, 57, 101
4, 105600, Note_on_c, 1, 62, 103
4, 105696, Note_off_c, 1, 54, 64
4, 105780, Note_off_c, 1, 62, 64
4, 105792, Note_on_c, 1, 54, 94
4, 105808, Note_off_c, 1, 57, 64
4, 105824, Note_off_c, 1, 54, 64
4, 105984, Control_c, 1, 64, 0
4, 105984, Note_on_c, 1, 55, 100
4, 105984, Note_on_c, 1, 59, 101
4, 105984, Note_on_c, 1, 50, 85
4, 106080, Control_c, 1, 64, 127
4, 106424, Note_off_c, 1, 50, 64
4, 106560, Note_on_c, 1, 50, 82
4, 106592, Note_off_c, 1, 55, 64
4, 106620, Note_off_c, 1, 50, 64
4, 106632, Note_off_c, 1, 59, 64
4, 106752, Control_c, 1, 64, 0
4, 106752, Note_on_c, 1, 52, 98
4, 106752, Note_on_c, 1, 60, 96
4, 106752, Note_on_c, 1, 55, 100
4, 106848, Control_c, 1, 64, 127
4, 106940, Note_off_c, 1, 55, 64
4, 106944, Note_off_c, 1, 52, 64
4, 106956, Note_off_c, 1, 60, 64
4, 107136, Control_c, 1, 64, 0
4, 107136, Note_on_c, 1, 55, 92
4, 107136, Note_on_c, 1, 50, 74
4, 107136, Note_on_c, 1, 59, 94
4, 107208, Note_off_c, 1, 59, 64
4, 107208, Note_off_c, 1, 50, 64
4, 107212, Note_off_c, 1, 55, 64
4, 107328, Note_on_c, 1, 57, 101
4, 107328, Note_on_c, 1, 54, 102
4, 107328, Note_on_c, 1, 50, 85
4, 107712, Control_c, 1, 64, 127
4, 107760, Note_off_c, 1, 50, 64
4, 107776, Note_off_c, 1, 54, 64
4, 107784, Note_off_c, 1, 57, 64
4, 107904, Note_on_c, 1, 50, 86
4, 108000, Note_on_c, 1, 54, 102
4, 108096, Note_on_c, 1, 57, 94
4, 108112, Note_off_c, 1, 50, 64
4, 108124, Note_off_c, 1, 54, 64
4, 108132, Note_off_c, 1, 57, 64
4, 108288, Control_c, 1, 64, 0
4, 108288, Note_on_c, 1, 55, 106
4, 108288, Note_on_c, 1, 50, 97
4, 108288, Note_on_c, 1, 59, 112
4, 108384, Control_c, 1, 64, 127
4, 108512, Note_off_c, 1, 50, 64
4, 108516, Note_off_c, 1, 55, 64
4, 108520, Note_off_c, 1, 59, 64
4, 108864, Control_c, 1, 64, 0
4, 108864, Note_on_c, 1, 52, 100
4, 108864, Note_on_c, 1, 60, 99
4, 108864, Note_on_c, 1, 55, 103
4, 109248, Control_c, 1, 64, 127
4, 109480, Note_off_c, 1, 52, 64
4, 109496, Note_off_c, 1, 55, 64
4, 109528, Note_off_c, 1, 60, 64
4, 109632, Note_on_c, 1, 52, 83
4, 109668, Note_off_c, 1, 52, 64
4, 109824, Control_c, 1, 64, 0
4, 109824, Note_on_c, 1, 55, 102
4, 109824, Note_on_c, 1, 50, 93
4, 109824, Note_on_c, 1, 59, 101
4, 109920, Control_c, 1, 64, 127
4, 110104, Note_off_c, 1, 50, 64
4, 110120, Note_off_c, 1, 55, 64
4, 110132, Note_off_c, 1, 59, 64
4, 110208, Note_on_c, 1, 50, 94
4, 110304, Note_on_c, 1, 55, 94
4, 110400, Note_on_c, 1, 59, 102
4, 110420, Note_off_c, 1, 55, 64
4, 110436, Note_off_c, 1, 50, 64
4, 110460, Note_off_c, 1, 59, 64
4, 110592, Control_c, 1, 64, 0
4, 110592, Note_on_c, 1, 60, 108
4, 110592, Note_on_c, 1, 55, 108
4, 110592, Note_on_c, 1, 52, 101
4, 110688, Control_c, 1, 64, 127
4, 110856, Note_off_c, 1, 52, 64
4, 110932, Note_off_c, 1, 55, 64
4, 110976, Note_on_c, 1, 52, 93
4, 111168, Note_on_c, 1, 55, 83
4, 111188, Note_off_c, 1, 52, 64
4, 111200, Note_off_c, 1, 60, 64
4, 111252, Note_off_c, 1, 55, 64
4, 111360, Control_c, 1, 64, 0
4, 111360, Note_on_c, 1, 57, 104
4, 111360, Note_on_c, 1, 54, 103
4, 111360, Note_on_c, 1, 62, 104
4, 111456, Control_c, 1, 64, 127
4, 111624, Note_off_c, 1, 54, 64
4, 111744, Note_on_c, 1, 54, 78
4, 111848, Note_off_c, 1, 54, 64
4, 111852, Note_off_c, 1, 62, 64
4, 111880, Note_off_c, 1, 57, 64
4, 112128, Note_on_c, 1, 55, 108
4, 112128, Note_on_c, 1, 50, 98
4, 112128, Note_on_c, 1, 59, 105
4, 114908, Note_off_c, 1, 50, 64
4, 114936, Note_off_c, 1, 59, 64
4, 114936, Note_off_c, 1, 55, 64
4, 116736, End_track
5, 0, Start_track
5, 0, Title_t, "Atmospher"
5, 32, Control_c, 2, 120, 0
5, 64, Control_c, 2, 121, 0
5, 96, Control_c, 2, 11, 127
5, 128, Control_c, 2, 121, 0
5, 160, Control_c, 2, 0, 0
5, 192, Control_c, 2, 32, 0
5, 224, Program_c, 2, 99
5, 256, Control_c, 2, 7, 110
5, 288, Control_c, 2, 10, 64
5, 320, Control_c, 2, 91, 80
5, 352, Control_c, 2, 93, 50
5, 384, Control_c, 2, 101, 0
5, 416, Control_c, 2, 100, 0
5, 448, Control_c, 2, 6, 2
5, 1536, Note_on_c, 2, 68, 97
5, 1824, Control_c, 2, 64, 127
5, 1900, Note_off_c, 2, 68, 64
5, 2016, Note_on_c, 2, 64, 93
5, 2112, Note_off_c, 2, 64, 64
5, 2112, Note_on_c, 2, 66, 98
5, 2196, Note_off_c, 2, 66, 64
5, 2208, Note_on_c, 2, 68, 91
5, 2304, Note_off_c, 2, 68, 64
5, 2304, Control_c, 2, 64, 0
5, 2304, Note_on_c, 2, 69, 104
5, 2400, Control_c, 2, 64, 127
5, 2484, Note_off_c, 2, 69, 64
5, 2688, Control_c, 2, 64, 0
5, 2688, Note_on_c, 2, 68, 95
5, 2784, Control_c, 2, 64, 127
5, 2792, Note_off_c, 2, 68, 64
5, 2880, Control_c, 2, 64, 0
5, 2880, Note_on_c, 2, 66, 96
5, 3072, Control_c, 2, 64, 127
5, 3388, Note_off_c, 2, 66, 64
5, 3552, Control_c, 2, 64, 0
5, 3552, Note_on_c, 2, 63, 93
5, 3648, Note_off_c, 2, 63, 64
5, 3648, Note_on_c, 2, 64, 94
5, 3744, Note_on_c, 2, 66, 98
5, 3752, Note_off_c, 2, 64, 64
5, 3840, Note_on_c, 2, 68, 106
5, 3860, Note_off_c, 2, 66, 64
5, 4032, Control_c, 2, 64, 127
5, 4048, Note_off_c, 2, 68, 64
5, 4224, Control_c, 2, 64, 0
5, 4224, Note_on_c, 2, 66, 90
5, 4356, Note_off_c, 2, 66, 64
5, 4416, Note_on_c, 2, 64, 98
5, 4608, Control_c, 2, 64, 127
5, 5032, Note_off_c, 2, 64, 64
5, 5184, Note_on_c, 2, 63, 87
5, 5280, Note_off_c, 2, 63, 64
5, 5280, Note_on_c, 2, 64, 86
5, 5348, Note_off_c, 2, 64, 64
5, 5376, Control_c, 2, 64, 0
5, 5376, Note_on_c, 2, 64, 101
5, 5472, Control_c, 2, 64, 127
5, 5604, Note_off_c, 2, 64, 64
5, 5760, Note_on_c, 2, 71, 96
5, 5848, Note_off_c, 2, 71, 64
5, 5856, Note_on_c, 2, 69, 98
5, 5944, Note_off_c, 2, 69, 64
5, 5952, Note_on_c, 2, 68, 97
5, 6124, Note_off_c, 2, 68, 64
5, 6144, Control_c, 2, 64, 0
5, 6144, Note_on_c, 2, 61, 98
5, 6240, Control_c, 2, 64, 127
5, 6588, Note_off_c, 2, 61, 64
5, 6720, Note_on_c, 2, 63, 95
5, 6816, Control_c, 2, 64, 0
5, 6912, Control_c, 2, 64, 127
5, 6952, Note_off_c, 2, 63, 64
5, 7104, Control_c, 2, 64, 0
5, 7104, Note_on_c, 2, 64, 99
5, 7296, Control_c, 2, 64, 127
5, 7312, Note_off_c, 2, 64, 64
5, 7392, Control_c, 2, 64, 0
5, 7392, Note_on_c, 2, 66, 108
5, 7488, Control_c, 2, 64, 127
5, 7536, Note_off_c, 2, 66, 64
5, 7680, Control_c, 2, 64, 0
5, 7680, Note_on_c, 2, 68, 99
5, 7776, Control_c, 2, 64, 127
5, 7980, Note_off_c, 2, 68, 64
5, 8160, Note_on_c, 2, 64, 90
5, 8244, Note_off_c, 2, 64, 64
5, 8256, Note_on_c, 2, 66, 98
5, 8328, Note_off_c, 2, 66, 64
5, 8352, Note_on_c, 2, 68, 79
5, 8448, Control_c, 2, 64, 0
5, 8448, Note_on_c, 2, 69, 97
5, 8468, Note_off_c, 2, 68, 64
5, 8544, Control_c, 2, 64, 127
5, 8660, Note_off_c, 2, 69, 64
5, 8832, Control_c, 2, 64, 0
5, 8832, Note_on_c, 2, 68, 90
5, 8976, Note_off_c, 2, 68, 64
5, 9024, Note_on_c, 2, 66, 97
5, 9216, Control_c, 2, 64, 127
5, 9620, Note_off_c, 2, 66, 64
5, 9696, Control_c, 2, 64, 0
5, 9696, Note_on_c, 2, 63, 96
5, 9792, Note_on_c, 2, 64, 90
5, 9796, Note_off_c, 2, 63, 64
5, 9888, Note_on_c, 2, 66, 102
5, 9892, Note_off_c, 2, 64, 64
5, 9984, Note_on_c, 2, 68, 106
5, 10004, Note_off_c, 2, 66, 64
5, 10080, Control_c, 2, 64, 127
5, 10188, Note_off_c, 2, 68, 64
5, 10368, Note_on_c, 2, 66, 88
5, 10500, Note_off_c, 2, 66, 64
5, 10560, Control_c, 2, 64, 0
5, 10560, Note_on_c, 2, 64, 101
5, 10752, Control_c, 2, 64, 127
5, 11220, Note_off_c, 2, 64, 64
5, 11328, Control_c, 2, 64, 0
5, 11328, Note_on_c, 2, 63, 89
5, 11424, Note_off_c, 2, 63, 64
5, 11424, Note_on_c, 2, 64, 93
5, 11488, Note_off_c, 2, 64, 64
5, 11520, Note_on_c, 2, 64, 99
5, 11616, Control_c, 2, 64, 127
5, 11764, Note_off_c, 2, 64, 64
5, 11904, Note_on_c, 2, 71, 97
5, 11964, Note_off_c, 2, 71, 64
5, 12000, Note_on_c, 2, 69, 94
5, 12080, Note_off_c, 2, 69, 64
5, 12096, Note_on_c, 2, 68, 92
5, 12284, Note_off_c, 2, 68, 64
5, 12288, Control_c, 2, 64, 0
5, 12288, Note_on_c, 2, 61, 98
5, 12384, Control_c, 2, 64, 127
5, 12844, Note_off_c, 2, 61, 64
5, 12864, Control_c, 2, 64, 0
5, 12864, Note_on_c, 2, 63, 94
5, 13056, Control_c, 2, 64, 127
5, 13276, Note_off_c, 2, 63, 64
5, 13440, Control_c, 2, 64, 0
5, 13440, Note_on_c, 2, 64, 77
5, 13536, Control_c, 2, 64, 127
5, 13604, Note_off_c, 2, 64, 64
5, 13824, Control_c, 2, 64, 0
5, 13824, Note_on_c, 2, 59, 75
5, 13824, Note_on_c, 2, 56, 64
5, 14112, Control_c, 2, 64, 127
5, 14288, Note_off_c, 2, 56, 64
5, 14408, Note_off_c, 2, 59, 64
5, 14592, Control_c, 2, 64, 0
5, 14592, Note_on_c, 2, 63, 64
5, 14592, Note_on_c, 2, 59, 72
5, 14688, Note_on_c, 2, 54, 43
5, 14784, Control_c, 2, 64, 127
5, 15084, Note_off_c, 2, 63, 64
5, 15108, Note_off_c, 2, 59, 64
5, 15124, Note_off_c, 2, 54, 64
5, 15360, Control_c, 2, 64, 0
5, 15360, Note_on_c, 2, 57, 71
5, 15360, Note_on_c, 2, 62, 63
5, 15456, Control_c, 2, 64, 127
5, 15612, Note_off_c, 2, 62, 64
5, 15632, Note_off_c, 2, 57, 64
5, 15744, Note_on_c, 2, 54, 78
5, 15920, Note_off_c, 2, 54, 64
5, 15936, Note_on_c, 2, 57, 80
5, 16128, Control_c, 2, 64, 0
5, 16128, Note_on_c, 2, 61, 95
5, 16320, Control_c, 2, 64, 127
5, 16324, Note_off_c, 2, 61, 64
5, 16360, Note_off_c, 2, 57, 64
5, 16512, Note_on_c, 2, 52, 51
5, 16640, Note_off_c, 2, 52, 64
5, 16896, Control_c, 2, 64, 0
5, 16896, Note_on_c, 2, 55, 80
5, 16896, Note_on_c, 2, 60, 62
5, 16992, Control_c, 2, 64, 127
5, 17032, Note_off_c, 2, 60, 64
5, 17044, Note_off_c, 2, 55, 64
5, 17280, Note_on_c, 2, 67, 96
5, 17568, Control_c, 2, 64, 0
5, 17664, Note_on_c, 2, 62, 83
5, 17664, Note_on_c, 2, 59, 65
5, 17952, Control_c, 2, 64, 127
5, 18048, Note_off_c, 2, 67, 64
5, 18076, Note_off_c, 2, 59, 64
5, 18100, Note_off_c, 2, 62, 64
5, 18240, Note_on_c, 2, 59, 57
5, 18292, Note_off_c, 2, 59, 64
5, 18432, Control_c, 2, 64, 0
5, 18432, Note_on_c, 2, 64, 83
5, 18432, Note_on_c, 2, 61, 83
5, 18432, Note_on_c, 2, 57, 64
5, 18816, Control_c, 2, 64, 127
5, 18984, Note_off_c, 2, 57, 64
5, 18988, Note_off_c, 2, 61, 64
5, 19000, Note_off_c, 2, 64, 64
5, 19200, Control_c, 2, 64, 0
5, 19200, Note_on_c, 2, 63, 84
5, 19200, Note_on_c, 2, 59, 63
5, 19296, Control_c, 2, 64, 127
5, 19412, Note_off_c, 2, 59, 64
5, 19420, Note_off_c, 2, 63, 64
5, 19584, Control_c, 2, 64, 0
5, 19584, Note_on_c, 2, 61, 85
5, 19584, Note_on_c, 2, 57, 73
5, 19680, Control_c, 2, 64, 127
5, 19708, Note_off_c, 2, 61, 64
5, 19724, Note_off_c, 2, 57, 64
5, 19968, Control_c, 2, 64, 0
5, 19968, Note_on_c, 2, 59, 80
5, 19968, Note_on_c, 2, 56, 73
5, 20256, Control_c, 2, 64, 127
5, 20384, Note_off_c, 2, 56, 64
5, 20408, Note_off_c, 2, 59, 64
5, 20544, Note_on_c, 2, 56, 50
5, 20572, Note_off_c, 2, 56, 64
5, 20736, Control_c, 2, 64, 0
5, 20736, Note_on_c, 2, 59, 80
5, 20736, Note_on_c, 2, 63, 72
5, 20928, Control_c, 2, 64, 127
5, 20952, Note_off_c, 2, 63, 64
5, 20960, Note_off_c, 2, 59, 64
5, 21120, Note_on_c, 2, 54, 57
5, 21268, Note_off_c, 2, 54, 64
5, 21504, Control_c, 2, 64, 0
5, 21504, Note_on_c, 2, 57, 71
5, 21504, Note_on_c, 2, 62, 80
5, 21504, Note_on_c, 2, 54, 61
5, 21600, Control_c, 2, 64, 127
5, 21644, Note_off_c, 2, 54, 64
5, 21676, Note_off_c, 2, 57, 64
5, 21692, Note_off_c, 2, 62, 64
5, 22272, Control_c, 2, 64, 0
5, 22272, Note_on_c, 2, 57, 74
5, 22272, Note_on_c, 2, 61, 75
5, 22368, Control_c, 2, 64, 127
5, 22388, Note_off_c, 2, 57, 64
5, 22404, Note_off_c, 2, 61, 64
5, 22656, Note_on_c, 2, 69, 99
5, 22768, Note_off_c, 2, 69, 64
5, 23040, Control_c, 2, 64, 0
5, 23040, Note_on_c, 2, 67, 83
5, 23040, Note_on_c, 2, 64, 76
5, 23040, Note_on_c, 2, 60, 58
5, 23328, Control_c, 2, 64, 127
5, 23376, Note_off_c, 2, 64, 64
5, 23396, Note_off_c, 2, 60, 64
5, 23616, Note_on_c, 2, 60, 54
5, 23720, Note_off_c, 2, 60, 64
5, 23808, Control_c, 2, 64, 0
5, 23808, Note_on_c, 2, 62, 91
5, 23808, Note_on_c, 2, 59, 67
5, 24192, Control_c, 2, 64, 127
5, 24236, Note_off_c, 2, 59, 64
5, 24268, Note_off_c, 2, 62, 64
5, 24276, Note_off_c, 2, 67, 64
5, 24384, Note_on_c, 2, 59, 77
5, 24424, Note_off_c, 2, 59, 64
5, 24576, Control_c, 2, 64, 0
5, 24576, Note_on_c, 2, 61, 88
5, 24576, Note_on_c, 2, 57, 74
5, 24960, Control_c, 2, 64, 127
5, 25020, Note_off_c, 2, 57, 64
5, 25024, Note_off_c, 2, 61, 64
5, 25344, Control_c, 2, 64, 0
5, 25344, Note_on_c, 2, 59, 90
5, 25344, Note_on_c, 2, 63, 93
5, 25440, Control_c, 2, 64, 127
5, 25540, Note_off_c, 2, 59, 64
5, 25548, Note_off_c, 2, 63, 64
5, 25728, Note_on_c, 2, 66, 87
5, 25824, Note_off_c, 2, 66, 64
5, 26112, Control_c, 2, 64, 0
5, 26112, Note_on_c, 2, 64, 90
5, 26112, Note_on_c, 2, 57, 69
5, 26112, Note_on_c, 2, 61, 94
5, 26496, Control_c, 2, 64, 127
5, 26548, Note_off_c, 2, 57, 64
5, 26688, Note_on_c, 2, 57, 67
5, 26704, Note_off_c, 2, 61, 64
5, 26708, Note_off_c, 2, 64, 64
5, 26744, Note_off_c, 2, 57, 64
5, 26880, Control_c, 2, 64, 0
5, 26880, Note_on_c, 2, 63, 96
5, 26880, Note_on_c, 2, 59, 85
5, 26976, Control_c, 2, 64, 127
5, 27068, Note_off_c, 2, 63, 64
5, 27264, Note_on_c, 2, 66, 79
5, 27368, Note_off_c, 2, 66, 64
5, 27396, Note_off_c, 2, 59, 64
5, 27648, Control_c, 2, 64, 0
5, 27648, Note_on_c, 2, 59, 63
5, 27648, Note_on_c, 2, 63, 80
5, 27648, Note_on_c, 2, 66, 76
5, 27840, Control_c, 2, 64, 127
5, 28052, Note_off_c, 2, 63, 64
5, 28064, Note_off_c, 2, 59, 64
5, 28068, Note_off_c, 2, 66, 64
5, 28224, Note_on_c, 2, 59, 56
5, 28416, Control_c, 2, 64, 0
5, 28416, Note_on_c, 2, 61, 75
5, 28416, Note_on_c, 2, 64, 89
5, 28512, Control_c, 2, 64, 127
5, 28612, Note_off_c, 2, 64, 64
5, 28612, Note_off_c, 2, 61, 64
5, 28628, Note_off_c, 2, 59, 64
5, 28800, Note_on_c, 2, 59, 64
5, 28992, Note_on_c, 2, 61, 86
5, 29028, Note_off_c, 2, 59, 64
5, 29184, Control_c, 2, 64, 0
5, 29184, Note_on_c, 2, 57, 71
5, 29280, Control_c, 2, 64, 127
5, 29432, Note_off_c, 2, 57, 64
5, 29432, Note_off_c, 2, 61, 64
5, 29568, Note_on_c, 2, 57, 68
5, 29568, Note_on_c, 2, 61, 83
5, 29704, Note_off_c, 2, 57, 64
5, 29708, Note_off_c, 2, 61, 64
5, 29952, Control_c, 2, 64, 0
5, 29952, Note_on_c, 2, 63, 93
5, 29952, Note_on_c, 2, 59, 79
5, 30048, Control_c, 2, 64, 127
5, 30144, Note_off_c, 2, 63, 64
5, 30336, Note_on_c, 2, 66, 81
5, 30448, Note_off_c, 2, 59, 64
5, 30464, Note_off_c, 2, 66, 64
5, 30720, Control_c, 2, 64, 0
5, 30720, Note_on_c, 2, 63, 92
5, 30720, Note_on_c, 2, 59, 70
5, 30720, Note_on_c, 2, 68, 83
5, 30816, Control_c, 2, 64, 127
5, 30912, Note_off_c, 2, 59, 64
5, 30932, Note_off_c, 2, 68, 64
5, 30940, Note_off_c, 2, 63, 64
5, 31104, Note_on_c, 2, 59, 61
5, 31296, Control_c, 2, 64, 0
5, 31296, Note_on_c, 2, 61, 73
5, 31296, Note_on_c, 2, 64, 88
5, 31680, Control_c, 2, 64, 127
5, 31712, Note_off_c, 2, 64, 64
5, 31712, Note_off_c, 2, 59, 64
5, 31716, Note_off_c, 2, 61, 64
5, 31872, Note_on_c, 2, 59, 69
5, 31960, Note_off_c, 2, 59, 64
5, 32256, Control_c, 2, 64, 0
5, 32256, Note_on_c, 2, 57, 75
5, 32256, Note_on_c, 2, 61, 85
5, 32448, Control_c, 2, 64, 127
5, 32624, Note_off_c, 2, 57, 64
5, 32636, Note_off_c, 2, 61, 64
5, 32832, Note_on_c, 2, 57, 66
5, 33024, Control_c, 2, 64, 0
5, 33024, Note_on_c, 2, 59, 90
5, 33024, Note_on_c, 2, 63, 94
5, 33048, Note_off_c, 2, 57, 64
5, 33216, Control_c, 2, 64, 127
5, 33448, Note_off_c, 2, 59, 64
5, 33452, Note_off_c, 2, 63, 64
5, 33792, Control_c, 2, 64, 0
5, 33792, Note_on_c, 2, 63, 87
5, 33792, Note_on_c, 2, 59, 87
5, 33792, Note_on_c, 2, 56, 68
5, 33984, Control_c, 2, 64, 127
5, 34224, Note_off_c, 2, 56, 64
5, 34256, Note_off_c, 2, 59, 64
5, 34268, Note_off_c, 2, 63, 64
5, 34368, Note_on_c, 2, 56, 76
5, 34448, Note_off_c, 2, 56, 64
5, 34560, Control_c, 2, 64, 0
5, 34560, Note_on_c, 2, 59, 88
5, 34560, Note_on_c, 2, 56, 79
5, 34560, Note_on_c, 2, 64, 96
5, 34656, Control_c, 2, 64, 127
5, 35004, Note_off_c, 2, 64, 64
5, 35004, Note_off_c, 2, 59, 64
5, 35016, Note_off_c, 2, 56, 64
5, 35328, Control_c, 2, 64, 0
5, 35328, Note_on_c, 2, 64, 84
5, 35328, Note_on_c, 2, 61, 82
5, 35520, Control_c, 2, 64, 127
5, 35780, Note_off_c, 2, 61, 64
5, 35828, Note_off_c, 2, 64, 64
5, 36096, Control_c, 2, 64, 0
5, 36096, Note_on_c, 2, 59, 79
5, 36096, Note_on_c, 2, 64, 92
5, 36480, Control_c, 2, 64, 127
5, 36620, Note_off_c, 2, 59, 64
5, 36632, Note_off_c, 2, 64, 64
5, 36864, Control_c, 2, 64, 0
5, 36864, Note_on_c, 2, 57, 71
5, 36864, Note_on_c, 2, 61, 93
5, 37152, Control_c, 2, 64, 127
5, 37296, Note_off_c, 2, 61, 64
5, 37336, Note_off_c, 2, 57, 64
5, 37440, Note_on_c, 2, 64, 80
5, 37500, Note_off_c, 2, 64, 64
5, 37632, Control_c, 2, 64, 0
5, 37632, Note_on_c, 2, 63, 89
5, 37632, Note_on_c, 2, 59, 88
5, 38016, Control_c, 2, 64, 127
5, 38124, Note_off_c, 2, 59, 64
5, 38152, Note_off_c, 2, 63, 64
5, 38400, Control_c, 2, 64, 0
5, 38400, Note_on_c, 2, 68, 88
5, 38688, Control_c, 2, 64, 127
5, 38732, Note_off_c, 2, 68, 64
5, 38880, Note_on_c, 2, 64, 83
5, 38948, Note_off_c, 2, 64, 64
5, 38976, Note_on_c, 2, 66, 84
5, 39064, Note_off_c, 2, 66, 64
5, 39072, Note_on_c, 2, 68, 90
5, 39156, Note_off_c, 2, 68, 64
5, 39168, Control_c, 2, 64, 0
5, 39168, Note_on_c, 2, 69, 104
5, 39264, Control_c, 2, 64, 127
5, 39384, Note_off_c, 2, 69, 64
5, 39552, Control_c, 2, 64, 0
5, 39552, Note_on_c, 2, 68, 99
5, 39648, Control_c, 2, 64, 127
5, 39684, Note_off_c, 2, 68, 64
5, 39744, Control_c, 2, 64, 0
5, 39744, Note_on_c, 2, 66, 104
5, 39936, Control_c, 2, 64, 127
5, 40336, Note_off_c, 2, 66, 64
5, 40416, Control_c, 2, 64, 0
5, 40416, Note_on_c, 2, 63, 95
5, 40512, Note_on_c, 2, 64, 89
5, 40528, Note_off_c, 2, 63, 64
5, 40604, Note_off_c, 2, 64, 64
5, 40608, Note_on_c, 2, 66, 99
5, 40704, Note_on_c, 2, 68, 98
5, 40724, Note_off_c, 2, 66, 64
5, 40896, Control_c, 2, 64, 127
5, 40916, Note_off_c, 2, 68, 64
5, 41088, Control_c, 2, 64, 0
5, 41088, Note_on_c, 2, 66, 93
5, 41236, Note_off_c, 2, 66, 64
5, 41280, Note_on_c, 2, 64, 99
5, 41664, Control_c, 2, 64, 127
5, 41880, Note_off_c, 2, 64, 64
5, 42048, Control_c, 2, 64, 0
5, 42048, Note_on_c, 2, 63, 89
5, 42144, Note_on_c, 2, 64, 99
5, 42160, Note_off_c, 2, 63, 64
5, 42216, Note_off_c, 2, 64, 64
5, 42240, Note_on_c, 2, 64, 108
5, 42432, Control_c, 2, 64, 127
5, 42456, Note_off_c, 2, 64, 64
5, 42624, Control_c, 2, 64, 0
5, 42624, Note_on_c, 2, 71, 98
5, 42720, Note_off_c, 2, 71, 64
5, 42720, Note_on_c, 2, 69, 101
5, 42816, Note_off_c, 2, 69, 64
5, 42816, Note_on_c, 2, 68, 97
5, 43008, Note_on_c, 2, 61, 99
5, 43016, Note_off_c, 2, 68, 64
5, 43200, Control_c, 2, 64, 127
5, 43636, Note_off_c, 2, 61, 64
5, 43776, Control_c, 2, 64, 0
5, 43776, Note_on_c, 2, 63, 89
5, 43872, Control_c, 2, 64, 127
5, 43996, Note_off_c, 2, 63, 64
5, 44160, Control_c, 2, 64, 0
5, 44160, Note_on_c, 2, 61, 85
5, 44256, Control_c, 2, 64, 127
5, 44300, Note_off_c, 2, 61, 64
5, 44544, Control_c, 2, 64, 0
5, 44544, Note_on_c, 2, 59, 82
5, 44832, Control_c, 2, 64, 127
5, 45032, Note_off_c, 2, 59, 64
5, 45120, Note_on_c, 2, 56, 66
5, 45160, Note_off_c, 2, 56, 64
5, 45312, Control_c, 2, 64, 0
5, 45312, Note_on_c, 2, 59, 76
5, 45312, Note_on_c, 2, 63, 83
5, 45504, Control_c, 2, 64, 127
5, 45788, Note_off_c, 2, 63, 64
5, 45836, Note_off_c, 2, 59, 64
5, 46080, Control_c, 2, 64, 0
5, 46080, Note_on_c, 2, 57, 69
5, 46080, Note_on_c, 2, 62, 82
5, 46080, Note_on_c, 2, 66, 83
5, 46272, Control_c, 2, 64, 127
5, 46524, Note_off_c, 2, 62, 64
5, 46524, Note_off_c, 2, 57, 64
5, 46536, Note_off_c, 2, 66, 64
5, 46848, Control_c, 2, 64, 0
5, 46848, Note_on_c, 2, 61, 64
5, 46848, Note_on_c, 2, 57, 63
5, 46848, Note_on_c, 2, 64, 74
5, 46944, Control_c, 2, 64, 127
5, 47100, Note_off_c, 2, 64, 64
5, 47100, Note_off_c, 2, 61, 64
5, 47108, Note_off_c, 2, 57, 64
5, 47232, Note_on_c, 2, 57, 60
5, 47388, Note_off_c, 2, 57, 64
5, 47424, Note_on_c, 2, 61, 76
5, 47480, Note_off_c, 2, 61, 64
5, 47616, Control_c, 2, 64, 0
5, 47616, Note_on_c, 2, 64, 98
5, 47616, Note_on_c, 2, 60, 96
5, 47808, Control_c, 2, 64, 127
5, 48000, Note_on_c, 2, 55, 63
5, 48084, Note_off_c, 2, 60, 64
5, 48104, Note_off_c, 2, 64, 64
5, 48116, Note_off_c, 2, 55, 64
5, 48384, Control_c, 2, 64, 0
5, 48384, Note_on_c, 2, 59, 92
5, 48384, Note_on_c, 2, 62, 95
5, 48384, Note_on_c, 2, 55, 58
5, 48576, Control_c, 2, 64, 127
5, 48776, Note_off_c, 2, 55, 64
5, 48776, Note_off_c, 2, 62, 64
5, 48824, Note_off_c, 2, 59, 64
5, 48960, Note_on_c, 2, 55, 56
5, 49008, Note_off_c, 2, 55, 64
5, 49152, Control_c, 2, 64, 0
5, 49152, Note_on_c, 2, 57, 85
5, 49152, Note_on_c, 2, 61, 98
5, 49248, Control_c, 2, 64, 127
5, 49692, Note_off_c, 2, 61, 64
5, 49696, Note_off_c, 2, 57, 64
5, 49920, Control_c, 2, 64, 0
5, 49920, Note_on_c, 2, 63, 75
5, 49920, Note_on_c, 2, 59, 83
5, 50016, Control_c, 2, 64, 127
5, 50096, Note_off_c, 2, 59, 64
5, 50104, Note_off_c, 2, 63, 64
5, 50304, Control_c, 2, 64, 0
5, 50304, Note_on_c, 2, 61, 82
5, 50304, Note_on_c, 2, 64, 90
5, 50400, Control_c, 2, 64, 127
5, 50476, Note_off_c, 2, 64, 64
5, 50480, Note_off_c, 2, 61, 64
5, 50688, Control_c, 2, 64, 0
5, 50688, Note_on_c, 2, 59, 82
5, 50688, Note_on_c, 2, 64, 73
5, 50688, Note_on_c, 2, 56, 75
5, 51072, Control_c, 2, 64, 127
5, 51104, Note_off_c, 2, 56, 64
5, 51112, Note_off_c, 2, 64, 64
5, 51112, Note_off_c, 2, 59, 64
5, 51456, Control_c, 2, 64, 0
5, 51456, Note_on_c, 2, 63, 76
5, 51456, Note_on_c, 2, 59, 82
5, 51456, Note_on_c, 2, 54, 74
5, 51648, Control_c, 2, 64, 127
5, 51872, Note_off_c, 2, 59, 64
5, 51880, Note_off_c, 2, 63, 64
5, 51888, Note_off_c, 2, 54, 64
5, 52032, Note_on_c, 2, 54, 56
5, 52076, Note_off_c, 2, 54, 64
5, 52224, Control_c, 2, 64, 0
5, 52224, Note_on_c, 2, 57, 93
5, 52224, Note_on_c, 2, 54, 80
5, 52416, Control_c, 2, 64, 127
5, 52608, Note_on_c, 2, 62, 93
5, 52712, Note_off_c, 2, 54, 64
5, 52712, Note_off_c, 2, 57, 64
5, 52748, Note_off_c, 2, 62, 64
5, 52992, Control_c, 2, 64, 0
5, 52992, Note_on_c, 2, 61, 91
5, 52992, Note_on_c, 2, 57, 83
5, 53088, Control_c, 2, 64, 127
5, 53264, Note_off_c, 2, 61, 64
5, 53452, Note_off_c, 2, 57, 64
5, 53568, Note_on_c, 2, 64, 71
5, 53600, Note_off_c, 2, 64, 64
5, 53760, Control_c, 2, 64, 0
5, 53760, Note_on_c, 2, 64, 81
5, 53760, Note_on_c, 2, 60, 93
5, 53760, Note_on_c, 2, 55, 71
5, 54048, Control_c, 2, 64, 127
5, 54164, Note_off_c, 2, 55, 64
5, 54200, Note_off_c, 2, 64, 64
5, 54216, Note_off_c, 2, 60, 64
5, 54528, Control_c, 2, 64, 0
5, 54528, Note_on_c, 2, 59, 81
5, 54528, Note_on_c, 2, 55, 59
5, 54528, Note_on_c, 2, 62, 87
5, 54816, Control_c, 2, 64, 127
5, 54944, Note_off_c, 2, 55, 64
5, 54992, Note_off_c, 2, 62, 64
5, 54992, Note_off_c, 2, 59, 64
5, 55104, Note_on_c, 2, 55, 78
5, 55152, Note_off_c, 2, 55, 64
5, 55296, Control_c, 2, 64, 0
5, 55296, Note_on_c, 2, 57, 86
5, 55296, Note_on_c, 2, 61, 90
5, 55392, Control_c, 2, 64, 127
5, 55680, Note_on_c, 2, 69, 82
5, 55768, Note_off_c, 2, 61, 64
5, 55768, Note_off_c, 2, 57, 64
5, 55828, Note_off_c, 2, 69, 64
5, 56064, Control_c, 2, 64, 0
5, 56064, Note_on_c, 2, 63, 98
5, 56064, Note_on_c, 2, 59, 79
5, 56160, Control_c, 2, 64, 127
5, 56248, Note_off_c, 2, 63, 64
5, 56252, Note_off_c, 2, 59, 64
5, 56448, Control_c, 2, 64, 0
5, 56448, Note_on_c, 2, 57, 74
5, 56448, Note_on_c, 2, 61, 82
5, 56448, Note_on_c, 2, 64, 93
5, 56544, Control_c, 2, 64, 127
5, 56592, Note_off_c, 2, 64, 64
5, 56608, Note_off_c, 2, 61, 64
5, 56624, Note_off_c, 2, 57, 64
5, 56832, Note_on_c, 2, 61, 88
5, 56832, Note_on_c, 2, 57, 78
5, 56832, Note_on_c, 2, 64, 97
5, 57120, Control_c, 2, 64, 127
5, 57216, Note_off_c, 2, 57, 64
5, 57240, Note_off_c, 2, 61, 64
5, 57244, Note_off_c, 2, 64, 64
5, 57312, Note_on_c, 2, 57, 84
5, 57408, Note_on_c, 2, 61, 88
5, 57484, Note_off_c, 2, 57, 64
5, 57504, Note_off_c, 2, 61, 64
5, 57504, Note_on_c, 2, 64, 98
5, 57596, Note_off_c, 2, 64, 64
5, 57600, Control_c, 2, 64, 0
5, 57600, Note_on_c, 2, 59, 93
5, 57600, Note_on_c, 2, 63, 96
5, 57696, Control_c, 2, 64, 127
5, 57984, Note_on_c, 2, 66, 93
5, 58140, Note_off_c, 2, 63, 64
5, 58152, Note_off_c, 2, 59, 64
5, 58156, Note_off_c, 2, 66, 64
5, 58368, Control_c, 2, 64, 0
5, 58368, Note_on_c, 2, 63, 86
5, 58368, Note_on_c, 2, 59, 76
5, 58368, Note_on_c, 2, 66, 84
5, 58560, Control_c, 2, 64, 127
5, 58744, Note_off_c, 2, 66, 64
5, 58760, Note_off_c, 2, 59, 64
5, 58804, Note_off_c, 2, 63, 64
5, 59136, Control_c, 2, 64, 0
5, 59136, Note_on_c, 2, 64, 99
5, 59136, Note_on_c, 2, 61, 91
5, 59136, Note_on_c, 2, 59, 76
5, 59328, Control_c, 2, 64, 127
5, 59404, Note_off_c, 2, 59, 64
5, 59460, Note_off_c, 2, 61, 64
5, 59476, Note_off_c, 2, 64, 64
5, 59520, Note_on_c, 2, 59, 76
5, 59608, Note_off_c, 2, 59, 64
5, 59904, Control_c, 2, 64, 0
5, 59904, Note_on_c, 2, 61, 79
5, 59904, Note_on_c, 2, 57, 70
5, 59904, Note_on_c, 2, 64, 94
5, 60000, Control_c, 2, 64, 127
5, 60276, Note_off_c, 2, 64, 64
5, 60284, Note_off_c, 2, 57, 64
5, 60292, Note_off_c, 2, 61, 64
5, 60384, Note_on_c, 2, 57, 77
5, 60480, Note_on_c, 2, 61, 85
5, 60492, Note_off_c, 2, 57, 64
5, 60552, Note_off_c, 2, 61, 64
5, 60672, Control_c, 2, 64, 0
5, 60672, Note_on_c, 2, 59, 92
5, 60672, Note_on_c, 2, 63, 103
5, 60768, Control_c, 2, 64, 127
5, 61056, Note_on_c, 2, 66, 92
5, 61192, Note_off_c, 2, 66, 64
5, 61204, Note_off_c, 2, 63, 64
5, 61204, Note_off_c, 2, 59, 64
5, 61440, Control_c, 2, 64, 0
5, 61440, Note_on_c, 2, 59, 72
5, 61440, Note_on_c, 2, 63, 88
5, 61440, Note_on_c, 2, 68, 86
5, 61536, Control_c, 2, 64, 127
5, 61676, Note_off_c, 2, 68, 64
5, 61676, Note_off_c, 2, 59, 64
5, 61700, Note_off_c, 2, 63, 64
5, 61824, Note_on_c, 2, 59, 75
5, 61880, Note_off_c, 2, 59, 64
5, 62016, Control_c, 2, 64, 0
5, 62016, Note_on_c, 2, 59, 74
5, 62016, Note_on_c, 2, 61, 90
5, 62016, Note_on_c, 2, 64, 97
5, 62304, Control_c, 2, 64, 127
5, 62408, Note_off_c, 2, 64, 64
5, 62428, Note_off_c, 2, 61, 64
5, 62440, Note_off_c, 2, 59, 64
5, 62592, Note_on_c, 2, 59, 69
5, 62652, Note_off_c, 2, 59, 64
5, 62976, Control_c, 2, 64, 0
5, 62976, Note_on_c, 2, 57, 73
5, 62976, Note_on_c, 2, 61, 89
5, 63072, Control_c, 2, 64, 127
5, 63356, Note_off_c, 2, 61, 64
5, 63364, Note_off_c, 2, 57, 64
5, 63552, Note_on_c, 2, 57, 68
5, 63612, Note_off_c, 2, 57, 64
5, 63744, Control_c, 2, 64, 0
5, 63744, Note_on_c, 2, 63, 97
5, 63744, Note_on_c, 2, 59, 98
5, 63744, Note_on_c, 2, 54, 72
5, 63840, Control_c, 2, 64, 127
5, 63984, Note_off_c, 2, 54, 64
5, 63984, Note_off_c, 2, 59, 64
5, 64024, Note_off_c, 2, 63, 64
5, 64128, Note_on_c, 2, 54, 74
5, 64224, Note_on_c, 2, 59, 96
5, 64320, Note_on_c, 2, 63, 103
5, 64348, Note_off_c, 2, 59, 64
5, 64348, Note_off_c, 2, 54, 64
5, 64376, Note_off_c, 2, 63, 64
5, 64512, Control_c, 2, 64, 0
5, 64512, Note_on_c, 2, 56, 93
5, 64512, Note_on_c, 2, 63, 104
5, 64512, Note_on_c, 2, 59, 105
5, 64608, Control_c, 2, 64, 127
5, 64776, Note_off_c, 2, 56, 64
5, 64896, Note_on_c, 2, 56, 76
5, 65008, Note_off_c, 2, 56, 64
5, 65016, Note_off_c, 2, 59, 64
5, 65040, Note_off_c, 2, 63, 64
5, 65280, Control_c, 2, 64, 0
5, 65280, Note_on_c, 2, 59, 76
5, 65280, Note_on_c, 2, 56, 70
5, 65280, Note_on_c, 2, 64, 89
5, 65376, Control_c, 2, 64, 127
5, 65816, Note_off_c, 2, 64, 64
5, 65840, Note_off_c, 2, 56, 64
5, 65844, Note_off_c, 2, 59, 64
5, 66048, Control_c, 2, 64, 0
5, 66048, Note_on_c, 2, 57, 78
5, 66048, Note_on_c, 2, 64, 84
5, 66048, Note_on_c, 2, 61, 93
5, 66144, Control_c, 2, 64, 127
5, 66492, Note_off_c, 2, 57, 64
5, 66500, Note_off_c, 2, 64, 64
5, 66508, Note_off_c, 2, 61, 64
5, 66624, Note_on_c, 2, 57, 67
5, 66684, Note_off_c, 2, 57, 64
5, 66816, Control_c, 2, 64, 0
5, 66816, Note_on_c, 2, 59, 91
5, 66816, Note_on_c, 2, 56, 70
5, 67008, Control_c, 2, 64, 127
5, 67392, Note_on_c, 2, 64, 94
5, 67408, Note_off_c, 2, 59, 64
5, 67412, Note_off_c, 2, 56, 64
5, 67584, Control_c, 2, 64, 0
5, 67584, Note_on_c, 2, 61, 93
5, 67584, Note_on_c, 2, 57, 81
5, 67680, Control_c, 2, 64, 127
5, 67752, Note_off_c, 2, 64, 64
5, 67968, Note_on_c, 2, 69, 90
5, 68020, Note_off_c, 2, 61, 64
5, 68032, Note_off_c, 2, 57, 64
5, 68116, Note_off_c, 2, 69, 64
5, 68352, Control_c, 2, 64, 0
5, 68352, Note_on_c, 2, 59, 77
5, 68352, Note_on_c, 2, 63, 89
5, 68352, Note_on_c, 2, 66, 92
5, 68448, Control_c, 2, 64, 127
5, 68736, Note_on_c, 2, 71, 93
5, 68848, Note_off_c, 2, 66, 64
5, 68868, Note_off_c, 2, 71, 64
5, 68888, Note_off_c, 2, 63, 64
5, 68896, Note_off_c, 2, 59, 64
5, 69120, Control_c, 2, 64, 0
5, 69120, Note_on_c, 2, 68, 97
5, 69504, Control_c, 2, 64, 127
5, 69504, Control_c, 2, 64, 0
5, 69600, Note_on_c, 2, 64, 86
5, 69604, Note_off_c, 2, 68, 64
5, 69696, Note_on_c, 2, 66, 93
5, 69716, Note_off_c, 2, 64, 64
5, 69792, Note_on_c, 2, 68, 96
5, 69800, Note_off_c, 2, 66, 64
5, 69888, Note_on_c, 2, 69, 102
5, 69916, Note_off_c, 2, 68, 64
5, 70272, Note_on_c, 2, 68, 99
5, 70284, Note_off_c, 2, 69, 64
5, 70464, Note_on_c, 2, 66, 104
5, 70468, Note_off_c, 2, 68, 64
5, 71136, Note_off_c, 2, 66, 64
5, 71136, Note_on_c, 2, 63, 102
5, 71232, Note_on_c, 2, 64, 96
5, 71252, Note_off_c, 2, 63, 64
5, 71328, Note_off_c, 2, 64, 64
5, 71328, Note_on_c, 2, 66, 95
5, 71424, Note_on_c, 2, 68, 99
5, 71444, Note_off_c, 2, 66, 64
5, 71808, Note_on_c, 2, 66, 103
5, 71816, Note_off_c, 2, 68, 64
5, 72000, Note_on_c, 2, 64, 102
5, 72012, Note_off_c, 2, 66, 64
5, 72480, Control_c, 2, 64, 127
5, 72588, Note_off_c, 2, 64, 64
5, 72768, Control_c, 2, 64, 0
5, 72768, Note_on_c, 2, 63, 91
5, 72864, Note_off_c, 2, 63, 64
5, 72864, Note_on_c, 2, 64, 95
5, 72940, Note_off_c, 2, 64, 64
5, 72960, Note_on_c, 2, 64, 106
5, 73152, Control_c, 2, 64, 127
5, 73168, Note_off_c, 2, 64, 64
5, 73344, Control_c, 2, 64, 0
5, 73344, Note_on_c, 2, 71, 98
5, 73440, Note_on_c, 2, 69, 101
5, 73456, Note_off_c, 2, 71, 64
5, 73532, Note_off_c, 2, 69, 64
5, 73536, Note_on_c, 2, 68, 99
5, 73728, Note_on_c, 2, 61, 95
5, 73752, Note_off_c, 2, 68, 64
5, 74112, Control_c, 2, 64, 127
5, 74276, Note_off_c, 2, 61, 64
5, 74496, Control_c, 2, 64, 0
5, 74496, Note_on_c, 2, 63, 82
5, 74496, Note_on_c, 2, 59, 88
5, 74496, Note_on_c, 2, 54, 74
5, 74880, Control_c, 2, 64, 127
5, 75008, Note_off_c, 2, 54, 64
5, 75020, Note_off_c, 2, 63, 64
5, 75040, Note_off_c, 2, 59, 64
5, 75264, Control_c, 2, 64, 0
5, 75264, Note_on_c, 2, 64, 82
5, 75264, Note_on_c, 2, 60, 99
5, 75264, Note_on_c, 2, 55, 79
5, 75360, Control_c, 2, 64, 127
5, 75648, Note_off_c, 2, 55, 64
5, 75688, Note_off_c, 2, 64, 64
5, 75700, Note_off_c, 2, 60, 64
5, 75840, Note_on_c, 2, 55, 61
5, 75876, Note_off_c, 2, 55, 64
5, 76032, Control_c, 2, 64, 0
5, 76032, Note_on_c, 2, 57, 86
5, 76032, Note_on_c, 2, 62, 99
5, 76032, Note_on_c, 2, 66, 89
5, 76128, Control_c, 2, 64, 127
5, 76444, Note_off_c, 2, 66, 64
5, 76460, Note_off_c, 2, 57, 64
5, 76488, Note_off_c, 2, 62, 64
5, 76608, Note_on_c, 2, 57, 62
5, 76664, Note_off_c, 2, 57, 64
5, 76800, Control_c, 2, 64, 0
5, 76800, Note_on_c, 2, 59, 91
5, 76800, Note_on_c, 2, 57, 82
5, 76800, Note_on_c, 2, 62, 94
5, 76896, Control_c, 2, 64, 127
5, 77032, Note_off_c, 2, 62, 64
5, 77044, Note_off_c, 2, 57, 64
5, 77056, Note_off_c, 2, 59, 64
5, 77184, Note_on_c, 2, 57, 67
5, 77352, Note_off_c, 2, 57, 64
5, 77376, Note_on_c, 2, 59, 90
5, 77432, Note_off_c, 2, 59, 64
5, 77568, Control_c, 2, 64, 0
5, 77568, Note_on_c, 2, 55, 83
5, 77568, Note_on_c, 2, 59, 99
5, 77664, Control_c, 2, 64, 127
5, 77952, Note_on_c, 2, 64, 102
5, 78128, Note_off_c, 2, 64, 64
5, 78136, Note_off_c, 2, 59, 64
5, 78136, Note_off_c, 2, 55, 64
5, 78336, Control_c, 2, 64, 0
5, 78336, Note_on_c, 2, 64, 93
5, 78336, Note_on_c, 2, 60, 91
5, 78336, Note_on_c, 2, 55, 74
5, 78432, Control_c, 2, 64, 127
5, 78740, Note_off_c, 2, 55, 64
5, 78744, Note_off_c, 2, 64, 64
5, 78764, Note_off_c, 2, 60, 64
5, 78912, Note_on_c, 2, 55, 69
5, 78984, Note_off_c, 2, 55, 64
5, 79104, Control_c, 2, 64, 0
5, 79104, Note_on_c, 2, 57, 90
5, 79104, Note_on_c, 2, 62, 100
5, 79104, Note_on_c, 2, 66, 80
5, 79200, Control_c, 2, 64, 127
5, 79528, Note_off_c, 2, 66, 64
5, 79532, Note_off_c, 2, 57, 64
5, 79548, Note_off_c, 2, 62, 64
5, 79680, Note_on_c, 2, 57, 61
5, 79716, Note_off_c, 2, 57, 64
5, 79872, Control_c, 2, 64, 0
5, 79872, Note_on_c, 2, 57, 90
5, 79872, Note_on_c, 2, 59, 99
5, 79872, Note_on_c, 2, 62, 98
5, 79968, Control_c, 2, 64, 127
5, 80104, Note_off_c, 2, 57, 64
5, 80256, Note_on_c, 2, 57, 66
5, 80360, Note_off_c, 2, 57, 64
5, 80372, Note_off_c, 2, 62, 64
5, 80388, Note_off_c, 2, 59, 64
5, 80640, Control_c, 2, 64, 0
5, 80640, Note_on_c, 2, 55, 71
5, 80640, Note_on_c, 2, 64, 81
5, 80640, Note_on_c, 2, 59, 92
5, 80736, Control_c, 2, 64, 127
5, 80852, Note_off_c, 2, 55, 64
5, 81024, Note_on_c, 2, 55, 78
5, 81044, Note_off_c, 2, 59, 64
5, 81116, Note_off_c, 2, 64, 64
5, 81196, Note_off_c, 2, 55, 64
5, 81216, Note_on_c, 2, 59, 89
5, 81324, Note_off_c, 2, 59, 64
5, 81408, Control_c, 2, 64, 0
5, 81408, Note_on_c, 2, 60, 96
5, 81408, Note_on_c, 2, 55, 86
5, 81408, Note_on_c, 2, 64, 90
5, 81696, Control_c, 2, 64, 127
5, 81800, Note_off_c, 2, 55, 64
5, 81804, Note_off_c, 2, 64, 64
5, 81808, Note_off_c, 2, 60, 64
5, 81984, Note_on_c, 2, 55, 83
5, 82036, Note_off_c, 2, 55, 64
5, 82176, Control_c, 2, 64, 0
5, 82176, Note_on_c, 2, 57, 87
5, 82176, Note_on_c, 2, 62, 94
5, 82176, Note_on_c, 2, 66, 95
5, 82272, Control_c, 2, 64, 127
5, 82600, Note_off_c, 2, 66, 64
5, 82612, Note_off_c, 2, 57, 64
5, 82652, Note_off_c, 2, 62, 64
5, 82752, Note_on_c, 2, 57, 58
5, 82788, Note_off_c, 2, 57, 64
5, 82944, Control_c, 2, 64, 0
5, 82944, Note_on_c, 2, 62, 97
5, 82944, Note_on_c, 2, 59, 100
5, 83040, Control_c, 2, 64, 127
5, 83180, Note_off_c, 2, 59, 64
5, 83192, Note_off_c, 2, 62, 64
5, 83328, Note_on_c, 2, 59, 77
5, 83464, Note_off_c, 2, 59, 64
5, 83712, Control_c, 2, 64, 0
5, 83712, Note_on_c, 2, 59, 90
5, 83712, Note_on_c, 2, 55, 73
5, 83712, Note_on_c, 2, 64, 84
5, 83808, Control_c, 2, 64, 127
5, 83928, Note_off_c, 2, 55, 64
5, 84096, Note_on_c, 2, 55, 83
5, 84232, Note_off_c, 2, 64, 64
5, 84240, Note_off_c, 2, 55, 64
5, 84240, Note_off_c, 2, 59, 64
5, 84480, Control_c, 2, 64, 0
5, 84480, Note_on_c, 2, 64, 90
5, 84480, Note_on_c, 2, 55, 71
5, 84480, Note_on_c, 2, 60, 98
5, 84672, Control_c, 2, 64, 127
5, 84884, Note_off_c, 2, 55, 64
5, 84892, Note_off_c, 2, 60, 64
5, 84908, Note_off_c, 2, 64, 64
5, 85056, Note_on_c, 2, 55, 70
5, 85084, Note_off_c, 2, 55, 64
5, 85248, Control_c, 2, 64, 0
5, 85248, Note_on_c, 2, 55, 85
5, 85248, Note_on_c, 2, 59, 93
5, 85248, Note_on_c, 2, 62, 98
5, 85632, Control_c, 2, 64, 127
5, 85652, Note_off_c, 2, 55, 64
5, 85664, Note_off_c, 2, 62, 64
5, 85664, Note_off_c, 2, 59, 64
5, 85824, Note_on_c, 2, 55, 83
5, 85876, Note_off_c, 2, 55, 64
5, 86016, Control_c, 2, 64, 0
5, 86016, Note_on_c, 2, 55, 91
5, 86016, Note_on_c, 2, 60, 101
5, 86016, Note_on_c, 2, 64, 96
5, 86112, Control_c, 2, 64, 127
5, 86240, Note_off_c, 2, 64, 64
5, 86248, Note_off_c, 2, 55, 64
5, 86264, Note_off_c, 2, 60, 64
5, 86400, Note_on_c, 2, 55, 83
5, 86460, Note_off_c, 2, 55, 64
5, 86784, Control_c, 2, 64, 0
5, 86784, Note_on_c, 2, 62, 104
5, 86784, Note_on_c, 2, 57, 104
5, 86784, Note_on_c, 2, 66, 102
5, 86900, Note_off_c, 2, 66, 64
5, 86900, Note_off_c, 2, 57, 64
5, 86908, Note_off_c, 2, 62, 64
5, 93696, Note_on_c, 2, 64, 95
5, 93696, Note_on_c, 2, 60, 100
5, 93792, Control_c, 2, 64, 127
5, 93884, Note_off_c, 2, 64, 64
5, 93896, Note_off_c, 2, 60, 64
5, 94080, Note_on_c, 2, 55, 63
5, 94200, Note_off_c, 2, 55, 64
5, 94272, Note_on_c, 2, 60, 93
5, 94316, Note_off_c, 2, 60, 64
5, 94464, Control_c, 2, 64, 0
5, 94464, Note_on_c, 2, 62, 97
5, 94464, Note_on_c, 2, 57, 90
5, 94464, Note_on_c, 2, 66, 95
5, 94560, Control_c, 2, 64, 127
5, 94684, Note_off_c, 2, 66, 64
5, 94700, Note_off_c, 2, 57, 64
5, 94700, Note_off_c, 2, 62, 64
5, 94848, Note_on_c, 2, 57, 66
5, 95068, Note_off_c, 2, 57, 64
5, 95232, Control_c, 2, 64, 0
5, 95232, Note_on_c, 2, 57, 81
5, 95232, Note_on_c, 2, 62, 96
5, 95232, Note_on_c, 2, 59, 95
5, 95328, Control_c, 2, 64, 127
5, 95584, Note_off_c, 2, 62, 64
5, 95588, Note_off_c, 2, 57, 64
5, 95628, Note_off_c, 2, 59, 64
5, 95712, Note_on_c, 2, 57, 81
5, 95796, Note_off_c, 2, 57, 64
5, 95808, Note_on_c, 2, 59, 89
5, 95864, Note_off_c, 2, 59, 64
5, 96000, Control_c, 2, 64, 0
5, 96000, Note_on_c, 2, 55, 88
5, 96000, Note_on_c, 2, 64, 96
5, 96000, Note_on_c, 2, 59, 97
5, 96096, Control_c, 2, 64, 127
5, 96228, Note_off_c, 2, 55, 64
5, 96260, Note_off_c, 2, 59, 64
5, 96384, Note_on_c, 2, 55, 83
5, 96548, Note_off_c, 2, 64, 64
5, 96576, Note_off_c, 2, 55, 64
5, 96576, Note_on_c, 2, 59, 81
5, 96628, Note_off_c, 2, 59, 64
5, 96768, Control_c, 2, 64, 0
5, 96768, Note_on_c, 2, 55, 89
5, 96768, Note_on_c, 2, 64, 85
5, 96768, Note_on_c, 2, 60, 102
5, 96960, Control_c, 2, 64, 127
5, 97120, Note_off_c, 2, 55, 64
5, 97132, Note_off_c, 2, 64, 64
5, 97136, Note_off_c, 2, 60, 64
5, 97248, Note_on_c, 2, 55, 86
5, 97340, Note_off_c, 2, 55, 64
5, 97344, Note_on_c, 2, 60, 99
5, 97384, Note_off_c, 2, 60, 64
5, 97536, Control_c, 2, 64, 0
5, 97536, Note_on_c, 2, 55, 87
5, 97536, Note_on_c, 2, 59, 92
5, 97536, Note_on_c, 2, 62, 99
5, 97728, Control_c, 2, 64, 127
5, 97812, Note_off_c, 2, 55, 64
5, 97920, Note_off_c, 2, 59, 64
5, 97924, Note_off_c, 2, 62, 64
5, 98112, Note_on_c, 2, 55, 80
5, 98168, Note_off_c, 2, 55, 64
5, 98304, Control_c, 2, 64, 0
5, 98304, Note_on_c, 2, 55, 83
5, 98304, Note_on_c, 2, 60, 96
5, 98304, Note_on_c, 2, 64, 96
5, 98400, Control_c, 2, 64, 127
5, 98508, Note_off_c, 2, 64, 64
5, 98508, Note_off_c, 2, 55, 64
5, 98512, Note_off_c, 2, 60, 64
5, 98688, Note_on_c, 2, 55, 89
5, 98736, Note_off_c, 2, 55, 64
5, 99072, Control_c, 2, 64, 0
5, 99072, Note_on_c, 2, 57, 89
5, 99072, Note_on_c, 2, 66, 91
5, 99072, Note_on_c, 2, 62, 98
5, 99168, Control_c, 2, 64, 127
5, 99300, Note_off_c, 2, 57, 64
5, 99316, Note_off_c, 2, 66, 64
5, 99340, Note_off_c, 2, 62, 64
5, 99456, Note_on_c, 2, 57, 75
5, 99528, Note_off_c, 2, 57, 64
5, 99840, Control_c, 2, 64, 0
5, 99840, Note_on_c, 2, 60, 97
5, 99840, Note_on_c, 2, 64, 96
5, 99840, Note_on_c, 2, 55, 76
5, 99936, Control_c, 2, 64, 127
5, 100196, Note_off_c, 2, 55, 64
5, 100252, Note_off_c, 2, 64, 64
5, 100292, Note_off_c, 2, 60, 64
5, 100320, Note_on_c, 2, 55, 65
5, 100404, Note_off_c, 2, 55, 64
5, 100416, Note_on_c, 2, 67, 105
5, 100468, Note_off_c, 2, 67, 64
5, 100608, Control_c, 2, 64, 0
5, 100608, Note_on_c, 2, 55, 85
5, 100608, Note_on_c, 2, 67, 101
5, 100608, Note_on_c, 2, 59, 108
5, 100608, Note_on_c, 2, 62, 106
5, 100800, Control_c, 2, 64, 127
5, 100888, Note_off_c, 2, 55, 64
5, 100912, Note_off_c, 2, 67, 64
5, 100932, Note_off_c, 2, 62, 64
5, 100944, Note_off_c, 2, 59, 64
5, 100992, Note_on_c, 2, 55, 83
5, 101088, Note_off_c, 2, 55, 64
5, 101376, Control_c, 2, 64, 0
5, 101376, Note_on_c, 2, 55, 84
5, 101376, Note_on_c, 2, 60, 94
5, 101376, Note_on_c, 2, 64, 88
5, 101472, Control_c, 2, 64, 127
5, 101592, Note_off_c, 2, 64, 64
5, 101608, Note_off_c, 2, 60, 64
5, 101612, Note_off_c, 2, 55, 64
5, 101856, Note_on_c, 2, 55, 78
5, 101952, Note_on_c, 2, 60, 101
5, 101968, Note_off_c, 2, 55, 64
5, 102004, Note_off_c, 2, 60, 64
5, 102144, Control_c, 2, 64, 0
5, 102144, Note_on_c, 2, 66, 95
5, 102144, Note_on_c, 2, 62, 101
5, 102144, Note_on_c, 2, 57, 89
5, 102240, Control_c, 2, 64, 127
5, 102340, Note_off_c, 2, 66, 64
5, 102360, Note_off_c, 2, 57, 64
5, 102384, Note_off_c, 2, 62, 64
5, 102528, Note_on_c, 2, 62, 100
5, 102664, Note_off_c, 2, 62, 64
5, 102912, Control_c, 2, 64, 0
5, 102912, Note_on_c, 2, 60, 93
5, 102912, Note_on_c, 2, 64, 88
5, 102912, Note_on_c, 2, 55, 90
5, 103008, Control_c, 2, 64, 127
5, 103076, Note_off_c, 2, 64, 64
5, 103096, Note_off_c, 2, 55, 64
5, 103108, Note_off_c, 2, 60, 64
5, 103392, Note_on_c, 2, 55, 83
5, 103472, Note_off_c, 2, 55, 64
5, 103488, Note_on_c, 2, 60, 86
5, 103544, Note_off_c, 2, 60, 64
5, 103680, Control_c, 2, 64, 0
5, 103680, Note_on_c, 2, 55, 85
5, 103680, Note_on_c, 2, 59, 101
5, 103680, Note_on_c, 2, 62, 101
5, 103872, Control_c, 2, 64, 127
5, 103924, Note_off_c, 2, 62, 64
5, 103924, Note_off_c, 2, 59, 64
5, 103928, Note_off_c, 2, 55, 64
5, 104064, Note_on_c, 2, 55, 80
5, 104220, Note_off_c, 2, 55, 64
5, 104256, Note_on_c, 2, 59, 97
5, 104324, Note_off_c, 2, 59, 64
5, 104448, Control_c, 2, 64, 0
5, 104448, Note_on_c, 2, 55, 87
5, 104448, Note_on_c, 2, 60, 98
5, 104448, Note_on_c, 2, 64, 81
5, 104544, Control_c, 2, 64, 127
5, 104632, Note_off_c, 2, 64, 64
5, 104644, Note_off_c, 2, 60, 64
5, 104664, Note_off_c, 2, 55, 64
5, 105024, Note_on_c, 2, 67, 92
5, 105056, Note_off_c, 2, 67, 64
5, 105216, Control_c, 2, 64, 0
5, 105216, Note_on_c, 2, 66, 102
5, 105216, Note_on_c, 2, 57, 88
5, 105216, Note_on_c, 2, 62, 106
5, 105312, Control_c, 2, 64, 127
5, 105364, Note_off_c, 2, 66, 64
5, 105600, Note_on_c, 2, 69, 96
5, 105700, Note_off_c, 2, 57, 64
5, 105716, Note_off_c, 2, 62, 64
5, 105724, Note_off_c, 2, 69, 64
5, 105984, Control_c, 2, 64, 0
5, 105984, Note_on_c, 2, 59, 83
5, 105984, Note_on_c, 2, 62, 96
5, 105984, Note_on_c, 2, 67, 96
5, 105984, Note_on_c, 2, 71, 104
5, 106272, Control_c, 2, 64, 127
5, 106324, Note_off_c, 2, 71, 64
5, 106464, Note_off_c, 2, 67, 64
5, 106464, Note_on_c, 2, 67, 93
5, 106516, Note_off_c, 2, 62, 64
5, 106524, Note_off_c, 2, 59, 64
5, 106560, Control_c, 2, 64, 0
5, 106560, Note_on_c, 2, 69, 100
5, 106564, Note_off_c, 2, 67, 64
5, 106656, Note_on_c, 2, 71, 105
5, 106672, Note_off_c, 2, 69, 64
5, 106752, Note_on_c, 2, 72, 103
5, 106764, Note_off_c, 2, 71, 64
5, 106944, Control_c, 2, 64, 127
5, 106992, Note_off_c, 2, 72, 64
5, 107136, Control_c, 2, 64, 0
5, 107136, Note_on_c, 2, 71, 97
5, 107240, Note_off_c, 2, 71, 64
5, 107328, Note_on_c, 2, 69, 109
5, 107904, Control_c, 2, 64, 127
5, 107988, Note_off_c, 2, 69, 64
5, 108000, Control_c, 2, 64, 0
5, 108000, Note_on_c, 2, 66, 104
5, 108096, Note_on_c, 2, 67, 100
5, 108104, Note_off_c, 2, 66, 64
5, 108192, Note_on_c, 2, 69, 101
5, 108196, Note_off_c, 2, 67, 64
5, 108288, Note_on_c, 2, 71, 109
5, 108304, Note_off_c, 2, 69, 64
5, 108480, Control_c, 2, 64, 127
5, 108540, Note_off_c, 2, 71, 64
5, 108672, Control_c, 2, 64, 0
5, 108672, Note_on_c, 2, 69, 95
5, 108804, Note_off_c, 2, 69, 64
5, 108864, Note_on_c, 2, 67, 106
5, 109440, Control_c, 2, 64, 127
5, 109488, Note_off_c, 2, 67, 64
5, 109632, Control_c, 2, 64, 0
5, 109632, Note_on_c, 2, 66, 102
5, 109724, Note_off_c, 2, 66, 64
5, 109728, Note_on_c, 2, 67, 101
5, 109796, Note_off_c, 2, 67, 64
5, 109824, Note_on_c, 2, 67, 106
5, 109920, Control_c, 2, 64, 127
5, 110072, Note_off_c, 2, 67, 64
5, 110208, Control_c, 2, 64, 0
5, 110208, Note_on_c, 2, 74, 98
5, 110304, Note_on_c, 2, 72, 98
5, 110328, Note_off_c, 2, 74, 64
5, 110400, Note_off_c, 2, 72, 64
5, 110400, Note_on_c, 2, 71, 111
5, 110592, Note_on_c, 2, 64, 101
5, 110604, Note_off_c, 2, 71, 64
5, 110976, Control_c, 2, 64, 127
5, 111216, Note_off_c, 2, 64, 64
5, 111360, Control_c, 2, 64, 0
5, 111360, Note_on_c, 2, 66, 77
5, 111456, Control_c, 2, 64, 127
5, 111744, Note_on_c, 2, 57, 74
5, 111876, Note_off_c, 2, 57, 64
5, 111908, Note_off_c, 2, 66, 64
5, 112128, Control_c, 2, 64, 0
5, 112128, Note_on_c, 2, 59, 70
5, 112128, Note_on_c, 2, 62, 77
5, 114920, Note_off_c, 2, 62, 64
5, 114924, Note_off_c, 2, 59, 64
5, 115200, End_track
6, 0, Start_track
6, 0, Title_t, "Slow-Stri"
6, 32, Control_c, 3, 120, 0
6, 64, Control_c, 3, 121, 0
6, 96, Control_c, 3, 11, 127
6, 128, Control_c, 3, 121, 0
6, 160, Control_c, 3, 0, 0
6, 192, Control_c, 3, 32, 0
6, 224, Program_c, 3, 48
6, 256, Control_c, 3, 7, 100
6, 288, Control_c, 3, 10, 64
6, 320, Control_c, 3, 91, 80
6, 352, Control_c, 3, 93, 50
6, 384, Control_c, 3, 101, 0
6, 416, Control_c, 3, 100, 0
6, 448, Control_c, 3, 6, 2
6, 26112, Note_on_c, 3, 61, 100
6, 26112, Note_on_c, 3, 57, 75
6, 26848, Note_off_c, 3, 61, 64
6, 26864, Note_off_c, 3, 57, 64
6, 26880, Note_on_c, 3, 63, 79
6, 26880, Note_on_c, 3, 59, 90
6, 27648, Note_on_c, 3, 56, 76
6, 28416, Note_on_c, 3, 61, 97
6, 28444, Note_off_c, 3, 63, 64
6, 29180, Note_off_c, 3, 56, 64
6, 29184, Note_on_c, 3, 52, 92
6, 29184, Note_on_c, 3, 57, 92
6, 29200, Note_off_c, 3, 59, 64
6, 29940, Note_off_c, 3, 52, 64
6, 29952, Note_on_c, 3, 59, 104
6, 29952, Note_on_c, 3, 63, 103
6, 29952, Note_on_c, 3, 54, 84
6, 29988, Note_off_c, 3, 61, 64
6, 29992, Note_off_c, 3, 57, 64
6, 30676, Note_off_c, 3, 54, 64
6, 30720, Note_on_c, 3, 56, 68
6, 31288, Note_off_c, 3, 63, 64
6, 31296, Note_on_c, 3, 64, 83
6, 31296, Note_on_c, 3, 61, 103
6, 32216, Note_off_c, 3, 64, 64
6, 32248, Note_off_c, 3, 59, 64
6, 32252, Note_off_c, 3, 56, 64
6, 32256, Note_on_c, 3, 57, 81
6, 32256, Note_on_c, 3, 52, 86
6, 32968, Note_off_c, 3, 52, 64
6, 32988, Note_off_c, 3, 61, 64
6, 33024, Note_on_c, 3, 63, 86
6, 33024, Note_on_c, 3, 59, 81
6, 33024, Note_on_c, 3, 54, 75
6, 33060, Note_off_c, 3, 57, 64
6, 33792, Note_on_c, 3, 56, 91
6, 33832, Note_off_c, 3, 54, 64
6, 34560, Note_on_c, 3, 52, 81
6, 34560, Note_on_c, 3, 61, 86
6, 34568, Note_off_c, 3, 63, 64
6, 34572, Note_off_c, 3, 59, 64
6, 35328, Note_on_c, 3, 57, 78
6, 35340, Note_off_c, 3, 56, 64
6, 36096, Note_on_c, 3, 56, 74
6, 36096, Note_on_c, 3, 59, 87
6, 36144, Note_off_c, 3, 57, 64
6, 36144, Note_off_c, 3, 61, 64
6, 36864, Note_on_c, 3, 57, 87
6, 36864, Note_on_c, 3, 61, 99
6, 36868, Note_off_c, 3, 56, 64
6, 36872, Note_off_c, 3, 59, 64
6, 37580, Note_off_c, 3, 61, 64
6, 37632, Note_on_c, 3, 63, 96
6, 37632, Note_on_c, 3, 59, 82
6, 37632, Note_on_c, 3, 54, 67
6, 37660, Note_off_c, 3, 57, 64
6, 37696, Note_off_c, 3, 52, 64
6, 38372, Note_off_c, 3, 54, 64
6, 38400, Note_on_c, 3, 56, 82
6, 38400, Note_on_c, 3, 64, 88
6, 38436, Note_off_c, 3, 63, 64
6, 39132, Note_off_c, 3, 59, 64
6, 39156, Note_off_c, 3, 56, 64
6, 39160, Note_off_c, 3, 64, 64
6, 39168, Note_on_c, 3, 61, 92
6, 39168, Note_on_c, 3, 57, 84
6, 39168, Note_on_c, 3, 52, 89
6, 39552, Note_on_c, 3, 59, 92
6, 39552, Note_on_c, 3, 56, 69
6, 39584, Note_off_c, 3, 57, 64
6, 39596, Note_off_c, 3, 61, 64
6, 39676, Note_off_c, 3, 52, 64
6, 39692, Note_off_c, 3, 56, 64
6, 39744, Note_on_c, 3, 63, 98
6, 39744, Note_on_c, 3, 54, 88
6, 40676, Note_off_c, 3, 54, 64
6, 40688, Note_off_c, 3, 63, 64
6, 40704, Note_on_c, 3, 52, 89
6, 40704, Note_on_c, 3, 56, 88
6, 41252, Note_off_c, 3, 56, 64
6, 41280, Note_on_c, 3, 61, 98
6, 41280, Note_on_c, 3, 57, 95
6, 41284, Note_off_c, 3, 59, 64
6, 42236, Note_off_c, 3, 57, 64
6, 42240, Note_on_c, 3, 59, 107
6, 42240, Note_on_c, 3, 56, 88
6, 42244, Note_off_c, 3, 61, 64
6, 42980, Note_off_c, 3, 56, 64
6, 43008, Note_on_c, 3, 61, 81
6, 43008, Note_on_c, 3, 57, 91
6, 43036, Note_off_c, 3, 59, 64
6, 43776, Note_on_c, 3, 63, 100
6, 43776, Note_on_c, 3, 59, 102
6, 43776, Note_on_c, 3, 54, 92
6, 43784, Note_off_c, 3, 61, 64
6, 43784, Note_off_c, 3, 52, 64
6, 43808, Note_off_c, 3, 57, 64
6, 44160, Note_on_c, 3, 57, 104
6, 44160, Note_on_c, 3, 52, 91
6, 44160, Note_on_c, 3, 61, 92
6, 44164, Note_off_c, 3, 54, 64
6, 44184, Note_off_c, 3, 59, 64
6, 44184, Note_off_c, 3, 63, 64
6, 44540, Note_off_c, 3, 61, 64
6, 44540, Note_off_c, 3, 57, 64
6, 44544, Note_on_c, 3, 59, 91
6, 44544, Note_on_c, 3, 56, 75
6, 45312, Note_off_c, 3, 56, 64
6, 45312, Note_off_c, 3, 52, 64
6, 45312, Note_on_c, 3, 51, 89
6, 45312, Note_on_c, 3, 54, 97
6, 46032, Note_off_c, 3, 51, 64
6, 46080, Note_on_c, 3, 57, 73
6, 46080, Note_on_c, 3, 62, 97
6, 46092, Note_off_c, 3, 59, 64
6, 46832, Note_off_c, 3, 54, 64
6, 46848, Note_on_c, 3, 61, 102
6, 46848, Note_on_c, 3, 52, 103
6, 46880, Note_off_c, 3, 62, 64
6, 47616, Note_off_c, 3, 61, 64
6, 47616, Note_on_c, 3, 55, 80
6, 47616, Note_on_c, 3, 60, 61
6, 47648, Note_off_c, 3, 57, 64
6, 48328, Note_off_c, 3, 52, 64
6, 48380, Note_off_c, 3, 60, 64
6, 48384, Note_on_c, 3, 62, 93
6, 48384, Note_on_c, 3, 59, 71
6, 49120, Note_off_c, 3, 55, 64
6, 49152, Note_off_c, 3, 59, 64
6, 49152, Note_on_c, 3, 57, 68
6, 49152, Note_on_c, 3, 64, 84
6, 49152, Note_on_c, 3, 61, 76
6, 49160, Note_off_c, 3, 62, 64
6, 49900, Note_off_c, 3, 64, 64
6, 49908, Note_off_c, 3, 61, 64
6, 49920, Note_on_c, 3, 63, 100
6, 49920, Note_on_c, 3, 66, 91
6, 49920, Note_on_c, 3, 59, 79
6, 49972, Note_off_c, 3, 57, 64
6, 50300, Note_off_c, 3, 66, 64
6, 50304, Note_on_c, 3, 64, 104
6, 50304, Note_on_c, 3, 61, 71
6, 50304, Note_on_c, 3, 57, 91
6, 50328, Note_off_c, 3, 63, 64
6, 50344, Note_off_c, 3, 59, 64
6, 50684, Note_off_c, 3, 57, 64
6, 50688, Note_on_c, 3, 56, 101
6, 50688, Note_on_c, 3, 59, 92
6, 50692, Note_off_c, 3, 61, 64
6, 51456, Note_on_c, 3, 63, 99
6, 51456, Note_on_c, 3, 54, 76
6, 51468, Note_off_c, 3, 56, 64
6, 51492, Note_off_c, 3, 64, 64
6, 52224, Note_on_c, 3, 62, 91
6, 52224, Note_on_c, 3, 57, 79
6, 52272, Note_off_c, 3, 63, 64
6, 52272, Note_off_c, 3, 59, 64
6, 52992, Note_off_c, 3, 54, 64
6, 52992, Note_on_c, 3, 61, 92
6, 52992, Note_on_c, 3, 52, 90
6, 53008, Note_off_c, 3, 62, 64
6, 53760, Note_on_c, 3, 55, 72
6, 53760, Note_on_c, 3, 60, 62
6, 53796, Note_off_c, 3, 61, 64
6, 53800, Note_off_c, 3, 57, 64
6, 54476, Note_off_c, 3, 60, 64
6, 54476, Note_off_c, 3, 52, 64
6, 54528, Note_on_c, 3, 59, 94
6, 54528, Note_on_c, 3, 62, 99
6, 55276, Note_off_c, 3, 62, 64
6, 55292, Note_off_c, 3, 55, 64
6, 55296, Note_on_c, 3, 61, 97
6, 55296, Note_on_c, 3, 57, 84
6, 55316, Note_off_c, 3, 59, 64
6, 56064, Note_on_c, 3, 63, 106
6, 56064, Note_on_c, 3, 59, 90
6, 56088, Note_off_c, 3, 57, 64
6, 56140, Note_off_c, 3, 61, 64
6, 56448, Note_on_c, 3, 61, 104
6, 56448, Note_on_c, 3, 57, 92
6, 56492, Note_off_c, 3, 59, 64
6, 56496, Note_off_c, 3, 63, 64
6, 56832, Note_on_c, 3, 64, 95
6, 57560, Note_off_c, 3, 64, 64
6, 57600, Note_on_c, 3, 63, 102
6, 57600, Note_on_c, 3, 59, 101
6, 57600, Note_on_c, 3, 66, 91
6, 57624, Note_off_c, 3, 57, 64
6, 57640, Note_off_c, 3, 61, 64
6, 58304, Note_off_c, 3, 66, 64
6, 58368, Note_on_c, 3, 56, 88
6, 58968, Note_off_c, 3, 63, 64
6, 59136, Note_off_c, 3, 59, 64
6, 59136, Note_on_c, 3, 61, 82
6, 59136, Note_on_c, 3, 64, 88
6, 59836, Note_off_c, 3, 56, 64
6, 59904, Note_on_c, 3, 57, 71
6, 60500, Note_off_c, 3, 64, 64
6, 60620, Note_off_c, 3, 61, 64
6, 60672, Note_on_c, 3, 63, 94
6, 60672, Note_on_c, 3, 59, 96
6, 60672, Note_on_c, 3, 66, 90
6, 60688, Note_off_c, 3, 57, 64
6, 61440, Note_off_c, 3, 66, 64
6, 61440, Note_on_c, 3, 56, 107
6, 61960, Note_off_c, 3, 63, 64
6, 62016, Note_on_c, 3, 61, 99
6, 62016, Note_on_c, 3, 64, 70
6, 62036, Note_off_c, 3, 59, 64
6, 62972, Note_off_c, 3, 56, 64
6, 62976, Note_on_c, 3, 57, 97
6, 63708, Note_off_c, 3, 64, 64
6, 63744, Note_off_c, 3, 61, 64
6, 63744, Note_on_c, 3, 59, 99
6, 63744, Note_on_c, 3, 63, 87
6, 63744, Note_on_c, 3, 66, 88
6, 63788, Note_off_c, 3, 57, 64
6, 64512, Note_off_c, 3, 66, 64
6, 64512, Note_on_c, 3, 56, 95
6, 65276, Note_off_c, 3, 63, 64
6, 65280, Note_on_c, 3, 61, 77
6, 65280, Note_on_c, 3, 64, 99
6, 66032, Note_off_c, 3, 56, 64
6, 66048, Note_on_c, 3, 52, 90
6, 66048, Note_on_c, 3, 57, 82
6, 66052, Note_off_c, 3, 64, 64
6, 66052, Note_off_c, 3, 59, 64
6, 66816, Note_on_c, 3, 56, 85
6, 66816, Note_on_c, 3, 59, 98
6, 66820, Note_off_c, 3, 57, 64
6, 66840, Note_off_c, 3, 61, 64
6, 67568, Note_off_c, 3, 56, 64
6, 67584, Note_on_c, 3, 57, 80
6, 67584, Note_on_c, 3, 61, 99
6, 67592, Note_off_c, 3, 59, 64
6, 68328, Note_off_c, 3, 52, 64
6, 68352, Note_on_c, 3, 59, 81
6, 68352, Note_on_c, 3, 54, 96
6, 68352, Note_on_c, 3, 63, 99
6, 68360, Note_off_c, 3, 61, 64
6, 68416, Note_off_c, 3, 57, 64
6, 69120, Note_off_c, 3, 63, 64
6, 69120, Note_on_c, 3, 56, 83
6, 69120, Note_on_c, 3, 64, 76
6, 69128, Note_off_c, 3, 54, 64
6, 69804, Note_off_c, 3, 59, 64
6, 69868, Note_off_c, 3, 56, 64
6, 69888, Note_on_c, 3, 61, 100
6, 69888, Note_on_c, 3, 57, 86
6, 70140, Note_off_c, 3, 61, 64
6, 70272, Note_off_c, 3, 57, 64
6, 70272, Note_on_c, 3, 56, 99
6, 70272, Note_on_c, 3, 59, 103
6, 70352, Note_off_c, 3, 64, 64
6, 70428, Note_off_c, 3, 56, 64
6, 70464, Note_on_c, 3, 54, 95
6, 70464, Note_on_c, 3, 63, 69
6, 71320, Note_off_c, 3, 63, 64
6, 71380, Note_off_c, 3, 54, 64
6, 71424, Note_on_c, 3, 56, 103
6, 71424, Note_on_c, 3, 64, 81
6, 71996, Note_off_c, 3, 59, 64
6, 72000, Note_on_c, 3, 61, 90
6, 72000, Note_on_c, 3, 57, 78
6, 72048, Note_off_c, 3, 56, 64
6, 72960, Note_on_c, 3, 59, 101
6, 72960, Note_on_c, 3, 56, 94
6, 72964, Note_off_c, 3, 57, 64
6, 72964, Note_off_c, 3, 61, 64
6, 73680, Note_off_c, 3, 56, 64
6, 73688, Note_off_c, 3, 59, 64
6, 73728, Note_on_c, 3, 61, 82
6, 73728, Note_on_c, 3, 73, 85
6, 73728, Note_on_c, 3, 57, 86
6, 74112, Note_on_c, 3, 76, 108
6, 74136, Note_off_c, 3, 73, 64
6, 74480, Note_off_c, 3, 76, 64
6, 74496, Note_on_c, 3, 75, 109
6, 74496, Note_on_c, 3, 59, 98
6, 74496, Note_on_c, 3, 63, 102
6, 74508, Note_off_c, 3, 64, 64
6, 74552, Note_off_c, 3, 57, 64
6, 74560, Note_off_c, 3, 61, 64
6, 74592, Note_on_c, 3, 73, 120
6, 74628, Note_off_c, 3, 75, 64
6, 74688, Note_on_c, 3, 71, 119
6, 74692, Note_off_c, 3, 73, 64
6, 74784, Note_on_c, 3, 69, 112
6, 74800, Note_off_c, 3, 71, 64
6, 74880, Note_on_c, 3, 68, 111
6, 74888, Note_off_c, 3, 69, 64
6, 74976, Note_on_c, 3, 66, 122
6, 74996, Note_off_c, 3, 68, 64
6, 75068, Note_off_c, 3, 66, 64
6, 75072, Note_on_c, 3, 64, 120
6, 75176, Note_off_c, 3, 64, 64
6, 75264, Note_off_c, 3, 63, 64
6, 75264, Note_on_c, 3, 64, 122
6, 75264, Note_on_c, 3, 60, 114
6, 75304, Note_off_c, 3, 59, 64
6, 75648, Note_on_c, 3, 55, 93
6, 75984, Note_off_c, 3, 55, 64
6, 76032, Note_off_c, 3, 60, 64
6, 76032, Note_on_c, 3, 57, 95
6, 76032, Note_on_c, 3, 62, 107
6, 76032, Note_on_c, 3, 66, 113
6, 76076, Note_off_c, 3, 64, 64
6, 76800, Note_on_c, 3, 59, 102
6, 76860, Note_off_c, 3, 57, 64
6, 77552, Note_off_c, 3, 66, 64
6, 77568, Note_on_c, 3, 67, 103
6, 77568, Note_on_c, 3, 64, 92
6, 78336, Note_off_c, 3, 62, 64
6, 78336, Note_on_c, 3, 60, 106
6, 78388, Note_off_c, 3, 59, 64
6, 79096, Note_off_c, 3, 67, 64
6, 79104, Note_on_c, 3, 57, 104
6, 79104, Note_on_c, 3, 66, 94
6, 79104, Note_on_c, 3, 69, 77
6, 79104, Note_on_c, 3, 62, 86
6, 79152, Note_off_c, 3, 60, 64
6, 79160, Note_off_c, 3, 64, 64
6, 79872, Note_on_c, 3, 59, 105
6, 79916, Note_off_c, 3, 57, 64
6, 80628, Note_off_c, 3, 69, 64
6, 80640, Note_off_c, 3, 66, 64
6, 80640, Note_on_c, 3, 64, 80
6, 80640, Note_on_c, 3, 67, 109
6, 80640, Note_on_c, 3, 71, 104
6, 81408, Note_on_c, 3, 60, 107
6, 81412, Note_off_c, 3, 67, 64
6, 81416, Note_off_c, 3, 62, 64
6, 81444, Note_off_c, 3, 59, 64
6, 81468, Note_off_c, 3, 71, 64
6, 82176, Note_on_c, 3, 62, 113
6, 82176, Note_on_c, 3, 69, 100
6, 82176, Note_on_c, 3, 66, 110
6, 82204, Note_off_c, 3, 64, 64
6, 82212, Note_off_c, 3, 60, 64
6, 82944, Note_on_c, 3, 59, 105
6, 83696, Note_off_c, 3, 66, 64
6, 83712, Note_on_c, 3, 67, 98
6, 83712, Note_on_c, 3, 64, 84
6, 83712, Note_on_c, 3, 71, 100
6, 83716, Note_off_c, 3, 69, 64
6, 84480, Note_off_c, 3, 62, 64
6, 84480, Note_on_c, 3, 72, 111
6, 84480, Note_on_c, 3, 60, 104
6, 84484, Note_off_c, 3, 71, 64
6, 84492, Note_off_c, 3, 59, 64
6, 85240, Note_off_c, 3, 72, 64
6, 85244, Note_off_c, 3, 60, 64
6, 85248, Note_on_c, 3, 71, 96
6, 85248, Note_on_c, 3, 74, 90
6, 85248, Note_on_c, 3, 62, 90
6, 85248, Note_on_c, 3, 59, 81
6, 85260, Note_off_c, 3, 64, 64
6, 86004, Note_off_c, 3, 62, 64
6, 86012, Note_off_c, 3, 59, 64
6, 86016, Note_on_c, 3, 60, 86
6, 86016, Note_on_c, 3, 72, 105
6, 86016, Note_on_c, 3, 64, 75
6, 86020, Note_off_c, 3, 71, 64
6, 86040, Note_off_c, 3, 74, 64
6, 86644, Note_off_c, 3, 64, 64
6, 86784, Note_on_c, 3, 69, 98
6, 86784, Note_on_c, 3, 66, 98
6, 86784, Note_on_c, 3, 74, 94
6, 86784, Note_on_c, 3, 62, 87
6, 86852, Note_off_c, 3, 72, 64
6, 86852, Note_off_c, 3, 60, 64
6, 86876, Note_off_c, 3, 67, 64
6, 86912, Note_off_c, 3, 62, 64
6, 86936, Note_off_c, 3, 74, 64
6, 86936, Note_off_c, 3, 66, 64
6, 86956, Note_off_c, 3, 69, 64
6, 87552, Note_on_c, 3, 64, 80
6, 87552, Note_on_c, 3, 60, 91
6, 88296, Note_off_c, 3, 64, 64
6, 88320, Note_on_c, 3, 66, 89
6, 88320, Note_on_c, 3, 62, 94
6, 88356, Note_off_c, 3, 60, 64
6, 89820, Note_off_c, 3, 62, 64
6, 89832, Note_off_c, 3, 66, 64
6, 89856, Note_on_c, 3, 67, 93
6, 89856, Note_on_c, 3, 64, 89
6, 90624, Note_on_c, 3, 60, 79
6, 90652, Note_off_c, 3, 67, 64
6, 91008, Note_on_c, 3, 48, 86
6, 91384, Note_off_c, 3, 64, 64
6, 91392, Note_on_c, 3, 62, 96
6, 91392, Note_on_c, 3, 66, 78
6, 91392, Note_on_c, 3, 50, 103
6, 91404, Note_off_c, 3, 48, 64
6, 91424, Note_off_c, 3, 60, 64
6, 91776, Note_on_c, 3, 57, 96
6, 91816, Note_off_c, 3, 50, 64
6, 92160, Note_on_c, 3, 59, 110
6, 92164, Note_off_c, 3, 57, 64
6, 92544, Note_on_c, 3, 54, 119
6, 92592, Note_off_c, 3, 59, 64
6, 92912, Note_off_c, 3, 54, 64
6, 92928, Note_on_c, 3, 67, 108
6, 92928, Note_on_c, 3, 64, 111
6, 92928, Note_on_c, 3, 55, 109
6, 92960, Note_off_c, 3, 66, 64
6, 92960, Note_off_c, 3, 62, 64
6, 93624, Note_off_c, 3, 55, 64
6, 93696, Note_on_c, 3, 55, 103
6, 93696, Note_on_c, 3, 60, 104
6, 93704, Note_off_c, 3, 67, 64
6, 94444, Note_off_c, 3, 64, 64
6, 94456, Note_off_c, 3, 55, 64
6, 94464, Note_on_c, 3, 62, 97
6, 94464, Note_on_c, 3, 66, 107
6, 94464, Note_on_c, 3, 57, 92
6, 94464, Note_on_c, 3, 54, 98
6, 94516, Note_off_c, 3, 60, 64
6, 95232, Note_on_c, 3, 59, 93
6, 95256, Note_off_c, 3, 66, 64
6, 96000, Note_off_c, 3, 54, 64
6, 96000, Note_off_c, 3, 57, 64
6, 96000, Note_on_c, 3, 55, 102
6, 96000, Note_on_c, 3, 64, 77
6, 96000, Note_on_c, 3, 67, 102
6, 96756, Note_off_c, 3, 59, 64
6, 96768, Note_on_c, 3, 60, 91
6, 96772, Note_off_c, 3, 62, 64
6, 97456, Note_off_c, 3, 60, 64
6, 97536, Note_on_c, 3, 62, 103
6, 97536, Note_on_c, 3, 59, 88
6, 97580, Note_off_c, 3, 64, 64
6, 98156, Note_off_c, 3, 59, 64
6, 98304, Note_off_c, 3, 62, 64
6, 98304, Note_on_c, 3, 64, 108
6, 98304, Note_on_c, 3, 60, 97
6, 98956, Note_off_c, 3, 60, 64
6, 98992, Note_off_c, 3, 67, 64
6, 99048, Note_off_c, 3, 64, 64
6, 99060, Note_off_c, 3, 55, 64
6, 99072, Note_on_c, 3, 66, 106
6, 99072, Note_on_c, 3, 57, 106
6, 99072, Note_on_c, 3, 62, 99
6, 99072, Note_on_c, 3, 69, 103
6, 99752, Note_off_c, 3, 62, 64
6, 99840, Note_on_c, 3, 72, 101
6, 99840, Note_on_c, 3, 60, 105
6, 99840, Note_on_c, 3, 67, 122
6, 99840, Note_on_c, 3, 64, 101
6, 99860, Note_off_c, 3, 69, 64
6, 99868, Note_off_c, 3, 57, 64
6, 99872, Note_off_c, 3, 66, 64
6, 100520, Note_off_c, 3, 64, 64
6, 100608, Note_on_c, 3, 59, 95
6, 100608, Note_on_c, 3, 62, 90
6, 100608, Note_on_c, 3, 71, 110
6, 100660, Note_off_c, 3, 60, 64
6, 100668, Note_off_c, 3, 72, 64
6, 101240, Note_off_c, 3, 62, 64
6, 101348, Note_off_c, 3, 71, 64
6, 101376, Note_on_c, 3, 72, 106
6, 101376, Note_on_c, 3, 60, 82
6, 101376, Note_on_c, 3, 64, 73
6, 101380, Note_off_c, 3, 59, 64
6, 102048, Note_off_c, 3, 64, 64
6, 102092, Note_off_c, 3, 60, 64
6, 102144, Note_on_c, 3, 69, 112
6, 102144, Note_on_c, 3, 57, 94
6, 102144, Note_on_c, 3, 62, 81
6, 102144, Note_on_c, 3, 74, 92
6, 102144, Note_on_c, 3, 66, 90
6, 102168, Note_off_c, 3, 67, 64
6, 102200, Note_off_c, 3, 72, 64
6, 102764, Note_off_c, 3, 66, 64
6, 102888, Note_off_c, 3, 62, 64
6, 102900, Note_off_c, 3, 57, 64
6, 102912, Note_on_c, 3, 67, 97
6, 102912, Note_on_c, 3, 60, 89
6, 102912, Note_on_c, 3, 55, 102
6, 102912, Note_on_c, 3, 72, 106
6, 102912, Note_on_c, 3, 64, 58
6, 102932, Note_off_c, 3, 69, 64
6, 103016, Note_off_c, 3, 74, 64
6, 103536, Note_off_c, 3, 64, 64
6, 103676, Note_off_c, 3, 60, 64
6, 103680, Note_off_c, 3, 72, 64
6, 103680, Note_on_c, 3, 62, 88
6, 103680, Note_on_c, 3, 59, 85
6, 103680, Note_on_c, 3, 71, 115
6, 104360, Note_off_c, 3, 62, 64
6, 104432, Note_off_c, 3, 59, 64
6, 104444, Note_off_c, 3, 71, 64
6, 104448, Note_on_c, 3, 60, 100
6, 104448, Note_on_c, 3, 64, 90
6, 105124, Note_off_c, 3, 64, 64
6, 105172, Note_off_c, 3, 55, 64
6, 105216, Note_on_c, 3, 66, 100
6, 105216, Note_on_c, 3, 57, 96
6, 105216, Note_on_c, 3, 69, 101
6, 105216, Note_on_c, 3, 62, 74
6, 105224, Note_off_c, 3, 60, 64
6, 105272, Note_off_c, 3, 67, 64
6, 105968, Note_off_c, 3, 69, 64
6, 105984, Note_on_c, 3, 55, 88
6, 105984, Note_on_c, 3, 59, 80
6, 105988, Note_off_c, 3, 55, 64
6, 105988, Note_off_c, 3, 62, 64
6, 105988, Note_off_c, 3, 66, 64
6, 106036, Note_off_c, 3, 57, 64
6, 106668, Note_off_c, 3, 59, 64
6, 106752, Note_on_c, 3, 64, 105
6, 106752, Note_on_c, 3, 60, 73
6, 107136, Note_on_c, 3, 59, 108
6, 107136, Note_on_c, 3, 62, 92
6, 107148, Note_off_c, 3, 60, 64
6, 107148, Note_off_c, 3, 64, 64
6, 107284, Note_off_c, 3, 62, 64
6, 107292, Note_off_c, 3, 59, 64
6, 107328, Note_on_c, 3, 62, 113
6, 107328, Note_on_c, 3, 57, 84
6, 107328, Note_on_c, 3, 54, 96
6, 108232, Note_off_c, 3, 57, 64
6, 108260, Note_off_c, 3, 54, 64
6, 108288, Note_on_c, 3, 59, 88
6, 108288, Note_on_c, 3, 55, 84
6, 108864, Note_off_c, 3, 62, 64
6, 108864, Note_on_c, 3, 60, 99
6, 108864, Note_on_c, 3, 64, 96
6, 108868, Note_off_c, 3, 59, 64
6, 109784, Note_off_c, 3, 64, 64
6, 109804, Note_off_c, 3, 60, 64
6, 109824, Note_on_c, 3, 59, 96
6, 109824, Note_on_c, 3, 62, 109
6, 110592, Note_on_c, 3, 60, 91
6, 110592, Note_on_c, 3, 64, 86
6, 110628, Note_off_c, 3, 62, 64
6, 110636, Note_off_c, 3, 59, 64
6, 111360, Note_off_c, 3, 55, 64
6, 111360, Note_on_c, 3, 57, 82
6, 111360, Note_on_c, 3, 62, 104
6, 111360, Note_on_c, 3, 66, 104
6, 111364, Note_off_c, 3, 64, 64
6, 111416, Note_off_c, 3, 60, 64
6, 112128, Note_off_c, 3, 66, 64
6, 112128, Note_on_c, 3, 67, 81
6, 112128, Note_on_c, 3, 55, 95
6, 112128, Note_on_c, 3, 59, 76
6, 112180, Note_off_c, 3, 57, 64
6, 114724, Note_off_c, 3, 59, 64
6, 114748, Note_off_c, 3, 62, 64
6, 114756, Note_off_c, 3, 55, 64
6, 114780, Note_off_c, 3, 67, 64
6, 115200, End_track
7, 0, Start_track
7, 0, Title_t, "Brightnes"
7, 32, Control_c, 5, 120, 0
7, 64, Control_c, 5, 121, 0
7, 96, Control_c, 5, 11, 127
7, 128, Control_c, 5, 121, 0
7, 160, Control_c, 5, 0, 0
7, 192, Control_c, 5, 32, 0
7, 224, Program_c, 5, 100
7, 256, Control_c, 5, 7, 80
7, 288, Control_c, 5, 10, 64
7, 320, Control_c, 5, 91, 80
7, 352, Control_c, 5, 93, 50
7, 384, Control_c, 5, 101, 0
7, 416, Control_c, 5, 100, 0
7, 448, Control_c, 5, 6, 2
7, 26112, Note_on_c, 5, 73, 100
7, 26112, Note_on_c, 5, 69, 75
7, 26848, Note_off_c, 5, 73, 64
7, 26864, Note_off_c, 5, 69, 64
7, 26880, Note_on_c, 5, 75, 79
7, 26880, Note_on_c, 5, 71, 90
7, 27648, Note_on_c, 5, 68, 76
7, 28416, Note_on_c, 5, 73, 97
7, 28444, Note_off_c, 5, 75, 64
7, 29180, Note_off_c, 5, 68, 64
7, 29184, Note_on_c, 5, 64, 92
7, 29184, Note_on_c, 5, 69, 92
7, 29200, Note_off_c, 5, 71, 64
7, 29940, Note_off_c, 5, 64, 64
7, 29952, Note_on_c, 5, 71, 104
7, 29952, Note_on_c, 5, 75, 103
7, 29952, Note_on_c, 5, 66, 84
7, 29988, Note_off_c, 5, 73, 64
7, 29992, Note_off_c, 5, 69, 64
7, 30676, Note_off_c, 5, 66, 64
7, 30720, Note_on_c, 5, 68, 68
7, 31288, Note_off_c, 5, 75, 64
7, 31296, Note_on_c, 5, 76, 83
7, 31296, Note_on_c, 5, 73, 103
7, 32216, Note_off_c, 5, 76, 64
7, 32248, Note_off_c, 5, 71, 64
7, 32252, Note_off_c, 5, 68, 64
7, 32256, Note_on_c, 5, 69, 81
7, 32256, Note_on_c, 5, 64, 86
7, 32968, Note_off_c, 5, 64, 64
7, 32988, Note_off_c, 5, 73, 64
7, 33024, Note_on_c, 5, 75, 86
7, 33024, Note_on_c, 5, 71, 81
7, 33024, Note_on_c, 5, 66, 75
7, 33060, Note_off_c, 5, 69, 64
7, 33792, Note_on_c, 5, 68, 91
7, 33832, Note_off_c, 5, 66, 64
7, 34560, Note_on_c, 5, 64, 81
7, 34560, Note_on_c, 5, 73, 86
7, 34568, Note_off_c, 5, 75, 64
7, 34572, Note_off_c, 5, 71, 64
7, 35328, Note_on_c, 5, 69, 78
7, 35340, Note_off_c, 5, 68, 64
7, 36096, Note_on_c, 5, 68, 74
7, 36096, Note_on_c, 5, 71, 87
7, 36144, Note_off_c, 5, 69, 64
7, 36144, Note_off_c, 5, 73, 64
7, 36864, Note_on_c, 5, 69, 87
7, 36864, Note_on_c, 5, 73, 99
7, 36868, Note_off_c, 5, 68, 64
7, 36872, Note_off_c, 5, 71, 64
7, 37580, Note_off_c, 5, 73, 64
7, 37632, Note_on_c, 5, 75, 96
7, 37632, Note_on_c, 5, 71, 82
7, 37632, Note_on_c, 5, 66, 67
7, 37660, Note_off_c, 5, 69, 64
7, 37696, Note_off_c, 5, 64, 64
7, 38372, Note_off_c, 5, 66, 64
7, 38400, Note_on_c, 5, 68, 82
7, 38400, Note_on_c, 5, 76, 88
7, 38436, Note_off_c, 5, 75, 64
7, 39132, Note_off_c, 5, 71, 64
7, 39156, Note_off_c, 5, 68, 64
7, 39160, Note_off_c, 5, 76, 64
7, 39168, Note_on_c, 5, 73, 92
7, 39168, Note_on_c, 5, 69, 84
7, 39168, Note_on_c, 5, 64, 89
7, 39552, Note_on_c, 5, 71, 92
7, 39552, Note_on_c, 5, 68, 69
7, 39584, Note_off_c, 5, 69, 64
7, 39596, Note_off_c, 5, 73, 64
7, 39676, Note_off_c, 5, 64, 64
7, 39692, Note_off_c, 5, 68, 64
7, 39744, Note_on_c, 5, 75, 98
7, 39744, Note_on_c, 5, 66, 88
7, 40676, Note_off_c, 5, 66, 64
7, 40688, Note_off_c, 5, 75, 64
7, 40704, Note_on_c, 5, 64, 89
7, 40704, Note_on_c, 5, 68, 88
7, 41252, Note_off_c, 5, 68, 64
7, 41280, Note_on_c, 5, 73, 98
7, 41280, Note_on_c, 5, 69, 95
7, 41284, Note_off_c, 5, 71, 64
7, 42236, Note_off_c, 5, 69, 64
7, 42240, Note_on_c, 5, 71, 107
7, 42240, Note_on_c, 5, 68, 88
7, 42244, Note_off_c, 5, 73, 64
7, 42980, Note_off_c, 5, 68, 64
7, 43008, Note_on_c, 5, 73, 81
7, 43008, Note_on_c, 5, 69, 91
7, 43036, Note_off_c, 5, 71, 64
7, 43776, Note_on_c, 5, 75, 100
7, 43776, Note_on_c, 5, 71, 102
7, 43776, Note_on_c, 5, 66, 92
7, 43784, Note_off_c, 5, 73, 64
7, 43784, Note_off_c, 5, 64, 64
7, 43808, Note_off_c, 5, 69, 64
7, 44160, Note_on_c, 5, 69, 104
7, 44160, Note_on_c, 5, 64, 91
7, 44160, Note_on_c, 5, 73, 92
7, 44164, Note_off_c, 5, 66, 64
7, 44184, Note_off_c, 5, 71, 64
7, 44184, Note_off_c, 5, 75, 64
7, 44540, Note_off_c, 5, 73, 64
7, 44540, Note_off_c, 5, 69, 64
7, 44544, Note_on_c, 5, 71, 91
7, 44544, Note_on_c, 5, 68, 75
7, 45312, Note_off_c, 5, 68, 64
7, 45312, Note_off_c, 5, 64, 64
7, 45312, Note_on_c, 5, 63, 89
7, 45312, Note_on_c, 5, 66, 97
7, 46032, Note_off_c, 5, 63, 64
7, 46080, Note_on_c, 5, 69, 73
7, 46080, Note_on_c, 5, 74, 97
7, 46092, Note_off_c, 5, 71, 64
7, 46832, Note_off_c, 5, 66, 64
7, 46848, Note_on_c, 5, 73, 102
7, 46848, Note_on_c, 5, 64, 103
7, 46880, Note_off_c, 5, 74, 64
7, 47616, Note_off_c, 5, 73, 64
7, 47616, Note_on_c, 5, 67, 80
7, 47616, Note_on_c, 5, 72, 61
7, 47648, Note_off_c, 5, 69, 64
7, 48328, Note_off_c, 5, 64, 64
7, 48380, Note_off_c, 5, 72, 64
7, 48384, Note_on_c, 5, 74, 93
7, 48384, Note_on_c, 5, 71, 71
7, 49120, Note_off_c, 5, 67, 64
7, 49152, Note_off_c, 5, 71, 64
7, 49152, Note_on_c, 5, 69, 68
7, 49152, Note_on_c, 5, 76, 84
7, 49152, Note_on_c, 5, 73, 76
7, 49160, Note_off_c, 5, 74, 64
7, 49900, Note_off_c, 5, 76, 64
7, 49908, Note_off_c, 5, 73, 64
7, 49920, Note_on_c, 5, 75, 100
7, 49920, Note_on_c, 5, 78, 91
7, 49920, Note_on_c, 5, 71, 79
7, 49972, Note_off_c, 5, 69, 64
7, 50300, Note_off_c, 5, 78, 64
7, 50304, Note_on_c, 5, 76, 104
7, 50304, Note_on_c, 5, 73, 71
7, 50304, Note_on_c, 5, 69, 91
7, 50328, Note_off_c, 5, 75, 64
7, 50344, Note_off_c, 5, 71, 64
7, 50684, Note_off_c, 5, 69, 64
7, 50688, Note_on_c, 5, 68, 101
7, 50688, Note_on_c, 5, 71, 92
7, 50692, Note_off_c, 5, 73, 64
7, 51456, Note_on_c, 5, 75, 99
7, 51456, Note_on_c, 5, 66, 76
7, 51468, Note_off_c, 5, 68, 64
7, 51492, Note_off_c, 5, 76, 64
7, 52224, Note_on_c, 5, 74, 91
7, 52224, Note_on_c, 5, 69, 79
7, 52272, Note_off_c, 5, 75, 64
7, 52272, Note_off_c, 5, 71, 64
7, 52992, Note_off_c, 5, 66, 64
7, 52992, Note_on_c, 5, 73, 92
7, 52992, Note_on_c, 5, 64, 90
7, 53008, Note_off_c, 5, 74, 64
7, 53760, Note_on_c, 5, 67, 72
7, 53760, Note_on_c, 5, 72, 62
7, 53796, Note_off_c, 5, 73, 64
7, 53800, Note_off_c, 5, 69, 64
7, 54476, Note_off_c, 5, 72, 64
7, 54476, Note_off_c, 5, 64, 64
7, 54528, Note_on_c, 5, 71, 94
7, 54528, Note_on_c, 5, 74, 99
7, 55276, Note_off_c, 5, 74, 64
7, 55292, Note_off_c, 5, 67, 64
7, 55296, Note_on_c, 5, 73, 97
7, 55296, Note_on_c, 5, 69, 84
7, 55316, Note_off_c, 5, 71, 64
7, 56064, Note_on_c, 5, 75, 106
7, 56064, Note_on_c, 5, 71, 90
7, 56088, Note_off_c, 5, 69, 64
7, 56140, Note_off_c, 5, 73, 64
7, 56448, Note_on_c, 5, 73, 104
7, 56448, Note_on_c, 5, 69, 92
7, 56492, Note_off_c, 5, 71, 64
7, 56496, Note_off_c, 5, 75, 64
7, 56832, Note_on_c, 5, 76, 95
7, 57560, Note_off_c, 5, 76, 64
7, 57600, Note_on_c, 5, 75, 102
7, 57600, Note_on_c, 5, 71, 101
7, 57600, Note_on_c, 5, 78, 91
7, 57624, Note_off_c, 5, 69, 64
7, 57640, Note_off_c, 5, 73, 64
7, 58304, Note_off_c, 5, 78, 64
7, 58368, Note_on_c, 5, 68, 88
7, 58968, Note_off_c, 5, 75, 64
7, 59136, Note_off_c, 5, 71, 64
7, 59136, Note_on_c, 5, 73, 82
7, 59136, Note_on_c, 5, 76, 88
7, 59836, Note_off_c, 5, 68, 64
7, 59904, Note_on_c, 5, 69, 71
7, 60500, Note_off_c, 5, 76, 64
7, 60620, Note_off_c, 5, 73, 64
7, 60672, Note_on_c, 5, 75, 94
7, 60672, Note_on_c, 5, 71, 96
7, 60672, Note_on_c, 5, 78, 90
7, 60688, Note_off_c, 5, 69, 64
7, 61440, Note_off_c, 5, 78, 64
7, 61440, Note_on_c, 5, 68, 107
7, 61960, Note_off_c, 5, 75, 64
7, 62016, Note_on_c, 5, 73, 99
7, 62016, Note_on_c, 5, 76, 70
7, 62036, Note_off_c, 5, 71, 64
7, 62972, Note_off_c, 5, 68, 64
7, 62976, Note_on_c, 5, 69, 97
7, 63708, Note_off_c, 5, 76, 64
7, 63744, Note_off_c, 5, 73, 64
7, 63744, Note_on_c, 5, 71, 99
7, 63744, Note_on_c, 5, 75, 87
7, 63744, Note_on_c, 5, 78, 88
7, 63788, Note_off_c, 5, 69, 64
7, 64512, Note_off_c, 5, 78, 64
7, 64512, Note_on_c, 5, 68, 95
7, 65276, Note_off_c, 5, 75, 64
7, 65280, Note_on_c, 5, 73, 77
7, 65280, Note_on_c, 5, 76, 99
7, 66032, Note_off_c, 5, 68, 64
7, 66048, Note_on_c, 5, 64, 90
7, 66048, Note_on_c, 5, 69, 82
7, 66052, Note_off_c, 5, 76, 64
7, 66052, Note_off_c, 5, 71, 64
7, 66816, Note_on_c, 5, 68, 85
7, 66816, Note_on_c, 5, 71, 98
7, 66820, Note_off_c, 5, 69, 64
7, 66840, Note_off_c, 5, 73, 64
7, 67568, Note_off_c, 5, 68, 64
7, 67584, Note_on_c, 5, 69, 80
7, 67584, Note_on_c, 5, 73, 99
7, 67592, Note_off_c, 5, 71, 64
7, 68328, Note_off_c, 5, 64, 64
7, 68352, Note_on_c, 5, 71, 81
7, 68352, Note_on_c, 5, 66, 96
7, 68352, Note_on_c, 5, 75, 99
7, 68360, Note_off_c, 5, 73, 64
7, 68416, Note_off_c, 5, 69, 64
7, 69120, Note_off_c, 5, 75, 64
7, 69120, Note_on_c, 5, 68, 83
7, 69120, Note_on_c, 5, 76, 76
7, 69128, Note_off_c, 5, 66, 64
7, 69804, Note_off_c, 5, 71, 64
7, 69868, Note_off_c, 5, 68, 64
7, 69888, Note_on_c, 5, 73, 100
7, 69888, Note_on_c, 5, 69, 86
7, 70140, Note_off_c, 5, 73, 64
7, 70272, Note_off_c, 5, 69, 64
7, 70272, Note_on_c, 5, 68, 99
7, 70272, Note_on_c, 5, 71, 103
7, 70352, Note_off_c, 5, 76, 64
7, 70428, Note_off_c, 5, 68, 64
7, 70464, Note_on_c, 5, 66, 95
7, 70464, Note_on_c, 5, 75, 69
7, 71320, Note_off_c, 5, 75, 64
7, 71380, Note_off_c, 5, 66, 64
7, 71424, Note_on_c, 5, 68, 103
7, 71424, Note_on_c, 5, 76, 81
7, 71996, Note_off_c, 5, 71, 64
7, 72000, Note_on_c, 5, 73, 90
7, 72000, Note_on_c, 5, 69, 78
7, 72048, Note_off_c, 5, 68, 64
7, 72960, Note_on_c, 5, 71, 101
7, 72960, Note_on_c, 5, 68, 94
7, 72964, Note_off_c, 5, 69, 64
7, 72964, Note_off_c, 5, 73, 64
7, 73680, Note_off_c, 5, 68, 64
7, 73688, Note_off_c, 5, 71, 64
7, 73728, Note_on_c, 5, 73, 82
7, 73728, Note_on_c, 5, 85, 85
7, 73728, Note_on_c, 5, 69, 86
7, 74112, Note_on_c, 5, 88, 108
7, 74136, Note_off_c, 5, 85, 64
7, 74480, Note_off_c, 5, 88, 64
7, 74496, Note_on_c, 5, 87, 109
7, 74496, Note_on_c, 5, 71, 98
7, 74496, Note_on_c, 5, 75, 102
7, 74508, Note_off_c, 5, 76, 64
7, 74552, Note_off_c, 5, 69, 64
7, 74560, Note_off_c, 5, 73, 64
7, 74592, Note_on_c, 5, 85, 120
7, 74628, Note_off_c, 5, 87, 64
7, 74688, Note_on_c, 5, 83, 119
7, 74692, Note_off_c, 5, 85, 64
7, 74784, Note_on_c, 5, 81, 112
7, 74800, Note_off_c, 5, 83, 64
7, 74880, Note_on_c, 5, 80, 111
7, 74888, Note_off_c, 5, 81, 64
7, 74976, Note_on_c, 5, 78, 122
7, 74996, Note_off_c, 5, 80, 64
7, 75068, Note_off_c, 5, 78, 64
7, 75072, Note_on_c, 5, 76, 120
7, 75176, Note_off_c, 5, 76, 64
7, 75264, Note_off_c, 5, 75, 64
7, 75264, Note_on_c, 5, 76, 122
7, 75264, Note_on_c, 5, 72, 114
7, 75304, Note_off_c, 5, 71, 64
7, 75648, Note_on_c, 5, 67, 93
7, 75984, Note_off_c, 5, 67, 64
7, 76032, Note_off_c, 5, 72, 64
7, 76032, Note_on_c, 5, 69, 95
7, 76032, Note_on_c, 5, 74, 107
7, 76032, Note_on_c, 5, 78, 113
7, 76076, Note_off_c, 5, 76, 64
7, 76800, Note_on_c, 5, 71, 102
7, 76860, Note_off_c, 5, 69, 64
7, 77552, Note_off_c, 5, 78, 64
7, 77568, Note_on_c, 5, 79, 103
7, 77568, Note_on_c, 5, 76, 92
7, 78336, Note_off_c, 5, 74, 64
7, 78336, Note_on_c, 5, 72, 106
7, 78388, Note_off_c, 5, 71, 64
7, 79096, Note_off_c, 5, 79, 64
7, 79104, Note_on_c, 5, 69, 104
7, 79104, Note_on_c, 5, 78, 94
7, 79104, Note_on_c, 5, 81, 77
7, 79104, Note_on_c, 5, 74, 86
7, 79152, Note_off_c, 5, 72, 64
7, 79160, Note_off_c, 5, 76, 64
7, 79872, Note_on_c, 5, 71, 105
7, 79916, Note_off_c, 5, 69, 64
7, 80628, Note_off_c, 5, 81, 64
7, 80640, Note_off_c, 5, 78, 64
7, 80640, Note_on_c, 5, 76, 80
7, 80640, Note_on_c, 5, 79, 109
7, 80640, Note_on_c, 5, 83, 104
7, 81408, Note_on_c, 5, 72, 107
7, 81412, Note_off_c, 5, 79, 64
7, 81416, Note_off_c, 5, 74, 64
7, 81444, Note_off_c, 5, 71, 64
7, 81468, Note_off_c, 5, 83, 64
7, 82176, Note_on_c, 5, 74, 113
7, 82176, Note_on_c, 5, 81, 100
7, 82176, Note_on_c, 5, 78, 110
7, 82204, Note_off_c, 5, 76, 64
7, 82212, Note_off_c, 5, 72, 64
7, 82944, Note_on_c, 5, 71, 105
7, 83696, Note_off_c, 5, 78, 64
7, 83712, Note_on_c, 5, 79, 98
7, 83712, Note_on_c, 5, 76, 84
7, 83712, Note_on_c, 5, 83, 100
7, 83716, Note_off_c, 5, 81, 64
7, 84480, Note_off_c, 5, 74, 64
7, 84480, Note_on_c, 5, 84, 111
7, 84480, Note_on_c, 5, 72, 104
7, 84484, Note_off_c, 5, 83, 64
7, 84492, Note_off_c, 5, 71, 64
7, 85240, Note_off_c, 5, 84, 64
7, 85244, Note_off_c, 5, 72, 64
7, 85248, Note_on_c, 5, 83, 96
7, 85248, Note_on_c, 5, 86, 90
7, 85248, Note_on_c, 5, 74, 90
7, 85248, Note_on_c, 5, 71, 81
7, 85260, Note_off_c, 5, 76, 64
7, 86004, Note_off_c, 5, 74, 64
7, 86012, Note_off_c, 5, 71, 64
7, 86016, Note_on_c, 5, 72, 86
7, 86016, Note_on_c, 5, 84, 105
7, 86016, Note_on_c, 5, 76, 75
7, 86020, Note_off_c, 5, 83, 64
7, 86040, Note_off_c, 5, 86, 64
7, 86644, Note_off_c, 5, 76, 64
7, 86784, Note_on_c, 5, 81, 98
7, 86784, Note_on_c, 5, 78, 98
7, 86784, Note_on_c, 5, 86, 94
7, 86784, Note_on_c, 5, 74, 87
7, 86852, Note_off_c, 5, 84, 64
7, 86852, Note_off_c, 5, 72, 64
7, 86876, Note_off_c, 5, 79, 64
7, 86912, Note_off_c, 5, 74, 64
7, 86936, Note_off_c, 5, 86, 64
7, 86936, Note_off_c, 5, 78, 64
7, 86956, Note_off_c, 5, 81, 64
7, 87552, Note_on_c, 5, 76, 80
7, 87552, Note_on_c, 5, 72, 91
7, 88296, Note_off_c, 5, 76, 64
7, 88320, Note_on_c, 5, 78, 89
7, 88320, Note_on_c, 5, 74, 94
7, 88356, Note_off_c, 5, 72, 64
7, 89820, Note_off_c, 5, 74, 64
7, 89832, Note_off_c, 5, 78, 64
7, 89856, Note_on_c, 5, 79, 93
7, 89856, Note_on_c, 5, 76, 89
7, 90624, Note_on_c, 5, 72, 79
7, 90652, Note_off_c, 5, 79, 64
7, 91008, Note_on_c, 5, 60, 86
7, 91384, Note_off_c, 5, 76, 64
7, 91392, Note_on_c, 5, 74, 96
7, 91392, Note_on_c, 5, 78, 78
7, 91392, Note_on_c, 5, 62, 103
7, 91404, Note_off_c, 5, 60, 64
7, 91424, Note_off_c, 5, 72, 64
7, 91776, Note_on_c, 5, 69, 96
7, 91816, Note_off_c, 5, 62, 64
7, 92160, Note_on_c, 5, 71, 110
7, 92164, Note_off_c, 5, 69, 64
7, 92544, Note_on_c, 5, 66, 119
7, 92592, Note_off_c, 5, 71, 64
7, 92912, Note_off_c, 5, 66, 64
7, 92928, Note_on_c, 5, 79, 108
7, 92928, Note_on_c, 5, 76, 111
7, 92928, Note_on_c, 5, 67, 109
7, 92960, Note_off_c, 5, 78, 64
7, 92960, Note_off_c, 5, 74, 64
7, 93624, Note_off_c, 5, 67, 64
7, 93696, Note_on_c, 5, 67, 103
7, 93696, Note_on_c, 5, 72, 104
7, 93704, Note_off_c, 5, 79, 64
7, 94444, Note_off_c, 5, 76, 64
7, 94456, Note_off_c, 5, 67, 64
7, 94464, Note_on_c, 5, 74, 97
7, 94464, Note_on_c, 5, 78, 107
7, 94464, Note_on_c, 5, 69, 92
7, 94464, Note_on_c, 5, 66, 98
7, 94516, Note_off_c, 5, 72, 64
7, 95232, Note_on_c, 5, 71, 93
7, 95256, Note_off_c, 5, 78, 64
7, 96000, Note_off_c, 5, 66, 64
7, 96000, Note_off_c, 5, 69, 64
7, 96000, Note_on_c, 5, 67, 102
7, 96000, Note_on_c, 5, 76, 77
7, 96000, Note_on_c, 5, 79, 102
7, 96756, Note_off_c, 5, 71, 64
7, 96768, Note_on_c, 5, 72, 91
7, 96772, Note_off_c, 5, 74, 64
7, 97456, Note_off_c, 5, 72, 64
7, 97536, Note_on_c, 5, 74, 103
7, 97536, Note_on_c, 5, 71, 88
7, 97580, Note_off_c, 5, 76, 64
7, 98156, Note_off_c, 5, 71, 64
7, 98304, Note_off_c, 5, 74, 64
7, 98304, Note_on_c, 5, 76, 108
7, 98304, Note_on_c, 5, 72, 97
7, 98956, Note_off_c, 5, 72, 64
7, 98992, Note_off_c, 5, 79, 64
7, 99048, Note_off_c, 5, 76, 64
7, 99060, Note_off_c, 5, 67, 64
7, 99072, Note_on_c, 5, 78, 106
7, 99072, Note_on_c, 5, 69, 106
7, 99072, Note_on_c, 5, 74, 99
7, 99072, Note_on_c, 5, 81, 103
7, 99752, Note_off_c, 5, 74, 64
7, 99840, Note_on_c, 5, 84, 101
7, 99840, Note_on_c, 5, 72, 105
7, 99840, Note_on_c, 5, 79, 122
7, 99840, Note_on_c, 5, 76, 101
7, 99860, Note_off_c, 5, 81, 64
7, 99868, Note_off_c, 5, 69, 64
7, 99872, Note_off_c, 5, 78, 64
7, 100520, Note_off_c, 5, 76, 64
7, 100608, Note_on_c, 5, 71, 95
7, 100608, Note_on_c, 5, 74, 90
7, 100608, Note_on_c, 5, 83, 110
7, 100660, Note_off_c, 5, 72, 64
7, 100668, Note_off_c, 5, 84, 64
7, 101240, Note_off_c, 5, 74, 64
7, 101348, Note_off_c, 5, 83, 64
7, 101376, Note_on_c, 5, 84, 106
7, 101376, Note_on_c, 5, 72, 82
7, 101376, Note_on_c, 5, 76, 73
7, 101380, Note_off_c, 5, 71, 64
7, 102048, Note_off_c, 5, 76, 64
7, 102092, Note_off_c, 5, 72, 64
7, 102144, Note_on_c, 5, 81, 112
7, 102144, Note_on_c, 5, 69, 94
7, 102144, Note_on_c, 5, 74, 81
7, 102144, Note_on_c, 5, 86, 92
7, 102144, Note_on_c, 5, 78, 90
7, 102168, Note_off_c, 5, 79, 64
7, 102200, Note_off_c, 5, 84, 64
7, 102764, Note_off_c, 5, 78, 64
7, 102888, Note_off_c, 5, 74, 64
7, 102900, Note_off_c, 5, 69, 64
7, 102912, Note_on_c, 5, 79, 97
7, 102912, Note_on_c, 5, 72, 89
7, 102912, Note_on_c, 5, 67, 102
7, 102912, Note_on_c, 5, 84, 106
7, 102912, Note_on_c, 5, 76, 58
7, 102932, Note_off_c, 5, 81, 64
7, 103016, Note_off_c, 5, 86, 64
7, 103536, Note_off_c, 5, 76, 64
7, 103676, Note_off_c, 5, 72, 64
7, 103680, Note_off_c, 5, 84, 64
7, 103680, Note_on_c, 5, 74, 88
7, 103680, Note_on_c, 5, 71, 85
7, 103680, Note_on_c, 5, 83, 115
7, 104360, Note_off_c, 5, 74, 64
7, 104432, Note_off_c, 5, 71, 64
7, 104444, Note_off_c, 5, 83, 64
7, 104448, Note_on_c, 5, 72, 100
7, 104448, Note_on_c, 5, 76, 90
7, 105124, Note_off_c, 5, 76, 64
7, 105172, Note_off_c, 5, 67, 64
7, 105216, Note_on_c, 5, 78, 100
7, 105216, Note_on_c, 5, 69, 96
7, 105216, Note_on_c, 5, 81, 101
7, 105216, Note_on_c, 5, 74, 74
7, 105224, Note_off_c, 5, 72, 64
7, 105272, Note_off_c, 5, 79, 64
7, 105968, Note_off_c, 5, 81, 64
7, 105984, Note_on_c, 5, 67, 88
7, 105984, Note_on_c, 5, 71, 80
7, 105988, Note_off_c, 5, 67, 64
7, 105988, Note_off_c, 5, 74, 64
7, 105988, Note_off_c, 5, 78, 64
7, 106036, Note_off_c, 5, 69, 64
7, 106668, Note_off_c, 5, 71, 64
7, 106752, Note_on_c, 5, 76, 105
7, 106752, Note_on_c, 5, 72, 73
7, 107136, Note_on_c, 5, 71, 108
7, 107136, Note_on_c, 5, 74, 92
7, 107148, Note_off_c, 5, 72, 64
7, 107148, Note_off_c, 5, 76, 64
7, 107284, Note_off_c, 5, 74, 64
7, 107292, Note_off_c, 5, 71, 64
7, 107328, Note_on_c, 5, 74, 113
7, 107328, Note_on_c, 5, 69, 84
7, 107328, Note_on_c, 5, 66, 96
7, 108232, Note_off_c, 5, 69, 64
7, 108260, Note_off_c, 5, 66, 64
7, 108288, Note_on_c, 5, 71, 88
7, 108288, Note_on_c, 5, 67, 84
7, 108864, Note_off_c, 5, 74, 64
7, 108864, Note_on_c, 5, 72, 99
7, 108864, Note_on_c, 5, 76, 96
7, 108868, Note_off_c, 5, 71, 64
7, 109784, Note_off_c, 5, 76, 64
7, 109804, Note_off_c, 5, 72, 64
7, 109824, Note_on_c, 5, 71, 96
7, 109824, Note_on_c, 5, 74, 109
7, 110592, Note_on_c, 5, 72, 91
7, 110592, Note_on_c, 5, 76, 86
7, 110628, Note_off_c, 5, 74, 64
7, 110636, Note_off_c, 5, 71, 64
7, 111360, Note_off_c, 5, 67, 64
7, 111360, Note_on_c, 5, 69, 82
7, 111360, Note_on_c, 5, 74, 104
7, 111360, Note_on_c, 5, 78, 104
7, 111364, Note_off_c, 5, 76, 64
7, 111416, Note_off_c, 5, 72, 64
7, 112128, Note_off_c, 5, 78, 64
7, 112128, Note_on_c, 5, 79, 81
7, 112128, Note_on_c, 5, 67, 95
7, 112128, Note_on_c, 5, 71, 76
7, 112180, Note_off_c, 5, 69, 64
7, 114724, Note_off_c, 5, 71, 64
7, 114748, Note_off_c, 5, 74, 64
7, 114756, Note_off_c, 5, 67, 64
7, 114780, Note_off_c, 5, 79, 64
7, 115200, End_track
8, 0, Start_track
8, 0, Title_t, "Standard "
8, 32, Control_c, 9, 120, 0
8, 64, Control_c, 9, 121, 0
8, 96, Control_c, 9, 11, 127
8, 128, Control_c, 9, 121, 0
8, 160, Control_c, 9, 0, 0
8, 192, Control_c, 9, 32, 0
8, 224, Program_c, 9, 0
8, 256, Control_c, 9, 7, 120
8, 288, Control_c, 9, 10, 64
8, 320, Control_c, 9, 91, 80
8, 352, Control_c, 9, 93, 0
8, 384, Control_c, 9, 101, 0
8, 416, Control_c, 9, 100, 0
8, 448, Control_c, 9, 6, 2
8, 1536, Note_on_c, 9, 42, 114
8, 1584, Note_off_c, 9, 42, 64
8, 1632, Note_on_c, 9, 42, 82
8, 1680, Note_off_c, 9, 42, 64
8, 1728, Note_on_c, 9, 42, 98
8, 1776, Note_off_c, 9, 42, 64
8, 1824, Note_on_c, 9, 42, 82
8, 1872, Note_off_c, 9, 42, 64
8, 1920, Note_on_c, 9, 42, 114
8, 1920, Note_on_c, 9, 37, 114
8, 1968, Note_off_c, 9, 42, 64
8, 2016, Note_on_c, 9, 42, 82
8, 2064, Note_off_c, 9, 42, 64
8, 2112, Note_off_c, 9, 37, 64
8, 2112, Note_on_c, 9, 42, 98
8, 2160, Note_off_c, 9, 42, 64
8, 2208, Note_on_c, 9, 42, 82
8, 2256, Note_off_c, 9, 42, 64
8, 2304, Note_on_c, 9, 42, 114
8, 2352, Note_off_c, 9, 42, 64
8, 2400, Note_on_c, 9, 42, 82
8, 2448, Note_off_c, 9, 42, 64
8, 2496, Note_on_c, 9, 42, 98
8, 2544, Note_off_c, 9, 42, 64
8, 2592, Note_on_c, 9, 42, 82
8, 2640, Note_off_c, 9, 42, 64
8, 2688, Note_on_c, 9, 39, 114
8, 2688, Note_on_c, 9, 42, 114
8, 2688, Note_on_c, 9, 37, 114
8, 2736, Note_off_c, 9, 42, 64
8, 2784, Note_on_c, 9, 42, 82
8, 2832, Note_off_c, 9, 42, 64
8, 2880, Note_off_c, 9, 37, 64
8, 2880, Note_off_c, 9, 39, 64
8, 2880, Note_on_c, 9, 42, 98
8, 2928, Note_off_c, 9, 42, 64
8, 2976, Note_on_c, 9, 42, 82
8, 3024, Note_off_c, 9, 42, 64
8, 3072, Note_on_c, 9, 42, 114
8, 3120, Note_off_c, 9, 42, 64
8, 3168, Note_on_c, 9, 42, 82
8, 3216, Note_off_c, 9, 42, 64
8, 3264, Note_on_c, 9, 42, 98
8, 3312, Note_off_c, 9, 42, 64
8, 3360, Note_on_c, 9, 42, 82
8, 3408, Note_off_c, 9, 42, 64
8, 3456, Note_on_c, 9, 42, 114
8, 3456, Note_on_c, 9, 37, 114
8, 3504, Note_off_c, 9, 42, 64
8, 3552, Note_on_c, 9, 42, 82
8, 3600, Note_off_c, 9, 42, 64
8, 3648, Note_off_c, 9, 37, 64
8, 3648, Note_on_c, 9, 42, 98
8, 3696, Note_off_c, 9, 42, 64
8, 3744, Note_on_c, 9, 42, 82
8, 3792, Note_off_c, 9, 42, 64
8, 3840, Note_on_c, 9, 42, 114
8, 3888, Note_off_c, 9, 42, 64
8, 3936, Note_on_c, 9, 42, 82
8, 3984, Note_off_c, 9, 42, 64
8, 4032, Note_on_c, 9, 42, 98
8, 4080, Note_off_c, 9, 42, 64
8, 4128, Note_on_c, 9, 42, 82
8, 4176, Note_off_c, 9, 42, 64
8, 4224, Note_on_c, 9, 39, 114
8, 4224, Note_on_c, 9, 42, 114
8, 4224, Note_on_c, 9, 37, 114
8, 4272, Note_off_c, 9, 42, 64
8, 4320, Note_on_c, 9, 42, 82
8, 4368, Note_off_c, 9, 42, 64
8, 4416, Note_off_c, 9, 37, 64
8, 4416, Note_off_c, 9, 39, 64
8, 4416, Note_on_c, 9, 42, 98
8, 4464, Note_off_c, 9, 42, 64
8, 4512, Note_on_c, 9, 42, 82
8, 4560, Note_off_c, 9, 42, 64
8, 4608, Note_on_c, 9, 42, 114
8, 4656, Note_off_c, 9, 42, 64
8, 4704, Note_on_c, 9, 42, 82
8, 4752, Note_off_c, 9, 42, 64
8, 4800, Note_on_c, 9, 42, 98
8, 4848, Note_off_c, 9, 42, 64
8, 4896, Note_on_c, 9, 42, 82
8, 4944, Note_off_c, 9, 42, 64
8, 4992, Note_on_c, 9, 42, 114
8, 4992, Note_on_c, 9, 37, 114
8, 5040, Note_off_c, 9, 42, 64
8, 5088, Note_on_c, 9, 42, 82
8, 5136, Note_off_c, 9, 42, 64
8, 5184, Note_off_c, 9, 37, 64
8, 5184, Note_on_c, 9, 42, 98
8, 5232, Note_off_c, 9, 42, 64
8, 5280, Note_on_c, 9, 42, 82
8, 5328, Note_off_c, 9, 42, 64
8, 5376, Note_on_c, 9, 42, 114
8, 5424, Note_off_c, 9, 42, 64
8, 5472, Note_on_c, 9, 42, 82
8, 5520, Note_off_c, 9, 42, 64
8, 5568, Note_on_c, 9, 42, 98
8, 5616, Note_off_c, 9, 42, 64
8, 5664, Note_on_c, 9, 42, 82
8, 5712, Note_off_c, 9, 42, 64
8, 5760, Note_on_c, 9, 39, 114
8, 5760, Note_on_c, 9, 42, 114
8, 5760, Note_on_c, 9, 37, 114
8, 5808, Note_off_c, 9, 42, 64
8, 5856, Note_on_c, 9, 42, 82
8, 5904, Note_off_c, 9, 42, 64
8, 5952, Note_off_c, 9, 37, 64
8, 5952, Note_off_c, 9, 39, 64
8, 5952, Note_on_c, 9, 42, 98
8, 6000, Note_off_c, 9, 42, 64
8, 6048, Note_on_c, 9, 42, 82
8, 6096, Note_off_c, 9, 42, 64
8, 6144, Note_on_c, 9, 42, 114
8, 6192, Note_off_c, 9, 42, 64
8, 6240, Note_on_c, 9, 42, 82
8, 6288, Note_off_c, 9, 42, 64
8, 6336, Note_on_c, 9, 42, 98
8, 6384, Note_off_c, 9, 42, 64
8, 6432, Note_on_c, 9, 42, 82
8, 6480, Note_off_c, 9, 42, 64
8, 6528, Note_on_c, 9, 42, 114
8, 6528, Note_on_c, 9, 37, 114
8, 6576, Note_off_c, 9, 42, 64
8, 6624, Note_on_c, 9, 42, 82
8, 6672, Note_off_c, 9, 42, 64
8, 6720, Note_off_c, 9, 37, 64
8, 6720, Note_on_c, 9, 42, 98
8, 6768, Note_off_c, 9, 42, 64
8, 6816, Note_on_c, 9, 42, 82
8, 6864, Note_off_c, 9, 42, 64
8, 6912, Note_on_c, 9, 42, 114
8, 6960, Note_off_c, 9, 42, 64
8, 7008, Note_on_c, 9, 42, 82
8, 7056, Note_off_c, 9, 42, 64
8, 7104, Note_on_c, 9, 42, 98
8, 7152, Note_off_c, 9, 42, 64
8, 7200, Note_on_c, 9, 42, 82
8, 7248, Note_off_c, 9, 42, 64
8, 7296, Note_on_c, 9, 39, 114
8, 7296, Note_on_c, 9, 42, 114
8, 7296, Note_on_c, 9, 37, 114
8, 7344, Note_off_c, 9, 42, 64
8, 7392, Note_on_c, 9, 42, 82
8, 7440, Note_off_c, 9, 42, 64
8, 7488, Note_off_c, 9, 37, 64
8, 7488, Note_off_c, 9, 39, 64
8, 7488, Note_on_c, 9, 42, 98
8, 7536, Note_off_c, 9, 42, 64
8, 7584, Note_on_c, 9, 42, 82
8, 7632, Note_off_c, 9, 42, 64
8, 7680, Note_on_c, 9, 42, 114
8, 7728, Note_off_c, 9, 42, 64
8, 7776, Note_on_c, 9, 42, 82
8, 7824, Note_off_c, 9, 42, 64
8, 7872, Note_on_c, 9, 42, 98
8, 7920, Note_off_c, 9, 42, 64
8, 7968, Note_on_c, 9, 42, 82
8, 8016, Note_off_c, 9, 42, 64
8, 8064, Note_on_c, 9, 42, 114
8, 8064, Note_on_c, 9, 37, 114
8, 8112, Note_off_c, 9, 42, 64
8, 8160, Note_on_c, 9, 42, 82
8, 8208, Note_off_c, 9, 42, 64
8, 8256, Note_off_c, 9, 37, 64
8, 8256, Note_on_c, 9, 42, 98
8, 8304, Note_off_c, 9, 42, 64
8, 8352, Note_on_c, 9, 42, 82
8, 8400, Note_off_c, 9, 42, 64
8, 8448, Note_on_c, 9, 42, 114
8, 8496, Note_off_c, 9, 42, 64
8, 8544, Note_on_c, 9, 42, 82
8, 8592, Note_off_c, 9, 42, 64
8, 8640, Note_on_c, 9, 42, 98
8, 8688, Note_off_c, 9, 42, 64
8, 8736, Note_on_c, 9, 42, 82
8, 8784, Note_off_c, 9, 42, 64
8, 8832, Note_on_c, 9, 39, 114
8, 8832, Note_on_c, 9, 42, 114
8, 8832, Note_on_c, 9, 37, 114
8, 8880, Note_off_c, 9, 42, 64
8, 8928, Note_on_c, 9, 42, 82
8, 8976, Note_off_c, 9, 42, 64
8, 9024, Note_off_c, 9, 37, 64
8, 9024, Note_off_c, 9, 39, 64
8, 9024, Note_on_c, 9, 42, 98
8, 9072, Note_off_c, 9, 42, 64
8, 9120, Note_on_c, 9, 42, 82
8, 9168, Note_off_c, 9, 42, 64
8, 9216, Note_on_c, 9, 42, 114
8, 9264, Note_off_c, 9, 42, 64
8, 9312, Note_on_c, 9, 42, 82
8, 9360, Note_off_c, 9, 42, 64
8, 9408, Note_on_c, 9, 42, 98
8, 9456, Note_off_c, 9, 42, 64
8, 9504, Note_on_c, 9, 42, 82
8, 9552, Note_off_c, 9, 42, 64
8, 9600, Note_on_c, 9, 42, 114
8, 9600, Note_on_c, 9, 37, 114
8, 9648, Note_off_c, 9, 42, 64
8, 9696, Note_on_c, 9, 42, 82
8, 9744, Note_off_c, 9, 42, 64
8, 9792, Note_off_c, 9, 37, 64
8, 9792, Note_on_c, 9, 42, 98
8, 9840, Note_off_c, 9, 42, 64
8, 9888, Note_on_c, 9, 42, 82
8, 9936, Note_off_c, 9, 42, 64
8, 9984, Note_on_c, 9, 42, 114
8, 10032, Note_off_c, 9, 42, 64
8, 10080, Note_on_c, 9, 42, 82
8, 10128, Note_off_c, 9, 42, 64
8, 10176, Note_on_c, 9, 42, 98
8, 10224, Note_off_c, 9, 42, 64
8, 10272, Note_on_c, 9, 42, 82
8, 10320, Note_off_c, 9, 42, 64
8, 10368, Note_on_c, 9, 39, 114
8, 10368, Note_on_c, 9, 42, 114
8, 10368, Note_on_c, 9, 37, 114
8, 10416, Note_off_c, 9, 42, 64
8, 10464, Note_on_c, 9, 42, 82
8, 10512, Note_off_c, 9, 42, 64
8, 10560, Note_off_c, 9, 37, 64
8, 10560, Note_off_c, 9, 39, 64
8, 10560, Note_on_c, 9, 42, 98
8, 10608, Note_off_c, 9, 42, 64
8, 10656, Note_on_c, 9, 42, 82
8, 10704, Note_off_c, 9, 42, 64
8, 10752, Note_on_c, 9, 42, 114
8, 10800, Note_off_c, 9, 42, 64
8, 10848, Note_on_c, 9, 42, 82
8, 10896, Note_off_c, 9, 42, 64
8, 10944, Note_on_c, 9, 42, 98
8, 10992, Note_off_c, 9, 42, 64
8, 11040, Note_on_c, 9, 42, 82
8, 11088, Note_off_c, 9, 42, 64
8, 11136, Note_on_c, 9, 42, 114
8, 11136, Note_on_c, 9, 37, 114
8, 11184, Note_off_c, 9, 42, 64
8, 11232, Note_on_c, 9, 42, 82
8, 11280, Note_off_c, 9, 42, 64
8, 11328, Note_off_c, 9, 37, 64
8, 11328, Note_on_c, 9, 42, 98
8, 11376, Note_off_c, 9, 42, 64
8, 11424, Note_on_c, 9, 42, 82
8, 11472, Note_off_c, 9, 42, 64
8, 11520, Note_on_c, 9, 42, 114
8, 11568, Note_off_c, 9, 42, 64
8, 11616, Note_on_c, 9, 42, 82
8, 11664, Note_off_c, 9, 42, 64
8, 11712, Note_on_c, 9, 42, 98
8, 11760, Note_off_c, 9, 42, 64
8, 11808, Note_on_c, 9, 42, 82
8, 11856, Note_off_c, 9, 42, 64
8, 11904, Note_on_c, 9, 39, 114
8, 11904, Note_on_c, 9, 42, 114
8, 11904, Note_on_c, 9, 37, 114
8, 11952, Note_off_c, 9, 42, 64
8, 12000, Note_on_c, 9, 42, 82
8, 12048, Note_off_c, 9, 42, 64
8, 12096, Note_off_c, 9, 37, 64
8, 12096, Note_off_c, 9, 39, 64
8, 12096, Note_on_c, 9, 42, 98
8, 12144, Note_off_c, 9, 42, 64
8, 12192, Note_on_c, 9, 42, 82
8, 12240, Note_off_c, 9, 42, 64
8, 12288, Note_on_c, 9, 42, 114
8, 12336, Note_off_c, 9, 42, 64
8, 12384, Note_on_c, 9, 42, 82
8, 12432, Note_off_c, 9, 42, 64
8, 12480, Note_on_c, 9, 42, 98
8, 12528, Note_off_c, 9, 42, 64
8, 12576, Note_on_c, 9, 42, 82
8, 12624, Note_off_c, 9, 42, 64
8, 12672, Note_on_c, 9, 42, 114
8, 12672, Note_on_c, 9, 37, 114
8, 12720, Note_off_c, 9, 42, 64
8, 12768, Note_on_c, 9, 42, 82
8, 12816, Note_off_c, 9, 42, 64
8, 12864, Note_off_c, 9, 37, 64
8, 12864, Note_on_c, 9, 42, 98
8, 12912, Note_off_c, 9, 42, 64
8, 12960, Note_on_c, 9, 42, 82
8, 13008, Note_off_c, 9, 42, 64
8, 13056, Note_on_c, 9, 42, 114
8, 13104, Note_off_c, 9, 42, 64
8, 13152, Note_on_c, 9, 42, 82
8, 13200, Note_off_c, 9, 42, 64
8, 13248, Note_on_c, 9, 42, 98
8, 13296, Note_off_c, 9, 42, 64
8, 13344, Note_on_c, 9, 42, 82
8, 13392, Note_off_c, 9, 42, 64
8, 13440, Note_on_c, 9, 39, 114
8, 13440, Note_on_c, 9, 42, 114
8, 13440, Note_on_c, 9, 37, 114
8, 13488, Note_off_c, 9, 42, 64
8, 13536, Note_on_c, 9, 42, 82
8, 13584, Note_off_c, 9, 42, 64
8, 13632, Note_off_c, 9, 37, 64
8, 13632, Note_off_c, 9, 39, 64
8, 13632, Note_on_c, 9, 42, 98
8, 13680, Note_off_c, 9, 42, 64
8, 13728, Note_on_c, 9, 42, 82
8, 13776, Note_off_c, 9, 42, 64
8, 13824, Control_c, 9, 91, 127
8, 13824, Note_on_c, 9, 35, 114
8, 13824, Note_on_c, 9, 42, 114
8, 13872, Note_off_c, 9, 42, 64
8, 13872, Note_off_c, 9, 35, 64
8, 13920, Note_on_c, 9, 42, 82
8, 13968, Note_off_c, 9, 42, 64
8, 14016, Note_on_c, 9, 42, 98
8, 14064, Note_off_c, 9, 42, 64
8, 14112, Note_on_c, 9, 42, 82
8, 14160, Note_off_c, 9, 42, 64
8, 14208, Note_on_c, 9, 42, 114
8, 14208, Note_on_c, 9, 37, 114
8, 14256, Note_off_c, 9, 42, 64
8, 14304, Note_on_c, 9, 42, 82
8, 14352, Note_off_c, 9, 42, 64
8, 14400, Note_off_c, 9, 37, 64
8, 14400, Note_on_c, 9, 42, 98
8, 14448, Note_off_c, 9, 42, 64
8, 14496, Note_on_c, 9, 35, 114
8, 14496, Note_on_c, 9, 42, 82
8, 14544, Note_off_c, 9, 42, 64
8, 14544, Note_off_c, 9, 35, 64
8, 14592, Note_on_c, 9, 35, 114
8, 14592, Note_on_c, 9, 42, 114
8, 14640, Note_off_c, 9, 42, 64
8, 14640, Note_off_c, 9, 35, 64
8, 14688, Note_on_c, 9, 42, 82
8, 14736, Note_off_c, 9, 42, 64
8, 14784, Note_on_c, 9, 42, 98
8, 14832, Note_off_c, 9, 42, 64
8, 14880, Note_on_c, 9, 42, 82
8, 14928, Note_off_c, 9, 42, 64
8, 14976, Note_on_c, 9, 39, 114
8, 14976, Note_on_c, 9, 42, 114
8, 14976, Note_on_c, 9, 37, 114
8, 15024, Note_off_c, 9, 42, 64
8, 15072, Note_on_c, 9, 42, 82
8, 15120, Note_off_c, 9, 42, 64
8, 15168, Note_off_c, 9, 37, 64
8, 15168, Note_off_c, 9, 39, 64
8, 15168, Note_on_c, 9, 35, 114
8, 15168, Note_on_c, 9, 42, 98
8, 15216, Note_off_c, 9, 42, 64
8, 15216, Note_off_c, 9, 35, 64
8, 15264, Note_on_c, 9, 42, 82
8, 15312, Note_off_c, 9, 42, 64
8, 15360, Note_on_c, 9, 35, 114
8, 15360, Note_on_c, 9, 42, 114
8, 15408, Note_off_c, 9, 42, 64
8, 15408, Note_off_c, 9, 35, 64
8, 15456, Note_on_c, 9, 42, 82
8, 15504, Note_off_c, 9, 42, 64
8, 15552, Note_on_c, 9, 42, 98
8, 15600, Note_off_c, 9, 42, 64
8, 15648, Note_on_c, 9, 42, 82
8, 15696, Note_off_c, 9, 42, 64
8, 15744, Note_on_c, 9, 42, 114
8, 15744, Note_on_c, 9, 37, 114
8, 15792, Note_off_c, 9, 42, 64
8, 15840, Note_on_c, 9, 42, 82
8, 15888, Note_off_c, 9, 42, 64
8, 15936, Note_off_c, 9, 37, 64
8, 15936, Note_on_c, 9, 42, 98
8, 15984, Note_off_c, 9, 42, 64
8, 16032, Note_on_c, 9, 35, 114
8, 16032, Note_on_c, 9, 42, 82
8, 16080, Note_off_c, 9, 42, 64
8, 16080, Note_off_c, 9, 35, 64
8, 16128, Note_on_c, 9, 35, 114
8, 16128, Note_on_c, 9, 42, 114
8, 16176, Note_off_c, 9, 42, 64
8, 16176, Note_off_c, 9, 35, 64
8, 16224, Note_on_c, 9, 42, 82
8, 16272, Note_off_c, 9, 42, 64
8, 16320, Note_on_c, 9, 42, 98
8, 16368, Note_off_c, 9, 42, 64
8, 16416, Note_on_c, 9, 42, 82
8, 16464, Note_off_c, 9, 42, 64
8, 16512, Note_on_c, 9, 39, 114
8, 16512, Note_on_c, 9, 42, 114
8, 16512, Note_on_c, 9, 37, 114
8, 16560, Note_off_c, 9, 42, 64
8, 16608, Note_on_c, 9, 42, 82
8, 16656, Note_off_c, 9, 42, 64
8, 16704, Note_off_c, 9, 37, 64
8, 16704, Note_off_c, 9, 39, 64
8, 16704, Note_on_c, 9, 35, 114
8, 16704, Note_on_c, 9, 42, 98
8, 16752, Note_off_c, 9, 42, 64
8, 16752, Note_off_c, 9, 35, 64
8, 16800, Note_on_c, 9, 42, 82
8, 16848, Note_off_c, 9, 42, 64
8, 16896, Note_on_c, 9, 35, 114
8, 16896, Note_on_c, 9, 42, 114
8, 16944, Note_off_c, 9, 42, 64
8, 16944, Note_off_c, 9, 35, 64
8, 16992, Note_on_c, 9, 42, 82
8, 17040, Note_off_c, 9, 42, 64
8, 17088, Note_on_c, 9, 42, 98
8, 17136, Note_off_c, 9, 42, 64
8, 17184, Note_on_c, 9, 42, 82
8, 17232, Note_off_c, 9, 42, 64
8, 17280, Note_on_c, 9, 42, 114
8, 17280, Note_on_c, 9, 37, 114
8, 17328, Note_off_c, 9, 42, 64
8, 17376, Note_on_c, 9, 42, 82
8, 17424, Note_off_c, 9, 42, 64
8, 17472, Note_off_c, 9, 37, 64
8, 17472, Note_on_c, 9, 42, 98
8, 17520, Note_off_c, 9, 42, 64
8, 17568, Note_on_c, 9, 35, 114
8, 17568, Note_on_c, 9, 42, 82
8, 17616, Note_off_c, 9, 42, 64
8, 17616, Note_off_c, 9, 35, 64
8, 17664, Note_on_c, 9, 35, 114
8, 17664, Note_on_c, 9, 42, 114
8, 17712, Note_off_c, 9, 42, 64
8, 17712, Note_off_c, 9, 35, 64
8, 17760, Note_on_c, 9, 42, 82
8, 17808, Note_off_c, 9, 42, 64
8, 17856, Note_on_c, 9, 42, 98
8, 17904, Note_off_c, 9, 42, 64
8, 17952, Note_on_c, 9, 42, 82
8, 18000, Note_off_c, 9, 42, 64
8, 18048, Note_on_c, 9, 39, 114
8, 18048, Note_on_c, 9, 42, 114
8, 18048, Note_on_c, 9, 37, 114
8, 18096, Note_off_c, 9, 42, 64
8, 18144, Note_on_c, 9, 42, 82
8, 18192, Note_off_c, 9, 42, 64
8, 18240, Note_off_c, 9, 37, 64
8, 18240, Note_off_c, 9, 39, 64
8, 18240, Note_on_c, 9, 35, 114
8, 18240, Note_on_c, 9, 42, 98
8, 18288, Note_off_c, 9, 42, 64
8, 18288, Note_off_c, 9, 35, 64
8, 18336, Note_on_c, 9, 42, 82
8, 18384, Note_off_c, 9, 42, 64
8, 18432, Note_on_c, 9, 35, 114
8, 18432, Note_on_c, 9, 42, 114
8, 18480, Note_off_c, 9, 42, 64
8, 18480, Note_off_c, 9, 35, 64
8, 18528, Note_on_c, 9, 42, 82
8, 18576, Note_off_c, 9, 42, 64
8, 18624, Note_on_c, 9, 42, 98
8, 18672, Note_off_c, 9, 42, 64
8, 18720, Note_on_c, 9, 42, 82
8, 18768, Note_off_c, 9, 42, 64
8, 18816, Note_on_c, 9, 42, 114
8, 18816, Note_on_c, 9, 37, 114
8, 18864, Note_off_c, 9, 42, 64
8, 18912, Note_on_c, 9, 42, 82
8, 18960, Note_off_c, 9, 42, 64
8, 19008, Note_off_c, 9, 37, 64
8, 19008, Note_on_c, 9, 42, 98
8, 19056, Note_off_c, 9, 42, 64
8, 19104, Note_on_c, 9, 35, 114
8, 19104, Note_on_c, 9, 42, 82
8, 19152, Note_off_c, 9, 42, 64
8, 19152, Note_off_c, 9, 35, 64
8, 19200, Note_on_c, 9, 35, 114
8, 19200, Note_on_c, 9, 42, 114
8, 19248, Note_off_c, 9, 42, 64
8, 19248, Note_off_c, 9, 35, 64
8, 19296, Note_on_c, 9, 42, 82
8, 19344, Note_off_c, 9, 42, 64
8, 19392, Note_on_c, 9, 42, 98
8, 19440, Note_off_c, 9, 42, 64
8, 19488, Note_on_c, 9, 42, 82
8, 19536, Note_off_c, 9, 42, 64
8, 19584, Note_on_c, 9, 39, 114
8, 19584, Note_on_c, 9, 42, 114
8, 19584, Note_on_c, 9, 37, 114
8, 19632, Note_off_c, 9, 42, 64
8, 19680, Note_on_c, 9, 42, 82
8, 19728, Note_off_c, 9, 42, 64
8, 19776, Note_off_c, 9, 37, 64
8, 19776, Note_off_c, 9, 39, 64
8, 19776, Note_on_c, 9, 35, 114
8, 19776, Note_on_c, 9, 42, 98
8, 19824, Note_off_c, 9, 42, 64
8, 19824, Note_off_c, 9, 35, 64
8, 19872, Note_on_c, 9, 42, 82
8, 19920, Note_off_c, 9, 42, 64
8, 19968, Note_on_c, 9, 35, 114
8, 19968, Note_on_c, 9, 42, 114
8, 20016, Note_off_c, 9, 42, 64
8, 20016, Note_off_c, 9, 35, 64
8, 20064, Note_on_c, 9, 42, 82
8, 20112, Note_off_c, 9, 42, 64
8, 20160, Note_on_c, 9, 42, 98
8, 20208, Note_off_c, 9, 42, 64
8, 20256, Note_on_c, 9, 42, 82
8, 20304, Note_off_c, 9, 42, 64
8, 20352, Note_on_c, 9, 42, 114
8, 20352, Note_on_c, 9, 37, 114
8, 20400, Note_off_c, 9, 42, 64
8, 20448, Note_on_c, 9, 42, 82
8, 20496, Note_off_c, 9, 42, 64
8, 20544, Note_off_c, 9, 37, 64
8, 20544, Note_on_c, 9, 42, 98
8, 20592, Note_off_c, 9, 42, 64
8, 20640, Note_on_c, 9, 35, 114
8, 20640, Note_on_c, 9, 42, 82
8, 20688, Note_off_c, 9, 42, 64
8, 20688, Note_off_c, 9, 35, 64
8, 20736, Note_on_c, 9, 35, 114
8, 20736, Note_on_c, 9, 42, 114
8, 20784, Note_off_c, 9, 42, 64
8, 20784, Note_off_c, 9, 35, 64
8, 20832, Note_on_c, 9, 42, 82
8, 20880, Note_off_c, 9, 42, 64
8, 20928, Note_on_c, 9, 42, 98
8, 20976, Note_off_c, 9, 42, 64
8, 21024, Note_on_c, 9, 42, 82
8, 21072, Note_off_c, 9, 42, 64
8, 21120, Note_on_c, 9, 39, 114
8, 21120, Note_on_c, 9, 42, 114
8, 21120, Note_on_c, 9, 37, 114
8, 21168, Note_off_c, 9, 42, 64
8, 21216, Note_on_c, 9, 42, 82
8, 21264, Note_off_c, 9, 42, 64
8, 21312, Note_off_c, 9, 37, 64
8, 21312, Note_off_c, 9, 39, 64
8, 21312, Note_on_c, 9, 35, 114
8, 21312, Note_on_c, 9, 42, 98
8, 21360, Note_off_c, 9, 42, 64
8, 21360, Note_off_c, 9, 35, 64
8, 21408, Note_on_c, 9, 42, 82
8, 21456, Note_off_c, 9, 42, 64
8, 21504, Note_on_c, 9, 35, 114
8, 21504, Note_on_c, 9, 42, 114
8, 21552, Note_off_c, 9, 42, 64
8, 21552, Note_off_c, 9, 35, 64
8, 21600, Note_on_c, 9, 42, 82
8, 21648, Note_off_c, 9, 42, 64
8, 21696, Note_on_c, 9, 42, 98
8, 21744, Note_off_c, 9, 42, 64
8, 21792, Note_on_c, 9, 42, 82
8, 21840, Note_off_c, 9, 42, 64
8, 21888, Note_on_c, 9, 42, 114
8, 21888, Note_on_c, 9, 37, 114
8, 21936, Note_off_c, 9, 42, 64
8, 21984, Note_on_c, 9, 42, 82
8, 22032, Note_off_c, 9, 42, 64
8, 22080, Note_off_c, 9, 37, 64
8, 22080, Note_on_c, 9, 42, 98
8, 22128, Note_off_c, 9, 42, 64
8, 22176, Note_on_c, 9, 35, 114
8, 22176, Note_on_c, 9, 42, 82
8, 22224, Note_off_c, 9, 42, 64
8, 22224, Note_off_c, 9, 35, 64
8, 22272, Note_on_c, 9, 35, 114
8, 22272, Note_on_c, 9, 42, 114
8, 22320, Note_off_c, 9, 42, 64
8, 22320, Note_off_c, 9, 35, 64
8, 22368, Note_on_c, 9, 42, 82
8, 22416, Note_off_c, 9, 42, 64
8, 22464, Note_on_c, 9, 42, 98
8, 22512, Note_off_c, 9, 42, 64
8, 22560, Note_on_c, 9, 42, 82
8, 22608, Note_off_c, 9, 42, 64
8, 22656, Note_on_c, 9, 39, 114
8, 22656, Note_on_c, 9, 42, 114
8, 22656, Note_on_c, 9, 37, 114
8, 22704, Note_off_c, 9, 42, 64
8, 22752, Note_on_c, 9, 42, 82
8, 22800, Note_off_c, 9, 42, 64
8, 22848, Note_off_c, 9, 37, 64
8, 22848, Note_off_c, 9, 39, 64
8, 22848, Note_on_c, 9, 35, 114
8, 22848, Note_on_c, 9, 42, 98
8, 22896, Note_off_c, 9, 42, 64
8, 22896, Note_off_c, 9, 35, 64
8, 22944, Note_on_c, 9, 42, 82
8, 22992, Note_off_c, 9, 42, 64
8, 23040, Note_on_c, 9, 35, 114
8, 23040, Note_on_c, 9, 42, 114
8, 23088, Note_off_c, 9, 42, 64
8, 23088, Note_off_c, 9, 35, 64
8, 23136, Note_on_c, 9, 42, 82
8, 23184, Note_off_c, 9, 42, 64
8, 23232, Note_on_c, 9, 42, 98
8, 23280, Note_off_c, 9, 42, 64
8, 23328, Note_on_c, 9, 42, 82
8, 23376, Note_off_c, 9, 42, 64
8, 23424, Note_on_c, 9, 42, 114
8, 23424, Note_on_c, 9, 37, 114
8, 23472, Note_off_c, 9, 42, 64
8, 23520, Note_on_c, 9, 42, 82
8, 23568, Note_off_c, 9, 42, 64
8, 23616, Note_off_c, 9, 37, 64
8, 23616, Note_on_c, 9, 42, 98
8, 23664, Note_off_c, 9, 42, 64
8, 23712, Note_on_c, 9, 35, 114
8, 23712, Note_on_c, 9, 42, 82
8, 23760, Note_off_c, 9, 42, 64
8, 23760, Note_off_c, 9, 35, 64
8, 23808, Note_on_c, 9, 35, 114
8, 23808, Note_on_c, 9, 42, 114
8, 23856, Note_off_c, 9, 42, 64
8, 23856, Note_off_c, 9, 35, 64
8, 23904, Note_on_c, 9, 42, 82
8, 23952, Note_off_c, 9, 42, 64
8, 24000, Note_on_c, 9, 42, 98
8, 24048, Note_off_c, 9, 42, 64
8, 24096, Note_on_c, 9, 42, 82
8, 24144, Note_off_c, 9, 42, 64
8, 24192, Note_on_c, 9, 39, 114
8, 24192, Note_on_c, 9, 42, 114
8, 24192, Note_on_c, 9, 37, 114
8, 24240, Note_off_c, 9, 42, 64
8, 24288, Note_on_c, 9, 42, 82
8, 24336, Note_off_c, 9, 42, 64
8, 24384, Note_off_c, 9, 37, 64
8, 24384, Note_off_c, 9, 39, 64
8, 24384, Note_on_c, 9, 35, 114
8, 24384, Note_on_c, 9, 42, 98
8, 24432, Note_off_c, 9, 42, 64
8, 24432, Note_off_c, 9, 35, 64
8, 24480, Note_on_c, 9, 42, 82
8, 24528, Note_off_c, 9, 42, 64
8, 24576, Note_on_c, 9, 35, 114
8, 24576, Note_on_c, 9, 42, 114
8, 24624, Note_off_c, 9, 42, 64
8, 24624, Note_off_c, 9, 35, 64
8, 24672, Note_on_c, 9, 42, 82
8, 24720, Note_off_c, 9, 42, 64
8, 24768, Note_on_c, 9, 42, 98
8, 24816, Note_off_c, 9, 42, 64
8, 24864, Note_on_c, 9, 42, 82
8, 24912, Note_off_c, 9, 42, 64
8, 24960, Note_on_c, 9, 42, 114
8, 24960, Note_on_c, 9, 37, 114
8, 25008, Note_off_c, 9, 42, 64
8, 25056, Note_on_c, 9, 42, 82
8, 25104, Note_off_c, 9, 42, 64
8, 25152, Note_off_c, 9, 37, 64
8, 25152, Note_on_c, 9, 42, 98
8, 25200, Note_off_c, 9, 42, 64
8, 25248, Note_on_c, 9, 35, 114
8, 25248, Note_on_c, 9, 42, 82
8, 25296, Note_off_c, 9, 42, 64
8, 25296, Note_off_c, 9, 35, 64
8, 25344, Note_on_c, 9, 35, 114
8, 25344, Note_on_c, 9, 42, 114
8, 25392, Note_off_c, 9, 42, 64
8, 25392, Note_off_c, 9, 35, 64
8, 25440, Note_on_c, 9, 42, 82
8, 25488, Note_off_c, 9, 42, 64
8, 25536, Note_on_c, 9, 42, 98
8, 25584, Note_off_c, 9, 42, 64
8, 25632, Note_on_c, 9, 42, 82
8, 25680, Note_off_c, 9, 42, 64
8, 25728, Note_on_c, 9, 39, 114
8, 25728, Note_on_c, 9, 42, 114
8, 25728, Note_on_c, 9, 37, 114
8, 25776, Note_off_c, 9, 42, 64
8, 25824, Note_on_c, 9, 42, 82
8, 25872, Note_off_c, 9, 42, 64
8, 25920, Note_off_c, 9, 37, 64
8, 25920, Note_off_c, 9, 39, 64
8, 25920, Note_on_c, 9, 35, 114
8, 25920, Note_on_c, 9, 46, 114
8, 25968, Note_off_c, 9, 35, 64
8, 26016, Note_off_c, 9, 46, 64
8, 26112, Note_on_c, 9, 35, 114
8, 26112, Note_on_c, 9, 42, 114
8, 26160, Note_off_c, 9, 42, 64
8, 26160, Note_off_c, 9, 35, 64
8, 26208, Note_on_c, 9, 42, 82
8, 26256, Note_off_c, 9, 42, 64
8, 26304, Note_on_c, 9, 42, 98
8, 26352, Note_off_c, 9, 42, 64
8, 26400, Note_on_c, 9, 42, 82
8, 26448, Note_off_c, 9, 42, 64
8, 26496, Note_on_c, 9, 42, 114
8, 26496, Note_on_c, 9, 37, 114
8, 26544, Note_off_c, 9, 42, 64
8, 26592, Note_on_c, 9, 42, 82
8, 26640, Note_off_c, 9, 42, 64
8, 26688, Note_off_c, 9, 37, 64
8, 26688, Note_on_c, 9, 42, 98
8, 26736, Note_off_c, 9, 42, 64
8, 26784, Note_on_c, 9, 35, 114
8, 26784, Note_on_c, 9, 42, 82
8, 26832, Note_off_c, 9, 42, 64
8, 26832, Note_off_c, 9, 35, 64
8, 26880, Note_on_c, 9, 35, 114
8, 26880, Note_on_c, 9, 42, 114
8, 26928, Note_off_c, 9, 42, 64
8, 26928, Note_off_c, 9, 35, 64
8, 26976, Note_on_c, 9, 42, 82
8, 27024, Note_off_c, 9, 42, 64
8, 27072, Note_on_c, 9, 42, 98
8, 27120, Note_off_c, 9, 42, 64
8, 27168, Note_on_c, 9, 42, 82
8, 27216, Note_off_c, 9, 42, 64
8, 27264, Note_on_c, 9, 39, 114
8, 27264, Note_on_c, 9, 42, 114
8, 27264, Note_on_c, 9, 37, 114
8, 27312, Note_off_c, 9, 42, 64
8, 27360, Note_on_c, 9, 42, 82
8, 27408, Note_off_c, 9, 42, 64
8, 27456, Note_off_c, 9, 37, 64
8, 27456, Note_off_c, 9, 39, 64
8, 27456, Note_on_c, 9, 35, 114
8, 27456, Note_on_c, 9, 42, 98
8, 27504, Note_off_c, 9, 42, 64
8, 27504, Note_off_c, 9, 35, 64
8, 27552, Note_on_c, 9, 42, 82
8, 27600, Note_off_c, 9, 42, 64
8, 27648, Note_on_c, 9, 35, 114
8, 27648, Note_on_c, 9, 42, 114
8, 27696, Note_off_c, 9, 42, 64
8, 27696, Note_off_c, 9, 35, 64
8, 27744, Note_on_c, 9, 42, 82
8, 27792, Note_off_c, 9, 42, 64
8, 27840, Note_on_c, 9, 42, 98
8, 27888, Note_off_c, 9, 42, 64
8, 27936, Note_on_c, 9, 42, 82
8, 27984, Note_off_c, 9, 42, 64
8, 28032, Note_on_c, 9, 42, 114
8, 28032, Note_on_c, 9, 37, 114
8, 28080, Note_off_c, 9, 42, 64
8, 28128, Note_on_c, 9, 42, 82
8, 28176, Note_off_c, 9, 42, 64
8, 28224, Note_off_c, 9, 37, 64
8, 28224, Note_on_c, 9, 42, 98
8, 28272, Note_off_c, 9, 42, 64
8, 28320, Note_on_c, 9, 35, 114
8, 28320, Note_on_c, 9, 42, 82
8, 28368, Note_off_c, 9, 42, 64
8, 28368, Note_off_c, 9, 35, 64
8, 28416, Note_on_c, 9, 35, 114
8, 28416, Note_on_c, 9, 42, 114
8, 28464, Note_off_c, 9, 42, 64
8, 28464, Note_off_c, 9, 35, 64
8, 28512, Note_on_c, 9, 42, 82
8, 28560, Note_off_c, 9, 42, 64
8, 28608, Note_on_c, 9, 42, 98
8, 28656, Note_off_c, 9, 42, 64
8, 28704, Note_on_c, 9, 42, 82
8, 28752, Note_off_c, 9, 42, 64
8, 28800, Note_on_c, 9, 39, 114
8, 28800, Note_on_c, 9, 42, 114
8, 28800, Note_on_c, 9, 37, 114
8, 28848, Note_off_c, 9, 42, 64
8, 28896, Note_on_c, 9, 42, 82
8, 28944, Note_off_c, 9, 42, 64
8, 28992, Note_off_c, 9, 37, 64
8, 28992, Note_off_c, 9, 39, 64
8, 28992, Note_on_c, 9, 35, 114
8, 28992, Note_on_c, 9, 42, 98
8, 29040, Note_off_c, 9, 42, 64
8, 29040, Note_off_c, 9, 35, 64
8, 29088, Note_on_c, 9, 42, 82
8, 29136, Note_off_c, 9, 42, 64
8, 29184, Note_on_c, 9, 35, 114
8, 29184, Note_on_c, 9, 42, 114
8, 29232, Note_off_c, 9, 42, 64
8, 29232, Note_off_c, 9, 35, 64
8, 29280, Note_on_c, 9, 42, 82
8, 29328, Note_off_c, 9, 42, 64
8, 29376, Note_on_c, 9, 42, 98
8, 29424, Note_off_c, 9, 42, 64
8, 29472, Note_on_c, 9, 42, 82
8, 29520, Note_off_c, 9, 42, 64
8, 29568, Note_on_c, 9, 42, 114
8, 29568, Note_on_c, 9, 37, 114
8, 29616, Note_off_c, 9, 42, 64
8, 29664, Note_on_c, 9, 42, 82
8, 29712, Note_off_c, 9, 42, 64
8, 29760, Note_off_c, 9, 37, 64
8, 29760, Note_on_c, 9, 42, 98
8, 29808, Note_off_c, 9, 42, 64
8, 29856, Note_on_c, 9, 35, 114
8, 29856, Note_on_c, 9, 42, 82
8, 29904, Note_off_c, 9, 42, 64
8, 29904, Note_off_c, 9, 35, 64
8, 29952, Note_on_c, 9, 35, 114
8, 29952, Note_on_c, 9, 42, 114
8, 30000, Note_off_c, 9, 42, 64
8, 30000, Note_off_c, 9, 35, 64
8, 30048, Note_on_c, 9, 42, 82
8, 30096, Note_off_c, 9, 42, 64
8, 30144, Note_on_c, 9, 42, 98
8, 30192, Note_off_c, 9, 42, 64
8, 30240, Note_on_c, 9, 42, 82
8, 30288, Note_off_c, 9, 42, 64
8, 30336, Note_on_c, 9, 39, 114
8, 30336, Note_on_c, 9, 42, 114
8, 30336, Note_on_c, 9, 37, 114
8, 30384, Note_off_c, 9, 42, 64
8, 30432, Note_on_c, 9, 42, 82
8, 30480, Note_off_c, 9, 42, 64
8, 30528, Note_off_c, 9, 37, 64
8, 30528, Note_off_c, 9, 39, 64
8, 30528, Note_on_c, 9, 35, 114
8, 30528, Note_on_c, 9, 42, 98
8, 30576, Note_off_c, 9, 42, 64
8, 30576, Note_off_c, 9, 35, 64
8, 30624, Note_on_c, 9, 42, 82
8, 30672, Note_off_c, 9, 42, 64
8, 30720, Note_on_c, 9, 35, 114
8, 30720, Note_on_c, 9, 42, 114
8, 30768, Note_off_c, 9, 42, 64
8, 30768, Note_off_c, 9, 35, 64
8, 30816, Note_on_c, 9, 42, 82
8, 30864, Note_off_c, 9, 42, 64
8, 30912, Note_on_c, 9, 42, 98
8, 30960, Note_off_c, 9, 42, 64
8, 31008, Note_on_c, 9, 42, 82
8, 31056, Note_off_c, 9, 42, 64
8, 31104, Note_on_c, 9, 42, 114
8, 31104, Note_on_c, 9, 37, 114
8, 31152, Note_off_c, 9, 42, 64
8, 31200, Note_on_c, 9, 42, 82
8, 31248, Note_off_c, 9, 42, 64
8, 31296, Note_off_c, 9, 37, 64
8, 31296, Note_on_c, 9, 42, 98
8, 31344, Note_off_c, 9, 42, 64
8, 31392, Note_on_c, 9, 35, 114
8, 31392, Note_on_c, 9, 42, 82
8, 31440, Note_off_c, 9, 42, 64
8, 31440, Note_off_c, 9, 35, 64
8, 31488, Note_on_c, 9, 35, 114
8, 31488, Note_on_c, 9, 42, 114
8, 31536, Note_off_c, 9, 42, 64
8, 31536, Note_off_c, 9, 35, 64
8, 31584, Note_on_c, 9, 42, 82
8, 31632, Note_off_c, 9, 42, 64
8, 31680, Note_on_c, 9, 42, 98
8, 31728, Note_off_c, 9, 42, 64
8, 31776, Note_on_c, 9, 42, 82
8, 31824, Note_off_c, 9, 42, 64
8, 31872, Note_on_c, 9, 39, 114
8, 31872, Note_on_c, 9, 42, 114
8, 31872, Note_on_c, 9, 37, 114
8, 31920, Note_off_c, 9, 42, 64
8, 31968, Note_on_c, 9, 42, 82
8, 32016, Note_off_c, 9, 42, 64
8, 32064, Note_off_c, 9, 37, 64
8, 32064, Note_off_c, 9, 39, 64
8, 32064, Note_on_c, 9, 35, 114
8, 32064, Note_on_c, 9, 42, 98
8, 32112, Note_off_c, 9, 42, 64
8, 32112, Note_off_c, 9, 35, 64
8, 32160, Note_on_c, 9, 42, 82
8, 32208, Note_off_c, 9, 42, 64
8, 32256, Note_on_c, 9, 35, 114
8, 32256, Note_on_c, 9, 42, 114
8, 32304, Note_off_c, 9, 42, 64
8, 32304, Note_off_c, 9, 35, 64
8, 32352, Note_on_c, 9, 42, 82
8, 32400, Note_off_c, 9, 42, 64
8, 32448, Note_on_c, 9, 42, 98
8, 32496, Note_off_c, 9, 42, 64
8, 32544, Note_on_c, 9, 42, 82
8, 32592, Note_off_c, 9, 42, 64
8, 32640, Note_on_c, 9, 42, 114
8, 32640, Note_on_c, 9, 37, 114
8, 32688, Note_off_c, 9, 42, 64
8, 32736, Note_on_c, 9, 42, 82
8, 32784, Note_off_c, 9, 42, 64
8, 32832, Note_off_c, 9, 37, 64
8, 32832, Note_on_c, 9, 42, 98
8, 32880, Note_off_c, 9, 42, 64
8, 32928, Note_on_c, 9, 35, 114
8, 32928, Note_on_c, 9, 42, 82
8, 32976, Note_off_c, 9, 42, 64
8, 32976, Note_off_c, 9, 35, 64
8, 33024, Note_on_c, 9, 35, 114
8, 33024, Note_on_c, 9, 42, 114
8, 33072, Note_off_c, 9, 42, 64
8, 33072, Note_off_c, 9, 35, 64
8, 33120, Note_on_c, 9, 42, 82
8, 33168, Note_off_c, 9, 42, 64
8, 33216, Note_on_c, 9, 42, 98
8, 33264, Note_off_c, 9, 42, 64
8, 33312, Note_on_c, 9, 42, 82
8, 33360, Note_off_c, 9, 42, 64
8, 33408, Note_on_c, 9, 39, 114
8, 33408, Note_on_c, 9, 42, 114
8, 33408, Note_on_c, 9, 37, 114
8, 33456, Note_off_c, 9, 42, 64
8, 33504, Note_on_c, 9, 42, 82
8, 33552, Note_off_c, 9, 42, 64
8, 33600, Note_off_c, 9, 37, 64
8, 33600, Note_off_c, 9, 39, 64
8, 33600, Note_on_c, 9, 35, 114
8, 33600, Note_on_c, 9, 42, 98
8, 33648, Note_off_c, 9, 42, 64
8, 33648, Note_off_c, 9, 35, 64
8, 33696, Note_on_c, 9, 42, 82
8, 33744, Note_off_c, 9, 42, 64
8, 33792, Note_on_c, 9, 35, 114
8, 33792, Note_on_c, 9, 42, 114
8, 33840, Note_off_c, 9, 42, 64
8, 33840, Note_off_c, 9, 35, 64
8, 33888, Note_on_c, 9, 42, 82
8, 33936, Note_off_c, 9, 42, 64
8, 33984, Note_on_c, 9, 42, 98
8, 34032, Note_off_c, 9, 42, 64
8, 34080, Note_on_c, 9, 42, 82
8, 34128, Note_off_c, 9, 42, 64
8, 34176, Note_on_c, 9, 42, 114
8, 34176, Note_on_c, 9, 37, 114
8, 34224, Note_off_c, 9, 42, 64
8, 34272, Note_on_c, 9, 42, 82
8, 34320, Note_off_c, 9, 42, 64
8, 34368, Note_off_c, 9, 37, 64
8, 34368, Note_on_c, 9, 42, 98
8, 34416, Note_off_c, 9, 42, 64
8, 34464, Note_on_c, 9, 35, 114
8, 34464, Note_on_c, 9, 42, 82
8, 34512, Note_off_c, 9, 42, 64
8, 34512, Note_off_c, 9, 35, 64
8, 34560, Note_on_c, 9, 35, 114
8, 34560, Note_on_c, 9, 42, 114
8, 34608, Note_off_c, 9, 42, 64
8, 34608, Note_off_c, 9, 35, 64
8, 34656, Note_on_c, 9, 42, 82
8, 34704, Note_off_c, 9, 42, 64
8, 34752, Note_on_c, 9, 42, 98
8, 34800, Note_off_c, 9, 42, 64
8, 34848, Note_on_c, 9, 42, 82
8, 34896, Note_off_c, 9, 42, 64
8, 34944, Note_on_c, 9, 39, 114
8, 34944, Note_on_c, 9, 42, 114
8, 34944, Note_on_c, 9, 37, 114
8, 34992, Note_off_c, 9, 42, 64
8, 35040, Note_on_c, 9, 42, 82
8, 35088, Note_off_c, 9, 42, 64
8, 35136, Note_off_c, 9, 37, 64
8, 35136, Note_off_c, 9, 39, 64
8, 35136, Note_on_c, 9, 35, 114
8, 35136, Note_on_c, 9, 42, 98
8, 35184, Note_off_c, 9, 42, 64
8, 35184, Note_off_c, 9, 35, 64
8, 35232, Note_on_c, 9, 42, 82
8, 35280, Note_off_c, 9, 42, 64
8, 35328, Note_on_c, 9, 35, 114
8, 35328, Note_on_c, 9, 42, 114
8, 35376, Note_off_c, 9, 42, 64
8, 35376, Note_off_c, 9, 35, 64
8, 35424, Note_on_c, 9, 42, 82
8, 35472, Note_off_c, 9, 42, 64
8, 35520, Note_on_c, 9, 42, 98
8, 35568, Note_off_c, 9, 42, 64
8, 35616, Note_on_c, 9, 42, 82
8, 35664, Note_off_c, 9, 42, 64
8, 35712, Note_on_c, 9, 42, 114
8, 35712, Note_on_c, 9, 37, 114
8, 35760, Note_off_c, 9, 42, 64
8, 35808, Note_on_c, 9, 42, 82
8, 35856, Note_off_c, 9, 42, 64
8, 35904, Note_off_c, 9, 37, 64
8, 35904, Note_on_c, 9, 42, 98
8, 35952, Note_off_c, 9, 42, 64
8, 36000, Note_on_c, 9, 35, 114
8, 36000, Note_on_c, 9, 42, 82
8, 36048, Note_off_c, 9, 42, 64
8, 36048, Note_off_c, 9, 35, 64
8, 36096, Note_on_c, 9, 35, 114
8, 36096, Note_on_c, 9, 42, 114
8, 36144, Note_off_c, 9, 42, 64
8, 36144, Note_off_c, 9, 35, 64
8, 36192, Note_on_c, 9, 42, 82
8, 36240, Note_off_c, 9, 42, 64
8, 36288, Note_on_c, 9, 42, 98
8, 36336, Note_off_c, 9, 42, 64
8, 36384, Note_on_c, 9, 42, 82
8, 36432, Note_off_c, 9, 42, 64
8, 36480, Note_on_c, 9, 39, 114
8, 36480, Note_on_c, 9, 42, 114
8, 36480, Note_on_c, 9, 37, 114
8, 36528, Note_off_c, 9, 42, 64
8, 36576, Note_on_c, 9, 42, 82
8, 36624, Note_off_c, 9, 42, 64
8, 36672, Note_off_c, 9, 37, 64
8, 36672, Note_off_c, 9, 39, 64
8, 36672, Note_on_c, 9, 35, 114
8, 36672, Note_on_c, 9, 42, 98
8, 36720, Note_off_c, 9, 42, 64
8, 36720, Note_off_c, 9, 35, 64
8, 36768, Note_on_c, 9, 42, 82
8, 36816, Note_off_c, 9, 42, 64
8, 36864, Note_on_c, 9, 35, 114
8, 36864, Note_on_c, 9, 42, 114
8, 36912, Note_off_c, 9, 42, 64
8, 36912, Note_off_c, 9, 35, 64
8, 36960, Note_on_c, 9, 42, 82
8, 37008, Note_off_c, 9, 42, 64
8, 37056, Note_on_c, 9, 42, 98
8, 37104, Note_off_c, 9, 42, 64
8, 37152, Note_on_c, 9, 42, 82
8, 37200, Note_off_c, 9, 42, 64
8, 37248, Note_on_c, 9, 42, 114
8, 37248, Note_on_c, 9, 37, 114
8, 37296, Note_off_c, 9, 42, 64
8, 37344, Note_on_c, 9, 42, 82
8, 37392, Note_off_c, 9, 42, 64
8, 37440, Note_off_c, 9, 37, 64
8, 37440, Note_on_c, 9, 42, 98
8, 37488, Note_off_c, 9, 42, 64
8, 37536, Note_on_c, 9, 35, 114
8, 37536, Note_on_c, 9, 42, 82
8, 37584, Note_off_c, 9, 42, 64
8, 37584, Note_off_c, 9, 35, 64
8, 37632, Note_on_c, 9, 35, 114
8, 37632, Note_on_c, 9, 42, 114
8, 37680, Note_off_c, 9, 42, 64
8, 37680, Note_off_c, 9, 35, 64
8, 37728, Note_on_c, 9, 42, 82
8, 37776, Note_off_c, 9, 42, 64
8, 37824, Note_on_c, 9, 42, 98
8, 37872, Note_off_c, 9, 42, 64
8, 37920, Note_on_c, 9, 42, 82
8, 37968, Note_off_c, 9, 42, 64
8, 38016, Note_on_c, 9, 39, 114
8, 38016, Note_on_c, 9, 42, 114
8, 38016, Note_on_c, 9, 37, 114
8, 38064, Note_off_c, 9, 42, 64
8, 38112, Note_on_c, 9, 42, 82
8, 38160, Note_off_c, 9, 42, 64
8, 38208, Note_off_c, 9, 37, 64
8, 38208, Note_off_c, 9, 39, 64
8, 38208, Note_on_c, 9, 35, 114
8, 38208, Note_on_c, 9, 46, 114
8, 38256, Note_off_c, 9, 35, 64
8, 38304, Note_off_c, 9, 46, 64
8, 38400, Note_on_c, 9, 35, 114
8, 38400, Note_on_c, 9, 42, 114
8, 38448, Note_off_c, 9, 42, 64
8, 38448, Note_off_c, 9, 35, 64
8, 38496, Note_on_c, 9, 42, 82
8, 38544, Note_off_c, 9, 42, 64
8, 38592, Note_on_c, 9, 42, 98
8, 38640, Note_off_c, 9, 42, 64
8, 38688, Note_on_c, 9, 42, 82
8, 38736, Note_off_c, 9, 42, 64
8, 38784, Note_on_c, 9, 42, 114
8, 38784, Note_on_c, 9, 37, 114
8, 38832, Note_off_c, 9, 42, 64
8, 38880, Note_on_c, 9, 42, 82
8, 38928, Note_off_c, 9, 42, 64
8, 38976, Note_off_c, 9, 37, 64
8, 38976, Note_on_c, 9, 42, 98
8, 39024, Note_off_c, 9, 42, 64
8, 39072, Note_on_c, 9, 35, 114
8, 39072, Note_on_c, 9, 42, 82
8, 39120, Note_off_c, 9, 42, 64
8, 39120, Note_off_c, 9, 35, 64
8, 39168, Note_on_c, 9, 35, 114
8, 39168, Note_on_c, 9, 42, 114
8, 39216, Note_off_c, 9, 42, 64
8, 39216, Note_off_c, 9, 35, 64
8, 39264, Note_on_c, 9, 42, 82
8, 39312, Note_off_c, 9, 42, 64
8, 39360, Note_on_c, 9, 42, 98
8, 39408, Note_off_c, 9, 42, 64
8, 39456, Note_on_c, 9, 42, 82
8, 39504, Note_off_c, 9, 42, 64
8, 39552, Note_on_c, 9, 39, 114
8, 39552, Note_on_c, 9, 42, 114
8, 39552, Note_on_c, 9, 37, 114
8, 39600, Note_off_c, 9, 42, 64
8, 39648, Note_on_c, 9, 42, 82
8, 39696, Note_off_c, 9, 42, 64
8, 39744, Note_off_c, 9, 37, 64
8, 39744, Note_off_c, 9, 39, 64
8, 39744, Note_on_c, 9, 35, 114
8, 39744, Note_on_c, 9, 42, 98
8, 39792, Note_off_c, 9, 42, 64
8, 39792, Note_off_c, 9, 35, 64
8, 39840, Note_on_c, 9, 42, 82
8, 39888, Note_off_c, 9, 42, 64
8, 39936, Note_on_c, 9, 35, 114
8, 39936, Note_on_c, 9, 42, 114
8, 39984, Note_off_c, 9, 42, 64
8, 39984, Note_off_c, 9, 35, 64
8, 40032, Note_on_c, 9, 42, 82
8, 40080, Note_off_c, 9, 42, 64
8, 40128, Note_on_c, 9, 42, 98
8, 40176, Note_off_c, 9, 42, 64
8, 40224, Note_on_c, 9, 42, 82
8, 40272, Note_off_c, 9, 42, 64
8, 40320, Note_on_c, 9, 42, 114
8, 40320, Note_on_c, 9, 37, 114
8, 40368, Note_off_c, 9, 42, 64
8, 40416, Note_on_c, 9, 42, 82
8, 40464, Note_off_c, 9, 42, 64
8, 40512, Note_off_c, 9, 37, 64
8, 40512, Note_on_c, 9, 42, 98
8, 40560, Note_off_c, 9, 42, 64
8, 40608, Note_on_c, 9, 35, 114
8, 40608, Note_on_c, 9, 42, 82
8, 40656, Note_off_c, 9, 42, 64
8, 40656, Note_off_c, 9, 35, 64
8, 40704, Note_on_c, 9, 35, 114
8, 40704, Note_on_c, 9, 42, 114
8, 40752, Note_off_c, 9, 42, 64
8, 40752, Note_off_c, 9, 35, 64
8, 40800, Note_on_c, 9, 42, 82
8, 40848, Note_off_c, 9, 42, 64
8, 40896, Note_on_c, 9, 42, 98
8, 40944, Note_off_c, 9, 42, 64
8, 40992, Note_on_c, 9, 42, 82
8, 41040, Note_off_c, 9, 42, 64
8, 41088, Note_on_c, 9, 39, 114
8, 41088, Note_on_c, 9, 42, 114
8, 41088, Note_on_c, 9, 37, 114
8, 41136, Note_off_c, 9, 42, 64
8, 41184, Note_on_c, 9, 42, 82
8, 41232, Note_off_c, 9, 42, 64
8, 41280, Note_off_c, 9, 37, 64
8, 41280, Note_off_c, 9, 39, 64
8, 41280, Note_on_c, 9, 35, 114
8, 41280, Note_on_c, 9, 42, 98
8, 41328, Note_off_c, 9, 42, 64
8, 41328, Note_off_c, 9, 35, 64
8, 41376, Note_on_c, 9, 42, 82
8, 41424, Note_off_c, 9, 42, 64
8, 41472, Note_on_c, 9, 35, 114
8, 41472, Note_on_c, 9, 42, 114
8, 41520, Note_off_c, 9, 42, 64
8, 41520, Note_off_c, 9, 35, 64
8, 41568, Note_on_c, 9, 42, 82
8, 41616, Note_off_c, 9, 42, 64
8, 41664, Note_on_c, 9, 42, 98
8, 41712, Note_off_c, 9, 42, 64
8, 41760, Note_on_c, 9, 42, 82
8, 41808, Note_off_c, 9, 42, 64
8, 41856, Note_on_c, 9, 42, 114
8, 41856, Note_on_c, 9, 37, 114
8, 41904, Note_off_c, 9, 42, 64
8, 41952, Note_on_c, 9, 42, 82
8, 42000, Note_off_c, 9, 42, 64
8, 42048, Note_off_c, 9, 37, 64
8, 42048, Note_on_c, 9, 42, 98
8, 42096, Note_off_c, 9, 42, 64
8, 42144, Note_on_c, 9, 35, 114
8, 42144, Note_on_c, 9, 42, 82
8, 42192, Note_off_c, 9, 42, 64
8, 42192, Note_off_c, 9, 35, 64
8, 42240, Note_on_c, 9, 35, 114
8, 42240, Note_on_c, 9, 42, 114
8, 42288, Note_off_c, 9, 42, 64
8, 42288, Note_off_c, 9, 35, 64
8, 42336, Note_on_c, 9, 42, 82
8, 42384, Note_off_c, 9, 42, 64
8, 42432, Note_on_c, 9, 42, 98
8, 42480, Note_off_c, 9, 42, 64
8, 42528, Note_on_c, 9, 42, 82
8, 42576, Note_off_c, 9, 42, 64
8, 42624, Note_on_c, 9, 39, 114
8, 42624, Note_on_c, 9, 42, 114
8, 42624, Note_on_c, 9, 37, 114
8, 42672, Note_off_c, 9, 42, 64
8, 42720, Note_on_c, 9, 42, 82
8, 42768, Note_off_c, 9, 42, 64
8, 42816, Note_off_c, 9, 37, 64
8, 42816, Note_off_c, 9, 39, 64
8, 42816, Note_on_c, 9, 35, 114
8, 42816, Note_on_c, 9, 42, 98
8, 42864, Note_off_c, 9, 42, 64
8, 42864, Note_off_c, 9, 35, 64
8, 42912, Note_on_c, 9, 42, 82
8, 42960, Note_off_c, 9, 42, 64
8, 43008, Note_on_c, 9, 35, 114
8, 43008, Note_on_c, 9, 42, 114
8, 43056, Note_off_c, 9, 42, 64
8, 43056, Note_off_c, 9, 35, 64
8, 43104, Note_on_c, 9, 42, 82
8, 43152, Note_off_c, 9, 42, 64
8, 43200, Note_on_c, 9, 42, 98
8, 43248, Note_off_c, 9, 42, 64
8, 43296, Note_on_c, 9, 42, 82
8, 43344, Note_off_c, 9, 42, 64
8, 43392, Note_on_c, 9, 42, 114
8, 43392, Note_on_c, 9, 37, 114
8, 43440, Note_off_c, 9, 42, 64
8, 43488, Note_on_c, 9, 42, 82
8, 43536, Note_off_c, 9, 42, 64
8, 43584, Note_off_c, 9, 37, 64
8, 43584, Note_on_c, 9, 42, 98
8, 43632, Note_off_c, 9, 42, 64
8, 43680, Note_on_c, 9, 35, 114
8, 43680, Note_on_c, 9, 42, 82
8, 43728, Note_off_c, 9, 42, 64
8, 43728, Note_off_c, 9, 35, 64
8, 43776, Note_on_c, 9, 35, 114
8, 43776, Note_on_c, 9, 42, 114
8, 43824, Note_off_c, 9, 42, 64
8, 43824, Note_off_c, 9, 35, 64
8, 43872, Note_on_c, 9, 42, 82
8, 43920, Note_off_c, 9, 42, 64
8, 43968, Note_on_c, 9, 42, 98
8, 44016, Note_off_c, 9, 42, 64
8, 44064, Note_on_c, 9, 42, 82
8, 44112, Note_off_c, 9, 42, 64
8, 44160, Note_on_c, 9, 39, 114
8, 44160, Note_on_c, 9, 42, 114
8, 44160, Note_on_c, 9, 37, 114
8, 44208, Note_off_c, 9, 42, 64
8, 44256, Note_on_c, 9, 42, 82
8, 44304, Note_off_c, 9, 42, 64
8, 44352, Note_off_c, 9, 37, 64
8, 44352, Note_off_c, 9, 39, 64
8, 44352, Note_on_c, 9, 35, 114
8, 44352, Note_on_c, 9, 46, 114
8, 44400, Note_off_c, 9, 35, 64
8, 44448, Note_off_c, 9, 46, 64
8, 44544, Note_on_c, 9, 35, 114
8, 44544, Note_on_c, 9, 42, 114
8, 44592, Note_off_c, 9, 42, 64
8, 44592, Note_off_c, 9, 35, 64
8, 44640, Note_on_c, 9, 42, 82
8, 44688, Note_off_c, 9, 42, 64
8, 44736, Note_on_c, 9, 42, 98
8, 44784, Note_off_c, 9, 42, 64
8, 44832, Note_on_c, 9, 42, 82
8, 44880, Note_off_c, 9, 42, 64
8, 44928, Note_on_c, 9, 42, 114
8, 44928, Note_on_c, 9, 37, 114
8, 44976, Note_off_c, 9, 42, 64
8, 45024, Note_on_c, 9, 42, 82
8, 45072, Note_off_c, 9, 42, 64
8, 45120, Note_off_c, 9, 37, 64
8, 45120, Note_on_c, 9, 42, 98
8, 45168, Note_off_c, 9, 42, 64
8, 45216, Note_on_c, 9, 35, 114
8, 45216, Note_on_c, 9, 42, 82
8, 45264, Note_off_c, 9, 42, 64
8, 45264, Note_off_c, 9, 35, 64
8, 45312, Note_on_c, 9, 35, 114
8, 45312, Note_on_c, 9, 42, 114
8, 45360, Note_off_c, 9, 42, 64
8, 45360, Note_off_c, 9, 35, 64
8, 45408, Note_on_c, 9, 42, 82
8, 45456, Note_off_c, 9, 42, 64
8, 45504, Note_on_c, 9, 42, 98
8, 45552, Note_off_c, 9, 42, 64
8, 45600, Note_on_c, 9, 42, 82
8, 45648, Note_off_c, 9, 42, 64
8, 45696, Note_on_c, 9, 39, 114
8, 45696, Note_on_c, 9, 42, 114
8, 45696, Note_on_c, 9, 37, 114
8, 45744, Note_off_c, 9, 42, 64
8, 45792, Note_on_c, 9, 42, 82
8, 45840, Note_off_c, 9, 42, 64
8, 45888, Note_off_c, 9, 37, 64
8, 45888, Note_off_c, 9, 39, 64
8, 45888, Note_on_c, 9, 35, 114
8, 45888, Note_on_c, 9, 42, 98
8, 45936, Note_off_c, 9, 42, 64
8, 45936, Note_off_c, 9, 35, 64
8, 45984, Note_on_c, 9, 42, 82
8, 46032, Note_off_c, 9, 42, 64
8, 46080, Note_on_c, 9, 35, 114
8, 46080, Note_on_c, 9, 42, 114
8, 46128, Note_off_c, 9, 42, 64
8, 46128, Note_off_c, 9, 35, 64
8, 46176, Note_on_c, 9, 42, 82
8, 46224, Note_off_c, 9, 42, 64
8, 46272, Note_on_c, 9, 42, 98
8, 46320, Note_off_c, 9, 42, 64
8, 46368, Note_on_c, 9, 42, 82
8, 46416, Note_off_c, 9, 42, 64
8, 46464, Note_on_c, 9, 42, 114
8, 46464, Note_on_c, 9, 37, 114
8, 46512, Note_off_c, 9, 42, 64
8, 46560, Note_on_c, 9, 42, 82
8, 46608, Note_off_c, 9, 42, 64
8, 46656, Note_off_c, 9, 37, 64
8, 46656, Note_on_c, 9, 42, 98
8, 46704, Note_off_c, 9, 42, 64
8, 46752, Note_on_c, 9, 35, 114
8, 46752, Note_on_c, 9, 42, 82
8, 46800, Note_off_c, 9, 42, 64
8, 46800, Note_off_c, 9, 35, 64
8, 46848, Note_on_c, 9, 35, 114
8, 46848, Note_on_c, 9, 42, 114
8, 46896, Note_off_c, 9, 42, 64
8, 46896, Note_off_c, 9, 35, 64
8, 46944, Note_on_c, 9, 42, 82
8, 46992, Note_off_c, 9, 42, 64
8, 47040, Note_on_c, 9, 42, 98
8, 47088, Note_off_c, 9, 42, 64
8, 47136, Note_on_c, 9, 42, 82
8, 47184, Note_off_c, 9, 42, 64
8, 47232, Note_on_c, 9, 39, 114
8, 47232, Note_on_c, 9, 42, 114
8, 47232, Note_on_c, 9, 37, 114
8, 47280, Note_off_c, 9, 42, 64
8, 47328, Note_on_c, 9, 42, 82
8, 47376, Note_off_c, 9, 42, 64
8, 47424, Note_off_c, 9, 37, 64
8, 47424, Note_off_c, 9, 39, 64
8, 47424, Note_on_c, 9, 35, 114
8, 47424, Note_on_c, 9, 42, 98
8, 47472, Note_off_c, 9, 42, 64
8, 47472, Note_off_c, 9, 35, 64
8, 47520, Note_on_c, 9, 42, 82
8, 47568, Note_off_c, 9, 42, 64
8, 47616, Note_on_c, 9, 35, 114
8, 47616, Note_on_c, 9, 42, 114
8, 47664, Note_off_c, 9, 42, 64
8, 47664, Note_off_c, 9, 35, 64
8, 47712, Note_on_c, 9, 42, 82
8, 47760, Note_off_c, 9, 42, 64
8, 47808, Note_on_c, 9, 42, 98
8, 47856, Note_off_c, 9, 42, 64
8, 47904, Note_on_c, 9, 42, 82
8, 47952, Note_off_c, 9, 42, 64
8, 48000, Note_on_c, 9, 42, 114
8, 48000, Note_on_c, 9, 37, 114
8, 48048, Note_off_c, 9, 42, 64
8, 48096, Note_on_c, 9, 42, 82
8, 48144, Note_off_c, 9, 42, 64
8, 48192, Note_off_c, 9, 37, 64
8, 48192, Note_on_c, 9, 42, 98
8, 48240, Note_off_c, 9, 42, 64
8, 48288, Note_on_c, 9, 35, 114
8, 48288, Note_on_c, 9, 42, 82
8, 48336, Note_off_c, 9, 42, 64
8, 48336, Note_off_c, 9, 35, 64
8, 48384, Note_on_c, 9, 35, 114
8, 48384, Note_on_c, 9, 42, 114
8, 48432, Note_off_c, 9, 42, 64
8, 48432, Note_off_c, 9, 35, 64
8, 48480, Note_on_c, 9, 42, 82
8, 48528, Note_off_c, 9, 42, 64
8, 48576, Note_on_c, 9, 42, 98
8, 48624, Note_off_c, 9, 42, 64
8, 48672, Note_on_c, 9, 42, 82
8, 48720, Note_off_c, 9, 42, 64
8, 48768, Note_on_c, 9, 39, 114
8, 48768, Note_on_c, 9, 42, 114
8, 48768, Note_on_c, 9, 37, 114
8, 48816, Note_off_c, 9, 42, 64
8, 48864, Note_on_c, 9, 42, 82
8, 48912, Note_off_c, 9, 42, 64
8, 48960, Note_off_c, 9, 37, 64
8, 48960, Note_off_c, 9, 39, 64
8, 48960, Note_on_c, 9, 35, 114
8, 48960, Note_on_c, 9, 42, 98
8, 49008, Note_off_c, 9, 42, 64
8, 49008, Note_off_c, 9, 35, 64
8, 49056, Note_on_c, 9, 42, 82
8, 49104, Note_off_c, 9, 42, 64
8, 49152, Note_on_c, 9, 35, 114
8, 49152, Note_on_c, 9, 42, 114
8, 49200, Note_off_c, 9, 42, 64
8, 49200, Note_off_c, 9, 35, 64
8, 49248, Note_on_c, 9, 42, 82
8, 49296, Note_off_c, 9, 42, 64
8, 49344, Note_on_c, 9, 42, 98
8, 49392, Note_off_c, 9, 42, 64
8, 49440, Note_on_c, 9, 42, 82
8, 49488, Note_off_c, 9, 42, 64
8, 49536, Note_on_c, 9, 42, 114
8, 49536, Note_on_c, 9, 37, 114
8, 49584, Note_off_c, 9, 42, 64
8, 49632, Note_on_c, 9, 42, 82
8, 49680, Note_off_c, 9, 42, 64
8, 49728, Note_off_c, 9, 37, 64
8, 49728, Note_on_c, 9, 42, 98
8, 49776, Note_off_c, 9, 42, 64
8, 49824, Note_on_c, 9, 35, 114
8, 49824, Note_on_c, 9, 42, 82
8, 49872, Note_off_c, 9, 42, 64
8, 49872, Note_off_c, 9, 35, 64
8, 49920, Note_on_c, 9, 35, 114
8, 49920, Note_on_c, 9, 42, 114
8, 49968, Note_off_c, 9, 42, 64
8, 49968, Note_off_c, 9, 35, 64
8, 50016, Note_on_c, 9, 42, 82
8, 50064, Note_off_c, 9, 42, 64
8, 50112, Note_on_c, 9, 42, 98
8, 50160, Note_off_c, 9, 42, 64
8, 50208, Note_on_c, 9, 42, 82
8, 50256, Note_off_c, 9, 42, 64
8, 50304, Note_on_c, 9, 39, 114
8, 50304, Note_on_c, 9, 42, 114
8, 50304, Note_on_c, 9, 37, 114
8, 50352, Note_off_c, 9, 42, 64
8, 50400, Note_on_c, 9, 42, 82
8, 50448, Note_off_c, 9, 42, 64
8, 50496, Note_off_c, 9, 37, 64
8, 50496, Note_off_c, 9, 39, 64
8, 50496, Note_on_c, 9, 35, 114
8, 50496, Note_on_c, 9, 42, 98
8, 50544, Note_off_c, 9, 42, 64
8, 50544, Note_off_c, 9, 35, 64
8, 50592, Note_on_c, 9, 42, 82
8, 50640, Note_off_c, 9, 42, 64
8, 50688, Note_on_c, 9, 35, 114
8, 50688, Note_on_c, 9, 42, 114
8, 50736, Note_off_c, 9, 42, 64
8, 50736, Note_off_c, 9, 35, 64
8, 50784, Note_on_c, 9, 42, 82
8, 50832, Note_off_c, 9, 42, 64
8, 50880, Note_on_c, 9, 42, 98
8, 50928, Note_off_c, 9, 42, 64
8, 50976, Note_on_c, 9, 42, 82
8, 51024, Note_off_c, 9, 42, 64
8, 51072, Note_on_c, 9, 42, 114
8, 51072, Note_on_c, 9, 37, 114
8, 51120, Note_off_c, 9, 42, 64
8, 51168, Note_on_c, 9, 42, 82
8, 51216, Note_off_c, 9, 42, 64
8, 51264, Note_off_c, 9, 37, 64
8, 51264, Note_on_c, 9, 42, 98
8, 51312, Note_off_c, 9, 42, 64
8, 51360, Note_on_c, 9, 35, 114
8, 51360, Note_on_c, 9, 42, 82
8, 51408, Note_off_c, 9, 42, 64
8, 51408, Note_off_c, 9, 35, 64
8, 51456, Note_on_c, 9, 35, 114
8, 51456, Note_on_c, 9, 42, 114
8, 51504, Note_off_c, 9, 42, 64
8, 51504, Note_off_c, 9, 35, 64
8, 51552, Note_on_c, 9, 42, 82
8, 51600, Note_off_c, 9, 42, 64
8, 51648, Note_on_c, 9, 42, 98
8, 51696, Note_off_c, 9, 42, 64
8, 51744, Note_on_c, 9, 42, 82
8, 51792, Note_off_c, 9, 42, 64
8, 51840, Note_on_c, 9, 39, 114
8, 51840, Note_on_c, 9, 42, 114
8, 51840, Note_on_c, 9, 37, 114
8, 51888, Note_off_c, 9, 42, 64
8, 51936, Note_on_c, 9, 42, 82
8, 51984, Note_off_c, 9, 42, 64
8, 52032, Note_off_c, 9, 37, 64
8, 52032, Note_off_c, 9, 39, 64
8, 52032, Note_on_c, 9, 35, 114
8, 52032, Note_on_c, 9, 42, 98
8, 52080, Note_off_c, 9, 42, 64
8, 52080, Note_off_c, 9, 35, 64
8, 52128, Note_on_c, 9, 42, 82
8, 52176, Note_off_c, 9, 42, 64
8, 52224, Note_on_c, 9, 35, 114
8, 52224, Note_on_c, 9, 42, 114
8, 52272, Note_off_c, 9, 42, 64
8, 52272, Note_off_c, 9, 35, 64
8, 52320, Note_on_c, 9, 42, 82
8, 52368, Note_off_c, 9, 42, 64
8, 52416, Note_on_c, 9, 42, 98
8, 52464, Note_off_c, 9, 42, 64
8, 52512, Note_on_c, 9, 42, 82
8, 52560, Note_off_c, 9, 42, 64
8, 52608, Note_on_c, 9, 42, 114
8, 52608, Note_on_c, 9, 37, 114
8, 52656, Note_off_c, 9, 42, 64
8, 52704, Note_on_c, 9, 42, 82
8, 52752, Note_off_c, 9, 42, 64
8, 52800, Note_off_c, 9, 37, 64
8, 52800, Note_on_c, 9, 42, 98
8, 52848, Note_off_c, 9, 42, 64
8, 52896, Note_on_c, 9, 35, 114
8, 52896, Note_on_c, 9, 42, 82
8, 52944, Note_off_c, 9, 42, 64
8, 52944, Note_off_c, 9, 35, 64
8, 52992, Note_on_c, 9, 35, 114
8, 52992, Note_on_c, 9, 42, 114
8, 53040, Note_off_c, 9, 42, 64
8, 53040, Note_off_c, 9, 35, 64
8, 53088, Note_on_c, 9, 42, 82
8, 53136, Note_off_c, 9, 42, 64
8, 53184, Note_on_c, 9, 42, 98
8, 53232, Note_off_c, 9, 42, 64
8, 53280, Note_on_c, 9, 42, 82
8, 53328, Note_off_c, 9, 42, 64
8, 53376, Note_on_c, 9, 39, 114
8, 53376, Note_on_c, 9, 42, 114
8, 53376, Note_on_c, 9, 37, 114
8, 53424, Note_off_c, 9, 42, 64
8, 53472, Note_on_c, 9, 42, 82
8, 53520, Note_off_c, 9, 42, 64
8, 53568, Note_off_c, 9, 37, 64
8, 53568, Note_off_c, 9, 39, 64
8, 53568, Note_on_c, 9, 35, 114
8, 53568, Note_on_c, 9, 42, 98
8, 53616, Note_off_c, 9, 42, 64
8, 53616, Note_off_c, 9, 35, 64
8, 53664, Note_on_c, 9, 42, 82
8, 53712, Note_off_c, 9, 42, 64
8, 53760, Note_on_c, 9, 35, 114
8, 53760, Note_on_c, 9, 42, 114
8, 53808, Note_off_c, 9, 42, 64
8, 53808, Note_off_c, 9, 35, 64
8, 53856, Note_on_c, 9, 42, 82
8, 53904, Note_off_c, 9, 42, 64
8, 53952, Note_on_c, 9, 42, 98
8, 54000, Note_off_c, 9, 42, 64
8, 54048, Note_on_c, 9, 42, 82
8, 54096, Note_off_c, 9, 42, 64
8, 54144, Note_on_c, 9, 42, 114
8, 54144, Note_on_c, 9, 37, 114
8, 54192, Note_off_c, 9, 42, 64
8, 54240, Note_on_c, 9, 42, 82
8, 54288, Note_off_c, 9, 42, 64
8, 54336, Note_off_c, 9, 37, 64
8, 54336, Note_on_c, 9, 42, 98
8, 54384, Note_off_c, 9, 42, 64
8, 54432, Note_on_c, 9, 35, 114
8, 54432, Note_on_c, 9, 42, 82
8, 54480, Note_off_c, 9, 42, 64
8, 54480, Note_off_c, 9, 35, 64
8, 54528, Note_on_c, 9, 35, 114
8, 54528, Note_on_c, 9, 42, 114
8, 54576, Note_off_c, 9, 42, 64
8, 54576, Note_off_c, 9, 35, 64
8, 54624, Note_on_c, 9, 42, 82
8, 54672, Note_off_c, 9, 42, 64
8, 54720, Note_on_c, 9, 42, 98
8, 54768, Note_off_c, 9, 42, 64
8, 54816, Note_on_c, 9, 42, 82
8, 54864, Note_off_c, 9, 42, 64
8, 54912, Note_on_c, 9, 39, 114
8, 54912, Note_on_c, 9, 42, 114
8, 54912, Note_on_c, 9, 37, 114
8, 54960, Note_off_c, 9, 42, 64
8, 55008, Note_on_c, 9, 42, 82
8, 55056, Note_off_c, 9, 42, 64
8, 55104, Note_off_c, 9, 37, 64
8, 55104, Note_off_c, 9, 39, 64
8, 55104, Note_on_c, 9, 35, 114
8, 55104, Note_on_c, 9, 42, 98
8, 55152, Note_off_c, 9, 42, 64
8, 55152, Note_off_c, 9, 35, 64
8, 55200, Note_on_c, 9, 42, 82
8, 55248, Note_off_c, 9, 42, 64
8, 55296, Note_on_c, 9, 35, 114
8, 55296, Note_on_c, 9, 42, 114
8, 55344, Note_off_c, 9, 42, 64
8, 55344, Note_off_c, 9, 35, 64
8, 55392, Note_on_c, 9, 42, 82
8, 55440, Note_off_c, 9, 42, 64
8, 55488, Note_on_c, 9, 42, 98
8, 55536, Note_off_c, 9, 42, 64
8, 55584, Note_on_c, 9, 42, 82
8, 55632, Note_off_c, 9, 42, 64
8, 55680, Note_on_c, 9, 42, 114
8, 55680, Note_on_c, 9, 37, 114
8, 55728, Note_off_c, 9, 42, 64
8, 55776, Note_on_c, 9, 42, 82
8, 55824, Note_off_c, 9, 42, 64
8, 55872, Note_off_c, 9, 37, 64
8, 55872, Note_on_c, 9, 42, 98
8, 55920, Note_off_c, 9, 42, 64
8, 55968, Note_on_c, 9, 35, 114
8, 55968, Note_on_c, 9, 42, 82
8, 56016, Note_off_c, 9, 42, 64
8, 56016, Note_off_c, 9, 35, 64
8, 56064, Note_on_c, 9, 35, 114
8, 56064, Note_on_c, 9, 42, 114
8, 56112, Note_off_c, 9, 42, 64
8, 56112, Note_off_c, 9, 35, 64
8, 56160, Note_on_c, 9, 42, 82
8, 56208, Note_off_c, 9, 42, 64
8, 56256, Note_on_c, 9, 42, 98
8, 56304, Note_off_c, 9, 42, 64
8, 56352, Note_on_c, 9, 42, 82
8, 56400, Note_off_c, 9, 42, 64
8, 56448, Note_on_c, 9, 39, 114
8, 56448, Note_on_c, 9, 42, 114
8, 56448, Note_on_c, 9, 37, 114
8, 56496, Note_off_c, 9, 42, 64
8, 56544, Note_on_c, 9, 42, 82
8, 56592, Note_off_c, 9, 42, 64
8, 56640, Note_off_c, 9, 37, 64
8, 56640, Note_off_c, 9, 39, 64
8, 56640, Note_on_c, 9, 35, 114
8, 56640, Note_on_c, 9, 46, 114
8, 56688, Note_off_c, 9, 35, 64
8, 56736, Note_off_c, 9, 46, 64
8, 56832, Note_on_c, 9, 35, 114
8, 56832, Note_on_c, 9, 42, 114
8, 56880, Note_off_c, 9, 42, 64
8, 56880, Note_off_c, 9, 35, 64
8, 56928, Note_on_c, 9, 42, 82
8, 56976, Note_off_c, 9, 42, 64
8, 57024, Note_on_c, 9, 42, 98
8, 57072, Note_off_c, 9, 42, 64
8, 57120, Note_on_c, 9, 42, 82
8, 57168, Note_off_c, 9, 42, 64
8, 57216, Note_on_c, 9, 42, 114
8, 57216, Note_on_c, 9, 37, 114
8, 57264, Note_off_c, 9, 42, 64
8, 57312, Note_on_c, 9, 42, 82
8, 57360, Note_off_c, 9, 42, 64
8, 57408, Note_off_c, 9, 37, 64
8, 57408, Note_on_c, 9, 42, 98
8, 57456, Note_off_c, 9, 42, 64
8, 57504, Note_on_c, 9, 35, 114
8, 57504, Note_on_c, 9, 42, 82
8, 57552, Note_off_c, 9, 42, 64
8, 57552, Note_off_c, 9, 35, 64
8, 57600, Note_on_c, 9, 35, 114
8, 57600, Note_on_c, 9, 42, 114
8, 57648, Note_off_c, 9, 42, 64
8, 57648, Note_off_c, 9, 35, 64
8, 57696, Note_on_c, 9, 42, 82
8, 57744, Note_off_c, 9, 42, 64
8, 57792, Note_on_c, 9, 42, 98
8, 57840, Note_off_c, 9, 42, 64
8, 57888, Note_on_c, 9, 42, 82
8, 57936, Note_off_c, 9, 42, 64
8, 57984, Note_on_c, 9, 39, 114
8, 57984, Note_on_c, 9, 42, 114
8, 57984, Note_on_c, 9, 37, 114
8, 58032, Note_off_c, 9, 42, 64
8, 58080, Note_on_c, 9, 42, 82
8, 58128, Note_off_c, 9, 42, 64
8, 58176, Note_off_c, 9, 37, 64
8, 58176, Note_off_c, 9, 39, 64
8, 58176, Note_on_c, 9, 35, 114
8, 58176, Note_on_c, 9, 42, 98
8, 58224, Note_off_c, 9, 42, 64
8, 58224, Note_off_c, 9, 35, 64
8, 58272, Note_on_c, 9, 42, 82
8, 58320, Note_off_c, 9, 42, 64
8, 58368, Note_on_c, 9, 35, 114
8, 58368, Note_on_c, 9, 42, 114
8, 58416, Note_off_c, 9, 42, 64
8, 58416, Note_off_c, 9, 35, 64
8, 58464, Note_on_c, 9, 42, 82
8, 58512, Note_off_c, 9, 42, 64
8, 58560, Note_on_c, 9, 42, 98
8, 58608, Note_off_c, 9, 42, 64
8, 58656, Note_on_c, 9, 42, 82
8, 58704, Note_off_c, 9, 42, 64
8, 58752, Note_on_c, 9, 42, 114
8, 58752, Note_on_c, 9, 37, 114
8, 58800, Note_off_c, 9, 42, 64
8, 58848, Note_on_c, 9, 42, 82
8, 58896, Note_off_c, 9, 42, 64
8, 58944, Note_off_c, 9, 37, 64
8, 58944, Note_on_c, 9, 42, 98
8, 58992, Note_off_c, 9, 42, 64
8, 59040, Note_on_c, 9, 35, 114
8, 59040, Note_on_c, 9, 42, 82
8, 59088, Note_off_c, 9, 42, 64
8, 59088, Note_off_c, 9, 35, 64
8, 59136, Note_on_c, 9, 35, 114
8, 59136, Note_on_c, 9, 42, 114
8, 59184, Note_off_c, 9, 42, 64
8, 59184, Note_off_c, 9, 35, 64
8, 59232, Note_on_c, 9, 42, 82
8, 59280, Note_off_c, 9, 42, 64
8, 59328, Note_on_c, 9, 42, 98
8, 59376, Note_off_c, 9, 42, 64
8, 59424, Note_on_c, 9, 42, 82
8, 59472, Note_off_c, 9, 42, 64
8, 59520, Note_on_c, 9, 39, 114
8, 59520, Note_on_c, 9, 42, 114
8, 59520, Note_on_c, 9, 37, 114
8, 59568, Note_off_c, 9, 42, 64
8, 59616, Note_on_c, 9, 42, 82
8, 59664, Note_off_c, 9, 42, 64
8, 59712, Note_off_c, 9, 37, 64
8, 59712, Note_off_c, 9, 39, 64
8, 59712, Note_on_c, 9, 35, 114
8, 59712, Note_on_c, 9, 42, 98
8, 59760, Note_off_c, 9, 42, 64
8, 59760, Note_off_c, 9, 35, 64
8, 59808, Note_on_c, 9, 42, 82
8, 59856, Note_off_c, 9, 42, 64
8, 59904, Note_on_c, 9, 35, 114
8, 59904, Note_on_c, 9, 42, 114
8, 59952, Note_off_c, 9, 42, 64
8, 59952, Note_off_c, 9, 35, 64
8, 60000, Note_on_c, 9, 42, 82
8, 60048, Note_off_c, 9, 42, 64
8, 60096, Note_on_c, 9, 42, 98
8, 60144, Note_off_c, 9, 42, 64
8, 60192, Note_on_c, 9, 42, 82
8, 60240, Note_off_c, 9, 42, 64
8, 60288, Note_on_c, 9, 42, 114
8, 60288, Note_on_c, 9, 37, 114
8, 60336, Note_off_c, 9, 42, 64
8, 60384, Note_on_c, 9, 42, 82
8, 60432, Note_off_c, 9, 42, 64
8, 60480, Note_off_c, 9, 37, 64
8, 60480, Note_on_c, 9, 42, 98
8, 60528, Note_off_c, 9, 42, 64
8, 60576, Note_on_c, 9, 35, 114
8, 60576, Note_on_c, 9, 42, 82
8, 60624, Note_off_c, 9, 42, 64
8, 60624, Note_off_c, 9, 35, 64
8, 60672, Note_on_c, 9, 35, 114
8, 60672, Note_on_c, 9, 42, 114
8, 60720, Note_off_c, 9, 42, 64
8, 60720, Note_off_c, 9, 35, 64
8, 60768, Note_on_c, 9, 42, 82
8, 60816, Note_off_c, 9, 42, 64
8, 60864, Note_on_c, 9, 42, 98
8, 60912, Note_off_c, 9, 42, 64
8, 60960, Note_on_c, 9, 42, 82
8, 61008, Note_off_c, 9, 42, 64
8, 61056, Note_on_c, 9, 39, 114
8, 61056, Note_on_c, 9, 42, 114
8, 61056, Note_on_c, 9, 37, 114
8, 61104, Note_off_c, 9, 42, 64
8, 61152, Note_on_c, 9, 42, 82
8, 61200, Note_off_c, 9, 42, 64
8, 61248, Note_off_c, 9, 37, 64
8, 61248, Note_off_c, 9, 39, 64
8, 61248, Note_on_c, 9, 35, 114
8, 61248, Note_on_c, 9, 42, 98
8, 61296, Note_off_c, 9, 42, 64
8, 61296, Note_off_c, 9, 35, 64
8, 61344, Note_on_c, 9, 42, 82
8, 61392, Note_off_c, 9, 42, 64
8, 61440, Note_on_c, 9, 35, 114
8, 61440, Note_on_c, 9, 42, 114
8, 61488, Note_off_c, 9, 42, 64
8, 61488, Note_off_c, 9, 35, 64
8, 61536, Note_on_c, 9, 42, 82
8, 61584, Note_off_c, 9, 42, 64
8, 61632, Note_on_c, 9, 42, 98
8, 61680, Note_off_c, 9, 42, 64
8, 61728, Note_on_c, 9, 42, 82
8, 61776, Note_off_c, 9, 42, 64
8, 61824, Note_on_c, 9, 42, 114
8, 61824, Note_on_c, 9, 37, 114
8, 61872, Note_off_c, 9, 42, 64
8, 61920, Note_on_c, 9, 42, 82
8, 61968, Note_off_c, 9, 42, 64
8, 62016, Note_off_c, 9, 37, 64
8, 62016, Note_on_c, 9, 42, 98
8, 62064, Note_off_c, 9, 42, 64
8, 62112, Note_on_c, 9, 35, 114
8, 62112, Note_on_c, 9, 42, 82
8, 62160, Note_off_c, 9, 42, 64
8, 62160, Note_off_c, 9, 35, 64
8, 62208, Note_on_c, 9, 35, 114
8, 62208, Note_on_c, 9, 42, 114
8, 62256, Note_off_c, 9, 42, 64
8, 62256, Note_off_c, 9, 35, 64
8, 62304, Note_on_c, 9, 42, 82
8, 62352, Note_off_c, 9, 42, 64
8, 62400, Note_on_c, 9, 42, 98
8, 62448, Note_off_c, 9, 42, 64
8, 62496, Note_on_c, 9, 42, 82
8, 62544, Note_off_c, 9, 42, 64
8, 62592, Note_on_c, 9, 39, 114
8, 62592, Note_on_c, 9, 42, 114
8, 62592, Note_on_c, 9, 37, 114
8, 62640, Note_off_c, 9, 42, 64
8, 62688, Note_on_c, 9, 42, 82
8, 62736, Note_off_c, 9, 42, 64
8, 62784, Note_off_c, 9, 37, 64
8, 62784, Note_off_c, 9, 39, 64
8, 62784, Note_on_c, 9, 35, 114
8, 62784, Note_on_c, 9, 42, 98
8, 62832, Note_off_c, 9, 42, 64
8, 62832, Note_off_c, 9, 35, 64
8, 62880, Note_on_c, 9, 42, 82
8, 62928, Note_off_c, 9, 42, 64
8, 62976, Note_on_c, 9, 35, 114
8, 62976, Note_on_c, 9, 42, 114
8, 63024, Note_off_c, 9, 42, 64
8, 63024, Note_off_c, 9, 35, 64
8, 63072, Note_on_c, 9, 42, 82
8, 63120, Note_off_c, 9, 42, 64
8, 63168, Note_on_c, 9, 42, 98
8, 63216, Note_off_c, 9, 42, 64
8, 63264, Note_on_c, 9, 42, 82
8, 63312, Note_off_c, 9, 42, 64
8, 63360, Note_on_c, 9, 42, 114
8, 63360, Note_on_c, 9, 37, 114
8, 63408, Note_off_c, 9, 42, 64
8, 63456, Note_on_c, 9, 42, 82
8, 63504, Note_off_c, 9, 42, 64
8, 63552, Note_off_c, 9, 37, 64
8, 63552, Note_on_c, 9, 42, 98
8, 63600, Note_off_c, 9, 42, 64
8, 63648, Note_on_c, 9, 35, 114
8, 63648, Note_on_c, 9, 42, 82
8, 63696, Note_off_c, 9, 42, 64
8, 63696, Note_off_c, 9, 35, 64
8, 63744, Note_on_c, 9, 35, 114
8, 63744, Note_on_c, 9, 42, 114
8, 63792, Note_off_c, 9, 42, 64
8, 63792, Note_off_c, 9, 35, 64
8, 63840, Note_on_c, 9, 42, 82
8, 63888, Note_off_c, 9, 42, 64
8, 63936, Note_on_c, 9, 42, 98
8, 63984, Note_off_c, 9, 42, 64
8, 64032, Note_on_c, 9, 42, 82
8, 64080, Note_off_c, 9, 42, 64
8, 64128, Note_on_c, 9, 39, 114
8, 64128, Note_on_c, 9, 42, 114
8, 64128, Note_on_c, 9, 37, 114
8, 64176, Note_off_c, 9, 42, 64
8, 64224, Note_on_c, 9, 42, 82
8, 64272, Note_off_c, 9, 42, 64
8, 64320, Note_off_c, 9, 37, 64
8, 64320, Note_off_c, 9, 39, 64
8, 64320, Note_on_c, 9, 35, 114
8, 64320, Note_on_c, 9, 42, 98
8, 64368, Note_off_c, 9, 42, 64
8, 64368, Note_off_c, 9, 35, 64
8, 64416, Note_on_c, 9, 42, 82
8, 64464, Note_off_c, 9, 42, 64
8, 64512, Note_on_c, 9, 35, 114
8, 64512, Note_on_c, 9, 42, 114
8, 64560, Note_off_c, 9, 42, 64
8, 64560, Note_off_c, 9, 35, 64
8, 64608, Note_on_c, 9, 42, 82
8, 64656, Note_off_c, 9, 42, 64
8, 64704, Note_on_c, 9, 42, 98
8, 64752, Note_off_c, 9, 42, 64
8, 64800, Note_on_c, 9, 42, 82
8, 64848, Note_off_c, 9, 42, 64
8, 64896, Note_on_c, 9, 42, 114
8, 64896, Note_on_c, 9, 37, 114
8, 64944, Note_off_c, 9, 42, 64
8, 64992, Note_on_c, 9, 42, 82
8, 65040, Note_off_c, 9, 42, 64
8, 65088, Note_off_c, 9, 37, 64
8, 65088, Note_on_c, 9, 42, 98
8, 65136, Note_off_c, 9, 42, 64
8, 65184, Note_on_c, 9, 35, 114
8, 65184, Note_on_c, 9, 42, 82
8, 65232, Note_off_c, 9, 42, 64
8, 65232, Note_off_c, 9, 35, 64
8, 65280, Note_on_c, 9, 35, 114
8, 65280, Note_on_c, 9, 42, 114
8, 65328, Note_off_c, 9, 42, 64
8, 65328, Note_off_c, 9, 35, 64
8, 65376, Note_on_c, 9, 42, 82
8, 65424, Note_off_c, 9, 42, 64
8, 65472, Note_on_c, 9, 42, 98
8, 65520, Note_off_c, 9, 42, 64
8, 65568, Note_on_c, 9, 42, 82
8, 65616, Note_off_c, 9, 42, 64
8, 65664, Note_on_c, 9, 39, 114
8, 65664, Note_on_c, 9, 42, 114
8, 65664, Note_on_c, 9, 37, 114
8, 65712, Note_off_c, 9, 42, 64
8, 65760, Note_on_c, 9, 42, 82
8, 65808, Note_off_c, 9, 42, 64
8, 65856, Note_off_c, 9, 37, 64
8, 65856, Note_off_c, 9, 39, 64
8, 65856, Note_on_c, 9, 35, 114
8, 65856, Note_on_c, 9, 42, 98
8, 65904, Note_off_c, 9, 42, 64
8, 65904, Note_off_c, 9, 35, 64
8, 65952, Note_on_c, 9, 42, 82
8, 66000, Note_off_c, 9, 42, 64
8, 66048, Note_on_c, 9, 35, 114
8, 66048, Note_on_c, 9, 42, 114
8, 66096, Note_off_c, 9, 42, 64
8, 66096, Note_off_c, 9, 35, 64
8, 66144, Note_on_c, 9, 42, 82
8, 66192, Note_off_c, 9, 42, 64
8, 66240, Note_on_c, 9, 42, 98
8, 66288, Note_off_c, 9, 42, 64
8, 66336, Note_on_c, 9, 42, 82
8, 66384, Note_off_c, 9, 42, 64
8, 66432, Note_on_c, 9, 42, 114
8, 66432, Note_on_c, 9, 37, 114
8, 66480, Note_off_c, 9, 42, 64
8, 66528, Note_on_c, 9, 42, 82
8, 66576, Note_off_c, 9, 42, 64
8, 66624, Note_off_c, 9, 37, 64
8, 66624, Note_on_c, 9, 42, 98
8, 66672, Note_off_c, 9, 42, 64
8, 66720, Note_on_c, 9, 35, 114
8, 66720, Note_on_c, 9, 42, 82
8, 66768, Note_off_c, 9, 42, 64
8, 66768, Note_off_c, 9, 35, 64
8, 66816, Note_on_c, 9, 35, 114
8, 66816, Note_on_c, 9, 42, 114
8, 66864, Note_off_c, 9, 42, 64
8, 66864, Note_off_c, 9, 35, 64
8, 66912, Note_on_c, 9, 42, 82
8, 66960, Note_off_c, 9, 42, 64
8, 67008, Note_on_c, 9, 42, 98
8, 67056, Note_off_c, 9, 42, 64
8, 67104, Note_on_c, 9, 42, 82
8, 67152, Note_off_c, 9, 42, 64
8, 67200, Note_on_c, 9, 39, 114
8, 67200, Note_on_c, 9, 42, 114
8, 67200, Note_on_c, 9, 37, 114
8, 67248, Note_off_c, 9, 42, 64
8, 67296, Note_on_c, 9, 42, 82
8, 67344, Note_off_c, 9, 42, 64
8, 67392, Note_off_c, 9, 37, 64
8, 67392, Note_off_c, 9, 39, 64
8, 67392, Note_on_c, 9, 35, 114
8, 67392, Note_on_c, 9, 42, 98
8, 67440, Note_off_c, 9, 42, 64
8, 67440, Note_off_c, 9, 35, 64
8, 67488, Note_on_c, 9, 42, 82
8, 67536, Note_off_c, 9, 42, 64
8, 67584, Note_on_c, 9, 35, 114
8, 67584, Note_on_c, 9, 42, 114
8, 67632, Note_off_c, 9, 42, 64
8, 67632, Note_off_c, 9, 35, 64
8, 67680, Note_on_c, 9, 42, 82
8, 67728, Note_off_c, 9, 42, 64
8, 67776, Note_on_c, 9, 42, 98
8, 67824, Note_off_c, 9, 42, 64
8, 67872, Note_on_c, 9, 42, 82
8, 67920, Note_off_c, 9, 42, 64
8, 67968, Note_on_c, 9, 42, 114
8, 67968, Note_on_c, 9, 37, 114
8, 68016, Note_off_c, 9, 42, 64
8, 68064, Note_on_c, 9, 42, 82
8, 68112, Note_off_c, 9, 42, 64
8, 68160, Note_off_c, 9, 37, 64
8, 68160, Note_on_c, 9, 42, 98
8, 68208, Note_off_c, 9, 42, 64
8, 68256, Note_on_c, 9, 35, 114
8, 68256, Note_on_c, 9, 42, 82
8, 68304, Note_off_c, 9, 42, 64
8, 68304, Note_off_c, 9, 35, 64
8, 68352, Note_on_c, 9, 35, 114
8, 68352, Note_on_c, 9, 42, 114
8, 68400, Note_off_c, 9, 42, 64
8, 68400, Note_off_c, 9, 35, 64
8, 68448, Note_on_c, 9, 42, 82
8, 68496, Note_off_c, 9, 42, 64
8, 68544, Note_on_c, 9, 42, 98
8, 68592, Note_off_c, 9, 42, 64
8, 68640, Note_on_c, 9, 42, 82
8, 68688, Note_off_c, 9, 42, 64
8, 68736, Note_on_c, 9, 39, 114
8, 68736, Note_on_c, 9, 42, 114
8, 68736, Note_on_c, 9, 37, 114
8, 68784, Note_off_c, 9, 42, 64
8, 68832, Note_on_c, 9, 42, 82
8, 68880, Note_off_c, 9, 42, 64
8, 68928, Note_off_c, 9, 37, 64
8, 68928, Note_off_c, 9, 39, 64
8, 68928, Note_on_c, 9, 35, 114
8, 68928, Note_on_c, 9, 46, 114
8, 68976, Note_off_c, 9, 35, 64
8, 69024, Note_off_c, 9, 46, 64
8, 69120, Note_on_c, 9, 35, 114
8, 69120, Note_on_c, 9, 42, 114
8, 69168, Note_off_c, 9, 42, 64
8, 69168, Note_off_c, 9, 35, 64
8, 69216, Note_on_c, 9, 42, 82
8, 69264, Note_off_c, 9, 42, 64
8, 69312, Note_on_c, 9, 42, 98
8, 69360, Note_off_c, 9, 42, 64
8, 69408, Note_on_c, 9, 42, 82
8, 69456, Note_off_c, 9, 42, 64
8, 69504, Note_on_c, 9, 42, 114
8, 69504, Note_on_c, 9, 37, 114
8, 69552, Note_off_c, 9, 42, 64
8, 69600, Note_on_c, 9, 42, 82
8, 69648, Note_off_c, 9, 42, 64
8, 69696, Note_off_c, 9, 37, 64
8, 69696, Note_on_c, 9, 42, 98
8, 69744, Note_off_c, 9, 42, 64
8, 69792, Note_on_c, 9, 35, 114
8, 69792, Note_on_c, 9, 42, 82
8, 69840, Note_off_c, 9, 42, 64
8, 69840, Note_off_c, 9, 35, 64
8, 69888, Note_on_c, 9, 35, 114
8, 69888, Note_on_c, 9, 42, 114
8, 69936, Note_off_c, 9, 42, 64
8, 69936, Note_off_c, 9, 35, 64
8, 69984, Note_on_c, 9, 42, 82
8, 70032, Note_off_c, 9, 42, 64
8, 70080, Note_on_c, 9, 42, 98
8, 70128, Note_off_c, 9, 42, 64
8, 70176, Note_on_c, 9, 42, 82
8, 70224, Note_off_c, 9, 42, 64
8, 70272, Note_on_c, 9, 39, 114
8, 70272, Note_on_c, 9, 42, 114
8, 70272, Note_on_c, 9, 37, 114
8, 70320, Note_off_c, 9, 42, 64
8, 70368, Note_on_c, 9, 42, 82
8, 70416, Note_off_c, 9, 42, 64
8, 70464, Note_off_c, 9, 37, 64
8, 70464, Note_off_c, 9, 39, 64
8, 70464, Note_on_c, 9, 35, 114
8, 70464, Note_on_c, 9, 42, 98
8, 70512, Note_off_c, 9, 42, 64
8, 70512, Note_off_c, 9, 35, 64
8, 70560, Note_on_c, 9, 42, 82
8, 70608, Note_off_c, 9, 42, 64
8, 70656, Note_on_c, 9, 35, 114
8, 70656, Note_on_c, 9, 42, 114
8, 70704, Note_off_c, 9, 42, 64
8, 70704, Note_off_c, 9, 35, 64
8, 70752, Note_on_c, 9, 42, 82
8, 70800, Note_off_c, 9, 42, 64
8, 70848, Note_on_c, 9, 42, 98
8, 70896, Note_off_c, 9, 42, 64
8, 70944, Note_on_c, 9, 42, 82
8, 70992, Note_off_c, 9, 42, 64
8, 71040, Note_on_c, 9, 42, 114
8, 71040, Note_on_c, 9, 37, 114
8, 71088, Note_off_c, 9, 42, 64
8, 71136, Note_on_c, 9, 42, 82
8, 71184, Note_off_c, 9, 42, 64
8, 71232, Note_off_c, 9, 37, 64
8, 71232, Note_on_c, 9, 42, 98
8, 71280, Note_off_c, 9, 42, 64
8, 71328, Note_on_c, 9, 35, 114
8, 71328, Note_on_c, 9, 42, 82
8, 71376, Note_off_c, 9, 42, 64
8, 71376, Note_off_c, 9, 35, 64
8, 71424, Note_on_c, 9, 35, 114
8, 71424, Note_on_c, 9, 42, 114
8, 71472, Note_off_c, 9, 42, 64
8, 71472, Note_off_c, 9, 35, 64
8, 71520, Note_on_c, 9, 42, 82
8, 71568, Note_off_c, 9, 42, 64
8, 71616, Note_on_c, 9, 42, 98
8, 71664, Note_off_c, 9, 42, 64
8, 71712, Note_on_c, 9, 42, 82
8, 71760, Note_off_c, 9, 42, 64
8, 71808, Note_on_c, 9, 39, 114
8, 71808, Note_on_c, 9, 42, 114
8, 71808, Note_on_c, 9, 37, 114
8, 71856, Note_off_c, 9, 42, 64
8, 71904, Note_on_c, 9, 42, 82
8, 71952, Note_off_c, 9, 42, 64
8, 72000, Note_off_c, 9, 37, 64
8, 72000, Note_off_c, 9, 39, 64
8, 72000, Note_on_c, 9, 35, 114
8, 72000, Note_on_c, 9, 42, 98
8, 72048, Note_off_c, 9, 42, 64
8, 72048, Note_off_c, 9, 35, 64
8, 72096, Note_on_c, 9, 42, 82
8, 72144, Note_off_c, 9, 42, 64
8, 72192, Note_on_c, 9, 35, 114
8, 72192, Note_on_c, 9, 42, 114
8, 72240, Note_off_c, 9, 42, 64
8, 72240, Note_off_c, 9, 35, 64
8, 72288, Note_on_c, 9, 42, 82
8, 72336, Note_off_c, 9, 42, 64
8, 72384, Note_on_c, 9, 42, 98
8, 72432, Note_off_c, 9, 42, 64
8, 72480, Note_on_c, 9, 42, 82
8, 72528, Note_off_c, 9, 42, 64
8, 72576, Note_on_c, 9, 42, 114
8, 72576, Note_on_c, 9, 37, 114
8, 72624, Note_off_c, 9, 42, 64
8, 72672, Note_on_c, 9, 42, 82
8, 72720, Note_off_c, 9, 42, 64
8, 72768, Note_off_c, 9, 37, 64
8, 72768, Note_on_c, 9, 42, 98
8, 72816, Note_off_c, 9, 42, 64
8, 72864, Note_on_c, 9, 35, 114
8, 72864, Note_on_c, 9, 42, 82
8, 72912, Note_off_c, 9, 42, 64
8, 72912, Note_off_c, 9, 35, 64
8, 72960, Note_on_c, 9, 35, 114
8, 72960, Note_on_c, 9, 42, 114
8, 73008, Note_off_c, 9, 42, 64
8, 73008, Note_off_c, 9, 35, 64
8, 73056, Note_on_c, 9, 42, 82
8, 73104, Note_off_c, 9, 42, 64
8, 73152, Note_on_c, 9, 42, 98
8, 73200, Note_off_c, 9, 42, 64
8, 73248, Note_on_c, 9, 42, 82
8, 73296, Note_off_c, 9, 42, 64
8, 73344, Note_on_c, 9, 39, 114
8, 73344, Note_on_c, 9, 42, 114
8, 73344, Note_on_c, 9, 37, 114
8, 73392, Note_off_c, 9, 42, 64
8, 73440, Note_on_c, 9, 42, 82
8, 73488, Note_off_c, 9, 42, 64
8, 73536, Note_off_c, 9, 37, 64
8, 73536, Note_off_c, 9, 39, 64
8, 73536, Note_on_c, 9, 35, 114
8, 73536, Note_on_c, 9, 42, 98
8, 73584, Note_off_c, 9, 42, 64
8, 73584, Note_off_c, 9, 35, 64
8, 73632, Note_on_c, 9, 42, 82
8, 73680, Note_off_c, 9, 42, 64
8, 73728, Note_on_c, 9, 35, 114
8, 73728, Note_on_c, 9, 42, 114
8, 73776, Note_off_c, 9, 42, 64
8, 73776, Note_off_c, 9, 35, 64
8, 73824, Note_on_c, 9, 42, 82
8, 73872, Note_off_c, 9, 42, 64
8, 73920, Note_on_c, 9, 42, 98
8, 73968, Note_off_c, 9, 42, 64
8, 74016, Note_on_c, 9, 42, 82
8, 74064, Note_off_c, 9, 42, 64
8, 74112, Note_on_c, 9, 42, 114
8, 74112, Note_on_c, 9, 37, 114
8, 74160, Note_off_c, 9, 42, 64
8, 74208, Note_on_c, 9, 42, 82
8, 74256, Note_off_c, 9, 42, 64
8, 74304, Note_off_c, 9, 37, 64
8, 74304, Note_on_c, 9, 42, 98
8, 74352, Note_off_c, 9, 42, 64
8, 74400, Note_on_c, 9, 35, 114
8, 74400, Note_on_c, 9, 42, 82
8, 74448, Note_off_c, 9, 42, 64
8, 74448, Note_off_c, 9, 35, 64
8, 74496, Note_on_c, 9, 35, 114
8, 74496, Note_on_c, 9, 48, 127
8, 74496, Note_on_c, 9, 42, 114
8, 74512, Note_off_c, 9, 48, 64
8, 74512, Note_on_c, 9, 48, 127
8, 74544, Note_off_c, 9, 42, 64
8, 74544, Note_off_c, 9, 35, 64
8, 74560, Note_off_c, 9, 48, 64
8, 74592, Note_on_c, 9, 42, 82
8, 74640, Note_off_c, 9, 42, 64
8, 74688, Note_on_c, 9, 42, 98
8, 74736, Note_off_c, 9, 42, 64
8, 74784, Note_on_c, 9, 48, 127
8, 74784, Note_on_c, 9, 42, 82
8, 74800, Note_off_c, 9, 48, 64
8, 74800, Note_on_c, 9, 48, 127
8, 74832, Note_off_c, 9, 42, 64
8, 74848, Note_off_c, 9, 48, 64
8, 74880, Note_on_c, 9, 39, 114
8, 74880, Note_on_c, 9, 42, 114
8, 74880, Note_on_c, 9, 37, 114
8, 74928, Note_off_c, 9, 42, 64
8, 74976, Note_on_c, 9, 45, 114
8, 74976, Note_on_c, 9, 42, 82
8, 75024, Note_off_c, 9, 42, 64
8, 75024, Note_off_c, 9, 45, 64
8, 75072, Note_off_c, 9, 37, 64
8, 75072, Note_off_c, 9, 39, 64
8, 75072, Note_on_c, 9, 45, 127
8, 75072, Note_on_c, 9, 42, 98
8, 75120, Note_off_c, 9, 42, 64
8, 75120, Note_off_c, 9, 45, 64
8, 75168, Note_on_c, 9, 41, 114
8, 75168, Note_on_c, 9, 42, 82
8, 75216, Note_off_c, 9, 42, 64
8, 75216, Note_off_c, 9, 41, 64
8, 75264, Note_on_c, 9, 35, 114
8, 75264, Note_on_c, 9, 49, 114
8, 75264, Note_on_c, 9, 42, 114
8, 75312, Note_off_c, 9, 42, 64
8, 75312, Note_off_c, 9, 35, 64
8, 75360, Note_on_c, 9, 42, 82
8, 75408, Note_off_c, 9, 42, 64
8, 75456, Note_off_c, 9, 49, 64
8, 75456, Note_on_c, 9, 42, 98
8, 75504, Note_off_c, 9, 42, 64
8, 75552, Note_on_c, 9, 42, 82
8, 75600, Note_off_c, 9, 42, 64
8, 75648, Note_on_c, 9, 42, 114
8, 75648, Note_on_c, 9, 38, 127
8, 75696, Note_off_c, 9, 42, 64
8, 75744, Note_on_c, 9, 42, 82
8, 75792, Note_off_c, 9, 42, 64
8, 75840, Note_off_c, 9, 38, 64
8, 75840, Note_on_c, 9, 42, 98
8, 75888, Note_off_c, 9, 42, 64
8, 75936, Note_on_c, 9, 35, 114
8, 75936, Note_on_c, 9, 42, 82
8, 75984, Note_off_c, 9, 42, 64
8, 75984, Note_off_c, 9, 35, 64
8, 76032, Note_on_c, 9, 35, 114
8, 76032, Note_on_c, 9, 42, 114
8, 76080, Note_off_c, 9, 42, 64
8, 76080, Note_off_c, 9, 35, 64
8, 76128, Note_on_c, 9, 42, 82
8, 76176, Note_off_c, 9, 42, 64
8, 76224, Note_on_c, 9, 42, 98
8, 76272, Note_off_c, 9, 42, 64
8, 76320, Note_on_c, 9, 42, 82
8, 76368, Note_off_c, 9, 42, 64
8, 76416, Note_on_c, 9, 42, 114
8, 76416, Note_on_c, 9, 38, 127
8, 76464, Note_off_c, 9, 42, 64
8, 76512, Note_on_c, 9, 42, 82
8, 76560, Note_off_c, 9, 42, 64
8, 76608, Note_off_c, 9, 38, 64
8, 76608, Note_on_c, 9, 35, 114
8, 76608, Note_on_c, 9, 42, 98
8, 76656, Note_off_c, 9, 42, 64
8, 76656, Note_off_c, 9, 35, 64
8, 76704, Note_on_c, 9, 42, 82
8, 76752, Note_off_c, 9, 42, 64
8, 76800, Note_on_c, 9, 35, 114
8, 76800, Note_on_c, 9, 42, 114
8, 76848, Note_off_c, 9, 42, 64
8, 76848, Note_off_c, 9, 35, 64
8, 76896, Note_on_c, 9, 42, 82
8, 76944, Note_off_c, 9, 42, 64
8, 76992, Note_on_c, 9, 42, 98
8, 77040, Note_off_c, 9, 42, 64
8, 77088, Note_on_c, 9, 42, 82
8, 77136, Note_off_c, 9, 42, 64
8, 77184, Note_on_c, 9, 42, 114
8, 77184, Note_on_c, 9, 38, 127
8, 77232, Note_off_c, 9, 42, 64
8, 77280, Note_on_c, 9, 42, 82
8, 77328, Note_off_c, 9, 42, 64
8, 77376, Note_off_c, 9, 38, 64
8, 77376, Note_on_c, 9, 42, 98
8, 77424, Note_off_c, 9, 42, 64
8, 77472, Note_on_c, 9, 35, 114
8, 77472, Note_on_c, 9, 42, 82
8, 77520, Note_off_c, 9, 42, 64
8, 77520, Note_off_c, 9, 35, 64
8, 77568, Note_on_c, 9, 35, 114
8, 77568, Note_on_c, 9, 42, 114
8, 77616, Note_off_c, 9, 42, 64
8, 77616, Note_off_c, 9, 35, 64
8, 77664, Note_on_c, 9, 42, 82
8, 77712, Note_off_c, 9, 42, 64
8, 77760, Note_on_c, 9, 42, 98
8, 77808, Note_off_c, 9, 42, 64
8, 77856, Note_on_c, 9, 42, 82
8, 77904, Note_off_c, 9, 42, 64
8, 77952, Note_on_c, 9, 42, 114
8, 77952, Note_on_c, 9, 38, 127
8, 78000, Note_off_c, 9, 42, 64
8, 78048, Note_on_c, 9, 42, 82
8, 78096, Note_off_c, 9, 42, 64
8, 78144, Note_off_c, 9, 38, 64
8, 78144, Note_on_c, 9, 35, 114
8, 78144, Note_on_c, 9, 42, 98
8, 78192, Note_off_c, 9, 42, 64
8, 78192, Note_off_c, 9, 35, 64
8, 78240, Note_on_c, 9, 42, 82
8, 78288, Note_off_c, 9, 42, 64
8, 78336, Note_on_c, 9, 35, 114
8, 78336, Note_on_c, 9, 42, 114
8, 78384, Note_off_c, 9, 42, 64
8, 78384, Note_off_c, 9, 35, 64
8, 78432, Note_on_c, 9, 42, 82
8, 78480, Note_off_c, 9, 42, 64
8, 78528, Note_on_c, 9, 42, 98
8, 78576, Note_off_c, 9, 42, 64
8, 78624, Note_on_c, 9, 42, 82
8, 78672, Note_off_c, 9, 42, 64
8, 78720, Note_on_c, 9, 42, 114
8, 78720, Note_on_c, 9, 38, 127
8, 78768, Note_off_c, 9, 42, 64
8, 78816, Note_on_c, 9, 42, 82
8, 78864, Note_off_c, 9, 42, 64
8, 78912, Note_off_c, 9, 38, 64
8, 78912, Note_on_c, 9, 42, 98
8, 78960, Note_off_c, 9, 42, 64
8, 79008, Note_on_c, 9, 35, 114
8, 79008, Note_on_c, 9, 42, 82
8, 79056, Note_off_c, 9, 42, 64
8, 79056, Note_off_c, 9, 35, 64
8, 79104, Note_on_c, 9, 35, 114
8, 79104, Note_on_c, 9, 42, 114
8, 79152, Note_off_c, 9, 42, 64
8, 79152, Note_off_c, 9, 35, 64
8, 79200, Note_on_c, 9, 42, 82
8, 79248, Note_off_c, 9, 42, 64
8, 79296, Note_on_c, 9, 42, 98
8, 79344, Note_off_c, 9, 42, 64
8, 79392, Note_on_c, 9, 42, 82
8, 79440, Note_off_c, 9, 42, 64
8, 79488, Note_on_c, 9, 42, 114
8, 79488, Note_on_c, 9, 38, 127
8, 79536, Note_off_c, 9, 42, 64
8, 79584, Note_on_c, 9, 42, 82
8, 79632, Note_off_c, 9, 42, 64
8, 79680, Note_off_c, 9, 38, 64
8, 79680, Note_on_c, 9, 35, 114
8, 79680, Note_on_c, 9, 42, 98
8, 79728, Note_off_c, 9, 42, 64
8, 79728, Note_off_c, 9, 35, 64
8, 79776, Note_on_c, 9, 42, 82
8, 79824, Note_off_c, 9, 42, 64
8, 79872, Note_on_c, 9, 35, 114
8, 79872, Note_on_c, 9, 42, 114
8, 79920, Note_off_c, 9, 42, 64
8, 79920, Note_off_c, 9, 35, 64
8, 79968, Note_on_c, 9, 42, 82
8, 80016, Note_off_c, 9, 42, 64
8, 80064, Note_on_c, 9, 42, 98
8, 80112, Note_off_c, 9, 42, 64
8, 80160, Note_on_c, 9, 42, 82
8, 80208, Note_off_c, 9, 42, 64
8, 80256, Note_on_c, 9, 42, 114
8, 80256, Note_on_c, 9, 38, 127
8, 80304, Note_off_c, 9, 42, 64
8, 80352, Note_on_c, 9, 42, 82
8, 80400, Note_off_c, 9, 42, 64
8, 80448, Note_off_c, 9, 38, 64
8, 80448, Note_on_c, 9, 42, 98
8, 80496, Note_off_c, 9, 42, 64
8, 80544, Note_on_c, 9, 35, 114
8, 80544, Note_on_c, 9, 42, 82
8, 80592, Note_off_c, 9, 42, 64
8, 80592, Note_off_c, 9, 35, 64
8, 80640, Note_on_c, 9, 35, 114
8, 80640, Note_on_c, 9, 42, 114
8, 80688, Note_off_c, 9, 42, 64
8, 80688, Note_off_c, 9, 35, 64
8, 80736, Note_on_c, 9, 42, 82
8, 80784, Note_off_c, 9, 42, 64
8, 80832, Note_on_c, 9, 42, 98
8, 80880, Note_off_c, 9, 42, 64
8, 80928, Note_on_c, 9, 42, 82
8, 80976, Note_off_c, 9, 42, 64
8, 81024, Note_on_c, 9, 42, 114
8, 81024, Note_on_c, 9, 38, 127
8, 81072, Note_off_c, 9, 42, 64
8, 81120, Note_on_c, 9, 42, 82
8, 81168, Note_off_c, 9, 42, 64
8, 81216, Note_off_c, 9, 38, 64
8, 81216, Note_on_c, 9, 35, 114
8, 81216, Note_on_c, 9, 42, 98
8, 81264, Note_off_c, 9, 42, 64
8, 81264, Note_off_c, 9, 35, 64
8, 81312, Note_on_c, 9, 42, 82
8, 81360, Note_off_c, 9, 42, 64
8, 81408, Note_on_c, 9, 35, 114
8, 81408, Note_on_c, 9, 42, 114
8, 81456, Note_off_c, 9, 42, 64
8, 81456, Note_off_c, 9, 35, 64
8, 81504, Note_on_c, 9, 42, 82
8, 81552, Note_off_c, 9, 42, 64
8, 81600, Note_on_c, 9, 42, 98
8, 81648, Note_off_c, 9, 42, 64
8, 81696, Note_on_c, 9, 42, 82
8, 81744, Note_off_c, 9, 42, 64
8, 81792, Note_on_c, 9, 42, 114
8, 81792, Note_on_c, 9, 38, 127
8, 81840, Note_off_c, 9, 42, 64
8, 81888, Note_on_c, 9, 42, 82
8, 81936, Note_off_c, 9, 42, 64
8, 81984, Note_off_c, 9, 38, 64
8, 81984, Note_on_c, 9, 42, 98
8, 82032, Note_off_c, 9, 42, 64
8, 82080, Note_on_c, 9, 35, 114
8, 82080, Note_on_c, 9, 42, 82
8, 82128, Note_off_c, 9, 42, 64
8, 82128, Note_off_c, 9, 35, 64
8, 82176, Note_on_c, 9, 35, 114
8, 82176, Note_on_c, 9, 42, 114
8, 82224, Note_off_c, 9, 42, 64
8, 82224, Note_off_c, 9, 35, 64
8, 82272, Note_on_c, 9, 42, 82
8, 82320, Note_off_c, 9, 42, 64
8, 82368, Note_on_c, 9, 42, 98
8, 82416, Note_off_c, 9, 42, 64
8, 82464, Note_on_c, 9, 42, 82
8, 82512, Note_off_c, 9, 42, 64
8, 82560, Note_on_c, 9, 42, 114
8, 82560, Note_on_c, 9, 38, 127
8, 82608, Note_off_c, 9, 42, 64
8, 82656, Note_on_c, 9, 42, 82
8, 82704, Note_off_c, 9, 42, 64
8, 82752, Note_off_c, 9, 38, 64
8, 82752, Note_on_c, 9, 35, 114
8, 82752, Note_on_c, 9, 42, 98
8, 82800, Note_off_c, 9, 42, 64
8, 82800, Note_off_c, 9, 35, 64
8, 82848, Note_on_c, 9, 42, 82
8, 82896, Note_off_c, 9, 42, 64
8, 82944, Note_on_c, 9, 35, 114
8, 82944, Note_on_c, 9, 42, 114
8, 82992, Note_off_c, 9, 42, 64
8, 82992, Note_off_c, 9, 35, 64
8, 83040, Note_on_c, 9, 42, 82
8, 83088, Note_off_c, 9, 42, 64
8, 83136, Note_on_c, 9, 42, 98
8, 83184, Note_off_c, 9, 42, 64
8, 83232, Note_on_c, 9, 42, 82
8, 83280, Note_off_c, 9, 42, 64
8, 83328, Note_on_c, 9, 42, 114
8, 83328, Note_on_c, 9, 38, 127
8, 83376, Note_off_c, 9, 42, 64
8, 83424, Note_on_c, 9, 42, 82
8, 83472, Note_off_c, 9, 42, 64
8, 83520, Note_off_c, 9, 38, 64
8, 83520, Note_on_c, 9, 42, 98
8, 83568, Note_off_c, 9, 42, 64
8, 83616, Note_on_c, 9, 35, 114
8, 83616, Note_on_c, 9, 42, 82
8, 83664, Note_off_c, 9, 42, 64
8, 83664, Note_off_c, 9, 35, 64
8, 83712, Note_on_c, 9, 35, 114
8, 83712, Note_on_c, 9, 42, 114
8, 83760, Note_off_c, 9, 42, 64
8, 83760, Note_off_c, 9, 35, 64
8, 83808, Note_on_c, 9, 42, 82
8, 83856, Note_off_c, 9, 42, 64
8, 83904, Note_on_c, 9, 42, 98
8, 83952, Note_off_c, 9, 42, 64
8, 84000, Note_on_c, 9, 42, 82
8, 84048, Note_off_c, 9, 42, 64
8, 84096, Note_on_c, 9, 42, 114
8, 84096, Note_on_c, 9, 38, 127
8, 84144, Note_off_c, 9, 42, 64
8, 84192, Note_on_c, 9, 42, 82
8, 84240, Note_off_c, 9, 42, 64
8, 84288, Note_off_c, 9, 38, 64
8, 84288, Note_on_c, 9, 35, 114
8, 84288, Note_on_c, 9, 42, 98
8, 84336, Note_off_c, 9, 42, 64
8, 84336, Note_off_c, 9, 35, 64
8, 84384, Note_on_c, 9, 42, 82
8, 84432, Note_off_c, 9, 42, 64
8, 84480, Note_on_c, 9, 35, 114
8, 84480, Note_on_c, 9, 42, 114
8, 84528, Note_off_c, 9, 42, 64
8, 84528, Note_off_c, 9, 35, 64
8, 84576, Note_on_c, 9, 42, 82
8, 84624, Note_off_c, 9, 42, 64
8, 84672, Note_on_c, 9, 42, 98
8, 84720, Note_off_c, 9, 42, 64
8, 84768, Note_on_c, 9, 42, 82
8, 84816, Note_off_c, 9, 42, 64
8, 84864, Note_on_c, 9, 42, 114
8, 84864, Note_on_c, 9, 38, 127
8, 84912, Note_off_c, 9, 42, 64
8, 84960, Note_on_c, 9, 42, 82
8, 85008, Note_off_c, 9, 42, 64
8, 85056, Note_off_c, 9, 38, 64
8, 85056, Note_on_c, 9, 42, 98
8, 85104, Note_off_c, 9, 42, 64
8, 85152, Note_on_c, 9, 35, 114
8, 85152, Note_on_c, 9, 42, 82
8, 85200, Note_off_c, 9, 42, 64
8, 85200, Note_off_c, 9, 35, 64
8, 85248, Note_on_c, 9, 35, 114
8, 85248, Note_on_c, 9, 42, 114
8, 85296, Note_off_c, 9, 42, 64
8, 85296, Note_off_c, 9, 35, 64
8, 85344, Note_on_c, 9, 42, 82
8, 85392, Note_off_c, 9, 42, 64
8, 85440, Note_on_c, 9, 42, 98
8, 85488, Note_off_c, 9, 42, 64
8, 85536, Note_on_c, 9, 42, 82
8, 85584, Note_off_c, 9, 42, 64
8, 85632, Note_on_c, 9, 42, 114
8, 85632, Note_on_c, 9, 38, 127
8, 85680, Note_off_c, 9, 42, 64
8, 85728, Note_on_c, 9, 42, 82
8, 85776, Note_off_c, 9, 42, 64
8, 85824, Note_off_c, 9, 38, 64
8, 85824, Note_on_c, 9, 35, 114
8, 85824, Note_on_c, 9, 42, 98
8, 85872, Note_off_c, 9, 42, 64
8, 85872, Note_off_c, 9, 35, 64
8, 85920, Note_on_c, 9, 42, 82
8, 85968, Note_off_c, 9, 42, 64
8, 86016, Note_on_c, 9, 35, 114
8, 86016, Note_on_c, 9, 42, 114
8, 86064, Note_off_c, 9, 42, 64
8, 86064, Note_off_c, 9, 35, 64
8, 86112, Note_on_c, 9, 42, 82
8, 86160, Note_off_c, 9, 42, 64
8, 86208, Note_on_c, 9, 42, 98
8, 86256, Note_off_c, 9, 42, 64
8, 86304, Note_on_c, 9, 42, 82
8, 86352, Note_off_c, 9, 42, 64
8, 86400, Note_on_c, 9, 42, 114
8, 86400, Note_on_c, 9, 38, 127
8, 86448, Note_off_c, 9, 42, 64
8, 86496, Note_on_c, 9, 42, 82
8, 86544, Note_off_c, 9, 42, 64
8, 86592, Note_off_c, 9, 38, 64
8, 86592, Note_on_c, 9, 42, 98
8, 86640, Note_off_c, 9, 42, 64
8, 86688, Note_on_c, 9, 35, 114
8, 86688, Note_on_c, 9, 42, 82
8, 86736, Note_off_c, 9, 42, 64
8, 86736, Note_off_c, 9, 35, 64
8, 86784, Note_on_c, 9, 35, 114
8, 86784, Note_on_c, 9, 42, 114
8, 86784, Note_on_c, 9, 38, 127
8, 86832, Note_off_c, 9, 42, 64
8, 86832, Note_off_c, 9, 35, 64
8, 86976, Note_off_c, 9, 38, 64
8, 87552, Note_on_c, 9, 42, 114
8, 87600, Note_off_c, 9, 42, 64
8, 87648, Note_on_c, 9, 42, 82
8, 87696, Note_off_c, 9, 42, 64
8, 87744, Note_on_c, 9, 42, 98
8, 87792, Note_off_c, 9, 42, 64
8, 87840, Note_on_c, 9, 42, 82
8, 87888, Note_off_c, 9, 42, 64
8, 87936, Note_on_c, 9, 42, 114
8, 87984, Note_off_c, 9, 42, 64
8, 88032, Note_on_c, 9, 42, 82
8, 88080, Note_off_c, 9, 42, 64
8, 88128, Note_on_c, 9, 42, 98
8, 88176, Note_off_c, 9, 42, 64
8, 88224, Note_on_c, 9, 42, 82
8, 88272, Note_off_c, 9, 42, 64
8, 88320, Note_on_c, 9, 42, 114
8, 88368, Note_off_c, 9, 42, 64
8, 88416, Note_on_c, 9, 42, 82
8, 88464, Note_off_c, 9, 42, 64
8, 88512, Note_on_c, 9, 42, 98
8, 88560, Note_off_c, 9, 42, 64
8, 88608, Note_on_c, 9, 42, 82
8, 88656, Note_off_c, 9, 42, 64
8, 88704, Note_on_c, 9, 42, 114
8, 88752, Note_off_c, 9, 42, 64
8, 88800, Note_on_c, 9, 42, 82
8, 88848, Note_off_c, 9, 42, 64
8, 88896, Note_on_c, 9, 42, 98
8, 88944, Note_off_c, 9, 42, 64
8, 88992, Note_on_c, 9, 42, 82
8, 89040, Note_off_c, 9, 42, 64
8, 89088, Note_on_c, 9, 42, 114
8, 89136, Note_off_c, 9, 42, 64
8, 89184, Note_on_c, 9, 42, 82
8, 89232, Note_off_c, 9, 42, 64
8, 89280, Note_on_c, 9, 42, 98
8, 89328, Note_off_c, 9, 42, 64
8, 89376, Note_on_c, 9, 42, 82
8, 89424, Note_off_c, 9, 42, 64
8, 89472, Note_on_c, 9, 42, 114
8, 89520, Note_off_c, 9, 42, 64
8, 89568, Note_on_c, 9, 42, 82
8, 89616, Note_off_c, 9, 42, 64
8, 89664, Note_on_c, 9, 42, 98
8, 89712, Note_off_c, 9, 42, 64
8, 89760, Note_on_c, 9, 42, 82
8, 89808, Note_off_c, 9, 42, 64
8, 89856, Note_on_c, 9, 42, 114
8, 89904, Note_off_c, 9, 42, 64
8, 89952, Note_on_c, 9, 42, 82
8, 90000, Note_off_c, 9, 42, 64
8, 90048, Note_on_c, 9, 42, 98
8, 90096, Note_off_c, 9, 42, 64
8, 90144, Note_on_c, 9, 42, 82
8, 90192, Note_off_c, 9, 42, 64
8, 90240, Note_on_c, 9, 42, 114
8, 90288, Note_off_c, 9, 42, 64
8, 90336, Note_on_c, 9, 42, 82
8, 90384, Note_off_c, 9, 42, 64
8, 90432, Note_on_c, 9, 42, 98
8, 90480, Note_off_c, 9, 42, 64
8, 90528, Note_on_c, 9, 42, 82
8, 90576, Note_off_c, 9, 42, 64
8, 90624, Note_on_c, 9, 42, 114
8, 90672, Note_off_c, 9, 42, 64
8, 90720, Note_on_c, 9, 42, 82
8, 90768, Note_off_c, 9, 42, 64
8, 90816, Note_on_c, 9, 42, 98
8, 90864, Note_off_c, 9, 42, 64
8, 90912, Note_on_c, 9, 42, 82
8, 90960, Note_off_c, 9, 42, 64
8, 91008, Note_on_c, 9, 42, 114
8, 91056, Note_off_c, 9, 42, 64
8, 91104, Note_on_c, 9, 42, 82
8, 91152, Note_off_c, 9, 42, 64
8, 91200, Note_on_c, 9, 42, 98
8, 91248, Note_off_c, 9, 42, 64
8, 91296, Note_on_c, 9, 42, 82
8, 91344, Note_off_c, 9, 42, 64
8, 91392, Note_on_c, 9, 42, 114
8, 91440, Note_off_c, 9, 42, 64
8, 91488, Note_on_c, 9, 42, 82
8, 91536, Note_off_c, 9, 42, 64
8, 91584, Note_on_c, 9, 42, 98
8, 91632, Note_off_c, 9, 42, 64
8, 91680, Note_on_c, 9, 42, 82
8, 91728, Note_off_c, 9, 42, 64
8, 91776, Note_on_c, 9, 42, 114
8, 91824, Note_off_c, 9, 42, 64
8, 91872, Note_on_c, 9, 42, 82
8, 91920, Note_off_c, 9, 42, 64
8, 91968, Note_on_c, 9, 42, 98
8, 92016, Note_off_c, 9, 42, 64
8, 92064, Note_on_c, 9, 42, 82
8, 92112, Note_off_c, 9, 42, 64
8, 92160, Note_on_c, 9, 42, 114
8, 92208, Note_off_c, 9, 42, 64
8, 92256, Note_on_c, 9, 42, 82
8, 92304, Note_off_c, 9, 42, 64
8, 92352, Note_on_c, 9, 42, 98
8, 92400, Note_off_c, 9, 42, 64
8, 92448, Note_on_c, 9, 42, 82
8, 92496, Note_off_c, 9, 42, 64
8, 92544, Note_on_c, 9, 42, 114
8, 92592, Note_off_c, 9, 42, 64
8, 92640, Note_on_c, 9, 42, 82
8, 92688, Note_off_c, 9, 42, 64
8, 92736, Note_on_c, 9, 42, 98
8, 92784, Note_off_c, 9, 42, 64
8, 92832, Note_on_c, 9, 42, 82
8, 92880, Note_off_c, 9, 42, 64
8, 92928, Note_on_c, 9, 42, 114
8, 92976, Note_off_c, 9, 42, 64
8, 93024, Note_on_c, 9, 48, 127
8, 93024, Note_on_c, 9, 42, 82
8, 93040, Note_off_c, 9, 48, 64
8, 93040, Note_on_c, 9, 48, 127
8, 93072, Note_off_c, 9, 42, 64
8, 93088, Note_off_c, 9, 48, 64
8, 93120, Note_on_c, 9, 42, 98
8, 93168, Note_off_c, 9, 42, 64
8, 93216, Note_on_c, 9, 48, 127
8, 93216, Note_on_c, 9, 42, 82
8, 93232, Note_off_c, 9, 48, 64
8, 93232, Note_on_c, 9, 48, 127
8, 93264, Note_off_c, 9, 42, 64
8, 93280, Note_off_c, 9, 48, 64
8, 93312, Note_on_c, 9, 42, 114
8, 93312, Note_on_c, 9, 38, 127
8, 93360, Note_off_c, 9, 42, 64
8, 93408, Note_on_c, 9, 45, 114
8, 93408, Note_on_c, 9, 42, 82
8, 93456, Note_off_c, 9, 42, 64
8, 93456, Note_off_c, 9, 45, 64
8, 93504, Note_off_c, 9, 38, 64
8, 93504, Note_on_c, 9, 45, 127
8, 93504, Note_on_c, 9, 42, 98
8, 93552, Note_off_c, 9, 42, 64
8, 93552, Note_off_c, 9, 45, 64
8, 93600, Note_on_c, 9, 42, 82
8, 93648, Note_off_c, 9, 42, 64
8, 93696, Note_on_c, 9, 35, 114
8, 93696, Note_on_c, 9, 57, 114
8, 93696, Note_on_c, 9, 42, 114
8, 93744, Note_off_c, 9, 42, 64
8, 93744, Note_off_c, 9, 35, 64
8, 93792, Note_on_c, 9, 42, 82
8, 93840, Note_off_c, 9, 42, 64
8, 93888, Note_off_c, 9, 57, 64
8, 93888, Note_on_c, 9, 42, 98
8, 93936, Note_off_c, 9, 42, 64
8, 93984, Note_on_c, 9, 42, 82
8, 94032, Note_off_c, 9, 42, 64
8, 94080, Note_on_c, 9, 42, 114
8, 94080, Note_on_c, 9, 38, 127
8, 94128, Note_off_c, 9, 42, 64
8, 94176, Note_on_c, 9, 42, 82
8, 94224, Note_off_c, 9, 42, 64
8, 94272, Note_off_c, 9, 38, 64
8, 94272, Note_on_c, 9, 42, 98
8, 94320, Note_off_c, 9, 42, 64
8, 94368, Note_on_c, 9, 35, 114
8, 94368, Note_on_c, 9, 42, 82
8, 94416, Note_off_c, 9, 42, 64
8, 94416, Note_off_c, 9, 35, 64
8, 94464, Note_on_c, 9, 35, 114
8, 94464, Note_on_c, 9, 42, 114
8, 94512, Note_off_c, 9, 42, 64
8, 94512, Note_off_c, 9, 35, 64
8, 94560, Note_on_c, 9, 42, 82
8, 94608, Note_off_c, 9, 42, 64
8, 94656, Note_on_c, 9, 42, 98
8, 94704, Note_off_c, 9, 42, 64
8, 94752, Note_on_c, 9, 42, 82
8, 94800, Note_off_c, 9, 42, 64
8, 94848, Note_on_c, 9, 42, 114
8, 94848, Note_on_c, 9, 38, 127
8, 94896, Note_off_c, 9, 42, 64
8, 94944, Note_on_c, 9, 42, 82
8, 94992, Note_off_c, 9, 42, 64
8, 95040, Note_off_c, 9, 38, 64
8, 95040, Note_on_c, 9, 35, 114
8, 95040, Note_on_c, 9, 42, 98
8, 95088, Note_off_c, 9, 42, 64
8, 95088, Note_off_c, 9, 35, 64
8, 95136, Note_on_c, 9, 42, 82
8, 95184, Note_off_c, 9, 42, 64
8, 95232, Note_on_c, 9, 35, 114
8, 95232, Note_on_c, 9, 42, 114
8, 95280, Note_off_c, 9, 42, 64
8, 95280, Note_off_c, 9, 35, 64
8, 95328, Note_on_c, 9, 42, 82
8, 95376, Note_off_c, 9, 42, 64
8, 95424, Note_on_c, 9, 42, 98
8, 95472, Note_off_c, 9, 42, 64
8, 95520, Note_on_c, 9, 42, 82
8, 95568, Note_off_c, 9, 42, 64
8, 95616, Note_on_c, 9, 42, 114
8, 95616, Note_on_c, 9, 38, 127
8, 95664, Note_off_c, 9, 42, 64
8, 95712, Note_on_c, 9, 42, 82
8, 95760, Note_off_c, 9, 42, 64
8, 95808, Note_off_c, 9, 38, 64
8, 95808, Note_on_c, 9, 42, 98
8, 95856, Note_off_c, 9, 42, 64
8, 95904, Note_on_c, 9, 35, 114
8, 95904, Note_on_c, 9, 42, 82
8, 95952, Note_off_c, 9, 42, 64
8, 95952, Note_off_c, 9, 35, 64
8, 96000, Note_on_c, 9, 35, 114
8, 96000, Note_on_c, 9, 42, 114
8, 96048, Note_off_c, 9, 42, 64
8, 96048, Note_off_c, 9, 35, 64
8, 96096, Note_on_c, 9, 42, 82
8, 96144, Note_off_c, 9, 42, 64
8, 96192, Note_on_c, 9, 42, 98
8, 96240, Note_off_c, 9, 42, 64
8, 96288, Note_on_c, 9, 42, 82
8, 96336, Note_off_c, 9, 42, 64
8, 96384, Note_on_c, 9, 42, 114
8, 96384, Note_on_c, 9, 38, 127
8, 96432, Note_off_c, 9, 42, 64
8, 96480, Note_on_c, 9, 42, 82
8, 96528, Note_off_c, 9, 42, 64
8, 96576, Note_off_c, 9, 38, 64
8, 96576, Note_on_c, 9, 35, 114
8, 96576, Note_on_c, 9, 42, 98
8, 96624, Note_off_c, 9, 42, 64
8, 96624, Note_off_c, 9, 35, 64
8, 96672, Note_on_c, 9, 42, 82
8, 96720, Note_off_c, 9, 42, 64
8, 96768, Note_on_c, 9, 35, 114
8, 96768, Note_on_c, 9, 42, 114
8, 96816, Note_off_c, 9, 42, 64
8, 96816, Note_off_c, 9, 35, 64
8, 96864, Note_on_c, 9, 42, 82
8, 96912, Note_off_c, 9, 42, 64
8, 96960, Note_on_c, 9, 42, 98
8, 97008, Note_off_c, 9, 42, 64
8, 97056, Note_on_c, 9, 42, 82
8, 97104, Note_off_c, 9, 42, 64
8, 97152, Note_on_c, 9, 42, 114
8, 97152, Note_on_c, 9, 38, 127
8, 97200, Note_off_c, 9, 42, 64
8, 97248, Note_on_c, 9, 42, 82
8, 97296, Note_off_c, 9, 42, 64
8, 97344, Note_off_c, 9, 38, 64
8, 97344, Note_on_c, 9, 42, 98
8, 97392, Note_off_c, 9, 42, 64
8, 97440, Note_on_c, 9, 35, 114
8, 97440, Note_on_c, 9, 42, 82
8, 97488, Note_off_c, 9, 42, 64
8, 97488, Note_off_c, 9, 35, 64
8, 97536, Note_on_c, 9, 35, 114
8, 97536, Note_on_c, 9, 42, 114
8, 97584, Note_off_c, 9, 42, 64
8, 97584, Note_off_c, 9, 35, 64
8, 97632, Note_on_c, 9, 42, 82
8, 97680, Note_off_c, 9, 42, 64
8, 97728, Note_on_c, 9, 42, 98
8, 97776, Note_off_c, 9, 42, 64
8, 97824, Note_on_c, 9, 42, 82
8, 97872, Note_off_c, 9, 42, 64
8, 97920, Note_on_c, 9, 42, 114
8, 97920, Note_on_c, 9, 38, 127
8, 97968, Note_off_c, 9, 42, 64
8, 98016, Note_on_c, 9, 42, 82
8, 98064, Note_off_c, 9, 42, 64
8, 98112, Note_off_c, 9, 38, 64
8, 98112, Note_on_c, 9, 35, 114
8, 98112, Note_on_c, 9, 42, 98
8, 98160, Note_off_c, 9, 42, 64
8, 98160, Note_off_c, 9, 35, 64
8, 98208, Note_on_c, 9, 42, 82
8, 98256, Note_off_c, 9, 42, 64
8, 98304, Note_on_c, 9, 35, 114
8, 98304, Note_on_c, 9, 42, 114
8, 98352, Note_off_c, 9, 42, 64
8, 98352, Note_off_c, 9, 35, 64
8, 98400, Note_on_c, 9, 42, 82
8, 98448, Note_off_c, 9, 42, 64
8, 98496, Note_on_c, 9, 42, 98
8, 98544, Note_off_c, 9, 42, 64
8, 98592, Note_on_c, 9, 42, 82
8, 98640, Note_off_c, 9, 42, 64
8, 98688, Note_on_c, 9, 42, 114
8, 98688, Note_on_c, 9, 38, 127
8, 98736, Note_off_c, 9, 42, 64
8, 98784, Note_on_c, 9, 42, 82
8, 98832, Note_off_c, 9, 42, 64
8, 98880, Note_off_c, 9, 38, 64
8, 98880, Note_on_c, 9, 42, 98
8, 98928, Note_off_c, 9, 42, 64
8, 98976, Note_on_c, 9, 35, 114
8, 98976, Note_on_c, 9, 42, 82
8, 99024, Note_off_c, 9, 42, 64
8, 99024, Note_off_c, 9, 35, 64
8, 99072, Note_on_c, 9, 35, 114
8, 99072, Note_on_c, 9, 42, 114
8, 99120, Note_off_c, 9, 42, 64
8, 99120, Note_off_c, 9, 35, 64
8, 99168, Note_on_c, 9, 48, 127
8, 99168, Note_on_c, 9, 42, 82
8, 99184, Note_off_c, 9, 48, 64
8, 99184, Note_on_c, 9, 48, 127
8, 99216, Note_off_c, 9, 42, 64
8, 99232, Note_off_c, 9, 48, 64
8, 99264, Note_on_c, 9, 48, 127
8, 99264, Note_on_c, 9, 42, 98
8, 99312, Note_off_c, 9, 42, 64
8, 99312, Note_off_c, 9, 48, 64
8, 99360, Note_on_c, 9, 48, 127
8, 99360, Note_on_c, 9, 42, 82
8, 99408, Note_off_c, 9, 42, 64
8, 99408, Note_off_c, 9, 48, 64
8, 99456, Note_on_c, 9, 45, 127
8, 99456, Note_on_c, 9, 42, 114
8, 99504, Note_off_c, 9, 42, 64
8, 99504, Note_off_c, 9, 45, 64
8, 99552, Note_on_c, 9, 45, 114
8, 99552, Note_on_c, 9, 42, 82
8, 99600, Note_off_c, 9, 42, 64
8, 99600, Note_off_c, 9, 45, 64
8, 99648, Note_on_c, 9, 35, 114
8, 99648, Note_on_c, 9, 41, 114
8, 99648, Note_on_c, 9, 42, 98
8, 99696, Note_off_c, 9, 42, 64
8, 99696, Note_off_c, 9, 35, 64
8, 99744, Note_off_c, 9, 41, 64
8, 99744, Note_on_c, 9, 42, 82
8, 99792, Note_off_c, 9, 42, 64
8, 99840, Note_on_c, 9, 35, 114
8, 99840, Note_on_c, 9, 49, 114
8, 99840, Note_on_c, 9, 42, 114
8, 99888, Note_off_c, 9, 42, 64
8, 99888, Note_off_c, 9, 35, 64
8, 99936, Note_on_c, 9, 42, 82
8, 99984, Note_off_c, 9, 42, 64
8, 100032, Note_off_c, 9, 49, 64
8, 100032, Note_on_c, 9, 42, 98
8, 100080, Note_off_c, 9, 42, 64
8, 100128, Note_on_c, 9, 42, 82
8, 100176, Note_off_c, 9, 42, 64
8, 100224, Note_on_c, 9, 42, 114
8, 100224, Note_on_c, 9, 38, 127
8, 100272, Note_off_c, 9, 42, 64
8, 100320, Note_on_c, 9, 42, 82
8, 100368, Note_off_c, 9, 42, 64
8, 100416, Note_off_c, 9, 38, 64
8, 100416, Note_on_c, 9, 42, 98
8, 100464, Note_off_c, 9, 42, 64
8, 100512, Note_on_c, 9, 35, 114
8, 100512, Note_on_c, 9, 42, 82
8, 100560, Note_off_c, 9, 42, 64
8, 100560, Note_off_c, 9, 35, 64
8, 100608, Note_on_c, 9, 35, 114
8, 100608, Note_on_c, 9, 42, 114
8, 100656, Note_off_c, 9, 42, 64
8, 100656, Note_off_c, 9, 35, 64
8, 100704, Note_on_c, 9, 42, 82
8, 100752, Note_off_c, 9, 42, 64
8, 100800, Note_on_c, 9, 42, 98
8, 100848, Note_off_c, 9, 42, 64
8, 100896, Note_on_c, 9, 42, 82
8, 100944, Note_off_c, 9, 42, 64
8, 100992, Note_on_c, 9, 42, 114
8, 100992, Note_on_c, 9, 38, 127
8, 101040, Note_off_c, 9, 42, 64
8, 101088, Note_on_c, 9, 42, 82
8, 101136, Note_off_c, 9, 42, 64
8, 101184, Note_off_c, 9, 38, 64
8, 101184, Note_on_c, 9, 35, 114
8, 101184, Note_on_c, 9, 42, 98
8, 101232, Note_off_c, 9, 42, 64
8, 101232, Note_off_c, 9, 35, 64
8, 101280, Note_on_c, 9, 42, 82
8, 101328, Note_off_c, 9, 42, 64
8, 101376, Note_on_c, 9, 35, 114
8, 101376, Note_on_c, 9, 42, 114
8, 101424, Note_off_c, 9, 42, 64
8, 101424, Note_off_c, 9, 35, 64
8, 101472, Note_on_c, 9, 42, 82
8, 101520, Note_off_c, 9, 42, 64
8, 101568, Note_on_c, 9, 42, 98
8, 101616, Note_off_c, 9, 42, 64
8, 101664, Note_on_c, 9, 42, 82
8, 101712, Note_off_c, 9, 42, 64
8, 101760, Note_on_c, 9, 42, 114
8, 101760, Note_on_c, 9, 38, 127
8, 101808, Note_off_c, 9, 42, 64
8, 101856, Note_on_c, 9, 42, 82
8, 101904, Note_off_c, 9, 42, 64
8, 101952, Note_off_c, 9, 38, 64
8, 101952, Note_on_c, 9, 42, 98
8, 102000, Note_off_c, 9, 42, 64
8, 102048, Note_on_c, 9, 35, 114
8, 102048, Note_on_c, 9, 42, 82
8, 102096, Note_off_c, 9, 42, 64
8, 102096, Note_off_c, 9, 35, 64
8, 102144, Note_on_c, 9, 35, 114
8, 102144, Note_on_c, 9, 42, 114
8, 102192, Note_off_c, 9, 42, 64
8, 102192, Note_off_c, 9, 35, 64
8, 102240, Note_on_c, 9, 42, 82
8, 102288, Note_off_c, 9, 42, 64
8, 102336, Note_on_c, 9, 42, 98
8, 102384, Note_off_c, 9, 42, 64
8, 102432, Note_on_c, 9, 42, 82
8, 102480, Note_off_c, 9, 42, 64
8, 102528, Note_on_c, 9, 42, 114
8, 102528, Note_on_c, 9, 38, 127
8, 102576, Note_off_c, 9, 42, 64
8, 102624, Note_on_c, 9, 42, 82
8, 102672, Note_off_c, 9, 42, 64
8, 102720, Note_off_c, 9, 38, 64
8, 102720, Note_on_c, 9, 35, 114
8, 102720, Note_on_c, 9, 42, 98
8, 102768, Note_off_c, 9, 42, 64
8, 102768, Note_off_c, 9, 35, 64
8, 102816, Note_on_c, 9, 42, 82
8, 102864, Note_off_c, 9, 42, 64
8, 102912, Note_on_c, 9, 35, 114
8, 102912, Note_on_c, 9, 42, 114
8, 102960, Note_off_c, 9, 42, 64
8, 102960, Note_off_c, 9, 35, 64
8, 103008, Note_on_c, 9, 42, 82
8, 103056, Note_off_c, 9, 42, 64
8, 103104, Note_on_c, 9, 42, 98
8, 103152, Note_off_c, 9, 42, 64
8, 103200, Note_on_c, 9, 42, 82
8, 103248, Note_off_c, 9, 42, 64
8, 103296, Note_on_c, 9, 42, 114
8, 103296, Note_on_c, 9, 38, 127
8, 103344, Note_off_c, 9, 42, 64
8, 103392, Note_on_c, 9, 42, 82
8, 103440, Note_off_c, 9, 42, 64
8, 103488, Note_off_c, 9, 38, 64
8, 103488, Note_on_c, 9, 42, 98
8, 103536, Note_off_c, 9, 42, 64
8, 103584, Note_on_c, 9, 35, 114
8, 103584, Note_on_c, 9, 42, 82
8, 103632, Note_off_c, 9, 42, 64
8, 103632, Note_off_c, 9, 35, 64
8, 103680, Note_on_c, 9, 35, 114
8, 103680, Note_on_c, 9, 42, 114
8, 103728, Note_off_c, 9, 42, 64
8, 103728, Note_off_c, 9, 35, 64
8, 103776, Note_on_c, 9, 42, 82
8, 103824, Note_off_c, 9, 42, 64
8, 103872, Note_on_c, 9, 42, 98
8, 103920, Note_off_c, 9, 42, 64
8, 103968, Note_on_c, 9, 42, 82
8, 104016, Note_off_c, 9, 42, 64
8, 104064, Note_on_c, 9, 42, 114
8, 104064, Note_on_c, 9, 38, 127
8, 104112, Note_off_c, 9, 42, 64
8, 104160, Note_on_c, 9, 42, 82
8, 104208, Note_off_c, 9, 42, 64
8, 104256, Note_off_c, 9, 38, 64
8, 104256, Note_on_c, 9, 35, 114
8, 104256, Note_on_c, 9, 42, 98
8, 104304, Note_off_c, 9, 42, 64
8, 104304, Note_off_c, 9, 35, 64
8, 104352, Note_on_c, 9, 42, 82
8, 104400, Note_off_c, 9, 42, 64
8, 104448, Note_on_c, 9, 35, 114
8, 104448, Note_on_c, 9, 42, 114
8, 104496, Note_off_c, 9, 42, 64
8, 104496, Note_off_c, 9, 35, 64
8, 104544, Note_on_c, 9, 42, 82
8, 104592, Note_off_c, 9, 42, 64
8, 104640, Note_on_c, 9, 42, 98
8, 104688, Note_off_c, 9, 42, 64
8, 104736, Note_on_c, 9, 42, 82
8, 104784, Note_off_c, 9, 42, 64
8, 104832, Note_on_c, 9, 42, 114
8, 104832, Note_on_c, 9, 38, 127
8, 104880, Note_off_c, 9, 42, 64
8, 104928, Note_on_c, 9, 42, 82
8, 104976, Note_off_c, 9, 42, 64
8, 105024, Note_off_c, 9, 38, 64
8, 105024, Note_on_c, 9, 42, 98
8, 105072, Note_off_c, 9, 42, 64
8, 105120, Note_on_c, 9, 35, 114
8, 105120, Note_on_c, 9, 42, 82
8, 105168, Note_off_c, 9, 42, 64
8, 105168, Note_off_c, 9, 35, 64
8, 105216, Note_on_c, 9, 35, 114
8, 105216, Note_on_c, 9, 42, 114
8, 105264, Note_off_c, 9, 42, 64
8, 105264, Note_off_c, 9, 35, 64
8, 105312, Note_on_c, 9, 48, 127
8, 105312, Note_on_c, 9, 42, 82
8, 105328, Note_off_c, 9, 48, 64
8, 105328, Note_on_c, 9, 48, 127
8, 105360, Note_off_c, 9, 42, 64
8, 105376, Note_off_c, 9, 48, 64
8, 105408, Note_on_c, 9, 48, 127
8, 105408, Note_on_c, 9, 42, 98
8, 105456, Note_off_c, 9, 42, 64
8, 105456, Note_off_c, 9, 48, 64
8, 105504, Note_on_c, 9, 48, 127
8, 105504, Note_on_c, 9, 42, 82
8, 105552, Note_off_c, 9, 42, 64
8, 105552, Note_off_c, 9, 48, 64
8, 105600, Note_on_c, 9, 45, 127
8, 105600, Note_on_c, 9, 42, 114
8, 105648, Note_off_c, 9, 42, 64
8, 105648, Note_off_c, 9, 45, 64
8, 105696, Note_on_c, 9, 45, 114
8, 105696, Note_on_c, 9, 42, 82
8, 105744, Note_off_c, 9, 42, 64
8, 105744, Note_off_c, 9, 45, 64
8, 105792, Note_on_c, 9, 35, 114
8, 105792, Note_on_c, 9, 41, 114
8, 105792, Note_on_c, 9, 42, 98
8, 105840, Note_off_c, 9, 42, 64
8, 105840, Note_off_c, 9, 35, 64
8, 105888, Note_off_c, 9, 41, 64
8, 105888, Note_on_c, 9, 42, 82
8, 105936, Note_off_c, 9, 42, 64
8, 105984, Note_on_c, 9, 35, 114
8, 105984, Note_on_c, 9, 42, 114
8, 106032, Note_off_c, 9, 42, 64
8, 106032, Note_off_c, 9, 35, 64
8, 106080, Note_on_c, 9, 42, 82
8, 106128, Note_off_c, 9, 42, 64
8, 106176, Note_on_c, 9, 42, 98
8, 106224, Note_off_c, 9, 42, 64
8, 106272, Note_on_c, 9, 42, 82
8, 106320, Note_off_c, 9, 42, 64
8, 106368, Note_on_c, 9, 42, 114
8, 106368, Note_on_c, 9, 37, 114
8, 106416, Note_off_c, 9, 42, 64
8, 106464, Note_on_c, 9, 42, 82
8, 106512, Note_off_c, 9, 42, 64
8, 106560, Note_off_c, 9, 37, 64
8, 106560, Note_on_c, 9, 42, 98
8, 106608, Note_off_c, 9, 42, 64
8, 106656, Note_on_c, 9, 35, 114
8, 106656, Note_on_c, 9, 42, 82
8, 106704, Note_off_c, 9, 42, 64
8, 106704, Note_off_c, 9, 35, 64
8, 106752, Note_on_c, 9, 35, 114
8, 106752, Note_on_c, 9, 42, 114
8, 106800, Note_off_c, 9, 42, 64
8, 106800, Note_off_c, 9, 35, 64
8, 106848, Note_on_c, 9, 42, 82
8, 106896, Note_off_c, 9, 42, 64
8, 106944, Note_on_c, 9, 42, 98
8, 106992, Note_off_c, 9, 42, 64
8, 107040, Note_on_c, 9, 42, 82
8, 107088, Note_off_c, 9, 42, 64
8, 107136, Note_on_c, 9, 39, 114
8, 107136, Note_on_c, 9, 42, 114
8, 107136, Note_on_c, 9, 37, 114
8, 107184, Note_off_c, 9, 42, 64
8, 107232, Note_on_c, 9, 42, 82
8, 107280, Note_off_c, 9, 42, 64
8, 107328, Note_off_c, 9, 37, 64
8, 107328, Note_off_c, 9, 39, 64
8, 107328, Note_on_c, 9, 35, 114
8, 107328, Note_on_c, 9, 42, 98
8, 107376, Note_off_c, 9, 42, 64
8, 107376, Note_off_c, 9, 35, 64
8, 107424, Note_on_c, 9, 42, 82
8, 107472, Note_off_c, 9, 42, 64
8, 107520, Note_on_c, 9, 35, 114
8, 107520, Note_on_c, 9, 42, 114
8, 107568, Note_off_c, 9, 42, 64
8, 107568, Note_off_c, 9, 35, 64
8, 107616, Note_on_c, 9, 42, 82
8, 107664, Note_off_c, 9, 42, 64
8, 107712, Note_on_c, 9, 42, 98
8, 107760, Note_off_c, 9, 42, 64
8, 107808, Note_on_c, 9, 42, 82
8, 107856, Note_off_c, 9, 42, 64
8, 107904, Note_on_c, 9, 42, 114
8, 107904, Note_on_c, 9, 37, 114
8, 107952, Note_off_c, 9, 42, 64
8, 108000, Note_on_c, 9, 42, 82
8, 108048, Note_off_c, 9, 42, 64
8, 108096, Note_off_c, 9, 37, 64
8, 108096, Note_on_c, 9, 42, 98
8, 108144, Note_off_c, 9, 42, 64
8, 108192, Note_on_c, 9, 35, 114
8, 108192, Note_on_c, 9, 42, 82
8, 108240, Note_off_c, 9, 42, 64
8, 108240, Note_off_c, 9, 35, 64
8, 108288, Note_on_c, 9, 35, 114
8, 108288, Note_on_c, 9, 42, 114
8, 108336, Note_off_c, 9, 42, 64
8, 108336, Note_off_c, 9, 35, 64
8, 108384, Note_on_c, 9, 42, 82
8, 108432, Note_off_c, 9, 42, 64
8, 108480, Note_on_c, 9, 42, 98
8, 108528, Note_off_c, 9, 42, 64
8, 108576, Note_on_c, 9, 42, 82
8, 108624, Note_off_c, 9, 42, 64
8, 108672, Note_on_c, 9, 39, 114
8, 108672, Note_on_c, 9, 42, 114
8, 108672, Note_on_c, 9, 37, 114
8, 108720, Note_off_c, 9, 42, 64
8, 108768, Note_on_c, 9, 42, 82
8, 108816, Note_off_c, 9, 42, 64
8, 108864, Note_off_c, 9, 37, 64
8, 108864, Note_off_c, 9, 39, 64
8, 108864, Note_on_c, 9, 35, 114
8, 108864, Note_on_c, 9, 42, 98
8, 108912, Note_off_c, 9, 42, 64
8, 108912, Note_off_c, 9, 35, 64
8, 108960, Note_on_c, 9, 42, 82
8, 109008, Note_off_c, 9, 42, 64
8, 109056, Note_on_c, 9, 35, 114
8, 109056, Note_on_c, 9, 42, 114
8, 109104, Note_off_c, 9, 42, 64
8, 109104, Note_off_c, 9, 35, 64
8, 109152, Note_on_c, 9, 42, 82
8, 109200, Note_off_c, 9, 42, 64
8, 109248, Note_on_c, 9, 42, 98
8, 109296, Note_off_c, 9, 42, 64
8, 109344, Note_on_c, 9, 42, 82
8, 109392, Note_off_c, 9, 42, 64
8, 109440, Note_on_c, 9, 42, 114
8, 109440, Note_on_c, 9, 37, 114
8, 109488, Note_off_c, 9, 42, 64
8, 109536, Note_on_c, 9, 42, 82
8, 109584, Note_off_c, 9, 42, 64
8, 109632, Note_off_c, 9, 37, 64
8, 109632, Note_on_c, 9, 42, 98
8, 109680, Note_off_c, 9, 42, 64
8, 109728, Note_on_c, 9, 35, 114
8, 109728, Note_on_c, 9, 42, 82
8, 109776, Note_off_c, 9, 42, 64
8, 109776, Note_off_c, 9, 35, 64
8, 109824, Note_on_c, 9, 35, 114
8, 109824, Note_on_c, 9, 42, 114
8, 109872, Note_off_c, 9, 42, 64
8, 109872, Note_off_c, 9, 35, 64
8, 109920, Note_on_c, 9, 42, 82
8, 109968, Note_off_c, 9, 42, 64
8, 110016, Note_on_c, 9, 42, 98
8, 110064, Note_off_c, 9, 42, 64
8, 110112, Note_on_c, 9, 42, 82
8, 110160, Note_off_c, 9, 42, 64
8, 110208, Note_on_c, 9, 39, 114
8, 110208, Note_on_c, 9, 42, 114
8, 110208, Note_on_c, 9, 37, 114
8, 110256, Note_off_c, 9, 42, 64
8, 110304, Note_on_c, 9, 42, 82
8, 110352, Note_off_c, 9, 42, 64
8, 110400, Note_off_c, 9, 37, 64
8, 110400, Note_off_c, 9, 39, 64
8, 110400, Note_on_c, 9, 35, 114
8, 110400, Note_on_c, 9, 42, 98
8, 110448, Note_off_c, 9, 42, 64
8, 110448, Note_off_c, 9, 35, 64
8, 110496, Note_on_c, 9, 42, 82
8, 110544, Note_off_c, 9, 42, 64
8, 110592, Note_on_c, 9, 35, 114
8, 110592, Note_on_c, 9, 42, 114
8, 110640, Note_off_c, 9, 42, 64
8, 110640, Note_off_c, 9, 35, 64
8, 110688, Note_on_c, 9, 42, 82
8, 110736, Note_off_c, 9, 42, 64
8, 110784, Note_on_c, 9, 42, 98
8, 110832, Note_off_c, 9, 42, 64
8, 110880, Note_on_c, 9, 42, 82
8, 110928, Note_off_c, 9, 42, 64
8, 110976, Note_on_c, 9, 42, 114
8, 110976, Note_on_c, 9, 37, 114
8, 111024, Note_off_c, 9, 42, 64
8, 111072, Note_on_c, 9, 42, 82
8, 111120, Note_off_c, 9, 42, 64
8, 111168, Note_off_c, 9, 37, 64
8, 111168, Note_on_c, 9, 42, 98
8, 111216, Note_off_c, 9, 42, 64
8, 111264, Note_on_c, 9, 35, 114
8, 111264, Note_on_c, 9, 42, 82
8, 111312, Note_off_c, 9, 42, 64
8, 111312, Note_off_c, 9, 35, 64
8, 111360, Note_on_c, 9, 35, 114
8, 111360, Note_on_c, 9, 42, 114
8, 111408, Note_off_c, 9, 42, 64
8, 111408, Note_off_c, 9, 35, 64
8, 111456, Note_on_c, 9, 42, 82
8, 111504, Note_off_c, 9, 42, 64
8, 111552, Note_on_c, 9, 42, 98
8, 111600, Note_off_c, 9, 42, 64
8, 111648, Note_on_c, 9, 42, 82
8, 111696, Note_off_c, 9, 42, 64
8, 111744, Note_on_c, 9, 39, 114
8, 111744, Note_on_c, 9, 42, 114
8, 111744, Note_on_c, 9, 37, 114
8, 111792, Note_off_c, 9, 42, 64
8, 111840, Note_on_c, 9, 42, 82
8, 111888, Note_off_c, 9, 42, 64
8, 111936, Note_off_c, 9, 37, 64
8, 111936, Note_off_c, 9, 39, 64
8, 111936, Note_on_c, 9, 35, 114
8, 111936, Note_on_c, 9, 46, 114
8, 111984, Note_off_c, 9, 35, 64
8, 112032, Note_off_c, 9, 46, 64
8, 112128, Note_on_c, 9, 35, 114
8, 112128, Note_on_c, 9, 57, 114
8, 112320, Note_off_c, 9, 57, 64
8, 112320, Note_off_c, 9, 35, 64
8, 113664, End_track
9, 0, Start_track
9, 0, Title_t, "Words"
9, 0, Text_t, "@LENGL"
9, 0, Text_t, "@THave a heart"
9, 0, Text_t, "@TCline Dion"
9, 14218, Text_t, "\\Ly"
9, 14353, Text_t, "in' "
9, 14487, Text_t, "in "
9, 14622, Text_t, "bed "
9, 14801, Text_t, "a"
9, 14890, Text_t, "lone"
9, 15204, Text_t, "\\Thin"
9, 15294, Text_t, "kin' "
9, 15383, Text_t, "'bout "
9, 15561, Text_t, "how "
9, 15651, Text_t, "much "
9, 15919, Text_t, "I "
9, 16053, Text_t, "need "
9, 16277, Text_t, "you"
9, 17130, Text_t, "\\Oh! "
9, 17398, Text_t, "give "
9, 17578, Text_t, "me "
9, 17667, Text_t, "one "
9, 17847, Text_t, "more "
9, 17982, Text_t, "chance "
9, 18339, Text_t, "to "
9, 18428, Text_t, "see "
9, 18652, Text_t, "you "
9, 18831, Text_t, "a"
9, 19009, Text_t, "gain"
9, 20444, Text_t, "\\If "
9, 20533, Text_t, "only "
9, 20622, Text_t, "I'd "
9, 20756, Text_t, "have "
9, 21026, Text_t, "known"
9, 21295, Text_t, "\\It was "
9, 21429, Text_t, "the "
9, 21518, Text_t, "last "
9, 21698, Text_t, "time "
9, 21877, Text_t, "I'd "
9, 22056, Text_t, "be "
9, 22190, Text_t, "with "
9, 22369, Text_t, "you"
9, 23221, Text_t, "\\I "
9, 23535, Text_t, "woul"
9, 23624, Text_t, "d've "
9, 23713, Text_t, "held "
9, 23938, Text_t, "on "
9, 24386, Text_t, "and "
9, 24566, Text_t, "ne"
9, 24789, Text_t, "ver "
9, 24878, Text_t, "let "
9, 25013, Text_t, "you "
9, 25147, Text_t, "go"
9, 25910, Text_t, "\\Ba"
9, 25999, Text_t, "by "
9, 26089, Text_t, "just "
9, 26312, Text_t, "have "
9, 26491, Text_t, "a "
9, 26983, Text_t, "heart"
9, 27834, Text_t, "\\I'm "
9, 27923, Text_t, "beg"
9, 28146, Text_t, "ging "
9, 28416, Text_t, "you"
9, 28956, Text_t, "\\Let "
9, 29090, Text_t, "me "
9, 29179, Text_t, "show "
9, 29357, Text_t, "you "
9, 29715, Text_t, "how "
9, 29894, Text_t, "much "
9, 30435, Text_t, "I "
9, 30704, Text_t, "need "
9, 30882, Text_t, "you "
9, 31286, Text_t, "woh!"
9, 32006, Text_t, "\\Ba"
9, 32140, Text_t, "by, "
9, 32229, Text_t, "just "
9, 32410, Text_t, "have "
9, 32633, Text_t, "a "
9, 33126, Text_t, "heart"
9, 33982, Text_t, "\\This "
9, 34072, Text_t, "much "
9, 34296, Text_t, "is "
9, 34520, Text_t, "true"
9, 35148, Text_t, "\\I "
9, 35328, Text_t, "miss "
9, 35867, Text_t, "your "
9, 36271, Text_t, "touch"
9, 37078, Text_t, "\\I'm "
9, 37212, Text_t, "still "
9, 37301, Text_t, "in "
9, 37390, Text_t, "love "
9, 38158, Text_t, "with "
9, 38339, Text_t, "you"
9, 40095, Text_t, "\\Ahh!"
9, 44903, Text_t, "\\Here "
9, 45038, Text_t, "comes "
9, 45172, Text_t, "a"
9, 45307, Text_t, "no"
9, 45397, Text_t, "ther "
9, 45486, Text_t, "day"
9, 45845, Text_t, "\\I "
9, 45934, Text_t, "don't "
9, 46068, Text_t, "know "
9, 46248, Text_t, "if "
9, 46337, Text_t, "I "
9, 46562, Text_t, "can "
9, 46741, Text_t, "make "
9, 46964, Text_t, "it"
9, 47683, Text_t, "\\Oh! "
9, 48086, Text_t, "I "
9, 48220, Text_t, "just "
9, 48354, Text_t, "re"
9, 48535, Text_t, "alized "
9, 48940, Text_t, "it's "
9, 49029, Text_t, "so "
9, 49118, Text_t, "lo"
9, 49296, Text_t, "nely "
9, 49386, Text_t, "be"
9, 49520, Text_t, "ing "
9, 49653, Text_t, "free"
9, 51003, Text_t, "\\Run"
9, 51183, Text_t, "nin' "
9, 51316, Text_t, "from "
9, 51451, Text_t, "the "
9, 51540, Text_t, "pain"
9, 51853, Text_t, "\\I'm "
9, 52256, Text_t, "ne"
9, 52345, Text_t, "ver "
9, 52479, Text_t, "gon"
9, 52747, Text_t, "na "
9, 52836, Text_t, "shake "
9, 53061, Text_t, "it"
9, 53871, Text_t, "\\Oh! "
9, 54187, Text_t, "how "
9, 54322, Text_t, "I "
9, 54500, Text_t, "need "
9, 54679, Text_t, "you"
9, 55129, Text_t, "\\To "
9, 55218, Text_t, "take "
9, 55442, Text_t, "it "
9, 55621, Text_t, "from "
9, 55799, Text_t, "me"
9, 56516, Text_t, "\\Ba"
9, 56650, Text_t, "by "
9, 56783, Text_t, "just "
9, 56963, Text_t, "have "
9, 57142, Text_t, "a "
9, 57637, Text_t, "heart"
9, 58490, Text_t, "\\I'm "
9, 58624, Text_t, "beg"
9, 58803, Text_t, "ging "
9, 59072, Text_t, "you"
9, 59610, Text_t, "\\Let "
9, 59743, Text_t, "me "
9, 59832, Text_t, "show "
9, 60012, Text_t, "you "
9, 60370, Text_t, "how "
9, 60594, Text_t, "much "
9, 61087, Text_t, "I "
9, 61356, Text_t, "need "
9, 61535, Text_t, "you "
9, 61938, Text_t, "oh!"
9, 62704, Text_t, "\\Ba"
9, 62793, Text_t, "by, "
9, 62882, Text_t, "just "
9, 63105, Text_t, "have "
9, 63284, Text_t, "a "
9, 63776, Text_t, "heart"
9, 64628, Text_t, "\\This "
9, 64718, Text_t, "much "
9, 64941, Text_t, "is "
9, 65209, Text_t, "true"
9, 65792, Text_t, "\\I "
9, 65971, Text_t, "miss "
9, 66510, Text_t, "your "
9, 66916, Text_t, "touch"
9, 67770, Text_t, "\\I'm "
9, 67860, Text_t, "still "
9, 67995, Text_t, "in "
9, 68085, Text_t, "love "
9, 68850, Text_t, "with "
9, 68939, Text_t, "you"
9, 75680, Text_t, "\\I "
9, 75769, Text_t, "a"
9, 75859, Text_t, "lways "
9, 75948, Text_t, "thought "
9, 76396, Text_t, "that "
9, 76485, Text_t, "I "
9, 76620, Text_t, "would "
9, 76710, Text_t, "have "
9, 76978, Text_t, "the "
9, 77067, Text_t, "up"
9, 77201, Text_t, "per "
9, 77290, Text_t, "hand"
9, 78684, Text_t, "\\But "
9, 78818, Text_t, "now "
9, 78907, Text_t, "I "
9, 78996, Text_t, "know "
9, 79447, Text_t, "that "
9, 79582, Text_t, "I'm "
9, 79764, Text_t, "real"
9, 79988, Text_t, "ly "
9, 80078, Text_t, "not "
9, 80301, Text_t, "that "
9, 80704, Text_t, "strong"
9, 81781, Text_t, "\\If "
9, 81870, Text_t, "I "
9, 81959, Text_t, "could "
9, 82094, Text_t, "on"
9, 82363, Text_t, "ly "
9, 82498, Text_t, "make "
9, 82678, Text_t, "you "
9, 82858, Text_t, "un"
9, 83219, Text_t, "der"
9, 83711, Text_t, "stand"
9, 84159, Text_t, "\\I'd "
9, 84337, Text_t, "give "
9, 84562, Text_t, "you "
9, 84920, Text_t, "the "
9, 85324, Text_t, "world "
9, 86090, Text_t, "but "
9, 86268, Text_t, "for "
9, 86492, Text_t, "a "
9, 86674, Text_t, "start"
9, 87077, Text_t, "\\Ba"
9, 87256, Text_t, "by "
9, 87480, Text_t, "just "
9, 87659, Text_t, "have "
9, 87838, Text_t, "a "
9, 88018, Text_t, "heart"
9, 89184, Text_t, "\\I'm "
9, 89273, Text_t, "beg"
9, 89496, Text_t, "ging "
9, 89719, Text_t, "you"
9, 90258, Text_t, "\\Let "
9, 90392, Text_t, "me "
9, 90481, Text_t, "show "
9, 90705, Text_t, "you "
9, 91062, Text_t, "how "
9, 91287, Text_t, "much "
9, 91737, Text_t, "I "
9, 92050, Text_t, "need "
9, 92228, Text_t, "you "
9, 92631, Text_t, "oh!"
9, 93394, Text_t, "\\Ba"
9, 93483, Text_t, "by "
9, 93572, Text_t, "just "
9, 93754, Text_t, "have "
9, 93934, Text_t, "a "
9, 94428, Text_t, "heart"
9, 95285, Text_t, "\\This "
9, 95375, Text_t, "much "
9, 95600, Text_t, "is "
9, 95778, Text_t, "true"
9, 96452, Text_t, "\\I "
9, 96633, Text_t, "miss "
9, 97174, Text_t, "your "
9, 97578, Text_t, "touch"
9, 98435, Text_t, "\\I'm "
9, 98525, Text_t, "still "
9, 98660, Text_t, "in "
9, 98751, Text_t, "love"
9, 99470, Text_t, "\\I "
9, 99694, Text_t, "want "
9, 99920, Text_t, "you "
9, 100234, Text_t, "so "
9, 100594, Text_t, "much"
9, 101494, Text_t, "\\I'm "
9, 101628, Text_t, "still "
9, 101717, Text_t, "in "
9, 101806, Text_t, "love"
9, 102574, Text_t, "\\I "
9, 102753, Text_t, "miss "
9, 102977, Text_t, "you "
9, 103337, Text_t, "so "
9, 103697, Text_t, "much"
9, 104549, Text_t, "\\I'm "
9, 104683, Text_t, "still "
9, 104772, Text_t, "in "
9, 104906, Text_t, "love "
9, 105625, Text_t, "with "
9, 105759, Text_t, "you"
9, 108139, Text_t, "\\Hou! "
9, 108498, Text_t, "Hou! "
9, 108721, Text_t, "Hou! "
9, 109441, Text_t, "Hou!"
9, 109574, Text_t, "\\Hou! "
9, 109708, Text_t, "Hou! "
9, 110066, Text_t, "Hou! "
9, 110335, Text_t, "Hou!"
9, 110738, Text_t, "\\I'm "
9, 110873, Text_t, "still "
9, 110962, Text_t, "in "
9, 111096, Text_t, "love "
9, 111769, Text_t, "with "
9, 111948, Text_t, "you"
9, 112889, Text_t, "\\"
9, 112889, End_track
0, 0, End_of_file
