0, 0, Header, 1, 4, 960
1, 0, Start_track
1, 0, Control_c, 0, 101, 0
1, 0, Control_c, 0, 100, 0
1, 0, Control_c, 0, 6, 12
1, 0, Control_c, 0, 38, 0
1, 0, Control_c, 1, 101, 0
1, 0, Control_c, 1, 100, 0
1, 0, Control_c, 1, 6, 12
1, 0, Control_c, 1, 38, 0
1, 0, Control_c, 2, 101, 0
1, 0, Control_c, 2, 100, 0
1, 0, Control_c, 2, 6, 12
1, 0, Control_c, 2, 38, 0
1, 0, Control_c, 3, 101, 0
1, 0, Control_c, 3, 100, 0
1, 0, Control_c, 3, 6, 12
1, 0, Control_c, 3, 38, 0
1, 0, Control_c, 4, 101, 0
1, 0, Control_c, 4, 100, 0
1, 0, Control_c, 4, 6, 12
1, 0, Control_c, 4, 38, 0
1, 0, Control_c, 5, 101, 0
1, 0, Control_c, 5, 100, 0
1, 0, Control_c, 5, 6, 12
1, 0, Control_c, 5, 38, 0
1, 0, Control_c, 6, 101, 0
1, 0, Control_c, 6, 100, 0
1, 0, Control_c, 6, 6, 12
1, 0, Control_c, 6, 38, 0
1, 0, Control_c, 7, 101, 0
1, 0, Control_c, 7, 100, 0
1, 0, Control_c, 7, 6, 12
1, 0, Control_c, 7, 38, 0
1, 0, Control_c, 8, 101, 0
1, 0, Control_c, 8, 100, 0
1, 0, Control_c, 8, 6, 12
1, 0, Control_c, 8, 38, 0
1, 0, Control_c, 9, 101, 0
1, 0, Control_c, 9, 100, 0
1, 0, Control_c, 9, 6, 12
1, 0, Control_c, 9, 38, 0
1, 0, Control_c, 10, 101, 0
1, 0, Control_c, 10, 100, 0
1, 0, Control_c, 10, 6, 12
1, 0, Control_c, 10, 38, 0
1, 0, Control_c, 11, 101, 0
1, 0, Control_c, 11, 100, 0
1, 0, Control_c, 11, 6, 12
1, 0, Control_c, 11, 38, 0
1, 0, Control_c, 12, 101, 0
1, 0, Control_c, 12, 100, 0
1, 0, Control_c, 12, 6, 12
1, 0, Control_c, 12, 38, 0
1, 0, Control_c, 13, 101, 0
1, 0, Control_c, 13, 100, 0
1, 0, Control_c, 13, 6, 12
1, 0, Control_c, 13, 38, 0
1, 0, Control_c, 14, 101, 0
1, 0, Control_c, 14, 100, 0
1, 0, Control_c, 14, 6, 12
1, 0, Control_c, 14, 38, 0
1, 0, Control_c, 15, 101, 0
1, 0, Control_c, 15, 100, 0
1, 0, Control_c, 15, 6, 12
1, 0, Control_c, 15, 38, 0
1, 0, Time_signature, 4, 2, 24, 8
1, 0, Tempo, 389610
1, 0, End_track
2, 0, Start_track
2, 0, Pitch_bend_c, 0, 8192
2, 0, Control_c, 0, 7, 103
2, 0, Control_c, 0, 10, 63
2, 0, Control_c, 0, 93, 0
2, 0, Control_c, 0, 91, 0
2, 0, Control_c, 0, 95, 0
2, 0, Control_c, 0, 92, 0
2, 0, Control_c, 0, 11, 127
2, 0, Program_c, 0, 29
2, 0, Control_c, 1, 7, 103
2, 0, Control_c, 1, 10, 63
2, 0, Control_c, 1, 93, 0
2, 0, Control_c, 1, 91, 0
2, 0, Control_c, 1, 95, 0
2, 0, Control_c, 1, 92, 0
2, 0, Control_c, 1, 11, 127
2, 0, Program_c, 1, 29
2, 0, Note_on_c, 0, 39, 95
2, 8640, Note_off_c, 0, 39, 95
2, 8880, Pitch_bend_c, 1, 8192
2, 8880, Note_on_c, 1, 68, 95
2, 8912, Pitch_bend_c, 1, 8320
2, 8944, Pitch_bend_c, 1, 8448
2, 8976, Pitch_bend_c, 1, 8576
2, 9008, Pitch_bend_c, 1, 8704
2, 9040, Pitch_bend_c, 1, 8832
2, 9072, Pitch_bend_c, 1, 8960
2, 9104, Pitch_bend_c, 1, 9088
2, 9136, Pitch_bend_c, 1, 9216
2, 9168, Pitch_bend_c, 1, 9344
2, 9200, Pitch_bend_c, 1, 9472
2, 9232, Pitch_bend_c, 1, 9600
2, 9240, Pitch_bend_c, 1, 9600
2, 9600, Pitch_bend_c, 1, 9600
2, 9600, Pitch_bend_c, 1, 8192
2, 9600, Note_off_c, 1, 68, 95
2, 9600, Note_on_c, 0, 66, 95
2, 10320, Note_off_c, 0, 66, 95
2, 10320, Note_on_c, 0, 63, 95
2, 11040, Note_off_c, 0, 63, 95
2, 11040, Note_on_c, 0, 61, 95
2, 11520, Note_off_c, 0, 61, 95
2, 11520, Note_on_c, 0, 63, 95
2, 12240, Note_off_c, 0, 63, 95
2, 12240, Note_on_c, 0, 66, 95
2, 12480, Note_off_c, 0, 66, 95
2, 12480, Note_on_c, 0, 63, 70
2, 12720, Note_off_c, 0, 63, 70
2, 12720, Note_on_c, 0, 61, 95
2, 12960, Note_off_c, 0, 61, 95
2, 12960, Note_on_c, 0, 58, 70
2, 13440, Note_off_c, 0, 58, 70
2, 16320, Pitch_bend_c, 1, 8192
2, 16320, Note_on_c, 1, 61, 95
2, 16440, Pitch_bend_c, 1, 8320
2, 16560, Pitch_bend_c, 1, 8448
2, 16560, Pitch_bend_c, 1, 8448
2, 16800, Pitch_bend_c, 1, 8448
2, 16800, Pitch_bend_c, 1, 8192
2, 16800, Note_off_c, 1, 61, 95
2, 16800, Pitch_bend_c, 1, 8192
2, 16800, Note_on_c, 1, 61, 95
2, 16920, Pitch_bend_c, 1, 8320
2, 17040, Pitch_bend_c, 1, 8448
2, 17040, Pitch_bend_c, 1, 8448
2, 17280, Pitch_bend_c, 1, 8448
2, 17280, Pitch_bend_c, 1, 8192
2, 17280, Note_off_c, 1, 61, 95
2, 17280, Pitch_bend_c, 1, 8192
2, 17280, Note_on_c, 1, 61, 95
2, 17400, Pitch_bend_c, 1, 8320
2, 17520, Pitch_bend_c, 1, 8448
2, 17520, Pitch_bend_c, 1, 8448
2, 17760, Pitch_bend_c, 1, 8448
2, 17760, Pitch_bend_c, 1, 8192
2, 17760, Note_off_c, 1, 61, 95
2, 17760, Note_on_c, 1, 58, 95
2, 18240, Note_off_c, 1, 58, 95
2, 19200, Note_on_c, 0, 63, 95
2, 19920, Note_off_c, 0, 63, 95
2, 19920, Note_on_c, 0, 61, 95
2, 20640, Note_off_c, 0, 61, 95
2, 20640, Note_on_c, 0, 58, 95
2, 20880, Note_off_c, 0, 58, 95
2, 20880, Note_on_c, 0, 56, 70
2, 21120, Note_off_c, 0, 56, 70
2, 21120, Note_on_c, 0, 54, 95
2, 21840, Note_off_c, 0, 54, 95
2, 21840, Note_on_c, 0, 56, 95
2, 22320, Note_off_c, 0, 56, 95
2, 22320, Note_on_c, 0, 54, 95
2, 22800, Note_off_c, 0, 54, 95
2, 22800, Note_on_c, 0, 51, 95
2, 23520, Note_off_c, 0, 51, 95
2, 23520, Note_on_c, 0, 39, 95
2, 26880, Note_off_c, 0, 39, 95
2, 26880, Note_on_c, 1, 61, 95
2, 27000, Pitch_bend_c, 1, 8832
2, 27120, Pitch_bend_c, 1, 9600
2, 27120, Pitch_bend_c, 1, 8192
2, 27120, Note_off_c, 1, 61, 95
2, 27120, Note_on_c, 0, 63, 95
2, 27600, Note_off_c, 0, 63, 95
2, 27840, Note_on_c, 0, 39, 95
2, 28800, Note_off_c, 0, 39, 95
2, 28800, Note_on_c, 1, 49, 95
2, 28920, Pitch_bend_c, 1, 8832
2, 29040, Pitch_bend_c, 1, 9600
2, 29040, Pitch_bend_c, 1, 8192
2, 29040, Note_off_c, 1, 49, 95
2, 29040, Note_on_c, 0, 51, 95
2, 29760, Note_off_c, 0, 51, 95
2, 29760, Note_on_c, 0, 39, 95
2, 30720, Note_off_c, 0, 39, 95
2, 30720, Note_on_c, 0, 49, 95
2, 32160, Note_off_c, 0, 49, 95
2, 32160, Note_on_c, 0, 39, 47
2, 32640, Note_off_c, 0, 39, 47
2, 32640, Pitch_bend_c, 1, 8192
2, 32640, Note_on_c, 1, 42, 95
2, 32736, Pitch_bend_c, 1, 8320
2, 32832, Pitch_bend_c, 1, 8448
2, 32928, Pitch_bend_c, 1, 8576
2, 33024, Pitch_bend_c, 1, 8704
2, 33120, Pitch_bend_c, 1, 8832
2, 33120, Pitch_bend_c, 1, 8832
2, 33600, Pitch_bend_c, 1, 8832
2, 33600, Pitch_bend_c, 1, 8192
2, 33600, Note_off_c, 1, 42, 95
2, 33600, Note_on_c, 0, 39, 95
2, 34560, Note_off_c, 0, 39, 95
2, 34560, Note_on_c, 0, 49, 95
2, 34800, Note_off_c, 0, 49, 95
2, 34800, Note_on_c, 0, 51, 70
2, 35520, Note_off_c, 0, 51, 70
2, 35520, Note_on_c, 0, 54, 95
2, 35760, Note_off_c, 0, 54, 95
2, 35760, Note_on_c, 0, 55, 70
2, 36480, Note_off_c, 0, 55, 70
2, 36480, Note_on_c, 0, 39, 95
2, 37440, Note_off_c, 0, 39, 95
2, 37440, Note_on_c, 0, 61, 95
2, 37680, Note_off_c, 0, 61, 95
2, 37680, Note_on_c, 0, 63, 70
2, 38400, Note_off_c, 0, 63, 70
2, 38400, Note_on_c, 0, 49, 95
2, 39840, Note_off_c, 0, 49, 95
2, 39840, Note_on_c, 0, 39, 47
2, 40320, Note_off_c, 0, 39, 47
2, 40320, Pitch_bend_c, 1, 8192
2, 40320, Note_on_c, 1, 42, 95
2, 40416, Pitch_bend_c, 1, 8320
2, 40512, Pitch_bend_c, 1, 8448
2, 40608, Pitch_bend_c, 1, 8576
2, 40704, Pitch_bend_c, 1, 8704
2, 40800, Pitch_bend_c, 1, 8832
2, 40800, Pitch_bend_c, 1, 8832
2, 41280, Pitch_bend_c, 1, 8832
2, 41280, Pitch_bend_c, 1, 8192
2, 41280, Note_off_c, 1, 42, 95
2, 41280, Note_on_c, 0, 39, 95
2, 42240, Note_off_c, 0, 39, 95
2, 42240, Note_on_c, 0, 49, 95
2, 42480, Note_off_c, 0, 49, 95
2, 42480, Note_on_c, 0, 51, 70
2, 42960, Note_off_c, 0, 51, 70
2, 43200, Note_on_c, 0, 39, 95
2, 44160, Note_off_c, 0, 39, 95
2, 44160, Note_on_c, 0, 54, 95
2, 44400, Note_off_c, 0, 54, 95
2, 44400, Note_on_c, 0, 55, 70
2, 45120, Note_off_c, 0, 55, 70
2, 45120, Note_on_c, 0, 39, 95
2, 46080, Note_off_c, 0, 39, 95
2, 46080, Note_on_c, 0, 49, 95
2, 47520, Note_off_c, 0, 49, 95
2, 47520, Note_on_c, 0, 39, 47
2, 48000, Note_off_c, 0, 39, 47
2, 48000, Pitch_bend_c, 1, 8192
2, 48000, Note_on_c, 1, 42, 95
2, 48096, Pitch_bend_c, 1, 8320
2, 48192, Pitch_bend_c, 1, 8448
2, 48288, Pitch_bend_c, 1, 8576
2, 48384, Pitch_bend_c, 1, 8704
2, 48480, Pitch_bend_c, 1, 8832
2, 48480, Pitch_bend_c, 1, 8832
2, 48960, Pitch_bend_c, 1, 8832
2, 48960, Pitch_bend_c, 1, 8192
2, 48960, Note_off_c, 1, 42, 95
2, 48960, Note_on_c, 0, 39, 95
2, 49920, Note_off_c, 0, 39, 95
2, 49920, Note_on_c, 0, 49, 95
2, 50160, Note_off_c, 0, 49, 95
2, 50160, Note_on_c, 0, 51, 70
2, 50880, Note_on_c, 0, 54, 95
2, 51120, Note_off_c, 0, 51, 70
2, 51120, Note_off_c, 0, 54, 95
2, 51120, Note_on_c, 0, 55, 70
2, 51840, Note_off_c, 0, 55, 70
2, 51840, Note_on_c, 0, 63, 95
2, 52800, Note_off_c, 0, 63, 95
2, 52800, Pitch_bend_c, 1, 8192
2, 52800, Note_on_c, 1, 61, 95
2, 52887, Pitch_bend_c, 1, 8320
2, 52974, Pitch_bend_c, 1, 8448
2, 53061, Pitch_bend_c, 1, 8576
2, 53148, Pitch_bend_c, 1, 8704
2, 53235, Pitch_bend_c, 1, 8832
2, 53322, Pitch_bend_c, 1, 8960
2, 53409, Pitch_bend_c, 1, 9088
2, 53496, Pitch_bend_c, 1, 9216
2, 53583, Pitch_bend_c, 1, 9344
2, 53670, Pitch_bend_c, 1, 9472
2, 53757, Pitch_bend_c, 1, 9600
2, 53760, Pitch_bend_c, 1, 9600
2, 53760, Pitch_bend_c, 1, 9600
2, 53760, Note_on_c, 1, 56, 95
2, 54400, Pitch_bend_c, 1, 9600
2, 54458, Pitch_bend_c, 1, 9472
2, 54516, Pitch_bend_c, 1, 9344
2, 54574, Pitch_bend_c, 1, 9216
2, 54632, Pitch_bend_c, 1, 9088
2, 54690, Pitch_bend_c, 1, 8960
2, 54720, Pitch_bend_c, 1, 9600
2, 54720, Pitch_bend_c, 1, 8192
2, 54720, Note_off_c, 1, 61, 95
2, 54720, Pitch_bend_c, 1, 8192
2, 54720, Note_on_c, 1, 61, 95
2, 54748, Pitch_bend_c, 1, 8832
2, 54763, Pitch_bend_c, 1, 8320
2, 54806, Pitch_bend_c, 1, 8704
2, 54806, Pitch_bend_c, 1, 8448
2, 54849, Pitch_bend_c, 1, 8576
2, 54864, Pitch_bend_c, 1, 8576
2, 54892, Pitch_bend_c, 1, 8704
2, 54922, Pitch_bend_c, 1, 8448
2, 54935, Pitch_bend_c, 1, 8832
2, 54978, Pitch_bend_c, 1, 8960
2, 54980, Pitch_bend_c, 1, 8320
2, 55021, Pitch_bend_c, 1, 9088
2, 55038, Pitch_bend_c, 1, 8192
2, 55040, Pitch_bend_c, 1, 8192
2, 55064, Pitch_bend_c, 1, 9216
2, 55107, Pitch_bend_c, 1, 9344
2, 55150, Pitch_bend_c, 1, 9472
2, 55193, Pitch_bend_c, 1, 9600
2, 55200, Pitch_bend_c, 1, 9600
2, 55680, Pitch_bend_c, 1, 8192
2, 55680, Pitch_bend_c, 1, 8192
2, 55680, Note_off_c, 1, 56, 95
2, 55680, Pitch_bend_c, 1, 9600
2, 55680, Pitch_bend_c, 1, 9600
2, 55680, Note_on_c, 1, 56, 95
2, 55723, Pitch_bend_c, 1, 9472
2, 55766, Pitch_bend_c, 1, 9344
2, 55809, Pitch_bend_c, 1, 9216
2, 55852, Pitch_bend_c, 1, 9088
2, 55895, Pitch_bend_c, 1, 8960
2, 55938, Pitch_bend_c, 1, 8832
2, 55981, Pitch_bend_c, 1, 8704
2, 56000, Pitch_bend_c, 1, 9600
2, 56024, Pitch_bend_c, 1, 8576
2, 56029, Pitch_bend_c, 1, 9472
2, 56058, Pitch_bend_c, 1, 9344
2, 56067, Pitch_bend_c, 1, 8448
2, 56087, Pitch_bend_c, 1, 9216
2, 56110, Pitch_bend_c, 1, 8320
2, 56116, Pitch_bend_c, 1, 9088
2, 56145, Pitch_bend_c, 1, 8960
2, 56153, Pitch_bend_c, 1, 8192
2, 56160, Pitch_bend_c, 1, 8192
2, 56174, Pitch_bend_c, 1, 8832
2, 56203, Pitch_bend_c, 1, 8704
2, 56232, Pitch_bend_c, 1, 8576
2, 56261, Pitch_bend_c, 1, 8448
2, 56290, Pitch_bend_c, 1, 8320
2, 56319, Pitch_bend_c, 1, 8192
2, 56320, Pitch_bend_c, 1, 8192
2, 56640, Pitch_bend_c, 1, 8192
2, 56640, Pitch_bend_c, 1, 8192
2, 56640, Note_off_c, 1, 61, 95
2, 56640, Pitch_bend_c, 1, 8192
2, 56640, Pitch_bend_c, 1, 8192
2, 56640, Note_off_c, 1, 56, 95
2, 56640, Pitch_bend_c, 1, 8192
2, 56640, Note_on_c, 1, 56, 95
2, 56654, Pitch_bend_c, 1, 8320
2, 56668, Pitch_bend_c, 1, 8448
2, 56682, Pitch_bend_c, 1, 8576
2, 56696, Pitch_bend_c, 1, 8704
2, 56710, Pitch_bend_c, 1, 8832
2, 56724, Pitch_bend_c, 1, 8960
2, 56738, Pitch_bend_c, 1, 9088
2, 56752, Pitch_bend_c, 1, 9216
2, 56766, Pitch_bend_c, 1, 9344
2, 56780, Pitch_bend_c, 1, 9472
2, 56794, Pitch_bend_c, 1, 9600
2, 56800, Pitch_bend_c, 1, 9600
2, 56960, Pitch_bend_c, 1, 9600
2, 56960, Pitch_bend_c, 1, 8192
2, 56960, Note_off_c, 1, 56, 95
2, 56960, Pitch_bend_c, 1, 9600
2, 56960, Note_on_c, 1, 56, 95
2, 57066, Pitch_bend_c, 1, 9600
2, 57075, Pitch_bend_c, 1, 9472
2, 57084, Pitch_bend_c, 1, 9344
2, 57093, Pitch_bend_c, 1, 9216
2, 57102, Pitch_bend_c, 1, 9088
2, 57111, Pitch_bend_c, 1, 8960
2, 57120, Pitch_bend_c, 1, 8832
2, 57129, Pitch_bend_c, 1, 8704
2, 57138, Pitch_bend_c, 1, 8576
2, 57147, Pitch_bend_c, 1, 8448
2, 57156, Pitch_bend_c, 1, 8320
2, 57165, Pitch_bend_c, 1, 8192
2, 57173, Pitch_bend_c, 1, 8192
2, 57280, Pitch_bend_c, 1, 8192
2, 57280, Pitch_bend_c, 1, 8192
2, 57280, Note_off_c, 1, 56, 95
2, 57280, Note_on_c, 0, 54, 95
2, 57600, Note_off_c, 0, 54, 95
2, 57600, Note_on_c, 0, 39, 95
2, 58560, Note_on_c, 0, 63, 95
2, 58560, Note_on_c, 0, 58, 95
2, 59520, Note_off_c, 0, 39, 95
2, 59520, Note_on_c, 1, 56, 95
2, 59640, Pitch_bend_c, 1, 8448
2, 59760, Pitch_bend_c, 1, 8832
2, 59880, Pitch_bend_c, 1, 9216
2, 60000, Note_off_c, 0, 63, 95
2, 60000, Note_off_c, 0, 58, 95
2, 60000, Pitch_bend_c, 1, 9600
2, 60000, Pitch_bend_c, 1, 8192
2, 60000, Note_off_c, 1, 56, 95
2, 60000, Note_on_c, 0, 58, 95
2, 60480, Note_off_c, 0, 58, 95
2, 60480, Note_on_c, 0, 61, 95
2, 60480, Note_on_c, 0, 58, 95
2, 61320, Note_on_c, 1, 54, 95
2, 61440, Note_off_c, 0, 61, 95
2, 61440, Note_off_c, 0, 58, 95
2, 61440, Note_off_c, 1, 54, 95
2, 61440, Note_on_c, 1, 56, 95
2, 62880, Note_off_c, 1, 56, 95
2, 62880, Note_on_c, 0, 61, 95
2, 63360, Note_off_c, 0, 61, 95
2, 63360, Note_on_c, 0, 54, 95
2, 64200, Note_on_c, 1, 49, 95
2, 64320, Note_off_c, 1, 49, 95
2, 64320, Note_on_c, 1, 51, 95
2, 65280, Note_off_c, 0, 54, 95
2, 65280, Note_on_c, 0, 39, 47
2, 66240, Note_off_c, 1, 51, 95
2, 66240, Note_off_c, 0, 39, 47
2, 66240, Note_on_c, 0, 63, 95
2, 66240, Note_on_c, 0, 58, 95
2, 67200, Note_on_c, 1, 56, 95
2, 67320, Pitch_bend_c, 1, 8448
2, 67440, Pitch_bend_c, 1, 8832
2, 67560, Pitch_bend_c, 1, 9216
2, 67680, Note_off_c, 0, 63, 95
2, 67680, Note_off_c, 0, 58, 95
2, 67680, Pitch_bend_c, 1, 9600
2, 67680, Pitch_bend_c, 1, 8192
2, 67680, Note_off_c, 1, 56, 95
2, 67680, Note_on_c, 0, 58, 95
2, 68160, Note_off_c, 0, 58, 95
2, 68160, Note_on_c, 0, 61, 95
2, 68160, Note_on_c, 0, 58, 95
2, 69000, Note_on_c, 1, 54, 95
2, 69120, Note_off_c, 0, 61, 95
2, 69120, Note_off_c, 0, 58, 95
2, 69120, Note_off_c, 1, 54, 95
2, 69120, Note_on_c, 1, 56, 95
2, 70560, Note_off_c, 1, 56, 95
2, 70560, Note_on_c, 0, 61, 95
2, 71040, Note_off_c, 0, 61, 95
2, 71040, Note_on_c, 0, 54, 95
2, 72000, Note_off_c, 0, 54, 95
2, 72000, Note_on_c, 0, 49, 95
2, 72240, Note_off_c, 0, 49, 95
2, 72240, Note_on_c, 0, 51, 95
2, 72480, Note_off_c, 0, 51, 95
2, 72480, Note_on_c, 0, 49, 95
2, 72720, Note_off_c, 0, 49, 95
2, 72720, Note_on_c, 0, 51, 95
2, 72960, Note_off_c, 0, 51, 95
2, 72960, Note_on_c, 0, 49, 95
2, 73200, Note_off_c, 0, 49, 95
2, 73200, Note_on_c, 0, 51, 95
2, 73440, Note_off_c, 0, 51, 95
2, 73440, Note_on_c, 0, 49, 95
2, 73680, Note_off_c, 0, 49, 95
2, 73680, Note_on_c, 0, 51, 95
2, 73920, Note_off_c, 0, 51, 95
2, 73920, Note_on_c, 0, 49, 95
2, 74160, Note_off_c, 0, 49, 95
2, 74160, Note_on_c, 0, 51, 95
2, 74400, Note_off_c, 0, 51, 95
2, 74400, Note_on_c, 0, 49, 95
2, 74640, Note_off_c, 0, 49, 95
2, 74640, Note_on_c, 0, 51, 95
2, 74880, Note_off_c, 0, 51, 95
2, 74880, Note_on_c, 0, 49, 95
2, 75120, Note_off_c, 0, 49, 95
2, 75120, Note_on_c, 0, 51, 95
2, 75360, Note_off_c, 0, 51, 95
2, 75360, Note_on_c, 0, 49, 95
2, 75600, Note_off_c, 0, 49, 95
2, 75600, Note_on_c, 0, 51, 95
2, 75840, Note_off_c, 0, 51, 95
2, 75840, Note_on_c, 0, 49, 95
2, 76080, Note_off_c, 0, 49, 95
2, 76080, Note_on_c, 0, 51, 95
2, 76320, Note_off_c, 0, 51, 95
2, 76320, Note_on_c, 0, 49, 95
2, 76560, Note_off_c, 0, 49, 95
2, 76560, Note_on_c, 0, 51, 95
2, 76800, Note_off_c, 0, 51, 95
2, 76800, Note_on_c, 0, 49, 95
2, 77040, Note_off_c, 0, 49, 95
2, 77040, Note_on_c, 0, 51, 95
2, 77280, Note_off_c, 0, 51, 95
2, 77280, Note_on_c, 0, 49, 95
2, 77520, Note_off_c, 0, 49, 95
2, 77520, Note_on_c, 0, 51, 95
2, 77760, Note_off_c, 0, 51, 95
2, 77760, Note_on_c, 0, 49, 95
2, 78000, Note_off_c, 0, 49, 95
2, 78000, Note_on_c, 0, 51, 95
2, 78240, Note_off_c, 0, 51, 95
2, 78240, Note_on_c, 0, 49, 95
2, 78480, Note_off_c, 0, 49, 95
2, 78480, Note_on_c, 0, 51, 95
2, 78720, Note_off_c, 0, 51, 95
2, 78720, Note_on_c, 0, 49, 95
2, 78960, Note_off_c, 0, 49, 95
2, 78960, Note_on_c, 0, 51, 95
2, 79200, Note_off_c, 0, 51, 95
2, 79200, Note_on_c, 0, 49, 95
2, 79439, Note_off_c, 0, 49, 95
2, 79560, Note_on_c, 1, 56, 95
2, 79680, Pitch_bend_c, 1, 8576
2, 79800, Pitch_bend_c, 1, 9088
2, 79920, Pitch_bend_c, 1, 9600
2, 79920, Pitch_bend_c, 1, 8192
2, 79920, Note_off_c, 1, 56, 95
2, 79920, Note_on_c, 0, 58, 95
2, 80280, Note_off_c, 0, 58, 95
2, 80280, Note_on_c, 0, 61, 95
2, 80640, Note_off_c, 0, 61, 95
2, 80640, Note_on_c, 0, 63, 95
2, 80640, Note_on_c, 0, 63, 70
2, 81000, Note_off_c, 0, 63, 95
2, 81000, Note_off_c, 0, 63, 70
2, 81000, Note_on_c, 0, 61, 95
2, 81360, Note_off_c, 0, 61, 95
2, 81360, Note_on_c, 0, 58, 70
2, 81600, Note_off_c, 0, 58, 70
2, 81600, Pitch_bend_c, 1, 8192
2, 81600, Note_on_c, 1, 56, 95
2, 81621, Pitch_bend_c, 1, 8320
2, 81642, Pitch_bend_c, 1, 8448
2, 81663, Pitch_bend_c, 1, 8576
2, 81684, Pitch_bend_c, 1, 8704
2, 81705, Pitch_bend_c, 1, 8832
2, 81726, Pitch_bend_c, 1, 8960
2, 81747, Pitch_bend_c, 1, 9088
2, 81768, Pitch_bend_c, 1, 9216
2, 81789, Pitch_bend_c, 1, 9344
2, 81810, Pitch_bend_c, 1, 9472
2, 81831, Pitch_bend_c, 1, 9600
2, 81840, Pitch_bend_c, 1, 9600
2, 82080, Pitch_bend_c, 1, 9600
2, 82320, Pitch_bend_c, 1, 9600
2, 82341, Pitch_bend_c, 1, 9472
2, 82362, Pitch_bend_c, 1, 9344
2, 82383, Pitch_bend_c, 1, 9216
2, 82404, Pitch_bend_c, 1, 9088
2, 82425, Pitch_bend_c, 1, 8960
2, 82446, Pitch_bend_c, 1, 8832
2, 82467, Pitch_bend_c, 1, 8704
2, 82488, Pitch_bend_c, 1, 8576
2, 82509, Pitch_bend_c, 1, 8448
2, 82530, Pitch_bend_c, 1, 8320
2, 82551, Pitch_bend_c, 1, 8192
2, 82560, Pitch_bend_c, 1, 8192
2, 82560, Pitch_bend_c, 1, 8192
2, 82560, Note_off_c, 1, 56, 95
2, 82560, Note_on_c, 0, 56, 95
2, 82800, Note_off_c, 0, 56, 95
2, 82800, Note_on_c, 0, 54, 70
2, 83040, Note_off_c, 0, 54, 70
2, 83040, Note_on_c, 0, 56, 95
2, 83520, Note_off_c, 0, 56, 95
2, 83520, Note_on_c, 0, 49, 95
2, 83760, Note_off_c, 0, 49, 95
2, 83760, Note_on_c, 0, 51, 95
2, 84000, Note_off_c, 0, 51, 95
2, 84000, Note_on_c, 0, 49, 95
2, 84240, Note_off_c, 0, 49, 95
2, 84240, Note_on_c, 0, 51, 95
2, 84240, Note_on_c, 0, 63, 95
2, 84479, Note_off_c, 0, 51, 95
2, 87360, Note_off_c, 0, 63, 95
2, 88320, Note_on_c, 0, 56, 95
2, 88800, Note_off_c, 0, 56, 95
2, 88800, Note_on_c, 0, 58, 95
2, 89280, Note_off_c, 0, 58, 95
2, 89280, Note_on_c, 1, 61, 95
2, 89400, Pitch_bend_c, 1, 8192
2, 89520, Pitch_bend_c, 1, 8192
2, 89640, Pitch_bend_c, 1, 8320
2, 89760, Pitch_bend_c, 1, 8320
2, 89880, Pitch_bend_c, 1, 8448
2, 90000, Pitch_bend_c, 1, 8448
2, 90120, Pitch_bend_c, 1, 8576
2, 90240, Pitch_bend_c, 1, 8576
2, 90360, Pitch_bend_c, 1, 8704
2, 90480, Pitch_bend_c, 1, 8704
2, 90600, Pitch_bend_c, 1, 8832
2, 90720, Pitch_bend_c, 1, 8832
2, 90840, Pitch_bend_c, 1, 8832
2, 90960, Pitch_bend_c, 1, 8960
2, 91080, Pitch_bend_c, 1, 8960
2, 91200, Pitch_bend_c, 1, 9088
2, 91320, Pitch_bend_c, 1, 9088
2, 91440, Pitch_bend_c, 1, 9216
2, 91560, Pitch_bend_c, 1, 9216
2, 91680, Pitch_bend_c, 1, 9344
2, 91800, Pitch_bend_c, 1, 9344
2, 91920, Pitch_bend_c, 1, 9472
2, 92040, Pitch_bend_c, 1, 9472
2, 92160, Pitch_bend_c, 1, 9600
2, 92160, Pitch_bend_c, 1, 8192
2, 92160, Note_off_c, 1, 61, 95
2, 92160, Note_on_c, 0, 63, 95
2, 94080, Note_off_c, 0, 63, 95
2, 94080, Note_on_c, 0, 66, 95
2, 94560, Note_off_c, 0, 66, 95
2, 94560, Note_on_c, 1, 63, 95
2, 94720, Pitch_bend_c, 1, 8192
2, 94880, Pitch_bend_c, 1, 8320
2, 95040, Pitch_bend_c, 1, 8192
2, 95200, Pitch_bend_c, 1, 8320
2, 95360, Pitch_bend_c, 1, 8192
2, 95520, Pitch_bend_c, 1, 8320
2, 95680, Pitch_bend_c, 1, 8192
2, 95840, Pitch_bend_c, 1, 8320
2, 96000, Pitch_bend_c, 1, 8192
2, 96000, Pitch_bend_c, 1, 8320
2, 96000, Pitch_bend_c, 1, 8192
2, 96000, Note_off_c, 1, 63, 95
2, 99840, Note_on_c, 0, 54, 95
2, 100080, Note_off_c, 0, 54, 95
2, 100080, Note_on_c, 0, 56, 70
2, 100320, Note_off_c, 0, 56, 70
2, 100320, Note_on_c, 0, 58, 70
2, 100560, Note_off_c, 0, 58, 70
2, 100560, Note_on_c, 0, 61, 95
2, 100800, Note_off_c, 0, 61, 95
2, 100800, Note_on_c, 0, 63, 95
2, 100800, Note_on_c, 0, 58, 95
2, 101760, Note_off_c, 0, 63, 95
2, 101760, Note_off_c, 0, 58, 95
2, 101760, Pitch_bend_c, 1, 8192
2, 101760, Note_on_c, 1, 61, 95
2, 101880, Pitch_bend_c, 1, 8320
2, 102000, Pitch_bend_c, 1, 8448
2, 102000, Pitch_bend_c, 1, 8448
2, 102240, Pitch_bend_c, 1, 8448
2, 102240, Pitch_bend_c, 1, 8192
2, 102240, Note_off_c, 1, 61, 95
2, 102240, Note_on_c, 0, 63, 95
2, 102720, Note_off_c, 0, 63, 95
2, 102720, Note_on_c, 0, 58, 95
2, 103040, Note_off_c, 0, 58, 95
2, 103040, Note_on_c, 0, 56, 70
2, 103360, Note_off_c, 0, 56, 70
2, 103360, Note_on_c, 0, 54, 70
2, 103680, Note_off_c, 0, 54, 70
2, 103680, Note_on_c, 0, 39, 95
2, 104640, Note_on_c, 0, 63, 95
2, 104640, Note_on_c, 0, 58, 95
2, 105600, Note_off_c, 0, 39, 95
2, 105600, Note_off_c, 0, 63, 95
2, 105600, Note_off_c, 0, 58, 95
2, 105600, Note_on_c, 0, 54, 95
2, 105840, Note_off_c, 0, 54, 95
2, 105840, Note_on_c, 0, 55, 95
2, 106080, Note_off_c, 0, 55, 95
2, 106080, Note_on_c, 0, 54, 95
2, 106320, Note_off_c, 0, 54, 95
2, 106320, Note_on_c, 0, 55, 95
2, 106560, Note_off_c, 0, 55, 95
2, 106560, Note_on_c, 0, 54, 95
2, 106560, Note_on_c, 0, 63, 95
2, 106560, Note_on_c, 0, 58, 95
2, 106800, Note_off_c, 0, 54, 95
2, 106800, Note_on_c, 0, 55, 95
2, 107040, Note_off_c, 0, 55, 95
2, 107040, Note_on_c, 0, 54, 95
2, 107280, Note_off_c, 0, 54, 95
2, 107280, Note_on_c, 0, 55, 95
2, 107519, Note_off_c, 0, 55, 95
2, 107520, Note_off_c, 0, 63, 95
2, 107520, Note_off_c, 0, 58, 95
2, 107520, Pitch_bend_c, 1, 8192
2, 107520, Note_on_c, 1, 61, 95
2, 107563, Pitch_bend_c, 1, 8320
2, 107606, Pitch_bend_c, 1, 8448
2, 107649, Pitch_bend_c, 1, 8576
2, 107692, Pitch_bend_c, 1, 8704
2, 107735, Pitch_bend_c, 1, 8832
2, 107778, Pitch_bend_c, 1, 8960
2, 107821, Pitch_bend_c, 1, 9088
2, 107864, Pitch_bend_c, 1, 9216
2, 107907, Pitch_bend_c, 1, 9344
2, 107950, Pitch_bend_c, 1, 9472
2, 107993, Pitch_bend_c, 1, 9600
2, 108000, Pitch_bend_c, 1, 9600
2, 108480, Pitch_bend_c, 1, 9600
2, 108480, Pitch_bend_c, 1, 8192
2, 108480, Note_off_c, 1, 61, 95
2, 108480, Pitch_bend_c, 1, 8192
2, 108480, Note_on_c, 1, 61, 95
2, 108523, Pitch_bend_c, 1, 8320
2, 108566, Pitch_bend_c, 1, 8448
2, 108609, Pitch_bend_c, 1, 8576
2, 108652, Pitch_bend_c, 1, 8704
2, 108695, Pitch_bend_c, 1, 8832
2, 108738, Pitch_bend_c, 1, 8960
2, 108781, Pitch_bend_c, 1, 9088
2, 108824, Pitch_bend_c, 1, 9216
2, 108867, Pitch_bend_c, 1, 9344
2, 108910, Pitch_bend_c, 1, 9472
2, 108953, Pitch_bend_c, 1, 9600
2, 108960, Pitch_bend_c, 1, 9600
2, 109440, Pitch_bend_c, 1, 9600
2, 109440, Pitch_bend_c, 1, 8192
2, 109440, Note_off_c, 1, 61, 95
2, 109440, Note_on_c, 0, 63, 95
2, 109440, Note_on_c, 1, 58, 95
2, 109600, Pitch_bend_c, 1, 7552
2, 109760, Pitch_bend_c, 1, 6784
2, 109760, Pitch_bend_c, 1, 8192
2, 109760, Note_off_c, 1, 58, 95
2, 109760, Note_on_c, 1, 56, 95
2, 109920, Pitch_bend_c, 1, 7552
2, 110080, Pitch_bend_c, 1, 6784
2, 110080, Pitch_bend_c, 1, 8192
2, 110080, Note_off_c, 1, 56, 95
2, 110080, Note_on_c, 0, 54, 95
2, 110400, Note_off_c, 0, 63, 95
2, 110400, Note_off_c, 0, 54, 95
2, 110400, Note_on_c, 0, 51, 95
2, 111360, Note_off_c, 0, 51, 95
2, 111360, Note_on_c, 0, 39, 95
2, 112320, Note_on_c, 0, 63, 95
2, 112320, Note_on_c, 0, 58, 95
2, 113280, Note_off_c, 0, 39, 95
2, 113280, Note_off_c, 0, 63, 95
2, 113280, Note_off_c, 0, 58, 95
2, 113280, Note_on_c, 0, 42, 95
2, 114120, Note_on_c, 1, 49, 95
2, 114240, Note_off_c, 0, 42, 95
2, 114240, Note_off_c, 1, 49, 95
2, 114240, Note_on_c, 1, 51, 95
2, 115080, Note_on_c, 1, 55, 95
2, 115080, Note_on_c, 1, 49, 95
2, 115080, Note_on_c, 1, 46, 95
2, 115200, Note_off_c, 1, 51, 95
2, 115200, Note_off_c, 1, 55, 95
2, 115200, Note_on_c, 1, 58, 95
2, 115200, Note_off_c, 1, 49, 95
2, 115200, Note_on_c, 1, 55, 95
2, 115200, Note_off_c, 1, 46, 95
2, 115200, Note_on_c, 1, 49, 95
2, 115680, Note_off_c, 1, 58, 95
2, 115680, Note_off_c, 1, 55, 95
2, 115680, Note_off_c, 1, 49, 95
2, 115680, Note_on_c, 1, 58, 95
2, 115680, Note_on_c, 1, 55, 95
2, 115680, Note_on_c, 1, 49, 95
2, 115800, Pitch_bend_c, 1, 7680
2, 115800, Pitch_bend_c, 1, 7552
2, 115800, Pitch_bend_c, 1, 7680
2, 115920, Pitch_bend_c, 1, 7168
2, 115920, Pitch_bend_c, 1, 6784
2, 115920, Pitch_bend_c, 1, 7168
2, 116040, Pitch_bend_c, 1, 6656
2, 116040, Pitch_bend_c, 1, 6144
2, 116040, Pitch_bend_c, 1, 6656
2, 116160, Pitch_bend_c, 1, 6144
2, 116160, Pitch_bend_c, 1, 8192
2, 116160, Note_off_c, 1, 58, 95
2, 116160, Pitch_bend_c, 1, 5376
2, 116160, Pitch_bend_c, 1, 8192
2, 116160, Note_off_c, 1, 55, 95
2, 116160, Pitch_bend_c, 1, 6144
2, 116160, Pitch_bend_c, 1, 8192
2, 116160, Note_off_c, 1, 49, 95
2, 116160, Note_on_c, 0, 55, 95
2, 116160, Note_on_c, 0, 51, 95
2, 116160, Note_on_c, 0, 46, 95
2, 116640, Note_off_c, 0, 55, 95
2, 116640, Note_off_c, 0, 51, 95
2, 116640, Note_off_c, 0, 46, 95
2, 116640, Note_on_c, 0, 55, 95
2, 116640, Note_on_c, 0, 51, 95
2, 116640, Note_on_c, 0, 46, 95
2, 117000, Note_on_c, 1, 55, 95
2, 117000, Note_on_c, 1, 51, 95
2, 117000, Note_on_c, 1, 46, 95
2, 117120, Note_off_c, 0, 55, 95
2, 117120, Note_off_c, 0, 51, 95
2, 117120, Note_off_c, 0, 46, 95
2, 117120, Note_off_c, 1, 55, 95
2, 117120, Note_on_c, 1, 58, 95
2, 117120, Note_off_c, 1, 51, 95
2, 117120, Note_on_c, 1, 55, 95
2, 117120, Note_off_c, 1, 46, 95
2, 117120, Note_on_c, 1, 49, 95
2, 117600, Note_off_c, 1, 58, 95
2, 117600, Note_off_c, 1, 55, 95
2, 117600, Note_off_c, 1, 49, 95
2, 117600, Note_on_c, 0, 58, 95
2, 117600, Note_on_c, 1, 55, 95
2, 117600, Note_on_c, 1, 49, 95
2, 117720, Pitch_bend_c, 1, 7552
2, 117720, Pitch_bend_c, 1, 7680
2, 117840, Pitch_bend_c, 1, 6784
2, 117840, Pitch_bend_c, 1, 7168
2, 117960, Pitch_bend_c, 1, 6144
2, 117960, Pitch_bend_c, 1, 6656
2, 118080, Note_off_c, 0, 58, 95
2, 118080, Pitch_bend_c, 1, 5376
2, 118080, Pitch_bend_c, 1, 8192
2, 118080, Note_off_c, 1, 55, 95
2, 118080, Pitch_bend_c, 1, 6144
2, 118080, Pitch_bend_c, 1, 8192
2, 118080, Note_off_c, 1, 49, 95
2, 118080, Note_on_c, 0, 51, 95
2, 118080, Note_on_c, 0, 46, 95
2, 118080, Note_on_c, 0, 39, 95
2, 119040, Note_off_c, 0, 51, 95
2, 119040, Note_off_c, 0, 46, 95
2, 119040, Note_off_c, 0, 39, 95
2, 119040, Note_on_c, 0, 63, 95
2, 119040, Note_on_c, 0, 58, 95
2, 120000, Note_off_c, 0, 63, 95
2, 120000, Note_off_c, 0, 58, 95
2, 120000, Note_on_c, 0, 42, 95
2, 120480, Note_off_c, 0, 42, 95
2, 120480, Note_on_c, 0, 43, 95
2, 120960, Note_off_c, 0, 43, 95
2, 120960, Note_on_c, 0, 44, 95
2, 121440, Note_off_c, 0, 44, 95
2, 121440, Note_on_c, 0, 45, 95
2, 121920, Note_off_c, 0, 45, 95
2, 121920, Note_on_c, 0, 46, 95
2, 122880, Note_off_c, 0, 46, 95
2, 122880, Note_on_c, 0, 46, 95
2, 123200, Note_off_c, 0, 46, 95
2, 123200, Note_on_c, 0, 44, 70
2, 123520, Note_off_c, 0, 44, 70
2, 123520, Note_on_c, 0, 42, 95
2, 123840, Note_off_c, 0, 42, 95
2, 123840, Note_on_c, 0, 39, 70
2, 124080, Pitch_bend_c, 1, 8192
2, 124080, Note_on_c, 1, 56, 95
2, 124143, Pitch_bend_c, 1, 8320
2, 124206, Pitch_bend_c, 1, 8448
2, 124269, Pitch_bend_c, 1, 8576
2, 124332, Pitch_bend_c, 1, 8704
2, 124395, Pitch_bend_c, 1, 8832
2, 124458, Pitch_bend_c, 1, 8960
2, 124521, Pitch_bend_c, 1, 9088
2, 124584, Pitch_bend_c, 1, 9216
2, 124647, Pitch_bend_c, 1, 9344
2, 124710, Pitch_bend_c, 1, 9472
2, 124773, Pitch_bend_c, 1, 9600
2, 124780, Pitch_bend_c, 1, 9600
2, 125480, Pitch_bend_c, 1, 9600
2, 125543, Pitch_bend_c, 1, 9472
2, 125606, Pitch_bend_c, 1, 9344
2, 125669, Pitch_bend_c, 1, 9216
2, 125732, Pitch_bend_c, 1, 9088
2, 125795, Pitch_bend_c, 1, 8960
2, 125858, Pitch_bend_c, 1, 8832
2, 125921, Pitch_bend_c, 1, 8704
2, 125984, Pitch_bend_c, 1, 8576
2, 126000, Note_off_c, 0, 39, 70
2, 126047, Pitch_bend_c, 1, 8448
2, 126110, Pitch_bend_c, 1, 8320
2, 126173, Pitch_bend_c, 1, 8192
2, 126180, Pitch_bend_c, 1, 8192
2, 126880, Pitch_bend_c, 1, 8192
2, 126943, Pitch_bend_c, 1, 8320
2, 127006, Pitch_bend_c, 1, 8448
2, 127069, Pitch_bend_c, 1, 8576
2, 127132, Pitch_bend_c, 1, 8704
2, 127195, Pitch_bend_c, 1, 8832
2, 127258, Pitch_bend_c, 1, 8960
2, 127321, Pitch_bend_c, 1, 9088
2, 127384, Pitch_bend_c, 1, 9216
2, 127447, Pitch_bend_c, 1, 9344
2, 127510, Pitch_bend_c, 1, 9472
2, 127573, Pitch_bend_c, 1, 9600
2, 127580, Pitch_bend_c, 1, 9600
2, 128280, Pitch_bend_c, 1, 9600
2, 129680, Pitch_bend_c, 1, 9600
2, 129870, Pitch_bend_c, 1, 9472
2, 130060, Pitch_bend_c, 1, 9344
2, 130250, Pitch_bend_c, 1, 9216
2, 130440, Pitch_bend_c, 1, 9088
2, 130630, Pitch_bend_c, 1, 8960
2, 130820, Pitch_bend_c, 1, 8832
2, 131010, Pitch_bend_c, 1, 8704
2, 131200, Pitch_bend_c, 1, 8576
2, 131390, Pitch_bend_c, 1, 8448
2, 131580, Pitch_bend_c, 1, 8320
2, 131770, Pitch_bend_c, 1, 8192
2, 131780, Pitch_bend_c, 1, 8192
2, 132480, Pitch_bend_c, 1, 8192
2, 132480, Pitch_bend_c, 1, 8192
2, 132480, Note_off_c, 1, 56, 95
2, 132480, Note_on_c, 0, 58, 95
2, 132480, Pitch_bend_c, 1, 8192
2, 132480, Note_on_c, 1, 56, 95
2, 132512, Pitch_bend_c, 1, 8320
2, 132544, Pitch_bend_c, 1, 8448
2, 132576, Pitch_bend_c, 1, 8576
2, 132608, Pitch_bend_c, 1, 8704
2, 132640, Pitch_bend_c, 1, 8832
2, 132672, Pitch_bend_c, 1, 8960
2, 132704, Pitch_bend_c, 1, 9088
2, 132736, Pitch_bend_c, 1, 9216
2, 132768, Pitch_bend_c, 1, 9344
2, 132800, Pitch_bend_c, 1, 9472
2, 132832, Pitch_bend_c, 1, 9600
2, 132840, Pitch_bend_c, 1, 9600
2, 133200, Pitch_bend_c, 1, 9600
2, 133200, Pitch_bend_c, 1, 8192
2, 133200, Note_off_c, 1, 56, 95
2, 133200, Note_on_c, 0, 54, 95
2, 133440, Note_off_c, 0, 58, 95
2, 133440, Note_off_c, 0, 54, 95
2, 133440, Note_on_c, 0, 55, 70
2, 133760, Note_off_c, 0, 55, 70
2, 133760, Note_on_c, 0, 54, 70
2, 134080, Note_off_c, 0, 54, 70
2, 134080, Pitch_bend_c, 1, 8192
2, 134080, Note_on_c, 1, 42, 95
2, 134160, Pitch_bend_c, 1, 8320
2, 134240, Pitch_bend_c, 1, 8448
2, 134240, Pitch_bend_c, 1, 8448
2, 134400, Pitch_bend_c, 1, 8448
2, 134400, Pitch_bend_c, 1, 8192
2, 134400, Note_off_c, 1, 42, 95
2, 134400, Note_on_c, 0, 39, 95
2, 136840, Note_on_c, 1, 49, 95
2, 136960, Note_off_c, 1, 49, 95
2, 136960, Note_on_c, 1, 51, 95
2, 137480, Note_on_c, 1, 49, 95
2, 137600, Note_off_c, 0, 39, 95
2, 137600, Note_off_c, 1, 51, 95
2, 137600, Note_off_c, 1, 49, 95
2, 137600, Note_on_c, 1, 51, 95
2, 138240, Note_off_c, 1, 51, 95
2, 138240, Note_on_c, 0, 49, 95
2, 140160, Note_off_c, 0, 49, 95
2, 140160, Pitch_bend_c, 1, 8192
2, 140160, Note_on_c, 1, 42, 95
2, 140400, Pitch_bend_c, 1, 8320
2, 140640, Pitch_bend_c, 1, 8448
2, 140640, Pitch_bend_c, 1, 8448
2, 141120, Pitch_bend_c, 1, 8448
2, 141120, Pitch_bend_c, 1, 8192
2, 141120, Note_off_c, 1, 42, 95
2, 141120, Note_on_c, 0, 39, 95
2, 141960, Note_on_c, 1, 54, 95
2, 141960, Note_on_c, 1, 49, 95
2, 142080, Note_on_c, 0, 63, 95
2, 142080, Note_on_c, 0, 58, 95
2, 142080, Note_off_c, 1, 54, 95
2, 142080, Note_on_c, 1, 55, 95
2, 142080, Note_off_c, 1, 49, 95
2, 142080, Note_on_c, 1, 51, 95
2, 144000, Note_off_c, 0, 39, 95
2, 144000, Note_off_c, 0, 63, 95
2, 144000, Note_off_c, 0, 58, 95
2, 144000, Note_off_c, 1, 55, 95
2, 144000, Note_off_c, 1, 51, 95
2, 144000, Note_on_c, 0, 56, 95
2, 144320, Note_off_c, 0, 56, 95
2, 144320, Note_on_c, 0, 58, 70
2, 144640, Note_off_c, 0, 58, 70
2, 144640, Note_on_c, 0, 61, 95
2, 144640, Note_on_c, 0, 58, 95
2, 145280, Note_off_c, 0, 61, 95
2, 145280, Note_off_c, 0, 58, 95
2, 145280, Pitch_bend_c, 1, 8192
2, 145280, Note_on_c, 1, 61, 95
2, 145309, Pitch_bend_c, 1, 8320
2, 145338, Pitch_bend_c, 1, 8448
2, 145367, Pitch_bend_c, 1, 8576
2, 145396, Pitch_bend_c, 1, 8704
2, 145425, Pitch_bend_c, 1, 8832
2, 145454, Pitch_bend_c, 1, 8960
2, 145483, Pitch_bend_c, 1, 9088
2, 145512, Pitch_bend_c, 1, 9216
2, 145541, Pitch_bend_c, 1, 9344
2, 145570, Pitch_bend_c, 1, 9472
2, 145599, Pitch_bend_c, 1, 9600
2, 145600, Pitch_bend_c, 1, 9600
2, 145920, Pitch_bend_c, 1, 9600
2, 145920, Pitch_bend_c, 1, 8192
2, 145920, Note_off_c, 1, 61, 95
2, 145920, Note_on_c, 0, 61, 95
2, 148320, Note_off_c, 0, 61, 95
2, 148320, Note_on_c, 0, 58, 95
2, 148320, Pitch_bend_c, 1, 8192
2, 148320, Note_on_c, 1, 56, 95
2, 148330, Pitch_bend_c, 1, 8320
2, 148340, Pitch_bend_c, 1, 8448
2, 148350, Pitch_bend_c, 1, 8576
2, 148360, Pitch_bend_c, 1, 8704
2, 148370, Pitch_bend_c, 1, 8832
2, 148380, Pitch_bend_c, 1, 8960
2, 148390, Pitch_bend_c, 1, 9088
2, 148400, Pitch_bend_c, 1, 9216
2, 148410, Pitch_bend_c, 1, 9344
2, 148420, Pitch_bend_c, 1, 9472
2, 148430, Pitch_bend_c, 1, 9600
2, 148440, Pitch_bend_c, 1, 9600
2, 148560, Pitch_bend_c, 1, 9600
2, 148570, Pitch_bend_c, 1, 9472
2, 148580, Pitch_bend_c, 1, 9344
2, 148590, Pitch_bend_c, 1, 9216
2, 148600, Pitch_bend_c, 1, 9088
2, 148610, Pitch_bend_c, 1, 8960
2, 148620, Pitch_bend_c, 1, 8832
2, 148630, Pitch_bend_c, 1, 8704
2, 148640, Pitch_bend_c, 1, 8576
2, 148650, Pitch_bend_c, 1, 8448
2, 148660, Pitch_bend_c, 1, 8320
2, 148670, Pitch_bend_c, 1, 8192
2, 148680, Pitch_bend_c, 1, 8192
2, 148800, Pitch_bend_c, 1, 8192
2, 148800, Pitch_bend_c, 1, 8192
2, 148800, Note_off_c, 1, 56, 95
2, 148800, Note_on_c, 0, 56, 95
2, 149280, Note_off_c, 0, 58, 95
2, 149280, Note_off_c, 0, 56, 95
2, 149280, Note_on_c, 0, 54, 70
2, 149760, Note_off_c, 0, 54, 70
2, 149760, Note_on_c, 0, 67, 95
2, 149760, Note_on_c, 0, 61, 95
2, 149760, Note_on_c, 0, 58, 95
2, 151680, Note_off_c, 0, 67, 95
2, 151680, Note_off_c, 0, 61, 95
2, 151680, Note_off_c, 0, 58, 95
2, 151680, Note_on_c, 0, 58, 95
2, 151680, Note_on_c, 1, 58, 95
2, 151680, Note_on_c, 1, 55, 95
2, 151680, Note_on_c, 1, 49, 95
2, 151800, Pitch_bend_c, 1, 8192
2, 151800, Pitch_bend_c, 1, 8192
2, 151800, Pitch_bend_c, 1, 8192
2, 151920, Pitch_bend_c, 1, 8192
2, 151920, Pitch_bend_c, 1, 8192
2, 151920, Pitch_bend_c, 1, 8192
2, 152040, Pitch_bend_c, 1, 8192
2, 152040, Pitch_bend_c, 1, 8192
2, 152040, Pitch_bend_c, 1, 8192
2, 152160, Note_off_c, 0, 58, 95
2, 152160, Pitch_bend_c, 1, 8192
2, 152160, Pitch_bend_c, 1, 8192
2, 152160, Note_off_c, 1, 58, 95
2, 152160, Pitch_bend_c, 1, 8192
2, 152160, Pitch_bend_c, 1, 8192
2, 152160, Note_off_c, 1, 55, 95
2, 152160, Pitch_bend_c, 1, 8192
2, 152160, Pitch_bend_c, 1, 8192
2, 152160, Note_off_c, 1, 49, 95
2, 152160, Note_on_c, 0, 58, 95
2, 152160, Note_on_c, 0, 58, 95
2, 152160, Note_on_c, 0, 55, 95
2, 152160, Note_on_c, 0, 49, 95
2, 152640, Note_off_c, 0, 58, 95
2, 152640, Note_off_c, 0, 58, 95
2, 152640, Note_off_c, 0, 55, 95
2, 152640, Note_off_c, 0, 49, 95
2, 152640, Note_on_c, 0, 58, 95
2, 152640, Note_on_c, 0, 58, 95
2, 152640, Note_on_c, 0, 55, 95
2, 152640, Note_on_c, 0, 49, 95
2, 153120, Note_off_c, 0, 58, 95
2, 153120, Note_off_c, 0, 58, 95
2, 153120, Note_off_c, 0, 55, 95
2, 153120, Note_off_c, 0, 49, 95
2, 153120, Note_on_c, 0, 58, 95
2, 153120, Note_on_c, 1, 58, 95
2, 153120, Note_on_c, 1, 55, 95
2, 153120, Note_on_c, 1, 49, 95
2, 153240, Pitch_bend_c, 1, 7936
2, 153240, Pitch_bend_c, 1, 7552
2, 153240, Pitch_bend_c, 1, 8064
2, 153360, Pitch_bend_c, 1, 7552
2, 153360, Pitch_bend_c, 1, 6784
2, 153360, Pitch_bend_c, 1, 7936
2, 153480, Pitch_bend_c, 1, 7168
2, 153480, Pitch_bend_c, 1, 6144
2, 153480, Pitch_bend_c, 1, 7680
2, 153600, Note_off_c, 0, 58, 95
2, 153600, Pitch_bend_c, 1, 6784
2, 153600, Pitch_bend_c, 1, 8192
2, 153600, Note_off_c, 1, 58, 95
2, 153600, Pitch_bend_c, 1, 5376
2, 153600, Pitch_bend_c, 1, 8192
2, 153600, Note_off_c, 1, 55, 95
2, 153600, Pitch_bend_c, 1, 7552
2, 153600, Pitch_bend_c, 1, 8192
2, 153600, Note_off_c, 1, 49, 95
2, 153600, Note_on_c, 0, 56, 95
2, 153600, Note_on_c, 0, 51, 95
2, 153600, Note_on_c, 0, 48, 95
2, 154560, Note_off_c, 0, 56, 95
2, 154560, Note_off_c, 0, 51, 95
2, 154560, Note_off_c, 0, 48, 95
2, 154560, Note_on_c, 0, 56, 95
2, 154560, Note_on_c, 0, 51, 95
2, 154560, Note_on_c, 0, 48, 95
2, 155520, Note_off_c, 0, 56, 95
2, 155520, Note_off_c, 0, 51, 95
2, 155520, Note_off_c, 0, 48, 95
2, 155520, Note_on_c, 0, 60, 95
2, 155520, Note_on_c, 0, 54, 95
2, 156480, Note_off_c, 0, 60, 95
2, 156480, Note_off_c, 0, 54, 95
2, 156480, Note_on_c, 1, 60, 95
2, 156480, Note_on_c, 1, 56, 95
2, 157440, Note_off_c, 1, 60, 95
2, 157440, Note_off_c, 1, 56, 95
2, 157440, Note_on_c, 0, 39, 95
2, 158400, Note_off_c, 0, 39, 95
2, 158400, Note_on_c, 0, 63, 95
2, 158400, Note_on_c, 0, 58, 95
2, 164160, Note_off_c, 0, 63, 95
2, 164160, Note_off_c, 0, 58, 95
2, 164160, Note_on_c, 1, 58, 95
2, 164160, Note_on_c, 1, 55, 95
2, 164160, Note_on_c, 1, 49, 95
2, 165120, Note_off_c, 1, 58, 95
2, 165120, Note_off_c, 1, 55, 95
2, 165120, Note_off_c, 1, 49, 95
2, 165120, Note_on_c, 0, 39, 95
2, 166080, Note_off_c, 0, 39, 95
2, 166080, Note_on_c, 0, 63, 95
2, 166080, Note_on_c, 0, 58, 95
2, 167040, Note_off_c, 0, 63, 95
2, 167040, Note_off_c, 0, 58, 95
2, 167040, Note_on_c, 1, 46, 95
2, 167160, Pitch_bend_c, 1, 8960
2, 167280, Pitch_bend_c, 1, 9856
2, 167400, Pitch_bend_c, 1, 10752
2, 167520, Pitch_bend_c, 1, 11648
2, 167520, Pitch_bend_c, 1, 8192
2, 167520, Note_off_c, 1, 46, 95
2, 167520, Note_on_c, 0, 51, 95
2, 168000, Note_off_c, 0, 51, 95
2, 168000, Note_on_c, 0, 58, 95
2, 168000, Note_on_c, 0, 61, 95
2, 168480, Note_off_c, 0, 58, 95
2, 168480, Note_off_c, 0, 61, 95
2, 168480, Note_on_c, 1, 61, 95
2, 168480, Note_on_c, 1, 51, 95
2, 168600, Pitch_bend_c, 1, 7168
2, 168600, Pitch_bend_c, 1, 7424
2, 168720, Pitch_bend_c, 1, 6144
2, 168720, Pitch_bend_c, 1, 6528
2, 168840, Pitch_bend_c, 1, 5120
2, 168840, Pitch_bend_c, 1, 5632
2, 168960, Pitch_bend_c, 1, 3968
2, 168960, Pitch_bend_c, 1, 8192
2, 168960, Note_off_c, 1, 61, 95
2, 168960, Pitch_bend_c, 1, 4736
2, 168960, Pitch_bend_c, 1, 8192
2, 168960, Note_off_c, 1, 51, 95
2, 168960, Note_on_c, 0, 55, 95
2, 168960, Note_on_c, 0, 46, 95
2, 169920, Note_off_c, 0, 55, 95
2, 169920, Note_off_c, 0, 46, 95
2, 169920, Note_on_c, 0, 58, 95
2, 169920, Note_on_c, 0, 55, 95
2, 170400, Note_off_c, 0, 58, 95
2, 170400, Note_off_c, 0, 55, 95
2, 170400, Note_on_c, 0, 58, 95
2, 170400, Note_on_c, 0, 55, 95
2, 170880, Note_off_c, 0, 58, 95
2, 170880, Note_off_c, 0, 55, 95
2, 170880, Note_on_c, 1, 49, 95
2, 171000, Pitch_bend_c, 1, 8192
2, 171120, Pitch_bend_c, 1, 8192
2, 171240, Pitch_bend_c, 1, 8192
2, 171360, Pitch_bend_c, 1, 8192
2, 171480, Pitch_bend_c, 1, 8192
2, 171600, Pitch_bend_c, 1, 8192
2, 171720, Pitch_bend_c, 1, 8192
2, 171840, Pitch_bend_c, 1, 8192
2, 171840, Pitch_bend_c, 1, 8192
2, 171840, Note_on_c, 0, 58, 95
2, 171840, Note_on_c, 0, 58, 95
2, 171840, Note_on_c, 0, 49, 95
2, 172800, Note_off_c, 1, 49, 95
2, 172800, Note_off_c, 0, 58, 95
2, 172800, Note_off_c, 0, 58, 95
2, 172800, Note_off_c, 0, 49, 95
2, 172800, Note_on_c, 0, 39, 95
2, 173760, Note_on_c, 0, 63, 95
2, 173760, Note_on_c, 0, 58, 95
2, 175680, Note_off_c, 0, 39, 95
2, 176040, Note_on_c, 1, 54, 95
2, 176160, Note_off_c, 0, 63, 95
2, 176160, Note_off_c, 0, 58, 95
2, 176160, Note_off_c, 1, 54, 95
2, 176160, Pitch_bend_c, 1, 8192
2, 176160, Note_on_c, 1, 56, 95
2, 176269, Pitch_bend_c, 1, 8320
2, 176378, Pitch_bend_c, 1, 8448
2, 176487, Pitch_bend_c, 1, 8576
2, 176596, Pitch_bend_c, 1, 8704
2, 176705, Pitch_bend_c, 1, 8832
2, 176814, Pitch_bend_c, 1, 8960
2, 176923, Pitch_bend_c, 1, 9088
2, 177032, Pitch_bend_c, 1, 9216
2, 177141, Pitch_bend_c, 1, 9344
2, 177250, Pitch_bend_c, 1, 9472
2, 177359, Pitch_bend_c, 1, 9600
2, 177360, Pitch_bend_c, 1, 9600
2, 178440, Note_on_c, 1, 54, 95
2, 178560, Pitch_bend_c, 1, 9600
2, 178560, Pitch_bend_c, 1, 8192
2, 178560, Note_off_c, 1, 56, 95
2, 178560, Note_off_c, 1, 54, 95
2, 178560, Pitch_bend_c, 1, 8192
2, 178560, Note_on_c, 1, 56, 95
2, 178647, Pitch_bend_c, 1, 8320
2, 178734, Pitch_bend_c, 1, 8448
2, 178821, Pitch_bend_c, 1, 8576
2, 178908, Pitch_bend_c, 1, 8704
2, 178995, Pitch_bend_c, 1, 8832
2, 179082, Pitch_bend_c, 1, 8960
2, 179169, Pitch_bend_c, 1, 9088
2, 179256, Pitch_bend_c, 1, 9216
2, 179343, Pitch_bend_c, 1, 9344
2, 179430, Pitch_bend_c, 1, 9472
2, 179517, Pitch_bend_c, 1, 9600
2, 179520, Pitch_bend_c, 1, 9600
2, 180480, Pitch_bend_c, 1, 9600
2, 180480, Pitch_bend_c, 1, 8192
2, 180480, Note_off_c, 1, 56, 95
2, 180480, Note_on_c, 1, 56, 95
2, 180600, Pitch_bend_c, 1, 8832
2, 180720, Pitch_bend_c, 1, 9600
2, 180720, Pitch_bend_c, 1, 8192
2, 180720, Note_off_c, 1, 56, 95
2, 180720, Note_on_c, 0, 58, 95
2, 180960, Note_off_c, 0, 58, 95
2, 180960, Pitch_bend_c, 1, 8192
2, 180960, Note_on_c, 1, 61, 95
2, 181020, Pitch_bend_c, 1, 8320
2, 181080, Pitch_bend_c, 1, 8448
2, 181080, Pitch_bend_c, 1, 8448
2, 181200, Pitch_bend_c, 1, 8448
2, 181200, Pitch_bend_c, 1, 8192
2, 181200, Note_off_c, 1, 61, 95
2, 181200, Note_on_c, 0, 56, 95
2, 181440, Note_off_c, 0, 56, 95
2, 181440, Note_on_c, 0, 54, 70
2, 181680, Note_off_c, 0, 54, 70
2, 181680, Note_on_c, 0, 51, 95
2, 182160, Note_off_c, 0, 51, 95
2, 183360, Note_on_c, 0, 54, 95
2, 183600, Note_off_c, 0, 54, 95
2, 183600, Note_on_c, 0, 58, 70
2, 183840, Note_off_c, 0, 58, 70
2, 183840, Note_on_c, 0, 56, 70
2, 184080, Note_off_c, 0, 56, 70
2, 184080, Note_on_c, 0, 54, 70
2, 184320, Note_off_c, 0, 54, 70
2, 184320, Note_on_c, 0, 58, 95
2, 184640, Note_off_c, 0, 58, 95
2, 184640, Note_on_c, 0, 56, 70
2, 184960, Note_off_c, 0, 56, 70
2, 184960, Note_on_c, 0, 54, 70
2, 185280, Note_off_c, 0, 54, 70
2, 185280, Note_on_c, 0, 58, 95
2, 185520, Note_off_c, 0, 58, 95
2, 185520, Note_on_c, 0, 56, 70
2, 185760, Note_off_c, 0, 56, 70
2, 185760, Note_on_c, 0, 54, 70
2, 186000, Note_off_c, 0, 54, 70
2, 186000, Note_on_c, 0, 58, 95
2, 186160, Note_off_c, 0, 58, 95
2, 186160, Note_on_c, 0, 56, 70
2, 186320, Note_off_c, 0, 56, 70
2, 186320, Note_on_c, 0, 54, 70
2, 186480, Note_off_c, 0, 54, 70
2, 186480, Note_on_c, 0, 58, 95
2, 186720, Note_off_c, 0, 58, 95
2, 186720, Note_on_c, 0, 56, 70
2, 186960, Note_off_c, 0, 56, 70
2, 186960, Note_on_c, 0, 54, 70
2, 187200, Note_off_c, 0, 54, 70
2, 187200, Note_on_c, 0, 58, 95
2, 187440, Note_off_c, 0, 58, 95
2, 187440, Note_on_c, 0, 56, 70
2, 187680, Note_off_c, 0, 56, 70
2, 187680, Note_on_c, 0, 54, 70
2, 187920, Note_off_c, 0, 54, 70
2, 187920, Note_on_c, 0, 58, 95
2, 188160, Note_off_c, 0, 58, 95
2, 188160, Note_on_c, 0, 56, 70
2, 188400, Note_off_c, 0, 56, 70
2, 188400, Note_on_c, 0, 54, 70
2, 188640, Note_off_c, 0, 54, 70
2, 188640, Note_on_c, 0, 58, 95
2, 188880, Note_off_c, 0, 58, 95
2, 188880, Note_on_c, 0, 56, 70
2, 189120, Note_off_c, 0, 56, 70
2, 189120, Note_on_c, 0, 54, 70
2, 189360, Note_off_c, 0, 54, 70
2, 189360, Note_on_c, 0, 58, 95
2, 189480, Note_off_c, 0, 58, 95
2, 189480, Note_on_c, 0, 56, 70
2, 189600, Note_off_c, 0, 56, 70
2, 189600, Note_on_c, 0, 54, 70
2, 189720, Note_off_c, 0, 54, 70
2, 189720, Note_on_c, 0, 58, 95
2, 189840, Note_off_c, 0, 58, 95
2, 189840, Note_on_c, 0, 56, 70
2, 189960, Note_off_c, 0, 56, 70
2, 189960, Note_on_c, 0, 54, 70
2, 190080, Note_off_c, 0, 54, 70
2, 190080, Note_on_c, 0, 58, 95
2, 190200, Note_off_c, 0, 58, 95
2, 190200, Note_on_c, 0, 56, 70
2, 190320, Note_off_c, 0, 56, 70
2, 190320, Note_on_c, 0, 54, 70
2, 190440, Note_off_c, 0, 54, 70
2, 190440, Note_on_c, 0, 58, 95
2, 190560, Note_off_c, 0, 58, 95
2, 190560, Note_on_c, 0, 56, 70
2, 190680, Note_off_c, 0, 56, 70
2, 190680, Note_on_c, 0, 54, 70
2, 191040, Note_off_c, 0, 54, 70
2, 191040, Note_on_c, 1, 56, 95
2, 191160, Pitch_bend_c, 1, 8448
2, 191280, Pitch_bend_c, 1, 8832
2, 191400, Pitch_bend_c, 1, 9216
2, 191520, Pitch_bend_c, 1, 9600
2, 191520, Pitch_bend_c, 1, 8192
2, 191520, Note_off_c, 1, 56, 95
2, 191520, Note_on_c, 1, 58, 95
2, 191640, Pitch_bend_c, 1, 8704
2, 191760, Pitch_bend_c, 1, 9216
2, 191880, Pitch_bend_c, 1, 9728
2, 192000, Pitch_bend_c, 1, 10240
2, 192000, Pitch_bend_c, 1, 8192
2, 192000, Note_off_c, 1, 58, 95
2, 192000, Note_on_c, 1, 61, 95
2, 192120, Pitch_bend_c, 1, 8192
2, 192240, Pitch_bend_c, 1, 8320
2, 192360, Pitch_bend_c, 1, 8448
2, 192480, Pitch_bend_c, 1, 8448
2, 192600, Pitch_bend_c, 1, 8576
2, 192720, Pitch_bend_c, 1, 8704
2, 192840, Pitch_bend_c, 1, 8704
2, 192960, Pitch_bend_c, 1, 8832
2, 193080, Pitch_bend_c, 1, 8960
2, 193200, Pitch_bend_c, 1, 8960
2, 193320, Pitch_bend_c, 1, 9088
2, 193440, Pitch_bend_c, 1, 9216
2, 193560, Pitch_bend_c, 1, 9216
2, 193680, Pitch_bend_c, 1, 9344
2, 193800, Pitch_bend_c, 1, 9472
2, 193920, Pitch_bend_c, 1, 9600
2, 193920, Pitch_bend_c, 1, 8192
2, 193920, Note_off_c, 1, 61, 95
2, 193920, Note_on_c, 1, 63, 95
2, 194040, Pitch_bend_c, 1, 8448
2, 194160, Pitch_bend_c, 1, 8704
2, 194280, Pitch_bend_c, 1, 8960
2, 194400, Pitch_bend_c, 1, 9216
2, 194520, Pitch_bend_c, 1, 9472
2, 194640, Pitch_bend_c, 1, 9728
2, 194760, Pitch_bend_c, 1, 9984
2, 194880, Pitch_bend_c, 1, 10240
2, 194880, Pitch_bend_c, 1, 8192
2, 194880, Note_off_c, 1, 63, 95
2, 194880, Note_on_c, 1, 66, 95
2, 195000, Pitch_bend_c, 1, 7680
2, 195120, Pitch_bend_c, 1, 7168
2, 195240, Pitch_bend_c, 1, 6656
2, 195360, Pitch_bend_c, 1, 6144
2, 195360, Pitch_bend_c, 1, 8192
2, 195360, Note_off_c, 1, 66, 95
2, 195360, Note_on_c, 1, 63, 95
2, 195480, Pitch_bend_c, 1, 8960
2, 195600, Pitch_bend_c, 1, 9856
2, 195720, Pitch_bend_c, 1, 10752
2, 195840, Pitch_bend_c, 1, 11648
2, 195840, Pitch_bend_c, 1, 8192
2, 195840, Note_off_c, 1, 63, 95
2, 195840, Pitch_bend_c, 1, 8192
2, 195840, Note_on_c, 1, 68, 95
2, 196032, Pitch_bend_c, 1, 8320
2, 196224, Pitch_bend_c, 1, 8448
2, 196416, Pitch_bend_c, 1, 8576
2, 196608, Pitch_bend_c, 1, 8704
2, 196800, Pitch_bend_c, 1, 8832
2, 196800, Pitch_bend_c, 1, 8832
2, 197760, Pitch_bend_c, 1, 8832
2, 197760, Pitch_bend_c, 1, 8192
2, 197760, Note_off_c, 1, 68, 95
2, 197760, Note_on_c, 0, 66, 95
2, 198480, Note_off_c, 0, 66, 95
2, 198480, Note_on_c, 0, 68, 70
2, 198960, Note_off_c, 0, 68, 70
2, 198960, Note_on_c, 1, 66, 70
2, 199080, Pitch_bend_c, 1, 8448
2, 199200, Pitch_bend_c, 1, 8832
2, 199320, Pitch_bend_c, 1, 9216
2, 199440, Pitch_bend_c, 1, 9600
2, 199440, Pitch_bend_c, 1, 8192
2, 199440, Note_off_c, 1, 66, 70
2, 199440, Note_on_c, 1, 68, 95
2, 199560, Pitch_bend_c, 1, 7552
2, 199680, Pitch_bend_c, 1, 6784
2, 199680, Pitch_bend_c, 1, 8192
2, 199680, Note_off_c, 1, 68, 95
2, 199680, Note_on_c, 0, 66, 95
2, 199920, Note_off_c, 0, 66, 95
2, 199920, Note_on_c, 0, 65, 95
2, 200160, Note_off_c, 0, 65, 95
2, 200160, Note_on_c, 0, 66, 70
2, 200400, Note_off_c, 0, 66, 70
2, 200400, Note_on_c, 1, 65, 70
2, 200520, Pitch_bend_c, 1, 7552
2, 200640, Pitch_bend_c, 1, 6784
2, 200640, Pitch_bend_c, 1, 8192
2, 200640, Note_off_c, 1, 65, 70
2, 200640, Note_on_c, 0, 63, 95
2, 200880, Note_off_c, 0, 63, 95
2, 200880, Note_on_c, 0, 65, 70
2, 201120, Note_off_c, 0, 65, 70
2, 201120, Note_on_c, 1, 63, 70
2, 201240, Pitch_bend_c, 1, 7552
2, 201360, Pitch_bend_c, 1, 6784
2, 201360, Pitch_bend_c, 1, 8192
2, 201360, Note_off_c, 1, 63, 70
2, 201360, Note_on_c, 0, 61, 95
2, 201600, Note_off_c, 0, 61, 95
2, 201600, Note_on_c, 0, 63, 70
2, 201840, Note_off_c, 0, 63, 70
2, 201840, Note_on_c, 1, 61, 70
2, 201960, Pitch_bend_c, 1, 7936
2, 202080, Pitch_bend_c, 1, 7552
2, 202080, Pitch_bend_c, 1, 8192
2, 202080, Note_off_c, 1, 61, 70
2, 202080, Note_on_c, 0, 60, 95
2, 202320, Note_off_c, 0, 60, 95
2, 202320, Note_on_c, 0, 61, 70
2, 202560, Note_off_c, 0, 61, 70
2, 202560, Note_on_c, 1, 60, 70
2, 202680, Pitch_bend_c, 1, 7552
2, 202800, Pitch_bend_c, 1, 6784
2, 202800, Pitch_bend_c, 1, 8192
2, 202800, Note_off_c, 1, 60, 70
2, 202800, Note_on_c, 0, 58, 95
2, 203040, Note_off_c, 0, 58, 95
2, 203040, Note_on_c, 0, 60, 70
2, 203280, Note_off_c, 0, 60, 70
2, 203280, Note_on_c, 1, 58, 70
2, 203400, Pitch_bend_c, 1, 7552
2, 203520, Pitch_bend_c, 1, 6784
2, 203520, Pitch_bend_c, 1, 8192
2, 203520, Note_off_c, 1, 58, 70
2, 203520, Note_on_c, 0, 56, 95
2, 203680, Note_off_c, 0, 56, 95
2, 203680, Note_on_c, 0, 58, 70
2, 203840, Note_off_c, 0, 58, 70
2, 203840, Note_on_c, 0, 56, 70
2, 204000, Note_off_c, 0, 56, 70
2, 204000, Note_on_c, 0, 54, 70
2, 205200, Note_off_c, 0, 54, 70
2, 205200, Note_on_c, 0, 56, 95
2, 205440, Note_off_c, 0, 56, 95
2, 205440, Pitch_bend_c, 1, 8192
2, 205440, Note_on_c, 1, 57, 70
2, 205472, Pitch_bend_c, 1, 8320
2, 205504, Pitch_bend_c, 1, 8448
2, 205536, Pitch_bend_c, 1, 8576
2, 205568, Pitch_bend_c, 1, 8704
2, 205600, Pitch_bend_c, 1, 8832
2, 205600, Pitch_bend_c, 1, 8832
2, 205760, Pitch_bend_c, 1, 8832
2, 205760, Pitch_bend_c, 1, 8192
2, 205760, Note_off_c, 1, 57, 70
2, 205760, Note_on_c, 0, 56, 95
2, 206080, Note_off_c, 0, 56, 95
2, 206080, Note_on_c, 0, 54, 70
2, 206400, Note_off_c, 0, 54, 70
2, 206400, Note_on_c, 0, 51, 95
2, 206720, Note_off_c, 0, 51, 95
2, 206720, Note_on_c, 0, 49, 70
2, 207040, Note_off_c, 0, 49, 70
2, 207040, Note_on_c, 0, 42, 95
2, 207360, Note_off_c, 0, 42, 95
2, 207360, Note_on_c, 0, 39, 70
2, 209280, Note_on_c, 1, 78, 95
2, 209400, Pitch_bend_c, 1, 8192
2, 209520, Pitch_bend_c, 1, 8192
2, 209640, Pitch_bend_c, 1, 8064
2, 209760, Pitch_bend_c, 1, 8064
2, 209880, Pitch_bend_c, 1, 8064
2, 210000, Pitch_bend_c, 1, 7936
2, 210120, Pitch_bend_c, 1, 7936
2, 210240, Pitch_bend_c, 1, 7936
2, 210360, Pitch_bend_c, 1, 7808
2, 210480, Pitch_bend_c, 1, 7808
2, 210600, Pitch_bend_c, 1, 7808
2, 210720, Pitch_bend_c, 1, 7680
2, 210840, Pitch_bend_c, 1, 7680
2, 210960, Pitch_bend_c, 1, 7680
2, 211080, Pitch_bend_c, 1, 7552
2, 211200, Pitch_bend_c, 1, 7552
2, 211200, Pitch_bend_c, 1, 8192
2, 211200, Note_off_c, 1, 78, 95
2, 211200, Note_on_c, 1, 77, 95
2, 211360, Pitch_bend_c, 1, 8192
2, 211520, Pitch_bend_c, 1, 8320
2, 211680, Pitch_bend_c, 1, 8192
2, 211840, Pitch_bend_c, 1, 8320
2, 212000, Pitch_bend_c, 1, 8192
2, 212160, Pitch_bend_c, 1, 8320
2, 212320, Pitch_bend_c, 1, 8192
2, 212480, Pitch_bend_c, 1, 8320
2, 212640, Pitch_bend_c, 1, 8192
2, 212800, Pitch_bend_c, 1, 8320
2, 212960, Pitch_bend_c, 1, 8192
2, 213120, Note_off_c, 0, 39, 70
2, 213120, Pitch_bend_c, 1, 8320
2, 213280, Pitch_bend_c, 1, 8192
2, 213440, Pitch_bend_c, 1, 8320
2, 213600, Pitch_bend_c, 1, 8192
2, 213600, Pitch_bend_c, 1, 8320
2, 213600, Pitch_bend_c, 1, 8192
2, 213600, Note_off_c, 1, 77, 95
2, 213600, Note_on_c, 1, 56, 95
2, 213720, Pitch_bend_c, 1, 8448
2, 213840, Pitch_bend_c, 1, 8832
2, 213960, Pitch_bend_c, 1, 9216
2, 214080, Pitch_bend_c, 1, 9600
2, 214080, Pitch_bend_c, 1, 8192
2, 214080, Note_off_c, 1, 56, 95
2, 214080, Note_on_c, 0, 58, 95
2, 214560, Note_off_c, 0, 58, 95
2, 214560, Note_on_c, 0, 61, 95
2, 214560, Note_on_c, 0, 58, 95
2, 215040, Note_off_c, 0, 61, 95
2, 215040, Note_off_c, 0, 58, 95
2, 215040, Pitch_bend_c, 1, 8192
2, 215040, Note_on_c, 1, 56, 95
2, 215083, Pitch_bend_c, 1, 8320
2, 215126, Pitch_bend_c, 1, 8448
2, 215169, Pitch_bend_c, 1, 8576
2, 215212, Pitch_bend_c, 1, 8704
2, 215255, Pitch_bend_c, 1, 8832
2, 215298, Pitch_bend_c, 1, 8960
2, 215341, Pitch_bend_c, 1, 9088
2, 215384, Pitch_bend_c, 1, 9216
2, 215427, Pitch_bend_c, 1, 9344
2, 215470, Pitch_bend_c, 1, 9472
2, 215513, Pitch_bend_c, 1, 9600
2, 215520, Pitch_bend_c, 1, 9600
2, 216000, Pitch_bend_c, 1, 9600
2, 216000, Pitch_bend_c, 1, 8192
2, 216000, Note_off_c, 1, 56, 95
2, 216000, Pitch_bend_c, 1, 9600
2, 216000, Note_on_c, 1, 56, 95
2, 216080, Pitch_bend_c, 1, 9600
2, 216087, Pitch_bend_c, 1, 9472
2, 216094, Pitch_bend_c, 1, 9344
2, 216101, Pitch_bend_c, 1, 9216
2, 216108, Pitch_bend_c, 1, 9088
2, 216115, Pitch_bend_c, 1, 8960
2, 216122, Pitch_bend_c, 1, 8832
2, 216129, Pitch_bend_c, 1, 8704
2, 216136, Pitch_bend_c, 1, 8576
2, 216143, Pitch_bend_c, 1, 8448
2, 216150, Pitch_bend_c, 1, 8320
2, 216157, Pitch_bend_c, 1, 8192
2, 216160, Pitch_bend_c, 1, 8192
2, 216240, Pitch_bend_c, 1, 8192
2, 216240, Pitch_bend_c, 1, 8192
2, 216240, Note_off_c, 1, 56, 95
2, 216240, Note_on_c, 0, 56, 95
2, 216480, Note_off_c, 0, 56, 95
2, 216480, Note_on_c, 0, 54, 70
2, 216720, Note_off_c, 0, 54, 70
2, 216720, Note_on_c, 0, 51, 95
2, 217920, Note_off_c, 0, 51, 95
2, 217920, Note_on_c, 1, 58, 95
2, 217920, Note_on_c, 1, 55, 95
2, 217920, Note_on_c, 1, 49, 95
2, 217920, Note_on_c, 0, 39, 95
2, 218400, Note_off_c, 1, 58, 95
2, 218400, Note_off_c, 1, 55, 95
2, 218400, Note_off_c, 1, 49, 95
2, 218400, Note_off_c, 0, 39, 95
2, 218400, Note_on_c, 0, 58, 95
2, 218400, Note_on_c, 0, 39, 95
2, 218880, Note_off_c, 0, 58, 95
2, 218880, Note_off_c, 0, 39, 95
2, 218880, Note_on_c, 0, 39, 95
2, 221040, Note_off_c, 0, 39, 95
2, 221040, Pitch_bend_c, 1, 8192
2, 221040, Note_on_c, 1, 68, 95
2, 221061, Pitch_bend_c, 1, 8320
2, 221082, Pitch_bend_c, 1, 8448
2, 221103, Pitch_bend_c, 1, 8576
2, 221124, Pitch_bend_c, 1, 8704
2, 221145, Pitch_bend_c, 1, 8832
2, 221166, Pitch_bend_c, 1, 8960
2, 221187, Pitch_bend_c, 1, 9088
2, 221208, Pitch_bend_c, 1, 9216
2, 221229, Pitch_bend_c, 1, 9344
2, 221250, Pitch_bend_c, 1, 9472
2, 221271, Pitch_bend_c, 1, 9600
2, 221280, Pitch_bend_c, 1, 9600
2, 221520, Pitch_bend_c, 1, 9600
2, 221520, Pitch_bend_c, 1, 8192
2, 221520, Note_off_c, 1, 68, 95
2, 221520, Note_on_c, 0, 70, 95
2, 221760, Note_off_c, 0, 70, 95
2, 221760, Note_on_c, 0, 75, 95
2, 222000, Note_off_c, 0, 75, 95
2, 222000, Note_on_c, 0, 73, 95
2, 222240, Note_off_c, 0, 73, 95
2, 222240, Note_on_c, 0, 70, 70
2, 222480, Note_off_c, 0, 70, 70
2, 222480, Pitch_bend_c, 1, 8192
2, 222480, Note_on_c, 1, 73, 95
2, 222552, Pitch_bend_c, 1, 8320
2, 222624, Pitch_bend_c, 1, 8448
2, 222696, Pitch_bend_c, 1, 8576
2, 222768, Pitch_bend_c, 1, 8704
2, 222840, Pitch_bend_c, 1, 8832
2, 222840, Pitch_bend_c, 1, 8832
2, 222900, Pitch_bend_c, 1, 8960
2, 222960, Pitch_bend_c, 1, 9088
2, 223020, Pitch_bend_c, 1, 9216
2, 223080, Pitch_bend_c, 1, 9344
2, 223140, Pitch_bend_c, 1, 9472
2, 223200, Pitch_bend_c, 1, 9600
2, 223200, Pitch_bend_c, 1, 9600
2, 223200, Pitch_bend_c, 1, 8192
2, 223200, Note_off_c, 1, 73, 95
2, 223200, Note_on_c, 0, 75, 95
2, 224640, Note_off_c, 0, 75, 95
2, 224640, Note_on_c, 0, 75, 95
2, 224960, Note_off_c, 0, 75, 95
2, 224960, Note_on_c, 0, 73, 95
2, 225280, Note_off_c, 0, 73, 95
2, 225280, Note_on_c, 0, 70, 70
2, 225600, Note_off_c, 0, 70, 70
2, 225600, Pitch_bend_c, 1, 8192
2, 225600, Note_on_c, 1, 68, 95
2, 225621, Pitch_bend_c, 1, 8320
2, 225642, Pitch_bend_c, 1, 8448
2, 225663, Pitch_bend_c, 1, 8576
2, 225684, Pitch_bend_c, 1, 8704
2, 225705, Pitch_bend_c, 1, 8832
2, 225726, Pitch_bend_c, 1, 8960
2, 225747, Pitch_bend_c, 1, 9088
2, 225768, Pitch_bend_c, 1, 9216
2, 225789, Pitch_bend_c, 1, 9344
2, 225810, Pitch_bend_c, 1, 9472
2, 225831, Pitch_bend_c, 1, 9600
2, 225840, Pitch_bend_c, 1, 9600
2, 226080, Pitch_bend_c, 1, 9600
2, 226080, Pitch_bend_c, 1, 8192
2, 226080, Note_off_c, 1, 68, 95
2, 226080, Pitch_bend_c, 1, 8192
2, 226080, Note_on_c, 1, 66, 95
2, 226117, Pitch_bend_c, 1, 8320
2, 226154, Pitch_bend_c, 1, 8448
2, 226191, Pitch_bend_c, 1, 8576
2, 226228, Pitch_bend_c, 1, 8704
2, 226265, Pitch_bend_c, 1, 8832
2, 226302, Pitch_bend_c, 1, 8960
2, 226339, Pitch_bend_c, 1, 9088
2, 226376, Pitch_bend_c, 1, 9216
2, 226413, Pitch_bend_c, 1, 9344
2, 226450, Pitch_bend_c, 1, 9472
2, 226487, Pitch_bend_c, 1, 9600
2, 226524, Pitch_bend_c, 1, 9728
2, 226561, Pitch_bend_c, 1, 9856
2, 226598, Pitch_bend_c, 1, 9984
2, 226635, Pitch_bend_c, 1, 10112
2, 226672, Pitch_bend_c, 1, 10240
2, 226680, Pitch_bend_c, 1, 10240
2, 227280, Pitch_bend_c, 1, 10240
2, 227280, Pitch_bend_c, 1, 8192
2, 227280, Note_off_c, 1, 66, 95
2, 227280, Pitch_bend_c, 1, 8192
2, 227280, Note_on_c, 1, 66, 95
2, 227325, Pitch_bend_c, 1, 8320
2, 227370, Pitch_bend_c, 1, 8448
2, 227415, Pitch_bend_c, 1, 8576
2, 227460, Pitch_bend_c, 1, 8704
2, 227505, Pitch_bend_c, 1, 8832
2, 227550, Pitch_bend_c, 1, 8960
2, 227595, Pitch_bend_c, 1, 9088
2, 227640, Pitch_bend_c, 1, 9216
2, 227640, Pitch_bend_c, 1, 9216
2, 228000, Pitch_bend_c, 1, 9216
2, 228000, Pitch_bend_c, 1, 8192
2, 228000, Note_off_c, 1, 66, 95
2, 228000, Pitch_bend_c, 1, 8192
2, 228000, Note_on_c, 1, 66, 95
2, 228120, Pitch_bend_c, 1, 8320
2, 228240, Pitch_bend_c, 1, 8448
2, 228240, Pitch_bend_c, 1, 8448
2, 228480, Pitch_bend_c, 1, 8448
2, 228480, Pitch_bend_c, 1, 8192
2, 228480, Note_off_c, 1, 66, 95
2, 228480, Note_on_c, 0, 63, 95
2, 228960, Note_off_c, 0, 63, 95
2, 228960, Note_on_c, 0, 61, 95
2, 229200, Note_off_c, 0, 61, 95
2, 229200, Note_on_c, 0, 63, 70
2, 229440, Note_off_c, 0, 63, 70
2, 229440, Note_on_c, 0, 61, 70
2, 229600, Note_off_c, 0, 61, 70
2, 229600, Note_on_c, 0, 58, 95
2, 229760, Note_off_c, 0, 58, 95
2, 229760, Note_on_c, 0, 56, 95
2, 229920, Note_off_c, 0, 56, 95
2, 229920, Note_on_c, 0, 57, 70
2, 230080, Note_off_c, 0, 57, 70
2, 230080, Note_on_c, 0, 56, 70
2, 230240, Note_off_c, 0, 56, 70
2, 230240, Note_on_c, 0, 54, 95
2, 230400, Note_off_c, 0, 54, 95
2, 230400, Note_on_c, 0, 51, 70
2, 230640, Note_off_c, 0, 51, 70
2, 230640, Pitch_bend_c, 1, 8192
2, 230640, Note_on_c, 1, 68, 95
2, 230672, Pitch_bend_c, 1, 8320
2, 230704, Pitch_bend_c, 1, 8448
2, 230736, Pitch_bend_c, 1, 8576
2, 230768, Pitch_bend_c, 1, 8704
2, 230800, Pitch_bend_c, 1, 8832
2, 230832, Pitch_bend_c, 1, 8960
2, 230864, Pitch_bend_c, 1, 9088
2, 230896, Pitch_bend_c, 1, 9216
2, 230928, Pitch_bend_c, 1, 9344
2, 230960, Pitch_bend_c, 1, 9472
2, 230992, Pitch_bend_c, 1, 9600
2, 231000, Pitch_bend_c, 1, 9600
2, 231360, Pitch_bend_c, 1, 9600
2, 231360, Pitch_bend_c, 1, 8192
2, 231360, Note_off_c, 1, 68, 95
2, 231360, Note_on_c, 0, 70, 95
2, 231600, Note_off_c, 0, 70, 95
2, 231600, Note_on_c, 0, 75, 95
2, 232080, Note_off_c, 0, 75, 95
2, 232080, Note_on_c, 0, 51, 95
2, 232320, Note_off_c, 0, 51, 95
2, 232320, Note_on_c, 0, 54, 70
2, 232560, Note_off_c, 0, 54, 70
2, 232560, Note_on_c, 0, 56, 95
2, 232800, Note_off_c, 0, 56, 95
2, 232800, Note_on_c, 0, 58, 70
2, 233040, Note_off_c, 0, 58, 70
2, 233040, Note_on_c, 0, 61, 95
2, 233280, Note_off_c, 0, 61, 95
2, 233280, Note_on_c, 0, 63, 70
2, 233520, Note_off_c, 0, 63, 70
2, 233520, Note_on_c, 0, 61, 70
2, 233760, Note_off_c, 0, 61, 70
2, 233760, Note_on_c, 0, 58, 95
2, 234000, Note_off_c, 0, 58, 95
2, 234000, Note_on_c, 0, 56, 70
2, 234240, Note_off_c, 0, 56, 70
2, 234240, Note_on_c, 0, 54, 95
2, 234480, Note_off_c, 0, 54, 95
2, 234480, Note_on_c, 0, 51, 95
2, 234720, Note_off_c, 0, 51, 95
2, 234720, Note_on_c, 0, 73, 95
2, 234720, Pitch_bend_c, 1, 8192
2, 234720, Note_on_c, 1, 68, 95
2, 235003, Pitch_bend_c, 1, 8320
2, 235286, Pitch_bend_c, 1, 8448
2, 235569, Pitch_bend_c, 1, 8576
2, 235852, Pitch_bend_c, 1, 8704
2, 236135, Pitch_bend_c, 1, 8832
2, 236418, Pitch_bend_c, 1, 8960
2, 236701, Pitch_bend_c, 1, 9088
2, 236984, Pitch_bend_c, 1, 9216
2, 237267, Pitch_bend_c, 1, 9344
2, 237550, Pitch_bend_c, 1, 9472
2, 237833, Pitch_bend_c, 1, 9600
2, 237840, Pitch_bend_c, 1, 9600
2, 240960, Note_off_c, 0, 73, 95
2, 240960, Pitch_bend_c, 1, 9600
2, 240960, Pitch_bend_c, 1, 8192
2, 240960, Note_off_c, 1, 68, 95
2, 240960, Note_on_c, 0, 73, 95
2, 240960, Pitch_bend_c, 1, 8192
2, 240960, Note_on_c, 1, 68, 95
2, 241025, Pitch_bend_c, 1, 8320
2, 241090, Pitch_bend_c, 1, 8448
2, 241155, Pitch_bend_c, 1, 8576
2, 241220, Pitch_bend_c, 1, 8704
2, 241285, Pitch_bend_c, 1, 8832
2, 241350, Pitch_bend_c, 1, 8960
2, 241415, Pitch_bend_c, 1, 9088
2, 241480, Pitch_bend_c, 1, 9216
2, 241545, Pitch_bend_c, 1, 9344
2, 241610, Pitch_bend_c, 1, 9472
2, 241675, Pitch_bend_c, 1, 9600
2, 241680, Pitch_bend_c, 1, 9600
2, 242400, Pitch_bend_c, 1, 9600
2, 242520, Pitch_bend_c, 1, 9472
2, 242640, Pitch_bend_c, 1, 9344
2, 242760, Pitch_bend_c, 1, 9216
2, 242880, Pitch_bend_c, 1, 9088
2, 243000, Pitch_bend_c, 1, 8960
2, 243120, Pitch_bend_c, 1, 8832
2, 243120, Pitch_bend_c, 1, 8832
2, 243840, Note_off_c, 0, 73, 95
2, 243840, Pitch_bend_c, 1, 8832
2, 243840, Pitch_bend_c, 1, 8192
2, 243840, Note_off_c, 1, 68, 95
2, 243840, Note_on_c, 1, 73, 95
2, 243840, Note_on_c, 1, 70, 95
2, 243840, Note_on_c, 1, 63, 95
2, 243960, Pitch_bend_c, 1, 8192
2, 243960, Pitch_bend_c, 1, 8192
2, 243960, Pitch_bend_c, 1, 8192
2, 244080, Pitch_bend_c, 1, 8192
2, 244080, Pitch_bend_c, 1, 8192
2, 244080, Pitch_bend_c, 1, 8192
2, 244200, Pitch_bend_c, 1, 8192
2, 244200, Pitch_bend_c, 1, 8192
2, 244200, Pitch_bend_c, 1, 8192
2, 244320, Pitch_bend_c, 1, 8192
2, 244320, Pitch_bend_c, 1, 8192
2, 244320, Pitch_bend_c, 1, 8192
2, 244440, Pitch_bend_c, 1, 8192
2, 244440, Pitch_bend_c, 1, 8192
2, 244440, Pitch_bend_c, 1, 8192
2, 244560, Pitch_bend_c, 1, 8192
2, 244560, Pitch_bend_c, 1, 8192
2, 244560, Pitch_bend_c, 1, 8192
2, 244680, Pitch_bend_c, 1, 8192
2, 244680, Pitch_bend_c, 1, 8192
2, 244680, Pitch_bend_c, 1, 8192
2, 244800, Pitch_bend_c, 1, 8192
2, 244800, Pitch_bend_c, 1, 8192
2, 244800, Pitch_bend_c, 1, 8192
2, 244920, Pitch_bend_c, 1, 8192
2, 244920, Pitch_bend_c, 1, 8192
2, 244920, Pitch_bend_c, 1, 8192
2, 245040, Pitch_bend_c, 1, 8192
2, 245040, Pitch_bend_c, 1, 8192
2, 245040, Pitch_bend_c, 1, 8192
2, 245160, Pitch_bend_c, 1, 8192
2, 245160, Pitch_bend_c, 1, 8192
2, 245160, Pitch_bend_c, 1, 8192
2, 245280, Pitch_bend_c, 1, 8192
2, 245280, Pitch_bend_c, 1, 8192
2, 245280, Pitch_bend_c, 1, 8192
2, 245400, Pitch_bend_c, 1, 8192
2, 245400, Pitch_bend_c, 1, 8192
2, 245400, Pitch_bend_c, 1, 8192
2, 245520, Pitch_bend_c, 1, 8192
2, 245520, Pitch_bend_c, 1, 8192
2, 245520, Pitch_bend_c, 1, 8192
2, 245640, Pitch_bend_c, 1, 8192
2, 245640, Pitch_bend_c, 1, 8192
2, 245640, Pitch_bend_c, 1, 8192
2, 245760, Pitch_bend_c, 1, 8192
2, 245760, Pitch_bend_c, 1, 8192
2, 245760, Pitch_bend_c, 1, 8192
2, 245760, Pitch_bend_c, 1, 8192
2, 245760, Pitch_bend_c, 1, 8192
2, 245760, Pitch_bend_c, 1, 8192
2, 249600, Note_off_c, 1, 73, 95
2, 249600, Note_off_c, 1, 70, 95
2, 249600, Note_off_c, 1, 63, 95
2, 249600, Note_on_c, 0, 39, 95
2, 250560, Note_on_c, 0, 63, 95
2, 250560, Note_on_c, 0, 58, 95
2, 251520, Note_off_c, 0, 39, 95
2, 251520, Note_on_c, 1, 56, 95
2, 251640, Pitch_bend_c, 1, 8448
2, 251760, Pitch_bend_c, 1, 8832
2, 251880, Pitch_bend_c, 1, 9216
2, 252000, Note_off_c, 0, 63, 95
2, 252000, Note_off_c, 0, 58, 95
2, 252000, Pitch_bend_c, 1, 9600
2, 252000, Pitch_bend_c, 1, 8192
2, 252000, Note_off_c, 1, 56, 95
2, 252000, Note_on_c, 0, 58, 95
2, 252480, Note_off_c, 0, 58, 95
2, 252480, Note_on_c, 0, 61, 95
2, 252480, Note_on_c, 0, 58, 95
2, 253320, Note_on_c, 1, 54, 95
2, 253440, Note_off_c, 0, 61, 95
2, 253440, Note_off_c, 0, 58, 95
2, 253440, Note_off_c, 1, 54, 95
2, 253440, Note_on_c, 1, 56, 95
2, 254880, Note_off_c, 1, 56, 95
2, 254880, Note_on_c, 0, 61, 95
2, 255360, Note_off_c, 0, 61, 95
2, 255360, Note_on_c, 0, 54, 95
2, 256200, Note_on_c, 1, 49, 95
2, 256320, Note_off_c, 1, 49, 95
2, 256320, Note_on_c, 1, 51, 95
2, 257280, Note_off_c, 0, 54, 95
2, 257280, Note_on_c, 0, 39, 95
2, 258240, Note_off_c, 1, 51, 95
2, 258240, Note_off_c, 0, 39, 95
2, 258240, Note_on_c, 0, 63, 95
2, 258240, Note_on_c, 0, 58, 95
2, 264000, Note_off_c, 0, 63, 95
2, 264000, Note_off_c, 0, 58, 95
2, 264000, Note_on_c, 0, 67, 95
2, 264000, Note_on_c, 0, 61, 95
2, 264000, Pitch_bend_c, 1, 8192
2, 264000, Note_on_c, 1, 56, 95
2, 264021, Pitch_bend_c, 1, 8320
2, 264042, Pitch_bend_c, 1, 8448
2, 264063, Pitch_bend_c, 1, 8576
2, 264084, Pitch_bend_c, 1, 8704
2, 264105, Pitch_bend_c, 1, 8832
2, 264126, Pitch_bend_c, 1, 8960
2, 264147, Pitch_bend_c, 1, 9088
2, 264168, Pitch_bend_c, 1, 9216
2, 264189, Pitch_bend_c, 1, 9344
2, 264210, Pitch_bend_c, 1, 9472
2, 264231, Pitch_bend_c, 1, 9600
2, 264240, Pitch_bend_c, 1, 9600
2, 264480, Pitch_bend_c, 1, 9600
2, 264501, Pitch_bend_c, 1, 9472
2, 264522, Pitch_bend_c, 1, 9344
2, 264543, Pitch_bend_c, 1, 9216
2, 264564, Pitch_bend_c, 1, 9088
2, 264585, Pitch_bend_c, 1, 8960
2, 264606, Pitch_bend_c, 1, 8832
2, 264627, Pitch_bend_c, 1, 8704
2, 264648, Pitch_bend_c, 1, 8576
2, 264669, Pitch_bend_c, 1, 8448
2, 264690, Pitch_bend_c, 1, 8320
2, 264711, Pitch_bend_c, 1, 8192
2, 264720, Pitch_bend_c, 1, 8192
2, 264960, Note_off_c, 0, 67, 95
2, 264960, Note_off_c, 0, 61, 95
2, 264960, Pitch_bend_c, 1, 8192
2, 264960, Pitch_bend_c, 1, 8192
2, 264960, Note_off_c, 1, 56, 95
2, 264960, Note_on_c, 0, 39, 95
2, 265920, Note_off_c, 0, 39, 95
2, 265920, Note_on_c, 0, 63, 95
2, 265920, Note_on_c, 0, 58, 95
2, 267360, Note_off_c, 0, 63, 95
2, 267360, Note_off_c, 0, 58, 95
2, 267360, Note_on_c, 0, 61, 95
2, 267360, Pitch_bend_c, 1, 8192
2, 267360, Note_on_c, 1, 56, 95
2, 267392, Pitch_bend_c, 1, 8320
2, 267424, Pitch_bend_c, 1, 8448
2, 267456, Pitch_bend_c, 1, 8576
2, 267488, Pitch_bend_c, 1, 8704
2, 267520, Pitch_bend_c, 1, 8832
2, 267552, Pitch_bend_c, 1, 8960
2, 267584, Pitch_bend_c, 1, 9088
2, 267616, Pitch_bend_c, 1, 9216
2, 267648, Pitch_bend_c, 1, 9344
2, 267680, Pitch_bend_c, 1, 9472
2, 267712, Pitch_bend_c, 1, 9600
2, 267720, Pitch_bend_c, 1, 9600
2, 268080, Pitch_bend_c, 1, 9600
2, 268112, Pitch_bend_c, 1, 9472
2, 268144, Pitch_bend_c, 1, 9344
2, 268176, Pitch_bend_c, 1, 9216
2, 268208, Pitch_bend_c, 1, 9088
2, 268240, Pitch_bend_c, 1, 8960
2, 268272, Pitch_bend_c, 1, 8832
2, 268304, Pitch_bend_c, 1, 8704
2, 268336, Pitch_bend_c, 1, 8576
2, 268368, Pitch_bend_c, 1, 8448
2, 268400, Pitch_bend_c, 1, 8320
2, 268432, Pitch_bend_c, 1, 8192
2, 268440, Pitch_bend_c, 1, 8192
2, 268800, Note_off_c, 0, 61, 95
2, 268800, Pitch_bend_c, 1, 8192
2, 268800, Pitch_bend_c, 1, 8192
2, 268800, Note_off_c, 1, 56, 95
2, 268800, Note_on_c, 0, 39, 95
2, 269760, Note_off_c, 0, 39, 95
2, 269760, Note_on_c, 0, 63, 95
2, 269760, Note_on_c, 0, 58, 95
2, 270240, Note_off_c, 0, 63, 95
2, 270240, Note_off_c, 0, 58, 95
2, 270600, Note_on_c, 1, 39, 95
2, 270720, Note_off_c, 1, 39, 95
2, 270720, Pitch_bend_c, 1, 8192
2, 270720, Note_on_c, 1, 42, 95
2, 270960, Pitch_bend_c, 1, 8320
2, 271200, Pitch_bend_c, 1, 8448
2, 271200, Pitch_bend_c, 1, 8448
2, 271680, Pitch_bend_c, 1, 8448
2, 271680, Pitch_bend_c, 1, 8192
2, 271680, Note_off_c, 1, 42, 95
2, 271680, Note_on_c, 0, 49, 95
2, 271920, Note_off_c, 0, 49, 95
2, 271920, Note_on_c, 0, 51, 95
2, 272160, Note_off_c, 0, 51, 95
2, 272160, Note_on_c, 0, 49, 95
2, 272400, Note_off_c, 0, 49, 95
2, 272400, Note_on_c, 0, 51, 95
2, 272639, Note_off_c, 0, 51, 95
2, 272640, Note_on_c, 0, 54, 95
2, 272640, Note_on_c, 0, 49, 95
2, 272880, Note_off_c, 0, 54, 95
2, 272880, Note_on_c, 0, 55, 95
2, 272880, Note_off_c, 0, 49, 95
2, 272880, Note_on_c, 0, 51, 95
2, 273120, Note_off_c, 0, 55, 95
2, 273120, Note_on_c, 0, 54, 95
2, 273120, Note_off_c, 0, 51, 95
2, 273120, Note_on_c, 0, 49, 95
2, 273360, Note_off_c, 0, 54, 95
2, 273360, Note_on_c, 0, 55, 95
2, 273360, Note_off_c, 0, 49, 95
2, 273360, Note_on_c, 0, 51, 95
2, 273600, Note_off_c, 0, 55, 95
2, 273600, Note_on_c, 0, 54, 95
2, 273600, Note_off_c, 0, 51, 95
2, 273600, Note_on_c, 0, 49, 95
2, 273840, Note_off_c, 0, 54, 95
2, 273840, Note_on_c, 0, 55, 95
2, 273840, Note_off_c, 0, 49, 95
2, 273840, Note_on_c, 0, 51, 95
2, 274080, Note_off_c, 0, 55, 95
2, 274080, Note_on_c, 0, 54, 95
2, 274080, Note_off_c, 0, 51, 95
2, 274080, Note_on_c, 0, 49, 95
2, 274320, Note_off_c, 0, 54, 95
2, 274320, Note_on_c, 0, 55, 95
2, 274320, Note_off_c, 0, 49, 95
2, 274320, Note_on_c, 0, 51, 95
2, 274560, Note_off_c, 0, 55, 95
2, 274560, Note_on_c, 0, 54, 95
2, 274560, Note_off_c, 0, 51, 95
2, 274560, Note_on_c, 0, 49, 95
2, 274800, Note_off_c, 0, 54, 95
2, 274800, Note_on_c, 0, 55, 95
2, 274800, Note_off_c, 0, 49, 95
2, 274800, Note_on_c, 0, 51, 95
2, 275040, Note_off_c, 0, 55, 95
2, 275040, Note_on_c, 0, 54, 95
2, 275040, Note_off_c, 0, 51, 95
2, 275040, Note_on_c, 0, 49, 95
2, 275280, Note_off_c, 0, 54, 95
2, 275280, Note_on_c, 0, 55, 95
2, 275280, Note_off_c, 0, 49, 95
2, 275280, Note_on_c, 0, 51, 95
2, 275520, Note_off_c, 0, 55, 95
2, 275520, Note_on_c, 0, 54, 95
2, 275520, Note_off_c, 0, 51, 95
2, 275520, Note_on_c, 0, 49, 95
2, 275760, Note_off_c, 0, 54, 95
2, 275760, Note_on_c, 0, 55, 95
2, 275760, Note_off_c, 0, 49, 95
2, 275760, Note_on_c, 0, 51, 95
2, 276000, Note_off_c, 0, 55, 95
2, 276000, Note_on_c, 0, 54, 95
2, 276000, Note_off_c, 0, 51, 95
2, 276000, Note_on_c, 0, 49, 95
2, 276240, Note_off_c, 0, 54, 95
2, 276240, Note_on_c, 0, 55, 95
2, 276240, Note_off_c, 0, 49, 95
2, 276240, Note_on_c, 0, 51, 95
2, 276479, Note_off_c, 0, 55, 95
2, 276479, Note_off_c, 0, 51, 95
2, 276480, Note_on_c, 0, 39, 95
2, 276960, Note_off_c, 0, 39, 95
2, 276960, Note_on_c, 0, 42, 95
2, 277200, Note_off_c, 0, 42, 95
2, 277200, Note_on_c, 0, 43, 70
2, 277440, Note_off_c, 0, 43, 70
2, 277440, Note_on_c, 0, 46, 95
2, 277920, Note_off_c, 0, 46, 95
2, 277920, Note_on_c, 0, 49, 95
2, 278400, Note_off_c, 0, 49, 95
2, 278400, Pitch_bend_c, 1, 8192
2, 278400, Note_on_c, 1, 54, 95
2, 278410, Pitch_bend_c, 1, 8320
2, 278420, Pitch_bend_c, 1, 8448
2, 278430, Pitch_bend_c, 1, 8576
2, 278440, Pitch_bend_c, 1, 8704
2, 278450, Pitch_bend_c, 1, 8832
2, 278460, Pitch_bend_c, 1, 8960
2, 278470, Pitch_bend_c, 1, 9088
2, 278480, Pitch_bend_c, 1, 9216
2, 278490, Pitch_bend_c, 1, 9344
2, 278500, Pitch_bend_c, 1, 9472
2, 278510, Pitch_bend_c, 1, 9600
2, 278520, Pitch_bend_c, 1, 9600
2, 278640, Pitch_bend_c, 1, 9600
2, 278650, Pitch_bend_c, 1, 9472
2, 278660, Pitch_bend_c, 1, 9344
2, 278670, Pitch_bend_c, 1, 9216
2, 278680, Pitch_bend_c, 1, 9088
2, 278690, Pitch_bend_c, 1, 8960
2, 278700, Pitch_bend_c, 1, 8832
2, 278710, Pitch_bend_c, 1, 8704
2, 278720, Pitch_bend_c, 1, 8576
2, 278730, Pitch_bend_c, 1, 8448
2, 278740, Pitch_bend_c, 1, 8320
2, 278750, Pitch_bend_c, 1, 8192
2, 278760, Pitch_bend_c, 1, 8192
2, 278880, Pitch_bend_c, 1, 8192
2, 278880, Pitch_bend_c, 1, 8192
2, 278880, Note_off_c, 1, 54, 95
2, 278880, Note_on_c, 0, 51, 95
2, 279360, Note_off_c, 0, 51, 95
2, 279360, Note_on_c, 0, 53, 95
2, 279680, Note_off_c, 0, 53, 95
2, 279680, Note_on_c, 0, 51, 70
2, 280000, Note_off_c, 0, 51, 70
2, 280000, Note_on_c, 0, 49, 95
2, 280320, Note_off_c, 0, 49, 95
2, 280320, Note_on_c, 0, 39, 47
2, 281280, Note_off_c, 0, 39, 47
2, 281280, Note_on_c, 1, 58, 95
2, 281280, Note_on_c, 1, 55, 95
2, 281280, Note_on_c, 1, 49, 95
2, 281400, Pitch_bend_c, 1, 8192
2, 281400, Pitch_bend_c, 1, 8192
2, 281400, Pitch_bend_c, 1, 8192
2, 281520, Pitch_bend_c, 1, 8192
2, 281520, Pitch_bend_c, 1, 8192
2, 281520, Pitch_bend_c, 1, 8192
2, 281640, Pitch_bend_c, 1, 8192
2, 281640, Pitch_bend_c, 1, 8192
2, 281640, Pitch_bend_c, 1, 8192
2, 281760, Pitch_bend_c, 1, 8192
2, 281760, Pitch_bend_c, 1, 8192
2, 281760, Pitch_bend_c, 1, 8192
2, 281880, Pitch_bend_c, 1, 8192
2, 281880, Pitch_bend_c, 1, 8192
2, 281880, Pitch_bend_c, 1, 8192
2, 282000, Pitch_bend_c, 1, 8192
2, 282000, Pitch_bend_c, 1, 8192
2, 282000, Pitch_bend_c, 1, 8192
2, 282120, Pitch_bend_c, 1, 8192
2, 282120, Pitch_bend_c, 1, 8192
2, 282120, Pitch_bend_c, 1, 8192
2, 282240, Pitch_bend_c, 1, 8192
2, 282240, Pitch_bend_c, 1, 8192
2, 282240, Pitch_bend_c, 1, 8192
2, 282240, Pitch_bend_c, 1, 8192
2, 282240, Pitch_bend_c, 1, 8192
2, 282240, Pitch_bend_c, 1, 8192
2, 282720, Note_off_c, 1, 58, 95
2, 282720, Note_off_c, 1, 55, 95
2, 282720, Note_off_c, 1, 49, 95
2, 282720, Note_on_c, 0, 39, 95
2, 283200, Note_off_c, 0, 39, 95
2, 283200, Pitch_bend_c, 1, 8192
2, 283200, Note_on_c, 1, 42, 70
2, 283320, Pitch_bend_c, 1, 8320
2, 283440, Pitch_bend_c, 1, 8448
2, 283440, Pitch_bend_c, 1, 8448
2, 283680, Pitch_bend_c, 1, 8448
2, 283680, Pitch_bend_c, 1, 8192
2, 283680, Note_off_c, 1, 42, 70
2, 283680, Note_on_c, 0, 44, 95
2, 284160, Note_off_c, 0, 44, 95
2, 284160, Note_on_c, 0, 45, 95
2, 284400, Note_off_c, 0, 45, 95
2, 284400, Note_on_c, 0, 46, 70
2, 284640, Note_off_c, 0, 46, 70
2, 284640, Note_on_c, 0, 54, 95
2, 284640, Note_on_c, 0, 49, 95
2, 285120, Note_off_c, 0, 54, 95
2, 285120, Note_off_c, 0, 49, 95
2, 285120, Note_on_c, 0, 55, 70
2, 285120, Note_on_c, 0, 51, 70
2, 285480, Note_off_c, 0, 55, 70
2, 285480, Note_off_c, 0, 51, 70
2, 285720, Note_on_c, 0, 54, 95
2, 285720, Note_on_c, 0, 49, 95
2, 286080, Note_off_c, 0, 54, 95
2, 286080, Note_off_c, 0, 49, 95
2, 286080, Note_on_c, 0, 55, 70
2, 286080, Note_on_c, 0, 51, 70
2, 286560, Note_off_c, 0, 55, 70
2, 286560, Note_off_c, 0, 51, 70
2, 286560, Note_on_c, 0, 49, 95
2, 287040, Note_off_c, 0, 49, 95
2, 287040, Note_on_c, 0, 45, 95
2, 287280, Note_off_c, 0, 45, 95
2, 287280, Note_on_c, 0, 44, 70
2, 287520, Note_off_c, 0, 44, 70
2, 287520, Pitch_bend_c, 1, 8192
2, 287520, Note_on_c, 1, 42, 95
2, 287640, Pitch_bend_c, 1, 8320
2, 287760, Pitch_bend_c, 1, 8448
2, 287760, Pitch_bend_c, 1, 8448
2, 288000, Pitch_bend_c, 1, 8448
2, 288000, Pitch_bend_c, 1, 8192
2, 288000, Note_off_c, 1, 42, 95
2, 288000, Note_on_c, 0, 39, 95
2, 289320, Note_on_c, 1, 44, 95
2, 289440, Note_off_c, 0, 39, 95
2, 289440, Note_off_c, 1, 44, 95
2, 289440, Note_on_c, 1, 46, 95
2, 289920, Note_off_c, 1, 46, 95
2, 289920, Note_on_c, 0, 46, 95
2, 290280, Note_on_c, 1, 49, 95
2, 290400, Note_off_c, 0, 46, 95
2, 290400, Note_off_c, 1, 49, 95
2, 290400, Note_on_c, 1, 51, 95
2, 290760, Note_on_c, 1, 44, 95
2, 290880, Note_off_c, 1, 51, 95
2, 290880, Note_off_c, 1, 44, 95
2, 290880, Note_on_c, 1, 46, 95
2, 291840, Note_off_c, 1, 46, 95
2, 291840, Note_on_c, 0, 51, 95
2, 292320, Note_off_c, 0, 51, 95
2, 292320, Note_on_c, 0, 46, 95
2, 292800, Note_off_c, 0, 46, 95
2, 292800, Note_on_c, 0, 44, 95
2, 293040, Note_off_c, 0, 44, 95
2, 293040, Note_on_c, 0, 46, 70
2, 293280, Note_off_c, 0, 46, 70
2, 293280, Note_on_c, 0, 51, 95
2, 293760, Note_off_c, 0, 51, 95
2, 293760, Note_on_c, 0, 46, 95
2, 294080, Note_off_c, 0, 46, 95
2, 294080, Note_on_c, 0, 45, 95
2, 294400, Note_off_c, 0, 45, 95
2, 294400, Note_on_c, 0, 44, 70
2, 294720, Note_off_c, 0, 44, 70
2, 294720, Pitch_bend_c, 1, 8192
2, 294720, Note_on_c, 1, 42, 95
2, 294840, Pitch_bend_c, 1, 8320
2, 294960, Pitch_bend_c, 1, 8448
2, 294960, Pitch_bend_c, 1, 8448
2, 295200, Pitch_bend_c, 1, 8448
2, 295200, Pitch_bend_c, 1, 8192
2, 295200, Note_off_c, 1, 42, 95
2, 295200, Note_on_c, 0, 39, 95
2, 295680, Note_on_c, 1, 79, 95
2, 295840, Pitch_bend_c, 1, 8192
2, 296000, Pitch_bend_c, 1, 8320
2, 296160, Pitch_bend_c, 1, 8192
2, 296320, Pitch_bend_c, 1, 8320
2, 296480, Pitch_bend_c, 1, 8192
2, 296640, Pitch_bend_c, 1, 8320
2, 296800, Pitch_bend_c, 1, 8192
2, 296960, Pitch_bend_c, 1, 8320
2, 297120, Pitch_bend_c, 1, 8192
2, 297280, Pitch_bend_c, 1, 8320
2, 297440, Pitch_bend_c, 1, 8192
2, 297600, Note_off_c, 0, 39, 95
2, 297600, Pitch_bend_c, 1, 8320
2, 297600, Pitch_bend_c, 1, 8192
2, 297600, Note_off_c, 1, 79, 95
2, 297600, Note_on_c, 0, 39, 47
2, 299520, Note_off_c, 0, 39, 47
2, 299520, Note_on_c, 0, 39, 95
2, 300480, Note_off_c, 0, 39, 95
2, 300480, Note_on_c, 0, 63, 95
2, 300480, Note_on_c, 0, 58, 95
2, 301440, Note_off_c, 0, 63, 95
2, 301440, Note_off_c, 0, 58, 95
2, 301440, Pitch_bend_c, 1, 8192
2, 301440, Note_on_c, 1, 42, 95
2, 301680, Pitch_bend_c, 1, 8320
2, 301920, Pitch_bend_c, 1, 8448
2, 301920, Pitch_bend_c, 1, 8448
2, 302400, Pitch_bend_c, 1, 8448
2, 302400, Pitch_bend_c, 1, 8192
2, 302400, Note_off_c, 1, 42, 95
2, 302400, Note_on_c, 0, 49, 95
2, 302640, Note_off_c, 0, 49, 95
2, 302640, Note_on_c, 0, 51, 95
2, 302880, Note_off_c, 0, 51, 95
2, 302880, Note_on_c, 0, 49, 95
2, 303120, Note_off_c, 0, 49, 95
2, 303120, Note_on_c, 0, 51, 95
2, 303359, Note_off_c, 0, 51, 95
2, 303360, Note_on_c, 0, 39, 95
2, 304320, Note_off_c, 0, 39, 95
2, 304320, Note_on_c, 0, 63, 95
2, 304320, Note_on_c, 0, 58, 95
2, 305280, Note_off_c, 0, 63, 95
2, 305280, Note_off_c, 0, 58, 95
2, 305280, Note_on_c, 0, 58, 95
2, 305280, Pitch_bend_c, 1, 8192
2, 305280, Note_on_c, 1, 56, 95
2, 305367, Pitch_bend_c, 1, 8320
2, 305454, Pitch_bend_c, 1, 8448
2, 305541, Pitch_bend_c, 1, 8576
2, 305628, Pitch_bend_c, 1, 8704
2, 305715, Pitch_bend_c, 1, 8832
2, 305802, Pitch_bend_c, 1, 8960
2, 305889, Pitch_bend_c, 1, 9088
2, 305976, Pitch_bend_c, 1, 9216
2, 306063, Pitch_bend_c, 1, 9344
2, 306150, Pitch_bend_c, 1, 9472
2, 306237, Pitch_bend_c, 1, 9600
2, 306240, Pitch_bend_c, 1, 9600
2, 307200, Note_off_c, 0, 58, 95
2, 307200, Pitch_bend_c, 1, 9600
2, 307200, Pitch_bend_c, 1, 8192
2, 307200, Note_off_c, 1, 56, 95
2, 307200, Note_on_c, 0, 58, 95
2, 307200, Pitch_bend_c, 1, 8192
2, 307200, Note_on_c, 1, 56, 95
2, 307210, Pitch_bend_c, 1, 8320
2, 307220, Pitch_bend_c, 1, 8448
2, 307230, Pitch_bend_c, 1, 8576
2, 307240, Pitch_bend_c, 1, 8704
2, 307250, Pitch_bend_c, 1, 8832
2, 307260, Pitch_bend_c, 1, 8960
2, 307270, Pitch_bend_c, 1, 9088
2, 307280, Pitch_bend_c, 1, 9216
2, 307290, Pitch_bend_c, 1, 9344
2, 307300, Pitch_bend_c, 1, 9472
2, 307310, Pitch_bend_c, 1, 9600
2, 307320, Pitch_bend_c, 1, 9600
2, 307440, Pitch_bend_c, 1, 9600
2, 307450, Pitch_bend_c, 1, 9472
2, 307460, Pitch_bend_c, 1, 9344
2, 307470, Pitch_bend_c, 1, 9216
2, 307480, Pitch_bend_c, 1, 9088
2, 307490, Pitch_bend_c, 1, 8960
2, 307500, Pitch_bend_c, 1, 8832
2, 307510, Pitch_bend_c, 1, 8704
2, 307520, Pitch_bend_c, 1, 8576
2, 307530, Pitch_bend_c, 1, 8448
2, 307540, Pitch_bend_c, 1, 8320
2, 307550, Pitch_bend_c, 1, 8192
2, 307560, Pitch_bend_c, 1, 8192
2, 307680, Note_off_c, 0, 58, 95
2, 307680, Pitch_bend_c, 1, 8192
2, 307680, Pitch_bend_c, 1, 8192
2, 307680, Note_off_c, 1, 56, 95
2, 307680, Note_on_c, 0, 54, 95
2, 307680, Note_on_c, 0, 49, 95
2, 307920, Note_off_c, 0, 54, 95
2, 307920, Note_off_c, 0, 49, 95
2, 307920, Note_on_c, 0, 55, 70
2, 307920, Note_on_c, 0, 51, 70
2, 309120, Note_off_c, 0, 55, 70
2, 309120, Note_off_c, 0, 51, 70
2, 309120, Pitch_bend_c, 1, 8192
2, 309120, Note_on_c, 1, 42, 95
2, 309360, Pitch_bend_c, 1, 8320
2, 309600, Pitch_bend_c, 1, 8448
2, 309600, Pitch_bend_c, 1, 8448
2, 309960, Note_on_c, 1, 49, 95
2, 310080, Pitch_bend_c, 1, 8448
2, 310080, Pitch_bend_c, 1, 8192
2, 310080, Note_off_c, 1, 42, 95
2, 310080, Note_off_c, 1, 49, 95
2, 310080, Note_on_c, 1, 51, 95
2, 311040, Note_on_c, 0, 39, 47
2, 312960, Note_off_c, 1, 51, 95
2, 312960, Note_off_c, 0, 39, 47
2, 312960, Note_on_c, 0, 44, 95
2, 313440, Note_off_c, 0, 44, 95
2, 313440, Note_on_c, 0, 46, 70
2, 313920, Note_off_c, 0, 46, 70
2, 313920, Note_on_c, 0, 51, 95
2, 315840, Note_off_c, 0, 51, 95
2, 315840, Note_on_c, 0, 63, 95
2, 315840, Note_on_c, 0, 58, 95
2, 316800, Note_off_c, 0, 63, 95
2, 316800, Note_off_c, 0, 58, 95
2, 316800, Note_on_c, 0, 61, 95
2, 316800, Note_on_c, 1, 56, 95
2, 316920, Pitch_bend_c, 1, 8448
2, 317040, Pitch_bend_c, 1, 8832
2, 317160, Pitch_bend_c, 1, 9216
2, 317280, Pitch_bend_c, 1, 9600
2, 317280, Pitch_bend_c, 1, 8192
2, 317280, Note_off_c, 1, 56, 95
2, 317280, Note_on_c, 0, 58, 95
2, 317760, Note_off_c, 0, 61, 95
2, 317760, Note_off_c, 0, 58, 95
2, 317760, Note_on_c, 0, 61, 95
2, 317760, Note_on_c, 0, 58, 95
2, 318240, Note_off_c, 0, 61, 95
2, 318240, Note_off_c, 0, 58, 95
2, 318240, Note_on_c, 0, 54, 70
2, 318720, Note_off_c, 0, 54, 70
2, 318720, Note_on_c, 0, 39, 95
2, 319680, Note_off_c, 0, 39, 95
2, 319680, Note_on_c, 0, 63, 95
2, 319680, Note_on_c, 0, 58, 95
2, 320640, Note_off_c, 0, 63, 95
2, 320640, Note_off_c, 0, 58, 95
2, 320640, Note_on_c, 0, 61, 95
2, 320640, Pitch_bend_c, 1, 8192
2, 320640, Note_on_c, 1, 56, 95
2, 320683, Pitch_bend_c, 1, 8320
2, 320726, Pitch_bend_c, 1, 8448
2, 320769, Pitch_bend_c, 1, 8576
2, 320812, Pitch_bend_c, 1, 8704
2, 320855, Pitch_bend_c, 1, 8832
2, 320898, Pitch_bend_c, 1, 8960
2, 320941, Pitch_bend_c, 1, 9088
2, 320984, Pitch_bend_c, 1, 9216
2, 321027, Pitch_bend_c, 1, 9344
2, 321070, Pitch_bend_c, 1, 9472
2, 321113, Pitch_bend_c, 1, 9600
2, 321120, Pitch_bend_c, 1, 9600
2, 321600, Note_off_c, 0, 61, 95
2, 321600, Pitch_bend_c, 1, 9600
2, 321600, Pitch_bend_c, 1, 8192
2, 321600, Note_off_c, 1, 56, 95
2, 321600, Note_on_c, 0, 61, 95
2, 321600, Pitch_bend_c, 1, 9600
2, 321600, Note_on_c, 1, 56, 95
2, 321760, Pitch_bend_c, 1, 9600
2, 321774, Pitch_bend_c, 1, 9472
2, 321788, Pitch_bend_c, 1, 9344
2, 321802, Pitch_bend_c, 1, 9216
2, 321816, Pitch_bend_c, 1, 9088
2, 321830, Pitch_bend_c, 1, 8960
2, 321844, Pitch_bend_c, 1, 8832
2, 321858, Pitch_bend_c, 1, 8704
2, 321872, Pitch_bend_c, 1, 8576
2, 321886, Pitch_bend_c, 1, 8448
2, 321900, Pitch_bend_c, 1, 8320
2, 321914, Pitch_bend_c, 1, 8192
2, 321920, Pitch_bend_c, 1, 8192
2, 322080, Note_off_c, 0, 61, 95
2, 322080, Pitch_bend_c, 1, 8192
2, 322080, Pitch_bend_c, 1, 8192
2, 322080, Note_off_c, 1, 56, 95
2, 322080, Note_on_c, 0, 61, 95
2, 322080, Note_on_c, 0, 56, 95
2, 322560, Note_off_c, 0, 61, 95
2, 322560, Note_off_c, 0, 56, 95
2, 322560, Note_on_c, 0, 55, 47
2, 322560, Note_on_c, 0, 51, 47
2, 323520, Note_off_c, 0, 55, 47
2, 323520, Note_off_c, 0, 51, 47
2, 323520, Note_on_c, 0, 63, 95
2, 323520, Note_on_c, 0, 58, 95
2, 323520, Note_on_c, 0, 55, 95
2, 324480, Note_off_c, 0, 63, 95
2, 324480, Note_off_c, 0, 58, 95
2, 324480, Note_off_c, 0, 55, 95
2, 324480, Pitch_bend_c, 1, 8192
2, 324480, Note_on_c, 1, 42, 95
2, 324720, Pitch_bend_c, 1, 8320
2, 324960, Pitch_bend_c, 1, 8448
2, 324960, Pitch_bend_c, 1, 8448
2, 325320, Note_on_c, 1, 49, 95
2, 325440, Pitch_bend_c, 1, 8448
2, 325440, Pitch_bend_c, 1, 8192
2, 325440, Note_off_c, 1, 42, 95
2, 325440, Note_off_c, 1, 49, 95
2, 325440, Note_on_c, 1, 51, 95
2, 326400, Note_off_c, 1, 51, 95
2, 326400, Note_on_c, 0, 39, 95
2, 327360, Note_off_c, 0, 39, 95
2, 329760, Note_on_c, 0, 63, 95
2, 329760, Note_on_c, 0, 58, 95
2, 329760, Note_on_c, 0, 54, 95
2, 329760, Note_on_c, 0, 49, 95
2, 329760, Note_on_c, 0, 44, 95
2, 329760, Note_on_c, 0, 39, 95
2, 329837, Note_off_c, 0, 63, 95
2, 329837, Note_off_c, 0, 58, 95
2, 329837, Note_off_c, 0, 54, 95
2, 329837, Note_off_c, 0, 49, 95
2, 329837, Note_off_c, 0, 44, 95
2, 329837, Note_off_c, 0, 39, 95
2, 330240, Note_on_c, 0, 63, 95
2, 330240, Note_on_c, 0, 58, 95
2, 330240, Note_on_c, 0, 54, 95
2, 330240, Note_on_c, 0, 49, 95
2, 330240, Note_on_c, 0, 44, 95
2, 330240, Note_on_c, 0, 39, 95
2, 330317, Note_off_c, 0, 63, 95
2, 330317, Note_off_c, 0, 58, 95
2, 330317, Note_off_c, 0, 54, 95
2, 330317, Note_off_c, 0, 49, 95
2, 330317, Note_off_c, 0, 44, 95
2, 330317, Note_off_c, 0, 39, 95
2, 334080, Note_on_c, 0, 39, 95
2, 335360, Note_off_c, 0, 39, 95
2, 335360, Note_on_c, 0, 55, 95
2, 335360, Note_on_c, 0, 49, 95
2, 335360, Note_on_c, 0, 46, 95
2, 336000, Note_off_c, 0, 55, 95
2, 336000, Note_off_c, 0, 49, 95
2, 336000, Note_off_c, 0, 46, 95
2, 336000, Note_on_c, 1, 55, 95
2, 336000, Note_on_c, 1, 49, 95
2, 336000, Note_on_c, 1, 46, 95
2, 336128, Pitch_bend_c, 1, 8320
2, 336128, Pitch_bend_c, 1, 8576
2, 336128, Pitch_bend_c, 1, 8320
2, 336256, Pitch_bend_c, 1, 8576
2, 336256, Pitch_bend_c, 1, 8960
2, 336256, Pitch_bend_c, 1, 8576
2, 336384, Pitch_bend_c, 1, 8704
2, 336384, Pitch_bend_c, 1, 9344
2, 336384, Pitch_bend_c, 1, 8704
2, 336512, Pitch_bend_c, 1, 8960
2, 336512, Pitch_bend_c, 1, 9856
2, 336512, Pitch_bend_c, 1, 8960
2, 336640, Pitch_bend_c, 1, 9216
2, 336640, Pitch_bend_c, 1, 10240
2, 336640, Pitch_bend_c, 1, 9216
2, 336768, Pitch_bend_c, 1, 9344
2, 336768, Pitch_bend_c, 1, 10624
2, 336768, Pitch_bend_c, 1, 9344
2, 336896, Pitch_bend_c, 1, 9600
2, 336896, Pitch_bend_c, 1, 11136
2, 336896, Pitch_bend_c, 1, 9600
2, 337024, Pitch_bend_c, 1, 9856
2, 337024, Pitch_bend_c, 1, 11520
2, 337024, Pitch_bend_c, 1, 9856
2, 337152, Pitch_bend_c, 1, 9984
2, 337152, Pitch_bend_c, 1, 11904
2, 337152, Pitch_bend_c, 1, 9984
2, 337280, Pitch_bend_c, 1, 10240
2, 337280, Pitch_bend_c, 1, 8192
2, 337280, Note_off_c, 1, 55, 95
2, 337280, Pitch_bend_c, 1, 12416
2, 337280, Pitch_bend_c, 1, 8192
2, 337280, Note_off_c, 1, 49, 95
2, 337280, Pitch_bend_c, 1, 10240
2, 337280, Pitch_bend_c, 1, 8192
2, 337280, Note_off_c, 1, 46, 95
2, 337280, Note_on_c, 0, 58, 95
2, 337280, Note_on_c, 0, 58, 95
2, 337280, Note_on_c, 0, 55, 95
2, 337280, Note_on_c, 0, 49, 95
2, 337920, Note_off_c, 0, 58, 95
2, 337920, Note_off_c, 0, 58, 95
2, 337920, Note_off_c, 0, 55, 95
2, 337920, Note_off_c, 0, 49, 95
2, 337920, Note_on_c, 1, 58, 95
2, 337920, Note_on_c, 1, 55, 95
2, 337920, Note_on_c, 1, 49, 95
2, 338040, Pitch_bend_c, 1, 8064
2, 338160, Pitch_bend_c, 1, 7936
2, 338280, Pitch_bend_c, 1, 7680
2, 338400, Pitch_bend_c, 1, 7552
2, 338520, Pitch_bend_c, 1, 7424
2, 338640, Pitch_bend_c, 1, 7168
2, 338760, Pitch_bend_c, 1, 7040
2, 338880, Pitch_bend_c, 1, 6784
2, 338880, Pitch_bend_c, 1, 8192
2, 338880, Note_off_c, 1, 58, 95
2, 338880, Note_off_c, 1, 55, 95
2, 338880, Note_off_c, 1, 49, 95
2, 338880, Note_on_c, 1, 56, 95
2, 339000, Pitch_bend_c, 1, 8448
2, 339120, Pitch_bend_c, 1, 8832
2, 339240, Pitch_bend_c, 1, 9216
2, 339360, Pitch_bend_c, 1, 9600
2, 339360, Pitch_bend_c, 1, 8192
2, 339360, Note_off_c, 1, 56, 95
2, 339360, Note_on_c, 0, 58, 95
2, 339840, Note_off_c, 0, 58, 95
2, 339840, Note_on_c, 0, 67, 95
2, 339840, Note_on_c, 0, 61, 95
2, 339840, Note_on_c, 0, 58, 95
2, 340320, Note_off_c, 0, 67, 95
2, 340320, Note_off_c, 0, 61, 95
2, 340320, Note_off_c, 0, 58, 95
2, 340320, Note_on_c, 0, 67, 95
2, 340320, Note_on_c, 0, 61, 95
2, 340320, Note_on_c, 0, 58, 95
2, 340800, Note_off_c, 0, 67, 95
2, 340800, Note_off_c, 0, 61, 95
2, 340800, Note_off_c, 0, 58, 95
2, 340800, Note_on_c, 1, 67, 95
2, 340800, Note_on_c, 1, 61, 95
2, 340800, Note_on_c, 1, 58, 95
2, 340920, Pitch_bend_c, 1, 7936
2, 340920, Pitch_bend_c, 1, 7936
2, 340920, Pitch_bend_c, 1, 7936
2, 341040, Pitch_bend_c, 1, 7552
2, 341040, Pitch_bend_c, 1, 8192
2, 341040, Note_off_c, 1, 67, 95
2, 341040, Pitch_bend_c, 1, 7552
2, 341040, Pitch_bend_c, 1, 8192
2, 341040, Note_off_c, 1, 61, 95
2, 341040, Pitch_bend_c, 1, 7552
2, 341040, Pitch_bend_c, 1, 8192
2, 341040, Note_off_c, 1, 58, 95
2, 341040, Note_on_c, 1, 66, 95
2, 341040, Note_on_c, 1, 60, 95
2, 341040, Note_on_c, 1, 57, 95
2, 341160, Pitch_bend_c, 1, 7936
2, 341160, Pitch_bend_c, 1, 7552
2, 341160, Pitch_bend_c, 1, 7936
2, 341280, Pitch_bend_c, 1, 7552
2, 341280, Pitch_bend_c, 1, 8192
2, 341280, Note_off_c, 1, 66, 95
2, 341280, Pitch_bend_c, 1, 6784
2, 341280, Pitch_bend_c, 1, 8192
2, 341280, Note_off_c, 1, 60, 95
2, 341280, Pitch_bend_c, 1, 7552
2, 341280, Pitch_bend_c, 1, 8192
2, 341280, Note_off_c, 1, 57, 95
2, 341280, Note_on_c, 0, 65, 95
2, 341280, Note_on_c, 0, 58, 95
2, 341280, Note_on_c, 0, 56, 95
2, 341520, Note_off_c, 0, 65, 95
2, 341520, Note_off_c, 0, 58, 95
2, 341520, Note_off_c, 0, 56, 95
2, 341520, Note_on_c, 0, 54, 70
2, 341760, Note_off_c, 0, 54, 70
2, 341760, Note_on_c, 0, 51, 95
2, 341760, Note_on_c, 0, 46, 95
2, 341760, Note_on_c, 0, 39, 95
2, 342720, Note_off_c, 0, 51, 95
2, 342720, Note_off_c, 0, 46, 95
2, 342720, Note_on_c, 0, 63, 95
2, 342720, Note_on_c, 0, 58, 95
2, 343680, Note_off_c, 0, 39, 95
2, 343680, Note_off_c, 0, 58, 95
2, 343680, Note_on_c, 0, 58, 95
2, 343680, Note_on_c, 0, 54, 95
2, 343680, Note_on_c, 0, 49, 95
2, 344160, Note_off_c, 0, 63, 95
2, 344160, Note_off_c, 0, 58, 95
2, 344160, Note_off_c, 0, 54, 95
2, 344160, Note_off_c, 0, 49, 95
2, 344640, Note_on_c, 0, 58, 95
2, 344640, Note_on_c, 0, 54, 95
2, 344640, Note_on_c, 0, 49, 95
2, 345120, Note_off_c, 0, 54, 95
2, 345120, Note_off_c, 0, 49, 95
2, 345120, Note_on_c, 0, 55, 70
2, 345120, Note_on_c, 0, 51, 70
2, 345600, Note_off_c, 0, 58, 95
2, 345600, Note_off_c, 0, 55, 70
2, 345600, Note_off_c, 0, 51, 70
2, 345600, Note_on_c, 0, 67, 95
2, 345600, Note_on_c, 0, 61, 95
2, 345600, Note_on_c, 0, 58, 95
2, 346080, Note_off_c, 0, 67, 95
2, 346080, Note_off_c, 0, 61, 95
2, 346080, Note_off_c, 0, 58, 95
2, 346080, Note_on_c, 0, 58, 95
2, 346080, Note_on_c, 0, 54, 95
2, 346080, Note_on_c, 0, 49, 95
2, 346560, Note_off_c, 0, 54, 95
2, 346560, Note_off_c, 0, 49, 95
2, 346560, Note_on_c, 0, 55, 70
2, 346560, Note_on_c, 0, 51, 70
2, 347520, Note_off_c, 0, 58, 95
2, 347520, Note_off_c, 0, 55, 70
2, 347520, Note_off_c, 0, 51, 70
2, 347520, Note_on_c, 0, 55, 95
2, 347520, Note_on_c, 0, 49, 95
2, 348000, Note_off_c, 0, 55, 95
2, 348000, Note_off_c, 0, 49, 95
2, 348000, Note_on_c, 0, 39, 95
2, 348480, Note_off_c, 0, 39, 95
2, 348480, Note_on_c, 1, 46, 95
2, 348600, Pitch_bend_c, 1, 8448
2, 348720, Pitch_bend_c, 1, 8832
2, 348840, Pitch_bend_c, 1, 9216
2, 348960, Pitch_bend_c, 1, 9600
2, 348960, Pitch_bend_c, 1, 8192
2, 348960, Note_off_c, 1, 46, 95
2, 348960, Note_on_c, 0, 48, 95
2, 349440, Note_off_c, 0, 48, 95
2, 349440, Note_on_c, 0, 49, 95
2, 350400, Note_off_c, 0, 49, 95
2, 350400, Note_on_c, 0, 49, 95
2, 351360, Note_off_c, 0, 49, 95
2, 351360, Note_on_c, 0, 52, 95
2, 352320, Note_off_c, 0, 52, 95
2, 352320, Note_on_c, 0, 53, 95
2, 353280, Note_off_c, 0, 53, 95
2, 353280, Note_on_c, 0, 59, 95
2, 353280, Note_on_c, 0, 56, 95
2, 353280, Note_on_c, 0, 49, 95
2, 354240, Note_off_c, 0, 59, 95
2, 354240, Note_off_c, 0, 56, 95
2, 354240, Note_off_c, 0, 49, 95
2, 354240, Note_on_c, 0, 59, 95
2, 354240, Note_on_c, 0, 56, 95
2, 354240, Note_on_c, 0, 49, 95
2, 354720, Note_off_c, 0, 59, 95
2, 354720, Note_off_c, 0, 56, 95
2, 354720, Note_off_c, 0, 49, 95
2, 354720, Note_on_c, 0, 59, 95
2, 354720, Note_on_c, 0, 56, 95
2, 354720, Note_on_c, 0, 49, 95
2, 355200, Note_off_c, 0, 59, 95
2, 355200, Note_off_c, 0, 56, 95
2, 355200, Note_off_c, 0, 49, 95
2, 355200, Note_on_c, 0, 61, 95
2, 355200, Note_on_c, 0, 59, 95
2, 355200, Note_on_c, 0, 53, 95
2, 355680, Note_off_c, 0, 61, 95
2, 355680, Note_off_c, 0, 59, 95
2, 355680, Note_off_c, 0, 53, 95
2, 355680, Note_on_c, 0, 61, 95
2, 355680, Note_on_c, 0, 59, 95
2, 355680, Note_on_c, 0, 53, 95
2, 356160, Note_off_c, 0, 61, 95
2, 356160, Note_off_c, 0, 59, 95
2, 356160, Note_off_c, 0, 53, 95
2, 356160, Note_on_c, 0, 59, 95
2, 356160, Note_on_c, 0, 56, 95
2, 356160, Note_on_c, 0, 49, 95
2, 356640, Note_off_c, 0, 59, 95
2, 356640, Note_off_c, 0, 56, 95
2, 356640, Note_off_c, 0, 49, 95
2, 356640, Note_on_c, 0, 59, 95
2, 356640, Note_on_c, 0, 56, 95
2, 356640, Note_on_c, 0, 49, 95
2, 357120, Note_off_c, 0, 59, 95
2, 357120, Note_off_c, 0, 56, 95
2, 357120, Note_off_c, 0, 49, 95
2, 357120, Note_on_c, 0, 66, 95
2, 357120, Note_on_c, 0, 61, 95
2, 357600, Note_off_c, 0, 61, 95
2, 357600, Note_on_c, 0, 63, 70
2, 358080, Note_off_c, 0, 66, 95
2, 358080, Note_off_c, 0, 63, 70
2, 358080, Note_on_c, 0, 66, 95
2, 358080, Note_on_c, 0, 61, 95
2, 358560, Note_off_c, 0, 66, 95
2, 358560, Note_off_c, 0, 61, 95
2, 358560, Note_on_c, 0, 54, 95
2, 358560, Note_on_c, 0, 49, 95
2, 358920, Note_on_c, 1, 56, 95
2, 359040, Note_off_c, 0, 54, 95
2, 359040, Note_off_c, 0, 49, 95
2, 359040, Note_on_c, 0, 61, 95
2, 359040, Note_off_c, 1, 56, 95
2, 359040, Note_on_c, 1, 58, 95
2, 359520, Note_off_c, 1, 58, 95
2, 359520, Note_on_c, 0, 56, 70
2, 360000, Note_off_c, 0, 61, 95
2, 360000, Note_off_c, 0, 56, 70
2, 360000, Note_on_c, 0, 54, 95
2, 360000, Note_on_c, 0, 49, 95
2, 360480, Note_off_c, 0, 54, 95
2, 360480, Note_off_c, 0, 49, 95
2, 360480, Note_on_c, 1, 58, 95
2, 360480, Note_on_c, 1, 54, 95
2, 360600, Pitch_bend_c, 1, 8448
2, 360600, Pitch_bend_c, 1, 8448
2, 360720, Pitch_bend_c, 1, 8832
2, 360720, Pitch_bend_c, 1, 8832
2, 360840, Pitch_bend_c, 1, 9216
2, 360840, Pitch_bend_c, 1, 9216
2, 360960, Pitch_bend_c, 1, 9600
2, 360960, Pitch_bend_c, 1, 8192
2, 360960, Note_off_c, 1, 58, 95
2, 360960, Pitch_bend_c, 1, 9600
2, 360960, Pitch_bend_c, 1, 8192
2, 360960, Note_off_c, 1, 54, 95
2, 360960, Note_on_c, 0, 60, 95
2, 360960, Note_on_c, 0, 56, 95
2, 360960, Note_on_c, 0, 44, 95
2, 361920, Note_off_c, 0, 60, 95
2, 361920, Note_off_c, 0, 56, 95
2, 361920, Note_off_c, 0, 44, 95
2, 361920, Note_on_c, 0, 60, 95
2, 361920, Note_on_c, 0, 56, 95
2, 361920, Note_on_c, 0, 44, 95
2, 362880, Note_off_c, 0, 60, 95
2, 362880, Note_off_c, 0, 56, 95
2, 362880, Note_off_c, 0, 44, 95
2, 362880, Note_on_c, 0, 60, 95
2, 362880, Note_on_c, 0, 56, 95
2, 362880, Note_on_c, 0, 44, 95
2, 363840, Note_off_c, 0, 60, 95
2, 363840, Note_off_c, 0, 56, 95
2, 363840, Note_off_c, 0, 44, 95
2, 363840, Note_on_c, 0, 49, 95
2, 364320, Note_off_c, 0, 49, 95
2, 364320, Note_on_c, 0, 51, 95
2, 364800, Note_off_c, 0, 51, 95
2, 364800, Note_on_c, 0, 56, 95
2, 365760, Note_off_c, 0, 56, 95
2, 365760, Note_on_c, 0, 54, 95
2, 366720, Note_off_c, 0, 54, 95
2, 366720, Note_on_c, 0, 51, 95
2, 366720, Note_on_c, 0, 39, 95
2, 367680, Note_off_c, 0, 51, 95
2, 367680, Note_off_c, 0, 39, 95
2, 367680, Note_on_c, 0, 58, 95
2, 367680, Note_on_c, 0, 54, 95
2, 367680, Note_on_c, 0, 49, 95
2, 367680, Note_on_c, 0, 49, 95
2, 368640, Note_off_c, 0, 58, 95
2, 368640, Note_off_c, 0, 54, 95
2, 368640, Note_off_c, 0, 49, 95
2, 368640, Note_off_c, 0, 49, 95
2, 368640, Note_on_c, 0, 39, 95
2, 369600, Note_off_c, 0, 39, 95
2, 369600, Pitch_bend_c, 1, 8192
2, 369600, Note_on_c, 1, 61, 95
2, 369840, Pitch_bend_c, 1, 8320
2, 370080, Pitch_bend_c, 1, 8448
2, 370080, Pitch_bend_c, 1, 8448
2, 370560, Pitch_bend_c, 1, 8448
2, 370560, Pitch_bend_c, 1, 8192
2, 370560, Note_off_c, 1, 61, 95
2, 370560, Note_on_c, 0, 58, 95
2, 371520, Note_off_c, 0, 58, 95
2, 371520, Note_on_c, 0, 57, 95
2, 372000, Note_off_c, 0, 57, 95
2, 372000, Note_on_c, 0, 56, 95
2, 372480, Note_off_c, 0, 56, 95
2, 372480, Note_on_c, 0, 54, 95
2, 372960, Note_off_c, 0, 54, 95
2, 372960, Note_on_c, 0, 63, 95
2, 372960, Note_on_c, 0, 58, 95
2, 372960, Note_on_c, 0, 55, 95
2, 372960, Note_on_c, 0, 49, 95
2, 376800, Note_off_c, 0, 63, 95
2, 376800, Note_off_c, 0, 58, 95
2, 376800, Note_off_c, 0, 55, 95
2, 376800, Note_off_c, 0, 49, 95
2, 376800, Pitch_bend_c, 1, 8192
2, 376800, Note_on_c, 1, 78, 95
2, 376843, Pitch_bend_c, 1, 8320
2, 376886, Pitch_bend_c, 1, 8448
2, 376929, Pitch_bend_c, 1, 8576
2, 376972, Pitch_bend_c, 1, 8704
2, 377015, Pitch_bend_c, 1, 8832
2, 377058, Pitch_bend_c, 1, 8960
2, 377101, Pitch_bend_c, 1, 9088
2, 377144, Pitch_bend_c, 1, 9216
2, 377187, Pitch_bend_c, 1, 9344
2, 377230, Pitch_bend_c, 1, 9472
2, 377273, Pitch_bend_c, 1, 9600
2, 377280, Pitch_bend_c, 1, 9600
2, 377760, Pitch_bend_c, 1, 9600
2, 377760, Pitch_bend_c, 1, 8192
2, 377760, Note_off_c, 1, 78, 95
2, 377760, Pitch_bend_c, 1, 8192
2, 377760, Note_on_c, 1, 78, 95
2, 377880, Pitch_bend_c, 1, 8320
2, 378000, Pitch_bend_c, 1, 8448
2, 378000, Pitch_bend_c, 1, 8448
2, 378240, Pitch_bend_c, 1, 8448
2, 378240, Pitch_bend_c, 1, 8192
2, 378240, Note_off_c, 1, 78, 95
2, 378240, Pitch_bend_c, 1, 8192
2, 378240, Note_on_c, 1, 75, 95
2, 378360, Pitch_bend_c, 1, 8320
2, 378480, Pitch_bend_c, 1, 8448
2, 378480, Pitch_bend_c, 1, 8448
2, 378720, Pitch_bend_c, 1, 8448
2, 378720, Pitch_bend_c, 1, 8192
2, 378720, Note_off_c, 1, 75, 95
2, 378720, Pitch_bend_c, 1, 8192
2, 378720, Note_on_c, 1, 73, 95
2, 378840, Pitch_bend_c, 1, 8320
2, 378960, Pitch_bend_c, 1, 8448
2, 378960, Pitch_bend_c, 1, 8448
2, 379200, Pitch_bend_c, 1, 8448
2, 379200, Pitch_bend_c, 1, 8192
2, 379200, Note_off_c, 1, 73, 95
2, 379200, Pitch_bend_c, 1, 8192
2, 379200, Note_on_c, 1, 70, 95
2, 379320, Pitch_bend_c, 1, 8320
2, 379440, Pitch_bend_c, 1, 8448
2, 379440, Pitch_bend_c, 1, 8448
2, 379680, Pitch_bend_c, 1, 8448
2, 379680, Pitch_bend_c, 1, 8192
2, 379680, Note_off_c, 1, 70, 95
2, 379680, Pitch_bend_c, 1, 8192
2, 379680, Note_on_c, 1, 68, 95
2, 379701, Pitch_bend_c, 1, 8320
2, 379722, Pitch_bend_c, 1, 8448
2, 379743, Pitch_bend_c, 1, 8576
2, 379764, Pitch_bend_c, 1, 8704
2, 379785, Pitch_bend_c, 1, 8832
2, 379806, Pitch_bend_c, 1, 8960
2, 379827, Pitch_bend_c, 1, 9088
2, 379848, Pitch_bend_c, 1, 9216
2, 379869, Pitch_bend_c, 1, 9344
2, 379890, Pitch_bend_c, 1, 9472
2, 379911, Pitch_bend_c, 1, 9600
2, 379920, Pitch_bend_c, 1, 9600
2, 380160, Pitch_bend_c, 1, 9600
2, 380160, Pitch_bend_c, 1, 8192
2, 380160, Note_off_c, 1, 68, 95
2, 380160, Pitch_bend_c, 1, 8832
2, 380160, Note_on_c, 1, 66, 95
2, 383520, Note_on_c, 0, 39, 95
2, 384000, Pitch_bend_c, 1, 8832
2, 384000, Pitch_bend_c, 1, 8192
2, 384000, Note_off_c, 1, 66, 95
2, 384480, Note_off_c, 0, 39, 95
2, 384480, Note_on_c, 0, 73, 95
2, 384480, Pitch_bend_c, 1, 8192
2, 384480, Note_on_c, 1, 68, 95
2, 384523, Pitch_bend_c, 1, 8320
2, 384566, Pitch_bend_c, 1, 8448
2, 384609, Pitch_bend_c, 1, 8576
2, 384652, Pitch_bend_c, 1, 8704
2, 384695, Pitch_bend_c, 1, 8832
2, 384738, Pitch_bend_c, 1, 8960
2, 384781, Pitch_bend_c, 1, 9088
2, 384824, Pitch_bend_c, 1, 9216
2, 384867, Pitch_bend_c, 1, 9344
2, 384910, Pitch_bend_c, 1, 9472
2, 384953, Pitch_bend_c, 1, 9600
2, 384960, Pitch_bend_c, 1, 9600
2, 385440, Note_off_c, 0, 73, 95
2, 385440, Pitch_bend_c, 1, 9600
2, 385440, Pitch_bend_c, 1, 8192
2, 385440, Note_off_c, 1, 68, 95
2, 385440, Note_on_c, 0, 73, 95
2, 385440, Pitch_bend_c, 1, 9600
2, 385440, Note_on_c, 1, 68, 95
2, 385920, Note_off_c, 0, 73, 95
2, 385920, Pitch_bend_c, 1, 9600
2, 385920, Pitch_bend_c, 1, 8192
2, 385920, Note_off_c, 1, 68, 95
2, 385920, Note_on_c, 0, 73, 95
2, 385920, Note_on_c, 0, 68, 95
2, 386400, Note_off_c, 0, 73, 95
2, 386400, Note_off_c, 0, 68, 95
2, 386400, Note_on_c, 0, 70, 95
2, 386400, Note_on_c, 0, 66, 95
2, 386400, Note_on_c, 0, 49, 95
2, 386880, Note_off_c, 0, 70, 95
2, 386880, Note_off_c, 0, 66, 95
2, 386880, Note_off_c, 0, 49, 95
2, 386880, Note_on_c, 0, 66, 95
2, 386880, Note_on_c, 0, 63, 95
2, 386880, Note_on_c, 0, 44, 95
2, 387360, Note_off_c, 0, 66, 95
2, 387360, Note_off_c, 0, 63, 95
2, 387360, Note_off_c, 0, 44, 95
2, 387360, Note_on_c, 0, 66, 95
2, 387360, Note_on_c, 0, 63, 95
2, 387360, Note_on_c, 0, 44, 95
2, 387840, Note_off_c, 0, 66, 95
2, 387840, Note_off_c, 0, 63, 95
2, 387840, Note_off_c, 0, 44, 95
2, 387840, Pitch_bend_c, 1, 8192
2, 387840, Note_on_c, 1, 66, 95
2, 388800, Pitch_bend_c, 1, 8320
2, 389760, Pitch_bend_c, 1, 8448
2, 389760, Pitch_bend_c, 1, 8448
2, 391680, Pitch_bend_c, 1, 8448
2, 391680, Pitch_bend_c, 1, 8192
2, 391680, Note_off_c, 1, 66, 95
2, 391680, Note_on_c, 0, 39, 95
2, 392640, Note_off_c, 0, 39, 95
2, 392640, Note_on_c, 0, 39, 95
2, 393600, Note_off_c, 0, 39, 95
2, 393600, Note_on_c, 0, 73, 95
2, 393600, Pitch_bend_c, 1, 8192
2, 393600, Note_on_c, 1, 68, 95
2, 393643, Pitch_bend_c, 1, 8320
2, 393686, Pitch_bend_c, 1, 8448
2, 393729, Pitch_bend_c, 1, 8576
2, 393772, Pitch_bend_c, 1, 8704
2, 393815, Pitch_bend_c, 1, 8832
2, 393858, Pitch_bend_c, 1, 8960
2, 393901, Pitch_bend_c, 1, 9088
2, 393944, Pitch_bend_c, 1, 9216
2, 393987, Pitch_bend_c, 1, 9344
2, 394030, Pitch_bend_c, 1, 9472
2, 394073, Pitch_bend_c, 1, 9600
2, 394080, Pitch_bend_c, 1, 9600
2, 394560, Note_off_c, 0, 73, 95
2, 394560, Pitch_bend_c, 1, 9600
2, 394560, Pitch_bend_c, 1, 8192
2, 394560, Note_off_c, 1, 68, 95
2, 394560, Note_on_c, 0, 73, 95
2, 394560, Pitch_bend_c, 1, 8192
2, 394560, Note_on_c, 1, 68, 95
2, 394603, Pitch_bend_c, 1, 8320
2, 394646, Pitch_bend_c, 1, 8448
2, 394689, Pitch_bend_c, 1, 8576
2, 394732, Pitch_bend_c, 1, 8704
2, 394775, Pitch_bend_c, 1, 8832
2, 394818, Pitch_bend_c, 1, 8960
2, 394861, Pitch_bend_c, 1, 9088
2, 394904, Pitch_bend_c, 1, 9216
2, 394947, Pitch_bend_c, 1, 9344
2, 394990, Pitch_bend_c, 1, 9472
2, 395033, Pitch_bend_c, 1, 9600
2, 395040, Pitch_bend_c, 1, 9600
2, 395520, Note_off_c, 0, 73, 95
2, 395520, Pitch_bend_c, 1, 9600
2, 395520, Pitch_bend_c, 1, 8192
2, 395520, Note_off_c, 1, 68, 95
2, 395520, Note_on_c, 0, 73, 95
2, 395520, Pitch_bend_c, 1, 8192
2, 395520, Note_on_c, 1, 68, 95
2, 395534, Pitch_bend_c, 1, 8320
2, 395548, Pitch_bend_c, 1, 8448
2, 395562, Pitch_bend_c, 1, 8576
2, 395576, Pitch_bend_c, 1, 8704
2, 395590, Pitch_bend_c, 1, 8832
2, 395604, Pitch_bend_c, 1, 8960
2, 395618, Pitch_bend_c, 1, 9088
2, 395632, Pitch_bend_c, 1, 9216
2, 395646, Pitch_bend_c, 1, 9344
2, 395660, Pitch_bend_c, 1, 9472
2, 395674, Pitch_bend_c, 1, 9600
2, 395680, Pitch_bend_c, 1, 9600
2, 395840, Note_off_c, 0, 73, 95
2, 395840, Pitch_bend_c, 1, 9600
2, 395840, Pitch_bend_c, 1, 8192
2, 395840, Note_off_c, 1, 68, 95
2, 395840, Note_on_c, 0, 66, 95
2, 396160, Note_off_c, 0, 66, 95
2, 396160, Note_on_c, 0, 63, 95
2, 396160, Note_on_c, 0, 44, 95
2, 396480, Note_off_c, 0, 63, 95
2, 396480, Note_off_c, 0, 44, 95
2, 396480, Note_on_c, 0, 63, 95
2, 396480, Note_on_c, 0, 44, 95
2, 396480, Note_on_c, 0, 39, 95
2, 399240, Note_on_c, 1, 61, 95
2, 399360, Note_off_c, 0, 63, 95
2, 399360, Note_off_c, 0, 44, 95
2, 399360, Note_off_c, 0, 39, 95
2, 399360, Note_off_c, 1, 61, 95
2, 399360, Note_on_c, 1, 63, 95
2, 400320, Note_off_c, 1, 63, 95
2, 400320, Note_on_c, 0, 63, 95
2, 400800, Note_off_c, 0, 63, 95
2, 400800, Note_on_c, 0, 61, 95
2, 401280, Note_off_c, 0, 61, 95
2, 401280, Pitch_bend_c, 1, 8192
2, 401280, Note_on_c, 1, 56, 95
2, 401295, Pitch_bend_c, 1, 8320
2, 401310, Pitch_bend_c, 1, 8448
2, 401325, Pitch_bend_c, 1, 8576
2, 401340, Pitch_bend_c, 1, 8704
2, 401355, Pitch_bend_c, 1, 8832
2, 401370, Pitch_bend_c, 1, 8960
2, 401385, Pitch_bend_c, 1, 9088
2, 401400, Pitch_bend_c, 1, 9216
2, 401400, Pitch_bend_c, 1, 9216
2, 401520, Pitch_bend_c, 1, 9216
2, 401535, Pitch_bend_c, 1, 9088
2, 401550, Pitch_bend_c, 1, 8960
2, 401565, Pitch_bend_c, 1, 8832
2, 401580, Pitch_bend_c, 1, 8704
2, 401595, Pitch_bend_c, 1, 8576
2, 401610, Pitch_bend_c, 1, 8448
2, 401625, Pitch_bend_c, 1, 8320
2, 401640, Pitch_bend_c, 1, 8192
2, 401640, Pitch_bend_c, 1, 8192
2, 401760, Pitch_bend_c, 1, 8192
2, 401760, Pitch_bend_c, 1, 8192
2, 401760, Note_off_c, 1, 56, 95
2, 401760, Note_on_c, 0, 54, 95
2, 402240, Note_off_c, 0, 54, 95
2, 402240, Note_on_c, 0, 39, 95
2, 402720, Note_off_c, 0, 39, 95
2, 402720, Note_on_c, 0, 49, 95
2, 403200, Note_off_c, 0, 49, 95
2, 403200, Note_on_c, 0, 57, 95
2, 403440, Note_off_c, 0, 57, 95
2, 403440, Note_on_c, 0, 56, 95
2, 403680, Note_off_c, 0, 56, 95
2, 403680, Note_on_c, 0, 54, 95
2, 403920, Note_off_c, 0, 54, 95
2, 403920, Note_on_c, 0, 51, 95
2, 404160, Note_off_c, 0, 51, 95
2, 404160, Note_on_c, 0, 39, 95
2, 407040, Note_off_c, 0, 39, 95
2, 407040, Note_on_c, 0, 66, 95
2, 408000, Note_off_c, 0, 66, 95
2, 408000, Pitch_bend_c, 1, 8192
2, 408000, Note_on_c, 1, 68, 95
2, 408043, Pitch_bend_c, 1, 8320
2, 408086, Pitch_bend_c, 1, 8448
2, 408129, Pitch_bend_c, 1, 8576
2, 408172, Pitch_bend_c, 1, 8704
2, 408215, Pitch_bend_c, 1, 8832
2, 408258, Pitch_bend_c, 1, 8960
2, 408301, Pitch_bend_c, 1, 9088
2, 408344, Pitch_bend_c, 1, 9216
2, 408387, Pitch_bend_c, 1, 9344
2, 408430, Pitch_bend_c, 1, 9472
2, 408473, Pitch_bend_c, 1, 9600
2, 408480, Pitch_bend_c, 1, 9600
2, 408960, Pitch_bend_c, 1, 9600
2, 408960, Pitch_bend_c, 1, 8192
2, 408960, Note_off_c, 1, 68, 95
2, 408960, Note_on_c, 0, 73, 95
2, 409680, Note_off_c, 0, 73, 95
2, 409680, Note_on_c, 0, 73, 95
2, 409680, Pitch_bend_c, 1, 9600
2, 409680, Note_on_c, 1, 68, 95
2, 409786, Pitch_bend_c, 1, 9600
2, 409795, Pitch_bend_c, 1, 9472
2, 409804, Pitch_bend_c, 1, 9344
2, 409813, Pitch_bend_c, 1, 9216
2, 409822, Pitch_bend_c, 1, 9088
2, 409831, Pitch_bend_c, 1, 8960
2, 409840, Pitch_bend_c, 1, 8832
2, 409849, Pitch_bend_c, 1, 8704
2, 409858, Pitch_bend_c, 1, 8576
2, 409867, Pitch_bend_c, 1, 8448
2, 409876, Pitch_bend_c, 1, 8320
2, 409885, Pitch_bend_c, 1, 8192
2, 409893, Pitch_bend_c, 1, 8192
2, 410000, Pitch_bend_c, 1, 8192
2, 410000, Pitch_bend_c, 1, 8192
2, 410000, Note_off_c, 1, 68, 95
2, 410000, Note_on_c, 0, 68, 95
2, 410320, Note_off_c, 0, 68, 95
2, 410320, Note_on_c, 0, 66, 95
2, 410640, Note_off_c, 0, 73, 95
2, 410640, Note_off_c, 0, 66, 95
2, 410640, Note_on_c, 0, 63, 95
2, 410880, Note_off_c, 0, 63, 95
2, 410880, Note_on_c, 0, 39, 95
2, 411360, Note_off_c, 0, 39, 95
2, 418560, Pitch_bend_c, 1, 8192
2, 418560, Note_on_c, 1, 73, 95
2, 418633, Pitch_bend_c, 1, 8320
2, 418706, Pitch_bend_c, 1, 8448
2, 418779, Pitch_bend_c, 1, 8576
2, 418852, Pitch_bend_c, 1, 8704
2, 418925, Pitch_bend_c, 1, 8832
2, 418998, Pitch_bend_c, 1, 8960
2, 419071, Pitch_bend_c, 1, 9088
2, 419144, Pitch_bend_c, 1, 9216
2, 419217, Pitch_bend_c, 1, 9344
2, 419290, Pitch_bend_c, 1, 9472
2, 419363, Pitch_bend_c, 1, 9600
2, 419436, Pitch_bend_c, 1, 9728
2, 419509, Pitch_bend_c, 1, 9856
2, 419520, Pitch_bend_c, 1, 9856
2, 420480, Pitch_bend_c, 1, 9856
2, 420480, Pitch_bend_c, 1, 8192
2, 420480, Note_off_c, 1, 73, 95
2, 420480, Pitch_bend_c, 1, 8192
2, 420480, Note_on_c, 1, 73, 95
2, 420501, Pitch_bend_c, 1, 8320
2, 420522, Pitch_bend_c, 1, 8448
2, 420543, Pitch_bend_c, 1, 8576
2, 420564, Pitch_bend_c, 1, 8704
2, 420585, Pitch_bend_c, 1, 8832
2, 420606, Pitch_bend_c, 1, 8960
2, 420627, Pitch_bend_c, 1, 9088
2, 420648, Pitch_bend_c, 1, 9216
2, 420669, Pitch_bend_c, 1, 9344
2, 420690, Pitch_bend_c, 1, 9472
2, 420711, Pitch_bend_c, 1, 9600
2, 420720, Pitch_bend_c, 1, 9600
2, 420960, Pitch_bend_c, 1, 9600
2, 420960, Pitch_bend_c, 1, 8192
2, 420960, Note_off_c, 1, 73, 95
2, 420960, Note_on_c, 0, 73, 95
2, 421440, Note_off_c, 0, 73, 95
2, 421440, Pitch_bend_c, 1, 8192
2, 421440, Note_on_c, 1, 70, 95
2, 421560, Pitch_bend_c, 1, 8320
2, 421680, Pitch_bend_c, 1, 8448
2, 421680, Pitch_bend_c, 1, 8448
2, 421920, Pitch_bend_c, 1, 8448
2, 421920, Pitch_bend_c, 1, 8192
2, 421920, Note_off_c, 1, 70, 95
2, 421920, Note_on_c, 0, 69, 95
2, 422280, Note_off_c, 0, 69, 95
2, 422880, Pitch_bend_c, 1, 8192
2, 422880, Note_on_c, 1, 78, 95
2, 422901, Pitch_bend_c, 1, 8320
2, 422922, Pitch_bend_c, 1, 8448
2, 422943, Pitch_bend_c, 1, 8576
2, 422964, Pitch_bend_c, 1, 8704
2, 422985, Pitch_bend_c, 1, 8832
2, 423006, Pitch_bend_c, 1, 8960
2, 423027, Pitch_bend_c, 1, 9088
2, 423048, Pitch_bend_c, 1, 9216
2, 423069, Pitch_bend_c, 1, 9344
2, 423090, Pitch_bend_c, 1, 9472
2, 423111, Pitch_bend_c, 1, 9600
2, 423120, Pitch_bend_c, 1, 9600
2, 423360, Pitch_bend_c, 1, 9600
2, 423360, Pitch_bend_c, 1, 8192
2, 423360, Note_off_c, 1, 78, 95
2, 423360, Pitch_bend_c, 1, 8192
2, 423360, Note_on_c, 1, 73, 95
2, 423408, Pitch_bend_c, 1, 8320
2, 423456, Pitch_bend_c, 1, 8448
2, 423504, Pitch_bend_c, 1, 8576
2, 423552, Pitch_bend_c, 1, 8704
2, 423600, Pitch_bend_c, 1, 8832
2, 423600, Pitch_bend_c, 1, 8832
2, 423840, Pitch_bend_c, 1, 8832
2, 423840, Pitch_bend_c, 1, 8192
2, 423840, Note_off_c, 1, 73, 95
2, 423840, Pitch_bend_c, 1, 8192
2, 423840, Note_on_c, 1, 69, 95
2, 423960, Pitch_bend_c, 1, 8320
2, 424080, Pitch_bend_c, 1, 8448
2, 424080, Pitch_bend_c, 1, 8448
2, 424320, Pitch_bend_c, 1, 8448
2, 424320, Pitch_bend_c, 1, 8192
2, 424320, Note_off_c, 1, 69, 95
2, 424320, Pitch_bend_c, 1, 8192
2, 424320, Note_on_c, 1, 73, 95
2, 424368, Pitch_bend_c, 1, 8320
2, 424416, Pitch_bend_c, 1, 8448
2, 424464, Pitch_bend_c, 1, 8576
2, 424512, Pitch_bend_c, 1, 8704
2, 424560, Pitch_bend_c, 1, 8832
2, 424560, Pitch_bend_c, 1, 8832
2, 424800, Pitch_bend_c, 1, 8832
2, 424800, Pitch_bend_c, 1, 8192
2, 424800, Note_off_c, 1, 73, 95
2, 424800, Pitch_bend_c, 1, 8192
2, 424800, Note_on_c, 1, 69, 95
2, 424920, Pitch_bend_c, 1, 8320
2, 425040, Pitch_bend_c, 1, 8448
2, 425040, Pitch_bend_c, 1, 8448
2, 425280, Pitch_bend_c, 1, 8448
2, 425280, Pitch_bend_c, 1, 8192
2, 425280, Note_off_c, 1, 69, 95
2, 425280, Pitch_bend_c, 1, 8192
2, 425280, Note_on_c, 1, 68, 95
2, 425400, Pitch_bend_c, 1, 8320
2, 425520, Pitch_bend_c, 1, 8448
2, 425520, Pitch_bend_c, 1, 8448
2, 425760, Pitch_bend_c, 1, 8448
2, 425760, Pitch_bend_c, 1, 8192
2, 425760, Note_off_c, 1, 68, 95
2, 425760, Note_on_c, 0, 66, 95
2, 426240, Note_off_c, 0, 66, 95
2, 426240, Note_on_c, 1, 63, 95
2, 427200, Note_off_c, 1, 63, 95
2, 427680, Note_on_c, 0, 63, 95
2, 427680, Note_on_c, 0, 58, 95
2, 428040, Note_on_c, 1, 54, 95
2, 428040, Note_on_c, 1, 49, 95
2, 428160, Note_off_c, 0, 63, 95
2, 428160, Note_off_c, 0, 58, 95
2, 428160, Note_off_c, 1, 54, 95
2, 428160, Note_on_c, 1, 55, 95
2, 428160, Note_off_c, 1, 49, 95
2, 428160, Note_on_c, 1, 51, 95
2, 428640, Note_off_c, 1, 55, 95
2, 428640, Note_off_c, 1, 51, 95
2, 428640, Note_on_c, 0, 63, 95
2, 428640, Note_on_c, 0, 58, 95
2, 429120, Note_off_c, 0, 63, 95
2, 429120, Note_off_c, 0, 58, 95
2, 429120, Note_on_c, 0, 63, 95
2, 429120, Note_on_c, 0, 58, 95
2, 429600, Note_off_c, 0, 63, 95
2, 429600, Note_off_c, 0, 58, 95
2, 429600, Note_on_c, 0, 63, 95
2, 429600, Note_on_c, 0, 58, 95
2, 430080, Note_off_c, 0, 63, 95
2, 430080, Note_off_c, 0, 58, 95
2, 430080, Note_on_c, 0, 66, 95
2, 430320, Note_off_c, 0, 66, 95
2, 430320, Note_on_c, 0, 63, 70
2, 430560, Note_off_c, 0, 63, 70
2, 430560, Note_on_c, 0, 58, 95
2, 431040, Note_off_c, 0, 58, 95
2, 431040, Pitch_bend_c, 1, 8192
2, 431040, Note_on_c, 1, 56, 95
2, 431061, Pitch_bend_c, 1, 8320
2, 431082, Pitch_bend_c, 1, 8448
2, 431103, Pitch_bend_c, 1, 8576
2, 431124, Pitch_bend_c, 1, 8704
2, 431145, Pitch_bend_c, 1, 8832
2, 431166, Pitch_bend_c, 1, 8960
2, 431187, Pitch_bend_c, 1, 9088
2, 431208, Pitch_bend_c, 1, 9216
2, 431229, Pitch_bend_c, 1, 9344
2, 431250, Pitch_bend_c, 1, 9472
2, 431271, Pitch_bend_c, 1, 9600
2, 431280, Pitch_bend_c, 1, 9600
2, 431520, Pitch_bend_c, 1, 9600
2, 431541, Pitch_bend_c, 1, 9472
2, 431562, Pitch_bend_c, 1, 9344
2, 431583, Pitch_bend_c, 1, 9216
2, 431604, Pitch_bend_c, 1, 9088
2, 431625, Pitch_bend_c, 1, 8960
2, 431646, Pitch_bend_c, 1, 8832
2, 431667, Pitch_bend_c, 1, 8704
2, 431688, Pitch_bend_c, 1, 8576
2, 431709, Pitch_bend_c, 1, 8448
2, 431730, Pitch_bend_c, 1, 8320
2, 431751, Pitch_bend_c, 1, 8192
2, 431760, Pitch_bend_c, 1, 8192
2, 432000, Pitch_bend_c, 1, 8192
2, 432000, Pitch_bend_c, 1, 8192
2, 432000, Note_off_c, 1, 56, 95
2, 432000, Note_on_c, 0, 61, 95
2, 432000, Pitch_bend_c, 1, 8192
2, 432000, Note_on_c, 1, 56, 95
2, 432120, Pitch_bend_c, 1, 8320
2, 432240, Pitch_bend_c, 1, 8448
2, 432240, Pitch_bend_c, 1, 8448
2, 432480, Note_off_c, 0, 61, 95
2, 432480, Pitch_bend_c, 1, 8448
2, 432480, Pitch_bend_c, 1, 8192
2, 432480, Note_off_c, 1, 56, 95
2, 432480, Note_on_c, 0, 61, 95
2, 432480, Pitch_bend_c, 1, 8192
2, 432480, Note_on_c, 1, 56, 95
2, 432600, Pitch_bend_c, 1, 8320
2, 432720, Pitch_bend_c, 1, 8448
2, 432720, Pitch_bend_c, 1, 8448
2, 432960, Note_off_c, 0, 61, 95
2, 432960, Pitch_bend_c, 1, 8448
2, 432960, Pitch_bend_c, 1, 8192
2, 432960, Note_off_c, 1, 56, 95
2, 432960, Note_on_c, 0, 61, 95
2, 432960, Pitch_bend_c, 1, 8192
2, 432960, Note_on_c, 1, 56, 95
2, 433140, Pitch_bend_c, 1, 8320
2, 433320, Pitch_bend_c, 1, 8448
2, 433320, Pitch_bend_c, 1, 8448
2, 433680, Note_off_c, 0, 61, 95
2, 433680, Pitch_bend_c, 1, 8448
2, 433680, Pitch_bend_c, 1, 8192
2, 433680, Note_off_c, 1, 56, 95
2, 433920, Note_on_c, 0, 49, 95
2, 434880, Note_off_c, 0, 49, 95
2, 434880, Note_on_c, 0, 49, 95
2, 435840, Note_off_c, 0, 49, 95
2, 435840, Note_on_c, 0, 52, 95
2, 436800, Note_off_c, 0, 52, 95
2, 436800, Note_on_c, 0, 53, 95
2, 437760, Note_off_c, 0, 53, 95
2, 437760, Note_on_c, 0, 59, 95
2, 437760, Note_on_c, 0, 56, 95
2, 437760, Note_on_c, 0, 49, 95
2, 438720, Note_off_c, 0, 59, 95
2, 438720, Note_off_c, 0, 56, 95
2, 438720, Note_on_c, 0, 59, 95
2, 439200, Note_off_c, 0, 59, 95
2, 439680, Note_on_c, 0, 59, 95
2, 440160, Note_off_c, 0, 49, 95
2, 440160, Note_off_c, 0, 59, 95
2, 440160, Note_on_c, 0, 61, 95
2, 440160, Note_on_c, 0, 59, 95
2, 440160, Note_on_c, 0, 53, 95
2, 441600, Note_off_c, 0, 61, 95
2, 441600, Note_off_c, 0, 53, 95
2, 441600, Note_on_c, 0, 54, 95
2, 441600, Note_on_c, 0, 49, 95
2, 441600, Note_on_c, 0, 42, 95
2, 442560, Note_off_c, 0, 54, 95
2, 442560, Note_off_c, 0, 49, 95
2, 442560, Note_off_c, 0, 42, 95
2, 442560, Note_on_c, 0, 54, 95
2, 442560, Note_on_c, 0, 49, 95
2, 442560, Note_on_c, 0, 42, 95
2, 443520, Note_off_c, 0, 54, 95
2, 443520, Note_off_c, 0, 49, 95
2, 443520, Note_off_c, 0, 42, 95
2, 443520, Note_on_c, 0, 54, 95
2, 443520, Note_on_c, 0, 49, 95
2, 443520, Note_on_c, 0, 42, 95
2, 444480, Note_off_c, 0, 54, 95
2, 444480, Note_off_c, 0, 49, 95
2, 444480, Note_off_c, 0, 42, 95
2, 444480, Note_on_c, 1, 54, 95
2, 444480, Note_on_c, 1, 49, 95
2, 444480, Note_on_c, 1, 42, 95
2, 444600, Pitch_bend_c, 1, 8320
2, 444600, Pitch_bend_c, 1, 8320
2, 444600, Pitch_bend_c, 1, 8320
2, 444720, Pitch_bend_c, 1, 8448
2, 444720, Pitch_bend_c, 1, 8448
2, 444720, Pitch_bend_c, 1, 8448
2, 444840, Pitch_bend_c, 1, 8704
2, 444840, Pitch_bend_c, 1, 8704
2, 444840, Pitch_bend_c, 1, 8704
2, 444960, Pitch_bend_c, 1, 8832
2, 444960, Pitch_bend_c, 1, 8832
2, 444960, Pitch_bend_c, 1, 8832
2, 445080, Pitch_bend_c, 1, 8960
2, 445080, Pitch_bend_c, 1, 8960
2, 445080, Pitch_bend_c, 1, 8960
2, 445200, Pitch_bend_c, 1, 9216
2, 445200, Pitch_bend_c, 1, 9216
2, 445200, Pitch_bend_c, 1, 9216
2, 445320, Pitch_bend_c, 1, 9344
2, 445320, Pitch_bend_c, 1, 9344
2, 445320, Pitch_bend_c, 1, 9344
2, 445440, Note_off_c, 0, 59, 95
2, 445440, Pitch_bend_c, 1, 9600
2, 445440, Pitch_bend_c, 1, 8192
2, 445440, Note_off_c, 1, 54, 95
2, 445440, Pitch_bend_c, 1, 9600
2, 445440, Pitch_bend_c, 1, 8192
2, 445440, Note_off_c, 1, 49, 95
2, 445440, Pitch_bend_c, 1, 9600
2, 445440, Pitch_bend_c, 1, 8192
2, 445440, Note_off_c, 1, 42, 95
2, 445440, Note_on_c, 0, 56, 95
2, 445440, Note_on_c, 0, 51, 95
2, 445440, Note_on_c, 0, 44, 95
2, 446400, Note_off_c, 0, 56, 95
2, 446400, Note_off_c, 0, 51, 95
2, 446400, Note_off_c, 0, 44, 95
2, 446400, Note_on_c, 0, 56, 95
2, 446400, Note_on_c, 0, 51, 95
2, 446400, Note_on_c, 0, 44, 95
2, 446880, Note_off_c, 0, 56, 95
2, 446880, Note_off_c, 0, 51, 95
2, 446880, Note_off_c, 0, 44, 95
2, 446880, Note_on_c, 0, 56, 95
2, 446880, Note_on_c, 0, 51, 95
2, 446880, Note_on_c, 0, 44, 95
2, 447360, Note_off_c, 0, 56, 95
2, 447360, Note_off_c, 0, 51, 95
2, 447360, Note_off_c, 0, 44, 95
2, 447360, Note_on_c, 0, 56, 95
2, 447360, Note_on_c, 0, 51, 95
2, 447360, Note_on_c, 0, 44, 95
2, 447840, Note_off_c, 0, 56, 95
2, 447840, Note_off_c, 0, 51, 95
2, 447840, Note_off_c, 0, 44, 95
2, 447840, Note_on_c, 0, 56, 95
2, 447840, Note_on_c, 0, 51, 95
2, 447840, Note_on_c, 0, 44, 95
2, 448320, Note_off_c, 0, 56, 95
2, 448320, Note_off_c, 0, 51, 95
2, 448320, Note_off_c, 0, 44, 95
2, 448320, Note_on_c, 0, 56, 95
2, 448320, Note_on_c, 0, 51, 95
2, 448320, Note_on_c, 0, 44, 95
2, 449760, Note_off_c, 0, 56, 95
2, 449760, Note_off_c, 0, 51, 95
2, 449760, Note_off_c, 0, 44, 95
2, 449760, Note_on_c, 0, 39, 95
2, 450720, Note_off_c, 0, 39, 95
2, 450720, Note_on_c, 0, 63, 95
2, 450720, Note_on_c, 0, 58, 95
2, 450720, Note_on_c, 0, 55, 95
2, 450720, Note_on_c, 0, 49, 95
2, 452160, Note_off_c, 0, 63, 95
2, 452160, Note_off_c, 0, 58, 95
2, 452160, Note_off_c, 0, 55, 95
2, 452160, Note_off_c, 0, 49, 95
2, 452160, Note_on_c, 0, 63, 95
2, 452160, Note_on_c, 0, 58, 95
2, 452160, Note_on_c, 0, 55, 95
2, 452160, Note_on_c, 0, 49, 95
2, 452640, Note_off_c, 0, 63, 95
2, 452640, Note_off_c, 0, 58, 95
2, 452640, Note_off_c, 0, 55, 95
2, 452640, Note_off_c, 0, 49, 95
2, 452640, Note_on_c, 0, 63, 95
2, 452640, Note_on_c, 0, 58, 95
2, 452640, Note_on_c, 0, 55, 95
2, 452640, Note_on_c, 0, 49, 95
2, 453120, Note_off_c, 0, 63, 95
2, 453120, Note_off_c, 0, 58, 95
2, 453120, Note_off_c, 0, 55, 95
2, 453120, Note_off_c, 0, 49, 95
2, 453120, Note_on_c, 0, 63, 95
2, 453120, Note_on_c, 1, 65, 95
2, 453120, Note_on_c, 1, 61, 95
2, 453120, Note_on_c, 1, 56, 95
2, 453240, Pitch_bend_c, 1, 8448
2, 453240, Pitch_bend_c, 1, 8448
2, 453240, Pitch_bend_c, 1, 8448
2, 453360, Pitch_bend_c, 1, 8832
2, 453360, Pitch_bend_c, 1, 8832
2, 453360, Pitch_bend_c, 1, 8832
2, 453480, Pitch_bend_c, 1, 9216
2, 453480, Pitch_bend_c, 1, 9216
2, 453480, Pitch_bend_c, 1, 9216
2, 453600, Note_off_c, 0, 63, 95
2, 453600, Pitch_bend_c, 1, 9600
2, 453600, Pitch_bend_c, 1, 8192
2, 453600, Note_off_c, 1, 65, 95
2, 453600, Pitch_bend_c, 1, 9600
2, 453600, Pitch_bend_c, 1, 8192
2, 453600, Note_off_c, 1, 61, 95
2, 453600, Pitch_bend_c, 1, 9600
2, 453600, Pitch_bend_c, 1, 8192
2, 453600, Note_off_c, 1, 56, 95
2, 453600, Note_on_c, 0, 63, 95
2, 453600, Note_on_c, 0, 67, 95
2, 453600, Note_on_c, 0, 63, 95
2, 453600, Note_on_c, 0, 58, 95
2, 454080, Note_off_c, 0, 63, 95
2, 454080, Note_off_c, 0, 67, 95
2, 454080, Note_off_c, 0, 63, 95
2, 454080, Note_off_c, 0, 58, 95
2, 454080, Note_on_c, 0, 63, 95
2, 454080, Note_on_c, 0, 67, 95
2, 454080, Note_on_c, 0, 63, 95
2, 454080, Note_on_c, 0, 58, 95
2, 454560, Note_off_c, 0, 63, 95
2, 454560, Note_off_c, 0, 67, 95
2, 454560, Note_off_c, 0, 63, 95
2, 454560, Note_off_c, 0, 58, 95
2, 454560, Note_on_c, 0, 63, 95
2, 454560, Note_on_c, 1, 67, 95
2, 454560, Note_on_c, 1, 63, 95
2, 454560, Note_on_c, 1, 58, 95
2, 454680, Pitch_bend_c, 1, 7936
2, 454680, Pitch_bend_c, 1, 7936
2, 454680, Pitch_bend_c, 1, 7936
2, 454800, Pitch_bend_c, 1, 7552
2, 454800, Pitch_bend_c, 1, 7552
2, 454800, Pitch_bend_c, 1, 7552
2, 454920, Pitch_bend_c, 1, 7168
2, 454920, Pitch_bend_c, 1, 7168
2, 454920, Pitch_bend_c, 1, 7168
2, 455040, Note_off_c, 0, 63, 95
2, 455040, Pitch_bend_c, 1, 6784
2, 455040, Pitch_bend_c, 1, 8192
2, 455040, Note_off_c, 1, 67, 95
2, 455040, Pitch_bend_c, 1, 6784
2, 455040, Pitch_bend_c, 1, 8192
2, 455040, Note_off_c, 1, 63, 95
2, 455040, Pitch_bend_c, 1, 6784
2, 455040, Pitch_bend_c, 1, 8192
2, 455040, Note_off_c, 1, 58, 95
2, 455040, Note_on_c, 0, 63, 95
2, 455040, Note_on_c, 0, 65, 95
2, 455040, Note_on_c, 0, 61, 95
2, 455040, Note_on_c, 0, 56, 95
2, 455520, Note_off_c, 0, 63, 95
2, 455520, Note_off_c, 0, 65, 95
2, 455520, Note_off_c, 0, 61, 95
2, 455520, Note_off_c, 0, 56, 95
2, 455520, Note_on_c, 0, 63, 95
2, 455520, Note_on_c, 1, 65, 95
2, 455520, Note_on_c, 1, 61, 95
2, 455520, Note_on_c, 1, 56, 95
2, 455640, Pitch_bend_c, 1, 8960
2, 455640, Pitch_bend_c, 1, 8960
2, 455640, Pitch_bend_c, 1, 8960
2, 455760, Pitch_bend_c, 1, 9856
2, 455760, Pitch_bend_c, 1, 9856
2, 455760, Pitch_bend_c, 1, 9856
2, 455880, Pitch_bend_c, 1, 10752
2, 455880, Pitch_bend_c, 1, 10752
2, 455880, Pitch_bend_c, 1, 10752
2, 456000, Note_off_c, 0, 63, 95
2, 456000, Pitch_bend_c, 1, 11648
2, 456000, Pitch_bend_c, 1, 8192
2, 456000, Note_off_c, 1, 65, 95
2, 456000, Pitch_bend_c, 1, 11648
2, 456000, Pitch_bend_c, 1, 8192
2, 456000, Note_off_c, 1, 61, 95
2, 456000, Pitch_bend_c, 1, 11648
2, 456000, Pitch_bend_c, 1, 8192
2, 456000, Note_off_c, 1, 56, 95
2, 456000, Note_on_c, 0, 63, 95
2, 456000, Note_on_c, 0, 70, 95
2, 456000, Note_on_c, 0, 66, 95
2, 456000, Note_on_c, 0, 61, 95
2, 456480, Note_off_c, 0, 63, 95
2, 456480, Note_off_c, 0, 70, 95
2, 456480, Note_off_c, 0, 66, 95
2, 456480, Note_off_c, 0, 61, 95
2, 456480, Note_on_c, 0, 63, 95
2, 456480, Note_on_c, 1, 70, 95
2, 456480, Note_on_c, 1, 66, 95
2, 456480, Note_on_c, 1, 61, 95
2, 456600, Pitch_bend_c, 1, 7680
2, 456600, Pitch_bend_c, 1, 7680
2, 456600, Pitch_bend_c, 1, 7680
2, 456720, Pitch_bend_c, 1, 7168
2, 456720, Pitch_bend_c, 1, 7168
2, 456720, Pitch_bend_c, 1, 7168
2, 456840, Pitch_bend_c, 1, 6656
2, 456840, Pitch_bend_c, 1, 6656
2, 456840, Pitch_bend_c, 1, 6656
2, 456960, Pitch_bend_c, 1, 6144
2, 456960, Pitch_bend_c, 1, 8192
2, 456960, Note_off_c, 1, 70, 95
2, 456960, Pitch_bend_c, 1, 6144
2, 456960, Pitch_bend_c, 1, 8192
2, 456960, Note_off_c, 1, 66, 95
2, 456960, Pitch_bend_c, 1, 6144
2, 456960, Pitch_bend_c, 1, 8192
2, 456960, Note_off_c, 1, 61, 95
2, 456960, Note_on_c, 0, 67, 95
2, 456960, Note_on_c, 0, 63, 95
2, 456960, Note_on_c, 0, 58, 95
2, 457920, Note_off_c, 0, 63, 95
2, 457920, Note_off_c, 0, 67, 95
2, 457920, Note_off_c, 0, 63, 95
2, 457920, Note_off_c, 0, 58, 95
2, 457920, Note_on_c, 0, 63, 95
2, 457920, Note_on_c, 0, 58, 95
2, 458880, Note_off_c, 0, 63, 95
2, 458880, Note_off_c, 0, 58, 95
2, 458880, Note_on_c, 0, 58, 95
2, 458880, Note_on_c, 0, 55, 95
2, 458880, Note_on_c, 0, 49, 95
2, 460320, Note_off_c, 0, 58, 95
2, 460320, Note_off_c, 0, 55, 95
2, 460320, Note_off_c, 0, 49, 95
2, 460320, Note_on_c, 0, 63, 95
2, 460320, Pitch_bend_c, 1, 8192
2, 460320, Note_on_c, 1, 61, 95
2, 460356, Pitch_bend_c, 1, 8320
2, 460392, Pitch_bend_c, 1, 8448
2, 460428, Pitch_bend_c, 1, 8576
2, 460464, Pitch_bend_c, 1, 8704
2, 460500, Pitch_bend_c, 1, 8832
2, 460536, Pitch_bend_c, 1, 8960
2, 460572, Pitch_bend_c, 1, 9088
2, 460608, Pitch_bend_c, 1, 9216
2, 460644, Pitch_bend_c, 1, 9344
2, 460680, Pitch_bend_c, 1, 9472
2, 460716, Pitch_bend_c, 1, 9600
2, 460752, Pitch_bend_c, 1, 9728
2, 460788, Pitch_bend_c, 1, 9856
2, 460800, Pitch_bend_c, 1, 9856
2, 461280, Note_off_c, 0, 63, 95
2, 461280, Pitch_bend_c, 1, 9856
2, 461280, Pitch_bend_c, 1, 8192
2, 461280, Note_off_c, 1, 61, 95
2, 461280, Note_on_c, 0, 63, 95
2, 461280, Pitch_bend_c, 1, 8192
2, 461280, Note_on_c, 1, 61, 95
2, 461298, Pitch_bend_c, 1, 8320
2, 461316, Pitch_bend_c, 1, 8448
2, 461334, Pitch_bend_c, 1, 8576
2, 461352, Pitch_bend_c, 1, 8704
2, 461370, Pitch_bend_c, 1, 8832
2, 461388, Pitch_bend_c, 1, 8960
2, 461406, Pitch_bend_c, 1, 9088
2, 461424, Pitch_bend_c, 1, 9216
2, 461442, Pitch_bend_c, 1, 9344
2, 461460, Pitch_bend_c, 1, 9472
2, 461478, Pitch_bend_c, 1, 9600
2, 461496, Pitch_bend_c, 1, 9728
2, 461514, Pitch_bend_c, 1, 9856
2, 461520, Pitch_bend_c, 1, 9856
2, 461760, Pitch_bend_c, 1, 9856
2, 461778, Pitch_bend_c, 1, 9728
2, 461796, Pitch_bend_c, 1, 9600
2, 461814, Pitch_bend_c, 1, 9472
2, 461832, Pitch_bend_c, 1, 9344
2, 461850, Pitch_bend_c, 1, 9216
2, 461868, Pitch_bend_c, 1, 9088
2, 461886, Pitch_bend_c, 1, 8960
2, 461904, Pitch_bend_c, 1, 8832
2, 461922, Pitch_bend_c, 1, 8704
2, 461940, Pitch_bend_c, 1, 8576
2, 461958, Pitch_bend_c, 1, 8448
2, 461976, Pitch_bend_c, 1, 8320
2, 461994, Pitch_bend_c, 1, 8192
2, 462000, Pitch_bend_c, 1, 8192
2, 462240, Note_off_c, 0, 63, 95
2, 462240, Pitch_bend_c, 1, 8192
2, 462240, Pitch_bend_c, 1, 8192
2, 462240, Note_off_c, 1, 61, 95
2, 462240, Note_on_c, 0, 63, 95
2, 462480, Note_off_c, 0, 63, 95
2, 462480, Note_on_c, 0, 61, 70
2, 462720, Note_off_c, 0, 61, 70
2, 462720, Note_on_c, 0, 58, 70
2, 462960, Note_off_c, 0, 58, 70
2, 462960, Note_on_c, 0, 56, 95
2, 463200, Note_off_c, 0, 56, 95
2, 463200, Note_on_c, 0, 61, 95
2, 463680, Note_off_c, 0, 61, 95
2, 463680, Pitch_bend_c, 1, 8192
2, 463680, Note_on_c, 1, 56, 95
2, 463690, Pitch_bend_c, 1, 8320
2, 463700, Pitch_bend_c, 1, 8448
2, 463710, Pitch_bend_c, 1, 8576
2, 463720, Pitch_bend_c, 1, 8704
2, 463730, Pitch_bend_c, 1, 8832
2, 463740, Pitch_bend_c, 1, 8960
2, 463750, Pitch_bend_c, 1, 9088
2, 463760, Pitch_bend_c, 1, 9216
2, 463770, Pitch_bend_c, 1, 9344
2, 463780, Pitch_bend_c, 1, 9472
2, 463790, Pitch_bend_c, 1, 9600
2, 463800, Pitch_bend_c, 1, 9600
2, 463920, Pitch_bend_c, 1, 9600
2, 463920, Pitch_bend_c, 1, 8192
2, 463920, Note_off_c, 1, 56, 95
2, 463920, Pitch_bend_c, 1, 9600
2, 463920, Note_on_c, 1, 56, 95
2, 464000, Pitch_bend_c, 1, 9600
2, 464007, Pitch_bend_c, 1, 9472
2, 464014, Pitch_bend_c, 1, 9344
2, 464021, Pitch_bend_c, 1, 9216
2, 464028, Pitch_bend_c, 1, 9088
2, 464035, Pitch_bend_c, 1, 8960
2, 464042, Pitch_bend_c, 1, 8832
2, 464049, Pitch_bend_c, 1, 8704
2, 464056, Pitch_bend_c, 1, 8576
2, 464063, Pitch_bend_c, 1, 8448
2, 464070, Pitch_bend_c, 1, 8320
2, 464077, Pitch_bend_c, 1, 8192
2, 464080, Pitch_bend_c, 1, 8192
2, 464160, Pitch_bend_c, 1, 8192
2, 464160, Pitch_bend_c, 1, 8192
2, 464160, Note_off_c, 1, 56, 95
2, 464160, Note_on_c, 0, 54, 95
2, 464400, Note_off_c, 0, 54, 95
2, 464400, Note_on_c, 0, 51, 95
2, 464640, Note_off_c, 0, 51, 95
2, 464640, Note_on_c, 0, 63, 95
2, 464640, Note_on_c, 0, 63, 95
2, 464640, Pitch_bend_c, 1, 8192
2, 464640, Note_on_c, 1, 61, 95
2, 464661, Pitch_bend_c, 1, 8320
2, 464682, Pitch_bend_c, 1, 8448
2, 464703, Pitch_bend_c, 1, 8576
2, 464724, Pitch_bend_c, 1, 8704
2, 464745, Pitch_bend_c, 1, 8832
2, 464766, Pitch_bend_c, 1, 8960
2, 464787, Pitch_bend_c, 1, 9088
2, 464808, Pitch_bend_c, 1, 9216
2, 464829, Pitch_bend_c, 1, 9344
2, 464850, Pitch_bend_c, 1, 9472
2, 464871, Pitch_bend_c, 1, 9600
2, 464880, Pitch_bend_c, 1, 9600
2, 465120, Note_off_c, 0, 63, 95
2, 465120, Note_off_c, 0, 63, 95
2, 465120, Pitch_bend_c, 1, 9600
2, 465120, Pitch_bend_c, 1, 8192
2, 465120, Note_off_c, 1, 61, 95
2, 465120, Note_on_c, 0, 63, 95
2, 465120, Note_on_c, 0, 63, 95
2, 465120, Pitch_bend_c, 1, 9600
2, 465120, Note_on_c, 1, 61, 95
2, 466080, Note_off_c, 0, 63, 95
2, 466080, Note_off_c, 0, 63, 95
2, 466080, Pitch_bend_c, 1, 9600
2, 466080, Pitch_bend_c, 1, 8192
2, 466080, Note_off_c, 1, 61, 95
2, 466080, Note_on_c, 0, 63, 95
2, 466080, Note_on_c, 0, 63, 95
2, 466080, Pitch_bend_c, 1, 9600
2, 466080, Note_on_c, 1, 61, 95
2, 467040, Note_off_c, 0, 63, 95
2, 467040, Note_off_c, 0, 63, 95
2, 467040, Pitch_bend_c, 1, 9600
2, 467040, Pitch_bend_c, 1, 8192
2, 467040, Note_off_c, 1, 61, 95
2, 467040, Note_on_c, 0, 63, 95
2, 467040, Note_on_c, 0, 58, 95
2, 467520, Note_off_c, 0, 63, 95
2, 467520, Note_off_c, 0, 58, 95
2, 467520, Note_on_c, 0, 63, 95
2, 467520, Note_on_c, 0, 63, 95
2, 467520, Pitch_bend_c, 1, 8192
2, 467520, Note_on_c, 1, 61, 95
2, 467563, Pitch_bend_c, 1, 8320
2, 467606, Pitch_bend_c, 1, 8448
2, 467649, Pitch_bend_c, 1, 8576
2, 467692, Pitch_bend_c, 1, 8704
2, 467735, Pitch_bend_c, 1, 8832
2, 467778, Pitch_bend_c, 1, 8960
2, 467821, Pitch_bend_c, 1, 9088
2, 467864, Pitch_bend_c, 1, 9216
2, 467907, Pitch_bend_c, 1, 9344
2, 467950, Pitch_bend_c, 1, 9472
2, 467993, Pitch_bend_c, 1, 9600
2, 468000, Pitch_bend_c, 1, 9600
2, 468480, Note_off_c, 0, 63, 95
2, 468480, Note_off_c, 0, 63, 95
2, 468480, Pitch_bend_c, 1, 9600
2, 468480, Pitch_bend_c, 1, 8192
2, 468480, Note_off_c, 1, 61, 95
2, 468480, Note_on_c, 0, 63, 95
2, 468480, Pitch_bend_c, 1, 9600
2, 468480, Note_on_c, 1, 61, 95
2, 468560, Pitch_bend_c, 1, 9600
2, 468567, Pitch_bend_c, 1, 9472
2, 468574, Pitch_bend_c, 1, 9344
2, 468581, Pitch_bend_c, 1, 9216
2, 468588, Pitch_bend_c, 1, 9088
2, 468595, Pitch_bend_c, 1, 8960
2, 468602, Pitch_bend_c, 1, 8832
2, 468609, Pitch_bend_c, 1, 8704
2, 468616, Pitch_bend_c, 1, 8576
2, 468623, Pitch_bend_c, 1, 8448
2, 468630, Pitch_bend_c, 1, 8320
2, 468637, Pitch_bend_c, 1, 8192
2, 468640, Pitch_bend_c, 1, 8192
2, 468720, Note_off_c, 0, 63, 95
2, 468720, Pitch_bend_c, 1, 8192
2, 468720, Pitch_bend_c, 1, 8192
2, 468720, Note_off_c, 1, 61, 95
2, 468720, Note_on_c, 0, 63, 95
2, 468720, Note_on_c, 0, 61, 95
2, 468960, Note_off_c, 0, 63, 95
2, 468960, Note_off_c, 0, 61, 95
2, 468960, Note_on_c, 0, 63, 95
2, 468960, Note_on_c, 0, 58, 70
2, 469440, Note_off_c, 0, 63, 95
2, 469440, Note_off_c, 0, 58, 70
2, 469440, Note_on_c, 0, 58, 95
2, 469440, Note_on_c, 0, 56, 95
2, 469760, Note_off_c, 0, 58, 95
2, 469760, Note_off_c, 0, 56, 95
2, 469760, Note_on_c, 0, 58, 95
2, 469760, Note_on_c, 0, 54, 70
2, 470080, Note_off_c, 0, 58, 95
2, 470080, Note_off_c, 0, 54, 70
2, 470080, Note_on_c, 0, 54, 95
2, 470080, Note_on_c, 0, 51, 95
2, 470400, Note_off_c, 0, 54, 95
2, 470400, Note_off_c, 0, 51, 95
2, 470400, Pitch_bend_c, 1, 8192
2, 470400, Note_on_c, 1, 42, 95
2, 470640, Pitch_bend_c, 1, 8320
2, 470880, Pitch_bend_c, 1, 8448
2, 470880, Pitch_bend_c, 1, 8448
2, 471360, Pitch_bend_c, 1, 8448
2, 471360, Pitch_bend_c, 1, 8192
2, 471360, Note_off_c, 1, 42, 95
2, 471360, Note_on_c, 0, 39, 95
2, 472320, Note_off_c, 0, 39, 95
2, 472320, Note_on_c, 0, 63, 95
2, 472320, Note_on_c, 0, 63, 95
2, 472320, Note_on_c, 0, 61, 95
2, 472800, Note_off_c, 0, 63, 95
2, 472800, Note_off_c, 0, 63, 95
2, 472800, Note_off_c, 0, 61, 95
2, 472800, Note_on_c, 0, 63, 95
2, 472800, Note_on_c, 0, 63, 95
2, 472800, Pitch_bend_c, 1, 8448
2, 472800, Note_on_c, 1, 61, 95
2, 473760, Note_off_c, 0, 63, 95
2, 473760, Note_off_c, 0, 63, 95
2, 473760, Pitch_bend_c, 1, 8448
2, 473760, Pitch_bend_c, 1, 8192
2, 473760, Note_off_c, 1, 61, 95
2, 473760, Note_on_c, 0, 63, 95
2, 473760, Note_on_c, 0, 63, 95
2, 473760, Pitch_bend_c, 1, 8192
2, 473760, Note_on_c, 1, 61, 95
2, 473856, Pitch_bend_c, 1, 8320
2, 473952, Pitch_bend_c, 1, 8448
2, 474048, Pitch_bend_c, 1, 8576
2, 474144, Pitch_bend_c, 1, 8704
2, 474240, Pitch_bend_c, 1, 8832
2, 474240, Pitch_bend_c, 1, 8832
2, 474720, Note_off_c, 0, 63, 95
2, 474720, Note_off_c, 0, 63, 95
2, 474720, Pitch_bend_c, 1, 8832
2, 474720, Pitch_bend_c, 1, 8192
2, 474720, Note_off_c, 1, 61, 95
2, 474720, Note_on_c, 0, 63, 95
2, 474720, Note_on_c, 0, 63, 95
2, 474720, Pitch_bend_c, 1, 8192
2, 474720, Note_on_c, 1, 61, 95
2, 474750, Pitch_bend_c, 1, 8320
2, 474780, Pitch_bend_c, 1, 8448
2, 474810, Pitch_bend_c, 1, 8576
2, 474840, Pitch_bend_c, 1, 8704
2, 474870, Pitch_bend_c, 1, 8832
2, 474900, Pitch_bend_c, 1, 8960
2, 474930, Pitch_bend_c, 1, 9088
2, 474960, Pitch_bend_c, 1, 9216
2, 474960, Pitch_bend_c, 1, 9216
2, 475200, Note_off_c, 0, 63, 95
2, 475200, Note_off_c, 0, 63, 95
2, 475200, Pitch_bend_c, 1, 9216
2, 475200, Pitch_bend_c, 1, 8192
2, 475200, Note_off_c, 1, 61, 95
2, 475200, Note_on_c, 0, 63, 95
2, 475200, Note_on_c, 0, 63, 95
2, 475200, Pitch_bend_c, 1, 8192
2, 475200, Note_on_c, 1, 61, 95
2, 475243, Pitch_bend_c, 1, 8320
2, 475286, Pitch_bend_c, 1, 8448
2, 475329, Pitch_bend_c, 1, 8576
2, 475372, Pitch_bend_c, 1, 8704
2, 475415, Pitch_bend_c, 1, 8832
2, 475458, Pitch_bend_c, 1, 8960
2, 475501, Pitch_bend_c, 1, 9088
2, 475544, Pitch_bend_c, 1, 9216
2, 475587, Pitch_bend_c, 1, 9344
2, 475630, Pitch_bend_c, 1, 9472
2, 475673, Pitch_bend_c, 1, 9600
2, 475680, Pitch_bend_c, 1, 9600
2, 476160, Note_off_c, 0, 63, 95
2, 476160, Note_off_c, 0, 63, 95
2, 476160, Pitch_bend_c, 1, 9600
2, 476160, Pitch_bend_c, 1, 8192
2, 476160, Note_off_c, 1, 61, 95
2, 476160, Note_on_c, 0, 68, 95
2, 476320, Note_off_c, 0, 68, 95
2, 476320, Note_on_c, 0, 66, 70
2, 476480, Note_off_c, 0, 66, 70
2, 476480, Note_on_c, 0, 63, 70
2, 476640, Note_off_c, 0, 63, 70
2, 476640, Note_on_c, 0, 63, 95
2, 476800, Note_off_c, 0, 63, 95
2, 476800, Note_on_c, 0, 61, 70
2, 476960, Note_off_c, 0, 61, 70
2, 476960, Note_on_c, 0, 58, 70
2, 477120, Note_off_c, 0, 58, 70
2, 477120, Note_on_c, 0, 39, 95
2, 478080, Note_on_c, 0, 63, 95
2, 478080, Note_on_c, 0, 58, 95
2, 478080, Note_on_c, 0, 55, 95
2, 478080, Note_on_c, 0, 49, 95
2, 479040, Note_off_c, 0, 39, 95
2, 479040, Note_off_c, 0, 63, 95
2, 479040, Note_off_c, 0, 58, 95
2, 479040, Note_off_c, 0, 55, 95
2, 479040, Note_off_c, 0, 49, 95
2, 479040, Note_on_c, 0, 63, 95
2, 479040, Note_on_c, 0, 58, 95
2, 479040, Note_on_c, 0, 55, 95
2, 479040, Note_on_c, 0, 49, 95
2, 480000, Note_off_c, 0, 63, 95
2, 480000, Note_off_c, 0, 58, 95
2, 480000, Note_off_c, 0, 55, 95
2, 480000, Note_off_c, 0, 49, 95
2, 480000, Note_on_c, 1, 67, 95
2, 480000, Note_on_c, 0, 58, 95
2, 480000, Note_on_c, 1, 58, 95
2, 480120, Pitch_bend_c, 1, 8192
2, 480120, Pitch_bend_c, 1, 8192
2, 480240, Pitch_bend_c, 1, 8192
2, 480240, Pitch_bend_c, 1, 8192
2, 480360, Pitch_bend_c, 1, 8192
2, 480360, Pitch_bend_c, 1, 8192
2, 480480, Pitch_bend_c, 1, 8192
2, 480480, Pitch_bend_c, 1, 8192
2, 480480, Note_off_c, 1, 67, 95
2, 480480, Note_off_c, 0, 58, 95
2, 480480, Pitch_bend_c, 1, 8192
2, 480480, Pitch_bend_c, 1, 8192
2, 480480, Note_off_c, 1, 58, 95
2, 480480, Note_on_c, 0, 67, 95
2, 480480, Note_on_c, 0, 58, 95
2, 480480, Note_on_c, 0, 58, 95
2, 481440, Note_off_c, 0, 67, 95
2, 481440, Note_off_c, 0, 58, 95
2, 481440, Note_off_c, 0, 58, 95
2, 481440, Note_on_c, 0, 67, 95
2, 481440, Note_on_c, 0, 58, 95
2, 481440, Note_on_c, 0, 58, 95
2, 482400, Note_off_c, 0, 67, 95
2, 482400, Note_off_c, 0, 58, 95
2, 482400, Note_off_c, 0, 58, 95
2, 482400, Note_on_c, 0, 65, 95
2, 482400, Note_on_c, 0, 58, 95
2, 482400, Note_on_c, 0, 56, 95
2, 482880, Note_off_c, 0, 65, 95
2, 482880, Note_off_c, 0, 58, 95
2, 482880, Note_off_c, 0, 56, 95
2, 482880, Note_on_c, 0, 67, 95
2, 482880, Note_on_c, 0, 58, 95
2, 482880, Note_on_c, 0, 58, 95
2, 483360, Note_off_c, 0, 58, 95
2, 483360, Note_off_c, 0, 58, 95
2, 483360, Note_on_c, 0, 58, 95
2, 483360, Note_on_c, 0, 54, 70
2, 483840, Note_off_c, 0, 54, 70
2, 484080, Note_off_c, 0, 58, 95
2, 484080, Note_on_c, 0, 58, 95
2, 484080, Note_on_c, 0, 55, 95
2, 484080, Note_on_c, 0, 51, 95
2, 485040, Note_off_c, 0, 55, 95
2, 485760, Note_off_c, 0, 51, 95
2, 485760, Pitch_bend_c, 1, 8192
2, 485760, Note_on_c, 1, 42, 95
2, 486720, Note_off_c, 0, 67, 95
2, 486720, Note_off_c, 0, 58, 95
2, 486720, Note_on_c, 0, 63, 95
2, 486720, Note_on_c, 0, 58, 95
2, 486720, Note_on_c, 0, 55, 95
2, 487680, Note_off_c, 0, 63, 95
2, 487680, Note_off_c, 0, 58, 95
2, 487680, Note_off_c, 0, 55, 95
2, 487680, Note_on_c, 0, 63, 95
2, 487680, Note_on_c, 0, 63, 95
2, 487680, Note_on_c, 0, 61, 95
2, 488040, Pitch_bend_c, 1, 8320
2, 488160, Note_off_c, 0, 63, 95
2, 488160, Note_off_c, 0, 63, 95
2, 488160, Note_off_c, 0, 61, 95
2, 488160, Note_on_c, 0, 63, 95
2, 488160, Note_on_c, 0, 63, 95
2, 488160, Note_on_c, 0, 61, 95
2, 489120, Note_off_c, 0, 63, 95
2, 489120, Note_off_c, 0, 63, 95
2, 489120, Note_off_c, 0, 61, 95
2, 489120, Note_on_c, 0, 63, 95
2, 489120, Note_on_c, 0, 63, 95
2, 489120, Pitch_bend_c, 1, 8192
2, 489120, Note_on_c, 1, 61, 95
2, 489163, Pitch_bend_c, 1, 8320
2, 489206, Pitch_bend_c, 1, 8448
2, 489249, Pitch_bend_c, 1, 8576
2, 489292, Pitch_bend_c, 1, 8704
2, 489335, Pitch_bend_c, 1, 8832
2, 489378, Pitch_bend_c, 1, 8960
2, 489421, Pitch_bend_c, 1, 9088
2, 489464, Pitch_bend_c, 1, 9216
2, 489507, Pitch_bend_c, 1, 9344
2, 489550, Pitch_bend_c, 1, 9472
2, 489593, Pitch_bend_c, 1, 9600
2, 489600, Pitch_bend_c, 1, 9600
2, 490080, Note_off_c, 0, 63, 95
2, 490080, Note_off_c, 0, 63, 95
2, 490080, Pitch_bend_c, 1, 9600
2, 490080, Pitch_bend_c, 1, 8192
2, 490080, Note_off_c, 1, 61, 95
2, 490080, Pitch_bend_c, 1, 8192
2, 490080, Note_on_c, 1, 68, 95
2, 490090, Pitch_bend_c, 1, 8320
2, 490100, Pitch_bend_c, 1, 8448
2, 490110, Pitch_bend_c, 1, 8576
2, 490120, Pitch_bend_c, 1, 8704
2, 490130, Pitch_bend_c, 1, 8832
2, 490140, Pitch_bend_c, 1, 8960
2, 490150, Pitch_bend_c, 1, 9088
2, 490160, Pitch_bend_c, 1, 9216
2, 490170, Pitch_bend_c, 1, 9344
2, 490180, Pitch_bend_c, 1, 9472
2, 490190, Pitch_bend_c, 1, 9600
2, 490200, Pitch_bend_c, 1, 9600
2, 490320, Pitch_bend_c, 1, 8448
2, 490320, Pitch_bend_c, 1, 8448
2, 490320, Pitch_bend_c, 1, 9600
2, 490330, Pitch_bend_c, 1, 9472
2, 490340, Pitch_bend_c, 1, 9344
2, 490350, Pitch_bend_c, 1, 9216
2, 490360, Pitch_bend_c, 1, 9088
2, 490370, Pitch_bend_c, 1, 8960
2, 490380, Pitch_bend_c, 1, 8832
2, 490390, Pitch_bend_c, 1, 8704
2, 490400, Pitch_bend_c, 1, 8576
2, 490410, Pitch_bend_c, 1, 8448
2, 490420, Pitch_bend_c, 1, 8320
2, 490430, Pitch_bend_c, 1, 8192
2, 490440, Pitch_bend_c, 1, 8192
2, 490560, Pitch_bend_c, 1, 8192
2, 490560, Pitch_bend_c, 1, 8192
2, 490560, Note_off_c, 1, 68, 95
2, 490560, Note_on_c, 0, 66, 95
2, 491040, Note_off_c, 0, 66, 95
2, 491040, Note_on_c, 0, 68, 95
2, 491200, Note_off_c, 0, 68, 95
2, 491200, Note_on_c, 0, 66, 70
2, 491360, Note_off_c, 0, 66, 70
2, 491360, Note_on_c, 0, 63, 70
2, 491520, Note_off_c, 0, 63, 70
2, 491520, Note_on_c, 0, 63, 95
2, 491680, Note_off_c, 0, 63, 95
2, 491680, Note_on_c, 0, 61, 70
2, 491840, Note_off_c, 0, 61, 70
2, 491840, Note_on_c, 0, 58, 70
2, 492000, Note_off_c, 0, 58, 70
2, 492000, Note_on_c, 0, 51, 95
2, 492960, Note_off_c, 0, 51, 95
2, 492960, Note_on_c, 0, 63, 95
2, 492960, Note_on_c, 0, 58, 95
2, 492960, Note_on_c, 0, 55, 95
2, 492960, Note_on_c, 0, 49, 95
2, 494880, Pitch_bend_c, 1, 8448
2, 494880, Pitch_bend_c, 1, 8192
2, 494880, Note_off_c, 1, 42, 95
2, 495120, Note_off_c, 0, 63, 95
2, 495120, Note_off_c, 0, 58, 95
2, 495120, Note_off_c, 0, 55, 95
2, 495120, Note_off_c, 0, 49, 95
2, 495120, Pitch_bend_c, 1, 8192
2, 495120, Note_on_c, 1, 73, 95
2, 495338, Pitch_bend_c, 1, 8320
2, 495556, Pitch_bend_c, 1, 8448
2, 495774, Pitch_bend_c, 1, 8576
2, 495992, Pitch_bend_c, 1, 8704
2, 496210, Pitch_bend_c, 1, 8832
2, 496428, Pitch_bend_c, 1, 8960
2, 496646, Pitch_bend_c, 1, 9088
2, 496864, Pitch_bend_c, 1, 9216
2, 497082, Pitch_bend_c, 1, 9344
2, 497300, Pitch_bend_c, 1, 9472
2, 497518, Pitch_bend_c, 1, 9600
2, 497520, Pitch_bend_c, 1, 9600
2, 499920, Pitch_bend_c, 1, 9600
2, 499920, Pitch_bend_c, 1, 8192
2, 499920, Note_off_c, 1, 73, 95
2, 499920, Note_on_c, 0, 75, 95
2, 500400, Note_off_c, 0, 75, 95
2, 500400, Note_on_c, 0, 73, 95
2, 500880, Note_off_c, 0, 73, 95
2, 500880, Note_on_c, 0, 70, 95
2, 501120, Note_off_c, 0, 70, 95
2, 501120, Note_on_c, 0, 73, 70
2, 501360, Note_off_c, 0, 73, 70
2, 501360, Note_on_c, 0, 70, 70
2, 501600, Note_off_c, 0, 70, 70
2, 501600, Note_on_c, 0, 68, 95
2, 501840, Note_off_c, 0, 68, 95
2, 501840, Note_on_c, 0, 66, 70
2, 502080, Note_off_c, 0, 66, 70
2, 502080, Note_on_c, 0, 68, 70
2, 502320, Note_off_c, 0, 68, 70
2, 502320, Note_on_c, 0, 66, 70
2, 502560, Note_off_c, 0, 66, 70
2, 502560, Note_on_c, 0, 63, 95
2, 503040, Note_off_c, 0, 63, 95
2, 503040, Note_on_c, 0, 66, 95
2, 503520, Note_off_c, 0, 66, 95
2, 503520, Note_on_c, 0, 68, 95
2, 504000, Note_off_c, 0, 68, 95
2, 504000, Pitch_bend_c, 1, 8192
2, 504000, Note_on_c, 1, 68, 95
2, 504130, Pitch_bend_c, 1, 8320
2, 504260, Pitch_bend_c, 1, 8448
2, 504390, Pitch_bend_c, 1, 8576
2, 504520, Pitch_bend_c, 1, 8704
2, 504650, Pitch_bend_c, 1, 8832
2, 504780, Pitch_bend_c, 1, 8960
2, 504910, Pitch_bend_c, 1, 9088
2, 505040, Pitch_bend_c, 1, 9216
2, 505170, Pitch_bend_c, 1, 9344
2, 505300, Pitch_bend_c, 1, 9472
2, 505430, Pitch_bend_c, 1, 9600
2, 505440, Pitch_bend_c, 1, 9600
2, 506880, Pitch_bend_c, 1, 9600
2, 506880, Pitch_bend_c, 1, 8192
2, 506880, Note_off_c, 1, 68, 95
2, 506880, Note_on_c, 0, 63, 95
2, 507360, Note_off_c, 0, 63, 95
2, 507360, Note_on_c, 0, 66, 95
2, 507840, Note_off_c, 0, 66, 95
2, 507840, Note_on_c, 0, 63, 95
2, 508320, Note_off_c, 0, 63, 95
2, 508320, Note_on_c, 0, 61, 95
2, 509040, Note_on_c, 0, 39, 95
2, 510000, Note_off_c, 0, 61, 95
2, 510720, Note_off_c, 0, 39, 95
2, 511200, Pitch_bend_c, 1, 8192
2, 511200, Note_on_c, 1, 78, 95
2, 511265, Pitch_bend_c, 1, 8320
2, 511330, Pitch_bend_c, 1, 8448
2, 511395, Pitch_bend_c, 1, 8576
2, 511460, Pitch_bend_c, 1, 8704
2, 511525, Pitch_bend_c, 1, 8832
2, 511590, Pitch_bend_c, 1, 8960
2, 511655, Pitch_bend_c, 1, 9088
2, 511720, Pitch_bend_c, 1, 9216
2, 511785, Pitch_bend_c, 1, 9344
2, 511850, Pitch_bend_c, 1, 9472
2, 511915, Pitch_bend_c, 1, 9600
2, 511920, Pitch_bend_c, 1, 9600
2, 512640, Pitch_bend_c, 1, 9600
2, 512640, Pitch_bend_c, 1, 8192
2, 512640, Note_off_c, 1, 78, 95
2, 512640, Note_on_c, 0, 78, 95
2, 513120, Note_off_c, 0, 78, 95
2, 513120, Note_on_c, 0, 75, 95
2, 513360, Note_off_c, 0, 75, 95
2, 513360, Note_on_c, 0, 78, 70
2, 513600, Note_off_c, 0, 78, 70
2, 513600, Note_on_c, 0, 75, 70
2, 513840, Note_off_c, 0, 75, 70
2, 513840, Pitch_bend_c, 1, 8192
2, 513840, Note_on_c, 1, 73, 95
2, 513960, Pitch_bend_c, 1, 8320
2, 514080, Pitch_bend_c, 1, 8448
2, 514080, Pitch_bend_c, 1, 8448
2, 514320, Pitch_bend_c, 1, 8448
2, 514320, Pitch_bend_c, 1, 8192
2, 514320, Note_off_c, 1, 73, 95
2, 514320, Note_on_c, 0, 75, 95
2, 514680, Note_off_c, 0, 75, 95
2, 514680, Note_on_c, 0, 73, 95
2, 515160, Note_off_c, 0, 73, 95
2, 515160, Note_on_c, 0, 75, 95
2, 515640, Note_off_c, 0, 75, 95
2, 515640, Pitch_bend_c, 1, 8192
2, 515640, Note_on_c, 1, 78, 95
2, 515760, Pitch_bend_c, 1, 8320
2, 515880, Pitch_bend_c, 1, 8448
2, 515880, Pitch_bend_c, 1, 8448
2, 516120, Pitch_bend_c, 1, 8448
2, 516120, Pitch_bend_c, 1, 8192
2, 516120, Note_off_c, 1, 78, 95
2, 516120, Note_on_c, 0, 75, 95
2, 516240, Note_off_c, 0, 75, 95
2, 516240, Note_on_c, 0, 78, 70
2, 516480, Note_off_c, 0, 78, 70
2, 516480, Note_on_c, 0, 75, 95
2, 516720, Note_off_c, 0, 75, 95
2, 516720, Note_on_c, 0, 73, 95
2, 516960, Note_off_c, 0, 73, 95
2, 516960, Note_on_c, 0, 75, 95
2, 517120, Note_off_c, 0, 75, 95
2, 517120, Note_on_c, 0, 73, 95
2, 517280, Note_off_c, 0, 73, 95
2, 517280, Note_on_c, 0, 70, 70
2, 517440, Note_off_c, 0, 70, 70
2, 517440, Pitch_bend_c, 1, 8192
2, 517440, Note_on_c, 1, 68, 95
2, 517500, Pitch_bend_c, 1, 8320
2, 517560, Pitch_bend_c, 1, 8448
2, 517560, Pitch_bend_c, 1, 8448
2, 517680, Pitch_bend_c, 1, 8448
2, 517680, Pitch_bend_c, 1, 8192
2, 517680, Note_off_c, 1, 68, 95
2, 517680, Note_on_c, 0, 70, 95
2, 517920, Note_off_c, 0, 70, 95
2, 517920, Note_on_c, 0, 73, 70
2, 518160, Note_off_c, 0, 73, 70
2, 518160, Note_on_c, 0, 70, 95
2, 518400, Note_off_c, 0, 70, 95
2, 518400, Pitch_bend_c, 1, 8192
2, 518400, Note_on_c, 1, 73, 95
2, 518448, Pitch_bend_c, 1, 8320
2, 518496, Pitch_bend_c, 1, 8448
2, 518544, Pitch_bend_c, 1, 8576
2, 518592, Pitch_bend_c, 1, 8704
2, 518640, Pitch_bend_c, 1, 8832
2, 518640, Pitch_bend_c, 1, 8832
2, 518880, Pitch_bend_c, 1, 8832
2, 518880, Pitch_bend_c, 1, 8192
2, 518880, Note_off_c, 1, 73, 95
2, 518880, Note_on_c, 0, 70, 95
2, 519360, Note_off_c, 0, 70, 95
2, 519360, Pitch_bend_c, 1, 8192
2, 519360, Note_on_c, 1, 68, 95
2, 519408, Pitch_bend_c, 1, 8320
2, 519456, Pitch_bend_c, 1, 8448
2, 519504, Pitch_bend_c, 1, 8576
2, 519552, Pitch_bend_c, 1, 8704
2, 519600, Pitch_bend_c, 1, 8832
2, 519600, Pitch_bend_c, 1, 8832
2, 519840, Pitch_bend_c, 1, 8832
2, 519840, Pitch_bend_c, 1, 8192
2, 519840, Note_off_c, 1, 68, 95
2, 519840, Note_on_c, 0, 70, 95
2, 520320, Note_off_c, 0, 70, 95
2, 520320, Pitch_bend_c, 1, 8192
2, 520320, Note_on_c, 1, 68, 95
2, 520368, Pitch_bend_c, 1, 8320
2, 520416, Pitch_bend_c, 1, 8448
2, 520464, Pitch_bend_c, 1, 8576
2, 520512, Pitch_bend_c, 1, 8704
2, 520560, Pitch_bend_c, 1, 8832
2, 520560, Pitch_bend_c, 1, 8832
2, 520800, Pitch_bend_c, 1, 8832
2, 520800, Pitch_bend_c, 1, 8192
2, 520800, Note_off_c, 1, 68, 95
2, 520800, Note_on_c, 1, 70, 95
2, 520960, Pitch_bend_c, 1, 8192
2, 521120, Pitch_bend_c, 1, 8320
2, 521280, Pitch_bend_c, 1, 8192
2, 521440, Pitch_bend_c, 1, 8320
2, 521600, Pitch_bend_c, 1, 8192
2, 521760, Pitch_bend_c, 1, 8320
2, 521920, Pitch_bend_c, 1, 8192
2, 522080, Pitch_bend_c, 1, 8320
2, 522240, Pitch_bend_c, 1, 8192
2, 522240, Pitch_bend_c, 1, 8320
2, 522240, Pitch_bend_c, 1, 8192
2, 522240, Note_off_c, 1, 70, 95
2, 522240, Note_on_c, 0, 58, 47
2, 522720, Note_off_c, 0, 58, 47
2, 522720, Note_on_c, 0, 68, 95
2, 523200, Note_off_c, 0, 68, 95
2, 523200, Note_on_c, 0, 70, 95
2, 523680, Note_off_c, 0, 70, 95
2, 523680, Pitch_bend_c, 1, 8192
2, 523680, Note_on_c, 1, 73, 95
2, 523896, Pitch_bend_c, 1, 8320
2, 524112, Pitch_bend_c, 1, 8448
2, 524328, Pitch_bend_c, 1, 8576
2, 524544, Pitch_bend_c, 1, 8704
2, 524760, Pitch_bend_c, 1, 8832
2, 524760, Pitch_bend_c, 1, 8832
2, 525840, Pitch_bend_c, 1, 8832
2, 525840, Pitch_bend_c, 1, 8192
2, 525840, Note_off_c, 1, 73, 95
2, 525840, Pitch_bend_c, 1, 8192
2, 525840, Note_on_c, 1, 71, 95
2, 525870, Pitch_bend_c, 1, 8320
2, 525900, Pitch_bend_c, 1, 8448
2, 525930, Pitch_bend_c, 1, 8576
2, 525960, Pitch_bend_c, 1, 8704
2, 525990, Pitch_bend_c, 1, 8832
2, 526020, Pitch_bend_c, 1, 8960
2, 526050, Pitch_bend_c, 1, 9088
2, 526080, Pitch_bend_c, 1, 9216
2, 526080, Pitch_bend_c, 1, 9216
2, 526320, Pitch_bend_c, 1, 9216
2, 526320, Pitch_bend_c, 1, 8192
2, 526320, Note_off_c, 1, 71, 95
2, 526320, Pitch_bend_c, 1, 9216
2, 526320, Note_on_c, 1, 70, 95
2, 526800, Pitch_bend_c, 1, 9216
2, 526800, Pitch_bend_c, 1, 8192
2, 526800, Note_off_c, 1, 70, 95
2, 526800, Note_on_c, 0, 70, 95
2, 527280, Note_off_c, 0, 70, 95
2, 527280, Note_on_c, 0, 70, 95
2, 527520, Note_off_c, 0, 70, 95
2, 527520, Note_on_c, 0, 68, 95
2, 527760, Note_off_c, 0, 68, 95
2, 527760, Note_on_c, 0, 66, 70
2, 528000, Note_off_c, 0, 66, 70
2, 528000, Note_on_c, 0, 63, 95
2, 528240, Note_off_c, 0, 63, 95
2, 528240, Note_on_c, 0, 66, 95
2, 528480, Note_off_c, 0, 66, 95
2, 528480, Note_on_c, 0, 68, 70
2, 528720, Note_off_c, 0, 68, 70
2, 528720, Note_on_c, 1, 66, 70
2, 528840, Pitch_bend_c, 1, 7936
2, 528960, Pitch_bend_c, 1, 7552
2, 528960, Pitch_bend_c, 1, 8192
2, 528960, Note_off_c, 1, 66, 70
2, 528960, Note_on_c, 0, 65, 95
2, 529200, Note_off_c, 0, 65, 95
2, 529200, Note_on_c, 0, 66, 70
2, 529440, Note_off_c, 0, 66, 70
2, 529440, Note_on_c, 0, 65, 70
2, 529680, Note_off_c, 0, 65, 70
2, 529680, Note_on_c, 0, 63, 95
2, 529920, Note_off_c, 0, 63, 95
2, 529920, Note_on_c, 0, 65, 95
2, 530160, Note_off_c, 0, 65, 95
2, 530160, Note_on_c, 1, 60, 95
2, 530280, Pitch_bend_c, 1, 8448
2, 530400, Pitch_bend_c, 1, 8832
2, 530400, Pitch_bend_c, 1, 8192
2, 530400, Note_off_c, 1, 60, 95
2, 530400, Note_on_c, 1, 61, 95
2, 530520, Pitch_bend_c, 1, 8832
2, 530640, Pitch_bend_c, 1, 9600
2, 530640, Pitch_bend_c, 1, 8192
2, 530640, Note_off_c, 1, 61, 95
2, 530640, Note_on_c, 0, 63, 95
2, 530880, Note_off_c, 0, 63, 95
2, 530880, Note_on_c, 1, 66, 95
2, 531000, Pitch_bend_c, 1, 8832
2, 531120, Pitch_bend_c, 1, 9600
2, 531120, Pitch_bend_c, 1, 8192
2, 531120, Note_off_c, 1, 66, 95
2, 531120, Note_on_c, 0, 68, 95
2, 531360, Note_off_c, 0, 68, 95
2, 531360, Note_on_c, 1, 70, 95
2, 531480, Pitch_bend_c, 1, 8832
2, 531600, Pitch_bend_c, 1, 9600
2, 531600, Pitch_bend_c, 1, 8192
2, 531600, Note_off_c, 1, 70, 95
2, 531600, Note_on_c, 0, 72, 95
2, 531840, Note_off_c, 0, 72, 95
2, 531840, Note_on_c, 0, 75, 95
2, 532080, Note_off_c, 0, 75, 95
2, 532080, Note_on_c, 0, 77, 95
2, 532320, Note_off_c, 0, 77, 95
2, 532320, Pitch_bend_c, 1, 8192
2, 532320, Note_on_c, 1, 78, 95
2, 532385, Pitch_bend_c, 1, 8320
2, 532450, Pitch_bend_c, 1, 8448
2, 532515, Pitch_bend_c, 1, 8576
2, 532580, Pitch_bend_c, 1, 8704
2, 532645, Pitch_bend_c, 1, 8832
2, 532710, Pitch_bend_c, 1, 8960
2, 532775, Pitch_bend_c, 1, 9088
2, 532840, Pitch_bend_c, 1, 9216
2, 532905, Pitch_bend_c, 1, 9344
2, 532970, Pitch_bend_c, 1, 9472
2, 533035, Pitch_bend_c, 1, 9600
2, 533040, Pitch_bend_c, 1, 9600
2, 533760, Pitch_bend_c, 1, 9600
2, 533760, Pitch_bend_c, 1, 8192
2, 533760, Note_off_c, 1, 78, 95
2, 533760, Pitch_bend_c, 1, 8192
2, 533760, Note_on_c, 1, 78, 95
2, 533940, Pitch_bend_c, 1, 8320
2, 534120, Pitch_bend_c, 1, 8448
2, 534120, Pitch_bend_c, 1, 8448
2, 534480, Pitch_bend_c, 1, 8448
2, 534480, Pitch_bend_c, 1, 8192
2, 534480, Note_off_c, 1, 78, 95
2, 534480, Note_on_c, 0, 75, 95
2, 534600, Note_off_c, 0, 75, 95
2, 534600, Note_on_c, 0, 78, 70
2, 534840, Note_off_c, 0, 78, 70
2, 534840, Note_on_c, 0, 75, 70
2, 535080, Note_off_c, 0, 75, 70
2, 535080, Note_on_c, 0, 73, 95
2, 535320, Note_off_c, 0, 73, 95
2, 535320, Note_on_c, 0, 75, 95
2, 535560, Note_off_c, 0, 75, 95
2, 535560, Note_on_c, 0, 73, 95
2, 535720, Note_off_c, 0, 73, 95
2, 535720, Note_on_c, 0, 74, 70
2, 535880, Note_off_c, 0, 74, 70
2, 535880, Note_on_c, 0, 75, 70
2, 536040, Note_off_c, 0, 75, 70
2, 536040, Note_on_c, 0, 78, 95
2, 536520, Note_off_c, 0, 78, 95
2, 536520, Note_on_c, 0, 80, 95
2, 537000, Note_off_c, 0, 80, 95
2, 537000, Pitch_bend_c, 1, 8192
2, 537000, Note_on_c, 1, 80, 95
2, 537021, Pitch_bend_c, 1, 8320
2, 537042, Pitch_bend_c, 1, 8448
2, 537063, Pitch_bend_c, 1, 8576
2, 537084, Pitch_bend_c, 1, 8704
2, 537105, Pitch_bend_c, 1, 8832
2, 537126, Pitch_bend_c, 1, 8960
2, 537147, Pitch_bend_c, 1, 9088
2, 537168, Pitch_bend_c, 1, 9216
2, 537189, Pitch_bend_c, 1, 9344
2, 537210, Pitch_bend_c, 1, 9472
2, 537231, Pitch_bend_c, 1, 9600
2, 537240, Pitch_bend_c, 1, 9600
2, 537480, Pitch_bend_c, 1, 9600
2, 537480, Pitch_bend_c, 1, 8192
2, 537480, Note_off_c, 1, 80, 95
2, 537480, Pitch_bend_c, 1, 8192
2, 537480, Note_on_c, 1, 80, 95
2, 537595, Pitch_bend_c, 1, 8320
2, 537710, Pitch_bend_c, 1, 8448
2, 537825, Pitch_bend_c, 1, 8576
2, 537940, Pitch_bend_c, 1, 8704
2, 538055, Pitch_bend_c, 1, 8832
2, 538170, Pitch_bend_c, 1, 8960
2, 538285, Pitch_bend_c, 1, 9088
2, 538400, Pitch_bend_c, 1, 9216
2, 538515, Pitch_bend_c, 1, 9344
2, 538630, Pitch_bend_c, 1, 9472
2, 538745, Pitch_bend_c, 1, 9600
2, 538860, Pitch_bend_c, 1, 9728
2, 538975, Pitch_bend_c, 1, 9856
2, 538980, Pitch_bend_c, 1, 9856
2, 540480, Pitch_bend_c, 1, 9856
2, 540480, Pitch_bend_c, 1, 8192
2, 540480, Note_off_c, 1, 80, 95
2, 540480, Pitch_bend_c, 1, 8192
2, 540480, Note_on_c, 1, 80, 95
2, 540489, Pitch_bend_c, 1, 8320
2, 540498, Pitch_bend_c, 1, 8448
2, 540507, Pitch_bend_c, 1, 8576
2, 540516, Pitch_bend_c, 1, 8704
2, 540525, Pitch_bend_c, 1, 8832
2, 540534, Pitch_bend_c, 1, 8960
2, 540543, Pitch_bend_c, 1, 9088
2, 540552, Pitch_bend_c, 1, 9216
2, 540561, Pitch_bend_c, 1, 9344
2, 540570, Pitch_bend_c, 1, 9472
2, 540579, Pitch_bend_c, 1, 9600
2, 540588, Pitch_bend_c, 1, 9728
2, 540597, Pitch_bend_c, 1, 9856
2, 540600, Pitch_bend_c, 1, 9856
2, 540720, Pitch_bend_c, 1, 9856
2, 540729, Pitch_bend_c, 1, 9728
2, 540738, Pitch_bend_c, 1, 9600
2, 540747, Pitch_bend_c, 1, 9472
2, 540756, Pitch_bend_c, 1, 9344
2, 540765, Pitch_bend_c, 1, 9216
2, 540774, Pitch_bend_c, 1, 9088
2, 540783, Pitch_bend_c, 1, 8960
2, 540792, Pitch_bend_c, 1, 8832
2, 540801, Pitch_bend_c, 1, 8704
2, 540810, Pitch_bend_c, 1, 8576
2, 540819, Pitch_bend_c, 1, 8448
2, 540828, Pitch_bend_c, 1, 8320
2, 540837, Pitch_bend_c, 1, 8192
2, 540840, Pitch_bend_c, 1, 8192
2, 540960, Pitch_bend_c, 1, 8192
2, 540960, Pitch_bend_c, 1, 8192
2, 540960, Note_off_c, 1, 80, 95
2, 540960, Note_on_c, 0, 80, 95
2, 541440, Note_off_c, 0, 80, 95
2, 541440, Pitch_bend_c, 1, 8192
2, 541440, Note_on_c, 1, 80, 95
2, 541470, Pitch_bend_c, 1, 8320
2, 541500, Pitch_bend_c, 1, 8448
2, 541530, Pitch_bend_c, 1, 8576
2, 541560, Pitch_bend_c, 1, 8704
2, 541590, Pitch_bend_c, 1, 8832
2, 541620, Pitch_bend_c, 1, 8960
2, 541650, Pitch_bend_c, 1, 9088
2, 541680, Pitch_bend_c, 1, 9216
2, 541680, Pitch_bend_c, 1, 9216
2, 541920, Pitch_bend_c, 1, 9216
2, 541920, Pitch_bend_c, 1, 8192
2, 541920, Note_off_c, 1, 80, 95
2, 541920, Note_on_c, 1, 75, 95
2, 542080, Pitch_bend_c, 1, 8192
2, 542240, Pitch_bend_c, 1, 8320
2, 542400, Pitch_bend_c, 1, 8192
2, 542560, Pitch_bend_c, 1, 8320
2, 542720, Pitch_bend_c, 1, 8192
2, 542880, Pitch_bend_c, 1, 8320
2, 543040, Pitch_bend_c, 1, 8192
2, 543200, Pitch_bend_c, 1, 8320
2, 543360, Pitch_bend_c, 1, 8192
2, 543360, Pitch_bend_c, 1, 8320
2, 543360, Pitch_bend_c, 1, 8192
2, 543360, Note_off_c, 1, 75, 95
2, 543360, Pitch_bend_c, 1, 8192
2, 543360, Note_on_c, 1, 78, 95
2, 543480, Pitch_bend_c, 1, 8320
2, 543600, Pitch_bend_c, 1, 8448
2, 543600, Pitch_bend_c, 1, 8448
2, 543840, Pitch_bend_c, 1, 8448
2, 543840, Pitch_bend_c, 1, 8192
2, 543840, Note_off_c, 1, 78, 95
2, 543840, Note_on_c, 1, 75, 95
2, 543960, Pitch_bend_c, 1, 8704
2, 544080, Pitch_bend_c, 1, 9216
2, 544200, Pitch_bend_c, 1, 9728
2, 544320, Pitch_bend_c, 1, 10240
2, 544320, Pitch_bend_c, 1, 8192
2, 544320, Note_off_c, 1, 75, 95
2, 544320, Pitch_bend_c, 1, 8192
2, 544320, Note_on_c, 1, 78, 95
2, 544440, Pitch_bend_c, 1, 8320
2, 544560, Pitch_bend_c, 1, 8448
2, 544560, Pitch_bend_c, 1, 8448
2, 544800, Pitch_bend_c, 1, 8448
2, 544800, Pitch_bend_c, 1, 8192
2, 544800, Note_off_c, 1, 78, 95
2, 544800, Pitch_bend_c, 1, 8192
2, 544800, Note_on_c, 1, 78, 95
2, 544864, Pitch_bend_c, 1, 8320
2, 544928, Pitch_bend_c, 1, 8448
2, 544992, Pitch_bend_c, 1, 8576
2, 545056, Pitch_bend_c, 1, 8704
2, 545120, Pitch_bend_c, 1, 8832
2, 545184, Pitch_bend_c, 1, 8960
2, 545248, Pitch_bend_c, 1, 9088
2, 545312, Pitch_bend_c, 1, 9216
2, 545376, Pitch_bend_c, 1, 9344
2, 545440, Pitch_bend_c, 1, 9472
2, 545504, Pitch_bend_c, 1, 9600
2, 545568, Pitch_bend_c, 1, 9728
2, 545632, Pitch_bend_c, 1, 9856
2, 545640, Pitch_bend_c, 1, 9856
2, 546480, Pitch_bend_c, 1, 9856
2, 546480, Pitch_bend_c, 1, 8192
2, 546480, Note_off_c, 1, 78, 95
2, 546480, Pitch_bend_c, 1, 8192
2, 546480, Note_on_c, 1, 78, 95
2, 546501, Pitch_bend_c, 1, 8320
2, 546522, Pitch_bend_c, 1, 8448
2, 546543, Pitch_bend_c, 1, 8576
2, 546564, Pitch_bend_c, 1, 8704
2, 546585, Pitch_bend_c, 1, 8832
2, 546606, Pitch_bend_c, 1, 8960
2, 546627, Pitch_bend_c, 1, 9088
2, 546648, Pitch_bend_c, 1, 9216
2, 546669, Pitch_bend_c, 1, 9344
2, 546690, Pitch_bend_c, 1, 9472
2, 546711, Pitch_bend_c, 1, 9600
2, 546720, Pitch_bend_c, 1, 9600
2, 546960, Pitch_bend_c, 1, 9600
2, 546960, Pitch_bend_c, 1, 8192
2, 546960, Note_off_c, 1, 78, 95
2, 546960, Note_on_c, 0, 78, 95
2, 547440, Note_off_c, 0, 78, 95
2, 547440, Pitch_bend_c, 1, 8192
2, 547440, Note_on_c, 1, 75, 95
2, 547560, Pitch_bend_c, 1, 8320
2, 547680, Pitch_bend_c, 1, 8448
2, 547680, Pitch_bend_c, 1, 8448
2, 547920, Pitch_bend_c, 1, 8448
2, 547920, Pitch_bend_c, 1, 8192
2, 547920, Note_off_c, 1, 75, 95
2, 547920, Pitch_bend_c, 1, 8192
2, 547920, Note_on_c, 1, 78, 95
2, 548040, Pitch_bend_c, 1, 8320
2, 548160, Pitch_bend_c, 1, 8448
2, 548160, Pitch_bend_c, 1, 8448
2, 548400, Pitch_bend_c, 1, 8448
2, 548400, Pitch_bend_c, 1, 8192
2, 548400, Note_off_c, 1, 78, 95
2, 548400, Pitch_bend_c, 1, 8192
2, 548400, Note_on_c, 1, 75, 95
2, 548520, Pitch_bend_c, 1, 8320
2, 548640, Pitch_bend_c, 1, 8448
2, 548640, Pitch_bend_c, 1, 8448
2, 548880, Pitch_bend_c, 1, 8448
2, 548880, Pitch_bend_c, 1, 8192
2, 548880, Note_off_c, 1, 75, 95
2, 548880, Pitch_bend_c, 1, 8192
2, 548880, Note_on_c, 1, 73, 95
2, 549000, Pitch_bend_c, 1, 8320
2, 549120, Pitch_bend_c, 1, 8448
2, 549120, Pitch_bend_c, 1, 8448
2, 549360, Pitch_bend_c, 1, 8448
2, 549360, Pitch_bend_c, 1, 8192
2, 549360, Note_off_c, 1, 73, 95
2, 549360, Pitch_bend_c, 1, 8192
2, 549360, Note_on_c, 1, 75, 95
2, 549480, Pitch_bend_c, 1, 8320
2, 549600, Pitch_bend_c, 1, 8448
2, 549600, Pitch_bend_c, 1, 8448
2, 549840, Pitch_bend_c, 1, 8448
2, 549840, Pitch_bend_c, 1, 8192
2, 549840, Note_off_c, 1, 75, 95
2, 549840, Note_on_c, 0, 69, 95
2, 550160, Note_off_c, 0, 69, 95
2, 550160, Note_on_c, 0, 68, 70
2, 550480, Note_off_c, 0, 68, 70
2, 550480, Note_on_c, 0, 66, 70
2, 550800, Note_off_c, 0, 66, 70
2, 550800, Note_on_c, 0, 63, 95
2, 551040, Note_off_c, 0, 63, 95
2, 551040, Note_on_c, 1, 66, 95
2, 551160, Pitch_bend_c, 1, 9216
2, 551280, Pitch_bend_c, 1, 10240
2, 551280, Pitch_bend_c, 1, 8192
2, 551280, Note_off_c, 1, 66, 95
2, 551280, Pitch_bend_c, 1, 8192
2, 551280, Note_on_c, 1, 69, 95
2, 551335, Pitch_bend_c, 1, 8320
2, 551390, Pitch_bend_c, 1, 8448
2, 551445, Pitch_bend_c, 1, 8576
2, 551500, Pitch_bend_c, 1, 8704
2, 551555, Pitch_bend_c, 1, 8832
2, 551610, Pitch_bend_c, 1, 8960
2, 551665, Pitch_bend_c, 1, 9088
2, 551720, Pitch_bend_c, 1, 9216
2, 551775, Pitch_bend_c, 1, 9344
2, 551830, Pitch_bend_c, 1, 9472
2, 551885, Pitch_bend_c, 1, 9600
2, 551940, Pitch_bend_c, 1, 9728
2, 551995, Pitch_bend_c, 1, 9856
2, 552000, Pitch_bend_c, 1, 9856
2, 552720, Pitch_bend_c, 1, 9856
2, 552720, Pitch_bend_c, 1, 8192
2, 552720, Note_off_c, 1, 69, 95
2, 552720, Pitch_bend_c, 1, 8192
2, 552720, Note_on_c, 1, 73, 95
2, 553020, Pitch_bend_c, 1, 8320
2, 553320, Pitch_bend_c, 1, 8448
2, 553320, Pitch_bend_c, 1, 8448
2, 553920, Pitch_bend_c, 1, 8448
2, 553920, Pitch_bend_c, 1, 8192
2, 553920, Note_off_c, 1, 73, 95
2, 553920, Note_on_c, 0, 73, 95
2, 553920, Pitch_bend_c, 1, 8192
2, 553920, Note_on_c, 1, 68, 95
2, 553963, Pitch_bend_c, 1, 8320
2, 554006, Pitch_bend_c, 1, 8448
2, 554049, Pitch_bend_c, 1, 8576
2, 554092, Pitch_bend_c, 1, 8704
2, 554135, Pitch_bend_c, 1, 8832
2, 554178, Pitch_bend_c, 1, 8960
2, 554221, Pitch_bend_c, 1, 9088
2, 554264, Pitch_bend_c, 1, 9216
2, 554307, Pitch_bend_c, 1, 9344
2, 554350, Pitch_bend_c, 1, 9472
2, 554393, Pitch_bend_c, 1, 9600
2, 554400, Pitch_bend_c, 1, 9600
2, 554880, Note_off_c, 0, 73, 95
2, 554880, Pitch_bend_c, 1, 9600
2, 554880, Pitch_bend_c, 1, 8192
2, 554880, Note_off_c, 1, 68, 95
2, 554880, Note_on_c, 0, 73, 95
2, 554880, Pitch_bend_c, 1, 8192
2, 554880, Note_on_c, 1, 68, 95
2, 554923, Pitch_bend_c, 1, 8320
2, 554966, Pitch_bend_c, 1, 8448
2, 555009, Pitch_bend_c, 1, 8576
2, 555052, Pitch_bend_c, 1, 8704
2, 555095, Pitch_bend_c, 1, 8832
2, 555138, Pitch_bend_c, 1, 8960
2, 555181, Pitch_bend_c, 1, 9088
2, 555224, Pitch_bend_c, 1, 9216
2, 555267, Pitch_bend_c, 1, 9344
2, 555310, Pitch_bend_c, 1, 9472
2, 555353, Pitch_bend_c, 1, 9600
2, 555360, Pitch_bend_c, 1, 9600
2, 555840, Note_off_c, 0, 73, 95
2, 555840, Pitch_bend_c, 1, 9600
2, 555840, Pitch_bend_c, 1, 8192
2, 555840, Note_off_c, 1, 68, 95
2, 555840, Pitch_bend_c, 1, 9600
2, 555840, Note_on_c, 1, 68, 95
2, 555946, Pitch_bend_c, 1, 9600
2, 555955, Pitch_bend_c, 1, 9472
2, 555964, Pitch_bend_c, 1, 9344
2, 555973, Pitch_bend_c, 1, 9216
2, 555982, Pitch_bend_c, 1, 9088
2, 555991, Pitch_bend_c, 1, 8960
2, 556000, Pitch_bend_c, 1, 8832
2, 556009, Pitch_bend_c, 1, 8704
2, 556018, Pitch_bend_c, 1, 8576
2, 556027, Pitch_bend_c, 1, 8448
2, 556036, Pitch_bend_c, 1, 8320
2, 556045, Pitch_bend_c, 1, 8192
2, 556053, Pitch_bend_c, 1, 8192
2, 556160, Pitch_bend_c, 1, 8192
2, 556160, Pitch_bend_c, 1, 8192
2, 556160, Note_off_c, 1, 68, 95
2, 556160, Note_on_c, 0, 66, 95
2, 556480, Note_off_c, 0, 66, 95
2, 556480, Note_on_c, 0, 63, 95
2, 556800, Note_off_c, 0, 63, 95
2, 556800, Note_on_c, 1, 66, 95
2, 556960, Pitch_bend_c, 1, 8832
2, 557120, Pitch_bend_c, 1, 9600
2, 557120, Pitch_bend_c, 1, 8192
2, 557120, Note_off_c, 1, 66, 95
2, 557120, Note_on_c, 0, 68, 95
2, 557440, Note_off_c, 0, 68, 95
2, 557440, Note_on_c, 0, 75, 95
2, 557760, Note_off_c, 0, 75, 95
2, 557760, Note_on_c, 0, 73, 95
2, 558000, Note_off_c, 0, 73, 95
2, 558000, Note_on_c, 0, 70, 70
2, 558240, Note_off_c, 0, 70, 70
2, 558240, Note_on_c, 1, 66, 95
2, 558360, Pitch_bend_c, 1, 8832
2, 558480, Pitch_bend_c, 1, 9600
2, 558480, Pitch_bend_c, 1, 8192
2, 558480, Note_off_c, 1, 66, 95
2, 558480, Note_on_c, 0, 68, 95
2, 558720, Note_off_c, 0, 68, 95
2, 558720, Note_on_c, 0, 75, 95
2, 558960, Note_off_c, 0, 75, 95
2, 558960, Note_on_c, 0, 73, 95
2, 559200, Note_off_c, 0, 73, 95
2, 559200, Note_on_c, 0, 70, 70
2, 559440, Note_off_c, 0, 70, 70
2, 559440, Note_on_c, 0, 68, 95
2, 559680, Note_off_c, 0, 68, 95
2, 559680, Note_on_c, 0, 75, 95
2, 559920, Note_off_c, 0, 75, 95
2, 559920, Note_on_c, 0, 73, 95
2, 560160, Note_off_c, 0, 73, 95
2, 560160, Note_on_c, 0, 70, 70
2, 560400, Note_off_c, 0, 70, 70
2, 560400, Note_on_c, 0, 68, 95
2, 560640, Note_off_c, 0, 68, 95
2, 560640, Note_on_c, 0, 73, 95
2, 560880, Note_off_c, 0, 73, 95
2, 560880, Note_on_c, 0, 70, 70
2, 561120, Note_off_c, 0, 70, 70
2, 561120, Pitch_bend_c, 1, 8192
2, 561120, Note_on_c, 1, 68, 95
2, 561130, Pitch_bend_c, 1, 8320
2, 561140, Pitch_bend_c, 1, 8448
2, 561150, Pitch_bend_c, 1, 8576
2, 561160, Pitch_bend_c, 1, 8704
2, 561170, Pitch_bend_c, 1, 8832
2, 561180, Pitch_bend_c, 1, 8960
2, 561190, Pitch_bend_c, 1, 9088
2, 561200, Pitch_bend_c, 1, 9216
2, 561210, Pitch_bend_c, 1, 9344
2, 561220, Pitch_bend_c, 1, 9472
2, 561230, Pitch_bend_c, 1, 9600
2, 561240, Pitch_bend_c, 1, 9600
2, 561360, Pitch_bend_c, 1, 9600
2, 561370, Pitch_bend_c, 1, 9472
2, 561380, Pitch_bend_c, 1, 9344
2, 561390, Pitch_bend_c, 1, 9216
2, 561400, Pitch_bend_c, 1, 9088
2, 561410, Pitch_bend_c, 1, 8960
2, 561420, Pitch_bend_c, 1, 8832
2, 561430, Pitch_bend_c, 1, 8704
2, 561440, Pitch_bend_c, 1, 8576
2, 561450, Pitch_bend_c, 1, 8448
2, 561460, Pitch_bend_c, 1, 8320
2, 561470, Pitch_bend_c, 1, 8192
2, 561480, Pitch_bend_c, 1, 8192
2, 561600, Pitch_bend_c, 1, 8192
2, 561600, Pitch_bend_c, 1, 8192
2, 561600, Note_off_c, 1, 68, 95
2, 561600, Note_on_c, 0, 66, 95
2, 561840, Note_off_c, 0, 66, 95
2, 561840, Note_on_c, 0, 63, 95
2, 562080, Note_off_c, 0, 63, 95
2, 562080, Note_on_c, 0, 66, 95
2, 562320, Note_off_c, 0, 66, 95
2, 562320, Pitch_bend_c, 1, 8192
2, 562320, Note_on_c, 1, 68, 95
2, 562325, Pitch_bend_c, 1, 8320
2, 562330, Pitch_bend_c, 1, 8448
2, 562335, Pitch_bend_c, 1, 8576
2, 562340, Pitch_bend_c, 1, 8704
2, 562345, Pitch_bend_c, 1, 8832
2, 562350, Pitch_bend_c, 1, 8960
2, 562355, Pitch_bend_c, 1, 9088
2, 562360, Pitch_bend_c, 1, 9216
2, 562365, Pitch_bend_c, 1, 9344
2, 562370, Pitch_bend_c, 1, 9472
2, 562375, Pitch_bend_c, 1, 9600
2, 562380, Pitch_bend_c, 1, 9600
2, 562440, Pitch_bend_c, 1, 9600
2, 562440, Pitch_bend_c, 1, 8192
2, 562440, Note_off_c, 1, 68, 95
2, 562440, Note_on_c, 0, 70, 95
2, 562560, Note_off_c, 0, 70, 95
2, 562560, Note_on_c, 0, 75, 95
2, 563040, Note_off_c, 0, 75, 95
2, 563040, Note_on_c, 0, 58, 47
2, 563040, Note_on_c, 0, 54, 47
2, 564000, Note_off_c, 0, 58, 47
2, 564000, Note_off_c, 0, 54, 47
2, 564000, Note_on_c, 0, 73, 95
2, 564480, Note_off_c, 0, 73, 95
2, 564480, Pitch_bend_c, 1, 8192
2, 564480, Note_on_c, 1, 73, 95
2, 564545, Pitch_bend_c, 1, 8320
2, 564610, Pitch_bend_c, 1, 8448
2, 564675, Pitch_bend_c, 1, 8576
2, 564740, Pitch_bend_c, 1, 8704
2, 564805, Pitch_bend_c, 1, 8832
2, 564870, Pitch_bend_c, 1, 8960
2, 564935, Pitch_bend_c, 1, 9088
2, 565000, Pitch_bend_c, 1, 9216
2, 565065, Pitch_bend_c, 1, 9344
2, 565130, Pitch_bend_c, 1, 9472
2, 565195, Pitch_bend_c, 1, 9600
2, 565200, Pitch_bend_c, 1, 9600
2, 565920, Pitch_bend_c, 1, 9600
2, 565920, Pitch_bend_c, 1, 8192
2, 565920, Note_off_c, 1, 73, 95
2, 565920, Note_on_c, 0, 68, 47
2, 566400, Note_off_c, 0, 68, 47
2, 566400, Pitch_bend_c, 1, 8192
2, 566400, Note_on_c, 1, 68, 95
2, 566443, Pitch_bend_c, 1, 8320
2, 566486, Pitch_bend_c, 1, 8448
2, 566529, Pitch_bend_c, 1, 8576
2, 566572, Pitch_bend_c, 1, 8704
2, 566615, Pitch_bend_c, 1, 8832
2, 566658, Pitch_bend_c, 1, 8960
2, 566701, Pitch_bend_c, 1, 9088
2, 566744, Pitch_bend_c, 1, 9216
2, 566787, Pitch_bend_c, 1, 9344
2, 566830, Pitch_bend_c, 1, 9472
2, 566873, Pitch_bend_c, 1, 9600
2, 566880, Pitch_bend_c, 1, 9600
2, 567360, Pitch_bend_c, 1, 9600
2, 567360, Pitch_bend_c, 1, 8192
2, 567360, Note_off_c, 1, 68, 95
2, 567360, Note_on_c, 0, 68, 95
2, 567840, Note_off_c, 0, 68, 95
2, 567840, Note_on_c, 0, 63, 95
2, 568320, Note_off_c, 0, 63, 95
2, 568320, Pitch_bend_c, 1, 8192
2, 568320, Note_on_c, 1, 66, 95
2, 568448, Pitch_bend_c, 1, 8320
2, 568576, Pitch_bend_c, 1, 8448
2, 568704, Pitch_bend_c, 1, 8576
2, 568832, Pitch_bend_c, 1, 8704
2, 568960, Pitch_bend_c, 1, 8832
2, 568960, Pitch_bend_c, 1, 8832
2, 569600, Pitch_bend_c, 1, 8832
2, 569600, Pitch_bend_c, 1, 8192
2, 569600, Note_off_c, 1, 66, 95
2, 569600, Note_on_c, 1, 58, 95
2, 569760, Pitch_bend_c, 1, 9216
2, 569920, Pitch_bend_c, 1, 10240
2, 569920, Pitch_bend_c, 1, 8192
2, 569920, Note_off_c, 1, 58, 95
2, 569920, Note_on_c, 0, 61, 95
2, 570240, Note_off_c, 0, 61, 95
2, 570240, Pitch_bend_c, 1, 8192
2, 570240, Note_on_c, 1, 63, 95
2, 570600, Pitch_bend_c, 1, 8320
2, 570960, Pitch_bend_c, 1, 8448
2, 570960, Pitch_bend_c, 1, 8448
2, 571680, Pitch_bend_c, 1, 8448
2, 571680, Pitch_bend_c, 1, 8192
2, 571680, Note_off_c, 1, 63, 95
2, 571680, Note_on_c, 1, 56, 95
2, 571800, Pitch_bend_c, 1, 8832
2, 571920, Pitch_bend_c, 1, 9600
2, 571920, Pitch_bend_c, 1, 8192
2, 571920, Note_off_c, 1, 56, 95
2, 571920, Note_on_c, 0, 58, 95
2, 572160, Note_off_c, 0, 58, 95
2, 572160, Pitch_bend_c, 1, 8192
2, 572160, Note_on_c, 1, 61, 95
2, 572480, Pitch_bend_c, 1, 8320
2, 572800, Pitch_bend_c, 1, 8448
2, 572800, Pitch_bend_c, 1, 8448
2, 573440, Pitch_bend_c, 1, 8448
2, 573440, Pitch_bend_c, 1, 8192
2, 573440, Note_off_c, 1, 61, 95
2, 573440, Note_on_c, 0, 58, 95
2, 573760, Note_off_c, 0, 58, 95
2, 573760, Note_on_c, 0, 56, 70
2, 574080, Note_off_c, 0, 56, 70
2, 574080, Note_on_c, 0, 54, 95
2, 575040, Note_off_c, 0, 54, 95
2, 575040, Note_on_c, 0, 56, 95
2, 575520, Note_off_c, 0, 56, 95
2, 575520, Note_on_c, 0, 54, 95
2, 575520, Note_on_c, 0, 39, 95
2, 576000, Note_off_c, 0, 54, 95
2, 576000, Note_off_c, 0, 39, 95
2, 576000, Note_on_c, 0, 39, 95
2, 579840, Note_on_c, 0, 63, 47
2, 579840, Note_on_c, 0, 58, 47
2, 582720, Note_off_c, 0, 39, 95
2, 582720, Note_off_c, 0, 63, 47
2, 582720, Note_off_c, 0, 58, 47
2, 582720, Pitch_bend_c, 1, 8192
2, 582720, Note_on_c, 1, 78, 95
2, 582763, Pitch_bend_c, 1, 8320
2, 582806, Pitch_bend_c, 1, 8448
2, 582849, Pitch_bend_c, 1, 8576
2, 582892, Pitch_bend_c, 1, 8704
2, 582935, Pitch_bend_c, 1, 8832
2, 582978, Pitch_bend_c, 1, 8960
2, 583021, Pitch_bend_c, 1, 9088
2, 583064, Pitch_bend_c, 1, 9216
2, 583107, Pitch_bend_c, 1, 9344
2, 583150, Pitch_bend_c, 1, 9472
2, 583193, Pitch_bend_c, 1, 9600
2, 583200, Pitch_bend_c, 1, 9600
2, 583680, Pitch_bend_c, 1, 9600
2, 583680, Pitch_bend_c, 1, 8192
2, 583680, Note_off_c, 1, 78, 95
2, 583680, Pitch_bend_c, 1, 8192
2, 583680, Note_on_c, 1, 78, 95
2, 583767, Pitch_bend_c, 1, 8320
2, 583854, Pitch_bend_c, 1, 8448
2, 583941, Pitch_bend_c, 1, 8576
2, 584028, Pitch_bend_c, 1, 8704
2, 584115, Pitch_bend_c, 1, 8832
2, 584202, Pitch_bend_c, 1, 8960
2, 584289, Pitch_bend_c, 1, 9088
2, 584376, Pitch_bend_c, 1, 9216
2, 584463, Pitch_bend_c, 1, 9344
2, 584550, Pitch_bend_c, 1, 9472
2, 584637, Pitch_bend_c, 1, 9600
2, 584640, Pitch_bend_c, 1, 9600
2, 585600, Pitch_bend_c, 1, 9600
2, 585600, Pitch_bend_c, 1, 8192
2, 585600, Note_off_c, 1, 78, 95
2, 585600, Pitch_bend_c, 1, 8192
2, 585600, Note_on_c, 1, 75, 95
2, 585840, Pitch_bend_c, 1, 8320
2, 586080, Pitch_bend_c, 1, 8448
2, 586080, Pitch_bend_c, 1, 8448
2, 586560, Pitch_bend_c, 1, 8448
2, 586560, Pitch_bend_c, 1, 8192
2, 586560, Note_off_c, 1, 75, 95
2, 586560, Pitch_bend_c, 1, 8192
2, 586560, Note_on_c, 1, 78, 95
2, 586656, Pitch_bend_c, 1, 8320
2, 586752, Pitch_bend_c, 1, 8448
2, 586848, Pitch_bend_c, 1, 8576
2, 586944, Pitch_bend_c, 1, 8704
2, 587040, Pitch_bend_c, 1, 8832
2, 587040, Pitch_bend_c, 1, 8832
2, 587520, Pitch_bend_c, 1, 8832
2, 587520, Pitch_bend_c, 1, 8192
2, 587520, Note_off_c, 1, 78, 95
2, 587520, Note_on_c, 1, 75, 95
2, 587640, Pitch_bend_c, 1, 8448
2, 587760, Pitch_bend_c, 1, 8832
2, 587880, Pitch_bend_c, 1, 9216
2, 588000, Pitch_bend_c, 1, 9600
2, 588000, Pitch_bend_c, 1, 8192
2, 588000, Note_off_c, 1, 75, 95
2, 588000, Pitch_bend_c, 1, 8192
2, 588000, Note_on_c, 1, 77, 95
2, 588048, Pitch_bend_c, 1, 8320
2, 588096, Pitch_bend_c, 1, 8448
2, 588144, Pitch_bend_c, 1, 8576
2, 588192, Pitch_bend_c, 1, 8704
2, 588240, Pitch_bend_c, 1, 8832
2, 588240, Pitch_bend_c, 1, 8832
2, 588480, Pitch_bend_c, 1, 8832
2, 588480, Pitch_bend_c, 1, 8192
2, 588480, Note_off_c, 1, 77, 95
2, 588480, Pitch_bend_c, 1, 8192
2, 588480, Note_on_c, 1, 80, 95
2, 588512, Pitch_bend_c, 1, 8320
2, 588544, Pitch_bend_c, 1, 8448
2, 588576, Pitch_bend_c, 1, 8576
2, 588608, Pitch_bend_c, 1, 8704
2, 588640, Pitch_bend_c, 1, 8832
2, 588640, Pitch_bend_c, 1, 8832
2, 588800, Pitch_bend_c, 1, 8832
2, 588800, Pitch_bend_c, 1, 8192
2, 588800, Note_off_c, 1, 80, 95
2, 588800, Pitch_bend_c, 1, 8192
2, 588800, Note_on_c, 1, 76, 95
2, 588832, Pitch_bend_c, 1, 8320
2, 588864, Pitch_bend_c, 1, 8448
2, 588896, Pitch_bend_c, 1, 8576
2, 588928, Pitch_bend_c, 1, 8704
2, 588960, Pitch_bend_c, 1, 8832
2, 588960, Pitch_bend_c, 1, 8832
2, 589120, Pitch_bend_c, 1, 8832
2, 589120, Pitch_bend_c, 1, 8192
2, 589120, Note_off_c, 1, 76, 95
2, 589120, Note_on_c, 0, 79, 95
2, 589920, Note_off_c, 0, 79, 95
2, 589920, Pitch_bend_c, 1, 8192
2, 589920, Note_on_c, 1, 78, 95
2, 590003, Pitch_bend_c, 1, 8320
2, 590086, Pitch_bend_c, 1, 8448
2, 590169, Pitch_bend_c, 1, 8576
2, 590252, Pitch_bend_c, 1, 8704
2, 590335, Pitch_bend_c, 1, 8832
2, 590418, Pitch_bend_c, 1, 8960
2, 590501, Pitch_bend_c, 1, 9088
2, 590584, Pitch_bend_c, 1, 9216
2, 590667, Pitch_bend_c, 1, 9344
2, 590750, Pitch_bend_c, 1, 9472
2, 590833, Pitch_bend_c, 1, 9600
2, 590916, Pitch_bend_c, 1, 9728
2, 590999, Pitch_bend_c, 1, 9856
2, 591000, Pitch_bend_c, 1, 9856
2, 592080, Pitch_bend_c, 1, 9856
2, 592080, Pitch_bend_c, 1, 8192
2, 592080, Note_off_c, 1, 78, 95
2, 592080, Pitch_bend_c, 1, 8192
2, 592080, Note_on_c, 1, 78, 95
2, 592098, Pitch_bend_c, 1, 8320
2, 592116, Pitch_bend_c, 1, 8448
2, 592134, Pitch_bend_c, 1, 8576
2, 592152, Pitch_bend_c, 1, 8704
2, 592170, Pitch_bend_c, 1, 8832
2, 592188, Pitch_bend_c, 1, 8960
2, 592206, Pitch_bend_c, 1, 9088
2, 592224, Pitch_bend_c, 1, 9216
2, 592242, Pitch_bend_c, 1, 9344
2, 592260, Pitch_bend_c, 1, 9472
2, 592278, Pitch_bend_c, 1, 9600
2, 592296, Pitch_bend_c, 1, 9728
2, 592314, Pitch_bend_c, 1, 9856
2, 592320, Pitch_bend_c, 1, 9856
2, 592560, Pitch_bend_c, 1, 9856
2, 592560, Pitch_bend_c, 1, 8192
2, 592560, Note_off_c, 1, 78, 95
2, 592560, Note_on_c, 0, 78, 95
2, 593040, Note_off_c, 0, 78, 95
2, 593040, Note_on_c, 0, 75, 95
2, 593160, Note_off_c, 0, 75, 95
2, 593160, Note_on_c, 0, 78, 70
2, 593400, Note_off_c, 0, 78, 70
2, 593400, Note_on_c, 0, 75, 70
2, 593640, Note_off_c, 0, 75, 70
2, 593640, Note_on_c, 0, 58, 47
2, 594120, Note_off_c, 0, 58, 47
2, 594120, Note_on_c, 0, 75, 95
2, 594360, Note_off_c, 0, 75, 95
2, 594360, Note_on_c, 0, 78, 70
2, 594600, Note_off_c, 0, 78, 70
2, 594600, Note_on_c, 0, 75, 70
2, 594840, Note_off_c, 0, 75, 70
2, 594840, Note_on_c, 0, 73, 95
2, 595200, Note_off_c, 0, 73, 95
2, 595200, Note_on_c, 0, 75, 95
2, 595680, Note_off_c, 0, 75, 95
2, 595680, Note_on_c, 0, 73, 95
2, 596160, Note_off_c, 0, 73, 95
2, 596160, Pitch_bend_c, 1, 8192
2, 596160, Note_on_c, 1, 73, 95
2, 596181, Pitch_bend_c, 1, 8320
2, 596202, Pitch_bend_c, 1, 8448
2, 596223, Pitch_bend_c, 1, 8576
2, 596244, Pitch_bend_c, 1, 8704
2, 596265, Pitch_bend_c, 1, 8832
2, 596286, Pitch_bend_c, 1, 8960
2, 596307, Pitch_bend_c, 1, 9088
2, 596328, Pitch_bend_c, 1, 9216
2, 596349, Pitch_bend_c, 1, 9344
2, 596370, Pitch_bend_c, 1, 9472
2, 596391, Pitch_bend_c, 1, 9600
2, 596400, Pitch_bend_c, 1, 9600
2, 596640, Pitch_bend_c, 1, 9600
2, 597120, Pitch_bend_c, 1, 9600
2, 597120, Pitch_bend_c, 1, 8192
2, 597120, Note_off_c, 1, 73, 95
2, 597120, Note_on_c, 0, 75, 95
2, 597360, Note_off_c, 0, 75, 95
2, 597360, Note_on_c, 0, 73, 95
2, 597600, Note_off_c, 0, 73, 95
2, 597600, Note_on_c, 0, 70, 70
2, 597840, Note_off_c, 0, 70, 70
2, 597840, Note_on_c, 0, 68, 95
2, 598080, Note_off_c, 0, 68, 95
2, 598080, Note_on_c, 0, 66, 70
2, 598320, Note_off_c, 0, 66, 70
2, 598320, Note_on_c, 0, 68, 95
2, 598560, Note_off_c, 0, 68, 95
2, 598560, Pitch_bend_c, 1, 8192
2, 598560, Note_on_c, 1, 68, 95
2, 598603, Pitch_bend_c, 1, 8320
2, 598646, Pitch_bend_c, 1, 8448
2, 598689, Pitch_bend_c, 1, 8576
2, 598732, Pitch_bend_c, 1, 8704
2, 598775, Pitch_bend_c, 1, 8832
2, 598818, Pitch_bend_c, 1, 8960
2, 598861, Pitch_bend_c, 1, 9088
2, 598904, Pitch_bend_c, 1, 9216
2, 598947, Pitch_bend_c, 1, 9344
2, 598990, Pitch_bend_c, 1, 9472
2, 599033, Pitch_bend_c, 1, 9600
2, 599040, Pitch_bend_c, 1, 9600
2, 599520, Pitch_bend_c, 1, 9600
2, 599520, Pitch_bend_c, 1, 8192
2, 599520, Note_off_c, 1, 68, 95
2, 599520, Pitch_bend_c, 1, 8192
2, 599520, Note_on_c, 1, 68, 95
2, 599563, Pitch_bend_c, 1, 8320
2, 599606, Pitch_bend_c, 1, 8448
2, 599649, Pitch_bend_c, 1, 8576
2, 599692, Pitch_bend_c, 1, 8704
2, 599735, Pitch_bend_c, 1, 8832
2, 599778, Pitch_bend_c, 1, 8960
2, 599821, Pitch_bend_c, 1, 9088
2, 599864, Pitch_bend_c, 1, 9216
2, 599907, Pitch_bend_c, 1, 9344
2, 599950, Pitch_bend_c, 1, 9472
2, 599993, Pitch_bend_c, 1, 9600
2, 600000, Pitch_bend_c, 1, 9600
2, 600000, Note_on_c, 0, 75, 95
2, 600000, Note_on_c, 0, 70, 95
2, 600480, Pitch_bend_c, 1, 9600
2, 600480, Pitch_bend_c, 1, 8192
2, 600480, Note_off_c, 1, 68, 95
2, 600480, Note_off_c, 0, 75, 95
2, 600480, Note_off_c, 0, 70, 95
2, 600480, Note_on_c, 0, 70, 95
2, 600960, Note_on_c, 0, 75, 95
2, 601440, Note_off_c, 0, 70, 95
2, 601440, Note_off_c, 0, 75, 95
2, 601440, Note_on_c, 1, 73, 95
2, 601600, Pitch_bend_c, 1, 8192
2, 601760, Pitch_bend_c, 1, 8320
2, 601920, Pitch_bend_c, 1, 8192
2, 602080, Pitch_bend_c, 1, 8320
2, 602240, Pitch_bend_c, 1, 8192
2, 602400, Pitch_bend_c, 1, 8320
2, 602560, Pitch_bend_c, 1, 8192
2, 602720, Pitch_bend_c, 1, 8320
2, 602880, Pitch_bend_c, 1, 8192
2, 602880, Pitch_bend_c, 1, 8320
2, 602880, Pitch_bend_c, 1, 8192
2, 602880, Note_off_c, 1, 73, 95
2, 602880, Note_on_c, 0, 75, 95
2, 603200, Note_off_c, 0, 75, 95
2, 603200, Note_on_c, 0, 73, 95
2, 603360, Note_off_c, 0, 73, 95
2, 603360, Note_on_c, 0, 70, 22
2, 603520, Note_off_c, 0, 70, 22
2, 603520, Note_on_c, 0, 68, 95
2, 603840, Note_off_c, 0, 68, 95
2, 603840, Note_on_c, 1, 70, 95
2, 604000, Pitch_bend_c, 1, 8192
2, 604160, Pitch_bend_c, 1, 8320
2, 604320, Pitch_bend_c, 1, 8192
2, 604480, Pitch_bend_c, 1, 8320
2, 604640, Pitch_bend_c, 1, 8192
2, 604800, Pitch_bend_c, 1, 8320
2, 604800, Pitch_bend_c, 1, 8192
2, 604800, Note_off_c, 1, 70, 95
2, 604800, Note_on_c, 0, 63, 95
2, 604800, Note_on_c, 0, 58, 95
2, 614880, Note_off_c, 0, 63, 95
2, 614880, Note_off_c, 0, 58, 95
2, 614880, Pitch_bend_c, 1, 8192
2, 614880, Note_on_c, 1, 78, 95
2, 614960, Pitch_bend_c, 1, 8320
2, 615040, Pitch_bend_c, 1, 8448
2, 615040, Pitch_bend_c, 1, 8448
2, 615200, Pitch_bend_c, 1, 8448
2, 615200, Pitch_bend_c, 1, 8192
2, 615200, Note_off_c, 1, 78, 95
2, 615200, Note_on_c, 0, 75, 95
2, 615520, Note_off_c, 0, 75, 95
2, 615520, Note_on_c, 0, 73, 95
2, 615840, Pitch_bend_c, 1, 8192
2, 615840, Note_on_c, 1, 78, 95
2, 615920, Pitch_bend_c, 1, 8320
2, 616000, Pitch_bend_c, 1, 8448
2, 616000, Pitch_bend_c, 1, 8448
2, 616160, Note_off_c, 0, 73, 95
2, 616160, Pitch_bend_c, 1, 8448
2, 616160, Pitch_bend_c, 1, 8192
2, 616160, Note_off_c, 1, 78, 95
2, 616160, Note_on_c, 0, 75, 95
2, 616480, Note_off_c, 0, 75, 95
2, 616480, Note_on_c, 0, 73, 95
2, 616800, Pitch_bend_c, 1, 8192
2, 616800, Note_on_c, 1, 78, 95
2, 616880, Pitch_bend_c, 1, 8320
2, 616960, Pitch_bend_c, 1, 8448
2, 616960, Pitch_bend_c, 1, 8448
2, 617120, Note_off_c, 0, 73, 95
2, 617120, Pitch_bend_c, 1, 8448
2, 617120, Pitch_bend_c, 1, 8192
2, 617120, Note_off_c, 1, 78, 95
2, 617120, Note_on_c, 0, 75, 95
2, 617440, Note_off_c, 0, 75, 95
2, 617440, Note_on_c, 0, 73, 95
2, 617760, Pitch_bend_c, 1, 8192
2, 617760, Note_on_c, 1, 78, 95
2, 617840, Pitch_bend_c, 1, 8320
2, 617920, Pitch_bend_c, 1, 8448
2, 617920, Pitch_bend_c, 1, 8448
2, 618080, Note_off_c, 0, 73, 95
2, 618080, Pitch_bend_c, 1, 8448
2, 618080, Pitch_bend_c, 1, 8192
2, 618080, Note_off_c, 1, 78, 95
2, 618080, Note_on_c, 0, 75, 95
2, 619080, Note_off_c, 0, 75, 95
2, 619080, Note_on_c, 0, 75, 95
2, 619200, Note_off_c, 0, 75, 95
2, 619200, Note_on_c, 0, 78, 70
2, 619440, Note_off_c, 0, 78, 70
2, 619440, Note_on_c, 0, 75, 70
2, 619680, Note_off_c, 0, 75, 70
2, 619680, Note_on_c, 0, 73, 95
2, 619920, Note_on_c, 0, 78, 95
2, 620160, Note_off_c, 0, 73, 95
2, 620160, Note_off_c, 0, 78, 95
2, 620160, Note_on_c, 0, 75, 70
2, 620400, Note_off_c, 0, 75, 70
2, 620400, Note_on_c, 0, 73, 95
2, 620640, Note_on_c, 0, 78, 95
2, 620880, Note_off_c, 0, 73, 95
2, 620880, Note_off_c, 0, 78, 95
2, 620880, Note_on_c, 0, 75, 70
2, 621120, Note_off_c, 0, 75, 70
2, 621120, Note_on_c, 0, 73, 95
2, 621360, Note_on_c, 0, 78, 95
2, 621600, Note_off_c, 0, 73, 95
2, 621600, Note_off_c, 0, 78, 95
2, 621600, Note_on_c, 0, 75, 70
2, 621840, Note_off_c, 0, 75, 70
2, 621840, Note_on_c, 0, 73, 95
2, 622080, Note_on_c, 0, 78, 95
2, 622320, Note_off_c, 0, 73, 95
2, 622320, Note_off_c, 0, 78, 95
2, 622320, Note_on_c, 0, 75, 70
2, 622560, Note_off_c, 0, 75, 70
2, 622560, Note_on_c, 0, 73, 95
2, 622800, Note_off_c, 0, 73, 95
2, 622800, Pitch_bend_c, 1, 8192
2, 622800, Note_on_c, 1, 73, 95
2, 622832, Pitch_bend_c, 1, 8320
2, 622864, Pitch_bend_c, 1, 8448
2, 622896, Pitch_bend_c, 1, 8576
2, 622928, Pitch_bend_c, 1, 8704
2, 622960, Pitch_bend_c, 1, 8832
2, 622960, Pitch_bend_c, 1, 8832
2, 623120, Pitch_bend_c, 1, 8832
2, 623120, Pitch_bend_c, 1, 8192
2, 623120, Note_off_c, 1, 73, 95
2, 623120, Note_on_c, 0, 75, 95
2, 623440, Note_off_c, 0, 75, 95
2, 623440, Note_on_c, 0, 70, 95
2, 623760, Note_off_c, 0, 70, 95
2, 623760, Pitch_bend_c, 1, 8192
2, 623760, Note_on_c, 1, 73, 95
2, 623792, Pitch_bend_c, 1, 8320
2, 623824, Pitch_bend_c, 1, 8448
2, 623856, Pitch_bend_c, 1, 8576
2, 623888, Pitch_bend_c, 1, 8704
2, 623920, Pitch_bend_c, 1, 8832
2, 623920, Pitch_bend_c, 1, 8832
2, 624080, Pitch_bend_c, 1, 8832
2, 624080, Pitch_bend_c, 1, 8192
2, 624080, Note_off_c, 1, 73, 95
2, 624080, Note_on_c, 0, 75, 95
2, 624400, Note_off_c, 0, 75, 95
2, 624400, Note_on_c, 0, 70, 95
2, 624720, Note_off_c, 0, 70, 95
2, 624720, Pitch_bend_c, 1, 8192
2, 624720, Note_on_c, 1, 73, 95
2, 624752, Pitch_bend_c, 1, 8320
2, 624784, Pitch_bend_c, 1, 8448
2, 624816, Pitch_bend_c, 1, 8576
2, 624848, Pitch_bend_c, 1, 8704
2, 624880, Pitch_bend_c, 1, 8832
2, 624880, Pitch_bend_c, 1, 8832
2, 625040, Pitch_bend_c, 1, 8832
2, 625040, Pitch_bend_c, 1, 8192
2, 625040, Note_off_c, 1, 73, 95
2, 625040, Note_on_c, 0, 75, 95
2, 625360, Note_off_c, 0, 75, 95
2, 625360, Note_on_c, 0, 69, 95
2, 625680, Note_off_c, 0, 69, 95
2, 625680, Note_on_c, 0, 78, 95
2, 625920, Note_off_c, 0, 78, 95
2, 625920, Note_on_c, 0, 75, 70
2, 626160, Note_off_c, 0, 75, 70
2, 626160, Note_on_c, 0, 73, 95
2, 626400, Note_off_c, 0, 73, 95
2, 626400, Pitch_bend_c, 1, 8192
2, 626400, Note_on_c, 1, 73, 95
2, 626424, Pitch_bend_c, 1, 8320
2, 626448, Pitch_bend_c, 1, 8448
2, 626472, Pitch_bend_c, 1, 8576
2, 626496, Pitch_bend_c, 1, 8704
2, 626520, Pitch_bend_c, 1, 8832
2, 626520, Pitch_bend_c, 1, 8832
2, 626640, Pitch_bend_c, 1, 8832
2, 626640, Pitch_bend_c, 1, 8192
2, 626640, Note_off_c, 1, 73, 95
2, 626640, Note_on_c, 0, 75, 95
2, 626880, Note_off_c, 0, 75, 95
2, 626880, Note_on_c, 0, 70, 95
2, 627120, Note_off_c, 0, 70, 95
2, 627120, Note_on_c, 0, 78, 95
2, 627294, Note_off_c, 0, 78, 95
2, 627294, Note_on_c, 0, 75, 70
2, 627468, Note_off_c, 0, 75, 70
2, 627468, Note_on_c, 0, 73, 95
2, 627642, Note_off_c, 0, 73, 95
2, 627642, Note_on_c, 0, 78, 95
2, 627816, Note_off_c, 0, 78, 95
2, 627816, Note_on_c, 0, 75, 70
2, 627990, Note_off_c, 0, 75, 70
2, 627990, Note_on_c, 0, 73, 95
2, 628164, Note_off_c, 0, 73, 95
2, 628164, Note_on_c, 0, 78, 95
2, 628338, Note_off_c, 0, 78, 95
2, 628338, Note_on_c, 0, 75, 70
2, 628512, Note_off_c, 0, 75, 70
2, 628512, Note_on_c, 0, 73, 95
2, 628686, Note_off_c, 0, 73, 95
2, 628686, Note_on_c, 0, 78, 95
2, 628860, Note_off_c, 0, 78, 95
2, 628860, Note_on_c, 0, 75, 70
2, 629034, Note_off_c, 0, 75, 70
2, 629034, Note_on_c, 0, 73, 95
2, 629194, Note_off_c, 0, 73, 95
2, 629194, Note_on_c, 0, 78, 95
2, 629354, Note_off_c, 0, 78, 95
2, 629354, Note_on_c, 0, 75, 70
2, 629514, Note_off_c, 0, 75, 70
2, 629514, Note_on_c, 0, 73, 95
2, 629754, Note_off_c, 0, 73, 95
2, 629760, Note_on_c, 0, 78, 95
2, 630000, Note_off_c, 0, 78, 95
2, 630000, Note_on_c, 0, 75, 70
2, 630240, Note_off_c, 0, 75, 70
2, 630240, Note_on_c, 1, 78, 95
2, 630360, Pitch_bend_c, 1, 8832
2, 630480, Pitch_bend_c, 1, 9600
2, 630480, Pitch_bend_c, 1, 8192
2, 630480, Note_off_c, 1, 78, 95
2, 630480, Note_on_c, 0, 80, 95
2, 630720, Note_off_c, 0, 80, 95
2, 630720, Note_on_c, 0, 80, 95
2, 630880, Note_off_c, 0, 80, 95
2, 630880, Note_on_c, 0, 80, 95
2, 631040, Note_off_c, 0, 80, 95
2, 631040, Note_on_c, 0, 80, 95
2, 631200, Note_off_c, 0, 80, 95
2, 631200, Note_on_c, 0, 78, 95
2, 631520, Note_off_c, 0, 78, 95
2, 631520, Note_on_c, 0, 78, 95
2, 631840, Note_off_c, 0, 78, 95
2, 631840, Note_on_c, 0, 78, 95
2, 632160, Note_off_c, 0, 78, 95
2, 632160, Note_on_c, 0, 75, 95
2, 632480, Note_off_c, 0, 75, 95
2, 632480, Note_on_c, 0, 75, 95
2, 632800, Note_off_c, 0, 75, 95
2, 632800, Note_on_c, 0, 75, 95
2, 633120, Note_off_c, 0, 75, 95
2, 633120, Note_on_c, 0, 78, 95
2, 633360, Note_off_c, 0, 78, 95
2, 633360, Note_on_c, 0, 78, 95
2, 633600, Note_off_c, 0, 78, 95
2, 633600, Note_on_c, 0, 78, 95
2, 633840, Note_off_c, 0, 78, 95
2, 633840, Pitch_bend_c, 1, 8192
2, 633840, Note_on_c, 1, 77, 95
2, 633960, Pitch_bend_c, 1, 8320
2, 634080, Pitch_bend_c, 1, 8448
2, 634200, Pitch_bend_c, 1, 8576
2, 634320, Pitch_bend_c, 1, 8704
2, 634440, Pitch_bend_c, 1, 8832
2, 634560, Pitch_bend_c, 1, 8960
2, 634680, Pitch_bend_c, 1, 9088
2, 634800, Pitch_bend_c, 1, 9216
2, 634800, Pitch_bend_c, 1, 9216
2, 635760, Pitch_bend_c, 1, 9216
2, 635760, Pitch_bend_c, 1, 8192
2, 635760, Note_off_c, 1, 77, 95
2, 635760, Note_on_c, 0, 63, 47
2, 636240, Note_off_c, 0, 63, 47
2, 636240, Note_on_c, 0, 73, 95
2, 636480, Note_off_c, 0, 73, 95
2, 636480, Note_on_c, 0, 75, 70
2, 636720, Note_off_c, 0, 75, 70
2, 636720, Note_on_c, 0, 73, 70
2, 636960, Note_off_c, 0, 73, 70
2, 636960, Note_on_c, 0, 70, 95
2, 637080, Note_off_c, 0, 70, 95
2, 637080, Note_on_c, 0, 68, 70
2, 637200, Note_off_c, 0, 68, 70
2, 637200, Note_on_c, 0, 73, 95
2, 637680, Note_off_c, 0, 73, 95
2, 637680, Note_on_c, 0, 75, 95
2, 637920, Note_off_c, 0, 75, 95
2, 637920, Note_on_c, 0, 73, 95
2, 638040, Note_off_c, 0, 73, 95
2, 638040, Note_on_c, 0, 75, 70
2, 638160, Note_off_c, 0, 75, 70
2, 638160, Note_on_c, 0, 73, 70
2, 638400, Note_off_c, 0, 73, 70
2, 638400, Note_on_c, 0, 70, 95
2, 638880, Note_off_c, 0, 70, 95
2, 638880, Note_on_c, 0, 73, 95
2, 639120, Note_off_c, 0, 73, 95
2, 639120, Note_on_c, 1, 70, 95
2, 639240, Pitch_bend_c, 1, 7552
2, 639360, Pitch_bend_c, 1, 6784
2, 639480, Pitch_bend_c, 1, 6144
2, 639600, Pitch_bend_c, 1, 5376
2, 639600, Pitch_bend_c, 1, 8192
2, 639600, Note_off_c, 1, 70, 95
2, 639600, Note_on_c, 0, 66, 95
2, 639840, Note_off_c, 0, 66, 95
2, 639840, Note_on_c, 0, 63, 95
2, 640080, Note_off_c, 0, 63, 95
2, 640080, Note_on_c, 0, 66, 95
2, 640320, Note_off_c, 0, 66, 95
2, 640320, Note_on_c, 1, 68, 70
2, 640440, Pitch_bend_c, 1, 8832
2, 640560, Pitch_bend_c, 1, 9600
2, 640560, Pitch_bend_c, 1, 8192
2, 640560, Note_off_c, 1, 68, 70
2, 640560, Note_on_c, 0, 70, 95
2, 640800, Note_off_c, 0, 70, 95
2, 640800, Note_on_c, 0, 70, 95
2, 641040, Note_off_c, 0, 70, 95
2, 641040, Note_on_c, 0, 73, 95
2, 641280, Note_off_c, 0, 73, 95
2, 641280, Note_on_c, 0, 70, 95
2, 641520, Note_off_c, 0, 70, 95
2, 641520, Pitch_bend_c, 1, 8192
2, 641520, Note_on_c, 1, 68, 95
2, 641530, Pitch_bend_c, 1, 8320
2, 641540, Pitch_bend_c, 1, 8448
2, 641550, Pitch_bend_c, 1, 8576
2, 641560, Pitch_bend_c, 1, 8704
2, 641570, Pitch_bend_c, 1, 8832
2, 641580, Pitch_bend_c, 1, 8960
2, 641590, Pitch_bend_c, 1, 9088
2, 641600, Pitch_bend_c, 1, 9216
2, 641610, Pitch_bend_c, 1, 9344
2, 641620, Pitch_bend_c, 1, 9472
2, 641630, Pitch_bend_c, 1, 9600
2, 641640, Pitch_bend_c, 1, 9600
2, 641760, Pitch_bend_c, 1, 9600
2, 641770, Pitch_bend_c, 1, 9472
2, 641780, Pitch_bend_c, 1, 9344
2, 641790, Pitch_bend_c, 1, 9216
2, 641800, Pitch_bend_c, 1, 9088
2, 641810, Pitch_bend_c, 1, 8960
2, 641820, Pitch_bend_c, 1, 8832
2, 641830, Pitch_bend_c, 1, 8704
2, 641840, Pitch_bend_c, 1, 8576
2, 641850, Pitch_bend_c, 1, 8448
2, 641860, Pitch_bend_c, 1, 8320
2, 641870, Pitch_bend_c, 1, 8192
2, 641880, Pitch_bend_c, 1, 8192
2, 642000, Pitch_bend_c, 1, 8192
2, 642000, Pitch_bend_c, 1, 8192
2, 642000, Note_off_c, 1, 68, 95
2, 642000, Note_on_c, 0, 66, 95
2, 642240, Note_off_c, 0, 66, 95
2, 642240, Note_on_c, 0, 63, 95
2, 642480, Note_off_c, 0, 63, 95
2, 642480, Note_on_c, 0, 66, 95
2, 642720, Note_off_c, 0, 66, 95
2, 642720, Note_on_c, 1, 68, 70
2, 642840, Pitch_bend_c, 1, 8832
2, 642960, Pitch_bend_c, 1, 9600
2, 642960, Pitch_bend_c, 1, 8192
2, 642960, Note_off_c, 1, 68, 70
2, 642960, Note_on_c, 0, 70, 95
2, 644880, Note_off_c, 0, 70, 95
2, 644880, Note_on_c, 0, 70, 95
2, 644880, Pitch_bend_c, 1, 8192
2, 644880, Note_on_c, 1, 68, 95
2, 644928, Pitch_bend_c, 1, 8320
2, 644976, Pitch_bend_c, 1, 8448
2, 645024, Pitch_bend_c, 1, 8576
2, 645072, Pitch_bend_c, 1, 8704
2, 645120, Pitch_bend_c, 1, 8832
2, 645120, Pitch_bend_c, 1, 8832
2, 645360, Note_off_c, 0, 70, 95
2, 645360, Pitch_bend_c, 1, 8832
2, 645360, Pitch_bend_c, 1, 8192
2, 645360, Note_off_c, 1, 68, 95
2, 645360, Note_on_c, 0, 70, 95
2, 645360, Pitch_bend_c, 1, 8192
2, 645360, Note_on_c, 1, 68, 95
2, 645523, Pitch_bend_c, 1, 8320
2, 645686, Pitch_bend_c, 1, 8448
2, 645849, Pitch_bend_c, 1, 8576
2, 646012, Pitch_bend_c, 1, 8704
2, 646175, Pitch_bend_c, 1, 8832
2, 646338, Pitch_bend_c, 1, 8960
2, 646501, Pitch_bend_c, 1, 9088
2, 646664, Pitch_bend_c, 1, 9216
2, 646827, Pitch_bend_c, 1, 9344
2, 646990, Pitch_bend_c, 1, 9472
2, 647153, Pitch_bend_c, 1, 9600
2, 647160, Pitch_bend_c, 1, 9600
2, 648960, Note_off_c, 0, 70, 95
2, 648960, Pitch_bend_c, 1, 9600
2, 648960, Pitch_bend_c, 1, 8192
2, 648960, Note_off_c, 1, 68, 95
2, 648960, Pitch_bend_c, 1, 8192
2, 648960, Note_on_c, 1, 68, 95
2, 649032, Pitch_bend_c, 1, 8320
2, 649104, Pitch_bend_c, 1, 8448
2, 649176, Pitch_bend_c, 1, 8576
2, 649248, Pitch_bend_c, 1, 8704
2, 649320, Pitch_bend_c, 1, 8832
2, 649320, Pitch_bend_c, 1, 8832
2, 649680, Pitch_bend_c, 1, 8832
2, 649680, Pitch_bend_c, 1, 8192
2, 649680, Note_off_c, 1, 68, 95
2, 649680, Note_on_c, 0, 66, 95
2, 650000, Note_off_c, 0, 66, 95
2, 650000, Note_on_c, 0, 64, 95
2, 650320, Note_off_c, 0, 64, 95
2, 650320, Note_on_c, 0, 66, 95
2, 650640, Note_off_c, 0, 66, 95
2, 650640, Note_on_c, 0, 64, 95
2, 650960, Note_off_c, 0, 64, 95
2, 650960, Note_on_c, 0, 61, 70
2, 651280, Note_off_c, 0, 61, 70
2, 651280, Note_on_c, 0, 58, 95
2, 652080, Note_off_c, 0, 58, 95
2, 652080, Note_on_c, 0, 63, 95
2, 652080, Note_on_c, 0, 58, 95
2, 652080, Note_on_c, 0, 67, 95
2, 652080, Note_on_c, 0, 63, 95
2, 652080, Note_on_c, 0, 58, 95
2, 652320, Note_off_c, 0, 63, 95
2, 652320, Note_off_c, 0, 58, 95
2, 652320, Note_off_c, 0, 67, 95
2, 652320, Note_off_c, 0, 63, 95
2, 652320, Note_off_c, 0, 58, 95
2, 652320, Note_on_c, 0, 63, 95
2, 652320, Note_on_c, 0, 58, 95
2, 652320, Note_on_c, 0, 67, 95
2, 652320, Note_on_c, 0, 63, 95
2, 652320, Note_on_c, 0, 58, 95
2, 652800, Note_off_c, 0, 63, 95
2, 652800, Note_off_c, 0, 58, 95
2, 652800, Note_off_c, 0, 67, 95
2, 652800, Note_off_c, 0, 63, 95
2, 652800, Note_off_c, 0, 58, 95
2, 652800, Note_on_c, 0, 70, 95
2, 652800, Pitch_bend_c, 1, 8192
2, 652800, Note_on_c, 1, 68, 95
2, 652848, Pitch_bend_c, 1, 8320
2, 652896, Pitch_bend_c, 1, 8448
2, 652944, Pitch_bend_c, 1, 8576
2, 652992, Pitch_bend_c, 1, 8704
2, 653040, Pitch_bend_c, 1, 8832
2, 653040, Pitch_bend_c, 1, 8832
2, 653280, Note_off_c, 0, 70, 95
2, 653280, Pitch_bend_c, 1, 8832
2, 653280, Pitch_bend_c, 1, 8192
2, 653280, Note_off_c, 1, 68, 95
2, 653280, Note_on_c, 0, 70, 95
2, 653280, Pitch_bend_c, 1, 8192
2, 653280, Note_on_c, 1, 68, 95
2, 653432, Pitch_bend_c, 1, 8320
2, 653584, Pitch_bend_c, 1, 8448
2, 653736, Pitch_bend_c, 1, 8576
2, 653888, Pitch_bend_c, 1, 8704
2, 654040, Pitch_bend_c, 1, 8832
2, 654192, Pitch_bend_c, 1, 8960
2, 654344, Pitch_bend_c, 1, 9088
2, 654496, Pitch_bend_c, 1, 9216
2, 654648, Pitch_bend_c, 1, 9344
2, 654800, Pitch_bend_c, 1, 9472
2, 654952, Pitch_bend_c, 1, 9600
2, 654960, Pitch_bend_c, 1, 9600
2, 656640, Note_off_c, 0, 70, 95
2, 656640, Pitch_bend_c, 1, 9600
2, 656640, Pitch_bend_c, 1, 8192
2, 656640, Note_off_c, 1, 68, 95
2, 656640, Note_on_c, 0, 70, 95
2, 656640, Pitch_bend_c, 1, 8192
2, 656640, Note_on_c, 1, 68, 95
2, 656730, Pitch_bend_c, 1, 8320
2, 656820, Pitch_bend_c, 1, 8448
2, 656910, Pitch_bend_c, 1, 8576
2, 657000, Pitch_bend_c, 1, 8704
2, 657090, Pitch_bend_c, 1, 8832
2, 657180, Pitch_bend_c, 1, 8960
2, 657270, Pitch_bend_c, 1, 9088
2, 657360, Pitch_bend_c, 1, 9216
2, 657360, Pitch_bend_c, 1, 9216
2, 658080, Note_off_c, 0, 70, 95
2, 658080, Pitch_bend_c, 1, 9216
2, 658080, Pitch_bend_c, 1, 8192
2, 658080, Note_off_c, 1, 68, 95
2, 658080, Note_on_c, 0, 73, 95
2, 658080, Pitch_bend_c, 1, 8192
2, 658080, Note_on_c, 1, 71, 95
2, 658189, Pitch_bend_c, 1, 8320
2, 658298, Pitch_bend_c, 1, 8448
2, 658407, Pitch_bend_c, 1, 8576
2, 658516, Pitch_bend_c, 1, 8704
2, 658625, Pitch_bend_c, 1, 8832
2, 658734, Pitch_bend_c, 1, 8960
2, 658843, Pitch_bend_c, 1, 9088
2, 658952, Pitch_bend_c, 1, 9216
2, 659061, Pitch_bend_c, 1, 9344
2, 659170, Pitch_bend_c, 1, 9472
2, 659279, Pitch_bend_c, 1, 9600
2, 659280, Pitch_bend_c, 1, 9600
2, 660480, Note_off_c, 0, 73, 95
2, 660480, Pitch_bend_c, 1, 9600
2, 660480, Pitch_bend_c, 1, 8192
2, 660480, Note_off_c, 1, 71, 95
2, 660480, Note_on_c, 0, 75, 95
2, 660480, Pitch_bend_c, 1, 8192
2, 660480, Note_on_c, 1, 73, 95
2, 660501, Pitch_bend_c, 1, 8320
2, 660522, Pitch_bend_c, 1, 8448
2, 660543, Pitch_bend_c, 1, 8576
2, 660564, Pitch_bend_c, 1, 8704
2, 660585, Pitch_bend_c, 1, 8832
2, 660606, Pitch_bend_c, 1, 8960
2, 660627, Pitch_bend_c, 1, 9088
2, 660648, Pitch_bend_c, 1, 9216
2, 660669, Pitch_bend_c, 1, 9344
2, 660690, Pitch_bend_c, 1, 9472
2, 660711, Pitch_bend_c, 1, 9600
2, 660720, Pitch_bend_c, 1, 9600
2, 660960, Note_off_c, 0, 75, 95
2, 660960, Pitch_bend_c, 1, 9600
2, 660960, Pitch_bend_c, 1, 8192
2, 660960, Note_off_c, 1, 73, 95
2, 660960, Note_on_c, 0, 75, 95
2, 660960, Pitch_bend_c, 1, 8192
2, 660960, Note_on_c, 1, 73, 95
2, 661069, Pitch_bend_c, 1, 8320
2, 661178, Pitch_bend_c, 1, 8448
2, 661287, Pitch_bend_c, 1, 8576
2, 661396, Pitch_bend_c, 1, 8704
2, 661505, Pitch_bend_c, 1, 8832
2, 661614, Pitch_bend_c, 1, 8960
2, 661723, Pitch_bend_c, 1, 9088
2, 661832, Pitch_bend_c, 1, 9216
2, 661941, Pitch_bend_c, 1, 9344
2, 662050, Pitch_bend_c, 1, 9472
2, 662159, Pitch_bend_c, 1, 9600
2, 662160, Pitch_bend_c, 1, 9600
2, 663360, Note_off_c, 0, 75, 95
2, 663360, Pitch_bend_c, 1, 9600
2, 663360, Pitch_bend_c, 1, 8192
2, 663360, Note_off_c, 1, 73, 95
2, 663360, Note_on_c, 0, 75, 95
2, 663680, Note_off_c, 0, 75, 95
2, 663680, Note_on_c, 0, 73, 95
2, 664000, Note_off_c, 0, 73, 95
2, 664000, Note_on_c, 0, 70, 95
2, 664320, Note_off_c, 0, 70, 95
2, 664320, Note_on_c, 0, 68, 95
2, 664440, Note_off_c, 0, 68, 95
2, 664440, Note_on_c, 0, 70, 70
2, 664560, Note_off_c, 0, 70, 70
2, 664560, Note_on_c, 0, 73, 95
2, 664800, Note_off_c, 0, 73, 95
2, 664800, Note_on_c, 0, 70, 95
2, 665040, Note_off_c, 0, 70, 95
2, 665040, Pitch_bend_c, 1, 8192
2, 665040, Note_on_c, 1, 68, 95
2, 665061, Pitch_bend_c, 1, 8320
2, 665082, Pitch_bend_c, 1, 8448
2, 665103, Pitch_bend_c, 1, 8576
2, 665124, Pitch_bend_c, 1, 8704
2, 665145, Pitch_bend_c, 1, 8832
2, 665166, Pitch_bend_c, 1, 8960
2, 665187, Pitch_bend_c, 1, 9088
2, 665208, Pitch_bend_c, 1, 9216
2, 665229, Pitch_bend_c, 1, 9344
2, 665250, Pitch_bend_c, 1, 9472
2, 665271, Pitch_bend_c, 1, 9600
2, 665280, Pitch_bend_c, 1, 9600
2, 665520, Pitch_bend_c, 1, 9600
2, 665520, Pitch_bend_c, 1, 8192
2, 665520, Note_off_c, 1, 68, 95
2, 665520, Note_on_c, 0, 68, 95
2, 665640, Note_off_c, 0, 68, 95
2, 665640, Note_on_c, 0, 66, 70
2, 665760, Note_off_c, 0, 66, 70
2, 665760, Note_on_c, 0, 63, 95
2, 666000, Note_off_c, 0, 63, 95
2, 666000, Note_on_c, 0, 66, 95
2, 666240, Note_off_c, 0, 66, 95
2, 666240, Note_on_c, 1, 68, 95
2, 666360, Pitch_bend_c, 1, 8832
2, 666480, Pitch_bend_c, 1, 9600
2, 666480, Pitch_bend_c, 1, 8192
2, 666480, Note_off_c, 1, 68, 95
2, 666480, Note_on_c, 0, 70, 95
2, 666720, Note_off_c, 0, 70, 95
2, 666720, Note_on_c, 0, 66, 95
2, 666960, Note_off_c, 0, 66, 95
2, 666960, Note_on_c, 0, 68, 95
2, 667200, Note_off_c, 0, 68, 95
2, 667200, Note_on_c, 0, 66, 95
2, 667680, Note_off_c, 0, 66, 95
2, 667680, Note_on_c, 0, 63, 95
2, 668000, Note_off_c, 0, 63, 95
2, 668000, Note_on_c, 0, 66, 95
2, 668160, Note_off_c, 0, 66, 95
2, 668160, Note_on_c, 1, 61, 95
2, 668320, Pitch_bend_c, 1, 8832
2, 668480, Pitch_bend_c, 1, 9600
2, 668480, Pitch_bend_c, 1, 8192
2, 668480, Note_off_c, 1, 61, 95
2, 668480, Note_on_c, 0, 63, 95
2, 668800, Note_off_c, 0, 63, 95
2, 668800, Note_on_c, 1, 56, 95
2, 668960, Pitch_bend_c, 1, 8832
2, 669120, Pitch_bend_c, 1, 9600
2, 669120, Pitch_bend_c, 1, 8192
2, 669120, Note_off_c, 1, 56, 95
2, 669120, Note_on_c, 0, 58, 95
2, 669440, Note_off_c, 0, 58, 95
2, 669440, Note_on_c, 0, 57, 70
2, 669760, Note_off_c, 0, 57, 70
2, 669760, Note_on_c, 1, 56, 70
2, 669920, Pitch_bend_c, 1, 7552
2, 670080, Pitch_bend_c, 1, 6784
2, 670080, Pitch_bend_c, 1, 8192
2, 670080, Note_off_c, 1, 56, 70
2, 670080, Note_on_c, 0, 54, 95
2, 670320, Note_off_c, 0, 54, 95
2, 670320, Note_on_c, 0, 56, 70
2, 670560, Note_off_c, 0, 56, 70
2, 670560, Note_on_c, 0, 54, 70
2, 670800, Note_off_c, 0, 54, 70
2, 670800, Note_on_c, 0, 39, 95
2, 671040, Note_off_c, 0, 39, 95
2, 671040, Note_on_c, 0, 51, 95
2, 671280, Note_off_c, 0, 51, 95
2, 671280, Note_on_c, 1, 54, 95
2, 671400, Pitch_bend_c, 1, 8832
2, 671520, Pitch_bend_c, 1, 9600
2, 671520, Pitch_bend_c, 1, 8192
2, 671520, Note_off_c, 1, 54, 95
2, 671520, Note_on_c, 0, 56, 95
2, 671760, Note_off_c, 0, 56, 95
2, 671760, Note_on_c, 0, 57, 95
2, 672000, Note_off_c, 0, 57, 95
2, 672000, Note_on_c, 0, 58, 95
2, 672240, Note_off_c, 0, 58, 95
2, 672240, Note_on_c, 0, 61, 95
2, 674880, Note_off_c, 0, 61, 95
2, 674880, Pitch_bend_c, 1, 8192
2, 674880, Note_on_c, 1, 68, 95
2, 674901, Pitch_bend_c, 1, 8320
2, 674922, Pitch_bend_c, 1, 8448
2, 674943, Pitch_bend_c, 1, 8576
2, 674964, Pitch_bend_c, 1, 8704
2, 674985, Pitch_bend_c, 1, 8832
2, 675006, Pitch_bend_c, 1, 8960
2, 675027, Pitch_bend_c, 1, 9088
2, 675048, Pitch_bend_c, 1, 9216
2, 675069, Pitch_bend_c, 1, 9344
2, 675090, Pitch_bend_c, 1, 9472
2, 675111, Pitch_bend_c, 1, 9600
2, 675120, Pitch_bend_c, 1, 9600
2, 675360, Pitch_bend_c, 1, 9600
2, 675360, Pitch_bend_c, 1, 8192
2, 675360, Note_off_c, 1, 68, 95
2, 675360, Pitch_bend_c, 1, 8192
2, 675360, Note_on_c, 1, 68, 95
2, 675381, Pitch_bend_c, 1, 8320
2, 675402, Pitch_bend_c, 1, 8448
2, 675423, Pitch_bend_c, 1, 8576
2, 675444, Pitch_bend_c, 1, 8704
2, 675465, Pitch_bend_c, 1, 8832
2, 675486, Pitch_bend_c, 1, 8960
2, 675507, Pitch_bend_c, 1, 9088
2, 675528, Pitch_bend_c, 1, 9216
2, 675549, Pitch_bend_c, 1, 9344
2, 675570, Pitch_bend_c, 1, 9472
2, 675591, Pitch_bend_c, 1, 9600
2, 675600, Pitch_bend_c, 1, 9600
2, 675840, Pitch_bend_c, 1, 9600
2, 675840, Pitch_bend_c, 1, 8192
2, 675840, Note_off_c, 1, 68, 95
2, 675840, Note_on_c, 0, 70, 95
2, 676320, Note_off_c, 0, 70, 95
2, 676320, Pitch_bend_c, 1, 8192
2, 676320, Note_on_c, 1, 78, 95
2, 676393, Pitch_bend_c, 1, 8320
2, 676466, Pitch_bend_c, 1, 8448
2, 676539, Pitch_bend_c, 1, 8576
2, 676612, Pitch_bend_c, 1, 8704
2, 676685, Pitch_bend_c, 1, 8832
2, 676758, Pitch_bend_c, 1, 8960
2, 676831, Pitch_bend_c, 1, 9088
2, 676904, Pitch_bend_c, 1, 9216
2, 676977, Pitch_bend_c, 1, 9344
2, 677050, Pitch_bend_c, 1, 9472
2, 677123, Pitch_bend_c, 1, 9600
2, 677196, Pitch_bend_c, 1, 9728
2, 677269, Pitch_bend_c, 1, 9856
2, 677280, Pitch_bend_c, 1, 9856
2, 678240, Pitch_bend_c, 1, 9856
2, 678240, Pitch_bend_c, 1, 8192
2, 678240, Note_off_c, 1, 78, 95
2, 678240, Pitch_bend_c, 1, 8192
2, 678240, Note_on_c, 1, 68, 95
2, 678300, Pitch_bend_c, 1, 8320
2, 678360, Pitch_bend_c, 1, 8448
2, 678420, Pitch_bend_c, 1, 8576
2, 678480, Pitch_bend_c, 1, 8704
2, 678540, Pitch_bend_c, 1, 8832
2, 678600, Pitch_bend_c, 1, 8960
2, 678660, Pitch_bend_c, 1, 9088
2, 678720, Pitch_bend_c, 1, 9216
2, 678780, Pitch_bend_c, 1, 9344
2, 678840, Pitch_bend_c, 1, 9472
2, 678900, Pitch_bend_c, 1, 9600
2, 678960, Pitch_bend_c, 1, 9728
2, 679020, Pitch_bend_c, 1, 9856
2, 679080, Pitch_bend_c, 1, 9984
2, 679140, Pitch_bend_c, 1, 10112
2, 679200, Pitch_bend_c, 1, 10240
2, 679200, Pitch_bend_c, 1, 10240
2, 680160, Pitch_bend_c, 1, 10240
2, 680160, Pitch_bend_c, 1, 8192
2, 680160, Note_off_c, 1, 68, 95
2, 680160, Note_on_c, 0, 70, 95
2, 680640, Note_off_c, 0, 70, 95
2, 680640, Note_on_c, 0, 68, 95
2, 681120, Note_off_c, 0, 68, 95
2, 681120, Note_on_c, 0, 66, 95
2, 681600, Note_off_c, 0, 66, 95
2, 681600, Note_on_c, 0, 63, 95
2, 682080, Note_off_c, 0, 63, 95
2, 682080, Note_on_c, 0, 66, 95
2, 682560, Note_off_c, 0, 66, 95
2, 682560, Pitch_bend_c, 1, 8192
2, 682560, Note_on_c, 1, 68, 95
2, 682625, Pitch_bend_c, 1, 8320
2, 682690, Pitch_bend_c, 1, 8448
2, 682755, Pitch_bend_c, 1, 8576
2, 682820, Pitch_bend_c, 1, 8704
2, 682885, Pitch_bend_c, 1, 8832
2, 682950, Pitch_bend_c, 1, 8960
2, 683015, Pitch_bend_c, 1, 9088
2, 683080, Pitch_bend_c, 1, 9216
2, 683145, Pitch_bend_c, 1, 9344
2, 683210, Pitch_bend_c, 1, 9472
2, 683275, Pitch_bend_c, 1, 9600
2, 683280, Pitch_bend_c, 1, 9600
2, 684000, Pitch_bend_c, 1, 9600
2, 684000, Pitch_bend_c, 1, 8192
2, 684000, Note_off_c, 1, 68, 95
2, 684000, Note_on_c, 0, 73, 95
2, 684480, Note_off_c, 0, 73, 95
2, 684480, Pitch_bend_c, 1, 8192
2, 684480, Note_on_c, 1, 68, 95
2, 684512, Pitch_bend_c, 1, 8320
2, 684544, Pitch_bend_c, 1, 8448
2, 684576, Pitch_bend_c, 1, 8576
2, 684608, Pitch_bend_c, 1, 8704
2, 684640, Pitch_bend_c, 1, 8832
2, 684672, Pitch_bend_c, 1, 8960
2, 684704, Pitch_bend_c, 1, 9088
2, 684736, Pitch_bend_c, 1, 9216
2, 684768, Pitch_bend_c, 1, 9344
2, 684800, Pitch_bend_c, 1, 9472
2, 684832, Pitch_bend_c, 1, 9600
2, 684840, Pitch_bend_c, 1, 9600
2, 684960, Note_on_c, 0, 78, 47
2, 684960, Note_on_c, 0, 73, 95
2, 685200, Pitch_bend_c, 1, 9600
2, 685200, Pitch_bend_c, 1, 8192
2, 685200, Note_off_c, 1, 68, 95
2, 685200, Note_off_c, 0, 78, 47
2, 685200, Note_off_c, 0, 73, 95
2, 685200, Pitch_bend_c, 1, 8192
2, 685200, Note_on_c, 1, 68, 95
2, 685221, Pitch_bend_c, 1, 8320
2, 685242, Pitch_bend_c, 1, 8448
2, 685263, Pitch_bend_c, 1, 8576
2, 685284, Pitch_bend_c, 1, 8704
2, 685305, Pitch_bend_c, 1, 8832
2, 685326, Pitch_bend_c, 1, 8960
2, 685347, Pitch_bend_c, 1, 9088
2, 685368, Pitch_bend_c, 1, 9216
2, 685389, Pitch_bend_c, 1, 9344
2, 685410, Pitch_bend_c, 1, 9472
2, 685431, Pitch_bend_c, 1, 9600
2, 685440, Pitch_bend_c, 1, 9600
2, 685440, Note_on_c, 0, 78, 47
2, 685440, Note_on_c, 0, 73, 95
2, 685680, Pitch_bend_c, 1, 9600
2, 685680, Pitch_bend_c, 1, 8192
2, 685680, Note_off_c, 1, 68, 95
2, 685680, Note_off_c, 0, 78, 47
2, 685680, Note_off_c, 0, 73, 95
2, 685680, Pitch_bend_c, 1, 8192
2, 685680, Note_on_c, 1, 68, 95
2, 685715, Pitch_bend_c, 1, 8320
2, 685750, Pitch_bend_c, 1, 8448
2, 685785, Pitch_bend_c, 1, 8576
2, 685820, Pitch_bend_c, 1, 8704
2, 685855, Pitch_bend_c, 1, 8832
2, 685890, Pitch_bend_c, 1, 8960
2, 685920, Note_on_c, 0, 78, 47
2, 685920, Note_on_c, 0, 73, 95
2, 685925, Pitch_bend_c, 1, 9088
2, 685960, Pitch_bend_c, 1, 9216
2, 685960, Pitch_bend_c, 1, 9216
2, 686240, Pitch_bend_c, 1, 9216
2, 686240, Pitch_bend_c, 1, 8192
2, 686240, Note_off_c, 1, 68, 95
2, 686240, Note_off_c, 0, 78, 47
2, 686240, Note_off_c, 0, 73, 95
2, 686240, Pitch_bend_c, 1, 8192
2, 686240, Note_on_c, 1, 68, 95
2, 686304, Pitch_bend_c, 1, 8320
2, 686368, Pitch_bend_c, 1, 8448
2, 686432, Pitch_bend_c, 1, 8576
2, 686496, Pitch_bend_c, 1, 8704
2, 686560, Pitch_bend_c, 1, 8832
2, 686560, Pitch_bend_c, 1, 8832
2, 686560, Note_on_c, 0, 78, 47
2, 686560, Note_on_c, 0, 73, 95
2, 686880, Pitch_bend_c, 1, 8832
2, 686880, Pitch_bend_c, 1, 8192
2, 686880, Note_off_c, 1, 68, 95
2, 686880, Note_off_c, 0, 78, 47
2, 686880, Note_off_c, 0, 73, 95
2, 686880, Pitch_bend_c, 1, 8192
2, 686880, Note_on_c, 1, 68, 95
2, 687120, Pitch_bend_c, 1, 8320
2, 687360, Pitch_bend_c, 1, 8448
2, 687360, Pitch_bend_c, 1, 8448
2, 687360, Note_on_c, 0, 78, 47
2, 687360, Note_on_c, 0, 73, 95
2, 687840, Pitch_bend_c, 1, 8448
2, 687840, Pitch_bend_c, 1, 8192
2, 687840, Note_off_c, 1, 68, 95
2, 687840, Note_off_c, 0, 78, 47
2, 687840, Note_off_c, 0, 73, 95
2, 687840, Note_on_c, 1, 73, 95
2, 687840, Pitch_bend_c, 1, 8192
2, 687840, Note_on_c, 1, 68, 95
2, 688000, Pitch_bend_c, 1, 8192
2, 688160, Pitch_bend_c, 1, 8320
2, 688167, Pitch_bend_c, 1, 8320
2, 688320, Pitch_bend_c, 1, 8192
2, 688480, Pitch_bend_c, 1, 8320
2, 688494, Pitch_bend_c, 1, 8448
2, 688640, Pitch_bend_c, 1, 8192
2, 688800, Pitch_bend_c, 1, 8320
2, 688821, Pitch_bend_c, 1, 8576
2, 688960, Pitch_bend_c, 1, 8192
2, 689120, Pitch_bend_c, 1, 8320
2, 689148, Pitch_bend_c, 1, 8704
2, 689280, Pitch_bend_c, 1, 8192
2, 689440, Pitch_bend_c, 1, 8320
2, 689475, Pitch_bend_c, 1, 8832
2, 689600, Pitch_bend_c, 1, 8192
2, 689760, Pitch_bend_c, 1, 8320
2, 689802, Pitch_bend_c, 1, 8960
2, 689920, Pitch_bend_c, 1, 8192
2, 690080, Pitch_bend_c, 1, 8320
2, 690129, Pitch_bend_c, 1, 9088
2, 690240, Pitch_bend_c, 1, 8192
2, 690400, Pitch_bend_c, 1, 8320
2, 690456, Pitch_bend_c, 1, 9216
2, 690560, Pitch_bend_c, 1, 8192
2, 690720, Pitch_bend_c, 1, 8320
2, 690783, Pitch_bend_c, 1, 9344
2, 690880, Pitch_bend_c, 1, 8192
2, 691040, Pitch_bend_c, 1, 8320
2, 691110, Pitch_bend_c, 1, 9472
2, 691200, Pitch_bend_c, 1, 8192
2, 691360, Pitch_bend_c, 1, 8320
2, 691437, Pitch_bend_c, 1, 9600
2, 691440, Pitch_bend_c, 1, 9600
2, 691520, Pitch_bend_c, 1, 8192
2, 691680, Pitch_bend_c, 1, 8320
2, 691840, Pitch_bend_c, 1, 8192
2, 692000, Pitch_bend_c, 1, 8320
2, 692160, Pitch_bend_c, 1, 8192
2, 692320, Pitch_bend_c, 1, 8320
2, 692480, Pitch_bend_c, 1, 8192
2, 692640, Pitch_bend_c, 1, 8320
2, 692800, Pitch_bend_c, 1, 8192
2, 692960, Pitch_bend_c, 1, 8320
2, 693120, Pitch_bend_c, 1, 8192
2, 693280, Pitch_bend_c, 1, 8320
2, 693440, Pitch_bend_c, 1, 8192
2, 693600, Pitch_bend_c, 1, 8320
2, 693760, Pitch_bend_c, 1, 8192
2, 693920, Pitch_bend_c, 1, 8320
2, 694080, Pitch_bend_c, 1, 8192
2, 694240, Pitch_bend_c, 1, 8320
2, 694400, Pitch_bend_c, 1, 8192
2, 694560, Pitch_bend_c, 1, 8320
2, 694720, Pitch_bend_c, 1, 8192
2, 694880, Pitch_bend_c, 1, 8320
2, 695040, Pitch_bend_c, 1, 8192
2, 695040, Pitch_bend_c, 1, 8320
2, 695040, Pitch_bend_c, 1, 8192
2, 695040, Note_off_c, 1, 73, 95
2, 695040, Pitch_bend_c, 1, 9600
2, 695040, Pitch_bend_c, 1, 8192
2, 695040, Note_off_c, 1, 68, 95
2, 695040, Note_on_c, 1, 73, 95
2, 695040, Pitch_bend_c, 1, 8192
2, 695040, Note_on_c, 1, 68, 95
2, 695200, Pitch_bend_c, 1, 8192
2, 695214, Pitch_bend_c, 1, 8320
2, 695360, Pitch_bend_c, 1, 8320
2, 695388, Pitch_bend_c, 1, 8448
2, 695520, Pitch_bend_c, 1, 8192
2, 695562, Pitch_bend_c, 1, 8576
2, 695680, Pitch_bend_c, 1, 8320
2, 695736, Pitch_bend_c, 1, 8704
2, 695840, Pitch_bend_c, 1, 8192
2, 695910, Pitch_bend_c, 1, 8832
2, 696000, Pitch_bend_c, 1, 8320
2, 696084, Pitch_bend_c, 1, 8960
2, 696160, Pitch_bend_c, 1, 8192
2, 696258, Pitch_bend_c, 1, 9088
2, 696320, Pitch_bend_c, 1, 8320
2, 696432, Pitch_bend_c, 1, 9216
2, 696480, Pitch_bend_c, 1, 8192
2, 696606, Pitch_bend_c, 1, 9344
2, 696640, Pitch_bend_c, 1, 8320
2, 696780, Pitch_bend_c, 1, 9472
2, 696800, Pitch_bend_c, 1, 8192
2, 696954, Pitch_bend_c, 1, 9600
2, 696960, Pitch_bend_c, 1, 8320
2, 696960, Pitch_bend_c, 1, 9600
2, 697120, Pitch_bend_c, 1, 8192
2, 697280, Pitch_bend_c, 1, 8320
2, 697440, Pitch_bend_c, 1, 8192
2, 697600, Pitch_bend_c, 1, 8320
2, 697760, Pitch_bend_c, 1, 8192
2, 697920, Pitch_bend_c, 1, 8320
2, 698080, Pitch_bend_c, 1, 8192
2, 698240, Pitch_bend_c, 1, 8320
2, 698400, Pitch_bend_c, 1, 8192
2, 698560, Pitch_bend_c, 1, 8320
2, 698720, Pitch_bend_c, 1, 8192
2, 698880, Pitch_bend_c, 1, 8320
2, 698880, Pitch_bend_c, 1, 8192
2, 698880, Note_off_c, 1, 73, 95
2, 698880, Pitch_bend_c, 1, 9600
2, 698880, Pitch_bend_c, 1, 8192
2, 698880, Note_off_c, 1, 68, 95
2, 698880, Note_on_c, 1, 73, 95
2, 698880, Pitch_bend_c, 1, 8192
2, 698880, Note_on_c, 1, 68, 95
2, 699040, Pitch_bend_c, 1, 8192
2, 699200, Pitch_bend_c, 1, 8320
2, 699229, Pitch_bend_c, 1, 8320
2, 699360, Pitch_bend_c, 1, 8192
2, 699520, Pitch_bend_c, 1, 8320
2, 699578, Pitch_bend_c, 1, 8448
2, 699680, Pitch_bend_c, 1, 8192
2, 699840, Pitch_bend_c, 1, 8320
2, 699927, Pitch_bend_c, 1, 8576
2, 700000, Pitch_bend_c, 1, 8192
2, 700160, Pitch_bend_c, 1, 8320
2, 700276, Pitch_bend_c, 1, 8704
2, 700320, Pitch_bend_c, 1, 8192
2, 700480, Pitch_bend_c, 1, 8320
2, 700625, Pitch_bend_c, 1, 8832
2, 700640, Pitch_bend_c, 1, 8192
2, 700800, Pitch_bend_c, 1, 8320
2, 700960, Pitch_bend_c, 1, 8192
2, 700974, Pitch_bend_c, 1, 8960
2, 701120, Pitch_bend_c, 1, 8320
2, 701280, Pitch_bend_c, 1, 8192
2, 701323, Pitch_bend_c, 1, 9088
2, 701440, Pitch_bend_c, 1, 8320
2, 701600, Pitch_bend_c, 1, 8192
2, 701672, Pitch_bend_c, 1, 9216
2, 701760, Pitch_bend_c, 1, 8320
2, 701920, Pitch_bend_c, 1, 8192
2, 702021, Pitch_bend_c, 1, 9344
2, 702080, Pitch_bend_c, 1, 8320
2, 702240, Pitch_bend_c, 1, 8192
2, 702370, Pitch_bend_c, 1, 9472
2, 702400, Pitch_bend_c, 1, 8320
2, 702560, Pitch_bend_c, 1, 8192
2, 702719, Pitch_bend_c, 1, 9600
2, 702720, Pitch_bend_c, 1, 8320
2, 702720, Pitch_bend_c, 1, 9600
2, 702880, Pitch_bend_c, 1, 8192
2, 703040, Pitch_bend_c, 1, 8320
2, 703200, Pitch_bend_c, 1, 8192
2, 703360, Pitch_bend_c, 1, 8320
2, 703520, Pitch_bend_c, 1, 8192
2, 703680, Pitch_bend_c, 1, 8320
2, 703840, Pitch_bend_c, 1, 8192
2, 704000, Pitch_bend_c, 1, 8320
2, 704160, Pitch_bend_c, 1, 8192
2, 704320, Pitch_bend_c, 1, 8320
2, 704480, Pitch_bend_c, 1, 8192
2, 704640, Pitch_bend_c, 1, 8320
2, 704800, Pitch_bend_c, 1, 8192
2, 704960, Pitch_bend_c, 1, 8320
2, 705120, Pitch_bend_c, 1, 8192
2, 705280, Pitch_bend_c, 1, 8320
2, 705440, Pitch_bend_c, 1, 8192
2, 705600, Pitch_bend_c, 1, 8320
2, 705760, Pitch_bend_c, 1, 8192
2, 705920, Pitch_bend_c, 1, 8320
2, 706080, Pitch_bend_c, 1, 8192
2, 706240, Pitch_bend_c, 1, 8320
2, 706400, Pitch_bend_c, 1, 8192
2, 706560, Pitch_bend_c, 1, 8320
2, 706560, Pitch_bend_c, 1, 8192
2, 706560, Note_off_c, 1, 73, 95
2, 706560, Pitch_bend_c, 1, 9600
2, 706560, Pitch_bend_c, 1, 8192
2, 706560, Note_off_c, 1, 68, 95
2, 706560, Note_on_c, 1, 73, 95
2, 706560, Pitch_bend_c, 1, 8192
2, 706560, Note_on_c, 1, 68, 95
2, 706720, Pitch_bend_c, 1, 8192
2, 706734, Pitch_bend_c, 1, 8320
2, 706880, Pitch_bend_c, 1, 8320
2, 706908, Pitch_bend_c, 1, 8448
2, 707040, Pitch_bend_c, 1, 8192
2, 707082, Pitch_bend_c, 1, 8576
2, 707200, Pitch_bend_c, 1, 8320
2, 707256, Pitch_bend_c, 1, 8704
2, 707360, Pitch_bend_c, 1, 8192
2, 707430, Pitch_bend_c, 1, 8832
2, 707520, Pitch_bend_c, 1, 8320
2, 707604, Pitch_bend_c, 1, 8960
2, 707680, Pitch_bend_c, 1, 8192
2, 707778, Pitch_bend_c, 1, 9088
2, 707840, Pitch_bend_c, 1, 8320
2, 707952, Pitch_bend_c, 1, 9216
2, 708000, Pitch_bend_c, 1, 8192
2, 708126, Pitch_bend_c, 1, 9344
2, 708160, Pitch_bend_c, 1, 8320
2, 708300, Pitch_bend_c, 1, 9472
2, 708320, Pitch_bend_c, 1, 8192
2, 708474, Pitch_bend_c, 1, 9600
2, 708480, Pitch_bend_c, 1, 8320
2, 708480, Pitch_bend_c, 1, 9600
2, 708640, Pitch_bend_c, 1, 8192
2, 708800, Pitch_bend_c, 1, 8320
2, 708960, Pitch_bend_c, 1, 8192
2, 709120, Pitch_bend_c, 1, 8320
2, 709280, Pitch_bend_c, 1, 8192
2, 709440, Pitch_bend_c, 1, 8320
2, 709600, Pitch_bend_c, 1, 8192
2, 709760, Pitch_bend_c, 1, 8320
2, 709920, Pitch_bend_c, 1, 8192
2, 710080, Pitch_bend_c, 1, 8320
2, 710240, Pitch_bend_c, 1, 8192
2, 710400, Pitch_bend_c, 1, 8320
2, 710400, Pitch_bend_c, 1, 8192
2, 710400, Note_off_c, 1, 73, 95
2, 710400, Pitch_bend_c, 1, 9600
2, 710400, Pitch_bend_c, 1, 8192
2, 710400, Note_off_c, 1, 68, 95
2, 710400, Note_on_c, 1, 73, 95
2, 710400, Pitch_bend_c, 1, 8192
2, 710400, Note_on_c, 1, 68, 95
2, 710560, Pitch_bend_c, 1, 8192
2, 710720, Pitch_bend_c, 1, 8320
2, 710749, Pitch_bend_c, 1, 8320
2, 710880, Pitch_bend_c, 1, 8192
2, 711040, Pitch_bend_c, 1, 8320
2, 711098, Pitch_bend_c, 1, 8448
2, 711200, Pitch_bend_c, 1, 8192
2, 711360, Pitch_bend_c, 1, 8320
2, 711447, Pitch_bend_c, 1, 8576
2, 711520, Pitch_bend_c, 1, 8192
2, 711680, Pitch_bend_c, 1, 8320
2, 711796, Pitch_bend_c, 1, 8704
2, 711840, Pitch_bend_c, 1, 8192
2, 712000, Pitch_bend_c, 1, 8320
2, 712145, Pitch_bend_c, 1, 8832
2, 712160, Pitch_bend_c, 1, 8192
2, 712320, Pitch_bend_c, 1, 8320
2, 712480, Pitch_bend_c, 1, 8192
2, 712494, Pitch_bend_c, 1, 8960
2, 712640, Pitch_bend_c, 1, 8320
2, 712800, Pitch_bend_c, 1, 8192
2, 712843, Pitch_bend_c, 1, 9088
2, 712960, Pitch_bend_c, 1, 8320
2, 713120, Pitch_bend_c, 1, 8192
2, 713192, Pitch_bend_c, 1, 9216
2, 713280, Pitch_bend_c, 1, 8320
2, 713440, Pitch_bend_c, 1, 8192
2, 713541, Pitch_bend_c, 1, 9344
2, 713600, Pitch_bend_c, 1, 8320
2, 713760, Pitch_bend_c, 1, 8192
2, 713890, Pitch_bend_c, 1, 9472
2, 713920, Pitch_bend_c, 1, 8320
2, 714080, Pitch_bend_c, 1, 8192
2, 714239, Pitch_bend_c, 1, 9600
2, 714240, Pitch_bend_c, 1, 8320
2, 714240, Pitch_bend_c, 1, 9600
2, 714400, Pitch_bend_c, 1, 8192
2, 714560, Pitch_bend_c, 1, 8320
2, 714720, Pitch_bend_c, 1, 8192
2, 714880, Pitch_bend_c, 1, 8320
2, 715040, Pitch_bend_c, 1, 8192
2, 715200, Pitch_bend_c, 1, 8320
2, 715360, Pitch_bend_c, 1, 8192
2, 715520, Pitch_bend_c, 1, 8320
2, 715680, Pitch_bend_c, 1, 8192
2, 715840, Pitch_bend_c, 1, 8320
2, 716000, Pitch_bend_c, 1, 8192
2, 716160, Pitch_bend_c, 1, 8320
2, 716320, Pitch_bend_c, 1, 8192
2, 716480, Pitch_bend_c, 1, 8320
2, 716640, Pitch_bend_c, 1, 8192
2, 716800, Pitch_bend_c, 1, 8320
2, 716960, Pitch_bend_c, 1, 8192
2, 717120, Pitch_bend_c, 1, 8320
2, 717280, Pitch_bend_c, 1, 8192
2, 717440, Pitch_bend_c, 1, 8320
2, 717600, Pitch_bend_c, 1, 8192
2, 717760, Pitch_bend_c, 1, 8320
2, 717920, Pitch_bend_c, 1, 8192
2, 718080, Pitch_bend_c, 1, 8320
2, 718080, Pitch_bend_c, 1, 8192
2, 718080, Note_off_c, 1, 73, 95
2, 718080, Pitch_bend_c, 1, 9600
2, 718080, Pitch_bend_c, 1, 8192
2, 718080, Note_off_c, 1, 68, 95
2, 718080, Note_on_c, 1, 73, 95
2, 718080, Pitch_bend_c, 1, 8192
2, 718080, Note_on_c, 1, 68, 95
2, 718240, Pitch_bend_c, 1, 8192
2, 718254, Pitch_bend_c, 1, 8320
2, 718400, Pitch_bend_c, 1, 8320
2, 718428, Pitch_bend_c, 1, 8448
2, 718560, Pitch_bend_c, 1, 8192
2, 718602, Pitch_bend_c, 1, 8576
2, 718720, Pitch_bend_c, 1, 8320
2, 718776, Pitch_bend_c, 1, 8704
2, 718880, Pitch_bend_c, 1, 8192
2, 718950, Pitch_bend_c, 1, 8832
2, 719040, Pitch_bend_c, 1, 8320
2, 719124, Pitch_bend_c, 1, 8960
2, 719200, Pitch_bend_c, 1, 8192
2, 719298, Pitch_bend_c, 1, 9088
2, 719360, Pitch_bend_c, 1, 8320
2, 719472, Pitch_bend_c, 1, 9216
2, 719520, Pitch_bend_c, 1, 8192
2, 719646, Pitch_bend_c, 1, 9344
2, 719680, Pitch_bend_c, 1, 8320
2, 719820, Pitch_bend_c, 1, 9472
2, 719840, Pitch_bend_c, 1, 8192
2, 719994, Pitch_bend_c, 1, 9600
2, 720000, Pitch_bend_c, 1, 8320
2, 720000, Pitch_bend_c, 1, 9600
2, 720160, Pitch_bend_c, 1, 8192
2, 720320, Pitch_bend_c, 1, 8320
2, 720480, Pitch_bend_c, 1, 8192
2, 720640, Pitch_bend_c, 1, 8320
2, 720800, Pitch_bend_c, 1, 8192
2, 720960, Pitch_bend_c, 1, 8320
2, 721120, Pitch_bend_c, 1, 8192
2, 721280, Pitch_bend_c, 1, 8320
2, 721440, Pitch_bend_c, 1, 8192
2, 721600, Pitch_bend_c, 1, 8320
2, 721760, Pitch_bend_c, 1, 8192
2, 721920, Pitch_bend_c, 1, 8320
2, 721920, Pitch_bend_c, 1, 8192
2, 721920, Note_off_c, 1, 73, 95
2, 721920, Pitch_bend_c, 1, 9600
2, 721920, Pitch_bend_c, 1, 8192
2, 721920, Note_off_c, 1, 68, 95
2, 721920, Note_on_c, 1, 73, 95
2, 721920, Pitch_bend_c, 1, 8192
2, 721920, Note_on_c, 1, 68, 95
2, 722080, Pitch_bend_c, 1, 8192
2, 722240, Pitch_bend_c, 1, 8320
2, 722269, Pitch_bend_c, 1, 8320
2, 722400, Pitch_bend_c, 1, 8192
2, 722560, Pitch_bend_c, 1, 8320
2, 722618, Pitch_bend_c, 1, 8448
2, 722720, Pitch_bend_c, 1, 8192
2, 722880, Pitch_bend_c, 1, 8320
2, 722967, Pitch_bend_c, 1, 8576
2, 723040, Pitch_bend_c, 1, 8192
2, 723200, Pitch_bend_c, 1, 8320
2, 723316, Pitch_bend_c, 1, 8704
2, 723360, Pitch_bend_c, 1, 8192
2, 723520, Pitch_bend_c, 1, 8320
2, 723665, Pitch_bend_c, 1, 8832
2, 723680, Pitch_bend_c, 1, 8192
2, 723840, Pitch_bend_c, 1, 8320
2, 724000, Pitch_bend_c, 1, 8192
2, 724014, Pitch_bend_c, 1, 8960
2, 724160, Pitch_bend_c, 1, 8320
2, 724320, Pitch_bend_c, 1, 8192
2, 724363, Pitch_bend_c, 1, 9088
2, 724480, Pitch_bend_c, 1, 8320
2, 724640, Pitch_bend_c, 1, 8192
2, 724712, Pitch_bend_c, 1, 9216
2, 724800, Pitch_bend_c, 1, 8320
2, 724960, Pitch_bend_c, 1, 8192
2, 725061, Pitch_bend_c, 1, 9344
2, 725120, Pitch_bend_c, 1, 8320
2, 725280, Pitch_bend_c, 1, 8192
2, 725410, Pitch_bend_c, 1, 9472
2, 725440, Pitch_bend_c, 1, 8320
2, 725600, Pitch_bend_c, 1, 8192
2, 725759, Pitch_bend_c, 1, 9600
2, 725760, Pitch_bend_c, 1, 8320
2, 725760, Pitch_bend_c, 1, 9600
2, 725920, Pitch_bend_c, 1, 8192
2, 726080, Pitch_bend_c, 1, 8320
2, 726240, Pitch_bend_c, 1, 8192
2, 726400, Pitch_bend_c, 1, 8320
2, 726560, Pitch_bend_c, 1, 8192
2, 726720, Pitch_bend_c, 1, 8320
2, 726880, Pitch_bend_c, 1, 8192
2, 727040, Pitch_bend_c, 1, 8320
2, 727200, Pitch_bend_c, 1, 8192
2, 727360, Pitch_bend_c, 1, 8320
2, 727520, Pitch_bend_c, 1, 8192
2, 727680, Pitch_bend_c, 1, 8320
2, 727840, Pitch_bend_c, 1, 8192
2, 728000, Pitch_bend_c, 1, 8320
2, 728160, Pitch_bend_c, 1, 8192
2, 728320, Pitch_bend_c, 1, 8320
2, 728480, Pitch_bend_c, 1, 8192
2, 728640, Pitch_bend_c, 1, 8320
2, 728800, Pitch_bend_c, 1, 8192
2, 728960, Pitch_bend_c, 1, 8320
2, 729120, Pitch_bend_c, 1, 8192
2, 729280, Pitch_bend_c, 1, 8320
2, 729440, Pitch_bend_c, 1, 8192
2, 729600, Pitch_bend_c, 1, 8320
2, 729600, Pitch_bend_c, 1, 8192
2, 729600, Note_off_c, 1, 73, 95
2, 729600, Pitch_bend_c, 1, 9600
2, 729600, Pitch_bend_c, 1, 8192
2, 729600, Note_off_c, 1, 68, 95
2, 729600, Note_on_c, 1, 73, 95
2, 729600, Pitch_bend_c, 1, 8192
2, 729600, Note_on_c, 1, 68, 95
2, 729730, Pitch_bend_c, 1, 8320
2, 729760, Pitch_bend_c, 1, 8192
2, 729860, Pitch_bend_c, 1, 8448
2, 729920, Pitch_bend_c, 1, 8320
2, 729990, Pitch_bend_c, 1, 8576
2, 730080, Pitch_bend_c, 1, 8192
2, 730120, Pitch_bend_c, 1, 8704
2, 730240, Pitch_bend_c, 1, 8320
2, 730250, Pitch_bend_c, 1, 8832
2, 730380, Pitch_bend_c, 1, 8960
2, 730400, Pitch_bend_c, 1, 8192
2, 730510, Pitch_bend_c, 1, 9088
2, 730560, Pitch_bend_c, 1, 8320
2, 730640, Pitch_bend_c, 1, 9216
2, 730720, Pitch_bend_c, 1, 8192
2, 730770, Pitch_bend_c, 1, 9344
2, 730880, Pitch_bend_c, 1, 8320
2, 730900, Pitch_bend_c, 1, 9472
2, 731030, Pitch_bend_c, 1, 9600
2, 731040, Pitch_bend_c, 1, 8192
2, 731040, Pitch_bend_c, 1, 9600
2, 731200, Pitch_bend_c, 1, 8320
2, 731360, Pitch_bend_c, 1, 8192
2, 731520, Pitch_bend_c, 1, 8320
2, 731680, Pitch_bend_c, 1, 8192
2, 731840, Pitch_bend_c, 1, 8320
2, 732000, Pitch_bend_c, 1, 8192
2, 732160, Pitch_bend_c, 1, 8320
2, 732320, Pitch_bend_c, 1, 8192
2, 732480, Pitch_bend_c, 1, 8320
2, 732480, Pitch_bend_c, 1, 8192
2, 732480, Note_off_c, 1, 73, 95
2, 732480, Pitch_bend_c, 1, 9600
2, 732480, Pitch_bend_c, 1, 8192
2, 732480, Note_off_c, 1, 68, 95
2, 732480, Note_on_c, 0, 54, 95
2, 733920, Note_off_c, 0, 54, 95
2, 733920, Pitch_bend_c, 1, 8192
2, 733920, Note_on_c, 1, 68, 95
2, 733950, Note_on_c, 1, 73, 95
2, 733980, Note_on_c, 1, 78, 95
2, 734110, Pitch_bend_c, 1, 8192
2, 734140, Pitch_bend_c, 1, 8192
2, 734247, Pitch_bend_c, 1, 8320
2, 734270, Pitch_bend_c, 1, 8320
2, 734300, Pitch_bend_c, 1, 8320
2, 734430, Pitch_bend_c, 1, 8192
2, 734460, Pitch_bend_c, 1, 8192
2, 734574, Pitch_bend_c, 1, 8448
2, 734590, Pitch_bend_c, 1, 8320
2, 734620, Pitch_bend_c, 1, 8320
2, 734750, Pitch_bend_c, 1, 8192
2, 734780, Pitch_bend_c, 1, 8192
2, 734901, Pitch_bend_c, 1, 8576
2, 734910, Pitch_bend_c, 1, 8320
2, 734940, Pitch_bend_c, 1, 8320
2, 735070, Pitch_bend_c, 1, 8192
2, 735100, Pitch_bend_c, 1, 8192
2, 735228, Pitch_bend_c, 1, 8704
2, 735230, Pitch_bend_c, 1, 8320
2, 735260, Pitch_bend_c, 1, 8320
2, 735390, Pitch_bend_c, 1, 8192
2, 735420, Pitch_bend_c, 1, 8192
2, 735550, Pitch_bend_c, 1, 8320
2, 735555, Pitch_bend_c, 1, 8832
2, 735580, Pitch_bend_c, 1, 8320
2, 735710, Pitch_bend_c, 1, 8192
2, 735740, Pitch_bend_c, 1, 8192
2, 735870, Pitch_bend_c, 1, 8320
2, 735882, Pitch_bend_c, 1, 8960
2, 735900, Pitch_bend_c, 1, 8320
2, 736030, Pitch_bend_c, 1, 8192
2, 736060, Pitch_bend_c, 1, 8192
2, 736190, Pitch_bend_c, 1, 8320
2, 736209, Pitch_bend_c, 1, 9088
2, 736220, Pitch_bend_c, 1, 8320
2, 736350, Pitch_bend_c, 1, 8192
2, 736380, Pitch_bend_c, 1, 8192
2, 736510, Pitch_bend_c, 1, 8320
2, 736536, Pitch_bend_c, 1, 9216
2, 736540, Pitch_bend_c, 1, 8320
2, 736670, Pitch_bend_c, 1, 8192
2, 736700, Pitch_bend_c, 1, 8192
2, 736830, Pitch_bend_c, 1, 8320
2, 736860, Pitch_bend_c, 1, 8320
2, 736863, Pitch_bend_c, 1, 9344
2, 736990, Pitch_bend_c, 1, 8192
2, 737020, Pitch_bend_c, 1, 8192
2, 737150, Pitch_bend_c, 1, 8320
2, 737180, Pitch_bend_c, 1, 8320
2, 737190, Pitch_bend_c, 1, 9472
2, 737310, Pitch_bend_c, 1, 8192
2, 737340, Pitch_bend_c, 1, 8192
2, 737470, Pitch_bend_c, 1, 8320
2, 737500, Pitch_bend_c, 1, 8320
2, 737517, Pitch_bend_c, 1, 9600
2, 737520, Pitch_bend_c, 1, 9600
2, 737630, Pitch_bend_c, 1, 8192
2, 737660, Pitch_bend_c, 1, 8192
2, 737790, Pitch_bend_c, 1, 8320
2, 737820, Pitch_bend_c, 1, 8320
2, 737950, Pitch_bend_c, 1, 8192
2, 737980, Pitch_bend_c, 1, 8192
2, 738110, Pitch_bend_c, 1, 8320
2, 738140, Pitch_bend_c, 1, 8320
2, 738270, Pitch_bend_c, 1, 8192
2, 738300, Pitch_bend_c, 1, 8192
2, 738430, Pitch_bend_c, 1, 8320
2, 738460, Pitch_bend_c, 1, 8320
2, 738590, Pitch_bend_c, 1, 8192
2, 738620, Pitch_bend_c, 1, 8192
2, 738750, Pitch_bend_c, 1, 8320
2, 738780, Pitch_bend_c, 1, 8320
2, 738910, Pitch_bend_c, 1, 8192
2, 738940, Pitch_bend_c, 1, 8192
2, 739070, Pitch_bend_c, 1, 8320
2, 739100, Pitch_bend_c, 1, 8320
2, 739230, Pitch_bend_c, 1, 8192
2, 739260, Pitch_bend_c, 1, 8192
2, 739390, Pitch_bend_c, 1, 8320
2, 739420, Pitch_bend_c, 1, 8320
2, 739550, Pitch_bend_c, 1, 8192
2, 739580, Pitch_bend_c, 1, 8192
2, 739710, Pitch_bend_c, 1, 8320
2, 739740, Pitch_bend_c, 1, 8320
2, 739870, Pitch_bend_c, 1, 8192
2, 739900, Pitch_bend_c, 1, 8192
2, 740030, Pitch_bend_c, 1, 8320
2, 740060, Pitch_bend_c, 1, 8320
2, 740190, Pitch_bend_c, 1, 8192
2, 740220, Pitch_bend_c, 1, 8192
2, 740350, Pitch_bend_c, 1, 8320
2, 740380, Pitch_bend_c, 1, 8320
2, 740510, Pitch_bend_c, 1, 8192
2, 740540, Pitch_bend_c, 1, 8192
2, 740670, Pitch_bend_c, 1, 8320
2, 740700, Pitch_bend_c, 1, 8320
2, 740830, Pitch_bend_c, 1, 8192
2, 740860, Pitch_bend_c, 1, 8192
2, 740990, Pitch_bend_c, 1, 8320
2, 741020, Pitch_bend_c, 1, 8320
2, 741120, Pitch_bend_c, 1, 8192
2, 741120, Pitch_bend_c, 1, 8320
2, 741120, Pitch_bend_c, 1, 8192
2, 741120, Note_off_c, 1, 78, 95
2, 741120, Pitch_bend_c, 1, 8192
2, 741120, Pitch_bend_c, 1, 8320
2, 741120, Pitch_bend_c, 1, 8192
2, 741120, Note_off_c, 1, 73, 95
2, 741120, Pitch_bend_c, 1, 9600
2, 741120, Pitch_bend_c, 1, 8192
2, 741120, Note_off_c, 1, 68, 95
2, 741120, Note_on_c, 0, 70, 95
2, 741600, Note_off_c, 0, 70, 95
2, 741600, Note_on_c, 0, 68, 95
2, 741840, Note_off_c, 0, 68, 95
2, 741840, Note_on_c, 0, 66, 70
2, 742080, Note_off_c, 0, 66, 70
2, 742080, Note_on_c, 0, 63, 95
2, 742560, Note_off_c, 0, 63, 95
2, 742560, Note_on_c, 0, 66, 95
2, 743040, Note_off_c, 0, 66, 95
2, 743040, Note_on_c, 0, 63, 95
2, 743280, Note_off_c, 0, 63, 95
2, 743280, Note_on_c, 0, 61, 70
2, 743520, Note_off_c, 0, 61, 70
2, 743520, Note_on_c, 0, 58, 95
2, 744000, Note_off_c, 0, 58, 95
2, 744000, Note_on_c, 0, 63, 95
2, 744240, Note_off_c, 0, 63, 95
2, 744240, Note_on_c, 0, 61, 70
2, 744480, Note_off_c, 0, 61, 70
2, 744480, Note_on_c, 0, 58, 95
2, 744720, Note_off_c, 0, 58, 95
2, 744720, Note_on_c, 0, 56, 70
2, 744960, Note_off_c, 0, 56, 70
2, 744960, Note_on_c, 0, 63, 95
2, 745200, Note_off_c, 0, 63, 95
2, 745200, Note_on_c, 0, 61, 70
2, 745440, Note_off_c, 0, 61, 70
2, 745440, Note_on_c, 0, 58, 95
2, 745680, Note_off_c, 0, 58, 95
2, 745680, Note_on_c, 0, 63, 95
2, 745920, Note_off_c, 0, 63, 95
2, 745920, Note_on_c, 0, 61, 70
2, 746160, Note_off_c, 0, 61, 70
2, 746160, Note_on_c, 0, 58, 95
2, 746400, Note_off_c, 0, 58, 95
2, 746400, Note_on_c, 0, 63, 95
2, 746640, Note_off_c, 0, 63, 95
2, 746640, Note_on_c, 0, 61, 70
2, 746880, Note_off_c, 0, 61, 70
2, 746880, Note_on_c, 0, 58, 95
2, 747120, Note_off_c, 0, 58, 95
2, 747120, Note_on_c, 0, 63, 95
2, 747360, Note_off_c, 0, 63, 95
2, 747360, Note_on_c, 0, 61, 70
2, 747600, Note_off_c, 0, 61, 70
2, 747600, Note_on_c, 0, 58, 95
2, 747840, Note_off_c, 0, 58, 95
2, 747840, Note_on_c, 0, 63, 95
2, 748080, Note_off_c, 0, 63, 95
2, 748080, Note_on_c, 0, 61, 70
2, 748320, Note_off_c, 0, 61, 70
2, 748320, Note_on_c, 0, 58, 95
2, 748560, Note_off_c, 0, 58, 95
2, 748560, Note_on_c, 0, 63, 95
2, 748800, Note_off_c, 0, 63, 95
2, 748800, Note_on_c, 0, 61, 70
2, 749040, Note_off_c, 0, 61, 70
2, 749040, Note_on_c, 1, 63, 95
2, 749040, Note_on_c, 1, 58, 95
2, 749520, Note_off_c, 1, 63, 95
2, 749520, Note_off_c, 1, 58, 95
2, 749520, Note_on_c, 0, 39, 95
2, 752640, Note_off_c, 0, 39, 95
2, 752640, Note_on_c, 0, 58, 95
2, 752640, Pitch_bend_c, 1, 8192
2, 752640, Note_on_c, 1, 56, 95
2, 752665, Pitch_bend_c, 1, 8320
2, 752690, Pitch_bend_c, 1, 8448
2, 752715, Pitch_bend_c, 1, 8576
2, 752740, Pitch_bend_c, 1, 8704
2, 752765, Pitch_bend_c, 1, 8832
2, 752790, Pitch_bend_c, 1, 8960
2, 752815, Pitch_bend_c, 1, 9088
2, 752840, Pitch_bend_c, 1, 9216
2, 752865, Pitch_bend_c, 1, 9344
2, 752890, Pitch_bend_c, 1, 9472
2, 752915, Pitch_bend_c, 1, 9600
2, 752920, Pitch_bend_c, 1, 9600
2, 753480, Pitch_bend_c, 1, 9600
2, 753620, Pitch_bend_c, 1, 9472
2, 753760, Pitch_bend_c, 1, 9344
2, 753900, Pitch_bend_c, 1, 9216
2, 754040, Pitch_bend_c, 1, 9088
2, 754180, Pitch_bend_c, 1, 8960
2, 754320, Pitch_bend_c, 1, 8832
2, 754320, Pitch_bend_c, 1, 8832
2, 754488, Pitch_bend_c, 1, 8704
2, 754656, Pitch_bend_c, 1, 8576
2, 754824, Pitch_bend_c, 1, 8448
2, 754992, Pitch_bend_c, 1, 8320
2, 755160, Pitch_bend_c, 1, 8192
2, 755160, Pitch_bend_c, 1, 8192
2, 756000, Note_off_c, 0, 58, 95
2, 756000, Pitch_bend_c, 1, 8192
2, 756000, Pitch_bend_c, 1, 8192
2, 756000, Note_off_c, 1, 56, 95
2, 756000, Note_on_c, 0, 58, 95
2, 756000, Note_on_c, 0, 54, 95
2, 756480, Note_off_c, 0, 58, 95
2, 756480, Note_off_c, 0, 54, 95
2, 756480, Note_on_c, 0, 56, 95
2, 756640, Note_off_c, 0, 56, 95
2, 756640, Note_on_c, 0, 57, 70
2, 756800, Note_off_c, 0, 57, 70
2, 756800, Note_on_c, 0, 56, 70
2, 756960, Note_off_c, 0, 56, 70
2, 756960, Note_on_c, 0, 54, 70
2, 757200, Note_off_c, 0, 54, 70
2, 757200, Note_on_c, 0, 51, 95
2, 757440, Note_off_c, 0, 51, 95
2, 757440, Note_on_c, 0, 49, 70
2, 757680, Note_off_c, 0, 49, 70
2, 757680, Note_on_c, 0, 49, 95
2, 757920, Note_off_c, 0, 49, 95
2, 757920, Note_on_c, 0, 51, 95
2, 758160, Note_off_c, 0, 51, 95
2, 758160, Note_on_c, 0, 49, 95
2, 758400, Note_off_c, 0, 49, 95
2, 758400, Note_on_c, 0, 51, 95
2, 758640, Note_off_c, 0, 51, 95
2, 758640, Note_on_c, 0, 49, 95
2, 758880, Note_off_c, 0, 49, 95
2, 758880, Note_on_c, 0, 51, 95
2, 759120, Note_off_c, 0, 51, 95
2, 759120, Note_on_c, 0, 49, 95
2, 759360, Note_off_c, 0, 49, 95
2, 759360, Note_on_c, 0, 51, 95
2, 759600, Note_off_c, 0, 51, 95
2, 759600, Note_on_c, 0, 49, 95
2, 759840, Note_off_c, 0, 49, 95
2, 759840, Note_on_c, 0, 51, 95
2, 760080, Note_off_c, 0, 51, 95
2, 760080, Note_on_c, 0, 49, 95
2, 760319, Note_off_c, 0, 49, 95
2, 760320, Note_on_c, 0, 39, 95
2, 768000, Note_off_c, 0, 39, 95
2, 768000, Note_on_c, 0, 49, 47
2, 768240, Note_off_c, 0, 49, 47
2, 768240, Note_on_c, 0, 51, 47
2, 768480, Note_off_c, 0, 51, 47
2, 768480, Note_on_c, 0, 49, 47
2, 768720, Note_off_c, 0, 49, 47
2, 768720, Note_on_c, 0, 51, 47
2, 768960, Note_off_c, 0, 51, 47
2, 768960, Note_on_c, 0, 49, 47
2, 769200, Note_off_c, 0, 49, 47
2, 769200, Note_on_c, 0, 51, 47
2, 769440, Note_off_c, 0, 51, 47
2, 769440, Note_on_c, 0, 49, 47
2, 769680, Note_off_c, 0, 49, 47
2, 769680, Note_on_c, 0, 51, 47
2, 769920, Note_off_c, 0, 51, 47
2, 769920, Note_on_c, 0, 49, 47
2, 770160, Note_off_c, 0, 49, 47
2, 770160, Note_on_c, 0, 51, 47
2, 770400, Note_off_c, 0, 51, 47
2, 770400, Note_on_c, 0, 49, 47
2, 770640, Note_off_c, 0, 49, 47
2, 770640, Note_on_c, 0, 51, 47
2, 770880, Note_off_c, 0, 51, 47
2, 770880, Note_on_c, 0, 49, 47
2, 771120, Note_off_c, 0, 49, 47
2, 771120, Note_on_c, 0, 51, 47
2, 771360, Note_off_c, 0, 51, 47
2, 771360, Note_on_c, 0, 49, 47
2, 771600, Note_off_c, 0, 49, 47
2, 771600, Note_on_c, 0, 51, 47
2, 771840, Note_off_c, 0, 51, 47
2, 771840, Note_on_c, 0, 49, 47
2, 772080, Note_off_c, 0, 49, 47
2, 772080, Note_on_c, 0, 51, 47
2, 772320, Note_off_c, 0, 51, 47
2, 772320, Note_on_c, 0, 49, 47
2, 772560, Note_off_c, 0, 49, 47
2, 772560, Note_on_c, 0, 51, 47
2, 772800, Note_off_c, 0, 51, 47
2, 772800, Note_on_c, 0, 49, 47
2, 773040, Note_off_c, 0, 49, 47
2, 773040, Note_on_c, 0, 51, 47
2, 773280, Note_off_c, 0, 51, 47
2, 773280, Note_on_c, 0, 49, 47
2, 773520, Note_off_c, 0, 49, 47
2, 773520, Note_on_c, 0, 51, 47
2, 773760, Note_off_c, 0, 51, 47
2, 773760, Note_on_c, 0, 49, 47
2, 774000, Note_off_c, 0, 49, 47
2, 774000, Note_on_c, 0, 51, 47
2, 774240, Note_off_c, 0, 51, 47
2, 774240, Note_on_c, 0, 49, 47
2, 774480, Note_off_c, 0, 49, 47
2, 774480, Note_on_c, 0, 51, 47
2, 774720, Note_off_c, 0, 51, 47
2, 774720, Note_on_c, 0, 49, 47
2, 774960, Note_off_c, 0, 49, 47
2, 774960, Note_on_c, 0, 51, 47
2, 775200, Note_off_c, 0, 51, 47
2, 775200, Note_on_c, 0, 49, 47
2, 775440, Note_off_c, 0, 49, 47
2, 775440, Note_on_c, 0, 51, 47
2, 775680, Note_off_c, 0, 51, 47
2, 775680, Note_on_c, 0, 49, 47
2, 775920, Note_off_c, 0, 49, 47
2, 775920, Note_on_c, 0, 51, 47
2, 776160, Note_off_c, 0, 51, 47
2, 776160, Note_on_c, 0, 49, 47
2, 776400, Note_off_c, 0, 49, 47
2, 776400, Note_on_c, 0, 51, 47
2, 776640, Note_off_c, 0, 51, 47
2, 776640, Note_on_c, 0, 49, 47
2, 776880, Note_off_c, 0, 49, 47
2, 776880, Note_on_c, 0, 51, 47
2, 777120, Note_off_c, 0, 51, 47
2, 777120, Note_on_c, 0, 49, 47
2, 777360, Note_off_c, 0, 49, 47
2, 777360, Note_on_c, 0, 51, 47
2, 777600, Note_off_c, 0, 51, 47
2, 777600, Note_on_c, 0, 49, 47
2, 777840, Note_off_c, 0, 49, 47
2, 777840, Note_on_c, 0, 51, 47
2, 778080, Note_off_c, 0, 51, 47
2, 778080, Note_on_c, 0, 49, 47
2, 778320, Note_off_c, 0, 49, 47
2, 778320, Note_on_c, 0, 51, 47
2, 778560, Note_off_c, 0, 51, 47
2, 778560, Note_on_c, 0, 49, 47
2, 778800, Note_off_c, 0, 49, 47
2, 778800, Note_on_c, 0, 51, 47
2, 779040, Note_off_c, 0, 51, 47
2, 779040, Note_on_c, 0, 49, 47
2, 779280, Note_off_c, 0, 49, 47
2, 779280, Note_on_c, 0, 51, 47
2, 779519, Note_off_c, 0, 51, 47
2, 779520, Note_on_c, 0, 49, 95
2, 779760, Note_off_c, 0, 49, 95
2, 779760, Note_on_c, 0, 51, 95
2, 780000, Note_off_c, 0, 51, 95
2, 780000, Note_on_c, 0, 49, 95
2, 780240, Note_off_c, 0, 49, 95
2, 780240, Note_on_c, 0, 51, 95
2, 780480, Note_off_c, 0, 51, 95
2, 780480, Note_on_c, 0, 49, 95
2, 780720, Note_off_c, 0, 49, 95
2, 780720, Note_on_c, 0, 51, 95
2, 780960, Note_off_c, 0, 51, 95
2, 780960, Note_on_c, 0, 49, 95
2, 781200, Note_off_c, 0, 49, 95
2, 781200, Note_on_c, 0, 51, 95
2, 781440, Note_off_c, 0, 51, 95
2, 781440, Note_on_c, 0, 49, 95
2, 781680, Note_off_c, 0, 49, 95
2, 781680, Note_on_c, 0, 51, 95
2, 781920, Note_off_c, 0, 51, 95
2, 781920, Note_on_c, 0, 49, 95
2, 782160, Note_off_c, 0, 49, 95
2, 782160, Note_on_c, 0, 51, 95
2, 782400, Note_off_c, 0, 51, 95
2, 782400, Note_on_c, 0, 49, 95
2, 782640, Note_off_c, 0, 49, 95
2, 782640, Note_on_c, 0, 51, 95
2, 782880, Note_off_c, 0, 51, 95
2, 782880, Note_on_c, 0, 49, 95
2, 783120, Note_off_c, 0, 49, 95
2, 783120, Note_on_c, 0, 51, 95
2, 783359, Note_off_c, 0, 51, 95
2, 785280, Note_on_c, 0, 58, 95
2, 785280, Note_on_c, 0, 54, 95
2, 785280, Note_on_c, 0, 49, 95
2, 785357, Note_off_c, 0, 58, 95
2, 785357, Note_off_c, 0, 54, 95
2, 785357, Note_off_c, 0, 49, 95
2, 786720, Note_on_c, 0, 58, 95
2, 786720, Note_on_c, 0, 54, 95
2, 786720, Note_on_c, 0, 49, 95
2, 786797, Note_off_c, 0, 58, 95
2, 786797, Note_off_c, 0, 54, 95
2, 786797, Note_off_c, 0, 49, 95
2, 787200, Note_on_c, 0, 58, 95
2, 787200, Note_on_c, 0, 54, 95
2, 787200, Note_on_c, 0, 49, 95
2, 787277, Note_off_c, 0, 58, 95
2, 787277, Note_off_c, 0, 54, 95
2, 787277, Note_off_c, 0, 49, 95
2, 787680, Note_on_c, 0, 58, 95
2, 787680, Note_on_c, 0, 54, 95
2, 787680, Note_on_c, 0, 49, 95
2, 787757, Note_off_c, 0, 58, 95
2, 787757, Note_off_c, 0, 54, 95
2, 787757, Note_off_c, 0, 49, 95
2, 789120, Note_on_c, 0, 58, 95
2, 789120, Note_on_c, 0, 54, 95
2, 789120, Note_on_c, 0, 49, 95
2, 789197, Note_off_c, 0, 58, 95
2, 789197, Note_off_c, 0, 54, 95
2, 789197, Note_off_c, 0, 49, 95
2, 789600, Pitch_bend_c, 1, 8192
2, 789600, Note_on_c, 1, 73, 95
2, 789643, Pitch_bend_c, 1, 8320
2, 789686, Pitch_bend_c, 1, 8448
2, 789729, Pitch_bend_c, 1, 8576
2, 789772, Pitch_bend_c, 1, 8704
2, 789815, Pitch_bend_c, 1, 8832
2, 789858, Pitch_bend_c, 1, 8960
2, 789901, Pitch_bend_c, 1, 9088
2, 789944, Pitch_bend_c, 1, 9216
2, 789987, Pitch_bend_c, 1, 9344
2, 790030, Pitch_bend_c, 1, 9472
2, 790073, Pitch_bend_c, 1, 9600
2, 790080, Pitch_bend_c, 1, 9600
2, 790560, Pitch_bend_c, 1, 9600
2, 790560, Pitch_bend_c, 1, 8192
2, 790560, Note_off_c, 1, 73, 95
2, 790560, Note_on_c, 0, 75, 95
2, 791040, Note_off_c, 0, 75, 95
2, 791040, Note_on_c, 0, 73, 95
2, 791360, Note_off_c, 0, 73, 95
2, 791360, Note_on_c, 0, 70, 70
2, 791680, Note_off_c, 0, 70, 70
2, 791680, Note_on_c, 0, 68, 95
2, 792000, Note_off_c, 0, 68, 95
2, 792000, Note_on_c, 0, 70, 95
2, 792240, Note_off_c, 0, 70, 95
2, 792240, Note_on_c, 0, 68, 95
2, 792360, Note_off_c, 0, 68, 95
2, 792360, Note_on_c, 0, 66, 70
2, 792480, Note_off_c, 0, 66, 70
2, 792480, Note_on_c, 0, 63, 95
2, 792720, Note_off_c, 0, 63, 95
2, 792720, Note_on_c, 0, 66, 95
2, 792960, Note_off_c, 0, 66, 95
2, 792960, Note_on_c, 0, 63, 95
2, 793200, Note_off_c, 0, 63, 95
2, 793200, Note_on_c, 0, 61, 70
2, 793440, Note_off_c, 0, 61, 70
2, 793440, Note_on_c, 0, 58, 95
2, 793920, Note_off_c, 0, 58, 95
2, 797040, Pitch_bend_c, 1, 8192
2, 797040, Note_on_c, 1, 68, 95
2, 797105, Pitch_bend_c, 1, 8320
2, 797170, Pitch_bend_c, 1, 8448
2, 797235, Pitch_bend_c, 1, 8576
2, 797300, Pitch_bend_c, 1, 8704
2, 797365, Pitch_bend_c, 1, 8832
2, 797430, Pitch_bend_c, 1, 8960
2, 797495, Pitch_bend_c, 1, 9088
2, 797560, Pitch_bend_c, 1, 9216
2, 797625, Pitch_bend_c, 1, 9344
2, 797690, Pitch_bend_c, 1, 9472
2, 797755, Pitch_bend_c, 1, 9600
2, 797760, Pitch_bend_c, 1, 9600
2, 798480, Pitch_bend_c, 1, 9600
2, 798480, Pitch_bend_c, 1, 8192
2, 798480, Note_off_c, 1, 68, 95
2, 798480, Pitch_bend_c, 1, 9600
2, 798480, Note_on_c, 1, 68, 95
2, 798960, Pitch_bend_c, 1, 9600
2, 798960, Pitch_bend_c, 1, 8192
2, 798960, Note_off_c, 1, 68, 95
2, 798960, Pitch_bend_c, 1, 8192
2, 798960, Note_on_c, 1, 73, 95
2, 799047, Pitch_bend_c, 1, 8320
2, 799134, Pitch_bend_c, 1, 8448
2, 799221, Pitch_bend_c, 1, 8576
2, 799308, Pitch_bend_c, 1, 8704
2, 799395, Pitch_bend_c, 1, 8832
2, 799482, Pitch_bend_c, 1, 8960
2, 799569, Pitch_bend_c, 1, 9088
2, 799656, Pitch_bend_c, 1, 9216
2, 799743, Pitch_bend_c, 1, 9344
2, 799830, Pitch_bend_c, 1, 9472
2, 799917, Pitch_bend_c, 1, 9600
2, 799920, Pitch_bend_c, 1, 9600
2, 800880, Pitch_bend_c, 1, 9600
2, 800880, Pitch_bend_c, 1, 8192
2, 800880, Note_off_c, 1, 73, 95
2, 800880, Note_on_c, 0, 73, 95
2, 801360, Note_off_c, 0, 73, 95
2, 801360, Note_on_c, 0, 70, 95
2, 801840, Note_off_c, 0, 70, 95
2, 801840, Pitch_bend_c, 1, 8192
2, 801840, Note_on_c, 1, 68, 95
2, 801960, Pitch_bend_c, 1, 8320
2, 802080, Pitch_bend_c, 1, 8448
2, 802080, Pitch_bend_c, 1, 8448
2, 802320, Pitch_bend_c, 1, 8448
2, 802320, Pitch_bend_c, 1, 8192
2, 802320, Note_off_c, 1, 68, 95
2, 802560, Note_on_c, 0, 70, 95
2, 802920, Note_off_c, 0, 70, 95
2, 802920, Note_on_c, 0, 68, 95
2, 803160, Note_off_c, 0, 68, 95
2, 803160, Note_on_c, 0, 66, 70
2, 803400, Note_off_c, 0, 66, 70
2, 803400, Note_on_c, 0, 63, 95
2, 803880, Note_off_c, 0, 63, 95
2, 805440, Note_on_c, 0, 63, 95
2, 805680, Note_off_c, 0, 63, 95
2, 805680, Note_on_c, 0, 65, 70
2, 805920, Note_off_c, 0, 65, 70
2, 805920, Note_on_c, 0, 68, 95
2, 806160, Note_off_c, 0, 68, 95
2, 806160, Note_on_c, 0, 73, 95
2, 806400, Note_off_c, 0, 73, 95
2, 806400, Note_on_c, 1, 68, 95
2, 806520, Pitch_bend_c, 1, 8448
2, 806640, Pitch_bend_c, 1, 8832
2, 806760, Pitch_bend_c, 1, 9216
2, 806880, Pitch_bend_c, 1, 9600
2, 806880, Pitch_bend_c, 1, 8192
2, 806880, Note_off_c, 1, 68, 95
2, 806880, Note_on_c, 0, 70, 95
2, 807360, Note_off_c, 0, 70, 95
2, 807360, Note_on_c, 0, 68, 95
2, 807600, Note_off_c, 0, 68, 95
2, 807600, Note_on_c, 0, 66, 70
2, 807840, Note_off_c, 0, 66, 70
2, 807840, Note_on_c, 0, 63, 95
2, 808080, Note_off_c, 0, 63, 95
2, 808080, Pitch_bend_c, 1, 8192
2, 808080, Note_on_c, 1, 68, 95
2, 808112, Pitch_bend_c, 1, 8320
2, 808144, Pitch_bend_c, 1, 8448
2, 808176, Pitch_bend_c, 1, 8576
2, 808208, Pitch_bend_c, 1, 8704
2, 808240, Pitch_bend_c, 1, 8832
2, 808272, Pitch_bend_c, 1, 8960
2, 808304, Pitch_bend_c, 1, 9088
2, 808336, Pitch_bend_c, 1, 9216
2, 808368, Pitch_bend_c, 1, 9344
2, 808400, Pitch_bend_c, 1, 9472
2, 808432, Pitch_bend_c, 1, 9600
2, 808440, Pitch_bend_c, 1, 9600
2, 808800, Pitch_bend_c, 1, 9600
2, 808800, Pitch_bend_c, 1, 8192
2, 808800, Note_off_c, 1, 68, 95
2, 808800, Note_on_c, 0, 66, 95
2, 809520, Note_off_c, 0, 66, 95
2, 809520, Pitch_bend_c, 1, 8192
2, 809520, Note_on_c, 1, 68, 95
2, 809592, Pitch_bend_c, 1, 8320
2, 809664, Pitch_bend_c, 1, 8448
2, 809736, Pitch_bend_c, 1, 8576
2, 809808, Pitch_bend_c, 1, 8704
2, 809880, Pitch_bend_c, 1, 8832
2, 809880, Pitch_bend_c, 1, 8832
2, 810240, Pitch_bend_c, 1, 8832
2, 810240, Pitch_bend_c, 1, 8192
2, 810240, Note_off_c, 1, 68, 95
2, 810240, Note_on_c, 0, 63, 47
2, 810480, Note_off_c, 0, 63, 47
2, 810480, Note_on_c, 0, 61, 22
2, 810720, Note_off_c, 0, 61, 22
2, 810720, Note_on_c, 0, 63, 47
2, 811200, Note_off_c, 0, 63, 47
2, 816960, Pitch_bend_c, 1, 8192
2, 816960, Note_on_c, 1, 68, 95
2, 817035, Pitch_bend_c, 1, 8320
2, 817110, Pitch_bend_c, 1, 8448
2, 817185, Pitch_bend_c, 1, 8576
2, 817260, Pitch_bend_c, 1, 8704
2, 817335, Pitch_bend_c, 1, 8832
2, 817410, Pitch_bend_c, 1, 8960
2, 817485, Pitch_bend_c, 1, 9088
2, 817560, Pitch_bend_c, 1, 9216
2, 817560, Pitch_bend_c, 1, 9216
2, 818160, Pitch_bend_c, 1, 9216
2, 818160, Pitch_bend_c, 1, 8192
2, 818160, Note_off_c, 1, 68, 95
2, 818160, Pitch_bend_c, 1, 9216
2, 818160, Note_on_c, 1, 68, 95
2, 818213, Pitch_bend_c, 1, 9216
2, 818219, Pitch_bend_c, 1, 9088
2, 818225, Pitch_bend_c, 1, 8960
2, 818231, Pitch_bend_c, 1, 8832
2, 818237, Pitch_bend_c, 1, 8704
2, 818243, Pitch_bend_c, 1, 8576
2, 818249, Pitch_bend_c, 1, 8448
2, 818255, Pitch_bend_c, 1, 8320
2, 818261, Pitch_bend_c, 1, 8192
2, 818266, Pitch_bend_c, 1, 8192
2, 818320, Pitch_bend_c, 1, 8192
2, 818320, Pitch_bend_c, 1, 8192
2, 818320, Note_off_c, 1, 68, 95
2, 818320, Note_on_c, 0, 66, 95
2, 818480, Note_off_c, 0, 66, 95
2, 818480, Note_on_c, 0, 63, 95
2, 818640, Note_off_c, 0, 63, 95
2, 818640, Note_on_c, 0, 68, 95
2, 818880, Note_off_c, 0, 68, 95
2, 818880, Note_on_c, 0, 63, 95
2, 819360, Note_off_c, 0, 63, 95
2, 819360, Pitch_bend_c, 1, 8192
2, 819360, Note_on_c, 1, 66, 95
2, 819840, Pitch_bend_c, 1, 8320
2, 820320, Pitch_bend_c, 1, 8448
2, 820320, Pitch_bend_c, 1, 8448
2, 821280, Pitch_bend_c, 1, 8448
2, 821280, Pitch_bend_c, 1, 8192
2, 821280, Note_off_c, 1, 66, 95
2, 821520, Note_on_c, 0, 61, 95
2, 822240, Note_off_c, 0, 61, 95
2, 822240, Note_on_c, 1, 63, 95
2, 822400, Pitch_bend_c, 1, 8448
2, 822560, Pitch_bend_c, 1, 8832
2, 822560, Pitch_bend_c, 1, 8192
2, 822560, Note_off_c, 1, 63, 95
2, 822560, Note_on_c, 0, 64, 95
2, 822880, Note_off_c, 0, 64, 95
2, 822880, Note_on_c, 0, 66, 95
2, 823200, Note_off_c, 0, 66, 95
2, 823200, Pitch_bend_c, 1, 8192
2, 823200, Note_on_c, 1, 68, 95
2, 823320, Pitch_bend_c, 1, 8320
2, 823440, Pitch_bend_c, 1, 8448
2, 823440, Pitch_bend_c, 1, 8448
2, 823680, Pitch_bend_c, 1, 8448
2, 823680, Pitch_bend_c, 1, 8192
2, 823680, Note_off_c, 1, 68, 95
2, 823680, Pitch_bend_c, 1, 8192
2, 823680, Note_on_c, 1, 68, 95
2, 823710, Pitch_bend_c, 1, 8320
2, 823740, Pitch_bend_c, 1, 8448
2, 823770, Pitch_bend_c, 1, 8576
2, 823800, Pitch_bend_c, 1, 8704
2, 823830, Pitch_bend_c, 1, 8832
2, 823860, Pitch_bend_c, 1, 8960
2, 823890, Pitch_bend_c, 1, 9088
2, 823920, Pitch_bend_c, 1, 9216
2, 823920, Pitch_bend_c, 1, 9216
2, 824160, Pitch_bend_c, 1, 9216
2, 824160, Pitch_bend_c, 1, 8192
2, 824160, Note_off_c, 1, 68, 95
2, 824160, Pitch_bend_c, 1, 8192
2, 824160, Note_on_c, 1, 68, 95
2, 824190, Pitch_bend_c, 1, 8320
2, 824220, Pitch_bend_c, 1, 8448
2, 824250, Pitch_bend_c, 1, 8576
2, 824280, Pitch_bend_c, 1, 8704
2, 824310, Pitch_bend_c, 1, 8832
2, 824340, Pitch_bend_c, 1, 8960
2, 824370, Pitch_bend_c, 1, 9088
2, 824400, Pitch_bend_c, 1, 9216
2, 824400, Pitch_bend_c, 1, 9216
2, 824640, Pitch_bend_c, 1, 9216
2, 824640, Pitch_bend_c, 1, 8192
2, 824640, Note_off_c, 1, 68, 95
2, 824640, Pitch_bend_c, 1, 8192
2, 824640, Note_on_c, 1, 68, 95
2, 824670, Pitch_bend_c, 1, 8320
2, 824700, Pitch_bend_c, 1, 8448
2, 824730, Pitch_bend_c, 1, 8576
2, 824760, Pitch_bend_c, 1, 8704
2, 824790, Pitch_bend_c, 1, 8832
2, 824820, Pitch_bend_c, 1, 8960
2, 824850, Pitch_bend_c, 1, 9088
2, 824880, Pitch_bend_c, 1, 9216
2, 824880, Pitch_bend_c, 1, 9216
2, 825120, Pitch_bend_c, 1, 9216
2, 825120, Pitch_bend_c, 1, 8192
2, 825120, Note_off_c, 1, 68, 95
2, 825120, Note_on_c, 0, 68, 95
2, 825360, Note_off_c, 0, 68, 95
2, 825360, Note_on_c, 0, 66, 95
2, 825600, Note_off_c, 0, 66, 95
2, 825600, Note_on_c, 0, 68, 95
2, 825960, Note_off_c, 0, 68, 95
2, 825960, Note_on_c, 0, 66, 95
2, 826320, Note_off_c, 0, 66, 95
2, 826320, Note_on_c, 0, 63, 95
2, 826680, Note_off_c, 0, 63, 95
2, 826680, Note_on_c, 0, 61, 95
2, 827040, Note_off_c, 0, 61, 95
2, 827040, Note_on_c, 0, 58, 95
2, 827400, Note_off_c, 0, 58, 95
2, 827400, Note_on_c, 0, 57, 95
2, 827760, Note_off_c, 0, 57, 95
2, 827760, Note_on_c, 0, 56, 95
2, 828120, Note_off_c, 0, 56, 95
2, 828120, Note_on_c, 0, 54, 95
2, 828480, Note_off_c, 0, 54, 95
2, 828480, Note_on_c, 0, 51, 95
2, 828840, Note_off_c, 0, 51, 95
2, 828840, Note_on_c, 0, 70, 95
2, 828840, Note_on_c, 0, 66, 95
2, 829920, Note_off_c, 0, 70, 95
2, 829920, Note_off_c, 0, 66, 95
2, 829920, Note_on_c, 0, 70, 95
2, 829980, Note_on_c, 0, 66, 95
2, 830040, Note_on_c, 1, 63, 95
2, 831840, Note_off_c, 0, 70, 95
2, 831840, Note_off_c, 0, 66, 95
2, 831840, Note_off_c, 1, 63, 95
2, 832320, Note_on_c, 0, 42, 95
2, 832640, Note_off_c, 0, 42, 95
2, 832640, Note_on_c, 0, 43, 70
2, 832960, Note_off_c, 0, 43, 70
2, 832960, Note_on_c, 0, 44, 95
2, 833280, Note_off_c, 0, 44, 95
2, 833280, Note_on_c, 1, 49, 95
2, 833400, Pitch_bend_c, 1, 8448
2, 833520, Pitch_bend_c, 1, 8832
2, 833640, Pitch_bend_c, 1, 9216
2, 833760, Pitch_bend_c, 1, 9600
2, 833760, Pitch_bend_c, 1, 8192
2, 833760, Note_off_c, 1, 49, 95
2, 833760, Note_on_c, 0, 51, 95
2, 835200, Note_off_c, 0, 51, 95
2, 835200, Note_on_c, 0, 46, 95
2, 835520, Note_off_c, 0, 46, 95
2, 835520, Note_on_c, 0, 49, 95
2, 835840, Note_off_c, 0, 49, 95
2, 835840, Note_on_c, 0, 46, 95
2, 836040, Note_on_c, 1, 49, 95
2, 836160, Note_off_c, 0, 46, 95
2, 836160, Note_off_c, 1, 49, 95
2, 836160, Note_on_c, 1, 51, 95
2, 836400, Note_off_c, 1, 51, 95
2, 836400, Note_on_c, 0, 49, 95
2, 836640, Note_off_c, 0, 49, 95
2, 836640, Note_on_c, 0, 46, 95
2, 836880, Note_off_c, 0, 46, 95
2, 836880, Note_on_c, 0, 45, 70
2, 837120, Note_off_c, 0, 45, 70
2, 837120, Note_on_c, 1, 44, 70
2, 837240, Pitch_bend_c, 1, 7552
2, 837360, Pitch_bend_c, 1, 6784
2, 837360, Pitch_bend_c, 1, 8192
2, 837360, Note_off_c, 1, 44, 70
2, 837360, Note_on_c, 1, 42, 95
2, 837480, Pitch_bend_c, 1, 7168
2, 837600, Pitch_bend_c, 1, 6144
2, 837600, Pitch_bend_c, 1, 8192
2, 837600, Note_off_c, 1, 42, 95
2, 837600, Note_on_c, 0, 39, 95
2, 837840, Note_off_c, 0, 39, 95
2, 837840, Note_on_c, 0, 49, 95
2, 838080, Note_off_c, 0, 49, 95
2, 838080, Note_on_c, 0, 51, 95
2, 838320, Note_off_c, 0, 51, 95
2, 838320, Note_on_c, 0, 49, 95
2, 838560, Note_off_c, 0, 49, 95
2, 838560, Note_on_c, 0, 51, 95
2, 838800, Note_off_c, 0, 51, 95
2, 838800, Note_on_c, 0, 49, 95
2, 839040, Note_off_c, 0, 49, 95
2, 839040, Note_on_c, 0, 51, 95
2, 839280, Note_off_c, 0, 51, 95
2, 839280, Note_on_c, 0, 49, 95
2, 839520, Note_off_c, 0, 49, 95
2, 839520, Note_on_c, 0, 51, 95
2, 839760, Note_off_c, 0, 51, 95
2, 839760, Note_on_c, 0, 49, 95
2, 839999, Note_off_c, 0, 49, 95
2, 842880, Note_on_c, 0, 63, 95
2, 843520, Note_off_c, 0, 63, 95
2, 843520, Note_on_c, 0, 63, 95
2, 844160, Note_off_c, 0, 63, 95
2, 844160, Note_on_c, 0, 63, 95
2, 844800, Note_off_c, 0, 63, 95
2, 844800, Note_on_c, 0, 66, 95
2, 845184, Note_off_c, 0, 66, 95
2, 845184, Note_on_c, 0, 68, 95
2, 845448, Note_on_c, 1, 68, 95
2, 845568, Note_off_c, 0, 68, 95
2, 845568, Note_off_c, 1, 68, 95
2, 845568, Note_on_c, 1, 70, 95
2, 845952, Note_off_c, 1, 70, 95
2, 845952, Note_on_c, 0, 68, 95
2, 846336, Note_off_c, 0, 68, 95
2, 846336, Note_on_c, 0, 66, 95
2, 846720, Note_off_c, 0, 66, 95
2, 846720, Note_on_c, 0, 68, 95
2, 847104, Note_off_c, 0, 68, 95
2, 847104, Note_on_c, 0, 66, 95
2, 847488, Note_off_c, 0, 66, 95
2, 847488, Note_on_c, 0, 63, 95
2, 847872, Note_off_c, 0, 63, 95
2, 847872, Note_on_c, 0, 66, 95
2, 848256, Note_off_c, 0, 66, 95
2, 848256, Note_on_c, 0, 61, 95
2, 848640, Note_off_c, 0, 61, 95
2, 848640, Note_on_c, 1, 61, 95
2, 848760, Pitch_bend_c, 1, 8832
2, 848880, Pitch_bend_c, 1, 9600
2, 848880, Pitch_bend_c, 1, 8192
2, 848880, Note_off_c, 1, 61, 95
2, 848880, Note_on_c, 0, 63, 95
2, 849600, Note_off_c, 0, 63, 95
2, 849600, Note_on_c, 0, 63, 95
2, 849840, Note_off_c, 0, 63, 95
2, 849840, Note_on_c, 0, 61, 70
2, 850080, Note_off_c, 0, 61, 70
2, 850080, Note_on_c, 0, 58, 95
2, 850320, Note_off_c, 0, 58, 95
2, 851520, Note_on_c, 0, 56, 95
2, 851840, Note_off_c, 0, 56, 95
2, 851840, Note_on_c, 0, 58, 70
2, 852160, Note_off_c, 0, 58, 70
2, 852160, Note_on_c, 0, 61, 95
2, 852480, Note_off_c, 0, 61, 95
2, 852480, Note_on_c, 0, 56, 95
2, 852800, Note_off_c, 0, 56, 95
2, 852800, Note_on_c, 0, 58, 70
2, 853120, Note_off_c, 0, 58, 70
2, 853120, Note_on_c, 0, 61, 95
2, 853440, Note_off_c, 0, 61, 95
2, 853440, Note_on_c, 0, 58, 95
2, 853760, Note_off_c, 0, 58, 95
2, 853760, Note_on_c, 0, 56, 70
2, 854080, Note_off_c, 0, 56, 70
2, 854080, Note_on_c, 0, 54, 95
2, 854400, Note_off_c, 0, 54, 95
2, 854400, Note_on_c, 0, 58, 95
2, 854720, Note_off_c, 0, 58, 95
2, 854720, Note_on_c, 0, 56, 70
2, 855040, Note_off_c, 0, 56, 70
2, 855040, Note_on_c, 0, 54, 95
2, 855360, Note_off_c, 0, 54, 95
2, 855360, Note_on_c, 0, 56, 95
2, 855680, Note_off_c, 0, 56, 95
2, 855680, Note_on_c, 0, 58, 70
2, 856000, Note_off_c, 0, 58, 70
2, 856000, Note_on_c, 0, 61, 95
2, 856320, Note_off_c, 0, 61, 95
2, 856320, Note_on_c, 0, 58, 95
2, 856640, Note_off_c, 0, 58, 95
2, 856640, Note_on_c, 0, 56, 70
2, 856960, Note_off_c, 0, 56, 70
2, 856960, Note_on_c, 0, 54, 95
2, 857280, Note_off_c, 0, 54, 95
2, 857280, Note_on_c, 0, 58, 95
2, 857600, Note_off_c, 0, 58, 95
2, 857600, Note_on_c, 0, 56, 70
2, 857920, Note_off_c, 0, 56, 70
2, 857920, Note_on_c, 0, 54, 95
2, 858240, Note_off_c, 0, 54, 95
2, 858240, Note_on_c, 0, 58, 95
2, 858560, Note_off_c, 0, 58, 95
2, 858560, Note_on_c, 0, 56, 70
2, 858880, Note_off_c, 0, 56, 70
2, 858880, Note_on_c, 0, 54, 95
2, 859200, Note_off_c, 0, 54, 95
2, 859200, Note_on_c, 0, 56, 95
2, 859520, Note_off_c, 0, 56, 95
2, 859520, Note_on_c, 0, 58, 95
2, 859840, Note_off_c, 0, 58, 95
2, 859840, Note_on_c, 0, 56, 95
2, 860160, Note_off_c, 0, 56, 95
2, 860160, Note_on_c, 0, 54, 95
2, 860520, Note_off_c, 0, 54, 95
2, 860520, Note_on_c, 0, 56, 95
2, 860880, Note_off_c, 0, 56, 95
2, 860880, Note_on_c, 0, 58, 95
2, 861120, Note_off_c, 0, 58, 95
2, 861120, Note_on_c, 0, 56, 95
2, 861360, Note_off_c, 0, 56, 95
2, 861360, Note_on_c, 0, 54, 95
2, 861720, Note_off_c, 0, 54, 95
2, 861720, Note_on_c, 0, 56, 95
2, 862080, Note_off_c, 0, 56, 95
2, 862080, Note_on_c, 0, 58, 95
2, 862320, Note_off_c, 0, 58, 95
2, 862320, Note_on_c, 0, 56, 95
2, 862560, Note_off_c, 0, 56, 95
2, 862560, Note_on_c, 0, 54, 95
2, 862920, Note_off_c, 0, 54, 95
2, 862920, Note_on_c, 0, 56, 95
2, 863280, Note_off_c, 0, 56, 95
2, 863280, Note_on_c, 0, 58, 95
2, 863520, Note_off_c, 0, 58, 95
2, 863520, Note_on_c, 0, 56, 95
2, 863760, Note_off_c, 0, 56, 95
2, 863760, Note_on_c, 0, 54, 95
2, 864000, Note_off_c, 0, 54, 95
2, 864000, Note_on_c, 0, 56, 95
2, 864360, Note_off_c, 0, 56, 95
2, 864360, Note_on_c, 0, 58, 95
2, 864600, Note_off_c, 0, 58, 95
2, 864600, Note_on_c, 0, 56, 95
2, 864840, Note_off_c, 0, 56, 95
2, 864840, Note_on_c, 0, 54, 95
2, 865200, Note_off_c, 0, 54, 95
2, 865200, Note_on_c, 0, 56, 95
2, 865560, Note_off_c, 0, 56, 95
2, 865560, Note_on_c, 0, 58, 95
2, 865800, Note_off_c, 0, 58, 95
2, 865800, Note_on_c, 0, 56, 95
2, 866040, Note_off_c, 0, 56, 95
2, 866040, Note_on_c, 0, 54, 95
2, 866400, Note_off_c, 0, 54, 95
2, 866400, Note_on_c, 0, 56, 95
2, 866760, Note_off_c, 0, 56, 95
2, 866760, Note_on_c, 0, 58, 95
2, 867000, Note_off_c, 0, 58, 95
2, 867000, Note_on_c, 0, 56, 95
2, 867240, Note_off_c, 0, 56, 95
2, 867240, Note_on_c, 0, 54, 95
2, 867600, Note_off_c, 0, 54, 95
2, 867600, Note_on_c, 0, 49, 95
2, 867677, Note_off_c, 0, 49, 95
2, 867840, Note_on_c, 0, 54, 47
2, 867840, Note_on_c, 0, 49, 47
2, 867917, Note_off_c, 0, 54, 47
2, 867917, Note_off_c, 0, 49, 47
2, 868160, Note_on_c, 0, 54, 95
2, 868160, Note_on_c, 0, 49, 95
2, 868237, Note_off_c, 0, 54, 95
2, 868237, Note_off_c, 0, 49, 95
2, 868480, Note_on_c, 0, 54, 47
2, 868480, Note_on_c, 0, 49, 47
2, 868557, Note_off_c, 0, 54, 47
2, 868557, Note_off_c, 0, 49, 47
2, 868800, Note_on_c, 0, 54, 95
2, 868800, Note_on_c, 0, 49, 95
2, 868877, Note_off_c, 0, 54, 95
2, 868877, Note_off_c, 0, 49, 95
2, 869120, Note_on_c, 0, 54, 47
2, 869120, Note_on_c, 0, 49, 47
2, 869197, Note_off_c, 0, 54, 47
2, 869197, Note_off_c, 0, 49, 47
2, 869440, Note_on_c, 0, 54, 95
2, 869440, Note_on_c, 0, 49, 95
2, 869517, Note_off_c, 0, 54, 95
2, 869517, Note_off_c, 0, 49, 95
2, 869760, Note_on_c, 0, 54, 47
2, 869760, Note_on_c, 0, 49, 47
2, 869837, Note_off_c, 0, 54, 47
2, 869837, Note_off_c, 0, 49, 47
2, 870080, Note_on_c, 0, 54, 95
2, 870080, Note_on_c, 0, 49, 95
2, 870157, Note_off_c, 0, 54, 95
2, 870157, Note_off_c, 0, 49, 95
2, 870400, Note_on_c, 0, 54, 47
2, 870400, Note_on_c, 0, 49, 47
2, 870477, Note_off_c, 0, 54, 47
2, 870477, Note_off_c, 0, 49, 47
2, 870720, Note_on_c, 0, 54, 95
2, 870720, Note_on_c, 0, 49, 95
2, 870797, Note_off_c, 0, 54, 95
2, 870797, Note_off_c, 0, 49, 95
2, 871040, Note_on_c, 0, 54, 47
2, 871040, Note_on_c, 0, 49, 47
2, 871117, Note_off_c, 0, 54, 47
2, 871117, Note_off_c, 0, 49, 47
2, 871360, Note_on_c, 0, 54, 95
2, 871360, Note_on_c, 0, 49, 95
2, 871437, Note_off_c, 0, 54, 95
2, 871437, Note_off_c, 0, 49, 95
2, 871680, Note_on_c, 0, 54, 47
2, 871680, Note_on_c, 0, 49, 47
2, 871757, Note_off_c, 0, 54, 47
2, 871757, Note_off_c, 0, 49, 47
2, 872000, Note_on_c, 0, 54, 95
2, 872000, Note_on_c, 0, 49, 95
2, 872077, Note_off_c, 0, 54, 95
2, 872077, Note_off_c, 0, 49, 95
2, 872320, Note_on_c, 0, 54, 47
2, 872320, Note_on_c, 0, 49, 47
2, 872397, Note_off_c, 0, 54, 47
2, 872397, Note_off_c, 0, 49, 47
2, 872640, Note_on_c, 0, 54, 95
2, 872640, Note_on_c, 0, 49, 95
2, 872717, Note_off_c, 0, 54, 95
2, 872717, Note_off_c, 0, 49, 95
2, 872960, Note_on_c, 0, 54, 47
2, 872960, Note_on_c, 0, 49, 47
2, 873037, Note_off_c, 0, 54, 47
2, 873037, Note_off_c, 0, 49, 47
2, 873280, Note_on_c, 0, 54, 95
2, 873280, Note_on_c, 0, 49, 95
2, 873357, Note_off_c, 0, 54, 95
2, 873357, Note_off_c, 0, 49, 95
2, 873600, Note_on_c, 0, 54, 47
2, 873600, Note_on_c, 0, 49, 47
2, 873677, Note_off_c, 0, 54, 47
2, 873677, Note_off_c, 0, 49, 47
2, 873920, Note_on_c, 0, 54, 95
2, 873920, Note_on_c, 0, 49, 95
2, 873997, Note_off_c, 0, 54, 95
2, 873997, Note_off_c, 0, 49, 95
2, 874240, Note_on_c, 0, 54, 47
2, 874240, Note_on_c, 0, 49, 47
2, 874317, Note_off_c, 0, 54, 47
2, 874317, Note_off_c, 0, 49, 47
2, 874560, Note_on_c, 0, 54, 95
2, 874560, Note_on_c, 0, 49, 95
2, 874637, Note_off_c, 0, 54, 95
2, 874637, Note_off_c, 0, 49, 95
2, 874880, Note_on_c, 0, 54, 47
2, 874880, Note_on_c, 0, 49, 47
2, 874957, Note_off_c, 0, 54, 47
2, 874957, Note_off_c, 0, 49, 47
2, 875200, Note_on_c, 0, 54, 95
2, 875200, Note_on_c, 0, 49, 95
2, 875277, Note_off_c, 0, 54, 95
2, 875277, Note_off_c, 0, 49, 95
2, 875520, Note_on_c, 0, 39, 47
2, 877920, Note_on_c, 0, 49, 47
2, 878160, Note_off_c, 0, 49, 47
2, 878160, Note_on_c, 0, 51, 47
2, 878400, Note_off_c, 0, 51, 47
2, 878400, Note_on_c, 0, 49, 47
2, 878640, Note_off_c, 0, 49, 47
2, 878640, Note_on_c, 0, 51, 47
2, 878880, Note_off_c, 0, 51, 47
2, 878880, Note_on_c, 0, 49, 47
2, 879120, Note_off_c, 0, 49, 47
2, 879120, Note_on_c, 0, 51, 47
2, 879359, Note_off_c, 0, 51, 47
2, 879360, Note_off_c, 0, 39, 47
2, 887640, Note_on_c, 0, 44, 95
2, 887880, Note_off_c, 0, 44, 95
2, 887880, Note_on_c, 0, 46, 70
2, 888120, Note_off_c, 0, 46, 70
2, 888120, Pitch_bend_c, 1, 8192
2, 888120, Note_on_c, 1, 49, 95
2, 888360, Pitch_bend_c, 1, 8320
2, 888600, Pitch_bend_c, 1, 8448
2, 888600, Pitch_bend_c, 1, 8448
2, 889080, Pitch_bend_c, 1, 8448
2, 889080, Pitch_bend_c, 1, 8192
2, 889080, Note_off_c, 1, 49, 95
2, 889080, Note_on_c, 0, 46, 95
2, 889320, Note_off_c, 0, 46, 95
2, 889320, Note_on_c, 0, 45, 70
2, 889560, Note_off_c, 0, 45, 70
2, 889560, Note_on_c, 1, 44, 70
2, 889680, Pitch_bend_c, 1, 7552
2, 889800, Pitch_bend_c, 1, 6784
2, 889800, Pitch_bend_c, 1, 8192
2, 889800, Note_off_c, 1, 44, 70
2, 889800, Pitch_bend_c, 1, 8192
2, 889800, Note_on_c, 1, 42, 95
2, 889890, Pitch_bend_c, 1, 8320
2, 889980, Pitch_bend_c, 1, 8448
2, 889980, Pitch_bend_c, 1, 8448
2, 890160, Pitch_bend_c, 1, 8448
2, 890160, Pitch_bend_c, 1, 8192
2, 890160, Note_off_c, 1, 42, 95
2, 890160, Note_on_c, 0, 39, 95
2, 890640, Note_off_c, 0, 39, 95
2, 890640, Note_on_c, 0, 44, 95
2, 890880, Note_off_c, 0, 44, 95
2, 890880, Note_on_c, 0, 46, 70
2, 891240, Note_off_c, 0, 46, 70
2, 891240, Note_on_c, 0, 49, 95
2, 891600, Note_off_c, 0, 49, 95
2, 891600, Note_on_c, 0, 51, 70
2, 891960, Note_off_c, 0, 51, 70
2, 891960, Note_on_c, 0, 54, 95
2, 892320, Note_off_c, 0, 54, 95
2, 892320, Note_on_c, 0, 56, 70
2, 892680, Note_off_c, 0, 56, 70
2, 892680, Note_on_c, 0, 54, 22
2, 893040, Note_off_c, 0, 54, 22
2, 893040, Note_on_c, 0, 51, 47
2, 893400, Note_off_c, 0, 51, 47
2, 893400, Note_on_c, 0, 49, 22
2, 893760, Note_off_c, 0, 49, 22
2, 893760, Note_on_c, 0, 46, 47
2, 894120, Note_off_c, 0, 46, 47
2, 894120, Note_on_c, 0, 44, 22
2, 894480, Note_off_c, 0, 44, 22
2, 894480, Note_on_c, 0, 39, 47
2, 898560, Note_off_c, 0, 39, 47
2, 904800, Note_on_c, 1, 56, 95
2, 904920, Pitch_bend_c, 1, 8576
2, 905040, Pitch_bend_c, 1, 9088
2, 905160, Pitch_bend_c, 1, 9600
2, 905160, Pitch_bend_c, 1, 8192
2, 905160, Note_off_c, 1, 56, 95
2, 905160, Note_on_c, 0, 58, 95
2, 905520, Note_off_c, 0, 58, 95
2, 905520, Pitch_bend_c, 1, 8192
2, 905520, Note_on_c, 1, 61, 95
2, 905640, Pitch_bend_c, 1, 8320
2, 905760, Pitch_bend_c, 1, 8448
2, 905760, Pitch_bend_c, 1, 8448
2, 906000, Pitch_bend_c, 1, 8448
2, 906000, Pitch_bend_c, 1, 8192
2, 906000, Note_off_c, 1, 61, 95
2, 906000, Note_on_c, 0, 58, 95
2, 906240, Note_off_c, 0, 58, 95
2, 906240, Note_on_c, 0, 56, 70
2, 906480, Note_off_c, 0, 56, 70
2, 906480, Note_on_c, 0, 54, 95
2, 906960, Note_off_c, 0, 54, 95
2, 912000, Note_on_c, 1, 56, 95
2, 912160, Pitch_bend_c, 1, 8832
2, 912320, Pitch_bend_c, 1, 9600
2, 912320, Pitch_bend_c, 1, 8192
2, 912320, Note_off_c, 1, 56, 95
2, 912320, Note_on_c, 0, 58, 95
2, 912640, Note_off_c, 0, 58, 95
2, 912640, Note_on_c, 0, 61, 95
2, 913280, Note_off_c, 0, 61, 95
2, 913280, Note_on_c, 0, 63, 95
2, 913920, Note_off_c, 0, 63, 95
2, 913920, Pitch_bend_c, 1, 8192
2, 913920, Note_on_c, 1, 63, 95
2, 913996, Pitch_bend_c, 1, 8320
2, 914072, Pitch_bend_c, 1, 8448
2, 914148, Pitch_bend_c, 1, 8576
2, 914224, Pitch_bend_c, 1, 8704
2, 914300, Pitch_bend_c, 1, 8832
2, 914376, Pitch_bend_c, 1, 8960
2, 914452, Pitch_bend_c, 1, 9088
2, 914528, Pitch_bend_c, 1, 9216
2, 914604, Pitch_bend_c, 1, 9344
2, 914680, Pitch_bend_c, 1, 9472
2, 914756, Pitch_bend_c, 1, 9600
2, 914760, Pitch_bend_c, 1, 9600
2, 915600, Pitch_bend_c, 1, 9600
2, 915600, Pitch_bend_c, 1, 8192
2, 915600, Note_off_c, 1, 63, 95
2, 915600, Pitch_bend_c, 1, 8192
2, 915600, Note_on_c, 1, 63, 95
2, 915672, Pitch_bend_c, 1, 8320
2, 915744, Pitch_bend_c, 1, 8448
2, 915816, Pitch_bend_c, 1, 8576
2, 915888, Pitch_bend_c, 1, 8704
2, 915960, Pitch_bend_c, 1, 8832
2, 915960, Pitch_bend_c, 1, 8832
2, 916320, Pitch_bend_c, 1, 8832
2, 916320, Pitch_bend_c, 1, 8192
2, 916320, Note_off_c, 1, 63, 95
2, 916320, Note_on_c, 0, 61, 95
2, 917040, Note_off_c, 0, 61, 95
2, 917040, Note_on_c, 0, 63, 95
2, 917400, Note_off_c, 0, 63, 95
2, 917400, Note_on_c, 0, 61, 95
2, 917760, Note_off_c, 0, 61, 95
2, 917760, Note_on_c, 0, 58, 95
2, 918080, Note_off_c, 0, 58, 95
2, 918080, Note_on_c, 0, 57, 95
2, 918400, Note_off_c, 0, 57, 95
2, 918400, Note_on_c, 0, 56, 95
2, 918960, Note_off_c, 0, 56, 95
2, 918960, Pitch_bend_c, 1, 8192
2, 918960, Note_on_c, 1, 61, 95
2, 918992, Pitch_bend_c, 1, 8320
2, 919024, Pitch_bend_c, 1, 8448
2, 919056, Pitch_bend_c, 1, 8576
2, 919088, Pitch_bend_c, 1, 8704
2, 919120, Pitch_bend_c, 1, 8832
2, 919152, Pitch_bend_c, 1, 8960
2, 919184, Pitch_bend_c, 1, 9088
2, 919216, Pitch_bend_c, 1, 9216
2, 919248, Pitch_bend_c, 1, 9344
2, 919280, Pitch_bend_c, 1, 9472
2, 919312, Pitch_bend_c, 1, 9600
2, 919320, Pitch_bend_c, 1, 9600
2, 919680, Pitch_bend_c, 1, 9600
2, 919680, Pitch_bend_c, 1, 8192
2, 919680, Note_off_c, 1, 61, 95
2, 919680, Pitch_bend_c, 1, 8192
2, 919680, Note_on_c, 1, 57, 95
2, 919860, Pitch_bend_c, 1, 8320
2, 920040, Pitch_bend_c, 1, 8448
2, 920040, Pitch_bend_c, 1, 8448
2, 920400, Pitch_bend_c, 1, 8448
2, 920400, Pitch_bend_c, 1, 8192
2, 920400, Note_off_c, 1, 57, 95
2, 920400, Note_on_c, 0, 56, 95
2, 920760, Note_off_c, 0, 56, 95
2, 920760, Note_on_c, 0, 54, 95
2, 921120, Note_off_c, 0, 54, 95
2, 921120, Note_on_c, 0, 51, 95
2, 921840, Note_off_c, 0, 51, 95
2, 921840, Note_on_c, 0, 54, 47
2, 922080, Note_off_c, 0, 54, 47
2, 922080, Note_on_c, 0, 55, 47
2, 922319, Note_off_c, 0, 55, 47
2, 922320, Note_on_c, 0, 55, 47
2, 922320, Note_on_c, 0, 51, 47
2, 923280, Note_off_c, 0, 55, 47
2, 923280, Note_off_c, 0, 51, 47
2, 923280, Note_on_c, 0, 54, 47
2, 923280, Note_on_c, 0, 49, 47
2, 923520, Note_off_c, 0, 54, 47
2, 923520, Note_on_c, 0, 55, 47
2, 923520, Note_off_c, 0, 49, 47
2, 923520, Note_on_c, 0, 51, 47
2, 923760, Note_off_c, 0, 55, 47
2, 923760, Note_on_c, 0, 54, 47
2, 923760, Note_off_c, 0, 51, 47
2, 923760, Note_on_c, 0, 49, 47
2, 924000, Note_off_c, 0, 54, 47
2, 924000, Note_on_c, 0, 55, 47
2, 924000, Note_off_c, 0, 49, 47
2, 924000, Note_on_c, 0, 51, 47
2, 924239, Note_off_c, 0, 55, 47
2, 924239, Note_off_c, 0, 51, 47
2, 928080, Pitch_bend_c, 1, 8192
2, 928080, Note_on_c, 1, 62, 47
2, 928152, Pitch_bend_c, 1, 8320
2, 928224, Pitch_bend_c, 1, 8448
2, 928296, Pitch_bend_c, 1, 8576
2, 928368, Pitch_bend_c, 1, 8704
2, 928440, Pitch_bend_c, 1, 8832
2, 928440, Pitch_bend_c, 1, 8832
2, 928800, Pitch_bend_c, 1, 8832
2, 928800, Pitch_bend_c, 1, 8192
2, 928800, Note_off_c, 1, 62, 47
2, 928800, Note_on_c, 0, 58, 47
2, 928960, Note_off_c, 0, 58, 47
2, 928960, Note_on_c, 0, 56, 22
2, 929120, Note_off_c, 0, 56, 22
2, 929120, Note_on_c, 0, 54, 22
2, 929280, Note_off_c, 0, 54, 22
2, 929280, Note_on_c, 0, 39, 47
2, 929760, Note_off_c, 0, 39, 47
2, 930120, Note_on_c, 1, 49, 95
2, 930240, Note_off_c, 1, 49, 95
2, 930240, Note_on_c, 1, 51, 47
2, 931200, Note_off_c, 1, 51, 47
2, 931200, Note_on_c, 0, 63, 47
2, 931200, Note_on_c, 0, 58, 47
2, 931200, Note_on_c, 0, 55, 47
2, 932040, Note_on_c, 1, 54, 95
2, 932040, Note_on_c, 1, 49, 95
2, 932160, Note_off_c, 0, 63, 47
2, 932160, Note_off_c, 0, 58, 47
2, 932160, Note_off_c, 0, 55, 47
2, 932160, Note_on_c, 0, 63, 47
2, 932160, Note_on_c, 0, 58, 47
2, 932160, Note_off_c, 1, 54, 95
2, 932160, Note_on_c, 1, 55, 47
2, 932160, Note_off_c, 1, 49, 95
2, 932160, Note_on_c, 1, 51, 47
2, 932880, Note_off_c, 0, 63, 47
2, 932880, Note_off_c, 0, 58, 47
2, 932880, Note_off_c, 1, 55, 47
2, 932880, Note_off_c, 1, 51, 47
2, 933120, Note_on_c, 0, 39, 47
2, 933600, Note_off_c, 0, 39, 47
2, 933960, Note_on_c, 1, 54, 63
2, 933960, Note_on_c, 1, 49, 63
2, 934080, Note_on_c, 0, 63, 47
2, 934080, Note_on_c, 0, 58, 47
2, 934080, Note_off_c, 1, 54, 63
2, 934080, Note_on_c, 1, 55, 47
2, 934080, Note_off_c, 1, 49, 63
2, 934080, Note_on_c, 1, 51, 47
2, 935040, Note_off_c, 0, 63, 47
2, 935040, Note_off_c, 0, 58, 47
2, 935040, Note_off_c, 1, 55, 47
2, 935040, Note_off_c, 1, 51, 47
2, 935040, Note_on_c, 0, 63, 47
2, 935040, Note_on_c, 0, 58, 47
2, 935040, Note_on_c, 0, 55, 47
2, 936000, Note_off_c, 0, 63, 47
2, 936000, Note_off_c, 0, 58, 47
2, 936000, Note_off_c, 0, 55, 47
2, 936000, Note_on_c, 0, 63, 47
2, 936000, Note_on_c, 0, 58, 47
2, 936000, Note_on_c, 0, 55, 47
2, 936000, Note_on_c, 0, 51, 47
2, 936720, Note_off_c, 0, 63, 47
2, 936720, Note_off_c, 0, 58, 47
2, 936720, Note_off_c, 0, 55, 47
2, 936720, Note_off_c, 0, 51, 47
2, 936960, Note_on_c, 0, 54, 47
2, 936960, Note_on_c, 0, 49, 47
2, 937800, Note_on_c, 1, 54, 63
2, 937800, Note_on_c, 1, 49, 63
2, 937920, Note_off_c, 0, 54, 47
2, 937920, Note_off_c, 0, 49, 47
2, 937920, Note_on_c, 0, 63, 47
2, 937920, Note_on_c, 0, 58, 47
2, 937920, Note_off_c, 1, 54, 63
2, 937920, Note_on_c, 1, 55, 47
2, 937920, Note_off_c, 1, 49, 63
2, 937920, Note_on_c, 1, 51, 47
2, 938880, Note_off_c, 0, 63, 47
2, 938880, Note_off_c, 0, 58, 47
2, 938880, Note_off_c, 1, 55, 47
2, 938880, Note_off_c, 1, 51, 47
2, 938880, Note_on_c, 0, 63, 47
2, 938880, Note_on_c, 0, 58, 47
2, 938880, Note_on_c, 0, 55, 47
2, 938880, Note_on_c, 0, 51, 47
2, 939840, Note_off_c, 0, 63, 47
2, 939840, Note_off_c, 0, 58, 47
2, 939840, Note_off_c, 0, 55, 47
2, 939840, Note_off_c, 0, 51, 47
2, 939840, Note_on_c, 0, 63, 47
2, 939840, Note_on_c, 0, 58, 47
2, 939840, Note_on_c, 0, 55, 47
2, 939840, Note_on_c, 0, 51, 47
2, 940800, Note_off_c, 0, 63, 47
2, 940800, Note_off_c, 0, 58, 47
2, 940800, Note_off_c, 0, 55, 47
2, 940800, Note_off_c, 0, 51, 47
2, 940800, Note_on_c, 0, 49, 47
2, 941280, Note_off_c, 0, 49, 47
2, 941640, Note_on_c, 1, 54, 63
2, 941640, Note_on_c, 1, 49, 63
2, 941760, Note_on_c, 0, 63, 47
2, 941760, Note_on_c, 0, 58, 47
2, 941760, Note_off_c, 1, 54, 63
2, 941760, Note_on_c, 1, 55, 47
2, 941760, Note_off_c, 1, 49, 63
2, 941760, Note_on_c, 1, 51, 47
2, 942720, Note_off_c, 0, 63, 47
2, 942720, Note_off_c, 0, 58, 47
2, 942720, Note_off_c, 1, 55, 47
2, 942720, Note_off_c, 1, 51, 47
2, 942720, Note_on_c, 0, 63, 47
2, 942720, Note_on_c, 0, 58, 47
2, 942720, Note_on_c, 0, 55, 47
2, 944400, Note_off_c, 0, 63, 47
2, 944400, Note_off_c, 0, 58, 47
2, 944400, Note_off_c, 0, 55, 47
2, 944640, Note_on_c, 0, 63, 47
2, 944640, Note_on_c, 0, 58, 47
2, 944640, Note_on_c, 0, 55, 47
2, 944640, Note_on_c, 0, 51, 47
2, 945600, Note_off_c, 0, 63, 47
2, 945600, Note_off_c, 0, 58, 47
2, 945600, Note_off_c, 0, 55, 47
2, 945600, Note_off_c, 0, 51, 47
2, 945600, Note_on_c, 0, 63, 47
2, 945600, Note_on_c, 0, 58, 47
2, 945600, Note_on_c, 0, 55, 47
2, 945600, Note_on_c, 0, 51, 47
2, 946560, Note_off_c, 0, 63, 47
2, 946560, Note_off_c, 0, 58, 47
2, 946560, Note_off_c, 0, 55, 47
2, 946560, Note_off_c, 0, 51, 47
2, 946560, Note_on_c, 0, 63, 47
2, 946560, Note_on_c, 0, 58, 47
2, 946560, Note_on_c, 0, 55, 47
2, 946560, Note_on_c, 0, 51, 47
2, 947520, Note_off_c, 0, 63, 47
2, 947520, Note_off_c, 0, 58, 47
2, 947520, Note_off_c, 0, 55, 47
2, 947520, Note_off_c, 0, 51, 47
2, 947760, Note_on_c, 1, 55, 95
2, 947760, Note_on_c, 1, 51, 95
2, 947880, Pitch_bend_c, 1, 8192
2, 947880, Pitch_bend_c, 1, 8064
2, 948000, Pitch_bend_c, 1, 8064
2, 948000, Pitch_bend_c, 1, 7808
2, 948120, Pitch_bend_c, 1, 7936
2, 948120, Pitch_bend_c, 1, 7552
2, 948240, Pitch_bend_c, 1, 7808
2, 948240, Pitch_bend_c, 1, 7296
2, 948360, Pitch_bend_c, 1, 7680
2, 948360, Pitch_bend_c, 1, 7040
2, 948480, Pitch_bend_c, 1, 7552
2, 948480, Pitch_bend_c, 1, 8192
2, 948480, Note_off_c, 1, 55, 95
2, 948480, Pitch_bend_c, 1, 6784
2, 948480, Pitch_bend_c, 1, 8192
2, 948480, Note_off_c, 1, 51, 95
2, 948480, Note_on_c, 0, 54, 47
2, 948480, Note_on_c, 0, 49, 47
2, 949320, Note_on_c, 1, 54, 63
2, 949320, Note_on_c, 1, 49, 63
2, 949440, Note_off_c, 0, 54, 47
2, 949440, Note_off_c, 0, 49, 47
2, 949440, Note_on_c, 0, 63, 47
2, 949440, Note_on_c, 0, 58, 47
2, 949440, Note_off_c, 1, 54, 63
2, 949440, Note_on_c, 1, 55, 47
2, 949440, Note_off_c, 1, 49, 63
2, 949440, Note_on_c, 1, 51, 47
2, 950400, Note_off_c, 0, 63, 47
2, 950400, Note_off_c, 0, 58, 47
2, 950400, Note_off_c, 1, 55, 47
2, 950400, Note_off_c, 1, 51, 47
2, 950400, Note_on_c, 0, 63, 47
2, 950400, Note_on_c, 0, 58, 47
2, 950400, Note_on_c, 0, 55, 47
2, 950400, Note_on_c, 0, 51, 47
2, 951360, Note_off_c, 0, 63, 47
2, 951360, Note_off_c, 0, 58, 47
2, 951360, Note_off_c, 0, 55, 47
2, 951360, Note_off_c, 0, 51, 47
2, 951360, Note_on_c, 0, 63, 47
2, 951360, Note_on_c, 0, 58, 47
2, 951360, Note_on_c, 0, 55, 47
2, 951360, Note_on_c, 0, 51, 47
2, 952320, Note_off_c, 0, 63, 47
2, 952320, Note_off_c, 0, 58, 47
2, 952320, Note_off_c, 0, 55, 47
2, 952320, Note_off_c, 0, 51, 47
2, 952320, Note_on_c, 0, 54, 47
2, 952320, Note_on_c, 0, 49, 47
2, 953160, Note_on_c, 1, 54, 63
2, 953160, Note_on_c, 1, 49, 63
2, 953280, Note_off_c, 0, 54, 47
2, 953280, Note_off_c, 0, 49, 47
2, 953280, Note_on_c, 0, 63, 47
2, 953280, Note_on_c, 0, 58, 47
2, 953280, Note_off_c, 1, 54, 63
2, 953280, Note_on_c, 1, 55, 47
2, 953280, Note_off_c, 1, 49, 63
2, 953280, Note_on_c, 1, 51, 47
2, 954240, Note_off_c, 0, 63, 47
2, 954240, Note_off_c, 0, 58, 47
2, 954240, Note_off_c, 1, 55, 47
2, 954240, Note_off_c, 1, 51, 47
2, 954240, Note_on_c, 0, 63, 47
2, 954240, Note_on_c, 0, 58, 47
2, 954240, Note_on_c, 0, 55, 47
2, 954240, Note_on_c, 0, 51, 47
2, 955200, Note_off_c, 0, 63, 47
2, 955200, Note_off_c, 0, 58, 47
2, 955200, Note_off_c, 0, 55, 47
2, 955200, Note_off_c, 0, 51, 47
2, 955200, Note_on_c, 0, 63, 47
2, 955200, Note_on_c, 0, 58, 47
2, 955200, Note_on_c, 0, 55, 47
2, 955200, Note_on_c, 0, 51, 47
2, 956160, Note_off_c, 0, 63, 47
2, 956160, Note_off_c, 0, 58, 47
2, 956160, Note_off_c, 0, 55, 47
2, 956160, Note_off_c, 0, 51, 47
2, 960480, Pitch_bend_c, 1, 8192
2, 960480, Note_on_c, 1, 61, 95
2, 960523, Pitch_bend_c, 1, 8320
2, 960566, Pitch_bend_c, 1, 8448
2, 960609, Pitch_bend_c, 1, 8576
2, 960652, Pitch_bend_c, 1, 8704
2, 960695, Pitch_bend_c, 1, 8832
2, 960738, Pitch_bend_c, 1, 8960
2, 960781, Pitch_bend_c, 1, 9088
2, 960824, Pitch_bend_c, 1, 9216
2, 960867, Pitch_bend_c, 1, 9344
2, 960910, Pitch_bend_c, 1, 9472
2, 960953, Pitch_bend_c, 1, 9600
2, 960960, Pitch_bend_c, 1, 9600
2, 961440, Pitch_bend_c, 1, 9600
2, 961440, Pitch_bend_c, 1, 8192
2, 961440, Note_off_c, 1, 61, 95
2, 961440, Note_on_c, 0, 61, 95
2, 961920, Note_off_c, 0, 61, 95
2, 961920, Note_on_c, 0, 63, 95
2, 962400, Note_off_c, 0, 63, 95
2, 962400, Note_on_c, 0, 61, 95
2, 962760, Note_off_c, 0, 61, 95
2, 962760, Note_on_c, 0, 58, 95
2, 963120, Note_off_c, 0, 58, 95
2, 963120, Note_on_c, 0, 56, 95
2, 963480, Note_off_c, 0, 56, 95
2, 963480, Note_on_c, 0, 54, 95
2, 963840, Note_off_c, 0, 54, 95
2, 963840, Note_on_c, 1, 56, 95
2, 964020, Pitch_bend_c, 1, 9600
2, 964020, Pitch_bend_c, 1, 8192
2, 964020, Note_off_c, 1, 56, 95
2, 964020, Note_on_c, 0, 58, 95
2, 964200, Note_off_c, 0, 58, 95
2, 964200, Note_on_c, 0, 54, 70
2, 964560, Note_off_c, 0, 54, 70
2, 964560, Note_on_c, 0, 51, 95
2, 964920, Note_off_c, 0, 51, 95
2, 964920, Note_on_c, 0, 49, 47
2, 965040, Note_off_c, 0, 49, 47
2, 965040, Note_on_c, 0, 51, 47
2, 965160, Note_off_c, 0, 51, 47
2, 965160, Note_on_c, 0, 49, 47
2, 965280, Note_off_c, 0, 49, 47
2, 965280, Note_on_c, 0, 51, 47
2, 965400, Note_off_c, 0, 51, 47
2, 965400, Note_on_c, 0, 49, 47
2, 965520, Note_off_c, 0, 49, 47
2, 965520, Note_on_c, 0, 51, 47
2, 965640, Note_off_c, 0, 51, 47
2, 965640, Note_on_c, 0, 49, 47
2, 965760, Note_off_c, 0, 49, 47
2, 965760, Note_on_c, 0, 51, 47
2, 965879, Note_off_c, 0, 51, 47
2, 968160, Note_on_c, 0, 61, 95
2, 969120, Note_off_c, 0, 61, 95
2, 969120, Note_on_c, 0, 58, 95
2, 969600, Note_off_c, 0, 58, 95
2, 969600, Note_on_c, 0, 61, 95
2, 970080, Note_off_c, 0, 61, 95
2, 970080, Note_on_c, 0, 58, 95
2, 970560, Note_off_c, 0, 58, 95
2, 970560, Note_on_c, 1, 61, 95
2, 970680, Pitch_bend_c, 1, 8448
2, 970800, Pitch_bend_c, 1, 8832
2, 970920, Pitch_bend_c, 1, 9216
2, 971040, Pitch_bend_c, 1, 9600
2, 971040, Pitch_bend_c, 1, 8192
2, 971040, Note_off_c, 1, 61, 95
2, 971040, Note_on_c, 0, 63, 95
2, 972960, Note_off_c, 0, 63, 95
2, 972960, Note_on_c, 0, 61, 95
2, 973440, Note_off_c, 0, 61, 95
2, 973440, Note_on_c, 0, 56, 95
2, 973600, Note_off_c, 0, 56, 95
2, 973600, Note_on_c, 0, 58, 70
2, 973760, Note_off_c, 0, 58, 70
2, 973760, Note_on_c, 0, 56, 70
2, 973920, Note_off_c, 0, 56, 70
2, 973920, Note_on_c, 0, 54, 70
2, 974880, Note_off_c, 0, 54, 70
2, 975360, Note_on_c, 0, 39, 47
2, 976320, Note_on_c, 0, 54, 47
2, 976320, Note_on_c, 0, 49, 47
2, 976440, Note_off_c, 0, 54, 47
2, 976440, Note_on_c, 0, 55, 47
2, 976560, Note_off_c, 0, 55, 47
2, 976560, Note_on_c, 0, 54, 47
2, 976560, Note_off_c, 0, 49, 47
2, 976560, Note_on_c, 0, 51, 47
2, 976680, Note_off_c, 0, 54, 47
2, 976680, Note_on_c, 0, 55, 47
2, 976800, Note_off_c, 0, 55, 47
2, 976800, Note_on_c, 0, 54, 47
2, 976800, Note_off_c, 0, 51, 47
2, 976800, Note_on_c, 0, 49, 47
2, 976920, Note_off_c, 0, 54, 47
2, 976920, Note_on_c, 0, 55, 47
2, 977040, Note_off_c, 0, 55, 47
2, 977040, Note_on_c, 0, 54, 47
2, 977040, Note_off_c, 0, 49, 47
2, 977040, Note_on_c, 0, 51, 47
2, 977160, Note_off_c, 0, 54, 47
2, 977160, Note_on_c, 0, 55, 47
2, 977280, Note_off_c, 0, 55, 47
2, 977280, Note_on_c, 0, 54, 47
2, 977280, Note_off_c, 0, 51, 47
2, 977280, Note_on_c, 0, 49, 47
2, 977400, Note_off_c, 0, 54, 47
2, 977400, Note_on_c, 0, 55, 47
2, 977520, Note_off_c, 0, 55, 47
2, 977520, Note_on_c, 0, 54, 47
2, 977520, Note_off_c, 0, 49, 47
2, 977520, Note_on_c, 0, 51, 47
2, 977640, Note_off_c, 0, 54, 47
2, 977640, Note_on_c, 0, 55, 47
2, 977760, Note_off_c, 0, 55, 47
2, 977760, Note_on_c, 0, 54, 47
2, 977760, Note_off_c, 0, 51, 47
2, 977760, Note_on_c, 0, 49, 47
2, 977880, Note_off_c, 0, 54, 47
2, 977880, Note_on_c, 0, 55, 47
2, 978000, Note_off_c, 0, 55, 47
2, 978000, Note_on_c, 0, 54, 47
2, 978000, Note_off_c, 0, 49, 47
2, 978000, Note_on_c, 0, 51, 47
2, 978120, Note_off_c, 0, 54, 47
2, 978120, Note_on_c, 0, 55, 47
2, 978240, Note_off_c, 0, 55, 47
2, 978240, Note_on_c, 0, 54, 47
2, 978240, Note_off_c, 0, 51, 47
2, 978240, Note_on_c, 0, 49, 47
2, 978360, Note_off_c, 0, 54, 47
2, 978360, Note_on_c, 0, 55, 47
2, 978480, Note_off_c, 0, 55, 47
2, 978480, Note_on_c, 0, 54, 47
2, 978480, Note_off_c, 0, 49, 47
2, 978480, Note_on_c, 0, 51, 47
2, 978600, Note_off_c, 0, 54, 47
2, 978600, Note_on_c, 0, 55, 47
2, 978720, Note_off_c, 0, 55, 47
2, 978720, Note_on_c, 0, 54, 47
2, 978720, Note_off_c, 0, 51, 47
2, 978720, Note_on_c, 0, 49, 47
2, 978840, Note_off_c, 0, 54, 47
2, 978840, Note_on_c, 0, 55, 47
2, 978960, Note_off_c, 0, 55, 47
2, 978960, Note_on_c, 0, 54, 47
2, 978960, Note_off_c, 0, 49, 47
2, 978960, Note_on_c, 0, 51, 47
2, 979080, Note_off_c, 0, 54, 47
2, 979080, Note_on_c, 0, 55, 47
2, 979080, Note_on_c, 1, 54, 95
2, 979199, Note_off_c, 0, 55, 47
2, 979199, Note_off_c, 0, 51, 47
2, 979200, Note_off_c, 0, 39, 47
2, 979200, Note_off_c, 1, 54, 95
2, 979200, Note_on_c, 1, 55, 95
2, 979840, Note_off_c, 1, 55, 95
2, 979840, Note_on_c, 0, 61, 95
2, 980480, Note_off_c, 0, 61, 95
2, 980480, Note_on_c, 0, 63, 95
2, 981120, Note_off_c, 0, 63, 95
2, 981120, Note_on_c, 0, 58, 95
2, 981840, Note_off_c, 0, 58, 95
2, 981840, Note_on_c, 1, 56, 95
2, 981960, Pitch_bend_c, 1, 8832
2, 982080, Pitch_bend_c, 1, 9600
2, 982080, Pitch_bend_c, 1, 8192
2, 982080, Note_off_c, 1, 56, 95
2, 982080, Note_on_c, 1, 58, 95
2, 982200, Pitch_bend_c, 1, 7552
2, 982320, Pitch_bend_c, 1, 6784
2, 982320, Pitch_bend_c, 1, 8192
2, 982320, Note_off_c, 1, 58, 95
2, 982320, Note_on_c, 0, 56, 95
2, 982680, Note_off_c, 0, 56, 95
2, 982680, Note_on_c, 0, 54, 70
2, 983040, Note_off_c, 0, 54, 70
2, 983040, Note_on_c, 0, 49, 47
2, 983280, Note_off_c, 0, 49, 47
2, 983280, Note_on_c, 0, 51, 47
2, 983520, Note_off_c, 0, 51, 47
2, 983520, Note_on_c, 0, 49, 47
2, 983760, Note_off_c, 0, 49, 47
2, 983760, Note_on_c, 0, 51, 47
2, 983999, Note_off_c, 0, 51, 47
2, 984000, Note_on_c, 0, 55, 47
2, 984000, Note_on_c, 0, 49, 47
2, 984000, Note_on_c, 0, 46, 47
2, 984960, Note_off_c, 0, 55, 47
2, 984960, Note_off_c, 0, 49, 47
2, 984960, Note_off_c, 0, 46, 47
2, 984960, Note_on_c, 0, 55, 47
2, 984960, Note_on_c, 0, 49, 47
2, 984960, Note_on_c, 0, 46, 47
2, 985920, Note_off_c, 0, 55, 47
2, 985920, Note_off_c, 0, 49, 47
2, 985920, Note_off_c, 0, 46, 47
2, 985920, Note_on_c, 0, 55, 47
2, 985920, Note_on_c, 0, 49, 47
2, 985920, Note_on_c, 0, 46, 47
2, 986880, Note_off_c, 0, 55, 47
2, 986880, Note_off_c, 0, 49, 47
2, 986880, Note_off_c, 0, 46, 47
2, 986880, Note_on_c, 0, 55, 47
2, 986880, Note_on_c, 0, 49, 47
2, 986880, Note_on_c, 0, 46, 47
2, 987840, Note_off_c, 0, 55, 47
2, 987840, Note_off_c, 0, 49, 47
2, 987840, Note_off_c, 0, 46, 47
2, 987840, Note_on_c, 1, 55, 47
2, 987840, Note_on_c, 1, 49, 47
2, 987840, Note_on_c, 1, 46, 47
2, 987960, Pitch_bend_c, 1, 8192
2, 987960, Pitch_bend_c, 1, 8192
2, 987960, Pitch_bend_c, 1, 8064
2, 988080, Pitch_bend_c, 1, 8064
2, 988080, Pitch_bend_c, 1, 8064
2, 988080, Pitch_bend_c, 1, 7936
2, 988200, Pitch_bend_c, 1, 7936
2, 988200, Pitch_bend_c, 1, 7936
2, 988200, Pitch_bend_c, 1, 7680
2, 988320, Pitch_bend_c, 1, 7936
2, 988320, Pitch_bend_c, 1, 7936
2, 988320, Pitch_bend_c, 1, 7552
2, 988440, Pitch_bend_c, 1, 7808
2, 988440, Pitch_bend_c, 1, 7808
2, 988440, Pitch_bend_c, 1, 7424
2, 988560, Pitch_bend_c, 1, 7680
2, 988560, Pitch_bend_c, 1, 7680
2, 988560, Pitch_bend_c, 1, 7168
2, 988680, Pitch_bend_c, 1, 7680
2, 988680, Pitch_bend_c, 1, 7680
2, 988680, Pitch_bend_c, 1, 7040
2, 988800, Pitch_bend_c, 1, 7552
2, 988800, Pitch_bend_c, 1, 8192
2, 988800, Note_off_c, 1, 55, 47
2, 988800, Pitch_bend_c, 1, 7552
2, 988800, Pitch_bend_c, 1, 8192
2, 988800, Note_off_c, 1, 49, 47
2, 988800, Pitch_bend_c, 1, 6784
2, 988800, Pitch_bend_c, 1, 8192
2, 988800, Note_off_c, 1, 46, 47
2, 988800, Note_on_c, 1, 54, 47
2, 988800, Note_on_c, 1, 48, 47
2, 988800, Note_on_c, 1, 44, 47
2, 988920, Pitch_bend_c, 1, 7808
2, 988920, Pitch_bend_c, 1, 8064
2, 988920, Pitch_bend_c, 1, 8192
2, 989040, Pitch_bend_c, 1, 7424
2, 989040, Pitch_bend_c, 1, 7936
2, 989040, Pitch_bend_c, 1, 8064
2, 989160, Pitch_bend_c, 1, 6912
2, 989160, Pitch_bend_c, 1, 7680
2, 989160, Pitch_bend_c, 1, 7936
2, 989280, Pitch_bend_c, 1, 6528
2, 989280, Pitch_bend_c, 1, 7552
2, 989280, Pitch_bend_c, 1, 7936
2, 989400, Pitch_bend_c, 1, 6016
2, 989400, Pitch_bend_c, 1, 7424
2, 989400, Pitch_bend_c, 1, 7808
2, 989520, Pitch_bend_c, 1, 5632
2, 989520, Pitch_bend_c, 1, 7168
2, 989520, Pitch_bend_c, 1, 7680
2, 989640, Pitch_bend_c, 1, 5120
2, 989640, Pitch_bend_c, 1, 7040
2, 989640, Pitch_bend_c, 1, 7680
2, 989760, Pitch_bend_c, 1, 4736
2, 989760, Pitch_bend_c, 1, 8192
2, 989760, Note_off_c, 1, 54, 47
2, 989760, Pitch_bend_c, 1, 6784
2, 989760, Pitch_bend_c, 1, 8192
2, 989760, Note_off_c, 1, 48, 47
2, 989760, Pitch_bend_c, 1, 7552
2, 989760, Pitch_bend_c, 1, 8192
2, 989760, Note_off_c, 1, 44, 47
2, 989760, Note_on_c, 0, 49, 47
2, 989760, Note_on_c, 0, 46, 47
2, 989760, Note_on_c, 0, 43, 47
2, 990720, Note_off_c, 0, 49, 47
2, 990720, Note_off_c, 0, 46, 47
2, 990720, Note_off_c, 0, 43, 47
2, 990720, Note_on_c, 0, 39, 95
2, 991680, Note_off_c, 0, 39, 95
2, 991680, Note_on_c, 0, 63, 95
2, 991680, Note_on_c, 0, 58, 95
2, 992640, Note_off_c, 0, 63, 95
2, 992640, Note_off_c, 0, 58, 95
2, 992640, Note_on_c, 0, 51, 95
2, 993120, Note_off_c, 0, 51, 95
2, 993120, Note_on_c, 1, 39, 95
2, 994560, Note_off_c, 1, 39, 95
2, 994560, Note_on_c, 0, 51, 95
2, 994800, Note_off_c, 0, 51, 95
2, 994800, Note_on_c, 0, 49, 70
2, 995040, Note_off_c, 0, 49, 70
2, 995040, Note_on_c, 0, 65, 95
2, 995040, Note_on_c, 0, 61, 95
2, 995280, Note_off_c, 0, 61, 95
2, 995280, Note_on_c, 0, 59, 95
2, 995520, Note_off_c, 0, 59, 95
2, 995520, Note_on_c, 0, 61, 95
2, 995760, Note_off_c, 0, 61, 95
2, 995760, Note_on_c, 0, 59, 95
2, 995999, Note_off_c, 0, 59, 95
2, 996000, Note_off_c, 0, 65, 95
2, 996000, Note_on_c, 0, 58, 47
2, 996000, Note_on_c, 0, 54, 47
2, 996077, Note_off_c, 0, 58, 47
2, 996077, Note_off_c, 0, 54, 47
2, 996240, Note_on_c, 0, 58, 47
2, 996240, Note_on_c, 0, 54, 47
2, 996317, Note_off_c, 0, 58, 47
2, 996317, Note_off_c, 0, 54, 47
2, 996480, Note_on_c, 0, 58, 47
2, 996480, Note_on_c, 0, 54, 47
2, 996557, Note_off_c, 0, 58, 47
2, 996557, Note_off_c, 0, 54, 47
2, 996720, Note_on_c, 0, 58, 47
2, 996720, Note_on_c, 0, 54, 47
2, 996797, Note_off_c, 0, 58, 47
2, 996797, Note_off_c, 0, 54, 47
2, 996960, Note_on_c, 0, 58, 47
2, 996960, Note_on_c, 0, 54, 47
2, 997037, Note_off_c, 0, 58, 47
2, 997037, Note_off_c, 0, 54, 47
2, 997200, Note_on_c, 0, 58, 47
2, 997200, Note_on_c, 0, 54, 47
2, 997277, Note_off_c, 0, 58, 47
2, 997277, Note_off_c, 0, 54, 47
2, 997440, Note_on_c, 0, 58, 47
2, 997440, Note_on_c, 0, 54, 47
2, 997517, Note_off_c, 0, 58, 47
2, 997517, Note_off_c, 0, 54, 47
2, 997680, Note_on_c, 0, 58, 47
2, 997680, Note_on_c, 0, 54, 47
2, 997757, Note_off_c, 0, 58, 47
2, 997757, Note_off_c, 0, 54, 47
2, 997920, Note_on_c, 0, 67, 47
2, 997920, Note_on_c, 0, 63, 47
2, 998074, Note_off_c, 0, 67, 47
2, 998160, Note_off_c, 0, 63, 47
2, 998160, Note_on_c, 0, 65, 47
2, 998160, Note_on_c, 0, 61, 22
2, 998400, Note_off_c, 0, 65, 47
2, 998400, Note_off_c, 0, 61, 22
2, 998400, Note_on_c, 0, 39, 47
2, 998460, Note_on_c, 0, 46, 47
2, 998520, Note_on_c, 0, 49, 47
2, 998580, Note_on_c, 0, 55, 47
2, 1002240, Note_off_c, 0, 55, 47
2, 1002240, Note_off_c, 0, 49, 47
2, 1002240, Note_off_c, 0, 46, 47
2, 1002240, Note_off_c, 0, 39, 47
2, 1006080, Note_on_c, 0, 61, 95
2, 1006080, Pitch_bend_c, 1, 8192
2, 1006080, Note_on_c, 1, 56, 95
2, 1006429, Pitch_bend_c, 1, 8320
2, 1006778, Pitch_bend_c, 1, 8448
2, 1007127, Pitch_bend_c, 1, 8576
2, 1007476, Pitch_bend_c, 1, 8704
2, 1007825, Pitch_bend_c, 1, 8832
2, 1008174, Pitch_bend_c, 1, 8960
2, 1008523, Pitch_bend_c, 1, 9088
2, 1008872, Pitch_bend_c, 1, 9216
2, 1009221, Pitch_bend_c, 1, 9344
2, 1009570, Pitch_bend_c, 1, 9472
2, 1009919, Pitch_bend_c, 1, 9600
2, 1009920, Pitch_bend_c, 1, 9600
2, 1013760, Note_off_c, 0, 61, 95
2, 1013760, Pitch_bend_c, 1, 9600
2, 1013760, Pitch_bend_c, 1, 8192
2, 1013760, Note_off_c, 1, 56, 95
2, 1013760, Note_on_c, 0, 39, 95
2, 1014720, Note_off_c, 0, 39, 95
2, 1014720, Note_on_c, 0, 49, 47
2, 1014960, Note_off_c, 0, 49, 47
2, 1014960, Note_on_c, 0, 51, 47
2, 1015200, Note_off_c, 0, 51, 47
2, 1015200, Note_on_c, 0, 49, 47
2, 1015440, Note_off_c, 0, 49, 47
2, 1015440, Note_on_c, 0, 51, 47
2, 1015680, Note_off_c, 0, 51, 47
2, 1015680, Note_on_c, 0, 49, 47
2, 1015920, Note_off_c, 0, 49, 47
2, 1015920, Note_on_c, 0, 51, 47
2, 1016160, Note_off_c, 0, 51, 47
2, 1016160, Note_on_c, 0, 49, 47
2, 1016400, Note_off_c, 0, 49, 47
2, 1016400, Note_on_c, 0, 51, 47
2, 1016640, Note_off_c, 0, 51, 47
2, 1016640, Note_on_c, 0, 49, 47
2, 1016880, Note_off_c, 0, 49, 47
2, 1016880, Note_on_c, 0, 51, 47
2, 1017120, Note_off_c, 0, 51, 47
2, 1017120, Note_on_c, 0, 49, 47
2, 1017360, Note_off_c, 0, 49, 47
2, 1017360, Note_on_c, 0, 51, 47
2, 1017599, Note_off_c, 0, 51, 47
2, 1017600, Note_on_c, 0, 49, 47
2, 1017840, Note_off_c, 0, 49, 47
2, 1017840, Note_on_c, 0, 51, 47
2, 1018080, Note_off_c, 0, 51, 47
2, 1018080, Note_on_c, 0, 49, 47
2, 1018320, Note_off_c, 0, 49, 47
2, 1018320, Note_on_c, 0, 51, 47
2, 1018560, Note_off_c, 0, 51, 47
2, 1018560, Note_on_c, 0, 49, 47
2, 1018800, Note_off_c, 0, 49, 47
2, 1018800, Note_on_c, 0, 51, 47
2, 1019040, Note_off_c, 0, 51, 47
2, 1019040, Note_on_c, 0, 49, 47
2, 1019280, Note_off_c, 0, 49, 47
2, 1019280, Note_on_c, 0, 51, 47
2, 1019520, Note_off_c, 0, 51, 47
2, 1019520, Note_on_c, 0, 49, 47
2, 1019760, Note_off_c, 0, 49, 47
2, 1019760, Note_on_c, 0, 51, 47
2, 1020000, Note_off_c, 0, 51, 47
2, 1020000, Note_on_c, 0, 49, 47
2, 1020240, Note_off_c, 0, 49, 47
2, 1020240, Note_on_c, 0, 51, 47
2, 1020480, Note_off_c, 0, 51, 47
2, 1020480, Note_on_c, 0, 49, 47
2, 1020720, Note_off_c, 0, 49, 47
2, 1020720, Note_on_c, 0, 51, 47
2, 1020960, Note_off_c, 0, 51, 47
2, 1020960, Note_on_c, 0, 49, 47
2, 1021200, Note_off_c, 0, 49, 47
2, 1021200, Note_on_c, 0, 51, 47
2, 1021439, Note_off_c, 0, 51, 47
2, 1021920, Pitch_bend_c, 1, 8192
2, 1021920, Note_on_c, 1, 56, 47
2, 1021976, Pitch_bend_c, 1, 8320
2, 1022032, Pitch_bend_c, 1, 8448
2, 1022088, Pitch_bend_c, 1, 8576
2, 1022144, Pitch_bend_c, 1, 8704
2, 1022200, Pitch_bend_c, 1, 8832
2, 1022200, Pitch_bend_c, 1, 8832
2, 1022256, Pitch_bend_c, 1, 8704
2, 1022312, Pitch_bend_c, 1, 8576
2, 1022368, Pitch_bend_c, 1, 8448
2, 1022424, Pitch_bend_c, 1, 8320
2, 1022480, Pitch_bend_c, 1, 8192
2, 1022480, Pitch_bend_c, 1, 8192
2, 1022536, Pitch_bend_c, 1, 8320
2, 1022592, Pitch_bend_c, 1, 8448
2, 1022648, Pitch_bend_c, 1, 8576
2, 1022704, Pitch_bend_c, 1, 8704
2, 1022760, Pitch_bend_c, 1, 8832
2, 1022760, Pitch_bend_c, 1, 8832
2, 1022816, Pitch_bend_c, 1, 8704
2, 1022872, Pitch_bend_c, 1, 8576
2, 1022928, Pitch_bend_c, 1, 8448
2, 1022984, Pitch_bend_c, 1, 8320
2, 1023040, Pitch_bend_c, 1, 8192
2, 1023040, Pitch_bend_c, 1, 8192
2, 1023096, Pitch_bend_c, 1, 8320
2, 1023152, Pitch_bend_c, 1, 8448
2, 1023208, Pitch_bend_c, 1, 8576
2, 1023264, Pitch_bend_c, 1, 8704
2, 1023320, Pitch_bend_c, 1, 8832
2, 1023320, Pitch_bend_c, 1, 8832
2, 1023376, Pitch_bend_c, 1, 8704
2, 1023432, Pitch_bend_c, 1, 8576
2, 1023488, Pitch_bend_c, 1, 8448
2, 1023544, Pitch_bend_c, 1, 8320
2, 1023600, Pitch_bend_c, 1, 8192
2, 1023600, Pitch_bend_c, 1, 8192
2, 1023656, Pitch_bend_c, 1, 8320
2, 1023712, Pitch_bend_c, 1, 8448
2, 1023768, Pitch_bend_c, 1, 8576
2, 1023824, Pitch_bend_c, 1, 8704
2, 1023880, Pitch_bend_c, 1, 8832
2, 1023880, Pitch_bend_c, 1, 8832
2, 1023936, Pitch_bend_c, 1, 8704
2, 1023992, Pitch_bend_c, 1, 8576
2, 1024048, Pitch_bend_c, 1, 8448
2, 1024104, Pitch_bend_c, 1, 8320
2, 1024160, Pitch_bend_c, 1, 8192
2, 1024160, Pitch_bend_c, 1, 8192
2, 1024216, Pitch_bend_c, 1, 8320
2, 1024272, Pitch_bend_c, 1, 8448
2, 1024328, Pitch_bend_c, 1, 8576
2, 1024384, Pitch_bend_c, 1, 8704
2, 1024440, Pitch_bend_c, 1, 8832
2, 1024440, Pitch_bend_c, 1, 8832
2, 1024496, Pitch_bend_c, 1, 8704
2, 1024552, Pitch_bend_c, 1, 8576
2, 1024608, Pitch_bend_c, 1, 8448
2, 1024664, Pitch_bend_c, 1, 8320
2, 1024720, Pitch_bend_c, 1, 8192
2, 1024720, Pitch_bend_c, 1, 8192
2, 1024776, Pitch_bend_c, 1, 8320
2, 1024832, Pitch_bend_c, 1, 8448
2, 1024888, Pitch_bend_c, 1, 8576
2, 1024944, Pitch_bend_c, 1, 8704
2, 1025000, Pitch_bend_c, 1, 8832
2, 1025000, Pitch_bend_c, 1, 8832
2, 1025056, Pitch_bend_c, 1, 8704
2, 1025112, Pitch_bend_c, 1, 8576
2, 1025168, Pitch_bend_c, 1, 8448
2, 1025224, Pitch_bend_c, 1, 8320
2, 1025280, Pitch_bend_c, 1, 8192
2, 1025280, Pitch_bend_c, 1, 8192
2, 1025280, Pitch_bend_c, 1, 8192
2, 1025280, Note_off_c, 1, 56, 47
2, 1025280, Pitch_bend_c, 1, 8192
2, 1025280, Note_on_c, 1, 56, 47
2, 1025344, Pitch_bend_c, 1, 8320
2, 1025408, Pitch_bend_c, 1, 8448
2, 1025472, Pitch_bend_c, 1, 8576
2, 1025536, Pitch_bend_c, 1, 8704
2, 1025600, Pitch_bend_c, 1, 8832
2, 1025600, Pitch_bend_c, 1, 8832
2, 1025664, Pitch_bend_c, 1, 8704
2, 1025728, Pitch_bend_c, 1, 8576
2, 1025792, Pitch_bend_c, 1, 8448
2, 1025856, Pitch_bend_c, 1, 8320
2, 1025920, Pitch_bend_c, 1, 8192
2, 1025920, Pitch_bend_c, 1, 8192
2, 1025984, Pitch_bend_c, 1, 8320
2, 1026048, Pitch_bend_c, 1, 8448
2, 1026112, Pitch_bend_c, 1, 8576
2, 1026176, Pitch_bend_c, 1, 8704
2, 1026240, Pitch_bend_c, 1, 8832
2, 1026240, Pitch_bend_c, 1, 8832
2, 1026304, Pitch_bend_c, 1, 8704
2, 1026368, Pitch_bend_c, 1, 8576
2, 1026432, Pitch_bend_c, 1, 8448
2, 1026496, Pitch_bend_c, 1, 8320
2, 1026560, Pitch_bend_c, 1, 8192
2, 1026560, Pitch_bend_c, 1, 8192
2, 1026624, Pitch_bend_c, 1, 8320
2, 1026688, Pitch_bend_c, 1, 8448
2, 1026752, Pitch_bend_c, 1, 8576
2, 1026816, Pitch_bend_c, 1, 8704
2, 1026880, Pitch_bend_c, 1, 8832
2, 1026880, Pitch_bend_c, 1, 8832
2, 1026944, Pitch_bend_c, 1, 8704
2, 1027008, Pitch_bend_c, 1, 8576
2, 1027072, Pitch_bend_c, 1, 8448
2, 1027136, Pitch_bend_c, 1, 8320
2, 1027200, Pitch_bend_c, 1, 8192
2, 1027200, Pitch_bend_c, 1, 8192
2, 1027264, Pitch_bend_c, 1, 8320
2, 1027328, Pitch_bend_c, 1, 8448
2, 1027392, Pitch_bend_c, 1, 8576
2, 1027456, Pitch_bend_c, 1, 8704
2, 1027520, Pitch_bend_c, 1, 8832
2, 1027520, Pitch_bend_c, 1, 8832
2, 1027584, Pitch_bend_c, 1, 8704
2, 1027648, Pitch_bend_c, 1, 8576
2, 1027712, Pitch_bend_c, 1, 8448
2, 1027776, Pitch_bend_c, 1, 8320
2, 1027840, Pitch_bend_c, 1, 8192
2, 1027840, Pitch_bend_c, 1, 8192
2, 1027968, Pitch_bend_c, 1, 8320
2, 1028096, Pitch_bend_c, 1, 8448
2, 1028224, Pitch_bend_c, 1, 8576
2, 1028352, Pitch_bend_c, 1, 8704
2, 1028480, Pitch_bend_c, 1, 8832
2, 1028480, Pitch_bend_c, 1, 8832
2, 1029120, Pitch_bend_c, 1, 8832
2, 1029120, Pitch_bend_c, 1, 8192
2, 1029120, Note_off_c, 1, 56, 47
2, 1029120, Note_on_c, 0, 49, 47
2, 1030080, Note_off_c, 0, 49, 47
2, 1030080, Note_on_c, 0, 51, 22
2, 1031040, Note_off_c, 0, 51, 22
2, 1031040, Note_on_c, 0, 39, 47
2, 1032960, Note_off_c, 0, 39, 47
2, 1032960, Note_on_c, 0, 39, 47
2, 1033920, Note_off_c, 0, 39, 47
2, 1033920, Note_on_c, 0, 63, 95
2, 1034040, Note_on_c, 0, 58, 95
2, 1034160, Note_on_c, 0, 55, 95
2, 1034280, Note_on_c, 0, 49, 95
2, 1034400, Note_on_c, 0, 46, 95
2, 1034520, Note_on_c, 0, 39, 95
2, 1034880, Note_off_c, 0, 63, 95
2, 1034880, Note_off_c, 0, 58, 95
2, 1034880, Note_off_c, 0, 55, 95
2, 1034880, Note_off_c, 0, 49, 95
2, 1034880, Note_off_c, 0, 46, 95
2, 1034880, Note_off_c, 0, 39, 95
2, 1034880, Note_on_c, 0, 58, 95
2, 1034880, Pitch_bend_c, 1, 8192
2, 1034880, Note_on_c, 1, 56, 95
2, 1034901, Pitch_bend_c, 1, 8320
2, 1034922, Pitch_bend_c, 1, 8448
2, 1034943, Pitch_bend_c, 1, 8576
2, 1034964, Pitch_bend_c, 1, 8704
2, 1034985, Pitch_bend_c, 1, 8832
2, 1035006, Pitch_bend_c, 1, 8960
2, 1035027, Pitch_bend_c, 1, 9088
2, 1035048, Pitch_bend_c, 1, 9216
2, 1035069, Pitch_bend_c, 1, 9344
2, 1035090, Pitch_bend_c, 1, 9472
2, 1035111, Pitch_bend_c, 1, 9600
2, 1035120, Pitch_bend_c, 1, 9600
2, 1035360, Note_off_c, 0, 58, 95
2, 1035360, Pitch_bend_c, 1, 9600
2, 1035360, Pitch_bend_c, 1, 8192
2, 1035360, Note_off_c, 1, 56, 95
2, 1035360, Note_on_c, 0, 56, 95
2, 1035600, Note_off_c, 0, 56, 95
2, 1035600, Note_on_c, 0, 54, 70
2, 1035840, Note_off_c, 0, 54, 70
2, 1035840, Note_on_c, 0, 51, 95
2, 1036800, Note_off_c, 0, 51, 95
2, 1036800, Note_on_c, 0, 49, 95
2, 1036800, Note_on_c, 0, 46, 95
2, 1036800, Note_on_c, 0, 39, 95
2, 1037760, Note_off_c, 0, 49, 95
2, 1037760, Note_off_c, 0, 46, 95
2, 1037760, Note_off_c, 0, 39, 95
2, 1037760, Note_on_c, 0, 63, 95
2, 1037760, Note_on_c, 0, 58, 95
2, 1038720, Note_off_c, 0, 63, 95
2, 1038720, Note_off_c, 0, 58, 95
2, 1038720, Pitch_bend_c, 1, 8192
2, 1038720, Note_on_c, 1, 42, 95
2, 1038960, Pitch_bend_c, 1, 8320
2, 1039200, Pitch_bend_c, 1, 8448
2, 1039200, Pitch_bend_c, 1, 8448
2, 1039560, Note_on_c, 1, 49, 95
2, 1039680, Pitch_bend_c, 1, 8448
2, 1039680, Pitch_bend_c, 1, 8192
2, 1039680, Note_off_c, 1, 42, 95
2, 1039680, Note_off_c, 1, 49, 95
2, 1039680, Note_on_c, 1, 51, 95
2, 1040520, Note_on_c, 1, 49, 95
2, 1040640, Note_off_c, 1, 51, 95
2, 1040640, Note_off_c, 1, 49, 95
2, 1040640, Note_on_c, 1, 51, 95
2, 1040640, Note_on_c, 0, 39, 95
2, 1041600, Note_off_c, 1, 51, 95
2, 1041600, Note_off_c, 0, 39, 95
2, 1041600, Note_on_c, 0, 58, 95
2, 1041600, Note_on_c, 0, 55, 95
2, 1041600, Note_on_c, 0, 49, 95
2, 1041600, Note_on_c, 0, 46, 95
2, 1042560, Note_off_c, 0, 58, 95
2, 1042560, Note_off_c, 0, 55, 95
2, 1042560, Note_off_c, 0, 49, 95
2, 1042560, Note_off_c, 0, 46, 95
2, 1042560, Note_on_c, 0, 58, 95
2, 1042560, Note_on_c, 0, 55, 95
2, 1042560, Note_on_c, 0, 49, 95
2, 1042560, Note_on_c, 0, 46, 95
2, 1043520, Note_off_c, 0, 58, 95
2, 1043520, Note_off_c, 0, 55, 95
2, 1043520, Note_off_c, 0, 49, 95
2, 1043520, Note_off_c, 0, 46, 95
2, 1043520, Note_on_c, 0, 58, 95
2, 1043520, Note_on_c, 0, 55, 95
2, 1043520, Note_on_c, 0, 49, 95
2, 1043520, Note_on_c, 0, 46, 95
2, 1044480, Note_off_c, 0, 58, 95
2, 1044480, Note_off_c, 0, 55, 95
2, 1044480, Note_off_c, 0, 49, 95
2, 1044480, Note_off_c, 0, 46, 95
2, 1044480, Note_on_c, 0, 58, 95
2, 1044480, Note_on_c, 0, 55, 95
2, 1044480, Note_on_c, 0, 49, 95
2, 1044480, Note_on_c, 0, 46, 95
2, 1044960, Note_off_c, 0, 58, 95
2, 1044960, Note_off_c, 0, 55, 95
2, 1044960, Note_off_c, 0, 49, 95
2, 1044960, Note_off_c, 0, 46, 95
2, 1052160, Note_on_c, 0, 39, 95
2, 1053120, Note_off_c, 0, 39, 95
2, 1053120, Note_on_c, 0, 63, 95
2, 1053120, Note_on_c, 0, 58, 95
2, 1053120, Note_on_c, 0, 55, 95
2, 1054080, Note_off_c, 0, 63, 95
2, 1054080, Note_off_c, 0, 58, 95
2, 1054080, Note_off_c, 0, 55, 95
2, 1054080, Note_on_c, 0, 55, 95
2, 1054400, Note_off_c, 0, 55, 95
2, 1054400, Note_on_c, 1, 56, 70
2, 1054560, Pitch_bend_c, 1, 8832
2, 1054720, Pitch_bend_c, 1, 9600
2, 1054720, Pitch_bend_c, 1, 8192
2, 1054720, Note_off_c, 1, 56, 70
2, 1054720, Note_on_c, 0, 58, 95
2, 1055040, Note_off_c, 0, 58, 95
2, 1055040, Note_on_c, 0, 67, 95
2, 1055040, Note_on_c, 0, 61, 95
2, 1055040, Note_on_c, 0, 58, 95
2, 1055520, Note_off_c, 0, 67, 95
2, 1055520, Note_off_c, 0, 61, 95
2, 1055520, Note_off_c, 0, 58, 95
2, 1055520, Note_on_c, 0, 67, 95
2, 1055520, Note_on_c, 0, 61, 95
2, 1055520, Note_on_c, 0, 58, 95
2, 1056000, Note_off_c, 0, 67, 95
2, 1056000, Note_off_c, 0, 61, 95
2, 1056000, Note_off_c, 0, 58, 95
2, 1056000, Note_on_c, 1, 67, 95
2, 1056000, Note_on_c, 1, 61, 95
2, 1056000, Note_on_c, 1, 58, 95
2, 1056120, Pitch_bend_c, 1, 8064
2, 1056120, Pitch_bend_c, 1, 7936
2, 1056120, Pitch_bend_c, 1, 8064
2, 1056240, Pitch_bend_c, 1, 7936
2, 1056240, Pitch_bend_c, 1, 7680
2, 1056240, Pitch_bend_c, 1, 7936
2, 1056360, Pitch_bend_c, 1, 7680
2, 1056360, Pitch_bend_c, 1, 7424
2, 1056360, Pitch_bend_c, 1, 7680
2, 1056480, Pitch_bend_c, 1, 7552
2, 1056480, Pitch_bend_c, 1, 7168
2, 1056480, Pitch_bend_c, 1, 7552
2, 1056600, Pitch_bend_c, 1, 7424
2, 1056600, Pitch_bend_c, 1, 6912
2, 1056600, Pitch_bend_c, 1, 7424
2, 1056720, Pitch_bend_c, 1, 7168
2, 1056720, Pitch_bend_c, 1, 6656
2, 1056720, Pitch_bend_c, 1, 7168
2, 1056840, Pitch_bend_c, 1, 7040
2, 1056840, Pitch_bend_c, 1, 6400
2, 1056840, Pitch_bend_c, 1, 7040
2, 1056960, Pitch_bend_c, 1, 6784
2, 1056960, Pitch_bend_c, 1, 8192
2, 1056960, Note_off_c, 1, 67, 95
2, 1056960, Pitch_bend_c, 1, 6144
2, 1056960, Pitch_bend_c, 1, 8192
2, 1056960, Note_off_c, 1, 61, 95
2, 1056960, Pitch_bend_c, 1, 6784
2, 1056960, Pitch_bend_c, 1, 8192
2, 1056960, Note_off_c, 1, 58, 95
2, 1056960, Note_on_c, 0, 65, 95
2, 1056960, Note_on_c, 0, 58, 95
2, 1056960, Note_on_c, 0, 56, 95
2, 1057440, Note_off_c, 0, 65, 95
2, 1057440, Note_off_c, 0, 58, 95
2, 1057440, Note_off_c, 0, 56, 95
2, 1057440, Note_on_c, 0, 65, 95
2, 1057440, Note_on_c, 0, 58, 95
2, 1057440, Note_on_c, 0, 56, 95
2, 1057920, Note_off_c, 0, 65, 95
2, 1057920, Note_off_c, 0, 58, 95
2, 1057920, Note_off_c, 0, 56, 95
2, 1057920, Note_on_c, 0, 63, 95
2, 1057920, Note_on_c, 0, 58, 95
2, 1057920, Note_on_c, 0, 55, 95
2, 1058880, Note_off_c, 0, 55, 95
2, 1058880, Note_on_c, 0, 58, 95
2, 1059120, Note_off_c, 0, 58, 95
2, 1059120, Note_on_c, 0, 56, 70
2, 1059360, Note_off_c, 0, 56, 70
2, 1059360, Note_on_c, 0, 54, 70
2, 1059600, Note_off_c, 0, 54, 70
2, 1059600, Note_on_c, 0, 51, 95
2, 1059840, Note_off_c, 0, 63, 95
2, 1059840, Note_off_c, 0, 58, 95
2, 1059840, Note_off_c, 0, 51, 95
2, 1059840, Note_on_c, 0, 49, 95
2, 1059840, Note_on_c, 0, 46, 95
2, 1059840, Note_on_c, 0, 39, 95
2, 1060800, Note_off_c, 0, 49, 95
2, 1060800, Note_off_c, 0, 46, 95
2, 1060800, Note_off_c, 0, 39, 95
2, 1060800, Note_on_c, 0, 49, 95
2, 1060800, Note_on_c, 0, 46, 95
2, 1060800, Note_on_c, 0, 39, 95
2, 1061760, Note_off_c, 0, 49, 95
2, 1061760, Note_off_c, 0, 46, 95
2, 1061760, Note_off_c, 0, 39, 95
2, 1061760, Note_on_c, 0, 63, 95
2, 1061760, Note_on_c, 0, 58, 95
2, 1061760, Note_on_c, 0, 55, 95
2, 1061760, Note_on_c, 0, 49, 95
2, 1062720, Note_off_c, 0, 63, 95
2, 1062720, Note_off_c, 0, 58, 95
2, 1062720, Note_off_c, 0, 55, 95
2, 1062720, Note_off_c, 0, 49, 95
2, 1062720, Note_on_c, 0, 63, 95
2, 1062720, Note_on_c, 0, 58, 95
2, 1062720, Note_on_c, 0, 55, 95
2, 1062720, Note_on_c, 0, 49, 95
2, 1063680, Note_off_c, 0, 63, 95
2, 1063680, Note_off_c, 0, 58, 95
2, 1063680, Note_off_c, 0, 55, 95
2, 1063680, Note_off_c, 0, 49, 95
2, 1063680, Note_on_c, 0, 49, 95
2, 1063680, Note_on_c, 0, 46, 95
2, 1063680, Note_on_c, 0, 39, 95
2, 1064640, Note_off_c, 0, 49, 95
2, 1064640, Note_off_c, 0, 46, 95
2, 1064640, Note_off_c, 0, 39, 95
2, 1064640, Note_on_c, 0, 49, 95
2, 1064640, Note_on_c, 0, 46, 95
2, 1064640, Note_on_c, 0, 39, 95
2, 1065600, Note_off_c, 0, 49, 95
2, 1065600, Note_off_c, 0, 46, 95
2, 1065600, Note_off_c, 0, 39, 95
2, 1065600, Note_on_c, 0, 63, 95
2, 1065600, Note_on_c, 0, 58, 95
2, 1065600, Note_on_c, 0, 55, 95
2, 1065600, Note_on_c, 0, 49, 95
2, 1066560, Note_off_c, 0, 63, 95
2, 1066560, Note_off_c, 0, 58, 95
2, 1066560, Note_off_c, 0, 55, 95
2, 1066560, Note_off_c, 0, 49, 95
2, 1066560, Note_on_c, 0, 63, 95
2, 1066560, Note_on_c, 0, 58, 95
2, 1066560, Note_on_c, 0, 55, 95
2, 1066560, Note_on_c, 0, 49, 95
2, 1067520, Note_off_c, 0, 58, 95
2, 1067520, Note_off_c, 0, 55, 95
2, 1067520, Note_off_c, 0, 49, 95
2, 1067520, Note_on_c, 0, 56, 95
2, 1067520, Note_on_c, 0, 49, 95
2, 1068480, Note_off_c, 0, 56, 95
2, 1068480, Note_off_c, 0, 49, 95
2, 1068480, Note_on_c, 0, 61, 95
2, 1068480, Note_on_c, 0, 56, 95
2, 1069440, Note_off_c, 0, 61, 95
2, 1069440, Note_off_c, 0, 56, 95
2, 1069440, Note_on_c, 0, 56, 95
2, 1069440, Note_on_c, 0, 49, 95
2, 1070400, Note_off_c, 0, 56, 95
2, 1070400, Note_off_c, 0, 49, 95
2, 1070400, Note_on_c, 0, 61, 95
2, 1070400, Note_on_c, 0, 56, 95
2, 1071360, Note_off_c, 0, 61, 95
2, 1071360, Note_off_c, 0, 56, 95
2, 1071360, Note_on_c, 0, 56, 95
2, 1071360, Note_on_c, 0, 49, 95
2, 1072320, Note_off_c, 0, 56, 95
2, 1072320, Note_off_c, 0, 49, 95
2, 1072320, Note_on_c, 0, 61, 95
2, 1072320, Note_on_c, 0, 56, 95
2, 1073280, Note_off_c, 0, 61, 95
2, 1073280, Note_off_c, 0, 56, 95
2, 1073280, Note_on_c, 0, 61, 95
2, 1073280, Note_on_c, 0, 58, 95
2, 1073280, Note_on_c, 0, 49, 95
2, 1073760, Note_off_c, 0, 61, 95
2, 1073760, Note_off_c, 0, 58, 95
2, 1073760, Note_off_c, 0, 49, 95
2, 1073760, Note_on_c, 0, 61, 95
2, 1073760, Note_on_c, 0, 56, 95
2, 1073760, Note_on_c, 0, 49, 95
2, 1074240, Note_off_c, 0, 61, 95
2, 1074240, Note_off_c, 0, 56, 95
2, 1074240, Note_off_c, 0, 49, 95
2, 1074240, Note_on_c, 0, 61, 95
2, 1074240, Note_on_c, 0, 56, 95
2, 1074240, Note_on_c, 0, 52, 95
2, 1074720, Note_off_c, 0, 61, 95
2, 1074720, Note_off_c, 0, 56, 95
2, 1074720, Note_off_c, 0, 52, 95
2, 1074720, Note_on_c, 0, 61, 95
2, 1074720, Note_on_c, 0, 56, 95
2, 1074720, Note_on_c, 0, 53, 95
2, 1075200, Note_off_c, 0, 61, 95
2, 1075200, Note_off_c, 0, 56, 95
2, 1075200, Note_off_c, 0, 53, 95
2, 1075200, Note_on_c, 0, 54, 95
2, 1075200, Note_on_c, 0, 49, 95
2, 1075200, Note_on_c, 0, 42, 95
2, 1076160, Note_off_c, 0, 54, 95
2, 1076160, Note_off_c, 0, 49, 95
2, 1076160, Note_off_c, 0, 42, 95
2, 1076160, Note_on_c, 0, 54, 95
2, 1076160, Note_on_c, 0, 49, 95
2, 1076160, Note_on_c, 0, 42, 95
2, 1076640, Note_off_c, 0, 54, 95
2, 1076640, Note_off_c, 0, 49, 95
2, 1076640, Note_off_c, 0, 42, 95
2, 1076640, Note_on_c, 0, 54, 95
2, 1076640, Note_on_c, 0, 49, 95
2, 1076640, Note_on_c, 0, 42, 95
2, 1077120, Note_off_c, 0, 54, 95
2, 1077120, Note_off_c, 0, 49, 95
2, 1077120, Note_off_c, 0, 42, 95
2, 1077120, Note_on_c, 0, 54, 95
2, 1077120, Note_on_c, 0, 49, 95
2, 1077120, Note_on_c, 0, 42, 95
2, 1077600, Note_off_c, 0, 54, 95
2, 1077600, Note_off_c, 0, 49, 95
2, 1077600, Note_off_c, 0, 42, 95
2, 1077600, Note_on_c, 0, 54, 95
2, 1077600, Note_on_c, 0, 49, 95
2, 1077600, Note_on_c, 0, 42, 95
2, 1078080, Note_off_c, 0, 54, 95
2, 1078080, Note_off_c, 0, 49, 95
2, 1078080, Note_off_c, 0, 42, 95
2, 1078080, Note_on_c, 0, 54, 95
2, 1078080, Note_on_c, 0, 49, 95
2, 1078080, Note_on_c, 0, 42, 95
2, 1078560, Note_off_c, 0, 54, 95
2, 1078560, Note_off_c, 0, 49, 95
2, 1078560, Note_off_c, 0, 42, 95
2, 1078560, Note_on_c, 1, 54, 95
2, 1078560, Note_on_c, 1, 49, 95
2, 1078560, Note_on_c, 1, 42, 95
2, 1078680, Pitch_bend_c, 1, 8448
2, 1078680, Pitch_bend_c, 1, 8448
2, 1078680, Pitch_bend_c, 1, 8448
2, 1078800, Pitch_bend_c, 1, 8832
2, 1078800, Pitch_bend_c, 1, 8832
2, 1078800, Pitch_bend_c, 1, 8832
2, 1078920, Pitch_bend_c, 1, 9216
2, 1078920, Pitch_bend_c, 1, 9216
2, 1078920, Pitch_bend_c, 1, 9216
2, 1079040, Pitch_bend_c, 1, 9600
2, 1079040, Pitch_bend_c, 1, 8192
2, 1079040, Note_off_c, 1, 54, 95
2, 1079040, Pitch_bend_c, 1, 9600
2, 1079040, Pitch_bend_c, 1, 8192
2, 1079040, Note_off_c, 1, 49, 95
2, 1079040, Pitch_bend_c, 1, 9600
2, 1079040, Pitch_bend_c, 1, 8192
2, 1079040, Note_off_c, 1, 42, 95
2, 1079040, Note_on_c, 0, 56, 95
2, 1079040, Note_on_c, 0, 51, 95
2, 1079040, Note_on_c, 0, 44, 95
2, 1079360, Note_off_c, 0, 56, 95
2, 1079360, Note_off_c, 0, 51, 95
2, 1079360, Note_off_c, 0, 44, 95
2, 1079360, Note_on_c, 0, 56, 95
2, 1079360, Note_on_c, 0, 51, 95
2, 1079360, Note_on_c, 0, 44, 95
2, 1079680, Note_off_c, 0, 56, 95
2, 1079680, Note_off_c, 0, 51, 95
2, 1079680, Note_off_c, 0, 44, 95
2, 1079680, Note_on_c, 0, 56, 95
2, 1079680, Note_on_c, 0, 51, 95
2, 1079680, Note_on_c, 0, 44, 95
2, 1080000, Note_off_c, 0, 56, 95
2, 1080000, Note_off_c, 0, 51, 95
2, 1080000, Note_off_c, 0, 44, 95
2, 1080000, Note_on_c, 0, 56, 95
2, 1080000, Note_on_c, 0, 51, 95
2, 1080000, Note_on_c, 0, 44, 95
2, 1080320, Note_off_c, 0, 56, 95
2, 1080320, Note_off_c, 0, 51, 95
2, 1080320, Note_off_c, 0, 44, 95
2, 1080320, Note_on_c, 0, 56, 95
2, 1080320, Note_on_c, 0, 51, 95
2, 1080320, Note_on_c, 0, 44, 95
2, 1080640, Note_off_c, 0, 56, 95
2, 1080640, Note_off_c, 0, 51, 95
2, 1080640, Note_off_c, 0, 44, 95
2, 1080640, Note_on_c, 0, 56, 95
2, 1080640, Note_on_c, 0, 51, 95
2, 1080640, Note_on_c, 0, 44, 95
2, 1080960, Note_off_c, 0, 56, 95
2, 1080960, Note_off_c, 0, 51, 95
2, 1080960, Note_off_c, 0, 44, 95
2, 1080960, Pitch_bend_c, 1, 8192
2, 1080960, Note_on_c, 1, 56, 95
2, 1080976, Pitch_bend_c, 1, 8320
2, 1080992, Pitch_bend_c, 1, 8448
2, 1081008, Pitch_bend_c, 1, 8576
2, 1081024, Pitch_bend_c, 1, 8704
2, 1081040, Pitch_bend_c, 1, 8832
2, 1081056, Pitch_bend_c, 1, 8960
2, 1081072, Pitch_bend_c, 1, 9088
2, 1081088, Pitch_bend_c, 1, 9216
2, 1081104, Pitch_bend_c, 1, 9344
2, 1081120, Pitch_bend_c, 1, 9472
2, 1081136, Pitch_bend_c, 1, 9600
2, 1081140, Pitch_bend_c, 1, 9600
2, 1081320, Pitch_bend_c, 1, 9600
2, 1081336, Pitch_bend_c, 1, 9472
2, 1081352, Pitch_bend_c, 1, 9344
2, 1081368, Pitch_bend_c, 1, 9216
2, 1081384, Pitch_bend_c, 1, 9088
2, 1081400, Pitch_bend_c, 1, 8960
2, 1081416, Pitch_bend_c, 1, 8832
2, 1081432, Pitch_bend_c, 1, 8704
2, 1081448, Pitch_bend_c, 1, 8576
2, 1081464, Pitch_bend_c, 1, 8448
2, 1081480, Pitch_bend_c, 1, 8320
2, 1081496, Pitch_bend_c, 1, 8192
2, 1081500, Pitch_bend_c, 1, 8192
2, 1081680, Pitch_bend_c, 1, 8192
2, 1081680, Pitch_bend_c, 1, 8192
2, 1081680, Note_off_c, 1, 56, 95
2, 1081680, Note_on_c, 0, 54, 95
2, 1081920, Note_off_c, 0, 54, 95
2, 1081920, Note_on_c, 0, 51, 95
2, 1082880, Note_off_c, 0, 51, 95
2, 1082880, Pitch_bend_c, 1, 8192
2, 1082880, Note_on_c, 1, 56, 95
2, 1082894, Pitch_bend_c, 1, 8320
2, 1082908, Pitch_bend_c, 1, 8448
2, 1082922, Pitch_bend_c, 1, 8576
2, 1082936, Pitch_bend_c, 1, 8704
2, 1082950, Pitch_bend_c, 1, 8832
2, 1082964, Pitch_bend_c, 1, 8960
2, 1082978, Pitch_bend_c, 1, 9088
2, 1082992, Pitch_bend_c, 1, 9216
2, 1083006, Pitch_bend_c, 1, 9344
2, 1083020, Pitch_bend_c, 1, 9472
2, 1083034, Pitch_bend_c, 1, 9600
2, 1083040, Pitch_bend_c, 1, 9600
2, 1083200, Pitch_bend_c, 1, 9600
2, 1083214, Pitch_bend_c, 1, 9472
2, 1083228, Pitch_bend_c, 1, 9344
2, 1083242, Pitch_bend_c, 1, 9216
2, 1083256, Pitch_bend_c, 1, 9088
2, 1083270, Pitch_bend_c, 1, 8960
2, 1083284, Pitch_bend_c, 1, 8832
2, 1083298, Pitch_bend_c, 1, 8704
2, 1083312, Pitch_bend_c, 1, 8576
2, 1083326, Pitch_bend_c, 1, 8448
2, 1083340, Pitch_bend_c, 1, 8320
2, 1083354, Pitch_bend_c, 1, 8192
2, 1083360, Pitch_bend_c, 1, 8192
2, 1083520, Pitch_bend_c, 1, 8192
2, 1083520, Pitch_bend_c, 1, 8192
2, 1083520, Note_off_c, 1, 56, 95
2, 1083520, Note_on_c, 0, 54, 95
2, 1083840, Note_off_c, 0, 54, 95
2, 1083840, Note_on_c, 0, 51, 95
2, 1084800, Note_off_c, 0, 51, 95
2, 1084800, Pitch_bend_c, 1, 8192
2, 1084800, Note_on_c, 1, 54, 95
2, 1084829, Pitch_bend_c, 1, 8320
2, 1084858, Pitch_bend_c, 1, 8448
2, 1084887, Pitch_bend_c, 1, 8576
2, 1084916, Pitch_bend_c, 1, 8704
2, 1084945, Pitch_bend_c, 1, 8832
2, 1084974, Pitch_bend_c, 1, 8960
2, 1085003, Pitch_bend_c, 1, 9088
2, 1085032, Pitch_bend_c, 1, 9216
2, 1085061, Pitch_bend_c, 1, 9344
2, 1085090, Pitch_bend_c, 1, 9472
2, 1085119, Pitch_bend_c, 1, 9600
2, 1085120, Pitch_bend_c, 1, 9600
2, 1085440, Pitch_bend_c, 1, 9600
2, 1085440, Pitch_bend_c, 1, 8192
2, 1085440, Note_off_c, 1, 54, 95
2, 1085440, Note_on_c, 0, 51, 95
2, 1086720, Note_off_c, 0, 51, 95
2, 1086720, Note_on_c, 0, 46, 95
2, 1086720, Note_on_c, 0, 39, 95
2, 1087680, Note_off_c, 0, 46, 95
2, 1087680, Note_off_c, 0, 39, 95
2, 1087680, Note_on_c, 0, 58, 95
2, 1087680, Note_on_c, 0, 55, 95
2, 1087680, Note_on_c, 0, 49, 95
2, 1088640, Note_off_c, 0, 58, 95
2, 1088640, Note_off_c, 0, 55, 95
2, 1088640, Note_off_c, 0, 49, 95
2, 1088640, Note_on_c, 0, 58, 95
2, 1088640, Pitch_bend_c, 1, 8192
2, 1088640, Note_on_c, 1, 56, 95
2, 1088727, Pitch_bend_c, 1, 8320
2, 1088814, Pitch_bend_c, 1, 8448
2, 1088901, Pitch_bend_c, 1, 8576
2, 1088988, Pitch_bend_c, 1, 8704
2, 1089075, Pitch_bend_c, 1, 8832
2, 1089162, Pitch_bend_c, 1, 8960
2, 1089249, Pitch_bend_c, 1, 9088
2, 1089336, Pitch_bend_c, 1, 9216
2, 1089423, Pitch_bend_c, 1, 9344
2, 1089510, Pitch_bend_c, 1, 9472
2, 1089597, Pitch_bend_c, 1, 9600
2, 1089600, Pitch_bend_c, 1, 9600
2, 1090560, Note_off_c, 0, 58, 95
2, 1090560, Pitch_bend_c, 1, 9600
2, 1090560, Pitch_bend_c, 1, 8192
2, 1090560, Note_off_c, 1, 56, 95
2, 1090560, Note_on_c, 0, 58, 95
2, 1090560, Pitch_bend_c, 1, 9600
2, 1090560, Note_on_c, 1, 56, 95
2, 1090800, Pitch_bend_c, 1, 9600
2, 1090821, Pitch_bend_c, 1, 9472
2, 1090842, Pitch_bend_c, 1, 9344
2, 1090863, Pitch_bend_c, 1, 9216
2, 1090884, Pitch_bend_c, 1, 9088
2, 1090905, Pitch_bend_c, 1, 8960
2, 1090926, Pitch_bend_c, 1, 8832
2, 1090947, Pitch_bend_c, 1, 8704
2, 1090968, Pitch_bend_c, 1, 8576
2, 1090989, Pitch_bend_c, 1, 8448
2, 1091010, Pitch_bend_c, 1, 8320
2, 1091031, Pitch_bend_c, 1, 8192
2, 1091040, Pitch_bend_c, 1, 8192
2, 1091280, Note_off_c, 0, 63, 95
2, 1091280, Note_off_c, 0, 58, 95
2, 1091280, Pitch_bend_c, 1, 8192
2, 1091280, Pitch_bend_c, 1, 8192
2, 1091280, Note_off_c, 1, 56, 95
2, 1091280, Note_on_c, 0, 51, 95
2, 1091520, Note_off_c, 0, 51, 95
2, 1091520, Note_on_c, 0, 58, 95
2, 1091520, Pitch_bend_c, 1, 8192
2, 1091520, Note_on_c, 1, 56, 95
2, 1091536, Pitch_bend_c, 1, 8320
2, 1091552, Pitch_bend_c, 1, 8448
2, 1091568, Pitch_bend_c, 1, 8576
2, 1091584, Pitch_bend_c, 1, 8704
2, 1091600, Pitch_bend_c, 1, 8832
2, 1091616, Pitch_bend_c, 1, 8960
2, 1091632, Pitch_bend_c, 1, 9088
2, 1091648, Pitch_bend_c, 1, 9216
2, 1091664, Pitch_bend_c, 1, 9344
2, 1091680, Pitch_bend_c, 1, 9472
2, 1091696, Pitch_bend_c, 1, 9600
2, 1091700, Pitch_bend_c, 1, 9600
2, 1091880, Pitch_bend_c, 1, 9600
2, 1091896, Pitch_bend_c, 1, 9472
2, 1091912, Pitch_bend_c, 1, 9344
2, 1091928, Pitch_bend_c, 1, 9216
2, 1091944, Pitch_bend_c, 1, 9088
2, 1091960, Pitch_bend_c, 1, 8960
2, 1091976, Pitch_bend_c, 1, 8832
2, 1091992, Pitch_bend_c, 1, 8704
2, 1092008, Pitch_bend_c, 1, 8576
2, 1092024, Pitch_bend_c, 1, 8448
2, 1092040, Pitch_bend_c, 1, 8320
2, 1092056, Pitch_bend_c, 1, 8192
2, 1092060, Pitch_bend_c, 1, 8192
2, 1092240, Note_off_c, 0, 58, 95
2, 1092240, Pitch_bend_c, 1, 8192
2, 1092240, Pitch_bend_c, 1, 8192
2, 1092240, Note_off_c, 1, 56, 95
2, 1092240, Note_on_c, 0, 58, 95
2, 1092240, Note_on_c, 0, 54, 95
2, 1092480, Note_off_c, 0, 58, 95
2, 1092480, Note_off_c, 0, 54, 95
2, 1092480, Note_on_c, 0, 39, 95
2, 1093440, Note_off_c, 0, 39, 95
2, 1093440, Note_on_c, 0, 63, 95
2, 1093440, Note_on_c, 0, 58, 95
2, 1093440, Note_on_c, 0, 55, 95
2, 1093440, Note_on_c, 0, 49, 95
2, 1098240, Note_off_c, 0, 63, 95
2, 1098240, Note_off_c, 0, 58, 95
2, 1098240, Note_off_c, 0, 55, 95
2, 1098240, Note_off_c, 0, 49, 95
2, 1098240, Note_on_c, 0, 63, 95
2, 1098240, Note_on_c, 0, 63, 95
2, 1098240, Pitch_bend_c, 1, 8192
2, 1098240, Note_on_c, 1, 61, 95
2, 1098261, Pitch_bend_c, 1, 8320
2, 1098282, Pitch_bend_c, 1, 8448
2, 1098303, Pitch_bend_c, 1, 8576
2, 1098324, Pitch_bend_c, 1, 8704
2, 1098345, Pitch_bend_c, 1, 8832
2, 1098366, Pitch_bend_c, 1, 8960
2, 1098387, Pitch_bend_c, 1, 9088
2, 1098408, Pitch_bend_c, 1, 9216
2, 1098429, Pitch_bend_c, 1, 9344
2, 1098450, Pitch_bend_c, 1, 9472
2, 1098471, Pitch_bend_c, 1, 9600
2, 1098480, Pitch_bend_c, 1, 9600
2, 1098720, Note_off_c, 0, 63, 95
2, 1098720, Note_off_c, 0, 63, 95
2, 1098720, Pitch_bend_c, 1, 9600
2, 1098720, Pitch_bend_c, 1, 8192
2, 1098720, Note_off_c, 1, 61, 95
2, 1098720, Note_on_c, 0, 63, 95
2, 1098720, Note_on_c, 0, 63, 95
2, 1098720, Pitch_bend_c, 1, 9600
2, 1098720, Note_on_c, 1, 61, 95
2, 1099680, Note_off_c, 0, 63, 95
2, 1099680, Note_off_c, 0, 63, 95
2, 1099680, Pitch_bend_c, 1, 9600
2, 1099680, Pitch_bend_c, 1, 8192
2, 1099680, Note_off_c, 1, 61, 95
2, 1099680, Note_on_c, 0, 63, 95
2, 1099680, Note_on_c, 0, 63, 95
2, 1099680, Pitch_bend_c, 1, 9600
2, 1099680, Note_on_c, 1, 61, 95
2, 1100640, Note_off_c, 0, 63, 95
2, 1100640, Note_off_c, 0, 63, 95
2, 1100640, Pitch_bend_c, 1, 9600
2, 1100640, Pitch_bend_c, 1, 8192
2, 1100640, Note_off_c, 1, 61, 95
2, 1100640, Note_on_c, 0, 63, 95
2, 1100640, Note_on_c, 0, 58, 95
2, 1101120, Note_off_c, 0, 63, 95
2, 1101120, Note_off_c, 0, 58, 95
2, 1101120, Note_on_c, 0, 63, 95
2, 1101120, Note_on_c, 0, 63, 95
2, 1101120, Pitch_bend_c, 1, 8192
2, 1101120, Note_on_c, 1, 61, 95
2, 1101163, Pitch_bend_c, 1, 8320
2, 1101206, Pitch_bend_c, 1, 8448
2, 1101249, Pitch_bend_c, 1, 8576
2, 1101292, Pitch_bend_c, 1, 8704
2, 1101335, Pitch_bend_c, 1, 8832
2, 1101378, Pitch_bend_c, 1, 8960
2, 1101421, Pitch_bend_c, 1, 9088
2, 1101464, Pitch_bend_c, 1, 9216
2, 1101507, Pitch_bend_c, 1, 9344
2, 1101550, Pitch_bend_c, 1, 9472
2, 1101593, Pitch_bend_c, 1, 9600
2, 1101600, Pitch_bend_c, 1, 9600
2, 1102080, Note_off_c, 0, 63, 95
2, 1102080, Note_off_c, 0, 63, 95
2, 1102080, Pitch_bend_c, 1, 9600
2, 1102080, Pitch_bend_c, 1, 8192
2, 1102080, Note_off_c, 1, 61, 95
2, 1102080, Note_on_c, 0, 67, 95
2, 1102080, Note_on_c, 0, 61, 95
2, 1102080, Note_on_c, 0, 58, 95
2, 1102080, Note_on_c, 0, 49, 95
2, 1102320, Note_off_c, 0, 67, 95
2, 1102320, Note_off_c, 0, 61, 95
2, 1102320, Note_off_c, 0, 58, 95
2, 1102320, Note_off_c, 0, 49, 95
2, 1102320, Note_on_c, 0, 67, 95
2, 1102320, Note_on_c, 0, 61, 95
2, 1102320, Note_on_c, 0, 58, 95
2, 1102320, Note_on_c, 0, 49, 95
2, 1102560, Note_off_c, 0, 67, 95
2, 1102560, Note_off_c, 0, 61, 95
2, 1102560, Note_off_c, 0, 58, 95
2, 1102560, Note_off_c, 0, 49, 95
2, 1102560, Note_on_c, 0, 63, 95
2, 1102560, Note_on_c, 0, 58, 95
2, 1103040, Note_off_c, 0, 63, 95
2, 1103040, Note_off_c, 0, 58, 95
2, 1103040, Note_on_c, 0, 58, 95
2, 1103040, Note_on_c, 0, 56, 95
2, 1103360, Note_off_c, 0, 58, 95
2, 1103360, Note_off_c, 0, 56, 95
2, 1103360, Note_on_c, 0, 58, 95
2, 1103360, Note_on_c, 0, 54, 70
2, 1103680, Note_off_c, 0, 58, 95
2, 1103680, Note_off_c, 0, 54, 70
2, 1103680, Note_on_c, 0, 54, 95
2, 1103680, Note_on_c, 0, 51, 95
2, 1104000, Note_off_c, 0, 54, 95
2, 1104000, Note_off_c, 0, 51, 95
2, 1104000, Pitch_bend_c, 1, 8192
2, 1104000, Note_on_c, 1, 42, 95
2, 1104240, Pitch_bend_c, 1, 8320
2, 1104480, Pitch_bend_c, 1, 8448
2, 1104480, Pitch_bend_c, 1, 8448
2, 1104960, Pitch_bend_c, 1, 8448
2, 1104960, Pitch_bend_c, 1, 8192
2, 1104960, Note_off_c, 1, 42, 95
2, 1104960, Note_on_c, 0, 63, 95
2, 1104960, Note_on_c, 0, 58, 95
2, 1104960, Note_on_c, 0, 55, 95
2, 1104960, Note_on_c, 0, 49, 95
2, 1105920, Note_off_c, 0, 63, 95
2, 1105920, Note_off_c, 0, 58, 95
2, 1105920, Note_off_c, 0, 55, 95
2, 1105920, Note_off_c, 0, 49, 95
2, 1105920, Note_on_c, 0, 63, 95
2, 1105920, Note_on_c, 0, 63, 95
2, 1105920, Pitch_bend_c, 1, 9600
2, 1105920, Note_on_c, 1, 61, 95
2, 1106400, Note_off_c, 0, 63, 95
2, 1106400, Note_off_c, 0, 63, 95
2, 1106400, Pitch_bend_c, 1, 9600
2, 1106400, Pitch_bend_c, 1, 8192
2, 1106400, Note_off_c, 1, 61, 95
2, 1106400, Note_on_c, 0, 63, 95
2, 1106400, Note_on_c, 0, 63, 95
2, 1106400, Pitch_bend_c, 1, 9600
2, 1106400, Note_on_c, 1, 61, 95
2, 1107360, Note_off_c, 0, 63, 95
2, 1107360, Note_off_c, 0, 63, 95
2, 1107360, Pitch_bend_c, 1, 9600
2, 1107360, Pitch_bend_c, 1, 8192
2, 1107360, Note_off_c, 1, 61, 95
2, 1107360, Note_on_c, 0, 63, 95
2, 1107600, Note_off_c, 0, 63, 95
2, 1107600, Note_on_c, 0, 61, 70
2, 1107840, Note_off_c, 0, 61, 70
2, 1107840, Note_on_c, 0, 58, 95
2, 1108560, Note_off_c, 0, 58, 95
2, 1108560, Note_on_c, 0, 68, 95
2, 1108800, Note_off_c, 0, 68, 95
2, 1108800, Note_on_c, 0, 66, 70
2, 1109040, Note_off_c, 0, 66, 70
2, 1109040, Note_on_c, 0, 63, 95
2, 1109760, Note_off_c, 0, 63, 95
2, 1109760, Note_on_c, 0, 63, 95
2, 1109920, Note_off_c, 0, 63, 95
2, 1109920, Note_on_c, 0, 61, 70
2, 1110080, Note_off_c, 0, 61, 70
2, 1110080, Note_on_c, 0, 58, 70
2, 1110240, Note_off_c, 0, 58, 70
2, 1110240, Note_on_c, 0, 39, 95
2, 1111200, Note_off_c, 0, 39, 95
2, 1111200, Pitch_bend_c, 1, 8192
2, 1111200, Note_on_c, 1, 42, 95
2, 1111440, Pitch_bend_c, 1, 8320
2, 1111680, Pitch_bend_c, 1, 8448
2, 1111680, Pitch_bend_c, 1, 8448
2, 1112160, Pitch_bend_c, 1, 8448
2, 1112160, Pitch_bend_c, 1, 8192
2, 1112160, Note_off_c, 1, 42, 95
2, 1112160, Note_on_c, 0, 54, 95
2, 1112160, Note_on_c, 0, 49, 95
2, 1112400, Note_off_c, 0, 54, 95
2, 1112400, Note_off_c, 0, 49, 95
2, 1112400, Note_on_c, 0, 55, 70
2, 1112400, Note_on_c, 0, 51, 70
2, 1112640, Note_off_c, 0, 55, 70
2, 1112640, Note_off_c, 0, 51, 70
2, 1112640, Note_on_c, 0, 63, 95
2, 1112640, Note_on_c, 0, 58, 95
2, 1112640, Note_on_c, 0, 55, 95
2, 1113600, Note_off_c, 0, 63, 95
2, 1113600, Note_off_c, 0, 58, 95
2, 1113600, Note_off_c, 0, 55, 95
2, 1113600, Note_on_c, 0, 58, 95
2, 1113600, Note_on_c, 1, 58, 95
2, 1114080, Note_off_c, 0, 58, 95
2, 1114080, Note_off_c, 1, 58, 95
2, 1114080, Note_on_c, 0, 63, 95
2, 1114080, Note_on_c, 0, 63, 95
2, 1115040, Note_off_c, 0, 63, 95
2, 1115040, Note_off_c, 0, 63, 95
2, 1115040, Note_on_c, 0, 68, 95
2, 1116000, Note_off_c, 0, 68, 95
2, 1116000, Note_on_c, 0, 66, 95
2, 1116480, Note_off_c, 0, 66, 95
2, 1116480, Note_on_c, 0, 68, 95
2, 1116800, Note_off_c, 0, 68, 95
2, 1116800, Note_on_c, 0, 66, 70
2, 1117120, Note_off_c, 0, 66, 70
2, 1117120, Note_on_c, 0, 63, 70
2, 1117440, Note_off_c, 0, 63, 70
2, 1117440, Note_on_c, 0, 63, 95
2, 1117760, Note_off_c, 0, 63, 95
2, 1117760, Note_on_c, 0, 61, 70
2, 1118080, Note_off_c, 0, 61, 70
2, 1118080, Note_on_c, 0, 58, 70
2, 1118400, Note_off_c, 0, 58, 70
2, 1118400, Note_on_c, 0, 63, 95
2, 1118400, Note_on_c, 0, 58, 95
2, 1118400, Note_on_c, 0, 55, 95
2, 1118400, Note_on_c, 0, 49, 95
2, 1119360, Note_off_c, 0, 63, 95
2, 1119360, Note_off_c, 0, 58, 95
2, 1119360, Note_off_c, 0, 55, 95
2, 1119360, Note_off_c, 0, 49, 95
2, 1119360, Pitch_bend_c, 1, 8192
2, 1119360, Note_on_c, 1, 42, 95
2, 1119600, Pitch_bend_c, 1, 8320
2, 1119840, Pitch_bend_c, 1, 8448
2, 1119840, Pitch_bend_c, 1, 8448
2, 1120320, Pitch_bend_c, 1, 8448
2, 1120320, Pitch_bend_c, 1, 8192
2, 1120320, Note_off_c, 1, 42, 95
2, 1120320, Note_on_c, 0, 63, 95
2, 1120320, Note_on_c, 0, 58, 95
2, 1120320, Note_on_c, 0, 55, 95
2, 1120320, Note_on_c, 0, 49, 95
2, 1121280, Note_off_c, 0, 63, 95
2, 1121280, Note_off_c, 0, 58, 95
2, 1121280, Note_off_c, 0, 55, 95
2, 1121280, Note_off_c, 0, 49, 95
2, 1121280, Note_on_c, 0, 63, 95
2, 1121280, Note_on_c, 0, 63, 95
2, 1121280, Pitch_bend_c, 1, 8192
2, 1121280, Note_on_c, 1, 61, 95
2, 1121400, Pitch_bend_c, 1, 8320
2, 1121520, Pitch_bend_c, 1, 8448
2, 1121520, Pitch_bend_c, 1, 8448
2, 1121760, Note_off_c, 0, 63, 95
2, 1121760, Note_off_c, 0, 63, 95
2, 1121760, Pitch_bend_c, 1, 8448
2, 1121760, Pitch_bend_c, 1, 8192
2, 1121760, Note_off_c, 1, 61, 95
2, 1121760, Note_on_c, 0, 63, 95
2, 1121760, Note_on_c, 0, 63, 95
2, 1121760, Pitch_bend_c, 1, 8192
2, 1121760, Note_on_c, 1, 61, 95
2, 1121856, Pitch_bend_c, 1, 8320
2, 1121952, Pitch_bend_c, 1, 8448
2, 1122048, Pitch_bend_c, 1, 8576
2, 1122144, Pitch_bend_c, 1, 8704
2, 1122240, Pitch_bend_c, 1, 8832
2, 1122240, Pitch_bend_c, 1, 8832
2, 1122720, Note_off_c, 0, 63, 95
2, 1122720, Note_off_c, 0, 63, 95
2, 1122720, Pitch_bend_c, 1, 8832
2, 1122720, Pitch_bend_c, 1, 8192
2, 1122720, Note_off_c, 1, 61, 95
2, 1122720, Note_on_c, 0, 63, 95
2, 1122720, Note_on_c, 0, 63, 95
2, 1122720, Pitch_bend_c, 1, 8192
2, 1122720, Note_on_c, 1, 61, 95
2, 1122780, Pitch_bend_c, 1, 8320
2, 1122840, Pitch_bend_c, 1, 8448
2, 1122900, Pitch_bend_c, 1, 8576
2, 1122960, Pitch_bend_c, 1, 8704
2, 1123020, Pitch_bend_c, 1, 8832
2, 1123080, Pitch_bend_c, 1, 8960
2, 1123140, Pitch_bend_c, 1, 9088
2, 1123200, Pitch_bend_c, 1, 9216
2, 1123200, Pitch_bend_c, 1, 9216
2, 1123680, Note_off_c, 0, 63, 95
2, 1123680, Note_off_c, 0, 63, 95
2, 1123680, Pitch_bend_c, 1, 9216
2, 1123680, Pitch_bend_c, 1, 8192
2, 1123680, Note_off_c, 1, 61, 95
2, 1123680, Note_on_c, 0, 63, 95
2, 1123680, Note_on_c, 0, 63, 95
2, 1123680, Pitch_bend_c, 1, 8192
2, 1123680, Note_on_c, 1, 61, 95
2, 1123701, Pitch_bend_c, 1, 8320
2, 1123722, Pitch_bend_c, 1, 8448
2, 1123743, Pitch_bend_c, 1, 8576
2, 1123764, Pitch_bend_c, 1, 8704
2, 1123785, Pitch_bend_c, 1, 8832
2, 1123806, Pitch_bend_c, 1, 8960
2, 1123827, Pitch_bend_c, 1, 9088
2, 1123848, Pitch_bend_c, 1, 9216
2, 1123869, Pitch_bend_c, 1, 9344
2, 1123890, Pitch_bend_c, 1, 9472
2, 1123911, Pitch_bend_c, 1, 9600
2, 1123920, Pitch_bend_c, 1, 9600
2, 1124160, Note_off_c, 0, 63, 95
2, 1124160, Note_off_c, 0, 63, 95
2, 1124160, Pitch_bend_c, 1, 9600
2, 1124160, Pitch_bend_c, 1, 8192
2, 1124160, Note_off_c, 1, 61, 95
2, 1124160, Note_on_c, 0, 63, 95
2, 1124160, Note_on_c, 0, 63, 95
2, 1124160, Pitch_bend_c, 1, 8192
2, 1124160, Note_on_c, 1, 61, 95
2, 1124203, Pitch_bend_c, 1, 8320
2, 1124246, Pitch_bend_c, 1, 8448
2, 1124289, Pitch_bend_c, 1, 8576
2, 1124332, Pitch_bend_c, 1, 8704
2, 1124375, Pitch_bend_c, 1, 8832
2, 1124418, Pitch_bend_c, 1, 8960
2, 1124461, Pitch_bend_c, 1, 9088
2, 1124504, Pitch_bend_c, 1, 9216
2, 1124547, Pitch_bend_c, 1, 9344
2, 1124590, Pitch_bend_c, 1, 9472
2, 1124633, Pitch_bend_c, 1, 9600
2, 1124640, Pitch_bend_c, 1, 9600
2, 1125120, Note_off_c, 0, 63, 95
2, 1125120, Note_off_c, 0, 63, 95
2, 1125120, Pitch_bend_c, 1, 9600
2, 1125120, Pitch_bend_c, 1, 8192
2, 1125120, Note_off_c, 1, 61, 95
2, 1125120, Pitch_bend_c, 1, 8192
2, 1125120, Note_on_c, 1, 61, 95
2, 1125163, Pitch_bend_c, 1, 8320
2, 1125206, Pitch_bend_c, 1, 8448
2, 1125249, Pitch_bend_c, 1, 8576
2, 1125292, Pitch_bend_c, 1, 8704
2, 1125335, Pitch_bend_c, 1, 8832
2, 1125378, Pitch_bend_c, 1, 8960
2, 1125421, Pitch_bend_c, 1, 9088
2, 1125464, Pitch_bend_c, 1, 9216
2, 1125507, Pitch_bend_c, 1, 9344
2, 1125550, Pitch_bend_c, 1, 9472
2, 1125593, Pitch_bend_c, 1, 9600
2, 1125600, Pitch_bend_c, 1, 9600
2, 1126080, Pitch_bend_c, 1, 9600
2, 1126080, Pitch_bend_c, 1, 8192
2, 1126080, Note_off_c, 1, 61, 95
2, 1126080, Note_on_c, 0, 63, 95
2, 1126240, Note_off_c, 0, 63, 95
2, 1126240, Note_on_c, 0, 61, 70
2, 1126400, Note_off_c, 0, 61, 70
2, 1126400, Note_on_c, 0, 58, 70
2, 1126560, Note_off_c, 0, 58, 70
2, 1126560, Note_on_c, 0, 51, 95
2, 1128000, Note_off_c, 0, 51, 95
2, 1128000, Note_on_c, 0, 63, 95
2, 1128000, Note_on_c, 0, 58, 95
2, 1128000, Note_on_c, 0, 55, 95
2, 1128000, Note_on_c, 0, 49, 95
2, 1128960, Note_off_c, 0, 63, 95
2, 1128960, Note_off_c, 0, 58, 95
2, 1128960, Note_off_c, 0, 55, 95
2, 1128960, Note_off_c, 0, 49, 95
2, 1128960, Note_on_c, 1, 75, 95
2, 1128960, Note_on_c, 1, 73, 95
2, 1128960, Note_on_c, 1, 67, 95
2, 1128960, Note_on_c, 1, 63, 95
2, 1129120, Pitch_bend_c, 1, 8192
2, 1129120, Pitch_bend_c, 1, 8192
2, 1129120, Pitch_bend_c, 1, 8192
2, 1129120, Pitch_bend_c, 1, 8192
2, 1129280, Pitch_bend_c, 1, 8192
2, 1129280, Pitch_bend_c, 1, 8192
2, 1129280, Note_off_c, 1, 75, 95
2, 1129280, Pitch_bend_c, 1, 8192
2, 1129280, Pitch_bend_c, 1, 8192
2, 1129280, Note_off_c, 1, 73, 95
2, 1129280, Pitch_bend_c, 1, 8192
2, 1129280, Pitch_bend_c, 1, 8192
2, 1129280, Note_off_c, 1, 67, 95
2, 1129280, Pitch_bend_c, 1, 8192
2, 1129280, Pitch_bend_c, 1, 8192
2, 1129280, Note_off_c, 1, 63, 95
2, 1129280, Note_on_c, 0, 75, 95
2, 1129280, Note_on_c, 0, 73, 95
2, 1129280, Note_on_c, 0, 67, 95
2, 1129280, Note_on_c, 0, 63, 95
2, 1129600, Note_off_c, 0, 75, 95
2, 1129600, Note_off_c, 0, 73, 95
2, 1129600, Note_off_c, 0, 67, 95
2, 1129600, Note_off_c, 0, 63, 95
2, 1129600, Note_on_c, 0, 75, 95
2, 1129600, Note_on_c, 0, 73, 95
2, 1129600, Note_on_c, 0, 67, 95
2, 1129600, Note_on_c, 0, 63, 95
2, 1129920, Note_off_c, 0, 75, 95
2, 1129920, Note_off_c, 0, 73, 95
2, 1129920, Note_off_c, 0, 67, 95
2, 1129920, Note_off_c, 0, 63, 95
2, 1129920, Note_on_c, 0, 75, 95
2, 1129920, Note_on_c, 0, 73, 95
2, 1129920, Note_on_c, 0, 67, 95
2, 1129920, Note_on_c, 0, 63, 95
2, 1130240, Note_off_c, 0, 75, 95
2, 1130240, Note_off_c, 0, 73, 95
2, 1130240, Note_off_c, 0, 67, 95
2, 1130240, Note_off_c, 0, 63, 95
2, 1130240, Note_on_c, 0, 75, 95
2, 1130240, Note_on_c, 0, 73, 95
2, 1130240, Note_on_c, 0, 67, 95
2, 1130240, Note_on_c, 0, 63, 95
2, 1130560, Note_off_c, 0, 75, 95
2, 1130560, Note_off_c, 0, 73, 95
2, 1130560, Note_off_c, 0, 67, 95
2, 1130560, Note_off_c, 0, 63, 95
2, 1130560, Note_on_c, 0, 75, 95
2, 1130560, Note_on_c, 0, 73, 95
2, 1130560, Note_on_c, 0, 67, 95
2, 1130560, Note_on_c, 0, 63, 95
2, 1130880, Note_off_c, 0, 75, 95
2, 1130880, Note_off_c, 0, 73, 95
2, 1130880, Note_off_c, 0, 67, 95
2, 1130880, Note_off_c, 0, 63, 95
2, 1130880, Note_on_c, 0, 75, 95
2, 1130880, Note_on_c, 0, 73, 95
2, 1130880, Note_on_c, 0, 67, 95
2, 1130880, Note_on_c, 0, 63, 95
2, 1131200, Note_off_c, 0, 75, 95
2, 1131200, Note_off_c, 0, 73, 95
2, 1131200, Note_off_c, 0, 67, 95
2, 1131200, Note_off_c, 0, 63, 95
2, 1131200, Note_on_c, 0, 75, 95
2, 1131200, Note_on_c, 0, 73, 95
2, 1131200, Note_on_c, 0, 67, 95
2, 1131200, Note_on_c, 0, 63, 95
2, 1131520, Note_off_c, 0, 75, 95
2, 1131520, Note_off_c, 0, 73, 95
2, 1131520, Note_off_c, 0, 67, 95
2, 1131520, Note_off_c, 0, 63, 95
2, 1131520, Note_on_c, 0, 75, 95
2, 1131520, Note_on_c, 0, 73, 95
2, 1131520, Note_on_c, 0, 67, 95
2, 1131520, Note_on_c, 0, 63, 95
2, 1131840, Note_off_c, 0, 75, 95
2, 1131840, Note_off_c, 0, 73, 95
2, 1131840, Note_off_c, 0, 67, 95
2, 1131840, Note_off_c, 0, 63, 95
2, 1131840, Note_on_c, 0, 75, 95
2, 1131840, Note_on_c, 0, 73, 95
2, 1131840, Note_on_c, 0, 67, 95
2, 1131840, Note_on_c, 0, 63, 95
2, 1132160, Note_off_c, 0, 75, 95
2, 1132160, Note_off_c, 0, 73, 95
2, 1132160, Note_off_c, 0, 67, 95
2, 1132160, Note_off_c, 0, 63, 95
2, 1132160, Note_on_c, 0, 75, 95
2, 1132160, Note_on_c, 0, 73, 95
2, 1132160, Note_on_c, 0, 67, 95
2, 1132160, Note_on_c, 0, 63, 95
2, 1132480, Note_off_c, 0, 75, 95
2, 1132480, Note_off_c, 0, 73, 95
2, 1132480, Note_off_c, 0, 67, 95
2, 1132480, Note_off_c, 0, 63, 95
2, 1132480, Note_on_c, 0, 75, 95
2, 1132480, Note_on_c, 0, 73, 95
2, 1132480, Note_on_c, 0, 67, 95
2, 1132480, Note_on_c, 0, 63, 95
2, 1132800, Note_off_c, 0, 75, 95
2, 1132800, Note_off_c, 0, 73, 95
2, 1132800, Note_off_c, 0, 67, 95
2, 1132800, Note_off_c, 0, 63, 95
2, 1132800, Note_on_c, 1, 75, 95
2, 1132800, Note_on_c, 1, 73, 95
2, 1132800, Note_on_c, 1, 67, 95
2, 1132800, Note_on_c, 1, 63, 95
2, 1134240, Note_off_c, 1, 75, 95
2, 1134240, Note_off_c, 1, 73, 95
2, 1134240, Note_off_c, 1, 67, 95
2, 1134240, Note_off_c, 1, 63, 95
2, 1134240, Note_on_c, 0, 39, 95
2, 1134720, Note_off_c, 0, 39, 95
2, 1134720, Pitch_bend_c, 1, 8192
2, 1134720, Note_on_c, 1, 42, 95
2, 1134960, Pitch_bend_c, 1, 8320
2, 1135200, Pitch_bend_c, 1, 8448
2, 1135200, Pitch_bend_c, 1, 8448
2, 1135680, Pitch_bend_c, 1, 8448
2, 1135680, Pitch_bend_c, 1, 8192
2, 1135680, Note_off_c, 1, 42, 95
2, 1135680, Note_on_c, 0, 63, 95
2, 1135680, Note_on_c, 0, 58, 95
2, 1135680, Note_on_c, 0, 55, 95
2, 1135680, Note_on_c, 0, 49, 95
2, 1136640, Note_off_c, 0, 63, 95
2, 1136640, Note_off_c, 0, 58, 95
2, 1136640, Note_off_c, 0, 55, 95
2, 1136640, Note_off_c, 0, 49, 95
2, 1136640, Note_on_c, 1, 75, 95
2, 1136640, Note_on_c, 1, 73, 95
2, 1136640, Note_on_c, 1, 67, 95
2, 1136640, Note_on_c, 1, 63, 95
2, 1136800, Pitch_bend_c, 1, 8192
2, 1136800, Pitch_bend_c, 1, 8192
2, 1136800, Pitch_bend_c, 1, 8192
2, 1136800, Pitch_bend_c, 1, 8192
2, 1136960, Pitch_bend_c, 1, 8192
2, 1136960, Pitch_bend_c, 1, 8192
2, 1136960, Note_off_c, 1, 75, 95
2, 1136960, Pitch_bend_c, 1, 8192
2, 1136960, Pitch_bend_c, 1, 8192
2, 1136960, Note_off_c, 1, 73, 95
2, 1136960, Pitch_bend_c, 1, 8192
2, 1136960, Pitch_bend_c, 1, 8192
2, 1136960, Note_off_c, 1, 67, 95
2, 1136960, Pitch_bend_c, 1, 8192
2, 1136960, Pitch_bend_c, 1, 8192
2, 1136960, Note_off_c, 1, 63, 95
2, 1136960, Note_on_c, 0, 75, 95
2, 1136960, Note_on_c, 0, 73, 95
2, 1136960, Note_on_c, 0, 67, 95
2, 1136960, Note_on_c, 0, 63, 95
2, 1137280, Note_off_c, 0, 75, 95
2, 1137280, Note_off_c, 0, 73, 95
2, 1137280, Note_off_c, 0, 67, 95
2, 1137280, Note_off_c, 0, 63, 95
2, 1137280, Note_on_c, 0, 75, 95
2, 1137280, Note_on_c, 0, 73, 95
2, 1137280, Note_on_c, 0, 67, 95
2, 1137280, Note_on_c, 0, 63, 95
2, 1137600, Note_off_c, 0, 75, 95
2, 1137600, Note_off_c, 0, 73, 95
2, 1137600, Note_off_c, 0, 67, 95
2, 1137600, Note_off_c, 0, 63, 95
2, 1137600, Note_on_c, 0, 75, 95
2, 1137600, Note_on_c, 0, 73, 95
2, 1137600, Note_on_c, 0, 67, 95
2, 1137600, Note_on_c, 0, 63, 95
2, 1137920, Note_off_c, 0, 75, 95
2, 1137920, Note_off_c, 0, 73, 95
2, 1137920, Note_off_c, 0, 67, 95
2, 1137920, Note_off_c, 0, 63, 95
2, 1137920, Note_on_c, 0, 75, 95
2, 1137920, Note_on_c, 0, 73, 95
2, 1137920, Note_on_c, 0, 67, 95
2, 1137920, Note_on_c, 0, 63, 95
2, 1138240, Note_off_c, 0, 75, 95
2, 1138240, Note_off_c, 0, 73, 95
2, 1138240, Note_off_c, 0, 67, 95
2, 1138240, Note_off_c, 0, 63, 95
2, 1138240, Note_on_c, 0, 75, 95
2, 1138240, Note_on_c, 0, 73, 95
2, 1138240, Note_on_c, 0, 67, 95
2, 1138240, Note_on_c, 0, 63, 95
2, 1138560, Note_off_c, 0, 75, 95
2, 1138560, Note_off_c, 0, 73, 95
2, 1138560, Note_off_c, 0, 67, 95
2, 1138560, Note_off_c, 0, 63, 95
2, 1138560, Note_on_c, 1, 75, 95
2, 1138560, Note_on_c, 1, 73, 95
2, 1138560, Note_on_c, 1, 67, 95
2, 1138560, Note_on_c, 1, 63, 95
2, 1138720, Pitch_bend_c, 1, 8192
2, 1138720, Pitch_bend_c, 1, 8192
2, 1138720, Pitch_bend_c, 1, 8192
2, 1138720, Pitch_bend_c, 1, 8192
2, 1138880, Pitch_bend_c, 1, 8192
2, 1138880, Pitch_bend_c, 1, 8192
2, 1138880, Note_off_c, 1, 75, 95
2, 1138880, Pitch_bend_c, 1, 8192
2, 1138880, Pitch_bend_c, 1, 8192
2, 1138880, Note_off_c, 1, 73, 95
2, 1138880, Pitch_bend_c, 1, 8192
2, 1138880, Pitch_bend_c, 1, 8192
2, 1138880, Note_off_c, 1, 67, 95
2, 1138880, Pitch_bend_c, 1, 8192
2, 1138880, Pitch_bend_c, 1, 8192
2, 1138880, Note_off_c, 1, 63, 95
2, 1138880, Note_on_c, 0, 75, 95
2, 1138880, Note_on_c, 0, 73, 95
2, 1138880, Note_on_c, 0, 67, 95
2, 1138880, Note_on_c, 0, 63, 95
2, 1139200, Note_off_c, 0, 75, 95
2, 1139200, Note_off_c, 0, 73, 95
2, 1139200, Note_off_c, 0, 67, 95
2, 1139200, Note_off_c, 0, 63, 95
2, 1139200, Note_on_c, 0, 75, 95
2, 1139200, Note_on_c, 0, 73, 95
2, 1139200, Note_on_c, 0, 67, 95
2, 1139200, Note_on_c, 0, 63, 95
2, 1139520, Note_off_c, 0, 75, 95
2, 1139520, Note_off_c, 0, 73, 95
2, 1139520, Note_off_c, 0, 67, 95
2, 1139520, Note_off_c, 0, 63, 95
2, 1139520, Note_on_c, 0, 75, 95
2, 1139520, Note_on_c, 0, 73, 95
2, 1139520, Note_on_c, 0, 67, 95
2, 1139520, Note_on_c, 0, 63, 95
2, 1139840, Note_off_c, 0, 75, 95
2, 1139840, Note_off_c, 0, 73, 95
2, 1139840, Note_off_c, 0, 67, 95
2, 1139840, Note_off_c, 0, 63, 95
2, 1139840, Note_on_c, 0, 75, 95
2, 1139840, Note_on_c, 0, 73, 95
2, 1139840, Note_on_c, 0, 67, 95
2, 1139840, Note_on_c, 0, 63, 95
2, 1140160, Note_off_c, 0, 75, 95
2, 1140160, Note_off_c, 0, 73, 95
2, 1140160, Note_off_c, 0, 67, 95
2, 1140160, Note_off_c, 0, 63, 95
2, 1140160, Note_on_c, 0, 75, 95
2, 1140160, Note_on_c, 0, 73, 95
2, 1140160, Note_on_c, 0, 67, 95
2, 1140160, Note_on_c, 0, 63, 95
2, 1140480, Note_off_c, 0, 75, 95
2, 1140480, Note_off_c, 0, 73, 95
2, 1140480, Note_off_c, 0, 67, 95
2, 1140480, Note_off_c, 0, 63, 95
2, 1140480, Note_on_c, 1, 75, 95
2, 1140480, Note_on_c, 1, 73, 95
2, 1140480, Note_on_c, 1, 67, 95
2, 1140480, Note_on_c, 1, 63, 95
2, 1140640, Pitch_bend_c, 1, 8192
2, 1140640, Pitch_bend_c, 1, 8192
2, 1140640, Pitch_bend_c, 1, 8192
2, 1140640, Pitch_bend_c, 1, 8192
2, 1140800, Pitch_bend_c, 1, 8192
2, 1140800, Pitch_bend_c, 1, 8192
2, 1140800, Note_off_c, 1, 75, 95
2, 1140800, Pitch_bend_c, 1, 8192
2, 1140800, Pitch_bend_c, 1, 8192
2, 1140800, Note_off_c, 1, 73, 95
2, 1140800, Pitch_bend_c, 1, 8192
2, 1140800, Pitch_bend_c, 1, 8192
2, 1140800, Note_off_c, 1, 67, 95
2, 1140800, Pitch_bend_c, 1, 8192
2, 1140800, Pitch_bend_c, 1, 8192
2, 1140800, Note_off_c, 1, 63, 95
2, 1140800, Note_on_c, 0, 75, 95
2, 1140800, Note_on_c, 0, 73, 95
2, 1140800, Note_on_c, 0, 67, 95
2, 1140800, Note_on_c, 0, 63, 95
2, 1141120, Note_off_c, 0, 75, 95
2, 1141120, Note_off_c, 0, 73, 95
2, 1141120, Note_off_c, 0, 67, 95
2, 1141120, Note_off_c, 0, 63, 95
2, 1141120, Note_on_c, 0, 75, 95
2, 1141120, Note_on_c, 0, 73, 95
2, 1141120, Note_on_c, 0, 67, 95
2, 1141120, Note_on_c, 0, 63, 95
2, 1141440, Note_off_c, 0, 75, 95
2, 1141440, Note_off_c, 0, 73, 95
2, 1141440, Note_off_c, 0, 67, 95
2, 1141440, Note_off_c, 0, 63, 95
2, 1141440, Note_on_c, 0, 75, 95
2, 1141440, Note_on_c, 0, 73, 95
2, 1141440, Note_on_c, 0, 67, 95
2, 1141440, Note_on_c, 0, 63, 95
2, 1141760, Note_off_c, 0, 75, 95
2, 1141760, Note_off_c, 0, 73, 95
2, 1141760, Note_off_c, 0, 67, 95
2, 1141760, Note_off_c, 0, 63, 95
2, 1141760, Note_on_c, 0, 75, 95
2, 1141760, Note_on_c, 0, 73, 95
2, 1141760, Note_on_c, 0, 67, 95
2, 1141760, Note_on_c, 0, 63, 95
2, 1142080, Note_off_c, 0, 75, 95
2, 1142080, Note_off_c, 0, 73, 95
2, 1142080, Note_off_c, 0, 67, 95
2, 1142080, Note_off_c, 0, 63, 95
2, 1142080, Note_on_c, 0, 75, 95
2, 1142080, Note_on_c, 0, 73, 95
2, 1142080, Note_on_c, 0, 67, 95
2, 1142080, Note_on_c, 0, 63, 95
2, 1142400, Note_off_c, 0, 75, 95
2, 1142400, Note_off_c, 0, 73, 95
2, 1142400, Note_off_c, 0, 67, 95
2, 1142400, Note_off_c, 0, 63, 95
2, 1142400, Note_on_c, 1, 75, 95
2, 1142400, Pitch_bend_c, 1, 8192
2, 1142400, Note_on_c, 1, 73, 95
2, 1142443, Pitch_bend_c, 1, 8320
2, 1142486, Pitch_bend_c, 1, 8448
2, 1142520, Pitch_bend_c, 1, 8192
2, 1142529, Pitch_bend_c, 1, 8576
2, 1142572, Pitch_bend_c, 1, 8704
2, 1142615, Pitch_bend_c, 1, 8832
2, 1142640, Pitch_bend_c, 1, 8192
2, 1142658, Pitch_bend_c, 1, 8960
2, 1142701, Pitch_bend_c, 1, 9088
2, 1142744, Pitch_bend_c, 1, 9216
2, 1142760, Pitch_bend_c, 1, 8192
2, 1142787, Pitch_bend_c, 1, 9344
2, 1142830, Pitch_bend_c, 1, 9472
2, 1142873, Pitch_bend_c, 1, 9600
2, 1142880, Pitch_bend_c, 1, 8192
2, 1142880, Pitch_bend_c, 1, 9600
2, 1143000, Pitch_bend_c, 1, 8192
2, 1143120, Pitch_bend_c, 1, 8192
2, 1143240, Pitch_bend_c, 1, 8192
2, 1143360, Pitch_bend_c, 1, 8192
2, 1143360, Pitch_bend_c, 1, 8192
2, 1143360, Note_off_c, 1, 75, 95
2, 1143360, Pitch_bend_c, 1, 9600
2, 1143360, Pitch_bend_c, 1, 8192
2, 1143360, Note_off_c, 1, 73, 95
2, 1143360, Note_on_c, 0, 75, 95
2, 1143360, Pitch_bend_c, 1, 8192
2, 1143360, Note_on_c, 1, 73, 95
2, 1143403, Pitch_bend_c, 1, 8320
2, 1143446, Pitch_bend_c, 1, 8448
2, 1143489, Pitch_bend_c, 1, 8576
2, 1143532, Pitch_bend_c, 1, 8704
2, 1143575, Pitch_bend_c, 1, 8832
2, 1143618, Pitch_bend_c, 1, 8960
2, 1143661, Pitch_bend_c, 1, 9088
2, 1143704, Pitch_bend_c, 1, 9216
2, 1143747, Pitch_bend_c, 1, 9344
2, 1143790, Pitch_bend_c, 1, 9472
2, 1143833, Pitch_bend_c, 1, 9600
2, 1143840, Pitch_bend_c, 1, 9600
2, 1144320, Note_off_c, 0, 75, 95
2, 1144320, Pitch_bend_c, 1, 9600
2, 1144320, Pitch_bend_c, 1, 8192
2, 1144320, Note_off_c, 1, 73, 95
2, 1144320, Pitch_bend_c, 1, 8192
2, 1144320, Note_on_c, 1, 78, 95
2, 1144350, Pitch_bend_c, 1, 8320
2, 1144380, Pitch_bend_c, 1, 8448
2, 1144410, Pitch_bend_c, 1, 8576
2, 1144440, Pitch_bend_c, 1, 8704
2, 1144470, Pitch_bend_c, 1, 8832
2, 1144500, Pitch_bend_c, 1, 8960
2, 1144530, Pitch_bend_c, 1, 9088
2, 1144560, Pitch_bend_c, 1, 9216
2, 1144560, Pitch_bend_c, 1, 9216
2, 1144800, Pitch_bend_c, 1, 9216
2, 1144800, Pitch_bend_c, 1, 8192
2, 1144800, Note_off_c, 1, 78, 95
2, 1144800, Note_on_c, 1, 75, 95
2, 1146240, Note_off_c, 1, 75, 95
2, 1146240, Note_on_c, 1, 46, 95
2, 1147200, Note_off_c, 1, 46, 95
2, 1147200, Note_on_c, 0, 63, 95
2, 1147200, Note_on_c, 0, 58, 95
2, 1148160, Note_off_c, 0, 63, 95
2, 1148160, Note_off_c, 0, 58, 95
2, 1148160, Note_on_c, 0, 61, 95
2, 1148160, Note_on_c, 0, 58, 95
2, 1150080, Note_off_c, 0, 61, 95
2, 1150080, Note_off_c, 0, 58, 95
2, 1150080, Note_on_c, 0, 61, 95
2, 1150320, Note_off_c, 0, 61, 95
2, 1150320, Note_on_c, 0, 54, 22
2, 1150560, Note_off_c, 0, 54, 22
2, 1150560, Note_on_c, 0, 54, 95
2, 1150800, Note_off_c, 0, 54, 95
2, 1150800, Note_on_c, 0, 49, 22
2, 1151040, Note_off_c, 0, 49, 22
2, 1151040, Note_on_c, 0, 61, 95
2, 1151280, Note_off_c, 0, 61, 95
2, 1151280, Note_on_c, 0, 54, 22
2, 1151520, Note_off_c, 0, 54, 22
2, 1151520, Note_on_c, 0, 58, 95
2, 1151760, Note_off_c, 0, 58, 95
2, 1151760, Note_on_c, 0, 56, 70
2, 1152000, Note_off_c, 0, 56, 70
2, 1152000, Note_on_c, 0, 63, 95
2, 1152000, Note_on_c, 0, 58, 95
2, 1152000, Note_on_c, 0, 55, 95
2, 1152000, Note_on_c, 0, 49, 95
2, 1152000, Note_on_c, 0, 46, 95
2, 1152000, Note_on_c, 0, 39, 95
2, 1153920, Note_off_c, 0, 63, 95
2, 1153920, Note_off_c, 0, 58, 95
2, 1153920, Note_off_c, 0, 55, 95
2, 1153920, Note_off_c, 0, 49, 95
2, 1153920, Note_off_c, 0, 46, 95
2, 1153920, Note_off_c, 0, 39, 95
2, 1153920, Note_on_c, 1, 46, 95
2, 1154880, Note_off_c, 1, 46, 95
2, 1154880, Note_on_c, 1, 61, 95
2, 1155000, Pitch_bend_c, 1, 8448
2, 1155120, Pitch_bend_c, 1, 8832
2, 1155240, Pitch_bend_c, 1, 9216
2, 1155360, Pitch_bend_c, 1, 9600
2, 1155360, Pitch_bend_c, 1, 8192
2, 1155360, Note_off_c, 1, 61, 95
2, 1155360, Note_on_c, 0, 63, 95
2, 1155840, Note_off_c, 0, 63, 95
2, 1155840, Note_on_c, 0, 61, 95
2, 1157760, Note_off_c, 0, 61, 95
2, 1157760, Note_on_c, 1, 75, 95
2, 1157760, Note_on_c, 1, 73, 95
2, 1157760, Note_on_c, 1, 67, 95
2, 1157760, Note_on_c, 1, 63, 95
2, 1157880, Pitch_bend_c, 1, 8192
2, 1157880, Pitch_bend_c, 1, 8192
2, 1157880, Pitch_bend_c, 1, 8192
2, 1157880, Pitch_bend_c, 1, 8192
2, 1158000, Pitch_bend_c, 1, 8192
2, 1158000, Pitch_bend_c, 1, 8192
2, 1158000, Pitch_bend_c, 1, 8192
2, 1158000, Pitch_bend_c, 1, 8192
2, 1158120, Pitch_bend_c, 1, 8192
2, 1158120, Pitch_bend_c, 1, 8192
2, 1158120, Pitch_bend_c, 1, 8192
2, 1158120, Pitch_bend_c, 1, 8192
2, 1158240, Pitch_bend_c, 1, 8192
2, 1158240, Pitch_bend_c, 1, 8192
2, 1158240, Pitch_bend_c, 1, 8192
2, 1158240, Pitch_bend_c, 1, 8192
2, 1158360, Pitch_bend_c, 1, 8192
2, 1158360, Pitch_bend_c, 1, 8192
2, 1158360, Pitch_bend_c, 1, 8192
2, 1158360, Pitch_bend_c, 1, 8192
2, 1158480, Pitch_bend_c, 1, 8192
2, 1158480, Pitch_bend_c, 1, 8192
2, 1158480, Pitch_bend_c, 1, 8192
2, 1158480, Pitch_bend_c, 1, 8192
2, 1158600, Pitch_bend_c, 1, 8192
2, 1158600, Pitch_bend_c, 1, 8192
2, 1158600, Pitch_bend_c, 1, 8192
2, 1158600, Pitch_bend_c, 1, 8192
2, 1158720, Pitch_bend_c, 1, 8192
2, 1158720, Pitch_bend_c, 1, 8192
2, 1158720, Pitch_bend_c, 1, 8192
2, 1158720, Pitch_bend_c, 1, 8192
2, 1158840, Pitch_bend_c, 1, 8192
2, 1158840, Pitch_bend_c, 1, 8192
2, 1158840, Pitch_bend_c, 1, 8192
2, 1158840, Pitch_bend_c, 1, 8192
2, 1158960, Pitch_bend_c, 1, 8192
2, 1158960, Pitch_bend_c, 1, 8192
2, 1158960, Pitch_bend_c, 1, 8192
2, 1158960, Pitch_bend_c, 1, 8192
2, 1159080, Pitch_bend_c, 1, 8192
2, 1159080, Pitch_bend_c, 1, 8192
2, 1159080, Pitch_bend_c, 1, 8192
2, 1159080, Pitch_bend_c, 1, 8192
2, 1159200, Pitch_bend_c, 1, 8192
2, 1159200, Pitch_bend_c, 1, 8192
2, 1159200, Pitch_bend_c, 1, 8192
2, 1159200, Pitch_bend_c, 1, 8192
2, 1159320, Pitch_bend_c, 1, 8192
2, 1159320, Pitch_bend_c, 1, 8192
2, 1159320, Pitch_bend_c, 1, 8192
2, 1159320, Pitch_bend_c, 1, 8192
2, 1159440, Pitch_bend_c, 1, 8192
2, 1159440, Pitch_bend_c, 1, 8192
2, 1159440, Pitch_bend_c, 1, 8192
2, 1159440, Pitch_bend_c, 1, 8192
2, 1159560, Pitch_bend_c, 1, 8192
2, 1159560, Pitch_bend_c, 1, 8192
2, 1159560, Pitch_bend_c, 1, 8192
2, 1159560, Pitch_bend_c, 1, 8192
2, 1159680, Pitch_bend_c, 1, 8192
2, 1159680, Pitch_bend_c, 1, 8192
2, 1159680, Pitch_bend_c, 1, 8192
2, 1159680, Pitch_bend_c, 1, 8192
2, 1159680, Pitch_bend_c, 1, 8192
2, 1159680, Pitch_bend_c, 1, 8192
2, 1159680, Pitch_bend_c, 1, 8192
2, 1159680, Pitch_bend_c, 1, 8192
2, 1160000, Note_off_c, 1, 75, 95
2, 1160000, Note_off_c, 1, 73, 95
2, 1160000, Note_off_c, 1, 67, 95
2, 1160000, Note_off_c, 1, 63, 95
2, 1160000, Note_on_c, 0, 75, 95
2, 1160000, Note_on_c, 0, 73, 95
2, 1160000, Note_on_c, 0, 67, 95
2, 1160000, Note_on_c, 0, 63, 95
2, 1160320, Note_off_c, 0, 75, 95
2, 1160320, Note_off_c, 0, 73, 95
2, 1160320, Note_off_c, 0, 67, 95
2, 1160320, Note_off_c, 0, 63, 95
2, 1160320, Note_on_c, 0, 75, 95
2, 1160320, Note_on_c, 0, 73, 95
2, 1160320, Note_on_c, 0, 67, 95
2, 1160320, Note_on_c, 0, 63, 95
2, 1160640, Note_off_c, 0, 75, 95
2, 1160640, Note_off_c, 0, 73, 95
2, 1160640, Note_off_c, 0, 67, 95
2, 1160640, Note_off_c, 0, 63, 95
2, 1160640, Note_on_c, 0, 75, 95
2, 1160640, Note_on_c, 0, 73, 95
2, 1160640, Note_on_c, 0, 67, 95
2, 1160640, Note_on_c, 0, 63, 95
2, 1160960, Note_off_c, 0, 75, 95
2, 1160960, Note_off_c, 0, 73, 95
2, 1160960, Note_off_c, 0, 67, 95
2, 1160960, Note_off_c, 0, 63, 95
2, 1160960, Note_on_c, 0, 75, 95
2, 1160960, Note_on_c, 0, 73, 95
2, 1160960, Note_on_c, 0, 67, 95
2, 1160960, Note_on_c, 0, 63, 95
2, 1161280, Note_off_c, 0, 75, 95
2, 1161280, Note_off_c, 0, 73, 95
2, 1161280, Note_off_c, 0, 67, 95
2, 1161280, Note_off_c, 0, 63, 95
2, 1161280, Note_on_c, 0, 75, 95
2, 1161280, Note_on_c, 0, 73, 95
2, 1161280, Note_on_c, 0, 67, 95
2, 1161280, Note_on_c, 0, 63, 95
2, 1161600, Note_off_c, 0, 75, 95
2, 1161600, Note_off_c, 0, 73, 95
2, 1161600, Note_off_c, 0, 67, 95
2, 1161600, Note_off_c, 0, 63, 95
2, 1161600, Note_on_c, 0, 75, 95
2, 1161600, Note_on_c, 0, 73, 95
2, 1161600, Note_on_c, 0, 67, 95
2, 1161600, Note_on_c, 0, 63, 95
2, 1161920, Note_off_c, 0, 75, 95
2, 1161920, Note_off_c, 0, 73, 95
2, 1161920, Note_off_c, 0, 67, 95
2, 1161920, Note_off_c, 0, 63, 95
2, 1161920, Note_on_c, 0, 75, 95
2, 1161920, Note_on_c, 0, 73, 95
2, 1161920, Note_on_c, 0, 67, 95
2, 1161920, Note_on_c, 0, 63, 95
2, 1162240, Note_off_c, 0, 75, 95
2, 1162240, Note_off_c, 0, 73, 95
2, 1162240, Note_off_c, 0, 67, 95
2, 1162240, Note_off_c, 0, 63, 95
2, 1162240, Note_on_c, 0, 75, 95
2, 1162240, Note_on_c, 0, 73, 95
2, 1162240, Note_on_c, 0, 67, 95
2, 1162240, Note_on_c, 0, 63, 95
2, 1162560, Note_off_c, 0, 75, 95
2, 1162560, Note_off_c, 0, 73, 95
2, 1162560, Note_off_c, 0, 67, 95
2, 1162560, Note_off_c, 0, 63, 95
2, 1162560, Note_on_c, 0, 75, 95
2, 1162560, Note_on_c, 0, 73, 95
2, 1162560, Note_on_c, 0, 67, 95
2, 1162560, Note_on_c, 0, 63, 95
2, 1162880, Note_off_c, 0, 75, 95
2, 1162880, Note_off_c, 0, 73, 95
2, 1162880, Note_off_c, 0, 67, 95
2, 1162880, Note_off_c, 0, 63, 95
2, 1162880, Note_on_c, 0, 75, 95
2, 1162880, Note_on_c, 0, 73, 95
2, 1162880, Note_on_c, 0, 67, 95
2, 1162880, Note_on_c, 0, 63, 95
2, 1163200, Note_off_c, 0, 75, 95
2, 1163200, Note_off_c, 0, 73, 95
2, 1163200, Note_off_c, 0, 67, 95
2, 1163200, Note_off_c, 0, 63, 95
2, 1163200, Note_on_c, 0, 75, 95
2, 1163200, Note_on_c, 0, 73, 95
2, 1163200, Note_on_c, 0, 67, 95
2, 1163200, Note_on_c, 0, 63, 95
2, 1163520, Note_off_c, 0, 75, 95
2, 1163520, Note_off_c, 0, 73, 95
2, 1163520, Note_off_c, 0, 67, 95
2, 1163520, Note_off_c, 0, 63, 95
2, 1163520, Note_on_c, 1, 75, 95
2, 1163520, Note_on_c, 1, 73, 95
2, 1163520, Note_on_c, 1, 67, 95
2, 1163520, Note_on_c, 1, 63, 95
2, 1163680, Pitch_bend_c, 1, 8192
2, 1163680, Pitch_bend_c, 1, 8192
2, 1163680, Pitch_bend_c, 1, 8192
2, 1163680, Pitch_bend_c, 1, 8192
2, 1163840, Pitch_bend_c, 1, 8192
2, 1163840, Pitch_bend_c, 1, 8192
2, 1163840, Note_off_c, 1, 75, 95
2, 1163840, Pitch_bend_c, 1, 8192
2, 1163840, Pitch_bend_c, 1, 8192
2, 1163840, Note_off_c, 1, 73, 95
2, 1163840, Pitch_bend_c, 1, 8192
2, 1163840, Pitch_bend_c, 1, 8192
2, 1163840, Note_off_c, 1, 67, 95
2, 1163840, Pitch_bend_c, 1, 8192
2, 1163840, Pitch_bend_c, 1, 8192
2, 1163840, Note_off_c, 1, 63, 95
2, 1163840, Note_on_c, 0, 75, 95
2, 1163840, Note_on_c, 0, 73, 95
2, 1163840, Note_on_c, 0, 67, 95
2, 1163840, Note_on_c, 0, 63, 95
2, 1164160, Note_off_c, 0, 75, 95
2, 1164160, Note_off_c, 0, 73, 95
2, 1164160, Note_off_c, 0, 67, 95
2, 1164160, Note_off_c, 0, 63, 95
2, 1164160, Note_on_c, 0, 75, 95
2, 1164160, Note_on_c, 0, 73, 95
2, 1164160, Note_on_c, 0, 67, 95
2, 1164160, Note_on_c, 0, 63, 95
2, 1164480, Note_off_c, 0, 75, 95
2, 1164480, Note_off_c, 0, 73, 95
2, 1164480, Note_off_c, 0, 67, 95
2, 1164480, Note_off_c, 0, 63, 95
2, 1164480, Note_on_c, 1, 75, 95
2, 1164480, Note_on_c, 1, 73, 95
2, 1164480, Note_on_c, 1, 67, 95
2, 1164480, Note_on_c, 1, 63, 95
2, 1164600, Pitch_bend_c, 1, 8192
2, 1164600, Pitch_bend_c, 1, 8192
2, 1164600, Pitch_bend_c, 1, 8192
2, 1164600, Pitch_bend_c, 1, 8192
2, 1164720, Pitch_bend_c, 1, 8192
2, 1164720, Pitch_bend_c, 1, 8192
2, 1164720, Pitch_bend_c, 1, 8192
2, 1164720, Pitch_bend_c, 1, 8192
2, 1164840, Pitch_bend_c, 1, 8192
2, 1164840, Pitch_bend_c, 1, 8192
2, 1164840, Pitch_bend_c, 1, 8192
2, 1164840, Pitch_bend_c, 1, 8192
2, 1164960, Pitch_bend_c, 1, 8192
2, 1164960, Pitch_bend_c, 1, 8192
2, 1164960, Pitch_bend_c, 1, 8192
2, 1164960, Pitch_bend_c, 1, 8192
2, 1165080, Pitch_bend_c, 1, 8192
2, 1165080, Pitch_bend_c, 1, 8192
2, 1165080, Pitch_bend_c, 1, 8192
2, 1165080, Pitch_bend_c, 1, 8192
2, 1165200, Pitch_bend_c, 1, 8192
2, 1165200, Pitch_bend_c, 1, 8192
2, 1165200, Pitch_bend_c, 1, 8192
2, 1165200, Pitch_bend_c, 1, 8192
2, 1165320, Pitch_bend_c, 1, 8192
2, 1165320, Pitch_bend_c, 1, 8192
2, 1165320, Pitch_bend_c, 1, 8192
2, 1165320, Pitch_bend_c, 1, 8192
2, 1165440, Pitch_bend_c, 1, 8192
2, 1165440, Pitch_bend_c, 1, 8192
2, 1165440, Pitch_bend_c, 1, 8192
2, 1165440, Pitch_bend_c, 1, 8192
2, 1165560, Pitch_bend_c, 1, 8192
2, 1165560, Pitch_bend_c, 1, 8192
2, 1165560, Pitch_bend_c, 1, 8192
2, 1165560, Pitch_bend_c, 1, 8192
2, 1165680, Pitch_bend_c, 1, 8192
2, 1165680, Pitch_bend_c, 1, 8192
2, 1165680, Pitch_bend_c, 1, 8192
2, 1165680, Pitch_bend_c, 1, 8192
2, 1165800, Pitch_bend_c, 1, 8192
2, 1165800, Pitch_bend_c, 1, 8192
2, 1165800, Pitch_bend_c, 1, 8192
2, 1165800, Pitch_bend_c, 1, 8192
2, 1165920, Pitch_bend_c, 1, 8192
2, 1165920, Pitch_bend_c, 1, 8192
2, 1165920, Pitch_bend_c, 1, 8192
2, 1165920, Pitch_bend_c, 1, 8192
2, 1166040, Pitch_bend_c, 1, 8192
2, 1166040, Pitch_bend_c, 1, 8192
2, 1166040, Pitch_bend_c, 1, 8192
2, 1166040, Pitch_bend_c, 1, 8192
2, 1166160, Pitch_bend_c, 1, 8192
2, 1166160, Pitch_bend_c, 1, 8192
2, 1166160, Pitch_bend_c, 1, 8192
2, 1166160, Pitch_bend_c, 1, 8192
2, 1166280, Pitch_bend_c, 1, 8192
2, 1166280, Pitch_bend_c, 1, 8192
2, 1166280, Pitch_bend_c, 1, 8192
2, 1166280, Pitch_bend_c, 1, 8192
2, 1166400, Pitch_bend_c, 1, 8192
2, 1166400, Pitch_bend_c, 1, 8192
2, 1166400, Note_off_c, 1, 75, 95
2, 1166400, Pitch_bend_c, 1, 8192
2, 1166400, Pitch_bend_c, 1, 8192
2, 1166400, Note_off_c, 1, 73, 95
2, 1166400, Pitch_bend_c, 1, 8192
2, 1166400, Pitch_bend_c, 1, 8192
2, 1166400, Note_off_c, 1, 67, 95
2, 1166400, Pitch_bend_c, 1, 8192
2, 1166400, Pitch_bend_c, 1, 8192
2, 1166400, Note_off_c, 1, 63, 95
2, 1166400, Note_on_c, 1, 75, 95
2, 1166400, Note_on_c, 1, 73, 95
2, 1166400, Note_on_c, 1, 67, 95
2, 1166400, Note_on_c, 1, 63, 95
2, 1166520, Pitch_bend_c, 1, 8192
2, 1166520, Pitch_bend_c, 1, 8192
2, 1166520, Pitch_bend_c, 1, 8192
2, 1166520, Pitch_bend_c, 1, 8192
2, 1166640, Pitch_bend_c, 1, 8192
2, 1166640, Pitch_bend_c, 1, 8192
2, 1166640, Pitch_bend_c, 1, 8192
2, 1166640, Pitch_bend_c, 1, 8192
2, 1166760, Pitch_bend_c, 1, 8192
2, 1166760, Pitch_bend_c, 1, 8192
2, 1166760, Pitch_bend_c, 1, 8192
2, 1166760, Pitch_bend_c, 1, 8192
2, 1166880, Pitch_bend_c, 1, 8192
2, 1166880, Pitch_bend_c, 1, 8192
2, 1166880, Pitch_bend_c, 1, 8192
2, 1166880, Pitch_bend_c, 1, 8192
2, 1167000, Pitch_bend_c, 1, 8192
2, 1167000, Pitch_bend_c, 1, 8192
2, 1167000, Pitch_bend_c, 1, 8192
2, 1167000, Pitch_bend_c, 1, 8192
2, 1167120, Pitch_bend_c, 1, 8192
2, 1167120, Pitch_bend_c, 1, 8192
2, 1167120, Pitch_bend_c, 1, 8192
2, 1167120, Pitch_bend_c, 1, 8192
2, 1167240, Pitch_bend_c, 1, 8192
2, 1167240, Pitch_bend_c, 1, 8192
2, 1167240, Pitch_bend_c, 1, 8192
2, 1167240, Pitch_bend_c, 1, 8192
2, 1167360, Pitch_bend_c, 1, 8192
2, 1167360, Pitch_bend_c, 1, 8192
2, 1167360, Note_off_c, 1, 75, 95
2, 1167360, Pitch_bend_c, 1, 8192
2, 1167360, Pitch_bend_c, 1, 8192
2, 1167360, Note_off_c, 1, 73, 95
2, 1167360, Pitch_bend_c, 1, 8192
2, 1167360, Pitch_bend_c, 1, 8192
2, 1167360, Note_off_c, 1, 67, 95
2, 1167360, Pitch_bend_c, 1, 8192
2, 1167360, Pitch_bend_c, 1, 8192
2, 1167360, Note_off_c, 1, 63, 95
2, 1167360, Note_on_c, 0, 75, 95
2, 1167360, Note_on_c, 0, 73, 95
2, 1167360, Note_on_c, 0, 67, 95
2, 1167360, Note_on_c, 0, 63, 95
2, 1167680, Note_off_c, 0, 75, 95
2, 1167680, Note_off_c, 0, 73, 95
2, 1167680, Note_off_c, 0, 67, 95
2, 1167680, Note_off_c, 0, 63, 95
2, 1167680, Note_on_c, 0, 75, 95
2, 1167680, Note_on_c, 0, 73, 95
2, 1167680, Note_on_c, 0, 67, 95
2, 1167680, Note_on_c, 0, 63, 95
2, 1168000, Note_off_c, 0, 75, 95
2, 1168000, Note_off_c, 0, 73, 95
2, 1168000, Note_off_c, 0, 67, 95
2, 1168000, Note_off_c, 0, 63, 95
2, 1168000, Note_on_c, 0, 75, 95
2, 1168000, Note_on_c, 0, 73, 95
2, 1168000, Note_on_c, 0, 67, 95
2, 1168000, Note_on_c, 0, 63, 95
2, 1168320, Note_off_c, 0, 75, 95
2, 1168320, Note_off_c, 0, 73, 95
2, 1168320, Note_off_c, 0, 67, 95
2, 1168320, Note_off_c, 0, 63, 95
2, 1168320, Note_on_c, 0, 75, 95
2, 1168320, Note_on_c, 0, 73, 95
2, 1168320, Note_on_c, 0, 67, 95
2, 1168320, Note_on_c, 0, 63, 95
2, 1168640, Note_off_c, 0, 75, 95
2, 1168640, Note_off_c, 0, 73, 95
2, 1168640, Note_off_c, 0, 67, 95
2, 1168640, Note_off_c, 0, 63, 95
2, 1168640, Note_on_c, 0, 75, 95
2, 1168640, Note_on_c, 0, 73, 95
2, 1168640, Note_on_c, 0, 67, 95
2, 1168640, Note_on_c, 0, 63, 95
2, 1168960, Note_off_c, 0, 75, 95
2, 1168960, Note_off_c, 0, 73, 95
2, 1168960, Note_off_c, 0, 67, 95
2, 1168960, Note_off_c, 0, 63, 95
2, 1168960, Note_on_c, 0, 75, 95
2, 1168960, Note_on_c, 0, 73, 95
2, 1168960, Note_on_c, 0, 67, 95
2, 1168960, Note_on_c, 0, 63, 95
2, 1169280, Note_off_c, 0, 75, 95
2, 1169280, Note_off_c, 0, 73, 95
2, 1169280, Note_off_c, 0, 67, 95
2, 1169280, Note_off_c, 0, 63, 95
2, 1169280, Note_on_c, 1, 75, 95
2, 1169280, Note_on_c, 1, 73, 95
2, 1169280, Note_on_c, 1, 67, 95
2, 1169280, Note_on_c, 1, 63, 95
2, 1169440, Pitch_bend_c, 1, 8192
2, 1169440, Pitch_bend_c, 1, 8192
2, 1169440, Pitch_bend_c, 1, 8192
2, 1169440, Pitch_bend_c, 1, 8192
2, 1169600, Pitch_bend_c, 1, 8192
2, 1169600, Pitch_bend_c, 1, 8192
2, 1169600, Note_off_c, 1, 75, 95
2, 1169600, Pitch_bend_c, 1, 8192
2, 1169600, Pitch_bend_c, 1, 8192
2, 1169600, Note_off_c, 1, 73, 95
2, 1169600, Pitch_bend_c, 1, 8192
2, 1169600, Pitch_bend_c, 1, 8192
2, 1169600, Note_off_c, 1, 67, 95
2, 1169600, Pitch_bend_c, 1, 8192
2, 1169600, Pitch_bend_c, 1, 8192
2, 1169600, Note_off_c, 1, 63, 95
2, 1169600, Note_on_c, 0, 75, 95
2, 1169600, Note_on_c, 0, 73, 95
2, 1169600, Note_on_c, 0, 67, 95
2, 1169600, Note_on_c, 0, 63, 95
2, 1169920, Note_off_c, 0, 75, 95
2, 1169920, Note_off_c, 0, 73, 95
2, 1169920, Note_off_c, 0, 67, 95
2, 1169920, Note_off_c, 0, 63, 95
2, 1169920, Note_on_c, 0, 75, 95
2, 1169920, Note_on_c, 0, 73, 95
2, 1169920, Note_on_c, 0, 67, 95
2, 1169920, Note_on_c, 0, 63, 95
2, 1170240, Note_off_c, 0, 75, 95
2, 1170240, Note_off_c, 0, 73, 95
2, 1170240, Note_off_c, 0, 67, 95
2, 1170240, Note_off_c, 0, 63, 95
2, 1170240, Note_on_c, 0, 75, 95
2, 1170240, Note_on_c, 0, 73, 95
2, 1170240, Note_on_c, 0, 67, 95
2, 1170240, Note_on_c, 0, 63, 95
2, 1170560, Note_off_c, 0, 75, 95
2, 1170560, Note_off_c, 0, 73, 95
2, 1170560, Note_off_c, 0, 67, 95
2, 1170560, Note_off_c, 0, 63, 95
2, 1170560, Note_on_c, 0, 75, 95
2, 1170560, Note_on_c, 0, 73, 95
2, 1170560, Note_on_c, 0, 67, 95
2, 1170560, Note_on_c, 0, 63, 95
2, 1170880, Note_off_c, 0, 75, 95
2, 1170880, Note_off_c, 0, 73, 95
2, 1170880, Note_off_c, 0, 67, 95
2, 1170880, Note_off_c, 0, 63, 95
2, 1170880, Note_on_c, 0, 75, 95
2, 1170880, Note_on_c, 0, 73, 95
2, 1170880, Note_on_c, 0, 67, 95
2, 1170880, Note_on_c, 0, 63, 95
2, 1171200, Note_off_c, 0, 75, 95
2, 1171200, Note_off_c, 0, 73, 95
2, 1171200, Note_off_c, 0, 67, 95
2, 1171200, Note_off_c, 0, 63, 95
2, 1171200, Note_on_c, 1, 75, 95
2, 1171200, Note_on_c, 1, 73, 95
2, 1171200, Note_on_c, 1, 67, 95
2, 1171200, Note_on_c, 1, 63, 95
2, 1171360, Pitch_bend_c, 1, 8192
2, 1171360, Pitch_bend_c, 1, 8192
2, 1171360, Pitch_bend_c, 1, 8192
2, 1171360, Pitch_bend_c, 1, 8192
2, 1171520, Pitch_bend_c, 1, 8192
2, 1171520, Pitch_bend_c, 1, 8192
2, 1171520, Note_off_c, 1, 75, 95
2, 1171520, Pitch_bend_c, 1, 8192
2, 1171520, Pitch_bend_c, 1, 8192
2, 1171520, Note_off_c, 1, 73, 95
2, 1171520, Pitch_bend_c, 1, 8192
2, 1171520, Pitch_bend_c, 1, 8192
2, 1171520, Note_off_c, 1, 67, 95
2, 1171520, Pitch_bend_c, 1, 8192
2, 1171520, Pitch_bend_c, 1, 8192
2, 1171520, Note_off_c, 1, 63, 95
2, 1171520, Note_on_c, 0, 75, 95
2, 1171520, Note_on_c, 0, 73, 95
2, 1171520, Note_on_c, 0, 67, 95
2, 1171520, Note_on_c, 0, 63, 95
2, 1171840, Note_off_c, 0, 75, 95
2, 1171840, Note_off_c, 0, 73, 95
2, 1171840, Note_off_c, 0, 67, 95
2, 1171840, Note_off_c, 0, 63, 95
2, 1171840, Note_on_c, 0, 75, 95
2, 1171840, Note_on_c, 0, 73, 95
2, 1171840, Note_on_c, 0, 67, 95
2, 1171840, Note_on_c, 0, 63, 95
2, 1172160, Note_off_c, 0, 75, 95
2, 1172160, Note_off_c, 0, 73, 95
2, 1172160, Note_off_c, 0, 67, 95
2, 1172160, Note_off_c, 0, 63, 95
2, 1172160, Note_on_c, 0, 75, 95
2, 1172160, Note_on_c, 0, 73, 95
2, 1172160, Note_on_c, 0, 67, 95
2, 1172160, Note_on_c, 0, 63, 95
2, 1172640, Note_off_c, 0, 75, 95
2, 1172640, Note_off_c, 0, 73, 95
2, 1172640, Note_off_c, 0, 67, 95
2, 1172640, Note_off_c, 0, 63, 95
2, 1172640, Note_on_c, 0, 75, 95
2, 1172640, Note_on_c, 0, 73, 95
2, 1172640, Note_on_c, 0, 67, 95
2, 1172640, Note_on_c, 0, 63, 95
2, 1173120, Note_off_c, 0, 75, 95
2, 1173120, Note_off_c, 0, 73, 95
2, 1173120, Note_off_c, 0, 67, 95
2, 1173120, Note_off_c, 0, 63, 95
2, 1173120, Note_on_c, 1, 75, 95
2, 1173120, Note_on_c, 1, 73, 95
2, 1173120, Note_on_c, 1, 67, 95
2, 1173120, Note_on_c, 1, 63, 95
2, 1173240, Pitch_bend_c, 1, 8192
2, 1173240, Pitch_bend_c, 1, 8192
2, 1173240, Pitch_bend_c, 1, 8192
2, 1173360, Pitch_bend_c, 1, 8192
2, 1173360, Pitch_bend_c, 1, 8192
2, 1173360, Pitch_bend_c, 1, 8192
2, 1173480, Pitch_bend_c, 1, 8192
2, 1173480, Pitch_bend_c, 1, 8192
2, 1173480, Pitch_bend_c, 1, 8192
2, 1173600, Pitch_bend_c, 1, 8192
2, 1173600, Pitch_bend_c, 1, 8192
2, 1173600, Pitch_bend_c, 1, 8192
2, 1173720, Pitch_bend_c, 1, 8192
2, 1173720, Pitch_bend_c, 1, 8192
2, 1173720, Pitch_bend_c, 1, 8192
2, 1173840, Pitch_bend_c, 1, 8192
2, 1173840, Pitch_bend_c, 1, 8192
2, 1173840, Pitch_bend_c, 1, 8192
2, 1173960, Pitch_bend_c, 1, 8192
2, 1173960, Pitch_bend_c, 1, 8192
2, 1173960, Pitch_bend_c, 1, 8192
2, 1174080, Note_off_c, 1, 75, 95
2, 1174080, Pitch_bend_c, 1, 8192
2, 1174080, Pitch_bend_c, 1, 8192
2, 1174080, Note_off_c, 1, 73, 95
2, 1174080, Pitch_bend_c, 1, 8192
2, 1174080, Pitch_bend_c, 1, 8192
2, 1174080, Note_off_c, 1, 67, 95
2, 1174080, Pitch_bend_c, 1, 8192
2, 1174080, Pitch_bend_c, 1, 8192
2, 1174080, Note_off_c, 1, 63, 95
2, 1174080, Note_on_c, 0, 73, 95
2, 1174080, Note_on_c, 0, 67, 95
2, 1174080, Note_on_c, 0, 63, 95
2, 1174560, Note_off_c, 0, 73, 95
2, 1174560, Note_off_c, 0, 67, 95
2, 1174560, Note_off_c, 0, 63, 95
2, 1174560, Note_on_c, 0, 75, 95
2, 1174560, Note_on_c, 0, 73, 95
2, 1175040, Note_off_c, 0, 75, 95
2, 1175040, Note_off_c, 0, 73, 95
2, 1175040, Pitch_bend_c, 1, 8192
2, 1175040, Note_on_c, 1, 66, 95
2, 1175070, Pitch_bend_c, 1, 8320
2, 1175100, Pitch_bend_c, 1, 8448
2, 1175130, Pitch_bend_c, 1, 8576
2, 1175160, Pitch_bend_c, 1, 8704
2, 1175190, Pitch_bend_c, 1, 8832
2, 1175220, Pitch_bend_c, 1, 8960
2, 1175250, Pitch_bend_c, 1, 9088
2, 1175280, Pitch_bend_c, 1, 9216
2, 1175280, Pitch_bend_c, 1, 9216
2, 1175520, Pitch_bend_c, 1, 9216
2, 1175520, Pitch_bend_c, 1, 8192
2, 1175520, Note_off_c, 1, 66, 95
2, 1175520, Note_on_c, 1, 63, 95
2, 1176960, Note_off_c, 1, 63, 95
2, 1176960, Note_on_c, 1, 46, 95
2, 1177920, Note_off_c, 1, 46, 95
2, 1177920, Pitch_bend_c, 1, 8192
2, 1177920, Note_on_c, 1, 61, 95
2, 1178400, Pitch_bend_c, 1, 8320
2, 1178880, Pitch_bend_c, 1, 8448
2, 1178880, Pitch_bend_c, 1, 8448
2, 1179840, Pitch_bend_c, 1, 8448
2, 1179840, Pitch_bend_c, 1, 8192
2, 1179840, Note_off_c, 1, 61, 95
2, 1179840, Note_on_c, 1, 46, 95
2, 1180800, Note_off_c, 1, 46, 95
2, 1180800, Pitch_bend_c, 1, 8192
2, 1180800, Note_on_c, 1, 61, 95
2, 1180920, Pitch_bend_c, 1, 8320
2, 1181040, Pitch_bend_c, 1, 8448
2, 1181040, Pitch_bend_c, 1, 8448
2, 1181280, Pitch_bend_c, 1, 8448
2, 1181280, Pitch_bend_c, 1, 8192
2, 1181280, Note_off_c, 1, 61, 95
2, 1181280, Note_on_c, 0, 58, 95
2, 1181760, Note_off_c, 0, 58, 95
2, 1181760, Pitch_bend_c, 1, 8192
2, 1181760, Note_on_c, 1, 61, 95
2, 1181880, Pitch_bend_c, 1, 8320
2, 1182000, Pitch_bend_c, 1, 8448
2, 1182000, Pitch_bend_c, 1, 8448
2, 1182240, Pitch_bend_c, 1, 8448
2, 1182240, Pitch_bend_c, 1, 8192
2, 1182240, Note_off_c, 1, 61, 95
2, 1182240, Note_on_c, 0, 58, 95
2, 1182720, Note_off_c, 0, 58, 95
2, 1182720, Pitch_bend_c, 1, 8192
2, 1182720, Note_on_c, 1, 61, 95
2, 1182840, Pitch_bend_c, 1, 8320
2, 1182960, Pitch_bend_c, 1, 8448
2, 1182960, Pitch_bend_c, 1, 8448
2, 1183200, Pitch_bend_c, 1, 8448
2, 1183200, Pitch_bend_c, 1, 8192
2, 1183200, Note_off_c, 1, 61, 95
2, 1183200, Note_on_c, 0, 54, 95
2, 1183520, Note_off_c, 0, 54, 95
2, 1183520, Note_on_c, 0, 56, 95
2, 1183840, Note_off_c, 0, 56, 95
2, 1183840, Note_on_c, 0, 57, 95
2, 1184160, Note_off_c, 0, 57, 95
2, 1184160, Note_on_c, 0, 58, 95
2, 1184640, Note_off_c, 0, 58, 95
2, 1184640, Pitch_bend_c, 1, 8192
2, 1184640, Note_on_c, 1, 61, 95
2, 1184760, Pitch_bend_c, 1, 8320
2, 1184880, Pitch_bend_c, 1, 8448
2, 1184880, Pitch_bend_c, 1, 8448
2, 1185120, Pitch_bend_c, 1, 8448
2, 1185120, Pitch_bend_c, 1, 8192
2, 1185120, Note_off_c, 1, 61, 95
2, 1185120, Note_on_c, 0, 58, 95
2, 1185440, Note_off_c, 0, 58, 95
2, 1185440, Note_on_c, 0, 56, 95
2, 1185760, Note_off_c, 0, 56, 95
2, 1185760, Note_on_c, 0, 54, 95
2, 1186080, Note_off_c, 0, 54, 95
2, 1186080, Note_on_c, 0, 51, 95
2, 1186560, Note_off_c, 0, 51, 95
2, 1186560, Pitch_bend_c, 1, 8192
2, 1186560, Note_on_c, 1, 68, 95
2, 1186647, Pitch_bend_c, 1, 8320
2, 1186734, Pitch_bend_c, 1, 8448
2, 1186821, Pitch_bend_c, 1, 8576
2, 1186908, Pitch_bend_c, 1, 8704
2, 1186995, Pitch_bend_c, 1, 8832
2, 1187082, Pitch_bend_c, 1, 8960
2, 1187169, Pitch_bend_c, 1, 9088
2, 1187256, Pitch_bend_c, 1, 9216
2, 1187343, Pitch_bend_c, 1, 9344
2, 1187430, Pitch_bend_c, 1, 9472
2, 1187517, Pitch_bend_c, 1, 9600
2, 1187520, Pitch_bend_c, 1, 9600
2, 1188480, Pitch_bend_c, 1, 9600
2, 1188480, Pitch_bend_c, 1, 8192
2, 1188480, Note_off_c, 1, 68, 95
2, 1188480, Pitch_bend_c, 1, 8192
2, 1188480, Note_on_c, 1, 70, 95
2, 1188576, Pitch_bend_c, 1, 8320
2, 1188672, Pitch_bend_c, 1, 8448
2, 1188768, Pitch_bend_c, 1, 8576
2, 1188864, Pitch_bend_c, 1, 8704
2, 1188960, Pitch_bend_c, 1, 8832
2, 1188960, Pitch_bend_c, 1, 8832
2, 1189440, Pitch_bend_c, 1, 8832
2, 1189440, Pitch_bend_c, 1, 8192
2, 1189440, Note_off_c, 1, 70, 95
2, 1189440, Pitch_bend_c, 1, 8832
2, 1189440, Note_on_c, 1, 68, 95
2, 1189480, Pitch_bend_c, 1, 8960
2, 1189520, Pitch_bend_c, 1, 9088
2, 1189560, Pitch_bend_c, 1, 9216
2, 1189600, Pitch_bend_c, 1, 9344
2, 1189640, Pitch_bend_c, 1, 9472
2, 1189680, Pitch_bend_c, 1, 9600
2, 1189680, Pitch_bend_c, 1, 9600
2, 1189920, Pitch_bend_c, 1, 9600
2, 1189920, Pitch_bend_c, 1, 8192
2, 1189920, Note_off_c, 1, 68, 95
2, 1189920, Pitch_bend_c, 1, 8192
2, 1189920, Note_on_c, 1, 70, 95
2, 1190040, Pitch_bend_c, 1, 8320
2, 1190160, Pitch_bend_c, 1, 8448
2, 1190160, Pitch_bend_c, 1, 8448
2, 1190400, Pitch_bend_c, 1, 8448
2, 1190400, Pitch_bend_c, 1, 8192
2, 1190400, Note_off_c, 1, 70, 95
2, 1190400, Note_on_c, 0, 58, 47
2, 1190880, Note_off_c, 0, 58, 47
2, 1190880, Pitch_bend_c, 1, 8192
2, 1190880, Note_on_c, 1, 80, 95
2, 1190935, Pitch_bend_c, 1, 8320
2, 1190990, Pitch_bend_c, 1, 8448
2, 1191045, Pitch_bend_c, 1, 8576
2, 1191100, Pitch_bend_c, 1, 8704
2, 1191155, Pitch_bend_c, 1, 8832
2, 1191210, Pitch_bend_c, 1, 8960
2, 1191265, Pitch_bend_c, 1, 9088
2, 1191320, Pitch_bend_c, 1, 9216
2, 1191375, Pitch_bend_c, 1, 9344
2, 1191430, Pitch_bend_c, 1, 9472
2, 1191485, Pitch_bend_c, 1, 9600
2, 1191540, Pitch_bend_c, 1, 9728
2, 1191595, Pitch_bend_c, 1, 9856
2, 1191600, Pitch_bend_c, 1, 9856
2, 1192320, Pitch_bend_c, 1, 9856
2, 1192320, Pitch_bend_c, 1, 8192
2, 1192320, Note_off_c, 1, 80, 95
2, 1192320, Pitch_bend_c, 1, 8192
2, 1192320, Note_on_c, 1, 80, 95
2, 1192356, Pitch_bend_c, 1, 8320
2, 1192392, Pitch_bend_c, 1, 8448
2, 1192428, Pitch_bend_c, 1, 8576
2, 1192464, Pitch_bend_c, 1, 8704
2, 1192500, Pitch_bend_c, 1, 8832
2, 1192536, Pitch_bend_c, 1, 8960
2, 1192572, Pitch_bend_c, 1, 9088
2, 1192608, Pitch_bend_c, 1, 9216
2, 1192644, Pitch_bend_c, 1, 9344
2, 1192680, Pitch_bend_c, 1, 9472
2, 1192716, Pitch_bend_c, 1, 9600
2, 1192752, Pitch_bend_c, 1, 9728
2, 1192788, Pitch_bend_c, 1, 9856
2, 1192800, Pitch_bend_c, 1, 9856
2, 1193280, Pitch_bend_c, 1, 9856
2, 1193280, Pitch_bend_c, 1, 8192
2, 1193280, Note_off_c, 1, 80, 95
2, 1193280, Pitch_bend_c, 1, 8192
2, 1193280, Note_on_c, 1, 80, 95
2, 1193298, Pitch_bend_c, 1, 8320
2, 1193316, Pitch_bend_c, 1, 8448
2, 1193334, Pitch_bend_c, 1, 8576
2, 1193352, Pitch_bend_c, 1, 8704
2, 1193370, Pitch_bend_c, 1, 8832
2, 1193388, Pitch_bend_c, 1, 8960
2, 1193406, Pitch_bend_c, 1, 9088
2, 1193424, Pitch_bend_c, 1, 9216
2, 1193442, Pitch_bend_c, 1, 9344
2, 1193460, Pitch_bend_c, 1, 9472
2, 1193478, Pitch_bend_c, 1, 9600
2, 1193496, Pitch_bend_c, 1, 9728
2, 1193514, Pitch_bend_c, 1, 9856
2, 1193520, Pitch_bend_c, 1, 9856
2, 1193760, Pitch_bend_c, 1, 9856
2, 1193760, Pitch_bend_c, 1, 8192
2, 1193760, Note_off_c, 1, 80, 95
2, 1193760, Pitch_bend_c, 1, 8192
2, 1193760, Note_on_c, 1, 80, 95
2, 1193778, Pitch_bend_c, 1, 8320
2, 1193796, Pitch_bend_c, 1, 8448
2, 1193814, Pitch_bend_c, 1, 8576
2, 1193832, Pitch_bend_c, 1, 8704
2, 1193850, Pitch_bend_c, 1, 8832
2, 1193868, Pitch_bend_c, 1, 8960
2, 1193886, Pitch_bend_c, 1, 9088
2, 1193904, Pitch_bend_c, 1, 9216
2, 1193922, Pitch_bend_c, 1, 9344
2, 1193940, Pitch_bend_c, 1, 9472
2, 1193958, Pitch_bend_c, 1, 9600
2, 1193976, Pitch_bend_c, 1, 9728
2, 1193994, Pitch_bend_c, 1, 9856
2, 1194000, Pitch_bend_c, 1, 9856
2, 1194240, Pitch_bend_c, 1, 9856
2, 1194240, Pitch_bend_c, 1, 8192
2, 1194240, Note_off_c, 1, 80, 95
2, 1194240, Pitch_bend_c, 1, 8192
2, 1194240, Note_on_c, 1, 80, 95
2, 1194252, Pitch_bend_c, 1, 8320
2, 1194264, Pitch_bend_c, 1, 8448
2, 1194276, Pitch_bend_c, 1, 8576
2, 1194288, Pitch_bend_c, 1, 8704
2, 1194300, Pitch_bend_c, 1, 8832
2, 1194312, Pitch_bend_c, 1, 8960
2, 1194324, Pitch_bend_c, 1, 9088
2, 1194336, Pitch_bend_c, 1, 9216
2, 1194348, Pitch_bend_c, 1, 9344
2, 1194360, Pitch_bend_c, 1, 9472
2, 1194372, Pitch_bend_c, 1, 9600
2, 1194384, Pitch_bend_c, 1, 9728
2, 1194396, Pitch_bend_c, 1, 9856
2, 1194400, Pitch_bend_c, 1, 9856
2, 1194560, Pitch_bend_c, 1, 9856
2, 1194560, Pitch_bend_c, 1, 8192
2, 1194560, Note_off_c, 1, 80, 95
2, 1194560, Pitch_bend_c, 1, 8192
2, 1194560, Note_on_c, 1, 80, 95
2, 1194572, Pitch_bend_c, 1, 8320
2, 1194584, Pitch_bend_c, 1, 8448
2, 1194596, Pitch_bend_c, 1, 8576
2, 1194608, Pitch_bend_c, 1, 8704
2, 1194620, Pitch_bend_c, 1, 8832
2, 1194632, Pitch_bend_c, 1, 8960
2, 1194644, Pitch_bend_c, 1, 9088
2, 1194656, Pitch_bend_c, 1, 9216
2, 1194668, Pitch_bend_c, 1, 9344
2, 1194680, Pitch_bend_c, 1, 9472
2, 1194692, Pitch_bend_c, 1, 9600
2, 1194704, Pitch_bend_c, 1, 9728
2, 1194716, Pitch_bend_c, 1, 9856
2, 1194720, Pitch_bend_c, 1, 9856
2, 1194880, Pitch_bend_c, 1, 9856
2, 1194880, Pitch_bend_c, 1, 8192
2, 1194880, Note_off_c, 1, 80, 95
2, 1194880, Pitch_bend_c, 1, 8192
2, 1194880, Note_on_c, 1, 80, 95
2, 1194892, Pitch_bend_c, 1, 8320
2, 1194904, Pitch_bend_c, 1, 8448
2, 1194916, Pitch_bend_c, 1, 8576
2, 1194928, Pitch_bend_c, 1, 8704
2, 1194940, Pitch_bend_c, 1, 8832
2, 1194952, Pitch_bend_c, 1, 8960
2, 1194964, Pitch_bend_c, 1, 9088
2, 1194976, Pitch_bend_c, 1, 9216
2, 1194988, Pitch_bend_c, 1, 9344
2, 1195000, Pitch_bend_c, 1, 9472
2, 1195012, Pitch_bend_c, 1, 9600
2, 1195024, Pitch_bend_c, 1, 9728
2, 1195036, Pitch_bend_c, 1, 9856
2, 1195040, Pitch_bend_c, 1, 9856
2, 1195200, Pitch_bend_c, 1, 9856
2, 1195200, Pitch_bend_c, 1, 8192
2, 1195200, Note_off_c, 1, 80, 95
2, 1195200, Pitch_bend_c, 1, 8192
2, 1195200, Note_on_c, 1, 80, 95
2, 1195209, Pitch_bend_c, 1, 8320
2, 1195218, Pitch_bend_c, 1, 8448
2, 1195227, Pitch_bend_c, 1, 8576
2, 1195236, Pitch_bend_c, 1, 8704
2, 1195245, Pitch_bend_c, 1, 8832
2, 1195254, Pitch_bend_c, 1, 8960
2, 1195263, Pitch_bend_c, 1, 9088
2, 1195272, Pitch_bend_c, 1, 9216
2, 1195281, Pitch_bend_c, 1, 9344
2, 1195290, Pitch_bend_c, 1, 9472
2, 1195299, Pitch_bend_c, 1, 9600
2, 1195308, Pitch_bend_c, 1, 9728
2, 1195317, Pitch_bend_c, 1, 9856
2, 1195320, Pitch_bend_c, 1, 9856
2, 1195440, Pitch_bend_c, 1, 9856
2, 1195440, Pitch_bend_c, 1, 8192
2, 1195440, Note_off_c, 1, 80, 95
2, 1195440, Pitch_bend_c, 1, 8192
2, 1195440, Note_on_c, 1, 80, 95
2, 1195449, Pitch_bend_c, 1, 8320
2, 1195458, Pitch_bend_c, 1, 8448
2, 1195467, Pitch_bend_c, 1, 8576
2, 1195476, Pitch_bend_c, 1, 8704
2, 1195485, Pitch_bend_c, 1, 8832
2, 1195494, Pitch_bend_c, 1, 8960
2, 1195503, Pitch_bend_c, 1, 9088
2, 1195512, Pitch_bend_c, 1, 9216
2, 1195521, Pitch_bend_c, 1, 9344
2, 1195530, Pitch_bend_c, 1, 9472
2, 1195539, Pitch_bend_c, 1, 9600
2, 1195548, Pitch_bend_c, 1, 9728
2, 1195557, Pitch_bend_c, 1, 9856
2, 1195560, Pitch_bend_c, 1, 9856
2, 1195680, Pitch_bend_c, 1, 9856
2, 1195680, Pitch_bend_c, 1, 8192
2, 1195680, Note_off_c, 1, 80, 95
2, 1195680, Pitch_bend_c, 1, 8192
2, 1195680, Note_on_c, 1, 80, 95
2, 1195689, Pitch_bend_c, 1, 8320
2, 1195698, Pitch_bend_c, 1, 8448
2, 1195707, Pitch_bend_c, 1, 8576
2, 1195716, Pitch_bend_c, 1, 8704
2, 1195725, Pitch_bend_c, 1, 8832
2, 1195734, Pitch_bend_c, 1, 8960
2, 1195743, Pitch_bend_c, 1, 9088
2, 1195752, Pitch_bend_c, 1, 9216
2, 1195761, Pitch_bend_c, 1, 9344
2, 1195770, Pitch_bend_c, 1, 9472
2, 1195779, Pitch_bend_c, 1, 9600
2, 1195788, Pitch_bend_c, 1, 9728
2, 1195797, Pitch_bend_c, 1, 9856
2, 1195800, Pitch_bend_c, 1, 9856
2, 1195920, Pitch_bend_c, 1, 9856
2, 1195920, Pitch_bend_c, 1, 8192
2, 1195920, Note_off_c, 1, 80, 95
2, 1195920, Pitch_bend_c, 1, 8192
2, 1195920, Note_on_c, 1, 80, 95
2, 1195926, Pitch_bend_c, 1, 8320
2, 1195932, Pitch_bend_c, 1, 8448
2, 1195938, Pitch_bend_c, 1, 8576
2, 1195944, Pitch_bend_c, 1, 8704
2, 1195950, Pitch_bend_c, 1, 8832
2, 1195956, Pitch_bend_c, 1, 8960
2, 1195962, Pitch_bend_c, 1, 9088
2, 1195968, Pitch_bend_c, 1, 9216
2, 1195974, Pitch_bend_c, 1, 9344
2, 1195980, Pitch_bend_c, 1, 9472
2, 1195986, Pitch_bend_c, 1, 9600
2, 1195992, Pitch_bend_c, 1, 9728
2, 1195998, Pitch_bend_c, 1, 9856
2, 1196000, Pitch_bend_c, 1, 9856
2, 1196080, Pitch_bend_c, 1, 9856
2, 1196080, Pitch_bend_c, 1, 8192
2, 1196080, Note_off_c, 1, 80, 95
2, 1196080, Pitch_bend_c, 1, 8192
2, 1196080, Note_on_c, 1, 80, 95
2, 1196086, Pitch_bend_c, 1, 8320
2, 1196092, Pitch_bend_c, 1, 8448
2, 1196098, Pitch_bend_c, 1, 8576
2, 1196104, Pitch_bend_c, 1, 8704
2, 1196110, Pitch_bend_c, 1, 8832
2, 1196116, Pitch_bend_c, 1, 8960
2, 1196122, Pitch_bend_c, 1, 9088
2, 1196128, Pitch_bend_c, 1, 9216
2, 1196134, Pitch_bend_c, 1, 9344
2, 1196140, Pitch_bend_c, 1, 9472
2, 1196146, Pitch_bend_c, 1, 9600
2, 1196152, Pitch_bend_c, 1, 9728
2, 1196158, Pitch_bend_c, 1, 9856
2, 1196160, Pitch_bend_c, 1, 9856
2, 1196240, Pitch_bend_c, 1, 9856
2, 1196240, Pitch_bend_c, 1, 8192
2, 1196240, Note_off_c, 1, 80, 95
2, 1196240, Note_on_c, 0, 80, 95
2, 1196400, Note_off_c, 0, 80, 95
2, 1196400, Pitch_bend_c, 1, 8192
2, 1196400, Note_on_c, 1, 80, 95
2, 1196473, Pitch_bend_c, 1, 8320
2, 1196546, Pitch_bend_c, 1, 8448
2, 1196619, Pitch_bend_c, 1, 8576
2, 1196692, Pitch_bend_c, 1, 8704
2, 1196765, Pitch_bend_c, 1, 8832
2, 1196838, Pitch_bend_c, 1, 8960
2, 1196911, Pitch_bend_c, 1, 9088
2, 1196984, Pitch_bend_c, 1, 9216
2, 1197057, Pitch_bend_c, 1, 9344
2, 1197130, Pitch_bend_c, 1, 9472
2, 1197203, Pitch_bend_c, 1, 9600
2, 1197276, Pitch_bend_c, 1, 9728
2, 1197349, Pitch_bend_c, 1, 9856
2, 1197360, Pitch_bend_c, 1, 9856
2, 1198320, Pitch_bend_c, 1, 9856
2, 1198320, Pitch_bend_c, 1, 8192
2, 1198320, Note_off_c, 1, 80, 95
2, 1198320, Pitch_bend_c, 1, 8192
2, 1198320, Note_on_c, 1, 80, 95
2, 1198325, Pitch_bend_c, 1, 8320
2, 1198330, Pitch_bend_c, 1, 8448
2, 1198335, Pitch_bend_c, 1, 8576
2, 1198340, Pitch_bend_c, 1, 8704
2, 1198345, Pitch_bend_c, 1, 8832
2, 1198350, Pitch_bend_c, 1, 8960
2, 1198355, Pitch_bend_c, 1, 9088
2, 1198360, Pitch_bend_c, 1, 9216
2, 1198365, Pitch_bend_c, 1, 9344
2, 1198370, Pitch_bend_c, 1, 9472
2, 1198375, Pitch_bend_c, 1, 9600
2, 1198380, Pitch_bend_c, 1, 9600
2, 1198440, Pitch_bend_c, 1, 9600
2, 1198445, Pitch_bend_c, 1, 9472
2, 1198450, Pitch_bend_c, 1, 9344
2, 1198455, Pitch_bend_c, 1, 9216
2, 1198460, Pitch_bend_c, 1, 9088
2, 1198465, Pitch_bend_c, 1, 8960
2, 1198470, Pitch_bend_c, 1, 8832
2, 1198475, Pitch_bend_c, 1, 8704
2, 1198480, Pitch_bend_c, 1, 8576
2, 1198485, Pitch_bend_c, 1, 8448
2, 1198490, Pitch_bend_c, 1, 8320
2, 1198495, Pitch_bend_c, 1, 8192
2, 1198500, Pitch_bend_c, 1, 8192
2, 1198560, Pitch_bend_c, 1, 8192
2, 1198560, Pitch_bend_c, 1, 8192
2, 1198560, Note_off_c, 1, 80, 95
2, 1198560, Note_on_c, 0, 78, 95
2, 1198800, Note_off_c, 0, 78, 95
2, 1198800, Note_on_c, 0, 75, 95
2, 1199040, Note_off_c, 0, 75, 95
2, 1199040, Pitch_bend_c, 1, 8192
2, 1199040, Note_on_c, 1, 80, 95
2, 1199160, Pitch_bend_c, 1, 8320
2, 1199280, Pitch_bend_c, 1, 8448
2, 1199280, Pitch_bend_c, 1, 8448
2, 1199520, Pitch_bend_c, 1, 8448
2, 1199520, Pitch_bend_c, 1, 8192
2, 1199520, Note_off_c, 1, 80, 95
2, 1199520, Pitch_bend_c, 1, 8192
2, 1199520, Note_on_c, 1, 78, 95
2, 1199580, Pitch_bend_c, 1, 8320
2, 1199640, Pitch_bend_c, 1, 8448
2, 1199640, Pitch_bend_c, 1, 8448
2, 1199760, Pitch_bend_c, 1, 8448
2, 1199760, Pitch_bend_c, 1, 8192
2, 1199760, Note_off_c, 1, 78, 95
2, 1199760, Note_on_c, 0, 80, 95
2, 1200000, Note_off_c, 0, 80, 95
2, 1200000, Pitch_bend_c, 1, 8192
2, 1200000, Note_on_c, 1, 78, 70
2, 1200060, Pitch_bend_c, 1, 8320
2, 1200120, Pitch_bend_c, 1, 8448
2, 1200120, Pitch_bend_c, 1, 8448
2, 1200240, Pitch_bend_c, 1, 8448
2, 1200240, Pitch_bend_c, 1, 8192
2, 1200240, Note_off_c, 1, 78, 70
2, 1200240, Pitch_bend_c, 1, 8192
2, 1200240, Note_on_c, 1, 75, 95
2, 1200300, Pitch_bend_c, 1, 8320
2, 1200360, Pitch_bend_c, 1, 8448
2, 1200360, Pitch_bend_c, 1, 8448
2, 1200480, Pitch_bend_c, 1, 8448
2, 1200480, Pitch_bend_c, 1, 8192
2, 1200480, Note_off_c, 1, 75, 95
2, 1200480, Note_on_c, 0, 78, 95
2, 1200600, Note_off_c, 0, 78, 95
2, 1200600, Note_on_c, 0, 80, 70
2, 1200720, Note_off_c, 0, 80, 70
2, 1200720, Note_on_c, 0, 78, 70
2, 1200840, Note_off_c, 0, 78, 70
2, 1200840, Note_on_c, 0, 75, 95
2, 1201080, Note_off_c, 0, 75, 95
2, 1201080, Pitch_bend_c, 1, 8192
2, 1201080, Note_on_c, 1, 78, 95
2, 1201200, Pitch_bend_c, 1, 8320
2, 1201320, Pitch_bend_c, 1, 8448
2, 1201320, Pitch_bend_c, 1, 8448
2, 1201560, Pitch_bend_c, 1, 8448
2, 1201560, Pitch_bend_c, 1, 8192
2, 1201560, Note_off_c, 1, 78, 95
2, 1201560, Note_on_c, 0, 75, 95
2, 1201920, Note_off_c, 0, 75, 95
2, 1201920, Pitch_bend_c, 1, 8192
2, 1201920, Note_on_c, 1, 75, 95
2, 1201938, Pitch_bend_c, 1, 8320
2, 1201956, Pitch_bend_c, 1, 8448
2, 1201974, Pitch_bend_c, 1, 8576
2, 1201992, Pitch_bend_c, 1, 8704
2, 1202010, Pitch_bend_c, 1, 8832
2, 1202028, Pitch_bend_c, 1, 8960
2, 1202046, Pitch_bend_c, 1, 9088
2, 1202064, Pitch_bend_c, 1, 9216
2, 1202082, Pitch_bend_c, 1, 9344
2, 1202100, Pitch_bend_c, 1, 9472
2, 1202118, Pitch_bend_c, 1, 9600
2, 1202136, Pitch_bend_c, 1, 9728
2, 1202154, Pitch_bend_c, 1, 9856
2, 1202160, Pitch_bend_c, 1, 9856
2, 1202400, Pitch_bend_c, 1, 9856
2, 1202400, Pitch_bend_c, 1, 8192
2, 1202400, Note_off_c, 1, 75, 95
2, 1202400, Pitch_bend_c, 1, 8192
2, 1202400, Note_on_c, 1, 75, 95
2, 1202460, Pitch_bend_c, 1, 8320
2, 1202520, Pitch_bend_c, 1, 8448
2, 1202520, Pitch_bend_c, 1, 8448
2, 1202640, Pitch_bend_c, 1, 8448
2, 1202640, Pitch_bend_c, 1, 8192
2, 1202640, Note_off_c, 1, 75, 95
2, 1202640, Pitch_bend_c, 1, 8192
2, 1202640, Note_on_c, 1, 73, 95
2, 1202700, Pitch_bend_c, 1, 8320
2, 1202760, Pitch_bend_c, 1, 8448
2, 1202760, Pitch_bend_c, 1, 8448
2, 1202880, Pitch_bend_c, 1, 8448
2, 1202880, Pitch_bend_c, 1, 8192
2, 1202880, Note_off_c, 1, 73, 95
2, 1202880, Pitch_bend_c, 1, 8192
2, 1202880, Note_on_c, 1, 75, 95
2, 1203000, Pitch_bend_c, 1, 8320
2, 1203120, Pitch_bend_c, 1, 8448
2, 1203120, Pitch_bend_c, 1, 8448
2, 1203360, Pitch_bend_c, 1, 8448
2, 1203360, Pitch_bend_c, 1, 8192
2, 1203360, Note_off_c, 1, 75, 95
2, 1203360, Note_on_c, 1, 73, 95
2, 1203480, Pitch_bend_c, 1, 7168
2, 1203600, Pitch_bend_c, 1, 6144
2, 1203600, Pitch_bend_c, 1, 8192
2, 1203600, Note_off_c, 1, 73, 95
2, 1203600, Note_on_c, 0, 70, 95
2, 1203840, Note_off_c, 0, 70, 95
2, 1203840, Note_on_c, 0, 73, 70
2, 1204080, Note_off_c, 0, 73, 70
2, 1204080, Note_on_c, 0, 70, 70
2, 1204320, Note_off_c, 0, 70, 70
2, 1204320, Note_on_c, 0, 68, 95
2, 1204560, Note_off_c, 0, 68, 95
2, 1204560, Note_on_c, 1, 66, 70
2, 1204680, Pitch_bend_c, 1, 6144
2, 1204800, Pitch_bend_c, 1, 3968
2, 1204920, Pitch_bend_c, 1, 1920
2, 1205040, Pitch_bend_c, 1, 0
2, 1205040, Pitch_bend_c, 1, 8192
2, 1205040, Note_off_c, 1, 66, 70
2, 1205040, Note_on_c, 0, 58, 47
2, 1205040, Note_on_c, 0, 54, 47
2, 1206000, Note_off_c, 0, 58, 47
2, 1206000, Note_off_c, 0, 54, 47
2, 1206000, Pitch_bend_c, 1, 8192
2, 1206000, Note_on_c, 1, 68, 95
2, 1206021, Pitch_bend_c, 1, 8320
2, 1206042, Pitch_bend_c, 1, 8448
2, 1206063, Pitch_bend_c, 1, 8576
2, 1206084, Pitch_bend_c, 1, 8704
2, 1206105, Pitch_bend_c, 1, 8832
2, 1206126, Pitch_bend_c, 1, 8960
2, 1206147, Pitch_bend_c, 1, 9088
2, 1206168, Pitch_bend_c, 1, 9216
2, 1206189, Pitch_bend_c, 1, 9344
2, 1206210, Pitch_bend_c, 1, 9472
2, 1206231, Pitch_bend_c, 1, 9600
2, 1206240, Pitch_bend_c, 1, 9600
2, 1206480, Pitch_bend_c, 1, 9600
2, 1206480, Pitch_bend_c, 1, 8192
2, 1206480, Note_off_c, 1, 68, 95
2, 1206480, Note_on_c, 0, 70, 95
2, 1206960, Note_off_c, 0, 70, 95
2, 1206960, Note_on_c, 0, 75, 95
2, 1207440, Note_off_c, 0, 75, 95
2, 1207440, Pitch_bend_c, 1, 8192
2, 1207440, Note_on_c, 1, 78, 95
2, 1207560, Pitch_bend_c, 1, 8320
2, 1207680, Pitch_bend_c, 1, 8448
2, 1207680, Pitch_bend_c, 1, 8448
2, 1207920, Pitch_bend_c, 1, 8448
2, 1207920, Pitch_bend_c, 1, 8192
2, 1207920, Note_off_c, 1, 78, 95
2, 1207920, Pitch_bend_c, 1, 8192
2, 1207920, Note_on_c, 1, 80, 95
2, 1208040, Pitch_bend_c, 1, 8320
2, 1208160, Pitch_bend_c, 1, 8448
2, 1208160, Pitch_bend_c, 1, 8448
2, 1208400, Pitch_bend_c, 1, 8448
2, 1208400, Pitch_bend_c, 1, 8192
2, 1208400, Note_off_c, 1, 80, 95
2, 1208400, Pitch_bend_c, 1, 8192
2, 1208400, Note_on_c, 1, 80, 95
2, 1208421, Pitch_bend_c, 1, 8320
2, 1208442, Pitch_bend_c, 1, 8448
2, 1208463, Pitch_bend_c, 1, 8576
2, 1208484, Pitch_bend_c, 1, 8704
2, 1208505, Pitch_bend_c, 1, 8832
2, 1208526, Pitch_bend_c, 1, 8960
2, 1208547, Pitch_bend_c, 1, 9088
2, 1208568, Pitch_bend_c, 1, 9216
2, 1208589, Pitch_bend_c, 1, 9344
2, 1208610, Pitch_bend_c, 1, 9472
2, 1208631, Pitch_bend_c, 1, 9600
2, 1208640, Pitch_bend_c, 1, 9600
2, 1208880, Pitch_bend_c, 1, 9600
2, 1208880, Pitch_bend_c, 1, 8192
2, 1208880, Note_off_c, 1, 80, 95
2, 1208880, Pitch_bend_c, 1, 8192
2, 1208880, Note_on_c, 1, 75, 95
2, 1209060, Pitch_bend_c, 1, 8320
2, 1209240, Pitch_bend_c, 1, 8448
2, 1209240, Pitch_bend_c, 1, 8448
2, 1209600, Pitch_bend_c, 1, 8448
2, 1209600, Pitch_bend_c, 1, 8192
2, 1209600, Note_off_c, 1, 75, 95
2, 1209600, Pitch_bend_c, 1, 8192
2, 1209600, Note_on_c, 1, 78, 95
2, 1209720, Pitch_bend_c, 1, 8320
2, 1209840, Pitch_bend_c, 1, 8448
2, 1209840, Pitch_bend_c, 1, 8448
2, 1210080, Pitch_bend_c, 1, 8448
2, 1210080, Pitch_bend_c, 1, 8192
2, 1210080, Note_off_c, 1, 78, 95
2, 1210080, Pitch_bend_c, 1, 8192
2, 1210080, Note_on_c, 1, 80, 95
2, 1210200, Pitch_bend_c, 1, 8320
2, 1210320, Pitch_bend_c, 1, 8448
2, 1210320, Pitch_bend_c, 1, 8448
2, 1210560, Pitch_bend_c, 1, 8448
2, 1210560, Pitch_bend_c, 1, 8192
2, 1210560, Note_off_c, 1, 80, 95
2, 1210560, Pitch_bend_c, 1, 8192
2, 1210560, Note_on_c, 1, 75, 95
2, 1210650, Pitch_bend_c, 1, 8320
2, 1210740, Pitch_bend_c, 1, 8448
2, 1210740, Pitch_bend_c, 1, 8448
2, 1210920, Pitch_bend_c, 1, 8448
2, 1210920, Pitch_bend_c, 1, 8192
2, 1210920, Note_off_c, 1, 75, 95
2, 1210920, Pitch_bend_c, 1, 8192
2, 1210920, Note_on_c, 1, 78, 95
2, 1211010, Pitch_bend_c, 1, 8320
2, 1211100, Pitch_bend_c, 1, 8448
2, 1211100, Pitch_bend_c, 1, 8448
2, 1211280, Pitch_bend_c, 1, 8448
2, 1211280, Pitch_bend_c, 1, 8192
2, 1211280, Note_off_c, 1, 78, 95
2, 1211280, Pitch_bend_c, 1, 8192
2, 1211280, Note_on_c, 1, 80, 95
2, 1211370, Pitch_bend_c, 1, 8320
2, 1211460, Pitch_bend_c, 1, 8448
2, 1211460, Pitch_bend_c, 1, 8448
2, 1211640, Pitch_bend_c, 1, 8448
2, 1211640, Pitch_bend_c, 1, 8192
2, 1211640, Note_off_c, 1, 80, 95
2, 1211640, Note_on_c, 1, 80, 95
2, 1211760, Pitch_bend_c, 1, 9600
2, 1211760, Pitch_bend_c, 1, 8192
2, 1211760, Note_off_c, 1, 80, 95
2, 1211760, Pitch_bend_c, 1, 8192
2, 1211760, Note_on_c, 1, 82, 95
2, 1211808, Pitch_bend_c, 1, 8320
2, 1211856, Pitch_bend_c, 1, 8448
2, 1211904, Pitch_bend_c, 1, 8576
2, 1211952, Pitch_bend_c, 1, 8704
2, 1212000, Pitch_bend_c, 1, 8832
2, 1212000, Pitch_bend_c, 1, 8832
2, 1212240, Pitch_bend_c, 1, 8832
2, 1212240, Pitch_bend_c, 1, 8192
2, 1212240, Note_off_c, 1, 82, 95
2, 1212240, Note_on_c, 0, 78, 95
2, 1212720, Note_off_c, 0, 78, 95
2, 1212720, Pitch_bend_c, 1, 8192
2, 1212720, Note_on_c, 1, 80, 95
2, 1212785, Pitch_bend_c, 1, 8320
2, 1212850, Pitch_bend_c, 1, 8448
2, 1212915, Pitch_bend_c, 1, 8576
2, 1212980, Pitch_bend_c, 1, 8704
2, 1213045, Pitch_bend_c, 1, 8832
2, 1213110, Pitch_bend_c, 1, 8960
2, 1213175, Pitch_bend_c, 1, 9088
2, 1213240, Pitch_bend_c, 1, 9216
2, 1213305, Pitch_bend_c, 1, 9344
2, 1213370, Pitch_bend_c, 1, 9472
2, 1213435, Pitch_bend_c, 1, 9600
2, 1213440, Pitch_bend_c, 1, 9600
2, 1214160, Pitch_bend_c, 1, 9600
2, 1214160, Pitch_bend_c, 1, 8192
2, 1214160, Note_off_c, 1, 80, 95
2, 1214160, Pitch_bend_c, 1, 8192
2, 1214160, Note_on_c, 1, 78, 95
2, 1214280, Pitch_bend_c, 1, 8320
2, 1214400, Pitch_bend_c, 1, 8448
2, 1214400, Pitch_bend_c, 1, 8448
2, 1214640, Pitch_bend_c, 1, 8448
2, 1214640, Pitch_bend_c, 1, 8192
2, 1214640, Note_off_c, 1, 78, 95
2, 1214640, Pitch_bend_c, 1, 8192
2, 1214640, Note_on_c, 1, 75, 95
2, 1214730, Pitch_bend_c, 1, 8320
2, 1214820, Pitch_bend_c, 1, 8448
2, 1214820, Pitch_bend_c, 1, 8448
2, 1215000, Pitch_bend_c, 1, 8448
2, 1215000, Pitch_bend_c, 1, 8192
2, 1215000, Note_off_c, 1, 75, 95
2, 1215000, Pitch_bend_c, 1, 8192
2, 1215000, Note_on_c, 1, 78, 95
2, 1215090, Pitch_bend_c, 1, 8320
2, 1215180, Pitch_bend_c, 1, 8448
2, 1215180, Pitch_bend_c, 1, 8448
2, 1215360, Pitch_bend_c, 1, 8448
2, 1215360, Pitch_bend_c, 1, 8192
2, 1215360, Note_off_c, 1, 78, 95
2, 1215360, Pitch_bend_c, 1, 8192
2, 1215360, Note_on_c, 1, 77, 95
2, 1215403, Pitch_bend_c, 1, 8320
2, 1215446, Pitch_bend_c, 1, 8448
2, 1215489, Pitch_bend_c, 1, 8576
2, 1215532, Pitch_bend_c, 1, 8704
2, 1215575, Pitch_bend_c, 1, 8832
2, 1215618, Pitch_bend_c, 1, 8960
2, 1215661, Pitch_bend_c, 1, 9088
2, 1215704, Pitch_bend_c, 1, 9216
2, 1215747, Pitch_bend_c, 1, 9344
2, 1215790, Pitch_bend_c, 1, 9472
2, 1215833, Pitch_bend_c, 1, 9600
2, 1215840, Pitch_bend_c, 1, 9600
2, 1216320, Pitch_bend_c, 1, 9600
2, 1216320, Pitch_bend_c, 1, 8192
2, 1216320, Note_off_c, 1, 77, 95
2, 1216320, Pitch_bend_c, 1, 8192
2, 1216320, Note_on_c, 1, 78, 95
2, 1216363, Pitch_bend_c, 1, 8320
2, 1216406, Pitch_bend_c, 1, 8448
2, 1216449, Pitch_bend_c, 1, 8576
2, 1216492, Pitch_bend_c, 1, 8704
2, 1216535, Pitch_bend_c, 1, 8832
2, 1216578, Pitch_bend_c, 1, 8960
2, 1216621, Pitch_bend_c, 1, 9088
2, 1216664, Pitch_bend_c, 1, 9216
2, 1216707, Pitch_bend_c, 1, 9344
2, 1216750, Pitch_bend_c, 1, 9472
2, 1216793, Pitch_bend_c, 1, 9600
2, 1216800, Pitch_bend_c, 1, 9600
2, 1217280, Pitch_bend_c, 1, 9600
2, 1217280, Pitch_bend_c, 1, 8192
2, 1217280, Note_off_c, 1, 78, 95
2, 1217280, Pitch_bend_c, 1, 8192
2, 1217280, Note_on_c, 1, 78, 95
2, 1217328, Pitch_bend_c, 1, 8320
2, 1217376, Pitch_bend_c, 1, 8448
2, 1217424, Pitch_bend_c, 1, 8576
2, 1217472, Pitch_bend_c, 1, 8704
2, 1217520, Pitch_bend_c, 1, 8832
2, 1217520, Pitch_bend_c, 1, 8832
2, 1217760, Pitch_bend_c, 1, 8832
2, 1217760, Pitch_bend_c, 1, 8192
2, 1217760, Note_off_c, 1, 78, 95
2, 1217760, Pitch_bend_c, 1, 8192
2, 1217760, Note_on_c, 1, 75, 95
2, 1217850, Pitch_bend_c, 1, 8320
2, 1217940, Pitch_bend_c, 1, 8448
2, 1217940, Pitch_bend_c, 1, 8448
2, 1218120, Pitch_bend_c, 1, 8448
2, 1218120, Pitch_bend_c, 1, 8192
2, 1218120, Note_off_c, 1, 75, 95
2, 1218120, Pitch_bend_c, 1, 8192
2, 1218120, Note_on_c, 1, 78, 95
2, 1218210, Pitch_bend_c, 1, 8320
2, 1218300, Pitch_bend_c, 1, 8448
2, 1218300, Pitch_bend_c, 1, 8448
2, 1218480, Pitch_bend_c, 1, 8448
2, 1218480, Pitch_bend_c, 1, 8192
2, 1218480, Note_off_c, 1, 78, 95
2, 1218480, Pitch_bend_c, 1, 8192
2, 1218480, Note_on_c, 1, 75, 95
2, 1218570, Pitch_bend_c, 1, 8320
2, 1218660, Pitch_bend_c, 1, 8448
2, 1218660, Pitch_bend_c, 1, 8448
2, 1218840, Pitch_bend_c, 1, 8448
2, 1218840, Pitch_bend_c, 1, 8192
2, 1218840, Note_off_c, 1, 75, 95
2, 1218840, Pitch_bend_c, 1, 8192
2, 1218840, Note_on_c, 1, 78, 95
2, 1218900, Pitch_bend_c, 1, 8320
2, 1218960, Pitch_bend_c, 1, 8448
2, 1218960, Pitch_bend_c, 1, 8448
2, 1219080, Pitch_bend_c, 1, 8448
2, 1219080, Pitch_bend_c, 1, 8192
2, 1219080, Note_off_c, 1, 78, 95
2, 1219080, Pitch_bend_c, 1, 8192
2, 1219080, Note_on_c, 1, 73, 95
2, 1219101, Pitch_bend_c, 1, 8320
2, 1219122, Pitch_bend_c, 1, 8448
2, 1219143, Pitch_bend_c, 1, 8576
2, 1219164, Pitch_bend_c, 1, 8704
2, 1219185, Pitch_bend_c, 1, 8832
2, 1219206, Pitch_bend_c, 1, 8960
2, 1219227, Pitch_bend_c, 1, 9088
2, 1219248, Pitch_bend_c, 1, 9216
2, 1219269, Pitch_bend_c, 1, 9344
2, 1219290, Pitch_bend_c, 1, 9472
2, 1219311, Pitch_bend_c, 1, 9600
2, 1219320, Pitch_bend_c, 1, 9600
2, 1219560, Pitch_bend_c, 1, 9600
2, 1219581, Pitch_bend_c, 1, 9472
2, 1219602, Pitch_bend_c, 1, 9344
2, 1219623, Pitch_bend_c, 1, 9216
2, 1219644, Pitch_bend_c, 1, 9088
2, 1219665, Pitch_bend_c, 1, 8960
2, 1219686, Pitch_bend_c, 1, 8832
2, 1219707, Pitch_bend_c, 1, 8704
2, 1219728, Pitch_bend_c, 1, 8576
2, 1219749, Pitch_bend_c, 1, 8448
2, 1219770, Pitch_bend_c, 1, 8320
2, 1219791, Pitch_bend_c, 1, 8192
2, 1219800, Pitch_bend_c, 1, 8192
2, 1220040, Pitch_bend_c, 1, 8192
2, 1220040, Pitch_bend_c, 1, 8192
2, 1220040, Note_off_c, 1, 73, 95
2, 1220040, Note_on_c, 0, 54, 47
2, 1220100, Note_on_c, 0, 58, 47
2, 1220160, Note_on_c, 0, 63, 47
2, 1221120, Note_off_c, 0, 63, 47
2, 1221120, Note_off_c, 0, 58, 47
2, 1221120, Note_off_c, 0, 54, 47
2, 1221120, Pitch_bend_c, 1, 8192
2, 1221120, Note_on_c, 1, 84, 95
2, 1221229, Pitch_bend_c, 1, 8320
2, 1221338, Pitch_bend_c, 1, 8448
2, 1221447, Pitch_bend_c, 1, 8576
2, 1221556, Pitch_bend_c, 1, 8704
2, 1221665, Pitch_bend_c, 1, 8832
2, 1221774, Pitch_bend_c, 1, 8960
2, 1221883, Pitch_bend_c, 1, 9088
2, 1221992, Pitch_bend_c, 1, 9216
2, 1222101, Pitch_bend_c, 1, 9344
2, 1222210, Pitch_bend_c, 1, 9472
2, 1222319, Pitch_bend_c, 1, 9600
2, 1222320, Pitch_bend_c, 1, 9600
2, 1223520, Pitch_bend_c, 1, 9600
2, 1223520, Pitch_bend_c, 1, 8192
2, 1223520, Note_off_c, 1, 84, 95
2, 1223520, Pitch_bend_c, 1, 8832
2, 1223520, Note_on_c, 1, 84, 95
2, 1223680, Pitch_bend_c, 1, 8832
2, 1223712, Pitch_bend_c, 1, 8704
2, 1223744, Pitch_bend_c, 1, 8576
2, 1223776, Pitch_bend_c, 1, 8448
2, 1223808, Pitch_bend_c, 1, 8320
2, 1223840, Pitch_bend_c, 1, 8192
2, 1223840, Pitch_bend_c, 1, 8192
2, 1224000, Pitch_bend_c, 1, 8192
2, 1224000, Pitch_bend_c, 1, 8192
2, 1224000, Note_off_c, 1, 84, 95
2, 1224000, Pitch_bend_c, 1, 8192
2, 1224000, Note_on_c, 1, 82, 95
2, 1224120, Pitch_bend_c, 1, 8320
2, 1224240, Pitch_bend_c, 1, 8448
2, 1224240, Pitch_bend_c, 1, 8448
2, 1224480, Pitch_bend_c, 1, 8448
2, 1224480, Pitch_bend_c, 1, 8192
2, 1224480, Note_off_c, 1, 82, 95
2, 1224480, Pitch_bend_c, 1, 8192
2, 1224480, Note_on_c, 1, 80, 95
2, 1224600, Pitch_bend_c, 1, 8320
2, 1224720, Pitch_bend_c, 1, 8448
2, 1224720, Pitch_bend_c, 1, 8448
2, 1224960, Pitch_bend_c, 1, 8448
2, 1224960, Pitch_bend_c, 1, 8192
2, 1224960, Note_off_c, 1, 80, 95
2, 1224960, Pitch_bend_c, 1, 8192
2, 1224960, Note_on_c, 1, 82, 95
2, 1225140, Pitch_bend_c, 1, 8320
2, 1225320, Pitch_bend_c, 1, 8448
2, 1225320, Pitch_bend_c, 1, 8448
2, 1225680, Pitch_bend_c, 1, 8448
2, 1225680, Pitch_bend_c, 1, 8192
2, 1225680, Note_off_c, 1, 82, 95
2, 1225680, Pitch_bend_c, 1, 8192
2, 1225680, Note_on_c, 1, 80, 95
2, 1225800, Pitch_bend_c, 1, 8320
2, 1225920, Pitch_bend_c, 1, 8448
2, 1225920, Pitch_bend_c, 1, 8448
2, 1226160, Pitch_bend_c, 1, 8448
2, 1226160, Pitch_bend_c, 1, 8192
2, 1226160, Note_off_c, 1, 80, 95
2, 1226160, Pitch_bend_c, 1, 8192
2, 1226160, Note_on_c, 1, 75, 95
2, 1226400, Pitch_bend_c, 1, 8320
2, 1226640, Pitch_bend_c, 1, 8448
2, 1226640, Pitch_bend_c, 1, 8448
2, 1227120, Pitch_bend_c, 1, 8448
2, 1227120, Pitch_bend_c, 1, 8192
2, 1227120, Note_off_c, 1, 75, 95
2, 1227120, Pitch_bend_c, 1, 8192
2, 1227120, Note_on_c, 1, 78, 95
2, 1227180, Pitch_bend_c, 1, 8320
2, 1227240, Pitch_bend_c, 1, 8448
2, 1227300, Pitch_bend_c, 1, 8576
2, 1227360, Pitch_bend_c, 1, 8704
2, 1227420, Pitch_bend_c, 1, 8832
2, 1227480, Pitch_bend_c, 1, 8960
2, 1227540, Pitch_bend_c, 1, 9088
2, 1227600, Pitch_bend_c, 1, 9216
2, 1227600, Pitch_bend_c, 1, 9216
2, 1228080, Pitch_bend_c, 1, 9216
2, 1228080, Pitch_bend_c, 1, 8192
2, 1228080, Note_off_c, 1, 78, 95
2, 1228080, Pitch_bend_c, 1, 8192
2, 1228080, Note_on_c, 1, 83, 95
2, 1228170, Pitch_bend_c, 1, 8320
2, 1228260, Pitch_bend_c, 1, 8448
2, 1228260, Pitch_bend_c, 1, 8448
2, 1228440, Pitch_bend_c, 1, 8448
2, 1228440, Pitch_bend_c, 1, 8192
2, 1228440, Note_off_c, 1, 83, 95
2, 1228440, Note_on_c, 0, 58, 95
2, 1228800, Note_off_c, 0, 58, 95
2, 1228800, Note_on_c, 0, 58, 47
2, 1229040, Note_off_c, 0, 58, 47
2, 1229040, Pitch_bend_c, 1, 8192
2, 1229040, Note_on_c, 1, 82, 95
2, 1229083, Pitch_bend_c, 1, 8320
2, 1229126, Pitch_bend_c, 1, 8448
2, 1229169, Pitch_bend_c, 1, 8576
2, 1229212, Pitch_bend_c, 1, 8704
2, 1229255, Pitch_bend_c, 1, 8832
2, 1229298, Pitch_bend_c, 1, 8960
2, 1229341, Pitch_bend_c, 1, 9088
2, 1229384, Pitch_bend_c, 1, 9216
2, 1229427, Pitch_bend_c, 1, 9344
2, 1229470, Pitch_bend_c, 1, 9472
2, 1229513, Pitch_bend_c, 1, 9600
2, 1229520, Pitch_bend_c, 1, 9600
2, 1230000, Pitch_bend_c, 1, 9600
2, 1230000, Pitch_bend_c, 1, 8192
2, 1230000, Note_off_c, 1, 82, 95
2, 1230000, Pitch_bend_c, 1, 8192
2, 1230000, Note_on_c, 1, 82, 95
2, 1230090, Pitch_bend_c, 1, 8320
2, 1230180, Pitch_bend_c, 1, 8448
2, 1230180, Pitch_bend_c, 1, 8448
2, 1230360, Pitch_bend_c, 1, 8448
2, 1230360, Pitch_bend_c, 1, 8192
2, 1230360, Note_off_c, 1, 82, 95
2, 1230360, Pitch_bend_c, 1, 8192
2, 1230360, Note_on_c, 1, 80, 95
2, 1230450, Pitch_bend_c, 1, 8320
2, 1230540, Pitch_bend_c, 1, 8448
2, 1230540, Pitch_bend_c, 1, 8448
2, 1230720, Pitch_bend_c, 1, 8448
2, 1230720, Pitch_bend_c, 1, 8192
2, 1230720, Note_off_c, 1, 80, 95
2, 1230720, Pitch_bend_c, 1, 8192
2, 1230720, Note_on_c, 1, 82, 95
2, 1230810, Pitch_bend_c, 1, 8320
2, 1230900, Pitch_bend_c, 1, 8448
2, 1230900, Pitch_bend_c, 1, 8448
2, 1231080, Pitch_bend_c, 1, 8448
2, 1231080, Pitch_bend_c, 1, 8192
2, 1231080, Note_off_c, 1, 82, 95
2, 1231080, Pitch_bend_c, 1, 8192
2, 1231080, Note_on_c, 1, 80, 95
2, 1231170, Pitch_bend_c, 1, 8320
2, 1231260, Pitch_bend_c, 1, 8448
2, 1231260, Pitch_bend_c, 1, 8448
2, 1231440, Pitch_bend_c, 1, 8448
2, 1231440, Pitch_bend_c, 1, 8192
2, 1231440, Note_off_c, 1, 80, 95
2, 1231440, Pitch_bend_c, 1, 8192
2, 1231440, Note_on_c, 1, 78, 95
2, 1231500, Pitch_bend_c, 1, 8320
2, 1231560, Pitch_bend_c, 1, 8448
2, 1231560, Pitch_bend_c, 1, 8448
2, 1231680, Pitch_bend_c, 1, 8448
2, 1231680, Pitch_bend_c, 1, 8192
2, 1231680, Note_off_c, 1, 78, 95
2, 1231680, Pitch_bend_c, 1, 8192
2, 1231680, Note_on_c, 1, 80, 95
2, 1231760, Pitch_bend_c, 1, 8320
2, 1231840, Pitch_bend_c, 1, 8448
2, 1231840, Pitch_bend_c, 1, 8448
2, 1232000, Pitch_bend_c, 1, 8448
2, 1232000, Pitch_bend_c, 1, 8192
2, 1232000, Note_off_c, 1, 80, 95
2, 1232000, Pitch_bend_c, 1, 8192
2, 1232000, Note_on_c, 1, 78, 95
2, 1232080, Pitch_bend_c, 1, 8320
2, 1232160, Pitch_bend_c, 1, 8448
2, 1232160, Pitch_bend_c, 1, 8448
2, 1232320, Pitch_bend_c, 1, 8448
2, 1232320, Pitch_bend_c, 1, 8192
2, 1232320, Note_off_c, 1, 78, 95
2, 1232320, Pitch_bend_c, 1, 8192
2, 1232320, Note_on_c, 1, 75, 95
2, 1232400, Pitch_bend_c, 1, 8320
2, 1232480, Pitch_bend_c, 1, 8448
2, 1232480, Pitch_bend_c, 1, 8448
2, 1232640, Pitch_bend_c, 1, 8448
2, 1232640, Pitch_bend_c, 1, 8192
2, 1232640, Note_off_c, 1, 75, 95
2, 1232640, Pitch_bend_c, 1, 8192
2, 1232640, Note_on_c, 1, 73, 95
2, 1232700, Pitch_bend_c, 1, 8320
2, 1232760, Pitch_bend_c, 1, 8448
2, 1232760, Pitch_bend_c, 1, 8448
2, 1232880, Pitch_bend_c, 1, 8448
2, 1232880, Pitch_bend_c, 1, 8192
2, 1232880, Note_off_c, 1, 73, 95
2, 1232880, Pitch_bend_c, 1, 8192
2, 1232880, Note_on_c, 1, 78, 95
2, 1232940, Pitch_bend_c, 1, 8320
2, 1233000, Pitch_bend_c, 1, 8448
2, 1233000, Pitch_bend_c, 1, 8448
2, 1233120, Pitch_bend_c, 1, 8448
2, 1233120, Pitch_bend_c, 1, 8192
2, 1233120, Note_off_c, 1, 78, 95
2, 1233120, Note_on_c, 1, 75, 95
2, 1234080, Note_off_c, 1, 75, 95
2, 1234080, Note_on_c, 1, 68, 95
2, 1234560, Note_off_c, 1, 68, 95
2, 1234560, Note_on_c, 0, 75, 95
2, 1234920, Note_off_c, 0, 75, 95
2, 1234920, Note_on_c, 0, 70, 95
2, 1235280, Note_off_c, 0, 70, 95
2, 1235280, Note_on_c, 0, 73, 70
2, 1235520, Note_off_c, 0, 73, 70
2, 1235520, Note_on_c, 0, 75, 95
2, 1235760, Note_off_c, 0, 75, 95
2, 1235760, Note_on_c, 0, 78, 70
2, 1236000, Note_off_c, 0, 78, 70
2, 1236000, Note_on_c, 0, 75, 70
2, 1236240, Note_off_c, 0, 75, 70
2, 1236240, Pitch_bend_c, 1, 8192
2, 1236240, Note_on_c, 1, 73, 95
2, 1236255, Pitch_bend_c, 1, 8320
2, 1236270, Pitch_bend_c, 1, 8448
2, 1236285, Pitch_bend_c, 1, 8576
2, 1236300, Pitch_bend_c, 1, 8704
2, 1236315, Pitch_bend_c, 1, 8832
2, 1236330, Pitch_bend_c, 1, 8960
2, 1236345, Pitch_bend_c, 1, 9088
2, 1236360, Pitch_bend_c, 1, 9216
2, 1236360, Pitch_bend_c, 1, 9216
2, 1236480, Pitch_bend_c, 1, 9216
2, 1236480, Pitch_bend_c, 1, 8192
2, 1236480, Note_off_c, 1, 73, 95
2, 1236480, Note_on_c, 0, 75, 95
2, 1236640, Note_off_c, 0, 75, 95
2, 1236640, Note_on_c, 0, 78, 70
2, 1236800, Note_off_c, 0, 78, 70
2, 1236800, Note_on_c, 0, 75, 70
2, 1236960, Note_off_c, 0, 75, 70
2, 1236960, Pitch_bend_c, 1, 8192
2, 1236960, Note_on_c, 1, 73, 95
2, 1236970, Pitch_bend_c, 1, 8320
2, 1236980, Pitch_bend_c, 1, 8448
2, 1236990, Pitch_bend_c, 1, 8576
2, 1237000, Pitch_bend_c, 1, 8704
2, 1237010, Pitch_bend_c, 1, 8832
2, 1237020, Pitch_bend_c, 1, 8960
2, 1237030, Pitch_bend_c, 1, 9088
2, 1237040, Pitch_bend_c, 1, 9216
2, 1237040, Pitch_bend_c, 1, 9216
2, 1237120, Pitch_bend_c, 1, 9216
2, 1237120, Pitch_bend_c, 1, 8192
2, 1237120, Note_off_c, 1, 73, 95
2, 1237120, Note_on_c, 0, 75, 95
2, 1237280, Note_off_c, 0, 75, 95
2, 1237280, Note_on_c, 0, 78, 70
2, 1237440, Note_off_c, 0, 78, 70
2, 1237440, Note_on_c, 0, 75, 70
2, 1237600, Note_off_c, 0, 75, 70
2, 1237600, Pitch_bend_c, 1, 8192
2, 1237600, Note_on_c, 1, 73, 95
2, 1237610, Pitch_bend_c, 1, 8320
2, 1237620, Pitch_bend_c, 1, 8448
2, 1237630, Pitch_bend_c, 1, 8576
2, 1237640, Pitch_bend_c, 1, 8704
2, 1237650, Pitch_bend_c, 1, 8832
2, 1237660, Pitch_bend_c, 1, 8960
2, 1237670, Pitch_bend_c, 1, 9088
2, 1237680, Pitch_bend_c, 1, 9216
2, 1237680, Pitch_bend_c, 1, 9216
2, 1237760, Pitch_bend_c, 1, 9216
2, 1237760, Pitch_bend_c, 1, 8192
2, 1237760, Note_off_c, 1, 73, 95
2, 1237760, Note_on_c, 0, 75, 95
2, 1237920, Note_off_c, 0, 75, 95
2, 1237920, Note_on_c, 0, 78, 70
2, 1238080, Note_off_c, 0, 78, 70
2, 1238080, Note_on_c, 0, 75, 70
2, 1238240, Note_off_c, 0, 75, 70
2, 1238240, Pitch_bend_c, 1, 8192
2, 1238240, Note_on_c, 1, 73, 95
2, 1238250, Pitch_bend_c, 1, 8320
2, 1238260, Pitch_bend_c, 1, 8448
2, 1238270, Pitch_bend_c, 1, 8576
2, 1238280, Pitch_bend_c, 1, 8704
2, 1238290, Pitch_bend_c, 1, 8832
2, 1238300, Pitch_bend_c, 1, 8960
2, 1238310, Pitch_bend_c, 1, 9088
2, 1238320, Pitch_bend_c, 1, 9216
2, 1238320, Pitch_bend_c, 1, 9216
2, 1238400, Pitch_bend_c, 1, 9216
2, 1238400, Pitch_bend_c, 1, 8192
2, 1238400, Note_off_c, 1, 73, 95
2, 1238400, Note_on_c, 0, 75, 95
2, 1238560, Note_off_c, 0, 75, 95
2, 1238560, Note_on_c, 0, 78, 70
2, 1238720, Note_off_c, 0, 78, 70
2, 1238720, Note_on_c, 0, 75, 70
2, 1238880, Note_off_c, 0, 75, 70
2, 1238880, Pitch_bend_c, 1, 8192
2, 1238880, Note_on_c, 1, 73, 95
2, 1238890, Pitch_bend_c, 1, 8320
2, 1238900, Pitch_bend_c, 1, 8448
2, 1238910, Pitch_bend_c, 1, 8576
2, 1238920, Pitch_bend_c, 1, 8704
2, 1238930, Pitch_bend_c, 1, 8832
2, 1238940, Pitch_bend_c, 1, 8960
2, 1238950, Pitch_bend_c, 1, 9088
2, 1238960, Pitch_bend_c, 1, 9216
2, 1238960, Pitch_bend_c, 1, 9216
2, 1239040, Pitch_bend_c, 1, 9216
2, 1239040, Pitch_bend_c, 1, 8192
2, 1239040, Note_off_c, 1, 73, 95
2, 1239040, Note_on_c, 0, 75, 95
2, 1239200, Note_off_c, 0, 75, 95
2, 1239200, Note_on_c, 0, 78, 70
2, 1239360, Note_off_c, 0, 78, 70
2, 1239360, Note_on_c, 0, 75, 70
2, 1239520, Note_off_c, 0, 75, 70
2, 1239520, Pitch_bend_c, 1, 8192
2, 1239520, Note_on_c, 1, 73, 95
2, 1239530, Pitch_bend_c, 1, 8320
2, 1239540, Pitch_bend_c, 1, 8448
2, 1239550, Pitch_bend_c, 1, 8576
2, 1239560, Pitch_bend_c, 1, 8704
2, 1239570, Pitch_bend_c, 1, 8832
2, 1239580, Pitch_bend_c, 1, 8960
2, 1239590, Pitch_bend_c, 1, 9088
2, 1239600, Pitch_bend_c, 1, 9216
2, 1239600, Pitch_bend_c, 1, 9216
2, 1239680, Pitch_bend_c, 1, 9216
2, 1239680, Pitch_bend_c, 1, 8192
2, 1239680, Note_off_c, 1, 73, 95
2, 1239680, Note_on_c, 0, 75, 95
2, 1239840, Note_off_c, 0, 75, 95
2, 1239840, Note_on_c, 0, 78, 70
2, 1240000, Note_off_c, 0, 78, 70
2, 1240000, Note_on_c, 0, 75, 70
2, 1240160, Note_off_c, 0, 75, 70
2, 1240160, Pitch_bend_c, 1, 8192
2, 1240160, Note_on_c, 1, 73, 95
2, 1240170, Pitch_bend_c, 1, 8320
2, 1240180, Pitch_bend_c, 1, 8448
2, 1240190, Pitch_bend_c, 1, 8576
2, 1240200, Pitch_bend_c, 1, 8704
2, 1240210, Pitch_bend_c, 1, 8832
2, 1240220, Pitch_bend_c, 1, 8960
2, 1240230, Pitch_bend_c, 1, 9088
2, 1240240, Pitch_bend_c, 1, 9216
2, 1240240, Pitch_bend_c, 1, 9216
2, 1240320, Pitch_bend_c, 1, 9216
2, 1240320, Pitch_bend_c, 1, 8192
2, 1240320, Note_off_c, 1, 73, 95
2, 1240320, Note_on_c, 0, 75, 95
2, 1240480, Note_off_c, 0, 75, 95
2, 1240480, Note_on_c, 0, 78, 70
2, 1240640, Note_off_c, 0, 78, 70
2, 1240640, Note_on_c, 0, 75, 70
2, 1240800, Note_off_c, 0, 75, 70
2, 1240800, Pitch_bend_c, 1, 8192
2, 1240800, Note_on_c, 1, 73, 95
2, 1240816, Pitch_bend_c, 1, 8320
2, 1240832, Pitch_bend_c, 1, 8448
2, 1240848, Pitch_bend_c, 1, 8576
2, 1240864, Pitch_bend_c, 1, 8704
2, 1240880, Pitch_bend_c, 1, 8832
2, 1240880, Pitch_bend_c, 1, 8832
2, 1240960, Pitch_bend_c, 1, 8832
2, 1240960, Pitch_bend_c, 1, 8192
2, 1240960, Note_off_c, 1, 73, 95
2, 1240960, Note_on_c, 0, 75, 95
2, 1241120, Note_off_c, 0, 75, 95
2, 1241120, Note_on_c, 0, 78, 70
2, 1241280, Note_off_c, 0, 78, 70
2, 1241280, Note_on_c, 0, 75, 70
2, 1241440, Note_off_c, 0, 75, 70
2, 1241440, Pitch_bend_c, 1, 8192
2, 1241440, Note_on_c, 1, 73, 95
2, 1241450, Pitch_bend_c, 1, 8320
2, 1241460, Pitch_bend_c, 1, 8448
2, 1241470, Pitch_bend_c, 1, 8576
2, 1241480, Pitch_bend_c, 1, 8704
2, 1241490, Pitch_bend_c, 1, 8832
2, 1241500, Pitch_bend_c, 1, 8960
2, 1241510, Pitch_bend_c, 1, 9088
2, 1241520, Pitch_bend_c, 1, 9216
2, 1241520, Pitch_bend_c, 1, 9216
2, 1241600, Pitch_bend_c, 1, 9216
2, 1241600, Pitch_bend_c, 1, 8192
2, 1241600, Note_off_c, 1, 73, 95
2, 1241600, Note_on_c, 0, 75, 95
2, 1241760, Note_off_c, 0, 75, 95
2, 1241760, Note_on_c, 0, 78, 70
2, 1241920, Note_off_c, 0, 78, 70
2, 1241920, Note_on_c, 0, 75, 70
2, 1242080, Note_off_c, 0, 75, 70
2, 1242080, Pitch_bend_c, 1, 8192
2, 1242080, Note_on_c, 1, 73, 95
2, 1242120, Pitch_bend_c, 1, 8320
2, 1242160, Pitch_bend_c, 1, 8448
2, 1242160, Pitch_bend_c, 1, 8448
2, 1242240, Pitch_bend_c, 1, 8448
2, 1242240, Pitch_bend_c, 1, 8192
2, 1242240, Note_off_c, 1, 73, 95
2, 1242240, Note_on_c, 0, 75, 95
2, 1242400, Note_off_c, 0, 75, 95
2, 1242400, Note_on_c, 0, 78, 70
2, 1242560, Note_off_c, 0, 78, 70
2, 1242560, Note_on_c, 0, 75, 70
2, 1242720, Note_off_c, 0, 75, 70
2, 1242720, Pitch_bend_c, 1, 8192
2, 1242720, Note_on_c, 1, 73, 95
2, 1242760, Pitch_bend_c, 1, 8320
2, 1242800, Pitch_bend_c, 1, 8448
2, 1242800, Pitch_bend_c, 1, 8448
2, 1242880, Pitch_bend_c, 1, 8448
2, 1242880, Pitch_bend_c, 1, 8192
2, 1242880, Note_off_c, 1, 73, 95
2, 1242880, Note_on_c, 0, 75, 95
2, 1243040, Note_off_c, 0, 75, 95
2, 1243040, Note_on_c, 0, 78, 70
2, 1243200, Note_off_c, 0, 78, 70
2, 1243200, Note_on_c, 0, 75, 70
2, 1243360, Note_off_c, 0, 75, 70
2, 1243360, Pitch_bend_c, 1, 8192
2, 1243360, Note_on_c, 1, 73, 95
2, 1243400, Pitch_bend_c, 1, 8320
2, 1243440, Pitch_bend_c, 1, 8448
2, 1243440, Pitch_bend_c, 1, 8448
2, 1243520, Pitch_bend_c, 1, 8448
2, 1243520, Pitch_bend_c, 1, 8192
2, 1243520, Note_off_c, 1, 73, 95
2, 1243520, Note_on_c, 0, 75, 95
2, 1243680, Note_off_c, 0, 75, 95
2, 1243680, Note_on_c, 0, 78, 70
2, 1243840, Note_off_c, 0, 78, 70
2, 1243840, Note_on_c, 0, 75, 70
2, 1244000, Note_off_c, 0, 75, 70
2, 1244000, Pitch_bend_c, 1, 8192
2, 1244000, Note_on_c, 1, 73, 95
2, 1244040, Pitch_bend_c, 1, 8320
2, 1244080, Pitch_bend_c, 1, 8448
2, 1244080, Pitch_bend_c, 1, 8448
2, 1244160, Pitch_bend_c, 1, 8448
2, 1244160, Pitch_bend_c, 1, 8192
2, 1244160, Note_off_c, 1, 73, 95
2, 1244160, Note_on_c, 0, 75, 95
2, 1244320, Note_off_c, 0, 75, 95
2, 1244320, Note_on_c, 0, 78, 70
2, 1244480, Note_off_c, 0, 78, 70
2, 1244480, Note_on_c, 0, 75, 70
2, 1244640, Note_off_c, 0, 75, 70
2, 1244640, Pitch_bend_c, 1, 8192
2, 1244640, Note_on_c, 1, 73, 95
2, 1244680, Pitch_bend_c, 1, 8320
2, 1244720, Pitch_bend_c, 1, 8448
2, 1244720, Pitch_bend_c, 1, 8448
2, 1244800, Pitch_bend_c, 1, 8448
2, 1244800, Pitch_bend_c, 1, 8192
2, 1244800, Note_off_c, 1, 73, 95
2, 1244800, Note_on_c, 0, 75, 95
2, 1244960, Note_off_c, 0, 75, 95
2, 1244960, Note_on_c, 0, 78, 70
2, 1245120, Note_off_c, 0, 78, 70
2, 1245120, Note_on_c, 0, 75, 70
2, 1245280, Note_off_c, 0, 75, 70
2, 1245280, Pitch_bend_c, 1, 8192
2, 1245280, Note_on_c, 1, 73, 95
2, 1245320, Pitch_bend_c, 1, 8320
2, 1245360, Pitch_bend_c, 1, 8448
2, 1245360, Pitch_bend_c, 1, 8448
2, 1245440, Pitch_bend_c, 1, 8448
2, 1245440, Pitch_bend_c, 1, 8192
2, 1245440, Note_off_c, 1, 73, 95
2, 1245440, Note_on_c, 0, 75, 95
2, 1245600, Note_off_c, 0, 75, 95
2, 1245600, Note_on_c, 0, 73, 95
2, 1245760, Note_off_c, 0, 73, 95
2, 1245760, Note_on_c, 0, 70, 70
2, 1245920, Note_off_c, 0, 70, 70
2, 1245920, Note_on_c, 0, 68, 95
2, 1246080, Note_off_c, 0, 68, 95
2, 1246080, Note_on_c, 0, 70, 95
2, 1246240, Note_off_c, 0, 70, 95
2, 1246240, Note_on_c, 0, 68, 95
2, 1246400, Note_off_c, 0, 68, 95
2, 1246400, Note_on_c, 0, 66, 70
2, 1246560, Note_off_c, 0, 66, 70
2, 1246560, Note_on_c, 0, 63, 95
2, 1246720, Note_off_c, 0, 63, 95
2, 1246720, Note_on_c, 0, 66, 95
2, 1246880, Note_off_c, 0, 66, 95
2, 1246880, Pitch_bend_c, 1, 8192
2, 1246880, Note_on_c, 1, 68, 70
2, 1246920, Pitch_bend_c, 1, 8320
2, 1246960, Pitch_bend_c, 1, 8448
2, 1246960, Pitch_bend_c, 1, 8448
2, 1247040, Pitch_bend_c, 1, 8448
2, 1247040, Pitch_bend_c, 1, 8192
2, 1247040, Note_off_c, 1, 68, 70
2, 1247040, Note_on_c, 0, 70, 95
2, 1247280, Note_off_c, 0, 70, 95
2, 1247280, Note_on_c, 0, 73, 70
2, 1247520, Note_off_c, 0, 73, 70
2, 1247520, Note_on_c, 0, 70, 70
2, 1247760, Note_off_c, 0, 70, 70
2, 1247760, Pitch_bend_c, 1, 8192
2, 1247760, Note_on_c, 1, 68, 95
2, 1247784, Pitch_bend_c, 1, 8320
2, 1247808, Pitch_bend_c, 1, 8448
2, 1247832, Pitch_bend_c, 1, 8576
2, 1247856, Pitch_bend_c, 1, 8704
2, 1247880, Pitch_bend_c, 1, 8832
2, 1247880, Pitch_bend_c, 1, 8832
2, 1248000, Pitch_bend_c, 1, 8832
2, 1248000, Pitch_bend_c, 1, 8192
2, 1248000, Note_off_c, 1, 68, 95
2, 1248000, Note_on_c, 0, 70, 95
2, 1248240, Note_off_c, 0, 70, 95
2, 1248240, Note_on_c, 0, 68, 95
2, 1248480, Note_off_c, 0, 68, 95
2, 1248480, Note_on_c, 0, 66, 95
2, 1248720, Note_off_c, 0, 66, 95
2, 1248720, Note_on_c, 0, 63, 95
2, 1248960, Note_off_c, 0, 63, 95
2, 1248960, Note_on_c, 0, 66, 95
2, 1249200, Note_off_c, 0, 66, 95
2, 1249200, Note_on_c, 0, 68, 70
2, 1249440, Note_off_c, 0, 68, 70
2, 1249440, Note_on_c, 0, 66, 70
2, 1249680, Note_off_c, 0, 66, 70
2, 1249680, Note_on_c, 0, 61, 95
2, 1249920, Note_off_c, 0, 61, 95
2, 1249920, Note_on_c, 0, 63, 70
2, 1250160, Note_off_c, 0, 63, 70
2, 1250160, Note_on_c, 0, 61, 70
2, 1250400, Note_off_c, 0, 61, 70
2, 1250400, Note_on_c, 0, 58, 95
2, 1250640, Note_off_c, 0, 58, 95
2, 1250640, Note_on_c, 0, 56, 70
2, 1250880, Note_off_c, 0, 56, 70
2, 1250880, Note_on_c, 0, 58, 70
2, 1251120, Note_off_c, 0, 58, 70
2, 1251120, Note_on_c, 0, 56, 70
2, 1251360, Note_off_c, 0, 56, 70
2, 1251360, Note_on_c, 0, 59, 70
2, 1251600, Note_off_c, 0, 59, 70
2, 1251600, Note_on_c, 0, 56, 70
2, 1251840, Note_off_c, 0, 56, 70
2, 1251840, Note_on_c, 0, 54, 95
2, 1252080, Note_off_c, 0, 54, 95
2, 1252080, Note_on_c, 0, 51, 70
2, 1252320, Note_off_c, 0, 51, 70
2, 1252320, Note_on_c, 1, 55, 95
2, 1252440, Pitch_bend_c, 1, 8704
2, 1252560, Pitch_bend_c, 1, 9216
2, 1252680, Pitch_bend_c, 1, 9728
2, 1252800, Pitch_bend_c, 1, 10240
2, 1252800, Pitch_bend_c, 1, 8192
2, 1252800, Note_off_c, 1, 55, 95
2, 1252800, Note_on_c, 1, 58, 95
2, 1252920, Pitch_bend_c, 1, 8832
2, 1253040, Pitch_bend_c, 1, 9600
2, 1253160, Pitch_bend_c, 1, 10240
2, 1253160, Pitch_bend_c, 1, 8192
2, 1253160, Note_off_c, 1, 58, 95
2, 1253160, Note_on_c, 0, 61, 95
2, 1253520, Note_off_c, 0, 61, 95
2, 1253520, Note_on_c, 0, 63, 95
2, 1253880, Note_off_c, 0, 63, 95
2, 1253880, Note_on_c, 0, 61, 70
2, 1254360, Note_off_c, 0, 61, 70
2, 1254360, Note_on_c, 0, 58, 95
2, 1254720, Note_off_c, 0, 58, 95
2, 1254720, Note_on_c, 0, 57, 70
2, 1255080, Note_off_c, 0, 57, 70
2, 1255080, Note_on_c, 0, 56, 70
2, 1255440, Note_off_c, 0, 56, 70
2, 1255440, Note_on_c, 0, 54, 95
2, 1255680, Note_off_c, 0, 54, 95
2, 1255680, Note_on_c, 0, 51, 70
2, 1255920, Note_off_c, 0, 51, 70
2, 1255920, Note_on_c, 0, 73, 95
2, 1255920, Pitch_bend_c, 1, 8192
2, 1255920, Note_on_c, 1, 68, 95
2, 1255995, Pitch_bend_c, 1, 8320
2, 1256070, Pitch_bend_c, 1, 8448
2, 1256145, Pitch_bend_c, 1, 8576
2, 1256220, Pitch_bend_c, 1, 8704
2, 1256295, Pitch_bend_c, 1, 8832
2, 1256370, Pitch_bend_c, 1, 8960
2, 1256445, Pitch_bend_c, 1, 9088
2, 1256520, Pitch_bend_c, 1, 9216
2, 1256520, Pitch_bend_c, 1, 9216
2, 1257120, Pitch_bend_c, 1, 9216
2, 1257195, Pitch_bend_c, 1, 9088
2, 1257270, Pitch_bend_c, 1, 8960
2, 1257345, Pitch_bend_c, 1, 8832
2, 1257420, Pitch_bend_c, 1, 8704
2, 1257495, Pitch_bend_c, 1, 8576
2, 1257570, Pitch_bend_c, 1, 8448
2, 1257645, Pitch_bend_c, 1, 8320
2, 1257720, Pitch_bend_c, 1, 8192
2, 1257720, Pitch_bend_c, 1, 8192
2, 1257757, Pitch_bend_c, 1, 8320
2, 1257794, Pitch_bend_c, 1, 8448
2, 1257831, Pitch_bend_c, 1, 8576
2, 1257868, Pitch_bend_c, 1, 8704
2, 1257905, Pitch_bend_c, 1, 8832
2, 1257942, Pitch_bend_c, 1, 8960
2, 1257979, Pitch_bend_c, 1, 9088
2, 1258016, Pitch_bend_c, 1, 9216
2, 1258020, Pitch_bend_c, 1, 9216
2, 1258320, Pitch_bend_c, 1, 9216
2, 1258357, Pitch_bend_c, 1, 9088
2, 1258394, Pitch_bend_c, 1, 8960
2, 1258431, Pitch_bend_c, 1, 8832
2, 1258468, Pitch_bend_c, 1, 8704
2, 1258505, Pitch_bend_c, 1, 8576
2, 1258542, Pitch_bend_c, 1, 8448
2, 1258579, Pitch_bend_c, 1, 8320
2, 1258616, Pitch_bend_c, 1, 8192
2, 1258620, Pitch_bend_c, 1, 8192
2, 1258657, Pitch_bend_c, 1, 8320
2, 1258694, Pitch_bend_c, 1, 8448
2, 1258731, Pitch_bend_c, 1, 8576
2, 1258768, Pitch_bend_c, 1, 8704
2, 1258805, Pitch_bend_c, 1, 8832
2, 1258842, Pitch_bend_c, 1, 8960
2, 1258879, Pitch_bend_c, 1, 9088
2, 1258916, Pitch_bend_c, 1, 9216
2, 1258920, Pitch_bend_c, 1, 9216
2, 1259220, Pitch_bend_c, 1, 9216
2, 1259257, Pitch_bend_c, 1, 9088
2, 1259294, Pitch_bend_c, 1, 8960
2, 1259331, Pitch_bend_c, 1, 8832
2, 1259368, Pitch_bend_c, 1, 8704
2, 1259405, Pitch_bend_c, 1, 8576
2, 1259442, Pitch_bend_c, 1, 8448
2, 1259479, Pitch_bend_c, 1, 8320
2, 1259516, Pitch_bend_c, 1, 8192
2, 1259520, Note_off_c, 0, 73, 95
2, 1259520, Pitch_bend_c, 1, 8192
2, 1259520, Pitch_bend_c, 1, 8192
2, 1259520, Note_off_c, 1, 68, 95
2, 1259520, Note_on_c, 0, 73, 95
2, 1259520, Pitch_bend_c, 1, 8192
2, 1259520, Note_on_c, 1, 68, 95
2, 1259730, Pitch_bend_c, 1, 8320
2, 1259940, Pitch_bend_c, 1, 8448
2, 1260150, Pitch_bend_c, 1, 8576
2, 1260360, Pitch_bend_c, 1, 8704
2, 1260570, Pitch_bend_c, 1, 8832
2, 1260780, Pitch_bend_c, 1, 8960
2, 1260990, Pitch_bend_c, 1, 9088
2, 1261200, Pitch_bend_c, 1, 9216
2, 1261200, Pitch_bend_c, 1, 9216
2, 1262880, Note_off_c, 0, 73, 95
2, 1262880, Pitch_bend_c, 1, 9216
2, 1262880, Pitch_bend_c, 1, 8192
2, 1262880, Note_off_c, 1, 68, 95
2, 1262880, Note_on_c, 0, 63, 95
2, 1263120, Note_off_c, 0, 63, 95
2, 1263120, Note_on_c, 0, 66, 70
2, 1263360, Note_off_c, 0, 66, 70
2, 1263360, Note_on_c, 0, 68, 95
2, 1263540, Note_off_c, 0, 68, 95
2, 1263540, Note_on_c, 0, 66, 70
2, 1263720, Note_off_c, 0, 66, 70
2, 1263720, Note_on_c, 0, 63, 70
2, 1263900, Note_off_c, 0, 63, 70
2, 1263900, Note_on_c, 0, 68, 95
2, 1264080, Note_off_c, 0, 68, 95
2, 1264080, Note_on_c, 0, 66, 70
2, 1264260, Note_off_c, 0, 66, 70
2, 1264260, Note_on_c, 0, 63, 70
2, 1264440, Note_off_c, 0, 63, 70
2, 1264440, Note_on_c, 0, 68, 95
2, 1264620, Note_off_c, 0, 68, 95
2, 1264620, Note_on_c, 0, 66, 70
2, 1264800, Note_off_c, 0, 66, 70
2, 1264800, Note_on_c, 0, 63, 70
2, 1264980, Note_off_c, 0, 63, 70
2, 1264980, Note_on_c, 0, 68, 95
2, 1265160, Note_off_c, 0, 68, 95
2, 1265160, Note_on_c, 0, 66, 70
2, 1265340, Note_off_c, 0, 66, 70
2, 1265340, Note_on_c, 0, 63, 70
2, 1265520, Note_off_c, 0, 63, 70
2, 1265520, Pitch_bend_c, 1, 8192
2, 1265520, Note_on_c, 1, 80, 95
2, 1265520, Pitch_bend_c, 1, 8192
2, 1265520, Note_on_c, 1, 77, 95
2, 1265625, Pitch_bend_c, 1, 8320
2, 1265688, Pitch_bend_c, 1, 8320
2, 1265730, Pitch_bend_c, 1, 8448
2, 1265835, Pitch_bend_c, 1, 8576
2, 1265856, Pitch_bend_c, 1, 8448
2, 1265940, Pitch_bend_c, 1, 8704
2, 1266024, Pitch_bend_c, 1, 8576
2, 1266045, Pitch_bend_c, 1, 8832
2, 1266150, Pitch_bend_c, 1, 8960
2, 1266192, Pitch_bend_c, 1, 8704
2, 1266255, Pitch_bend_c, 1, 9088
2, 1266360, Pitch_bend_c, 1, 8832
2, 1266360, Pitch_bend_c, 1, 8832
2, 1266360, Pitch_bend_c, 1, 9216
2, 1266360, Pitch_bend_c, 1, 9216
2, 1267200, Pitch_bend_c, 1, 8832
2, 1267200, Pitch_bend_c, 1, 8192
2, 1267200, Note_off_c, 1, 80, 95
2, 1267200, Pitch_bend_c, 1, 9216
2, 1267200, Pitch_bend_c, 1, 8192
2, 1267200, Note_off_c, 1, 77, 95
2, 1267200, Pitch_bend_c, 1, 8192
2, 1267200, Note_on_c, 1, 78, 95
2, 1267296, Pitch_bend_c, 1, 8320
2, 1267392, Pitch_bend_c, 1, 8448
2, 1267488, Pitch_bend_c, 1, 8576
2, 1267584, Pitch_bend_c, 1, 8704
2, 1267680, Pitch_bend_c, 1, 8832
2, 1267680, Pitch_bend_c, 1, 8832
2, 1268160, Pitch_bend_c, 1, 8832
2, 1268160, Pitch_bend_c, 1, 8192
2, 1268160, Note_off_c, 1, 78, 95
2, 1268280, Note_on_c, 0, 75, 95
2, 1268520, Note_off_c, 0, 75, 95
2, 1268520, Note_on_c, 0, 78, 95
2, 1268760, Note_off_c, 0, 78, 95
2, 1268760, Pitch_bend_c, 1, 8192
2, 1268760, Note_on_c, 1, 80, 70
2, 1268832, Pitch_bend_c, 1, 8320
2, 1268904, Pitch_bend_c, 1, 8448
2, 1268976, Pitch_bend_c, 1, 8576
2, 1269048, Pitch_bend_c, 1, 8704
2, 1269120, Pitch_bend_c, 1, 8832
2, 1269120, Pitch_bend_c, 1, 8832
2, 1269480, Pitch_bend_c, 1, 8832
2, 1269480, Pitch_bend_c, 1, 8192
2, 1269480, Note_off_c, 1, 80, 70
2, 1269480, Pitch_bend_c, 1, 8192
2, 1269480, Note_on_c, 1, 75, 95
2, 1269552, Pitch_bend_c, 1, 8320
2, 1269624, Pitch_bend_c, 1, 8448
2, 1269696, Pitch_bend_c, 1, 8576
2, 1269768, Pitch_bend_c, 1, 8704
2, 1269840, Pitch_bend_c, 1, 8832
2, 1269840, Pitch_bend_c, 1, 8832
2, 1270200, Pitch_bend_c, 1, 8832
2, 1270200, Pitch_bend_c, 1, 8192
2, 1270200, Note_off_c, 1, 75, 95
2, 1270200, Pitch_bend_c, 1, 8192
2, 1270200, Note_on_c, 1, 80, 95
2, 1270245, Pitch_bend_c, 1, 8320
2, 1270290, Pitch_bend_c, 1, 8448
2, 1270335, Pitch_bend_c, 1, 8576
2, 1270380, Pitch_bend_c, 1, 8704
2, 1270425, Pitch_bend_c, 1, 8832
2, 1270470, Pitch_bend_c, 1, 8960
2, 1270515, Pitch_bend_c, 1, 9088
2, 1270560, Pitch_bend_c, 1, 9216
2, 1270560, Pitch_bend_c, 1, 9216
2, 1270920, Pitch_bend_c, 1, 9216
2, 1270920, Pitch_bend_c, 1, 8192
2, 1270920, Note_off_c, 1, 80, 95
2, 1270920, Pitch_bend_c, 1, 8192
2, 1270920, Note_on_c, 1, 75, 95
2, 1271004, Pitch_bend_c, 1, 8320
2, 1271088, Pitch_bend_c, 1, 8448
2, 1271172, Pitch_bend_c, 1, 8576
2, 1271256, Pitch_bend_c, 1, 8704
2, 1271340, Pitch_bend_c, 1, 8832
2, 1271340, Pitch_bend_c, 1, 8832
2, 1271760, Pitch_bend_c, 1, 8832
2, 1271760, Pitch_bend_c, 1, 8192
2, 1271760, Note_off_c, 1, 75, 95
2, 1271760, Pitch_bend_c, 1, 8192
2, 1271760, Note_on_c, 1, 78, 95
2, 1271805, Pitch_bend_c, 1, 8320
2, 1271850, Pitch_bend_c, 1, 8448
2, 1271895, Pitch_bend_c, 1, 8576
2, 1271940, Pitch_bend_c, 1, 8704
2, 1271985, Pitch_bend_c, 1, 8832
2, 1272030, Pitch_bend_c, 1, 8960
2, 1272075, Pitch_bend_c, 1, 9088
2, 1272120, Pitch_bend_c, 1, 9216
2, 1272120, Pitch_bend_c, 1, 9216
2, 1272480, Pitch_bend_c, 1, 9216
2, 1272480, Pitch_bend_c, 1, 8192
2, 1272480, Note_off_c, 1, 78, 95
2, 1272480, Note_on_c, 0, 75, 47
2, 1272720, Note_off_c, 0, 75, 47
2, 1272720, Note_on_c, 0, 78, 47
2, 1272960, Note_off_c, 0, 78, 47
2, 1272960, Pitch_bend_c, 1, 8192
2, 1272960, Note_on_c, 1, 80, 70
2, 1273032, Pitch_bend_c, 1, 8320
2, 1273104, Pitch_bend_c, 1, 8448
2, 1273176, Pitch_bend_c, 1, 8576
2, 1273248, Pitch_bend_c, 1, 8704
2, 1273320, Pitch_bend_c, 1, 8832
2, 1273320, Pitch_bend_c, 1, 8832
2, 1273680, Pitch_bend_c, 1, 8832
2, 1273680, Pitch_bend_c, 1, 8192
2, 1273680, Note_off_c, 1, 80, 70
2, 1273680, Pitch_bend_c, 1, 8192
2, 1273680, Note_on_c, 1, 75, 95
2, 1273752, Pitch_bend_c, 1, 8320
2, 1273824, Pitch_bend_c, 1, 8448
2, 1273896, Pitch_bend_c, 1, 8576
2, 1273968, Pitch_bend_c, 1, 8704
2, 1274040, Pitch_bend_c, 1, 8832
2, 1274040, Pitch_bend_c, 1, 8832
2, 1274400, Pitch_bend_c, 1, 8832
2, 1274400, Pitch_bend_c, 1, 8192
2, 1274400, Note_off_c, 1, 75, 95
2, 1274640, Pitch_bend_c, 1, 8192
2, 1274640, Note_on_c, 1, 78, 95
2, 1274736, Pitch_bend_c, 1, 8320
2, 1274832, Pitch_bend_c, 1, 8448
2, 1274928, Pitch_bend_c, 1, 8576
2, 1275024, Pitch_bend_c, 1, 8704
2, 1275120, Pitch_bend_c, 1, 8832
2, 1275120, Pitch_bend_c, 1, 8832
2, 1275600, Pitch_bend_c, 1, 8832
2, 1275600, Pitch_bend_c, 1, 8192
2, 1275600, Note_off_c, 1, 78, 95
2, 1275600, Pitch_bend_c, 1, 8192
2, 1275600, Note_on_c, 1, 78, 95
2, 1275720, Pitch_bend_c, 1, 8320
2, 1275840, Pitch_bend_c, 1, 8448
2, 1275840, Pitch_bend_c, 1, 8448
2, 1276080, Pitch_bend_c, 1, 8448
2, 1276080, Pitch_bend_c, 1, 8192
2, 1276080, Note_off_c, 1, 78, 95
2, 1276080, Pitch_bend_c, 1, 8192
2, 1276080, Note_on_c, 1, 80, 95
2, 1276200, Pitch_bend_c, 1, 8320
2, 1276320, Pitch_bend_c, 1, 8448
2, 1276320, Pitch_bend_c, 1, 8448
2, 1276560, Pitch_bend_c, 1, 8448
2, 1276560, Pitch_bend_c, 1, 8192
2, 1276560, Note_off_c, 1, 80, 95
2, 1276560, Pitch_bend_c, 1, 8192
2, 1276560, Note_on_c, 1, 78, 95
2, 1276680, Pitch_bend_c, 1, 8320
2, 1276800, Pitch_bend_c, 1, 8448
2, 1276800, Pitch_bend_c, 1, 8448
2, 1277040, Pitch_bend_c, 1, 8448
2, 1277040, Pitch_bend_c, 1, 8192
2, 1277040, Note_off_c, 1, 78, 95
2, 1277040, Pitch_bend_c, 1, 8192
2, 1277040, Note_on_c, 1, 80, 95
2, 1277160, Pitch_bend_c, 1, 8320
2, 1277280, Pitch_bend_c, 1, 8448
2, 1277280, Pitch_bend_c, 1, 8448
2, 1277520, Pitch_bend_c, 1, 8448
2, 1277520, Pitch_bend_c, 1, 8192
2, 1277520, Note_off_c, 1, 80, 95
2, 1277520, Pitch_bend_c, 1, 8192
2, 1277520, Note_on_c, 1, 78, 95
2, 1277640, Pitch_bend_c, 1, 8320
2, 1277760, Pitch_bend_c, 1, 8448
2, 1277760, Pitch_bend_c, 1, 8448
2, 1278000, Pitch_bend_c, 1, 8448
2, 1278000, Pitch_bend_c, 1, 8192
2, 1278000, Note_off_c, 1, 78, 95
2, 1278000, Pitch_bend_c, 1, 8192
2, 1278000, Note_on_c, 1, 80, 95
2, 1278120, Pitch_bend_c, 1, 8320
2, 1278240, Pitch_bend_c, 1, 8448
2, 1278240, Pitch_bend_c, 1, 8448
2, 1278480, Pitch_bend_c, 1, 8448
2, 1278480, Pitch_bend_c, 1, 8192
2, 1278480, Note_off_c, 1, 80, 95
2, 1278480, Pitch_bend_c, 1, 8192
2, 1278480, Note_on_c, 1, 78, 47
2, 1278540, Pitch_bend_c, 1, 8320
2, 1278600, Pitch_bend_c, 1, 8448
2, 1278600, Pitch_bend_c, 1, 8448
2, 1278720, Pitch_bend_c, 1, 8448
2, 1278720, Pitch_bend_c, 1, 8192
2, 1278720, Note_off_c, 1, 78, 47
2, 1278720, Pitch_bend_c, 1, 8192
2, 1278720, Note_on_c, 1, 80, 95
2, 1278840, Pitch_bend_c, 1, 8320
2, 1278960, Pitch_bend_c, 1, 8448
2, 1278960, Pitch_bend_c, 1, 8448
2, 1279200, Pitch_bend_c, 1, 8448
2, 1279200, Pitch_bend_c, 1, 8192
2, 1279200, Note_off_c, 1, 80, 95
2, 1279200, Pitch_bend_c, 1, 8192
2, 1279200, Note_on_c, 1, 78, 95
2, 1279296, Pitch_bend_c, 1, 8320
2, 1279392, Pitch_bend_c, 1, 8448
2, 1279488, Pitch_bend_c, 1, 8576
2, 1279584, Pitch_bend_c, 1, 8704
2, 1279680, Pitch_bend_c, 1, 8832
2, 1279680, Pitch_bend_c, 1, 8832
2, 1280160, Pitch_bend_c, 1, 8832
2, 1280160, Pitch_bend_c, 1, 8192
2, 1280160, Note_off_c, 1, 78, 95
2, 1280160, Pitch_bend_c, 1, 8192
2, 1280160, Note_on_c, 1, 78, 47
2, 1280220, Pitch_bend_c, 1, 8320
2, 1280280, Pitch_bend_c, 1, 8448
2, 1280280, Pitch_bend_c, 1, 8448
2, 1280400, Pitch_bend_c, 1, 8448
2, 1280400, Pitch_bend_c, 1, 8192
2, 1280400, Note_off_c, 1, 78, 47
2, 1280400, Pitch_bend_c, 1, 8192
2, 1280400, Note_on_c, 1, 80, 95
2, 1280448, Pitch_bend_c, 1, 8320
2, 1280496, Pitch_bend_c, 1, 8448
2, 1280544, Pitch_bend_c, 1, 8576
2, 1280592, Pitch_bend_c, 1, 8704
2, 1280640, Pitch_bend_c, 1, 8832
2, 1280640, Pitch_bend_c, 1, 8832
2, 1280880, Pitch_bend_c, 1, 8832
2, 1280880, Pitch_bend_c, 1, 8192
2, 1280880, Note_off_c, 1, 80, 95
2, 1280880, Pitch_bend_c, 1, 8192
2, 1280880, Note_on_c, 1, 75, 95
2, 1280956, Pitch_bend_c, 1, 8320
2, 1281032, Pitch_bend_c, 1, 8448
2, 1281108, Pitch_bend_c, 1, 8576
2, 1281184, Pitch_bend_c, 1, 8704
2, 1281260, Pitch_bend_c, 1, 8832
2, 1281336, Pitch_bend_c, 1, 8960
2, 1281412, Pitch_bend_c, 1, 9088
2, 1281488, Pitch_bend_c, 1, 9216
2, 1281564, Pitch_bend_c, 1, 9344
2, 1281640, Pitch_bend_c, 1, 9472
2, 1281716, Pitch_bend_c, 1, 9600
2, 1281720, Pitch_bend_c, 1, 9600
2, 1282560, Pitch_bend_c, 1, 9600
2, 1282560, Pitch_bend_c, 1, 8192
2, 1282560, Note_off_c, 1, 75, 95
2, 1282560, Pitch_bend_c, 1, 8192
2, 1282560, Note_on_c, 1, 75, 95
2, 1282680, Pitch_bend_c, 1, 8320
2, 1282800, Pitch_bend_c, 1, 8448
2, 1282800, Pitch_bend_c, 1, 8448
2, 1283040, Pitch_bend_c, 1, 8448
2, 1283040, Pitch_bend_c, 1, 8192
2, 1283040, Note_off_c, 1, 75, 95
2, 1283040, Pitch_bend_c, 1, 8192
2, 1283040, Note_on_c, 1, 70, 95
2, 1283160, Pitch_bend_c, 1, 8320
2, 1283280, Pitch_bend_c, 1, 8448
2, 1283280, Pitch_bend_c, 1, 8448
2, 1283520, Pitch_bend_c, 1, 8448
2, 1283520, Pitch_bend_c, 1, 8192
2, 1283520, Note_off_c, 1, 70, 95
2, 1283520, Pitch_bend_c, 1, 8192
2, 1283520, Note_on_c, 1, 73, 95
2, 1283568, Pitch_bend_c, 1, 8320
2, 1283616, Pitch_bend_c, 1, 8448
2, 1283664, Pitch_bend_c, 1, 8576
2, 1283712, Pitch_bend_c, 1, 8704
2, 1283760, Pitch_bend_c, 1, 8832
2, 1283760, Pitch_bend_c, 1, 8832
2, 1284000, Pitch_bend_c, 1, 8832
2, 1284000, Pitch_bend_c, 1, 8192
2, 1284000, Note_off_c, 1, 73, 95
2, 1284000, Note_on_c, 0, 75, 95
2, 1284360, Note_on_c, 1, 75, 95
2, 1284480, Note_off_c, 0, 75, 95
2, 1284480, Note_off_c, 1, 75, 95
2, 1284480, Note_on_c, 1, 77, 95
2, 1284720, Note_off_c, 1, 77, 95
2, 1284720, Note_on_c, 0, 75, 70
2, 1284960, Note_off_c, 0, 75, 70
2, 1284960, Note_on_c, 0, 73, 95
2, 1285320, Note_off_c, 0, 73, 95
2, 1285320, Pitch_bend_c, 1, 8192
2, 1285320, Note_on_c, 1, 73, 95
2, 1285380, Pitch_bend_c, 1, 8320
2, 1285440, Pitch_bend_c, 1, 8448
2, 1285440, Pitch_bend_c, 1, 8448
2, 1285560, Pitch_bend_c, 1, 8448
2, 1285560, Pitch_bend_c, 1, 8192
2, 1285560, Note_off_c, 1, 73, 95
2, 1285560, Note_on_c, 0, 75, 95
2, 1285800, Note_off_c, 0, 75, 95
2, 1285800, Note_on_c, 0, 77, 70
2, 1286040, Note_off_c, 0, 77, 70
2, 1286040, Note_on_c, 0, 75, 70
2, 1286280, Note_off_c, 0, 75, 70
2, 1286280, Pitch_bend_c, 1, 8192
2, 1286280, Note_on_c, 1, 73, 95
2, 1286340, Pitch_bend_c, 1, 8320
2, 1286400, Pitch_bend_c, 1, 8448
2, 1286400, Pitch_bend_c, 1, 8448
2, 1286520, Pitch_bend_c, 1, 8448
2, 1286520, Pitch_bend_c, 1, 8192
2, 1286520, Note_off_c, 1, 73, 95
2, 1286520, Note_on_c, 0, 75, 95
2, 1286760, Note_off_c, 0, 75, 95
2, 1286760, Note_on_c, 0, 77, 70
2, 1287000, Note_off_c, 0, 77, 70
2, 1287000, Note_on_c, 0, 75, 70
2, 1287240, Note_off_c, 0, 75, 70
2, 1287240, Pitch_bend_c, 1, 8192
2, 1287240, Note_on_c, 1, 73, 95
2, 1287300, Pitch_bend_c, 1, 8320
2, 1287360, Pitch_bend_c, 1, 8448
2, 1287360, Pitch_bend_c, 1, 8448
2, 1287480, Pitch_bend_c, 1, 8448
2, 1287480, Pitch_bend_c, 1, 8192
2, 1287480, Note_off_c, 1, 73, 95
2, 1287480, Note_on_c, 0, 75, 95
2, 1287720, Note_off_c, 0, 75, 95
2, 1287720, Note_on_c, 0, 77, 70
2, 1287960, Note_off_c, 0, 77, 70
2, 1287960, Note_on_c, 0, 75, 70
2, 1288200, Note_off_c, 0, 75, 70
2, 1288200, Pitch_bend_c, 1, 8192
2, 1288200, Note_on_c, 1, 73, 95
2, 1288260, Pitch_bend_c, 1, 8320
2, 1288320, Pitch_bend_c, 1, 8448
2, 1288320, Pitch_bend_c, 1, 8448
2, 1288440, Pitch_bend_c, 1, 8448
2, 1288440, Pitch_bend_c, 1, 8192
2, 1288440, Note_off_c, 1, 73, 95
2, 1288440, Pitch_bend_c, 1, 8192
2, 1288440, Note_on_c, 1, 75, 95
2, 1288500, Pitch_bend_c, 1, 8320
2, 1288560, Pitch_bend_c, 1, 8448
2, 1288560, Pitch_bend_c, 1, 8448
2, 1288680, Pitch_bend_c, 1, 8448
2, 1288680, Pitch_bend_c, 1, 8192
2, 1288680, Note_off_c, 1, 75, 95
2, 1288680, Note_on_c, 1, 78, 95
2, 1288800, Pitch_bend_c, 1, 8832
2, 1288920, Pitch_bend_c, 1, 9600
2, 1288920, Pitch_bend_c, 1, 8192
2, 1288920, Note_off_c, 1, 78, 95
2, 1288920, Pitch_bend_c, 1, 8192
2, 1288920, Note_on_c, 1, 80, 95
2, 1289040, Pitch_bend_c, 1, 8320
2, 1289160, Pitch_bend_c, 1, 8448
2, 1289160, Pitch_bend_c, 1, 8448
2, 1289400, Pitch_bend_c, 1, 8448
2, 1289400, Pitch_bend_c, 1, 8192
2, 1289400, Note_off_c, 1, 80, 95
2, 1289520, Pitch_bend_c, 1, 8192
2, 1289520, Note_on_c, 1, 75, 95
2, 1289610, Pitch_bend_c, 1, 8320
2, 1289700, Pitch_bend_c, 1, 8448
2, 1289700, Pitch_bend_c, 1, 8448
2, 1289880, Pitch_bend_c, 1, 8448
2, 1289880, Pitch_bend_c, 1, 8192
2, 1289880, Note_off_c, 1, 75, 95
2, 1289880, Pitch_bend_c, 1, 8192
2, 1289880, Note_on_c, 1, 78, 95
2, 1289970, Pitch_bend_c, 1, 8320
2, 1290060, Pitch_bend_c, 1, 8448
2, 1290060, Pitch_bend_c, 1, 8448
2, 1290240, Pitch_bend_c, 1, 8448
2, 1290240, Pitch_bend_c, 1, 8192
2, 1290240, Note_off_c, 1, 78, 95
2, 1290240, Pitch_bend_c, 1, 8192
2, 1290240, Note_on_c, 1, 75, 95
2, 1290320, Pitch_bend_c, 1, 8320
2, 1290400, Pitch_bend_c, 1, 8448
2, 1290400, Pitch_bend_c, 1, 8448
2, 1290560, Pitch_bend_c, 1, 8448
2, 1290560, Pitch_bend_c, 1, 8192
2, 1290560, Note_off_c, 1, 75, 95
2, 1290560, Pitch_bend_c, 1, 8192
2, 1290560, Note_on_c, 1, 73, 95
2, 1290640, Pitch_bend_c, 1, 8320
2, 1290720, Pitch_bend_c, 1, 8448
2, 1290720, Pitch_bend_c, 1, 8448
2, 1290880, Pitch_bend_c, 1, 8448
2, 1290880, Pitch_bend_c, 1, 8192
2, 1290880, Note_off_c, 1, 73, 95
2, 1290880, Pitch_bend_c, 1, 8192
2, 1290880, Note_on_c, 1, 70, 95
2, 1290960, Pitch_bend_c, 1, 8320
2, 1291040, Pitch_bend_c, 1, 8448
2, 1291040, Pitch_bend_c, 1, 8448
2, 1291200, Pitch_bend_c, 1, 8448
2, 1291200, Pitch_bend_c, 1, 8192
2, 1291200, Note_off_c, 1, 70, 95
2, 1291200, Pitch_bend_c, 1, 8192
2, 1291200, Note_on_c, 1, 75, 95
2, 1291260, Pitch_bend_c, 1, 8320
2, 1291320, Pitch_bend_c, 1, 8448
2, 1291320, Pitch_bend_c, 1, 8448
2, 1291440, Pitch_bend_c, 1, 8448
2, 1291440, Pitch_bend_c, 1, 8192
2, 1291440, Note_off_c, 1, 75, 95
2, 1291440, Note_on_c, 1, 73, 95
2, 1292160, Note_off_c, 1, 73, 95
2, 1292160, Pitch_bend_c, 1, 8192
2, 1292160, Note_on_c, 1, 78, 95
2, 1292190, Pitch_bend_c, 1, 8320
2, 1292220, Pitch_bend_c, 1, 8448
2, 1292250, Pitch_bend_c, 1, 8576
2, 1292280, Pitch_bend_c, 1, 8704
2, 1292310, Pitch_bend_c, 1, 8832
2, 1292340, Pitch_bend_c, 1, 8960
2, 1292370, Pitch_bend_c, 1, 9088
2, 1292400, Pitch_bend_c, 1, 9216
2, 1292400, Pitch_bend_c, 1, 9216
2, 1292640, Pitch_bend_c, 1, 9216
2, 1292640, Pitch_bend_c, 1, 8192
2, 1292640, Note_off_c, 1, 78, 95
2, 1292640, Note_on_c, 0, 78, 95
2, 1292880, Note_off_c, 0, 78, 95
2, 1292880, Pitch_bend_c, 1, 8192
2, 1292880, Note_on_c, 1, 75, 70
2, 1292940, Pitch_bend_c, 1, 8320
2, 1293000, Pitch_bend_c, 1, 8448
2, 1293000, Pitch_bend_c, 1, 8448
2, 1293120, Pitch_bend_c, 1, 8448
2, 1293120, Pitch_bend_c, 1, 8192
2, 1293120, Note_off_c, 1, 75, 70
2, 1293120, Note_on_c, 0, 73, 95
2, 1293360, Note_off_c, 0, 73, 95
2, 1293360, Pitch_bend_c, 1, 8192
2, 1293360, Note_on_c, 1, 70, 70
2, 1293420, Pitch_bend_c, 1, 8320
2, 1293480, Pitch_bend_c, 1, 8448
2, 1293480, Pitch_bend_c, 1, 8448
2, 1293600, Pitch_bend_c, 1, 8448
2, 1293600, Pitch_bend_c, 1, 8192
2, 1293600, Note_off_c, 1, 70, 70
2, 1293600, Note_on_c, 0, 68, 95
2, 1293840, Note_off_c, 0, 68, 95
2, 1293840, Pitch_bend_c, 1, 8192
2, 1293840, Note_on_c, 1, 66, 70
2, 1293900, Pitch_bend_c, 1, 8320
2, 1293960, Pitch_bend_c, 1, 8448
2, 1293960, Pitch_bend_c, 1, 8448
2, 1294080, Pitch_bend_c, 1, 8448
2, 1294080, Pitch_bend_c, 1, 8192
2, 1294080, Note_off_c, 1, 66, 70
2, 1294080, Note_on_c, 0, 63, 95
2, 1294320, Note_off_c, 0, 63, 95
2, 1294320, Pitch_bend_c, 1, 8192
2, 1294320, Note_on_c, 1, 61, 70
2, 1294410, Pitch_bend_c, 1, 8320
2, 1294500, Pitch_bend_c, 1, 8448
2, 1294500, Pitch_bend_c, 1, 8448
2, 1294680, Pitch_bend_c, 1, 8448
2, 1294680, Pitch_bend_c, 1, 8192
2, 1294680, Note_off_c, 1, 61, 70
2, 1294680, Pitch_bend_c, 1, 8192
2, 1294680, Note_on_c, 1, 68, 95
2, 1294770, Pitch_bend_c, 1, 8320
2, 1294860, Pitch_bend_c, 1, 8448
2, 1294860, Pitch_bend_c, 1, 8448
2, 1295040, Pitch_bend_c, 1, 8448
2, 1295040, Pitch_bend_c, 1, 8192
2, 1295040, Note_off_c, 1, 68, 95
2, 1295040, Pitch_bend_c, 1, 8192
2, 1295040, Note_on_c, 1, 66, 95
2, 1295100, Pitch_bend_c, 1, 8320
2, 1295160, Pitch_bend_c, 1, 8448
2, 1295160, Pitch_bend_c, 1, 8448
2, 1295280, Pitch_bend_c, 1, 8448
2, 1295280, Pitch_bend_c, 1, 8192
2, 1295280, Note_off_c, 1, 66, 95
2, 1295280, Note_on_c, 0, 63, 95
2, 1295520, Note_off_c, 0, 63, 95
2, 1295520, Pitch_bend_c, 1, 8192
2, 1295520, Note_on_c, 1, 61, 70
2, 1295580, Pitch_bend_c, 1, 8320
2, 1295640, Pitch_bend_c, 1, 8448
2, 1295640, Pitch_bend_c, 1, 8448
2, 1295760, Pitch_bend_c, 1, 8448
2, 1295760, Pitch_bend_c, 1, 8192
2, 1295760, Note_off_c, 1, 61, 70
2, 1295760, Note_on_c, 0, 58, 95
2, 1296000, Note_off_c, 0, 58, 95
2, 1296000, Note_on_c, 0, 66, 95
2, 1296240, Note_off_c, 0, 66, 95
2, 1296240, Note_on_c, 0, 63, 95
2, 1296360, Note_off_c, 0, 63, 95
2, 1296360, Pitch_bend_c, 1, 8192
2, 1296360, Note_on_c, 1, 61, 70
2, 1296390, Pitch_bend_c, 1, 8320
2, 1296420, Pitch_bend_c, 1, 8448
2, 1296420, Pitch_bend_c, 1, 8448
2, 1296480, Pitch_bend_c, 1, 8448
2, 1296480, Pitch_bend_c, 1, 8192
2, 1296480, Note_off_c, 1, 61, 70
2, 1296480, Note_on_c, 0, 58, 95
2, 1296640, Note_off_c, 0, 58, 95
2, 1296640, Note_on_c, 0, 56, 70
2, 1296800, Note_on_c, 0, 54, 95
2, 1296960, Note_off_c, 0, 54, 95
2, 1296960, Note_on_c, 0, 51, 70
2, 1297920, Note_off_c, 0, 51, 70
2, 1297920, Note_on_c, 0, 73, 95
2, 1297920, Pitch_bend_c, 1, 8192
2, 1297920, Note_on_c, 1, 68, 95
2, 1298007, Pitch_bend_c, 1, 8320
2, 1298094, Pitch_bend_c, 1, 8448
2, 1298181, Pitch_bend_c, 1, 8576
2, 1298268, Pitch_bend_c, 1, 8704
2, 1298355, Pitch_bend_c, 1, 8832
2, 1298442, Pitch_bend_c, 1, 8960
2, 1298529, Pitch_bend_c, 1, 9088
2, 1298616, Pitch_bend_c, 1, 9216
2, 1298703, Pitch_bend_c, 1, 9344
2, 1298790, Pitch_bend_c, 1, 9472
2, 1298877, Pitch_bend_c, 1, 9600
2, 1298880, Pitch_bend_c, 1, 9600
2, 1299840, Pitch_bend_c, 1, 9600
2, 1300800, Pitch_bend_c, 1, 9600
2, 1300887, Pitch_bend_c, 1, 9472
2, 1300974, Pitch_bend_c, 1, 9344
2, 1301061, Pitch_bend_c, 1, 9216
2, 1301148, Pitch_bend_c, 1, 9088
2, 1301235, Pitch_bend_c, 1, 8960
2, 1301322, Pitch_bend_c, 1, 8832
2, 1301409, Pitch_bend_c, 1, 8704
2, 1301496, Pitch_bend_c, 1, 8576
2, 1301583, Pitch_bend_c, 1, 8448
2, 1301670, Pitch_bend_c, 1, 8320
2, 1301757, Pitch_bend_c, 1, 8192
2, 1301760, Note_off_c, 0, 73, 95
2, 1301760, Pitch_bend_c, 1, 8192
2, 1301760, Pitch_bend_c, 1, 8192
2, 1301760, Note_off_c, 1, 68, 95
2, 1301760, Note_on_c, 0, 73, 95
2, 1301760, Note_on_c, 0, 68, 95
2, 1303680, Note_off_c, 0, 73, 95
2, 1303680, Note_off_c, 0, 68, 95
2, 1303680, Note_on_c, 0, 73, 95
2, 1303680, Note_on_c, 0, 66, 95
2, 1304640, Note_off_c, 0, 73, 95
2, 1304640, Note_off_c, 0, 66, 95
2, 1304640, Note_on_c, 1, 70, 95
2, 1304640, Note_on_c, 1, 63, 95
2, 1305600, Note_off_c, 1, 70, 95
2, 1305600, Note_off_c, 1, 63, 95
2, 1305600, Pitch_bend_c, 1, 8192
2, 1305600, Note_on_c, 1, 39, 95
2, 1305850, Pitch_bend_c, 1, 8064
2, 1306100, Pitch_bend_c, 1, 7936
2, 1306350, Pitch_bend_c, 1, 7808
2, 1306600, Pitch_bend_c, 1, 7680
2, 1306850, Pitch_bend_c, 1, 7552
2, 1307100, Pitch_bend_c, 1, 7424
2, 1307350, Pitch_bend_c, 1, 7296
2, 1307600, Pitch_bend_c, 1, 7168
2, 1307850, Pitch_bend_c, 1, 7040
2, 1308100, Pitch_bend_c, 1, 6912
2, 1308350, Pitch_bend_c, 1, 6784
2, 1308600, Pitch_bend_c, 1, 6656
2, 1308850, Pitch_bend_c, 1, 6528
2, 1309100, Pitch_bend_c, 1, 6400
2, 1309350, Pitch_bend_c, 1, 6272
2, 1309600, Pitch_bend_c, 1, 6144
2, 1309850, Pitch_bend_c, 1, 6016
2, 1310100, Pitch_bend_c, 1, 5888
2, 1310350, Pitch_bend_c, 1, 5760
2, 1310600, Pitch_bend_c, 1, 5632
2, 1310850, Pitch_bend_c, 1, 5504
2, 1311100, Pitch_bend_c, 1, 5376
2, 1311120, Pitch_bend_c, 1, 5376
2, 1311872, Pitch_bend_c, 1, 5504
2, 1312624, Pitch_bend_c, 1, 5632
2, 1313280, Pitch_bend_c, 1, 8192
2, 1313280, Note_on_c, 1, 80, 95
2, 1313310, Pitch_bend_c, 1, 8320
2, 1313340, Pitch_bend_c, 1, 8448
2, 1313370, Pitch_bend_c, 1, 8576
2, 1313376, Pitch_bend_c, 1, 5760
2, 1313400, Pitch_bend_c, 1, 8704
2, 1313430, Pitch_bend_c, 1, 8832
2, 1313460, Pitch_bend_c, 1, 8960
2, 1313490, Pitch_bend_c, 1, 9088
2, 1313520, Pitch_bend_c, 1, 9216
2, 1313520, Pitch_bend_c, 1, 9216
2, 1313760, Pitch_bend_c, 1, 9216
2, 1313760, Pitch_bend_c, 1, 8192
2, 1313760, Note_off_c, 1, 80, 95
2, 1313760, Pitch_bend_c, 1, 8192
2, 1313760, Note_on_c, 1, 79, 95
2, 1313880, Pitch_bend_c, 1, 8320
2, 1314000, Pitch_bend_c, 1, 8448
2, 1314120, Pitch_bend_c, 1, 8576
2, 1314128, Pitch_bend_c, 1, 5888
2, 1314240, Pitch_bend_c, 1, 8704
2, 1314360, Pitch_bend_c, 1, 8832
2, 1314480, Pitch_bend_c, 1, 8960
2, 1314600, Pitch_bend_c, 1, 9088
2, 1314720, Pitch_bend_c, 1, 9216
2, 1314720, Pitch_bend_c, 1, 9216
2, 1314880, Pitch_bend_c, 1, 6016
2, 1315632, Pitch_bend_c, 1, 6144
2, 1315680, Pitch_bend_c, 1, 9216
2, 1315680, Pitch_bend_c, 1, 8192
2, 1315680, Note_off_c, 1, 79, 95
2, 1315680, Pitch_bend_c, 1, 8192
2, 1315680, Note_on_c, 1, 79, 95
2, 1315740, Pitch_bend_c, 1, 8320
2, 1315800, Pitch_bend_c, 1, 8448
2, 1315860, Pitch_bend_c, 1, 8576
2, 1315920, Pitch_bend_c, 1, 8704
2, 1315980, Pitch_bend_c, 1, 8832
2, 1316040, Pitch_bend_c, 1, 8960
2, 1316100, Pitch_bend_c, 1, 9088
2, 1316160, Pitch_bend_c, 1, 9216
2, 1316160, Pitch_bend_c, 1, 9216
2, 1316384, Pitch_bend_c, 1, 6272
2, 1316640, Pitch_bend_c, 1, 9216
2, 1316640, Pitch_bend_c, 1, 8192
2, 1316640, Note_off_c, 1, 79, 95
2, 1316640, Pitch_bend_c, 1, 8192
2, 1316640, Note_on_c, 1, 79, 95
2, 1316670, Pitch_bend_c, 1, 8320
2, 1316700, Pitch_bend_c, 1, 8448
2, 1316730, Pitch_bend_c, 1, 8576
2, 1316760, Pitch_bend_c, 1, 8704
2, 1316790, Pitch_bend_c, 1, 8832
2, 1316820, Pitch_bend_c, 1, 8960
2, 1316850, Pitch_bend_c, 1, 9088
2, 1316880, Pitch_bend_c, 1, 9216
2, 1316880, Pitch_bend_c, 1, 9216
2, 1317120, Pitch_bend_c, 1, 9216
2, 1317120, Pitch_bend_c, 1, 8192
2, 1317120, Note_off_c, 1, 79, 95
2, 1317120, Pitch_bend_c, 1, 8192
2, 1317120, Note_on_c, 1, 79, 95
2, 1317136, Pitch_bend_c, 1, 6400
2, 1317888, Pitch_bend_c, 1, 6528
2, 1318380, Pitch_bend_c, 1, 8320
2, 1318560, Note_on_c, 0, 61, 95
2, 1318560, Pitch_bend_c, 1, 8192
2, 1318560, Note_on_c, 1, 56, 95
2, 1318640, Pitch_bend_c, 1, 6656
2, 1318669, Pitch_bend_c, 1, 8320
2, 1318778, Pitch_bend_c, 1, 8448
2, 1318887, Pitch_bend_c, 1, 8576
2, 1318996, Pitch_bend_c, 1, 8704
2, 1319105, Pitch_bend_c, 1, 8832
2, 1319214, Pitch_bend_c, 1, 8960
2, 1319323, Pitch_bend_c, 1, 9088
2, 1319392, Pitch_bend_c, 1, 6784
2, 1319432, Pitch_bend_c, 1, 9216
2, 1319541, Pitch_bend_c, 1, 9344
2, 1319640, Pitch_bend_c, 1, 8448
2, 1319650, Pitch_bend_c, 1, 9472
2, 1319759, Pitch_bend_c, 1, 9600
2, 1319760, Pitch_bend_c, 1, 9600
2, 1320144, Pitch_bend_c, 1, 6912
2, 1320896, Pitch_bend_c, 1, 7040
2, 1320900, Pitch_bend_c, 1, 8576
2, 1320960, Note_off_c, 0, 61, 95
2, 1320960, Pitch_bend_c, 1, 9600
2, 1320960, Pitch_bend_c, 1, 8192
2, 1320960, Note_off_c, 1, 56, 95
2, 1320960, Note_on_c, 0, 61, 95
2, 1320960, Pitch_bend_c, 1, 8192
2, 1320960, Note_on_c, 1, 56, 95
2, 1321047, Pitch_bend_c, 1, 8320
2, 1321134, Pitch_bend_c, 1, 8448
2, 1321221, Pitch_bend_c, 1, 8576
2, 1321308, Pitch_bend_c, 1, 8704
2, 1321395, Pitch_bend_c, 1, 8832
2, 1321482, Pitch_bend_c, 1, 8960
2, 1321569, Pitch_bend_c, 1, 9088
2, 1321648, Pitch_bend_c, 1, 7168
2, 1321656, Pitch_bend_c, 1, 9216
2, 1321743, Pitch_bend_c, 1, 9344
2, 1321830, Pitch_bend_c, 1, 9472
2, 1321917, Pitch_bend_c, 1, 9600
2, 1321920, Pitch_bend_c, 1, 9600
2, 1322160, Pitch_bend_c, 1, 8704
2, 1322400, Pitch_bend_c, 1, 7296
2, 1322880, Note_off_c, 0, 61, 95
2, 1322880, Pitch_bend_c, 1, 9600
2, 1322880, Pitch_bend_c, 1, 8192
2, 1322880, Note_off_c, 1, 56, 95
2, 1322880, Note_on_c, 0, 58, 95
2, 1322880, Pitch_bend_c, 1, 8192
2, 1322880, Note_on_c, 1, 56, 95
2, 1322896, Pitch_bend_c, 1, 8320
2, 1322912, Pitch_bend_c, 1, 8448
2, 1322928, Pitch_bend_c, 1, 8576
2, 1322944, Pitch_bend_c, 1, 8704
2, 1322960, Pitch_bend_c, 1, 8832
2, 1322976, Pitch_bend_c, 1, 8960
2, 1322992, Pitch_bend_c, 1, 9088
2, 1323008, Pitch_bend_c, 1, 9216
2, 1323024, Pitch_bend_c, 1, 9344
2, 1323040, Pitch_bend_c, 1, 9472
2, 1323056, Pitch_bend_c, 1, 9600
2, 1323060, Pitch_bend_c, 1, 9600
2, 1323152, Pitch_bend_c, 1, 7424
2, 1323240, Pitch_bend_c, 1, 9600
2, 1323256, Pitch_bend_c, 1, 9472
2, 1323272, Pitch_bend_c, 1, 9344
2, 1323288, Pitch_bend_c, 1, 9216
2, 1323304, Pitch_bend_c, 1, 9088
2, 1323320, Pitch_bend_c, 1, 8960
2, 1323336, Pitch_bend_c, 1, 8832
2, 1323352, Pitch_bend_c, 1, 8704
2, 1323368, Pitch_bend_c, 1, 8576
2, 1323384, Pitch_bend_c, 1, 8448
2, 1323400, Pitch_bend_c, 1, 8320
2, 1323416, Pitch_bend_c, 1, 8192
2, 1323420, Pitch_bend_c, 1, 8832
2, 1323420, Pitch_bend_c, 1, 8192
2, 1323600, Note_off_c, 0, 58, 95
2, 1323600, Pitch_bend_c, 1, 8192
2, 1323600, Pitch_bend_c, 1, 8192
2, 1323600, Note_off_c, 1, 56, 95
2, 1323600, Note_on_c, 0, 58, 95
2, 1323600, Note_on_c, 0, 54, 95
2, 1323840, Note_off_c, 0, 58, 95
2, 1323840, Note_off_c, 0, 54, 95
2, 1323840, Note_on_c, 0, 51, 95
2, 1323904, Pitch_bend_c, 1, 7552
2, 1324200, Note_off_c, 0, 51, 95
2, 1324200, Note_on_c, 0, 49, 95
2, 1324560, Note_off_c, 0, 49, 95
2, 1324560, Note_on_c, 0, 51, 95
2, 1324656, Pitch_bend_c, 1, 7680
2, 1324680, Pitch_bend_c, 1, 8960
2, 1325408, Pitch_bend_c, 1, 7808
2, 1325940, Pitch_bend_c, 1, 9088
2, 1326160, Pitch_bend_c, 1, 7936
2, 1326912, Pitch_bend_c, 1, 8064
2, 1327200, Pitch_bend_c, 1, 9216
2, 1327200, Pitch_bend_c, 1, 9216
2, 1327664, Pitch_bend_c, 1, 8192
2, 1327680, Note_off_c, 0, 56, 70
2, 1327680, Pitch_bend_c, 1, 8192
2, 1327680, Pitch_bend_c, 1, 8192
2, 1327680, Note_off_c, 1, 39, 95
2, 1327680, Note_off_c, 0, 51, 95
2, 1327680, Note_on_c, 1, 61, 95
2, 1327840, Pitch_bend_c, 1, 8832
2, 1328000, Pitch_bend_c, 1, 9600
2, 1328000, Pitch_bend_c, 1, 8192
2, 1328000, Note_off_c, 1, 61, 95
2, 1328000, Note_on_c, 0, 63, 95
2, 1328320, Note_off_c, 0, 63, 95
2, 1328320, Note_on_c, 0, 63, 95
2, 1328640, Note_off_c, 0, 63, 95
2, 1328640, Note_on_c, 0, 66, 95
2, 1329000, Note_off_c, 0, 66, 95
2, 1329000, Note_on_c, 0, 68, 95
2, 1329360, Note_off_c, 0, 68, 95
2, 1329360, Pitch_bend_c, 1, 8192
2, 1329360, Note_on_c, 1, 68, 95
2, 1329490, Pitch_bend_c, 1, 8320
2, 1329620, Pitch_bend_c, 1, 8448
2, 1329750, Pitch_bend_c, 1, 8576
2, 1329880, Pitch_bend_c, 1, 8704
2, 1330010, Pitch_bend_c, 1, 8832
2, 1330140, Pitch_bend_c, 1, 8960
2, 1330270, Pitch_bend_c, 1, 9088
2, 1330400, Pitch_bend_c, 1, 9216
2, 1330530, Pitch_bend_c, 1, 9344
2, 1330660, Pitch_bend_c, 1, 9472
2, 1330790, Pitch_bend_c, 1, 9600
2, 1330800, Pitch_bend_c, 1, 9600
2, 1332240, Pitch_bend_c, 1, 9600
2, 1332240, Pitch_bend_c, 1, 8192
2, 1332240, Note_off_c, 1, 68, 95
2, 1332240, Pitch_bend_c, 1, 8192
2, 1332240, Note_on_c, 1, 68, 95
2, 1332267, Pitch_bend_c, 1, 8320
2, 1332294, Pitch_bend_c, 1, 8448
2, 1332321, Pitch_bend_c, 1, 8576
2, 1332348, Pitch_bend_c, 1, 8704
2, 1332375, Pitch_bend_c, 1, 8832
2, 1332402, Pitch_bend_c, 1, 8960
2, 1332429, Pitch_bend_c, 1, 9088
2, 1332456, Pitch_bend_c, 1, 9216
2, 1332483, Pitch_bend_c, 1, 9344
2, 1332510, Pitch_bend_c, 1, 9472
2, 1332537, Pitch_bend_c, 1, 9600
2, 1332540, Pitch_bend_c, 1, 9600
2, 1332840, Pitch_bend_c, 1, 9600
2, 1332840, Pitch_bend_c, 1, 8192
2, 1332840, Note_off_c, 1, 68, 95
2, 1332840, Note_on_c, 0, 68, 95
2, 1333160, Note_off_c, 0, 68, 95
2, 1333160, Note_on_c, 0, 66, 95
2, 1333480, Note_off_c, 0, 66, 95
2, 1333480, Note_on_c, 0, 68, 95
2, 1333800, Note_off_c, 0, 68, 95
2, 1333800, Note_on_c, 0, 66, 95
2, 1334160, Note_off_c, 0, 66, 95
2, 1334160, Note_on_c, 0, 63, 95
2, 1334880, Note_off_c, 0, 63, 95
2, 1334880, Note_on_c, 0, 66, 95
2, 1335120, Note_off_c, 0, 66, 95
2, 1335120, Note_on_c, 0, 59, 95
2, 1335360, Note_off_c, 0, 59, 95
2, 1335360, Note_on_c, 0, 61, 95
2, 1335600, Note_off_c, 0, 61, 95
2, 1335600, Note_on_c, 0, 58, 95
2, 1337280, Pitch_bend_c, 1, 9216
2, 1337280, Pitch_bend_c, 1, 8192
2, 1337280, Note_off_c, 1, 79, 95
2, 1337280, Note_off_c, 0, 58, 95
2, 1337280, Note_on_c, 1, 56, 95
2, 1337400, Pitch_bend_c, 1, 9600
2, 1337520, Pitch_bend_c, 1, 11008
2, 1337520, Pitch_bend_c, 1, 8192
2, 1337520, Note_off_c, 1, 56, 95
2, 1337520, Note_on_c, 0, 60, 95
2, 1337760, Note_off_c, 0, 60, 95
2, 1337760, Note_on_c, 0, 63, 95
2, 1338240, Note_off_c, 0, 63, 95
2, 1338240, Pitch_bend_c, 1, 8192
2, 1338240, Note_on_c, 1, 70, 95
2, 1338285, Pitch_bend_c, 1, 8320
2, 1338330, Pitch_bend_c, 1, 8448
2, 1338375, Pitch_bend_c, 1, 8576
2, 1338420, Pitch_bend_c, 1, 8704
2, 1338465, Pitch_bend_c, 1, 8832
2, 1338510, Pitch_bend_c, 1, 8960
2, 1338555, Pitch_bend_c, 1, 9088
2, 1338600, Pitch_bend_c, 1, 9216
2, 1338645, Pitch_bend_c, 1, 9344
2, 1338690, Pitch_bend_c, 1, 9472
2, 1338735, Pitch_bend_c, 1, 9600
2, 1338780, Pitch_bend_c, 1, 9728
2, 1338825, Pitch_bend_c, 1, 9856
2, 1338870, Pitch_bend_c, 1, 9984
2, 1338915, Pitch_bend_c, 1, 10112
2, 1338960, Pitch_bend_c, 1, 10240
2, 1338960, Pitch_bend_c, 1, 10240
2, 1339680, Pitch_bend_c, 1, 10240
2, 1339680, Pitch_bend_c, 1, 8192
2, 1339680, Note_off_c, 1, 70, 95
2, 1339680, Pitch_bend_c, 1, 8192
2, 1339680, Note_on_c, 1, 70, 95
2, 1339728, Pitch_bend_c, 1, 8320
2, 1339776, Pitch_bend_c, 1, 8448
2, 1339824, Pitch_bend_c, 1, 8576
2, 1339872, Pitch_bend_c, 1, 8704
2, 1339920, Pitch_bend_c, 1, 8832
2, 1339920, Pitch_bend_c, 1, 8832
2, 1340160, Pitch_bend_c, 1, 8832
2, 1340160, Pitch_bend_c, 1, 8192
2, 1340160, Note_off_c, 1, 70, 95
2, 1340160, Note_on_c, 0, 70, 95
2, 1340520, Note_off_c, 0, 70, 95
2, 1340520, Note_on_c, 0, 69, 95
2, 1340880, Note_off_c, 0, 69, 95
2, 1340880, Note_on_c, 0, 68, 95
2, 1341240, Note_off_c, 0, 68, 95
2, 1341240, Note_on_c, 0, 66, 95
2, 1341600, Note_off_c, 0, 66, 95
2, 1341600, Note_on_c, 0, 68, 95
2, 1341960, Note_off_c, 0, 68, 95
2, 1341960, Note_on_c, 1, 66, 95
2, 1342080, Pitch_bend_c, 1, 8832
2, 1342200, Pitch_bend_c, 1, 9600
2, 1342200, Pitch_bend_c, 1, 8192
2, 1342200, Note_off_c, 1, 66, 95
2, 1342200, Pitch_bend_c, 1, 8192
2, 1342200, Note_on_c, 1, 68, 95
2, 1342230, Pitch_bend_c, 1, 8320
2, 1342260, Pitch_bend_c, 1, 8448
2, 1342290, Pitch_bend_c, 1, 8576
2, 1342320, Pitch_bend_c, 1, 8704
2, 1342350, Pitch_bend_c, 1, 8832
2, 1342380, Pitch_bend_c, 1, 8960
2, 1342410, Pitch_bend_c, 1, 9088
2, 1342440, Pitch_bend_c, 1, 9216
2, 1342440, Pitch_bend_c, 1, 9216
2, 1342680, Pitch_bend_c, 1, 9216
2, 1342680, Pitch_bend_c, 1, 8192
2, 1342680, Note_off_c, 1, 68, 95
2, 1342680, Note_on_c, 1, 66, 95
2, 1342680, Note_on_c, 1, 63, 95
2, 1342800, Pitch_bend_c, 1, 8192
2, 1342800, Pitch_bend_c, 1, 8192
2, 1342920, Pitch_bend_c, 1, 8192
2, 1342920, Pitch_bend_c, 1, 8192
2, 1343040, Pitch_bend_c, 1, 8192
2, 1343040, Pitch_bend_c, 1, 8192
2, 1343040, Pitch_bend_c, 1, 8192
2, 1343040, Pitch_bend_c, 1, 8192
2, 1344480, Note_off_c, 1, 66, 95
2, 1344480, Note_off_c, 1, 63, 95
2, 1344480, Note_on_c, 1, 56, 95
2, 1344600, Pitch_bend_c, 1, 9600
2, 1344720, Pitch_bend_c, 1, 11008
2, 1344720, Pitch_bend_c, 1, 8192
2, 1344720, Note_off_c, 1, 56, 95
2, 1344720, Note_on_c, 0, 60, 95
2, 1344960, Note_off_c, 0, 60, 95
2, 1344960, Note_on_c, 0, 63, 95
2, 1345440, Note_off_c, 0, 63, 95
2, 1345440, Note_on_c, 1, 59, 95
2, 1345560, Pitch_bend_c, 1, 8448
2, 1345680, Pitch_bend_c, 1, 8832
2, 1345680, Pitch_bend_c, 1, 8192
2, 1345680, Note_off_c, 1, 59, 95
2, 1345680, Note_on_c, 0, 60, 95
2, 1345920, Note_off_c, 0, 60, 95
2, 1345920, Note_on_c, 0, 63, 95
2, 1346160, Note_off_c, 0, 63, 95
2, 1346160, Note_on_c, 1, 58, 95
2, 1346280, Pitch_bend_c, 1, 8832
2, 1346400, Pitch_bend_c, 1, 9600
2, 1346400, Pitch_bend_c, 1, 8192
2, 1346400, Note_off_c, 1, 58, 95
2, 1346400, Note_on_c, 0, 60, 95
2, 1346640, Note_off_c, 0, 60, 95
2, 1346640, Note_on_c, 1, 60, 95
2, 1346760, Pitch_bend_c, 1, 9216
2, 1346880, Pitch_bend_c, 1, 10240
2, 1346880, Pitch_bend_c, 1, 8192
2, 1346880, Note_off_c, 1, 60, 95
2, 1346880, Note_on_c, 0, 63, 95
2, 1347120, Note_off_c, 0, 63, 95
2, 1347120, Note_on_c, 0, 66, 95
2, 1347480, Note_off_c, 0, 66, 95
2, 1347480, Note_on_c, 0, 66, 95
2, 1347720, Note_off_c, 0, 66, 95
2, 1347720, Note_on_c, 1, 63, 95
2, 1347840, Pitch_bend_c, 1, 8192
2, 1347840, Pitch_bend_c, 1, 8192
2, 1347960, Note_off_c, 1, 63, 95
2, 1347960, Note_on_c, 0, 65, 95
2, 1348200, Note_off_c, 0, 65, 95
2, 1348200, Note_on_c, 0, 65, 95
2, 1348680, Note_off_c, 0, 65, 95
2, 1348680, Note_on_c, 1, 63, 95
2, 1348800, Pitch_bend_c, 1, 7936
2, 1348920, Pitch_bend_c, 1, 7552
2, 1349040, Pitch_bend_c, 1, 7168
2, 1349160, Pitch_bend_c, 1, 6784
2, 1349280, Pitch_bend_c, 1, 6528
2, 1349400, Pitch_bend_c, 1, 6144
2, 1349400, Pitch_bend_c, 1, 8192
2, 1349400, Note_off_c, 1, 63, 95
2, 1349400, Note_on_c, 0, 60, 95
2, 1350240, Note_off_c, 0, 60, 95
2, 1350240, Note_on_c, 1, 63, 95
2, 1350240, Note_on_c, 1, 63, 95
2, 1350240, Note_on_c, 1, 60, 95
2, 1350360, Pitch_bend_c, 1, 8448
2, 1350360, Pitch_bend_c, 1, 8448
2, 1350400, Pitch_bend_c, 1, 8192
2, 1350480, Pitch_bend_c, 1, 8832
2, 1350480, Pitch_bend_c, 1, 8832
2, 1350560, Pitch_bend_c, 1, 8320
2, 1350600, Pitch_bend_c, 1, 9216
2, 1350600, Pitch_bend_c, 1, 9216
2, 1350720, Pitch_bend_c, 1, 8192
2, 1350720, Pitch_bend_c, 1, 9600
2, 1350720, Pitch_bend_c, 1, 8192
2, 1350720, Note_off_c, 1, 63, 95
2, 1350720, Pitch_bend_c, 1, 9600
2, 1350720, Pitch_bend_c, 1, 8192
2, 1350720, Note_off_c, 1, 60, 95
2, 1350720, Note_on_c, 1, 65, 95
2, 1350720, Note_on_c, 1, 62, 95
2, 1350840, Pitch_bend_c, 1, 8320
2, 1350840, Pitch_bend_c, 1, 8320
2, 1350880, Pitch_bend_c, 1, 8320
2, 1350960, Pitch_bend_c, 1, 8448
2, 1350960, Pitch_bend_c, 1, 8448
2, 1351040, Pitch_bend_c, 1, 8192
2, 1351080, Pitch_bend_c, 1, 8704
2, 1351080, Pitch_bend_c, 1, 8704
2, 1351200, Pitch_bend_c, 1, 8320
2, 1351200, Pitch_bend_c, 1, 8832
2, 1351200, Pitch_bend_c, 1, 8192
2, 1351200, Note_off_c, 1, 65, 95
2, 1351200, Pitch_bend_c, 1, 8832
2, 1351200, Pitch_bend_c, 1, 8192
2, 1351200, Note_off_c, 1, 62, 95
2, 1351200, Note_on_c, 1, 66, 95
2, 1351200, Note_on_c, 1, 63, 95
2, 1351360, Pitch_bend_c, 1, 8192
2, 1351360, Pitch_bend_c, 1, 8192
2, 1351360, Pitch_bend_c, 1, 8192
2, 1351520, Pitch_bend_c, 1, 8320
2, 1351520, Pitch_bend_c, 1, 8320
2, 1351520, Pitch_bend_c, 1, 8320
2, 1351680, Pitch_bend_c, 1, 8192
2, 1351680, Pitch_bend_c, 1, 8320
2, 1351680, Pitch_bend_c, 1, 8192
2, 1351680, Note_off_c, 1, 63, 95
2, 1351680, Pitch_bend_c, 1, 8192
2, 1351680, Pitch_bend_c, 1, 8320
2, 1351680, Pitch_bend_c, 1, 8192
2, 1351680, Note_off_c, 1, 66, 95
2, 1351680, Pitch_bend_c, 1, 8192
2, 1351680, Pitch_bend_c, 1, 8320
2, 1351680, Pitch_bend_c, 1, 8192
2, 1351680, Note_off_c, 1, 63, 95
2, 1351680, Note_on_c, 0, 63, 95
2, 1351680, Note_on_c, 1, 63, 95
2, 1351680, Note_on_c, 1, 60, 95
2, 1351800, Pitch_bend_c, 1, 8192
2, 1351800, Pitch_bend_c, 1, 8192
2, 1351920, Pitch_bend_c, 1, 8192
2, 1351920, Pitch_bend_c, 1, 8192
2, 1352040, Pitch_bend_c, 1, 8192
2, 1352040, Pitch_bend_c, 1, 8192
2, 1352160, Pitch_bend_c, 1, 8192
2, 1352160, Pitch_bend_c, 1, 8192
2, 1352280, Pitch_bend_c, 1, 8192
2, 1352280, Pitch_bend_c, 1, 8192
2, 1352400, Note_off_c, 0, 63, 95
2, 1352400, Pitch_bend_c, 1, 8192
2, 1352400, Pitch_bend_c, 1, 8192
2, 1352400, Note_off_c, 1, 63, 95
2, 1352400, Pitch_bend_c, 1, 8192
2, 1352400, Pitch_bend_c, 1, 8192
2, 1352400, Note_off_c, 1, 60, 95
2, 1352400, Note_on_c, 0, 63, 95
2, 1352400, Note_on_c, 0, 63, 95
2, 1352400, Note_on_c, 0, 60, 95
2, 1352640, Note_off_c, 0, 63, 95
2, 1352640, Note_off_c, 0, 63, 95
2, 1352640, Note_off_c, 0, 60, 95
2, 1352640, Note_on_c, 0, 63, 95
2, 1352640, Note_on_c, 0, 63, 95
2, 1352640, Note_on_c, 0, 60, 95
2, 1352880, Note_off_c, 0, 63, 95
2, 1352880, Note_off_c, 0, 63, 95
2, 1352880, Note_off_c, 0, 60, 95
2, 1352880, Note_on_c, 0, 63, 95
2, 1352880, Note_on_c, 0, 63, 95
2, 1352880, Note_on_c, 0, 60, 95
2, 1353120, Note_off_c, 0, 63, 95
2, 1353120, Note_off_c, 0, 63, 95
2, 1353120, Note_off_c, 0, 60, 95
2, 1353120, Note_on_c, 0, 63, 95
2, 1353120, Note_on_c, 0, 63, 95
2, 1353120, Note_on_c, 0, 60, 95
2, 1353360, Note_off_c, 0, 63, 95
2, 1353360, Note_off_c, 0, 63, 95
2, 1353360, Note_off_c, 0, 60, 95
2, 1353360, Note_on_c, 0, 63, 95
2, 1353360, Note_on_c, 0, 63, 95
2, 1353360, Note_on_c, 0, 60, 95
2, 1353600, Note_off_c, 0, 63, 95
2, 1353600, Note_off_c, 0, 63, 95
2, 1353600, Note_off_c, 0, 60, 95
2, 1353600, Note_on_c, 0, 63, 95
2, 1353600, Note_on_c, 1, 63, 95
2, 1353600, Note_on_c, 1, 60, 95
2, 1353720, Pitch_bend_c, 1, 8192
2, 1353720, Pitch_bend_c, 1, 8192
2, 1353840, Pitch_bend_c, 1, 8192
2, 1353840, Pitch_bend_c, 1, 8192
2, 1353960, Pitch_bend_c, 1, 8192
2, 1353960, Pitch_bend_c, 1, 8192
2, 1354080, Pitch_bend_c, 1, 8192
2, 1354080, Pitch_bend_c, 1, 8192
2, 1354200, Pitch_bend_c, 1, 8192
2, 1354200, Pitch_bend_c, 1, 8192
2, 1354320, Pitch_bend_c, 1, 8192
2, 1354320, Pitch_bend_c, 1, 8192
2, 1354440, Pitch_bend_c, 1, 8192
2, 1354440, Pitch_bend_c, 1, 8192
2, 1354560, Note_off_c, 0, 63, 95
2, 1354560, Pitch_bend_c, 1, 8192
2, 1354560, Pitch_bend_c, 1, 8192
2, 1354560, Note_off_c, 1, 63, 95
2, 1354560, Pitch_bend_c, 1, 8192
2, 1354560, Pitch_bend_c, 1, 8192
2, 1354560, Note_off_c, 1, 60, 95
2, 1354560, Note_on_c, 0, 63, 95
2, 1354560, Note_on_c, 1, 63, 95
2, 1354560, Note_on_c, 1, 60, 95
2, 1354680, Pitch_bend_c, 1, 8192
2, 1354680, Pitch_bend_c, 1, 8192
2, 1354800, Pitch_bend_c, 1, 8192
2, 1354800, Pitch_bend_c, 1, 8192
2, 1354920, Pitch_bend_c, 1, 8192
2, 1354920, Pitch_bend_c, 1, 8192
2, 1355040, Pitch_bend_c, 1, 8192
2, 1355040, Pitch_bend_c, 1, 8192
2, 1355160, Pitch_bend_c, 1, 8192
2, 1355160, Pitch_bend_c, 1, 8192
2, 1355280, Pitch_bend_c, 1, 8192
2, 1355280, Pitch_bend_c, 1, 8192
2, 1355400, Pitch_bend_c, 1, 8192
2, 1355400, Pitch_bend_c, 1, 8192
2, 1355520, Pitch_bend_c, 1, 8192
2, 1355520, Pitch_bend_c, 1, 8192
2, 1355520, Pitch_bend_c, 1, 8192
2, 1355520, Pitch_bend_c, 1, 8192
2, 1356000, Note_off_c, 0, 63, 95
2, 1356000, Note_off_c, 1, 63, 95
2, 1356000, Note_off_c, 1, 60, 95
2, 1356000, Note_on_c, 1, 80, 95
2, 1356000, Note_on_c, 1, 77, 95
2, 1356120, Pitch_bend_c, 1, 7296
2, 1356120, Pitch_bend_c, 1, 7168
2, 1356240, Pitch_bend_c, 1, 6272
2, 1356240, Pitch_bend_c, 1, 6016
2, 1356360, Pitch_bend_c, 1, 5248
2, 1356360, Pitch_bend_c, 1, 4864
2, 1356480, Pitch_bend_c, 1, 4224
2, 1356480, Pitch_bend_c, 1, 3840
2, 1356600, Pitch_bend_c, 1, 3328
2, 1356600, Pitch_bend_c, 1, 2688
2, 1356720, Pitch_bend_c, 1, 2304
2, 1356720, Pitch_bend_c, 1, 1536
2, 1356840, Pitch_bend_c, 1, 1280
2, 1356840, Pitch_bend_c, 1, 512
2, 1356960, Pitch_bend_c, 1, 256
2, 1356960, Pitch_bend_c, 1, 0
2, 1357080, Pitch_bend_c, 1, 0
2, 1357080, Pitch_bend_c, 1, 0
2, 1357200, Pitch_bend_c, 1, 0
2, 1357200, Pitch_bend_c, 1, 0
2, 1357320, Pitch_bend_c, 1, 0
2, 1357320, Pitch_bend_c, 1, 0
2, 1357440, Pitch_bend_c, 1, 0
2, 1357440, Pitch_bend_c, 1, 8192
2, 1357440, Note_off_c, 1, 80, 95
2, 1357440, Pitch_bend_c, 1, 0
2, 1357440, Pitch_bend_c, 1, 8192
2, 1357440, Note_off_c, 1, 77, 95
2, 1357440, Note_on_c, 0, 63, 47
2, 1357440, Note_on_c, 0, 58, 47
2, 1359360, Note_off_c, 0, 63, 47
2, 1359360, Note_off_c, 0, 58, 47
2, 1359360, Pitch_bend_c, 1, 8192
2, 1359360, Note_on_c, 1, 80, 95
2, 1359433, Pitch_bend_c, 1, 8320
2, 1359506, Pitch_bend_c, 1, 8448
2, 1359579, Pitch_bend_c, 1, 8576
2, 1359652, Pitch_bend_c, 1, 8704
2, 1359725, Pitch_bend_c, 1, 8832
2, 1359798, Pitch_bend_c, 1, 8960
2, 1359871, Pitch_bend_c, 1, 9088
2, 1359944, Pitch_bend_c, 1, 9216
2, 1360017, Pitch_bend_c, 1, 9344
2, 1360090, Pitch_bend_c, 1, 9472
2, 1360163, Pitch_bend_c, 1, 9600
2, 1360236, Pitch_bend_c, 1, 9728
2, 1360309, Pitch_bend_c, 1, 9856
2, 1360320, Pitch_bend_c, 1, 9856
2, 1361280, Pitch_bend_c, 1, 9856
2, 1361280, Pitch_bend_c, 1, 8192
2, 1361280, Note_off_c, 1, 80, 95
2, 1361280, Pitch_bend_c, 1, 8192
2, 1361280, Note_on_c, 1, 80, 95
2, 1361760, Pitch_bend_c, 1, 8320
2, 1362240, Pitch_bend_c, 1, 8448
2, 1362240, Pitch_bend_c, 1, 8448
2, 1363200, Pitch_bend_c, 1, 8448
2, 1363200, Pitch_bend_c, 1, 8192
2, 1363200, Note_off_c, 1, 80, 95
2, 1363200, Pitch_bend_c, 1, 8192
2, 1363200, Note_on_c, 1, 75, 95
2, 1364280, Pitch_bend_c, 1, 8320
2, 1365360, Pitch_bend_c, 1, 8448
2, 1365360, Pitch_bend_c, 1, 8448
2, 1367520, Pitch_bend_c, 1, 8448
2, 1367520, Pitch_bend_c, 1, 8192
2, 1367520, Note_off_c, 1, 75, 95
2, 1367520, Pitch_bend_c, 1, 8192
2, 1367520, Note_on_c, 1, 75, 95
2, 1367616, Pitch_bend_c, 1, 8320
2, 1367712, Pitch_bend_c, 1, 8448
2, 1367808, Pitch_bend_c, 1, 8576
2, 1367904, Pitch_bend_c, 1, 8704
2, 1368000, Pitch_bend_c, 1, 8832
2, 1368000, Pitch_bend_c, 1, 8832
2, 1368080, Pitch_bend_c, 1, 8960
2, 1368160, Pitch_bend_c, 1, 9088
2, 1368240, Pitch_bend_c, 1, 9216
2, 1368320, Pitch_bend_c, 1, 9344
2, 1368400, Pitch_bend_c, 1, 9472
2, 1368480, Pitch_bend_c, 1, 9600
2, 1368480, Pitch_bend_c, 1, 9600
2, 1368480, Pitch_bend_c, 1, 8192
2, 1368480, Note_off_c, 1, 75, 95
2, 1368480, Pitch_bend_c, 1, 8192
2, 1368480, Note_on_c, 1, 75, 95
2, 1368523, Pitch_bend_c, 1, 8320
2, 1368566, Pitch_bend_c, 1, 8448
2, 1368609, Pitch_bend_c, 1, 8576
2, 1368652, Pitch_bend_c, 1, 8704
2, 1368695, Pitch_bend_c, 1, 8832
2, 1368738, Pitch_bend_c, 1, 8960
2, 1368781, Pitch_bend_c, 1, 9088
2, 1368824, Pitch_bend_c, 1, 9216
2, 1368867, Pitch_bend_c, 1, 9344
2, 1368910, Pitch_bend_c, 1, 9472
2, 1368953, Pitch_bend_c, 1, 9600
2, 1368960, Pitch_bend_c, 1, 9600
2, 1369056, Pitch_bend_c, 1, 9728
2, 1369152, Pitch_bend_c, 1, 9856
2, 1369248, Pitch_bend_c, 1, 9984
2, 1369344, Pitch_bend_c, 1, 10112
2, 1369440, Pitch_bend_c, 1, 10240
2, 1369440, Pitch_bend_c, 1, 10240
2, 1369440, Pitch_bend_c, 1, 8192
2, 1369440, Note_off_c, 1, 75, 95
2, 1369440, Pitch_bend_c, 1, 8192
2, 1369440, Note_on_c, 1, 75, 95
2, 1369500, Pitch_bend_c, 1, 8320
2, 1369560, Pitch_bend_c, 1, 8448
2, 1369620, Pitch_bend_c, 1, 8576
2, 1369680, Pitch_bend_c, 1, 8704
2, 1369740, Pitch_bend_c, 1, 8832
2, 1369800, Pitch_bend_c, 1, 8960
2, 1369860, Pitch_bend_c, 1, 9088
2, 1369920, Pitch_bend_c, 1, 9216
2, 1369920, Pitch_bend_c, 1, 9216
2, 1369980, Pitch_bend_c, 1, 9344
2, 1370040, Pitch_bend_c, 1, 9472
2, 1370100, Pitch_bend_c, 1, 9600
2, 1370160, Pitch_bend_c, 1, 9728
2, 1370220, Pitch_bend_c, 1, 9856
2, 1370280, Pitch_bend_c, 1, 9984
2, 1370340, Pitch_bend_c, 1, 10112
2, 1370400, Pitch_bend_c, 1, 10240
2, 1370400, Pitch_bend_c, 1, 10240
2, 1370400, Pitch_bend_c, 1, 8192
2, 1370400, Note_off_c, 1, 75, 95
2, 1370400, Pitch_bend_c, 1, 8192
2, 1370400, Note_on_c, 1, 75, 95
2, 1370509, Pitch_bend_c, 1, 8320
2, 1370618, Pitch_bend_c, 1, 8448
2, 1370727, Pitch_bend_c, 1, 8576
2, 1370836, Pitch_bend_c, 1, 8704
2, 1370945, Pitch_bend_c, 1, 8832
2, 1371054, Pitch_bend_c, 1, 8960
2, 1371163, Pitch_bend_c, 1, 9088
2, 1371272, Pitch_bend_c, 1, 9216
2, 1371381, Pitch_bend_c, 1, 9344
2, 1371490, Pitch_bend_c, 1, 9472
2, 1371599, Pitch_bend_c, 1, 9600
2, 1371600, Pitch_bend_c, 1, 9600
2, 1371709, Pitch_bend_c, 1, 9728
2, 1371818, Pitch_bend_c, 1, 9856
2, 1371927, Pitch_bend_c, 1, 9984
2, 1372036, Pitch_bend_c, 1, 10112
2, 1372145, Pitch_bend_c, 1, 10240
2, 1372254, Pitch_bend_c, 1, 10368
2, 1372363, Pitch_bend_c, 1, 10496
2, 1372472, Pitch_bend_c, 1, 10624
2, 1372581, Pitch_bend_c, 1, 10752
2, 1372690, Pitch_bend_c, 1, 10880
2, 1372799, Pitch_bend_c, 1, 11008
2, 1372800, Pitch_bend_c, 1, 11008
2, 1372800, Pitch_bend_c, 1, 8192
2, 1372800, Note_off_c, 1, 75, 95
2, 1372800, Pitch_bend_c, 1, 8192
2, 1372800, Note_on_c, 1, 75, 95
2, 1372815, Pitch_bend_c, 1, 8320
2, 1372830, Pitch_bend_c, 1, 8448
2, 1372845, Pitch_bend_c, 1, 8576
2, 1372860, Pitch_bend_c, 1, 8704
2, 1372875, Pitch_bend_c, 1, 8832
2, 1372890, Pitch_bend_c, 1, 8960
2, 1372905, Pitch_bend_c, 1, 9088
2, 1372920, Pitch_bend_c, 1, 9216
2, 1372935, Pitch_bend_c, 1, 9344
2, 1372950, Pitch_bend_c, 1, 9472
2, 1372965, Pitch_bend_c, 1, 9600
2, 1372980, Pitch_bend_c, 1, 9728
2, 1372995, Pitch_bend_c, 1, 9856
2, 1373010, Pitch_bend_c, 1, 9984
2, 1373025, Pitch_bend_c, 1, 10112
2, 1373040, Pitch_bend_c, 1, 10240
2, 1373040, Pitch_bend_c, 1, 10240
2, 1373280, Pitch_bend_c, 1, 10240
2, 1373280, Pitch_bend_c, 1, 8192
2, 1373280, Note_off_c, 1, 75, 95
2, 1373280, Pitch_bend_c, 1, 8192
2, 1373280, Note_on_c, 1, 75, 95
2, 1373400, Pitch_bend_c, 1, 8320
2, 1373520, Pitch_bend_c, 1, 8448
2, 1373520, Pitch_bend_c, 1, 8448
2, 1373760, Pitch_bend_c, 1, 8448
2, 1373760, Pitch_bend_c, 1, 8192
2, 1373760, Note_off_c, 1, 75, 95
2, 1373760, Note_on_c, 0, 73, 95
2, 1374240, Note_off_c, 0, 73, 95
2, 1374240, Pitch_bend_c, 1, 8192
2, 1374240, Note_on_c, 1, 68, 95
2, 1374360, Pitch_bend_c, 1, 8320
2, 1374480, Pitch_bend_c, 1, 8448
2, 1374480, Pitch_bend_c, 1, 8448
2, 1374720, Pitch_bend_c, 1, 8448
2, 1374720, Pitch_bend_c, 1, 8192
2, 1374720, Note_off_c, 1, 68, 95
2, 1374720, Note_on_c, 0, 73, 95
2, 1375200, Note_off_c, 0, 73, 95
2, 1375200, Pitch_bend_c, 1, 8192
2, 1375200, Note_on_c, 1, 80, 95
2, 1375245, Pitch_bend_c, 1, 8320
2, 1375290, Pitch_bend_c, 1, 8448
2, 1375335, Pitch_bend_c, 1, 8576
2, 1375380, Pitch_bend_c, 1, 8704
2, 1375425, Pitch_bend_c, 1, 8832
2, 1375470, Pitch_bend_c, 1, 8960
2, 1375515, Pitch_bend_c, 1, 9088
2, 1375560, Pitch_bend_c, 1, 9216
2, 1375605, Pitch_bend_c, 1, 9344
2, 1375650, Pitch_bend_c, 1, 9472
2, 1375695, Pitch_bend_c, 1, 9600
2, 1375740, Pitch_bend_c, 1, 9728
2, 1375785, Pitch_bend_c, 1, 9856
2, 1375830, Pitch_bend_c, 1, 9984
2, 1375875, Pitch_bend_c, 1, 10112
2, 1375920, Pitch_bend_c, 1, 10240
2, 1375920, Pitch_bend_c, 1, 10240
2, 1376640, Pitch_bend_c, 1, 10240
2, 1376640, Pitch_bend_c, 1, 8192
2, 1376640, Note_off_c, 1, 80, 95
2, 1376640, Pitch_bend_c, 1, 8192
2, 1376640, Note_on_c, 1, 82, 95
2, 1376736, Pitch_bend_c, 1, 8320
2, 1376832, Pitch_bend_c, 1, 8448
2, 1376928, Pitch_bend_c, 1, 8576
2, 1377024, Pitch_bend_c, 1, 8704
2, 1377120, Pitch_bend_c, 1, 8832
2, 1377120, Pitch_bend_c, 1, 8832
2, 1377600, Pitch_bend_c, 1, 8832
2, 1377600, Pitch_bend_c, 1, 8192
2, 1377600, Note_off_c, 1, 82, 95
2, 1377600, Pitch_bend_c, 1, 8192
2, 1377600, Note_on_c, 1, 78, 95
2, 1377720, Pitch_bend_c, 1, 8320
2, 1377840, Pitch_bend_c, 1, 8448
2, 1377840, Pitch_bend_c, 1, 8448
2, 1378080, Pitch_bend_c, 1, 8448
2, 1378080, Pitch_bend_c, 1, 8192
2, 1378080, Note_off_c, 1, 78, 95
2, 1378080, Pitch_bend_c, 1, 8192
2, 1378080, Note_on_c, 1, 80, 95
2, 1378200, Pitch_bend_c, 1, 8320
2, 1378320, Pitch_bend_c, 1, 8448
2, 1378320, Pitch_bend_c, 1, 8448
2, 1378560, Pitch_bend_c, 1, 8448
2, 1378560, Pitch_bend_c, 1, 8192
2, 1378560, Note_off_c, 1, 80, 95
2, 1378560, Pitch_bend_c, 1, 8192
2, 1378560, Note_on_c, 1, 75, 95
2, 1378680, Pitch_bend_c, 1, 8320
2, 1378800, Pitch_bend_c, 1, 8448
2, 1378800, Pitch_bend_c, 1, 8448
2, 1379040, Pitch_bend_c, 1, 8448
2, 1379040, Pitch_bend_c, 1, 8192
2, 1379040, Note_off_c, 1, 75, 95
2, 1379040, Pitch_bend_c, 1, 8192
2, 1379040, Note_on_c, 1, 78, 95
2, 1379160, Pitch_bend_c, 1, 8320
2, 1379280, Pitch_bend_c, 1, 8448
2, 1379280, Pitch_bend_c, 1, 8448
2, 1379520, Pitch_bend_c, 1, 8448
2, 1379520, Pitch_bend_c, 1, 8192
2, 1379520, Note_off_c, 1, 78, 95
2, 1379520, Pitch_bend_c, 1, 8192
2, 1379520, Note_on_c, 1, 73, 95
2, 1379550, Pitch_bend_c, 1, 8320
2, 1379580, Pitch_bend_c, 1, 8448
2, 1379610, Pitch_bend_c, 1, 8576
2, 1379640, Pitch_bend_c, 1, 8704
2, 1379670, Pitch_bend_c, 1, 8832
2, 1379700, Pitch_bend_c, 1, 8960
2, 1379730, Pitch_bend_c, 1, 9088
2, 1379760, Pitch_bend_c, 1, 9216
2, 1379760, Pitch_bend_c, 1, 9216
2, 1380000, Pitch_bend_c, 1, 9216
2, 1380000, Pitch_bend_c, 1, 8192
2, 1380000, Note_off_c, 1, 73, 95
2, 1380000, Pitch_bend_c, 1, 8192
2, 1380000, Note_on_c, 1, 75, 95
2, 1380240, Pitch_bend_c, 1, 8320
2, 1380480, Pitch_bend_c, 1, 8448
2, 1380480, Pitch_bend_c, 1, 8448
2, 1380960, Pitch_bend_c, 1, 8448
2, 1380960, Pitch_bend_c, 1, 8192
2, 1380960, Note_off_c, 1, 75, 95
2, 1380960, Pitch_bend_c, 1, 8192
2, 1380960, Note_on_c, 1, 78, 95
2, 1381020, Pitch_bend_c, 1, 8320
2, 1381080, Pitch_bend_c, 1, 8448
2, 1381080, Pitch_bend_c, 1, 8448
2, 1381200, Pitch_bend_c, 1, 8448
2, 1381200, Pitch_bend_c, 1, 8192
2, 1381200, Note_off_c, 1, 78, 95
2, 1381200, Note_on_c, 1, 75, 95
2, 1381320, Pitch_bend_c, 1, 8192
2, 1381440, Pitch_bend_c, 1, 8192
2, 1381560, Pitch_bend_c, 1, 8192
2, 1381680, Pitch_bend_c, 1, 8192
2, 1381800, Pitch_bend_c, 1, 8192
2, 1381920, Pitch_bend_c, 1, 8192
2, 1382040, Pitch_bend_c, 1, 8192
2, 1382160, Pitch_bend_c, 1, 8192
2, 1382160, Pitch_bend_c, 1, 8192
2, 1382400, Note_off_c, 1, 75, 95
2, 1382400, Pitch_bend_c, 1, 8192
2, 1382400, Note_on_c, 1, 78, 95
2, 1382422, Pitch_bend_c, 1, 8320
2, 1382444, Pitch_bend_c, 1, 8448
2, 1382466, Pitch_bend_c, 1, 8576
2, 1382488, Pitch_bend_c, 1, 8704
2, 1382510, Pitch_bend_c, 1, 8832
2, 1382532, Pitch_bend_c, 1, 8960
2, 1382554, Pitch_bend_c, 1, 9088
2, 1382576, Pitch_bend_c, 1, 9216
2, 1382580, Pitch_bend_c, 1, 9216
2, 1382760, Pitch_bend_c, 1, 9216
2, 1382760, Pitch_bend_c, 1, 8192
2, 1382760, Note_off_c, 1, 78, 95
2, 1382760, Note_on_c, 0, 75, 95
2, 1383120, Note_off_c, 0, 75, 95
2, 1383120, Note_on_c, 0, 75, 95
2, 1383480, Note_off_c, 0, 75, 95
2, 1383480, Pitch_bend_c, 1, 8192
2, 1383480, Note_on_c, 1, 73, 95
2, 1383501, Pitch_bend_c, 1, 8320
2, 1383522, Pitch_bend_c, 1, 8448
2, 1383543, Pitch_bend_c, 1, 8576
2, 1383564, Pitch_bend_c, 1, 8704
2, 1383585, Pitch_bend_c, 1, 8832
2, 1383606, Pitch_bend_c, 1, 8960
2, 1383627, Pitch_bend_c, 1, 9088
2, 1383648, Pitch_bend_c, 1, 9216
2, 1383669, Pitch_bend_c, 1, 9344
2, 1383690, Pitch_bend_c, 1, 9472
2, 1383711, Pitch_bend_c, 1, 9600
2, 1383720, Pitch_bend_c, 1, 9600
2, 1383960, Pitch_bend_c, 1, 9600
2, 1383960, Pitch_bend_c, 1, 8192
2, 1383960, Note_off_c, 1, 73, 95
2, 1383960, Note_on_c, 0, 75, 95
2, 1384320, Note_off_c, 0, 75, 95
2, 1384320, Pitch_bend_c, 1, 8192
2, 1384320, Note_on_c, 1, 73, 95
2, 1384334, Pitch_bend_c, 1, 8320
2, 1384348, Pitch_bend_c, 1, 8448
2, 1384362, Pitch_bend_c, 1, 8576
2, 1384376, Pitch_bend_c, 1, 8704
2, 1384390, Pitch_bend_c, 1, 8832
2, 1384404, Pitch_bend_c, 1, 8960
2, 1384418, Pitch_bend_c, 1, 9088
2, 1384432, Pitch_bend_c, 1, 9216
2, 1384446, Pitch_bend_c, 1, 9344
2, 1384460, Pitch_bend_c, 1, 9472
2, 1384474, Pitch_bend_c, 1, 9600
2, 1384480, Pitch_bend_c, 1, 9600
2, 1384640, Pitch_bend_c, 1, 9600
2, 1384640, Pitch_bend_c, 1, 8192
2, 1384640, Note_off_c, 1, 73, 95
2, 1384640, Note_on_c, 0, 75, 95
2, 1384960, Note_off_c, 0, 75, 95
2, 1384960, Pitch_bend_c, 1, 8192
2, 1384960, Note_on_c, 1, 73, 95
2, 1384992, Pitch_bend_c, 1, 8320
2, 1385024, Pitch_bend_c, 1, 8448
2, 1385056, Pitch_bend_c, 1, 8576
2, 1385088, Pitch_bend_c, 1, 8704
2, 1385120, Pitch_bend_c, 1, 8832
2, 1385120, Pitch_bend_c, 1, 8832
2, 1385280, Pitch_bend_c, 1, 8832
2, 1385280, Pitch_bend_c, 1, 8192
2, 1385280, Note_off_c, 1, 73, 95
2, 1385280, Note_on_c, 0, 75, 95
2, 1385520, Note_off_c, 0, 75, 95
2, 1385520, Pitch_bend_c, 1, 8192
2, 1385520, Note_on_c, 1, 72, 95
2, 1385544, Pitch_bend_c, 1, 8320
2, 1385568, Pitch_bend_c, 1, 8448
2, 1385592, Pitch_bend_c, 1, 8576
2, 1385616, Pitch_bend_c, 1, 8704
2, 1385640, Pitch_bend_c, 1, 8832
2, 1385640, Pitch_bend_c, 1, 8832
2, 1385760, Pitch_bend_c, 1, 8832
2, 1385760, Pitch_bend_c, 1, 8192
2, 1385760, Note_off_c, 1, 72, 95
2, 1385760, Note_on_c, 0, 75, 95
2, 1386000, Note_off_c, 0, 75, 95
2, 1386000, Pitch_bend_c, 1, 8192
2, 1386000, Note_on_c, 1, 68, 95
2, 1386021, Pitch_bend_c, 1, 8320
2, 1386042, Pitch_bend_c, 1, 8448
2, 1386063, Pitch_bend_c, 1, 8576
2, 1386084, Pitch_bend_c, 1, 8704
2, 1386105, Pitch_bend_c, 1, 8832
2, 1386126, Pitch_bend_c, 1, 8960
2, 1386147, Pitch_bend_c, 1, 9088
2, 1386168, Pitch_bend_c, 1, 9216
2, 1386189, Pitch_bend_c, 1, 9344
2, 1386210, Pitch_bend_c, 1, 9472
2, 1386231, Pitch_bend_c, 1, 9600
2, 1386240, Pitch_bend_c, 1, 9600
2, 1386480, Pitch_bend_c, 1, 9600
2, 1386480, Pitch_bend_c, 1, 8192
2, 1386480, Note_off_c, 1, 68, 95
2, 1386480, Note_on_c, 0, 75, 95
2, 1386720, Note_off_c, 0, 75, 95
2, 1386720, Pitch_bend_c, 1, 8192
2, 1386720, Note_on_c, 1, 73, 95
2, 1386730, Pitch_bend_c, 1, 8320
2, 1386740, Pitch_bend_c, 1, 8448
2, 1386750, Pitch_bend_c, 1, 8576
2, 1386760, Pitch_bend_c, 1, 8704
2, 1386770, Pitch_bend_c, 1, 8832
2, 1386780, Pitch_bend_c, 1, 8960
2, 1386790, Pitch_bend_c, 1, 9088
2, 1386800, Pitch_bend_c, 1, 9216
2, 1386810, Pitch_bend_c, 1, 9344
2, 1386820, Pitch_bend_c, 1, 9472
2, 1386830, Pitch_bend_c, 1, 9600
2, 1386840, Pitch_bend_c, 1, 9600
2, 1386960, Pitch_bend_c, 1, 9600
2, 1386960, Pitch_bend_c, 1, 8192
2, 1386960, Note_off_c, 1, 73, 95
2, 1386960, Note_on_c, 0, 70, 95
2, 1387200, Note_off_c, 0, 70, 95
2, 1387200, Pitch_bend_c, 1, 8192
2, 1387200, Note_on_c, 1, 68, 95
2, 1387210, Pitch_bend_c, 1, 8320
2, 1387220, Pitch_bend_c, 1, 8448
2, 1387230, Pitch_bend_c, 1, 8576
2, 1387240, Pitch_bend_c, 1, 8704
2, 1387250, Pitch_bend_c, 1, 8832
2, 1387260, Pitch_bend_c, 1, 8960
2, 1387270, Pitch_bend_c, 1, 9088
2, 1387280, Pitch_bend_c, 1, 9216
2, 1387290, Pitch_bend_c, 1, 9344
2, 1387300, Pitch_bend_c, 1, 9472
2, 1387310, Pitch_bend_c, 1, 9600
2, 1387320, Pitch_bend_c, 1, 9600
2, 1387440, Pitch_bend_c, 1, 9600
2, 1387680, Pitch_bend_c, 1, 9600
2, 1387680, Pitch_bend_c, 1, 8192
2, 1387680, Note_off_c, 1, 68, 95
2, 1387680, Note_on_c, 0, 78, 95
2, 1387800, Note_off_c, 0, 78, 95
2, 1387800, Note_on_c, 0, 75, 70
2, 1388040, Note_off_c, 0, 75, 70
2, 1388040, Note_on_c, 0, 78, 70
2, 1388280, Note_off_c, 0, 78, 70
2, 1388280, Note_on_c, 0, 75, 70
2, 1388520, Note_off_c, 0, 75, 70
2, 1388520, Pitch_bend_c, 1, 8192
2, 1388520, Note_on_c, 1, 73, 95
2, 1388535, Pitch_bend_c, 1, 8320
2, 1388550, Pitch_bend_c, 1, 8448
2, 1388565, Pitch_bend_c, 1, 8576
2, 1388580, Pitch_bend_c, 1, 8704
2, 1388595, Pitch_bend_c, 1, 8832
2, 1388610, Pitch_bend_c, 1, 8960
2, 1388625, Pitch_bend_c, 1, 9088
2, 1388640, Pitch_bend_c, 1, 9216
2, 1388640, Pitch_bend_c, 1, 9216
2, 1388760, Pitch_bend_c, 1, 9216
2, 1388760, Pitch_bend_c, 1, 8192
2, 1388760, Note_off_c, 1, 73, 95
2, 1388760, Note_on_c, 0, 75, 95
2, 1389240, Note_off_c, 0, 75, 95
2, 1389240, Note_on_c, 0, 70, 95
2, 1389240, Pitch_bend_c, 1, 8192
2, 1389240, Note_on_c, 1, 68, 95
2, 1389321, Pitch_bend_c, 1, 8320
2, 1389402, Pitch_bend_c, 1, 8448
2, 1389483, Pitch_bend_c, 1, 8576
2, 1389564, Pitch_bend_c, 1, 8704
2, 1389645, Pitch_bend_c, 1, 8832
2, 1389726, Pitch_bend_c, 1, 8960
2, 1389807, Pitch_bend_c, 1, 9088
2, 1389888, Pitch_bend_c, 1, 9216
2, 1389969, Pitch_bend_c, 1, 9344
2, 1390050, Pitch_bend_c, 1, 9472
2, 1390131, Pitch_bend_c, 1, 9600
2, 1390140, Pitch_bend_c, 1, 9600
2, 1391040, Note_off_c, 0, 70, 95
2, 1391040, Pitch_bend_c, 1, 9600
2, 1391040, Pitch_bend_c, 1, 8192
2, 1391040, Note_off_c, 1, 68, 95
2, 1391040, Note_on_c, 0, 75, 95
2, 1391400, Note_off_c, 0, 75, 95
2, 1391400, Pitch_bend_c, 1, 8192
2, 1391400, Note_on_c, 1, 68, 95
2, 1391422, Pitch_bend_c, 1, 8320
2, 1391444, Pitch_bend_c, 1, 8448
2, 1391466, Pitch_bend_c, 1, 8576
2, 1391488, Pitch_bend_c, 1, 8704
2, 1391510, Pitch_bend_c, 1, 8832
2, 1391532, Pitch_bend_c, 1, 8960
2, 1391554, Pitch_bend_c, 1, 9088
2, 1391576, Pitch_bend_c, 1, 9216
2, 1391580, Pitch_bend_c, 1, 9216
2, 1391760, Pitch_bend_c, 1, 9216
2, 1391760, Pitch_bend_c, 1, 8192
2, 1391760, Note_off_c, 1, 68, 95
2, 1391760, Note_on_c, 0, 75, 95
2, 1392120, Note_off_c, 0, 75, 95
2, 1392120, Pitch_bend_c, 1, 8192
2, 1392120, Note_on_c, 1, 68, 95
2, 1392142, Pitch_bend_c, 1, 8320
2, 1392164, Pitch_bend_c, 1, 8448
2, 1392186, Pitch_bend_c, 1, 8576
2, 1392208, Pitch_bend_c, 1, 8704
2, 1392230, Pitch_bend_c, 1, 8832
2, 1392252, Pitch_bend_c, 1, 8960
2, 1392274, Pitch_bend_c, 1, 9088
2, 1392296, Pitch_bend_c, 1, 9216
2, 1392300, Pitch_bend_c, 1, 9216
2, 1392480, Pitch_bend_c, 1, 9216
2, 1392480, Pitch_bend_c, 1, 8192
2, 1392480, Note_off_c, 1, 68, 95
2, 1392480, Note_on_c, 0, 75, 95
2, 1392840, Note_off_c, 0, 75, 95
2, 1392840, Pitch_bend_c, 1, 8192
2, 1392840, Note_on_c, 1, 68, 95
2, 1392862, Pitch_bend_c, 1, 8320
2, 1392884, Pitch_bend_c, 1, 8448
2, 1392906, Pitch_bend_c, 1, 8576
2, 1392928, Pitch_bend_c, 1, 8704
2, 1392950, Pitch_bend_c, 1, 8832
2, 1392972, Pitch_bend_c, 1, 8960
2, 1392994, Pitch_bend_c, 1, 9088
2, 1393016, Pitch_bend_c, 1, 9216
2, 1393020, Pitch_bend_c, 1, 9216
2, 1393200, Pitch_bend_c, 1, 9216
2, 1393200, Pitch_bend_c, 1, 8192
2, 1393200, Note_off_c, 1, 68, 95
2, 1393200, Note_on_c, 0, 75, 95
2, 1393560, Note_off_c, 0, 75, 95
2, 1393560, Pitch_bend_c, 1, 8192
2, 1393560, Note_on_c, 1, 68, 95
2, 1393582, Pitch_bend_c, 1, 8320
2, 1393604, Pitch_bend_c, 1, 8448
2, 1393626, Pitch_bend_c, 1, 8576
2, 1393648, Pitch_bend_c, 1, 8704
2, 1393670, Pitch_bend_c, 1, 8832
2, 1393692, Pitch_bend_c, 1, 8960
2, 1393714, Pitch_bend_c, 1, 9088
2, 1393736, Pitch_bend_c, 1, 9216
2, 1393740, Pitch_bend_c, 1, 9216
2, 1393920, Pitch_bend_c, 1, 9216
2, 1393920, Pitch_bend_c, 1, 8192
2, 1393920, Note_off_c, 1, 68, 95
2, 1393920, Note_on_c, 0, 75, 95
2, 1394280, Note_off_c, 0, 75, 95
2, 1394280, Pitch_bend_c, 1, 8192
2, 1394280, Note_on_c, 1, 68, 95
2, 1394302, Pitch_bend_c, 1, 8320
2, 1394324, Pitch_bend_c, 1, 8448
2, 1394346, Pitch_bend_c, 1, 8576
2, 1394368, Pitch_bend_c, 1, 8704
2, 1394390, Pitch_bend_c, 1, 8832
2, 1394412, Pitch_bend_c, 1, 8960
2, 1394434, Pitch_bend_c, 1, 9088
2, 1394456, Pitch_bend_c, 1, 9216
2, 1394460, Pitch_bend_c, 1, 9216
2, 1394640, Pitch_bend_c, 1, 9216
2, 1394640, Pitch_bend_c, 1, 8192
2, 1394640, Note_off_c, 1, 68, 95
2, 1394640, Note_on_c, 0, 75, 95
2, 1395000, Note_off_c, 0, 75, 95
2, 1395000, Pitch_bend_c, 1, 8192
2, 1395000, Note_on_c, 1, 68, 95
2, 1395022, Pitch_bend_c, 1, 8320
2, 1395044, Pitch_bend_c, 1, 8448
2, 1395066, Pitch_bend_c, 1, 8576
2, 1395088, Pitch_bend_c, 1, 8704
2, 1395110, Pitch_bend_c, 1, 8832
2, 1395132, Pitch_bend_c, 1, 8960
2, 1395154, Pitch_bend_c, 1, 9088
2, 1395176, Pitch_bend_c, 1, 9216
2, 1395180, Pitch_bend_c, 1, 9216
2, 1395360, Pitch_bend_c, 1, 9216
2, 1395360, Pitch_bend_c, 1, 8192
2, 1395360, Note_off_c, 1, 68, 95
2, 1395360, Note_on_c, 0, 75, 95
2, 1395720, Note_off_c, 0, 75, 95
2, 1395720, Note_on_c, 0, 75, 95
2, 1395720, Pitch_bend_c, 1, 8192
2, 1395720, Note_on_c, 1, 73, 95
2, 1395736, Pitch_bend_c, 1, 8320
2, 1395752, Pitch_bend_c, 1, 8448
2, 1395768, Pitch_bend_c, 1, 8576
2, 1395784, Pitch_bend_c, 1, 8704
2, 1395800, Pitch_bend_c, 1, 8832
2, 1395816, Pitch_bend_c, 1, 8960
2, 1395832, Pitch_bend_c, 1, 9088
2, 1395848, Pitch_bend_c, 1, 9216
2, 1395864, Pitch_bend_c, 1, 9344
2, 1395880, Pitch_bend_c, 1, 9472
2, 1395896, Pitch_bend_c, 1, 9600
2, 1395900, Pitch_bend_c, 1, 9600
2, 1396080, Note_off_c, 0, 75, 95
2, 1396080, Pitch_bend_c, 1, 9600
2, 1396080, Pitch_bend_c, 1, 8192
2, 1396080, Note_off_c, 1, 73, 95
2, 1396080, Note_on_c, 0, 70, 95
2, 1396440, Note_off_c, 0, 70, 95
2, 1396440, Pitch_bend_c, 1, 8192
2, 1396440, Note_on_c, 1, 68, 95
2, 1396462, Pitch_bend_c, 1, 8320
2, 1396484, Pitch_bend_c, 1, 8448
2, 1396506, Pitch_bend_c, 1, 8576
2, 1396528, Pitch_bend_c, 1, 8704
2, 1396550, Pitch_bend_c, 1, 8832
2, 1396572, Pitch_bend_c, 1, 8960
2, 1396594, Pitch_bend_c, 1, 9088
2, 1396616, Pitch_bend_c, 1, 9216
2, 1396620, Pitch_bend_c, 1, 9216
2, 1396800, Pitch_bend_c, 1, 9216
2, 1396800, Pitch_bend_c, 1, 8192
2, 1396800, Note_off_c, 1, 68, 95
2, 1396800, Note_on_c, 0, 70, 95
2, 1397760, Note_off_c, 0, 70, 95
2, 1397760, Note_on_c, 0, 70, 95
2, 1397760, Pitch_bend_c, 1, 8192
2, 1397760, Note_on_c, 1, 68, 95
2, 1397820, Pitch_bend_c, 1, 8320
2, 1397880, Pitch_bend_c, 1, 8448
2, 1397940, Pitch_bend_c, 1, 8576
2, 1398000, Pitch_bend_c, 1, 8704
2, 1398060, Pitch_bend_c, 1, 8832
2, 1398120, Pitch_bend_c, 1, 8960
2, 1398180, Pitch_bend_c, 1, 9088
2, 1398240, Pitch_bend_c, 1, 9216
2, 1398240, Pitch_bend_c, 1, 9216
2, 1398720, Note_off_c, 0, 70, 95
2, 1398720, Pitch_bend_c, 1, 9216
2, 1398720, Pitch_bend_c, 1, 8192
2, 1398720, Note_off_c, 1, 68, 95
2, 1398720, Note_on_c, 0, 70, 95
2, 1398720, Pitch_bend_c, 1, 8192
2, 1398720, Note_on_c, 1, 68, 95
2, 1398780, Pitch_bend_c, 1, 8320
2, 1398840, Pitch_bend_c, 1, 8448
2, 1398900, Pitch_bend_c, 1, 8576
2, 1398960, Pitch_bend_c, 1, 8704
2, 1399020, Pitch_bend_c, 1, 8832
2, 1399080, Pitch_bend_c, 1, 8960
2, 1399140, Pitch_bend_c, 1, 9088
2, 1399200, Note_off_c, 0, 70, 95
2, 1399200, Pitch_bend_c, 1, 9216
2, 1399200, Pitch_bend_c, 1, 9216
2, 1399200, Pitch_bend_c, 1, 8192
2, 1399200, Note_on_c, 1, 75, 95
2, 1399200, Pitch_bend_c, 1, 8192
2, 1399200, Note_on_c, 1, 70, 95
2, 1399320, Pitch_bend_c, 1, 8320
2, 1399320, Pitch_bend_c, 1, 8320
2, 1399440, Pitch_bend_c, 1, 8448
2, 1399440, Pitch_bend_c, 1, 8448
2, 1399440, Pitch_bend_c, 1, 8448
2, 1399440, Pitch_bend_c, 1, 8448
2, 1399680, Pitch_bend_c, 1, 9216
2, 1399680, Pitch_bend_c, 1, 8192
2, 1399680, Note_off_c, 1, 68, 95
2, 1399680, Pitch_bend_c, 1, 8448
2, 1399680, Pitch_bend_c, 1, 8192
2, 1399680, Note_off_c, 1, 75, 95
2, 1399680, Pitch_bend_c, 1, 8448
2, 1399680, Pitch_bend_c, 1, 8192
2, 1399680, Note_off_c, 1, 70, 95
2, 1399680, Pitch_bend_c, 1, 8192
2, 1399680, Note_on_c, 1, 73, 95
2, 1399728, Pitch_bend_c, 1, 8320
2, 1399776, Pitch_bend_c, 1, 8448
2, 1399824, Pitch_bend_c, 1, 8576
2, 1399872, Pitch_bend_c, 1, 8704
2, 1399920, Pitch_bend_c, 1, 8832
2, 1399920, Pitch_bend_c, 1, 8832
2, 1400160, Pitch_bend_c, 1, 8832
2, 1400160, Pitch_bend_c, 1, 8192
2, 1400160, Note_off_c, 1, 73, 95
2, 1400160, Pitch_bend_c, 1, 8192
2, 1400160, Note_on_c, 1, 70, 95
2, 1400280, Pitch_bend_c, 1, 8320
2, 1400400, Pitch_bend_c, 1, 8448
2, 1400400, Pitch_bend_c, 1, 8448
2, 1400640, Pitch_bend_c, 1, 8448
2, 1400640, Pitch_bend_c, 1, 8192
2, 1400640, Note_off_c, 1, 70, 95
2, 1400640, Pitch_bend_c, 1, 8192
2, 1400640, Note_on_c, 1, 68, 95
2, 1400685, Pitch_bend_c, 1, 8320
2, 1400730, Pitch_bend_c, 1, 8448
2, 1400775, Pitch_bend_c, 1, 8576
2, 1400820, Pitch_bend_c, 1, 8704
2, 1400865, Pitch_bend_c, 1, 8832
2, 1400910, Pitch_bend_c, 1, 8960
2, 1400955, Pitch_bend_c, 1, 9088
2, 1401000, Pitch_bend_c, 1, 9216
2, 1401000, Pitch_bend_c, 1, 9216
2, 1401000, Note_on_c, 0, 75, 95
2, 1401360, Pitch_bend_c, 1, 9216
2, 1401360, Pitch_bend_c, 1, 8192
2, 1401360, Note_off_c, 1, 68, 95
2, 1401360, Note_off_c, 0, 75, 95
2, 1401360, Note_on_c, 0, 73, 95
2, 1401720, Note_off_c, 0, 73, 95
2, 1401720, Note_on_c, 0, 70, 95
2, 1402080, Note_off_c, 0, 70, 95
2, 1402080, Pitch_bend_c, 1, 8192
2, 1402080, Note_on_c, 1, 68, 95
2, 1402110, Pitch_bend_c, 1, 8320
2, 1402140, Pitch_bend_c, 1, 8448
2, 1402170, Pitch_bend_c, 1, 8576
2, 1402200, Pitch_bend_c, 1, 8704
2, 1402230, Pitch_bend_c, 1, 8832
2, 1402260, Pitch_bend_c, 1, 8960
2, 1402290, Pitch_bend_c, 1, 9088
2, 1402320, Pitch_bend_c, 1, 9216
2, 1402320, Pitch_bend_c, 1, 9216
2, 1402320, Note_on_c, 0, 75, 95
2, 1402560, Pitch_bend_c, 1, 9216
2, 1402560, Pitch_bend_c, 1, 8192
2, 1402560, Note_off_c, 1, 68, 95
2, 1402560, Note_off_c, 0, 75, 95
2, 1402560, Note_on_c, 0, 73, 95
2, 1402800, Note_off_c, 0, 73, 95
2, 1402800, Note_on_c, 0, 70, 70
2, 1403040, Note_off_c, 0, 70, 70
2, 1403040, Pitch_bend_c, 1, 8192
2, 1403040, Note_on_c, 1, 68, 95
2, 1403065, Pitch_bend_c, 1, 8320
2, 1403090, Pitch_bend_c, 1, 8448
2, 1403115, Pitch_bend_c, 1, 8576
2, 1403140, Pitch_bend_c, 1, 8704
2, 1403165, Pitch_bend_c, 1, 8832
2, 1403190, Pitch_bend_c, 1, 8960
2, 1403215, Pitch_bend_c, 1, 9088
2, 1403240, Pitch_bend_c, 1, 9216
2, 1403240, Pitch_bend_c, 1, 9216
2, 1403280, Note_on_c, 0, 75, 95
2, 1403440, Pitch_bend_c, 1, 9216
2, 1403440, Pitch_bend_c, 1, 8192
2, 1403440, Note_off_c, 1, 68, 95
2, 1403440, Note_off_c, 0, 75, 95
2, 1403440, Note_on_c, 0, 73, 95
2, 1403600, Note_off_c, 0, 73, 95
2, 1403600, Note_on_c, 0, 70, 70
2, 1403760, Note_off_c, 0, 70, 70
2, 1403760, Pitch_bend_c, 1, 8192
2, 1403760, Note_on_c, 1, 68, 95
2, 1403780, Pitch_bend_c, 1, 8320
2, 1403800, Pitch_bend_c, 1, 8448
2, 1403820, Pitch_bend_c, 1, 8576
2, 1403840, Pitch_bend_c, 1, 8704
2, 1403860, Pitch_bend_c, 1, 8832
2, 1403880, Pitch_bend_c, 1, 8960
2, 1403900, Pitch_bend_c, 1, 9088
2, 1403920, Pitch_bend_c, 1, 9216
2, 1403920, Pitch_bend_c, 1, 9216
2, 1403920, Note_on_c, 0, 75, 95
2, 1404080, Pitch_bend_c, 1, 9216
2, 1404080, Pitch_bend_c, 1, 8192
2, 1404080, Note_off_c, 1, 68, 95
2, 1404080, Note_off_c, 0, 75, 95
2, 1404080, Note_on_c, 0, 73, 95
2, 1404240, Note_off_c, 0, 73, 95
2, 1404240, Note_on_c, 0, 70, 70
2, 1404360, Note_off_c, 0, 70, 70
2, 1404360, Note_on_c, 0, 68, 95
2, 1404480, Note_off_c, 0, 68, 95
2, 1404480, Note_on_c, 0, 66, 70
2, 1404600, Note_off_c, 0, 66, 70
2, 1404600, Note_on_c, 0, 63, 95
2, 1404720, Note_off_c, 0, 63, 95
2, 1404720, Note_on_c, 0, 66, 95
2, 1404840, Note_off_c, 0, 66, 95
2, 1404840, Note_on_c, 0, 68, 70
2, 1404960, Note_off_c, 0, 68, 70
2, 1404960, Note_on_c, 0, 70, 95
2, 1405440, Note_off_c, 0, 70, 95
2, 1405440, Pitch_bend_c, 1, 8192
2, 1405440, Note_on_c, 1, 68, 95
2, 1405470, Pitch_bend_c, 1, 8320
2, 1405500, Pitch_bend_c, 1, 8448
2, 1405530, Pitch_bend_c, 1, 8576
2, 1405560, Pitch_bend_c, 1, 8704
2, 1405590, Pitch_bend_c, 1, 8832
2, 1405620, Pitch_bend_c, 1, 8960
2, 1405650, Pitch_bend_c, 1, 9088
2, 1405680, Pitch_bend_c, 1, 9216
2, 1405680, Pitch_bend_c, 1, 9216
2, 1405920, Pitch_bend_c, 1, 9216
2, 1405920, Pitch_bend_c, 1, 8192
2, 1405920, Note_off_c, 1, 68, 95
2, 1405920, Pitch_bend_c, 1, 8192
2, 1405920, Note_on_c, 1, 70, 95
2, 1406040, Pitch_bend_c, 1, 8320
2, 1406160, Pitch_bend_c, 1, 8448
2, 1406160, Pitch_bend_c, 1, 8448
2, 1406400, Pitch_bend_c, 1, 8448
2, 1406400, Pitch_bend_c, 1, 8192
2, 1406400, Note_off_c, 1, 70, 95
2, 1406400, Pitch_bend_c, 1, 8192
2, 1406400, Note_on_c, 1, 73, 95
2, 1406496, Pitch_bend_c, 1, 8320
2, 1406592, Pitch_bend_c, 1, 8448
2, 1406688, Pitch_bend_c, 1, 8576
2, 1406784, Pitch_bend_c, 1, 8704
2, 1406880, Pitch_bend_c, 1, 8832
2, 1406880, Pitch_bend_c, 1, 8832
2, 1407360, Pitch_bend_c, 1, 8832
2, 1407360, Pitch_bend_c, 1, 8192
2, 1407360, Note_off_c, 1, 73, 95
2, 1407360, Pitch_bend_c, 1, 8192
2, 1407360, Note_on_c, 1, 73, 95
2, 1407396, Pitch_bend_c, 1, 8320
2, 1407432, Pitch_bend_c, 1, 8448
2, 1407468, Pitch_bend_c, 1, 8576
2, 1407504, Pitch_bend_c, 1, 8704
2, 1407540, Pitch_bend_c, 1, 8832
2, 1407540, Pitch_bend_c, 1, 8832
2, 1407720, Pitch_bend_c, 1, 8832
2, 1407720, Pitch_bend_c, 1, 8192
2, 1407720, Note_off_c, 1, 73, 95
2, 1407720, Pitch_bend_c, 1, 8192
2, 1407720, Note_on_c, 1, 70, 95
2, 1407810, Pitch_bend_c, 1, 8320
2, 1407900, Pitch_bend_c, 1, 8448
2, 1407900, Pitch_bend_c, 1, 8448
2, 1408080, Pitch_bend_c, 1, 8448
2, 1408080, Pitch_bend_c, 1, 8192
2, 1408080, Note_off_c, 1, 70, 95
2, 1408080, Pitch_bend_c, 1, 8192
2, 1408080, Note_on_c, 1, 68, 95
2, 1408128, Pitch_bend_c, 1, 8320
2, 1408176, Pitch_bend_c, 1, 8448
2, 1408224, Pitch_bend_c, 1, 8576
2, 1408272, Pitch_bend_c, 1, 8704
2, 1408320, Pitch_bend_c, 1, 8832
2, 1408320, Pitch_bend_c, 1, 8832
2, 1408560, Pitch_bend_c, 1, 8832
2, 1408560, Pitch_bend_c, 1, 8192
2, 1408560, Note_off_c, 1, 68, 95
2, 1408560, Pitch_bend_c, 1, 8192
2, 1408560, Note_on_c, 1, 66, 95
2, 1408603, Pitch_bend_c, 1, 8320
2, 1408646, Pitch_bend_c, 1, 8448
2, 1408689, Pitch_bend_c, 1, 8576
2, 1408732, Pitch_bend_c, 1, 8704
2, 1408775, Pitch_bend_c, 1, 8832
2, 1408818, Pitch_bend_c, 1, 8960
2, 1408861, Pitch_bend_c, 1, 9088
2, 1408904, Pitch_bend_c, 1, 9216
2, 1408947, Pitch_bend_c, 1, 9344
2, 1408990, Pitch_bend_c, 1, 9472
2, 1409033, Pitch_bend_c, 1, 9600
2, 1409040, Pitch_bend_c, 1, 9600
2, 1409520, Pitch_bend_c, 1, 9600
2, 1409520, Pitch_bend_c, 1, 8192
2, 1409520, Note_off_c, 1, 66, 95
2, 1409520, Pitch_bend_c, 1, 8192
2, 1409520, Note_on_c, 1, 68, 95
2, 1409550, Pitch_bend_c, 1, 8320
2, 1409580, Pitch_bend_c, 1, 8448
2, 1409610, Pitch_bend_c, 1, 8576
2, 1409640, Pitch_bend_c, 1, 8704
2, 1409670, Pitch_bend_c, 1, 8832
2, 1409700, Pitch_bend_c, 1, 8960
2, 1409730, Pitch_bend_c, 1, 9088
2, 1409760, Pitch_bend_c, 1, 9216
2, 1409760, Pitch_bend_c, 1, 9216
2, 1410000, Pitch_bend_c, 1, 9216
2, 1410000, Pitch_bend_c, 1, 8192
2, 1410000, Note_off_c, 1, 68, 95
2, 1410000, Pitch_bend_c, 1, 8192
2, 1410000, Note_on_c, 1, 73, 95
2, 1410090, Pitch_bend_c, 1, 8320
2, 1410180, Pitch_bend_c, 1, 8448
2, 1410180, Pitch_bend_c, 1, 8448
2, 1410360, Pitch_bend_c, 1, 8448
2, 1410360, Pitch_bend_c, 1, 8192
2, 1410360, Note_off_c, 1, 73, 95
2, 1410360, Note_on_c, 1, 68, 95
2, 1410480, Pitch_bend_c, 1, 8832
2, 1410600, Pitch_bend_c, 1, 9600
2, 1410600, Pitch_bend_c, 1, 8192
2, 1410600, Note_off_c, 1, 68, 95
2, 1410600, Pitch_bend_c, 1, 8192
2, 1410600, Note_on_c, 1, 70, 95
2, 1410660, Pitch_bend_c, 1, 8320
2, 1410720, Pitch_bend_c, 1, 8448
2, 1410720, Pitch_bend_c, 1, 8448
2, 1410840, Pitch_bend_c, 1, 8448
2, 1410840, Pitch_bend_c, 1, 8192
2, 1410840, Note_off_c, 1, 70, 95
2, 1410840, Note_on_c, 0, 68, 95
2, 1411080, Note_off_c, 0, 68, 95
2, 1411080, Note_on_c, 0, 66, 70
2, 1411320, Note_off_c, 0, 66, 70
2, 1411320, Note_on_c, 0, 63, 95
2, 1411800, Note_off_c, 0, 63, 95
2, 1411800, Pitch_bend_c, 1, 8192
2, 1411800, Note_on_c, 1, 66, 95
2, 1411980, Pitch_bend_c, 1, 8320
2, 1412160, Pitch_bend_c, 1, 8448
2, 1412160, Pitch_bend_c, 1, 8448
2, 1412520, Pitch_bend_c, 1, 8448
2, 1412520, Pitch_bend_c, 1, 8192
2, 1412520, Note_off_c, 1, 66, 95
2, 1412520, Note_on_c, 0, 70, 95
2, 1412880, Note_off_c, 0, 70, 95
2, 1412880, Pitch_bend_c, 1, 8192
2, 1412880, Note_on_c, 1, 73, 95
2, 1412944, Pitch_bend_c, 1, 8320
2, 1413008, Pitch_bend_c, 1, 8448
2, 1413072, Pitch_bend_c, 1, 8576
2, 1413136, Pitch_bend_c, 1, 8704
2, 1413200, Pitch_bend_c, 1, 8832
2, 1413264, Pitch_bend_c, 1, 8960
2, 1413328, Pitch_bend_c, 1, 9088
2, 1413392, Pitch_bend_c, 1, 9216
2, 1413456, Pitch_bend_c, 1, 9344
2, 1413520, Pitch_bend_c, 1, 9472
2, 1413584, Pitch_bend_c, 1, 9600
2, 1413648, Pitch_bend_c, 1, 9728
2, 1413712, Pitch_bend_c, 1, 9856
2, 1413720, Pitch_bend_c, 1, 9856
2, 1414560, Pitch_bend_c, 1, 9856
2, 1414560, Pitch_bend_c, 1, 8192
2, 1414560, Note_off_c, 1, 73, 95
2, 1414560, Note_on_c, 0, 75, 95
2, 1414920, Note_off_c, 0, 75, 95
2, 1414920, Note_on_c, 0, 70, 95
2, 1415280, Note_off_c, 0, 70, 95
2, 1415280, Pitch_bend_c, 1, 8192
2, 1415280, Note_on_c, 1, 73, 70
2, 1415302, Pitch_bend_c, 1, 8320
2, 1415324, Pitch_bend_c, 1, 8448
2, 1415346, Pitch_bend_c, 1, 8576
2, 1415368, Pitch_bend_c, 1, 8704
2, 1415390, Pitch_bend_c, 1, 8832
2, 1415412, Pitch_bend_c, 1, 8960
2, 1415434, Pitch_bend_c, 1, 9088
2, 1415456, Pitch_bend_c, 1, 9216
2, 1415460, Pitch_bend_c, 1, 9216
2, 1415640, Pitch_bend_c, 1, 9216
2, 1415640, Pitch_bend_c, 1, 8192
2, 1415640, Note_off_c, 1, 73, 70
2, 1415640, Note_on_c, 0, 75, 95
2, 1415880, Note_off_c, 0, 75, 95
2, 1415880, Pitch_bend_c, 1, 8192
2, 1415880, Note_on_c, 1, 68, 95
2, 1415890, Pitch_bend_c, 1, 8320
2, 1415900, Pitch_bend_c, 1, 8448
2, 1415910, Pitch_bend_c, 1, 8576
2, 1415920, Pitch_bend_c, 1, 8704
2, 1415930, Pitch_bend_c, 1, 8832
2, 1415940, Pitch_bend_c, 1, 8960
2, 1415950, Pitch_bend_c, 1, 9088
2, 1415960, Pitch_bend_c, 1, 9216
2, 1415970, Pitch_bend_c, 1, 9344
2, 1415980, Pitch_bend_c, 1, 9472
2, 1415990, Pitch_bend_c, 1, 9600
2, 1416000, Pitch_bend_c, 1, 9600
2, 1416120, Pitch_bend_c, 1, 9600
2, 1416130, Pitch_bend_c, 1, 9472
2, 1416140, Pitch_bend_c, 1, 9344
2, 1416150, Pitch_bend_c, 1, 9216
2, 1416160, Pitch_bend_c, 1, 9088
2, 1416170, Pitch_bend_c, 1, 8960
2, 1416180, Pitch_bend_c, 1, 8832
2, 1416190, Pitch_bend_c, 1, 8704
2, 1416200, Pitch_bend_c, 1, 8576
2, 1416210, Pitch_bend_c, 1, 8448
2, 1416220, Pitch_bend_c, 1, 8320
2, 1416230, Pitch_bend_c, 1, 8192
2, 1416240, Pitch_bend_c, 1, 8192
2, 1416360, Pitch_bend_c, 1, 8192
2, 1416360, Pitch_bend_c, 1, 8192
2, 1416360, Note_off_c, 1, 68, 95
2, 1416360, Note_on_c, 0, 66, 95
2, 1416600, Note_off_c, 0, 66, 95
2, 1416600, Note_on_c, 0, 63, 95
2, 1416840, Note_off_c, 0, 63, 95
2, 1416840, Note_on_c, 0, 66, 95
2, 1417080, Note_off_c, 0, 66, 95
2, 1417080, Pitch_bend_c, 1, 8192
2, 1417080, Note_on_c, 1, 68, 95
2, 1417090, Pitch_bend_c, 1, 8320
2, 1417100, Pitch_bend_c, 1, 8448
2, 1417110, Pitch_bend_c, 1, 8576
2, 1417120, Pitch_bend_c, 1, 8704
2, 1417130, Pitch_bend_c, 1, 8832
2, 1417140, Pitch_bend_c, 1, 8960
2, 1417150, Pitch_bend_c, 1, 9088
2, 1417160, Pitch_bend_c, 1, 9216
2, 1417160, Pitch_bend_c, 1, 9216
2, 1417240, Pitch_bend_c, 1, 9216
2, 1417240, Pitch_bend_c, 1, 8192
2, 1417240, Note_off_c, 1, 68, 95
2, 1417240, Note_on_c, 0, 73, 95
2, 1417400, Note_off_c, 0, 73, 95
2, 1417400, Note_on_c, 0, 70, 70
2, 1417560, Note_off_c, 0, 70, 70
2, 1417560, Pitch_bend_c, 1, 8192
2, 1417560, Note_on_c, 1, 68, 95
2, 1417570, Pitch_bend_c, 1, 8320
2, 1417580, Pitch_bend_c, 1, 8448
2, 1417590, Pitch_bend_c, 1, 8576
2, 1417600, Pitch_bend_c, 1, 8704
2, 1417610, Pitch_bend_c, 1, 8832
2, 1417620, Pitch_bend_c, 1, 8960
2, 1417630, Pitch_bend_c, 1, 9088
2, 1417640, Pitch_bend_c, 1, 9216
2, 1417650, Pitch_bend_c, 1, 9344
2, 1417660, Pitch_bend_c, 1, 9472
2, 1417670, Pitch_bend_c, 1, 9600
2, 1417680, Pitch_bend_c, 1, 9600
2, 1417800, Pitch_bend_c, 1, 9600
2, 1417810, Pitch_bend_c, 1, 9472
2, 1417820, Pitch_bend_c, 1, 9344
2, 1417830, Pitch_bend_c, 1, 9216
2, 1417840, Pitch_bend_c, 1, 9088
2, 1417850, Pitch_bend_c, 1, 8960
2, 1417860, Pitch_bend_c, 1, 8832
2, 1417870, Pitch_bend_c, 1, 8704
2, 1417880, Pitch_bend_c, 1, 8576
2, 1417890, Pitch_bend_c, 1, 8448
2, 1417900, Pitch_bend_c, 1, 8320
2, 1417910, Pitch_bend_c, 1, 8192
2, 1417920, Pitch_bend_c, 1, 8192
2, 1418040, Pitch_bend_c, 1, 8192
2, 1418040, Pitch_bend_c, 1, 8192
2, 1418040, Note_off_c, 1, 68, 95
2, 1418040, Note_on_c, 0, 66, 95
2, 1418280, Note_off_c, 0, 66, 95
2, 1418280, Note_on_c, 0, 63, 95
2, 1418520, Note_off_c, 0, 63, 95
2, 1418520, Pitch_bend_c, 1, 8192
2, 1418520, Note_on_c, 1, 68, 95
2, 1418535, Pitch_bend_c, 1, 8320
2, 1418550, Pitch_bend_c, 1, 8448
2, 1418565, Pitch_bend_c, 1, 8576
2, 1418580, Pitch_bend_c, 1, 8704
2, 1418595, Pitch_bend_c, 1, 8832
2, 1418610, Pitch_bend_c, 1, 8960
2, 1418625, Pitch_bend_c, 1, 9088
2, 1418640, Pitch_bend_c, 1, 9216
2, 1418640, Pitch_bend_c, 1, 9216
2, 1418760, Pitch_bend_c, 1, 9216
2, 1418760, Pitch_bend_c, 1, 8192
2, 1418760, Note_off_c, 1, 68, 95
2, 1418760, Note_on_c, 0, 66, 95
2, 1419240, Note_off_c, 0, 66, 95
2, 1419240, Note_on_c, 0, 63, 95
2, 1419420, Note_off_c, 0, 63, 95
2, 1419420, Note_on_c, 0, 66, 95
2, 1419600, Note_off_c, 0, 66, 95
2, 1419600, Note_on_c, 0, 63, 95
2, 1419780, Note_off_c, 0, 63, 95
2, 1419780, Note_on_c, 0, 61, 70
2, 1419960, Note_off_c, 0, 61, 70
2, 1419960, Note_on_c, 0, 58, 95
2, 1420140, Note_off_c, 0, 58, 95
2, 1420140, Note_on_c, 0, 63, 95
2, 1420320, Note_off_c, 0, 63, 95
2, 1420320, Note_on_c, 0, 68, 95
2, 1420480, Note_off_c, 0, 68, 95
2, 1420480, Note_on_c, 0, 61, 95
2, 1420640, Note_off_c, 0, 61, 95
2, 1420640, Note_on_c, 0, 63, 70
2, 1420800, Note_off_c, 0, 63, 70
2, 1420800, Note_on_c, 0, 58, 95
2, 1420800, Note_on_c, 0, 39, 95
2, 1422720, Note_off_c, 0, 39, 95
2, 1422720, Note_on_c, 0, 63, 95
2, 1422720, Note_on_c, 0, 73, 95
2, 1422720, Pitch_bend_c, 1, 8192
2, 1422720, Note_on_c, 1, 68, 95
2, 1422807, Pitch_bend_c, 1, 8320
2, 1422894, Pitch_bend_c, 1, 8448
2, 1422981, Pitch_bend_c, 1, 8576
2, 1423068, Pitch_bend_c, 1, 8704
2, 1423155, Pitch_bend_c, 1, 8832
2, 1423242, Pitch_bend_c, 1, 8960
2, 1423329, Pitch_bend_c, 1, 9088
2, 1423416, Pitch_bend_c, 1, 9216
2, 1423503, Pitch_bend_c, 1, 9344
2, 1423590, Pitch_bend_c, 1, 9472
2, 1423677, Pitch_bend_c, 1, 9600
2, 1423680, Pitch_bend_c, 1, 9600
2, 1424640, Note_off_c, 0, 63, 95
2, 1424640, Note_off_c, 0, 73, 95
2, 1424640, Pitch_bend_c, 1, 9600
2, 1424640, Pitch_bend_c, 1, 8192
2, 1424640, Note_off_c, 1, 68, 95
2, 1424640, Note_on_c, 0, 73, 95
2, 1424640, Pitch_bend_c, 1, 8192
2, 1424640, Note_on_c, 1, 68, 95
2, 1424664, Pitch_bend_c, 1, 8320
2, 1424688, Pitch_bend_c, 1, 8448
2, 1424712, Pitch_bend_c, 1, 8576
2, 1424736, Pitch_bend_c, 1, 8704
2, 1424760, Pitch_bend_c, 1, 8832
2, 1424784, Pitch_bend_c, 1, 8960
2, 1424808, Pitch_bend_c, 1, 9088
2, 1424832, Pitch_bend_c, 1, 9216
2, 1424856, Pitch_bend_c, 1, 9344
2, 1424880, Pitch_bend_c, 1, 9472
2, 1424904, Pitch_bend_c, 1, 9600
2, 1424910, Pitch_bend_c, 1, 9600
2, 1424910, Pitch_bend_c, 1, 9600
2, 1424959, Pitch_bend_c, 1, 9472
2, 1425008, Pitch_bend_c, 1, 9344
2, 1425057, Pitch_bend_c, 1, 9216
2, 1425106, Pitch_bend_c, 1, 9088
2, 1425155, Pitch_bend_c, 1, 8960
2, 1425204, Pitch_bend_c, 1, 8832
2, 1425253, Pitch_bend_c, 1, 8704
2, 1425302, Pitch_bend_c, 1, 8576
2, 1425351, Pitch_bend_c, 1, 8448
2, 1425400, Pitch_bend_c, 1, 8320
2, 1425449, Pitch_bend_c, 1, 8192
2, 1425450, Pitch_bend_c, 1, 8192
2, 1426260, Pitch_bend_c, 1, 8192
2, 1427070, Pitch_bend_c, 1, 8192
2, 1427880, Note_off_c, 0, 73, 95
2, 1427880, Pitch_bend_c, 1, 8192
2, 1427880, Pitch_bend_c, 1, 8192
2, 1427880, Note_off_c, 1, 68, 95
2, 1427880, Pitch_bend_c, 1, 8192
2, 1427880, Note_on_c, 1, 68, 95
2, 1427888, Pitch_bend_c, 1, 8320
2, 1427896, Pitch_bend_c, 1, 8448
2, 1427904, Pitch_bend_c, 1, 8576
2, 1427912, Pitch_bend_c, 1, 8704
2, 1427920, Pitch_bend_c, 1, 8832
2, 1427928, Pitch_bend_c, 1, 8960
2, 1427936, Pitch_bend_c, 1, 9088
2, 1427944, Pitch_bend_c, 1, 9216
2, 1427952, Pitch_bend_c, 1, 9344
2, 1427960, Pitch_bend_c, 1, 9472
2, 1427968, Pitch_bend_c, 1, 9600
2, 1427970, Pitch_bend_c, 1, 9600
2, 1428060, Pitch_bend_c, 1, 9600
2, 1428068, Pitch_bend_c, 1, 9472
2, 1428076, Pitch_bend_c, 1, 9344
2, 1428084, Pitch_bend_c, 1, 9216
2, 1428092, Pitch_bend_c, 1, 9088
2, 1428100, Pitch_bend_c, 1, 8960
2, 1428108, Pitch_bend_c, 1, 8832
2, 1428116, Pitch_bend_c, 1, 8704
2, 1428124, Pitch_bend_c, 1, 8576
2, 1428132, Pitch_bend_c, 1, 8448
2, 1428140, Pitch_bend_c, 1, 8320
2, 1428148, Pitch_bend_c, 1, 8192
2, 1428150, Pitch_bend_c, 1, 8192
2, 1428240, Pitch_bend_c, 1, 8192
2, 1428240, Pitch_bend_c, 1, 8192
2, 1428240, Note_off_c, 1, 68, 95
2, 1428240, Note_on_c, 0, 66, 95
2, 1428360, Note_off_c, 0, 66, 95
2, 1428360, Note_on_c, 0, 63, 95
2, 1428480, Note_off_c, 0, 63, 95
2, 1428480, Note_on_c, 0, 39, 95
2, 1429440, Note_on_c, 0, 63, 47
2, 1429440, Note_on_c, 0, 58, 47
2, 1430400, Note_off_c, 0, 58, 95
2, 1430400, Note_off_c, 0, 39, 95
2, 1430400, Note_off_c, 0, 63, 47
2, 1430400, Note_off_c, 0, 58, 47
2, 1430400, Note_on_c, 0, 39, 95
2, 1431360, Note_on_c, 1, 66, 95
2, 1431480, Pitch_bend_c, 1, 8448
2, 1431600, Pitch_bend_c, 1, 8832
2, 1431720, Pitch_bend_c, 1, 9216
2, 1431840, Pitch_bend_c, 1, 9600
2, 1431840, Pitch_bend_c, 1, 8192
2, 1431840, Note_off_c, 1, 66, 95
2, 1431840, Note_on_c, 0, 68, 95
2, 1432320, Note_off_c, 0, 39, 95
2, 1432320, Note_off_c, 0, 68, 95
2, 1432320, Note_on_c, 1, 66, 95
2, 1432480, Pitch_bend_c, 1, 8192
2, 1432640, Pitch_bend_c, 1, 8320
2, 1432800, Pitch_bend_c, 1, 8192
2, 1432960, Pitch_bend_c, 1, 8320
2, 1433120, Pitch_bend_c, 1, 8192
2, 1433280, Pitch_bend_c, 1, 8320
2, 1433440, Pitch_bend_c, 1, 8192
2, 1433600, Pitch_bend_c, 1, 8320
2, 1433760, Pitch_bend_c, 1, 8192
2, 1433760, Pitch_bend_c, 1, 8320
2, 1433760, Pitch_bend_c, 1, 8192
2, 1433760, Note_off_c, 1, 66, 95
2, 1433760, Note_on_c, 0, 54, 47
2, 1434240, Note_off_c, 0, 54, 47
2, 1434240, Note_on_c, 0, 63, 47
2, 1434240, Note_on_c, 0, 58, 47
2, 1435200, Note_off_c, 0, 63, 47
2, 1435200, Note_off_c, 0, 58, 47
2, 1435200, Note_on_c, 0, 54, 47
2, 1435200, Note_on_c, 0, 49, 47
2, 1435440, Note_off_c, 0, 54, 47
2, 1435440, Note_off_c, 0, 49, 47
2, 1435440, Note_on_c, 0, 63, 70
2, 1435440, Note_on_c, 0, 58, 70
2, 1435920, Note_off_c, 0, 63, 70
2, 1435920, Note_off_c, 0, 58, 70
2, 1435920, Note_on_c, 0, 63, 95
2, 1435920, Note_on_c, 0, 67, 95
2, 1435920, Note_on_c, 0, 63, 95
2, 1439040, Note_off_c, 0, 63, 95
2, 1439040, Note_off_c, 0, 67, 95
2, 1439040, Note_off_c, 0, 63, 95
2, 1439280, Note_on_c, 0, 67, 95
2, 1439760, Note_off_c, 0, 67, 95
2, 1439760, Note_on_c, 1, 67, 95
2, 1439880, Pitch_bend_c, 1, 9216
2, 1440000, Pitch_bend_c, 1, 10240
2, 1440000, Pitch_bend_c, 1, 8192
2, 1440000, Note_off_c, 1, 67, 95
2, 1440000, Note_on_c, 0, 70, 95
2, 1440720, Note_on_c, 0, 79, 95
2, 1441680, Note_off_c, 0, 70, 95
2, 1441680, Note_off_c, 0, 79, 95
2, 1441680, Note_on_c, 1, 79, 95
2, 1441680, Note_on_c, 0, 70, 95
2, 1441800, Pitch_bend_c, 1, 7936
2, 1441920, Pitch_bend_c, 1, 7552
2, 1441920, Pitch_bend_c, 1, 8192
2, 1441920, Note_off_c, 1, 79, 95
2, 1441920, Note_on_c, 0, 78, 95
2, 1442160, Note_off_c, 0, 70, 95
2, 1442160, Note_off_c, 0, 78, 95
2, 1442160, Note_on_c, 1, 78, 95
2, 1442160, Note_on_c, 1, 70, 95
2, 1442280, Pitch_bend_c, 1, 7936
2, 1442280, Pitch_bend_c, 1, 7936
2, 1442400, Pitch_bend_c, 1, 7552
2, 1442400, Pitch_bend_c, 1, 8192
2, 1442400, Note_off_c, 1, 78, 95
2, 1442400, Pitch_bend_c, 1, 7552
2, 1442400, Pitch_bend_c, 1, 8192
2, 1442400, Note_off_c, 1, 70, 95
2, 1442400, Note_on_c, 0, 77, 95
2, 1442400, Note_on_c, 0, 69, 95
2, 1443120, Note_off_c, 0, 77, 95
2, 1443120, Note_off_c, 0, 69, 95
2, 1443120, Note_on_c, 1, 76, 95
2, 1443120, Note_on_c, 1, 67, 95
2, 1443240, Pitch_bend_c, 1, 8448
2, 1443240, Pitch_bend_c, 1, 8448
2, 1443360, Pitch_bend_c, 1, 8832
2, 1443360, Pitch_bend_c, 1, 8192
2, 1443360, Note_off_c, 1, 76, 95
2, 1443360, Pitch_bend_c, 1, 8832
2, 1443360, Pitch_bend_c, 1, 8192
2, 1443360, Note_off_c, 1, 67, 95
2, 1443360, Note_on_c, 0, 77, 95
2, 1443360, Note_on_c, 0, 68, 95
2, 1444080, Note_off_c, 0, 77, 95
2, 1444080, Note_off_c, 0, 68, 95
2, 1444080, Note_on_c, 1, 66, 47
2, 1444200, Pitch_bend_c, 1, 8832
2, 1444200, Pitch_bend_c, 1, 8192
2, 1444200, Note_off_c, 1, 66, 47
2, 1444200, Note_on_c, 0, 67, 95
2, 1444680, Note_off_c, 0, 67, 95
2, 1444680, Note_on_c, 0, 77, 95
2, 1444680, Note_on_c, 0, 68, 95
2, 1445400, Note_off_c, 0, 77, 95
2, 1445400, Note_off_c, 0, 68, 95
2, 1445400, Note_on_c, 0, 70, 47
2, 1445400, Note_on_c, 0, 66, 47
2, 1445520, Note_off_c, 0, 66, 47
2, 1445520, Note_on_c, 0, 67, 70
2, 1446240, Note_off_c, 0, 70, 47
2, 1446240, Note_on_c, 1, 73, 47
2, 1446360, Note_off_c, 0, 67, 70
2, 1446360, Pitch_bend_c, 1, 9600
2, 1446360, Pitch_bend_c, 1, 8192
2, 1446360, Note_off_c, 1, 73, 47
2, 1446360, Note_on_c, 0, 75, 95
2, 1446720, Note_off_c, 0, 75, 95
2, 1446720, Note_on_c, 0, 73, 95
2, 1447440, Note_off_c, 0, 73, 95
2, 1447440, Note_on_c, 0, 70, 95
2, 1447920, Note_off_c, 0, 70, 95
2, 1447920, Note_on_c, 1, 66, 47
2, 1448040, Pitch_bend_c, 1, 8832
2, 1448040, Pitch_bend_c, 1, 8192
2, 1448040, Note_off_c, 1, 66, 47
2, 1448040, Note_on_c, 0, 67, 95
2, 1448520, Note_off_c, 0, 67, 95
2, 1448520, Note_on_c, 0, 70, 47
2, 1448520, Note_on_c, 0, 66, 47
2, 1448640, Note_off_c, 0, 70, 47
2, 1448640, Note_off_c, 0, 66, 47
2, 1448640, Note_on_c, 0, 72, 70
2, 1448640, Note_on_c, 0, 67, 70
2, 1449360, Note_off_c, 0, 72, 70
2, 1449360, Note_off_c, 0, 67, 70
2, 1449360, Note_on_c, 0, 73, 95
2, 1449360, Note_on_c, 0, 70, 95
2, 1450080, Note_off_c, 0, 73, 95
2, 1450080, Note_off_c, 0, 70, 95
2, 1450080, Note_on_c, 0, 72, 47
2, 1450080, Note_on_c, 0, 69, 47
2, 1450800, Note_off_c, 0, 72, 47
2, 1450800, Note_off_c, 0, 69, 47
2, 1450800, Note_on_c, 0, 71, 47
2, 1450800, Note_on_c, 0, 68, 47
2, 1451520, Note_off_c, 0, 71, 47
2, 1451520, Note_off_c, 0, 68, 47
2, 1451520, Note_on_c, 0, 70, 47
2, 1451520, Note_on_c, 0, 67, 47
2, 1453440, Note_off_c, 0, 70, 47
2, 1453440, Note_off_c, 0, 67, 47
2, 1453440, Note_on_c, 1, 70, 95
2, 1453560, Pitch_bend_c, 1, 8448
2, 1453680, Pitch_bend_c, 1, 8832
2, 1453800, Pitch_bend_c, 1, 9216
2, 1453920, Pitch_bend_c, 1, 9600
2, 1453920, Pitch_bend_c, 1, 8192
2, 1453920, Note_off_c, 1, 70, 95
2, 1453920, Note_on_c, 0, 72, 95
2, 1454400, Note_off_c, 0, 72, 95
2, 1454400, Note_on_c, 0, 75, 95
2, 1454880, Note_off_c, 0, 75, 95
2, 1454880, Note_on_c, 0, 77, 95
2, 1455360, Note_off_c, 0, 77, 95
2, 1455360, Note_on_c, 0, 70, 95
2, 1455840, Note_off_c, 0, 70, 95
2, 1455840, Note_on_c, 0, 72, 70
2, 1456320, Note_off_c, 0, 72, 70
2, 1456320, Note_on_c, 1, 70, 95
2, 1456440, Pitch_bend_c, 1, 8448
2, 1456560, Pitch_bend_c, 1, 8832
2, 1456680, Pitch_bend_c, 1, 9216
2, 1456800, Pitch_bend_c, 1, 9600
2, 1456800, Pitch_bend_c, 1, 8192
2, 1456800, Note_off_c, 1, 70, 95
2, 1456800, Note_on_c, 0, 72, 95
2, 1457280, Note_off_c, 0, 72, 95
2, 1457280, Note_on_c, 1, 70, 95
2, 1459200, Note_off_c, 1, 70, 95
2, 1459200, Note_on_c, 0, 39, 47
2, 1462080, Note_off_c, 0, 39, 47
2, 1462080, Note_on_c, 0, 63, 95
2, 1462080, Note_on_c, 1, 61, 95
2, 1462200, Pitch_bend_c, 1, 8832
2, 1462320, Note_off_c, 0, 63, 95
2, 1462320, Pitch_bend_c, 1, 9600
2, 1462320, Pitch_bend_c, 1, 8192
2, 1462320, Note_off_c, 1, 61, 95
2, 1462320, Note_on_c, 0, 63, 95
2, 1463040, Note_off_c, 0, 63, 95
2, 1463040, Note_on_c, 0, 61, 95
2, 1463520, Note_off_c, 0, 61, 95
2, 1463520, Note_on_c, 0, 63, 95
2, 1463520, Note_on_c, 1, 61, 95
2, 1463640, Pitch_bend_c, 1, 8832
2, 1463760, Note_off_c, 0, 63, 95
2, 1463760, Pitch_bend_c, 1, 9600
2, 1463760, Pitch_bend_c, 1, 8192
2, 1463760, Note_off_c, 1, 61, 95
2, 1463760, Note_on_c, 0, 63, 95
2, 1464240, Note_off_c, 0, 63, 95
2, 1464240, Note_on_c, 0, 61, 95
2, 1464720, Note_off_c, 0, 61, 95
2, 1464720, Note_on_c, 0, 58, 95
2, 1464720, Note_on_c, 1, 56, 95
2, 1464840, Note_off_c, 0, 58, 95
2, 1464840, Pitch_bend_c, 1, 9600
2, 1464840, Pitch_bend_c, 1, 8192
2, 1464840, Note_off_c, 1, 56, 95
2, 1464840, Note_on_c, 0, 58, 95
2, 1464840, Note_on_c, 1, 58, 95
2, 1464960, Pitch_bend_c, 1, 7552
2, 1465080, Note_off_c, 0, 58, 95
2, 1465080, Pitch_bend_c, 1, 6784
2, 1465080, Pitch_bend_c, 1, 8192
2, 1465080, Note_off_c, 1, 58, 95
2, 1465080, Note_on_c, 0, 56, 95
2, 1465320, Note_off_c, 0, 56, 95
2, 1465320, Note_on_c, 0, 58, 95
2, 1465320, Note_on_c, 0, 54, 95
2, 1466040, Note_off_c, 0, 58, 95
2, 1466040, Note_off_c, 0, 54, 95
2, 1466040, Note_on_c, 1, 58, 95
2, 1466160, Pitch_bend_c, 1, 6784
2, 1466160, Pitch_bend_c, 1, 8192
2, 1466160, Note_off_c, 1, 58, 95
2, 1466160, Note_on_c, 0, 56, 95
2, 1466400, Note_off_c, 0, 56, 95
2, 1466400, Note_on_c, 0, 58, 95
2, 1466640, Note_off_c, 0, 58, 95
2, 1466640, Note_on_c, 0, 61, 95
2, 1467240, Note_off_c, 0, 61, 95
2, 1467240, Note_on_c, 0, 58, 95
2, 1467720, Note_off_c, 0, 58, 95
2, 1467720, Note_on_c, 1, 57, 95
2, 1467840, Pitch_bend_c, 1, 8448
2, 1467960, Pitch_bend_c, 1, 8832
2, 1467960, Pitch_bend_c, 1, 8192
2, 1467960, Note_off_c, 1, 57, 95
2, 1467960, Note_on_c, 0, 58, 95
2, 1468200, Note_off_c, 0, 58, 95
2, 1468200, Note_on_c, 0, 58, 95
2, 1468440, Note_off_c, 0, 58, 95
2, 1468440, Note_on_c, 1, 58, 95
2, 1468560, Pitch_bend_c, 1, 8192
2, 1468680, Pitch_bend_c, 1, 8192
2, 1468680, Pitch_bend_c, 1, 8192
2, 1468680, Note_off_c, 1, 58, 95
2, 1468680, Note_on_c, 0, 58, 95
2, 1468920, Note_off_c, 0, 58, 95
2, 1468920, Note_on_c, 0, 54, 95
2, 1469160, Note_off_c, 0, 54, 95
2, 1469160, Note_on_c, 0, 51, 95
2, 1469280, Note_off_c, 0, 51, 95
2, 1469280, Note_on_c, 0, 49, 22
2, 1469400, Note_off_c, 0, 49, 22
2, 1469400, Note_on_c, 0, 46, 95
2, 1469640, Note_off_c, 0, 46, 95
2, 1469640, Note_on_c, 0, 49, 95
2, 1469880, Note_off_c, 0, 49, 95
2, 1469880, Note_on_c, 0, 46, 95
2, 1470120, Note_off_c, 0, 46, 95
2, 1470120, Note_on_c, 0, 44, 70
2, 1470360, Note_off_c, 0, 44, 70
2, 1470360, Note_on_c, 0, 46, 95
2, 1470600, Note_off_c, 0, 46, 95
2, 1470600, Note_on_c, 0, 44, 95
2, 1470840, Note_off_c, 0, 44, 95
2, 1470840, Note_on_c, 0, 46, 95
2, 1471080, Note_off_c, 0, 46, 95
2, 1471080, Note_on_c, 0, 44, 95
2, 1471320, Note_off_c, 0, 44, 95
2, 1471320, Note_on_c, 0, 46, 95
2, 1471560, Note_off_c, 0, 46, 95
2, 1471560, Note_on_c, 0, 44, 95
2, 1471800, Note_off_c, 0, 44, 95
2, 1471800, Note_on_c, 0, 46, 95
2, 1472040, Note_off_c, 0, 46, 95
2, 1472040, Note_on_c, 0, 44, 95
2, 1472280, Note_off_c, 0, 44, 95
2, 1472280, Note_on_c, 0, 46, 95
2, 1472520, Note_off_c, 0, 46, 95
2, 1472520, Note_on_c, 0, 44, 95
2, 1472639, Note_off_c, 0, 44, 95
2, 1475640, Note_on_c, 0, 44, 95
2, 1476120, Note_off_c, 0, 44, 95
2, 1476120, Note_on_c, 0, 46, 95
2, 1476480, Note_off_c, 0, 46, 95
2, 1476480, Note_on_c, 1, 49, 95
2, 1476600, Pitch_bend_c, 1, 8448
2, 1476720, Pitch_bend_c, 1, 8832
2, 1476720, Pitch_bend_c, 1, 8192
2, 1476720, Note_off_c, 1, 49, 95
2, 1476720, Note_on_c, 0, 50, 95
2, 1476960, Note_off_c, 0, 50, 95
2, 1476960, Note_on_c, 1, 49, 95
2, 1477080, Pitch_bend_c, 1, 9600
2, 1477080, Pitch_bend_c, 1, 8192
2, 1477080, Note_off_c, 1, 49, 95
2, 1477080, Note_on_c, 0, 51, 95
2, 1477440, Note_on_c, 1, 45, 95
2, 1477560, Pitch_bend_c, 1, 8448
2, 1477680, Pitch_bend_c, 1, 8832
2, 1477680, Pitch_bend_c, 1, 8192
2, 1477680, Note_off_c, 1, 45, 95
2, 1477680, Note_on_c, 0, 46, 95
2, 1477920, Note_off_c, 0, 51, 95
2, 1477920, Note_off_c, 0, 46, 95
2, 1477920, Note_on_c, 0, 53, 95
2, 1477920, Note_on_c, 0, 46, 95
2, 1478400, Note_off_c, 0, 53, 95
2, 1478400, Note_off_c, 0, 46, 95
2, 1478400, Note_on_c, 0, 47, 95
2, 1478640, Note_off_c, 0, 47, 95
2, 1478640, Note_on_c, 0, 46, 95
2, 1479000, Note_off_c, 0, 46, 95
2, 1479000, Note_on_c, 0, 45, 95
2, 1479360, Note_off_c, 0, 45, 95
2, 1479360, Note_on_c, 0, 44, 95
2, 1479720, Note_off_c, 0, 44, 95
2, 1479720, Note_on_c, 0, 43, 95
2, 1480080, Note_off_c, 0, 43, 95
2, 1480080, Note_on_c, 0, 42, 95
2, 1480320, Note_off_c, 0, 42, 95
2, 1480320, Note_on_c, 0, 44, 47
2, 1480560, Note_off_c, 0, 44, 47
2, 1480560, Note_on_c, 0, 46, 70
2, 1480800, Note_off_c, 0, 46, 70
2, 1480800, Note_on_c, 0, 49, 47
2, 1481040, Note_off_c, 0, 49, 47
2, 1481040, Note_on_c, 0, 51, 70
2, 1481280, Note_off_c, 0, 51, 70
2, 1481280, Note_on_c, 0, 54, 47
2, 1481280, Note_on_c, 0, 51, 95
2, 1481400, Note_off_c, 0, 54, 47
2, 1481400, Note_off_c, 0, 51, 95
2, 1481400, Note_on_c, 0, 55, 70
2, 1481400, Note_on_c, 0, 51, 95
2, 1482240, Note_on_c, 0, 70, 47
2, 1484160, Note_off_c, 0, 55, 70
2, 1484160, Note_off_c, 0, 51, 95
2, 1486080, Note_off_c, 0, 70, 47
2, 1488120, Note_on_c, 1, 60, 95
2, 1488240, Note_off_c, 1, 60, 95
2, 1488240, Note_on_c, 1, 61, 95
2, 1488720, Note_off_c, 1, 61, 95
2, 1488720, Note_on_c, 0, 58, 95
2, 1489200, Note_off_c, 0, 58, 95
2, 1489200, Note_on_c, 0, 56, 95
2, 1489680, Note_off_c, 0, 56, 95
2, 1489680, Note_on_c, 0, 54, 95
2, 1490160, Note_off_c, 0, 54, 95
2, 1490160, Note_on_c, 0, 51, 95
2, 1490640, Note_off_c, 0, 51, 95
2, 1490640, Note_on_c, 0, 56, 95
2, 1490880, Note_off_c, 0, 56, 95
2, 1490880, Note_on_c, 0, 54, 70
2, 1491120, Note_off_c, 0, 54, 70
2, 1491120, Note_on_c, 0, 51, 47
2, 1491360, Note_off_c, 0, 51, 47
2, 1491360, Note_on_c, 0, 49, 47
2, 1491600, Note_off_c, 0, 49, 47
2, 1491600, Note_on_c, 0, 51, 47
2, 1491840, Note_off_c, 0, 51, 47
2, 1491840, Note_on_c, 0, 49, 47
2, 1492080, Note_off_c, 0, 49, 47
2, 1492080, Note_on_c, 0, 51, 47
2, 1492320, Note_off_c, 0, 51, 47
2, 1492320, Note_on_c, 0, 49, 47
2, 1492560, Note_off_c, 0, 49, 47
2, 1492560, Note_on_c, 0, 51, 47
2, 1492800, Note_off_c, 0, 51, 47
2, 1492800, Note_on_c, 0, 49, 47
2, 1493040, Note_off_c, 0, 49, 47
2, 1493040, Note_on_c, 0, 51, 47
2, 1493280, Note_off_c, 0, 51, 47
2, 1493280, Note_on_c, 0, 49, 47
2, 1493520, Note_off_c, 0, 49, 47
2, 1493520, Note_on_c, 0, 51, 47
2, 1493759, Note_off_c, 0, 51, 47
2, 1496640, Note_on_c, 0, 63, 95
2, 1496640, Note_on_c, 0, 63, 95
2, 1496640, Note_on_c, 0, 61, 95
2, 1496640, Note_on_c, 0, 55, 95
2, 1497600, Note_off_c, 0, 63, 95
2, 1497600, Note_off_c, 0, 63, 95
2, 1497600, Note_off_c, 0, 61, 95
2, 1497600, Note_off_c, 0, 55, 95
2, 1497600, Note_on_c, 0, 61, 95
2, 1497600, Note_on_c, 0, 55, 95
2, 1497600, Note_on_c, 0, 51, 95
2, 1497600, Note_on_c, 0, 39, 95
2, 1499520, Note_off_c, 0, 61, 95
2, 1499520, Note_off_c, 0, 55, 95
2, 1499520, Note_off_c, 0, 51, 95
2, 1499520, Note_off_c, 0, 39, 95
2, 1501440, Note_on_c, 0, 79, 47
2, 1502880, Note_off_c, 0, 79, 47
2, 1502880, Note_on_c, 0, 56, 95
2, 1503360, Note_off_c, 0, 56, 95
2, 1503360, Note_on_c, 0, 57, 70
2, 1503840, Note_off_c, 0, 57, 70
2, 1503840, Note_on_c, 0, 58, 70
2, 1504320, Note_off_c, 0, 58, 70
2, 1504320, Note_on_c, 0, 61, 95
2, 1504800, Note_off_c, 0, 61, 95
2, 1504800, Note_on_c, 0, 56, 95
2, 1505520, Note_off_c, 0, 56, 95
2, 1505520, Note_on_c, 0, 58, 95
2, 1506240, Note_off_c, 0, 58, 95
2, 1506240, Note_on_c, 0, 61, 95
2, 1506600, Note_off_c, 0, 61, 95
2, 1506600, Pitch_bend_c, 1, 8192
2, 1506600, Note_on_c, 1, 57, 95
2, 1506690, Pitch_bend_c, 1, 8320
2, 1506780, Pitch_bend_c, 1, 8448
2, 1506780, Pitch_bend_c, 1, 8448
2, 1506960, Pitch_bend_c, 1, 8448
2, 1506960, Pitch_bend_c, 1, 8192
2, 1506960, Note_off_c, 1, 57, 95
2, 1506960, Note_on_c, 0, 56, 95
2, 1507320, Note_off_c, 0, 56, 95
2, 1507320, Note_on_c, 0, 54, 95
2, 1507680, Note_off_c, 0, 54, 95
2, 1507680, Note_on_c, 0, 51, 95
2, 1508520, Note_off_c, 0, 51, 95
2, 1508520, Note_on_c, 0, 54, 95
2, 1508760, Note_off_c, 0, 54, 95
2, 1508760, Note_on_c, 0, 51, 95
2, 1509120, Note_off_c, 0, 51, 95
2, 1509120, Note_on_c, 0, 56, 95
2, 1509360, Note_off_c, 0, 56, 95
2, 1509360, Note_on_c, 0, 49, 95
2, 1509720, Note_off_c, 0, 49, 95
2, 1509720, Note_on_c, 0, 54, 95
2, 1509960, Note_off_c, 0, 54, 95
2, 1509960, Note_on_c, 0, 51, 95
2, 1510320, Note_off_c, 0, 51, 95
2, 1510320, Note_on_c, 0, 49, 95
2, 1510560, Note_off_c, 0, 49, 95
2, 1510560, Note_on_c, 0, 51, 95
2, 1510920, Note_off_c, 0, 51, 95
2, 1510920, Note_on_c, 0, 54, 95
2, 1511100, Note_off_c, 0, 54, 95
2, 1511100, Note_on_c, 0, 56, 70
2, 1511280, Note_off_c, 0, 56, 70
2, 1511280, Note_on_c, 0, 57, 70
2, 1511460, Note_off_c, 0, 57, 70
2, 1511460, Note_on_c, 0, 58, 70
2, 1511640, Note_off_c, 0, 58, 70
2, 1511640, Note_on_c, 0, 56, 70
2, 1511820, Note_off_c, 0, 56, 70
2, 1511820, Note_on_c, 0, 54, 70
2, 1512000, Note_off_c, 0, 54, 70
2, 1512000, Note_on_c, 0, 51, 95
2, 1512360, Note_off_c, 0, 51, 95
2, 1512360, Note_on_c, 0, 49, 70
2, 1512720, Note_off_c, 0, 49, 70
2, 1512720, Note_on_c, 0, 51, 70
2, 1514400, Note_off_c, 0, 51, 70
2, 1514880, Pitch_bend_c, 1, 8192
2, 1514880, Note_on_c, 1, 68, 95
2, 1514910, Pitch_bend_c, 1, 8320
2, 1514940, Pitch_bend_c, 1, 8448
2, 1514970, Pitch_bend_c, 1, 8576
2, 1515000, Pitch_bend_c, 1, 8704
2, 1515030, Pitch_bend_c, 1, 8832
2, 1515060, Pitch_bend_c, 1, 8960
2, 1515090, Pitch_bend_c, 1, 9088
2, 1515120, Pitch_bend_c, 1, 9216
2, 1515120, Pitch_bend_c, 1, 9216
2, 1515360, Pitch_bend_c, 1, 9216
2, 1515360, Pitch_bend_c, 1, 8192
2, 1515360, Note_off_c, 1, 68, 95
2, 1515360, Note_on_c, 0, 66, 95
2, 1515840, Note_off_c, 0, 66, 95
2, 1515840, Note_on_c, 0, 63, 95
2, 1516320, Note_off_c, 0, 63, 95
2, 1516320, Note_on_c, 0, 61, 95
2, 1516800, Note_off_c, 0, 61, 95
2, 1516800, Note_on_c, 0, 63, 95
2, 1517120, Note_off_c, 0, 63, 95
2, 1517120, Note_on_c, 0, 61, 95
2, 1517440, Note_off_c, 0, 61, 95
2, 1517440, Note_on_c, 0, 58, 95
2, 1517640, Note_on_c, 1, 54, 95
2, 1517760, Note_off_c, 0, 58, 95
2, 1517760, Note_off_c, 1, 54, 95
2, 1517760, Note_on_c, 1, 56, 95
2, 1518080, Note_off_c, 1, 56, 95
2, 1518080, Note_on_c, 0, 54, 95
2, 1518400, Note_off_c, 0, 54, 95
2, 1518400, Note_on_c, 0, 56, 95
2, 1518720, Note_off_c, 0, 56, 95
2, 1518720, Note_on_c, 0, 54, 95
2, 1519200, Note_off_c, 0, 54, 95
2, 1519200, Note_on_c, 0, 51, 95
2, 1519920, Note_off_c, 0, 51, 95
2, 1519920, Note_on_c, 0, 44, 95
2, 1520160, Note_off_c, 0, 44, 95
2, 1520160, Note_on_c, 0, 46, 70
2, 1520640, Note_off_c, 0, 46, 70
2, 1520640, Note_on_c, 0, 49, 95
2, 1520880, Note_off_c, 0, 49, 95
2, 1520880, Note_on_c, 0, 51, 70
2, 1521840, Note_off_c, 0, 51, 70
2, 1527840, Note_on_c, 0, 61, 95
2, 1527840, Pitch_bend_c, 1, 8192
2, 1527840, Note_on_c, 1, 56, 95
2, 1527963, Pitch_bend_c, 1, 8320
2, 1528086, Pitch_bend_c, 1, 8448
2, 1528209, Pitch_bend_c, 1, 8576
2, 1528332, Pitch_bend_c, 1, 8704
2, 1528455, Pitch_bend_c, 1, 8832
2, 1528578, Pitch_bend_c, 1, 8960
2, 1528701, Pitch_bend_c, 1, 9088
2, 1528824, Pitch_bend_c, 1, 9216
2, 1528947, Pitch_bend_c, 1, 9344
2, 1529070, Pitch_bend_c, 1, 9472
2, 1529193, Pitch_bend_c, 1, 9600
2, 1529200, Pitch_bend_c, 1, 9600
2, 1530560, Pitch_bend_c, 1, 9600
2, 1531920, Pitch_bend_c, 1, 9600
2, 1531920, Pitch_bend_c, 1, 9472
2, 1531920, Pitch_bend_c, 1, 9344
2, 1531920, Pitch_bend_c, 1, 9216
2, 1531920, Pitch_bend_c, 1, 9088
2, 1531920, Pitch_bend_c, 1, 8960
2, 1531920, Pitch_bend_c, 1, 8832
2, 1531920, Pitch_bend_c, 1, 8832
2, 1532033, Pitch_bend_c, 1, 8960
2, 1532146, Pitch_bend_c, 1, 9088
2, 1532259, Pitch_bend_c, 1, 9216
2, 1532372, Pitch_bend_c, 1, 9344
2, 1532485, Pitch_bend_c, 1, 9472
2, 1532598, Pitch_bend_c, 1, 9600
2, 1532600, Pitch_bend_c, 1, 9600
2, 1532600, Pitch_bend_c, 1, 9472
2, 1532600, Pitch_bend_c, 1, 9344
2, 1532600, Pitch_bend_c, 1, 9216
2, 1532600, Pitch_bend_c, 1, 9088
2, 1532600, Pitch_bend_c, 1, 8960
2, 1532600, Pitch_bend_c, 1, 8832
2, 1532600, Pitch_bend_c, 1, 8832
2, 1532713, Pitch_bend_c, 1, 8960
2, 1532826, Pitch_bend_c, 1, 9088
2, 1532939, Pitch_bend_c, 1, 9216
2, 1533052, Pitch_bend_c, 1, 9344
2, 1533165, Pitch_bend_c, 1, 9472
2, 1533278, Pitch_bend_c, 1, 9600
2, 1533280, Pitch_bend_c, 1, 9600
2, 1533280, Pitch_bend_c, 1, 9472
2, 1533280, Pitch_bend_c, 1, 9344
2, 1533280, Pitch_bend_c, 1, 9216
2, 1533280, Pitch_bend_c, 1, 9088
2, 1533280, Pitch_bend_c, 1, 8960
2, 1533280, Pitch_bend_c, 1, 8832
2, 1533280, Pitch_bend_c, 1, 8832
2, 1533393, Pitch_bend_c, 1, 8960
2, 1533506, Pitch_bend_c, 1, 9088
2, 1533619, Pitch_bend_c, 1, 9216
2, 1533732, Pitch_bend_c, 1, 9344
2, 1533845, Pitch_bend_c, 1, 9472
2, 1533958, Pitch_bend_c, 1, 9600
2, 1533960, Pitch_bend_c, 1, 9600
2, 1534073, Pitch_bend_c, 1, 9472
2, 1534186, Pitch_bend_c, 1, 9344
2, 1534299, Pitch_bend_c, 1, 9216
2, 1534412, Pitch_bend_c, 1, 9088
2, 1534525, Pitch_bend_c, 1, 8960
2, 1534638, Pitch_bend_c, 1, 8832
2, 1534640, Pitch_bend_c, 1, 8832
2, 1534640, Pitch_bend_c, 1, 8960
2, 1534640, Pitch_bend_c, 1, 9088
2, 1534640, Pitch_bend_c, 1, 9216
2, 1534640, Pitch_bend_c, 1, 9344
2, 1534640, Pitch_bend_c, 1, 9472
2, 1534640, Pitch_bend_c, 1, 9600
2, 1534640, Pitch_bend_c, 1, 9600
2, 1534753, Pitch_bend_c, 1, 9472
2, 1534866, Pitch_bend_c, 1, 9344
2, 1534979, Pitch_bend_c, 1, 9216
2, 1535092, Pitch_bend_c, 1, 9088
2, 1535205, Pitch_bend_c, 1, 8960
2, 1535318, Pitch_bend_c, 1, 8832
2, 1535320, Pitch_bend_c, 1, 8832
2, 1535320, Pitch_bend_c, 1, 8960
2, 1535320, Pitch_bend_c, 1, 9088
2, 1535320, Pitch_bend_c, 1, 9216
2, 1535320, Pitch_bend_c, 1, 9344
2, 1535320, Pitch_bend_c, 1, 9472
2, 1535320, Pitch_bend_c, 1, 9600
2, 1535320, Pitch_bend_c, 1, 9600
2, 1536000, Note_off_c, 0, 61, 95
2, 1536000, Pitch_bend_c, 1, 9600
2, 1536000, Pitch_bend_c, 1, 8192
2, 1536000, Note_off_c, 1, 56, 95
2, 1536000, Note_on_c, 0, 61, 95
2, 1536000, Pitch_bend_c, 1, 8192
2, 1536000, Note_on_c, 1, 56, 95
2, 1536349, Pitch_bend_c, 1, 8320
2, 1536698, Pitch_bend_c, 1, 8448
2, 1537047, Pitch_bend_c, 1, 8576
2, 1537396, Pitch_bend_c, 1, 8704
2, 1537745, Pitch_bend_c, 1, 8832
2, 1538094, Pitch_bend_c, 1, 8960
2, 1538443, Pitch_bend_c, 1, 9088
2, 1538792, Pitch_bend_c, 1, 9216
2, 1539141, Pitch_bend_c, 1, 9344
2, 1539490, Pitch_bend_c, 1, 9472
2, 1539839, Pitch_bend_c, 1, 9600
2, 1539840, Pitch_bend_c, 1, 9600
2, 1543680, Note_off_c, 0, 61, 95
2, 1543680, Pitch_bend_c, 1, 9600
2, 1543680, Pitch_bend_c, 1, 8192
2, 1543680, Note_off_c, 1, 56, 95
2, 1543680, Pitch_bend_c, 1, 8192
2, 1543680, Note_on_c, 1, 56, 95
2, 1543696, Pitch_bend_c, 1, 8320
2, 1543712, Pitch_bend_c, 1, 8448
2, 1543728, Pitch_bend_c, 1, 8576
2, 1543744, Pitch_bend_c, 1, 8704
2, 1543760, Pitch_bend_c, 1, 8832
2, 1543776, Pitch_bend_c, 1, 8960
2, 1543792, Pitch_bend_c, 1, 9088
2, 1543808, Pitch_bend_c, 1, 9216
2, 1543824, Pitch_bend_c, 1, 9344
2, 1543840, Pitch_bend_c, 1, 9472
2, 1543856, Pitch_bend_c, 1, 9600
2, 1543860, Pitch_bend_c, 1, 9600
2, 1544040, Pitch_bend_c, 1, 9600
2, 1544056, Pitch_bend_c, 1, 9472
2, 1544072, Pitch_bend_c, 1, 9344
2, 1544088, Pitch_bend_c, 1, 9216
2, 1544104, Pitch_bend_c, 1, 9088
2, 1544120, Pitch_bend_c, 1, 8960
2, 1544136, Pitch_bend_c, 1, 8832
2, 1544152, Pitch_bend_c, 1, 8704
2, 1544168, Pitch_bend_c, 1, 8576
2, 1544184, Pitch_bend_c, 1, 8448
2, 1544200, Pitch_bend_c, 1, 8320
2, 1544216, Pitch_bend_c, 1, 8192
2, 1544220, Pitch_bend_c, 1, 8192
2, 1544400, Pitch_bend_c, 1, 8192
2, 1544400, Pitch_bend_c, 1, 8192
2, 1544400, Note_off_c, 1, 56, 95
2, 1544400, Note_on_c, 0, 54, 95
2, 1544640, Note_off_c, 0, 54, 95
2, 1544640, Note_on_c, 0, 49, 47
2, 1544760, Note_off_c, 0, 49, 47
2, 1544760, Note_on_c, 0, 51, 47
2, 1544880, Note_off_c, 0, 51, 47
2, 1544880, Note_on_c, 0, 49, 47
2, 1545000, Note_off_c, 0, 49, 47
2, 1545000, Note_on_c, 0, 51, 47
2, 1545120, Note_off_c, 0, 51, 47
2, 1545120, Note_on_c, 0, 49, 47
2, 1545240, Note_off_c, 0, 49, 47
2, 1545240, Note_on_c, 0, 51, 47
2, 1545360, Note_off_c, 0, 51, 47
2, 1545360, Note_on_c, 0, 49, 47
2, 1545480, Note_off_c, 0, 49, 47
2, 1545480, Note_on_c, 0, 51, 47
2, 1545600, Note_off_c, 0, 51, 47
2, 1545600, Note_on_c, 0, 49, 47
2, 1545720, Note_off_c, 0, 49, 47
2, 1545720, Note_on_c, 0, 51, 47
2, 1545840, Note_off_c, 0, 51, 47
2, 1545840, Note_on_c, 0, 49, 47
2, 1545960, Note_off_c, 0, 49, 47
2, 1545960, Note_on_c, 0, 51, 47
2, 1546080, Note_off_c, 0, 51, 47
2, 1546080, Note_on_c, 0, 49, 47
2, 1546200, Note_off_c, 0, 49, 47
2, 1546200, Note_on_c, 0, 51, 47
2, 1546320, Note_off_c, 0, 51, 47
2, 1546320, Note_on_c, 0, 49, 47
2, 1546440, Note_off_c, 0, 49, 47
2, 1546440, Note_on_c, 0, 51, 47
2, 1546559, Note_off_c, 0, 51, 47
2, 1551360, Pitch_bend_c, 1, 8192
2, 1551360, Note_on_c, 1, 56, 95
2, 1551540, Pitch_bend_c, 1, 8320
2, 1551720, Pitch_bend_c, 1, 8448
2, 1551720, Pitch_bend_c, 1, 8448
2, 1552080, Pitch_bend_c, 1, 8448
2, 1552080, Pitch_bend_c, 1, 8192
2, 1552080, Note_off_c, 1, 56, 95
2, 1552080, Note_on_c, 0, 54, 95
2, 1552800, Note_off_c, 0, 54, 95
2, 1552800, Note_on_c, 0, 51, 95
2, 1553280, Note_off_c, 0, 51, 95
2, 1553280, Note_on_c, 0, 49, 95
2, 1553760, Note_off_c, 0, 49, 95
2, 1553760, Note_on_c, 0, 51, 95
2, 1554240, Note_off_c, 0, 51, 95
2, 1554240, Note_on_c, 0, 49, 95
2, 1554720, Note_off_c, 0, 49, 95
2, 1554720, Note_on_c, 1, 46, 95
2, 1554840, Pitch_bend_c, 1, 7936
2, 1554960, Pitch_bend_c, 1, 7552
2, 1554960, Pitch_bend_c, 1, 8192
2, 1554960, Note_off_c, 1, 46, 95
2, 1554960, Note_on_c, 0, 45, 95
2, 1555200, Note_off_c, 0, 45, 95
2, 1555200, Note_on_c, 0, 44, 95
2, 1555440, Note_off_c, 0, 44, 95
2, 1555440, Note_on_c, 0, 42, 95
2, 1555680, Note_off_c, 0, 42, 95
2, 1555680, Note_on_c, 0, 51, 95
2, 1555680, Note_on_c, 0, 46, 95
2, 1555680, Note_on_c, 0, 39, 95
2, 1559040, Note_off_c, 0, 51, 95
2, 1559040, Note_off_c, 0, 46, 95
2, 1559040, Note_off_c, 0, 39, 95
2, 1559040, Note_on_c, 0, 66, 95
2, 1559040, Note_on_c, 0, 61, 95
2, 1559040, Note_on_c, 0, 55, 95
2, 1559040, Note_on_c, 0, 51, 95
2, 1559280, Note_off_c, 0, 66, 95
2, 1559280, Note_off_c, 0, 61, 95
2, 1559280, Note_off_c, 0, 55, 95
2, 1559280, Note_off_c, 0, 51, 95
2, 1559280, Note_on_c, 0, 66, 95
2, 1559280, Note_on_c, 0, 61, 95
2, 1559280, Note_on_c, 0, 55, 95
2, 1559280, Note_on_c, 0, 51, 95
2, 1559520, Note_off_c, 0, 66, 95
2, 1559520, Note_off_c, 0, 61, 95
2, 1559520, Note_off_c, 0, 55, 95
2, 1559520, Note_off_c, 0, 51, 95
2, 1559520, Note_on_c, 0, 66, 95
2, 1559520, Note_on_c, 0, 61, 95
2, 1559520, Note_on_c, 0, 55, 95
2, 1559520, Note_on_c, 0, 51, 95
2, 1559760, Note_off_c, 0, 66, 95
2, 1559760, Note_off_c, 0, 61, 95
2, 1559760, Note_off_c, 0, 55, 95
2, 1559760, Note_off_c, 0, 51, 95
2, 1559760, Note_on_c, 0, 66, 95
2, 1559760, Note_on_c, 0, 61, 95
2, 1559760, Note_on_c, 0, 55, 95
2, 1559760, Note_on_c, 0, 51, 95
2, 1560000, Note_off_c, 0, 66, 95
2, 1560000, Note_off_c, 0, 61, 95
2, 1560000, Note_off_c, 0, 55, 95
2, 1560000, Note_off_c, 0, 51, 95
2, 1560000, Note_on_c, 0, 66, 95
2, 1560000, Note_on_c, 0, 61, 95
2, 1560000, Note_on_c, 0, 55, 95
2, 1560000, Note_on_c, 0, 51, 95
2, 1560240, Note_off_c, 0, 66, 95
2, 1560240, Note_off_c, 0, 61, 95
2, 1560240, Note_off_c, 0, 55, 95
2, 1560240, Note_off_c, 0, 51, 95
2, 1560240, Note_on_c, 0, 66, 95
2, 1560240, Note_on_c, 0, 61, 95
2, 1560240, Note_on_c, 0, 55, 95
2, 1560240, Note_on_c, 0, 51, 95
2, 1560480, Note_off_c, 0, 66, 95
2, 1560480, Note_off_c, 0, 61, 95
2, 1560480, Note_off_c, 0, 55, 95
2, 1560480, Note_off_c, 0, 51, 95
2, 1560480, Note_on_c, 0, 66, 95
2, 1560480, Note_on_c, 0, 61, 95
2, 1560480, Note_on_c, 0, 55, 95
2, 1560480, Note_on_c, 0, 51, 95
2, 1560720, Note_off_c, 0, 66, 95
2, 1560720, Note_off_c, 0, 61, 95
2, 1560720, Note_off_c, 0, 55, 95
2, 1560720, Note_off_c, 0, 51, 95
2, 1560720, Note_on_c, 0, 66, 95
2, 1560720, Note_on_c, 0, 61, 95
2, 1560720, Note_on_c, 0, 55, 95
2, 1560720, Note_on_c, 0, 51, 95
2, 1560960, Note_off_c, 0, 66, 95
2, 1560960, Note_off_c, 0, 61, 95
2, 1560960, Note_off_c, 0, 55, 95
2, 1560960, Note_off_c, 0, 51, 95
2, 1560960, Note_on_c, 0, 65, 95
2, 1560960, Note_on_c, 0, 61, 95
2, 1560960, Note_on_c, 0, 55, 95
2, 1560960, Note_on_c, 0, 51, 95
2, 1561200, Note_off_c, 0, 65, 95
2, 1561200, Note_off_c, 0, 61, 95
2, 1561200, Note_off_c, 0, 55, 95
2, 1561200, Note_off_c, 0, 51, 95
2, 1561200, Note_on_c, 0, 66, 95
2, 1561200, Note_on_c, 0, 61, 95
2, 1561200, Note_on_c, 0, 55, 95
2, 1561200, Note_on_c, 0, 51, 95
2, 1561440, Note_off_c, 0, 66, 95
2, 1561440, Note_off_c, 0, 61, 95
2, 1561440, Note_off_c, 0, 55, 95
2, 1561440, Note_off_c, 0, 51, 95
2, 1561440, Note_on_c, 0, 66, 95
2, 1561440, Note_on_c, 0, 61, 95
2, 1561440, Note_on_c, 0, 55, 95
2, 1561440, Note_on_c, 0, 51, 95
2, 1561680, Note_off_c, 0, 66, 95
2, 1561680, Note_off_c, 0, 61, 95
2, 1561680, Note_off_c, 0, 55, 95
2, 1561680, Note_off_c, 0, 51, 95
2, 1561680, Note_on_c, 0, 66, 95
2, 1561680, Note_on_c, 0, 61, 95
2, 1561680, Note_on_c, 0, 55, 95
2, 1561680, Note_on_c, 0, 51, 95
2, 1561920, Note_off_c, 0, 66, 95
2, 1561920, Note_off_c, 0, 61, 95
2, 1561920, Note_off_c, 0, 55, 95
2, 1561920, Note_off_c, 0, 51, 95
2, 1561920, Note_on_c, 0, 66, 95
2, 1561920, Note_on_c, 0, 61, 95
2, 1561920, Note_on_c, 0, 55, 95
2, 1561920, Note_on_c, 0, 51, 95
2, 1562160, Note_off_c, 0, 66, 95
2, 1562160, Note_off_c, 0, 61, 95
2, 1562160, Note_off_c, 0, 55, 95
2, 1562160, Note_off_c, 0, 51, 95
2, 1562160, Note_on_c, 0, 66, 95
2, 1562160, Note_on_c, 0, 61, 95
2, 1562160, Note_on_c, 0, 55, 95
2, 1562160, Note_on_c, 0, 51, 95
2, 1562400, Note_off_c, 0, 66, 95
2, 1562400, Note_off_c, 0, 61, 95
2, 1562400, Note_off_c, 0, 55, 95
2, 1562400, Note_off_c, 0, 51, 95
2, 1562400, Note_on_c, 0, 66, 95
2, 1562400, Note_on_c, 0, 61, 95
2, 1562400, Note_on_c, 0, 55, 95
2, 1562400, Note_on_c, 0, 51, 95
2, 1562640, Note_off_c, 0, 66, 95
2, 1562640, Note_off_c, 0, 61, 95
2, 1562640, Note_off_c, 0, 55, 95
2, 1562640, Note_off_c, 0, 51, 95
2, 1562640, Note_on_c, 0, 66, 95
2, 1562640, Note_on_c, 0, 61, 95
2, 1562640, Note_on_c, 0, 55, 95
2, 1562640, Note_on_c, 0, 51, 95
2, 1562880, Note_off_c, 0, 66, 95
2, 1562880, Note_off_c, 0, 61, 95
2, 1562880, Note_off_c, 0, 55, 95
2, 1562880, Note_off_c, 0, 51, 95
2, 1562880, Note_on_c, 0, 66, 95
2, 1562880, Note_on_c, 0, 62, 95
2, 1562880, Note_on_c, 0, 56, 95
2, 1562880, Note_on_c, 0, 52, 95
2, 1563120, Note_off_c, 0, 66, 95
2, 1563120, Note_off_c, 0, 62, 95
2, 1563120, Note_off_c, 0, 56, 95
2, 1563120, Note_off_c, 0, 52, 95
2, 1563120, Note_on_c, 0, 66, 95
2, 1563120, Note_on_c, 0, 62, 95
2, 1563120, Note_on_c, 0, 56, 95
2, 1563120, Note_on_c, 0, 52, 95
2, 1563360, Note_off_c, 0, 66, 95
2, 1563360, Note_off_c, 0, 62, 95
2, 1563360, Note_off_c, 0, 56, 95
2, 1563360, Note_off_c, 0, 52, 95
2, 1563360, Note_on_c, 0, 67, 95
2, 1563360, Note_on_c, 0, 63, 95
2, 1563360, Note_on_c, 0, 57, 95
2, 1563360, Note_on_c, 0, 53, 95
2, 1563600, Note_off_c, 0, 67, 95
2, 1563600, Note_off_c, 0, 63, 95
2, 1563600, Note_off_c, 0, 57, 95
2, 1563600, Note_off_c, 0, 53, 95
2, 1563600, Note_on_c, 0, 67, 95
2, 1563600, Note_on_c, 0, 63, 95
2, 1563600, Note_on_c, 0, 57, 95
2, 1563600, Note_on_c, 0, 53, 95
2, 1563840, Note_off_c, 0, 67, 95
2, 1563840, Note_off_c, 0, 63, 95
2, 1563840, Note_off_c, 0, 57, 95
2, 1563840, Note_off_c, 0, 53, 95
2, 1563840, Note_on_c, 0, 68, 95
2, 1563840, Note_on_c, 0, 64, 95
2, 1563840, Note_on_c, 0, 58, 95
2, 1563840, Note_on_c, 0, 54, 95
2, 1564080, Note_off_c, 0, 68, 95
2, 1564080, Note_off_c, 0, 64, 95
2, 1564080, Note_off_c, 0, 58, 95
2, 1564080, Note_off_c, 0, 54, 95
2, 1564080, Note_on_c, 0, 68, 95
2, 1564080, Note_on_c, 0, 64, 95
2, 1564080, Note_on_c, 0, 58, 95
2, 1564080, Note_on_c, 0, 54, 95
2, 1564320, Note_off_c, 0, 68, 95
2, 1564320, Note_off_c, 0, 64, 95
2, 1564320, Note_off_c, 0, 58, 95
2, 1564320, Note_off_c, 0, 54, 95
2, 1564320, Note_on_c, 0, 69, 95
2, 1564320, Note_on_c, 0, 65, 95
2, 1564320, Note_on_c, 0, 59, 95
2, 1564320, Note_on_c, 0, 55, 95
2, 1564560, Note_off_c, 0, 69, 95
2, 1564560, Note_off_c, 0, 65, 95
2, 1564560, Note_off_c, 0, 59, 95
2, 1564560, Note_off_c, 0, 55, 95
2, 1564560, Note_on_c, 0, 69, 95
2, 1564560, Note_on_c, 0, 65, 95
2, 1564560, Note_on_c, 0, 59, 95
2, 1564560, Note_on_c, 0, 55, 95
2, 1564800, Note_off_c, 0, 69, 95
2, 1564800, Note_off_c, 0, 65, 95
2, 1564800, Note_off_c, 0, 59, 95
2, 1564800, Note_off_c, 0, 55, 95
2, 1564800, Note_on_c, 0, 70, 95
2, 1564800, Note_on_c, 0, 66, 95
2, 1564800, Note_on_c, 0, 60, 95
2, 1564800, Note_on_c, 0, 56, 95
2, 1565040, Note_off_c, 0, 70, 95
2, 1565040, Note_off_c, 0, 66, 95
2, 1565040, Note_off_c, 0, 60, 95
2, 1565040, Note_off_c, 0, 56, 95
2, 1565040, Note_on_c, 0, 70, 95
2, 1565040, Note_on_c, 0, 66, 95
2, 1565040, Note_on_c, 0, 60, 95
2, 1565040, Note_on_c, 0, 56, 95
2, 1565280, Note_off_c, 0, 70, 95
2, 1565280, Note_off_c, 0, 66, 95
2, 1565280, Note_off_c, 0, 60, 95
2, 1565280, Note_off_c, 0, 56, 95
2, 1565280, Note_on_c, 0, 71, 95
2, 1565280, Note_on_c, 0, 67, 95
2, 1565280, Note_on_c, 0, 61, 95
2, 1565280, Note_on_c, 0, 57, 95
2, 1565520, Note_off_c, 0, 71, 95
2, 1565520, Note_off_c, 0, 67, 95
2, 1565520, Note_off_c, 0, 61, 95
2, 1565520, Note_off_c, 0, 57, 95
2, 1565520, Note_on_c, 0, 71, 95
2, 1565520, Note_on_c, 0, 67, 95
2, 1565520, Note_on_c, 0, 61, 95
2, 1565520, Note_on_c, 0, 57, 95
2, 1565760, Note_off_c, 0, 71, 95
2, 1565760, Note_off_c, 0, 67, 95
2, 1565760, Note_off_c, 0, 61, 95
2, 1565760, Note_off_c, 0, 57, 95
2, 1565760, Note_on_c, 0, 72, 95
2, 1565760, Note_on_c, 0, 68, 95
2, 1565760, Note_on_c, 0, 62, 95
2, 1565760, Note_on_c, 0, 58, 95
2, 1566000, Note_off_c, 0, 72, 95
2, 1566000, Note_off_c, 0, 68, 95
2, 1566000, Note_off_c, 0, 62, 95
2, 1566000, Note_off_c, 0, 58, 95
2, 1566000, Note_on_c, 0, 72, 95
2, 1566000, Note_on_c, 0, 68, 95
2, 1566000, Note_on_c, 0, 62, 95
2, 1566000, Note_on_c, 0, 58, 95
2, 1566240, Note_off_c, 0, 72, 95
2, 1566240, Note_off_c, 0, 68, 95
2, 1566240, Note_off_c, 0, 62, 95
2, 1566240, Note_off_c, 0, 58, 95
2, 1566240, Note_on_c, 0, 73, 95
2, 1566240, Note_on_c, 0, 69, 95
2, 1566240, Note_on_c, 0, 63, 95
2, 1566240, Note_on_c, 0, 59, 95
2, 1566480, Note_off_c, 0, 73, 95
2, 1566480, Note_off_c, 0, 69, 95
2, 1566480, Note_off_c, 0, 63, 95
2, 1566480, Note_off_c, 0, 59, 95
2, 1566480, Note_on_c, 0, 73, 95
2, 1566480, Note_on_c, 0, 69, 95
2, 1566480, Note_on_c, 0, 63, 95
2, 1566480, Note_on_c, 0, 59, 95
2, 1566720, Note_off_c, 0, 73, 95
2, 1566720, Note_off_c, 0, 69, 95
2, 1566720, Note_off_c, 0, 63, 95
2, 1566720, Note_off_c, 0, 59, 95
2, 1566720, Note_on_c, 0, 74, 95
2, 1566720, Note_on_c, 0, 70, 95
2, 1566720, Note_on_c, 0, 64, 95
2, 1566720, Note_on_c, 0, 60, 95
2, 1566960, Note_off_c, 0, 74, 95
2, 1566960, Note_off_c, 0, 70, 95
2, 1566960, Note_off_c, 0, 64, 95
2, 1566960, Note_off_c, 0, 60, 95
2, 1566960, Note_on_c, 0, 74, 95
2, 1566960, Note_on_c, 0, 70, 95
2, 1566960, Note_on_c, 0, 64, 95
2, 1566960, Note_on_c, 0, 60, 95
2, 1567200, Note_off_c, 0, 74, 95
2, 1567200, Note_off_c, 0, 70, 95
2, 1567200, Note_off_c, 0, 64, 95
2, 1567200, Note_off_c, 0, 60, 95
2, 1567200, Note_on_c, 0, 75, 95
2, 1567200, Note_on_c, 0, 71, 95
2, 1567200, Note_on_c, 0, 65, 95
2, 1567200, Note_on_c, 0, 61, 95
2, 1567440, Note_off_c, 0, 75, 95
2, 1567440, Note_off_c, 0, 71, 95
2, 1567440, Note_off_c, 0, 65, 95
2, 1567440, Note_off_c, 0, 61, 95
2, 1567440, Note_on_c, 0, 75, 95
2, 1567440, Note_on_c, 0, 71, 95
2, 1567440, Note_on_c, 0, 65, 95
2, 1567440, Note_on_c, 0, 61, 95
2, 1567680, Note_off_c, 0, 75, 95
2, 1567680, Note_off_c, 0, 71, 95
2, 1567680, Note_off_c, 0, 65, 95
2, 1567680, Note_off_c, 0, 61, 95
2, 1567680, Note_on_c, 0, 76, 95
2, 1567680, Note_on_c, 0, 72, 95
2, 1567680, Note_on_c, 0, 66, 95
2, 1567680, Note_on_c, 0, 62, 95
2, 1567920, Note_off_c, 0, 76, 95
2, 1567920, Note_off_c, 0, 72, 95
2, 1567920, Note_off_c, 0, 66, 95
2, 1567920, Note_off_c, 0, 62, 95
2, 1567920, Note_on_c, 0, 76, 95
2, 1567920, Note_on_c, 0, 72, 95
2, 1567920, Note_on_c, 0, 66, 95
2, 1567920, Note_on_c, 0, 62, 95
2, 1568160, Note_off_c, 0, 76, 95
2, 1568160, Note_off_c, 0, 72, 95
2, 1568160, Note_off_c, 0, 66, 95
2, 1568160, Note_off_c, 0, 62, 95
2, 1568160, Note_on_c, 0, 77, 95
2, 1568160, Note_on_c, 0, 73, 95
2, 1568160, Note_on_c, 0, 67, 95
2, 1568160, Note_on_c, 0, 63, 95
2, 1568400, Note_off_c, 0, 77, 95
2, 1568400, Note_off_c, 0, 73, 95
2, 1568400, Note_off_c, 0, 67, 95
2, 1568400, Note_off_c, 0, 63, 95
2, 1568400, Note_on_c, 0, 77, 95
2, 1568400, Note_on_c, 0, 73, 95
2, 1568400, Note_on_c, 0, 67, 95
2, 1568400, Note_on_c, 0, 63, 95
2, 1568640, Note_off_c, 0, 77, 95
2, 1568640, Note_off_c, 0, 73, 95
2, 1568640, Note_off_c, 0, 67, 95
2, 1568640, Note_off_c, 0, 63, 95
2, 1568640, Note_on_c, 1, 77, 95
2, 1568640, Note_on_c, 0, 73, 95
2, 1568640, Note_on_c, 0, 67, 95
2, 1568640, Note_on_c, 0, 63, 95
2, 1568800, Pitch_bend_c, 1, 8192
2, 1568960, Pitch_bend_c, 1, 8320
2, 1569120, Pitch_bend_c, 1, 8192
2, 1569280, Pitch_bend_c, 1, 8320
2, 1569440, Pitch_bend_c, 1, 8192
2, 1569600, Pitch_bend_c, 1, 8320
2, 1569760, Pitch_bend_c, 1, 8192
2, 1569920, Pitch_bend_c, 1, 8320
2, 1570080, Pitch_bend_c, 1, 8192
2, 1570240, Pitch_bend_c, 1, 8320
2, 1570400, Pitch_bend_c, 1, 8192
2, 1570560, Pitch_bend_c, 1, 8320
2, 1570560, Note_on_c, 1, 82, 95
2, 1570720, Pitch_bend_c, 1, 8192
2, 1570720, Pitch_bend_c, 1, 8192
2, 1570880, Pitch_bend_c, 1, 8320
2, 1570880, Pitch_bend_c, 1, 8320
2, 1571040, Pitch_bend_c, 1, 8192
2, 1571040, Pitch_bend_c, 1, 8192
2, 1571200, Pitch_bend_c, 1, 8320
2, 1571200, Pitch_bend_c, 1, 8320
2, 1571360, Pitch_bend_c, 1, 8192
2, 1571360, Pitch_bend_c, 1, 8192
2, 1571520, Pitch_bend_c, 1, 8320
2, 1571520, Pitch_bend_c, 1, 8320
2, 1571680, Pitch_bend_c, 1, 8192
2, 1571680, Pitch_bend_c, 1, 8192
2, 1571840, Pitch_bend_c, 1, 8320
2, 1571840, Pitch_bend_c, 1, 8320
2, 1572000, Pitch_bend_c, 1, 8192
2, 1572000, Pitch_bend_c, 1, 8192
2, 1572160, Pitch_bend_c, 1, 8320
2, 1572160, Pitch_bend_c, 1, 8320
2, 1572320, Pitch_bend_c, 1, 8192
2, 1572320, Pitch_bend_c, 1, 8192
2, 1572480, Pitch_bend_c, 1, 8320
2, 1572480, Pitch_bend_c, 1, 8320
2, 1572640, Pitch_bend_c, 1, 8192
2, 1572640, Pitch_bend_c, 1, 8192
2, 1572800, Pitch_bend_c, 1, 8320
2, 1572800, Pitch_bend_c, 1, 8320
2, 1572960, Pitch_bend_c, 1, 8192
2, 1572960, Pitch_bend_c, 1, 8192
2, 1573120, Pitch_bend_c, 1, 8320
2, 1573120, Pitch_bend_c, 1, 8320
2, 1573280, Pitch_bend_c, 1, 8192
2, 1573280, Pitch_bend_c, 1, 8192
2, 1573440, Pitch_bend_c, 1, 8320
2, 1573440, Pitch_bend_c, 1, 8320
2, 1573600, Pitch_bend_c, 1, 8192
2, 1573600, Pitch_bend_c, 1, 8192
2, 1573760, Pitch_bend_c, 1, 8320
2, 1573760, Pitch_bend_c, 1, 8320
2, 1573920, Pitch_bend_c, 1, 8192
2, 1573920, Pitch_bend_c, 1, 8192
2, 1574080, Pitch_bend_c, 1, 8320
2, 1574080, Pitch_bend_c, 1, 8320
2, 1574240, Pitch_bend_c, 1, 8192
2, 1574240, Pitch_bend_c, 1, 8192
2, 1574400, Pitch_bend_c, 1, 8320
2, 1574400, Pitch_bend_c, 1, 8192
2, 1574400, Note_off_c, 1, 77, 95
2, 1574400, Note_off_c, 0, 73, 95
2, 1574400, Note_off_c, 0, 67, 95
2, 1574400, Note_off_c, 0, 63, 95
2, 1574400, Pitch_bend_c, 1, 8320
2, 1574400, Pitch_bend_c, 1, 8192
2, 1574400, Note_off_c, 1, 82, 95
2, 1574400, Note_on_c, 1, 77, 95
2, 1574400, Note_on_c, 1, 73, 95
2, 1574400, Note_on_c, 1, 67, 95
2, 1574400, Note_on_c, 1, 63, 95
2, 1575840, Note_off_c, 1, 77, 95
2, 1575840, Note_off_c, 1, 73, 95
2, 1575840, Note_off_c, 1, 67, 95
2, 1575840, Note_off_c, 1, 63, 95
2, 1575840, End_track
3, 0, Start_track
3, 0, Pitch_bend_c, 2, 8192
3, 0, Control_c, 2, 7, 111
3, 0, Control_c, 2, 10, 63
3, 0, Control_c, 2, 93, 0
3, 0, Control_c, 2, 91, 0
3, 0, Control_c, 2, 95, 0
3, 0, Control_c, 2, 92, 0
3, 0, Control_c, 2, 11, 127
3, 0, Program_c, 2, 30
3, 0, Control_c, 3, 7, 111
3, 0, Control_c, 3, 10, 63
3, 0, Control_c, 3, 93, 0
3, 0, Control_c, 3, 91, 0
3, 0, Control_c, 3, 95, 0
3, 0, Control_c, 3, 92, 0
3, 0, Control_c, 3, 11, 127
3, 0, Program_c, 3, 30
3, 6720, Note_on_c, 2, 61, 95
3, 7200, Note_off_c, 2, 61, 95
3, 7200, Note_on_c, 2, 63, 95
3, 8880, Note_off_c, 2, 63, 95
3, 8880, Pitch_bend_c, 3, 8192
3, 8880, Note_on_c, 3, 68, 95
3, 8912, Pitch_bend_c, 3, 8320
3, 8944, Pitch_bend_c, 3, 8448
3, 8976, Pitch_bend_c, 3, 8576
3, 9008, Pitch_bend_c, 3, 8704
3, 9040, Pitch_bend_c, 3, 8832
3, 9072, Pitch_bend_c, 3, 8960
3, 9104, Pitch_bend_c, 3, 9088
3, 9136, Pitch_bend_c, 3, 9216
3, 9168, Pitch_bend_c, 3, 9344
3, 9200, Pitch_bend_c, 3, 9472
3, 9232, Pitch_bend_c, 3, 9600
3, 9240, Pitch_bend_c, 3, 9600
3, 9600, Pitch_bend_c, 3, 9600
3, 9600, Pitch_bend_c, 3, 8192
3, 9600, Note_off_c, 3, 68, 95
3, 9600, Note_on_c, 2, 66, 95
3, 10320, Note_off_c, 2, 66, 95
3, 10320, Note_on_c, 2, 63, 95
3, 11040, Note_off_c, 2, 63, 95
3, 11040, Note_on_c, 2, 61, 95
3, 11520, Note_off_c, 2, 61, 95
3, 11520, Note_on_c, 2, 58, 95
3, 12240, Note_off_c, 2, 58, 95
3, 13920, Pitch_bend_c, 3, 8192
3, 13920, Note_on_c, 3, 61, 95
3, 14040, Pitch_bend_c, 3, 8320
3, 14160, Pitch_bend_c, 3, 8448
3, 14160, Pitch_bend_c, 3, 8448
3, 14400, Pitch_bend_c, 3, 8448
3, 14400, Pitch_bend_c, 3, 8192
3, 14400, Note_off_c, 3, 61, 95
3, 14400, Pitch_bend_c, 3, 8192
3, 14400, Note_on_c, 3, 61, 95
3, 14520, Pitch_bend_c, 3, 8320
3, 14640, Pitch_bend_c, 3, 8448
3, 14640, Pitch_bend_c, 3, 8448
3, 14880, Pitch_bend_c, 3, 8448
3, 14880, Pitch_bend_c, 3, 8192
3, 14880, Note_off_c, 3, 61, 95
3, 14880, Pitch_bend_c, 3, 8192
3, 14880, Note_on_c, 3, 61, 95
3, 15000, Pitch_bend_c, 3, 8320
3, 15120, Pitch_bend_c, 3, 8448
3, 15120, Pitch_bend_c, 3, 8448
3, 15360, Pitch_bend_c, 3, 8448
3, 15360, Pitch_bend_c, 3, 8192
3, 15360, Note_off_c, 3, 61, 95
3, 15360, Note_on_c, 3, 58, 95
3, 15840, Note_off_c, 3, 58, 95
3, 19200, Note_on_c, 2, 63, 95
3, 19920, Note_off_c, 2, 63, 95
3, 19920, Note_on_c, 2, 61, 95
3, 20640, Note_off_c, 2, 61, 95
3, 20640, Note_on_c, 2, 58, 95
3, 20880, Note_off_c, 2, 58, 95
3, 20880, Note_on_c, 2, 56, 70
3, 21120, Note_off_c, 2, 56, 70
3, 21120, Note_on_c, 2, 54, 95
3, 21840, Note_off_c, 2, 54, 95
3, 21840, Note_on_c, 2, 56, 95
3, 22320, Note_off_c, 2, 56, 95
3, 22320, Note_on_c, 2, 54, 95
3, 22800, Note_off_c, 2, 54, 95
3, 22800, Note_on_c, 2, 51, 95
3, 24000, Note_off_c, 2, 51, 95
3, 297120, Note_on_c, 2, 58, 95
3, 297600, Note_off_c, 2, 58, 95
3, 297600, Pitch_bend_c, 3, 8192
3, 297600, Note_on_c, 3, 63, 95
3, 297643, Pitch_bend_c, 3, 8320
3, 297686, Pitch_bend_c, 3, 8448
3, 297729, Pitch_bend_c, 3, 8576
3, 297772, Pitch_bend_c, 3, 8704
3, 297815, Pitch_bend_c, 3, 8832
3, 297858, Pitch_bend_c, 3, 8960
3, 297901, Pitch_bend_c, 3, 9088
3, 297944, Pitch_bend_c, 3, 9216
3, 297987, Pitch_bend_c, 3, 9344
3, 298030, Pitch_bend_c, 3, 9472
3, 298073, Pitch_bend_c, 3, 9600
3, 298080, Pitch_bend_c, 3, 9600
3, 298560, Pitch_bend_c, 3, 9600
3, 298560, Pitch_bend_c, 3, 8192
3, 298560, Note_off_c, 3, 63, 95
3, 298560, Pitch_bend_c, 3, 9600
3, 298560, Note_on_c, 3, 63, 95
3, 299040, Pitch_bend_c, 3, 9600
3, 299040, Pitch_bend_c, 3, 8192
3, 299040, Note_off_c, 3, 63, 95
3, 299040, Pitch_bend_c, 3, 9600
3, 299040, Note_on_c, 3, 63, 95
3, 299520, Pitch_bend_c, 3, 9600
3, 299520, Pitch_bend_c, 3, 8192
3, 299520, Note_off_c, 3, 63, 95
3, 299520, Pitch_bend_c, 3, 9600
3, 299520, Note_on_c, 3, 63, 95
3, 299626, Pitch_bend_c, 3, 9600
3, 299635, Pitch_bend_c, 3, 9472
3, 299644, Pitch_bend_c, 3, 9344
3, 299653, Pitch_bend_c, 3, 9216
3, 299662, Pitch_bend_c, 3, 9088
3, 299671, Pitch_bend_c, 3, 8960
3, 299680, Pitch_bend_c, 3, 8832
3, 299689, Pitch_bend_c, 3, 8704
3, 299698, Pitch_bend_c, 3, 8576
3, 299707, Pitch_bend_c, 3, 8448
3, 299716, Pitch_bend_c, 3, 8320
3, 299725, Pitch_bend_c, 3, 8192
3, 299733, Pitch_bend_c, 3, 8192
3, 299840, Pitch_bend_c, 3, 8192
3, 299840, Pitch_bend_c, 3, 8192
3, 299840, Note_off_c, 3, 63, 95
3, 299840, Note_on_c, 2, 63, 95
3, 300160, Note_off_c, 2, 63, 95
3, 300160, Note_on_c, 2, 61, 95
3, 300480, Note_off_c, 2, 61, 95
3, 300480, Note_on_c, 2, 58, 95
3, 301440, Note_off_c, 2, 58, 95
3, 304320, Note_on_c, 2, 61, 95
3, 304800, Note_off_c, 2, 61, 95
3, 304800, Note_on_c, 2, 61, 95
3, 305280, Note_off_c, 2, 61, 95
3, 305280, Note_on_c, 2, 61, 95
3, 305760, Note_off_c, 2, 61, 95
3, 305760, Note_on_c, 3, 61, 95
3, 305880, Pitch_bend_c, 3, 8448
3, 306000, Pitch_bend_c, 3, 8832
3, 306120, Pitch_bend_c, 3, 9216
3, 306240, Pitch_bend_c, 3, 9600
3, 306240, Pitch_bend_c, 3, 8192
3, 306240, Note_off_c, 3, 61, 95
3, 306240, Note_on_c, 2, 63, 95
3, 306480, Note_off_c, 2, 63, 95
3, 306480, Note_on_c, 2, 64, 70
3, 306720, Note_off_c, 2, 64, 70
3, 306720, Note_on_c, 2, 63, 70
3, 306960, Note_off_c, 2, 63, 70
3, 306960, Note_on_c, 2, 61, 70
3, 307200, Note_off_c, 2, 61, 70
3, 307200, Note_on_c, 2, 56, 95
3, 308160, Note_off_c, 2, 56, 95
3, 312480, Note_on_c, 2, 63, 95
3, 312960, Note_off_c, 2, 63, 95
3, 312960, Pitch_bend_c, 3, 8192
3, 312960, Note_on_c, 3, 68, 95
3, 313003, Pitch_bend_c, 3, 8320
3, 313046, Pitch_bend_c, 3, 8448
3, 313089, Pitch_bend_c, 3, 8576
3, 313132, Pitch_bend_c, 3, 8704
3, 313175, Pitch_bend_c, 3, 8832
3, 313218, Pitch_bend_c, 3, 8960
3, 313261, Pitch_bend_c, 3, 9088
3, 313304, Pitch_bend_c, 3, 9216
3, 313347, Pitch_bend_c, 3, 9344
3, 313390, Pitch_bend_c, 3, 9472
3, 313433, Pitch_bend_c, 3, 9600
3, 313440, Pitch_bend_c, 3, 9600
3, 313920, Pitch_bend_c, 3, 9600
3, 313920, Pitch_bend_c, 3, 8192
3, 313920, Note_off_c, 3, 68, 95
3, 313920, Pitch_bend_c, 3, 9600
3, 313920, Note_on_c, 3, 68, 95
3, 314400, Pitch_bend_c, 3, 9600
3, 314400, Pitch_bend_c, 3, 8192
3, 314400, Note_off_c, 3, 68, 95
3, 314400, Pitch_bend_c, 3, 9600
3, 314400, Note_on_c, 3, 68, 95
3, 314880, Pitch_bend_c, 3, 9600
3, 314880, Pitch_bend_c, 3, 8192
3, 314880, Note_off_c, 3, 68, 95
3, 314880, Pitch_bend_c, 3, 9600
3, 314880, Note_on_c, 3, 68, 95
3, 314986, Pitch_bend_c, 3, 9600
3, 314995, Pitch_bend_c, 3, 9472
3, 315004, Pitch_bend_c, 3, 9344
3, 315013, Pitch_bend_c, 3, 9216
3, 315022, Pitch_bend_c, 3, 9088
3, 315031, Pitch_bend_c, 3, 8960
3, 315040, Pitch_bend_c, 3, 8832
3, 315049, Pitch_bend_c, 3, 8704
3, 315058, Pitch_bend_c, 3, 8576
3, 315067, Pitch_bend_c, 3, 8448
3, 315076, Pitch_bend_c, 3, 8320
3, 315085, Pitch_bend_c, 3, 8192
3, 315093, Pitch_bend_c, 3, 8192
3, 315200, Pitch_bend_c, 3, 8192
3, 315200, Pitch_bend_c, 3, 8192
3, 315200, Note_off_c, 3, 68, 95
3, 315200, Note_on_c, 2, 68, 95
3, 315520, Note_off_c, 2, 68, 95
3, 315520, Note_on_c, 2, 66, 95
3, 315840, Note_off_c, 2, 66, 95
3, 315840, Note_on_c, 2, 63, 95
3, 316800, Note_off_c, 2, 63, 95
3, 319680, Note_on_c, 2, 61, 95
3, 320640, Note_off_c, 2, 61, 95
3, 320640, Note_on_c, 2, 60, 95
3, 320960, Note_off_c, 2, 60, 95
3, 320960, Note_on_c, 2, 61, 95
3, 321280, Note_off_c, 2, 61, 95
3, 321280, Note_on_c, 2, 64, 95
3, 321600, Note_off_c, 2, 64, 95
3, 321600, Note_on_c, 2, 65, 95
3, 321920, Note_off_c, 2, 65, 95
3, 321920, Note_on_c, 2, 60, 95
3, 322240, Note_off_c, 2, 60, 95
3, 322240, Note_on_c, 2, 60, 95
3, 322560, Note_off_c, 2, 60, 95
3, 322560, Note_on_c, 2, 60, 95
3, 322800, Note_off_c, 2, 60, 95
3, 322800, Note_on_c, 2, 59, 95
3, 323040, Note_off_c, 2, 59, 95
3, 323040, Note_on_c, 2, 58, 95
3, 324000, Note_off_c, 2, 58, 95
3, 327360, Note_on_c, 2, 61, 95
3, 327840, Note_off_c, 2, 61, 95
3, 327840, Note_on_c, 2, 60, 95
3, 328320, Note_off_c, 2, 60, 95
3, 328320, Pitch_bend_c, 3, 9600
3, 328320, Note_on_c, 3, 60, 95
3, 328640, Pitch_bend_c, 3, 9600
3, 328669, Pitch_bend_c, 3, 9472
3, 328698, Pitch_bend_c, 3, 9344
3, 328727, Pitch_bend_c, 3, 9216
3, 328756, Pitch_bend_c, 3, 9088
3, 328785, Pitch_bend_c, 3, 8960
3, 328814, Pitch_bend_c, 3, 8832
3, 328843, Pitch_bend_c, 3, 8704
3, 328872, Pitch_bend_c, 3, 8576
3, 328901, Pitch_bend_c, 3, 8448
3, 328930, Pitch_bend_c, 3, 8320
3, 328959, Pitch_bend_c, 3, 8192
3, 328960, Pitch_bend_c, 3, 8192
3, 329280, Pitch_bend_c, 3, 8192
3, 329280, Pitch_bend_c, 3, 8192
3, 329280, Note_off_c, 3, 60, 95
3, 329280, Note_on_c, 3, 51, 95
3, 329400, Pitch_bend_c, 3, 7552
3, 329520, Pitch_bend_c, 3, 6784
3, 329520, Pitch_bend_c, 3, 8192
3, 329520, Note_off_c, 3, 51, 95
3, 329520, Note_on_c, 2, 49, 95
3, 330000, Note_off_c, 2, 49, 95
3, 330960, Note_on_c, 2, 61, 95
3, 331920, Note_off_c, 2, 61, 95
3, 331920, Note_on_c, 2, 58, 95
3, 332760, Note_on_c, 3, 54, 95
3, 332880, Note_off_c, 2, 58, 95
3, 332880, Note_off_c, 3, 54, 95
3, 332880, Note_on_c, 3, 55, 95
3, 334080, Note_off_c, 3, 55, 95
3, 348480, Note_on_c, 2, 61, 95
3, 348960, Note_off_c, 2, 61, 95
3, 348960, Note_on_c, 2, 60, 95
3, 349920, Note_off_c, 2, 60, 95
3, 349920, Pitch_bend_c, 3, 8192
3, 349920, Note_on_c, 3, 60, 95
3, 350000, Pitch_bend_c, 3, 8320
3, 350080, Pitch_bend_c, 3, 8448
3, 350080, Pitch_bend_c, 3, 8448
3, 350240, Pitch_bend_c, 3, 8448
3, 350240, Pitch_bend_c, 3, 8192
3, 350240, Note_off_c, 3, 60, 95
3, 350240, Pitch_bend_c, 3, 8192
3, 350240, Note_on_c, 3, 60, 95
3, 350320, Pitch_bend_c, 3, 8320
3, 350400, Pitch_bend_c, 3, 8448
3, 350400, Pitch_bend_c, 3, 8448
3, 350560, Pitch_bend_c, 3, 8448
3, 350560, Pitch_bend_c, 3, 8192
3, 350560, Note_off_c, 3, 60, 95
3, 350560, Pitch_bend_c, 3, 8192
3, 350560, Note_on_c, 3, 60, 95
3, 350640, Pitch_bend_c, 3, 8320
3, 350720, Pitch_bend_c, 3, 8448
3, 350720, Pitch_bend_c, 3, 8448
3, 350880, Pitch_bend_c, 3, 8448
3, 350880, Pitch_bend_c, 3, 8192
3, 350880, Note_off_c, 3, 60, 95
3, 350880, Pitch_bend_c, 3, 8192
3, 350880, Note_on_c, 3, 60, 95
3, 350940, Pitch_bend_c, 3, 8320
3, 351000, Pitch_bend_c, 3, 8448
3, 351000, Pitch_bend_c, 3, 8448
3, 351120, Pitch_bend_c, 3, 8448
3, 351120, Pitch_bend_c, 3, 8192
3, 351120, Note_off_c, 3, 60, 95
3, 351120, Pitch_bend_c, 3, 8192
3, 351120, Note_on_c, 3, 60, 95
3, 351180, Pitch_bend_c, 3, 8320
3, 351240, Pitch_bend_c, 3, 8448
3, 351240, Pitch_bend_c, 3, 8448
3, 351360, Pitch_bend_c, 3, 8448
3, 351360, Pitch_bend_c, 3, 8192
3, 351360, Note_off_c, 3, 60, 95
3, 351360, Note_on_c, 2, 61, 95
3, 352080, Note_off_c, 2, 61, 95
3, 352080, Note_on_c, 2, 62, 95
3, 352560, Note_off_c, 2, 62, 95
3, 352560, Note_on_c, 2, 63, 95
3, 353280, Note_off_c, 2, 63, 95
3, 359520, Note_on_c, 2, 60, 95
3, 360000, Note_off_c, 2, 60, 95
3, 360000, Note_on_c, 2, 63, 95
3, 360480, Note_off_c, 2, 63, 95
3, 360480, Note_on_c, 2, 60, 95
3, 360960, Note_off_c, 2, 60, 95
3, 360960, Note_on_c, 2, 66, 95
3, 361440, Note_off_c, 2, 66, 95
3, 361440, Note_on_c, 2, 60, 95
3, 362400, Note_off_c, 2, 60, 95
3, 363840, Note_on_c, 2, 61, 95
3, 364320, Note_off_c, 2, 61, 95
3, 364320, Note_on_c, 2, 62, 95
3, 364800, Note_off_c, 2, 62, 95
3, 364800, Pitch_bend_c, 3, 8192
3, 364800, Note_on_c, 3, 68, 95
3, 365040, Pitch_bend_c, 3, 8320
3, 365280, Pitch_bend_c, 3, 8448
3, 365280, Pitch_bend_c, 3, 8448
3, 365760, Pitch_bend_c, 3, 8448
3, 365760, Pitch_bend_c, 3, 8192
3, 365760, Note_off_c, 3, 68, 95
3, 365760, Note_on_c, 2, 66, 95
3, 366720, Note_off_c, 2, 66, 95
3, 366720, Note_on_c, 2, 63, 95
3, 367680, Note_off_c, 2, 63, 95
3, 369600, Pitch_bend_c, 3, 8192
3, 369600, Note_on_c, 3, 61, 95
3, 369840, Pitch_bend_c, 3, 8320
3, 370080, Pitch_bend_c, 3, 8448
3, 370080, Pitch_bend_c, 3, 8448
3, 370560, Pitch_bend_c, 3, 8448
3, 370560, Pitch_bend_c, 3, 8192
3, 370560, Note_off_c, 3, 61, 95
3, 370560, Note_on_c, 2, 58, 95
3, 371520, Note_off_c, 2, 58, 95
3, 371520, Note_on_c, 2, 57, 95
3, 372000, Note_off_c, 2, 57, 95
3, 372000, Note_on_c, 2, 56, 70
3, 372480, Note_off_c, 2, 56, 70
3, 372480, Note_on_c, 2, 54, 70
3, 373440, Note_off_c, 2, 54, 70
3, 381360, Note_on_c, 3, 64, 95
3, 381480, Pitch_bend_c, 3, 8448
3, 381600, Pitch_bend_c, 3, 8832
3, 381720, Pitch_bend_c, 3, 9216
3, 381840, Pitch_bend_c, 3, 9600
3, 381840, Pitch_bend_c, 3, 8192
3, 381840, Note_off_c, 3, 64, 95
3, 381840, Note_on_c, 2, 66, 95
3, 382320, Note_off_c, 2, 66, 95
3, 382320, Pitch_bend_c, 3, 8192
3, 382320, Note_on_c, 3, 67, 95
3, 382368, Pitch_bend_c, 3, 8320
3, 382416, Pitch_bend_c, 3, 8448
3, 382464, Pitch_bend_c, 3, 8576
3, 382512, Pitch_bend_c, 3, 8704
3, 382560, Pitch_bend_c, 3, 8832
3, 382560, Pitch_bend_c, 3, 8832
3, 382800, Pitch_bend_c, 3, 8832
3, 382800, Pitch_bend_c, 3, 8192
3, 382800, Note_off_c, 3, 67, 95
3, 382800, Note_on_c, 2, 67, 95
3, 383280, Note_off_c, 2, 67, 95
3, 383280, Note_on_c, 3, 61, 95
3, 383400, Pitch_bend_c, 3, 7936
3, 383520, Pitch_bend_c, 3, 7552
3, 383640, Pitch_bend_c, 3, 7168
3, 383760, Pitch_bend_c, 3, 6784
3, 383760, Pitch_bend_c, 3, 8192
3, 383760, Note_off_c, 3, 61, 95
3, 383760, Note_on_c, 2, 59, 95
3, 384480, Note_off_c, 2, 59, 95
3, 389280, Note_on_c, 2, 61, 95
3, 390240, Note_off_c, 2, 61, 95
3, 390240, Note_on_c, 2, 61, 95
3, 390560, Note_off_c, 2, 61, 95
3, 390560, Note_on_c, 2, 61, 95
3, 390880, Note_off_c, 2, 61, 95
3, 390880, Note_on_c, 2, 61, 95
3, 391200, Note_off_c, 2, 61, 95
3, 391200, Note_on_c, 2, 63, 95
3, 391440, Note_off_c, 2, 63, 95
3, 391440, Note_on_c, 2, 61, 95
3, 391920, Note_off_c, 2, 61, 95
3, 391920, Note_on_c, 3, 63, 95
3, 392040, Pitch_bend_c, 3, 7936
3, 392160, Pitch_bend_c, 3, 7552
3, 392280, Pitch_bend_c, 3, 7168
3, 392400, Pitch_bend_c, 3, 6784
3, 392400, Pitch_bend_c, 3, 8192
3, 392400, Note_off_c, 3, 63, 95
3, 392400, Note_on_c, 2, 61, 95
3, 392880, Note_off_c, 2, 61, 95
3, 396960, Note_on_c, 3, 66, 95
3, 397080, Pitch_bend_c, 3, 8704
3, 397200, Pitch_bend_c, 3, 9216
3, 397320, Pitch_bend_c, 3, 9728
3, 397440, Pitch_bend_c, 3, 10240
3, 397440, Pitch_bend_c, 3, 8192
3, 397440, Note_off_c, 3, 66, 95
3, 397440, Note_on_c, 2, 69, 95
3, 397920, Note_off_c, 2, 69, 95
3, 397920, Note_on_c, 2, 66, 95
3, 398240, Note_off_c, 2, 66, 95
3, 398240, Note_on_c, 2, 63, 95
3, 398560, Note_off_c, 2, 63, 95
3, 398560, Note_on_c, 2, 66, 95
3, 398880, Note_off_c, 2, 66, 95
3, 398880, Note_on_c, 2, 63, 95
3, 399360, Note_off_c, 2, 63, 95
3, 399360, Note_on_c, 3, 61, 95
3, 400320, Note_off_c, 3, 61, 95
3, 404640, Note_on_c, 2, 61, 95
3, 405120, Note_off_c, 2, 61, 95
3, 405120, Note_on_c, 2, 61, 95
3, 405360, Note_off_c, 2, 61, 95
3, 405360, Note_on_c, 2, 61, 95
3, 405600, Note_off_c, 2, 61, 95
3, 405600, Note_on_c, 2, 61, 95
3, 406080, Note_off_c, 2, 61, 95
3, 406080, Note_on_c, 2, 66, 95
3, 406400, Note_off_c, 2, 66, 95
3, 406400, Note_on_c, 2, 63, 95
3, 406720, Note_off_c, 2, 63, 95
3, 406720, Note_on_c, 3, 61, 95
3, 406880, Pitch_bend_c, 3, 7936
3, 407040, Pitch_bend_c, 3, 7552
3, 407040, Pitch_bend_c, 3, 8192
3, 407040, Note_off_c, 3, 61, 95
3, 407040, Note_on_c, 2, 60, 95
3, 407520, Note_off_c, 2, 60, 95
3, 411840, Note_on_c, 3, 61, 95
3, 411960, Pitch_bend_c, 3, 7680
3, 412080, Pitch_bend_c, 3, 7168
3, 412200, Pitch_bend_c, 3, 6656
3, 412320, Pitch_bend_c, 3, 6144
3, 412320, Pitch_bend_c, 3, 8192
3, 412320, Note_off_c, 3, 61, 95
3, 412320, Note_on_c, 2, 58, 95
3, 412800, Note_off_c, 2, 58, 95
3, 412800, Note_on_c, 2, 61, 95
3, 413280, Note_off_c, 2, 61, 95
3, 413280, Note_on_c, 2, 58, 95
3, 413760, Note_off_c, 2, 58, 95
3, 413760, Note_on_c, 3, 61, 95
3, 413880, Pitch_bend_c, 3, 7680
3, 414000, Pitch_bend_c, 3, 7168
3, 414120, Pitch_bend_c, 3, 6656
3, 414240, Pitch_bend_c, 3, 6144
3, 414240, Pitch_bend_c, 3, 8192
3, 414240, Note_off_c, 3, 61, 95
3, 414240, Note_on_c, 2, 58, 95
3, 414720, Note_off_c, 2, 58, 95
3, 414720, Note_on_c, 3, 63, 95
3, 414840, Pitch_bend_c, 3, 7424
3, 414960, Pitch_bend_c, 3, 6528
3, 415080, Pitch_bend_c, 3, 5632
3, 415200, Pitch_bend_c, 3, 4736
3, 415200, Pitch_bend_c, 3, 8192
3, 415200, Note_off_c, 3, 63, 95
3, 415200, Note_on_c, 2, 58, 95
3, 415680, Note_off_c, 2, 58, 95
3, 415680, Note_on_c, 2, 58, 95
3, 416160, Note_off_c, 2, 58, 95
3, 416160, Note_on_c, 2, 55, 95
3, 416640, Note_off_c, 2, 55, 95
3, 416640, Note_on_c, 2, 57, 95
3, 416960, Note_off_c, 2, 57, 95
3, 416960, Note_on_c, 2, 54, 95
3, 417280, Note_off_c, 2, 54, 95
3, 417280, Note_on_c, 2, 58, 95
3, 417600, Note_off_c, 2, 58, 95
3, 417600, Note_on_c, 2, 60, 95
3, 418080, Note_off_c, 2, 60, 95
3, 433440, Note_on_c, 2, 61, 95
3, 433680, Note_off_c, 2, 61, 95
3, 433680, Note_on_c, 2, 61, 95
3, 434400, Note_off_c, 2, 61, 95
3, 434400, Pitch_bend_c, 3, 8192
3, 434400, Note_on_c, 3, 61, 95
3, 434480, Pitch_bend_c, 3, 8320
3, 434560, Pitch_bend_c, 3, 8448
3, 434560, Pitch_bend_c, 3, 8448
3, 434720, Pitch_bend_c, 3, 8448
3, 434720, Pitch_bend_c, 3, 8192
3, 434720, Note_off_c, 3, 61, 95
3, 434720, Pitch_bend_c, 3, 8192
3, 434720, Note_on_c, 3, 61, 95
3, 434800, Pitch_bend_c, 3, 8320
3, 434880, Pitch_bend_c, 3, 8448
3, 434880, Pitch_bend_c, 3, 8448
3, 435040, Pitch_bend_c, 3, 8448
3, 435040, Pitch_bend_c, 3, 8192
3, 435040, Note_off_c, 3, 61, 95
3, 435040, Pitch_bend_c, 3, 8192
3, 435040, Note_on_c, 3, 61, 95
3, 435120, Pitch_bend_c, 3, 8320
3, 435200, Pitch_bend_c, 3, 8448
3, 435200, Pitch_bend_c, 3, 8448
3, 435360, Pitch_bend_c, 3, 8448
3, 435360, Pitch_bend_c, 3, 8192
3, 435360, Note_off_c, 3, 61, 95
3, 435360, Pitch_bend_c, 3, 8192
3, 435360, Note_on_c, 3, 61, 95
3, 435420, Pitch_bend_c, 3, 8320
3, 435480, Pitch_bend_c, 3, 8448
3, 435480, Pitch_bend_c, 3, 8448
3, 435600, Pitch_bend_c, 3, 8448
3, 435600, Pitch_bend_c, 3, 8192
3, 435600, Note_off_c, 3, 61, 95
3, 435600, Pitch_bend_c, 3, 8192
3, 435600, Note_on_c, 3, 61, 95
3, 435660, Pitch_bend_c, 3, 8320
3, 435720, Pitch_bend_c, 3, 8448
3, 435720, Pitch_bend_c, 3, 8448
3, 435840, Pitch_bend_c, 3, 8448
3, 435840, Pitch_bend_c, 3, 8192
3, 435840, Note_off_c, 3, 61, 95
3, 435840, Note_on_c, 2, 61, 95
3, 436560, Note_off_c, 2, 61, 95
3, 436560, Note_on_c, 2, 62, 95
3, 437040, Note_off_c, 2, 62, 95
3, 437040, Note_on_c, 2, 63, 95
3, 437760, Note_off_c, 2, 63, 95
3, 444000, Note_on_c, 2, 61, 95
3, 444480, Note_off_c, 2, 61, 95
3, 444480, Note_on_c, 2, 63, 95
3, 444960, Note_off_c, 2, 63, 95
3, 444960, Note_on_c, 2, 61, 95
3, 445440, Note_off_c, 2, 61, 95
3, 445440, Note_on_c, 2, 66, 95
3, 445920, Note_off_c, 2, 66, 95
3, 445920, Note_on_c, 2, 60, 95
3, 446880, Note_off_c, 2, 60, 95
3, 448320, Pitch_bend_c, 3, 8192
3, 448320, Note_on_c, 3, 68, 95
3, 448416, Pitch_bend_c, 3, 8320
3, 448512, Pitch_bend_c, 3, 8448
3, 448608, Pitch_bend_c, 3, 8576
3, 448704, Pitch_bend_c, 3, 8704
3, 448800, Pitch_bend_c, 3, 8832
3, 448800, Pitch_bend_c, 3, 8832
3, 449280, Pitch_bend_c, 3, 8832
3, 449280, Pitch_bend_c, 3, 8192
3, 449280, Note_off_c, 3, 68, 95
3, 449280, Note_on_c, 2, 63, 95
3, 449920, Note_off_c, 2, 63, 95
3, 449920, Note_on_c, 3, 68, 95
3, 450080, Pitch_bend_c, 3, 8832
3, 450240, Pitch_bend_c, 3, 9600
3, 450240, Pitch_bend_c, 3, 8192
3, 450240, Note_off_c, 3, 68, 95
3, 450240, Note_on_c, 2, 70, 95
3, 450560, Note_off_c, 2, 70, 95
3, 450560, Note_on_c, 2, 66, 95
3, 451200, Note_off_c, 2, 66, 95
3, 451200, Note_on_c, 3, 61, 95
3, 451320, Pitch_bend_c, 3, 7680
3, 451440, Pitch_bend_c, 3, 7168
3, 451560, Pitch_bend_c, 3, 6656
3, 451680, Pitch_bend_c, 3, 6144
3, 451680, Pitch_bend_c, 3, 8192
3, 451680, Note_off_c, 3, 61, 95
3, 451680, Note_on_c, 2, 58, 95
3, 452160, Note_off_c, 2, 58, 95
3, 460320, Pitch_bend_c, 3, 8192
3, 460320, Note_on_c, 3, 61, 95
3, 460356, Pitch_bend_c, 3, 8320
3, 460392, Pitch_bend_c, 3, 8448
3, 460428, Pitch_bend_c, 3, 8576
3, 460464, Pitch_bend_c, 3, 8704
3, 460500, Pitch_bend_c, 3, 8832
3, 460536, Pitch_bend_c, 3, 8960
3, 460572, Pitch_bend_c, 3, 9088
3, 460608, Pitch_bend_c, 3, 9216
3, 460644, Pitch_bend_c, 3, 9344
3, 460680, Pitch_bend_c, 3, 9472
3, 460716, Pitch_bend_c, 3, 9600
3, 460752, Pitch_bend_c, 3, 9728
3, 460788, Pitch_bend_c, 3, 9856
3, 460800, Pitch_bend_c, 3, 9856
3, 461280, Pitch_bend_c, 3, 9856
3, 461280, Pitch_bend_c, 3, 8192
3, 461280, Note_off_c, 3, 61, 95
3, 461280, Pitch_bend_c, 3, 8192
3, 461280, Note_on_c, 3, 61, 95
3, 461326, Pitch_bend_c, 3, 8320
3, 461372, Pitch_bend_c, 3, 8448
3, 461418, Pitch_bend_c, 3, 8576
3, 461464, Pitch_bend_c, 3, 8704
3, 461510, Pitch_bend_c, 3, 8832
3, 461556, Pitch_bend_c, 3, 8960
3, 461602, Pitch_bend_c, 3, 9088
3, 461648, Pitch_bend_c, 3, 9216
3, 461694, Pitch_bend_c, 3, 9344
3, 461740, Pitch_bend_c, 3, 9472
3, 461786, Pitch_bend_c, 3, 9600
3, 461832, Pitch_bend_c, 3, 9728
3, 461878, Pitch_bend_c, 3, 9856
3, 461880, Pitch_bend_c, 3, 9856
3, 462480, Pitch_bend_c, 3, 9856
3, 462526, Pitch_bend_c, 3, 9728
3, 462572, Pitch_bend_c, 3, 9600
3, 462618, Pitch_bend_c, 3, 9472
3, 462664, Pitch_bend_c, 3, 9344
3, 462710, Pitch_bend_c, 3, 9216
3, 462756, Pitch_bend_c, 3, 9088
3, 462802, Pitch_bend_c, 3, 8960
3, 462848, Pitch_bend_c, 3, 8832
3, 462894, Pitch_bend_c, 3, 8704
3, 462940, Pitch_bend_c, 3, 8576
3, 462986, Pitch_bend_c, 3, 8448
3, 463032, Pitch_bend_c, 3, 8320
3, 463078, Pitch_bend_c, 3, 8192
3, 463080, Pitch_bend_c, 3, 8192
3, 463680, Pitch_bend_c, 3, 8192
3, 463680, Pitch_bend_c, 3, 8192
3, 463680, Note_off_c, 3, 61, 95
3, 464640, Pitch_bend_c, 3, 8192
3, 464640, Note_on_c, 3, 61, 95
3, 464661, Pitch_bend_c, 3, 8320
3, 464682, Pitch_bend_c, 3, 8448
3, 464703, Pitch_bend_c, 3, 8576
3, 464724, Pitch_bend_c, 3, 8704
3, 464745, Pitch_bend_c, 3, 8832
3, 464766, Pitch_bend_c, 3, 8960
3, 464787, Pitch_bend_c, 3, 9088
3, 464808, Pitch_bend_c, 3, 9216
3, 464829, Pitch_bend_c, 3, 9344
3, 464850, Pitch_bend_c, 3, 9472
3, 464871, Pitch_bend_c, 3, 9600
3, 464880, Pitch_bend_c, 3, 9600
3, 465120, Pitch_bend_c, 3, 9600
3, 465120, Pitch_bend_c, 3, 8192
3, 465120, Note_off_c, 3, 61, 95
3, 465120, Pitch_bend_c, 3, 9600
3, 465120, Note_on_c, 3, 61, 95
3, 466080, Pitch_bend_c, 3, 9600
3, 466080, Pitch_bend_c, 3, 8192
3, 466080, Note_off_c, 3, 61, 95
3, 466080, Pitch_bend_c, 3, 9600
3, 466080, Note_on_c, 3, 61, 95
3, 467040, Pitch_bend_c, 3, 9600
3, 467040, Pitch_bend_c, 3, 8192
3, 467040, Note_off_c, 3, 61, 95
3, 467040, Note_on_c, 2, 58, 95
3, 467520, Note_off_c, 2, 58, 95
3, 467520, Pitch_bend_c, 3, 8192
3, 467520, Note_on_c, 3, 61, 95
3, 467563, Pitch_bend_c, 3, 8320
3, 467606, Pitch_bend_c, 3, 8448
3, 467649, Pitch_bend_c, 3, 8576
3, 467692, Pitch_bend_c, 3, 8704
3, 467735, Pitch_bend_c, 3, 8832
3, 467778, Pitch_bend_c, 3, 8960
3, 467821, Pitch_bend_c, 3, 9088
3, 467864, Pitch_bend_c, 3, 9216
3, 467907, Pitch_bend_c, 3, 9344
3, 467950, Pitch_bend_c, 3, 9472
3, 467993, Pitch_bend_c, 3, 9600
3, 468000, Pitch_bend_c, 3, 9600
3, 468480, Pitch_bend_c, 3, 9600
3, 468480, Pitch_bend_c, 3, 8192
3, 468480, Note_off_c, 3, 61, 95
3, 468480, Pitch_bend_c, 3, 9600
3, 468480, Note_on_c, 3, 61, 95
3, 468560, Pitch_bend_c, 3, 9600
3, 468567, Pitch_bend_c, 3, 9472
3, 468574, Pitch_bend_c, 3, 9344
3, 468581, Pitch_bend_c, 3, 9216
3, 468588, Pitch_bend_c, 3, 9088
3, 468595, Pitch_bend_c, 3, 8960
3, 468602, Pitch_bend_c, 3, 8832
3, 468609, Pitch_bend_c, 3, 8704
3, 468616, Pitch_bend_c, 3, 8576
3, 468623, Pitch_bend_c, 3, 8448
3, 468630, Pitch_bend_c, 3, 8320
3, 468637, Pitch_bend_c, 3, 8192
3, 468640, Pitch_bend_c, 3, 8192
3, 468720, Pitch_bend_c, 3, 8192
3, 468720, Pitch_bend_c, 3, 8192
3, 468720, Note_off_c, 3, 61, 95
3, 468720, Note_on_c, 2, 61, 95
3, 468960, Note_off_c, 2, 61, 95
3, 468960, Note_on_c, 2, 58, 70
3, 469440, Note_off_c, 2, 58, 70
3, 472320, Note_on_c, 2, 61, 95
3, 472800, Note_off_c, 2, 61, 95
3, 472800, Pitch_bend_c, 3, 8448
3, 472800, Note_on_c, 3, 61, 95
3, 473760, Pitch_bend_c, 3, 8448
3, 473760, Pitch_bend_c, 3, 8192
3, 473760, Note_off_c, 3, 61, 95
3, 473760, Pitch_bend_c, 3, 8192
3, 473760, Note_on_c, 3, 61, 95
3, 473856, Pitch_bend_c, 3, 8320
3, 473952, Pitch_bend_c, 3, 8448
3, 474048, Pitch_bend_c, 3, 8576
3, 474144, Pitch_bend_c, 3, 8704
3, 474240, Pitch_bend_c, 3, 8832
3, 474240, Pitch_bend_c, 3, 8832
3, 474720, Pitch_bend_c, 3, 8832
3, 474720, Pitch_bend_c, 3, 8192
3, 474720, Note_off_c, 3, 61, 95
3, 474720, Pitch_bend_c, 3, 8192
3, 474720, Note_on_c, 3, 61, 95
3, 474750, Pitch_bend_c, 3, 8320
3, 474780, Pitch_bend_c, 3, 8448
3, 474810, Pitch_bend_c, 3, 8576
3, 474840, Pitch_bend_c, 3, 8704
3, 474870, Pitch_bend_c, 3, 8832
3, 474900, Pitch_bend_c, 3, 8960
3, 474930, Pitch_bend_c, 3, 9088
3, 474960, Pitch_bend_c, 3, 9216
3, 474960, Pitch_bend_c, 3, 9216
3, 475200, Pitch_bend_c, 3, 9216
3, 475200, Pitch_bend_c, 3, 8192
3, 475200, Note_off_c, 3, 61, 95
3, 475200, Pitch_bend_c, 3, 8192
3, 475200, Note_on_c, 3, 61, 95
3, 475243, Pitch_bend_c, 3, 8320
3, 475286, Pitch_bend_c, 3, 8448
3, 475329, Pitch_bend_c, 3, 8576
3, 475372, Pitch_bend_c, 3, 8704
3, 475415, Pitch_bend_c, 3, 8832
3, 475458, Pitch_bend_c, 3, 8960
3, 475501, Pitch_bend_c, 3, 9088
3, 475544, Pitch_bend_c, 3, 9216
3, 475587, Pitch_bend_c, 3, 9344
3, 475630, Pitch_bend_c, 3, 9472
3, 475673, Pitch_bend_c, 3, 9600
3, 475680, Pitch_bend_c, 3, 9600
3, 476160, Pitch_bend_c, 3, 9600
3, 476160, Pitch_bend_c, 3, 8192
3, 476160, Note_off_c, 3, 61, 95
3, 476160, Pitch_bend_c, 3, 8192
3, 476160, Note_on_c, 3, 67, 95
3, 476192, Pitch_bend_c, 3, 8320
3, 476224, Pitch_bend_c, 3, 8448
3, 476256, Pitch_bend_c, 3, 8576
3, 476288, Pitch_bend_c, 3, 8704
3, 476320, Pitch_bend_c, 3, 8832
3, 476320, Pitch_bend_c, 3, 8832
3, 476480, Pitch_bend_c, 3, 8832
3, 476480, Pitch_bend_c, 3, 8192
3, 476480, Note_off_c, 3, 67, 95
3, 476480, Note_on_c, 2, 66, 95
3, 476800, Note_off_c, 2, 66, 95
3, 476800, Note_on_c, 2, 63, 70
3, 478080, Note_off_c, 2, 63, 70
3, 479520, Note_on_c, 2, 63, 95
3, 480000, Note_off_c, 2, 63, 95
3, 480000, Note_on_c, 3, 67, 95
3, 480120, Pitch_bend_c, 3, 8192
3, 480240, Pitch_bend_c, 3, 8192
3, 480360, Pitch_bend_c, 3, 8192
3, 480480, Pitch_bend_c, 3, 8192
3, 480480, Pitch_bend_c, 3, 8192
3, 480480, Note_off_c, 3, 67, 95
3, 480480, Note_on_c, 2, 67, 95
3, 481440, Note_off_c, 2, 67, 95
3, 481440, Note_on_c, 2, 67, 95
3, 482400, Note_off_c, 2, 67, 95
3, 482400, Note_on_c, 2, 65, 95
3, 482880, Note_off_c, 2, 65, 95
3, 482880, Note_on_c, 2, 63, 95
3, 484320, Note_off_c, 2, 63, 95
3, 487680, Note_on_c, 2, 61, 95
3, 488160, Note_off_c, 2, 61, 95
3, 488160, Note_on_c, 2, 61, 95
3, 489120, Note_off_c, 2, 61, 95
3, 489120, Pitch_bend_c, 3, 8192
3, 489120, Note_on_c, 3, 61, 95
3, 489163, Pitch_bend_c, 3, 8320
3, 489206, Pitch_bend_c, 3, 8448
3, 489249, Pitch_bend_c, 3, 8576
3, 489292, Pitch_bend_c, 3, 8704
3, 489335, Pitch_bend_c, 3, 8832
3, 489378, Pitch_bend_c, 3, 8960
3, 489421, Pitch_bend_c, 3, 9088
3, 489464, Pitch_bend_c, 3, 9216
3, 489507, Pitch_bend_c, 3, 9344
3, 489550, Pitch_bend_c, 3, 9472
3, 489593, Pitch_bend_c, 3, 9600
3, 489600, Pitch_bend_c, 3, 9600
3, 490080, Pitch_bend_c, 3, 9600
3, 490080, Pitch_bend_c, 3, 8192
3, 490080, Note_off_c, 3, 61, 95
3, 490080, Pitch_bend_c, 3, 8192
3, 490080, Note_on_c, 3, 68, 95
3, 490090, Pitch_bend_c, 3, 8320
3, 490100, Pitch_bend_c, 3, 8448
3, 490110, Pitch_bend_c, 3, 8576
3, 490120, Pitch_bend_c, 3, 8704
3, 490130, Pitch_bend_c, 3, 8832
3, 490140, Pitch_bend_c, 3, 8960
3, 490150, Pitch_bend_c, 3, 9088
3, 490160, Pitch_bend_c, 3, 9216
3, 490170, Pitch_bend_c, 3, 9344
3, 490180, Pitch_bend_c, 3, 9472
3, 490190, Pitch_bend_c, 3, 9600
3, 490200, Pitch_bend_c, 3, 9600
3, 490320, Pitch_bend_c, 3, 9600
3, 490330, Pitch_bend_c, 3, 9472
3, 490340, Pitch_bend_c, 3, 9344
3, 490350, Pitch_bend_c, 3, 9216
3, 490360, Pitch_bend_c, 3, 9088
3, 490370, Pitch_bend_c, 3, 8960
3, 490380, Pitch_bend_c, 3, 8832
3, 490390, Pitch_bend_c, 3, 8704
3, 490400, Pitch_bend_c, 3, 8576
3, 490410, Pitch_bend_c, 3, 8448
3, 490420, Pitch_bend_c, 3, 8320
3, 490430, Pitch_bend_c, 3, 8192
3, 490440, Pitch_bend_c, 3, 8192
3, 490560, Pitch_bend_c, 3, 8192
3, 490560, Pitch_bend_c, 3, 8192
3, 490560, Note_off_c, 3, 68, 95
3, 490560, Note_on_c, 2, 66, 95
3, 491040, Note_off_c, 2, 66, 95
3, 491040, Note_on_c, 2, 63, 95
3, 492000, Note_off_c, 2, 63, 95
3, 953520, Note_on_c, 2, 57, 95
3, 953760, Note_off_c, 2, 57, 95
3, 953760, Note_on_c, 2, 58, 95
3, 954000, Note_off_c, 2, 58, 95
3, 954000, Note_on_c, 2, 58, 95
3, 954240, Note_off_c, 2, 58, 95
3, 954240, Note_on_c, 3, 63, 95
3, 954360, Pitch_bend_c, 3, 8832
3, 954480, Pitch_bend_c, 3, 9600
3, 954480, Pitch_bend_c, 3, 8192
3, 954480, Note_off_c, 3, 63, 95
3, 954480, Note_on_c, 2, 65, 95
3, 954960, Note_off_c, 2, 65, 95
3, 954960, Note_on_c, 2, 61, 95
3, 955440, Note_off_c, 2, 61, 95
3, 955440, Note_on_c, 3, 63, 95
3, 955560, Pitch_bend_c, 3, 7552
3, 955680, Pitch_bend_c, 3, 6784
3, 955680, Pitch_bend_c, 3, 8192
3, 955680, Note_off_c, 3, 63, 95
3, 955680, Note_on_c, 3, 61, 95
3, 955800, Pitch_bend_c, 3, 7168
3, 955920, Pitch_bend_c, 3, 6144
3, 955920, Pitch_bend_c, 3, 8192
3, 955920, Note_off_c, 3, 61, 95
3, 955920, Note_on_c, 2, 58, 95
3, 956640, Note_off_c, 2, 58, 95
3, 968160, Note_on_c, 2, 61, 95
3, 969120, Note_off_c, 2, 61, 95
3, 969120, Note_on_c, 2, 58, 95
3, 969600, Note_off_c, 2, 58, 95
3, 969600, Note_on_c, 2, 61, 95
3, 970080, Note_off_c, 2, 61, 95
3, 970080, Note_on_c, 2, 58, 95
3, 970560, Note_off_c, 2, 58, 95
3, 970560, Note_on_c, 3, 61, 95
3, 970680, Pitch_bend_c, 3, 8448
3, 970800, Pitch_bend_c, 3, 8832
3, 970920, Pitch_bend_c, 3, 9216
3, 971040, Pitch_bend_c, 3, 9600
3, 971040, Pitch_bend_c, 3, 8192
3, 971040, Note_off_c, 3, 61, 95
3, 971040, Note_on_c, 2, 63, 95
3, 972960, Note_off_c, 2, 63, 95
3, 972960, Note_on_c, 2, 61, 95
3, 973440, Note_off_c, 2, 61, 95
3, 973440, Note_on_c, 3, 58, 95
3, 973560, Pitch_bend_c, 3, 7552
3, 973680, Pitch_bend_c, 3, 6784
3, 973680, Pitch_bend_c, 3, 8192
3, 973680, Note_off_c, 3, 58, 95
3, 973680, Note_on_c, 3, 56, 95
3, 973800, Pitch_bend_c, 3, 7552
3, 973920, Pitch_bend_c, 3, 6784
3, 973920, Pitch_bend_c, 3, 8192
3, 973920, Note_off_c, 3, 56, 95
3, 973920, Note_on_c, 2, 54, 95
3, 974880, Note_off_c, 2, 54, 95
3, 984480, Pitch_bend_c, 3, 8192
3, 984480, Note_on_c, 3, 65, 95
3, 984540, Pitch_bend_c, 3, 8320
3, 984600, Pitch_bend_c, 3, 8448
3, 984600, Pitch_bend_c, 3, 8448
3, 984720, Pitch_bend_c, 3, 8448
3, 984720, Pitch_bend_c, 3, 8192
3, 984720, Note_off_c, 3, 65, 95
3, 984720, Note_on_c, 2, 63, 95
3, 985080, Note_off_c, 2, 63, 95
3, 985080, Pitch_bend_c, 3, 8192
3, 985080, Note_on_c, 3, 65, 95
3, 985170, Pitch_bend_c, 3, 8320
3, 985260, Pitch_bend_c, 3, 8448
3, 985260, Pitch_bend_c, 3, 8448
3, 985440, Pitch_bend_c, 3, 8448
3, 985440, Pitch_bend_c, 3, 8192
3, 985440, Note_off_c, 3, 65, 95
3, 985440, Note_on_c, 2, 63, 95
3, 985800, Note_off_c, 2, 63, 95
3, 985800, Note_on_c, 2, 63, 95
3, 986160, Note_off_c, 2, 63, 95
3, 986160, Pitch_bend_c, 3, 8192
3, 986160, Note_on_c, 3, 65, 95
3, 986340, Pitch_bend_c, 3, 8320
3, 986520, Pitch_bend_c, 3, 8448
3, 986520, Pitch_bend_c, 3, 8448
3, 986880, Pitch_bend_c, 3, 8448
3, 986880, Pitch_bend_c, 3, 8192
3, 986880, Note_off_c, 3, 65, 95
3, 986880, Pitch_bend_c, 3, 8192
3, 986880, Note_on_c, 3, 65, 95
3, 987000, Pitch_bend_c, 3, 8320
3, 987120, Pitch_bend_c, 3, 8448
3, 987120, Pitch_bend_c, 3, 8448
3, 987360, Pitch_bend_c, 3, 8448
3, 987360, Pitch_bend_c, 3, 8192
3, 987360, Note_off_c, 3, 65, 95
3, 987360, Note_on_c, 2, 63, 95
3, 987840, Note_off_c, 2, 63, 95
3, 987840, Note_on_c, 3, 61, 95
3, 987960, Pitch_bend_c, 3, 7680
3, 988080, Pitch_bend_c, 3, 7168
3, 988200, Pitch_bend_c, 3, 6656
3, 988320, Pitch_bend_c, 3, 6144
3, 988320, Pitch_bend_c, 3, 8192
3, 988320, Note_off_c, 3, 61, 95
3, 988320, Note_on_c, 3, 58, 95
3, 988440, Pitch_bend_c, 3, 7680
3, 988560, Pitch_bend_c, 3, 7168
3, 988680, Pitch_bend_c, 3, 6656
3, 988800, Pitch_bend_c, 3, 6144
3, 988800, Pitch_bend_c, 3, 8192
3, 988800, Note_off_c, 3, 58, 95
3, 988800, Note_on_c, 2, 55, 95
3, 989280, Note_off_c, 2, 55, 95
3, 1000800, Pitch_bend_c, 3, 8192
3, 1000800, Note_on_c, 3, 69, 95
3, 1000896, Pitch_bend_c, 3, 8320
3, 1000992, Pitch_bend_c, 3, 8448
3, 1001088, Pitch_bend_c, 3, 8576
3, 1001184, Pitch_bend_c, 3, 8704
3, 1001280, Pitch_bend_c, 3, 8832
3, 1001280, Pitch_bend_c, 3, 8832
3, 1001760, Pitch_bend_c, 3, 8832
3, 1001760, Pitch_bend_c, 3, 8192
3, 1001760, Note_off_c, 3, 69, 95
3, 1001760, Pitch_bend_c, 3, 8192
3, 1001760, Note_on_c, 3, 69, 95
3, 1001880, Pitch_bend_c, 3, 8320
3, 1002000, Pitch_bend_c, 3, 8448
3, 1002000, Pitch_bend_c, 3, 8448
3, 1002240, Pitch_bend_c, 3, 8448
3, 1002240, Pitch_bend_c, 3, 8192
3, 1002240, Note_off_c, 3, 69, 95
3, 1002240, Note_on_c, 2, 69, 95
3, 1002560, Note_off_c, 2, 69, 95
3, 1002560, Note_on_c, 2, 68, 95
3, 1002880, Note_off_c, 2, 68, 95
3, 1002880, Note_on_c, 2, 68, 95
3, 1003200, Note_off_c, 2, 68, 95
3, 1003200, Note_on_c, 2, 68, 95
3, 1003520, Note_off_c, 2, 68, 95
3, 1003520, Note_on_c, 2, 66, 95
3, 1003840, Note_off_c, 2, 66, 95
3, 1003840, Note_on_c, 2, 68, 95
3, 1004160, Note_off_c, 2, 68, 95
3, 1004160, Note_on_c, 2, 66, 95
3, 1005120, Note_off_c, 2, 66, 95
3, 1005120, Note_on_c, 2, 61, 95
3, 1005600, Note_off_c, 2, 61, 95
3, 1005600, Note_on_c, 3, 58, 95
3, 1005720, Pitch_bend_c, 3, 7168
3, 1005840, Pitch_bend_c, 3, 6144
3, 1005840, Pitch_bend_c, 3, 8192
3, 1005840, Note_off_c, 3, 58, 95
3, 1005840, Note_on_c, 2, 55, 95
3, 1006560, Note_off_c, 2, 55, 95
3, 1016160, Note_on_c, 2, 61, 95
3, 1016640, Note_off_c, 2, 61, 95
3, 1016640, Note_on_c, 2, 61, 95
3, 1016960, Note_off_c, 2, 61, 95
3, 1016960, Note_on_c, 2, 58, 95
3, 1017280, Note_off_c, 2, 58, 95
3, 1017280, Note_on_c, 2, 61, 95
3, 1017600, Note_off_c, 2, 61, 95
3, 1017600, Pitch_bend_c, 3, 8192
3, 1017600, Note_on_c, 3, 61, 95
3, 1017643, Pitch_bend_c, 3, 8320
3, 1017686, Pitch_bend_c, 3, 8448
3, 1017729, Pitch_bend_c, 3, 8576
3, 1017772, Pitch_bend_c, 3, 8704
3, 1017815, Pitch_bend_c, 3, 8832
3, 1017858, Pitch_bend_c, 3, 8960
3, 1017901, Pitch_bend_c, 3, 9088
3, 1017944, Pitch_bend_c, 3, 9216
3, 1017987, Pitch_bend_c, 3, 9344
3, 1018030, Pitch_bend_c, 3, 9472
3, 1018073, Pitch_bend_c, 3, 9600
3, 1018080, Pitch_bend_c, 3, 9600
3, 1018560, Pitch_bend_c, 3, 9600
3, 1018560, Pitch_bend_c, 3, 8192
3, 1018560, Note_off_c, 3, 61, 95
3, 1018560, Note_on_c, 2, 61, 95
3, 1018880, Note_off_c, 2, 61, 95
3, 1018880, Note_on_c, 2, 58, 95
3, 1019200, Note_off_c, 2, 58, 95
3, 1019200, Note_on_c, 2, 61, 95
3, 1019520, Note_off_c, 2, 61, 95
3, 1019520, Note_on_c, 2, 58, 95
3, 1019840, Note_off_c, 2, 58, 95
3, 1019840, Note_on_c, 2, 61, 95
3, 1020160, Note_off_c, 2, 61, 95
3, 1020160, Note_on_c, 2, 58, 95
3, 1020480, Note_off_c, 2, 58, 95
3, 1020480, Note_on_c, 2, 61, 95
3, 1020960, Note_off_c, 2, 61, 95
3, 1020960, Note_on_c, 3, 58, 95
3, 1021080, Pitch_bend_c, 3, 7168
3, 1021200, Pitch_bend_c, 3, 6144
3, 1021200, Pitch_bend_c, 3, 8192
3, 1021200, Note_off_c, 3, 58, 95
3, 1021200, Note_on_c, 2, 55, 95
3, 1021680, Note_off_c, 2, 55, 95
3, 1030200, Note_on_c, 2, 63, 95
3, 1030560, Note_off_c, 2, 63, 95
3, 1030560, Note_on_c, 2, 66, 95
3, 1030920, Note_off_c, 2, 66, 95
3, 1030920, Note_on_c, 2, 63, 95
3, 1031280, Note_off_c, 2, 63, 95
3, 1031280, Pitch_bend_c, 3, 8192
3, 1031280, Note_on_c, 3, 66, 95
3, 1031400, Pitch_bend_c, 3, 8320
3, 1031520, Pitch_bend_c, 3, 8448
3, 1031520, Pitch_bend_c, 3, 8448
3, 1031760, Pitch_bend_c, 3, 8448
3, 1031760, Pitch_bend_c, 3, 8192
3, 1031760, Note_off_c, 3, 66, 95
3, 1031760, Note_on_c, 2, 63, 95
3, 1032240, Note_off_c, 2, 63, 95
3, 1032240, Note_on_c, 3, 61, 95
3, 1032360, Pitch_bend_c, 3, 7680
3, 1032480, Pitch_bend_c, 3, 7168
3, 1032600, Pitch_bend_c, 3, 6656
3, 1032720, Pitch_bend_c, 3, 6144
3, 1032720, Pitch_bend_c, 3, 8192
3, 1032720, Note_off_c, 3, 61, 95
3, 1032720, Note_on_c, 2, 58, 95
3, 1033200, Note_off_c, 2, 58, 95
3, 1038000, Note_on_c, 2, 61, 95
3, 1038240, Note_off_c, 2, 61, 95
3, 1038240, Note_on_c, 2, 61, 95
3, 1038480, Note_off_c, 2, 61, 95
3, 1038480, Note_on_c, 2, 61, 95
3, 1038720, Note_off_c, 2, 61, 95
3, 1038720, Note_on_c, 2, 61, 95
3, 1039200, Note_off_c, 2, 61, 95
3, 1039200, Note_on_c, 2, 63, 95
3, 1039680, Note_off_c, 2, 63, 95
3, 1039680, Note_on_c, 3, 61, 95
3, 1039800, Pitch_bend_c, 3, 8448
3, 1039920, Pitch_bend_c, 3, 8832
3, 1040040, Pitch_bend_c, 3, 9216
3, 1040160, Pitch_bend_c, 3, 9600
3, 1040160, Pitch_bend_c, 3, 8192
3, 1040160, Note_off_c, 3, 61, 95
3, 1040160, Note_on_c, 2, 63, 95
3, 1040640, Note_off_c, 2, 63, 95
3, 1045440, Note_on_c, 2, 61, 95
3, 1045680, Note_off_c, 2, 61, 95
3, 1045680, Note_on_c, 2, 58, 95
3, 1045920, Note_off_c, 2, 58, 95
3, 1045920, Note_on_c, 3, 61, 95
3, 1046040, Pitch_bend_c, 3, 7680
3, 1046160, Pitch_bend_c, 3, 7168
3, 1046280, Pitch_bend_c, 3, 6656
3, 1046400, Pitch_bend_c, 3, 6144
3, 1046400, Pitch_bend_c, 3, 8192
3, 1046400, Note_off_c, 3, 61, 95
3, 1046400, Note_on_c, 2, 58, 95
3, 1046880, Note_off_c, 2, 58, 95
3, 1046880, Note_on_c, 2, 61, 95
3, 1047120, Note_off_c, 2, 61, 95
3, 1047120, Note_on_c, 2, 58, 95
3, 1047360, Note_off_c, 2, 58, 95
3, 1047360, Note_on_c, 3, 61, 95
3, 1047480, Pitch_bend_c, 3, 7680
3, 1047600, Pitch_bend_c, 3, 7168
3, 1047720, Pitch_bend_c, 3, 6656
3, 1047840, Pitch_bend_c, 3, 6144
3, 1047840, Pitch_bend_c, 3, 8192
3, 1047840, Note_off_c, 3, 61, 95
3, 1047840, Note_on_c, 2, 58, 95
3, 1048320, Note_off_c, 2, 58, 95
3, 1048320, Note_on_c, 2, 61, 95
3, 1048560, Note_off_c, 2, 61, 95
3, 1048560, Note_on_c, 2, 58, 95
3, 1048800, Note_off_c, 2, 58, 95
3, 1048800, Note_on_c, 3, 61, 95
3, 1048920, Pitch_bend_c, 3, 7680
3, 1049040, Pitch_bend_c, 3, 7168
3, 1049160, Pitch_bend_c, 3, 6656
3, 1049280, Pitch_bend_c, 3, 6144
3, 1049280, Pitch_bend_c, 3, 8192
3, 1049280, Note_off_c, 3, 61, 95
3, 1049280, Note_on_c, 2, 58, 95
3, 1049760, Note_off_c, 2, 58, 95
3, 1049760, Note_on_c, 2, 58, 95
3, 1050480, Note_off_c, 2, 58, 95
3, 1050480, Note_on_c, 3, 56, 95
3, 1050600, Pitch_bend_c, 3, 8064
3, 1050720, Pitch_bend_c, 3, 7936
3, 1050840, Pitch_bend_c, 3, 7680
3, 1050960, Pitch_bend_c, 3, 7552
3, 1050960, Pitch_bend_c, 3, 8192
3, 1050960, Note_off_c, 3, 56, 95
3, 1050960, Note_on_c, 2, 55, 95
3, 1051440, Note_off_c, 2, 55, 95
3, 1061280, Note_on_c, 2, 66, 95
3, 1061760, Note_off_c, 2, 66, 95
3, 1061760, Note_on_c, 2, 65, 95
3, 1062240, Note_off_c, 2, 65, 95
3, 1062240, Note_on_c, 2, 63, 95
3, 1062720, Note_off_c, 2, 63, 95
3, 1067520, Note_on_c, 2, 61, 95
3, 1068000, Note_off_c, 2, 61, 95
3, 1068000, Pitch_bend_c, 3, 8192
3, 1068000, Note_on_c, 3, 61, 95
3, 1068120, Pitch_bend_c, 3, 8320
3, 1068240, Pitch_bend_c, 3, 8448
3, 1068240, Pitch_bend_c, 3, 8448
3, 1068480, Pitch_bend_c, 3, 8448
3, 1068480, Pitch_bend_c, 3, 8192
3, 1068480, Note_off_c, 3, 61, 95
3, 1068480, Pitch_bend_c, 3, 8192
3, 1068480, Note_on_c, 3, 61, 95
3, 1068570, Pitch_bend_c, 3, 8320
3, 1068660, Pitch_bend_c, 3, 8448
3, 1068660, Pitch_bend_c, 3, 8448
3, 1068840, Pitch_bend_c, 3, 8448
3, 1068840, Pitch_bend_c, 3, 8192
3, 1068840, Note_off_c, 3, 61, 95
3, 1068840, Pitch_bend_c, 3, 8192
3, 1068840, Note_on_c, 3, 61, 95
3, 1068960, Pitch_bend_c, 3, 8320
3, 1069080, Pitch_bend_c, 3, 8448
3, 1069080, Pitch_bend_c, 3, 8448
3, 1069320, Pitch_bend_c, 3, 8448
3, 1069320, Pitch_bend_c, 3, 8192
3, 1069320, Note_off_c, 3, 61, 95
3, 1069320, Note_on_c, 2, 66, 95
3, 1069960, Note_off_c, 2, 66, 95
3, 1069960, Pitch_bend_c, 3, 8192
3, 1069960, Note_on_c, 3, 64, 95
3, 1070000, Pitch_bend_c, 3, 8320
3, 1070040, Pitch_bend_c, 3, 8448
3, 1070080, Pitch_bend_c, 3, 8576
3, 1070120, Pitch_bend_c, 3, 8704
3, 1070160, Pitch_bend_c, 3, 8832
3, 1070200, Pitch_bend_c, 3, 8960
3, 1070240, Pitch_bend_c, 3, 9088
3, 1070280, Pitch_bend_c, 3, 9216
3, 1070280, Pitch_bend_c, 3, 9216
3, 1070600, Pitch_bend_c, 3, 9216
3, 1070600, Pitch_bend_c, 3, 8192
3, 1070600, Note_off_c, 3, 64, 95
3, 1070600, Note_on_c, 2, 61, 95
3, 1071240, Note_off_c, 2, 61, 95
3, 1077360, Note_on_c, 2, 66, 95
3, 1077840, Note_off_c, 2, 66, 95
3, 1077840, Pitch_bend_c, 3, 8192
3, 1077840, Note_on_c, 3, 68, 95
3, 1078020, Pitch_bend_c, 3, 8320
3, 1078200, Pitch_bend_c, 3, 8448
3, 1078200, Pitch_bend_c, 3, 8448
3, 1078560, Pitch_bend_c, 3, 8448
3, 1078560, Pitch_bend_c, 3, 8192
3, 1078560, Note_off_c, 3, 68, 95
3, 1078560, Note_on_c, 2, 66, 95
3, 1079040, Note_off_c, 2, 66, 95
3, 1079040, Note_on_c, 2, 63, 95
3, 1079520, Note_off_c, 2, 63, 95
3, 1079520, Note_on_c, 2, 60, 95
3, 1080480, Note_off_c, 2, 60, 95
3, 1080960, Note_on_c, 3, 68, 95
3, 1081120, Pitch_bend_c, 3, 8192
3, 1081280, Pitch_bend_c, 3, 8320
3, 1081440, Pitch_bend_c, 3, 8192
3, 1081600, Pitch_bend_c, 3, 8320
3, 1081680, Pitch_bend_c, 3, 8192
3, 1081680, Pitch_bend_c, 3, 8320
3, 1081680, Pitch_bend_c, 3, 8192
3, 1081680, Note_off_c, 3, 68, 95
3, 1081680, Note_on_c, 2, 66, 95
3, 1081920, Note_off_c, 2, 66, 95
3, 1081920, Note_on_c, 2, 63, 95
3, 1082880, Note_off_c, 2, 63, 95
3, 1082880, Pitch_bend_c, 3, 8192
3, 1082880, Note_on_c, 3, 68, 95
3, 1082894, Pitch_bend_c, 3, 8320
3, 1082908, Pitch_bend_c, 3, 8448
3, 1082922, Pitch_bend_c, 3, 8576
3, 1082936, Pitch_bend_c, 3, 8704
3, 1082950, Pitch_bend_c, 3, 8832
3, 1082964, Pitch_bend_c, 3, 8960
3, 1082978, Pitch_bend_c, 3, 9088
3, 1082992, Pitch_bend_c, 3, 9216
3, 1083006, Pitch_bend_c, 3, 9344
3, 1083020, Pitch_bend_c, 3, 9472
3, 1083034, Pitch_bend_c, 3, 9600
3, 1083040, Pitch_bend_c, 3, 9600
3, 1083200, Pitch_bend_c, 3, 9600
3, 1083214, Pitch_bend_c, 3, 9472
3, 1083228, Pitch_bend_c, 3, 9344
3, 1083242, Pitch_bend_c, 3, 9216
3, 1083256, Pitch_bend_c, 3, 9088
3, 1083270, Pitch_bend_c, 3, 8960
3, 1083284, Pitch_bend_c, 3, 8832
3, 1083298, Pitch_bend_c, 3, 8704
3, 1083312, Pitch_bend_c, 3, 8576
3, 1083326, Pitch_bend_c, 3, 8448
3, 1083340, Pitch_bend_c, 3, 8320
3, 1083354, Pitch_bend_c, 3, 8192
3, 1083360, Pitch_bend_c, 3, 8192
3, 1083520, Pitch_bend_c, 3, 8192
3, 1083520, Pitch_bend_c, 3, 8192
3, 1083520, Note_off_c, 3, 68, 95
3, 1083520, Note_on_c, 2, 66, 95
3, 1083840, Note_off_c, 2, 66, 95
3, 1083840, Note_on_c, 2, 63, 95
3, 1084800, Note_off_c, 2, 63, 95
3, 1084800, Pitch_bend_c, 3, 8192
3, 1084800, Note_on_c, 3, 66, 95
3, 1084829, Pitch_bend_c, 3, 8320
3, 1084858, Pitch_bend_c, 3, 8448
3, 1084887, Pitch_bend_c, 3, 8576
3, 1084916, Pitch_bend_c, 3, 8704
3, 1084945, Pitch_bend_c, 3, 8832
3, 1084974, Pitch_bend_c, 3, 8960
3, 1085003, Pitch_bend_c, 3, 9088
3, 1085032, Pitch_bend_c, 3, 9216
3, 1085061, Pitch_bend_c, 3, 9344
3, 1085090, Pitch_bend_c, 3, 9472
3, 1085119, Pitch_bend_c, 3, 9600
3, 1085120, Pitch_bend_c, 3, 9600
3, 1085440, Pitch_bend_c, 3, 9600
3, 1085440, Pitch_bend_c, 3, 8192
3, 1085440, Note_off_c, 3, 66, 95
3, 1085440, Note_on_c, 2, 63, 95
3, 1086720, Note_off_c, 2, 63, 95
3, 1088880, Note_on_c, 2, 58, 95
3, 1089120, Note_off_c, 2, 58, 95
3, 1089120, Note_on_c, 2, 61, 95
3, 1089600, Note_off_c, 2, 61, 95
3, 1089600, Note_on_c, 2, 63, 95
3, 1090320, Note_off_c, 2, 63, 95
3, 1090320, Note_on_c, 2, 67, 95
3, 1090560, Note_off_c, 2, 67, 95
3, 1090560, Note_on_c, 2, 65, 95
3, 1090800, Note_off_c, 2, 65, 95
3, 1090800, Note_on_c, 2, 63, 95
3, 1091040, Note_off_c, 2, 63, 95
3, 1091040, Note_on_c, 2, 61, 95
3, 1091280, Note_off_c, 2, 61, 95
3, 1091280, Note_on_c, 2, 58, 47
3, 1091520, Note_off_c, 2, 58, 47
3, 1091520, Note_on_c, 2, 56, 47
3, 1091760, Note_off_c, 2, 56, 47
3, 1091760, Note_on_c, 2, 54, 47
3, 1092240, Note_off_c, 2, 54, 47
3, 1093920, Note_on_c, 2, 63, 95
3, 1094160, Note_off_c, 2, 63, 95
3, 1094160, Note_on_c, 2, 61, 95
3, 1094400, Note_off_c, 2, 61, 95
3, 1094400, Note_on_c, 2, 66, 95
3, 1094880, Note_off_c, 2, 66, 95
3, 1094880, Note_on_c, 2, 61, 95
3, 1095120, Note_off_c, 2, 61, 95
3, 1095120, Note_on_c, 3, 58, 95
3, 1095240, Pitch_bend_c, 3, 7680
3, 1095360, Pitch_bend_c, 3, 7168
3, 1095480, Pitch_bend_c, 3, 6656
3, 1095600, Pitch_bend_c, 3, 6144
3, 1095600, Pitch_bend_c, 3, 8192
3, 1095600, Note_off_c, 3, 58, 95
3, 1095600, Note_on_c, 2, 55, 95
3, 1096080, Note_off_c, 2, 55, 95
3, 1097280, Note_on_c, 2, 58, 95
3, 1097760, Note_off_c, 2, 58, 95
3, 1097760, Note_on_c, 2, 58, 95
3, 1098240, Note_off_c, 2, 58, 95
3, 1098240, Pitch_bend_c, 3, 8192
3, 1098240, Note_on_c, 3, 61, 95
3, 1098261, Pitch_bend_c, 3, 8320
3, 1098282, Pitch_bend_c, 3, 8448
3, 1098303, Pitch_bend_c, 3, 8576
3, 1098324, Pitch_bend_c, 3, 8704
3, 1098345, Pitch_bend_c, 3, 8832
3, 1098366, Pitch_bend_c, 3, 8960
3, 1098387, Pitch_bend_c, 3, 9088
3, 1098408, Pitch_bend_c, 3, 9216
3, 1098429, Pitch_bend_c, 3, 9344
3, 1098450, Pitch_bend_c, 3, 9472
3, 1098471, Pitch_bend_c, 3, 9600
3, 1098480, Pitch_bend_c, 3, 9600
3, 1098720, Pitch_bend_c, 3, 9600
3, 1098720, Pitch_bend_c, 3, 8192
3, 1098720, Note_off_c, 3, 61, 95
3, 1098720, Pitch_bend_c, 3, 9600
3, 1098720, Note_on_c, 3, 61, 95
3, 1099680, Pitch_bend_c, 3, 9600
3, 1099680, Pitch_bend_c, 3, 8192
3, 1099680, Note_off_c, 3, 61, 95
3, 1099680, Pitch_bend_c, 3, 9600
3, 1099680, Note_on_c, 3, 61, 95
3, 1100640, Pitch_bend_c, 3, 9600
3, 1100640, Pitch_bend_c, 3, 8192
3, 1100640, Note_off_c, 3, 61, 95
3, 1100640, Note_on_c, 2, 58, 95
3, 1101120, Note_off_c, 2, 58, 95
3, 1101120, Pitch_bend_c, 3, 8192
3, 1101120, Note_on_c, 3, 61, 95
3, 1101163, Pitch_bend_c, 3, 8320
3, 1101206, Pitch_bend_c, 3, 8448
3, 1101249, Pitch_bend_c, 3, 8576
3, 1101292, Pitch_bend_c, 3, 8704
3, 1101335, Pitch_bend_c, 3, 8832
3, 1101378, Pitch_bend_c, 3, 8960
3, 1101421, Pitch_bend_c, 3, 9088
3, 1101464, Pitch_bend_c, 3, 9216
3, 1101507, Pitch_bend_c, 3, 9344
3, 1101550, Pitch_bend_c, 3, 9472
3, 1101593, Pitch_bend_c, 3, 9600
3, 1101600, Pitch_bend_c, 3, 9600
3, 1102080, Pitch_bend_c, 3, 9600
3, 1102080, Pitch_bend_c, 3, 8192
3, 1102080, Note_off_c, 3, 61, 95
3, 1102080, Pitch_bend_c, 3, 9600
3, 1102080, Note_on_c, 3, 61, 95
3, 1102160, Pitch_bend_c, 3, 9600
3, 1102167, Pitch_bend_c, 3, 9472
3, 1102174, Pitch_bend_c, 3, 9344
3, 1102181, Pitch_bend_c, 3, 9216
3, 1102188, Pitch_bend_c, 3, 9088
3, 1102195, Pitch_bend_c, 3, 8960
3, 1102202, Pitch_bend_c, 3, 8832
3, 1102209, Pitch_bend_c, 3, 8704
3, 1102216, Pitch_bend_c, 3, 8576
3, 1102223, Pitch_bend_c, 3, 8448
3, 1102230, Pitch_bend_c, 3, 8320
3, 1102237, Pitch_bend_c, 3, 8192
3, 1102240, Pitch_bend_c, 3, 8192
3, 1102320, Pitch_bend_c, 3, 8192
3, 1102320, Pitch_bend_c, 3, 8192
3, 1102320, Note_off_c, 3, 61, 95
3, 1102320, Note_on_c, 2, 61, 95
3, 1102560, Note_off_c, 2, 61, 95
3, 1102560, Note_on_c, 2, 58, 70
3, 1103040, Note_off_c, 2, 58, 70
3, 1105920, Note_on_c, 2, 63, 95
3, 1106400, Note_off_c, 2, 63, 95
3, 1106400, Note_on_c, 2, 63, 95
3, 1107360, Note_off_c, 2, 63, 95
3, 1107360, Pitch_bend_c, 3, 8192
3, 1107360, Note_on_c, 3, 61, 95
3, 1107381, Pitch_bend_c, 3, 8320
3, 1107402, Pitch_bend_c, 3, 8448
3, 1107423, Pitch_bend_c, 3, 8576
3, 1107444, Pitch_bend_c, 3, 8704
3, 1107465, Pitch_bend_c, 3, 8832
3, 1107486, Pitch_bend_c, 3, 8960
3, 1107507, Pitch_bend_c, 3, 9088
3, 1107528, Pitch_bend_c, 3, 9216
3, 1107549, Pitch_bend_c, 3, 9344
3, 1107570, Pitch_bend_c, 3, 9472
3, 1107591, Pitch_bend_c, 3, 9600
3, 1107600, Pitch_bend_c, 3, 9600
3, 1107840, Pitch_bend_c, 3, 9600
3, 1107861, Pitch_bend_c, 3, 9472
3, 1107882, Pitch_bend_c, 3, 9344
3, 1107903, Pitch_bend_c, 3, 9216
3, 1107924, Pitch_bend_c, 3, 9088
3, 1107945, Pitch_bend_c, 3, 8960
3, 1107966, Pitch_bend_c, 3, 8832
3, 1107987, Pitch_bend_c, 3, 8704
3, 1108008, Pitch_bend_c, 3, 8576
3, 1108029, Pitch_bend_c, 3, 8448
3, 1108050, Pitch_bend_c, 3, 8320
3, 1108071, Pitch_bend_c, 3, 8192
3, 1108080, Pitch_bend_c, 3, 8192
3, 1108320, Pitch_bend_c, 3, 8192
3, 1108320, Pitch_bend_c, 3, 8192
3, 1108320, Note_off_c, 3, 61, 95
3, 1108320, Note_on_c, 2, 61, 95
3, 1108800, Note_off_c, 2, 61, 95
3, 1108800, Note_on_c, 2, 67, 95
3, 1109280, Note_off_c, 2, 67, 95
3, 1109280, Note_on_c, 3, 63, 95
3, 1109400, Pitch_bend_c, 3, 7936
3, 1109520, Pitch_bend_c, 3, 7552
3, 1109640, Pitch_bend_c, 3, 7168
3, 1109760, Pitch_bend_c, 3, 6784
3, 1109760, Pitch_bend_c, 3, 8192
3, 1109760, Note_off_c, 3, 63, 95
3, 1109760, Note_on_c, 2, 61, 95
3, 1110240, Note_off_c, 2, 61, 95
3, 1113600, Note_on_c, 2, 61, 95
3, 1114080, Note_off_c, 2, 61, 95
3, 1114080, Pitch_bend_c, 3, 8192
3, 1114080, Note_on_c, 3, 63, 95
3, 1114320, Pitch_bend_c, 3, 8320
3, 1114560, Pitch_bend_c, 3, 8448
3, 1114560, Pitch_bend_c, 3, 8448
3, 1115040, Pitch_bend_c, 3, 8448
3, 1115040, Pitch_bend_c, 3, 8192
3, 1115040, Note_off_c, 3, 63, 95
3, 1115040, Pitch_bend_c, 3, 8192
3, 1115040, Note_on_c, 3, 68, 95
3, 1115136, Pitch_bend_c, 3, 8320
3, 1115232, Pitch_bend_c, 3, 8448
3, 1115328, Pitch_bend_c, 3, 8576
3, 1115424, Pitch_bend_c, 3, 8704
3, 1115520, Pitch_bend_c, 3, 8832
3, 1115520, Pitch_bend_c, 3, 8832
3, 1116000, Pitch_bend_c, 3, 8832
3, 1116000, Pitch_bend_c, 3, 8192
3, 1116000, Note_off_c, 3, 68, 95
3, 1116000, Note_on_c, 2, 66, 95
3, 1116480, Note_off_c, 2, 66, 95
3, 1116480, Note_on_c, 2, 63, 95
3, 1117440, Note_off_c, 2, 63, 95
3, 1117440, Note_on_c, 2, 63, 95
3, 1117760, Note_off_c, 2, 63, 95
3, 1117760, Note_on_c, 2, 61, 70
3, 1118080, Note_off_c, 2, 61, 70
3, 1118080, Note_on_c, 2, 58, 70
3, 1118400, Note_off_c, 2, 58, 70
3, 1121280, Note_on_c, 2, 61, 95
3, 1121760, Note_off_c, 2, 61, 95
3, 1121760, Pitch_bend_c, 3, 8192
3, 1121760, Note_on_c, 3, 61, 95
3, 1122000, Pitch_bend_c, 3, 8320
3, 1122240, Pitch_bend_c, 3, 8448
3, 1122240, Pitch_bend_c, 3, 8448
3, 1122720, Pitch_bend_c, 3, 8448
3, 1122720, Pitch_bend_c, 3, 8192
3, 1122720, Note_off_c, 3, 61, 95
3, 1122720, Note_on_c, 2, 62, 95
3, 1123680, Note_off_c, 2, 62, 95
3, 1123680, Pitch_bend_c, 3, 8192
3, 1123680, Note_on_c, 3, 62, 95
3, 1123800, Pitch_bend_c, 3, 8320
3, 1123920, Pitch_bend_c, 3, 8448
3, 1123920, Pitch_bend_c, 3, 8448
3, 1124160, Pitch_bend_c, 3, 8448
3, 1124160, Pitch_bend_c, 3, 8192
3, 1124160, Note_off_c, 3, 62, 95
3, 1124160, Note_on_c, 2, 63, 95
3, 1125120, Note_off_c, 2, 63, 95
3, 1125120, Pitch_bend_c, 3, 8192
3, 1125120, Note_on_c, 3, 63, 95
3, 1125180, Pitch_bend_c, 3, 8320
3, 1125240, Pitch_bend_c, 3, 8448
3, 1125300, Pitch_bend_c, 3, 8576
3, 1125360, Pitch_bend_c, 3, 8704
3, 1125420, Pitch_bend_c, 3, 8832
3, 1125480, Pitch_bend_c, 3, 8960
3, 1125540, Pitch_bend_c, 3, 9088
3, 1125600, Pitch_bend_c, 3, 9216
3, 1125600, Pitch_bend_c, 3, 9216
3, 1126080, Pitch_bend_c, 3, 9216
3, 1126080, Pitch_bend_c, 3, 8192
3, 1126080, Note_off_c, 3, 63, 95
3, 1485120, Pitch_bend_c, 3, 8192
3, 1485120, Note_on_c, 3, 67, 95
3, 1485150, Pitch_bend_c, 3, 8320
3, 1485180, Pitch_bend_c, 3, 8448
3, 1485210, Pitch_bend_c, 3, 8576
3, 1485240, Pitch_bend_c, 3, 8704
3, 1485270, Pitch_bend_c, 3, 8832
3, 1485300, Pitch_bend_c, 3, 8960
3, 1485330, Pitch_bend_c, 3, 9088
3, 1485360, Pitch_bend_c, 3, 9216
3, 1485360, Pitch_bend_c, 3, 9216
3, 1485600, Pitch_bend_c, 3, 9216
3, 1485600, Pitch_bend_c, 3, 8192
3, 1485600, Note_off_c, 3, 67, 95
3, 1485600, Note_on_c, 2, 66, 95
3, 1486080, Note_off_c, 2, 66, 95
3, 1486080, Note_on_c, 2, 63, 95
3, 1486560, Note_off_c, 2, 63, 95
3, 1486560, Note_on_c, 2, 61, 95
3, 1487040, Note_off_c, 2, 61, 95
3, 1487040, Note_on_c, 2, 55, 95
3, 1487400, Note_off_c, 2, 55, 95
3, 1487400, Note_on_c, 3, 51, 95
3, 1487520, Pitch_bend_c, 3, 8192
3, 1487640, Pitch_bend_c, 3, 8192
3, 1487760, Pitch_bend_c, 3, 8192
3, 1487880, Pitch_bend_c, 3, 8192
3, 1487880, Pitch_bend_c, 3, 8192
3, 1488000, Note_off_c, 3, 51, 95
3, 1492800, Note_on_c, 2, 60, 95
3, 1493280, Note_off_c, 2, 60, 95
3, 1493280, Note_on_c, 2, 63, 95
3, 1493760, Note_off_c, 2, 63, 95
3, 1493760, Note_on_c, 2, 65, 95
3, 1494400, Note_off_c, 2, 65, 95
3, 1494400, Note_on_c, 2, 66, 95
3, 1495040, Note_off_c, 2, 66, 95
3, 1495040, Note_on_c, 2, 65, 95
3, 1495680, Note_off_c, 2, 65, 95
3, 1495680, Note_on_c, 3, 63, 95
3, 1495800, Pitch_bend_c, 3, 7552
3, 1495920, Pitch_bend_c, 3, 6784
3, 1495920, Pitch_bend_c, 3, 8192
3, 1495920, Note_off_c, 3, 63, 95
3, 1495920, Note_on_c, 3, 61, 95
3, 1496040, Pitch_bend_c, 3, 7168
3, 1496160, Pitch_bend_c, 3, 6144
3, 1496160, Pitch_bend_c, 3, 8192
3, 1496160, Note_off_c, 3, 61, 95
3, 1496160, Note_on_c, 2, 58, 95
3, 1496640, Note_off_c, 2, 58, 95
3, 1499520, Note_on_c, 2, 61, 95
3, 1499760, Note_off_c, 2, 61, 95
3, 1499760, Note_on_c, 2, 61, 95
3, 1500000, Note_off_c, 2, 61, 95
3, 1500000, Note_on_c, 2, 61, 95
3, 1500480, Note_off_c, 2, 61, 95
3, 1500480, Note_on_c, 3, 61, 95
3, 1500600, Pitch_bend_c, 3, 8448
3, 1500720, Pitch_bend_c, 3, 8832
3, 1500840, Pitch_bend_c, 3, 9216
3, 1500960, Pitch_bend_c, 3, 9600
3, 1500960, Pitch_bend_c, 3, 8192
3, 1500960, Note_off_c, 3, 61, 95
3, 1500960, Note_on_c, 2, 63, 95
3, 1501440, Note_off_c, 2, 63, 95
3, 1501440, Note_on_c, 2, 63, 95
3, 1501800, Note_off_c, 2, 63, 95
3, 1501800, Note_on_c, 2, 65, 95
3, 1502040, Note_off_c, 2, 65, 95
3, 1502040, Note_on_c, 2, 63, 95
3, 1502280, Note_off_c, 2, 63, 95
3, 1502280, Note_on_c, 2, 61, 95
3, 1502520, Note_off_c, 2, 61, 95
3, 1502520, Note_on_c, 3, 58, 95
3, 1502640, Pitch_bend_c, 3, 7168
3, 1502760, Pitch_bend_c, 3, 6144
3, 1502760, Pitch_bend_c, 3, 8192
3, 1502760, Note_off_c, 3, 58, 95
3, 1502760, Note_on_c, 2, 55, 95
3, 1503240, Note_off_c, 2, 55, 95
3, 1514880, Pitch_bend_c, 3, 8192
3, 1514880, Note_on_c, 3, 68, 95
3, 1514910, Pitch_bend_c, 3, 8320
3, 1514940, Pitch_bend_c, 3, 8448
3, 1514970, Pitch_bend_c, 3, 8576
3, 1515000, Pitch_bend_c, 3, 8704
3, 1515030, Pitch_bend_c, 3, 8832
3, 1515060, Pitch_bend_c, 3, 8960
3, 1515090, Pitch_bend_c, 3, 9088
3, 1515120, Pitch_bend_c, 3, 9216
3, 1515120, Pitch_bend_c, 3, 9216
3, 1515360, Pitch_bend_c, 3, 9216
3, 1515360, Pitch_bend_c, 3, 8192
3, 1515360, Note_off_c, 3, 68, 95
3, 1515360, Note_on_c, 2, 66, 95
3, 1515840, Note_off_c, 2, 66, 95
3, 1515840, Note_on_c, 2, 63, 95
3, 1516320, Note_off_c, 2, 63, 95
3, 1516320, Note_on_c, 2, 61, 95
3, 1516800, Note_off_c, 2, 61, 95
3, 1516800, Note_on_c, 2, 63, 95
3, 1517120, Note_off_c, 2, 63, 95
3, 1517120, Note_on_c, 2, 61, 95
3, 1517440, Note_off_c, 2, 61, 95
3, 1517440, Note_on_c, 2, 58, 95
3, 1518720, Note_off_c, 2, 58, 95
3, 1522080, Note_on_c, 2, 61, 95
3, 1522880, Note_off_c, 2, 61, 95
3, 1522880, Note_on_c, 2, 61, 95
3, 1523200, Note_off_c, 2, 61, 95
3, 1523200, Note_on_c, 2, 59, 95
3, 1523520, Note_off_c, 2, 59, 95
3, 1523520, Note_on_c, 3, 59, 95
3, 1523640, Pitch_bend_c, 3, 8832
3, 1523760, Pitch_bend_c, 3, 9600
3, 1523760, Pitch_bend_c, 3, 8192
3, 1523760, Note_off_c, 3, 59, 95
3, 1523760, Note_on_c, 2, 61, 95
3, 1524000, Note_off_c, 2, 61, 95
3, 1524000, Note_on_c, 2, 59, 95
3, 1524480, Note_off_c, 2, 59, 95
3, 1524480, Note_on_c, 2, 59, 95
3, 1524720, Note_off_c, 2, 59, 95
3, 1524720, Note_on_c, 2, 61, 95
3, 1525440, Note_off_c, 2, 61, 95
3, 1525440, Note_on_c, 3, 58, 95
3, 1525560, Pitch_bend_c, 3, 8064
3, 1525680, Pitch_bend_c, 3, 7808
3, 1525800, Pitch_bend_c, 3, 7552
3, 1525920, Pitch_bend_c, 3, 7296
3, 1526040, Pitch_bend_c, 3, 7040
3, 1526160, Pitch_bend_c, 3, 6784
3, 1526160, Pitch_bend_c, 3, 8192
3, 1526160, Note_off_c, 3, 58, 95
3, 1526160, Note_on_c, 3, 56, 95
3, 1526280, Pitch_bend_c, 3, 7936
3, 1526400, Pitch_bend_c, 3, 7552
3, 1526520, Pitch_bend_c, 3, 7168
3, 1526640, Pitch_bend_c, 3, 6784
3, 1526640, Pitch_bend_c, 3, 8192
3, 1526640, Note_off_c, 3, 56, 95
3, 1526640, Note_on_c, 3, 54, 95
3, 1526800, Pitch_bend_c, 3, 8192
3, 1526960, Pitch_bend_c, 3, 8320
3, 1527120, Pitch_bend_c, 3, 8192
3, 1527280, Pitch_bend_c, 3, 8320
3, 1527440, Pitch_bend_c, 3, 8192
3, 1527600, Pitch_bend_c, 3, 8320
3, 1527600, Pitch_bend_c, 3, 8192
3, 1527600, Note_off_c, 3, 54, 95
3, 1547520, Note_on_c, 3, 60, 95
3, 1547640, Pitch_bend_c, 3, 8064
3, 1547760, Pitch_bend_c, 3, 7936
3, 1547880, Pitch_bend_c, 3, 7680
3, 1548000, Pitch_bend_c, 3, 7552
3, 1548120, Pitch_bend_c, 3, 7424
3, 1548240, Pitch_bend_c, 3, 7168
3, 1548360, Pitch_bend_c, 3, 7040
3, 1548480, Pitch_bend_c, 3, 6784
3, 1548480, Pitch_bend_c, 3, 8192
3, 1548480, Note_off_c, 3, 60, 95
3, 1548480, Note_on_c, 3, 58, 95
3, 1549440, Note_off_c, 3, 58, 95
3, 1551360, Pitch_bend_c, 3, 8192
3, 1551360, Note_on_c, 3, 68, 95
3, 1551540, Pitch_bend_c, 3, 8320
3, 1551720, Pitch_bend_c, 3, 8448
3, 1551720, Pitch_bend_c, 3, 8448
3, 1552080, Pitch_bend_c, 3, 8448
3, 1552080, Pitch_bend_c, 3, 8192
3, 1552080, Note_off_c, 3, 68, 95
3, 1552080, Note_on_c, 2, 66, 95
3, 1552800, Note_off_c, 2, 66, 95
3, 1552800, Note_on_c, 2, 63, 95
3, 1553280, Note_off_c, 2, 63, 95
3, 1553280, Note_on_c, 2, 61, 95
3, 1553760, Note_off_c, 2, 61, 95
3, 1553760, Note_on_c, 2, 63, 95
3, 1554240, Note_off_c, 2, 63, 95
3, 1554240, Note_on_c, 2, 61, 95
3, 1554720, Note_off_c, 2, 61, 95
3, 1554720, Note_on_c, 3, 58, 95
3, 1554840, Pitch_bend_c, 3, 7936
3, 1554960, Pitch_bend_c, 3, 7552
3, 1555080, Pitch_bend_c, 3, 7168
3, 1555200, Pitch_bend_c, 3, 6784
3, 1555200, Pitch_bend_c, 3, 8192
3, 1555200, Note_off_c, 3, 58, 95
3, 1555200, Note_on_c, 3, 56, 95
3, 1555320, Pitch_bend_c, 3, 7936
3, 1555440, Pitch_bend_c, 3, 7552
3, 1555560, Pitch_bend_c, 3, 7168
3, 1555680, Pitch_bend_c, 3, 6784
3, 1555680, Pitch_bend_c, 3, 8192
3, 1555680, Note_off_c, 3, 56, 95
3, 1555680, Note_on_c, 2, 54, 95
3, 1556160, Note_off_c, 2, 54, 95
3, 1556160, End_track
4, 0, Start_track
4, 0, Pitch_bend_c, 4, 8192
4, 0, Control_c, 4, 7, 103
4, 0, Control_c, 4, 10, 63
4, 0, Control_c, 4, 93, 0
4, 0, Control_c, 4, 91, 0
4, 0, Control_c, 4, 95, 0
4, 0, Control_c, 4, 92, 0
4, 0, Control_c, 4, 11, 127
4, 0, Program_c, 4, 33
4, 0, Control_c, 5, 7, 103
4, 0, Control_c, 5, 10, 63
4, 0, Control_c, 5, 93, 0
4, 0, Control_c, 5, 91, 0
4, 0, Control_c, 5, 95, 0
4, 0, Control_c, 5, 92, 0
4, 0, Control_c, 5, 11, 127
4, 0, Program_c, 5, 33
4, 57600, Note_on_c, 5, 37, 95
4, 57720, Pitch_bend_c, 5, 8320
4, 57840, Pitch_bend_c, 5, 8448
4, 57960, Pitch_bend_c, 5, 8704
4, 58080, Pitch_bend_c, 5, 8832
4, 58200, Pitch_bend_c, 5, 8960
4, 58320, Pitch_bend_c, 5, 9216
4, 58440, Pitch_bend_c, 5, 9344
4, 58560, Pitch_bend_c, 5, 9600
4, 58560, Pitch_bend_c, 5, 8192
4, 58560, Note_off_c, 5, 37, 95
4, 58560, Note_on_c, 4, 39, 95
4, 59520, Note_off_c, 4, 39, 95
4, 59520, Note_on_c, 4, 39, 95
4, 60720, Note_off_c, 4, 39, 95
4, 60960, Note_on_c, 4, 34, 95
4, 61440, Note_off_c, 4, 34, 95
4, 61440, Note_on_c, 4, 37, 95
4, 62880, Note_off_c, 4, 37, 95
4, 62880, Note_on_c, 4, 39, 95
4, 63360, Note_off_c, 4, 39, 95
4, 63360, Note_on_c, 4, 30, 95
4, 64320, Note_off_c, 4, 30, 95
4, 64320, Note_on_c, 4, 27, 95
4, 65280, Note_off_c, 4, 27, 95
4, 65280, Note_on_c, 5, 37, 95
4, 65400, Pitch_bend_c, 5, 8320
4, 65520, Pitch_bend_c, 5, 8448
4, 65640, Pitch_bend_c, 5, 8704
4, 65760, Pitch_bend_c, 5, 8832
4, 65880, Pitch_bend_c, 5, 8960
4, 66000, Pitch_bend_c, 5, 9216
4, 66120, Pitch_bend_c, 5, 9344
4, 66240, Pitch_bend_c, 5, 9600
4, 66240, Pitch_bend_c, 5, 8192
4, 66240, Note_off_c, 5, 37, 95
4, 66240, Note_on_c, 4, 39, 95
4, 67200, Note_off_c, 4, 39, 95
4, 67200, Note_on_c, 4, 39, 95
4, 68400, Note_off_c, 4, 39, 95
4, 68640, Note_on_c, 4, 34, 95
4, 69120, Note_off_c, 4, 34, 95
4, 69120, Note_on_c, 4, 37, 95
4, 70560, Note_off_c, 4, 37, 95
4, 70560, Note_on_c, 4, 39, 95
4, 71040, Note_off_c, 4, 39, 95
4, 71040, Note_on_c, 4, 30, 95
4, 72000, Note_off_c, 4, 30, 95
4, 72000, Note_on_c, 4, 27, 95
4, 72960, Note_off_c, 4, 27, 95
4, 72960, Note_on_c, 5, 37, 95
4, 73080, Pitch_bend_c, 5, 8320
4, 73200, Pitch_bend_c, 5, 8448
4, 73320, Pitch_bend_c, 5, 8704
4, 73440, Pitch_bend_c, 5, 8832
4, 73560, Pitch_bend_c, 5, 8960
4, 73680, Pitch_bend_c, 5, 9216
4, 73800, Pitch_bend_c, 5, 9344
4, 73920, Pitch_bend_c, 5, 9600
4, 73920, Pitch_bend_c, 5, 8192
4, 73920, Note_off_c, 5, 37, 95
4, 73920, Note_on_c, 4, 39, 95
4, 74880, Note_off_c, 4, 39, 95
4, 74880, Note_on_c, 4, 39, 95
4, 76080, Note_off_c, 4, 39, 95
4, 76320, Note_on_c, 4, 34, 95
4, 76800, Note_off_c, 4, 34, 95
4, 76800, Note_on_c, 4, 37, 95
4, 78240, Note_off_c, 4, 37, 95
4, 78240, Note_on_c, 4, 39, 95
4, 78720, Note_off_c, 4, 39, 95
4, 78720, Note_on_c, 4, 30, 95
4, 79680, Note_off_c, 4, 30, 95
4, 79680, Note_on_c, 4, 27, 95
4, 80640, Note_off_c, 4, 27, 95
4, 80640, Note_on_c, 5, 37, 95
4, 80760, Pitch_bend_c, 5, 8320
4, 80880, Pitch_bend_c, 5, 8448
4, 81000, Pitch_bend_c, 5, 8704
4, 81120, Pitch_bend_c, 5, 8832
4, 81240, Pitch_bend_c, 5, 8960
4, 81360, Pitch_bend_c, 5, 9216
4, 81480, Pitch_bend_c, 5, 9344
4, 81600, Pitch_bend_c, 5, 9600
4, 81600, Pitch_bend_c, 5, 8192
4, 81600, Note_off_c, 5, 37, 95
4, 81600, Note_on_c, 4, 39, 95
4, 82560, Note_off_c, 4, 39, 95
4, 82560, Note_on_c, 4, 39, 95
4, 83760, Note_off_c, 4, 39, 95
4, 84000, Note_on_c, 4, 34, 95
4, 84480, Note_off_c, 4, 34, 95
4, 84480, Note_on_c, 4, 37, 95
4, 85920, Note_off_c, 4, 37, 95
4, 85920, Note_on_c, 4, 39, 95
4, 86400, Note_off_c, 4, 39, 95
4, 86400, Note_on_c, 4, 30, 95
4, 87360, Note_off_c, 4, 30, 95
4, 87360, Note_on_c, 4, 27, 95
4, 88320, Note_off_c, 4, 27, 95
4, 88320, Note_on_c, 5, 37, 95
4, 88440, Pitch_bend_c, 5, 8320
4, 88560, Pitch_bend_c, 5, 8448
4, 88680, Pitch_bend_c, 5, 8704
4, 88800, Pitch_bend_c, 5, 8832
4, 88920, Pitch_bend_c, 5, 8960
4, 89040, Pitch_bend_c, 5, 9216
4, 89160, Pitch_bend_c, 5, 9344
4, 89280, Pitch_bend_c, 5, 9600
4, 89280, Pitch_bend_c, 5, 8192
4, 89280, Note_off_c, 5, 37, 95
4, 89280, Note_on_c, 4, 39, 95
4, 90240, Note_off_c, 4, 39, 95
4, 90240, Note_on_c, 4, 39, 95
4, 91440, Note_off_c, 4, 39, 95
4, 91680, Note_on_c, 4, 34, 95
4, 92160, Note_off_c, 4, 34, 95
4, 92160, Note_on_c, 4, 37, 95
4, 93600, Note_off_c, 4, 37, 95
4, 93600, Note_on_c, 4, 39, 95
4, 94080, Note_off_c, 4, 39, 95
4, 94080, Note_on_c, 4, 30, 95
4, 95040, Note_off_c, 4, 30, 95
4, 95040, Note_on_c, 4, 27, 95
4, 96000, Note_off_c, 4, 27, 95
4, 96000, Note_on_c, 5, 37, 95
4, 96120, Pitch_bend_c, 5, 8320
4, 96240, Pitch_bend_c, 5, 8448
4, 96360, Pitch_bend_c, 5, 8704
4, 96480, Pitch_bend_c, 5, 8832
4, 96600, Pitch_bend_c, 5, 8960
4, 96720, Pitch_bend_c, 5, 9216
4, 96840, Pitch_bend_c, 5, 9344
4, 96960, Pitch_bend_c, 5, 9600
4, 96960, Pitch_bend_c, 5, 8192
4, 96960, Note_off_c, 5, 37, 95
4, 96960, Note_on_c, 4, 39, 95
4, 97920, Note_off_c, 4, 39, 95
4, 97920, Note_on_c, 4, 39, 95
4, 99120, Note_off_c, 4, 39, 95
4, 99360, Note_on_c, 4, 34, 95
4, 99840, Note_off_c, 4, 34, 95
4, 99840, Note_on_c, 4, 37, 95
4, 101280, Note_off_c, 4, 37, 95
4, 101280, Note_on_c, 4, 39, 95
4, 101760, Note_off_c, 4, 39, 95
4, 101760, Note_on_c, 4, 30, 95
4, 102720, Note_off_c, 4, 30, 95
4, 102720, Note_on_c, 4, 27, 95
4, 103680, Note_off_c, 4, 27, 95
4, 103680, Note_on_c, 5, 37, 95
4, 103800, Pitch_bend_c, 5, 8320
4, 103920, Pitch_bend_c, 5, 8448
4, 104040, Pitch_bend_c, 5, 8704
4, 104160, Pitch_bend_c, 5, 8832
4, 104280, Pitch_bend_c, 5, 8960
4, 104400, Pitch_bend_c, 5, 9216
4, 104520, Pitch_bend_c, 5, 9344
4, 104640, Pitch_bend_c, 5, 9600
4, 104640, Pitch_bend_c, 5, 8192
4, 104640, Note_off_c, 5, 37, 95
4, 104640, Note_on_c, 4, 39, 95
4, 105600, Note_off_c, 4, 39, 95
4, 105600, Note_on_c, 4, 39, 95
4, 106800, Note_off_c, 4, 39, 95
4, 107040, Note_on_c, 4, 34, 95
4, 107520, Note_off_c, 4, 34, 95
4, 107520, Note_on_c, 4, 37, 95
4, 108960, Note_off_c, 4, 37, 95
4, 108960, Note_on_c, 4, 39, 95
4, 109440, Note_off_c, 4, 39, 95
4, 109440, Note_on_c, 4, 30, 95
4, 110400, Note_off_c, 4, 30, 95
4, 110400, Note_on_c, 4, 27, 95
4, 111360, Note_off_c, 4, 27, 95
4, 111360, Note_on_c, 5, 37, 95
4, 111480, Pitch_bend_c, 5, 8320
4, 111600, Pitch_bend_c, 5, 8448
4, 111720, Pitch_bend_c, 5, 8704
4, 111840, Pitch_bend_c, 5, 8832
4, 111960, Pitch_bend_c, 5, 8960
4, 112080, Pitch_bend_c, 5, 9216
4, 112200, Pitch_bend_c, 5, 9344
4, 112320, Pitch_bend_c, 5, 9600
4, 112320, Pitch_bend_c, 5, 8192
4, 112320, Note_off_c, 5, 37, 95
4, 112320, Note_on_c, 4, 39, 95
4, 113280, Note_off_c, 4, 39, 95
4, 113280, Note_on_c, 4, 39, 95
4, 114480, Note_off_c, 4, 39, 95
4, 114720, Note_on_c, 4, 34, 95
4, 115200, Note_off_c, 4, 34, 95
4, 115200, Note_on_c, 4, 37, 95
4, 116640, Note_off_c, 4, 37, 95
4, 116640, Note_on_c, 4, 39, 95
4, 117120, Note_off_c, 4, 39, 95
4, 117120, Note_on_c, 4, 30, 95
4, 118080, Note_off_c, 4, 30, 95
4, 118080, Note_on_c, 4, 27, 95
4, 119040, Note_off_c, 4, 27, 95
4, 119040, Note_on_c, 5, 37, 95
4, 119160, Pitch_bend_c, 5, 8320
4, 119280, Pitch_bend_c, 5, 8448
4, 119400, Pitch_bend_c, 5, 8704
4, 119520, Pitch_bend_c, 5, 8832
4, 119640, Pitch_bend_c, 5, 8960
4, 119760, Pitch_bend_c, 5, 9216
4, 119880, Pitch_bend_c, 5, 9344
4, 120000, Pitch_bend_c, 5, 9600
4, 120000, Pitch_bend_c, 5, 8192
4, 120000, Note_off_c, 5, 37, 95
4, 120000, Note_on_c, 4, 39, 95
4, 120960, Note_off_c, 4, 39, 95
4, 120960, Note_on_c, 4, 39, 95
4, 122160, Note_off_c, 4, 39, 95
4, 122400, Note_on_c, 4, 34, 95
4, 122880, Note_off_c, 4, 34, 95
4, 122880, Note_on_c, 4, 37, 95
4, 124320, Note_off_c, 4, 37, 95
4, 124320, Note_on_c, 4, 39, 95
4, 124800, Note_off_c, 4, 39, 95
4, 124800, Note_on_c, 4, 30, 95
4, 125760, Note_off_c, 4, 30, 95
4, 125760, Note_on_c, 4, 27, 95
4, 126720, Note_off_c, 4, 27, 95
4, 126720, Note_on_c, 5, 37, 95
4, 126840, Pitch_bend_c, 5, 8320
4, 126960, Pitch_bend_c, 5, 8448
4, 127080, Pitch_bend_c, 5, 8704
4, 127200, Pitch_bend_c, 5, 8832
4, 127320, Pitch_bend_c, 5, 8960
4, 127440, Pitch_bend_c, 5, 9216
4, 127560, Pitch_bend_c, 5, 9344
4, 127680, Pitch_bend_c, 5, 9600
4, 127680, Pitch_bend_c, 5, 8192
4, 127680, Note_off_c, 5, 37, 95
4, 127680, Note_on_c, 4, 39, 95
4, 128640, Note_off_c, 4, 39, 95
4, 128640, Note_on_c, 4, 39, 95
4, 129840, Note_off_c, 4, 39, 95
4, 130080, Note_on_c, 4, 34, 95
4, 130560, Note_off_c, 4, 34, 95
4, 130560, Note_on_c, 4, 37, 95
4, 132000, Note_off_c, 4, 37, 95
4, 132000, Note_on_c, 4, 39, 95
4, 132480, Note_off_c, 4, 39, 95
4, 132480, Note_on_c, 4, 30, 95
4, 133440, Note_off_c, 4, 30, 95
4, 133440, Note_on_c, 4, 27, 95
4, 134400, Note_off_c, 4, 27, 95
4, 134400, Note_on_c, 5, 37, 95
4, 134520, Pitch_bend_c, 5, 8320
4, 134640, Pitch_bend_c, 5, 8448
4, 134760, Pitch_bend_c, 5, 8704
4, 134880, Pitch_bend_c, 5, 8832
4, 135000, Pitch_bend_c, 5, 8960
4, 135120, Pitch_bend_c, 5, 9216
4, 135240, Pitch_bend_c, 5, 9344
4, 135360, Pitch_bend_c, 5, 9600
4, 135360, Pitch_bend_c, 5, 8192
4, 135360, Note_off_c, 5, 37, 95
4, 135360, Note_on_c, 4, 39, 95
4, 136320, Note_off_c, 4, 39, 95
4, 136320, Note_on_c, 4, 39, 95
4, 137520, Note_off_c, 4, 39, 95
4, 137760, Note_on_c, 4, 34, 95
4, 138240, Note_off_c, 4, 34, 95
4, 138240, Note_on_c, 4, 37, 95
4, 139680, Note_off_c, 4, 37, 95
4, 139680, Note_on_c, 4, 39, 95
4, 140160, Note_off_c, 4, 39, 95
4, 140160, Note_on_c, 4, 30, 95
4, 141120, Note_off_c, 4, 30, 95
4, 141120, Note_on_c, 4, 27, 95
4, 142080, Note_off_c, 4, 27, 95
4, 142080, Note_on_c, 5, 37, 95
4, 142200, Pitch_bend_c, 5, 8320
4, 142320, Pitch_bend_c, 5, 8448
4, 142440, Pitch_bend_c, 5, 8704
4, 142560, Pitch_bend_c, 5, 8832
4, 142680, Pitch_bend_c, 5, 8960
4, 142800, Pitch_bend_c, 5, 9216
4, 142920, Pitch_bend_c, 5, 9344
4, 143040, Pitch_bend_c, 5, 9600
4, 143040, Pitch_bend_c, 5, 8192
4, 143040, Note_off_c, 5, 37, 95
4, 143040, Note_on_c, 4, 39, 95
4, 144000, Note_off_c, 4, 39, 95
4, 144000, Note_on_c, 4, 39, 95
4, 145200, Note_off_c, 4, 39, 95
4, 145440, Note_on_c, 4, 34, 95
4, 145920, Note_off_c, 4, 34, 95
4, 145920, Note_on_c, 4, 37, 95
4, 147360, Note_off_c, 4, 37, 95
4, 147360, Note_on_c, 4, 39, 95
4, 147840, Note_off_c, 4, 39, 95
4, 147840, Note_on_c, 4, 30, 95
4, 148800, Note_off_c, 4, 30, 95
4, 148800, Note_on_c, 4, 27, 95
4, 149760, Note_off_c, 4, 27, 95
4, 149760, Note_on_c, 5, 37, 95
4, 149880, Pitch_bend_c, 5, 8320
4, 150000, Pitch_bend_c, 5, 8448
4, 150120, Pitch_bend_c, 5, 8704
4, 150240, Pitch_bend_c, 5, 8832
4, 150360, Pitch_bend_c, 5, 8960
4, 150480, Pitch_bend_c, 5, 9216
4, 150600, Pitch_bend_c, 5, 9344
4, 150720, Pitch_bend_c, 5, 9600
4, 150720, Pitch_bend_c, 5, 8192
4, 150720, Note_off_c, 5, 37, 95
4, 150720, Note_on_c, 4, 39, 95
4, 151680, Note_off_c, 4, 39, 95
4, 151680, Note_on_c, 4, 39, 95
4, 152880, Note_off_c, 4, 39, 95
4, 153120, Note_on_c, 4, 34, 95
4, 153600, Note_off_c, 4, 34, 95
4, 153600, Note_on_c, 4, 37, 95
4, 155040, Note_off_c, 4, 37, 95
4, 155040, Note_on_c, 4, 39, 95
4, 155520, Note_off_c, 4, 39, 95
4, 155520, Note_on_c, 4, 30, 95
4, 156480, Note_off_c, 4, 30, 95
4, 156480, Note_on_c, 4, 27, 95
4, 157440, Note_off_c, 4, 27, 95
4, 157440, Note_on_c, 5, 37, 95
4, 157560, Pitch_bend_c, 5, 8320
4, 157680, Pitch_bend_c, 5, 8448
4, 157800, Pitch_bend_c, 5, 8704
4, 157920, Pitch_bend_c, 5, 8832
4, 158040, Pitch_bend_c, 5, 8960
4, 158160, Pitch_bend_c, 5, 9216
4, 158280, Pitch_bend_c, 5, 9344
4, 158400, Pitch_bend_c, 5, 9600
4, 158400, Pitch_bend_c, 5, 8192
4, 158400, Note_off_c, 5, 37, 95
4, 158400, Note_on_c, 4, 39, 95
4, 159360, Note_off_c, 4, 39, 95
4, 159360, Note_on_c, 4, 39, 95
4, 160560, Note_off_c, 4, 39, 95
4, 160800, Note_on_c, 4, 34, 95
4, 161280, Note_off_c, 4, 34, 95
4, 161280, Note_on_c, 4, 37, 95
4, 162720, Note_off_c, 4, 37, 95
4, 162720, Note_on_c, 4, 39, 95
4, 163200, Note_off_c, 4, 39, 95
4, 163200, Note_on_c, 4, 30, 95
4, 164160, Note_off_c, 4, 30, 95
4, 164160, Note_on_c, 4, 27, 95
4, 165120, Note_off_c, 4, 27, 95
4, 165120, Note_on_c, 5, 37, 95
4, 165240, Pitch_bend_c, 5, 8320
4, 165360, Pitch_bend_c, 5, 8448
4, 165480, Pitch_bend_c, 5, 8704
4, 165600, Pitch_bend_c, 5, 8832
4, 165720, Pitch_bend_c, 5, 8960
4, 165840, Pitch_bend_c, 5, 9216
4, 165960, Pitch_bend_c, 5, 9344
4, 166080, Pitch_bend_c, 5, 9600
4, 166080, Pitch_bend_c, 5, 8192
4, 166080, Note_off_c, 5, 37, 95
4, 166080, Note_on_c, 4, 39, 95
4, 167040, Note_off_c, 4, 39, 95
4, 167040, Note_on_c, 4, 39, 95
4, 168240, Note_off_c, 4, 39, 95
4, 168480, Note_on_c, 4, 34, 95
4, 168960, Note_off_c, 4, 34, 95
4, 168960, Note_on_c, 4, 37, 95
4, 170400, Note_off_c, 4, 37, 95
4, 170400, Note_on_c, 4, 39, 95
4, 170880, Note_off_c, 4, 39, 95
4, 170880, Note_on_c, 4, 30, 95
4, 171840, Note_off_c, 4, 30, 95
4, 171840, Note_on_c, 4, 27, 95
4, 172800, Note_off_c, 4, 27, 95
4, 172800, Note_on_c, 5, 37, 95
4, 172920, Pitch_bend_c, 5, 8320
4, 173040, Pitch_bend_c, 5, 8448
4, 173160, Pitch_bend_c, 5, 8704
4, 173280, Pitch_bend_c, 5, 8832
4, 173400, Pitch_bend_c, 5, 8960
4, 173520, Pitch_bend_c, 5, 9216
4, 173640, Pitch_bend_c, 5, 9344
4, 173760, Pitch_bend_c, 5, 9600
4, 173760, Pitch_bend_c, 5, 8192
4, 173760, Note_off_c, 5, 37, 95
4, 173760, Note_on_c, 4, 39, 95
4, 174720, Note_off_c, 4, 39, 95
4, 174720, Note_on_c, 4, 39, 95
4, 175920, Note_off_c, 4, 39, 95
4, 176160, Note_on_c, 4, 34, 95
4, 176640, Note_off_c, 4, 34, 95
4, 176640, Note_on_c, 4, 37, 95
4, 178080, Note_off_c, 4, 37, 95
4, 178080, Note_on_c, 4, 39, 95
4, 178560, Note_off_c, 4, 39, 95
4, 178560, Note_on_c, 4, 30, 95
4, 179520, Note_off_c, 4, 30, 95
4, 179520, Note_on_c, 4, 27, 95
4, 180480, Note_off_c, 4, 27, 95
4, 180480, Note_on_c, 5, 37, 95
4, 180600, Pitch_bend_c, 5, 8320
4, 180720, Pitch_bend_c, 5, 8448
4, 180840, Pitch_bend_c, 5, 8704
4, 180960, Pitch_bend_c, 5, 8832
4, 181080, Pitch_bend_c, 5, 8960
4, 181200, Pitch_bend_c, 5, 9216
4, 181320, Pitch_bend_c, 5, 9344
4, 181440, Pitch_bend_c, 5, 9600
4, 181440, Pitch_bend_c, 5, 8192
4, 181440, Note_off_c, 5, 37, 95
4, 181440, Note_on_c, 4, 39, 95
4, 182400, Note_off_c, 4, 39, 95
4, 182400, Note_on_c, 4, 39, 95
4, 183600, Note_off_c, 4, 39, 95
4, 183840, Note_on_c, 4, 34, 95
4, 184320, Note_off_c, 4, 34, 95
4, 184320, Note_on_c, 4, 37, 95
4, 185760, Note_off_c, 4, 37, 95
4, 185760, Note_on_c, 4, 39, 95
4, 186240, Note_off_c, 4, 39, 95
4, 186240, Note_on_c, 4, 30, 95
4, 187200, Note_off_c, 4, 30, 95
4, 187200, Note_on_c, 4, 27, 95
4, 188160, Note_off_c, 4, 27, 95
4, 188160, Note_on_c, 5, 37, 95
4, 188280, Pitch_bend_c, 5, 8320
4, 188400, Pitch_bend_c, 5, 8448
4, 188520, Pitch_bend_c, 5, 8704
4, 188640, Pitch_bend_c, 5, 8832
4, 188760, Pitch_bend_c, 5, 8960
4, 188880, Pitch_bend_c, 5, 9216
4, 189000, Pitch_bend_c, 5, 9344
4, 189120, Pitch_bend_c, 5, 9600
4, 189120, Pitch_bend_c, 5, 8192
4, 189120, Note_off_c, 5, 37, 95
4, 189120, Note_on_c, 4, 39, 95
4, 190080, Note_off_c, 4, 39, 95
4, 190080, Note_on_c, 4, 39, 95
4, 191280, Note_off_c, 4, 39, 95
4, 191520, Note_on_c, 4, 34, 95
4, 192000, Note_off_c, 4, 34, 95
4, 192000, Note_on_c, 4, 37, 95
4, 193440, Note_off_c, 4, 37, 95
4, 193440, Note_on_c, 4, 39, 95
4, 193920, Note_off_c, 4, 39, 95
4, 193920, Note_on_c, 4, 30, 95
4, 194880, Note_off_c, 4, 30, 95
4, 194880, Note_on_c, 4, 27, 95
4, 195840, Note_off_c, 4, 27, 95
4, 195840, Note_on_c, 5, 37, 95
4, 195960, Pitch_bend_c, 5, 8320
4, 196080, Pitch_bend_c, 5, 8448
4, 196200, Pitch_bend_c, 5, 8704
4, 196320, Pitch_bend_c, 5, 8832
4, 196440, Pitch_bend_c, 5, 8960
4, 196560, Pitch_bend_c, 5, 9216
4, 196680, Pitch_bend_c, 5, 9344
4, 196800, Pitch_bend_c, 5, 9600
4, 196800, Pitch_bend_c, 5, 8192
4, 196800, Note_off_c, 5, 37, 95
4, 196800, Note_on_c, 4, 39, 95
4, 197760, Note_off_c, 4, 39, 95
4, 197760, Note_on_c, 4, 39, 95
4, 198960, Note_off_c, 4, 39, 95
4, 199200, Note_on_c, 4, 34, 95
4, 199680, Note_off_c, 4, 34, 95
4, 199680, Note_on_c, 4, 37, 95
4, 201120, Note_off_c, 4, 37, 95
4, 201120, Note_on_c, 4, 39, 95
4, 201600, Note_off_c, 4, 39, 95
4, 201600, Note_on_c, 4, 30, 95
4, 202560, Note_off_c, 4, 30, 95
4, 202560, Note_on_c, 4, 27, 95
4, 203520, Note_off_c, 4, 27, 95
4, 203520, Note_on_c, 5, 37, 95
4, 203640, Pitch_bend_c, 5, 8320
4, 203760, Pitch_bend_c, 5, 8448
4, 203880, Pitch_bend_c, 5, 8704
4, 204000, Pitch_bend_c, 5, 8832
4, 204120, Pitch_bend_c, 5, 8960
4, 204240, Pitch_bend_c, 5, 9216
4, 204360, Pitch_bend_c, 5, 9344
4, 204480, Pitch_bend_c, 5, 9600
4, 204480, Pitch_bend_c, 5, 8192
4, 204480, Note_off_c, 5, 37, 95
4, 204480, Note_on_c, 4, 39, 95
4, 205440, Note_off_c, 4, 39, 95
4, 205440, Note_on_c, 4, 39, 95
4, 206640, Note_off_c, 4, 39, 95
4, 206880, Note_on_c, 4, 34, 95
4, 207360, Note_off_c, 4, 34, 95
4, 207360, Note_on_c, 4, 37, 95
4, 208800, Note_off_c, 4, 37, 95
4, 208800, Note_on_c, 4, 39, 95
4, 209280, Note_off_c, 4, 39, 95
4, 209280, Note_on_c, 4, 30, 95
4, 210240, Note_off_c, 4, 30, 95
4, 210240, Note_on_c, 4, 27, 95
4, 211200, Note_off_c, 4, 27, 95
4, 211200, Note_on_c, 5, 37, 95
4, 211320, Pitch_bend_c, 5, 8320
4, 211440, Pitch_bend_c, 5, 8448
4, 211560, Pitch_bend_c, 5, 8704
4, 211680, Pitch_bend_c, 5, 8832
4, 211800, Pitch_bend_c, 5, 8960
4, 211920, Pitch_bend_c, 5, 9216
4, 212040, Pitch_bend_c, 5, 9344
4, 212160, Pitch_bend_c, 5, 9600
4, 212160, Pitch_bend_c, 5, 8192
4, 212160, Note_off_c, 5, 37, 95
4, 212160, Note_on_c, 4, 39, 95
4, 213120, Note_off_c, 4, 39, 95
4, 213120, Note_on_c, 4, 39, 95
4, 214320, Note_off_c, 4, 39, 95
4, 214560, Note_on_c, 4, 34, 95
4, 215040, Note_off_c, 4, 34, 95
4, 215040, Note_on_c, 4, 37, 95
4, 216480, Note_off_c, 4, 37, 95
4, 216480, Note_on_c, 4, 39, 95
4, 216960, Note_off_c, 4, 39, 95
4, 216960, Note_on_c, 4, 30, 95
4, 217920, Note_off_c, 4, 30, 95
4, 217920, Note_on_c, 4, 27, 95
4, 218880, Note_off_c, 4, 27, 95
4, 218880, Note_on_c, 5, 37, 95
4, 219000, Pitch_bend_c, 5, 8320
4, 219120, Pitch_bend_c, 5, 8448
4, 219240, Pitch_bend_c, 5, 8704
4, 219360, Pitch_bend_c, 5, 8832
4, 219480, Pitch_bend_c, 5, 8960
4, 219600, Pitch_bend_c, 5, 9216
4, 219720, Pitch_bend_c, 5, 9344
4, 219840, Pitch_bend_c, 5, 9600
4, 219840, Pitch_bend_c, 5, 8192
4, 219840, Note_off_c, 5, 37, 95
4, 219840, Note_on_c, 4, 39, 95
4, 220800, Note_off_c, 4, 39, 95
4, 220800, Note_on_c, 4, 39, 95
4, 222000, Note_off_c, 4, 39, 95
4, 222240, Note_on_c, 4, 34, 95
4, 222720, Note_off_c, 4, 34, 95
4, 222720, Note_on_c, 4, 37, 95
4, 224160, Note_off_c, 4, 37, 95
4, 224160, Note_on_c, 4, 39, 95
4, 224640, Note_off_c, 4, 39, 95
4, 224640, Note_on_c, 4, 30, 95
4, 225600, Note_off_c, 4, 30, 95
4, 225600, Note_on_c, 4, 27, 95
4, 226560, Note_off_c, 4, 27, 95
4, 226560, Note_on_c, 5, 37, 95
4, 226680, Pitch_bend_c, 5, 8320
4, 226800, Pitch_bend_c, 5, 8448
4, 226920, Pitch_bend_c, 5, 8704
4, 227040, Pitch_bend_c, 5, 8832
4, 227160, Pitch_bend_c, 5, 8960
4, 227280, Pitch_bend_c, 5, 9216
4, 227400, Pitch_bend_c, 5, 9344
4, 227520, Pitch_bend_c, 5, 9600
4, 227520, Pitch_bend_c, 5, 8192
4, 227520, Note_off_c, 5, 37, 95
4, 227520, Note_on_c, 4, 39, 95
4, 228480, Note_off_c, 4, 39, 95
4, 228480, Note_on_c, 4, 39, 95
4, 229680, Note_off_c, 4, 39, 95
4, 229920, Note_on_c, 4, 34, 95
4, 230400, Note_off_c, 4, 34, 95
4, 230400, Note_on_c, 4, 37, 95
4, 231840, Note_off_c, 4, 37, 95
4, 231840, Note_on_c, 4, 39, 95
4, 232320, Note_off_c, 4, 39, 95
4, 232320, Note_on_c, 4, 30, 95
4, 233280, Note_off_c, 4, 30, 95
4, 233280, Note_on_c, 4, 27, 95
4, 234240, Note_off_c, 4, 27, 95
4, 234240, Note_on_c, 5, 37, 95
4, 234360, Pitch_bend_c, 5, 8320
4, 234480, Pitch_bend_c, 5, 8448
4, 234600, Pitch_bend_c, 5, 8704
4, 234720, Pitch_bend_c, 5, 8832
4, 234840, Pitch_bend_c, 5, 8960
4, 234960, Pitch_bend_c, 5, 9216
4, 235080, Pitch_bend_c, 5, 9344
4, 235200, Pitch_bend_c, 5, 9600
4, 235200, Pitch_bend_c, 5, 8192
4, 235200, Note_off_c, 5, 37, 95
4, 235200, Note_on_c, 4, 39, 95
4, 236160, Note_off_c, 4, 39, 95
4, 236160, Note_on_c, 4, 39, 95
4, 237360, Note_off_c, 4, 39, 95
4, 237600, Note_on_c, 4, 34, 95
4, 238080, Note_off_c, 4, 34, 95
4, 238080, Note_on_c, 4, 37, 95
4, 239520, Note_off_c, 4, 37, 95
4, 239520, Note_on_c, 4, 39, 95
4, 240000, Note_off_c, 4, 39, 95
4, 240000, Note_on_c, 4, 30, 95
4, 240960, Note_off_c, 4, 30, 95
4, 240960, Note_on_c, 4, 27, 95
4, 241920, Note_off_c, 4, 27, 95
4, 241920, Note_on_c, 5, 37, 95
4, 242040, Pitch_bend_c, 5, 8320
4, 242160, Pitch_bend_c, 5, 8448
4, 242280, Pitch_bend_c, 5, 8704
4, 242400, Pitch_bend_c, 5, 8832
4, 242520, Pitch_bend_c, 5, 8960
4, 242640, Pitch_bend_c, 5, 9216
4, 242760, Pitch_bend_c, 5, 9344
4, 242880, Pitch_bend_c, 5, 9600
4, 242880, Pitch_bend_c, 5, 8192
4, 242880, Note_off_c, 5, 37, 95
4, 242880, Note_on_c, 4, 39, 95
4, 243840, Note_off_c, 4, 39, 95
4, 243840, Note_on_c, 4, 39, 95
4, 245040, Note_off_c, 4, 39, 95
4, 245280, Note_on_c, 4, 34, 95
4, 245760, Note_off_c, 4, 34, 95
4, 245760, Note_on_c, 4, 37, 95
4, 247200, Note_off_c, 4, 37, 95
4, 247200, Note_on_c, 4, 39, 95
4, 247680, Note_off_c, 4, 39, 95
4, 247680, Note_on_c, 4, 30, 95
4, 248640, Note_off_c, 4, 30, 95
4, 248640, Note_on_c, 4, 27, 95
4, 249600, Note_off_c, 4, 27, 95
4, 249600, Note_on_c, 5, 37, 95
4, 249720, Pitch_bend_c, 5, 8320
4, 249840, Pitch_bend_c, 5, 8448
4, 249960, Pitch_bend_c, 5, 8704
4, 250080, Pitch_bend_c, 5, 8832
4, 250200, Pitch_bend_c, 5, 8960
4, 250320, Pitch_bend_c, 5, 9216
4, 250440, Pitch_bend_c, 5, 9344
4, 250560, Pitch_bend_c, 5, 9600
4, 250560, Pitch_bend_c, 5, 8192
4, 250560, Note_off_c, 5, 37, 95
4, 250560, Note_on_c, 4, 39, 95
4, 251520, Note_off_c, 4, 39, 95
4, 251520, Note_on_c, 4, 39, 95
4, 252720, Note_off_c, 4, 39, 95
4, 252960, Note_on_c, 4, 34, 95
4, 253440, Note_off_c, 4, 34, 95
4, 253440, Note_on_c, 4, 37, 95
4, 254880, Note_off_c, 4, 37, 95
4, 254880, Note_on_c, 4, 39, 95
4, 255360, Note_off_c, 4, 39, 95
4, 255360, Note_on_c, 4, 30, 95
4, 256320, Note_off_c, 4, 30, 95
4, 256320, Note_on_c, 4, 27, 95
4, 257280, Note_off_c, 4, 27, 95
4, 257280, Note_on_c, 5, 37, 95
4, 257400, Pitch_bend_c, 5, 8320
4, 257520, Pitch_bend_c, 5, 8448
4, 257640, Pitch_bend_c, 5, 8704
4, 257760, Pitch_bend_c, 5, 8832
4, 257880, Pitch_bend_c, 5, 8960
4, 258000, Pitch_bend_c, 5, 9216
4, 258120, Pitch_bend_c, 5, 9344
4, 258240, Pitch_bend_c, 5, 9600
4, 258240, Pitch_bend_c, 5, 8192
4, 258240, Note_off_c, 5, 37, 95
4, 258240, Note_on_c, 4, 39, 95
4, 259200, Note_off_c, 4, 39, 95
4, 259200, Note_on_c, 4, 39, 95
4, 260400, Note_off_c, 4, 39, 95
4, 260640, Note_on_c, 4, 34, 95
4, 261120, Note_off_c, 4, 34, 95
4, 261120, Note_on_c, 4, 37, 95
4, 262560, Note_off_c, 4, 37, 95
4, 262560, Note_on_c, 4, 39, 95
4, 263040, Note_off_c, 4, 39, 95
4, 263040, Note_on_c, 4, 30, 95
4, 264000, Note_off_c, 4, 30, 95
4, 264000, Note_on_c, 4, 27, 95
4, 264960, Note_off_c, 4, 27, 95
4, 264960, Note_on_c, 5, 37, 95
4, 265080, Pitch_bend_c, 5, 8320
4, 265200, Pitch_bend_c, 5, 8448
4, 265320, Pitch_bend_c, 5, 8704
4, 265440, Pitch_bend_c, 5, 8832
4, 265560, Pitch_bend_c, 5, 8960
4, 265680, Pitch_bend_c, 5, 9216
4, 265800, Pitch_bend_c, 5, 9344
4, 265920, Pitch_bend_c, 5, 9600
4, 265920, Pitch_bend_c, 5, 8192
4, 265920, Note_off_c, 5, 37, 95
4, 265920, Note_on_c, 4, 39, 95
4, 266880, Note_off_c, 4, 39, 95
4, 266880, Note_on_c, 4, 39, 95
4, 268080, Note_off_c, 4, 39, 95
4, 268320, Note_on_c, 4, 34, 95
4, 268800, Note_off_c, 4, 34, 95
4, 268800, Note_on_c, 4, 37, 95
4, 270240, Note_off_c, 4, 37, 95
4, 270240, Note_on_c, 4, 39, 95
4, 270720, Note_off_c, 4, 39, 95
4, 270720, Note_on_c, 4, 30, 95
4, 271680, Note_off_c, 4, 30, 95
4, 271680, Note_on_c, 4, 27, 95
4, 272640, Note_off_c, 4, 27, 95
4, 272640, Note_on_c, 5, 37, 95
4, 272760, Pitch_bend_c, 5, 8320
4, 272880, Pitch_bend_c, 5, 8448
4, 273000, Pitch_bend_c, 5, 8704
4, 273120, Pitch_bend_c, 5, 8832
4, 273240, Pitch_bend_c, 5, 8960
4, 273360, Pitch_bend_c, 5, 9216
4, 273480, Pitch_bend_c, 5, 9344
4, 273600, Pitch_bend_c, 5, 9600
4, 273600, Pitch_bend_c, 5, 8192
4, 273600, Note_off_c, 5, 37, 95
4, 273600, Note_on_c, 4, 39, 95
4, 274560, Note_off_c, 4, 39, 95
4, 274560, Note_on_c, 4, 39, 95
4, 275760, Note_off_c, 4, 39, 95
4, 276000, Note_on_c, 4, 34, 95
4, 276480, Note_off_c, 4, 34, 95
4, 276480, Note_on_c, 4, 37, 95
4, 277920, Note_off_c, 4, 37, 95
4, 277920, Note_on_c, 4, 39, 95
4, 278400, Note_off_c, 4, 39, 95
4, 278400, Note_on_c, 4, 30, 95
4, 279360, Note_off_c, 4, 30, 95
4, 279360, Note_on_c, 4, 27, 95
4, 280320, Note_off_c, 4, 27, 95
4, 280320, Note_on_c, 5, 37, 95
4, 280440, Pitch_bend_c, 5, 8320
4, 280560, Pitch_bend_c, 5, 8448
4, 280680, Pitch_bend_c, 5, 8704
4, 280800, Pitch_bend_c, 5, 8832
4, 280920, Pitch_bend_c, 5, 8960
4, 281040, Pitch_bend_c, 5, 9216
4, 281160, Pitch_bend_c, 5, 9344
4, 281280, Pitch_bend_c, 5, 9600
4, 281280, Pitch_bend_c, 5, 8192
4, 281280, Note_off_c, 5, 37, 95
4, 281280, Note_on_c, 4, 39, 95
4, 282240, Note_off_c, 4, 39, 95
4, 282240, Note_on_c, 4, 39, 95
4, 283440, Note_off_c, 4, 39, 95
4, 283680, Note_on_c, 4, 34, 95
4, 284160, Note_off_c, 4, 34, 95
4, 284160, Note_on_c, 4, 37, 95
4, 285600, Note_off_c, 4, 37, 95
4, 285600, Note_on_c, 4, 39, 95
4, 286080, Note_off_c, 4, 39, 95
4, 286080, Note_on_c, 4, 30, 95
4, 287040, Note_off_c, 4, 30, 95
4, 287040, Note_on_c, 4, 27, 95
4, 288000, Note_off_c, 4, 27, 95
4, 288000, Note_on_c, 5, 37, 95
4, 288120, Pitch_bend_c, 5, 8320
4, 288240, Pitch_bend_c, 5, 8448
4, 288360, Pitch_bend_c, 5, 8704
4, 288480, Pitch_bend_c, 5, 8832
4, 288600, Pitch_bend_c, 5, 8960
4, 288720, Pitch_bend_c, 5, 9216
4, 288840, Pitch_bend_c, 5, 9344
4, 288960, Pitch_bend_c, 5, 9600
4, 288960, Pitch_bend_c, 5, 8192
4, 288960, Note_off_c, 5, 37, 95
4, 288960, Note_on_c, 4, 39, 95
4, 289920, Note_off_c, 4, 39, 95
4, 289920, Note_on_c, 4, 39, 95
4, 291120, Note_off_c, 4, 39, 95
4, 291360, Note_on_c, 4, 34, 95
4, 291840, Note_off_c, 4, 34, 95
4, 291840, Note_on_c, 4, 37, 95
4, 293280, Note_off_c, 4, 37, 95
4, 293280, Note_on_c, 4, 39, 95
4, 293760, Note_off_c, 4, 39, 95
4, 293760, Note_on_c, 4, 30, 95
4, 294720, Note_off_c, 4, 30, 95
4, 294720, Note_on_c, 4, 27, 95
4, 295680, Note_off_c, 4, 27, 95
4, 295680, Note_on_c, 5, 37, 95
4, 295800, Pitch_bend_c, 5, 8320
4, 295920, Pitch_bend_c, 5, 8448
4, 296040, Pitch_bend_c, 5, 8704
4, 296160, Pitch_bend_c, 5, 8832
4, 296280, Pitch_bend_c, 5, 8960
4, 296400, Pitch_bend_c, 5, 9216
4, 296520, Pitch_bend_c, 5, 9344
4, 296640, Pitch_bend_c, 5, 9600
4, 296640, Pitch_bend_c, 5, 8192
4, 296640, Note_off_c, 5, 37, 95
4, 296640, Note_on_c, 4, 39, 95
4, 297600, Note_off_c, 4, 39, 95
4, 297600, Note_on_c, 4, 39, 95
4, 298800, Note_off_c, 4, 39, 95
4, 299040, Note_on_c, 4, 34, 95
4, 299520, Note_off_c, 4, 34, 95
4, 299520, Note_on_c, 4, 37, 95
4, 300960, Note_off_c, 4, 37, 95
4, 300960, Note_on_c, 4, 39, 95
4, 301440, Note_off_c, 4, 39, 95
4, 301440, Note_on_c, 4, 30, 95
4, 302400, Note_off_c, 4, 30, 95
4, 302400, Note_on_c, 4, 27, 95
4, 303360, Note_off_c, 4, 27, 95
4, 303360, Note_on_c, 5, 37, 95
4, 303480, Pitch_bend_c, 5, 8320
4, 303600, Pitch_bend_c, 5, 8448
4, 303720, Pitch_bend_c, 5, 8704
4, 303840, Pitch_bend_c, 5, 8832
4, 303960, Pitch_bend_c, 5, 8960
4, 304080, Pitch_bend_c, 5, 9216
4, 304200, Pitch_bend_c, 5, 9344
4, 304320, Pitch_bend_c, 5, 9600
4, 304320, Pitch_bend_c, 5, 8192
4, 304320, Note_off_c, 5, 37, 95
4, 304320, Note_on_c, 4, 39, 95
4, 305280, Note_off_c, 4, 39, 95
4, 305280, Note_on_c, 4, 39, 95
4, 306480, Note_off_c, 4, 39, 95
4, 306720, Note_on_c, 4, 34, 95
4, 307200, Note_off_c, 4, 34, 95
4, 307200, Note_on_c, 4, 37, 95
4, 308640, Note_off_c, 4, 37, 95
4, 308640, Note_on_c, 4, 39, 95
4, 309120, Note_off_c, 4, 39, 95
4, 309120, Note_on_c, 4, 30, 95
4, 310080, Note_off_c, 4, 30, 95
4, 310080, Note_on_c, 4, 27, 95
4, 311040, Note_off_c, 4, 27, 95
4, 311040, Note_on_c, 5, 37, 95
4, 311160, Pitch_bend_c, 5, 8320
4, 311280, Pitch_bend_c, 5, 8448
4, 311400, Pitch_bend_c, 5, 8704
4, 311520, Pitch_bend_c, 5, 8832
4, 311640, Pitch_bend_c, 5, 8960
4, 311760, Pitch_bend_c, 5, 9216
4, 311880, Pitch_bend_c, 5, 9344
4, 312000, Pitch_bend_c, 5, 9600
4, 312000, Pitch_bend_c, 5, 8192
4, 312000, Note_off_c, 5, 37, 95
4, 312000, Note_on_c, 4, 39, 95
4, 312960, Note_off_c, 4, 39, 95
4, 312960, Note_on_c, 4, 39, 95
4, 314160, Note_off_c, 4, 39, 95
4, 314400, Note_on_c, 4, 34, 95
4, 314880, Note_off_c, 4, 34, 95
4, 314880, Note_on_c, 4, 37, 95
4, 316320, Note_off_c, 4, 37, 95
4, 316320, Note_on_c, 4, 39, 95
4, 316800, Note_off_c, 4, 39, 95
4, 316800, Note_on_c, 4, 30, 95
4, 317760, Note_off_c, 4, 30, 95
4, 317760, Note_on_c, 4, 27, 95
4, 318720, Note_off_c, 4, 27, 95
4, 318720, Note_on_c, 5, 37, 95
4, 318840, Pitch_bend_c, 5, 8320
4, 318960, Pitch_bend_c, 5, 8448
4, 319080, Pitch_bend_c, 5, 8704
4, 319200, Pitch_bend_c, 5, 8832
4, 319320, Pitch_bend_c, 5, 8960
4, 319440, Pitch_bend_c, 5, 9216
4, 319560, Pitch_bend_c, 5, 9344
4, 319680, Pitch_bend_c, 5, 9600
4, 319680, Pitch_bend_c, 5, 8192
4, 319680, Note_off_c, 5, 37, 95
4, 319680, Note_on_c, 4, 39, 95
4, 320640, Note_off_c, 4, 39, 95
4, 320640, Note_on_c, 4, 39, 95
4, 321840, Note_off_c, 4, 39, 95
4, 322080, Note_on_c, 4, 34, 95
4, 322560, Note_off_c, 4, 34, 95
4, 322560, Note_on_c, 4, 37, 95
4, 324000, Note_off_c, 4, 37, 95
4, 324000, Note_on_c, 4, 39, 95
4, 324480, Note_off_c, 4, 39, 95
4, 324480, Note_on_c, 4, 30, 95
4, 325440, Note_off_c, 4, 30, 95
4, 325440, Note_on_c, 4, 27, 95
4, 326400, Note_off_c, 4, 27, 95
4, 326400, Note_on_c, 4, 37, 95
4, 327360, Note_off_c, 4, 37, 95
4, 334080, Note_on_c, 5, 37, 95
4, 334200, Pitch_bend_c, 5, 8320
4, 334320, Pitch_bend_c, 5, 8448
4, 334440, Pitch_bend_c, 5, 8704
4, 334560, Pitch_bend_c, 5, 8832
4, 334680, Pitch_bend_c, 5, 8960
4, 334800, Pitch_bend_c, 5, 9216
4, 334920, Pitch_bend_c, 5, 9344
4, 335040, Pitch_bend_c, 5, 9600
4, 335040, Pitch_bend_c, 5, 8192
4, 335040, Note_off_c, 5, 37, 95
4, 335040, Note_on_c, 4, 39, 95
4, 336000, Note_off_c, 4, 39, 95
4, 336000, Note_on_c, 4, 39, 95
4, 337200, Note_off_c, 4, 39, 95
4, 337440, Note_on_c, 4, 34, 95
4, 337920, Note_off_c, 4, 34, 95
4, 337920, Note_on_c, 4, 37, 95
4, 339360, Note_off_c, 4, 37, 95
4, 339360, Note_on_c, 4, 39, 95
4, 339840, Note_off_c, 4, 39, 95
4, 339840, Note_on_c, 4, 30, 95
4, 340800, Note_off_c, 4, 30, 95
4, 340800, Note_on_c, 4, 27, 95
4, 341760, Note_off_c, 4, 27, 95
4, 341760, Note_on_c, 5, 37, 95
4, 341880, Pitch_bend_c, 5, 8320
4, 342000, Pitch_bend_c, 5, 8448
4, 342120, Pitch_bend_c, 5, 8704
4, 342240, Pitch_bend_c, 5, 8832
4, 342360, Pitch_bend_c, 5, 8960
4, 342480, Pitch_bend_c, 5, 9216
4, 342600, Pitch_bend_c, 5, 9344
4, 342720, Pitch_bend_c, 5, 9600
4, 342720, Pitch_bend_c, 5, 8192
4, 342720, Note_off_c, 5, 37, 95
4, 342720, Note_on_c, 4, 39, 95
4, 343680, Note_off_c, 4, 39, 95
4, 343680, Note_on_c, 4, 39, 95
4, 344880, Note_off_c, 4, 39, 95
4, 345120, Note_on_c, 4, 34, 95
4, 345600, Note_off_c, 4, 34, 95
4, 345600, Note_on_c, 4, 37, 95
4, 347040, Note_off_c, 4, 37, 95
4, 347040, Note_on_c, 4, 39, 95
4, 347520, Note_off_c, 4, 39, 95
4, 347520, Note_on_c, 4, 30, 95
4, 348480, Note_off_c, 4, 30, 95
4, 348480, Note_on_c, 4, 27, 95
4, 349440, Note_off_c, 4, 27, 95
4, 349440, Note_on_c, 4, 37, 95
4, 350400, Note_off_c, 4, 37, 95
4, 350400, Note_on_c, 4, 37, 95
4, 350880, Note_off_c, 4, 37, 95
4, 350880, Note_on_c, 4, 37, 95
4, 351360, Note_on_c, 4, 40, 95
4, 351840, Note_off_c, 4, 40, 95
4, 351840, Note_on_c, 4, 40, 95
4, 352320, Note_off_c, 4, 40, 95
4, 352320, Note_on_c, 4, 41, 95
4, 352800, Note_off_c, 4, 41, 95
4, 352800, Note_on_c, 4, 41, 95
4, 353280, Note_off_c, 4, 41, 95
4, 353280, Note_on_c, 4, 44, 95
4, 354240, Note_off_c, 4, 44, 95
4, 354240, Note_on_c, 4, 44, 95
4, 354720, Note_off_c, 4, 44, 95
4, 354720, Note_on_c, 5, 44, 95
4, 354840, Pitch_bend_c, 5, 8704
4, 354960, Pitch_bend_c, 5, 9216
4, 355080, Pitch_bend_c, 5, 9728
4, 355200, Pitch_bend_c, 5, 10240
4, 355200, Pitch_bend_c, 5, 8192
4, 355200, Note_off_c, 5, 44, 95
4, 355200, Note_on_c, 4, 47, 95
4, 355680, Note_off_c, 4, 47, 95
4, 355680, Note_on_c, 4, 47, 95
4, 356160, Note_off_c, 4, 47, 95
4, 356160, Note_on_c, 4, 44, 95
4, 356640, Note_off_c, 4, 44, 95
4, 356640, Note_on_c, 4, 44, 95
4, 357120, Note_off_c, 4, 44, 95
4, 357120, Note_on_c, 4, 42, 95
4, 358080, Note_off_c, 4, 42, 95
4, 358080, Note_on_c, 4, 42, 95
4, 359040, Note_off_c, 4, 42, 95
4, 359040, Note_on_c, 4, 42, 95
4, 360000, Note_off_c, 4, 42, 95
4, 360000, Note_on_c, 4, 42, 95
4, 360960, Note_off_c, 4, 42, 95
4, 360960, Note_on_c, 4, 44, 95
4, 361920, Note_off_c, 4, 44, 95
4, 361920, Note_on_c, 4, 44, 95
4, 362880, Note_off_c, 4, 44, 95
4, 362880, Note_on_c, 4, 44, 95
4, 363840, Note_off_c, 4, 44, 95
4, 363840, Note_on_c, 4, 44, 95
4, 364800, Note_off_c, 4, 44, 95
4, 364800, Note_on_c, 4, 32, 95
4, 365760, Note_off_c, 4, 32, 95
4, 365760, Note_on_c, 4, 30, 95
4, 366720, Note_off_c, 4, 30, 95
4, 366720, Note_on_c, 4, 27, 95
4, 367680, Note_off_c, 4, 27, 95
4, 367680, Note_on_c, 4, 27, 95
4, 368640, Note_off_c, 4, 37, 95
4, 368640, Note_off_c, 4, 27, 95
4, 368640, Note_on_c, 4, 37, 95
4, 370080, Note_off_c, 4, 37, 95
4, 370080, Note_on_c, 4, 39, 95
4, 370560, Note_off_c, 4, 39, 95
4, 370560, Note_on_c, 4, 30, 95
4, 371520, Note_off_c, 4, 30, 95
4, 371520, Note_on_c, 4, 27, 95
4, 372480, Note_off_c, 4, 27, 95
4, 372480, Note_on_c, 5, 37, 95
4, 372600, Pitch_bend_c, 5, 8320
4, 372720, Pitch_bend_c, 5, 8448
4, 372840, Pitch_bend_c, 5, 8704
4, 372960, Pitch_bend_c, 5, 8832
4, 373080, Pitch_bend_c, 5, 8960
4, 373200, Pitch_bend_c, 5, 9216
4, 373320, Pitch_bend_c, 5, 9344
4, 373440, Pitch_bend_c, 5, 9600
4, 373440, Pitch_bend_c, 5, 8192
4, 373440, Note_off_c, 5, 37, 95
4, 373440, Note_on_c, 4, 39, 95
4, 374400, Note_off_c, 4, 39, 95
4, 374400, Note_on_c, 4, 39, 95
4, 375600, Note_off_c, 4, 39, 95
4, 375840, Note_on_c, 4, 34, 95
4, 376320, Note_off_c, 4, 34, 95
4, 376320, Note_on_c, 4, 37, 95
4, 377760, Note_off_c, 4, 37, 95
4, 377760, Note_on_c, 4, 39, 95
4, 378240, Note_off_c, 4, 39, 95
4, 378240, Note_on_c, 4, 30, 95
4, 379200, Note_off_c, 4, 30, 95
4, 379200, Note_on_c, 4, 27, 95
4, 380160, Note_off_c, 4, 27, 95
4, 380160, Note_on_c, 5, 37, 95
4, 380280, Pitch_bend_c, 5, 8320
4, 380400, Pitch_bend_c, 5, 8448
4, 380520, Pitch_bend_c, 5, 8704
4, 380640, Pitch_bend_c, 5, 8832
4, 380760, Pitch_bend_c, 5, 8960
4, 380880, Pitch_bend_c, 5, 9216
4, 381000, Pitch_bend_c, 5, 9344
4, 381120, Pitch_bend_c, 5, 9600
4, 381120, Pitch_bend_c, 5, 8192
4, 381120, Note_off_c, 5, 37, 95
4, 381120, Note_on_c, 4, 39, 95
4, 382080, Note_off_c, 4, 39, 95
4, 382080, Note_on_c, 4, 39, 95
4, 383280, Note_off_c, 4, 39, 95
4, 383520, Note_on_c, 4, 34, 95
4, 384000, Note_off_c, 4, 34, 95
4, 384000, Note_on_c, 4, 37, 95
4, 385440, Note_off_c, 4, 37, 95
4, 385440, Note_on_c, 4, 39, 95
4, 385920, Note_off_c, 4, 39, 95
4, 385920, Note_on_c, 4, 30, 95
4, 386880, Note_off_c, 4, 30, 95
4, 386880, Note_on_c, 4, 27, 95
4, 387840, Note_off_c, 4, 27, 95
4, 387840, Note_on_c, 5, 37, 95
4, 387960, Pitch_bend_c, 5, 8320
4, 388080, Pitch_bend_c, 5, 8448
4, 388200, Pitch_bend_c, 5, 8704
4, 388320, Pitch_bend_c, 5, 8832
4, 388440, Pitch_bend_c, 5, 8960
4, 388560, Pitch_bend_c, 5, 9216
4, 388680, Pitch_bend_c, 5, 9344
4, 388800, Pitch_bend_c, 5, 9600
4, 388800, Pitch_bend_c, 5, 8192
4, 388800, Note_off_c, 5, 37, 95
4, 388800, Note_on_c, 4, 39, 95
4, 389760, Note_off_c, 4, 39, 95
4, 389760, Note_on_c, 4, 39, 95
4, 390960, Note_off_c, 4, 39, 95
4, 391200, Note_on_c, 4, 34, 95
4, 391680, Note_off_c, 4, 34, 95
4, 391680, Note_on_c, 4, 37, 95
4, 393120, Note_off_c, 4, 37, 95
4, 393120, Note_on_c, 4, 39, 95
4, 393600, Note_off_c, 4, 39, 95
4, 393600, Note_on_c, 4, 30, 95
4, 394560, Note_off_c, 4, 30, 95
4, 394560, Note_on_c, 4, 27, 95
4, 395520, Note_off_c, 4, 27, 95
4, 395520, Note_on_c, 5, 37, 95
4, 395640, Pitch_bend_c, 5, 8320
4, 395760, Pitch_bend_c, 5, 8448
4, 395880, Pitch_bend_c, 5, 8704
4, 396000, Pitch_bend_c, 5, 8832
4, 396120, Pitch_bend_c, 5, 8960
4, 396240, Pitch_bend_c, 5, 9216
4, 396360, Pitch_bend_c, 5, 9344
4, 396480, Pitch_bend_c, 5, 9600
4, 396480, Pitch_bend_c, 5, 8192
4, 396480, Note_off_c, 5, 37, 95
4, 396480, Note_on_c, 4, 39, 95
4, 397440, Note_off_c, 4, 39, 95
4, 397440, Note_on_c, 4, 39, 95
4, 398640, Note_off_c, 4, 39, 95
4, 398880, Note_on_c, 4, 34, 95
4, 399360, Note_off_c, 4, 34, 95
4, 399360, Note_on_c, 4, 37, 95
4, 400800, Note_off_c, 4, 37, 95
4, 400800, Note_on_c, 4, 39, 95
4, 401280, Note_off_c, 4, 39, 95
4, 401280, Note_on_c, 4, 30, 95
4, 402240, Note_off_c, 4, 30, 95
4, 402240, Note_on_c, 4, 27, 95
4, 403200, Note_off_c, 4, 27, 95
4, 403200, Note_on_c, 5, 37, 95
4, 403320, Pitch_bend_c, 5, 8320
4, 403440, Pitch_bend_c, 5, 8448
4, 403560, Pitch_bend_c, 5, 8704
4, 403680, Pitch_bend_c, 5, 8832
4, 403800, Pitch_bend_c, 5, 8960
4, 403920, Pitch_bend_c, 5, 9216
4, 404040, Pitch_bend_c, 5, 9344
4, 404160, Pitch_bend_c, 5, 9600
4, 404160, Pitch_bend_c, 5, 8192
4, 404160, Note_off_c, 5, 37, 95
4, 404160, Note_on_c, 4, 39, 95
4, 405120, Note_off_c, 4, 39, 95
4, 405120, Note_on_c, 4, 39, 95
4, 406320, Note_off_c, 4, 39, 95
4, 406560, Note_on_c, 4, 34, 95
4, 407040, Note_off_c, 4, 34, 95
4, 407040, Note_on_c, 4, 37, 95
4, 408480, Note_off_c, 4, 37, 95
4, 408480, Note_on_c, 4, 39, 95
4, 408960, Note_off_c, 4, 39, 95
4, 408960, Note_on_c, 4, 30, 95
4, 409920, Note_off_c, 4, 30, 95
4, 409920, Note_on_c, 4, 27, 95
4, 410880, Note_off_c, 4, 27, 95
4, 410880, Note_on_c, 4, 37, 95
4, 411360, Note_off_c, 4, 37, 95
4, 418560, Note_on_c, 5, 37, 95
4, 418680, Pitch_bend_c, 5, 8320
4, 418800, Pitch_bend_c, 5, 8448
4, 418920, Pitch_bend_c, 5, 8704
4, 419040, Pitch_bend_c, 5, 8832
4, 419160, Pitch_bend_c, 5, 8960
4, 419280, Pitch_bend_c, 5, 9216
4, 419400, Pitch_bend_c, 5, 9344
4, 419520, Pitch_bend_c, 5, 9600
4, 419520, Pitch_bend_c, 5, 8192
4, 419520, Note_off_c, 5, 37, 95
4, 419520, Note_on_c, 4, 39, 95
4, 420480, Note_off_c, 4, 39, 95
4, 420480, Note_on_c, 4, 39, 95
4, 421680, Note_off_c, 4, 39, 95
4, 421920, Note_on_c, 4, 34, 95
4, 422400, Note_off_c, 4, 34, 95
4, 422400, Note_on_c, 4, 37, 95
4, 423840, Note_off_c, 4, 37, 95
4, 423840, Note_on_c, 4, 39, 95
4, 424320, Note_off_c, 4, 39, 95
4, 424320, Note_on_c, 4, 30, 95
4, 425280, Note_off_c, 4, 30, 95
4, 425280, Note_on_c, 4, 27, 95
4, 426240, Note_off_c, 4, 27, 95
4, 426240, Note_on_c, 5, 37, 95
4, 426360, Pitch_bend_c, 5, 8320
4, 426480, Pitch_bend_c, 5, 8448
4, 426600, Pitch_bend_c, 5, 8704
4, 426720, Pitch_bend_c, 5, 8832
4, 426840, Pitch_bend_c, 5, 8960
4, 426960, Pitch_bend_c, 5, 9216
4, 427080, Pitch_bend_c, 5, 9344
4, 427200, Pitch_bend_c, 5, 9600
4, 427200, Pitch_bend_c, 5, 8192
4, 427200, Note_off_c, 5, 37, 95
4, 427200, Note_on_c, 4, 39, 95
4, 428160, Note_off_c, 4, 39, 95
4, 428160, Note_on_c, 4, 39, 95
4, 429360, Note_off_c, 4, 39, 95
4, 429600, Note_on_c, 4, 34, 95
4, 430080, Note_off_c, 4, 34, 95
4, 430080, Note_on_c, 4, 37, 95
4, 431520, Note_off_c, 4, 37, 95
4, 431520, Note_on_c, 4, 39, 95
4, 432000, Note_off_c, 4, 39, 95
4, 432000, Note_on_c, 4, 30, 95
4, 432960, Note_off_c, 4, 30, 95
4, 432960, Note_on_c, 4, 27, 95
4, 433920, Note_off_c, 4, 27, 95
4, 433920, Note_on_c, 4, 37, 95
4, 434880, Note_off_c, 4, 37, 95
4, 434880, Note_on_c, 4, 37, 95
4, 435360, Note_off_c, 4, 37, 95
4, 435360, Note_on_c, 4, 37, 95
4, 435840, Note_on_c, 4, 40, 95
4, 436320, Note_off_c, 4, 40, 95
4, 436320, Note_on_c, 4, 40, 95
4, 436800, Note_off_c, 4, 40, 95
4, 436800, Note_on_c, 4, 41, 95
4, 437280, Note_off_c, 4, 41, 95
4, 437280, Note_on_c, 4, 41, 95
4, 437760, Note_off_c, 4, 41, 95
4, 437760, Note_on_c, 4, 44, 95
4, 438720, Note_off_c, 4, 44, 95
4, 438720, Note_on_c, 4, 44, 95
4, 439200, Note_off_c, 4, 44, 95
4, 439200, Note_on_c, 5, 44, 95
4, 439320, Pitch_bend_c, 5, 8704
4, 439440, Pitch_bend_c, 5, 9216
4, 439560, Pitch_bend_c, 5, 9728
4, 439680, Pitch_bend_c, 5, 10240
4, 439680, Pitch_bend_c, 5, 8192
4, 439680, Note_off_c, 5, 44, 95
4, 439680, Note_on_c, 4, 47, 95
4, 440160, Note_off_c, 4, 47, 95
4, 440160, Note_on_c, 4, 47, 95
4, 440640, Note_off_c, 4, 47, 95
4, 440640, Note_on_c, 4, 44, 95
4, 441120, Note_off_c, 4, 44, 95
4, 441120, Note_on_c, 4, 44, 95
4, 441600, Note_off_c, 4, 44, 95
4, 441600, Note_on_c, 4, 42, 95
4, 442560, Note_off_c, 4, 42, 95
4, 442560, Note_on_c, 4, 42, 95
4, 443040, Note_off_c, 4, 42, 95
4, 443040, Note_on_c, 4, 42, 95
4, 443520, Note_off_c, 4, 42, 95
4, 443520, Note_on_c, 4, 42, 95
4, 444000, Note_off_c, 4, 42, 95
4, 444000, Note_on_c, 4, 42, 95
4, 444480, Note_off_c, 4, 42, 95
4, 444480, Note_on_c, 5, 42, 95
4, 444600, Pitch_bend_c, 5, 8320
4, 444720, Pitch_bend_c, 5, 8448
4, 444840, Pitch_bend_c, 5, 8704
4, 444960, Pitch_bend_c, 5, 8832
4, 445080, Pitch_bend_c, 5, 8960
4, 445200, Pitch_bend_c, 5, 9216
4, 445320, Pitch_bend_c, 5, 9344
4, 445440, Pitch_bend_c, 5, 9600
4, 445440, Pitch_bend_c, 5, 8192
4, 445440, Note_off_c, 5, 42, 95
4, 445440, Note_on_c, 4, 44, 95
4, 446400, Note_off_c, 4, 44, 95
4, 446400, Note_on_c, 4, 44, 95
4, 446880, Note_off_c, 4, 44, 95
4, 446880, Note_on_c, 4, 44, 95
4, 447360, Note_off_c, 4, 44, 95
4, 447360, Note_on_c, 4, 44, 95
4, 447840, Note_off_c, 4, 44, 95
4, 447840, Note_on_c, 4, 44, 95
4, 448320, Note_off_c, 4, 44, 95
4, 448320, Note_on_c, 4, 44, 95
4, 448800, Note_off_c, 4, 44, 95
4, 448800, Note_on_c, 4, 44, 95
4, 449280, Note_off_c, 4, 44, 95
4, 449280, Note_on_c, 4, 32, 95
4, 450240, Note_off_c, 4, 32, 95
4, 450240, Note_on_c, 4, 30, 95
4, 451200, Note_off_c, 4, 30, 95
4, 451200, Note_on_c, 4, 27, 95
4, 452160, Note_off_c, 4, 27, 95
4, 452160, Note_on_c, 4, 27, 95
4, 453120, Note_off_c, 4, 37, 95
4, 453120, Note_off_c, 4, 27, 95
4, 453120, Note_on_c, 4, 37, 95
4, 454560, Note_off_c, 4, 37, 95
4, 454560, Note_on_c, 4, 39, 95
4, 455040, Note_off_c, 4, 39, 95
4, 455040, Note_on_c, 4, 30, 95
4, 456000, Note_off_c, 4, 30, 95
4, 456000, Note_on_c, 4, 27, 95
4, 456960, Note_off_c, 4, 27, 95
4, 456960, Note_on_c, 5, 37, 95
4, 457080, Pitch_bend_c, 5, 8320
4, 457200, Pitch_bend_c, 5, 8448
4, 457320, Pitch_bend_c, 5, 8704
4, 457440, Pitch_bend_c, 5, 8832
4, 457560, Pitch_bend_c, 5, 8960
4, 457680, Pitch_bend_c, 5, 9216
4, 457800, Pitch_bend_c, 5, 9344
4, 457920, Pitch_bend_c, 5, 9600
4, 457920, Pitch_bend_c, 5, 8192
4, 457920, Note_off_c, 5, 37, 95
4, 457920, Note_on_c, 4, 39, 95
4, 458880, Note_off_c, 4, 39, 95
4, 458880, Note_on_c, 4, 39, 95
4, 460080, Note_off_c, 4, 39, 95
4, 460320, Note_on_c, 4, 34, 95
4, 460800, Note_off_c, 4, 34, 95
4, 460800, Note_on_c, 4, 37, 95
4, 462240, Note_off_c, 4, 37, 95
4, 462240, Note_on_c, 4, 39, 95
4, 462720, Note_off_c, 4, 39, 95
4, 462720, Note_on_c, 4, 30, 95
4, 463680, Note_off_c, 4, 30, 95
4, 463680, Note_on_c, 4, 27, 95
4, 464640, Note_off_c, 4, 27, 95
4, 464640, Note_on_c, 5, 37, 95
4, 464760, Pitch_bend_c, 5, 8320
4, 464880, Pitch_bend_c, 5, 8448
4, 465000, Pitch_bend_c, 5, 8704
4, 465120, Pitch_bend_c, 5, 8832
4, 465240, Pitch_bend_c, 5, 8960
4, 465360, Pitch_bend_c, 5, 9216
4, 465480, Pitch_bend_c, 5, 9344
4, 465600, Pitch_bend_c, 5, 9600
4, 465600, Pitch_bend_c, 5, 8192
4, 465600, Note_off_c, 5, 37, 95
4, 465600, Note_on_c, 4, 39, 95
4, 466560, Note_off_c, 4, 39, 95
4, 466560, Note_on_c, 4, 39, 95
4, 467760, Note_off_c, 4, 39, 95
4, 468000, Note_on_c, 4, 34, 95
4, 468480, Note_off_c, 4, 34, 95
4, 468480, Note_on_c, 4, 37, 95
4, 469920, Note_off_c, 4, 37, 95
4, 469920, Note_on_c, 4, 39, 95
4, 470400, Note_off_c, 4, 39, 95
4, 470400, Note_on_c, 4, 30, 95
4, 471360, Note_off_c, 4, 30, 95
4, 471360, Note_on_c, 4, 27, 95
4, 472320, Note_off_c, 4, 27, 95
4, 472320, Note_on_c, 5, 37, 95
4, 472440, Pitch_bend_c, 5, 8320
4, 472560, Pitch_bend_c, 5, 8448
4, 472680, Pitch_bend_c, 5, 8704
4, 472800, Pitch_bend_c, 5, 8832
4, 472920, Pitch_bend_c, 5, 8960
4, 473040, Pitch_bend_c, 5, 9216
4, 473160, Pitch_bend_c, 5, 9344
4, 473280, Pitch_bend_c, 5, 9600
4, 473280, Pitch_bend_c, 5, 8192
4, 473280, Note_off_c, 5, 37, 95
4, 473280, Note_on_c, 4, 39, 95
4, 474240, Note_off_c, 4, 39, 95
4, 474240, Note_on_c, 4, 39, 95
4, 475440, Note_off_c, 4, 39, 95
4, 475680, Note_on_c, 4, 34, 95
4, 476160, Note_off_c, 4, 34, 95
4, 476160, Note_on_c, 4, 37, 95
4, 477600, Note_off_c, 4, 37, 95
4, 477600, Note_on_c, 4, 39, 95
4, 478080, Note_off_c, 4, 39, 95
4, 478080, Note_on_c, 4, 30, 95
4, 479040, Note_off_c, 4, 30, 95
4, 479040, Note_on_c, 4, 27, 95
4, 480000, Note_off_c, 4, 27, 95
4, 480000, Note_on_c, 5, 37, 95
4, 480120, Pitch_bend_c, 5, 8320
4, 480240, Pitch_bend_c, 5, 8448
4, 480360, Pitch_bend_c, 5, 8704
4, 480480, Pitch_bend_c, 5, 8832
4, 480600, Pitch_bend_c, 5, 8960
4, 480720, Pitch_bend_c, 5, 9216
4, 480840, Pitch_bend_c, 5, 9344
4, 480960, Pitch_bend_c, 5, 9600
4, 480960, Pitch_bend_c, 5, 8192
4, 480960, Note_off_c, 5, 37, 95
4, 480960, Note_on_c, 4, 39, 95
4, 481920, Note_off_c, 4, 39, 95
4, 481920, Note_on_c, 4, 39, 95
4, 483120, Note_off_c, 4, 39, 95
4, 483360, Note_on_c, 4, 34, 95
4, 483840, Note_off_c, 4, 34, 95
4, 483840, Note_on_c, 4, 37, 95
4, 485280, Note_off_c, 4, 37, 95
4, 485280, Note_on_c, 4, 39, 95
4, 485760, Note_off_c, 4, 39, 95
4, 485760, Note_on_c, 4, 30, 95
4, 486720, Note_off_c, 4, 30, 95
4, 486720, Note_on_c, 4, 27, 95
4, 487680, Note_off_c, 4, 27, 95
4, 487680, Note_on_c, 5, 37, 95
4, 487800, Pitch_bend_c, 5, 8320
4, 487920, Pitch_bend_c, 5, 8448
4, 488040, Pitch_bend_c, 5, 8704
4, 488160, Pitch_bend_c, 5, 8832
4, 488280, Pitch_bend_c, 5, 8960
4, 488400, Pitch_bend_c, 5, 9216
4, 488520, Pitch_bend_c, 5, 9344
4, 488640, Pitch_bend_c, 5, 9600
4, 488640, Pitch_bend_c, 5, 8192
4, 488640, Note_off_c, 5, 37, 95
4, 488640, Note_on_c, 4, 39, 95
4, 489600, Note_off_c, 4, 39, 95
4, 489600, Note_on_c, 4, 39, 95
4, 490800, Note_off_c, 4, 39, 95
4, 491040, Note_on_c, 4, 34, 95
4, 491520, Note_off_c, 4, 34, 95
4, 491520, Note_on_c, 4, 37, 95
4, 492960, Note_off_c, 4, 37, 95
4, 492960, Note_on_c, 4, 39, 95
4, 493440, Note_off_c, 4, 39, 95
4, 493440, Note_on_c, 4, 30, 95
4, 494400, Note_off_c, 4, 30, 95
4, 494400, Note_on_c, 4, 27, 95
4, 495360, Note_off_c, 4, 27, 95
4, 495360, Note_on_c, 5, 37, 95
4, 495480, Pitch_bend_c, 5, 8320
4, 495600, Pitch_bend_c, 5, 8448
4, 495720, Pitch_bend_c, 5, 8704
4, 495840, Pitch_bend_c, 5, 8832
4, 495960, Pitch_bend_c, 5, 8960
4, 496080, Pitch_bend_c, 5, 9216
4, 496200, Pitch_bend_c, 5, 9344
4, 496320, Pitch_bend_c, 5, 9600
4, 496320, Pitch_bend_c, 5, 8192
4, 496320, Note_off_c, 5, 37, 95
4, 496320, Note_on_c, 4, 39, 95
4, 497280, Note_off_c, 4, 39, 95
4, 497280, Note_on_c, 4, 39, 95
4, 498480, Note_off_c, 4, 39, 95
4, 498720, Note_on_c, 4, 34, 95
4, 499200, Note_off_c, 4, 34, 95
4, 499200, Note_on_c, 4, 37, 95
4, 500640, Note_off_c, 4, 37, 95
4, 500640, Note_on_c, 4, 39, 95
4, 501120, Note_off_c, 4, 39, 95
4, 501120, Note_on_c, 4, 30, 95
4, 502080, Note_off_c, 4, 30, 95
4, 502080, Note_on_c, 4, 27, 95
4, 503040, Note_off_c, 4, 27, 95
4, 503040, Note_on_c, 5, 37, 95
4, 503160, Pitch_bend_c, 5, 8320
4, 503280, Pitch_bend_c, 5, 8448
4, 503400, Pitch_bend_c, 5, 8704
4, 503520, Pitch_bend_c, 5, 8832
4, 503640, Pitch_bend_c, 5, 8960
4, 503760, Pitch_bend_c, 5, 9216
4, 503880, Pitch_bend_c, 5, 9344
4, 504000, Pitch_bend_c, 5, 9600
4, 504000, Pitch_bend_c, 5, 8192
4, 504000, Note_off_c, 5, 37, 95
4, 504000, Note_on_c, 4, 39, 95
4, 504960, Note_off_c, 4, 39, 95
4, 504960, Note_on_c, 4, 39, 95
4, 506160, Note_off_c, 4, 39, 95
4, 506400, Note_on_c, 4, 34, 95
4, 506880, Note_off_c, 4, 34, 95
4, 506880, Note_on_c, 4, 37, 95
4, 508320, Note_off_c, 4, 37, 95
4, 508320, Note_on_c, 4, 39, 95
4, 508800, Note_off_c, 4, 39, 95
4, 508800, Note_on_c, 4, 30, 95
4, 509760, Note_off_c, 4, 30, 95
4, 509760, Note_on_c, 4, 27, 95
4, 510720, Note_off_c, 4, 27, 95
4, 510720, Note_on_c, 5, 37, 95
4, 510840, Pitch_bend_c, 5, 8320
4, 510960, Pitch_bend_c, 5, 8448
4, 511080, Pitch_bend_c, 5, 8704
4, 511200, Pitch_bend_c, 5, 8832
4, 511320, Pitch_bend_c, 5, 8960
4, 511440, Pitch_bend_c, 5, 9216
4, 511560, Pitch_bend_c, 5, 9344
4, 511680, Pitch_bend_c, 5, 9600
4, 511680, Pitch_bend_c, 5, 8192
4, 511680, Note_off_c, 5, 37, 95
4, 511680, Note_on_c, 4, 39, 95
4, 512640, Note_off_c, 4, 39, 95
4, 512640, Note_on_c, 4, 39, 95
4, 513840, Note_off_c, 4, 39, 95
4, 514080, Note_on_c, 4, 34, 95
4, 514560, Note_off_c, 4, 34, 95
4, 514560, Note_on_c, 4, 37, 95
4, 516000, Note_off_c, 4, 37, 95
4, 516000, Note_on_c, 4, 39, 95
4, 516480, Note_off_c, 4, 39, 95
4, 516480, Note_on_c, 4, 30, 95
4, 517440, Note_off_c, 4, 30, 95
4, 517440, Note_on_c, 4, 27, 95
4, 518400, Note_off_c, 4, 27, 95
4, 518400, Note_on_c, 5, 37, 95
4, 518520, Pitch_bend_c, 5, 8320
4, 518640, Pitch_bend_c, 5, 8448
4, 518760, Pitch_bend_c, 5, 8704
4, 518880, Pitch_bend_c, 5, 8832
4, 519000, Pitch_bend_c, 5, 8960
4, 519120, Pitch_bend_c, 5, 9216
4, 519240, Pitch_bend_c, 5, 9344
4, 519360, Pitch_bend_c, 5, 9600
4, 519360, Pitch_bend_c, 5, 8192
4, 519360, Note_off_c, 5, 37, 95
4, 519360, Note_on_c, 4, 39, 95
4, 520320, Note_off_c, 4, 39, 95
4, 520320, Note_on_c, 4, 44, 95
4, 521280, Note_off_c, 4, 44, 95
4, 521280, Note_on_c, 4, 42, 95
4, 522240, Note_off_c, 4, 42, 95
4, 522240, Note_on_c, 4, 37, 95
4, 523680, Note_off_c, 4, 37, 95
4, 523680, Note_on_c, 4, 39, 95
4, 524160, Note_off_c, 4, 39, 95
4, 524160, Note_on_c, 4, 30, 95
4, 525120, Note_off_c, 4, 30, 95
4, 525120, Note_on_c, 4, 27, 95
4, 526080, Note_off_c, 4, 27, 95
4, 526080, Note_on_c, 5, 37, 95
4, 526200, Pitch_bend_c, 5, 8320
4, 526320, Pitch_bend_c, 5, 8448
4, 526440, Pitch_bend_c, 5, 8704
4, 526560, Pitch_bend_c, 5, 8832
4, 526680, Pitch_bend_c, 5, 8960
4, 526800, Pitch_bend_c, 5, 9216
4, 526920, Pitch_bend_c, 5, 9344
4, 527040, Pitch_bend_c, 5, 9600
4, 527040, Pitch_bend_c, 5, 8192
4, 527040, Note_off_c, 5, 37, 95
4, 527040, Note_on_c, 4, 39, 95
4, 528000, Note_off_c, 4, 39, 95
4, 528000, Note_on_c, 4, 39, 95
4, 529200, Note_off_c, 4, 39, 95
4, 529440, Note_on_c, 4, 34, 95
4, 529920, Note_off_c, 4, 34, 95
4, 529920, Note_on_c, 4, 37, 95
4, 531360, Note_off_c, 4, 37, 95
4, 531360, Note_on_c, 4, 39, 95
4, 531840, Note_off_c, 4, 39, 95
4, 531840, Note_on_c, 4, 30, 95
4, 532800, Note_off_c, 4, 30, 95
4, 532800, Note_on_c, 4, 27, 95
4, 533760, Note_off_c, 4, 27, 95
4, 533760, Note_on_c, 5, 37, 95
4, 533880, Pitch_bend_c, 5, 8320
4, 534000, Pitch_bend_c, 5, 8448
4, 534120, Pitch_bend_c, 5, 8704
4, 534240, Pitch_bend_c, 5, 8832
4, 534360, Pitch_bend_c, 5, 8960
4, 534480, Pitch_bend_c, 5, 9216
4, 534600, Pitch_bend_c, 5, 9344
4, 534720, Pitch_bend_c, 5, 9600
4, 534720, Pitch_bend_c, 5, 8192
4, 534720, Note_off_c, 5, 37, 95
4, 534720, Note_on_c, 4, 39, 95
4, 535680, Note_off_c, 4, 39, 95
4, 535680, Note_on_c, 4, 39, 95
4, 536880, Note_off_c, 4, 39, 95
4, 537120, Note_on_c, 4, 34, 95
4, 537600, Note_off_c, 4, 34, 95
4, 537600, Note_on_c, 4, 37, 95
4, 539040, Note_off_c, 4, 37, 95
4, 539040, Note_on_c, 4, 39, 95
4, 539520, Note_off_c, 4, 39, 95
4, 539520, Note_on_c, 4, 30, 95
4, 540480, Note_off_c, 4, 30, 95
4, 540480, Note_on_c, 4, 27, 95
4, 541440, Note_off_c, 4, 27, 95
4, 541440, Note_on_c, 5, 37, 95
4, 541560, Pitch_bend_c, 5, 8320
4, 541680, Pitch_bend_c, 5, 8448
4, 541800, Pitch_bend_c, 5, 8704
4, 541920, Pitch_bend_c, 5, 8832
4, 542040, Pitch_bend_c, 5, 8960
4, 542160, Pitch_bend_c, 5, 9216
4, 542280, Pitch_bend_c, 5, 9344
4, 542400, Pitch_bend_c, 5, 9600
4, 542400, Pitch_bend_c, 5, 8192
4, 542400, Note_off_c, 5, 37, 95
4, 542400, Note_on_c, 4, 39, 95
4, 543360, Note_off_c, 4, 39, 95
4, 543360, Note_on_c, 4, 44, 95
4, 544320, Note_off_c, 4, 44, 95
4, 544320, Note_on_c, 4, 42, 95
4, 545280, Note_off_c, 4, 42, 95
4, 545280, Note_on_c, 4, 37, 95
4, 546720, Note_off_c, 4, 37, 95
4, 546720, Note_on_c, 4, 39, 95
4, 547200, Note_off_c, 4, 39, 95
4, 547200, Note_on_c, 4, 30, 95
4, 548160, Note_off_c, 4, 30, 95
4, 548160, Note_on_c, 4, 27, 95
4, 549120, Note_off_c, 4, 27, 95
4, 549120, Note_on_c, 5, 37, 95
4, 549240, Pitch_bend_c, 5, 8320
4, 549360, Pitch_bend_c, 5, 8448
4, 549480, Pitch_bend_c, 5, 8704
4, 549600, Pitch_bend_c, 5, 8832
4, 549720, Pitch_bend_c, 5, 8960
4, 549840, Pitch_bend_c, 5, 9216
4, 549960, Pitch_bend_c, 5, 9344
4, 550080, Pitch_bend_c, 5, 9600
4, 550080, Pitch_bend_c, 5, 8192
4, 550080, Note_off_c, 5, 37, 95
4, 550080, Note_on_c, 4, 39, 95
4, 551040, Note_off_c, 4, 39, 95
4, 551040, Note_on_c, 4, 39, 95
4, 552240, Note_off_c, 4, 39, 95
4, 552480, Note_on_c, 4, 34, 95
4, 552960, Note_off_c, 4, 34, 95
4, 552960, Note_on_c, 4, 37, 95
4, 554400, Note_off_c, 4, 37, 95
4, 554400, Note_on_c, 4, 39, 95
4, 554880, Note_off_c, 4, 39, 95
4, 554880, Note_on_c, 4, 30, 95
4, 555840, Note_off_c, 4, 30, 95
4, 555840, Note_on_c, 4, 27, 95
4, 556800, Note_off_c, 4, 27, 95
4, 556800, Note_on_c, 5, 37, 95
4, 556920, Pitch_bend_c, 5, 8320
4, 557040, Pitch_bend_c, 5, 8448
4, 557160, Pitch_bend_c, 5, 8704
4, 557280, Pitch_bend_c, 5, 8832
4, 557400, Pitch_bend_c, 5, 8960
4, 557520, Pitch_bend_c, 5, 9216
4, 557640, Pitch_bend_c, 5, 9344
4, 557760, Pitch_bend_c, 5, 9600
4, 557760, Pitch_bend_c, 5, 8192
4, 557760, Note_off_c, 5, 37, 95
4, 557760, Note_on_c, 4, 39, 95
4, 558720, Note_off_c, 4, 39, 95
4, 558720, Note_on_c, 4, 39, 95
4, 559920, Note_off_c, 4, 39, 95
4, 560160, Note_on_c, 4, 34, 95
4, 560640, Note_off_c, 4, 34, 95
4, 560640, Note_on_c, 4, 37, 95
4, 562080, Note_off_c, 4, 37, 95
4, 562080, Note_on_c, 4, 39, 95
4, 562560, Note_off_c, 4, 39, 95
4, 562560, Note_on_c, 4, 30, 95
4, 563520, Note_off_c, 4, 30, 95
4, 563520, Note_on_c, 4, 27, 95
4, 564480, Note_off_c, 4, 27, 95
4, 564480, Note_on_c, 5, 37, 95
4, 564600, Pitch_bend_c, 5, 8320
4, 564720, Pitch_bend_c, 5, 8448
4, 564840, Pitch_bend_c, 5, 8704
4, 564960, Pitch_bend_c, 5, 8832
4, 565080, Pitch_bend_c, 5, 8960
4, 565200, Pitch_bend_c, 5, 9216
4, 565320, Pitch_bend_c, 5, 9344
4, 565440, Pitch_bend_c, 5, 9600
4, 565440, Pitch_bend_c, 5, 8192
4, 565440, Note_off_c, 5, 37, 95
4, 565440, Note_on_c, 4, 39, 95
4, 566400, Note_off_c, 4, 39, 95
4, 566400, Note_on_c, 4, 39, 95
4, 567600, Note_off_c, 4, 39, 95
4, 567840, Note_on_c, 4, 34, 95
4, 568320, Note_off_c, 4, 34, 95
4, 568320, Note_on_c, 4, 37, 95
4, 569760, Note_off_c, 4, 37, 95
4, 569760, Note_on_c, 4, 39, 95
4, 570240, Note_off_c, 4, 39, 95
4, 570240, Note_on_c, 4, 30, 95
4, 571200, Note_off_c, 4, 30, 95
4, 571200, Note_on_c, 4, 27, 95
4, 572160, Note_off_c, 4, 27, 95
4, 572160, Note_on_c, 5, 37, 95
4, 572280, Pitch_bend_c, 5, 8320
4, 572400, Pitch_bend_c, 5, 8448
4, 572520, Pitch_bend_c, 5, 8704
4, 572640, Pitch_bend_c, 5, 8832
4, 572760, Pitch_bend_c, 5, 8960
4, 572880, Pitch_bend_c, 5, 9216
4, 573000, Pitch_bend_c, 5, 9344
4, 573120, Pitch_bend_c, 5, 9600
4, 573120, Pitch_bend_c, 5, 8192
4, 573120, Note_off_c, 5, 37, 95
4, 573120, Note_on_c, 4, 39, 95
4, 574080, Note_off_c, 4, 39, 95
4, 574080, Note_on_c, 4, 39, 95
4, 575280, Note_off_c, 4, 39, 95
4, 575520, Note_on_c, 4, 34, 95
4, 576000, Note_off_c, 4, 34, 95
4, 576000, Note_on_c, 4, 37, 95
4, 577440, Note_off_c, 4, 37, 95
4, 577440, Note_on_c, 4, 39, 95
4, 577920, Note_off_c, 4, 39, 95
4, 577920, Note_on_c, 4, 30, 95
4, 578880, Note_off_c, 4, 30, 95
4, 578880, Note_on_c, 4, 27, 95
4, 579840, Note_off_c, 4, 27, 95
4, 579840, Note_on_c, 5, 37, 95
4, 579960, Pitch_bend_c, 5, 8320
4, 580080, Pitch_bend_c, 5, 8448
4, 580200, Pitch_bend_c, 5, 8704
4, 580320, Pitch_bend_c, 5, 8832
4, 580440, Pitch_bend_c, 5, 8960
4, 580560, Pitch_bend_c, 5, 9216
4, 580680, Pitch_bend_c, 5, 9344
4, 580800, Pitch_bend_c, 5, 9600
4, 580800, Pitch_bend_c, 5, 8192
4, 580800, Note_off_c, 5, 37, 95
4, 580800, Note_on_c, 4, 39, 95
4, 581760, Note_off_c, 4, 39, 95
4, 581760, Note_on_c, 4, 39, 95
4, 582960, Note_off_c, 4, 39, 95
4, 583200, Note_on_c, 4, 34, 95
4, 583680, Note_off_c, 4, 34, 95
4, 583680, Note_on_c, 4, 37, 95
4, 585120, Note_off_c, 4, 37, 95
4, 585120, Note_on_c, 4, 39, 95
4, 585600, Note_off_c, 4, 39, 95
4, 585600, Note_on_c, 4, 30, 95
4, 586560, Note_off_c, 4, 30, 95
4, 586560, Note_on_c, 4, 27, 95
4, 587520, Note_off_c, 4, 27, 95
4, 587520, Note_on_c, 5, 37, 95
4, 587640, Pitch_bend_c, 5, 8320
4, 587760, Pitch_bend_c, 5, 8448
4, 587880, Pitch_bend_c, 5, 8704
4, 588000, Pitch_bend_c, 5, 8832
4, 588120, Pitch_bend_c, 5, 8960
4, 588240, Pitch_bend_c, 5, 9216
4, 588360, Pitch_bend_c, 5, 9344
4, 588480, Pitch_bend_c, 5, 9600
4, 588480, Pitch_bend_c, 5, 8192
4, 588480, Note_off_c, 5, 37, 95
4, 588480, Note_on_c, 4, 39, 95
4, 589440, Note_off_c, 4, 39, 95
4, 589440, Note_on_c, 4, 39, 95
4, 590640, Note_off_c, 4, 39, 95
4, 590880, Note_on_c, 4, 34, 95
4, 591360, Note_off_c, 4, 34, 95
4, 591360, Note_on_c, 4, 37, 95
4, 592800, Note_off_c, 4, 37, 95
4, 592800, Note_on_c, 4, 39, 95
4, 593280, Note_off_c, 4, 39, 95
4, 593280, Note_on_c, 4, 30, 95
4, 594240, Note_off_c, 4, 30, 95
4, 594240, Note_on_c, 4, 27, 95
4, 595200, Note_off_c, 4, 27, 95
4, 595200, Note_on_c, 5, 37, 95
4, 595320, Pitch_bend_c, 5, 8320
4, 595440, Pitch_bend_c, 5, 8448
4, 595560, Pitch_bend_c, 5, 8704
4, 595680, Pitch_bend_c, 5, 8832
4, 595800, Pitch_bend_c, 5, 8960
4, 595920, Pitch_bend_c, 5, 9216
4, 596040, Pitch_bend_c, 5, 9344
4, 596160, Pitch_bend_c, 5, 9600
4, 596160, Pitch_bend_c, 5, 8192
4, 596160, Note_off_c, 5, 37, 95
4, 596160, Note_on_c, 4, 39, 95
4, 597120, Note_off_c, 4, 39, 95
4, 597120, Note_on_c, 4, 44, 95
4, 598080, Note_off_c, 4, 44, 95
4, 598080, Note_on_c, 4, 42, 95
4, 599040, Note_off_c, 4, 42, 95
4, 599040, Note_on_c, 4, 37, 95
4, 600480, Note_off_c, 4, 37, 95
4, 600480, Note_on_c, 4, 39, 95
4, 600960, Note_off_c, 4, 39, 95
4, 600960, Note_on_c, 4, 30, 95
4, 601920, Note_off_c, 4, 30, 95
4, 601920, Note_on_c, 4, 27, 95
4, 602880, Note_off_c, 4, 27, 95
4, 602880, Note_on_c, 5, 37, 95
4, 603000, Pitch_bend_c, 5, 8320
4, 603120, Pitch_bend_c, 5, 8448
4, 603240, Pitch_bend_c, 5, 8704
4, 603360, Pitch_bend_c, 5, 8832
4, 603480, Pitch_bend_c, 5, 8960
4, 603600, Pitch_bend_c, 5, 9216
4, 603720, Pitch_bend_c, 5, 9344
4, 603840, Pitch_bend_c, 5, 9600
4, 603840, Pitch_bend_c, 5, 8192
4, 603840, Note_off_c, 5, 37, 95
4, 603840, Note_on_c, 4, 39, 95
4, 604800, Note_off_c, 4, 39, 95
4, 604800, Note_on_c, 4, 39, 95
4, 606000, Note_off_c, 4, 39, 95
4, 606240, Note_on_c, 4, 34, 95
4, 606720, Note_off_c, 4, 34, 95
4, 606720, Note_on_c, 4, 37, 95
4, 608160, Note_off_c, 4, 37, 95
4, 608160, Note_on_c, 4, 39, 95
4, 608640, Note_off_c, 4, 39, 95
4, 608640, Note_on_c, 4, 30, 95
4, 609600, Note_off_c, 4, 30, 95
4, 609600, Note_on_c, 4, 27, 95
4, 610560, Note_off_c, 4, 27, 95
4, 610560, Note_on_c, 5, 37, 95
4, 610680, Pitch_bend_c, 5, 8320
4, 610800, Pitch_bend_c, 5, 8448
4, 610920, Pitch_bend_c, 5, 8704
4, 611040, Pitch_bend_c, 5, 8832
4, 611160, Pitch_bend_c, 5, 8960
4, 611280, Pitch_bend_c, 5, 9216
4, 611400, Pitch_bend_c, 5, 9344
4, 611520, Pitch_bend_c, 5, 9600
4, 611520, Pitch_bend_c, 5, 8192
4, 611520, Note_off_c, 5, 37, 95
4, 611520, Note_on_c, 4, 39, 95
4, 612480, Note_off_c, 4, 39, 95
4, 612480, Note_on_c, 4, 39, 95
4, 613680, Note_off_c, 4, 39, 95
4, 613920, Note_on_c, 4, 34, 95
4, 614400, Note_off_c, 4, 34, 95
4, 614400, Note_on_c, 4, 37, 95
4, 615840, Note_off_c, 4, 37, 95
4, 615840, Note_on_c, 4, 39, 95
4, 616320, Note_off_c, 4, 39, 95
4, 616320, Note_on_c, 4, 30, 95
4, 617280, Note_off_c, 4, 30, 95
4, 617280, Note_on_c, 4, 27, 95
4, 618240, Note_off_c, 4, 27, 95
4, 618240, Note_on_c, 5, 37, 95
4, 618360, Pitch_bend_c, 5, 8320
4, 618480, Pitch_bend_c, 5, 8448
4, 618600, Pitch_bend_c, 5, 8704
4, 618720, Pitch_bend_c, 5, 8832
4, 618840, Pitch_bend_c, 5, 8960
4, 618960, Pitch_bend_c, 5, 9216
4, 619080, Pitch_bend_c, 5, 9344
4, 619200, Pitch_bend_c, 5, 9600
4, 619200, Pitch_bend_c, 5, 8192
4, 619200, Note_off_c, 5, 37, 95
4, 619200, Note_on_c, 4, 39, 95
4, 620160, Note_off_c, 4, 39, 95
4, 620160, Note_on_c, 4, 39, 95
4, 621360, Note_off_c, 4, 39, 95
4, 621600, Note_on_c, 4, 34, 95
4, 622080, Note_off_c, 4, 34, 95
4, 622080, Note_on_c, 4, 37, 95
4, 623520, Note_off_c, 4, 37, 95
4, 623520, Note_on_c, 4, 39, 95
4, 624000, Note_off_c, 4, 39, 95
4, 624000, Note_on_c, 4, 30, 95
4, 624960, Note_off_c, 4, 30, 95
4, 624960, Note_on_c, 4, 27, 95
4, 625920, Note_off_c, 4, 27, 95
4, 625920, Note_on_c, 5, 37, 95
4, 626040, Pitch_bend_c, 5, 8320
4, 626160, Pitch_bend_c, 5, 8448
4, 626280, Pitch_bend_c, 5, 8704
4, 626400, Pitch_bend_c, 5, 8832
4, 626520, Pitch_bend_c, 5, 8960
4, 626640, Pitch_bend_c, 5, 9216
4, 626760, Pitch_bend_c, 5, 9344
4, 626880, Pitch_bend_c, 5, 9600
4, 626880, Pitch_bend_c, 5, 8192
4, 626880, Note_off_c, 5, 37, 95
4, 626880, Note_on_c, 4, 39, 95
4, 627840, Note_off_c, 4, 39, 95
4, 627840, Note_on_c, 4, 44, 95
4, 628800, Note_off_c, 4, 44, 95
4, 628800, Note_on_c, 4, 42, 95
4, 629760, Note_off_c, 4, 42, 95
4, 629760, Note_on_c, 4, 37, 95
4, 631200, Note_off_c, 4, 37, 95
4, 631200, Note_on_c, 4, 39, 95
4, 631680, Note_off_c, 4, 39, 95
4, 631680, Note_on_c, 4, 30, 95
4, 632640, Note_off_c, 4, 30, 95
4, 632640, Note_on_c, 4, 27, 95
4, 633600, Note_off_c, 4, 27, 95
4, 633600, Note_on_c, 5, 37, 95
4, 633720, Pitch_bend_c, 5, 8320
4, 633840, Pitch_bend_c, 5, 8448
4, 633960, Pitch_bend_c, 5, 8704
4, 634080, Pitch_bend_c, 5, 8832
4, 634200, Pitch_bend_c, 5, 8960
4, 634320, Pitch_bend_c, 5, 9216
4, 634440, Pitch_bend_c, 5, 9344
4, 634560, Pitch_bend_c, 5, 9600
4, 634560, Pitch_bend_c, 5, 8192
4, 634560, Note_off_c, 5, 37, 95
4, 634560, Note_on_c, 4, 39, 95
4, 635520, Note_off_c, 4, 39, 95
4, 635520, Note_on_c, 4, 39, 95
4, 636720, Note_off_c, 4, 39, 95
4, 636960, Note_on_c, 4, 34, 95
4, 637440, Note_off_c, 4, 34, 95
4, 637440, Note_on_c, 4, 37, 95
4, 638880, Note_off_c, 4, 37, 95
4, 638880, Note_on_c, 4, 39, 95
4, 639360, Note_off_c, 4, 39, 95
4, 639360, Note_on_c, 4, 30, 95
4, 640320, Note_off_c, 4, 30, 95
4, 640320, Note_on_c, 4, 27, 95
4, 641280, Note_off_c, 4, 27, 95
4, 641280, Note_on_c, 5, 37, 95
4, 641400, Pitch_bend_c, 5, 8320
4, 641520, Pitch_bend_c, 5, 8448
4, 641640, Pitch_bend_c, 5, 8704
4, 641760, Pitch_bend_c, 5, 8832
4, 641880, Pitch_bend_c, 5, 8960
4, 642000, Pitch_bend_c, 5, 9216
4, 642120, Pitch_bend_c, 5, 9344
4, 642240, Pitch_bend_c, 5, 9600
4, 642240, Pitch_bend_c, 5, 8192
4, 642240, Note_off_c, 5, 37, 95
4, 642240, Note_on_c, 4, 39, 95
4, 643200, Note_off_c, 4, 39, 95
4, 643200, Note_on_c, 4, 39, 95
4, 644400, Note_off_c, 4, 39, 95
4, 644640, Note_on_c, 4, 34, 95
4, 645120, Note_off_c, 4, 34, 95
4, 645120, Note_on_c, 4, 37, 95
4, 646560, Note_off_c, 4, 37, 95
4, 646560, Note_on_c, 4, 39, 95
4, 647040, Note_off_c, 4, 39, 95
4, 647040, Note_on_c, 4, 30, 95
4, 648000, Note_off_c, 4, 30, 95
4, 648000, Note_on_c, 4, 27, 95
4, 648960, Note_off_c, 4, 27, 95
4, 648960, Note_on_c, 5, 37, 95
4, 649080, Pitch_bend_c, 5, 8320
4, 649200, Pitch_bend_c, 5, 8448
4, 649320, Pitch_bend_c, 5, 8704
4, 649440, Pitch_bend_c, 5, 8832
4, 649560, Pitch_bend_c, 5, 8960
4, 649680, Pitch_bend_c, 5, 9216
4, 649800, Pitch_bend_c, 5, 9344
4, 649920, Pitch_bend_c, 5, 9600
4, 649920, Pitch_bend_c, 5, 8192
4, 649920, Note_off_c, 5, 37, 95
4, 649920, Note_on_c, 4, 39, 95
4, 650880, Note_off_c, 4, 39, 95
4, 650880, Note_on_c, 4, 39, 95
4, 652080, Note_off_c, 4, 39, 95
4, 652320, Note_on_c, 4, 34, 95
4, 652800, Note_off_c, 4, 34, 95
4, 652800, Note_on_c, 4, 37, 95
4, 654240, Note_off_c, 4, 37, 95
4, 654240, Note_on_c, 4, 39, 95
4, 654720, Note_off_c, 4, 39, 95
4, 654720, Note_on_c, 4, 30, 95
4, 655680, Note_off_c, 4, 30, 95
4, 655680, Note_on_c, 4, 27, 95
4, 656640, Note_off_c, 4, 27, 95
4, 656640, Note_on_c, 4, 37, 95
4, 658080, Note_off_c, 4, 37, 95
4, 658080, Note_on_c, 4, 39, 95
4, 658560, Note_off_c, 4, 39, 95
4, 658560, Note_on_c, 4, 30, 95
4, 659520, Note_off_c, 4, 30, 95
4, 659520, Note_on_c, 4, 27, 95
4, 660480, Note_off_c, 4, 27, 95
4, 660480, Note_on_c, 5, 37, 95
4, 660600, Pitch_bend_c, 5, 8320
4, 660720, Pitch_bend_c, 5, 8448
4, 660840, Pitch_bend_c, 5, 8704
4, 660960, Pitch_bend_c, 5, 8832
4, 661080, Pitch_bend_c, 5, 8960
4, 661200, Pitch_bend_c, 5, 9216
4, 661320, Pitch_bend_c, 5, 9344
4, 661440, Pitch_bend_c, 5, 9600
4, 661440, Pitch_bend_c, 5, 8192
4, 661440, Note_off_c, 5, 37, 95
4, 661440, Note_on_c, 4, 39, 95
4, 662400, Note_off_c, 4, 39, 95
4, 662400, Note_on_c, 4, 39, 95
4, 663600, Note_off_c, 4, 39, 95
4, 663840, Note_on_c, 4, 34, 95
4, 664320, Note_off_c, 4, 34, 95
4, 664320, Note_on_c, 4, 37, 95
4, 665760, Note_off_c, 4, 37, 95
4, 665760, Note_on_c, 4, 39, 95
4, 666240, Note_off_c, 4, 39, 95
4, 666240, Note_on_c, 4, 30, 95
4, 667200, Note_off_c, 4, 30, 95
4, 667200, Note_on_c, 4, 27, 95
4, 668160, Note_off_c, 4, 27, 95
4, 668160, Note_on_c, 5, 37, 95
4, 668280, Pitch_bend_c, 5, 8320
4, 668400, Pitch_bend_c, 5, 8448
4, 668520, Pitch_bend_c, 5, 8704
4, 668640, Pitch_bend_c, 5, 8832
4, 668760, Pitch_bend_c, 5, 8960
4, 668880, Pitch_bend_c, 5, 9216
4, 669000, Pitch_bend_c, 5, 9344
4, 669120, Pitch_bend_c, 5, 9600
4, 669120, Pitch_bend_c, 5, 8192
4, 669120, Note_off_c, 5, 37, 95
4, 669120, Note_on_c, 4, 39, 95
4, 670080, Note_off_c, 4, 39, 95
4, 670080, Note_on_c, 4, 39, 95
4, 671280, Note_off_c, 4, 39, 95
4, 671520, Note_on_c, 4, 34, 95
4, 672000, Note_off_c, 4, 34, 95
4, 672000, Note_on_c, 4, 37, 95
4, 673440, Note_off_c, 4, 37, 95
4, 673440, Note_on_c, 4, 39, 95
4, 673920, Note_off_c, 4, 39, 95
4, 673920, Note_on_c, 4, 30, 95
4, 674880, Note_off_c, 4, 30, 95
4, 674880, Note_on_c, 4, 27, 95
4, 675840, Note_off_c, 4, 27, 95
4, 675840, Note_on_c, 5, 37, 95
4, 675960, Pitch_bend_c, 5, 8320
4, 676080, Pitch_bend_c, 5, 8448
4, 676200, Pitch_bend_c, 5, 8704
4, 676320, Pitch_bend_c, 5, 8832
4, 676440, Pitch_bend_c, 5, 8960
4, 676560, Pitch_bend_c, 5, 9216
4, 676680, Pitch_bend_c, 5, 9344
4, 676800, Pitch_bend_c, 5, 9600
4, 676800, Pitch_bend_c, 5, 8192
4, 676800, Note_off_c, 5, 37, 95
4, 676800, Note_on_c, 4, 39, 95
4, 677760, Note_off_c, 4, 39, 95
4, 677760, Note_on_c, 4, 44, 95
4, 678720, Note_off_c, 4, 44, 95
4, 678720, Note_on_c, 4, 42, 95
4, 679680, Note_off_c, 4, 42, 95
4, 679680, Note_on_c, 4, 37, 95
4, 681120, Note_off_c, 4, 37, 95
4, 681120, Note_on_c, 4, 39, 95
4, 681600, Note_off_c, 4, 39, 95
4, 681600, Note_on_c, 4, 30, 95
4, 682560, Note_off_c, 4, 30, 95
4, 682560, Note_on_c, 4, 27, 95
4, 683520, Note_off_c, 4, 27, 95
4, 683520, Note_on_c, 5, 37, 95
4, 683640, Pitch_bend_c, 5, 8320
4, 683760, Pitch_bend_c, 5, 8448
4, 683880, Pitch_bend_c, 5, 8704
4, 684000, Pitch_bend_c, 5, 8832
4, 684120, Pitch_bend_c, 5, 8960
4, 684240, Pitch_bend_c, 5, 9216
4, 684360, Pitch_bend_c, 5, 9344
4, 684480, Pitch_bend_c, 5, 9600
4, 684480, Pitch_bend_c, 5, 8192
4, 684480, Note_off_c, 5, 37, 95
4, 684480, Note_on_c, 4, 39, 95
4, 685440, Note_off_c, 4, 39, 95
4, 685440, Note_on_c, 4, 39, 95
4, 686640, Note_off_c, 4, 39, 95
4, 686880, Note_on_c, 4, 34, 95
4, 687360, Note_off_c, 4, 34, 95
4, 687360, Note_on_c, 4, 37, 95
4, 688800, Note_off_c, 4, 37, 95
4, 688800, Note_on_c, 4, 39, 95
4, 689280, Note_off_c, 4, 39, 95
4, 689280, Note_on_c, 4, 30, 95
4, 690240, Note_off_c, 4, 30, 95
4, 690240, Note_on_c, 4, 27, 95
4, 691200, Note_off_c, 4, 27, 95
4, 691200, Note_on_c, 5, 37, 95
4, 691320, Pitch_bend_c, 5, 8320
4, 691440, Pitch_bend_c, 5, 8448
4, 691560, Pitch_bend_c, 5, 8704
4, 691680, Pitch_bend_c, 5, 8832
4, 691800, Pitch_bend_c, 5, 8960
4, 691920, Pitch_bend_c, 5, 9216
4, 692040, Pitch_bend_c, 5, 9344
4, 692160, Pitch_bend_c, 5, 9600
4, 692160, Pitch_bend_c, 5, 8192
4, 692160, Note_off_c, 5, 37, 95
4, 692160, Note_on_c, 4, 39, 95
4, 693120, Note_off_c, 4, 39, 95
4, 693120, Note_on_c, 4, 39, 95
4, 694320, Note_off_c, 4, 39, 95
4, 694560, Note_on_c, 4, 34, 95
4, 695040, Note_off_c, 4, 34, 95
4, 695040, Note_on_c, 4, 37, 95
4, 696480, Note_off_c, 4, 37, 95
4, 696480, Note_on_c, 4, 39, 95
4, 696960, Note_off_c, 4, 39, 95
4, 696960, Note_on_c, 4, 30, 95
4, 697920, Note_off_c, 4, 30, 95
4, 697920, Note_on_c, 4, 27, 95
4, 698880, Note_off_c, 4, 27, 95
4, 698880, Note_on_c, 5, 37, 95
4, 699000, Pitch_bend_c, 5, 8320
4, 699120, Pitch_bend_c, 5, 8448
4, 699240, Pitch_bend_c, 5, 8704
4, 699360, Pitch_bend_c, 5, 8832
4, 699480, Pitch_bend_c, 5, 8960
4, 699600, Pitch_bend_c, 5, 9216
4, 699720, Pitch_bend_c, 5, 9344
4, 699840, Pitch_bend_c, 5, 9600
4, 699840, Pitch_bend_c, 5, 8192
4, 699840, Note_off_c, 5, 37, 95
4, 699840, Note_on_c, 4, 39, 95
4, 700800, Note_off_c, 4, 39, 95
4, 700800, Note_on_c, 4, 39, 95
4, 702000, Note_off_c, 4, 39, 95
4, 702240, Note_on_c, 4, 34, 95
4, 702720, Note_off_c, 4, 34, 95
4, 702720, Note_on_c, 4, 37, 95
4, 704160, Note_off_c, 4, 37, 95
4, 704160, Note_on_c, 4, 39, 95
4, 704640, Note_off_c, 4, 39, 95
4, 704640, Note_on_c, 4, 30, 95
4, 705600, Note_off_c, 4, 30, 95
4, 705600, Note_on_c, 4, 27, 95
4, 706560, Note_off_c, 4, 27, 95
4, 706560, Note_on_c, 5, 37, 95
4, 706680, Pitch_bend_c, 5, 8320
4, 706800, Pitch_bend_c, 5, 8448
4, 706920, Pitch_bend_c, 5, 8704
4, 707040, Pitch_bend_c, 5, 8832
4, 707160, Pitch_bend_c, 5, 8960
4, 707280, Pitch_bend_c, 5, 9216
4, 707400, Pitch_bend_c, 5, 9344
4, 707520, Pitch_bend_c, 5, 9600
4, 707520, Pitch_bend_c, 5, 8192
4, 707520, Note_off_c, 5, 37, 95
4, 707520, Note_on_c, 4, 39, 95
4, 708480, Note_off_c, 4, 39, 95
4, 708480, Note_on_c, 4, 44, 95
4, 709440, Note_off_c, 4, 44, 95
4, 709440, Note_on_c, 4, 42, 95
4, 710400, Note_off_c, 4, 42, 95
4, 710400, Note_on_c, 4, 37, 95
4, 711840, Note_off_c, 4, 37, 95
4, 711840, Note_on_c, 4, 39, 95
4, 712320, Note_off_c, 4, 39, 95
4, 712320, Note_on_c, 4, 30, 95
4, 713280, Note_off_c, 4, 30, 95
4, 713280, Note_on_c, 4, 27, 95
4, 714240, Note_off_c, 4, 27, 95
4, 714240, Note_on_c, 5, 37, 95
4, 714360, Pitch_bend_c, 5, 8320
4, 714480, Pitch_bend_c, 5, 8448
4, 714600, Pitch_bend_c, 5, 8704
4, 714720, Pitch_bend_c, 5, 8832
4, 714840, Pitch_bend_c, 5, 8960
4, 714960, Pitch_bend_c, 5, 9216
4, 715080, Pitch_bend_c, 5, 9344
4, 715200, Pitch_bend_c, 5, 9600
4, 715200, Pitch_bend_c, 5, 8192
4, 715200, Note_off_c, 5, 37, 95
4, 715200, Note_on_c, 4, 39, 95
4, 716160, Note_off_c, 4, 39, 95
4, 716160, Note_on_c, 4, 39, 95
4, 717360, Note_off_c, 4, 39, 95
4, 717600, Note_on_c, 4, 34, 95
4, 718080, Note_off_c, 4, 34, 95
4, 718080, Note_on_c, 4, 37, 95
4, 719520, Note_off_c, 4, 37, 95
4, 719520, Note_on_c, 4, 39, 95
4, 720000, Note_off_c, 4, 39, 95
4, 720000, Note_on_c, 4, 30, 95
4, 720960, Note_off_c, 4, 30, 95
4, 720960, Note_on_c, 4, 27, 95
4, 721920, Note_off_c, 4, 27, 95
4, 721920, Note_on_c, 5, 37, 95
4, 722040, Pitch_bend_c, 5, 8320
4, 722160, Pitch_bend_c, 5, 8448
4, 722280, Pitch_bend_c, 5, 8704
4, 722400, Pitch_bend_c, 5, 8832
4, 722520, Pitch_bend_c, 5, 8960
4, 722640, Pitch_bend_c, 5, 9216
4, 722760, Pitch_bend_c, 5, 9344
4, 722880, Pitch_bend_c, 5, 9600
4, 722880, Pitch_bend_c, 5, 8192
4, 722880, Note_off_c, 5, 37, 95
4, 722880, Note_on_c, 4, 39, 95
4, 723840, Note_off_c, 4, 39, 95
4, 723840, Note_on_c, 4, 44, 95
4, 724800, Note_off_c, 4, 44, 95
4, 724800, Note_on_c, 4, 42, 95
4, 725760, Note_off_c, 4, 42, 95
4, 725760, Note_on_c, 4, 37, 95
4, 727200, Note_off_c, 4, 37, 95
4, 727200, Note_on_c, 4, 39, 95
4, 727680, Note_off_c, 4, 39, 95
4, 727680, Note_on_c, 4, 30, 95
4, 728640, Note_off_c, 4, 30, 95
4, 728640, Note_on_c, 4, 27, 95
4, 729600, Note_off_c, 4, 27, 95
4, 729600, Note_on_c, 5, 37, 95
4, 729720, Pitch_bend_c, 5, 8320
4, 729840, Pitch_bend_c, 5, 8448
4, 729960, Pitch_bend_c, 5, 8704
4, 730080, Pitch_bend_c, 5, 8832
4, 730200, Pitch_bend_c, 5, 8960
4, 730320, Pitch_bend_c, 5, 9216
4, 730440, Pitch_bend_c, 5, 9344
4, 730560, Pitch_bend_c, 5, 9600
4, 730560, Pitch_bend_c, 5, 8192
4, 730560, Note_off_c, 5, 37, 95
4, 730560, Note_on_c, 4, 39, 95
4, 731520, Note_off_c, 4, 39, 95
4, 731520, Note_on_c, 4, 39, 95
4, 732720, Note_off_c, 4, 39, 95
4, 732960, Note_on_c, 4, 34, 95
4, 733440, Note_off_c, 4, 34, 95
4, 733440, Note_on_c, 4, 37, 95
4, 734880, Note_off_c, 4, 37, 95
4, 734880, Note_on_c, 4, 39, 95
4, 735360, Note_off_c, 4, 39, 95
4, 735360, Note_on_c, 4, 30, 95
4, 736320, Note_off_c, 4, 30, 95
4, 736320, Note_on_c, 4, 27, 95
4, 737280, Note_off_c, 4, 27, 95
4, 737280, Note_on_c, 5, 37, 95
4, 737400, Pitch_bend_c, 5, 8320
4, 737520, Pitch_bend_c, 5, 8448
4, 737640, Pitch_bend_c, 5, 8704
4, 737760, Pitch_bend_c, 5, 8832
4, 737880, Pitch_bend_c, 5, 8960
4, 738000, Pitch_bend_c, 5, 9216
4, 738120, Pitch_bend_c, 5, 9344
4, 738240, Pitch_bend_c, 5, 9600
4, 738240, Pitch_bend_c, 5, 8192
4, 738240, Note_off_c, 5, 37, 95
4, 738240, Note_on_c, 4, 39, 95
4, 739200, Note_off_c, 4, 39, 95
4, 739200, Note_on_c, 4, 44, 95
4, 740160, Note_off_c, 4, 44, 95
4, 740160, Note_on_c, 4, 42, 95
4, 741120, Note_off_c, 4, 42, 95
4, 741120, Note_on_c, 4, 37, 95
4, 742560, Note_off_c, 4, 37, 95
4, 742560, Note_on_c, 4, 39, 95
4, 743040, Note_off_c, 4, 39, 95
4, 743040, Note_on_c, 4, 30, 95
4, 744000, Note_off_c, 4, 30, 95
4, 744000, Note_on_c, 4, 27, 95
4, 744960, Note_off_c, 4, 27, 95
4, 744960, Note_on_c, 5, 37, 95
4, 745080, Pitch_bend_c, 5, 8320
4, 745200, Pitch_bend_c, 5, 8448
4, 745320, Pitch_bend_c, 5, 8704
4, 745440, Pitch_bend_c, 5, 8832
4, 745560, Pitch_bend_c, 5, 8960
4, 745680, Pitch_bend_c, 5, 9216
4, 745800, Pitch_bend_c, 5, 9344
4, 745920, Pitch_bend_c, 5, 9600
4, 745920, Pitch_bend_c, 5, 8192
4, 745920, Note_off_c, 5, 37, 95
4, 745920, Note_on_c, 4, 39, 95
4, 746880, Note_off_c, 4, 39, 95
4, 746880, Note_on_c, 4, 39, 95
4, 748080, Note_off_c, 4, 39, 95
4, 748320, Note_on_c, 4, 34, 95
4, 748800, Note_off_c, 4, 34, 95
4, 748800, Note_on_c, 4, 37, 95
4, 750240, Note_off_c, 4, 37, 95
4, 750240, Note_on_c, 4, 39, 95
4, 750720, Note_off_c, 4, 39, 95
4, 750720, Note_on_c, 4, 30, 95
4, 751680, Note_off_c, 4, 30, 95
4, 751680, Note_on_c, 4, 27, 95
4, 752640, Note_off_c, 4, 27, 95
4, 752640, Note_on_c, 5, 37, 95
4, 752760, Pitch_bend_c, 5, 8320
4, 752880, Pitch_bend_c, 5, 8448
4, 753000, Pitch_bend_c, 5, 8704
4, 753120, Pitch_bend_c, 5, 8832
4, 753240, Pitch_bend_c, 5, 8960
4, 753360, Pitch_bend_c, 5, 9216
4, 753480, Pitch_bend_c, 5, 9344
4, 753600, Pitch_bend_c, 5, 9600
4, 753600, Pitch_bend_c, 5, 8192
4, 753600, Note_off_c, 5, 37, 95
4, 753600, Note_on_c, 4, 39, 95
4, 754560, Note_off_c, 4, 39, 95
4, 754560, Note_on_c, 4, 39, 95
4, 755760, Note_off_c, 4, 39, 95
4, 756000, Note_on_c, 4, 34, 95
4, 756480, Note_off_c, 4, 34, 95
4, 756480, Note_on_c, 4, 37, 95
4, 757920, Note_off_c, 4, 37, 95
4, 757920, Note_on_c, 4, 39, 95
4, 758400, Note_off_c, 4, 39, 95
4, 758400, Note_on_c, 4, 30, 95
4, 759360, Note_off_c, 4, 30, 95
4, 759360, Note_on_c, 4, 27, 95
4, 760320, Note_off_c, 4, 27, 95
4, 760320, Note_on_c, 5, 37, 95
4, 760440, Pitch_bend_c, 5, 8320
4, 760560, Pitch_bend_c, 5, 8448
4, 760680, Pitch_bend_c, 5, 8704
4, 760800, Pitch_bend_c, 5, 8832
4, 760920, Pitch_bend_c, 5, 8960
4, 761040, Pitch_bend_c, 5, 9216
4, 761160, Pitch_bend_c, 5, 9344
4, 761280, Pitch_bend_c, 5, 9600
4, 761280, Pitch_bend_c, 5, 8192
4, 761280, Note_off_c, 5, 37, 95
4, 761280, Note_on_c, 4, 39, 95
4, 762240, Note_off_c, 4, 39, 95
4, 762240, Note_on_c, 4, 39, 95
4, 763440, Note_off_c, 4, 39, 95
4, 763680, Note_on_c, 4, 34, 95
4, 764160, Note_off_c, 4, 34, 95
4, 764160, Note_on_c, 4, 37, 95
4, 765600, Note_off_c, 4, 37, 95
4, 765600, Note_on_c, 4, 39, 95
4, 766080, Note_off_c, 4, 39, 95
4, 766080, Note_on_c, 4, 30, 95
4, 767040, Note_off_c, 4, 30, 95
4, 767040, Note_on_c, 4, 27, 95
4, 768000, Note_off_c, 4, 27, 95
4, 768000, Note_on_c, 5, 37, 95
4, 768120, Pitch_bend_c, 5, 8320
4, 768240, Pitch_bend_c, 5, 8448
4, 768360, Pitch_bend_c, 5, 8704
4, 768480, Pitch_bend_c, 5, 8832
4, 768600, Pitch_bend_c, 5, 8960
4, 768720, Pitch_bend_c, 5, 9216
4, 768840, Pitch_bend_c, 5, 9344
4, 768960, Pitch_bend_c, 5, 9600
4, 768960, Pitch_bend_c, 5, 8192
4, 768960, Note_off_c, 5, 37, 95
4, 768960, Note_on_c, 4, 39, 95
4, 769920, Note_off_c, 4, 39, 95
4, 769920, Note_on_c, 4, 39, 95
4, 771120, Note_off_c, 4, 39, 95
4, 771360, Note_on_c, 4, 34, 95
4, 771840, Note_off_c, 4, 34, 95
4, 771840, Note_on_c, 4, 37, 95
4, 773280, Note_off_c, 4, 37, 95
4, 773280, Note_on_c, 4, 39, 95
4, 773760, Note_off_c, 4, 39, 95
4, 773760, Note_on_c, 4, 30, 95
4, 774720, Note_off_c, 4, 30, 95
4, 774720, Note_on_c, 4, 27, 95
4, 775680, Note_off_c, 4, 27, 95
4, 775680, Note_on_c, 5, 37, 95
4, 775800, Pitch_bend_c, 5, 8320
4, 775920, Pitch_bend_c, 5, 8448
4, 776040, Pitch_bend_c, 5, 8704
4, 776160, Pitch_bend_c, 5, 8832
4, 776280, Pitch_bend_c, 5, 8960
4, 776400, Pitch_bend_c, 5, 9216
4, 776520, Pitch_bend_c, 5, 9344
4, 776640, Pitch_bend_c, 5, 9600
4, 776640, Pitch_bend_c, 5, 8192
4, 776640, Note_off_c, 5, 37, 95
4, 776640, Note_on_c, 4, 39, 95
4, 777600, Note_off_c, 4, 39, 95
4, 777600, Note_on_c, 4, 39, 95
4, 778800, Note_off_c, 4, 39, 95
4, 779040, Note_on_c, 4, 34, 95
4, 779520, Note_off_c, 4, 34, 95
4, 779520, Note_on_c, 4, 37, 95
4, 780960, Note_off_c, 4, 37, 95
4, 780960, Note_on_c, 4, 39, 95
4, 781440, Note_off_c, 4, 39, 95
4, 781440, Note_on_c, 4, 30, 95
4, 782400, Note_off_c, 4, 30, 95
4, 782400, Note_on_c, 4, 27, 95
4, 783360, Note_off_c, 4, 27, 95
4, 783360, Note_on_c, 5, 37, 95
4, 783480, Pitch_bend_c, 5, 8320
4, 783600, Pitch_bend_c, 5, 8448
4, 783720, Pitch_bend_c, 5, 8704
4, 783840, Pitch_bend_c, 5, 8832
4, 783960, Pitch_bend_c, 5, 8960
4, 784080, Pitch_bend_c, 5, 9216
4, 784200, Pitch_bend_c, 5, 9344
4, 784320, Pitch_bend_c, 5, 9600
4, 784320, Pitch_bend_c, 5, 8192
4, 784320, Note_off_c, 5, 37, 95
4, 784320, Note_on_c, 4, 39, 95
4, 785280, Note_off_c, 4, 39, 95
4, 785280, Note_on_c, 4, 39, 95
4, 786480, Note_off_c, 4, 39, 95
4, 786720, Note_on_c, 4, 34, 95
4, 787200, Note_off_c, 4, 34, 95
4, 787200, Note_on_c, 4, 37, 95
4, 788640, Note_off_c, 4, 37, 95
4, 788640, Note_on_c, 4, 39, 95
4, 789120, Note_off_c, 4, 39, 95
4, 789120, Note_on_c, 4, 30, 95
4, 790080, Note_off_c, 4, 30, 95
4, 790080, Note_on_c, 4, 27, 95
4, 791040, Note_off_c, 4, 27, 95
4, 791040, Note_on_c, 5, 37, 95
4, 791160, Pitch_bend_c, 5, 8320
4, 791280, Pitch_bend_c, 5, 8448
4, 791400, Pitch_bend_c, 5, 8704
4, 791520, Pitch_bend_c, 5, 8832
4, 791640, Pitch_bend_c, 5, 8960
4, 791760, Pitch_bend_c, 5, 9216
4, 791880, Pitch_bend_c, 5, 9344
4, 792000, Pitch_bend_c, 5, 9600
4, 792000, Pitch_bend_c, 5, 8192
4, 792000, Note_off_c, 5, 37, 95
4, 792000, Note_on_c, 4, 39, 95
4, 792960, Note_off_c, 4, 39, 95
4, 792960, Note_on_c, 4, 44, 95
4, 793920, Note_off_c, 4, 44, 95
4, 793920, Note_on_c, 4, 42, 95
4, 794880, Note_off_c, 4, 42, 95
4, 794880, Note_on_c, 4, 37, 95
4, 796320, Note_off_c, 4, 37, 95
4, 796320, Note_on_c, 4, 39, 95
4, 796800, Note_off_c, 4, 39, 95
4, 796800, Note_on_c, 4, 30, 95
4, 797760, Note_off_c, 4, 30, 95
4, 797760, Note_on_c, 4, 27, 95
4, 798720, Note_off_c, 4, 27, 95
4, 798720, Note_on_c, 5, 37, 95
4, 798840, Pitch_bend_c, 5, 8320
4, 798960, Pitch_bend_c, 5, 8448
4, 799080, Pitch_bend_c, 5, 8704
4, 799200, Pitch_bend_c, 5, 8832
4, 799320, Pitch_bend_c, 5, 8960
4, 799440, Pitch_bend_c, 5, 9216
4, 799560, Pitch_bend_c, 5, 9344
4, 799680, Pitch_bend_c, 5, 9600
4, 799680, Pitch_bend_c, 5, 8192
4, 799680, Note_off_c, 5, 37, 95
4, 799680, Note_on_c, 4, 39, 95
4, 800640, Note_off_c, 4, 39, 95
4, 800640, Note_on_c, 4, 39, 95
4, 801840, Note_off_c, 4, 39, 95
4, 802080, Note_on_c, 4, 34, 95
4, 802560, Note_off_c, 4, 34, 95
4, 802560, Note_on_c, 4, 37, 95
4, 804000, Note_off_c, 4, 37, 95
4, 804000, Note_on_c, 4, 39, 95
4, 804480, Note_off_c, 4, 39, 95
4, 804480, Note_on_c, 4, 30, 95
4, 805440, Note_off_c, 4, 30, 95
4, 805440, Note_on_c, 4, 27, 95
4, 806400, Note_off_c, 4, 27, 95
4, 806400, Note_on_c, 5, 37, 95
4, 806520, Pitch_bend_c, 5, 8320
4, 806640, Pitch_bend_c, 5, 8448
4, 806760, Pitch_bend_c, 5, 8704
4, 806880, Pitch_bend_c, 5, 8832
4, 807000, Pitch_bend_c, 5, 8960
4, 807120, Pitch_bend_c, 5, 9216
4, 807240, Pitch_bend_c, 5, 9344
4, 807360, Pitch_bend_c, 5, 9600
4, 807360, Pitch_bend_c, 5, 8192
4, 807360, Note_off_c, 5, 37, 95
4, 807360, Note_on_c, 4, 39, 95
4, 808320, Note_off_c, 4, 39, 95
4, 808320, Note_on_c, 4, 39, 95
4, 809520, Note_off_c, 4, 39, 95
4, 809760, Note_on_c, 4, 34, 95
4, 810240, Note_off_c, 4, 34, 95
4, 810240, Note_on_c, 4, 37, 95
4, 811680, Note_off_c, 4, 37, 95
4, 811680, Note_on_c, 4, 39, 95
4, 812160, Note_off_c, 4, 39, 95
4, 812160, Note_on_c, 4, 30, 95
4, 813120, Note_off_c, 4, 30, 95
4, 813120, Note_on_c, 4, 27, 95
4, 814080, Note_off_c, 4, 27, 95
4, 814080, Note_on_c, 5, 37, 95
4, 814200, Pitch_bend_c, 5, 8320
4, 814320, Pitch_bend_c, 5, 8448
4, 814440, Pitch_bend_c, 5, 8704
4, 814560, Pitch_bend_c, 5, 8832
4, 814680, Pitch_bend_c, 5, 8960
4, 814800, Pitch_bend_c, 5, 9216
4, 814920, Pitch_bend_c, 5, 9344
4, 815040, Pitch_bend_c, 5, 9600
4, 815040, Pitch_bend_c, 5, 8192
4, 815040, Note_off_c, 5, 37, 95
4, 815040, Note_on_c, 4, 39, 95
4, 816000, Note_off_c, 4, 39, 95
4, 816000, Note_on_c, 4, 39, 95
4, 817200, Note_off_c, 4, 39, 95
4, 817440, Note_on_c, 4, 34, 95
4, 817920, Note_off_c, 4, 34, 95
4, 817920, Note_on_c, 4, 37, 95
4, 819360, Note_off_c, 4, 37, 95
4, 819360, Note_on_c, 4, 39, 95
4, 819840, Note_off_c, 4, 39, 95
4, 819840, Note_on_c, 4, 30, 95
4, 820800, Note_off_c, 4, 30, 95
4, 820800, Note_on_c, 4, 27, 95
4, 821760, Note_off_c, 4, 27, 95
4, 821760, Note_on_c, 5, 37, 95
4, 821880, Pitch_bend_c, 5, 8320
4, 822000, Pitch_bend_c, 5, 8448
4, 822120, Pitch_bend_c, 5, 8704
4, 822240, Pitch_bend_c, 5, 8832
4, 822360, Pitch_bend_c, 5, 8960
4, 822480, Pitch_bend_c, 5, 9216
4, 822600, Pitch_bend_c, 5, 9344
4, 822720, Pitch_bend_c, 5, 9600
4, 822720, Pitch_bend_c, 5, 8192
4, 822720, Note_off_c, 5, 37, 95
4, 822720, Note_on_c, 4, 39, 95
4, 823680, Note_off_c, 4, 39, 95
4, 823680, Note_on_c, 4, 39, 95
4, 824880, Note_off_c, 4, 39, 95
4, 825120, Note_on_c, 4, 34, 95
4, 825600, Note_off_c, 4, 34, 95
4, 825600, Note_on_c, 4, 37, 95
4, 827040, Note_off_c, 4, 37, 95
4, 827040, Note_on_c, 4, 39, 95
4, 827520, Note_off_c, 4, 39, 95
4, 827520, Note_on_c, 4, 30, 95
4, 828480, Note_off_c, 4, 30, 95
4, 828480, Note_on_c, 4, 27, 95
4, 829440, Note_off_c, 4, 27, 95
4, 829440, Note_on_c, 5, 37, 95
4, 829560, Pitch_bend_c, 5, 8320
4, 829680, Pitch_bend_c, 5, 8448
4, 829800, Pitch_bend_c, 5, 8704
4, 829920, Pitch_bend_c, 5, 8832
4, 830040, Pitch_bend_c, 5, 8960
4, 830160, Pitch_bend_c, 5, 9216
4, 830280, Pitch_bend_c, 5, 9344
4, 830400, Pitch_bend_c, 5, 9600
4, 830400, Pitch_bend_c, 5, 8192
4, 830400, Note_off_c, 5, 37, 95
4, 830400, Note_on_c, 4, 39, 95
4, 831360, Note_off_c, 4, 39, 95
4, 831360, Note_on_c, 4, 39, 95
4, 832560, Note_off_c, 4, 39, 95
4, 832800, Note_on_c, 4, 34, 95
4, 833280, Note_off_c, 4, 34, 95
4, 833280, Note_on_c, 4, 37, 95
4, 834720, Note_off_c, 4, 37, 95
4, 834720, Note_on_c, 4, 39, 95
4, 835200, Note_off_c, 4, 39, 95
4, 835200, Note_on_c, 4, 30, 95
4, 836160, Note_off_c, 4, 30, 95
4, 836160, Note_on_c, 4, 27, 95
4, 837120, Note_off_c, 4, 27, 95
4, 837120, Note_on_c, 5, 37, 95
4, 837240, Pitch_bend_c, 5, 8320
4, 837360, Pitch_bend_c, 5, 8448
4, 837480, Pitch_bend_c, 5, 8704
4, 837600, Pitch_bend_c, 5, 8832
4, 837720, Pitch_bend_c, 5, 8960
4, 837840, Pitch_bend_c, 5, 9216
4, 837960, Pitch_bend_c, 5, 9344
4, 838080, Pitch_bend_c, 5, 9600
4, 838080, Pitch_bend_c, 5, 8192
4, 838080, Note_off_c, 5, 37, 95
4, 838080, Note_on_c, 4, 39, 95
4, 839040, Note_off_c, 4, 39, 95
4, 839040, Note_on_c, 4, 39, 95
4, 840240, Note_off_c, 4, 39, 95
4, 840480, Note_on_c, 4, 34, 95
4, 840960, Note_off_c, 4, 34, 95
4, 840960, Note_on_c, 4, 37, 95
4, 842400, Note_off_c, 4, 37, 95
4, 842400, Note_on_c, 4, 39, 95
4, 842880, Note_off_c, 4, 39, 95
4, 842880, Note_on_c, 4, 30, 95
4, 843840, Note_off_c, 4, 30, 95
4, 843840, Note_on_c, 4, 27, 95
4, 844800, Note_off_c, 4, 27, 95
4, 844800, Note_on_c, 5, 37, 95
4, 844920, Pitch_bend_c, 5, 8320
4, 845040, Pitch_bend_c, 5, 8448
4, 845160, Pitch_bend_c, 5, 8704
4, 845280, Pitch_bend_c, 5, 8832
4, 845400, Pitch_bend_c, 5, 8960
4, 845520, Pitch_bend_c, 5, 9216
4, 845640, Pitch_bend_c, 5, 9344
4, 845760, Pitch_bend_c, 5, 9600
4, 845760, Pitch_bend_c, 5, 8192
4, 845760, Note_off_c, 5, 37, 95
4, 845760, Note_on_c, 4, 39, 95
4, 846720, Note_off_c, 4, 39, 95
4, 846720, Note_on_c, 4, 39, 95
4, 847920, Note_off_c, 4, 39, 95
4, 848160, Note_on_c, 4, 34, 95
4, 848640, Note_off_c, 4, 34, 95
4, 848640, Note_on_c, 4, 37, 95
4, 850080, Note_off_c, 4, 37, 95
4, 850080, Note_on_c, 4, 39, 95
4, 850560, Note_off_c, 4, 39, 95
4, 850560, Note_on_c, 4, 30, 95
4, 851520, Note_off_c, 4, 30, 95
4, 851520, Note_on_c, 4, 27, 95
4, 852480, Note_off_c, 4, 27, 95
4, 852480, Note_on_c, 5, 37, 95
4, 852600, Pitch_bend_c, 5, 8320
4, 852720, Pitch_bend_c, 5, 8448
4, 852840, Pitch_bend_c, 5, 8704
4, 852960, Pitch_bend_c, 5, 8832
4, 853080, Pitch_bend_c, 5, 8960
4, 853200, Pitch_bend_c, 5, 9216
4, 853320, Pitch_bend_c, 5, 9344
4, 853440, Pitch_bend_c, 5, 9600
4, 853440, Pitch_bend_c, 5, 8192
4, 853440, Note_off_c, 5, 37, 95
4, 853440, Note_on_c, 4, 39, 95
4, 854400, Note_off_c, 4, 39, 95
4, 854400, Note_on_c, 4, 39, 95
4, 855600, Note_off_c, 4, 39, 95
4, 855840, Note_on_c, 4, 34, 95
4, 856320, Note_off_c, 4, 34, 95
4, 856320, Note_on_c, 4, 37, 95
4, 857760, Note_off_c, 4, 37, 95
4, 857760, Note_on_c, 4, 39, 95
4, 858240, Note_off_c, 4, 39, 95
4, 858240, Note_on_c, 4, 30, 95
4, 859200, Note_off_c, 4, 30, 95
4, 859200, Note_on_c, 4, 27, 95
4, 860160, Note_off_c, 4, 27, 95
4, 860160, Note_on_c, 5, 37, 95
4, 860280, Pitch_bend_c, 5, 8320
4, 860400, Pitch_bend_c, 5, 8448
4, 860520, Pitch_bend_c, 5, 8704
4, 860640, Pitch_bend_c, 5, 8832
4, 860760, Pitch_bend_c, 5, 8960
4, 860880, Pitch_bend_c, 5, 9216
4, 861000, Pitch_bend_c, 5, 9344
4, 861120, Pitch_bend_c, 5, 9600
4, 861120, Pitch_bend_c, 5, 8192
4, 861120, Note_off_c, 5, 37, 95
4, 861120, Note_on_c, 4, 39, 95
4, 862080, Note_off_c, 4, 39, 95
4, 862080, Note_on_c, 4, 39, 95
4, 863280, Note_off_c, 4, 39, 95
4, 863520, Note_on_c, 4, 34, 95
4, 864000, Note_off_c, 4, 34, 95
4, 864000, Note_on_c, 4, 37, 95
4, 865440, Note_off_c, 4, 37, 95
4, 865440, Note_on_c, 4, 39, 95
4, 865920, Note_off_c, 4, 39, 95
4, 865920, Note_on_c, 4, 30, 95
4, 866880, Note_off_c, 4, 30, 95
4, 866880, Note_on_c, 4, 27, 95
4, 867840, Note_off_c, 4, 27, 95
4, 867840, Note_on_c, 5, 37, 95
4, 867960, Pitch_bend_c, 5, 8320
4, 868080, Pitch_bend_c, 5, 8448
4, 868200, Pitch_bend_c, 5, 8704
4, 868320, Pitch_bend_c, 5, 8832
4, 868440, Pitch_bend_c, 5, 8960
4, 868560, Pitch_bend_c, 5, 9216
4, 868680, Pitch_bend_c, 5, 9344
4, 868800, Pitch_bend_c, 5, 9600
4, 868800, Pitch_bend_c, 5, 8192
4, 868800, Note_off_c, 5, 37, 95
4, 868800, Note_on_c, 4, 39, 95
4, 869760, Note_off_c, 4, 39, 95
4, 869760, Note_on_c, 4, 39, 95
4, 870960, Note_off_c, 4, 39, 95
4, 871200, Note_on_c, 4, 34, 95
4, 871680, Note_off_c, 4, 34, 95
4, 871680, Note_on_c, 4, 37, 95
4, 873120, Note_off_c, 4, 37, 95
4, 873120, Note_on_c, 4, 39, 95
4, 873600, Note_off_c, 4, 39, 95
4, 873600, Note_on_c, 4, 30, 95
4, 874560, Note_off_c, 4, 30, 95
4, 874560, Note_on_c, 4, 27, 95
4, 875520, Note_off_c, 4, 27, 95
4, 875520, Note_on_c, 5, 37, 95
4, 875640, Pitch_bend_c, 5, 8320
4, 875760, Pitch_bend_c, 5, 8448
4, 875880, Pitch_bend_c, 5, 8704
4, 876000, Pitch_bend_c, 5, 8832
4, 876120, Pitch_bend_c, 5, 8960
4, 876240, Pitch_bend_c, 5, 9216
4, 876360, Pitch_bend_c, 5, 9344
4, 876480, Pitch_bend_c, 5, 9600
4, 876480, Pitch_bend_c, 5, 8192
4, 876480, Note_off_c, 5, 37, 95
4, 876480, Note_on_c, 4, 39, 95
4, 877440, Note_off_c, 4, 39, 95
4, 877440, Note_on_c, 4, 39, 95
4, 878640, Note_off_c, 4, 39, 95
4, 878880, Note_on_c, 4, 34, 95
4, 879360, Note_off_c, 4, 34, 95
4, 879360, Note_on_c, 4, 37, 95
4, 880800, Note_off_c, 4, 37, 95
4, 880800, Note_on_c, 4, 39, 95
4, 881280, Note_off_c, 4, 39, 95
4, 881280, Note_on_c, 4, 30, 95
4, 882240, Note_off_c, 4, 30, 95
4, 882240, Note_on_c, 4, 27, 95
4, 883200, Note_off_c, 4, 27, 95
4, 883200, Note_on_c, 5, 37, 95
4, 883320, Pitch_bend_c, 5, 8320
4, 883440, Pitch_bend_c, 5, 8448
4, 883560, Pitch_bend_c, 5, 8704
4, 883680, Pitch_bend_c, 5, 8832
4, 883800, Pitch_bend_c, 5, 8960
4, 883920, Pitch_bend_c, 5, 9216
4, 884040, Pitch_bend_c, 5, 9344
4, 884160, Pitch_bend_c, 5, 9600
4, 884160, Pitch_bend_c, 5, 8192
4, 884160, Note_off_c, 5, 37, 95
4, 884160, Note_on_c, 4, 39, 95
4, 885120, Note_off_c, 4, 39, 95
4, 885120, Note_on_c, 4, 39, 95
4, 886320, Note_off_c, 4, 39, 95
4, 886560, Note_on_c, 4, 34, 95
4, 887040, Note_off_c, 4, 34, 95
4, 887040, Note_on_c, 4, 37, 95
4, 888480, Note_off_c, 4, 37, 95
4, 888480, Note_on_c, 4, 39, 95
4, 888960, Note_off_c, 4, 39, 95
4, 888960, Note_on_c, 4, 30, 95
4, 889920, Note_off_c, 4, 30, 95
4, 889920, Note_on_c, 4, 27, 95
4, 890880, Note_off_c, 4, 27, 95
4, 890880, Note_on_c, 5, 37, 95
4, 891000, Pitch_bend_c, 5, 8320
4, 891120, Pitch_bend_c, 5, 8448
4, 891240, Pitch_bend_c, 5, 8704
4, 891360, Pitch_bend_c, 5, 8832
4, 891480, Pitch_bend_c, 5, 8960
4, 891600, Pitch_bend_c, 5, 9216
4, 891720, Pitch_bend_c, 5, 9344
4, 891840, Pitch_bend_c, 5, 9600
4, 891840, Pitch_bend_c, 5, 8192
4, 891840, Note_off_c, 5, 37, 95
4, 891840, Note_on_c, 4, 39, 95
4, 892800, Note_off_c, 4, 39, 95
4, 892800, Note_on_c, 4, 39, 95
4, 894000, Note_off_c, 4, 39, 95
4, 894240, Note_on_c, 4, 34, 95
4, 894720, Note_off_c, 4, 34, 95
4, 894720, Note_on_c, 4, 37, 95
4, 896160, Note_off_c, 4, 37, 95
4, 896160, Note_on_c, 4, 39, 95
4, 896640, Note_off_c, 4, 39, 95
4, 896640, Note_on_c, 4, 30, 95
4, 897600, Note_off_c, 4, 30, 95
4, 897600, Note_on_c, 4, 27, 95
4, 898560, Note_off_c, 4, 27, 95
4, 898560, Note_on_c, 5, 37, 95
4, 898680, Pitch_bend_c, 5, 8320
4, 898800, Pitch_bend_c, 5, 8448
4, 898920, Pitch_bend_c, 5, 8704
4, 899040, Pitch_bend_c, 5, 8832
4, 899160, Pitch_bend_c, 5, 8960
4, 899280, Pitch_bend_c, 5, 9216
4, 899400, Pitch_bend_c, 5, 9344
4, 899520, Pitch_bend_c, 5, 9600
4, 899520, Pitch_bend_c, 5, 8192
4, 899520, Note_off_c, 5, 37, 95
4, 899520, Note_on_c, 4, 39, 95
4, 900480, Note_off_c, 4, 39, 95
4, 900480, Note_on_c, 4, 39, 95
4, 901680, Note_off_c, 4, 39, 95
4, 901920, Note_on_c, 4, 34, 95
4, 902400, Note_off_c, 4, 34, 95
4, 902400, Note_on_c, 4, 37, 95
4, 903840, Note_off_c, 4, 37, 95
4, 903840, Note_on_c, 4, 39, 95
4, 904320, Note_off_c, 4, 39, 95
4, 904320, Note_on_c, 4, 30, 95
4, 905280, Note_off_c, 4, 30, 95
4, 905280, Note_on_c, 4, 27, 95
4, 906240, Note_off_c, 4, 27, 95
4, 906240, Note_on_c, 5, 37, 95
4, 906360, Pitch_bend_c, 5, 8320
4, 906480, Pitch_bend_c, 5, 8448
4, 906600, Pitch_bend_c, 5, 8704
4, 906720, Pitch_bend_c, 5, 8832
4, 906840, Pitch_bend_c, 5, 8960
4, 906960, Pitch_bend_c, 5, 9216
4, 907080, Pitch_bend_c, 5, 9344
4, 907200, Pitch_bend_c, 5, 9600
4, 907200, Pitch_bend_c, 5, 8192
4, 907200, Note_off_c, 5, 37, 95
4, 907200, Note_on_c, 4, 39, 95
4, 908160, Note_off_c, 4, 39, 95
4, 908160, Note_on_c, 4, 39, 95
4, 909360, Note_off_c, 4, 39, 95
4, 909600, Note_on_c, 4, 34, 95
4, 910080, Note_off_c, 4, 34, 95
4, 910080, Note_on_c, 4, 37, 95
4, 911520, Note_off_c, 4, 37, 95
4, 911520, Note_on_c, 4, 39, 95
4, 912000, Note_off_c, 4, 39, 95
4, 912000, Note_on_c, 4, 30, 95
4, 912960, Note_off_c, 4, 30, 95
4, 912960, Note_on_c, 4, 27, 95
4, 913920, Note_off_c, 4, 27, 95
4, 913920, Note_on_c, 5, 37, 95
4, 914040, Pitch_bend_c, 5, 8320
4, 914160, Pitch_bend_c, 5, 8448
4, 914280, Pitch_bend_c, 5, 8704
4, 914400, Pitch_bend_c, 5, 8832
4, 914520, Pitch_bend_c, 5, 8960
4, 914640, Pitch_bend_c, 5, 9216
4, 914760, Pitch_bend_c, 5, 9344
4, 914880, Pitch_bend_c, 5, 9600
4, 914880, Pitch_bend_c, 5, 8192
4, 914880, Note_off_c, 5, 37, 95
4, 914880, Note_on_c, 4, 39, 95
4, 915840, Note_off_c, 4, 39, 95
4, 915840, Note_on_c, 4, 44, 95
4, 916800, Note_off_c, 4, 44, 95
4, 916800, Note_on_c, 4, 42, 95
4, 917760, Note_off_c, 4, 42, 95
4, 917760, Note_on_c, 4, 37, 95
4, 919200, Note_off_c, 4, 37, 95
4, 919200, Note_on_c, 4, 39, 95
4, 919680, Note_off_c, 4, 39, 95
4, 919680, Note_on_c, 4, 30, 95
4, 920640, Note_off_c, 4, 30, 95
4, 920640, Note_on_c, 4, 27, 95
4, 921600, Note_off_c, 4, 27, 95
4, 921600, Note_on_c, 4, 27, 95
4, 922560, Note_off_c, 4, 27, 95
4, 922560, Note_on_c, 4, 27, 95
4, 923520, Note_off_c, 4, 27, 95
4, 923520, Note_on_c, 4, 27, 95
4, 924480, Note_off_c, 4, 27, 95
4, 924480, Note_on_c, 4, 27, 95
4, 924960, Note_off_c, 4, 27, 95
4, 924960, Note_on_c, 4, 27, 95
4, 925440, Note_off_c, 4, 27, 95
4, 925440, Note_on_c, 4, 27, 95
4, 926400, Note_off_c, 4, 27, 95
4, 926400, Note_on_c, 4, 27, 95
4, 927360, Note_off_c, 4, 27, 95
4, 927360, Note_on_c, 4, 27, 95
4, 928320, Note_off_c, 4, 27, 95
4, 928320, Note_on_c, 4, 27, 95
4, 929280, Note_off_c, 4, 27, 95
4, 929280, Note_on_c, 4, 27, 95
4, 930240, Note_off_c, 4, 27, 95
4, 930240, Note_on_c, 4, 27, 95
4, 931200, Note_off_c, 4, 27, 95
4, 931200, Note_on_c, 4, 27, 95
4, 932160, Note_off_c, 4, 27, 95
4, 932160, Note_on_c, 4, 27, 95
4, 932640, Note_off_c, 4, 27, 95
4, 932640, Note_on_c, 4, 27, 95
4, 933120, Note_off_c, 4, 27, 95
4, 933120, Note_on_c, 4, 27, 95
4, 934080, Note_off_c, 4, 27, 95
4, 934080, Note_on_c, 4, 27, 95
4, 935040, Note_off_c, 4, 27, 95
4, 935040, Note_on_c, 4, 27, 95
4, 936000, Note_off_c, 4, 27, 95
4, 936000, Note_on_c, 4, 27, 95
4, 936960, Note_off_c, 4, 27, 95
4, 936960, Note_on_c, 5, 37, 95
4, 937080, Pitch_bend_c, 5, 8320
4, 937200, Pitch_bend_c, 5, 8448
4, 937320, Pitch_bend_c, 5, 8704
4, 937440, Pitch_bend_c, 5, 8832
4, 937560, Pitch_bend_c, 5, 8960
4, 937680, Pitch_bend_c, 5, 9216
4, 937800, Pitch_bend_c, 5, 9344
4, 937920, Pitch_bend_c, 5, 9600
4, 937920, Pitch_bend_c, 5, 8192
4, 937920, Note_off_c, 5, 37, 95
4, 937920, Note_on_c, 4, 39, 95
4, 938880, Note_off_c, 4, 39, 95
4, 938880, Note_on_c, 4, 39, 95
4, 940080, Note_off_c, 4, 39, 95
4, 940320, Note_on_c, 4, 34, 95
4, 940800, Note_off_c, 4, 34, 95
4, 940800, Note_on_c, 4, 37, 95
4, 942240, Note_off_c, 4, 37, 95
4, 942240, Note_on_c, 4, 39, 95
4, 942720, Note_off_c, 4, 39, 95
4, 942720, Note_on_c, 4, 30, 95
4, 943680, Note_off_c, 4, 30, 95
4, 943680, Note_on_c, 4, 27, 95
4, 944640, Note_off_c, 4, 27, 95
4, 944640, Note_on_c, 5, 37, 95
4, 944760, Pitch_bend_c, 5, 8320
4, 944880, Pitch_bend_c, 5, 8448
4, 945000, Pitch_bend_c, 5, 8704
4, 945120, Pitch_bend_c, 5, 8832
4, 945240, Pitch_bend_c, 5, 8960
4, 945360, Pitch_bend_c, 5, 9216
4, 945480, Pitch_bend_c, 5, 9344
4, 945600, Pitch_bend_c, 5, 9600
4, 945600, Pitch_bend_c, 5, 8192
4, 945600, Note_off_c, 5, 37, 95
4, 945600, Note_on_c, 4, 39, 95
4, 946560, Note_off_c, 4, 39, 95
4, 946560, Note_on_c, 4, 44, 95
4, 947520, Note_off_c, 4, 44, 95
4, 947520, Note_on_c, 4, 42, 95
4, 948480, Note_off_c, 4, 42, 95
4, 948480, Note_on_c, 4, 37, 95
4, 949920, Note_off_c, 4, 37, 95
4, 949920, Note_on_c, 4, 39, 95
4, 950400, Note_off_c, 4, 39, 95
4, 950400, Note_on_c, 4, 30, 95
4, 951360, Note_off_c, 4, 30, 95
4, 951360, Note_on_c, 4, 27, 95
4, 952320, Note_off_c, 4, 27, 95
4, 952320, Note_on_c, 5, 37, 95
4, 952440, Pitch_bend_c, 5, 8320
4, 952560, Pitch_bend_c, 5, 8448
4, 952680, Pitch_bend_c, 5, 8704
4, 952800, Pitch_bend_c, 5, 8832
4, 952920, Pitch_bend_c, 5, 8960
4, 953040, Pitch_bend_c, 5, 9216
4, 953160, Pitch_bend_c, 5, 9344
4, 953280, Pitch_bend_c, 5, 9600
4, 953280, Pitch_bend_c, 5, 8192
4, 953280, Note_off_c, 5, 37, 95
4, 953280, Note_on_c, 4, 39, 95
4, 954240, Note_off_c, 4, 39, 95
4, 954240, Note_on_c, 4, 39, 95
4, 955440, Note_off_c, 4, 39, 95
4, 955680, Note_on_c, 4, 34, 95
4, 956160, Note_off_c, 4, 34, 95
4, 956160, Note_on_c, 4, 37, 95
4, 957600, Note_off_c, 4, 37, 95
4, 957600, Note_on_c, 4, 39, 95
4, 958080, Note_off_c, 4, 39, 95
4, 958080, Note_on_c, 4, 30, 95
4, 959040, Note_off_c, 4, 30, 95
4, 959040, Note_on_c, 4, 27, 95
4, 960000, Note_off_c, 4, 27, 95
4, 960000, Note_on_c, 5, 37, 95
4, 960120, Pitch_bend_c, 5, 8320
4, 960240, Pitch_bend_c, 5, 8448
4, 960360, Pitch_bend_c, 5, 8704
4, 960480, Pitch_bend_c, 5, 8832
4, 960600, Pitch_bend_c, 5, 8960
4, 960720, Pitch_bend_c, 5, 9216
4, 960840, Pitch_bend_c, 5, 9344
4, 960960, Pitch_bend_c, 5, 9600
4, 960960, Pitch_bend_c, 5, 8192
4, 960960, Note_off_c, 5, 37, 95
4, 960960, Note_on_c, 4, 39, 95
4, 961920, Note_off_c, 4, 39, 95
4, 961920, Note_on_c, 4, 39, 95
4, 963120, Note_off_c, 4, 39, 95
4, 963360, Note_on_c, 4, 34, 95
4, 963840, Note_off_c, 4, 34, 95
4, 963840, Note_on_c, 4, 37, 95
4, 965280, Note_off_c, 4, 37, 95
4, 965280, Note_on_c, 4, 39, 95
4, 965760, Note_off_c, 4, 39, 95
4, 965760, Note_on_c, 4, 30, 95
4, 966720, Note_off_c, 4, 30, 95
4, 966720, Note_on_c, 4, 27, 95
4, 967680, Note_off_c, 4, 27, 95
4, 967680, Note_on_c, 5, 37, 95
4, 967800, Pitch_bend_c, 5, 8320
4, 967920, Pitch_bend_c, 5, 8448
4, 968040, Pitch_bend_c, 5, 8704
4, 968160, Pitch_bend_c, 5, 8832
4, 968280, Pitch_bend_c, 5, 8960
4, 968400, Pitch_bend_c, 5, 9216
4, 968520, Pitch_bend_c, 5, 9344
4, 968640, Pitch_bend_c, 5, 9600
4, 968640, Pitch_bend_c, 5, 8192
4, 968640, Note_off_c, 5, 37, 95
4, 968640, Note_on_c, 4, 39, 95
4, 969600, Note_off_c, 4, 39, 95
4, 969600, Note_on_c, 4, 39, 95
4, 970800, Note_off_c, 4, 39, 95
4, 971040, Note_on_c, 4, 34, 95
4, 971520, Note_off_c, 4, 34, 95
4, 971520, Note_on_c, 4, 37, 95
4, 972960, Note_off_c, 4, 37, 95
4, 972960, Note_on_c, 4, 39, 95
4, 973440, Note_off_c, 4, 39, 95
4, 973440, Note_on_c, 4, 30, 95
4, 974400, Note_off_c, 4, 30, 95
4, 974400, Note_on_c, 4, 27, 95
4, 975360, Note_off_c, 4, 27, 95
4, 975360, Note_on_c, 5, 37, 95
4, 975480, Pitch_bend_c, 5, 8320
4, 975600, Pitch_bend_c, 5, 8448
4, 975720, Pitch_bend_c, 5, 8704
4, 975840, Pitch_bend_c, 5, 8832
4, 975960, Pitch_bend_c, 5, 8960
4, 976080, Pitch_bend_c, 5, 9216
4, 976200, Pitch_bend_c, 5, 9344
4, 976320, Pitch_bend_c, 5, 9600
4, 976320, Pitch_bend_c, 5, 8192
4, 976320, Note_off_c, 5, 37, 95
4, 976320, Note_on_c, 4, 39, 95
4, 977280, Note_off_c, 4, 39, 95
4, 977280, Note_on_c, 4, 39, 95
4, 978480, Note_off_c, 4, 39, 95
4, 978720, Note_on_c, 4, 34, 95
4, 979200, Note_off_c, 4, 34, 95
4, 979200, Note_on_c, 4, 37, 95
4, 980640, Note_off_c, 4, 37, 95
4, 980640, Note_on_c, 4, 39, 95
4, 981120, Note_off_c, 4, 39, 95
4, 981120, Note_on_c, 4, 30, 95
4, 982080, Note_off_c, 4, 30, 95
4, 982080, Note_on_c, 4, 27, 95
4, 983040, Note_off_c, 4, 27, 95
4, 983040, Note_on_c, 5, 37, 95
4, 983160, Pitch_bend_c, 5, 8320
4, 983280, Pitch_bend_c, 5, 8448
4, 983400, Pitch_bend_c, 5, 8704
4, 983520, Pitch_bend_c, 5, 8832
4, 983640, Pitch_bend_c, 5, 8960
4, 983760, Pitch_bend_c, 5, 9216
4, 983880, Pitch_bend_c, 5, 9344
4, 984000, Pitch_bend_c, 5, 9600
4, 984000, Pitch_bend_c, 5, 8192
4, 984000, Note_off_c, 5, 37, 95
4, 984000, Note_on_c, 4, 39, 95
4, 984960, Note_off_c, 4, 39, 95
4, 984960, Note_on_c, 4, 39, 95
4, 986160, Note_off_c, 4, 39, 95
4, 986400, Note_on_c, 4, 34, 95
4, 986880, Note_off_c, 4, 34, 95
4, 986880, Note_on_c, 4, 37, 95
4, 988320, Note_off_c, 4, 37, 95
4, 988320, Note_on_c, 4, 39, 95
4, 988800, Note_off_c, 4, 39, 95
4, 988800, Note_on_c, 4, 30, 95
4, 989760, Note_off_c, 4, 30, 95
4, 989760, Note_on_c, 4, 27, 95
4, 990720, Note_off_c, 4, 27, 95
4, 990720, Note_on_c, 5, 37, 95
4, 990840, Pitch_bend_c, 5, 8320
4, 990960, Pitch_bend_c, 5, 8448
4, 991080, Pitch_bend_c, 5, 8704
4, 991200, Pitch_bend_c, 5, 8832
4, 991320, Pitch_bend_c, 5, 8960
4, 991440, Pitch_bend_c, 5, 9216
4, 991560, Pitch_bend_c, 5, 9344
4, 991680, Pitch_bend_c, 5, 9600
4, 991680, Pitch_bend_c, 5, 8192
4, 991680, Note_off_c, 5, 37, 95
4, 991680, Note_on_c, 4, 39, 95
4, 992640, Note_off_c, 4, 39, 95
4, 992640, Note_on_c, 4, 39, 95
4, 993840, Note_off_c, 4, 39, 95
4, 994080, Note_on_c, 4, 34, 95
4, 994560, Note_off_c, 4, 34, 95
4, 994560, Note_on_c, 4, 37, 95
4, 996000, Note_off_c, 4, 37, 95
4, 996000, Note_on_c, 4, 39, 95
4, 996480, Note_off_c, 4, 39, 95
4, 996480, Note_on_c, 4, 30, 95
4, 997440, Note_off_c, 4, 30, 95
4, 997440, Note_on_c, 4, 27, 95
4, 998400, Note_off_c, 4, 27, 95
4, 998400, Note_on_c, 5, 37, 95
4, 998520, Pitch_bend_c, 5, 8320
4, 998640, Pitch_bend_c, 5, 8448
4, 998760, Pitch_bend_c, 5, 8704
4, 998880, Pitch_bend_c, 5, 8832
4, 999000, Pitch_bend_c, 5, 8960
4, 999120, Pitch_bend_c, 5, 9216
4, 999240, Pitch_bend_c, 5, 9344
4, 999360, Pitch_bend_c, 5, 9600
4, 999360, Pitch_bend_c, 5, 8192
4, 999360, Note_off_c, 5, 37, 95
4, 999360, Note_on_c, 4, 39, 95
4, 1000320, Note_off_c, 4, 39, 95
4, 1000320, Note_on_c, 4, 39, 95
4, 1001520, Note_off_c, 4, 39, 95
4, 1001760, Note_on_c, 4, 34, 95
4, 1002240, Note_off_c, 4, 34, 95
4, 1002240, Note_on_c, 4, 37, 95
4, 1003680, Note_off_c, 4, 37, 95
4, 1003680, Note_on_c, 4, 39, 95
4, 1004160, Note_off_c, 4, 39, 95
4, 1004160, Note_on_c, 4, 30, 95
4, 1005120, Note_off_c, 4, 30, 95
4, 1005120, Note_on_c, 4, 27, 95
4, 1006080, Note_off_c, 4, 27, 95
4, 1006080, Note_on_c, 5, 37, 95
4, 1006200, Pitch_bend_c, 5, 8320
4, 1006320, Pitch_bend_c, 5, 8448
4, 1006440, Pitch_bend_c, 5, 8704
4, 1006560, Pitch_bend_c, 5, 8832
4, 1006680, Pitch_bend_c, 5, 8960
4, 1006800, Pitch_bend_c, 5, 9216
4, 1006920, Pitch_bend_c, 5, 9344
4, 1007040, Pitch_bend_c, 5, 9600
4, 1007040, Pitch_bend_c, 5, 8192
4, 1007040, Note_off_c, 5, 37, 95
4, 1007040, Note_on_c, 4, 39, 95
4, 1008000, Note_off_c, 4, 39, 95
4, 1008000, Note_on_c, 4, 39, 95
4, 1009200, Note_off_c, 4, 39, 95
4, 1009440, Note_on_c, 4, 34, 95
4, 1009920, Note_off_c, 4, 34, 95
4, 1009920, Note_on_c, 4, 37, 95
4, 1011360, Note_off_c, 4, 37, 95
4, 1011360, Note_on_c, 4, 39, 95
4, 1011840, Note_off_c, 4, 39, 95
4, 1011840, Note_on_c, 4, 30, 95
4, 1012800, Note_off_c, 4, 30, 95
4, 1012800, Note_on_c, 4, 27, 95
4, 1013760, Note_off_c, 4, 27, 95
4, 1013760, Note_on_c, 5, 37, 95
4, 1013880, Pitch_bend_c, 5, 8320
4, 1014000, Pitch_bend_c, 5, 8448
4, 1014120, Pitch_bend_c, 5, 8704
4, 1014240, Pitch_bend_c, 5, 8832
4, 1014360, Pitch_bend_c, 5, 8960
4, 1014480, Pitch_bend_c, 5, 9216
4, 1014600, Pitch_bend_c, 5, 9344
4, 1014720, Pitch_bend_c, 5, 9600
4, 1014720, Pitch_bend_c, 5, 8192
4, 1014720, Note_off_c, 5, 37, 95
4, 1014720, Note_on_c, 4, 39, 95
4, 1015680, Note_off_c, 4, 39, 95
4, 1015680, Note_on_c, 4, 44, 95
4, 1016640, Note_off_c, 4, 44, 95
4, 1016640, Note_on_c, 4, 42, 95
4, 1017600, Note_off_c, 4, 42, 95
4, 1017600, Note_on_c, 4, 37, 95
4, 1019040, Note_off_c, 4, 37, 95
4, 1019040, Note_on_c, 4, 39, 95
4, 1019520, Note_off_c, 4, 39, 95
4, 1019520, Note_on_c, 4, 30, 95
4, 1020480, Note_off_c, 4, 30, 95
4, 1020480, Note_on_c, 4, 27, 95
4, 1021440, Note_off_c, 4, 27, 95
4, 1021440, Note_on_c, 5, 37, 95
4, 1021560, Pitch_bend_c, 5, 8320
4, 1021680, Pitch_bend_c, 5, 8448
4, 1021800, Pitch_bend_c, 5, 8704
4, 1021920, Pitch_bend_c, 5, 8832
4, 1022040, Pitch_bend_c, 5, 8960
4, 1022160, Pitch_bend_c, 5, 9216
4, 1022280, Pitch_bend_c, 5, 9344
4, 1022400, Pitch_bend_c, 5, 9600
4, 1022400, Pitch_bend_c, 5, 8192
4, 1022400, Note_off_c, 5, 37, 95
4, 1022400, Note_on_c, 4, 39, 95
4, 1023360, Note_off_c, 4, 39, 95
4, 1023360, Note_on_c, 4, 39, 95
4, 1024560, Note_off_c, 4, 39, 95
4, 1024800, Note_on_c, 4, 34, 95
4, 1025280, Note_off_c, 4, 34, 95
4, 1025280, Note_on_c, 4, 37, 95
4, 1026720, Note_off_c, 4, 37, 95
4, 1026720, Note_on_c, 4, 39, 95
4, 1027200, Note_off_c, 4, 39, 95
4, 1027200, Note_on_c, 4, 30, 95
4, 1028160, Note_off_c, 4, 30, 95
4, 1028160, Note_on_c, 4, 27, 95
4, 1029120, Note_off_c, 4, 27, 95
4, 1029120, Note_on_c, 5, 37, 95
4, 1029240, Pitch_bend_c, 5, 8320
4, 1029360, Pitch_bend_c, 5, 8448
4, 1029480, Pitch_bend_c, 5, 8704
4, 1029600, Pitch_bend_c, 5, 8832
4, 1029720, Pitch_bend_c, 5, 8960
4, 1029840, Pitch_bend_c, 5, 9216
4, 1029960, Pitch_bend_c, 5, 9344
4, 1030080, Pitch_bend_c, 5, 9600
4, 1030080, Pitch_bend_c, 5, 8192
4, 1030080, Note_off_c, 5, 37, 95
4, 1030080, Note_on_c, 4, 39, 95
4, 1031040, Note_off_c, 4, 39, 95
4, 1031040, Note_on_c, 4, 39, 95
4, 1032240, Note_off_c, 4, 39, 95
4, 1032480, Note_on_c, 4, 34, 95
4, 1032960, Note_off_c, 4, 34, 95
4, 1032960, Note_on_c, 4, 37, 95
4, 1034400, Note_off_c, 4, 37, 95
4, 1034400, Note_on_c, 4, 39, 95
4, 1034880, Note_off_c, 4, 39, 95
4, 1034880, Note_on_c, 4, 30, 95
4, 1035840, Note_off_c, 4, 30, 95
4, 1035840, Note_on_c, 4, 27, 95
4, 1036800, Note_off_c, 4, 27, 95
4, 1036800, Note_on_c, 5, 37, 95
4, 1036920, Pitch_bend_c, 5, 8320
4, 1037040, Pitch_bend_c, 5, 8448
4, 1037160, Pitch_bend_c, 5, 8704
4, 1037280, Pitch_bend_c, 5, 8832
4, 1037400, Pitch_bend_c, 5, 8960
4, 1037520, Pitch_bend_c, 5, 9216
4, 1037640, Pitch_bend_c, 5, 9344
4, 1037760, Pitch_bend_c, 5, 9600
4, 1037760, Pitch_bend_c, 5, 8192
4, 1037760, Note_off_c, 5, 37, 95
4, 1037760, Note_on_c, 4, 39, 95
4, 1038720, Note_off_c, 4, 39, 95
4, 1038720, Note_on_c, 4, 39, 95
4, 1039920, Note_off_c, 4, 39, 95
4, 1040160, Note_on_c, 4, 34, 95
4, 1040640, Note_off_c, 4, 34, 95
4, 1040640, Note_on_c, 4, 37, 95
4, 1042080, Note_off_c, 4, 37, 95
4, 1042080, Note_on_c, 4, 39, 95
4, 1042560, Note_off_c, 4, 39, 95
4, 1042560, Note_on_c, 4, 30, 95
4, 1043520, Note_off_c, 4, 30, 95
4, 1043520, Note_on_c, 4, 27, 95
4, 1044480, Note_off_c, 4, 27, 95
4, 1044480, Note_on_c, 4, 37, 95
4, 1044960, Note_off_c, 4, 37, 95
4, 1052160, Note_on_c, 5, 37, 95
4, 1052280, Pitch_bend_c, 5, 8320
4, 1052400, Pitch_bend_c, 5, 8448
4, 1052520, Pitch_bend_c, 5, 8704
4, 1052640, Pitch_bend_c, 5, 8832
4, 1052760, Pitch_bend_c, 5, 8960
4, 1052880, Pitch_bend_c, 5, 9216
4, 1053000, Pitch_bend_c, 5, 9344
4, 1053120, Pitch_bend_c, 5, 9600
4, 1053120, Pitch_bend_c, 5, 8192
4, 1053120, Note_off_c, 5, 37, 95
4, 1053120, Note_on_c, 4, 39, 95
4, 1054080, Note_off_c, 4, 39, 95
4, 1054080, Note_on_c, 4, 39, 95
4, 1055280, Note_off_c, 4, 39, 95
4, 1055520, Note_on_c, 4, 34, 95
4, 1056000, Note_off_c, 4, 34, 95
4, 1056000, Note_on_c, 4, 37, 95
4, 1057440, Note_off_c, 4, 37, 95
4, 1057440, Note_on_c, 4, 39, 95
4, 1057920, Note_off_c, 4, 39, 95
4, 1057920, Note_on_c, 4, 30, 95
4, 1058880, Note_off_c, 4, 30, 95
4, 1058880, Note_on_c, 4, 27, 95
4, 1059840, Note_off_c, 4, 27, 95
4, 1059840, Note_on_c, 5, 37, 95
4, 1059960, Pitch_bend_c, 5, 8320
4, 1060080, Pitch_bend_c, 5, 8448
4, 1060200, Pitch_bend_c, 5, 8704
4, 1060320, Pitch_bend_c, 5, 8832
4, 1060440, Pitch_bend_c, 5, 8960
4, 1060560, Pitch_bend_c, 5, 9216
4, 1060680, Pitch_bend_c, 5, 9344
4, 1060800, Pitch_bend_c, 5, 9600
4, 1060800, Pitch_bend_c, 5, 8192
4, 1060800, Note_off_c, 5, 37, 95
4, 1060800, Note_on_c, 4, 39, 95
4, 1061760, Note_off_c, 4, 39, 95
4, 1061760, Note_on_c, 4, 39, 95
4, 1062960, Note_off_c, 4, 39, 95
4, 1063200, Note_on_c, 4, 34, 95
4, 1063680, Note_off_c, 4, 34, 95
4, 1063680, Note_on_c, 4, 37, 95
4, 1065120, Note_off_c, 4, 37, 95
4, 1065120, Note_on_c, 4, 39, 95
4, 1065600, Note_off_c, 4, 39, 95
4, 1065600, Note_on_c, 4, 30, 95
4, 1066560, Note_off_c, 4, 30, 95
4, 1066560, Note_on_c, 4, 27, 95
4, 1067520, Note_off_c, 4, 27, 95
4, 1067520, Note_on_c, 4, 37, 95
4, 1068480, Note_off_c, 4, 37, 95
4, 1068480, Note_on_c, 4, 37, 95
4, 1068960, Note_off_c, 4, 37, 95
4, 1068960, Note_on_c, 4, 37, 95
4, 1069440, Note_on_c, 4, 40, 95
4, 1069920, Note_off_c, 4, 40, 95
4, 1069920, Note_on_c, 4, 40, 95
4, 1070400, Note_off_c, 4, 40, 95
4, 1070400, Note_on_c, 4, 41, 95
4, 1070880, Note_off_c, 4, 41, 95
4, 1070880, Note_on_c, 4, 41, 95
4, 1071360, Note_off_c, 4, 41, 95
4, 1071360, Note_on_c, 4, 44, 95
4, 1072320, Note_off_c, 4, 44, 95
4, 1072320, Note_on_c, 4, 44, 95
4, 1072800, Note_off_c, 4, 44, 95
4, 1072800, Note_on_c, 5, 44, 95
4, 1072920, Pitch_bend_c, 5, 8704
4, 1073040, Pitch_bend_c, 5, 9216
4, 1073160, Pitch_bend_c, 5, 9728
4, 1073280, Pitch_bend_c, 5, 10240
4, 1073280, Pitch_bend_c, 5, 8192
4, 1073280, Note_off_c, 5, 44, 95
4, 1073280, Note_on_c, 4, 47, 95
4, 1073760, Note_off_c, 4, 47, 95
4, 1073760, Note_on_c, 4, 47, 95
4, 1074240, Note_off_c, 4, 47, 95
4, 1074240, Note_on_c, 4, 44, 95
4, 1074720, Note_off_c, 4, 44, 95
4, 1074720, Note_on_c, 4, 44, 95
4, 1075200, Note_off_c, 4, 44, 95
4, 1075200, Note_on_c, 4, 42, 95
4, 1076160, Note_off_c, 4, 42, 95
4, 1076160, Note_on_c, 4, 42, 95
4, 1076640, Note_off_c, 4, 42, 95
4, 1076640, Note_on_c, 4, 42, 95
4, 1077120, Note_off_c, 4, 42, 95
4, 1077120, Note_on_c, 4, 42, 95
4, 1077600, Note_off_c, 4, 42, 95
4, 1077600, Note_on_c, 4, 42, 95
4, 1078080, Note_off_c, 4, 42, 95
4, 1078080, Note_on_c, 5, 42, 95
4, 1078200, Pitch_bend_c, 5, 8320
4, 1078320, Pitch_bend_c, 5, 8448
4, 1078440, Pitch_bend_c, 5, 8704
4, 1078560, Pitch_bend_c, 5, 8832
4, 1078680, Pitch_bend_c, 5, 8960
4, 1078800, Pitch_bend_c, 5, 9216
4, 1078920, Pitch_bend_c, 5, 9344
4, 1079040, Pitch_bend_c, 5, 9600
4, 1079040, Pitch_bend_c, 5, 8192
4, 1079040, Note_off_c, 5, 42, 95
4, 1079040, Note_on_c, 4, 44, 95
4, 1080000, Note_off_c, 4, 44, 95
4, 1080000, Note_on_c, 4, 44, 95
4, 1080480, Note_off_c, 4, 44, 95
4, 1080480, Note_on_c, 4, 44, 95
4, 1080960, Note_off_c, 4, 44, 95
4, 1080960, Note_on_c, 4, 44, 95
4, 1081440, Note_off_c, 4, 44, 95
4, 1081440, Note_on_c, 4, 44, 95
4, 1081920, Note_off_c, 4, 44, 95
4, 1081920, Note_on_c, 4, 44, 95
4, 1082400, Note_off_c, 4, 44, 95
4, 1082400, Note_on_c, 4, 44, 95
4, 1082880, Note_off_c, 4, 44, 95
4, 1082880, Note_on_c, 4, 32, 95
4, 1083840, Note_off_c, 4, 32, 95
4, 1083840, Note_on_c, 4, 30, 95
4, 1084800, Note_off_c, 4, 30, 95
4, 1084800, Note_on_c, 4, 27, 95
4, 1085760, Note_off_c, 4, 27, 95
4, 1085760, Note_on_c, 4, 27, 95
4, 1086720, Note_off_c, 4, 37, 95
4, 1086720, Note_off_c, 4, 27, 95
4, 1086720, Note_on_c, 4, 37, 95
4, 1088160, Note_off_c, 4, 37, 95
4, 1088160, Note_on_c, 4, 39, 95
4, 1088640, Note_off_c, 4, 39, 95
4, 1088640, Note_on_c, 4, 30, 95
4, 1089600, Note_off_c, 4, 30, 95
4, 1089600, Note_on_c, 4, 27, 95
4, 1090560, Note_off_c, 4, 27, 95
4, 1090560, Note_on_c, 5, 37, 95
4, 1090680, Pitch_bend_c, 5, 8320
4, 1090800, Pitch_bend_c, 5, 8448
4, 1090920, Pitch_bend_c, 5, 8704
4, 1091040, Pitch_bend_c, 5, 8832
4, 1091160, Pitch_bend_c, 5, 8960
4, 1091280, Pitch_bend_c, 5, 9216
4, 1091400, Pitch_bend_c, 5, 9344
4, 1091520, Pitch_bend_c, 5, 9600
4, 1091520, Pitch_bend_c, 5, 8192
4, 1091520, Note_off_c, 5, 37, 95
4, 1091520, Note_on_c, 4, 39, 95
4, 1092480, Note_off_c, 4, 39, 95
4, 1092480, Note_on_c, 4, 39, 95
4, 1093680, Note_off_c, 4, 39, 95
4, 1093920, Note_on_c, 4, 34, 95
4, 1094400, Note_off_c, 4, 34, 95
4, 1094400, Note_on_c, 4, 37, 95
4, 1095840, Note_off_c, 4, 37, 95
4, 1095840, Note_on_c, 4, 39, 95
4, 1096320, Note_off_c, 4, 39, 95
4, 1096320, Note_on_c, 4, 30, 95
4, 1097280, Note_off_c, 4, 30, 95
4, 1097280, Note_on_c, 4, 27, 95
4, 1098240, Note_off_c, 4, 27, 95
4, 1098240, Note_on_c, 5, 37, 95
4, 1098360, Pitch_bend_c, 5, 8320
4, 1098480, Pitch_bend_c, 5, 8448
4, 1098600, Pitch_bend_c, 5, 8704
4, 1098720, Pitch_bend_c, 5, 8832
4, 1098840, Pitch_bend_c, 5, 8960
4, 1098960, Pitch_bend_c, 5, 9216
4, 1099080, Pitch_bend_c, 5, 9344
4, 1099200, Pitch_bend_c, 5, 9600
4, 1099200, Pitch_bend_c, 5, 8192
4, 1099200, Note_off_c, 5, 37, 95
4, 1099200, Note_on_c, 4, 39, 95
4, 1100160, Note_off_c, 4, 39, 95
4, 1100160, Note_on_c, 4, 39, 95
4, 1101360, Note_off_c, 4, 39, 95
4, 1101600, Note_on_c, 4, 34, 95
4, 1102080, Note_off_c, 4, 34, 95
4, 1102080, Note_on_c, 4, 37, 95
4, 1103520, Note_off_c, 4, 37, 95
4, 1103520, Note_on_c, 4, 39, 95
4, 1104000, Note_off_c, 4, 39, 95
4, 1104000, Note_on_c, 4, 30, 95
4, 1104960, Note_off_c, 4, 30, 95
4, 1104960, Note_on_c, 4, 27, 95
4, 1105920, Note_off_c, 4, 27, 95
4, 1105920, Note_on_c, 5, 37, 95
4, 1106040, Pitch_bend_c, 5, 8320
4, 1106160, Pitch_bend_c, 5, 8448
4, 1106280, Pitch_bend_c, 5, 8704
4, 1106400, Pitch_bend_c, 5, 8832
4, 1106520, Pitch_bend_c, 5, 8960
4, 1106640, Pitch_bend_c, 5, 9216
4, 1106760, Pitch_bend_c, 5, 9344
4, 1106880, Pitch_bend_c, 5, 9600
4, 1106880, Pitch_bend_c, 5, 8192
4, 1106880, Note_off_c, 5, 37, 95
4, 1106880, Note_on_c, 4, 39, 95
4, 1107840, Note_off_c, 4, 39, 95
4, 1107840, Note_on_c, 4, 39, 95
4, 1109040, Note_off_c, 4, 39, 95
4, 1109280, Note_on_c, 4, 34, 95
4, 1109760, Note_off_c, 4, 34, 95
4, 1109760, Note_on_c, 4, 37, 95
4, 1111200, Note_off_c, 4, 37, 95
4, 1111200, Note_on_c, 4, 39, 95
4, 1111680, Note_off_c, 4, 39, 95
4, 1111680, Note_on_c, 4, 30, 95
4, 1112640, Note_off_c, 4, 30, 95
4, 1112640, Note_on_c, 4, 27, 95
4, 1113600, Note_off_c, 4, 27, 95
4, 1113600, Note_on_c, 5, 37, 95
4, 1113720, Pitch_bend_c, 5, 8320
4, 1113840, Pitch_bend_c, 5, 8448
4, 1113960, Pitch_bend_c, 5, 8704
4, 1114080, Pitch_bend_c, 5, 8832
4, 1114200, Pitch_bend_c, 5, 8960
4, 1114320, Pitch_bend_c, 5, 9216
4, 1114440, Pitch_bend_c, 5, 9344
4, 1114560, Pitch_bend_c, 5, 9600
4, 1114560, Pitch_bend_c, 5, 8192
4, 1114560, Note_off_c, 5, 37, 95
4, 1114560, Note_on_c, 4, 39, 95
4, 1115520, Note_off_c, 4, 39, 95
4, 1115520, Note_on_c, 4, 39, 95
4, 1116720, Note_off_c, 4, 39, 95
4, 1116960, Note_on_c, 4, 34, 95
4, 1117440, Note_off_c, 4, 34, 95
4, 1117440, Note_on_c, 4, 37, 95
4, 1118880, Note_off_c, 4, 37, 95
4, 1118880, Note_on_c, 4, 39, 95
4, 1119360, Note_off_c, 4, 39, 95
4, 1119360, Note_on_c, 4, 30, 95
4, 1120320, Note_off_c, 4, 30, 95
4, 1120320, Note_on_c, 4, 27, 95
4, 1121280, Note_off_c, 4, 27, 95
4, 1121280, Note_on_c, 5, 37, 95
4, 1121400, Pitch_bend_c, 5, 8320
4, 1121520, Pitch_bend_c, 5, 8448
4, 1121640, Pitch_bend_c, 5, 8704
4, 1121760, Pitch_bend_c, 5, 8832
4, 1121880, Pitch_bend_c, 5, 8960
4, 1122000, Pitch_bend_c, 5, 9216
4, 1122120, Pitch_bend_c, 5, 9344
4, 1122240, Pitch_bend_c, 5, 9600
4, 1122240, Pitch_bend_c, 5, 8192
4, 1122240, Note_off_c, 5, 37, 95
4, 1122240, Note_on_c, 4, 39, 95
4, 1123200, Note_off_c, 4, 39, 95
4, 1123200, Note_on_c, 4, 39, 95
4, 1124400, Note_off_c, 4, 39, 95
4, 1124640, Note_on_c, 4, 34, 95
4, 1125120, Note_off_c, 4, 34, 95
4, 1125120, Note_on_c, 4, 37, 95
4, 1126560, Note_off_c, 4, 37, 95
4, 1126560, Note_on_c, 4, 39, 95
4, 1127040, Note_off_c, 4, 39, 95
4, 1127040, Note_on_c, 4, 30, 95
4, 1128000, Note_off_c, 4, 30, 95
4, 1128000, Note_on_c, 4, 27, 95
4, 1128960, Note_off_c, 4, 27, 95
4, 1128960, Note_on_c, 5, 37, 95
4, 1129080, Pitch_bend_c, 5, 8320
4, 1129200, Pitch_bend_c, 5, 8448
4, 1129320, Pitch_bend_c, 5, 8704
4, 1129440, Pitch_bend_c, 5, 8832
4, 1129560, Pitch_bend_c, 5, 8960
4, 1129680, Pitch_bend_c, 5, 9216
4, 1129800, Pitch_bend_c, 5, 9344
4, 1129920, Pitch_bend_c, 5, 9600
4, 1129920, Pitch_bend_c, 5, 8192
4, 1129920, Note_off_c, 5, 37, 95
4, 1129920, Note_on_c, 4, 39, 95
4, 1130880, Note_off_c, 4, 39, 95
4, 1130880, Note_on_c, 4, 39, 95
4, 1132080, Note_off_c, 4, 39, 95
4, 1132320, Note_on_c, 4, 34, 95
4, 1132800, Note_off_c, 4, 34, 95
4, 1132800, Note_on_c, 4, 37, 95
4, 1134240, Note_off_c, 4, 37, 95
4, 1134240, Note_on_c, 4, 39, 95
4, 1134720, Note_off_c, 4, 39, 95
4, 1134720, Note_on_c, 4, 30, 95
4, 1135680, Note_off_c, 4, 30, 95
4, 1135680, Note_on_c, 4, 27, 95
4, 1136640, Note_off_c, 4, 27, 95
4, 1136640, Note_on_c, 5, 37, 95
4, 1136760, Pitch_bend_c, 5, 8320
4, 1136880, Pitch_bend_c, 5, 8448
4, 1137000, Pitch_bend_c, 5, 8704
4, 1137120, Pitch_bend_c, 5, 8832
4, 1137240, Pitch_bend_c, 5, 8960
4, 1137360, Pitch_bend_c, 5, 9216
4, 1137480, Pitch_bend_c, 5, 9344
4, 1137600, Pitch_bend_c, 5, 9600
4, 1137600, Pitch_bend_c, 5, 8192
4, 1137600, Note_off_c, 5, 37, 95
4, 1137600, Note_on_c, 4, 39, 95
4, 1138560, Note_off_c, 4, 39, 95
4, 1138560, Note_on_c, 4, 39, 95
4, 1139760, Note_off_c, 4, 39, 95
4, 1140000, Note_on_c, 4, 34, 95
4, 1140480, Note_off_c, 4, 34, 95
4, 1140480, Note_on_c, 4, 37, 95
4, 1141920, Note_off_c, 4, 37, 95
4, 1141920, Note_on_c, 4, 39, 95
4, 1142400, Note_off_c, 4, 39, 95
4, 1142400, Note_on_c, 4, 30, 95
4, 1143360, Note_off_c, 4, 30, 95
4, 1143360, Note_on_c, 4, 27, 95
4, 1144320, Note_off_c, 4, 27, 95
4, 1144320, Note_on_c, 5, 37, 95
4, 1144440, Pitch_bend_c, 5, 8320
4, 1144560, Pitch_bend_c, 5, 8448
4, 1144680, Pitch_bend_c, 5, 8704
4, 1144800, Pitch_bend_c, 5, 8832
4, 1144920, Pitch_bend_c, 5, 8960
4, 1145040, Pitch_bend_c, 5, 9216
4, 1145160, Pitch_bend_c, 5, 9344
4, 1145280, Pitch_bend_c, 5, 9600
4, 1145280, Pitch_bend_c, 5, 8192
4, 1145280, Note_off_c, 5, 37, 95
4, 1145280, Note_on_c, 4, 39, 95
4, 1146240, Note_off_c, 4, 39, 95
4, 1146240, Note_on_c, 4, 39, 95
4, 1147440, Note_off_c, 4, 39, 95
4, 1147680, Note_on_c, 4, 34, 95
4, 1148160, Note_off_c, 4, 34, 95
4, 1148160, Note_on_c, 4, 37, 95
4, 1149600, Note_off_c, 4, 37, 95
4, 1149600, Note_on_c, 4, 39, 95
4, 1150080, Note_off_c, 4, 39, 95
4, 1150080, Note_on_c, 4, 30, 95
4, 1151040, Note_off_c, 4, 30, 95
4, 1151040, Note_on_c, 4, 27, 95
4, 1152000, Note_off_c, 4, 27, 95
4, 1152000, Note_on_c, 5, 37, 95
4, 1152120, Pitch_bend_c, 5, 8320
4, 1152240, Pitch_bend_c, 5, 8448
4, 1152360, Pitch_bend_c, 5, 8704
4, 1152480, Pitch_bend_c, 5, 8832
4, 1152600, Pitch_bend_c, 5, 8960
4, 1152720, Pitch_bend_c, 5, 9216
4, 1152840, Pitch_bend_c, 5, 9344
4, 1152960, Pitch_bend_c, 5, 9600
4, 1152960, Pitch_bend_c, 5, 8192
4, 1152960, Note_off_c, 5, 37, 95
4, 1152960, Note_on_c, 4, 39, 95
4, 1153920, Note_off_c, 4, 39, 95
4, 1153920, Note_on_c, 4, 39, 95
4, 1155120, Note_off_c, 4, 39, 95
4, 1155360, Note_on_c, 4, 34, 95
4, 1155840, Note_off_c, 4, 34, 95
4, 1155840, Note_on_c, 4, 37, 95
4, 1157280, Note_off_c, 4, 37, 95
4, 1157280, Note_on_c, 4, 39, 95
4, 1157760, Note_off_c, 4, 39, 95
4, 1157760, Note_on_c, 4, 30, 95
4, 1158720, Note_off_c, 4, 30, 95
4, 1158720, Note_on_c, 4, 27, 95
4, 1159680, Note_off_c, 4, 27, 95
4, 1159680, Note_on_c, 5, 37, 95
4, 1159800, Pitch_bend_c, 5, 8320
4, 1159920, Pitch_bend_c, 5, 8448
4, 1160040, Pitch_bend_c, 5, 8704
4, 1160160, Pitch_bend_c, 5, 8832
4, 1160280, Pitch_bend_c, 5, 8960
4, 1160400, Pitch_bend_c, 5, 9216
4, 1160520, Pitch_bend_c, 5, 9344
4, 1160640, Pitch_bend_c, 5, 9600
4, 1160640, Pitch_bend_c, 5, 8192
4, 1160640, Note_off_c, 5, 37, 95
4, 1160640, Note_on_c, 4, 39, 95
4, 1161600, Note_off_c, 4, 39, 95
4, 1161600, Note_on_c, 4, 39, 95
4, 1162800, Note_off_c, 4, 39, 95
4, 1163040, Note_on_c, 4, 34, 95
4, 1163520, Note_off_c, 4, 34, 95
4, 1163520, Note_on_c, 4, 37, 95
4, 1164960, Note_off_c, 4, 37, 95
4, 1164960, Note_on_c, 4, 39, 95
4, 1165440, Note_off_c, 4, 39, 95
4, 1165440, Note_on_c, 4, 30, 95
4, 1166400, Note_off_c, 4, 30, 95
4, 1166400, Note_on_c, 4, 27, 95
4, 1167360, Note_off_c, 4, 27, 95
4, 1167360, Note_on_c, 5, 37, 95
4, 1167480, Pitch_bend_c, 5, 8320
4, 1167600, Pitch_bend_c, 5, 8448
4, 1167720, Pitch_bend_c, 5, 8704
4, 1167840, Pitch_bend_c, 5, 8832
4, 1167960, Pitch_bend_c, 5, 8960
4, 1168080, Pitch_bend_c, 5, 9216
4, 1168200, Pitch_bend_c, 5, 9344
4, 1168320, Pitch_bend_c, 5, 9600
4, 1168320, Pitch_bend_c, 5, 8192
4, 1168320, Note_off_c, 5, 37, 95
4, 1168320, Note_on_c, 4, 39, 95
4, 1169280, Note_off_c, 4, 39, 95
4, 1169280, Note_on_c, 4, 39, 95
4, 1170480, Note_off_c, 4, 39, 95
4, 1170720, Note_on_c, 4, 34, 95
4, 1171200, Note_off_c, 4, 34, 95
4, 1171200, Note_on_c, 4, 37, 95
4, 1172640, Note_off_c, 4, 37, 95
4, 1172640, Note_on_c, 4, 39, 95
4, 1173120, Note_off_c, 4, 39, 95
4, 1173120, Note_on_c, 4, 30, 95
4, 1174080, Note_off_c, 4, 30, 95
4, 1174080, Note_on_c, 4, 27, 95
4, 1175040, Note_off_c, 4, 27, 95
4, 1175040, Note_on_c, 5, 37, 95
4, 1175160, Pitch_bend_c, 5, 8320
4, 1175280, Pitch_bend_c, 5, 8448
4, 1175400, Pitch_bend_c, 5, 8704
4, 1175520, Pitch_bend_c, 5, 8832
4, 1175640, Pitch_bend_c, 5, 8960
4, 1175760, Pitch_bend_c, 5, 9216
4, 1175880, Pitch_bend_c, 5, 9344
4, 1176000, Pitch_bend_c, 5, 9600
4, 1176000, Pitch_bend_c, 5, 8192
4, 1176000, Note_off_c, 5, 37, 95
4, 1176000, Note_on_c, 4, 39, 95
4, 1176960, Note_off_c, 4, 39, 95
4, 1176960, Note_on_c, 4, 39, 95
4, 1178160, Note_off_c, 4, 39, 95
4, 1178400, Note_on_c, 4, 34, 95
4, 1178880, Note_off_c, 4, 34, 95
4, 1178880, Note_on_c, 4, 37, 95
4, 1180320, Note_off_c, 4, 37, 95
4, 1180320, Note_on_c, 4, 39, 95
4, 1180800, Note_off_c, 4, 39, 95
4, 1180800, Note_on_c, 4, 30, 95
4, 1181760, Note_off_c, 4, 30, 95
4, 1181760, Note_on_c, 4, 27, 95
4, 1182720, Note_off_c, 4, 27, 95
4, 1182720, Note_on_c, 5, 37, 95
4, 1182840, Pitch_bend_c, 5, 8320
4, 1182960, Pitch_bend_c, 5, 8448
4, 1183080, Pitch_bend_c, 5, 8704
4, 1183200, Pitch_bend_c, 5, 8832
4, 1183320, Pitch_bend_c, 5, 8960
4, 1183440, Pitch_bend_c, 5, 9216
4, 1183560, Pitch_bend_c, 5, 9344
4, 1183680, Pitch_bend_c, 5, 9600
4, 1183680, Pitch_bend_c, 5, 8192
4, 1183680, Note_off_c, 5, 37, 95
4, 1183680, Note_on_c, 4, 39, 95
4, 1184640, Note_off_c, 4, 39, 95
4, 1184640, Note_on_c, 4, 39, 95
4, 1185840, Note_off_c, 4, 39, 95
4, 1186080, Note_on_c, 4, 34, 95
4, 1186560, Note_off_c, 4, 34, 95
4, 1186560, Note_on_c, 4, 37, 95
4, 1188000, Note_off_c, 4, 37, 95
4, 1188000, Note_on_c, 4, 39, 95
4, 1188480, Note_off_c, 4, 39, 95
4, 1188480, Note_on_c, 4, 30, 95
4, 1189440, Note_off_c, 4, 30, 95
4, 1189440, Note_on_c, 4, 27, 95
4, 1190400, Note_off_c, 4, 27, 95
4, 1190400, Note_on_c, 5, 37, 95
4, 1190520, Pitch_bend_c, 5, 8320
4, 1190640, Pitch_bend_c, 5, 8448
4, 1190760, Pitch_bend_c, 5, 8704
4, 1190880, Pitch_bend_c, 5, 8832
4, 1191000, Pitch_bend_c, 5, 8960
4, 1191120, Pitch_bend_c, 5, 9216
4, 1191240, Pitch_bend_c, 5, 9344
4, 1191360, Pitch_bend_c, 5, 9600
4, 1191360, Pitch_bend_c, 5, 8192
4, 1191360, Note_off_c, 5, 37, 95
4, 1191360, Note_on_c, 4, 39, 95
4, 1192320, Note_off_c, 4, 39, 95
4, 1192320, Note_on_c, 4, 39, 95
4, 1193520, Note_off_c, 4, 39, 95
4, 1193760, Note_on_c, 4, 34, 95
4, 1194240, Note_off_c, 4, 34, 95
4, 1194240, Note_on_c, 4, 37, 95
4, 1195680, Note_off_c, 4, 37, 95
4, 1195680, Note_on_c, 4, 39, 95
4, 1196160, Note_off_c, 4, 39, 95
4, 1196160, Note_on_c, 4, 30, 95
4, 1197120, Note_off_c, 4, 30, 95
4, 1197120, Note_on_c, 4, 27, 95
4, 1198080, Note_off_c, 4, 27, 95
4, 1198080, Note_on_c, 5, 37, 95
4, 1198200, Pitch_bend_c, 5, 8320
4, 1198320, Pitch_bend_c, 5, 8448
4, 1198440, Pitch_bend_c, 5, 8704
4, 1198560, Pitch_bend_c, 5, 8832
4, 1198680, Pitch_bend_c, 5, 8960
4, 1198800, Pitch_bend_c, 5, 9216
4, 1198920, Pitch_bend_c, 5, 9344
4, 1199040, Pitch_bend_c, 5, 9600
4, 1199040, Pitch_bend_c, 5, 8192
4, 1199040, Note_off_c, 5, 37, 95
4, 1199040, Note_on_c, 4, 39, 95
4, 1200000, Note_off_c, 4, 39, 95
4, 1200000, Note_on_c, 4, 39, 95
4, 1201200, Note_off_c, 4, 39, 95
4, 1201440, Note_on_c, 4, 34, 95
4, 1201920, Note_off_c, 4, 34, 95
4, 1201920, Note_on_c, 4, 37, 95
4, 1203360, Note_off_c, 4, 37, 95
4, 1203360, Note_on_c, 4, 39, 95
4, 1203840, Note_off_c, 4, 39, 95
4, 1203840, Note_on_c, 4, 30, 95
4, 1204800, Note_off_c, 4, 30, 95
4, 1204800, Note_on_c, 4, 27, 95
4, 1205760, Note_off_c, 4, 27, 95
4, 1205760, Note_on_c, 5, 37, 95
4, 1205880, Pitch_bend_c, 5, 8320
4, 1206000, Pitch_bend_c, 5, 8448
4, 1206120, Pitch_bend_c, 5, 8704
4, 1206240, Pitch_bend_c, 5, 8832
4, 1206360, Pitch_bend_c, 5, 8960
4, 1206480, Pitch_bend_c, 5, 9216
4, 1206600, Pitch_bend_c, 5, 9344
4, 1206720, Pitch_bend_c, 5, 9600
4, 1206720, Pitch_bend_c, 5, 8192
4, 1206720, Note_off_c, 5, 37, 95
4, 1206720, Note_on_c, 4, 39, 95
4, 1207680, Note_off_c, 4, 39, 95
4, 1207680, Note_on_c, 4, 39, 95
4, 1208880, Note_off_c, 4, 39, 95
4, 1209120, Note_on_c, 4, 34, 95
4, 1209600, Note_off_c, 4, 34, 95
4, 1209600, Note_on_c, 4, 37, 95
4, 1211040, Note_off_c, 4, 37, 95
4, 1211040, Note_on_c, 4, 39, 95
4, 1211520, Note_off_c, 4, 39, 95
4, 1211520, Note_on_c, 4, 30, 95
4, 1212480, Note_off_c, 4, 30, 95
4, 1212480, Note_on_c, 4, 27, 95
4, 1213440, Note_off_c, 4, 27, 95
4, 1213440, Note_on_c, 5, 37, 95
4, 1213560, Pitch_bend_c, 5, 8320
4, 1213680, Pitch_bend_c, 5, 8448
4, 1213800, Pitch_bend_c, 5, 8704
4, 1213920, Pitch_bend_c, 5, 8832
4, 1214040, Pitch_bend_c, 5, 8960
4, 1214160, Pitch_bend_c, 5, 9216
4, 1214280, Pitch_bend_c, 5, 9344
4, 1214400, Pitch_bend_c, 5, 9600
4, 1214400, Pitch_bend_c, 5, 8192
4, 1214400, Note_off_c, 5, 37, 95
4, 1214400, Note_on_c, 4, 39, 95
4, 1215360, Note_off_c, 4, 39, 95
4, 1215360, Note_on_c, 4, 39, 95
4, 1216560, Note_off_c, 4, 39, 95
4, 1216800, Note_on_c, 4, 34, 95
4, 1217280, Note_off_c, 4, 34, 95
4, 1217280, Note_on_c, 4, 37, 95
4, 1218720, Note_off_c, 4, 37, 95
4, 1218720, Note_on_c, 4, 39, 95
4, 1219200, Note_off_c, 4, 39, 95
4, 1219200, Note_on_c, 4, 30, 95
4, 1220160, Note_off_c, 4, 30, 95
4, 1220160, Note_on_c, 4, 27, 95
4, 1221120, Note_off_c, 4, 27, 95
4, 1221120, Note_on_c, 5, 37, 95
4, 1221240, Pitch_bend_c, 5, 8320
4, 1221360, Pitch_bend_c, 5, 8448
4, 1221480, Pitch_bend_c, 5, 8704
4, 1221600, Pitch_bend_c, 5, 8832
4, 1221720, Pitch_bend_c, 5, 8960
4, 1221840, Pitch_bend_c, 5, 9216
4, 1221960, Pitch_bend_c, 5, 9344
4, 1222080, Pitch_bend_c, 5, 9600
4, 1222080, Pitch_bend_c, 5, 8192
4, 1222080, Note_off_c, 5, 37, 95
4, 1222080, Note_on_c, 4, 39, 95
4, 1223040, Note_off_c, 4, 39, 95
4, 1223040, Note_on_c, 4, 39, 95
4, 1224240, Note_off_c, 4, 39, 95
4, 1224480, Note_on_c, 4, 34, 95
4, 1224960, Note_off_c, 4, 34, 95
4, 1224960, Note_on_c, 4, 37, 95
4, 1226400, Note_off_c, 4, 37, 95
4, 1226400, Note_on_c, 4, 39, 95
4, 1226880, Note_off_c, 4, 39, 95
4, 1226880, Note_on_c, 4, 30, 95
4, 1227840, Note_off_c, 4, 30, 95
4, 1227840, Note_on_c, 4, 27, 95
4, 1228800, Note_off_c, 4, 27, 95
4, 1228800, Note_on_c, 5, 37, 95
4, 1228920, Pitch_bend_c, 5, 8320
4, 1229040, Pitch_bend_c, 5, 8448
4, 1229160, Pitch_bend_c, 5, 8704
4, 1229280, Pitch_bend_c, 5, 8832
4, 1229400, Pitch_bend_c, 5, 8960
4, 1229520, Pitch_bend_c, 5, 9216
4, 1229640, Pitch_bend_c, 5, 9344
4, 1229760, Pitch_bend_c, 5, 9600
4, 1229760, Pitch_bend_c, 5, 8192
4, 1229760, Note_off_c, 5, 37, 95
4, 1229760, Note_on_c, 4, 39, 95
4, 1230720, Note_off_c, 4, 39, 95
4, 1230720, Note_on_c, 4, 44, 95
4, 1231680, Note_off_c, 4, 44, 95
4, 1231680, Note_on_c, 4, 42, 95
4, 1232640, Note_off_c, 4, 42, 95
4, 1232640, Note_on_c, 4, 37, 95
4, 1234080, Note_off_c, 4, 37, 95
4, 1234080, Note_on_c, 4, 39, 95
4, 1234560, Note_off_c, 4, 39, 95
4, 1234560, Note_on_c, 4, 30, 95
4, 1235520, Note_off_c, 4, 30, 95
4, 1235520, Note_on_c, 4, 27, 95
4, 1236480, Note_off_c, 4, 27, 95
4, 1236480, Note_on_c, 5, 37, 95
4, 1236600, Pitch_bend_c, 5, 8320
4, 1236720, Pitch_bend_c, 5, 8448
4, 1236840, Pitch_bend_c, 5, 8704
4, 1236960, Pitch_bend_c, 5, 8832
4, 1237080, Pitch_bend_c, 5, 8960
4, 1237200, Pitch_bend_c, 5, 9216
4, 1237320, Pitch_bend_c, 5, 9344
4, 1237440, Pitch_bend_c, 5, 9600
4, 1237440, Pitch_bend_c, 5, 8192
4, 1237440, Note_off_c, 5, 37, 95
4, 1237440, Note_on_c, 4, 39, 95
4, 1238400, Note_off_c, 4, 39, 95
4, 1238400, Note_on_c, 4, 39, 95
4, 1239600, Note_off_c, 4, 39, 95
4, 1239840, Note_on_c, 4, 34, 95
4, 1240320, Note_off_c, 4, 34, 95
4, 1240320, Note_on_c, 4, 37, 95
4, 1241760, Note_off_c, 4, 37, 95
4, 1241760, Note_on_c, 4, 39, 95
4, 1242240, Note_off_c, 4, 39, 95
4, 1242240, Note_on_c, 4, 30, 95
4, 1243200, Note_off_c, 4, 30, 95
4, 1243200, Note_on_c, 4, 27, 95
4, 1244160, Note_off_c, 4, 27, 95
4, 1244160, Note_on_c, 5, 37, 95
4, 1244280, Pitch_bend_c, 5, 8320
4, 1244400, Pitch_bend_c, 5, 8448
4, 1244520, Pitch_bend_c, 5, 8704
4, 1244640, Pitch_bend_c, 5, 8832
4, 1244760, Pitch_bend_c, 5, 8960
4, 1244880, Pitch_bend_c, 5, 9216
4, 1245000, Pitch_bend_c, 5, 9344
4, 1245120, Pitch_bend_c, 5, 9600
4, 1245120, Pitch_bend_c, 5, 8192
4, 1245120, Note_off_c, 5, 37, 95
4, 1245120, Note_on_c, 4, 39, 95
4, 1246080, Note_off_c, 4, 39, 95
4, 1246080, Note_on_c, 4, 39, 95
4, 1247280, Note_off_c, 4, 39, 95
4, 1247520, Note_on_c, 4, 34, 95
4, 1248000, Note_off_c, 4, 34, 95
4, 1248000, Note_on_c, 4, 37, 95
4, 1249440, Note_off_c, 4, 37, 95
4, 1249440, Note_on_c, 4, 39, 95
4, 1249920, Note_off_c, 4, 39, 95
4, 1249920, Note_on_c, 4, 30, 95
4, 1250880, Note_off_c, 4, 30, 95
4, 1250880, Note_on_c, 4, 27, 95
4, 1251840, Note_off_c, 4, 27, 95
4, 1251840, Note_on_c, 5, 37, 95
4, 1251960, Pitch_bend_c, 5, 8320
4, 1252080, Pitch_bend_c, 5, 8448
4, 1252200, Pitch_bend_c, 5, 8704
4, 1252320, Pitch_bend_c, 5, 8832
4, 1252440, Pitch_bend_c, 5, 8960
4, 1252560, Pitch_bend_c, 5, 9216
4, 1252680, Pitch_bend_c, 5, 9344
4, 1252800, Pitch_bend_c, 5, 9600
4, 1252800, Pitch_bend_c, 5, 8192
4, 1252800, Note_off_c, 5, 37, 95
4, 1252800, Note_on_c, 4, 39, 95
4, 1253760, Note_off_c, 4, 39, 95
4, 1253760, Note_on_c, 4, 39, 95
4, 1254960, Note_off_c, 4, 39, 95
4, 1255200, Note_on_c, 4, 34, 95
4, 1255680, Note_off_c, 4, 34, 95
4, 1255680, Note_on_c, 4, 37, 95
4, 1257120, Note_off_c, 4, 37, 95
4, 1257120, Note_on_c, 4, 39, 95
4, 1257600, Note_off_c, 4, 39, 95
4, 1257600, Note_on_c, 4, 30, 95
4, 1258560, Note_off_c, 4, 30, 95
4, 1258560, Note_on_c, 4, 27, 95
4, 1259520, Note_off_c, 4, 27, 95
4, 1259520, Note_on_c, 5, 37, 95
4, 1259640, Pitch_bend_c, 5, 8320
4, 1259760, Pitch_bend_c, 5, 8448
4, 1259880, Pitch_bend_c, 5, 8704
4, 1260000, Pitch_bend_c, 5, 8832
4, 1260120, Pitch_bend_c, 5, 8960
4, 1260240, Pitch_bend_c, 5, 9216
4, 1260360, Pitch_bend_c, 5, 9344
4, 1260480, Pitch_bend_c, 5, 9600
4, 1260480, Pitch_bend_c, 5, 8192
4, 1260480, Note_off_c, 5, 37, 95
4, 1260480, Note_on_c, 4, 39, 95
4, 1261440, Note_off_c, 4, 39, 95
4, 1261440, Note_on_c, 4, 39, 95
4, 1262640, Note_off_c, 4, 39, 95
4, 1262880, Note_on_c, 4, 34, 95
4, 1263360, Note_off_c, 4, 34, 95
4, 1263360, Note_on_c, 4, 37, 95
4, 1264800, Note_off_c, 4, 37, 95
4, 1264800, Note_on_c, 4, 39, 95
4, 1265280, Note_off_c, 4, 39, 95
4, 1265280, Note_on_c, 4, 30, 95
4, 1266240, Note_off_c, 4, 30, 95
4, 1266240, Note_on_c, 4, 27, 95
4, 1267200, Note_off_c, 4, 27, 95
4, 1267200, Note_on_c, 5, 37, 95
4, 1267320, Pitch_bend_c, 5, 8320
4, 1267440, Pitch_bend_c, 5, 8448
4, 1267560, Pitch_bend_c, 5, 8704
4, 1267680, Pitch_bend_c, 5, 8832
4, 1267800, Pitch_bend_c, 5, 8960
4, 1267920, Pitch_bend_c, 5, 9216
4, 1268040, Pitch_bend_c, 5, 9344
4, 1268160, Pitch_bend_c, 5, 9600
4, 1268160, Pitch_bend_c, 5, 8192
4, 1268160, Note_off_c, 5, 37, 95
4, 1268160, Note_on_c, 4, 39, 95
4, 1269120, Note_off_c, 4, 39, 95
4, 1269120, Note_on_c, 4, 39, 95
4, 1270320, Note_off_c, 4, 39, 95
4, 1270560, Note_on_c, 4, 34, 95
4, 1271040, Note_off_c, 4, 34, 95
4, 1271040, Note_on_c, 4, 37, 95
4, 1272480, Note_off_c, 4, 37, 95
4, 1272480, Note_on_c, 4, 39, 95
4, 1272960, Note_off_c, 4, 39, 95
4, 1272960, Note_on_c, 4, 30, 95
4, 1273920, Note_off_c, 4, 30, 95
4, 1273920, Note_on_c, 4, 27, 95
4, 1274880, Note_off_c, 4, 27, 95
4, 1274880, Note_on_c, 5, 37, 95
4, 1275000, Pitch_bend_c, 5, 8320
4, 1275120, Pitch_bend_c, 5, 8448
4, 1275240, Pitch_bend_c, 5, 8704
4, 1275360, Pitch_bend_c, 5, 8832
4, 1275480, Pitch_bend_c, 5, 8960
4, 1275600, Pitch_bend_c, 5, 9216
4, 1275720, Pitch_bend_c, 5, 9344
4, 1275840, Pitch_bend_c, 5, 9600
4, 1275840, Pitch_bend_c, 5, 8192
4, 1275840, Note_off_c, 5, 37, 95
4, 1275840, Note_on_c, 4, 39, 95
4, 1276800, Note_off_c, 4, 39, 95
4, 1276800, Note_on_c, 4, 39, 95
4, 1278000, Note_off_c, 4, 39, 95
4, 1278240, Note_on_c, 4, 34, 95
4, 1278720, Note_off_c, 4, 34, 95
4, 1278720, Note_on_c, 4, 37, 95
4, 1280160, Note_off_c, 4, 37, 95
4, 1280160, Note_on_c, 4, 39, 95
4, 1280640, Note_off_c, 4, 39, 95
4, 1280640, Note_on_c, 4, 30, 95
4, 1281600, Note_off_c, 4, 30, 95
4, 1281600, Note_on_c, 4, 27, 95
4, 1282560, Note_off_c, 4, 27, 95
4, 1282560, Note_on_c, 5, 37, 95
4, 1282680, Pitch_bend_c, 5, 8320
4, 1282800, Pitch_bend_c, 5, 8448
4, 1282920, Pitch_bend_c, 5, 8704
4, 1283040, Pitch_bend_c, 5, 8832
4, 1283160, Pitch_bend_c, 5, 8960
4, 1283280, Pitch_bend_c, 5, 9216
4, 1283400, Pitch_bend_c, 5, 9344
4, 1283520, Pitch_bend_c, 5, 9600
4, 1283520, Pitch_bend_c, 5, 8192
4, 1283520, Note_off_c, 5, 37, 95
4, 1283520, Note_on_c, 4, 39, 95
4, 1284480, Note_off_c, 4, 39, 95
4, 1284480, Note_on_c, 4, 39, 95
4, 1285680, Note_off_c, 4, 39, 95
4, 1285920, Note_on_c, 4, 34, 95
4, 1286400, Note_off_c, 4, 34, 95
4, 1286400, Note_on_c, 4, 37, 95
4, 1287840, Note_off_c, 4, 37, 95
4, 1287840, Note_on_c, 4, 39, 95
4, 1288320, Note_off_c, 4, 39, 95
4, 1288320, Note_on_c, 4, 30, 95
4, 1289280, Note_off_c, 4, 30, 95
4, 1289280, Note_on_c, 4, 27, 95
4, 1290240, Note_off_c, 4, 27, 95
4, 1290240, Note_on_c, 5, 37, 95
4, 1290360, Pitch_bend_c, 5, 8320
4, 1290480, Pitch_bend_c, 5, 8448
4, 1290600, Pitch_bend_c, 5, 8704
4, 1290720, Pitch_bend_c, 5, 8832
4, 1290840, Pitch_bend_c, 5, 8960
4, 1290960, Pitch_bend_c, 5, 9216
4, 1291080, Pitch_bend_c, 5, 9344
4, 1291200, Pitch_bend_c, 5, 9600
4, 1291200, Pitch_bend_c, 5, 8192
4, 1291200, Note_off_c, 5, 37, 95
4, 1291200, Note_on_c, 4, 39, 95
4, 1292160, Note_off_c, 4, 39, 95
4, 1292160, Note_on_c, 4, 39, 95
4, 1293360, Note_off_c, 4, 39, 95
4, 1293600, Note_on_c, 4, 34, 95
4, 1294080, Note_off_c, 4, 34, 95
4, 1294080, Note_on_c, 4, 37, 95
4, 1295520, Note_off_c, 4, 37, 95
4, 1295520, Note_on_c, 4, 39, 95
4, 1296000, Note_off_c, 4, 39, 95
4, 1296000, Note_on_c, 4, 30, 95
4, 1296960, Note_off_c, 4, 30, 95
4, 1296960, Note_on_c, 4, 27, 95
4, 1297920, Note_off_c, 4, 27, 95
4, 1297920, Note_on_c, 5, 37, 95
4, 1298040, Pitch_bend_c, 5, 8320
4, 1298160, Pitch_bend_c, 5, 8448
4, 1298280, Pitch_bend_c, 5, 8704
4, 1298400, Pitch_bend_c, 5, 8832
4, 1298520, Pitch_bend_c, 5, 8960
4, 1298640, Pitch_bend_c, 5, 9216
4, 1298760, Pitch_bend_c, 5, 9344
4, 1298880, Pitch_bend_c, 5, 9600
4, 1298880, Pitch_bend_c, 5, 8192
4, 1298880, Note_off_c, 5, 37, 95
4, 1298880, Note_on_c, 4, 39, 95
4, 1299840, Note_off_c, 4, 39, 95
4, 1299840, Note_on_c, 4, 39, 95
4, 1301040, Note_off_c, 4, 39, 95
4, 1301280, Note_on_c, 4, 34, 95
4, 1301760, Note_off_c, 4, 34, 95
4, 1301760, Note_on_c, 4, 37, 95
4, 1303200, Note_off_c, 4, 37, 95
4, 1303200, Note_on_c, 4, 39, 95
4, 1303680, Note_off_c, 4, 39, 95
4, 1303680, Note_on_c, 4, 30, 95
4, 1304640, Note_off_c, 4, 30, 95
4, 1304640, Note_on_c, 4, 27, 95
4, 1305600, Note_off_c, 4, 27, 95
4, 1305600, Note_on_c, 5, 37, 95
4, 1305720, Pitch_bend_c, 5, 8320
4, 1305840, Pitch_bend_c, 5, 8448
4, 1305960, Pitch_bend_c, 5, 8704
4, 1306080, Pitch_bend_c, 5, 8832
4, 1306200, Pitch_bend_c, 5, 8960
4, 1306320, Pitch_bend_c, 5, 9216
4, 1306440, Pitch_bend_c, 5, 9344
4, 1306560, Pitch_bend_c, 5, 9600
4, 1306560, Pitch_bend_c, 5, 8192
4, 1306560, Note_off_c, 5, 37, 95
4, 1306560, Note_on_c, 4, 39, 95
4, 1307520, Note_off_c, 4, 39, 95
4, 1307520, Note_on_c, 4, 39, 95
4, 1308720, Note_off_c, 4, 39, 95
4, 1308960, Note_on_c, 4, 34, 95
4, 1309440, Note_off_c, 4, 34, 95
4, 1309440, Note_on_c, 4, 37, 95
4, 1310880, Note_off_c, 4, 37, 95
4, 1310880, Note_on_c, 4, 39, 95
4, 1311360, Note_off_c, 4, 39, 95
4, 1311360, Note_on_c, 4, 30, 95
4, 1312320, Note_off_c, 4, 30, 95
4, 1312320, Note_on_c, 4, 27, 95
4, 1313280, Note_off_c, 4, 27, 95
4, 1313280, Note_on_c, 5, 37, 95
4, 1313400, Pitch_bend_c, 5, 8320
4, 1313520, Pitch_bend_c, 5, 8448
4, 1313640, Pitch_bend_c, 5, 8704
4, 1313760, Pitch_bend_c, 5, 8832
4, 1313880, Pitch_bend_c, 5, 8960
4, 1314000, Pitch_bend_c, 5, 9216
4, 1314120, Pitch_bend_c, 5, 9344
4, 1314240, Pitch_bend_c, 5, 9600
4, 1314240, Pitch_bend_c, 5, 8192
4, 1314240, Note_off_c, 5, 37, 95
4, 1314240, Note_on_c, 4, 39, 95
4, 1315200, Note_off_c, 4, 39, 95
4, 1315200, Note_on_c, 4, 39, 95
4, 1316400, Note_off_c, 4, 39, 95
4, 1316640, Note_on_c, 4, 34, 95
4, 1317120, Note_off_c, 4, 34, 95
4, 1317120, Note_on_c, 4, 37, 95
4, 1318560, Note_off_c, 4, 37, 95
4, 1318560, Note_on_c, 4, 39, 95
4, 1319040, Note_off_c, 4, 39, 95
4, 1319040, Note_on_c, 4, 30, 95
4, 1320000, Note_off_c, 4, 30, 95
4, 1320000, Note_on_c, 4, 27, 95
4, 1320960, Note_off_c, 4, 27, 95
4, 1320960, Note_on_c, 5, 37, 95
4, 1321080, Pitch_bend_c, 5, 8320
4, 1321200, Pitch_bend_c, 5, 8448
4, 1321320, Pitch_bend_c, 5, 8704
4, 1321440, Pitch_bend_c, 5, 8832
4, 1321560, Pitch_bend_c, 5, 8960
4, 1321680, Pitch_bend_c, 5, 9216
4, 1321800, Pitch_bend_c, 5, 9344
4, 1321920, Pitch_bend_c, 5, 9600
4, 1321920, Pitch_bend_c, 5, 8192
4, 1321920, Note_off_c, 5, 37, 95
4, 1321920, Note_on_c, 4, 39, 95
4, 1322880, Note_off_c, 4, 39, 95
4, 1322880, Note_on_c, 4, 39, 95
4, 1324080, Note_off_c, 4, 39, 95
4, 1324320, Note_on_c, 4, 34, 95
4, 1324800, Note_off_c, 4, 34, 95
4, 1324800, Note_on_c, 4, 37, 95
4, 1326240, Note_off_c, 4, 37, 95
4, 1326240, Note_on_c, 4, 39, 95
4, 1326720, Note_off_c, 4, 39, 95
4, 1326720, Note_on_c, 4, 30, 95
4, 1327680, Note_off_c, 4, 30, 95
4, 1327680, Note_on_c, 4, 27, 95
4, 1328640, Note_off_c, 4, 27, 95
4, 1328640, Note_on_c, 5, 37, 95
4, 1328760, Pitch_bend_c, 5, 8320
4, 1328880, Pitch_bend_c, 5, 8448
4, 1329000, Pitch_bend_c, 5, 8704
4, 1329120, Pitch_bend_c, 5, 8832
4, 1329240, Pitch_bend_c, 5, 8960
4, 1329360, Pitch_bend_c, 5, 9216
4, 1329480, Pitch_bend_c, 5, 9344
4, 1329600, Pitch_bend_c, 5, 9600
4, 1329600, Pitch_bend_c, 5, 8192
4, 1329600, Note_off_c, 5, 37, 95
4, 1329600, Note_on_c, 4, 39, 95
4, 1330560, Note_off_c, 4, 39, 95
4, 1330560, Note_on_c, 4, 39, 95
4, 1331760, Note_off_c, 4, 39, 95
4, 1332000, Note_on_c, 4, 34, 95
4, 1332480, Note_off_c, 4, 34, 95
4, 1332480, Note_on_c, 4, 37, 95
4, 1333920, Note_off_c, 4, 37, 95
4, 1333920, Note_on_c, 4, 39, 95
4, 1334400, Note_off_c, 4, 39, 95
4, 1334400, Note_on_c, 4, 30, 95
4, 1335360, Note_off_c, 4, 30, 95
4, 1335360, Note_on_c, 4, 27, 95
4, 1336320, Note_off_c, 4, 27, 95
4, 1336320, Note_on_c, 5, 37, 95
4, 1336440, Pitch_bend_c, 5, 8320
4, 1336560, Pitch_bend_c, 5, 8448
4, 1336680, Pitch_bend_c, 5, 8704
4, 1336800, Pitch_bend_c, 5, 8832
4, 1336920, Pitch_bend_c, 5, 8960
4, 1337040, Pitch_bend_c, 5, 9216
4, 1337160, Pitch_bend_c, 5, 9344
4, 1337280, Pitch_bend_c, 5, 9600
4, 1337280, Pitch_bend_c, 5, 8192
4, 1337280, Note_off_c, 5, 37, 95
4, 1337280, Note_on_c, 4, 39, 95
4, 1338240, Note_off_c, 4, 39, 95
4, 1338240, Note_on_c, 4, 39, 95
4, 1339440, Note_off_c, 4, 39, 95
4, 1339680, Note_on_c, 4, 34, 95
4, 1340160, Note_off_c, 4, 34, 95
4, 1340160, Note_on_c, 4, 37, 95
4, 1341600, Note_off_c, 4, 37, 95
4, 1341600, Note_on_c, 4, 39, 95
4, 1342080, Note_off_c, 4, 39, 95
4, 1342080, Note_on_c, 4, 30, 95
4, 1343040, Note_off_c, 4, 30, 95
4, 1343040, Note_on_c, 4, 27, 95
4, 1344000, Note_off_c, 4, 27, 95
4, 1344000, Note_on_c, 5, 37, 95
4, 1344120, Pitch_bend_c, 5, 8320
4, 1344240, Pitch_bend_c, 5, 8448
4, 1344360, Pitch_bend_c, 5, 8704
4, 1344480, Pitch_bend_c, 5, 8832
4, 1344600, Pitch_bend_c, 5, 8960
4, 1344720, Pitch_bend_c, 5, 9216
4, 1344840, Pitch_bend_c, 5, 9344
4, 1344960, Pitch_bend_c, 5, 9600
4, 1344960, Pitch_bend_c, 5, 8192
4, 1344960, Note_off_c, 5, 37, 95
4, 1344960, Note_on_c, 4, 39, 95
4, 1345920, Note_off_c, 4, 39, 95
4, 1345920, Note_on_c, 4, 39, 95
4, 1347120, Note_off_c, 4, 39, 95
4, 1347360, Note_on_c, 4, 34, 95
4, 1347840, Note_off_c, 4, 34, 95
4, 1347840, Note_on_c, 4, 37, 95
4, 1349280, Note_off_c, 4, 37, 95
4, 1349280, Note_on_c, 4, 39, 95
4, 1349760, Note_off_c, 4, 39, 95
4, 1349760, Note_on_c, 4, 30, 95
4, 1350720, Note_off_c, 4, 30, 95
4, 1350720, Note_on_c, 4, 27, 95
4, 1351680, Note_off_c, 4, 27, 95
4, 1351680, Note_on_c, 5, 37, 95
4, 1351800, Pitch_bend_c, 5, 8320
4, 1351920, Pitch_bend_c, 5, 8448
4, 1352040, Pitch_bend_c, 5, 8704
4, 1352160, Pitch_bend_c, 5, 8832
4, 1352280, Pitch_bend_c, 5, 8960
4, 1352400, Pitch_bend_c, 5, 9216
4, 1352520, Pitch_bend_c, 5, 9344
4, 1352640, Pitch_bend_c, 5, 9600
4, 1352640, Pitch_bend_c, 5, 8192
4, 1352640, Note_off_c, 5, 37, 95
4, 1352640, Note_on_c, 4, 39, 95
4, 1353600, Note_off_c, 4, 39, 95
4, 1353600, Note_on_c, 4, 39, 95
4, 1354800, Note_off_c, 4, 39, 95
4, 1355040, Note_on_c, 4, 34, 95
4, 1355520, Note_off_c, 4, 34, 95
4, 1355520, Note_on_c, 4, 37, 95
4, 1356960, Note_off_c, 4, 37, 95
4, 1356960, Note_on_c, 4, 39, 95
4, 1357440, Note_off_c, 4, 39, 95
4, 1357440, Note_on_c, 4, 30, 95
4, 1358400, Note_off_c, 4, 30, 95
4, 1358400, Note_on_c, 4, 27, 95
4, 1359360, Note_off_c, 4, 27, 95
4, 1359360, Note_on_c, 5, 37, 95
4, 1359480, Pitch_bend_c, 5, 8320
4, 1359600, Pitch_bend_c, 5, 8448
4, 1359720, Pitch_bend_c, 5, 8704
4, 1359840, Pitch_bend_c, 5, 8832
4, 1359960, Pitch_bend_c, 5, 8960
4, 1360080, Pitch_bend_c, 5, 9216
4, 1360200, Pitch_bend_c, 5, 9344
4, 1360320, Pitch_bend_c, 5, 9600
4, 1360320, Pitch_bend_c, 5, 8192
4, 1360320, Note_off_c, 5, 37, 95
4, 1360320, Note_on_c, 4, 39, 95
4, 1361280, Note_off_c, 4, 39, 95
4, 1361280, Note_on_c, 4, 39, 95
4, 1362480, Note_off_c, 4, 39, 95
4, 1362720, Note_on_c, 4, 34, 95
4, 1363200, Note_off_c, 4, 34, 95
4, 1363200, Note_on_c, 4, 37, 95
4, 1364640, Note_off_c, 4, 37, 95
4, 1364640, Note_on_c, 4, 39, 95
4, 1365120, Note_off_c, 4, 39, 95
4, 1365120, Note_on_c, 4, 30, 95
4, 1366080, Note_off_c, 4, 30, 95
4, 1366080, Note_on_c, 4, 27, 95
4, 1367040, Note_off_c, 4, 27, 95
4, 1367040, Note_on_c, 5, 37, 95
4, 1367160, Pitch_bend_c, 5, 8320
4, 1367280, Pitch_bend_c, 5, 8448
4, 1367400, Pitch_bend_c, 5, 8704
4, 1367520, Pitch_bend_c, 5, 8832
4, 1367640, Pitch_bend_c, 5, 8960
4, 1367760, Pitch_bend_c, 5, 9216
4, 1367880, Pitch_bend_c, 5, 9344
4, 1368000, Pitch_bend_c, 5, 9600
4, 1368000, Pitch_bend_c, 5, 8192
4, 1368000, Note_off_c, 5, 37, 95
4, 1368000, Note_on_c, 4, 39, 95
4, 1368960, Note_off_c, 4, 39, 95
4, 1368960, Note_on_c, 4, 39, 95
4, 1370160, Note_off_c, 4, 39, 95
4, 1370400, Note_on_c, 4, 34, 95
4, 1370880, Note_off_c, 4, 34, 95
4, 1370880, Note_on_c, 4, 37, 95
4, 1372320, Note_off_c, 4, 37, 95
4, 1372320, Note_on_c, 4, 39, 95
4, 1372800, Note_off_c, 4, 39, 95
4, 1372800, Note_on_c, 4, 30, 95
4, 1373760, Note_off_c, 4, 30, 95
4, 1373760, Note_on_c, 4, 27, 95
4, 1374720, Note_off_c, 4, 27, 95
4, 1374720, Note_on_c, 5, 37, 95
4, 1374840, Pitch_bend_c, 5, 8320
4, 1374960, Pitch_bend_c, 5, 8448
4, 1375080, Pitch_bend_c, 5, 8704
4, 1375200, Pitch_bend_c, 5, 8832
4, 1375320, Pitch_bend_c, 5, 8960
4, 1375440, Pitch_bend_c, 5, 9216
4, 1375560, Pitch_bend_c, 5, 9344
4, 1375680, Pitch_bend_c, 5, 9600
4, 1375680, Pitch_bend_c, 5, 8192
4, 1375680, Note_off_c, 5, 37, 95
4, 1375680, Note_on_c, 4, 39, 95
4, 1376640, Note_off_c, 4, 39, 95
4, 1376640, Note_on_c, 4, 39, 95
4, 1377840, Note_off_c, 4, 39, 95
4, 1378080, Note_on_c, 4, 34, 95
4, 1378560, Note_off_c, 4, 34, 95
4, 1378560, Note_on_c, 4, 37, 95
4, 1380000, Note_off_c, 4, 37, 95
4, 1380000, Note_on_c, 4, 39, 95
4, 1380480, Note_off_c, 4, 39, 95
4, 1380480, Note_on_c, 4, 30, 95
4, 1381440, Note_off_c, 4, 30, 95
4, 1381440, Note_on_c, 4, 27, 95
4, 1382400, Note_off_c, 4, 27, 95
4, 1382400, Note_on_c, 5, 37, 95
4, 1382520, Pitch_bend_c, 5, 8320
4, 1382640, Pitch_bend_c, 5, 8448
4, 1382760, Pitch_bend_c, 5, 8704
4, 1382880, Pitch_bend_c, 5, 8832
4, 1383000, Pitch_bend_c, 5, 8960
4, 1383120, Pitch_bend_c, 5, 9216
4, 1383240, Pitch_bend_c, 5, 9344
4, 1383360, Pitch_bend_c, 5, 9600
4, 1383360, Pitch_bend_c, 5, 8192
4, 1383360, Note_off_c, 5, 37, 95
4, 1383360, Note_on_c, 4, 39, 95
4, 1384320, Note_off_c, 4, 39, 95
4, 1384320, Note_on_c, 4, 39, 95
4, 1385520, Note_off_c, 4, 39, 95
4, 1385760, Note_on_c, 4, 34, 95
4, 1386240, Note_off_c, 4, 34, 95
4, 1386240, Note_on_c, 4, 37, 95
4, 1387680, Note_off_c, 4, 37, 95
4, 1387680, Note_on_c, 4, 39, 95
4, 1388160, Note_off_c, 4, 39, 95
4, 1388160, Note_on_c, 4, 30, 95
4, 1389120, Note_off_c, 4, 30, 95
4, 1389120, Note_on_c, 4, 27, 95
4, 1390080, Note_off_c, 4, 27, 95
4, 1390080, Note_on_c, 5, 37, 95
4, 1390200, Pitch_bend_c, 5, 8320
4, 1390320, Pitch_bend_c, 5, 8448
4, 1390440, Pitch_bend_c, 5, 8704
4, 1390560, Pitch_bend_c, 5, 8832
4, 1390680, Pitch_bend_c, 5, 8960
4, 1390800, Pitch_bend_c, 5, 9216
4, 1390920, Pitch_bend_c, 5, 9344
4, 1391040, Pitch_bend_c, 5, 9600
4, 1391040, Pitch_bend_c, 5, 8192
4, 1391040, Note_off_c, 5, 37, 95
4, 1391040, Note_on_c, 4, 39, 95
4, 1392000, Note_off_c, 4, 39, 95
4, 1392000, Note_on_c, 4, 39, 95
4, 1393200, Note_off_c, 4, 39, 95
4, 1393440, Note_on_c, 4, 34, 95
4, 1393920, Note_off_c, 4, 34, 95
4, 1393920, Note_on_c, 4, 37, 95
4, 1395360, Note_off_c, 4, 37, 95
4, 1395360, Note_on_c, 4, 39, 95
4, 1395840, Note_off_c, 4, 39, 95
4, 1395840, Note_on_c, 4, 30, 95
4, 1396800, Note_off_c, 4, 30, 95
4, 1396800, Note_on_c, 4, 27, 95
4, 1397760, Note_off_c, 4, 27, 95
4, 1397760, Note_on_c, 5, 37, 95
4, 1397880, Pitch_bend_c, 5, 8320
4, 1398000, Pitch_bend_c, 5, 8448
4, 1398120, Pitch_bend_c, 5, 8704
4, 1398240, Pitch_bend_c, 5, 8832
4, 1398360, Pitch_bend_c, 5, 8960
4, 1398480, Pitch_bend_c, 5, 9216
4, 1398600, Pitch_bend_c, 5, 9344
4, 1398720, Pitch_bend_c, 5, 9600
4, 1398720, Pitch_bend_c, 5, 8192
4, 1398720, Note_off_c, 5, 37, 95
4, 1398720, Note_on_c, 4, 39, 95
4, 1399680, Note_off_c, 4, 39, 95
4, 1399680, Note_on_c, 4, 39, 95
4, 1400880, Note_off_c, 4, 39, 95
4, 1401120, Note_on_c, 4, 34, 95
4, 1401600, Note_off_c, 4, 34, 95
4, 1401600, Note_on_c, 4, 37, 95
4, 1403040, Note_off_c, 4, 37, 95
4, 1403040, Note_on_c, 4, 39, 95
4, 1403520, Note_off_c, 4, 39, 95
4, 1403520, Note_on_c, 4, 30, 95
4, 1404480, Note_off_c, 4, 30, 95
4, 1404480, Note_on_c, 4, 27, 95
4, 1405440, Note_off_c, 4, 27, 95
4, 1405440, Note_on_c, 5, 37, 95
4, 1405560, Pitch_bend_c, 5, 8320
4, 1405680, Pitch_bend_c, 5, 8448
4, 1405800, Pitch_bend_c, 5, 8704
4, 1405920, Pitch_bend_c, 5, 8832
4, 1406040, Pitch_bend_c, 5, 8960
4, 1406160, Pitch_bend_c, 5, 9216
4, 1406280, Pitch_bend_c, 5, 9344
4, 1406400, Pitch_bend_c, 5, 9600
4, 1406400, Pitch_bend_c, 5, 8192
4, 1406400, Note_off_c, 5, 37, 95
4, 1406400, Note_on_c, 4, 39, 95
4, 1407360, Note_off_c, 4, 39, 95
4, 1407360, Note_on_c, 4, 39, 95
4, 1408560, Note_off_c, 4, 39, 95
4, 1408800, Note_on_c, 4, 34, 95
4, 1409280, Note_off_c, 4, 34, 95
4, 1409280, Note_on_c, 4, 37, 95
4, 1410720, Note_off_c, 4, 37, 95
4, 1410720, Note_on_c, 4, 39, 95
4, 1411200, Note_off_c, 4, 39, 95
4, 1411200, Note_on_c, 4, 30, 95
4, 1412160, Note_off_c, 4, 30, 95
4, 1412160, Note_on_c, 4, 27, 95
4, 1413120, Note_off_c, 4, 27, 95
4, 1413120, Note_on_c, 5, 37, 95
4, 1413240, Pitch_bend_c, 5, 8320
4, 1413360, Pitch_bend_c, 5, 8448
4, 1413480, Pitch_bend_c, 5, 8704
4, 1413600, Pitch_bend_c, 5, 8832
4, 1413720, Pitch_bend_c, 5, 8960
4, 1413840, Pitch_bend_c, 5, 9216
4, 1413960, Pitch_bend_c, 5, 9344
4, 1414080, Pitch_bend_c, 5, 9600
4, 1414080, Pitch_bend_c, 5, 8192
4, 1414080, Note_off_c, 5, 37, 95
4, 1414080, Note_on_c, 4, 39, 95
4, 1415040, Note_off_c, 4, 39, 95
4, 1415040, Note_on_c, 4, 39, 95
4, 1416240, Note_off_c, 4, 39, 95
4, 1416480, Note_on_c, 4, 34, 95
4, 1416960, Note_off_c, 4, 34, 95
4, 1416960, Note_on_c, 4, 37, 95
4, 1418400, Note_off_c, 4, 37, 95
4, 1418400, Note_on_c, 4, 39, 95
4, 1418880, Note_off_c, 4, 39, 95
4, 1418880, Note_on_c, 4, 30, 95
4, 1419840, Note_off_c, 4, 30, 95
4, 1419840, Note_on_c, 4, 27, 95
4, 1420800, Note_off_c, 4, 27, 95
4, 1420800, Note_on_c, 5, 37, 95
4, 1420920, Pitch_bend_c, 5, 8320
4, 1421040, Pitch_bend_c, 5, 8448
4, 1421160, Pitch_bend_c, 5, 8704
4, 1421280, Pitch_bend_c, 5, 8832
4, 1421400, Pitch_bend_c, 5, 8960
4, 1421520, Pitch_bend_c, 5, 9216
4, 1421640, Pitch_bend_c, 5, 9344
4, 1421760, Pitch_bend_c, 5, 9600
4, 1421760, Pitch_bend_c, 5, 8192
4, 1421760, Note_off_c, 5, 37, 95
4, 1421760, Note_on_c, 4, 39, 95
4, 1422720, Note_off_c, 4, 39, 95
4, 1422720, Note_on_c, 4, 39, 95
4, 1423920, Note_off_c, 4, 39, 95
4, 1424160, Note_on_c, 4, 34, 95
4, 1424640, Note_off_c, 4, 34, 95
4, 1424640, Note_on_c, 4, 37, 95
4, 1426080, Note_off_c, 4, 37, 95
4, 1426080, Note_on_c, 4, 39, 95
4, 1426560, Note_off_c, 4, 39, 95
4, 1426560, Note_on_c, 4, 30, 95
4, 1427520, Note_off_c, 4, 30, 95
4, 1427520, Note_on_c, 4, 27, 95
4, 1428480, Note_off_c, 4, 27, 95
4, 1428480, Note_on_c, 5, 37, 95
4, 1428600, Pitch_bend_c, 5, 8320
4, 1428720, Pitch_bend_c, 5, 8448
4, 1428840, Pitch_bend_c, 5, 8704
4, 1428960, Pitch_bend_c, 5, 8832
4, 1429080, Pitch_bend_c, 5, 8960
4, 1429200, Pitch_bend_c, 5, 9216
4, 1429320, Pitch_bend_c, 5, 9344
4, 1429440, Pitch_bend_c, 5, 9600
4, 1429440, Pitch_bend_c, 5, 8192
4, 1429440, Note_off_c, 5, 37, 95
4, 1429440, Note_on_c, 4, 39, 95
4, 1430400, Note_off_c, 4, 39, 95
4, 1430400, Note_on_c, 4, 39, 95
4, 1431600, Note_off_c, 4, 39, 95
4, 1431840, Note_on_c, 4, 34, 95
4, 1432320, Note_off_c, 4, 34, 95
4, 1432320, Note_on_c, 4, 37, 95
4, 1433760, Note_off_c, 4, 37, 95
4, 1433760, Note_on_c, 4, 39, 95
4, 1434240, Note_off_c, 4, 39, 95
4, 1434240, Note_on_c, 4, 30, 95
4, 1435200, Note_off_c, 4, 30, 95
4, 1435200, Note_on_c, 4, 27, 95
4, 1436160, Note_off_c, 4, 27, 95
4, 1436160, Note_on_c, 5, 37, 95
4, 1436280, Pitch_bend_c, 5, 8320
4, 1436400, Pitch_bend_c, 5, 8448
4, 1436520, Pitch_bend_c, 5, 8704
4, 1436640, Pitch_bend_c, 5, 8832
4, 1436760, Pitch_bend_c, 5, 8960
4, 1436880, Pitch_bend_c, 5, 9216
4, 1437000, Pitch_bend_c, 5, 9344
4, 1437120, Pitch_bend_c, 5, 9600
4, 1437120, Pitch_bend_c, 5, 8192
4, 1437120, Note_off_c, 5, 37, 95
4, 1437120, Note_on_c, 4, 39, 95
4, 1438080, Note_off_c, 4, 39, 95
4, 1438080, Note_on_c, 4, 39, 95
4, 1439280, Note_off_c, 4, 39, 95
4, 1439520, Note_on_c, 4, 34, 95
4, 1440000, Note_off_c, 4, 34, 95
4, 1440000, Note_on_c, 4, 37, 95
4, 1441440, Note_off_c, 4, 37, 95
4, 1441440, Note_on_c, 4, 39, 95
4, 1441920, Note_off_c, 4, 39, 95
4, 1441920, Note_on_c, 4, 30, 95
4, 1442880, Note_off_c, 4, 30, 95
4, 1442880, Note_on_c, 4, 27, 95
4, 1443840, Note_off_c, 4, 27, 95
4, 1443840, Note_on_c, 5, 37, 95
4, 1443960, Pitch_bend_c, 5, 8320
4, 1444080, Pitch_bend_c, 5, 8448
4, 1444200, Pitch_bend_c, 5, 8704
4, 1444320, Pitch_bend_c, 5, 8832
4, 1444440, Pitch_bend_c, 5, 8960
4, 1444560, Pitch_bend_c, 5, 9216
4, 1444680, Pitch_bend_c, 5, 9344
4, 1444800, Pitch_bend_c, 5, 9600
4, 1444800, Pitch_bend_c, 5, 8192
4, 1444800, Note_off_c, 5, 37, 95
4, 1444800, Note_on_c, 4, 39, 95
4, 1445760, Note_off_c, 4, 39, 95
4, 1445760, Note_on_c, 4, 39, 95
4, 1446960, Note_off_c, 4, 39, 95
4, 1447200, Note_on_c, 4, 34, 95
4, 1447680, Note_off_c, 4, 34, 95
4, 1447680, Note_on_c, 4, 37, 95
4, 1449120, Note_off_c, 4, 37, 95
4, 1449120, Note_on_c, 4, 39, 95
4, 1449600, Note_off_c, 4, 39, 95
4, 1449600, Note_on_c, 4, 30, 95
4, 1450560, Note_off_c, 4, 30, 95
4, 1450560, Note_on_c, 4, 27, 95
4, 1451520, Note_off_c, 4, 27, 95
4, 1451520, Note_on_c, 5, 37, 95
4, 1451640, Pitch_bend_c, 5, 8320
4, 1451760, Pitch_bend_c, 5, 8448
4, 1451880, Pitch_bend_c, 5, 8704
4, 1452000, Pitch_bend_c, 5, 8832
4, 1452120, Pitch_bend_c, 5, 8960
4, 1452240, Pitch_bend_c, 5, 9216
4, 1452360, Pitch_bend_c, 5, 9344
4, 1452480, Pitch_bend_c, 5, 9600
4, 1452480, Pitch_bend_c, 5, 8192
4, 1452480, Note_off_c, 5, 37, 95
4, 1452480, Note_on_c, 4, 39, 95
4, 1453440, Note_off_c, 4, 39, 95
4, 1453440, Note_on_c, 4, 39, 95
4, 1454640, Note_off_c, 4, 39, 95
4, 1454880, Note_on_c, 4, 34, 95
4, 1455360, Note_off_c, 4, 34, 95
4, 1455360, Note_on_c, 4, 37, 95
4, 1456800, Note_off_c, 4, 37, 95
4, 1456800, Note_on_c, 4, 39, 95
4, 1457280, Note_off_c, 4, 39, 95
4, 1457280, Note_on_c, 4, 30, 95
4, 1458240, Note_off_c, 4, 30, 95
4, 1458240, Note_on_c, 4, 27, 95
4, 1459200, Note_off_c, 4, 27, 95
4, 1459200, Note_on_c, 5, 37, 95
4, 1459320, Pitch_bend_c, 5, 8320
4, 1459440, Pitch_bend_c, 5, 8448
4, 1459560, Pitch_bend_c, 5, 8704
4, 1459680, Pitch_bend_c, 5, 8832
4, 1459800, Pitch_bend_c, 5, 8960
4, 1459920, Pitch_bend_c, 5, 9216
4, 1460040, Pitch_bend_c, 5, 9344
4, 1460160, Pitch_bend_c, 5, 9600
4, 1460160, Pitch_bend_c, 5, 8192
4, 1460160, Note_off_c, 5, 37, 95
4, 1460160, Note_on_c, 4, 39, 95
4, 1461120, Note_off_c, 4, 39, 95
4, 1461120, Note_on_c, 4, 39, 95
4, 1462320, Note_off_c, 4, 39, 95
4, 1462560, Note_on_c, 4, 34, 95
4, 1463040, Note_off_c, 4, 34, 95
4, 1463040, Note_on_c, 4, 37, 95
4, 1464480, Note_off_c, 4, 37, 95
4, 1464480, Note_on_c, 4, 39, 95
4, 1464960, Note_off_c, 4, 39, 95
4, 1464960, Note_on_c, 4, 30, 95
4, 1465920, Note_off_c, 4, 30, 95
4, 1465920, Note_on_c, 4, 27, 95
4, 1466880, Note_off_c, 4, 27, 95
4, 1466880, Note_on_c, 5, 37, 95
4, 1467000, Pitch_bend_c, 5, 8320
4, 1467120, Pitch_bend_c, 5, 8448
4, 1467240, Pitch_bend_c, 5, 8704
4, 1467360, Pitch_bend_c, 5, 8832
4, 1467480, Pitch_bend_c, 5, 8960
4, 1467600, Pitch_bend_c, 5, 9216
4, 1467720, Pitch_bend_c, 5, 9344
4, 1467840, Pitch_bend_c, 5, 9600
4, 1467840, Pitch_bend_c, 5, 8192
4, 1467840, Note_off_c, 5, 37, 95
4, 1467840, Note_on_c, 4, 39, 95
4, 1468800, Note_off_c, 4, 39, 95
4, 1468800, Note_on_c, 4, 39, 95
4, 1470000, Note_off_c, 4, 39, 95
4, 1470240, Note_on_c, 4, 34, 95
4, 1470720, Note_off_c, 4, 34, 95
4, 1470720, Note_on_c, 4, 37, 95
4, 1472160, Note_off_c, 4, 37, 95
4, 1472160, Note_on_c, 4, 39, 95
4, 1472640, Note_off_c, 4, 39, 95
4, 1472640, Note_on_c, 4, 30, 95
4, 1473600, Note_off_c, 4, 30, 95
4, 1473600, Note_on_c, 4, 27, 95
4, 1474560, Note_off_c, 4, 27, 95
4, 1474560, Note_on_c, 5, 37, 95
4, 1474680, Pitch_bend_c, 5, 8320
4, 1474800, Pitch_bend_c, 5, 8448
4, 1474920, Pitch_bend_c, 5, 8704
4, 1475040, Pitch_bend_c, 5, 8832
4, 1475160, Pitch_bend_c, 5, 8960
4, 1475280, Pitch_bend_c, 5, 9216
4, 1475400, Pitch_bend_c, 5, 9344
4, 1475520, Pitch_bend_c, 5, 9600
4, 1475520, Pitch_bend_c, 5, 8192
4, 1475520, Note_off_c, 5, 37, 95
4, 1475520, Note_on_c, 4, 39, 95
4, 1476480, Note_off_c, 4, 39, 95
4, 1476480, Note_on_c, 4, 39, 95
4, 1477680, Note_off_c, 4, 39, 95
4, 1477920, Note_on_c, 4, 34, 95
4, 1478400, Note_off_c, 4, 34, 95
4, 1478400, Note_on_c, 4, 37, 95
4, 1479840, Note_off_c, 4, 37, 95
4, 1479840, Note_on_c, 4, 39, 95
4, 1480320, Note_off_c, 4, 39, 95
4, 1480320, Note_on_c, 4, 30, 95
4, 1481280, Note_off_c, 4, 30, 95
4, 1481280, Note_on_c, 4, 27, 95
4, 1482240, Note_off_c, 4, 27, 95
4, 1482240, Note_on_c, 5, 37, 95
4, 1482360, Pitch_bend_c, 5, 8448
4, 1482480, Pitch_bend_c, 5, 8832
4, 1482600, Pitch_bend_c, 5, 9216
4, 1482720, Pitch_bend_c, 5, 9600
4, 1482720, Pitch_bend_c, 5, 8192
4, 1482720, Note_off_c, 5, 37, 95
4, 1482720, Note_on_c, 4, 39, 95
4, 1483200, Note_off_c, 4, 39, 95
4, 1483200, Note_on_c, 4, 39, 95
4, 1483680, Note_off_c, 4, 39, 95
4, 1483680, Note_on_c, 4, 39, 95
4, 1484160, Note_off_c, 4, 39, 95
4, 1484160, Note_on_c, 4, 39, 95
4, 1484640, Note_off_c, 4, 39, 95
4, 1484640, Note_on_c, 4, 39, 95
4, 1485120, Note_off_c, 4, 39, 95
4, 1485120, Note_on_c, 4, 39, 95
4, 1485600, Note_off_c, 4, 39, 95
4, 1485600, Note_on_c, 4, 34, 95
4, 1486080, Note_off_c, 4, 34, 95
4, 1486080, Note_on_c, 4, 37, 95
4, 1486560, Note_off_c, 4, 37, 95
4, 1486560, Note_on_c, 4, 37, 95
4, 1487040, Note_off_c, 4, 37, 95
4, 1487040, Note_on_c, 4, 37, 95
4, 1487520, Note_off_c, 4, 37, 95
4, 1487520, Note_on_c, 4, 39, 95
4, 1488000, Note_off_c, 4, 39, 95
4, 1488000, Note_on_c, 4, 30, 95
4, 1488960, Note_off_c, 4, 30, 95
4, 1488960, Note_on_c, 4, 27, 95
4, 1489920, Note_off_c, 4, 27, 95
4, 1489920, Note_on_c, 5, 37, 95
4, 1490040, Pitch_bend_c, 5, 8448
4, 1490160, Pitch_bend_c, 5, 8832
4, 1490280, Pitch_bend_c, 5, 9216
4, 1490400, Pitch_bend_c, 5, 9600
4, 1490400, Pitch_bend_c, 5, 8192
4, 1490400, Note_off_c, 5, 37, 95
4, 1490400, Note_on_c, 4, 39, 95
4, 1490880, Note_off_c, 4, 39, 95
4, 1490880, Note_on_c, 4, 39, 95
4, 1491360, Note_off_c, 4, 39, 95
4, 1491360, Note_on_c, 4, 39, 95
4, 1491840, Note_off_c, 4, 39, 95
4, 1491840, Note_on_c, 4, 39, 95
4, 1492320, Note_off_c, 4, 39, 95
4, 1492320, Note_on_c, 4, 39, 95
4, 1492800, Note_off_c, 4, 39, 95
4, 1492800, Note_on_c, 4, 39, 95
4, 1493280, Note_off_c, 4, 39, 95
4, 1493280, Note_on_c, 4, 34, 95
4, 1493760, Note_off_c, 4, 34, 95
4, 1493760, Note_on_c, 4, 37, 95
4, 1494240, Note_off_c, 4, 37, 95
4, 1494240, Note_on_c, 4, 37, 95
4, 1494720, Note_off_c, 4, 37, 95
4, 1494720, Note_on_c, 4, 37, 95
4, 1495200, Note_off_c, 4, 37, 95
4, 1495200, Note_on_c, 4, 39, 95
4, 1495680, Note_off_c, 4, 39, 95
4, 1495680, Note_on_c, 4, 30, 95
4, 1496640, Note_off_c, 4, 30, 95
4, 1496640, Note_on_c, 4, 27, 95
4, 1497600, Note_off_c, 4, 27, 95
4, 1497600, Note_on_c, 5, 37, 95
4, 1497720, Pitch_bend_c, 5, 8448
4, 1497840, Pitch_bend_c, 5, 8832
4, 1497960, Pitch_bend_c, 5, 9216
4, 1498080, Pitch_bend_c, 5, 9600
4, 1498080, Pitch_bend_c, 5, 8192
4, 1498080, Note_off_c, 5, 37, 95
4, 1498080, Note_on_c, 4, 39, 95
4, 1498560, Note_off_c, 4, 39, 95
4, 1498560, Note_on_c, 4, 39, 95
4, 1499040, Note_off_c, 4, 39, 95
4, 1499040, Note_on_c, 4, 39, 95
4, 1499520, Note_off_c, 4, 39, 95
4, 1499520, Note_on_c, 4, 39, 95
4, 1500000, Note_off_c, 4, 39, 95
4, 1500000, Note_on_c, 4, 39, 95
4, 1500480, Note_off_c, 4, 39, 95
4, 1500480, Note_on_c, 4, 39, 95
4, 1500960, Note_off_c, 4, 39, 95
4, 1500960, Note_on_c, 4, 34, 95
4, 1501440, Note_off_c, 4, 34, 95
4, 1501440, Note_on_c, 4, 37, 95
4, 1501920, Note_off_c, 4, 37, 95
4, 1501920, Note_on_c, 4, 37, 95
4, 1502400, Note_off_c, 4, 37, 95
4, 1502400, Note_on_c, 4, 37, 95
4, 1502880, Note_off_c, 4, 37, 95
4, 1502880, Note_on_c, 4, 39, 95
4, 1503360, Note_off_c, 4, 39, 95
4, 1503360, Note_on_c, 4, 30, 95
4, 1504320, Note_off_c, 4, 30, 95
4, 1504320, Note_on_c, 4, 27, 95
4, 1505280, Note_off_c, 4, 27, 95
4, 1505280, Note_on_c, 5, 37, 95
4, 1505400, Pitch_bend_c, 5, 8448
4, 1505520, Pitch_bend_c, 5, 8832
4, 1505640, Pitch_bend_c, 5, 9216
4, 1505760, Pitch_bend_c, 5, 9600
4, 1505760, Pitch_bend_c, 5, 8192
4, 1505760, Note_off_c, 5, 37, 95
4, 1505760, Note_on_c, 4, 39, 95
4, 1506240, Note_off_c, 4, 39, 95
4, 1506240, Note_on_c, 4, 39, 95
4, 1506720, Note_off_c, 4, 39, 95
4, 1506720, Note_on_c, 4, 39, 95
4, 1507200, Note_off_c, 4, 39, 95
4, 1507200, Note_on_c, 4, 39, 95
4, 1507680, Note_off_c, 4, 39, 95
4, 1507680, Note_on_c, 4, 39, 95
4, 1508160, Note_off_c, 4, 39, 95
4, 1508160, Note_on_c, 4, 39, 95
4, 1508640, Note_off_c, 4, 39, 95
4, 1508640, Note_on_c, 4, 34, 95
4, 1509120, Note_off_c, 4, 34, 95
4, 1509120, Note_on_c, 4, 37, 95
4, 1509600, Note_off_c, 4, 37, 95
4, 1509600, Note_on_c, 4, 37, 95
4, 1510080, Note_off_c, 4, 37, 95
4, 1510080, Note_on_c, 4, 37, 95
4, 1510560, Note_off_c, 4, 37, 95
4, 1510560, Note_on_c, 4, 39, 95
4, 1511040, Note_off_c, 4, 39, 95
4, 1511040, Note_on_c, 4, 30, 95
4, 1512000, Note_off_c, 4, 30, 95
4, 1512000, Note_on_c, 4, 27, 95
4, 1512960, Note_off_c, 4, 27, 95
4, 1512960, Note_on_c, 5, 37, 95
4, 1513080, Pitch_bend_c, 5, 8448
4, 1513200, Pitch_bend_c, 5, 8832
4, 1513320, Pitch_bend_c, 5, 9216
4, 1513440, Pitch_bend_c, 5, 9600
4, 1513440, Pitch_bend_c, 5, 8192
4, 1513440, Note_off_c, 5, 37, 95
4, 1513440, Note_on_c, 4, 39, 95
4, 1513920, Note_off_c, 4, 39, 95
4, 1513920, Note_on_c, 4, 39, 95
4, 1514400, Note_off_c, 4, 39, 95
4, 1514400, Note_on_c, 4, 39, 95
4, 1514880, Note_off_c, 4, 39, 95
4, 1514880, Note_on_c, 4, 39, 95
4, 1515360, Note_off_c, 4, 39, 95
4, 1515360, Note_on_c, 4, 39, 95
4, 1515840, Note_off_c, 4, 39, 95
4, 1515840, Note_on_c, 4, 39, 95
4, 1516320, Note_off_c, 4, 39, 95
4, 1516320, Note_on_c, 4, 34, 95
4, 1516800, Note_off_c, 4, 34, 95
4, 1516800, Note_on_c, 4, 37, 95
4, 1517280, Note_off_c, 4, 37, 95
4, 1517280, Note_on_c, 4, 37, 95
4, 1517760, Note_off_c, 4, 37, 95
4, 1517760, Note_on_c, 4, 37, 95
4, 1518240, Note_off_c, 4, 37, 95
4, 1518240, Note_on_c, 4, 39, 95
4, 1518720, Note_off_c, 4, 39, 95
4, 1518720, Note_on_c, 4, 30, 95
4, 1519680, Note_off_c, 4, 30, 95
4, 1519680, Note_on_c, 4, 27, 95
4, 1520640, Note_off_c, 4, 27, 95
4, 1520640, Note_on_c, 5, 37, 95
4, 1520760, Pitch_bend_c, 5, 8448
4, 1520880, Pitch_bend_c, 5, 8832
4, 1521000, Pitch_bend_c, 5, 9216
4, 1521120, Pitch_bend_c, 5, 9600
4, 1521120, Pitch_bend_c, 5, 8192
4, 1521120, Note_off_c, 5, 37, 95
4, 1521120, Note_on_c, 4, 39, 95
4, 1521600, Note_off_c, 4, 39, 95
4, 1521600, Note_on_c, 4, 39, 95
4, 1522080, Note_off_c, 4, 39, 95
4, 1522080, Note_on_c, 4, 39, 95
4, 1522560, Note_off_c, 4, 39, 95
4, 1522560, Note_on_c, 4, 39, 95
4, 1523040, Note_off_c, 4, 39, 95
4, 1523040, Note_on_c, 4, 39, 95
4, 1523520, Note_off_c, 4, 39, 95
4, 1523520, Note_on_c, 4, 39, 95
4, 1524000, Note_off_c, 4, 39, 95
4, 1524000, Note_on_c, 4, 34, 95
4, 1524480, Note_off_c, 4, 34, 95
4, 1524480, Note_on_c, 4, 37, 95
4, 1524960, Note_off_c, 4, 37, 95
4, 1524960, Note_on_c, 4, 37, 95
4, 1525440, Note_off_c, 4, 37, 95
4, 1525440, Note_on_c, 4, 37, 95
4, 1525920, Note_off_c, 4, 37, 95
4, 1525920, Note_on_c, 4, 39, 95
4, 1526400, Note_off_c, 4, 39, 95
4, 1526400, Note_on_c, 4, 30, 95
4, 1527360, Note_off_c, 4, 30, 95
4, 1527360, Note_on_c, 4, 27, 95
4, 1528320, Note_off_c, 4, 27, 95
4, 1528320, Note_on_c, 5, 37, 95
4, 1528440, Pitch_bend_c, 5, 8448
4, 1528560, Pitch_bend_c, 5, 8832
4, 1528680, Pitch_bend_c, 5, 9216
4, 1528800, Pitch_bend_c, 5, 9600
4, 1528800, Pitch_bend_c, 5, 8192
4, 1528800, Note_off_c, 5, 37, 95
4, 1528800, Note_on_c, 4, 39, 95
4, 1529280, Note_off_c, 4, 39, 95
4, 1529280, Note_on_c, 4, 39, 95
4, 1529760, Note_off_c, 4, 39, 95
4, 1529760, Note_on_c, 4, 39, 95
4, 1530240, Note_off_c, 4, 39, 95
4, 1530240, Note_on_c, 4, 39, 95
4, 1530720, Note_off_c, 4, 39, 95
4, 1530720, Note_on_c, 4, 39, 95
4, 1531200, Note_off_c, 4, 39, 95
4, 1531200, Note_on_c, 4, 39, 95
4, 1531680, Note_off_c, 4, 39, 95
4, 1531680, Note_on_c, 4, 34, 95
4, 1532160, Note_off_c, 4, 34, 95
4, 1532160, Note_on_c, 4, 37, 95
4, 1532640, Note_off_c, 4, 37, 95
4, 1532640, Note_on_c, 4, 37, 95
4, 1533120, Note_off_c, 4, 37, 95
4, 1533120, Note_on_c, 4, 37, 95
4, 1533600, Note_off_c, 4, 37, 95
4, 1533600, Note_on_c, 4, 39, 95
4, 1534080, Note_off_c, 4, 39, 95
4, 1534080, Note_on_c, 4, 30, 95
4, 1535040, Note_off_c, 4, 30, 95
4, 1535040, Note_on_c, 4, 27, 95
4, 1536000, Note_off_c, 4, 27, 95
4, 1536000, Note_on_c, 5, 37, 95
4, 1536120, Pitch_bend_c, 5, 8448
4, 1536240, Pitch_bend_c, 5, 8832
4, 1536360, Pitch_bend_c, 5, 9216
4, 1536480, Pitch_bend_c, 5, 9600
4, 1536480, Pitch_bend_c, 5, 8192
4, 1536480, Note_off_c, 5, 37, 95
4, 1536480, Note_on_c, 4, 39, 95
4, 1536960, Note_off_c, 4, 39, 95
4, 1536960, Note_on_c, 4, 39, 95
4, 1537440, Note_off_c, 4, 39, 95
4, 1537440, Note_on_c, 4, 39, 95
4, 1537920, Note_off_c, 4, 39, 95
4, 1537920, Note_on_c, 4, 39, 95
4, 1538400, Note_off_c, 4, 39, 95
4, 1538400, Note_on_c, 4, 39, 95
4, 1538880, Note_off_c, 4, 39, 95
4, 1538880, Note_on_c, 4, 39, 95
4, 1539360, Note_off_c, 4, 39, 95
4, 1539360, Note_on_c, 4, 34, 95
4, 1539840, Note_off_c, 4, 34, 95
4, 1539840, Note_on_c, 4, 37, 95
4, 1540320, Note_off_c, 4, 37, 95
4, 1540320, Note_on_c, 4, 37, 95
4, 1540800, Note_off_c, 4, 37, 95
4, 1540800, Note_on_c, 4, 37, 95
4, 1541280, Note_off_c, 4, 37, 95
4, 1541280, Note_on_c, 4, 39, 95
4, 1541760, Note_off_c, 4, 39, 95
4, 1541760, Note_on_c, 4, 30, 95
4, 1542720, Note_off_c, 4, 30, 95
4, 1542720, Note_on_c, 4, 27, 95
4, 1543680, Note_off_c, 4, 27, 95
4, 1543680, Note_on_c, 5, 37, 95
4, 1543800, Pitch_bend_c, 5, 8448
4, 1543920, Pitch_bend_c, 5, 8832
4, 1544040, Pitch_bend_c, 5, 9216
4, 1544160, Pitch_bend_c, 5, 9600
4, 1544160, Pitch_bend_c, 5, 8192
4, 1544160, Note_off_c, 5, 37, 95
4, 1544160, Note_on_c, 4, 39, 95
4, 1544640, Note_off_c, 4, 39, 95
4, 1544640, Note_on_c, 4, 39, 95
4, 1545120, Note_off_c, 4, 39, 95
4, 1545120, Note_on_c, 4, 39, 95
4, 1545600, Note_off_c, 4, 39, 95
4, 1545600, Note_on_c, 4, 39, 95
4, 1546080, Note_off_c, 4, 39, 95
4, 1546080, Note_on_c, 4, 39, 95
4, 1546560, Note_off_c, 4, 39, 95
4, 1546560, Note_on_c, 4, 39, 95
4, 1547040, Note_off_c, 4, 39, 95
4, 1547040, Note_on_c, 4, 34, 95
4, 1547520, Note_off_c, 4, 34, 95
4, 1547520, Note_on_c, 4, 37, 95
4, 1548000, Note_off_c, 4, 37, 95
4, 1548000, Note_on_c, 4, 37, 95
4, 1548480, Note_off_c, 4, 37, 95
4, 1548480, Note_on_c, 4, 37, 95
4, 1548960, Note_off_c, 4, 37, 95
4, 1548960, Note_on_c, 4, 39, 95
4, 1549440, Note_off_c, 4, 39, 95
4, 1549440, Note_on_c, 4, 30, 95
4, 1550400, Note_off_c, 4, 30, 95
4, 1550400, Note_on_c, 4, 27, 95
4, 1551360, Note_off_c, 4, 27, 95
4, 1559040, Note_on_c, 4, 27, 95
4, 1562880, Note_off_c, 4, 27, 95
4, 1562880, End_track
0, 0, End_of_file
