0, 0, Header, 0, 1, 480
1, 0, Start_track
1, 0, Title_t, "HEAVY ON MY HEART"
1, 0, Copyright_t, "Licio Gurciullo per ""Sohela"""
1, 0, Text_t, "Licio Gurciullo & Sohela\012"
1, 0, System_exclusive, 5, 126, 127, 9, 1, 247
1, 1, System_exclusive, 10, 65, 16, 66, 18, 64, 0, 127, 0, 65, 247
1, 2, System_exclusive, 10, 65, 16, 66, 18, 64, 1, 52, 93, 46, 247
1, 2, Time_signature, 4, 2, 24, 8
1, 2, Key_signature, 0, "major"
1, 2, Tempo, 600000
1, 310, Control_c, 14, 101, 0
1, 311, Control_c, 14, 100, 0
1, 312, Control_c, 14, 6, 12
1, 313, Control_c, 14, 38, 64
1, 319, Control_c, 1, 121, 0
1, 321, Control_c, 7, 121, 0
1, 324, Control_c, 3, 121, 0
1, 324, Control_c, 4, 121, 0
1, 329, Control_c, 5, 121, 0
1, 331, Control_c, 6, 121, 0
1, 334, Control_c, 2, 121, 0
1, 336, Control_c, 8, 121, 0
1, 339, Control_c, 9, 121, 0
1, 341, Control_c, 10, 121, 0
1, 344, Control_c, 11, 121, 0
1, 346, Control_c, 12, 121, 0
1, 349, Control_c, 13, 121, 0
1, 349, Control_c, 14, 121, 0
1, 354, Control_c, 0, 121, 0
1, 360, Control_c, 6, 101, 0
1, 361, Control_c, 6, 100, 0
1, 362, Control_c, 6, 6, 6
1, 363, Control_c, 6, 38, 32
1, 482, Control_c, 0, 0, 0
1, 483, Control_c, 0, 32, 1
1, 484, Program_c, 0, 45
1, 484, Control_c, 15, 121, 0
1, 485, Control_c, 0, 7, 106
1, 485, Control_c, 0, 10, 107
1, 486, Control_c, 1, 0, 0
1, 487, Control_c, 1, 0, 0
1, 488, Control_c, 1, 32, 1
1, 488, Control_c, 1, 91, 0
1, 488, Control_c, 1, 93, 0
1, 489, Program_c, 1, 33
1, 489, Control_c, 2, 0, 0
1, 490, Control_c, 1, 7, 109
1, 490, Control_c, 1, 10, 63
1, 490, Control_c, 2, 91, 54
1, 490, Control_c, 2, 93, 36
1, 491, Control_c, 3, 0, 0
1, 492, Control_c, 2, 0, 0
1, 493, Control_c, 2, 32, 1
1, 493, Control_c, 3, 91, 115
1, 493, Control_c, 3, 93, 0
1, 494, Program_c, 2, 35
1, 494, Control_c, 4, 0, 0
1, 495, Control_c, 2, 7, 108
1, 495, Control_c, 2, 10, 50
1, 495, Control_c, 4, 91, 86
1, 495, Control_c, 4, 93, 20
1, 496, Control_c, 5, 0, 0
1, 497, Control_c, 3, 0, 0
1, 498, Control_c, 3, 32, 0
1, 498, Control_c, 5, 91, 73
1, 498, Control_c, 5, 93, 22
1, 499, Program_c, 3, 69
1, 499, Control_c, 6, 0, 0
1, 500, Control_c, 3, 7, 105
1, 500, Control_c, 3, 10, 63
1, 500, Control_c, 6, 91, 83
1, 500, Control_c, 6, 93, 21
1, 501, Control_c, 7, 0, 0
1, 502, Control_c, 4, 0, 0
1, 503, Control_c, 4, 32, 1
1, 503, Control_c, 7, 91, 102
1, 503, Control_c, 7, 93, 20
1, 504, Program_c, 4, 53
1, 504, Control_c, 8, 0, 0
1, 505, Control_c, 4, 7, 124
1, 505, Control_c, 4, 10, 63
1, 505, Control_c, 8, 91, 80
1, 505, Control_c, 8, 93, 20
1, 507, Control_c, 5, 0, 0
1, 508, Control_c, 5, 32, 1
1, 508, Control_c, 9, 91, 78
1, 508, Control_c, 9, 93, 0
1, 509, Program_c, 5, 49
1, 509, Control_c, 10, 0, 0
1, 510, Control_c, 5, 7, 96
1, 510, Control_c, 5, 10, 99
1, 510, Control_c, 10, 91, 60
1, 510, Control_c, 10, 93, 22
1, 511, Control_c, 11, 0, 0
1, 512, Control_c, 6, 0, 0
1, 513, Control_c, 6, 32, 1
1, 513, Control_c, 11, 91, 82
1, 513, Control_c, 11, 93, 12
1, 514, Program_c, 6, 48
1, 514, Control_c, 12, 0, 0
1, 515, Control_c, 6, 7, 111
1, 515, Control_c, 6, 10, 29
1, 515, Control_c, 12, 91, 74
1, 515, Control_c, 12, 93, 20
1, 516, Control_c, 13, 0, 0
1, 517, Control_c, 7, 0, 0
1, 518, Control_c, 7, 32, 1
1, 518, Control_c, 13, 91, 58
1, 518, Control_c, 13, 93, 28
1, 519, Program_c, 7, 4
1, 519, Control_c, 14, 0, 0
1, 520, Control_c, 7, 7, 121
1, 520, Control_c, 7, 10, 33
1, 520, Control_c, 14, 91, 58
1, 520, Control_c, 14, 93, 28
1, 521, Control_c, 0, 0, 0
1, 522, Control_c, 8, 0, 0
1, 523, Control_c, 0, 91, 63
1, 523, Control_c, 0, 93, 63
1, 523, Control_c, 8, 32, 1
1, 524, Program_c, 8, 42
1, 525, Control_c, 8, 7, 88
1, 525, Control_c, 8, 10, 103
1, 529, Program_c, 9, 0
1, 530, Control_c, 9, 7, 107
1, 530, Control_c, 9, 10, 63
1, 532, Control_c, 10, 0, 0
1, 533, Control_c, 10, 32, 1
1, 534, Program_c, 10, 27
1, 535, Control_c, 10, 7, 100
1, 535, Control_c, 10, 10, 93
1, 537, Control_c, 11, 0, 0
1, 538, Control_c, 11, 32, 1
1, 539, Program_c, 11, 25
1, 540, Control_c, 11, 7, 85
1, 540, Control_c, 11, 10, 100
1, 542, Control_c, 12, 0, 0
1, 543, Control_c, 12, 32, 1
1, 544, Program_c, 12, 25
1, 545, Control_c, 12, 7, 84
1, 545, Control_c, 12, 10, 28
1, 547, Control_c, 13, 0, 0
1, 548, Control_c, 13, 32, 1
1, 549, Program_c, 13, 30
1, 550, Control_c, 13, 7, 127
1, 550, Control_c, 13, 10, 85
1, 552, Control_c, 14, 0, 0
1, 553, Control_c, 14, 32, 1
1, 554, Program_c, 14, 26
1, 555, Control_c, 14, 7, 92
1, 555, Control_c, 14, 10, 85
1, 560, Control_c, 15, 7, 100
1, 560, Control_c, 15, 10, 64
1, 611, Pitch_bend_c, 15, 8192
1, 661, Control_c, 15, 11, 127
1, 700, Control_c, 15, 91, 0
1, 711, Control_c, 1, 64, 0
1, 714, Control_c, 7, 64, 0
1, 716, Control_c, 3, 64, 0
1, 716, Control_c, 4, 64, 0
1, 716, Control_c, 15, 93, 0
1, 721, Control_c, 5, 64, 0
1, 724, Control_c, 6, 64, 0
1, 726, Control_c, 2, 64, 0
1, 729, Control_c, 8, 64, 0
1, 731, Control_c, 9, 64, 0
1, 734, Control_c, 10, 64, 0
1, 736, Control_c, 11, 64, 0
1, 739, Control_c, 12, 64, 0
1, 741, Control_c, 13, 64, 0
1, 741, Control_c, 14, 64, 0
1, 746, Control_c, 0, 64, 0
1, 761, Control_c, 1, 11, 127
1, 764, Control_c, 7, 11, 127
1, 766, Control_c, 3, 11, 127
1, 766, Control_c, 4, 11, 127
1, 776, Control_c, 2, 11, 127
1, 781, Control_c, 9, 11, 127
1, 784, Control_c, 10, 11, 127
1, 786, Control_c, 11, 11, 127
1, 789, Control_c, 12, 11, 127
1, 791, Control_c, 13, 11, 127
1, 791, Control_c, 14, 11, 127
1, 796, Control_c, 0, 11, 127
1, 811, Control_c, 1, 1, 0
1, 814, Control_c, 7, 1, 0
1, 816, Control_c, 3, 1, 0
1, 816, Control_c, 4, 1, 0
1, 821, Control_c, 5, 1, 0
1, 824, Control_c, 6, 1, 0
1, 826, Control_c, 2, 1, 0
1, 829, Control_c, 8, 1, 0
1, 831, Control_c, 9, 1, 0
1, 834, Control_c, 10, 1, 0
1, 836, Control_c, 11, 1, 0
1, 839, Control_c, 12, 1, 0
1, 841, Control_c, 13, 1, 0
1, 841, Control_c, 14, 1, 0
1, 846, Control_c, 0, 1, 0
1, 861, Pitch_bend_c, 1, 8192
1, 864, Pitch_bend_c, 7, 8192
1, 866, Pitch_bend_c, 3, 8192
1, 866, Pitch_bend_c, 4, 8192
1, 871, Pitch_bend_c, 5, 8192
1, 874, Pitch_bend_c, 6, 8192
1, 876, Pitch_bend_c, 2, 8192
1, 879, Pitch_bend_c, 8, 8192
1, 881, Pitch_bend_c, 9, 8192
1, 884, Pitch_bend_c, 10, 8192
1, 886, Pitch_bend_c, 11, 8192
1, 889, Pitch_bend_c, 12, 8192
1, 891, Pitch_bend_c, 13, 8192
1, 891, Pitch_bend_c, 14, 8192
1, 896, Pitch_bend_c, 0, 8192
1, 1924, Tempo, 869565
1, 3837, Control_c, 8, 11, 67
1, 3840, Control_c, 5, 11, 52
1, 3840, Control_c, 6, 11, 60
1, 4301, Pitch_bend_c, 14, 8192
1, 5764, Note_on_c, 9, 42, 61
1, 5984, Note_on_c, 9, 42, 0
1, 6244, Note_on_c, 9, 42, 49
1, 6470, Note_on_c, 9, 42, 0
1, 6724, Note_on_c, 9, 42, 62
1, 6958, Note_on_c, 9, 42, 0
1, 7204, Note_on_c, 9, 42, 43
1, 7381, Note_on_c, 9, 42, 0
1, 7684, Note_on_c, 7, 56, 50
1, 7684, Note_on_c, 7, 61, 49
1, 7684, Note_on_c, 11, 56, 80
1, 7684, Note_on_c, 11, 61, 94
1, 7684, Note_on_c, 11, 64, 96
1, 7684, Note_on_c, 12, 49, 55
1, 8042, Note_on_c, 11, 64, 0
1, 8042, Note_on_c, 11, 61, 0
1, 8042, Note_on_c, 11, 56, 0
1, 8164, Note_on_c, 11, 56, 63
1, 8164, Note_on_c, 11, 61, 95
1, 8164, Note_on_c, 11, 64, 95
1, 8282, Note_on_c, 7, 56, 0
1, 8375, Note_on_c, 11, 56, 0
1, 8404, Note_on_c, 7, 56, 58
1, 8404, Note_on_c, 11, 56, 74
1, 8582, Note_on_c, 11, 61, 0
1, 8582, Note_on_c, 11, 64, 0
1, 8606, Note_on_c, 11, 56, 0
1, 8642, Note_on_c, 12, 49, 0
1, 8642, Note_on_c, 7, 61, 0
1, 8642, Note_on_c, 7, 56, 0
1, 8644, Note_on_c, 7, 59, 62
1, 8644, Note_on_c, 7, 54, 42
1, 8644, Note_on_c, 11, 56, 84
1, 8644, Note_on_c, 11, 59, 84
1, 8644, Note_on_c, 11, 63, 90
1, 8644, Note_on_c, 12, 47, 75
1, 9002, Note_on_c, 11, 63, 0
1, 9002, Note_on_c, 11, 59, 0
1, 9062, Note_on_c, 11, 56, 0
1, 9124, Note_on_c, 11, 56, 81
1, 9124, Note_on_c, 11, 59, 82
1, 9124, Note_on_c, 11, 63, 87
1, 9302, Note_on_c, 11, 56, 0
1, 9364, Note_on_c, 11, 56, 74
1, 9482, Note_on_c, 11, 63, 0
1, 9491, Note_on_c, 11, 59, 0
1, 9597, Note_on_c, 11, 56, 0
1, 9602, Note_on_c, 7, 54, 0
1, 9602, Note_on_c, 7, 59, 0
1, 9602, Note_on_c, 12, 47, 0
1, 9604, Note_on_c, 7, 61, 57
1, 9604, Note_on_c, 7, 56, 42
1, 9604, Note_on_c, 11, 56, 90
1, 9604, Note_on_c, 11, 61, 100
1, 9604, Note_on_c, 11, 64, 90
1, 9604, Note_on_c, 12, 49, 68
1, 10022, Note_on_c, 11, 56, 0
1, 10076, Note_on_c, 11, 64, 0
1, 10080, Note_on_c, 11, 61, 0
1, 10084, Note_on_c, 11, 64, 96
1, 10152, Pitch_bend_c, 11, 16256
1, 10221, Pitch_bend_c, 11, 8192
1, 10322, Note_on_c, 11, 64, 0
1, 10324, Note_on_c, 11, 61, 91
1, 10520, Note_on_c, 11, 61, 0
1, 10562, Note_on_c, 7, 61, 0
1, 10562, Note_on_c, 12, 49, 0
1, 10562, Note_on_c, 7, 56, 0
1, 10564, Note_on_c, 7, 54, 36
1, 10564, Note_on_c, 7, 59, 62
1, 10564, Note_on_c, 11, 56, 75
1, 10564, Note_on_c, 11, 63, 91
1, 10564, Note_on_c, 11, 59, 99
1, 10564, Note_on_c, 12, 47, 72
1, 10570, Note_on_c, 9, 51, 12
1, 10608, Note_on_c, 9, 51, 0
1, 10608, Note_on_c, 9, 59, 15
1, 10612, Note_on_c, 9, 51, 11
1, 10613, Note_on_c, 9, 51, 0
1, 10634, Note_on_c, 9, 51, 18
1, 10646, Note_on_c, 9, 59, 0
1, 10665, Note_on_c, 9, 51, 0
1, 10667, Note_on_c, 9, 51, 11
1, 10672, Note_on_c, 9, 51, 0
1, 10672, Note_on_c, 9, 59, 24
1, 10704, Note_on_c, 9, 51, 26
1, 10710, Note_on_c, 9, 59, 0
1, 10717, Note_on_c, 9, 51, 0
1, 10718, Note_on_c, 9, 51, 10
1, 10742, Note_on_c, 9, 51, 0
1, 10742, Note_on_c, 9, 59, 30
1, 10761, Note_on_c, 9, 51, 34
1, 10762, Note_on_c, 9, 51, 0
1, 10762, Note_on_c, 9, 51, 30
1, 10780, Note_on_c, 9, 59, 0
1, 10784, Note_on_c, 11, 56, 0
1, 10800, Note_on_c, 9, 51, 0
1, 10800, Note_on_c, 9, 59, 32
1, 10804, Note_on_c, 11, 56, 84
1, 10806, Note_on_c, 9, 51, 17
1, 10807, Note_on_c, 9, 51, 0
1, 10822, Note_on_c, 9, 51, 32
1, 10838, Note_on_c, 9, 59, 0
1, 10849, Note_on_c, 9, 57, 2
1, 10853, Note_on_c, 9, 51, 0
1, 10855, Note_on_c, 9, 51, 16
1, 10860, Note_on_c, 9, 51, 0
1, 10860, Note_on_c, 9, 59, 34
1, 10874, Note_on_c, 9, 49, 4
1, 10876, Note_on_c, 9, 57, 4
1, 10886, Note_on_c, 9, 51, 35
1, 10887, Note_on_c, 9, 51, 0
1, 10887, Note_on_c, 9, 57, 0
1, 10889, Note_on_c, 9, 51, 62
1, 10898, Note_on_c, 9, 59, 0
1, 10900, Note_on_c, 9, 49, 7
1, 10912, Note_on_c, 9, 49, 0
1, 10913, Note_on_c, 9, 57, 8
1, 10914, Note_on_c, 9, 57, 0
1, 10924, Note_on_c, 9, 51, 0
1, 10924, Note_on_c, 9, 59, 37
1, 10938, Note_on_c, 9, 49, 0
1, 10938, Note_on_c, 9, 49, 10
1, 10940, Note_on_c, 9, 57, 10
1, 10942, Note_on_c, 9, 51, 58
1, 10943, Note_on_c, 9, 51, 0
1, 10951, Note_on_c, 9, 57, 0
1, 10956, Note_on_c, 9, 51, 38
1, 10962, Note_on_c, 9, 59, 0
1, 10964, Note_on_c, 9, 49, 13
1, 10971, Note_on_c, 9, 57, 14
1, 10973, Note_on_c, 9, 51, 0
1, 10975, Note_on_c, 9, 51, 72
1, 10976, Note_on_c, 9, 49, 0
1, 10978, Note_on_c, 9, 57, 0
1, 10984, Note_on_c, 9, 57, 15
1, 10994, Note_on_c, 9, 51, 0
1, 10994, Note_on_c, 9, 59, 41
1, 10998, Note_on_c, 9, 57, 16
1, 10999, Note_on_c, 11, 56, 0
1, 11002, Note_on_c, 9, 49, 0
1, 11008, Note_on_c, 9, 49, 17
1, 11009, Note_on_c, 9, 57, 0
1, 11013, Note_on_c, 9, 49, 18
1, 11014, Note_on_c, 9, 51, 41
1, 11018, Note_on_c, 9, 51, 0
1, 11019, Note_on_c, 9, 51, 86
1, 11022, Note_on_c, 9, 57, 0
1, 11029, Note_on_c, 11, 59, 0
1, 11032, Note_on_c, 9, 59, 0
1, 11035, Note_on_c, 9, 57, 20
1, 11036, Note_on_c, 11, 63, 0
1, 11036, Note_on_c, 9, 57, 0
1, 11040, Note_on_c, 9, 49, 20
1, 11044, Note_on_c, 11, 56, 75
1, 11044, Note_on_c, 11, 59, 82
1, 11044, Note_on_c, 11, 63, 91
1, 11046, Note_on_c, 9, 49, 0
1, 11051, Note_on_c, 9, 49, 0
1, 11052, Note_on_c, 9, 51, 0
1, 11052, Note_on_c, 9, 59, 41
1, 11062, Note_on_c, 9, 57, 22
1, 11063, Note_on_c, 9, 51, 78
1, 11064, Note_on_c, 9, 51, 0
1, 11073, Note_on_c, 9, 57, 0
1, 11077, Note_on_c, 9, 49, 24
1, 11078, Note_on_c, 9, 49, 0
1, 11090, Note_on_c, 9, 59, 0
1, 11100, Note_on_c, 9, 57, 0
1, 11104, Note_on_c, 9, 49, 27
1, 11105, Note_on_c, 9, 51, 92
1, 11106, Note_on_c, 9, 51, 0
1, 11106, Note_on_c, 9, 57, 27
1, 11115, Note_on_c, 9, 49, 0
1, 11132, Note_on_c, 9, 57, 29
1, 11142, Note_on_c, 9, 49, 0
1, 11144, Note_on_c, 9, 57, 0
1, 11148, Note_on_c, 9, 49, 31
1, 11149, Note_on_c, 9, 51, 92
1, 11150, Note_on_c, 9, 51, 0
1, 11163, Note_on_c, 9, 57, 33
1, 11170, Note_on_c, 9, 57, 0
1, 11174, Note_on_c, 9, 49, 34
1, 11185, Note_on_c, 9, 51, 112
1, 11186, Note_on_c, 9, 51, 0
1, 11186, Note_on_c, 9, 49, 0
1, 11190, Note_on_c, 9, 57, 35
1, 11201, Note_on_c, 9, 57, 0
1, 11205, Note_on_c, 9, 49, 37
1, 11212, Note_on_c, 9, 49, 0
1, 11227, Note_on_c, 9, 57, 39
1, 11228, Note_on_c, 9, 57, 0
1, 11230, Note_on_c, 9, 51, 92
1, 11231, Note_on_c, 9, 51, 0
1, 11232, Note_on_c, 9, 49, 39
1, 11243, Note_on_c, 9, 49, 0
1, 11254, Note_on_c, 9, 57, 41
1, 11261, Note_on_c, 9, 51, 123
1, 11262, Note_on_c, 9, 51, 0
1, 11265, Note_on_c, 9, 57, 0
1, 11269, Note_on_c, 9, 49, 43
1, 11270, Note_on_c, 9, 49, 0
1, 11272, Note_on_c, 11, 56, 0
1, 11284, Note_on_c, 11, 56, 80
1, 11285, Note_on_c, 9, 57, 45
1, 11292, Note_on_c, 9, 57, 0
1, 11296, Note_on_c, 9, 49, 46
1, 11307, Note_on_c, 9, 49, 0
1, 11309, Note_on_c, 9, 51, 108
1, 11310, Note_on_c, 9, 51, 0
1, 11312, Note_on_c, 9, 57, 47
1, 11323, Note_on_c, 9, 57, 0
1, 11327, Note_on_c, 9, 49, 49
1, 11334, Note_on_c, 9, 49, 0
1, 11339, Note_on_c, 9, 51, 106
1, 11340, Note_on_c, 9, 51, 0
1, 11350, Note_on_c, 9, 57, 0
1, 11354, Note_on_c, 9, 49, 51
1, 11355, Note_on_c, 9, 57, 51
1, 11365, Note_on_c, 9, 49, 0
1, 11382, Note_on_c, 9, 57, 52
1, 11392, Note_on_c, 9, 49, 0
1, 11393, Note_on_c, 9, 57, 0
1, 11397, Note_on_c, 9, 49, 51
1, 11410, Note_on_c, 11, 56, 0
1, 11419, Note_on_c, 9, 57, 52
1, 11420, Note_on_c, 9, 57, 0
1, 11424, Note_on_c, 9, 49, 52
1, 11435, Note_on_c, 9, 49, 0
1, 11446, Note_on_c, 9, 57, 57
1, 11457, Note_on_c, 9, 57, 0
1, 11461, Note_on_c, 9, 49, 60
1, 11462, Note_on_c, 11, 59, 0
1, 11462, Note_on_c, 9, 49, 0
1, 11462, Note_on_c, 11, 63, 0
1, 11472, Note_on_c, 9, 57, 60
1, 11484, Note_on_c, 9, 57, 0
1, 11488, Note_on_c, 9, 49, 61
1, 11499, Note_on_c, 9, 49, 0
1, 11508, Note_on_c, 9, 49, 61
1, 11510, Note_on_c, 9, 57, 0
1, 11510, Note_on_c, 9, 57, 61
1, 11522, Note_on_c, 7, 59, 0
1, 11522, Note_on_c, 12, 47, 0
1, 11522, Note_on_c, 7, 54, 0
1, 11524, Note_on_c, 5, 64, 74
1, 11524, Note_on_c, 5, 61, 76
1, 11524, Note_on_c, 5, 56, 64
1, 11524, Note_on_c, 5, 49, 84
1, 11524, Note_on_c, 6, 64, 35
1, 11524, Note_on_c, 6, 49, 43
1, 11524, Note_on_c, 7, 56, 52
1, 11524, Note_on_c, 7, 61, 62
1, 11524, Note_on_c, 7, 52, 36
1, 11524, Note_on_c, 8, 64, 70
1, 11524, Note_on_c, 11, 56, 96
1, 11524, Note_on_c, 11, 61, 96
1, 11524, Note_on_c, 11, 64, 96
1, 11524, Note_on_c, 12, 49, 68
1, 11524, Lyric_t, "Try "
1, 11525, Control_c, 8, 11, 68
1, 11526, Note_on_c, 9, 49, 0
1, 11528, Control_c, 5, 11, 53
1, 11533, Control_c, 8, 11, 69
1, 11536, Control_c, 6, 11, 61
1, 11536, Note_on_c, 9, 57, 61
1, 11536, Note_on_c, 9, 57, 61
1, 11541, Control_c, 8, 11, 70
1, 11544, Control_c, 5, 11, 54
1, 11544, Control_c, 6, 11, 62
1, 11546, Note_on_c, 9, 49, 0
1, 11548, Note_on_c, 9, 57, 0
1, 11549, Control_c, 8, 11, 71
1, 11551, Note_on_c, 9, 49, 61
1, 11552, Control_c, 5, 11, 55
1, 11552, Control_c, 6, 11, 63
1, 11557, Control_c, 8, 11, 72
1, 11560, Control_c, 5, 11, 56
1, 11560, Control_c, 6, 11, 64
1, 11565, Control_c, 8, 11, 73
1, 11568, Control_c, 5, 11, 57
1, 11573, Note_on_c, 9, 57, 61
1, 11574, Note_on_c, 9, 57, 0
1, 11574, Note_on_c, 9, 57, 0
1, 11576, Control_c, 5, 11, 58
1, 11576, Control_c, 6, 11, 65
1, 11578, Note_on_c, 9, 49, 61
1, 11581, Control_c, 8, 11, 74
1, 11584, Control_c, 5, 11, 59
1, 11584, Control_c, 6, 11, 66
1, 11589, Note_on_c, 9, 49, 0
1, 11589, Control_c, 8, 11, 75
1, 11592, Control_c, 5, 11, 60
1, 11592, Control_c, 6, 11, 67
1, 11597, Control_c, 8, 11, 76
1, 11600, Control_c, 5, 11, 61
1, 11600, Note_on_c, 9, 57, 57
1, 11605, Control_c, 8, 11, 77
1, 11608, Control_c, 5, 11, 62
1, 11608, Control_c, 6, 11, 68
1, 11611, Note_on_c, 9, 57, 0
1, 11613, Control_c, 8, 11, 78
1, 11615, Note_on_c, 9, 49, 55
1, 11616, Note_on_c, 9, 49, 0
1, 11616, Control_c, 6, 11, 69
1, 11621, Control_c, 8, 11, 79
1, 11624, Control_c, 5, 11, 63
1, 11624, Control_c, 6, 11, 70
1, 11629, Control_c, 8, 11, 80
1, 11632, Control_c, 5, 11, 64
1, 11637, Control_c, 8, 11, 81
1, 11638, Note_on_c, 9, 57, 0
1, 11640, Control_c, 5, 11, 65
1, 11640, Control_c, 6, 11, 71
1, 11642, Note_on_c, 9, 49, 54
1, 11648, Control_c, 5, 11, 66
1, 11648, Control_c, 6, 11, 72
1, 11653, Note_on_c, 9, 49, 0
1, 11653, Control_c, 8, 11, 82
1, 11656, Control_c, 5, 11, 67
1, 11656, Control_c, 6, 11, 73
1, 11661, Control_c, 8, 11, 83
1, 11664, Control_c, 5, 11, 68
1, 11664, Control_c, 6, 11, 74
1, 11669, Control_c, 8, 11, 84
1, 11672, Control_c, 5, 11, 69
1, 11677, Control_c, 8, 11, 85
1, 11680, Note_on_c, 9, 49, 0
1, 11680, Control_c, 5, 11, 70
1, 11680, Control_c, 6, 11, 75
1, 11685, Control_c, 8, 11, 86
1, 11688, Control_c, 5, 11, 71
1, 11688, Control_c, 6, 11, 76
1, 11693, Control_c, 8, 11, 87
1, 11696, Control_c, 6, 11, 77
1, 11701, Note_on_c, 7, 56, 0
1, 11701, Control_c, 8, 11, 88
1, 11704, Control_c, 5, 11, 72
1, 11712, Control_c, 5, 11, 73
1, 11712, Control_c, 6, 11, 78
1, 11717, Control_c, 8, 11, 89
1, 11720, Control_c, 5, 11, 74
1, 11720, Control_c, 6, 11, 79
1, 11725, Control_c, 8, 11, 90
1, 11728, Control_c, 5, 11, 75
1, 11728, Control_c, 6, 11, 80
1, 11733, Control_c, 8, 11, 91
1, 11736, Control_c, 5, 11, 76
1, 11741, Control_c, 8, 11, 92
1, 11744, Control_c, 5, 11, 77
1, 11744, Control_c, 6, 11, 81
1, 11749, Control_c, 8, 11, 93
1, 11752, Control_c, 5, 11, 78
1, 11752, Control_c, 6, 11, 82
1, 11757, Control_c, 8, 11, 94
1, 11760, Control_c, 5, 11, 79
1, 11760, Control_c, 6, 11, 83
1, 11764, Note_on_c, 7, 56, 64
1, 11765, Control_c, 8, 11, 95
1, 11768, Control_c, 5, 11, 80
1, 11768, Control_c, 6, 11, 84
1, 11773, Control_c, 8, 11, 96
1, 11784, Control_c, 5, 11, 81
1, 11784, Control_c, 6, 11, 85
1, 11789, Control_c, 8, 11, 97
1, 11792, Control_c, 5, 11, 82
1, 11792, Control_c, 6, 11, 86
1, 11797, Control_c, 8, 11, 98
1, 11800, Control_c, 5, 11, 83
1, 11800, Control_c, 6, 11, 87
1, 11805, Control_c, 8, 11, 99
1, 11808, Control_c, 5, 11, 84
1, 11813, Control_c, 8, 11, 100
1, 11816, Control_c, 5, 11, 85
1, 11816, Control_c, 6, 11, 88
1, 11821, Control_c, 8, 11, 101
1, 11824, Control_c, 5, 11, 86
1, 11824, Control_c, 6, 11, 89
1, 11829, Control_c, 8, 11, 102
1, 11832, Control_c, 5, 11, 87
1, 11832, Control_c, 6, 11, 90
1, 11837, Control_c, 8, 11, 103
1, 11840, Control_c, 5, 11, 88
1, 11845, Control_c, 8, 11, 104
1, 11848, Control_c, 5, 11, 89
1, 11848, Control_c, 6, 11, 91
1, 11856, Control_c, 5, 11, 90
1, 11856, Control_c, 6, 11, 92
1, 11861, Control_c, 8, 11, 105
1, 11864, Control_c, 6, 11, 93
1, 11869, Control_c, 8, 11, 106
1, 11872, Control_c, 5, 11, 91
1, 11877, Control_c, 8, 11, 107
1, 11880, Control_c, 5, 11, 92
1, 11880, Control_c, 6, 11, 94
1, 11885, Control_c, 8, 11, 108
1, 11888, Control_c, 5, 11, 93
1, 11888, Control_c, 6, 11, 95
1, 11893, Control_c, 8, 11, 109
1, 11896, Control_c, 5, 11, 94
1, 11896, Control_c, 6, 11, 96
1, 11901, Control_c, 8, 11, 110
1, 11904, Control_c, 5, 11, 95
1, 11904, Control_c, 6, 11, 97
1, 11909, Control_c, 8, 11, 111
1, 11912, Control_c, 5, 11, 96
1, 11920, Control_c, 5, 11, 97
1, 11920, Control_c, 6, 11, 98
1, 11925, Control_c, 8, 11, 112
1, 11928, Control_c, 5, 11, 98
1, 11928, Control_c, 6, 11, 99
1, 11933, Control_c, 8, 11, 113
1, 11936, Control_c, 5, 11, 99
1, 11936, Control_c, 6, 11, 100
1, 11941, Control_c, 8, 11, 114
1, 11949, Control_c, 8, 11, 115
1, 11952, Control_c, 5, 11, 100
1, 11952, Control_c, 6, 11, 101
1, 11957, Control_c, 8, 11, 116
1, 11960, Control_c, 5, 11, 101
1, 11960, Control_c, 6, 11, 102
1, 11965, Control_c, 8, 11, 117
1, 11968, Control_c, 5, 11, 102
1, 11968, Control_c, 6, 11, 103
1, 11973, Control_c, 8, 11, 118
1, 11976, Control_c, 5, 11, 103
1, 11978, Note_on_c, 11, 64, 0
1, 11981, Control_c, 8, 11, 119
1, 11984, Control_c, 5, 11, 104
1, 11984, Control_c, 6, 11, 104
1, 11992, Note_on_c, 11, 61, 0
1, 11992, Control_c, 5, 11, 105
1, 11992, Control_c, 6, 11, 105
1, 11996, Note_on_c, 11, 56, 0
1, 11997, Control_c, 8, 11, 120
1, 12000, Control_c, 5, 11, 106
1, 12000, Control_c, 6, 11, 106
1, 12004, Note_on_c, 11, 56, 96
1, 12004, Note_on_c, 11, 61, 96
1, 12004, Note_on_c, 11, 64, 96
1, 12005, Control_c, 8, 11, 121
1, 12008, Control_c, 5, 11, 107
1, 12008, Control_c, 6, 11, 107
1, 12013, Control_c, 8, 11, 122
1, 12016, Control_c, 5, 11, 108
1, 12021, Control_c, 8, 11, 123
1, 12024, Control_c, 6, 11, 108
1, 12029, Control_c, 8, 11, 124
1, 12032, Control_c, 5, 11, 109
1, 12032, Control_c, 6, 11, 109
1, 12037, Control_c, 8, 11, 125
1, 12040, Control_c, 5, 11, 110
1, 12040, Control_c, 6, 11, 110
1, 12045, Control_c, 8, 11, 126
1, 12048, Control_c, 5, 11, 111
1, 12053, Control_c, 8, 11, 127
1, 12054, Control_c, 8, 1, 9
1, 12056, Control_c, 5, 11, 112
1, 12056, Control_c, 6, 11, 111
1, 12064, Control_c, 5, 11, 113
1, 12064, Control_c, 6, 11, 112
1, 12072, Control_c, 5, 11, 114
1, 12072, Control_c, 6, 11, 113
1, 12072, Control_c, 8, 1, 16
1, 12080, Control_c, 5, 11, 115
1, 12088, Control_c, 5, 11, 116
1, 12088, Control_c, 6, 11, 114
1, 12090, Note_on_c, 7, 52, 0
1, 12096, Control_c, 5, 11, 117
1, 12096, Control_c, 6, 11, 115
1, 12104, Control_c, 6, 11, 116
1, 12110, Control_c, 8, 1, 26
1, 12112, Control_c, 5, 11, 118
1, 12112, Control_c, 6, 11, 117
1, 12113, Note_on_c, 7, 56, 0
1, 12120, Control_c, 5, 11, 119
1, 12128, Control_c, 5, 11, 120
1, 12128, Control_c, 6, 11, 118
1, 12136, Control_c, 5, 11, 121
1, 12136, Control_c, 6, 11, 119
1, 12144, Control_c, 5, 11, 122
1, 12144, Control_c, 6, 11, 120
1, 12148, Control_c, 8, 1, 37
1, 12152, Control_c, 5, 11, 123
1, 12160, Control_c, 5, 11, 124
1, 12160, Control_c, 6, 11, 121
1, 12168, Control_c, 5, 11, 125
1, 12168, Control_c, 6, 11, 122
1, 12176, Control_c, 5, 11, 126
1, 12176, Control_c, 6, 11, 123
1, 12176, Control_c, 8, 1, 45
1, 12184, Control_c, 5, 11, 127
1, 12192, Control_c, 6, 11, 124
1, 12200, Control_c, 6, 11, 125
1, 12208, Control_c, 6, 11, 126
1, 12214, Control_c, 8, 1, 52
1, 12216, Control_c, 6, 11, 127
1, 12219, Note_on_c, 11, 56, 0
1, 12244, Note_on_c, 7, 56, 70
1, 12244, Note_on_c, 11, 56, 96
1, 12302, Note_on_c, 11, 64, 0
1, 12308, Control_c, 8, 1, 42
1, 12326, Control_c, 8, 1, 32
1, 12336, Control_c, 8, 1, 22
1, 12346, Control_c, 8, 1, 13
1, 12355, Control_c, 8, 1, 3
1, 12362, Note_on_c, 11, 61, 0
1, 12364, Control_c, 8, 1, 0
1, 12443, Note_on_c, 11, 56, 0
1, 12475, Note_on_c, 5, 49, 0
1, 12482, Note_on_c, 12, 49, 0
1, 12484, Note_on_c, 5, 47, 82
1, 12484, Note_on_c, 5, 63, 80
1, 12484, Note_on_c, 5, 59, 70
1, 12484, Note_on_c, 6, 63, 40
1, 12484, Note_on_c, 6, 47, 43
1, 12484, Note_on_c, 7, 59, 66
1, 12484, Note_on_c, 7, 54, 47
1, 12484, Note_on_c, 8, 63, 64
1, 12484, Note_on_c, 11, 56, 96
1, 12484, Note_on_c, 11, 59, 96
1, 12484, Note_on_c, 11, 63, 90
1, 12484, Note_on_c, 12, 47, 70
1, 12488, Note_on_c, 7, 61, 0
1, 12493, Note_on_c, 5, 64, 0
1, 12513, Note_on_c, 7, 56, 0
1, 12528, Note_on_c, 5, 61, 0
1, 12547, Note_on_c, 8, 64, 0
1, 12553, Note_on_c, 6, 49, 0
1, 12582, Note_on_c, 6, 64, 0
1, 12724, Note_on_c, 7, 56, 57
1, 12844, Note_on_c, 7, 54, 0
1, 12919, Note_on_c, 11, 63, 0
1, 12935, Note_on_c, 11, 59, 0
1, 12953, Note_on_c, 11, 56, 0
1, 12964, Note_on_c, 11, 56, 96
1, 12964, Note_on_c, 11, 59, 96
1, 12964, Note_on_c, 11, 63, 94
1, 13014, Control_c, 8, 1, 4
1, 13019, Note_on_c, 7, 56, 0
1, 13042, Control_c, 8, 1, 11
1, 13080, Control_c, 8, 1, 19
1, 13127, Control_c, 8, 1, 27
1, 13193, Control_c, 8, 1, 20
1, 13194, Note_on_c, 11, 56, 0
1, 13204, Note_on_c, 7, 56, 62
1, 13204, Note_on_c, 11, 56, 96
1, 13221, Control_c, 8, 1, 8
1, 13231, Control_c, 8, 1, 0
1, 13322, Note_on_c, 11, 63, 0
1, 13322, Note_on_c, 11, 59, 0
1, 13336, Note_on_c, 5, 59, 0
1, 13382, Note_on_c, 11, 56, 0
1, 13427, Note_on_c, 6, 63, 0
1, 13430, Note_on_c, 6, 47, 0
1, 13437, Note_on_c, 7, 59, 0
1, 13442, Note_on_c, 12, 47, 0
1, 13444, Note_on_c, 7, 56, 0
1, 13444, Note_on_c, 2, 32, 66
1, 13444, Note_on_c, 5, 44, 76
1, 13444, Note_on_c, 5, 60, 62
1, 13444, Note_on_c, 6, 44, 30
1, 13444, Note_on_c, 6, 60, 25
1, 13444, Note_on_c, 7, 56, 62
1, 13444, Note_on_c, 11, 56, 96
1, 13444, Note_on_c, 11, 60, 93
1, 13444, Note_on_c, 11, 63, 96
1, 13444, Note_on_c, 12, 44, 68
1, 13469, Note_on_c, 5, 47, 0
1, 13904, Note_on_c, 14, 61, 96
1, 13913, Note_on_c, 14, 52, 96
1, 13924, Note_on_c, 7, 66, 54
1, 13924, Note_on_c, 7, 63, 44
1, 13928, Note_on_c, 7, 56, 0
1, 13940, Control_c, 11, 11, 102
1, 13949, Note_on_c, 14, 52, 0
1, 13949, Note_on_c, 14, 61, 0
1, 13951, Note_on_c, 14, 53, 96
1, 13952, Note_on_c, 14, 62, 96
1, 13967, Control_c, 11, 11, 103
1, 13969, Note_on_c, 14, 53, 0
1, 13970, Note_on_c, 14, 62, 0
1, 13971, Note_on_c, 14, 54, 96
1, 13972, Note_on_c, 14, 63, 96
1, 13995, Control_c, 11, 11, 104
1, 14008, Control_c, 11, 11, 105
1, 14036, Control_c, 11, 11, 106
1, 14063, Control_c, 11, 11, 107
1, 14077, Control_c, 11, 11, 108
1, 14085, Note_on_c, 14, 54, 0
1, 14100, Pitch_bend_c, 14, 7632
1, 14101, Pitch_bend_c, 14, 7744
1, 14104, Note_on_c, 7, 63, 0
1, 14104, Control_c, 11, 11, 109
1, 14113, Note_on_c, 14, 63, 0
1, 14118, Control_c, 11, 11, 110
1, 14125, Note_on_c, 7, 66, 0
1, 14142, Pitch_bend_c, 14, 8192
1, 14146, Control_c, 11, 11, 111
1, 14148, Note_on_c, 14, 61, 90
1, 14152, Pitch_bend_c, 11, 8192
1, 14152, Pitch_bend_c, 14, 8296
1, 14155, Pitch_bend_c, 14, 8248
1, 14159, Note_on_c, 14, 52, 93
1, 14164, Note_on_c, 7, 64, 64
1, 14164, Note_on_c, 7, 61, 64
1, 14173, Control_c, 11, 11, 112
1, 14187, Control_c, 11, 11, 113
1, 14191, Control_c, 8, 11, 125
1, 14214, Control_c, 11, 11, 114
1, 14215, Control_c, 8, 11, 124
1, 14231, Control_c, 8, 11, 123
1, 14242, Control_c, 11, 11, 115
1, 14247, Control_c, 8, 11, 122
1, 14255, Control_c, 11, 11, 116
1, 14256, Note_on_c, 14, 52, 0
1, 14256, Note_on_c, 14, 61, 0
1, 14271, Control_c, 8, 11, 121
1, 14283, Control_c, 11, 11, 117
1, 14287, Control_c, 8, 11, 120
1, 14296, Control_c, 11, 11, 118
1, 14303, Control_c, 8, 11, 119
1, 14310, Control_c, 11, 11, 119
1, 14324, Control_c, 11, 11, 120
1, 14327, Control_c, 8, 11, 118
1, 14338, Control_c, 11, 11, 121
1, 14343, Control_c, 8, 11, 117
1, 14351, Control_c, 11, 11, 122
1, 14359, Control_c, 8, 11, 116
1, 14365, Control_c, 11, 11, 123
1, 14367, Pitch_bend_c, 14, 8192
1, 14369, Note_on_c, 7, 64, 0
1, 14371, Note_on_c, 14, 60, 96
1, 14373, Note_on_c, 14, 51, 96
1, 14373, Pitch_bend_c, 14, 8192
1, 14378, Note_on_c, 7, 61, 0
1, 14379, Control_c, 11, 11, 124
1, 14383, Control_c, 8, 11, 115
1, 14392, Control_c, 11, 11, 125
1, 14396, Note_on_c, 5, 63, 0
1, 14399, Control_c, 8, 11, 114
1, 14404, Note_on_c, 5, 68, 47
1, 14404, Note_on_c, 6, 68, 15
1, 14404, Note_on_c, 7, 63, 70
1, 14404, Note_on_c, 7, 60, 59
1, 14406, Control_c, 11, 11, 126
1, 14407, Control_c, 6, 11, 127
1, 14415, Control_c, 8, 11, 113
1, 14423, Control_c, 6, 11, 126
1, 14434, Control_c, 11, 11, 125
1, 14439, Control_c, 6, 11, 125
1, 14439, Control_c, 8, 11, 112
1, 14440, Note_on_c, 6, 60, 0
1, 14455, Control_c, 6, 11, 124
1, 14455, Control_c, 8, 11, 111
1, 14461, Control_c, 11, 11, 124
1, 14471, Control_c, 6, 11, 123
1, 14471, Control_c, 8, 11, 110
1, 14487, Control_c, 6, 11, 122
1, 14488, Control_c, 11, 11, 123
1, 14495, Control_c, 8, 11, 109
1, 14503, Control_c, 6, 11, 121
1, 14511, Control_c, 8, 11, 108
1, 14516, Control_c, 11, 11, 122
1, 14519, Control_c, 6, 11, 120
1, 14527, Control_c, 8, 11, 107
1, 14535, Control_c, 6, 11, 119
1, 14543, Control_c, 11, 11, 121
1, 14551, Control_c, 6, 11, 118
1, 14551, Control_c, 8, 11, 106
1, 14560, Control_c, 5, 11, 126
1, 14567, Control_c, 6, 11, 117
1, 14567, Control_c, 8, 11, 105
1, 14571, Control_c, 11, 11, 120
1, 14576, Control_c, 5, 11, 125
1, 14583, Control_c, 6, 11, 116
1, 14583, Control_c, 8, 11, 104
1, 14592, Control_c, 5, 11, 124
1, 14598, Control_c, 11, 11, 119
1, 14599, Control_c, 6, 11, 115
1, 14605, Control_c, 14, 11, 126
1, 14607, Control_c, 8, 11, 103
1, 14608, Control_c, 5, 11, 123
1, 14612, Control_c, 11, 11, 118
1, 14615, Control_c, 6, 11, 114
1, 14619, Control_c, 14, 11, 125
1, 14623, Control_c, 8, 11, 102
1, 14624, Control_c, 5, 11, 122
1, 14631, Control_c, 6, 11, 113
1, 14633, Control_c, 14, 11, 124
1, 14639, Control_c, 6, 11, 112
1, 14639, Control_c, 8, 11, 101
1, 14639, Control_c, 11, 11, 117
1, 14640, Control_c, 5, 11, 121
1, 14646, Control_c, 14, 11, 122
1, 14648, Control_c, 5, 11, 120
1, 14655, Control_c, 6, 11, 111
1, 14660, Control_c, 14, 11, 121
1, 14663, Control_c, 8, 11, 100
1, 14664, Control_c, 5, 11, 119
1, 14667, Control_c, 11, 11, 116
1, 14671, Control_c, 6, 11, 110
1, 14674, Control_c, 14, 11, 120
1, 14679, Control_c, 8, 11, 99
1, 14680, Control_c, 5, 11, 118
1, 14687, Control_c, 6, 11, 109
1, 14687, Control_c, 14, 11, 118
1, 14694, Control_c, 11, 11, 115
1, 14695, Control_c, 8, 11, 98
1, 14696, Control_c, 5, 11, 117
1, 14701, Control_c, 14, 11, 117
1, 14703, Control_c, 6, 11, 108
1, 14712, Control_c, 5, 11, 116
1, 14715, Control_c, 14, 11, 116
1, 14719, Control_c, 6, 11, 107
1, 14719, Control_c, 8, 11, 97
1, 14720, Control_c, 5, 11, 115
1, 14722, Control_c, 11, 11, 114
1, 14729, Control_c, 14, 11, 114
1, 14735, Control_c, 6, 11, 106
1, 14735, Control_c, 8, 11, 96
1, 14736, Control_c, 5, 11, 114
1, 14742, Control_c, 14, 11, 113
1, 14749, Control_c, 11, 11, 113
1, 14751, Control_c, 6, 11, 105
1, 14751, Control_c, 8, 11, 95
1, 14752, Control_c, 5, 11, 113
1, 14756, Control_c, 14, 11, 112
1, 14767, Control_c, 6, 11, 104
1, 14768, Control_c, 5, 11, 112
1, 14770, Control_c, 14, 11, 110
1, 14775, Control_c, 8, 11, 94
1, 14776, Control_c, 11, 11, 112
1, 14783, Control_c, 6, 11, 103
1, 14783, Control_c, 14, 11, 109
1, 14784, Control_c, 5, 11, 111
1, 14791, Control_c, 8, 11, 93
1, 14792, Control_c, 5, 11, 110
1, 14797, Control_c, 14, 11, 108
1, 14799, Control_c, 6, 11, 102
1, 14804, Control_c, 11, 11, 111
1, 14807, Control_c, 8, 11, 92
1, 14808, Control_c, 5, 11, 109
1, 14811, Control_c, 14, 11, 106
1, 14813, Control_c, 8, 1, 4
1, 14815, Control_c, 6, 11, 101
1, 14818, Control_c, 11, 11, 110
1, 14824, Control_c, 5, 11, 108
1, 14825, Control_c, 14, 11, 105
1, 14831, Control_c, 6, 11, 100
1, 14831, Control_c, 8, 11, 91
1, 14832, Control_c, 8, 1, 11
1, 14838, Control_c, 14, 11, 104
1, 14840, Control_c, 5, 11, 107
1, 14845, Control_c, 11, 11, 109
1, 14847, Control_c, 6, 11, 99
1, 14847, Control_c, 8, 11, 90
1, 14852, Control_c, 14, 11, 102
1, 14856, Control_c, 5, 11, 106
1, 14863, Control_c, 6, 11, 98
1, 14863, Control_c, 8, 11, 89
1, 14864, Control_c, 5, 11, 105
1, 14866, Control_c, 14, 11, 101
1, 14871, Control_c, 6, 11, 97
1, 14872, Control_c, 11, 11, 108
1, 14879, Control_c, 8, 1, 20
1, 14879, Control_c, 14, 11, 100
1, 14880, Control_c, 5, 11, 104
1, 14887, Control_c, 6, 11, 96
1, 14887, Control_c, 8, 11, 88
1, 14893, Control_c, 14, 11, 98
1, 14896, Control_c, 5, 11, 103
1, 14900, Control_c, 11, 11, 107
1, 14903, Control_c, 6, 11, 95
1, 14903, Control_c, 8, 11, 87
1, 14907, Control_c, 14, 11, 97
1, 14912, Control_c, 5, 11, 102
1, 14919, Control_c, 6, 11, 94
1, 14919, Control_c, 8, 11, 86
1, 14921, Control_c, 14, 11, 96
1, 14927, Control_c, 11, 11, 106
1, 14928, Control_c, 5, 11, 101
1, 14934, Control_c, 14, 11, 94
1, 14935, Control_c, 6, 11, 93
1, 14936, Control_c, 5, 11, 100
1, 14943, Control_c, 8, 11, 85
1, 14948, Control_c, 14, 11, 93
1, 14951, Control_c, 6, 11, 92
1, 14952, Control_c, 5, 11, 99
1, 14955, Control_c, 11, 11, 105
1, 14959, Control_c, 8, 11, 84
1, 14962, Control_c, 14, 11, 91
1, 14967, Control_c, 6, 11, 91
1, 14968, Control_c, 5, 11, 98
1, 14975, Control_c, 8, 11, 83
1, 14975, Control_c, 14, 11, 90
1, 14982, Control_c, 11, 11, 104
1, 14983, Control_c, 6, 11, 90
1, 14984, Control_c, 5, 11, 97
1, 14989, Control_c, 14, 11, 89
1, 14999, Control_c, 6, 11, 89
1, 14999, Control_c, 8, 11, 82
1, 15000, Control_c, 5, 11, 96
1, 15003, Control_c, 14, 11, 87
1, 15008, Control_c, 5, 11, 95
1, 15010, Control_c, 11, 11, 103
1, 15015, Control_c, 6, 11, 88
1, 15015, Control_c, 8, 11, 81
1, 15017, Control_c, 14, 11, 86
1, 15023, Control_c, 11, 11, 102
1, 15024, Control_c, 5, 11, 94
1, 15030, Control_c, 14, 11, 85
1, 15031, Control_c, 6, 11, 87
1, 15031, Control_c, 8, 11, 80
1, 15039, Note_on_c, 14, 51, 0
1, 15040, Control_c, 5, 11, 93
1, 15044, Control_c, 14, 11, 83
1, 15047, Control_c, 6, 11, 86
1, 15049, Control_c, 8, 1, 11
1, 15051, Control_c, 11, 11, 101
1, 15055, Control_c, 8, 11, 79
1, 15056, Control_c, 5, 11, 92
1, 15058, Control_c, 8, 1, 2
1, 15058, Control_c, 14, 11, 82
1, 15063, Control_c, 6, 11, 85
1, 15071, Control_c, 8, 11, 78
1, 15071, Control_c, 14, 11, 81
1, 15072, Control_c, 5, 11, 91
1, 15073, Note_on_c, 14, 60, 0
1, 15077, Control_c, 8, 1, 0
1, 15078, Control_c, 11, 11, 100
1, 15079, Control_c, 6, 11, 84
1, 15085, Control_c, 14, 11, 79
1, 15087, Control_c, 8, 11, 77
1, 15088, Control_c, 5, 11, 90
1, 15095, Control_c, 6, 11, 83
1, 15096, Control_c, 5, 11, 89
1, 15099, Control_c, 14, 11, 78
1, 15103, Control_c, 6, 11, 82
1, 15106, Control_c, 11, 11, 99
1, 15111, Control_c, 8, 11, 76
1, 15112, Control_c, 5, 11, 88
1, 15113, Control_c, 14, 11, 77
1, 15119, Control_c, 6, 11, 81
1, 15122, Note_on_c, 11, 56, 0
1, 15122, Note_on_c, 11, 60, 0
1, 15122, Note_on_c, 11, 63, 0
1, 15126, Control_c, 14, 11, 75
1, 15127, Control_c, 8, 11, 75
1, 15128, Control_c, 5, 11, 87
1, 15133, Control_c, 11, 11, 98
1, 15135, Control_c, 6, 11, 80
1, 15140, Control_c, 14, 11, 74
1, 15143, Control_c, 8, 11, 74
1, 15144, Control_c, 5, 11, 86
1, 15151, Control_c, 6, 11, 79
1, 15154, Control_c, 14, 11, 73
1, 15160, Control_c, 5, 11, 85
1, 15160, Control_c, 11, 11, 97
1, 15167, Control_c, 6, 11, 78
1, 15167, Control_c, 8, 11, 73
1, 15167, Control_c, 14, 11, 71
1, 15168, Control_c, 5, 11, 84
1, 15181, Control_c, 14, 11, 70
1, 15183, Control_c, 6, 11, 77
1, 15183, Control_c, 8, 11, 72
1, 15184, Control_c, 5, 11, 83
1, 15188, Control_c, 11, 11, 96
1, 15195, Control_c, 14, 11, 69
1, 15199, Control_c, 6, 11, 76
1, 15199, Control_c, 8, 11, 71
1, 15200, Control_c, 5, 11, 82
1, 15209, Control_c, 14, 11, 67
1, 15215, Control_c, 6, 11, 75
1, 15215, Control_c, 11, 11, 95
1, 15216, Control_c, 5, 11, 81
1, 15222, Control_c, 14, 11, 66
1, 15223, Control_c, 8, 11, 70
1, 15229, Control_c, 11, 11, 94
1, 15231, Control_c, 6, 11, 74
1, 15232, Control_c, 5, 11, 80
1, 15236, Control_c, 11, 11, 73
1, 15236, Control_c, 14, 11, 65
1, 15239, Control_c, 8, 11, 69
1, 15240, Control_c, 5, 11, 79
1, 15247, Control_c, 6, 11, 73
1, 15249, Control_c, 11, 11, 72
1, 15250, Control_c, 14, 11, 63
1, 15255, Control_c, 8, 11, 68
1, 15256, Control_c, 5, 11, 78
1, 15263, Control_c, 6, 11, 72
1, 15263, Control_c, 14, 11, 62
1, 15272, Control_c, 5, 11, 77
1, 15277, Control_c, 14, 11, 60
1, 15279, Control_c, 6, 11, 71
1, 15279, Control_c, 8, 11, 67
1, 15288, Control_c, 5, 11, 76
1, 15295, Control_c, 6, 11, 70
1, 15295, Control_c, 8, 11, 66
1, 15302, Note_on_c, 5, 60, 0
1, 15304, Control_c, 5, 11, 75
1, 15311, Control_c, 6, 11, 69
1, 15311, Control_c, 8, 11, 65
1, 15312, Control_c, 5, 11, 74
1, 15320, Note_on_c, 6, 44, 0
1, 15323, Note_on_c, 7, 63, 0
1, 15325, Note_on_c, 8, 63, 0
1, 15326, Note_on_c, 7, 60, 0
1, 15327, Control_c, 6, 11, 68
1, 15328, Control_c, 5, 11, 73
1, 15334, Note_on_c, 5, 56, 0
1, 15335, Control_c, 6, 11, 67
1, 15339, Note_on_c, 5, 44, 0
1, 15344, Control_c, 5, 11, 72
1, 15352, Control_c, 11, 11, 127
1, 15360, Control_c, 5, 11, 71
1, 15362, Note_on_c, 2, 32, 0
1, 15362, Note_on_c, 12, 44, 0
1, 15364, Note_on_c, 3, 68, 111
1, 15364, Note_on_c, 5, 64, 50
1, 15364, Note_on_c, 5, 49, 46
1, 15364, Note_on_c, 7, 61, 66
1, 15364, Note_on_c, 7, 64, 61
1, 15364, Note_on_c, 7, 56, 54
1, 15364, Note_on_c, 11, 56, 80
1, 15364, Note_on_c, 11, 61, 94
1, 15364, Note_on_c, 11, 64, 96
1, 15364, Note_on_c, 12, 49, 62
1, 15364, Note_on_c, 14, 64, 57
1, 15364, Note_on_c, 14, 61, 40
1, 15373, Control_c, 14, 11, 126
1, 15376, Control_c, 5, 11, 70
1, 15384, Control_c, 5, 11, 69
1, 15389, Note_on_c, 6, 68, 0
1, 15400, Control_c, 5, 11, 68
1, 15414, Note_on_c, 5, 68, 0
1, 15416, Control_c, 5, 11, 67
1, 15432, Control_c, 5, 11, 66
1, 15448, Control_c, 5, 11, 65
1, 15456, Control_c, 5, 11, 64
1, 15575, Note_on_c, 3, 68, 0
1, 15604, Note_on_c, 3, 68, 105
1, 15604, Lyric_t, "to "
1, 15665, Note_on_c, 3, 68, 0
1, 15722, Note_on_c, 11, 64, 0
1, 15722, Note_on_c, 11, 61, 0
1, 15722, Note_on_c, 11, 56, 0
1, 15724, Note_on_c, 3, 68, 105
1, 15724, Lyric_t, "fly "
1, 15844, Note_on_c, 11, 56, 63
1, 15844, Note_on_c, 11, 61, 95
1, 15844, Note_on_c, 11, 64, 95
1, 16055, Note_on_c, 11, 56, 0
1, 16055, Note_on_c, 3, 68, 0
1, 16084, Note_on_c, 3, 68, 99
1, 16084, Note_on_c, 11, 56, 74
1, 16084, Lyric_t, "a"
1, 16204, Note_on_c, 3, 68, 0
1, 16204, Note_on_c, 3, 66, 99
1, 16204, Lyric_t, "way "
1, 16204, Lyric_t, "\015"
1, 16262, Note_on_c, 11, 61, 0
1, 16262, Note_on_c, 11, 64, 0
1, 16269, Note_on_c, 7, 64, 0
1, 16269, Note_on_c, 14, 61, 0
1, 16286, Note_on_c, 11, 56, 0
1, 16295, Note_on_c, 14, 64, 0
1, 16297, Note_on_c, 7, 61, 0
1, 16324, Note_on_c, 5, 47, 68
1, 16324, Note_on_c, 5, 63, 32
1, 16324, Note_on_c, 7, 63, 70
1, 16324, Note_on_c, 7, 59, 64
1, 16324, Note_on_c, 11, 56, 84
1, 16324, Note_on_c, 11, 59, 84
1, 16324, Note_on_c, 11, 63, 90
1, 16324, Note_on_c, 12, 47, 68
1, 16324, Note_on_c, 14, 59, 49
1, 16324, Note_on_c, 14, 63, 48
1, 16326, Note_on_c, 5, 49, 0
1, 16327, Note_on_c, 12, 49, 0
1, 16342, Note_on_c, 5, 64, 0
1, 16516, Note_on_c, 3, 66, 0
1, 16564, Note_on_c, 3, 66, 99
1, 16564, Lyric_t, "but "
1, 16665, Note_on_c, 3, 66, 0
1, 16682, Note_on_c, 11, 59, 0
1, 16682, Note_on_c, 11, 63, 0
1, 16684, Note_on_c, 3, 64, 105
1, 16684, Lyric_t, "it's "
1, 16742, Note_on_c, 11, 56, 0
1, 16804, Note_on_c, 11, 56, 81
1, 16804, Note_on_c, 11, 59, 82
1, 16804, Note_on_c, 11, 63, 87
1, 16982, Note_on_c, 11, 56, 0
1, 17044, Note_on_c, 3, 66, 84
1, 17044, Note_on_c, 11, 56, 74
1, 17044, Lyric_t, "im"
1, 17069, Note_on_c, 3, 64, 0
1, 17156, Note_on_c, 3, 66, 0
1, 17162, Note_on_c, 11, 63, 0
1, 17164, Note_on_c, 3, 68, 105
1, 17164, Lyric_t, "pos"
1, 17171, Note_on_c, 11, 59, 0
1, 17178, Note_on_c, 7, 56, 0
1, 17210, Note_on_c, 14, 59, 0
1, 17231, Note_on_c, 14, 63, 0
1, 17271, Note_on_c, 3, 68, 0
1, 17277, Note_on_c, 11, 56, 0
1, 17284, Note_on_c, 3, 66, 96
1, 17284, Note_on_c, 5, 64, 41
1, 17284, Note_on_c, 5, 49, 66
1, 17284, Note_on_c, 7, 64, 70
1, 17284, Note_on_c, 7, 56, 45
1, 17284, Note_on_c, 7, 61, 64
1, 17284, Note_on_c, 11, 56, 90
1, 17284, Note_on_c, 11, 61, 100
1, 17284, Note_on_c, 11, 64, 90
1, 17284, Note_on_c, 12, 49, 72
1, 17284, Note_on_c, 14, 64, 48
1, 17284, Note_on_c, 14, 61, 49
1, 17284, Lyric_t, "si"
1, 17288, Note_on_c, 5, 63, 0
1, 17294, Note_on_c, 7, 63, 0
1, 17317, Note_on_c, 12, 47, 0
1, 17334, Note_on_c, 5, 47, 0
1, 17340, Note_on_c, 7, 59, 0
1, 17385, Note_on_c, 3, 66, 0
1, 17404, Note_on_c, 3, 66, 99
1, 17404, Lyric_t, "ble "
1, 17404, Lyric_t, "\015"
1, 17702, Note_on_c, 11, 56, 0
1, 17751, Note_on_c, 14, 63, 96
1, 17754, Pitch_bend_c, 14, 8896
1, 17756, Note_on_c, 11, 64, 0
1, 17757, Note_on_c, 14, 64, 0
1, 17760, Note_on_c, 11, 61, 0
1, 17762, Note_on_c, 14, 61, 0
1, 17764, Note_on_c, 11, 61, 91
1, 17764, Note_on_c, 11, 56, 91
1, 17764, Note_on_c, 11, 64, 96
1, 17808, Pitch_bend_c, 14, 10328
1, 17820, Pitch_bend_c, 14, 10256
1, 17847, Pitch_bend_c, 14, 10280
1, 17854, Pitch_bend_c, 14, 10304
1, 17882, Pitch_bend_c, 14, 8904
1, 17929, Pitch_bend_c, 14, 8872
1, 17960, Note_on_c, 11, 56, 0
1, 18003, Note_on_c, 14, 60, 96
1, 18003, Pitch_bend_c, 14, 8192
1, 18004, Note_on_c, 11, 56, 91
1, 18006, Note_on_c, 14, 63, 0
1, 18006, Pitch_bend_c, 14, 8864
1, 18093, Pitch_bend_c, 14, 8888
1, 18103, Note_on_c, 3, 66, 0
1, 18106, Pitch_bend_c, 14, 8824
1, 18122, Note_on_c, 11, 61, 0
1, 18122, Note_on_c, 11, 64, 0
1, 18182, Note_on_c, 14, 60, 0
1, 18200, Note_on_c, 11, 56, 0
1, 18206, Pitch_bend_c, 14, 8192
1, 18223, Note_on_c, 7, 64, 0
1, 18244, Note_on_c, 5, 47, 66
1, 18244, Note_on_c, 5, 63, 35
1, 18244, Note_on_c, 7, 63, 61
1, 18244, Note_on_c, 7, 59, 54
1, 18244, Note_on_c, 11, 56, 75
1, 18244, Note_on_c, 11, 63, 91
1, 18244, Note_on_c, 11, 59, 99
1, 18244, Note_on_c, 12, 47, 72
1, 18244, Note_on_c, 14, 56, 46
1, 18244, Note_on_c, 14, 63, 52
1, 18246, Note_on_c, 7, 61, 0
1, 18256, Note_on_c, 12, 49, 0
1, 18266, Note_on_c, 5, 49, 0
1, 18316, Note_on_c, 5, 64, 0
1, 18464, Note_on_c, 11, 56, 0
1, 18484, Note_on_c, 11, 56, 84
1, 18604, Note_on_c, 3, 68, 90
1, 18604, Lyric_t, "and "
1, 18646, Note_on_c, 3, 68, 0
1, 18679, Note_on_c, 11, 56, 0
1, 18709, Note_on_c, 11, 59, 0
1, 18716, Note_on_c, 11, 63, 0
1, 18724, Note_on_c, 3, 73, 96
1, 18724, Note_on_c, 11, 56, 75
1, 18724, Note_on_c, 11, 59, 82
1, 18724, Note_on_c, 11, 63, 91
1, 18724, Lyric_t, "eve"
1, 18952, Note_on_c, 11, 56, 0
1, 18964, Note_on_c, 3, 75, 90
1, 18964, Note_on_c, 11, 56, 80
1, 18964, Lyric_t, "ry "
1, 18967, Note_on_c, 3, 73, 0
1, 19029, Note_on_c, 7, 56, 0
1, 19036, Note_on_c, 3, 75, 0
1, 19084, Note_on_c, 3, 76, 102
1, 19084, Lyric_t, "breath "
1, 19090, Note_on_c, 11, 56, 0
1, 19142, Note_on_c, 11, 63, 0
1, 19142, Note_on_c, 11, 59, 0
1, 19190, Note_on_c, 14, 63, 0
1, 19199, Note_on_c, 12, 47, 0
1, 19200, Note_on_c, 14, 56, 0
1, 19204, Note_on_c, 5, 45, 74
1, 19204, Note_on_c, 5, 61, 52
1, 19204, Note_on_c, 7, 57, 58
1, 19204, Note_on_c, 7, 64, 70
1, 19204, Note_on_c, 11, 64, 93
1, 19204, Note_on_c, 11, 59, 92
1, 19204, Note_on_c, 12, 45, 82
1, 19204, Note_on_c, 14, 64, 59
1, 19204, Note_on_c, 14, 57, 45
1, 19227, Note_on_c, 7, 63, 0
1, 19247, Note_on_c, 5, 47, 0
1, 19248, Note_on_c, 5, 63, 0
1, 19314, Note_on_c, 3, 76, 0
1, 19324, Note_on_c, 3, 75, 87
1, 19324, Lyric_t, "I "
1, 19444, Note_on_c, 11, 57, 65
1, 19537, Note_on_c, 3, 75, 0
1, 19564, Note_on_c, 3, 73, 108
1, 19564, Lyric_t, "take "
1, 19564, Lyric_t, "\015"
1, 19605, Note_on_c, 11, 59, 0
1, 19608, Note_on_c, 11, 64, 0
1, 19682, Note_on_c, 11, 57, 0
1, 19684, Note_on_c, 11, 64, 96
1, 19684, Note_on_c, 11, 59, 96
1, 19801, Note_on_c, 3, 73, 0
1, 19804, Note_on_c, 3, 71, 87
1, 19804, Lyric_t, "gives "
1, 19924, Note_on_c, 11, 57, 69
1, 19985, Note_on_c, 3, 71, 0
1, 20044, Note_on_c, 3, 73, 105
1, 20044, Lyric_t, "birth "
1, 20056, Note_on_c, 11, 59, 0
1, 20090, Note_on_c, 11, 64, 0
1, 20162, Note_on_c, 11, 57, 0
1, 20164, Note_on_c, 11, 64, 96
1, 20164, Note_on_c, 11, 59, 96
1, 20404, Note_on_c, 11, 57, 64
1, 20494, Note_on_c, 3, 73, 0
1, 20524, Note_on_c, 3, 71, 76
1, 20524, Lyric_t, "to "
1, 20536, Note_on_c, 11, 59, 0
1, 20595, Note_on_c, 11, 64, 0
1, 20639, Note_on_c, 3, 71, 0
1, 20642, Note_on_c, 11, 57, 0
1, 20644, Note_on_c, 3, 68, 96
1, 20644, Note_on_c, 11, 64, 88
1, 20644, Note_on_c, 11, 59, 96
1, 20644, Lyric_t, "deep"
1, 20881, Note_on_c, 3, 68, 0
1, 20884, Note_on_c, 3, 71, 87
1, 20884, Note_on_c, 11, 57, 75
1, 20884, Lyric_t, "er "
1, 20895, Note_on_c, 7, 57, 0
1, 20918, Note_on_c, 7, 59, 0
1, 20997, Control_c, 5, 11, 61
1, 21043, Note_on_c, 11, 57, 0
1, 21048, Control_c, 5, 11, 62
1, 21069, Note_on_c, 11, 59, 0
1, 21071, Note_on_c, 14, 64, 0
1, 21074, Note_on_c, 11, 64, 0
1, 21084, Note_on_c, 14, 57, 0
1, 21098, Control_c, 5, 11, 63
1, 21111, Note_on_c, 3, 71, 0
1, 21114, Note_on_c, 12, 45, 0
1, 21117, Note_on_c, 5, 61, 0
1, 21121, Pitch_bend_c, 14, 8360
1, 21122, Pitch_bend_c, 14, 8192
1, 21124, Note_on_c, 5, 68, 54
1, 21124, Note_on_c, 5, 60, 57
1, 21124, Note_on_c, 5, 63, 59
1, 21124, Note_on_c, 5, 44, 64
1, 21124, Note_on_c, 7, 60, 49
1, 21124, Note_on_c, 7, 63, 62
1, 21124, Note_on_c, 7, 56, 61
1, 21124, Note_on_c, 11, 56, 73
1, 21124, Note_on_c, 11, 60, 105
1, 21124, Note_on_c, 11, 63, 100
1, 21124, Note_on_c, 12, 44, 78
1, 21124, Note_on_c, 14, 60, 89
1, 21130, Pitch_bend_c, 14, 8240
1, 21134, Note_on_c, 7, 64, 0
1, 21148, Note_on_c, 5, 45, 0
1, 21149, Control_c, 5, 11, 64
1, 21151, Pitch_bend_c, 14, 8192
1, 21199, Control_c, 5, 11, 65
1, 21213, Pitch_bend_c, 3, 7206
1, 21222, Pitch_bend_c, 3, 6293
1, 21231, Pitch_bend_c, 3, 5158
1, 21240, Pitch_bend_c, 3, 3998
1, 21249, Pitch_bend_c, 3, 2863
1, 21250, Control_c, 5, 11, 66
1, 21259, Pitch_bend_c, 3, 2099
1, 21267, Pitch_bend_c, 3, 1186
1, 21277, Pitch_bend_c, 3, 125
1, 21286, Pitch_bend_c, 3, 0
1, 21300, Control_c, 5, 11, 67
1, 21351, Control_c, 5, 11, 68
1, 21362, Note_on_c, 14, 60, 0
1, 21364, Note_on_c, 3, 68, 111
1, 21364, Note_on_c, 11, 51, 65
1, 21364, Note_on_c, 14, 51, 61
1, 21364, Lyric_t, "sighs. "
1, 21364, Lyric_t, "\015"
1, 21376, Control_c, 5, 11, 69
1, 21427, Control_c, 5, 11, 70
1, 21432, Pitch_bend_c, 3, 150
1, 21442, Pitch_bend_c, 3, 372
1, 21451, Pitch_bend_c, 3, 964
1, 21460, Pitch_bend_c, 3, 1284
1, 21469, Pitch_bend_c, 3, 1655
1, 21477, Control_c, 5, 11, 71
1, 21478, Pitch_bend_c, 3, 1877
1, 21482, Note_on_c, 14, 51, 0
1, 21487, Pitch_bend_c, 3, 2197
1, 21496, Pitch_bend_c, 3, 2592
1, 21506, Pitch_bend_c, 3, 2789
1, 21514, Pitch_bend_c, 3, 3061
1, 21524, Pitch_bend_c, 3, 3357
1, 21528, Control_c, 5, 11, 72
1, 21532, Pitch_bend_c, 3, 3702
1, 21542, Pitch_bend_c, 3, 3900
1, 21551, Pitch_bend_c, 3, 4122
1, 21560, Pitch_bend_c, 3, 4270
1, 21569, Pitch_bend_c, 3, 4418
1, 21577, Note_on_c, 14, 52, 84
1, 21578, Pitch_bend_c, 3, 4714
1, 21578, Control_c, 5, 11, 73
1, 21584, Note_on_c, 14, 61, 96
1, 21587, Note_on_c, 11, 56, 0
1, 21588, Pitch_bend_c, 3, 5084
1, 21595, Note_on_c, 11, 63, 0
1, 21596, Pitch_bend_c, 14, 8192
1, 21597, Pitch_bend_c, 3, 5281
1, 21602, Note_on_c, 11, 60, 0
1, 21602, Note_on_c, 11, 51, 0
1, 21604, Note_on_c, 11, 52, 101
1, 21604, Note_on_c, 11, 61, 101
1, 21604, Note_on_c, 11, 56, 104
1, 21606, Pitch_bend_c, 3, 5380
1, 21615, Pitch_bend_c, 14, 8232
1, 21616, Pitch_bend_c, 3, 5602
1, 21620, Control_c, 11, 11, 102
1, 21624, Pitch_bend_c, 3, 5849
1, 21628, Pitch_bend_c, 14, 8192
1, 21629, Control_c, 5, 11, 74
1, 21634, Pitch_bend_c, 3, 6046
1, 21639, Note_on_c, 14, 52, 0
1, 21640, Note_on_c, 14, 61, 0
1, 21641, Note_on_c, 14, 53, 84
1, 21642, Note_on_c, 14, 62, 94
1, 21643, Pitch_bend_c, 3, 6243
1, 21647, Control_c, 11, 11, 103
1, 21651, Pitch_bend_c, 3, 6465
1, 21660, Note_on_c, 14, 62, 0
1, 21661, Pitch_bend_c, 3, 6663
1, 21662, Note_on_c, 14, 63, 95
1, 21667, Note_on_c, 14, 53, 0
1, 21669, Note_on_c, 14, 54, 84
1, 21670, Pitch_bend_c, 3, 6885
1, 21675, Control_c, 11, 11, 104
1, 21679, Pitch_bend_c, 3, 7206
1, 21679, Control_c, 5, 11, 75
1, 21688, Pitch_bend_c, 3, 7428
1, 21688, Control_c, 11, 11, 105
1, 21698, Pitch_bend_c, 3, 7798
1, 21705, Control_c, 5, 11, 76
1, 21707, Pitch_bend_c, 3, 8192
1, 21716, Control_c, 11, 11, 106
1, 21743, Control_c, 11, 11, 107
1, 21755, Control_c, 5, 11, 77
1, 21757, Control_c, 11, 11, 108
1, 21776, Note_on_c, 14, 54, 0
1, 21776, Note_on_c, 14, 63, 0
1, 21784, Control_c, 11, 11, 109
1, 21788, Note_on_c, 11, 52, 0
1, 21798, Control_c, 11, 11, 110
1, 21806, Control_c, 5, 11, 78
1, 21824, Note_on_c, 14, 52, 81
1, 21825, Note_on_c, 14, 61, 92
1, 21826, Control_c, 11, 11, 111
1, 21841, Pitch_bend_c, 14, 8144
1, 21842, Pitch_bend_c, 14, 8192
1, 21844, Note_on_c, 11, 52, 101
1, 21853, Control_c, 11, 11, 112
1, 21856, Control_c, 5, 11, 79
1, 21867, Control_c, 11, 11, 113
1, 21894, Control_c, 11, 11, 114
1, 21907, Control_c, 5, 11, 80
1, 21922, Control_c, 11, 11, 115
1, 21926, Note_on_c, 14, 61, 0
1, 21926, Note_on_c, 14, 52, 0
1, 21935, Control_c, 11, 11, 116
1, 21957, Control_c, 5, 11, 81
1, 21963, Control_c, 11, 11, 117
1, 21976, Control_c, 11, 11, 118
1, 21990, Control_c, 11, 11, 119
1, 22004, Control_c, 11, 11, 120
1, 22008, Control_c, 5, 11, 82
1, 22018, Control_c, 11, 11, 121
1, 22031, Control_c, 11, 11, 122
1, 22033, Control_c, 5, 11, 83
1, 22045, Control_c, 11, 11, 123
1, 22059, Control_c, 11, 11, 124
1, 22067, Pitch_bend_c, 14, 9024
1, 22069, Note_on_c, 11, 56, 0
1, 22070, Pitch_bend_c, 14, 8192
1, 22072, Control_c, 11, 11, 125
1, 22082, Note_on_c, 11, 61, 0
1, 22082, Note_on_c, 11, 52, 0
1, 22084, Control_c, 5, 11, 82
1, 22084, Note_on_c, 11, 68, 67
1, 22084, Note_on_c, 11, 56, 67
1, 22084, Note_on_c, 11, 60, 73
1, 22084, Note_on_c, 11, 63, 73
1, 22084, Note_on_c, 11, 51, 81
1, 22084, Note_on_c, 14, 60, 96
1, 22084, Note_on_c, 14, 51, 82
1, 22086, Control_c, 11, 11, 126
1, 22114, Control_c, 11, 11, 125
1, 22134, Control_c, 5, 11, 81
1, 22141, Control_c, 11, 11, 124
1, 22159, Control_c, 5, 11, 80
1, 22168, Control_c, 11, 11, 123
1, 22196, Control_c, 11, 11, 122
1, 22210, Control_c, 5, 11, 79
1, 22223, Control_c, 11, 11, 121
1, 22235, Control_c, 5, 11, 78
1, 22251, Control_c, 11, 11, 120
1, 22278, Control_c, 11, 11, 119
1, 22286, Control_c, 5, 11, 77
1, 22292, Control_c, 11, 11, 118
1, 22311, Control_c, 5, 11, 76
1, 22319, Control_c, 11, 11, 117
1, 22347, Control_c, 11, 11, 116
1, 22361, Control_c, 5, 11, 75
1, 22374, Control_c, 11, 11, 115
1, 22387, Control_c, 5, 11, 74
1, 22402, Control_c, 11, 11, 114
1, 22429, Control_c, 11, 11, 113
1, 22437, Control_c, 5, 11, 73
1, 22456, Control_c, 11, 11, 112
1, 22463, Control_c, 5, 11, 72
1, 22484, Control_c, 11, 11, 111
1, 22498, Control_c, 11, 11, 110
1, 22513, Control_c, 5, 11, 71
1, 22525, Control_c, 11, 11, 109
1, 22538, Control_c, 5, 11, 70
1, 22552, Control_c, 11, 11, 108
1, 22560, Note_on_c, 11, 68, 0
1, 22564, Note_on_c, 11, 68, 67
1, 22575, Note_on_c, 3, 68, 0
1, 22580, Control_c, 11, 11, 107
1, 22587, Note_on_c, 14, 60, 0
1, 22589, Control_c, 5, 11, 69
1, 22607, Control_c, 11, 11, 106
1, 22614, Note_on_c, 14, 51, 0
1, 22614, Control_c, 5, 11, 68
1, 22635, Control_c, 11, 11, 105
1, 22662, Control_c, 11, 11, 104
1, 22665, Control_c, 5, 11, 67
1, 22690, Control_c, 5, 11, 66
1, 22690, Control_c, 11, 11, 103
1, 22703, Control_c, 11, 11, 102
1, 22731, Control_c, 11, 11, 101
1, 22740, Control_c, 5, 11, 65
1, 22758, Control_c, 11, 11, 100
1, 22766, Control_c, 5, 11, 64
1, 22786, Control_c, 11, 11, 99
1, 22802, Note_on_c, 11, 68, 0
1, 22804, Note_on_c, 3, 73, 102
1, 22804, Lyric_t, "For "
1, 22813, Control_c, 11, 11, 98
1, 22816, Control_c, 5, 11, 63
1, 22840, Control_c, 11, 11, 97
1, 22841, Control_c, 5, 11, 62
1, 22868, Control_c, 11, 11, 96
1, 22892, Control_c, 5, 11, 61
1, 22895, Control_c, 11, 11, 95
1, 22899, Control_c, 8, 11, 48
1, 22909, Control_c, 11, 11, 94
1, 22911, Control_c, 8, 11, 49
1, 22916, Control_c, 11, 11, 73
1, 22917, Control_c, 5, 11, 60
1, 22922, Note_on_c, 11, 56, 0
1, 22922, Note_on_c, 11, 60, 0
1, 22922, Note_on_c, 11, 63, 0
1, 22924, Note_on_c, 3, 75, 90
1, 22924, Control_c, 8, 11, 51
1, 22924, Lyric_t, "a "
1, 22926, Note_on_c, 3, 73, 0
1, 22929, Control_c, 11, 11, 72
1, 22936, Control_c, 8, 11, 52
1, 22949, Control_c, 8, 11, 54
1, 22962, Control_c, 8, 11, 55
1, 22968, Control_c, 5, 11, 59
1, 22974, Control_c, 8, 11, 57
1, 22982, Note_on_c, 11, 51, 0
1, 22987, Control_c, 8, 11, 59
1, 22993, Control_c, 5, 11, 58
1, 23000, Control_c, 8, 11, 60
1, 23003, Note_on_c, 3, 75, 0
1, 23012, Control_c, 8, 11, 62
1, 23019, Control_c, 5, 11, 57
1, 23022, Note_on_c, 5, 44, 0
1, 23025, Control_c, 8, 11, 63
1, 23031, Control_c, 5, 11, 58
1, 23032, Control_c, 11, 11, 127
1, 23038, Note_on_c, 8, 61, 76
1, 23038, Control_c, 8, 11, 65
1, 23040, Note_on_c, 7, 56, 0
1, 23041, Note_on_c, 8, 52, 48
1, 23044, Note_on_c, 7, 60, 0
1, 23044, Note_on_c, 3, 76, 99
1, 23044, Note_on_c, 5, 59, 59
1, 23044, Note_on_c, 5, 57, 54
1, 23044, Note_on_c, 5, 45, 68
1, 23044, Note_on_c, 5, 64, 72
1, 23044, Control_c, 5, 11, 60
1, 23044, Note_on_c, 7, 57, 55
1, 23044, Note_on_c, 7, 59, 55
1, 23044, Note_on_c, 7, 64, 68
1, 23044, Note_on_c, 11, 59, 71
1, 23044, Note_on_c, 11, 52, 96
1, 23044, Note_on_c, 12, 45, 80
1, 23044, Lyric_t, "mo"
1, 23046, Note_on_c, 12, 44, 0
1, 23046, Note_on_c, 7, 63, 0
1, 23046, Note_on_c, 5, 63, 0
1, 23050, Control_c, 8, 11, 67
1, 23051, Note_on_c, 5, 60, 0
1, 23054, Note_on_c, 5, 68, 0
1, 23056, Control_c, 5, 11, 61
1, 23063, Control_c, 8, 11, 68
1, 23069, Control_c, 5, 11, 63
1, 23075, Control_c, 8, 11, 70
1, 23082, Control_c, 5, 11, 64
1, 23088, Control_c, 8, 11, 71
1, 23094, Control_c, 5, 11, 66
1, 23101, Control_c, 8, 11, 73
1, 23107, Control_c, 5, 11, 67
1, 23113, Control_c, 8, 11, 74
1, 23120, Control_c, 5, 11, 69
1, 23126, Control_c, 8, 11, 76
1, 23132, Control_c, 5, 11, 71
1, 23139, Control_c, 8, 11, 78
1, 23145, Control_c, 5, 11, 72
1, 23151, Control_c, 8, 11, 79
1, 23157, Control_c, 5, 11, 74
1, 23164, Control_c, 8, 11, 81
1, 23170, Control_c, 5, 11, 75
1, 23176, Control_c, 8, 11, 82
1, 23183, Control_c, 5, 11, 77
1, 23189, Control_c, 8, 11, 84
1, 23195, Control_c, 5, 11, 78
1, 23202, Control_c, 8, 11, 86
1, 23208, Control_c, 5, 11, 80
1, 23214, Control_c, 8, 11, 87
1, 23221, Control_c, 5, 11, 81
1, 23227, Control_c, 8, 11, 89
1, 23233, Control_c, 5, 11, 83
1, 23240, Control_c, 8, 11, 90
1, 23246, Control_c, 5, 11, 85
1, 23252, Control_c, 8, 11, 92
1, 23259, Control_c, 5, 11, 86
1, 23265, Control_c, 8, 11, 93
1, 23267, Note_on_c, 3, 76, 0
1, 23271, Control_c, 5, 11, 88
1, 23278, Control_c, 8, 11, 95
1, 23282, Note_on_c, 11, 59, 0
1, 23284, Note_on_c, 3, 75, 102
1, 23284, Control_c, 5, 11, 89
1, 23284, Note_on_c, 11, 57, 76
1, 23284, Lyric_t, "ment "
1, 23290, Control_c, 8, 11, 97
1, 23296, Control_c, 5, 11, 91
1, 23303, Control_c, 8, 11, 98
1, 23309, Control_c, 5, 11, 92
1, 23315, Control_c, 8, 11, 100
1, 23322, Control_c, 5, 11, 94
1, 23328, Control_c, 8, 11, 101
1, 23334, Control_c, 5, 11, 95
1, 23341, Control_c, 8, 11, 103
1, 23347, Control_c, 5, 11, 97
1, 23353, Control_c, 8, 11, 105
1, 23360, Control_c, 5, 11, 99
1, 23402, Note_on_c, 11, 52, 0
1, 23404, Note_on_c, 3, 73, 102
1, 23404, Lyric_t, "I "
1, 23416, Control_c, 8, 11, 103
1, 23434, Note_on_c, 3, 75, 0
1, 23442, Note_on_c, 11, 57, 0
1, 23518, Control_c, 8, 11, 104
1, 23524, Note_on_c, 11, 57, 75
1, 23524, Note_on_c, 11, 64, 86
1, 23606, Control_c, 8, 11, 105
1, 23631, Note_on_c, 3, 73, 0
1, 23644, Note_on_c, 3, 71, 90
1, 23644, Lyric_t, "am "
1, 23694, Control_c, 8, 11, 106
1, 23757, Note_on_c, 7, 57, 0
1, 23764, Note_on_c, 11, 61, 96
1, 23771, Note_on_c, 7, 59, 0
1, 23783, Control_c, 8, 11, 107
1, 23850, Note_on_c, 11, 57, 0
1, 23861, Note_on_c, 11, 61, 0
1, 23871, Control_c, 8, 11, 108
1, 23884, Note_on_c, 3, 73, 102
1, 23884, Lyric_t, "weak "
1, 23884, Lyric_t, "\015"
1, 23896, Note_on_c, 11, 64, 0
1, 23898, Note_on_c, 3, 71, 0
1, 23952, Note_on_c, 7, 64, 0
1, 23960, Control_c, 8, 11, 109
1, 23969, Pitch_bend_c, 14, 8192
1, 23971, Note_on_c, 14, 60, 96
1, 23973, Pitch_bend_c, 14, 8944
1, 23986, Note_on_c, 8, 60, 82
1, 23990, Note_on_c, 5, 59, 0
1, 23997, Note_on_c, 5, 57, 0
1, 23998, Note_on_c, 5, 64, 0
1, 23999, Note_on_c, 12, 45, 0
1, 24004, Note_on_c, 5, 56, 74
1, 24004, Note_on_c, 5, 63, 70
1, 24004, Note_on_c, 5, 68, 66
1, 24004, Note_on_c, 5, 60, 76
1, 24004, Note_on_c, 7, 63, 64
1, 24004, Note_on_c, 7, 56, 66
1, 24004, Note_on_c, 7, 60, 82
1, 24004, Note_on_c, 8, 51, 59
1, 24004, Note_on_c, 11, 56, 86
1, 24004, Note_on_c, 11, 60, 83
1, 24004, Note_on_c, 12, 44, 82
1, 24013, Note_on_c, 8, 52, 0
1, 24015, Note_on_c, 5, 45, 0
1, 24023, Note_on_c, 8, 61, 0
1, 24033, Pitch_bend_c, 14, 9608
1, 24046, Pitch_bend_c, 14, 10272
1, 24059, Pitch_bend_c, 14, 10304
1, 24061, Control_c, 8, 11, 110
1, 24149, Control_c, 8, 11, 111
1, 24230, Note_on_c, 11, 56, 0
1, 24238, Control_c, 8, 11, 112
1, 24244, Note_on_c, 11, 51, 96
1, 24244, Note_on_c, 11, 56, 75
1, 24246, Note_on_c, 3, 73, 0
1, 24326, Control_c, 8, 11, 113
1, 24414, Control_c, 8, 11, 114
1, 24435, Note_on_c, 11, 56, 0
1, 24437, Note_on_c, 11, 60, 0
1, 24467, Note_on_c, 14, 60, 0
1, 24482, Pitch_bend_c, 14, 8192
1, 24484, Note_on_c, 11, 60, 93
1, 24484, Note_on_c, 11, 56, 82
1, 24484, Note_on_c, 14, 60, 84
1, 24489, Pitch_bend_c, 14, 8240
1, 24503, Control_c, 8, 11, 115
1, 24509, Pitch_bend_c, 14, 8192
1, 24604, Control_c, 8, 11, 116
1, 24692, Control_c, 8, 11, 117
1, 24719, Note_on_c, 11, 51, 0
1, 24724, Note_on_c, 3, 73, 99
1, 24724, Note_on_c, 11, 51, 94
1, 24724, Lyric_t, "so "
1, 24781, Control_c, 8, 11, 118
1, 24788, Note_on_c, 11, 60, 0
1, 24795, Note_on_c, 11, 56, 0
1, 24838, Note_on_c, 5, 60, 0
1, 24842, Note_on_c, 3, 73, 0
1, 24844, Note_on_c, 3, 75, 90
1, 24844, Lyric_t, "it's "
1, 24869, Control_c, 8, 11, 119
1, 24894, Note_on_c, 11, 51, 0
1, 24916, Note_on_c, 5, 63, 0
1, 24934, Note_on_c, 7, 56, 0
1, 24943, Note_on_c, 7, 60, 0
1, 24957, Note_on_c, 3, 75, 0
1, 24958, Control_c, 8, 11, 120
1, 24962, Time_signature, 2, 2, 24, 8
1, 24962, Note_on_c, 14, 60, 0
1, 24964, Note_on_c, 3, 76, 99
1, 24964, Note_on_c, 5, 64, 72
1, 24964, Note_on_c, 5, 61, 76
1, 24964, Note_on_c, 5, 49, 78
1, 24964, Note_on_c, 7, 56, 62
1, 24964, Note_on_c, 7, 61, 74
1, 24964, Note_on_c, 7, 64, 78
1, 24964, Note_on_c, 8, 64, 82
1, 24964, Note_on_c, 8, 56, 66
1, 24964, Note_on_c, 11, 61, 75
1, 24964, Note_on_c, 11, 64, 97
1, 24964, Note_on_c, 12, 49, 84
1, 24964, Note_on_c, 14, 64, 96
1, 24964, Lyric_t, "hard "
1, 24970, Note_on_c, 8, 51, 0
1, 24979, Note_on_c, 7, 63, 0
1, 24984, Note_on_c, 8, 60, 0
1, 24988, Note_on_c, 12, 44, 0
1, 24990, Note_on_c, 5, 68, 0
1, 25046, Control_c, 8, 11, 121
1, 25147, Control_c, 8, 11, 122
1, 25198, Note_on_c, 11, 56, 96
1, 25204, Note_on_c, 3, 78, 108
1, 25204, Lyric_t, "for "
1, 25207, Note_on_c, 3, 76, 0
1, 25235, Control_c, 8, 11, 123
1, 25262, Note_on_c, 11, 61, 0
1, 25273, Note_on_c, 11, 64, 0
1, 25324, Note_on_c, 3, 80, 102
1, 25324, Control_c, 8, 11, 124
1, 25324, Lyric_t, "me "
1, 25360, Note_on_c, 3, 78, 0
1, 25382, Note_on_c, 11, 56, 0
1, 25412, Control_c, 8, 11, 125
1, 25430, Note_on_c, 12, 49, 0
1, 25434, Note_on_c, 11, 63, 96
1, 25437, Note_on_c, 5, 61, 0
1, 25444, Note_on_c, 5, 59, 74
1, 25444, Note_on_c, 5, 47, 58
1, 25444, Note_on_c, 7, 59, 74
1, 25444, Note_on_c, 8, 66, 76
1, 25444, Note_on_c, 8, 59, 64
1, 25444, Note_on_c, 11, 59, 96
1, 25444, Note_on_c, 12, 47, 80
1, 25444, Note_on_c, 14, 63, 96
1, 25448, Note_on_c, 14, 64, 0
1, 25462, Note_on_c, 7, 61, 0
1, 25478, Note_on_c, 8, 56, 0
1, 25489, Note_on_c, 8, 64, 0
1, 25501, Control_c, 8, 11, 126
1, 25551, Note_on_c, 3, 80, 0
1, 25562, Note_on_c, 5, 49, 0
1, 25564, Note_on_c, 3, 78, 102
1, 25564, Lyric_t, "to "
1, 25589, Control_c, 8, 11, 127
1, 25647, Note_on_c, 11, 54, 96
1, 25729, Note_on_c, 11, 63, 0
1, 25747, Note_on_c, 11, 59, 0
1, 25798, Note_on_c, 7, 59, 0
1, 25802, Note_on_c, 11, 54, 0
1, 25804, Note_on_c, 3, 73, 108
1, 25804, Lyric_t, "speak "
1, 25804, Lyric_t, "\015"
1, 25818, Note_on_c, 3, 78, 0
1, 25879, Note_on_c, 11, 54, 68
1, 25890, Note_on_c, 14, 63, 0
1, 25894, Note_on_c, 11, 58, 70
1, 25897, Note_on_c, 5, 47, 0
1, 25899, Note_on_c, 5, 59, 0
1, 25899, Note_on_c, 12, 47, 0
1, 25909, Note_on_c, 11, 61, 69
1, 25917, Note_on_c, 7, 56, 0
1, 25922, Time_signature, 4, 2, 24, 8
1, 25924, Note_on_c, 5, 61, 84
1, 25924, Note_on_c, 5, 66, 72
1, 25924, Note_on_c, 5, 46, 80
1, 25924, Note_on_c, 7, 66, 78
1, 25924, Note_on_c, 7, 58, 74
1, 25924, Note_on_c, 8, 58, 78
1, 25924, Note_on_c, 11, 66, 68
1, 25924, Note_on_c, 12, 46, 80
1, 25924, Note_on_c, 14, 66, 96
1, 25929, Note_on_c, 7, 64, 0
1, 25933, Note_on_c, 8, 59, 0
1, 25958, Note_on_c, 5, 64, 0
1, 25978, Control_c, 5, 11, 126
1, 26003, Control_c, 5, 11, 125
1, 26029, Control_c, 5, 11, 124
1, 26049, Note_on_c, 5, 56, 0
1, 26054, Control_c, 5, 11, 123
1, 26079, Control_c, 5, 11, 122
1, 26102, Note_on_c, 11, 61, 0
1, 26104, Control_c, 5, 11, 121
1, 26117, Control_c, 5, 11, 120
1, 26142, Control_c, 5, 11, 119
1, 26164, Note_on_c, 11, 61, 60
1, 26167, Control_c, 5, 11, 118
1, 26193, Control_c, 5, 11, 117
1, 26218, Control_c, 5, 11, 116
1, 26243, Control_c, 5, 11, 115
1, 26256, Control_c, 5, 11, 114
1, 26281, Control_c, 5, 11, 113
1, 26306, Control_c, 5, 11, 112
1, 26332, Control_c, 5, 11, 111
1, 26357, Note_on_c, 11, 61, 0
1, 26357, Control_c, 5, 11, 110
1, 26372, Control_c, 8, 11, 124
1, 26382, Control_c, 5, 11, 109
1, 26395, Control_c, 5, 11, 108
1, 26398, Control_c, 8, 11, 123
1, 26402, Note_on_c, 14, 66, 0
1, 26402, Note_on_c, 11, 54, 0
1, 26404, Note_on_c, 11, 54, 96
1, 26410, Control_c, 8, 11, 122
1, 26420, Control_c, 5, 11, 107
1, 26435, Control_c, 8, 11, 121
1, 26445, Control_c, 5, 11, 106
1, 26448, Control_c, 8, 11, 120
1, 26471, Control_c, 5, 11, 105
1, 26473, Control_c, 8, 11, 119
1, 26486, Control_c, 8, 11, 118
1, 26496, Control_c, 5, 11, 104
1, 26511, Control_c, 6, 11, 69
1, 26511, Control_c, 8, 11, 117
1, 26521, Control_c, 5, 11, 103
1, 26524, Control_c, 8, 11, 116
1, 26534, Control_c, 5, 11, 102
1, 26536, Control_c, 8, 11, 115
1, 26559, Control_c, 5, 11, 101
1, 26562, Control_c, 8, 11, 114
1, 26574, Control_c, 8, 11, 113
1, 26582, Note_on_c, 11, 66, 0
1, 26584, Control_c, 5, 11, 100
1, 26600, Control_c, 3, 1, 5
1, 26600, Control_c, 8, 11, 112
1, 26610, Control_c, 5, 11, 99
1, 26612, Control_c, 8, 11, 111
1, 26625, Control_c, 6, 11, 68
1, 26635, Control_c, 5, 11, 98
1, 26636, Control_c, 3, 1, 15
1, 26638, Control_c, 8, 11, 110
1, 26642, Note_on_c, 11, 54, 0
1, 26644, Note_on_c, 6, 80, 62
1, 26644, Note_on_c, 6, 68, 66
1, 26644, Note_on_c, 11, 61, 61
1, 26650, Control_c, 8, 11, 109
1, 26660, Control_c, 5, 11, 97
1, 26663, Control_c, 8, 11, 108
1, 26673, Control_c, 5, 11, 96
1, 26682, Control_c, 3, 1, 23
1, 26688, Control_c, 8, 11, 107
1, 26698, Control_c, 5, 11, 95
1, 26701, Control_c, 8, 11, 106
1, 26723, Control_c, 5, 11, 94
1, 26726, Control_c, 8, 11, 105
1, 26736, Control_c, 3, 1, 32
1, 26739, Control_c, 6, 11, 67
1, 26739, Control_c, 8, 11, 104
1, 26749, Control_c, 5, 11, 93
1, 26764, Control_c, 8, 11, 103
1, 26774, Control_c, 5, 11, 92
1, 26776, Control_c, 8, 11, 102
1, 26799, Control_c, 5, 11, 91
1, 26802, Control_c, 8, 11, 101
1, 26812, Control_c, 5, 11, 90
1, 26814, Control_c, 8, 11, 100
1, 26822, Note_on_c, 11, 58, 0
1, 26827, Control_c, 8, 11, 99
1, 26835, Note_on_c, 3, 73, 0
1, 26837, Control_c, 3, 1, 25
1, 26837, Control_c, 5, 11, 89
1, 26852, Control_c, 6, 11, 66
1, 26852, Control_c, 8, 11, 98
1, 26862, Control_c, 5, 11, 88
1, 26865, Control_c, 8, 11, 97
1, 26874, Control_c, 3, 1, 2
1, 26882, Note_on_c, 11, 61, 0
1, 26883, Control_c, 3, 1, 0
1, 26884, Note_on_c, 11, 54, 71
1, 26887, Control_c, 5, 11, 87
1, 26890, Control_c, 8, 11, 96
1, 26903, Control_c, 8, 11, 95
1, 26913, Control_c, 5, 11, 86
1, 26928, Control_c, 8, 11, 94
1, 26938, Control_c, 5, 11, 85
1, 26941, Control_c, 8, 11, 93
1, 26951, Control_c, 5, 11, 84
1, 26953, Control_c, 8, 11, 92
1, 26966, Control_c, 6, 11, 65
1, 26976, Control_c, 5, 11, 83
1, 26979, Control_c, 8, 11, 91
1, 26991, Control_c, 8, 11, 90
1, 27001, Control_c, 5, 11, 82
1, 27016, Control_c, 8, 11, 89
1, 27026, Control_c, 5, 11, 81
1, 27029, Control_c, 8, 11, 88
1, 27052, Control_c, 5, 11, 80
1, 27054, Control_c, 8, 11, 87
1, 27067, Control_c, 8, 11, 86
1, 27077, Control_c, 5, 11, 79
1, 27080, Control_c, 6, 11, 64
1, 27090, Control_c, 5, 11, 78
1, 27092, Control_c, 8, 11, 85
1, 27105, Control_c, 8, 11, 84
1, 27115, Control_c, 5, 11, 77
1, 27118, Control_c, 8, 11, 83
1, 27140, Control_c, 5, 11, 76
1, 27143, Control_c, 8, 11, 82
1, 27155, Control_c, 8, 11, 81
1, 27165, Control_c, 5, 11, 75
1, 27181, Control_c, 8, 11, 80
1, 27191, Control_c, 5, 11, 74
1, 27193, Control_c, 6, 11, 63
1, 27193, Control_c, 8, 11, 79
1, 27216, Control_c, 5, 11, 73
1, 27219, Control_c, 8, 11, 78
1, 27229, Control_c, 5, 11, 72
1, 27231, Control_c, 8, 11, 77
1, 27244, Control_c, 8, 11, 76
1, 27254, Control_c, 5, 11, 71
1, 27269, Control_c, 8, 11, 75
1, 27279, Control_c, 5, 11, 70
1, 27282, Control_c, 8, 11, 74
1, 27304, Control_c, 5, 11, 69
1, 27307, Control_c, 6, 11, 62
1, 27307, Control_c, 8, 11, 73
1, 27320, Control_c, 8, 11, 72
1, 27330, Control_c, 5, 11, 68
1, 27345, Control_c, 8, 11, 71
1, 27355, Control_c, 5, 11, 67
1, 27358, Control_c, 8, 11, 70
1, 27362, Note_on_c, 11, 54, 0
1, 27367, Control_c, 5, 11, 66
1, 27383, Control_c, 8, 11, 69
1, 27393, Control_c, 5, 11, 65
1, 27395, Control_c, 8, 11, 68
1, 27408, Control_c, 8, 11, 67
1, 27418, Control_c, 5, 11, 64
1, 27421, Control_c, 6, 11, 61
1, 27433, Control_c, 8, 11, 66
1, 27443, Control_c, 5, 11, 63
1, 27446, Control_c, 8, 11, 65
1, 27469, Control_c, 5, 11, 62
1, 27471, Control_c, 8, 11, 64
1, 27484, Control_c, 8, 11, 63
1, 27494, Control_c, 5, 11, 61
1, 27506, Control_c, 5, 11, 60
1, 27509, Control_c, 8, 11, 62
1, 27522, Control_c, 8, 11, 61
1, 27532, Control_c, 5, 11, 59
1, 27534, Control_c, 6, 11, 60
1, 27534, Control_c, 8, 11, 60
1, 27542, Note_on_c, 5, 66, 0
1, 27557, Control_c, 5, 11, 58
1, 27560, Control_c, 8, 11, 59
1, 27572, Control_c, 8, 11, 58
1, 27582, Control_c, 5, 11, 57
1, 27585, Note_on_c, 8, 58, 0
1, 27598, Control_c, 8, 11, 57
1, 27604, Note_on_c, 3, 64, 105
1, 27604, Lyric_t, "e"
1, 27607, Control_c, 5, 11, 56
1, 27610, Control_c, 8, 11, 56
1, 27623, Note_on_c, 8, 66, 0
1, 27633, Control_c, 5, 11, 55
1, 27635, Control_c, 6, 11, 59
1, 27635, Control_c, 8, 11, 55
1, 27645, Control_c, 5, 11, 54
1, 27648, Control_c, 8, 11, 54
1, 27661, Control_c, 8, 11, 53
1, 27671, Control_c, 5, 11, 53
1, 27677, Note_on_c, 5, 46, 0
1, 27694, Note_on_c, 5, 61, 0
1, 27696, Control_c, 5, 11, 52
1, 27721, Control_c, 5, 11, 51
1, 27724, Note_on_c, 3, 66, 78
1, 27724, Lyric_t, "ven "
1, 27743, Note_on_c, 3, 64, 0
1, 27746, Control_c, 5, 11, 50
1, 27749, Control_c, 6, 11, 58
1, 27772, Control_c, 5, 11, 49
1, 27784, Control_c, 5, 11, 48
1, 27835, Note_on_c, 7, 58, 0
1, 27838, Control_c, 5, 11, 48
1, 27840, Note_on_c, 7, 66, 0
1, 27844, Note_on_c, 3, 68, 105
1, 27844, Note_on_c, 5, 45, 68
1, 27844, Note_on_c, 5, 61, 55
1, 27844, Note_on_c, 7, 64, 68
1, 27844, Note_on_c, 7, 61, 66
1, 27844, Note_on_c, 11, 61, 75
1, 27844, Note_on_c, 11, 59, 60
1, 27844, Note_on_c, 11, 64, 96
1, 27844, Note_on_c, 11, 56, 88
1, 27844, Note_on_c, 12, 45, 78
1, 27844, Lyric_t, "though "
1, 27852, Note_on_c, 12, 46, 0
1, 27860, Note_on_c, 3, 66, 0
1, 27863, Control_c, 6, 11, 57
1, 27864, Control_c, 14, 11, 95
1, 27866, Pitch_bend_c, 11, 8560
1, 27867, Pitch_bend_c, 11, 8192
1, 27919, Control_c, 14, 11, 96
1, 27960, Control_c, 14, 11, 97
1, 27964, Control_c, 5, 11, 49
1, 27976, Control_c, 6, 11, 56
1, 28001, Control_c, 14, 11, 98
1, 28035, Note_on_c, 3, 68, 0
1, 28056, Control_c, 14, 11, 99
1, 28084, Note_on_c, 3, 68, 99
1, 28084, Lyric_t, "we're "
1, 28090, Control_c, 5, 11, 50
1, 28090, Control_c, 6, 11, 55
1, 28097, Control_c, 14, 11, 100
1, 28138, Control_c, 14, 11, 101
1, 28163, Note_on_c, 3, 68, 0
1, 28180, Control_c, 14, 11, 102
1, 28204, Note_on_c, 3, 68, 96
1, 28204, Control_c, 6, 11, 54
1, 28204, Lyric_t, "un"
1, 28216, Control_c, 5, 11, 51
1, 28234, Control_c, 14, 11, 103
1, 28248, Note_on_c, 11, 56, 0
1, 28250, Note_on_c, 11, 61, 0
1, 28251, Note_on_c, 11, 64, 0
1, 28262, Note_on_c, 11, 59, 0
1, 28276, Control_c, 14, 11, 104
1, 28289, Note_on_c, 7, 61, 0
1, 28314, Pitch_bend_c, 11, 7904
1, 28315, Pitch_bend_c, 11, 8192
1, 28317, Control_c, 14, 11, 105
1, 28318, Control_c, 6, 11, 53
1, 28324, Note_on_c, 7, 61, 64
1, 28324, Note_on_c, 11, 61, 62
1, 28324, Note_on_c, 11, 59, 91
1, 28324, Note_on_c, 11, 64, 94
1, 28324, Note_on_c, 11, 56, 71
1, 28343, Control_c, 5, 11, 52
1, 28358, Control_c, 14, 11, 106
1, 28393, Note_on_c, 3, 68, 0
1, 28413, Control_c, 14, 11, 107
1, 28431, Control_c, 6, 11, 52
1, 28444, Note_on_c, 3, 68, 96
1, 28444, Lyric_t, "der"
1, 28454, Control_c, 14, 11, 108
1, 28469, Control_c, 5, 11, 53
1, 28495, Control_c, 14, 11, 109
1, 28510, Note_on_c, 11, 56, 0
1, 28536, Control_c, 14, 11, 110
1, 28545, Control_c, 6, 11, 51
1, 28564, Note_on_c, 11, 57, 96
1, 28591, Control_c, 14, 11, 111
1, 28595, Control_c, 5, 11, 54
1, 28632, Control_c, 14, 11, 112
1, 28659, Control_c, 6, 11, 50
1, 28667, Note_on_c, 7, 61, 0
1, 28673, Control_c, 14, 11, 113
1, 28682, Note_on_c, 11, 61, 0
1, 28691, Note_on_c, 11, 59, 0
1, 28709, Note_on_c, 11, 57, 0
1, 28722, Control_c, 5, 11, 55
1, 28728, Control_c, 14, 11, 114
1, 28760, Control_c, 6, 11, 49
1, 28769, Control_c, 14, 11, 115
1, 28773, Pitch_bend_c, 11, 8448
1, 28774, Pitch_bend_c, 11, 8192
1, 28802, Note_on_c, 11, 64, 0
1, 28804, Note_on_c, 3, 73, 105
1, 28804, Note_on_c, 5, 44, 58
1, 28804, Note_on_c, 7, 61, 80
1, 28804, Note_on_c, 11, 61, 92
1, 28804, Note_on_c, 11, 57, 74
1, 28804, Note_on_c, 12, 44, 80
1, 28804, Note_on_c, 14, 61, 96
1, 28804, Lyric_t, "neath "
1, 28804, Lyric_t, "\015"
1, 28809, Note_on_c, 3, 68, 0
1, 28810, Note_on_c, 12, 45, 0
1, 28810, Control_c, 14, 11, 116
1, 28817, Note_on_c, 7, 64, 0
1, 28825, Note_on_c, 5, 45, 0
1, 28848, Control_c, 5, 11, 56
1, 28852, Control_c, 14, 11, 117
1, 28873, Control_c, 6, 11, 48
1, 28906, Control_c, 14, 11, 118
1, 28948, Control_c, 14, 11, 119
1, 28974, Control_c, 5, 11, 57
1, 28987, Control_c, 6, 11, 47
1, 28989, Control_c, 14, 11, 120
1, 29030, Control_c, 14, 11, 121
1, 29044, Note_on_c, 3, 72, 87
1, 29044, Note_on_c, 11, 52, 80
1, 29044, Note_on_c, 12, 51, 45
1, 29044, Lyric_t, "the "
1, 29056, Note_on_c, 3, 73, 0
1, 29085, Control_c, 14, 11, 122
1, 29101, Control_c, 5, 11, 58
1, 29101, Control_c, 6, 11, 46
1, 29126, Control_c, 14, 11, 123
1, 29167, Control_c, 14, 11, 124
1, 29178, Note_on_c, 11, 57, 0
1, 29208, Control_c, 14, 11, 125
1, 29214, Control_c, 6, 11, 45
1, 29222, Note_on_c, 11, 52, 0
1, 29222, Control_c, 14, 11, 124
1, 29227, Control_c, 5, 11, 59
1, 29248, Pitch_bend_c, 11, 8672
1, 29249, Note_on_c, 14, 61, 0
1, 29249, Control_c, 14, 11, 125
1, 29253, Pitch_bend_c, 11, 8192
1, 29263, Control_c, 14, 11, 126
1, 29277, Control_c, 14, 11, 127
1, 29282, Note_on_c, 11, 61, 0
1, 29284, Note_on_c, 3, 73, 102
1, 29284, Note_on_c, 5, 63, 68
1, 29284, Note_on_c, 7, 63, 62
1, 29284, Note_on_c, 11, 60, 90
1, 29284, Note_on_c, 11, 56, 83
1, 29284, Lyric_t, "same "
1, 29287, Pitch_bend_c, 14, 8192
1, 29288, Note_on_c, 14, 63, 95
1, 29297, Pitch_bend_c, 14, 8224
1, 29299, Note_on_c, 3, 72, 0
1, 29310, Pitch_bend_c, 14, 8192
1, 29328, Control_c, 6, 11, 44
1, 29345, Note_on_c, 12, 44, 0
1, 29353, Control_c, 5, 11, 60
1, 29369, Note_on_c, 5, 61, 0
1, 29442, Control_c, 6, 11, 43
1, 29480, Control_c, 5, 11, 61
1, 29524, Note_on_c, 3, 75, 96
1, 29524, Note_on_c, 11, 51, 80
1, 29524, Note_on_c, 12, 44, 78
1, 29524, Lyric_t, "blue "
1, 29529, Note_on_c, 12, 51, 0
1, 29553, Note_on_c, 3, 73, 0
1, 29555, Control_c, 6, 11, 42
1, 29606, Control_c, 5, 11, 62
1, 29636, Note_on_c, 11, 56, 0
1, 29656, Control_c, 8, 11, 56
1, 29669, Note_on_c, 11, 60, 0
1, 29669, Control_c, 6, 11, 41
1, 29682, Control_c, 8, 11, 57
1, 29702, Note_on_c, 11, 51, 0
1, 29707, Control_c, 8, 11, 58
1, 29720, Control_c, 5, 11, 64
1, 29732, Control_c, 5, 11, 65
1, 29732, Control_c, 8, 11, 59
1, 29745, Note_on_c, 7, 61, 0
1, 29745, Control_c, 5, 11, 67
1, 29752, Note_on_c, 14, 63, 0
1, 29754, Note_on_c, 3, 75, 0
1, 29758, Control_c, 5, 11, 68
1, 29758, Control_c, 8, 11, 60
1, 29760, Note_on_c, 14, 64, 90
1, 29760, Control_c, 14, 101, 0
1, 29761, Control_c, 14, 100, 0
1, 29762, Control_c, 14, 6, 13
1, 29763, Control_c, 14, 38, 0
1, 29763, Note_on_c, 7, 63, 0
1, 29764, Note_on_c, 2, 49, 87
1, 29764, Note_on_c, 5, 64, 70
1, 29764, Note_on_c, 5, 56, 64
1, 29764, Note_on_c, 5, 49, 80
1, 29764, Note_on_c, 7, 61, 70
1, 29764, Note_on_c, 7, 64, 74
1, 29764, Note_on_c, 8, 49, 48
1, 29764, Note_on_c, 11, 56, 80
1, 29764, Note_on_c, 11, 61, 94
1, 29764, Note_on_c, 11, 64, 96
1, 29764, Note_on_c, 12, 49, 76
1, 29764, Control_c, 14, 101, 0
1, 29765, Control_c, 14, 100, 0
1, 29766, Control_c, 14, 6, 12
1, 29767, Control_c, 14, 38, 0
1, 29768, Pitch_bend_c, 14, 8224
1, 29770, Control_c, 5, 11, 70
1, 29770, Control_c, 6, 11, 40
1, 29781, Pitch_bend_c, 14, 8192
1, 29783, Control_c, 5, 11, 72
1, 29783, Control_c, 8, 11, 61
1, 29793, Note_on_c, 5, 63, 0
1, 29795, Control_c, 5, 11, 73
1, 29806, Note_on_c, 5, 44, 0
1, 29808, Note_on_c, 12, 44, 0
1, 29808, Control_c, 5, 11, 75
1, 29808, Control_c, 8, 11, 62
1, 29821, Control_c, 5, 11, 77
1, 29833, Control_c, 5, 11, 78
1, 29833, Control_c, 6, 11, 40
1, 29833, Control_c, 8, 11, 63
1, 29846, Control_c, 5, 11, 80
1, 29859, Control_c, 5, 11, 82
1, 29859, Control_c, 8, 11, 64
1, 29871, Control_c, 5, 11, 83
1, 29884, Control_c, 5, 11, 85
1, 29884, Control_c, 8, 11, 65
1, 29896, Control_c, 5, 11, 87
1, 29909, Control_c, 5, 11, 88
1, 29909, Control_c, 6, 11, 41
1, 29909, Control_c, 8, 11, 66
1, 29922, Control_c, 5, 11, 90
1, 29934, Control_c, 5, 11, 92
1, 29934, Control_c, 8, 11, 67
1, 29947, Control_c, 5, 11, 93
1, 29960, Control_c, 5, 11, 95
1, 29960, Control_c, 8, 11, 68
1, 29972, Control_c, 5, 11, 97
1, 29985, Control_c, 5, 11, 98
1, 29985, Control_c, 8, 11, 69
1, 29998, Control_c, 5, 11, 100
1, 29998, Control_c, 6, 11, 42
1, 30004, Note_on_c, 3, 75, 117
1, 30004, Note_on_c, 7, 56, 39
1, 30004, Lyric_t, "sky. "
1, 30004, Lyric_t, "\015"
1, 30010, Control_c, 5, 11, 102
1, 30010, Control_c, 8, 11, 70
1, 30023, Control_c, 5, 11, 103
1, 30035, Control_c, 5, 11, 105
1, 30035, Control_c, 8, 11, 71
1, 30048, Control_c, 5, 11, 107
1, 30061, Control_c, 5, 11, 108
1, 30061, Control_c, 8, 11, 72
1, 30073, Control_c, 5, 11, 110
1, 30073, Control_c, 6, 11, 43
1, 30086, Control_c, 5, 11, 112
1, 30086, Control_c, 8, 11, 73
1, 30092, Note_on_c, 14, 64, 0
1, 30099, Control_c, 5, 11, 113
1, 30111, Control_c, 5, 11, 115
1, 30111, Control_c, 8, 11, 74
1, 30122, Note_on_c, 11, 64, 0
1, 30122, Note_on_c, 11, 56, 0
1, 30122, Note_on_c, 11, 61, 0
1, 30124, Control_c, 5, 11, 117
1, 30136, Control_c, 8, 11, 75
1, 30162, Control_c, 6, 11, 44
1, 30162, Control_c, 8, 11, 76
1, 30179, Note_on_c, 7, 61, 0
1, 30187, Control_c, 8, 11, 77
1, 30193, Note_on_c, 7, 64, 0
1, 30200, Control_c, 8, 11, 78
1, 30210, Pitch_bend_c, 14, 8192
1, 30225, Control_c, 8, 11, 79
1, 30238, Control_c, 6, 11, 45
1, 30244, Note_on_c, 7, 61, 72
1, 30244, Note_on_c, 7, 64, 62
1, 30244, Note_on_c, 11, 56, 63
1, 30244, Note_on_c, 11, 61, 95
1, 30244, Note_on_c, 11, 64, 95
1, 30244, Note_on_c, 14, 64, 96
1, 30250, Control_c, 8, 11, 80
1, 30275, Control_c, 8, 11, 81
1, 30289, Note_on_c, 7, 56, 0
1, 30297, Pitch_bend_c, 14, 9856
1, 30301, Control_c, 8, 11, 82
1, 30324, Pitch_bend_c, 3, 8370
1, 30326, Control_c, 6, 11, 46
1, 30326, Control_c, 8, 11, 83
1, 30333, Pitch_bend_c, 3, 9129
1, 30343, Pitch_bend_c, 3, 9709
1, 30350, Control_c, 2, 1, 6
1, 30351, Control_c, 8, 11, 84
1, 30352, Pitch_bend_c, 3, 10379
1, 30361, Pitch_bend_c, 3, 10245
1, 30366, Pitch_bend_c, 14, 8192
1, 30370, Pitch_bend_c, 3, 9040
1, 30376, Control_c, 8, 11, 85
1, 30380, Pitch_bend_c, 3, 8192
1, 30402, Control_c, 6, 11, 47
1, 30402, Control_c, 8, 11, 86
1, 30427, Control_c, 8, 11, 87
1, 30434, Control_c, 2, 1, 0
1, 30443, Note_on_c, 3, 75, 0
1, 30452, Control_c, 8, 11, 88
1, 30455, Note_on_c, 11, 56, 0
1, 30465, Note_on_c, 14, 64, 0
1, 30471, Note_on_c, 2, 49, 0
1, 30478, Control_c, 8, 11, 89
1, 30484, Note_on_c, 2, 51, 74
1, 30484, Note_on_c, 3, 73, 107
1, 30484, Note_on_c, 7, 56, 57
1, 30484, Note_on_c, 11, 56, 74
1, 30484, Note_on_c, 14, 63, 96
1, 30490, Control_c, 6, 11, 48
1, 30503, Control_c, 8, 11, 90
1, 30528, Control_c, 8, 11, 91
1, 30553, Control_c, 8, 11, 92
1, 30566, Control_c, 6, 11, 49
1, 30579, Control_c, 8, 11, 93
1, 30583, Note_on_c, 14, 63, 0
1, 30590, Pitch_bend_c, 14, 8192
1, 30595, Pitch_bend_c, 14, 8264
1, 30604, Note_on_c, 2, 52, 72
1, 30604, Control_c, 8, 11, 94
1, 30604, Note_on_c, 14, 64, 96
1, 30613, Note_on_c, 2, 51, 0
1, 30615, Pitch_bend_c, 14, 8192
1, 30629, Control_c, 8, 11, 95
1, 30654, Control_c, 6, 11, 50
1, 30654, Control_c, 8, 11, 96
1, 30662, Note_on_c, 11, 61, 0
1, 30662, Note_on_c, 11, 64, 0
1, 30680, Control_c, 8, 11, 97
1, 30686, Note_on_c, 11, 56, 0
1, 30695, Note_on_c, 7, 64, 0
1, 30703, Note_on_c, 6, 80, 0
1, 30705, Control_c, 8, 11, 98
1, 30716, Note_on_c, 6, 68, 0
1, 30718, Note_on_c, 6, 75, 78
1, 30718, Control_c, 8, 11, 99
1, 30724, Note_on_c, 2, 54, 82
1, 30724, Note_on_c, 5, 59, 72
1, 30724, Note_on_c, 5, 47, 84
1, 30724, Note_on_c, 5, 63, 76
1, 30724, Note_on_c, 7, 59, 66
1, 30724, Note_on_c, 7, 63, 72
1, 30724, Note_on_c, 8, 47, 78
1, 30724, Note_on_c, 11, 56, 84
1, 30724, Note_on_c, 11, 59, 84
1, 30724, Note_on_c, 11, 63, 90
1, 30724, Note_on_c, 12, 47, 72
1, 30724, Note_on_c, 14, 63, 96
1, 30729, Note_on_c, 14, 64, 0
1, 30730, Control_c, 6, 11, 51
1, 30730, Control_c, 8, 11, 100
1, 30734, Note_on_c, 7, 56, 0
1, 30734, Note_on_c, 6, 63, 55
1, 30735, Note_on_c, 5, 49, 0
1, 30739, Note_on_c, 12, 49, 0
1, 30741, Note_on_c, 8, 49, 0
1, 30744, Note_on_c, 2, 52, 0
1, 30755, Control_c, 6, 11, 54
1, 30770, Note_on_c, 5, 64, 0
1, 30775, Note_on_c, 7, 61, 0
1, 30776, Note_on_c, 5, 56, 0
1, 30781, Control_c, 8, 11, 99
1, 30819, Control_c, 6, 11, 55
1, 30819, Control_c, 8, 11, 98
1, 30869, Control_c, 6, 11, 56
1, 30869, Control_c, 8, 11, 97
1, 30907, Control_c, 8, 11, 96
1, 30920, Control_c, 6, 11, 57
1, 30945, Control_c, 8, 11, 95
1, 30964, Note_on_c, 7, 56, 49
1, 30970, Control_c, 6, 11, 58
1, 30995, Control_c, 8, 11, 94
1, 31021, Control_c, 6, 11, 59
1, 31033, Control_c, 8, 11, 93
1, 31071, Control_c, 6, 11, 60
1, 31082, Note_on_c, 11, 59, 0
1, 31082, Note_on_c, 11, 63, 0
1, 31084, Control_c, 8, 11, 92
1, 31122, Control_c, 8, 11, 91
1, 31134, Control_c, 6, 11, 61
1, 31137, Note_on_c, 7, 59, 0
1, 31142, Note_on_c, 11, 56, 0
1, 31154, Note_on_c, 7, 63, 0
1, 31160, Control_c, 8, 11, 90
1, 31185, Control_c, 6, 11, 62
1, 31204, Note_on_c, 7, 63, 64
1, 31204, Note_on_c, 7, 59, 58
1, 31204, Note_on_c, 11, 56, 81
1, 31204, Note_on_c, 11, 59, 82
1, 31204, Note_on_c, 11, 63, 87
1, 31210, Control_c, 8, 11, 89
1, 31235, Control_c, 6, 11, 63
1, 31248, Control_c, 8, 11, 88
1, 31254, Note_on_c, 14, 63, 0
1, 31256, Note_on_c, 7, 56, 0
1, 31286, Control_c, 6, 11, 64
1, 31292, Control_c, 2, 1, 5
1, 31299, Control_c, 8, 11, 87
1, 31336, Control_c, 6, 11, 65
1, 31336, Control_c, 8, 11, 86
1, 31368, Control_c, 2, 1, 13
1, 31374, Control_c, 8, 11, 85
1, 31382, Note_on_c, 11, 56, 0
1, 31387, Control_c, 6, 11, 66
1, 31424, Control_c, 2, 1, 21
1, 31425, Control_c, 8, 11, 84
1, 31444, Note_on_c, 7, 56, 59
1, 31444, Note_on_c, 9, 59, 46
1, 31444, Note_on_c, 11, 56, 74
1, 31450, Control_c, 6, 11, 67
1, 31463, Control_c, 8, 11, 83
1, 31481, Control_c, 2, 1, 28
1, 31482, Note_on_c, 9, 59, 0
1, 31501, Control_c, 6, 11, 68
1, 31513, Control_c, 8, 11, 82
1, 31543, Note_on_c, 2, 54, 0
1, 31551, Control_c, 6, 11, 69
1, 31551, Control_c, 8, 11, 81
1, 31562, Note_on_c, 11, 63, 0
1, 31571, Note_on_c, 11, 59, 0
1, 31575, Control_c, 2, 1, 22
1, 31585, Control_c, 2, 1, 13
1, 31589, Control_c, 8, 11, 80
1, 31593, Control_c, 2, 1, 0
1, 31602, Control_c, 6, 11, 70
1, 31607, Note_on_c, 3, 73, 0
1, 31652, Control_c, 6, 11, 71
1, 31663, Note_on_c, 12, 47, 0
1, 31663, Note_on_c, 8, 47, 0
1, 31677, Note_on_c, 11, 56, 0
1, 31681, Note_on_c, 7, 56, 0
1, 31684, Note_on_c, 2, 52, 80
1, 31684, Note_on_c, 5, 64, 80
1, 31684, Note_on_c, 5, 61, 84
1, 31684, Note_on_c, 5, 45, 80
1, 31684, Note_on_c, 7, 57, 74
1, 31684, Note_on_c, 7, 61, 82
1, 31684, Note_on_c, 8, 45, 87
1, 31684, Note_on_c, 9, 51, 76
1, 31684, Note_on_c, 11, 57, 90
1, 31684, Note_on_c, 11, 61, 100
1, 31684, Note_on_c, 11, 64, 90
1, 31684, Note_on_c, 12, 45, 70
1, 31690, Control_c, 8, 11, 77
1, 31701, Note_on_c, 6, 73, 82
1, 31703, Control_c, 6, 11, 72
1, 31705, Note_on_c, 14, 64, 96
1, 31717, Note_on_c, 6, 61, 82
1, 31718, Note_on_c, 7, 63, 0
1, 31722, Note_on_c, 9, 51, 0
1, 31725, Note_on_c, 5, 63, 0
1, 31727, Note_on_c, 7, 59, 0
1, 31728, Control_c, 8, 11, 78
1, 31732, Note_on_c, 5, 47, 0
1, 31741, Note_on_c, 5, 59, 0
1, 31743, Note_on_c, 6, 63, 0
1, 31766, Control_c, 6, 11, 73
1, 31766, Control_c, 8, 11, 79
1, 31791, Note_on_c, 6, 75, 0
1, 31804, Control_c, 8, 11, 80
1, 31816, Control_c, 6, 11, 74
1, 31842, Control_c, 8, 11, 81
1, 31867, Control_c, 6, 11, 75
1, 31880, Control_c, 8, 11, 82
1, 31918, Control_c, 6, 11, 76
1, 31918, Control_c, 8, 11, 83
1, 31955, Control_c, 8, 11, 84
1, 31968, Control_c, 6, 11, 77
1, 31993, Control_c, 8, 11, 85
1, 32000, Note_on_c, 2, 52, 0
1, 32019, Control_c, 6, 11, 78
1, 32019, Control_c, 8, 11, 86
1, 32045, Note_on_c, 2, 52, 66
1, 32056, Control_c, 8, 11, 87
1, 32082, Control_c, 6, 11, 79
1, 32094, Control_c, 8, 11, 88
1, 32102, Note_on_c, 11, 57, 0
1, 32132, Control_c, 6, 11, 80
1, 32132, Control_c, 8, 11, 89
1, 32135, Pitch_bend_c, 14, 8192
1, 32150, Note_on_c, 14, 64, 0
1, 32156, Note_on_c, 11, 64, 0
1, 32160, Note_on_c, 11, 61, 0
1, 32164, Note_on_c, 7, 64, 68
1, 32164, Note_on_c, 11, 57, 96
1, 32164, Note_on_c, 11, 61, 96
1, 32164, Note_on_c, 11, 64, 96
1, 32164, Note_on_c, 14, 64, 96
1, 32170, Note_on_c, 2, 56, 59
1, 32170, Control_c, 8, 11, 90
1, 32183, Control_c, 6, 11, 81
1, 32189, Note_on_c, 2, 57, 76
1, 32208, Control_c, 8, 11, 91
1, 32221, Note_on_c, 2, 56, 0
1, 32223, Note_on_c, 2, 52, 0
1, 32231, Pitch_bend_c, 14, 9472
1, 32233, Control_c, 6, 11, 82
1, 32246, Control_c, 8, 11, 92
1, 32284, Control_c, 6, 11, 83
1, 32284, Control_c, 8, 11, 93
1, 32299, Pitch_bend_c, 14, 8192
1, 32309, Control_c, 8, 11, 94
1, 32334, Control_c, 6, 11, 84
1, 32347, Control_c, 8, 11, 95
1, 32385, Control_c, 8, 11, 96
1, 32395, Note_on_c, 14, 64, 0
1, 32395, Note_on_c, 11, 57, 0
1, 32398, Control_c, 6, 11, 85
1, 32404, Note_on_c, 11, 57, 76
1, 32406, Note_on_c, 14, 61, 96
1, 32423, Control_c, 8, 11, 97
1, 32448, Control_c, 6, 11, 86
1, 32461, Control_c, 8, 11, 98
1, 32499, Control_c, 6, 11, 87
1, 32499, Control_c, 8, 11, 99
1, 32522, Note_on_c, 11, 64, 0
1, 32525, Note_on_c, 14, 61, 0
1, 32536, Control_c, 8, 11, 100
1, 32549, Control_c, 6, 11, 88
1, 32574, Control_c, 8, 11, 101
1, 32582, Note_on_c, 11, 61, 0
1, 32600, Note_on_c, 11, 57, 0
1, 32600, Control_c, 6, 11, 89
1, 32600, Control_c, 8, 11, 102
1, 32633, Note_on_c, 14, 63, 96
1, 32635, Note_on_c, 7, 64, 0
1, 32636, Note_on_c, 12, 45, 0
1, 32638, Control_c, 5, 11, 105
1, 32638, Control_c, 8, 11, 103
1, 32644, Note_on_c, 2, 56, 80
1, 32644, Note_on_c, 5, 63, 87
1, 32644, Note_on_c, 5, 56, 68
1, 32644, Note_on_c, 5, 44, 84
1, 32644, Note_on_c, 7, 63, 47
1, 32644, Note_on_c, 7, 56, 74
1, 32644, Note_on_c, 7, 60, 78
1, 32644, Note_on_c, 8, 44, 84
1, 32644, Note_on_c, 11, 56, 75
1, 32644, Note_on_c, 11, 63, 91
1, 32644, Note_on_c, 11, 60, 99
1, 32644, Note_on_c, 12, 44, 72
1, 32648, Note_on_c, 5, 45, 0
1, 32650, Control_c, 6, 11, 90
1, 32664, Note_on_c, 8, 45, 0
1, 32665, Note_on_c, 7, 57, 0
1, 32666, Note_on_c, 7, 61, 0
1, 32670, Note_on_c, 2, 57, 0
1, 32674, Note_on_c, 5, 64, 0
1, 32675, Control_c, 8, 11, 104
1, 32682, Control_c, 14, 11, 124
1, 32688, Control_c, 5, 11, 106
1, 32705, Control_c, 11, 11, 126
1, 32713, Control_c, 6, 11, 91
1, 32713, Control_c, 8, 11, 105
1, 32723, Control_c, 14, 11, 123
1, 32726, Control_c, 5, 11, 107
1, 32732, Control_c, 11, 11, 125
1, 32750, Control_c, 14, 11, 122
1, 32751, Control_c, 8, 11, 106
1, 32760, Control_c, 11, 11, 124
1, 32764, Control_c, 5, 11, 108
1, 32764, Control_c, 6, 11, 92
1, 32773, Control_c, 11, 11, 123
1, 32778, Control_c, 14, 11, 121
1, 32789, Control_c, 8, 11, 107
1, 32801, Control_c, 11, 11, 122
1, 32802, Control_c, 5, 11, 109
1, 32805, Control_c, 14, 11, 120
1, 32814, Control_c, 6, 11, 93
1, 32814, Control_c, 11, 11, 121
1, 32827, Control_c, 8, 11, 108
1, 32832, Control_c, 14, 11, 119
1, 32842, Control_c, 11, 11, 120
1, 32852, Control_c, 5, 11, 110
1, 32856, Control_c, 11, 11, 119
1, 32860, Control_c, 14, 11, 118
1, 32865, Control_c, 6, 11, 94
1, 32865, Control_c, 8, 11, 109
1, 32876, Note_on_c, 9, 57, 1
1, 32883, Control_c, 11, 11, 118
1, 32887, Control_c, 14, 11, 117
1, 32890, Control_c, 5, 11, 111
1, 32897, Control_c, 11, 11, 117
1, 32901, Note_on_c, 9, 49, 2
1, 32903, Control_c, 8, 11, 110
1, 32903, Note_on_c, 9, 57, 2
1, 32914, Note_on_c, 9, 57, 0
1, 32915, Control_c, 6, 11, 95
1, 32924, Control_c, 11, 11, 116
1, 32927, Note_on_c, 9, 49, 3
1, 32928, Control_c, 5, 11, 112
1, 32928, Control_c, 8, 11, 111
1, 32928, Control_c, 14, 11, 116
1, 32939, Note_on_c, 9, 49, 0
1, 32940, Note_on_c, 9, 57, 4
1, 32941, Note_on_c, 9, 57, 0
1, 32952, Control_c, 11, 11, 115
1, 32956, Control_c, 14, 11, 115
1, 32965, Note_on_c, 9, 49, 0
1, 32965, Note_on_c, 9, 49, 6
1, 32965, Control_c, 11, 11, 114
1, 32966, Control_c, 5, 11, 113
1, 32966, Control_c, 6, 11, 96
1, 32966, Control_c, 8, 11, 112
1, 32967, Note_on_c, 9, 57, 6
1, 32978, Note_on_c, 9, 57, 0
1, 32983, Control_c, 14, 11, 114
1, 32991, Note_on_c, 9, 49, 7
1, 32993, Control_c, 11, 11, 113
1, 32998, Note_on_c, 9, 57, 8
1, 33003, Note_on_c, 9, 49, 0
1, 33004, Control_c, 8, 11, 113
1, 33005, Note_on_c, 9, 57, 0
1, 33006, Control_c, 11, 11, 112
1, 33011, Note_on_c, 9, 57, 8
1, 33011, Control_c, 14, 11, 113
1, 33016, Control_c, 5, 11, 114
1, 33025, Note_on_c, 9, 57, 9
1, 33029, Note_on_c, 9, 49, 0
1, 33029, Control_c, 6, 11, 97
1, 33034, Control_c, 11, 11, 111
1, 33035, Note_on_c, 9, 49, 10
1, 33036, Note_on_c, 9, 57, 0
1, 33038, Control_c, 14, 11, 112
1, 33040, Note_on_c, 9, 49, 10
1, 33042, Control_c, 8, 11, 114
1, 33048, Control_c, 11, 11, 110
1, 33049, Note_on_c, 9, 57, 0
1, 33054, Control_c, 5, 11, 115
1, 33062, Note_on_c, 9, 57, 12
1, 33063, Note_on_c, 9, 57, 0
1, 33066, Control_c, 14, 11, 111
1, 33067, Note_on_c, 9, 49, 12
1, 33073, Note_on_c, 9, 49, 0
1, 33075, Control_c, 11, 11, 109
1, 33078, Note_on_c, 7, 56, 0
1, 33078, Note_on_c, 9, 49, 0
1, 33080, Control_c, 6, 11, 98
1, 33080, Control_c, 8, 11, 115
1, 33089, Note_on_c, 9, 57, 13
1, 33089, Control_c, 11, 11, 108
1, 33092, Control_c, 5, 11, 116
1, 33093, Control_c, 14, 11, 110
1, 33100, Note_on_c, 9, 57, 0
1, 33102, Note_on_c, 7, 60, 0
1, 33102, Note_on_c, 7, 63, 0
1, 33104, Note_on_c, 9, 49, 14
1, 33105, Note_on_c, 9, 49, 0
1, 33116, Control_c, 11, 11, 107
1, 33118, Control_c, 8, 11, 116
1, 33124, Note_on_c, 5, 68, 59
1, 33127, Note_on_c, 9, 57, 0
1, 33130, Control_c, 5, 11, 117
1, 33130, Control_c, 6, 11, 99
1, 33130, Control_c, 11, 11, 106
1, 33131, Note_on_c, 9, 49, 16
1, 33133, Note_on_c, 9, 57, 16
1, 33134, Control_c, 14, 11, 109
1, 33142, Note_on_c, 9, 49, 0
1, 33147, Note_on_c, 7, 38, 77
1, 33155, Control_c, 8, 11, 117
1, 33157, Note_on_c, 7, 40, 76
1, 33157, Control_c, 11, 11, 105
1, 33159, Note_on_c, 9, 57, 18
1, 33162, Control_c, 14, 11, 108
1, 33168, Control_c, 5, 11, 118
1, 33169, Note_on_c, 9, 49, 0
1, 33171, Note_on_c, 9, 57, 0
1, 33175, Note_on_c, 9, 49, 19
1, 33181, Control_c, 6, 11, 100
1, 33185, Control_c, 11, 11, 104
1, 33186, Note_on_c, 7, 38, 0
1, 33188, Note_on_c, 7, 41, 74
1, 33189, Control_c, 14, 11, 107
1, 33190, Note_on_c, 9, 57, 20
1, 33193, Control_c, 8, 11, 118
1, 33197, Note_on_c, 9, 57, 0
1, 33198, Control_c, 11, 11, 103
1, 33201, Note_on_c, 9, 49, 20
1, 33213, Note_on_c, 9, 49, 0
1, 33216, Control_c, 14, 11, 106
1, 33217, Note_on_c, 7, 40, 0
1, 33217, Note_on_c, 9, 57, 21
1, 33219, Control_c, 5, 11, 119
1, 33219, Control_c, 8, 11, 119
1, 33223, Note_on_c, 7, 43, 72
1, 33226, Control_c, 11, 11, 102
1, 33228, Note_on_c, 9, 57, 0
1, 33231, Control_c, 6, 11, 101
1, 33232, Note_on_c, 9, 49, 22
1, 33239, Note_on_c, 9, 49, 0
1, 33240, Control_c, 11, 11, 101
1, 33243, Note_on_c, 9, 49, 24
1, 33244, Control_c, 14, 11, 105
1, 33246, Note_on_c, 7, 41, 0
1, 33253, Note_on_c, 7, 45, 71
1, 33254, Note_on_c, 9, 57, 24
1, 33255, Note_on_c, 9, 57, 0
1, 33256, Control_c, 5, 11, 120
1, 33256, Control_c, 8, 11, 120
1, 33267, Control_c, 11, 11, 100
1, 33270, Note_on_c, 9, 49, 0
1, 33271, Control_c, 14, 11, 104
1, 33276, Note_on_c, 7, 43, 0
1, 33281, Note_on_c, 9, 49, 0
1, 33281, Note_on_c, 7, 47, 69
1, 33281, Note_on_c, 9, 57, 25
1, 33281, Control_c, 11, 11, 99
1, 33282, Control_c, 6, 11, 102
1, 33292, Note_on_c, 9, 57, 0
1, 33294, Control_c, 5, 11, 121
1, 33294, Control_c, 8, 11, 121
1, 33296, Note_on_c, 9, 49, 25
1, 33299, Control_c, 14, 11, 103
1, 33306, Note_on_c, 7, 45, 0
1, 33308, Control_c, 11, 11, 98
1, 33311, Note_on_c, 7, 48, 67
1, 33312, Note_on_c, 9, 57, 26
1, 33319, Note_on_c, 9, 57, 0
1, 33322, Control_c, 11, 11, 97
1, 33323, Note_on_c, 9, 49, 27
1, 33332, Control_c, 5, 11, 122
1, 33332, Control_c, 8, 11, 122
1, 33334, Note_on_c, 9, 49, 0
1, 33334, Note_on_c, 7, 47, 0
1, 33336, Control_c, 2, 1, 6
1, 33338, Note_on_c, 7, 50, 66
1, 33339, Note_on_c, 9, 57, 28
1, 33340, Control_c, 14, 11, 102
1, 33345, Control_c, 6, 11, 103
1, 33349, Control_c, 11, 11, 96
1, 33350, Note_on_c, 9, 57, 0
1, 33354, Note_on_c, 9, 49, 29
1, 33360, Note_on_c, 7, 48, 0
1, 33361, Note_on_c, 9, 49, 0
1, 33364, Control_c, 2, 1, 15
1, 33364, Note_on_c, 3, 73, 108
1, 33364, Note_on_c, 7, 52, 64
1, 33364, Lyric_t, "If "
1, 33367, Control_c, 14, 11, 101
1, 33370, Control_c, 8, 11, 123
1, 33377, Note_on_c, 9, 57, 0
1, 33377, Control_c, 11, 11, 95
1, 33381, Note_on_c, 9, 49, 31
1, 33382, Note_on_c, 9, 57, 31
1, 33383, Control_c, 5, 11, 123
1, 33387, Note_on_c, 7, 50, 0
1, 33390, Note_on_c, 7, 53, 63
1, 33390, Control_c, 11, 11, 94
1, 33392, Note_on_c, 9, 49, 0
1, 33395, Control_c, 6, 11, 104
1, 33395, Control_c, 14, 11, 100
1, 33408, Control_c, 8, 11, 124
1, 33409, Note_on_c, 9, 57, 32
1, 33411, Control_c, 2, 1, 22
1, 33413, Note_on_c, 7, 52, 0
1, 33417, Note_on_c, 7, 55, 61
1, 33418, Control_c, 11, 11, 93
1, 33419, Note_on_c, 9, 49, 0
1, 33420, Note_on_c, 9, 57, 0
1, 33421, Control_c, 5, 11, 124
1, 33422, Control_c, 14, 11, 99
1, 33424, Note_on_c, 9, 49, 33
1, 33432, Control_c, 11, 11, 92
1, 33440, Note_on_c, 7, 53, 0
1, 33443, Note_on_c, 7, 57, 60
1, 33446, Control_c, 6, 11, 105
1, 33446, Control_c, 8, 11, 125
1, 33446, Note_on_c, 9, 57, 35
1, 33447, Note_on_c, 9, 57, 0
1, 33450, Control_c, 14, 11, 98
1, 33451, Note_on_c, 9, 49, 35
1, 33459, Control_c, 5, 11, 125
1, 33459, Control_c, 11, 11, 91
1, 33462, Note_on_c, 9, 49, 0
1, 33467, Note_on_c, 7, 55, 0
1, 33467, Control_c, 2, 1, 29
1, 33470, Note_on_c, 7, 59, 58
1, 33473, Note_on_c, 9, 57, 36
1, 33473, Control_c, 11, 11, 90
1, 33477, Control_c, 14, 11, 97
1, 33482, Note_on_c, 11, 60, 0
1, 33482, Note_on_c, 11, 56, 0
1, 33482, Note_on_c, 11, 63, 0
1, 33482, Note_on_c, 14, 63, 0
1, 33484, Note_on_c, 9, 57, 0
1, 33484, Control_c, 8, 11, 126
1, 33486, Control_c, 2, 1, 36
1, 33488, Note_on_c, 9, 49, 37
1, 33489, Note_on_c, 9, 49, 0
1, 33494, Note_on_c, 7, 57, 0
1, 33496, Control_c, 5, 11, 126
1, 33496, Control_c, 6, 11, 106
1, 33499, Note_on_c, 9, 57, 38
1, 33500, Note_on_c, 7, 60, 57
1, 33500, Control_c, 11, 11, 89
1, 33504, Control_c, 14, 11, 96
1, 33509, Control_c, 8, 11, 127
1, 33511, Note_on_c, 9, 57, 0
1, 33514, Control_c, 2, 1, 46
1, 33514, Control_c, 11, 11, 88
1, 33515, Note_on_c, 9, 49, 39
1, 33520, Note_on_c, 7, 59, 0
1, 33526, Note_on_c, 9, 49, 0
1, 33528, Note_on_c, 7, 62, 55
1, 33532, Control_c, 14, 11, 95
1, 33534, Control_c, 5, 11, 127
1, 33535, Note_on_c, 9, 49, 40
1, 33537, Note_on_c, 9, 57, 0
1, 33537, Note_on_c, 9, 57, 40
1, 33541, Control_c, 11, 11, 87
1, 33543, Control_c, 2, 1, 54
1, 33544, Note_on_c, 10, 56, 64
1, 33547, Note_on_c, 7, 60, 0
1, 33547, Control_c, 6, 11, 107
1, 33552, Note_on_c, 2, 56, 0
1, 33553, Note_on_c, 9, 49, 0
1, 33555, Control_c, 11, 11, 86
1, 33563, Note_on_c, 9, 57, 42
1, 33563, Note_on_c, 9, 57, 42
1, 33564, Note_on_c, 10, 61, 72
1, 33571, Control_c, 2, 1, 40
1, 33573, Note_on_c, 9, 49, 0
1, 33574, Note_on_c, 7, 62, 0
1, 33575, Note_on_c, 9, 57, 0
1, 33578, Note_on_c, 9, 49, 43
1, 33580, Control_c, 2, 1, 0
1, 33584, Note_on_c, 10, 64, 78
1, 33586, Note_on_c, 3, 73, 0
1, 33588, Note_on_c, 5, 68, 0
1, 33591, Note_on_c, 9, 54, 95
1, 33596, Control_c, 11, 11, 127
1, 33598, Note_on_c, 5, 44, 0
1, 33598, Note_on_c, 5, 56, 0
1, 33598, Control_c, 6, 11, 108
1, 33600, Note_on_c, 9, 57, 44
1, 33600, Control_c, 14, 11, 125
1, 33601, Note_on_c, 9, 57, 0
1, 33601, Note_on_c, 9, 57, 0
1, 33602, Note_on_c, 6, 61, 0
1, 33604, Note_on_c, 1, 37, 82
1, 33604, Note_on_c, 3, 68, 108
1, 33604, Note_on_c, 5, 61, 74
1, 33604, Note_on_c, 5, 64, 68
1, 33604, Note_on_c, 5, 49, 78
1, 33604, Note_on_c, 7, 64, 47
1, 33604, Note_on_c, 7, 49, 64
1, 33604, Note_on_c, 7, 59, 33
1, 33604, Note_on_c, 8, 49, 74
1, 33604, Note_on_c, 9, 36, 100
1, 33604, Note_on_c, 10, 68, 86
1, 33604, Note_on_c, 11, 56, 80
1, 33604, Note_on_c, 11, 61, 94
1, 33604, Note_on_c, 11, 64, 96
1, 33604, Note_on_c, 14, 72, 13
1, 33604, Note_on_c, 14, 72, 13
1, 33604, Lyric_t, "I "
1, 33605, Note_on_c, 14, 72, 0
1, 33605, Note_on_c, 14, 72, 0
1, 33605, Note_on_c, 9, 49, 45
1, 33611, Note_on_c, 5, 61, 0
1, 33613, Control_c, 14, 11, 126
1, 33614, Note_on_c, 6, 73, 0
1, 33614, Control_c, 14, 11, 126
1, 33616, Note_on_c, 9, 49, 0
1, 33623, Note_on_c, 12, 44, 0
1, 33627, Note_on_c, 9, 57, 43
1, 33629, Note_on_c, 9, 54, 0
1, 33629, Note_on_c, 5, 63, 0
1, 33635, Note_on_c, 8, 44, 0
1, 33638, Note_on_c, 9, 57, 0
1, 33642, Note_on_c, 9, 36, 0
1, 33642, Note_on_c, 9, 49, 39
1, 33643, Note_on_c, 9, 49, 0
1, 33665, Note_on_c, 9, 57, 0
1, 33669, Note_on_c, 9, 49, 32
1, 33680, Note_on_c, 9, 49, 0
1, 33707, Note_on_c, 9, 49, 0
1, 33954, Note_on_c, 3, 68, 0
1, 33962, Note_on_c, 11, 61, 0
1, 33962, Note_on_c, 11, 64, 0
1, 33962, Note_on_c, 11, 56, 0
1, 33964, Note_on_c, 3, 66, 72
1, 33964, Lyric_t, "could "
1, 33991, Note_on_c, 7, 59, 0
1, 34020, Note_on_c, 7, 64, 0
1, 34084, Note_on_c, 3, 68, 102
1, 34084, Note_on_c, 7, 64, 54
1, 34084, Note_on_c, 7, 61, 55
1, 34084, Note_on_c, 9, 42, 100
1, 34084, Note_on_c, 11, 56, 63
1, 34084, Note_on_c, 11, 61, 95
1, 34084, Note_on_c, 11, 64, 95
1, 34084, Note_on_c, 14, 56, 83
1, 34084, Lyric_t, "paint "
1, 34086, Note_on_c, 3, 66, 0
1, 34122, Note_on_c, 9, 42, 0
1, 34172, Note_on_c, 10, 56, 0
1, 34182, Note_on_c, 10, 61, 0
1, 34192, Note_on_c, 10, 64, 0
1, 34202, Note_on_c, 10, 68, 0
1, 34295, Note_on_c, 11, 56, 0
1, 34321, Note_on_c, 14, 56, 0
1, 34324, Note_on_c, 7, 56, 52
1, 34324, Note_on_c, 11, 56, 74
1, 34324, Note_on_c, 14, 56, 91
1, 34372, Note_on_c, 7, 61, 0
1, 34407, Note_on_c, 7, 64, 0
1, 34410, Note_on_c, 3, 68, 0
1, 34444, Note_on_c, 3, 68, 93
1, 34444, Lyric_t, "a "
1, 34490, Note_on_c, 3, 68, 0
1, 34502, Note_on_c, 11, 61, 0
1, 34502, Note_on_c, 11, 64, 0
1, 34526, Note_on_c, 11, 56, 0
1, 34552, Note_on_c, 8, 49, 0
1, 34554, Note_on_c, 1, 37, 0
1, 34561, Note_on_c, 14, 56, 0
1, 34564, Note_on_c, 1, 35, 82
1, 34564, Note_on_c, 3, 68, 114
1, 34564, Note_on_c, 5, 59, 62
1, 34564, Note_on_c, 5, 63, 70
1, 34564, Note_on_c, 5, 47, 76
1, 34564, Note_on_c, 7, 59, 54
1, 34564, Note_on_c, 7, 63, 61
1, 34564, Note_on_c, 8, 47, 74
1, 34564, Note_on_c, 11, 56, 84
1, 34564, Note_on_c, 11, 59, 84
1, 34564, Note_on_c, 11, 63, 90
1, 34564, Note_on_c, 14, 56, 96
1, 34564, Lyric_t, "pic"
1, 34578, Note_on_c, 5, 49, 0
1, 34579, Note_on_c, 7, 56, 0
1, 34605, Note_on_c, 5, 64, 0
1, 34605, Note_on_c, 7, 49, 0
1, 34615, Note_on_c, 5, 61, 0
1, 34803, Note_on_c, 3, 68, 0
1, 34804, Note_on_c, 3, 66, 93
1, 34804, Note_on_c, 7, 56, 35
1, 34804, Lyric_t, "ture "
1, 34804, Lyric_t, "\015"
1, 34922, Note_on_c, 11, 59, 0
1, 34922, Note_on_c, 11, 63, 0
1, 34931, Note_on_c, 7, 63, 0
1, 34952, Note_on_c, 7, 59, 0
1, 34982, Note_on_c, 11, 56, 0
1, 35044, Note_on_c, 3, 66, 0
1, 35044, Note_on_c, 3, 64, 105
1, 35044, Note_on_c, 7, 59, 61
1, 35044, Note_on_c, 7, 63, 74
1, 35044, Note_on_c, 9, 42, 100
1, 35044, Note_on_c, 11, 56, 81
1, 35044, Note_on_c, 11, 59, 82
1, 35044, Note_on_c, 11, 63, 87
1, 35044, Note_on_c, 14, 54, 96
1, 35044, Lyric_t, "of "
1, 35056, Note_on_c, 14, 56, 0
1, 35062, Note_on_c, 7, 56, 0
1, 35082, Note_on_c, 9, 42, 0
1, 35222, Note_on_c, 11, 56, 0
1, 35234, Note_on_c, 14, 54, 0
1, 35284, Note_on_c, 7, 56, 42
1, 35284, Note_on_c, 11, 56, 74
1, 35284, Note_on_c, 14, 56, 93
1, 35402, Note_on_c, 11, 63, 0
1, 35404, Note_on_c, 3, 66, 84
1, 35404, Lyric_t, "this "
1, 35411, Note_on_c, 11, 59, 0
1, 35421, Note_on_c, 3, 64, 0
1, 35447, Note_on_c, 7, 63, 0
1, 35455, Note_on_c, 7, 56, 0
1, 35464, Note_on_c, 10, 56, 60
1, 35471, Note_on_c, 7, 59, 0
1, 35484, Note_on_c, 10, 61, 69
1, 35504, Note_on_c, 10, 64, 72
1, 35517, Note_on_c, 11, 56, 0
1, 35520, Note_on_c, 3, 66, 0
1, 35524, Note_on_c, 1, 37, 84
1, 35524, Note_on_c, 3, 68, 102
1, 35524, Note_on_c, 5, 64, 72
1, 35524, Note_on_c, 5, 49, 78
1, 35524, Note_on_c, 5, 61, 66
1, 35524, Note_on_c, 7, 64, 72
1, 35524, Note_on_c, 7, 61, 72
1, 35524, Note_on_c, 8, 49, 82
1, 35524, Note_on_c, 9, 36, 100
1, 35524, Note_on_c, 10, 68, 84
1, 35524, Note_on_c, 11, 56, 90
1, 35524, Note_on_c, 11, 61, 100
1, 35524, Note_on_c, 11, 64, 90
1, 35524, Lyric_t, "mel"
1, 35531, Note_on_c, 14, 56, 0
1, 35542, Note_on_c, 1, 35, 0
1, 35562, Note_on_c, 9, 36, 0
1, 35562, Note_on_c, 8, 47, 0
1, 35575, Note_on_c, 5, 63, 0
1, 35582, Note_on_c, 5, 47, 0
1, 35593, Note_on_c, 5, 59, 0
1, 35644, Note_on_c, 3, 69, 90
1, 35644, Lyric_t, "o"
1, 35652, Note_on_c, 3, 68, 0
1, 35762, Note_on_c, 3, 69, 0
1, 35764, Note_on_c, 3, 68, 93
1, 35764, Note_on_c, 7, 56, 46
1, 35764, Lyric_t, "dy "
1, 35764, Lyric_t, "\015"
1, 35942, Note_on_c, 11, 56, 0
1, 35944, Note_on_c, 7, 61, 0
1, 35960, Note_on_c, 7, 64, 0
1, 35991, Note_on_c, 14, 63, 96
1, 35994, Pitch_bend_c, 14, 8896
1, 35996, Note_on_c, 11, 64, 0
1, 36000, Note_on_c, 11, 61, 0
1, 36004, Note_on_c, 7, 61, 80
1, 36004, Note_on_c, 7, 64, 74
1, 36004, Note_on_c, 9, 42, 100
1, 36004, Note_on_c, 11, 61, 91
1, 36004, Note_on_c, 11, 56, 91
1, 36004, Note_on_c, 11, 64, 96
1, 36040, Note_on_c, 7, 56, 0
1, 36042, Note_on_c, 9, 42, 0
1, 36048, Pitch_bend_c, 14, 10328
1, 36060, Pitch_bend_c, 14, 10256
1, 36087, Pitch_bend_c, 14, 10280
1, 36093, Note_on_c, 10, 56, 0
1, 36094, Pitch_bend_c, 14, 10304
1, 36104, Note_on_c, 10, 61, 0
1, 36113, Note_on_c, 10, 64, 0
1, 36122, Note_on_c, 10, 68, 0
1, 36122, Pitch_bend_c, 14, 8904
1, 36169, Pitch_bend_c, 14, 8872
1, 36200, Note_on_c, 11, 56, 0
1, 36222, Note_on_c, 14, 63, 0
1, 36243, Note_on_c, 14, 60, 96
1, 36243, Pitch_bend_c, 14, 8192
1, 36244, Note_on_c, 11, 56, 91
1, 36246, Pitch_bend_c, 14, 8864
1, 36333, Pitch_bend_c, 14, 8888
1, 36346, Pitch_bend_c, 14, 8824
1, 36362, Note_on_c, 11, 61, 0
1, 36362, Note_on_c, 11, 64, 0
1, 36365, Note_on_c, 14, 60, 0
1, 36424, Note_on_c, 10, 56, 68
1, 36440, Note_on_c, 11, 56, 0
1, 36444, Note_on_c, 10, 59, 72
1, 36464, Note_on_c, 10, 63, 66
1, 36467, Note_on_c, 7, 64, 0
1, 36484, Note_on_c, 1, 35, 82
1, 36484, Note_on_c, 5, 63, 72
1, 36484, Note_on_c, 5, 47, 70
1, 36484, Note_on_c, 5, 59, 74
1, 36484, Note_on_c, 7, 59, 76
1, 36484, Note_on_c, 7, 63, 78
1, 36484, Note_on_c, 8, 47, 74
1, 36484, Note_on_c, 10, 68, 82
1, 36484, Note_on_c, 11, 56, 75
1, 36484, Note_on_c, 11, 63, 91
1, 36484, Note_on_c, 11, 59, 99
1, 36485, Pitch_bend_c, 14, 8192
1, 36491, Note_on_c, 7, 61, 0
1, 36493, Note_on_c, 3, 68, 0
1, 36498, Note_on_c, 1, 37, 0
1, 36506, Note_on_c, 8, 49, 0
1, 36515, Note_on_c, 5, 49, 0
1, 36525, Note_on_c, 5, 61, 0
1, 36526, Note_on_c, 5, 64, 0
1, 36704, Note_on_c, 11, 56, 0
1, 36724, Note_on_c, 11, 56, 84
1, 36909, Note_on_c, 7, 59, 0
1, 36919, Note_on_c, 11, 56, 0
1, 36949, Note_on_c, 11, 59, 0
1, 36956, Note_on_c, 11, 63, 0
1, 36964, Note_on_c, 3, 73, 111
1, 36964, Note_on_c, 7, 59, 76
1, 36964, Note_on_c, 9, 42, 100
1, 36964, Note_on_c, 11, 56, 75
1, 36964, Note_on_c, 11, 59, 82
1, 36964, Note_on_c, 11, 63, 91
1, 36964, Lyric_t, "it "
1, 37002, Note_on_c, 9, 42, 0
1, 37052, Note_on_c, 10, 56, 0
1, 37062, Note_on_c, 10, 59, 0
1, 37072, Note_on_c, 10, 63, 0
1, 37082, Note_on_c, 10, 68, 0
1, 37169, Note_on_c, 1, 35, 0
1, 37192, Note_on_c, 11, 56, 0
1, 37204, Note_on_c, 1, 35, 58
1, 37204, Note_on_c, 3, 75, 82
1, 37204, Note_on_c, 7, 56, 40
1, 37204, Note_on_c, 11, 56, 80
1, 37204, Lyric_t, "would "
1, 37220, Note_on_c, 3, 73, 0
1, 37330, Note_on_c, 11, 56, 0
1, 37352, Note_on_c, 3, 75, 0
1, 37360, Note_on_c, 7, 59, 0
1, 37377, Note_on_c, 7, 63, 0
1, 37382, Note_on_c, 11, 63, 0
1, 37382, Note_on_c, 11, 59, 0
1, 37384, Note_on_c, 1, 35, 0
1, 37384, Note_on_c, 10, 57, 75
1, 37386, Note_on_c, 7, 56, 0
1, 37404, Note_on_c, 10, 61, 77
1, 37423, Note_on_c, 10, 64, 77
1, 37444, Note_on_c, 8, 47, 0
1, 37444, Note_on_c, 1, 33, 90
1, 37444, Note_on_c, 2, 59, 58
1, 37444, Note_on_c, 3, 76, 105
1, 37444, Note_on_c, 5, 61, 68
1, 37444, Note_on_c, 5, 57, 50
1, 37444, Note_on_c, 5, 45, 84
1, 37444, Note_on_c, 7, 59, 70
1, 37444, Note_on_c, 7, 64, 82
1, 37444, Note_on_c, 7, 45, 72
1, 37444, Note_on_c, 8, 45, 78
1, 37444, Note_on_c, 9, 36, 100
1, 37444, Note_on_c, 10, 69, 89
1, 37444, Note_on_c, 11, 64, 93
1, 37444, Note_on_c, 11, 59, 92
1, 37444, Note_on_c, 14, 59, 83
1, 37444, Lyric_t, "be "
1, 37464, Note_on_c, 5, 47, 0
1, 37471, Note_on_c, 5, 59, 0
1, 37482, Note_on_c, 9, 36, 0
1, 37482, Note_on_c, 5, 63, 0
1, 37638, Note_on_c, 14, 59, 0
1, 37671, Note_on_c, 2, 59, 0
1, 37675, Note_on_c, 3, 76, 0
1, 37684, Note_on_c, 3, 75, 108
1, 37684, Note_on_c, 11, 57, 65
1, 37684, Note_on_c, 14, 57, 70
1, 37684, Lyric_t, "a "
1, 37845, Note_on_c, 11, 59, 0
1, 37848, Note_on_c, 11, 64, 0
1, 37891, Note_on_c, 14, 57, 0
1, 37922, Note_on_c, 11, 57, 0
1, 37924, Note_on_c, 2, 59, 55
1, 37924, Note_on_c, 3, 73, 99
1, 37924, Note_on_c, 9, 42, 100
1, 37924, Note_on_c, 11, 64, 96
1, 37924, Note_on_c, 11, 59, 96
1, 37924, Note_on_c, 14, 59, 77
1, 37924, Lyric_t, "vi"
1, 37940, Note_on_c, 3, 75, 0
1, 37962, Note_on_c, 9, 42, 0
1, 38044, Note_on_c, 3, 71, 70
1, 38062, Note_on_c, 3, 73, 0
1, 38104, Note_on_c, 14, 59, 0
1, 38146, Note_on_c, 3, 71, 0
1, 38164, Note_on_c, 3, 73, 87
1, 38164, Note_on_c, 11, 57, 69
1, 38164, Note_on_c, 14, 57, 72
1, 38164, Lyric_t, "o"
1, 38176, Note_on_c, 2, 59, 0
1, 38296, Note_on_c, 11, 59, 0
1, 38330, Note_on_c, 11, 64, 0
1, 38347, Note_on_c, 3, 73, 0
1, 38354, Note_on_c, 7, 45, 0
1, 38383, Note_on_c, 7, 59, 0
1, 38384, Note_on_c, 14, 57, 0
1, 38402, Note_on_c, 11, 57, 0
1, 38404, Note_on_c, 2, 59, 64
1, 38404, Note_on_c, 3, 73, 108
1, 38404, Note_on_c, 7, 45, 66
1, 38404, Note_on_c, 7, 59, 49
1, 38404, Note_on_c, 11, 64, 96
1, 38404, Note_on_c, 11, 59, 96
1, 38404, Note_on_c, 14, 59, 73
1, 38404, Lyric_t, "lin "
1, 38404, Lyric_t, "\015"
1, 38624, Note_on_c, 14, 59, 0
1, 38644, Note_on_c, 2, 57, 64
1, 38644, Note_on_c, 11, 57, 64
1, 38644, Note_on_c, 14, 57, 77
1, 38673, Note_on_c, 3, 73, 0
1, 38677, Note_on_c, 2, 59, 0
1, 38723, Note_on_c, 10, 69, 0
1, 38759, Note_on_c, 10, 64, 0
1, 38764, Note_on_c, 3, 71, 102
1, 38764, Lyric_t, "with"
1, 38776, Note_on_c, 11, 59, 0
1, 38799, Note_on_c, 10, 61, 0
1, 38814, Note_on_c, 10, 57, 0
1, 38831, Note_on_c, 14, 57, 0
1, 38835, Note_on_c, 11, 64, 0
1, 38882, Note_on_c, 11, 57, 0
1, 38882, Note_on_c, 7, 59, 0
1, 38884, Note_on_c, 2, 59, 68
1, 38884, Note_on_c, 3, 68, 102
1, 38884, Note_on_c, 7, 59, 36
1, 38884, Note_on_c, 9, 42, 100
1, 38884, Note_on_c, 11, 64, 88
1, 38884, Note_on_c, 11, 59, 96
1, 38884, Lyric_t, "out "
1, 38889, Note_on_c, 14, 59, 91
1, 38895, Note_on_c, 3, 71, 0
1, 38914, Note_on_c, 2, 57, 0
1, 38922, Note_on_c, 9, 42, 0
1, 39096, Note_on_c, 14, 59, 0
1, 39098, Note_on_c, 3, 68, 0
1, 39120, Note_on_c, 2, 59, 0
1, 39124, Note_on_c, 3, 71, 93
1, 39124, Note_on_c, 11, 57, 75
1, 39124, Note_on_c, 14, 57, 89
1, 39124, Lyric_t, "its "
1, 39125, Note_on_c, 7, 45, 0
1, 39217, Note_on_c, 7, 59, 0
1, 39239, Note_on_c, 14, 57, 0
1, 39283, Note_on_c, 11, 57, 0
1, 39284, Note_on_c, 10, 51, 62
1, 39304, Note_on_c, 10, 56, 71
1, 39309, Note_on_c, 11, 59, 0
1, 39314, Note_on_c, 3, 71, 0
1, 39314, Note_on_c, 11, 64, 0
1, 39324, Note_on_c, 10, 60, 64
1, 39344, Note_on_c, 10, 63, 71
1, 39364, Note_on_c, 0, 56, 64
1, 39364, Note_on_c, 0, 44, 74
1, 39364, Note_on_c, 1, 32, 82
1, 39364, Note_on_c, 2, 44, 66
1, 39364, Note_on_c, 5, 44, 82
1, 39364, Note_on_c, 5, 60, 68
1, 39364, Note_on_c, 5, 56, 51
1, 39364, Note_on_c, 7, 44, 59
1, 39364, Note_on_c, 7, 63, 64
1, 39364, Note_on_c, 7, 60, 45
1, 39364, Note_on_c, 8, 44, 80
1, 39364, Note_on_c, 9, 36, 100
1, 39364, Note_on_c, 10, 68, 86
1, 39364, Note_on_c, 11, 56, 73
1, 39364, Note_on_c, 11, 60, 105
1, 39364, Note_on_c, 11, 63, 100
1, 39364, Note_on_c, 14, 60, 89
1, 39369, Note_on_c, 5, 57, 0
1, 39383, Note_on_c, 8, 45, 0
1, 39383, Note_on_c, 5, 45, 0
1, 39397, Note_on_c, 1, 33, 0
1, 39402, Note_on_c, 9, 36, 0
1, 39413, Note_on_c, 5, 61, 0
1, 39422, Pitch_bend_c, 3, 6712
1, 39425, Note_on_c, 7, 64, 0
1, 39432, Pitch_bend_c, 3, 6095
1, 39441, Pitch_bend_c, 3, 4541
1, 39450, Pitch_bend_c, 3, 3752
1, 39459, Pitch_bend_c, 3, 2740
1, 39468, Pitch_bend_c, 3, 1926
1, 39478, Pitch_bend_c, 3, 1309
1, 39487, Pitch_bend_c, 3, 1038
1, 39496, Pitch_bend_c, 3, 594
1, 39506, Pitch_bend_c, 3, 298
1, 39515, Pitch_bend_c, 3, 125
1, 39525, Pitch_bend_c, 3, 1
1, 39533, Pitch_bend_c, 3, 0
1, 39555, Note_on_c, 0, 44, 0
1, 39559, Note_on_c, 0, 56, 0
1, 39580, Pitch_bend_c, 3, 100
1, 39589, Pitch_bend_c, 3, 224
1, 39599, Pitch_bend_c, 3, 495
1, 39602, Note_on_c, 14, 60, 0
1, 39604, Note_on_c, 3, 68, 102
1, 39604, Note_on_c, 11, 51, 65
1, 39604, Note_on_c, 14, 51, 61
1, 39604, Lyric_t, "strings. "
1, 39604, Lyric_t, "\015"
1, 39608, Pitch_bend_c, 3, 890
1, 39617, Pitch_bend_c, 3, 1186
1, 39626, Pitch_bend_c, 3, 1383
1, 39635, Pitch_bend_c, 3, 1580
1, 39637, Note_on_c, 7, 60, 0
1, 39645, Pitch_bend_c, 3, 1778
1, 39649, Note_on_c, 7, 63, 0
1, 39654, Pitch_bend_c, 3, 2123
1, 39664, Pitch_bend_c, 3, 2592
1, 39672, Pitch_bend_c, 3, 2913
1, 39675, Note_on_c, 2, 44, 0
1, 39682, Pitch_bend_c, 3, 3406
1, 39692, Pitch_bend_c, 3, 3826
1, 39701, Pitch_bend_c, 3, 4072
1, 39710, Pitch_bend_c, 3, 4220
1, 39711, Control_c, 8, 11, 127
1, 39719, Pitch_bend_c, 3, 4492
1, 39722, Note_on_c, 14, 51, 0
1, 39729, Pitch_bend_c, 3, 4886
1, 39738, Pitch_bend_c, 3, 5232
1, 39740, Control_c, 8, 11, 126
1, 39747, Pitch_bend_c, 3, 5429
1, 39756, Pitch_bend_c, 3, 5775
1, 39764, Control_c, 8, 11, 125
1, 39766, Pitch_bend_c, 3, 5923
1, 39775, Pitch_bend_c, 3, 6169
1, 39785, Pitch_bend_c, 3, 6416
1, 39789, Control_c, 8, 11, 124
1, 39793, Pitch_bend_c, 3, 6688
1, 39803, Pitch_bend_c, 3, 7033
1, 39805, Note_on_c, 7, 44, 0
1, 39812, Pitch_bend_c, 3, 7280
1, 39813, Control_c, 8, 11, 123
1, 39817, Note_on_c, 14, 52, 84
1, 39822, Pitch_bend_c, 3, 7674
1, 39824, Note_on_c, 14, 61, 96
1, 39827, Note_on_c, 11, 56, 0
1, 39831, Pitch_bend_c, 3, 8118
1, 39835, Note_on_c, 11, 63, 0
1, 39836, Pitch_bend_c, 14, 8192
1, 39837, Control_c, 8, 11, 122
1, 39840, Pitch_bend_c, 3, 8192
1, 39842, Note_on_c, 11, 51, 0
1, 39842, Note_on_c, 11, 60, 0
1, 39844, Note_on_c, 0, 66, 108
1, 39844, Note_on_c, 0, 54, 76
1, 39844, Note_on_c, 5, 63, 57
1, 39844, Note_on_c, 7, 63, 74
1, 39844, Note_on_c, 7, 66, 78
1, 39844, Note_on_c, 9, 42, 100
1, 39844, Note_on_c, 11, 52, 101
1, 39844, Note_on_c, 11, 61, 101
1, 39844, Note_on_c, 11, 56, 104
1, 39855, Pitch_bend_c, 14, 8232
1, 39860, Control_c, 11, 11, 102
1, 39862, Control_c, 8, 11, 121
1, 39868, Pitch_bend_c, 14, 8192
1, 39879, Note_on_c, 14, 52, 0
1, 39880, Note_on_c, 14, 61, 0
1, 39881, Note_on_c, 14, 53, 84
1, 39882, Note_on_c, 9, 42, 0
1, 39882, Note_on_c, 14, 62, 94
1, 39886, Control_c, 8, 11, 120
1, 39887, Control_c, 11, 11, 103
1, 39900, Note_on_c, 14, 62, 0
1, 39902, Note_on_c, 14, 63, 95
1, 39907, Note_on_c, 14, 53, 0
1, 39909, Note_on_c, 0, 54, 0
1, 39909, Note_on_c, 14, 54, 84
1, 39911, Control_c, 8, 11, 119
1, 39915, Control_c, 11, 11, 104
1, 39924, Note_on_c, 0, 66, 0
1, 39925, Note_on_c, 5, 60, 0
1, 39928, Control_c, 11, 11, 105
1, 39935, Control_c, 8, 11, 118
1, 39956, Control_c, 11, 11, 106
1, 39960, Control_c, 8, 11, 117
1, 39983, Note_on_c, 7, 63, 0
1, 39983, Control_c, 11, 11, 107
1, 39984, Control_c, 8, 11, 116
1, 39997, Control_c, 11, 11, 108
1, 40008, Control_c, 8, 11, 115
1, 40015, Note_on_c, 7, 66, 0
1, 40016, Note_on_c, 14, 54, 0
1, 40016, Note_on_c, 14, 63, 0
1, 40024, Control_c, 11, 11, 109
1, 40028, Note_on_c, 11, 52, 0
1, 40033, Control_c, 8, 11, 114
1, 40038, Control_c, 11, 11, 110
1, 40057, Control_c, 8, 11, 113
1, 40064, Note_on_c, 14, 52, 81
1, 40065, Note_on_c, 14, 61, 92
1, 40066, Control_c, 11, 11, 111
1, 40073, Note_on_c, 5, 63, 0
1, 40081, Pitch_bend_c, 14, 8144
1, 40082, Control_c, 8, 11, 112
1, 40082, Pitch_bend_c, 14, 8192
1, 40084, Note_on_c, 0, 64, 90
1, 40084, Note_on_c, 0, 52, 80
1, 40084, Note_on_c, 5, 61, 62
1, 40084, Note_on_c, 7, 64, 64
1, 40084, Note_on_c, 7, 61, 76
1, 40084, Note_on_c, 11, 52, 101
1, 40093, Control_c, 11, 11, 112
1, 40107, Control_c, 11, 11, 113
1, 40110, Control_c, 8, 11, 111
1, 40134, Control_c, 8, 11, 110
1, 40134, Control_c, 11, 11, 114
1, 40159, Note_on_c, 0, 52, 0
1, 40159, Control_c, 8, 11, 109
1, 40162, Control_c, 11, 11, 115
1, 40165, Note_on_c, 0, 64, 0
1, 40166, Note_on_c, 14, 61, 0
1, 40166, Note_on_c, 14, 52, 0
1, 40175, Control_c, 11, 11, 116
1, 40183, Control_c, 8, 11, 108
1, 40203, Control_c, 11, 11, 117
1, 40208, Control_c, 8, 11, 107
1, 40216, Control_c, 11, 11, 118
1, 40230, Note_on_c, 7, 61, 0
1, 40230, Control_c, 11, 11, 119
1, 40232, Control_c, 8, 11, 106
1, 40244, Control_c, 11, 11, 120
1, 40256, Control_c, 8, 11, 105
1, 40258, Control_c, 11, 11, 121
1, 40271, Control_c, 11, 11, 122
1, 40281, Control_c, 8, 11, 104
1, 40285, Control_c, 11, 11, 123
1, 40299, Control_c, 11, 11, 124
1, 40305, Control_c, 8, 11, 103
1, 40307, Pitch_bend_c, 14, 9024
1, 40309, Note_on_c, 11, 56, 0
1, 40310, Pitch_bend_c, 14, 8192
1, 40311, Note_on_c, 7, 64, 0
1, 40312, Control_c, 11, 11, 125
1, 40322, Note_on_c, 11, 52, 0
1, 40322, Note_on_c, 11, 61, 0
1, 40324, Note_on_c, 0, 63, 87
1, 40324, Note_on_c, 0, 51, 84
1, 40324, Note_on_c, 5, 60, 66
1, 40324, Note_on_c, 7, 63, 82
1, 40324, Note_on_c, 7, 60, 72
1, 40324, Note_on_c, 11, 68, 67
1, 40324, Note_on_c, 11, 56, 67
1, 40324, Note_on_c, 11, 60, 73
1, 40324, Note_on_c, 11, 63, 73
1, 40324, Note_on_c, 11, 51, 81
1, 40324, Note_on_c, 14, 60, 96
1, 40324, Note_on_c, 14, 51, 82
1, 40326, Control_c, 11, 11, 126
1, 40330, Control_c, 8, 11, 102
1, 40350, Note_on_c, 5, 61, 0
1, 40354, Control_c, 8, 11, 101
1, 40354, Control_c, 11, 11, 125
1, 40378, Control_c, 8, 11, 100
1, 40381, Control_c, 11, 11, 124
1, 40403, Control_c, 8, 11, 99
1, 40407, Control_c, 5, 11, 125
1, 40408, Control_c, 11, 11, 123
1, 40427, Control_c, 5, 11, 124
1, 40427, Control_c, 8, 11, 98
1, 40436, Control_c, 11, 11, 122
1, 40444, Control_c, 5, 11, 123
1, 40452, Control_c, 8, 11, 97
1, 40463, Control_c, 11, 11, 121
1, 40464, Control_c, 5, 11, 122
1, 40480, Control_c, 5, 11, 121
1, 40480, Control_c, 8, 11, 96
1, 40491, Control_c, 11, 11, 120
1, 40501, Control_c, 5, 11, 120
1, 40505, Control_c, 8, 11, 95
1, 40517, Control_c, 5, 11, 119
1, 40518, Control_c, 11, 11, 119
1, 40529, Control_c, 8, 11, 94
1, 40532, Control_c, 11, 11, 118
1, 40537, Control_c, 5, 11, 118
1, 40553, Control_c, 5, 11, 117
1, 40553, Control_c, 8, 11, 93
1, 40559, Note_on_c, 0, 51, 0
1, 40559, Control_c, 11, 11, 117
1, 40574, Control_c, 5, 11, 116
1, 40576, Note_on_c, 0, 63, 0
1, 40578, Control_c, 8, 11, 92
1, 40587, Control_c, 11, 11, 116
1, 40590, Control_c, 5, 11, 115
1, 40602, Control_c, 8, 11, 91
1, 40610, Control_c, 5, 11, 114
1, 40614, Control_c, 11, 11, 115
1, 40627, Control_c, 5, 11, 113
1, 40627, Control_c, 8, 11, 90
1, 40642, Control_c, 11, 11, 114
1, 40647, Control_c, 5, 11, 112
1, 40651, Control_c, 8, 11, 89
1, 40659, Note_on_c, 3, 68, 0
1, 40663, Control_c, 5, 11, 111
1, 40669, Control_c, 11, 11, 113
1, 40675, Control_c, 8, 11, 88
1, 40684, Control_c, 5, 11, 110
1, 40696, Control_c, 11, 11, 112
1, 40700, Control_c, 5, 11, 109
1, 40700, Control_c, 8, 11, 87
1, 40712, Note_on_c, 10, 68, 0
1, 40720, Control_c, 5, 11, 108
1, 40724, Control_c, 8, 11, 86
1, 40724, Control_c, 11, 11, 111
1, 40736, Control_c, 5, 11, 107
1, 40738, Control_c, 11, 11, 110
1, 40745, Note_on_c, 10, 63, 0
1, 40749, Control_c, 8, 11, 85
1, 40757, Control_c, 5, 11, 106
1, 40765, Control_c, 11, 11, 109
1, 40767, Note_on_c, 10, 56, 0
1, 40773, Control_c, 5, 11, 105
1, 40773, Control_c, 8, 11, 84
1, 40776, Note_on_c, 10, 60, 0
1, 40792, Control_c, 11, 11, 108
1, 40793, Note_on_c, 10, 51, 0
1, 40793, Control_c, 5, 11, 104
1, 40797, Control_c, 8, 11, 83
1, 40800, Note_on_c, 11, 68, 0
1, 40804, Note_on_c, 9, 42, 100
1, 40804, Note_on_c, 11, 68, 67
1, 40810, Control_c, 5, 11, 103
1, 40820, Control_c, 11, 11, 107
1, 40822, Control_c, 8, 11, 82
1, 40827, Note_on_c, 14, 60, 0
1, 40830, Control_c, 5, 11, 102
1, 40842, Note_on_c, 9, 42, 0
1, 40846, Control_c, 5, 11, 101
1, 40847, Control_c, 11, 11, 106
1, 40850, Control_c, 8, 11, 81
1, 40854, Note_on_c, 14, 51, 0
1, 40867, Control_c, 5, 11, 100
1, 40875, Control_c, 8, 11, 80
1, 40875, Control_c, 11, 11, 105
1, 40883, Control_c, 5, 11, 99
1, 40899, Control_c, 8, 11, 79
1, 40902, Control_c, 11, 11, 104
1, 40903, Control_c, 5, 11, 98
1, 40920, Control_c, 5, 11, 97
1, 40924, Control_c, 8, 11, 78
1, 40930, Control_c, 11, 11, 103
1, 40940, Control_c, 5, 11, 96
1, 40943, Control_c, 11, 11, 102
1, 40948, Control_c, 8, 11, 77
1, 40956, Control_c, 5, 11, 95
1, 40971, Control_c, 11, 11, 101
1, 40972, Control_c, 8, 11, 76
1, 40976, Control_c, 5, 11, 94
1, 40993, Control_c, 5, 11, 93
1, 40997, Control_c, 8, 11, 75
1, 40998, Control_c, 11, 11, 100
1, 41013, Control_c, 5, 11, 92
1, 41021, Control_c, 8, 11, 74
1, 41026, Control_c, 11, 11, 99
1, 41029, Control_c, 5, 11, 91
1, 41042, Note_on_c, 11, 68, 0
1, 41044, Note_on_c, 3, 73, 105
1, 41044, Lyric_t, "And "
1, 41046, Control_c, 8, 11, 73
1, 41050, Control_c, 5, 11, 90
1, 41053, Control_c, 11, 11, 98
1, 41066, Control_c, 5, 11, 89
1, 41070, Control_c, 8, 11, 72
1, 41080, Control_c, 11, 11, 97
1, 41086, Control_c, 5, 11, 88
1, 41094, Control_c, 8, 11, 71
1, 41103, Control_c, 5, 11, 87
1, 41108, Control_c, 11, 11, 96
1, 41119, Control_c, 8, 11, 70
1, 41123, Control_c, 5, 11, 86
1, 41135, Control_c, 11, 11, 95
1, 41139, Control_c, 5, 11, 85
1, 41143, Control_c, 8, 11, 69
1, 41149, Control_c, 11, 11, 94
1, 41156, Control_c, 11, 11, 73
1, 41160, Control_c, 5, 11, 84
1, 41162, Note_on_c, 11, 60, 0
1, 41162, Note_on_c, 11, 63, 0
1, 41162, Note_on_c, 11, 56, 0
1, 41164, Note_on_c, 3, 75, 99
1, 41164, Lyric_t, "the "
1, 41168, Note_on_c, 7, 60, 0
1, 41168, Note_on_c, 7, 63, 0
1, 41168, Control_c, 8, 11, 68
1, 41169, Control_c, 11, 11, 72
1, 41170, Note_on_c, 3, 73, 0
1, 41176, Control_c, 5, 11, 83
1, 41192, Control_c, 8, 11, 67
1, 41196, Control_c, 5, 11, 82
1, 41212, Control_c, 5, 11, 81
1, 41222, Note_on_c, 11, 51, 0
1, 41223, Note_on_c, 10, 57, 77
1, 41229, Note_on_c, 5, 60, 0
1, 41230, Note_on_c, 1, 32, 0
1, 41233, Control_c, 5, 11, 80
1, 41241, Note_on_c, 3, 75, 0
1, 41244, Note_on_c, 10, 61, 76
1, 41248, Control_c, 8, 11, 67
1, 41249, Control_c, 5, 11, 79
1, 41256, Note_on_c, 5, 44, 0
1, 41264, Note_on_c, 10, 64, 77
1, 41265, Note_on_c, 5, 56, 0
1, 41270, Note_on_c, 8, 44, 0
1, 41272, Control_c, 11, 11, 127
1, 41279, Control_c, 5, 11, 77
1, 41280, Control_c, 8, 11, 68
1, 41284, Note_on_c, 1, 33, 84
1, 41284, Note_on_c, 3, 76, 105
1, 41284, Note_on_c, 5, 59, 74
1, 41284, Note_on_c, 5, 61, 70
1, 41284, Note_on_c, 5, 45, 84
1, 41284, Note_on_c, 7, 64, 62
1, 41284, Note_on_c, 7, 59, 62
1, 41284, Note_on_c, 7, 45, 72
1, 41284, Note_on_c, 8, 45, 66
1, 41284, Note_on_c, 8, 59, 78
1, 41284, Note_on_c, 9, 36, 100
1, 41284, Note_on_c, 10, 69, 77
1, 41284, Note_on_c, 11, 59, 71
1, 41284, Note_on_c, 11, 52, 96
1, 41284, Note_on_c, 14, 59, 62
1, 41284, Lyric_t, "can"
1, 41311, Control_c, 5, 11, 78
1, 41312, Control_c, 8, 11, 69
1, 41322, Note_on_c, 9, 36, 0
1, 41343, Control_c, 5, 11, 79
1, 41344, Control_c, 8, 11, 70
1, 41370, Control_c, 8, 11, 71
1, 41375, Control_c, 5, 11, 80
1, 41401, Control_c, 5, 11, 81
1, 41402, Control_c, 8, 11, 72
1, 41433, Control_c, 5, 11, 82
1, 41434, Control_c, 8, 11, 73
1, 41460, Control_c, 8, 11, 74
1, 41465, Control_c, 5, 11, 83
1, 41467, Control_c, 7, 64, 127
1, 41492, Control_c, 8, 11, 75
1, 41497, Control_c, 5, 11, 84
1, 41522, Note_on_c, 14, 59, 0
1, 41522, Note_on_c, 11, 59, 0
1, 41522, Control_c, 5, 11, 85
1, 41524, Note_on_c, 3, 75, 96
1, 41524, Note_on_c, 7, 57, 40
1, 41524, Control_c, 8, 11, 76
1, 41524, Note_on_c, 11, 57, 76
1, 41524, Note_on_c, 14, 57, 62
1, 41524, Lyric_t, "vas "
1, 41529, Note_on_c, 3, 76, 0
1, 41549, Control_c, 8, 11, 77
1, 41554, Control_c, 5, 11, 86
1, 41581, Control_c, 8, 11, 78
1, 41586, Control_c, 5, 11, 87
1, 41613, Control_c, 8, 11, 79
1, 41618, Control_c, 5, 11, 88
1, 41639, Control_c, 8, 11, 80
1, 41642, Note_on_c, 3, 75, 0
1, 41642, Note_on_c, 11, 52, 0
1, 41644, Note_on_c, 3, 73, 105
1, 41644, Control_c, 5, 11, 89
1, 41644, Lyric_t, "in "
1, 41671, Control_c, 8, 11, 81
1, 41676, Control_c, 5, 11, 90
1, 41682, Note_on_c, 11, 57, 0
1, 41701, Note_on_c, 7, 59, 0
1, 41703, Control_c, 8, 11, 82
1, 41707, Note_on_c, 7, 57, 0
1, 41708, Control_c, 5, 11, 91
1, 41709, Note_on_c, 7, 64, 0
1, 41728, Control_c, 8, 11, 83
1, 41740, Control_c, 5, 11, 92
1, 41760, Control_c, 8, 11, 84
1, 41762, Note_on_c, 14, 57, 0
1, 41764, Note_on_c, 7, 64, 37
1, 41764, Note_on_c, 7, 59, 44
1, 41764, Note_on_c, 7, 52, 38
1, 41764, Note_on_c, 9, 42, 100
1, 41764, Note_on_c, 11, 57, 75
1, 41764, Note_on_c, 11, 64, 86
1, 41764, Note_on_c, 14, 59, 62
1, 41766, Control_c, 5, 11, 93
1, 41792, Control_c, 8, 11, 85
1, 41798, Control_c, 5, 11, 94
1, 41802, Note_on_c, 9, 42, 0
1, 41818, Control_c, 8, 11, 86
1, 41830, Control_c, 5, 11, 95
1, 41850, Control_c, 8, 11, 87
1, 41862, Control_c, 5, 11, 96
1, 41873, Note_on_c, 3, 73, 0
1, 41873, Note_on_c, 10, 57, 0
1, 41880, Note_on_c, 10, 61, 0
1, 41880, Note_on_c, 10, 69, 0
1, 41882, Control_c, 8, 11, 88
1, 41884, Note_on_c, 3, 71, 99
1, 41884, Lyric_t, "my "
1, 41887, Control_c, 5, 11, 97
1, 41900, Note_on_c, 10, 64, 0
1, 41914, Control_c, 8, 11, 89
1, 41919, Control_c, 5, 11, 98
1, 41940, Control_c, 8, 11, 90
1, 41951, Control_c, 5, 11, 99
1, 41972, Control_c, 8, 11, 91
1, 41980, Note_on_c, 7, 45, 0
1, 41980, Note_on_c, 7, 52, 0
1, 41982, Note_on_c, 7, 59, 0
1, 41983, Control_c, 5, 11, 100
1, 41994, Note_on_c, 7, 64, 0
1, 42002, Note_on_c, 14, 59, 0
1, 42004, Note_on_c, 7, 57, 45
1, 42004, Control_c, 8, 11, 92
1, 42004, Note_on_c, 11, 61, 96
1, 42004, Note_on_c, 14, 57, 62
1, 42009, Control_c, 5, 11, 101
1, 42029, Control_c, 8, 11, 93
1, 42041, Control_c, 5, 11, 102
1, 42061, Control_c, 8, 11, 94
1, 42073, Control_c, 5, 11, 103
1, 42090, Note_on_c, 11, 57, 0
1, 42093, Control_c, 8, 11, 95
1, 42098, Control_c, 5, 11, 104
1, 42101, Note_on_c, 11, 61, 0
1, 42119, Control_c, 8, 11, 96
1, 42122, Note_on_c, 3, 71, 0
1, 42124, Note_on_c, 5, 61, 0
1, 42124, Note_on_c, 3, 73, 105
1, 42124, Lyric_t, "mind "
1, 42124, Lyric_t, "\015"
1, 42130, Control_c, 5, 11, 105
1, 42136, Note_on_c, 11, 64, 0
1, 42151, Control_c, 8, 11, 97
1, 42162, Control_c, 5, 11, 106
1, 42183, Control_c, 8, 11, 98
1, 42183, Note_on_c, 10, 56, 72
1, 42194, Control_c, 5, 11, 107
1, 42201, Note_on_c, 10, 60, 71
1, 42208, Note_on_c, 8, 59, 0
1, 42208, Control_c, 8, 11, 99
1, 42209, Pitch_bend_c, 14, 8192
1, 42211, Note_on_c, 14, 60, 96
1, 42213, Pitch_bend_c, 14, 8944
1, 42220, Control_c, 5, 11, 108
1, 42224, Note_on_c, 10, 63, 77
1, 42236, Note_on_c, 8, 45, 0
1, 42239, Note_on_c, 7, 57, 0
1, 42239, Control_c, 7, 64, 0
1, 42240, Control_c, 8, 11, 100
1, 42242, Note_on_c, 14, 57, 0
1, 42244, Note_on_c, 5, 59, 0
1, 42244, Note_on_c, 1, 32, 78
1, 42244, Note_on_c, 5, 60, 76
1, 42244, Note_on_c, 5, 54, 74
1, 42244, Note_on_c, 5, 44, 84
1, 42244, Note_on_c, 7, 60, 62
1, 42244, Note_on_c, 7, 44, 90
1, 42244, Note_on_c, 7, 63, 72
1, 42244, Note_on_c, 8, 60, 80
1, 42244, Note_on_c, 8, 44, 66
1, 42244, Note_on_c, 9, 36, 100
1, 42244, Note_on_c, 10, 68, 77
1, 42244, Note_on_c, 11, 56, 86
1, 42244, Note_on_c, 11, 60, 83
1, 42249, Note_on_c, 5, 45, 0
1, 42252, Control_c, 5, 11, 109
1, 42265, Note_on_c, 1, 33, 0
1, 42272, Control_c, 8, 11, 101
1, 42273, Pitch_bend_c, 14, 9608
1, 42282, Note_on_c, 9, 36, 0
1, 42284, Control_c, 5, 11, 110
1, 42286, Pitch_bend_c, 14, 10272
1, 42298, Control_c, 8, 11, 102
1, 42299, Pitch_bend_c, 14, 10304
1, 42316, Control_c, 5, 11, 111
1, 42330, Control_c, 8, 11, 103
1, 42342, Control_c, 5, 11, 112
1, 42362, Control_c, 8, 11, 104
1, 42374, Control_c, 5, 11, 113
1, 42388, Control_c, 8, 11, 105
1, 42406, Control_c, 5, 11, 114
1, 42420, Control_c, 8, 11, 106
1, 42438, Control_c, 5, 11, 115
1, 42452, Control_c, 8, 11, 107
1, 42463, Control_c, 5, 11, 116
1, 42470, Note_on_c, 11, 56, 0
1, 42484, Control_c, 8, 11, 108
1, 42484, Note_on_c, 11, 51, 96
1, 42484, Note_on_c, 11, 56, 75
1, 42495, Control_c, 5, 11, 117
1, 42503, Control_c, 7, 64, 127
1, 42509, Control_c, 8, 11, 109
1, 42527, Control_c, 5, 11, 118
1, 42541, Control_c, 8, 11, 110
1, 42559, Control_c, 5, 11, 119
1, 42573, Control_c, 8, 11, 111
1, 42585, Control_c, 5, 11, 120
1, 42599, Control_c, 8, 11, 112
1, 42617, Control_c, 5, 11, 121
1, 42628, Note_on_c, 3, 73, 0
1, 42631, Control_c, 8, 11, 113
1, 42649, Control_c, 5, 11, 122
1, 42663, Control_c, 8, 11, 114
1, 42675, Note_on_c, 11, 56, 0
1, 42677, Note_on_c, 11, 60, 0
1, 42681, Control_c, 5, 11, 123
1, 42688, Control_c, 8, 11, 115
1, 42706, Control_c, 5, 11, 124
1, 42707, Note_on_c, 14, 60, 0
1, 42720, Control_c, 8, 11, 116
1, 42722, Pitch_bend_c, 14, 8192
1, 42724, Note_on_c, 7, 56, 52
1, 42724, Note_on_c, 9, 42, 100
1, 42724, Note_on_c, 11, 60, 93
1, 42724, Note_on_c, 11, 56, 82
1, 42724, Note_on_c, 14, 60, 84
1, 42727, Note_on_c, 10, 63, 0
1, 42729, Pitch_bend_c, 14, 8240
1, 42738, Control_c, 5, 11, 125
1, 42749, Pitch_bend_c, 14, 8192
1, 42752, Control_c, 8, 11, 117
1, 42762, Note_on_c, 9, 42, 0
1, 42763, Note_on_c, 10, 68, 0
1, 42770, Control_c, 5, 11, 126
1, 42778, Control_c, 8, 11, 118
1, 42783, Note_on_c, 7, 63, 0
1, 42783, Note_on_c, 10, 60, 0
1, 42789, Note_on_c, 10, 56, 0
1, 42796, Control_c, 5, 11, 127
1, 42797, Note_on_c, 7, 60, 0
1, 42810, Control_c, 8, 11, 119
1, 42842, Control_c, 8, 11, 120
1, 42868, Control_c, 8, 11, 121
1, 42900, Control_c, 8, 11, 122
1, 42932, Control_c, 8, 11, 123
1, 42957, Control_c, 8, 11, 124
1, 42959, Note_on_c, 11, 51, 0
1, 42960, Note_on_c, 7, 56, 0
1, 42964, Note_on_c, 3, 73, 108
1, 42964, Note_on_c, 7, 66, 66
1, 42964, Note_on_c, 11, 51, 94
1, 42964, Lyric_t, "sings "
1, 42989, Control_c, 8, 11, 125
1, 43021, Control_c, 8, 11, 126
1, 43028, Note_on_c, 11, 60, 0
1, 43035, Note_on_c, 11, 56, 0
1, 43047, Control_c, 8, 11, 127
1, 43084, Note_on_c, 3, 75, 105
1, 43084, Lyric_t, "the "
1, 43101, Note_on_c, 3, 73, 0
1, 43134, Note_on_c, 11, 51, 0
1, 43140, Note_on_c, 10, 56, 72
1, 43146, Note_on_c, 7, 66, 0
1, 43162, Control_c, 6, 11, 72
1, 43164, Note_on_c, 10, 61, 75
1, 43168, Control_c, 6, 11, 73
1, 43175, Control_c, 6, 11, 75
1, 43181, Control_c, 6, 11, 77
1, 43182, Note_on_c, 5, 54, 0
1, 43184, Note_on_c, 10, 64, 77
1, 43188, Control_c, 6, 11, 78
1, 43194, Control_c, 6, 11, 80
1, 43200, Control_c, 6, 11, 82
1, 43202, Time_signature, 2, 2, 24, 8
1, 43202, Note_on_c, 14, 60, 0
1, 43204, Note_on_c, 1, 37, 87
1, 43204, Note_on_c, 3, 76, 111
1, 43204, Note_on_c, 5, 61, 43
1, 43204, Note_on_c, 5, 56, 66
1, 43204, Note_on_c, 5, 64, 93
1, 43204, Note_on_c, 5, 49, 90
1, 43204, Note_on_c, 6, 76, 70
1, 43204, Note_on_c, 6, 88, 65
1, 43204, Note_on_c, 7, 49, 84
1, 43204, Note_on_c, 7, 64, 82
1, 43204, Note_on_c, 8, 49, 66
1, 43204, Note_on_c, 8, 61, 68
1, 43204, Note_on_c, 9, 36, 100
1, 43204, Note_on_c, 10, 68, 77
1, 43204, Note_on_c, 11, 61, 75
1, 43204, Note_on_c, 11, 64, 97
1, 43204, Note_on_c, 14, 64, 86
1, 43204, Lyric_t, "songs "
1, 43204, Control_c, 14, 101, 0
1, 43205, Control_c, 14, 100, 0
1, 43206, Control_c, 14, 6, 13
1, 43207, Control_c, 14, 38, 0
1, 43207, Control_c, 6, 11, 83
1, 43207, Control_c, 14, 101, 0
1, 43208, Control_c, 14, 100, 0
1, 43209, Control_c, 14, 6, 12
1, 43210, Control_c, 14, 38, 0
1, 43213, Control_c, 6, 11, 85
1, 43214, Note_on_c, 8, 44, 0
1, 43216, Note_on_c, 8, 60, 0
1, 43217, Note_on_c, 3, 75, 0
1, 43217, Note_on_c, 1, 32, 0
1, 43220, Control_c, 6, 11, 87
1, 43224, Control_c, 7, 64, 0
1, 43226, Control_c, 6, 11, 89
1, 43232, Control_c, 6, 11, 90
1, 43239, Control_c, 6, 11, 92
1, 43240, Note_on_c, 5, 60, 0
1, 43241, Note_on_c, 7, 44, 0
1, 43242, Note_on_c, 9, 36, 0
1, 43245, Control_c, 6, 11, 94
1, 43252, Control_c, 6, 11, 95
1, 43258, Control_c, 6, 11, 97
1, 43264, Control_c, 6, 11, 99
1, 43268, Note_on_c, 5, 44, 0
1, 43271, Control_c, 6, 11, 101
1, 43277, Control_c, 6, 11, 102
1, 43284, Control_c, 6, 11, 104
1, 43290, Control_c, 6, 11, 106
1, 43296, Control_c, 6, 11, 107
1, 43303, Control_c, 6, 11, 109
1, 43309, Control_c, 6, 11, 111
1, 43316, Control_c, 6, 11, 113
1, 43322, Control_c, 6, 11, 114
1, 43328, Control_c, 6, 11, 116
1, 43335, Control_c, 6, 11, 118
1, 43341, Control_c, 6, 11, 119
1, 43348, Control_c, 6, 11, 121
1, 43354, Control_c, 6, 11, 123
1, 43360, Control_c, 6, 11, 125
1, 43419, Control_c, 7, 64, 127
1, 43434, Note_on_c, 3, 76, 0
1, 43438, Note_on_c, 11, 56, 96
1, 43444, Note_on_c, 3, 78, 102
1, 43444, Note_on_c, 7, 56, 50
1, 43444, Note_on_c, 9, 42, 61
1, 43444, Lyric_t, "I "
1, 43482, Note_on_c, 9, 42, 0
1, 43502, Note_on_c, 3, 78, 0
1, 43502, Note_on_c, 11, 61, 0
1, 43513, Note_on_c, 11, 64, 0
1, 43564, Note_on_c, 3, 78, 114
1, 43564, Lyric_t, "left "
1, 43581, Note_on_c, 10, 68, 0
1, 43589, Pitch_bend_c, 3, 8616
1, 43595, Note_on_c, 10, 64, 0
1, 43598, Pitch_bend_c, 3, 9888
1, 43607, Pitch_bend_c, 3, 11205
1, 43616, Pitch_bend_c, 3, 12923
1, 43621, Note_on_c, 10, 54, 72
1, 43622, Note_on_c, 11, 56, 0
1, 43626, Pitch_bend_c, 3, 14418
1, 43630, Note_on_c, 10, 56, 0
1, 43635, Pitch_bend_c, 3, 15534
1, 43644, Pitch_bend_c, 3, 16383
1, 43644, Note_on_c, 10, 59, 72
1, 43645, Note_on_c, 10, 61, 0
1, 43658, Note_on_c, 10, 63, 77
1, 43669, Note_on_c, 1, 37, 0
1, 43674, Note_on_c, 11, 63, 96
1, 43675, Note_on_c, 8, 61, 0
1, 43681, Note_on_c, 5, 49, 0
1, 43684, Note_on_c, 1, 35, 74
1, 43684, Note_on_c, 5, 47, 80
1, 43684, Note_on_c, 5, 59, 70
1, 43684, Note_on_c, 6, 87, 72
1, 43684, Note_on_c, 6, 75, 73
1, 43684, Note_on_c, 7, 63, 82
1, 43684, Note_on_c, 7, 47, 76
1, 43684, Note_on_c, 8, 59, 62
1, 43684, Note_on_c, 8, 47, 74
1, 43684, Note_on_c, 9, 59, 63
1, 43684, Note_on_c, 10, 66, 73
1, 43684, Note_on_c, 11, 59, 96
1, 43684, Note_on_c, 14, 63, 86
1, 43688, Note_on_c, 14, 64, 0
1, 43690, Note_on_c, 7, 49, 0
1, 43690, Note_on_c, 7, 64, 0
1, 43693, Note_on_c, 8, 49, 0
1, 43694, Note_on_c, 7, 56, 0
1, 43702, Control_c, 7, 64, 0
1, 43706, Note_on_c, 5, 61, 0
1, 43722, Note_on_c, 9, 59, 0
1, 43728, Pitch_bend_c, 3, 16182
1, 43737, Pitch_bend_c, 3, 15713
1, 43745, Note_on_c, 6, 76, 0
1, 43747, Pitch_bend_c, 3, 15445
1, 43756, Pitch_bend_c, 3, 14865
1, 43757, Note_on_c, 6, 88, 0
1, 43765, Pitch_bend_c, 3, 13057
1, 43774, Pitch_bend_c, 3, 10691
1, 43784, Pitch_bend_c, 3, 8192
1, 43876, Control_c, 7, 64, 127
1, 43887, Note_on_c, 11, 54, 96
1, 43924, Note_on_c, 7, 56, 44
1, 43924, Note_on_c, 9, 51, 67
1, 43962, Note_on_c, 9, 51, 0
1, 43969, Note_on_c, 11, 63, 0
1, 43987, Note_on_c, 11, 59, 0
1, 43999, Note_on_c, 3, 78, 0
1, 44028, Note_on_c, 5, 56, 0
1, 44042, Note_on_c, 10, 63, 0
1, 44042, Note_on_c, 11, 54, 0
1, 44044, Note_on_c, 3, 78, 99
1, 44044, Lyric_t, "be"
1, 44094, Note_on_c, 10, 54, 0
1, 44102, Note_on_c, 10, 59, 0
1, 44102, Note_on_c, 10, 66, 0
1, 44104, Note_on_c, 10, 54, 73
1, 44119, Note_on_c, 11, 54, 68
1, 44122, Note_on_c, 10, 58, 74
1, 44129, Note_on_c, 7, 56, 0
1, 44130, Note_on_c, 14, 63, 0
1, 44134, Note_on_c, 11, 58, 70
1, 44141, Control_c, 7, 64, 0
1, 44144, Note_on_c, 10, 61, 77
1, 44149, Note_on_c, 11, 61, 69
1, 44150, Note_on_c, 6, 75, 0
1, 44151, Note_on_c, 6, 87, 0
1, 44153, Note_on_c, 3, 78, 0
1, 44156, Note_on_c, 7, 47, 0
1, 44161, Note_on_c, 7, 63, 0
1, 44162, Time_signature, 4, 2, 24, 8
1, 44164, Note_on_c, 1, 34, 80
1, 44164, Note_on_c, 3, 75, 114
1, 44164, Note_on_c, 5, 61, 74
1, 44164, Note_on_c, 5, 58, 84
1, 44164, Note_on_c, 5, 46, 74
1, 44164, Note_on_c, 6, 85, 72
1, 44164, Note_on_c, 6, 73, 76
1, 44164, Note_on_c, 7, 66, 62
1, 44164, Note_on_c, 7, 46, 76
1, 44164, Note_on_c, 7, 61, 64
1, 44164, Note_on_c, 8, 58, 41
1, 44164, Note_on_c, 8, 46, 49
1, 44164, Note_on_c, 9, 36, 67
1, 44164, Note_on_c, 9, 59, 67
1, 44164, Note_on_c, 10, 66, 77
1, 44164, Note_on_c, 11, 66, 68
1, 44164, Note_on_c, 14, 66, 86
1, 44164, Lyric_t, "hind "
1, 44164, Lyric_t, "\015"
1, 44179, Note_on_c, 5, 64, 0
1, 44183, Note_on_c, 8, 59, 0
1, 44184, Note_on_c, 1, 35, 0
1, 44185, Note_on_c, 5, 47, 0
1, 44189, Note_on_c, 5, 59, 0
1, 44202, Note_on_c, 9, 59, 0
1, 44202, Note_on_c, 9, 36, 0
1, 44231, Note_on_c, 8, 47, 0
1, 44252, Pitch_bend_c, 3, 8482
1, 44262, Pitch_bend_c, 3, 9709
1, 44271, Pitch_bend_c, 3, 10758
1, 44280, Pitch_bend_c, 3, 11896
1, 44290, Pitch_bend_c, 3, 12187
1, 44299, Pitch_bend_c, 3, 11941
1, 44309, Pitch_bend_c, 3, 11606
1, 44317, Pitch_bend_c, 3, 10870
1, 44327, Pitch_bend_c, 3, 10334
1, 44333, Control_c, 8, 11, 126
1, 44336, Pitch_bend_c, 3, 9441
1, 44342, Note_on_c, 11, 61, 0
1, 44345, Pitch_bend_c, 3, 8192
1, 44359, Control_c, 8, 11, 125
1, 44378, Control_c, 8, 11, 124
1, 44380, Note_on_c, 14, 66, 0
1, 44382, Control_c, 5, 11, 126
1, 44397, Control_c, 8, 11, 123
1, 44401, Control_c, 5, 11, 125
1, 44404, Note_on_c, 3, 73, 102
1, 44404, Note_on_c, 9, 81, 51
1, 44404, Note_on_c, 11, 61, 60
1, 44404, Note_on_c, 14, 61, 85
1, 44413, Note_on_c, 3, 75, 0
1, 44416, Control_c, 8, 11, 122
1, 44421, Control_c, 5, 11, 124
1, 44433, Control_c, 5, 11, 123
1, 44436, Control_c, 8, 11, 121
1, 44442, Note_on_c, 9, 81, 0
1, 44453, Control_c, 5, 11, 122
1, 44455, Control_c, 8, 11, 120
1, 44465, Control_c, 5, 11, 121
1, 44474, Control_c, 8, 11, 119
1, 44485, Control_c, 5, 11, 120
1, 44500, Control_c, 8, 11, 118
1, 44504, Control_c, 5, 11, 119
1, 44517, Control_c, 5, 11, 118
1, 44519, Control_c, 8, 11, 117
1, 44536, Control_c, 5, 11, 117
1, 44538, Control_c, 8, 11, 116
1, 44549, Control_c, 5, 11, 116
1, 44557, Control_c, 8, 11, 115
1, 44568, Control_c, 5, 11, 115
1, 44576, Control_c, 8, 11, 114
1, 44578, Note_on_c, 14, 61, 0
1, 44587, Control_c, 5, 11, 114
1, 44596, Control_c, 8, 11, 113
1, 44597, Note_on_c, 11, 61, 0
1, 44600, Control_c, 5, 11, 113
1, 44615, Control_c, 8, 11, 112
1, 44619, Control_c, 5, 11, 112
1, 44632, Control_c, 5, 11, 111
1, 44640, Control_c, 8, 11, 111
1, 44642, Note_on_c, 11, 54, 0
1, 44644, Note_on_c, 11, 54, 96
1, 44644, Note_on_c, 14, 56, 69
1, 44651, Control_c, 5, 11, 110
1, 44660, Control_c, 8, 11, 110
1, 44670, Control_c, 5, 11, 109
1, 44679, Control_c, 6, 11, 126
1, 44679, Control_c, 8, 11, 109
1, 44683, Control_c, 5, 11, 108
1, 44692, Control_c, 6, 11, 125
1, 44698, Control_c, 8, 11, 108
1, 44702, Control_c, 5, 11, 107
1, 44704, Control_c, 6, 11, 124
1, 44715, Control_c, 5, 11, 106
1, 44717, Control_c, 6, 11, 123
1, 44717, Control_c, 8, 11, 107
1, 44730, Control_c, 6, 11, 122
1, 44734, Control_c, 5, 11, 105
1, 44736, Control_c, 8, 11, 106
1, 44743, Control_c, 6, 11, 121
1, 44753, Control_c, 5, 11, 104
1, 44756, Control_c, 6, 11, 120
1, 44756, Control_c, 8, 11, 105
1, 44763, Pitch_bend_c, 14, 9600
1, 44766, Control_c, 5, 11, 103
1, 44768, Control_c, 6, 11, 119
1, 44773, Note_on_c, 10, 66, 0
1, 44781, Control_c, 6, 11, 118
1, 44781, Control_c, 8, 11, 104
1, 44785, Control_c, 5, 11, 102
1, 44794, Note_on_c, 10, 61, 0
1, 44794, Control_c, 6, 11, 117
1, 44798, Control_c, 5, 11, 101
1, 44800, Control_c, 8, 11, 103
1, 44805, Note_on_c, 10, 58, 0
1, 44807, Control_c, 6, 11, 116
1, 44817, Control_c, 5, 11, 100
1, 44820, Control_c, 6, 11, 115
1, 44820, Control_c, 8, 11, 102
1, 44822, Note_on_c, 11, 66, 0
1, 44826, Control_c, 6, 11, 114
1, 44837, Control_c, 5, 11, 99
1, 44839, Control_c, 6, 11, 113
1, 44839, Control_c, 8, 11, 101
1, 44849, Control_c, 5, 11, 98
1, 44852, Control_c, 6, 11, 112
1, 44858, Control_c, 8, 11, 100
1, 44864, Control_c, 6, 11, 111
1, 44869, Control_c, 5, 11, 97
1, 44877, Control_c, 6, 11, 110
1, 44877, Control_c, 8, 11, 99
1, 44881, Control_c, 5, 11, 96
1, 44882, Note_on_c, 11, 54, 0
1, 44882, Note_on_c, 10, 54, 0
1, 44882, Note_on_c, 14, 56, 0
1, 44884, Note_on_c, 11, 61, 61
1, 44886, Pitch_bend_c, 14, 8192
1, 44887, Note_on_c, 14, 61, 55
1, 44890, Control_c, 6, 11, 109
1, 44896, Control_c, 8, 11, 98
1, 44900, Pitch_bend_c, 14, 8192
1, 44901, Control_c, 5, 11, 95
1, 44903, Control_c, 6, 11, 108
1, 44916, Control_c, 6, 11, 107
1, 44920, Control_c, 5, 11, 94
1, 44922, Control_c, 8, 11, 97
1, 44928, Control_c, 6, 11, 106
1, 44933, Control_c, 5, 11, 93
1, 44941, Control_c, 6, 11, 105
1, 44941, Control_c, 8, 11, 96
1, 44952, Control_c, 5, 11, 92
1, 44954, Control_c, 6, 11, 104
1, 44960, Control_c, 6, 11, 103
1, 44960, Control_c, 8, 11, 95
1, 44965, Control_c, 5, 11, 91
1, 44973, Control_c, 6, 11, 102
1, 44980, Control_c, 8, 11, 94
1, 44984, Control_c, 5, 11, 90
1, 44986, Control_c, 6, 11, 101
1, 44999, Control_c, 6, 11, 100
1, 44999, Control_c, 8, 11, 93
1, 45003, Control_c, 5, 11, 89
1, 45012, Control_c, 6, 11, 99
1, 45016, Control_c, 5, 11, 88
1, 45018, Control_c, 8, 11, 92
1, 45024, Control_c, 6, 11, 98
1, 45035, Control_c, 5, 11, 87
1, 45037, Control_c, 6, 11, 97
1, 45037, Control_c, 8, 11, 91
1, 45048, Control_c, 5, 11, 86
1, 45050, Control_c, 6, 11, 96
1, 45062, Note_on_c, 11, 58, 0
1, 45063, Control_c, 6, 11, 95
1, 45063, Control_c, 8, 11, 90
1, 45067, Control_c, 5, 11, 85
1, 45076, Control_c, 6, 11, 94
1, 45082, Control_c, 8, 11, 89
1, 45086, Control_c, 5, 11, 84
1, 45088, Control_c, 6, 11, 93
1, 45095, Control_c, 6, 11, 92
1, 45099, Control_c, 5, 11, 83
1, 45101, Control_c, 8, 11, 88
1, 45108, Control_c, 6, 11, 91
1, 45118, Control_c, 5, 11, 82
1, 45120, Control_c, 6, 11, 90
1, 45120, Control_c, 8, 11, 87
1, 45122, Note_on_c, 11, 61, 0
1, 45124, Note_on_c, 9, 59, 49
1, 45124, Note_on_c, 11, 54, 71
1, 45124, Note_on_c, 14, 54, 55
1, 45131, Control_c, 5, 11, 81
1, 45133, Control_c, 6, 11, 89
1, 45135, Note_on_c, 14, 61, 0
1, 45140, Control_c, 8, 11, 86
1, 45146, Control_c, 6, 11, 88
1, 45150, Control_c, 5, 11, 80
1, 45159, Control_c, 6, 11, 87
1, 45159, Control_c, 8, 11, 85
1, 45162, Note_on_c, 9, 59, 0
1, 45163, Control_c, 5, 11, 79
1, 45172, Control_c, 6, 11, 86
1, 45178, Control_c, 8, 11, 84
1, 45182, Control_c, 5, 11, 78
1, 45184, Control_c, 6, 11, 85
1, 45197, Control_c, 6, 11, 84
1, 45197, Control_c, 8, 11, 83
1, 45201, Control_c, 5, 11, 77
1, 45210, Control_c, 6, 11, 83
1, 45214, Control_c, 5, 11, 76
1, 45223, Control_c, 6, 11, 82
1, 45223, Control_c, 8, 11, 82
1, 45229, Control_c, 6, 11, 81
1, 45233, Control_c, 5, 11, 75
1, 45242, Control_c, 6, 11, 80
1, 45242, Control_c, 8, 11, 81
1, 45246, Control_c, 5, 11, 74
1, 45255, Control_c, 6, 11, 79
1, 45261, Control_c, 8, 11, 80
1, 45265, Control_c, 5, 11, 73
1, 45268, Control_c, 6, 11, 78
1, 45280, Control_c, 6, 11, 77
1, 45280, Control_c, 8, 11, 79
1, 45285, Control_c, 5, 11, 72
1, 45293, Control_c, 6, 11, 76
1, 45297, Control_c, 5, 11, 71
1, 45300, Control_c, 8, 11, 78
1, 45306, Control_c, 6, 11, 75
1, 45317, Control_c, 5, 11, 70
1, 45319, Control_c, 6, 11, 74
1, 45319, Control_c, 8, 11, 77
1, 45329, Control_c, 5, 11, 69
1, 45332, Control_c, 6, 11, 73
1, 45338, Control_c, 8, 11, 76
1, 45344, Control_c, 6, 11, 72
1, 45349, Control_c, 5, 11, 68
1, 45357, Control_c, 6, 11, 71
1, 45364, Control_c, 6, 11, 70
1, 45364, Control_c, 8, 11, 75
1, 45368, Control_c, 5, 11, 67
1, 45376, Control_c, 6, 11, 69
1, 45381, Control_c, 5, 11, 66
1, 45383, Control_c, 8, 11, 74
1, 45389, Control_c, 6, 11, 68
1, 45400, Control_c, 5, 11, 65
1, 45402, Control_c, 6, 11, 67
1, 45402, Control_c, 8, 11, 73
1, 45413, Control_c, 5, 11, 64
1, 45415, Control_c, 6, 11, 66
1, 45421, Control_c, 8, 11, 72
1, 45428, Control_c, 6, 11, 65
1, 45432, Control_c, 5, 11, 63
1, 45440, Control_c, 6, 11, 64
1, 45440, Control_c, 8, 11, 71
1, 45451, Control_c, 5, 11, 62
1, 45453, Control_c, 6, 11, 63
1, 45460, Control_c, 8, 11, 70
1, 45464, Control_c, 5, 11, 61
1, 45466, Control_c, 6, 11, 62
1, 45479, Control_c, 6, 11, 61
1, 45479, Control_c, 8, 11, 69
1, 45483, Control_c, 5, 11, 60
1, 45492, Control_c, 6, 11, 60
1, 45496, Control_c, 5, 11, 59
1, 45498, Control_c, 6, 11, 59
1, 45502, Note_on_c, 3, 73, 0
1, 45504, Control_c, 8, 11, 68
1, 45511, Control_c, 6, 11, 58
1, 45515, Control_c, 5, 11, 58
1, 45524, Control_c, 6, 11, 57
1, 45524, Control_c, 8, 11, 67
1, 45534, Control_c, 5, 11, 57
1, 45536, Control_c, 6, 11, 56
1, 45543, Control_c, 8, 11, 66
1, 45547, Control_c, 5, 11, 56
1, 45549, Control_c, 6, 11, 55
1, 45562, Control_c, 6, 11, 54
1, 45562, Control_c, 8, 11, 65
1, 45566, Control_c, 5, 11, 55
1, 45575, Control_c, 6, 11, 53
1, 45579, Control_c, 5, 11, 54
1, 45581, Control_c, 8, 11, 64
1, 45588, Control_c, 6, 11, 52
1, 45598, Control_c, 5, 11, 53
1, 45600, Control_c, 6, 11, 51
1, 45600, Control_c, 8, 11, 63
1, 45602, Note_on_c, 14, 54, 0
1, 45602, Note_on_c, 11, 54, 0
1, 45604, Note_on_c, 9, 59, 53
1, 45613, Control_c, 6, 11, 50
1, 45617, Control_c, 5, 11, 52
1, 45620, Control_c, 8, 11, 62
1, 45626, Control_c, 6, 11, 49
1, 45630, Control_c, 5, 11, 51
1, 45632, Control_c, 6, 11, 48
1, 45642, Note_on_c, 9, 59, 0
1, 45645, Control_c, 6, 11, 47
1, 45645, Control_c, 8, 11, 61
1, 45649, Control_c, 5, 11, 50
1, 45658, Control_c, 6, 11, 46
1, 45662, Control_c, 5, 11, 49
1, 45664, Control_c, 8, 11, 60
1, 45671, Control_c, 6, 11, 45
1, 45681, Control_c, 5, 11, 48
1, 45684, Control_c, 6, 11, 44
1, 45684, Control_c, 8, 11, 59
1, 45696, Control_c, 6, 11, 43
1, 45701, Control_c, 5, 11, 47
1, 45703, Control_c, 8, 11, 58
1, 45709, Control_c, 6, 11, 42
1, 45713, Control_c, 5, 11, 46
1, 45722, Control_c, 6, 11, 41
1, 45722, Control_c, 8, 11, 57
1, 45733, Control_c, 5, 11, 45
1, 45735, Control_c, 6, 11, 40
1, 45741, Control_c, 8, 11, 56
1, 45745, Control_c, 5, 11, 44
1, 45748, Control_c, 6, 11, 39
1, 45760, Control_c, 6, 11, 38
1, 45760, Control_c, 8, 11, 55
1, 45765, Control_c, 5, 11, 43
1, 45767, Control_c, 6, 11, 37
1, 45768, Lyric_t, "like "
1, 45770, Note_on_c, 3, 73, 93
1, 45780, Control_c, 6, 11, 36
1, 45784, Control_c, 5, 11, 42
1, 45786, Control_c, 8, 11, 54
1, 45792, Control_c, 6, 11, 35
1, 45797, Control_c, 5, 11, 41
1, 45805, Control_c, 6, 11, 34
1, 45805, Control_c, 8, 11, 53
1, 45816, Control_c, 5, 11, 40
1, 45818, Control_c, 6, 11, 33
1, 45824, Control_c, 8, 11, 52
1, 45829, Control_c, 5, 11, 39
1, 45831, Control_c, 6, 11, 32
1, 45844, Control_c, 6, 11, 31
1, 45844, Control_c, 8, 11, 51
1, 45848, Control_c, 5, 11, 38
1, 45856, Control_c, 6, 11, 30
1, 45863, Control_c, 8, 11, 50
1, 45867, Control_c, 5, 11, 37
1, 45869, Control_c, 6, 11, 29
1, 45876, Lyric_t, "pret"
1, 45877, Note_on_c, 3, 71, 82
1, 45880, Note_on_c, 3, 73, 0
1, 45880, Control_c, 5, 11, 36
1, 45882, Control_c, 6, 11, 28
1, 45882, Control_c, 8, 11, 49
1, 45895, Control_c, 6, 11, 27
1, 45899, Control_c, 5, 11, 35
1, 45901, Control_c, 6, 11, 26
1, 45901, Control_c, 8, 11, 48
1, 45912, Control_c, 5, 11, 34
1, 45914, Control_c, 6, 11, 25
1, 45920, Control_c, 8, 11, 47
1, 45927, Control_c, 6, 11, 24
1, 45931, Control_c, 5, 11, 33
1, 45940, Control_c, 6, 11, 23
1, 45944, Control_c, 5, 11, 32
1, 45952, Control_c, 6, 11, 22
1, 45957, Note_on_c, 8, 58, 0
1, 45965, Control_c, 6, 11, 21
1, 45976, Note_on_c, 8, 46, 0
1, 45976, Lyric_t, "ty "
1, 45978, Note_on_c, 3, 73, 87
1, 45978, Control_c, 6, 11, 20
1, 45991, Control_c, 6, 11, 19
1, 45997, Note_on_c, 3, 71, 0
1, 46004, Control_c, 6, 11, 18
1, 46004, Control_c, 8, 11, 45
1, 46004, Note_on_c, 10, 52, 75
1, 46010, Control_c, 8, 11, 46
1, 46016, Control_c, 6, 11, 17
1, 46016, Control_c, 8, 11, 47
1, 46023, Control_c, 8, 11, 49
1, 46029, Control_c, 6, 11, 16
1, 46029, Control_c, 8, 11, 50
1, 46034, Note_on_c, 6, 73, 0
1, 46034, Control_c, 5, 11, 36
1, 46036, Control_c, 6, 11, 15
1, 46036, Control_c, 8, 11, 51
1, 46038, Note_on_c, 5, 46, 0
1, 46039, Note_on_c, 10, 57, 77
1, 46041, Control_c, 5, 11, 37
1, 46042, Control_c, 8, 11, 53
1, 46044, Note_on_c, 7, 46, 0
1, 46044, Note_on_c, 7, 57, 54
1, 46046, Note_on_c, 7, 61, 0
1, 46047, Control_c, 5, 11, 38
1, 46048, Control_c, 8, 11, 54
1, 46051, Note_on_c, 7, 66, 0
1, 46052, Note_on_c, 6, 85, 0
1, 46054, Control_c, 5, 11, 40
1, 46055, Control_c, 8, 11, 55
1, 46055, Note_on_c, 10, 61, 77
1, 46057, Note_on_c, 5, 61, 0
1, 46057, Note_on_c, 5, 58, 0
1, 46060, Control_c, 5, 11, 41
1, 46061, Note_on_c, 7, 61, 64
1, 46061, Control_c, 8, 11, 57
1, 46066, Control_c, 5, 11, 43
1, 46068, Control_c, 8, 11, 58
1, 46073, Control_c, 5, 11, 44
1, 46074, Control_c, 8, 11, 59
1, 46075, Note_on_c, 7, 45, 59
1, 46079, Control_c, 5, 11, 46
1, 46079, Note_on_c, 7, 66, 80
1, 46080, Control_c, 8, 11, 61
1, 46082, Note_on_c, 3, 73, 0
1, 46084, Note_on_c, 1, 34, 0
1, 46084, Note_on_c, 1, 33, 80
1, 46084, Note_on_c, 3, 76, 99
1, 46084, Note_on_c, 5, 61, 68
1, 46084, Note_on_c, 5, 45, 82
1, 46084, Note_on_c, 5, 57, 57
1, 46084, Note_on_c, 8, 45, 80
1, 46084, Note_on_c, 10, 64, 77
1, 46084, Note_on_c, 11, 61, 77
1, 46084, Note_on_c, 11, 66, 95
1, 46084, Note_on_c, 11, 57, 88
1, 46084, Note_on_c, 14, 61, 96
1, 46084, Lyric_t, "flow"
1, 46086, Control_c, 5, 11, 47
1, 46087, Control_c, 8, 11, 62
1, 46092, Control_c, 5, 11, 48
1, 46093, Control_c, 8, 11, 63
1, 46098, Control_c, 5, 11, 50
1, 46100, Control_c, 8, 11, 65
1, 46104, Control_c, 14, 11, 95
1, 46105, Control_c, 5, 11, 51
1, 46106, Control_c, 8, 11, 66
1, 46106, Pitch_bend_c, 11, 8560
1, 46107, Pitch_bend_c, 11, 8192
1, 46111, Control_c, 5, 11, 53
1, 46112, Control_c, 8, 11, 68
1, 46118, Control_c, 5, 11, 54
1, 46119, Control_c, 8, 11, 69
1, 46124, Control_c, 5, 11, 56
1, 46125, Control_c, 8, 11, 70
1, 46130, Control_c, 5, 11, 57
1, 46132, Control_c, 8, 11, 72
1, 46137, Control_c, 5, 11, 58
1, 46138, Control_c, 8, 11, 73
1, 46143, Control_c, 5, 11, 60
1, 46144, Control_c, 8, 11, 74
1, 46150, Control_c, 5, 11, 61
1, 46151, Control_c, 8, 11, 76
1, 46156, Control_c, 5, 11, 63
1, 46157, Control_c, 8, 11, 77
1, 46159, Control_c, 14, 11, 96
1, 46162, Control_c, 5, 11, 64
1, 46164, Control_c, 8, 11, 78
1, 46169, Control_c, 5, 11, 66
1, 46170, Control_c, 8, 11, 80
1, 46176, Control_c, 8, 11, 81
1, 46183, Control_c, 8, 11, 82
1, 46189, Control_c, 8, 11, 84
1, 46196, Control_c, 8, 11, 85
1, 46200, Note_on_c, 3, 76, 0
1, 46200, Control_c, 14, 11, 97
1, 46202, Control_c, 8, 11, 87
1, 46204, Note_on_c, 3, 73, 102
1, 46204, Lyric_t, "ers "
1, 46215, Control_c, 8, 11, 85
1, 46218, Control_c, 7, 64, 127
1, 46241, Control_c, 14, 11, 98
1, 46266, Control_c, 8, 11, 86
1, 46296, Control_c, 14, 11, 99
1, 46317, Control_c, 8, 11, 87
1, 46324, Note_on_c, 7, 57, 0
1, 46324, Note_on_c, 7, 57, 34
1, 46337, Control_c, 14, 11, 100
1, 46368, Control_c, 8, 11, 88
1, 46378, Control_c, 14, 11, 101
1, 46420, Control_c, 8, 11, 89
1, 46420, Control_c, 14, 11, 102
1, 46461, Note_on_c, 7, 61, 0
1, 46471, Control_c, 8, 11, 90
1, 46474, Control_c, 14, 11, 103
1, 46487, Note_on_c, 14, 61, 0
1, 46490, Note_on_c, 7, 66, 0
1, 46502, Note_on_c, 11, 66, 0
1, 46516, Control_c, 14, 11, 104
1, 46522, Control_c, 8, 11, 91
1, 46554, Pitch_bend_c, 11, 7904
1, 46555, Pitch_bend_c, 11, 8192
1, 46557, Control_c, 14, 11, 105
1, 46564, Note_on_c, 7, 66, 49
1, 46564, Note_on_c, 7, 61, 49
1, 46564, Note_on_c, 11, 66, 80
1, 46564, Note_on_c, 14, 61, 96
1, 46573, Control_c, 8, 11, 92
1, 46598, Control_c, 14, 11, 106
1, 46618, Control_c, 8, 11, 93
1, 46653, Control_c, 14, 11, 107
1, 46669, Control_c, 8, 11, 94
1, 46682, Note_on_c, 11, 57, 0
1, 46682, Note_on_c, 11, 61, 0
1, 46694, Control_c, 14, 11, 108
1, 46708, Note_on_c, 7, 57, 0
1, 46720, Control_c, 8, 11, 95
1, 46735, Control_c, 14, 11, 109
1, 46742, Note_on_c, 11, 66, 0
1, 46772, Control_c, 8, 11, 96
1, 46776, Control_c, 14, 11, 110
1, 46792, Note_on_c, 14, 61, 0
1, 46804, Note_on_c, 7, 57, 39
1, 46804, Note_on_c, 11, 57, 71
1, 46804, Note_on_c, 14, 57, 96
1, 46823, Control_c, 8, 11, 97
1, 46831, Control_c, 14, 11, 111
1, 46872, Control_c, 14, 11, 112
1, 46874, Control_c, 8, 11, 98
1, 46881, Note_on_c, 7, 61, 0
1, 46888, Note_on_c, 7, 66, 0
1, 46913, Control_c, 14, 11, 113
1, 46925, Control_c, 8, 11, 99
1, 46968, Control_c, 14, 11, 114
1, 46970, Control_c, 8, 11, 100
1, 46982, Note_on_c, 10, 64, 0
1, 46982, Note_on_c, 10, 52, 0
1, 46982, Note_on_c, 10, 57, 0
1, 46982, Note_on_c, 10, 61, 0
1, 46990, Note_on_c, 11, 57, 0
1, 47002, Control_c, 8, 11, 99
1, 47009, Control_c, 14, 11, 115
1, 47013, Pitch_bend_c, 11, 8448
1, 47014, Pitch_bend_c, 11, 8192
1, 47017, Note_on_c, 14, 57, 0
1, 47034, Control_c, 8, 11, 98
1, 47044, Note_on_c, 7, 61, 37
1, 47044, Note_on_c, 7, 66, 39
1, 47044, Note_on_c, 9, 59, 56
1, 47044, Note_on_c, 11, 66, 95
1, 47044, Note_on_c, 11, 61, 92
1, 47044, Note_on_c, 11, 57, 74
1, 47044, Note_on_c, 14, 61, 96
1, 47050, Control_c, 14, 11, 116
1, 47054, Note_on_c, 7, 57, 0
1, 47066, Control_c, 8, 11, 97
1, 47082, Note_on_c, 9, 59, 0
1, 47092, Control_c, 14, 11, 117
1, 47098, Control_c, 8, 11, 96
1, 47130, Control_c, 8, 11, 95
1, 47146, Control_c, 14, 11, 118
1, 47162, Control_c, 8, 11, 94
1, 47188, Control_c, 8, 11, 93
1, 47188, Control_c, 14, 11, 119
1, 47220, Control_c, 8, 11, 92
1, 47229, Control_c, 14, 11, 120
1, 47252, Control_c, 8, 11, 91
1, 47270, Control_c, 14, 11, 121
1, 47284, Note_on_c, 7, 57, 31
1, 47284, Control_c, 8, 11, 90
1, 47316, Control_c, 8, 11, 89
1, 47325, Control_c, 14, 11, 122
1, 47330, Note_on_c, 7, 66, 0
1, 47330, Note_on_c, 7, 61, 0
1, 47348, Control_c, 8, 11, 88
1, 47366, Control_c, 14, 11, 123
1, 47380, Control_c, 8, 11, 87
1, 47405, Control_c, 8, 11, 86
1, 47407, Control_c, 14, 11, 124
1, 47437, Control_c, 8, 11, 85
1, 47448, Control_c, 14, 11, 125
1, 47462, Note_on_c, 11, 66, 0
1, 47462, Control_c, 14, 11, 124
1, 47469, Control_c, 8, 11, 84
1, 47488, Pitch_bend_c, 11, 8672
1, 47489, Control_c, 14, 11, 125
1, 47493, Pitch_bend_c, 11, 8192
1, 47501, Control_c, 8, 11, 83
1, 47503, Control_c, 14, 11, 126
1, 47505, Note_on_c, 14, 61, 0
1, 47517, Control_c, 14, 11, 127
1, 47522, Note_on_c, 11, 61, 0
1, 47524, Note_on_c, 7, 61, 36
1, 47524, Note_on_c, 7, 66, 40
1, 47524, Note_on_c, 11, 66, 80
1, 47524, Note_on_c, 14, 61, 84
1, 47533, Control_c, 8, 11, 82
1, 47544, Note_on_c, 3, 73, 0
1, 47565, Control_c, 8, 11, 81
1, 47577, Note_on_c, 7, 57, 0
1, 47582, Note_on_c, 11, 57, 0
1, 47591, Control_c, 8, 11, 80
1, 47623, Control_c, 8, 11, 79
1, 47655, Control_c, 8, 11, 78
1, 47687, Control_c, 8, 11, 77
1, 47695, Note_on_c, 1, 33, 0
1, 47702, Note_on_c, 11, 66, 0
1, 47719, Control_c, 8, 11, 76
1, 47737, Note_on_c, 14, 61, 0
1, 47751, Control_c, 8, 11, 75
1, 47764, Note_on_c, 1, 33, 61
1, 47764, Note_on_c, 3, 71, 96
1, 47764, Note_on_c, 7, 57, 37
1, 47764, Note_on_c, 9, 59, 59
1, 47764, Note_on_c, 11, 57, 80
1, 47764, Lyric_t, "and "
1, 47783, Control_c, 8, 11, 74
1, 47802, Note_on_c, 9, 59, 0
1, 47808, Control_c, 8, 11, 73
1, 47820, Note_on_c, 1, 33, 0
1, 47829, Control_c, 7, 64, 0
1, 47840, Control_c, 8, 11, 72
1, 47872, Control_c, 8, 11, 71
1, 47881, Note_on_c, 3, 71, 0
1, 47884, Note_on_c, 3, 73, 102
1, 47884, Note_on_c, 9, 51, 51
1, 47884, Lyric_t, "a "
1, 47904, Control_c, 8, 11, 70
1, 47908, Note_on_c, 10, 54, 74
1, 47922, Note_on_c, 9, 51, 0
1, 47936, Control_c, 8, 11, 69
1, 47948, Note_on_c, 10, 57, 78
1, 47950, Note_on_c, 7, 61, 0
1, 47950, Note_on_c, 7, 66, 0
1, 47966, Note_on_c, 7, 57, 0
1, 47968, Control_c, 8, 11, 68
1, 47988, Control_c, 8, 11, 61
1, 47991, Note_on_c, 7, 45, 0
1, 47998, Note_on_c, 3, 73, 0
1, 47998, Control_c, 14, 101, 0
1, 47999, Control_c, 14, 100, 0
1, 48000, Control_c, 14, 6, 13
1, 48001, Control_c, 14, 38, 0
1, 48002, Note_on_c, 11, 57, 0
1, 48004, Note_on_c, 1, 32, 76
1, 48004, Note_on_c, 3, 76, 102
1, 48004, Note_on_c, 5, 60, 76
1, 48004, Note_on_c, 5, 44, 87
1, 48004, Note_on_c, 5, 56, 66
1, 48004, Note_on_c, 7, 61, 78
1, 48004, Note_on_c, 7, 44, 72
1, 48004, Note_on_c, 8, 44, 84
1, 48004, Note_on_c, 9, 59, 61
1, 48004, Note_on_c, 10, 66, 37
1, 48004, Note_on_c, 11, 63, 91
1, 48004, Note_on_c, 11, 57, 42
1, 48004, Note_on_c, 11, 54, 79
1, 48004, Control_c, 14, 101, 0
1, 48005, Control_c, 14, 100, 0
1, 48006, Control_c, 14, 6, 12
1, 48007, Control_c, 14, 38, 0
1, 48007, Lyric_t, "sun"
1, 48010, Note_on_c, 14, 54, 74
1, 48010, Note_on_c, 14, 63, 89
1, 48023, Control_c, 8, 11, 62
1, 48024, Note_on_c, 10, 63, 86
1, 48031, Pitch_bend_c, 11, 8000
1, 48035, Pitch_bend_c, 11, 8192
1, 48045, Note_on_c, 9, 59, 0
1, 48049, Note_on_c, 8, 45, 0
1, 48051, Note_on_c, 5, 45, 0
1, 48055, Control_c, 8, 11, 63
1, 48074, Note_on_c, 5, 57, 0
1, 48080, Control_c, 8, 11, 64
1, 48088, Note_on_c, 5, 61, 0
1, 48112, Control_c, 8, 11, 65
1, 48144, Control_c, 8, 11, 66
1, 48165, Control_c, 7, 64, 127
1, 48170, Control_c, 8, 11, 67
1, 48202, Control_c, 8, 11, 68
1, 48234, Control_c, 8, 11, 69
1, 48247, Note_on_c, 3, 78, 84
1, 48247, Note_on_c, 7, 56, 50
1, 48247, Lyric_t, "set. "
1, 48247, Lyric_t, "\015"
1, 48259, Control_c, 8, 11, 70
1, 48279, Note_on_c, 3, 76, 0
1, 48291, Control_c, 8, 11, 71
1, 48300, Note_on_c, 7, 61, 0
1, 48317, Control_c, 8, 11, 72
1, 48335, Note_on_c, 14, 54, 0
1, 48339, Note_on_c, 14, 63, 0
1, 48349, Control_c, 8, 11, 73
1, 48381, Control_c, 8, 11, 74
1, 48407, Control_c, 8, 11, 75
1, 48425, Note_on_c, 11, 57, 0
1, 48425, Note_on_c, 11, 54, 0
1, 48439, Control_c, 8, 11, 76
1, 48453, Note_on_c, 7, 56, 0
1, 48471, Control_c, 8, 11, 77
1, 48475, Pitch_bend_c, 11, 8192
1, 48485, Note_on_c, 11, 63, 0
1, 48487, Note_on_c, 3, 76, 87
1, 48487, Note_on_c, 7, 61, 78
1, 48487, Note_on_c, 11, 57, 68
1, 48487, Note_on_c, 11, 52, 76
1, 48487, Note_on_c, 11, 61, 96
1, 48487, Note_on_c, 14, 61, 95
1, 48487, Note_on_c, 14, 52, 76
1, 48496, Control_c, 8, 11, 78
1, 48514, Note_on_c, 3, 78, 0
1, 48528, Control_c, 8, 11, 79
1, 48532, Control_c, 7, 64, 0
1, 48555, Control_c, 7, 64, 127
1, 48560, Control_c, 8, 11, 80
1, 48586, Control_c, 8, 11, 81
1, 48605, Note_on_c, 10, 66, 0
1, 48605, Note_on_c, 10, 63, 0
1, 48605, Note_on_c, 10, 54, 0
1, 48605, Note_on_c, 10, 57, 0
1, 48618, Control_c, 8, 11, 82
1, 48643, Control_c, 8, 11, 83
1, 48675, Control_c, 8, 11, 84
1, 48707, Control_c, 8, 11, 85
1, 48727, Note_on_c, 3, 75, 99
1, 48727, Note_on_c, 7, 56, 42
1, 48733, Control_c, 8, 11, 86
1, 48739, Note_on_c, 7, 61, 0
1, 48743, Note_on_c, 3, 76, 0
1, 48765, Note_on_c, 7, 44, 0
1, 48765, Control_c, 8, 11, 87
1, 48797, Control_c, 8, 11, 88
1, 48803, Note_on_c, 14, 61, 0
1, 48810, Note_on_c, 14, 52, 0
1, 48823, Control_c, 8, 11, 89
1, 48832, Note_on_c, 10, 56, 74
1, 48855, Control_c, 8, 11, 90
1, 48877, Note_on_c, 10, 60, 74
1, 48878, Note_on_c, 9, 59, 36
1, 48887, Control_c, 8, 11, 91
1, 48905, Note_on_c, 11, 61, 0
1, 48905, Note_on_c, 11, 57, 0
1, 48907, Note_on_c, 9, 59, 43
1, 48912, Control_c, 8, 11, 92
1, 48916, Note_on_c, 9, 59, 0
1, 48937, Note_on_c, 9, 51, 67
1, 48944, Control_c, 8, 11, 93
1, 48944, Note_on_c, 10, 63, 85
1, 48945, Note_on_c, 9, 59, 0
1, 48965, Note_on_c, 11, 52, 0
1, 48966, Control_c, 0, 32, 1
1, 48966, Control_c, 0, 0, 0
1, 48966, Control_c, 0, 32, 1
1, 48966, Control_c, 0, 0, 0
1, 48966, Control_c, 0, 32, 1
1, 48967, Program_c, 0, 60
1, 48967, Note_on_c, 7, 44, 72
1, 48967, Note_on_c, 7, 60, 80
1, 48967, Note_on_c, 9, 59, 81
1, 48967, Note_on_c, 11, 51, 100
1, 48967, Note_on_c, 11, 56, 76
1, 48967, Note_on_c, 11, 60, 96
1, 48967, Note_on_c, 14, 51, 82
1, 48967, Note_on_c, 14, 60, 92
1, 48970, Control_c, 8, 11, 94
1, 48975, Note_on_c, 9, 51, 0
1, 48981, Note_on_c, 10, 68, 72
1, 48982, Control_c, 7, 64, 0
1, 49002, Control_c, 8, 11, 93
1, 49005, Note_on_c, 9, 59, 0
1, 49027, Control_c, 8, 11, 92
1, 49053, Control_c, 8, 11, 91
1, 49084, Control_c, 8, 1, 3
1, 49085, Control_c, 8, 11, 90
1, 49111, Control_c, 8, 11, 89
1, 49136, Control_c, 8, 11, 88
1, 49167, Control_c, 8, 1, 11
1, 49168, Control_c, 8, 11, 87
1, 49194, Control_c, 8, 11, 86
1, 49219, Control_c, 8, 11, 85
1, 49251, Control_c, 8, 11, 84
1, 49277, Control_c, 8, 11, 83
1, 49303, Control_c, 8, 11, 82
1, 49335, Control_c, 8, 11, 81
1, 49360, Control_c, 8, 11, 80
1, 49386, Control_c, 8, 11, 79
1, 49418, Control_c, 8, 11, 78
1, 49418, Control_c, 8, 1, 19
1, 49443, Control_c, 8, 11, 77
1, 49469, Control_c, 8, 11, 76
1, 49501, Control_c, 8, 11, 75
1, 49504, Note_on_c, 3, 75, 0
1, 49527, Control_c, 8, 11, 74
1, 49552, Control_c, 8, 11, 73
1, 49584, Control_c, 8, 11, 72
1, 49610, Control_c, 8, 11, 71
1, 49635, Control_c, 8, 11, 70
1, 49641, Control_c, 8, 1, 26
1, 49644, Note_on_c, 10, 68, 0
1, 49644, Note_on_c, 10, 56, 0
1, 49651, Note_on_c, 10, 63, 0
1, 49651, Note_on_c, 10, 60, 0
1, 49667, Control_c, 8, 11, 69
1, 49693, Control_c, 8, 11, 68
1, 49719, Control_c, 8, 11, 67
1, 49745, Note_on_c, 11, 51, 0
1, 49748, Note_on_c, 14, 60, 0
1, 49751, Control_c, 8, 11, 66
1, 49753, Note_on_c, 11, 56, 0
1, 49757, Note_on_c, 11, 60, 0
1, 49758, Note_on_c, 14, 51, 0
1, 49776, Control_c, 8, 11, 65
1, 49802, Control_c, 8, 11, 64
1, 49810, Note_on_c, 7, 56, 0
1, 49810, Note_on_c, 7, 44, 0
1, 49820, Note_on_c, 7, 60, 0
1, 49827, Control_c, 6, 11, 127
1, 49834, Control_c, 8, 11, 63
1, 49859, Control_c, 8, 11, 62
1, 49861, Control_c, 7, 32, 1
1, 49861, Control_c, 7, 0, 0
1, 49861, Control_c, 7, 32, 1
1, 49861, Control_c, 7, 0, 0
1, 49861, Control_c, 7, 32, 1
1, 49862, Program_c, 7, 1
1, 49884, Note_on_c, 1, 32, 0
1, 49885, Note_on_c, 5, 44, 0
1, 49885, Control_c, 8, 11, 61
1, 49901, Control_c, 8, 1, 17
1, 49906, Note_on_c, 5, 56, 0
1, 49907, Note_on_c, 5, 60, 0
1, 49910, Control_c, 8, 1, 10
1, 49911, Control_c, 8, 11, 60
1, 49919, Control_c, 8, 1, 0
1, 49922, Control_c, 5, 11, 127
1, 49927, Note_on_c, 0, 66, 84
1, 49927, Note_on_c, 0, 69, 87
1, 49927, Note_on_c, 1, 30, 117
1, 49927, Note_on_c, 5, 66, 111
1, 49927, Note_on_c, 5, 69, 108
1, 49927, Note_on_c, 5, 61, 108
1, 49927, Note_on_c, 6, 69, 82
1, 49927, Note_on_c, 6, 81, 87
1, 49927, Note_on_c, 7, 66, 108
1, 49927, Note_on_c, 7, 61, 102
1, 49927, Note_on_c, 7, 42, 108
1, 49927, Note_on_c, 7, 69, 99
1, 49927, Note_on_c, 9, 36, 100
1, 49927, Note_on_c, 9, 49, 70
1, 49927, Note_on_c, 11, 61, 96
1, 49927, Note_on_c, 11, 66, 70
1, 49927, Note_on_c, 11, 69, 96
1, 49927, Note_on_c, 13, 54, 96
1, 49927, Note_on_c, 13, 49, 96
1, 49934, Note_on_c, 8, 44, 0
1, 50045, Note_on_c, 9, 49, 0
1, 50045, Note_on_c, 9, 36, 0
1, 50083, Control_c, 7, 64, 127
1, 50153, Note_on_c, 11, 61, 0
1, 50167, Note_on_c, 7, 57, 74
1, 50167, Note_on_c, 11, 61, 96
1, 50177, Note_on_c, 7, 69, 0
1, 50206, Note_on_c, 7, 66, 0
1, 50214, Note_on_c, 7, 61, 0
1, 50345, Note_on_c, 11, 66, 0
1, 50345, Note_on_c, 11, 69, 0
1, 50378, Note_on_c, 11, 61, 0
1, 50407, Note_on_c, 7, 66, 108
1, 50407, Note_on_c, 7, 61, 105
1, 50407, Note_on_c, 9, 42, 80
1, 50407, Note_on_c, 9, 54, 46
1, 50407, Note_on_c, 11, 61, 96
1, 50407, Note_on_c, 11, 66, 96
1, 50407, Note_on_c, 11, 69, 96
1, 50503, Note_on_c, 7, 57, 0
1, 50525, Note_on_c, 9, 42, 0
1, 50639, Note_on_c, 11, 61, 0
1, 50641, Note_on_c, 7, 42, 0
1, 50647, Note_on_c, 7, 57, 102
1, 50647, Note_on_c, 11, 61, 96
1, 50689, Note_on_c, 7, 66, 0
1, 50700, Note_on_c, 7, 61, 0
1, 50719, Note_on_c, 9, 54, 0
1, 50765, Note_on_c, 11, 61, 0
1, 50767, Note_on_c, 3, 71, 108
1, 50767, Lyric_t, "It's "
1, 50815, Note_on_c, 3, 71, 0
1, 50817, Note_on_c, 7, 57, 0
1, 50825, Note_on_c, 11, 66, 0
1, 50825, Note_on_c, 11, 69, 0
1, 50868, Note_on_c, 5, 61, 0
1, 50885, Note_on_c, 13, 54, 0
1, 50885, Note_on_c, 13, 49, 0
1, 50887, Note_on_c, 0, 68, 82
1, 50887, Note_on_c, 0, 64, 82
1, 50887, Note_on_c, 1, 28, 105
1, 50887, Note_on_c, 3, 80, 117
1, 50887, Note_on_c, 4, 80, 102
1, 50887, Note_on_c, 4, 68, 93
1, 50887, Note_on_c, 5, 59, 99
1, 50887, Note_on_c, 5, 68, 87
1, 50887, Note_on_c, 5, 64, 96
1, 50887, Note_on_c, 6, 80, 82
1, 50887, Note_on_c, 6, 68, 87
1, 50887, Note_on_c, 7, 64, 105
1, 50887, Note_on_c, 7, 68, 102
1, 50887, Note_on_c, 7, 40, 108
1, 50887, Note_on_c, 9, 36, 100
1, 50887, Note_on_c, 11, 68, 96
1, 50887, Note_on_c, 11, 59, 74
1, 50887, Note_on_c, 11, 72, 62
1, 50887, Note_on_c, 11, 64, 96
1, 50887, Note_on_c, 13, 47, 96
1, 50887, Note_on_c, 13, 52, 96
1, 50887, Note_on_c, 15, 68, 1
1, 50887, Note_on_c, 15, 80, 1
1, 50887, Lyric_t, "heav"
1, 50894, Note_on_c, 11, 72, 0
1, 50901, Note_on_c, 1, 30, 0
1, 50901, Note_on_c, 5, 69, 0
1, 50903, Control_c, 7, 64, 0
1, 50906, Note_on_c, 5, 66, 0
1, 50919, Note_on_c, 0, 66, 0
1, 50930, Note_on_c, 0, 69, 0
1, 50934, Note_on_c, 6, 69, 0
1, 50966, Note_on_c, 6, 81, 0
1, 51005, Note_on_c, 9, 36, 0
1, 51029, Control_c, 14, 101, 0
1, 51030, Control_c, 14, 100, 0
1, 51031, Control_c, 14, 6, 13
1, 51032, Control_c, 14, 38, 0
1, 51032, Control_c, 14, 101, 0
1, 51033, Control_c, 14, 100, 0
1, 51034, Control_c, 14, 6, 12
1, 51035, Control_c, 14, 38, 0
1, 51070, Note_on_c, 3, 80, 0
1, 51072, Note_on_c, 4, 68, 0
1, 51091, Note_on_c, 4, 80, 0
1, 51120, Note_on_c, 11, 59, 0
1, 51127, Note_on_c, 3, 80, 102
1, 51127, Note_on_c, 4, 80, 87
1, 51127, Note_on_c, 4, 68, 99
1, 51127, Note_on_c, 7, 59, 99
1, 51127, Note_on_c, 9, 54, 47
1, 51127, Note_on_c, 11, 59, 96
1, 51127, Lyric_t, "y "
1, 51134, Note_on_c, 7, 68, 0
1, 51140, Control_c, 7, 64, 127
1, 51162, Note_on_c, 7, 64, 0
1, 51189, Note_on_c, 4, 68, 0
1, 51194, Note_on_c, 4, 80, 0
1, 51194, Note_on_c, 3, 80, 0
1, 51216, Note_on_c, 9, 54, 0
1, 51247, Note_on_c, 3, 80, 114
1, 51247, Note_on_c, 4, 80, 102
1, 51247, Note_on_c, 4, 68, 99
1, 51247, Lyric_t, "on "
1, 51305, Note_on_c, 11, 68, 0
1, 51305, Note_on_c, 11, 59, 0
1, 51305, Note_on_c, 11, 64, 0
1, 51354, Note_on_c, 9, 54, 65
1, 51367, Note_on_c, 7, 64, 93
1, 51367, Note_on_c, 7, 68, 105
1, 51367, Note_on_c, 9, 42, 82
1, 51367, Note_on_c, 11, 59, 74
1, 51367, Note_on_c, 11, 64, 80
1, 51367, Note_on_c, 11, 68, 96
1, 51459, Note_on_c, 7, 59, 0
1, 51472, Note_on_c, 9, 54, 0
1, 51485, Note_on_c, 9, 42, 0
1, 51485, Note_on_c, 15, 68, 0
1, 51485, Note_on_c, 15, 80, 0
1, 51486, Note_on_c, 3, 80, 0
1, 51487, Note_on_c, 3, 78, 111
1, 51487, Note_on_c, 4, 78, 99
1, 51487, Note_on_c, 4, 66, 102
1, 51487, Note_on_c, 15, 66, 1
1, 51487, Note_on_c, 15, 78, 1
1, 51487, Lyric_t, "my "
1, 51491, Note_on_c, 4, 68, 0
1, 51502, Note_on_c, 4, 80, 0
1, 51586, Note_on_c, 4, 66, 0
1, 51586, Note_on_c, 4, 78, 0
1, 51594, Note_on_c, 3, 78, 0
1, 51599, Note_on_c, 11, 59, 0
1, 51605, Note_on_c, 15, 66, 0
1, 51605, Note_on_c, 15, 78, 0
1, 51607, Note_on_c, 3, 78, 117
1, 51607, Note_on_c, 4, 78, 108
1, 51607, Note_on_c, 4, 71, 70
1, 51607, Note_on_c, 4, 66, 105
1, 51607, Note_on_c, 7, 59, 102
1, 51607, Note_on_c, 11, 59, 96
1, 51607, Note_on_c, 15, 66, 1
1, 51607, Note_on_c, 15, 71, 1
1, 51607, Note_on_c, 15, 78, 1
1, 51607, Lyric_t, "heart "
1, 51607, Lyric_t, "\015"
1, 51635, Note_on_c, 7, 68, 0
1, 51642, Note_on_c, 7, 64, 0
1, 51747, Note_on_c, 7, 40, 0
1, 51785, Note_on_c, 11, 59, 0
1, 51785, Note_on_c, 11, 64, 0
1, 51785, Note_on_c, 11, 68, 0
1, 51820, Note_on_c, 0, 64, 0
1, 51835, Note_on_c, 1, 28, 0
1, 51836, Note_on_c, 13, 47, 0
1, 51837, Note_on_c, 13, 52, 0
1, 51847, Note_on_c, 0, 71, 87
1, 51847, Note_on_c, 0, 66, 87
1, 51847, Note_on_c, 1, 35, 111
1, 51847, Note_on_c, 5, 66, 99
1, 51847, Note_on_c, 5, 63, 105
1, 51847, Note_on_c, 6, 66, 80
1, 51847, Note_on_c, 6, 78, 57
1, 51847, Note_on_c, 6, 71, 47
1, 51847, Note_on_c, 7, 47, 111
1, 51847, Note_on_c, 7, 66, 108
1, 51847, Note_on_c, 7, 63, 105
1, 51847, Note_on_c, 9, 36, 100
1, 51847, Note_on_c, 11, 63, 68
1, 51847, Note_on_c, 11, 66, 89
1, 51847, Note_on_c, 11, 59, 71
1, 51847, Note_on_c, 13, 54, 96
1, 51847, Note_on_c, 13, 47, 96
1, 51861, Note_on_c, 6, 68, 0
1, 51861, Control_c, 7, 64, 0
1, 51863, Note_on_c, 5, 68, 0
1, 51867, Note_on_c, 5, 64, 0
1, 51886, Note_on_c, 0, 68, 0
1, 51889, Note_on_c, 7, 59, 0
1, 51897, Note_on_c, 3, 75, 93
1, 51899, Note_on_c, 3, 78, 0
1, 51948, Note_on_c, 6, 80, 0
1, 51965, Note_on_c, 9, 36, 0
1, 51967, Note_on_c, 3, 73, 96
1, 51995, Note_on_c, 3, 75, 0
1, 52069, Note_on_c, 3, 73, 0
1, 52077, Note_on_c, 11, 59, 0
1, 52079, Control_c, 7, 64, 127
1, 52087, Note_on_c, 3, 71, 105
1, 52087, Note_on_c, 7, 59, 76
1, 52087, Note_on_c, 11, 59, 96
1, 52132, Note_on_c, 7, 66, 0
1, 52140, Note_on_c, 7, 63, 0
1, 52265, Note_on_c, 11, 63, 0
1, 52265, Note_on_c, 11, 59, 0
1, 52265, Note_on_c, 11, 66, 0
1, 52321, Note_on_c, 7, 59, 0
1, 52327, Note_on_c, 7, 66, 108
1, 52327, Note_on_c, 7, 63, 102
1, 52327, Note_on_c, 9, 42, 80
1, 52327, Note_on_c, 9, 54, 31
1, 52327, Note_on_c, 11, 59, 76
1, 52327, Note_on_c, 11, 63, 74
1, 52327, Note_on_c, 11, 66, 96
1, 52445, Note_on_c, 9, 42, 0
1, 52555, Note_on_c, 11, 59, 0
1, 52567, Note_on_c, 7, 59, 70
1, 52567, Note_on_c, 11, 59, 96
1, 52571, Note_on_c, 9, 54, 0
1, 52576, Note_on_c, 7, 66, 0
1, 52620, Note_on_c, 7, 63, 0
1, 52685, Note_on_c, 11, 66, 0
1, 52691, Note_on_c, 11, 59, 0
1, 52745, Note_on_c, 11, 63, 0
1, 52787, Note_on_c, 3, 71, 0
1, 52796, Note_on_c, 0, 66, 0
1, 52802, Note_on_c, 5, 63, 0
1, 52807, Note_on_c, 0, 64, 66
1, 52807, Note_on_c, 3, 83, 111
1, 52807, Note_on_c, 5, 64, 105
1, 52807, Note_on_c, 7, 66, 102
1, 52807, Note_on_c, 7, 64, 105
1, 52807, Note_on_c, 9, 36, 100
1, 52807, Note_on_c, 11, 66, 96
1, 52807, Note_on_c, 11, 59, 72
1, 52807, Note_on_c, 11, 64, 77
1, 52807, Lyric_t, "I "
1, 52823, Control_c, 7, 64, 0
1, 52832, Control_c, 4, 11, 127
1, 52832, Control_c, 15, 11, 127
1, 52838, Note_on_c, 7, 59, 0
1, 52883, Control_c, 4, 11, 126
1, 52883, Control_c, 15, 11, 126
1, 52907, Note_on_c, 3, 83, 0
1, 52920, Control_c, 4, 11, 125
1, 52920, Control_c, 15, 11, 125
1, 52925, Note_on_c, 9, 36, 0
1, 52927, Note_on_c, 3, 83, 108
1, 52927, Note_on_c, 9, 36, 59
1, 52927, Lyric_t, "can't "
1, 52954, Control_c, 7, 64, 127
1, 52971, Control_c, 4, 11, 124
1, 52971, Control_c, 15, 11, 124
1, 53009, Control_c, 4, 11, 123
1, 53009, Control_c, 15, 11, 123
1, 53035, Note_on_c, 9, 54, 35
1, 53038, Note_on_c, 11, 59, 0
1, 53045, Note_on_c, 9, 36, 0
1, 53047, Note_on_c, 7, 59, 64
1, 53047, Note_on_c, 11, 59, 96
1, 53059, Control_c, 4, 11, 122
1, 53059, Control_c, 15, 11, 122
1, 53073, Note_on_c, 9, 54, 0
1, 53094, Note_on_c, 9, 54, 47
1, 53097, Control_c, 4, 11, 121
1, 53097, Control_c, 15, 11, 121
1, 53098, Note_on_c, 7, 47, 0
1, 53105, Note_on_c, 11, 64, 0
1, 53109, Note_on_c, 7, 66, 0
1, 53111, Note_on_c, 3, 83, 0
1, 53113, Note_on_c, 7, 64, 0
1, 53132, Note_on_c, 9, 54, 0
1, 53148, Control_c, 4, 11, 120
1, 53148, Control_c, 15, 11, 120
1, 53154, Note_on_c, 9, 54, 60
1, 53167, Note_on_c, 3, 83, 111
1, 53167, Note_on_c, 9, 43, 79
1, 53167, Lyric_t, "make "
1, 53186, Control_c, 4, 11, 119
1, 53186, Control_c, 15, 11, 119
1, 53192, Note_on_c, 9, 54, 0
1, 53210, Note_on_c, 9, 54, 72
1, 53225, Note_on_c, 11, 66, 0
1, 53225, Note_on_c, 11, 59, 0
1, 53236, Control_c, 4, 11, 118
1, 53236, Control_c, 15, 11, 118
1, 53248, Note_on_c, 9, 54, 0
1, 53259, Note_on_c, 5, 64, 0
1, 53274, Control_c, 4, 11, 117
1, 53274, Control_c, 15, 11, 117
1, 53277, Note_on_c, 9, 54, 86
1, 53282, Note_on_c, 9, 41, 109
1, 53285, Note_on_c, 9, 43, 0
1, 53287, Note_on_c, 0, 63, 61
1, 53287, Note_on_c, 5, 63, 105
1, 53287, Note_on_c, 7, 63, 99
1, 53287, Note_on_c, 7, 66, 108
1, 53287, Note_on_c, 7, 47, 76
1, 53287, Note_on_c, 11, 66, 96
1, 53287, Note_on_c, 11, 59, 79
1, 53287, Note_on_c, 11, 63, 74
1, 53288, Note_on_c, 9, 38, 102
1, 53298, Note_on_c, 0, 64, 0
1, 53306, Note_on_c, 7, 59, 0
1, 53315, Note_on_c, 9, 54, 0
1, 53323, Control_c, 7, 64, 0
1, 53325, Control_c, 4, 11, 116
1, 53325, Control_c, 15, 11, 116
1, 53363, Control_c, 4, 11, 115
1, 53363, Control_c, 15, 11, 115
1, 53400, Note_on_c, 9, 41, 0
1, 53406, Note_on_c, 9, 38, 0
1, 53407, Note_on_c, 3, 81, 102
1, 53407, Lyric_t, "it "
1, 53413, Control_c, 4, 11, 114
1, 53413, Control_c, 15, 11, 114
1, 53427, Note_on_c, 3, 83, 0
1, 53451, Control_c, 4, 11, 113
1, 53451, Control_c, 15, 11, 113
1, 53486, Control_c, 7, 64, 127
1, 53490, Note_on_c, 3, 81, 0
1, 53502, Control_c, 4, 11, 112
1, 53502, Control_c, 15, 11, 112
1, 53516, Note_on_c, 11, 59, 0
1, 53527, Note_on_c, 3, 81, 108
1, 53527, Note_on_c, 7, 59, 70
1, 53527, Note_on_c, 11, 59, 96
1, 53527, Lyric_t, "a"
1, 53539, Control_c, 4, 11, 111
1, 53539, Control_c, 15, 11, 111
1, 53543, Note_on_c, 7, 63, 0
1, 53552, Note_on_c, 7, 47, 0
1, 53556, Note_on_c, 7, 66, 0
1, 53590, Control_c, 4, 11, 110
1, 53590, Control_c, 15, 11, 110
1, 53626, Note_on_c, 7, 59, 0
1, 53628, Control_c, 4, 11, 109
1, 53628, Control_c, 15, 11, 109
1, 53635, Note_on_c, 3, 81, 0
1, 53647, Note_on_c, 3, 81, 108
1, 53647, Lyric_t, "lone. "
1, 53647, Lyric_t, "\015"
1, 53678, Control_c, 4, 11, 108
1, 53678, Control_c, 15, 11, 108
1, 53705, Note_on_c, 11, 66, 0
1, 53705, Note_on_c, 11, 59, 0
1, 53716, Note_on_c, 5, 66, 0
1, 53716, Control_c, 4, 11, 107
1, 53716, Control_c, 15, 11, 107
1, 53735, Note_on_c, 4, 66, 0
1, 53735, Note_on_c, 15, 66, 0
1, 53739, Note_on_c, 5, 63, 0
1, 53739, Note_on_c, 15, 71, 0
1, 53739, Note_on_c, 4, 71, 0
1, 53744, Note_on_c, 6, 71, 0
1, 53755, Note_on_c, 3, 81, 0
1, 53755, Note_on_c, 0, 63, 0
1, 53763, Note_on_c, 4, 78, 0
1, 53763, Note_on_c, 15, 78, 0
1, 53765, Note_on_c, 11, 63, 0
1, 53765, Note_on_c, 13, 54, 0
1, 53765, Note_on_c, 13, 47, 0
1, 53767, Note_on_c, 0, 69, 96
1, 53767, Note_on_c, 0, 66, 90
1, 53767, Note_on_c, 1, 30, 117
1, 53767, Note_on_c, 3, 80, 114
1, 53767, Note_on_c, 5, 66, 93
1, 53767, Note_on_c, 5, 69, 96
1, 53767, Note_on_c, 5, 61, 108
1, 53767, Note_on_c, 6, 69, 87
1, 53767, Note_on_c, 6, 81, 87
1, 53767, Note_on_c, 7, 61, 102
1, 53767, Note_on_c, 7, 66, 87
1, 53767, Note_on_c, 7, 69, 105
1, 53767, Note_on_c, 7, 42, 102
1, 53767, Note_on_c, 9, 36, 100
1, 53767, Note_on_c, 9, 49, 70
1, 53767, Note_on_c, 11, 61, 96
1, 53767, Note_on_c, 11, 66, 70
1, 53767, Note_on_c, 11, 69, 96
1, 53767, Note_on_c, 13, 49, 95
1, 53767, Note_on_c, 13, 54, 96
1, 53770, Control_c, 7, 64, 0
1, 53772, Note_on_c, 1, 35, 0
1, 53784, Note_on_c, 5, 59, 0
1, 53790, Note_on_c, 0, 71, 0
1, 53795, Note_on_c, 6, 66, 0
1, 53805, Control_c, 4, 11, 127
1, 53805, Control_c, 15, 11, 127
1, 53807, Note_on_c, 6, 78, 0
1, 53885, Note_on_c, 9, 36, 0
1, 53885, Note_on_c, 9, 49, 0
1, 53993, Note_on_c, 11, 61, 0
1, 53997, Note_on_c, 3, 80, 0
1, 54002, Control_c, 7, 64, 127
1, 54007, Note_on_c, 3, 78, 114
1, 54007, Note_on_c, 7, 57, 84
1, 54007, Note_on_c, 11, 61, 96
1, 54038, Note_on_c, 7, 69, 0
1, 54048, Note_on_c, 7, 61, 0
1, 54058, Note_on_c, 7, 66, 0
1, 54185, Note_on_c, 11, 66, 0
1, 54185, Note_on_c, 11, 69, 0
1, 54218, Note_on_c, 11, 61, 0
1, 54226, Note_on_c, 7, 57, 0
1, 54247, Note_on_c, 7, 69, 105
1, 54247, Note_on_c, 7, 66, 105
1, 54247, Note_on_c, 7, 61, 105
1, 54247, Note_on_c, 9, 54, 54
1, 54247, Note_on_c, 9, 42, 80
1, 54247, Note_on_c, 11, 61, 96
1, 54247, Note_on_c, 11, 66, 96
1, 54247, Note_on_c, 11, 69, 96
1, 54365, Note_on_c, 9, 42, 0
1, 54367, Note_on_c, 3, 76, 111
1, 54383, Note_on_c, 3, 78, 0
1, 54471, Note_on_c, 9, 54, 0
1, 54472, Note_on_c, 7, 69, 0
1, 54479, Note_on_c, 11, 61, 0
1, 54487, Note_on_c, 7, 57, 58
1, 54487, Note_on_c, 7, 54, 58
1, 54487, Note_on_c, 11, 61, 96
1, 54520, Note_on_c, 7, 66, 0
1, 54528, Note_on_c, 7, 54, 0
1, 54546, Note_on_c, 7, 61, 0
1, 54605, Note_on_c, 11, 61, 0
1, 54617, Note_on_c, 7, 42, 0
1, 54632, Note_on_c, 7, 57, 0
1, 54665, Note_on_c, 11, 66, 0
1, 54665, Note_on_c, 11, 69, 0
1, 54670, Note_on_c, 13, 49, 0
1, 54706, Note_on_c, 13, 54, 0
1, 54722, Note_on_c, 0, 66, 0
1, 54727, Note_on_c, 0, 68, 93
1, 54727, Note_on_c, 0, 64, 55
1, 54727, Note_on_c, 1, 28, 105
1, 54727, Note_on_c, 4, 80, 102
1, 54727, Note_on_c, 4, 68, 93
1, 54727, Note_on_c, 5, 68, 87
1, 54727, Note_on_c, 5, 64, 96
1, 54727, Note_on_c, 5, 59, 96
1, 54727, Note_on_c, 6, 80, 80
1, 54727, Note_on_c, 6, 68, 82
1, 54727, Note_on_c, 7, 64, 96
1, 54727, Note_on_c, 7, 68, 90
1, 54727, Note_on_c, 7, 40, 105
1, 54727, Note_on_c, 9, 36, 100
1, 54727, Note_on_c, 11, 68, 96
1, 54727, Note_on_c, 11, 59, 74
1, 54727, Note_on_c, 11, 72, 62
1, 54727, Note_on_c, 11, 64, 96
1, 54727, Note_on_c, 13, 47, 96
1, 54727, Note_on_c, 13, 52, 96
1, 54727, Note_on_c, 15, 68, 1
1, 54727, Note_on_c, 15, 80, 1
1, 54734, Note_on_c, 11, 72, 0
1, 54739, Lyric_t, "Heav"
1, 54741, Note_on_c, 1, 30, 0
1, 54744, Control_c, 7, 64, 0
1, 54757, Note_on_c, 0, 69, 0
1, 54764, Note_on_c, 5, 69, 0
1, 54766, Note_on_c, 6, 69, 0
1, 54771, Note_on_c, 5, 66, 0
1, 54780, Note_on_c, 6, 81, 0
1, 54805, Note_on_c, 5, 61, 0
1, 54845, Note_on_c, 9, 36, 0
1, 54912, Note_on_c, 4, 68, 0
1, 54931, Note_on_c, 4, 80, 0
1, 54957, Control_c, 7, 64, 127
1, 54960, Note_on_c, 11, 59, 0
1, 54967, Note_on_c, 4, 80, 87
1, 54967, Note_on_c, 4, 68, 99
1, 54967, Note_on_c, 7, 59, 84
1, 54967, Note_on_c, 9, 54, 44
1, 54967, Note_on_c, 11, 59, 96
1, 54979, Lyric_t, "y "
1, 54996, Note_on_c, 7, 68, 0
1, 55000, Note_on_c, 7, 64, 0
1, 55029, Note_on_c, 4, 68, 0
1, 55034, Note_on_c, 4, 80, 0
1, 55087, Note_on_c, 4, 80, 102
1, 55087, Note_on_c, 4, 68, 99
1, 55099, Lyric_t, "on "
1, 55145, Note_on_c, 9, 54, 0
1, 55145, Note_on_c, 11, 68, 0
1, 55145, Note_on_c, 11, 59, 0
1, 55145, Note_on_c, 11, 64, 0
1, 55194, Note_on_c, 9, 54, 65
1, 55207, Note_on_c, 7, 68, 93
1, 55207, Note_on_c, 7, 64, 99
1, 55207, Note_on_c, 9, 42, 82
1, 55207, Note_on_c, 11, 59, 74
1, 55207, Note_on_c, 11, 64, 80
1, 55207, Note_on_c, 11, 68, 96
1, 55256, Note_on_c, 3, 76, 0
1, 55312, Note_on_c, 9, 54, 0
1, 55325, Note_on_c, 9, 42, 0
1, 55325, Note_on_c, 15, 68, 0
1, 55325, Note_on_c, 15, 80, 0
1, 55327, Note_on_c, 4, 78, 99
1, 55327, Note_on_c, 4, 66, 102
1, 55327, Note_on_c, 15, 66, 1
1, 55327, Note_on_c, 15, 78, 1
1, 55331, Note_on_c, 4, 68, 0
1, 55339, Lyric_t, "my "
1, 55342, Note_on_c, 4, 80, 0
1, 55351, Note_on_c, 7, 59, 0
1, 55426, Note_on_c, 4, 66, 0
1, 55426, Note_on_c, 4, 78, 0
1, 55439, Note_on_c, 11, 59, 0
1, 55445, Note_on_c, 15, 66, 0
1, 55445, Note_on_c, 15, 78, 0
1, 55447, Note_on_c, 4, 78, 108
1, 55447, Note_on_c, 4, 71, 70
1, 55447, Note_on_c, 4, 66, 105
1, 55447, Note_on_c, 7, 52, 57
1, 55447, Note_on_c, 7, 59, 87
1, 55447, Note_on_c, 11, 59, 96
1, 55447, Note_on_c, 15, 66, 1
1, 55447, Note_on_c, 15, 71, 1
1, 55447, Note_on_c, 15, 78, 1
1, 55459, Note_on_c, 7, 68, 0
1, 55459, Lyric_t, "heart. "
1, 55459, Lyric_t, "\015"
1, 55462, Note_on_c, 7, 64, 0
1, 55625, Note_on_c, 11, 64, 0
1, 55625, Note_on_c, 11, 59, 0
1, 55625, Note_on_c, 11, 68, 0
1, 55635, Note_on_c, 5, 59, 0
1, 55635, Note_on_c, 7, 40, 0
1, 55636, Note_on_c, 7, 52, 0
1, 55670, Control_c, 7, 64, 0
1, 55675, Note_on_c, 1, 28, 0
1, 55682, Note_on_c, 13, 47, 0
1, 55685, Note_on_c, 13, 52, 0
1, 55687, Note_on_c, 0, 71, 87
1, 55687, Note_on_c, 0, 66, 64
1, 55687, Note_on_c, 1, 35, 117
1, 55687, Note_on_c, 5, 63, 78
1, 55687, Note_on_c, 5, 66, 84
1, 55687, Note_on_c, 5, 59, 102
1, 55687, Note_on_c, 6, 71, 78
1, 55687, Note_on_c, 6, 83, 62
1, 55687, Note_on_c, 6, 78, 58
1, 55687, Note_on_c, 7, 66, 111
1, 55687, Note_on_c, 7, 47, 105
1, 55687, Note_on_c, 7, 63, 105
1, 55687, Note_on_c, 9, 36, 100
1, 55687, Note_on_c, 11, 63, 68
1, 55687, Note_on_c, 11, 66, 89
1, 55687, Note_on_c, 11, 59, 71
1, 55687, Note_on_c, 13, 54, 96
1, 55687, Note_on_c, 13, 47, 96
1, 55693, Note_on_c, 5, 64, 0
1, 55700, Note_on_c, 5, 68, 0
1, 55710, Note_on_c, 0, 68, 0
1, 55714, Note_on_c, 6, 80, 0
1, 55715, Note_on_c, 0, 64, 0
1, 55721, Note_on_c, 6, 68, 0
1, 55728, Note_on_c, 7, 59, 0
1, 55805, Note_on_c, 9, 36, 0
1, 55875, Control_c, 7, 64, 127
1, 55917, Note_on_c, 11, 59, 0
1, 55927, Note_on_c, 7, 59, 62
1, 55927, Note_on_c, 11, 59, 96
1, 55956, Note_on_c, 7, 66, 0
1, 55981, Note_on_c, 7, 63, 0
1, 56105, Note_on_c, 11, 66, 0
1, 56105, Note_on_c, 11, 59, 0
1, 56105, Note_on_c, 11, 63, 0
1, 56154, Note_on_c, 7, 59, 0
1, 56167, Note_on_c, 7, 66, 108
1, 56167, Note_on_c, 7, 63, 99
1, 56167, Note_on_c, 9, 42, 80
1, 56167, Note_on_c, 11, 59, 76
1, 56167, Note_on_c, 11, 63, 74
1, 56167, Note_on_c, 11, 66, 96
1, 56285, Note_on_c, 9, 42, 0
1, 56391, Note_on_c, 7, 63, 0
1, 56391, Note_on_c, 7, 66, 0
1, 56395, Note_on_c, 11, 59, 0
1, 56407, Note_on_c, 7, 59, 64
1, 56407, Note_on_c, 9, 47, 70
1, 56407, Note_on_c, 11, 59, 96
1, 56422, Note_on_c, 7, 47, 0
1, 56525, Note_on_c, 9, 47, 0
1, 56525, Note_on_c, 11, 66, 0
1, 56527, Note_on_c, 3, 83, 117
1, 56527, Note_on_c, 9, 47, 43
1, 56527, Lyric_t, "I "
1, 56585, Note_on_c, 11, 59, 0
1, 56585, Note_on_c, 11, 63, 0
1, 56619, Note_on_c, 1, 35, 0
1, 56628, Note_on_c, 7, 59, 0
1, 56633, Note_on_c, 0, 66, 0
1, 56644, Note_on_c, 5, 63, 0
1, 56645, Note_on_c, 9, 47, 0
1, 56647, Note_on_c, 0, 64, 61
1, 56647, Note_on_c, 1, 35, 87
1, 56647, Note_on_c, 5, 54, 84
1, 56647, Note_on_c, 5, 64, 78
1, 56647, Note_on_c, 6, 76, 34
1, 56647, Note_on_c, 7, 66, 102
1, 56647, Note_on_c, 7, 71, 105
1, 56647, Note_on_c, 7, 64, 102
1, 56647, Note_on_c, 7, 47, 84
1, 56647, Note_on_c, 9, 36, 90
1, 56647, Note_on_c, 11, 66, 96
1, 56647, Note_on_c, 11, 59, 72
1, 56647, Note_on_c, 11, 64, 77
1, 56670, Control_c, 7, 64, 0
1, 56672, Control_c, 4, 11, 127
1, 56672, Control_c, 15, 11, 127
1, 56681, Note_on_c, 6, 78, 0
1, 56720, Note_on_c, 3, 83, 0
1, 56723, Control_c, 4, 11, 126
1, 56723, Control_c, 15, 11, 126
1, 56760, Control_c, 4, 11, 125
1, 56760, Control_c, 15, 11, 125
1, 56765, Note_on_c, 9, 36, 0
1, 56767, Note_on_c, 3, 83, 114
1, 56767, Note_on_c, 9, 43, 70
1, 56767, Lyric_t, "can't "
1, 56805, Control_c, 7, 64, 127
1, 56811, Control_c, 4, 11, 124
1, 56811, Control_c, 15, 11, 124
1, 56849, Control_c, 4, 11, 123
1, 56849, Control_c, 15, 11, 123
1, 56875, Note_on_c, 9, 54, 35
1, 56878, Note_on_c, 11, 59, 0
1, 56885, Note_on_c, 9, 43, 0
1, 56887, Note_on_c, 7, 59, 40
1, 56887, Note_on_c, 9, 43, 84
1, 56887, Note_on_c, 11, 59, 96
1, 56899, Control_c, 4, 11, 122
1, 56899, Control_c, 15, 11, 122
1, 56913, Note_on_c, 9, 54, 0
1, 56920, Note_on_c, 7, 64, 0
1, 56934, Note_on_c, 9, 54, 47
1, 56936, Note_on_c, 3, 83, 0
1, 56937, Control_c, 4, 11, 121
1, 56937, Control_c, 15, 11, 121
1, 56968, Note_on_c, 7, 66, 0
1, 56972, Note_on_c, 9, 54, 0
1, 56988, Control_c, 4, 11, 120
1, 56988, Control_c, 15, 11, 120
1, 56994, Note_on_c, 9, 54, 60
1, 57005, Note_on_c, 11, 64, 0
1, 57005, Note_on_c, 9, 43, 0
1, 57007, Note_on_c, 3, 83, 114
1, 57007, Note_on_c, 9, 43, 94
1, 57007, Lyric_t, "find "
1, 57026, Control_c, 4, 11, 119
1, 57026, Control_c, 15, 11, 119
1, 57032, Note_on_c, 9, 54, 0
1, 57050, Note_on_c, 9, 54, 72
1, 57065, Note_on_c, 11, 59, 0
1, 57076, Control_c, 4, 11, 118
1, 57076, Control_c, 15, 11, 118
1, 57077, Note_on_c, 5, 59, 0
1, 57088, Note_on_c, 9, 54, 0
1, 57097, Note_on_c, 11, 66, 0
1, 57109, Note_on_c, 5, 64, 0
1, 57114, Control_c, 4, 11, 117
1, 57114, Control_c, 15, 11, 117
1, 57117, Note_on_c, 9, 54, 86
1, 57122, Note_on_c, 9, 41, 96
1, 57125, Note_on_c, 9, 43, 0
1, 57127, Note_on_c, 0, 63, 55
1, 57127, Note_on_c, 5, 63, 78
1, 57127, Note_on_c, 5, 59, 102
1, 57127, Note_on_c, 6, 78, 47
1, 57127, Note_on_c, 7, 63, 99
1, 57127, Note_on_c, 7, 66, 105
1, 57127, Note_on_c, 11, 66, 96
1, 57127, Note_on_c, 11, 59, 79
1, 57127, Note_on_c, 11, 63, 74
1, 57128, Note_on_c, 9, 38, 102
1, 57132, Control_c, 7, 64, 0
1, 57144, Note_on_c, 7, 71, 0
1, 57155, Note_on_c, 9, 54, 0
1, 57165, Control_c, 4, 11, 116
1, 57165, Control_c, 15, 11, 116
1, 57166, Note_on_c, 0, 64, 0
1, 57167, Note_on_c, 6, 76, 0
1, 57203, Control_c, 4, 11, 115
1, 57203, Control_c, 15, 11, 115
1, 57217, Note_on_c, 3, 83, 0
1, 57240, Note_on_c, 9, 41, 0
1, 57246, Note_on_c, 9, 38, 0
1, 57247, Note_on_c, 3, 81, 108
1, 57247, Lyric_t, "my "
1, 57253, Control_c, 4, 11, 114
1, 57253, Control_c, 15, 11, 114
1, 57266, Note_on_c, 7, 59, 0
1, 57291, Control_c, 4, 11, 113
1, 57291, Control_c, 15, 11, 113
1, 57298, Control_c, 7, 64, 127
1, 57304, Note_on_c, 1, 35, 0
1, 57319, Note_on_c, 3, 81, 0
1, 57342, Control_c, 4, 11, 112
1, 57342, Control_c, 15, 11, 112
1, 57356, Note_on_c, 11, 59, 0
1, 57367, Note_on_c, 1, 35, 108
1, 57367, Note_on_c, 3, 81, 114
1, 57367, Note_on_c, 7, 59, 70
1, 57367, Note_on_c, 9, 36, 81
1, 57367, Note_on_c, 11, 59, 96
1, 57367, Lyric_t, "way "
1, 57379, Control_c, 4, 11, 111
1, 57379, Control_c, 15, 11, 111
1, 57428, Note_on_c, 3, 81, 0
1, 57430, Control_c, 4, 11, 110
1, 57430, Control_c, 15, 11, 110
1, 57466, Control_c, 7, 64, 0
1, 57468, Control_c, 4, 11, 109
1, 57468, Control_c, 15, 11, 109
1, 57485, Note_on_c, 9, 36, 0
1, 57487, Note_on_c, 3, 81, 117
1, 57487, Lyric_t, "home. "
1, 57487, Lyric_t, "\015"
1, 57518, Control_c, 4, 11, 108
1, 57518, Control_c, 15, 11, 108
1, 57545, Note_on_c, 11, 66, 0
1, 57545, Note_on_c, 11, 63, 0
1, 57556, Control_c, 4, 11, 107
1, 57556, Control_c, 15, 11, 107
1, 57557, Note_on_c, 1, 35, 0
1, 57572, Note_on_c, 0, 63, 0
1, 57575, Note_on_c, 15, 66, 0
1, 57575, Note_on_c, 4, 66, 0
1, 57579, Note_on_c, 4, 71, 0
1, 57579, Note_on_c, 15, 71, 0
1, 57581, Note_on_c, 7, 47, 0
1, 57581, Note_on_c, 7, 59, 0
1, 57584, Note_on_c, 7, 66, 0
1, 57589, Note_on_c, 5, 63, 0
1, 57590, Note_on_c, 7, 63, 0
1, 57592, Note_on_c, 5, 59, 0
1, 57601, Note_on_c, 6, 71, 0
1, 57602, Note_on_c, 6, 78, 0
1, 57603, Note_on_c, 4, 78, 0
1, 57603, Note_on_c, 15, 78, 0
1, 57603, Note_on_c, 13, 54, 0
1, 57605, Note_on_c, 13, 47, 0
1, 57605, Note_on_c, 11, 59, 0
1, 57607, Note_on_c, 0, 69, 82
1, 57607, Note_on_c, 0, 66, 84
1, 57607, Note_on_c, 1, 30, 117
1, 57607, Note_on_c, 3, 80, 117
1, 57607, Note_on_c, 5, 69, 87
1, 57607, Note_on_c, 5, 61, 108
1, 57607, Note_on_c, 6, 90, 84
1, 57607, Note_on_c, 6, 78, 74
1, 57607, Note_on_c, 6, 69, 80
1, 57607, Note_on_c, 7, 66, 84
1, 57607, Note_on_c, 7, 69, 96
1, 57607, Note_on_c, 7, 61, 96
1, 57607, Note_on_c, 7, 42, 105
1, 57607, Note_on_c, 9, 36, 100
1, 57607, Note_on_c, 9, 49, 70
1, 57607, Note_on_c, 11, 61, 96
1, 57607, Note_on_c, 11, 66, 70
1, 57607, Note_on_c, 11, 69, 96
1, 57607, Note_on_c, 13, 49, 96
1, 57607, Note_on_c, 13, 54, 96
1, 57609, Note_on_c, 6, 83, 0
1, 57640, Note_on_c, 0, 71, 0
1, 57645, Control_c, 4, 11, 127
1, 57645, Control_c, 4, 11, 127
1, 57645, Control_c, 15, 11, 127
1, 57645, Control_c, 15, 11, 127
1, 57725, Note_on_c, 9, 36, 0
1, 57725, Note_on_c, 9, 49, 0
1, 57755, Pitch_bend_c, 14, 8296
1, 57770, Note_on_c, 3, 81, 0
1, 57833, Note_on_c, 11, 61, 0
1, 57839, Control_c, 7, 64, 127
1, 57847, Note_on_c, 3, 78, 111
1, 57847, Note_on_c, 7, 57, 74
1, 57847, Note_on_c, 11, 61, 96
1, 57847, Note_on_c, 14, 42, 98
1, 57853, Pitch_bend_c, 14, 8192
1, 57861, Note_on_c, 3, 80, 0
1, 57873, Note_on_c, 7, 69, 0
1, 57895, Note_on_c, 7, 66, 0
1, 57897, Note_on_c, 7, 61, 0
1, 57965, Note_on_c, 14, 42, 0
1, 57967, Note_on_c, 14, 44, 99
1, 58025, Note_on_c, 11, 66, 0
1, 58025, Note_on_c, 11, 69, 0
1, 58058, Note_on_c, 11, 61, 0
1, 58085, Note_on_c, 14, 44, 0
1, 58087, Note_on_c, 7, 69, 105
1, 58087, Note_on_c, 7, 66, 105
1, 58087, Note_on_c, 7, 61, 108
1, 58087, Note_on_c, 9, 42, 80
1, 58087, Note_on_c, 9, 54, 47
1, 58087, Note_on_c, 11, 61, 96
1, 58087, Note_on_c, 11, 66, 96
1, 58087, Note_on_c, 11, 69, 96
1, 58087, Note_on_c, 14, 47, 104
1, 58134, Note_on_c, 7, 57, 0
1, 58204, Note_on_c, 3, 78, 0
1, 58205, Note_on_c, 9, 42, 0
1, 58205, Note_on_c, 14, 47, 0
1, 58207, Note_on_c, 3, 76, 108
1, 58207, Note_on_c, 14, 49, 107
1, 58303, Note_on_c, 9, 54, 0
1, 58306, Note_on_c, 7, 69, 0
1, 58319, Note_on_c, 11, 61, 0
1, 58325, Note_on_c, 14, 49, 0
1, 58327, Note_on_c, 7, 54, 52
1, 58327, Note_on_c, 7, 57, 84
1, 58327, Note_on_c, 11, 61, 96
1, 58327, Note_on_c, 14, 52, 109
1, 58348, Note_on_c, 7, 66, 0
1, 58356, Note_on_c, 7, 42, 0
1, 58364, Note_on_c, 7, 54, 0
1, 58380, Note_on_c, 7, 61, 0
1, 58426, Note_on_c, 7, 57, 0
1, 58445, Note_on_c, 11, 61, 0
1, 58445, Note_on_c, 14, 52, 0
1, 58447, Note_on_c, 14, 54, 111
1, 58505, Note_on_c, 11, 66, 0
1, 58505, Note_on_c, 11, 69, 0
1, 58529, Note_on_c, 13, 49, 0
1, 58536, Note_on_c, 13, 54, 0
1, 58562, Note_on_c, 5, 54, 0
1, 58565, Note_on_c, 14, 54, 0
1, 58566, Note_on_c, 5, 61, 0
1, 58567, Note_on_c, 0, 68, 90
1, 58567, Note_on_c, 0, 64, 58
1, 58567, Note_on_c, 1, 28, 105
1, 58567, Note_on_c, 4, 80, 102
1, 58567, Note_on_c, 4, 68, 93
1, 58567, Note_on_c, 5, 59, 93
1, 58567, Note_on_c, 5, 68, 87
1, 58567, Note_on_c, 5, 64, 87
1, 58567, Note_on_c, 6, 88, 76
1, 58567, Note_on_c, 6, 76, 72
1, 58567, Note_on_c, 6, 68, 80
1, 58567, Note_on_c, 7, 66, 87
1, 58567, Note_on_c, 7, 68, 96
1, 58567, Note_on_c, 7, 40, 105
1, 58567, Note_on_c, 9, 36, 100
1, 58567, Note_on_c, 11, 68, 96
1, 58567, Note_on_c, 11, 59, 74
1, 58567, Note_on_c, 11, 64, 96
1, 58567, Note_on_c, 13, 47, 96
1, 58567, Note_on_c, 13, 52, 96
1, 58567, Note_on_c, 14, 54, 116
1, 58567, Note_on_c, 15, 68, 1
1, 58567, Note_on_c, 15, 80, 1
1, 58573, Note_on_c, 0, 66, 0
1, 58577, Note_on_c, 5, 69, 0
1, 58581, Note_on_c, 1, 30, 0
1, 58590, Control_c, 7, 64, 0
1, 58603, Note_on_c, 5, 66, 0
1, 58604, Note_on_c, 0, 69, 0
1, 58617, Note_on_c, 6, 69, 0
1, 58630, Note_on_c, 6, 90, 0
1, 58634, Pitch_bend_c, 14, 9600
1, 58655, Note_on_c, 6, 78, 0
1, 58685, Note_on_c, 9, 36, 0
1, 58687, Note_on_c, 3, 78, 90
1, 58701, Note_on_c, 3, 76, 0
1, 58752, Note_on_c, 4, 68, 0
1, 58752, Control_c, 7, 64, 127
1, 58771, Note_on_c, 4, 80, 0
1, 58798, Pitch_bend_c, 14, 8192
1, 58800, Note_on_c, 11, 59, 0
1, 58805, Note_on_c, 14, 54, 0
1, 58807, Note_on_c, 3, 80, 105
1, 58807, Note_on_c, 4, 80, 87
1, 58807, Note_on_c, 4, 68, 99
1, 58807, Note_on_c, 7, 59, 87
1, 58807, Note_on_c, 9, 54, 41
1, 58807, Note_on_c, 11, 59, 96
1, 58807, Note_on_c, 14, 56, 126
1, 58818, Note_on_c, 3, 78, 0
1, 58841, Note_on_c, 7, 66, 0
1, 58844, Note_on_c, 7, 68, 0
1, 58869, Note_on_c, 4, 68, 0
1, 58874, Note_on_c, 4, 80, 0
1, 58926, Note_on_c, 3, 80, 0
1, 58927, Note_on_c, 3, 78, 111
1, 58927, Note_on_c, 4, 80, 102
1, 58927, Note_on_c, 4, 68, 99
1, 58985, Note_on_c, 11, 64, 0
1, 58985, Note_on_c, 11, 59, 0
1, 58985, Note_on_c, 11, 68, 0
1, 58995, Note_on_c, 9, 54, 0
1, 58995, Note_on_c, 14, 56, 0
1, 59034, Note_on_c, 9, 54, 65
1, 59047, Note_on_c, 7, 68, 102
1, 59047, Note_on_c, 7, 64, 96
1, 59047, Note_on_c, 7, 52, 87
1, 59047, Note_on_c, 9, 42, 82
1, 59047, Note_on_c, 11, 59, 74
1, 59047, Note_on_c, 11, 64, 80
1, 59047, Note_on_c, 11, 68, 96
1, 59047, Note_on_c, 14, 54, 115
1, 59069, Control_c, 7, 64, 0
1, 59152, Note_on_c, 9, 54, 0
1, 59165, Note_on_c, 9, 42, 0
1, 59165, Note_on_c, 15, 68, 0
1, 59165, Note_on_c, 15, 80, 0
1, 59167, Note_on_c, 4, 78, 99
1, 59167, Note_on_c, 4, 66, 102
1, 59167, Note_on_c, 15, 66, 1
1, 59167, Note_on_c, 15, 78, 1
1, 59171, Note_on_c, 4, 68, 0
1, 59182, Note_on_c, 4, 80, 0
1, 59190, Control_c, 7, 64, 127
1, 59191, Note_on_c, 7, 59, 0
1, 59254, Note_on_c, 14, 54, 0
1, 59266, Note_on_c, 4, 66, 0
1, 59266, Note_on_c, 4, 78, 0
1, 59279, Note_on_c, 11, 59, 0
1, 59285, Note_on_c, 15, 66, 0
1, 59285, Note_on_c, 15, 78, 0
1, 59287, Note_on_c, 4, 78, 108
1, 59287, Note_on_c, 4, 71, 70
1, 59287, Note_on_c, 4, 66, 105
1, 59287, Note_on_c, 7, 59, 64
1, 59287, Note_on_c, 11, 59, 96
1, 59287, Note_on_c, 14, 52, 104
1, 59287, Note_on_c, 15, 66, 1
1, 59287, Note_on_c, 15, 71, 1
1, 59287, Note_on_c, 15, 78, 1
1, 59302, Note_on_c, 7, 68, 0
1, 59306, Note_on_c, 7, 64, 0
1, 59337, Note_on_c, 7, 52, 0
1, 59377, Note_on_c, 7, 40, 0
1, 59393, Note_on_c, 14, 52, 0
1, 59407, Note_on_c, 14, 54, 113
1, 59465, Note_on_c, 11, 68, 0
1, 59465, Note_on_c, 11, 64, 0
1, 59465, Note_on_c, 11, 59, 0
1, 59515, Note_on_c, 1, 28, 0
1, 59525, Note_on_c, 13, 52, 0
1, 59525, Note_on_c, 13, 47, 0
1, 59527, Note_on_c, 0, 71, 82
1, 59527, Note_on_c, 0, 66, 82
1, 59527, Note_on_c, 1, 35, 117
1, 59527, Note_on_c, 5, 66, 87
1, 59527, Note_on_c, 5, 63, 99
1, 59527, Note_on_c, 6, 87, 68
1, 59527, Note_on_c, 6, 75, 64
1, 59527, Note_on_c, 6, 66, 78
1, 59527, Note_on_c, 7, 47, 90
1, 59527, Note_on_c, 7, 63, 90
1, 59527, Note_on_c, 7, 66, 90
1, 59527, Note_on_c, 9, 49, 70
1, 59527, Note_on_c, 9, 36, 100
1, 59527, Note_on_c, 11, 63, 68
1, 59527, Note_on_c, 11, 66, 89
1, 59527, Note_on_c, 11, 59, 71
1, 59527, Note_on_c, 13, 47, 96
1, 59527, Note_on_c, 13, 54, 96
1, 59531, Note_on_c, 3, 78, 0
1, 59552, Note_on_c, 5, 68, 0
1, 59558, Note_on_c, 0, 68, 0
1, 59558, Note_on_c, 6, 88, 0
1, 59562, Note_on_c, 5, 64, 0
1, 59564, Note_on_c, 6, 76, 0
1, 59567, Note_on_c, 0, 64, 0
1, 59567, Control_c, 7, 64, 0
1, 59579, Note_on_c, 6, 68, 0
1, 59645, Note_on_c, 9, 49, 0
1, 59645, Note_on_c, 9, 36, 0
1, 59689, Note_on_c, 7, 59, 0
1, 59701, Control_c, 7, 64, 127
1, 59752, Note_on_c, 7, 66, 0
1, 59757, Note_on_c, 11, 59, 0
1, 59761, Note_on_c, 7, 63, 0
1, 59767, Note_on_c, 7, 59, 72
1, 59767, Note_on_c, 9, 42, 60
1, 59767, Note_on_c, 11, 59, 96
1, 59885, Note_on_c, 9, 42, 0
1, 59887, Note_on_c, 9, 42, 67
1, 59942, Control_c, 0, 11, 127
1, 59945, Note_on_c, 11, 66, 0
1, 59945, Note_on_c, 11, 59, 0
1, 59945, Note_on_c, 11, 63, 0
1, 59962, Control_c, 0, 11, 126
1, 59972, Control_c, 0, 11, 125
1, 59977, Control_c, 6, 11, 125
1, 59992, Control_c, 0, 11, 124
1, 59997, Control_c, 6, 11, 124
1, 60002, Control_c, 0, 11, 123
1, 60005, Note_on_c, 9, 42, 0
1, 60007, Note_on_c, 7, 63, 111
1, 60007, Note_on_c, 9, 46, 70
1, 60007, Note_on_c, 9, 54, 43
1, 60007, Note_on_c, 11, 59, 76
1, 60007, Note_on_c, 11, 63, 74
1, 60007, Note_on_c, 11, 66, 96
1, 60017, Control_c, 6, 11, 122
1, 60020, Control_c, 5, 11, 127
1, 60022, Control_c, 0, 11, 122
1, 60022, Control_c, 7, 64, 0
1, 60032, Control_c, 0, 11, 121
1, 60037, Control_c, 6, 11, 121
1, 60040, Control_c, 5, 11, 126
1, 60050, Control_c, 5, 11, 125
1, 60052, Control_c, 0, 11, 120
1, 60057, Control_c, 6, 11, 119
1, 60060, Control_c, 5, 11, 124
1, 60062, Control_c, 0, 11, 119
1, 60077, Control_c, 6, 11, 118
1, 60080, Control_c, 5, 11, 123
1, 60082, Control_c, 0, 11, 118
1, 60083, Control_c, 7, 64, 127
1, 60090, Control_c, 5, 11, 122
1, 60092, Control_c, 0, 11, 117
1, 60097, Control_c, 6, 11, 116
1, 60100, Control_c, 5, 11, 121
1, 60102, Control_c, 0, 11, 116
1, 60117, Control_c, 6, 11, 115
1, 60120, Control_c, 5, 11, 120
1, 60122, Control_c, 0, 11, 115
1, 60125, Note_on_c, 9, 46, 0
1, 60130, Control_c, 5, 11, 119
1, 60132, Control_c, 0, 11, 114
1, 60137, Control_c, 6, 11, 113
1, 60140, Control_c, 5, 11, 118
1, 60145, Note_on_c, 7, 59, 0
1, 60152, Control_c, 0, 11, 113
1, 60157, Control_c, 6, 11, 112
1, 60160, Control_c, 5, 11, 117
1, 60162, Control_c, 0, 11, 112
1, 60170, Control_c, 5, 11, 116
1, 60177, Control_c, 6, 11, 110
1, 60180, Control_c, 5, 11, 115
1, 60182, Control_c, 0, 11, 111
1, 60192, Control_c, 0, 11, 110
1, 60197, Control_c, 6, 11, 109
1, 60200, Control_c, 5, 11, 114
1, 60210, Control_c, 5, 11, 113
1, 60212, Control_c, 0, 11, 109
1, 60215, Note_on_c, 9, 54, 0
1, 60217, Control_c, 6, 11, 107
1, 60220, Control_c, 5, 11, 112
1, 60222, Control_c, 0, 11, 108
1, 60230, Control_c, 5, 11, 111
1, 60232, Control_c, 0, 11, 107
1, 60235, Note_on_c, 11, 59, 0
1, 60237, Control_c, 6, 11, 106
1, 60247, Note_on_c, 7, 59, 82
1, 60247, Note_on_c, 9, 42, 60
1, 60247, Note_on_c, 11, 59, 96
1, 60250, Control_c, 5, 11, 110
1, 60252, Control_c, 0, 11, 106
1, 60257, Control_c, 6, 11, 104
1, 60258, Note_on_c, 7, 63, 0
1, 60260, Control_c, 5, 11, 109
1, 60262, Control_c, 0, 11, 105
1, 60270, Control_c, 5, 11, 108
1, 60277, Control_c, 6, 11, 103
1, 60282, Control_c, 0, 11, 104
1, 60290, Control_c, 5, 11, 107
1, 60292, Control_c, 0, 11, 103
1, 60297, Control_c, 6, 11, 101
1, 60300, Control_c, 5, 11, 106
1, 60310, Control_c, 5, 11, 105
1, 60312, Control_c, 0, 11, 102
1, 60317, Control_c, 6, 11, 100
1, 60322, Control_c, 0, 11, 101
1, 60330, Control_c, 5, 11, 104
1, 60337, Control_c, 6, 11, 98
1, 60340, Control_c, 5, 11, 103
1, 60342, Control_c, 0, 11, 100
1, 60350, Control_c, 5, 11, 102
1, 60352, Control_c, 0, 11, 99
1, 60357, Control_c, 6, 11, 97
1, 60362, Control_c, 0, 11, 98
1, 60365, Note_on_c, 9, 42, 0
1, 60365, Note_on_c, 11, 66, 0
1, 60367, Note_on_c, 9, 42, 67
1, 60370, Control_c, 5, 11, 101
1, 60377, Control_c, 6, 11, 95
1, 60380, Control_c, 5, 11, 100
1, 60382, Control_c, 0, 11, 97
1, 60390, Control_c, 5, 11, 99
1, 60392, Control_c, 0, 11, 96
1, 60397, Control_c, 6, 11, 94
1, 60400, Control_c, 5, 11, 98
1, 60412, Control_c, 0, 11, 95
1, 60417, Control_c, 6, 11, 92
1, 60420, Control_c, 5, 11, 97
1, 60422, Control_c, 0, 11, 94
1, 60425, Note_on_c, 11, 63, 0
1, 60430, Control_c, 5, 11, 96
1, 60437, Control_c, 6, 11, 90
1, 60440, Control_c, 5, 11, 95
1, 60442, Control_c, 0, 11, 93
1, 60451, Control_c, 13, 11, 126
1, 60452, Control_c, 0, 11, 92
1, 60457, Control_c, 6, 11, 89
1, 60460, Control_c, 5, 11, 94
1, 60470, Control_c, 5, 11, 93
1, 60472, Control_c, 0, 11, 91
1, 60477, Control_c, 6, 11, 87
1, 60478, Control_c, 13, 11, 125
1, 60480, Control_c, 5, 11, 92
1, 60482, Control_c, 0, 11, 90
1, 60485, Note_on_c, 9, 42, 0
1, 60485, Note_on_c, 14, 54, 0
1, 60485, Note_on_c, 11, 59, 0
1, 60487, Note_on_c, 1, 47, 76
1, 60487, Note_on_c, 6, 78, 19
1, 60487, Note_on_c, 7, 63, 84
1, 60487, Note_on_c, 7, 54, 54
1, 60487, Note_on_c, 9, 36, 70
1, 60487, Note_on_c, 9, 49, 45
1, 60487, Note_on_c, 11, 66, 96
1, 60487, Note_on_c, 11, 59, 72
1, 60487, Note_on_c, 11, 63, 77
1, 60489, Note_on_c, 1, 35, 0
1, 60492, Control_c, 0, 11, 89
1, 60493, Control_c, 7, 64, 0
1, 60497, Control_c, 6, 11, 86
1, 60500, Control_c, 5, 11, 91
1, 60506, Control_c, 13, 11, 124
1, 60510, Control_c, 5, 11, 90
1, 60512, Control_c, 0, 11, 88
1, 60512, Control_c, 4, 11, 127
1, 60512, Control_c, 15, 11, 127
1, 60517, Control_c, 6, 11, 84
1, 60519, Control_c, 13, 11, 123
1, 60520, Control_c, 5, 11, 89
1, 60522, Control_c, 0, 11, 87
1, 60537, Control_c, 6, 11, 83
1, 60540, Control_c, 5, 11, 88
1, 60542, Control_c, 0, 11, 86
1, 60547, Control_c, 13, 11, 122
1, 60550, Control_c, 5, 11, 87
1, 60552, Control_c, 0, 11, 85
1, 60557, Control_c, 6, 11, 81
1, 60560, Control_c, 5, 11, 86
1, 60561, Control_c, 13, 11, 121
1, 60563, Control_c, 4, 11, 126
1, 60563, Control_c, 15, 11, 126
1, 60572, Control_c, 0, 11, 84
1, 60577, Control_c, 6, 11, 80
1, 60580, Control_c, 5, 11, 85
1, 60582, Control_c, 0, 11, 83
1, 60588, Control_c, 13, 11, 120
1, 60590, Control_c, 5, 11, 84
1, 60597, Control_c, 6, 11, 78
1, 60600, Control_c, 4, 11, 125
1, 60600, Control_c, 5, 11, 83
1, 60600, Control_c, 15, 11, 125
1, 60602, Control_c, 0, 11, 82
1, 60602, Control_c, 13, 11, 119
1, 60605, Note_on_c, 9, 49, 0
1, 60605, Note_on_c, 9, 36, 0
1, 60607, Note_on_c, 9, 57, 52
1, 60610, Control_c, 5, 11, 82
1, 60612, Control_c, 0, 11, 81
1, 60617, Control_c, 6, 11, 77
1, 60622, Control_c, 0, 11, 80
1, 60629, Control_c, 13, 11, 118
1, 60630, Control_c, 5, 11, 81
1, 60637, Control_c, 6, 11, 75
1, 60640, Control_c, 5, 11, 80
1, 60642, Control_c, 0, 11, 79
1, 60650, Control_c, 5, 11, 79
1, 60651, Control_c, 4, 11, 124
1, 60651, Control_c, 15, 11, 124
1, 60652, Control_c, 0, 11, 78
1, 60657, Control_c, 6, 11, 74
1, 60657, Control_c, 13, 11, 117
1, 60670, Control_c, 5, 11, 78
1, 60670, Control_c, 13, 11, 116
1, 60672, Control_c, 0, 11, 77
1, 60677, Control_c, 6, 11, 72
1, 60680, Control_c, 5, 11, 77
1, 60682, Control_c, 0, 11, 76
1, 60689, Control_c, 4, 11, 123
1, 60689, Control_c, 15, 11, 123
1, 60690, Control_c, 5, 11, 76
1, 60697, Control_c, 6, 11, 71
1, 60698, Control_c, 13, 11, 115
1, 60702, Control_c, 0, 11, 75
1, 60710, Control_c, 5, 11, 75
1, 60711, Control_c, 13, 11, 114
1, 60712, Control_c, 0, 11, 74
1, 60717, Control_c, 6, 11, 69
1, 60720, Control_c, 5, 11, 74
1, 60725, Note_on_c, 9, 57, 0
1, 60730, Control_c, 5, 11, 73
1, 60732, Control_c, 0, 11, 73
1, 60737, Control_c, 6, 11, 68
1, 60739, Control_c, 4, 11, 122
1, 60739, Control_c, 13, 11, 113
1, 60739, Control_c, 15, 11, 122
1, 60742, Control_c, 0, 11, 72
1, 60750, Control_c, 5, 11, 72
1, 60752, Control_c, 0, 11, 71
1, 60753, Control_c, 13, 11, 112
1, 60757, Control_c, 6, 11, 66
1, 60760, Control_c, 5, 11, 71
1, 60770, Control_c, 5, 11, 70
1, 60772, Control_c, 0, 11, 70
1, 60777, Control_c, 4, 11, 121
1, 60777, Control_c, 6, 11, 65
1, 60777, Control_c, 15, 11, 121
1, 60780, Control_c, 5, 11, 69
1, 60780, Control_c, 13, 11, 111
1, 60782, Control_c, 0, 11, 69
1, 60797, Control_c, 6, 11, 63
1, 60800, Control_c, 5, 11, 68
1, 60802, Control_c, 0, 11, 68
1, 60807, Control_c, 13, 11, 110
1, 60810, Control_c, 5, 11, 67
1, 60812, Control_c, 0, 11, 67
1, 60817, Control_c, 6, 11, 62
1, 60820, Control_c, 5, 11, 66
1, 60821, Control_c, 13, 11, 109
1, 60828, Control_c, 4, 11, 120
1, 60828, Control_c, 15, 11, 120
1, 60832, Control_c, 0, 11, 66
1, 60837, Control_c, 6, 11, 60
1, 60840, Control_c, 5, 11, 65
1, 60842, Control_c, 0, 11, 65
1, 60849, Control_c, 13, 11, 108
1, 60850, Control_c, 5, 11, 64
1, 60857, Control_c, 6, 11, 59
1, 60860, Control_c, 5, 11, 63
1, 60862, Control_c, 0, 11, 64
1, 60862, Control_c, 13, 11, 107
1, 60866, Control_c, 4, 11, 119
1, 60866, Control_c, 15, 11, 119
1, 60872, Control_c, 0, 11, 63
1, 60877, Control_c, 6, 11, 57
1, 60880, Control_c, 5, 11, 62
1, 60882, Control_c, 0, 11, 62
1, 60890, Control_c, 5, 11, 61
1, 60890, Control_c, 13, 11, 106
1, 60897, Control_c, 6, 11, 55
1, 60900, Control_c, 5, 11, 60
1, 60902, Control_c, 0, 11, 61
1, 60903, Control_c, 13, 11, 105
1, 60912, Control_c, 0, 11, 60
1, 60916, Control_c, 4, 11, 118
1, 60916, Control_c, 15, 11, 118
1, 60917, Control_c, 6, 11, 54
1, 60920, Control_c, 5, 11, 59
1, 60930, Control_c, 5, 11, 58
1, 60931, Control_c, 13, 11, 104
1, 60932, Control_c, 0, 11, 59
1, 60937, Control_c, 6, 11, 52
1, 60940, Control_c, 5, 11, 57
1, 60942, Control_c, 0, 11, 58
1, 60954, Control_c, 4, 11, 117
1, 60954, Control_c, 15, 11, 117
1, 60957, Control_c, 6, 11, 51
1, 60958, Control_c, 13, 11, 103
1, 60960, Control_c, 5, 11, 56
1, 60962, Control_c, 0, 11, 57
1, 60970, Control_c, 5, 11, 55
1, 60972, Control_c, 0, 11, 56
1, 60972, Control_c, 13, 11, 102
1, 60977, Control_c, 6, 11, 49
1, 60980, Control_c, 5, 11, 54
1, 60990, Control_c, 5, 11, 53
1, 60992, Control_c, 0, 11, 55
1, 60997, Control_c, 6, 11, 48
1, 60999, Control_c, 13, 11, 101
1, 61002, Control_c, 0, 11, 54
1, 61005, Control_c, 4, 11, 116
1, 61005, Control_c, 15, 11, 116
1, 61010, Control_c, 5, 11, 52
1, 61012, Control_c, 0, 11, 53
1, 61013, Control_c, 13, 11, 100
1, 61017, Control_c, 6, 11, 46
1, 61020, Control_c, 5, 11, 51
1, 61030, Control_c, 5, 11, 50
1, 61032, Control_c, 0, 11, 52
1, 61037, Control_c, 6, 11, 45
1, 61041, Control_c, 13, 11, 99
1, 61042, Control_c, 0, 11, 51
1, 61043, Control_c, 4, 11, 115
1, 61043, Control_c, 15, 11, 115
1, 61050, Control_c, 5, 11, 49
1, 61054, Control_c, 13, 11, 98
1, 61057, Control_c, 6, 11, 43
1, 61060, Control_c, 5, 11, 48
1, 61062, Control_c, 0, 11, 50
1, 61070, Control_c, 5, 11, 47
1, 61072, Control_c, 0, 11, 49
1, 61077, Control_c, 6, 11, 42
1, 61082, Control_c, 13, 11, 97
1, 61087, Note_on_c, 3, 76, 105
1, 61087, Lyric_t, "So "
1, 61090, Control_c, 5, 11, 46
1, 61092, Control_c, 0, 11, 48
1, 61093, Control_c, 4, 11, 114
1, 61093, Control_c, 15, 11, 114
1, 61095, Control_c, 13, 11, 96
1, 61097, Control_c, 6, 11, 40
1, 61100, Control_c, 5, 11, 45
1, 61102, Control_c, 0, 11, 47
1, 61110, Control_c, 5, 11, 44
1, 61117, Control_c, 6, 11, 39
1, 61122, Control_c, 0, 11, 46
1, 61123, Control_c, 13, 11, 95
1, 61130, Control_c, 5, 11, 43
1, 61131, Control_c, 4, 11, 113
1, 61131, Control_c, 15, 11, 113
1, 61132, Control_c, 0, 11, 45
1, 61137, Control_c, 6, 11, 37
1, 61140, Control_c, 5, 11, 42
1, 61142, Control_c, 0, 11, 44
1, 61150, Control_c, 5, 11, 41
1, 61150, Control_c, 13, 11, 94
1, 61152, Note_on_c, 3, 76, 0
1, 61157, Control_c, 6, 11, 36
1, 61160, Control_c, 5, 11, 40
1, 61162, Control_c, 0, 11, 43
1, 61164, Control_c, 13, 11, 93
1, 61172, Control_c, 0, 11, 42
1, 61177, Control_c, 6, 11, 34
1, 61180, Control_c, 5, 11, 39
1, 61182, Control_c, 4, 11, 112
1, 61182, Control_c, 15, 11, 112
1, 61190, Control_c, 5, 11, 38
1, 61191, Control_c, 13, 11, 92
1, 61192, Control_c, 0, 11, 41
1, 61197, Control_c, 6, 11, 33
1, 61200, Control_c, 5, 11, 37
1, 61202, Control_c, 0, 11, 40
1, 61205, Control_c, 13, 11, 91
1, 61207, Note_on_c, 3, 76, 99
1, 61207, Lyric_t, "come "
1, 61217, Control_c, 6, 11, 31
1, 61219, Control_c, 4, 11, 111
1, 61219, Control_c, 15, 11, 111
1, 61220, Control_c, 5, 11, 36
1, 61222, Control_c, 0, 11, 39
1, 61230, Control_c, 5, 11, 35
1, 61232, Control_c, 0, 11, 38
1, 61233, Control_c, 13, 11, 90
1, 61237, Control_c, 6, 11, 30
1, 61240, Control_c, 5, 11, 34
1, 61246, Control_c, 13, 11, 89
1, 61252, Control_c, 0, 11, 37
1, 61257, Control_c, 6, 11, 28
1, 61260, Control_c, 5, 11, 33
1, 61262, Control_c, 0, 11, 36
1, 61265, Note_on_c, 11, 59, 0
1, 61265, Note_on_c, 11, 66, 0
1, 61265, Note_on_c, 11, 63, 0
1, 61270, Control_c, 4, 11, 110
1, 61270, Control_c, 5, 11, 32
1, 61270, Control_c, 15, 11, 110
1, 61272, Control_c, 0, 11, 35
1, 61274, Control_c, 13, 11, 88
1, 61277, Control_c, 6, 11, 27
1, 61280, Control_c, 5, 11, 31
1, 61292, Control_c, 0, 11, 34
1, 61297, Control_c, 6, 11, 25
1, 61300, Control_c, 5, 11, 30
1, 61301, Control_c, 13, 11, 87
1, 61302, Control_c, 0, 11, 33
1, 61308, Control_c, 4, 11, 109
1, 61308, Control_c, 15, 11, 109
1, 61310, Control_c, 5, 11, 29
1, 61315, Control_c, 13, 11, 86
1, 61317, Control_c, 6, 11, 24
1, 61320, Control_c, 5, 11, 28
1, 61322, Control_c, 0, 11, 32
1, 61327, Note_on_c, 3, 78, 99
1, 61327, Lyric_t, "and "
1, 61330, Control_c, 5, 11, 27
1, 61332, Control_c, 0, 11, 31
1, 61333, Note_on_c, 6, 75, 0
1, 61336, Note_on_c, 3, 76, 0
1, 61337, Control_c, 6, 11, 22
1, 61342, Control_c, 13, 11, 85
1, 61350, Note_on_c, 6, 87, 0
1, 61352, Control_c, 0, 11, 30
1, 61356, Control_c, 13, 11, 84
1, 61357, Control_c, 6, 11, 20
1, 61358, Control_c, 4, 11, 108
1, 61358, Control_c, 15, 11, 108
1, 61362, Control_c, 0, 11, 29
1, 61367, Note_on_c, 6, 66, 0
1, 61382, Control_c, 0, 11, 28
1, 61383, Control_c, 13, 11, 83
1, 61389, Note_on_c, 6, 78, 0
1, 61392, Control_c, 0, 11, 27
1, 61396, Control_c, 4, 11, 107
1, 61396, Control_c, 15, 11, 107
1, 61397, Control_c, 13, 11, 82
1, 61402, Control_c, 0, 11, 26
1, 61405, Note_on_c, 12, 50, 96
1, 61414, Note_on_c, 7, 47, 0
1, 61415, Note_on_c, 15, 66, 0
1, 61415, Note_on_c, 4, 66, 0
1, 61419, Note_on_c, 15, 71, 0
1, 61419, Note_on_c, 4, 71, 0
1, 61424, Note_on_c, 7, 54, 0
1, 61425, Note_on_c, 7, 59, 0
1, 61425, Control_c, 13, 11, 81
1, 61427, Note_on_c, 12, 57, 96
1, 61439, Note_on_c, 5, 66, 0
1, 61442, Note_on_c, 5, 63, 0
1, 61443, Note_on_c, 4, 78, 0
1, 61443, Note_on_c, 15, 78, 0
1, 61445, Note_on_c, 7, 63, 0
1, 61447, Note_on_c, 1, 50, 55
1, 61447, Note_on_c, 2, 50, 72
1, 61447, Note_on_c, 3, 80, 108
1, 61447, Note_on_c, 7, 57, 62
1, 61447, Note_on_c, 7, 64, 72
1, 61447, Note_on_c, 7, 54, 61
1, 61447, Note_on_c, 7, 38, 58
1, 61447, Note_on_c, 9, 59, 62
1, 61447, Note_on_c, 11, 57, 57
1, 61447, Note_on_c, 11, 64, 72
1, 61447, Note_on_c, 11, 54, 58
1, 61447, Note_on_c, 12, 62, 93
1, 61447, Lyric_t, "free "
1, 61452, Control_c, 13, 11, 80
1, 61460, Note_on_c, 5, 59, 0
1, 61465, Note_on_c, 3, 78, 0
1, 61466, Control_c, 13, 11, 79
1, 61476, Note_on_c, 0, 71, 0
1, 61477, Note_on_c, 1, 47, 0
1, 61482, Note_on_c, 0, 66, 0
1, 61485, Control_c, 4, 11, 127
1, 61485, Control_c, 15, 11, 127
1, 61493, Control_c, 13, 11, 78
1, 61507, Control_c, 13, 11, 77
1, 61534, Control_c, 13, 11, 76
1, 61548, Control_c, 13, 11, 75
1, 61565, Note_on_c, 9, 59, 0
1, 61575, Control_c, 13, 11, 74
1, 61603, Control_c, 13, 11, 73
1, 61617, Control_c, 13, 11, 72
1, 61644, Control_c, 13, 11, 71
1, 61658, Control_c, 13, 11, 70
1, 61685, Control_c, 13, 11, 69
1, 61687, Note_on_c, 3, 78, 105
1, 61687, Lyric_t, "me "
1, 61687, Lyric_t, "\015"
1, 61699, Control_c, 13, 11, 68
1, 61703, Note_on_c, 3, 80, 0
1, 61726, Control_c, 13, 11, 67
1, 61740, Control_c, 13, 11, 66
1, 61767, Control_c, 13, 11, 65
1, 61795, Control_c, 13, 11, 64
1, 61809, Control_c, 13, 11, 63
1, 61836, Control_c, 13, 11, 62
1, 61841, Note_on_c, 11, 54, 0
1, 61850, Control_c, 13, 11, 61
1, 61856, Note_on_c, 11, 64, 0
1, 61872, Note_on_c, 11, 57, 0
1, 61877, Control_c, 13, 11, 60
1, 61891, Control_c, 13, 11, 59
1, 61918, Control_c, 13, 11, 58
1, 61925, Note_on_c, 13, 54, 0
1, 61925, Note_on_c, 13, 47, 0
1, 61927, Note_on_c, 11, 57, 72
1, 61927, Note_on_c, 11, 54, 62
1, 61927, Note_on_c, 11, 64, 74
1, 61927, Note_on_c, 12, 71, 97
1, 61946, Control_c, 13, 11, 57
1, 61959, Control_c, 13, 11, 56
1, 61987, Control_c, 13, 11, 55
1, 62001, Control_c, 13, 11, 54
1, 62028, Control_c, 13, 11, 53
1, 62042, Note_on_c, 12, 71, 0
1, 62042, Control_c, 13, 11, 52
1, 62047, Note_on_c, 12, 76, 92
1, 62069, Control_c, 13, 11, 51
1, 62097, Control_c, 13, 11, 50
1, 62110, Control_c, 13, 11, 49
1, 62138, Control_c, 13, 11, 48
1, 62151, Control_c, 13, 11, 47
1, 62164, Note_on_c, 12, 76, 0
1, 62167, Note_on_c, 12, 71, 85
1, 62179, Control_c, 13, 11, 46
1, 62193, Control_c, 13, 11, 45
1, 62220, Control_c, 13, 11, 44
1, 62229, Note_on_c, 11, 54, 0
1, 62240, Note_on_c, 11, 57, 0
1, 62242, Note_on_c, 11, 64, 0
1, 62247, Control_c, 13, 11, 43
1, 62261, Control_c, 13, 11, 42
1, 62281, Note_on_c, 12, 71, 0
1, 62287, Note_on_c, 12, 76, 75
1, 62289, Control_c, 13, 11, 41
1, 62302, Control_c, 13, 11, 40
1, 62330, Control_c, 13, 11, 39
1, 62343, Control_c, 13, 11, 38
1, 62371, Control_c, 13, 11, 37
1, 62385, Control_c, 13, 11, 36
1, 62405, Note_on_c, 12, 76, 0
1, 62407, Note_on_c, 10, 66, 71
1, 62407, Note_on_c, 10, 71, 94
1, 62407, Note_on_c, 11, 57, 45
1, 62407, Note_on_c, 11, 54, 31
1, 62407, Note_on_c, 11, 64, 27
1, 62407, Note_on_c, 11, 57, 78
1, 62407, Note_on_c, 11, 64, 78
1, 62407, Note_on_c, 11, 54, 61
1, 62407, Note_on_c, 11, 50, 30
1, 62407, Note_on_c, 12, 71, 90
1, 62409, Note_on_c, 10, 62, 60
1, 62425, Note_on_c, 3, 78, 0
1, 62426, Control_c, 13, 11, 127
1, 62433, Note_on_c, 11, 64, 0
1, 62436, Control_c, 10, 11, 126
1, 62443, Note_on_c, 11, 54, 0
1, 62467, Note_on_c, 11, 57, 0
1, 62491, Control_c, 10, 11, 125
1, 62532, Control_c, 10, 11, 124
1, 62587, Control_c, 10, 11, 123
1, 62628, Control_c, 10, 11, 122
1, 62669, Control_c, 10, 11, 121
1, 62716, Note_on_c, 12, 62, 0
1, 62724, Control_c, 10, 11, 120
1, 62725, Note_on_c, 12, 57, 0
1, 62738, Note_on_c, 12, 50, 0
1, 62765, Control_c, 10, 11, 119
1, 62806, Control_c, 10, 11, 118
1, 62861, Control_c, 10, 11, 117
1, 62881, Note_on_c, 2, 50, 0
1, 62885, Note_on_c, 12, 71, 0
1, 62887, Note_on_c, 2, 52, 61
1, 62887, Note_on_c, 12, 62, 105
1, 62887, Note_on_c, 12, 50, 95
1, 62896, Pitch_bend_c, 12, 8320
1, 62899, Pitch_bend_c, 12, 8128
1, 62902, Control_c, 10, 11, 116
1, 62920, Pitch_bend_c, 12, 8192
1, 62943, Control_c, 10, 11, 115
1, 62943, Control_c, 12, 11, 126
1, 62957, Control_c, 12, 11, 125
1, 62965, Note_on_c, 2, 52, 0
1, 62967, Note_on_c, 2, 54, 46
1, 62970, Control_c, 12, 11, 123
1, 62978, Control_c, 7, 64, 127
1, 62984, Control_c, 12, 11, 121
1, 62998, Control_c, 10, 11, 114
1, 62998, Control_c, 12, 11, 119
1, 63012, Control_c, 12, 11, 117
1, 63025, Control_c, 12, 11, 115
1, 63039, Control_c, 10, 11, 113
1, 63039, Control_c, 12, 11, 113
1, 63047, Note_on_c, 2, 52, 61
1, 63053, Control_c, 12, 11, 111
1, 63066, Control_c, 12, 11, 109
1, 63072, Note_on_c, 2, 54, 0
1, 63078, Note_on_c, 1, 50, 0
1, 63080, Control_c, 12, 11, 107
1, 63081, Control_c, 10, 11, 112
1, 63093, Note_on_c, 7, 38, 0
1, 63094, Control_c, 12, 11, 105
1, 63108, Control_c, 12, 11, 103
1, 63121, Control_c, 12, 11, 101
1, 63127, Note_on_c, 2, 49, 54
1, 63127, Note_on_c, 3, 76, 102
1, 63127, Lyric_t, "it's "
1, 63130, Note_on_c, 7, 57, 0
1, 63131, Note_on_c, 7, 54, 0
1, 63131, Pitch_bend_c, 12, 4096
1, 63135, Control_c, 10, 11, 111
1, 63135, Control_c, 12, 11, 99
1, 63137, Note_on_c, 7, 64, 0
1, 63149, Control_c, 12, 11, 98
1, 63150, Note_on_c, 2, 52, 0
1, 63162, Control_c, 12, 11, 96
1, 63176, Control_c, 12, 11, 94
1, 63177, Control_c, 10, 11, 110
1, 63190, Control_c, 12, 11, 92
1, 63204, Control_c, 12, 11, 90
1, 63217, Control_c, 12, 11, 88
1, 63218, Control_c, 10, 11, 109
1, 63231, Control_c, 12, 11, 86
1, 63236, Note_on_c, 12, 62, 0
1, 63236, Note_on_c, 12, 50, 0
1, 63245, Note_on_c, 10, 62, 0
1, 63245, Note_on_c, 10, 66, 0
1, 63245, Control_c, 12, 11, 84
1, 63247, Note_on_c, 2, 47, 64
1, 63247, Note_on_c, 3, 78, 96
1, 63247, Lyric_t, "so "
1, 63252, Note_on_c, 10, 71, 0
1, 63256, Note_on_c, 2, 49, 0
1, 63256, Note_on_c, 3, 76, 0
1, 63257, Pitch_bend_c, 12, 8192
1, 63258, Control_c, 12, 11, 82
1, 63263, Note_on_c, 12, 59, 96
1, 63263, Note_on_c, 12, 47, 95
1, 63272, Control_c, 12, 11, 80
1, 63273, Control_c, 10, 11, 108
1, 63286, Control_c, 12, 11, 78
1, 63300, Control_c, 12, 11, 76
1, 63313, Control_c, 12, 11, 74
1, 63314, Control_c, 10, 11, 107
1, 63321, Note_on_c, 11, 50, 0
1, 63327, Control_c, 12, 11, 72
1, 63355, Control_c, 10, 11, 106
1, 63367, Note_on_c, 12, 47, 0
1, 63367, Note_on_c, 12, 59, 0
1, 63367, Note_on_c, 1, 32, 45
1, 63367, Note_on_c, 2, 44, 72
1, 63367, Note_on_c, 3, 80, 111
1, 63367, Note_on_c, 7, 44, 66
1, 63367, Note_on_c, 7, 63, 74
1, 63367, Note_on_c, 7, 61, 68
1, 63367, Note_on_c, 7, 56, 52
1, 63367, Note_on_c, 9, 59, 62
1, 63367, Note_on_c, 11, 56, 80
1, 63367, Note_on_c, 11, 61, 87
1, 63367, Note_on_c, 11, 63, 87
1, 63367, Note_on_c, 12, 42, 103
1, 63367, Lyric_t, "heav"
1, 63375, Note_on_c, 2, 47, 0
1, 63376, Note_on_c, 11, 64, 0
1, 63381, Note_on_c, 11, 54, 0
1, 63381, Control_c, 7, 64, 0
1, 63382, Note_on_c, 11, 57, 0
1, 63396, Control_c, 12, 11, 94
1, 63398, Note_on_c, 3, 78, 0
1, 63410, Pitch_bend_c, 12, 8192
1, 63423, Control_c, 12, 11, 95
1, 63436, Pitch_bend_c, 12, 9984
1, 63450, Control_c, 12, 11, 96
1, 63463, Pitch_bend_c, 12, 11776
1, 63464, Control_c, 12, 11, 97
1, 63477, Pitch_bend_c, 12, 11904
1, 63485, Note_on_c, 9, 59, 0
1, 63491, Pitch_bend_c, 12, 13824
1, 63492, Control_c, 12, 11, 98
1, 63505, Control_c, 12, 11, 99
1, 63518, Pitch_bend_c, 12, 16383
1, 63531, Control_c, 7, 64, 127
1, 63533, Control_c, 12, 11, 100
1, 63546, Control_c, 12, 11, 101
1, 63574, Control_c, 12, 11, 102
1, 63601, Control_c, 12, 11, 103
1, 63607, Note_on_c, 3, 78, 93
1, 63607, Note_on_c, 14, 56, 47
1, 63607, Lyric_t, "y "
1, 63611, Note_on_c, 12, 42, 0
1, 63614, Note_on_c, 12, 51, 73
1, 63614, Pitch_bend_c, 12, 8192
1, 63615, Control_c, 12, 11, 104
1, 63619, Note_on_c, 3, 80, 0
1, 63642, Control_c, 12, 11, 105
1, 63649, Note_on_c, 7, 61, 0
1, 63656, Control_c, 12, 11, 106
1, 63658, Note_on_c, 7, 63, 0
1, 63684, Control_c, 12, 11, 107
1, 63685, Note_on_c, 3, 78, 0
1, 63697, Control_c, 12, 11, 108
1, 63725, Control_c, 12, 11, 109
1, 63727, Note_on_c, 3, 78, 108
1, 63727, Lyric_t, "on "
1, 63738, Control_c, 12, 11, 110
1, 63766, Control_c, 12, 11, 111
1, 63793, Control_c, 12, 11, 112
1, 63807, Control_c, 12, 11, 113
1, 63812, Note_on_c, 11, 56, 0
1, 63816, Note_on_c, 11, 63, 0
1, 63830, Note_on_c, 11, 61, 0
1, 63834, Control_c, 12, 11, 114
1, 63847, Note_on_c, 7, 63, 31
1, 63847, Note_on_c, 7, 61, 27
1, 63847, Note_on_c, 11, 61, 87
1, 63847, Note_on_c, 11, 56, 82
1, 63847, Note_on_c, 11, 63, 87
1, 63847, Note_on_c, 12, 61, 84
1, 63847, Note_on_c, 14, 52, 80
1, 63847, Note_on_c, 14, 61, 87
1, 63848, Control_c, 12, 11, 115
1, 63852, Note_on_c, 12, 51, 0
1, 63876, Control_c, 12, 11, 116
1, 63889, Control_c, 12, 11, 117
1, 63892, Note_on_c, 14, 56, 0
1, 63917, Control_c, 12, 11, 118
1, 63944, Control_c, 12, 11, 119
1, 63958, Control_c, 12, 11, 120
1, 63985, Control_c, 12, 11, 121
1, 63999, Control_c, 12, 11, 122
1, 64026, Control_c, 12, 11, 123
1, 64040, Control_c, 12, 11, 124
1, 64066, Control_c, 14, 1, 10
1, 64067, Note_on_c, 7, 44, 0
1, 64068, Control_c, 12, 11, 125
1, 64081, Control_c, 12, 11, 126
1, 64085, Note_on_c, 12, 61, 0
1, 64085, Control_c, 14, 1, 19
1, 64087, Note_on_c, 3, 76, 76
1, 64087, Note_on_c, 12, 44, 89
1, 64087, Lyric_t, "my "
1, 64091, Note_on_c, 3, 78, 0
1, 64095, Control_c, 14, 1, 26
1, 64122, Control_c, 12, 11, 126
1, 64122, Control_c, 14, 1, 38
1, 64123, Control_c, 10, 11, 127
1, 64141, Control_c, 14, 1, 46
1, 64155, Note_on_c, 3, 76, 0
1, 64164, Control_c, 10, 11, 126
1, 64178, Control_c, 14, 1, 55
1, 64191, Control_c, 10, 11, 125
1, 64191, Control_c, 12, 11, 125
1, 64207, Note_on_c, 3, 76, 96
1, 64207, Lyric_t, "heart. "
1, 64207, Lyric_t, "\015"
1, 64225, Note_on_c, 7, 61, 0
1, 64225, Control_c, 14, 1, 64
1, 64231, Note_on_c, 10, 56, 56
1, 64233, Control_c, 10, 11, 124
1, 64246, Control_c, 12, 11, 124
1, 64260, Control_c, 10, 11, 123
1, 64265, Note_on_c, 12, 44, 0
1, 64271, Note_on_c, 10, 60, 57
1, 64273, Note_on_c, 11, 56, 0
1, 64277, Note_on_c, 7, 56, 0
1, 64293, Note_on_c, 11, 61, 0
1, 64299, Control_c, 14, 1, 19
1, 64301, Note_on_c, 14, 52, 0
1, 64301, Control_c, 10, 11, 122
1, 64301, Control_c, 12, 11, 123
1, 64308, Control_c, 14, 1, 0
1, 64309, Note_on_c, 10, 63, 66
1, 64327, Note_on_c, 3, 75, 93
1, 64327, Note_on_c, 7, 44, 61
1, 64327, Note_on_c, 7, 60, 76
1, 64327, Note_on_c, 7, 56, 61
1, 64327, Note_on_c, 10, 68, 95
1, 64327, Note_on_c, 11, 60, 84
1, 64327, Note_on_c, 11, 56, 66
1, 64327, Note_on_c, 12, 51, 77
1, 64327, Note_on_c, 12, 56, 68
1, 64327, Note_on_c, 12, 60, 89
1, 64327, Note_on_c, 14, 60, 90
1, 64327, Note_on_c, 14, 51, 84
1, 64329, Control_c, 10, 11, 121
1, 64340, Control_c, 7, 64, 0
1, 64356, Control_c, 10, 11, 120
1, 64369, Control_c, 12, 11, 122
1, 64372, Note_on_c, 14, 61, 0
1, 64384, Note_on_c, 3, 76, 0
1, 64397, Control_c, 10, 11, 119
1, 64424, Control_c, 12, 11, 121
1, 64425, Control_c, 10, 11, 118
1, 64466, Control_c, 10, 11, 117
1, 64479, Control_c, 12, 11, 120
1, 64493, Control_c, 10, 11, 116
1, 64521, Control_c, 10, 11, 115
1, 64534, Control_c, 12, 11, 119
1, 64562, Control_c, 10, 11, 114
1, 64589, Control_c, 10, 11, 113
1, 64602, Control_c, 12, 11, 118
1, 64630, Control_c, 10, 11, 112
1, 64657, Control_c, 12, 11, 117
1, 64658, Control_c, 10, 11, 111
1, 64685, Control_c, 10, 11, 110
1, 64712, Control_c, 12, 11, 116
1, 64726, Control_c, 10, 11, 109
1, 64754, Control_c, 10, 11, 108
1, 64767, Control_c, 12, 11, 115
1, 64795, Control_c, 10, 11, 107
1, 64807, Note_on_c, 9, 42, 50
1, 64822, Control_c, 10, 11, 106
1, 64836, Control_c, 12, 11, 114
1, 64863, Control_c, 10, 11, 105
1, 64890, Control_c, 12, 11, 113
1, 64891, Control_c, 10, 11, 104
1, 64918, Control_c, 10, 11, 103
1, 64925, Note_on_c, 9, 42, 0
1, 64945, Control_c, 12, 11, 112
1, 64959, Control_c, 10, 11, 102
1, 64987, Control_c, 10, 11, 101
1, 65014, Control_c, 12, 11, 111
1, 65028, Control_c, 10, 11, 100
1, 65047, Note_on_c, 9, 42, 50
1, 65051, Control_c, 14, 1, 10
1, 65055, Control_c, 10, 11, 99
1, 65059, Control_c, 14, 1, 18
1, 65069, Control_c, 12, 11, 110
1, 65069, Control_c, 14, 1, 26
1, 65078, Control_c, 14, 1, 33
1, 65083, Control_c, 10, 11, 98
1, 65095, Note_on_c, 3, 75, 0
1, 65098, Control_c, 14, 1, 42
1, 65124, Control_c, 10, 11, 97
1, 65124, Control_c, 12, 11, 109
1, 65125, Control_c, 14, 1, 49
1, 65151, Control_c, 10, 11, 96
1, 65153, Control_c, 14, 1, 57
1, 65165, Note_on_c, 9, 42, 0
1, 65171, Control_c, 14, 1, 64
1, 65178, Control_c, 12, 11, 108
1, 65193, Control_c, 10, 11, 95
1, 65199, Control_c, 14, 1, 57
1, 65220, Control_c, 10, 11, 94
1, 65227, Control_c, 14, 1, 45
1, 65237, Control_c, 14, 1, 33
1, 65246, Control_c, 14, 1, 0
1, 65247, Control_c, 10, 11, 93
1, 65247, Control_c, 12, 11, 107
1, 65282, Time_signature, 2, 2, 24, 8
1, 65283, Note_on_c, 10, 63, 0
1, 65285, Note_on_c, 10, 56, 0
1, 65285, Note_on_c, 10, 68, 0
1, 65285, Note_on_c, 10, 60, 0
1, 65287, Note_on_c, 9, 42, 50
1, 65302, Control_c, 12, 11, 106
1, 65357, Control_c, 12, 11, 105
1, 65405, Note_on_c, 9, 42, 0
1, 65405, Note_on_c, 12, 51, 0
1, 65405, Note_on_c, 12, 60, 0
1, 65405, Note_on_c, 12, 56, 0
1, 65412, Control_c, 12, 11, 104
1, 65480, Control_c, 12, 11, 103
1, 65527, Note_on_c, 9, 42, 58
1, 65587, Control_c, 12, 11, 126
1, 65645, Note_on_c, 9, 42, 0
1, 65647, Note_on_c, 9, 42, 62
1, 65765, Note_on_c, 9, 42, 0
1, 65767, Note_on_c, 9, 42, 70
1, 65885, Note_on_c, 9, 42, 0
1, 65887, Note_on_c, 12, 56, 107
1, 66005, Note_on_c, 12, 56, 0
1, 66007, Note_on_c, 3, 68, 102
1, 66007, Note_on_c, 9, 46, 60
1, 66007, Note_on_c, 12, 52, 96
1, 66007, Lyric_t, "I've "
1, 66055, Control_c, 5, 11, 127
1, 66125, Note_on_c, 12, 52, 0
1, 66125, Note_on_c, 9, 46, 0
1, 66127, Note_on_c, 3, 71, 78
1, 66127, Note_on_c, 12, 51, 106
1, 66149, Note_on_c, 3, 68, 0
1, 66163, Note_on_c, 14, 51, 0
1, 66183, Note_on_c, 14, 60, 0
1, 66194, Note_on_c, 7, 44, 0
1, 66202, Note_on_c, 7, 63, 0
1, 66204, Note_on_c, 11, 63, 0
1, 66207, Note_on_c, 7, 56, 0
1, 66211, Note_on_c, 11, 60, 0
1, 66213, Note_on_c, 7, 60, 0
1, 66215, Note_on_c, 11, 56, 0
1, 66221, Note_on_c, 1, 32, 0
1, 66223, Control_c, 10, 32, 1
1, 66223, Control_c, 10, 0, 0
1, 66223, Control_c, 10, 32, 1
1, 66223, Control_c, 10, 0, 0
1, 66223, Control_c, 10, 32, 1
1, 66224, Program_c, 10, 18
1, 66240, Note_on_c, 2, 44, 0
1, 66240, Note_on_c, 3, 71, 0
1, 66242, Time_signature, 4, 2, 24, 8
1, 66245, Note_on_c, 12, 51, 0
1, 66247, Note_on_c, 1, 37, 111
1, 66247, Note_on_c, 3, 73, 117
1, 66247, Note_on_c, 5, 64, 49
1, 66247, Note_on_c, 5, 49, 70
1, 66247, Note_on_c, 5, 61, 39
1, 66247, Note_on_c, 7, 64, 87
1, 66247, Note_on_c, 7, 61, 84
1, 66247, Note_on_c, 7, 37, 99
1, 66247, Note_on_c, 9, 36, 100
1, 66247, Note_on_c, 9, 49, 80
1, 66247, Note_on_c, 10, 73, 87
1, 66247, Note_on_c, 10, 76, 80
1, 66247, Note_on_c, 11, 64, 99
1, 66247, Note_on_c, 11, 61, 78
1, 66247, Note_on_c, 11, 56, 87
1, 66247, Lyric_t, "had "
1, 66305, Control_c, 7, 64, 127
1, 66365, Note_on_c, 9, 49, 0
1, 66365, Note_on_c, 9, 36, 0
1, 66365, Note_on_c, 1, 37, 0
1, 66367, Note_on_c, 1, 37, 90
1, 66367, Note_on_c, 9, 36, 50
1, 66431, Note_on_c, 7, 64, 0
1, 66469, Note_on_c, 7, 61, 0
1, 66485, Note_on_c, 9, 36, 0
1, 66487, Note_on_c, 3, 71, 102
1, 66487, Note_on_c, 7, 56, 90
1, 66487, Note_on_c, 9, 42, 60
1, 66487, Note_on_c, 10, 68, 61
1, 66487, Note_on_c, 11, 52, 80
1, 66487, Lyric_t, "my "
1, 66505, Note_on_c, 3, 73, 0
1, 66509, Note_on_c, 7, 56, 0
1, 66533, Note_on_c, 11, 61, 0
1, 66545, Note_on_c, 11, 56, 0
1, 66577, Note_on_c, 10, 76, 0
1, 66605, Note_on_c, 9, 42, 0
1, 66607, Note_on_c, 3, 68, 105
1, 66607, Lyric_t, "share "
1, 66608, Note_on_c, 10, 73, 0
1, 66613, Note_on_c, 3, 71, 0
1, 66643, Note_on_c, 11, 64, 0
1, 66727, Note_on_c, 7, 76, 90
1, 66727, Note_on_c, 7, 64, 87
1, 66727, Note_on_c, 7, 49, 62
1, 66727, Note_on_c, 9, 42, 80
1, 66727, Note_on_c, 9, 38, 90
1, 66727, Note_on_c, 10, 76, 84
1, 66727, Note_on_c, 10, 73, 84
1, 66727, Note_on_c, 11, 61, 87
1, 66727, Note_on_c, 11, 56, 84
1, 66749, Note_on_c, 10, 68, 0
1, 66772, Note_on_c, 7, 64, 0
1, 66785, Note_on_c, 11, 52, 0
1, 66793, Note_on_c, 7, 76, 0
1, 66845, Note_on_c, 9, 38, 0
1, 66845, Note_on_c, 9, 42, 0
1, 66896, Note_on_c, 7, 49, 0
1, 66965, Note_on_c, 3, 68, 0
1, 66967, Note_on_c, 3, 66, 96
1, 66967, Note_on_c, 7, 80, 87
1, 66967, Note_on_c, 7, 68, 99
1, 66967, Note_on_c, 9, 42, 60
1, 66967, Note_on_c, 10, 68, 58
1, 66967, Note_on_c, 11, 52, 70
1, 66967, Lyric_t, "of "
1, 67007, Note_on_c, 7, 68, 0
1, 67010, Note_on_c, 10, 76, 0
1, 67010, Note_on_c, 7, 80, 0
1, 67012, Note_on_c, 3, 66, 0
1, 67063, Note_on_c, 10, 73, 0
1, 67085, Note_on_c, 9, 42, 0
1, 67087, Note_on_c, 3, 66, 108
1, 67087, Lyric_t, "pleas"
1, 67161, Note_on_c, 5, 64, 0
1, 67175, Note_on_c, 11, 52, 0
1, 67176, Note_on_c, 11, 61, 0
1, 67178, Note_on_c, 5, 61, 0
1, 67205, Note_on_c, 1, 37, 0
1, 67207, Note_on_c, 1, 35, 102
1, 67207, Note_on_c, 5, 59, 41
1, 67207, Note_on_c, 5, 63, 44
1, 67207, Note_on_c, 5, 47, 54
1, 67207, Note_on_c, 7, 78, 87
1, 67207, Note_on_c, 7, 66, 99
1, 67207, Note_on_c, 7, 47, 80
1, 67207, Note_on_c, 9, 36, 100
1, 67207, Note_on_c, 9, 42, 80
1, 67207, Note_on_c, 10, 71, 84
1, 67207, Note_on_c, 10, 75, 82
1, 67207, Note_on_c, 11, 63, 87
1, 67207, Note_on_c, 11, 59, 90
1, 67209, Note_on_c, 5, 49, 0
1, 67215, Control_c, 7, 64, 0
1, 67221, Note_on_c, 10, 68, 0
1, 67222, Note_on_c, 7, 37, 0
1, 67223, Note_on_c, 11, 56, 0
1, 67318, Control_c, 7, 64, 127
1, 67325, Note_on_c, 9, 36, 0
1, 67325, Note_on_c, 1, 35, 0
1, 67325, Note_on_c, 9, 42, 0
1, 67327, Note_on_c, 1, 35, 87
1, 67327, Note_on_c, 9, 36, 53
1, 67369, Note_on_c, 7, 66, 0
1, 67445, Note_on_c, 9, 36, 0
1, 67447, Note_on_c, 3, 64, 87
1, 67447, Note_on_c, 7, 66, 82
1, 67447, Note_on_c, 9, 42, 60
1, 67447, Note_on_c, 10, 68, 58
1, 67447, Note_on_c, 11, 54, 54
1, 67447, Lyric_t, "ure "
1, 67447, Lyric_t, "\015"
1, 67463, Note_on_c, 3, 66, 0
1, 67554, Note_on_c, 10, 71, 0
1, 67558, Note_on_c, 10, 75, 0
1, 67565, Note_on_c, 9, 42, 0
1, 67595, Note_on_c, 11, 59, 0
1, 67613, Note_on_c, 7, 78, 0
1, 67679, Note_on_c, 7, 66, 0
1, 67687, Note_on_c, 7, 71, 93
1, 67687, Note_on_c, 9, 42, 80
1, 67687, Note_on_c, 9, 38, 91
1, 67687, Note_on_c, 10, 71, 84
1, 67687, Note_on_c, 10, 75, 84
1, 67687, Note_on_c, 11, 59, 93
1, 67694, Note_on_c, 10, 68, 0
1, 67697, Note_on_c, 11, 63, 0
1, 67728, Note_on_c, 3, 64, 0
1, 67805, Note_on_c, 9, 42, 0
1, 67805, Note_on_c, 9, 38, 0
1, 67807, Note_on_c, 3, 64, 108
1, 67807, Lyric_t, "and "
1, 67887, Note_on_c, 7, 71, 0
1, 67911, Note_on_c, 3, 64, 0
1, 67927, Note_on_c, 3, 66, 108
1, 67927, Note_on_c, 7, 66, 54
1, 67927, Note_on_c, 7, 54, 54
1, 67927, Note_on_c, 9, 42, 60
1, 67927, Note_on_c, 10, 68, 46
1, 67927, Note_on_c, 11, 63, 84
1, 67927, Lyric_t, "I've "
1, 67931, Note_on_c, 11, 54, 0
1, 68003, Note_on_c, 11, 59, 0
1, 68034, Note_on_c, 7, 47, 0
1, 68036, Note_on_c, 7, 66, 0
1, 68045, Note_on_c, 9, 42, 0
1, 68046, Note_on_c, 7, 54, 0
1, 68053, Note_on_c, 3, 66, 0
1, 68087, Note_on_c, 10, 68, 0
1, 68135, Note_on_c, 10, 75, 0
1, 68146, Note_on_c, 11, 63, 0
1, 68164, Control_c, 7, 64, 0
1, 68165, Note_on_c, 1, 35, 0
1, 68167, Note_on_c, 1, 37, 111
1, 68167, Note_on_c, 3, 66, 111
1, 68167, Note_on_c, 5, 64, 64
1, 68167, Note_on_c, 5, 49, 76
1, 68167, Note_on_c, 5, 61, 57
1, 68167, Note_on_c, 7, 76, 99
1, 68167, Note_on_c, 7, 64, 78
1, 68167, Note_on_c, 7, 37, 87
1, 68167, Note_on_c, 7, 68, 57
1, 68167, Note_on_c, 9, 42, 80
1, 68167, Note_on_c, 9, 36, 100
1, 68167, Note_on_c, 10, 76, 84
1, 68167, Note_on_c, 10, 73, 90
1, 68167, Note_on_c, 11, 61, 93
1, 68167, Note_on_c, 11, 56, 87
1, 68167, Lyric_t, "tast"
1, 68178, Note_on_c, 10, 71, 0
1, 68180, Note_on_c, 7, 68, 0
1, 68220, Note_on_c, 5, 47, 0
1, 68224, Pitch_bend_c, 3, 8303
1, 68225, Note_on_c, 5, 63, 0
1, 68229, Control_c, 7, 64, 127
1, 68234, Pitch_bend_c, 3, 8593
1, 68242, Note_on_c, 5, 59, 0
1, 68243, Pitch_bend_c, 3, 9240
1, 68252, Pitch_bend_c, 3, 10133
1, 68262, Pitch_bend_c, 3, 10669
1, 68271, Pitch_bend_c, 3, 11249
1, 68280, Pitch_bend_c, 3, 11472
1, 68285, Note_on_c, 1, 37, 0
1, 68285, Note_on_c, 9, 36, 0
1, 68285, Note_on_c, 9, 42, 0
1, 68287, Note_on_c, 1, 37, 90
1, 68287, Note_on_c, 9, 36, 50
1, 68289, Pitch_bend_c, 3, 11696
1, 68326, Pitch_bend_c, 3, 11807
1, 68345, Pitch_bend_c, 3, 11651
1, 68355, Pitch_bend_c, 3, 11495
1, 68363, Pitch_bend_c, 3, 10847
1, 68371, Note_on_c, 3, 66, 0
1, 68373, Pitch_bend_c, 3, 9620
1, 68383, Pitch_bend_c, 3, 8192
1, 68405, Note_on_c, 9, 36, 0
1, 68406, Note_on_c, 7, 64, 0
1, 68407, Note_on_c, 3, 66, 102
1, 68407, Note_on_c, 7, 68, 87
1, 68407, Note_on_c, 9, 42, 60
1, 68407, Note_on_c, 10, 68, 44
1, 68407, Note_on_c, 11, 52, 62
1, 68407, Lyric_t, "ed "
1, 68479, Note_on_c, 11, 56, 0
1, 68489, Note_on_c, 3, 66, 0
1, 68500, Note_on_c, 11, 61, 0
1, 68519, Note_on_c, 10, 76, 0
1, 68525, Note_on_c, 9, 42, 0
1, 68527, Note_on_c, 3, 66, 105
1, 68527, Lyric_t, "pain. "
1, 68527, Lyric_t, "\015"
1, 68545, Note_on_c, 7, 76, 0
1, 68548, Note_on_c, 10, 73, 0
1, 68632, Note_on_c, 7, 68, 0
1, 68644, Note_on_c, 10, 68, 0
1, 68647, Note_on_c, 7, 64, 96
1, 68647, Note_on_c, 7, 49, 54
1, 68647, Note_on_c, 9, 38, 90
1, 68647, Note_on_c, 9, 42, 80
1, 68647, Note_on_c, 10, 76, 84
1, 68647, Note_on_c, 10, 73, 87
1, 68647, Note_on_c, 11, 61, 87
1, 68647, Note_on_c, 11, 56, 82
1, 68749, Note_on_c, 7, 64, 0
1, 68755, Note_on_c, 7, 37, 0
1, 68765, Note_on_c, 9, 42, 0
1, 68765, Note_on_c, 9, 38, 0
1, 68768, Note_on_c, 7, 49, 0
1, 68805, Note_on_c, 11, 52, 0
1, 68887, Note_on_c, 9, 42, 60
1, 68887, Note_on_c, 10, 68, 52
1, 68887, Note_on_c, 11, 52, 61
1, 68993, Note_on_c, 10, 76, 0
1, 69005, Note_on_c, 9, 42, 0
1, 69036, Note_on_c, 3, 66, 0
1, 69083, Note_on_c, 10, 68, 0
1, 69097, Note_on_c, 10, 73, 0
1, 69105, Note_on_c, 11, 61, 0
1, 69113, Note_on_c, 11, 52, 0
1, 69125, Note_on_c, 1, 37, 0
1, 69127, Note_on_c, 1, 35, 102
1, 69127, Note_on_c, 5, 63, 59
1, 69127, Note_on_c, 5, 47, 78
1, 69127, Note_on_c, 5, 59, 62
1, 69127, Note_on_c, 7, 75, 84
1, 69127, Note_on_c, 7, 63, 99
1, 69127, Note_on_c, 7, 47, 84
1, 69127, Note_on_c, 9, 36, 100
1, 69127, Note_on_c, 9, 42, 80
1, 69127, Note_on_c, 10, 71, 87
1, 69127, Note_on_c, 10, 75, 87
1, 69127, Note_on_c, 11, 59, 93
1, 69127, Note_on_c, 11, 63, 93
1, 69138, Note_on_c, 11, 56, 0
1, 69145, Note_on_c, 5, 49, 0
1, 69150, Control_c, 7, 64, 0
1, 69159, Note_on_c, 5, 64, 0
1, 69170, Note_on_c, 5, 61, 0
1, 69245, Note_on_c, 1, 35, 0
1, 69245, Note_on_c, 9, 42, 0
1, 69245, Note_on_c, 9, 36, 0
1, 69247, Note_on_c, 1, 35, 87
1, 69247, Note_on_c, 9, 36, 53
1, 69271, Control_c, 7, 64, 127
1, 69356, Note_on_c, 7, 63, 0
1, 69365, Note_on_c, 9, 36, 0
1, 69367, Note_on_c, 7, 66, 80
1, 69367, Note_on_c, 9, 42, 60
1, 69367, Note_on_c, 10, 68, 46
1, 69367, Note_on_c, 11, 54, 51
1, 69485, Note_on_c, 9, 42, 0
1, 69503, Note_on_c, 10, 75, 0
1, 69514, Note_on_c, 10, 71, 0
1, 69545, Note_on_c, 11, 63, 0
1, 69559, Note_on_c, 7, 66, 0
1, 69574, Note_on_c, 11, 59, 0
1, 69593, Note_on_c, 10, 68, 0
1, 69607, Note_on_c, 7, 71, 66
1, 69607, Note_on_c, 7, 59, 48
1, 69607, Note_on_c, 7, 63, 42
1, 69607, Note_on_c, 9, 54, 66
1, 69607, Note_on_c, 9, 38, 91
1, 69607, Note_on_c, 9, 42, 80
1, 69607, Note_on_c, 10, 71, 82
1, 69607, Note_on_c, 10, 75, 80
1, 69607, Note_on_c, 11, 63, 96
1, 69607, Note_on_c, 11, 59, 87
1, 69621, Note_on_c, 7, 75, 0
1, 69725, Note_on_c, 9, 54, 0
1, 69725, Note_on_c, 9, 42, 0
1, 69725, Note_on_c, 9, 38, 0
1, 69727, Note_on_c, 3, 68, 105
1, 69727, Note_on_c, 12, 51, 90
1, 69727, Lyric_t, "I "
1, 69801, Note_on_c, 11, 54, 0
1, 69847, Note_on_c, 3, 73, 99
1, 69847, Note_on_c, 9, 42, 60
1, 69847, Note_on_c, 10, 68, 55
1, 69847, Note_on_c, 12, 49, 87
1, 69847, Lyric_t, "nev"
1, 69848, Note_on_c, 12, 51, 0
1, 69852, Note_on_c, 3, 68, 0
1, 69864, Note_on_c, 7, 47, 0
1, 69889, Note_on_c, 7, 59, 0
1, 69890, Note_on_c, 7, 63, 0
1, 69924, Note_on_c, 7, 71, 0
1, 69931, Note_on_c, 10, 71, 0
1, 69954, Note_on_c, 10, 75, 0
1, 69963, Note_on_c, 12, 49, 0
1, 69965, Note_on_c, 9, 42, 0
1, 69967, Note_on_c, 3, 75, 108
1, 69967, Note_on_c, 12, 47, 74
1, 69967, Lyric_t, "er "
1, 69972, Note_on_c, 3, 73, 0
1, 70001, Note_on_c, 10, 68, 0
1, 70048, Note_on_c, 11, 63, 0
1, 70053, Note_on_c, 11, 59, 0
1, 70078, Control_c, 7, 64, 0
1, 70085, Note_on_c, 1, 35, 0
1, 70087, Note_on_c, 3, 75, 0
1, 70087, Note_on_c, 1, 33, 108
1, 70087, Note_on_c, 3, 76, 105
1, 70087, Note_on_c, 5, 59, 74
1, 70087, Note_on_c, 5, 52, 58
1, 70087, Note_on_c, 5, 45, 61
1, 70087, Note_on_c, 7, 69, 82
1, 70087, Note_on_c, 7, 76, 93
1, 70087, Note_on_c, 7, 45, 96
1, 70087, Note_on_c, 9, 36, 100
1, 70087, Note_on_c, 9, 42, 80
1, 70087, Note_on_c, 10, 73, 87
1, 70087, Note_on_c, 10, 76, 87
1, 70087, Note_on_c, 11, 59, 90
1, 70087, Note_on_c, 11, 64, 90
1, 70087, Note_on_c, 12, 45, 105
1, 70087, Lyric_t, "thought "
1, 70096, Note_on_c, 12, 47, 0
1, 70096, Note_on_c, 5, 47, 0
1, 70115, Note_on_c, 5, 59, 0
1, 70120, Note_on_c, 5, 63, 0
1, 70187, Control_c, 7, 64, 127
1, 70205, Note_on_c, 1, 33, 0
1, 70205, Note_on_c, 9, 36, 0
1, 70205, Note_on_c, 9, 42, 0
1, 70207, Note_on_c, 1, 33, 93
1, 70207, Note_on_c, 3, 75, 90
1, 70207, Note_on_c, 9, 36, 50
1, 70241, Note_on_c, 3, 76, 0
1, 70260, Note_on_c, 3, 75, 0
1, 70319, Note_on_c, 7, 76, 0
1, 70325, Note_on_c, 9, 36, 0
1, 70327, Note_on_c, 3, 75, 105
1, 70327, Note_on_c, 7, 71, 78
1, 70327, Note_on_c, 9, 42, 60
1, 70327, Note_on_c, 10, 69, 66
1, 70327, Note_on_c, 11, 57, 55
1, 70327, Lyric_t, "that "
1, 70328, Note_on_c, 7, 69, 0
1, 70362, Note_on_c, 10, 76, 0
1, 70377, Note_on_c, 10, 73, 0
1, 70426, Note_on_c, 11, 59, 0
1, 70432, Note_on_c, 11, 64, 0
1, 70445, Note_on_c, 9, 42, 0
1, 70447, Note_on_c, 3, 73, 102
1, 70447, Lyric_t, "I "
1, 70447, Lyric_t, "\015"
1, 70464, Note_on_c, 3, 75, 0
1, 70551, Note_on_c, 10, 69, 0
1, 70559, Note_on_c, 7, 71, 0
1, 70567, Note_on_c, 7, 69, 74
1, 70567, Note_on_c, 7, 76, 80
1, 70567, Note_on_c, 7, 57, 62
1, 70567, Note_on_c, 9, 42, 80
1, 70567, Note_on_c, 9, 38, 90
1, 70567, Note_on_c, 10, 76, 82
1, 70567, Note_on_c, 10, 73, 87
1, 70567, Note_on_c, 11, 59, 93
1, 70567, Note_on_c, 11, 64, 99
1, 70604, Note_on_c, 11, 57, 0
1, 70625, Note_on_c, 3, 73, 0
1, 70676, Note_on_c, 7, 76, 0
1, 70685, Note_on_c, 9, 38, 0
1, 70685, Note_on_c, 9, 42, 0
1, 70687, Note_on_c, 3, 71, 111
1, 70687, Lyric_t, "would "
1, 70696, Note_on_c, 7, 69, 0
1, 70777, Note_on_c, 3, 71, 0
1, 70798, Note_on_c, 7, 57, 0
1, 70807, Note_on_c, 3, 71, 99
1, 70807, Note_on_c, 9, 42, 60
1, 70807, Note_on_c, 10, 71, 55
1, 70807, Note_on_c, 11, 57, 64
1, 70848, Note_on_c, 10, 73, 0
1, 70885, Note_on_c, 11, 64, 0
1, 70885, Note_on_c, 11, 59, 0
1, 70894, Note_on_c, 10, 76, 0
1, 70925, Note_on_c, 9, 42, 0
1, 70927, Note_on_c, 3, 73, 105
1, 70927, Lyric_t, "touch "
1, 70951, Note_on_c, 3, 71, 0
1, 70964, Note_on_c, 7, 45, 0
1, 70972, Note_on_c, 12, 45, 0
1, 71045, Note_on_c, 1, 33, 0
1, 71047, Note_on_c, 1, 33, 93
1, 71047, Note_on_c, 7, 45, 90
1, 71047, Note_on_c, 7, 64, 74
1, 71047, Note_on_c, 7, 59, 76
1, 71047, Note_on_c, 9, 36, 100
1, 71047, Note_on_c, 9, 42, 80
1, 71047, Note_on_c, 10, 83, 87
1, 71047, Note_on_c, 10, 76, 76
1, 71047, Note_on_c, 11, 59, 96
1, 71047, Note_on_c, 11, 64, 93
1, 71081, Note_on_c, 11, 57, 0
1, 71096, Note_on_c, 10, 71, 0
1, 71161, Note_on_c, 3, 73, 0
1, 71165, Note_on_c, 9, 36, 0
1, 71165, Note_on_c, 9, 42, 0
1, 71165, Note_on_c, 1, 33, 0
1, 71167, Note_on_c, 1, 33, 102
1, 71167, Note_on_c, 3, 71, 102
1, 71167, Note_on_c, 9, 36, 53
1, 71167, Lyric_t, "an "
1, 71235, Note_on_c, 7, 59, 0
1, 71285, Note_on_c, 9, 36, 0
1, 71287, Note_on_c, 7, 57, 47
1, 71287, Note_on_c, 9, 42, 60
1, 71287, Note_on_c, 10, 71, 76
1, 71287, Note_on_c, 11, 57, 57
1, 71380, Note_on_c, 7, 64, 0
1, 71405, Note_on_c, 9, 42, 0
1, 71440, Note_on_c, 11, 64, 0
1, 71442, Note_on_c, 10, 83, 0
1, 71458, Note_on_c, 11, 59, 0
1, 71525, Note_on_c, 3, 71, 0
1, 71527, Note_on_c, 3, 68, 105
1, 71527, Note_on_c, 7, 64, 99
1, 71527, Note_on_c, 7, 52, 76
1, 71527, Note_on_c, 9, 42, 80
1, 71527, Note_on_c, 9, 38, 91
1, 71527, Note_on_c, 10, 81, 96
1, 71527, Note_on_c, 11, 59, 93
1, 71527, Note_on_c, 11, 64, 93
1, 71527, Lyric_t, "an"
1, 71538, Note_on_c, 10, 71, 0
1, 71562, Note_on_c, 11, 57, 0
1, 71623, Note_on_c, 7, 57, 0
1, 71645, Note_on_c, 9, 42, 0
1, 71645, Note_on_c, 9, 38, 0
1, 71765, Note_on_c, 1, 33, 0
1, 71767, Note_on_c, 3, 71, 99
1, 71767, Note_on_c, 7, 57, 58
1, 71767, Note_on_c, 9, 42, 60
1, 71767, Note_on_c, 10, 71, 74
1, 71767, Note_on_c, 11, 57, 64
1, 71767, Note_on_c, 12, 45, 99
1, 71767, Lyric_t, "gel's "
1, 71800, Note_on_c, 3, 68, 0
1, 71820, Note_on_c, 11, 59, 0
1, 71839, Control_c, 6, 11, 126
1, 71885, Note_on_c, 9, 42, 0
1, 71887, Note_on_c, 12, 47, 96
1, 71895, Note_on_c, 11, 64, 0
1, 71901, Note_on_c, 12, 45, 0
1, 71911, Note_on_c, 10, 81, 0
1, 71921, Note_on_c, 11, 57, 0
1, 71929, Note_on_c, 5, 45, 0
1, 71942, Note_on_c, 7, 52, 0
1, 71954, Control_c, 7, 64, 0
1, 71958, Note_on_c, 7, 45, 0
1, 71959, Note_on_c, 7, 64, 0
1, 71970, Note_on_c, 7, 57, 0
1, 71976, Note_on_c, 10, 71, 0
1, 71980, Note_on_c, 12, 47, 0
1, 71992, Note_on_c, 10, 76, 0
1, 72007, Note_on_c, 1, 32, 102
1, 72007, Note_on_c, 5, 60, 70
1, 72007, Note_on_c, 5, 56, 47
1, 72007, Note_on_c, 5, 44, 80
1, 72007, Note_on_c, 7, 60, 82
1, 72007, Note_on_c, 7, 63, 82
1, 72007, Note_on_c, 7, 44, 99
1, 72007, Note_on_c, 9, 42, 80
1, 72007, Note_on_c, 9, 36, 100
1, 72007, Note_on_c, 10, 68, 87
1, 72007, Note_on_c, 10, 75, 62
1, 72007, Note_on_c, 10, 73, 82
1, 72007, Note_on_c, 11, 60, 87
1, 72007, Note_on_c, 11, 56, 80
1, 72007, Note_on_c, 12, 44, 102
1, 72016, Note_on_c, 3, 71, 0
1, 72029, Note_on_c, 5, 52, 0
1, 72125, Note_on_c, 1, 32, 0
1, 72125, Note_on_c, 9, 42, 0
1, 72125, Note_on_c, 9, 36, 0
1, 72127, Note_on_c, 1, 32, 84
1, 72127, Note_on_c, 9, 36, 50
1, 72133, Note_on_c, 5, 59, 0
1, 72145, Control_c, 7, 64, 127
1, 72194, Note_on_c, 11, 56, 0
1, 72219, Note_on_c, 10, 75, 0
1, 72229, Note_on_c, 10, 73, 0
1, 72245, Note_on_c, 9, 36, 0
1, 72247, Note_on_c, 3, 73, 114
1, 72247, Note_on_c, 7, 56, 44
1, 72247, Note_on_c, 9, 42, 60
1, 72247, Note_on_c, 11, 56, 43
1, 72247, Lyric_t, "wings. "
1, 72247, Lyric_t, "\015"
1, 72252, Note_on_c, 10, 68, 0
1, 72283, Note_on_c, 7, 63, 0
1, 72303, Note_on_c, 7, 60, 0
1, 72365, Note_on_c, 9, 42, 0
1, 72367, Note_on_c, 3, 71, 96
1, 72382, Note_on_c, 3, 73, 0
1, 72407, Note_on_c, 11, 56, 0
1, 72448, Note_on_c, 11, 60, 0
1, 72485, Note_on_c, 7, 56, 0
1, 72487, Note_on_c, 3, 68, 105
1, 72487, Note_on_c, 5, 61, 74
1, 72487, Note_on_c, 7, 63, 80
1, 72487, Note_on_c, 7, 61, 80
1, 72487, Note_on_c, 7, 51, 39
1, 72487, Note_on_c, 9, 38, 90
1, 72487, Note_on_c, 9, 42, 80
1, 72487, Note_on_c, 10, 75, 84
1, 72487, Note_on_c, 10, 73, 90
1, 72487, Note_on_c, 11, 61, 96
1, 72487, Note_on_c, 11, 56, 78
1, 72502, Note_on_c, 3, 71, 0
1, 72532, Note_on_c, 5, 60, 0
1, 72605, Note_on_c, 9, 38, 0
1, 72605, Note_on_c, 9, 42, 0
1, 72620, Pitch_bend_c, 3, 6342
1, 72629, Pitch_bend_c, 3, 4936
1, 72638, Pitch_bend_c, 3, 3258
1, 72648, Pitch_bend_c, 3, 2271
1, 72657, Pitch_bend_c, 3, 1334
1, 72666, Pitch_bend_c, 3, 1087
1, 72684, Pitch_bend_c, 3, 1186
1, 72727, Note_on_c, 7, 56, 47
1, 72727, Note_on_c, 9, 42, 60
1, 72727, Note_on_c, 10, 68, 84
1, 72731, Pitch_bend_c, 3, 1531
1, 72739, Note_on_c, 11, 61, 0
1, 72741, Pitch_bend_c, 3, 2419
1, 72742, Note_on_c, 7, 44, 0
1, 72749, Pitch_bend_c, 3, 3974
1, 72759, Pitch_bend_c, 3, 6391
1, 72768, Pitch_bend_c, 3, 8192
1, 72770, Note_on_c, 7, 61, 0
1, 72789, Note_on_c, 7, 63, 0
1, 72845, Note_on_c, 9, 42, 0
1, 72853, Note_on_c, 12, 44, 0
1, 72915, Note_on_c, 10, 68, 0
1, 72926, Note_on_c, 11, 56, 0
1, 72926, Note_on_c, 5, 44, 0
1, 72927, Note_on_c, 10, 73, 0
1, 72951, Note_on_c, 7, 56, 0
1, 72957, Note_on_c, 7, 51, 0
1, 72965, Note_on_c, 1, 32, 0
1, 72965, Note_on_c, 5, 61, 0
1, 72967, Note_on_c, 1, 32, 93
1, 72967, Note_on_c, 5, 60, 80
1, 72967, Note_on_c, 5, 44, 90
1, 72967, Note_on_c, 7, 63, 78
1, 72967, Note_on_c, 7, 60, 84
1, 72967, Note_on_c, 7, 44, 90
1, 72967, Note_on_c, 9, 36, 100
1, 72967, Note_on_c, 9, 42, 80
1, 72967, Note_on_c, 10, 72, 99
1, 72967, Note_on_c, 11, 56, 54
1, 72967, Note_on_c, 11, 60, 90
1, 72967, Note_on_c, 12, 44, 72
1, 72991, Control_c, 7, 64, 0
1, 73085, Note_on_c, 9, 42, 0
1, 73085, Note_on_c, 9, 36, 0
1, 73085, Note_on_c, 1, 32, 0
1, 73087, Note_on_c, 1, 32, 102
1, 73087, Note_on_c, 6, 56, 90
1, 73087, Note_on_c, 6, 68, 87
1, 73087, Note_on_c, 6, 44, 96
1, 73087, Note_on_c, 6, 63, 70
1, 73087, Note_on_c, 6, 44, 84
1, 73087, Note_on_c, 9, 36, 53
1, 73108, Note_on_c, 6, 44, 0
1, 73111, Control_c, 7, 64, 127
1, 73129, Note_on_c, 6, 44, 0
1, 73133, Note_on_c, 6, 56, 0
1, 73133, Note_on_c, 3, 68, 0
1, 73134, Note_on_c, 6, 63, 0
1, 73134, Note_on_c, 6, 68, 0
1, 73147, Note_on_c, 6, 44, 90
1, 73174, Note_on_c, 6, 44, 0
1, 73190, Note_on_c, 11, 56, 0
1, 73205, Note_on_c, 9, 36, 0
1, 73207, Note_on_c, 6, 56, 106
1, 73207, Note_on_c, 6, 63, 106
1, 73207, Note_on_c, 6, 68, 106
1, 73207, Note_on_c, 6, 44, 106
1, 73207, Note_on_c, 6, 44, 99
1, 73207, Note_on_c, 7, 56, 68
1, 73207, Note_on_c, 9, 42, 60
1, 73207, Note_on_c, 10, 68, 64
1, 73207, Note_on_c, 11, 56, 37
1, 73234, Note_on_c, 6, 44, 0
1, 73238, Note_on_c, 6, 68, 0
1, 73241, Note_on_c, 6, 44, 0
1, 73241, Note_on_c, 6, 63, 0
1, 73241, Note_on_c, 6, 56, 0
1, 73267, Note_on_c, 6, 44, 107
1, 73267, Note_on_c, 6, 63, 107
1, 73267, Note_on_c, 6, 68, 107
1, 73267, Note_on_c, 6, 56, 107
1, 73267, Note_on_c, 6, 44, 96
1, 73290, Note_on_c, 6, 68, 0
1, 73297, Note_on_c, 6, 63, 0
1, 73298, Note_on_c, 6, 56, 0
1, 73299, Note_on_c, 6, 44, 0
1, 73302, Note_on_c, 6, 44, 0
1, 73322, Note_on_c, 10, 72, 0
1, 73325, Note_on_c, 9, 42, 0
1, 73327, Note_on_c, 6, 56, 111
1, 73327, Note_on_c, 6, 68, 111
1, 73327, Note_on_c, 6, 63, 111
1, 73327, Note_on_c, 6, 44, 111
1, 73327, Note_on_c, 6, 44, 111
1, 73354, Note_on_c, 6, 44, 0
1, 73356, Note_on_c, 6, 63, 0
1, 73358, Note_on_c, 6, 68, 0
1, 73358, Note_on_c, 6, 56, 0
1, 73367, Note_on_c, 6, 44, 0
1, 73387, Note_on_c, 6, 56, 115
1, 73387, Note_on_c, 6, 63, 115
1, 73387, Note_on_c, 6, 44, 115
1, 73387, Note_on_c, 6, 68, 115
1, 73387, Note_on_c, 6, 44, 114
1, 73400, Note_on_c, 5, 56, 0
1, 73401, Note_on_c, 11, 56, 0
1, 73420, Note_on_c, 6, 44, 0
1, 73421, Note_on_c, 6, 68, 0
1, 73422, Note_on_c, 6, 63, 0
1, 73422, Note_on_c, 6, 56, 0
1, 73426, Note_on_c, 6, 44, 0
1, 73427, Note_on_c, 10, 68, 0
1, 73438, Note_on_c, 10, 75, 0
1, 73447, Note_on_c, 5, 56, 80
1, 73447, Note_on_c, 6, 56, 119
1, 73447, Note_on_c, 6, 63, 119
1, 73447, Note_on_c, 6, 44, 119
1, 73447, Note_on_c, 6, 68, 119
1, 73447, Note_on_c, 6, 44, 117
1, 73447, Note_on_c, 7, 51, 66
1, 73447, Note_on_c, 9, 54, 66
1, 73447, Note_on_c, 9, 38, 91
1, 73447, Note_on_c, 9, 42, 80
1, 73447, Note_on_c, 10, 80, 96
1, 73447, Note_on_c, 10, 72, 96
1, 73447, Note_on_c, 11, 56, 40
1, 73483, Note_on_c, 6, 44, 0
1, 73483, Note_on_c, 6, 44, 0
1, 73485, Note_on_c, 7, 60, 0
1, 73490, Note_on_c, 6, 63, 0
1, 73491, Note_on_c, 6, 56, 0
1, 73494, Note_on_c, 6, 68, 0
1, 73497, Note_on_c, 12, 44, 0
1, 73509, Note_on_c, 7, 63, 0
1, 73565, Note_on_c, 9, 42, 0
1, 73565, Note_on_c, 9, 38, 0
1, 73565, Note_on_c, 9, 54, 0
1, 73567, Note_on_c, 12, 48, 105
1, 73568, Note_on_c, 10, 72, 0
1, 73598, Note_on_c, 10, 80, 0
1, 73623, Note_on_c, 11, 56, 0
1, 73673, Note_on_c, 12, 48, 0
1, 73685, Note_on_c, 7, 56, 0
1, 73687, Note_on_c, 3, 73, 111
1, 73687, Note_on_c, 7, 63, 87
1, 73687, Note_on_c, 9, 42, 60
1, 73687, Note_on_c, 11, 63, 90
1, 73687, Note_on_c, 11, 56, 78
1, 73687, Note_on_c, 12, 51, 96
1, 73687, Lyric_t, "There's "
1, 73714, Note_on_c, 11, 60, 0
1, 73753, Control_c, 7, 64, 0
1, 73805, Note_on_c, 9, 42, 0
1, 73807, Note_on_c, 3, 75, 111
1, 73807, Lyric_t, "a "
1, 73809, Note_on_c, 9, 42, 40
1, 73813, Note_on_c, 7, 51, 0
1, 73823, Note_on_c, 3, 73, 0
1, 73834, Note_on_c, 5, 44, 0
1, 73839, Note_on_c, 7, 44, 0
1, 73867, Note_on_c, 7, 63, 0
1, 73870, Note_on_c, 11, 56, 0
1, 73874, Note_on_c, 5, 60, 0
1, 73876, Note_on_c, 11, 63, 0
1, 73878, Note_on_c, 5, 56, 0
1, 73903, Note_on_c, 12, 51, 0
1, 73905, Note_on_c, 3, 75, 0
1, 73925, Note_on_c, 1, 32, 0
1, 73927, Note_on_c, 9, 42, 0
1, 73927, Note_on_c, 1, 33, 111
1, 73927, Note_on_c, 3, 76, 105
1, 73927, Note_on_c, 5, 64, 74
1, 73927, Note_on_c, 5, 59, 68
1, 73927, Note_on_c, 5, 57, 66
1, 73927, Note_on_c, 5, 45, 76
1, 73927, Note_on_c, 7, 64, 87
1, 73927, Note_on_c, 7, 59, 87
1, 73927, Note_on_c, 7, 45, 99
1, 73927, Note_on_c, 9, 36, 100
1, 73927, Note_on_c, 9, 49, 60
1, 73927, Note_on_c, 10, 76, 80
1, 73927, Note_on_c, 10, 71, 90
1, 73927, Note_on_c, 11, 64, 84
1, 73927, Note_on_c, 11, 59, 90
1, 73927, Note_on_c, 12, 49, 87
1, 73927, Lyric_t, "jour"
1, 74034, Control_c, 7, 64, 127
1, 74045, Note_on_c, 9, 49, 0
1, 74045, Note_on_c, 9, 36, 0
1, 74045, Note_on_c, 1, 33, 0
1, 74047, Note_on_c, 1, 33, 90
1, 74047, Note_on_c, 9, 36, 50
1, 74165, Note_on_c, 9, 36, 0
1, 74167, Note_on_c, 3, 75, 108
1, 74167, Note_on_c, 7, 57, 64
1, 74167, Note_on_c, 9, 42, 60
1, 74167, Note_on_c, 10, 69, 55
1, 74167, Note_on_c, 11, 57, 62
1, 74167, Lyric_t, "ney "
1, 74171, Note_on_c, 3, 76, 0
1, 74207, Note_on_c, 7, 59, 0
1, 74208, Note_on_c, 7, 64, 0
1, 74285, Note_on_c, 9, 42, 0
1, 74287, Note_on_c, 3, 73, 111
1, 74287, Lyric_t, "in "
1, 74304, Note_on_c, 3, 75, 0
1, 74316, Note_on_c, 10, 76, 0
1, 74323, Note_on_c, 10, 71, 0
1, 74329, Note_on_c, 11, 64, 0
1, 74352, Note_on_c, 11, 59, 0
1, 74403, Note_on_c, 7, 57, 0
1, 74407, Note_on_c, 7, 64, 96
1, 74407, Note_on_c, 7, 61, 99
1, 74407, Note_on_c, 7, 52, 76
1, 74407, Note_on_c, 9, 42, 80
1, 74407, Note_on_c, 9, 38, 90
1, 74407, Note_on_c, 10, 76, 84
1, 74407, Note_on_c, 10, 71, 80
1, 74407, Note_on_c, 11, 59, 90
1, 74407, Note_on_c, 11, 64, 93
1, 74451, Note_on_c, 10, 69, 0
1, 74525, Note_on_c, 9, 38, 0
1, 74525, Note_on_c, 9, 42, 0
1, 74527, Note_on_c, 3, 71, 111
1, 74527, Lyric_t, "my "
1, 74531, Note_on_c, 3, 73, 0
1, 74589, Note_on_c, 12, 49, 0
1, 74600, Note_on_c, 7, 45, 0
1, 74601, Note_on_c, 11, 64, 0
1, 74647, Note_on_c, 7, 57, 66
1, 74647, Note_on_c, 9, 42, 60
1, 74647, Note_on_c, 10, 69, 61
1, 74647, Note_on_c, 11, 64, 80
1, 74652, Note_on_c, 10, 76, 0
1, 74661, Note_on_c, 7, 64, 0
1, 74663, Note_on_c, 7, 61, 0
1, 74689, Note_on_c, 10, 71, 0
1, 74699, Note_on_c, 11, 57, 0
1, 74708, Note_on_c, 11, 59, 0
1, 74713, Note_on_c, 7, 52, 0
1, 74729, Note_on_c, 11, 64, 0
1, 74759, Note_on_c, 3, 71, 0
1, 74765, Note_on_c, 9, 42, 0
1, 74767, Note_on_c, 3, 73, 111
1, 74767, Note_on_c, 11, 59, 78
1, 74767, Note_on_c, 11, 64, 78
1, 74767, Lyric_t, "eyes "
1, 74767, Lyric_t, "\015"
1, 74808, Note_on_c, 5, 59, 0
1, 74855, Note_on_c, 11, 59, 0
1, 74868, Note_on_c, 11, 64, 0
1, 74877, Note_on_c, 7, 57, 0
1, 74885, Note_on_c, 1, 33, 0
1, 74887, Note_on_c, 1, 32, 90
1, 74887, Note_on_c, 5, 63, 76
1, 74887, Note_on_c, 5, 60, 76
1, 74887, Note_on_c, 5, 44, 84
1, 74887, Note_on_c, 7, 60, 90
1, 74887, Note_on_c, 7, 63, 84
1, 74887, Note_on_c, 7, 44, 90
1, 74887, Note_on_c, 9, 42, 80
1, 74887, Note_on_c, 9, 36, 100
1, 74887, Note_on_c, 10, 75, 87
1, 74887, Note_on_c, 10, 72, 78
1, 74887, Note_on_c, 11, 60, 82
1, 74887, Note_on_c, 11, 63, 78
1, 74887, Note_on_c, 11, 56, 82
1, 74887, Note_on_c, 12, 44, 82
1, 74895, Note_on_c, 5, 45, 0
1, 74912, Note_on_c, 5, 57, 0
1, 74912, Note_on_c, 10, 69, 0
1, 74913, Control_c, 7, 64, 0
1, 74933, Note_on_c, 5, 64, 0
1, 75005, Note_on_c, 9, 42, 0
1, 75005, Note_on_c, 1, 32, 0
1, 75005, Note_on_c, 9, 36, 0
1, 75007, Note_on_c, 1, 32, 99
1, 75007, Note_on_c, 9, 36, 53
1, 75019, Control_c, 7, 64, 127
1, 75125, Note_on_c, 9, 36, 0
1, 75127, Note_on_c, 7, 56, 102
1, 75127, Note_on_c, 9, 42, 60
1, 75127, Note_on_c, 10, 68, 55
1, 75128, Note_on_c, 3, 73, 0
1, 75150, Note_on_c, 10, 75, 0
1, 75153, Note_on_c, 10, 72, 0
1, 75168, Note_on_c, 7, 60, 0
1, 75245, Note_on_c, 9, 42, 0
1, 75330, Note_on_c, 12, 44, 0
1, 75341, Note_on_c, 11, 60, 0
1, 75345, Note_on_c, 11, 63, 0
1, 75367, Note_on_c, 7, 51, 74
1, 75367, Note_on_c, 9, 42, 80
1, 75367, Note_on_c, 9, 38, 91
1, 75367, Note_on_c, 10, 72, 90
1, 75367, Note_on_c, 10, 75, 90
1, 75367, Note_on_c, 11, 60, 90
1, 75367, Note_on_c, 11, 63, 93
1, 75381, Note_on_c, 7, 56, 0
1, 75392, Note_on_c, 10, 68, 0
1, 75399, Note_on_c, 7, 63, 0
1, 75485, Note_on_c, 9, 42, 0
1, 75485, Note_on_c, 9, 38, 0
1, 75487, Note_on_c, 3, 72, 105
1, 75487, Note_on_c, 12, 48, 74
1, 75487, Lyric_t, "it's "
1, 75520, Note_on_c, 11, 56, 0
1, 75534, Note_on_c, 7, 44, 0
1, 75566, Note_on_c, 3, 72, 0
1, 75571, Note_on_c, 12, 48, 0
1, 75591, Note_on_c, 11, 60, 0
1, 75605, Note_on_c, 1, 32, 0
1, 75607, Note_on_c, 1, 35, 66
1, 75607, Note_on_c, 3, 73, 105
1, 75607, Note_on_c, 7, 63, 90
1, 75607, Note_on_c, 7, 60, 80
1, 75607, Note_on_c, 7, 44, 48
1, 75607, Note_on_c, 9, 42, 60
1, 75607, Note_on_c, 10, 68, 80
1, 75607, Note_on_c, 11, 56, 72
1, 75607, Note_on_c, 11, 60, 76
1, 75607, Note_on_c, 12, 51, 82
1, 75607, Lyric_t, "get"
1, 75673, Note_on_c, 10, 72, 0
1, 75676, Note_on_c, 10, 75, 0
1, 75681, Note_on_c, 7, 51, 0
1, 75702, Note_on_c, 11, 60, 0
1, 75712, Note_on_c, 11, 63, 0
1, 75717, Note_on_c, 11, 56, 0
1, 75721, Note_on_c, 10, 68, 0
1, 75725, Note_on_c, 1, 35, 0
1, 75725, Note_on_c, 9, 42, 0
1, 75726, Note_on_c, 3, 73, 0
1, 75727, Note_on_c, 3, 75, 111
1, 75727, Note_on_c, 11, 56, 74
1, 75727, Note_on_c, 11, 60, 82
1, 75727, Note_on_c, 11, 63, 84
1, 75727, Lyric_t, "ting "
1, 75753, Note_on_c, 7, 44, 0
1, 75781, Note_on_c, 7, 60, 0
1, 75782, Note_on_c, 12, 51, 0
1, 75790, Note_on_c, 7, 63, 0
1, 75810, Control_c, 7, 64, 0
1, 75842, Time_signature, 2, 2, 24, 8
1, 75843, Note_on_c, 3, 75, 0
1, 75846, Note_on_c, 11, 56, 0
1, 75847, Note_on_c, 1, 37, 105
1, 75847, Note_on_c, 3, 76, 111
1, 75847, Note_on_c, 5, 64, 80
1, 75847, Note_on_c, 5, 61, 76
1, 75847, Note_on_c, 5, 56, 64
1, 75847, Note_on_c, 5, 49, 82
1, 75847, Note_on_c, 7, 64, 90
1, 75847, Note_on_c, 7, 61, 93
1, 75847, Note_on_c, 7, 37, 90
1, 75847, Note_on_c, 9, 36, 100
1, 75847, Note_on_c, 9, 49, 60
1, 75847, Note_on_c, 10, 76, 82
1, 75847, Note_on_c, 10, 73, 84
1, 75847, Note_on_c, 11, 56, 87
1, 75847, Note_on_c, 11, 64, 93
1, 75847, Note_on_c, 11, 59, 82
1, 75847, Note_on_c, 12, 49, 74
1, 75847, Lyric_t, "hard "
1, 75856, Note_on_c, 11, 60, 0
1, 75865, Note_on_c, 11, 63, 0
1, 75865, Note_on_c, 5, 63, 0
1, 75880, Note_on_c, 5, 60, 0
1, 75895, Note_on_c, 5, 44, 0
1, 75938, Control_c, 7, 64, 127
1, 75965, Note_on_c, 9, 49, 0
1, 75965, Note_on_c, 1, 37, 0
1, 75965, Note_on_c, 9, 36, 0
1, 75967, Note_on_c, 1, 37, 90
1, 75967, Note_on_c, 9, 36, 50
1, 76052, Note_on_c, 11, 59, 0
1, 76056, Note_on_c, 7, 64, 0
1, 76062, Note_on_c, 7, 61, 0
1, 76085, Note_on_c, 9, 36, 0
1, 76087, Note_on_c, 3, 78, 105
1, 76087, Note_on_c, 7, 56, 61
1, 76087, Note_on_c, 7, 49, 62
1, 76087, Note_on_c, 9, 42, 60
1, 76087, Note_on_c, 10, 68, 43
1, 76087, Note_on_c, 11, 59, 37
1, 76087, Lyric_t, "for "
1, 76111, Note_on_c, 3, 76, 0
1, 76141, Note_on_c, 7, 49, 0
1, 76142, Note_on_c, 7, 56, 0
1, 76154, Note_on_c, 10, 76, 0
1, 76171, Note_on_c, 10, 73, 0
1, 76201, Note_on_c, 3, 78, 0
1, 76205, Note_on_c, 9, 42, 0
1, 76207, Note_on_c, 3, 80, 105
1, 76207, Lyric_t, "me "
1, 76281, Note_on_c, 11, 56, 0
1, 76283, Note_on_c, 11, 59, 0
1, 76283, Note_on_c, 7, 37, 0
1, 76311, Note_on_c, 12, 49, 0
1, 76325, Note_on_c, 1, 37, 0
1, 76327, Note_on_c, 1, 35, 87
1, 76327, Note_on_c, 5, 66, 82
1, 76327, Note_on_c, 5, 47, 84
1, 76327, Note_on_c, 7, 59, 90
1, 76327, Note_on_c, 7, 68, 87
1, 76327, Note_on_c, 7, 47, 78
1, 76327, Note_on_c, 9, 38, 90
1, 76327, Note_on_c, 9, 46, 60
1, 76327, Note_on_c, 10, 78, 80
1, 76327, Note_on_c, 10, 73, 87
1, 76327, Note_on_c, 11, 68, 84
1, 76327, Note_on_c, 11, 59, 90
1, 76327, Note_on_c, 12, 47, 44
1, 76335, Note_on_c, 10, 68, 0
1, 76381, Note_on_c, 5, 49, 0
1, 76389, Note_on_c, 5, 64, 0
1, 76445, Note_on_c, 9, 46, 0
1, 76445, Note_on_c, 9, 38, 0
1, 76521, Note_on_c, 7, 68, 0
1, 76556, Note_on_c, 11, 59, 0
1, 76564, Note_on_c, 7, 59, 0
1, 76567, Note_on_c, 7, 56, 66
1, 76567, Note_on_c, 9, 46, 74
1, 76567, Note_on_c, 10, 68, 47
1, 76567, Note_on_c, 11, 59, 66
1, 76630, Note_on_c, 7, 56, 0
1, 76631, Note_on_c, 10, 78, 0
1, 76648, Note_on_c, 10, 73, 0
1, 76685, Note_on_c, 9, 46, 0
1, 76687, Note_on_c, 3, 78, 99
1, 76687, Lyric_t, "to "
1, 76691, Note_on_c, 12, 47, 0
1, 76695, Note_on_c, 3, 80, 0
1, 76695, Note_on_c, 5, 56, 0
1, 76756, Note_on_c, 11, 59, 0
1, 76760, Note_on_c, 7, 47, 0
1, 76775, Note_on_c, 11, 68, 0
1, 76781, Note_on_c, 10, 68, 0
1, 76788, Note_on_c, 11, 64, 0
1, 76793, Note_on_c, 3, 78, 0
1, 76799, Note_on_c, 5, 47, 0
1, 76802, Time_signature, 4, 2, 24, 8
1, 76805, Note_on_c, 1, 35, 0
1, 76807, Note_on_c, 1, 34, 96
1, 76807, Note_on_c, 5, 46, 70
1, 76807, Note_on_c, 5, 58, 58
1, 76807, Note_on_c, 7, 58, 90
1, 76807, Note_on_c, 7, 66, 93
1, 76807, Note_on_c, 7, 61, 96
1, 76807, Note_on_c, 7, 46, 93
1, 76807, Note_on_c, 9, 49, 60
1, 76807, Note_on_c, 9, 36, 100
1, 76807, Note_on_c, 10, 78, 62
1, 76807, Note_on_c, 10, 73, 57
1, 76807, Note_on_c, 11, 66, 90
1, 76807, Note_on_c, 11, 61, 99
1, 76807, Note_on_c, 11, 58, 90
1, 76807, Note_on_c, 12, 46, 61
1, 76830, Control_c, 7, 64, 0
1, 76925, Note_on_c, 9, 36, 0
1, 76925, Note_on_c, 9, 49, 0
1, 76927, Note_on_c, 9, 36, 50
1, 76979, Control_c, 10, 11, 126
1, 76995, Control_c, 10, 11, 125
1, 77011, Control_c, 10, 11, 124
1, 77027, Control_c, 10, 11, 123
1, 77043, Control_c, 10, 11, 122
1, 77045, Note_on_c, 9, 36, 0
1, 77047, Note_on_c, 3, 75, 111
1, 77047, Lyric_t, "hide "
1, 77047, Lyric_t, "\015"
1, 77051, Control_c, 10, 11, 121
1, 77067, Control_c, 10, 11, 120
1, 77083, Control_c, 10, 11, 119
1, 77099, Control_c, 10, 11, 118
1, 77107, Control_c, 10, 11, 117
1, 77123, Control_c, 10, 11, 116
1, 77139, Control_c, 10, 11, 115
1, 77155, Control_c, 10, 11, 114
1, 77163, Control_c, 10, 11, 113
1, 77179, Control_c, 10, 11, 112
1, 77182, Pitch_bend_c, 3, 8437
1, 77191, Pitch_bend_c, 3, 9151
1, 77195, Control_c, 10, 11, 111
1, 77201, Pitch_bend_c, 3, 9620
1, 77210, Pitch_bend_c, 3, 10513
1, 77211, Control_c, 10, 11, 110
1, 77219, Pitch_bend_c, 3, 11852
1, 77219, Control_c, 10, 11, 109
1, 77228, Pitch_bend_c, 3, 12789
1, 77235, Control_c, 10, 11, 108
1, 77238, Pitch_bend_c, 3, 12120
1, 77248, Pitch_bend_c, 3, 8437
1, 77251, Control_c, 10, 11, 107
1, 77256, Pitch_bend_c, 3, 8192
1, 77267, Control_c, 10, 11, 106
1, 77283, Control_c, 5, 11, 126
1, 77283, Control_c, 10, 11, 105
1, 77287, Note_on_c, 3, 73, 90
1, 77291, Control_c, 10, 11, 104
1, 77294, Note_on_c, 3, 75, 0
1, 77299, Control_c, 5, 11, 125
1, 77307, Control_c, 10, 11, 103
1, 77315, Control_c, 5, 11, 124
1, 77323, Control_c, 5, 11, 123
1, 77323, Control_c, 10, 11, 102
1, 77339, Control_c, 5, 11, 122
1, 77339, Control_c, 10, 11, 101
1, 77347, Control_c, 10, 11, 100
1, 77355, Control_c, 5, 11, 121
1, 77363, Control_c, 5, 11, 120
1, 77363, Control_c, 10, 11, 99
1, 77379, Control_c, 5, 11, 119
1, 77379, Control_c, 10, 11, 98
1, 77387, Control_c, 5, 11, 118
1, 77395, Control_c, 10, 11, 97
1, 77403, Control_c, 5, 11, 117
1, 77403, Control_c, 10, 11, 96
1, 77419, Control_c, 5, 11, 116
1, 77419, Control_c, 10, 11, 95
1, 77427, Control_c, 5, 11, 115
1, 77435, Control_c, 10, 11, 94
1, 77443, Control_c, 5, 11, 114
1, 77451, Control_c, 5, 11, 113
1, 77451, Control_c, 10, 11, 93
1, 77459, Control_c, 10, 11, 92
1, 77467, Control_c, 5, 11, 112
1, 77475, Control_c, 10, 11, 91
1, 77483, Control_c, 5, 11, 111
1, 77491, Control_c, 5, 11, 110
1, 77491, Control_c, 10, 11, 90
1, 77507, Control_c, 5, 11, 109
1, 77507, Control_c, 10, 11, 89
1, 77515, Control_c, 10, 11, 88
1, 77523, Control_c, 5, 11, 108
1, 77531, Control_c, 5, 11, 107
1, 77531, Control_c, 10, 11, 87
1, 77547, Control_c, 5, 11, 106
1, 77547, Control_c, 10, 11, 86
1, 77555, Control_c, 5, 11, 105
1, 77563, Control_c, 10, 11, 85
1, 77571, Control_c, 5, 11, 104
1, 77579, Control_c, 10, 11, 84
1, 77587, Control_c, 5, 11, 103
1, 77587, Control_c, 10, 11, 83
1, 77595, Control_c, 5, 11, 102
1, 77603, Control_c, 10, 11, 82
1, 77611, Control_c, 5, 11, 101
1, 77619, Control_c, 5, 11, 100
1, 77619, Control_c, 10, 11, 81
1, 77631, Note_on_c, 12, 80, 66
1, 77635, Control_c, 5, 11, 99
1, 77635, Control_c, 10, 11, 80
1, 77643, Control_c, 10, 11, 79
1, 77651, Control_c, 5, 11, 98
1, 77659, Control_c, 5, 11, 97
1, 77659, Control_c, 10, 11, 78
1, 77661, Note_on_c, 12, 46, 0
1, 77675, Control_c, 5, 11, 96
1, 77675, Control_c, 10, 11, 77
1, 77691, Control_c, 5, 11, 95
1, 77691, Control_c, 10, 11, 76
1, 77699, Control_c, 5, 11, 94
1, 77699, Control_c, 10, 11, 75
1, 77715, Control_c, 5, 11, 93
1, 77715, Control_c, 10, 11, 74
1, 77723, Control_c, 5, 11, 92
1, 77731, Control_c, 10, 11, 73
1, 77739, Control_c, 5, 11, 91
1, 77747, Control_c, 10, 11, 72
1, 77755, Control_c, 5, 11, 90
1, 77755, Control_c, 10, 11, 71
1, 77763, Control_c, 5, 11, 89
1, 77763, Note_on_c, 12, 78, 82
1, 77767, Note_on_c, 12, 80, 0
1, 77767, Note_on_c, 9, 51, 60
1, 77771, Control_c, 10, 11, 70
1, 77779, Control_c, 5, 11, 88
1, 77787, Control_c, 5, 11, 87
1, 77787, Control_c, 10, 11, 69
1, 77803, Control_c, 5, 11, 86
1, 77803, Control_c, 10, 11, 68
1, 77811, Control_c, 10, 11, 67
1, 77819, Control_c, 5, 11, 85
1, 77827, Control_c, 5, 11, 84
1, 77827, Control_c, 10, 11, 66
1, 77843, Control_c, 5, 11, 83
1, 77843, Control_c, 10, 11, 65
1, 77859, Control_c, 5, 11, 82
1, 77859, Control_c, 10, 11, 64
1, 77867, Control_c, 5, 11, 81
1, 77875, Control_c, 10, 11, 63
1, 77883, Control_c, 5, 11, 80
1, 77883, Control_c, 10, 11, 62
1, 77885, Note_on_c, 9, 51, 0
1, 77891, Control_c, 5, 11, 79
1, 77899, Control_c, 10, 11, 61
1, 77907, Control_c, 5, 11, 78
1, 77915, Control_c, 10, 11, 60
1, 77922, Note_on_c, 12, 78, 0
1, 77923, Control_c, 5, 11, 77
1, 77931, Control_c, 5, 11, 76
1, 77931, Control_c, 10, 11, 59
1, 77939, Control_c, 10, 11, 58
1, 77947, Control_c, 5, 11, 75
1, 77955, Control_c, 5, 11, 74
1, 77955, Control_c, 10, 11, 57
1, 77959, Note_on_c, 12, 78, 55
1, 77971, Control_c, 5, 11, 73
1, 77971, Control_c, 10, 11, 56
1, 77987, Control_c, 5, 11, 72
1, 77987, Control_c, 10, 11, 55
1, 77994, Note_on_c, 12, 73, 76
1, 77995, Control_c, 5, 11, 71
1, 77995, Control_c, 10, 11, 54
1, 78011, Control_c, 5, 11, 70
1, 78011, Control_c, 10, 11, 53
1, 78027, Control_c, 5, 11, 69
1, 78027, Control_c, 10, 11, 52
1, 78028, Note_on_c, 12, 78, 0
1, 78035, Control_c, 5, 11, 68
1, 78043, Control_c, 10, 11, 51
1, 78051, Control_c, 5, 11, 67
1, 78051, Control_c, 10, 11, 50
1, 78059, Control_c, 5, 11, 66
1, 78067, Control_c, 10, 11, 49
1, 78075, Control_c, 5, 11, 65
1, 78083, Control_c, 10, 11, 48
1, 78091, Control_c, 5, 11, 64
1, 78099, Control_c, 5, 11, 63
1, 78099, Control_c, 10, 11, 47
1, 78105, Note_on_c, 3, 73, 0
1, 78107, Control_c, 10, 11, 46
1, 78115, Control_c, 5, 11, 62
1, 78123, Control_c, 5, 11, 61
1, 78123, Control_c, 10, 11, 45
1, 78139, Control_c, 5, 11, 60
1, 78139, Control_c, 10, 11, 44
1, 78155, Control_c, 5, 11, 59
1, 78155, Control_c, 10, 11, 43
1, 78163, Control_c, 5, 11, 58
1, 78171, Control_c, 10, 11, 42
1, 78179, Control_c, 5, 11, 57
1, 78179, Control_c, 10, 11, 41
1, 78195, Control_c, 5, 11, 56
1, 78195, Control_c, 10, 11, 40
1, 78196, Note_on_c, 10, 73, 0
1, 78201, Note_on_c, 10, 78, 0
1, 78203, Control_c, 5, 11, 55
1, 78211, Control_c, 10, 11, 39
1, 78219, Control_c, 5, 11, 54
1, 78227, Control_c, 5, 11, 53
1, 78227, Control_c, 10, 11, 38
1, 78235, Control_c, 10, 11, 37
1, 78243, Control_c, 5, 11, 52
1, 78251, Control_c, 10, 11, 36
1, 78259, Control_c, 5, 11, 51
1, 78267, Control_c, 5, 11, 50
1, 78267, Control_c, 10, 11, 35
1, 78283, Control_c, 5, 11, 49
1, 78283, Control_c, 10, 11, 34
1, 78291, Control_c, 5, 11, 48
1, 78291, Control_c, 10, 11, 33
1, 78307, Control_c, 5, 11, 47
1, 78307, Control_c, 10, 11, 32
1, 78323, Control_c, 5, 11, 46
1, 78323, Control_c, 10, 11, 31
1, 78331, Control_c, 5, 11, 45
1, 78339, Control_c, 10, 11, 30
1, 78347, Control_c, 5, 11, 44
1, 78347, Control_c, 10, 11, 29
1, 78363, Control_c, 5, 11, 43
1, 78363, Control_c, 10, 11, 28
1, 78371, Control_c, 5, 11, 42
1, 78379, Control_c, 10, 11, 27
1, 78387, Control_c, 5, 11, 41
1, 78395, Control_c, 5, 11, 40
1, 78395, Control_c, 10, 11, 26
1, 78403, Control_c, 10, 11, 25
1, 78411, Control_c, 5, 11, 39
1, 78427, Control_c, 5, 11, 38
1, 78435, Control_c, 5, 11, 37
1, 78451, Control_c, 5, 11, 36
1, 78459, Control_c, 5, 11, 35
1, 78475, Control_c, 5, 11, 34
1, 78487, Note_on_c, 3, 73, 105
1, 78487, Lyric_t, "like "
1, 78491, Control_c, 5, 11, 33
1, 78499, Control_c, 5, 11, 32
1, 78515, Control_c, 5, 11, 31
1, 78531, Control_c, 5, 11, 30
1, 78539, Control_c, 5, 11, 29
1, 78555, Control_c, 5, 11, 28
1, 78563, Control_c, 5, 11, 27
1, 78579, Control_c, 5, 11, 26
1, 78583, Note_on_c, 3, 73, 0
1, 78595, Control_c, 5, 11, 25
1, 78603, Control_c, 5, 11, 24
1, 78607, Note_on_c, 3, 73, 99
1, 78607, Lyric_t, "the "
1, 78619, Control_c, 5, 11, 23
1, 78619, Control_c, 10, 11, 127
1, 78627, Control_c, 5, 11, 22
1, 78640, Note_on_c, 12, 73, 0
1, 78643, Control_c, 5, 11, 21
1, 78655, Note_on_c, 5, 66, 0
1, 78659, Control_c, 0, 11, 92
1, 78659, Control_c, 5, 11, 20
1, 78665, Note_on_c, 5, 58, 0
1, 78667, Control_c, 5, 11, 19
1, 78671, Note_on_c, 5, 46, 0
1, 78682, Note_on_c, 5, 61, 0
1, 78683, Control_c, 5, 11, 18
1, 78684, Note_on_c, 7, 46, 0
1, 78688, Note_on_c, 11, 58, 0
1, 78691, Control_c, 5, 11, 17
1, 78700, Note_on_c, 7, 61, 0
1, 78704, Note_on_c, 11, 61, 0
1, 78706, Note_on_c, 7, 66, 0
1, 78708, Note_on_c, 7, 58, 0
1, 78709, Note_on_c, 11, 66, 0
1, 78725, Note_on_c, 1, 34, 0
1, 78727, Note_on_c, 0, 57, 40
1, 78727, Note_on_c, 0, 61, 52
1, 78727, Note_on_c, 1, 33, 96
1, 78727, Note_on_c, 3, 76, 108
1, 78727, Note_on_c, 5, 57, 58
1, 78727, Note_on_c, 5, 61, 70
1, 78727, Note_on_c, 5, 45, 74
1, 78727, Note_on_c, 7, 66, 78
1, 78727, Note_on_c, 7, 61, 80
1, 78727, Note_on_c, 7, 57, 62
1, 78727, Note_on_c, 7, 42, 80
1, 78727, Note_on_c, 11, 61, 84
1, 78727, Note_on_c, 11, 66, 84
1, 78727, Note_on_c, 12, 78, 48
1, 78727, Lyric_t, "o"
1, 78731, Control_c, 5, 11, 51
1, 78745, Note_on_c, 3, 73, 0
1, 78827, Control_c, 5, 11, 52
1, 78845, Control_c, 7, 64, 127
1, 78880, Note_on_c, 7, 57, 0
1, 78915, Control_c, 5, 11, 53
1, 78961, Note_on_c, 12, 78, 0
1, 78963, Note_on_c, 3, 76, 0
1, 78967, Note_on_c, 3, 73, 108
1, 78967, Note_on_c, 7, 57, 62
1, 78967, Note_on_c, 11, 57, 49
1, 78967, Lyric_t, "cean "
1, 78990, Note_on_c, 7, 66, 0
1, 79007, Note_on_c, 7, 61, 0
1, 79011, Note_on_c, 11, 66, 0
1, 79011, Control_c, 5, 11, 54
1, 79047, Note_on_c, 11, 61, 0
1, 79075, Note_on_c, 7, 57, 0
1, 79099, Control_c, 5, 11, 55
1, 79187, Control_c, 5, 11, 56
1, 79203, Note_on_c, 11, 57, 0
1, 79207, Note_on_c, 7, 66, 76
1, 79207, Note_on_c, 7, 61, 76
1, 79207, Note_on_c, 7, 54, 44
1, 79207, Note_on_c, 11, 66, 90
1, 79207, Note_on_c, 11, 61, 90
1, 79207, Note_on_c, 12, 78, 54
1, 79207, Note_on_c, 12, 73, 25
1, 79283, Control_c, 5, 11, 57
1, 79371, Control_c, 5, 11, 58
1, 79375, Note_on_c, 12, 73, 0
1, 79402, Note_on_c, 7, 54, 0
1, 79424, Note_on_c, 12, 78, 0
1, 79425, Note_on_c, 7, 66, 0
1, 79447, Note_on_c, 7, 57, 45
1, 79447, Note_on_c, 9, 51, 60
1, 79447, Note_on_c, 11, 57, 52
1, 79458, Note_on_c, 7, 61, 0
1, 79467, Control_c, 5, 11, 59
1, 79476, Note_on_c, 7, 57, 0
1, 79525, Note_on_c, 11, 66, 0
1, 79535, Note_on_c, 11, 61, 0
1, 79555, Control_c, 5, 11, 60
1, 79565, Note_on_c, 9, 51, 0
1, 79643, Control_c, 5, 11, 61
1, 79655, Note_on_c, 9, 59, 42
1, 79687, Note_on_c, 7, 76, 57
1, 79687, Note_on_c, 7, 69, 55
1, 79687, Note_on_c, 7, 54, 31
1, 79687, Note_on_c, 9, 51, 60
1, 79687, Note_on_c, 11, 61, 84
1, 79687, Note_on_c, 11, 66, 84
1, 79687, Note_on_c, 12, 78, 57
1, 79687, Note_on_c, 12, 73, 44
1, 79689, Note_on_c, 11, 57, 0
1, 79739, Control_c, 5, 11, 62
1, 79760, Note_on_c, 7, 69, 0
1, 79773, Note_on_c, 9, 59, 0
1, 79805, Note_on_c, 9, 51, 0
1, 79807, Note_on_c, 7, 81, 62
1, 79827, Control_c, 5, 11, 63
1, 79845, Note_on_c, 7, 76, 0
1, 79846, Note_on_c, 12, 73, 0
1, 79872, Note_on_c, 12, 78, 0
1, 79875, Note_on_c, 7, 81, 0
1, 79876, Note_on_c, 7, 54, 0
1, 79923, Control_c, 5, 11, 64
1, 79927, Note_on_c, 11, 57, 49
1, 79944, Note_on_c, 11, 66, 0
1, 79964, Note_on_c, 11, 61, 0
1, 80011, Control_c, 5, 11, 65
1, 80099, Control_c, 5, 11, 66
1, 80137, Note_on_c, 3, 73, 0
1, 80167, Note_on_c, 7, 66, 74
1, 80167, Note_on_c, 7, 61, 78
1, 80167, Note_on_c, 7, 54, 42
1, 80167, Note_on_c, 9, 51, 56
1, 80167, Note_on_c, 11, 66, 90
1, 80167, Note_on_c, 11, 61, 87
1, 80167, Note_on_c, 12, 73, 59
1, 80167, Note_on_c, 12, 78, 64
1, 80195, Note_on_c, 11, 57, 0
1, 80195, Control_c, 5, 11, 67
1, 80283, Control_c, 5, 11, 68
1, 80285, Note_on_c, 9, 51, 0
1, 80287, Note_on_c, 3, 76, 105
1, 80287, Lyric_t, "at "
1, 80379, Control_c, 5, 11, 69
1, 80398, Note_on_c, 12, 78, 0
1, 80401, Note_on_c, 12, 73, 0
1, 80407, Note_on_c, 7, 57, 50
1, 80407, Note_on_c, 11, 57, 74
1, 80426, Note_on_c, 11, 66, 0
1, 80433, Note_on_c, 7, 61, 0
1, 80438, Note_on_c, 11, 61, 0
1, 80467, Control_c, 5, 11, 70
1, 80481, Note_on_c, 3, 76, 0
1, 80499, Control_c, 10, 11, 15
1, 80523, Note_on_c, 7, 54, 0
1, 80523, Control_c, 10, 11, 16
1, 80527, Note_on_c, 3, 78, 96
1, 80527, Lyric_t, "the "
1, 80539, Control_c, 10, 11, 17
1, 80555, Control_c, 5, 11, 71
1, 80555, Control_c, 10, 11, 18
1, 80571, Control_c, 10, 11, 19
1, 80576, Note_on_c, 5, 57, 0
1, 80579, Note_on_c, 7, 42, 0
1, 80580, Note_on_c, 7, 66, 0
1, 80587, Control_c, 10, 11, 20
1, 80589, Control_c, 7, 64, 0
1, 80596, Note_on_c, 7, 57, 0
1, 80597, Note_on_c, 11, 57, 0
1, 80603, Control_c, 10, 11, 21
1, 80619, Control_c, 10, 11, 22
1, 80634, Control_c, 5, 11, 69
1, 80635, Control_c, 10, 11, 23
1, 80639, Note_on_c, 3, 78, 0
1, 80647, Note_on_c, 0, 66, 61
1, 80647, Note_on_c, 1, 32, 105
1, 80647, Note_on_c, 5, 66, 74
1, 80647, Note_on_c, 5, 56, 76
1, 80647, Note_on_c, 5, 44, 80
1, 80647, Note_on_c, 6, 56, 47
1, 80647, Note_on_c, 6, 44, 48
1, 80647, Note_on_c, 7, 66, 78
1, 80647, Note_on_c, 7, 61, 87
1, 80647, Note_on_c, 7, 44, 87
1, 80647, Note_on_c, 9, 36, 56
1, 80647, Note_on_c, 9, 51, 60
1, 80647, Note_on_c, 10, 73, 76
1, 80647, Note_on_c, 10, 68, 59
1, 80647, Note_on_c, 10, 75, 70
1, 80647, Note_on_c, 11, 66, 87
1, 80647, Note_on_c, 11, 61, 90
1, 80651, Control_c, 0, 11, 92
1, 80651, Control_c, 10, 11, 24
1, 80659, Note_on_c, 0, 57, 0
1, 80667, Control_c, 10, 11, 25
1, 80672, Note_on_c, 1, 33, 0
1, 80682, Control_c, 5, 11, 70
1, 80683, Control_c, 10, 11, 26
1, 80699, Control_c, 0, 11, 91
1, 80699, Control_c, 10, 11, 27
1, 80700, Note_on_c, 5, 45, 0
1, 80712, Control_c, 7, 64, 127
1, 80715, Control_c, 10, 11, 28
1, 80722, Control_c, 5, 11, 71
1, 80731, Control_c, 10, 11, 29
1, 80739, Control_c, 0, 11, 90
1, 80747, Control_c, 10, 11, 30
1, 80763, Control_c, 10, 11, 31
1, 80765, Note_on_c, 9, 51, 0
1, 80765, Note_on_c, 9, 36, 0
1, 80770, Control_c, 5, 11, 72
1, 80779, Control_c, 0, 11, 89
1, 80787, Control_c, 10, 11, 32
1, 80803, Control_c, 10, 11, 33
1, 80810, Control_c, 5, 11, 73
1, 80819, Control_c, 0, 11, 88
1, 80819, Control_c, 10, 11, 34
1, 80835, Control_c, 10, 11, 35
1, 80851, Control_c, 10, 11, 36
1, 80858, Control_c, 5, 11, 74
1, 80859, Control_c, 0, 11, 87
1, 80867, Control_c, 10, 11, 37
1, 80883, Control_c, 10, 11, 38
1, 80887, Note_on_c, 3, 80, 114
1, 80887, Note_on_c, 7, 56, 41
1, 80887, Note_on_c, 11, 56, 51
1, 80887, Lyric_t, "sun"
1, 80898, Control_c, 5, 11, 75
1, 80899, Control_c, 0, 11, 86
1, 80899, Control_c, 10, 11, 39
1, 80915, Control_c, 10, 11, 40
1, 80919, Note_on_c, 7, 66, 0
1, 80931, Control_c, 10, 11, 41
1, 80939, Control_c, 0, 11, 85
1, 80946, Control_c, 5, 11, 76
1, 80947, Control_c, 10, 11, 42
1, 80963, Control_c, 10, 11, 43
1, 80966, Note_on_c, 7, 61, 0
1, 80979, Control_c, 0, 11, 84
1, 80979, Control_c, 10, 11, 44
1, 80986, Control_c, 5, 11, 77
1, 80995, Control_c, 10, 11, 45
1, 81011, Control_c, 10, 11, 46
1, 81019, Control_c, 0, 11, 83
1, 81027, Control_c, 10, 11, 47
1, 81034, Control_c, 5, 11, 78
1, 81051, Control_c, 10, 11, 48
1, 81059, Control_c, 0, 11, 82
1, 81067, Control_c, 10, 11, 49
1, 81074, Control_c, 5, 11, 79
1, 81083, Control_c, 10, 11, 50
1, 81084, Note_on_c, 11, 66, 0
1, 81099, Control_c, 0, 11, 81
1, 81099, Control_c, 10, 11, 51
1, 81105, Note_on_c, 11, 61, 0
1, 81111, Note_on_c, 3, 80, 0
1, 81115, Control_c, 10, 11, 52
1, 81122, Control_c, 5, 11, 80
1, 81127, Note_on_c, 3, 78, 114
1, 81127, Note_on_c, 7, 61, 82
1, 81127, Note_on_c, 7, 66, 87
1, 81127, Note_on_c, 11, 66, 87
1, 81127, Note_on_c, 11, 61, 82
1, 81127, Note_on_c, 12, 73, 64
1, 81127, Lyric_t, "rise. "
1, 81127, Lyric_t, "\015"
1, 81131, Control_c, 10, 11, 53
1, 81147, Control_c, 0, 11, 80
1, 81147, Control_c, 10, 11, 54
1, 81162, Control_c, 5, 11, 81
1, 81163, Control_c, 10, 11, 55
1, 81165, Note_on_c, 7, 56, 0
1, 81179, Control_c, 10, 11, 56
1, 81187, Control_c, 0, 11, 79
1, 81195, Control_c, 10, 11, 57
1, 81210, Control_c, 5, 11, 82
1, 81211, Control_c, 10, 11, 58
1, 81227, Control_c, 0, 11, 78
1, 81227, Control_c, 10, 11, 59
1, 81243, Control_c, 10, 11, 60
1, 81250, Control_c, 5, 11, 83
1, 81251, Note_on_c, 11, 56, 0
1, 81259, Control_c, 10, 11, 61
1, 81267, Control_c, 0, 11, 77
1, 81275, Control_c, 10, 11, 62
1, 81291, Control_c, 10, 11, 63
1, 81298, Control_c, 5, 11, 84
1, 81307, Control_c, 0, 11, 76
1, 81315, Control_c, 10, 11, 64
1, 81326, Note_on_c, 7, 44, 0
1, 81331, Control_c, 10, 11, 65
1, 81338, Control_c, 5, 11, 85
1, 81347, Control_c, 0, 11, 75
1, 81347, Control_c, 10, 11, 66
1, 81348, Note_on_c, 12, 73, 0
1, 81361, Note_on_c, 7, 61, 0
1, 81363, Control_c, 10, 11, 67
1, 81364, Note_on_c, 1, 32, 0
1, 81367, Note_on_c, 1, 37, 82
1, 81367, Note_on_c, 6, 51, 76
1, 81367, Note_on_c, 6, 63, 66
1, 81367, Note_on_c, 7, 56, 62
1, 81367, Note_on_c, 9, 44, 56
1, 81367, Note_on_c, 11, 56, 96
1, 81367, Note_on_c, 12, 76, 87
1, 81379, Control_c, 10, 11, 68
1, 81386, Control_c, 5, 11, 86
1, 81387, Control_c, 0, 11, 74
1, 81395, Control_c, 10, 11, 69
1, 81411, Control_c, 10, 11, 70
1, 81417, Note_on_c, 11, 61, 0
1, 81426, Control_c, 5, 11, 87
1, 81427, Control_c, 0, 11, 73
1, 81427, Control_c, 10, 11, 71
1, 81431, Note_on_c, 6, 44, 0
1, 81443, Control_c, 10, 11, 72
1, 81459, Control_c, 10, 11, 73
1, 81462, Note_on_c, 6, 56, 0
1, 81467, Control_c, 0, 11, 72
1, 81473, Pitch_bend_c, 1, 8303
1, 81474, Control_c, 5, 11, 88
1, 81475, Control_c, 10, 11, 74
1, 81483, Pitch_bend_c, 1, 8727
1, 81485, Note_on_c, 9, 44, 0
1, 81491, Control_c, 10, 11, 75
1, 81492, Pitch_bend_c, 1, 9575
1, 81493, Note_on_c, 7, 66, 0
1, 81501, Pitch_bend_c, 1, 10312
1, 81507, Control_c, 0, 11, 71
1, 81507, Control_c, 10, 11, 76
1, 81510, Pitch_bend_c, 1, 10870
1, 81514, Control_c, 5, 11, 89
1, 81520, Pitch_bend_c, 1, 11852
1, 81523, Control_c, 10, 11, 77
1, 81529, Pitch_bend_c, 1, 12454
1, 81538, Pitch_bend_c, 1, 13258
1, 81539, Note_on_c, 5, 44, 0
1, 81539, Control_c, 10, 11, 78
1, 81547, Control_c, 0, 11, 70
1, 81547, Pitch_bend_c, 1, 13905
1, 81555, Control_c, 0, 11, 70
1, 81555, Control_c, 10, 11, 79
1, 81557, Pitch_bend_c, 1, 14731
1, 81560, Note_on_c, 10, 68, 0
1, 81562, Control_c, 5, 11, 90
1, 81566, Pitch_bend_c, 1, 15133
1, 81571, Control_c, 0, 11, 71
1, 81575, Pitch_bend_c, 1, 15445
1, 81579, Control_c, 0, 11, 72
1, 81579, Control_c, 10, 11, 80
1, 81584, Pitch_bend_c, 1, 15534
1, 81586, Control_c, 5, 11, 91
1, 81587, Control_c, 0, 11, 73
1, 81591, Note_on_c, 12, 76, 0
1, 81591, Note_on_c, 9, 38, 79
1, 81594, Pitch_bend_c, 1, 14753
1, 81595, Control_c, 0, 11, 74
1, 81595, Control_c, 10, 11, 81
1, 81603, Control_c, 0, 11, 75
1, 81603, Pitch_bend_c, 1, 8192
1, 81607, Note_on_c, 0, 60, 74
1, 81607, Note_on_c, 1, 44, 96
1, 81607, Note_on_c, 3, 76, 111
1, 81607, Note_on_c, 5, 60, 87
1, 81607, Note_on_c, 5, 44, 102
1, 81607, Note_on_c, 6, 68, 62
1, 81607, Note_on_c, 6, 56, 74
1, 81607, Note_on_c, 7, 63, 80
1, 81607, Note_on_c, 7, 60, 84
1, 81607, Note_on_c, 7, 44, 84
1, 81607, Note_on_c, 9, 38, 121
1, 81607, Note_on_c, 10, 72, 90
1, 81607, Note_on_c, 10, 68, 90
1, 81607, Note_on_c, 11, 60, 93
1, 81607, Note_on_c, 11, 63, 90
1, 81607, Note_on_c, 12, 80, 84
1, 81610, Control_c, 5, 11, 92
1, 81611, Control_c, 0, 11, 76
1, 81611, Control_c, 10, 11, 82
1, 81612, Note_on_c, 3, 78, 0
1, 81613, Note_on_c, 1, 37, 0
1, 81617, Note_on_c, 11, 66, 0
1, 81619, Control_c, 0, 11, 77
1, 81622, Note_on_c, 0, 61, 0
1, 81627, Control_c, 0, 11, 78
1, 81627, Control_c, 10, 11, 83
1, 81628, Note_on_c, 10, 73, 0
1, 81629, Control_c, 7, 64, 0
1, 81634, Control_c, 5, 11, 93
1, 81635, Control_c, 0, 11, 79
1, 81639, Note_on_c, 5, 61, 0
1, 81643, Control_c, 10, 11, 84
1, 81646, Note_on_c, 11, 56, 0
1, 81651, Control_c, 0, 11, 80
1, 81658, Control_c, 5, 11, 94
1, 81659, Control_c, 0, 11, 81
1, 81659, Control_c, 10, 11, 85
1, 81667, Control_c, 0, 11, 82
1, 81672, Note_on_c, 6, 51, 0
1, 81675, Control_c, 0, 11, 83
1, 81675, Control_c, 10, 11, 86
1, 81682, Control_c, 5, 11, 95
1, 81683, Control_c, 0, 11, 84
1, 81690, Note_on_c, 7, 56, 0
1, 81691, Control_c, 0, 11, 85
1, 81691, Control_c, 10, 11, 87
1, 81698, Control_c, 7, 64, 127
1, 81699, Control_c, 0, 11, 86
1, 81706, Control_c, 5, 11, 96
1, 81707, Control_c, 0, 11, 87
1, 81707, Control_c, 10, 11, 88
1, 81709, Note_on_c, 9, 38, 0
1, 81715, Control_c, 0, 11, 88
1, 81723, Control_c, 0, 11, 89
1, 81723, Control_c, 10, 11, 89
1, 81725, Note_on_c, 9, 38, 0
1, 81730, Control_c, 5, 11, 97
1, 81739, Control_c, 0, 11, 90
1, 81739, Control_c, 10, 11, 90
1, 81746, Control_c, 5, 11, 98
1, 81747, Control_c, 0, 11, 91
1, 81755, Control_c, 0, 11, 92
1, 81755, Control_c, 10, 11, 91
1, 81763, Control_c, 0, 11, 93
1, 81770, Control_c, 5, 11, 99
1, 81771, Control_c, 0, 11, 94
1, 81771, Control_c, 10, 11, 92
1, 81779, Control_c, 0, 11, 95
1, 81787, Control_c, 0, 11, 96
1, 81787, Control_c, 10, 11, 93
1, 81794, Control_c, 5, 11, 100
1, 81795, Control_c, 0, 11, 97
1, 81803, Control_c, 0, 11, 98
1, 81803, Control_c, 10, 11, 94
1, 81818, Control_c, 5, 11, 101
1, 81819, Control_c, 0, 11, 99
1, 81819, Control_c, 10, 11, 95
1, 81825, Note_on_c, 12, 80, 0
1, 81827, Control_c, 0, 11, 100
1, 81835, Control_c, 0, 11, 101
1, 81842, Control_c, 5, 11, 102
1, 81843, Control_c, 0, 11, 102
1, 81843, Control_c, 10, 11, 96
1, 81847, Note_on_c, 7, 56, 55
1, 81847, Note_on_c, 9, 44, 56
1, 81847, Note_on_c, 11, 56, 58
1, 81847, Note_on_c, 12, 76, 74
1, 81851, Control_c, 0, 11, 103
1, 81859, Control_c, 0, 11, 104
1, 81859, Control_c, 10, 11, 97
1, 81866, Control_c, 5, 11, 103
1, 81867, Control_c, 0, 11, 105
1, 81875, Control_c, 0, 11, 106
1, 81875, Control_c, 10, 11, 98
1, 81883, Control_c, 0, 11, 107
1, 81890, Control_c, 5, 11, 104
1, 81891, Control_c, 0, 11, 108
1, 81891, Control_c, 10, 11, 99
1, 81906, Control_c, 5, 11, 105
1, 81907, Control_c, 0, 11, 109
1, 81907, Control_c, 10, 11, 100
1, 81912, Note_on_c, 7, 60, 0
1, 81915, Control_c, 0, 11, 110
1, 81923, Control_c, 0, 11, 111
1, 81923, Control_c, 10, 11, 101
1, 81930, Control_c, 5, 11, 106
1, 81931, Control_c, 0, 11, 112
1, 81939, Control_c, 0, 11, 113
1, 81939, Control_c, 10, 11, 102
1, 81947, Control_c, 0, 11, 114
1, 81952, Note_on_c, 9, 43, 96
1, 81954, Control_c, 5, 11, 107
1, 81955, Control_c, 0, 11, 115
1, 81955, Control_c, 10, 11, 103
1, 81957, Note_on_c, 3, 76, 0
1, 81963, Control_c, 0, 11, 116
1, 81965, Note_on_c, 9, 44, 0
1, 81967, Note_on_c, 3, 80, 111
1, 81967, Note_on_c, 9, 43, 105
1, 81971, Control_c, 0, 11, 117
1, 81971, Control_c, 10, 11, 104
1, 81978, Control_c, 5, 11, 108
1, 81987, Control_c, 0, 11, 118
1, 81987, Control_c, 10, 11, 105
1, 81988, Note_on_c, 7, 63, 0
1, 81995, Control_c, 0, 11, 119
1, 81998, Note_on_c, 11, 63, 0
1, 82002, Control_c, 5, 11, 109
1, 82003, Control_c, 0, 11, 120
1, 82003, Control_c, 10, 11, 106
1, 82010, Note_on_c, 11, 60, 0
1, 82011, Control_c, 0, 11, 121
1, 82017, Note_on_c, 7, 56, 0
1, 82019, Control_c, 0, 11, 122
1, 82019, Control_c, 10, 11, 107
1, 82026, Control_c, 5, 11, 110
1, 82027, Control_c, 0, 11, 123
1, 82033, Note_on_c, 6, 63, 0
1, 82035, Control_c, 0, 11, 124
1, 82035, Control_c, 10, 11, 108
1, 82043, Control_c, 0, 11, 125
1, 82050, Control_c, 5, 11, 111
1, 82051, Control_c, 0, 11, 126
1, 82051, Control_c, 10, 11, 109
1, 82059, Control_c, 0, 11, 127
1, 82066, Control_c, 5, 11, 112
1, 82067, Control_c, 10, 11, 110
1, 82070, Note_on_c, 9, 43, 0
1, 82077, Note_on_c, 12, 76, 0
1, 82083, Control_c, 10, 11, 111
1, 82085, Note_on_c, 9, 43, 0
1, 82087, Note_on_c, 0, 68, 84
1, 82087, Note_on_c, 5, 68, 99
1, 82087, Note_on_c, 5, 63, 93
1, 82087, Note_on_c, 6, 63, 70
1, 82087, Note_on_c, 6, 68, 84
1, 82087, Note_on_c, 7, 60, 90
1, 82087, Note_on_c, 7, 68, 99
1, 82087, Note_on_c, 9, 44, 56
1, 82087, Note_on_c, 11, 60, 80
1, 82087, Note_on_c, 11, 63, 84
1, 82087, Note_on_c, 12, 75, 90
1, 82088, Note_on_c, 6, 68, 0
1, 82090, Control_c, 5, 11, 113
1, 82097, Note_on_c, 5, 66, 0
1, 82101, Note_on_c, 0, 66, 0
1, 82107, Control_c, 10, 11, 112
1, 82114, Control_c, 5, 11, 114
1, 82123, Control_c, 10, 11, 113
1, 82138, Control_c, 5, 11, 115
1, 82139, Control_c, 10, 11, 114
1, 82155, Control_c, 10, 11, 115
1, 82162, Control_c, 5, 11, 116
1, 82171, Control_c, 10, 11, 116
1, 82186, Control_c, 5, 11, 117
1, 82187, Control_c, 10, 11, 117
1, 82196, Note_on_c, 7, 44, 0
1, 82203, Control_c, 10, 11, 118
1, 82205, Note_on_c, 9, 44, 0
1, 82210, Control_c, 5, 11, 118
1, 82219, Control_c, 10, 11, 119
1, 82226, Control_c, 5, 11, 119
1, 82235, Control_c, 10, 11, 120
1, 82250, Control_c, 5, 11, 120
1, 82251, Control_c, 10, 11, 121
1, 82267, Control_c, 10, 11, 122
1, 82274, Control_c, 5, 11, 121
1, 82283, Control_c, 10, 11, 123
1, 82285, Note_on_c, 11, 56, 0
1, 82298, Control_c, 5, 11, 122
1, 82299, Control_c, 10, 11, 124
1, 82311, Note_on_c, 9, 41, 86
1, 82315, Control_c, 10, 11, 125
1, 82322, Control_c, 5, 11, 123
1, 82324, Note_on_c, 12, 75, 0
1, 82327, Note_on_c, 3, 78, 108
1, 82327, Note_on_c, 6, 80, 39
1, 82327, Note_on_c, 7, 63, 74
1, 82327, Note_on_c, 7, 56, 61
1, 82327, Note_on_c, 7, 44, 80
1, 82327, Note_on_c, 9, 41, 106
1, 82327, Note_on_c, 9, 44, 106
1, 82327, Note_on_c, 10, 80, 74
1, 82327, Note_on_c, 11, 68, 78
1, 82327, Note_on_c, 11, 56, 55
1, 82327, Note_on_c, 12, 76, 74
1, 82331, Control_c, 10, 11, 126
1, 82343, Note_on_c, 3, 80, 0
1, 82346, Control_c, 5, 11, 124
1, 82347, Control_c, 10, 11, 127
1, 82357, Pitch_bend_c, 1, 8143
1, 82365, Pitch_bend_c, 1, 7798
1, 82370, Control_c, 5, 11, 125
1, 82375, Pitch_bend_c, 1, 7378
1, 82384, Pitch_bend_c, 1, 7008
1, 82386, Note_on_c, 10, 75, 0
1, 82386, Control_c, 5, 11, 126
1, 82394, Pitch_bend_c, 1, 6836
1, 82403, Pitch_bend_c, 1, 6589
1, 82407, Note_on_c, 11, 63, 0
1, 82412, Pitch_bend_c, 1, 6416
1, 82418, Note_on_c, 7, 60, 0
1, 82421, Pitch_bend_c, 1, 6145
1, 82429, Note_on_c, 9, 41, 0
1, 82430, Pitch_bend_c, 1, 5898
1, 82440, Pitch_bend_c, 1, 5553
1, 82445, Note_on_c, 9, 44, 0
1, 82445, Note_on_c, 9, 41, 0
1, 82449, Pitch_bend_c, 1, 5133
1, 82452, Control_c, 7, 64, 0
1, 82458, Pitch_bend_c, 1, 4467
1, 82467, Pitch_bend_c, 1, 3949
1, 82477, Pitch_bend_c, 1, 3159
1, 82486, Pitch_bend_c, 1, 2321
1, 82496, Pitch_bend_c, 1, 1605
1, 82499, Note_on_c, 1, 44, 0
1, 82504, Pitch_bend_c, 1, 1186
1, 82511, Note_on_c, 7, 44, 0
1, 82514, Pitch_bend_c, 1, 742
1, 82516, Note_on_c, 7, 56, 0
1, 82517, Control_c, 8, 11, 97
1, 82523, Pitch_bend_c, 1, 495
1, 82524, Note_on_c, 5, 44, 0
1, 82529, Note_on_c, 12, 76, 0
1, 82532, Note_on_c, 11, 56, 0
1, 82536, Note_on_c, 5, 56, 0
1, 82537, Note_on_c, 11, 68, 0
1, 82538, Note_on_c, 7, 63, 0
1, 82541, Note_on_c, 7, 68, 0
1, 82542, Pitch_bend_c, 1, 8192
1, 82551, Note_on_c, 3, 78, 0
1, 82555, Note_on_c, 0, 60, 0
1, 82555, Note_on_c, 11, 60, 0
1, 82555, Note_on_c, 5, 60, 0
1, 82557, Control_c, 8, 11, 98
1, 82564, Note_on_c, 6, 68, 0
1, 82564, Note_on_c, 6, 56, 0
1, 82566, Note_on_c, 10, 80, 0
1, 82567, Note_on_c, 10, 68, 0
1, 82567, Note_on_c, 1, 30, 117
1, 82567, Note_on_c, 3, 76, 105
1, 82567, Note_on_c, 5, 69, 102
1, 82567, Note_on_c, 5, 66, 96
1, 82567, Note_on_c, 5, 61, 108
1, 82567, Note_on_c, 6, 69, 82
1, 82567, Note_on_c, 6, 81, 87
1, 82567, Note_on_c, 7, 66, 111
1, 82567, Note_on_c, 7, 69, 108
1, 82567, Note_on_c, 7, 61, 111
1, 82567, Note_on_c, 7, 42, 90
1, 82567, Note_on_c, 8, 54, 87
1, 82567, Note_on_c, 9, 54, 76
1, 82567, Note_on_c, 9, 49, 81
1, 82567, Note_on_c, 9, 36, 101
1, 82567, Note_on_c, 10, 78, 93
1, 82567, Note_on_c, 10, 81, 90
1, 82567, Note_on_c, 11, 61, 114
1, 82567, Note_on_c, 11, 66, 108
1, 82567, Note_on_c, 11, 69, 108
1, 82567, Note_on_c, 13, 54, 105
1, 82567, Note_on_c, 13, 49, 108
1, 82572, Note_on_c, 5, 63, 0
1, 82576, Note_on_c, 0, 68, 0
1, 82576, Note_on_c, 5, 68, 0
1, 82577, Note_on_c, 10, 72, 0
1, 82582, Note_on_c, 6, 63, 0
1, 82587, Control_c, 8, 11, 99
1, 82617, Control_c, 8, 11, 100
1, 82618, Note_on_c, 6, 80, 0
1, 82657, Control_c, 8, 11, 101
1, 82685, Note_on_c, 9, 54, 0
1, 82685, Note_on_c, 9, 36, 0
1, 82685, Note_on_c, 9, 49, 0
1, 82685, Note_on_c, 1, 30, 0
1, 82687, Note_on_c, 1, 30, 105
1, 82687, Control_c, 8, 11, 102
1, 82687, Note_on_c, 9, 54, 56
1, 82687, Note_on_c, 9, 36, 51
1, 82717, Control_c, 8, 11, 103
1, 82747, Control_c, 8, 11, 104
1, 82787, Control_c, 8, 11, 105
1, 82803, Control_c, 7, 64, 127
1, 82805, Note_on_c, 9, 36, 0
1, 82805, Note_on_c, 9, 54, 0
1, 82807, Note_on_c, 7, 57, 72
1, 82807, Note_on_c, 9, 54, 59
1, 82807, Note_on_c, 9, 51, 68
1, 82817, Control_c, 8, 11, 106
1, 82847, Control_c, 8, 11, 107
1, 82877, Control_c, 8, 11, 108
1, 82884, Note_on_c, 11, 61, 0
1, 82889, Note_on_c, 11, 69, 0
1, 82897, Note_on_c, 7, 61, 0
1, 82904, Note_on_c, 11, 66, 0
1, 82906, Note_on_c, 3, 76, 0
1, 82917, Control_c, 8, 11, 109
1, 82923, Note_on_c, 7, 69, 0
1, 82924, Note_on_c, 7, 66, 0
1, 82925, Note_on_c, 9, 51, 0
1, 82925, Note_on_c, 9, 54, 0
1, 82927, Note_on_c, 9, 54, 54
1, 82927, Note_on_c, 11, 61, 90
1, 82927, Note_on_c, 11, 66, 74
1, 82927, Note_on_c, 11, 69, 87
1, 82947, Control_c, 8, 11, 110
1, 82977, Control_c, 8, 11, 111
1, 83001, Note_on_c, 7, 57, 0
1, 83006, Note_on_c, 11, 61, 0
1, 83007, Control_c, 8, 11, 112
1, 83012, Note_on_c, 11, 69, 0
1, 83031, Note_on_c, 11, 66, 0
1, 83045, Note_on_c, 9, 54, 0
1, 83047, Note_on_c, 7, 66, 105
1, 83047, Note_on_c, 7, 69, 105
1, 83047, Note_on_c, 7, 61, 102
1, 83047, Control_c, 8, 11, 113
1, 83047, Note_on_c, 9, 54, 76
1, 83047, Note_on_c, 9, 51, 75
1, 83047, Note_on_c, 9, 38, 101
1, 83047, Note_on_c, 11, 69, 105
1, 83047, Note_on_c, 11, 61, 108
1, 83047, Note_on_c, 11, 66, 105
1, 83077, Control_c, 8, 11, 114
1, 83107, Control_c, 8, 11, 115
1, 83147, Control_c, 8, 11, 116
1, 83165, Note_on_c, 9, 38, 0
1, 83165, Note_on_c, 9, 51, 0
1, 83165, Note_on_c, 9, 54, 0
1, 83167, Note_on_c, 9, 54, 56
1, 83177, Control_c, 8, 11, 117
1, 83207, Control_c, 8, 11, 118
1, 83237, Control_c, 8, 11, 119
1, 83242, Note_on_c, 11, 61, 0
1, 83262, Note_on_c, 11, 69, 0
1, 83273, Note_on_c, 11, 66, 0
1, 83277, Control_c, 8, 11, 120
1, 83285, Note_on_c, 9, 54, 0
1, 83287, Note_on_c, 7, 54, 70
1, 83287, Note_on_c, 7, 57, 68
1, 83287, Note_on_c, 9, 54, 59
1, 83287, Note_on_c, 9, 51, 68
1, 83287, Note_on_c, 11, 66, 37
1, 83287, Note_on_c, 11, 61, 66
1, 83287, Note_on_c, 11, 69, 64
1, 83288, Note_on_c, 7, 69, 0
1, 83307, Control_c, 8, 11, 121
1, 83309, Note_on_c, 7, 66, 0
1, 83325, Note_on_c, 7, 42, 0
1, 83332, Note_on_c, 7, 54, 0
1, 83337, Control_c, 8, 11, 122
1, 83346, Note_on_c, 11, 61, 0
1, 83367, Control_c, 8, 11, 123
1, 83405, Note_on_c, 9, 51, 0
1, 83405, Note_on_c, 9, 54, 0
1, 83405, Note_on_c, 5, 69, 0
1, 83407, Note_on_c, 3, 71, 108
1, 83407, Control_c, 8, 11, 124
1, 83407, Note_on_c, 9, 54, 54
1, 83407, Note_on_c, 11, 61, 74
1, 83407, Lyric_t, "It's "
1, 83409, Note_on_c, 7, 57, 0
1, 83425, Note_on_c, 11, 69, 0
1, 83437, Control_c, 8, 11, 125
1, 83458, Note_on_c, 3, 71, 0
1, 83467, Control_c, 8, 11, 126
1, 83472, Note_on_c, 11, 66, 0
1, 83485, Note_on_c, 7, 61, 0
1, 83496, Note_on_c, 11, 61, 0
1, 83497, Control_c, 8, 11, 127
1, 83517, Control_c, 8, 11, 123
1, 83525, Note_on_c, 9, 54, 0
1, 83525, Note_on_c, 5, 61, 0
1, 83525, Note_on_c, 1, 30, 0
1, 83525, Note_on_c, 5, 66, 0
1, 83527, Note_on_c, 1, 28, 99
1, 83527, Note_on_c, 3, 80, 108
1, 83527, Note_on_c, 4, 80, 102
1, 83527, Note_on_c, 4, 68, 93
1, 83527, Note_on_c, 4, 76, 80
1, 83527, Note_on_c, 5, 64, 96
1, 83527, Note_on_c, 5, 59, 108
1, 83527, Note_on_c, 5, 68, 80
1, 83527, Note_on_c, 6, 80, 82
1, 83527, Note_on_c, 6, 68, 87
1, 83527, Note_on_c, 7, 64, 105
1, 83527, Note_on_c, 7, 68, 105
1, 83527, Note_on_c, 7, 40, 108
1, 83527, Note_on_c, 8, 56, 87
1, 83527, Note_on_c, 9, 54, 76
1, 83527, Note_on_c, 9, 36, 101
1, 83527, Note_on_c, 9, 51, 75
1, 83527, Note_on_c, 10, 80, 76
1, 83527, Note_on_c, 10, 76, 74
1, 83527, Note_on_c, 11, 64, 96
1, 83527, Note_on_c, 11, 59, 114
1, 83527, Note_on_c, 11, 68, 102
1, 83527, Note_on_c, 13, 52, 99
1, 83527, Note_on_c, 13, 47, 105
1, 83527, Note_on_c, 15, 68, 1
1, 83527, Note_on_c, 15, 76, 1
1, 83527, Note_on_c, 15, 80, 1
1, 83527, Lyric_t, "heav"
1, 83533, Note_on_c, 8, 54, 0
1, 83533, Control_c, 7, 64, 0
1, 83540, Note_on_c, 13, 49, 0
1, 83547, Note_on_c, 13, 54, 0
1, 83557, Control_c, 8, 11, 122
1, 83572, Note_on_c, 10, 78, 0
1, 83574, Note_on_c, 6, 69, 0
1, 83578, Note_on_c, 10, 81, 0
1, 83587, Control_c, 8, 11, 121
1, 83606, Note_on_c, 6, 81, 0
1, 83627, Control_c, 8, 11, 120
1, 83645, Note_on_c, 1, 28, 0
1, 83645, Note_on_c, 9, 36, 0
1, 83645, Note_on_c, 9, 54, 0
1, 83645, Note_on_c, 9, 51, 0
1, 83647, Note_on_c, 1, 28, 96
1, 83647, Note_on_c, 9, 54, 56
1, 83647, Note_on_c, 9, 36, 51
1, 83657, Control_c, 8, 11, 119
1, 83684, Control_c, 7, 64, 127
1, 83687, Control_c, 8, 11, 118
1, 83707, Note_on_c, 11, 59, 0
1, 83712, Note_on_c, 4, 68, 0
1, 83716, Note_on_c, 11, 68, 0
1, 83721, Note_on_c, 3, 80, 0
1, 83727, Control_c, 8, 11, 117
1, 83728, Note_on_c, 11, 64, 0
1, 83731, Note_on_c, 4, 80, 0
1, 83757, Control_c, 8, 11, 116
1, 83759, Note_on_c, 7, 68, 0
1, 83765, Note_on_c, 9, 54, 0
1, 83765, Note_on_c, 9, 36, 0
1, 83767, Note_on_c, 3, 80, 105
1, 83767, Note_on_c, 4, 80, 87
1, 83767, Note_on_c, 4, 68, 99
1, 83767, Note_on_c, 7, 59, 102
1, 83767, Note_on_c, 9, 54, 59
1, 83767, Note_on_c, 9, 51, 68
1, 83767, Note_on_c, 11, 59, 74
1, 83767, Note_on_c, 11, 68, 62
1, 83767, Note_on_c, 11, 64, 68
1, 83767, Lyric_t, "y "
1, 83775, Note_on_c, 7, 64, 0
1, 83787, Control_c, 8, 11, 115
1, 83827, Control_c, 8, 11, 114
1, 83829, Note_on_c, 4, 68, 0
1, 83831, Note_on_c, 11, 59, 0
1, 83831, Note_on_c, 4, 76, 0
1, 83834, Note_on_c, 4, 80, 0
1, 83835, Note_on_c, 11, 64, 0
1, 83846, Note_on_c, 3, 80, 0
1, 83849, Note_on_c, 11, 68, 0
1, 83857, Control_c, 8, 11, 113
1, 83885, Note_on_c, 9, 51, 0
1, 83885, Note_on_c, 9, 54, 0
1, 83887, Note_on_c, 3, 80, 114
1, 83887, Note_on_c, 4, 76, 80
1, 83887, Note_on_c, 4, 68, 99
1, 83887, Note_on_c, 4, 80, 102
1, 83887, Control_c, 8, 11, 112
1, 83887, Note_on_c, 9, 54, 54
1, 83887, Note_on_c, 11, 59, 66
1, 83887, Note_on_c, 11, 68, 57
1, 83887, Note_on_c, 11, 64, 59
1, 83887, Lyric_t, "on "
1, 83927, Control_c, 8, 11, 111
1, 83932, Note_on_c, 11, 68, 0
1, 83942, Note_on_c, 11, 64, 0
1, 83943, Note_on_c, 11, 59, 0
1, 83957, Control_c, 8, 11, 110
1, 83987, Control_c, 8, 11, 109
1, 84005, Note_on_c, 9, 54, 0
1, 84007, Note_on_c, 7, 52, 102
1, 84007, Note_on_c, 7, 64, 108
1, 84007, Note_on_c, 9, 54, 76
1, 84007, Note_on_c, 9, 38, 101
1, 84007, Note_on_c, 9, 51, 75
1, 84007, Note_on_c, 11, 59, 114
1, 84007, Note_on_c, 11, 64, 96
1, 84007, Note_on_c, 11, 68, 108
1, 84027, Control_c, 8, 11, 108
1, 84057, Control_c, 8, 11, 107
1, 84097, Control_c, 8, 11, 106
1, 84123, Note_on_c, 4, 76, 0
1, 84125, Note_on_c, 9, 54, 0
1, 84125, Note_on_c, 15, 68, 0
1, 84125, Note_on_c, 15, 80, 0
1, 84125, Note_on_c, 15, 76, 0
1, 84125, Note_on_c, 9, 51, 0
1, 84125, Note_on_c, 9, 38, 0
1, 84127, Note_on_c, 3, 83, 105
1, 84127, Note_on_c, 4, 75, 72
1, 84127, Note_on_c, 4, 78, 99
1, 84127, Note_on_c, 4, 66, 102
1, 84127, Note_on_c, 7, 66, 49
1, 84127, Control_c, 8, 11, 105
1, 84127, Note_on_c, 9, 54, 56
1, 84127, Note_on_c, 15, 66, 1
1, 84127, Note_on_c, 15, 75, 1
1, 84127, Note_on_c, 15, 78, 1
1, 84127, Lyric_t, "my "
1, 84131, Note_on_c, 4, 68, 0
1, 84133, Note_on_c, 3, 80, 0
1, 84142, Note_on_c, 4, 80, 0
1, 84157, Control_c, 8, 11, 104
1, 84192, Note_on_c, 7, 64, 0
1, 84197, Control_c, 8, 11, 103
1, 84202, Note_on_c, 11, 59, 0
1, 84207, Note_on_c, 7, 66, 0
1, 84209, Note_on_c, 4, 75, 0
1, 84226, Note_on_c, 4, 78, 0
1, 84226, Note_on_c, 4, 66, 0
1, 84227, Control_c, 8, 11, 102
1, 84245, Note_on_c, 9, 54, 0
1, 84245, Note_on_c, 15, 78, 0
1, 84245, Note_on_c, 15, 66, 0
1, 84245, Note_on_c, 15, 75, 0
1, 84247, Note_on_c, 4, 75, 74
1, 84247, Note_on_c, 4, 71, 70
1, 84247, Note_on_c, 4, 66, 105
1, 84247, Note_on_c, 4, 78, 108
1, 84247, Note_on_c, 7, 68, 102
1, 84247, Note_on_c, 7, 64, 74
1, 84247, Note_on_c, 9, 54, 59
1, 84247, Note_on_c, 9, 51, 68
1, 84247, Note_on_c, 11, 59, 68
1, 84247, Note_on_c, 15, 66, 1
1, 84247, Note_on_c, 15, 71, 1
1, 84247, Note_on_c, 15, 75, 1
1, 84247, Note_on_c, 15, 78, 1
1, 84257, Control_c, 8, 11, 101
1, 84263, Note_on_c, 7, 64, 0
1, 84297, Control_c, 8, 11, 100
1, 84316, Note_on_c, 11, 59, 0
1, 84327, Control_c, 8, 11, 99
1, 84331, Control_c, 7, 64, 0
1, 84357, Control_c, 8, 11, 98
1, 84365, Note_on_c, 9, 51, 0
1, 84365, Note_on_c, 9, 54, 0
1, 84366, Note_on_c, 7, 52, 0
1, 84367, Note_on_c, 9, 54, 54
1, 84367, Note_on_c, 11, 59, 43
1, 84397, Control_c, 8, 11, 97
1, 84416, Note_on_c, 7, 40, 0
1, 84417, Control_c, 8, 11, 94
1, 84421, Note_on_c, 11, 64, 0
1, 84424, Note_on_c, 7, 68, 0
1, 84431, Note_on_c, 11, 68, 0
1, 84436, Note_on_c, 11, 59, 0
1, 84438, Note_on_c, 7, 59, 0
1, 84443, Note_on_c, 13, 47, 0
1, 84446, Note_on_c, 3, 83, 0
1, 84447, Control_c, 8, 11, 95
1, 84477, Control_c, 8, 11, 96
1, 84485, Note_on_c, 5, 59, 0
1, 84485, Note_on_c, 5, 68, 0
1, 84485, Note_on_c, 9, 54, 0
1, 84485, Note_on_c, 5, 64, 0
1, 84485, Note_on_c, 1, 28, 0
1, 84487, Note_on_c, 1, 35, 108
1, 84487, Note_on_c, 3, 83, 99
1, 84487, Note_on_c, 5, 66, 90
1, 84487, Note_on_c, 5, 63, 96
1, 84487, Note_on_c, 5, 59, 114
1, 84487, Note_on_c, 6, 66, 80
1, 84487, Note_on_c, 6, 78, 57
1, 84487, Note_on_c, 6, 71, 47
1, 84487, Note_on_c, 7, 59, 78
1, 84487, Note_on_c, 7, 71, 108
1, 84487, Note_on_c, 7, 63, 90
1, 84487, Note_on_c, 7, 47, 99
1, 84487, Note_on_c, 8, 54, 80
1, 84487, Note_on_c, 9, 54, 76
1, 84487, Note_on_c, 9, 49, 74
1, 84487, Note_on_c, 9, 36, 101
1, 84487, Note_on_c, 10, 78, 87
1, 84487, Note_on_c, 10, 75, 84
1, 84487, Note_on_c, 11, 59, 105
1, 84487, Note_on_c, 11, 63, 99
1, 84487, Note_on_c, 11, 66, 96
1, 84487, Note_on_c, 13, 47, 99
1, 84487, Note_on_c, 13, 54, 96
1, 84487, Lyric_t, "heart "
1, 84487, Lyric_t, "\015"
1, 84495, Note_on_c, 10, 80, 0
1, 84499, Note_on_c, 13, 52, 0
1, 84501, Note_on_c, 6, 68, 0
1, 84503, Note_on_c, 10, 76, 0
1, 84507, Control_c, 8, 11, 97
1, 84516, Note_on_c, 8, 56, 0
1, 84537, Control_c, 8, 11, 98
1, 84541, Control_c, 7, 64, 127
1, 84557, Control_c, 8, 11, 99
1, 84587, Control_c, 8, 11, 100
1, 84588, Note_on_c, 6, 80, 0
1, 84605, Note_on_c, 9, 36, 0
1, 84605, Note_on_c, 9, 54, 0
1, 84605, Note_on_c, 1, 35, 0
1, 84605, Note_on_c, 9, 49, 0
1, 84607, Note_on_c, 3, 83, 0
1, 84607, Note_on_c, 1, 35, 105
1, 84607, Note_on_c, 3, 80, 102
1, 84607, Note_on_c, 9, 54, 56
1, 84607, Note_on_c, 9, 36, 51
1, 84617, Control_c, 8, 11, 101
1, 84619, Note_on_c, 7, 59, 0
1, 84647, Control_c, 8, 11, 102
1, 84677, Control_c, 8, 11, 103
1, 84694, Note_on_c, 7, 71, 0
1, 84697, Control_c, 8, 11, 104
1, 84702, Note_on_c, 11, 59, 0
1, 84713, Note_on_c, 11, 63, 0
1, 84713, Note_on_c, 3, 80, 0
1, 84725, Note_on_c, 9, 54, 0
1, 84725, Note_on_c, 9, 36, 0
1, 84727, Note_on_c, 3, 78, 105
1, 84727, Note_on_c, 7, 59, 72
1, 84727, Control_c, 8, 11, 105
1, 84727, Note_on_c, 9, 54, 59
1, 84727, Note_on_c, 9, 51, 68
1, 84727, Note_on_c, 11, 63, 61
1, 84727, Note_on_c, 11, 59, 54
1, 84737, Note_on_c, 7, 63, 0
1, 84747, Note_on_c, 7, 59, 0
1, 84757, Control_c, 8, 11, 106
1, 84776, Note_on_c, 11, 59, 0
1, 84787, Control_c, 8, 11, 107
1, 84794, Note_on_c, 11, 63, 0
1, 84807, Control_c, 8, 11, 108
1, 84831, Note_on_c, 11, 66, 0
1, 84837, Control_c, 8, 11, 109
1, 84845, Note_on_c, 9, 51, 0
1, 84845, Note_on_c, 9, 54, 0
1, 84847, Note_on_c, 7, 54, 64
1, 84847, Note_on_c, 9, 54, 54
1, 84847, Note_on_c, 11, 63, 57
1, 84847, Note_on_c, 11, 59, 52
1, 84847, Note_on_c, 11, 66, 55
1, 84867, Control_c, 8, 11, 110
1, 84897, Control_c, 8, 11, 111
1, 84903, Note_on_c, 11, 59, 0
1, 84919, Note_on_c, 11, 66, 0
1, 84919, Note_on_c, 11, 63, 0
1, 84927, Control_c, 8, 11, 112
1, 84947, Control_c, 8, 11, 113
1, 84965, Note_on_c, 9, 54, 0
1, 84967, Note_on_c, 7, 83, 105
1, 84967, Note_on_c, 7, 71, 99
1, 84967, Note_on_c, 7, 75, 90
1, 84967, Note_on_c, 9, 54, 76
1, 84967, Note_on_c, 9, 38, 101
1, 84967, Note_on_c, 9, 51, 75
1, 84967, Note_on_c, 11, 63, 96
1, 84967, Note_on_c, 11, 59, 108
1, 84967, Note_on_c, 11, 66, 96
1, 84977, Control_c, 8, 11, 114
1, 85007, Control_c, 8, 11, 115
1, 85037, Control_c, 8, 11, 116
1, 85057, Control_c, 8, 11, 117
1, 85085, Note_on_c, 9, 51, 0
1, 85085, Note_on_c, 9, 38, 0
1, 85085, Note_on_c, 9, 54, 0
1, 85087, Control_c, 8, 11, 118
1, 85087, Note_on_c, 9, 54, 56
1, 85116, Note_on_c, 7, 83, 0
1, 85117, Control_c, 8, 11, 119
1, 85142, Note_on_c, 7, 75, 0
1, 85147, Note_on_c, 7, 71, 0
1, 85147, Control_c, 8, 11, 120
1, 85166, Note_on_c, 11, 63, 0
1, 85166, Note_on_c, 11, 59, 0
1, 85177, Control_c, 8, 11, 121
1, 85185, Note_on_c, 3, 78, 0
1, 85191, Note_on_c, 7, 54, 0
1, 85197, Control_c, 8, 11, 122
1, 85205, Note_on_c, 9, 54, 0
1, 85207, Note_on_c, 7, 59, 82
1, 85207, Note_on_c, 9, 54, 59
1, 85207, Note_on_c, 9, 51, 68
1, 85207, Note_on_c, 11, 59, 57
1, 85207, Note_on_c, 11, 63, 46
1, 85227, Control_c, 8, 11, 123
1, 85257, Control_c, 8, 11, 124
1, 85259, Note_on_c, 11, 59, 0
1, 85265, Note_on_c, 7, 59, 0
1, 85287, Control_c, 8, 11, 125
1, 85307, Control_c, 8, 11, 126
1, 85325, Note_on_c, 1, 35, 0
1, 85325, Note_on_c, 9, 51, 0
1, 85325, Note_on_c, 9, 54, 0
1, 85327, Note_on_c, 1, 30, 61
1, 85327, Note_on_c, 3, 83, 117
1, 85327, Note_on_c, 7, 54, 47
1, 85327, Note_on_c, 9, 54, 54
1, 85327, Lyric_t, "I "
1, 85333, Note_on_c, 9, 36, 51
1, 85363, Note_on_c, 7, 47, 0
1, 85394, Note_on_c, 11, 63, 0
1, 85414, Note_on_c, 10, 75, 0
1, 85416, Note_on_c, 11, 66, 0
1, 85445, Note_on_c, 1, 30, 0
1, 85445, Note_on_c, 5, 63, 0
1, 85445, Note_on_c, 9, 54, 0
1, 85447, Note_on_c, 1, 35, 87
1, 85447, Note_on_c, 5, 64, 93
1, 85447, Note_on_c, 7, 64, 93
1, 85447, Note_on_c, 7, 61, 96
1, 85447, Note_on_c, 7, 47, 96
1, 85447, Note_on_c, 8, 52, 82
1, 85447, Note_on_c, 9, 54, 76
1, 85447, Note_on_c, 9, 36, 101
1, 85447, Note_on_c, 9, 51, 75
1, 85447, Note_on_c, 10, 76, 82
1, 85447, Note_on_c, 10, 73, 74
1, 85447, Note_on_c, 11, 59, 105
1, 85447, Note_on_c, 11, 66, 93
1, 85447, Note_on_c, 11, 64, 96
1, 85450, Note_on_c, 7, 54, 0
1, 85451, Note_on_c, 9, 36, 0
1, 85457, Control_c, 8, 11, 127
1, 85458, Control_c, 7, 64, 0
1, 85465, Note_on_c, 10, 78, 0
1, 85471, Note_on_c, 8, 54, 0
1, 85472, Control_c, 4, 11, 127
1, 85472, Control_c, 15, 11, 127
1, 85475, Note_on_c, 3, 83, 0
1, 85497, Control_c, 8, 11, 126
1, 85505, Note_on_c, 9, 54, 0
1, 85514, Control_c, 7, 64, 127
1, 85523, Control_c, 4, 11, 126
1, 85523, Control_c, 15, 11, 126
1, 85527, Control_c, 8, 11, 125
1, 85557, Control_c, 8, 11, 124
1, 85560, Control_c, 4, 11, 125
1, 85560, Control_c, 15, 11, 125
1, 85565, Note_on_c, 9, 51, 0
1, 85565, Note_on_c, 9, 36, 0
1, 85567, Note_on_c, 3, 83, 117
1, 85567, Note_on_c, 9, 54, 56
1, 85567, Lyric_t, "can't "
1, 85587, Control_c, 8, 11, 123
1, 85601, Note_on_c, 1, 35, 0
1, 85611, Control_c, 4, 11, 124
1, 85611, Control_c, 15, 11, 124
1, 85625, Note_on_c, 9, 54, 0
1, 85627, Note_on_c, 11, 59, 0
1, 85627, Control_c, 8, 11, 122
1, 85649, Control_c, 4, 11, 123
1, 85649, Control_c, 15, 11, 123
1, 85657, Control_c, 8, 11, 121
1, 85674, Note_on_c, 9, 54, 39
1, 85687, Note_on_c, 1, 35, 102
1, 85687, Note_on_c, 7, 59, 61
1, 85687, Control_c, 8, 11, 120
1, 85687, Note_on_c, 9, 51, 68
1, 85687, Note_on_c, 11, 59, 55
1, 85692, Note_on_c, 7, 61, 0
1, 85693, Note_on_c, 9, 36, 51
1, 85699, Control_c, 4, 11, 122
1, 85699, Control_c, 15, 11, 122
1, 85717, Control_c, 8, 11, 119
1, 85725, Note_on_c, 7, 64, 0
1, 85732, Note_on_c, 9, 54, 0
1, 85734, Note_on_c, 9, 54, 49
1, 85737, Control_c, 4, 11, 121
1, 85737, Control_c, 15, 11, 121
1, 85742, Note_on_c, 11, 64, 0
1, 85752, Note_on_c, 11, 66, 0
1, 85752, Note_on_c, 11, 59, 0
1, 85757, Control_c, 8, 11, 118
1, 85776, Note_on_c, 3, 83, 0
1, 85787, Control_c, 8, 11, 117
1, 85788, Control_c, 4, 11, 120
1, 85788, Control_c, 15, 11, 120
1, 85792, Note_on_c, 9, 54, 0
1, 85794, Note_on_c, 9, 54, 54
1, 85805, Note_on_c, 9, 51, 0
1, 85807, Note_on_c, 3, 81, 108
1, 85807, Note_on_c, 11, 59, 55
1, 85807, Note_on_c, 11, 66, 45
1, 85807, Note_on_c, 11, 64, 55
1, 85807, Lyric_t, "make "
1, 85811, Note_on_c, 9, 36, 0
1, 85813, Note_on_c, 9, 36, 51
1, 85817, Control_c, 8, 11, 116
1, 85826, Control_c, 4, 11, 119
1, 85826, Control_c, 15, 11, 119
1, 85847, Control_c, 8, 11, 115
1, 85852, Note_on_c, 9, 54, 0
1, 85854, Note_on_c, 9, 54, 59
1, 85876, Control_c, 4, 11, 118
1, 85876, Control_c, 15, 11, 118
1, 85877, Control_c, 8, 11, 114
1, 85890, Note_on_c, 11, 66, 0
1, 85894, Note_on_c, 11, 59, 0
1, 85898, Note_on_c, 11, 64, 0
1, 85912, Note_on_c, 9, 54, 0
1, 85914, Control_c, 4, 11, 117
1, 85914, Note_on_c, 9, 54, 76
1, 85914, Control_c, 15, 11, 117
1, 85917, Control_c, 8, 11, 113
1, 85925, Note_on_c, 5, 64, 0
1, 85927, Note_on_c, 5, 63, 87
1, 85927, Note_on_c, 7, 63, 90
1, 85927, Note_on_c, 7, 71, 105
1, 85927, Note_on_c, 7, 54, 90
1, 85927, Note_on_c, 8, 54, 76
1, 85927, Note_on_c, 9, 51, 75
1, 85927, Note_on_c, 9, 55, 98
1, 85927, Note_on_c, 9, 38, 101
1, 85927, Note_on_c, 10, 78, 61
1, 85927, Note_on_c, 10, 75, 72
1, 85927, Note_on_c, 11, 59, 111
1, 85927, Note_on_c, 11, 66, 96
1, 85927, Note_on_c, 11, 63, 99
1, 85931, Note_on_c, 8, 52, 0
1, 85931, Note_on_c, 9, 36, 0
1, 85947, Control_c, 8, 11, 112
1, 85949, Control_c, 7, 64, 0
1, 85965, Control_c, 4, 11, 116
1, 85965, Control_c, 15, 11, 116
1, 85973, Note_on_c, 3, 81, 0
1, 85977, Control_c, 8, 11, 111
1, 85981, Note_on_c, 10, 73, 0
1, 85984, Note_on_c, 7, 59, 0
1, 85986, Note_on_c, 10, 76, 0
1, 86003, Control_c, 4, 11, 115
1, 86003, Control_c, 15, 11, 115
1, 86005, Control_c, 7, 64, 127
1, 86007, Control_c, 8, 11, 110
1, 86032, Note_on_c, 9, 54, 0
1, 86045, Note_on_c, 9, 38, 0
1, 86045, Note_on_c, 9, 55, 0
1, 86045, Note_on_c, 9, 51, 0
1, 86047, Note_on_c, 3, 81, 114
1, 86047, Control_c, 8, 11, 109
1, 86047, Note_on_c, 9, 54, 56
1, 86047, Lyric_t, "it "
1, 86053, Control_c, 4, 11, 114
1, 86053, Control_c, 15, 11, 114
1, 86077, Control_c, 8, 11, 108
1, 86091, Control_c, 4, 11, 113
1, 86091, Control_c, 15, 11, 113
1, 86107, Control_c, 8, 11, 107
1, 86118, Note_on_c, 11, 63, 0
1, 86137, Control_c, 8, 11, 106
1, 86138, Note_on_c, 11, 59, 0
1, 86142, Control_c, 4, 11, 112
1, 86142, Control_c, 15, 11, 112
1, 86165, Note_on_c, 9, 54, 0
1, 86167, Note_on_c, 7, 59, 90
1, 86167, Note_on_c, 9, 54, 59
1, 86167, Note_on_c, 9, 51, 68
1, 86167, Note_on_c, 11, 59, 40
1, 86167, Note_on_c, 11, 63, 55
1, 86177, Control_c, 8, 11, 105
1, 86179, Control_c, 4, 11, 111
1, 86179, Control_c, 15, 11, 111
1, 86193, Note_on_c, 3, 81, 0
1, 86207, Control_c, 8, 11, 104
1, 86223, Note_on_c, 11, 59, 0
1, 86226, Pitch_bend_c, 1, 8044
1, 86230, Control_c, 4, 11, 110
1, 86230, Control_c, 15, 11, 110
1, 86235, Pitch_bend_c, 1, 7403
1, 86237, Control_c, 8, 11, 103
1, 86245, Pitch_bend_c, 1, 6959
1, 86247, Control_c, 7, 64, 0
1, 86253, Pitch_bend_c, 1, 6712
1, 86254, Note_on_c, 7, 63, 0
1, 86263, Pitch_bend_c, 1, 6416
1, 86267, Control_c, 8, 11, 102
1, 86268, Control_c, 4, 11, 109
1, 86268, Control_c, 15, 11, 109
1, 86273, Pitch_bend_c, 1, 6268
1, 86282, Pitch_bend_c, 1, 6071
1, 86285, Note_on_c, 5, 59, 0
1, 86285, Note_on_c, 5, 63, 0
1, 86285, Note_on_c, 9, 54, 0
1, 86285, Note_on_c, 9, 51, 0
1, 86287, Note_on_c, 3, 81, 114
1, 86287, Note_on_c, 7, 66, 59
1, 86287, Note_on_c, 9, 54, 54
1, 86287, Note_on_c, 11, 59, 58
1, 86287, Lyric_t, "a"
1, 86291, Pitch_bend_c, 1, 5750
1, 86297, Control_c, 8, 11, 101
1, 86300, Pitch_bend_c, 1, 5331
1, 86310, Pitch_bend_c, 1, 4862
1, 86310, Pitch_bend_c, 13, 7847
1, 86318, Control_c, 4, 11, 108
1, 86318, Control_c, 15, 11, 108
1, 86319, Pitch_bend_c, 1, 4146
1, 86319, Pitch_bend_c, 13, 7132
1, 86322, Note_on_c, 7, 54, 0
1, 86327, Control_c, 8, 11, 102
1, 86328, Pitch_bend_c, 1, 3628
1, 86328, Pitch_bend_c, 13, 6589
1, 86337, Pitch_bend_c, 1, 2641
1, 86338, Pitch_bend_c, 13, 6071
1, 86346, Pitch_bend_c, 1, 1975
1, 86347, Pitch_bend_c, 13, 5232
1, 86352, Note_on_c, 7, 71, 0
1, 86356, Pitch_bend_c, 1, 1309
1, 86356, Control_c, 4, 11, 107
1, 86356, Pitch_bend_c, 13, 4319
1, 86356, Control_c, 15, 11, 107
1, 86357, Control_c, 8, 11, 103
1, 86365, Pitch_bend_c, 1, 988
1, 86365, Pitch_bend_c, 13, 3776
1, 86368, Note_on_c, 7, 59, 0
1, 86374, Pitch_bend_c, 1, 8192
1, 86375, Note_on_c, 15, 66, 0
1, 86375, Note_on_c, 4, 66, 0
1, 86375, Pitch_bend_c, 13, 3406
1, 86376, Note_on_c, 10, 75, 0
1, 86376, Note_on_c, 13, 54, 0
1, 86377, Control_c, 8, 11, 104
1, 86379, Note_on_c, 15, 71, 0
1, 86379, Note_on_c, 4, 71, 0
1, 86379, Note_on_c, 7, 47, 0
1, 86379, Note_on_c, 11, 59, 0
1, 86384, Note_on_c, 6, 71, 0
1, 86384, Pitch_bend_c, 13, 3209
1, 86386, Note_on_c, 7, 66, 0
1, 86387, Note_on_c, 11, 66, 0
1, 86388, Note_on_c, 13, 47, 0
1, 86393, Pitch_bend_c, 13, 8192
1, 86399, Note_on_c, 11, 63, 0
1, 86403, Note_on_c, 4, 78, 0
1, 86403, Note_on_c, 15, 75, 0
1, 86403, Note_on_c, 15, 78, 0
1, 86405, Note_on_c, 9, 54, 0
1, 86405, Note_on_c, 1, 35, 0
1, 86407, Note_on_c, 1, 30, 117
1, 86407, Note_on_c, 3, 80, 105
1, 86407, Note_on_c, 5, 69, 90
1, 86407, Note_on_c, 5, 61, 93
1, 86407, Note_on_c, 5, 57, 105
1, 86407, Note_on_c, 6, 69, 87
1, 86407, Note_on_c, 6, 81, 87
1, 86407, Note_on_c, 7, 69, 102
1, 86407, Note_on_c, 7, 66, 90
1, 86407, Note_on_c, 7, 61, 96
1, 86407, Note_on_c, 7, 42, 105
1, 86407, Note_on_c, 8, 57, 90
1, 86407, Control_c, 8, 11, 105
1, 86407, Note_on_c, 9, 54, 76
1, 86407, Note_on_c, 9, 49, 81
1, 86407, Note_on_c, 9, 36, 101
1, 86407, Note_on_c, 10, 81, 82
1, 86407, Note_on_c, 11, 61, 114
1, 86407, Note_on_c, 11, 66, 108
1, 86407, Note_on_c, 11, 69, 108
1, 86407, Note_on_c, 13, 54, 105
1, 86407, Note_on_c, 13, 49, 108
1, 86407, Lyric_t, "lone. "
1, 86407, Lyric_t, "\015"
1, 86409, Note_on_c, 4, 75, 0
1, 86427, Control_c, 8, 11, 106
1, 86435, Note_on_c, 6, 66, 0
1, 86443, Note_on_c, 8, 54, 0
1, 86445, Control_c, 4, 11, 127
1, 86445, Control_c, 15, 11, 127
1, 86447, Note_on_c, 6, 78, 0
1, 86450, Note_on_c, 3, 81, 0
1, 86457, Control_c, 8, 11, 107
1, 86477, Control_c, 8, 11, 108
1, 86495, Control_c, 7, 64, 127
1, 86507, Control_c, 8, 11, 109
1, 86525, Note_on_c, 9, 49, 0
1, 86525, Note_on_c, 9, 54, 0
1, 86525, Note_on_c, 9, 36, 0
1, 86527, Control_c, 8, 11, 110
1, 86527, Note_on_c, 9, 54, 56
1, 86527, Note_on_c, 9, 36, 51
1, 86547, Control_c, 8, 11, 111
1, 86577, Control_c, 8, 11, 112
1, 86597, Control_c, 8, 11, 113
1, 86599, Note_on_c, 7, 69, 0
1, 86627, Control_c, 8, 11, 114
1, 86645, Note_on_c, 9, 36, 0
1, 86645, Note_on_c, 9, 54, 0
1, 86647, Note_on_c, 3, 78, 102
1, 86647, Note_on_c, 7, 57, 72
1, 86647, Control_c, 8, 11, 115
1, 86647, Note_on_c, 9, 54, 59
1, 86647, Note_on_c, 9, 51, 68
1, 86667, Note_on_c, 7, 66, 0
1, 86675, Note_on_c, 3, 80, 0
1, 86677, Control_c, 8, 11, 116
1, 86679, Note_on_c, 7, 61, 0
1, 86697, Control_c, 8, 11, 117
1, 86724, Note_on_c, 11, 61, 0
1, 86727, Control_c, 8, 11, 118
1, 86729, Note_on_c, 11, 69, 0
1, 86744, Note_on_c, 11, 66, 0
1, 86747, Control_c, 8, 11, 119
1, 86765, Note_on_c, 9, 51, 0
1, 86765, Note_on_c, 9, 54, 0
1, 86767, Control_c, 8, 11, 120
1, 86767, Note_on_c, 9, 54, 54
1, 86767, Note_on_c, 11, 61, 90
1, 86767, Note_on_c, 11, 66, 74
1, 86767, Note_on_c, 11, 69, 87
1, 86797, Control_c, 8, 11, 121
1, 86817, Control_c, 8, 11, 122
1, 86846, Note_on_c, 11, 61, 0
1, 86847, Control_c, 8, 11, 123
1, 86852, Note_on_c, 11, 69, 0
1, 86867, Control_c, 8, 11, 124
1, 86871, Note_on_c, 11, 66, 0
1, 86885, Note_on_c, 9, 54, 0
1, 86887, Note_on_c, 7, 69, 105
1, 86887, Note_on_c, 7, 61, 105
1, 86887, Note_on_c, 7, 66, 102
1, 86887, Note_on_c, 7, 54, 84
1, 86887, Note_on_c, 9, 54, 76
1, 86887, Note_on_c, 9, 38, 101
1, 86887, Note_on_c, 9, 51, 75
1, 86887, Note_on_c, 11, 69, 105
1, 86887, Note_on_c, 11, 61, 108
1, 86887, Note_on_c, 11, 66, 105
1, 86897, Control_c, 8, 11, 125
1, 86917, Control_c, 8, 11, 126
1, 86927, Control_c, 8, 11, 124
1, 86973, Note_on_c, 7, 57, 0
1, 86977, Control_c, 8, 11, 123
1, 87005, Note_on_c, 9, 51, 0
1, 87005, Note_on_c, 9, 38, 0
1, 87005, Note_on_c, 9, 54, 0
1, 87007, Note_on_c, 3, 76, 120
1, 87007, Note_on_c, 9, 54, 56
1, 87007, Lyric_t, "Heav"
1, 87017, Control_c, 8, 11, 122
1, 87033, Note_on_c, 3, 78, 0
1, 87067, Control_c, 8, 11, 121
1, 87082, Note_on_c, 11, 61, 0
1, 87094, Note_on_c, 7, 54, 0
1, 87102, Note_on_c, 11, 69, 0
1, 87107, Control_c, 8, 11, 120
1, 87111, Note_on_c, 7, 69, 0
1, 87113, Note_on_c, 11, 66, 0
1, 87125, Note_on_c, 9, 54, 0
1, 87127, Note_on_c, 7, 57, 84
1, 87127, Note_on_c, 9, 54, 59
1, 87127, Note_on_c, 9, 51, 68
1, 87127, Note_on_c, 11, 66, 37
1, 87127, Note_on_c, 11, 61, 66
1, 87127, Note_on_c, 11, 69, 64
1, 87147, Control_c, 8, 11, 119
1, 87151, Lyric_t, "y "
1, 87171, Note_on_c, 7, 66, 0
1, 87186, Note_on_c, 11, 61, 0
1, 87187, Note_on_c, 7, 61, 0
1, 87197, Control_c, 8, 11, 118
1, 87227, Note_on_c, 7, 42, 0
1, 87237, Control_c, 8, 11, 117
1, 87245, Note_on_c, 9, 51, 0
1, 87245, Note_on_c, 9, 54, 0
1, 87245, Note_on_c, 5, 69, 0
1, 87247, Note_on_c, 7, 49, 49
1, 87247, Note_on_c, 7, 52, 87
1, 87247, Note_on_c, 9, 54, 54
1, 87247, Note_on_c, 11, 61, 74
1, 87265, Note_on_c, 11, 69, 0
1, 87271, Lyric_t, "on "
1, 87287, Control_c, 8, 11, 116
1, 87305, Note_on_c, 7, 49, 0
1, 87312, Note_on_c, 11, 66, 0
1, 87327, Control_c, 8, 11, 115
1, 87329, Note_on_c, 7, 57, 0
1, 87336, Note_on_c, 11, 61, 0
1, 87347, Control_c, 8, 11, 111
1, 87364, Control_c, 7, 64, 0
1, 87365, Note_on_c, 9, 54, 0
1, 87365, Note_on_c, 5, 61, 0
1, 87365, Note_on_c, 5, 66, 0
1, 87365, Note_on_c, 1, 30, 0
1, 87365, Note_on_c, 5, 57, 0
1, 87367, Note_on_c, 1, 28, 102
1, 87367, Note_on_c, 4, 80, 102
1, 87367, Note_on_c, 4, 68, 93
1, 87367, Note_on_c, 4, 76, 72
1, 87367, Note_on_c, 5, 64, 72
1, 87367, Note_on_c, 5, 68, 78
1, 87367, Note_on_c, 5, 59, 105
1, 87367, Note_on_c, 6, 80, 80
1, 87367, Note_on_c, 6, 68, 82
1, 87367, Note_on_c, 7, 64, 102
1, 87367, Note_on_c, 7, 68, 99
1, 87367, Note_on_c, 7, 40, 99
1, 87367, Note_on_c, 8, 56, 82
1, 87367, Note_on_c, 9, 54, 76
1, 87367, Note_on_c, 9, 36, 101
1, 87367, Note_on_c, 9, 51, 75
1, 87367, Note_on_c, 10, 80, 76
1, 87367, Note_on_c, 10, 76, 72
1, 87367, Note_on_c, 11, 64, 96
1, 87367, Note_on_c, 11, 59, 114
1, 87367, Note_on_c, 11, 68, 102
1, 87367, Note_on_c, 13, 52, 99
1, 87367, Note_on_c, 13, 47, 105
1, 87367, Note_on_c, 15, 68, 1
1, 87367, Note_on_c, 15, 76, 1
1, 87367, Note_on_c, 15, 80, 1
1, 87368, Note_on_c, 10, 78, 0
1, 87378, Note_on_c, 10, 81, 0
1, 87380, Note_on_c, 13, 49, 0
1, 87387, Note_on_c, 13, 54, 0
1, 87387, Control_c, 8, 11, 112
1, 87395, Note_on_c, 8, 57, 0
1, 87406, Note_on_c, 6, 69, 0
1, 87417, Control_c, 8, 11, 113
1, 87420, Note_on_c, 6, 81, 0
1, 87447, Control_c, 8, 11, 114
1, 87477, Control_c, 8, 11, 115
1, 87485, Note_on_c, 9, 54, 0
1, 87485, Note_on_c, 9, 51, 0
1, 87485, Note_on_c, 9, 36, 0
1, 87487, Note_on_c, 9, 54, 56
1, 87487, Note_on_c, 9, 36, 51
1, 87507, Control_c, 8, 11, 116
1, 87511, Lyric_t, "my "
1, 87537, Control_c, 8, 11, 117
1, 87547, Note_on_c, 11, 59, 0
1, 87552, Note_on_c, 4, 68, 0
1, 87556, Note_on_c, 11, 68, 0
1, 87557, Note_on_c, 4, 76, 0
1, 87567, Control_c, 8, 11, 118
1, 87568, Note_on_c, 11, 64, 0
1, 87571, Note_on_c, 4, 80, 0
1, 87597, Control_c, 8, 11, 119
1, 87605, Note_on_c, 9, 36, 0
1, 87605, Note_on_c, 9, 54, 0
1, 87607, Note_on_c, 4, 80, 87
1, 87607, Note_on_c, 4, 68, 99
1, 87607, Note_on_c, 4, 76, 72
1, 87607, Note_on_c, 7, 59, 84
1, 87607, Note_on_c, 9, 54, 59
1, 87607, Note_on_c, 9, 51, 68
1, 87607, Note_on_c, 11, 59, 74
1, 87607, Note_on_c, 11, 68, 62
1, 87607, Note_on_c, 11, 64, 68
1, 87620, Control_c, 7, 64, 127
1, 87624, Note_on_c, 7, 52, 0
1, 87627, Control_c, 8, 11, 120
1, 87631, Lyric_t, "heart. "
1, 87631, Lyric_t, "\015"
1, 87657, Control_c, 8, 11, 121
1, 87663, Note_on_c, 7, 68, 0
1, 87669, Note_on_c, 4, 68, 0
1, 87671, Note_on_c, 11, 59, 0
1, 87674, Note_on_c, 4, 80, 0
1, 87675, Note_on_c, 11, 64, 0
1, 87678, Note_on_c, 7, 64, 0
1, 87687, Control_c, 8, 11, 122
1, 87688, Note_on_c, 4, 76, 0
1, 87689, Note_on_c, 11, 68, 0
1, 87717, Control_c, 8, 11, 123
1, 87725, Note_on_c, 9, 54, 0
1, 87725, Note_on_c, 9, 51, 0
1, 87727, Note_on_c, 4, 68, 99
1, 87727, Note_on_c, 4, 80, 102
1, 87727, Note_on_c, 4, 76, 74
1, 87727, Note_on_c, 7, 52, 87
1, 87727, Note_on_c, 9, 54, 54
1, 87727, Note_on_c, 11, 59, 66
1, 87727, Note_on_c, 11, 68, 57
1, 87727, Note_on_c, 11, 64, 59
1, 87747, Control_c, 8, 11, 124
1, 87772, Note_on_c, 11, 68, 0
1, 87777, Control_c, 8, 11, 125
1, 87782, Note_on_c, 11, 64, 0
1, 87783, Note_on_c, 11, 59, 0
1, 87807, Control_c, 8, 11, 123
1, 87837, Control_c, 8, 11, 122
1, 87845, Note_on_c, 9, 54, 0
1, 87847, Note_on_c, 7, 68, 99
1, 87847, Note_on_c, 7, 64, 102
1, 87847, Note_on_c, 9, 54, 76
1, 87847, Note_on_c, 9, 38, 101
1, 87847, Note_on_c, 9, 51, 75
1, 87847, Note_on_c, 11, 59, 114
1, 87847, Note_on_c, 11, 64, 96
1, 87847, Note_on_c, 11, 68, 108
1, 87857, Control_c, 8, 11, 121
1, 87887, Control_c, 8, 11, 120
1, 87907, Control_c, 8, 11, 119
1, 87937, Control_c, 8, 11, 118
1, 87957, Control_c, 8, 11, 117
1, 87965, Note_on_c, 9, 51, 0
1, 87965, Note_on_c, 15, 68, 0
1, 87965, Note_on_c, 15, 80, 0
1, 87965, Note_on_c, 9, 38, 0
1, 87965, Note_on_c, 9, 54, 0
1, 87965, Note_on_c, 15, 76, 0
1, 87967, Note_on_c, 4, 66, 102
1, 87967, Note_on_c, 4, 78, 99
1, 87967, Note_on_c, 4, 75, 68
1, 87967, Note_on_c, 9, 54, 56
1, 87967, Note_on_c, 15, 66, 1
1, 87967, Note_on_c, 15, 75, 1
1, 87967, Note_on_c, 15, 78, 1
1, 87971, Note_on_c, 4, 68, 0
1, 87982, Note_on_c, 4, 80, 0
1, 87987, Control_c, 8, 11, 116
1, 87992, Note_on_c, 4, 76, 0
1, 88007, Control_c, 8, 11, 115
1, 88037, Control_c, 8, 11, 114
1, 88042, Note_on_c, 11, 59, 0
1, 88057, Note_on_c, 4, 75, 0
1, 88057, Control_c, 8, 11, 113
1, 88066, Note_on_c, 4, 66, 0
1, 88066, Note_on_c, 4, 78, 0
1, 88085, Note_on_c, 9, 54, 0
1, 88085, Note_on_c, 15, 78, 0
1, 88085, Note_on_c, 15, 66, 0
1, 88085, Note_on_c, 15, 75, 0
1, 88087, Note_on_c, 4, 71, 70
1, 88087, Note_on_c, 4, 66, 105
1, 88087, Note_on_c, 4, 78, 108
1, 88087, Note_on_c, 4, 75, 78
1, 88087, Note_on_c, 7, 61, 74
1, 88087, Control_c, 8, 11, 112
1, 88087, Note_on_c, 9, 54, 59
1, 88087, Note_on_c, 9, 51, 68
1, 88087, Note_on_c, 11, 59, 68
1, 88087, Note_on_c, 15, 66, 1
1, 88087, Note_on_c, 15, 71, 1
1, 88087, Note_on_c, 15, 71, 1
1, 88087, Note_on_c, 15, 75, 1
1, 88087, Note_on_c, 15, 78, 1
1, 88103, Control_c, 7, 64, 0
1, 88107, Control_c, 8, 11, 111
1, 88137, Control_c, 8, 11, 110
1, 88156, Note_on_c, 11, 59, 0
1, 88157, Control_c, 8, 11, 109
1, 88187, Control_c, 8, 11, 108
1, 88205, Note_on_c, 9, 51, 0
1, 88205, Note_on_c, 9, 54, 0
1, 88205, Note_on_c, 5, 59, 0
1, 88207, Control_c, 8, 11, 107
1, 88207, Note_on_c, 9, 54, 54
1, 88207, Note_on_c, 11, 59, 43
1, 88237, Control_c, 8, 11, 99
1, 88245, Note_on_c, 7, 52, 0
1, 88255, Note_on_c, 7, 40, 0
1, 88261, Note_on_c, 11, 64, 0
1, 88271, Note_on_c, 11, 68, 0
1, 88276, Note_on_c, 11, 59, 0
1, 88277, Control_c, 8, 11, 100
1, 88283, Note_on_c, 13, 47, 0
1, 88284, Note_on_c, 7, 68, 0
1, 88286, Note_on_c, 7, 59, 0
1, 88288, Note_on_c, 7, 64, 0
1, 88303, Note_on_c, 7, 61, 0
1, 88317, Note_on_c, 8, 56, 0
1, 88317, Control_c, 8, 11, 101
1, 88318, Note_on_c, 10, 80, 0
1, 88321, Note_on_c, 3, 76, 0
1, 88325, Note_on_c, 1, 28, 0
1, 88325, Note_on_c, 5, 68, 0
1, 88325, Note_on_c, 5, 64, 0
1, 88325, Note_on_c, 9, 54, 0
1, 88327, Note_on_c, 1, 35, 111
1, 88327, Note_on_c, 5, 63, 90
1, 88327, Note_on_c, 5, 66, 87
1, 88327, Note_on_c, 5, 59, 108
1, 88327, Note_on_c, 6, 71, 78
1, 88327, Note_on_c, 6, 83, 62
1, 88327, Note_on_c, 6, 78, 58
1, 88327, Note_on_c, 7, 83, 99
1, 88327, Note_on_c, 7, 75, 93
1, 88327, Note_on_c, 7, 71, 96
1, 88327, Note_on_c, 7, 47, 102
1, 88327, Note_on_c, 8, 54, 82
1, 88327, Note_on_c, 9, 54, 76
1, 88327, Note_on_c, 9, 49, 74
1, 88327, Note_on_c, 9, 36, 101
1, 88327, Note_on_c, 10, 83, 87
1, 88327, Note_on_c, 10, 75, 68
1, 88327, Note_on_c, 11, 59, 105
1, 88327, Note_on_c, 11, 63, 99
1, 88327, Note_on_c, 11, 66, 96
1, 88327, Note_on_c, 13, 47, 99
1, 88327, Note_on_c, 13, 54, 96
1, 88331, Note_on_c, 10, 76, 0
1, 88339, Note_on_c, 13, 52, 0
1, 88347, Control_c, 8, 11, 102
1, 88354, Note_on_c, 6, 80, 0
1, 88361, Note_on_c, 6, 68, 0
1, 88387, Control_c, 8, 11, 103
1, 88408, Control_c, 7, 64, 127
1, 88427, Control_c, 8, 11, 104
1, 88445, Note_on_c, 9, 49, 0
1, 88445, Note_on_c, 9, 54, 0
1, 88445, Note_on_c, 9, 36, 0
1, 88445, Note_on_c, 1, 35, 0
1, 88447, Note_on_c, 1, 35, 90
1, 88447, Note_on_c, 9, 54, 56
1, 88447, Note_on_c, 9, 36, 51
1, 88457, Control_c, 8, 11, 105
1, 88497, Control_c, 8, 11, 106
1, 88518, Note_on_c, 7, 71, 0
1, 88527, Control_c, 8, 11, 107
1, 88542, Note_on_c, 11, 59, 0
1, 88553, Note_on_c, 11, 63, 0
1, 88565, Note_on_c, 9, 36, 0
1, 88565, Note_on_c, 9, 54, 0
1, 88567, Note_on_c, 7, 71, 52
1, 88567, Control_c, 8, 11, 108
1, 88567, Note_on_c, 9, 54, 59
1, 88567, Note_on_c, 9, 51, 68
1, 88567, Note_on_c, 11, 63, 61
1, 88567, Note_on_c, 11, 59, 54
1, 88600, Note_on_c, 7, 83, 0
1, 88607, Control_c, 8, 11, 109
1, 88613, Note_on_c, 7, 75, 0
1, 88616, Note_on_c, 11, 59, 0
1, 88634, Note_on_c, 11, 63, 0
1, 88637, Control_c, 8, 11, 110
1, 88671, Note_on_c, 11, 66, 0
1, 88677, Control_c, 8, 11, 111
1, 88685, Note_on_c, 9, 54, 0
1, 88685, Note_on_c, 9, 51, 0
1, 88687, Note_on_c, 7, 59, 54
1, 88687, Note_on_c, 9, 54, 54
1, 88687, Note_on_c, 11, 63, 57
1, 88687, Note_on_c, 11, 59, 52
1, 88687, Note_on_c, 11, 66, 55
1, 88707, Control_c, 8, 11, 112
1, 88743, Note_on_c, 11, 59, 0
1, 88743, Note_on_c, 7, 71, 0
1, 88747, Control_c, 8, 11, 113
1, 88759, Note_on_c, 11, 63, 0
1, 88759, Note_on_c, 11, 66, 0
1, 88787, Control_c, 8, 11, 114
1, 88805, Note_on_c, 9, 54, 0
1, 88807, Note_on_c, 7, 83, 108
1, 88807, Note_on_c, 7, 71, 105
1, 88807, Note_on_c, 7, 78, 99
1, 88807, Note_on_c, 7, 75, 102
1, 88807, Note_on_c, 9, 54, 76
1, 88807, Note_on_c, 9, 38, 101
1, 88807, Note_on_c, 9, 51, 75
1, 88807, Note_on_c, 11, 63, 96
1, 88807, Note_on_c, 11, 59, 108
1, 88807, Note_on_c, 11, 66, 96
1, 88817, Control_c, 8, 11, 115
1, 88857, Note_on_c, 7, 59, 0
1, 88857, Control_c, 8, 11, 116
1, 88887, Control_c, 8, 11, 117
1, 88925, Note_on_c, 9, 51, 0
1, 88925, Note_on_c, 9, 38, 0
1, 88925, Note_on_c, 9, 54, 0
1, 88927, Control_c, 8, 11, 118
1, 88927, Note_on_c, 9, 54, 56
1, 88964, Note_on_c, 7, 71, 0
1, 88967, Control_c, 8, 11, 119
1, 88994, Note_on_c, 7, 83, 0
1, 88997, Control_c, 8, 11, 120
1, 89006, Note_on_c, 11, 59, 0
1, 89006, Note_on_c, 11, 63, 0
1, 89024, Note_on_c, 7, 78, 0
1, 89029, Note_on_c, 7, 75, 0
1, 89037, Control_c, 8, 11, 121
1, 89045, Note_on_c, 9, 54, 0
1, 89047, Note_on_c, 7, 71, 57
1, 89047, Note_on_c, 7, 59, 51
1, 89047, Note_on_c, 9, 54, 59
1, 89047, Note_on_c, 9, 51, 68
1, 89047, Note_on_c, 11, 59, 57
1, 89047, Note_on_c, 11, 63, 46
1, 89067, Control_c, 8, 11, 122
1, 89077, Note_on_c, 7, 71, 0
1, 89099, Note_on_c, 11, 59, 0
1, 89107, Control_c, 8, 11, 123
1, 89110, Pitch_bend_c, 3, 6885
1, 89119, Pitch_bend_c, 3, 5849
1, 89128, Pitch_bend_c, 3, 4738
1, 89138, Pitch_bend_c, 3, 3850
1, 89147, Pitch_bend_c, 3, 3233
1, 89147, Control_c, 8, 11, 124
1, 89156, Pitch_bend_c, 3, 2641
1, 89165, Note_on_c, 9, 54, 0
1, 89165, Note_on_c, 9, 51, 0
1, 89166, Pitch_bend_c, 3, 2444
1, 89167, Note_on_c, 3, 83, 114
1, 89167, Note_on_c, 7, 54, 52
1, 89167, Note_on_c, 9, 54, 54
1, 89167, Lyric_t, "I "
1, 89173, Note_on_c, 9, 36, 51
1, 89175, Pitch_bend_c, 3, 2197
1, 89177, Control_c, 8, 11, 125
1, 89184, Pitch_bend_c, 3, 2099
1, 89186, Note_on_c, 7, 47, 0
1, 89203, Pitch_bend_c, 3, 2296
1, 89212, Pitch_bend_c, 3, 2740
1, 89217, Control_c, 8, 11, 126
1, 89221, Pitch_bend_c, 3, 3382
1, 89231, Pitch_bend_c, 3, 4220
1, 89234, Note_on_c, 11, 63, 0
1, 89240, Pitch_bend_c, 3, 5281
1, 89247, Control_c, 8, 11, 127
1, 89249, Pitch_bend_c, 3, 6268
1, 89256, Note_on_c, 11, 66, 0
1, 89258, Pitch_bend_c, 3, 6959
1, 89268, Pitch_bend_c, 3, 8192
1, 89284, Note_on_c, 7, 54, 0
1, 89285, Note_on_c, 5, 63, 0
1, 89285, Note_on_c, 1, 35, 0
1, 89285, Note_on_c, 9, 54, 0
1, 89286, Control_c, 7, 64, 0
1, 89287, Note_on_c, 10, 75, 0
1, 89287, Note_on_c, 1, 35, 84
1, 89287, Note_on_c, 5, 64, 84
1, 89287, Note_on_c, 6, 76, 34
1, 89287, Note_on_c, 7, 73, 93
1, 89287, Note_on_c, 7, 66, 96
1, 89287, Note_on_c, 7, 76, 90
1, 89287, Note_on_c, 7, 47, 96
1, 89287, Note_on_c, 8, 52, 82
1, 89287, Note_on_c, 9, 54, 76
1, 89287, Note_on_c, 9, 51, 75
1, 89287, Note_on_c, 9, 36, 101
1, 89287, Note_on_c, 10, 76, 74
1, 89287, Note_on_c, 11, 59, 105
1, 89287, Note_on_c, 11, 66, 93
1, 89287, Note_on_c, 11, 64, 96
1, 89291, Note_on_c, 8, 54, 0
1, 89291, Note_on_c, 9, 36, 0
1, 89312, Control_c, 4, 11, 127
1, 89312, Control_c, 15, 11, 127
1, 89321, Note_on_c, 6, 78, 0
1, 89345, Note_on_c, 9, 54, 0
1, 89363, Control_c, 4, 11, 126
1, 89363, Control_c, 15, 11, 126
1, 89378, Control_c, 7, 64, 127
1, 89400, Control_c, 4, 11, 125
1, 89400, Control_c, 15, 11, 125
1, 89405, Note_on_c, 9, 36, 0
1, 89405, Note_on_c, 1, 35, 0
1, 89405, Note_on_c, 9, 51, 0
1, 89407, Note_on_c, 3, 85, 102
1, 89407, Note_on_c, 9, 54, 56
1, 89407, Lyric_t, "can't "
1, 89410, Note_on_c, 3, 83, 0
1, 89413, Note_on_c, 9, 36, 46
1, 89451, Control_c, 4, 11, 124
1, 89451, Control_c, 15, 11, 124
1, 89465, Note_on_c, 9, 54, 0
1, 89467, Note_on_c, 11, 59, 0
1, 89483, Note_on_c, 7, 66, 0
1, 89489, Control_c, 4, 11, 123
1, 89489, Control_c, 15, 11, 123
1, 89516, Note_on_c, 7, 76, 0
1, 89527, Note_on_c, 1, 35, 105
1, 89527, Note_on_c, 7, 66, 42
1, 89527, Note_on_c, 9, 54, 39
1, 89527, Note_on_c, 9, 51, 68
1, 89527, Note_on_c, 11, 59, 55
1, 89530, Note_on_c, 7, 59, 0
1, 89531, Note_on_c, 9, 36, 0
1, 89532, Note_on_c, 7, 73, 0
1, 89533, Note_on_c, 9, 36, 57
1, 89539, Control_c, 4, 11, 122
1, 89539, Control_c, 15, 11, 122
1, 89574, Note_on_c, 9, 54, 49
1, 89577, Control_c, 4, 11, 121
1, 89577, Control_c, 15, 11, 121
1, 89582, Note_on_c, 11, 64, 0
1, 89585, Note_on_c, 9, 54, 0
1, 89587, Note_on_c, 7, 66, 0
1, 89592, Note_on_c, 11, 59, 0
1, 89592, Note_on_c, 11, 66, 0
1, 89618, Note_on_c, 3, 85, 0
1, 89628, Control_c, 4, 11, 120
1, 89628, Control_c, 15, 11, 120
1, 89632, Note_on_c, 9, 54, 0
1, 89634, Note_on_c, 9, 54, 54
1, 89645, Note_on_c, 9, 51, 0
1, 89647, Note_on_c, 3, 87, 111
1, 89647, Note_on_c, 11, 59, 55
1, 89647, Note_on_c, 11, 66, 45
1, 89647, Note_on_c, 11, 64, 55
1, 89647, Lyric_t, "find "
1, 89651, Note_on_c, 9, 36, 0
1, 89653, Note_on_c, 9, 36, 51
1, 89666, Control_c, 4, 11, 119
1, 89666, Control_c, 15, 11, 119
1, 89692, Note_on_c, 9, 54, 0
1, 89694, Note_on_c, 9, 54, 59
1, 89716, Control_c, 4, 11, 118
1, 89716, Control_c, 15, 11, 118
1, 89730, Note_on_c, 11, 66, 0
1, 89734, Note_on_c, 11, 59, 0
1, 89738, Note_on_c, 11, 64, 0
1, 89752, Note_on_c, 9, 54, 0
1, 89754, Control_c, 4, 11, 117
1, 89754, Control_c, 15, 11, 117
1, 89765, Note_on_c, 5, 64, 0
1, 89767, Note_on_c, 5, 63, 82
1, 89767, Note_on_c, 6, 78, 47
1, 89767, Note_on_c, 7, 71, 84
1, 89767, Note_on_c, 7, 75, 84
1, 89767, Note_on_c, 7, 78, 87
1, 89767, Note_on_c, 7, 66, 96
1, 89767, Note_on_c, 7, 59, 80
1, 89767, Note_on_c, 8, 54, 80
1, 89767, Note_on_c, 9, 54, 76
1, 89767, Note_on_c, 9, 51, 75
1, 89767, Note_on_c, 9, 55, 98
1, 89767, Note_on_c, 9, 38, 101
1, 89767, Note_on_c, 10, 78, 66
1, 89767, Note_on_c, 11, 59, 111
1, 89767, Note_on_c, 11, 66, 96
1, 89767, Note_on_c, 11, 63, 99
1, 89771, Note_on_c, 9, 36, 0
1, 89789, Note_on_c, 8, 52, 0
1, 89794, Note_on_c, 10, 76, 0
1, 89802, Control_c, 7, 64, 0
1, 89805, Control_c, 4, 11, 116
1, 89805, Control_c, 15, 11, 116
1, 89807, Note_on_c, 6, 76, 0
1, 89843, Control_c, 4, 11, 115
1, 89843, Control_c, 15, 11, 115
1, 89885, Note_on_c, 9, 38, 0
1, 89885, Note_on_c, 9, 54, 0
1, 89885, Note_on_c, 9, 55, 0
1, 89885, Note_on_c, 9, 51, 0
1, 89887, Note_on_c, 3, 85, 72
1, 89887, Note_on_c, 9, 54, 56
1, 89893, Note_on_c, 3, 87, 0
1, 89893, Control_c, 4, 11, 114
1, 89893, Control_c, 15, 11, 114
1, 89921, Note_on_c, 3, 85, 0
1, 89931, Control_c, 4, 11, 113
1, 89931, Control_c, 15, 11, 113
1, 89958, Note_on_c, 11, 63, 0
1, 89978, Note_on_c, 11, 59, 0
1, 89982, Control_c, 4, 11, 112
1, 89982, Control_c, 15, 11, 112
1, 90005, Note_on_c, 9, 54, 0
1, 90007, Note_on_c, 3, 85, 108
1, 90007, Note_on_c, 7, 54, 74
1, 90007, Note_on_c, 9, 54, 59
1, 90007, Note_on_c, 9, 51, 68
1, 90007, Note_on_c, 11, 59, 40
1, 90007, Note_on_c, 11, 63, 55
1, 90007, Lyric_t, "my "
1, 90019, Control_c, 4, 11, 111
1, 90019, Control_c, 15, 11, 111
1, 90063, Note_on_c, 11, 59, 0
1, 90070, Control_c, 4, 11, 110
1, 90070, Control_c, 15, 11, 110
1, 90076, Note_on_c, 7, 75, 0
1, 90077, Note_on_c, 7, 78, 0
1, 90085, Note_on_c, 7, 71, 0
1, 90093, Note_on_c, 7, 59, 0
1, 90103, Note_on_c, 7, 54, 0
1, 90108, Control_c, 4, 11, 109
1, 90108, Control_c, 15, 11, 109
1, 90125, Note_on_c, 9, 51, 0
1, 90125, Note_on_c, 5, 63, 0
1, 90125, Note_on_c, 5, 59, 0
1, 90125, Note_on_c, 9, 54, 0
1, 90127, Note_on_c, 3, 83, 90
1, 90127, Note_on_c, 9, 54, 54
1, 90127, Note_on_c, 11, 59, 58
1, 90127, Lyric_t, "way "
1, 90141, Note_on_c, 7, 66, 0
1, 90146, Note_on_c, 3, 85, 0
1, 90150, Pitch_bend_c, 13, 7847
1, 90156, Note_on_c, 7, 47, 0
1, 90158, Control_c, 4, 11, 108
1, 90158, Control_c, 15, 11, 108
1, 90159, Pitch_bend_c, 13, 7132
1, 90168, Pitch_bend_c, 13, 6589
1, 90178, Pitch_bend_c, 13, 6071
1, 90187, Pitch_bend_c, 13, 5232
1, 90195, Note_on_c, 4, 75, 0
1, 90196, Control_c, 4, 11, 107
1, 90196, Pitch_bend_c, 13, 4319
1, 90196, Control_c, 15, 11, 107
1, 90205, Pitch_bend_c, 13, 3776
1, 90212, Note_on_c, 8, 54, 0
1, 90215, Note_on_c, 15, 66, 0
1, 90215, Note_on_c, 4, 66, 0
1, 90215, Pitch_bend_c, 13, 3406
1, 90216, Note_on_c, 13, 54, 0
1, 90219, Note_on_c, 15, 71, 0
1, 90219, Note_on_c, 15, 71, 0
1, 90219, Note_on_c, 11, 59, 0
1, 90219, Note_on_c, 4, 71, 0
1, 90224, Pitch_bend_c, 13, 3209
1, 90227, Note_on_c, 11, 66, 0
1, 90228, Note_on_c, 13, 47, 0
1, 90233, Pitch_bend_c, 13, 8192
1, 90239, Note_on_c, 11, 63, 0
1, 90241, Note_on_c, 6, 71, 0
1, 90242, Note_on_c, 6, 78, 0
1, 90243, Note_on_c, 15, 78, 0
1, 90243, Note_on_c, 4, 78, 0
1, 90243, Note_on_c, 15, 75, 0
1, 90245, Note_on_c, 9, 54, 0
1, 90245, Note_on_c, 1, 35, 0
1, 90247, Note_on_c, 0, 57, 84
1, 90247, Note_on_c, 1, 30, 114
1, 90247, Note_on_c, 3, 85, 117
1, 90247, Note_on_c, 5, 69, 90
1, 90247, Note_on_c, 5, 57, 102
1, 90247, Note_on_c, 5, 61, 105
1, 90247, Note_on_c, 6, 90, 84
1, 90247, Note_on_c, 6, 78, 74
1, 90247, Note_on_c, 6, 69, 80
1, 90247, Note_on_c, 7, 73, 93
1, 90247, Note_on_c, 7, 69, 82
1, 90247, Note_on_c, 7, 78, 105
1, 90247, Note_on_c, 7, 42, 99
1, 90247, Note_on_c, 8, 57, 82
1, 90247, Note_on_c, 9, 54, 76
1, 90247, Note_on_c, 9, 36, 101
1, 90247, Note_on_c, 9, 49, 81
1, 90247, Note_on_c, 10, 81, 87
1, 90247, Note_on_c, 11, 61, 114
1, 90247, Note_on_c, 11, 66, 108
1, 90247, Note_on_c, 11, 69, 108
1, 90247, Note_on_c, 13, 49, 93
1, 90247, Note_on_c, 13, 54, 87
1, 90247, Lyric_t, "home. "
1, 90247, Lyric_t, "\015"
1, 90249, Note_on_c, 6, 83, 0
1, 90253, Note_on_c, 6, 57, 99
1, 90253, Note_on_c, 6, 45, 90
1, 90258, Note_on_c, 3, 83, 0
1, 90278, Note_on_c, 10, 83, 0
1, 90285, Control_c, 4, 11, 127
1, 90285, Control_c, 4, 11, 127
1, 90285, Control_c, 15, 11, 127
1, 90285, Control_c, 15, 11, 127
1, 90331, Control_c, 7, 64, 127
1, 90365, Note_on_c, 9, 49, 0
1, 90365, Note_on_c, 9, 54, 0
1, 90365, Note_on_c, 9, 36, 0
1, 90367, Note_on_c, 9, 54, 56
1, 90367, Note_on_c, 9, 36, 51
1, 90420, Note_on_c, 7, 69, 0
1, 90453, Note_on_c, 6, 59, 87
1, 90455, Note_on_c, 6, 47, 80
1, 90458, Note_on_c, 7, 78, 0
1, 90484, Note_on_c, 7, 73, 0
1, 90485, Note_on_c, 9, 36, 0
1, 90485, Note_on_c, 9, 54, 0
1, 90485, Note_on_c, 6, 57, 0
1, 90487, Note_on_c, 0, 59, 82
1, 90487, Note_on_c, 7, 69, 74
1, 90487, Note_on_c, 7, 54, 55
1, 90487, Note_on_c, 8, 59, 80
1, 90487, Note_on_c, 9, 54, 59
1, 90487, Note_on_c, 9, 51, 68
1, 90498, Note_on_c, 6, 45, 0
1, 90516, Note_on_c, 7, 69, 0
1, 90523, Note_on_c, 8, 57, 0
1, 90527, Note_on_c, 0, 57, 0
1, 90564, Note_on_c, 11, 61, 0
1, 90569, Note_on_c, 11, 69, 0
1, 90584, Note_on_c, 11, 66, 0
1, 90605, Note_on_c, 9, 54, 0
1, 90605, Note_on_c, 9, 51, 0
1, 90607, Note_on_c, 9, 54, 54
1, 90607, Note_on_c, 11, 61, 90
1, 90607, Note_on_c, 11, 66, 74
1, 90607, Note_on_c, 11, 69, 87
1, 90686, Note_on_c, 11, 61, 0
1, 90692, Note_on_c, 11, 69, 0
1, 90700, Note_on_c, 6, 52, 82
1, 90700, Note_on_c, 6, 64, 96
1, 90708, Note_on_c, 6, 47, 0
1, 90711, Note_on_c, 11, 66, 0
1, 90723, Note_on_c, 6, 59, 0
1, 90725, Note_on_c, 9, 54, 0
1, 90727, Note_on_c, 0, 64, 87
1, 90727, Note_on_c, 7, 69, 84
1, 90727, Note_on_c, 7, 66, 87
1, 90727, Note_on_c, 8, 64, 87
1, 90727, Note_on_c, 9, 54, 76
1, 90727, Note_on_c, 9, 38, 101
1, 90727, Note_on_c, 9, 51, 75
1, 90727, Note_on_c, 11, 69, 105
1, 90727, Note_on_c, 11, 61, 108
1, 90727, Note_on_c, 11, 66, 105
1, 90731, Note_on_c, 0, 59, 0
1, 90737, Note_on_c, 8, 59, 0
1, 90749, Note_on_c, 7, 54, 0
1, 90845, Note_on_c, 9, 38, 0
1, 90845, Note_on_c, 9, 54, 0
1, 90845, Note_on_c, 9, 51, 0
1, 90847, Note_on_c, 3, 83, 108
1, 90847, Note_on_c, 9, 54, 56
1, 90870, Note_on_c, 3, 85, 0
1, 90902, Note_on_c, 7, 69, 0
1, 90922, Note_on_c, 11, 61, 0
1, 90942, Note_on_c, 7, 66, 0
1, 90942, Note_on_c, 11, 69, 0
1, 90953, Note_on_c, 11, 66, 0
1, 90965, Note_on_c, 7, 42, 0
1, 90965, Note_on_c, 9, 54, 0
1, 90967, Note_on_c, 7, 54, 62
1, 90967, Note_on_c, 7, 61, 72
1, 90967, Note_on_c, 9, 54, 59
1, 90967, Note_on_c, 9, 51, 68
1, 90967, Note_on_c, 11, 66, 37
1, 90967, Note_on_c, 11, 61, 66
1, 90967, Note_on_c, 11, 69, 64
1, 90998, Note_on_c, 7, 61, 0
1, 91000, Note_on_c, 7, 54, 0
1, 91026, Note_on_c, 11, 61, 0
1, 91085, Note_on_c, 5, 57, 0
1, 91085, Note_on_c, 5, 66, 0
1, 91085, Note_on_c, 9, 54, 0
1, 91085, Note_on_c, 9, 51, 0
1, 91087, Note_on_c, 9, 54, 54
1, 91087, Note_on_c, 11, 61, 74
1, 91105, Note_on_c, 11, 69, 0
1, 91152, Note_on_c, 11, 66, 0
1, 91166, Note_on_c, 6, 52, 0
1, 91176, Note_on_c, 11, 61, 0
1, 91186, Control_c, 7, 64, 0
1, 91205, Note_on_c, 5, 69, 0
1, 91205, Note_on_c, 9, 54, 0
1, 91205, Note_on_c, 5, 61, 0
1, 91205, Note_on_c, 1, 30, 0
1, 91207, Note_on_c, 1, 28, 102
1, 91207, Note_on_c, 4, 80, 102
1, 91207, Note_on_c, 4, 68, 93
1, 91207, Note_on_c, 4, 76, 61
1, 91207, Note_on_c, 5, 68, 36
1, 91207, Note_on_c, 5, 64, 93
1, 91207, Note_on_c, 5, 59, 105
1, 91207, Note_on_c, 6, 88, 76
1, 91207, Note_on_c, 6, 76, 72
1, 91207, Note_on_c, 6, 68, 80
1, 91207, Note_on_c, 7, 71, 90
1, 91207, Note_on_c, 7, 64, 102
1, 91207, Note_on_c, 7, 68, 93
1, 91207, Note_on_c, 7, 40, 105
1, 91207, Note_on_c, 9, 54, 76
1, 91207, Note_on_c, 9, 36, 101
1, 91207, Note_on_c, 9, 51, 75
1, 91207, Note_on_c, 10, 76, 74
1, 91207, Note_on_c, 10, 80, 48
1, 91207, Note_on_c, 11, 64, 96
1, 91207, Note_on_c, 11, 59, 114
1, 91207, Note_on_c, 11, 68, 102
1, 91207, Note_on_c, 13, 47, 96
1, 91207, Note_on_c, 13, 52, 87
1, 91207, Note_on_c, 15, 68, 1
1, 91207, Note_on_c, 15, 76, 1
1, 91207, Note_on_c, 15, 80, 1
1, 91207, Lyric_t, "Heav"
1, 91220, Note_on_c, 13, 54, 0
1, 91222, Note_on_c, 13, 49, 0
1, 91231, Note_on_c, 6, 52, 84
1, 91232, Note_on_c, 10, 78, 0
1, 91257, Note_on_c, 6, 69, 0
1, 91260, Note_on_c, 10, 81, 0
1, 91270, Note_on_c, 6, 90, 0
1, 91295, Note_on_c, 6, 78, 0
1, 91325, Note_on_c, 9, 36, 0
1, 91325, Note_on_c, 9, 54, 0
1, 91325, Note_on_c, 9, 51, 0
1, 91327, Note_on_c, 9, 54, 56
1, 91327, Note_on_c, 9, 36, 51
1, 91358, Control_c, 7, 64, 127
1, 91386, Note_on_c, 7, 64, 0
1, 91387, Note_on_c, 11, 59, 0
1, 91392, Note_on_c, 4, 68, 0
1, 91396, Note_on_c, 11, 68, 0
1, 91408, Note_on_c, 11, 64, 0
1, 91411, Note_on_c, 4, 80, 0
1, 91417, Note_on_c, 4, 76, 0
1, 91421, Note_on_c, 7, 71, 0
1, 91445, Note_on_c, 9, 36, 0
1, 91445, Note_on_c, 7, 68, 0
1, 91445, Note_on_c, 9, 54, 0
1, 91447, Note_on_c, 4, 80, 87
1, 91447, Note_on_c, 4, 68, 99
1, 91447, Note_on_c, 4, 76, 59
1, 91447, Note_on_c, 7, 64, 72
1, 91447, Note_on_c, 9, 54, 59
1, 91447, Note_on_c, 9, 51, 68
1, 91447, Note_on_c, 11, 59, 74
1, 91447, Note_on_c, 11, 68, 62
1, 91447, Note_on_c, 11, 64, 68
1, 91447, Lyric_t, "y "
1, 91453, Note_on_c, 3, 83, 0
1, 91509, Note_on_c, 4, 68, 0
1, 91511, Note_on_c, 11, 59, 0
1, 91514, Note_on_c, 4, 80, 0
1, 91515, Note_on_c, 11, 64, 0
1, 91517, Note_on_c, 4, 76, 0
1, 91529, Note_on_c, 11, 68, 0
1, 91565, Note_on_c, 9, 51, 0
1, 91565, Note_on_c, 9, 54, 0
1, 91567, Note_on_c, 4, 68, 99
1, 91567, Note_on_c, 4, 80, 102
1, 91567, Note_on_c, 4, 76, 70
1, 91567, Note_on_c, 9, 54, 54
1, 91567, Note_on_c, 11, 59, 66
1, 91567, Note_on_c, 11, 68, 57
1, 91567, Note_on_c, 11, 64, 59
1, 91567, Lyric_t, "on "
1, 91586, Note_on_c, 7, 64, 0
1, 91612, Note_on_c, 11, 68, 0
1, 91622, Note_on_c, 11, 64, 0
1, 91623, Note_on_c, 11, 59, 0
1, 91685, Note_on_c, 9, 54, 0
1, 91687, Note_on_c, 7, 68, 102
1, 91687, Note_on_c, 7, 76, 102
1, 91687, Note_on_c, 7, 52, 105
1, 91687, Note_on_c, 8, 66, 74
1, 91687, Note_on_c, 9, 54, 76
1, 91687, Note_on_c, 9, 38, 101
1, 91687, Note_on_c, 9, 51, 75
1, 91687, Note_on_c, 11, 59, 114
1, 91687, Note_on_c, 11, 64, 96
1, 91687, Note_on_c, 11, 68, 108
1, 91748, Note_on_c, 8, 64, 0
1, 91805, Note_on_c, 15, 76, 0
1, 91805, Note_on_c, 15, 68, 0
1, 91805, Note_on_c, 15, 80, 0
1, 91805, Note_on_c, 9, 51, 0
1, 91805, Note_on_c, 9, 38, 0
1, 91805, Note_on_c, 9, 54, 0
1, 91807, Note_on_c, 4, 78, 99
1, 91807, Note_on_c, 4, 66, 102
1, 91807, Note_on_c, 4, 75, 62
1, 91807, Note_on_c, 9, 54, 56
1, 91807, Note_on_c, 15, 66, 1
1, 91807, Note_on_c, 15, 75, 1
1, 91807, Note_on_c, 15, 78, 1
1, 91807, Lyric_t, "my "
1, 91811, Note_on_c, 4, 68, 0
1, 91822, Note_on_c, 4, 80, 0
1, 91849, Note_on_c, 4, 76, 0
1, 91882, Note_on_c, 11, 59, 0
1, 91891, Note_on_c, 4, 75, 0
1, 91906, Note_on_c, 4, 66, 0
1, 91906, Note_on_c, 4, 78, 0
1, 91908, Note_on_c, 7, 40, 0
1, 91922, Note_on_c, 7, 76, 0
1, 91925, Note_on_c, 15, 66, 0
1, 91925, Note_on_c, 15, 78, 0
1, 91925, Note_on_c, 9, 54, 0
1, 91925, Note_on_c, 15, 75, 0
1, 91926, Note_on_c, 7, 52, 0
1, 91927, Note_on_c, 4, 66, 105
1, 91927, Note_on_c, 4, 78, 108
1, 91927, Note_on_c, 4, 71, 70
1, 91927, Note_on_c, 4, 75, 76
1, 91927, Note_on_c, 7, 64, 84
1, 91927, Note_on_c, 9, 54, 59
1, 91927, Note_on_c, 9, 51, 68
1, 91927, Note_on_c, 11, 59, 68
1, 91927, Note_on_c, 15, 66, 1
1, 91927, Note_on_c, 15, 71, 1
1, 91927, Note_on_c, 15, 75, 1
1, 91927, Note_on_c, 15, 78, 1
1, 91927, Lyric_t, "heart. "
1, 91927, Lyric_t, "\015"
1, 91958, Note_on_c, 7, 68, 0
1, 91974, Note_on_c, 7, 64, 0
1, 91996, Note_on_c, 11, 59, 0
1, 92045, Note_on_c, 9, 51, 0
1, 92045, Note_on_c, 9, 54, 0
1, 92047, Note_on_c, 9, 54, 54
1, 92047, Note_on_c, 11, 59, 43
1, 92089, Note_on_c, 13, 47, 0
1, 92101, Note_on_c, 11, 64, 0
1, 92111, Note_on_c, 11, 68, 0
1, 92116, Note_on_c, 11, 59, 0
1, 92143, Note_on_c, 8, 66, 0
1, 92158, Note_on_c, 6, 63, 50
1, 92165, Note_on_c, 1, 28, 0
1, 92165, Note_on_c, 5, 68, 0
1, 92165, Note_on_c, 5, 64, 0
1, 92165, Note_on_c, 5, 59, 0
1, 92165, Note_on_c, 9, 54, 0
1, 92166, Note_on_c, 10, 80, 0
1, 92166, Note_on_c, 6, 51, 55
1, 92167, Note_on_c, 0, 59, 48
1, 92167, Note_on_c, 0, 63, 62
1, 92167, Note_on_c, 1, 35, 96
1, 92167, Note_on_c, 5, 66, 87
1, 92167, Note_on_c, 5, 59, 102
1, 92167, Note_on_c, 5, 63, 90
1, 92167, Note_on_c, 6, 87, 68
1, 92167, Note_on_c, 6, 75, 64
1, 92167, Note_on_c, 6, 66, 78
1, 92167, Note_on_c, 7, 63, 90
1, 92167, Note_on_c, 7, 71, 99
1, 92167, Note_on_c, 7, 47, 102
1, 92167, Note_on_c, 8, 63, 80
1, 92167, Note_on_c, 9, 54, 54
1, 92167, Note_on_c, 9, 49, 74
1, 92167, Note_on_c, 9, 36, 101
1, 92167, Note_on_c, 10, 78, 78
1, 92167, Note_on_c, 10, 75, 76
1, 92167, Note_on_c, 11, 59, 105
1, 92167, Note_on_c, 11, 63, 99
1, 92167, Note_on_c, 11, 66, 96
1, 92167, Note_on_c, 13, 47, 87
1, 92167, Note_on_c, 13, 54, 93
1, 92172, Note_on_c, 10, 76, 0
1, 92174, Control_c, 7, 64, 0
1, 92190, Note_on_c, 13, 52, 0
1, 92198, Note_on_c, 6, 88, 0
1, 92204, Note_on_c, 6, 76, 0
1, 92214, Note_on_c, 0, 64, 0
1, 92219, Note_on_c, 6, 68, 0
1, 92219, Note_on_c, 6, 64, 0
1, 92222, Note_on_c, 6, 52, 0
1, 92285, Note_on_c, 9, 49, 0
1, 92285, Note_on_c, 9, 54, 0
1, 92285, Note_on_c, 9, 36, 0
1, 92287, Note_on_c, 9, 54, 50
1, 92287, Note_on_c, 9, 36, 51
1, 92382, Note_on_c, 11, 59, 0
1, 92393, Note_on_c, 11, 63, 0
1, 92405, Note_on_c, 9, 36, 0
1, 92405, Note_on_c, 9, 54, 0
1, 92407, Note_on_c, 7, 59, 76
1, 92407, Note_on_c, 9, 54, 46
1, 92407, Note_on_c, 9, 51, 68
1, 92407, Note_on_c, 11, 63, 61
1, 92407, Note_on_c, 11, 59, 54
1, 92456, Note_on_c, 11, 59, 0
1, 92474, Note_on_c, 11, 63, 0
1, 92490, Control_c, 7, 64, 127
1, 92511, Note_on_c, 11, 66, 0
1, 92525, Note_on_c, 9, 51, 0
1, 92525, Note_on_c, 9, 54, 0
1, 92527, Note_on_c, 7, 54, 78
1, 92527, Note_on_c, 9, 54, 42
1, 92527, Note_on_c, 11, 63, 57
1, 92527, Note_on_c, 11, 59, 52
1, 92527, Note_on_c, 11, 66, 55
1, 92540, Note_on_c, 7, 63, 0
1, 92583, Note_on_c, 11, 59, 0
1, 92599, Note_on_c, 11, 66, 0
1, 92599, Note_on_c, 11, 63, 0
1, 92599, Note_on_c, 7, 71, 0
1, 92645, Note_on_c, 9, 54, 0
1, 92647, Note_on_c, 7, 71, 93
1, 92647, Note_on_c, 7, 66, 84
1, 92647, Note_on_c, 9, 54, 38
1, 92647, Note_on_c, 9, 51, 75
1, 92647, Note_on_c, 9, 38, 101
1, 92647, Note_on_c, 11, 63, 96
1, 92647, Note_on_c, 11, 59, 108
1, 92647, Note_on_c, 11, 66, 96
1, 92765, Note_on_c, 9, 38, 0
1, 92765, Note_on_c, 9, 51, 0
1, 92765, Note_on_c, 9, 54, 0
1, 92767, Note_on_c, 9, 54, 33
1, 92799, Note_on_c, 7, 59, 0
1, 92830, Note_on_c, 7, 54, 0
1, 92846, Note_on_c, 11, 59, 0
1, 92846, Note_on_c, 11, 63, 0
1, 92885, Note_on_c, 9, 54, 0
1, 92887, Note_on_c, 7, 59, 87
1, 92887, Note_on_c, 9, 54, 29
1, 92887, Note_on_c, 9, 51, 68
1, 92887, Note_on_c, 11, 59, 57
1, 92887, Note_on_c, 11, 63, 46
1, 92939, Note_on_c, 11, 59, 0
1, 92946, Note_on_c, 7, 66, 0
1, 92959, Note_on_c, 9, 57, 1
1, 92965, Note_on_c, 7, 71, 0
1, 92984, Note_on_c, 9, 49, 2
1, 92986, Note_on_c, 9, 57, 2
1, 92997, Note_on_c, 9, 57, 0
1, 93005, Note_on_c, 1, 35, 0
1, 93005, Note_on_c, 9, 51, 0
1, 93005, Note_on_c, 9, 54, 0
1, 93007, Note_on_c, 1, 30, 55
1, 93007, Note_on_c, 7, 54, 82
1, 93007, Note_on_c, 9, 54, 25
1, 93010, Note_on_c, 7, 47, 0
1, 93010, Note_on_c, 9, 49, 3
1, 93013, Note_on_c, 9, 36, 51
1, 93022, Note_on_c, 9, 49, 0
1, 93023, Note_on_c, 9, 57, 4
1, 93024, Note_on_c, 9, 57, 0
1, 93036, Note_on_c, 6, 51, 0
1, 93048, Note_on_c, 9, 49, 0
1, 93048, Note_on_c, 9, 49, 6
1, 93050, Note_on_c, 9, 57, 6
1, 93061, Note_on_c, 9, 57, 0
1, 93064, Note_on_c, 10, 75, 0
1, 93074, Note_on_c, 11, 63, 0
1, 93074, Note_on_c, 9, 49, 7
1, 93081, Note_on_c, 9, 57, 8
1, 93084, Note_on_c, 6, 63, 0
1, 93086, Note_on_c, 9, 49, 0
1, 93088, Note_on_c, 9, 57, 0
1, 93094, Note_on_c, 9, 57, 8
1, 93096, Note_on_c, 11, 66, 0
1, 93108, Note_on_c, 9, 57, 9
1, 93109, Note_on_c, 6, 51, 80
1, 93112, Note_on_c, 9, 49, 0
1, 93112, Note_on_c, 6, 63, 76
1, 93118, Note_on_c, 9, 49, 10
1, 93119, Note_on_c, 9, 57, 0
1, 93123, Note_on_c, 9, 49, 10
1, 93125, Note_on_c, 9, 54, 0
1, 93125, Note_on_c, 5, 63, 0
1, 93125, Note_on_c, 1, 30, 0
1, 93127, Note_on_c, 1, 35, 84
1, 93127, Note_on_c, 5, 64, 64
1, 93127, Note_on_c, 6, 78, 19
1, 93127, Note_on_c, 7, 71, 102
1, 93127, Note_on_c, 7, 64, 99
1, 93127, Note_on_c, 7, 47, 102
1, 93127, Note_on_c, 8, 61, 70
1, 93127, Note_on_c, 9, 54, 21
1, 93127, Note_on_c, 9, 51, 75
1, 93127, Note_on_c, 9, 36, 101
1, 93127, Note_on_c, 10, 76, 74
1, 93127, Note_on_c, 10, 73, 61
1, 93127, Note_on_c, 11, 59, 105
1, 93127, Note_on_c, 11, 66, 93
1, 93127, Note_on_c, 11, 64, 96
1, 93128, Note_on_c, 7, 54, 0
1, 93131, Note_on_c, 9, 36, 0
1, 93132, Note_on_c, 9, 57, 0
1, 93135, Note_on_c, 8, 63, 0
1, 93139, Control_c, 7, 64, 0
1, 93145, Note_on_c, 9, 57, 12
1, 93146, Note_on_c, 9, 57, 0
1, 93150, Note_on_c, 9, 49, 12
1, 93152, Control_c, 4, 11, 127
1, 93152, Control_c, 15, 11, 127
1, 93156, Note_on_c, 9, 49, 0
1, 93161, Note_on_c, 9, 49, 0
1, 93162, Note_on_c, 10, 78, 0
1, 93172, Note_on_c, 9, 57, 13
1, 93183, Note_on_c, 9, 57, 0
1, 93187, Note_on_c, 9, 49, 14
1, 93188, Note_on_c, 9, 49, 0
1, 93203, Control_c, 4, 11, 126
1, 93203, Control_c, 15, 11, 126
1, 93210, Note_on_c, 9, 57, 0
1, 93214, Note_on_c, 9, 49, 16
1, 93216, Note_on_c, 9, 57, 16
1, 93225, Note_on_c, 9, 49, 0
1, 93240, Control_c, 4, 11, 125
1, 93240, Control_c, 15, 11, 125
1, 93242, Note_on_c, 9, 57, 18
1, 93245, Note_on_c, 9, 54, 0
1, 93245, Note_on_c, 9, 51, 0
1, 93245, Note_on_c, 9, 36, 0
1, 93245, Note_on_c, 1, 35, 0
1, 93247, Note_on_c, 9, 54, 17
1, 93252, Note_on_c, 9, 49, 0
1, 93253, Note_on_c, 9, 36, 51
1, 93254, Note_on_c, 9, 57, 0
1, 93258, Note_on_c, 9, 49, 19
1, 93273, Note_on_c, 9, 57, 20
1, 93280, Note_on_c, 9, 57, 0
1, 93284, Note_on_c, 9, 49, 20
1, 93291, Control_c, 4, 11, 124
1, 93291, Control_c, 15, 11, 124
1, 93292, Control_c, 7, 64, 127
1, 93296, Note_on_c, 9, 49, 0
1, 93300, Note_on_c, 9, 57, 21
1, 93302, Note_on_c, 7, 59, 0
1, 93307, Note_on_c, 11, 59, 0
1, 93311, Note_on_c, 9, 57, 0
1, 93315, Note_on_c, 9, 49, 22
1, 93322, Note_on_c, 9, 49, 0
1, 93326, Note_on_c, 9, 49, 24
1, 93329, Control_c, 4, 11, 123
1, 93329, Control_c, 15, 11, 123
1, 93337, Note_on_c, 9, 57, 24
1, 93338, Note_on_c, 9, 57, 0
1, 93342, Note_on_c, 6, 52, 82
1, 93343, Note_on_c, 6, 64, 80
1, 93353, Note_on_c, 9, 49, 0
1, 93357, Note_on_c, 6, 63, 0
1, 93364, Note_on_c, 9, 49, 0
1, 93364, Note_on_c, 9, 57, 25
1, 93365, Note_on_c, 9, 54, 0
1, 93366, Note_on_c, 0, 63, 0
1, 93367, Note_on_c, 0, 64, 43
1, 93367, Note_on_c, 1, 35, 108
1, 93367, Note_on_c, 7, 59, 59
1, 93367, Note_on_c, 9, 54, 13
1, 93367, Note_on_c, 9, 51, 68
1, 93367, Note_on_c, 11, 59, 55
1, 93371, Note_on_c, 9, 36, 0
1, 93371, Note_on_c, 6, 51, 0
1, 93373, Note_on_c, 9, 36, 59
1, 93375, Note_on_c, 9, 57, 0
1, 93379, Control_c, 4, 11, 122
1, 93379, Note_on_c, 9, 49, 25
1, 93379, Control_c, 15, 11, 122
1, 93395, Note_on_c, 9, 57, 26
1, 93402, Note_on_c, 9, 57, 0
1, 93406, Note_on_c, 9, 49, 27
1, 93415, Note_on_c, 7, 64, 0
1, 93417, Note_on_c, 9, 49, 0
1, 93417, Control_c, 4, 11, 121
1, 93417, Control_c, 15, 11, 121
1, 93422, Note_on_c, 11, 64, 0
1, 93422, Note_on_c, 9, 57, 28
1, 93426, Note_on_c, 9, 49, 19
1, 93432, Note_on_c, 11, 66, 0
1, 93432, Note_on_c, 11, 59, 0
1, 93433, Note_on_c, 9, 57, 0
1, 93437, Note_on_c, 9, 49, 29
1, 93441, Note_on_c, 9, 57, 20
1, 93444, Note_on_c, 9, 49, 0
1, 93452, Note_on_c, 9, 49, 20
1, 93460, Note_on_c, 9, 57, 0
1, 93464, Note_on_c, 9, 49, 0
1, 93464, Note_on_c, 9, 49, 31
1, 93465, Note_on_c, 9, 57, 31
1, 93468, Control_c, 4, 11, 120
1, 93468, Note_on_c, 9, 57, 21
1, 93468, Control_c, 15, 11, 120
1, 93475, Note_on_c, 9, 49, 0
1, 93479, Note_on_c, 9, 57, 0
1, 93483, Note_on_c, 9, 49, 22
1, 93485, Note_on_c, 9, 51, 0
1, 93485, Note_on_c, 9, 54, 0
1, 93487, Note_on_c, 9, 54, 9
1, 93487, Note_on_c, 11, 59, 55
1, 93487, Note_on_c, 11, 66, 45
1, 93487, Note_on_c, 11, 64, 55
1, 93490, Note_on_c, 9, 49, 0
1, 93491, Note_on_c, 9, 36, 0
1, 93492, Note_on_c, 9, 57, 32
1, 93493, Note_on_c, 9, 36, 51
1, 93494, Note_on_c, 9, 49, 24
1, 93502, Note_on_c, 9, 49, 0
1, 93503, Note_on_c, 9, 57, 0
1, 93505, Note_on_c, 9, 57, 24
1, 93506, Note_on_c, 9, 57, 0
1, 93506, Control_c, 4, 11, 119
1, 93506, Control_c, 15, 11, 119
1, 93521, Note_on_c, 9, 49, 0
1, 93525, Note_on_c, 7, 71, 0
1, 93530, Note_on_c, 9, 57, 0
1, 93532, Note_on_c, 9, 49, 0
1, 93532, Note_on_c, 9, 57, 25
1, 93543, Note_on_c, 9, 57, 0
1, 93546, Note_on_c, 6, 66, 0
1, 93547, Note_on_c, 9, 49, 25
1, 93556, Control_c, 4, 11, 118
1, 93556, Control_c, 15, 11, 118
1, 93563, Note_on_c, 9, 57, 26
1, 93570, Note_on_c, 9, 57, 0
1, 93570, Note_on_c, 11, 66, 0
1, 93574, Note_on_c, 11, 59, 0
1, 93574, Note_on_c, 6, 66, 76
1, 93574, Note_on_c, 9, 49, 27
1, 93578, Note_on_c, 11, 64, 0
1, 93578, Note_on_c, 6, 54, 82
1, 93585, Note_on_c, 9, 49, 0
1, 93590, Note_on_c, 9, 57, 28
1, 93594, Control_c, 4, 11, 117
1, 93594, Control_c, 15, 11, 117
1, 93595, Control_c, 7, 64, 0
1, 93601, Note_on_c, 9, 57, 0
1, 93605, Note_on_c, 9, 54, 0
1, 93605, Note_on_c, 5, 64, 0
1, 93605, Note_on_c, 9, 49, 29
1, 93606, Note_on_c, 6, 52, 0
1, 93607, Note_on_c, 5, 63, 68
1, 93607, Note_on_c, 7, 66, 99
1, 93607, Note_on_c, 7, 71, 105
1, 93607, Note_on_c, 7, 54, 82
1, 93607, Note_on_c, 8, 59, 74
1, 93607, Note_on_c, 9, 54, 5
1, 93607, Note_on_c, 9, 38, 101
1, 93607, Note_on_c, 9, 51, 75
1, 93607, Note_on_c, 9, 55, 68
1, 93607, Note_on_c, 10, 78, 66
1, 93607, Note_on_c, 11, 59, 111
1, 93607, Note_on_c, 11, 66, 96
1, 93607, Note_on_c, 11, 63, 99
1, 93611, Note_on_c, 9, 36, 0
1, 93612, Note_on_c, 9, 49, 0
1, 93615, Note_on_c, 8, 61, 0
1, 93615, Note_on_c, 6, 64, 0
1, 93617, Note_on_c, 0, 66, 52
1, 93628, Note_on_c, 9, 57, 0
1, 93632, Note_on_c, 9, 49, 31
1, 93633, Note_on_c, 9, 57, 31
1, 93637, Note_on_c, 10, 76, 0
1, 93643, Note_on_c, 9, 49, 0
1, 93645, Control_c, 4, 11, 116
1, 93645, Control_c, 15, 11, 116
1, 93660, Note_on_c, 9, 57, 32
1, 93661, Note_on_c, 0, 64, 0
1, 93670, Note_on_c, 9, 49, 0
1, 93671, Note_on_c, 9, 57, 0
1, 93683, Control_c, 4, 11, 115
1, 93683, Control_c, 15, 11, 115
1, 93698, Note_on_c, 9, 57, 0
1, 93725, Note_on_c, 9, 55, 0
1, 93725, Note_on_c, 9, 54, 0
1, 93725, Note_on_c, 9, 51, 0
1, 93725, Note_on_c, 9, 38, 0
1, 93727, Note_on_c, 3, 76, 99
1, 93727, Note_on_c, 9, 54, 1
1, 93727, Lyric_t, "So "
1, 93733, Control_c, 4, 11, 114
1, 93733, Control_c, 15, 11, 114
1, 93771, Control_c, 4, 11, 113
1, 93771, Control_c, 15, 11, 113
1, 93798, Note_on_c, 11, 63, 0
1, 93818, Note_on_c, 7, 59, 0
1, 93818, Note_on_c, 11, 59, 0
1, 93822, Control_c, 4, 11, 112
1, 93822, Control_c, 15, 11, 112
1, 93824, Note_on_c, 3, 76, 0
1, 93845, Note_on_c, 9, 54, 0
1, 93847, Note_on_c, 3, 76, 96
1, 93847, Note_on_c, 7, 59, 57
1, 93847, Note_on_c, 9, 54, 1
1, 93847, Note_on_c, 9, 51, 68
1, 93847, Note_on_c, 11, 59, 40
1, 93847, Note_on_c, 11, 63, 55
1, 93847, Lyric_t, "come "
1, 93853, Note_on_c, 9, 36, 51
1, 93859, Control_c, 4, 11, 111
1, 93859, Control_c, 15, 11, 111
1, 93903, Note_on_c, 11, 59, 0
1, 93910, Control_c, 4, 11, 110
1, 93910, Control_c, 15, 11, 110
1, 93948, Control_c, 4, 11, 109
1, 93948, Control_c, 15, 11, 109
1, 93965, Note_on_c, 9, 51, 0
1, 93965, Note_on_c, 9, 54, 0
1, 93965, Note_on_c, 1, 35, 0
1, 93967, Note_on_c, 1, 35, 68
1, 93967, Note_on_c, 3, 78, 105
1, 93967, Note_on_c, 9, 54, 1
1, 93967, Note_on_c, 11, 59, 58
1, 93967, Lyric_t, "and "
1, 93971, Note_on_c, 9, 36, 0
1, 93973, Note_on_c, 6, 75, 0
1, 93990, Note_on_c, 6, 87, 0
1, 93994, Note_on_c, 3, 76, 0
1, 93998, Control_c, 4, 11, 108
1, 93998, Control_c, 15, 11, 108
1, 94003, Note_on_c, 7, 66, 0
1, 94006, Note_on_c, 7, 54, 0
1, 94010, Note_on_c, 7, 59, 0
1, 94018, Note_on_c, 6, 54, 0
1, 94029, Note_on_c, 6, 78, 0
1, 94032, Note_on_c, 7, 47, 0
1, 94035, Note_on_c, 7, 71, 0
1, 94035, Note_on_c, 4, 75, 0
1, 94036, Control_c, 4, 11, 107
1, 94036, Control_c, 15, 11, 107
1, 94055, Note_on_c, 4, 66, 0
1, 94055, Note_on_c, 15, 66, 0
1, 94058, Note_on_c, 0, 59, 0
1, 94059, Note_on_c, 4, 71, 0
1, 94059, Note_on_c, 11, 59, 0
1, 94059, Note_on_c, 15, 71, 0
1, 94067, Note_on_c, 11, 66, 0
1, 94069, Note_on_c, 6, 66, 0
1, 94072, Note_on_c, 8, 59, 0
1, 94079, Note_on_c, 11, 63, 0
1, 94083, Note_on_c, 15, 78, 0
1, 94083, Note_on_c, 15, 75, 0
1, 94083, Note_on_c, 4, 78, 0
1, 94085, Note_on_c, 5, 63, 0
1, 94085, Note_on_c, 1, 35, 0
1, 94085, Note_on_c, 9, 54, 0
1, 94085, Note_on_c, 5, 66, 0
1, 94085, Note_on_c, 5, 59, 0
1, 94087, Note_on_c, 0, 66, 45
1, 94087, Note_on_c, 0, 50, 41
1, 94087, Note_on_c, 1, 38, 111
1, 94087, Note_on_c, 3, 80, 108
1, 94087, Note_on_c, 5, 66, 72
1, 94087, Note_on_c, 5, 57, 58
1, 94087, Note_on_c, 5, 50, 76
1, 94087, Note_on_c, 6, 62, 50
1, 94087, Note_on_c, 6, 50, 70
1, 94087, Note_on_c, 7, 64, 84
1, 94087, Note_on_c, 7, 62, 84
1, 94087, Note_on_c, 7, 57, 80
1, 94087, Note_on_c, 7, 38, 102
1, 94087, Note_on_c, 8, 50, 68
1, 94087, Note_on_c, 9, 36, 101
1, 94087, Note_on_c, 9, 49, 74
1, 94087, Note_on_c, 10, 74, 74
1, 94087, Note_on_c, 11, 64, 87
1, 94087, Note_on_c, 11, 59, 82
1, 94087, Note_on_c, 11, 57, 82
1, 94087, Note_on_c, 11, 54, 78
1, 94087, Note_on_c, 13, 57, 66
1, 94087, Note_on_c, 13, 50, 74
1, 94087, Lyric_t, "free "
1, 94091, Note_on_c, 10, 73, 0
1, 94092, Note_on_c, 0, 66, 0
1, 94099, Control_c, 5, 11, 123
1, 94102, Note_on_c, 13, 47, 0
1, 94106, Note_on_c, 13, 54, 0
1, 94115, Control_c, 5, 11, 122
1, 94123, Control_c, 5, 11, 121
1, 94125, Note_on_c, 3, 78, 0
1, 94125, Control_c, 4, 11, 127
1, 94125, Control_c, 15, 11, 127
1, 94129, Note_on_c, 10, 78, 0
1, 94139, Control_c, 5, 11, 120
1, 94147, Control_c, 5, 11, 119
1, 94163, Control_c, 5, 11, 118
1, 94171, Control_c, 5, 11, 117
1, 94187, Control_c, 5, 11, 116
1, 94195, Control_c, 5, 11, 115
1, 94203, Control_c, 5, 11, 114
1, 94205, Note_on_c, 9, 36, 0
1, 94205, Note_on_c, 9, 49, 0
1, 94219, Control_c, 5, 11, 113
1, 94227, Control_c, 5, 11, 112
1, 94242, Control_c, 7, 64, 127
1, 94243, Control_c, 5, 11, 111
1, 94243, Control_c, 8, 11, 125
1, 94251, Control_c, 5, 11, 110
1, 94263, Control_c, 8, 11, 124
1, 94267, Control_c, 5, 11, 109
1, 94275, Control_c, 5, 11, 108
1, 94283, Control_c, 8, 11, 123
1, 94291, Control_c, 5, 11, 107
1, 94299, Control_c, 5, 11, 106
1, 94299, Control_c, 8, 11, 122
1, 94307, Control_c, 5, 11, 105
1, 94319, Control_c, 8, 11, 121
1, 94323, Control_c, 5, 11, 104
1, 94327, Note_on_c, 3, 78, 105
1, 94327, Control_c, 10, 11, 126
1, 94327, Lyric_t, "me "
1, 94327, Lyric_t, "\015"
1, 94331, Control_c, 5, 11, 103
1, 94335, Control_c, 8, 11, 120
1, 94342, Control_c, 10, 11, 125
1, 94347, Control_c, 5, 11, 102
1, 94355, Control_c, 5, 11, 101
1, 94355, Control_c, 6, 11, 126
1, 94355, Control_c, 8, 11, 119
1, 94357, Control_c, 10, 11, 124
1, 94362, Note_on_c, 3, 80, 0
1, 94370, Control_c, 8, 11, 118
1, 94371, Control_c, 5, 11, 100
1, 94371, Control_c, 6, 11, 125
1, 94373, Control_c, 10, 11, 123
1, 94379, Control_c, 5, 11, 99
1, 94379, Control_c, 6, 11, 124
1, 94387, Control_c, 6, 11, 123
1, 94388, Control_c, 10, 11, 122
1, 94391, Control_c, 8, 11, 117
1, 94395, Control_c, 5, 11, 98
1, 94398, Control_c, 10, 11, 121
1, 94403, Control_c, 5, 11, 97
1, 94403, Control_c, 6, 11, 122
1, 94406, Control_c, 8, 11, 116
1, 94411, Control_c, 5, 11, 96
1, 94411, Control_c, 6, 11, 121
1, 94413, Control_c, 10, 11, 120
1, 94419, Control_c, 6, 11, 120
1, 94426, Control_c, 8, 11, 115
1, 94427, Control_c, 5, 11, 95
1, 94429, Control_c, 10, 11, 119
1, 94435, Control_c, 5, 11, 94
1, 94435, Control_c, 6, 11, 119
1, 94442, Control_c, 8, 11, 114
1, 94443, Control_c, 6, 11, 118
1, 94444, Control_c, 10, 11, 118
1, 94451, Control_c, 0, 11, 127
1, 94451, Control_c, 5, 11, 93
1, 94451, Control_c, 6, 11, 117
1, 94459, Control_c, 5, 11, 92
1, 94459, Control_c, 10, 11, 117
1, 94462, Control_c, 8, 11, 113
1, 94467, Control_c, 0, 11, 126
1, 94467, Control_c, 6, 11, 116
1, 94470, Control_c, 10, 11, 116
1, 94475, Control_c, 0, 11, 125
1, 94475, Control_c, 5, 11, 91
1, 94475, Control_c, 6, 11, 115
1, 94477, Control_c, 8, 11, 112
1, 94483, Control_c, 0, 11, 124
1, 94483, Control_c, 5, 11, 90
1, 94483, Control_c, 6, 11, 114
1, 94485, Control_c, 10, 11, 115
1, 94498, Control_c, 8, 11, 111
1, 94499, Control_c, 0, 11, 123
1, 94499, Control_c, 5, 11, 89
1, 94499, Control_c, 6, 11, 113
1, 94500, Control_c, 10, 11, 114
1, 94503, Note_on_c, 11, 54, 0
1, 94507, Control_c, 0, 11, 122
1, 94507, Control_c, 5, 11, 88
1, 94507, Control_c, 6, 11, 112
1, 94507, Control_c, 13, 11, 125
1, 94513, Note_on_c, 11, 64, 0
1, 94515, Control_c, 0, 11, 121
1, 94515, Control_c, 5, 11, 87
1, 94515, Control_c, 6, 11, 111
1, 94516, Control_c, 10, 11, 113
1, 94518, Control_c, 8, 11, 110
1, 94523, Control_c, 0, 11, 120
1, 94526, Control_c, 10, 11, 112
1, 94531, Control_c, 5, 11, 86
1, 94531, Control_c, 6, 11, 110
1, 94531, Control_c, 13, 11, 124
1, 94534, Note_on_c, 11, 57, 0
1, 94534, Control_c, 8, 11, 109
1, 94539, Control_c, 0, 11, 119
1, 94539, Control_c, 5, 11, 85
1, 94539, Control_c, 6, 11, 109
1, 94541, Control_c, 10, 11, 111
1, 94547, Control_c, 0, 11, 118
1, 94547, Control_c, 6, 11, 108
1, 94547, Control_c, 13, 11, 123
1, 94553, Note_on_c, 11, 59, 0
1, 94554, Control_c, 8, 11, 108
1, 94555, Control_c, 0, 11, 117
1, 94555, Control_c, 5, 11, 84
1, 94556, Control_c, 10, 11, 110
1, 94563, Control_c, 0, 11, 116
1, 94563, Control_c, 5, 11, 83
1, 94563, Control_c, 6, 11, 107
1, 94563, Control_c, 13, 11, 122
1, 94567, Note_on_c, 7, 50, 44
1, 94567, Note_on_c, 9, 59, 60
1, 94567, Note_on_c, 11, 64, 84
1, 94567, Note_on_c, 11, 57, 84
1, 94567, Note_on_c, 11, 54, 90
1, 94569, Control_c, 8, 11, 107
1, 94571, Control_c, 6, 11, 106
1, 94572, Control_c, 10, 11, 109
1, 94579, Control_c, 0, 11, 115
1, 94579, Control_c, 5, 11, 82
1, 94579, Control_c, 6, 11, 105
1, 94587, Control_c, 0, 11, 114
1, 94587, Control_c, 5, 11, 81
1, 94587, Control_c, 10, 11, 108
1, 94587, Control_c, 13, 11, 121
1, 94590, Control_c, 8, 11, 106
1, 94595, Control_c, 0, 11, 113
1, 94595, Control_c, 6, 11, 104
1, 94597, Control_c, 10, 11, 107
1, 94603, Control_c, 0, 11, 112
1, 94603, Control_c, 5, 11, 80
1, 94603, Control_c, 6, 11, 103
1, 94603, Control_c, 13, 11, 120
1, 94605, Control_c, 8, 11, 105
1, 94611, Control_c, 5, 11, 79
1, 94611, Control_c, 6, 11, 102
1, 94613, Control_c, 10, 11, 106
1, 94619, Control_c, 0, 11, 111
1, 94619, Control_c, 5, 11, 78
1, 94619, Control_c, 13, 11, 119
1, 94626, Control_c, 8, 11, 104
1, 94627, Control_c, 0, 11, 110
1, 94627, Control_c, 6, 11, 101
1, 94628, Control_c, 10, 11, 105
1, 94635, Control_c, 0, 11, 109
1, 94635, Control_c, 5, 11, 77
1, 94635, Control_c, 6, 11, 100
1, 94641, Control_c, 8, 11, 103
1, 94643, Control_c, 0, 11, 108
1, 94643, Control_c, 5, 11, 76
1, 94643, Control_c, 6, 11, 99
1, 94643, Control_c, 10, 11, 104
1, 94643, Control_c, 13, 11, 118
1, 94651, Control_c, 6, 11, 98
1, 94659, Control_c, 0, 11, 107
1, 94659, Control_c, 5, 11, 75
1, 94659, Control_c, 10, 11, 103
1, 94659, Control_c, 13, 11, 117
1, 94661, Control_c, 8, 11, 102
1, 94667, Control_c, 0, 11, 106
1, 94667, Control_c, 5, 11, 74
1, 94667, Control_c, 6, 11, 97
1, 94669, Control_c, 10, 11, 102
1, 94675, Control_c, 0, 11, 105
1, 94675, Control_c, 6, 11, 96
1, 94675, Control_c, 13, 11, 116
1, 94677, Control_c, 8, 11, 101
1, 94683, Control_c, 0, 11, 104
1, 94683, Control_c, 5, 11, 73
1, 94683, Control_c, 6, 11, 95
1, 94684, Control_c, 10, 11, 101
1, 94685, Note_on_c, 9, 59, 0
1, 94687, Note_on_c, 12, 76, 82
1, 94691, Control_c, 5, 11, 72
1, 94697, Control_c, 8, 11, 100
1, 94699, Control_c, 0, 11, 103
1, 94699, Control_c, 6, 11, 94
1, 94699, Control_c, 10, 11, 100
1, 94699, Control_c, 13, 11, 115
1, 94707, Control_c, 0, 11, 102
1, 94707, Control_c, 5, 11, 71
1, 94707, Control_c, 6, 11, 93
1, 94712, Control_c, 8, 11, 99
1, 94715, Control_c, 0, 11, 101
1, 94715, Control_c, 5, 11, 70
1, 94715, Control_c, 6, 11, 92
1, 94715, Control_c, 10, 11, 99
1, 94715, Control_c, 13, 11, 114
1, 94723, Control_c, 0, 11, 100
1, 94723, Control_c, 5, 11, 69
1, 94725, Control_c, 10, 11, 98
1, 94731, Control_c, 6, 11, 91
1, 94731, Control_c, 13, 11, 113
1, 94733, Control_c, 8, 11, 98
1, 94739, Control_c, 0, 11, 99
1, 94739, Control_c, 5, 11, 68
1, 94739, Control_c, 6, 11, 90
1, 94740, Control_c, 10, 11, 97
1, 94747, Control_c, 0, 11, 98
1, 94747, Control_c, 5, 11, 67
1, 94747, Control_c, 6, 11, 89
1, 94748, Control_c, 8, 11, 97
1, 94755, Control_c, 0, 11, 97
1, 94755, Control_c, 13, 11, 112
1, 94756, Control_c, 10, 11, 96
1, 94763, Control_c, 0, 11, 96
1, 94763, Control_c, 5, 11, 66
1, 94763, Control_c, 6, 11, 88
1, 94769, Control_c, 8, 11, 96
1, 94771, Control_c, 5, 11, 65
1, 94771, Control_c, 6, 11, 87
1, 94771, Control_c, 10, 11, 95
1, 94771, Control_c, 13, 11, 111
1, 94779, Control_c, 0, 11, 95
1, 94779, Control_c, 6, 11, 86
1, 94786, Control_c, 10, 11, 94
1, 94787, Control_c, 0, 11, 94
1, 94787, Control_c, 5, 11, 64
1, 94787, Control_c, 13, 11, 110
1, 94789, Control_c, 8, 11, 95
1, 94795, Control_c, 0, 11, 93
1, 94795, Control_c, 5, 11, 63
1, 94795, Control_c, 6, 11, 85
1, 94796, Control_c, 10, 11, 93
1, 94803, Control_c, 0, 11, 92
1, 94803, Control_c, 6, 11, 84
1, 94804, Control_c, 8, 11, 94
1, 94807, Note_on_c, 12, 69, 62
1, 94811, Control_c, 5, 11, 62
1, 94811, Control_c, 6, 11, 83
1, 94811, Control_c, 13, 11, 109
1, 94812, Control_c, 10, 11, 92
1, 94819, Control_c, 0, 11, 91
1, 94819, Control_c, 5, 11, 61
1, 94825, Control_c, 8, 11, 93
1, 94827, Control_c, 0, 11, 90
1, 94827, Control_c, 5, 11, 60
1, 94827, Control_c, 6, 11, 82
1, 94827, Control_c, 10, 11, 91
1, 94827, Control_c, 13, 11, 108
1, 94832, Note_on_c, 12, 76, 0
1, 94835, Control_c, 0, 11, 89
1, 94835, Control_c, 6, 11, 81
1, 94840, Control_c, 8, 11, 92
1, 94842, Control_c, 10, 11, 90
1, 94843, Control_c, 0, 11, 88
1, 94843, Control_c, 5, 11, 59
1, 94843, Control_c, 6, 11, 80
1, 94843, Control_c, 13, 11, 107
1, 94851, Control_c, 5, 11, 58
1, 94858, Control_c, 10, 11, 89
1, 94859, Control_c, 0, 11, 87
1, 94859, Control_c, 6, 11, 79
1, 94860, Control_c, 8, 11, 91
1, 94867, Control_c, 0, 11, 86
1, 94867, Control_c, 5, 11, 57
1, 94867, Control_c, 6, 11, 78
1, 94867, Control_c, 13, 11, 106
1, 94868, Control_c, 10, 11, 88
1, 94871, Note_on_c, 11, 64, 0
1, 94875, Control_c, 0, 11, 85
1, 94875, Control_c, 5, 11, 56
1, 94875, Control_c, 6, 11, 77
1, 94876, Control_c, 8, 11, 90
1, 94877, Note_on_c, 11, 57, 0
1, 94882, Note_on_c, 11, 54, 0
1, 94883, Control_c, 0, 11, 84
1, 94883, Control_c, 10, 11, 87
1, 94883, Control_c, 13, 11, 105
1, 94891, Control_c, 5, 11, 55
1, 94891, Control_c, 6, 11, 76
1, 94896, Control_c, 8, 11, 89
1, 94899, Control_c, 0, 11, 83
1, 94899, Control_c, 5, 11, 54
1, 94899, Control_c, 6, 11, 75
1, 94899, Control_c, 10, 11, 86
1, 94899, Control_c, 13, 11, 104
1, 94907, Control_c, 0, 11, 82
1, 94907, Control_c, 6, 11, 74
1, 94912, Control_c, 8, 11, 88
1, 94914, Control_c, 10, 11, 85
1, 94915, Control_c, 0, 11, 81
1, 94915, Control_c, 5, 11, 53
1, 94923, Control_c, 0, 11, 80
1, 94923, Control_c, 5, 11, 52
1, 94923, Control_c, 6, 11, 73
1, 94923, Control_c, 13, 11, 103
1, 94924, Control_c, 10, 11, 84
1, 94927, Note_on_c, 11, 57, 62
1, 94927, Note_on_c, 11, 54, 49
1, 94927, Note_on_c, 12, 76, 78
1, 94931, Control_c, 5, 11, 51
1, 94931, Control_c, 6, 11, 72
1, 94932, Note_on_c, 7, 64, 0
1, 94932, Control_c, 8, 11, 87
1, 94939, Note_on_c, 12, 69, 0
1, 94939, Control_c, 0, 11, 79
1, 94939, Control_c, 6, 11, 71
1, 94939, Control_c, 10, 11, 83
1, 94939, Control_c, 13, 11, 102
1, 94943, Note_on_c, 7, 62, 0
1, 94947, Control_c, 0, 11, 78
1, 94947, Control_c, 5, 11, 50
1, 94947, Control_c, 6, 11, 70
1, 94947, Control_c, 8, 11, 86
1, 94952, Note_on_c, 7, 57, 0
1, 94955, Control_c, 0, 11, 77
1, 94955, Control_c, 5, 11, 49
1, 94955, Control_c, 10, 11, 82
1, 94955, Control_c, 13, 11, 101
1, 94963, Control_c, 0, 11, 76
1, 94963, Control_c, 6, 11, 69
1, 94968, Control_c, 8, 11, 85
1, 94970, Control_c, 10, 11, 81
1, 94971, Control_c, 5, 11, 48
1, 94971, Control_c, 6, 11, 68
1, 94979, Control_c, 0, 11, 75
1, 94979, Control_c, 5, 11, 47
1, 94979, Control_c, 6, 11, 67
1, 94979, Control_c, 13, 11, 100
1, 94983, Control_c, 8, 11, 84
1, 94985, Control_c, 10, 11, 80
1, 94987, Control_c, 0, 11, 74
1, 94988, Note_on_c, 11, 54, 0
1, 94995, Control_c, 0, 11, 73
1, 94995, Control_c, 5, 11, 46
1, 94995, Control_c, 6, 11, 66
1, 94995, Control_c, 13, 11, 99
1, 94996, Control_c, 10, 11, 79
1, 95003, Control_c, 0, 11, 72
1, 95003, Control_c, 5, 11, 45
1, 95003, Control_c, 6, 11, 65
1, 95003, Control_c, 8, 11, 83
1, 95011, Control_c, 6, 11, 64
1, 95011, Control_c, 10, 11, 78
1, 95011, Control_c, 13, 11, 98
1, 95012, Note_on_c, 11, 57, 0
1, 95019, Control_c, 0, 11, 71
1, 95019, Control_c, 5, 11, 44
1, 95019, Control_c, 8, 11, 82
1, 95026, Control_c, 10, 11, 77
1, 95027, Control_c, 0, 11, 70
1, 95027, Control_c, 5, 11, 43
1, 95027, Control_c, 6, 11, 63
1, 95035, Control_c, 0, 11, 69
1, 95035, Control_c, 5, 11, 42
1, 95035, Control_c, 6, 11, 62
1, 95035, Control_c, 13, 11, 97
1, 95039, Control_c, 8, 11, 81
1, 95042, Control_c, 10, 11, 76
1, 95043, Control_c, 0, 11, 68
1, 95043, Control_c, 6, 11, 61
1, 95047, Note_on_c, 7, 64, 28
1, 95047, Note_on_c, 7, 62, 25
1, 95047, Note_on_c, 9, 59, 60
1, 95047, Note_on_c, 11, 57, 70
1, 95047, Note_on_c, 11, 64, 93
1, 95047, Note_on_c, 11, 54, 80
1, 95047, Note_on_c, 12, 69, 78
1, 95049, Note_on_c, 12, 76, 0
1, 95051, Control_c, 5, 11, 41
1, 95051, Control_c, 13, 11, 96
1, 95057, Control_c, 10, 11, 75
1, 95059, Control_c, 0, 11, 67
1, 95059, Control_c, 5, 11, 40
1, 95059, Control_c, 6, 11, 60
1, 95060, Control_c, 8, 11, 80
1, 95067, Control_c, 0, 11, 66
1, 95067, Control_c, 6, 11, 59
1, 95067, Control_c, 10, 11, 74
1, 95067, Control_c, 13, 11, 95
1, 95075, Control_c, 0, 11, 65
1, 95075, Control_c, 5, 11, 39
1, 95075, Control_c, 6, 11, 58
1, 95075, Control_c, 8, 11, 79
1, 95082, Control_c, 10, 11, 73
1, 95083, Control_c, 5, 11, 38
1, 95091, Control_c, 0, 11, 64
1, 95091, Control_c, 6, 11, 57
1, 95091, Control_c, 13, 11, 94
1, 95095, Control_c, 8, 11, 78
1, 95098, Control_c, 10, 11, 72
1, 95099, Control_c, 0, 11, 63
1, 95099, Control_c, 5, 11, 37
1, 95099, Control_c, 6, 11, 56
1, 95107, Control_c, 0, 11, 62
1, 95107, Control_c, 5, 11, 36
1, 95107, Control_c, 6, 11, 55
1, 95107, Control_c, 13, 11, 93
1, 95111, Control_c, 8, 11, 77
1, 95113, Control_c, 10, 11, 71
1, 95115, Control_c, 0, 11, 61
1, 95123, Control_c, 5, 11, 35
1, 95123, Control_c, 6, 11, 54
1, 95123, Control_c, 10, 11, 70
1, 95123, Control_c, 13, 11, 92
1, 95131, Control_c, 0, 11, 60
1, 95131, Control_c, 5, 11, 34
1, 95131, Control_c, 6, 11, 53
1, 95131, Control_c, 8, 11, 76
1, 95139, Control_c, 0, 11, 59
1, 95139, Control_c, 5, 11, 33
1, 95139, Control_c, 6, 11, 52
1, 95139, Control_c, 10, 11, 69
1, 95146, Control_c, 8, 11, 75
1, 95147, Control_c, 0, 11, 58
1, 95147, Control_c, 13, 11, 91
1, 95154, Control_c, 10, 11, 68
1, 95155, Control_c, 0, 11, 57
1, 95155, Control_c, 5, 11, 32
1, 95155, Control_c, 6, 11, 51
1, 95163, Control_c, 5, 11, 31
1, 95163, Control_c, 6, 11, 50
1, 95163, Control_c, 13, 11, 90
1, 95165, Note_on_c, 9, 59, 0
1, 95167, Control_c, 8, 11, 74
1, 95169, Control_c, 10, 11, 67
1, 95171, Control_c, 0, 11, 56
1, 95171, Control_c, 6, 11, 49
1, 95179, Control_c, 0, 11, 55
1, 95179, Control_c, 5, 11, 30
1, 95179, Control_c, 13, 11, 89
1, 95182, Control_c, 8, 11, 73
1, 95185, Control_c, 10, 11, 66
1, 95187, Control_c, 0, 11, 54
1, 95187, Control_c, 5, 11, 29
1, 95187, Control_c, 6, 11, 48
1, 95195, Control_c, 0, 11, 53
1, 95195, Control_c, 6, 11, 47
1, 95195, Control_c, 10, 11, 65
1, 95203, Control_c, 5, 11, 28
1, 95203, Control_c, 6, 11, 46
1, 95203, Control_c, 8, 11, 72
1, 95203, Control_c, 13, 11, 88
1, 95210, Control_c, 10, 11, 64
1, 95211, Control_c, 0, 11, 52
1, 95211, Control_c, 5, 11, 27
1, 95214, Note_on_c, 6, 50, 0
1, 95218, Control_c, 8, 11, 71
1, 95219, Control_c, 0, 11, 51
1, 95219, Control_c, 6, 11, 45
1, 95219, Control_c, 13, 11, 87
1, 95225, Control_c, 10, 11, 63
1, 95227, Control_c, 0, 11, 50
1, 95227, Control_c, 5, 11, 26
1, 95227, Control_c, 6, 11, 44
1, 95235, Control_c, 0, 11, 49
1, 95235, Control_c, 5, 11, 25
1, 95235, Control_c, 6, 11, 43
1, 95235, Control_c, 13, 11, 86
1, 95238, Control_c, 8, 11, 70
1, 95241, Control_c, 10, 11, 62
1, 95243, Control_c, 5, 11, 24
1, 95243, Control_c, 6, 11, 42
1, 95251, Control_c, 0, 11, 48
1, 95254, Control_c, 8, 11, 69
1, 95256, Control_c, 10, 11, 61
1, 95259, Control_c, 0, 11, 47
1, 95259, Control_c, 5, 11, 23
1, 95259, Control_c, 6, 11, 41
1, 95259, Control_c, 13, 11, 85
1, 95266, Control_c, 10, 11, 60
1, 95267, Control_c, 0, 11, 46
1, 95267, Control_c, 5, 11, 22
1, 95267, Control_c, 6, 11, 40
1, 95274, Control_c, 8, 11, 68
1, 95275, Note_on_c, 6, 62, 0
1, 95275, Control_c, 0, 11, 45
1, 95275, Control_c, 6, 11, 39
1, 95275, Control_c, 13, 11, 84
1, 95282, Control_c, 10, 11, 59
1, 95283, Control_c, 5, 11, 21
1, 95287, Note_on_c, 12, 62, 45
1, 95289, Control_c, 8, 11, 67
1, 95291, Control_c, 0, 11, 44
1, 95291, Control_c, 5, 11, 20
1, 95291, Control_c, 6, 11, 38
1, 95291, Control_c, 13, 11, 83
1, 95297, Control_c, 10, 11, 58
1, 95299, Control_c, 0, 11, 43
1, 95299, Control_c, 6, 11, 37
1, 95300, Note_on_c, 12, 69, 0
1, 95307, Control_c, 0, 11, 42
1, 95307, Control_c, 5, 11, 19
1, 95307, Control_c, 6, 11, 36
1, 95310, Control_c, 8, 11, 66
1, 95312, Control_c, 10, 11, 57
1, 95315, Control_c, 0, 11, 41
1, 95315, Control_c, 5, 11, 18
1, 95315, Control_c, 13, 11, 82
1, 95322, Control_c, 10, 11, 56
1, 95323, Control_c, 6, 11, 35
1, 95330, Control_c, 8, 11, 65
1, 95331, Control_c, 0, 11, 40
1, 95331, Control_c, 5, 11, 17
1, 95331, Control_c, 6, 11, 34
1, 95331, Control_c, 13, 11, 81
1, 95335, Note_on_c, 3, 78, 0
1, 95338, Control_c, 10, 11, 55
1, 95339, Control_c, 0, 11, 39
1, 95339, Control_c, 5, 11, 16
1, 95339, Control_c, 6, 11, 33
1, 95346, Control_c, 8, 11, 64
1, 95347, Control_c, 0, 11, 38
1, 95347, Control_c, 5, 11, 15
1, 95347, Control_c, 13, 11, 80
1, 95353, Control_c, 10, 11, 54
1, 95355, Control_c, 0, 11, 37
1, 95355, Control_c, 6, 11, 32
1, 95363, Control_c, 5, 11, 14
1, 95363, Control_c, 6, 11, 31
1, 95366, Control_c, 8, 11, 63
1, 95368, Control_c, 10, 11, 53
1, 95371, Control_c, 0, 11, 36
1, 95371, Control_c, 5, 11, 13
1, 95371, Control_c, 6, 11, 30
1, 95371, Control_c, 13, 11, 79
1, 95379, Note_on_c, 0, 66, 0
1, 95379, Control_c, 0, 11, 35
1, 95381, Control_c, 8, 11, 62
1, 95384, Control_c, 10, 11, 52
1, 95387, Control_c, 0, 11, 34
1, 95387, Control_c, 5, 11, 12
1, 95387, Control_c, 6, 11, 29
1, 95387, Control_c, 13, 11, 78
1, 95391, Note_on_c, 12, 62, 0
1, 95394, Control_c, 10, 11, 51
1, 95395, Control_c, 0, 11, 33
1, 95395, Control_c, 5, 11, 11
1, 95395, Control_c, 6, 11, 28
1, 95401, Note_on_c, 14, 64, 72
1, 95402, Control_c, 8, 11, 61
1, 95403, Control_c, 6, 11, 27
1, 95403, Control_c, 13, 11, 77
1, 95407, Note_on_c, 12, 52, 72
1, 95409, Control_c, 10, 11, 50
1, 95411, Control_c, 0, 11, 32
1, 95411, Control_c, 5, 11, 10
1, 95417, Control_c, 8, 11, 60
1, 95419, Control_c, 0, 11, 31
1, 95419, Control_c, 5, 11, 9
1, 95419, Control_c, 6, 11, 26
1, 95425, Control_c, 10, 11, 49
1, 95427, Control_c, 0, 11, 30
1, 95427, Control_c, 5, 11, 8
1, 95427, Control_c, 6, 11, 25
1, 95427, Control_c, 13, 11, 76
1, 95435, Control_c, 0, 11, 29
1, 95435, Control_c, 6, 11, 24
1, 95437, Control_c, 8, 11, 59
1, 95440, Control_c, 10, 11, 48
1, 95443, Control_c, 13, 11, 75
1, 95451, Control_c, 0, 11, 28
1, 95451, Control_c, 6, 11, 23
1, 95453, Control_c, 8, 11, 58
1, 95455, Control_c, 10, 11, 47
1, 95459, Control_c, 0, 11, 27
1, 95459, Control_c, 6, 11, 22
1, 95459, Control_c, 13, 11, 74
1, 95465, Control_c, 10, 11, 46
1, 95467, Control_c, 0, 11, 26
1, 95467, Control_c, 6, 11, 21
1, 95473, Control_c, 8, 11, 57
1, 95475, Control_c, 0, 11, 25
1, 95481, Control_c, 10, 11, 45
1, 95483, Control_c, 6, 11, 20
1, 95483, Control_c, 13, 11, 73
1, 95489, Control_c, 8, 11, 56
1, 95491, Control_c, 0, 11, 24
1, 95491, Control_c, 6, 11, 19
1, 95496, Control_c, 10, 11, 44
1, 95499, Control_c, 0, 11, 23
1, 95499, Control_c, 6, 11, 18
1, 95499, Control_c, 13, 11, 72
1, 95505, Note_on_c, 14, 64, 0
1, 95507, Control_c, 0, 11, 22
1, 95507, Control_c, 6, 11, 17
1, 95509, Control_c, 8, 11, 55
1, 95510, Note_on_c, 12, 52, 0
1, 95511, Control_c, 10, 11, 43
1, 95515, Control_c, 0, 11, 21
1, 95515, Control_c, 13, 11, 71
1, 95516, Note_on_c, 14, 62, 74
1, 95522, Control_c, 10, 11, 42
1, 95524, Control_c, 8, 11, 54
1, 95525, Note_on_c, 5, 66, 0
1, 95525, Note_on_c, 5, 57, 0
1, 95525, Note_on_c, 5, 50, 0
1, 95527, Note_on_c, 7, 57, 64
1, 95527, Note_on_c, 9, 59, 60
1, 95527, Note_on_c, 12, 50, 74
1, 95531, Control_c, 0, 11, 20
1, 95537, Control_c, 10, 11, 41
1, 95539, Control_c, 0, 11, 19
1, 95539, Control_c, 13, 11, 70
1, 95545, Control_c, 8, 11, 53
1, 95547, Control_c, 0, 11, 18
1, 95552, Control_c, 10, 11, 40
1, 95555, Control_c, 0, 11, 17
1, 95555, Control_c, 13, 11, 69
1, 95560, Control_c, 8, 11, 52
1, 95563, Note_on_c, 0, 50, 0
1, 95567, Control_c, 10, 11, 39
1, 95571, Control_c, 0, 11, 16
1, 95571, Control_c, 13, 11, 68
1, 95579, Control_c, 0, 11, 15
1, 95580, Control_c, 8, 11, 51
1, 95583, Control_c, 10, 11, 38
1, 95587, Control_c, 0, 11, 14
1, 95592, Note_on_c, 7, 38, 0
1, 95593, Control_c, 10, 11, 37
1, 95595, Control_c, 0, 11, 13
1, 95595, Control_c, 13, 11, 67
1, 95601, Control_c, 8, 11, 50
1, 95608, Control_c, 10, 11, 36
1, 95611, Control_c, 0, 11, 12
1, 95611, Control_c, 13, 11, 66
1, 95616, Control_c, 8, 11, 49
1, 95619, Control_c, 0, 11, 11
1, 95624, Control_c, 10, 11, 35
1, 95627, Control_c, 0, 11, 10
1, 95627, Control_c, 13, 11, 65
1, 95628, Note_on_c, 14, 61, 66
1, 95633, Note_on_c, 14, 62, 0
1, 95635, Control_c, 0, 11, 9
1, 95637, Control_c, 8, 11, 48
1, 95639, Control_c, 10, 11, 34
1, 95643, Note_on_c, 12, 50, 0
1, 95645, Note_on_c, 9, 59, 0
1, 95645, Note_on_c, 7, 50, 0
1, 95647, Note_on_c, 12, 49, 66
1, 95651, Control_c, 0, 11, 8
1, 95651, Control_c, 13, 11, 64
1, 95652, Control_c, 8, 11, 47
1, 95654, Control_c, 10, 11, 33
1, 95659, Control_c, 0, 11, 7
1, 95665, Control_c, 10, 11, 32
1, 95667, Control_c, 0, 11, 6
1, 95667, Control_c, 13, 11, 63
1, 95669, Note_on_c, 7, 62, 0
1, 95672, Control_c, 8, 11, 46
1, 95675, Control_c, 0, 11, 5
1, 95677, Note_on_c, 7, 64, 0
1, 95680, Control_c, 10, 11, 31
1, 95683, Control_c, 13, 11, 62
1, 95688, Control_c, 8, 11, 45
1, 95695, Control_c, 10, 11, 30
1, 95707, Control_c, 13, 11, 61
1, 95708, Control_c, 8, 11, 44
1, 95710, Control_c, 10, 11, 29
1, 95721, Control_c, 10, 11, 28
1, 95723, Control_c, 8, 11, 43
1, 95723, Control_c, 13, 11, 60
1, 95739, Control_c, 13, 11, 59
1, 95742, Note_on_c, 14, 61, 0
1, 95744, Control_c, 8, 11, 42
1, 95747, Note_on_c, 14, 59, 74
1, 95753, Pitch_bend_c, 1, 8143
1, 95759, Control_c, 8, 11, 41
1, 95761, Note_on_c, 12, 49, 0
1, 95762, Pitch_bend_c, 1, 7872
1, 95763, Note_on_c, 8, 50, 0
1, 95763, Control_c, 13, 11, 58
1, 95767, Note_on_c, 3, 76, 108
1, 95767, Note_on_c, 12, 47, 74
1, 95767, Lyric_t, "it's "
1, 95773, Note_on_c, 9, 36, 51
1, 95779, Control_c, 13, 11, 57
1, 95780, Control_c, 8, 11, 40
1, 95781, Pitch_bend_c, 1, 7674
1, 95790, Pitch_bend_c, 1, 7403
1, 95795, Control_c, 8, 11, 39
1, 95795, Control_c, 13, 11, 56
1, 95799, Pitch_bend_c, 1, 7181
1, 95802, Note_on_c, 13, 57, 0
1, 95808, Pitch_bend_c, 1, 7008
1, 95809, Note_on_c, 10, 74, 0
1, 95815, Control_c, 8, 11, 38
1, 95818, Pitch_bend_c, 1, 6836
1, 95819, Control_c, 13, 11, 55
1, 95827, Pitch_bend_c, 1, 6688
1, 95831, Control_c, 8, 11, 37
1, 95835, Control_c, 13, 11, 54
1, 95846, Pitch_bend_c, 1, 6515
1, 95851, Control_c, 13, 11, 53
1, 95855, Pitch_bend_c, 1, 6416
1, 95856, Note_on_c, 7, 57, 0
1, 95864, Pitch_bend_c, 1, 6268
1, 95868, Note_on_c, 14, 59, 0
1, 95873, Note_on_c, 14, 58, 66
1, 95874, Pitch_bend_c, 1, 6120
1, 95875, Control_c, 13, 11, 52
1, 95883, Pitch_bend_c, 1, 5923
1, 95887, Note_on_c, 3, 78, 90
1, 95887, Note_on_c, 12, 46, 66
1, 95887, Lyric_t, "so "
1, 95888, Note_on_c, 12, 47, 0
1, 95891, Note_on_c, 9, 36, 0
1, 95891, Control_c, 13, 11, 51
1, 95892, Pitch_bend_c, 1, 5651
1, 95899, Note_on_c, 3, 76, 0
1, 95901, Pitch_bend_c, 1, 5331
1, 95907, Note_on_c, 13, 50, 0
1, 95907, Control_c, 13, 11, 50
1, 95909, Note_on_c, 11, 64, 0
1, 95911, Pitch_bend_c, 1, 5010
1, 95918, Note_on_c, 11, 54, 0
1, 95920, Pitch_bend_c, 1, 4516
1, 95929, Pitch_bend_c, 1, 4245
1, 95931, Control_c, 13, 11, 49
1, 95939, Control_c, 0, 11, 60
1, 95939, Pitch_bend_c, 1, 4023
1, 95944, Note_on_c, 11, 57, 0
1, 95947, Control_c, 0, 11, 58
1, 95947, Control_c, 13, 11, 48
1, 95948, Pitch_bend_c, 1, 3678
1, 95955, Control_c, 5, 11, 10
1, 95957, Pitch_bend_c, 1, 3085
1, 95963, Control_c, 13, 11, 47
1, 95967, Pitch_bend_c, 1, 2395
1, 95975, Pitch_bend_c, 1, 2543
1, 95979, Control_c, 13, 11, 46
1, 95985, Pitch_bend_c, 1, 8192
1, 95986, Note_on_c, 3, 78, 0
1, 95988, Control_c, 8, 11, 39
1, 95997, Note_on_c, 14, 58, 0
1, 96005, Note_on_c, 1, 38, 0
1, 96007, Note_on_c, 0, 61, 64
1, 96007, Note_on_c, 0, 66, 58
1, 96007, Note_on_c, 0, 56, 76
1, 96007, Note_on_c, 1, 32, 101
1, 96007, Note_on_c, 3, 80, 105
1, 96007, Note_on_c, 5, 61, 42
1, 96007, Note_on_c, 5, 44, 36
1, 96007, Note_on_c, 5, 56, 29
1, 96007, Note_on_c, 7, 63, 76
1, 96007, Note_on_c, 7, 66, 84
1, 96007, Note_on_c, 7, 61, 80
1, 96007, Note_on_c, 7, 44, 84
1, 96007, Note_on_c, 8, 44, 74
1, 96007, Note_on_c, 11, 56, 108
1, 96007, Note_on_c, 11, 63, 105
1, 96007, Note_on_c, 11, 61, 108
1, 96007, Note_on_c, 12, 44, 82
1, 96007, Note_on_c, 12, 56, 82
1, 96007, Note_on_c, 12, 61, 87
1, 96007, Note_on_c, 13, 44, 80
1, 96007, Note_on_c, 13, 51, 87
1, 96007, Note_on_c, 14, 44, 82
1, 96007, Note_on_c, 14, 56, 82
1, 96007, Note_on_c, 14, 61, 87
1, 96007, Lyric_t, "heav"
1, 96009, Control_c, 7, 64, 0
1, 96011, Note_on_c, 12, 46, 0
1, 96013, Control_c, 8, 11, 40
1, 96013, Note_on_c, 9, 36, 51
1, 96022, Control_c, 13, 11, 42
1, 96034, Control_c, 8, 11, 41
1, 96043, Control_c, 0, 11, 59
1, 96054, Control_c, 8, 11, 42
1, 96059, Control_c, 5, 11, 11
1, 96074, Control_c, 8, 11, 43
1, 96092, Control_c, 13, 11, 43
1, 96100, Control_c, 8, 11, 44
1, 96120, Control_c, 8, 11, 45
1, 96131, Note_on_c, 9, 36, 0
1, 96131, Control_c, 0, 11, 60
1, 96141, Control_c, 8, 11, 46
1, 96143, Control_c, 7, 64, 127
1, 96155, Control_c, 5, 11, 12
1, 96161, Control_c, 8, 11, 47
1, 96162, Control_c, 13, 11, 44
1, 96182, Control_c, 8, 11, 48
1, 96207, Control_c, 8, 11, 49
1, 96219, Control_c, 0, 11, 61
1, 96228, Control_c, 8, 11, 50
1, 96232, Control_c, 13, 11, 45
1, 96245, Note_on_c, 3, 80, 0
1, 96247, Note_on_c, 3, 78, 99
1, 96247, Note_on_c, 9, 59, 60
1, 96247, Lyric_t, "y "
1, 96248, Control_c, 8, 11, 51
1, 96259, Control_c, 5, 11, 13
1, 96268, Control_c, 8, 11, 52
1, 96289, Control_c, 8, 11, 53
1, 96302, Control_c, 13, 11, 46
1, 96307, Control_c, 0, 11, 62
1, 96314, Control_c, 8, 11, 54
1, 96320, Note_on_c, 3, 78, 0
1, 96335, Control_c, 8, 11, 55
1, 96355, Control_c, 5, 11, 14
1, 96355, Control_c, 8, 11, 56
1, 96365, Note_on_c, 9, 59, 0
1, 96367, Note_on_c, 3, 78, 111
1, 96367, Lyric_t, "on "
1, 96372, Control_c, 13, 11, 47
1, 96376, Control_c, 8, 11, 57
1, 96394, Note_on_c, 7, 66, 0
1, 96396, Control_c, 8, 11, 58
1, 96403, Control_c, 0, 11, 63
1, 96414, Note_on_c, 7, 61, 0
1, 96422, Control_c, 8, 11, 59
1, 96442, Control_c, 8, 11, 60
1, 96442, Control_c, 13, 11, 48
1, 96451, Note_on_c, 7, 63, 0
1, 96454, Note_on_c, 12, 56, 0
1, 96454, Note_on_c, 14, 56, 0
1, 96459, Control_c, 5, 11, 15
1, 96462, Control_c, 8, 11, 61
1, 96464, Note_on_c, 12, 61, 0
1, 96464, Note_on_c, 14, 61, 0
1, 96483, Control_c, 8, 11, 62
1, 96487, Note_on_c, 7, 63, 25
1, 96487, Note_on_c, 7, 66, 64
1, 96487, Note_on_c, 7, 61, 46
1, 96487, Note_on_c, 12, 61, 87
1, 96487, Note_on_c, 12, 56, 80
1, 96487, Note_on_c, 14, 61, 87
1, 96487, Note_on_c, 14, 56, 80
1, 96491, Control_c, 0, 11, 64
1, 96503, Control_c, 8, 11, 63
1, 96512, Control_c, 13, 11, 49
1, 96529, Control_c, 8, 11, 64
1, 96549, Control_c, 8, 11, 65
1, 96555, Control_c, 5, 11, 16
1, 96570, Control_c, 8, 11, 66
1, 96579, Control_c, 0, 11, 65
1, 96582, Control_c, 13, 11, 50
1, 96590, Control_c, 8, 11, 67
1, 96607, Note_on_c, 3, 76, 102
1, 96607, Lyric_t, "my "
1, 96611, Control_c, 8, 11, 68
1, 96622, Note_on_c, 3, 78, 0
1, 96636, Control_c, 8, 11, 69
1, 96652, Control_c, 13, 11, 51
1, 96656, Control_c, 8, 11, 70
1, 96659, Control_c, 5, 11, 17
1, 96667, Control_c, 0, 11, 66
1, 96677, Control_c, 8, 11, 71
1, 96697, Control_c, 8, 11, 72
1, 96702, Note_on_c, 3, 76, 0
1, 96718, Control_c, 8, 11, 73
1, 96721, Note_on_c, 7, 61, 0
1, 96722, Control_c, 13, 11, 52
1, 96727, Note_on_c, 9, 44, 56
1, 96741, Note_on_c, 7, 66, 0
1, 96743, Control_c, 8, 11, 74
1, 96755, Control_c, 5, 11, 18
1, 96762, Note_on_c, 7, 63, 0
1, 96763, Control_c, 0, 11, 67
1, 96764, Control_c, 8, 11, 75
1, 96772, Note_on_c, 7, 44, 0
1, 96783, Note_on_c, 11, 56, 0
1, 96784, Control_c, 8, 11, 76
1, 96792, Control_c, 13, 11, 53
1, 96805, Control_c, 8, 11, 77
1, 96825, Control_c, 8, 11, 78
1, 96845, Note_on_c, 9, 44, 0
1, 96847, Note_on_c, 11, 56, 44
1, 96851, Note_on_c, 11, 63, 0
1, 96851, Control_c, 0, 11, 68
1, 96851, Control_c, 8, 11, 79
1, 96855, Note_on_c, 11, 61, 0
1, 96859, Control_c, 5, 11, 19
1, 96862, Control_c, 13, 11, 54
1, 96871, Control_c, 8, 11, 80
1, 96891, Control_c, 8, 11, 81
1, 96912, Control_c, 8, 11, 82
1, 96930, Note_on_c, 12, 56, 0
1, 96930, Note_on_c, 13, 44, 0
1, 96930, Note_on_c, 14, 56, 0
1, 96930, Note_on_c, 5, 44, 0
1, 96932, Control_c, 8, 11, 83
1, 96932, Control_c, 13, 11, 55
1, 96939, Control_c, 0, 11, 69
1, 96952, Note_on_c, 11, 56, 0
1, 96952, Note_on_c, 1, 32, 0
1, 96955, Control_c, 5, 11, 20
1, 96958, Control_c, 8, 11, 84
1, 96959, Note_on_c, 9, 38, 93
1, 96960, Note_on_c, 0, 61, 0
1, 96961, Note_on_c, 14, 61, 0
1, 96961, Note_on_c, 12, 61, 0
1, 96967, Note_on_c, 0, 60, 74
1, 96967, Note_on_c, 1, 32, 93
1, 96967, Note_on_c, 5, 60, 70
1, 96967, Note_on_c, 5, 44, 84
1, 96967, Note_on_c, 7, 60, 78
1, 96967, Note_on_c, 7, 56, 80
1, 96967, Note_on_c, 7, 63, 78
1, 96967, Note_on_c, 7, 44, 99
1, 96967, Note_on_c, 9, 38, 116
1, 96967, Note_on_c, 11, 60, 82
1, 96967, Note_on_c, 11, 56, 84
1, 96967, Note_on_c, 11, 63, 90
1, 96967, Note_on_c, 12, 60, 90
1, 96967, Note_on_c, 12, 56, 82
1, 96967, Note_on_c, 13, 44, 99
1, 96967, Note_on_c, 14, 60, 90
1, 96967, Note_on_c, 14, 56, 82
1, 96978, Note_on_c, 14, 44, 0
1, 96978, Note_on_c, 12, 44, 0
1, 96978, Control_c, 8, 11, 85
1, 96987, Control_c, 5, 11, 20
1, 96992, Control_c, 13, 11, 56
1, 96999, Control_c, 8, 11, 86
1, 97019, Control_c, 8, 11, 87
1, 97024, Control_c, 7, 64, 0
1, 97025, Note_on_c, 5, 61, 0
1, 97027, Control_c, 0, 11, 70
1, 97043, Control_c, 5, 11, 21
1, 97045, Control_c, 8, 11, 88
1, 97062, Control_c, 13, 11, 57
1, 97065, Control_c, 8, 11, 89
1, 97077, Note_on_c, 9, 38, 0
1, 97085, Note_on_c, 9, 38, 0
1, 97085, Control_c, 8, 11, 90
1, 97091, Control_c, 5, 11, 22
1, 97106, Control_c, 8, 11, 91
1, 97109, Pitch_bend_c, 3, 7033
1, 97115, Control_c, 0, 11, 71
1, 97118, Pitch_bend_c, 3, 5972
1, 97126, Control_c, 8, 11, 92
1, 97128, Pitch_bend_c, 3, 4862
1, 97132, Control_c, 13, 11, 58
1, 97137, Pitch_bend_c, 3, 3776
1, 97139, Control_c, 5, 11, 23
1, 97146, Pitch_bend_c, 3, 2987
1, 97149, Control_c, 7, 64, 127
1, 97152, Control_c, 8, 11, 93
1, 97156, Pitch_bend_c, 3, 2370
1, 97165, Pitch_bend_c, 3, 1877
1, 97172, Control_c, 8, 11, 94
1, 97174, Pitch_bend_c, 3, 1704
1, 97184, Pitch_bend_c, 3, 1556
1, 97187, Control_c, 5, 11, 24
1, 97193, Control_c, 8, 11, 95
1, 97202, Control_c, 13, 11, 59
1, 97207, Note_on_c, 3, 80, 108
1, 97207, Note_on_c, 9, 44, 56
1, 97207, Lyric_t, "heart. "
1, 97207, Lyric_t, "\015"
1, 97211, Control_c, 0, 11, 72
1, 97213, Control_c, 8, 11, 96
1, 97220, Pitch_bend_c, 3, 1901
1, 97230, Pitch_bend_c, 3, 2740
1, 97234, Control_c, 8, 11, 97
1, 97239, Pitch_bend_c, 3, 4516
1, 97243, Control_c, 5, 11, 25
1, 97249, Pitch_bend_c, 3, 8192
1, 97259, Control_c, 8, 11, 98
1, 97272, Control_c, 13, 11, 60
1, 97279, Control_c, 8, 11, 99
1, 97291, Control_c, 5, 11, 26
1, 97299, Control_c, 0, 11, 73
1, 97300, Control_c, 8, 11, 100
1, 97314, Note_on_c, 9, 43, 81
1, 97320, Control_c, 8, 11, 101
1, 97325, Note_on_c, 9, 44, 0
1, 97327, Note_on_c, 9, 43, 110
1, 97339, Control_c, 5, 11, 27
1, 97341, Control_c, 8, 11, 102
1, 97342, Control_c, 13, 11, 61
1, 97355, Note_on_c, 5, 56, 0
1, 97366, Control_c, 8, 11, 103
1, 97387, Control_c, 0, 11, 74
1, 97387, Control_c, 5, 11, 28
1, 97387, Control_c, 8, 11, 104
1, 97407, Control_c, 8, 11, 105
1, 97412, Control_c, 13, 11, 62
1, 97428, Control_c, 8, 11, 106
1, 97432, Note_on_c, 9, 43, 0
1, 97435, Control_c, 5, 11, 29
1, 97445, Note_on_c, 9, 43, 0
1, 97447, Note_on_c, 5, 63, 102
1, 97447, Note_on_c, 5, 56, 102
1, 97447, Note_on_c, 9, 44, 56
1, 97447, Note_on_c, 12, 63, 93
1, 97447, Note_on_c, 14, 63, 93
1, 97448, Control_c, 8, 11, 107
1, 97451, Control_c, 5, 11, 27
1, 97474, Control_c, 8, 11, 108
1, 97475, Control_c, 0, 11, 75
1, 97475, Control_c, 5, 11, 28
1, 97482, Control_c, 13, 11, 63
1, 97491, Control_c, 5, 11, 29
1, 97494, Control_c, 8, 11, 109
1, 97512, Control_c, 7, 64, 0
1, 97514, Control_c, 8, 11, 110
1, 97515, Control_c, 5, 11, 30
1, 97531, Control_c, 5, 11, 31
1, 97535, Control_c, 8, 11, 111
1, 97552, Control_c, 13, 11, 64
1, 97554, Note_on_c, 5, 44, 0
1, 97555, Control_c, 5, 11, 32
1, 97555, Control_c, 8, 11, 112
1, 97565, Note_on_c, 9, 44, 0
1, 97568, Note_on_c, 9, 36, 71
1, 97571, Control_c, 0, 11, 76
1, 97571, Control_c, 5, 11, 33
1, 97581, Control_c, 8, 11, 113
1, 97595, Control_c, 5, 11, 34
1, 97601, Control_c, 8, 11, 114
1, 97611, Control_c, 5, 11, 35
1, 97622, Control_c, 8, 11, 115
1, 97622, Control_c, 13, 11, 65
1, 97627, Control_c, 5, 11, 36
1, 97642, Control_c, 8, 11, 116
1, 97651, Control_c, 5, 11, 37
1, 97659, Control_c, 0, 11, 77
1, 97662, Control_c, 8, 11, 117
1, 97667, Control_c, 5, 11, 38
1, 97675, Note_on_c, 9, 41, 91
1, 97686, Note_on_c, 9, 36, 0
1, 97687, Note_on_c, 9, 44, 56
1, 97687, Note_on_c, 9, 38, 116
1, 97687, Note_on_c, 9, 41, 110
1, 97688, Control_c, 8, 11, 118
1, 97691, Control_c, 5, 11, 39
1, 97692, Control_c, 13, 11, 66
1, 97707, Control_c, 5, 11, 40
1, 97708, Control_c, 8, 11, 119
1, 97729, Control_c, 8, 11, 120
1, 97731, Control_c, 5, 11, 41
1, 97747, Control_c, 0, 11, 78
1, 97747, Control_c, 5, 11, 42
1, 97749, Control_c, 8, 11, 121
1, 97755, Note_on_c, 12, 56, 0
1, 97755, Note_on_c, 14, 56, 0
1, 97762, Control_c, 13, 11, 67
1, 97763, Control_c, 5, 11, 43
1, 97770, Control_c, 8, 11, 122
1, 97773, Note_on_c, 11, 63, 0
1, 97780, Control_c, 10, 11, 126
1, 97782, Note_on_c, 11, 56, 0
1, 97784, Note_on_c, 11, 60, 0
1, 97787, Control_c, 5, 11, 44
1, 97790, Note_on_c, 1, 32, 0
1, 97793, Note_on_c, 9, 41, 0
1, 97795, Control_c, 8, 11, 123
1, 97803, Control_c, 5, 11, 45
1, 97805, Note_on_c, 9, 38, 0
1, 97805, Note_on_c, 9, 44, 0
1, 97805, Note_on_c, 9, 41, 0
1, 97807, Note_on_c, 1, 32, 75
1, 97807, Note_on_c, 9, 36, 83
1, 97816, Control_c, 8, 11, 124
1, 97819, Note_on_c, 12, 60, 0
1, 97819, Note_on_c, 14, 60, 0
1, 97822, Note_on_c, 13, 51, 0
1, 97823, Note_on_c, 7, 44, 0
1, 97827, Control_c, 5, 11, 46
1, 97829, Note_on_c, 13, 44, 0
1, 97832, Control_c, 13, 11, 68
1, 97834, Note_on_c, 12, 63, 0
1, 97834, Note_on_c, 14, 63, 0
1, 97835, Control_c, 0, 11, 79
1, 97836, Control_c, 8, 11, 125
1, 97843, Control_c, 5, 11, 47
1, 97850, Note_on_c, 0, 56, 0
1, 97856, Control_c, 8, 11, 126
1, 97860, Note_on_c, 7, 60, 0
1, 97862, Control_c, 6, 11, 103
1, 97865, Note_on_c, 5, 56, 0
1, 97865, Note_on_c, 9, 36, 0
1, 97867, Control_c, 5, 11, 48
1, 97867, Note_on_c, 9, 36, 33
1, 97871, Note_on_c, 7, 56, 0
1, 97872, Note_on_c, 7, 63, 0
1, 97872, Note_on_c, 5, 63, 0
1, 97877, Control_c, 8, 11, 127
1, 97879, Note_on_c, 0, 66, 0
1, 97881, Note_on_c, 5, 60, 0
1, 97882, Control_c, 6, 11, 104
1, 97883, Control_c, 5, 11, 49
1, 97892, Control_c, 13, 11, 69
1, 97899, Control_c, 5, 11, 50
1, 97902, Control_c, 6, 11, 105
1, 97907, Note_on_c, 0, 60, 0
1, 97907, Control_c, 13, 11, 126
1, 97910, Control_c, 0, 11, 126
1, 97921, Control_c, 5, 11, 127
1, 97922, Note_on_c, 8, 44, 0
1, 97922, Control_c, 6, 11, 106
1, 97925, Note_on_c, 9, 36, 0
1, 97927, Note_on_c, 0, 66, 87
1, 97927, Note_on_c, 0, 57, 87
1, 97927, Note_on_c, 1, 30, 120
1, 97927, Note_on_c, 5, 61, 90
1, 97927, Note_on_c, 5, 57, 93
1, 97927, Note_on_c, 5, 66, 96
1, 97927, Note_on_c, 6, 78, 82
1, 97927, Note_on_c, 6, 66, 90
1, 97927, Note_on_c, 7, 66, 114
1, 97927, Note_on_c, 7, 61, 111
1, 97927, Note_on_c, 7, 42, 108
1, 97927, Note_on_c, 8, 54, 87
1, 97927, Note_on_c, 9, 54, 76
1, 97927, Note_on_c, 9, 36, 101
1, 97927, Note_on_c, 9, 49, 81
1, 97927, Note_on_c, 10, 81, 99
1, 97927, Note_on_c, 10, 73, 96
1, 97927, Note_on_c, 10, 78, 87
1, 97927, Note_on_c, 11, 61, 111
1, 97927, Note_on_c, 11, 66, 114
1, 97927, Note_on_c, 11, 57, 108
1, 97927, Note_on_c, 13, 49, 108
1, 97927, Note_on_c, 13, 42, 108
1, 97932, Control_c, 6, 11, 107
1, 97933, Note_on_c, 1, 32, 0
1, 97952, Control_c, 6, 11, 108
1, 97972, Control_c, 6, 11, 109
1, 97992, Control_c, 6, 11, 110
1, 98002, Control_c, 6, 11, 111
1, 98022, Control_c, 6, 11, 112
1, 98042, Control_c, 6, 11, 113
1, 98045, Note_on_c, 9, 49, 0
1, 98045, Note_on_c, 9, 36, 0
1, 98045, Note_on_c, 9, 54, 0
1, 98047, Note_on_c, 7, 57, 93
1, 98047, Note_on_c, 9, 54, 56
1, 98051, Control_c, 7, 64, 127
1, 98062, Control_c, 6, 11, 114
1, 98072, Control_c, 6, 11, 115
1, 98090, Note_on_c, 7, 66, 0
1, 98092, Note_on_c, 7, 61, 0
1, 98092, Control_c, 6, 11, 116
1, 98112, Control_c, 6, 11, 117
1, 98132, Control_c, 6, 11, 118
1, 98142, Control_c, 6, 11, 119
1, 98162, Control_c, 6, 11, 120
1, 98165, Note_on_c, 9, 54, 0
1, 98167, Note_on_c, 3, 85, 99
1, 98167, Note_on_c, 7, 66, 108
1, 98167, Note_on_c, 7, 61, 105
1, 98167, Note_on_c, 9, 54, 59
1, 98167, Note_on_c, 9, 46, 53
1, 98167, Note_on_c, 11, 61, 74
1, 98167, Note_on_c, 11, 57, 78
1, 98167, Lyric_t, "Love "
1, 98181, Note_on_c, 3, 80, 0
1, 98182, Control_c, 6, 11, 121
1, 98202, Control_c, 6, 11, 122
1, 98212, Control_c, 6, 11, 123
1, 98232, Control_c, 6, 11, 124
1, 98252, Control_c, 6, 11, 125
1, 98272, Control_c, 6, 11, 126
1, 98282, Control_c, 6, 11, 127
1, 98285, Note_on_c, 9, 46, 0
1, 98285, Note_on_c, 9, 54, 0
1, 98287, Note_on_c, 9, 54, 54
1, 98364, Note_on_c, 11, 57, 0
1, 98371, Note_on_c, 11, 61, 0
1, 98399, Note_on_c, 11, 61, 0
1, 98399, Note_on_c, 11, 66, 0
1, 98399, Note_on_c, 11, 57, 0
1, 98405, Note_on_c, 9, 54, 0
1, 98407, Note_on_c, 7, 54, 108
1, 98407, Note_on_c, 9, 54, 76
1, 98407, Note_on_c, 9, 38, 101
1, 98407, Note_on_c, 9, 46, 60
1, 98407, Note_on_c, 11, 66, 102
1, 98407, Note_on_c, 11, 57, 111
1, 98407, Note_on_c, 11, 61, 108
1, 98416, Note_on_c, 7, 61, 0
1, 98446, Note_on_c, 7, 66, 0
1, 98525, Note_on_c, 9, 46, 0
1, 98525, Note_on_c, 9, 38, 0
1, 98525, Note_on_c, 9, 54, 0
1, 98527, Note_on_c, 7, 61, 102
1, 98527, Note_on_c, 9, 54, 56
1, 98568, Note_on_c, 7, 57, 0
1, 98603, Note_on_c, 7, 61, 0
1, 98641, Note_on_c, 11, 61, 0
1, 98641, Note_on_c, 11, 66, 0
1, 98641, Note_on_c, 11, 57, 0
1, 98645, Note_on_c, 9, 54, 0
1, 98647, Note_on_c, 7, 66, 111
1, 98647, Note_on_c, 7, 61, 66
1, 98647, Note_on_c, 7, 68, 96
1, 98647, Note_on_c, 9, 54, 59
1, 98647, Note_on_c, 9, 46, 53
1, 98647, Note_on_c, 11, 61, 68
1, 98647, Note_on_c, 11, 57, 70
1, 98647, Note_on_c, 11, 66, 62
1, 98669, Note_on_c, 7, 61, 0
1, 98721, Note_on_c, 7, 66, 0
1, 98724, Note_on_c, 7, 68, 0
1, 98743, Note_on_c, 7, 54, 0
1, 98750, Note_on_c, 1, 30, 0
1, 98765, Note_on_c, 9, 54, 0
1, 98765, Note_on_c, 9, 46, 0
1, 98767, Note_on_c, 1, 30, 68
1, 98767, Note_on_c, 7, 69, 111
1, 98767, Note_on_c, 9, 54, 54
1, 98767, Note_on_c, 11, 61, 64
1, 98767, Note_on_c, 11, 57, 68
1, 98811, Control_c, 7, 64, 0
1, 98822, Note_on_c, 1, 30, 0
1, 98834, Note_on_c, 11, 57, 0
1, 98851, Note_on_c, 11, 61, 0
1, 98881, Note_on_c, 11, 57, 0
1, 98881, Note_on_c, 11, 61, 0
1, 98881, Note_on_c, 11, 66, 0
1, 98885, Note_on_c, 9, 54, 0
1, 98887, Note_on_c, 0, 69, 87
1, 98887, Note_on_c, 0, 61, 87
1, 98887, Note_on_c, 1, 30, 96
1, 98887, Note_on_c, 4, 69, 117
1, 98887, Note_on_c, 4, 66, 62
1, 98887, Note_on_c, 7, 68, 105
1, 98887, Note_on_c, 7, 42, 102
1, 98887, Note_on_c, 7, 73, 105
1, 98887, Note_on_c, 9, 54, 76
1, 98887, Note_on_c, 9, 36, 101
1, 98887, Note_on_c, 9, 46, 60
1, 98887, Note_on_c, 11, 57, 108
1, 98887, Note_on_c, 11, 61, 93
1, 98887, Note_on_c, 11, 66, 87
1, 98887, Note_on_c, 15, 66, 1
1, 98887, Note_on_c, 15, 69, 1
1, 98889, Note_on_c, 7, 42, 0
1, 98901, Note_on_c, 0, 57, 0
1, 98907, Note_on_c, 0, 66, 0
1, 98913, Note_on_c, 7, 69, 0
1, 98940, Note_on_c, 1, 30, 0
1, 99005, Note_on_c, 7, 68, 0
1, 99005, Note_on_c, 9, 46, 0
1, 99005, Note_on_c, 9, 36, 0
1, 99005, Note_on_c, 9, 54, 0
1, 99007, Note_on_c, 7, 66, 78
1, 99007, Note_on_c, 9, 54, 56
1, 99007, Note_on_c, 11, 57, 78
1, 99007, Note_on_c, 11, 61, 74
1, 99090, Note_on_c, 7, 73, 0
1, 99098, Note_on_c, 11, 57, 0
1, 99117, Note_on_c, 11, 61, 0
1, 99121, Note_on_c, 11, 61, 0
1, 99121, Note_on_c, 11, 57, 0
1, 99121, Note_on_c, 11, 66, 0
1, 99125, Note_on_c, 9, 54, 0
1, 99127, Note_on_c, 1, 30, 102
1, 99127, Note_on_c, 7, 73, 99
1, 99127, Note_on_c, 7, 68, 99
1, 99127, Note_on_c, 9, 54, 59
1, 99127, Note_on_c, 9, 36, 81
1, 99127, Note_on_c, 9, 46, 53
1, 99127, Note_on_c, 11, 57, 99
1, 99127, Note_on_c, 11, 61, 93
1, 99127, Note_on_c, 11, 66, 90
1, 99145, Note_on_c, 7, 66, 0
1, 99245, Note_on_c, 9, 46, 0
1, 99245, Note_on_c, 9, 36, 0
1, 99245, Note_on_c, 9, 54, 0
1, 99247, Note_on_c, 9, 54, 54
1, 99365, Note_on_c, 9, 54, 0
1, 99367, Note_on_c, 7, 54, 99
1, 99367, Note_on_c, 9, 54, 76
1, 99367, Note_on_c, 9, 46, 60
1, 99367, Note_on_c, 9, 38, 101
1, 99367, Note_on_c, 11, 61, 93
1, 99367, Note_on_c, 11, 57, 108
1, 99469, Note_on_c, 7, 68, 0
1, 99485, Note_on_c, 9, 38, 0
1, 99485, Note_on_c, 9, 46, 0
1, 99485, Note_on_c, 9, 54, 0
1, 99487, Note_on_c, 7, 66, 102
1, 99487, Note_on_c, 9, 54, 56
1, 99530, Note_on_c, 7, 73, 0
1, 99571, Note_on_c, 11, 57, 0
1, 99585, Note_on_c, 0, 61, 0
1, 99585, Note_on_c, 11, 61, 0
1, 99594, Note_on_c, 7, 66, 0
1, 99599, Note_on_c, 11, 61, 0
1, 99599, Note_on_c, 11, 66, 0
1, 99599, Note_on_c, 11, 57, 0
1, 99600, Note_on_c, 3, 85, 0
1, 99600, Note_on_c, 0, 69, 0
1, 99605, Note_on_c, 9, 54, 0
1, 99607, Note_on_c, 0, 59, 74
1, 99607, Note_on_c, 0, 68, 87
1, 99607, Note_on_c, 3, 87, 114
1, 99607, Note_on_c, 7, 68, 96
1, 99607, Note_on_c, 9, 54, 59
1, 99607, Note_on_c, 9, 46, 53
1, 99607, Note_on_c, 11, 57, 87
1, 99607, Note_on_c, 11, 66, 84
1, 99607, Note_on_c, 11, 61, 74
1, 99607, Lyric_t, "can "
1, 99683, Note_on_c, 10, 73, 0
1, 99725, Note_on_c, 9, 54, 0
1, 99725, Note_on_c, 9, 46, 0
1, 99726, Note_on_c, 7, 68, 0
1, 99727, Note_on_c, 0, 61, 87
1, 99727, Note_on_c, 0, 69, 76
1, 99727, Note_on_c, 3, 88, 102
1, 99727, Note_on_c, 7, 69, 84
1, 99727, Note_on_c, 9, 54, 54
1, 99727, Note_on_c, 11, 57, 72
1, 99727, Lyric_t, "you "
1, 99743, Note_on_c, 3, 87, 0
1, 99746, Note_on_c, 7, 54, 0
1, 99751, Note_on_c, 0, 68, 0
1, 99761, Note_on_c, 0, 59, 0
1, 99777, Note_on_c, 7, 42, 0
1, 99806, Note_on_c, 11, 57, 0
1, 99806, Note_on_c, 13, 49, 0
1, 99840, Note_on_c, 7, 69, 0
1, 99841, Note_on_c, 11, 61, 0
1, 99841, Note_on_c, 11, 66, 0
1, 99841, Note_on_c, 11, 57, 0
1, 99843, Note_on_c, 1, 30, 0
1, 99845, Note_on_c, 9, 54, 0
1, 99846, Note_on_c, 5, 57, 0
1, 99847, Note_on_c, 10, 81, 0
1, 99847, Note_on_c, 0, 68, 93
1, 99847, Note_on_c, 0, 64, 102
1, 99847, Note_on_c, 1, 25, 111
1, 99847, Note_on_c, 3, 87, 117
1, 99847, Note_on_c, 4, 68, 99
1, 99847, Note_on_c, 4, 64, 74
1, 99847, Note_on_c, 5, 64, 105
1, 99847, Note_on_c, 5, 68, 87
1, 99847, Note_on_c, 6, 80, 76
1, 99847, Note_on_c, 6, 68, 84
1, 99847, Note_on_c, 7, 73, 99
1, 99847, Note_on_c, 7, 64, 93
1, 99847, Note_on_c, 7, 37, 105
1, 99847, Note_on_c, 8, 56, 87
1, 99847, Note_on_c, 9, 54, 76
1, 99847, Note_on_c, 9, 36, 101
1, 99847, Note_on_c, 9, 49, 74
1, 99847, Note_on_c, 10, 80, 90
1, 99847, Note_on_c, 10, 76, 87
1, 99847, Note_on_c, 10, 85, 96
1, 99847, Note_on_c, 11, 61, 96
1, 99847, Note_on_c, 11, 64, 102
1, 99847, Note_on_c, 11, 68, 105
1, 99847, Note_on_c, 13, 49, 102
1, 99847, Note_on_c, 13, 44, 87
1, 99847, Note_on_c, 15, 64, 1
1, 99847, Note_on_c, 15, 68, 1
1, 99847, Lyric_t, "find "
1, 99850, Note_on_c, 10, 78, 0
1, 99854, Note_on_c, 4, 66, 0
1, 99854, Note_on_c, 15, 66, 0
1, 99857, Note_on_c, 6, 66, 0
1, 99868, Note_on_c, 4, 69, 0
1, 99868, Note_on_c, 15, 69, 0
1, 99868, Note_on_c, 13, 42, 0
1, 99868, Note_on_c, 3, 88, 0
1, 99870, Note_on_c, 6, 78, 0
1, 99873, Note_on_c, 8, 54, 0
1, 99874, Note_on_c, 0, 61, 0
1, 99879, Note_on_c, 5, 66, 0
1, 99887, Note_on_c, 0, 69, 0
1, 99910, Control_c, 7, 64, 127
1, 99965, Note_on_c, 9, 36, 0
1, 99965, Note_on_c, 9, 54, 0
1, 99965, Note_on_c, 9, 49, 0
1, 99967, Note_on_c, 7, 49, 84
1, 99967, Note_on_c, 9, 54, 56
1, 100038, Note_on_c, 7, 64, 0
1, 100063, Note_on_c, 7, 73, 0
1, 100076, Note_on_c, 7, 49, 0
1, 100085, Note_on_c, 9, 54, 0
1, 100087, Note_on_c, 3, 85, 102
1, 100087, Note_on_c, 7, 61, 105
1, 100087, Note_on_c, 9, 54, 59
1, 100087, Note_on_c, 9, 46, 53
1, 100087, Note_on_c, 11, 61, 84
1, 100087, Lyric_t, "me "
1, 100087, Lyric_t, "\015"
1, 100095, Note_on_c, 3, 87, 0
1, 100172, Note_on_c, 7, 61, 0
1, 100191, Note_on_c, 3, 85, 0
1, 100205, Note_on_c, 9, 46, 0
1, 100205, Note_on_c, 9, 54, 0
1, 100207, Note_on_c, 3, 85, 114
1, 100207, Note_on_c, 7, 64, 99
1, 100207, Note_on_c, 9, 54, 54
1, 100207, Lyric_t, "in "
1, 100286, Note_on_c, 11, 61, 0
1, 100319, Note_on_c, 11, 64, 0
1, 100319, Note_on_c, 11, 68, 0
1, 100319, Note_on_c, 11, 61, 0
1, 100325, Note_on_c, 9, 54, 0
1, 100327, Note_on_c, 7, 49, 64
1, 100327, Note_on_c, 9, 54, 76
1, 100327, Note_on_c, 9, 38, 101
1, 100327, Note_on_c, 9, 46, 60
1, 100327, Note_on_c, 11, 61, 105
1, 100327, Note_on_c, 11, 68, 99
1, 100327, Note_on_c, 11, 64, 102
1, 100407, Note_on_c, 7, 49, 0
1, 100412, Note_on_c, 3, 85, 0
1, 100415, Note_on_c, 7, 64, 0
1, 100445, Note_on_c, 9, 54, 0
1, 100445, Note_on_c, 9, 46, 0
1, 100445, Note_on_c, 9, 38, 0
1, 100447, Note_on_c, 3, 83, 114
1, 100447, Note_on_c, 7, 63, 108
1, 100447, Note_on_c, 9, 54, 56
1, 100447, Lyric_t, "the "
1, 100551, Note_on_c, 7, 37, 0
1, 100565, Note_on_c, 9, 54, 0
1, 100567, Note_on_c, 7, 49, 70
1, 100567, Note_on_c, 9, 54, 59
1, 100567, Note_on_c, 9, 46, 53
1, 100567, Note_on_c, 11, 61, 80
1, 100616, Note_on_c, 7, 63, 0
1, 100644, Note_on_c, 3, 83, 0
1, 100647, Note_on_c, 11, 61, 0
1, 100656, Note_on_c, 7, 49, 0
1, 100685, Note_on_c, 9, 54, 0
1, 100685, Note_on_c, 9, 46, 0
1, 100687, Note_on_c, 7, 44, 57
1, 100687, Note_on_c, 7, 49, 52
1, 100687, Note_on_c, 9, 54, 54
1, 100687, Note_on_c, 11, 61, 76
1, 100693, Note_on_c, 9, 36, 51
1, 100742, Note_on_c, 0, 64, 0
1, 100746, Note_on_c, 11, 61, 0
1, 100748, Note_on_c, 7, 49, 0
1, 100753, Note_on_c, 1, 25, 0
1, 100763, Note_on_c, 7, 44, 0
1, 100792, Control_c, 7, 64, 0
1, 100799, Note_on_c, 11, 61, 0
1, 100799, Note_on_c, 11, 68, 0
1, 100799, Note_on_c, 11, 64, 0
1, 100804, Note_on_c, 9, 54, 25
1, 100805, Note_on_c, 9, 54, 0
1, 100807, Note_on_c, 0, 64, 99
1, 100807, Note_on_c, 0, 61, 87
1, 100807, Note_on_c, 1, 25, 108
1, 100807, Note_on_c, 3, 78, 120
1, 100807, Note_on_c, 7, 64, 102
1, 100807, Note_on_c, 7, 37, 93
1, 100807, Note_on_c, 9, 46, 60
1, 100807, Note_on_c, 9, 36, 101
1, 100807, Note_on_c, 11, 68, 102
1, 100807, Note_on_c, 11, 61, 102
1, 100807, Note_on_c, 11, 64, 102
1, 100807, Lyric_t, "dark"
1, 100811, Note_on_c, 9, 36, 0
1, 100827, Note_on_c, 0, 68, 0
1, 100832, Note_on_c, 9, 54, 0
1, 100836, Note_on_c, 9, 54, 28
1, 100853, Pitch_bend_c, 3, 9174
1, 100862, Pitch_bend_c, 3, 10847
1, 100864, Note_on_c, 9, 54, 0
1, 100864, Note_on_c, 9, 54, 31
1, 100869, Note_on_c, 1, 25, 0
1, 100872, Pitch_bend_c, 3, 12588
1, 100880, Pitch_bend_c, 3, 14597
1, 100890, Pitch_bend_c, 3, 16025
1, 100892, Note_on_c, 9, 54, 0
1, 100896, Note_on_c, 9, 54, 34
1, 100899, Pitch_bend_c, 3, 16383
1, 100913, Control_c, 7, 64, 127
1, 100922, Note_on_c, 11, 68, 0
1, 100922, Note_on_c, 11, 61, 0
1, 100924, Note_on_c, 9, 54, 0
1, 100924, Note_on_c, 9, 54, 37
1, 100925, Note_on_c, 9, 46, 0
1, 100925, Note_on_c, 9, 36, 0
1, 100927, Note_on_c, 11, 68, 70
1, 100927, Note_on_c, 11, 61, 74
1, 100937, Pitch_bend_c, 3, 15066
1, 100946, Pitch_bend_c, 3, 10156
1, 100952, Note_on_c, 9, 54, 0
1, 100955, Pitch_bend_c, 3, 8192
1, 100956, Note_on_c, 9, 54, 41
1, 100984, Note_on_c, 9, 54, 0
1, 100984, Note_on_c, 9, 54, 44
1, 100994, Note_on_c, 7, 64, 0
1, 101012, Note_on_c, 9, 54, 0
1, 101016, Note_on_c, 9, 54, 47
1, 101034, Note_on_c, 9, 54, 49
1, 101042, Note_on_c, 11, 68, 0
1, 101042, Note_on_c, 11, 61, 0
1, 101044, Note_on_c, 9, 54, 0
1, 101044, Note_on_c, 3, 78, 0
1, 101047, Note_on_c, 1, 25, 111
1, 101047, Note_on_c, 3, 76, 102
1, 101047, Note_on_c, 7, 61, 99
1, 101047, Note_on_c, 9, 46, 53
1, 101047, Note_on_c, 11, 61, 108
1, 101047, Note_on_c, 11, 68, 90
1, 101047, Lyric_t, "ness "
1, 101053, Note_on_c, 9, 36, 91
1, 101062, Note_on_c, 9, 54, 0
1, 101066, Note_on_c, 9, 54, 52
1, 101094, Note_on_c, 9, 54, 0
1, 101094, Note_on_c, 9, 54, 55
1, 101095, Note_on_c, 7, 61, 0
1, 101122, Note_on_c, 9, 54, 0
1, 101126, Note_on_c, 9, 54, 59
1, 101154, Note_on_c, 9, 54, 0
1, 101154, Note_on_c, 9, 54, 62
1, 101165, Note_on_c, 9, 46, 0
1, 101167, Note_on_c, 7, 68, 105
1, 101171, Note_on_c, 9, 36, 0
1, 101182, Note_on_c, 9, 54, 0
1, 101186, Note_on_c, 9, 54, 65
1, 101214, Note_on_c, 9, 54, 0
1, 101214, Note_on_c, 9, 54, 68
1, 101242, Note_on_c, 9, 54, 0
1, 101246, Note_on_c, 9, 54, 71
1, 101274, Note_on_c, 9, 54, 0
1, 101281, Note_on_c, 11, 61, 0
1, 101281, Note_on_c, 11, 68, 0
1, 101287, Note_on_c, 7, 49, 84
1, 101287, Note_on_c, 9, 54, 86
1, 101287, Note_on_c, 9, 46, 60
1, 101287, Note_on_c, 9, 38, 101
1, 101287, Note_on_c, 11, 61, 105
1, 101287, Note_on_c, 11, 68, 87
1, 101369, Note_on_c, 7, 68, 0
1, 101405, Note_on_c, 9, 38, 0
1, 101405, Note_on_c, 9, 46, 0
1, 101405, Note_on_c, 9, 54, 0
1, 101407, Note_on_c, 7, 61, 105
1, 101407, Note_on_c, 9, 54, 56
1, 101426, Note_on_c, 7, 49, 0
1, 101463, Note_on_c, 7, 61, 0
1, 101521, Note_on_c, 11, 61, 0
1, 101521, Note_on_c, 11, 68, 0
1, 101522, Note_on_c, 3, 76, 0
1, 101525, Note_on_c, 9, 54, 0
1, 101527, Note_on_c, 13, 44, 0
1, 101527, Note_on_c, 1, 30, 96
1, 101527, Note_on_c, 3, 73, 108
1, 101527, Note_on_c, 7, 64, 105
1, 101527, Note_on_c, 7, 49, 58
1, 101527, Note_on_c, 9, 54, 59
1, 101527, Note_on_c, 9, 46, 53
1, 101527, Note_on_c, 11, 68, 90
1, 101527, Note_on_c, 11, 61, 93
1, 101527, Note_on_c, 13, 42, 78
1, 101527, Lyric_t, "and "
1, 101545, Note_on_c, 1, 25, 0
1, 101642, Note_on_c, 11, 61, 0
1, 101642, Note_on_c, 11, 68, 0
1, 101645, Note_on_c, 9, 46, 0
1, 101645, Note_on_c, 9, 54, 0
1, 101647, Note_on_c, 1, 32, 99
1, 101647, Note_on_c, 7, 63, 61
1, 101647, Note_on_c, 9, 54, 54
1, 101647, Note_on_c, 11, 68, 68
1, 101647, Note_on_c, 11, 61, 87
1, 101647, Note_on_c, 13, 44, 82
1, 101649, Note_on_c, 7, 64, 0
1, 101651, Note_on_c, 7, 49, 0
1, 101652, Note_on_c, 3, 73, 0
1, 101652, Note_on_c, 1, 30, 0
1, 101660, Note_on_c, 13, 42, 0
1, 101674, Note_on_c, 7, 63, 0
1, 101680, Note_on_c, 7, 37, 0
1, 101702, Control_c, 7, 64, 0
1, 101721, Note_on_c, 0, 61, 0
1, 101722, Note_on_c, 5, 68, 0
1, 101732, Note_on_c, 4, 64, 0
1, 101732, Note_on_c, 11, 64, 0
1, 101742, Note_on_c, 8, 56, 0
1, 101744, Note_on_c, 13, 49, 0
1, 101749, Note_on_c, 1, 32, 0
1, 101749, Note_on_c, 13, 44, 0
1, 101751, Note_on_c, 10, 85, 0
1, 101756, Note_on_c, 10, 76, 0
1, 101757, Note_on_c, 4, 68, 0
1, 101762, Note_on_c, 11, 68, 0
1, 101762, Note_on_c, 11, 61, 0
1, 101765, Note_on_c, 15, 64, 0
1, 101765, Note_on_c, 15, 68, 0
1, 101765, Note_on_c, 9, 54, 0
1, 101767, Note_on_c, 0, 69, 93
1, 101767, Note_on_c, 0, 61, 90
1, 101767, Note_on_c, 1, 33, 105
1, 101767, Note_on_c, 4, 64, 70
1, 101767, Note_on_c, 4, 61, 72
1, 101767, Note_on_c, 5, 57, 96
1, 101767, Note_on_c, 5, 69, 102
1, 101767, Note_on_c, 6, 69, 84
1, 101767, Note_on_c, 6, 81, 72
1, 101767, Note_on_c, 7, 73, 117
1, 101767, Note_on_c, 7, 45, 102
1, 101767, Note_on_c, 8, 57, 87
1, 101767, Note_on_c, 9, 54, 76
1, 101767, Note_on_c, 9, 36, 101
1, 101767, Note_on_c, 10, 76, 84
1, 101767, Note_on_c, 10, 81, 93
1, 101767, Note_on_c, 10, 85, 87
1, 101767, Note_on_c, 11, 61, 99
1, 101767, Note_on_c, 11, 64, 96
1, 101767, Note_on_c, 11, 57, 96
1, 101767, Note_on_c, 11, 69, 105
1, 101767, Note_on_c, 13, 45, 105
1, 101767, Note_on_c, 13, 52, 99
1, 101767, Note_on_c, 15, 61, 1
1, 101767, Note_on_c, 15, 64, 1
1, 101780, Note_on_c, 6, 80, 0
1, 101781, Note_on_c, 6, 68, 0
1, 101800, Note_on_c, 0, 64, 0
1, 101816, Note_on_c, 10, 80, 0
1, 101841, Control_c, 7, 64, 127
1, 101874, Note_on_c, 1, 33, 0
1, 101882, Note_on_c, 11, 69, 0
1, 101885, Note_on_c, 9, 54, 0
1, 101885, Note_on_c, 9, 36, 0
1, 101887, Note_on_c, 1, 33, 102
1, 101887, Note_on_c, 7, 69, 64
1, 101887, Note_on_c, 9, 54, 56
1, 101887, Note_on_c, 11, 69, 52
1, 101946, Note_on_c, 11, 57, 0
1, 101997, Note_on_c, 11, 61, 0
1, 102002, Note_on_c, 11, 69, 0
1, 102005, Note_on_c, 9, 54, 0
1, 102007, Note_on_c, 3, 83, 96
1, 102007, Note_on_c, 4, 71, 99
1, 102007, Note_on_c, 7, 64, 84
1, 102007, Note_on_c, 9, 54, 59
1, 102007, Note_on_c, 9, 46, 53
1, 102007, Note_on_c, 11, 69, 72
1, 102007, Note_on_c, 11, 61, 58
1, 102007, Note_on_c, 11, 57, 68
1, 102007, Note_on_c, 15, 71, 1
1, 102007, Lyric_t, "love "
1, 102007, Lyric_t, "\015"
1, 102017, Pitch_bend_c, 3, 7354
1, 102026, Pitch_bend_c, 3, 4541
1, 102035, Pitch_bend_c, 3, 1408
1, 102041, Note_on_c, 7, 69, 0
1, 102045, Pitch_bend_c, 3, 0
1, 102065, Note_on_c, 7, 73, 0
1, 102072, Pitch_bend_c, 3, 2691
1, 102082, Pitch_bend_c, 3, 8192
1, 102125, Note_on_c, 9, 46, 0
1, 102125, Note_on_c, 9, 54, 0
1, 102127, Note_on_c, 7, 71, 111
1, 102127, Note_on_c, 9, 54, 54
1, 102161, Note_on_c, 7, 64, 0
1, 102241, Note_on_c, 11, 61, 0
1, 102241, Note_on_c, 11, 69, 0
1, 102241, Note_on_c, 11, 57, 0
1, 102245, Note_on_c, 9, 54, 0
1, 102247, Note_on_c, 7, 57, 66
1, 102247, Note_on_c, 9, 54, 76
1, 102247, Note_on_c, 9, 38, 101
1, 102247, Note_on_c, 9, 46, 60
1, 102247, Note_on_c, 11, 69, 99
1, 102247, Note_on_c, 11, 57, 108
1, 102247, Note_on_c, 11, 61, 99
1, 102365, Note_on_c, 9, 46, 0
1, 102365, Note_on_c, 9, 38, 0
1, 102365, Note_on_c, 9, 54, 0
1, 102367, Note_on_c, 3, 81, 114
1, 102367, Note_on_c, 4, 69, 82
1, 102367, Note_on_c, 7, 69, 108
1, 102367, Note_on_c, 9, 54, 56
1, 102367, Note_on_c, 15, 69, 1
1, 102376, Note_on_c, 7, 71, 0
1, 102378, Note_on_c, 3, 83, 0
1, 102395, Note_on_c, 15, 71, 0
1, 102395, Note_on_c, 4, 71, 0
1, 102475, Note_on_c, 7, 57, 0
1, 102485, Note_on_c, 9, 54, 0
1, 102487, Note_on_c, 7, 64, 105
1, 102487, Note_on_c, 9, 54, 59
1, 102487, Note_on_c, 9, 46, 53
1, 102487, Note_on_c, 11, 57, 78
1, 102487, Note_on_c, 11, 61, 87
1, 102517, Note_on_c, 7, 69, 0
1, 102574, Note_on_c, 1, 33, 0
1, 102579, Note_on_c, 11, 57, 0
1, 102600, Note_on_c, 11, 57, 0
1, 102600, Note_on_c, 11, 61, 0
1, 102600, Note_on_c, 11, 69, 0
1, 102605, Note_on_c, 9, 54, 0
1, 102605, Note_on_c, 9, 46, 0
1, 102607, Note_on_c, 1, 33, 84
1, 102607, Note_on_c, 7, 52, 84
1, 102607, Note_on_c, 9, 54, 54
1, 102607, Note_on_c, 11, 57, 46
1, 102607, Note_on_c, 11, 69, 40
1, 102613, Note_on_c, 9, 36, 51
1, 102667, Note_on_c, 1, 33, 0
1, 102692, Note_on_c, 11, 64, 0
1, 102698, Note_on_c, 3, 81, 0
1, 102703, Note_on_c, 7, 52, 0
1, 102703, Note_on_c, 7, 64, 0
1, 102709, Note_on_c, 15, 69, 0
1, 102709, Note_on_c, 4, 69, 0
1, 102711, Note_on_c, 11, 61, 0
1, 102722, Note_on_c, 11, 69, 0
1, 102722, Note_on_c, 11, 57, 0
1, 102725, Note_on_c, 9, 54, 0
1, 102727, Note_on_c, 1, 33, 108
1, 102727, Note_on_c, 3, 80, 99
1, 102727, Note_on_c, 4, 71, 82
1, 102727, Note_on_c, 7, 73, 117
1, 102727, Note_on_c, 9, 54, 76
1, 102727, Note_on_c, 11, 61, 105
1, 102727, Note_on_c, 11, 64, 90
1, 102727, Note_on_c, 11, 57, 111
1, 102727, Note_on_c, 11, 69, 96
1, 102727, Note_on_c, 15, 71, 1
1, 102731, Note_on_c, 9, 36, 0
1, 102829, Note_on_c, 1, 33, 0
1, 102842, Note_on_c, 11, 69, 0
1, 102842, Note_on_c, 11, 57, 0
1, 102842, Note_on_c, 11, 61, 0
1, 102845, Note_on_c, 9, 54, 0
1, 102847, Note_on_c, 1, 33, 99
1, 102847, Note_on_c, 3, 78, 108
1, 102847, Note_on_c, 4, 69, 62
1, 102847, Note_on_c, 7, 69, 66
1, 102847, Note_on_c, 9, 54, 56
1, 102847, Note_on_c, 11, 57, 72
1, 102847, Note_on_c, 11, 61, 80
1, 102847, Note_on_c, 11, 69, 78
1, 102847, Note_on_c, 15, 69, 1
1, 102863, Note_on_c, 4, 64, 0
1, 102875, Note_on_c, 3, 80, 0
1, 102882, Note_on_c, 4, 71, 0
1, 102882, Note_on_c, 15, 71, 0
1, 102893, Note_on_c, 7, 73, 0
1, 102958, Pitch_bend_c, 1, 6762
1, 102962, Note_on_c, 11, 69, 0
1, 102962, Note_on_c, 11, 61, 0
1, 102962, Note_on_c, 11, 57, 0
1, 102963, Note_on_c, 3, 78, 0
1, 102965, Note_on_c, 15, 64, 0
1, 102965, Note_on_c, 9, 54, 0
1, 102967, Note_on_c, 1, 37, 102
1, 102967, Note_on_c, 3, 76, 108
1, 102967, Note_on_c, 4, 64, 59
1, 102967, Note_on_c, 7, 64, 58
1, 102967, Note_on_c, 9, 54, 59
1, 102967, Note_on_c, 9, 36, 81
1, 102967, Note_on_c, 9, 46, 53
1, 102967, Note_on_c, 11, 61, 90
1, 102967, Note_on_c, 11, 57, 102
1, 102967, Note_on_c, 11, 69, 90
1, 102967, Note_on_c, 15, 64, 1
1, 102968, Pitch_bend_c, 1, 5775
1, 102977, Pitch_bend_c, 1, 4640
1, 102993, Note_on_c, 7, 69, 0
1, 102994, Note_on_c, 1, 33, 0
1, 102995, Pitch_bend_c, 1, 5824
1, 103004, Pitch_bend_c, 1, 8192
1, 103006, Note_on_c, 15, 69, 0
1, 103006, Note_on_c, 4, 69, 0
1, 103049, Note_on_c, 7, 64, 0
1, 103085, Note_on_c, 9, 54, 0
1, 103085, Note_on_c, 9, 46, 0
1, 103085, Note_on_c, 9, 36, 0
1, 103087, Note_on_c, 7, 71, 111
1, 103087, Note_on_c, 9, 54, 54
1, 103201, Note_on_c, 11, 69, 0
1, 103201, Note_on_c, 11, 61, 0
1, 103201, Note_on_c, 11, 57, 0
1, 103205, Note_on_c, 9, 54, 0
1, 103207, Note_on_c, 1, 40, 102
1, 103207, Note_on_c, 7, 57, 84
1, 103207, Note_on_c, 9, 54, 96
1, 103207, Note_on_c, 9, 46, 60
1, 103207, Note_on_c, 9, 38, 101
1, 103207, Note_on_c, 9, 49, 61
1, 103207, Note_on_c, 11, 61, 93
1, 103207, Note_on_c, 11, 57, 105
1, 103207, Note_on_c, 11, 69, 87
1, 103210, Note_on_c, 1, 37, 0
1, 103291, Note_on_c, 3, 76, 0
1, 103312, Note_on_c, 7, 71, 0
1, 103325, Note_on_c, 9, 46, 0
1, 103325, Note_on_c, 9, 54, 0
1, 103325, Note_on_c, 9, 49, 0
1, 103325, Note_on_c, 9, 38, 0
1, 103327, Note_on_c, 7, 69, 105
1, 103327, Note_on_c, 9, 54, 56
1, 103428, Note_on_c, 1, 40, 0
1, 103431, Note_on_c, 7, 69, 0
1, 103441, Note_on_c, 11, 69, 0
1, 103441, Note_on_c, 11, 61, 0
1, 103441, Note_on_c, 11, 57, 0
1, 103445, Note_on_c, 9, 54, 0
1, 103447, Note_on_c, 1, 40, 106
1, 103447, Note_on_c, 7, 64, 82
1, 103447, Note_on_c, 9, 54, 59
1, 103447, Note_on_c, 9, 46, 53
1, 103447, Note_on_c, 11, 57, 78
1, 103447, Note_on_c, 11, 69, 84
1, 103447, Note_on_c, 11, 61, 87
1, 103488, Note_on_c, 7, 64, 0
1, 103490, Note_on_c, 7, 57, 0
1, 103562, Note_on_c, 11, 61, 0
1, 103562, Note_on_c, 11, 57, 0
1, 103562, Note_on_c, 11, 69, 0
1, 103565, Note_on_c, 9, 54, 0
1, 103565, Note_on_c, 9, 46, 0
1, 103567, Note_on_c, 3, 73, 108
1, 103567, Note_on_c, 7, 61, 90
1, 103567, Note_on_c, 9, 54, 54
1, 103567, Note_on_c, 11, 57, 80
1, 103567, Note_on_c, 11, 61, 90
1, 103567, Note_on_c, 11, 69, 66
1, 103567, Lyric_t, "don't "
1, 103578, Note_on_c, 7, 45, 0
1, 103592, Control_c, 10, 11, 126
1, 103600, Control_c, 7, 64, 0
1, 103604, Note_on_c, 5, 64, 0
1, 103613, Note_on_c, 7, 61, 0
1, 103622, Control_c, 10, 11, 125
1, 103626, Note_on_c, 11, 64, 0
1, 103631, Note_on_c, 15, 64, 0
1, 103631, Note_on_c, 4, 64, 0
1, 103639, Note_on_c, 11, 57, 0
1, 103642, Control_c, 10, 11, 124
1, 103647, Note_on_c, 15, 61, 0
1, 103647, Note_on_c, 4, 61, 0
1, 103648, Note_on_c, 11, 69, 0
1, 103649, Note_on_c, 10, 76, 0
1, 103660, Note_on_c, 8, 57, 0
1, 103660, Note_on_c, 10, 81, 0
1, 103661, Note_on_c, 11, 61, 0
1, 103662, Control_c, 10, 11, 123
1, 103667, Note_on_c, 1, 40, 0
1, 103682, Control_c, 10, 11, 122
1, 103685, Note_on_c, 9, 54, 0
1, 103687, Note_on_c, 0, 68, 61
1, 103687, Note_on_c, 1, 44, 90
1, 103687, Note_on_c, 3, 80, 114
1, 103687, Note_on_c, 5, 66, 76
1, 103687, Note_on_c, 5, 63, 74
1, 103687, Note_on_c, 5, 44, 82
1, 103687, Note_on_c, 5, 56, 68
1, 103687, Note_on_c, 6, 80, 76
1, 103687, Note_on_c, 6, 68, 84
1, 103687, Note_on_c, 7, 44, 84
1, 103687, Note_on_c, 7, 68, 105
1, 103687, Note_on_c, 8, 44, 72
1, 103687, Note_on_c, 9, 49, 81
1, 103687, Note_on_c, 9, 36, 101
1, 103687, Note_on_c, 10, 80, 72
1, 103687, Note_on_c, 10, 75, 49
1, 103687, Note_on_c, 11, 56, 105
1, 103687, Note_on_c, 11, 68, 96
1, 103687, Note_on_c, 11, 61, 105
1, 103687, Note_on_c, 13, 44, 99
1, 103687, Note_on_c, 13, 51, 87
1, 103687, Lyric_t, "let "
1, 103689, Note_on_c, 3, 73, 0
1, 103697, Note_on_c, 5, 69, 0
1, 103701, Note_on_c, 13, 45, 0
1, 103708, Note_on_c, 0, 69, 0
1, 103712, Control_c, 10, 11, 121
1, 103724, Note_on_c, 13, 52, 0
1, 103727, Note_on_c, 6, 69, 0
1, 103727, Note_on_c, 10, 85, 0
1, 103732, Control_c, 10, 11, 120
1, 103733, Note_on_c, 6, 81, 0
1, 103737, Control_c, 7, 64, 127
1, 103752, Control_c, 10, 11, 119
1, 103768, Note_on_c, 5, 57, 0
1, 103772, Control_c, 10, 11, 118
1, 103792, Control_c, 10, 11, 117
1, 103805, Note_on_c, 9, 36, 0
1, 103805, Note_on_c, 9, 49, 0
1, 103807, Note_on_c, 7, 51, 64
1, 103810, Control_c, 6, 11, 126
1, 103822, Control_c, 10, 11, 116
1, 103840, Control_c, 6, 11, 125
1, 103842, Control_c, 10, 11, 115
1, 103860, Control_c, 6, 11, 124
1, 103862, Control_c, 10, 11, 114
1, 103880, Control_c, 6, 11, 123
1, 103882, Control_c, 10, 11, 113
1, 103900, Control_c, 6, 11, 122
1, 103902, Control_c, 10, 11, 112
1, 103912, Control_c, 13, 11, 126
1, 103919, Note_on_c, 5, 66, 0
1, 103920, Control_c, 6, 11, 121
1, 103927, Note_on_c, 5, 68, 72
1, 103927, Note_on_c, 7, 56, 96
1, 103932, Control_c, 10, 11, 111
1, 103940, Control_c, 6, 11, 120
1, 103942, Control_c, 13, 11, 125
1, 103952, Control_c, 10, 11, 110
1, 103960, Control_c, 6, 11, 119
1, 103962, Control_c, 13, 11, 124
1, 103972, Control_c, 10, 11, 109
1, 103974, Control_c, 5, 11, 125
1, 103980, Control_c, 6, 11, 118
1, 103982, Control_c, 13, 11, 123
1, 103992, Control_c, 10, 11, 108
1, 103994, Control_c, 5, 11, 124
1, 104002, Control_c, 13, 11, 122
1, 104010, Control_c, 6, 11, 117
1, 104012, Control_c, 10, 11, 107
1, 104015, Control_c, 5, 11, 123
1, 104022, Control_c, 13, 11, 121
1, 104030, Control_c, 6, 11, 116
1, 104035, Control_c, 5, 11, 122
1, 104042, Control_c, 10, 11, 106
1, 104042, Control_c, 13, 11, 120
1, 104047, Note_on_c, 3, 78, 93
1, 104047, Note_on_c, 7, 61, 61
1, 104047, Lyric_t, "me "
1, 104050, Control_c, 6, 11, 115
1, 104055, Control_c, 5, 11, 121
1, 104059, Note_on_c, 3, 80, 0
1, 104062, Control_c, 10, 11, 105
1, 104062, Control_c, 13, 11, 119
1, 104070, Control_c, 6, 11, 114
1, 104076, Note_on_c, 7, 68, 0
1, 104076, Control_c, 5, 11, 120
1, 104082, Control_c, 10, 11, 104
1, 104082, Control_c, 13, 11, 118
1, 104090, Control_c, 6, 11, 113
1, 104096, Control_c, 5, 11, 119
1, 104102, Control_c, 10, 11, 103
1, 104102, Control_c, 13, 11, 117
1, 104110, Control_c, 6, 11, 112
1, 104117, Control_c, 5, 11, 118
1, 104122, Control_c, 10, 11, 102
1, 104127, Note_on_c, 7, 61, 0
1, 104130, Control_c, 6, 11, 111
1, 104132, Control_c, 13, 11, 116
1, 104137, Control_c, 5, 11, 117
1, 104150, Control_c, 6, 11, 110
1, 104152, Control_c, 10, 11, 101
1, 104152, Control_c, 13, 11, 115
1, 104158, Control_c, 5, 11, 116
1, 104159, Note_on_c, 3, 78, 0
1, 104167, Note_on_c, 3, 78, 102
1, 104167, Note_on_c, 7, 61, 84
1, 104167, Note_on_c, 7, 63, 90
1, 104167, Lyric_t, "down. "
1, 104167, Lyric_t, "\015"
1, 104170, Control_c, 6, 11, 109
1, 104172, Control_c, 10, 11, 100
1, 104172, Control_c, 13, 11, 114
1, 104173, Control_c, 5, 11, 115
1, 104187, Control_c, 8, 11, 126
1, 104192, Control_c, 10, 11, 99
1, 104192, Control_c, 13, 11, 113
1, 104193, Control_c, 5, 11, 114
1, 104200, Control_c, 6, 11, 108
1, 104207, Control_c, 8, 11, 125
1, 104212, Control_c, 10, 11, 98
1, 104212, Control_c, 13, 11, 112
1, 104214, Control_c, 5, 11, 113
1, 104220, Control_c, 6, 11, 107
1, 104227, Control_c, 8, 11, 124
1, 104232, Control_c, 10, 11, 97
1, 104232, Control_c, 13, 11, 111
1, 104234, Control_c, 5, 11, 112
1, 104240, Control_c, 6, 11, 106
1, 104247, Control_c, 8, 11, 123
1, 104252, Control_c, 13, 11, 110
1, 104255, Control_c, 5, 11, 111
1, 104260, Control_c, 6, 11, 105
1, 104262, Control_c, 10, 11, 96
1, 104267, Control_c, 8, 11, 122
1, 104272, Control_c, 13, 11, 109
1, 104275, Control_c, 5, 11, 110
1, 104280, Control_c, 6, 11, 104
1, 104282, Control_c, 10, 11, 95
1, 104287, Control_c, 8, 11, 121
1, 104292, Control_c, 13, 11, 108
1, 104295, Control_c, 5, 11, 109
1, 104300, Control_c, 6, 11, 103
1, 104302, Control_c, 10, 11, 94
1, 104307, Control_c, 8, 11, 120
1, 104312, Control_c, 13, 11, 107
1, 104316, Control_c, 5, 11, 108
1, 104320, Control_c, 6, 11, 102
1, 104322, Control_c, 10, 11, 93
1, 104327, Control_c, 8, 11, 119
1, 104336, Control_c, 5, 11, 107
1, 104340, Control_c, 6, 11, 101
1, 104342, Control_c, 10, 11, 92
1, 104342, Control_c, 13, 11, 106
1, 104347, Control_c, 8, 11, 118
1, 104352, Control_c, 5, 11, 106
1, 104360, Control_c, 6, 11, 100
1, 104362, Control_c, 13, 11, 105
1, 104367, Control_c, 8, 11, 117
1, 104372, Control_c, 5, 11, 105
1, 104372, Control_c, 10, 11, 91
1, 104382, Control_c, 13, 11, 104
1, 104384, Note_on_c, 7, 56, 0
1, 104387, Control_c, 8, 11, 116
1, 104390, Control_c, 6, 11, 99
1, 104392, Control_c, 5, 11, 104
1, 104392, Control_c, 10, 11, 90
1, 104394, Note_on_c, 3, 78, 0
1, 104402, Control_c, 13, 11, 103
1, 104407, Note_on_c, 3, 76, 84
1, 104407, Control_c, 8, 11, 115
1, 104410, Control_c, 6, 11, 98
1, 104412, Control_c, 10, 11, 89
1, 104413, Control_c, 5, 11, 103
1, 104422, Control_c, 13, 11, 102
1, 104427, Control_c, 8, 11, 114
1, 104430, Control_c, 6, 11, 97
1, 104432, Control_c, 10, 11, 88
1, 104433, Control_c, 5, 11, 102
1, 104442, Control_c, 13, 11, 101
1, 104447, Control_c, 8, 11, 113
1, 104450, Control_c, 6, 11, 96
1, 104452, Control_c, 10, 11, 87
1, 104454, Control_c, 5, 11, 101
1, 104462, Control_c, 13, 11, 100
1, 104467, Control_c, 8, 11, 112
1, 104470, Control_c, 6, 11, 95
1, 104474, Control_c, 5, 11, 100
1, 104482, Control_c, 10, 11, 86
1, 104482, Control_c, 13, 11, 99
1, 104487, Control_c, 8, 11, 111
1, 104490, Control_c, 6, 11, 94
1, 104495, Control_c, 5, 11, 99
1, 104502, Control_c, 10, 11, 85
1, 104502, Control_c, 13, 11, 98
1, 104507, Control_c, 8, 11, 109
1, 104510, Control_c, 6, 11, 93
1, 104515, Control_c, 5, 11, 98
1, 104522, Control_c, 10, 11, 84
1, 104522, Control_c, 13, 11, 97
1, 104527, Note_on_c, 3, 75, 84
1, 104527, Control_c, 8, 11, 108
1, 104530, Control_c, 5, 11, 97
1, 104530, Control_c, 6, 11, 92
1, 104542, Control_c, 10, 11, 83
1, 104547, Control_c, 8, 11, 107
1, 104551, Control_c, 5, 11, 96
1, 104552, Control_c, 13, 11, 96
1, 104560, Control_c, 6, 11, 91
1, 104562, Control_c, 10, 11, 82
1, 104567, Control_c, 8, 11, 106
1, 104571, Control_c, 5, 11, 95
1, 104572, Control_c, 13, 11, 95
1, 104580, Control_c, 6, 11, 90
1, 104586, Note_on_c, 3, 76, 0
1, 104587, Control_c, 8, 11, 105
1, 104592, Control_c, 5, 11, 94
1, 104592, Control_c, 10, 11, 81
1, 104592, Control_c, 13, 11, 94
1, 104600, Control_c, 6, 11, 89
1, 104607, Control_c, 8, 11, 104
1, 104612, Control_c, 5, 11, 93
1, 104612, Control_c, 10, 11, 80
1, 104612, Control_c, 13, 11, 93
1, 104618, Note_on_c, 11, 61, 0
1, 104620, Control_c, 6, 11, 88
1, 104625, Note_on_c, 5, 61, 0
1, 104627, Control_c, 8, 11, 103
1, 104632, Control_c, 5, 11, 92
1, 104632, Control_c, 10, 11, 79
1, 104632, Control_c, 13, 11, 92
1, 104638, Note_on_c, 7, 61, 0
1, 104640, Control_c, 6, 11, 87
1, 104647, Note_on_c, 0, 60, 31
1, 104647, Note_on_c, 5, 60, 25
1, 104647, Note_on_c, 7, 60, 68
1, 104647, Note_on_c, 7, 56, 50
1, 104647, Control_c, 8, 11, 102
1, 104647, Note_on_c, 11, 60, 66
1, 104647, Note_on_c, 13, 56, 10
1, 104652, Note_on_c, 0, 61, 0
1, 104652, Control_c, 10, 11, 78
1, 104652, Control_c, 13, 11, 91
1, 104653, Control_c, 5, 11, 91
1, 104660, Control_c, 6, 11, 86
1, 104667, Control_c, 8, 11, 101
1, 104672, Control_c, 10, 11, 77
1, 104672, Control_c, 13, 11, 90
1, 104673, Control_c, 5, 11, 90
1, 104680, Control_c, 6, 11, 85
1, 104687, Control_c, 8, 11, 100
1, 104692, Control_c, 13, 11, 89
1, 104694, Control_c, 5, 11, 89
1, 104700, Control_c, 6, 11, 84
1, 104702, Control_c, 10, 11, 76
1, 104706, Control_c, 7, 64, 0
1, 104707, Control_c, 8, 11, 99
1, 104709, Control_c, 5, 11, 88
1, 104712, Control_c, 13, 11, 88
1, 104720, Control_c, 6, 11, 83
1, 104722, Control_c, 10, 11, 75
1, 104727, Control_c, 8, 11, 98
1, 104729, Control_c, 5, 11, 87
1, 104732, Control_c, 13, 11, 87
1, 104742, Control_c, 0, 11, 126
1, 104742, Control_c, 10, 11, 74
1, 104747, Control_c, 8, 11, 97
1, 104750, Control_c, 5, 11, 86
1, 104750, Control_c, 6, 11, 82
1, 104762, Control_c, 0, 11, 125
1, 104762, Control_c, 10, 11, 73
1, 104762, Control_c, 13, 11, 86
1, 104767, Control_c, 8, 11, 96
1, 104770, Control_c, 5, 11, 85
1, 104770, Control_c, 6, 11, 81
1, 104782, Control_c, 0, 11, 124
1, 104782, Control_c, 10, 11, 72
1, 104782, Control_c, 13, 11, 85
1, 104787, Control_c, 8, 11, 95
1, 104790, Control_c, 6, 11, 80
1, 104791, Control_c, 5, 11, 84
1, 104792, Control_c, 0, 11, 123
1, 104802, Control_c, 13, 11, 84
1, 104807, Control_c, 8, 11, 94
1, 104810, Control_c, 6, 11, 79
1, 104811, Control_c, 5, 11, 83
1, 104812, Control_c, 0, 11, 122
1, 104812, Control_c, 10, 11, 71
1, 104822, Control_c, 0, 11, 121
1, 104822, Control_c, 13, 11, 83
1, 104827, Control_c, 8, 11, 92
1, 104830, Control_c, 6, 11, 78
1, 104832, Control_c, 5, 11, 82
1, 104832, Control_c, 10, 11, 70
1, 104842, Control_c, 0, 11, 120
1, 104842, Control_c, 13, 11, 82
1, 104847, Control_c, 8, 11, 91
1, 104850, Control_c, 6, 11, 77
1, 104852, Control_c, 0, 11, 119
1, 104852, Control_c, 5, 11, 81
1, 104852, Control_c, 10, 11, 69
1, 104862, Control_c, 13, 11, 81
1, 104867, Control_c, 8, 11, 90
1, 104870, Control_c, 6, 11, 76
1, 104872, Control_c, 0, 11, 118
1, 104872, Control_c, 5, 11, 80
1, 104872, Control_c, 10, 11, 68
1, 104882, Control_c, 0, 11, 117
1, 104882, Control_c, 13, 11, 80
1, 104887, Control_c, 8, 11, 89
1, 104890, Control_c, 6, 11, 75
1, 104892, Control_c, 10, 11, 67
1, 104893, Control_c, 5, 11, 79
1, 104902, Control_c, 0, 11, 116
1, 104902, Control_c, 13, 11, 79
1, 104907, Control_c, 8, 11, 88
1, 104908, Control_c, 5, 11, 78
1, 104910, Control_c, 6, 11, 74
1, 104912, Control_c, 0, 11, 115
1, 104922, Control_c, 10, 11, 66
1, 104922, Control_c, 13, 11, 78
1, 104927, Control_c, 8, 11, 87
1, 104929, Control_c, 5, 11, 77
1, 104932, Control_c, 0, 11, 114
1, 104940, Control_c, 6, 11, 73
1, 104942, Control_c, 0, 11, 113
1, 104942, Control_c, 10, 11, 65
1, 104942, Control_c, 13, 11, 77
1, 104947, Control_c, 8, 11, 86
1, 104949, Control_c, 5, 11, 76
1, 104960, Control_c, 6, 11, 72
1, 104962, Control_c, 0, 11, 112
1, 104962, Control_c, 10, 11, 64
1, 104963, Note_on_c, 5, 63, 0
1, 104964, Note_on_c, 5, 56, 0
1, 104967, Control_c, 8, 11, 85
1, 104969, Control_c, 5, 11, 75
1, 104972, Control_c, 13, 11, 76
1, 104980, Control_c, 6, 11, 71
1, 104982, Control_c, 0, 11, 111
1, 104982, Control_c, 10, 11, 63
1, 104987, Control_c, 8, 11, 84
1, 104990, Control_c, 5, 11, 74
1, 104992, Control_c, 0, 11, 110
1, 104992, Control_c, 13, 11, 75
1, 105000, Control_c, 6, 11, 70
1, 105002, Control_c, 10, 11, 62
1, 105007, Control_c, 8, 11, 83
1, 105010, Control_c, 5, 11, 73
1, 105012, Control_c, 0, 11, 109
1, 105012, Control_c, 13, 11, 74
1, 105020, Control_c, 6, 11, 69
1, 105022, Control_c, 0, 11, 108
1, 105027, Control_c, 8, 11, 82
1, 105031, Control_c, 5, 11, 72
1, 105032, Control_c, 10, 11, 61
1, 105032, Control_c, 13, 11, 73
1, 105040, Control_c, 6, 11, 68
1, 105042, Control_c, 0, 11, 107
1, 105047, Control_c, 8, 11, 81
1, 105051, Control_c, 5, 11, 71
1, 105052, Control_c, 0, 11, 106
1, 105052, Control_c, 10, 11, 60
1, 105052, Control_c, 13, 11, 72
1, 105060, Control_c, 6, 11, 67
1, 105067, Control_c, 8, 11, 80
1, 105072, Control_c, 0, 11, 105
1, 105072, Control_c, 5, 11, 70
1, 105072, Control_c, 10, 11, 59
1, 105072, Control_c, 13, 11, 71
1, 105080, Control_c, 6, 11, 66
1, 105082, Control_c, 0, 11, 104
1, 105087, Control_c, 5, 11, 69
1, 105087, Control_c, 8, 11, 79
1, 105092, Control_c, 10, 11, 58
1, 105092, Control_c, 13, 11, 70
1, 105102, Control_c, 0, 11, 103
1, 105107, Control_c, 5, 11, 68
1, 105107, Control_c, 8, 11, 78
1, 105110, Control_c, 6, 11, 65
1, 105112, Control_c, 0, 11, 102
1, 105112, Control_c, 10, 11, 57
1, 105112, Control_c, 13, 11, 69
1, 105127, Control_c, 8, 11, 77
1, 105128, Control_c, 5, 11, 67
1, 105130, Control_c, 6, 11, 64
1, 105132, Control_c, 0, 11, 101
1, 105132, Control_c, 13, 11, 68
1, 105142, Control_c, 0, 11, 100
1, 105142, Control_c, 10, 11, 56
1, 105147, Control_c, 8, 11, 75
1, 105148, Control_c, 5, 11, 66
1, 105150, Control_c, 6, 11, 63
1, 105152, Control_c, 13, 11, 67
1, 105162, Control_c, 0, 11, 99
1, 105162, Control_c, 10, 11, 55
1, 105167, Control_c, 8, 11, 74
1, 105169, Control_c, 5, 11, 65
1, 105170, Control_c, 6, 11, 62
1, 105173, Note_on_c, 3, 75, 0
1, 105182, Control_c, 0, 11, 98
1, 105182, Control_c, 10, 11, 54
1, 105182, Control_c, 13, 11, 66
1, 105187, Control_c, 8, 11, 73
1, 105189, Control_c, 5, 11, 64
1, 105190, Control_c, 6, 11, 61
1, 105192, Control_c, 0, 11, 97
1, 105202, Control_c, 10, 11, 53
1, 105202, Control_c, 13, 11, 65
1, 105207, Control_c, 8, 11, 72
1, 105209, Control_c, 5, 11, 63
1, 105210, Control_c, 6, 11, 60
1, 105212, Control_c, 0, 11, 96
1, 105222, Control_c, 0, 11, 95
1, 105222, Control_c, 10, 11, 52
1, 105222, Control_c, 13, 11, 64
1, 105227, Control_c, 8, 11, 71
1, 105230, Control_c, 5, 11, 62
1, 105230, Control_c, 6, 11, 59
1, 105242, Control_c, 0, 11, 94
1, 105242, Control_c, 13, 11, 63
1, 105247, Control_c, 8, 11, 70
1, 105250, Control_c, 5, 11, 61
1, 105250, Control_c, 6, 11, 58
1, 105252, Control_c, 0, 11, 93
1, 105252, Control_c, 10, 11, 51
1, 105262, Control_c, 13, 11, 62
1, 105266, Control_c, 5, 11, 60
1, 105267, Control_c, 8, 11, 69
1, 105270, Control_c, 6, 11, 57
1, 105272, Control_c, 0, 11, 92
1, 105272, Control_c, 10, 11, 50
1, 105282, Control_c, 0, 11, 91
1, 105282, Control_c, 13, 11, 61
1, 105286, Control_c, 5, 11, 59
1, 105287, Control_c, 8, 11, 68
1, 105292, Control_c, 10, 11, 49
1, 105300, Control_c, 6, 11, 56
1, 105302, Control_c, 0, 11, 90
1, 105302, Control_c, 13, 11, 60
1, 105306, Control_c, 5, 11, 58
1, 105307, Control_c, 8, 11, 67
1, 105312, Control_c, 0, 11, 89
1, 105312, Control_c, 10, 11, 48
1, 105320, Control_c, 6, 11, 55
1, 105322, Control_c, 13, 11, 59
1, 105327, Control_c, 5, 11, 57
1, 105327, Control_c, 8, 11, 66
1, 105332, Control_c, 0, 11, 88
1, 105332, Control_c, 10, 11, 47
1, 105340, Control_c, 6, 11, 54
1, 105342, Control_c, 0, 11, 87
1, 105342, Control_c, 13, 11, 58
1, 105347, Control_c, 5, 11, 56
1, 105347, Control_c, 8, 11, 65
1, 105360, Control_c, 6, 11, 53
1, 105362, Control_c, 0, 11, 86
1, 105362, Control_c, 10, 11, 46
1, 105367, Control_c, 8, 11, 64
1, 105368, Control_c, 5, 11, 55
1, 105372, Control_c, 13, 11, 57
1, 105375, Note_on_c, 5, 60, 0
1, 105380, Note_on_c, 5, 68, 0
1, 105380, Control_c, 6, 11, 52
1, 105382, Control_c, 0, 11, 85
1, 105382, Control_c, 10, 11, 45
1, 105387, Control_c, 8, 11, 63
1, 105388, Control_c, 5, 11, 54
1, 105392, Control_c, 0, 11, 84
1, 105392, Control_c, 13, 11, 56
1, 105400, Control_c, 6, 11, 51
1, 105402, Control_c, 10, 11, 44
1, 105407, Control_c, 8, 11, 62
1, 105409, Control_c, 5, 11, 53
1, 105412, Control_c, 0, 11, 83
1, 105412, Control_c, 13, 11, 55
1, 105420, Control_c, 6, 11, 50
1, 105422, Control_c, 0, 11, 82
1, 105422, Control_c, 10, 11, 43
1, 105427, Control_c, 8, 11, 61
1, 105429, Control_c, 5, 11, 52
1, 105432, Control_c, 13, 11, 54
1, 105440, Control_c, 6, 11, 49
1, 105442, Control_c, 0, 11, 81
1, 105442, Control_c, 10, 11, 42
1, 105444, Control_c, 5, 11, 51
1, 105447, Control_c, 8, 11, 59
1, 105452, Control_c, 0, 11, 80
1, 105452, Control_c, 13, 11, 53
1, 105460, Control_c, 6, 11, 48
1, 105465, Control_c, 5, 11, 50
1, 105467, Control_c, 8, 11, 58
1, 105472, Control_c, 0, 11, 79
1, 105472, Control_c, 10, 11, 41
1, 105472, Control_c, 13, 11, 52
1, 105482, Control_c, 0, 11, 78
1, 105485, Control_c, 5, 11, 49
1, 105487, Control_c, 8, 11, 57
1, 105490, Control_c, 6, 11, 47
1, 105492, Control_c, 10, 11, 40
1, 105492, Control_c, 13, 11, 51
1, 105502, Control_c, 0, 11, 77
1, 105506, Control_c, 5, 11, 48
1, 105507, Control_c, 8, 11, 56
1, 105510, Control_c, 6, 11, 46
1, 105512, Control_c, 0, 11, 76
1, 105512, Control_c, 10, 11, 39
1, 105512, Control_c, 13, 11, 50
1, 105526, Control_c, 5, 11, 47
1, 105527, Control_c, 8, 11, 55
1, 105530, Control_c, 6, 11, 45
1, 105532, Control_c, 0, 11, 75
1, 105532, Control_c, 10, 11, 38
1, 105532, Control_c, 13, 11, 49
1, 105542, Control_c, 0, 11, 74
1, 105546, Control_c, 5, 11, 46
1, 105547, Control_c, 8, 11, 54
1, 105550, Control_c, 6, 11, 44
1, 105552, Control_c, 10, 11, 37
1, 105552, Control_c, 13, 11, 48
1, 105562, Control_c, 0, 11, 73
1, 105567, Control_c, 5, 11, 45
1, 105567, Control_c, 8, 11, 53
1, 105570, Control_c, 6, 11, 43
1, 105582, Control_c, 0, 11, 72
1, 105582, Control_c, 10, 11, 36
1, 105582, Control_c, 13, 11, 47
1, 105587, Control_c, 5, 11, 44
1, 105587, Control_c, 8, 11, 52
1, 105590, Control_c, 6, 11, 42
1, 105592, Control_c, 0, 11, 71
1, 105602, Time_signature, 2, 2, 24, 8
1, 105602, Control_c, 10, 11, 35
1, 105602, Control_c, 13, 11, 46
1, 105607, Control_c, 8, 11, 51
1, 105608, Control_c, 5, 11, 43
1, 105610, Control_c, 6, 11, 41
1, 105612, Control_c, 0, 11, 70
1, 105622, Control_c, 0, 11, 69
1, 105622, Control_c, 10, 11, 34
1, 105622, Control_c, 13, 11, 45
1, 105627, Control_c, 8, 11, 50
1, 105628, Control_c, 5, 11, 42
1, 105630, Control_c, 6, 11, 40
1, 105642, Control_c, 0, 11, 68
1, 105642, Control_c, 10, 11, 33
1, 105642, Control_c, 13, 11, 44
1, 105643, Control_c, 5, 11, 41
1, 105647, Control_c, 8, 11, 49
1, 105652, Control_c, 0, 11, 67
1, 105660, Control_c, 6, 11, 39
1, 105662, Control_c, 10, 11, 32
1, 105662, Control_c, 13, 11, 43
1, 105664, Control_c, 5, 11, 40
1, 105667, Control_c, 8, 11, 48
1, 105672, Control_c, 0, 11, 66
1, 105680, Control_c, 6, 11, 38
1, 105682, Control_c, 0, 11, 65
1, 105682, Control_c, 13, 11, 42
1, 105684, Control_c, 5, 11, 39
1, 105687, Control_c, 8, 11, 47
1, 105692, Control_c, 10, 11, 31
1, 105700, Control_c, 6, 11, 37
1, 105702, Control_c, 0, 11, 64
1, 105702, Control_c, 13, 11, 41
1, 105705, Control_c, 5, 11, 38
1, 105707, Control_c, 8, 11, 46
1, 105712, Control_c, 0, 11, 63
1, 105712, Control_c, 10, 11, 30
1, 105720, Control_c, 6, 11, 36
1, 105722, Control_c, 13, 11, 40
1, 105725, Control_c, 5, 11, 37
1, 105727, Control_c, 8, 11, 45
1, 105732, Control_c, 0, 11, 62
1, 105732, Control_c, 10, 11, 29
1, 105740, Control_c, 6, 11, 35
1, 105742, Control_c, 0, 11, 61
1, 105742, Control_c, 13, 11, 39
1, 105746, Control_c, 5, 11, 36
1, 105747, Control_c, 8, 11, 44
1, 105752, Control_c, 10, 11, 28
1, 105760, Control_c, 6, 11, 34
1, 105762, Control_c, 0, 11, 60
1, 105762, Control_c, 13, 11, 38
1, 105766, Control_c, 5, 11, 35
1, 105767, Control_c, 8, 11, 42
1, 105772, Control_c, 10, 11, 27
1, 105780, Control_c, 6, 11, 33
1, 105782, Control_c, 0, 11, 59
1, 105786, Control_c, 5, 11, 34
1, 105787, Control_c, 8, 11, 41
1, 105792, Control_c, 0, 11, 58
1, 105792, Control_c, 13, 11, 37
1, 105800, Control_c, 6, 11, 32
1, 105802, Control_c, 10, 11, 26
1, 105807, Control_c, 5, 11, 33
1, 105807, Control_c, 8, 11, 40
1, 105812, Control_c, 0, 11, 57
1, 105812, Control_c, 13, 11, 36
1, 105820, Control_c, 6, 11, 31
1, 105822, Control_c, 0, 11, 56
1, 105822, Control_c, 5, 11, 32
1, 105822, Control_c, 10, 11, 25
1, 105827, Control_c, 8, 11, 39
1, 105832, Control_c, 13, 11, 35
1, 105842, Control_c, 0, 11, 55
1, 105842, Control_c, 10, 11, 24
1, 105843, Control_c, 5, 11, 31
1, 105847, Control_c, 8, 11, 38
1, 105850, Control_c, 6, 11, 30
1, 105852, Control_c, 0, 11, 54
1, 105852, Control_c, 13, 11, 34
1, 105862, Control_c, 10, 11, 23
1, 105863, Control_c, 5, 11, 30
1, 105867, Control_c, 8, 11, 37
1, 105870, Control_c, 6, 11, 29
1, 105872, Control_c, 0, 11, 53
1, 105872, Control_c, 13, 11, 33
1, 105882, Control_c, 0, 11, 52
1, 105882, Control_c, 10, 11, 22
1, 105883, Control_c, 5, 11, 29
1, 105887, Control_c, 8, 11, 36
1, 105890, Control_c, 6, 11, 28
1, 105892, Control_c, 13, 11, 32
1, 105902, Control_c, 0, 11, 51
1, 105904, Control_c, 5, 11, 28
1, 105907, Control_c, 8, 11, 35
1, 105910, Control_c, 6, 11, 27
1, 105912, Control_c, 0, 11, 50
1, 105912, Control_c, 10, 11, 21
1, 105912, Control_c, 13, 11, 31
1, 105924, Control_c, 5, 11, 27
1, 105927, Control_c, 8, 11, 34
1, 105930, Control_c, 6, 11, 26
1, 105932, Control_c, 0, 11, 49
1, 105932, Control_c, 10, 11, 20
1, 105932, Control_c, 13, 11, 30
1, 105942, Control_c, 0, 11, 48
1, 105945, Control_c, 5, 11, 26
1, 105947, Control_c, 8, 11, 33
1, 105950, Control_c, 6, 11, 25
1, 105952, Control_c, 10, 11, 19
1, 105952, Control_c, 13, 11, 29
1, 105962, Control_c, 0, 11, 47
1, 105965, Control_c, 5, 11, 25
1, 105967, Control_c, 8, 11, 32
1, 105970, Control_c, 6, 11, 24
1, 105972, Control_c, 10, 11, 18
1, 105972, Control_c, 13, 11, 28
1, 105982, Control_c, 0, 11, 46
1, 105986, Control_c, 5, 11, 24
1, 105987, Control_c, 8, 11, 31
1, 105990, Control_c, 6, 11, 23
1, 105992, Control_c, 0, 11, 45
1, 105992, Control_c, 10, 11, 17
1, 106001, Control_c, 5, 11, 23
1, 106002, Control_c, 13, 11, 27
1, 106007, Control_c, 8, 11, 30
1, 106010, Control_c, 6, 11, 22
1, 106012, Control_c, 0, 11, 44
1, 106021, Control_c, 5, 11, 22
1, 106022, Control_c, 0, 11, 43
1, 106022, Control_c, 10, 11, 16
1, 106022, Control_c, 13, 11, 26
1, 106027, Control_c, 8, 11, 29
1, 106040, Control_c, 6, 11, 21
1, 106042, Control_c, 0, 11, 42
1, 106042, Control_c, 5, 11, 21
1, 106042, Control_c, 10, 11, 15
1, 106042, Control_c, 13, 11, 25
1, 106047, Control_c, 8, 11, 28
1, 106052, Control_c, 0, 11, 41
1, 106060, Control_c, 6, 11, 20
1, 106062, Control_c, 5, 11, 20
1, 106062, Control_c, 10, 11, 14
1, 106062, Control_c, 13, 11, 24
1, 106067, Control_c, 8, 11, 27
1, 106072, Control_c, 0, 11, 40
1, 106080, Control_c, 6, 11, 19
1, 106082, Control_c, 0, 11, 39
1, 106082, Control_c, 10, 11, 13
1, 106082, Control_c, 13, 11, 23
1, 106083, Control_c, 5, 11, 19
1, 106087, Control_c, 8, 11, 25
1, 106098, Note_on_c, 10, 75, 0
1, 106100, Control_c, 6, 11, 18
1, 106102, Control_c, 0, 11, 38
1, 106102, Control_c, 10, 11, 12
1, 106102, Control_c, 13, 11, 22
1, 106103, Control_c, 5, 11, 18
1, 106105, Note_on_c, 10, 80, 0
1, 106107, Control_c, 8, 11, 24
1, 106112, Control_c, 0, 11, 37
1, 106120, Control_c, 6, 11, 17
1, 106122, Control_c, 13, 11, 21
1, 106123, Control_c, 5, 11, 17
1, 106127, Control_c, 8, 11, 23
1, 106132, Control_c, 0, 11, 36
1, 106132, Control_c, 10, 11, 11
1, 106140, Control_c, 6, 11, 16
1, 106142, Control_c, 0, 11, 35
1, 106142, Control_c, 13, 11, 20
1, 106144, Control_c, 5, 11, 16
1, 106147, Control_c, 8, 11, 22
1, 106152, Control_c, 10, 11, 10
1, 106159, Note_on_c, 6, 80, 0
1, 106160, Note_on_c, 11, 56, 0
1, 106160, Control_c, 6, 11, 15
1, 106162, Control_c, 0, 11, 34
1, 106162, Control_c, 13, 11, 19
1, 106164, Control_c, 5, 11, 15
1, 106167, Control_c, 8, 11, 21
1, 106172, Control_c, 10, 11, 9
1, 106180, Control_c, 5, 11, 14
1, 106180, Control_c, 6, 11, 14
1, 106182, Control_c, 0, 11, 33
1, 106182, Control_c, 13, 11, 18
1, 106187, Control_c, 8, 11, 20
1, 106192, Control_c, 0, 11, 32
1, 106192, Control_c, 10, 11, 8
1, 106200, Control_c, 5, 11, 13
1, 106200, Control_c, 6, 11, 13
1, 106207, Note_on_c, 6, 68, 0
1, 106207, Control_c, 8, 11, 19
1, 106207, Note_on_c, 12, 56, 108
1, 106212, Control_c, 0, 11, 31
1, 106212, Control_c, 10, 11, 7
1, 106212, Control_c, 13, 11, 17
1, 106220, Control_c, 5, 11, 12
1, 106222, Control_c, 0, 11, 30
1, 106227, Control_c, 8, 11, 18
1, 106230, Note_on_c, 11, 68, 0
1, 106232, Control_c, 13, 11, 16
1, 106238, Note_on_c, 11, 68, 76
1, 106241, Control_c, 5, 11, 11
1, 106242, Control_c, 0, 11, 29
1, 106247, Control_c, 8, 11, 17
1, 106252, Control_c, 0, 11, 28
1, 106252, Control_c, 13, 11, 15
1, 106260, Note_on_c, 11, 60, 0
1, 106261, Control_c, 5, 11, 10
1, 106267, Control_c, 8, 11, 16
1, 106272, Control_c, 0, 11, 27
1, 106272, Control_c, 13, 11, 14
1, 106282, Control_c, 0, 11, 26
1, 106282, Control_c, 5, 11, 9
1, 106287, Control_c, 8, 11, 15
1, 106292, Control_c, 13, 11, 13
1, 106302, Control_c, 0, 11, 25
1, 106302, Control_c, 5, 11, 8
1, 106307, Control_c, 8, 11, 14
1, 106312, Control_c, 0, 11, 24
1, 106312, Control_c, 13, 11, 12
1, 106323, Control_c, 5, 11, 7
1, 106327, Control_c, 8, 11, 13
1, 106327, Note_on_c, 12, 51, 87
1, 106332, Control_c, 0, 11, 23
1, 106332, Control_c, 13, 11, 11
1, 106338, Note_on_c, 11, 68, 0
1, 106342, Control_c, 0, 11, 22
1, 106342, Note_on_c, 11, 63, 68
1, 106343, Control_c, 5, 11, 6
1, 106346, Note_on_c, 12, 56, 0
1, 106347, Control_c, 8, 11, 12
1, 106352, Control_c, 13, 11, 10
1, 106358, Control_c, 5, 11, 5
1, 106362, Control_c, 0, 11, 21
1, 106367, Control_c, 8, 11, 11
1, 106371, Note_on_c, 8, 44, 0
1, 106372, Control_c, 13, 11, 9
1, 106382, Control_c, 0, 11, 20
1, 106387, Control_c, 8, 11, 9
1, 106392, Control_c, 0, 11, 19
1, 106392, Control_c, 13, 11, 8
1, 106412, Control_c, 0, 11, 18
1, 106422, Control_c, 0, 11, 17
1, 106427, Note_on_c, 11, 63, 0
1, 106437, Note_on_c, 12, 51, 0
1, 106442, Control_c, 0, 11, 16
1, 106447, Note_on_c, 12, 52, 87
1, 106452, Control_c, 0, 11, 15
1, 106452, Control_c, 6, 11, 63
1, 106460, Note_on_c, 11, 64, 76
1, 106462, Control_c, 6, 11, 64
1, 106463, Note_on_c, 7, 56, 0
1, 106472, Control_c, 0, 11, 14
1, 106472, Control_c, 6, 11, 65
1, 106482, Control_c, 0, 11, 13
1, 106482, Control_c, 6, 11, 66
1, 106492, Control_c, 6, 11, 67
1, 106502, Control_c, 0, 11, 12
1, 106502, Control_c, 6, 11, 69
1, 106505, Note_on_c, 0, 60, 0
1, 106506, Note_on_c, 1, 44, 0
1, 106512, Control_c, 0, 11, 11
1, 106512, Control_c, 6, 11, 70
1, 106522, Control_c, 6, 11, 71
1, 106524, Note_on_c, 7, 51, 0
1, 106532, Note_on_c, 13, 51, 0
1, 106532, Control_c, 0, 11, 10
1, 106532, Control_c, 5, 11, 76
1, 106532, Control_c, 6, 11, 72
1, 106534, Note_on_c, 13, 44, 0
1, 106535, Note_on_c, 0, 68, 0
1, 106540, Note_on_c, 5, 44, 0
1, 106542, Note_on_c, 7, 63, 0
1, 106542, Control_c, 0, 11, 9
1, 106542, Control_c, 5, 11, 77
1, 106542, Control_c, 6, 11, 73
1, 106542, Control_c, 8, 11, 71
1, 106543, Note_on_c, 7, 60, 0
1, 106549, Note_on_c, 7, 44, 0
1, 106552, Control_c, 5, 11, 79
1, 106552, Control_c, 6, 11, 75
1, 106552, Control_c, 8, 11, 73
1, 106562, Time_signature, 4, 2, 24, 8
1, 106562, Control_c, 5, 11, 80
1, 106562, Control_c, 6, 11, 76
1, 106562, Control_c, 8, 11, 76
1, 106567, Note_on_c, 1, 37, 87
1, 106567, Note_on_c, 5, 64, 84
1, 106567, Note_on_c, 5, 56, 76
1, 106567, Note_on_c, 5, 49, 93
1, 106567, Note_on_c, 6, 76, 61
1, 106567, Note_on_c, 6, 68, 72
1, 106567, Note_on_c, 7, 80, 96
1, 106567, Note_on_c, 7, 61, 76
1, 106567, Note_on_c, 8, 64, 99
1, 106567, Note_on_c, 9, 51, 58
1, 106567, Note_on_c, 12, 61, 78
1, 106572, Control_c, 5, 11, 82
1, 106572, Control_c, 6, 11, 77
1, 106572, Control_c, 8, 11, 78
1, 106574, Note_on_c, 11, 64, 0
1, 106578, Note_on_c, 13, 56, 0
1, 106582, Control_c, 5, 11, 83
1, 106582, Control_c, 6, 11, 78
1, 106582, Control_c, 8, 11, 81
1, 106587, Note_on_c, 12, 52, 0
1, 106592, Control_c, 5, 11, 85
1, 106592, Control_c, 6, 11, 79
1, 106592, Control_c, 8, 11, 83
1, 106602, Control_c, 5, 11, 86
1, 106602, Control_c, 6, 11, 81
1, 106602, Control_c, 8, 11, 86
1, 106612, Control_c, 5, 11, 88
1, 106612, Control_c, 6, 11, 82
1, 106612, Control_c, 8, 11, 88
1, 106622, Control_c, 5, 11, 89
1, 106622, Control_c, 6, 11, 83
1, 106622, Control_c, 8, 11, 91
1, 106632, Control_c, 5, 11, 91
1, 106632, Control_c, 6, 11, 84
1, 106632, Control_c, 8, 11, 93
1, 106642, Control_c, 5, 11, 93
1, 106642, Control_c, 6, 11, 85
1, 106642, Control_c, 8, 11, 96
1, 106652, Control_c, 5, 11, 94
1, 106652, Control_c, 6, 11, 87
1, 106652, Control_c, 8, 11, 99
1, 106662, Control_c, 5, 11, 96
1, 106662, Control_c, 6, 11, 88
1, 106662, Control_c, 8, 11, 101
1, 106672, Control_c, 5, 11, 97
1, 106672, Control_c, 6, 11, 89
1, 106672, Control_c, 8, 11, 104
1, 106682, Control_c, 5, 11, 99
1, 106682, Control_c, 6, 11, 90
1, 106682, Control_c, 8, 11, 106
1, 106685, Note_on_c, 9, 51, 0
1, 106687, Note_on_c, 7, 68, 57
1, 106687, Note_on_c, 7, 76, 78
1, 106687, Note_on_c, 12, 68, 64
1, 106692, Control_c, 5, 11, 100
1, 106692, Control_c, 6, 11, 91
1, 106692, Control_c, 8, 11, 109
1, 106702, Control_c, 5, 11, 102
1, 106702, Control_c, 6, 11, 93
1, 106702, Control_c, 8, 11, 111
1, 106712, Control_c, 5, 11, 103
1, 106712, Control_c, 6, 11, 94
1, 106712, Control_c, 8, 11, 114
1, 106722, Control_c, 5, 11, 105
1, 106722, Control_c, 6, 11, 95
1, 106722, Control_c, 8, 11, 116
1, 106732, Control_c, 5, 11, 106
1, 106732, Control_c, 6, 11, 96
1, 106732, Control_c, 8, 11, 119
1, 106742, Control_c, 5, 11, 108
1, 106742, Control_c, 6, 11, 97
1, 106742, Control_c, 8, 11, 121
1, 106752, Control_c, 5, 11, 110
1, 106752, Control_c, 6, 11, 99
1, 106752, Control_c, 8, 11, 124
1, 106762, Control_c, 5, 11, 111
1, 106762, Control_c, 6, 11, 100
1, 106762, Control_c, 8, 11, 127
1, 106772, Control_c, 5, 11, 113
1, 106772, Control_c, 6, 11, 101
1, 106782, Control_c, 5, 11, 114
1, 106782, Control_c, 6, 11, 102
1, 106792, Control_c, 5, 11, 116
1, 106792, Control_c, 6, 11, 103
1, 106802, Control_c, 5, 11, 117
1, 106802, Control_c, 6, 11, 105
1, 106805, Note_on_c, 7, 76, 0
1, 106805, Note_on_c, 7, 80, 0
1, 106807, Note_on_c, 7, 75, 78
1, 106807, Note_on_c, 7, 64, 72
1, 106807, Note_on_c, 9, 51, 48
1, 106812, Control_c, 5, 11, 119
1, 106822, Control_c, 5, 11, 120
1, 106832, Control_c, 5, 11, 122
1, 106842, Control_c, 5, 11, 123
1, 106852, Control_c, 5, 11, 125
1, 106862, Control_c, 5, 11, 127
1, 106900, Control_c, 8, 1, 8
1, 106925, Note_on_c, 9, 51, 0
1, 106925, Note_on_c, 7, 75, 0
1, 106925, Note_on_c, 7, 68, 0
1, 106927, Note_on_c, 5, 63, 84
1, 106927, Note_on_c, 7, 76, 82
1, 106927, Note_on_c, 7, 68, 68
1, 106927, Note_on_c, 8, 63, 74
1, 106927, Note_on_c, 9, 51, 43
1, 106927, Note_on_c, 12, 64, 72
1, 106928, Control_c, 8, 1, 1
1, 106937, Control_c, 8, 1, 0
1, 106945, Note_on_c, 5, 64, 0
1, 106946, Note_on_c, 12, 68, 0
1, 106969, Note_on_c, 8, 64, 0
1, 107045, Note_on_c, 9, 51, 0
1, 107045, Note_on_c, 7, 64, 0
1, 107045, Note_on_c, 7, 61, 0
1, 107045, Note_on_c, 7, 76, 0
1, 107045, Note_on_c, 7, 68, 0
1, 107047, Note_on_c, 5, 61, 90
1, 107047, Note_on_c, 7, 61, 68
1, 107047, Note_on_c, 7, 80, 93
1, 107047, Note_on_c, 8, 61, 96
1, 107047, Note_on_c, 9, 51, 60
1, 107047, Note_on_c, 12, 68, 72
1, 107048, Note_on_c, 12, 61, 0
1, 107050, Note_on_c, 8, 63, 0
1, 107070, Note_on_c, 5, 63, 0
1, 107076, Note_on_c, 12, 64, 0
1, 107165, Note_on_c, 9, 51, 0
1, 107167, Note_on_c, 7, 64, 62
1, 107287, Note_on_c, 5, 64, 84
1, 107287, Note_on_c, 7, 76, 82
1, 107287, Note_on_c, 7, 68, 57
1, 107287, Note_on_c, 8, 56, 84
1, 107287, Note_on_c, 9, 51, 47
1, 107287, Note_on_c, 12, 64, 64
1, 107337, Note_on_c, 5, 61, 0
1, 107340, Note_on_c, 8, 61, 0
1, 107405, Note_on_c, 9, 51, 0
1, 107405, Note_on_c, 7, 64, 0
1, 107407, Note_on_c, 7, 64, 61
1, 107521, Note_on_c, 8, 56, 0
1, 107525, Note_on_c, 7, 80, 0
1, 107525, Note_on_c, 6, 68, 0
1, 107525, Note_on_c, 7, 68, 0
1, 107527, Note_on_c, 1, 35, 76
1, 107527, Note_on_c, 5, 47, 82
1, 107527, Note_on_c, 5, 59, 78
1, 107527, Note_on_c, 5, 66, 87
1, 107527, Note_on_c, 6, 75, 76
1, 107527, Note_on_c, 6, 66, 76
1, 107527, Note_on_c, 7, 78, 96
1, 107527, Note_on_c, 7, 59, 70
1, 107527, Note_on_c, 8, 66, 96
1, 107527, Note_on_c, 9, 51, 60
1, 107527, Note_on_c, 12, 59, 74
1, 107536, Note_on_c, 12, 64, 0
1, 107542, Note_on_c, 1, 37, 0
1, 107573, Note_on_c, 5, 49, 0
1, 107576, Note_on_c, 12, 68, 0
1, 107579, Note_on_c, 5, 64, 0
1, 107584, Note_on_c, 5, 56, 0
1, 107645, Note_on_c, 7, 61, 0
1, 107645, Note_on_c, 7, 76, 0
1, 107645, Note_on_c, 9, 51, 0
1, 107645, Note_on_c, 6, 76, 0
1, 107645, Note_on_c, 7, 64, 0
1, 107647, Note_on_c, 7, 75, 74
1, 107647, Note_on_c, 7, 66, 64
1, 107647, Note_on_c, 12, 66, 52
1, 107765, Note_on_c, 7, 66, 0
1, 107765, Note_on_c, 7, 75, 0
1, 107767, Note_on_c, 7, 73, 87
1, 107767, Note_on_c, 7, 63, 64
1, 107767, Note_on_c, 9, 51, 41
1, 107883, Note_on_c, 12, 66, 0
1, 107885, Note_on_c, 7, 78, 0
1, 107885, Note_on_c, 7, 59, 0
1, 107885, Note_on_c, 9, 51, 0
1, 107887, Note_on_c, 7, 75, 80
1, 107887, Note_on_c, 7, 66, 57
1, 107887, Note_on_c, 9, 51, 44
1, 107887, Note_on_c, 12, 63, 62
1, 107980, Control_c, 8, 1, 8
1, 107985, Note_on_c, 12, 59, 0
1, 108005, Note_on_c, 7, 75, 0
1, 108005, Note_on_c, 7, 73, 0
1, 108005, Note_on_c, 9, 51, 0
1, 108005, Note_on_c, 7, 63, 0
1, 108007, Note_on_c, 5, 63, 78
1, 108007, Note_on_c, 7, 78, 90
1, 108007, Note_on_c, 7, 59, 76
1, 108007, Note_on_c, 9, 51, 60
1, 108007, Note_on_c, 12, 66, 76
1, 108008, Control_c, 8, 1, 17
1, 108054, Control_c, 8, 1, 24
1, 108108, Note_on_c, 12, 63, 0
1, 108125, Note_on_c, 7, 66, 0
1, 108125, Note_on_c, 9, 51, 0
1, 108127, Note_on_c, 7, 75, 76
1, 108127, Note_on_c, 7, 66, 57
1, 108166, Control_c, 8, 1, 32
1, 108222, Control_c, 8, 1, 39
1, 108245, Note_on_c, 7, 66, 0
1, 108245, Note_on_c, 7, 75, 0
1, 108247, Note_on_c, 7, 73, 76
1, 108247, Note_on_c, 7, 63, 74
1, 108247, Note_on_c, 9, 51, 33
1, 108247, Note_on_c, 12, 63, 61
1, 108333, Control_c, 8, 1, 26
1, 108343, Control_c, 8, 1, 18
1, 108352, Control_c, 8, 1, 1
1, 108361, Control_c, 8, 1, 0
1, 108365, Note_on_c, 9, 51, 0
1, 108365, Note_on_c, 7, 73, 0
1, 108366, Note_on_c, 1, 35, 0
1, 108367, Note_on_c, 1, 37, 54
1, 108367, Note_on_c, 7, 75, 66
1, 108367, Note_on_c, 7, 66, 64
1, 108367, Note_on_c, 9, 51, 46
1, 108410, Note_on_c, 12, 66, 0
1, 108420, Note_on_c, 8, 66, 0
1, 108427, Note_on_c, 5, 47, 0
1, 108439, Note_on_c, 5, 66, 0
1, 108452, Note_on_c, 5, 59, 0
1, 108464, Note_on_c, 1, 37, 0
1, 108465, Note_on_c, 5, 63, 0
1, 108476, Note_on_c, 12, 63, 0
1, 108485, Note_on_c, 7, 66, 0
1, 108485, Note_on_c, 9, 51, 0
1, 108485, Note_on_c, 7, 59, 0
1, 108485, Note_on_c, 6, 66, 0
1, 108485, Note_on_c, 7, 63, 0
1, 108485, Note_on_c, 7, 75, 0
1, 108485, Note_on_c, 6, 75, 0
1, 108485, Note_on_c, 7, 78, 0
1, 108487, Note_on_c, 1, 44, 87
1, 108487, Note_on_c, 5, 64, 84
1, 108487, Note_on_c, 5, 61, 90
1, 108487, Note_on_c, 5, 49, 99
1, 108487, Note_on_c, 6, 76, 68
1, 108487, Note_on_c, 6, 68, 62
1, 108487, Note_on_c, 7, 80, 105
1, 108487, Note_on_c, 7, 61, 64
1, 108487, Note_on_c, 8, 64, 76
1, 108487, Note_on_c, 8, 49, 74
1, 108487, Note_on_c, 9, 51, 63
1, 108487, Note_on_c, 12, 61, 76
1, 108605, Note_on_c, 9, 51, 0
1, 108605, Note_on_c, 7, 80, 0
1, 108607, Note_on_c, 7, 76, 93
1, 108607, Note_on_c, 7, 68, 74
1, 108607, Note_on_c, 12, 68, 68
1, 108624, Control_c, 7, 64, 127
1, 108725, Note_on_c, 7, 68, 0
1, 108725, Note_on_c, 7, 76, 0
1, 108727, Note_on_c, 7, 75, 90
1, 108727, Note_on_c, 7, 64, 68
1, 108727, Note_on_c, 9, 51, 45
1, 108743, Note_on_c, 8, 64, 0
1, 108830, Note_on_c, 12, 61, 0
1, 108845, Note_on_c, 7, 61, 0
1, 108845, Note_on_c, 7, 75, 0
1, 108845, Note_on_c, 9, 51, 0
1, 108847, Note_on_c, 7, 76, 82
1, 108847, Note_on_c, 7, 68, 55
1, 108847, Note_on_c, 9, 51, 60
1, 108847, Note_on_c, 12, 64, 78
1, 108883, Note_on_c, 12, 68, 0
1, 108965, Note_on_c, 7, 68, 0
1, 108965, Note_on_c, 7, 76, 0
1, 108965, Note_on_c, 6, 68, 0
1, 108965, Note_on_c, 7, 64, 0
1, 108965, Note_on_c, 9, 51, 0
1, 108965, Note_on_c, 6, 76, 0
1, 108967, Note_on_c, 5, 56, 68
1, 108967, Note_on_c, 6, 68, 64
1, 108967, Note_on_c, 6, 76, 72
1, 108967, Note_on_c, 7, 61, 66
1, 108967, Note_on_c, 7, 80, 90
1, 108967, Note_on_c, 8, 64, 99
1, 108967, Note_on_c, 9, 51, 68
1, 108967, Note_on_c, 12, 68, 87
1, 109035, Note_on_c, 12, 64, 0
1, 109085, Note_on_c, 7, 80, 0
1, 109085, Note_on_c, 6, 68, 0
1, 109085, Note_on_c, 6, 76, 0
1, 109085, Note_on_c, 9, 51, 0
1, 109087, Note_on_c, 6, 66, 68
1, 109087, Note_on_c, 6, 75, 62
1, 109087, Note_on_c, 7, 76, 82
1, 109087, Note_on_c, 7, 68, 62
1, 109205, Note_on_c, 7, 68, 0
1, 109205, Note_on_c, 6, 66, 0
1, 109205, Note_on_c, 7, 76, 0
1, 109205, Note_on_c, 6, 75, 0
1, 109207, Note_on_c, 6, 73, 64
1, 109207, Note_on_c, 6, 64, 55
1, 109207, Note_on_c, 7, 73, 102
1, 109207, Note_on_c, 7, 64, 72
1, 109207, Note_on_c, 9, 51, 54
1, 109207, Note_on_c, 12, 64, 62
1, 109213, Note_on_c, 8, 64, 0
1, 109325, Note_on_c, 9, 51, 0
1, 109325, Note_on_c, 7, 73, 0
1, 109325, Note_on_c, 7, 64, 0
1, 109327, Note_on_c, 7, 75, 76
1, 109327, Note_on_c, 7, 68, 61
1, 109327, Note_on_c, 9, 51, 65
1, 109349, Control_c, 7, 64, 0
1, 109434, Note_on_c, 5, 56, 0
1, 109445, Note_on_c, 6, 64, 0
1, 109445, Note_on_c, 7, 61, 0
1, 109445, Note_on_c, 6, 73, 0
1, 109445, Note_on_c, 9, 51, 0
1, 109445, Note_on_c, 7, 75, 0
1, 109445, Note_on_c, 7, 68, 0
1, 109447, Note_on_c, 1, 42, 82
1, 109447, Note_on_c, 5, 63, 96
1, 109447, Note_on_c, 5, 47, 82
1, 109447, Note_on_c, 5, 59, 87
1, 109447, Note_on_c, 5, 54, 78
1, 109447, Note_on_c, 6, 75, 68
1, 109447, Note_on_c, 6, 66, 54
1, 109447, Note_on_c, 7, 78, 105
1, 109447, Note_on_c, 7, 59, 74
1, 109447, Note_on_c, 8, 63, 76
1, 109447, Note_on_c, 8, 47, 76
1, 109447, Note_on_c, 9, 51, 75
1, 109447, Note_on_c, 12, 59, 74
1, 109453, Note_on_c, 12, 64, 0
1, 109456, Note_on_c, 1, 44, 0
1, 109493, Note_on_c, 5, 49, 0
1, 109504, Note_on_c, 5, 61, 0
1, 109513, Note_on_c, 5, 64, 0
1, 109517, Note_on_c, 8, 49, 0
1, 109551, Note_on_c, 12, 68, 0
1, 109565, Note_on_c, 9, 51, 0
1, 109567, Note_on_c, 7, 75, 78
1, 109567, Note_on_c, 7, 66, 57
1, 109567, Note_on_c, 12, 66, 84
1, 109589, Control_c, 7, 64, 127
1, 109685, Note_on_c, 7, 66, 0
1, 109685, Note_on_c, 7, 75, 0
1, 109685, Note_on_c, 7, 78, 0
1, 109685, Note_on_c, 7, 59, 0
1, 109687, Note_on_c, 7, 73, 70
1, 109687, Note_on_c, 7, 63, 62
1, 109778, Note_on_c, 8, 63, 0
1, 109805, Note_on_c, 7, 73, 0
1, 109807, Note_on_c, 7, 71, 76
1, 109807, Note_on_c, 7, 66, 58
1, 109807, Note_on_c, 12, 63, 66
1, 109838, Note_on_c, 12, 66, 0
1, 109915, Note_on_c, 12, 59, 0
1, 109925, Note_on_c, 7, 63, 0
1, 109925, Note_on_c, 7, 66, 0
1, 109925, Note_on_c, 7, 71, 0
1, 109927, Note_on_c, 3, 73, 108
1, 109927, Note_on_c, 7, 78, 96
1, 109927, Note_on_c, 7, 59, 80
1, 109927, Note_on_c, 8, 63, 87
1, 109927, Note_on_c, 12, 66, 90
1, 109927, Lyric_t, "There's "
1, 109987, Note_on_c, 12, 63, 0
1, 110045, Note_on_c, 6, 66, 0
1, 110045, Note_on_c, 6, 75, 0
1, 110047, Note_on_c, 6, 64, 52
1, 110047, Note_on_c, 6, 73, 49
1, 110047, Note_on_c, 7, 75, 82
1, 110047, Note_on_c, 7, 66, 62
1, 110165, Note_on_c, 7, 66, 0
1, 110165, Note_on_c, 6, 64, 0
1, 110165, Note_on_c, 7, 75, 0
1, 110165, Note_on_c, 7, 78, 0
1, 110165, Note_on_c, 6, 73, 0
1, 110167, Note_on_c, 5, 66, 82
1, 110167, Note_on_c, 6, 63, 74
1, 110167, Note_on_c, 6, 71, 54
1, 110167, Note_on_c, 7, 71, 102
1, 110167, Note_on_c, 7, 63, 58
1, 110167, Note_on_c, 12, 63, 68
1, 110167, Note_on_c, 12, 59, 68
1, 110232, Note_on_c, 8, 47, 0
1, 110234, Note_on_c, 8, 63, 0
1, 110250, Note_on_c, 5, 63, 0
1, 110281, Note_on_c, 3, 73, 0
1, 110285, Note_on_c, 6, 71, 0
1, 110285, Note_on_c, 6, 63, 0
1, 110285, Note_on_c, 7, 71, 0
1, 110287, Note_on_c, 3, 75, 90
1, 110287, Note_on_c, 7, 73, 80
1, 110287, Note_on_c, 7, 66, 54
1, 110287, Lyric_t, "a "
1, 110294, Control_c, 7, 64, 0
1, 110305, Note_on_c, 12, 66, 0
1, 110332, Control_c, 0, 11, 108
1, 110333, Note_on_c, 12, 59, 0
1, 110340, Note_on_c, 12, 63, 0
1, 110363, Note_on_c, 1, 42, 0
1, 110396, Note_on_c, 5, 66, 0
1, 110401, Note_on_c, 5, 54, 0
1, 110405, Note_on_c, 7, 63, 0
1, 110405, Note_on_c, 7, 59, 0
1, 110405, Note_on_c, 7, 66, 0
1, 110405, Note_on_c, 7, 73, 0
1, 110407, Note_on_c, 0, 73, 64
1, 110407, Note_on_c, 0, 69, 57
1, 110407, Note_on_c, 1, 49, 80
1, 110407, Note_on_c, 3, 76, 111
1, 110407, Note_on_c, 5, 64, 87
1, 110407, Note_on_c, 5, 57, 84
1, 110407, Note_on_c, 5, 61, 90
1, 110407, Note_on_c, 5, 52, 80
1, 110407, Note_on_c, 6, 64, 59
1, 110407, Note_on_c, 7, 76, 105
1, 110407, Note_on_c, 7, 57, 74
1, 110407, Note_on_c, 8, 61, 90
1, 110407, Note_on_c, 8, 45, 41
1, 110407, Note_on_c, 12, 57, 57
1, 110407, Note_on_c, 12, 61, 76
1, 110407, Note_on_c, 12, 64, 87
1, 110407, Lyric_t, "jour"
1, 110410, Note_on_c, 3, 75, 0
1, 110419, Note_on_c, 5, 47, 0
1, 110421, Note_on_c, 5, 59, 0
1, 110496, Control_c, 7, 64, 127
1, 110527, Note_on_c, 7, 71, 76
1, 110527, Note_on_c, 7, 64, 62
1, 110645, Note_on_c, 7, 64, 0
1, 110645, Note_on_c, 7, 71, 0
1, 110647, Note_on_c, 3, 75, 108
1, 110647, Note_on_c, 7, 69, 76
1, 110647, Note_on_c, 7, 61, 39
1, 110647, Lyric_t, "ney "
1, 110669, Note_on_c, 3, 76, 0
1, 110765, Note_on_c, 7, 61, 0
1, 110765, Note_on_c, 7, 69, 0
1, 110765, Note_on_c, 7, 76, 0
1, 110765, Note_on_c, 7, 57, 0
1, 110767, Note_on_c, 3, 73, 108
1, 110767, Note_on_c, 7, 71, 78
1, 110767, Note_on_c, 7, 64, 59
1, 110767, Lyric_t, "in "
1, 110770, Note_on_c, 3, 75, 0
1, 110885, Note_on_c, 7, 64, 0
1, 110885, Note_on_c, 7, 71, 0
1, 110887, Note_on_c, 7, 57, 80
1, 110887, Note_on_c, 7, 76, 102
1, 111002, Note_on_c, 3, 73, 0
1, 111007, Note_on_c, 3, 71, 105
1, 111007, Note_on_c, 7, 71, 80
1, 111007, Note_on_c, 7, 64, 62
1, 111007, Lyric_t, "my "
1, 111125, Note_on_c, 7, 64, 0
1, 111125, Note_on_c, 7, 71, 0
1, 111127, Note_on_c, 3, 73, 82
1, 111127, Note_on_c, 7, 69, 84
1, 111127, Note_on_c, 7, 61, 59
1, 111153, Note_on_c, 3, 71, 0
1, 111227, Note_on_c, 3, 73, 0
1, 111245, Note_on_c, 7, 61, 0
1, 111247, Note_on_c, 3, 73, 105
1, 111247, Note_on_c, 7, 64, 68
1, 111247, Lyric_t, "eyes "
1, 111247, Lyric_t, "\015"
1, 111256, Control_c, 7, 64, 0
1, 111290, Note_on_c, 8, 45, 0
1, 111351, Note_on_c, 12, 64, 0
1, 111357, Note_on_c, 8, 61, 0
1, 111361, Note_on_c, 12, 61, 0
1, 111365, Note_on_c, 0, 73, 0
1, 111365, Note_on_c, 7, 69, 0
1, 111365, Note_on_c, 7, 76, 0
1, 111365, Note_on_c, 7, 64, 0
1, 111365, Note_on_c, 0, 69, 0
1, 111365, Note_on_c, 6, 64, 0
1, 111365, Note_on_c, 7, 57, 0
1, 111367, Note_on_c, 0, 71, 76
1, 111367, Note_on_c, 0, 68, 59
1, 111367, Note_on_c, 1, 47, 82
1, 111367, Note_on_c, 5, 63, 87
1, 111367, Note_on_c, 5, 59, 84
1, 111367, Note_on_c, 5, 56, 70
1, 111367, Note_on_c, 6, 63, 40
1, 111367, Note_on_c, 7, 75, 87
1, 111367, Note_on_c, 7, 68, 58
1, 111367, Note_on_c, 8, 59, 84
1, 111367, Note_on_c, 8, 44, 42
1, 111367, Note_on_c, 9, 51, 58
1, 111367, Note_on_c, 12, 66, 78
1, 111367, Note_on_c, 12, 63, 76
1, 111367, Note_on_c, 12, 59, 68
1, 111378, Note_on_c, 5, 57, 0
1, 111382, Note_on_c, 5, 52, 0
1, 111384, Note_on_c, 1, 49, 0
1, 111403, Note_on_c, 12, 57, 0
1, 111405, Control_c, 7, 64, 127
1, 111414, Note_on_c, 5, 64, 0
1, 111418, Note_on_c, 5, 61, 0
1, 111485, Note_on_c, 7, 68, 0
1, 111485, Note_on_c, 9, 51, 0
1, 111487, Note_on_c, 7, 56, 72
1, 111725, Note_on_c, 7, 75, 0
1, 111727, Note_on_c, 7, 73, 76
1, 111727, Note_on_c, 7, 68, 61
1, 111814, Note_on_c, 3, 73, 0
1, 111845, Note_on_c, 7, 68, 0
1, 111845, Note_on_c, 7, 73, 0
1, 111845, Note_on_c, 7, 56, 0
1, 111847, Note_on_c, 7, 75, 82
1, 111847, Note_on_c, 7, 56, 76
1, 111965, Note_on_c, 7, 56, 0
1, 111965, Note_on_c, 7, 75, 0
1, 111967, Note_on_c, 3, 73, 108
1, 111967, Note_on_c, 7, 73, 64
1, 111967, Note_on_c, 7, 68, 43
1, 111967, Lyric_t, "it's "
1, 112049, Note_on_c, 3, 73, 0
1, 112085, Note_on_c, 7, 68, 0
1, 112085, Note_on_c, 7, 73, 0
1, 112087, Note_on_c, 3, 73, 84
1, 112087, Note_on_c, 7, 75, 93
1, 112087, Note_on_c, 7, 56, 84
1, 112087, Lyric_t, "get"
1, 112156, Note_on_c, 3, 73, 0
1, 112205, Note_on_c, 7, 75, 0
1, 112207, Note_on_c, 3, 73, 93
1, 112207, Note_on_c, 7, 71, 78
1, 112207, Note_on_c, 7, 63, 68
1, 112207, Note_on_c, 9, 51, 54
1, 112207, Lyric_t, "ting "
1, 112225, Control_c, 7, 64, 0
1, 112276, Note_on_c, 5, 56, 0
1, 112283, Note_on_c, 12, 63, 0
1, 112284, Note_on_c, 8, 44, 0
1, 112285, Note_on_c, 12, 59, 0
1, 112307, Note_on_c, 5, 63, 0
1, 112308, Note_on_c, 5, 59, 0
1, 112323, Note_on_c, 3, 73, 0
1, 112325, Note_on_c, 0, 71, 0
1, 112325, Note_on_c, 7, 56, 0
1, 112325, Note_on_c, 7, 71, 0
1, 112325, Note_on_c, 9, 51, 0
1, 112325, Note_on_c, 6, 63, 0
1, 112325, Note_on_c, 7, 63, 0
1, 112325, Note_on_c, 0, 68, 0
1, 112326, Note_on_c, 1, 47, 0
1, 112327, Note_on_c, 0, 64, 55
1, 112327, Note_on_c, 1, 45, 78
1, 112327, Note_on_c, 5, 64, 82
1, 112327, Note_on_c, 5, 57, 74
1, 112327, Note_on_c, 5, 61, 84
1, 112327, Note_on_c, 5, 45, 35
1, 112327, Note_on_c, 7, 57, 84
1, 112327, Note_on_c, 7, 76, 102
1, 112327, Note_on_c, 8, 64, 96
1, 112327, Note_on_c, 8, 45, 43
1, 112327, Note_on_c, 9, 51, 61
1, 112327, Note_on_c, 12, 64, 87
1, 112327, Note_on_c, 12, 57, 76
1, 112327, Note_on_c, 12, 61, 78
1, 112329, Note_on_c, 12, 66, 0
1, 112331, Note_on_c, 8, 59, 0
1, 112332, Control_c, 0, 11, 123
1, 112362, Control_c, 0, 11, 122
1, 112382, Control_c, 0, 11, 121
1, 112404, Control_c, 7, 64, 127
1, 112407, Pitch_bend_c, 3, 6959
1, 112412, Control_c, 0, 11, 120
1, 112416, Pitch_bend_c, 3, 5775
1, 112426, Pitch_bend_c, 3, 3801
1, 112432, Control_c, 0, 11, 119
1, 112435, Pitch_bend_c, 3, 2321
1, 112444, Pitch_bend_c, 3, 1136
1, 112445, Note_on_c, 7, 57, 0
1, 112445, Note_on_c, 7, 76, 0
1, 112445, Note_on_c, 9, 51, 0
1, 112447, Note_on_c, 3, 80, 105
1, 112447, Note_on_c, 7, 73, 72
1, 112447, Note_on_c, 7, 64, 70
1, 112447, Lyric_t, "hard "
1, 112454, Pitch_bend_c, 3, 100
1, 112462, Control_c, 0, 11, 118
1, 112463, Pitch_bend_c, 3, 470
1, 112472, Pitch_bend_c, 3, 2247
1, 112482, Control_c, 0, 11, 117
1, 112482, Pitch_bend_c, 3, 6120
1, 112491, Pitch_bend_c, 3, 8192
1, 112512, Control_c, 0, 11, 116
1, 112532, Control_c, 0, 11, 115
1, 112552, Control_c, 0, 11, 114
1, 112565, Note_on_c, 7, 64, 0
1, 112565, Note_on_c, 7, 73, 0
1, 112567, Note_on_c, 7, 71, 87
1, 112567, Note_on_c, 7, 57, 82
1, 112582, Control_c, 0, 11, 113
1, 112602, Control_c, 0, 11, 112
1, 112632, Control_c, 0, 11, 111
1, 112652, Control_c, 0, 11, 110
1, 112682, Control_c, 0, 11, 109
1, 112682, Control_c, 5, 11, 126
1, 112685, Note_on_c, 7, 57, 0
1, 112685, Note_on_c, 7, 71, 0
1, 112687, Note_on_c, 3, 78, 93
1, 112687, Note_on_c, 7, 73, 74
1, 112687, Note_on_c, 7, 64, 47
1, 112687, Lyric_t, "for "
1, 112702, Control_c, 0, 11, 108
1, 112704, Note_on_c, 3, 80, 0
1, 112712, Control_c, 5, 11, 125
1, 112732, Control_c, 0, 11, 107
1, 112732, Control_c, 5, 11, 124
1, 112741, Note_on_c, 3, 78, 0
1, 112752, Control_c, 0, 11, 106
1, 112752, Control_c, 5, 11, 123
1, 112772, Control_c, 0, 11, 105
1, 112782, Control_c, 5, 11, 122
1, 112802, Control_c, 0, 11, 104
1, 112802, Control_c, 5, 11, 121
1, 112805, Note_on_c, 7, 73, 0
1, 112805, Note_on_c, 7, 64, 0
1, 112807, Note_on_c, 3, 78, 108
1, 112807, Note_on_c, 7, 57, 84
1, 112807, Note_on_c, 7, 76, 105
1, 112807, Note_on_c, 8, 52, 54
1, 112807, Lyric_t, "me "
1, 112822, Control_c, 0, 11, 103
1, 112822, Control_c, 5, 11, 120
1, 112852, Control_c, 0, 11, 102
1, 112852, Control_c, 5, 11, 119
1, 112872, Control_c, 0, 11, 101
1, 112872, Control_c, 5, 11, 118
1, 112880, Note_on_c, 8, 45, 0
1, 112892, Control_c, 5, 11, 117
1, 112902, Control_c, 0, 11, 100
1, 112922, Control_c, 0, 11, 99
1, 112922, Control_c, 5, 11, 116
1, 112925, Note_on_c, 7, 76, 0
1, 112925, Note_on_c, 7, 57, 0
1, 112927, Note_on_c, 7, 64, 70
1, 112927, Note_on_c, 7, 73, 90
1, 112942, Control_c, 5, 11, 115
1, 112952, Control_c, 0, 11, 98
1, 112962, Control_c, 5, 11, 114
1, 112972, Control_c, 0, 11, 97
1, 112982, Control_c, 5, 11, 113
1, 112992, Control_c, 0, 11, 96
1, 113012, Control_c, 5, 11, 112
1, 113022, Control_c, 0, 11, 95
1, 113026, Note_on_c, 3, 78, 0
1, 113032, Control_c, 5, 11, 111
1, 113042, Control_c, 0, 11, 94
1, 113045, Note_on_c, 7, 73, 0
1, 113045, Note_on_c, 7, 64, 0
1, 113047, Note_on_c, 3, 76, 93
1, 113047, Note_on_c, 7, 57, 80
1, 113047, Note_on_c, 7, 71, 87
1, 113047, Lyric_t, "to "
1, 113052, Control_c, 5, 11, 110
1, 113072, Control_c, 0, 11, 93
1, 113081, Note_on_c, 12, 57, 0
1, 113082, Control_c, 5, 11, 109
1, 113092, Control_c, 0, 11, 92
1, 113102, Control_c, 5, 11, 108
1, 113122, Control_c, 0, 11, 91
1, 113122, Control_c, 5, 11, 107
1, 113142, Control_c, 0, 11, 90
1, 113152, Control_c, 5, 11, 106
1, 113164, Control_c, 7, 64, 0
1, 113165, Note_on_c, 7, 71, 0
1, 113165, Note_on_c, 7, 57, 0
1, 113167, Note_on_c, 3, 75, 108
1, 113167, Note_on_c, 7, 64, 59
1, 113167, Note_on_c, 7, 73, 84
1, 113167, Lyric_t, "hide "
1, 113167, Lyric_t, "\015"
1, 113171, Note_on_c, 5, 57, 0
1, 113172, Control_c, 0, 11, 89
1, 113172, Control_c, 5, 11, 105
1, 113180, Note_on_c, 12, 61, 0
1, 113192, Control_c, 0, 11, 88
1, 113192, Control_c, 5, 11, 104
1, 113204, Note_on_c, 3, 76, 0
1, 113212, Control_c, 0, 11, 87
1, 113222, Control_c, 5, 11, 103
1, 113242, Control_c, 0, 11, 86
1, 113242, Control_c, 5, 11, 102
1, 113262, Control_c, 0, 11, 85
1, 113262, Control_c, 5, 11, 101
1, 113282, Control_c, 5, 11, 100
1, 113285, Note_on_c, 0, 64, 0
1, 113285, Note_on_c, 5, 45, 0
1, 113285, Note_on_c, 7, 64, 0
1, 113285, Note_on_c, 7, 73, 0
1, 113287, Note_on_c, 0, 63, 61
1, 113287, Note_on_c, 0, 61, 40
1, 113287, Note_on_c, 1, 44, 84
1, 113287, Note_on_c, 5, 63, 80
1, 113287, Note_on_c, 5, 56, 64
1, 113287, Note_on_c, 5, 44, 66
1, 113287, Note_on_c, 7, 75, 105
1, 113287, Note_on_c, 7, 57, 78
1, 113287, Note_on_c, 8, 63, 84
1, 113287, Note_on_c, 8, 56, 64
1, 113287, Note_on_c, 9, 51, 58
1, 113287, Note_on_c, 12, 63, 68
1, 113287, Note_on_c, 12, 61, 57
1, 113287, Note_on_c, 12, 56, 61
1, 113292, Control_c, 0, 11, 84
1, 113293, Note_on_c, 12, 64, 0
1, 113306, Pitch_bend_c, 3, 8571
1, 113312, Control_c, 0, 11, 83
1, 113312, Control_c, 5, 11, 99
1, 113315, Pitch_bend_c, 3, 9441
1, 113320, Note_on_c, 5, 64, 0
1, 113325, Pitch_bend_c, 3, 10245
1, 113329, Note_on_c, 8, 52, 0
1, 113332, Control_c, 5, 11, 98
1, 113334, Pitch_bend_c, 3, 10758
1, 113341, Note_on_c, 8, 64, 0
1, 113342, Control_c, 0, 11, 82
1, 113343, Pitch_bend_c, 3, 11405
1, 113352, Note_on_c, 1, 45, 0
1, 113352, Control_c, 5, 11, 97
1, 113360, Control_c, 7, 64, 127
1, 113362, Control_c, 0, 11, 81
1, 113362, Pitch_bend_c, 3, 11205
1, 113362, Control_c, 8, 11, 127
1, 113371, Pitch_bend_c, 3, 10647
1, 113380, Pitch_bend_c, 3, 9620
1, 113382, Control_c, 5, 11, 96
1, 113389, Pitch_bend_c, 3, 8192
1, 113392, Control_c, 0, 11, 80
1, 113392, Control_c, 8, 11, 126
1, 113402, Control_c, 5, 11, 95
1, 113405, Note_on_c, 9, 51, 0
1, 113407, Note_on_c, 7, 64, 50
1, 113412, Control_c, 0, 11, 79
1, 113412, Control_c, 8, 11, 125
1, 113422, Control_c, 5, 11, 94
1, 113432, Control_c, 0, 11, 78
1, 113432, Control_c, 8, 11, 124
1, 113452, Control_c, 5, 11, 93
1, 113452, Control_c, 8, 11, 123
1, 113462, Control_c, 0, 11, 77
1, 113472, Control_c, 5, 11, 92
1, 113472, Control_c, 8, 11, 122
1, 113482, Control_c, 0, 11, 76
1, 113490, Note_on_c, 3, 75, 0
1, 113492, Control_c, 5, 11, 91
1, 113492, Control_c, 8, 11, 121
1, 113512, Control_c, 0, 11, 75
1, 113512, Control_c, 8, 11, 120
1, 113522, Control_c, 5, 11, 90
1, 113525, Note_on_c, 7, 64, 0
1, 113525, Note_on_c, 7, 75, 0
1, 113527, Note_on_c, 3, 73, 90
1, 113527, Note_on_c, 7, 71, 74
1, 113527, Note_on_c, 7, 61, 49
1, 113532, Control_c, 0, 11, 74
1, 113532, Control_c, 8, 11, 119
1, 113542, Control_c, 5, 11, 89
1, 113552, Control_c, 8, 11, 118
1, 113562, Control_c, 0, 11, 73
1, 113562, Control_c, 5, 11, 88
1, 113572, Control_c, 8, 11, 117
1, 113582, Control_c, 0, 11, 72
1, 113582, Control_c, 5, 11, 87
1, 113592, Control_c, 8, 11, 116
1, 113612, Control_c, 0, 11, 71
1, 113612, Control_c, 5, 11, 86
1, 113612, Control_c, 8, 11, 115
1, 113632, Control_c, 0, 11, 70
1, 113632, Control_c, 5, 11, 85
1, 113632, Control_c, 8, 11, 114
1, 113645, Note_on_c, 7, 61, 0
1, 113645, Note_on_c, 7, 71, 0
1, 113645, Note_on_c, 7, 57, 0
1, 113647, Note_on_c, 7, 73, 72
1, 113647, Note_on_c, 7, 64, 44
1, 113652, Control_c, 0, 11, 69
1, 113652, Control_c, 5, 11, 84
1, 113652, Control_c, 8, 11, 113
1, 113672, Control_c, 8, 11, 112
1, 113682, Control_c, 0, 11, 68
1, 113682, Control_c, 5, 11, 83
1, 113692, Control_c, 8, 11, 111
1, 113702, Control_c, 0, 11, 67
1, 113702, Control_c, 5, 11, 82
1, 113712, Control_c, 8, 11, 110
1, 113722, Control_c, 5, 11, 81
1, 113732, Control_c, 0, 11, 66
1, 113732, Control_c, 8, 11, 109
1, 113752, Control_c, 0, 11, 65
1, 113752, Control_c, 5, 11, 80
1, 113752, Control_c, 8, 11, 108
1, 113765, Note_on_c, 7, 64, 0
1, 113765, Note_on_c, 7, 73, 0
1, 113767, Note_on_c, 0, 60, 31
1, 113767, Note_on_c, 5, 60, 39
1, 113767, Note_on_c, 7, 72, 87
1, 113767, Note_on_c, 7, 56, 50
1, 113767, Note_on_c, 12, 60, 49
1, 113772, Control_c, 5, 11, 79
1, 113772, Control_c, 8, 11, 107
1, 113782, Control_c, 0, 11, 64
1, 113784, Note_on_c, 12, 61, 0
1, 113792, Control_c, 5, 11, 78
1, 113792, Control_c, 8, 11, 106
1, 113802, Control_c, 0, 11, 63
1, 113806, Note_on_c, 5, 61, 0
1, 113808, Control_c, 7, 64, 0
1, 113812, Control_c, 8, 11, 105
1, 113822, Control_c, 5, 11, 77
1, 113830, Note_on_c, 0, 61, 0
1, 113832, Control_c, 0, 11, 62
1, 113832, Control_c, 8, 11, 104
1, 113842, Control_c, 5, 11, 76
1, 113852, Control_c, 0, 11, 61
1, 113852, Control_c, 8, 11, 103
1, 113858, Note_on_c, 3, 73, 0
1, 113862, Control_c, 5, 11, 75
1, 113872, Control_c, 0, 11, 60
1, 113872, Control_c, 8, 11, 102
1, 113882, Control_c, 5, 11, 74
1, 113887, Note_on_c, 7, 63, 68
1, 113887, Note_on_c, 8, 44, 45
1, 113892, Control_c, 8, 11, 101
1, 113902, Control_c, 0, 11, 59
1, 113912, Control_c, 5, 11, 73
1, 113912, Control_c, 8, 11, 100
1, 113922, Control_c, 0, 11, 58
1, 113932, Control_c, 5, 11, 72
1, 113932, Control_c, 8, 11, 99
1, 113952, Control_c, 0, 11, 57
1, 113952, Control_c, 5, 11, 71
1, 113952, Control_c, 8, 11, 98
1, 113953, Note_on_c, 8, 56, 0
1, 113972, Control_c, 0, 11, 56
1, 113972, Control_c, 8, 11, 97
1, 113982, Control_c, 5, 11, 70
1, 113992, Control_c, 8, 11, 96
1, 114002, Control_c, 0, 11, 55
1, 114002, Control_c, 5, 11, 69
1, 114005, Note_on_c, 7, 72, 0
1, 114005, Note_on_c, 7, 63, 0
1, 114007, Note_on_c, 3, 73, 108
1, 114007, Note_on_c, 7, 68, 74
1, 114007, Note_on_c, 7, 60, 54
1, 114007, Lyric_t, "and "
1, 114012, Control_c, 8, 11, 95
1, 114022, Control_c, 0, 11, 54
1, 114022, Control_c, 5, 11, 68
1, 114032, Control_c, 8, 11, 94
1, 114042, Control_c, 0, 11, 53
1, 114052, Control_c, 5, 11, 67
1, 114052, Control_c, 8, 11, 93
1, 114072, Control_c, 5, 11, 66
1, 114072, Control_c, 8, 11, 92
1, 114073, Pitch_bend_c, 1, 7995
1, 114083, Pitch_bend_c, 1, 7452
1, 114092, Pitch_bend_c, 1, 7107
1, 114092, Control_c, 5, 11, 65
1, 114092, Control_c, 8, 11, 91
1, 114101, Pitch_bend_c, 1, 6836
1, 114104, Note_on_c, 3, 73, 0
1, 114110, Pitch_bend_c, 1, 6589
1, 114112, Control_c, 8, 11, 90
1, 114112, Control_c, 10, 11, 63
1, 114120, Pitch_bend_c, 1, 6317
1, 114122, Control_c, 5, 11, 64
1, 114122, Control_c, 13, 11, 61
1, 114125, Note_on_c, 7, 56, 0
1, 114127, Note_on_c, 3, 73, 99
1, 114127, Note_on_c, 7, 63, 45
1, 114127, Lyric_t, "I "
1, 114129, Pitch_bend_c, 1, 6046
1, 114132, Note_on_c, 8, 63, 0
1, 114139, Pitch_bend_c, 1, 5725
1, 114142, Control_c, 5, 11, 63
1, 114147, Pitch_bend_c, 1, 5405
1, 114157, Pitch_bend_c, 1, 5133
1, 114162, Control_c, 5, 11, 62
1, 114166, Pitch_bend_c, 1, 4738
1, 114176, Pitch_bend_c, 1, 4344
1, 114182, Control_c, 5, 11, 61
1, 114182, Control_c, 10, 11, 64
1, 114184, Note_on_c, 1, 44, 0
1, 114185, Pitch_bend_c, 1, 4048
1, 114192, Control_c, 13, 11, 62
1, 114194, Pitch_bend_c, 1, 3678
1, 114202, Control_c, 6, 11, 127
1, 114204, Pitch_bend_c, 1, 2937
1, 114212, Control_c, 8, 11, 93
1, 114213, Pitch_bend_c, 1, 2247
1, 114223, Pitch_bend_c, 1, 1630
1, 114224, Note_on_c, 12, 60, 0
1, 114231, Pitch_bend_c, 1, 1383
1, 114241, Note_on_c, 5, 60, 0
1, 114241, Pitch_bend_c, 1, 7107
1, 114242, Note_on_c, 5, 44, 0
1, 114242, Control_c, 5, 11, 127
1, 114242, Control_c, 10, 11, 65
1, 114245, Note_on_c, 7, 60, 0
1, 114245, Note_on_c, 0, 60, 0
1, 114245, Note_on_c, 0, 63, 0
1, 114247, Note_on_c, 0, 61, 51
1, 114247, Note_on_c, 1, 33, 76
1, 114247, Note_on_c, 5, 57, 62
1, 114247, Note_on_c, 5, 52, 80
1, 114247, Note_on_c, 5, 45, 87
1, 114247, Note_on_c, 6, 57, 75
1, 114247, Note_on_c, 6, 45, 75
1, 114247, Note_on_c, 7, 45, 78
1, 114247, Note_on_c, 7, 76, 99
1, 114247, Note_on_c, 7, 57, 64
1, 114247, Note_on_c, 8, 45, 62
1, 114247, Note_on_c, 9, 53, 58
1, 114247, Note_on_c, 9, 36, 23
1, 114247, Note_on_c, 9, 46, 30
1, 114247, Note_on_c, 9, 41, 23
1, 114247, Note_on_c, 10, 69, 48
1, 114247, Note_on_c, 10, 57, 36
1, 114247, Note_on_c, 11, 61, 46
1, 114247, Note_on_c, 11, 52, 33
1, 114247, Note_on_c, 11, 57, 40
1, 114247, Note_on_c, 12, 45, 54
1, 114247, Note_on_c, 13, 52, 44
1, 114247, Note_on_c, 13, 45, 32
1, 114250, Note_on_c, 7, 63, 0
1, 114250, Pitch_bend_c, 1, 8192
1, 114252, Control_c, 13, 11, 63
1, 114255, Note_on_c, 12, 56, 0
1, 114256, Note_on_c, 3, 73, 0
1, 114258, Note_on_c, 12, 63, 0
1, 114262, Note_on_c, 8, 44, 0
1, 114262, Control_c, 0, 11, 46
1, 114270, Note_on_c, 7, 68, 0
1, 114270, Control_c, 7, 64, 127
1, 114272, Control_c, 8, 11, 94
1, 114277, Note_on_c, 5, 63, 0
1, 114278, Note_on_c, 5, 56, 0
1, 114282, Control_c, 0, 11, 47
1, 114302, Control_c, 10, 11, 66
1, 114312, Control_c, 0, 11, 48
1, 114312, Control_c, 13, 11, 64
1, 114322, Control_c, 8, 11, 95
1, 114332, Control_c, 0, 11, 49
1, 114362, Control_c, 0, 11, 50
1, 114362, Control_c, 10, 11, 67
1, 114365, Note_on_c, 7, 45, 0
1, 114365, Note_on_c, 9, 46, 0
1, 114365, Note_on_c, 7, 57, 0
1, 114365, Note_on_c, 9, 36, 0
1, 114365, Note_on_c, 9, 53, 0
1, 114365, Note_on_c, 9, 41, 0
1, 114365, Note_on_c, 6, 45, 0
1, 114366, Note_on_c, 10, 57, 0
1, 114367, Note_on_c, 3, 80, 114
1, 114367, Note_on_c, 7, 73, 72
1, 114367, Lyric_t, "nev"
1, 114372, Control_c, 13, 11, 65
1, 114377, Note_on_c, 10, 69, 0
1, 114381, Note_on_c, 6, 57, 0
1, 114382, Control_c, 0, 11, 51
1, 114382, Control_c, 8, 11, 96
1, 114388, Note_on_c, 0, 61, 0
1, 114412, Control_c, 0, 11, 52
1, 114423, Note_on_c, 11, 57, 0
1, 114424, Note_on_c, 11, 52, 0
1, 114427, Note_on_c, 11, 61, 0
1, 114432, Note_on_c, 8, 45, 0
1, 114432, Control_c, 0, 11, 53
1, 114432, Control_c, 8, 11, 97
1, 114432, Control_c, 10, 11, 68
1, 114432, Control_c, 13, 11, 66
1, 114442, Note_on_c, 1, 33, 0
1, 114446, Note_on_c, 5, 57, 0
1, 114451, Note_on_c, 12, 45, 0
1, 114461, Note_on_c, 5, 52, 0
1, 114462, Control_c, 0, 11, 54
1, 114467, Note_on_c, 5, 45, 0
1, 114482, Control_c, 0, 11, 55
1, 114485, Note_on_c, 13, 45, 0
1, 114485, Note_on_c, 13, 52, 0
1, 114485, Note_on_c, 7, 73, 0
1, 114487, Note_on_c, 0, 57, 43
1, 114487, Note_on_c, 0, 61, 38
1, 114487, Note_on_c, 1, 33, 78
1, 114487, Note_on_c, 5, 57, 84
1, 114487, Note_on_c, 5, 45, 93
1, 114487, Note_on_c, 5, 52, 90
1, 114487, Note_on_c, 6, 57, 68
1, 114487, Note_on_c, 6, 45, 76
1, 114487, Note_on_c, 7, 69, 62
1, 114487, Note_on_c, 7, 45, 84
1, 114487, Note_on_c, 7, 57, 76
1, 114487, Note_on_c, 8, 45, 64
1, 114487, Note_on_c, 9, 41, 30
1, 114487, Note_on_c, 9, 36, 30
1, 114487, Note_on_c, 9, 46, 33
1, 114487, Note_on_c, 10, 69, 47
1, 114487, Note_on_c, 10, 57, 42
1, 114487, Note_on_c, 11, 61, 57
1, 114487, Note_on_c, 11, 57, 51
1, 114487, Note_on_c, 11, 52, 55
1, 114487, Note_on_c, 12, 45, 55
1, 114487, Note_on_c, 13, 52, 27
1, 114487, Note_on_c, 13, 45, 40
1, 114492, Control_c, 8, 11, 98
1, 114492, Control_c, 10, 11, 69
1, 114492, Control_c, 13, 11, 67
1, 114512, Control_c, 0, 11, 56
1, 114532, Control_c, 0, 11, 57
1, 114542, Control_c, 8, 11, 99
1, 114552, Control_c, 10, 11, 70
1, 114552, Control_c, 13, 11, 68
1, 114562, Control_c, 0, 11, 58
1, 114582, Control_c, 0, 11, 59
1, 114587, Note_on_c, 6, 57, 0
1, 114593, Note_on_c, 6, 45, 0
1, 114602, Control_c, 8, 11, 100
1, 114605, Note_on_c, 9, 46, 0
1, 114605, Note_on_c, 9, 36, 0
1, 114605, Note_on_c, 7, 69, 0
1, 114605, Note_on_c, 7, 76, 0
1, 114605, Note_on_c, 9, 41, 0
1, 114605, Note_on_c, 7, 45, 0
1, 114605, Note_on_c, 7, 57, 0
1, 114607, Note_on_c, 3, 78, 82
1, 114607, Note_on_c, 7, 71, 74
1, 114607, Lyric_t, "er "
1, 114608, Note_on_c, 10, 69, 0
1, 114608, Note_on_c, 0, 57, 0
1, 114610, Note_on_c, 10, 57, 0
1, 114612, Control_c, 0, 11, 60
1, 114612, Control_c, 10, 11, 71
1, 114612, Control_c, 13, 11, 69
1, 114615, Note_on_c, 0, 61, 0
1, 114621, Note_on_c, 3, 80, 0
1, 114632, Control_c, 0, 11, 61
1, 114652, Control_c, 8, 11, 101
1, 114658, Note_on_c, 11, 52, 0
1, 114661, Note_on_c, 11, 57, 0
1, 114662, Control_c, 0, 11, 62
1, 114663, Note_on_c, 8, 45, 0
1, 114670, Note_on_c, 11, 61, 0
1, 114671, Note_on_c, 5, 52, 0
1, 114672, Control_c, 10, 11, 72
1, 114672, Control_c, 13, 11, 70
1, 114673, Note_on_c, 5, 45, 0
1, 114674, Note_on_c, 3, 78, 0
1, 114675, Note_on_c, 1, 33, 0
1, 114675, Note_on_c, 5, 57, 0
1, 114682, Control_c, 0, 11, 63
1, 114690, Note_on_c, 12, 45, 0
1, 114712, Control_c, 0, 11, 64
1, 114712, Control_c, 8, 11, 102
1, 114725, Note_on_c, 13, 45, 0
1, 114725, Note_on_c, 13, 52, 0
1, 114725, Note_on_c, 7, 71, 0
1, 114727, Note_on_c, 0, 57, 52
1, 114727, Note_on_c, 0, 61, 42
1, 114727, Note_on_c, 1, 33, 90
1, 114727, Note_on_c, 3, 78, 114
1, 114727, Note_on_c, 5, 45, 87
1, 114727, Note_on_c, 5, 57, 99
1, 114727, Note_on_c, 5, 52, 90
1, 114727, Note_on_c, 6, 57, 84
1, 114727, Note_on_c, 6, 45, 90
1, 114727, Note_on_c, 7, 57, 84
1, 114727, Note_on_c, 7, 73, 78
1, 114727, Note_on_c, 7, 45, 96
1, 114727, Note_on_c, 8, 45, 80
1, 114727, Note_on_c, 9, 36, 36
1, 114727, Note_on_c, 9, 53, 51
1, 114727, Note_on_c, 9, 46, 37
1, 114727, Note_on_c, 9, 41, 36
1, 114727, Note_on_c, 10, 57, 55
1, 114727, Note_on_c, 10, 69, 45
1, 114727, Note_on_c, 11, 61, 55
1, 114727, Note_on_c, 11, 57, 39
1, 114727, Note_on_c, 11, 52, 40
1, 114727, Note_on_c, 12, 45, 49
1, 114727, Note_on_c, 13, 45, 51
1, 114727, Note_on_c, 13, 52, 58
1, 114727, Lyric_t, "thought "
1, 114727, Lyric_t, "\015"
1, 114732, Control_c, 0, 11, 65
1, 114732, Control_c, 13, 11, 71
1, 114742, Control_c, 10, 11, 73
1, 114762, Control_c, 0, 11, 66
1, 114762, Control_c, 8, 11, 103
1, 114782, Control_c, 0, 11, 67
1, 114792, Control_c, 13, 11, 72
1, 114802, Control_c, 10, 11, 74
1, 114812, Control_c, 0, 11, 68
1, 114816, Note_on_c, 6, 57, 0
1, 114822, Control_c, 8, 11, 104
1, 114828, Note_on_c, 6, 45, 0
1, 114830, Note_on_c, 0, 57, 0
1, 114832, Control_c, 0, 11, 69
1, 114845, Note_on_c, 9, 41, 0
1, 114845, Note_on_c, 9, 46, 0
1, 114845, Note_on_c, 7, 73, 0
1, 114845, Note_on_c, 7, 57, 0
1, 114845, Note_on_c, 9, 53, 0
1, 114845, Note_on_c, 9, 36, 0
1, 114845, Note_on_c, 7, 45, 0
1, 114847, Note_on_c, 7, 76, 87
1, 114851, Note_on_c, 0, 61, 0
1, 114852, Control_c, 13, 11, 73
1, 114862, Control_c, 0, 11, 70
1, 114862, Control_c, 10, 11, 75
1, 114864, Note_on_c, 10, 57, 0
1, 114872, Control_c, 8, 11, 105
1, 114876, Note_on_c, 10, 69, 0
1, 114889, Note_on_c, 11, 52, 0
1, 114892, Control_c, 0, 11, 71
1, 114898, Note_on_c, 11, 57, 0
1, 114911, Note_on_c, 11, 61, 0
1, 114912, Note_on_c, 8, 45, 0
1, 114912, Control_c, 0, 11, 72
1, 114912, Control_c, 13, 11, 74
1, 114922, Control_c, 10, 11, 76
1, 114931, Note_on_c, 5, 52, 0
1, 114931, Note_on_c, 5, 57, 0
1, 114932, Note_on_c, 5, 45, 0
1, 114932, Control_c, 8, 11, 106
1, 114933, Note_on_c, 1, 33, 0
1, 114940, Note_on_c, 13, 45, 0
1, 114942, Control_c, 0, 11, 73
1, 114949, Note_on_c, 12, 45, 0
1, 114962, Control_c, 0, 11, 74
1, 114965, Note_on_c, 13, 52, 0
1, 114967, Note_on_c, 0, 61, 62
1, 114967, Note_on_c, 0, 57, 66
1, 114967, Note_on_c, 1, 33, 90
1, 114967, Note_on_c, 3, 76, 99
1, 114967, Note_on_c, 5, 45, 93
1, 114967, Note_on_c, 5, 57, 102
1, 114967, Note_on_c, 5, 52, 87
1, 114967, Note_on_c, 6, 57, 96
1, 114967, Note_on_c, 6, 45, 90
1, 114967, Note_on_c, 7, 71, 78
1, 114967, Note_on_c, 7, 57, 82
1, 114967, Note_on_c, 7, 45, 96
1, 114967, Note_on_c, 8, 45, 99
1, 114967, Note_on_c, 9, 36, 43
1, 114967, Note_on_c, 9, 46, 41
1, 114967, Note_on_c, 9, 59, 71
1, 114967, Note_on_c, 9, 41, 43
1, 114967, Note_on_c, 10, 69, 62
1, 114967, Note_on_c, 10, 57, 58
1, 114967, Note_on_c, 11, 57, 58
1, 114967, Note_on_c, 11, 61, 74
1, 114967, Note_on_c, 11, 52, 61
1, 114967, Note_on_c, 12, 45, 68
1, 114967, Note_on_c, 13, 45, 66
1, 114967, Note_on_c, 13, 52, 66
1, 114967, Lyric_t, "I'd "
1, 114972, Control_c, 13, 11, 75
1, 114975, Note_on_c, 3, 78, 0
1, 114982, Control_c, 8, 11, 107
1, 114982, Control_c, 10, 11, 77
1, 114987, Control_c, 7, 64, 0
1, 114992, Control_c, 0, 11, 75
1, 115012, Control_c, 0, 11, 76
1, 115032, Control_c, 13, 11, 76
1, 115042, Control_c, 0, 11, 77
1, 115042, Control_c, 8, 11, 108
1, 115047, Note_on_c, 6, 57, 0
1, 115052, Control_c, 10, 11, 78
1, 115060, Note_on_c, 6, 45, 0
1, 115060, Note_on_c, 0, 57, 0
1, 115062, Control_c, 0, 11, 78
1, 115085, Note_on_c, 9, 41, 0
1, 115085, Note_on_c, 9, 36, 0
1, 115085, Note_on_c, 9, 59, 0
1, 115085, Note_on_c, 9, 46, 0
1, 115085, Note_on_c, 7, 45, 0
1, 115085, Note_on_c, 7, 71, 0
1, 115085, Note_on_c, 7, 57, 0
1, 115087, Note_on_c, 7, 69, 68
1, 115090, Note_on_c, 0, 61, 0
1, 115092, Control_c, 0, 11, 79
1, 115092, Control_c, 8, 11, 109
1, 115092, Control_c, 13, 11, 77
1, 115097, Note_on_c, 3, 76, 0
1, 115112, Control_c, 0, 11, 80
1, 115112, Control_c, 10, 11, 79
1, 115113, Note_on_c, 10, 69, 0
1, 115115, Note_on_c, 10, 57, 0
1, 115142, Control_c, 0, 11, 81
1, 115152, Control_c, 8, 11, 110
1, 115152, Control_c, 13, 11, 78
1, 115154, Note_on_c, 8, 45, 0
1, 115162, Control_c, 0, 11, 82
1, 115165, Note_on_c, 5, 52, 0
1, 115165, Note_on_c, 5, 45, 0
1, 115172, Note_on_c, 11, 52, 0
1, 115172, Note_on_c, 5, 57, 0
1, 115172, Control_c, 10, 11, 80
1, 115175, Note_on_c, 12, 45, 0
1, 115178, Note_on_c, 1, 33, 0
1, 115183, Note_on_c, 11, 57, 0
1, 115184, Note_on_c, 11, 61, 0
1, 115192, Control_c, 0, 11, 83
1, 115202, Control_c, 8, 11, 111
1, 115205, Note_on_c, 13, 45, 0
1, 115205, Note_on_c, 7, 76, 0
1, 115205, Note_on_c, 13, 52, 0
1, 115205, Note_on_c, 7, 69, 0
1, 115207, Note_on_c, 0, 57, 70
1, 115207, Note_on_c, 0, 61, 64
1, 115207, Note_on_c, 1, 33, 96
1, 115207, Note_on_c, 3, 81, 111
1, 115207, Note_on_c, 5, 57, 105
1, 115207, Note_on_c, 5, 45, 93
1, 115207, Note_on_c, 5, 52, 96
1, 115207, Note_on_c, 6, 57, 102
1, 115207, Note_on_c, 6, 45, 102
1, 115207, Note_on_c, 7, 45, 90
1, 115207, Note_on_c, 7, 76, 105
1, 115207, Note_on_c, 7, 57, 80
1, 115207, Note_on_c, 8, 45, 105
1, 115207, Note_on_c, 9, 41, 49
1, 115207, Note_on_c, 9, 36, 49
1, 115207, Note_on_c, 9, 53, 58
1, 115207, Note_on_c, 9, 46, 45
1, 115207, Note_on_c, 10, 57, 64
1, 115207, Note_on_c, 10, 69, 44
1, 115207, Note_on_c, 10, 73, 49
1, 115207, Note_on_c, 11, 57, 62
1, 115207, Note_on_c, 11, 61, 78
1, 115207, Note_on_c, 11, 52, 66
1, 115207, Note_on_c, 12, 45, 74
1, 115207, Note_on_c, 13, 45, 78
1, 115207, Note_on_c, 13, 52, 80
1, 115207, Lyric_t, "touch "
1, 115212, Control_c, 0, 11, 84
1, 115212, Control_c, 13, 11, 79
1, 115215, Control_c, 7, 64, 127
1, 115232, Control_c, 10, 11, 81
1, 115242, Control_c, 0, 11, 85
1, 115262, Control_c, 0, 11, 86
1, 115262, Control_c, 8, 11, 112
1, 115272, Control_c, 13, 11, 80
1, 115292, Control_c, 0, 11, 87
1, 115301, Note_on_c, 0, 57, 0
1, 115302, Control_c, 10, 11, 82
1, 115309, Note_on_c, 0, 61, 0
1, 115312, Control_c, 0, 11, 88
1, 115312, Control_c, 8, 11, 113
1, 115322, Note_on_c, 6, 57, 0
1, 115324, Note_on_c, 10, 73, 0
1, 115325, Note_on_c, 9, 46, 0
1, 115325, Note_on_c, 9, 53, 0
1, 115325, Note_on_c, 7, 45, 0
1, 115325, Note_on_c, 9, 36, 0
1, 115325, Note_on_c, 9, 41, 0
1, 115325, Note_on_c, 7, 57, 0
1, 115327, Note_on_c, 7, 69, 87
1, 115328, Note_on_c, 6, 45, 0
1, 115332, Control_c, 13, 11, 81
1, 115342, Control_c, 0, 11, 89
1, 115344, Note_on_c, 10, 69, 0
1, 115354, Note_on_c, 10, 57, 0
1, 115362, Control_c, 0, 11, 90
1, 115362, Control_c, 10, 11, 83
1, 115372, Control_c, 8, 11, 114
1, 115392, Control_c, 0, 11, 91
1, 115392, Control_c, 13, 11, 82
1, 115396, Note_on_c, 8, 45, 0
1, 115400, Note_on_c, 5, 45, 0
1, 115401, Note_on_c, 5, 52, 0
1, 115407, Note_on_c, 1, 33, 0
1, 115410, Note_on_c, 11, 52, 0
1, 115412, Control_c, 0, 11, 92
1, 115413, Note_on_c, 5, 57, 0
1, 115419, Note_on_c, 11, 61, 0
1, 115422, Note_on_c, 11, 57, 0
1, 115422, Control_c, 8, 11, 115
1, 115422, Control_c, 10, 11, 84
1, 115425, Note_on_c, 12, 45, 0
1, 115442, Control_c, 0, 11, 93
1, 115445, Note_on_c, 13, 52, 0
1, 115445, Note_on_c, 13, 45, 0
1, 115447, Note_on_c, 0, 57, 70
1, 115447, Note_on_c, 0, 61, 72
1, 115447, Note_on_c, 1, 33, 87
1, 115447, Note_on_c, 5, 57, 102
1, 115447, Note_on_c, 5, 45, 99
1, 115447, Note_on_c, 5, 52, 99
1, 115447, Note_on_c, 6, 57, 108
1, 115447, Note_on_c, 6, 45, 99
1, 115447, Note_on_c, 7, 57, 84
1, 115447, Note_on_c, 7, 45, 84
1, 115447, Note_on_c, 8, 45, 105
1, 115447, Note_on_c, 9, 46, 49
1, 115447, Note_on_c, 9, 41, 56
1, 115447, Note_on_c, 9, 36, 56
1, 115447, Note_on_c, 10, 57, 68
1, 115447, Note_on_c, 10, 69, 49
1, 115447, Note_on_c, 10, 73, 62
1, 115447, Note_on_c, 11, 57, 72
1, 115447, Note_on_c, 11, 61, 80
1, 115447, Note_on_c, 11, 52, 76
1, 115447, Note_on_c, 12, 45, 80
1, 115447, Note_on_c, 13, 45, 84
1, 115447, Note_on_c, 13, 52, 84
1, 115452, Control_c, 13, 11, 83
1, 115462, Control_c, 0, 11, 94
1, 115482, Control_c, 8, 11, 116
1, 115482, Control_c, 10, 11, 85
1, 115492, Control_c, 0, 11, 95
1, 115512, Control_c, 0, 11, 96
1, 115512, Control_c, 13, 11, 84
1, 115532, Control_c, 8, 11, 117
1, 115538, Note_on_c, 0, 57, 0
1, 115542, Control_c, 0, 11, 97
1, 115542, Control_c, 10, 11, 86
1, 115554, Note_on_c, 0, 61, 0
1, 115559, Note_on_c, 10, 69, 0
1, 115562, Control_c, 0, 11, 98
1, 115565, Note_on_c, 9, 41, 0
1, 115565, Note_on_c, 9, 36, 0
1, 115565, Note_on_c, 7, 69, 0
1, 115565, Note_on_c, 9, 46, 0
1, 115565, Note_on_c, 7, 57, 0
1, 115565, Note_on_c, 7, 76, 0
1, 115565, Note_on_c, 7, 45, 0
1, 115567, Note_on_c, 3, 80, 99
1, 115567, Note_on_c, 7, 71, 87
1, 115567, Note_on_c, 7, 69, 74
1, 115567, Lyric_t, "an "
1, 115571, Note_on_c, 10, 73, 0
1, 115572, Control_c, 13, 11, 85
1, 115577, Note_on_c, 10, 57, 0
1, 115579, Note_on_c, 6, 57, 0
1, 115580, Note_on_c, 6, 45, 0
1, 115592, Control_c, 0, 11, 99
1, 115592, Control_c, 8, 11, 118
1, 115607, Note_on_c, 3, 81, 0
1, 115612, Control_c, 10, 11, 87
1, 115618, Note_on_c, 3, 80, 0
1, 115622, Note_on_c, 11, 52, 0
1, 115622, Control_c, 0, 11, 100
1, 115628, Note_on_c, 8, 45, 0
1, 115632, Control_c, 13, 11, 86
1, 115633, Note_on_c, 11, 57, 0
1, 115635, Note_on_c, 11, 61, 0
1, 115642, Control_c, 0, 11, 101
1, 115642, Control_c, 8, 11, 119
1, 115647, Note_on_c, 1, 33, 0
1, 115651, Note_on_c, 5, 45, 0
1, 115651, Note_on_c, 12, 45, 0
1, 115653, Note_on_c, 5, 52, 0
1, 115672, Control_c, 0, 11, 102
1, 115672, Control_c, 10, 11, 88
1, 115685, Note_on_c, 7, 69, 0
1, 115685, Note_on_c, 13, 45, 0
1, 115685, Note_on_c, 13, 52, 0
1, 115685, Note_on_c, 7, 71, 0
1, 115687, Note_on_c, 0, 57, 78
1, 115687, Note_on_c, 0, 61, 76
1, 115687, Note_on_c, 1, 33, 93
1, 115687, Note_on_c, 3, 80, 111
1, 115687, Note_on_c, 5, 61, 90
1, 115687, Note_on_c, 5, 45, 93
1, 115687, Note_on_c, 5, 52, 99
1, 115687, Note_on_c, 6, 57, 108
1, 115687, Note_on_c, 6, 45, 102
1, 115687, Note_on_c, 7, 73, 90
1, 115687, Note_on_c, 7, 69, 82
1, 115687, Note_on_c, 7, 57, 78
1, 115687, Note_on_c, 7, 45, 90
1, 115687, Note_on_c, 8, 45, 111
1, 115687, Note_on_c, 9, 53, 61
1, 115687, Note_on_c, 9, 46, 53
1, 115687, Note_on_c, 9, 41, 62
1, 115687, Note_on_c, 9, 36, 62
1, 115687, Note_on_c, 10, 57, 76
1, 115687, Note_on_c, 10, 69, 64
1, 115687, Note_on_c, 10, 73, 64
1, 115687, Note_on_c, 11, 57, 74
1, 115687, Note_on_c, 11, 61, 82
1, 115687, Note_on_c, 11, 52, 84
1, 115687, Note_on_c, 12, 45, 87
1, 115687, Note_on_c, 13, 52, 84
1, 115687, Note_on_c, 13, 45, 90
1, 115687, Lyric_t, "an"
1, 115692, Control_c, 0, 11, 103
1, 115692, Control_c, 13, 11, 87
1, 115702, Control_c, 8, 11, 120
1, 115722, Control_c, 0, 11, 104
1, 115732, Control_c, 10, 11, 89
1, 115742, Control_c, 0, 11, 105
1, 115752, Control_c, 8, 11, 121
1, 115752, Control_c, 13, 11, 88
1, 115772, Note_on_c, 0, 57, 0
1, 115772, Control_c, 0, 11, 106
1, 115784, Note_on_c, 0, 61, 0
1, 115792, Control_c, 0, 11, 107
1, 115792, Control_c, 10, 11, 90
1, 115805, Note_on_c, 9, 36, 0
1, 115805, Note_on_c, 9, 41, 0
1, 115805, Note_on_c, 7, 73, 0
1, 115805, Note_on_c, 9, 46, 0
1, 115805, Note_on_c, 9, 53, 0
1, 115805, Note_on_c, 7, 57, 0
1, 115805, Note_on_c, 7, 69, 0
1, 115805, Note_on_c, 7, 45, 0
1, 115807, Note_on_c, 7, 76, 99
1, 115811, Note_on_c, 10, 69, 0
1, 115812, Control_c, 8, 11, 122
1, 115812, Control_c, 13, 11, 89
1, 115816, Note_on_c, 10, 57, 0
1, 115817, Note_on_c, 6, 45, 0
1, 115821, Note_on_c, 6, 57, 0
1, 115822, Control_c, 0, 11, 108
1, 115825, Note_on_c, 10, 73, 0
1, 115842, Control_c, 0, 11, 109
1, 115852, Control_c, 10, 11, 91
1, 115862, Control_c, 8, 11, 123
1, 115869, Note_on_c, 8, 45, 0
1, 115872, Control_c, 0, 11, 110
1, 115872, Control_c, 13, 11, 90
1, 115886, Note_on_c, 5, 61, 0
1, 115888, Note_on_c, 5, 52, 0
1, 115890, Note_on_c, 5, 45, 0
1, 115891, Note_on_c, 5, 57, 0
1, 115892, Control_c, 0, 11, 111
1, 115898, Note_on_c, 12, 45, 0
1, 115900, Note_on_c, 1, 33, 0
1, 115903, Note_on_c, 11, 52, 0
1, 115916, Note_on_c, 11, 61, 0
1, 115921, Note_on_c, 11, 57, 0
1, 115922, Control_c, 0, 11, 112
1, 115922, Control_c, 8, 11, 124
1, 115922, Control_c, 10, 11, 92
1, 115925, Note_on_c, 13, 52, 0
1, 115925, Note_on_c, 7, 76, 0
1, 115925, Note_on_c, 13, 45, 0
1, 115927, Note_on_c, 0, 57, 82
1, 115927, Note_on_c, 0, 61, 84
1, 115927, Note_on_c, 1, 33, 93
1, 115927, Note_on_c, 3, 78, 108
1, 115927, Note_on_c, 5, 61, 102
1, 115927, Note_on_c, 5, 57, 93
1, 115927, Note_on_c, 5, 52, 90
1, 115927, Note_on_c, 5, 45, 93
1, 115927, Note_on_c, 6, 45, 111
1, 115927, Note_on_c, 6, 57, 114
1, 115927, Note_on_c, 7, 71, 87
1, 115927, Note_on_c, 7, 69, 93
1, 115927, Note_on_c, 7, 57, 74
1, 115927, Note_on_c, 7, 45, 93
1, 115927, Note_on_c, 8, 45, 108
1, 115927, Note_on_c, 9, 46, 57
1, 115927, Note_on_c, 9, 36, 69
1, 115927, Note_on_c, 9, 41, 69
1, 115927, Note_on_c, 9, 59, 72
1, 115927, Note_on_c, 10, 57, 84
1, 115927, Note_on_c, 10, 69, 76
1, 115927, Note_on_c, 10, 73, 76
1, 115927, Note_on_c, 11, 57, 80
1, 115927, Note_on_c, 11, 61, 90
1, 115927, Note_on_c, 11, 52, 84
1, 115927, Note_on_c, 12, 45, 90
1, 115927, Note_on_c, 13, 45, 90
1, 115927, Note_on_c, 13, 52, 102
1, 115927, Lyric_t, "gel's "
1, 115928, Note_on_c, 3, 80, 0
1, 115932, Control_c, 13, 11, 91
1, 115942, Control_c, 0, 11, 113
1, 115944, Control_c, 7, 64, 127
1, 115972, Control_c, 0, 11, 114
1, 115972, Control_c, 8, 11, 125
1, 115982, Control_c, 10, 11, 93
1, 115991, Control_c, 7, 64, 0
1, 115992, Control_c, 0, 11, 115
1, 115992, Control_c, 13, 11, 92
1, 116020, Note_on_c, 0, 57, 0
1, 116022, Control_c, 0, 11, 116
1, 116029, Note_on_c, 0, 61, 0
1, 116032, Control_c, 8, 11, 126
1, 116041, Note_on_c, 6, 45, 0
1, 116042, Control_c, 0, 11, 117
1, 116042, Control_c, 10, 11, 94
1, 116045, Note_on_c, 9, 41, 0
1, 116045, Note_on_c, 9, 36, 0
1, 116045, Note_on_c, 9, 46, 0
1, 116045, Note_on_c, 9, 59, 0
1, 116045, Note_on_c, 7, 57, 0
1, 116047, Note_on_c, 6, 57, 0
1, 116052, Control_c, 13, 11, 93
1, 116064, Note_on_c, 10, 69, 0
1, 116065, Note_on_c, 10, 73, 0
1, 116066, Note_on_c, 3, 78, 0
1, 116071, Note_on_c, 10, 57, 0
1, 116072, Control_c, 0, 11, 118
1, 116079, Note_on_c, 5, 52, 0
1, 116082, Control_c, 8, 11, 127
1, 116087, Note_on_c, 5, 61, 0
1, 116087, Note_on_c, 5, 57, 0
1, 116089, Note_on_c, 5, 45, 0
1, 116092, Control_c, 0, 11, 119
1, 116101, Note_on_c, 8, 45, 0
1, 116102, Control_c, 10, 11, 95
1, 116103, Note_on_c, 11, 57, 0
1, 116112, Control_c, 13, 11, 94
1, 116122, Control_c, 0, 11, 120
1, 116131, Note_on_c, 1, 33, 0
1, 116140, Note_on_c, 11, 61, 0
1, 116140, Note_on_c, 13, 45, 0
1, 116141, Note_on_c, 11, 52, 0
1, 116142, Note_on_c, 12, 45, 0
1, 116142, Control_c, 0, 11, 121
1, 116162, Control_c, 10, 11, 95
1, 116165, Note_on_c, 7, 71, 0
1, 116165, Note_on_c, 13, 52, 0
1, 116165, Note_on_c, 7, 69, 0
1, 116165, Note_on_c, 7, 45, 0
1, 116167, Note_on_c, 0, 58, 84
1, 116167, Note_on_c, 1, 34, 84
1, 116167, Note_on_c, 3, 80, 114
1, 116167, Note_on_c, 5, 61, 107
1, 116167, Note_on_c, 5, 58, 107
1, 116167, Note_on_c, 5, 46, 107
1, 116167, Note_on_c, 5, 66, 107
1, 116167, Note_on_c, 6, 58, 112
1, 116167, Note_on_c, 6, 46, 112
1, 116167, Note_on_c, 7, 58, 90
1, 116167, Note_on_c, 7, 73, 82
1, 116167, Note_on_c, 7, 70, 82
1, 116167, Note_on_c, 7, 46, 90
1, 116167, Note_on_c, 8, 58, 108
1, 116167, Note_on_c, 9, 46, 61
1, 116167, Note_on_c, 9, 53, 62
1, 116167, Note_on_c, 9, 41, 76
1, 116167, Note_on_c, 9, 36, 76
1, 116167, Note_on_c, 10, 70, 72
1, 116167, Note_on_c, 10, 66, 61
1, 116167, Note_on_c, 11, 58, 87
1, 116167, Note_on_c, 11, 61, 87
1, 116167, Note_on_c, 11, 54, 87
1, 116167, Note_on_c, 12, 46, 82
1, 116167, Note_on_c, 13, 46, 99
1, 116167, Lyric_t, "wings. "
1, 116167, Lyric_t, "\015"
1, 116171, Control_c, 7, 64, 0
1, 116172, Control_c, 0, 11, 122
1, 116172, Control_c, 13, 11, 95
1, 116192, Control_c, 0, 11, 123
1, 116219, Note_on_c, 10, 66, 0
1, 116222, Control_c, 0, 11, 124
1, 116222, Control_c, 10, 11, 96
1, 116232, Control_c, 13, 11, 96
1, 116236, Note_on_c, 0, 58, 0
1, 116239, Note_on_c, 10, 70, 0
1, 116242, Control_c, 0, 11, 125
1, 116246, Note_on_c, 6, 58, 0
1, 116251, Note_on_c, 6, 46, 0
1, 116251, Control_c, 7, 64, 127
1, 116262, Note_on_c, 8, 58, 0
1, 116272, Control_c, 0, 11, 126
1, 116282, Note_on_c, 12, 46, 0
1, 116282, Control_c, 10, 11, 97
1, 116285, Note_on_c, 9, 41, 0
1, 116285, Note_on_c, 9, 53, 0
1, 116285, Note_on_c, 9, 36, 0
1, 116285, Note_on_c, 9, 46, 0
1, 116287, Note_on_c, 0, 61, 84
1, 116287, Note_on_c, 0, 58, 76
1, 116287, Note_on_c, 6, 61, 96
1, 116287, Note_on_c, 6, 49, 96
1, 116287, Note_on_c, 8, 61, 96
1, 116287, Note_on_c, 10, 73, 76
1, 116287, Note_on_c, 10, 66, 74
1, 116287, Note_on_c, 12, 46, 59
1, 116292, Control_c, 0, 11, 127
1, 116292, Control_c, 13, 11, 97
1, 116330, Note_on_c, 0, 58, 0
1, 116339, Note_on_c, 10, 66, 0
1, 116339, Control_c, 7, 64, 0
1, 116340, Note_on_c, 5, 46, 0
1, 116342, Control_c, 10, 11, 98
1, 116344, Note_on_c, 5, 58, 0
1, 116346, Note_on_c, 7, 58, 0
1, 116352, Control_c, 13, 11, 98
1, 116353, Note_on_c, 5, 66, 0
1, 116355, Note_on_c, 6, 61, 0
1, 116355, Note_on_c, 7, 46, 0
1, 116356, Note_on_c, 12, 46, 0
1, 116357, Note_on_c, 5, 61, 0
1, 116358, Note_on_c, 1, 34, 0
1, 116367, Note_on_c, 7, 70, 0
1, 116372, Note_on_c, 6, 49, 0
1, 116375, Note_on_c, 10, 73, 0
1, 116375, Note_on_c, 0, 61, 0
1, 116377, Control_c, 7, 64, 127
1, 116382, Note_on_c, 8, 61, 0
1, 116383, Note_on_c, 7, 73, 0
1, 116384, Note_on_c, 11, 54, 0
1, 116386, Note_on_c, 11, 61, 0
1, 116394, Note_on_c, 11, 58, 0
1, 116402, Control_c, 10, 11, 99
1, 116405, Note_on_c, 13, 46, 0
1, 116407, Note_on_c, 0, 64, 87
1, 116407, Note_on_c, 0, 61, 62
1, 116407, Note_on_c, 1, 34, 99
1, 116407, Note_on_c, 3, 81, 105
1, 116407, Note_on_c, 5, 58, 87
1, 116407, Note_on_c, 5, 46, 108
1, 116407, Note_on_c, 5, 66, 78
1, 116407, Note_on_c, 5, 61, 90
1, 116407, Note_on_c, 6, 64, 96
1, 116407, Note_on_c, 6, 52, 82
1, 116407, Note_on_c, 7, 58, 74
1, 116407, Note_on_c, 7, 73, 87
1, 116407, Note_on_c, 7, 70, 87
1, 116407, Note_on_c, 7, 46, 87
1, 116407, Note_on_c, 8, 64, 102
1, 116407, Note_on_c, 9, 46, 65
1, 116407, Note_on_c, 9, 36, 82
1, 116407, Note_on_c, 9, 41, 82
1, 116407, Note_on_c, 10, 66, 74
1, 116407, Note_on_c, 10, 76, 78
1, 116407, Note_on_c, 11, 54, 87
1, 116407, Note_on_c, 11, 58, 76
1, 116407, Note_on_c, 11, 61, 84
1, 116407, Note_on_c, 12, 46, 74
1, 116407, Note_on_c, 13, 46, 99
1, 116412, Control_c, 13, 11, 99
1, 116417, Note_on_c, 3, 80, 0
1, 116453, Note_on_c, 0, 61, 0
1, 116462, Control_c, 10, 11, 100
1, 116463, Note_on_c, 10, 66, 0
1, 116470, Note_on_c, 10, 76, 0
1, 116472, Control_c, 13, 11, 100
1, 116474, Note_on_c, 0, 64, 0
1, 116482, Note_on_c, 6, 52, 0
1, 116506, Note_on_c, 6, 64, 0
1, 116511, Note_on_c, 8, 64, 0
1, 116522, Control_c, 10, 11, 101
1, 116525, Note_on_c, 9, 46, 0
1, 116525, Note_on_c, 9, 41, 0
1, 116525, Note_on_c, 9, 36, 0
1, 116527, Note_on_c, 0, 61, 80
1, 116527, Note_on_c, 0, 64, 70
1, 116527, Note_on_c, 3, 80, 114
1, 116527, Note_on_c, 6, 61, 102
1, 116527, Note_on_c, 6, 49, 102
1, 116527, Note_on_c, 8, 61, 87
1, 116527, Note_on_c, 10, 66, 80
1, 116527, Note_on_c, 10, 73, 76
1, 116532, Control_c, 13, 11, 101
1, 116563, Note_on_c, 3, 81, 0
1, 116570, Note_on_c, 0, 64, 0
1, 116582, Note_on_c, 6, 61, 0
1, 116582, Control_c, 7, 64, 0
1, 116582, Control_c, 10, 11, 102
1, 116583, Note_on_c, 10, 66, 0
1, 116585, Note_on_c, 6, 49, 0
1, 116586, Note_on_c, 7, 46, 0
1, 116592, Control_c, 13, 11, 102
1, 116594, Note_on_c, 10, 73, 0
1, 116594, Note_on_c, 7, 58, 0
1, 116594, Note_on_c, 5, 46, 0
1, 116599, Note_on_c, 0, 61, 0
1, 116601, Note_on_c, 8, 61, 0
1, 116601, Note_on_c, 5, 58, 0
1, 116603, Note_on_c, 5, 66, 0
1, 116604, Note_on_c, 12, 46, 0
1, 116604, Note_on_c, 11, 54, 0
1, 116605, Note_on_c, 5, 61, 0
1, 116610, Note_on_c, 11, 61, 0
1, 116613, Note_on_c, 7, 70, 0
1, 116614, Note_on_c, 1, 34, 0
1, 116615, Note_on_c, 11, 58, 0
1, 116623, Note_on_c, 7, 73, 0
1, 116632, Control_c, 10, 11, 103
1, 116645, Note_on_c, 13, 46, 0
1, 116647, Note_on_c, 0, 64, 87
1, 116647, Note_on_c, 0, 68, 90
1, 116647, Note_on_c, 1, 34, 93
1, 116647, Note_on_c, 5, 58, 99
1, 116647, Note_on_c, 5, 66, 99
1, 116647, Note_on_c, 5, 61, 102
1, 116647, Note_on_c, 5, 46, 108
1, 116647, Note_on_c, 6, 56, 108
1, 116647, Note_on_c, 6, 68, 108
1, 116647, Note_on_c, 7, 58, 87
1, 116647, Note_on_c, 7, 46, 87
1, 116647, Note_on_c, 7, 70, 87
1, 116647, Note_on_c, 7, 73, 90
1, 116647, Note_on_c, 8, 68, 96
1, 116647, Note_on_c, 9, 41, 89
1, 116647, Note_on_c, 9, 46, 69
1, 116647, Note_on_c, 9, 36, 89
1, 116647, Note_on_c, 10, 66, 90
1, 116647, Note_on_c, 10, 80, 90
1, 116647, Note_on_c, 11, 58, 84
1, 116647, Note_on_c, 11, 61, 87
1, 116647, Note_on_c, 11, 54, 96
1, 116647, Note_on_c, 12, 46, 82
1, 116647, Note_on_c, 13, 46, 102
1, 116652, Control_c, 13, 11, 103
1, 116681, Control_c, 7, 64, 127
1, 116692, Control_c, 10, 11, 104
1, 116711, Note_on_c, 10, 66, 0
1, 116712, Control_c, 13, 11, 104
1, 116722, Note_on_c, 0, 64, 0
1, 116726, Note_on_c, 0, 68, 0
1, 116728, Note_on_c, 6, 68, 0
1, 116737, Note_on_c, 6, 56, 0
1, 116739, Note_on_c, 8, 68, 0
1, 116748, Note_on_c, 10, 80, 0
1, 116752, Control_c, 10, 11, 105
1, 116753, Note_on_c, 12, 46, 0
1, 116763, Note_on_c, 3, 80, 0
1, 116765, Note_on_c, 9, 46, 0
1, 116765, Note_on_c, 9, 41, 0
1, 116765, Note_on_c, 9, 36, 0
1, 116767, Note_on_c, 0, 64, 78
1, 116767, Note_on_c, 0, 61, 62
1, 116767, Note_on_c, 3, 78, 114
1, 116767, Note_on_c, 6, 64, 90
1, 116767, Note_on_c, 6, 52, 87
1, 116767, Note_on_c, 8, 64, 93
1, 116767, Note_on_c, 10, 76, 90
1, 116767, Note_on_c, 10, 66, 90
1, 116767, Note_on_c, 12, 46, 76
1, 116772, Control_c, 13, 11, 105
1, 116808, Note_on_c, 0, 61, 0
1, 116812, Control_c, 10, 11, 106
1, 116819, Note_on_c, 10, 66, 0
1, 116828, Note_on_c, 6, 64, 0
1, 116828, Note_on_c, 5, 46, 0
1, 116830, Note_on_c, 6, 52, 0
1, 116832, Control_c, 13, 11, 106
1, 116833, Note_on_c, 11, 54, 0
1, 116835, Note_on_c, 5, 58, 0
1, 116835, Note_on_c, 7, 58, 0
1, 116836, Note_on_c, 10, 76, 0
1, 116837, Note_on_c, 7, 46, 0
1, 116837, Note_on_c, 5, 66, 0
1, 116841, Note_on_c, 5, 61, 0
1, 116841, Note_on_c, 11, 61, 0
1, 116841, Note_on_c, 0, 64, 0
1, 116845, Note_on_c, 1, 34, 0
1, 116847, Note_on_c, 11, 58, 0
1, 116852, Note_on_c, 12, 46, 0
1, 116856, Note_on_c, 7, 70, 0
1, 116859, Note_on_c, 7, 73, 0
1, 116860, Note_on_c, 8, 64, 0
1, 116872, Control_c, 10, 11, 107
1, 116885, Note_on_c, 13, 46, 0
1, 116887, Note_on_c, 0, 61, 72
1, 116887, Note_on_c, 0, 58, 105
1, 116887, Note_on_c, 1, 34, 102
1, 116887, Note_on_c, 5, 46, 108
1, 116887, Note_on_c, 5, 61, 102
1, 116887, Note_on_c, 5, 58, 99
1, 116887, Note_on_c, 5, 66, 93
1, 116887, Note_on_c, 6, 61, 105
1, 116887, Note_on_c, 6, 49, 105
1, 116887, Note_on_c, 7, 70, 90
1, 116887, Note_on_c, 7, 73, 76
1, 116887, Note_on_c, 7, 58, 99
1, 116887, Note_on_c, 7, 46, 102
1, 116887, Note_on_c, 8, 61, 105
1, 116887, Note_on_c, 9, 46, 73
1, 116887, Note_on_c, 9, 36, 105
1, 116887, Note_on_c, 10, 73, 96
1, 116887, Note_on_c, 10, 66, 93
1, 116887, Note_on_c, 11, 54, 93
1, 116887, Note_on_c, 11, 61, 87
1, 116887, Note_on_c, 11, 58, 87
1, 116887, Note_on_c, 12, 46, 84
1, 116887, Note_on_c, 13, 46, 105
1, 116892, Control_c, 13, 11, 107
1, 116932, Control_c, 10, 11, 108
1, 116952, Note_on_c, 10, 66, 0
1, 116952, Control_c, 13, 11, 108
1, 116955, Note_on_c, 6, 49, 0
1, 116955, Note_on_c, 0, 58, 0
1, 116973, Note_on_c, 6, 61, 0
1, 116974, Note_on_c, 12, 46, 0
1, 116977, Note_on_c, 10, 73, 0
1, 116977, Note_on_c, 0, 61, 0
1, 116980, Note_on_c, 8, 61, 0
1, 116992, Control_c, 10, 11, 109
1, 117005, Note_on_c, 9, 46, 0
1, 117005, Note_on_c, 9, 36, 0
1, 117007, Note_on_c, 0, 61, 76
1, 117007, Note_on_c, 0, 64, 96
1, 117007, Note_on_c, 6, 64, 99
1, 117007, Note_on_c, 6, 52, 82
1, 117007, Note_on_c, 8, 64, 99
1, 117007, Note_on_c, 9, 36, 89
1, 117007, Note_on_c, 10, 76, 93
1, 117007, Note_on_c, 10, 66, 105
1, 117007, Note_on_c, 12, 46, 76
1, 117012, Control_c, 13, 11, 109
1, 117052, Control_c, 10, 11, 110
1, 117054, Note_on_c, 7, 46, 0
1, 117055, Note_on_c, 7, 58, 0
1, 117062, Note_on_c, 10, 66, 0
1, 117064, Note_on_c, 6, 64, 0
1, 117066, Note_on_c, 6, 52, 0
1, 117072, Control_c, 13, 11, 110
1, 117073, Note_on_c, 10, 76, 0
1, 117078, Note_on_c, 5, 46, 0
1, 117079, Note_on_c, 7, 73, 0
1, 117079, Note_on_c, 5, 58, 0
1, 117083, Note_on_c, 7, 70, 0
1, 117084, Note_on_c, 5, 66, 0
1, 117084, Note_on_c, 1, 34, 0
1, 117088, Note_on_c, 5, 61, 0
1, 117089, Note_on_c, 0, 61, 0
1, 117090, Note_on_c, 12, 46, 0
1, 117095, Note_on_c, 0, 64, 0
1, 117097, Note_on_c, 8, 64, 0
1, 117097, Note_on_c, 11, 54, 0
1, 117101, Note_on_c, 9, 38, 105
1, 117102, Control_c, 10, 11, 111
1, 117109, Note_on_c, 11, 61, 0
1, 117110, Note_on_c, 11, 58, 0
1, 117125, Note_on_c, 9, 36, 0
1, 117125, Note_on_c, 13, 46, 0
1, 117127, Note_on_c, 0, 68, 84
1, 117127, Note_on_c, 0, 64, 87
1, 117127, Note_on_c, 1, 34, 102
1, 117127, Note_on_c, 5, 58, 102
1, 117127, Note_on_c, 5, 66, 99
1, 117127, Note_on_c, 5, 61, 105
1, 117127, Note_on_c, 5, 46, 111
1, 117127, Note_on_c, 6, 68, 105
1, 117127, Note_on_c, 6, 56, 111
1, 117127, Note_on_c, 7, 58, 90
1, 117127, Note_on_c, 7, 46, 96
1, 117127, Note_on_c, 7, 70, 80
1, 117127, Note_on_c, 7, 73, 87
1, 117127, Note_on_c, 7, 66, 84
1, 117127, Note_on_c, 8, 68, 105
1, 117127, Note_on_c, 9, 38, 115
1, 117127, Note_on_c, 10, 70, 99
1, 117127, Note_on_c, 11, 58, 87
1, 117127, Note_on_c, 11, 54, 102
1, 117127, Note_on_c, 11, 61, 93
1, 117127, Note_on_c, 12, 46, 90
1, 117127, Note_on_c, 13, 46, 105
1, 117132, Control_c, 13, 11, 111
1, 117162, Control_c, 10, 11, 112
1, 117173, Note_on_c, 0, 64, 0
1, 117186, Note_on_c, 0, 68, 0
1, 117192, Note_on_c, 6, 56, 0
1, 117192, Control_c, 13, 11, 112
1, 117195, Note_on_c, 10, 70, 0
1, 117196, Note_on_c, 6, 68, 0
1, 117201, Note_on_c, 7, 66, 0
1, 117208, Note_on_c, 8, 68, 0
1, 117209, Note_on_c, 7, 58, 0
1, 117216, Note_on_c, 7, 46, 0
1, 117219, Note_on_c, 12, 46, 0
1, 117219, Note_on_c, 9, 38, 0
1, 117221, Note_on_c, 7, 70, 0
1, 117222, Control_c, 10, 11, 113
1, 117227, Control_c, 7, 64, 0
1, 117243, Note_on_c, 3, 78, 0
1, 117245, Note_on_c, 9, 38, 0
1, 117247, Note_on_c, 0, 70, 102
1, 117247, Note_on_c, 0, 66, 87
1, 117247, Note_on_c, 3, 76, 105
1, 117247, Note_on_c, 6, 58, 108
1, 117247, Note_on_c, 6, 70, 108
1, 117247, Note_on_c, 7, 70, 74
1, 117247, Note_on_c, 7, 58, 90
1, 117247, Note_on_c, 7, 46, 90
1, 117247, Note_on_c, 7, 66, 72
1, 117247, Note_on_c, 8, 70, 108
1, 117247, Note_on_c, 9, 36, 95
1, 117247, Note_on_c, 10, 73, 93
1, 117247, Note_on_c, 12, 46, 90
1, 117247, Lyric_t, "Ooh... "
1, 117247, Lyric_t, "\015"
1, 117252, Control_c, 13, 11, 113
1, 117282, Control_c, 10, 11, 114
1, 117290, Note_on_c, 5, 46, 0
1, 117295, Note_on_c, 5, 58, 0
1, 117299, Note_on_c, 0, 66, 0
1, 117299, Note_on_c, 5, 66, 0
1, 117301, Note_on_c, 7, 66, 0
1, 117302, Note_on_c, 5, 61, 0
1, 117304, Note_on_c, 6, 70, 0
1, 117312, Note_on_c, 0, 70, 0
1, 117312, Control_c, 13, 11, 114
1, 117313, Note_on_c, 8, 70, 0
1, 117315, Note_on_c, 6, 58, 0
1, 117321, Note_on_c, 7, 58, 0
1, 117322, Note_on_c, 1, 34, 0
1, 117323, Note_on_c, 7, 70, 0
1, 117326, Note_on_c, 7, 46, 0
1, 117327, Note_on_c, 11, 54, 0
1, 117327, Note_on_c, 12, 46, 0
1, 117333, Note_on_c, 10, 73, 0
1, 117335, Note_on_c, 7, 73, 0
1, 117335, Note_on_c, 11, 61, 0
1, 117340, Note_on_c, 11, 58, 0
1, 117342, Control_c, 10, 11, 115
1, 117365, Note_on_c, 9, 36, 0
1, 117365, Note_on_c, 13, 46, 0
1, 117367, Note_on_c, 0, 73, 105
1, 117367, Note_on_c, 0, 70, 96
1, 117367, Note_on_c, 1, 34, 105
1, 117367, Note_on_c, 5, 61, 105
1, 117367, Note_on_c, 5, 66, 102
1, 117367, Note_on_c, 5, 58, 108
1, 117367, Note_on_c, 5, 46, 111
1, 117367, Note_on_c, 6, 73, 108
1, 117367, Note_on_c, 6, 61, 117
1, 117367, Note_on_c, 7, 73, 84
1, 117367, Note_on_c, 7, 70, 84
1, 117367, Note_on_c, 7, 58, 102
1, 117367, Note_on_c, 7, 46, 102
1, 117367, Note_on_c, 7, 66, 90
1, 117367, Note_on_c, 8, 73, 105
1, 117367, Note_on_c, 9, 36, 89
1, 117367, Note_on_c, 10, 76, 99
1, 117367, Note_on_c, 11, 58, 96
1, 117367, Note_on_c, 11, 54, 102
1, 117367, Note_on_c, 11, 61, 105
1, 117367, Note_on_c, 12, 46, 90
1, 117367, Note_on_c, 13, 46, 105
1, 117372, Control_c, 13, 11, 115
1, 117402, Control_c, 10, 11, 116
1, 117411, Note_on_c, 0, 70, 0
1, 117425, Note_on_c, 0, 73, 0
1, 117426, Note_on_c, 6, 73, 0
1, 117427, Note_on_c, 6, 61, 0
1, 117432, Control_c, 13, 11, 116
1, 117454, Note_on_c, 8, 73, 0
1, 117455, Note_on_c, 12, 46, 0
1, 117456, Note_on_c, 10, 76, 0
1, 117462, Control_c, 10, 11, 117
1, 117474, Note_on_c, 9, 41, 105
1, 117485, Note_on_c, 9, 36, 0
1, 117487, Note_on_c, 12, 46, 99
1, 117492, Control_c, 13, 11, 117
1, 117499, Note_on_c, 9, 41, 115
1, 117517, Note_on_c, 7, 66, 0
1, 117520, Note_on_c, 7, 58, 0
1, 117521, Note_on_c, 7, 46, 0
1, 117522, Control_c, 10, 11, 118
1, 117533, Note_on_c, 7, 70, 0
1, 117544, Note_on_c, 5, 58, 0
1, 117546, Note_on_c, 7, 73, 0
1, 117548, Note_on_c, 5, 46, 0
1, 117552, Control_c, 13, 11, 118
1, 117560, Note_on_c, 5, 61, 0
1, 117560, Note_on_c, 5, 66, 0
1, 117572, Control_c, 10, 11, 119
1, 117573, Note_on_c, 1, 34, 0
1, 117574, Note_on_c, 11, 54, 0
1, 117576, Note_on_c, 12, 46, 0
1, 117585, Note_on_c, 11, 61, 0
1, 117592, Note_on_c, 9, 41, 0
1, 117597, Note_on_c, 11, 58, 0
1, 117605, Note_on_c, 13, 46, 0
1, 117607, Note_on_c, 0, 64, 93
1, 117607, Note_on_c, 1, 34, 105
1, 117607, Note_on_c, 5, 58, 102
1, 117607, Note_on_c, 5, 61, 102
1, 117607, Note_on_c, 5, 46, 108
1, 117607, Note_on_c, 6, 64, 87
1, 117607, Note_on_c, 6, 76, 114
1, 117607, Note_on_c, 7, 58, 108
1, 117607, Note_on_c, 7, 46, 105
1, 117607, Note_on_c, 7, 73, 90
1, 117607, Note_on_c, 7, 70, 87
1, 117607, Note_on_c, 8, 64, 114
1, 117607, Note_on_c, 9, 36, 95
1, 117607, Note_on_c, 10, 76, 105
1, 117607, Note_on_c, 10, 64, 99
1, 117607, Note_on_c, 11, 58, 64
1, 117607, Note_on_c, 11, 61, 87
1, 117607, Note_on_c, 11, 54, 96
1, 117607, Note_on_c, 12, 46, 99
1, 117607, Note_on_c, 13, 46, 96
1, 117607, Note_on_c, 13, 54, 96
1, 117612, Control_c, 13, 11, 119
1, 117617, Note_on_c, 9, 41, 0
1, 117632, Control_c, 10, 11, 120
1, 117653, Note_on_c, 6, 76, 0
1, 117664, Note_on_c, 0, 64, 0
1, 117670, Note_on_c, 5, 46, 0
1, 117671, Note_on_c, 10, 76, 0
1, 117671, Note_on_c, 8, 64, 0
1, 117672, Control_c, 13, 11, 120
1, 117674, Note_on_c, 6, 64, 0
1, 117682, Note_on_c, 7, 70, 0
1, 117685, Note_on_c, 10, 64, 0
1, 117685, Note_on_c, 7, 58, 0
1, 117687, Note_on_c, 5, 61, 0
1, 117691, Note_on_c, 7, 46, 0
1, 117692, Control_c, 10, 11, 121
1, 117694, Note_on_c, 5, 58, 0
1, 117696, Note_on_c, 12, 46, 0
1, 117697, Note_on_c, 11, 54, 0
1, 117698, Note_on_c, 7, 73, 0
1, 117704, Note_on_c, 3, 76, 0
1, 117709, Note_on_c, 11, 58, 0
1, 117711, Note_on_c, 11, 61, 0
1, 117725, Note_on_c, 13, 54, 0
1, 117725, Note_on_c, 13, 46, 0
1, 117725, Note_on_c, 9, 36, 0
1, 117727, Note_on_c, 0, 66, 102
1, 117727, Note_on_c, 3, 78, 96
1, 117727, Note_on_c, 5, 58, 84
1, 117727, Note_on_c, 5, 46, 105
1, 117727, Note_on_c, 5, 61, 99
1, 117727, Note_on_c, 6, 66, 102
1, 117727, Note_on_c, 6, 78, 105
1, 117727, Note_on_c, 7, 70, 82
1, 117727, Note_on_c, 7, 58, 102
1, 117727, Note_on_c, 7, 46, 93
1, 117727, Note_on_c, 7, 73, 84
1, 117727, Note_on_c, 8, 66, 108
1, 117727, Note_on_c, 9, 36, 89
1, 117727, Note_on_c, 10, 66, 102
1, 117727, Note_on_c, 10, 78, 93
1, 117727, Note_on_c, 11, 54, 80
1, 117727, Note_on_c, 11, 61, 93
1, 117727, Note_on_c, 11, 58, 84
1, 117727, Note_on_c, 12, 46, 90
1, 117727, Note_on_c, 13, 46, 90
1, 117727, Note_on_c, 13, 54, 82
1, 117732, Control_c, 13, 11, 121
1, 117752, Control_c, 10, 11, 122
1, 117774, Note_on_c, 6, 78, 0
1, 117779, Note_on_c, 8, 66, 0
1, 117785, Note_on_c, 0, 66, 0
1, 117789, Note_on_c, 10, 78, 0
1, 117789, Note_on_c, 6, 66, 0
1, 117792, Control_c, 13, 11, 122
1, 117797, Note_on_c, 1, 34, 0
1, 117797, Note_on_c, 10, 66, 0
1, 117798, Note_on_c, 11, 54, 0
1, 117804, Note_on_c, 7, 58, 0
1, 117805, Note_on_c, 5, 58, 0
1, 117805, Note_on_c, 7, 70, 0
1, 117807, Note_on_c, 5, 46, 0
1, 117811, Note_on_c, 12, 46, 0
1, 117811, Note_on_c, 11, 58, 0
1, 117812, Note_on_c, 7, 46, 0
1, 117812, Control_c, 10, 11, 123
1, 117815, Note_on_c, 5, 61, 0
1, 117821, Note_on_c, 11, 61, 0
1, 117834, Note_on_c, 9, 38, 105
1, 117845, Note_on_c, 9, 36, 0
1, 117845, Note_on_c, 13, 46, 0
1, 117845, Note_on_c, 13, 54, 0
1, 117847, Note_on_c, 0, 70, 108
1, 117847, Note_on_c, 0, 66, 96
1, 117847, Note_on_c, 1, 34, 111
1, 117847, Note_on_c, 3, 80, 111
1, 117847, Note_on_c, 5, 46, 105
1, 117847, Note_on_c, 5, 58, 90
1, 117847, Note_on_c, 5, 66, 105
1, 117847, Note_on_c, 5, 61, 102
1, 117847, Note_on_c, 6, 82, 105
1, 117847, Note_on_c, 6, 70, 99
1, 117847, Note_on_c, 7, 70, 87
1, 117847, Note_on_c, 7, 78, 96
1, 117847, Note_on_c, 7, 46, 105
1, 117847, Note_on_c, 7, 58, 108
1, 117847, Note_on_c, 8, 70, 105
1, 117847, Note_on_c, 10, 82, 96
1, 117847, Note_on_c, 10, 70, 102
1, 117847, Note_on_c, 11, 54, 102
1, 117847, Note_on_c, 11, 61, 102
1, 117847, Note_on_c, 11, 58, 93
1, 117847, Note_on_c, 12, 46, 105
1, 117847, Note_on_c, 13, 46, 84
1, 117847, Note_on_c, 13, 54, 87
1, 117852, Control_c, 13, 11, 123
1, 117859, Note_on_c, 9, 38, 115
1, 117860, Note_on_c, 3, 78, 0
1, 117872, Control_c, 10, 11, 124
1, 117895, Note_on_c, 0, 66, 0
1, 117905, Note_on_c, 10, 70, 0
1, 117907, Note_on_c, 6, 82, 0
1, 117912, Note_on_c, 6, 70, 0
1, 117912, Control_c, 13, 11, 124
1, 117914, Note_on_c, 0, 70, 0
1, 117915, Note_on_c, 10, 82, 0
1, 117917, Note_on_c, 8, 70, 0
1, 117924, Note_on_c, 11, 54, 0
1, 117930, Note_on_c, 7, 70, 0
1, 117932, Note_on_c, 7, 58, 0
1, 117932, Note_on_c, 7, 78, 0
1, 117932, Control_c, 10, 11, 125
1, 117933, Note_on_c, 11, 58, 0
1, 117933, Note_on_c, 7, 73, 0
1, 117934, Note_on_c, 12, 46, 0
1, 117935, Note_on_c, 7, 46, 0
1, 117939, Note_on_c, 11, 61, 0
1, 117952, Note_on_c, 9, 38, 0
1, 117959, Note_on_c, 5, 46, 0
1, 117959, Note_on_c, 5, 58, 0
1, 117964, Note_on_c, 5, 61, 0
1, 117965, Note_on_c, 13, 54, 0
1, 117965, Note_on_c, 13, 46, 0
1, 117966, Note_on_c, 5, 66, 0
1, 117967, Note_on_c, 0, 70, 90
1, 117967, Note_on_c, 0, 73, 105
1, 117967, Note_on_c, 6, 85, 108
1, 117967, Note_on_c, 6, 73, 111
1, 117967, Note_on_c, 7, 78, 87
1, 117967, Note_on_c, 7, 70, 102
1, 117967, Note_on_c, 7, 73, 93
1, 117967, Note_on_c, 7, 46, 102
1, 117967, Note_on_c, 7, 58, 102
1, 117967, Note_on_c, 8, 73, 108
1, 117967, Note_on_c, 9, 36, 95
1, 117967, Note_on_c, 10, 82, 99
1, 117967, Note_on_c, 10, 85, 99
1, 117967, Note_on_c, 10, 73, 108
1, 117967, Note_on_c, 11, 54, 108
1, 117967, Note_on_c, 11, 58, 108
1, 117967, Note_on_c, 11, 61, 114
1, 117967, Note_on_c, 12, 46, 105
1, 117967, Note_on_c, 13, 54, 90
1, 117967, Note_on_c, 13, 46, 102
1, 117972, Control_c, 13, 11, 125
1, 117977, Note_on_c, 9, 38, 0
1, 117992, Control_c, 10, 11, 126
1, 118015, Note_on_c, 6, 73, 0
1, 118019, Note_on_c, 6, 85, 0
1, 118025, Note_on_c, 0, 70, 0
1, 118027, Note_on_c, 10, 73, 0
1, 118030, Note_on_c, 8, 73, 0
1, 118032, Note_on_c, 0, 73, 0
1, 118032, Control_c, 13, 11, 126
1, 118035, Note_on_c, 7, 58, 0
1, 118035, Note_on_c, 10, 82, 0
1, 118040, Note_on_c, 7, 70, 0
1, 118041, Note_on_c, 10, 85, 0
1, 118041, Note_on_c, 7, 73, 0
1, 118042, Control_c, 10, 11, 127
1, 118046, Note_on_c, 7, 46, 0
1, 118047, Note_on_c, 7, 78, 0
1, 118052, Note_on_c, 1, 34, 0
1, 118074, Note_on_c, 12, 46, 0
1, 118081, Note_on_c, 11, 61, 0
1, 118083, Note_on_c, 11, 54, 0
1, 118084, Note_on_c, 11, 58, 0
1, 118085, Note_on_c, 13, 46, 0
1, 118085, Note_on_c, 9, 36, 0
1, 118085, Note_on_c, 13, 54, 0
1, 118087, Note_on_c, 1, 30, 117
1, 118087, Note_on_c, 3, 76, 105
1, 118087, Note_on_c, 5, 69, 102
1, 118087, Note_on_c, 5, 66, 96
1, 118087, Note_on_c, 5, 61, 108
1, 118087, Note_on_c, 6, 69, 82
1, 118087, Note_on_c, 6, 81, 87
1, 118087, Note_on_c, 7, 69, 90
1, 118087, Note_on_c, 7, 78, 102
1, 118087, Note_on_c, 7, 73, 93
1, 118087, Note_on_c, 7, 42, 102
1, 118087, Note_on_c, 8, 54, 87
1, 118087, Note_on_c, 9, 54, 76
1, 118087, Note_on_c, 9, 49, 81
1, 118087, Note_on_c, 9, 36, 101
1, 118087, Note_on_c, 10, 78, 93
1, 118087, Note_on_c, 10, 81, 90
1, 118087, Note_on_c, 11, 61, 114
1, 118087, Note_on_c, 11, 66, 108
1, 118087, Note_on_c, 11, 69, 108
1, 118087, Note_on_c, 13, 54, 105
1, 118087, Note_on_c, 13, 49, 108
1, 118092, Control_c, 13, 11, 127
1, 118107, Control_c, 8, 11, 99
1, 118137, Control_c, 8, 11, 100
1, 118177, Control_c, 8, 11, 101
1, 118205, Note_on_c, 9, 36, 0
1, 118205, Note_on_c, 9, 49, 0
1, 118205, Note_on_c, 9, 54, 0
1, 118205, Note_on_c, 1, 30, 0
1, 118207, Note_on_c, 1, 30, 105
1, 118207, Control_c, 8, 11, 102
1, 118207, Note_on_c, 9, 54, 56
1, 118237, Control_c, 8, 11, 103
1, 118267, Control_c, 8, 11, 104
1, 118278, Control_c, 7, 64, 127
1, 118307, Control_c, 8, 11, 105
1, 118325, Note_on_c, 9, 54, 0
1, 118327, Note_on_c, 9, 54, 59
1, 118327, Note_on_c, 9, 51, 68
1, 118337, Control_c, 8, 11, 106
1, 118367, Control_c, 8, 11, 107
1, 118397, Control_c, 8, 11, 108
1, 118404, Note_on_c, 11, 61, 0
1, 118409, Note_on_c, 11, 69, 0
1, 118424, Note_on_c, 11, 66, 0
1, 118426, Note_on_c, 3, 76, 0
1, 118437, Control_c, 8, 11, 109
1, 118445, Note_on_c, 9, 54, 0
1, 118445, Note_on_c, 9, 51, 0
1, 118447, Note_on_c, 9, 54, 54
1, 118447, Note_on_c, 11, 61, 90
1, 118447, Note_on_c, 11, 66, 74
1, 118447, Note_on_c, 11, 69, 87
1, 118467, Control_c, 8, 11, 110
1, 118497, Control_c, 8, 11, 111
1, 118526, Note_on_c, 11, 61, 0
1, 118526, Note_on_c, 7, 78, 0
1, 118527, Control_c, 8, 11, 112
1, 118532, Note_on_c, 11, 69, 0
1, 118541, Note_on_c, 7, 73, 0
1, 118542, Note_on_c, 7, 69, 0
1, 118551, Note_on_c, 11, 66, 0
1, 118565, Note_on_c, 9, 54, 0
1, 118567, Note_on_c, 7, 69, 90
1, 118567, Note_on_c, 7, 78, 99
1, 118567, Control_c, 8, 11, 113
1, 118567, Note_on_c, 9, 54, 76
1, 118567, Note_on_c, 9, 51, 75
1, 118567, Note_on_c, 9, 38, 101
1, 118567, Note_on_c, 11, 69, 105
1, 118567, Note_on_c, 11, 61, 108
1, 118567, Note_on_c, 11, 66, 105
1, 118597, Control_c, 8, 11, 114
1, 118627, Control_c, 8, 11, 115
1, 118667, Control_c, 8, 11, 116
1, 118685, Note_on_c, 9, 38, 0
1, 118685, Note_on_c, 9, 51, 0
1, 118685, Note_on_c, 9, 54, 0
1, 118687, Note_on_c, 3, 83, 111
1, 118687, Note_on_c, 9, 54, 56
1, 118696, Note_on_c, 3, 80, 0
1, 118697, Control_c, 8, 11, 117
1, 118727, Control_c, 8, 11, 118
1, 118757, Control_c, 8, 11, 119
1, 118762, Note_on_c, 11, 61, 0
1, 118782, Note_on_c, 11, 69, 0
1, 118793, Note_on_c, 11, 66, 0
1, 118797, Control_c, 8, 11, 120
1, 118805, Note_on_c, 9, 54, 0
1, 118807, Note_on_c, 7, 54, 55
1, 118807, Note_on_c, 9, 54, 59
1, 118807, Note_on_c, 9, 51, 68
1, 118807, Note_on_c, 11, 66, 37
1, 118807, Note_on_c, 11, 61, 66
1, 118807, Note_on_c, 11, 69, 64
1, 118827, Control_c, 8, 11, 121
1, 118857, Control_c, 8, 11, 122
1, 118863, Note_on_c, 7, 54, 0
1, 118866, Note_on_c, 11, 61, 0
1, 118874, Note_on_c, 7, 69, 0
1, 118880, Note_on_c, 7, 42, 0
1, 118882, Note_on_c, 7, 78, 0
1, 118887, Control_c, 8, 11, 123
1, 118925, Note_on_c, 9, 51, 0
1, 118925, Note_on_c, 9, 54, 0
1, 118925, Note_on_c, 5, 69, 0
1, 118927, Note_on_c, 7, 73, 78
1, 118927, Control_c, 8, 11, 124
1, 118927, Note_on_c, 9, 54, 54
1, 118927, Note_on_c, 11, 61, 74
1, 118945, Note_on_c, 11, 69, 0
1, 118957, Control_c, 8, 11, 125
1, 118986, Note_on_c, 7, 73, 0
1, 118987, Control_c, 8, 11, 126
1, 118992, Note_on_c, 11, 66, 0
1, 119016, Note_on_c, 11, 61, 0
1, 119017, Control_c, 8, 11, 127
1, 119023, Note_on_c, 3, 83, 0
1, 119037, Control_c, 8, 11, 123
1, 119045, Note_on_c, 5, 61, 0
1, 119045, Note_on_c, 1, 30, 0
1, 119045, Note_on_c, 9, 54, 0
1, 119045, Note_on_c, 5, 66, 0
1, 119047, Note_on_c, 1, 28, 99
1, 119047, Note_on_c, 4, 80, 102
1, 119047, Note_on_c, 4, 68, 93
1, 119047, Note_on_c, 4, 76, 80
1, 119047, Note_on_c, 5, 64, 96
1, 119047, Note_on_c, 5, 59, 108
1, 119047, Note_on_c, 5, 68, 80
1, 119047, Note_on_c, 6, 80, 82
1, 119047, Note_on_c, 6, 68, 87
1, 119047, Note_on_c, 7, 76, 108
1, 119047, Note_on_c, 7, 68, 105
1, 119047, Note_on_c, 7, 52, 96
1, 119047, Note_on_c, 8, 56, 87
1, 119047, Note_on_c, 9, 54, 76
1, 119047, Note_on_c, 9, 36, 101
1, 119047, Note_on_c, 9, 51, 75
1, 119047, Note_on_c, 10, 80, 76
1, 119047, Note_on_c, 10, 76, 74
1, 119047, Note_on_c, 11, 64, 96
1, 119047, Note_on_c, 11, 59, 114
1, 119047, Note_on_c, 11, 68, 102
1, 119047, Note_on_c, 13, 52, 99
1, 119047, Note_on_c, 13, 47, 105
1, 119047, Note_on_c, 15, 68, 1
1, 119047, Note_on_c, 15, 76, 1
1, 119047, Note_on_c, 15, 80, 1
1, 119052, Control_c, 7, 64, 0
1, 119053, Note_on_c, 8, 54, 0
1, 119060, Note_on_c, 13, 49, 0
1, 119067, Note_on_c, 13, 54, 0
1, 119077, Control_c, 8, 11, 122
1, 119092, Note_on_c, 10, 78, 0
1, 119094, Note_on_c, 6, 69, 0
1, 119098, Note_on_c, 10, 81, 0
1, 119107, Control_c, 8, 11, 121
1, 119126, Note_on_c, 6, 81, 0
1, 119147, Control_c, 8, 11, 120
1, 119165, Note_on_c, 1, 28, 0
1, 119165, Note_on_c, 9, 54, 0
1, 119165, Note_on_c, 9, 51, 0
1, 119165, Note_on_c, 9, 36, 0
1, 119167, Note_on_c, 1, 28, 96
1, 119167, Note_on_c, 9, 54, 56
1, 119177, Control_c, 8, 11, 119
1, 119205, Control_c, 7, 64, 127
1, 119207, Control_c, 8, 11, 118
1, 119227, Note_on_c, 11, 59, 0
1, 119232, Note_on_c, 4, 68, 0
1, 119236, Note_on_c, 11, 68, 0
1, 119247, Control_c, 8, 11, 117
1, 119248, Note_on_c, 11, 64, 0
1, 119251, Note_on_c, 4, 80, 0
1, 119277, Control_c, 8, 11, 116
1, 119285, Note_on_c, 9, 54, 0
1, 119287, Note_on_c, 4, 80, 87
1, 119287, Note_on_c, 4, 68, 99
1, 119287, Note_on_c, 9, 54, 59
1, 119287, Note_on_c, 9, 51, 68
1, 119287, Note_on_c, 11, 59, 74
1, 119287, Note_on_c, 11, 68, 62
1, 119287, Note_on_c, 11, 64, 68
1, 119307, Control_c, 8, 11, 115
1, 119347, Control_c, 8, 11, 114
1, 119349, Note_on_c, 4, 68, 0
1, 119351, Note_on_c, 11, 59, 0
1, 119351, Note_on_c, 4, 76, 0
1, 119354, Note_on_c, 4, 80, 0
1, 119355, Note_on_c, 11, 64, 0
1, 119369, Note_on_c, 11, 68, 0
1, 119377, Control_c, 8, 11, 113
1, 119405, Note_on_c, 9, 54, 0
1, 119405, Note_on_c, 9, 51, 0
1, 119407, Note_on_c, 4, 76, 80
1, 119407, Note_on_c, 4, 68, 99
1, 119407, Note_on_c, 4, 80, 102
1, 119407, Note_on_c, 7, 64, 99
1, 119407, Control_c, 8, 11, 112
1, 119407, Note_on_c, 9, 54, 54
1, 119407, Note_on_c, 11, 59, 66
1, 119407, Note_on_c, 11, 68, 57
1, 119407, Note_on_c, 11, 64, 59
1, 119447, Control_c, 8, 11, 111
1, 119452, Note_on_c, 11, 68, 0
1, 119462, Note_on_c, 11, 64, 0
1, 119463, Note_on_c, 11, 59, 0
1, 119477, Control_c, 8, 11, 110
1, 119507, Control_c, 8, 11, 109
1, 119525, Note_on_c, 9, 54, 0
1, 119527, Note_on_c, 7, 40, 99
1, 119527, Note_on_c, 7, 71, 90
1, 119527, Note_on_c, 9, 54, 76
1, 119527, Note_on_c, 9, 38, 101
1, 119527, Note_on_c, 9, 51, 75
1, 119527, Note_on_c, 11, 59, 114
1, 119527, Note_on_c, 11, 64, 96
1, 119527, Note_on_c, 11, 68, 108
1, 119547, Control_c, 8, 11, 108
1, 119577, Note_on_c, 7, 68, 0
1, 119577, Control_c, 8, 11, 107
1, 119617, Control_c, 8, 11, 106
1, 119643, Note_on_c, 4, 76, 0
1, 119645, Note_on_c, 15, 80, 0
1, 119645, Note_on_c, 15, 76, 0
1, 119645, Note_on_c, 9, 51, 0
1, 119645, Note_on_c, 9, 38, 0
1, 119645, Note_on_c, 15, 68, 0
1, 119645, Note_on_c, 9, 54, 0
1, 119647, Note_on_c, 4, 75, 72
1, 119647, Note_on_c, 4, 78, 99
1, 119647, Note_on_c, 4, 66, 102
1, 119647, Control_c, 8, 11, 105
1, 119647, Note_on_c, 9, 54, 56
1, 119647, Note_on_c, 15, 66, 1
1, 119647, Note_on_c, 15, 75, 1
1, 119647, Note_on_c, 15, 78, 1
1, 119651, Note_on_c, 4, 68, 0
1, 119662, Note_on_c, 4, 80, 0
1, 119677, Control_c, 8, 11, 104
1, 119716, Note_on_c, 7, 64, 0
1, 119717, Control_c, 8, 11, 103
1, 119722, Note_on_c, 11, 59, 0
1, 119729, Note_on_c, 4, 75, 0
1, 119746, Note_on_c, 4, 78, 0
1, 119746, Note_on_c, 4, 66, 0
1, 119747, Control_c, 8, 11, 102
1, 119765, Note_on_c, 9, 54, 0
1, 119765, Note_on_c, 15, 75, 0
1, 119765, Note_on_c, 15, 66, 0
1, 119765, Note_on_c, 15, 78, 0
1, 119767, Note_on_c, 4, 75, 74
1, 119767, Note_on_c, 4, 71, 70
1, 119767, Note_on_c, 4, 66, 105
1, 119767, Note_on_c, 4, 78, 108
1, 119767, Note_on_c, 7, 68, 70
1, 119767, Note_on_c, 9, 54, 59
1, 119767, Note_on_c, 9, 51, 68
1, 119767, Note_on_c, 11, 59, 68
1, 119767, Note_on_c, 15, 66, 1
1, 119767, Note_on_c, 15, 71, 1
1, 119767, Note_on_c, 15, 75, 1
1, 119767, Note_on_c, 15, 78, 1
1, 119769, Note_on_c, 7, 52, 0
1, 119777, Control_c, 8, 11, 101
1, 119790, Note_on_c, 7, 76, 0
1, 119803, Note_on_c, 7, 71, 0
1, 119817, Control_c, 8, 11, 100
1, 119836, Note_on_c, 11, 59, 0
1, 119842, Note_on_c, 7, 40, 0
1, 119847, Control_c, 8, 11, 99
1, 119870, Note_on_c, 7, 68, 0
1, 119877, Control_c, 8, 11, 98
1, 119885, Note_on_c, 9, 54, 0
1, 119885, Note_on_c, 9, 51, 0
1, 119887, Note_on_c, 7, 64, 59
1, 119887, Note_on_c, 9, 54, 54
1, 119887, Note_on_c, 11, 59, 43
1, 119907, Note_on_c, 7, 64, 0
1, 119917, Control_c, 8, 11, 97
1, 119937, Control_c, 8, 11, 94
1, 119941, Note_on_c, 11, 64, 0
1, 119951, Note_on_c, 11, 68, 0
1, 119955, Pitch_bend_c, 3, 6688
1, 119956, Note_on_c, 11, 59, 0
1, 119963, Note_on_c, 13, 47, 0
1, 119964, Pitch_bend_c, 3, 5824
1, 119967, Control_c, 8, 11, 95
1, 119974, Pitch_bend_c, 3, 4368
1, 119981, Control_c, 7, 64, 0
1, 119983, Pitch_bend_c, 3, 3233
1, 119992, Pitch_bend_c, 3, 1877
1, 119997, Control_c, 8, 11, 96
1, 120001, Pitch_bend_c, 3, 1383
1, 120005, Note_on_c, 1, 28, 0
1, 120005, Note_on_c, 5, 64, 0
1, 120005, Note_on_c, 9, 54, 0
1, 120005, Note_on_c, 5, 59, 0
1, 120005, Note_on_c, 5, 68, 0
1, 120007, Note_on_c, 1, 35, 108
1, 120007, Note_on_c, 3, 87, 117
1, 120007, Note_on_c, 5, 66, 90
1, 120007, Note_on_c, 5, 63, 96
1, 120007, Note_on_c, 5, 59, 114
1, 120007, Note_on_c, 6, 66, 80
1, 120007, Note_on_c, 6, 78, 57
1, 120007, Note_on_c, 6, 71, 47
1, 120007, Note_on_c, 7, 71, 105
1, 120007, Note_on_c, 7, 63, 108
1, 120007, Note_on_c, 7, 47, 84
1, 120007, Note_on_c, 7, 62, 62
1, 120007, Note_on_c, 8, 54, 80
1, 120007, Note_on_c, 9, 54, 76
1, 120007, Note_on_c, 9, 36, 101
1, 120007, Note_on_c, 9, 49, 74
1, 120007, Note_on_c, 10, 78, 87
1, 120007, Note_on_c, 10, 75, 84
1, 120007, Note_on_c, 11, 59, 105
1, 120007, Note_on_c, 11, 63, 99
1, 120007, Note_on_c, 11, 66, 96
1, 120007, Note_on_c, 13, 47, 99
1, 120007, Note_on_c, 13, 54, 96
1, 120007, Lyric_t, "Heav"
1, 120010, Pitch_bend_c, 3, 1235
1, 120015, Note_on_c, 10, 80, 0
1, 120019, Note_on_c, 13, 52, 0
1, 120020, Pitch_bend_c, 3, 1432
1, 120021, Note_on_c, 6, 68, 0
1, 120023, Note_on_c, 10, 76, 0
1, 120027, Control_c, 8, 11, 97
1, 120029, Pitch_bend_c, 3, 1975
1, 120036, Note_on_c, 8, 56, 0
1, 120038, Pitch_bend_c, 3, 3159
1, 120048, Pitch_bend_c, 3, 4936
1, 120053, Note_on_c, 7, 62, 0
1, 120057, Pitch_bend_c, 3, 8192
1, 120057, Control_c, 8, 11, 98
1, 120077, Control_c, 8, 11, 99
1, 120080, Note_on_c, 7, 63, 0
1, 120107, Control_c, 8, 11, 100
1, 120108, Note_on_c, 6, 80, 0
1, 120125, Note_on_c, 1, 35, 0
1, 120125, Note_on_c, 9, 36, 0
1, 120125, Note_on_c, 9, 54, 0
1, 120125, Note_on_c, 9, 49, 0
1, 120127, Note_on_c, 1, 35, 105
1, 120127, Note_on_c, 7, 63, 25
1, 120127, Note_on_c, 9, 54, 56
1, 120137, Control_c, 8, 11, 101
1, 120167, Control_c, 8, 11, 102
1, 120197, Control_c, 8, 11, 103
1, 120211, Control_c, 7, 64, 127
1, 120217, Control_c, 8, 11, 104
1, 120222, Note_on_c, 11, 59, 0
1, 120233, Note_on_c, 11, 63, 0
1, 120245, Note_on_c, 9, 54, 0
1, 120247, Control_c, 8, 11, 105
1, 120247, Note_on_c, 9, 54, 59
1, 120247, Note_on_c, 9, 51, 68
1, 120247, Note_on_c, 11, 63, 61
1, 120247, Note_on_c, 11, 59, 54
1, 120277, Control_c, 8, 11, 106
1, 120296, Note_on_c, 11, 59, 0
1, 120307, Control_c, 8, 11, 107
1, 120314, Note_on_c, 11, 63, 0
1, 120327, Control_c, 8, 11, 108
1, 120351, Note_on_c, 11, 66, 0
1, 120357, Control_c, 8, 11, 109
1, 120365, Note_on_c, 9, 54, 0
1, 120365, Note_on_c, 9, 51, 0
1, 120367, Note_on_c, 9, 54, 54
1, 120367, Note_on_c, 11, 63, 57
1, 120367, Note_on_c, 11, 59, 52
1, 120367, Note_on_c, 11, 66, 55
1, 120380, Note_on_c, 7, 63, 0
1, 120387, Control_c, 8, 11, 110
1, 120417, Control_c, 8, 11, 111
1, 120423, Note_on_c, 11, 59, 0
1, 120439, Note_on_c, 11, 63, 0
1, 120439, Note_on_c, 11, 66, 0
1, 120447, Control_c, 8, 11, 112
1, 120467, Control_c, 8, 11, 113
1, 120485, Note_on_c, 9, 54, 0
1, 120487, Note_on_c, 7, 66, 84
1, 120487, Note_on_c, 7, 63, 90
1, 120487, Note_on_c, 7, 54, 80
1, 120487, Note_on_c, 9, 54, 76
1, 120487, Note_on_c, 9, 38, 101
1, 120487, Note_on_c, 9, 51, 75
1, 120487, Note_on_c, 11, 63, 96
1, 120487, Note_on_c, 11, 59, 108
1, 120487, Note_on_c, 11, 66, 96
1, 120497, Control_c, 8, 11, 114
1, 120527, Control_c, 8, 11, 115
1, 120557, Control_c, 8, 11, 116
1, 120577, Control_c, 8, 11, 117
1, 120605, Note_on_c, 9, 51, 0
1, 120605, Note_on_c, 9, 38, 0
1, 120605, Note_on_c, 9, 54, 0
1, 120605, Note_on_c, 3, 87, 0
1, 120607, Note_on_c, 3, 85, 105
1, 120607, Control_c, 8, 11, 118
1, 120607, Note_on_c, 9, 54, 56
1, 120637, Control_c, 8, 11, 119
1, 120667, Control_c, 8, 11, 120
1, 120686, Note_on_c, 11, 63, 0
1, 120686, Note_on_c, 11, 59, 0
1, 120687, Note_on_c, 7, 47, 0
1, 120695, Note_on_c, 7, 54, 0
1, 120697, Control_c, 8, 11, 121
1, 120709, Note_on_c, 7, 63, 0
1, 120717, Control_c, 8, 11, 122
1, 120720, Note_on_c, 7, 66, 0
1, 120725, Note_on_c, 9, 54, 0
1, 120727, Note_on_c, 3, 83, 96
1, 120727, Note_on_c, 9, 54, 59
1, 120727, Note_on_c, 9, 51, 68
1, 120727, Note_on_c, 11, 59, 57
1, 120727, Note_on_c, 11, 63, 46
1, 120727, Lyric_t, "y "
1, 120729, Note_on_c, 7, 71, 0
1, 120744, Note_on_c, 3, 85, 0
1, 120747, Control_c, 8, 11, 123
1, 120777, Control_c, 8, 11, 124
1, 120779, Note_on_c, 11, 59, 0
1, 120797, Note_on_c, 3, 83, 0
1, 120807, Control_c, 8, 11, 125
1, 120827, Control_c, 8, 11, 126
1, 120845, Note_on_c, 9, 54, 0
1, 120845, Note_on_c, 9, 51, 0
1, 120845, Note_on_c, 1, 35, 0
1, 120847, Note_on_c, 1, 30, 61
1, 120847, Note_on_c, 7, 47, 76
1, 120847, Note_on_c, 9, 54, 54
1, 120853, Note_on_c, 9, 36, 51
1, 120914, Note_on_c, 11, 63, 0
1, 120922, Pitch_bend_c, 3, 7896
1, 120931, Pitch_bend_c, 3, 6589
1, 120934, Note_on_c, 10, 75, 0
1, 120936, Note_on_c, 11, 66, 0
1, 120940, Pitch_bend_c, 3, 5824
1, 120950, Pitch_bend_c, 3, 4788
1, 120951, Control_c, 7, 64, 0
1, 120959, Pitch_bend_c, 3, 4146
1, 120965, Note_on_c, 5, 63, 0
1, 120965, Note_on_c, 1, 30, 0
1, 120965, Note_on_c, 9, 54, 0
1, 120967, Note_on_c, 1, 35, 87
1, 120967, Note_on_c, 3, 87, 114
1, 120967, Note_on_c, 5, 64, 93
1, 120967, Note_on_c, 7, 75, 84
1, 120967, Note_on_c, 7, 71, 90
1, 120967, Note_on_c, 7, 66, 114
1, 120967, Note_on_c, 8, 52, 82
1, 120967, Note_on_c, 9, 54, 76
1, 120967, Note_on_c, 9, 36, 101
1, 120967, Note_on_c, 9, 51, 75
1, 120967, Note_on_c, 10, 76, 82
1, 120967, Note_on_c, 10, 73, 74
1, 120967, Note_on_c, 11, 59, 105
1, 120967, Note_on_c, 11, 66, 93
1, 120967, Note_on_c, 11, 64, 96
1, 120967, Lyric_t, "heav"
1, 120969, Pitch_bend_c, 3, 3727
1, 120971, Note_on_c, 9, 36, 0
1, 120977, Control_c, 8, 11, 127
1, 120985, Note_on_c, 10, 78, 0
1, 120987, Pitch_bend_c, 3, 4146
1, 120991, Note_on_c, 8, 54, 0
1, 120992, Control_c, 4, 11, 127
1, 120992, Control_c, 15, 11, 127
1, 120996, Pitch_bend_c, 3, 5651
1, 121006, Pitch_bend_c, 3, 8192
1, 121017, Control_c, 8, 11, 126
1, 121025, Note_on_c, 9, 54, 0
1, 121035, Control_c, 7, 64, 127
1, 121043, Control_c, 4, 11, 126
1, 121043, Control_c, 15, 11, 126
1, 121047, Control_c, 8, 11, 125
1, 121077, Control_c, 8, 11, 124
1, 121080, Control_c, 4, 11, 125
1, 121080, Control_c, 15, 11, 125
1, 121085, Note_on_c, 9, 51, 0
1, 121085, Note_on_c, 9, 36, 0
1, 121087, Note_on_c, 9, 54, 56
1, 121093, Note_on_c, 9, 36, 46
1, 121107, Control_c, 8, 11, 123
1, 121121, Note_on_c, 1, 35, 0
1, 121131, Control_c, 4, 11, 124
1, 121131, Control_c, 15, 11, 124
1, 121145, Note_on_c, 9, 54, 0
1, 121147, Note_on_c, 11, 59, 0
1, 121147, Control_c, 8, 11, 122
1, 121152, Note_on_c, 7, 75, 0
1, 121163, Note_on_c, 7, 71, 0
1, 121169, Control_c, 4, 11, 123
1, 121169, Control_c, 15, 11, 123
1, 121177, Control_c, 8, 11, 121
1, 121179, Note_on_c, 7, 66, 0
1, 121207, Note_on_c, 1, 35, 102
1, 121207, Note_on_c, 7, 59, 72
1, 121207, Control_c, 8, 11, 120
1, 121207, Note_on_c, 9, 54, 39
1, 121207, Note_on_c, 9, 51, 68
1, 121207, Note_on_c, 11, 59, 55
1, 121211, Note_on_c, 9, 36, 0
1, 121213, Note_on_c, 9, 36, 57
1, 121219, Control_c, 4, 11, 122
1, 121219, Control_c, 15, 11, 122
1, 121237, Control_c, 8, 11, 119
1, 121254, Note_on_c, 9, 54, 49
1, 121257, Control_c, 4, 11, 121
1, 121257, Control_c, 15, 11, 121
1, 121262, Note_on_c, 11, 64, 0
1, 121265, Note_on_c, 9, 54, 0
1, 121272, Note_on_c, 11, 66, 0
1, 121272, Note_on_c, 11, 59, 0
1, 121274, Note_on_c, 7, 59, 0
1, 121277, Control_c, 8, 11, 118
1, 121307, Control_c, 8, 11, 117
1, 121308, Control_c, 4, 11, 120
1, 121308, Control_c, 15, 11, 120
1, 121312, Note_on_c, 9, 54, 0
1, 121314, Note_on_c, 9, 54, 54
1, 121325, Note_on_c, 9, 51, 0
1, 121327, Note_on_c, 7, 71, 93
1, 121327, Note_on_c, 7, 75, 93
1, 121327, Note_on_c, 7, 66, 111
1, 121327, Note_on_c, 11, 59, 55
1, 121327, Note_on_c, 11, 66, 45
1, 121327, Note_on_c, 11, 64, 55
1, 121331, Note_on_c, 9, 36, 0
1, 121333, Note_on_c, 9, 36, 51
1, 121337, Control_c, 8, 11, 116
1, 121346, Control_c, 4, 11, 119
1, 121346, Control_c, 15, 11, 119
1, 121367, Control_c, 8, 11, 115
1, 121372, Note_on_c, 9, 54, 0
1, 121374, Note_on_c, 9, 54, 59
1, 121396, Control_c, 4, 11, 118
1, 121396, Control_c, 15, 11, 118
1, 121397, Control_c, 8, 11, 114
1, 121410, Note_on_c, 11, 66, 0
1, 121414, Note_on_c, 11, 59, 0
1, 121418, Note_on_c, 11, 64, 0
1, 121430, Note_on_c, 7, 75, 0
1, 121432, Note_on_c, 9, 54, 0
1, 121434, Control_c, 4, 11, 117
1, 121434, Control_c, 15, 11, 117
1, 121437, Control_c, 8, 11, 113
1, 121438, Note_on_c, 7, 71, 0
1, 121445, Note_on_c, 5, 64, 0
1, 121447, Note_on_c, 5, 63, 87
1, 121447, Note_on_c, 8, 54, 76
1, 121447, Note_on_c, 9, 54, 76
1, 121447, Note_on_c, 9, 38, 101
1, 121447, Note_on_c, 9, 55, 98
1, 121447, Note_on_c, 9, 51, 75
1, 121447, Note_on_c, 10, 78, 61
1, 121447, Note_on_c, 10, 75, 72
1, 121447, Note_on_c, 11, 59, 111
1, 121447, Note_on_c, 11, 66, 96
1, 121447, Note_on_c, 11, 63, 99
1, 121449, Note_on_c, 7, 66, 0
1, 121451, Note_on_c, 8, 52, 0
1, 121451, Note_on_c, 9, 36, 0
1, 121467, Control_c, 8, 11, 112
1, 121485, Control_c, 4, 11, 116
1, 121485, Control_c, 15, 11, 116
1, 121497, Control_c, 8, 11, 111
1, 121501, Note_on_c, 10, 73, 0
1, 121506, Note_on_c, 10, 76, 0
1, 121523, Control_c, 4, 11, 115
1, 121523, Control_c, 15, 11, 115
1, 121527, Control_c, 8, 11, 110
1, 121565, Note_on_c, 9, 38, 0
1, 121565, Note_on_c, 9, 54, 0
1, 121565, Note_on_c, 9, 55, 0
1, 121565, Note_on_c, 9, 51, 0
1, 121567, Note_on_c, 3, 85, 105
1, 121567, Note_on_c, 7, 59, 84
1, 121567, Control_c, 8, 11, 109
1, 121567, Note_on_c, 9, 54, 56
1, 121567, Lyric_t, "y "
1, 121573, Control_c, 4, 11, 114
1, 121573, Control_c, 15, 11, 114
1, 121582, Note_on_c, 3, 87, 0
1, 121597, Control_c, 8, 11, 108
1, 121611, Control_c, 4, 11, 113
1, 121611, Control_c, 15, 11, 113
1, 121619, Note_on_c, 7, 59, 0
1, 121627, Control_c, 8, 11, 107
1, 121638, Note_on_c, 11, 63, 0
1, 121657, Control_c, 8, 11, 106
1, 121658, Note_on_c, 11, 59, 0
1, 121662, Control_c, 4, 11, 112
1, 121662, Control_c, 15, 11, 112
1, 121685, Note_on_c, 3, 85, 0
1, 121685, Note_on_c, 9, 54, 0
1, 121687, Note_on_c, 3, 83, 87
1, 121687, Note_on_c, 7, 71, 111
1, 121687, Note_on_c, 7, 63, 111
1, 121687, Note_on_c, 9, 54, 59
1, 121687, Note_on_c, 9, 51, 68
1, 121687, Note_on_c, 11, 59, 40
1, 121687, Note_on_c, 11, 63, 55
1, 121687, Lyric_t, "on "
1, 121697, Control_c, 8, 11, 105
1, 121699, Control_c, 4, 11, 111
1, 121699, Control_c, 15, 11, 111
1, 121727, Control_c, 8, 11, 104
1, 121743, Note_on_c, 11, 59, 0
1, 121746, Pitch_bend_c, 1, 8044
1, 121750, Control_c, 4, 11, 110
1, 121750, Control_c, 15, 11, 110
1, 121753, Control_c, 7, 64, 0
1, 121755, Pitch_bend_c, 1, 7403
1, 121757, Control_c, 8, 11, 103
1, 121765, Pitch_bend_c, 1, 6959
1, 121773, Pitch_bend_c, 1, 6712
1, 121783, Note_on_c, 3, 83, 0
1, 121783, Pitch_bend_c, 1, 6416
1, 121787, Control_c, 8, 11, 102
1, 121788, Control_c, 4, 11, 109
1, 121788, Control_c, 15, 11, 109
1, 121793, Pitch_bend_c, 1, 6268
1, 121802, Pitch_bend_c, 1, 6071
1, 121805, Note_on_c, 5, 59, 0
1, 121805, Note_on_c, 9, 54, 0
1, 121805, Note_on_c, 5, 63, 0
1, 121805, Note_on_c, 9, 51, 0
1, 121807, Note_on_c, 3, 83, 108
1, 121807, Note_on_c, 7, 66, 62
1, 121807, Note_on_c, 7, 59, 64
1, 121807, Note_on_c, 9, 54, 54
1, 121807, Note_on_c, 11, 59, 58
1, 121807, Lyric_t, "my "
1, 121811, Pitch_bend_c, 1, 5750
1, 121817, Note_on_c, 7, 63, 0
1, 121817, Control_c, 8, 11, 101
1, 121820, Pitch_bend_c, 1, 5331
1, 121830, Pitch_bend_c, 1, 4862
1, 121830, Pitch_bend_c, 13, 7847
1, 121838, Control_c, 4, 11, 108
1, 121838, Control_c, 15, 11, 108
1, 121839, Pitch_bend_c, 1, 4146
1, 121839, Pitch_bend_c, 13, 7132
1, 121847, Control_c, 8, 11, 102
1, 121848, Pitch_bend_c, 1, 3628
1, 121848, Pitch_bend_c, 13, 6589
1, 121857, Pitch_bend_c, 1, 2641
1, 121858, Pitch_bend_c, 13, 6071
1, 121863, Note_on_c, 7, 59, 0
1, 121866, Pitch_bend_c, 1, 1975
1, 121867, Pitch_bend_c, 13, 5232
1, 121876, Pitch_bend_c, 1, 1309
1, 121876, Control_c, 4, 11, 107
1, 121876, Pitch_bend_c, 13, 4319
1, 121876, Control_c, 15, 11, 107
1, 121877, Control_c, 8, 11, 103
1, 121878, Note_on_c, 7, 47, 0
1, 121885, Pitch_bend_c, 1, 988
1, 121885, Pitch_bend_c, 13, 3776
1, 121894, Pitch_bend_c, 1, 8192
1, 121895, Note_on_c, 15, 66, 0
1, 121895, Note_on_c, 4, 66, 0
1, 121895, Pitch_bend_c, 13, 3406
1, 121896, Note_on_c, 13, 54, 0
1, 121896, Note_on_c, 10, 75, 0
1, 121897, Control_c, 8, 11, 104
1, 121899, Note_on_c, 4, 71, 0
1, 121899, Note_on_c, 15, 71, 0
1, 121899, Note_on_c, 11, 59, 0
1, 121901, Note_on_c, 7, 71, 0
1, 121904, Note_on_c, 6, 71, 0
1, 121904, Pitch_bend_c, 13, 3209
1, 121905, Note_on_c, 7, 66, 0
1, 121907, Note_on_c, 11, 66, 0
1, 121908, Note_on_c, 13, 47, 0
1, 121913, Pitch_bend_c, 13, 8192
1, 121919, Note_on_c, 11, 63, 0
1, 121923, Note_on_c, 15, 75, 0
1, 121923, Note_on_c, 4, 78, 0
1, 121923, Note_on_c, 15, 78, 0
1, 121925, Note_on_c, 9, 54, 0
1, 121925, Note_on_c, 1, 35, 0
1, 121927, Note_on_c, 1, 30, 117
1, 121927, Note_on_c, 3, 85, 114
1, 121927, Note_on_c, 5, 69, 90
1, 121927, Note_on_c, 5, 61, 93
1, 121927, Note_on_c, 5, 57, 105
1, 121927, Note_on_c, 6, 69, 87
1, 121927, Note_on_c, 6, 81, 87
1, 121927, Note_on_c, 7, 69, 102
1, 121927, Note_on_c, 7, 73, 105
1, 121927, Note_on_c, 7, 42, 96
1, 121927, Note_on_c, 8, 57, 90
1, 121927, Control_c, 8, 11, 105
1, 121927, Note_on_c, 9, 54, 76
1, 121927, Note_on_c, 9, 49, 81
1, 121927, Note_on_c, 9, 36, 101
1, 121927, Note_on_c, 10, 81, 82
1, 121927, Note_on_c, 11, 61, 114
1, 121927, Note_on_c, 11, 66, 108
1, 121927, Note_on_c, 11, 69, 108
1, 121927, Note_on_c, 13, 54, 105
1, 121927, Note_on_c, 13, 49, 108
1, 121927, Lyric_t, "heart. "
1, 121927, Lyric_t, "\015"
1, 121929, Note_on_c, 4, 75, 0
1, 121947, Control_c, 8, 11, 106
1, 121955, Note_on_c, 6, 66, 0
1, 121955, Note_on_c, 3, 83, 0
1, 121963, Note_on_c, 8, 54, 0
1, 121965, Control_c, 4, 11, 127
1, 121965, Control_c, 15, 11, 127
1, 121967, Note_on_c, 6, 78, 0
1, 121977, Control_c, 8, 11, 107
1, 121997, Control_c, 8, 11, 108
1, 122020, Control_c, 7, 64, 127
1, 122027, Control_c, 8, 11, 109
1, 122045, Note_on_c, 9, 54, 0
1, 122045, Note_on_c, 9, 36, 0
1, 122045, Note_on_c, 9, 49, 0
1, 122047, Control_c, 8, 11, 110
1, 122047, Note_on_c, 9, 54, 56
1, 122067, Control_c, 8, 11, 111
1, 122097, Control_c, 8, 11, 112
1, 122117, Control_c, 8, 11, 113
1, 122144, Note_on_c, 7, 69, 0
1, 122147, Control_c, 8, 11, 114
1, 122165, Note_on_c, 9, 54, 0
1, 122167, Note_on_c, 7, 69, 84
1, 122167, Control_c, 8, 11, 115
1, 122167, Note_on_c, 9, 54, 59
1, 122167, Note_on_c, 9, 51, 68
1, 122184, Note_on_c, 7, 73, 0
1, 122197, Control_c, 8, 11, 116
1, 122217, Control_c, 8, 11, 117
1, 122244, Note_on_c, 11, 61, 0
1, 122247, Control_c, 8, 11, 118
1, 122249, Note_on_c, 11, 69, 0
1, 122264, Note_on_c, 11, 66, 0
1, 122267, Control_c, 8, 11, 119
1, 122285, Note_on_c, 9, 51, 0
1, 122285, Note_on_c, 9, 54, 0
1, 122287, Control_c, 8, 11, 120
1, 122287, Note_on_c, 9, 54, 54
1, 122287, Note_on_c, 11, 61, 90
1, 122287, Note_on_c, 11, 66, 74
1, 122287, Note_on_c, 11, 69, 87
1, 122317, Control_c, 8, 11, 121
1, 122319, Note_on_c, 7, 69, 0
1, 122337, Control_c, 8, 11, 122
1, 122366, Note_on_c, 11, 61, 0
1, 122367, Control_c, 8, 11, 123
1, 122372, Note_on_c, 11, 69, 0
1, 122387, Control_c, 8, 11, 124
1, 122391, Note_on_c, 11, 66, 0
1, 122405, Note_on_c, 9, 54, 0
1, 122407, Note_on_c, 7, 69, 105
1, 122407, Note_on_c, 7, 78, 108
1, 122407, Note_on_c, 9, 54, 76
1, 122407, Note_on_c, 9, 38, 101
1, 122407, Note_on_c, 9, 51, 75
1, 122407, Note_on_c, 11, 69, 105
1, 122407, Note_on_c, 11, 61, 108
1, 122407, Note_on_c, 11, 66, 105
1, 122417, Control_c, 8, 11, 125
1, 122437, Control_c, 8, 11, 126
1, 122447, Control_c, 8, 11, 124
1, 122497, Control_c, 8, 11, 123
1, 122525, Note_on_c, 9, 51, 0
1, 122525, Note_on_c, 9, 38, 0
1, 122525, Note_on_c, 9, 54, 0
1, 122527, Note_on_c, 9, 54, 56
1, 122537, Control_c, 8, 11, 122
1, 122587, Note_on_c, 7, 69, 0
1, 122587, Control_c, 8, 11, 121
1, 122602, Note_on_c, 11, 61, 0
1, 122611, Note_on_c, 7, 78, 0
1, 122622, Note_on_c, 11, 69, 0
1, 122627, Control_c, 8, 11, 120
1, 122633, Note_on_c, 11, 66, 0
1, 122633, Note_on_c, 3, 85, 0
1, 122645, Note_on_c, 9, 54, 0
1, 122647, Note_on_c, 3, 83, 108
1, 122647, Note_on_c, 7, 69, 84
1, 122647, Note_on_c, 9, 54, 59
1, 122647, Note_on_c, 9, 51, 68
1, 122647, Note_on_c, 11, 66, 37
1, 122647, Note_on_c, 11, 61, 66
1, 122647, Note_on_c, 11, 69, 64
1, 122667, Control_c, 8, 11, 119
1, 122682, Note_on_c, 7, 69, 0
1, 122706, Note_on_c, 11, 61, 0
1, 122717, Control_c, 8, 11, 118
1, 122757, Control_c, 8, 11, 117
1, 122760, Note_on_c, 7, 42, 0
1, 122765, Note_on_c, 9, 51, 0
1, 122765, Note_on_c, 5, 69, 0
1, 122765, Note_on_c, 9, 54, 0
1, 122767, Note_on_c, 7, 54, 55
1, 122767, Note_on_c, 9, 54, 54
1, 122767, Note_on_c, 11, 61, 74
1, 122785, Note_on_c, 11, 69, 0
1, 122799, Note_on_c, 7, 54, 0
1, 122807, Control_c, 8, 11, 116
1, 122832, Note_on_c, 11, 66, 0
1, 122847, Control_c, 8, 11, 115
1, 122856, Note_on_c, 11, 61, 0
1, 122867, Control_c, 8, 11, 111
1, 122885, Note_on_c, 9, 54, 0
1, 122885, Note_on_c, 5, 66, 0
1, 122885, Note_on_c, 5, 57, 0
1, 122885, Note_on_c, 1, 30, 0
1, 122885, Note_on_c, 5, 61, 0
1, 122887, Note_on_c, 1, 28, 102
1, 122887, Note_on_c, 4, 80, 102
1, 122887, Note_on_c, 4, 68, 93
1, 122887, Note_on_c, 4, 76, 72
1, 122887, Note_on_c, 5, 64, 72
1, 122887, Note_on_c, 5, 68, 78
1, 122887, Note_on_c, 5, 59, 105
1, 122887, Note_on_c, 6, 80, 80
1, 122887, Note_on_c, 6, 68, 82
1, 122887, Note_on_c, 7, 76, 111
1, 122887, Note_on_c, 7, 68, 108
1, 122887, Note_on_c, 7, 40, 105
1, 122887, Note_on_c, 8, 56, 82
1, 122887, Note_on_c, 9, 54, 76
1, 122887, Note_on_c, 9, 51, 75
1, 122887, Note_on_c, 9, 36, 101
1, 122887, Note_on_c, 10, 80, 76
1, 122887, Note_on_c, 10, 76, 72
1, 122887, Note_on_c, 11, 64, 96
1, 122887, Note_on_c, 11, 59, 114
1, 122887, Note_on_c, 11, 68, 102
1, 122887, Note_on_c, 13, 52, 99
1, 122887, Note_on_c, 13, 47, 105
1, 122887, Note_on_c, 15, 68, 1
1, 122887, Note_on_c, 15, 76, 1
1, 122887, Note_on_c, 15, 80, 1
1, 122888, Note_on_c, 10, 78, 0
1, 122898, Note_on_c, 10, 81, 0
1, 122900, Note_on_c, 13, 49, 0
1, 122901, Control_c, 7, 64, 0
1, 122907, Note_on_c, 13, 54, 0
1, 122907, Control_c, 8, 11, 112
1, 122915, Note_on_c, 8, 57, 0
1, 122926, Note_on_c, 6, 69, 0
1, 122937, Control_c, 8, 11, 113
1, 122940, Note_on_c, 6, 81, 0
1, 122967, Control_c, 8, 11, 114
1, 122997, Control_c, 8, 11, 115
1, 123005, Note_on_c, 9, 51, 0
1, 123005, Note_on_c, 9, 54, 0
1, 123005, Note_on_c, 9, 36, 0
1, 123007, Note_on_c, 9, 54, 56
1, 123027, Control_c, 8, 11, 116
1, 123057, Control_c, 8, 11, 117
1, 123067, Note_on_c, 11, 59, 0
1, 123069, Control_c, 7, 64, 127
1, 123072, Note_on_c, 4, 68, 0
1, 123076, Note_on_c, 11, 68, 0
1, 123077, Note_on_c, 4, 76, 0
1, 123087, Control_c, 8, 11, 118
1, 123088, Note_on_c, 11, 64, 0
1, 123091, Note_on_c, 4, 80, 0
1, 123100, Note_on_c, 7, 68, 0
1, 123117, Control_c, 8, 11, 119
1, 123125, Note_on_c, 9, 54, 0
1, 123127, Note_on_c, 4, 80, 87
1, 123127, Note_on_c, 4, 68, 99
1, 123127, Note_on_c, 4, 76, 72
1, 123127, Note_on_c, 7, 64, 74
1, 123127, Note_on_c, 7, 68, 29
1, 123127, Note_on_c, 9, 54, 59
1, 123127, Note_on_c, 9, 51, 68
1, 123127, Note_on_c, 11, 59, 74
1, 123127, Note_on_c, 11, 68, 62
1, 123127, Note_on_c, 11, 64, 68
1, 123147, Control_c, 8, 11, 120
1, 123177, Control_c, 8, 11, 121
1, 123189, Note_on_c, 4, 68, 0
1, 123191, Note_on_c, 11, 59, 0
1, 123194, Note_on_c, 4, 80, 0
1, 123195, Note_on_c, 11, 64, 0
1, 123207, Control_c, 8, 11, 122
1, 123208, Note_on_c, 4, 76, 0
1, 123209, Note_on_c, 11, 68, 0
1, 123237, Control_c, 8, 11, 123
1, 123245, Note_on_c, 9, 54, 0
1, 123245, Note_on_c, 9, 51, 0
1, 123247, Note_on_c, 4, 68, 99
1, 123247, Note_on_c, 4, 80, 102
1, 123247, Note_on_c, 4, 76, 74
1, 123247, Note_on_c, 9, 54, 54
1, 123247, Note_on_c, 11, 59, 66
1, 123247, Note_on_c, 11, 68, 57
1, 123247, Note_on_c, 11, 64, 59
1, 123255, Note_on_c, 7, 68, 0
1, 123267, Control_c, 8, 11, 124
1, 123286, Note_on_c, 7, 64, 0
1, 123292, Note_on_c, 11, 68, 0
1, 123297, Control_c, 8, 11, 125
1, 123302, Note_on_c, 11, 64, 0
1, 123303, Note_on_c, 11, 59, 0
1, 123327, Control_c, 8, 11, 123
1, 123343, Note_on_c, 7, 76, 0
1, 123355, Note_on_c, 3, 83, 0
1, 123357, Control_c, 8, 11, 122
1, 123365, Note_on_c, 9, 54, 0
1, 123367, Note_on_c, 7, 71, 102
1, 123367, Note_on_c, 7, 64, 108
1, 123367, Note_on_c, 7, 52, 96
1, 123367, Note_on_c, 9, 54, 76
1, 123367, Note_on_c, 9, 38, 101
1, 123367, Note_on_c, 9, 51, 75
1, 123367, Note_on_c, 11, 59, 114
1, 123367, Note_on_c, 11, 64, 96
1, 123367, Note_on_c, 11, 68, 108
1, 123377, Control_c, 8, 11, 121
1, 123407, Control_c, 8, 11, 120
1, 123427, Control_c, 8, 11, 119
1, 123457, Control_c, 8, 11, 118
1, 123477, Control_c, 8, 11, 117
1, 123485, Note_on_c, 9, 51, 0
1, 123485, Note_on_c, 9, 54, 0
1, 123485, Note_on_c, 15, 76, 0
1, 123485, Note_on_c, 15, 68, 0
1, 123485, Note_on_c, 15, 80, 0
1, 123485, Note_on_c, 9, 38, 0
1, 123487, Note_on_c, 4, 66, 102
1, 123487, Note_on_c, 4, 78, 99
1, 123487, Note_on_c, 4, 75, 68
1, 123487, Note_on_c, 9, 54, 56
1, 123487, Note_on_c, 15, 66, 1
1, 123487, Note_on_c, 15, 75, 1
1, 123487, Note_on_c, 15, 78, 1
1, 123491, Note_on_c, 4, 68, 0
1, 123491, Lyric_t, "I "
1, 123494, Note_on_c, 3, 83, 117
1, 123502, Note_on_c, 4, 80, 0
1, 123507, Control_c, 8, 11, 116
1, 123512, Note_on_c, 4, 76, 0
1, 123527, Control_c, 8, 11, 115
1, 123557, Control_c, 8, 11, 114
1, 123562, Note_on_c, 11, 59, 0
1, 123576, Note_on_c, 7, 40, 0
1, 123577, Note_on_c, 4, 75, 0
1, 123577, Control_c, 8, 11, 113
1, 123586, Note_on_c, 4, 78, 0
1, 123586, Note_on_c, 4, 66, 0
1, 123605, Note_on_c, 7, 64, 0
1, 123605, Note_on_c, 15, 66, 0
1, 123605, Note_on_c, 9, 54, 0
1, 123605, Note_on_c, 15, 75, 0
1, 123605, Note_on_c, 15, 78, 0
1, 123607, Note_on_c, 4, 71, 70
1, 123607, Note_on_c, 4, 66, 105
1, 123607, Note_on_c, 4, 78, 108
1, 123607, Note_on_c, 4, 75, 78
1, 123607, Note_on_c, 7, 68, 68
1, 123607, Control_c, 8, 11, 112
1, 123607, Note_on_c, 9, 54, 59
1, 123607, Note_on_c, 9, 51, 68
1, 123607, Note_on_c, 11, 59, 68
1, 123607, Note_on_c, 15, 66, 1
1, 123607, Note_on_c, 15, 71, 1
1, 123607, Note_on_c, 15, 71, 1
1, 123607, Note_on_c, 15, 75, 1
1, 123607, Note_on_c, 15, 78, 1
1, 123620, Note_on_c, 3, 83, 0
1, 123627, Control_c, 8, 11, 111
1, 123638, Note_on_c, 7, 52, 0
1, 123645, Note_on_c, 7, 71, 0
1, 123657, Note_on_c, 7, 68, 0
1, 123657, Control_c, 8, 11, 110
1, 123676, Note_on_c, 11, 59, 0
1, 123677, Control_c, 8, 11, 109
1, 123683, Lyric_t, "said: "
1, 123685, Note_on_c, 3, 83, 120
1, 123707, Control_c, 8, 11, 108
1, 123725, Note_on_c, 5, 59, 0
1, 123725, Note_on_c, 9, 51, 0
1, 123725, Note_on_c, 9, 54, 0
1, 123727, Control_c, 8, 11, 107
1, 123727, Note_on_c, 9, 54, 54
1, 123727, Note_on_c, 11, 59, 43
1, 123757, Control_c, 8, 11, 99
1, 123781, Note_on_c, 11, 64, 0
1, 123791, Note_on_c, 11, 68, 0
1, 123796, Note_on_c, 11, 59, 0
1, 123797, Control_c, 8, 11, 100
1, 123803, Note_on_c, 13, 47, 0
1, 123816, Note_on_c, 3, 83, 0
1, 123831, Control_c, 7, 64, 0
1, 123837, Note_on_c, 8, 56, 0
1, 123837, Control_c, 8, 11, 101
1, 123838, Note_on_c, 10, 80, 0
1, 123845, Note_on_c, 1, 28, 0
1, 123845, Note_on_c, 9, 54, 0
1, 123845, Note_on_c, 5, 68, 0
1, 123845, Note_on_c, 5, 64, 0
1, 123847, Note_on_c, 1, 35, 111
1, 123847, Note_on_c, 5, 63, 90
1, 123847, Note_on_c, 5, 66, 87
1, 123847, Note_on_c, 5, 59, 108
1, 123847, Note_on_c, 6, 71, 78
1, 123847, Note_on_c, 6, 83, 62
1, 123847, Note_on_c, 6, 78, 58
1, 123847, Note_on_c, 7, 66, 82
1, 123847, Note_on_c, 7, 71, 93
1, 123847, Note_on_c, 7, 63, 82
1, 123847, Note_on_c, 7, 47, 99
1, 123847, Note_on_c, 8, 54, 82
1, 123847, Note_on_c, 9, 54, 76
1, 123847, Note_on_c, 9, 49, 74
1, 123847, Note_on_c, 9, 36, 101
1, 123847, Note_on_c, 10, 83, 87
1, 123847, Note_on_c, 10, 75, 68
1, 123847, Note_on_c, 11, 59, 105
1, 123847, Note_on_c, 11, 63, 99
1, 123847, Note_on_c, 11, 66, 96
1, 123847, Note_on_c, 13, 47, 99
1, 123847, Note_on_c, 13, 54, 96
1, 123851, Note_on_c, 10, 76, 0
1, 123859, Note_on_c, 13, 52, 0
1, 123867, Control_c, 8, 11, 102
1, 123874, Note_on_c, 6, 80, 0
1, 123881, Note_on_c, 6, 68, 0
1, 123907, Control_c, 8, 11, 103
1, 123917, Control_c, 7, 64, 127
1, 123947, Control_c, 8, 11, 104
1, 123952, Pitch_bend_c, 3, 7304
1, 123961, Pitch_bend_c, 3, 6465
1, 123965, Note_on_c, 9, 49, 0
1, 123965, Note_on_c, 9, 54, 0
1, 123965, Note_on_c, 9, 36, 0
1, 123965, Note_on_c, 1, 35, 0
1, 123967, Note_on_c, 1, 35, 90
1, 123967, Note_on_c, 9, 54, 56
1, 123970, Pitch_bend_c, 3, 5281
1, 123977, Control_c, 8, 11, 105
1, 123980, Pitch_bend_c, 3, 4146
1, 123989, Pitch_bend_c, 3, 3085
1, 123998, Pitch_bend_c, 3, 2222
1, 124008, Pitch_bend_c, 3, 1358
1, 124009, Note_on_c, 7, 71, 0
1, 124015, Note_on_c, 7, 66, 0
1, 124017, Note_on_c, 7, 63, 0
1, 124017, Pitch_bend_c, 3, 1038
1, 124017, Control_c, 8, 11, 106
1, 124026, Pitch_bend_c, 3, 396
1, 124035, Pitch_bend_c, 3, 100
1, 124045, Pitch_bend_c, 3, 0
1, 124047, Control_c, 8, 11, 107
1, 124062, Note_on_c, 11, 59, 0
1, 124073, Note_on_c, 11, 63, 0
1, 124085, Note_on_c, 9, 54, 0
1, 124087, Note_on_c, 3, 90, 114
1, 124087, Note_on_c, 7, 59, 74
1, 124087, Note_on_c, 7, 71, 84
1, 124087, Control_c, 8, 11, 108
1, 124087, Note_on_c, 9, 54, 59
1, 124087, Note_on_c, 9, 51, 68
1, 124087, Note_on_c, 11, 63, 61
1, 124087, Note_on_c, 11, 59, 54
1, 124087, Lyric_t, "I "
1, 124093, Pitch_bend_c, 3, 51
1, 124102, Pitch_bend_c, 3, 914
1, 124111, Pitch_bend_c, 3, 4146
1, 124121, Pitch_bend_c, 3, 8192
1, 124127, Control_c, 8, 11, 109
1, 124131, Note_on_c, 7, 59, 0
1, 124136, Note_on_c, 11, 59, 0
1, 124139, Note_on_c, 7, 71, 0
1, 124154, Note_on_c, 11, 63, 0
1, 124157, Control_c, 8, 11, 110
1, 124191, Note_on_c, 11, 66, 0
1, 124197, Control_c, 8, 11, 111
1, 124205, Note_on_c, 9, 54, 0
1, 124205, Note_on_c, 9, 51, 0
1, 124207, Note_on_c, 9, 54, 54
1, 124207, Note_on_c, 11, 63, 57
1, 124207, Note_on_c, 11, 59, 52
1, 124207, Note_on_c, 11, 66, 55
1, 124227, Control_c, 8, 11, 112
1, 124263, Note_on_c, 11, 59, 0
1, 124267, Control_c, 8, 11, 113
1, 124279, Note_on_c, 11, 66, 0
1, 124279, Note_on_c, 11, 63, 0
1, 124307, Control_c, 8, 11, 114
1, 124325, Note_on_c, 9, 54, 0
1, 124327, Note_on_c, 7, 66, 105
1, 124327, Note_on_c, 7, 78, 111
1, 124327, Note_on_c, 7, 59, 76
1, 124327, Note_on_c, 9, 54, 76
1, 124327, Note_on_c, 9, 51, 75
1, 124327, Note_on_c, 9, 38, 101
1, 124327, Note_on_c, 11, 63, 96
1, 124327, Note_on_c, 11, 59, 108
1, 124327, Note_on_c, 11, 66, 96
1, 124337, Control_c, 8, 11, 115
1, 124364, Note_on_c, 7, 78, 0
1, 124365, Note_on_c, 7, 66, 0
1, 124377, Control_c, 8, 11, 116
1, 124379, Note_on_c, 7, 59, 0
1, 124407, Control_c, 8, 11, 117
1, 124445, Note_on_c, 9, 54, 0
1, 124445, Note_on_c, 9, 38, 0
1, 124445, Note_on_c, 9, 51, 0
1, 124447, Control_c, 8, 11, 118
1, 124447, Note_on_c, 9, 54, 56
1, 124487, Control_c, 8, 11, 119
1, 124517, Control_c, 8, 11, 120
1, 124526, Note_on_c, 11, 63, 0
1, 124526, Note_on_c, 11, 59, 0
1, 124557, Control_c, 8, 11, 121
1, 124565, Note_on_c, 9, 54, 0
1, 124567, Note_on_c, 7, 71, 105
1, 124567, Note_on_c, 7, 59, 90
1, 124567, Note_on_c, 9, 54, 59
1, 124567, Note_on_c, 9, 51, 68
1, 124567, Note_on_c, 11, 59, 57
1, 124567, Note_on_c, 11, 63, 46
1, 124587, Control_c, 8, 11, 122
1, 124619, Note_on_c, 11, 59, 0
1, 124627, Control_c, 8, 11, 123
1, 124667, Control_c, 8, 11, 124
1, 124685, Note_on_c, 9, 51, 0
1, 124685, Note_on_c, 9, 54, 0
1, 124687, Note_on_c, 3, 88, 102
1, 124687, Note_on_c, 9, 54, 54
1, 124687, Lyric_t, "can't "
1, 124693, Note_on_c, 9, 36, 51
1, 124697, Control_c, 8, 11, 125
1, 124708, Note_on_c, 3, 90, 0
1, 124720, Control_c, 7, 64, 0
1, 124737, Control_c, 8, 11, 126
1, 124745, Note_on_c, 7, 71, 0
1, 124754, Note_on_c, 11, 63, 0
1, 124760, Note_on_c, 7, 59, 0
1, 124760, Note_on_c, 3, 88, 0
1, 124767, Control_c, 8, 11, 127
1, 124776, Note_on_c, 11, 66, 0
1, 124776, Note_on_c, 7, 47, 0
1, 124795, Note_on_c, 6, 71, 0
1, 124801, Note_on_c, 6, 83, 0
1, 124805, Note_on_c, 5, 63, 0
1, 124805, Note_on_c, 9, 54, 0
1, 124805, Note_on_c, 1, 35, 0
1, 124807, Note_on_c, 10, 75, 0
1, 124807, Note_on_c, 1, 35, 84
1, 124807, Note_on_c, 3, 88, 114
1, 124807, Note_on_c, 5, 64, 84
1, 124807, Note_on_c, 6, 76, 108
1, 124807, Note_on_c, 6, 64, 84
1, 124807, Note_on_c, 7, 76, 114
1, 124807, Note_on_c, 7, 64, 82
1, 124807, Note_on_c, 8, 52, 82
1, 124807, Note_on_c, 9, 54, 76
1, 124807, Note_on_c, 9, 51, 75
1, 124807, Note_on_c, 9, 36, 101
1, 124807, Note_on_c, 10, 76, 74
1, 124807, Note_on_c, 11, 59, 105
1, 124807, Note_on_c, 11, 66, 93
1, 124807, Note_on_c, 11, 64, 96
1, 124807, Lyric_t, "find "
1, 124811, Note_on_c, 8, 54, 0
1, 124811, Note_on_c, 9, 36, 0
1, 124832, Control_c, 4, 11, 127
1, 124832, Control_c, 15, 11, 127
1, 124841, Note_on_c, 6, 78, 0
1, 124883, Control_c, 4, 11, 126
1, 124883, Control_c, 15, 11, 126
1, 124909, Note_on_c, 6, 64, 0
1, 124914, Note_on_c, 6, 76, 0
1, 124920, Control_c, 4, 11, 125
1, 124920, Control_c, 15, 11, 125
1, 124925, Note_on_c, 1, 35, 0
1, 124925, Note_on_c, 9, 51, 0
1, 124925, Note_on_c, 9, 54, 0
1, 124925, Note_on_c, 9, 36, 0
1, 124927, Note_on_c, 6, 66, 99
1, 124927, Note_on_c, 6, 78, 82
1, 124927, Note_on_c, 7, 66, 99
1, 124927, Note_on_c, 7, 78, 84
1, 124927, Note_on_c, 9, 54, 56
1, 124939, Note_on_c, 7, 64, 0
1, 124944, Note_on_c, 7, 76, 0
1, 124971, Control_c, 4, 11, 124
1, 124971, Control_c, 15, 11, 124
1, 124987, Note_on_c, 11, 59, 0
1, 124991, Note_on_c, 6, 66, 0
1, 125003, Note_on_c, 6, 78, 0
1, 125009, Control_c, 4, 11, 123
1, 125009, Control_c, 15, 11, 123
1, 125018, Note_on_c, 7, 66, 0
1, 125030, Note_on_c, 7, 78, 0
1, 125045, Note_on_c, 9, 54, 0
1, 125047, Note_on_c, 1, 35, 105
1, 125047, Note_on_c, 3, 87, 111
1, 125047, Note_on_c, 6, 71, 108
1, 125047, Note_on_c, 6, 59, 76
1, 125047, Note_on_c, 7, 71, 96
1, 125047, Note_on_c, 7, 59, 87
1, 125047, Note_on_c, 9, 54, 59
1, 125047, Note_on_c, 9, 51, 68
1, 125047, Note_on_c, 11, 59, 55
1, 125053, Note_on_c, 9, 36, 57
1, 125059, Control_c, 4, 11, 122
1, 125059, Control_c, 15, 11, 122
1, 125071, Note_on_c, 3, 88, 0
1, 125097, Control_c, 4, 11, 121
1, 125097, Control_c, 15, 11, 121
1, 125102, Note_on_c, 11, 64, 0
1, 125112, Note_on_c, 11, 66, 0
1, 125112, Note_on_c, 11, 59, 0
1, 125137, Note_on_c, 6, 71, 0
1, 125141, Note_on_c, 7, 71, 0
1, 125146, Note_on_c, 6, 59, 0
1, 125148, Control_c, 4, 11, 120
1, 125148, Control_c, 15, 11, 120
1, 125165, Note_on_c, 9, 54, 0
1, 125165, Note_on_c, 9, 51, 0
1, 125167, Note_on_c, 6, 73, 87
1, 125167, Note_on_c, 6, 61, 90
1, 125167, Note_on_c, 7, 73, 84
1, 125167, Note_on_c, 7, 61, 87
1, 125167, Note_on_c, 9, 54, 54
1, 125167, Note_on_c, 9, 47, 80
1, 125167, Note_on_c, 11, 59, 55
1, 125167, Note_on_c, 11, 66, 45
1, 125167, Note_on_c, 11, 64, 55
1, 125171, Note_on_c, 9, 36, 0
1, 125176, Note_on_c, 7, 59, 0
1, 125186, Control_c, 4, 11, 119
1, 125186, Control_c, 15, 11, 119
1, 125224, Note_on_c, 6, 61, 0
1, 125234, Note_on_c, 6, 73, 0
1, 125236, Control_c, 4, 11, 118
1, 125236, Control_c, 15, 11, 118
1, 125250, Note_on_c, 11, 66, 0
1, 125251, Note_on_c, 7, 73, 0
1, 125254, Note_on_c, 11, 59, 0
1, 125258, Note_on_c, 11, 64, 0
1, 125265, Note_on_c, 7, 61, 0
1, 125274, Control_c, 4, 11, 117
1, 125274, Control_c, 15, 11, 117
1, 125285, Note_on_c, 5, 64, 0
1, 125285, Note_on_c, 9, 47, 0
1, 125285, Note_on_c, 9, 54, 0
1, 125287, Note_on_c, 5, 63, 82
1, 125287, Note_on_c, 6, 76, 111
1, 125287, Note_on_c, 6, 64, 102
1, 125287, Note_on_c, 7, 64, 105
1, 125287, Note_on_c, 7, 76, 105
1, 125287, Note_on_c, 8, 54, 80
1, 125287, Note_on_c, 9, 54, 76
1, 125287, Note_on_c, 9, 38, 101
1, 125287, Note_on_c, 9, 51, 75
1, 125287, Note_on_c, 10, 78, 66
1, 125287, Note_on_c, 11, 59, 111
1, 125287, Note_on_c, 11, 66, 96
1, 125287, Note_on_c, 11, 63, 99
1, 125309, Note_on_c, 8, 52, 0
1, 125314, Note_on_c, 10, 76, 0
1, 125325, Control_c, 4, 11, 116
1, 125325, Control_c, 15, 11, 116
1, 125363, Control_c, 4, 11, 115
1, 125363, Control_c, 15, 11, 115
1, 125378, Note_on_c, 6, 76, 0
1, 125383, Note_on_c, 7, 64, 0
1, 125388, Note_on_c, 6, 64, 0
1, 125390, Note_on_c, 3, 87, 0
1, 125391, Note_on_c, 7, 76, 0
1, 125405, Note_on_c, 9, 51, 0
1, 125405, Note_on_c, 9, 38, 0
1, 125405, Note_on_c, 9, 54, 0
1, 125407, Note_on_c, 3, 85, 108
1, 125407, Note_on_c, 6, 71, 99
1, 125407, Note_on_c, 6, 59, 93
1, 125407, Note_on_c, 7, 59, 87
1, 125407, Note_on_c, 7, 71, 99
1, 125407, Note_on_c, 9, 54, 56
1, 125407, Note_on_c, 9, 45, 91
1, 125407, Lyric_t, "my "
1, 125413, Control_c, 4, 11, 114
1, 125413, Control_c, 15, 11, 114
1, 125451, Control_c, 4, 11, 113
1, 125451, Control_c, 15, 11, 113
1, 125465, Note_on_c, 6, 71, 0
1, 125467, Note_on_c, 6, 59, 0
1, 125468, Note_on_c, 7, 71, 0
1, 125478, Note_on_c, 11, 63, 0
1, 125485, Note_on_c, 7, 59, 0
1, 125498, Note_on_c, 11, 59, 0
1, 125502, Control_c, 4, 11, 112
1, 125502, Control_c, 15, 11, 112
1, 125525, Note_on_c, 9, 54, 0
1, 125525, Note_on_c, 9, 45, 0
1, 125527, Note_on_c, 6, 59, 96
1, 125527, Note_on_c, 6, 71, 102
1, 125527, Note_on_c, 7, 59, 96
1, 125527, Note_on_c, 7, 71, 120
1, 125527, Note_on_c, 9, 54, 59
1, 125527, Note_on_c, 9, 51, 68
1, 125527, Note_on_c, 9, 43, 97
1, 125527, Note_on_c, 11, 59, 40
1, 125527, Note_on_c, 11, 63, 55
1, 125539, Control_c, 4, 11, 111
1, 125539, Control_c, 15, 11, 111
1, 125583, Note_on_c, 11, 59, 0
1, 125590, Control_c, 4, 11, 110
1, 125590, Control_c, 15, 11, 110
1, 125614, Note_on_c, 3, 85, 0
1, 125615, Note_on_c, 6, 71, 0
1, 125628, Control_c, 4, 11, 109
1, 125628, Control_c, 15, 11, 109
1, 125633, Note_on_c, 7, 71, 0
1, 125643, Note_on_c, 6, 59, 0
1, 125645, Note_on_c, 5, 63, 0
1, 125645, Note_on_c, 5, 59, 0
1, 125645, Note_on_c, 9, 54, 0
1, 125645, Note_on_c, 9, 43, 0
1, 125645, Note_on_c, 9, 51, 0
1, 125647, Note_on_c, 3, 83, 111
1, 125647, Note_on_c, 6, 73, 90
1, 125647, Note_on_c, 6, 61, 102
1, 125647, Note_on_c, 7, 61, 82
1, 125647, Note_on_c, 7, 73, 102
1, 125647, Note_on_c, 9, 54, 54
1, 125647, Note_on_c, 9, 41, 103
1, 125647, Note_on_c, 11, 59, 58
1, 125647, Lyric_t, "way "
1, 125653, Note_on_c, 7, 59, 0
1, 125670, Pitch_bend_c, 13, 7847
1, 125678, Control_c, 4, 11, 108
1, 125678, Control_c, 15, 11, 108
1, 125679, Pitch_bend_c, 13, 7132
1, 125688, Pitch_bend_c, 13, 6589
1, 125698, Pitch_bend_c, 13, 6071
1, 125707, Pitch_bend_c, 13, 5232
1, 125715, Note_on_c, 4, 75, 0
1, 125716, Control_c, 4, 11, 107
1, 125716, Pitch_bend_c, 13, 4319
1, 125716, Control_c, 15, 11, 107
1, 125720, Note_on_c, 6, 61, 0
1, 125725, Pitch_bend_c, 13, 3776
1, 125726, Note_on_c, 6, 73, 0
1, 125732, Note_on_c, 8, 54, 0
1, 125735, Note_on_c, 15, 66, 0
1, 125735, Note_on_c, 4, 66, 0
1, 125735, Pitch_bend_c, 13, 3406
1, 125736, Note_on_c, 13, 54, 0
1, 125739, Note_on_c, 15, 71, 0
1, 125739, Note_on_c, 4, 71, 0
1, 125739, Note_on_c, 15, 71, 0
1, 125739, Note_on_c, 11, 59, 0
1, 125744, Pitch_bend_c, 13, 3209
1, 125747, Note_on_c, 11, 66, 0
1, 125748, Note_on_c, 13, 47, 0
1, 125753, Pitch_bend_c, 13, 8192
1, 125754, Note_on_c, 7, 61, 0
1, 125759, Note_on_c, 11, 63, 0
1, 125762, Note_on_c, 7, 73, 0
1, 125763, Note_on_c, 4, 78, 0
1, 125763, Note_on_c, 15, 78, 0
1, 125763, Note_on_c, 15, 75, 0
1, 125765, Note_on_c, 1, 35, 0
1, 125765, Note_on_c, 9, 41, 0
1, 125765, Note_on_c, 9, 54, 0
1, 125767, Note_on_c, 0, 57, 84
1, 125767, Note_on_c, 1, 30, 114
1, 125767, Note_on_c, 3, 83, 117
1, 125767, Note_on_c, 5, 69, 90
1, 125767, Note_on_c, 5, 57, 102
1, 125767, Note_on_c, 5, 61, 105
1, 125767, Note_on_c, 6, 90, 84
1, 125767, Note_on_c, 6, 78, 74
1, 125767, Note_on_c, 6, 69, 80
1, 125767, Note_on_c, 7, 42, 102
1, 125767, Note_on_c, 7, 69, 96
1, 125767, Note_on_c, 7, 73, 99
1, 125767, Note_on_c, 8, 57, 82
1, 125767, Note_on_c, 9, 54, 76
1, 125767, Note_on_c, 9, 49, 81
1, 125767, Note_on_c, 9, 36, 101
1, 125767, Note_on_c, 10, 81, 87
1, 125767, Note_on_c, 11, 61, 114
1, 125767, Note_on_c, 11, 66, 108
1, 125767, Note_on_c, 11, 69, 108
1, 125767, Note_on_c, 13, 49, 93
1, 125767, Note_on_c, 13, 54, 87
1, 125767, Lyric_t, "home! "
1, 125767, Lyric_t, "\015"
1, 125773, Note_on_c, 6, 57, 99
1, 125773, Note_on_c, 6, 45, 90
1, 125775, Note_on_c, 3, 83, 0
1, 125798, Note_on_c, 10, 83, 0
1, 125805, Control_c, 4, 11, 127
1, 125805, Control_c, 4, 11, 127
1, 125805, Control_c, 15, 11, 127
1, 125805, Control_c, 15, 11, 127
1, 125817, Pitch_bend_c, 3, 9352
1, 125827, Pitch_bend_c, 3, 11606
1, 125827, Control_c, 7, 64, 127
1, 125836, Pitch_bend_c, 3, 14418
1, 125845, Pitch_bend_c, 3, 16226
1, 125854, Pitch_bend_c, 3, 16383
1, 125885, Note_on_c, 9, 49, 0
1, 125885, Note_on_c, 9, 54, 0
1, 125885, Note_on_c, 9, 36, 0
1, 125887, Note_on_c, 9, 54, 56
1, 125970, Note_on_c, 7, 69, 0
1, 125973, Note_on_c, 6, 59, 87
1, 125975, Note_on_c, 6, 47, 80
1, 126005, Note_on_c, 9, 54, 0
1, 126005, Note_on_c, 6, 57, 0
1, 126007, Note_on_c, 0, 59, 82
1, 126007, Note_on_c, 7, 69, 43
1, 126007, Note_on_c, 8, 59, 80
1, 126007, Note_on_c, 9, 54, 59
1, 126007, Note_on_c, 9, 51, 68
1, 126018, Note_on_c, 6, 45, 0
1, 126042, Note_on_c, 7, 73, 0
1, 126043, Note_on_c, 8, 57, 0
1, 126047, Note_on_c, 0, 57, 0
1, 126084, Note_on_c, 11, 61, 0
1, 126089, Note_on_c, 11, 69, 0
1, 126104, Note_on_c, 11, 66, 0
1, 126125, Note_on_c, 9, 54, 0
1, 126125, Note_on_c, 9, 51, 0
1, 126127, Note_on_c, 9, 54, 54
1, 126127, Note_on_c, 11, 61, 90
1, 126127, Note_on_c, 11, 66, 74
1, 126127, Note_on_c, 11, 69, 87
1, 126144, Note_on_c, 7, 69, 0
1, 126206, Note_on_c, 11, 61, 0
1, 126212, Note_on_c, 11, 69, 0
1, 126220, Note_on_c, 6, 52, 82
1, 126220, Note_on_c, 6, 64, 96
1, 126228, Note_on_c, 6, 47, 0
1, 126231, Note_on_c, 11, 66, 0
1, 126243, Note_on_c, 6, 59, 0
1, 126245, Note_on_c, 9, 54, 0
1, 126247, Note_on_c, 0, 64, 87
1, 126247, Note_on_c, 7, 69, 105
1, 126247, Note_on_c, 7, 78, 111
1, 126247, Note_on_c, 7, 54, 74
1, 126247, Note_on_c, 8, 64, 87
1, 126247, Note_on_c, 9, 54, 76
1, 126247, Note_on_c, 9, 38, 101
1, 126247, Note_on_c, 9, 51, 75
1, 126247, Note_on_c, 11, 69, 105
1, 126247, Note_on_c, 11, 61, 108
1, 126247, Note_on_c, 11, 66, 105
1, 126251, Note_on_c, 0, 59, 0
1, 126257, Note_on_c, 8, 59, 0
1, 126326, Note_on_c, 3, 83, 0
1, 126338, Pitch_bend_c, 3, 15869
1, 126347, Pitch_bend_c, 3, 14820
1, 126357, Pitch_bend_c, 3, 10446
1, 126365, Note_on_c, 9, 51, 0
1, 126365, Note_on_c, 9, 54, 0
1, 126365, Note_on_c, 9, 38, 0
1, 126366, Pitch_bend_c, 3, 8192
1, 126367, Note_on_c, 3, 83, 111
1, 126367, Note_on_c, 9, 54, 56
1, 126429, Note_on_c, 7, 54, 0
1, 126442, Note_on_c, 11, 61, 0
1, 126462, Note_on_c, 11, 69, 0
1, 126473, Note_on_c, 11, 66, 0
1, 126484, Note_on_c, 7, 78, 0
1, 126485, Note_on_c, 9, 54, 0
1, 126487, Note_on_c, 7, 73, 76
1, 126487, Note_on_c, 9, 54, 59
1, 126487, Note_on_c, 9, 51, 68
1, 126487, Note_on_c, 11, 66, 37
1, 126487, Note_on_c, 11, 61, 66
1, 126487, Note_on_c, 11, 69, 64
1, 126502, Note_on_c, 7, 42, 0
1, 126530, Note_on_c, 7, 69, 0
1, 126541, Note_on_c, 7, 73, 0
1, 126546, Note_on_c, 11, 61, 0
1, 126605, Note_on_c, 5, 57, 0
1, 126605, Note_on_c, 5, 66, 0
1, 126605, Note_on_c, 9, 54, 0
1, 126605, Note_on_c, 9, 51, 0
1, 126607, Note_on_c, 9, 54, 54
1, 126607, Note_on_c, 11, 61, 74
1, 126625, Note_on_c, 11, 69, 0
1, 126670, Note_on_c, 3, 83, 0
1, 126672, Note_on_c, 11, 66, 0
1, 126686, Note_on_c, 6, 52, 0
1, 126696, Note_on_c, 11, 61, 0
1, 126725, Note_on_c, 9, 54, 0
1, 126725, Note_on_c, 5, 61, 0
1, 126725, Note_on_c, 5, 69, 0
1, 126725, Note_on_c, 1, 30, 0
1, 126727, Note_on_c, 1, 28, 102
1, 126727, Note_on_c, 3, 83, 111
1, 126727, Note_on_c, 4, 80, 102
1, 126727, Note_on_c, 4, 68, 93
1, 126727, Note_on_c, 4, 76, 61
1, 126727, Note_on_c, 5, 68, 36
1, 126727, Note_on_c, 5, 64, 93
1, 126727, Note_on_c, 5, 59, 105
1, 126727, Note_on_c, 6, 88, 76
1, 126727, Note_on_c, 6, 76, 72
1, 126727, Note_on_c, 6, 68, 80
1, 126727, Note_on_c, 7, 40, 105
1, 126727, Note_on_c, 7, 68, 72
1, 126727, Note_on_c, 7, 64, 99
1, 126727, Note_on_c, 9, 54, 76
1, 126727, Note_on_c, 9, 51, 75
1, 126727, Note_on_c, 9, 36, 101
1, 126727, Note_on_c, 10, 76, 74
1, 126727, Note_on_c, 10, 80, 48
1, 126727, Note_on_c, 11, 64, 96
1, 126727, Note_on_c, 11, 59, 114
1, 126727, Note_on_c, 11, 68, 102
1, 126727, Note_on_c, 13, 47, 96
1, 126727, Note_on_c, 13, 52, 87
1, 126727, Note_on_c, 15, 68, 1
1, 126727, Note_on_c, 15, 76, 1
1, 126727, Note_on_c, 15, 80, 1
1, 126737, Control_c, 7, 64, 0
1, 126740, Note_on_c, 13, 54, 0
1, 126742, Note_on_c, 13, 49, 0
1, 126751, Note_on_c, 6, 52, 84
1, 126752, Note_on_c, 10, 78, 0
1, 126777, Note_on_c, 6, 69, 0
1, 126780, Note_on_c, 10, 81, 0
1, 126790, Note_on_c, 6, 90, 0
1, 126815, Note_on_c, 6, 78, 0
1, 126816, Control_c, 7, 64, 127
1, 126845, Note_on_c, 9, 36, 0
1, 126845, Note_on_c, 9, 51, 0
1, 126845, Note_on_c, 9, 54, 0
1, 126847, Note_on_c, 9, 54, 56
1, 126907, Note_on_c, 11, 59, 0
1, 126909, Note_on_c, 7, 64, 0
1, 126912, Note_on_c, 4, 68, 0
1, 126916, Note_on_c, 11, 68, 0
1, 126928, Note_on_c, 11, 64, 0
1, 126931, Note_on_c, 4, 80, 0
1, 126937, Note_on_c, 4, 76, 0
1, 126965, Note_on_c, 9, 54, 0
1, 126967, Note_on_c, 4, 80, 87
1, 126967, Note_on_c, 4, 68, 99
1, 126967, Note_on_c, 4, 76, 59
1, 126967, Note_on_c, 7, 64, 99
1, 126967, Note_on_c, 7, 76, 108
1, 126967, Note_on_c, 9, 54, 59
1, 126967, Note_on_c, 9, 51, 68
1, 126967, Note_on_c, 11, 59, 74
1, 126967, Note_on_c, 11, 68, 62
1, 126967, Note_on_c, 11, 64, 68
1, 127021, Control_c, 7, 64, 0
1, 127029, Note_on_c, 4, 68, 0
1, 127031, Note_on_c, 11, 59, 0
1, 127034, Note_on_c, 4, 80, 0
1, 127035, Note_on_c, 11, 64, 0
1, 127037, Note_on_c, 4, 76, 0
1, 127049, Note_on_c, 11, 68, 0
1, 127085, Note_on_c, 9, 54, 0
1, 127085, Note_on_c, 9, 51, 0
1, 127087, Note_on_c, 4, 68, 99
1, 127087, Note_on_c, 4, 80, 102
1, 127087, Note_on_c, 4, 76, 70
1, 127087, Note_on_c, 9, 54, 54
1, 127087, Note_on_c, 11, 59, 66
1, 127087, Note_on_c, 11, 68, 57
1, 127087, Note_on_c, 11, 64, 59
1, 127132, Note_on_c, 11, 68, 0
1, 127142, Note_on_c, 11, 64, 0
1, 127143, Note_on_c, 11, 59, 0
1, 127187, Note_on_c, 3, 83, 0
1, 127205, Note_on_c, 9, 54, 0
1, 127207, Note_on_c, 7, 52, 105
1, 127207, Control_c, 7, 64, 127
1, 127207, Note_on_c, 8, 66, 74
1, 127207, Note_on_c, 9, 54, 76
1, 127207, Note_on_c, 9, 51, 75
1, 127207, Note_on_c, 9, 38, 101
1, 127207, Note_on_c, 11, 59, 114
1, 127207, Note_on_c, 11, 64, 96
1, 127207, Note_on_c, 11, 68, 108
1, 127268, Note_on_c, 8, 64, 0
1, 127279, Note_on_c, 7, 64, 0
1, 127299, Note_on_c, 7, 68, 0
1, 127325, Note_on_c, 15, 68, 0
1, 127325, Note_on_c, 15, 76, 0
1, 127325, Note_on_c, 15, 80, 0
1, 127325, Note_on_c, 9, 38, 0
1, 127325, Note_on_c, 9, 54, 0
1, 127325, Note_on_c, 9, 51, 0
1, 127327, Note_on_c, 4, 78, 99
1, 127327, Note_on_c, 4, 66, 102
1, 127327, Note_on_c, 4, 75, 62
1, 127327, Note_on_c, 9, 54, 56
1, 127327, Note_on_c, 15, 66, 1
1, 127327, Note_on_c, 15, 75, 1
1, 127327, Note_on_c, 15, 78, 1
1, 127331, Note_on_c, 4, 68, 0
1, 127342, Note_on_c, 4, 80, 0
1, 127369, Note_on_c, 4, 76, 0
1, 127402, Note_on_c, 11, 59, 0
1, 127411, Note_on_c, 4, 75, 0
1, 127426, Note_on_c, 4, 78, 0
1, 127426, Note_on_c, 4, 66, 0
1, 127445, Note_on_c, 15, 66, 0
1, 127445, Note_on_c, 15, 78, 0
1, 127445, Note_on_c, 9, 54, 0
1, 127445, Note_on_c, 15, 75, 0
1, 127447, Note_on_c, 4, 66, 105
1, 127447, Note_on_c, 4, 78, 108
1, 127447, Note_on_c, 4, 71, 70
1, 127447, Note_on_c, 4, 75, 76
1, 127447, Note_on_c, 7, 71, 82
1, 127447, Note_on_c, 7, 68, 74
1, 127447, Note_on_c, 7, 64, 99
1, 127447, Note_on_c, 9, 54, 59
1, 127447, Note_on_c, 9, 51, 68
1, 127447, Note_on_c, 11, 59, 68
1, 127447, Note_on_c, 15, 66, 1
1, 127447, Note_on_c, 15, 71, 1
1, 127447, Note_on_c, 15, 75, 1
1, 127447, Note_on_c, 15, 78, 1
1, 127458, Control_c, 7, 64, 0
1, 127477, Note_on_c, 7, 76, 0
1, 127516, Note_on_c, 11, 59, 0
1, 127565, Note_on_c, 9, 51, 0
1, 127565, Note_on_c, 9, 54, 0
1, 127567, Note_on_c, 9, 54, 54
1, 127567, Note_on_c, 11, 59, 43
1, 127609, Note_on_c, 13, 47, 0
1, 127616, Note_on_c, 7, 52, 0
1, 127621, Note_on_c, 11, 64, 0
1, 127626, Note_on_c, 7, 40, 0
1, 127631, Note_on_c, 11, 68, 0
1, 127636, Note_on_c, 11, 59, 0
1, 127648, Note_on_c, 7, 71, 0
1, 127654, Note_on_c, 7, 68, 0
1, 127658, Note_on_c, 7, 64, 0
1, 127663, Note_on_c, 8, 66, 0
1, 127678, Note_on_c, 6, 63, 50
1, 127685, Note_on_c, 5, 68, 0
1, 127685, Note_on_c, 5, 64, 0
1, 127685, Note_on_c, 1, 28, 0
1, 127685, Note_on_c, 9, 54, 0
1, 127685, Note_on_c, 5, 59, 0
1, 127686, Note_on_c, 10, 80, 0
1, 127686, Note_on_c, 6, 51, 55
1, 127687, Note_on_c, 0, 59, 48
1, 127687, Note_on_c, 0, 63, 62
1, 127687, Note_on_c, 1, 35, 96
1, 127687, Note_on_c, 5, 66, 87
1, 127687, Note_on_c, 5, 59, 102
1, 127687, Note_on_c, 5, 63, 90
1, 127687, Note_on_c, 6, 87, 68
1, 127687, Note_on_c, 6, 75, 64
1, 127687, Note_on_c, 6, 66, 78
1, 127687, Note_on_c, 7, 59, 78
1, 127687, Note_on_c, 7, 66, 82
1, 127687, Note_on_c, 7, 63, 87
1, 127687, Note_on_c, 7, 47, 102
1, 127687, Note_on_c, 8, 63, 80
1, 127687, Note_on_c, 9, 54, 76
1, 127687, Note_on_c, 9, 36, 101
1, 127687, Note_on_c, 9, 49, 81
1, 127687, Note_on_c, 10, 78, 78
1, 127687, Note_on_c, 10, 75, 76
1, 127687, Note_on_c, 11, 59, 105
1, 127687, Note_on_c, 11, 63, 99
1, 127687, Note_on_c, 11, 66, 96
1, 127687, Note_on_c, 13, 47, 87
1, 127687, Note_on_c, 13, 54, 93
1, 127692, Note_on_c, 10, 76, 0
1, 127700, Control_c, 7, 64, 127
1, 127710, Note_on_c, 13, 52, 0
1, 127718, Note_on_c, 6, 88, 0
1, 127724, Note_on_c, 6, 76, 0
1, 127728, Note_on_c, 7, 59, 0
1, 127734, Note_on_c, 0, 64, 0
1, 127736, Note_on_c, 7, 63, 0
1, 127739, Note_on_c, 6, 64, 0
1, 127739, Note_on_c, 6, 68, 0
1, 127742, Note_on_c, 6, 52, 0
1, 127742, Note_on_c, 7, 66, 0
1, 127805, Note_on_c, 9, 49, 0
1, 127805, Note_on_c, 9, 36, 0
1, 127805, Note_on_c, 9, 54, 0
1, 127807, Note_on_c, 9, 54, 56
1, 127902, Note_on_c, 11, 59, 0
1, 127913, Note_on_c, 11, 63, 0
1, 127925, Note_on_c, 9, 54, 0
1, 127927, Note_on_c, 7, 66, 108
1, 127927, Note_on_c, 7, 78, 105
1, 127927, Note_on_c, 9, 54, 59
1, 127927, Note_on_c, 9, 51, 68
1, 127927, Note_on_c, 11, 63, 61
1, 127927, Note_on_c, 11, 59, 54
1, 127976, Note_on_c, 11, 59, 0
1, 127994, Note_on_c, 11, 63, 0
1, 128031, Note_on_c, 11, 66, 0
1, 128045, Note_on_c, 9, 51, 0
1, 128045, Note_on_c, 9, 54, 0
1, 128047, Note_on_c, 9, 54, 54
1, 128047, Note_on_c, 11, 63, 57
1, 128047, Note_on_c, 11, 59, 52
1, 128047, Note_on_c, 11, 66, 55
1, 128103, Note_on_c, 11, 59, 0
1, 128114, Note_on_c, 7, 78, 0
1, 128119, Note_on_c, 11, 66, 0
1, 128119, Note_on_c, 11, 63, 0
1, 128130, Note_on_c, 7, 66, 0
1, 128165, Note_on_c, 9, 54, 0
1, 128167, Note_on_c, 7, 59, 76
1, 128167, Note_on_c, 9, 54, 76
1, 128167, Note_on_c, 9, 51, 75
1, 128167, Note_on_c, 9, 38, 101
1, 128167, Note_on_c, 11, 63, 96
1, 128167, Note_on_c, 11, 59, 108
1, 128167, Note_on_c, 11, 66, 96
1, 128214, Note_on_c, 7, 59, 0
1, 128285, Note_on_c, 9, 38, 0
1, 128285, Note_on_c, 9, 51, 0
1, 128285, Note_on_c, 9, 54, 0
1, 128287, Note_on_c, 3, 83, 114
1, 128287, Note_on_c, 9, 54, 56
1, 128287, Lyric_t, "Oh "
1, 128366, Note_on_c, 11, 63, 0
1, 128366, Note_on_c, 11, 59, 0
1, 128405, Note_on_c, 9, 54, 0
1, 128407, Note_on_c, 7, 71, 96
1, 128407, Note_on_c, 7, 59, 87
1, 128407, Note_on_c, 9, 54, 59
1, 128407, Note_on_c, 9, 51, 68
1, 128407, Note_on_c, 11, 59, 57
1, 128407, Note_on_c, 11, 63, 46
1, 128459, Note_on_c, 11, 59, 0
1, 128460, Note_on_c, 7, 59, 0
1, 128469, Note_on_c, 7, 71, 0
1, 128503, Lyric_t, "oh "
1, 128503, Lyric_t, "\015"
1, 128504, Note_on_c, 3, 83, 0
1, 128506, Note_on_c, 3, 81, 87
1, 128525, Note_on_c, 9, 54, 0
1, 128525, Note_on_c, 1, 35, 0
1, 128525, Note_on_c, 9, 51, 0
1, 128527, Note_on_c, 1, 30, 55
1, 128527, Note_on_c, 9, 54, 54
1, 128527, Note_on_c, 9, 36, 101
1, 128556, Note_on_c, 6, 51, 0
1, 128578, Note_on_c, 3, 80, 96
1, 128584, Note_on_c, 10, 75, 0
1, 128588, Note_on_c, 3, 81, 0
1, 128594, Note_on_c, 11, 63, 0
1, 128604, Note_on_c, 6, 63, 0
1, 128616, Note_on_c, 11, 66, 0
1, 128616, Note_on_c, 6, 66, 0
1, 128641, Note_on_c, 6, 87, 0
1, 128644, Note_on_c, 9, 54, 25
1, 128645, Note_on_c, 5, 63, 0
1, 128645, Note_on_c, 9, 54, 0
1, 128645, Note_on_c, 3, 80, 0
1, 128645, Note_on_c, 1, 30, 0
1, 128645, Note_on_c, 9, 36, 0
1, 128647, Note_on_c, 1, 35, 84
1, 128647, Note_on_c, 5, 64, 64
1, 128647, Note_on_c, 6, 83, 68
1, 128647, Note_on_c, 6, 52, 80
1, 128647, Note_on_c, 6, 64, 76
1, 128647, Note_on_c, 7, 71, 108
1, 128647, Note_on_c, 7, 64, 108
1, 128647, Note_on_c, 7, 54, 76
1, 128647, Note_on_c, 8, 61, 70
1, 128647, Note_on_c, 9, 36, 101
1, 128647, Note_on_c, 9, 51, 75
1, 128647, Note_on_c, 10, 76, 74
1, 128647, Note_on_c, 10, 73, 61
1, 128647, Note_on_c, 11, 59, 105
1, 128647, Note_on_c, 11, 66, 93
1, 128647, Note_on_c, 11, 64, 96
1, 128654, Note_on_c, 0, 63, 0
1, 128655, Note_on_c, 8, 63, 0
1, 128663, Note_on_c, 0, 64, 43
1, 128670, Note_on_c, 3, 80, 105
1, 128672, Note_on_c, 9, 54, 0
1, 128672, Control_c, 4, 11, 127
1, 128672, Control_c, 15, 11, 127
1, 128676, Note_on_c, 9, 54, 28
1, 128682, Note_on_c, 10, 78, 0
1, 128704, Note_on_c, 9, 54, 0
1, 128704, Note_on_c, 9, 54, 31
1, 128723, Control_c, 4, 11, 126
1, 128723, Control_c, 15, 11, 126
1, 128732, Note_on_c, 9, 54, 0
1, 128736, Note_on_c, 9, 54, 34
1, 128760, Control_c, 4, 11, 125
1, 128760, Control_c, 15, 11, 125
1, 128764, Note_on_c, 9, 54, 0
1, 128764, Note_on_c, 9, 54, 37
1, 128765, Note_on_c, 1, 35, 0
1, 128765, Note_on_c, 9, 51, 0
1, 128765, Note_on_c, 9, 36, 0
1, 128792, Note_on_c, 9, 54, 0
1, 128794, Note_on_c, 3, 78, 108
1, 128796, Note_on_c, 9, 54, 41
1, 128803, Note_on_c, 7, 64, 0
1, 128807, Note_on_c, 3, 80, 0
1, 128811, Control_c, 4, 11, 124
1, 128811, Control_c, 15, 11, 124
1, 128824, Note_on_c, 9, 54, 0
1, 128824, Note_on_c, 9, 54, 44
1, 128827, Note_on_c, 11, 59, 0
1, 128849, Control_c, 4, 11, 123
1, 128849, Control_c, 15, 11, 123
1, 128852, Note_on_c, 9, 54, 0
1, 128856, Note_on_c, 9, 54, 47
1, 128858, Control_c, 7, 64, 0
1, 128874, Note_on_c, 9, 54, 49
1, 128884, Note_on_c, 9, 54, 0
1, 128887, Note_on_c, 1, 35, 108
1, 128887, Note_on_c, 7, 63, 99
1, 128887, Note_on_c, 9, 38, 121
1, 128887, Note_on_c, 9, 51, 68
1, 128887, Note_on_c, 9, 55, 121
1, 128887, Note_on_c, 11, 59, 55
1, 128899, Control_c, 4, 11, 122
1, 128899, Control_c, 15, 11, 122
1, 128902, Note_on_c, 9, 54, 0
1, 128906, Note_on_c, 9, 54, 52
1, 128934, Note_on_c, 9, 54, 0
1, 128934, Note_on_c, 9, 54, 55
1, 128937, Control_c, 4, 11, 121
1, 128937, Control_c, 15, 11, 121
1, 128942, Note_on_c, 11, 64, 0
1, 128952, Note_on_c, 11, 59, 0
1, 128952, Note_on_c, 11, 66, 0
1, 128962, Note_on_c, 9, 54, 0
1, 128966, Note_on_c, 9, 54, 59
1, 128988, Control_c, 4, 11, 120
1, 128988, Control_c, 15, 11, 120
1, 128994, Note_on_c, 9, 54, 0
1, 128994, Note_on_c, 9, 54, 62
1, 129005, Note_on_c, 9, 51, 0
1, 129005, Note_on_c, 9, 38, 0
1, 129005, Note_on_c, 9, 55, 0
1, 129007, Note_on_c, 11, 59, 55
1, 129007, Note_on_c, 11, 66, 45
1, 129007, Note_on_c, 11, 64, 55
1, 129022, Note_on_c, 9, 54, 0
1, 129026, Control_c, 4, 11, 119
1, 129026, Note_on_c, 9, 54, 65
1, 129026, Control_c, 15, 11, 119
1, 129054, Note_on_c, 9, 54, 0
1, 129054, Note_on_c, 9, 54, 68
1, 129076, Control_c, 4, 11, 118
1, 129076, Control_c, 15, 11, 118
1, 129082, Note_on_c, 9, 54, 0
1, 129086, Note_on_c, 9, 54, 71
1, 129089, Note_on_c, 6, 52, 0
1, 129090, Note_on_c, 11, 66, 0
1, 129094, Note_on_c, 11, 59, 0
1, 129094, Note_on_c, 6, 63, 76
1, 129098, Note_on_c, 11, 64, 0
1, 129098, Note_on_c, 6, 54, 82
1, 129114, Note_on_c, 9, 54, 0
1, 129114, Control_c, 4, 11, 117
1, 129114, Control_c, 15, 11, 117
1, 129115, Note_on_c, 0, 64, 0
1, 129123, Note_on_c, 6, 64, 0
1, 129125, Note_on_c, 5, 64, 0
1, 129127, Note_on_c, 5, 63, 68
1, 129127, Note_on_c, 8, 59, 74
1, 129127, Note_on_c, 9, 54, 76
1, 129127, Note_on_c, 9, 51, 75
1, 129127, Note_on_c, 10, 78, 66
1, 129127, Note_on_c, 11, 59, 111
1, 129127, Note_on_c, 11, 66, 96
1, 129127, Note_on_c, 11, 63, 99
1, 129135, Note_on_c, 8, 61, 0
1, 129137, Note_on_c, 0, 63, 52
1, 129157, Note_on_c, 10, 76, 0
1, 129165, Control_c, 4, 11, 116
1, 129165, Control_c, 15, 11, 116
1, 129183, Note_on_c, 3, 78, 0
1, 129203, Control_c, 4, 11, 115
1, 129203, Control_c, 15, 11, 115
1, 129245, Note_on_c, 9, 51, 0
1, 129245, Note_on_c, 9, 54, 0
1, 129247, Note_on_c, 3, 76, 105
1, 129247, Note_on_c, 9, 54, 56
1, 129247, Lyric_t, "so "
1, 129253, Control_c, 4, 11, 114
1, 129253, Control_c, 15, 11, 114
1, 129291, Control_c, 4, 11, 113
1, 129291, Control_c, 15, 11, 113
1, 129318, Note_on_c, 11, 63, 0
1, 129333, Note_on_c, 3, 76, 0
1, 129338, Note_on_c, 11, 59, 0
1, 129342, Control_c, 4, 11, 112
1, 129342, Control_c, 15, 11, 112
1, 129365, Note_on_c, 9, 54, 0
1, 129367, Note_on_c, 3, 76, 108
1, 129367, Note_on_c, 7, 59, 66
1, 129367, Note_on_c, 9, 54, 59
1, 129367, Note_on_c, 9, 51, 68
1, 129367, Note_on_c, 11, 59, 40
1, 129367, Note_on_c, 11, 63, 55
1, 129367, Lyric_t, "come "
1, 129379, Control_c, 4, 11, 111
1, 129379, Control_c, 15, 11, 111
1, 129412, Note_on_c, 7, 63, 0
1, 129423, Note_on_c, 11, 59, 0
1, 129430, Control_c, 4, 11, 110
1, 129430, Control_c, 15, 11, 110
1, 129468, Control_c, 4, 11, 109
1, 129468, Control_c, 15, 11, 109
1, 129485, Note_on_c, 9, 51, 0
1, 129485, Note_on_c, 1, 35, 0
1, 129485, Note_on_c, 9, 54, 0
1, 129487, Note_on_c, 1, 35, 68
1, 129487, Note_on_c, 3, 78, 114
1, 129487, Note_on_c, 9, 54, 54
1, 129487, Note_on_c, 11, 59, 58
1, 129487, Lyric_t, "and "
1, 129493, Note_on_c, 6, 75, 0
1, 129503, Note_on_c, 3, 76, 0
1, 129518, Control_c, 4, 11, 108
1, 129518, Control_c, 15, 11, 108
1, 129525, Note_on_c, 7, 54, 0
1, 129538, Note_on_c, 6, 54, 0
1, 129555, Note_on_c, 4, 75, 0
1, 129556, Control_c, 4, 11, 107
1, 129556, Control_c, 15, 11, 107
1, 129565, Note_on_c, 7, 71, 0
1, 129568, Note_on_c, 7, 47, 0
1, 129575, Note_on_c, 15, 66, 0
1, 129575, Note_on_c, 4, 66, 0
1, 129578, Note_on_c, 0, 59, 0
1, 129579, Note_on_c, 11, 59, 0
1, 129579, Note_on_c, 15, 71, 0
1, 129579, Note_on_c, 4, 71, 0
1, 129587, Note_on_c, 11, 66, 0
1, 129588, Note_on_c, 7, 59, 0
1, 129589, Note_on_c, 6, 63, 0
1, 129592, Note_on_c, 8, 59, 0
1, 129599, Note_on_c, 11, 63, 0
1, 129601, Note_on_c, 6, 83, 0
1, 129603, Note_on_c, 15, 75, 0
1, 129603, Note_on_c, 15, 78, 0
1, 129603, Note_on_c, 4, 78, 0
1, 129605, Note_on_c, 9, 54, 0
1, 129605, Note_on_c, 1, 35, 0
1, 129605, Note_on_c, 5, 63, 0
1, 129605, Note_on_c, 5, 59, 0
1, 129605, Note_on_c, 5, 66, 0
1, 129607, Note_on_c, 0, 66, 45
1, 129607, Note_on_c, 0, 50, 41
1, 129607, Note_on_c, 1, 38, 111
1, 129607, Note_on_c, 3, 80, 117
1, 129607, Note_on_c, 5, 66, 72
1, 129607, Note_on_c, 5, 57, 58
1, 129607, Note_on_c, 5, 50, 76
1, 129607, Note_on_c, 6, 62, 50
1, 129607, Note_on_c, 6, 50, 70
1, 129607, Note_on_c, 7, 66, 82
1, 129607, Note_on_c, 7, 50, 78
1, 129607, Note_on_c, 7, 57, 68
1, 129607, Note_on_c, 7, 38, 90
1, 129607, Note_on_c, 7, 62, 80
1, 129607, Note_on_c, 8, 50, 68
1, 129607, Note_on_c, 9, 54, 56
1, 129607, Note_on_c, 9, 49, 81
1, 129607, Note_on_c, 9, 36, 101
1, 129607, Note_on_c, 10, 74, 74
1, 129607, Note_on_c, 11, 64, 84
1, 129607, Note_on_c, 11, 57, 74
1, 129607, Note_on_c, 11, 54, 80
1, 129607, Note_on_c, 13, 57, 66
1, 129607, Note_on_c, 13, 50, 74
1, 129607, Lyric_t, "free "
1, 129611, Note_on_c, 10, 73, 0
1, 129611, Note_on_c, 3, 78, 0
1, 129612, Note_on_c, 0, 63, 0
1, 129619, Control_c, 5, 11, 123
1, 129622, Note_on_c, 13, 47, 0
1, 129626, Note_on_c, 13, 54, 0
1, 129635, Control_c, 5, 11, 122
1, 129643, Control_c, 5, 11, 121
1, 129645, Control_c, 4, 11, 127
1, 129645, Control_c, 15, 11, 127
1, 129649, Note_on_c, 10, 78, 0
1, 129659, Control_c, 5, 11, 120
1, 129667, Control_c, 5, 11, 119
1, 129683, Control_c, 5, 11, 118
1, 129691, Control_c, 5, 11, 117
1, 129707, Control_c, 5, 11, 116
1, 129715, Control_c, 5, 11, 115
1, 129723, Control_c, 5, 11, 114
1, 129725, Note_on_c, 9, 49, 0
1, 129725, Note_on_c, 9, 54, 0
1, 129725, Note_on_c, 9, 36, 0
1, 129727, Note_on_c, 9, 54, 59
1, 129739, Control_c, 5, 11, 113
1, 129747, Control_c, 5, 11, 112
1, 129763, Control_c, 5, 11, 111
1, 129763, Control_c, 8, 11, 125
1, 129771, Control_c, 5, 11, 110
1, 129783, Control_c, 8, 11, 124
1, 129787, Control_c, 5, 11, 109
1, 129795, Control_c, 5, 11, 108
1, 129803, Control_c, 8, 11, 123
1, 129811, Control_c, 5, 11, 107
1, 129819, Control_c, 5, 11, 106
1, 129819, Control_c, 8, 11, 122
1, 129827, Control_c, 5, 11, 105
1, 129839, Control_c, 8, 11, 121
1, 129843, Control_c, 5, 11, 104
1, 129845, Note_on_c, 9, 54, 0
1, 129847, Note_on_c, 3, 78, 114
1, 129847, Note_on_c, 9, 54, 44
1, 129847, Control_c, 10, 11, 126
1, 129847, Lyric_t, "me "
1, 129847, Lyric_t, "\015"
1, 129851, Control_c, 5, 11, 103
1, 129855, Control_c, 8, 11, 120
1, 129857, Note_on_c, 3, 80, 0
1, 129862, Control_c, 10, 11, 125
1, 129867, Control_c, 5, 11, 102
1, 129875, Control_c, 5, 11, 101
1, 129875, Control_c, 6, 11, 126
1, 129875, Control_c, 8, 11, 119
1, 129877, Control_c, 10, 11, 124
1, 129890, Control_c, 8, 11, 118
1, 129891, Control_c, 5, 11, 100
1, 129891, Control_c, 6, 11, 125
1, 129893, Control_c, 10, 11, 123
1, 129899, Control_c, 5, 11, 99
1, 129899, Control_c, 6, 11, 124
1, 129907, Control_c, 6, 11, 123
1, 129908, Control_c, 10, 11, 122
1, 129911, Control_c, 8, 11, 117
1, 129915, Control_c, 5, 11, 98
1, 129918, Control_c, 10, 11, 121
1, 129923, Control_c, 5, 11, 97
1, 129923, Control_c, 6, 11, 122
1, 129926, Control_c, 8, 11, 116
1, 129931, Control_c, 5, 11, 96
1, 129931, Control_c, 6, 11, 121
1, 129933, Control_c, 10, 11, 120
1, 129939, Control_c, 6, 11, 120
1, 129946, Control_c, 8, 11, 115
1, 129947, Control_c, 5, 11, 95
1, 129949, Control_c, 10, 11, 119
1, 129955, Control_c, 5, 11, 94
1, 129955, Control_c, 6, 11, 119
1, 129962, Control_c, 8, 11, 114
1, 129963, Control_c, 6, 11, 118
1, 129964, Control_c, 10, 11, 118
1, 129965, Note_on_c, 9, 54, 0
1, 129971, Control_c, 0, 11, 127
1, 129971, Control_c, 5, 11, 93
1, 129971, Control_c, 6, 11, 117
1, 129979, Control_c, 5, 11, 92
1, 129979, Control_c, 10, 11, 117
1, 129982, Control_c, 8, 11, 113
1, 129987, Control_c, 0, 11, 126
1, 129987, Control_c, 6, 11, 116
1, 129990, Control_c, 10, 11, 116
1, 129995, Control_c, 0, 11, 125
1, 129995, Control_c, 5, 11, 91
1, 129995, Control_c, 6, 11, 115
1, 129997, Control_c, 8, 11, 112
1, 130003, Control_c, 0, 11, 124
1, 130003, Control_c, 5, 11, 90
1, 130003, Control_c, 6, 11, 114
1, 130005, Control_c, 10, 11, 115
1, 130018, Control_c, 8, 11, 111
1, 130019, Control_c, 0, 11, 123
1, 130019, Control_c, 5, 11, 89
1, 130019, Control_c, 6, 11, 113
1, 130020, Control_c, 10, 11, 114
1, 130027, Control_c, 0, 11, 122
1, 130027, Control_c, 5, 11, 88
1, 130027, Control_c, 6, 11, 112
1, 130027, Control_c, 13, 11, 125
1, 130035, Control_c, 0, 11, 121
1, 130035, Control_c, 5, 11, 87
1, 130035, Control_c, 6, 11, 111
1, 130036, Control_c, 10, 11, 113
1, 130038, Control_c, 8, 11, 110
1, 130043, Control_c, 0, 11, 120
1, 130046, Control_c, 10, 11, 112
1, 130051, Control_c, 5, 11, 86
1, 130051, Control_c, 6, 11, 110
1, 130051, Control_c, 13, 11, 124
1, 130054, Control_c, 8, 11, 109
1, 130059, Control_c, 0, 11, 119
1, 130059, Control_c, 5, 11, 85
1, 130059, Control_c, 6, 11, 109
1, 130061, Control_c, 10, 11, 111
1, 130067, Control_c, 0, 11, 118
1, 130067, Control_c, 6, 11, 108
1, 130067, Control_c, 13, 11, 123
1, 130074, Control_c, 8, 11, 108
1, 130075, Control_c, 0, 11, 117
1, 130075, Control_c, 5, 11, 84
1, 130076, Control_c, 10, 11, 110
1, 130083, Control_c, 0, 11, 116
1, 130083, Control_c, 5, 11, 83
1, 130083, Control_c, 6, 11, 107
1, 130083, Control_c, 13, 11, 122
1, 130089, Control_c, 8, 11, 107
1, 130091, Control_c, 6, 11, 106
1, 130092, Control_c, 10, 11, 109
1, 130099, Control_c, 0, 11, 115
1, 130099, Control_c, 5, 11, 82
1, 130099, Control_c, 6, 11, 105
1, 130107, Control_c, 0, 11, 114
1, 130107, Control_c, 5, 11, 81
1, 130107, Control_c, 10, 11, 108
1, 130107, Control_c, 13, 11, 121
1, 130110, Control_c, 8, 11, 106
1, 130115, Control_c, 0, 11, 113
1, 130115, Control_c, 6, 11, 104
1, 130117, Control_c, 10, 11, 107
1, 130123, Control_c, 0, 11, 112
1, 130123, Control_c, 5, 11, 80
1, 130123, Control_c, 6, 11, 103
1, 130123, Control_c, 13, 11, 120
1, 130125, Control_c, 8, 11, 105
1, 130131, Control_c, 5, 11, 79
1, 130131, Control_c, 6, 11, 102
1, 130133, Control_c, 10, 11, 106
1, 130139, Control_c, 0, 11, 111
1, 130139, Control_c, 5, 11, 78
1, 130139, Control_c, 13, 11, 119
1, 130146, Control_c, 8, 11, 104
1, 130147, Control_c, 0, 11, 110
1, 130147, Control_c, 6, 11, 101
1, 130148, Control_c, 10, 11, 105
1, 130155, Control_c, 0, 11, 109
1, 130155, Control_c, 5, 11, 77
1, 130155, Control_c, 6, 11, 100
1, 130161, Control_c, 8, 11, 103
1, 130163, Control_c, 0, 11, 108
1, 130163, Control_c, 5, 11, 76
1, 130163, Control_c, 6, 11, 99
1, 130163, Control_c, 10, 11, 104
1, 130163, Control_c, 13, 11, 118
1, 130171, Control_c, 6, 11, 98
1, 130179, Control_c, 0, 11, 107
1, 130179, Control_c, 5, 11, 75
1, 130179, Control_c, 10, 11, 103
1, 130179, Control_c, 13, 11, 117
1, 130181, Control_c, 8, 11, 102
1, 130187, Control_c, 0, 11, 106
1, 130187, Control_c, 5, 11, 74
1, 130187, Control_c, 6, 11, 97
1, 130189, Control_c, 10, 11, 102
1, 130195, Control_c, 0, 11, 105
1, 130195, Control_c, 6, 11, 96
1, 130195, Control_c, 13, 11, 116
1, 130197, Control_c, 8, 11, 101
1, 130203, Control_c, 0, 11, 104
1, 130203, Control_c, 5, 11, 73
1, 130203, Control_c, 6, 11, 95
1, 130204, Control_c, 10, 11, 101
1, 130211, Control_c, 5, 11, 72
1, 130217, Control_c, 8, 11, 100
1, 130219, Control_c, 0, 11, 103
1, 130219, Control_c, 6, 11, 94
1, 130219, Control_c, 10, 11, 100
1, 130219, Control_c, 13, 11, 115
1, 130227, Control_c, 0, 11, 102
1, 130227, Control_c, 5, 11, 71
1, 130227, Control_c, 6, 11, 93
1, 130232, Control_c, 8, 11, 99
1, 130235, Control_c, 0, 11, 101
1, 130235, Control_c, 5, 11, 70
1, 130235, Control_c, 6, 11, 92
1, 130235, Control_c, 10, 11, 99
1, 130235, Control_c, 13, 11, 114
1, 130243, Control_c, 0, 11, 100
1, 130243, Control_c, 5, 11, 69
1, 130245, Control_c, 10, 11, 98
1, 130251, Control_c, 6, 11, 91
1, 130251, Control_c, 13, 11, 113
1, 130253, Control_c, 8, 11, 98
1, 130259, Control_c, 0, 11, 99
1, 130259, Control_c, 5, 11, 68
1, 130259, Control_c, 6, 11, 90
1, 130260, Control_c, 10, 11, 97
1, 130267, Control_c, 0, 11, 98
1, 130267, Control_c, 5, 11, 67
1, 130267, Control_c, 6, 11, 89
1, 130268, Control_c, 8, 11, 97
1, 130275, Control_c, 0, 11, 97
1, 130275, Control_c, 13, 11, 112
1, 130276, Control_c, 10, 11, 96
1, 130283, Control_c, 0, 11, 96
1, 130283, Control_c, 5, 11, 66
1, 130283, Control_c, 6, 11, 88
1, 130289, Control_c, 8, 11, 96
1, 130291, Control_c, 5, 11, 65
1, 130291, Control_c, 6, 11, 87
1, 130291, Control_c, 10, 11, 95
1, 130291, Control_c, 13, 11, 111
1, 130299, Control_c, 0, 11, 95
1, 130299, Control_c, 6, 11, 86
1, 130306, Control_c, 10, 11, 94
1, 130307, Control_c, 0, 11, 94
1, 130307, Control_c, 5, 11, 64
1, 130307, Control_c, 13, 11, 110
1, 130309, Control_c, 8, 11, 95
1, 130315, Control_c, 0, 11, 93
1, 130315, Control_c, 5, 11, 63
1, 130315, Control_c, 6, 11, 85
1, 130316, Control_c, 10, 11, 93
1, 130323, Control_c, 0, 11, 92
1, 130323, Control_c, 6, 11, 84
1, 130324, Control_c, 8, 11, 94
1, 130331, Control_c, 5, 11, 62
1, 130331, Control_c, 6, 11, 83
1, 130331, Control_c, 13, 11, 109
1, 130332, Control_c, 10, 11, 92
1, 130339, Control_c, 0, 11, 91
1, 130339, Control_c, 5, 11, 61
1, 130345, Control_c, 8, 11, 93
1, 130347, Control_c, 0, 11, 90
1, 130347, Control_c, 5, 11, 60
1, 130347, Control_c, 6, 11, 82
1, 130347, Control_c, 10, 11, 91
1, 130347, Control_c, 13, 11, 108
1, 130352, Note_on_c, 11, 64, 0
1, 130355, Control_c, 0, 11, 89
1, 130355, Control_c, 6, 11, 81
1, 130357, Note_on_c, 11, 54, 0
1, 130360, Note_on_c, 11, 57, 0
1, 130360, Control_c, 8, 11, 92
1, 130362, Control_c, 10, 11, 90
1, 130363, Control_c, 0, 11, 88
1, 130363, Control_c, 5, 11, 59
1, 130363, Control_c, 6, 11, 80
1, 130363, Control_c, 13, 11, 107
1, 130371, Control_c, 5, 11, 58
1, 130378, Control_c, 10, 11, 89
1, 130379, Control_c, 0, 11, 87
1, 130379, Control_c, 6, 11, 79
1, 130380, Control_c, 8, 11, 91
1, 130387, Control_c, 0, 11, 86
1, 130387, Control_c, 5, 11, 57
1, 130387, Control_c, 6, 11, 78
1, 130387, Control_c, 13, 11, 106
1, 130388, Control_c, 10, 11, 88
1, 130395, Control_c, 0, 11, 85
1, 130395, Control_c, 5, 11, 56
1, 130395, Control_c, 6, 11, 77
1, 130396, Control_c, 8, 11, 90
1, 130403, Control_c, 0, 11, 84
1, 130403, Control_c, 10, 11, 87
1, 130403, Control_c, 13, 11, 105
1, 130411, Control_c, 5, 11, 55
1, 130411, Control_c, 6, 11, 76
1, 130416, Control_c, 8, 11, 89
1, 130419, Control_c, 0, 11, 83
1, 130419, Control_c, 5, 11, 54
1, 130419, Control_c, 6, 11, 75
1, 130419, Control_c, 10, 11, 86
1, 130419, Control_c, 13, 11, 104
1, 130427, Control_c, 0, 11, 82
1, 130427, Control_c, 6, 11, 74
1, 130432, Control_c, 8, 11, 88
1, 130434, Control_c, 10, 11, 85
1, 130435, Control_c, 0, 11, 81
1, 130435, Control_c, 5, 11, 53
1, 130443, Control_c, 0, 11, 80
1, 130443, Control_c, 5, 11, 52
1, 130443, Control_c, 6, 11, 73
1, 130443, Control_c, 13, 11, 103
1, 130444, Control_c, 10, 11, 84
1, 130447, Note_on_c, 9, 51, 58
1, 130447, Note_on_c, 11, 57, 49
1, 130447, Note_on_c, 11, 64, 50
1, 130447, Note_on_c, 11, 54, 55
1, 130451, Control_c, 5, 11, 51
1, 130451, Control_c, 6, 11, 72
1, 130452, Control_c, 8, 11, 87
1, 130459, Control_c, 0, 11, 79
1, 130459, Control_c, 6, 11, 71
1, 130459, Control_c, 10, 11, 83
1, 130459, Control_c, 13, 11, 102
1, 130467, Control_c, 0, 11, 78
1, 130467, Control_c, 5, 11, 50
1, 130467, Control_c, 6, 11, 70
1, 130467, Control_c, 8, 11, 86
1, 130475, Control_c, 0, 11, 77
1, 130475, Control_c, 5, 11, 49
1, 130475, Control_c, 10, 11, 82
1, 130475, Control_c, 13, 11, 101
1, 130483, Control_c, 0, 11, 76
1, 130483, Control_c, 6, 11, 69
1, 130488, Control_c, 8, 11, 85
1, 130490, Control_c, 10, 11, 81
1, 130491, Control_c, 5, 11, 48
1, 130491, Control_c, 6, 11, 68
1, 130499, Control_c, 0, 11, 75
1, 130499, Control_c, 5, 11, 47
1, 130499, Control_c, 6, 11, 67
1, 130499, Control_c, 13, 11, 100
1, 130503, Control_c, 8, 11, 84
1, 130505, Control_c, 10, 11, 80
1, 130507, Control_c, 0, 11, 74
1, 130512, Note_on_c, 11, 54, 0
1, 130515, Control_c, 0, 11, 73
1, 130515, Control_c, 6, 11, 66
1, 130515, Control_c, 13, 11, 99
1, 130516, Control_c, 10, 11, 79
1, 130523, Control_c, 0, 11, 72
1, 130523, Control_c, 6, 11, 65
1, 130523, Control_c, 8, 11, 83
1, 130525, Control_c, 5, 11, 49
1, 130528, Note_on_c, 11, 64, 0
1, 130531, Control_c, 6, 11, 64
1, 130531, Control_c, 10, 11, 78
1, 130531, Control_c, 13, 11, 98
1, 130533, Note_on_c, 11, 57, 0
1, 130539, Control_c, 0, 11, 71
1, 130539, Control_c, 8, 11, 82
1, 130546, Control_c, 10, 11, 77
1, 130547, Control_c, 0, 11, 70
1, 130547, Control_c, 6, 11, 63
1, 130551, Control_c, 5, 11, 50
1, 130555, Control_c, 0, 11, 69
1, 130555, Control_c, 6, 11, 62
1, 130555, Control_c, 13, 11, 97
1, 130559, Control_c, 8, 11, 81
1, 130562, Control_c, 10, 11, 76
1, 130563, Control_c, 0, 11, 68
1, 130563, Control_c, 6, 11, 61
1, 130565, Note_on_c, 9, 51, 0
1, 130567, Note_on_c, 9, 51, 75
1, 130567, Note_on_c, 11, 64, 76
1, 130567, Note_on_c, 11, 57, 58
1, 130567, Note_on_c, 11, 54, 66
1, 130571, Control_c, 13, 11, 96
1, 130576, Control_c, 5, 11, 51
1, 130577, Control_c, 10, 11, 75
1, 130579, Control_c, 6, 11, 60
1, 130580, Control_c, 8, 11, 80
1, 130587, Control_c, 6, 11, 59
1, 130587, Control_c, 10, 11, 74
1, 130587, Control_c, 13, 11, 95
1, 130595, Control_c, 6, 11, 58
1, 130595, Control_c, 8, 11, 79
1, 130598, Control_c, 7, 64, 127
1, 130602, Control_c, 5, 11, 52
1, 130602, Control_c, 10, 11, 73
1, 130611, Control_c, 6, 11, 57
1, 130611, Control_c, 13, 11, 94
1, 130615, Control_c, 8, 11, 78
1, 130618, Control_c, 10, 11, 72
1, 130619, Control_c, 6, 11, 56
1, 130627, Control_c, 5, 11, 53
1, 130627, Control_c, 6, 11, 55
1, 130627, Control_c, 13, 11, 93
1, 130631, Control_c, 8, 11, 77
1, 130633, Control_c, 10, 11, 71
1, 130643, Control_c, 6, 11, 54
1, 130643, Control_c, 10, 11, 70
1, 130643, Control_c, 13, 11, 92
1, 130651, Control_c, 6, 11, 53
1, 130651, Control_c, 8, 11, 76
1, 130653, Control_c, 5, 11, 54
1, 130659, Control_c, 6, 11, 52
1, 130659, Control_c, 10, 11, 69
1, 130666, Control_c, 8, 11, 75
1, 130667, Control_c, 13, 11, 91
1, 130674, Control_c, 10, 11, 68
1, 130675, Control_c, 6, 11, 51
1, 130679, Control_c, 5, 11, 55
1, 130683, Control_c, 6, 11, 50
1, 130683, Control_c, 13, 11, 90
1, 130685, Note_on_c, 9, 51, 0
1, 130687, Control_c, 8, 11, 74
1, 130689, Control_c, 10, 11, 67
1, 130691, Control_c, 6, 11, 49
1, 130699, Control_c, 13, 11, 89
1, 130702, Control_c, 8, 11, 73
1, 130704, Control_c, 5, 11, 56
1, 130705, Control_c, 10, 11, 66
1, 130707, Control_c, 6, 11, 48
1, 130715, Control_c, 6, 11, 47
1, 130715, Control_c, 10, 11, 65
1, 130723, Control_c, 6, 11, 46
1, 130723, Control_c, 8, 11, 72
1, 130723, Control_c, 13, 11, 88
1, 130730, Control_c, 5, 11, 57
1, 130730, Control_c, 10, 11, 64
1, 130734, Note_on_c, 6, 50, 0
1, 130738, Control_c, 8, 11, 71
1, 130739, Control_c, 6, 11, 45
1, 130739, Control_c, 13, 11, 87
1, 130745, Control_c, 10, 11, 63
1, 130747, Control_c, 6, 11, 44
1, 130751, Note_on_c, 7, 62, 0
1, 130754, Note_on_c, 3, 78, 0
1, 130755, Control_c, 5, 11, 58
1, 130755, Control_c, 6, 11, 43
1, 130755, Control_c, 13, 11, 86
1, 130758, Note_on_c, 7, 66, 0
1, 130758, Control_c, 8, 11, 70
1, 130761, Control_c, 10, 11, 62
1, 130763, Control_c, 6, 11, 42
1, 130774, Control_c, 8, 11, 69
1, 130776, Control_c, 10, 11, 61
1, 130778, Note_on_c, 7, 57, 0
1, 130779, Control_c, 6, 11, 41
1, 130779, Control_c, 13, 11, 85
1, 130781, Control_c, 5, 11, 59
1, 130786, Control_c, 10, 11, 60
1, 130787, Control_c, 6, 11, 40
1, 130794, Control_c, 8, 11, 68
1, 130795, Note_on_c, 6, 62, 0
1, 130795, Control_c, 6, 11, 39
1, 130795, Control_c, 13, 11, 84
1, 130802, Control_c, 10, 11, 59
1, 130807, Control_c, 5, 11, 60
1, 130809, Control_c, 8, 11, 67
1, 130811, Control_c, 6, 11, 38
1, 130811, Control_c, 13, 11, 83
1, 130817, Control_c, 10, 11, 58
1, 130819, Control_c, 6, 11, 37
1, 130827, Control_c, 6, 11, 36
1, 130830, Control_c, 8, 11, 66
1, 130832, Control_c, 5, 11, 61
1, 130832, Control_c, 10, 11, 57
1, 130835, Control_c, 13, 11, 82
1, 130837, Note_on_c, 7, 50, 0
1, 130842, Control_c, 10, 11, 56
1, 130843, Control_c, 6, 11, 35
1, 130850, Control_c, 8, 11, 65
1, 130851, Control_c, 6, 11, 34
1, 130851, Control_c, 13, 11, 81
1, 130858, Control_c, 5, 11, 62
1, 130858, Control_c, 10, 11, 55
1, 130859, Control_c, 6, 11, 33
1, 130866, Control_c, 8, 11, 64
1, 130867, Control_c, 13, 11, 80
1, 130873, Control_c, 10, 11, 54
1, 130875, Control_c, 6, 11, 32
1, 130883, Control_c, 5, 11, 63
1, 130883, Control_c, 6, 11, 31
1, 130886, Control_c, 8, 11, 63
1, 130888, Control_c, 10, 11, 53
1, 130891, Control_c, 6, 11, 30
1, 130891, Control_c, 13, 11, 79
1, 130901, Control_c, 8, 11, 62
1, 130904, Control_c, 10, 11, 52
1, 130907, Control_c, 6, 11, 29
1, 130907, Control_c, 13, 11, 78
1, 130909, Control_c, 5, 11, 64
1, 130914, Control_c, 10, 11, 51
1, 130915, Control_c, 6, 11, 28
1, 130922, Control_c, 8, 11, 61
1, 130923, Control_c, 6, 11, 27
1, 130923, Control_c, 13, 11, 77
1, 130929, Control_c, 10, 11, 50
1, 130935, Control_c, 5, 11, 65
1, 130937, Control_c, 8, 11, 60
1, 130939, Control_c, 6, 11, 26
1, 130945, Control_c, 10, 11, 49
1, 130947, Control_c, 6, 11, 25
1, 130947, Control_c, 13, 11, 76
1, 130955, Control_c, 6, 11, 24
1, 130957, Control_c, 8, 11, 59
1, 130960, Control_c, 5, 11, 66
1, 130960, Control_c, 10, 11, 48
1, 130963, Control_c, 13, 11, 75
1, 130971, Control_c, 6, 11, 23
1, 130973, Control_c, 8, 11, 58
1, 130975, Control_c, 10, 11, 47
1, 130979, Control_c, 6, 11, 22
1, 130979, Control_c, 13, 11, 74
1, 130985, Control_c, 10, 11, 46
1, 130986, Control_c, 5, 11, 67
1, 130987, Control_c, 6, 11, 21
1, 130993, Control_c, 8, 11, 57
1, 131001, Control_c, 10, 11, 45
1, 131003, Control_c, 6, 11, 20
1, 131003, Control_c, 13, 11, 73
1, 131009, Control_c, 8, 11, 56
1, 131011, Control_c, 5, 11, 68
1, 131011, Control_c, 6, 11, 19
1, 131016, Control_c, 10, 11, 44
1, 131019, Control_c, 6, 11, 18
1, 131019, Control_c, 13, 11, 72
1, 131027, Control_c, 6, 11, 17
1, 131029, Control_c, 8, 11, 55
1, 131031, Control_c, 10, 11, 43
1, 131035, Control_c, 13, 11, 71
1, 131037, Control_c, 5, 11, 69
1, 131042, Control_c, 10, 11, 42
1, 131044, Control_c, 8, 11, 54
1, 131047, Note_on_c, 7, 64, 90
1, 131047, Note_on_c, 7, 54, 58
1, 131047, Note_on_c, 7, 57, 68
1, 131047, Note_on_c, 14, 64, 54
1, 131049, Control_c, 7, 64, 0
1, 131057, Control_c, 10, 11, 41
1, 131059, Control_c, 13, 11, 70
1, 131063, Control_c, 5, 11, 70
1, 131065, Control_c, 8, 11, 53
1, 131072, Control_c, 10, 11, 40
1, 131075, Control_c, 13, 11, 69
1, 131080, Control_c, 8, 11, 52
1, 131087, Control_c, 10, 11, 39
1, 131088, Control_c, 5, 11, 71
1, 131091, Control_c, 13, 11, 68
1, 131100, Control_c, 8, 11, 51
1, 131103, Control_c, 10, 11, 38
1, 131113, Control_c, 10, 11, 37
1, 131114, Control_c, 5, 11, 72
1, 131115, Control_c, 13, 11, 67
1, 131121, Control_c, 8, 11, 50
1, 131126, Note_on_c, 7, 57, 0
1, 131128, Control_c, 10, 11, 36
1, 131131, Control_c, 13, 11, 66
1, 131136, Control_c, 8, 11, 49
1, 131139, Control_c, 5, 11, 73
1, 131140, Note_on_c, 14, 64, 0
1, 131144, Control_c, 10, 11, 35
1, 131147, Control_c, 13, 11, 65
1, 131157, Control_c, 8, 11, 48
1, 131159, Control_c, 10, 11, 34
1, 131165, Control_c, 5, 11, 74
1, 131167, Note_on_c, 7, 62, 54
1, 131167, Note_on_c, 14, 62, 64
1, 131171, Control_c, 13, 11, 64
1, 131172, Control_c, 8, 11, 47
1, 131174, Control_c, 10, 11, 33
1, 131185, Control_c, 10, 11, 32
1, 131187, Control_c, 13, 11, 63
1, 131191, Control_c, 5, 11, 75
1, 131192, Control_c, 8, 11, 46
1, 131200, Control_c, 10, 11, 31
1, 131203, Control_c, 13, 11, 62
1, 131215, Control_c, 10, 11, 30
1, 131216, Control_c, 5, 11, 76
1, 131227, Control_c, 13, 11, 61
1, 131230, Control_c, 10, 11, 29
1, 131241, Control_c, 10, 11, 28
1, 131242, Control_c, 5, 11, 77
1, 131243, Control_c, 13, 11, 60
1, 131259, Control_c, 13, 11, 59
1, 131267, Control_c, 5, 11, 78
1, 131271, Note_on_c, 7, 64, 0
1, 131273, Pitch_bend_c, 1, 8143
1, 131282, Pitch_bend_c, 1, 7872
1, 131283, Note_on_c, 8, 50, 0
1, 131283, Control_c, 13, 11, 58
1, 131287, Note_on_c, 7, 62, 0
1, 131287, Note_on_c, 3, 76, 84
1, 131287, Note_on_c, 7, 57, 58
1, 131287, Note_on_c, 14, 57, 27
1, 131287, Lyric_t, "it's "
1, 131290, Note_on_c, 9, 51, 75
1, 131293, Control_c, 5, 11, 79
1, 131299, Control_c, 13, 11, 57
1, 131301, Pitch_bend_c, 1, 7674
1, 131305, Note_on_c, 7, 54, 0
1, 131310, Pitch_bend_c, 1, 7403
1, 131314, Note_on_c, 14, 62, 0
1, 131315, Control_c, 13, 11, 56
1, 131319, Pitch_bend_c, 1, 7181
1, 131319, Control_c, 5, 11, 80
1, 131322, Note_on_c, 13, 57, 0
1, 131328, Pitch_bend_c, 1, 7008
1, 131329, Note_on_c, 10, 74, 0
1, 131338, Pitch_bend_c, 1, 6836
1, 131339, Control_c, 13, 11, 55
1, 131344, Control_c, 5, 11, 81
1, 131347, Pitch_bend_c, 1, 6688
1, 131355, Control_c, 13, 11, 54
1, 131366, Pitch_bend_c, 1, 6515
1, 131370, Control_c, 5, 11, 82
1, 131371, Control_c, 13, 11, 53
1, 131375, Pitch_bend_c, 1, 6416
1, 131384, Pitch_bend_c, 1, 6268
1, 131394, Pitch_bend_c, 1, 6120
1, 131395, Control_c, 5, 11, 83
1, 131395, Control_c, 13, 11, 52
1, 131397, Note_on_c, 14, 57, 0
1, 131402, Control_c, 8, 11, 67
1, 131403, Pitch_bend_c, 1, 5923
1, 131407, Note_on_c, 3, 78, 84
1, 131407, Note_on_c, 7, 54, 41
1, 131407, Note_on_c, 14, 54, 44
1, 131407, Lyric_t, "so "
1, 131408, Note_on_c, 9, 51, 0
1, 131411, Control_c, 13, 11, 51
1, 131412, Pitch_bend_c, 1, 5651
1, 131415, Control_c, 8, 11, 68
1, 131419, Note_on_c, 3, 76, 0
1, 131421, Pitch_bend_c, 1, 5331
1, 131421, Control_c, 5, 11, 84
1, 131427, Note_on_c, 7, 57, 0
1, 131427, Note_on_c, 13, 50, 0
1, 131427, Control_c, 8, 11, 69
1, 131427, Control_c, 13, 11, 50
1, 131431, Pitch_bend_c, 1, 5010
1, 131440, Pitch_bend_c, 1, 4516
1, 131440, Control_c, 8, 11, 70
1, 131447, Control_c, 5, 11, 85
1, 131449, Pitch_bend_c, 1, 4245
1, 131451, Control_c, 13, 11, 49
1, 131453, Control_c, 8, 11, 71
1, 131459, Pitch_bend_c, 1, 4023
1, 131466, Control_c, 8, 11, 72
1, 131467, Control_c, 13, 11, 48
1, 131468, Pitch_bend_c, 1, 3678
1, 131470, Note_on_c, 7, 38, 0
1, 131472, Control_c, 5, 11, 86
1, 131472, Control_c, 8, 11, 73
1, 131477, Pitch_bend_c, 1, 3085
1, 131483, Control_c, 13, 11, 47
1, 131485, Control_c, 8, 11, 74
1, 131487, Pitch_bend_c, 1, 2395
1, 131495, Pitch_bend_c, 1, 2543
1, 131497, Note_on_c, 14, 54, 0
1, 131498, Control_c, 5, 11, 87
1, 131498, Control_c, 8, 11, 75
1, 131499, Control_c, 13, 11, 46
1, 131502, Note_on_c, 5, 50, 0
1, 131505, Pitch_bend_c, 1, 8192
1, 131511, Control_c, 8, 11, 76
1, 131514, Note_on_c, 0, 66, 0
1, 131515, Note_on_c, 5, 66, 0
1, 131515, Note_on_c, 5, 57, 0
1, 131520, Note_on_c, 7, 54, 0
1, 131523, Control_c, 8, 11, 77
1, 131525, Note_on_c, 1, 38, 0
1, 131527, Note_on_c, 0, 50, 0
1, 131527, Note_on_c, 0, 61, 68
1, 131527, Note_on_c, 0, 56, 70
1, 131527, Note_on_c, 1, 32, 70
1, 131527, Note_on_c, 3, 80, 111
1, 131527, Note_on_c, 5, 66, 66
1, 131527, Note_on_c, 5, 61, 66
1, 131527, Note_on_c, 5, 44, 76
1, 131527, Note_on_c, 5, 56, 49
1, 131527, Note_on_c, 7, 75, 80
1, 131527, Note_on_c, 7, 73, 80
1, 131527, Note_on_c, 7, 80, 76
1, 131527, Note_on_c, 7, 44, 68
1, 131527, Note_on_c, 7, 56, 61
1, 131527, Note_on_c, 8, 44, 78
1, 131527, Note_on_c, 11, 61, 84
1, 131527, Note_on_c, 11, 56, 64
1, 131527, Lyric_t, "heav"
1, 131530, Note_on_c, 9, 51, 75
1, 131536, Control_c, 8, 11, 78
1, 131542, Note_on_c, 11, 54, 0
1, 131543, Control_c, 8, 11, 79
1, 131555, Note_on_c, 3, 78, 0
1, 131562, Note_on_c, 11, 64, 0
1, 131569, Note_on_c, 11, 57, 0
1, 131628, Control_c, 7, 64, 127
1, 131648, Note_on_c, 9, 51, 0
1, 131817, Note_on_c, 7, 73, 0
1, 131836, Note_on_c, 7, 75, 0
1, 131876, Note_on_c, 7, 56, 0
1, 131876, Note_on_c, 3, 80, 0
1, 131887, Note_on_c, 3, 78, 72
1, 131887, Lyric_t, "y "
1, 131943, Note_on_c, 11, 61, 0
1, 131970, Note_on_c, 3, 78, 0
1, 131972, Note_on_c, 7, 80, 0
1, 132007, Note_on_c, 3, 78, 102
1, 132007, Note_on_c, 7, 75, 84
1, 132007, Note_on_c, 11, 61, 87
1, 132007, Note_on_c, 14, 61, 70
1, 132007, Lyric_t, "on "
1, 132049, Note_on_c, 11, 56, 0
1, 132127, Note_on_c, 3, 76, 72
1, 132127, Lyric_t, "my "
1, 132171, Note_on_c, 3, 78, 0
1, 132247, Note_on_c, 11, 56, 59
1, 132252, Note_on_c, 3, 76, 0
1, 132436, Note_on_c, 7, 75, 0
1, 132487, Note_on_c, 7, 73, 73
1, 132487, Note_on_c, 7, 56, 73
1, 132487, Note_on_c, 11, 63, 76
1, 132487, Note_on_c, 14, 63, 76
1, 132494, Note_on_c, 11, 61, 0
1, 132495, Note_on_c, 11, 56, 0
1, 132512, Note_on_c, 14, 61, 0
1, 132711, Note_on_c, 12, 56, 54
1, 132727, Note_on_c, 3, 78, 96
1, 132727, Note_on_c, 11, 56, 44
1, 132727, Lyric_t, "heart. "
1, 132727, Lyric_t, "\015"
1, 132958, Note_on_c, 12, 66, 82
1, 132961, Note_on_c, 12, 61, 80
1, 132967, Note_on_c, 3, 76, 80
1, 132967, Note_on_c, 11, 61, 87
1, 132988, Note_on_c, 7, 73, 0
1, 132998, Note_on_c, 11, 56, 0
1, 133003, Note_on_c, 3, 78, 0
1, 133019, Note_on_c, 7, 56, 0
1, 133074, Note_on_c, 12, 56, 0
1, 133087, Note_on_c, 3, 75, 78
1, 133117, Note_on_c, 3, 76, 0
1, 133199, Note_on_c, 12, 56, 57
1, 133207, Note_on_c, 11, 56, 52
1, 133225, Note_on_c, 12, 61, 0
1, 133243, Note_on_c, 12, 66, 0
1, 133280, Note_on_c, 11, 61, 0
1, 133333, Note_on_c, 12, 56, 0
1, 133360, Note_on_c, 12, 56, 62
1, 133394, Note_on_c, 11, 56, 0
1, 133398, Note_on_c, 5, 61, 0
1, 133411, Note_on_c, 12, 60, 68
1, 133436, Note_on_c, 0, 61, 0
1, 133442, Time_signature, 2, 2, 24, 8
1, 133442, Note_on_c, 11, 63, 0
1, 133442, Note_on_c, 12, 63, 84
1, 133447, Note_on_c, 0, 60, 33
1, 133447, Note_on_c, 0, 44, 58
1, 133447, Note_on_c, 5, 60, 55
1, 133447, Note_on_c, 7, 72, 48
1, 133447, Note_on_c, 7, 68, 46
1, 133447, Note_on_c, 7, 56, 43
1, 133447, Note_on_c, 11, 44, 66
1, 133447, Note_on_c, 11, 60, 80
1, 133447, Note_on_c, 11, 51, 66
1, 133447, Note_on_c, 11, 56, 62
1, 133447, Note_on_c, 14, 60, 68
1, 133450, Control_c, 0, 11, 65
1, 133469, Control_c, 0, 11, 64
1, 133484, Control_c, 7, 64, 0
1, 133488, Control_c, 0, 11, 63
1, 133493, Control_c, 5, 11, 85
1, 133507, Control_c, 0, 11, 62
1, 133519, Control_c, 5, 11, 84
1, 133527, Control_c, 0, 11, 61
1, 133545, Control_c, 5, 11, 83
1, 133546, Control_c, 0, 11, 60
1, 133559, Control_c, 0, 11, 59
1, 133570, Control_c, 5, 11, 82
1, 133578, Control_c, 0, 11, 58
1, 133589, Control_c, 5, 11, 81
1, 133597, Control_c, 0, 11, 57
1, 133615, Control_c, 5, 11, 80
1, 133616, Control_c, 0, 11, 56
1, 133635, Control_c, 0, 11, 55
1, 133641, Control_c, 5, 11, 79
1, 133655, Control_c, 0, 11, 54
1, 133660, Control_c, 5, 11, 78
1, 133667, Control_c, 0, 11, 53
1, 133685, Control_c, 5, 11, 77
1, 133687, Control_c, 0, 11, 52
1, 133706, Control_c, 0, 11, 51
1, 133711, Control_c, 5, 11, 76
1, 133725, Control_c, 0, 11, 50
1, 133730, Control_c, 5, 11, 75
1, 133744, Control_c, 0, 11, 49
1, 133756, Control_c, 5, 11, 74
1, 133757, Control_c, 0, 11, 48
1, 133776, Control_c, 0, 11, 47
1, 133781, Control_c, 5, 11, 73
1, 133795, Control_c, 0, 11, 46
1, 133801, Control_c, 5, 11, 72
1, 133815, Control_c, 0, 11, 45
1, 133826, Control_c, 5, 11, 71
1, 133834, Control_c, 0, 11, 44
1, 133845, Note_on_c, 9, 49, 2
1, 133850, Note_on_c, 9, 49, 3
1, 133852, Control_c, 5, 11, 70
1, 133853, Control_c, 0, 11, 43
1, 133866, Control_c, 0, 11, 42
1, 133871, Control_c, 5, 11, 69
1, 133872, Note_on_c, 9, 57, 4
1, 133876, Note_on_c, 9, 49, 4
1, 133883, Note_on_c, 9, 49, 0
1, 133885, Control_c, 0, 11, 41
1, 133888, Note_on_c, 9, 49, 0
1, 133897, Control_c, 5, 11, 68
1, 133898, Note_on_c, 9, 57, 6
1, 133904, Control_c, 0, 11, 40
1, 133910, Note_on_c, 9, 57, 0
1, 133914, Note_on_c, 9, 49, 0
1, 133914, Note_on_c, 9, 49, 7
1, 133922, Control_c, 5, 11, 67
1, 133923, Control_c, 0, 11, 39
1, 133936, Note_on_c, 9, 57, 0
1, 133940, Note_on_c, 9, 49, 8
1, 133941, Control_c, 5, 11, 66
1, 133942, Note_on_c, 9, 57, 8
1, 133943, Control_c, 0, 11, 38
1, 133952, Note_on_c, 9, 49, 0
1, 133953, Note_on_c, 3, 75, 0
1, 133962, Control_c, 0, 11, 37
1, 133967, Control_c, 5, 11, 65
1, 133969, Note_on_c, 9, 57, 10
1, 133975, Control_c, 0, 11, 36
1, 133978, Note_on_c, 9, 49, 0
1, 133980, Note_on_c, 9, 57, 0
1, 133984, Note_on_c, 9, 49, 11
1, 133993, Control_c, 5, 11, 64
1, 133994, Control_c, 0, 11, 35
1, 134000, Note_on_c, 9, 57, 12
1, 134007, Note_on_c, 9, 57, 0
1, 134011, Note_on_c, 9, 49, 13
1, 134013, Control_c, 0, 11, 34
1, 134018, Control_c, 5, 11, 63
1, 134022, Note_on_c, 9, 49, 0
1, 134026, Note_on_c, 9, 57, 13
1, 134032, Control_c, 0, 11, 33
1, 134037, Control_c, 5, 11, 62
1, 134038, Note_on_c, 9, 57, 0
1, 134042, Note_on_c, 9, 49, 14
1, 134049, Note_on_c, 9, 49, 0
1, 134051, Control_c, 0, 11, 32
1, 134052, Note_on_c, 9, 49, 15
1, 134063, Control_c, 5, 11, 61
1, 134064, Note_on_c, 9, 57, 0
1, 134064, Control_c, 0, 11, 31
1, 134064, Note_on_c, 9, 57, 16
1, 134080, Note_on_c, 9, 49, 0
1, 134083, Control_c, 0, 11, 30
1, 134089, Control_c, 5, 11, 60
1, 134090, Note_on_c, 9, 49, 0
1, 134090, Note_on_c, 9, 57, 17
1, 134102, Note_on_c, 9, 57, 0
1, 134103, Control_c, 0, 11, 29
1, 134106, Note_on_c, 9, 49, 18
1, 134108, Control_c, 5, 11, 59
1, 134122, Control_c, 0, 11, 28
1, 134122, Note_on_c, 9, 57, 19
1, 134128, Note_on_c, 9, 57, 0
1, 134132, Note_on_c, 9, 49, 19
1, 134133, Control_c, 5, 11, 58
1, 134141, Control_c, 0, 11, 27
1, 134144, Note_on_c, 9, 49, 0
1, 134148, Note_on_c, 9, 57, 21
1, 134159, Control_c, 5, 11, 57
1, 134160, Note_on_c, 9, 57, 0
1, 134160, Control_c, 0, 11, 26
1, 134164, Note_on_c, 9, 49, 22
1, 134170, Note_on_c, 9, 49, 0
1, 134173, Control_c, 0, 11, 25
1, 134178, Control_c, 5, 11, 56
1, 134186, Note_on_c, 9, 57, 0
1, 134190, Note_on_c, 9, 49, 23
1, 134192, Control_c, 0, 11, 24
1, 134192, Note_on_c, 9, 57, 23
1, 134202, Note_on_c, 9, 49, 0
1, 134204, Control_c, 5, 11, 55
1, 134211, Control_c, 0, 11, 23
1, 134218, Note_on_c, 9, 57, 25
1, 134228, Note_on_c, 9, 49, 0
1, 134229, Control_c, 5, 11, 54
1, 134230, Note_on_c, 9, 57, 0
1, 134231, Control_c, 0, 11, 22
1, 134234, Note_on_c, 9, 49, 26
1, 134249, Control_c, 5, 11, 53
1, 134250, Control_c, 0, 11, 21
1, 134256, Note_on_c, 9, 57, 0
1, 134256, Note_on_c, 9, 57, 27
1, 134260, Note_on_c, 9, 49, 27
1, 134269, Control_c, 0, 11, 20
1, 134272, Note_on_c, 9, 49, 0
1, 134274, Control_c, 5, 11, 52
1, 134282, Control_c, 0, 11, 19
1, 134282, Note_on_c, 9, 57, 29
1, 134294, Note_on_c, 9, 57, 0
1, 134298, Note_on_c, 9, 49, 0
1, 134298, Note_on_c, 9, 49, 29
1, 134300, Control_c, 5, 11, 51
1, 134301, Control_c, 0, 11, 18
1, 134309, Note_on_c, 9, 57, 30
1, 134319, Control_c, 5, 11, 50
1, 134320, Note_on_c, 9, 57, 0
1, 134320, Note_on_c, 14, 63, 0
1, 134320, Control_c, 0, 11, 17
1, 134324, Note_on_c, 9, 49, 31
1, 134336, Note_on_c, 9, 49, 0
1, 134339, Control_c, 0, 11, 16
1, 134344, Note_on_c, 9, 49, 32
1, 134345, Control_c, 5, 11, 49
1, 134346, Note_on_c, 9, 57, 32
1, 134347, Note_on_c, 9, 57, 0
1, 134359, Control_c, 0, 11, 15
1, 134362, Note_on_c, 9, 49, 0
1, 134363, Note_on_c, 12, 56, 0
1, 134366, Note_on_c, 12, 60, 0
1, 134368, Note_on_c, 12, 63, 0
1, 134370, Control_c, 5, 11, 48
1, 134371, Control_c, 0, 11, 14
1, 134372, Note_on_c, 9, 57, 34
1, 134373, Note_on_c, 9, 57, 34
1, 134375, Note_on_c, 11, 51, 0
1, 134377, Note_on_c, 0, 60, 0
1, 134377, Note_on_c, 0, 44, 0
1, 134381, Note_on_c, 11, 56, 0
1, 134382, Note_on_c, 0, 56, 0
1, 134382, Note_on_c, 9, 49, 0
1, 134384, Note_on_c, 9, 57, 0
1, 134385, Note_on_c, 11, 44, 0
1, 134385, Note_on_c, 5, 44, 0
1, 134388, Note_on_c, 9, 49, 35
1, 134389, Note_on_c, 11, 60, 0
1, 134389, Control_c, 5, 11, 47
1, 134394, Control_c, 0, 11, 83
1, 134395, Note_on_c, 5, 56, 0
1, 134397, Note_on_c, 1, 32, 0
1, 134398, Control_c, 0, 32, 1
1, 134398, Control_c, 0, 0, 0
1, 134398, Control_c, 0, 32, 1
1, 134398, Control_c, 0, 0, 0
1, 134398, Control_c, 0, 32, 1
1, 134399, Program_c, 0, 102
1, 134402, Time_signature, 4, 2, 24, 8
1, 134403, Control_c, 5, 11, 99
1, 134405, Note_on_c, 5, 60, 0
1, 134407, Note_on_c, 1, 49, 82
1, 134407, Note_on_c, 5, 64, 78
1, 134407, Note_on_c, 5, 56, 68
1, 134407, Note_on_c, 5, 61, 84
1, 134407, Note_on_c, 7, 61, 64
1, 134407, Note_on_c, 8, 61, 78
1, 134407, Note_on_c, 12, 64, 90
1, 134407, Note_on_c, 14, 61, 74
1, 134407, Note_on_c, 14, 56, 62
1, 134409, Note_on_c, 5, 66, 0
1, 134409, Control_c, 8, 11, 103
1, 134410, Note_on_c, 9, 57, 0
1, 134410, Note_on_c, 9, 57, 36
1, 134411, Note_on_c, 9, 57, 0
1, 134414, Note_on_c, 9, 49, 37
1, 134423, Note_on_c, 7, 44, 0
1, 134425, Note_on_c, 8, 44, 0
1, 134426, Note_on_c, 9, 49, 0
1, 134436, Note_on_c, 9, 57, 38
1, 134438, Note_on_c, 7, 56, 0
1, 134446, Note_on_c, 14, 60, 0
1, 134448, Note_on_c, 9, 57, 0
1, 134452, Note_on_c, 9, 49, 0
1, 134452, Note_on_c, 9, 49, 39
1, 134474, Note_on_c, 9, 57, 0
1, 134478, Note_on_c, 7, 68, 0
1, 134478, Note_on_c, 9, 49, 41
1, 134487, Note_on_c, 7, 72, 0
1, 134490, Note_on_c, 9, 49, 0
1, 134494, Control_c, 7, 64, 127
1, 134516, Note_on_c, 9, 49, 0
1, 134527, Note_on_c, 7, 68, 58
1, 134527, Note_on_c, 7, 76, 72
1, 134579, Note_on_c, 7, 61, 0
1, 134597, Note_on_c, 14, 56, 0
1, 134625, Note_on_c, 7, 76, 0
1, 134647, Note_on_c, 7, 61, 68
1, 134647, Note_on_c, 7, 75, 72
1, 134647, Note_on_c, 14, 56, 57
1, 134667, Note_on_c, 14, 61, 0
1, 134720, Note_on_c, 7, 68, 0
1, 134741, Note_on_c, 7, 75, 0
1, 134767, Note_on_c, 7, 76, 78
1, 134767, Note_on_c, 7, 64, 82
1, 134767, Note_on_c, 11, 56, 41
1, 134834, Note_on_c, 14, 56, 0
1, 134880, Note_on_c, 7, 76, 0
1, 134887, Note_on_c, 7, 68, 68
1, 134887, Note_on_c, 7, 80, 93
1, 134887, Note_on_c, 11, 64, 76
1, 134887, Note_on_c, 11, 61, 74
1, 134887, Note_on_c, 14, 56, 64
1, 134887, Note_on_c, 14, 61, 74
1, 134928, Note_on_c, 7, 64, 0
1, 134947, Note_on_c, 11, 56, 0
1, 135000, Note_on_c, 7, 80, 0
1, 135007, Note_on_c, 7, 76, 78
1, 135069, Note_on_c, 14, 56, 0
1, 135127, Note_on_c, 7, 75, 68
1, 135127, Note_on_c, 14, 56, 50
1, 135131, Note_on_c, 7, 76, 0
1, 135149, Note_on_c, 14, 61, 0
1, 135245, Note_on_c, 7, 75, 0
1, 135247, Note_on_c, 7, 76, 62
1, 135320, Note_on_c, 12, 64, 0
1, 135341, Note_on_c, 7, 68, 0
1, 135343, Note_on_c, 14, 56, 0
1, 135346, Note_on_c, 7, 76, 0
1, 135357, Note_on_c, 5, 56, 0
1, 135358, Note_on_c, 8, 61, 0
1, 135364, Note_on_c, 1, 49, 0
1, 135367, Note_on_c, 1, 47, 66
1, 135367, Note_on_c, 5, 59, 76
1, 135367, Note_on_c, 5, 63, 84
1, 135367, Note_on_c, 5, 54, 62
1, 135367, Note_on_c, 7, 59, 62
1, 135367, Note_on_c, 7, 78, 82
1, 135367, Note_on_c, 8, 59, 74
1, 135367, Note_on_c, 12, 63, 87
1, 135367, Note_on_c, 14, 59, 62
1, 135367, Note_on_c, 14, 63, 64
1, 135369, Note_on_c, 5, 64, 0
1, 135369, Note_on_c, 7, 61, 0
1, 135380, Control_c, 7, 64, 0
1, 135385, Note_on_c, 5, 61, 0
1, 135487, Note_on_c, 7, 75, 64
1, 135487, Note_on_c, 7, 66, 54
1, 135497, Control_c, 7, 64, 127
1, 135507, Note_on_c, 7, 59, 0
1, 135537, Note_on_c, 7, 78, 0
1, 135562, Note_on_c, 14, 63, 0
1, 135586, Note_on_c, 14, 59, 0
1, 135594, Note_on_c, 11, 64, 0
1, 135607, Note_on_c, 7, 59, 66
1, 135607, Note_on_c, 7, 73, 74
1, 135607, Note_on_c, 14, 54, 33
1, 135626, Note_on_c, 7, 75, 0
1, 135627, Note_on_c, 7, 66, 0
1, 135718, Note_on_c, 11, 61, 0
1, 135727, Note_on_c, 7, 63, 64
1, 135727, Note_on_c, 7, 75, 74
1, 135727, Note_on_c, 11, 56, 42
1, 135739, Note_on_c, 7, 73, 0
1, 135830, Note_on_c, 14, 54, 0
1, 135847, Note_on_c, 7, 78, 87
1, 135847, Note_on_c, 7, 66, 78
1, 135847, Note_on_c, 11, 63, 72
1, 135847, Note_on_c, 11, 59, 74
1, 135847, Note_on_c, 14, 63, 64
1, 135847, Note_on_c, 14, 59, 70
1, 135864, Note_on_c, 7, 75, 0
1, 135868, Control_c, 7, 64, 0
1, 135893, Note_on_c, 11, 56, 0
1, 135967, Note_on_c, 7, 75, 74
1, 135986, Control_c, 7, 64, 127
1, 136060, Note_on_c, 7, 78, 0
1, 136079, Note_on_c, 14, 63, 0
1, 136087, Note_on_c, 7, 73, 54
1, 136087, Note_on_c, 14, 54, 39
1, 136098, Note_on_c, 14, 59, 0
1, 136109, Note_on_c, 7, 75, 0
1, 136202, Note_on_c, 14, 54, 0
1, 136203, Note_on_c, 7, 59, 0
1, 136207, Note_on_c, 7, 75, 50
1, 136237, Note_on_c, 7, 73, 0
1, 136253, Note_on_c, 7, 63, 0
1, 136308, Note_on_c, 7, 66, 0
1, 136310, Note_on_c, 7, 75, 0
1, 136319, Note_on_c, 12, 63, 0
1, 136321, Note_on_c, 5, 63, 0
1, 136324, Note_on_c, 1, 47, 0
1, 136325, Note_on_c, 5, 54, 0
1, 136327, Note_on_c, 1, 44, 68
1, 136327, Note_on_c, 5, 64, 82
1, 136327, Note_on_c, 5, 61, 87
1, 136327, Note_on_c, 5, 56, 76
1, 136327, Note_on_c, 7, 61, 64
1, 136327, Note_on_c, 8, 61, 72
1, 136327, Note_on_c, 12, 56, 74
1, 136327, Note_on_c, 14, 61, 76
1, 136327, Note_on_c, 14, 56, 64
1, 136366, Note_on_c, 5, 59, 0
1, 136373, Note_on_c, 8, 59, 0
1, 136447, Note_on_c, 7, 76, 82
1, 136447, Note_on_c, 7, 68, 64
1, 136452, Control_c, 7, 64, 0
1, 136471, Note_on_c, 7, 61, 0
1, 136495, Note_on_c, 11, 59, 0
1, 136496, Note_on_c, 14, 56, 0
1, 136567, Note_on_c, 7, 75, 72
1, 136567, Note_on_c, 7, 61, 70
1, 136567, Note_on_c, 14, 56, 54
1, 136575, Note_on_c, 14, 61, 0
1, 136575, Note_on_c, 7, 76, 0
1, 136587, Control_c, 7, 64, 127
1, 136608, Note_on_c, 11, 63, 0
1, 136661, Note_on_c, 7, 68, 0
1, 136685, Note_on_c, 7, 75, 0
1, 136687, Note_on_c, 7, 76, 78
1, 136687, Note_on_c, 7, 64, 70
1, 136687, Note_on_c, 11, 56, 38
1, 136750, Note_on_c, 14, 56, 0
1, 136802, Control_c, 7, 64, 0
1, 136807, Note_on_c, 7, 80, 87
1, 136807, Note_on_c, 7, 68, 70
1, 136807, Note_on_c, 11, 61, 52
1, 136807, Note_on_c, 11, 64, 72
1, 136807, Note_on_c, 14, 56, 62
1, 136807, Note_on_c, 14, 61, 76
1, 136821, Note_on_c, 7, 76, 0
1, 136825, Control_c, 7, 64, 127
1, 136893, Note_on_c, 11, 56, 0
1, 136927, Note_on_c, 7, 76, 72
1, 136944, Note_on_c, 7, 80, 0
1, 136951, Note_on_c, 14, 56, 0
1, 137036, Note_on_c, 14, 61, 0
1, 137047, Note_on_c, 7, 75, 62
1, 137047, Note_on_c, 14, 56, 57
1, 137062, Note_on_c, 7, 76, 0
1, 137164, Note_on_c, 7, 75, 0
1, 137167, Note_on_c, 7, 76, 64
1, 137227, Note_on_c, 7, 61, 0
1, 137246, Note_on_c, 7, 68, 0
1, 137252, Note_on_c, 7, 64, 0
1, 137259, Note_on_c, 14, 56, 0
1, 137267, Note_on_c, 7, 76, 0
1, 137278, Note_on_c, 5, 56, 0
1, 137283, Note_on_c, 8, 61, 0
1, 137284, Note_on_c, 1, 44, 0
1, 137285, Note_on_c, 12, 56, 0
1, 137287, Note_on_c, 1, 42, 74
1, 137287, Note_on_c, 5, 59, 80
1, 137287, Note_on_c, 5, 54, 72
1, 137287, Note_on_c, 5, 63, 74
1, 137287, Note_on_c, 7, 78, 78
1, 137287, Note_on_c, 7, 59, 74
1, 137287, Note_on_c, 8, 59, 64
1, 137287, Note_on_c, 12, 54, 76
1, 137287, Note_on_c, 14, 59, 72
1, 137287, Note_on_c, 14, 63, 61
1, 137301, Control_c, 7, 64, 0
1, 137314, Note_on_c, 5, 64, 0
1, 137315, Note_on_c, 5, 61, 0
1, 137407, Note_on_c, 7, 75, 72
1, 137407, Note_on_c, 7, 66, 57
1, 137442, Note_on_c, 7, 78, 0
1, 137449, Note_on_c, 7, 59, 0
1, 137487, Control_c, 7, 64, 127
1, 137497, Note_on_c, 14, 63, 0
1, 137527, Note_on_c, 7, 59, 76
1, 137527, Note_on_c, 7, 73, 82
1, 137527, Note_on_c, 14, 54, 42
1, 137532, Note_on_c, 14, 59, 0
1, 137539, Note_on_c, 7, 75, 0
1, 137544, Note_on_c, 7, 66, 0
1, 137581, Note_on_c, 11, 61, 0
1, 137585, Note_on_c, 11, 64, 0
1, 137647, Note_on_c, 7, 63, 70
1, 137647, Note_on_c, 7, 75, 78
1, 137647, Note_on_c, 11, 56, 24
1, 137663, Note_on_c, 7, 73, 0
1, 137723, Note_on_c, 14, 54, 0
1, 137759, Note_on_c, 11, 56, 0
1, 137767, Note_on_c, 7, 78, 84
1, 137767, Note_on_c, 7, 66, 84
1, 137767, Note_on_c, 11, 59, 62
1, 137767, Note_on_c, 11, 63, 72
1, 137767, Note_on_c, 14, 63, 57
1, 137767, Note_on_c, 14, 59, 58
1, 137781, Note_on_c, 7, 75, 0
1, 137884, Note_on_c, 1, 42, 0
1, 137887, Note_on_c, 1, 44, 66
1, 137887, Note_on_c, 7, 75, 64
1, 137946, Note_on_c, 7, 78, 0
1, 137972, Note_on_c, 14, 63, 0
1, 137989, Note_on_c, 14, 59, 0
1, 137996, Note_on_c, 7, 75, 0
1, 138004, Note_on_c, 1, 44, 0
1, 138007, Note_on_c, 1, 47, 66
1, 138007, Note_on_c, 7, 73, 49
1, 138007, Note_on_c, 12, 56, 74
1, 138007, Note_on_c, 12, 51, 74
1, 138007, Note_on_c, 14, 54, 34
1, 138011, Note_on_c, 12, 54, 0
1, 138079, Note_on_c, 14, 54, 0
1, 138096, Note_on_c, 11, 59, 0
1, 138123, Note_on_c, 11, 63, 0
1, 138127, Note_on_c, 7, 75, 66
1, 138127, Note_on_c, 11, 56, 49
1, 138129, Control_c, 7, 64, 0
1, 138144, Note_on_c, 12, 56, 0
1, 138148, Note_on_c, 7, 73, 0
1, 138213, Note_on_c, 12, 51, 0
1, 138220, Note_on_c, 7, 66, 0
1, 138228, Note_on_c, 11, 56, 0
1, 138239, Note_on_c, 7, 59, 0
1, 138242, Note_on_c, 7, 75, 0
1, 138244, Note_on_c, 5, 63, 0
1, 138244, Note_on_c, 1, 47, 0
1, 138245, Note_on_c, 5, 59, 0
1, 138246, Note_on_c, 7, 63, 0
1, 138247, Note_on_c, 1, 49, 84
1, 138247, Note_on_c, 4, 68, 50
1, 138247, Note_on_c, 4, 64, 54
1, 138247, Note_on_c, 5, 64, 76
1, 138247, Note_on_c, 5, 61, 80
1, 138247, Note_on_c, 5, 56, 68
1, 138247, Note_on_c, 5, 49, 62
1, 138247, Note_on_c, 7, 61, 64
1, 138247, Note_on_c, 7, 80, 72
1, 138247, Note_on_c, 8, 64, 80
1, 138247, Note_on_c, 9, 51, 58
1, 138247, Note_on_c, 12, 59, 76
1, 138247, Note_on_c, 12, 64, 82
1, 138247, Note_on_c, 12, 61, 87
1, 138247, Note_on_c, 12, 56, 72
1, 138247, Note_on_c, 14, 64, 70
1, 138247, Note_on_c, 14, 61, 64
1, 138247, Note_on_c, 15, 64, 1
1, 138247, Note_on_c, 15, 68, 1
1, 138249, Note_on_c, 5, 54, 0
1, 138292, Note_on_c, 8, 59, 0
1, 138334, Control_c, 7, 64, 127
1, 138345, Note_on_c, 7, 80, 0
1, 138365, Note_on_c, 9, 51, 0
1, 138367, Note_on_c, 7, 68, 58
1, 138367, Note_on_c, 7, 76, 72
1, 138397, Note_on_c, 12, 59, 0
1, 138419, Note_on_c, 7, 61, 0
1, 138465, Note_on_c, 7, 76, 0
1, 138487, Note_on_c, 7, 61, 68
1, 138487, Note_on_c, 7, 75, 72
1, 138487, Note_on_c, 14, 56, 50
1, 138514, Note_on_c, 14, 64, 0
1, 138514, Note_on_c, 14, 61, 0
1, 138560, Note_on_c, 7, 68, 0
1, 138581, Note_on_c, 7, 75, 0
1, 138607, Note_on_c, 7, 76, 78
1, 138607, Note_on_c, 7, 64, 82
1, 138607, Note_on_c, 11, 56, 49
1, 138650, Note_on_c, 11, 56, 0
1, 138720, Note_on_c, 7, 76, 0
1, 138727, Note_on_c, 7, 68, 68
1, 138727, Note_on_c, 7, 80, 93
1, 138727, Note_on_c, 11, 64, 72
1, 138727, Note_on_c, 11, 61, 72
1, 138727, Note_on_c, 14, 64, 74
1, 138727, Note_on_c, 14, 61, 64
1, 138768, Note_on_c, 7, 64, 0
1, 138821, Note_on_c, 14, 56, 0
1, 138840, Note_on_c, 7, 80, 0
1, 138847, Note_on_c, 7, 76, 78
1, 138875, Note_on_c, 12, 56, 0
1, 138967, Note_on_c, 3, 76, 99
1, 138967, Note_on_c, 7, 75, 68
1, 138967, Note_on_c, 12, 56, 49
1, 138967, Note_on_c, 12, 61, 57
1, 138967, Note_on_c, 14, 56, 50
1, 138967, Lyric_t, "So "
1, 138971, Note_on_c, 7, 76, 0
1, 138975, Note_on_c, 14, 64, 0
1, 138976, Note_on_c, 12, 61, 0
1, 139021, Note_on_c, 14, 61, 0
1, 139085, Note_on_c, 7, 75, 0
1, 139087, Note_on_c, 7, 76, 62
1, 139134, Note_on_c, 12, 61, 0
1, 139143, Note_on_c, 12, 64, 0
1, 139164, Note_on_c, 14, 56, 0
1, 139181, Note_on_c, 7, 68, 0
1, 139186, Note_on_c, 7, 76, 0
1, 139204, Note_on_c, 1, 49, 0
1, 139207, Note_on_c, 1, 47, 76
1, 139207, Note_on_c, 3, 75, 84
1, 139207, Note_on_c, 4, 66, 45
1, 139207, Note_on_c, 4, 63, 30
1, 139207, Note_on_c, 5, 63, 78
1, 139207, Note_on_c, 5, 59, 82
1, 139207, Note_on_c, 5, 54, 74
1, 139207, Note_on_c, 7, 59, 62
1, 139207, Note_on_c, 7, 78, 82
1, 139207, Note_on_c, 8, 63, 74
1, 139207, Note_on_c, 12, 59, 80
1, 139207, Note_on_c, 12, 63, 80
1, 139207, Note_on_c, 14, 63, 70
1, 139207, Note_on_c, 14, 59, 55
1, 139207, Note_on_c, 15, 63, 1
1, 139207, Note_on_c, 15, 66, 1
1, 139207, Lyric_t, "heav"
1, 139209, Note_on_c, 7, 61, 0
1, 139212, Note_on_c, 5, 49, 0
1, 139216, Note_on_c, 5, 56, 0
1, 139218, Note_on_c, 4, 68, 0
1, 139218, Note_on_c, 15, 68, 0
1, 139220, Control_c, 7, 64, 0
1, 139222, Note_on_c, 15, 64, 0
1, 139222, Note_on_c, 4, 64, 0
1, 139229, Note_on_c, 12, 56, 0
1, 139231, Note_on_c, 3, 76, 0
1, 139234, Note_on_c, 5, 61, 0
1, 139240, Note_on_c, 5, 64, 0
1, 139246, Note_on_c, 8, 64, 0
1, 139327, Note_on_c, 3, 73, 93
1, 139327, Note_on_c, 7, 75, 64
1, 139327, Note_on_c, 7, 66, 54
1, 139327, Lyric_t, "y "
1, 139337, Control_c, 7, 64, 127
1, 139339, Note_on_c, 3, 75, 0
1, 139347, Note_on_c, 7, 59, 0
1, 139377, Note_on_c, 7, 78, 0
1, 139412, Note_on_c, 11, 64, 0
1, 139427, Note_on_c, 11, 61, 0
1, 139431, Note_on_c, 14, 63, 0
1, 139447, Note_on_c, 7, 59, 66
1, 139447, Note_on_c, 7, 73, 74
1, 139447, Note_on_c, 14, 54, 51
1, 139451, Note_on_c, 14, 59, 0
1, 139466, Note_on_c, 7, 75, 0
1, 139467, Note_on_c, 7, 66, 0
1, 139567, Note_on_c, 7, 63, 64
1, 139567, Note_on_c, 7, 75, 74
1, 139567, Note_on_c, 11, 56, 39
1, 139578, Note_on_c, 14, 54, 0
1, 139579, Note_on_c, 7, 73, 0
1, 139671, Note_on_c, 11, 56, 0
1, 139687, Note_on_c, 7, 78, 87
1, 139687, Note_on_c, 7, 66, 78
1, 139687, Note_on_c, 11, 63, 74
1, 139687, Note_on_c, 11, 59, 76
1, 139687, Note_on_c, 14, 59, 72
1, 139687, Note_on_c, 14, 63, 70
1, 139704, Note_on_c, 7, 75, 0
1, 139708, Control_c, 7, 64, 0
1, 139782, Note_on_c, 12, 63, 0
1, 139807, Note_on_c, 7, 75, 74
1, 139826, Control_c, 7, 64, 127
1, 139900, Note_on_c, 7, 78, 0
1, 139927, Note_on_c, 7, 73, 54
1, 139927, Note_on_c, 12, 63, 74
1, 139927, Note_on_c, 14, 54, 37
1, 139945, Note_on_c, 14, 63, 0
1, 139946, Note_on_c, 14, 59, 0
1, 139949, Note_on_c, 7, 75, 0
1, 140043, Note_on_c, 7, 59, 0
1, 140047, Note_on_c, 7, 75, 50
1, 140062, Note_on_c, 14, 54, 0
1, 140077, Note_on_c, 7, 73, 0
1, 140082, Note_on_c, 3, 73, 0
1, 140083, Note_on_c, 12, 59, 0
1, 140093, Note_on_c, 7, 63, 0
1, 140110, Note_on_c, 12, 63, 0
1, 140148, Note_on_c, 7, 66, 0
1, 140150, Note_on_c, 7, 75, 0
1, 140164, Note_on_c, 1, 47, 0
1, 140167, Note_on_c, 1, 44, 62
1, 140167, Note_on_c, 4, 68, 43
1, 140167, Note_on_c, 4, 64, 54
1, 140167, Note_on_c, 5, 64, 66
1, 140167, Note_on_c, 5, 61, 72
1, 140167, Note_on_c, 5, 56, 72
1, 140167, Note_on_c, 7, 80, 82
1, 140167, Note_on_c, 7, 61, 64
1, 140167, Note_on_c, 8, 61, 55
1, 140167, Note_on_c, 12, 61, 90
1, 140167, Note_on_c, 14, 56, 68
1, 140167, Note_on_c, 14, 61, 74
1, 140167, Note_on_c, 15, 64, 1
1, 140167, Note_on_c, 15, 68, 1
1, 140177, Note_on_c, 4, 66, 0
1, 140177, Note_on_c, 15, 66, 0
1, 140200, Note_on_c, 8, 63, 0
1, 140202, Note_on_c, 11, 63, 0
1, 140206, Note_on_c, 11, 59, 0
1, 140210, Note_on_c, 4, 63, 0
1, 140210, Note_on_c, 15, 63, 0
1, 140213, Note_on_c, 5, 54, 0
1, 140221, Note_on_c, 5, 63, 0
1, 140222, Note_on_c, 5, 59, 0
1, 140265, Note_on_c, 7, 80, 0
1, 140287, Note_on_c, 7, 76, 82
1, 140287, Note_on_c, 7, 68, 64
1, 140292, Control_c, 7, 64, 0
1, 140311, Note_on_c, 7, 61, 0
1, 140363, Note_on_c, 14, 56, 0
1, 140407, Note_on_c, 7, 75, 72
1, 140407, Note_on_c, 7, 61, 70
1, 140407, Note_on_c, 14, 56, 55
1, 140415, Note_on_c, 7, 76, 0
1, 140422, Note_on_c, 14, 61, 0
1, 140427, Control_c, 7, 64, 127
1, 140501, Note_on_c, 7, 68, 0
1, 140525, Note_on_c, 7, 75, 0
1, 140527, Note_on_c, 7, 76, 78
1, 140527, Note_on_c, 7, 64, 70
1, 140527, Note_on_c, 11, 56, 36
1, 140536, Note_on_c, 14, 56, 0
1, 140642, Control_c, 7, 64, 0
1, 140647, Note_on_c, 7, 80, 87
1, 140647, Note_on_c, 7, 68, 70
1, 140647, Note_on_c, 11, 64, 74
1, 140647, Note_on_c, 11, 61, 57
1, 140647, Note_on_c, 14, 56, 64
1, 140647, Note_on_c, 14, 61, 80
1, 140658, Note_on_c, 11, 56, 0
1, 140661, Note_on_c, 7, 76, 0
1, 140665, Control_c, 7, 64, 127
1, 140767, Note_on_c, 7, 76, 72
1, 140784, Note_on_c, 7, 80, 0
1, 140828, Note_on_c, 14, 56, 0
1, 140865, Note_on_c, 12, 61, 0
1, 140887, Note_on_c, 0, 76, 64
1, 140887, Note_on_c, 0, 73, 64
1, 140887, Note_on_c, 0, 64, 64
1, 140887, Note_on_c, 7, 75, 62
1, 140887, Note_on_c, 12, 56, 74
1, 140887, Note_on_c, 12, 61, 68
1, 140887, Note_on_c, 14, 56, 57
1, 140902, Note_on_c, 7, 76, 0
1, 140909, Note_on_c, 14, 61, 0
1, 140961, Note_on_c, 12, 61, 0
1, 141004, Note_on_c, 7, 75, 0
1, 141007, Note_on_c, 7, 76, 64
1, 141018, Note_on_c, 12, 56, 0
1, 141057, Note_on_c, 14, 56, 0
1, 141067, Note_on_c, 7, 61, 0
1, 141086, Note_on_c, 7, 68, 0
1, 141092, Note_on_c, 7, 64, 0
1, 141098, Note_on_c, 15, 68, 0
1, 141098, Note_on_c, 4, 68, 0
1, 141107, Note_on_c, 7, 76, 0
1, 141124, Note_on_c, 1, 44, 0
1, 141127, Note_on_c, 0, 75, 64
1, 141127, Note_on_c, 0, 66, 62
1, 141127, Note_on_c, 1, 42, 72
1, 141127, Note_on_c, 4, 66, 33
1, 141127, Note_on_c, 4, 63, 42
1, 141127, Note_on_c, 5, 63, 82
1, 141127, Note_on_c, 5, 59, 82
1, 141127, Note_on_c, 5, 54, 80
1, 141127, Note_on_c, 7, 78, 78
1, 141127, Note_on_c, 7, 59, 74
1, 141127, Note_on_c, 8, 63, 64
1, 141127, Note_on_c, 12, 59, 93
1, 141127, Note_on_c, 14, 59, 72
1, 141127, Note_on_c, 14, 63, 74
1, 141127, Note_on_c, 15, 63, 1
1, 141127, Note_on_c, 15, 66, 1
1, 141133, Note_on_c, 8, 61, 0
1, 141138, Note_on_c, 0, 76, 0
1, 141141, Note_on_c, 11, 64, 0
1, 141141, Control_c, 7, 64, 0
1, 141142, Note_on_c, 0, 73, 0
1, 141144, Note_on_c, 4, 64, 0
1, 141144, Note_on_c, 15, 64, 0
1, 141149, Note_on_c, 0, 64, 0
1, 141151, Note_on_c, 5, 56, 0
1, 141156, Note_on_c, 11, 61, 0
1, 141158, Note_on_c, 5, 61, 0
1, 141172, Note_on_c, 5, 64, 0
1, 141214, Note_on_c, 0, 66, 0
1, 141247, Note_on_c, 0, 66, 72
1, 141247, Note_on_c, 0, 73, 55
1, 141247, Note_on_c, 7, 75, 72
1, 141247, Note_on_c, 7, 66, 57
1, 141282, Note_on_c, 7, 78, 0
1, 141285, Note_on_c, 0, 75, 0
1, 141289, Note_on_c, 7, 59, 0
1, 141327, Control_c, 7, 64, 127
1, 141350, Note_on_c, 14, 63, 0
1, 141367, Note_on_c, 7, 59, 76
1, 141367, Note_on_c, 7, 73, 82
1, 141367, Note_on_c, 14, 54, 37
1, 141379, Note_on_c, 7, 75, 0
1, 141384, Note_on_c, 7, 66, 0
1, 141397, Note_on_c, 14, 59, 0
1, 141487, Note_on_c, 7, 63, 70
1, 141487, Note_on_c, 7, 75, 78
1, 141487, Note_on_c, 11, 56, 55
1, 141503, Note_on_c, 7, 73, 0
1, 141607, Note_on_c, 14, 54, 0
1, 141607, Note_on_c, 5, 47, 61
1, 141607, Note_on_c, 7, 78, 84
1, 141607, Note_on_c, 7, 66, 84
1, 141607, Note_on_c, 11, 63, 72
1, 141607, Note_on_c, 11, 59, 62
1, 141607, Note_on_c, 14, 59, 74
1, 141607, Note_on_c, 14, 63, 64
1, 141616, Note_on_c, 11, 56, 0
1, 141621, Note_on_c, 7, 75, 0
1, 141727, Note_on_c, 7, 75, 64
1, 141786, Note_on_c, 7, 78, 0
1, 141828, Note_on_c, 12, 59, 0
1, 141836, Note_on_c, 7, 75, 0
1, 141844, Note_on_c, 1, 42, 0
1, 141847, Note_on_c, 1, 44, 59
1, 141847, Note_on_c, 7, 73, 49
1, 141847, Note_on_c, 9, 51, 58
1, 141847, Note_on_c, 12, 54, 50
1, 141847, Note_on_c, 12, 59, 82
1, 141847, Note_on_c, 14, 54, 40
1, 141865, Note_on_c, 14, 63, 0
1, 141884, Note_on_c, 14, 59, 0
1, 141964, Note_on_c, 1, 44, 0
1, 141965, Note_on_c, 9, 51, 0
1, 141966, Note_on_c, 14, 54, 0
1, 141967, Note_on_c, 1, 47, 68
1, 141967, Note_on_c, 7, 75, 66
1, 141969, Note_on_c, 12, 54, 0
1, 141969, Control_c, 7, 64, 0
1, 141974, Note_on_c, 12, 59, 0
1, 141988, Note_on_c, 7, 73, 0
1, 142043, Note_on_c, 11, 59, 0
1, 142047, Note_on_c, 11, 63, 0
1, 142060, Note_on_c, 7, 66, 0
1, 142076, Note_on_c, 8, 63, 0
1, 142079, Note_on_c, 7, 59, 0
1, 142082, Note_on_c, 7, 75, 0
1, 142083, Note_on_c, 5, 47, 0
1, 142084, Note_on_c, 1, 47, 0
1, 142086, Note_on_c, 7, 63, 0
1, 142086, Note_on_c, 5, 54, 0
1, 142086, Note_on_c, 0, 73, 0
1, 142087, Note_on_c, 1, 49, 82
1, 142087, Note_on_c, 4, 68, 52
1, 142087, Note_on_c, 4, 64, 54
1, 142087, Note_on_c, 5, 68, 82
1, 142087, Note_on_c, 5, 64, 72
1, 142087, Note_on_c, 5, 61, 76
1, 142087, Note_on_c, 5, 56, 44
1, 142087, Note_on_c, 7, 61, 64
1, 142087, Note_on_c, 7, 80, 72
1, 142087, Note_on_c, 8, 64, 72
1, 142087, Note_on_c, 9, 51, 58
1, 142087, Note_on_c, 11, 56, 31
1, 142087, Note_on_c, 12, 61, 70
1, 142087, Note_on_c, 12, 56, 61
1, 142087, Note_on_c, 12, 64, 78
1, 142087, Note_on_c, 14, 61, 74
1, 142087, Note_on_c, 14, 56, 68
1, 142087, Note_on_c, 15, 64, 1
1, 142087, Note_on_c, 15, 68, 1
1, 142094, Note_on_c, 0, 66, 0
1, 142107, Note_on_c, 11, 56, 0
1, 142113, Note_on_c, 5, 59, 0
1, 142116, Note_on_c, 15, 63, 0
1, 142116, Note_on_c, 4, 63, 0
1, 142123, Note_on_c, 4, 66, 0
1, 142123, Note_on_c, 15, 66, 0
1, 142132, Note_on_c, 5, 63, 0
1, 142174, Control_c, 7, 64, 127
1, 142185, Note_on_c, 7, 80, 0
1, 142205, Note_on_c, 9, 51, 0
1, 142207, Note_on_c, 7, 68, 58
1, 142207, Note_on_c, 7, 76, 72
1, 142259, Note_on_c, 7, 61, 0
1, 142273, Note_on_c, 14, 56, 0
1, 142305, Note_on_c, 7, 76, 0
1, 142327, Note_on_c, 7, 61, 68
1, 142327, Note_on_c, 7, 75, 72
1, 142327, Note_on_c, 14, 56, 48
1, 142355, Note_on_c, 14, 61, 0
1, 142400, Note_on_c, 7, 68, 0
1, 142421, Note_on_c, 7, 75, 0
1, 142447, Note_on_c, 7, 76, 78
1, 142447, Note_on_c, 7, 64, 82
1, 142447, Note_on_c, 11, 56, 47
1, 142490, Note_on_c, 14, 56, 0
1, 142515, Note_on_c, 11, 56, 0
1, 142560, Note_on_c, 7, 76, 0
1, 142567, Note_on_c, 7, 68, 68
1, 142567, Note_on_c, 7, 80, 93
1, 142567, Note_on_c, 11, 64, 78
1, 142567, Note_on_c, 11, 61, 62
1, 142567, Note_on_c, 14, 61, 76
1, 142567, Note_on_c, 14, 56, 55
1, 142608, Note_on_c, 7, 64, 0
1, 142680, Note_on_c, 7, 80, 0
1, 142687, Note_on_c, 7, 76, 78
1, 142722, Note_on_c, 14, 56, 0
1, 142801, Note_on_c, 14, 61, 0
1, 142807, Note_on_c, 3, 76, 99
1, 142807, Note_on_c, 7, 75, 68
1, 142807, Note_on_c, 14, 56, 55
1, 142807, Lyric_t, "so "
1, 142811, Note_on_c, 7, 76, 0
1, 142925, Note_on_c, 7, 75, 0
1, 142927, Note_on_c, 7, 76, 62
1, 142964, Note_on_c, 14, 56, 0
1, 143019, Note_on_c, 5, 56, 0
1, 143021, Note_on_c, 7, 68, 0
1, 143026, Note_on_c, 7, 76, 0
1, 143031, Note_on_c, 5, 61, 0
1, 143041, Note_on_c, 5, 64, 0
1, 143042, Note_on_c, 5, 68, 0
1, 143043, Note_on_c, 8, 64, 0
1, 143043, Note_on_c, 12, 64, 0
1, 143044, Note_on_c, 1, 49, 0
1, 143047, Note_on_c, 1, 47, 76
1, 143047, Note_on_c, 3, 75, 84
1, 143047, Note_on_c, 4, 66, 48
1, 143047, Note_on_c, 4, 63, 48
1, 143047, Note_on_c, 5, 63, 82
1, 143047, Note_on_c, 5, 66, 84
1, 143047, Note_on_c, 5, 59, 76
1, 143047, Note_on_c, 7, 59, 62
1, 143047, Note_on_c, 7, 78, 82
1, 143047, Note_on_c, 8, 63, 82
1, 143047, Note_on_c, 9, 51, 58
1, 143047, Note_on_c, 12, 63, 74
1, 143047, Note_on_c, 12, 59, 57
1, 143047, Note_on_c, 14, 59, 72
1, 143047, Note_on_c, 14, 63, 70
1, 143047, Note_on_c, 15, 63, 1
1, 143047, Note_on_c, 15, 66, 1
1, 143047, Lyric_t, "heav"
1, 143049, Note_on_c, 7, 61, 0
1, 143060, Control_c, 7, 64, 0
1, 143062, Note_on_c, 12, 56, 0
1, 143063, Note_on_c, 12, 61, 0
1, 143071, Note_on_c, 3, 76, 0
1, 143095, Note_on_c, 4, 68, 0
1, 143095, Note_on_c, 15, 68, 0
1, 143101, Note_on_c, 4, 64, 0
1, 143101, Note_on_c, 15, 64, 0
1, 143111, Note_on_c, 11, 61, 0
1, 143115, Note_on_c, 11, 64, 0
1, 143165, Note_on_c, 9, 51, 0
1, 143167, Note_on_c, 3, 73, 93
1, 143167, Note_on_c, 7, 75, 64
1, 143167, Note_on_c, 7, 66, 54
1, 143167, Note_on_c, 11, 56, 59
1, 143167, Lyric_t, "y... "
1, 143167, Lyric_t, "\015"
1, 143177, Control_c, 7, 64, 127
1, 143179, Note_on_c, 3, 75, 0
1, 143187, Note_on_c, 7, 59, 0
1, 143217, Note_on_c, 7, 78, 0
1, 143238, Note_on_c, 11, 56, 0
1, 143253, Note_on_c, 14, 63, 0
1, 143282, Note_on_c, 14, 59, 0
1, 143287, Note_on_c, 7, 59, 66
1, 143287, Note_on_c, 7, 73, 74
1, 143287, Note_on_c, 11, 59, 45
1, 143287, Note_on_c, 14, 54, 52
1, 143306, Note_on_c, 7, 75, 0
1, 143307, Note_on_c, 7, 66, 0
1, 143379, Note_on_c, 14, 54, 0
1, 143407, Note_on_c, 7, 63, 64
1, 143407, Note_on_c, 7, 75, 74
1, 143407, Note_on_c, 11, 63, 74
1, 143419, Note_on_c, 7, 73, 0
1, 143527, Note_on_c, 7, 78, 87
1, 143527, Note_on_c, 7, 66, 78
1, 143527, Note_on_c, 14, 63, 72
1, 143527, Note_on_c, 14, 59, 72
1, 143544, Note_on_c, 7, 75, 0
1, 143548, Control_c, 7, 64, 0
1, 143647, Note_on_c, 7, 75, 74
1, 143647, Note_on_c, 11, 56, 51
1, 143666, Control_c, 7, 64, 127
1, 143677, Note_on_c, 11, 59, 0
1, 143740, Note_on_c, 7, 78, 0
1, 143767, Note_on_c, 14, 59, 0
1, 143767, Note_on_c, 0, 73, 70
1, 143767, Note_on_c, 7, 73, 54
1, 143767, Note_on_c, 11, 59, 39
1, 143767, Note_on_c, 14, 54, 25
1, 143776, Note_on_c, 14, 63, 0
1, 143789, Note_on_c, 7, 75, 0
1, 143822, Note_on_c, 11, 56, 0
1, 143848, Note_on_c, 11, 63, 0
1, 143855, Note_on_c, 14, 54, 0
1, 143883, Note_on_c, 7, 59, 0
1, 143887, Note_on_c, 7, 75, 50
1, 143887, Note_on_c, 11, 63, 34
1, 143917, Note_on_c, 7, 73, 0
1, 143922, Note_on_c, 3, 73, 0
1, 143933, Note_on_c, 7, 63, 0
1, 143975, Note_on_c, 12, 59, 0
1, 143988, Note_on_c, 7, 66, 0
1, 143990, Note_on_c, 7, 75, 0
1, 143993, Note_on_c, 11, 59, 0
1, 144004, Note_on_c, 1, 47, 0
1, 144007, Note_on_c, 0, 75, 62
1, 144007, Note_on_c, 0, 71, 62
1, 144007, Note_on_c, 0, 66, 62
1, 144007, Note_on_c, 1, 49, 68
1, 144007, Note_on_c, 4, 64, 29
1, 144007, Note_on_c, 4, 61, 49
1, 144007, Note_on_c, 5, 64, 78
1, 144007, Note_on_c, 5, 61, 66
1, 144007, Note_on_c, 5, 68, 84
1, 144007, Note_on_c, 5, 56, 78
1, 144007, Note_on_c, 7, 80, 82
1, 144007, Note_on_c, 7, 61, 64
1, 144007, Note_on_c, 8, 61, 76
1, 144007, Note_on_c, 9, 51, 58
1, 144007, Note_on_c, 12, 61, 64
1, 144007, Note_on_c, 12, 64, 76
1, 144007, Note_on_c, 12, 56, 64
1, 144007, Note_on_c, 14, 56, 64
1, 144007, Note_on_c, 14, 61, 80
1, 144007, Note_on_c, 15, 61, 1
1, 144007, Note_on_c, 15, 64, 1
1, 144008, Note_on_c, 12, 63, 0
1, 144010, Note_on_c, 15, 66, 0
1, 144010, Note_on_c, 4, 66, 0
1, 144017, Note_on_c, 8, 63, 0
1, 144035, Note_on_c, 4, 63, 0
1, 144035, Note_on_c, 15, 63, 0
1, 144038, Note_on_c, 11, 63, 0
1, 144046, Note_on_c, 5, 63, 0
1, 144053, Note_on_c, 0, 73, 0
1, 144074, Note_on_c, 5, 66, 0
1, 144080, Note_on_c, 5, 59, 0
1, 144090, Note_on_c, 0, 66, 0
1, 144104, Note_on_c, 0, 71, 0
1, 144105, Note_on_c, 7, 80, 0
1, 144106, Note_on_c, 0, 75, 0
1, 144125, Note_on_c, 9, 51, 0
1, 144127, Note_on_c, 0, 75, 72
1, 144127, Note_on_c, 0, 71, 54
1, 144127, Note_on_c, 0, 66, 72
1, 144127, Note_on_c, 7, 76, 82
1, 144127, Note_on_c, 7, 68, 64
1, 144132, Control_c, 7, 64, 0
1, 144151, Note_on_c, 7, 61, 0
1, 144238, Note_on_c, 14, 61, 0
1, 144247, Note_on_c, 7, 75, 72
1, 144247, Note_on_c, 7, 61, 70
1, 144255, Note_on_c, 7, 76, 0
1, 144267, Control_c, 7, 64, 127
1, 144341, Note_on_c, 7, 68, 0
1, 144365, Note_on_c, 7, 75, 0
1, 144367, Note_on_c, 14, 56, 0
1, 144367, Note_on_c, 7, 76, 78
1, 144367, Note_on_c, 7, 64, 70
1, 144367, Note_on_c, 11, 56, 62
1, 144482, Control_c, 7, 64, 0
1, 144487, Note_on_c, 7, 80, 87
1, 144487, Note_on_c, 7, 68, 70
1, 144487, Note_on_c, 11, 61, 62
1, 144487, Note_on_c, 14, 56, 68
1, 144487, Note_on_c, 14, 61, 74
1, 144501, Note_on_c, 7, 76, 0
1, 144505, Control_c, 7, 64, 127
1, 144596, Note_on_c, 11, 56, 0
1, 144604, Note_on_c, 1, 49, 0
1, 144607, Note_on_c, 1, 44, 64
1, 144607, Note_on_c, 7, 76, 72
1, 144607, Note_on_c, 11, 64, 74
1, 144624, Note_on_c, 7, 80, 0
1, 144632, Note_on_c, 12, 56, 0
1, 144681, Note_on_c, 11, 61, 0
1, 144682, Note_on_c, 14, 56, 0
1, 144724, Note_on_c, 1, 44, 0
1, 144727, Note_on_c, 1, 49, 70
1, 144727, Note_on_c, 7, 75, 62
1, 144727, Note_on_c, 11, 61, 62
1, 144727, Note_on_c, 12, 56, 52
1, 144727, Note_on_c, 14, 56, 31
1, 144738, Note_on_c, 14, 61, 0
1, 144742, Note_on_c, 7, 76, 0
1, 144794, Note_on_c, 14, 56, 0
1, 144844, Note_on_c, 7, 75, 0
1, 144844, Note_on_c, 1, 49, 0
1, 144847, Note_on_c, 1, 56, 70
1, 144847, Note_on_c, 7, 76, 64
1, 144847, Note_on_c, 11, 56, 51
1, 144887, Note_on_c, 11, 61, 0
1, 144907, Note_on_c, 7, 61, 0
1, 144909, Note_on_c, 0, 71, 0
1, 144924, Note_on_c, 0, 66, 0
1, 144926, Note_on_c, 7, 68, 0
1, 144932, Note_on_c, 7, 64, 0
1, 144947, Note_on_c, 7, 76, 0
1, 144956, Note_on_c, 8, 61, 0
1, 144962, Note_on_c, 5, 61, 0
1, 144964, Note_on_c, 1, 56, 0
1, 144965, Note_on_c, 5, 68, 0
1, 144967, Note_on_c, 0, 66, 64
1, 144967, Note_on_c, 0, 71, 76
1, 144967, Note_on_c, 1, 54, 66
1, 144967, Note_on_c, 4, 59, 40
1, 144967, Note_on_c, 4, 63, 38
1, 144967, Note_on_c, 5, 66, 80
1, 144967, Note_on_c, 5, 59, 74
1, 144967, Note_on_c, 5, 63, 87
1, 144967, Note_on_c, 7, 78, 78
1, 144967, Note_on_c, 7, 59, 74
1, 144967, Note_on_c, 8, 59, 80
1, 144967, Note_on_c, 12, 54, 64
1, 144967, Note_on_c, 14, 59, 76
1, 144967, Note_on_c, 14, 63, 72
1, 144967, Note_on_c, 15, 59, 1
1, 144967, Note_on_c, 15, 63, 1
1, 144980, Note_on_c, 4, 61, 0
1, 144980, Note_on_c, 15, 61, 0
1, 144981, Control_c, 7, 64, 0
1, 144982, Note_on_c, 12, 56, 0
1, 144983, Note_on_c, 5, 56, 0
1, 144987, Note_on_c, 5, 64, 0
1, 144988, Note_on_c, 11, 56, 0
1, 144995, Note_on_c, 4, 64, 0
1, 144995, Note_on_c, 15, 64, 0
1, 144996, Note_on_c, 11, 64, 0
1, 145043, Note_on_c, 12, 61, 0
1, 145087, Note_on_c, 7, 75, 72
1, 145087, Note_on_c, 7, 66, 57
1, 145098, Note_on_c, 12, 64, 0
1, 145122, Note_on_c, 7, 78, 0
1, 145129, Note_on_c, 7, 59, 0
1, 145167, Control_c, 7, 64, 127
1, 145177, Note_on_c, 14, 63, 0
1, 145207, Note_on_c, 7, 59, 76
1, 145207, Note_on_c, 7, 73, 82
1, 145207, Note_on_c, 12, 56, 64
1, 145207, Note_on_c, 12, 66, 93
1, 145211, Note_on_c, 14, 59, 0
1, 145219, Note_on_c, 7, 75, 0
1, 145224, Note_on_c, 7, 66, 0
1, 145325, Note_on_c, 12, 56, 0
1, 145327, Note_on_c, 7, 63, 70
1, 145327, Note_on_c, 7, 75, 78
1, 145343, Note_on_c, 7, 73, 0
1, 145444, Note_on_c, 1, 54, 0
1, 145447, Note_on_c, 1, 47, 55
1, 145447, Note_on_c, 5, 54, 44
1, 145447, Note_on_c, 7, 78, 84
1, 145447, Note_on_c, 7, 66, 84
1, 145447, Note_on_c, 11, 59, 74
1, 145447, Note_on_c, 11, 63, 78
1, 145447, Note_on_c, 12, 64, 93
1, 145447, Note_on_c, 14, 59, 78
1, 145447, Note_on_c, 14, 63, 74
1, 145461, Note_on_c, 7, 75, 0
1, 145486, Note_on_c, 12, 54, 0
1, 145567, Note_on_c, 7, 75, 64
1, 145626, Note_on_c, 7, 78, 0
1, 145673, Note_on_c, 14, 63, 0
1, 145676, Note_on_c, 7, 75, 0
1, 145680, Note_on_c, 12, 64, 0
1, 145687, Note_on_c, 7, 73, 49
1, 145687, Note_on_c, 12, 56, 45
1, 145687, Note_on_c, 12, 63, 76
1, 145687, Note_on_c, 14, 54, 45
1, 145692, Note_on_c, 14, 59, 0
1, 145716, Note_on_c, 12, 66, 0
1, 145745, Note_on_c, 12, 56, 0
1, 145775, Note_on_c, 14, 54, 0
1, 145803, Note_on_c, 4, 63, 0
1, 145803, Note_on_c, 15, 63, 0
1, 145807, Note_on_c, 7, 75, 66
1, 145808, Note_on_c, 4, 59, 0
1, 145808, Note_on_c, 15, 59, 0
1, 145809, Control_c, 7, 64, 0
1, 145828, Note_on_c, 7, 73, 0
1, 145900, Note_on_c, 7, 66, 0
1, 145905, Note_on_c, 12, 63, 0
1, 145908, Note_on_c, 5, 54, 0
1, 145919, Note_on_c, 7, 59, 0
1, 145919, Note_on_c, 5, 59, 0
1, 145922, Note_on_c, 7, 75, 0
1, 145924, Note_on_c, 1, 47, 0
1, 145926, Note_on_c, 7, 63, 0
1, 145927, Note_on_c, 1, 49, 76
1, 145927, Note_on_c, 4, 68, 50
1, 145927, Note_on_c, 4, 64, 33
1, 145927, Note_on_c, 5, 61, 58
1, 145927, Note_on_c, 5, 68, 76
1, 145927, Note_on_c, 5, 64, 84
1, 145927, Note_on_c, 7, 61, 64
1, 145927, Note_on_c, 7, 80, 72
1, 145927, Note_on_c, 8, 56, 76
1, 145927, Note_on_c, 9, 51, 58
1, 145927, Note_on_c, 12, 64, 84
1, 145927, Note_on_c, 14, 56, 66
1, 145927, Note_on_c, 14, 61, 78
1, 145927, Note_on_c, 15, 64, 1
1, 145927, Note_on_c, 15, 68, 1
1, 145930, Note_on_c, 0, 75, 0
1, 145932, Note_on_c, 8, 59, 0
1, 145936, Note_on_c, 0, 66, 0
1, 145945, Note_on_c, 0, 71, 0
1, 145954, Note_on_c, 5, 63, 0
1, 145966, Note_on_c, 5, 66, 0
1, 146003, Note_on_c, 11, 63, 0
1, 146014, Control_c, 7, 64, 127
1, 146025, Note_on_c, 7, 80, 0
1, 146045, Note_on_c, 9, 51, 0
1, 146047, Note_on_c, 11, 59, 0
1, 146047, Note_on_c, 7, 68, 58
1, 146047, Note_on_c, 7, 76, 72
1, 146099, Note_on_c, 7, 61, 0
1, 146130, Note_on_c, 14, 56, 0
1, 146145, Note_on_c, 7, 76, 0
1, 146167, Note_on_c, 7, 61, 68
1, 146167, Note_on_c, 7, 75, 72
1, 146167, Note_on_c, 14, 56, 36
1, 146192, Note_on_c, 14, 61, 0
1, 146240, Note_on_c, 7, 68, 0
1, 146261, Note_on_c, 7, 75, 0
1, 146287, Note_on_c, 7, 76, 78
1, 146287, Note_on_c, 7, 64, 82
1, 146287, Note_on_c, 11, 56, 49
1, 146328, Note_on_c, 14, 56, 0
1, 146400, Note_on_c, 7, 76, 0
1, 146407, Note_on_c, 7, 68, 68
1, 146407, Note_on_c, 7, 80, 93
1, 146407, Note_on_c, 11, 64, 64
1, 146407, Note_on_c, 11, 61, 72
1, 146407, Note_on_c, 14, 56, 64
1, 146407, Note_on_c, 14, 61, 78
1, 146448, Note_on_c, 7, 64, 0
1, 146469, Note_on_c, 11, 56, 0
1, 146520, Note_on_c, 7, 80, 0
1, 146527, Note_on_c, 7, 76, 78
1, 146575, Note_on_c, 14, 56, 0
1, 146647, Note_on_c, 0, 68, 70
1, 146647, Note_on_c, 0, 76, 74
1, 146647, Note_on_c, 0, 73, 72
1, 146647, Note_on_c, 7, 75, 68
1, 146647, Note_on_c, 14, 56, 55
1, 146651, Note_on_c, 7, 76, 0
1, 146651, Note_on_c, 14, 61, 0
1, 146765, Note_on_c, 7, 75, 0
1, 146767, Note_on_c, 7, 76, 62
1, 146792, Note_on_c, 14, 56, 0
1, 146861, Note_on_c, 7, 68, 0
1, 146863, Note_on_c, 12, 64, 0
1, 146866, Note_on_c, 7, 76, 0
1, 146867, Note_on_c, 4, 68, 0
1, 146867, Note_on_c, 15, 68, 0
1, 146882, Note_on_c, 15, 64, 0
1, 146882, Note_on_c, 4, 64, 0
1, 146884, Note_on_c, 1, 49, 0
1, 146887, Note_on_c, 0, 75, 64
1, 146887, Note_on_c, 0, 66, 70
1, 146887, Note_on_c, 0, 71, 55
1, 146887, Note_on_c, 1, 47, 74
1, 146887, Note_on_c, 4, 66, 37
1, 146887, Note_on_c, 4, 63, 29
1, 146887, Note_on_c, 5, 66, 78
1, 146887, Note_on_c, 5, 63, 82
1, 146887, Note_on_c, 5, 59, 72
1, 146887, Note_on_c, 7, 59, 62
1, 146887, Note_on_c, 7, 78, 82
1, 146887, Note_on_c, 8, 54, 64
1, 146887, Note_on_c, 12, 63, 82
1, 146887, Note_on_c, 14, 63, 68
1, 146887, Note_on_c, 14, 59, 66
1, 146887, Note_on_c, 15, 63, 1
1, 146887, Note_on_c, 15, 66, 1
1, 146889, Note_on_c, 7, 61, 0
1, 146891, Note_on_c, 5, 61, 0
1, 146898, Note_on_c, 5, 68, 0
1, 146900, Control_c, 7, 64, 0
1, 146901, Note_on_c, 0, 76, 0
1, 146907, Note_on_c, 5, 64, 0
1, 146910, Note_on_c, 8, 56, 0
1, 146924, Note_on_c, 0, 68, 0
1, 146936, Note_on_c, 11, 64, 0
1, 146941, Note_on_c, 0, 73, 0
1, 146981, Note_on_c, 11, 61, 0
1, 146993, Note_on_c, 0, 71, 0
1, 147004, Note_on_c, 0, 66, 0
1, 147007, Note_on_c, 0, 71, 62
1, 147007, Note_on_c, 0, 75, 72
1, 147007, Note_on_c, 0, 66, 84
1, 147007, Note_on_c, 7, 75, 64
1, 147007, Note_on_c, 7, 66, 54
1, 147010, Note_on_c, 0, 75, 0
1, 147017, Control_c, 7, 64, 127
1, 147027, Note_on_c, 7, 59, 0
1, 147057, Note_on_c, 7, 78, 0
1, 147120, Note_on_c, 14, 63, 0
1, 147127, Note_on_c, 7, 59, 66
1, 147127, Note_on_c, 7, 73, 74
1, 147137, Note_on_c, 14, 59, 0
1, 147146, Note_on_c, 7, 75, 0
1, 147147, Note_on_c, 7, 66, 0
1, 147247, Note_on_c, 7, 63, 64
1, 147247, Note_on_c, 7, 75, 74
1, 147247, Note_on_c, 11, 56, 16
1, 147259, Note_on_c, 7, 73, 0
1, 147342, Note_on_c, 11, 56, 0
1, 147367, Note_on_c, 7, 78, 87
1, 147367, Note_on_c, 7, 66, 78
1, 147367, Note_on_c, 11, 63, 72
1, 147367, Note_on_c, 11, 59, 61
1, 147367, Note_on_c, 14, 59, 76
1, 147367, Note_on_c, 14, 63, 72
1, 147384, Note_on_c, 7, 75, 0
1, 147388, Control_c, 7, 64, 0
1, 147487, Note_on_c, 7, 75, 74
1, 147506, Control_c, 7, 64, 127
1, 147580, Note_on_c, 7, 78, 0
1, 147607, Note_on_c, 7, 73, 54
1, 147629, Note_on_c, 7, 75, 0
1, 147641, Note_on_c, 14, 59, 0
1, 147659, Note_on_c, 14, 63, 0
1, 147723, Note_on_c, 7, 59, 0
1, 147727, Note_on_c, 7, 75, 50
1, 147757, Note_on_c, 7, 73, 0
1, 147760, Note_on_c, 12, 63, 0
1, 147773, Note_on_c, 7, 63, 0
1, 147828, Note_on_c, 7, 66, 0
1, 147830, Note_on_c, 7, 75, 0
1, 147844, Note_on_c, 1, 47, 0
1, 147847, Note_on_c, 0, 68, 57
1, 147847, Note_on_c, 0, 61, 51
1, 147847, Note_on_c, 0, 73, 23
1, 147847, Note_on_c, 1, 44, 74
1, 147847, Note_on_c, 4, 64, 40
1, 147847, Note_on_c, 4, 61, 35
1, 147847, Note_on_c, 5, 64, 76
1, 147847, Note_on_c, 5, 61, 55
1, 147847, Note_on_c, 5, 56, 66
1, 147847, Note_on_c, 7, 61, 70
1, 147847, Note_on_c, 7, 80, 80
1, 147847, Note_on_c, 8, 56, 64
1, 147847, Note_on_c, 9, 51, 58
1, 147847, Note_on_c, 12, 56, 55
1, 147847, Note_on_c, 12, 64, 64
1, 147847, Note_on_c, 14, 61, 72
1, 147847, Note_on_c, 14, 56, 64
1, 147847, Note_on_c, 15, 61, 1
1, 147847, Note_on_c, 15, 64, 1
1, 147848, Note_on_c, 0, 66, 0
1, 147857, Note_on_c, 0, 75, 0
1, 147859, Note_on_c, 5, 63, 0
1, 147880, Note_on_c, 5, 66, 0
1, 147885, Note_on_c, 4, 66, 0
1, 147885, Note_on_c, 15, 66, 0
1, 147888, Note_on_c, 11, 59, 0
1, 147889, Note_on_c, 8, 54, 0
1, 147893, Note_on_c, 5, 59, 0
1, 147895, Note_on_c, 11, 63, 0
1, 147910, Note_on_c, 0, 71, 0
1, 147923, Note_on_c, 15, 63, 0
1, 147923, Note_on_c, 4, 63, 0
1, 147965, Note_on_c, 9, 51, 0
1, 147967, Note_on_c, 7, 76, 87
1, 147967, Note_on_c, 7, 68, 58
1, 148000, Note_on_c, 7, 80, 0
1, 148003, Note_on_c, 7, 61, 0
1, 148039, Note_on_c, 14, 56, 0
1, 148080, Note_on_c, 7, 76, 0
1, 148087, Note_on_c, 7, 75, 84
1, 148087, Note_on_c, 7, 61, 68
1, 148087, Note_on_c, 14, 56, 51
1, 148118, Note_on_c, 14, 61, 0
1, 148174, Note_on_c, 7, 68, 0
1, 148207, Note_on_c, 7, 64, 72
1, 148207, Note_on_c, 7, 76, 87
1, 148225, Note_on_c, 7, 75, 0
1, 148280, Note_on_c, 14, 56, 0
1, 148327, Note_on_c, 7, 80, 87
1, 148327, Note_on_c, 7, 68, 87
1, 148327, Note_on_c, 11, 64, 68
1, 148327, Note_on_c, 11, 61, 55
1, 148327, Note_on_c, 14, 61, 66
1, 148327, Note_on_c, 14, 56, 46
1, 148349, Note_on_c, 7, 76, 0
1, 148350, Tempo, 869565
1, 148358, Note_on_c, 7, 64, 0
1, 148388, Tempo, 869565
1, 148425, Tempo, 882353
1, 148447, Note_on_c, 7, 76, 80
1, 148455, Tempo, 882353
1, 148474, Note_on_c, 7, 80, 0
1, 148483, Note_on_c, 14, 56, 0
1, 148493, Tempo, 895522
1, 148530, Tempo, 895522
1, 148553, Note_on_c, 14, 61, 0
1, 148560, Tempo, 895522
1, 148567, Note_on_c, 7, 75, 76
1, 148567, Note_on_c, 14, 56, 57
1, 148585, Note_on_c, 7, 76, 0
1, 148598, Tempo, 909091
1, 148628, Tempo, 909091
1, 148665, Tempo, 923077
1, 148687, Note_on_c, 7, 76, 78
1, 148703, Tempo, 923077
1, 148703, Note_on_c, 7, 75, 0
1, 148733, Tempo, 937500
1, 148752, Note_on_c, 14, 56, 0
1, 148770, Tempo, 937500
1, 148774, Note_on_c, 8, 56, 0
1, 148778, Tempo, 937500
1, 148779, Note_on_c, 7, 61, 0
1, 148793, Tempo, 937500
1, 148804, Note_on_c, 1, 44, 0
1, 148807, Note_on_c, 1, 42, 62
1, 148807, Note_on_c, 4, 63, 44
1, 148807, Note_on_c, 4, 59, 40
1, 148807, Note_on_c, 5, 63, 64
1, 148807, Note_on_c, 5, 59, 59
1, 148807, Note_on_c, 5, 54, 70
1, 148807, Note_on_c, 7, 78, 87
1, 148807, Note_on_c, 7, 59, 64
1, 148807, Note_on_c, 8, 54, 49
1, 148807, Note_on_c, 12, 63, 55
1, 148807, Note_on_c, 12, 54, 66
1, 148807, Note_on_c, 14, 59, 64
1, 148807, Note_on_c, 14, 63, 72
1, 148807, Note_on_c, 15, 59, 1
1, 148807, Note_on_c, 15, 63, 1
1, 148808, Tempo, 952381
1, 148808, Note_on_c, 5, 64, 0
1, 148813, Note_on_c, 7, 68, 0
1, 148823, Tempo, 952381
1, 148824, Note_on_c, 7, 76, 0
1, 148830, Tempo, 967742
1, 148845, Tempo, 967742
1, 148847, Note_on_c, 12, 64, 0
1, 148850, Note_on_c, 5, 56, 0
1, 148851, Note_on_c, 15, 64, 0
1, 148851, Note_on_c, 4, 64, 0
1, 148851, Note_on_c, 12, 56, 0
1, 148858, Control_c, 5, 11, 127
1, 148860, Tempo, 967742
1, 148863, Note_on_c, 5, 61, 0
1, 148863, Note_on_c, 4, 61, 0
1, 148863, Note_on_c, 15, 61, 0
1, 148872, Note_on_c, 0, 68, 0
1, 148873, Control_c, 5, 11, 126
1, 148875, Tempo, 983607
1, 148876, Note_on_c, 0, 73, 0
1, 148883, Tempo, 983607
1, 148883, Control_c, 5, 11, 125
1, 148894, Control_c, 5, 11, 124
1, 148898, Tempo, 1000000
1, 148904, Control_c, 5, 11, 123
1, 148913, Tempo, 1000000
1, 148914, Control_c, 5, 11, 122
1, 148920, Tempo, 1000000
1, 148924, Control_c, 5, 11, 121
1, 148927, Note_on_c, 7, 66, 62
1, 148927, Note_on_c, 7, 75, 87
1, 148927, Control_c, 8, 11, 126
1, 148930, Note_on_c, 9, 57, 1
1, 148935, Tempo, 1016949
1, 148935, Control_c, 5, 11, 120
1, 148945, Control_c, 5, 11, 119
1, 148947, Control_c, 8, 11, 125
1, 148950, Tempo, 1016949
1, 148954, Note_on_c, 9, 49, 1
1, 148955, Control_c, 5, 11, 118
1, 148956, Note_on_c, 9, 57, 1
1, 148963, Control_c, 8, 11, 124
1, 148965, Tempo, 1016949
1, 148965, Control_c, 5, 11, 117
1, 148968, Note_on_c, 9, 57, 0
1, 148972, Note_on_c, 7, 78, 0
1, 148973, Tempo, 1034483
1, 148975, Control_c, 5, 11, 116
1, 148978, Control_c, 8, 11, 123
1, 148981, Note_on_c, 9, 49, 1
1, 148986, Control_c, 5, 11, 115
1, 148988, Tempo, 1034483
1, 148992, Note_on_c, 9, 49, 0
1, 148994, Note_on_c, 9, 57, 0
1, 148994, Note_on_c, 9, 57, 1
1, 148996, Control_c, 5, 11, 114
1, 148998, Control_c, 8, 11, 122
1, 149003, Tempo, 1052632
1, 149006, Control_c, 5, 11, 113
1, 149010, Tempo, 1052632
1, 149014, Control_c, 8, 11, 121
1, 149016, Control_c, 5, 11, 112
1, 149018, Note_on_c, 9, 49, 2
1, 149019, Note_on_c, 9, 49, 0
1, 149020, Note_on_c, 9, 57, 2
1, 149025, Tempo, 1071429
1, 149025, Note_on_c, 14, 63, 0
1, 149026, Control_c, 5, 11, 111
1, 149027, Note_on_c, 7, 59, 0
1, 149029, Control_c, 8, 11, 120
1, 149032, Note_on_c, 9, 57, 0
1, 149037, Control_c, 5, 11, 110
1, 149040, Tempo, 1071429
1, 149044, Control_c, 8, 11, 119
1, 149045, Note_on_c, 9, 49, 3
1, 149047, Control_c, 5, 11, 109
1, 149047, Note_on_c, 7, 73, 74
1, 149047, Note_on_c, 7, 59, 84
1, 149047, Note_on_c, 14, 54, 41
1, 149048, Note_on_c, 7, 66, 0
1, 149052, Note_on_c, 9, 57, 3
1, 149055, Tempo, 1071429
1, 149056, Note_on_c, 9, 49, 0
1, 149057, Control_c, 5, 11, 108
1, 149058, Note_on_c, 9, 57, 0
1, 149063, Tempo, 1090909
1, 149064, Note_on_c, 9, 57, 3
1, 149065, Control_c, 8, 11, 118
1, 149067, Note_on_c, 7, 75, 0
1, 149067, Control_c, 5, 11, 107
1, 149077, Control_c, 5, 11, 106
1, 149078, Tempo, 1090909
1, 149078, Note_on_c, 9, 57, 3
1, 149080, Control_c, 8, 11, 117
1, 149083, Note_on_c, 9, 49, 0
1, 149088, Control_c, 5, 11, 105
1, 149089, Note_on_c, 9, 49, 4
1, 149090, Note_on_c, 9, 57, 0
1, 149093, Tempo, 1090909
1, 149094, Note_on_c, 9, 49, 4
1, 149095, Control_c, 8, 11, 116
1, 149096, Note_on_c, 14, 59, 0
1, 149098, Control_c, 5, 11, 104
1, 149100, Tempo, 1111111
1, 149102, Note_on_c, 9, 57, 0
1, 149108, Control_c, 5, 11, 103
1, 149111, Control_c, 8, 11, 115
1, 149115, Tempo, 1111111
1, 149116, Note_on_c, 9, 57, 0
1, 149116, Note_on_c, 9, 57, 4
1, 149118, Control_c, 5, 11, 102
1, 149120, Note_on_c, 9, 49, 4
1, 149127, Note_on_c, 9, 49, 0
1, 149129, Control_c, 5, 11, 101
1, 149130, Tempo, 1132075
1, 149131, Control_c, 8, 11, 114
1, 149132, Note_on_c, 9, 49, 0
1, 149139, Control_c, 5, 11, 100
1, 149142, Note_on_c, 9, 57, 5
1, 149145, Tempo, 1132075
1, 149146, Control_c, 8, 11, 113
1, 149153, Tempo, 1132075
1, 149154, Note_on_c, 9, 57, 0
1, 149154, Control_c, 5, 11, 99
1, 149158, Note_on_c, 9, 49, 0
1, 149158, Note_on_c, 9, 49, 5
1, 149162, Control_c, 8, 11, 112
1, 149164, Control_c, 5, 11, 98
1, 149167, Note_on_c, 7, 75, 72
1, 149167, Note_on_c, 7, 63, 68
1, 149168, Tempo, 1153846
1, 149170, Note_on_c, 14, 54, 0
1, 149175, Control_c, 5, 11, 97
1, 149177, Control_c, 8, 11, 111
1, 149179, Note_on_c, 11, 61, 0
1, 149180, Note_on_c, 9, 57, 0
1, 149183, Tempo, 1153846
1, 149184, Note_on_c, 9, 49, 6
1, 149185, Control_c, 5, 11, 96
1, 149186, Note_on_c, 9, 57, 6
1, 149191, Note_on_c, 7, 73, 0
1, 149195, Control_c, 5, 11, 95
1, 149196, Note_on_c, 9, 49, 0
1, 149197, Control_c, 8, 11, 110
1, 149198, Tempo, 1176471
1, 149205, Tempo, 1176471
1, 149205, Control_c, 5, 11, 94
1, 149213, Control_c, 8, 11, 109
1, 149213, Note_on_c, 9, 57, 7
1, 149215, Control_c, 5, 11, 93
1, 149220, Tempo, 1200000
1, 149222, Note_on_c, 9, 49, 0
1, 149224, Note_on_c, 9, 57, 0
1, 149226, Control_c, 5, 11, 92
1, 149228, Control_c, 8, 11, 108
1, 149228, Note_on_c, 9, 49, 7
1, 149235, Tempo, 1200000
1, 149236, Control_c, 5, 11, 91
1, 149243, Tempo, 1200000
1, 149243, Control_c, 8, 11, 107
1, 149244, Note_on_c, 0, 61, 0
1, 149244, Note_on_c, 9, 57, 7
1, 149246, Control_c, 5, 11, 90
1, 149251, Note_on_c, 9, 57, 0
1, 149255, Note_on_c, 9, 49, 7
1, 149256, Note_on_c, 11, 64, 0
1, 149256, Control_c, 5, 11, 89
1, 149258, Tempo, 1224490
1, 149264, Control_c, 8, 11, 106
1, 149266, Note_on_c, 9, 49, 0
1, 149266, Control_c, 5, 11, 88
1, 149270, Note_on_c, 9, 57, 8
1, 149273, Tempo, 1250000
1, 149277, Control_c, 5, 11, 87
1, 149279, Control_c, 8, 11, 105
1, 149282, Note_on_c, 9, 57, 0
1, 149286, Note_on_c, 9, 49, 8
1, 149287, Note_on_c, 5, 47, 24
1, 149287, Note_on_c, 5, 51, 51
1, 149287, Control_c, 5, 11, 86
1, 149287, Note_on_c, 7, 66, 74
1, 149287, Note_on_c, 7, 78, 93
1, 149287, Note_on_c, 11, 66, 51
1, 149287, Note_on_c, 11, 63, 54
1, 149287, Note_on_c, 14, 59, 76
1, 149287, Note_on_c, 14, 63, 72
1, 149288, Tempo, 1250000
1, 149293, Note_on_c, 9, 49, 0
1, 149295, Control_c, 8, 11, 104
1, 149296, Note_on_c, 9, 49, 8
1, 149297, Control_c, 5, 11, 85
1, 149301, Note_on_c, 5, 63, 0
1, 149303, Tempo, 1250000
1, 149307, Control_c, 5, 11, 84
1, 149308, Note_on_c, 9, 57, 0
1, 149308, Note_on_c, 9, 57, 9
1, 149310, Control_c, 8, 11, 103
1, 149311, Note_on_c, 7, 75, 0
1, 149317, Control_c, 5, 11, 83
1, 149318, Tempo, 1276596
1, 149324, Note_on_c, 9, 49, 0
1, 149328, Control_c, 5, 11, 82
1, 149330, Control_c, 8, 11, 102
1, 149333, Tempo, 1276596
1, 149334, Note_on_c, 9, 49, 0
1, 149334, Note_on_c, 9, 57, 9
1, 149338, Control_c, 5, 11, 81
1, 149346, Note_on_c, 9, 57, 0
1, 149346, Control_c, 8, 11, 101
1, 149348, Tempo, 1304348
1, 149348, Control_c, 5, 11, 80
1, 149350, Note_on_c, 9, 49, 10
1, 149358, Control_c, 5, 11, 79
1, 149361, Note_on_c, 7, 63, 0
1, 149361, Control_c, 8, 11, 100
1, 149363, Tempo, 1304348
1, 149366, Note_on_c, 9, 57, 10
1, 149369, Control_c, 5, 11, 78
1, 149372, Note_on_c, 9, 57, 0
1, 149376, Control_c, 8, 11, 99
1, 149376, Note_on_c, 9, 49, 10
1, 149378, Tempo, 1304348
1, 149379, Control_c, 5, 11, 77
1, 149388, Note_on_c, 9, 49, 0
1, 149389, Control_c, 5, 11, 76
1, 149392, Note_on_c, 9, 57, 11
1, 149393, Tempo, 1333333
1, 149396, Note_on_c, 9, 49, 11
1, 149397, Control_c, 8, 11, 98
1, 149399, Control_c, 5, 11, 75
1, 149404, Note_on_c, 9, 57, 0
1, 149407, Note_on_c, 7, 75, 76
1, 149408, Tempo, 1333333
1, 149408, Note_on_c, 9, 49, 11
1, 149409, Control_c, 5, 11, 74
1, 149412, Control_c, 8, 11, 97
1, 149412, Note_on_c, 9, 57, 11
1, 149414, Note_on_c, 9, 49, 0
1, 149420, Control_c, 5, 11, 73
1, 149423, Tempo, 1333333
1, 149423, Note_on_c, 9, 49, 11
1, 149427, Control_c, 8, 11, 96
1, 149430, Note_on_c, 9, 57, 0
1, 149434, Note_on_c, 9, 49, 0
1, 149434, Note_on_c, 9, 49, 12
1, 149435, Control_c, 5, 11, 72
1, 149436, Note_on_c, 9, 57, 12
1, 149438, Tempo, 1363636
1, 149438, Note_on_c, 9, 57, 12
1, 149443, Control_c, 8, 11, 95
1, 149445, Control_c, 5, 11, 71
1, 149446, Note_on_c, 9, 49, 0
1, 149450, Note_on_c, 9, 57, 0
1, 149453, Tempo, 1363636
1, 149454, Note_on_c, 7, 78, 0
1, 149454, Note_on_c, 9, 49, 12
1, 149455, Control_c, 5, 11, 70
1, 149461, Note_on_c, 9, 49, 0
1, 149462, Note_on_c, 9, 57, 12
1, 149463, Control_c, 8, 11, 94
1, 149464, Note_on_c, 9, 49, 12
1, 149466, Control_c, 5, 11, 69
1, 149468, Tempo, 1395349
1, 149472, Note_on_c, 9, 49, 0
1, 149474, Note_on_c, 9, 57, 0
1, 149476, Note_on_c, 9, 57, 0
1, 149476, Control_c, 5, 11, 68
1, 149476, Note_on_c, 9, 57, 13
1, 149477, Pitch_bend_c, 1, 8094
1, 149478, Control_c, 8, 11, 93
1, 149483, Tempo, 1395349
1, 149486, Pitch_bend_c, 1, 7798
1, 149486, Control_c, 5, 11, 67
1, 149492, Note_on_c, 9, 49, 0
1, 149494, Control_c, 8, 11, 92
1, 149496, Pitch_bend_c, 1, 7403
1, 149496, Control_c, 5, 11, 66
1, 149498, Tempo, 1428571
1, 149500, Note_on_c, 9, 57, 0
1, 149502, Note_on_c, 9, 49, 0
1, 149502, Note_on_c, 9, 57, 13
1, 149505, Pitch_bend_c, 1, 7156
1, 149506, Control_c, 5, 11, 65
1, 149509, Control_c, 8, 11, 91
1, 149513, Tempo, 1428571
1, 149513, Pitch_bend_c, 1, 6910
1, 149514, Note_on_c, 9, 57, 0
1, 149517, Note_on_c, 7, 75, 0
1, 149517, Control_c, 5, 11, 64
1, 149518, Note_on_c, 9, 49, 14
1, 149527, Control_c, 5, 11, 63
1, 149527, Note_on_c, 7, 75, 96
1, 149527, Note_on_c, 7, 73, 96
1, 149527, Note_on_c, 7, 73, 70
1, 149527, Note_on_c, 14, 54, 38
1, 149528, Tempo, 1428571
1, 149529, Control_c, 8, 11, 90
1, 149530, Note_on_c, 9, 57, 14
1, 149533, Pitch_bend_c, 1, 6688
1, 149534, Note_on_c, 9, 57, 14
1, 149537, Control_c, 5, 11, 62
1, 149540, Note_on_c, 9, 57, 0
1, 149543, Tempo, 1463415
1, 149543, Note_on_c, 14, 63, 0
1, 149544, Note_on_c, 9, 49, 14
1, 149545, Control_c, 8, 11, 89
1, 149547, Control_c, 5, 11, 61
1, 149551, Pitch_bend_c, 1, 6441
1, 149554, Note_on_c, 9, 49, 14
1, 149556, Note_on_c, 9, 49, 0
1, 149556, Note_on_c, 9, 57, 14
1, 149557, Control_c, 5, 11, 60
1, 149558, Tempo, 1463415
1, 149560, Control_c, 8, 11, 88
1, 149560, Note_on_c, 9, 57, 15
1, 149561, Pitch_bend_c, 1, 6317
1, 149568, Note_on_c, 9, 57, 0
1, 149568, Control_c, 5, 11, 59
1, 149570, Pitch_bend_c, 1, 6120
1, 149572, Note_on_c, 14, 59, 0
1, 149572, Note_on_c, 9, 57, 0
1, 149573, Tempo, 1500000
1, 149575, Control_c, 8, 11, 87
1, 149576, Note_on_c, 9, 49, 15
1, 149578, Control_c, 5, 11, 58
1, 149579, Pitch_bend_c, 1, 5923
1, 149581, Note_on_c, 9, 49, 15
1, 149582, Note_on_c, 9, 49, 0
1, 149588, Tempo, 1500000
1, 149588, Control_c, 5, 11, 57
1, 149589, Pitch_bend_c, 1, 5651
1, 149592, Note_on_c, 9, 49, 0
1, 149594, Note_on_c, 9, 57, 0
1, 149594, Note_on_c, 9, 57, 15
1, 149595, Tempo, 1500000
1, 149596, Control_c, 8, 11, 86
1, 149597, Pitch_bend_c, 1, 5380
1, 149598, Note_on_c, 9, 57, 0
1, 149598, Control_c, 5, 11, 56
1, 149602, Note_on_c, 9, 49, 15
1, 149604, Note_on_c, 9, 57, 15
1, 149607, Pitch_bend_c, 1, 5133
1, 149609, Control_c, 5, 11, 55
1, 149611, Control_c, 8, 11, 85
1, 149614, Note_on_c, 9, 49, 0
1, 149616, Pitch_bend_c, 1, 4738
1, 149618, Note_on_c, 9, 49, 16
1, 149619, Note_on_c, 9, 49, 0
1, 149619, Control_c, 5, 11, 54
1, 149620, Note_on_c, 9, 57, 16
1, 149622, Note_on_c, 14, 54, 0
1, 149626, Pitch_bend_c, 1, 4319
1, 149626, Control_c, 8, 11, 84
1, 149629, Control_c, 5, 11, 53
1, 149630, Note_on_c, 9, 57, 16
1, 149632, Note_on_c, 9, 57, 0
1, 149635, Pitch_bend_c, 1, 4072
1, 149639, Control_c, 5, 11, 52
1, 149640, Note_on_c, 9, 49, 0
1, 149642, Note_on_c, 9, 57, 0
1, 149642, Control_c, 8, 11, 83
1, 149644, Pitch_bend_c, 1, 3826
1, 149645, Note_on_c, 9, 49, 16
1, 149647, Note_on_c, 7, 68, 70
1, 149649, Control_c, 5, 11, 51
1, 149652, Note_on_c, 9, 57, 17
1, 149654, Note_on_c, 12, 54, 0
1, 149654, Pitch_bend_c, 1, 3530
1, 149656, Note_on_c, 9, 49, 0
1, 149658, Note_on_c, 9, 57, 0
1, 149660, Control_c, 5, 11, 50
1, 149662, Control_c, 8, 11, 82
1, 149663, Note_on_c, 7, 73, 0
1, 149663, Note_on_c, 7, 75, 0
1, 149663, Note_on_c, 7, 73, 0
1, 149663, Pitch_bend_c, 1, 3110
1, 149664, Note_on_c, 9, 57, 17
1, 149668, Note_on_c, 9, 57, 0
1, 149670, Control_c, 5, 11, 49
1, 149671, Note_on_c, 12, 63, 0
1, 149672, Pitch_bend_c, 1, 2740
1, 149677, Control_c, 8, 11, 81
1, 149678, Note_on_c, 11, 66, 0
1, 149678, Note_on_c, 9, 57, 17
1, 149680, Control_c, 5, 11, 48
1, 149682, Note_on_c, 11, 63, 0
1, 149682, Pitch_bend_c, 1, 2518
1, 149683, Note_on_c, 9, 49, 0
1, 149689, Note_on_c, 9, 49, 17
1, 149690, Note_on_c, 9, 57, 0
1, 149690, Control_c, 5, 11, 47
1, 149691, Pitch_bend_c, 1, 2074
1, 149693, Control_c, 8, 11, 80
1, 149694, Note_on_c, 9, 49, 18
1, 149700, Pitch_bend_c, 1, 1655
1, 149700, Control_c, 5, 11, 46
1, 149702, Note_on_c, 9, 57, 0
1, 149708, Control_c, 8, 11, 79
1, 149709, Pitch_bend_c, 1, 1235
1, 149712, Note_on_c, 5, 54, 0
1, 149716, Note_on_c, 9, 57, 0
1, 149716, Note_on_c, 9, 57, 18
1, 149719, Pitch_bend_c, 1, 766
1, 149720, Note_on_c, 9, 49, 18
1, 149727, Note_on_c, 9, 49, 0
1, 149728, Pitch_bend_c, 1, 322
1, 149732, Note_on_c, 9, 49, 0
1, 149737, Pitch_bend_c, 1, 520
1, 149742, Note_on_c, 9, 57, 19
1, 149743, Note_on_c, 4, 63, 0
1, 149743, Note_on_c, 15, 63, 0
1, 149746, Control_c, 5, 11, 46
1, 149747, Pitch_bend_c, 1, 4738
1, 149754, Note_on_c, 9, 57, 0
1, 149754, Control_c, 8, 11, 76
1, 149756, Pitch_bend_c, 1, 8192
1, 149757, Control_c, 5, 11, 47
1, 149758, Note_on_c, 9, 49, 0
1, 149758, Note_on_c, 9, 49, 19
1, 149762, Note_on_c, 7, 66, 0
1, 149762, Control_c, 5, 11, 48
1, 149762, Note_on_c, 11, 61, 62
1, 149764, Note_on_c, 1, 42, 0
1, 149767, Note_on_c, 1, 37, 82
1, 149767, Note_on_c, 4, 64, 40
1, 149767, Note_on_c, 4, 49, 28
1, 149767, Note_on_c, 5, 64, 57
1, 149767, Note_on_c, 5, 61, 66
1, 149767, Note_on_c, 5, 56, 55
1, 149767, Note_on_c, 5, 49, 76
1, 149767, Control_c, 5, 11, 49
1, 149767, Note_on_c, 7, 64, 48
1, 149767, Note_on_c, 7, 73, 58
1, 149767, Note_on_c, 7, 61, 49
1, 149767, Note_on_c, 7, 37, 78
1, 149767, Note_on_c, 8, 49, 44
1, 149767, Note_on_c, 12, 64, 74
1, 149767, Note_on_c, 12, 49, 57
1, 149767, Note_on_c, 15, 49, 1
1, 149767, Note_on_c, 15, 64, 1
1, 149768, Note_on_c, 14, 49, 84
1, 149769, Control_c, 8, 11, 77
1, 149770, Note_on_c, 9, 57, 20
1, 149772, Control_c, 5, 11, 50
1, 149777, Control_c, 5, 11, 51
1, 149780, Note_on_c, 9, 57, 0
1, 149780, Control_c, 8, 11, 78
1, 149781, Note_on_c, 7, 59, 0
1, 149782, Note_on_c, 5, 47, 0
1, 149782, Control_c, 5, 11, 52
1, 149784, Note_on_c, 9, 49, 20
1, 149786, Note_on_c, 8, 54, 0
1, 149786, Note_on_c, 9, 57, 19
1, 149787, Control_c, 5, 11, 53
1, 149790, Control_c, 8, 11, 79
1, 149792, Control_c, 5, 11, 54
1, 149794, Note_on_c, 9, 49, 19
1, 149796, Note_on_c, 9, 49, 0
1, 149796, Note_on_c, 9, 57, 19
1, 149797, Note_on_c, 5, 51, 0
1, 149797, Control_c, 5, 11, 55
1, 149800, Control_c, 8, 11, 80
1, 149803, Control_c, 5, 11, 56
1, 149807, Note_on_c, 7, 68, 0
1, 149808, Note_on_c, 9, 57, 0
1, 149808, Control_c, 5, 11, 57
1, 149813, Control_c, 5, 11, 58
1, 149813, Note_on_c, 9, 57, 18
1, 149815, Control_c, 8, 11, 81
1, 149818, Note_on_c, 5, 59, 0
1, 149818, Control_c, 5, 11, 59
1, 149821, Note_on_c, 9, 49, 18
1, 149822, Note_on_c, 9, 49, 0
1, 149823, Control_c, 5, 11, 60
1, 149824, Note_on_c, 9, 57, 0
1, 149826, Control_c, 8, 11, 82
1, 149828, Control_c, 5, 11, 61
1, 149828, Note_on_c, 9, 49, 18
1, 149832, Note_on_c, 9, 49, 0
1, 149833, Control_c, 5, 11, 62
1, 149834, Note_on_c, 9, 57, 0
1, 149834, Note_on_c, 9, 57, 17
1, 149836, Control_c, 8, 11, 83
1, 149838, Control_c, 5, 11, 63
1, 149843, Control_c, 5, 11, 64
1, 149844, Note_on_c, 9, 57, 17
1, 149846, Control_c, 8, 11, 84
1, 149849, Control_c, 5, 11, 65
1, 149851, Note_on_c, 9, 57, 0
1, 149854, Control_c, 5, 11, 66
1, 149858, Note_on_c, 9, 49, 16
1, 149859, Note_on_c, 9, 49, 0
1, 149859, Control_c, 5, 11, 67
1, 149860, Note_on_c, 9, 57, 16
1, 149861, Control_c, 8, 11, 85
1, 149863, Note_on_c, 15, 59, 0
1, 149863, Note_on_c, 4, 59, 0
1, 149864, Control_c, 5, 11, 68
1, 149866, Note_on_c, 9, 49, 0
1, 149869, Control_c, 5, 11, 69
1, 149872, Note_on_c, 9, 57, 0
1, 149872, Control_c, 8, 11, 86
1, 149874, Control_c, 5, 11, 70
1, 149879, Control_c, 5, 11, 71
1, 149882, Note_on_c, 9, 57, 0
1, 149882, Control_c, 8, 11, 87
1, 149884, Control_c, 5, 11, 72
1, 149885, Note_on_c, 9, 49, 15
1, 149889, Control_c, 5, 11, 73
1, 149892, Control_c, 8, 11, 88
1, 149892, Note_on_c, 9, 57, 15
1, 149895, Control_c, 5, 11, 74
1, 149896, Note_on_c, 9, 49, 0
1, 149898, Note_on_c, 9, 57, 0
1, 149900, Control_c, 5, 11, 75
1, 149904, Note_on_c, 9, 57, 14
1, 149905, Control_c, 5, 11, 76
1, 149907, Control_c, 8, 11, 89
1, 149907, Note_on_c, 11, 68, 46
1, 149910, Control_c, 5, 11, 77
1, 149915, Control_c, 5, 11, 78
1, 149917, Control_c, 8, 11, 90
1, 149918, Note_on_c, 9, 57, 14
1, 149918, Note_on_c, 14, 56, 76
1, 149920, Control_c, 5, 11, 79
1, 149923, Note_on_c, 9, 49, 0
1, 149925, Control_c, 5, 11, 80
1, 149926, Note_on_c, 9, 51, 38
1, 149928, Control_c, 8, 11, 91
1, 149929, Note_on_c, 9, 49, 13
1, 149930, Note_on_c, 9, 57, 0
1, 149930, Control_c, 5, 11, 81
1, 149934, Note_on_c, 9, 49, 13
1, 149935, Control_c, 5, 11, 82
1, 149938, Control_c, 8, 11, 92
1, 149940, Control_c, 5, 11, 83
1, 149942, Note_on_c, 9, 57, 0
1, 149946, Control_c, 5, 11, 84
1, 149948, Control_c, 8, 11, 93
1, 149951, Control_c, 5, 11, 85
1, 149956, Note_on_c, 9, 57, 0
1, 149956, Note_on_c, 9, 57, 12
1, 149960, Note_on_c, 9, 49, 12
1, 149961, Control_c, 5, 11, 86
1, 149963, Control_c, 8, 11, 94
1, 149966, Control_c, 5, 11, 87
1, 149967, Note_on_c, 9, 49, 0
1, 149970, Note_on_c, 9, 51, 0
1, 149971, Control_c, 5, 11, 88
1, 149972, Note_on_c, 9, 49, 0
1, 149974, Control_c, 8, 11, 95
1, 149976, Control_c, 5, 11, 89
1, 149981, Control_c, 5, 11, 90
1, 149982, Note_on_c, 9, 57, 11
1, 149984, Control_c, 8, 11, 96
1, 149986, Control_c, 5, 11, 91
1, 149992, Control_c, 5, 11, 92
1, 149994, Note_on_c, 9, 57, 0
1, 149994, Control_c, 8, 11, 97
1, 149997, Control_c, 5, 11, 93
1, 149998, Note_on_c, 9, 49, 0
1, 149998, Note_on_c, 9, 49, 10
1, 150002, Control_c, 5, 11, 94
1, 150007, Control_c, 5, 11, 95
1, 150009, Control_c, 8, 11, 98
1, 150012, Control_c, 5, 11, 96
1, 150017, Control_c, 5, 11, 97
1, 150020, Note_on_c, 9, 57, 0
1, 150020, Control_c, 8, 11, 99
1, 150022, Control_c, 5, 11, 98
1, 150024, Note_on_c, 9, 49, 9
1, 150026, Note_on_c, 9, 57, 9
1, 150027, Control_c, 5, 11, 99
1, 150030, Control_c, 8, 11, 100
1, 150032, Control_c, 5, 11, 100
1, 150036, Note_on_c, 9, 49, 0
1, 150037, Control_c, 5, 11, 101
1, 150040, Control_c, 8, 11, 101
1, 150043, Control_c, 5, 11, 102
1, 150048, Control_c, 5, 11, 103
1, 150053, Control_c, 5, 11, 104
1, 150053, Note_on_c, 9, 57, 8
1, 150055, Control_c, 8, 11, 102
1, 150056, Note_on_c, 9, 59, 44
1, 150058, Control_c, 5, 11, 105
1, 150058, Note_on_c, 11, 73, 57
1, 150058, Note_on_c, 14, 61, 64
1, 150062, Note_on_c, 9, 49, 0
1, 150063, Control_c, 5, 11, 106
1, 150064, Note_on_c, 9, 57, 0
1, 150066, Control_c, 8, 11, 103
1, 150068, Control_c, 5, 11, 107
1, 150068, Note_on_c, 9, 49, 7
1, 150073, Control_c, 5, 11, 108
1, 150076, Control_c, 8, 11, 104
1, 150078, Control_c, 5, 11, 109
1, 150083, Control_c, 5, 11, 110
1, 150084, Note_on_c, 9, 57, 7
1, 150086, Control_c, 8, 11, 105
1, 150089, Control_c, 5, 11, 111
1, 150091, Note_on_c, 9, 57, 0
1, 150094, Control_c, 5, 11, 112
1, 150099, Control_c, 5, 11, 113
1, 150101, Control_c, 8, 11, 106
1, 150104, Note_on_c, 9, 59, 0
1, 150104, Control_c, 5, 11, 114
1, 150106, Note_on_c, 9, 49, 0
1, 150109, Control_c, 5, 11, 115
1, 150112, Control_c, 8, 11, 107
1, 150114, Control_c, 5, 11, 116
1, 150119, Control_c, 5, 11, 117
1, 150122, Note_on_c, 9, 57, 0
1, 150122, Control_c, 8, 11, 108
1, 150124, Control_c, 5, 11, 118
1, 150129, Control_c, 5, 11, 119
1, 150132, Control_c, 8, 11, 109
1, 150135, Control_c, 5, 11, 120
1, 150140, Control_c, 5, 11, 121
1, 150142, Control_c, 8, 11, 110
1, 150145, Control_c, 5, 11, 122
1, 150150, Control_c, 5, 11, 123
1, 150155, Control_c, 5, 11, 124
1, 150157, Control_c, 8, 11, 111
1, 150168, Control_c, 8, 11, 112
1, 150178, Control_c, 8, 11, 113
1, 150188, Control_c, 8, 11, 114
1, 150200, Note_on_c, 11, 76, 72
1, 150201, Note_on_c, 9, 51, 24
1, 150202, Note_on_c, 14, 64, 84
1, 150203, Control_c, 8, 11, 115
1, 150214, Control_c, 8, 11, 116
1, 150224, Control_c, 8, 11, 117
1, 150234, Control_c, 8, 11, 118
1, 150237, Note_on_c, 9, 51, 0
1, 150249, Control_c, 8, 11, 119
1, 150260, Control_c, 8, 11, 120
1, 150270, Control_c, 8, 11, 121
1, 150280, Control_c, 8, 11, 122
1, 150295, Control_c, 8, 11, 123
1, 150306, Control_c, 8, 11, 124
1, 150316, Control_c, 8, 11, 125
1, 150326, Control_c, 8, 11, 126
1, 150336, Control_c, 8, 11, 127
1, 150351, Note_on_c, 9, 59, 19
1, 150354, Note_on_c, 14, 68, 87
1, 150357, Note_on_c, 11, 80, 54
1, 150423, Note_on_c, 9, 59, 0
1, 150586, Control_c, 4, 11, 125
1, 150602, Control_c, 4, 11, 124
1, 150612, Control_c, 4, 11, 123
1, 150622, Control_c, 4, 11, 122
1, 150637, Control_c, 4, 11, 121
1, 150648, Control_c, 4, 11, 120
1, 150658, Control_c, 4, 11, 119
1, 150668, Control_c, 4, 11, 118
1, 150683, Control_c, 4, 11, 117
1, 150694, Control_c, 4, 11, 116
1, 150704, Control_c, 4, 11, 115
1, 150714, Control_c, 4, 11, 114
1, 150729, Control_c, 4, 11, 113
1, 150740, Control_c, 4, 11, 112
1, 150748, Control_c, 5, 11, 126
1, 150750, Control_c, 4, 11, 111
1, 150764, Control_c, 5, 11, 125
1, 150765, Control_c, 4, 11, 110
1, 150775, Control_c, 4, 11, 109
1, 150779, Control_c, 5, 11, 124
1, 150786, Control_c, 4, 11, 108
1, 150789, Control_c, 5, 11, 123
1, 150796, Control_c, 4, 11, 107
1, 150805, Control_c, 5, 11, 122
1, 150811, Control_c, 4, 11, 106
1, 150815, Control_c, 5, 11, 121
1, 150821, Control_c, 4, 11, 105
1, 150830, Control_c, 5, 11, 120
1, 150832, Control_c, 4, 11, 104
1, 150840, Control_c, 5, 11, 119
1, 150842, Control_c, 4, 11, 103
1, 150856, Control_c, 5, 11, 118
1, 150857, Control_c, 4, 11, 102
1, 150866, Control_c, 5, 11, 117
1, 150867, Control_c, 4, 11, 101
1, 150877, Control_c, 4, 11, 100
1, 150881, Control_c, 5, 11, 116
1, 150888, Control_c, 4, 11, 99
1, 150896, Control_c, 5, 11, 115
1, 150903, Control_c, 4, 11, 98
1, 150907, Control_c, 5, 11, 114
1, 150913, Control_c, 4, 11, 97
1, 150922, Control_c, 5, 11, 113
1, 150923, Control_c, 4, 11, 96
1, 150932, Control_c, 5, 11, 112
1, 150939, Control_c, 4, 11, 95
1, 150948, Control_c, 5, 11, 111
1, 150949, Control_c, 4, 11, 94
1, 150958, Control_c, 5, 11, 110
1, 150959, Control_c, 4, 11, 93
1, 150969, Control_c, 4, 11, 92
1, 150973, Control_c, 5, 11, 109
1, 150983, Control_c, 5, 11, 108
1, 150985, Control_c, 4, 11, 91
1, 150995, Control_c, 4, 11, 90
1, 150999, Control_c, 5, 11, 107
1, 151000, Control_c, 8, 11, 125
1, 151005, Control_c, 4, 11, 89
1, 151009, Control_c, 5, 11, 106
1, 151010, Control_c, 8, 11, 124
1, 151015, Control_c, 4, 11, 88
1, 151020, Control_c, 8, 11, 123
1, 151024, Control_c, 5, 11, 105
1, 151031, Control_c, 4, 11, 87
1, 151031, Control_c, 8, 11, 122
1, 151039, Control_c, 5, 11, 104
1, 151041, Control_c, 4, 11, 86
1, 151041, Control_c, 8, 11, 121
1, 151050, Control_c, 5, 11, 103
1, 151051, Control_c, 4, 11, 85
1, 151051, Control_c, 8, 11, 120
1, 151061, Control_c, 8, 11, 119
1, 151065, Control_c, 5, 11, 102
1, 151066, Control_c, 4, 11, 84
1, 151072, Control_c, 8, 11, 118
1, 151075, Control_c, 5, 11, 101
1, 151077, Control_c, 4, 11, 83
1, 151082, Control_c, 8, 11, 117
1, 151087, Control_c, 4, 11, 82
1, 151087, Control_c, 8, 11, 116
1, 151091, Control_c, 5, 11, 100
1, 151097, Control_c, 4, 11, 81
1, 151097, Control_c, 8, 11, 115
1, 151101, Control_c, 5, 11, 99
1, 151107, Control_c, 8, 11, 114
1, 151112, Control_c, 4, 11, 80
1, 151116, Control_c, 5, 11, 98
1, 151117, Control_c, 8, 11, 113
1, 151123, Control_c, 4, 11, 79
1, 151126, Control_c, 5, 11, 97
1, 151128, Control_c, 8, 11, 112
1, 151133, Control_c, 4, 11, 78
1, 151138, Control_c, 8, 11, 111
1, 151142, Control_c, 5, 11, 96
1, 151143, Control_c, 4, 11, 77
1, 151148, Control_c, 8, 11, 110
1, 151152, Control_c, 5, 11, 95
1, 151158, Control_c, 4, 11, 76
1, 151158, Control_c, 8, 11, 109
1, 151163, Control_c, 8, 11, 108
1, 151167, Control_c, 5, 11, 94
1, 151169, Control_c, 4, 11, 75
1, 151174, Control_c, 8, 11, 107
1, 151179, Control_c, 4, 11, 74
1, 151182, Control_c, 5, 11, 93
1, 151184, Control_c, 8, 11, 106
1, 151189, Control_c, 4, 11, 73
1, 151193, Control_c, 5, 11, 92
1, 151194, Control_c, 8, 11, 105
1, 151204, Control_c, 4, 11, 72
1, 151204, Control_c, 8, 11, 104
1, 151208, Control_c, 5, 11, 91
1, 151215, Control_c, 4, 11, 71
1, 151215, Control_c, 8, 11, 103
1, 151218, Control_c, 5, 11, 90
1, 151225, Control_c, 4, 11, 70
1, 151225, Control_c, 8, 11, 102
1, 151234, Control_c, 5, 11, 89
1, 151235, Control_c, 8, 11, 101
1, 151240, Control_c, 4, 11, 69
1, 151240, Control_c, 8, 11, 100
1, 151244, Control_c, 5, 11, 88
1, 151250, Control_c, 4, 11, 68
1, 151250, Control_c, 8, 11, 99
1, 151259, Control_c, 5, 11, 87
1, 151260, Control_c, 4, 11, 67
1, 151260, Control_c, 8, 11, 98
1, 151269, Control_c, 5, 11, 86
1, 151271, Control_c, 4, 11, 66
1, 151271, Control_c, 8, 11, 97
1, 151281, Control_c, 8, 11, 96
1, 151285, Control_c, 5, 11, 85
1, 151286, Control_c, 4, 11, 65
1, 151291, Control_c, 8, 11, 95
1, 151295, Control_c, 5, 11, 84
1, 151296, Control_c, 4, 11, 64
1, 151301, Control_c, 8, 11, 94
1, 151306, Control_c, 4, 11, 63
1, 151310, Control_c, 5, 11, 83
1, 151312, Control_c, 8, 11, 93
1, 151317, Control_c, 4, 11, 62
1, 151322, Control_c, 8, 11, 92
1, 151325, Control_c, 5, 11, 82
1, 151327, Control_c, 8, 11, 91
1, 151332, Control_c, 4, 11, 61
1, 151336, Control_c, 5, 11, 81
1, 151337, Control_c, 8, 11, 90
1, 151342, Control_c, 4, 11, 60
1, 151347, Control_c, 8, 11, 89
1, 151351, Control_c, 5, 11, 80
1, 151352, Control_c, 4, 11, 59
1, 151357, Control_c, 8, 11, 88
1, 151361, Control_c, 5, 11, 79
1, 151368, Control_c, 4, 11, 58
1, 151368, Control_c, 8, 11, 87
1, 151376, Control_c, 5, 11, 78
1, 151378, Control_c, 4, 11, 57
1, 151378, Control_c, 8, 11, 86
1, 151387, Control_c, 5, 11, 77
1, 151388, Control_c, 4, 11, 56
1, 151388, Control_c, 8, 11, 85
1, 151398, Control_c, 4, 11, 55
1, 151398, Control_c, 8, 11, 84
1, 151402, Control_c, 5, 11, 76
1, 151403, Control_c, 8, 11, 83
1, 151412, Control_c, 5, 11, 75
1, 151414, Control_c, 4, 11, 54
1, 151414, Control_c, 8, 11, 82
1, 151424, Control_c, 4, 11, 53
1, 151424, Control_c, 8, 11, 81
1, 151428, Control_c, 5, 11, 74
1, 151434, Control_c, 4, 11, 52
1, 151434, Control_c, 8, 11, 80
1, 151443, Control_c, 5, 11, 73
1, 151444, Control_c, 4, 11, 51
1, 151444, Control_c, 8, 11, 79
1, 151453, Control_c, 5, 11, 72
1, 151455, Control_c, 8, 11, 78
1, 151460, Control_c, 4, 11, 50
1, 151465, Control_c, 8, 11, 77
1, 151468, Control_c, 5, 11, 71
1, 151470, Control_c, 4, 11, 49
1, 151475, Control_c, 8, 11, 76
1, 151479, Control_c, 5, 11, 70
1, 151480, Control_c, 4, 11, 48
1, 151480, Control_c, 8, 11, 75
1, 151490, Control_c, 4, 11, 47
1, 151490, Control_c, 8, 11, 74
1, 151494, Control_c, 5, 11, 69
1, 151495, Note_on_c, 14, 61, 0
1, 151500, Control_c, 8, 11, 73
1, 151504, Control_c, 5, 11, 68
1, 151506, Control_c, 4, 11, 46
1, 151510, Note_on_c, 14, 64, 0
1, 151511, Control_c, 8, 11, 72
1, 151516, Control_c, 4, 11, 45
1, 151519, Control_c, 5, 11, 67
1, 151521, Control_c, 8, 11, 71
1, 151526, Control_c, 4, 11, 44
1, 151530, Control_c, 5, 11, 66
1, 151531, Control_c, 8, 11, 70
1, 151540, Note_on_c, 14, 56, 0
1, 151541, Control_c, 4, 11, 43
1, 151541, Control_c, 8, 11, 69
1, 151545, Control_c, 5, 11, 65
1, 151550, Note_on_c, 12, 49, 0
1, 151552, Control_c, 4, 11, 42
1, 151552, Control_c, 8, 11, 68
1, 151555, Control_c, 5, 11, 64
1, 151559, Note_on_c, 14, 49, 0
1, 151562, Control_c, 4, 11, 41
1, 151562, Control_c, 8, 11, 67
1, 151565, Note_on_c, 12, 64, 0
1, 151567, Control_c, 8, 11, 66
1, 151571, Control_c, 5, 11, 63
1, 151572, Control_c, 4, 11, 40
1, 151577, Control_c, 8, 11, 65
1, 151586, Control_c, 5, 11, 62
1, 151587, Control_c, 4, 11, 39
1, 151587, Control_c, 8, 11, 64
1, 151596, Note_on_c, 14, 68, 0
1, 151596, Control_c, 5, 11, 61
1, 151597, Control_c, 4, 11, 38
1, 151597, Control_c, 8, 11, 63
1, 151608, Control_c, 4, 11, 37
1, 151608, Control_c, 8, 11, 62
1, 151611, Control_c, 5, 11, 60
1, 151618, Control_c, 4, 11, 36
1, 151618, Control_c, 8, 11, 61
1, 151622, Control_c, 5, 11, 59
1, 151628, Control_c, 8, 11, 60
1, 151633, Control_c, 4, 11, 35
1, 151637, Control_c, 5, 11, 58
1, 151638, Control_c, 8, 11, 59
1, 151643, Control_c, 4, 11, 34
1, 151643, Control_c, 8, 11, 58
1, 151647, Control_c, 5, 11, 57
1, 151654, Control_c, 4, 11, 33
1, 151654, Control_c, 8, 11, 57
1, 151662, Control_c, 5, 11, 56
1, 151664, Control_c, 8, 11, 56
1, 151669, Control_c, 4, 11, 32
1, 151673, Control_c, 5, 11, 55
1, 151674, Control_c, 8, 11, 55
1, 151679, Control_c, 4, 11, 31
1, 151684, Note_on_c, 11, 73, 0
1, 151684, Control_c, 8, 11, 54
1, 151688, Control_c, 5, 11, 54
1, 151689, Control_c, 4, 11, 30
1, 151695, Control_c, 8, 11, 53
1, 151698, Control_c, 5, 11, 53
1, 151700, Control_c, 4, 11, 29
1, 151705, Control_c, 8, 11, 52
1, 151714, Control_c, 5, 11, 52
1, 151715, Control_c, 4, 11, 28
1, 151715, Control_c, 8, 11, 51
1, 151720, Control_c, 8, 11, 50
1, 151722, Note_on_c, 7, 61, 0
1, 151725, Control_c, 4, 11, 27
1, 151728, Note_on_c, 11, 76, 0
1, 151729, Control_c, 5, 11, 51
1, 151730, Control_c, 8, 11, 49
1, 151735, Control_c, 4, 11, 26
1, 151737, Note_on_c, 7, 64, 0
1, 151739, Control_c, 5, 11, 50
1, 151740, Control_c, 8, 11, 48
1, 151745, Note_on_c, 4, 49, 0
1, 151745, Note_on_c, 15, 49, 0
1, 151746, Control_c, 4, 11, 25
1, 151751, Control_c, 8, 11, 47
1, 151752, Note_on_c, 4, 64, 0
1, 151752, Note_on_c, 15, 64, 0
1, 151754, Control_c, 5, 11, 49
1, 151761, Control_c, 4, 11, 24
1, 151761, Control_c, 8, 11, 46
1, 151765, Control_c, 5, 11, 48
1, 151771, Control_c, 4, 11, 23
1, 151771, Control_c, 8, 11, 45
1, 151780, Control_c, 5, 11, 47
1, 151781, Note_on_c, 7, 37, 0
1, 151781, Control_c, 4, 11, 22
1, 151781, Control_c, 8, 11, 44
1, 151783, Note_on_c, 1, 37, 0
1, 151790, Control_c, 5, 11, 46
1, 151792, Control_c, 4, 11, 21
1, 151792, Control_c, 8, 11, 43
1, 151795, Note_on_c, 11, 68, 0
1, 151802, Control_c, 8, 11, 42
1, 151805, Control_c, 5, 11, 45
1, 151807, Control_c, 4, 11, 20
1, 151807, Control_c, 8, 11, 41
1, 151816, Control_c, 5, 11, 44
1, 151817, Control_c, 4, 11, 19
1, 151817, Control_c, 8, 11, 40
1, 151827, Control_c, 4, 11, 18
1, 151827, Control_c, 8, 11, 39
1, 151831, Control_c, 5, 11, 43
1, 151837, Control_c, 8, 11, 38
1, 151840, Note_on_c, 8, 49, 0
1, 151840, Note_on_c, 7, 73, 0
1, 151841, Note_on_c, 5, 56, 0
1, 151841, Control_c, 5, 11, 42
1, 151843, Note_on_c, 5, 49, 0
1, 151843, Control_c, 4, 11, 17
1, 151846, Note_on_c, 11, 61, 0
1, 151848, Control_c, 8, 11, 37
1, 151853, Control_c, 4, 11, 16
1, 151856, Control_c, 5, 11, 41
1, 151858, Control_c, 8, 11, 36
1, 151863, Control_c, 4, 11, 15
1, 151868, Control_c, 8, 11, 35
1, 151871, Note_on_c, 5, 61, 0
1, 151872, Control_c, 5, 11, 40
1, 151873, Note_on_c, 11, 80, 0
1, 151873, Control_c, 4, 11, 14
1, 151878, Control_c, 8, 11, 34
1, 151882, Control_c, 5, 11, 39
1, 151883, Control_c, 8, 11, 33
1, 151889, Control_c, 4, 11, 13
1, 151894, Control_c, 8, 11, 32
1, 151897, Control_c, 5, 11, 38
1, 151899, Control_c, 4, 11, 12
1, 151900, Note_on_c, 5, 64, 0
1, 151904, Control_c, 8, 11, 31
1, 151908, Control_c, 5, 11, 37
1, 151909, Control_c, 4, 11, 11
1, 151914, Control_c, 8, 11, 30
1, 151919, Control_c, 4, 11, 10
1, 151923, Control_c, 5, 11, 36
1, 151924, Control_c, 8, 11, 29
1, 151933, Control_c, 5, 11, 35
1, 151935, Control_c, 4, 11, 9
1, 151935, Control_c, 8, 11, 28
1, 151945, Control_c, 4, 11, 8
1, 151945, Control_c, 8, 11, 27
1, 151948, Control_c, 5, 11, 34
1, 151955, Control_c, 4, 11, 7
1, 151955, Control_c, 8, 11, 26
1, 151959, Control_c, 5, 11, 33
1, 151960, Control_c, 8, 11, 25
1, 151965, Control_c, 4, 11, 6
1, 151970, Control_c, 8, 11, 24
1, 151974, Control_c, 5, 11, 32
1, 151980, Control_c, 8, 11, 23
1, 151989, Control_c, 5, 11, 31
1, 151991, Control_c, 8, 11, 22
1, 151999, Control_c, 5, 11, 30
1, 152001, Control_c, 8, 11, 21
1, 152011, Control_c, 8, 11, 20
1, 152015, Control_c, 5, 11, 29
1, 152021, Control_c, 8, 11, 19
1, 152025, Control_c, 5, 11, 28
1, 152032, Control_c, 8, 11, 18
1, 152040, Control_c, 5, 11, 27
1, 152042, Control_c, 8, 11, 17
1, 152047, Control_c, 8, 11, 16
1, 152051, Control_c, 5, 11, 26
1, 152057, Control_c, 8, 11, 15
1, 152066, Control_c, 5, 11, 25
1, 152067, Control_c, 8, 11, 14
1, 152076, Control_c, 5, 11, 24
1, 152077, Control_c, 8, 11, 13
1, 152088, Control_c, 8, 11, 12
1, 152091, Control_c, 5, 11, 23
1, 152098, Control_c, 8, 11, 11
1, 152102, Control_c, 5, 11, 22
1, 152108, Control_c, 8, 11, 10
1, 152117, Control_c, 5, 11, 21
1, 152118, Control_c, 8, 11, 9
1, 152123, Control_c, 8, 11, 8
1, 152132, Control_c, 5, 11, 20
1, 152134, Control_c, 8, 11, 7
1, 152142, Control_c, 5, 11, 19
1, 152144, Control_c, 8, 11, 6
1, 152154, Control_c, 8, 11, 5
1, 152158, Control_c, 5, 11, 18
1, 152164, Control_c, 8, 11, 4
1, 152168, Control_c, 5, 11, 17
1, 152175, Control_c, 8, 11, 3
1, 152183, Control_c, 5, 11, 16
1, 152185, Control_c, 8, 11, 2
1, 152194, Control_c, 5, 11, 15
1, 152195, Control_c, 8, 11, 1
1, 152200, Control_c, 8, 11, 0
1, 152209, Control_c, 5, 11, 14
1, 152219, Control_c, 5, 11, 13
1, 152234, Control_c, 5, 11, 12
1, 152245, Control_c, 5, 11, 11
1, 152260, Control_c, 5, 11, 10
1, 152275, Control_c, 5, 11, 9
1, 152285, Control_c, 5, 11, 8
1, 152301, Control_c, 5, 11, 7
1, 152311, Control_c, 5, 11, 6
1, 152326, Control_c, 5, 11, 5
1, 152336, Control_c, 5, 11, 4
1, 152352, Control_c, 5, 11, 3
1, 152362, Control_c, 5, 11, 2
1, 152377, Control_c, 5, 11, 1
1, 152388, Control_c, 5, 11, 0
1, 152388, End_track
0, 0, End_of_file
