0, 0, Header, 1, 14, 120
1, 0, Start_track
1, 0, Key_signature, -4, "major"
1, 0, SMPTE_offset, 96, 0, 0, 0, 0
1, 0, Tempo, 769230
1, 0, Time_signature, 4, 2, 24, 8
1, 0, End_track
2, 0, Start_track
2, 0, MIDI_port, 0
2, 0, Title_t, "drums"
2, 0, Program_c, 9, 0
2, 480, Note_on_c, 9, 44, 127
2, 576, Note_on_c, 9, 44, 0
2, 600, Note_on_c, 9, 42, 127
2, 696, Note_on_c, 9, 42, 0
2, 720, Note_on_c, 9, 42, 127
2, 816, Note_on_c, 9, 42, 0
2, 840, Note_on_c, 9, 44, 127
2, 912, Note_on_c, 9, 44, 0
2, 930, Note_on_c, 9, 46, 127
2, 954, Note_on_c, 9, 46, 0
2, 960, Note_on_c, 9, 42, 127
2, 1056, Note_on_c, 9, 42, 0
2, 1080, Note_on_c, 9, 44, 127
2, 1176, Note_on_c, 9, 44, 0
2, 1200, Note_on_c, 9, 42, 127
2, 1272, Note_on_c, 9, 42, 0
2, 1290, Note_on_c, 9, 46, 127
2, 1314, Note_on_c, 9, 46, 0
2, 1320, Note_on_c, 9, 44, 127
2, 1416, Note_on_c, 9, 44, 0
2, 1440, Note_on_c, 9, 42, 127
2, 1536, Note_on_c, 9, 42, 0
2, 1560, Note_on_c, 9, 44, 127
2, 1656, Note_on_c, 9, 44, 0
2, 1680, Note_on_c, 9, 42, 127
2, 1728, Note_on_c, 9, 42, 0
2, 1740, Note_on_c, 9, 44, 127
2, 1764, Note_on_c, 9, 44, 0
2, 1770, Note_on_c, 9, 44, 127
2, 1794, Note_on_c, 9, 44, 0
2, 1800, Note_on_c, 9, 44, 127
2, 1824, Note_on_c, 9, 44, 0
2, 1830, Note_on_c, 9, 42, 127
2, 1854, Note_on_c, 9, 42, 0
2, 1860, Note_on_c, 9, 46, 127
2, 1884, Note_on_c, 9, 46, 0
2, 1890, Note_on_c, 9, 35, 127
2, 1890, Note_on_c, 9, 42, 127
2, 1914, Note_on_c, 9, 35, 0
2, 1914, Note_on_c, 9, 42, 0
2, 1920, Note_on_c, 9, 44, 127
2, 1920, Note_on_c, 9, 35, 127
2, 2016, Note_on_c, 9, 44, 0
2, 2016, Note_on_c, 9, 35, 0
2, 2040, Note_on_c, 9, 42, 127
2, 2040, Note_on_c, 9, 37, 127
2, 2070, Note_on_c, 9, 46, 127
2, 2088, Note_on_c, 9, 42, 0
2, 2088, Note_on_c, 9, 37, 0
2, 2100, Note_on_c, 9, 42, 127
2, 2118, Note_on_c, 9, 46, 0
2, 2124, Note_on_c, 9, 42, 0
2, 2130, Note_on_c, 9, 35, 127
2, 2154, Note_on_c, 9, 35, 0
2, 2160, Note_on_c, 9, 42, 127
2, 2160, Note_on_c, 9, 44, 127
2, 2160, Note_on_c, 9, 35, 127
2, 2256, Note_on_c, 9, 42, 0
2, 2256, Note_on_c, 9, 44, 0
2, 2256, Note_on_c, 9, 35, 0
2, 2280, Note_on_c, 9, 42, 127
2, 2280, Note_on_c, 9, 44, 127
2, 2280, Note_on_c, 9, 37, 127
2, 2328, Note_on_c, 9, 42, 0
2, 2328, Note_on_c, 9, 44, 0
2, 2328, Note_on_c, 9, 37, 0
2, 2340, Note_on_c, 9, 35, 127
2, 2388, Note_on_c, 9, 35, 0
2, 2400, Note_on_c, 9, 44, 127
2, 2424, Note_on_c, 9, 44, 0
2, 2430, Note_on_c, 9, 35, 127
2, 2502, Note_on_c, 9, 35, 0
2, 2520, Note_on_c, 9, 42, 127
2, 2520, Note_on_c, 9, 37, 127
2, 2592, Note_on_c, 9, 42, 0
2, 2592, Note_on_c, 9, 37, 0
2, 2610, Note_on_c, 9, 35, 127
2, 2634, Note_on_c, 9, 35, 0
2, 2640, Note_on_c, 9, 44, 127
2, 2640, Note_on_c, 9, 35, 127
2, 2688, Note_on_c, 9, 44, 0
2, 2688, Note_on_c, 9, 35, 0
2, 2700, Note_on_c, 9, 42, 127
2, 2724, Note_on_c, 9, 42, 0
2, 2730, Note_on_c, 9, 44, 127
2, 2754, Note_on_c, 9, 44, 0
2, 2760, Note_on_c, 9, 44, 127
2, 2760, Note_on_c, 9, 37, 127
2, 2808, Note_on_c, 9, 44, 0
2, 2808, Note_on_c, 9, 37, 0
2, 2820, Note_on_c, 9, 52, 80
2, 2820, Note_on_c, 9, 35, 127
2, 2844, Note_on_c, 9, 35, 0
2, 2868, Note_on_c, 9, 52, 0
2, 2970, Note_on_c, 9, 35, 127
2, 2994, Note_on_c, 9, 35, 0
2, 3000, Note_on_c, 9, 37, 127
2, 3072, Note_on_c, 9, 37, 0
2, 3090, Note_on_c, 9, 35, 127
2, 3114, Note_on_c, 9, 35, 0
2, 3120, Note_on_c, 9, 42, 127
2, 3120, Note_on_c, 9, 35, 127
2, 3144, Note_on_c, 9, 42, 0
2, 3144, Note_on_c, 9, 35, 0
2, 3150, Note_on_c, 9, 46, 127
2, 3198, Note_on_c, 9, 46, 0
2, 3210, Note_on_c, 9, 42, 127
2, 3234, Note_on_c, 9, 42, 0
2, 3240, Note_on_c, 9, 37, 127
2, 3264, Note_on_c, 9, 37, 0
2, 3270, Note_on_c, 9, 44, 127
2, 3294, Note_on_c, 9, 44, 0
2, 3300, Note_on_c, 9, 58, 127
2, 3300, Note_on_c, 9, 35, 127
2, 3348, Note_on_c, 9, 58, 0
2, 3348, Note_on_c, 9, 35, 0
2, 3360, Note_on_c, 9, 42, 127
2, 3390, Note_on_c, 9, 35, 127
2, 3432, Note_on_c, 9, 42, 0
2, 3462, Note_on_c, 9, 35, 0
2, 3480, Note_on_c, 9, 42, 127
2, 3480, Note_on_c, 9, 37, 127
2, 3552, Note_on_c, 9, 42, 0
2, 3552, Note_on_c, 9, 37, 0
2, 3570, Note_on_c, 9, 35, 127
2, 3594, Note_on_c, 9, 35, 0
2, 3600, Note_on_c, 9, 42, 127
2, 3600, Note_on_c, 9, 35, 127
2, 3624, Note_on_c, 9, 42, 0
2, 3624, Note_on_c, 9, 35, 0
2, 3630, Note_on_c, 9, 42, 127
2, 3702, Note_on_c, 9, 42, 0
2, 3720, Note_on_c, 9, 42, 127
2, 3720, Note_on_c, 9, 37, 127
2, 3768, Note_on_c, 9, 42, 0
2, 3768, Note_on_c, 9, 37, 0
2, 3780, Note_on_c, 9, 52, 80
2, 3780, Note_on_c, 9, 35, 127
2, 3828, Note_on_c, 9, 52, 0
2, 3828, Note_on_c, 9, 35, 0
2, 3840, Note_on_c, 9, 42, 127
2, 3912, Note_on_c, 9, 42, 0
2, 3930, Note_on_c, 9, 35, 127
2, 3954, Note_on_c, 9, 35, 0
2, 3960, Note_on_c, 9, 37, 127
2, 3960, Note_on_c, 9, 42, 127
2, 4008, Note_on_c, 9, 37, 0
2, 4008, Note_on_c, 9, 42, 0
2, 4020, Note_on_c, 9, 42, 127
2, 4044, Note_on_c, 9, 42, 0
2, 4050, Note_on_c, 9, 35, 127
2, 4050, Note_on_c, 9, 46, 127
2, 4074, Note_on_c, 9, 35, 0
2, 4080, Note_on_c, 9, 35, 127
2, 4098, Note_on_c, 9, 46, 0
2, 4110, Note_on_c, 9, 42, 127
2, 4128, Note_on_c, 9, 35, 0
2, 4182, Note_on_c, 9, 42, 0
2, 4200, Note_on_c, 9, 37, 127
2, 4224, Note_on_c, 9, 37, 0
2, 4230, Note_on_c, 9, 44, 127
2, 4254, Note_on_c, 9, 44, 0
2, 4260, Note_on_c, 9, 35, 127
2, 4308, Note_on_c, 9, 35, 0
2, 4320, Note_on_c, 9, 44, 127
2, 4320, Note_on_c, 9, 35, 127
2, 4368, Note_on_c, 9, 44, 0
2, 4368, Note_on_c, 9, 35, 0
2, 4380, Note_on_c, 9, 42, 127
2, 4428, Note_on_c, 9, 42, 0
2, 4440, Note_on_c, 9, 42, 127
2, 4440, Note_on_c, 9, 37, 127
2, 4488, Note_on_c, 9, 42, 0
2, 4488, Note_on_c, 9, 37, 0
2, 4500, Note_on_c, 9, 44, 127
2, 4524, Note_on_c, 9, 44, 0
2, 4530, Note_on_c, 9, 46, 127
2, 4530, Note_on_c, 9, 35, 127
2, 4554, Note_on_c, 9, 46, 0
2, 4554, Note_on_c, 9, 35, 0
2, 4560, Note_on_c, 9, 35, 127
2, 4584, Note_on_c, 9, 35, 0
2, 4590, Note_on_c, 9, 42, 127
2, 4638, Note_on_c, 9, 42, 0
2, 4650, Note_on_c, 9, 42, 127
2, 4674, Note_on_c, 9, 42, 0
2, 4680, Note_on_c, 9, 37, 127
2, 4728, Note_on_c, 9, 37, 0
2, 4740, Note_on_c, 9, 58, 127
2, 4740, Note_on_c, 9, 35, 127
2, 4788, Note_on_c, 9, 58, 0
2, 4788, Note_on_c, 9, 35, 0
2, 4800, Note_on_c, 9, 42, 127
2, 4824, Note_on_c, 9, 42, 0
2, 4830, Note_on_c, 9, 35, 127
2, 4902, Note_on_c, 9, 35, 0
2, 4920, Note_on_c, 9, 42, 127
2, 4920, Note_on_c, 9, 35, 127
2, 4992, Note_on_c, 9, 42, 0
2, 4992, Note_on_c, 9, 35, 0
2, 5010, Note_on_c, 9, 35, 127
2, 5034, Note_on_c, 9, 35, 0
2, 5040, Note_on_c, 9, 42, 127
2, 5040, Note_on_c, 9, 35, 127
2, 5088, Note_on_c, 9, 42, 0
2, 5088, Note_on_c, 9, 35, 0
2, 5100, Note_on_c, 9, 46, 127
2, 5124, Note_on_c, 9, 46, 0
2, 5130, Note_on_c, 9, 42, 127
2, 5154, Note_on_c, 9, 42, 0
2, 5160, Note_on_c, 9, 42, 127
2, 5160, Note_on_c, 9, 37, 127
2, 5208, Note_on_c, 9, 42, 0
2, 5208, Note_on_c, 9, 37, 0
2, 5220, Note_on_c, 9, 57, 80
2, 5220, Note_on_c, 9, 35, 127
2, 5268, Note_on_c, 9, 57, 0
2, 5268, Note_on_c, 9, 35, 0
2, 5280, Note_on_c, 9, 42, 127
2, 5376, Note_on_c, 9, 42, 0
2, 5400, Note_on_c, 9, 42, 127
2, 5496, Note_on_c, 9, 42, 0
2, 5520, Note_on_c, 9, 35, 127
2, 5520, Note_on_c, 9, 42, 127
2, 5568, Note_on_c, 9, 35, 0
2, 5568, Note_on_c, 9, 42, 0
2, 5580, Note_on_c, 9, 35, 127
2, 5580, Note_on_c, 9, 42, 127
2, 5628, Note_on_c, 9, 35, 0
2, 5628, Note_on_c, 9, 42, 0
2, 5640, Note_on_c, 9, 40, 100
2, 5688, Note_on_c, 9, 40, 0
2, 5700, Note_on_c, 9, 57, 80
2, 5700, Note_on_c, 9, 35, 127
2, 5748, Note_on_c, 9, 57, 0
2, 5748, Note_on_c, 9, 35, 0
2, 5760, Note_on_c, 9, 44, 127
2, 5784, Note_on_c, 9, 44, 0
2, 5790, Note_on_c, 9, 35, 127
2, 5862, Note_on_c, 9, 35, 0
2, 5880, Note_on_c, 9, 42, 127
2, 5880, Note_on_c, 9, 37, 127
2, 5952, Note_on_c, 9, 42, 0
2, 5952, Note_on_c, 9, 37, 0
2, 5970, Note_on_c, 9, 35, 127
2, 5994, Note_on_c, 9, 35, 0
2, 6000, Note_on_c, 9, 44, 127
2, 6000, Note_on_c, 9, 35, 127
2, 6048, Note_on_c, 9, 44, 0
2, 6048, Note_on_c, 9, 35, 0
2, 6060, Note_on_c, 9, 42, 127
2, 6084, Note_on_c, 9, 42, 0
2, 6090, Note_on_c, 9, 44, 127
2, 6114, Note_on_c, 9, 44, 0
2, 6120, Note_on_c, 9, 44, 127
2, 6120, Note_on_c, 9, 37, 127
2, 6168, Note_on_c, 9, 44, 0
2, 6168, Note_on_c, 9, 37, 0
2, 6180, Note_on_c, 9, 52, 80
2, 6180, Note_on_c, 9, 35, 127
2, 6204, Note_on_c, 9, 35, 0
2, 6228, Note_on_c, 9, 52, 0
2, 6330, Note_on_c, 9, 35, 127
2, 6354, Note_on_c, 9, 35, 0
2, 6360, Note_on_c, 9, 37, 127
2, 6432, Note_on_c, 9, 37, 0
2, 6450, Note_on_c, 9, 35, 127
2, 6474, Note_on_c, 9, 35, 0
2, 6480, Note_on_c, 9, 42, 127
2, 6480, Note_on_c, 9, 35, 127
2, 6504, Note_on_c, 9, 42, 0
2, 6504, Note_on_c, 9, 35, 0
2, 6510, Note_on_c, 9, 46, 127
2, 6558, Note_on_c, 9, 46, 0
2, 6570, Note_on_c, 9, 42, 127
2, 6594, Note_on_c, 9, 42, 0
2, 6600, Note_on_c, 9, 37, 127
2, 6624, Note_on_c, 9, 37, 0
2, 6630, Note_on_c, 9, 44, 127
2, 6654, Note_on_c, 9, 44, 0
2, 6660, Note_on_c, 9, 58, 127
2, 6660, Note_on_c, 9, 35, 127
2, 6708, Note_on_c, 9, 58, 0
2, 6708, Note_on_c, 9, 35, 0
2, 6720, Note_on_c, 9, 42, 127
2, 6750, Note_on_c, 9, 35, 127
2, 6792, Note_on_c, 9, 42, 0
2, 6822, Note_on_c, 9, 35, 0
2, 6840, Note_on_c, 9, 42, 127
2, 6840, Note_on_c, 9, 37, 127
2, 6912, Note_on_c, 9, 42, 0
2, 6912, Note_on_c, 9, 37, 0
2, 6930, Note_on_c, 9, 35, 127
2, 6954, Note_on_c, 9, 35, 0
2, 6960, Note_on_c, 9, 42, 127
2, 6960, Note_on_c, 9, 35, 127
2, 6984, Note_on_c, 9, 42, 0
2, 6984, Note_on_c, 9, 35, 0
2, 6990, Note_on_c, 9, 42, 127
2, 7062, Note_on_c, 9, 42, 0
2, 7080, Note_on_c, 9, 42, 127
2, 7080, Note_on_c, 9, 37, 127
2, 7128, Note_on_c, 9, 42, 0
2, 7128, Note_on_c, 9, 37, 0
2, 7140, Note_on_c, 9, 52, 80
2, 7140, Note_on_c, 9, 35, 127
2, 7188, Note_on_c, 9, 52, 0
2, 7188, Note_on_c, 9, 35, 0
2, 7200, Note_on_c, 9, 42, 127
2, 7272, Note_on_c, 9, 42, 0
2, 7290, Note_on_c, 9, 35, 127
2, 7314, Note_on_c, 9, 35, 0
2, 7320, Note_on_c, 9, 37, 127
2, 7320, Note_on_c, 9, 42, 127
2, 7368, Note_on_c, 9, 37, 0
2, 7368, Note_on_c, 9, 42, 0
2, 7380, Note_on_c, 9, 42, 127
2, 7404, Note_on_c, 9, 42, 0
2, 7410, Note_on_c, 9, 35, 127
2, 7410, Note_on_c, 9, 46, 127
2, 7434, Note_on_c, 9, 35, 0
2, 7440, Note_on_c, 9, 35, 127
2, 7458, Note_on_c, 9, 46, 0
2, 7470, Note_on_c, 9, 42, 127
2, 7488, Note_on_c, 9, 35, 0
2, 7542, Note_on_c, 9, 42, 0
2, 7560, Note_on_c, 9, 37, 127
2, 7584, Note_on_c, 9, 37, 0
2, 7590, Note_on_c, 9, 44, 127
2, 7614, Note_on_c, 9, 44, 0
2, 7620, Note_on_c, 9, 35, 127
2, 7668, Note_on_c, 9, 35, 0
2, 7680, Note_on_c, 9, 44, 127
2, 7680, Note_on_c, 9, 35, 127
2, 7728, Note_on_c, 9, 44, 0
2, 7728, Note_on_c, 9, 35, 0
2, 7740, Note_on_c, 9, 42, 127
2, 7788, Note_on_c, 9, 42, 0
2, 7800, Note_on_c, 9, 42, 127
2, 7800, Note_on_c, 9, 37, 127
2, 7848, Note_on_c, 9, 42, 0
2, 7848, Note_on_c, 9, 37, 0
2, 7860, Note_on_c, 9, 44, 127
2, 7884, Note_on_c, 9, 44, 0
2, 7890, Note_on_c, 9, 46, 127
2, 7890, Note_on_c, 9, 35, 127
2, 7914, Note_on_c, 9, 46, 0
2, 7914, Note_on_c, 9, 35, 0
2, 7920, Note_on_c, 9, 35, 127
2, 7944, Note_on_c, 9, 35, 0
2, 7950, Note_on_c, 9, 42, 127
2, 7998, Note_on_c, 9, 42, 0
2, 8010, Note_on_c, 9, 42, 127
2, 8034, Note_on_c, 9, 42, 0
2, 8040, Note_on_c, 9, 37, 127
2, 8088, Note_on_c, 9, 37, 0
2, 8100, Note_on_c, 9, 58, 127
2, 8100, Note_on_c, 9, 35, 127
2, 8148, Note_on_c, 9, 58, 0
2, 8148, Note_on_c, 9, 35, 0
2, 8160, Note_on_c, 9, 42, 127
2, 8184, Note_on_c, 9, 42, 0
2, 8190, Note_on_c, 9, 35, 127
2, 8262, Note_on_c, 9, 35, 0
2, 8280, Note_on_c, 9, 42, 127
2, 8280, Note_on_c, 9, 35, 127
2, 8352, Note_on_c, 9, 42, 0
2, 8352, Note_on_c, 9, 35, 0
2, 8370, Note_on_c, 9, 35, 127
2, 8394, Note_on_c, 9, 35, 0
2, 8400, Note_on_c, 9, 42, 127
2, 8400, Note_on_c, 9, 35, 127
2, 8448, Note_on_c, 9, 42, 0
2, 8448, Note_on_c, 9, 35, 0
2, 8460, Note_on_c, 9, 46, 127
2, 8484, Note_on_c, 9, 46, 0
2, 8490, Note_on_c, 9, 42, 127
2, 8514, Note_on_c, 9, 42, 0
2, 8520, Note_on_c, 9, 42, 127
2, 8520, Note_on_c, 9, 37, 127
2, 8568, Note_on_c, 9, 42, 0
2, 8568, Note_on_c, 9, 37, 0
2, 8580, Note_on_c, 9, 57, 80
2, 8580, Note_on_c, 9, 35, 127
2, 8628, Note_on_c, 9, 57, 0
2, 8628, Note_on_c, 9, 35, 0
2, 8640, Note_on_c, 9, 42, 127
2, 8736, Note_on_c, 9, 42, 0
2, 8760, Note_on_c, 9, 42, 127
2, 8856, Note_on_c, 9, 42, 0
2, 8880, Note_on_c, 9, 35, 127
2, 8880, Note_on_c, 9, 42, 127
2, 8928, Note_on_c, 9, 35, 0
2, 8928, Note_on_c, 9, 42, 0
2, 8940, Note_on_c, 9, 35, 127
2, 8940, Note_on_c, 9, 42, 127
2, 8988, Note_on_c, 9, 35, 0
2, 8988, Note_on_c, 9, 42, 0
2, 9000, Note_on_c, 9, 40, 100
2, 9048, Note_on_c, 9, 40, 0
2, 9060, Note_on_c, 9, 57, 80
2, 9060, Note_on_c, 9, 35, 127
2, 9108, Note_on_c, 9, 57, 0
2, 9108, Note_on_c, 9, 35, 0
2, 9120, Note_on_c, 9, 35, 127
2, 9216, Note_on_c, 9, 35, 0
2, 9240, Note_on_c, 9, 35, 127
2, 9336, Note_on_c, 9, 35, 0
2, 9360, Note_on_c, 9, 35, 127
2, 9456, Note_on_c, 9, 35, 0
2, 9480, Note_on_c, 9, 40, 127
2, 9528, Note_on_c, 9, 40, 0
2, 9540, Note_on_c, 9, 49, 80
2, 9540, Note_on_c, 9, 35, 127
2, 9588, Note_on_c, 9, 49, 0
2, 9588, Note_on_c, 9, 35, 0
2, 9600, Note_on_c, 9, 42, 127
2, 9600, Note_on_c, 9, 35, 127
2, 9648, Note_on_c, 9, 42, 0
2, 9648, Note_on_c, 9, 35, 0
2, 9660, Note_on_c, 9, 46, 127
2, 9708, Note_on_c, 9, 46, 0
2, 9720, Note_on_c, 9, 40, 127
2, 9744, Note_on_c, 9, 40, 0
2, 9750, Note_on_c, 9, 44, 127
2, 9774, Note_on_c, 9, 44, 0
2, 9780, Note_on_c, 9, 44, 127
2, 9804, Note_on_c, 9, 44, 0
2, 9810, Note_on_c, 9, 35, 127
2, 9834, Note_on_c, 9, 35, 0
2, 9840, Note_on_c, 9, 42, 127
2, 9840, Note_on_c, 9, 35, 127
2, 9888, Note_on_c, 9, 42, 0
2, 9888, Note_on_c, 9, 35, 0
2, 9900, Note_on_c, 9, 46, 127
2, 9948, Note_on_c, 9, 46, 0
2, 9960, Note_on_c, 9, 40, 127
2, 9960, Note_on_c, 9, 42, 127
2, 9984, Note_on_c, 9, 40, 0
2, 9984, Note_on_c, 9, 42, 0
2, 9990, Note_on_c, 9, 42, 127
2, 10014, Note_on_c, 9, 42, 0
2, 10020, Note_on_c, 9, 57, 100
2, 10020, Note_on_c, 9, 35, 127
2, 10068, Note_on_c, 9, 57, 0
2, 10068, Note_on_c, 9, 35, 0
2, 10080, Note_on_c, 9, 42, 127
2, 10080, Note_on_c, 9, 35, 127
2, 10128, Note_on_c, 9, 42, 0
2, 10128, Note_on_c, 9, 35, 0
2, 10140, Note_on_c, 9, 46, 127
2, 10188, Note_on_c, 9, 46, 0
2, 10200, Note_on_c, 9, 40, 127
2, 10224, Note_on_c, 9, 40, 0
2, 10230, Note_on_c, 9, 44, 127
2, 10254, Note_on_c, 9, 44, 0
2, 10260, Note_on_c, 9, 44, 127
2, 10284, Note_on_c, 9, 44, 0
2, 10290, Note_on_c, 9, 35, 127
2, 10314, Note_on_c, 9, 35, 0
2, 10320, Note_on_c, 9, 42, 127
2, 10320, Note_on_c, 9, 35, 127
2, 10368, Note_on_c, 9, 42, 0
2, 10368, Note_on_c, 9, 35, 0
2, 10380, Note_on_c, 9, 46, 127
2, 10428, Note_on_c, 9, 46, 0
2, 10440, Note_on_c, 9, 40, 127
2, 10440, Note_on_c, 9, 42, 127
2, 10464, Note_on_c, 9, 40, 0
2, 10464, Note_on_c, 9, 42, 0
2, 10470, Note_on_c, 9, 42, 127
2, 10494, Note_on_c, 9, 42, 0
2, 10500, Note_on_c, 9, 57, 100
2, 10500, Note_on_c, 9, 35, 127
2, 10548, Note_on_c, 9, 57, 0
2, 10548, Note_on_c, 9, 35, 0
2, 10560, Note_on_c, 9, 42, 127
2, 10560, Note_on_c, 9, 35, 127
2, 10608, Note_on_c, 9, 42, 0
2, 10608, Note_on_c, 9, 35, 0
2, 10620, Note_on_c, 9, 46, 127
2, 10668, Note_on_c, 9, 46, 0
2, 10680, Note_on_c, 9, 40, 127
2, 10704, Note_on_c, 9, 40, 0
2, 10710, Note_on_c, 9, 44, 127
2, 10734, Note_on_c, 9, 44, 0
2, 10740, Note_on_c, 9, 44, 127
2, 10764, Note_on_c, 9, 44, 0
2, 10770, Note_on_c, 9, 35, 127
2, 10794, Note_on_c, 9, 35, 0
2, 10800, Note_on_c, 9, 42, 127
2, 10800, Note_on_c, 9, 35, 127
2, 10848, Note_on_c, 9, 42, 0
2, 10848, Note_on_c, 9, 35, 0
2, 10860, Note_on_c, 9, 46, 127
2, 10908, Note_on_c, 9, 46, 0
2, 10920, Note_on_c, 9, 40, 127
2, 10920, Note_on_c, 9, 42, 127
2, 10944, Note_on_c, 9, 40, 0
2, 10944, Note_on_c, 9, 42, 0
2, 10950, Note_on_c, 9, 42, 127
2, 10974, Note_on_c, 9, 42, 0
2, 10980, Note_on_c, 9, 57, 100
2, 10980, Note_on_c, 9, 35, 127
2, 11028, Note_on_c, 9, 57, 0
2, 11028, Note_on_c, 9, 35, 0
2, 11040, Note_on_c, 9, 42, 127
2, 11040, Note_on_c, 9, 35, 127
2, 11088, Note_on_c, 9, 42, 0
2, 11088, Note_on_c, 9, 35, 0
2, 11100, Note_on_c, 9, 46, 127
2, 11148, Note_on_c, 9, 46, 0
2, 11160, Note_on_c, 9, 40, 127
2, 11184, Note_on_c, 9, 40, 0
2, 11190, Note_on_c, 9, 44, 127
2, 11214, Note_on_c, 9, 44, 0
2, 11220, Note_on_c, 9, 44, 127
2, 11244, Note_on_c, 9, 44, 0
2, 11250, Note_on_c, 9, 35, 127
2, 11274, Note_on_c, 9, 35, 0
2, 11280, Note_on_c, 9, 42, 127
2, 11280, Note_on_c, 9, 35, 127
2, 11328, Note_on_c, 9, 42, 0
2, 11328, Note_on_c, 9, 35, 0
2, 11340, Note_on_c, 9, 46, 127
2, 11388, Note_on_c, 9, 46, 0
2, 11400, Note_on_c, 9, 40, 127
2, 11400, Note_on_c, 9, 42, 127
2, 11424, Note_on_c, 9, 40, 0
2, 11424, Note_on_c, 9, 42, 0
2, 11430, Note_on_c, 9, 42, 127
2, 11454, Note_on_c, 9, 42, 0
2, 11460, Note_on_c, 9, 57, 100
2, 11460, Note_on_c, 9, 35, 127
2, 11508, Note_on_c, 9, 57, 0
2, 11508, Note_on_c, 9, 35, 0
2, 11520, Note_on_c, 9, 42, 127
2, 11520, Note_on_c, 9, 35, 127
2, 11568, Note_on_c, 9, 42, 0
2, 11568, Note_on_c, 9, 35, 0
2, 11580, Note_on_c, 9, 46, 127
2, 11628, Note_on_c, 9, 46, 0
2, 11640, Note_on_c, 9, 40, 127
2, 11664, Note_on_c, 9, 40, 0
2, 11670, Note_on_c, 9, 44, 127
2, 11694, Note_on_c, 9, 44, 0
2, 11700, Note_on_c, 9, 44, 127
2, 11724, Note_on_c, 9, 44, 0
2, 11730, Note_on_c, 9, 35, 127
2, 11754, Note_on_c, 9, 35, 0
2, 11760, Note_on_c, 9, 42, 127
2, 11760, Note_on_c, 9, 35, 127
2, 11808, Note_on_c, 9, 42, 0
2, 11808, Note_on_c, 9, 35, 0
2, 11820, Note_on_c, 9, 46, 127
2, 11868, Note_on_c, 9, 46, 0
2, 11880, Note_on_c, 9, 40, 127
2, 11880, Note_on_c, 9, 42, 127
2, 11904, Note_on_c, 9, 40, 0
2, 11904, Note_on_c, 9, 42, 0
2, 11910, Note_on_c, 9, 42, 127
2, 11934, Note_on_c, 9, 42, 0
2, 11940, Note_on_c, 9, 57, 100
2, 11940, Note_on_c, 9, 35, 127
2, 11988, Note_on_c, 9, 57, 0
2, 11988, Note_on_c, 9, 35, 0
2, 12000, Note_on_c, 9, 42, 127
2, 12000, Note_on_c, 9, 35, 127
2, 12048, Note_on_c, 9, 42, 0
2, 12048, Note_on_c, 9, 35, 0
2, 12060, Note_on_c, 9, 46, 127
2, 12108, Note_on_c, 9, 46, 0
2, 12120, Note_on_c, 9, 40, 127
2, 12144, Note_on_c, 9, 40, 0
2, 12150, Note_on_c, 9, 44, 127
2, 12174, Note_on_c, 9, 44, 0
2, 12180, Note_on_c, 9, 44, 127
2, 12204, Note_on_c, 9, 44, 0
2, 12210, Note_on_c, 9, 35, 127
2, 12234, Note_on_c, 9, 35, 0
2, 12240, Note_on_c, 9, 42, 127
2, 12240, Note_on_c, 9, 35, 127
2, 12288, Note_on_c, 9, 42, 0
2, 12288, Note_on_c, 9, 35, 0
2, 12300, Note_on_c, 9, 46, 127
2, 12348, Note_on_c, 9, 46, 0
2, 12360, Note_on_c, 9, 40, 127
2, 12360, Note_on_c, 9, 42, 127
2, 12384, Note_on_c, 9, 40, 0
2, 12384, Note_on_c, 9, 42, 0
2, 12390, Note_on_c, 9, 42, 127
2, 12414, Note_on_c, 9, 42, 0
2, 12420, Note_on_c, 9, 57, 100
2, 12420, Note_on_c, 9, 35, 127
2, 12468, Note_on_c, 9, 57, 0
2, 12468, Note_on_c, 9, 35, 0
2, 12480, Note_on_c, 9, 42, 127
2, 12480, Note_on_c, 9, 35, 127
2, 12528, Note_on_c, 9, 42, 0
2, 12528, Note_on_c, 9, 35, 0
2, 12540, Note_on_c, 9, 46, 127
2, 12588, Note_on_c, 9, 46, 0
2, 12600, Note_on_c, 9, 40, 127
2, 12624, Note_on_c, 9, 40, 0
2, 12630, Note_on_c, 9, 44, 127
2, 12654, Note_on_c, 9, 44, 0
2, 12660, Note_on_c, 9, 44, 127
2, 12684, Note_on_c, 9, 44, 0
2, 12690, Note_on_c, 9, 35, 127
2, 12714, Note_on_c, 9, 35, 0
2, 12720, Note_on_c, 9, 42, 127
2, 12720, Note_on_c, 9, 35, 127
2, 12768, Note_on_c, 9, 42, 0
2, 12768, Note_on_c, 9, 35, 0
2, 12780, Note_on_c, 9, 46, 127
2, 12828, Note_on_c, 9, 46, 0
2, 12840, Note_on_c, 9, 40, 127
2, 12840, Note_on_c, 9, 42, 127
2, 12864, Note_on_c, 9, 40, 0
2, 12864, Note_on_c, 9, 42, 0
2, 12870, Note_on_c, 9, 42, 127
2, 12894, Note_on_c, 9, 42, 0
2, 12900, Note_on_c, 9, 57, 100
2, 12900, Note_on_c, 9, 35, 127
2, 12948, Note_on_c, 9, 57, 0
2, 12948, Note_on_c, 9, 35, 0
2, 12960, Note_on_c, 9, 42, 127
2, 12960, Note_on_c, 9, 35, 127
2, 13008, Note_on_c, 9, 42, 0
2, 13008, Note_on_c, 9, 35, 0
2, 13020, Note_on_c, 9, 46, 127
2, 13068, Note_on_c, 9, 46, 0
2, 13080, Note_on_c, 9, 40, 127
2, 13104, Note_on_c, 9, 40, 0
2, 13110, Note_on_c, 9, 44, 127
2, 13134, Note_on_c, 9, 44, 0
2, 13140, Note_on_c, 9, 44, 127
2, 13164, Note_on_c, 9, 44, 0
2, 13170, Note_on_c, 9, 35, 127
2, 13194, Note_on_c, 9, 35, 0
2, 13200, Note_on_c, 9, 42, 127
2, 13200, Note_on_c, 9, 35, 127
2, 13248, Note_on_c, 9, 42, 0
2, 13248, Note_on_c, 9, 35, 0
2, 13260, Note_on_c, 9, 46, 127
2, 13308, Note_on_c, 9, 46, 0
2, 13320, Note_on_c, 9, 40, 127
2, 13320, Note_on_c, 9, 42, 127
2, 13344, Note_on_c, 9, 40, 0
2, 13344, Note_on_c, 9, 42, 0
2, 13350, Note_on_c, 9, 42, 127
2, 13374, Note_on_c, 9, 42, 0
2, 13380, Note_on_c, 9, 57, 100
2, 13380, Note_on_c, 9, 35, 127
2, 13428, Note_on_c, 9, 57, 0
2, 13428, Note_on_c, 9, 35, 0
2, 13440, Note_on_c, 9, 44, 127
2, 13464, Note_on_c, 9, 44, 0
2, 13470, Note_on_c, 9, 35, 127
2, 13542, Note_on_c, 9, 35, 0
2, 13560, Note_on_c, 9, 42, 127
2, 13560, Note_on_c, 9, 38, 127
2, 13562, Note_on_c, 9, 39, 94
2, 13594, Note_on_c, 9, 39, 0
2, 13632, Note_on_c, 9, 42, 0
2, 13632, Note_on_c, 9, 38, 0
2, 13650, Note_on_c, 9, 35, 127
2, 13674, Note_on_c, 9, 35, 0
2, 13680, Note_on_c, 9, 44, 127
2, 13680, Note_on_c, 9, 35, 127
2, 13728, Note_on_c, 9, 44, 0
2, 13728, Note_on_c, 9, 35, 0
2, 13740, Note_on_c, 9, 42, 127
2, 13764, Note_on_c, 9, 42, 0
2, 13770, Note_on_c, 9, 44, 127
2, 13794, Note_on_c, 9, 44, 0
2, 13797, Note_on_c, 9, 39, 96
2, 13800, Note_on_c, 9, 44, 127
2, 13800, Note_on_c, 9, 38, 127
2, 13830, Note_on_c, 9, 39, 0
2, 13848, Note_on_c, 9, 44, 0
2, 13848, Note_on_c, 9, 38, 0
2, 13860, Note_on_c, 9, 52, 80
2, 13860, Note_on_c, 9, 35, 127
2, 13884, Note_on_c, 9, 35, 0
2, 13908, Note_on_c, 9, 52, 0
2, 14010, Note_on_c, 9, 35, 127
2, 14034, Note_on_c, 9, 35, 0
2, 14035, Note_on_c, 9, 39, 100
2, 14040, Note_on_c, 9, 38, 127
2, 14077, Note_on_c, 9, 39, 0
2, 14112, Note_on_c, 9, 38, 0
2, 14130, Note_on_c, 9, 35, 127
2, 14154, Note_on_c, 9, 35, 0
2, 14160, Note_on_c, 9, 42, 127
2, 14160, Note_on_c, 9, 35, 127
2, 14184, Note_on_c, 9, 42, 0
2, 14184, Note_on_c, 9, 35, 0
2, 14190, Note_on_c, 9, 46, 127
2, 14238, Note_on_c, 9, 46, 0
2, 14250, Note_on_c, 9, 42, 127
2, 14274, Note_on_c, 9, 42, 0
2, 14276, Note_on_c, 9, 39, 114
2, 14280, Note_on_c, 9, 38, 127
2, 14304, Note_on_c, 9, 38, 0
2, 14310, Note_on_c, 9, 44, 127
2, 14314, Note_on_c, 9, 39, 0
2, 14334, Note_on_c, 9, 44, 0
2, 14340, Note_on_c, 9, 58, 127
2, 14340, Note_on_c, 9, 35, 127
2, 14388, Note_on_c, 9, 58, 0
2, 14388, Note_on_c, 9, 35, 0
2, 14400, Note_on_c, 9, 42, 127
2, 14430, Note_on_c, 9, 35, 127
2, 14472, Note_on_c, 9, 42, 0
2, 14502, Note_on_c, 9, 35, 0
2, 14520, Note_on_c, 9, 39, 105
2, 14520, Note_on_c, 9, 42, 127
2, 14520, Note_on_c, 9, 38, 127
2, 14562, Note_on_c, 9, 39, 0
2, 14592, Note_on_c, 9, 42, 0
2, 14592, Note_on_c, 9, 38, 0
2, 14610, Note_on_c, 9, 35, 127
2, 14634, Note_on_c, 9, 35, 0
2, 14640, Note_on_c, 9, 42, 127
2, 14640, Note_on_c, 9, 35, 127
2, 14664, Note_on_c, 9, 42, 0
2, 14664, Note_on_c, 9, 35, 0
2, 14670, Note_on_c, 9, 42, 127
2, 14742, Note_on_c, 9, 42, 0
2, 14760, Note_on_c, 9, 39, 113
2, 14760, Note_on_c, 9, 42, 127
2, 14760, Note_on_c, 9, 38, 127
2, 14802, Note_on_c, 9, 39, 0
2, 14808, Note_on_c, 9, 42, 0
2, 14808, Note_on_c, 9, 38, 0
2, 14820, Note_on_c, 9, 52, 80
2, 14820, Note_on_c, 9, 35, 127
2, 14868, Note_on_c, 9, 52, 0
2, 14868, Note_on_c, 9, 35, 0
2, 14880, Note_on_c, 9, 42, 127
2, 14952, Note_on_c, 9, 42, 0
2, 14970, Note_on_c, 9, 35, 127
2, 14994, Note_on_c, 9, 35, 0
2, 15000, Note_on_c, 9, 38, 127
2, 15000, Note_on_c, 9, 42, 127
2, 15001, Note_on_c, 9, 39, 105
2, 15038, Note_on_c, 9, 39, 0
2, 15048, Note_on_c, 9, 38, 0
2, 15048, Note_on_c, 9, 42, 0
2, 15060, Note_on_c, 9, 42, 127
2, 15084, Note_on_c, 9, 42, 0
2, 15090, Note_on_c, 9, 35, 127
2, 15090, Note_on_c, 9, 46, 127
2, 15114, Note_on_c, 9, 35, 0
2, 15120, Note_on_c, 9, 35, 127
2, 15138, Note_on_c, 9, 46, 0
2, 15150, Note_on_c, 9, 42, 127
2, 15168, Note_on_c, 9, 35, 0
2, 15222, Note_on_c, 9, 42, 0
2, 15235, Note_on_c, 9, 39, 111
2, 15240, Note_on_c, 9, 38, 127
2, 15260, Note_on_c, 9, 39, 0
2, 15264, Note_on_c, 9, 38, 0
2, 15270, Note_on_c, 9, 44, 127
2, 15294, Note_on_c, 9, 44, 0
2, 15300, Note_on_c, 9, 35, 127
2, 15348, Note_on_c, 9, 35, 0
2, 15360, Note_on_c, 9, 44, 94
2, 15360, Note_on_c, 9, 44, 127
2, 15360, Note_on_c, 9, 35, 127
2, 15381, Note_on_c, 9, 44, 0
2, 15391, Note_on_c, 9, 42, 66
2, 15407, Note_on_c, 9, 42, 0
2, 15408, Note_on_c, 9, 44, 0
2, 15408, Note_on_c, 9, 35, 0
2, 15420, Note_on_c, 9, 42, 127
2, 15424, Note_on_c, 9, 44, 64
2, 15443, Note_on_c, 9, 44, 0
2, 15452, Note_on_c, 9, 42, 94
2, 15468, Note_on_c, 9, 42, 0
2, 15480, Note_on_c, 9, 42, 127
2, 15480, Note_on_c, 9, 38, 127
2, 15483, Note_on_c, 9, 39, 105
2, 15487, Note_on_c, 9, 42, 0
2, 15504, Note_on_c, 9, 39, 0
2, 15514, Note_on_c, 9, 44, 71
2, 15528, Note_on_c, 9, 42, 0
2, 15528, Note_on_c, 9, 38, 0
2, 15540, Note_on_c, 9, 44, 127
2, 15541, Note_on_c, 9, 44, 0
2, 15545, Note_on_c, 9, 42, 80
2, 15561, Note_on_c, 9, 42, 0
2, 15564, Note_on_c, 9, 44, 0
2, 15570, Note_on_c, 9, 46, 127
2, 15570, Note_on_c, 9, 35, 127
2, 15573, Note_on_c, 9, 44, 100
2, 15594, Note_on_c, 9, 46, 0
2, 15594, Note_on_c, 9, 35, 0
2, 15596, Note_on_c, 9, 44, 0
2, 15600, Note_on_c, 9, 35, 127
2, 15603, Note_on_c, 9, 42, 77
2, 15621, Note_on_c, 9, 42, 0
2, 15624, Note_on_c, 9, 35, 0
2, 15629, Note_on_c, 9, 44, 92
2, 15630, Note_on_c, 9, 42, 127
2, 15649, Note_on_c, 9, 44, 0
2, 15661, Note_on_c, 9, 42, 80
2, 15675, Note_on_c, 9, 42, 0
2, 15678, Note_on_c, 9, 42, 0
2, 15689, Note_on_c, 9, 44, 96
2, 15690, Note_on_c, 9, 42, 127
2, 15692, Note_on_c, 9, 46, 89
2, 15704, Note_on_c, 9, 44, 0
2, 15714, Note_on_c, 9, 42, 0
2, 15718, Note_on_c, 9, 39, 107
2, 15720, Note_on_c, 9, 38, 127
2, 15726, Note_on_c, 9, 46, 0
2, 15737, Note_on_c, 9, 39, 0
2, 15748, Note_on_c, 9, 44, 83
2, 15758, Note_on_c, 9, 44, 0
2, 15768, Note_on_c, 9, 38, 0
2, 15780, Note_on_c, 9, 42, 88
2, 15780, Note_on_c, 9, 58, 127
2, 15780, Note_on_c, 9, 35, 127
2, 15795, Note_on_c, 9, 42, 0
2, 15809, Note_on_c, 9, 44, 98
2, 15828, Note_on_c, 9, 58, 0
2, 15828, Note_on_c, 9, 35, 0
2, 15832, Note_on_c, 9, 44, 0
2, 15840, Note_on_c, 9, 42, 83
2, 15840, Note_on_c, 9, 42, 127
2, 15858, Note_on_c, 9, 42, 0
2, 15864, Note_on_c, 9, 42, 0
2, 15869, Note_on_c, 9, 44, 94
2, 15870, Note_on_c, 9, 35, 127
2, 15891, Note_on_c, 9, 44, 0
2, 15897, Note_on_c, 9, 42, 74
2, 15912, Note_on_c, 9, 42, 0
2, 15927, Note_on_c, 9, 44, 105
2, 15942, Note_on_c, 9, 35, 0
2, 15957, Note_on_c, 9, 39, 105
2, 15958, Note_on_c, 9, 42, 94
2, 15960, Note_on_c, 9, 42, 127
2, 15960, Note_on_c, 9, 35, 127
2, 15967, Note_on_c, 9, 44, 0
2, 15977, Note_on_c, 9, 39, 0
2, 15977, Note_on_c, 9, 42, 0
2, 15989, Note_on_c, 9, 44, 105
2, 16011, Note_on_c, 9, 44, 0
2, 16020, Note_on_c, 9, 42, 85
2, 16032, Note_on_c, 9, 42, 0
2, 16032, Note_on_c, 9, 35, 0
2, 16034, Note_on_c, 9, 42, 0
2, 16047, Note_on_c, 9, 44, 100
2, 16050, Note_on_c, 9, 35, 127
2, 16074, Note_on_c, 9, 35, 0
2, 16075, Note_on_c, 9, 44, 0
2, 16079, Note_on_c, 9, 42, 86
2, 16080, Note_on_c, 9, 42, 127
2, 16080, Note_on_c, 9, 35, 127
2, 16098, Note_on_c, 9, 42, 0
2, 16107, Note_on_c, 9, 44, 85
2, 16128, Note_on_c, 9, 42, 0
2, 16128, Note_on_c, 9, 35, 0
2, 16133, Note_on_c, 9, 44, 0
2, 16139, Note_on_c, 9, 42, 77
2, 16140, Note_on_c, 9, 46, 127
2, 16154, Note_on_c, 9, 42, 0
2, 16164, Note_on_c, 9, 46, 0
2, 16167, Note_on_c, 9, 44, 105
2, 16170, Note_on_c, 9, 42, 127
2, 16186, Note_on_c, 9, 44, 0
2, 16194, Note_on_c, 9, 42, 0
2, 16197, Note_on_c, 9, 39, 113
2, 16199, Note_on_c, 9, 42, 109
2, 16200, Note_on_c, 9, 42, 127
2, 16200, Note_on_c, 9, 38, 127
2, 16217, Note_on_c, 9, 39, 0
2, 16218, Note_on_c, 9, 42, 0
2, 16229, Note_on_c, 9, 44, 98
2, 16245, Note_on_c, 9, 44, 0
2, 16248, Note_on_c, 9, 42, 0
2, 16248, Note_on_c, 9, 38, 0
2, 16258, Note_on_c, 9, 46, 113
2, 16260, Note_on_c, 9, 57, 80
2, 16260, Note_on_c, 9, 35, 127
2, 16308, Note_on_c, 9, 57, 0
2, 16308, Note_on_c, 9, 35, 0
2, 16320, Note_on_c, 9, 42, 127
2, 16321, Note_on_c, 9, 46, 0
2, 16325, Note_on_c, 9, 44, 109
2, 16340, Note_on_c, 9, 44, 0
2, 16352, Note_on_c, 9, 42, 94
2, 16366, Note_on_c, 9, 42, 0
2, 16384, Note_on_c, 9, 44, 101
2, 16403, Note_on_c, 9, 44, 0
2, 16412, Note_on_c, 9, 42, 80
2, 16416, Note_on_c, 9, 42, 0
2, 16426, Note_on_c, 9, 42, 0
2, 16440, Note_on_c, 9, 42, 127
2, 16445, Note_on_c, 9, 44, 111
2, 16445, Note_on_c, 9, 39, 103
2, 16465, Note_on_c, 9, 44, 0
2, 16465, Note_on_c, 9, 39, 0
2, 16477, Note_on_c, 9, 42, 80
2, 16491, Note_on_c, 9, 42, 0
2, 16506, Note_on_c, 9, 44, 103
2, 16526, Note_on_c, 9, 44, 0
2, 16533, Note_on_c, 9, 42, 92
2, 16536, Note_on_c, 9, 42, 0
2, 16549, Note_on_c, 9, 42, 0
2, 16560, Note_on_c, 9, 35, 127
2, 16560, Note_on_c, 9, 42, 127
2, 16563, Note_on_c, 9, 44, 105
2, 16583, Note_on_c, 9, 44, 0
2, 16592, Note_on_c, 9, 42, 90
2, 16606, Note_on_c, 9, 42, 0
2, 16608, Note_on_c, 9, 35, 0
2, 16608, Note_on_c, 9, 42, 0
2, 16620, Note_on_c, 9, 35, 127
2, 16620, Note_on_c, 9, 42, 127
2, 16621, Note_on_c, 9, 44, 92
2, 16643, Note_on_c, 9, 44, 0
2, 16647, Note_on_c, 9, 42, 82
2, 16661, Note_on_c, 9, 42, 0
2, 16668, Note_on_c, 9, 35, 0
2, 16668, Note_on_c, 9, 42, 0
2, 16678, Note_on_c, 9, 44, 113
2, 16679, Note_on_c, 9, 39, 113
2, 16680, Note_on_c, 9, 40, 100
2, 16699, Note_on_c, 9, 39, 0
2, 16701, Note_on_c, 9, 44, 0
2, 16712, Note_on_c, 9, 42, 83
2, 16725, Note_on_c, 9, 42, 0
2, 16728, Note_on_c, 9, 40, 0
2, 16738, Note_on_c, 9, 44, 120
2, 16740, Note_on_c, 9, 57, 80
2, 16740, Note_on_c, 9, 35, 127
2, 16761, Note_on_c, 9, 44, 0
2, 16770, Note_on_c, 9, 42, 81
2, 16785, Note_on_c, 9, 42, 0
2, 16788, Note_on_c, 9, 57, 0
2, 16788, Note_on_c, 9, 35, 0
2, 16799, Note_on_c, 9, 44, 80
2, 16800, Note_on_c, 9, 35, 127
2, 16824, Note_on_c, 9, 42, 77
2, 16830, Note_on_c, 9, 44, 0
2, 16841, Note_on_c, 9, 42, 0
2, 16860, Note_on_c, 9, 44, 76
2, 16879, Note_on_c, 9, 44, 0
2, 16885, Note_on_c, 9, 42, 80
2, 16896, Note_on_c, 9, 35, 0
2, 16900, Note_on_c, 9, 42, 0
2, 16917, Note_on_c, 9, 44, 109
2, 16918, Note_on_c, 9, 39, 118
2, 16920, Note_on_c, 9, 35, 127
2, 16937, Note_on_c, 9, 39, 0
2, 16946, Note_on_c, 9, 44, 0
2, 16951, Note_on_c, 9, 42, 83
2, 16967, Note_on_c, 9, 42, 0
2, 16981, Note_on_c, 9, 44, 94
2, 17001, Note_on_c, 9, 44, 0
2, 17009, Note_on_c, 9, 42, 83
2, 17016, Note_on_c, 9, 35, 0
2, 17025, Note_on_c, 9, 42, 0
2, 17038, Note_on_c, 9, 44, 94
2, 17040, Note_on_c, 9, 35, 127
2, 17061, Note_on_c, 9, 44, 0
2, 17066, Note_on_c, 9, 42, 73
2, 17080, Note_on_c, 9, 42, 0
2, 17094, Note_on_c, 9, 46, 100
2, 17136, Note_on_c, 9, 35, 0
2, 17155, Note_on_c, 9, 46, 0
2, 17160, Note_on_c, 9, 39, 103
2, 17160, Note_on_c, 9, 44, 122
2, 17160, Note_on_c, 9, 40, 127
2, 17176, Note_on_c, 9, 39, 0
2, 17185, Note_on_c, 9, 44, 0
2, 17189, Note_on_c, 9, 42, 90
2, 17205, Note_on_c, 9, 42, 0
2, 17208, Note_on_c, 9, 40, 0
2, 17218, Note_on_c, 9, 44, 94
2, 17220, Note_on_c, 9, 49, 80
2, 17220, Note_on_c, 9, 35, 127
2, 17243, Note_on_c, 9, 44, 0
2, 17248, Note_on_c, 9, 42, 90
2, 17262, Note_on_c, 9, 42, 0
2, 17268, Note_on_c, 9, 49, 0
2, 17268, Note_on_c, 9, 35, 0
2, 17277, Note_on_c, 9, 44, 103
2, 17280, Note_on_c, 9, 42, 127
2, 17280, Note_on_c, 9, 35, 127
2, 17307, Note_on_c, 9, 44, 0
2, 17309, Note_on_c, 9, 42, 83
2, 17324, Note_on_c, 9, 42, 0
2, 17328, Note_on_c, 9, 35, 0
2, 17328, Note_on_c, 9, 42, 0
2, 17340, Note_on_c, 9, 44, 94
2, 17340, Note_on_c, 9, 46, 127
2, 17360, Note_on_c, 9, 44, 0
2, 17367, Note_on_c, 9, 42, 80
2, 17388, Note_on_c, 9, 46, 0
2, 17390, Note_on_c, 9, 42, 0
2, 17399, Note_on_c, 9, 44, 109
2, 17400, Note_on_c, 9, 39, 94
2, 17400, Note_on_c, 9, 40, 127
2, 17419, Note_on_c, 9, 39, 0
2, 17421, Note_on_c, 9, 44, 0
2, 17424, Note_on_c, 9, 40, 0
2, 17430, Note_on_c, 9, 44, 127
2, 17431, Note_on_c, 9, 42, 80
2, 17446, Note_on_c, 9, 42, 0
2, 17454, Note_on_c, 9, 44, 0
2, 17460, Note_on_c, 9, 44, 94
2, 17460, Note_on_c, 9, 44, 127
2, 17482, Note_on_c, 9, 44, 0
2, 17484, Note_on_c, 9, 44, 0
2, 17487, Note_on_c, 9, 42, 90
2, 17490, Note_on_c, 9, 35, 127
2, 17506, Note_on_c, 9, 42, 0
2, 17514, Note_on_c, 9, 35, 0
2, 17518, Note_on_c, 9, 44, 94
2, 17520, Note_on_c, 9, 42, 127
2, 17520, Note_on_c, 9, 35, 127
2, 17540, Note_on_c, 9, 44, 0
2, 17549, Note_on_c, 9, 42, 77
2, 17563, Note_on_c, 9, 42, 0
2, 17568, Note_on_c, 9, 35, 0
2, 17568, Note_on_c, 9, 42, 0
2, 17580, Note_on_c, 9, 46, 127
2, 17581, Note_on_c, 9, 44, 77
2, 17599, Note_on_c, 9, 44, 0
2, 17608, Note_on_c, 9, 42, 76
2, 17624, Note_on_c, 9, 42, 0
2, 17628, Note_on_c, 9, 46, 0
2, 17640, Note_on_c, 9, 40, 127
2, 17640, Note_on_c, 9, 42, 127
2, 17641, Note_on_c, 9, 44, 98
2, 17642, Note_on_c, 9, 39, 100
2, 17659, Note_on_c, 9, 39, 0
2, 17664, Note_on_c, 9, 40, 0
2, 17664, Note_on_c, 9, 42, 0
2, 17664, Note_on_c, 9, 44, 0
2, 17670, Note_on_c, 9, 42, 127
2, 17672, Note_on_c, 9, 42, 72
2, 17684, Note_on_c, 9, 42, 0
2, 17694, Note_on_c, 9, 42, 0
2, 17699, Note_on_c, 9, 46, 90
2, 17700, Note_on_c, 9, 57, 100
2, 17700, Note_on_c, 9, 35, 127
2, 17748, Note_on_c, 9, 57, 0
2, 17748, Note_on_c, 9, 35, 0
2, 17760, Note_on_c, 9, 44, 82
2, 17760, Note_on_c, 9, 42, 127
2, 17760, Note_on_c, 9, 35, 127
2, 17763, Note_on_c, 9, 46, 0
2, 17788, Note_on_c, 9, 44, 0
2, 17788, Note_on_c, 9, 42, 85
2, 17803, Note_on_c, 9, 42, 0
2, 17808, Note_on_c, 9, 35, 0
2, 17808, Note_on_c, 9, 42, 0
2, 17818, Note_on_c, 9, 44, 88
2, 17820, Note_on_c, 9, 46, 127
2, 17837, Note_on_c, 9, 44, 0
2, 17849, Note_on_c, 9, 42, 75
2, 17864, Note_on_c, 9, 42, 0
2, 17868, Note_on_c, 9, 46, 0
2, 17877, Note_on_c, 9, 44, 111
2, 17879, Note_on_c, 9, 39, 109
2, 17880, Note_on_c, 9, 40, 127
2, 17899, Note_on_c, 9, 39, 0
2, 17901, Note_on_c, 9, 44, 0
2, 17904, Note_on_c, 9, 40, 0
2, 17909, Note_on_c, 9, 42, 83
2, 17910, Note_on_c, 9, 44, 127
2, 17925, Note_on_c, 9, 42, 0
2, 17934, Note_on_c, 9, 44, 0
2, 17938, Note_on_c, 9, 44, 85
2, 17940, Note_on_c, 9, 44, 127
2, 17964, Note_on_c, 9, 44, 0
2, 17964, Note_on_c, 9, 44, 0
2, 17967, Note_on_c, 9, 42, 75
2, 17970, Note_on_c, 9, 35, 127
2, 17983, Note_on_c, 9, 42, 0
2, 17994, Note_on_c, 9, 35, 0
2, 17997, Note_on_c, 9, 44, 66
2, 18000, Note_on_c, 9, 42, 127
2, 18000, Note_on_c, 9, 35, 127
2, 18025, Note_on_c, 9, 44, 0
2, 18027, Note_on_c, 9, 42, 41
2, 18046, Note_on_c, 9, 42, 0
2, 18048, Note_on_c, 9, 35, 0
2, 18048, Note_on_c, 9, 42, 0
2, 18060, Note_on_c, 9, 46, 127
2, 18061, Note_on_c, 9, 44, 71
2, 18085, Note_on_c, 9, 44, 0
2, 18090, Note_on_c, 9, 42, 69
2, 18102, Note_on_c, 9, 42, 0
2, 18108, Note_on_c, 9, 46, 0
2, 18118, Note_on_c, 9, 44, 105
2, 18119, Note_on_c, 9, 39, 100
2, 18120, Note_on_c, 9, 40, 127
2, 18120, Note_on_c, 9, 42, 127
2, 18137, Note_on_c, 9, 39, 0
2, 18140, Note_on_c, 9, 44, 0
2, 18144, Note_on_c, 9, 40, 0
2, 18144, Note_on_c, 9, 42, 0
2, 18150, Note_on_c, 9, 42, 127
2, 18153, Note_on_c, 9, 42, 63
2, 18166, Note_on_c, 9, 42, 0
2, 18174, Note_on_c, 9, 42, 0
2, 18178, Note_on_c, 9, 44, 94
2, 18180, Note_on_c, 9, 57, 100
2, 18180, Note_on_c, 9, 35, 127
2, 18196, Note_on_c, 9, 44, 0
2, 18206, Note_on_c, 9, 46, 103
2, 18228, Note_on_c, 9, 57, 0
2, 18228, Note_on_c, 9, 35, 0
2, 18238, Note_on_c, 9, 44, 85
2, 18240, Note_on_c, 9, 46, 0
2, 18240, Note_on_c, 9, 42, 127
2, 18240, Note_on_c, 9, 35, 127
2, 18267, Note_on_c, 9, 44, 0
2, 18268, Note_on_c, 9, 42, 85
2, 18285, Note_on_c, 9, 42, 0
2, 18288, Note_on_c, 9, 35, 0
2, 18288, Note_on_c, 9, 42, 0
2, 18300, Note_on_c, 9, 46, 127
2, 18304, Note_on_c, 9, 44, 66
2, 18322, Note_on_c, 9, 44, 0
2, 18333, Note_on_c, 9, 42, 49
2, 18345, Note_on_c, 9, 42, 0
2, 18348, Note_on_c, 9, 46, 0
2, 18359, Note_on_c, 9, 44, 105
2, 18360, Note_on_c, 9, 39, 109
2, 18360, Note_on_c, 9, 40, 127
2, 18380, Note_on_c, 9, 39, 0
2, 18384, Note_on_c, 9, 40, 0
2, 18386, Note_on_c, 9, 44, 0
2, 18390, Note_on_c, 9, 44, 127
2, 18392, Note_on_c, 9, 42, 69
2, 18406, Note_on_c, 9, 42, 0
2, 18414, Note_on_c, 9, 44, 0
2, 18420, Note_on_c, 9, 44, 94
2, 18420, Note_on_c, 9, 44, 127
2, 18444, Note_on_c, 9, 44, 0
2, 18447, Note_on_c, 9, 42, 78
2, 18448, Note_on_c, 9, 44, 0
2, 18450, Note_on_c, 9, 35, 127
2, 18463, Note_on_c, 9, 42, 0
2, 18474, Note_on_c, 9, 35, 0
2, 18479, Note_on_c, 9, 44, 59
2, 18480, Note_on_c, 9, 42, 127
2, 18480, Note_on_c, 9, 35, 127
2, 18506, Note_on_c, 9, 42, 65
2, 18511, Note_on_c, 9, 44, 0
2, 18523, Note_on_c, 9, 42, 0
2, 18528, Note_on_c, 9, 35, 0
2, 18528, Note_on_c, 9, 42, 0
2, 18538, Note_on_c, 9, 44, 81
2, 18540, Note_on_c, 9, 46, 127
2, 18561, Note_on_c, 9, 44, 0
2, 18569, Note_on_c, 9, 42, 73
2, 18582, Note_on_c, 9, 42, 0
2, 18588, Note_on_c, 9, 46, 0
2, 18599, Note_on_c, 9, 44, 96
2, 18599, Note_on_c, 9, 39, 105
2, 18600, Note_on_c, 9, 40, 127
2, 18600, Note_on_c, 9, 42, 127
2, 18617, Note_on_c, 9, 39, 0
2, 18620, Note_on_c, 9, 44, 0
2, 18624, Note_on_c, 9, 40, 0
2, 18624, Note_on_c, 9, 42, 0
2, 18630, Note_on_c, 9, 42, 127
2, 18631, Note_on_c, 9, 42, 77
2, 18645, Note_on_c, 9, 42, 0
2, 18654, Note_on_c, 9, 42, 0
2, 18660, Note_on_c, 9, 57, 100
2, 18660, Note_on_c, 9, 35, 127
2, 18661, Note_on_c, 9, 44, 77
2, 18675, Note_on_c, 9, 44, 0
2, 18689, Note_on_c, 9, 46, 90
2, 18708, Note_on_c, 9, 57, 0
2, 18708, Note_on_c, 9, 35, 0
2, 18720, Note_on_c, 9, 42, 127
2, 18720, Note_on_c, 9, 35, 127
2, 18722, Note_on_c, 9, 44, 90
2, 18728, Note_on_c, 9, 46, 0
2, 18744, Note_on_c, 9, 44, 0
2, 18752, Note_on_c, 9, 42, 82
2, 18767, Note_on_c, 9, 42, 0
2, 18768, Note_on_c, 9, 35, 0
2, 18768, Note_on_c, 9, 42, 0
2, 18780, Note_on_c, 9, 46, 127
2, 18782, Note_on_c, 9, 44, 85
2, 18799, Note_on_c, 9, 44, 0
2, 18810, Note_on_c, 9, 42, 77
2, 18825, Note_on_c, 9, 42, 0
2, 18828, Note_on_c, 9, 46, 0
2, 18839, Note_on_c, 9, 44, 105
2, 18840, Note_on_c, 9, 40, 127
2, 18841, Note_on_c, 9, 39, 109
2, 18860, Note_on_c, 9, 39, 0
2, 18862, Note_on_c, 9, 44, 0
2, 18864, Note_on_c, 9, 40, 0
2, 18870, Note_on_c, 9, 42, 78
2, 18870, Note_on_c, 9, 44, 127
2, 18886, Note_on_c, 9, 42, 0
2, 18894, Note_on_c, 9, 44, 0
2, 18900, Note_on_c, 9, 44, 81
2, 18900, Note_on_c, 9, 44, 127
2, 18918, Note_on_c, 9, 44, 0
2, 18924, Note_on_c, 9, 44, 0
2, 18929, Note_on_c, 9, 42, 89
2, 18930, Note_on_c, 9, 35, 127
2, 18948, Note_on_c, 9, 42, 0
2, 18954, Note_on_c, 9, 35, 0
2, 18959, Note_on_c, 9, 44, 88
2, 18960, Note_on_c, 9, 42, 127
2, 18960, Note_on_c, 9, 35, 127
2, 18983, Note_on_c, 9, 44, 0
2, 18987, Note_on_c, 9, 42, 88
2, 19004, Note_on_c, 9, 42, 0
2, 19008, Note_on_c, 9, 35, 0
2, 19008, Note_on_c, 9, 42, 0
2, 19019, Note_on_c, 9, 44, 83
2, 19020, Note_on_c, 9, 46, 127
2, 19040, Note_on_c, 9, 44, 0
2, 19046, Note_on_c, 9, 42, 72
2, 19061, Note_on_c, 9, 42, 0
2, 19068, Note_on_c, 9, 46, 0
2, 19077, Note_on_c, 9, 44, 107
2, 19078, Note_on_c, 9, 39, 109
2, 19080, Note_on_c, 9, 40, 127
2, 19080, Note_on_c, 9, 42, 127
2, 19097, Note_on_c, 9, 39, 0
2, 19100, Note_on_c, 9, 44, 0
2, 19104, Note_on_c, 9, 40, 0
2, 19104, Note_on_c, 9, 42, 0
2, 19110, Note_on_c, 9, 42, 78
2, 19110, Note_on_c, 9, 42, 127
2, 19124, Note_on_c, 9, 42, 0
2, 19134, Note_on_c, 9, 42, 0
2, 19140, Note_on_c, 9, 44, 90
2, 19140, Note_on_c, 9, 57, 100
2, 19140, Note_on_c, 9, 35, 127
2, 19161, Note_on_c, 9, 44, 0
2, 19168, Note_on_c, 9, 42, 81
2, 19184, Note_on_c, 9, 42, 0
2, 19188, Note_on_c, 9, 57, 0
2, 19188, Note_on_c, 9, 35, 0
2, 19200, Note_on_c, 9, 42, 127
2, 19200, Note_on_c, 9, 35, 127
2, 19202, Note_on_c, 9, 44, 82
2, 19231, Note_on_c, 9, 42, 77
2, 19238, Note_on_c, 9, 44, 0
2, 19248, Note_on_c, 9, 42, 0
2, 19248, Note_on_c, 9, 35, 0
2, 19248, Note_on_c, 9, 42, 0
2, 19260, Note_on_c, 9, 46, 127
2, 19261, Note_on_c, 9, 44, 80
2, 19284, Note_on_c, 9, 44, 0
2, 19289, Note_on_c, 9, 42, 77
2, 19305, Note_on_c, 9, 42, 0
2, 19308, Note_on_c, 9, 46, 0
2, 19319, Note_on_c, 9, 39, 116
2, 19319, Note_on_c, 9, 44, 105
2, 19320, Note_on_c, 9, 40, 127
2, 19340, Note_on_c, 9, 39, 0
2, 19344, Note_on_c, 9, 44, 0
2, 19344, Note_on_c, 9, 40, 0
2, 19350, Note_on_c, 9, 44, 127
2, 19353, Note_on_c, 9, 42, 81
2, 19368, Note_on_c, 9, 42, 0
2, 19374, Note_on_c, 9, 44, 0
2, 19380, Note_on_c, 9, 44, 127
2, 19383, Note_on_c, 9, 44, 98
2, 19404, Note_on_c, 9, 44, 0
2, 19410, Note_on_c, 9, 44, 0
2, 19410, Note_on_c, 9, 42, 78
2, 19410, Note_on_c, 9, 35, 127
2, 19427, Note_on_c, 9, 42, 0
2, 19434, Note_on_c, 9, 35, 0
2, 19440, Note_on_c, 9, 44, 94
2, 19440, Note_on_c, 9, 42, 127
2, 19440, Note_on_c, 9, 35, 127
2, 19468, Note_on_c, 9, 44, 0
2, 19470, Note_on_c, 9, 42, 80
2, 19488, Note_on_c, 9, 42, 0
2, 19488, Note_on_c, 9, 35, 0
2, 19490, Note_on_c, 9, 42, 0
2, 19500, Note_on_c, 9, 46, 127
2, 19503, Note_on_c, 9, 44, 90
2, 19532, Note_on_c, 9, 44, 0
2, 19535, Note_on_c, 9, 42, 64
2, 19548, Note_on_c, 9, 46, 0
2, 19551, Note_on_c, 9, 42, 0
2, 19560, Note_on_c, 9, 44, 109
2, 19560, Note_on_c, 9, 40, 127
2, 19560, Note_on_c, 9, 42, 127
2, 19561, Note_on_c, 9, 39, 107
2, 19581, Note_on_c, 9, 39, 0
2, 19584, Note_on_c, 9, 40, 0
2, 19584, Note_on_c, 9, 42, 0
2, 19585, Note_on_c, 9, 44, 0
2, 19590, Note_on_c, 9, 42, 127
2, 19594, Note_on_c, 9, 42, 92
2, 19611, Note_on_c, 9, 42, 0
2, 19614, Note_on_c, 9, 42, 0
2, 19620, Note_on_c, 9, 57, 100
2, 19620, Note_on_c, 9, 35, 127
2, 19621, Note_on_c, 9, 44, 96
2, 19650, Note_on_c, 9, 44, 0
2, 19651, Note_on_c, 9, 42, 86
2, 19668, Note_on_c, 9, 57, 0
2, 19668, Note_on_c, 9, 35, 0
2, 19673, Note_on_c, 9, 42, 0
2, 19680, Note_on_c, 9, 42, 127
2, 19680, Note_on_c, 9, 35, 127
2, 19686, Note_on_c, 9, 44, 89
2, 19715, Note_on_c, 9, 42, 84
2, 19721, Note_on_c, 9, 44, 0
2, 19728, Note_on_c, 9, 42, 0
2, 19728, Note_on_c, 9, 35, 0
2, 19733, Note_on_c, 9, 42, 0
2, 19740, Note_on_c, 9, 46, 127
2, 19746, Note_on_c, 9, 44, 85
2, 19773, Note_on_c, 9, 42, 75
2, 19778, Note_on_c, 9, 44, 0
2, 19788, Note_on_c, 9, 46, 0
2, 19788, Note_on_c, 9, 42, 0
2, 19800, Note_on_c, 9, 40, 127
2, 19801, Note_on_c, 9, 39, 113
2, 19802, Note_on_c, 9, 44, 100
2, 19822, Note_on_c, 9, 39, 0
2, 19824, Note_on_c, 9, 40, 0
2, 19827, Note_on_c, 9, 44, 0
2, 19830, Note_on_c, 9, 44, 127
2, 19833, Note_on_c, 9, 42, 83
2, 19849, Note_on_c, 9, 42, 0
2, 19854, Note_on_c, 9, 44, 0
2, 19860, Note_on_c, 9, 44, 127
2, 19861, Note_on_c, 9, 44, 94
2, 19884, Note_on_c, 9, 44, 0
2, 19884, Note_on_c, 9, 44, 0
2, 19884, Note_on_c, 9, 42, 74
2, 19890, Note_on_c, 9, 35, 127
2, 19904, Note_on_c, 9, 42, 0
2, 19914, Note_on_c, 9, 35, 0
2, 19918, Note_on_c, 9, 44, 94
2, 19920, Note_on_c, 9, 42, 127
2, 19920, Note_on_c, 9, 35, 127
2, 19947, Note_on_c, 9, 44, 0
2, 19951, Note_on_c, 9, 42, 72
2, 19966, Note_on_c, 9, 42, 0
2, 19968, Note_on_c, 9, 35, 0
2, 19968, Note_on_c, 9, 42, 0
2, 19980, Note_on_c, 9, 44, 83
2, 19980, Note_on_c, 9, 46, 127
2, 20001, Note_on_c, 9, 44, 0
2, 20009, Note_on_c, 9, 42, 75
2, 20024, Note_on_c, 9, 42, 0
2, 20028, Note_on_c, 9, 46, 0
2, 20040, Note_on_c, 9, 40, 127
2, 20040, Note_on_c, 9, 42, 127
2, 20041, Note_on_c, 9, 44, 111
2, 20041, Note_on_c, 9, 39, 116
2, 20061, Note_on_c, 9, 39, 0
2, 20062, Note_on_c, 9, 44, 0
2, 20064, Note_on_c, 9, 40, 0
2, 20064, Note_on_c, 9, 42, 0
2, 20070, Note_on_c, 9, 42, 127
2, 20078, Note_on_c, 9, 42, 82
2, 20092, Note_on_c, 9, 42, 0
2, 20094, Note_on_c, 9, 42, 0
2, 20100, Note_on_c, 9, 57, 100
2, 20100, Note_on_c, 9, 35, 127
2, 20104, Note_on_c, 9, 44, 85
2, 20133, Note_on_c, 9, 42, 70
2, 20138, Note_on_c, 9, 44, 0
2, 20148, Note_on_c, 9, 57, 0
2, 20148, Note_on_c, 9, 35, 0
2, 20153, Note_on_c, 9, 42, 0
2, 20160, Note_on_c, 9, 42, 127
2, 20160, Note_on_c, 9, 35, 127
2, 20166, Note_on_c, 9, 44, 90
2, 20194, Note_on_c, 9, 42, 78
2, 20198, Note_on_c, 9, 44, 0
2, 20208, Note_on_c, 9, 42, 0
2, 20208, Note_on_c, 9, 35, 0
2, 20211, Note_on_c, 9, 42, 0
2, 20220, Note_on_c, 9, 46, 127
2, 20223, Note_on_c, 9, 44, 81
2, 20249, Note_on_c, 9, 44, 0
2, 20252, Note_on_c, 9, 42, 63
2, 20268, Note_on_c, 9, 46, 0
2, 20268, Note_on_c, 9, 42, 0
2, 20280, Note_on_c, 9, 44, 109
2, 20280, Note_on_c, 9, 40, 127
2, 20281, Note_on_c, 9, 39, 114
2, 20303, Note_on_c, 9, 39, 0
2, 20304, Note_on_c, 9, 44, 0
2, 20304, Note_on_c, 9, 40, 0
2, 20310, Note_on_c, 9, 44, 127
2, 20315, Note_on_c, 9, 42, 88
2, 20329, Note_on_c, 9, 42, 0
2, 20334, Note_on_c, 9, 44, 0
2, 20340, Note_on_c, 9, 44, 127
2, 20341, Note_on_c, 9, 44, 81
2, 20364, Note_on_c, 9, 44, 0
2, 20365, Note_on_c, 9, 44, 0
2, 20365, Note_on_c, 9, 42, 83
2, 20370, Note_on_c, 9, 35, 127
2, 20386, Note_on_c, 9, 42, 0
2, 20394, Note_on_c, 9, 35, 0
2, 20397, Note_on_c, 9, 44, 90
2, 20400, Note_on_c, 9, 42, 127
2, 20400, Note_on_c, 9, 35, 127
2, 20428, Note_on_c, 9, 44, 0
2, 20429, Note_on_c, 9, 42, 81
2, 20445, Note_on_c, 9, 42, 0
2, 20448, Note_on_c, 9, 35, 0
2, 20448, Note_on_c, 9, 42, 0
2, 20460, Note_on_c, 9, 46, 127
2, 20461, Note_on_c, 9, 44, 76
2, 20486, Note_on_c, 9, 42, 78
2, 20490, Note_on_c, 9, 44, 0
2, 20504, Note_on_c, 9, 42, 0
2, 20508, Note_on_c, 9, 46, 0
2, 20517, Note_on_c, 9, 39, 113
2, 20519, Note_on_c, 9, 44, 109
2, 20520, Note_on_c, 9, 40, 127
2, 20520, Note_on_c, 9, 42, 127
2, 20536, Note_on_c, 9, 39, 0
2, 20540, Note_on_c, 9, 44, 0
2, 20544, Note_on_c, 9, 40, 0
2, 20544, Note_on_c, 9, 42, 0
2, 20550, Note_on_c, 9, 42, 127
2, 20552, Note_on_c, 9, 42, 92
2, 20567, Note_on_c, 9, 42, 0
2, 20574, Note_on_c, 9, 42, 0
2, 20580, Note_on_c, 9, 44, 85
2, 20580, Note_on_c, 9, 57, 100
2, 20580, Note_on_c, 9, 35, 127
2, 20607, Note_on_c, 9, 44, 0
2, 20609, Note_on_c, 9, 42, 81
2, 20625, Note_on_c, 9, 42, 0
2, 20628, Note_on_c, 9, 57, 0
2, 20628, Note_on_c, 9, 35, 0
2, 20640, Note_on_c, 9, 35, 127
2, 20643, Note_on_c, 9, 44, 109
2, 20672, Note_on_c, 9, 42, 77
2, 20673, Note_on_c, 9, 44, 0
2, 20686, Note_on_c, 9, 42, 0
2, 20702, Note_on_c, 9, 44, 90
2, 20730, Note_on_c, 9, 42, 90
2, 20731, Note_on_c, 9, 44, 0
2, 20736, Note_on_c, 9, 35, 0
2, 20746, Note_on_c, 9, 42, 0
2, 20759, Note_on_c, 9, 39, 109
2, 20760, Note_on_c, 9, 44, 109
2, 20760, Note_on_c, 9, 35, 127
2, 20776, Note_on_c, 9, 39, 0
2, 20783, Note_on_c, 9, 44, 0
2, 20791, Note_on_c, 9, 42, 85
2, 20807, Note_on_c, 9, 42, 0
2, 20821, Note_on_c, 9, 44, 94
2, 20845, Note_on_c, 9, 44, 0
2, 20849, Note_on_c, 9, 42, 81
2, 20856, Note_on_c, 9, 35, 0
2, 20866, Note_on_c, 9, 42, 0
2, 20879, Note_on_c, 9, 44, 94
2, 20880, Note_on_c, 9, 35, 127
2, 20904, Note_on_c, 9, 44, 0
2, 20907, Note_on_c, 9, 42, 85
2, 20925, Note_on_c, 9, 42, 0
2, 20940, Note_on_c, 9, 44, 88
2, 20964, Note_on_c, 9, 44, 0
2, 20970, Note_on_c, 9, 42, 81
2, 20976, Note_on_c, 9, 35, 0
2, 20986, Note_on_c, 9, 42, 0
2, 21000, Note_on_c, 9, 39, 111
2, 21000, Note_on_c, 9, 40, 127
2, 21001, Note_on_c, 9, 44, 107
2, 21017, Note_on_c, 9, 39, 0
2, 21021, Note_on_c, 9, 44, 0
2, 21032, Note_on_c, 9, 42, 82
2, 21046, Note_on_c, 9, 42, 0
2, 21048, Note_on_c, 9, 40, 0
2, 21060, Note_on_c, 9, 44, 94
2, 21060, Note_on_c, 9, 49, 80
2, 21060, Note_on_c, 9, 35, 127
2, 21088, Note_on_c, 9, 42, 90
2, 21090, Note_on_c, 9, 44, 0
2, 21108, Note_on_c, 9, 49, 0
2, 21108, Note_on_c, 9, 35, 0
2, 21110, Note_on_c, 9, 42, 0
2, 21120, Note_on_c, 9, 42, 127
2, 21120, Note_on_c, 9, 35, 127
2, 21122, Note_on_c, 9, 44, 94
2, 21151, Note_on_c, 9, 44, 0
2, 21152, Note_on_c, 9, 42, 77
2, 21168, Note_on_c, 9, 42, 0
2, 21168, Note_on_c, 9, 35, 0
2, 21170, Note_on_c, 9, 42, 0
2, 21180, Note_on_c, 9, 46, 127
2, 21185, Note_on_c, 9, 44, 86
2, 21208, Note_on_c, 9, 44, 0
2, 21210, Note_on_c, 9, 42, 81
2, 21228, Note_on_c, 9, 46, 0
2, 21228, Note_on_c, 9, 42, 0
2, 21240, Note_on_c, 9, 40, 127
2, 21241, Note_on_c, 9, 39, 111
2, 21242, Note_on_c, 9, 44, 109
2, 21260, Note_on_c, 9, 39, 0
2, 21264, Note_on_c, 9, 40, 0
2, 21266, Note_on_c, 9, 44, 0
2, 21270, Note_on_c, 9, 44, 127
2, 21274, Note_on_c, 9, 42, 82
2, 21291, Note_on_c, 9, 42, 0
2, 21294, Note_on_c, 9, 44, 0
2, 21300, Note_on_c, 9, 44, 127
2, 21302, Note_on_c, 9, 44, 98
2, 21323, Note_on_c, 9, 44, 0
2, 21324, Note_on_c, 9, 44, 0
2, 21328, Note_on_c, 9, 42, 88
2, 21330, Note_on_c, 9, 35, 127
2, 21349, Note_on_c, 9, 42, 0
2, 21354, Note_on_c, 9, 35, 0
2, 21360, Note_on_c, 9, 42, 127
2, 21360, Note_on_c, 9, 35, 127
2, 21363, Note_on_c, 9, 44, 90
2, 21390, Note_on_c, 9, 42, 88
2, 21391, Note_on_c, 9, 44, 0
2, 21408, Note_on_c, 9, 42, 0
2, 21408, Note_on_c, 9, 35, 0
2, 21410, Note_on_c, 9, 42, 0
2, 21420, Note_on_c, 9, 46, 127
2, 21423, Note_on_c, 9, 44, 85
2, 21447, Note_on_c, 9, 42, 82
2, 21449, Note_on_c, 9, 44, 0
2, 21464, Note_on_c, 9, 42, 0
2, 21468, Note_on_c, 9, 46, 0
2, 21479, Note_on_c, 9, 44, 107
2, 21480, Note_on_c, 9, 39, 109
2, 21480, Note_on_c, 9, 40, 127
2, 21480, Note_on_c, 9, 42, 127
2, 21496, Note_on_c, 9, 39, 0
2, 21501, Note_on_c, 9, 44, 0
2, 21504, Note_on_c, 9, 40, 0
2, 21504, Note_on_c, 9, 42, 0
2, 21510, Note_on_c, 9, 42, 127
2, 21513, Note_on_c, 9, 42, 86
2, 21529, Note_on_c, 9, 42, 0
2, 21534, Note_on_c, 9, 42, 0
2, 21540, Note_on_c, 9, 57, 100
2, 21540, Note_on_c, 9, 35, 127
2, 21544, Note_on_c, 9, 44, 94
2, 21568, Note_on_c, 9, 44, 0
2, 21575, Note_on_c, 9, 42, 72
2, 21588, Note_on_c, 9, 57, 0
2, 21588, Note_on_c, 9, 35, 0
2, 21594, Note_on_c, 9, 42, 0
2, 21600, Note_on_c, 9, 42, 127
2, 21600, Note_on_c, 9, 35, 127
2, 21606, Note_on_c, 9, 44, 83
2, 21632, Note_on_c, 9, 42, 81
2, 21635, Note_on_c, 9, 44, 0
2, 21647, Note_on_c, 9, 42, 0
2, 21648, Note_on_c, 9, 35, 0
2, 21648, Note_on_c, 9, 42, 0
2, 21660, Note_on_c, 9, 46, 127
2, 21663, Note_on_c, 9, 44, 73
2, 21689, Note_on_c, 9, 44, 0
2, 21693, Note_on_c, 9, 42, 65
2, 21702, Note_on_c, 9, 42, 0
2, 21708, Note_on_c, 9, 46, 0
2, 21720, Note_on_c, 9, 40, 127
2, 21721, Note_on_c, 9, 39, 111
2, 21722, Note_on_c, 9, 44, 109
2, 21738, Note_on_c, 9, 39, 0
2, 21744, Note_on_c, 9, 40, 0
2, 21747, Note_on_c, 9, 44, 0
2, 21750, Note_on_c, 9, 44, 127
2, 21755, Note_on_c, 9, 42, 71
2, 21769, Note_on_c, 9, 42, 0
2, 21774, Note_on_c, 9, 44, 0
2, 21780, Note_on_c, 9, 44, 94
2, 21780, Note_on_c, 9, 44, 127
2, 21803, Note_on_c, 9, 44, 0
2, 21804, Note_on_c, 9, 44, 0
2, 21805, Note_on_c, 9, 42, 85
2, 21810, Note_on_c, 9, 35, 127
2, 21825, Note_on_c, 9, 42, 0
2, 21834, Note_on_c, 9, 35, 0
2, 21837, Note_on_c, 9, 44, 94
2, 21840, Note_on_c, 9, 42, 127
2, 21840, Note_on_c, 9, 35, 127
2, 21865, Note_on_c, 9, 44, 0
2, 21867, Note_on_c, 9, 42, 82
2, 21884, Note_on_c, 9, 42, 0
2, 21888, Note_on_c, 9, 35, 0
2, 21888, Note_on_c, 9, 42, 0
2, 21900, Note_on_c, 9, 46, 127
2, 21901, Note_on_c, 9, 44, 81
2, 21926, Note_on_c, 9, 44, 0
2, 21932, Note_on_c, 9, 42, 85
2, 21948, Note_on_c, 9, 46, 0
2, 21949, Note_on_c, 9, 42, 0
2, 21960, Note_on_c, 9, 39, 109
2, 21960, Note_on_c, 9, 40, 127
2, 21960, Note_on_c, 9, 42, 127
2, 21961, Note_on_c, 9, 44, 111
2, 21979, Note_on_c, 9, 39, 0
2, 21982, Note_on_c, 9, 44, 0
2, 21984, Note_on_c, 9, 40, 0
2, 21984, Note_on_c, 9, 42, 0
2, 21990, Note_on_c, 9, 42, 127
2, 21994, Note_on_c, 9, 42, 89
2, 22010, Note_on_c, 9, 42, 0
2, 22014, Note_on_c, 9, 42, 0
2, 22020, Note_on_c, 9, 57, 100
2, 22020, Note_on_c, 9, 35, 127
2, 22023, Note_on_c, 9, 44, 88
2, 22051, Note_on_c, 9, 42, 82
2, 22056, Note_on_c, 9, 44, 0
2, 22068, Note_on_c, 9, 57, 0
2, 22068, Note_on_c, 9, 35, 0
2, 22073, Note_on_c, 9, 42, 0
2, 22080, Note_on_c, 9, 42, 127
2, 22080, Note_on_c, 9, 35, 127
2, 22083, Note_on_c, 9, 44, 88
2, 22110, Note_on_c, 9, 42, 69
2, 22112, Note_on_c, 9, 44, 0
2, 22126, Note_on_c, 9, 42, 0
2, 22128, Note_on_c, 9, 35, 0
2, 22128, Note_on_c, 9, 42, 0
2, 22139, Note_on_c, 9, 44, 81
2, 22140, Note_on_c, 9, 46, 127
2, 22166, Note_on_c, 9, 42, 77
2, 22174, Note_on_c, 9, 44, 0
2, 22183, Note_on_c, 9, 42, 0
2, 22188, Note_on_c, 9, 46, 0
2, 22197, Note_on_c, 9, 44, 111
2, 22197, Note_on_c, 9, 39, 111
2, 22200, Note_on_c, 9, 40, 127
2, 22216, Note_on_c, 9, 39, 0
2, 22223, Note_on_c, 9, 44, 0
2, 22224, Note_on_c, 9, 40, 0
2, 22230, Note_on_c, 9, 44, 127
2, 22232, Note_on_c, 9, 42, 88
2, 22249, Note_on_c, 9, 42, 0
2, 22254, Note_on_c, 9, 44, 0
2, 22260, Note_on_c, 9, 44, 89
2, 22260, Note_on_c, 9, 44, 127
2, 22284, Note_on_c, 9, 44, 0
2, 22285, Note_on_c, 9, 42, 89
2, 22290, Note_on_c, 9, 35, 127
2, 22292, Note_on_c, 9, 44, 0
2, 22307, Note_on_c, 9, 42, 0
2, 22314, Note_on_c, 9, 35, 0
2, 22318, Note_on_c, 9, 44, 90
2, 22320, Note_on_c, 9, 42, 127
2, 22320, Note_on_c, 9, 35, 127
2, 22349, Note_on_c, 9, 44, 0
2, 22350, Note_on_c, 9, 42, 77
2, 22368, Note_on_c, 9, 42, 0
2, 22368, Note_on_c, 9, 35, 0
2, 22370, Note_on_c, 9, 42, 0
2, 22380, Note_on_c, 9, 46, 127
2, 22382, Note_on_c, 9, 44, 85
2, 22409, Note_on_c, 9, 42, 90
2, 22413, Note_on_c, 9, 44, 0
2, 22428, Note_on_c, 9, 46, 0
2, 22428, Note_on_c, 9, 42, 0
2, 22440, Note_on_c, 9, 44, 105
2, 22440, Note_on_c, 9, 39, 109
2, 22440, Note_on_c, 9, 40, 127
2, 22440, Note_on_c, 9, 42, 127
2, 22459, Note_on_c, 9, 39, 0
2, 22464, Note_on_c, 9, 44, 0
2, 22464, Note_on_c, 9, 40, 0
2, 22464, Note_on_c, 9, 42, 0
2, 22470, Note_on_c, 9, 42, 127
2, 22471, Note_on_c, 9, 42, 83
2, 22486, Note_on_c, 9, 42, 0
2, 22494, Note_on_c, 9, 42, 0
2, 22500, Note_on_c, 9, 44, 89
2, 22500, Note_on_c, 9, 57, 100
2, 22500, Note_on_c, 9, 35, 127
2, 22522, Note_on_c, 9, 44, 0
2, 22529, Note_on_c, 9, 42, 89
2, 22548, Note_on_c, 9, 57, 0
2, 22548, Note_on_c, 9, 35, 0
2, 22549, Note_on_c, 9, 42, 0
2, 22560, Note_on_c, 9, 42, 127
2, 22560, Note_on_c, 9, 35, 127
2, 22564, Note_on_c, 9, 44, 85
2, 22590, Note_on_c, 9, 42, 74
2, 22592, Note_on_c, 9, 44, 0
2, 22608, Note_on_c, 9, 42, 0
2, 22608, Note_on_c, 9, 35, 0
2, 22609, Note_on_c, 9, 42, 0
2, 22620, Note_on_c, 9, 46, 127
2, 22625, Note_on_c, 9, 44, 78
2, 22647, Note_on_c, 9, 44, 0
2, 22651, Note_on_c, 9, 42, 84
2, 22666, Note_on_c, 9, 42, 0
2, 22668, Note_on_c, 9, 46, 0
2, 22680, Note_on_c, 9, 39, 111
2, 22680, Note_on_c, 9, 44, 105
2, 22680, Note_on_c, 9, 40, 127
2, 22699, Note_on_c, 9, 39, 0
2, 22704, Note_on_c, 9, 40, 0
2, 22705, Note_on_c, 9, 44, 0
2, 22710, Note_on_c, 9, 44, 127
2, 22711, Note_on_c, 9, 42, 81
2, 22728, Note_on_c, 9, 42, 0
2, 22734, Note_on_c, 9, 44, 0
2, 22740, Note_on_c, 9, 44, 127
2, 22743, Note_on_c, 9, 44, 85
2, 22764, Note_on_c, 9, 44, 0
2, 22765, Note_on_c, 9, 44, 0
2, 22770, Note_on_c, 9, 42, 84
2, 22770, Note_on_c, 9, 35, 127
2, 22791, Note_on_c, 9, 42, 0
2, 22794, Note_on_c, 9, 35, 0
2, 22800, Note_on_c, 9, 42, 127
2, 22800, Note_on_c, 9, 35, 127
2, 22801, Note_on_c, 9, 44, 88
2, 22817, Note_on_c, 9, 44, 0
2, 22824, Note_on_c, 9, 46, 98
2, 22848, Note_on_c, 9, 42, 0
2, 22848, Note_on_c, 9, 35, 0
2, 22851, Note_on_c, 9, 46, 0
2, 22857, Note_on_c, 9, 44, 88
2, 22860, Note_on_c, 9, 46, 127
2, 22874, Note_on_c, 9, 44, 0
2, 22884, Note_on_c, 9, 46, 94
2, 22908, Note_on_c, 9, 46, 0
2, 22912, Note_on_c, 9, 46, 0
2, 22920, Note_on_c, 9, 42, 94
2, 22920, Note_on_c, 9, 40, 127
2, 22920, Note_on_c, 9, 42, 127
2, 22922, Note_on_c, 9, 39, 98
2, 22937, Note_on_c, 9, 39, 0
2, 22944, Note_on_c, 9, 42, 0
2, 22944, Note_on_c, 9, 40, 0
2, 22946, Note_on_c, 9, 42, 0
2, 22950, Note_on_c, 9, 42, 127
2, 22951, Note_on_c, 9, 44, 84
2, 22969, Note_on_c, 9, 44, 0
2, 22974, Note_on_c, 9, 42, 0
2, 22978, Note_on_c, 9, 42, 88
2, 22980, Note_on_c, 9, 57, 100
2, 22980, Note_on_c, 9, 35, 127
2, 22999, Note_on_c, 9, 42, 0
2, 23014, Note_on_c, 9, 44, 94
2, 23028, Note_on_c, 9, 57, 0
2, 23028, Note_on_c, 9, 35, 0
2, 23040, Note_on_c, 9, 42, 127
2, 23040, Note_on_c, 9, 35, 127
2, 23043, Note_on_c, 9, 44, 0
2, 23046, Note_on_c, 9, 42, 83
2, 23070, Note_on_c, 9, 42, 0
2, 23078, Note_on_c, 9, 44, 88
2, 23088, Note_on_c, 9, 35, 0
2, 23088, Note_on_c, 9, 42, 0
2, 23099, Note_on_c, 9, 44, 0
2, 23100, Note_on_c, 9, 46, 127
2, 23104, Note_on_c, 9, 42, 76
2, 23126, Note_on_c, 9, 42, 0
2, 23130, Note_on_c, 9, 44, 103
2, 23148, Note_on_c, 9, 46, 0
2, 23156, Note_on_c, 9, 44, 0
2, 23160, Note_on_c, 9, 40, 127
2, 23161, Note_on_c, 9, 39, 109
2, 23164, Note_on_c, 9, 42, 100
2, 23179, Note_on_c, 9, 39, 0
2, 23184, Note_on_c, 9, 40, 0
2, 23187, Note_on_c, 9, 42, 0
2, 23190, Note_on_c, 9, 44, 127
2, 23196, Note_on_c, 9, 44, 82
2, 23214, Note_on_c, 9, 44, 0
2, 23218, Note_on_c, 9, 44, 0
2, 23220, Note_on_c, 9, 44, 127
2, 23223, Note_on_c, 9, 42, 84
2, 23244, Note_on_c, 9, 44, 0
2, 23245, Note_on_c, 9, 42, 0
2, 23250, Note_on_c, 9, 46, 96
2, 23250, Note_on_c, 9, 35, 127
2, 23274, Note_on_c, 9, 35, 0
2, 23280, Note_on_c, 9, 42, 127
2, 23280, Note_on_c, 9, 35, 127
2, 23283, Note_on_c, 9, 44, 90
2, 23286, Note_on_c, 9, 46, 0
2, 23305, Note_on_c, 9, 44, 0
2, 23311, Note_on_c, 9, 42, 85
2, 23328, Note_on_c, 9, 42, 0
2, 23328, Note_on_c, 9, 35, 0
2, 23328, Note_on_c, 9, 42, 0
2, 23340, Note_on_c, 9, 46, 127
2, 23343, Note_on_c, 9, 44, 88
2, 23364, Note_on_c, 9, 44, 0
2, 23373, Note_on_c, 9, 42, 82
2, 23388, Note_on_c, 9, 46, 0
2, 23388, Note_on_c, 9, 42, 0
2, 23400, Note_on_c, 9, 40, 127
2, 23400, Note_on_c, 9, 42, 127
2, 23402, Note_on_c, 9, 39, 101
2, 23402, Note_on_c, 9, 44, 116
2, 23417, Note_on_c, 9, 39, 0
2, 23424, Note_on_c, 9, 40, 0
2, 23424, Note_on_c, 9, 42, 0
2, 23424, Note_on_c, 9, 44, 0
2, 23430, Note_on_c, 9, 42, 127
2, 23434, Note_on_c, 9, 42, 83
2, 23448, Note_on_c, 9, 42, 0
2, 23454, Note_on_c, 9, 42, 0
2, 23460, Note_on_c, 9, 57, 100
2, 23460, Note_on_c, 9, 35, 127
2, 23463, Note_on_c, 9, 44, 103
2, 23485, Note_on_c, 9, 44, 0
2, 23493, Note_on_c, 9, 42, 74
2, 23508, Note_on_c, 9, 57, 0
2, 23508, Note_on_c, 9, 35, 0
2, 23508, Note_on_c, 9, 42, 0
2, 23520, Note_on_c, 9, 42, 127
2, 23520, Note_on_c, 9, 35, 127
2, 23523, Note_on_c, 9, 44, 94
2, 23540, Note_on_c, 9, 44, 0
2, 23549, Note_on_c, 9, 46, 94
2, 23568, Note_on_c, 9, 42, 0
2, 23568, Note_on_c, 9, 35, 0
2, 23572, Note_on_c, 9, 46, 0
2, 23577, Note_on_c, 9, 42, 88
2, 23580, Note_on_c, 9, 46, 127
2, 23594, Note_on_c, 9, 42, 0
2, 23613, Note_on_c, 9, 44, 66
2, 23622, Note_on_c, 9, 44, 0
2, 23628, Note_on_c, 9, 46, 0
2, 23640, Note_on_c, 9, 40, 127
2, 23641, Note_on_c, 9, 42, 109
2, 23643, Note_on_c, 9, 39, 100
2, 23658, Note_on_c, 9, 39, 0
2, 23659, Note_on_c, 9, 42, 0
2, 23664, Note_on_c, 9, 40, 0
2, 23670, Note_on_c, 9, 44, 127
2, 23673, Note_on_c, 9, 44, 80
2, 23694, Note_on_c, 9, 44, 0
2, 23694, Note_on_c, 9, 44, 0
2, 23700, Note_on_c, 9, 44, 127
2, 23701, Note_on_c, 9, 42, 75
2, 23715, Note_on_c, 9, 42, 0
2, 23724, Note_on_c, 9, 44, 0
2, 23727, Note_on_c, 9, 44, 101
2, 23730, Note_on_c, 9, 35, 127
2, 23752, Note_on_c, 9, 44, 0
2, 23754, Note_on_c, 9, 35, 0
2, 23759, Note_on_c, 9, 42, 96
2, 23760, Note_on_c, 9, 42, 127
2, 23760, Note_on_c, 9, 35, 127
2, 23780, Note_on_c, 9, 42, 0
2, 23792, Note_on_c, 9, 44, 81
2, 23808, Note_on_c, 9, 42, 0
2, 23808, Note_on_c, 9, 35, 0
2, 23808, Note_on_c, 9, 44, 0
2, 23820, Note_on_c, 9, 42, 98
2, 23820, Note_on_c, 9, 46, 127
2, 23839, Note_on_c, 9, 42, 0
2, 23848, Note_on_c, 9, 46, 107
2, 23868, Note_on_c, 9, 46, 0
2, 23877, Note_on_c, 9, 46, 0
2, 23880, Note_on_c, 9, 42, 103
2, 23880, Note_on_c, 9, 40, 127
2, 23880, Note_on_c, 9, 42, 127
2, 23882, Note_on_c, 9, 39, 113
2, 23898, Note_on_c, 9, 42, 0
2, 23898, Note_on_c, 9, 39, 0
2, 23904, Note_on_c, 9, 40, 0
2, 23904, Note_on_c, 9, 42, 0
2, 23910, Note_on_c, 9, 42, 127
2, 23915, Note_on_c, 9, 42, 88
2, 23930, Note_on_c, 9, 42, 0
2, 23934, Note_on_c, 9, 42, 0
2, 23940, Note_on_c, 9, 57, 100
2, 23940, Note_on_c, 9, 35, 127
2, 23943, Note_on_c, 9, 44, 90
2, 23970, Note_on_c, 9, 44, 0
2, 23970, Note_on_c, 9, 42, 76
2, 23988, Note_on_c, 9, 57, 0
2, 23988, Note_on_c, 9, 35, 0
2, 23991, Note_on_c, 9, 42, 0
2, 24000, Note_on_c, 9, 42, 127
2, 24000, Note_on_c, 9, 35, 127
2, 24004, Note_on_c, 9, 44, 88
2, 24030, Note_on_c, 9, 42, 76
2, 24034, Note_on_c, 9, 44, 0
2, 24047, Note_on_c, 9, 42, 0
2, 24048, Note_on_c, 9, 35, 0
2, 24048, Note_on_c, 9, 42, 0
2, 24060, Note_on_c, 9, 44, 77
2, 24060, Note_on_c, 9, 46, 127
2, 24077, Note_on_c, 9, 44, 0
2, 24087, Note_on_c, 9, 46, 94
2, 24108, Note_on_c, 9, 46, 0
2, 24116, Note_on_c, 9, 46, 0
2, 24119, Note_on_c, 9, 42, 105
2, 24120, Note_on_c, 9, 39, 96
2, 24120, Note_on_c, 9, 40, 127
2, 24137, Note_on_c, 9, 39, 0
2, 24138, Note_on_c, 9, 42, 0
2, 24144, Note_on_c, 9, 40, 0
2, 24150, Note_on_c, 9, 44, 127
2, 24152, Note_on_c, 9, 42, 94
2, 24167, Note_on_c, 9, 42, 0
2, 24174, Note_on_c, 9, 44, 0
2, 24180, Note_on_c, 9, 44, 127
2, 24183, Note_on_c, 9, 42, 85
2, 24197, Note_on_c, 9, 42, 0
2, 24204, Note_on_c, 9, 44, 0
2, 24210, Note_on_c, 9, 35, 127
2, 24212, Note_on_c, 9, 42, 94
2, 24229, Note_on_c, 9, 42, 0
2, 24234, Note_on_c, 9, 35, 0
2, 24240, Note_on_c, 9, 42, 127
2, 24240, Note_on_c, 9, 35, 127
2, 24246, Note_on_c, 9, 42, 89
2, 24260, Note_on_c, 9, 42, 0
2, 24273, Note_on_c, 9, 42, 77
2, 24285, Note_on_c, 9, 42, 0
2, 24288, Note_on_c, 9, 35, 0
2, 24288, Note_on_c, 9, 42, 0
2, 24300, Note_on_c, 9, 46, 127
2, 24303, Note_on_c, 9, 42, 86
2, 24314, Note_on_c, 9, 42, 0
2, 24328, Note_on_c, 9, 44, 90
2, 24348, Note_on_c, 9, 46, 0
2, 24348, Note_on_c, 9, 44, 0
2, 24359, Note_on_c, 9, 39, 94
2, 24360, Note_on_c, 9, 40, 127
2, 24360, Note_on_c, 9, 42, 127
2, 24377, Note_on_c, 9, 39, 0
2, 24384, Note_on_c, 9, 40, 0
2, 24384, Note_on_c, 9, 42, 0
2, 24390, Note_on_c, 9, 42, 127
2, 24414, Note_on_c, 9, 42, 0
2, 24420, Note_on_c, 9, 57, 100
2, 24420, Note_on_c, 9, 35, 127
2, 24468, Note_on_c, 9, 57, 0
2, 24468, Note_on_c, 9, 35, 0
2, 24602, Note_on_c, 9, 39, 100
2, 24623, Note_on_c, 9, 39, 0
2, 25108, Note_on_c, 9, 103, 17
2, 25128, Note_on_c, 9, 103, 0
2, 25194, Note_on_c, 9, 103, 29
2, 25216, Note_on_c, 9, 103, 0
2, 25216, End_track
3, 0, Start_track
3, 0, MIDI_port, 0
3, 0, Title_t, "elec piano"
3, 0, Program_c, 0, 4
3, 507, Note_on_c, 0, 103, 11
3, 554, Note_on_c, 0, 103, 0
3, 940, Note_on_c, 0, 73, 29
3, 953, Note_on_c, 0, 73, 0
3, 993, Note_on_c, 0, 72, 66
3, 994, Note_on_c, 0, 63, 47
3, 1027, Note_on_c, 0, 70, 70
3, 1035, Note_on_c, 0, 63, 0
3, 1055, Note_on_c, 0, 68, 63
3, 1063, Note_on_c, 0, 72, 0
3, 1065, Note_on_c, 0, 70, 0
3, 1085, Note_on_c, 0, 68, 0
3, 1087, Note_on_c, 0, 63, 24
3, 1113, Note_on_c, 0, 70, 59
3, 1144, Note_on_c, 0, 68, 65
3, 1149, Note_on_c, 0, 70, 0
3, 1151, Note_on_c, 0, 63, 0
3, 1167, Note_on_c, 0, 63, 65
3, 1173, Note_on_c, 0, 68, 0
3, 1198, Note_on_c, 0, 68, 77
3, 1922, Note_on_c, 0, 68, 0
3, 1925, Note_on_c, 0, 63, 0
3, 2038, Note_on_c, 0, 60, 88
3, 2039, Note_on_c, 0, 51, 64
3, 2040, Note_on_c, 0, 56, 81
3, 2156, Note_on_c, 0, 56, 0
3, 2159, Note_on_c, 0, 58, 80
3, 2206, Note_on_c, 0, 60, 0
3, 2220, Note_on_c, 0, 56, 89
3, 2226, Note_on_c, 0, 51, 0
3, 2226, Note_on_c, 0, 56, 0
3, 2227, Note_on_c, 0, 58, 0
3, 2283, Note_on_c, 0, 49, 77
3, 2295, Note_on_c, 0, 49, 0
3, 2337, Note_on_c, 0, 49, 75
3, 2340, Note_on_c, 0, 56, 82
3, 2340, Note_on_c, 0, 53, 84
3, 2710, Note_on_c, 0, 49, 0
3, 2727, Note_on_c, 0, 56, 0
3, 2730, Note_on_c, 0, 49, 101
3, 2736, Note_on_c, 0, 53, 0
3, 2761, Note_on_c, 0, 51, 67
3, 2786, Note_on_c, 0, 49, 0
3, 2790, Note_on_c, 0, 53, 76
3, 2798, Note_on_c, 0, 51, 0
3, 2802, Note_on_c, 0, 53, 0
3, 2820, Note_on_c, 0, 51, 85
3, 3009, Note_on_c, 0, 60, 103
3, 3010, Note_on_c, 0, 56, 89
3, 3122, Note_on_c, 0, 58, 86
3, 3123, Note_on_c, 0, 56, 0
3, 3135, Note_on_c, 0, 60, 0
3, 3179, Note_on_c, 0, 56, 92
3, 3187, Note_on_c, 0, 51, 0
3, 3190, Note_on_c, 0, 58, 0
3, 3200, Note_on_c, 0, 56, 0
3, 3297, Note_on_c, 0, 49, 85
3, 3298, Note_on_c, 0, 56, 92
3, 3298, Note_on_c, 0, 53, 81
3, 3550, Note_on_c, 0, 49, 0
3, 3567, Note_on_c, 0, 49, 76
3, 3595, Note_on_c, 0, 49, 0
3, 3600, Note_on_c, 0, 50, 86
3, 3610, Note_on_c, 0, 53, 0
3, 3684, Note_on_c, 0, 51, 80
3, 3734, Note_on_c, 0, 50, 0
3, 3756, Note_on_c, 0, 51, 0
3, 3760, Note_on_c, 0, 56, 0
3, 3776, Note_on_c, 0, 51, 86
3, 3901, Note_on_c, 0, 56, 90
3, 3907, Note_on_c, 0, 51, 0
3, 3927, Note_on_c, 0, 56, 0
3, 3930, Note_on_c, 0, 51, 71
3, 3951, Note_on_c, 0, 51, 0
3, 3961, Note_on_c, 0, 51, 84
3, 3961, Note_on_c, 0, 60, 96
3, 3969, Note_on_c, 0, 56, 59
3, 4014, Note_on_c, 0, 56, 0
3, 4080, Note_on_c, 0, 58, 76
3, 4108, Note_on_c, 0, 60, 0
3, 4131, Note_on_c, 0, 51, 0
3, 4139, Note_on_c, 0, 56, 82
3, 4145, Note_on_c, 0, 58, 0
3, 4145, Note_on_c, 0, 56, 0
3, 4203, Note_on_c, 0, 49, 59
3, 4211, Note_on_c, 0, 49, 0
3, 4239, Note_on_c, 0, 51, 60
3, 4251, Note_on_c, 0, 51, 0
3, 4260, Note_on_c, 0, 49, 81
3, 4260, Note_on_c, 0, 56, 94
3, 4261, Note_on_c, 0, 51, 74
3, 4262, Note_on_c, 0, 53, 72
3, 4512, Note_on_c, 0, 53, 0
3, 4513, Note_on_c, 0, 51, 0
3, 4528, Note_on_c, 0, 53, 71
3, 4534, Note_on_c, 0, 49, 0
3, 4565, Note_on_c, 0, 56, 0
3, 4565, Note_on_c, 0, 49, 64
3, 4570, Note_on_c, 0, 53, 0
3, 4593, Note_on_c, 0, 51, 75
3, 4602, Note_on_c, 0, 49, 0
3, 4619, Note_on_c, 0, 49, 107
3, 4621, Note_on_c, 0, 51, 0
3, 4646, Note_on_c, 0, 53, 100
3, 4652, Note_on_c, 0, 49, 0
3, 4686, Note_on_c, 0, 53, 0
3, 4711, Note_on_c, 0, 51, 78
3, 4721, Note_on_c, 0, 51, 0
3, 4741, Note_on_c, 0, 58, 103
3, 4741, Note_on_c, 0, 51, 94
3, 4741, Note_on_c, 0, 55, 82
3, 4994, Note_on_c, 0, 55, 0
3, 5011, Note_on_c, 0, 55, 78
3, 5021, Note_on_c, 0, 51, 0
3, 5045, Note_on_c, 0, 51, 73
3, 5055, Note_on_c, 0, 55, 0
3, 5063, Note_on_c, 0, 58, 0
3, 5073, Note_on_c, 0, 55, 80
3, 5081, Note_on_c, 0, 51, 0
3, 5099, Note_on_c, 0, 51, 103
3, 5155, Note_on_c, 0, 55, 0
3, 5160, Note_on_c, 0, 58, 103
3, 5164, Note_on_c, 0, 51, 0
3, 5181, Note_on_c, 0, 58, 0
3, 5220, Note_on_c, 0, 48, 94
3, 5221, Note_on_c, 0, 56, 105
3, 5222, Note_on_c, 0, 51, 86
3, 5585, Note_on_c, 0, 51, 0
3, 5610, Note_on_c, 0, 51, 84
3, 5614, Note_on_c, 0, 48, 0
3, 5618, Note_on_c, 0, 56, 0
3, 5640, Note_on_c, 0, 48, 96
3, 5641, Note_on_c, 0, 51, 0
3, 5668, Note_on_c, 0, 51, 90
3, 5670, Note_on_c, 0, 48, 0
3, 5685, Note_on_c, 0, 51, 0
3, 5700, Note_on_c, 0, 51, 103
3, 5817, Note_on_c, 0, 51, 0
3, 5823, Note_on_c, 0, 56, 82
3, 5852, Note_on_c, 0, 56, 0
3, 5878, Note_on_c, 0, 51, 105
3, 5879, Note_on_c, 0, 60, 107
3, 5881, Note_on_c, 0, 56, 81
3, 5992, Note_on_c, 0, 56, 0
3, 5999, Note_on_c, 0, 58, 90
3, 6003, Note_on_c, 0, 60, 0
3, 6058, Note_on_c, 0, 56, 86
3, 6061, Note_on_c, 0, 58, 0
3, 6072, Note_on_c, 0, 51, 0
3, 6087, Note_on_c, 0, 51, 75
3, 6106, Note_on_c, 0, 56, 0
3, 6119, Note_on_c, 0, 60, 90
3, 6123, Note_on_c, 0, 51, 0
3, 6130, Note_on_c, 0, 60, 0
3, 6178, Note_on_c, 0, 58, 86
3, 6178, Note_on_c, 0, 61, 81
3, 6178, Note_on_c, 0, 53, 78
3, 6179, Note_on_c, 0, 56, 81
3, 6430, Note_on_c, 0, 53, 0
3, 6445, Note_on_c, 0, 56, 0
3, 6449, Note_on_c, 0, 53, 81
3, 6455, Note_on_c, 0, 58, 0
3, 6470, Note_on_c, 0, 61, 0
3, 6484, Note_on_c, 0, 56, 64
3, 6504, Note_on_c, 0, 58, 81
3, 6505, Note_on_c, 0, 53, 0
3, 6517, Note_on_c, 0, 56, 0
3, 6528, Note_on_c, 0, 58, 0
3, 6536, Note_on_c, 0, 53, 86
3, 6536, Note_on_c, 0, 61, 100
3, 6541, Note_on_c, 0, 56, 71
3, 6548, Note_on_c, 0, 56, 0
3, 6605, Note_on_c, 0, 61, 0
3, 6615, Note_on_c, 0, 53, 0
3, 6657, Note_on_c, 0, 61, 105
3, 6661, Note_on_c, 0, 51, 59
3, 6663, Note_on_c, 0, 56, 59
3, 6674, Note_on_c, 0, 61, 0
3, 6680, Note_on_c, 0, 60, 15
3, 6756, Note_on_c, 0, 56, 0
3, 6780, Note_on_c, 0, 56, 75
3, 6784, Note_on_c, 0, 51, 0
3, 6805, Note_on_c, 0, 56, 0
3, 6810, Note_on_c, 0, 51, 50
3, 6811, Note_on_c, 0, 60, 0
3, 6827, Note_on_c, 0, 51, 0
3, 6839, Note_on_c, 0, 51, 92
3, 6841, Note_on_c, 0, 60, 86
3, 6841, Note_on_c, 0, 56, 86
3, 6950, Note_on_c, 0, 56, 0
3, 6964, Note_on_c, 0, 58, 84
3, 6984, Note_on_c, 0, 60, 0
3, 7010, Note_on_c, 0, 51, 0
3, 7020, Note_on_c, 0, 56, 98
3, 7029, Note_on_c, 0, 58, 0
3, 7031, Note_on_c, 0, 56, 0
3, 7082, Note_on_c, 0, 49, 83
3, 7098, Note_on_c, 0, 49, 0
3, 7139, Note_on_c, 0, 49, 81
3, 7141, Note_on_c, 0, 53, 88
3, 7142, Note_on_c, 0, 56, 88
3, 7417, Note_on_c, 0, 56, 0
3, 7424, Note_on_c, 0, 49, 0
3, 7440, Note_on_c, 0, 49, 105
3, 7453, Note_on_c, 0, 53, 0
3, 7466, Note_on_c, 0, 49, 0
3, 7468, Note_on_c, 0, 50, 81
3, 7497, Note_on_c, 0, 50, 0
3, 7500, Note_on_c, 0, 51, 71
3, 7520, Note_on_c, 0, 51, 0
3, 7527, Note_on_c, 0, 53, 94
3, 7584, Note_on_c, 0, 53, 0
3, 7590, Note_on_c, 0, 49, 81
3, 7599, Note_on_c, 0, 49, 0
3, 7621, Note_on_c, 0, 51, 98
3, 7739, Note_on_c, 0, 51, 0
3, 7742, Note_on_c, 0, 56, 83
3, 7746, Note_on_c, 0, 43, 83
3, 7752, Note_on_c, 0, 43, 0
3, 7759, Note_on_c, 0, 56, 0
3, 7772, Note_on_c, 0, 51, 77
3, 7789, Note_on_c, 0, 51, 0
3, 7800, Note_on_c, 0, 51, 92
3, 7800, Note_on_c, 0, 60, 96
3, 7801, Note_on_c, 0, 56, 101
3, 7914, Note_on_c, 0, 56, 0
3, 7919, Note_on_c, 0, 58, 78
3, 7939, Note_on_c, 0, 60, 0
3, 7983, Note_on_c, 0, 56, 96
3, 7989, Note_on_c, 0, 51, 0
3, 7992, Note_on_c, 0, 58, 0
3, 7994, Note_on_c, 0, 56, 0
3, 8044, Note_on_c, 0, 49, 59
3, 8054, Note_on_c, 0, 49, 0
3, 8099, Note_on_c, 0, 49, 94
3, 8100, Note_on_c, 0, 56, 94
3, 8101, Note_on_c, 0, 53, 86
3, 8353, Note_on_c, 0, 53, 0
3, 8364, Note_on_c, 0, 53, 75
3, 8379, Note_on_c, 0, 49, 0
3, 8397, Note_on_c, 0, 49, 78
3, 8402, Note_on_c, 0, 53, 0
3, 8415, Note_on_c, 0, 56, 0
3, 8432, Note_on_c, 0, 51, 60
3, 8438, Note_on_c, 0, 49, 0
3, 8462, Note_on_c, 0, 53, 77
3, 8477, Note_on_c, 0, 51, 0
3, 8490, Note_on_c, 0, 56, 107
3, 8492, Note_on_c, 0, 49, 74
3, 8499, Note_on_c, 0, 49, 0
3, 8526, Note_on_c, 0, 53, 0
3, 8544, Note_on_c, 0, 56, 0
3, 8551, Note_on_c, 0, 51, 64
3, 8568, Note_on_c, 0, 51, 0
3, 8582, Note_on_c, 0, 51, 89
3, 8583, Note_on_c, 0, 58, 96
3, 8583, Note_on_c, 0, 55, 86
3, 8838, Note_on_c, 0, 55, 0
3, 8847, Note_on_c, 0, 55, 83
3, 8857, Note_on_c, 0, 51, 0
3, 8880, Note_on_c, 0, 51, 74
3, 8881, Note_on_c, 0, 58, 0
3, 8886, Note_on_c, 0, 55, 0
3, 8910, Note_on_c, 0, 53, 60
3, 8914, Note_on_c, 0, 51, 0
3, 8939, Note_on_c, 0, 55, 69
3, 8946, Note_on_c, 0, 53, 0
3, 8967, Note_on_c, 0, 58, 111
3, 8967, Note_on_c, 0, 51, 98
3, 8969, Note_on_c, 0, 55, 0
3, 8980, Note_on_c, 0, 51, 0
3, 8982, Note_on_c, 0, 58, 0
3, 9058, Note_on_c, 0, 56, 103
3, 9058, Note_on_c, 0, 48, 94
3, 9059, Note_on_c, 0, 51, 86
3, 9242, Note_on_c, 0, 68, 72
3, 9243, Note_on_c, 0, 63, 55
3, 9283, Note_on_c, 0, 63, 0
3, 9286, Note_on_c, 0, 68, 0
3, 9302, Note_on_c, 0, 63, 56
3, 9302, Note_on_c, 0, 68, 78
3, 9350, Note_on_c, 0, 48, 0
3, 9353, Note_on_c, 0, 68, 0
3, 9357, Note_on_c, 0, 63, 0
3, 9368, Note_on_c, 0, 51, 0
3, 9376, Note_on_c, 0, 56, 0
3, 9604, Note_on_c, 0, 63, 92
3, 9631, Note_on_c, 0, 68, 77
3, 9648, Note_on_c, 0, 63, 0
3, 9657, Note_on_c, 0, 70, 74
3, 9680, Note_on_c, 0, 68, 0
3, 9684, Note_on_c, 0, 70, 0
3, 9688, Note_on_c, 0, 63, 83
3, 9690, Note_on_c, 0, 72, 81
3, 9742, Note_on_c, 0, 72, 0
3, 9750, Note_on_c, 0, 70, 105
3, 9793, Note_on_c, 0, 63, 0
3, 9796, Note_on_c, 0, 70, 0
3, 9808, Note_on_c, 0, 68, 98
3, 9872, Note_on_c, 0, 63, 89
3, 9876, Note_on_c, 0, 68, 0
3, 9903, Note_on_c, 0, 68, 76
3, 9916, Note_on_c, 0, 63, 0
3, 9927, Note_on_c, 0, 70, 84
3, 9938, Note_on_c, 0, 68, 0
3, 9946, Note_on_c, 0, 70, 0
3, 9959, Note_on_c, 0, 70, 113
3, 10010, Note_on_c, 0, 70, 0
3, 10018, Note_on_c, 0, 68, 105
3, 10199, Note_on_c, 0, 75, 107
3, 10201, Note_on_c, 0, 68, 0
3, 10380, Note_on_c, 0, 68, 96
3, 10390, Note_on_c, 0, 75, 0
3, 10561, Note_on_c, 0, 68, 0
3, 10562, Note_on_c, 0, 63, 94
3, 10591, Note_on_c, 0, 68, 82
3, 10617, Note_on_c, 0, 70, 84
3, 10622, Note_on_c, 0, 63, 0
3, 10631, Note_on_c, 0, 68, 0
3, 10641, Note_on_c, 0, 70, 0
3, 10647, Note_on_c, 0, 63, 90
3, 10648, Note_on_c, 0, 72, 113
3, 10713, Note_on_c, 0, 70, 98
3, 10721, Note_on_c, 0, 72, 0
3, 10726, Note_on_c, 0, 63, 0
3, 10769, Note_on_c, 0, 68, 80
3, 10796, Note_on_c, 0, 70, 0
3, 10800, Note_on_c, 0, 63, 77
3, 10806, Note_on_c, 0, 68, 0
3, 10830, Note_on_c, 0, 68, 77
3, 10849, Note_on_c, 0, 63, 0
3, 10860, Note_on_c, 0, 70, 96
3, 10912, Note_on_c, 0, 70, 0
3, 10916, Note_on_c, 0, 68, 0
3, 10921, Note_on_c, 0, 70, 94
3, 10971, Note_on_c, 0, 70, 0
3, 10978, Note_on_c, 0, 68, 103
3, 11163, Note_on_c, 0, 68, 0
3, 11163, Note_on_c, 0, 75, 113
3, 11400, Note_on_c, 0, 75, 0
3, 11400, Note_on_c, 0, 63, 90
3, 11419, Note_on_c, 0, 63, 0
3, 11459, Note_on_c, 0, 73, 111
3, 11459, Note_on_c, 0, 65, 111
3, 11459, Note_on_c, 0, 68, 127
3, 11463, Note_on_c, 0, 70, 62
3, 11470, Note_on_c, 0, 70, 0
3, 11648, Note_on_c, 0, 65, 0
3, 11666, Note_on_c, 0, 65, 74
3, 11678, Note_on_c, 0, 68, 0
3, 11697, Note_on_c, 0, 68, 73
3, 11709, Note_on_c, 0, 73, 0
3, 11716, Note_on_c, 0, 65, 0
3, 11723, Note_on_c, 0, 73, 105
3, 11751, Note_on_c, 0, 73, 0
3, 11757, Note_on_c, 0, 63, 98
3, 11760, Note_on_c, 0, 72, 98
3, 11818, Note_on_c, 0, 68, 0
3, 11818, Note_on_c, 0, 72, 0
3, 11818, Note_on_c, 0, 70, 101
3, 11909, Note_on_c, 0, 70, 0
3, 11924, Note_on_c, 0, 63, 0
3, 11945, Note_on_c, 0, 60, 107
3, 11945, Note_on_c, 0, 68, 103
3, 11946, Note_on_c, 0, 63, 96
3, 12175, Note_on_c, 0, 60, 0
3, 12181, Note_on_c, 0, 63, 0
3, 12191, Note_on_c, 0, 68, 0
3, 12242, Note_on_c, 0, 63, 103
3, 12242, Note_on_c, 0, 72, 88
3, 12243, Note_on_c, 0, 68, 89
3, 12266, Note_on_c, 0, 63, 0
3, 12269, Note_on_c, 0, 72, 0
3, 12269, Note_on_c, 0, 68, 0
3, 12301, Note_on_c, 0, 63, 100
3, 12301, Note_on_c, 0, 72, 109
3, 12302, Note_on_c, 0, 73, 47
3, 12302, Note_on_c, 0, 68, 100
3, 12317, Note_on_c, 0, 73, 0
3, 12369, Note_on_c, 0, 68, 0
3, 12375, Note_on_c, 0, 72, 0
3, 12403, Note_on_c, 0, 63, 0
3, 12421, Note_on_c, 0, 63, 105
3, 12421, Note_on_c, 0, 70, 113
3, 12422, Note_on_c, 0, 67, 101
3, 12584, Note_on_c, 0, 70, 0
3, 12594, Note_on_c, 0, 67, 0
3, 12594, Note_on_c, 0, 70, 88
3, 12619, Note_on_c, 0, 68, 86
3, 12650, Note_on_c, 0, 68, 0
3, 12657, Note_on_c, 0, 67, 73
3, 12661, Note_on_c, 0, 63, 0
3, 12683, Note_on_c, 0, 63, 98
3, 12692, Note_on_c, 0, 67, 0
3, 12736, Note_on_c, 0, 63, 0
3, 12748, Note_on_c, 0, 63, 84
3, 12778, Note_on_c, 0, 65, 74
3, 12788, Note_on_c, 0, 70, 0
3, 12808, Note_on_c, 0, 67, 63
3, 12814, Note_on_c, 0, 63, 0
3, 12819, Note_on_c, 0, 65, 0
3, 12830, Note_on_c, 0, 67, 0
3, 12837, Note_on_c, 0, 63, 63
3, 12843, Note_on_c, 0, 68, 85
3, 12866, Note_on_c, 0, 70, 103
3, 12868, Note_on_c, 0, 68, 0
3, 12906, Note_on_c, 0, 67, 64
3, 12907, Note_on_c, 0, 63, 0
3, 12921, Note_on_c, 0, 70, 0
3, 12929, Note_on_c, 0, 63, 86
3, 12939, Note_on_c, 0, 67, 0
3, 13076, Note_on_c, 0, 63, 0
3, 13082, Note_on_c, 0, 63, 101
3, 13083, Note_on_c, 0, 70, 122
3, 13176, Note_on_c, 0, 63, 0
3, 13193, Note_on_c, 0, 70, 0
3, 13200, Note_on_c, 0, 68, 96
3, 13200, Note_on_c, 0, 71, 105
3, 13201, Note_on_c, 0, 64, 103
3, 13249, Note_on_c, 0, 71, 0
3, 13251, Note_on_c, 0, 64, 0
3, 13255, Note_on_c, 0, 68, 0
3, 13261, Note_on_c, 0, 68, 107
3, 13262, Note_on_c, 0, 71, 125
3, 13262, Note_on_c, 0, 64, 90
3, 13283, Note_on_c, 0, 64, 0
3, 13288, Note_on_c, 0, 71, 0
3, 13289, Note_on_c, 0, 68, 0
3, 13378, Note_on_c, 0, 73, 118
3, 13378, Note_on_c, 0, 64, 111
3, 13379, Note_on_c, 0, 69, 92
3, 13503, Note_on_c, 0, 57, 82
3, 13532, Note_on_c, 0, 57, 0
3, 13558, Note_on_c, 0, 52, 105
3, 13559, Note_on_c, 0, 61, 107
3, 13561, Note_on_c, 0, 57, 81
3, 13657, Note_on_c, 0, 64, 0
3, 13671, Note_on_c, 0, 69, 0
3, 13672, Note_on_c, 0, 57, 0
3, 13679, Note_on_c, 0, 59, 90
3, 13681, Note_on_c, 0, 73, 0
3, 13683, Note_on_c, 0, 61, 0
3, 13738, Note_on_c, 0, 57, 86
3, 13741, Note_on_c, 0, 59, 0
3, 13752, Note_on_c, 0, 52, 0
3, 13767, Note_on_c, 0, 52, 75
3, 13786, Note_on_c, 0, 57, 0
3, 13799, Note_on_c, 0, 61, 90
3, 13803, Note_on_c, 0, 52, 0
3, 13810, Note_on_c, 0, 61, 0
3, 13858, Note_on_c, 0, 59, 86
3, 13858, Note_on_c, 0, 62, 81
3, 13858, Note_on_c, 0, 54, 78
3, 13859, Note_on_c, 0, 57, 81
3, 14110, Note_on_c, 0, 54, 0
3, 14125, Note_on_c, 0, 57, 0
3, 14129, Note_on_c, 0, 54, 81
3, 14135, Note_on_c, 0, 59, 0
3, 14150, Note_on_c, 0, 62, 0
3, 14164, Note_on_c, 0, 57, 64
3, 14184, Note_on_c, 0, 59, 81
3, 14185, Note_on_c, 0, 54, 0
3, 14197, Note_on_c, 0, 57, 0
3, 14208, Note_on_c, 0, 59, 0
3, 14216, Note_on_c, 0, 54, 86
3, 14216, Note_on_c, 0, 62, 100
3, 14221, Note_on_c, 0, 57, 71
3, 14228, Note_on_c, 0, 57, 0
3, 14285, Note_on_c, 0, 62, 0
3, 14295, Note_on_c, 0, 54, 0
3, 14337, Note_on_c, 0, 62, 105
3, 14341, Note_on_c, 0, 52, 59
3, 14343, Note_on_c, 0, 57, 59
3, 14354, Note_on_c, 0, 62, 0
3, 14360, Note_on_c, 0, 61, 15
3, 14436, Note_on_c, 0, 57, 0
3, 14460, Note_on_c, 0, 57, 75
3, 14464, Note_on_c, 0, 52, 0
3, 14485, Note_on_c, 0, 57, 0
3, 14490, Note_on_c, 0, 52, 50
3, 14491, Note_on_c, 0, 61, 0
3, 14507, Note_on_c, 0, 52, 0
3, 14519, Note_on_c, 0, 52, 92
3, 14521, Note_on_c, 0, 61, 86
3, 14521, Note_on_c, 0, 57, 86
3, 14630, Note_on_c, 0, 57, 0
3, 14644, Note_on_c, 0, 59, 84
3, 14664, Note_on_c, 0, 61, 0
3, 14690, Note_on_c, 0, 52, 0
3, 14700, Note_on_c, 0, 57, 98
3, 14709, Note_on_c, 0, 59, 0
3, 14711, Note_on_c, 0, 57, 0
3, 14762, Note_on_c, 0, 50, 83
3, 14778, Note_on_c, 0, 50, 0
3, 14819, Note_on_c, 0, 50, 81
3, 14821, Note_on_c, 0, 54, 88
3, 14822, Note_on_c, 0, 57, 88
3, 15097, Note_on_c, 0, 57, 0
3, 15104, Note_on_c, 0, 50, 0
3, 15120, Note_on_c, 0, 50, 105
3, 15133, Note_on_c, 0, 54, 0
3, 15146, Note_on_c, 0, 50, 0
3, 15148, Note_on_c, 0, 51, 81
3, 15177, Note_on_c, 0, 51, 0
3, 15180, Note_on_c, 0, 52, 71
3, 15200, Note_on_c, 0, 52, 0
3, 15207, Note_on_c, 0, 54, 94
3, 15264, Note_on_c, 0, 54, 0
3, 15270, Note_on_c, 0, 50, 81
3, 15279, Note_on_c, 0, 50, 0
3, 15301, Note_on_c, 0, 52, 98
3, 15419, Note_on_c, 0, 52, 0
3, 15422, Note_on_c, 0, 57, 83
3, 15439, Note_on_c, 0, 57, 0
3, 15452, Note_on_c, 0, 52, 77
3, 15469, Note_on_c, 0, 52, 0
3, 15480, Note_on_c, 0, 52, 92
3, 15480, Note_on_c, 0, 61, 96
3, 15481, Note_on_c, 0, 57, 101
3, 15594, Note_on_c, 0, 57, 0
3, 15599, Note_on_c, 0, 59, 78
3, 15619, Note_on_c, 0, 61, 0
3, 15663, Note_on_c, 0, 57, 96
3, 15669, Note_on_c, 0, 52, 0
3, 15672, Note_on_c, 0, 59, 0
3, 15674, Note_on_c, 0, 57, 0
3, 15724, Note_on_c, 0, 50, 59
3, 15734, Note_on_c, 0, 50, 0
3, 15779, Note_on_c, 0, 50, 94
3, 15780, Note_on_c, 0, 57, 94
3, 15781, Note_on_c, 0, 54, 86
3, 16033, Note_on_c, 0, 54, 0
3, 16044, Note_on_c, 0, 54, 75
3, 16059, Note_on_c, 0, 50, 0
3, 16077, Note_on_c, 0, 50, 78
3, 16082, Note_on_c, 0, 54, 0
3, 16095, Note_on_c, 0, 57, 0
3, 16112, Note_on_c, 0, 52, 60
3, 16118, Note_on_c, 0, 50, 0
3, 16142, Note_on_c, 0, 54, 77
3, 16157, Note_on_c, 0, 52, 0
3, 16170, Note_on_c, 0, 57, 107
3, 16172, Note_on_c, 0, 50, 74
3, 16179, Note_on_c, 0, 50, 0
3, 16206, Note_on_c, 0, 54, 0
3, 16224, Note_on_c, 0, 57, 0
3, 16231, Note_on_c, 0, 52, 64
3, 16248, Note_on_c, 0, 52, 0
3, 16262, Note_on_c, 0, 52, 89
3, 16263, Note_on_c, 0, 59, 96
3, 16263, Note_on_c, 0, 56, 86
3, 16518, Note_on_c, 0, 56, 0
3, 16527, Note_on_c, 0, 56, 83
3, 16537, Note_on_c, 0, 52, 0
3, 16560, Note_on_c, 0, 52, 74
3, 16561, Note_on_c, 0, 59, 0
3, 16566, Note_on_c, 0, 56, 0
3, 16590, Note_on_c, 0, 54, 60
3, 16594, Note_on_c, 0, 52, 0
3, 16619, Note_on_c, 0, 56, 69
3, 16626, Note_on_c, 0, 54, 0
3, 16647, Note_on_c, 0, 59, 111
3, 16647, Note_on_c, 0, 52, 98
3, 16649, Note_on_c, 0, 56, 0
3, 16660, Note_on_c, 0, 52, 0
3, 16662, Note_on_c, 0, 59, 0
3, 16738, Note_on_c, 0, 57, 103
3, 16738, Note_on_c, 0, 49, 94
3, 16739, Note_on_c, 0, 52, 86
3, 17030, Note_on_c, 0, 49, 0
3, 17048, Note_on_c, 0, 52, 0
3, 17056, Note_on_c, 0, 57, 0
3, 17284, Note_on_c, 0, 64, 92
3, 17311, Note_on_c, 0, 69, 77
3, 17328, Note_on_c, 0, 64, 0
3, 17337, Note_on_c, 0, 71, 74
3, 17360, Note_on_c, 0, 69, 0
3, 17364, Note_on_c, 0, 71, 0
3, 17368, Note_on_c, 0, 64, 83
3, 17370, Note_on_c, 0, 73, 81
3, 17422, Note_on_c, 0, 73, 0
3, 17430, Note_on_c, 0, 71, 105
3, 17473, Note_on_c, 0, 64, 0
3, 17476, Note_on_c, 0, 71, 0
3, 17488, Note_on_c, 0, 69, 98
3, 17552, Note_on_c, 0, 64, 89
3, 17556, Note_on_c, 0, 69, 0
3, 17583, Note_on_c, 0, 69, 76
3, 17596, Note_on_c, 0, 64, 0
3, 17607, Note_on_c, 0, 71, 84
3, 17618, Note_on_c, 0, 69, 0
3, 17626, Note_on_c, 0, 71, 0
3, 17639, Note_on_c, 0, 71, 113
3, 17690, Note_on_c, 0, 71, 0
3, 17698, Note_on_c, 0, 69, 105
3, 17879, Note_on_c, 0, 76, 107
3, 17881, Note_on_c, 0, 69, 0
3, 18060, Note_on_c, 0, 69, 96
3, 18070, Note_on_c, 0, 76, 0
3, 18241, Note_on_c, 0, 69, 0
3, 18242, Note_on_c, 0, 64, 94
3, 18271, Note_on_c, 0, 69, 82
3, 18297, Note_on_c, 0, 71, 84
3, 18302, Note_on_c, 0, 64, 0
3, 18311, Note_on_c, 0, 69, 0
3, 18321, Note_on_c, 0, 71, 0
3, 18327, Note_on_c, 0, 64, 90
3, 18328, Note_on_c, 0, 73, 113
3, 18393, Note_on_c, 0, 71, 98
3, 18401, Note_on_c, 0, 73, 0
3, 18406, Note_on_c, 0, 64, 0
3, 18449, Note_on_c, 0, 69, 80
3, 18476, Note_on_c, 0, 71, 0
3, 18480, Note_on_c, 0, 64, 77
3, 18486, Note_on_c, 0, 69, 0
3, 18510, Note_on_c, 0, 69, 77
3, 18529, Note_on_c, 0, 64, 0
3, 18540, Note_on_c, 0, 71, 96
3, 18592, Note_on_c, 0, 71, 0
3, 18596, Note_on_c, 0, 69, 0
3, 18601, Note_on_c, 0, 71, 94
3, 18651, Note_on_c, 0, 71, 0
3, 18658, Note_on_c, 0, 69, 103
3, 18843, Note_on_c, 0, 69, 0
3, 18843, Note_on_c, 0, 76, 113
3, 19080, Note_on_c, 0, 76, 0
3, 19080, Note_on_c, 0, 64, 90
3, 19099, Note_on_c, 0, 64, 0
3, 19139, Note_on_c, 0, 74, 111
3, 19139, Note_on_c, 0, 66, 111
3, 19139, Note_on_c, 0, 69, 127
3, 19143, Note_on_c, 0, 71, 62
3, 19150, Note_on_c, 0, 71, 0
3, 19328, Note_on_c, 0, 66, 0
3, 19346, Note_on_c, 0, 66, 74
3, 19358, Note_on_c, 0, 69, 0
3, 19377, Note_on_c, 0, 69, 73
3, 19389, Note_on_c, 0, 74, 0
3, 19396, Note_on_c, 0, 66, 0
3, 19403, Note_on_c, 0, 74, 105
3, 19431, Note_on_c, 0, 74, 0
3, 19437, Note_on_c, 0, 64, 98
3, 19440, Note_on_c, 0, 73, 98
3, 19498, Note_on_c, 0, 69, 0
3, 19498, Note_on_c, 0, 73, 0
3, 19498, Note_on_c, 0, 71, 101
3, 19589, Note_on_c, 0, 71, 0
3, 19604, Note_on_c, 0, 64, 0
3, 19625, Note_on_c, 0, 61, 107
3, 19625, Note_on_c, 0, 69, 103
3, 19626, Note_on_c, 0, 64, 96
3, 19855, Note_on_c, 0, 61, 0
3, 19861, Note_on_c, 0, 64, 0
3, 19871, Note_on_c, 0, 69, 0
3, 19922, Note_on_c, 0, 64, 103
3, 19922, Note_on_c, 0, 73, 88
3, 19923, Note_on_c, 0, 69, 89
3, 19946, Note_on_c, 0, 64, 0
3, 19949, Note_on_c, 0, 73, 0
3, 19949, Note_on_c, 0, 69, 0
3, 19981, Note_on_c, 0, 64, 100
3, 19981, Note_on_c, 0, 73, 109
3, 19982, Note_on_c, 0, 74, 47
3, 19982, Note_on_c, 0, 69, 100
3, 19997, Note_on_c, 0, 74, 0
3, 20049, Note_on_c, 0, 69, 0
3, 20055, Note_on_c, 0, 73, 0
3, 20083, Note_on_c, 0, 64, 0
3, 20101, Note_on_c, 0, 64, 105
3, 20101, Note_on_c, 0, 71, 113
3, 20102, Note_on_c, 0, 68, 101
3, 20264, Note_on_c, 0, 71, 0
3, 20274, Note_on_c, 0, 68, 0
3, 20274, Note_on_c, 0, 71, 88
3, 20299, Note_on_c, 0, 69, 86
3, 20330, Note_on_c, 0, 69, 0
3, 20337, Note_on_c, 0, 68, 73
3, 20341, Note_on_c, 0, 64, 0
3, 20363, Note_on_c, 0, 64, 98
3, 20372, Note_on_c, 0, 68, 0
3, 20416, Note_on_c, 0, 64, 0
3, 20428, Note_on_c, 0, 64, 84
3, 20458, Note_on_c, 0, 66, 74
3, 20468, Note_on_c, 0, 71, 0
3, 20488, Note_on_c, 0, 68, 63
3, 20494, Note_on_c, 0, 64, 0
3, 20499, Note_on_c, 0, 66, 0
3, 20510, Note_on_c, 0, 68, 0
3, 20517, Note_on_c, 0, 64, 63
3, 20523, Note_on_c, 0, 69, 85
3, 20546, Note_on_c, 0, 71, 103
3, 20548, Note_on_c, 0, 69, 0
3, 20586, Note_on_c, 0, 68, 64
3, 20587, Note_on_c, 0, 64, 0
3, 20601, Note_on_c, 0, 71, 0
3, 20609, Note_on_c, 0, 64, 86
3, 20619, Note_on_c, 0, 68, 0
3, 20756, Note_on_c, 0, 64, 0
3, 21124, Note_on_c, 0, 64, 92
3, 21151, Note_on_c, 0, 69, 77
3, 21168, Note_on_c, 0, 64, 0
3, 21177, Note_on_c, 0, 71, 74
3, 21200, Note_on_c, 0, 69, 0
3, 21204, Note_on_c, 0, 71, 0
3, 21208, Note_on_c, 0, 64, 83
3, 21210, Note_on_c, 0, 73, 81
3, 21262, Note_on_c, 0, 73, 0
3, 21270, Note_on_c, 0, 71, 105
3, 21313, Note_on_c, 0, 64, 0
3, 21316, Note_on_c, 0, 71, 0
3, 21328, Note_on_c, 0, 69, 98
3, 21392, Note_on_c, 0, 64, 89
3, 21396, Note_on_c, 0, 69, 0
3, 21423, Note_on_c, 0, 69, 76
3, 21436, Note_on_c, 0, 64, 0
3, 21447, Note_on_c, 0, 71, 84
3, 21458, Note_on_c, 0, 69, 0
3, 21466, Note_on_c, 0, 71, 0
3, 21479, Note_on_c, 0, 71, 113
3, 21530, Note_on_c, 0, 71, 0
3, 21538, Note_on_c, 0, 69, 105
3, 21719, Note_on_c, 0, 76, 107
3, 21721, Note_on_c, 0, 69, 0
3, 21900, Note_on_c, 0, 69, 96
3, 21910, Note_on_c, 0, 76, 0
3, 22081, Note_on_c, 0, 69, 0
3, 22082, Note_on_c, 0, 64, 94
3, 22111, Note_on_c, 0, 69, 82
3, 22137, Note_on_c, 0, 71, 84
3, 22142, Note_on_c, 0, 64, 0
3, 22151, Note_on_c, 0, 69, 0
3, 22161, Note_on_c, 0, 71, 0
3, 22167, Note_on_c, 0, 64, 90
3, 22168, Note_on_c, 0, 73, 113
3, 22233, Note_on_c, 0, 71, 98
3, 22241, Note_on_c, 0, 73, 0
3, 22246, Note_on_c, 0, 64, 0
3, 22289, Note_on_c, 0, 69, 80
3, 22316, Note_on_c, 0, 71, 0
3, 22320, Note_on_c, 0, 64, 77
3, 22326, Note_on_c, 0, 69, 0
3, 22350, Note_on_c, 0, 69, 77
3, 22369, Note_on_c, 0, 64, 0
3, 22380, Note_on_c, 0, 71, 96
3, 22432, Note_on_c, 0, 71, 0
3, 22436, Note_on_c, 0, 69, 0
3, 22441, Note_on_c, 0, 71, 94
3, 22491, Note_on_c, 0, 71, 0
3, 22498, Note_on_c, 0, 69, 103
3, 22683, Note_on_c, 0, 69, 0
3, 22683, Note_on_c, 0, 76, 113
3, 22920, Note_on_c, 0, 76, 0
3, 22920, Note_on_c, 0, 64, 90
3, 22939, Note_on_c, 0, 64, 0
3, 22979, Note_on_c, 0, 74, 111
3, 22979, Note_on_c, 0, 66, 111
3, 22979, Note_on_c, 0, 69, 127
3, 22983, Note_on_c, 0, 71, 62
3, 22990, Note_on_c, 0, 71, 0
3, 23168, Note_on_c, 0, 66, 0
3, 23186, Note_on_c, 0, 66, 74
3, 23198, Note_on_c, 0, 69, 0
3, 23217, Note_on_c, 0, 69, 73
3, 23229, Note_on_c, 0, 74, 0
3, 23236, Note_on_c, 0, 66, 0
3, 23243, Note_on_c, 0, 74, 105
3, 23271, Note_on_c, 0, 74, 0
3, 23277, Note_on_c, 0, 64, 98
3, 23280, Note_on_c, 0, 73, 98
3, 23338, Note_on_c, 0, 69, 0
3, 23338, Note_on_c, 0, 73, 0
3, 23338, Note_on_c, 0, 71, 101
3, 23429, Note_on_c, 0, 71, 0
3, 23444, Note_on_c, 0, 64, 0
3, 23465, Note_on_c, 0, 61, 107
3, 23465, Note_on_c, 0, 69, 103
3, 23466, Note_on_c, 0, 64, 96
3, 23695, Note_on_c, 0, 61, 0
3, 23701, Note_on_c, 0, 64, 0
3, 23711, Note_on_c, 0, 69, 0
3, 23762, Note_on_c, 0, 64, 103
3, 23762, Note_on_c, 0, 73, 88
3, 23763, Note_on_c, 0, 69, 89
3, 23786, Note_on_c, 0, 64, 0
3, 23789, Note_on_c, 0, 73, 0
3, 23789, Note_on_c, 0, 69, 0
3, 23821, Note_on_c, 0, 64, 100
3, 23821, Note_on_c, 0, 73, 109
3, 23822, Note_on_c, 0, 74, 47
3, 23822, Note_on_c, 0, 69, 100
3, 23837, Note_on_c, 0, 74, 0
3, 23889, Note_on_c, 0, 69, 0
3, 23895, Note_on_c, 0, 73, 0
3, 23923, Note_on_c, 0, 64, 0
3, 23941, Note_on_c, 0, 64, 105
3, 23941, Note_on_c, 0, 71, 113
3, 23942, Note_on_c, 0, 68, 101
3, 24104, Note_on_c, 0, 71, 0
3, 24114, Note_on_c, 0, 68, 0
3, 24114, Note_on_c, 0, 71, 88
3, 24139, Note_on_c, 0, 69, 86
3, 24170, Note_on_c, 0, 69, 0
3, 24177, Note_on_c, 0, 68, 73
3, 24181, Note_on_c, 0, 64, 0
3, 24203, Note_on_c, 0, 64, 98
3, 24212, Note_on_c, 0, 68, 0
3, 24256, Note_on_c, 0, 64, 0
3, 24268, Note_on_c, 0, 64, 84
3, 24298, Note_on_c, 0, 66, 74
3, 24308, Note_on_c, 0, 71, 0
3, 24328, Note_on_c, 0, 68, 63
3, 24334, Note_on_c, 0, 64, 0
3, 24339, Note_on_c, 0, 66, 0
3, 24350, Note_on_c, 0, 68, 0
3, 24357, Note_on_c, 0, 64, 63
3, 24363, Note_on_c, 0, 69, 85
3, 24386, Note_on_c, 0, 71, 103
3, 24388, Note_on_c, 0, 69, 0
3, 24426, Note_on_c, 0, 68, 64
3, 24427, Note_on_c, 0, 64, 0
3, 24441, Note_on_c, 0, 71, 0
3, 24449, Note_on_c, 0, 64, 86
3, 24459, Note_on_c, 0, 68, 0
3, 24596, Note_on_c, 0, 64, 0
3, 24732, Note_on_c, 0, 64, 80
3, 24857, Note_on_c, 0, 66, 80
3, 24907, Note_on_c, 0, 64, 0
3, 24914, Note_on_c, 0, 68, 88
3, 24931, Note_on_c, 0, 66, 0
3, 24937, Note_on_c, 0, 68, 0
3, 24975, Note_on_c, 0, 61, 77
3, 24980, Note_on_c, 0, 45, 66
3, 24981, Note_on_c, 0, 57, 33
3, 24982, Note_on_c, 0, 64, 51
3, 25099, Note_on_c, 0, 61, 0
3, 25109, Note_on_c, 0, 61, 56
3, 25281, Note_on_c, 0, 57, 0
3, 25303, Note_on_c, 0, 64, 0
3, 25303, Note_on_c, 0, 61, 0
3, 25362, Note_on_c, 0, 69, 96
3, 25494, Note_on_c, 0, 45, 0
3, 25495, Note_on_c, 0, 50, 70
3, 25497, Note_on_c, 0, 62, 64
3, 25498, Note_on_c, 0, 66, 65
3, 25499, Note_on_c, 0, 64, 61
3, 25630, Note_on_c, 0, 62, 0
3, 25642, Note_on_c, 0, 62, 71
3, 25722, Note_on_c, 0, 64, 0
3, 25738, Note_on_c, 0, 66, 0
3, 25742, Note_on_c, 0, 62, 0
3, 25763, Note_on_c, 0, 69, 0
3, 25771, Note_on_c, 0, 64, 65
3, 25789, Note_on_c, 0, 66, 66
3, 25790, Note_on_c, 0, 52, 33
3, 25803, Note_on_c, 0, 50, 0
3, 25804, Note_on_c, 0, 68, 62
3, 25805, Note_on_c, 0, 71, 57
3, 26175, Note_on_c, 0, 64, 0
3, 26187, Note_on_c, 0, 71, 0
3, 26188, Note_on_c, 0, 66, 0
3, 26198, Note_on_c, 0, 68, 0
3, 26258, Note_on_c, 0, 54, 60
3, 26259, Note_on_c, 0, 52, 0
3, 26259, Note_on_c, 0, 66, 36
3, 26275, Note_on_c, 0, 68, 62
3, 26296, Note_on_c, 0, 70, 65
3, 26298, Note_on_c, 0, 66, 0
3, 26317, Note_on_c, 0, 73, 61
3, 26318, Note_on_c, 0, 66, 11
3, 26395, Note_on_c, 0, 42, 50
3, 27370, Note_on_c, 0, 66, 0
3, 27372, Note_on_c, 0, 54, 0
3, 27373, Note_on_c, 0, 42, 0
3, 27374, Note_on_c, 0, 73, 0
3, 27376, Note_on_c, 0, 68, 0
3, 27380, Note_on_c, 0, 70, 0
3, 27380, End_track
4, 0, Start_track
4, 0, MIDI_port, 0
4, 0, Title_t, "bass"
4, 0, Program_c, 1, 33
4, 5701, Note_on_c, 1, 32, 83
4, 5905, Note_on_c, 1, 32, 0
4, 5909, Note_on_c, 1, 44, 94
4, 5917, Note_on_c, 1, 44, 0
4, 5969, Note_on_c, 1, 39, 64
4, 5977, Note_on_c, 1, 39, 0
4, 5996, Note_on_c, 1, 32, 73
4, 6018, Note_on_c, 1, 32, 0
4, 6059, Note_on_c, 1, 32, 89
4, 6132, Note_on_c, 1, 32, 0
4, 6150, Note_on_c, 1, 32, 71
4, 6172, Note_on_c, 1, 32, 0
4, 6177, Note_on_c, 1, 34, 83
4, 6380, Note_on_c, 1, 34, 0
4, 6389, Note_on_c, 1, 32, 86
4, 6412, Note_on_c, 1, 32, 0
4, 6413, Note_on_c, 1, 34, 69
4, 6435, Note_on_c, 1, 34, 0
4, 6444, Note_on_c, 1, 36, 76
4, 6466, Note_on_c, 1, 36, 0
4, 6477, Note_on_c, 1, 37, 96
4, 6551, Note_on_c, 1, 37, 0
4, 6562, Note_on_c, 1, 37, 90
4, 6585, Note_on_c, 1, 37, 0
4, 6601, Note_on_c, 1, 39, 49
4, 6611, Note_on_c, 1, 39, 0
4, 6626, Note_on_c, 1, 37, 64
4, 6643, Note_on_c, 1, 37, 0
4, 6659, Note_on_c, 1, 32, 92
4, 6868, Note_on_c, 1, 32, 0
4, 6874, Note_on_c, 1, 44, 77
4, 6881, Note_on_c, 1, 44, 0
4, 6929, Note_on_c, 1, 39, 64
4, 6939, Note_on_c, 1, 39, 0
4, 6960, Note_on_c, 1, 44, 84
4, 6976, Note_on_c, 1, 44, 0
4, 6995, Note_on_c, 1, 39, 45
4, 7005, Note_on_c, 1, 39, 0
4, 7056, Note_on_c, 1, 39, 85
4, 7081, Note_on_c, 1, 39, 0
4, 7081, Note_on_c, 1, 32, 98
4, 7132, Note_on_c, 1, 32, 0
4, 7139, Note_on_c, 1, 37, 101
4, 7358, Note_on_c, 1, 37, 0
4, 7378, Note_on_c, 1, 37, 81
4, 7430, Note_on_c, 1, 37, 0
4, 7437, Note_on_c, 1, 39, 78
4, 7521, Note_on_c, 1, 39, 0
4, 7528, Note_on_c, 1, 37, 72
4, 7550, Note_on_c, 1, 37, 0
4, 7558, Note_on_c, 1, 39, 61
4, 7585, Note_on_c, 1, 39, 0
4, 7590, Note_on_c, 1, 37, 57
4, 7616, Note_on_c, 1, 37, 0
4, 7622, Note_on_c, 1, 32, 94
4, 7868, Note_on_c, 1, 32, 0
4, 7891, Note_on_c, 1, 32, 70
4, 7917, Note_on_c, 1, 32, 0
4, 7921, Note_on_c, 1, 44, 96
4, 7926, Note_on_c, 1, 44, 0
4, 8006, Note_on_c, 1, 39, 71
4, 8017, Note_on_c, 1, 39, 0
4, 8034, Note_on_c, 1, 32, 81
4, 8052, Note_on_c, 1, 32, 0
4, 8059, Note_on_c, 1, 32, 80
4, 8096, Note_on_c, 1, 32, 0
4, 8097, Note_on_c, 1, 37, 85
4, 8361, Note_on_c, 1, 37, 0
4, 8367, Note_on_c, 1, 32, 88
4, 8385, Note_on_c, 1, 32, 0
4, 8397, Note_on_c, 1, 37, 81
4, 8412, Note_on_c, 1, 37, 0
4, 8458, Note_on_c, 1, 37, 101
4, 8478, Note_on_c, 1, 37, 0
4, 8517, Note_on_c, 1, 32, 94
4, 8542, Note_on_c, 1, 32, 0
4, 8546, Note_on_c, 1, 37, 83
4, 8568, Note_on_c, 1, 37, 0
4, 8580, Note_on_c, 1, 39, 89
4, 8984, Note_on_c, 1, 39, 0
4, 8997, Note_on_c, 1, 39, 98
4, 9012, Note_on_c, 1, 39, 0
4, 9056, Note_on_c, 1, 32, 100
4, 9511, Note_on_c, 1, 32, 0
4, 9541, Note_on_c, 1, 34, 114
4, 9740, Note_on_c, 1, 34, 0
4, 9744, Note_on_c, 1, 46, 109
4, 9772, Note_on_c, 1, 46, 0
4, 9774, Note_on_c, 1, 42, 77
4, 9799, Note_on_c, 1, 42, 0
4, 9805, Note_on_c, 1, 34, 98
4, 9830, Note_on_c, 1, 34, 0
4, 9839, Note_on_c, 1, 37, 103
4, 9928, Note_on_c, 1, 37, 0
4, 9933, Note_on_c, 1, 34, 98
4, 9953, Note_on_c, 1, 34, 0
4, 9962, Note_on_c, 1, 37, 98
4, 10012, Note_on_c, 1, 37, 0
4, 10024, Note_on_c, 1, 32, 116
4, 10276, Note_on_c, 1, 32, 0
4, 10291, Note_on_c, 1, 32, 105
4, 10302, Note_on_c, 1, 32, 0
4, 10323, Note_on_c, 1, 32, 116
4, 10341, Note_on_c, 1, 32, 0
4, 10381, Note_on_c, 1, 32, 109
4, 10435, Note_on_c, 1, 32, 0
4, 10440, Note_on_c, 1, 44, 107
4, 10459, Note_on_c, 1, 44, 0
4, 10498, Note_on_c, 1, 34, 113
4, 10697, Note_on_c, 1, 34, 0
4, 10705, Note_on_c, 1, 32, 88
4, 10725, Note_on_c, 1, 32, 0
4, 10735, Note_on_c, 1, 34, 98
4, 10758, Note_on_c, 1, 34, 0
4, 10767, Note_on_c, 1, 34, 98
4, 10787, Note_on_c, 1, 34, 0
4, 10797, Note_on_c, 1, 37, 88
4, 10890, Note_on_c, 1, 37, 0
4, 10891, Note_on_c, 1, 32, 103
4, 10917, Note_on_c, 1, 32, 0
4, 10921, Note_on_c, 1, 37, 109
4, 10975, Note_on_c, 1, 37, 0
4, 10980, Note_on_c, 1, 32, 111
4, 11246, Note_on_c, 1, 32, 0
4, 11246, Note_on_c, 1, 39, 85
4, 11263, Note_on_c, 1, 39, 0
4, 11277, Note_on_c, 1, 44, 103
4, 11299, Note_on_c, 1, 44, 0
4, 11307, Note_on_c, 1, 39, 71
4, 11323, Note_on_c, 1, 39, 0
4, 11337, Note_on_c, 1, 32, 101
4, 11360, Note_on_c, 1, 32, 0
4, 11368, Note_on_c, 1, 39, 94
4, 11400, Note_on_c, 1, 32, 61
4, 11415, Note_on_c, 1, 39, 0
4, 11456, Note_on_c, 1, 32, 0
4, 11458, Note_on_c, 1, 37, 113
4, 11665, Note_on_c, 1, 37, 0
4, 11668, Note_on_c, 1, 32, 82
4, 11687, Note_on_c, 1, 32, 0
4, 11702, Note_on_c, 1, 37, 72
4, 11718, Note_on_c, 1, 37, 0
4, 11729, Note_on_c, 1, 32, 88
4, 11745, Note_on_c, 1, 32, 0
4, 11760, Note_on_c, 1, 37, 109
4, 11780, Note_on_c, 1, 37, 0
4, 11817, Note_on_c, 1, 39, 96
4, 11934, Note_on_c, 1, 39, 0
4, 11939, Note_on_c, 1, 32, 109
4, 12143, Note_on_c, 1, 32, 0
4, 12149, Note_on_c, 1, 44, 109
4, 12156, Note_on_c, 1, 44, 0
4, 12208, Note_on_c, 1, 39, 80
4, 12215, Note_on_c, 1, 39, 0
4, 12240, Note_on_c, 1, 44, 105
4, 12253, Note_on_c, 1, 44, 0
4, 12268, Note_on_c, 1, 39, 86
4, 12278, Note_on_c, 1, 39, 0
4, 12299, Note_on_c, 1, 32, 94
4, 12312, Note_on_c, 1, 32, 0
4, 12329, Note_on_c, 1, 44, 111
4, 12387, Note_on_c, 1, 44, 0
4, 12391, Note_on_c, 1, 32, 83
4, 12404, Note_on_c, 1, 32, 0
4, 12417, Note_on_c, 1, 37, 96
4, 12531, Note_on_c, 1, 37, 0
4, 12539, Note_on_c, 1, 39, 111
4, 12553, Note_on_c, 1, 39, 0
4, 12599, Note_on_c, 1, 39, 100
4, 12677, Note_on_c, 1, 39, 0
4, 12686, Note_on_c, 1, 32, 94
4, 12703, Note_on_c, 1, 32, 0
4, 12716, Note_on_c, 1, 39, 100
4, 12731, Note_on_c, 1, 39, 0
4, 12776, Note_on_c, 1, 39, 105
4, 12852, Note_on_c, 1, 39, 0
4, 12870, Note_on_c, 1, 39, 94
4, 12893, Note_on_c, 1, 32, 85
4, 12894, Note_on_c, 1, 39, 0
4, 12915, Note_on_c, 1, 32, 0
4, 12918, Note_on_c, 1, 34, 61
4, 12946, Note_on_c, 1, 34, 0
4, 12958, Note_on_c, 1, 39, 101
4, 12986, Note_on_c, 1, 39, 0
4, 13027, Note_on_c, 1, 39, 113
4, 13136, Note_on_c, 1, 39, 0
4, 13138, Note_on_c, 1, 32, 101
4, 13163, Note_on_c, 1, 32, 0
4, 13166, Note_on_c, 1, 39, 103
4, 13187, Note_on_c, 1, 39, 0
4, 13198, Note_on_c, 1, 40, 113
4, 13247, Note_on_c, 1, 40, 0
4, 13261, Note_on_c, 1, 40, 124
4, 13282, Note_on_c, 1, 40, 0
4, 13377, Note_on_c, 1, 33, 109
4, 13427, Note_on_c, 1, 33, 0
4, 13589, Note_on_c, 1, 45, 94
4, 13597, Note_on_c, 1, 45, 0
4, 13649, Note_on_c, 1, 40, 64
4, 13657, Note_on_c, 1, 40, 0
4, 13676, Note_on_c, 1, 33, 73
4, 13698, Note_on_c, 1, 33, 0
4, 13739, Note_on_c, 1, 33, 89
4, 13812, Note_on_c, 1, 33, 0
4, 13830, Note_on_c, 1, 33, 71
4, 13852, Note_on_c, 1, 33, 0
4, 13857, Note_on_c, 1, 35, 83
4, 14060, Note_on_c, 1, 35, 0
4, 14069, Note_on_c, 1, 33, 86
4, 14092, Note_on_c, 1, 33, 0
4, 14093, Note_on_c, 1, 35, 69
4, 14115, Note_on_c, 1, 35, 0
4, 14124, Note_on_c, 1, 37, 76
4, 14146, Note_on_c, 1, 37, 0
4, 14157, Note_on_c, 1, 38, 96
4, 14231, Note_on_c, 1, 38, 0
4, 14242, Note_on_c, 1, 38, 90
4, 14265, Note_on_c, 1, 38, 0
4, 14281, Note_on_c, 1, 40, 49
4, 14291, Note_on_c, 1, 40, 0
4, 14306, Note_on_c, 1, 38, 64
4, 14323, Note_on_c, 1, 38, 0
4, 14339, Note_on_c, 1, 33, 92
4, 14548, Note_on_c, 1, 33, 0
4, 14554, Note_on_c, 1, 45, 77
4, 14561, Note_on_c, 1, 45, 0
4, 14609, Note_on_c, 1, 40, 64
4, 14619, Note_on_c, 1, 40, 0
4, 14640, Note_on_c, 1, 45, 84
4, 14656, Note_on_c, 1, 45, 0
4, 14675, Note_on_c, 1, 40, 45
4, 14685, Note_on_c, 1, 40, 0
4, 14736, Note_on_c, 1, 40, 85
4, 14761, Note_on_c, 1, 40, 0
4, 14761, Note_on_c, 1, 33, 98
4, 14812, Note_on_c, 1, 33, 0
4, 14819, Note_on_c, 1, 38, 101
4, 15038, Note_on_c, 1, 38, 0
4, 15058, Note_on_c, 1, 38, 81
4, 15110, Note_on_c, 1, 38, 0
4, 15117, Note_on_c, 1, 40, 78
4, 15201, Note_on_c, 1, 40, 0
4, 15208, Note_on_c, 1, 38, 72
4, 15230, Note_on_c, 1, 38, 0
4, 15238, Note_on_c, 1, 40, 61
4, 15265, Note_on_c, 1, 40, 0
4, 15270, Note_on_c, 1, 38, 57
4, 15296, Note_on_c, 1, 38, 0
4, 15302, Note_on_c, 1, 33, 94
4, 15548, Note_on_c, 1, 33, 0
4, 15571, Note_on_c, 1, 33, 70
4, 15597, Note_on_c, 1, 33, 0
4, 15601, Note_on_c, 1, 45, 96
4, 15606, Note_on_c, 1, 45, 0
4, 15686, Note_on_c, 1, 40, 71
4, 15697, Note_on_c, 1, 40, 0
4, 15714, Note_on_c, 1, 33, 81
4, 15732, Note_on_c, 1, 33, 0
4, 15739, Note_on_c, 1, 33, 80
4, 15776, Note_on_c, 1, 33, 0
4, 15777, Note_on_c, 1, 38, 85
4, 16041, Note_on_c, 1, 38, 0
4, 16047, Note_on_c, 1, 33, 88
4, 16065, Note_on_c, 1, 33, 0
4, 16077, Note_on_c, 1, 38, 81
4, 16092, Note_on_c, 1, 38, 0
4, 16138, Note_on_c, 1, 38, 101
4, 16158, Note_on_c, 1, 38, 0
4, 16197, Note_on_c, 1, 33, 94
4, 16222, Note_on_c, 1, 33, 0
4, 16226, Note_on_c, 1, 38, 83
4, 16248, Note_on_c, 1, 38, 0
4, 16260, Note_on_c, 1, 40, 89
4, 16664, Note_on_c, 1, 40, 0
4, 16677, Note_on_c, 1, 40, 98
4, 16692, Note_on_c, 1, 40, 0
4, 16736, Note_on_c, 1, 33, 100
4, 17191, Note_on_c, 1, 33, 0
4, 17424, Note_on_c, 1, 47, 109
4, 17452, Note_on_c, 1, 47, 0
4, 17454, Note_on_c, 1, 43, 77
4, 17479, Note_on_c, 1, 43, 0
4, 17485, Note_on_c, 1, 35, 98
4, 17510, Note_on_c, 1, 35, 0
4, 17519, Note_on_c, 1, 38, 103
4, 17608, Note_on_c, 1, 38, 0
4, 17613, Note_on_c, 1, 35, 98
4, 17633, Note_on_c, 1, 35, 0
4, 17642, Note_on_c, 1, 38, 98
4, 17692, Note_on_c, 1, 38, 0
4, 17704, Note_on_c, 1, 33, 116
4, 17956, Note_on_c, 1, 33, 0
4, 17971, Note_on_c, 1, 33, 105
4, 17982, Note_on_c, 1, 33, 0
4, 18003, Note_on_c, 1, 33, 116
4, 18021, Note_on_c, 1, 33, 0
4, 18061, Note_on_c, 1, 33, 109
4, 18115, Note_on_c, 1, 33, 0
4, 18120, Note_on_c, 1, 45, 107
4, 18139, Note_on_c, 1, 45, 0
4, 18178, Note_on_c, 1, 35, 113
4, 18377, Note_on_c, 1, 35, 0
4, 18385, Note_on_c, 1, 33, 88
4, 18405, Note_on_c, 1, 33, 0
4, 18415, Note_on_c, 1, 35, 98
4, 18438, Note_on_c, 1, 35, 0
4, 18447, Note_on_c, 1, 35, 98
4, 18467, Note_on_c, 1, 35, 0
4, 18477, Note_on_c, 1, 38, 88
4, 18570, Note_on_c, 1, 38, 0
4, 18571, Note_on_c, 1, 33, 103
4, 18597, Note_on_c, 1, 33, 0
4, 18601, Note_on_c, 1, 38, 109
4, 18655, Note_on_c, 1, 38, 0
4, 18660, Note_on_c, 1, 33, 111
4, 18926, Note_on_c, 1, 33, 0
4, 18926, Note_on_c, 1, 40, 85
4, 18943, Note_on_c, 1, 40, 0
4, 18957, Note_on_c, 1, 45, 103
4, 18979, Note_on_c, 1, 45, 0
4, 18987, Note_on_c, 1, 40, 71
4, 19003, Note_on_c, 1, 40, 0
4, 19017, Note_on_c, 1, 33, 101
4, 19040, Note_on_c, 1, 33, 0
4, 19048, Note_on_c, 1, 40, 94
4, 19080, Note_on_c, 1, 33, 61
4, 19095, Note_on_c, 1, 40, 0
4, 19136, Note_on_c, 1, 33, 0
4, 19138, Note_on_c, 1, 38, 113
4, 19345, Note_on_c, 1, 38, 0
4, 19348, Note_on_c, 1, 33, 82
4, 19367, Note_on_c, 1, 33, 0
4, 19382, Note_on_c, 1, 38, 72
4, 19398, Note_on_c, 1, 38, 0
4, 19409, Note_on_c, 1, 33, 88
4, 19425, Note_on_c, 1, 33, 0
4, 19440, Note_on_c, 1, 38, 109
4, 19460, Note_on_c, 1, 38, 0
4, 19497, Note_on_c, 1, 40, 96
4, 19614, Note_on_c, 1, 40, 0
4, 19619, Note_on_c, 1, 33, 109
4, 19823, Note_on_c, 1, 33, 0
4, 19829, Note_on_c, 1, 45, 109
4, 19836, Note_on_c, 1, 45, 0
4, 19888, Note_on_c, 1, 40, 80
4, 19895, Note_on_c, 1, 40, 0
4, 19920, Note_on_c, 1, 45, 105
4, 19933, Note_on_c, 1, 45, 0
4, 19948, Note_on_c, 1, 40, 86
4, 19958, Note_on_c, 1, 40, 0
4, 19979, Note_on_c, 1, 33, 94
4, 19992, Note_on_c, 1, 33, 0
4, 20009, Note_on_c, 1, 45, 111
4, 20067, Note_on_c, 1, 45, 0
4, 20071, Note_on_c, 1, 33, 83
4, 20084, Note_on_c, 1, 33, 0
4, 20097, Note_on_c, 1, 38, 96
4, 20211, Note_on_c, 1, 38, 0
4, 20219, Note_on_c, 1, 40, 111
4, 20233, Note_on_c, 1, 40, 0
4, 20279, Note_on_c, 1, 40, 100
4, 20357, Note_on_c, 1, 40, 0
4, 20366, Note_on_c, 1, 33, 94
4, 20383, Note_on_c, 1, 33, 0
4, 20396, Note_on_c, 1, 40, 100
4, 20411, Note_on_c, 1, 40, 0
4, 20456, Note_on_c, 1, 40, 105
4, 20532, Note_on_c, 1, 40, 0
4, 20550, Note_on_c, 1, 40, 94
4, 20573, Note_on_c, 1, 33, 85
4, 20574, Note_on_c, 1, 40, 0
4, 20595, Note_on_c, 1, 33, 0
4, 20598, Note_on_c, 1, 35, 61
4, 20626, Note_on_c, 1, 35, 0
4, 20638, Note_on_c, 1, 40, 101
4, 20666, Note_on_c, 1, 40, 0
4, 20879, Note_on_c, 1, 40, 98
4, 21058, Note_on_c, 1, 45, 109
4, 21060, Note_on_c, 1, 40, 0
4, 21264, Note_on_c, 1, 47, 109
4, 21292, Note_on_c, 1, 47, 0
4, 21294, Note_on_c, 1, 43, 77
4, 21319, Note_on_c, 1, 43, 0
4, 21325, Note_on_c, 1, 35, 98
4, 21342, Note_on_c, 1, 45, 0
4, 21350, Note_on_c, 1, 35, 0
4, 21359, Note_on_c, 1, 38, 103
4, 21448, Note_on_c, 1, 38, 0
4, 21453, Note_on_c, 1, 35, 98
4, 21473, Note_on_c, 1, 35, 0
4, 21482, Note_on_c, 1, 38, 98
4, 21532, Note_on_c, 1, 38, 0
4, 21544, Note_on_c, 1, 33, 116
4, 21796, Note_on_c, 1, 33, 0
4, 21811, Note_on_c, 1, 33, 105
4, 21822, Note_on_c, 1, 33, 0
4, 21843, Note_on_c, 1, 33, 116
4, 21861, Note_on_c, 1, 33, 0
4, 21901, Note_on_c, 1, 33, 109
4, 21955, Note_on_c, 1, 33, 0
4, 21960, Note_on_c, 1, 45, 107
4, 21979, Note_on_c, 1, 45, 0
4, 22018, Note_on_c, 1, 35, 113
4, 22217, Note_on_c, 1, 35, 0
4, 22225, Note_on_c, 1, 33, 88
4, 22245, Note_on_c, 1, 33, 0
4, 22255, Note_on_c, 1, 35, 98
4, 22278, Note_on_c, 1, 35, 0
4, 22287, Note_on_c, 1, 35, 98
4, 22307, Note_on_c, 1, 35, 0
4, 22317, Note_on_c, 1, 38, 88
4, 22410, Note_on_c, 1, 38, 0
4, 22411, Note_on_c, 1, 33, 103
4, 22437, Note_on_c, 1, 33, 0
4, 22441, Note_on_c, 1, 38, 109
4, 22495, Note_on_c, 1, 38, 0
4, 22500, Note_on_c, 1, 33, 111
4, 22766, Note_on_c, 1, 33, 0
4, 22766, Note_on_c, 1, 40, 85
4, 22783, Note_on_c, 1, 40, 0
4, 22797, Note_on_c, 1, 45, 103
4, 22819, Note_on_c, 1, 45, 0
4, 22827, Note_on_c, 1, 40, 71
4, 22843, Note_on_c, 1, 40, 0
4, 22857, Note_on_c, 1, 33, 101
4, 22880, Note_on_c, 1, 33, 0
4, 22888, Note_on_c, 1, 40, 94
4, 22920, Note_on_c, 1, 33, 61
4, 22935, Note_on_c, 1, 40, 0
4, 22976, Note_on_c, 1, 33, 0
4, 22978, Note_on_c, 1, 38, 113
4, 23185, Note_on_c, 1, 38, 0
4, 23188, Note_on_c, 1, 33, 82
4, 23207, Note_on_c, 1, 33, 0
4, 23222, Note_on_c, 1, 38, 72
4, 23238, Note_on_c, 1, 38, 0
4, 23249, Note_on_c, 1, 33, 88
4, 23265, Note_on_c, 1, 33, 0
4, 23280, Note_on_c, 1, 38, 109
4, 23300, Note_on_c, 1, 38, 0
4, 23337, Note_on_c, 1, 40, 96
4, 23454, Note_on_c, 1, 40, 0
4, 23459, Note_on_c, 1, 33, 109
4, 23663, Note_on_c, 1, 33, 0
4, 23669, Note_on_c, 1, 45, 109
4, 23676, Note_on_c, 1, 45, 0
4, 23728, Note_on_c, 1, 40, 80
4, 23735, Note_on_c, 1, 40, 0
4, 23760, Note_on_c, 1, 45, 105
4, 23773, Note_on_c, 1, 45, 0
4, 23788, Note_on_c, 1, 40, 86
4, 23798, Note_on_c, 1, 40, 0
4, 23819, Note_on_c, 1, 33, 94
4, 23832, Note_on_c, 1, 33, 0
4, 23849, Note_on_c, 1, 45, 111
4, 23907, Note_on_c, 1, 45, 0
4, 23911, Note_on_c, 1, 33, 83
4, 23924, Note_on_c, 1, 33, 0
4, 23937, Note_on_c, 1, 38, 96
4, 24051, Note_on_c, 1, 38, 0
4, 24059, Note_on_c, 1, 40, 111
4, 24073, Note_on_c, 1, 40, 0
4, 24119, Note_on_c, 1, 40, 100
4, 24197, Note_on_c, 1, 40, 0
4, 24206, Note_on_c, 1, 33, 94
4, 24223, Note_on_c, 1, 33, 0
4, 24236, Note_on_c, 1, 40, 100
4, 24251, Note_on_c, 1, 40, 0
4, 24296, Note_on_c, 1, 40, 105
4, 24372, Note_on_c, 1, 40, 0
4, 24390, Note_on_c, 1, 40, 94
4, 24413, Note_on_c, 1, 33, 85
4, 24414, Note_on_c, 1, 40, 0
4, 24435, Note_on_c, 1, 33, 0
4, 24438, Note_on_c, 1, 35, 61
4, 24466, Note_on_c, 1, 35, 0
4, 24478, Note_on_c, 1, 40, 101
4, 24506, Note_on_c, 1, 40, 0
4, 24856, Note_on_c, 1, 40, 40
4, 24976, Note_on_c, 1, 33, 55
4, 24986, Note_on_c, 1, 40, 0
4, 25497, Note_on_c, 1, 33, 0
4, 25504, Note_on_c, 1, 38, 47
4, 25787, Note_on_c, 1, 38, 0
4, 25788, Note_on_c, 1, 40, 57
4, 26284, Note_on_c, 1, 30, 77
4, 26291, Note_on_c, 1, 40, 0
4, 27388, Note_on_c, 1, 30, 0
4, 27388, End_track
5, 0, Start_track
5, 0, MIDI_port, 0
5, 0, Title_t, "synth brass"
5, 0, Program_c, 2, 63
5, 1677, Note_on_c, 2, 49, 98
5, 1679, Note_on_c, 2, 37, 98
5, 1697, Note_on_c, 2, 49, 0
5, 1698, Note_on_c, 2, 37, 0
5, 1736, Note_on_c, 2, 51, 101
5, 1739, Note_on_c, 2, 39, 90
5, 1754, Note_on_c, 2, 51, 0
5, 1756, Note_on_c, 2, 39, 0
5, 1794, Note_on_c, 2, 44, 88
5, 1797, Note_on_c, 2, 56, 100
5, 1811, Note_on_c, 2, 56, 0
5, 1812, Note_on_c, 2, 44, 0
5, 1859, Note_on_c, 2, 32, 92
5, 1864, Note_on_c, 2, 44, 92
5, 2332, Note_on_c, 2, 32, 0
5, 2334, Note_on_c, 2, 44, 0
5, 2338, Note_on_c, 2, 46, 75
5, 2339, Note_on_c, 2, 34, 55
5, 2632, Note_on_c, 2, 46, 0
5, 2639, Note_on_c, 2, 34, 0
5, 2639, Note_on_c, 2, 49, 98
5, 2642, Note_on_c, 2, 37, 103
5, 2656, Note_on_c, 2, 49, 0
5, 2659, Note_on_c, 2, 37, 0
5, 2696, Note_on_c, 2, 51, 103
5, 2699, Note_on_c, 2, 39, 81
5, 2714, Note_on_c, 2, 51, 0
5, 2716, Note_on_c, 2, 39, 0
5, 2758, Note_on_c, 2, 46, 80
5, 2759, Note_on_c, 2, 56, 107
5, 2760, Note_on_c, 2, 44, 64
5, 2769, Note_on_c, 2, 46, 0
5, 2771, Note_on_c, 2, 44, 0
5, 2773, Note_on_c, 2, 56, 0
5, 2818, Note_on_c, 2, 44, 103
5, 2820, Note_on_c, 2, 32, 90
5, 3296, Note_on_c, 2, 34, 70
5, 3297, Note_on_c, 2, 32, 0
5, 3297, Note_on_c, 2, 46, 67
5, 3300, Note_on_c, 2, 44, 0
5, 3587, Note_on_c, 2, 34, 0
5, 3587, Note_on_c, 2, 46, 0
5, 3595, Note_on_c, 2, 49, 100
5, 3596, Note_on_c, 2, 37, 98
5, 3614, Note_on_c, 2, 37, 0
5, 3615, Note_on_c, 2, 49, 0
5, 3686, Note_on_c, 2, 37, 83
5, 3687, Note_on_c, 2, 49, 92
5, 3701, Note_on_c, 2, 37, 0
5, 3707, Note_on_c, 2, 49, 0
5, 3716, Note_on_c, 2, 51, 88
5, 3716, Note_on_c, 2, 39, 92
5, 3733, Note_on_c, 2, 51, 0
5, 3734, Note_on_c, 2, 39, 0
5, 3779, Note_on_c, 2, 32, 94
5, 3780, Note_on_c, 2, 44, 101
5, 4249, Note_on_c, 2, 32, 0
5, 4249, Note_on_c, 2, 44, 0
5, 4258, Note_on_c, 2, 46, 86
5, 4259, Note_on_c, 2, 34, 73
5, 4733, Note_on_c, 2, 46, 0
5, 4736, Note_on_c, 2, 34, 0
5, 4737, Note_on_c, 2, 51, 81
5, 4738, Note_on_c, 2, 39, 84
5, 4979, Note_on_c, 2, 56, 83
5, 5155, Note_on_c, 2, 56, 0
5, 5155, Note_on_c, 2, 58, 84
5, 5207, Note_on_c, 2, 58, 0
5, 5216, Note_on_c, 2, 56, 80
5, 5344, Note_on_c, 2, 51, 0
5, 5687, Note_on_c, 2, 39, 0
5, 5688, Note_on_c, 2, 56, 0
5, 5880, Note_on_c, 2, 68, 83
5, 5882, Note_on_c, 2, 60, 64
5, 5884, Note_on_c, 2, 63, 58
5, 5947, Note_on_c, 2, 60, 0
5, 5965, Note_on_c, 2, 60, 71
5, 5969, Note_on_c, 2, 63, 0
5, 5982, Note_on_c, 2, 68, 0
5, 5998, Note_on_c, 2, 60, 0
5, 6001, Note_on_c, 2, 63, 54
5, 6023, Note_on_c, 2, 60, 71
5, 6028, Note_on_c, 2, 63, 0
5, 6057, Note_on_c, 2, 63, 64
5, 6058, Note_on_c, 2, 60, 0
5, 6116, Note_on_c, 2, 68, 83
5, 6176, Note_on_c, 2, 61, 73
5, 6177, Note_on_c, 2, 65, 78
5, 6181, Note_on_c, 2, 63, 0
5, 6556, Note_on_c, 2, 61, 0
5, 6560, Note_on_c, 2, 68, 0
5, 6569, Note_on_c, 2, 61, 88
5, 6570, Note_on_c, 2, 65, 0
5, 6599, Note_on_c, 2, 63, 75
5, 6608, Note_on_c, 2, 61, 0
5, 6620, Note_on_c, 2, 65, 75
5, 6626, Note_on_c, 2, 63, 0
5, 6644, Note_on_c, 2, 65, 0
5, 6651, Note_on_c, 2, 68, 17
5, 6656, Note_on_c, 2, 60, 82
5, 6657, Note_on_c, 2, 63, 64
5, 6765, Note_on_c, 2, 60, 0
5, 6775, Note_on_c, 2, 60, 89
5, 6818, Note_on_c, 2, 60, 0
5, 6821, Note_on_c, 2, 68, 0
5, 6822, Note_on_c, 2, 63, 0
5, 6831, Note_on_c, 2, 68, 77
5, 6832, Note_on_c, 2, 63, 72
5, 6832, Note_on_c, 2, 60, 89
5, 6902, Note_on_c, 2, 60, 0
5, 6923, Note_on_c, 2, 63, 0
5, 6934, Note_on_c, 2, 60, 65
5, 6939, Note_on_c, 2, 68, 0
5, 6945, Note_on_c, 2, 60, 0
5, 6960, Note_on_c, 2, 68, 96
5, 6961, Note_on_c, 2, 60, 96
5, 6962, Note_on_c, 2, 63, 83
5, 6975, Note_on_c, 2, 60, 0
5, 6984, Note_on_c, 2, 60, 17
5, 7011, Note_on_c, 2, 68, 0
5, 7013, Note_on_c, 2, 63, 0
5, 7020, Note_on_c, 2, 68, 100
5, 7020, Note_on_c, 2, 63, 94
5, 7027, Note_on_c, 2, 60, 0
5, 7031, Note_on_c, 2, 68, 0
5, 7031, Note_on_c, 2, 63, 0
5, 7084, Note_on_c, 2, 60, 80
5, 7091, Note_on_c, 2, 68, 28
5, 7107, Note_on_c, 2, 60, 0
5, 7127, Note_on_c, 2, 68, 0
5, 7137, Note_on_c, 2, 63, 57
5, 7138, Note_on_c, 2, 68, 20
5, 7139, Note_on_c, 2, 61, 64
5, 7140, Note_on_c, 2, 65, 76
5, 7513, Note_on_c, 2, 61, 0
5, 7521, Note_on_c, 2, 63, 0
5, 7523, Note_on_c, 2, 68, 0
5, 7529, Note_on_c, 2, 61, 80
5, 7538, Note_on_c, 2, 65, 0
5, 7560, Note_on_c, 2, 63, 64
5, 7580, Note_on_c, 2, 61, 0
5, 7584, Note_on_c, 2, 65, 60
5, 7593, Note_on_c, 2, 63, 0
5, 7610, Note_on_c, 2, 65, 0
5, 7617, Note_on_c, 2, 63, 65
5, 7618, Note_on_c, 2, 68, 69
5, 7618, Note_on_c, 2, 60, 84
5, 7773, Note_on_c, 2, 60, 0
5, 7776, Note_on_c, 2, 68, 0
5, 7782, Note_on_c, 2, 63, 0
5, 7795, Note_on_c, 2, 63, 66
5, 7796, Note_on_c, 2, 68, 86
5, 7798, Note_on_c, 2, 60, 52
5, 7864, Note_on_c, 2, 60, 0
5, 7892, Note_on_c, 2, 60, 61
5, 7901, Note_on_c, 2, 63, 0
5, 7923, Note_on_c, 2, 63, 66
5, 7926, Note_on_c, 2, 60, 0
5, 7947, Note_on_c, 2, 60, 61
5, 7958, Note_on_c, 2, 63, 0
5, 7970, Note_on_c, 2, 68, 0
5, 7976, Note_on_c, 2, 63, 75
5, 7993, Note_on_c, 2, 60, 0
5, 8004, Note_on_c, 2, 65, 76
5, 8032, Note_on_c, 2, 63, 0
5, 8036, Note_on_c, 2, 68, 82
5, 8074, Note_on_c, 2, 65, 0
5, 8081, Note_on_c, 2, 68, 0
5, 8095, Note_on_c, 2, 65, 70
5, 8095, Note_on_c, 2, 61, 62
5, 8096, Note_on_c, 2, 63, 64
5, 8096, Note_on_c, 2, 68, 61
5, 8448, Note_on_c, 2, 61, 0
5, 8455, Note_on_c, 2, 61, 88
5, 8457, Note_on_c, 2, 68, 0
5, 8473, Note_on_c, 2, 63, 0
5, 8475, Note_on_c, 2, 65, 0
5, 8517, Note_on_c, 2, 68, 92
5, 8530, Note_on_c, 2, 61, 0
5, 8552, Note_on_c, 2, 68, 0
5, 8579, Note_on_c, 2, 70, 80
5, 8579, Note_on_c, 2, 63, 64
5, 8579, Note_on_c, 2, 67, 82
5, 8582, Note_on_c, 2, 65, 49
5, 8592, Note_on_c, 2, 65, 0
5, 8984, Note_on_c, 2, 70, 0
5, 8993, Note_on_c, 2, 63, 0
5, 8997, Note_on_c, 2, 70, 92
5, 9003, Note_on_c, 2, 67, 0
5, 9048, Note_on_c, 2, 70, 0
5, 9052, Note_on_c, 2, 68, 84
5, 9053, Note_on_c, 2, 60, 86
5, 9055, Note_on_c, 2, 63, 76
5, 9481, Note_on_c, 2, 60, 0
5, 9488, Note_on_c, 2, 63, 0
5, 9493, Note_on_c, 2, 68, 0
5, 9542, Note_on_c, 2, 68, 101
5, 9839, Note_on_c, 2, 75, 111
5, 9840, Note_on_c, 2, 68, 0
5, 9856, Note_on_c, 2, 103, 16
5, 9866, Note_on_c, 2, 103, 0
5, 10335, Note_on_c, 2, 75, 0
5, 10349, Note_on_c, 2, 68, 88
5, 10381, Note_on_c, 2, 70, 82
5, 10386, Note_on_c, 2, 68, 0
5, 10408, Note_on_c, 2, 72, 83
5, 10413, Note_on_c, 2, 70, 0
5, 10441, Note_on_c, 2, 70, 100
5, 10446, Note_on_c, 2, 72, 0
5, 10499, Note_on_c, 2, 70, 0
5, 10499, Note_on_c, 2, 68, 101
5, 10884, Note_on_c, 2, 60, 77
5, 10892, Note_on_c, 2, 68, 0
5, 10917, Note_on_c, 2, 60, 0
5, 10917, Note_on_c, 2, 63, 82
5, 10941, Note_on_c, 2, 68, 98
5, 10943, Note_on_c, 2, 63, 0
5, 10968, Note_on_c, 2, 68, 0
5, 10975, Note_on_c, 2, 68, 94
5, 11376, Note_on_c, 2, 68, 0
5, 11457, Note_on_c, 2, 73, 109
5, 11458, Note_on_c, 2, 65, 116
5, 11458, Note_on_c, 2, 68, 92
5, 11667, Note_on_c, 2, 65, 0
5, 11696, Note_on_c, 2, 65, 62
5, 11705, Note_on_c, 2, 73, 0
5, 11721, Note_on_c, 2, 73, 86
5, 11724, Note_on_c, 2, 65, 0
5, 11751, Note_on_c, 2, 73, 0
5, 11752, Note_on_c, 2, 68, 0
5, 11758, Note_on_c, 2, 72, 113
5, 11758, Note_on_c, 2, 63, 98
5, 11759, Note_on_c, 2, 68, 89
5, 11809, Note_on_c, 2, 72, 0
5, 11812, Note_on_c, 2, 68, 0
5, 11817, Note_on_c, 2, 70, 105
5, 11922, Note_on_c, 2, 63, 0
5, 11922, Note_on_c, 2, 70, 0
5, 11939, Note_on_c, 2, 68, 101
5, 11940, Note_on_c, 2, 63, 100
5, 11941, Note_on_c, 2, 60, 114
5, 12182, Note_on_c, 2, 60, 0
5, 12185, Note_on_c, 2, 63, 0
5, 12196, Note_on_c, 2, 68, 0
5, 12237, Note_on_c, 2, 63, 96
5, 12237, Note_on_c, 2, 72, 88
5, 12238, Note_on_c, 2, 68, 89
5, 12257, Note_on_c, 2, 72, 0
5, 12264, Note_on_c, 2, 63, 0
5, 12264, Note_on_c, 2, 68, 0
5, 12300, Note_on_c, 2, 63, 100
5, 12300, Note_on_c, 2, 68, 100
5, 12301, Note_on_c, 2, 72, 111
5, 12375, Note_on_c, 2, 72, 0
5, 12379, Note_on_c, 2, 68, 0
5, 12407, Note_on_c, 2, 63, 0
5, 12417, Note_on_c, 2, 63, 98
5, 12418, Note_on_c, 2, 70, 107
5, 12419, Note_on_c, 2, 67, 98
5, 13134, Note_on_c, 2, 67, 0
5, 13170, Note_on_c, 2, 63, 0
5, 13184, Note_on_c, 2, 70, 0
5, 13201, Note_on_c, 2, 71, 118
5, 13201, Note_on_c, 2, 64, 111
5, 13201, Note_on_c, 2, 68, 94
5, 13248, Note_on_c, 2, 71, 0
5, 13249, Note_on_c, 2, 64, 0
5, 13252, Note_on_c, 2, 68, 0
5, 13259, Note_on_c, 2, 68, 107
5, 13259, Note_on_c, 2, 64, 90
5, 13259, Note_on_c, 2, 71, 122
5, 13280, Note_on_c, 2, 64, 0
5, 13282, Note_on_c, 2, 71, 0
5, 13286, Note_on_c, 2, 68, 0
5, 13380, Note_on_c, 2, 73, 118
5, 13381, Note_on_c, 2, 64, 125
5, 13381, Note_on_c, 2, 69, 127
5, 13413, Note_on_c, 2, 64, 0
5, 13416, Note_on_c, 2, 73, 0
5, 13416, Note_on_c, 2, 69, 0
5, 13560, Note_on_c, 2, 69, 83
5, 13562, Note_on_c, 2, 61, 64
5, 13564, Note_on_c, 2, 64, 58
5, 13627, Note_on_c, 2, 61, 0
5, 13645, Note_on_c, 2, 61, 71
5, 13649, Note_on_c, 2, 64, 0
5, 13662, Note_on_c, 2, 69, 0
5, 13678, Note_on_c, 2, 61, 0
5, 13681, Note_on_c, 2, 64, 54
5, 13703, Note_on_c, 2, 61, 71
5, 13708, Note_on_c, 2, 64, 0
5, 13737, Note_on_c, 2, 64, 64
5, 13738, Note_on_c, 2, 61, 0
5, 13796, Note_on_c, 2, 69, 83
5, 13856, Note_on_c, 2, 62, 73
5, 13857, Note_on_c, 2, 66, 78
5, 13861, Note_on_c, 2, 64, 0
5, 14236, Note_on_c, 2, 62, 0
5, 14240, Note_on_c, 2, 69, 0
5, 14249, Note_on_c, 2, 62, 88
5, 14250, Note_on_c, 2, 66, 0
5, 14279, Note_on_c, 2, 64, 75
5, 14288, Note_on_c, 2, 62, 0
5, 14300, Note_on_c, 2, 66, 75
5, 14306, Note_on_c, 2, 64, 0
5, 14324, Note_on_c, 2, 66, 0
5, 14331, Note_on_c, 2, 69, 17
5, 14336, Note_on_c, 2, 61, 82
5, 14337, Note_on_c, 2, 64, 64
5, 14445, Note_on_c, 2, 61, 0
5, 14455, Note_on_c, 2, 61, 89
5, 14498, Note_on_c, 2, 61, 0
5, 14501, Note_on_c, 2, 69, 0
5, 14502, Note_on_c, 2, 64, 0
5, 14511, Note_on_c, 2, 69, 77
5, 14512, Note_on_c, 2, 64, 72
5, 14512, Note_on_c, 2, 61, 89
5, 14582, Note_on_c, 2, 61, 0
5, 14603, Note_on_c, 2, 64, 0
5, 14614, Note_on_c, 2, 61, 65
5, 14619, Note_on_c, 2, 69, 0
5, 14625, Note_on_c, 2, 61, 0
5, 14640, Note_on_c, 2, 69, 96
5, 14641, Note_on_c, 2, 61, 96
5, 14642, Note_on_c, 2, 64, 83
5, 14655, Note_on_c, 2, 61, 0
5, 14664, Note_on_c, 2, 61, 17
5, 14691, Note_on_c, 2, 69, 0
5, 14693, Note_on_c, 2, 64, 0
5, 14700, Note_on_c, 2, 69, 100
5, 14700, Note_on_c, 2, 64, 94
5, 14707, Note_on_c, 2, 61, 0
5, 14711, Note_on_c, 2, 69, 0
5, 14711, Note_on_c, 2, 64, 0
5, 14764, Note_on_c, 2, 61, 80
5, 14771, Note_on_c, 2, 69, 28
5, 14787, Note_on_c, 2, 61, 0
5, 14807, Note_on_c, 2, 69, 0
5, 14817, Note_on_c, 2, 64, 57
5, 14818, Note_on_c, 2, 69, 20
5, 14819, Note_on_c, 2, 62, 64
5, 14820, Note_on_c, 2, 66, 76
5, 15193, Note_on_c, 2, 62, 0
5, 15201, Note_on_c, 2, 64, 0
5, 15203, Note_on_c, 2, 69, 0
5, 15209, Note_on_c, 2, 62, 80
5, 15218, Note_on_c, 2, 66, 0
5, 15240, Note_on_c, 2, 64, 64
5, 15260, Note_on_c, 2, 62, 0
5, 15264, Note_on_c, 2, 66, 60
5, 15273, Note_on_c, 2, 64, 0
5, 15290, Note_on_c, 2, 66, 0
5, 15297, Note_on_c, 2, 64, 65
5, 15298, Note_on_c, 2, 69, 69
5, 15298, Note_on_c, 2, 61, 84
5, 15453, Note_on_c, 2, 61, 0
5, 15456, Note_on_c, 2, 69, 0
5, 15462, Note_on_c, 2, 64, 0
5, 15475, Note_on_c, 2, 64, 66
5, 15476, Note_on_c, 2, 69, 86
5, 15478, Note_on_c, 2, 61, 52
5, 15544, Note_on_c, 2, 61, 0
5, 15572, Note_on_c, 2, 61, 61
5, 15581, Note_on_c, 2, 64, 0
5, 15603, Note_on_c, 2, 64, 66
5, 15606, Note_on_c, 2, 61, 0
5, 15627, Note_on_c, 2, 61, 61
5, 15638, Note_on_c, 2, 64, 0
5, 15650, Note_on_c, 2, 69, 0
5, 15656, Note_on_c, 2, 64, 75
5, 15673, Note_on_c, 2, 61, 0
5, 15684, Note_on_c, 2, 66, 76
5, 15712, Note_on_c, 2, 64, 0
5, 15716, Note_on_c, 2, 69, 82
5, 15754, Note_on_c, 2, 66, 0
5, 15761, Note_on_c, 2, 69, 0
5, 15775, Note_on_c, 2, 66, 70
5, 15775, Note_on_c, 2, 62, 62
5, 15776, Note_on_c, 2, 64, 64
5, 15776, Note_on_c, 2, 69, 61
5, 16128, Note_on_c, 2, 62, 0
5, 16135, Note_on_c, 2, 62, 88
5, 16137, Note_on_c, 2, 69, 0
5, 16153, Note_on_c, 2, 64, 0
5, 16155, Note_on_c, 2, 66, 0
5, 16197, Note_on_c, 2, 69, 92
5, 16210, Note_on_c, 2, 62, 0
5, 16232, Note_on_c, 2, 69, 0
5, 16259, Note_on_c, 2, 71, 80
5, 16259, Note_on_c, 2, 64, 64
5, 16259, Note_on_c, 2, 68, 82
5, 16262, Note_on_c, 2, 66, 49
5, 16272, Note_on_c, 2, 66, 0
5, 16664, Note_on_c, 2, 71, 0
5, 16673, Note_on_c, 2, 64, 0
5, 16677, Note_on_c, 2, 71, 92
5, 16683, Note_on_c, 2, 68, 0
5, 16728, Note_on_c, 2, 71, 0
5, 16732, Note_on_c, 2, 69, 84
5, 16733, Note_on_c, 2, 61, 86
5, 16735, Note_on_c, 2, 64, 76
5, 17161, Note_on_c, 2, 61, 0
5, 17168, Note_on_c, 2, 64, 0
5, 17173, Note_on_c, 2, 69, 0
5, 17519, Note_on_c, 2, 76, 111
5, 17536, Note_on_c, 2, 104, 16
5, 17536, Note_on_c, 2, 105, 16
5, 17546, Note_on_c, 2, 104, 0
5, 17546, Note_on_c, 2, 105, 0
5, 18015, Note_on_c, 2, 76, 0
5, 18029, Note_on_c, 2, 69, 88
5, 18061, Note_on_c, 2, 71, 82
5, 18066, Note_on_c, 2, 69, 0
5, 18088, Note_on_c, 2, 73, 83
5, 18093, Note_on_c, 2, 71, 0
5, 18121, Note_on_c, 2, 71, 100
5, 18126, Note_on_c, 2, 73, 0
5, 18179, Note_on_c, 2, 71, 0
5, 18179, Note_on_c, 2, 69, 101
5, 18564, Note_on_c, 2, 61, 77
5, 18572, Note_on_c, 2, 69, 0
5, 18597, Note_on_c, 2, 61, 0
5, 18597, Note_on_c, 2, 64, 82
5, 18621, Note_on_c, 2, 69, 98
5, 18623, Note_on_c, 2, 64, 0
5, 18648, Note_on_c, 2, 69, 0
5, 18655, Note_on_c, 2, 69, 94
5, 19056, Note_on_c, 2, 69, 0
5, 19137, Note_on_c, 2, 74, 109
5, 19138, Note_on_c, 2, 66, 116
5, 19138, Note_on_c, 2, 69, 92
5, 19347, Note_on_c, 2, 66, 0
5, 19376, Note_on_c, 2, 66, 62
5, 19385, Note_on_c, 2, 74, 0
5, 19401, Note_on_c, 2, 74, 86
5, 19404, Note_on_c, 2, 66, 0
5, 19431, Note_on_c, 2, 74, 0
5, 19432, Note_on_c, 2, 69, 0
5, 19438, Note_on_c, 2, 73, 113
5, 19438, Note_on_c, 2, 64, 98
5, 19439, Note_on_c, 2, 69, 89
5, 19489, Note_on_c, 2, 73, 0
5, 19492, Note_on_c, 2, 69, 0
5, 19497, Note_on_c, 2, 71, 105
5, 19602, Note_on_c, 2, 64, 0
5, 19602, Note_on_c, 2, 71, 0
5, 19619, Note_on_c, 2, 69, 101
5, 19620, Note_on_c, 2, 64, 100
5, 19621, Note_on_c, 2, 61, 114
5, 19862, Note_on_c, 2, 61, 0
5, 19865, Note_on_c, 2, 64, 0
5, 19876, Note_on_c, 2, 69, 0
5, 19917, Note_on_c, 2, 64, 96
5, 19917, Note_on_c, 2, 73, 88
5, 19918, Note_on_c, 2, 69, 89
5, 19937, Note_on_c, 2, 73, 0
5, 19944, Note_on_c, 2, 64, 0
5, 19944, Note_on_c, 2, 69, 0
5, 19980, Note_on_c, 2, 64, 100
5, 19980, Note_on_c, 2, 69, 100
5, 19981, Note_on_c, 2, 73, 111
5, 20055, Note_on_c, 2, 73, 0
5, 20059, Note_on_c, 2, 69, 0
5, 20087, Note_on_c, 2, 64, 0
5, 20097, Note_on_c, 2, 64, 98
5, 20098, Note_on_c, 2, 71, 107
5, 20099, Note_on_c, 2, 68, 98
5, 20762, Note_on_c, 2, 74, 100
5, 20814, Note_on_c, 2, 68, 0
5, 20850, Note_on_c, 2, 64, 0
5, 20864, Note_on_c, 2, 71, 0
5, 20934, Note_on_c, 2, 74, 0
5, 20940, Note_on_c, 2, 69, 103
5, 21128, Note_on_c, 2, 69, 0
5, 21359, Note_on_c, 2, 76, 111
5, 21376, Note_on_c, 2, 104, 16
5, 21376, Note_on_c, 2, 105, 16
5, 21386, Note_on_c, 2, 104, 0
5, 21386, Note_on_c, 2, 105, 0
5, 21855, Note_on_c, 2, 76, 0
5, 21869, Note_on_c, 2, 69, 88
5, 21901, Note_on_c, 2, 71, 82
5, 21906, Note_on_c, 2, 69, 0
5, 21928, Note_on_c, 2, 73, 83
5, 21933, Note_on_c, 2, 71, 0
5, 21961, Note_on_c, 2, 71, 100
5, 21966, Note_on_c, 2, 73, 0
5, 22019, Note_on_c, 2, 71, 0
5, 22019, Note_on_c, 2, 69, 101
5, 22404, Note_on_c, 2, 61, 77
5, 22412, Note_on_c, 2, 69, 0
5, 22437, Note_on_c, 2, 61, 0
5, 22437, Note_on_c, 2, 64, 82
5, 22461, Note_on_c, 2, 69, 98
5, 22463, Note_on_c, 2, 64, 0
5, 22488, Note_on_c, 2, 69, 0
5, 22495, Note_on_c, 2, 69, 94
5, 22896, Note_on_c, 2, 69, 0
5, 22977, Note_on_c, 2, 74, 109
5, 22978, Note_on_c, 2, 66, 116
5, 22978, Note_on_c, 2, 69, 92
5, 23187, Note_on_c, 2, 66, 0
5, 23216, Note_on_c, 2, 66, 62
5, 23225, Note_on_c, 2, 74, 0
5, 23241, Note_on_c, 2, 74, 86
5, 23244, Note_on_c, 2, 66, 0
5, 23271, Note_on_c, 2, 74, 0
5, 23272, Note_on_c, 2, 69, 0
5, 23278, Note_on_c, 2, 73, 113
5, 23278, Note_on_c, 2, 64, 98
5, 23279, Note_on_c, 2, 69, 89
5, 23329, Note_on_c, 2, 73, 0
5, 23332, Note_on_c, 2, 69, 0
5, 23337, Note_on_c, 2, 71, 105
5, 23442, Note_on_c, 2, 64, 0
5, 23442, Note_on_c, 2, 71, 0
5, 23459, Note_on_c, 2, 69, 101
5, 23460, Note_on_c, 2, 64, 100
5, 23461, Note_on_c, 2, 61, 114
5, 23702, Note_on_c, 2, 61, 0
5, 23705, Note_on_c, 2, 64, 0
5, 23716, Note_on_c, 2, 69, 0
5, 23757, Note_on_c, 2, 64, 96
5, 23757, Note_on_c, 2, 73, 88
5, 23758, Note_on_c, 2, 69, 89
5, 23777, Note_on_c, 2, 73, 0
5, 23784, Note_on_c, 2, 64, 0
5, 23784, Note_on_c, 2, 69, 0
5, 23820, Note_on_c, 2, 64, 100
5, 23820, Note_on_c, 2, 69, 100
5, 23821, Note_on_c, 2, 73, 111
5, 23895, Note_on_c, 2, 73, 0
5, 23899, Note_on_c, 2, 69, 0
5, 23927, Note_on_c, 2, 64, 0
5, 23937, Note_on_c, 2, 64, 98
5, 23938, Note_on_c, 2, 71, 107
5, 23939, Note_on_c, 2, 68, 98
5, 24603, Note_on_c, 2, 64, 56
5, 24654, Note_on_c, 2, 68, 0
5, 24690, Note_on_c, 2, 64, 0
5, 24704, Note_on_c, 2, 71, 0
5, 24733, Note_on_c, 2, 57, 49
5, 24856, Note_on_c, 2, 59, 74
5, 24875, Note_on_c, 2, 57, 0
5, 24926, Note_on_c, 2, 64, 0
5, 24989, Note_on_c, 2, 59, 0
5, 24992, Note_on_c, 2, 61, 63
5, 24993, Note_on_c, 2, 57, 42
5, 24993, Note_on_c, 2, 64, 45
5, 25363, Note_on_c, 2, 64, 0
5, 25368, Note_on_c, 2, 61, 0
5, 25480, Note_on_c, 2, 57, 0
5, 25491, Note_on_c, 2, 66, 59
5, 25493, Note_on_c, 2, 62, 60
5, 25494, Note_on_c, 2, 57, 19
5, 25786, Note_on_c, 2, 62, 0
5, 25802, Note_on_c, 2, 64, 32
5, 25948, Note_on_c, 2, 64, 0
5, 25968, Note_on_c, 2, 64, 56
5, 26055, Note_on_c, 2, 57, 0
5, 26086, Note_on_c, 2, 66, 0
5, 26315, Note_on_c, 2, 64, 0
5, 26316, Note_on_c, 2, 66, 48
5, 26318, Note_on_c, 2, 70, 42
5, 26493, Note_on_c, 2, 61, 20
5, 27438, Note_on_c, 2, 61, 0
5, 27439, Note_on_c, 2, 70, 0
5, 27442, Note_on_c, 2, 66, 0
5, 27442, End_track
6, 0, Start_track
6, 0, MIDI_port, 0
6, 0, Title_t, "pad"
6, 0, Program_c, 3, 93
6, 1084, Note_on_c, 3, 68, 77
6, 1208, Note_on_c, 3, 68, 0
6, 1221, Note_on_c, 3, 70, 92
6, 1240, Note_on_c, 3, 70, 0
6, 1254, Note_on_c, 3, 72, 83
6, 1266, Note_on_c, 3, 72, 0
6, 1280, Note_on_c, 3, 73, 90
6, 1294, Note_on_c, 3, 73, 0
6, 1314, Note_on_c, 3, 75, 81
6, 1425, Note_on_c, 3, 75, 0
6, 1449, Note_on_c, 3, 75, 76
6, 1458, Note_on_c, 3, 75, 0
6, 1486, Note_on_c, 3, 77, 53
6, 1494, Note_on_c, 3, 77, 0
6, 1553, Note_on_c, 3, 80, 62
6, 2050, Note_on_c, 3, 80, 0
6, 3597, Note_on_c, 3, 61, 98
6, 3619, Note_on_c, 3, 61, 0
6, 3690, Note_on_c, 3, 61, 94
6, 3718, Note_on_c, 3, 63, 98
6, 3726, Note_on_c, 3, 61, 0
6, 3737, Note_on_c, 3, 63, 0
6, 3776, Note_on_c, 3, 56, 83
6, 4206, Note_on_c, 3, 56, 0
6, 4617, Note_on_c, 3, 61, 82
6, 4648, Note_on_c, 3, 63, 73
6, 4651, Note_on_c, 3, 61, 0
6, 4666, Note_on_c, 3, 63, 0
6, 4678, Note_on_c, 3, 65, 86
6, 4701, Note_on_c, 3, 65, 0
6, 4737, Note_on_c, 3, 68, 81
6, 5660, Note_on_c, 3, 68, 0
6, 9629, Note_on_c, 3, 80, 111
6, 9647, Note_on_c, 3, 80, 0
6, 9719, Note_on_c, 3, 80, 113
6, 9762, Note_on_c, 3, 80, 0
6, 9803, Note_on_c, 3, 80, 109
6, 9828, Note_on_c, 3, 80, 0
6, 9899, Note_on_c, 3, 80, 116
6, 9923, Note_on_c, 3, 80, 0
6, 10020, Note_on_c, 3, 85, 124
6, 10044, Note_on_c, 3, 85, 0
6, 10113, Note_on_c, 3, 85, 114
6, 10133, Note_on_c, 3, 85, 0
6, 10203, Note_on_c, 3, 80, 113
6, 10225, Note_on_c, 3, 80, 0
6, 10280, Note_on_c, 3, 80, 116
6, 10303, Note_on_c, 3, 80, 0
6, 10372, Note_on_c, 3, 80, 122
6, 10395, Note_on_c, 3, 80, 0
6, 10496, Note_on_c, 3, 80, 118
6, 10516, Note_on_c, 3, 80, 0
6, 10583, Note_on_c, 3, 80, 124
6, 10604, Note_on_c, 3, 80, 0
6, 10675, Note_on_c, 3, 80, 118
6, 10698, Note_on_c, 3, 80, 0
6, 10765, Note_on_c, 3, 80, 118
6, 10784, Note_on_c, 3, 80, 0
6, 10856, Note_on_c, 3, 80, 124
6, 10877, Note_on_c, 3, 80, 0
6, 10974, Note_on_c, 3, 80, 124
6, 10996, Note_on_c, 3, 80, 0
6, 11063, Note_on_c, 3, 80, 125
6, 11087, Note_on_c, 3, 80, 0
6, 11155, Note_on_c, 3, 80, 116
6, 11178, Note_on_c, 3, 80, 0
6, 11244, Note_on_c, 3, 80, 122
6, 11266, Note_on_c, 3, 80, 0
6, 11338, Note_on_c, 3, 80, 122
6, 11358, Note_on_c, 3, 80, 0
6, 11457, Note_on_c, 3, 73, 118
6, 11720, Note_on_c, 3, 73, 0
6, 11757, Note_on_c, 3, 72, 96
6, 11812, Note_on_c, 3, 72, 0
6, 11816, Note_on_c, 3, 70, 96
6, 11915, Note_on_c, 3, 70, 0
6, 11949, Note_on_c, 3, 68, 48
6, 11956, Note_on_c, 3, 68, 0
6, 12001, Note_on_c, 3, 73, 109
6, 12048, Note_on_c, 3, 73, 0
6, 12056, Note_on_c, 3, 72, 101
6, 12176, Note_on_c, 3, 70, 100
6, 12180, Note_on_c, 3, 72, 0
6, 12236, Note_on_c, 3, 70, 0
6, 12236, Note_on_c, 3, 68, 105
6, 12407, Note_on_c, 3, 68, 0
6, 12411, Note_on_c, 3, 70, 109
6, 13189, Note_on_c, 3, 70, 0
6, 13200, Note_on_c, 3, 76, 111
6, 13249, Note_on_c, 3, 76, 0
6, 13259, Note_on_c, 3, 76, 100
6, 13289, Note_on_c, 3, 76, 0
6, 13384, Note_on_c, 3, 81, 105
6, 13408, Note_on_c, 3, 81, 0
6, 17309, Note_on_c, 3, 81, 111
6, 17327, Note_on_c, 3, 81, 0
6, 17399, Note_on_c, 3, 81, 113
6, 17442, Note_on_c, 3, 81, 0
6, 17483, Note_on_c, 3, 81, 109
6, 17508, Note_on_c, 3, 81, 0
6, 17579, Note_on_c, 3, 81, 116
6, 17603, Note_on_c, 3, 81, 0
6, 17700, Note_on_c, 3, 86, 124
6, 17724, Note_on_c, 3, 86, 0
6, 17793, Note_on_c, 3, 86, 114
6, 17813, Note_on_c, 3, 86, 0
6, 17883, Note_on_c, 3, 81, 113
6, 17905, Note_on_c, 3, 81, 0
6, 17960, Note_on_c, 3, 81, 116
6, 17983, Note_on_c, 3, 81, 0
6, 18052, Note_on_c, 3, 81, 122
6, 18075, Note_on_c, 3, 81, 0
6, 18176, Note_on_c, 3, 81, 118
6, 18196, Note_on_c, 3, 81, 0
6, 18263, Note_on_c, 3, 81, 124
6, 18284, Note_on_c, 3, 81, 0
6, 18355, Note_on_c, 3, 81, 118
6, 18378, Note_on_c, 3, 81, 0
6, 18445, Note_on_c, 3, 81, 118
6, 18464, Note_on_c, 3, 81, 0
6, 18536, Note_on_c, 3, 81, 124
6, 18557, Note_on_c, 3, 81, 0
6, 18654, Note_on_c, 3, 81, 124
6, 18676, Note_on_c, 3, 81, 0
6, 18743, Note_on_c, 3, 81, 125
6, 18767, Note_on_c, 3, 81, 0
6, 18835, Note_on_c, 3, 81, 116
6, 18858, Note_on_c, 3, 81, 0
6, 18924, Note_on_c, 3, 81, 122
6, 18946, Note_on_c, 3, 81, 0
6, 19018, Note_on_c, 3, 81, 122
6, 19038, Note_on_c, 3, 81, 0
6, 19137, Note_on_c, 3, 74, 118
6, 19400, Note_on_c, 3, 74, 0
6, 19437, Note_on_c, 3, 73, 96
6, 19492, Note_on_c, 3, 73, 0
6, 19496, Note_on_c, 3, 71, 96
6, 19595, Note_on_c, 3, 71, 0
6, 19629, Note_on_c, 3, 69, 48
6, 19636, Note_on_c, 3, 69, 0
6, 19681, Note_on_c, 3, 74, 109
6, 19728, Note_on_c, 3, 74, 0
6, 19736, Note_on_c, 3, 73, 101
6, 19856, Note_on_c, 3, 71, 100
6, 19860, Note_on_c, 3, 73, 0
6, 19916, Note_on_c, 3, 71, 0
6, 19916, Note_on_c, 3, 69, 105
6, 20087, Note_on_c, 3, 69, 0
6, 20091, Note_on_c, 3, 71, 109
6, 20756, Note_on_c, 3, 71, 101
6, 20869, Note_on_c, 3, 71, 0
6, 21149, Note_on_c, 3, 81, 111
6, 21167, Note_on_c, 3, 81, 0
6, 21239, Note_on_c, 3, 81, 113
6, 21282, Note_on_c, 3, 81, 0
6, 21323, Note_on_c, 3, 81, 109
6, 21348, Note_on_c, 3, 81, 0
6, 21370, Note_on_c, 3, 71, 0
6, 21419, Note_on_c, 3, 81, 116
6, 21443, Note_on_c, 3, 81, 0
6, 21540, Note_on_c, 3, 86, 124
6, 21564, Note_on_c, 3, 86, 0
6, 21633, Note_on_c, 3, 86, 114
6, 21653, Note_on_c, 3, 86, 0
6, 21723, Note_on_c, 3, 81, 113
6, 21745, Note_on_c, 3, 81, 0
6, 21800, Note_on_c, 3, 81, 116
6, 21823, Note_on_c, 3, 81, 0
6, 21892, Note_on_c, 3, 81, 122
6, 21915, Note_on_c, 3, 81, 0
6, 22016, Note_on_c, 3, 81, 118
6, 22036, Note_on_c, 3, 81, 0
6, 22103, Note_on_c, 3, 81, 124
6, 22124, Note_on_c, 3, 81, 0
6, 22195, Note_on_c, 3, 81, 118
6, 22218, Note_on_c, 3, 81, 0
6, 22285, Note_on_c, 3, 81, 118
6, 22304, Note_on_c, 3, 81, 0
6, 22376, Note_on_c, 3, 81, 124
6, 22397, Note_on_c, 3, 81, 0
6, 22494, Note_on_c, 3, 81, 124
6, 22516, Note_on_c, 3, 81, 0
6, 22583, Note_on_c, 3, 81, 125
6, 22607, Note_on_c, 3, 81, 0
6, 22675, Note_on_c, 3, 81, 116
6, 22698, Note_on_c, 3, 81, 0
6, 22764, Note_on_c, 3, 81, 122
6, 22786, Note_on_c, 3, 81, 0
6, 22858, Note_on_c, 3, 81, 122
6, 22878, Note_on_c, 3, 81, 0
6, 22977, Note_on_c, 3, 74, 118
6, 23240, Note_on_c, 3, 74, 0
6, 23277, Note_on_c, 3, 73, 96
6, 23332, Note_on_c, 3, 73, 0
6, 23336, Note_on_c, 3, 71, 96
6, 23435, Note_on_c, 3, 71, 0
6, 23469, Note_on_c, 3, 69, 48
6, 23476, Note_on_c, 3, 69, 0
6, 23521, Note_on_c, 3, 74, 109
6, 23568, Note_on_c, 3, 74, 0
6, 23576, Note_on_c, 3, 73, 101
6, 23696, Note_on_c, 3, 71, 100
6, 23700, Note_on_c, 3, 73, 0
6, 23756, Note_on_c, 3, 71, 0
6, 23756, Note_on_c, 3, 69, 105
6, 23927, Note_on_c, 3, 69, 0
6, 23931, Note_on_c, 3, 71, 109
6, 24709, Note_on_c, 3, 71, 0
6, 24709, End_track
7, 0, Start_track
7, 0, MIDI_port, 0
7, 0, Title_t, "strings"
7, 0, Program_c, 4, 48
7, 837, Note_on_c, 4, 68, 57
7, 1631, Note_on_c, 4, 68, 0
7, 1677, Note_on_c, 4, 49, 101
7, 1680, Note_on_c, 4, 37, 101
7, 1703, Note_on_c, 4, 49, 0
7, 1703, Note_on_c, 4, 37, 0
7, 1740, Note_on_c, 4, 51, 109
7, 1742, Note_on_c, 4, 39, 109
7, 1762, Note_on_c, 4, 39, 0
7, 1764, Note_on_c, 4, 51, 0
7, 1799, Note_on_c, 4, 44, 92
7, 1801, Note_on_c, 4, 56, 111
7, 1818, Note_on_c, 4, 56, 0
7, 1820, Note_on_c, 4, 44, 0
7, 1860, Note_on_c, 4, 32, 86
7, 1862, Note_on_c, 4, 44, 120
7, 2326, Note_on_c, 4, 32, 0
7, 2332, Note_on_c, 4, 44, 0
7, 2335, Note_on_c, 4, 34, 83
7, 2340, Note_on_c, 4, 46, 67
7, 2622, Note_on_c, 4, 46, 0
7, 2624, Note_on_c, 4, 34, 0
7, 2637, Note_on_c, 4, 49, 113
7, 2638, Note_on_c, 4, 37, 109
7, 2659, Note_on_c, 4, 49, 0
7, 2659, Note_on_c, 4, 37, 0
7, 2697, Note_on_c, 4, 51, 113
7, 2698, Note_on_c, 4, 39, 113
7, 2720, Note_on_c, 4, 39, 0
7, 2722, Note_on_c, 4, 51, 0
7, 2757, Note_on_c, 4, 44, 85
7, 2757, Note_on_c, 4, 56, 116
7, 2772, Note_on_c, 4, 56, 0
7, 2776, Note_on_c, 4, 44, 0
7, 2814, Note_on_c, 4, 44, 109
7, 2816, Note_on_c, 4, 32, 98
7, 3281, Note_on_c, 4, 44, 0
7, 3281, Note_on_c, 4, 32, 0
7, 3295, Note_on_c, 4, 34, 94
7, 3295, Note_on_c, 4, 46, 89
7, 3579, Note_on_c, 4, 46, 0
7, 3580, Note_on_c, 4, 34, 0
7, 3595, Note_on_c, 4, 49, 118
7, 3596, Note_on_c, 4, 37, 116
7, 3617, Note_on_c, 4, 49, 0
7, 3619, Note_on_c, 4, 37, 0
7, 3685, Note_on_c, 4, 37, 100
7, 3686, Note_on_c, 4, 49, 122
7, 3705, Note_on_c, 4, 37, 0
7, 3709, Note_on_c, 4, 49, 0
7, 3716, Note_on_c, 4, 51, 98
7, 3718, Note_on_c, 4, 39, 77
7, 3719, Note_on_c, 4, 49, 45
7, 3726, Note_on_c, 4, 49, 0
7, 3747, Note_on_c, 4, 51, 0
7, 3748, Note_on_c, 4, 39, 0
7, 3778, Note_on_c, 4, 44, 109
7, 3779, Note_on_c, 4, 32, 98
7, 4240, Note_on_c, 4, 32, 0
7, 4241, Note_on_c, 4, 44, 0
7, 4257, Note_on_c, 4, 46, 96
7, 4258, Note_on_c, 4, 34, 94
7, 4726, Note_on_c, 4, 46, 0
7, 4735, Note_on_c, 4, 34, 0
7, 4737, Note_on_c, 4, 51, 100
7, 4737, Note_on_c, 4, 39, 96
7, 5040, Note_on_c, 4, 56, 94
7, 5208, Note_on_c, 4, 56, 0
7, 5216, Note_on_c, 4, 56, 89
7, 5217, Note_on_c, 4, 32, 92
7, 5219, Note_on_c, 4, 51, 0
7, 5219, Note_on_c, 4, 39, 0
7, 5627, Note_on_c, 4, 32, 0
7, 5653, Note_on_c, 4, 56, 0
7, 5702, Note_on_c, 4, 68, 113
7, 5703, Note_on_c, 4, 56, 94
7, 5716, Note_on_c, 4, 56, 0
7, 8314, Note_on_c, 4, 68, 0
7, 8334, Note_on_c, 4, 73, 105
7, 8335, Note_on_c, 4, 85, 100
7, 8357, Note_on_c, 4, 73, 0
7, 8359, Note_on_c, 4, 85, 0
7, 8361, Note_on_c, 4, 84, 88
7, 8367, Note_on_c, 4, 72, 101
7, 8389, Note_on_c, 4, 72, 0
7, 8393, Note_on_c, 4, 82, 111
7, 8394, Note_on_c, 4, 70, 107
7, 8398, Note_on_c, 4, 84, 0
7, 8406, Note_on_c, 4, 82, 0
7, 8412, Note_on_c, 4, 70, 0
7, 8454, Note_on_c, 4, 80, 109
7, 8471, Note_on_c, 4, 80, 0
7, 8518, Note_on_c, 4, 68, 109
7, 8518, Note_on_c, 4, 78, 96
7, 8535, Note_on_c, 4, 78, 0
7, 8536, Note_on_c, 4, 68, 0
7, 8577, Note_on_c, 4, 82, 120
7, 8578, Note_on_c, 4, 70, 124
7, 8802, Note_on_c, 4, 82, 0
7, 8816, Note_on_c, 4, 82, 96
7, 8833, Note_on_c, 4, 82, 0
7, 8839, Note_on_c, 4, 85, 101
7, 8843, Note_on_c, 4, 84, 98
7, 8844, Note_on_c, 4, 85, 0
7, 8856, Note_on_c, 4, 84, 0
7, 8873, Note_on_c, 4, 84, 81
7, 8879, Note_on_c, 4, 84, 0
7, 8899, Note_on_c, 4, 87, 105
7, 8914, Note_on_c, 4, 87, 0
7, 8930, Note_on_c, 4, 89, 101
7, 8944, Note_on_c, 4, 89, 0
7, 8958, Note_on_c, 4, 92, 109
7, 8970, Note_on_c, 4, 92, 0
7, 8992, Note_on_c, 4, 94, 118
7, 9045, Note_on_c, 4, 94, 0
7, 9054, Note_on_c, 4, 92, 109
7, 9453, Note_on_c, 4, 92, 0
7, 9456, Note_on_c, 4, 70, 0
7, 9536, Note_on_c, 4, 68, 98
7, 11454, Note_on_c, 4, 70, 89
7, 11464, Note_on_c, 4, 68, 0
7, 11934, Note_on_c, 4, 68, 88
7, 11936, Note_on_c, 4, 70, 0
7, 12411, Note_on_c, 4, 68, 0
7, 12412, Note_on_c, 4, 73, 89
7, 12645, Note_on_c, 4, 75, 84
7, 12652, Note_on_c, 4, 73, 0
7, 13187, Note_on_c, 4, 75, 0
7, 13198, Note_on_c, 4, 76, 114
7, 13248, Note_on_c, 4, 76, 0
7, 13260, Note_on_c, 4, 76, 114
7, 13289, Note_on_c, 4, 76, 0
7, 13379, Note_on_c, 4, 81, 120
7, 13402, Note_on_c, 4, 81, 0
7, 14336, Note_on_c, 4, 69, 100
7, 14818, Note_on_c, 4, 69, 0
7, 14818, Note_on_c, 4, 71, 90
7, 15293, Note_on_c, 4, 71, 0
7, 15295, Note_on_c, 4, 69, 90
7, 15771, Note_on_c, 4, 69, 0
7, 15776, Note_on_c, 4, 71, 105
7, 16007, Note_on_c, 4, 71, 0
7, 16014, Note_on_c, 4, 74, 105
7, 16015, Note_on_c, 4, 86, 100
7, 16037, Note_on_c, 4, 74, 0
7, 16039, Note_on_c, 4, 86, 0
7, 16041, Note_on_c, 4, 85, 88
7, 16047, Note_on_c, 4, 73, 101
7, 16069, Note_on_c, 4, 73, 0
7, 16073, Note_on_c, 4, 83, 111
7, 16074, Note_on_c, 4, 71, 107
7, 16078, Note_on_c, 4, 85, 0
7, 16086, Note_on_c, 4, 83, 0
7, 16092, Note_on_c, 4, 71, 0
7, 16134, Note_on_c, 4, 81, 109
7, 16151, Note_on_c, 4, 81, 0
7, 16198, Note_on_c, 4, 69, 109
7, 16198, Note_on_c, 4, 79, 96
7, 16215, Note_on_c, 4, 79, 0
7, 16216, Note_on_c, 4, 69, 0
7, 16257, Note_on_c, 4, 83, 120
7, 16258, Note_on_c, 4, 71, 124
7, 16482, Note_on_c, 4, 83, 0
7, 16496, Note_on_c, 4, 83, 96
7, 16513, Note_on_c, 4, 83, 0
7, 16519, Note_on_c, 4, 86, 101
7, 16523, Note_on_c, 4, 85, 98
7, 16524, Note_on_c, 4, 86, 0
7, 16536, Note_on_c, 4, 85, 0
7, 16553, Note_on_c, 4, 85, 81
7, 16559, Note_on_c, 4, 85, 0
7, 16579, Note_on_c, 4, 88, 105
7, 16594, Note_on_c, 4, 88, 0
7, 16610, Note_on_c, 4, 90, 101
7, 16624, Note_on_c, 4, 90, 0
7, 16638, Note_on_c, 4, 93, 109
7, 16650, Note_on_c, 4, 93, 0
7, 16672, Note_on_c, 4, 95, 118
7, 16725, Note_on_c, 4, 95, 0
7, 16734, Note_on_c, 4, 93, 109
7, 17133, Note_on_c, 4, 93, 0
7, 17136, Note_on_c, 4, 71, 0
7, 19134, Note_on_c, 4, 71, 89
7, 19614, Note_on_c, 4, 69, 88
7, 19616, Note_on_c, 4, 71, 0
7, 20091, Note_on_c, 4, 69, 0
7, 20092, Note_on_c, 4, 74, 89
7, 20325, Note_on_c, 4, 76, 84
7, 20332, Note_on_c, 4, 74, 0
7, 20867, Note_on_c, 4, 76, 0
7, 22974, Note_on_c, 4, 71, 89
7, 23454, Note_on_c, 4, 69, 88
7, 23456, Note_on_c, 4, 71, 0
7, 23931, Note_on_c, 4, 69, 0
7, 23932, Note_on_c, 4, 74, 89
7, 24165, Note_on_c, 4, 76, 84
7, 24172, Note_on_c, 4, 74, 0
7, 24707, Note_on_c, 4, 76, 0
7, 24986, Note_on_c, 4, 45, 46
7, 25226, Note_on_c, 4, 57, 47
7, 25323, Note_on_c, 4, 45, 0
7, 25641, Note_on_c, 4, 62, 25
7, 25775, Note_on_c, 4, 64, 49
7, 25785, Note_on_c, 4, 62, 0
7, 26330, Note_on_c, 4, 66, 47
7, 26335, Note_on_c, 4, 57, 0
7, 26344, Note_on_c, 4, 54, 47
7, 26353, Note_on_c, 4, 64, 0
7, 26592, Note_on_c, 4, 78, 16
7, 26836, Note_on_c, 4, 73, 33
7, 27470, Note_on_c, 4, 66, 0
7, 27471, Note_on_c, 4, 73, 0
7, 27472, Note_on_c, 4, 54, 0
7, 27472, Note_on_c, 4, 78, 0
7, 27472, End_track
8, 0, Start_track
8, 0, MIDI_port, 0
8, 0, Title_t, "solo"
8, 0, Program_c, 5, 56
8, 2042, Note_on_c, 5, 70, 85
8, 2047, Note_on_c, 5, 72, 77
8, 2057, Note_on_c, 5, 70, 0
8, 2131, Note_on_c, 5, 70, 83
8, 2137, Note_on_c, 5, 72, 0
8, 2161, Note_on_c, 5, 70, 0
8, 2190, Note_on_c, 5, 68, 63
8, 2205, Note_on_c, 5, 68, 0
8, 2222, Note_on_c, 5, 68, 59
8, 2349, Note_on_c, 5, 68, 0
8, 2367, Note_on_c, 5, 68, 75
8, 2390, Note_on_c, 5, 68, 0
8, 2396, Note_on_c, 5, 65, 61
8, 2423, Note_on_c, 5, 65, 0
8, 2458, Note_on_c, 5, 68, 75
8, 2479, Note_on_c, 5, 68, 0
8, 2516, Note_on_c, 5, 68, 85
8, 2544, Note_on_c, 5, 68, 0
8, 2548, Note_on_c, 5, 65, 83
8, 2574, Note_on_c, 5, 65, 0
8, 2577, Note_on_c, 5, 68, 82
8, 2585, Note_on_c, 5, 70, 89
8, 2600, Note_on_c, 5, 68, 0
8, 2704, Note_on_c, 5, 70, 0
8, 2994, Note_on_c, 5, 72, 82
8, 3021, Note_on_c, 5, 75, 74
8, 3023, Note_on_c, 5, 72, 0
8, 3039, Note_on_c, 5, 75, 0
8, 3056, Note_on_c, 5, 75, 80
8, 3063, Note_on_c, 5, 77, 60
8, 3073, Note_on_c, 5, 75, 0
8, 3149, Note_on_c, 5, 75, 70
8, 3151, Note_on_c, 5, 77, 0
8, 3162, Note_on_c, 5, 75, 0
8, 3178, Note_on_c, 5, 75, 69
8, 3269, Note_on_c, 5, 75, 0
8, 3275, Note_on_c, 5, 72, 84
8, 3290, Note_on_c, 5, 72, 0
8, 3302, Note_on_c, 5, 75, 105
8, 3306, Note_on_c, 5, 77, 65
8, 3319, Note_on_c, 5, 75, 0
8, 3445, Note_on_c, 5, 75, 67
8, 3467, Note_on_c, 5, 77, 0
8, 3480, Note_on_c, 5, 75, 0
8, 3480, Note_on_c, 5, 72, 74
8, 3503, Note_on_c, 5, 72, 0
8, 3510, Note_on_c, 5, 68, 75
8, 3538, Note_on_c, 5, 70, 67
8, 3561, Note_on_c, 5, 68, 0
8, 3686, Note_on_c, 5, 68, 82
8, 3699, Note_on_c, 5, 70, 0
8, 3703, Note_on_c, 5, 65, 88
8, 3704, Note_on_c, 5, 68, 0
8, 3721, Note_on_c, 5, 63, 96
8, 3725, Note_on_c, 5, 65, 0
8, 3729, Note_on_c, 5, 63, 0
8, 3904, Note_on_c, 5, 72, 74
8, 3919, Note_on_c, 5, 72, 0
8, 3932, Note_on_c, 5, 72, 66
8, 3947, Note_on_c, 5, 72, 0
8, 3962, Note_on_c, 5, 72, 85
8, 3991, Note_on_c, 5, 72, 0
8, 4016, Note_on_c, 5, 72, 71
8, 4047, Note_on_c, 5, 72, 0
8, 4047, Note_on_c, 5, 70, 64
8, 4086, Note_on_c, 5, 70, 0
8, 4104, Note_on_c, 5, 68, 72
8, 4125, Note_on_c, 5, 68, 0
8, 4266, Note_on_c, 5, 65, 85
8, 4382, Note_on_c, 5, 65, 0
8, 4388, Note_on_c, 5, 68, 39
8, 4396, Note_on_c, 5, 68, 0
8, 4440, Note_on_c, 5, 68, 89
8, 4464, Note_on_c, 5, 68, 0
8, 4468, Note_on_c, 5, 65, 64
8, 4491, Note_on_c, 5, 65, 0
8, 4496, Note_on_c, 5, 68, 81
8, 4505, Note_on_c, 5, 70, 83
8, 4516, Note_on_c, 5, 68, 0
8, 4575, Note_on_c, 5, 70, 0
8, 4861, Note_on_c, 5, 68, 88
8, 4866, Note_on_c, 5, 70, 66
8, 4881, Note_on_c, 5, 68, 0
8, 4929, Note_on_c, 5, 70, 0
8, 4976, Note_on_c, 5, 63, 73
8, 5073, Note_on_c, 5, 63, 0
8, 5093, Note_on_c, 5, 65, 85
8, 5143, Note_on_c, 5, 65, 0
8, 5153, Note_on_c, 5, 68, 76
8, 5159, Note_on_c, 5, 70, 84
8, 5168, Note_on_c, 5, 68, 0
8, 5211, Note_on_c, 5, 70, 0
8, 5215, Note_on_c, 5, 68, 62
8, 5638, Note_on_c, 5, 68, 0
8, 5872, Note_on_c, 5, 70, 86
8, 5877, Note_on_c, 5, 72, 85
8, 5891, Note_on_c, 5, 70, 0
8, 5967, Note_on_c, 5, 70, 88
8, 5970, Note_on_c, 5, 72, 0
8, 5983, Note_on_c, 5, 70, 0
8, 6026, Note_on_c, 5, 68, 82
8, 6040, Note_on_c, 5, 68, 0
8, 6056, Note_on_c, 5, 68, 85
8, 6078, Note_on_c, 5, 68, 0
8, 6209, Note_on_c, 5, 68, 74
8, 6229, Note_on_c, 5, 68, 0
8, 6238, Note_on_c, 5, 65, 85
8, 6286, Note_on_c, 5, 65, 0
8, 6302, Note_on_c, 5, 68, 86
8, 6320, Note_on_c, 5, 68, 0
8, 6362, Note_on_c, 5, 68, 81
8, 6386, Note_on_c, 5, 68, 0
8, 6391, Note_on_c, 5, 65, 75
8, 6411, Note_on_c, 5, 65, 0
8, 6419, Note_on_c, 5, 68, 85
8, 6425, Note_on_c, 5, 70, 76
8, 6437, Note_on_c, 5, 68, 0
8, 6476, Note_on_c, 5, 70, 0
8, 6836, Note_on_c, 5, 72, 94
8, 6862, Note_on_c, 5, 75, 89
8, 6863, Note_on_c, 5, 72, 0
8, 6879, Note_on_c, 5, 75, 0
8, 6896, Note_on_c, 5, 75, 94
8, 6900, Note_on_c, 5, 77, 77
8, 6913, Note_on_c, 5, 75, 0
8, 6981, Note_on_c, 5, 77, 0
8, 6984, Note_on_c, 5, 75, 78
8, 6994, Note_on_c, 5, 75, 0
8, 7019, Note_on_c, 5, 75, 77
8, 7083, Note_on_c, 5, 75, 0
8, 7114, Note_on_c, 5, 72, 73
8, 7122, Note_on_c, 5, 72, 0
8, 7143, Note_on_c, 5, 75, 86
8, 7147, Note_on_c, 5, 77, 83
8, 7158, Note_on_c, 5, 75, 0
8, 7280, Note_on_c, 5, 75, 73
8, 7289, Note_on_c, 5, 77, 0
8, 7309, Note_on_c, 5, 75, 0
8, 7310, Note_on_c, 5, 72, 70
8, 7339, Note_on_c, 5, 72, 0
8, 7342, Note_on_c, 5, 68, 85
8, 7356, Note_on_c, 5, 68, 0
8, 7371, Note_on_c, 5, 68, 83
8, 7377, Note_on_c, 5, 70, 77
8, 7390, Note_on_c, 5, 68, 0
8, 7454, Note_on_c, 5, 68, 77
8, 7466, Note_on_c, 5, 70, 0
8, 7470, Note_on_c, 5, 65, 77
8, 7472, Note_on_c, 5, 68, 0
8, 7487, Note_on_c, 5, 65, 0
8, 7488, Note_on_c, 5, 63, 90
8, 7496, Note_on_c, 5, 63, 0
8, 7697, Note_on_c, 5, 70, 94
8, 7704, Note_on_c, 5, 72, 77
8, 7717, Note_on_c, 5, 70, 0
8, 7767, Note_on_c, 5, 72, 0
8, 7769, Note_on_c, 5, 70, 81
8, 7785, Note_on_c, 5, 70, 0
8, 7794, Note_on_c, 5, 70, 82
8, 7798, Note_on_c, 5, 72, 86
8, 7809, Note_on_c, 5, 70, 0
8, 7831, Note_on_c, 5, 70, 72
8, 7835, Note_on_c, 5, 72, 0
8, 7856, Note_on_c, 5, 68, 76
8, 7858, Note_on_c, 5, 70, 0
8, 7873, Note_on_c, 5, 68, 0
8, 7888, Note_on_c, 5, 65, 86
8, 7903, Note_on_c, 5, 65, 0
8, 7916, Note_on_c, 5, 68, 94
8, 7923, Note_on_c, 5, 70, 67
8, 7935, Note_on_c, 5, 68, 0
8, 7980, Note_on_c, 5, 68, 86
8, 7993, Note_on_c, 5, 70, 0
8, 8018, Note_on_c, 5, 68, 0
8, 8041, Note_on_c, 5, 68, 89
8, 8061, Note_on_c, 5, 68, 0
8, 8067, Note_on_c, 5, 65, 85
8, 8081, Note_on_c, 5, 65, 0
8, 8101, Note_on_c, 5, 65, 101
8, 8230, Note_on_c, 5, 65, 0
8, 8243, Note_on_c, 5, 68, 92
8, 8256, Note_on_c, 5, 68, 0
8, 8272, Note_on_c, 5, 68, 90
8, 8295, Note_on_c, 5, 68, 0
8, 8302, Note_on_c, 5, 65, 75
8, 8323, Note_on_c, 5, 65, 0
8, 8333, Note_on_c, 5, 68, 83
8, 8339, Note_on_c, 5, 70, 80
8, 8354, Note_on_c, 5, 68, 0
8, 8447, Note_on_c, 5, 70, 0
8, 8698, Note_on_c, 5, 68, 94
8, 8704, Note_on_c, 5, 70, 86
8, 8724, Note_on_c, 5, 68, 0
8, 8766, Note_on_c, 5, 70, 0
8, 8820, Note_on_c, 5, 63, 83
8, 8907, Note_on_c, 5, 63, 0
8, 8936, Note_on_c, 5, 65, 83
8, 8981, Note_on_c, 5, 65, 0
8, 8997, Note_on_c, 5, 68, 89
8, 9002, Note_on_c, 5, 70, 83
8, 9014, Note_on_c, 5, 68, 0
8, 9053, Note_on_c, 5, 70, 0
8, 9053, Note_on_c, 5, 68, 81
8, 9211, Note_on_c, 5, 68, 0
8, 9236, Note_on_c, 5, 72, 85
8, 9290, Note_on_c, 5, 72, 0
8, 9299, Note_on_c, 5, 72, 85
8, 9358, Note_on_c, 5, 72, 0
8, 9366, Note_on_c, 5, 73, 78
8, 9408, Note_on_c, 5, 73, 0
8, 9424, Note_on_c, 5, 75, 98
8, 9444, Note_on_c, 5, 75, 0
8, 9540, Note_on_c, 5, 75, 83
8, 9544, Note_on_c, 5, 77, 83
8, 9556, Note_on_c, 5, 75, 0
8, 9836, Note_on_c, 5, 75, 96
8, 9840, Note_on_c, 5, 77, 0
8, 9889, Note_on_c, 5, 75, 0
8, 9894, Note_on_c, 5, 73, 88
8, 10008, Note_on_c, 5, 73, 0
8, 10017, Note_on_c, 5, 72, 96
8, 10050, Note_on_c, 5, 70, 85
8, 10051, Note_on_c, 5, 72, 0
8, 10074, Note_on_c, 5, 68, 90
8, 10079, Note_on_c, 5, 70, 0
8, 10180, Note_on_c, 5, 68, 0
8, 10205, Note_on_c, 5, 72, 109
8, 10246, Note_on_c, 5, 72, 0
8, 10260, Note_on_c, 5, 72, 103
8, 10309, Note_on_c, 5, 72, 0
8, 10318, Note_on_c, 5, 73, 98
8, 10369, Note_on_c, 5, 73, 0
8, 10381, Note_on_c, 5, 75, 113
8, 10402, Note_on_c, 5, 75, 0
8, 10501, Note_on_c, 5, 75, 101
8, 10503, Note_on_c, 5, 77, 100
8, 10516, Note_on_c, 5, 75, 0
8, 10796, Note_on_c, 5, 75, 105
8, 10801, Note_on_c, 5, 77, 0
8, 10848, Note_on_c, 5, 75, 0
8, 10854, Note_on_c, 5, 73, 88
8, 10968, Note_on_c, 5, 73, 0
8, 10975, Note_on_c, 5, 72, 88
8, 11007, Note_on_c, 5, 70, 78
8, 11008, Note_on_c, 5, 72, 0
8, 11036, Note_on_c, 5, 68, 88
8, 11042, Note_on_c, 5, 70, 0
8, 11071, Note_on_c, 5, 68, 0
8, 11159, Note_on_c, 5, 68, 100
8, 11210, Note_on_c, 5, 68, 0
8, 11218, Note_on_c, 5, 68, 94
8, 11279, Note_on_c, 5, 70, 101
8, 11284, Note_on_c, 5, 68, 0
8, 11335, Note_on_c, 5, 70, 0
8, 11339, Note_on_c, 5, 72, 120
8, 11362, Note_on_c, 5, 72, 0
8, 11457, Note_on_c, 5, 73, 109
8, 11755, Note_on_c, 5, 72, 113
8, 11757, Note_on_c, 5, 73, 0
8, 11817, Note_on_c, 5, 70, 109
8, 11824, Note_on_c, 5, 72, 0
8, 11938, Note_on_c, 5, 68, 105
8, 11940, Note_on_c, 5, 70, 0
8, 12235, Note_on_c, 5, 70, 94
8, 12241, Note_on_c, 5, 68, 0
8, 12241, Note_on_c, 5, 72, 84
8, 12254, Note_on_c, 5, 70, 0
8, 12282, Note_on_c, 5, 72, 0
8, 12295, Note_on_c, 5, 70, 109
8, 12300, Note_on_c, 5, 72, 82
8, 12316, Note_on_c, 5, 70, 0
8, 12408, Note_on_c, 5, 72, 0
8, 12418, Note_on_c, 5, 70, 100
8, 12423, Note_on_c, 5, 72, 89
8, 12439, Note_on_c, 5, 70, 0
8, 12483, Note_on_c, 5, 72, 0
8, 13560, Note_on_c, 5, 73, 103
8, 13608, Note_on_c, 5, 73, 0
8, 13616, Note_on_c, 5, 73, 71
8, 13643, Note_on_c, 5, 73, 0
8, 13648, Note_on_c, 5, 71, 96
8, 13676, Note_on_c, 5, 71, 0
8, 13709, Note_on_c, 5, 71, 86
8, 13725, Note_on_c, 5, 71, 0
8, 13735, Note_on_c, 5, 69, 90
8, 13767, Note_on_c, 5, 69, 0
8, 13882, Note_on_c, 5, 69, 92
8, 13904, Note_on_c, 5, 69, 0
8, 13916, Note_on_c, 5, 66, 98
8, 13945, Note_on_c, 5, 66, 0
8, 13977, Note_on_c, 5, 69, 103
8, 13999, Note_on_c, 5, 69, 0
8, 14034, Note_on_c, 5, 69, 107
8, 14064, Note_on_c, 5, 66, 101
8, 14074, Note_on_c, 5, 69, 0
8, 14079, Note_on_c, 5, 66, 0
8, 14097, Note_on_c, 5, 69, 107
8, 14101, Note_on_c, 5, 71, 92
8, 14113, Note_on_c, 5, 69, 0
8, 14172, Note_on_c, 5, 71, 0
8, 14517, Note_on_c, 5, 73, 88
8, 14544, Note_on_c, 5, 76, 90
8, 14546, Note_on_c, 5, 73, 0
8, 14564, Note_on_c, 5, 76, 0
8, 14578, Note_on_c, 5, 76, 100
8, 14581, Note_on_c, 5, 78, 90
8, 14595, Note_on_c, 5, 76, 0
8, 14668, Note_on_c, 5, 78, 0
8, 14668, Note_on_c, 5, 76, 94
8, 14681, Note_on_c, 5, 76, 0
8, 14698, Note_on_c, 5, 76, 101
8, 14781, Note_on_c, 5, 76, 0
8, 14790, Note_on_c, 5, 73, 77
8, 14805, Note_on_c, 5, 73, 0
8, 14818, Note_on_c, 5, 76, 103
8, 14824, Note_on_c, 5, 78, 64
8, 14836, Note_on_c, 5, 76, 0
8, 14964, Note_on_c, 5, 76, 89
8, 14970, Note_on_c, 5, 78, 0
8, 14985, Note_on_c, 5, 76, 0
8, 14995, Note_on_c, 5, 73, 83
8, 15019, Note_on_c, 5, 73, 0
8, 15027, Note_on_c, 5, 69, 94
8, 15051, Note_on_c, 5, 69, 0
8, 15056, Note_on_c, 5, 71, 101
8, 15149, Note_on_c, 5, 71, 0
8, 15420, Note_on_c, 5, 71, 105
8, 15441, Note_on_c, 5, 71, 0
8, 15450, Note_on_c, 5, 71, 81
8, 15464, Note_on_c, 5, 71, 0
8, 15482, Note_on_c, 5, 73, 105
8, 15513, Note_on_c, 5, 73, 0
8, 15539, Note_on_c, 5, 73, 84
8, 15555, Note_on_c, 5, 73, 0
8, 15569, Note_on_c, 5, 71, 109
8, 15593, Note_on_c, 5, 71, 0
8, 15627, Note_on_c, 5, 69, 94
8, 15648, Note_on_c, 5, 69, 0
8, 15715, Note_on_c, 5, 69, 88
8, 15728, Note_on_c, 5, 69, 0
8, 15747, Note_on_c, 5, 69, 85
8, 15766, Note_on_c, 5, 69, 0
8, 15774, Note_on_c, 5, 73, 101
8, 15776, Note_on_c, 5, 76, 105
8, 15791, Note_on_c, 5, 73, 0
8, 15925, Note_on_c, 5, 73, 98
8, 15928, Note_on_c, 5, 76, 0
8, 15948, Note_on_c, 5, 73, 0
8, 15954, Note_on_c, 5, 71, 86
8, 15982, Note_on_c, 5, 69, 90
8, 15985, Note_on_c, 5, 71, 0
8, 16004, Note_on_c, 5, 69, 0
8, 16014, Note_on_c, 5, 69, 74
8, 16016, Note_on_c, 5, 71, 100
8, 16028, Note_on_c, 5, 69, 0
8, 16105, Note_on_c, 5, 71, 0
8, 16380, Note_on_c, 5, 69, 101
8, 16383, Note_on_c, 5, 71, 100
8, 16419, Note_on_c, 5, 69, 0
8, 16487, Note_on_c, 5, 71, 0
8, 16498, Note_on_c, 5, 69, 88
8, 16503, Note_on_c, 5, 71, 98
8, 16514, Note_on_c, 5, 69, 0
8, 16557, Note_on_c, 5, 71, 0
8, 16561, Note_on_c, 5, 69, 86
8, 16578, Note_on_c, 5, 69, 0
8, 16617, Note_on_c, 5, 69, 101
8, 16620, Note_on_c, 5, 71, 105
8, 16631, Note_on_c, 5, 69, 0
8, 16665, Note_on_c, 5, 71, 0
8, 16678, Note_on_c, 5, 73, 94
8, 16693, Note_on_c, 5, 73, 0
8, 16706, Note_on_c, 5, 69, 96
8, 16915, Note_on_c, 5, 69, 0
8, 16919, Note_on_c, 5, 73, 105
8, 16969, Note_on_c, 5, 73, 0
8, 16980, Note_on_c, 5, 73, 94
8, 17031, Note_on_c, 5, 73, 0
8, 17037, Note_on_c, 5, 74, 103
8, 17085, Note_on_c, 5, 74, 0
8, 17098, Note_on_c, 5, 76, 114
8, 17118, Note_on_c, 5, 76, 0
8, 17217, Note_on_c, 5, 78, 101
8, 17511, Note_on_c, 5, 78, 0
8, 17514, Note_on_c, 5, 76, 90
8, 17569, Note_on_c, 5, 76, 0
8, 17577, Note_on_c, 5, 74, 103
8, 17696, Note_on_c, 5, 74, 0
8, 17700, Note_on_c, 5, 73, 96
8, 17724, Note_on_c, 5, 71, 75
8, 17730, Note_on_c, 5, 73, 0
8, 17753, Note_on_c, 5, 69, 86
8, 17759, Note_on_c, 5, 71, 0
8, 17874, Note_on_c, 5, 73, 98
8, 17878, Note_on_c, 5, 69, 0
8, 17926, Note_on_c, 5, 73, 0
8, 17937, Note_on_c, 5, 73, 86
8, 17996, Note_on_c, 5, 73, 0
8, 17996, Note_on_c, 5, 74, 88
8, 18055, Note_on_c, 5, 74, 0
8, 18058, Note_on_c, 5, 76, 103
8, 18077, Note_on_c, 5, 76, 0
8, 18182, Note_on_c, 5, 76, 103
8, 18188, Note_on_c, 5, 78, 64
8, 18200, Note_on_c, 5, 76, 0
8, 18206, Note_on_c, 5, 78, 0
8, 18214, Note_on_c, 5, 78, 73
8, 18237, Note_on_c, 5, 78, 0
8, 18263, Note_on_c, 5, 81, 88
8, 18282, Note_on_c, 5, 81, 0
8, 18310, Note_on_c, 5, 81, 101
8, 18312, Note_on_c, 5, 83, 101
8, 18330, Note_on_c, 5, 81, 0
8, 18451, Note_on_c, 5, 81, 84
8, 18455, Note_on_c, 5, 83, 0
8, 18470, Note_on_c, 5, 83, 107
8, 18487, Note_on_c, 5, 83, 0
8, 18656, Note_on_c, 5, 81, 0
8, 18660, Note_on_c, 5, 74, 90
8, 18777, Note_on_c, 5, 73, 86
8, 18780, Note_on_c, 5, 74, 0
8, 18833, Note_on_c, 5, 71, 96
8, 18834, Note_on_c, 5, 73, 0
8, 18947, Note_on_c, 5, 71, 0
8, 18961, Note_on_c, 5, 71, 85
8, 18962, Note_on_c, 5, 69, 72
8, 18971, Note_on_c, 5, 69, 0
8, 19002, Note_on_c, 5, 71, 0
8, 19014, Note_on_c, 5, 71, 88
8, 19062, Note_on_c, 5, 71, 0
8, 19078, Note_on_c, 5, 73, 94
8, 19109, Note_on_c, 5, 73, 0
8, 19134, Note_on_c, 5, 74, 113
8, 19253, Note_on_c, 5, 74, 0
8, 19254, Note_on_c, 5, 74, 109
8, 19436, Note_on_c, 5, 74, 0
8, 19438, Note_on_c, 5, 73, 96
8, 19493, Note_on_c, 5, 71, 101
8, 19496, Note_on_c, 5, 73, 0
8, 19617, Note_on_c, 5, 71, 0
8, 19619, Note_on_c, 5, 69, 100
8, 19917, Note_on_c, 5, 73, 105
8, 19920, Note_on_c, 5, 69, 0
8, 19963, Note_on_c, 5, 73, 0
8, 19978, Note_on_c, 5, 73, 109
8, 20081, Note_on_c, 5, 73, 0
8, 20094, Note_on_c, 5, 73, 113
8, 20150, Note_on_c, 5, 73, 0
8, 20153, Note_on_c, 5, 71, 105
8, 20569, Note_on_c, 5, 71, 0
8, 20573, Note_on_c, 5, 74, 111
8, 20575, Note_on_c, 5, 76, 96
8, 20593, Note_on_c, 5, 74, 0
8, 21358, Note_on_c, 5, 74, 96
8, 21364, Note_on_c, 5, 76, 0
8, 21420, Note_on_c, 5, 73, 89
8, 21422, Note_on_c, 5, 74, 0
8, 21539, Note_on_c, 5, 73, 0
8, 21541, Note_on_c, 5, 69, 109
8, 21717, Note_on_c, 5, 69, 0
8, 21717, Note_on_c, 5, 73, 107
8, 21769, Note_on_c, 5, 73, 0
8, 21777, Note_on_c, 5, 73, 94
8, 21837, Note_on_c, 5, 74, 98
8, 21838, Note_on_c, 5, 73, 0
8, 21895, Note_on_c, 5, 74, 0
8, 21900, Note_on_c, 5, 76, 113
8, 21925, Note_on_c, 5, 76, 0
8, 22023, Note_on_c, 5, 76, 105
8, 22026, Note_on_c, 5, 78, 100
8, 22045, Note_on_c, 5, 76, 0
8, 22310, Note_on_c, 5, 78, 0
8, 22314, Note_on_c, 5, 76, 103
8, 22352, Note_on_c, 5, 76, 0
8, 22374, Note_on_c, 5, 74, 105
8, 22490, Note_on_c, 5, 74, 0
8, 22497, Note_on_c, 5, 73, 100
8, 22526, Note_on_c, 5, 71, 85
8, 22531, Note_on_c, 5, 73, 0
8, 22553, Note_on_c, 5, 69, 96
8, 22555, Note_on_c, 5, 71, 0
8, 22665, Note_on_c, 5, 69, 0
8, 22679, Note_on_c, 5, 69, 103
8, 22726, Note_on_c, 5, 69, 0
8, 22738, Note_on_c, 5, 69, 103
8, 22798, Note_on_c, 5, 71, 96
8, 22803, Note_on_c, 5, 69, 0
8, 22850, Note_on_c, 5, 71, 0
8, 22858, Note_on_c, 5, 73, 120
8, 22887, Note_on_c, 5, 73, 0
8, 22981, Note_on_c, 5, 73, 105
8, 22983, Note_on_c, 5, 74, 107
8, 22996, Note_on_c, 5, 73, 0
8, 23269, Note_on_c, 5, 74, 0
8, 23279, Note_on_c, 5, 73, 101
8, 23335, Note_on_c, 5, 73, 0
8, 23339, Note_on_c, 5, 71, 113
8, 23459, Note_on_c, 5, 71, 0
8, 23459, Note_on_c, 5, 69, 94
8, 23754, Note_on_c, 5, 71, 101
8, 23756, Note_on_c, 5, 73, 105
8, 23758, Note_on_c, 5, 69, 0
8, 23766, Note_on_c, 5, 71, 0
8, 23805, Note_on_c, 5, 73, 0
8, 23818, Note_on_c, 5, 73, 116
8, 23923, Note_on_c, 5, 73, 0
8, 23938, Note_on_c, 5, 71, 94
8, 23940, Note_on_c, 5, 73, 101
8, 23955, Note_on_c, 5, 71, 0
8, 23995, Note_on_c, 5, 73, 0
8, 23997, Note_on_c, 5, 71, 100
8, 24292, Note_on_c, 5, 71, 0
8, 24292, Note_on_c, 5, 74, 105
8, 24295, Note_on_c, 5, 76, 90
8, 24311, Note_on_c, 5, 74, 0
8, 24468, Note_on_c, 5, 76, 0
8, 24476, Note_on_c, 5, 76, 94
8, 24480, Note_on_c, 5, 78, 103
8, 24494, Note_on_c, 5, 76, 0
8, 24601, Note_on_c, 5, 78, 0
8, 24601, Note_on_c, 5, 71, 101
8, 24776, Note_on_c, 5, 71, 0
8, 24800, Note_on_c, 5, 71, 77
8, 24865, Note_on_c, 5, 73, 96
8, 24874, Note_on_c, 5, 71, 0
8, 24886, Note_on_c, 5, 69, 75
8, 24889, Note_on_c, 5, 73, 0
8, 25797, Note_on_c, 5, 66, 68
8, 25807, Note_on_c, 5, 69, 0
8, 26295, Note_on_c, 5, 66, 0
8, 26305, Note_on_c, 5, 68, 53
8, 26393, Note_on_c, 5, 68, 0
8, 26409, Note_on_c, 5, 68, 56
8, 27520, Note_on_c, 5, 68, 0
8, 27520, End_track
9, 0, Start_track
9, 0, MIDI_port, 0
9, 0, Title_t, "muted guitar"
9, 0, Program_c, 6, 28
9, 13475, Note_on_c, 6, 54, 76
9, 13488, Note_on_c, 6, 54, 0
9, 13507, Note_on_c, 6, 52, 66
9, 13535, Note_on_c, 6, 54, 77
9, 13537, Note_on_c, 6, 52, 0
9, 13558, Note_on_c, 6, 54, 0
9, 13564, Note_on_c, 6, 57, 89
9, 13576, Note_on_c, 6, 57, 0
9, 13591, Note_on_c, 6, 57, 100
9, 13603, Note_on_c, 6, 57, 0
9, 13645, Note_on_c, 6, 57, 94
9, 13661, Note_on_c, 6, 57, 0
9, 13679, Note_on_c, 6, 52, 80
9, 13709, Note_on_c, 6, 52, 0
9, 13709, Note_on_c, 6, 54, 74
9, 13728, Note_on_c, 6, 54, 0
9, 13738, Note_on_c, 6, 57, 90
9, 13750, Note_on_c, 6, 57, 0
9, 13764, Note_on_c, 6, 57, 98
9, 13779, Note_on_c, 6, 57, 0
9, 13951, Note_on_c, 6, 57, 100
9, 13963, Note_on_c, 6, 57, 0
9, 13982, Note_on_c, 6, 52, 78
9, 13997, Note_on_c, 6, 52, 0
9, 14011, Note_on_c, 6, 54, 61
9, 14032, Note_on_c, 6, 54, 0
9, 14038, Note_on_c, 6, 57, 94
9, 14052, Note_on_c, 6, 57, 0
9, 14065, Note_on_c, 6, 57, 92
9, 14079, Note_on_c, 6, 57, 0
9, 14129, Note_on_c, 6, 57, 83
9, 14141, Note_on_c, 6, 57, 0
9, 14161, Note_on_c, 6, 52, 81
9, 14187, Note_on_c, 6, 54, 66
9, 14189, Note_on_c, 6, 52, 0
9, 14214, Note_on_c, 6, 54, 0
9, 14217, Note_on_c, 6, 57, 66
9, 14228, Note_on_c, 6, 57, 0
9, 14247, Note_on_c, 6, 59, 96
9, 14264, Note_on_c, 6, 59, 0
9, 14303, Note_on_c, 6, 57, 94
9, 14317, Note_on_c, 6, 57, 0
9, 14336, Note_on_c, 6, 54, 76
9, 14353, Note_on_c, 6, 54, 0
9, 14363, Note_on_c, 6, 52, 76
9, 14387, Note_on_c, 6, 52, 0
9, 14398, Note_on_c, 6, 57, 94
9, 14409, Note_on_c, 6, 57, 0
9, 14427, Note_on_c, 6, 54, 83
9, 14441, Note_on_c, 6, 54, 0
9, 14460, Note_on_c, 6, 52, 81
9, 14488, Note_on_c, 6, 52, 0
9, 14488, Note_on_c, 6, 54, 74
9, 14500, Note_on_c, 6, 54, 0
9, 14518, Note_on_c, 6, 57, 81
9, 14531, Note_on_c, 6, 57, 0
9, 14547, Note_on_c, 6, 57, 107
9, 14566, Note_on_c, 6, 57, 0
9, 14608, Note_on_c, 6, 57, 74
9, 14617, Note_on_c, 6, 57, 0
9, 14642, Note_on_c, 6, 52, 76
9, 14669, Note_on_c, 6, 52, 0
9, 14672, Note_on_c, 6, 54, 59
9, 14691, Note_on_c, 6, 54, 0
9, 14702, Note_on_c, 6, 57, 86
9, 14713, Note_on_c, 6, 57, 0
9, 14729, Note_on_c, 6, 57, 94
9, 14741, Note_on_c, 6, 57, 0
9, 14912, Note_on_c, 6, 57, 92
9, 14925, Note_on_c, 6, 57, 0
9, 14943, Note_on_c, 6, 52, 80
9, 14964, Note_on_c, 6, 52, 0
9, 14974, Note_on_c, 6, 54, 61
9, 14995, Note_on_c, 6, 54, 0
9, 15003, Note_on_c, 6, 57, 98
9, 15014, Note_on_c, 6, 57, 0
9, 15029, Note_on_c, 6, 57, 103
9, 15041, Note_on_c, 6, 57, 0
9, 15094, Note_on_c, 6, 57, 44
9, 15102, Note_on_c, 6, 57, 0
9, 15121, Note_on_c, 6, 52, 83
9, 15151, Note_on_c, 6, 54, 78
9, 15155, Note_on_c, 6, 52, 0
9, 15176, Note_on_c, 6, 54, 0
9, 15177, Note_on_c, 6, 57, 77
9, 15191, Note_on_c, 6, 57, 0
9, 15208, Note_on_c, 6, 59, 103
9, 15229, Note_on_c, 6, 59, 0
9, 15265, Note_on_c, 6, 57, 96
9, 15279, Note_on_c, 6, 57, 0
9, 15327, Note_on_c, 6, 59, 101
9, 15339, Note_on_c, 6, 59, 0
9, 15388, Note_on_c, 6, 57, 86
9, 15398, Note_on_c, 6, 57, 0
9, 15426, Note_on_c, 6, 52, 84
9, 15455, Note_on_c, 6, 54, 66
9, 15456, Note_on_c, 6, 52, 0
9, 15476, Note_on_c, 6, 54, 0
9, 15481, Note_on_c, 6, 57, 98
9, 15494, Note_on_c, 6, 57, 0
9, 15511, Note_on_c, 6, 57, 98
9, 15523, Note_on_c, 6, 57, 0
9, 15570, Note_on_c, 6, 57, 92
9, 15582, Note_on_c, 6, 57, 0
9, 15604, Note_on_c, 6, 52, 83
9, 15628, Note_on_c, 6, 52, 0
9, 15632, Note_on_c, 6, 54, 66
9, 15651, Note_on_c, 6, 54, 0
9, 15659, Note_on_c, 6, 57, 101
9, 15673, Note_on_c, 6, 57, 0
9, 15687, Note_on_c, 6, 57, 101
9, 15699, Note_on_c, 6, 57, 0
9, 15871, Note_on_c, 6, 57, 86
9, 15884, Note_on_c, 6, 57, 0
9, 15900, Note_on_c, 6, 52, 81
9, 15922, Note_on_c, 6, 52, 0
9, 15930, Note_on_c, 6, 54, 73
9, 15951, Note_on_c, 6, 54, 0
9, 15958, Note_on_c, 6, 57, 100
9, 15971, Note_on_c, 6, 57, 0
9, 15987, Note_on_c, 6, 57, 105
9, 16001, Note_on_c, 6, 57, 0
9, 16046, Note_on_c, 6, 57, 83
9, 16059, Note_on_c, 6, 57, 0
9, 16077, Note_on_c, 6, 52, 76
9, 16106, Note_on_c, 6, 54, 72
9, 16109, Note_on_c, 6, 52, 0
9, 16128, Note_on_c, 6, 54, 0
9, 16138, Note_on_c, 6, 57, 83
9, 16146, Note_on_c, 6, 57, 0
9, 16168, Note_on_c, 6, 59, 94
9, 16185, Note_on_c, 6, 59, 0
9, 16230, Note_on_c, 6, 57, 101
9, 16243, Note_on_c, 6, 57, 0
9, 16356, Note_on_c, 6, 54, 57
9, 16366, Note_on_c, 6, 54, 0
9, 16387, Note_on_c, 6, 52, 82
9, 16410, Note_on_c, 6, 52, 0
9, 16417, Note_on_c, 6, 54, 66
9, 16440, Note_on_c, 6, 54, 0
9, 16447, Note_on_c, 6, 57, 94
9, 16460, Note_on_c, 6, 57, 0
9, 16476, Note_on_c, 6, 57, 100
9, 16490, Note_on_c, 6, 57, 0
9, 16827, Note_on_c, 6, 57, 92
9, 16840, Note_on_c, 6, 57, 0
9, 16858, Note_on_c, 6, 52, 81
9, 16882, Note_on_c, 6, 52, 0
9, 16887, Note_on_c, 6, 54, 74
9, 16911, Note_on_c, 6, 54, 0
9, 16917, Note_on_c, 6, 57, 98
9, 16929, Note_on_c, 6, 57, 0
9, 16947, Note_on_c, 6, 57, 101
9, 16960, Note_on_c, 6, 57, 0
9, 17308, Note_on_c, 6, 57, 89
9, 17323, Note_on_c, 6, 57, 0
9, 17340, Note_on_c, 6, 52, 88
9, 17369, Note_on_c, 6, 54, 82
9, 17370, Note_on_c, 6, 52, 0
9, 17399, Note_on_c, 6, 54, 0
9, 17400, Note_on_c, 6, 57, 89
9, 17412, Note_on_c, 6, 57, 0
9, 17428, Note_on_c, 6, 57, 100
9, 17443, Note_on_c, 6, 57, 0
9, 17488, Note_on_c, 6, 57, 85
9, 17505, Note_on_c, 6, 57, 0
9, 17520, Note_on_c, 6, 52, 84
9, 17552, Note_on_c, 6, 54, 76
9, 17553, Note_on_c, 6, 52, 0
9, 17571, Note_on_c, 6, 54, 0
9, 17578, Note_on_c, 6, 57, 94
9, 17591, Note_on_c, 6, 57, 0
9, 17607, Note_on_c, 6, 57, 109
9, 17620, Note_on_c, 6, 57, 0
9, 17789, Note_on_c, 6, 57, 92
9, 17807, Note_on_c, 6, 57, 0
9, 17821, Note_on_c, 6, 52, 85
9, 17846, Note_on_c, 6, 52, 0
9, 17849, Note_on_c, 6, 54, 76
9, 17876, Note_on_c, 6, 54, 0
9, 17878, Note_on_c, 6, 57, 90
9, 17890, Note_on_c, 6, 57, 0
9, 17908, Note_on_c, 6, 57, 82
9, 17915, Note_on_c, 6, 57, 0
9, 17939, Note_on_c, 6, 52, 66
9, 17953, Note_on_c, 6, 52, 0
9, 17966, Note_on_c, 6, 59, 94
9, 17983, Note_on_c, 6, 59, 0
9, 18028, Note_on_c, 6, 57, 94
9, 18041, Note_on_c, 6, 57, 0
9, 18087, Note_on_c, 6, 54, 73
9, 18107, Note_on_c, 6, 54, 0
9, 18121, Note_on_c, 6, 52, 75
9, 18142, Note_on_c, 6, 52, 0
9, 18148, Note_on_c, 6, 54, 72
9, 18164, Note_on_c, 6, 54, 0
9, 18180, Note_on_c, 6, 59, 85
9, 18192, Note_on_c, 6, 59, 0
9, 18209, Note_on_c, 6, 57, 111
9, 18227, Note_on_c, 6, 57, 0
9, 18268, Note_on_c, 6, 57, 94
9, 18275, Note_on_c, 6, 57, 0
9, 18301, Note_on_c, 6, 52, 101
9, 18330, Note_on_c, 6, 52, 0
9, 18330, Note_on_c, 6, 54, 69
9, 18351, Note_on_c, 6, 54, 0
9, 18360, Note_on_c, 6, 57, 94
9, 18372, Note_on_c, 6, 57, 0
9, 18388, Note_on_c, 6, 57, 109
9, 18406, Note_on_c, 6, 57, 0
9, 18444, Note_on_c, 6, 57, 96
9, 18461, Note_on_c, 6, 57, 0
9, 18478, Note_on_c, 6, 52, 72
9, 18504, Note_on_c, 6, 52, 0
9, 18508, Note_on_c, 6, 54, 75
9, 18528, Note_on_c, 6, 54, 0
9, 18539, Note_on_c, 6, 57, 94
9, 18549, Note_on_c, 6, 57, 0
9, 18568, Note_on_c, 6, 57, 98
9, 18583, Note_on_c, 6, 57, 0
9, 18752, Note_on_c, 6, 57, 61
9, 18754, Note_on_c, 6, 59, 60
9, 18761, Note_on_c, 6, 59, 0
9, 18765, Note_on_c, 6, 57, 0
9, 18781, Note_on_c, 6, 52, 90
9, 18810, Note_on_c, 6, 54, 75
9, 18812, Note_on_c, 6, 52, 0
9, 18833, Note_on_c, 6, 54, 0
9, 18842, Note_on_c, 6, 57, 100
9, 18853, Note_on_c, 6, 57, 0
9, 18871, Note_on_c, 6, 57, 107
9, 18887, Note_on_c, 6, 57, 0
9, 18928, Note_on_c, 6, 59, 101
9, 18941, Note_on_c, 6, 59, 0
9, 18990, Note_on_c, 6, 57, 107
9, 19003, Note_on_c, 6, 57, 0
9, 19049, Note_on_c, 6, 54, 85
9, 19066, Note_on_c, 6, 54, 0
9, 19081, Note_on_c, 6, 52, 84
9, 19107, Note_on_c, 6, 52, 0
9, 19108, Note_on_c, 6, 54, 66
9, 19122, Note_on_c, 6, 54, 0
9, 19139, Note_on_c, 6, 57, 94
9, 19151, Note_on_c, 6, 57, 0
9, 19233, Note_on_c, 6, 54, 86
9, 19249, Note_on_c, 6, 54, 0
9, 19264, Note_on_c, 6, 52, 94
9, 19290, Note_on_c, 6, 52, 0
9, 19295, Note_on_c, 6, 54, 72
9, 19318, Note_on_c, 6, 54, 0
9, 19323, Note_on_c, 6, 57, 92
9, 19335, Note_on_c, 6, 57, 0
9, 19351, Note_on_c, 6, 57, 109
9, 19364, Note_on_c, 6, 57, 0
9, 19412, Note_on_c, 6, 57, 78
9, 19421, Note_on_c, 6, 57, 0
9, 19443, Note_on_c, 6, 52, 76
9, 19467, Note_on_c, 6, 52, 0
9, 19476, Note_on_c, 6, 54, 60
9, 19488, Note_on_c, 6, 54, 0
9, 19504, Note_on_c, 6, 57, 101
9, 19516, Note_on_c, 6, 57, 0
9, 19532, Note_on_c, 6, 57, 94
9, 19545, Note_on_c, 6, 57, 0
9, 19710, Note_on_c, 6, 57, 105
9, 19727, Note_on_c, 6, 57, 0
9, 19743, Note_on_c, 6, 52, 81
9, 19768, Note_on_c, 6, 52, 0
9, 19773, Note_on_c, 6, 54, 66
9, 19796, Note_on_c, 6, 54, 0
9, 19802, Note_on_c, 6, 57, 98
9, 19816, Note_on_c, 6, 57, 0
9, 19829, Note_on_c, 6, 57, 103
9, 19846, Note_on_c, 6, 57, 0
9, 19889, Note_on_c, 6, 57, 83
9, 19897, Note_on_c, 6, 57, 0
9, 19922, Note_on_c, 6, 52, 77
9, 19949, Note_on_c, 6, 52, 0
9, 19950, Note_on_c, 6, 54, 72
9, 19970, Note_on_c, 6, 54, 0
9, 19982, Note_on_c, 6, 57, 72
9, 19988, Note_on_c, 6, 57, 0
9, 20010, Note_on_c, 6, 59, 105
9, 20025, Note_on_c, 6, 59, 0
9, 20070, Note_on_c, 6, 57, 105
9, 20082, Note_on_c, 6, 57, 0
9, 20193, Note_on_c, 6, 57, 59
9, 20210, Note_on_c, 6, 57, 0
9, 20225, Note_on_c, 6, 52, 81
9, 20253, Note_on_c, 6, 54, 76
9, 20255, Note_on_c, 6, 52, 0
9, 20274, Note_on_c, 6, 54, 0
9, 20282, Note_on_c, 6, 57, 103
9, 20296, Note_on_c, 6, 57, 0
9, 20311, Note_on_c, 6, 57, 100
9, 20325, Note_on_c, 6, 57, 0
9, 20372, Note_on_c, 6, 57, 62
9, 20382, Note_on_c, 6, 57, 0
9, 20403, Note_on_c, 6, 52, 76
9, 20430, Note_on_c, 6, 52, 0
9, 20432, Note_on_c, 6, 54, 71
9, 20448, Note_on_c, 6, 54, 0
9, 20458, Note_on_c, 6, 57, 113
9, 20471, Note_on_c, 6, 57, 0
9, 20488, Note_on_c, 6, 57, 113
9, 20501, Note_on_c, 6, 57, 0
9, 20913, Note_on_c, 6, 59, 94
9, 20928, Note_on_c, 6, 59, 0
9, 20940, Note_on_c, 6, 57, 85
9, 20954, Note_on_c, 6, 57, 0
9, 20998, Note_on_c, 6, 54, 83
9, 21018, Note_on_c, 6, 54, 0
9, 21028, Note_on_c, 6, 52, 83
9, 21046, Note_on_c, 6, 52, 0
9, 21058, Note_on_c, 6, 54, 89
9, 21075, Note_on_c, 6, 54, 0
9, 21087, Note_on_c, 6, 57, 101
9, 21104, Note_on_c, 6, 57, 0
9, 21146, Note_on_c, 6, 57, 103
9, 21160, Note_on_c, 6, 57, 0
9, 21182, Note_on_c, 6, 52, 76
9, 21208, Note_on_c, 6, 54, 83
9, 21216, Note_on_c, 6, 52, 0
9, 21233, Note_on_c, 6, 54, 0
9, 21241, Note_on_c, 6, 57, 98
9, 21253, Note_on_c, 6, 57, 0
9, 21271, Note_on_c, 6, 57, 94
9, 21286, Note_on_c, 6, 57, 0
9, 21328, Note_on_c, 6, 57, 86
9, 21339, Note_on_c, 6, 57, 0
9, 21363, Note_on_c, 6, 52, 78
9, 21390, Note_on_c, 6, 54, 85
9, 21392, Note_on_c, 6, 52, 0
9, 21407, Note_on_c, 6, 54, 0
9, 21422, Note_on_c, 6, 57, 98
9, 21434, Note_on_c, 6, 57, 0
9, 21450, Note_on_c, 6, 57, 107
9, 21465, Note_on_c, 6, 57, 0
9, 21628, Note_on_c, 6, 57, 90
9, 21641, Note_on_c, 6, 57, 0
9, 21660, Note_on_c, 6, 52, 81
9, 21682, Note_on_c, 6, 52, 0
9, 21690, Note_on_c, 6, 54, 72
9, 21711, Note_on_c, 6, 54, 0
9, 21719, Note_on_c, 6, 57, 103
9, 21731, Note_on_c, 6, 57, 0
9, 21747, Note_on_c, 6, 57, 98
9, 21761, Note_on_c, 6, 57, 0
9, 21780, Note_on_c, 6, 52, 74
9, 21795, Note_on_c, 6, 52, 0
9, 21808, Note_on_c, 6, 59, 101
9, 21820, Note_on_c, 6, 59, 0
9, 21870, Note_on_c, 6, 57, 109
9, 21882, Note_on_c, 6, 57, 0
9, 21931, Note_on_c, 6, 54, 94
9, 21952, Note_on_c, 6, 54, 0
9, 21963, Note_on_c, 6, 52, 70
9, 21988, Note_on_c, 6, 54, 88
9, 21990, Note_on_c, 6, 52, 0
9, 22009, Note_on_c, 6, 54, 0
9, 22020, Note_on_c, 6, 57, 98
9, 22034, Note_on_c, 6, 57, 0
9, 22108, Note_on_c, 6, 57, 94
9, 22124, Note_on_c, 6, 57, 0
9, 22142, Note_on_c, 6, 52, 76
9, 22170, Note_on_c, 6, 52, 0
9, 22171, Note_on_c, 6, 54, 76
9, 22192, Note_on_c, 6, 54, 0
9, 22201, Note_on_c, 6, 57, 94
9, 22214, Note_on_c, 6, 57, 0
9, 22230, Note_on_c, 6, 57, 103
9, 22244, Note_on_c, 6, 57, 0
9, 22286, Note_on_c, 6, 57, 101
9, 22300, Note_on_c, 6, 57, 0
9, 22319, Note_on_c, 6, 52, 74
9, 22341, Note_on_c, 6, 52, 0
9, 22347, Note_on_c, 6, 54, 82
9, 22366, Note_on_c, 6, 54, 0
9, 22377, Note_on_c, 6, 57, 94
9, 22389, Note_on_c, 6, 57, 0
9, 22407, Note_on_c, 6, 57, 105
9, 22423, Note_on_c, 6, 57, 0
9, 22594, Note_on_c, 6, 57, 105
9, 22608, Note_on_c, 6, 57, 0
9, 22626, Note_on_c, 6, 52, 83
9, 22648, Note_on_c, 6, 52, 0
9, 22654, Note_on_c, 6, 54, 73
9, 22673, Note_on_c, 6, 54, 0
9, 22683, Note_on_c, 6, 57, 94
9, 22699, Note_on_c, 6, 57, 0
9, 22717, Note_on_c, 6, 52, 65
9, 22736, Note_on_c, 6, 52, 0
9, 22740, Note_on_c, 6, 54, 76
9, 22756, Note_on_c, 6, 54, 0
9, 22770, Note_on_c, 6, 59, 103
9, 22786, Note_on_c, 6, 59, 0
9, 22831, Note_on_c, 6, 57, 109
9, 22844, Note_on_c, 6, 57, 0
9, 22888, Note_on_c, 6, 57, 85
9, 22905, Note_on_c, 6, 57, 0
9, 22922, Note_on_c, 6, 52, 76
9, 22950, Note_on_c, 6, 54, 83
9, 22952, Note_on_c, 6, 52, 0
9, 22966, Note_on_c, 6, 54, 0
9, 22979, Note_on_c, 6, 57, 113
9, 22991, Note_on_c, 6, 57, 0
9, 23011, Note_on_c, 6, 57, 103
9, 23024, Note_on_c, 6, 57, 0
9, 23075, Note_on_c, 6, 54, 72
9, 23091, Note_on_c, 6, 54, 0
9, 23111, Note_on_c, 6, 52, 50
9, 23124, Note_on_c, 6, 52, 0
9, 23133, Note_on_c, 6, 54, 77
9, 23155, Note_on_c, 6, 54, 0
9, 23164, Note_on_c, 6, 57, 98
9, 23179, Note_on_c, 6, 57, 0
9, 23191, Note_on_c, 6, 57, 105
9, 23207, Note_on_c, 6, 57, 0
9, 23313, Note_on_c, 6, 52, 77
9, 23341, Note_on_c, 6, 52, 0
9, 23343, Note_on_c, 6, 54, 65
9, 23361, Note_on_c, 6, 54, 0
9, 23371, Note_on_c, 6, 57, 57
9, 23380, Note_on_c, 6, 57, 0
9, 23402, Note_on_c, 6, 52, 86
9, 23422, Note_on_c, 6, 52, 0
9, 23431, Note_on_c, 6, 54, 71
9, 23448, Note_on_c, 6, 54, 0
9, 23459, Note_on_c, 6, 57, 101
9, 23471, Note_on_c, 6, 57, 0
9, 23486, Note_on_c, 6, 57, 103
9, 23499, Note_on_c, 6, 57, 0
9, 23551, Note_on_c, 6, 57, 103
9, 23568, Note_on_c, 6, 57, 0
9, 23581, Note_on_c, 6, 52, 81
9, 23603, Note_on_c, 6, 52, 0
9, 23607, Note_on_c, 6, 54, 82
9, 23628, Note_on_c, 6, 54, 0
9, 23640, Note_on_c, 6, 57, 98
9, 23653, Note_on_c, 6, 57, 0
9, 23667, Note_on_c, 6, 57, 96
9, 23683, Note_on_c, 6, 57, 0
9, 23848, Note_on_c, 6, 57, 89
9, 23865, Note_on_c, 6, 57, 0
9, 23885, Note_on_c, 6, 52, 76
9, 23910, Note_on_c, 6, 52, 0
9, 23911, Note_on_c, 6, 54, 77
9, 23925, Note_on_c, 6, 54, 0
9, 23939, Note_on_c, 6, 57, 98
9, 23951, Note_on_c, 6, 57, 0
9, 24030, Note_on_c, 6, 57, 74
9, 24043, Note_on_c, 6, 57, 0
9, 24061, Note_on_c, 6, 52, 77
9, 24090, Note_on_c, 6, 54, 76
9, 24091, Note_on_c, 6, 52, 0
9, 24112, Note_on_c, 6, 54, 0
9, 24121, Note_on_c, 6, 57, 92
9, 24133, Note_on_c, 6, 57, 0
9, 24145, Note_on_c, 6, 57, 101
9, 24162, Note_on_c, 6, 57, 0
9, 24390, Note_on_c, 6, 52, 72
9, 24404, Note_on_c, 6, 52, 0
9, 24450, Note_on_c, 6, 52, 80
9, 24467, Note_on_c, 6, 52, 0
9, 24480, Note_on_c, 6, 57, 103
9, 24495, Note_on_c, 6, 57, 0
9, 24495, End_track
10, 0, Start_track
10, 0, MIDI_port, 0
10, 0, Title_t, "organ"
10, 0, Program_c, 7, 18
10, 9238, Note_on_c, 7, 72, 103
10, 9238, Note_on_c, 7, 63, 90
10, 9238, Note_on_c, 7, 68, 107
10, 9283, Note_on_c, 7, 72, 0
10, 9286, Note_on_c, 7, 63, 0
10, 9289, Note_on_c, 7, 68, 0
10, 9296, Note_on_c, 7, 68, 80
10, 9296, Note_on_c, 7, 72, 120
10, 9297, Note_on_c, 7, 63, 77
10, 9342, Note_on_c, 7, 72, 0
10, 9351, Note_on_c, 7, 68, 0
10, 9358, Note_on_c, 7, 73, 92
10, 9359, Note_on_c, 7, 68, 66
10, 9409, Note_on_c, 7, 73, 0
10, 9410, Note_on_c, 7, 68, 0
10, 9412, Note_on_c, 7, 63, 0
10, 9420, Note_on_c, 7, 75, 118
10, 9444, Note_on_c, 7, 75, 0
10, 9537, Note_on_c, 7, 68, 103
10, 9538, Note_on_c, 7, 73, 94
10, 9538, Note_on_c, 7, 77, 98
10, 9732, Note_on_c, 7, 68, 0
10, 9750, Note_on_c, 7, 68, 81
10, 9762, Note_on_c, 7, 73, 0
10, 9780, Note_on_c, 7, 73, 65
10, 9790, Note_on_c, 7, 77, 0
10, 9810, Note_on_c, 7, 77, 82
10, 9829, Note_on_c, 7, 77, 0
10, 9834, Note_on_c, 7, 73, 0
10, 9835, Note_on_c, 7, 68, 0
10, 9840, Note_on_c, 7, 68, 85
10, 9840, Note_on_c, 7, 75, 98
10, 9903, Note_on_c, 7, 75, 0
10, 9903, Note_on_c, 7, 73, 105
10, 9990, Note_on_c, 7, 68, 0
10, 9995, Note_on_c, 7, 73, 0
10, 10017, Note_on_c, 7, 63, 94
10, 10018, Note_on_c, 7, 68, 88
10, 10018, Note_on_c, 7, 72, 105
10, 10150, Note_on_c, 7, 63, 0
10, 10166, Note_on_c, 7, 63, 82
10, 10176, Note_on_c, 7, 72, 0
10, 10181, Note_on_c, 7, 68, 0
10, 10189, Note_on_c, 7, 63, 0
10, 10196, Note_on_c, 7, 72, 101
10, 10196, Note_on_c, 7, 63, 88
10, 10197, Note_on_c, 7, 68, 84
10, 10250, Note_on_c, 7, 72, 0
10, 10252, Note_on_c, 7, 63, 0
10, 10259, Note_on_c, 7, 72, 85
10, 10260, Note_on_c, 7, 63, 82
10, 10306, Note_on_c, 7, 72, 0
10, 10310, Note_on_c, 7, 63, 0
10, 10317, Note_on_c, 7, 63, 60
10, 10318, Note_on_c, 7, 73, 101
10, 10366, Note_on_c, 7, 73, 0
10, 10368, Note_on_c, 7, 68, 0
10, 10377, Note_on_c, 7, 75, 107
10, 10386, Note_on_c, 7, 63, 0
10, 10404, Note_on_c, 7, 75, 0
10, 10496, Note_on_c, 7, 77, 107
10, 10496, Note_on_c, 7, 68, 114
10, 10497, Note_on_c, 7, 73, 82
10, 10695, Note_on_c, 7, 68, 0
10, 10707, Note_on_c, 7, 68, 83
10, 10717, Note_on_c, 7, 73, 0
10, 10735, Note_on_c, 7, 73, 64
10, 10742, Note_on_c, 7, 77, 0
10, 10756, Note_on_c, 7, 68, 0
10, 10761, Note_on_c, 7, 77, 89
10, 10786, Note_on_c, 7, 77, 0
10, 10792, Note_on_c, 7, 73, 0
10, 10797, Note_on_c, 7, 75, 98
10, 10798, Note_on_c, 7, 68, 98
10, 10859, Note_on_c, 7, 73, 105
10, 10866, Note_on_c, 7, 75, 0
10, 10955, Note_on_c, 7, 68, 0
10, 10963, Note_on_c, 7, 73, 0
10, 10979, Note_on_c, 7, 63, 100
10, 10979, Note_on_c, 7, 72, 118
10, 10980, Note_on_c, 7, 68, 83
10, 11149, Note_on_c, 7, 68, 0
10, 11161, Note_on_c, 7, 68, 98
10, 11174, Note_on_c, 7, 72, 0
10, 11208, Note_on_c, 7, 68, 0
10, 11218, Note_on_c, 7, 68, 86
10, 11279, Note_on_c, 7, 70, 96
10, 11339, Note_on_c, 7, 72, 107
10, 11344, Note_on_c, 7, 63, 0
10, 11345, Note_on_c, 7, 70, 0
10, 11347, Note_on_c, 7, 68, 0
10, 11361, Note_on_c, 7, 72, 0
10, 11458, Note_on_c, 7, 73, 113
10, 11459, Note_on_c, 7, 65, 113
10, 11459, Note_on_c, 7, 68, 116
10, 11657, Note_on_c, 7, 65, 0
10, 11668, Note_on_c, 7, 65, 66
10, 11684, Note_on_c, 7, 68, 0
10, 11702, Note_on_c, 7, 68, 64
10, 11707, Note_on_c, 7, 73, 0
10, 11722, Note_on_c, 7, 65, 0
10, 11728, Note_on_c, 7, 73, 86
10, 11751, Note_on_c, 7, 73, 0
10, 11760, Note_on_c, 7, 63, 105
10, 11761, Note_on_c, 7, 72, 96
10, 11814, Note_on_c, 7, 68, 0
10, 11819, Note_on_c, 7, 70, 100
10, 11829, Note_on_c, 7, 72, 0
10, 11919, Note_on_c, 7, 63, 0
10, 11923, Note_on_c, 7, 70, 0
10, 11939, Note_on_c, 7, 68, 109
10, 11940, Note_on_c, 7, 60, 105
10, 11940, Note_on_c, 7, 63, 86
10, 12199, Note_on_c, 7, 60, 0
10, 12210, Note_on_c, 7, 63, 0
10, 12221, Note_on_c, 7, 68, 0
10, 12240, Note_on_c, 7, 72, 111
10, 12241, Note_on_c, 7, 63, 92
10, 12241, Note_on_c, 7, 68, 83
10, 12279, Note_on_c, 7, 63, 0
10, 12283, Note_on_c, 7, 72, 0
10, 12283, Note_on_c, 7, 68, 0
10, 12300, Note_on_c, 7, 63, 100
10, 12301, Note_on_c, 7, 68, 90
10, 12301, Note_on_c, 7, 72, 107
10, 12391, Note_on_c, 7, 72, 0
10, 12399, Note_on_c, 7, 68, 0
10, 12408, Note_on_c, 7, 63, 0
10, 12419, Note_on_c, 7, 63, 84
10, 12420, Note_on_c, 7, 70, 100
10, 12422, Note_on_c, 7, 67, 92
10, 13189, Note_on_c, 7, 70, 0
10, 13190, Note_on_c, 7, 63, 0
10, 13194, Note_on_c, 7, 67, 0
10, 13199, Note_on_c, 7, 71, 114
10, 13199, Note_on_c, 7, 64, 101
10, 13200, Note_on_c, 7, 68, 111
10, 13249, Note_on_c, 7, 71, 0
10, 13251, Note_on_c, 7, 64, 0
10, 13253, Note_on_c, 7, 68, 0
10, 13258, Note_on_c, 7, 68, 111
10, 13259, Note_on_c, 7, 71, 113
10, 13260, Note_on_c, 7, 64, 96
10, 13289, Note_on_c, 7, 64, 0
10, 13292, Note_on_c, 7, 71, 0
10, 13297, Note_on_c, 7, 68, 0
10, 13379, Note_on_c, 7, 76, 118
10, 13380, Note_on_c, 7, 69, 127
10, 13380, Note_on_c, 7, 73, 101
10, 13409, Note_on_c, 7, 76, 0
10, 13413, Note_on_c, 7, 69, 0
10, 13416, Note_on_c, 7, 73, 0
10, 13471, Note_on_c, 7, 76, 114
10, 13471, Note_on_c, 7, 69, 107
10, 13471, Note_on_c, 7, 73, 98
10, 13475, Note_on_c, 7, 75, 65
10, 13481, Note_on_c, 7, 69, 0
10, 13482, Note_on_c, 7, 75, 0
10, 13483, Note_on_c, 7, 76, 0
10, 13484, Note_on_c, 7, 73, 0
10, 13561, Note_on_c, 7, 76, 116
10, 13561, Note_on_c, 7, 69, 124
10, 13562, Note_on_c, 7, 73, 111
10, 13635, Note_on_c, 7, 69, 0
10, 13637, Note_on_c, 7, 76, 0
10, 13644, Note_on_c, 7, 76, 94
10, 13646, Note_on_c, 7, 69, 101
10, 13657, Note_on_c, 7, 73, 0
10, 13657, Note_on_c, 7, 76, 0
10, 13658, Note_on_c, 7, 69, 0
10, 13677, Note_on_c, 7, 73, 98
10, 13677, Note_on_c, 7, 69, 103
10, 13678, Note_on_c, 7, 76, 101
10, 13682, Note_on_c, 7, 75, 59
10, 13689, Note_on_c, 7, 73, 0
10, 13689, Note_on_c, 7, 69, 0
10, 13689, Note_on_c, 7, 75, 0
10, 13690, Note_on_c, 7, 76, 0
10, 13709, Note_on_c, 7, 69, 98
10, 13722, Note_on_c, 7, 69, 0
10, 13736, Note_on_c, 7, 76, 114
10, 13737, Note_on_c, 7, 69, 113
10, 13738, Note_on_c, 7, 73, 109
10, 13788, Note_on_c, 7, 76, 0
10, 13801, Note_on_c, 7, 76, 61
10, 13834, Note_on_c, 7, 76, 0
10, 13835, Note_on_c, 7, 73, 0
10, 13842, Note_on_c, 7, 69, 0
10, 13854, Note_on_c, 7, 69, 98
10, 13855, Note_on_c, 7, 78, 105
10, 13857, Note_on_c, 7, 74, 81
10, 13934, Note_on_c, 7, 69, 0
10, 13934, Note_on_c, 7, 78, 0
10, 13936, Note_on_c, 7, 74, 0
10, 13947, Note_on_c, 7, 78, 103
10, 13947, Note_on_c, 7, 69, 103
10, 13949, Note_on_c, 7, 74, 72
10, 13956, Note_on_c, 7, 74, 0
10, 13959, Note_on_c, 7, 69, 0
10, 13961, Note_on_c, 7, 78, 0
10, 14012, Note_on_c, 7, 69, 83
10, 14020, Note_on_c, 7, 69, 0
10, 14039, Note_on_c, 7, 69, 98
10, 14039, Note_on_c, 7, 78, 100
10, 14040, Note_on_c, 7, 74, 90
10, 14113, Note_on_c, 7, 69, 0
10, 14113, Note_on_c, 7, 78, 0
10, 14115, Note_on_c, 7, 74, 0
10, 14126, Note_on_c, 7, 78, 107
10, 14126, Note_on_c, 7, 69, 90
10, 14126, Note_on_c, 7, 74, 80
10, 14133, Note_on_c, 7, 74, 0
10, 14135, Note_on_c, 7, 69, 0
10, 14140, Note_on_c, 7, 78, 0
10, 14188, Note_on_c, 7, 69, 89
10, 14197, Note_on_c, 7, 69, 0
10, 14216, Note_on_c, 7, 74, 92
10, 14216, Note_on_c, 7, 78, 90
10, 14217, Note_on_c, 7, 69, 78
10, 14226, Note_on_c, 7, 69, 0
10, 14239, Note_on_c, 7, 78, 0
10, 14242, Note_on_c, 7, 69, 94
10, 14244, Note_on_c, 7, 74, 0
10, 14273, Note_on_c, 7, 74, 83
10, 14288, Note_on_c, 7, 69, 0
10, 14301, Note_on_c, 7, 78, 92
10, 14308, Note_on_c, 7, 74, 0
10, 14318, Note_on_c, 7, 78, 0
10, 14336, Note_on_c, 7, 69, 94
10, 14338, Note_on_c, 7, 76, 103
10, 14338, Note_on_c, 7, 73, 86
10, 14408, Note_on_c, 7, 76, 0
10, 14409, Note_on_c, 7, 73, 0
10, 14411, Note_on_c, 7, 69, 0
10, 14426, Note_on_c, 7, 69, 89
10, 14426, Note_on_c, 7, 73, 100
10, 14427, Note_on_c, 7, 76, 90
10, 14432, Note_on_c, 7, 73, 0
10, 14434, Note_on_c, 7, 69, 0
10, 14434, Note_on_c, 7, 76, 0
10, 14518, Note_on_c, 7, 73, 107
10, 14519, Note_on_c, 7, 69, 101
10, 14519, Note_on_c, 7, 76, 83
10, 14593, Note_on_c, 7, 76, 0
10, 14595, Note_on_c, 7, 69, 0
10, 14598, Note_on_c, 7, 73, 0
10, 14608, Note_on_c, 7, 73, 90
10, 14608, Note_on_c, 7, 76, 98
10, 14608, Note_on_c, 7, 69, 90
10, 14615, Note_on_c, 7, 76, 0
10, 14617, Note_on_c, 7, 69, 0
10, 14620, Note_on_c, 7, 73, 0
10, 14672, Note_on_c, 7, 69, 85
10, 14682, Note_on_c, 7, 69, 0
10, 14699, Note_on_c, 7, 69, 101
10, 14699, Note_on_c, 7, 76, 103
10, 14700, Note_on_c, 7, 73, 101
10, 14751, Note_on_c, 7, 69, 0
10, 14764, Note_on_c, 7, 69, 89
10, 14765, Note_on_c, 7, 76, 0
10, 14773, Note_on_c, 7, 73, 0
10, 14782, Note_on_c, 7, 69, 0
10, 14793, Note_on_c, 7, 69, 81
10, 14808, Note_on_c, 7, 69, 0
10, 14818, Note_on_c, 7, 78, 103
10, 14820, Note_on_c, 7, 69, 77
10, 14820, Note_on_c, 7, 74, 76
10, 14901, Note_on_c, 7, 78, 0
10, 14903, Note_on_c, 7, 69, 0
10, 14904, Note_on_c, 7, 74, 0
10, 14911, Note_on_c, 7, 74, 96
10, 14912, Note_on_c, 7, 69, 103
10, 14912, Note_on_c, 7, 78, 90
10, 14922, Note_on_c, 7, 69, 0
10, 14923, Note_on_c, 7, 74, 0
10, 14926, Note_on_c, 7, 78, 0
10, 14969, Note_on_c, 7, 69, 90
10, 14979, Note_on_c, 7, 69, 0
10, 14998, Note_on_c, 7, 69, 103
10, 14998, Note_on_c, 7, 78, 103
10, 14999, Note_on_c, 7, 74, 92
10, 15067, Note_on_c, 7, 78, 0
10, 15069, Note_on_c, 7, 69, 0
10, 15070, Note_on_c, 7, 74, 0
10, 15084, Note_on_c, 7, 69, 96
10, 15086, Note_on_c, 7, 78, 109
10, 15086, Note_on_c, 7, 74, 83
10, 15095, Note_on_c, 7, 74, 0
10, 15096, Note_on_c, 7, 69, 0
10, 15097, Note_on_c, 7, 78, 0
10, 15147, Note_on_c, 7, 69, 83
10, 15148, Note_on_c, 7, 78, 60
10, 15155, Note_on_c, 7, 78, 0
10, 15158, Note_on_c, 7, 69, 0
10, 15176, Note_on_c, 7, 69, 100
10, 15207, Note_on_c, 7, 74, 88
10, 15219, Note_on_c, 7, 69, 0
10, 15238, Note_on_c, 7, 76, 77
10, 15251, Note_on_c, 7, 74, 0
10, 15261, Note_on_c, 7, 76, 0
10, 15264, Note_on_c, 7, 78, 96
10, 15267, Note_on_c, 7, 69, 67
10, 15279, Note_on_c, 7, 69, 0
10, 15281, Note_on_c, 7, 78, 0
10, 15296, Note_on_c, 7, 69, 88
10, 15333, Note_on_c, 7, 72, 74
10, 15344, Note_on_c, 7, 72, 0
10, 15345, Note_on_c, 7, 69, 0
10, 15359, Note_on_c, 7, 69, 86
10, 15362, Note_on_c, 7, 76, 98
10, 15375, Note_on_c, 7, 69, 0
10, 15376, Note_on_c, 7, 76, 0
10, 15392, Note_on_c, 7, 75, 100
10, 15392, Note_on_c, 7, 80, 109
10, 15394, Note_on_c, 7, 72, 73
10, 15396, Note_on_c, 7, 71, 74
10, 15401, Note_on_c, 7, 72, 0
10, 15403, Note_on_c, 7, 71, 0
10, 15407, Note_on_c, 7, 80, 0
10, 15409, Note_on_c, 7, 75, 0
10, 15453, Note_on_c, 7, 73, 89
10, 15466, Note_on_c, 7, 73, 0
10, 15479, Note_on_c, 7, 73, 120
10, 15480, Note_on_c, 7, 81, 111
10, 15480, Note_on_c, 7, 76, 101
10, 15544, Note_on_c, 7, 81, 0
10, 15552, Note_on_c, 7, 73, 0
10, 15552, Note_on_c, 7, 76, 0
10, 15564, Note_on_c, 7, 76, 100
10, 15564, Note_on_c, 7, 73, 89
10, 15565, Note_on_c, 7, 81, 101
10, 15574, Note_on_c, 7, 76, 0
10, 15575, Note_on_c, 7, 73, 0
10, 15576, Note_on_c, 7, 81, 0
10, 15624, Note_on_c, 7, 73, 52
10, 15637, Note_on_c, 7, 73, 0
10, 15657, Note_on_c, 7, 73, 107
10, 15658, Note_on_c, 7, 75, 77
10, 15658, Note_on_c, 7, 81, 107
10, 15659, Note_on_c, 7, 76, 92
10, 15677, Note_on_c, 7, 75, 0
10, 15705, Note_on_c, 7, 73, 0
10, 15706, Note_on_c, 7, 81, 0
10, 15719, Note_on_c, 7, 73, 98
10, 15720, Note_on_c, 7, 76, 0
10, 15746, Note_on_c, 7, 76, 77
10, 15750, Note_on_c, 7, 73, 0
10, 15773, Note_on_c, 7, 81, 103
10, 15774, Note_on_c, 7, 74, 90
10, 15775, Note_on_c, 7, 78, 78
10, 15783, Note_on_c, 7, 76, 0
10, 15856, Note_on_c, 7, 81, 0
10, 15857, Note_on_c, 7, 74, 0
10, 15858, Note_on_c, 7, 78, 0
10, 15866, Note_on_c, 7, 74, 94
10, 15866, Note_on_c, 7, 81, 116
10, 15867, Note_on_c, 7, 78, 94
10, 15879, Note_on_c, 7, 74, 0
10, 15881, Note_on_c, 7, 78, 0
10, 15882, Note_on_c, 7, 81, 0
10, 15933, Note_on_c, 7, 74, 40
10, 15938, Note_on_c, 7, 74, 0
10, 15957, Note_on_c, 7, 81, 105
10, 15958, Note_on_c, 7, 74, 100
10, 15958, Note_on_c, 7, 78, 103
10, 16033, Note_on_c, 7, 81, 0
10, 16034, Note_on_c, 7, 74, 0
10, 16039, Note_on_c, 7, 78, 0
10, 16048, Note_on_c, 7, 74, 88
10, 16049, Note_on_c, 7, 81, 92
10, 16052, Note_on_c, 7, 78, 63
10, 16058, Note_on_c, 7, 78, 0
10, 16059, Note_on_c, 7, 74, 0
10, 16059, Note_on_c, 7, 81, 0
10, 16080, Note_on_c, 7, 74, 105
10, 16081, Note_on_c, 7, 78, 105
10, 16081, Note_on_c, 7, 81, 105
10, 16090, Note_on_c, 7, 74, 0
10, 16092, Note_on_c, 7, 78, 0
10, 16093, Note_on_c, 7, 81, 0
10, 16139, Note_on_c, 7, 81, 109
10, 16139, Note_on_c, 7, 74, 103
10, 16140, Note_on_c, 7, 78, 101
10, 16182, Note_on_c, 7, 81, 0
10, 16182, Note_on_c, 7, 74, 0
10, 16192, Note_on_c, 7, 78, 0
10, 16197, Note_on_c, 7, 78, 70
10, 16197, Note_on_c, 7, 81, 96
10, 16198, Note_on_c, 7, 74, 94
10, 16224, Note_on_c, 7, 74, 0
10, 16229, Note_on_c, 7, 81, 0
10, 16230, Note_on_c, 7, 78, 0
10, 16258, Note_on_c, 7, 76, 107
10, 16258, Note_on_c, 7, 80, 111
10, 16259, Note_on_c, 7, 83, 111
10, 16510, Note_on_c, 7, 83, 0
10, 16511, Note_on_c, 7, 76, 0
10, 16514, Note_on_c, 7, 80, 0
10, 16525, Note_on_c, 7, 76, 96
10, 16526, Note_on_c, 7, 80, 90
10, 16526, Note_on_c, 7, 83, 107
10, 16535, Note_on_c, 7, 76, 0
10, 16537, Note_on_c, 7, 83, 0
10, 16540, Note_on_c, 7, 80, 0
10, 16589, Note_on_c, 7, 76, 74
10, 16598, Note_on_c, 7, 76, 0
10, 16619, Note_on_c, 7, 83, 113
10, 16619, Note_on_c, 7, 76, 89
10, 16619, Note_on_c, 7, 80, 127
10, 16663, Note_on_c, 7, 83, 0
10, 16667, Note_on_c, 7, 76, 0
10, 16670, Note_on_c, 7, 80, 0
10, 16677, Note_on_c, 7, 80, 85
10, 16678, Note_on_c, 7, 83, 86
10, 16679, Note_on_c, 7, 76, 89
10, 16684, Note_on_c, 7, 82, 51
10, 16690, Note_on_c, 7, 83, 0
10, 16690, Note_on_c, 7, 82, 0
10, 16694, Note_on_c, 7, 76, 0
10, 16695, Note_on_c, 7, 80, 0
10, 16736, Note_on_c, 7, 81, 100
10, 16736, Note_on_c, 7, 76, 107
10, 16737, Note_on_c, 7, 73, 89
10, 16918, Note_on_c, 7, 73, 103
10, 16918, Note_on_c, 7, 64, 90
10, 16918, Note_on_c, 7, 69, 107
10, 16963, Note_on_c, 7, 73, 0
10, 16966, Note_on_c, 7, 64, 0
10, 16969, Note_on_c, 7, 69, 0
10, 16976, Note_on_c, 7, 69, 80
10, 16976, Note_on_c, 7, 73, 120
10, 16977, Note_on_c, 7, 64, 77
10, 17022, Note_on_c, 7, 73, 0
10, 17031, Note_on_c, 7, 69, 0
10, 17038, Note_on_c, 7, 74, 92
10, 17039, Note_on_c, 7, 69, 66
10, 17070, Note_on_c, 7, 81, 0
10, 17084, Note_on_c, 7, 73, 0
10, 17089, Note_on_c, 7, 74, 0
10, 17090, Note_on_c, 7, 69, 0
10, 17092, Note_on_c, 7, 64, 0
10, 17099, Note_on_c, 7, 81, 36
10, 17100, Note_on_c, 7, 76, 118
10, 17124, Note_on_c, 7, 76, 0
10, 17133, Note_on_c, 7, 76, 0
10, 17141, Note_on_c, 7, 81, 0
10, 17217, Note_on_c, 7, 69, 103
10, 17218, Note_on_c, 7, 74, 94
10, 17218, Note_on_c, 7, 78, 98
10, 17412, Note_on_c, 7, 69, 0
10, 17430, Note_on_c, 7, 69, 81
10, 17442, Note_on_c, 7, 74, 0
10, 17460, Note_on_c, 7, 74, 65
10, 17470, Note_on_c, 7, 78, 0
10, 17490, Note_on_c, 7, 78, 82
10, 17509, Note_on_c, 7, 78, 0
10, 17514, Note_on_c, 7, 74, 0
10, 17515, Note_on_c, 7, 69, 0
10, 17520, Note_on_c, 7, 69, 85
10, 17520, Note_on_c, 7, 76, 98
10, 17583, Note_on_c, 7, 76, 0
10, 17583, Note_on_c, 7, 74, 105
10, 17670, Note_on_c, 7, 69, 0
10, 17675, Note_on_c, 7, 74, 0
10, 17697, Note_on_c, 7, 64, 94
10, 17698, Note_on_c, 7, 69, 88
10, 17698, Note_on_c, 7, 73, 105
10, 17830, Note_on_c, 7, 64, 0
10, 17846, Note_on_c, 7, 64, 82
10, 17856, Note_on_c, 7, 73, 0
10, 17861, Note_on_c, 7, 69, 0
10, 17869, Note_on_c, 7, 64, 0
10, 17876, Note_on_c, 7, 73, 101
10, 17876, Note_on_c, 7, 64, 88
10, 17877, Note_on_c, 7, 69, 84
10, 17930, Note_on_c, 7, 73, 0
10, 17932, Note_on_c, 7, 64, 0
10, 17939, Note_on_c, 7, 73, 85
10, 17940, Note_on_c, 7, 64, 82
10, 17986, Note_on_c, 7, 73, 0
10, 17990, Note_on_c, 7, 64, 0
10, 17997, Note_on_c, 7, 64, 60
10, 17998, Note_on_c, 7, 74, 101
10, 18046, Note_on_c, 7, 74, 0
10, 18048, Note_on_c, 7, 69, 0
10, 18057, Note_on_c, 7, 76, 107
10, 18066, Note_on_c, 7, 64, 0
10, 18084, Note_on_c, 7, 76, 0
10, 18176, Note_on_c, 7, 78, 107
10, 18176, Note_on_c, 7, 69, 114
10, 18177, Note_on_c, 7, 74, 82
10, 18375, Note_on_c, 7, 69, 0
10, 18387, Note_on_c, 7, 69, 83
10, 18397, Note_on_c, 7, 74, 0
10, 18415, Note_on_c, 7, 74, 64
10, 18422, Note_on_c, 7, 78, 0
10, 18436, Note_on_c, 7, 69, 0
10, 18441, Note_on_c, 7, 78, 89
10, 18466, Note_on_c, 7, 78, 0
10, 18472, Note_on_c, 7, 74, 0
10, 18477, Note_on_c, 7, 76, 98
10, 18478, Note_on_c, 7, 69, 98
10, 18539, Note_on_c, 7, 74, 105
10, 18546, Note_on_c, 7, 76, 0
10, 18635, Note_on_c, 7, 69, 0
10, 18643, Note_on_c, 7, 74, 0
10, 18659, Note_on_c, 7, 64, 100
10, 18659, Note_on_c, 7, 73, 118
10, 18660, Note_on_c, 7, 69, 83
10, 18829, Note_on_c, 7, 69, 0
10, 18841, Note_on_c, 7, 69, 98
10, 18854, Note_on_c, 7, 73, 0
10, 18888, Note_on_c, 7, 69, 0
10, 18898, Note_on_c, 7, 69, 86
10, 18959, Note_on_c, 7, 71, 96
10, 19019, Note_on_c, 7, 73, 107
10, 19024, Note_on_c, 7, 64, 0
10, 19025, Note_on_c, 7, 71, 0
10, 19027, Note_on_c, 7, 69, 0
10, 19041, Note_on_c, 7, 73, 0
10, 19138, Note_on_c, 7, 74, 113
10, 19139, Note_on_c, 7, 66, 113
10, 19139, Note_on_c, 7, 69, 116
10, 19337, Note_on_c, 7, 66, 0
10, 19348, Note_on_c, 7, 66, 66
10, 19364, Note_on_c, 7, 69, 0
10, 19382, Note_on_c, 7, 69, 64
10, 19387, Note_on_c, 7, 74, 0
10, 19402, Note_on_c, 7, 66, 0
10, 19408, Note_on_c, 7, 74, 86
10, 19431, Note_on_c, 7, 74, 0
10, 19440, Note_on_c, 7, 64, 105
10, 19441, Note_on_c, 7, 73, 96
10, 19494, Note_on_c, 7, 69, 0
10, 19499, Note_on_c, 7, 71, 100
10, 19509, Note_on_c, 7, 73, 0
10, 19599, Note_on_c, 7, 64, 0
10, 19603, Note_on_c, 7, 71, 0
10, 19619, Note_on_c, 7, 69, 109
10, 19620, Note_on_c, 7, 61, 105
10, 19620, Note_on_c, 7, 64, 86
10, 19879, Note_on_c, 7, 61, 0
10, 19890, Note_on_c, 7, 64, 0
10, 19901, Note_on_c, 7, 69, 0
10, 19920, Note_on_c, 7, 73, 111
10, 19921, Note_on_c, 7, 64, 92
10, 19921, Note_on_c, 7, 69, 83
10, 19959, Note_on_c, 7, 64, 0
10, 19963, Note_on_c, 7, 73, 0
10, 19963, Note_on_c, 7, 69, 0
10, 19980, Note_on_c, 7, 64, 100
10, 19981, Note_on_c, 7, 69, 90
10, 19981, Note_on_c, 7, 73, 107
10, 20071, Note_on_c, 7, 73, 0
10, 20079, Note_on_c, 7, 69, 0
10, 20088, Note_on_c, 7, 64, 0
10, 20099, Note_on_c, 7, 64, 84
10, 20100, Note_on_c, 7, 71, 100
10, 20102, Note_on_c, 7, 68, 92
10, 20758, Note_on_c, 7, 73, 103
10, 20758, Note_on_c, 7, 64, 90
10, 20758, Note_on_c, 7, 69, 107
10, 20803, Note_on_c, 7, 73, 0
10, 20806, Note_on_c, 7, 64, 0
10, 20809, Note_on_c, 7, 69, 0
10, 20816, Note_on_c, 7, 69, 80
10, 20816, Note_on_c, 7, 73, 120
10, 20817, Note_on_c, 7, 64, 77
10, 20862, Note_on_c, 7, 73, 0
10, 20869, Note_on_c, 7, 71, 0
10, 20870, Note_on_c, 7, 64, 0
10, 20871, Note_on_c, 7, 69, 0
10, 20874, Note_on_c, 7, 68, 0
10, 20878, Note_on_c, 7, 74, 92
10, 20879, Note_on_c, 7, 69, 66
10, 20929, Note_on_c, 7, 74, 0
10, 20930, Note_on_c, 7, 69, 0
10, 20932, Note_on_c, 7, 64, 0
10, 20939, Note_on_c, 7, 81, 36
10, 20940, Note_on_c, 7, 76, 118
10, 20964, Note_on_c, 7, 76, 0
10, 20981, Note_on_c, 7, 81, 0
10, 21057, Note_on_c, 7, 69, 103
10, 21058, Note_on_c, 7, 74, 94
10, 21058, Note_on_c, 7, 78, 98
10, 21252, Note_on_c, 7, 69, 0
10, 21270, Note_on_c, 7, 69, 81
10, 21282, Note_on_c, 7, 74, 0
10, 21300, Note_on_c, 7, 74, 65
10, 21310, Note_on_c, 7, 78, 0
10, 21330, Note_on_c, 7, 78, 82
10, 21349, Note_on_c, 7, 78, 0
10, 21354, Note_on_c, 7, 74, 0
10, 21355, Note_on_c, 7, 69, 0
10, 21360, Note_on_c, 7, 69, 85
10, 21360, Note_on_c, 7, 76, 98
10, 21423, Note_on_c, 7, 76, 0
10, 21423, Note_on_c, 7, 74, 105
10, 21510, Note_on_c, 7, 69, 0
10, 21515, Note_on_c, 7, 74, 0
10, 21537, Note_on_c, 7, 64, 94
10, 21538, Note_on_c, 7, 69, 88
10, 21538, Note_on_c, 7, 73, 105
10, 21670, Note_on_c, 7, 64, 0
10, 21686, Note_on_c, 7, 64, 82
10, 21696, Note_on_c, 7, 73, 0
10, 21701, Note_on_c, 7, 69, 0
10, 21709, Note_on_c, 7, 64, 0
10, 21716, Note_on_c, 7, 73, 101
10, 21716, Note_on_c, 7, 64, 88
10, 21717, Note_on_c, 7, 69, 84
10, 21770, Note_on_c, 7, 73, 0
10, 21772, Note_on_c, 7, 64, 0
10, 21779, Note_on_c, 7, 73, 85
10, 21780, Note_on_c, 7, 64, 82
10, 21826, Note_on_c, 7, 73, 0
10, 21830, Note_on_c, 7, 64, 0
10, 21837, Note_on_c, 7, 64, 60
10, 21838, Note_on_c, 7, 74, 101
10, 21886, Note_on_c, 7, 74, 0
10, 21888, Note_on_c, 7, 69, 0
10, 21897, Note_on_c, 7, 76, 107
10, 21906, Note_on_c, 7, 64, 0
10, 21924, Note_on_c, 7, 76, 0
10, 22016, Note_on_c, 7, 78, 107
10, 22016, Note_on_c, 7, 69, 114
10, 22017, Note_on_c, 7, 74, 82
10, 22215, Note_on_c, 7, 69, 0
10, 22227, Note_on_c, 7, 69, 83
10, 22237, Note_on_c, 7, 74, 0
10, 22255, Note_on_c, 7, 74, 64
10, 22262, Note_on_c, 7, 78, 0
10, 22276, Note_on_c, 7, 69, 0
10, 22281, Note_on_c, 7, 78, 89
10, 22306, Note_on_c, 7, 78, 0
10, 22312, Note_on_c, 7, 74, 0
10, 22317, Note_on_c, 7, 76, 98
10, 22318, Note_on_c, 7, 69, 98
10, 22379, Note_on_c, 7, 74, 105
10, 22386, Note_on_c, 7, 76, 0
10, 22475, Note_on_c, 7, 69, 0
10, 22483, Note_on_c, 7, 74, 0
10, 22499, Note_on_c, 7, 64, 100
10, 22499, Note_on_c, 7, 73, 118
10, 22500, Note_on_c, 7, 69, 83
10, 22669, Note_on_c, 7, 69, 0
10, 22681, Note_on_c, 7, 69, 98
10, 22694, Note_on_c, 7, 73, 0
10, 22728, Note_on_c, 7, 69, 0
10, 22738, Note_on_c, 7, 69, 86
10, 22799, Note_on_c, 7, 71, 96
10, 22859, Note_on_c, 7, 73, 107
10, 22864, Note_on_c, 7, 64, 0
10, 22865, Note_on_c, 7, 71, 0
10, 22867, Note_on_c, 7, 69, 0
10, 22881, Note_on_c, 7, 73, 0
10, 22978, Note_on_c, 7, 74, 113
10, 22979, Note_on_c, 7, 66, 113
10, 22979, Note_on_c, 7, 69, 116
10, 23177, Note_on_c, 7, 66, 0
10, 23188, Note_on_c, 7, 66, 66
10, 23204, Note_on_c, 7, 69, 0
10, 23222, Note_on_c, 7, 69, 64
10, 23227, Note_on_c, 7, 74, 0
10, 23242, Note_on_c, 7, 66, 0
10, 23248, Note_on_c, 7, 74, 86
10, 23271, Note_on_c, 7, 74, 0
10, 23280, Note_on_c, 7, 64, 105
10, 23281, Note_on_c, 7, 73, 96
10, 23334, Note_on_c, 7, 69, 0
10, 23339, Note_on_c, 7, 71, 100
10, 23349, Note_on_c, 7, 73, 0
10, 23439, Note_on_c, 7, 64, 0
10, 23443, Note_on_c, 7, 71, 0
10, 23459, Note_on_c, 7, 69, 109
10, 23460, Note_on_c, 7, 61, 105
10, 23460, Note_on_c, 7, 64, 86
10, 23719, Note_on_c, 7, 61, 0
10, 23730, Note_on_c, 7, 64, 0
10, 23741, Note_on_c, 7, 69, 0
10, 23760, Note_on_c, 7, 73, 111
10, 23761, Note_on_c, 7, 64, 92
10, 23761, Note_on_c, 7, 69, 83
10, 23799, Note_on_c, 7, 64, 0
10, 23803, Note_on_c, 7, 73, 0
10, 23803, Note_on_c, 7, 69, 0
10, 23820, Note_on_c, 7, 64, 100
10, 23821, Note_on_c, 7, 69, 90
10, 23821, Note_on_c, 7, 73, 107
10, 23911, Note_on_c, 7, 73, 0
10, 23919, Note_on_c, 7, 69, 0
10, 23928, Note_on_c, 7, 64, 0
10, 23939, Note_on_c, 7, 64, 84
10, 23940, Note_on_c, 7, 71, 100
10, 23942, Note_on_c, 7, 68, 92
10, 24709, Note_on_c, 7, 71, 0
10, 24710, Note_on_c, 7, 64, 0
10, 24714, Note_on_c, 7, 68, 0
10, 24714, End_track
11, 0, Start_track
11, 0, MIDI_port, 0
11, 0, Title_t, """Heaven Help Us All"""
11, 0, End_track
12, 0, Start_track
12, 0, MIDI_port, 0
12, 0, Title_t, "---by Stevie Wonder"
12, 0, End_track
13, 0, Start_track
13, 0, MIDI_port, 0
13, 0, Title_t, "**sequenced by**"
13, 0, End_track
14, 0, Start_track
14, 0, MIDI_port, 0
14, 0, Title_t, "**K-Vaughn-B**"
14, 0, End_track
0, 0, End_of_file
