0, 0, Header, 1, 8, 96
1, 0, Start_track
1, 0, Title_t, "Lenny Kravitz - Heaven Help"
1, 0, Text_t, "Sequenced by Raul Alonso Lopez - raul@las.es"
1, 0, SMPTE_offset, 96, 0, 3, 0, 0
1, 0, Time_signature, 4, 2, 24, 8
1, 0, Key_signature, 0, "major"
1, 0, Tempo, 681818
1, 0, End_track
2, 0, Start_track
2, 0, MIDI_port, 0
2, 0, Program_c, 2, 0
2, 0, Control_c, 2, 7, 127
2, 0, Note_on_c, 2, 66, 88
2, 0, Note_on_c, 2, 62, 100
2, 0, Note_on_c, 2, 57, 112
2, 0, Note_on_c, 2, 47, 100
2, 106, Note_on_c, 2, 66, 0
2, 107, Note_on_c, 2, 62, 0
2, 111, Note_on_c, 2, 57, 0
2, 112, Note_on_c, 2, 47, 0
2, 141, Note_on_c, 2, 42, 112
2, 141, Note_on_c, 2, 61, 88
2, 142, Note_on_c, 2, 64, 88
2, 142, Note_on_c, 2, 57, 100
2, 308, Note_on_c, 2, 57, 0
2, 313, Note_on_c, 2, 61, 0
2, 318, Note_on_c, 2, 64, 0
2, 347, Note_on_c, 2, 42, 0
2, 373, Note_on_c, 2, 59, 100
2, 373, Note_on_c, 2, 68, 88
2, 374, Note_on_c, 2, 40, 88
2, 374, Note_on_c, 2, 64, 88
2, 420, Note_on_c, 2, 69, 100
2, 445, Note_on_c, 2, 68, 0
2, 451, Note_on_c, 2, 69, 0
2, 462, Note_on_c, 2, 64, 0
2, 469, Note_on_c, 2, 71, 68
2, 503, Note_on_c, 2, 40, 0
2, 503, Note_on_c, 2, 59, 0
2, 507, Note_on_c, 2, 71, 0
2, 521, Note_on_c, 2, 66, 77
2, 522, Note_on_c, 2, 38, 100
2, 522, Note_on_c, 2, 57, 100
2, 523, Note_on_c, 2, 62, 112
2, 615, Note_on_c, 2, 64, 77
2, 621, Note_on_c, 2, 62, 0
2, 628, Note_on_c, 2, 66, 0
2, 638, Note_on_c, 2, 57, 0
2, 665, Note_on_c, 2, 62, 88
2, 678, Note_on_c, 2, 64, 0
2, 716, Note_on_c, 2, 57, 88
2, 717, Note_on_c, 2, 62, 0
2, 730, Note_on_c, 2, 38, 0
2, 739, Note_on_c, 2, 57, 0
2, 767, Note_on_c, 2, 62, 100
2, 768, Note_on_c, 2, 47, 112
2, 769, Note_on_c, 2, 57, 100
2, 769, Note_on_c, 2, 54, 88
2, 878, Note_on_c, 2, 57, 0
2, 885, Note_on_c, 2, 62, 0
2, 887, Note_on_c, 2, 54, 0
2, 892, Note_on_c, 2, 47, 0
2, 907, Note_on_c, 2, 42, 88
2, 908, Note_on_c, 2, 61, 77
2, 908, Note_on_c, 2, 57, 100
2, 909, Note_on_c, 2, 52, 88
2, 1047, Note_on_c, 2, 52, 0
2, 1050, Note_on_c, 2, 57, 0
2, 1058, Note_on_c, 2, 61, 0
2, 1121, Note_on_c, 2, 42, 0
2, 1143, Note_on_c, 2, 68, 100
2, 1143, Note_on_c, 2, 59, 100
2, 1144, Note_on_c, 2, 64, 100
2, 1144, Note_on_c, 2, 40, 100
2, 1220, Note_on_c, 2, 64, 0
2, 1236, Note_on_c, 2, 64, 51
2, 1248, Note_on_c, 2, 68, 0
2, 1262, Note_on_c, 2, 64, 0
2, 1265, Note_on_c, 2, 59, 0
2, 1284, Note_on_c, 2, 40, 0
2, 1292, Note_on_c, 2, 38, 88
2, 1292, Note_on_c, 2, 66, 77
2, 1293, Note_on_c, 2, 57, 100
2, 1294, Note_on_c, 2, 62, 100
2, 1487, Note_on_c, 2, 57, 0
2, 1495, Note_on_c, 2, 62, 0
2, 1497, Note_on_c, 2, 38, 0
2, 1499, Note_on_c, 2, 66, 0
2, 1536, Note_on_c, 2, 54, 51
2, 1537, Note_on_c, 2, 57, 100
2, 1538, Note_on_c, 2, 47, 100
2, 1538, Note_on_c, 2, 62, 112
2, 1856, Note_on_c, 2, 57, 0
2, 1881, Note_on_c, 2, 62, 0
2, 1884, Note_on_c, 2, 47, 0
2, 1888, Note_on_c, 2, 54, 0
2, 1922, Note_on_c, 2, 42, 88
2, 1923, Note_on_c, 2, 61, 60
2, 1924, Note_on_c, 2, 52, 88
2, 1924, Note_on_c, 2, 57, 100
2, 2239, Note_on_c, 2, 57, 0
2, 2240, Note_on_c, 2, 52, 0
2, 2254, Note_on_c, 2, 61, 0
2, 2273, Note_on_c, 2, 42, 0
2, 2298, Note_on_c, 2, 54, 60
2, 2299, Note_on_c, 2, 62, 100
2, 2299, Note_on_c, 2, 47, 100
2, 2300, Note_on_c, 2, 57, 100
2, 2627, Note_on_c, 2, 57, 0
2, 2647, Note_on_c, 2, 62, 0
2, 2651, Note_on_c, 2, 54, 0
2, 2656, Note_on_c, 2, 47, 0
2, 2687, Note_on_c, 2, 61, 60
2, 2687, Note_on_c, 2, 42, 77
2, 2689, Note_on_c, 2, 52, 68
2, 2690, Note_on_c, 2, 57, 100
2, 3010, Note_on_c, 2, 52, 0
2, 3021, Note_on_c, 2, 57, 0
2, 3021, Note_on_c, 2, 61, 0
2, 3036, Note_on_c, 2, 42, 0
2, 3068, Note_on_c, 2, 62, 88
2, 3069, Note_on_c, 2, 47, 100
2, 3070, Note_on_c, 2, 57, 100
2, 3070, Note_on_c, 2, 54, 60
2, 3378, Note_on_c, 2, 47, 0
2, 3380, Note_on_c, 2, 57, 0
2, 3389, Note_on_c, 2, 62, 0
2, 3398, Note_on_c, 2, 54, 0
2, 3449, Note_on_c, 2, 42, 68
2, 3449, Note_on_c, 2, 61, 60
2, 3450, Note_on_c, 2, 57, 112
2, 3451, Note_on_c, 2, 52, 77
2, 3509, Note_on_c, 2, 61, 0
2, 3514, Note_on_c, 2, 57, 0
2, 3517, Note_on_c, 2, 52, 0
2, 3519, Note_on_c, 2, 42, 0
2, 3546, Note_on_c, 2, 56, 77
2, 3547, Note_on_c, 2, 40, 100
2, 3548, Note_on_c, 2, 52, 77
2, 3548, Note_on_c, 2, 59, 88
2, 3603, Note_on_c, 2, 59, 0
2, 3604, Note_on_c, 2, 56, 0
2, 3609, Note_on_c, 2, 52, 0
2, 3612, Note_on_c, 2, 40, 0
2, 3645, Note_on_c, 2, 38, 100
2, 3646, Note_on_c, 2, 54, 88
2, 3647, Note_on_c, 2, 57, 112
2, 3647, Note_on_c, 2, 50, 100
2, 3758, Note_on_c, 2, 50, 0
2, 3761, Note_on_c, 2, 54, 0
2, 3763, Note_on_c, 2, 57, 0
2, 3764, Note_on_c, 2, 38, 0
2, 3792, Note_on_c, 2, 57, 125
2, 3792, Note_on_c, 2, 62, 112
2, 3793, Note_on_c, 2, 38, 100
2, 3793, Note_on_c, 2, 54, 88
2, 4113, Note_on_c, 2, 54, 0
2, 4123, Note_on_c, 2, 57, 0
2, 4132, Note_on_c, 2, 62, 0
2, 4137, Note_on_c, 2, 38, 0
2, 4171, Note_on_c, 2, 61, 112
2, 4172, Note_on_c, 2, 57, 112
2, 4173, Note_on_c, 2, 64, 88
2, 4173, Note_on_c, 2, 38, 112
2, 4574, Note_on_c, 2, 61, 0
2, 4575, Note_on_c, 2, 57, 0
2, 4575, Note_on_c, 2, 64, 0
2, 4577, Note_on_c, 2, 38, 0
2, 4605, Note_on_c, 2, 47, 112
2, 4605, Note_on_c, 2, 57, 100
2, 4605, Note_on_c, 2, 62, 112
2, 4605, Note_on_c, 2, 66, 77
2, 4750, Note_on_c, 2, 42, 100
2, 4751, Note_on_c, 2, 61, 112
2, 4751, Note_on_c, 2, 57, 100
2, 4752, Note_on_c, 2, 64, 88
2, 4893, Note_on_c, 2, 66, 0
2, 4893, Note_on_c, 2, 62, 0
2, 4930, Note_on_c, 2, 47, 0
2, 4930, Note_on_c, 2, 57, 0
2, 4939, Note_on_c, 2, 64, 0
2, 4943, Note_on_c, 2, 61, 0
2, 4949, Note_on_c, 2, 42, 0
2, 4984, Note_on_c, 2, 47, 112
2, 4984, Note_on_c, 2, 57, 100
2, 4985, Note_on_c, 2, 62, 112
2, 4986, Note_on_c, 2, 66, 88
2, 5039, Note_on_c, 2, 57, 0
2, 5134, Note_on_c, 2, 42, 88
2, 5135, Note_on_c, 2, 61, 112
2, 5136, Note_on_c, 2, 57, 100
2, 5136, Note_on_c, 2, 64, 100
2, 5200, Note_on_c, 2, 64, 0
2, 5201, Note_on_c, 2, 61, 0
2, 5226, Note_on_c, 2, 52, 100
2, 5272, Note_on_c, 2, 47, 0
2, 5272, Note_on_c, 2, 57, 112
2, 5274, Note_on_c, 2, 66, 0
2, 5277, Note_on_c, 2, 62, 0
2, 5280, Note_on_c, 2, 52, 0
2, 5334, Note_on_c, 2, 42, 0
2, 5342, Note_on_c, 2, 57, 0
2, 5367, Note_on_c, 2, 54, 100
2, 5368, Note_on_c, 2, 47, 112
2, 5368, Note_on_c, 2, 57, 112
2, 5369, Note_on_c, 2, 62, 112
2, 5477, Note_on_c, 2, 54, 0
2, 5516, Note_on_c, 2, 61, 77
2, 5516, Note_on_c, 2, 42, 88
2, 5517, Note_on_c, 2, 52, 88
2, 5517, Note_on_c, 2, 57, 112
2, 5698, Note_on_c, 2, 61, 0
2, 5702, Note_on_c, 2, 57, 0
2, 5704, Note_on_c, 2, 42, 0
2, 5710, Note_on_c, 2, 52, 0
2, 5718, Note_on_c, 2, 57, 0
2, 5749, Note_on_c, 2, 40, 112
2, 5749, Note_on_c, 2, 52, 88
2, 5750, Note_on_c, 2, 55, 112
2, 5750, Note_on_c, 2, 59, 112
2, 5863, Note_on_c, 2, 52, 0
2, 5867, Note_on_c, 2, 55, 0
2, 5867, Note_on_c, 2, 40, 0
2, 5870, Note_on_c, 2, 59, 0
2, 5895, Note_on_c, 2, 47, 0
2, 5901, Note_on_c, 2, 45, 112
2, 5902, Note_on_c, 2, 57, 112
2, 5902, Note_on_c, 2, 61, 100
2, 5903, Note_on_c, 2, 52, 77
2, 6110, Note_on_c, 2, 52, 0
2, 6110, Note_on_c, 2, 57, 0
2, 6111, Note_on_c, 2, 45, 0
2, 6114, Note_on_c, 2, 61, 0
2, 6138, Note_on_c, 2, 62, 0
2, 6141, Note_on_c, 2, 57, 0
2, 6141, Note_on_c, 2, 47, 112
2, 6142, Note_on_c, 2, 57, 100
2, 6143, Note_on_c, 2, 66, 88
2, 6143, Note_on_c, 2, 62, 100
2, 6281, Note_on_c, 2, 42, 88
2, 6281, Note_on_c, 2, 61, 100
2, 6282, Note_on_c, 2, 57, 100
2, 6282, Note_on_c, 2, 64, 100
2, 6490, Note_on_c, 2, 61, 0
2, 6491, Note_on_c, 2, 64, 0
2, 6495, Note_on_c, 2, 42, 0
2, 6524, Note_on_c, 2, 57, 0
2, 6524, Note_on_c, 2, 47, 100
2, 6525, Note_on_c, 2, 57, 112
2, 6526, Note_on_c, 2, 62, 100
2, 6526, Note_on_c, 2, 66, 88
2, 6670, Note_on_c, 2, 42, 100
2, 6670, Note_on_c, 2, 61, 88
2, 6671, Note_on_c, 2, 57, 112
2, 6671, Note_on_c, 2, 64, 88
2, 6847, Note_on_c, 2, 57, 0
2, 6848, Note_on_c, 2, 66, 0
2, 6853, Note_on_c, 2, 57, 0
2, 6855, Note_on_c, 2, 61, 0
2, 6856, Note_on_c, 2, 64, 0
2, 6859, Note_on_c, 2, 42, 0
2, 6896, Note_on_c, 2, 62, 0
2, 6901, Note_on_c, 2, 47, 0
2, 6905, Note_on_c, 2, 40, 100
2, 6906, Note_on_c, 2, 55, 125
2, 6906, Note_on_c, 2, 59, 112
2, 6907, Note_on_c, 2, 62, 112
2, 7006, Note_on_c, 2, 55, 0
2, 7010, Note_on_c, 2, 40, 0
2, 7012, Note_on_c, 2, 59, 0
2, 7044, Note_on_c, 2, 62, 0
2, 7055, Note_on_c, 2, 38, 112
2, 7055, Note_on_c, 2, 57, 100
2, 7056, Note_on_c, 2, 62, 112
2, 7056, Note_on_c, 2, 66, 100
2, 7189, Note_on_c, 2, 57, 0
2, 7191, Note_on_c, 2, 62, 0
2, 7192, Note_on_c, 2, 66, 0
2, 7202, Note_on_c, 2, 38, 0
2, 7204, Note_on_c, 2, 57, 0
2, 7242, Note_on_c, 2, 62, 0
2, 7243, Note_on_c, 2, 57, 0
2, 7243, Note_on_c, 2, 38, 100
2, 7243, Note_on_c, 2, 50, 112
2, 7244, Note_on_c, 2, 54, 100
2, 7244, Note_on_c, 2, 57, 112
2, 7245, Note_on_c, 2, 62, 100
2, 7285, Note_on_c, 2, 66, 0
2, 7292, Note_on_c, 2, 47, 0
2, 7616, Note_on_c, 2, 57, 0
2, 7640, Note_on_c, 2, 50, 0
2, 7643, Note_on_c, 2, 54, 0
2, 7645, Note_on_c, 2, 38, 0
2, 7666, Note_on_c, 2, 62, 0
2, 7680, Note_on_c, 2, 47, 100
2, 7722, Note_on_c, 2, 54, 68
2, 7773, Note_on_c, 2, 57, 88
2, 7774, Note_on_c, 2, 62, 100
2, 7812, Note_on_c, 2, 54, 0
2, 7818, Note_on_c, 2, 61, 68
2, 7819, Note_on_c, 2, 57, 68
2, 7821, Note_on_c, 2, 42, 60
2, 7823, Note_on_c, 2, 52, 77
2, 7886, Note_on_c, 2, 57, 0
2, 7953, Note_on_c, 2, 57, 0
2, 7964, Note_on_c, 2, 62, 0
2, 7972, Note_on_c, 2, 52, 0
2, 7978, Note_on_c, 2, 61, 0
2, 7993, Note_on_c, 2, 42, 0
2, 8057, Note_on_c, 2, 68, 51
2, 8059, Note_on_c, 2, 40, 88
2, 8060, Note_on_c, 2, 59, 88
2, 8060, Note_on_c, 2, 64, 77
2, 8107, Note_on_c, 2, 69, 112
2, 8130, Note_on_c, 2, 68, 0
2, 8134, Note_on_c, 2, 69, 0
2, 8148, Note_on_c, 2, 47, 0
2, 8149, Note_on_c, 2, 40, 0
2, 8153, Note_on_c, 2, 71, 88
2, 8164, Note_on_c, 2, 64, 0
2, 8184, Note_on_c, 2, 59, 0
2, 8189, Note_on_c, 2, 71, 0
2, 8202, Note_on_c, 2, 66, 68
2, 8204, Note_on_c, 2, 62, 88
2, 8205, Note_on_c, 2, 38, 88
2, 8205, Note_on_c, 2, 57, 77
2, 8338, Note_on_c, 2, 62, 0
2, 8348, Note_on_c, 2, 66, 0
2, 8348, Note_on_c, 2, 57, 0
2, 8387, Note_on_c, 2, 38, 0
2, 8438, Note_on_c, 2, 47, 100
2, 8438, Note_on_c, 2, 66, 88
2, 8439, Note_on_c, 2, 57, 100
2, 8440, Note_on_c, 2, 62, 100
2, 8541, Note_on_c, 2, 47, 0
2, 8564, Note_on_c, 2, 57, 0
2, 8590, Note_on_c, 2, 61, 100
2, 8590, Note_on_c, 2, 64, 88
2, 8591, Note_on_c, 2, 42, 88
2, 8591, Note_on_c, 2, 57, 88
2, 8627, Note_on_c, 2, 66, 0
2, 8633, Note_on_c, 2, 62, 0
2, 8761, Note_on_c, 2, 61, 0
2, 8761, Note_on_c, 2, 64, 0
2, 8761, Note_on_c, 2, 57, 0
2, 8763, Note_on_c, 2, 42, 0
2, 8823, Note_on_c, 2, 68, 51
2, 8823, Note_on_c, 2, 40, 68
2, 8824, Note_on_c, 2, 59, 88
2, 8824, Note_on_c, 2, 64, 77
2, 8894, Note_on_c, 2, 64, 0
2, 8921, Note_on_c, 2, 64, 60
2, 8937, Note_on_c, 2, 68, 0
2, 8941, Note_on_c, 2, 40, 0
2, 8960, Note_on_c, 2, 59, 0
2, 8971, Note_on_c, 2, 64, 0
2, 8971, Note_on_c, 2, 38, 77
2, 8971, Note_on_c, 2, 66, 15
2, 8972, Note_on_c, 2, 62, 68
2, 8974, Note_on_c, 2, 57, 100
2, 9107, Note_on_c, 2, 57, 0
2, 9112, Note_on_c, 2, 66, 0
2, 9201, Note_on_c, 2, 38, 0
2, 9213, Note_on_c, 2, 66, 88
2, 9213, Note_on_c, 2, 47, 112
2, 9213, Note_on_c, 2, 57, 100
2, 9213, Note_on_c, 2, 62, 100
2, 9244, Note_on_c, 2, 62, 0
2, 9404, Note_on_c, 2, 57, 0
2, 9438, Note_on_c, 2, 66, 0
2, 9453, Note_on_c, 2, 62, 0
2, 9531, Note_on_c, 2, 47, 0
2, 9601, Note_on_c, 2, 61, 100
2, 9601, Note_on_c, 2, 64, 60
2, 9602, Note_on_c, 2, 57, 100
2, 9602, Note_on_c, 2, 42, 100
2, 9786, Note_on_c, 2, 57, 0
2, 9840, Note_on_c, 2, 64, 0
2, 9843, Note_on_c, 2, 57, 112
2, 9852, Note_on_c, 2, 61, 0
2, 9908, Note_on_c, 2, 59, 100
2, 9967, Note_on_c, 2, 42, 0
2, 9970, Note_on_c, 2, 59, 0
2, 9971, Note_on_c, 2, 62, 100
2, 9972, Note_on_c, 2, 57, 112
2, 9972, Note_on_c, 2, 66, 68
2, 9973, Note_on_c, 2, 47, 100
2, 9977, Note_on_c, 2, 57, 0
2, 10122, Note_on_c, 2, 62, 0
2, 10126, Note_on_c, 2, 66, 0
2, 10129, Note_on_c, 2, 57, 0
2, 10190, Note_on_c, 2, 47, 0
2, 10362, Note_on_c, 2, 42, 68
2, 10363, Note_on_c, 2, 61, 68
2, 10365, Note_on_c, 2, 64, 77
2, 10365, Note_on_c, 2, 57, 100
2, 10505, Note_on_c, 2, 57, 0
2, 10605, Note_on_c, 2, 52, 88
2, 10740, Note_on_c, 2, 61, 0
2, 10741, Note_on_c, 2, 52, 0
2, 10743, Note_on_c, 2, 64, 0
2, 10745, Note_on_c, 2, 66, 77
2, 10746, Note_on_c, 2, 62, 100
2, 10747, Note_on_c, 2, 47, 112
2, 10747, Note_on_c, 2, 57, 112
2, 10749, Note_on_c, 2, 42, 0
2, 10873, Note_on_c, 2, 57, 0
2, 10875, Note_on_c, 2, 62, 0
2, 10890, Note_on_c, 2, 66, 0
2, 10955, Note_on_c, 2, 47, 0
2, 11129, Note_on_c, 2, 61, 100
2, 11130, Note_on_c, 2, 57, 112
2, 11130, Note_on_c, 2, 42, 100
2, 11131, Note_on_c, 2, 64, 88
2, 11190, Note_on_c, 2, 61, 0
2, 11192, Note_on_c, 2, 64, 0
2, 11221, Note_on_c, 2, 42, 0
2, 11227, Note_on_c, 2, 68, 100
2, 11228, Note_on_c, 2, 59, 100
2, 11228, Note_on_c, 2, 64, 88
2, 11229, Note_on_c, 2, 40, 88
2, 11266, Note_on_c, 2, 57, 0
2, 11289, Note_on_c, 2, 59, 0
2, 11297, Note_on_c, 2, 64, 0
2, 11302, Note_on_c, 2, 68, 0
2, 11306, Note_on_c, 2, 40, 0
2, 11325, Note_on_c, 2, 38, 88
2, 11326, Note_on_c, 2, 66, 100
2, 11326, Note_on_c, 2, 69, 100
2, 11327, Note_on_c, 2, 62, 100
2, 11437, Note_on_c, 2, 62, 0
2, 11449, Note_on_c, 2, 66, 0
2, 11450, Note_on_c, 2, 69, 0
2, 11454, Note_on_c, 2, 38, 0
2, 11470, Note_on_c, 2, 62, 112
2, 11471, Note_on_c, 2, 66, 100
2, 11471, Note_on_c, 2, 38, 100
2, 11474, Note_on_c, 2, 57, 100
2, 11618, Note_on_c, 2, 62, 0
2, 11626, Note_on_c, 2, 66, 0
2, 11626, Note_on_c, 2, 57, 0
2, 11824, Note_on_c, 2, 38, 0
2, 11850, Note_on_c, 2, 57, 112
2, 11851, Note_on_c, 2, 62, 125
2, 11851, Note_on_c, 2, 66, 112
2, 11852, Note_on_c, 2, 38, 125
2, 11853, Note_on_c, 2, 50, 112
2, 12016, Note_on_c, 2, 57, 0
2, 12027, Note_on_c, 2, 38, 0
2, 12097, Note_on_c, 2, 50, 0
2, 12103, Note_on_c, 2, 66, 0
2, 12108, Note_on_c, 2, 62, 0
2, 12285, Note_on_c, 2, 47, 112
2, 12285, Note_on_c, 2, 57, 100
2, 12285, Note_on_c, 2, 62, 112
2, 12285, Note_on_c, 2, 66, 77
2, 12396, Note_on_c, 2, 47, 0
2, 12430, Note_on_c, 2, 42, 100
2, 12431, Note_on_c, 2, 61, 112
2, 12431, Note_on_c, 2, 57, 100
2, 12432, Note_on_c, 2, 64, 88
2, 12498, Note_on_c, 2, 62, 0
2, 12499, Note_on_c, 2, 66, 0
2, 12619, Note_on_c, 2, 64, 0
2, 12623, Note_on_c, 2, 61, 0
2, 12629, Note_on_c, 2, 42, 0
2, 12664, Note_on_c, 2, 47, 112
2, 12664, Note_on_c, 2, 57, 100
2, 12665, Note_on_c, 2, 62, 112
2, 12666, Note_on_c, 2, 66, 88
2, 12789, Note_on_c, 2, 47, 0
2, 12814, Note_on_c, 2, 42, 88
2, 12815, Note_on_c, 2, 61, 112
2, 12816, Note_on_c, 2, 57, 100
2, 12816, Note_on_c, 2, 64, 100
2, 12871, Note_on_c, 2, 62, 0
2, 12880, Note_on_c, 2, 64, 0
2, 12881, Note_on_c, 2, 61, 0
2, 12906, Note_on_c, 2, 52, 100
2, 12926, Note_on_c, 2, 57, 0
2, 12949, Note_on_c, 2, 66, 0
2, 12952, Note_on_c, 2, 57, 112
2, 12960, Note_on_c, 2, 52, 0
2, 13014, Note_on_c, 2, 42, 0
2, 13022, Note_on_c, 2, 57, 0
2, 13047, Note_on_c, 2, 54, 100
2, 13048, Note_on_c, 2, 47, 112
2, 13048, Note_on_c, 2, 57, 112
2, 13049, Note_on_c, 2, 62, 112
2, 13066, Note_on_c, 2, 57, 0
2, 13153, Note_on_c, 2, 57, 0
2, 13157, Note_on_c, 2, 54, 0
2, 13196, Note_on_c, 2, 61, 77
2, 13196, Note_on_c, 2, 42, 88
2, 13197, Note_on_c, 2, 52, 88
2, 13197, Note_on_c, 2, 57, 112
2, 13206, Note_on_c, 2, 57, 0
2, 13232, Note_on_c, 2, 62, 0
2, 13244, Note_on_c, 2, 47, 0
2, 13360, Note_on_c, 2, 57, 0
2, 13378, Note_on_c, 2, 61, 0
2, 13382, Note_on_c, 2, 57, 0
2, 13384, Note_on_c, 2, 42, 0
2, 13390, Note_on_c, 2, 52, 0
2, 13429, Note_on_c, 2, 40, 112
2, 13429, Note_on_c, 2, 52, 88
2, 13430, Note_on_c, 2, 55, 112
2, 13430, Note_on_c, 2, 59, 112
2, 13543, Note_on_c, 2, 52, 0
2, 13547, Note_on_c, 2, 40, 0
2, 13547, Note_on_c, 2, 55, 0
2, 13550, Note_on_c, 2, 59, 0
2, 13581, Note_on_c, 2, 45, 112
2, 13582, Note_on_c, 2, 57, 112
2, 13582, Note_on_c, 2, 61, 100
2, 13583, Note_on_c, 2, 52, 77
2, 13790, Note_on_c, 2, 52, 0
2, 13791, Note_on_c, 2, 45, 0
2, 13794, Note_on_c, 2, 61, 0
2, 13821, Note_on_c, 2, 47, 112
2, 13822, Note_on_c, 2, 57, 100
2, 13823, Note_on_c, 2, 66, 88
2, 13823, Note_on_c, 2, 62, 100
2, 13961, Note_on_c, 2, 42, 88
2, 13961, Note_on_c, 2, 61, 100
2, 13962, Note_on_c, 2, 57, 100
2, 13962, Note_on_c, 2, 64, 100
2, 13964, Note_on_c, 2, 62, 0
2, 14005, Note_on_c, 2, 57, 0
2, 14059, Note_on_c, 2, 57, 0
2, 14060, Note_on_c, 2, 66, 0
2, 14102, Note_on_c, 2, 47, 0
2, 14170, Note_on_c, 2, 61, 0
2, 14171, Note_on_c, 2, 64, 0
2, 14175, Note_on_c, 2, 42, 0
2, 14204, Note_on_c, 2, 47, 100
2, 14205, Note_on_c, 2, 57, 112
2, 14206, Note_on_c, 2, 62, 100
2, 14206, Note_on_c, 2, 66, 88
2, 14338, Note_on_c, 2, 62, 0
2, 14340, Note_on_c, 2, 57, 0
2, 14350, Note_on_c, 2, 42, 100
2, 14350, Note_on_c, 2, 61, 88
2, 14351, Note_on_c, 2, 57, 112
2, 14351, Note_on_c, 2, 64, 88
2, 14512, Note_on_c, 2, 57, 0
2, 14522, Note_on_c, 2, 66, 0
2, 14533, Note_on_c, 2, 57, 0
2, 14535, Note_on_c, 2, 61, 0
2, 14536, Note_on_c, 2, 64, 0
2, 14539, Note_on_c, 2, 42, 0
2, 14585, Note_on_c, 2, 40, 100
2, 14586, Note_on_c, 2, 55, 125
2, 14586, Note_on_c, 2, 59, 112
2, 14587, Note_on_c, 2, 62, 112
2, 14684, Note_on_c, 2, 47, 0
2, 14686, Note_on_c, 2, 55, 0
2, 14690, Note_on_c, 2, 40, 0
2, 14692, Note_on_c, 2, 59, 0
2, 14727, Note_on_c, 2, 62, 0
2, 14735, Note_on_c, 2, 38, 112
2, 14735, Note_on_c, 2, 57, 100
2, 14736, Note_on_c, 2, 62, 112
2, 14736, Note_on_c, 2, 66, 100
2, 14838, Note_on_c, 2, 57, 0
2, 14882, Note_on_c, 2, 38, 0
2, 14908, Note_on_c, 2, 62, 0
2, 14923, Note_on_c, 2, 38, 100
2, 14923, Note_on_c, 2, 50, 112
2, 14924, Note_on_c, 2, 54, 100
2, 14924, Note_on_c, 2, 57, 112
2, 14925, Note_on_c, 2, 62, 100
2, 15066, Note_on_c, 2, 62, 0
2, 15107, Note_on_c, 2, 57, 0
2, 15108, Note_on_c, 2, 38, 0
2, 15260, Note_on_c, 2, 66, 0
2, 15305, Note_on_c, 2, 50, 0
2, 15357, Note_on_c, 2, 47, 112
2, 15403, Note_on_c, 2, 54, 68
2, 15455, Note_on_c, 2, 62, 100
2, 15455, Note_on_c, 2, 57, 100
2, 15484, Note_on_c, 2, 54, 0
2, 15501, Note_on_c, 2, 61, 68
2, 15503, Note_on_c, 2, 57, 112
2, 15503, Note_on_c, 2, 52, 100
2, 15504, Note_on_c, 2, 42, 100
2, 15576, Note_on_c, 2, 57, 0
2, 15579, Note_on_c, 2, 62, 0
2, 15628, Note_on_c, 2, 57, 0
2, 15652, Note_on_c, 2, 52, 0
2, 15678, Note_on_c, 2, 61, 0
2, 15729, Note_on_c, 2, 42, 0
2, 15740, Note_on_c, 2, 40, 88
2, 15741, Note_on_c, 2, 68, 88
2, 15742, Note_on_c, 2, 59, 112
2, 15742, Note_on_c, 2, 64, 100
2, 15790, Note_on_c, 2, 69, 100
2, 15804, Note_on_c, 2, 68, 0
2, 15818, Note_on_c, 2, 69, 0
2, 15826, Note_on_c, 2, 64, 0
2, 15831, Note_on_c, 2, 47, 0
2, 15839, Note_on_c, 2, 71, 88
2, 15857, Note_on_c, 2, 40, 0
2, 15866, Note_on_c, 2, 71, 0
2, 15867, Note_on_c, 2, 59, 0
2, 15887, Note_on_c, 2, 66, 77
2, 15888, Note_on_c, 2, 62, 100
2, 15889, Note_on_c, 2, 38, 112
2, 15889, Note_on_c, 2, 57, 88
2, 16068, Note_on_c, 2, 57, 0
2, 16119, Note_on_c, 2, 47, 112
2, 16123, Note_on_c, 2, 62, 0
2, 16167, Note_on_c, 2, 38, 0
2, 16167, Note_on_c, 2, 54, 88
2, 16216, Note_on_c, 2, 62, 100
2, 16219, Note_on_c, 2, 57, 100
2, 16250, Note_on_c, 2, 54, 0
2, 16267, Note_on_c, 2, 42, 88
2, 16267, Note_on_c, 2, 61, 77
2, 16269, Note_on_c, 2, 57, 100
2, 16269, Note_on_c, 2, 52, 100
2, 16313, Note_on_c, 2, 66, 0
2, 16360, Note_on_c, 2, 54, 0
2, 16443, Note_on_c, 2, 52, 0
2, 16446, Note_on_c, 2, 42, 0
2, 16446, Note_on_c, 2, 61, 0
2, 16456, Note_on_c, 2, 62, 0
2, 16475, Note_on_c, 2, 57, 0
2, 16503, Note_on_c, 2, 47, 0
2, 16505, Note_on_c, 2, 40, 100
2, 16506, Note_on_c, 2, 55, 112
2, 16506, Note_on_c, 2, 59, 100
2, 16507, Note_on_c, 2, 62, 100
2, 16511, Note_on_c, 2, 57, 0
2, 16653, Note_on_c, 2, 45, 112
2, 16654, Note_on_c, 2, 52, 100
2, 16654, Note_on_c, 2, 61, 100
2, 16655, Note_on_c, 2, 57, 100
2, 16664, Note_on_c, 2, 59, 0
2, 16700, Note_on_c, 2, 55, 0
2, 16701, Note_on_c, 2, 40, 0
2, 16747, Note_on_c, 2, 62, 0
2, 16872, Note_on_c, 2, 52, 0
2, 16877, Note_on_c, 2, 61, 0
2, 16877, Note_on_c, 2, 45, 0
2, 16895, Note_on_c, 2, 50, 112
2, 16896, Note_on_c, 2, 57, 112
2, 16896, Note_on_c, 2, 62, 112
2, 16897, Note_on_c, 2, 66, 112
2, 16937, Note_on_c, 2, 57, 0
2, 17130, Note_on_c, 2, 57, 0
2, 17132, Note_on_c, 2, 50, 0
2, 17180, Note_on_c, 2, 62, 0
2, 17280, Note_on_c, 2, 49, 112
2, 17280, Note_on_c, 2, 56, 100
2, 17281, Note_on_c, 2, 61, 88
2, 17282, Note_on_c, 2, 65, 100
2, 17374, Note_on_c, 2, 66, 0
2, 17600, Note_on_c, 2, 65, 0
2, 17602, Note_on_c, 2, 61, 0
2, 17614, Note_on_c, 2, 49, 0
2, 17615, Note_on_c, 2, 56, 0
2, 17661, Note_on_c, 2, 49, 100
2, 17661, Note_on_c, 2, 56, 88
2, 17662, Note_on_c, 2, 59, 100
2, 17663, Note_on_c, 2, 64, 88
2, 18003, Note_on_c, 2, 64, 0
2, 18017, Note_on_c, 2, 56, 0
2, 18021, Note_on_c, 2, 49, 0
2, 18043, Note_on_c, 2, 42, 77
2, 18043, Note_on_c, 2, 61, 88
2, 18044, Note_on_c, 2, 57, 125
2, 18044, Note_on_c, 2, 64, 100
2, 18140, Note_on_c, 2, 57, 0
2, 18393, Note_on_c, 2, 42, 0
2, 18394, Note_on_c, 2, 61, 0
2, 18395, Note_on_c, 2, 64, 0
2, 18428, Note_on_c, 2, 59, 0
2, 18428, Note_on_c, 2, 62, 112
2, 18429, Note_on_c, 2, 55, 112
2, 18429, Note_on_c, 2, 59, 112
2, 18430, Note_on_c, 2, 40, 100
2, 18573, Note_on_c, 2, 61, 100
2, 18573, Note_on_c, 2, 64, 100
2, 18574, Note_on_c, 2, 57, 112
2, 18574, Note_on_c, 2, 45, 112
2, 18616, Note_on_c, 2, 62, 0
2, 18708, Note_on_c, 2, 40, 0
2, 18709, Note_on_c, 2, 55, 0
2, 18709, Note_on_c, 2, 59, 0
2, 18710, Note_on_c, 2, 64, 0
2, 18713, Note_on_c, 2, 61, 0
2, 18734, Note_on_c, 2, 45, 0
2, 18754, Note_on_c, 2, 57, 0
2, 18760, Note_on_c, 2, 38, 112
2, 18761, Note_on_c, 2, 54, 100
2, 18761, Note_on_c, 2, 62, 112
2, 18762, Note_on_c, 2, 57, 112
2, 18762, Note_on_c, 2, 50, 112
2, 18903, Note_on_c, 2, 57, 0
2, 18904, Note_on_c, 2, 62, 0
2, 19050, Note_on_c, 2, 50, 0
2, 19106, Note_on_c, 2, 38, 0
2, 19147, Note_on_c, 2, 54, 0
2, 19147, Note_on_c, 2, 38, 100
2, 19147, Note_on_c, 2, 57, 112
2, 19148, Note_on_c, 2, 62, 112
2, 19148, Note_on_c, 2, 54, 77
2, 19149, Note_on_c, 2, 50, 125
2, 19312, Note_on_c, 2, 57, 0
2, 19390, Note_on_c, 2, 62, 0
2, 19498, Note_on_c, 2, 50, 0
2, 19530, Note_on_c, 2, 38, 0
2, 19531, Note_on_c, 2, 54, 0
2, 19581, Note_on_c, 2, 47, 112
2, 19581, Note_on_c, 2, 57, 100
2, 19581, Note_on_c, 2, 62, 112
2, 19581, Note_on_c, 2, 66, 77
2, 19726, Note_on_c, 2, 42, 100
2, 19727, Note_on_c, 2, 61, 112
2, 19727, Note_on_c, 2, 57, 100
2, 19728, Note_on_c, 2, 64, 88
2, 19772, Note_on_c, 2, 47, 0
2, 19773, Note_on_c, 2, 66, 0
2, 19773, Note_on_c, 2, 62, 0
2, 19915, Note_on_c, 2, 64, 0
2, 19919, Note_on_c, 2, 61, 0
2, 19925, Note_on_c, 2, 42, 0
2, 19960, Note_on_c, 2, 47, 112
2, 19960, Note_on_c, 2, 57, 100
2, 19961, Note_on_c, 2, 62, 112
2, 19962, Note_on_c, 2, 66, 88
2, 20059, Note_on_c, 2, 47, 0
2, 20110, Note_on_c, 2, 42, 88
2, 20111, Note_on_c, 2, 61, 112
2, 20112, Note_on_c, 2, 57, 100
2, 20112, Note_on_c, 2, 64, 100
2, 20154, Note_on_c, 2, 62, 0
2, 20176, Note_on_c, 2, 64, 0
2, 20177, Note_on_c, 2, 61, 0
2, 20202, Note_on_c, 2, 52, 100
2, 20222, Note_on_c, 2, 57, 0
2, 20245, Note_on_c, 2, 66, 0
2, 20248, Note_on_c, 2, 57, 112
2, 20256, Note_on_c, 2, 52, 0
2, 20310, Note_on_c, 2, 42, 0
2, 20318, Note_on_c, 2, 57, 0
2, 20343, Note_on_c, 2, 57, 0
2, 20343, Note_on_c, 2, 54, 100
2, 20344, Note_on_c, 2, 47, 112
2, 20344, Note_on_c, 2, 57, 112
2, 20345, Note_on_c, 2, 62, 112
2, 20492, Note_on_c, 2, 61, 77
2, 20492, Note_on_c, 2, 42, 88
2, 20493, Note_on_c, 2, 52, 88
2, 20493, Note_on_c, 2, 57, 112
2, 20502, Note_on_c, 2, 57, 0
2, 20528, Note_on_c, 2, 62, 0
2, 20541, Note_on_c, 2, 47, 0
2, 20572, Note_on_c, 2, 54, 0
2, 20636, Note_on_c, 2, 57, 0
2, 20674, Note_on_c, 2, 61, 0
2, 20678, Note_on_c, 2, 57, 0
2, 20680, Note_on_c, 2, 42, 0
2, 20686, Note_on_c, 2, 52, 0
2, 20725, Note_on_c, 2, 40, 112
2, 20725, Note_on_c, 2, 52, 88
2, 20726, Note_on_c, 2, 55, 112
2, 20726, Note_on_c, 2, 59, 112
2, 20824, Note_on_c, 2, 40, 0
2, 20825, Note_on_c, 2, 55, 0
2, 20825, Note_on_c, 2, 59, 0
2, 20877, Note_on_c, 2, 45, 112
2, 20878, Note_on_c, 2, 57, 112
2, 20878, Note_on_c, 2, 61, 100
2, 20879, Note_on_c, 2, 52, 77
2, 21086, Note_on_c, 2, 52, 0
2, 21087, Note_on_c, 2, 45, 0
2, 21090, Note_on_c, 2, 61, 0
2, 21117, Note_on_c, 2, 57, 0
2, 21117, Note_on_c, 2, 47, 112
2, 21118, Note_on_c, 2, 57, 100
2, 21119, Note_on_c, 2, 66, 88
2, 21119, Note_on_c, 2, 62, 100
2, 21135, Note_on_c, 2, 52, 0
2, 21257, Note_on_c, 2, 42, 88
2, 21257, Note_on_c, 2, 61, 100
2, 21258, Note_on_c, 2, 57, 100
2, 21258, Note_on_c, 2, 64, 100
2, 21260, Note_on_c, 2, 62, 0
2, 21301, Note_on_c, 2, 57, 0
2, 21355, Note_on_c, 2, 57, 0
2, 21398, Note_on_c, 2, 66, 0
2, 21403, Note_on_c, 2, 47, 0
2, 21466, Note_on_c, 2, 61, 0
2, 21467, Note_on_c, 2, 64, 0
2, 21471, Note_on_c, 2, 42, 0
2, 21500, Note_on_c, 2, 47, 100
2, 21501, Note_on_c, 2, 57, 112
2, 21502, Note_on_c, 2, 62, 100
2, 21502, Note_on_c, 2, 66, 88
2, 21634, Note_on_c, 2, 62, 0
2, 21640, Note_on_c, 2, 57, 0
2, 21646, Note_on_c, 2, 42, 100
2, 21646, Note_on_c, 2, 61, 88
2, 21647, Note_on_c, 2, 57, 112
2, 21647, Note_on_c, 2, 64, 88
2, 21738, Note_on_c, 2, 47, 0
2, 21791, Note_on_c, 2, 66, 0
2, 21810, Note_on_c, 2, 57, 0
2, 21829, Note_on_c, 2, 57, 0
2, 21831, Note_on_c, 2, 61, 0
2, 21832, Note_on_c, 2, 64, 0
2, 21835, Note_on_c, 2, 42, 0
2, 21881, Note_on_c, 2, 40, 100
2, 21882, Note_on_c, 2, 55, 125
2, 21882, Note_on_c, 2, 59, 112
2, 21883, Note_on_c, 2, 62, 112
2, 21981, Note_on_c, 2, 59, 0
2, 21981, Note_on_c, 2, 40, 0
2, 22031, Note_on_c, 2, 38, 112
2, 22031, Note_on_c, 2, 57, 100
2, 22032, Note_on_c, 2, 62, 112
2, 22032, Note_on_c, 2, 66, 100
2, 22036, Note_on_c, 2, 62, 0
2, 22041, Note_on_c, 2, 55, 0
2, 22132, Note_on_c, 2, 38, 0
2, 22137, Note_on_c, 2, 62, 0
2, 22140, Note_on_c, 2, 66, 0
2, 22156, Note_on_c, 2, 57, 0
2, 22219, Note_on_c, 2, 38, 100
2, 22219, Note_on_c, 2, 50, 112
2, 22220, Note_on_c, 2, 54, 100
2, 22220, Note_on_c, 2, 57, 112
2, 22221, Note_on_c, 2, 62, 100
2, 22316, Note_on_c, 2, 57, 0
2, 22378, Note_on_c, 2, 50, 0
2, 22394, Note_on_c, 2, 54, 0
2, 22401, Note_on_c, 2, 62, 0
2, 22418, Note_on_c, 2, 38, 0
2, 22654, Note_on_c, 2, 47, 112
2, 22698, Note_on_c, 2, 54, 88
2, 22747, Note_on_c, 2, 62, 100
2, 22748, Note_on_c, 2, 57, 112
2, 22794, Note_on_c, 2, 61, 60
2, 22796, Note_on_c, 2, 57, 68
2, 22796, Note_on_c, 2, 42, 88
2, 22797, Note_on_c, 2, 52, 100
2, 22798, Note_on_c, 2, 54, 0
2, 22847, Note_on_c, 2, 62, 0
2, 22937, Note_on_c, 2, 47, 0
2, 22967, Note_on_c, 2, 61, 0
2, 23026, Note_on_c, 2, 42, 0
2, 23036, Note_on_c, 2, 68, 68
2, 23038, Note_on_c, 2, 40, 88
2, 23038, Note_on_c, 2, 59, 100
2, 23039, Note_on_c, 2, 64, 88
2, 23084, Note_on_c, 2, 69, 100
2, 23113, Note_on_c, 2, 69, 0
2, 23129, Note_on_c, 2, 71, 88
2, 23159, Note_on_c, 2, 71, 0
2, 23179, Note_on_c, 2, 66, 88
2, 23180, Note_on_c, 2, 38, 112
2, 23181, Note_on_c, 2, 57, 100
2, 23181, Note_on_c, 2, 62, 100
2, 23223, Note_on_c, 2, 68, 0
2, 23282, Note_on_c, 2, 64, 68
2, 23292, Note_on_c, 2, 66, 0
2, 23323, Note_on_c, 2, 62, 88
2, 23327, Note_on_c, 2, 57, 0
2, 23342, Note_on_c, 2, 64, 0
2, 23350, Note_on_c, 2, 38, 0
2, 23363, Note_on_c, 2, 62, 0
2, 23373, Note_on_c, 2, 57, 100
2, 23420, Note_on_c, 2, 47, 112
2, 23467, Note_on_c, 2, 54, 77
2, 23468, Note_on_c, 2, 62, 0
2, 23516, Note_on_c, 2, 62, 100
2, 23518, Note_on_c, 2, 57, 100
2, 23558, Note_on_c, 2, 57, 0
2, 23561, Note_on_c, 2, 61, 68
2, 23564, Note_on_c, 2, 57, 88
2, 23565, Note_on_c, 2, 42, 100
2, 23566, Note_on_c, 2, 52, 77
2, 23626, Note_on_c, 2, 57, 0
2, 23668, Note_on_c, 2, 62, 0
2, 23707, Note_on_c, 2, 57, 0
2, 23733, Note_on_c, 2, 57, 0
2, 23733, Note_on_c, 2, 52, 0
2, 23743, Note_on_c, 2, 61, 0
2, 23800, Note_on_c, 2, 59, 0
2, 23800, Note_on_c, 2, 42, 0
2, 23800, Note_on_c, 2, 56, 68
2, 23801, Note_on_c, 2, 40, 0
2, 23801, Note_on_c, 2, 64, 0
2, 23801, Note_on_c, 2, 59, 100
2, 23802, Note_on_c, 2, 64, 77
2, 23802, Note_on_c, 2, 40, 88
2, 23898, Note_on_c, 2, 56, 0
2, 23950, Note_on_c, 2, 38, 100
2, 23950, Note_on_c, 2, 57, 112
2, 23951, Note_on_c, 2, 54, 88
2, 23952, Note_on_c, 2, 62, 100
2, 24046, Note_on_c, 2, 38, 0
2, 24192, Note_on_c, 2, 47, 112
2, 24234, Note_on_c, 2, 54, 88
2, 24252, Note_on_c, 2, 47, 0
2, 24284, Note_on_c, 2, 62, 100
2, 24284, Note_on_c, 2, 57, 112
2, 24316, Note_on_c, 2, 54, 0
2, 24323, Note_on_c, 2, 57, 0
2, 24333, Note_on_c, 2, 42, 68
2, 24333, Note_on_c, 2, 61, 68
2, 24334, Note_on_c, 2, 57, 88
2, 24336, Note_on_c, 2, 52, 88
2, 24487, Note_on_c, 2, 52, 0
2, 24502, Note_on_c, 2, 61, 0
2, 24550, Note_on_c, 2, 42, 0
2, 24568, Note_on_c, 2, 40, 0
2, 24568, Note_on_c, 2, 68, 60
2, 24569, Note_on_c, 2, 59, 0
2, 24569, Note_on_c, 2, 40, 88
2, 24570, Note_on_c, 2, 64, 0
2, 24570, Note_on_c, 2, 59, 100
2, 24571, Note_on_c, 2, 64, 88
2, 24616, Note_on_c, 2, 69, 112
2, 24636, Note_on_c, 2, 47, 0
2, 24645, Note_on_c, 2, 69, 0
2, 24664, Note_on_c, 2, 71, 88
2, 24700, Note_on_c, 2, 71, 0
2, 24710, Note_on_c, 2, 38, 68
2, 24711, Note_on_c, 2, 66, 77
2, 24713, Note_on_c, 2, 62, 88
2, 24714, Note_on_c, 2, 57, 77
2, 24732, Note_on_c, 2, 62, 0
2, 24779, Note_on_c, 2, 54, 0
2, 24811, Note_on_c, 2, 64, 77
2, 24854, Note_on_c, 2, 62, 88
2, 24867, Note_on_c, 2, 64, 0
2, 24904, Note_on_c, 2, 57, 0
2, 24905, Note_on_c, 2, 57, 88
2, 24954, Note_on_c, 2, 47, 100
2, 25003, Note_on_c, 2, 54, 88
2, 25053, Note_on_c, 2, 62, 100
2, 25054, Note_on_c, 2, 57, 100
2, 25077, Note_on_c, 2, 54, 0
2, 25090, Note_on_c, 2, 62, 0
2, 25094, Note_on_c, 2, 57, 0
2, 25100, Note_on_c, 2, 61, 77
2, 25101, Note_on_c, 2, 57, 100
2, 25101, Note_on_c, 2, 42, 88
2, 25103, Note_on_c, 2, 52, 88
2, 25116, Note_on_c, 2, 57, 0
2, 25116, Note_on_c, 2, 66, 0
2, 25116, Note_on_c, 2, 62, 0
2, 25211, Note_on_c, 2, 68, 0
2, 25258, Note_on_c, 2, 38, 0
2, 25263, Note_on_c, 2, 57, 0
2, 25264, Note_on_c, 2, 52, 0
2, 25275, Note_on_c, 2, 61, 0
2, 25280, Note_on_c, 2, 42, 0
2, 25308, Note_on_c, 2, 62, 0
2, 25308, Note_on_c, 2, 57, 0
2, 25338, Note_on_c, 2, 40, 0
2, 25339, Note_on_c, 2, 59, 0
2, 25339, Note_on_c, 2, 64, 0
2, 25339, Note_on_c, 2, 56, 77
2, 25339, Note_on_c, 2, 40, 112
2, 25340, Note_on_c, 2, 59, 88
2, 25340, Note_on_c, 2, 64, 77
2, 25399, Note_on_c, 2, 47, 0
2, 25487, Note_on_c, 2, 38, 88
2, 25488, Note_on_c, 2, 54, 100
2, 25488, Note_on_c, 2, 57, 112
2, 25489, Note_on_c, 2, 62, 100
2, 25495, Note_on_c, 2, 57, 0
2, 25496, Note_on_c, 2, 62, 0
2, 25500, Note_on_c, 2, 57, 0
2, 25547, Note_on_c, 2, 54, 0
2, 25675, Note_on_c, 2, 50, 68
2, 25676, Note_on_c, 2, 45, 77
2, 25684, Note_on_c, 2, 52, 0
2, 25879, Note_on_c, 2, 57, 0
2, 25880, Note_on_c, 2, 40, 0
2, 25880, Note_on_c, 2, 62, 0
2, 25881, Note_on_c, 2, 59, 0
2, 25975, Note_on_c, 2, 56, 0
2, 25982, Note_on_c, 2, 64, 0
2, 26026, Note_on_c, 2, 38, 0
2, 26027, Note_on_c, 2, 54, 0
2, 26218, Note_on_c, 2, 50, 0
2, 26315, Note_on_c, 2, 45, 0
2, 26315, End_track
3, 0, Start_track
3, 0, MIDI_port, 0
3, 0, Control_c, 9, 7, 127
3, 1440, Note_on_c, 9, 44, 80
3, 1440, Note_on_c, 9, 51, 72
3, 1440, Note_on_c, 9, 46, 50
3, 1464, Note_on_c, 9, 46, 0
3, 1464, Note_on_c, 9, 51, 0
3, 1464, Note_on_c, 9, 44, 0
3, 1536, Note_on_c, 9, 42, 72
3, 1536, Note_on_c, 9, 35, 100
3, 1540, Note_on_c, 9, 42, 0
3, 1560, Note_on_c, 9, 35, 0
3, 1584, Note_on_c, 9, 42, 48
3, 1588, Note_on_c, 9, 42, 0
3, 1632, Note_on_c, 9, 42, 72
3, 1632, Note_on_c, 9, 40, 115
3, 1636, Note_on_c, 9, 42, 0
3, 1656, Note_on_c, 9, 40, 0
3, 1680, Note_on_c, 9, 42, 50
3, 1684, Note_on_c, 9, 42, 0
3, 1728, Note_on_c, 9, 42, 72
3, 1728, Note_on_c, 9, 35, 84
3, 1732, Note_on_c, 9, 42, 0
3, 1752, Note_on_c, 9, 35, 0
3, 1776, Note_on_c, 9, 42, 50
3, 1780, Note_on_c, 9, 42, 0
3, 1824, Note_on_c, 9, 42, 72
3, 1824, Note_on_c, 9, 40, 115
3, 1828, Note_on_c, 9, 42, 0
3, 1848, Note_on_c, 9, 40, 0
3, 1872, Note_on_c, 9, 42, 50
3, 1876, Note_on_c, 9, 42, 0
3, 1920, Note_on_c, 9, 42, 64
3, 1920, Note_on_c, 9, 35, 90
3, 1924, Note_on_c, 9, 42, 0
3, 1944, Note_on_c, 9, 35, 0
3, 1968, Note_on_c, 9, 42, 50
3, 1972, Note_on_c, 9, 42, 0
3, 2016, Note_on_c, 9, 42, 72
3, 2016, Note_on_c, 9, 40, 115
3, 2020, Note_on_c, 9, 42, 0
3, 2040, Note_on_c, 9, 40, 0
3, 2064, Note_on_c, 9, 42, 50
3, 2068, Note_on_c, 9, 42, 0
3, 2112, Note_on_c, 9, 42, 72
3, 2112, Note_on_c, 9, 35, 100
3, 2116, Note_on_c, 9, 42, 0
3, 2136, Note_on_c, 9, 35, 0
3, 2160, Note_on_c, 9, 42, 50
3, 2164, Note_on_c, 9, 42, 0
3, 2208, Note_on_c, 9, 42, 72
3, 2208, Note_on_c, 9, 40, 115
3, 2212, Note_on_c, 9, 42, 0
3, 2232, Note_on_c, 9, 40, 0
3, 2256, Note_on_c, 9, 42, 50
3, 2260, Note_on_c, 9, 42, 0
3, 2304, Note_on_c, 9, 42, 72
3, 2304, Note_on_c, 9, 35, 100
3, 2308, Note_on_c, 9, 42, 0
3, 2328, Note_on_c, 9, 35, 0
3, 2352, Note_on_c, 9, 42, 48
3, 2356, Note_on_c, 9, 42, 0
3, 2400, Note_on_c, 9, 42, 72
3, 2400, Note_on_c, 9, 40, 115
3, 2404, Note_on_c, 9, 42, 0
3, 2424, Note_on_c, 9, 40, 0
3, 2448, Note_on_c, 9, 42, 50
3, 2452, Note_on_c, 9, 42, 0
3, 2496, Note_on_c, 9, 42, 72
3, 2496, Note_on_c, 9, 35, 84
3, 2500, Note_on_c, 9, 42, 0
3, 2520, Note_on_c, 9, 35, 0
3, 2544, Note_on_c, 9, 42, 50
3, 2548, Note_on_c, 9, 42, 0
3, 2592, Note_on_c, 9, 42, 72
3, 2592, Note_on_c, 9, 40, 115
3, 2596, Note_on_c, 9, 42, 0
3, 2616, Note_on_c, 9, 40, 0
3, 2640, Note_on_c, 9, 42, 50
3, 2644, Note_on_c, 9, 42, 0
3, 2688, Note_on_c, 9, 42, 64
3, 2688, Note_on_c, 9, 35, 90
3, 2692, Note_on_c, 9, 42, 0
3, 2712, Note_on_c, 9, 35, 0
3, 2736, Note_on_c, 9, 42, 50
3, 2740, Note_on_c, 9, 42, 0
3, 2784, Note_on_c, 9, 42, 72
3, 2784, Note_on_c, 9, 40, 115
3, 2788, Note_on_c, 9, 42, 0
3, 2808, Note_on_c, 9, 40, 0
3, 2832, Note_on_c, 9, 42, 50
3, 2836, Note_on_c, 9, 42, 0
3, 2880, Note_on_c, 9, 42, 72
3, 2880, Note_on_c, 9, 35, 100
3, 2884, Note_on_c, 9, 42, 0
3, 2904, Note_on_c, 9, 35, 0
3, 2928, Note_on_c, 9, 42, 50
3, 2932, Note_on_c, 9, 42, 0
3, 2976, Note_on_c, 9, 42, 72
3, 2976, Note_on_c, 9, 40, 115
3, 2980, Note_on_c, 9, 42, 0
3, 3000, Note_on_c, 9, 40, 0
3, 3024, Note_on_c, 9, 42, 50
3, 3028, Note_on_c, 9, 42, 0
3, 3072, Note_on_c, 9, 42, 72
3, 3072, Note_on_c, 9, 35, 100
3, 3076, Note_on_c, 9, 42, 0
3, 3096, Note_on_c, 9, 35, 0
3, 3120, Note_on_c, 9, 42, 48
3, 3124, Note_on_c, 9, 42, 0
3, 3168, Note_on_c, 9, 42, 72
3, 3168, Note_on_c, 9, 40, 115
3, 3172, Note_on_c, 9, 42, 0
3, 3192, Note_on_c, 9, 40, 0
3, 3216, Note_on_c, 9, 42, 50
3, 3220, Note_on_c, 9, 42, 0
3, 3264, Note_on_c, 9, 42, 72
3, 3264, Note_on_c, 9, 35, 84
3, 3268, Note_on_c, 9, 42, 0
3, 3288, Note_on_c, 9, 35, 0
3, 3312, Note_on_c, 9, 42, 50
3, 3316, Note_on_c, 9, 42, 0
3, 3360, Note_on_c, 9, 42, 72
3, 3360, Note_on_c, 9, 40, 115
3, 3364, Note_on_c, 9, 42, 0
3, 3384, Note_on_c, 9, 40, 0
3, 3408, Note_on_c, 9, 42, 50
3, 3412, Note_on_c, 9, 42, 0
3, 3456, Note_on_c, 9, 42, 64
3, 3456, Note_on_c, 9, 35, 90
3, 3460, Note_on_c, 9, 42, 0
3, 3480, Note_on_c, 9, 35, 0
3, 3504, Note_on_c, 9, 42, 50
3, 3508, Note_on_c, 9, 42, 0
3, 3552, Note_on_c, 9, 42, 72
3, 3552, Note_on_c, 9, 40, 115
3, 3556, Note_on_c, 9, 42, 0
3, 3576, Note_on_c, 9, 40, 0
3, 3600, Note_on_c, 9, 42, 50
3, 3604, Note_on_c, 9, 42, 0
3, 3648, Note_on_c, 9, 42, 72
3, 3648, Note_on_c, 9, 35, 100
3, 3652, Note_on_c, 9, 42, 0
3, 3672, Note_on_c, 9, 35, 0
3, 3696, Note_on_c, 9, 42, 50
3, 3700, Note_on_c, 9, 42, 0
3, 3744, Note_on_c, 9, 42, 72
3, 3744, Note_on_c, 9, 40, 115
3, 3748, Note_on_c, 9, 42, 0
3, 3768, Note_on_c, 9, 40, 0
3, 3792, Note_on_c, 9, 46, 77
3, 3792, Note_on_c, 9, 49, 76
3, 3792, Note_on_c, 9, 42, 50
3, 3796, Note_on_c, 9, 42, 0
3, 3816, Note_on_c, 9, 49, 0
3, 3816, Note_on_c, 9, 46, 0
3, 3840, Note_on_c, 9, 42, 72
3, 3840, Note_on_c, 9, 35, 100
3, 3844, Note_on_c, 9, 42, 0
3, 3864, Note_on_c, 9, 35, 0
3, 3888, Note_on_c, 9, 42, 48
3, 3892, Note_on_c, 9, 42, 0
3, 3936, Note_on_c, 9, 42, 72
3, 3936, Note_on_c, 9, 40, 115
3, 3940, Note_on_c, 9, 42, 0
3, 3960, Note_on_c, 9, 40, 0
3, 3984, Note_on_c, 9, 42, 50
3, 3988, Note_on_c, 9, 42, 0
3, 4032, Note_on_c, 9, 42, 72
3, 4032, Note_on_c, 9, 35, 84
3, 4036, Note_on_c, 9, 42, 0
3, 4056, Note_on_c, 9, 35, 0
3, 4080, Note_on_c, 9, 42, 50
3, 4084, Note_on_c, 9, 42, 0
3, 4128, Note_on_c, 9, 42, 72
3, 4128, Note_on_c, 9, 40, 115
3, 4132, Note_on_c, 9, 42, 0
3, 4152, Note_on_c, 9, 40, 0
3, 4176, Note_on_c, 9, 46, 69
3, 4176, Note_on_c, 9, 49, 72
3, 4176, Note_on_c, 9, 42, 50
3, 4180, Note_on_c, 9, 42, 0
3, 4200, Note_on_c, 9, 49, 0
3, 4200, Note_on_c, 9, 46, 0
3, 4224, Note_on_c, 9, 42, 64
3, 4224, Note_on_c, 9, 35, 90
3, 4224, Note_on_c, 9, 3, 52
3, 4224, Note_on_c, 9, 88, 127
3, 4225, Note_on_c, 9, 42, 0
3, 4244, Note_on_c, 9, 88, 0
3, 4244, Note_on_c, 9, 3, 0
3, 4245, Note_on_c, 9, 35, 0
3, 4269, Note_on_c, 9, 42, 50
3, 4273, Note_on_c, 9, 42, 0
3, 4317, Note_on_c, 9, 42, 72
3, 4317, Note_on_c, 9, 40, 115
3, 4321, Note_on_c, 9, 42, 0
3, 4341, Note_on_c, 9, 40, 0
3, 4365, Note_on_c, 9, 42, 50
3, 4369, Note_on_c, 9, 42, 0
3, 4413, Note_on_c, 9, 42, 72
3, 4413, Note_on_c, 9, 35, 100
3, 4417, Note_on_c, 9, 42, 0
3, 4437, Note_on_c, 9, 35, 0
3, 4461, Note_on_c, 9, 42, 50
3, 4465, Note_on_c, 9, 42, 0
3, 4509, Note_on_c, 9, 42, 72
3, 4509, Note_on_c, 9, 40, 115
3, 4513, Note_on_c, 9, 42, 0
3, 4533, Note_on_c, 9, 40, 0
3, 4557, Note_on_c, 9, 42, 50
3, 4561, Note_on_c, 9, 42, 0
3, 4605, Note_on_c, 9, 42, 72
3, 4605, Note_on_c, 9, 35, 100
3, 4609, Note_on_c, 9, 42, 0
3, 4629, Note_on_c, 9, 35, 0
3, 4653, Note_on_c, 9, 42, 48
3, 4657, Note_on_c, 9, 42, 0
3, 4701, Note_on_c, 9, 42, 72
3, 4701, Note_on_c, 9, 40, 115
3, 4705, Note_on_c, 9, 42, 0
3, 4725, Note_on_c, 9, 40, 0
3, 4749, Note_on_c, 9, 42, 50
3, 4753, Note_on_c, 9, 42, 0
3, 4797, Note_on_c, 9, 42, 72
3, 4797, Note_on_c, 9, 35, 84
3, 4801, Note_on_c, 9, 42, 0
3, 4821, Note_on_c, 9, 35, 0
3, 4845, Note_on_c, 9, 42, 50
3, 4849, Note_on_c, 9, 42, 0
3, 4893, Note_on_c, 9, 42, 72
3, 4893, Note_on_c, 9, 40, 115
3, 4897, Note_on_c, 9, 42, 0
3, 4917, Note_on_c, 9, 40, 0
3, 4941, Note_on_c, 9, 42, 50
3, 4945, Note_on_c, 9, 42, 0
3, 4989, Note_on_c, 9, 42, 64
3, 4989, Note_on_c, 9, 35, 90
3, 4993, Note_on_c, 9, 42, 0
3, 5013, Note_on_c, 9, 35, 0
3, 5037, Note_on_c, 9, 42, 50
3, 5041, Note_on_c, 9, 42, 0
3, 5085, Note_on_c, 9, 42, 72
3, 5085, Note_on_c, 9, 40, 115
3, 5089, Note_on_c, 9, 42, 0
3, 5109, Note_on_c, 9, 40, 0
3, 5133, Note_on_c, 9, 42, 50
3, 5137, Note_on_c, 9, 42, 0
3, 5181, Note_on_c, 9, 42, 72
3, 5181, Note_on_c, 9, 35, 100
3, 5185, Note_on_c, 9, 42, 0
3, 5205, Note_on_c, 9, 35, 0
3, 5229, Note_on_c, 9, 42, 50
3, 5233, Note_on_c, 9, 42, 0
3, 5277, Note_on_c, 9, 42, 72
3, 5277, Note_on_c, 9, 40, 115
3, 5281, Note_on_c, 9, 42, 0
3, 5301, Note_on_c, 9, 40, 0
3, 5325, Note_on_c, 9, 42, 50
3, 5329, Note_on_c, 9, 42, 0
3, 5373, Note_on_c, 9, 42, 72
3, 5373, Note_on_c, 9, 35, 100
3, 5377, Note_on_c, 9, 42, 0
3, 5397, Note_on_c, 9, 35, 0
3, 5421, Note_on_c, 9, 42, 48
3, 5425, Note_on_c, 9, 42, 0
3, 5469, Note_on_c, 9, 42, 72
3, 5469, Note_on_c, 9, 40, 115
3, 5473, Note_on_c, 9, 42, 0
3, 5493, Note_on_c, 9, 40, 0
3, 5517, Note_on_c, 9, 42, 50
3, 5521, Note_on_c, 9, 42, 0
3, 5565, Note_on_c, 9, 42, 72
3, 5565, Note_on_c, 9, 35, 84
3, 5569, Note_on_c, 9, 42, 0
3, 5589, Note_on_c, 9, 35, 0
3, 5613, Note_on_c, 9, 42, 50
3, 5617, Note_on_c, 9, 42, 0
3, 5661, Note_on_c, 9, 42, 72
3, 5661, Note_on_c, 9, 40, 115
3, 5665, Note_on_c, 9, 42, 0
3, 5685, Note_on_c, 9, 40, 0
3, 5709, Note_on_c, 9, 42, 50
3, 5713, Note_on_c, 9, 42, 0
3, 5757, Note_on_c, 9, 42, 64
3, 5757, Note_on_c, 9, 35, 90
3, 5761, Note_on_c, 9, 42, 0
3, 5781, Note_on_c, 9, 35, 0
3, 5805, Note_on_c, 9, 42, 50
3, 5809, Note_on_c, 9, 42, 0
3, 5853, Note_on_c, 9, 42, 72
3, 5853, Note_on_c, 9, 40, 115
3, 5857, Note_on_c, 9, 42, 0
3, 5877, Note_on_c, 9, 40, 0
3, 5901, Note_on_c, 9, 42, 50
3, 5905, Note_on_c, 9, 42, 0
3, 5949, Note_on_c, 9, 42, 72
3, 5949, Note_on_c, 9, 35, 100
3, 5953, Note_on_c, 9, 42, 0
3, 5973, Note_on_c, 9, 35, 0
3, 5997, Note_on_c, 9, 42, 50
3, 6001, Note_on_c, 9, 42, 0
3, 6045, Note_on_c, 9, 42, 72
3, 6045, Note_on_c, 9, 40, 115
3, 6049, Note_on_c, 9, 42, 0
3, 6069, Note_on_c, 9, 40, 0
3, 6093, Note_on_c, 9, 42, 50
3, 6097, Note_on_c, 9, 42, 0
3, 6141, Note_on_c, 9, 42, 72
3, 6141, Note_on_c, 9, 35, 100
3, 6145, Note_on_c, 9, 42, 0
3, 6165, Note_on_c, 9, 35, 0
3, 6189, Note_on_c, 9, 42, 48
3, 6193, Note_on_c, 9, 42, 0
3, 6237, Note_on_c, 9, 42, 72
3, 6237, Note_on_c, 9, 40, 115
3, 6241, Note_on_c, 9, 42, 0
3, 6261, Note_on_c, 9, 40, 0
3, 6285, Note_on_c, 9, 42, 50
3, 6289, Note_on_c, 9, 42, 0
3, 6333, Note_on_c, 9, 42, 72
3, 6333, Note_on_c, 9, 35, 84
3, 6337, Note_on_c, 9, 42, 0
3, 6357, Note_on_c, 9, 35, 0
3, 6381, Note_on_c, 9, 42, 50
3, 6385, Note_on_c, 9, 42, 0
3, 6429, Note_on_c, 9, 42, 72
3, 6429, Note_on_c, 9, 40, 115
3, 6433, Note_on_c, 9, 42, 0
3, 6453, Note_on_c, 9, 40, 0
3, 6477, Note_on_c, 9, 42, 50
3, 6481, Note_on_c, 9, 42, 0
3, 6525, Note_on_c, 9, 42, 64
3, 6525, Note_on_c, 9, 35, 90
3, 6529, Note_on_c, 9, 42, 0
3, 6549, Note_on_c, 9, 35, 0
3, 6573, Note_on_c, 9, 42, 50
3, 6577, Note_on_c, 9, 42, 0
3, 6621, Note_on_c, 9, 42, 72
3, 6621, Note_on_c, 9, 40, 115
3, 6625, Note_on_c, 9, 42, 0
3, 6645, Note_on_c, 9, 40, 0
3, 6669, Note_on_c, 9, 42, 50
3, 6673, Note_on_c, 9, 42, 0
3, 6717, Note_on_c, 9, 42, 72
3, 6717, Note_on_c, 9, 35, 100
3, 6721, Note_on_c, 9, 42, 0
3, 6741, Note_on_c, 9, 35, 0
3, 6765, Note_on_c, 9, 42, 50
3, 6769, Note_on_c, 9, 42, 0
3, 6813, Note_on_c, 9, 42, 72
3, 6813, Note_on_c, 9, 40, 115
3, 6817, Note_on_c, 9, 42, 0
3, 6837, Note_on_c, 9, 40, 0
3, 6861, Note_on_c, 9, 42, 50
3, 6865, Note_on_c, 9, 42, 0
3, 6909, Note_on_c, 9, 42, 72
3, 6909, Note_on_c, 9, 35, 100
3, 6913, Note_on_c, 9, 42, 0
3, 6933, Note_on_c, 9, 35, 0
3, 6957, Note_on_c, 9, 42, 48
3, 6961, Note_on_c, 9, 42, 0
3, 7005, Note_on_c, 9, 42, 72
3, 7005, Note_on_c, 9, 40, 115
3, 7009, Note_on_c, 9, 42, 0
3, 7029, Note_on_c, 9, 40, 0
3, 7053, Note_on_c, 9, 42, 50
3, 7057, Note_on_c, 9, 42, 0
3, 7101, Note_on_c, 9, 42, 72
3, 7101, Note_on_c, 9, 35, 84
3, 7105, Note_on_c, 9, 42, 0
3, 7125, Note_on_c, 9, 35, 0
3, 7149, Note_on_c, 9, 42, 50
3, 7153, Note_on_c, 9, 42, 0
3, 7197, Note_on_c, 9, 42, 72
3, 7197, Note_on_c, 9, 40, 115
3, 7201, Note_on_c, 9, 42, 0
3, 7221, Note_on_c, 9, 40, 0
3, 7245, Note_on_c, 9, 44, 50
3, 7245, Note_on_c, 9, 46, 88
3, 7245, Note_on_c, 9, 49, 80
3, 7245, Note_on_c, 9, 42, 50
3, 7249, Note_on_c, 9, 42, 0
3, 7269, Note_on_c, 9, 44, 0
3, 7269, Note_on_c, 9, 46, 0
3, 7269, Note_on_c, 9, 49, 0
3, 7677, Note_on_c, 9, 51, 50
3, 7677, Note_on_c, 9, 49, 56
3, 7677, Note_on_c, 9, 42, 72
3, 7677, Note_on_c, 9, 35, 100
3, 7681, Note_on_c, 9, 42, 0
3, 7701, Note_on_c, 9, 51, 0
3, 7701, Note_on_c, 9, 49, 0
3, 7701, Note_on_c, 9, 35, 0
3, 7725, Note_on_c, 9, 42, 48
3, 7729, Note_on_c, 9, 42, 0
3, 7773, Note_on_c, 9, 42, 72
3, 7773, Note_on_c, 9, 40, 115
3, 7777, Note_on_c, 9, 42, 0
3, 7797, Note_on_c, 9, 40, 0
3, 7821, Note_on_c, 9, 42, 50
3, 7825, Note_on_c, 9, 42, 0
3, 7869, Note_on_c, 9, 42, 72
3, 7869, Note_on_c, 9, 35, 84
3, 7873, Note_on_c, 9, 42, 0
3, 7893, Note_on_c, 9, 35, 0
3, 7917, Note_on_c, 9, 42, 50
3, 7921, Note_on_c, 9, 42, 0
3, 7965, Note_on_c, 9, 42, 72
3, 7965, Note_on_c, 9, 40, 115
3, 7969, Note_on_c, 9, 42, 0
3, 7989, Note_on_c, 9, 40, 0
3, 8013, Note_on_c, 9, 42, 50
3, 8017, Note_on_c, 9, 42, 0
3, 8061, Note_on_c, 9, 42, 64
3, 8061, Note_on_c, 9, 35, 90
3, 8065, Note_on_c, 9, 42, 0
3, 8085, Note_on_c, 9, 35, 0
3, 8109, Note_on_c, 9, 42, 50
3, 8113, Note_on_c, 9, 42, 0
3, 8157, Note_on_c, 9, 42, 72
3, 8157, Note_on_c, 9, 40, 115
3, 8161, Note_on_c, 9, 42, 0
3, 8181, Note_on_c, 9, 40, 0
3, 8205, Note_on_c, 9, 42, 50
3, 8209, Note_on_c, 9, 42, 0
3, 8253, Note_on_c, 9, 42, 72
3, 8253, Note_on_c, 9, 35, 100
3, 8257, Note_on_c, 9, 42, 0
3, 8277, Note_on_c, 9, 35, 0
3, 8301, Note_on_c, 9, 42, 50
3, 8305, Note_on_c, 9, 42, 0
3, 8349, Note_on_c, 9, 42, 72
3, 8349, Note_on_c, 9, 40, 115
3, 8353, Note_on_c, 9, 42, 0
3, 8373, Note_on_c, 9, 40, 0
3, 8397, Note_on_c, 9, 42, 50
3, 8401, Note_on_c, 9, 42, 0
3, 8445, Note_on_c, 9, 42, 72
3, 8445, Note_on_c, 9, 35, 100
3, 8449, Note_on_c, 9, 42, 0
3, 8469, Note_on_c, 9, 35, 0
3, 8493, Note_on_c, 9, 42, 48
3, 8497, Note_on_c, 9, 42, 0
3, 8541, Note_on_c, 9, 42, 72
3, 8541, Note_on_c, 9, 40, 115
3, 8545, Note_on_c, 9, 42, 0
3, 8565, Note_on_c, 9, 40, 0
3, 8589, Note_on_c, 9, 42, 50
3, 8593, Note_on_c, 9, 42, 0
3, 8637, Note_on_c, 9, 42, 72
3, 8637, Note_on_c, 9, 35, 84
3, 8641, Note_on_c, 9, 42, 0
3, 8661, Note_on_c, 9, 35, 0
3, 8685, Note_on_c, 9, 42, 50
3, 8689, Note_on_c, 9, 42, 0
3, 8733, Note_on_c, 9, 42, 72
3, 8733, Note_on_c, 9, 40, 115
3, 8737, Note_on_c, 9, 42, 0
3, 8757, Note_on_c, 9, 40, 0
3, 8781, Note_on_c, 9, 42, 50
3, 8785, Note_on_c, 9, 42, 0
3, 8829, Note_on_c, 9, 42, 64
3, 8829, Note_on_c, 9, 35, 90
3, 8833, Note_on_c, 9, 42, 0
3, 8853, Note_on_c, 9, 35, 0
3, 8877, Note_on_c, 9, 42, 50
3, 8881, Note_on_c, 9, 42, 0
3, 8925, Note_on_c, 9, 42, 72
3, 8925, Note_on_c, 9, 40, 115
3, 8929, Note_on_c, 9, 42, 0
3, 8949, Note_on_c, 9, 40, 0
3, 8973, Note_on_c, 9, 42, 50
3, 8977, Note_on_c, 9, 42, 0
3, 9021, Note_on_c, 9, 42, 72
3, 9021, Note_on_c, 9, 35, 100
3, 9025, Note_on_c, 9, 42, 0
3, 9045, Note_on_c, 9, 35, 0
3, 9069, Note_on_c, 9, 42, 50
3, 9073, Note_on_c, 9, 42, 0
3, 9117, Note_on_c, 9, 42, 72
3, 9117, Note_on_c, 9, 40, 115
3, 9121, Note_on_c, 9, 42, 0
3, 9141, Note_on_c, 9, 40, 0
3, 9165, Note_on_c, 9, 42, 50
3, 9169, Note_on_c, 9, 42, 0
3, 9213, Note_on_c, 9, 42, 72
3, 9213, Note_on_c, 9, 35, 100
3, 9217, Note_on_c, 9, 42, 0
3, 9237, Note_on_c, 9, 35, 0
3, 9261, Note_on_c, 9, 42, 48
3, 9265, Note_on_c, 9, 42, 0
3, 9309, Note_on_c, 9, 42, 72
3, 9309, Note_on_c, 9, 40, 115
3, 9313, Note_on_c, 9, 42, 0
3, 9333, Note_on_c, 9, 40, 0
3, 9357, Note_on_c, 9, 42, 50
3, 9361, Note_on_c, 9, 42, 0
3, 9405, Note_on_c, 9, 42, 72
3, 9405, Note_on_c, 9, 35, 84
3, 9409, Note_on_c, 9, 42, 0
3, 9429, Note_on_c, 9, 35, 0
3, 9453, Note_on_c, 9, 42, 50
3, 9457, Note_on_c, 9, 42, 0
3, 9501, Note_on_c, 9, 42, 72
3, 9501, Note_on_c, 9, 40, 115
3, 9505, Note_on_c, 9, 42, 0
3, 9525, Note_on_c, 9, 40, 0
3, 9549, Note_on_c, 9, 42, 50
3, 9553, Note_on_c, 9, 42, 0
3, 9597, Note_on_c, 9, 42, 64
3, 9597, Note_on_c, 9, 35, 90
3, 9601, Note_on_c, 9, 42, 0
3, 9621, Note_on_c, 9, 35, 0
3, 9645, Note_on_c, 9, 42, 50
3, 9649, Note_on_c, 9, 42, 0
3, 9693, Note_on_c, 9, 42, 72
3, 9693, Note_on_c, 9, 40, 115
3, 9697, Note_on_c, 9, 42, 0
3, 9717, Note_on_c, 9, 40, 0
3, 9741, Note_on_c, 9, 42, 50
3, 9745, Note_on_c, 9, 42, 0
3, 9789, Note_on_c, 9, 42, 72
3, 9789, Note_on_c, 9, 35, 100
3, 9793, Note_on_c, 9, 42, 0
3, 9813, Note_on_c, 9, 35, 0
3, 9837, Note_on_c, 9, 42, 50
3, 9841, Note_on_c, 9, 42, 0
3, 9885, Note_on_c, 9, 42, 72
3, 9885, Note_on_c, 9, 40, 115
3, 9889, Note_on_c, 9, 42, 0
3, 9909, Note_on_c, 9, 40, 0
3, 9933, Note_on_c, 9, 42, 50
3, 9937, Note_on_c, 9, 42, 0
3, 9981, Note_on_c, 9, 42, 72
3, 9981, Note_on_c, 9, 35, 100
3, 9985, Note_on_c, 9, 42, 0
3, 10005, Note_on_c, 9, 35, 0
3, 10029, Note_on_c, 9, 42, 48
3, 10033, Note_on_c, 9, 42, 0
3, 10077, Note_on_c, 9, 42, 72
3, 10077, Note_on_c, 9, 40, 115
3, 10081, Note_on_c, 9, 42, 0
3, 10101, Note_on_c, 9, 40, 0
3, 10125, Note_on_c, 9, 42, 50
3, 10129, Note_on_c, 9, 42, 0
3, 10173, Note_on_c, 9, 42, 72
3, 10173, Note_on_c, 9, 35, 84
3, 10177, Note_on_c, 9, 42, 0
3, 10197, Note_on_c, 9, 35, 0
3, 10221, Note_on_c, 9, 42, 50
3, 10225, Note_on_c, 9, 42, 0
3, 10269, Note_on_c, 9, 42, 72
3, 10269, Note_on_c, 9, 40, 115
3, 10273, Note_on_c, 9, 42, 0
3, 10293, Note_on_c, 9, 40, 0
3, 10317, Note_on_c, 9, 42, 50
3, 10321, Note_on_c, 9, 42, 0
3, 10365, Note_on_c, 9, 42, 64
3, 10365, Note_on_c, 9, 35, 90
3, 10369, Note_on_c, 9, 42, 0
3, 10389, Note_on_c, 9, 35, 0
3, 10413, Note_on_c, 9, 42, 50
3, 10417, Note_on_c, 9, 42, 0
3, 10461, Note_on_c, 9, 42, 72
3, 10461, Note_on_c, 9, 40, 115
3, 10465, Note_on_c, 9, 42, 0
3, 10485, Note_on_c, 9, 40, 0
3, 10509, Note_on_c, 9, 42, 50
3, 10513, Note_on_c, 9, 42, 0
3, 10557, Note_on_c, 9, 42, 72
3, 10557, Note_on_c, 9, 35, 100
3, 10561, Note_on_c, 9, 42, 0
3, 10581, Note_on_c, 9, 35, 0
3, 10605, Note_on_c, 9, 42, 50
3, 10609, Note_on_c, 9, 42, 0
3, 10653, Note_on_c, 9, 42, 72
3, 10653, Note_on_c, 9, 40, 115
3, 10657, Note_on_c, 9, 42, 0
3, 10677, Note_on_c, 9, 40, 0
3, 10701, Note_on_c, 9, 42, 50
3, 10705, Note_on_c, 9, 42, 0
3, 10749, Note_on_c, 9, 42, 72
3, 10749, Note_on_c, 9, 35, 100
3, 10753, Note_on_c, 9, 42, 0
3, 10773, Note_on_c, 9, 35, 0
3, 10797, Note_on_c, 9, 42, 48
3, 10801, Note_on_c, 9, 42, 0
3, 10845, Note_on_c, 9, 42, 72
3, 10845, Note_on_c, 9, 40, 115
3, 10849, Note_on_c, 9, 42, 0
3, 10869, Note_on_c, 9, 40, 0
3, 10893, Note_on_c, 9, 42, 50
3, 10897, Note_on_c, 9, 42, 0
3, 10941, Note_on_c, 9, 42, 72
3, 10941, Note_on_c, 9, 35, 84
3, 10945, Note_on_c, 9, 42, 0
3, 10965, Note_on_c, 9, 35, 0
3, 10989, Note_on_c, 9, 42, 50
3, 10993, Note_on_c, 9, 42, 0
3, 11037, Note_on_c, 9, 42, 72
3, 11037, Note_on_c, 9, 40, 115
3, 11041, Note_on_c, 9, 42, 0
3, 11061, Note_on_c, 9, 40, 0
3, 11085, Note_on_c, 9, 42, 50
3, 11089, Note_on_c, 9, 42, 0
3, 11133, Note_on_c, 9, 42, 64
3, 11133, Note_on_c, 9, 35, 90
3, 11137, Note_on_c, 9, 42, 0
3, 11157, Note_on_c, 9, 35, 0
3, 11181, Note_on_c, 9, 42, 50
3, 11185, Note_on_c, 9, 42, 0
3, 11229, Note_on_c, 9, 42, 72
3, 11229, Note_on_c, 9, 40, 115
3, 11233, Note_on_c, 9, 42, 0
3, 11253, Note_on_c, 9, 40, 0
3, 11277, Note_on_c, 9, 42, 50
3, 11281, Note_on_c, 9, 42, 0
3, 11325, Note_on_c, 9, 42, 72
3, 11325, Note_on_c, 9, 35, 100
3, 11329, Note_on_c, 9, 42, 0
3, 11349, Note_on_c, 9, 35, 0
3, 11373, Note_on_c, 9, 42, 50
3, 11377, Note_on_c, 9, 42, 0
3, 11421, Note_on_c, 9, 42, 72
3, 11421, Note_on_c, 9, 40, 115
3, 11425, Note_on_c, 9, 42, 0
3, 11445, Note_on_c, 9, 40, 0
3, 11469, Note_on_c, 9, 46, 77
3, 11469, Note_on_c, 9, 49, 76
3, 11469, Note_on_c, 9, 42, 50
3, 11473, Note_on_c, 9, 42, 0
3, 11493, Note_on_c, 9, 49, 0
3, 11493, Note_on_c, 9, 46, 0
3, 11517, Note_on_c, 9, 42, 72
3, 11517, Note_on_c, 9, 35, 100
3, 11521, Note_on_c, 9, 42, 0
3, 11541, Note_on_c, 9, 35, 0
3, 11565, Note_on_c, 9, 42, 48
3, 11569, Note_on_c, 9, 42, 0
3, 11613, Note_on_c, 9, 42, 72
3, 11613, Note_on_c, 9, 40, 115
3, 11617, Note_on_c, 9, 42, 0
3, 11637, Note_on_c, 9, 40, 0
3, 11661, Note_on_c, 9, 42, 50
3, 11665, Note_on_c, 9, 42, 0
3, 11709, Note_on_c, 9, 42, 72
3, 11709, Note_on_c, 9, 35, 84
3, 11713, Note_on_c, 9, 42, 0
3, 11733, Note_on_c, 9, 35, 0
3, 11757, Note_on_c, 9, 42, 50
3, 11761, Note_on_c, 9, 42, 0
3, 11805, Note_on_c, 9, 42, 72
3, 11805, Note_on_c, 9, 40, 115
3, 11809, Note_on_c, 9, 42, 0
3, 11829, Note_on_c, 9, 40, 0
3, 11853, Note_on_c, 9, 46, 69
3, 11853, Note_on_c, 9, 49, 72
3, 11853, Note_on_c, 9, 42, 50
3, 11857, Note_on_c, 9, 42, 0
3, 11877, Note_on_c, 9, 49, 0
3, 11877, Note_on_c, 9, 46, 0
3, 11901, Note_on_c, 9, 42, 64
3, 11901, Note_on_c, 9, 35, 90
3, 11905, Note_on_c, 9, 42, 0
3, 11925, Note_on_c, 9, 35, 0
3, 11949, Note_on_c, 9, 42, 50
3, 11953, Note_on_c, 9, 42, 0
3, 11997, Note_on_c, 9, 42, 72
3, 11997, Note_on_c, 9, 40, 115
3, 12001, Note_on_c, 9, 42, 0
3, 12021, Note_on_c, 9, 40, 0
3, 12045, Note_on_c, 9, 42, 50
3, 12049, Note_on_c, 9, 42, 0
3, 12093, Note_on_c, 9, 42, 72
3, 12093, Note_on_c, 9, 35, 100
3, 12097, Note_on_c, 9, 42, 0
3, 12117, Note_on_c, 9, 35, 0
3, 12141, Note_on_c, 9, 40, 115
3, 12141, Note_on_c, 9, 42, 50
3, 12145, Note_on_c, 9, 42, 0
3, 12165, Note_on_c, 9, 40, 0
3, 12189, Note_on_c, 9, 42, 72
3, 12189, Note_on_c, 9, 40, 115
3, 12193, Note_on_c, 9, 42, 0
3, 12213, Note_on_c, 9, 40, 0
3, 12213, Note_on_c, 9, 40, 115
3, 12237, Note_on_c, 9, 40, 0
3, 12237, Note_on_c, 9, 40, 115
3, 12237, Note_on_c, 9, 42, 50
3, 12241, Note_on_c, 9, 42, 0
3, 12261, Note_on_c, 9, 40, 0
3, 12285, Note_on_c, 9, 51, 50
3, 12285, Note_on_c, 9, 49, 56
3, 12285, Note_on_c, 9, 42, 72
3, 12285, Note_on_c, 9, 35, 100
3, 12289, Note_on_c, 9, 42, 0
3, 12309, Note_on_c, 9, 51, 0
3, 12309, Note_on_c, 9, 49, 0
3, 12309, Note_on_c, 9, 35, 0
3, 12333, Note_on_c, 9, 42, 48
3, 12337, Note_on_c, 9, 42, 0
3, 12381, Note_on_c, 9, 42, 72
3, 12381, Note_on_c, 9, 40, 115
3, 12385, Note_on_c, 9, 42, 0
3, 12405, Note_on_c, 9, 40, 0
3, 12429, Note_on_c, 9, 42, 50
3, 12433, Note_on_c, 9, 42, 0
3, 12477, Note_on_c, 9, 42, 72
3, 12477, Note_on_c, 9, 35, 84
3, 12481, Note_on_c, 9, 42, 0
3, 12501, Note_on_c, 9, 35, 0
3, 12525, Note_on_c, 9, 42, 50
3, 12529, Note_on_c, 9, 42, 0
3, 12573, Note_on_c, 9, 42, 72
3, 12573, Note_on_c, 9, 40, 115
3, 12577, Note_on_c, 9, 42, 0
3, 12597, Note_on_c, 9, 40, 0
3, 12621, Note_on_c, 9, 42, 50
3, 12625, Note_on_c, 9, 42, 0
3, 12669, Note_on_c, 9, 42, 64
3, 12669, Note_on_c, 9, 35, 90
3, 12673, Note_on_c, 9, 42, 0
3, 12693, Note_on_c, 9, 35, 0
3, 12717, Note_on_c, 9, 42, 50
3, 12721, Note_on_c, 9, 42, 0
3, 12765, Note_on_c, 9, 42, 72
3, 12765, Note_on_c, 9, 40, 115
3, 12769, Note_on_c, 9, 42, 0
3, 12789, Note_on_c, 9, 40, 0
3, 12813, Note_on_c, 9, 42, 50
3, 12817, Note_on_c, 9, 42, 0
3, 12861, Note_on_c, 9, 42, 72
3, 12861, Note_on_c, 9, 35, 100
3, 12865, Note_on_c, 9, 42, 0
3, 12885, Note_on_c, 9, 35, 0
3, 12909, Note_on_c, 9, 42, 50
3, 12913, Note_on_c, 9, 42, 0
3, 12957, Note_on_c, 9, 42, 72
3, 12957, Note_on_c, 9, 40, 115
3, 12961, Note_on_c, 9, 42, 0
3, 12981, Note_on_c, 9, 40, 0
3, 13005, Note_on_c, 9, 42, 50
3, 13009, Note_on_c, 9, 42, 0
3, 13053, Note_on_c, 9, 42, 72
3, 13053, Note_on_c, 9, 35, 100
3, 13057, Note_on_c, 9, 42, 0
3, 13077, Note_on_c, 9, 35, 0
3, 13101, Note_on_c, 9, 42, 48
3, 13105, Note_on_c, 9, 42, 0
3, 13149, Note_on_c, 9, 42, 72
3, 13149, Note_on_c, 9, 40, 115
3, 13153, Note_on_c, 9, 42, 0
3, 13173, Note_on_c, 9, 40, 0
3, 13197, Note_on_c, 9, 42, 50
3, 13201, Note_on_c, 9, 42, 0
3, 13245, Note_on_c, 9, 42, 72
3, 13245, Note_on_c, 9, 35, 84
3, 13249, Note_on_c, 9, 42, 0
3, 13269, Note_on_c, 9, 35, 0
3, 13293, Note_on_c, 9, 42, 50
3, 13297, Note_on_c, 9, 42, 0
3, 13341, Note_on_c, 9, 42, 72
3, 13341, Note_on_c, 9, 40, 115
3, 13345, Note_on_c, 9, 42, 0
3, 13365, Note_on_c, 9, 40, 0
3, 13389, Note_on_c, 9, 42, 50
3, 13393, Note_on_c, 9, 42, 0
3, 13437, Note_on_c, 9, 42, 64
3, 13437, Note_on_c, 9, 35, 90
3, 13441, Note_on_c, 9, 42, 0
3, 13461, Note_on_c, 9, 35, 0
3, 13485, Note_on_c, 9, 42, 50
3, 13489, Note_on_c, 9, 42, 0
3, 13533, Note_on_c, 9, 42, 72
3, 13533, Note_on_c, 9, 40, 115
3, 13537, Note_on_c, 9, 42, 0
3, 13557, Note_on_c, 9, 40, 0
3, 13581, Note_on_c, 9, 42, 50
3, 13585, Note_on_c, 9, 42, 0
3, 13629, Note_on_c, 9, 42, 72
3, 13629, Note_on_c, 9, 35, 100
3, 13633, Note_on_c, 9, 42, 0
3, 13653, Note_on_c, 9, 35, 0
3, 13677, Note_on_c, 9, 42, 50
3, 13681, Note_on_c, 9, 42, 0
3, 13725, Note_on_c, 9, 42, 72
3, 13725, Note_on_c, 9, 40, 115
3, 13729, Note_on_c, 9, 42, 0
3, 13749, Note_on_c, 9, 40, 0
3, 13773, Note_on_c, 9, 42, 50
3, 13777, Note_on_c, 9, 42, 0
3, 13821, Note_on_c, 9, 42, 72
3, 13821, Note_on_c, 9, 35, 100
3, 13825, Note_on_c, 9, 42, 0
3, 13845, Note_on_c, 9, 35, 0
3, 13869, Note_on_c, 9, 42, 48
3, 13873, Note_on_c, 9, 42, 0
3, 13917, Note_on_c, 9, 42, 72
3, 13917, Note_on_c, 9, 40, 115
3, 13921, Note_on_c, 9, 42, 0
3, 13941, Note_on_c, 9, 40, 0
3, 13965, Note_on_c, 9, 42, 50
3, 13969, Note_on_c, 9, 42, 0
3, 14013, Note_on_c, 9, 42, 72
3, 14013, Note_on_c, 9, 35, 84
3, 14017, Note_on_c, 9, 42, 0
3, 14037, Note_on_c, 9, 35, 0
3, 14061, Note_on_c, 9, 42, 50
3, 14065, Note_on_c, 9, 42, 0
3, 14109, Note_on_c, 9, 42, 72
3, 14109, Note_on_c, 9, 40, 115
3, 14113, Note_on_c, 9, 42, 0
3, 14133, Note_on_c, 9, 40, 0
3, 14157, Note_on_c, 9, 42, 50
3, 14161, Note_on_c, 9, 42, 0
3, 14205, Note_on_c, 9, 42, 64
3, 14205, Note_on_c, 9, 35, 90
3, 14209, Note_on_c, 9, 42, 0
3, 14229, Note_on_c, 9, 35, 0
3, 14253, Note_on_c, 9, 42, 50
3, 14257, Note_on_c, 9, 42, 0
3, 14301, Note_on_c, 9, 42, 72
3, 14301, Note_on_c, 9, 40, 115
3, 14305, Note_on_c, 9, 42, 0
3, 14325, Note_on_c, 9, 40, 0
3, 14349, Note_on_c, 9, 42, 50
3, 14353, Note_on_c, 9, 42, 0
3, 14397, Note_on_c, 9, 42, 72
3, 14397, Note_on_c, 9, 35, 100
3, 14401, Note_on_c, 9, 42, 0
3, 14421, Note_on_c, 9, 35, 0
3, 14445, Note_on_c, 9, 42, 50
3, 14449, Note_on_c, 9, 42, 0
3, 14493, Note_on_c, 9, 42, 72
3, 14493, Note_on_c, 9, 40, 115
3, 14497, Note_on_c, 9, 42, 0
3, 14517, Note_on_c, 9, 40, 0
3, 14541, Note_on_c, 9, 42, 50
3, 14545, Note_on_c, 9, 42, 0
3, 14589, Note_on_c, 9, 42, 72
3, 14589, Note_on_c, 9, 35, 100
3, 14593, Note_on_c, 9, 42, 0
3, 14613, Note_on_c, 9, 35, 0
3, 14637, Note_on_c, 9, 42, 48
3, 14641, Note_on_c, 9, 42, 0
3, 14685, Note_on_c, 9, 42, 72
3, 14685, Note_on_c, 9, 40, 115
3, 14689, Note_on_c, 9, 42, 0
3, 14709, Note_on_c, 9, 40, 0
3, 14733, Note_on_c, 9, 42, 50
3, 14737, Note_on_c, 9, 42, 0
3, 14781, Note_on_c, 9, 42, 72
3, 14781, Note_on_c, 9, 35, 84
3, 14785, Note_on_c, 9, 42, 0
3, 14805, Note_on_c, 9, 35, 0
3, 14829, Note_on_c, 9, 42, 50
3, 14833, Note_on_c, 9, 42, 0
3, 14877, Note_on_c, 9, 42, 72
3, 14877, Note_on_c, 9, 40, 115
3, 14881, Note_on_c, 9, 42, 0
3, 14901, Note_on_c, 9, 40, 0
3, 14925, Note_on_c, 9, 44, 50
3, 14925, Note_on_c, 9, 46, 88
3, 14925, Note_on_c, 9, 49, 80
3, 14925, Note_on_c, 9, 42, 50
3, 14929, Note_on_c, 9, 42, 0
3, 14949, Note_on_c, 9, 44, 0
3, 14949, Note_on_c, 9, 46, 0
3, 14949, Note_on_c, 9, 49, 0
3, 15357, Note_on_c, 9, 51, 50
3, 15357, Note_on_c, 9, 49, 56
3, 15357, Note_on_c, 9, 42, 72
3, 15357, Note_on_c, 9, 35, 100
3, 15361, Note_on_c, 9, 49, 0
3, 15361, Note_on_c, 9, 51, 0
3, 15405, Note_on_c, 9, 42, 48
3, 15409, Note_on_c, 9, 42, 0
3, 15453, Note_on_c, 9, 42, 72
3, 15453, Note_on_c, 9, 40, 115
3, 15457, Note_on_c, 9, 42, 0
3, 15477, Note_on_c, 9, 40, 0
3, 15501, Note_on_c, 9, 42, 50
3, 15505, Note_on_c, 9, 42, 0
3, 15549, Note_on_c, 9, 42, 72
3, 15549, Note_on_c, 9, 35, 84
3, 15553, Note_on_c, 9, 42, 0
3, 15573, Note_on_c, 9, 35, 0
3, 15597, Note_on_c, 9, 42, 50
3, 15601, Note_on_c, 9, 42, 0
3, 15645, Note_on_c, 9, 42, 72
3, 15645, Note_on_c, 9, 40, 115
3, 15649, Note_on_c, 9, 42, 0
3, 15669, Note_on_c, 9, 40, 0
3, 15693, Note_on_c, 9, 42, 50
3, 15697, Note_on_c, 9, 42, 0
3, 15741, Note_on_c, 9, 42, 64
3, 15741, Note_on_c, 9, 35, 90
3, 15745, Note_on_c, 9, 42, 0
3, 15765, Note_on_c, 9, 35, 0
3, 15789, Note_on_c, 9, 42, 50
3, 15793, Note_on_c, 9, 42, 0
3, 15837, Note_on_c, 9, 42, 72
3, 15837, Note_on_c, 9, 40, 115
3, 15841, Note_on_c, 9, 42, 0
3, 15861, Note_on_c, 9, 40, 0
3, 15885, Note_on_c, 9, 42, 50
3, 15889, Note_on_c, 9, 42, 0
3, 15933, Note_on_c, 9, 42, 72
3, 15933, Note_on_c, 9, 35, 100
3, 15937, Note_on_c, 9, 35, 0
3, 15937, Note_on_c, 9, 42, 0
3, 15957, Note_on_c, 9, 35, 0
3, 15981, Note_on_c, 9, 42, 50
3, 15985, Note_on_c, 9, 42, 0
3, 16029, Note_on_c, 9, 42, 72
3, 16029, Note_on_c, 9, 40, 115
3, 16033, Note_on_c, 9, 42, 0
3, 16053, Note_on_c, 9, 40, 0
3, 16077, Note_on_c, 9, 42, 50
3, 16081, Note_on_c, 9, 42, 0
3, 16125, Note_on_c, 9, 42, 72
3, 16125, Note_on_c, 9, 35, 100
3, 16127, Note_on_c, 9, 35, 0
3, 16173, Note_on_c, 9, 42, 48
3, 16177, Note_on_c, 9, 42, 0
3, 16221, Note_on_c, 9, 42, 72
3, 16221, Note_on_c, 9, 40, 115
3, 16225, Note_on_c, 9, 42, 0
3, 16245, Note_on_c, 9, 40, 0
3, 16269, Note_on_c, 9, 42, 50
3, 16273, Note_on_c, 9, 42, 0
3, 16317, Note_on_c, 9, 42, 72
3, 16317, Note_on_c, 9, 35, 84
3, 16319, Note_on_c, 9, 35, 0
3, 16321, Note_on_c, 9, 42, 0
3, 16365, Note_on_c, 9, 42, 50
3, 16369, Note_on_c, 9, 42, 0
3, 16413, Note_on_c, 9, 42, 72
3, 16413, Note_on_c, 9, 40, 115
3, 16417, Note_on_c, 9, 42, 0
3, 16437, Note_on_c, 9, 40, 0
3, 16461, Note_on_c, 9, 42, 50
3, 16465, Note_on_c, 9, 42, 0
3, 16509, Note_on_c, 9, 42, 64
3, 16509, Note_on_c, 9, 35, 90
3, 16511, Note_on_c, 9, 35, 0
3, 16557, Note_on_c, 9, 42, 50
3, 16561, Note_on_c, 9, 42, 0
3, 16605, Note_on_c, 9, 42, 72
3, 16605, Note_on_c, 9, 40, 115
3, 16609, Note_on_c, 9, 42, 0
3, 16629, Note_on_c, 9, 40, 0
3, 16653, Note_on_c, 9, 42, 50
3, 16657, Note_on_c, 9, 42, 0
3, 16701, Note_on_c, 9, 42, 72
3, 16701, Note_on_c, 9, 35, 100
3, 16703, Note_on_c, 9, 35, 0
3, 16705, Note_on_c, 9, 42, 0
3, 16749, Note_on_c, 9, 40, 104
3, 16749, Note_on_c, 9, 42, 50
3, 16753, Note_on_c, 9, 42, 0
3, 16773, Note_on_c, 9, 40, 0
3, 16797, Note_on_c, 9, 42, 72
3, 16797, Note_on_c, 9, 40, 115
3, 16801, Note_on_c, 9, 42, 0
3, 16821, Note_on_c, 9, 40, 0
3, 16845, Note_on_c, 9, 40, 104
3, 16845, Note_on_c, 9, 42, 50
3, 16849, Note_on_c, 9, 42, 0
3, 16869, Note_on_c, 9, 40, 0
3, 16892, Note_on_c, 9, 42, 0
3, 16893, Note_on_c, 9, 51, 50
3, 16893, Note_on_c, 9, 49, 56
3, 16893, Note_on_c, 9, 42, 72
3, 16893, Note_on_c, 9, 35, 100
3, 16895, Note_on_c, 9, 35, 0
3, 16895, Note_on_c, 9, 51, 0
3, 16895, Note_on_c, 9, 49, 0
3, 16941, Note_on_c, 9, 42, 48
3, 16943, Note_on_c, 9, 42, 0
3, 16945, Note_on_c, 9, 42, 0
3, 16989, Note_on_c, 9, 42, 72
3, 16989, Note_on_c, 9, 40, 115
3, 16991, Note_on_c, 9, 40, 0
3, 16991, Note_on_c, 9, 42, 0
3, 16993, Note_on_c, 9, 42, 0
3, 17037, Note_on_c, 9, 42, 50
3, 17041, Note_on_c, 9, 42, 0
3, 17085, Note_on_c, 9, 42, 72
3, 17085, Note_on_c, 9, 35, 84
3, 17087, Note_on_c, 9, 35, 0
3, 17133, Note_on_c, 9, 42, 50
3, 17181, Note_on_c, 9, 42, 72
3, 17181, Note_on_c, 9, 40, 115
3, 17183, Note_on_c, 9, 42, 0
3, 17185, Note_on_c, 9, 42, 0
3, 17205, Note_on_c, 9, 40, 0
3, 17229, Note_on_c, 9, 42, 50
3, 17231, Note_on_c, 9, 42, 0
3, 17233, Note_on_c, 9, 42, 0
3, 17276, Note_on_c, 9, 42, 0
3, 17277, Note_on_c, 9, 42, 64
3, 17277, Note_on_c, 9, 35, 90
3, 17279, Note_on_c, 9, 35, 0
3, 17325, Note_on_c, 9, 42, 50
3, 17373, Note_on_c, 9, 42, 72
3, 17373, Note_on_c, 9, 40, 115
3, 17375, Note_on_c, 9, 42, 0
3, 17397, Note_on_c, 9, 40, 0
3, 17421, Note_on_c, 9, 42, 50
3, 17423, Note_on_c, 9, 42, 0
3, 17425, Note_on_c, 9, 42, 0
3, 17469, Note_on_c, 9, 42, 72
3, 17469, Note_on_c, 9, 35, 100
3, 17471, Note_on_c, 9, 35, 0
3, 17473, Note_on_c, 9, 42, 0
3, 17517, Note_on_c, 9, 42, 50
3, 17565, Note_on_c, 9, 42, 72
3, 17565, Note_on_c, 9, 40, 115
3, 17567, Note_on_c, 9, 42, 0
3, 17589, Note_on_c, 9, 40, 0
3, 17613, Note_on_c, 9, 42, 50
3, 17615, Note_on_c, 9, 42, 0
3, 17617, Note_on_c, 9, 42, 0
3, 17661, Note_on_c, 9, 42, 72
3, 17661, Note_on_c, 9, 35, 100
3, 17663, Note_on_c, 9, 35, 0
3, 17665, Note_on_c, 9, 42, 0
3, 17709, Note_on_c, 9, 42, 48
3, 17757, Note_on_c, 9, 42, 72
3, 17757, Note_on_c, 9, 40, 115
3, 17759, Note_on_c, 9, 42, 0
3, 17781, Note_on_c, 9, 40, 0
3, 17805, Note_on_c, 9, 42, 50
3, 17809, Note_on_c, 9, 42, 0
3, 17853, Note_on_c, 9, 42, 72
3, 17853, Note_on_c, 9, 35, 84
3, 17855, Note_on_c, 9, 35, 0
3, 17857, Note_on_c, 9, 42, 0
3, 17901, Note_on_c, 9, 42, 50
3, 17949, Note_on_c, 9, 42, 72
3, 17949, Note_on_c, 9, 40, 115
3, 17953, Note_on_c, 9, 42, 0
3, 17973, Note_on_c, 9, 40, 0
3, 17997, Note_on_c, 9, 42, 50
3, 18001, Note_on_c, 9, 42, 0
3, 18045, Note_on_c, 9, 42, 64
3, 18045, Note_on_c, 9, 35, 90
3, 18047, Note_on_c, 9, 35, 0
3, 18049, Note_on_c, 9, 42, 0
3, 18093, Note_on_c, 9, 42, 50
3, 18097, Note_on_c, 9, 42, 0
3, 18141, Note_on_c, 9, 42, 72
3, 18141, Note_on_c, 9, 40, 115
3, 18143, Note_on_c, 9, 42, 0
3, 18145, Note_on_c, 9, 42, 0
3, 18165, Note_on_c, 9, 40, 0
3, 18189, Note_on_c, 9, 42, 50
3, 18193, Note_on_c, 9, 42, 0
3, 18237, Note_on_c, 9, 42, 72
3, 18237, Note_on_c, 9, 35, 100
3, 18239, Note_on_c, 9, 35, 0
3, 18241, Note_on_c, 9, 42, 0
3, 18285, Note_on_c, 9, 42, 50
3, 18333, Note_on_c, 9, 42, 72
3, 18333, Note_on_c, 9, 40, 115
3, 18337, Note_on_c, 9, 42, 0
3, 18357, Note_on_c, 9, 40, 0
3, 18381, Note_on_c, 9, 42, 50
3, 18385, Note_on_c, 9, 42, 0
3, 18428, Note_on_c, 9, 42, 0
3, 18429, Note_on_c, 9, 42, 72
3, 18429, Note_on_c, 9, 35, 100
3, 18431, Note_on_c, 9, 35, 0
3, 18477, Note_on_c, 9, 42, 48
3, 18481, Note_on_c, 9, 42, 0
3, 18525, Note_on_c, 9, 42, 72
3, 18525, Note_on_c, 9, 40, 115
3, 18527, Note_on_c, 9, 42, 0
3, 18529, Note_on_c, 9, 42, 0
3, 18549, Note_on_c, 9, 40, 0
3, 18573, Note_on_c, 9, 42, 50
3, 18577, Note_on_c, 9, 42, 0
3, 18621, Note_on_c, 9, 42, 72
3, 18621, Note_on_c, 9, 35, 84
3, 18623, Note_on_c, 9, 35, 0
3, 18625, Note_on_c, 9, 42, 0
3, 18669, Note_on_c, 9, 42, 50
3, 18671, Note_on_c, 9, 42, 0
3, 18717, Note_on_c, 9, 42, 72
3, 18717, Note_on_c, 9, 40, 115
3, 18719, Note_on_c, 9, 40, 0
3, 18719, Note_on_c, 9, 42, 0
3, 18721, Note_on_c, 9, 42, 0
3, 18765, Note_on_c, 9, 46, 77
3, 18765, Note_on_c, 9, 49, 76
3, 18765, Note_on_c, 9, 42, 50
3, 18767, Note_on_c, 9, 42, 0
3, 18767, Note_on_c, 9, 49, 0
3, 18769, Note_on_c, 9, 42, 0
3, 18789, Note_on_c, 9, 46, 0
3, 19149, Note_on_c, 9, 46, 69
3, 19149, Note_on_c, 9, 49, 72
3, 19151, Note_on_c, 9, 49, 0
3, 19173, Note_on_c, 9, 46, 0
3, 19389, Note_on_c, 9, 35, 62
3, 19389, Note_on_c, 9, 40, 48
3, 19413, Note_on_c, 9, 40, 0
3, 19437, Note_on_c, 9, 35, 60
3, 19437, Note_on_c, 9, 40, 80
3, 19461, Note_on_c, 9, 40, 0
3, 19485, Note_on_c, 9, 35, 66
3, 19485, Note_on_c, 9, 40, 96
3, 19487, Note_on_c, 9, 35, 0
3, 19509, Note_on_c, 9, 40, 0
3, 19533, Note_on_c, 9, 35, 100
3, 19533, Note_on_c, 9, 40, 115
3, 19535, Note_on_c, 9, 35, 0
3, 19557, Note_on_c, 9, 40, 0
3, 19557, Note_on_c, 9, 35, 0
3, 19580, Note_on_c, 9, 35, 0
3, 19581, Note_on_c, 9, 51, 50
3, 19581, Note_on_c, 9, 49, 56
3, 19581, Note_on_c, 9, 42, 72
3, 19581, Note_on_c, 9, 35, 100
3, 19583, Note_on_c, 9, 35, 0
3, 19583, Note_on_c, 9, 51, 0
3, 19583, Note_on_c, 9, 49, 0
3, 19629, Note_on_c, 9, 42, 48
3, 19677, Note_on_c, 9, 42, 72
3, 19677, Note_on_c, 9, 40, 115
3, 19679, Note_on_c, 9, 42, 0
3, 19701, Note_on_c, 9, 40, 0
3, 19725, Note_on_c, 9, 42, 50
3, 19727, Note_on_c, 9, 42, 0
3, 19729, Note_on_c, 9, 42, 0
3, 19773, Note_on_c, 9, 42, 72
3, 19773, Note_on_c, 9, 35, 84
3, 19775, Note_on_c, 9, 35, 0
3, 19777, Note_on_c, 9, 42, 0
3, 19821, Note_on_c, 9, 42, 50
3, 19869, Note_on_c, 9, 42, 72
3, 19869, Note_on_c, 9, 40, 115
3, 19871, Note_on_c, 9, 42, 0
3, 19893, Note_on_c, 9, 40, 0
3, 19917, Note_on_c, 9, 42, 50
3, 19919, Note_on_c, 9, 42, 0
3, 19921, Note_on_c, 9, 42, 0
3, 19964, Note_on_c, 9, 42, 0
3, 19965, Note_on_c, 9, 42, 64
3, 19965, Note_on_c, 9, 35, 90
3, 19967, Note_on_c, 9, 35, 0
3, 20013, Note_on_c, 9, 42, 50
3, 20061, Note_on_c, 9, 42, 72
3, 20061, Note_on_c, 9, 40, 115
3, 20063, Note_on_c, 9, 42, 0
3, 20085, Note_on_c, 9, 40, 0
3, 20109, Note_on_c, 9, 42, 50
3, 20111, Note_on_c, 9, 42, 0
3, 20113, Note_on_c, 9, 42, 0
3, 20157, Note_on_c, 9, 42, 72
3, 20157, Note_on_c, 9, 35, 100
3, 20159, Note_on_c, 9, 35, 0
3, 20161, Note_on_c, 9, 42, 0
3, 20205, Note_on_c, 9, 42, 50
3, 20253, Note_on_c, 9, 42, 72
3, 20253, Note_on_c, 9, 40, 115
3, 20255, Note_on_c, 9, 42, 0
3, 20277, Note_on_c, 9, 40, 0
3, 20301, Note_on_c, 9, 42, 50
3, 20305, Note_on_c, 9, 42, 0
3, 20348, Note_on_c, 9, 42, 0
3, 20349, Note_on_c, 9, 42, 72
3, 20349, Note_on_c, 9, 35, 100
3, 20351, Note_on_c, 9, 35, 0
3, 20397, Note_on_c, 9, 42, 48
3, 20445, Note_on_c, 9, 42, 72
3, 20445, Note_on_c, 9, 40, 115
3, 20449, Note_on_c, 9, 42, 0
3, 20469, Note_on_c, 9, 40, 0
3, 20493, Note_on_c, 9, 42, 50
3, 20497, Note_on_c, 9, 42, 0
3, 20541, Note_on_c, 9, 42, 72
3, 20541, Note_on_c, 9, 35, 84
3, 20543, Note_on_c, 9, 35, 0
3, 20545, Note_on_c, 9, 42, 0
3, 20589, Note_on_c, 9, 42, 50
3, 20593, Note_on_c, 9, 42, 0
3, 20637, Note_on_c, 9, 42, 72
3, 20637, Note_on_c, 9, 40, 115
3, 20639, Note_on_c, 9, 42, 0
3, 20641, Note_on_c, 9, 42, 0
3, 20661, Note_on_c, 9, 40, 0
3, 20685, Note_on_c, 9, 42, 50
3, 20689, Note_on_c, 9, 42, 0
3, 20732, Note_on_c, 9, 42, 0
3, 20733, Note_on_c, 9, 42, 64
3, 20733, Note_on_c, 9, 35, 90
3, 20735, Note_on_c, 9, 35, 0
3, 20781, Note_on_c, 9, 42, 50
3, 20829, Note_on_c, 9, 42, 72
3, 20829, Note_on_c, 9, 40, 115
3, 20833, Note_on_c, 9, 42, 0
3, 20853, Note_on_c, 9, 40, 0
3, 20877, Note_on_c, 9, 42, 50
3, 20881, Note_on_c, 9, 42, 0
3, 20925, Note_on_c, 9, 42, 72
3, 20925, Note_on_c, 9, 35, 100
3, 20927, Note_on_c, 9, 35, 0
3, 20929, Note_on_c, 9, 42, 0
3, 20973, Note_on_c, 9, 42, 50
3, 20975, Note_on_c, 9, 42, 0
3, 20977, Note_on_c, 9, 42, 0
3, 21021, Note_on_c, 9, 42, 72
3, 21021, Note_on_c, 9, 40, 115
3, 21023, Note_on_c, 9, 42, 0
3, 21025, Note_on_c, 9, 42, 0
3, 21045, Note_on_c, 9, 40, 0
3, 21069, Note_on_c, 9, 42, 50
3, 21071, Note_on_c, 9, 42, 0
3, 21073, Note_on_c, 9, 42, 0
3, 21117, Note_on_c, 9, 42, 72
3, 21117, Note_on_c, 9, 35, 100
3, 21119, Note_on_c, 9, 35, 0
3, 21165, Note_on_c, 9, 42, 48
3, 21213, Note_on_c, 9, 42, 72
3, 21213, Note_on_c, 9, 40, 115
3, 21215, Note_on_c, 9, 42, 0
3, 21237, Note_on_c, 9, 40, 0
3, 21261, Note_on_c, 9, 42, 50
3, 21309, Note_on_c, 9, 42, 72
3, 21309, Note_on_c, 9, 35, 84
3, 21311, Note_on_c, 9, 35, 0
3, 21313, Note_on_c, 9, 42, 0
3, 21357, Note_on_c, 9, 42, 50
3, 21359, Note_on_c, 9, 42, 0
3, 21361, Note_on_c, 9, 42, 0
3, 21405, Note_on_c, 9, 42, 72
3, 21405, Note_on_c, 9, 40, 115
3, 21429, Note_on_c, 9, 40, 0
3, 21453, Note_on_c, 9, 42, 50
3, 21457, Note_on_c, 9, 42, 0
3, 21500, Note_on_c, 9, 42, 0
3, 21501, Note_on_c, 9, 42, 64
3, 21501, Note_on_c, 9, 35, 90
3, 21503, Note_on_c, 9, 35, 0
3, 21549, Note_on_c, 9, 42, 50
3, 21597, Note_on_c, 9, 42, 72
3, 21597, Note_on_c, 9, 40, 115
3, 21599, Note_on_c, 9, 42, 0
3, 21601, Note_on_c, 9, 42, 0
3, 21621, Note_on_c, 9, 40, 0
3, 21645, Note_on_c, 9, 42, 50
3, 21649, Note_on_c, 9, 42, 0
3, 21693, Note_on_c, 9, 42, 72
3, 21693, Note_on_c, 9, 35, 100
3, 21695, Note_on_c, 9, 35, 0
3, 21697, Note_on_c, 9, 42, 0
3, 21741, Note_on_c, 9, 42, 50
3, 21745, Note_on_c, 9, 42, 0
3, 21789, Note_on_c, 9, 42, 72
3, 21789, Note_on_c, 9, 40, 115
3, 21813, Note_on_c, 9, 40, 0
3, 21837, Note_on_c, 9, 42, 50
3, 21841, Note_on_c, 9, 42, 0
3, 21884, Note_on_c, 9, 42, 0
3, 21885, Note_on_c, 9, 42, 72
3, 21885, Note_on_c, 9, 35, 100
3, 21887, Note_on_c, 9, 35, 0
3, 21933, Note_on_c, 9, 42, 48
3, 21937, Note_on_c, 9, 42, 0
3, 21981, Note_on_c, 9, 42, 72
3, 21981, Note_on_c, 9, 40, 115
3, 21983, Note_on_c, 9, 42, 0
3, 21985, Note_on_c, 9, 42, 0
3, 22005, Note_on_c, 9, 40, 0
3, 22029, Note_on_c, 9, 42, 50
3, 22031, Note_on_c, 9, 42, 0
3, 22033, Note_on_c, 9, 42, 0
3, 22077, Note_on_c, 9, 42, 72
3, 22077, Note_on_c, 9, 35, 84
3, 22079, Note_on_c, 9, 35, 0
3, 22079, Note_on_c, 9, 42, 0
3, 22081, Note_on_c, 9, 42, 0
3, 22125, Note_on_c, 9, 42, 50
3, 22127, Note_on_c, 9, 42, 0
3, 22129, Note_on_c, 9, 42, 0
3, 22173, Note_on_c, 9, 42, 72
3, 22173, Note_on_c, 9, 40, 115
3, 22175, Note_on_c, 9, 42, 0
3, 22197, Note_on_c, 9, 40, 0
3, 22221, Note_on_c, 9, 44, 50
3, 22221, Note_on_c, 9, 46, 88
3, 22221, Note_on_c, 9, 49, 80
3, 22221, Note_on_c, 9, 42, 50
3, 22223, Note_on_c, 9, 42, 0
3, 22223, Note_on_c, 9, 49, 0
3, 22223, Note_on_c, 9, 44, 0
3, 22245, Note_on_c, 9, 46, 0
3, 22653, Note_on_c, 9, 51, 50
3, 22653, Note_on_c, 9, 49, 56
3, 22653, Note_on_c, 9, 42, 72
3, 22653, Note_on_c, 9, 35, 100
3, 22655, Note_on_c, 9, 35, 0
3, 22655, Note_on_c, 9, 51, 0
3, 22655, Note_on_c, 9, 49, 0
3, 22701, Note_on_c, 9, 42, 48
3, 22749, Note_on_c, 9, 42, 72
3, 22749, Note_on_c, 9, 40, 115
3, 22751, Note_on_c, 9, 42, 0
3, 22773, Note_on_c, 9, 40, 0
3, 22797, Note_on_c, 9, 42, 50
3, 22845, Note_on_c, 9, 42, 72
3, 22845, Note_on_c, 9, 35, 84
3, 22847, Note_on_c, 9, 35, 0
3, 22849, Note_on_c, 9, 42, 0
3, 22893, Note_on_c, 9, 42, 50
3, 22895, Note_on_c, 9, 42, 0
3, 22897, Note_on_c, 9, 42, 0
3, 22941, Note_on_c, 9, 42, 72
3, 22941, Note_on_c, 9, 40, 115
3, 22943, Note_on_c, 9, 42, 0
3, 22965, Note_on_c, 9, 40, 0
3, 22989, Note_on_c, 9, 42, 50
3, 22993, Note_on_c, 9, 42, 0
3, 23036, Note_on_c, 9, 42, 0
3, 23037, Note_on_c, 9, 42, 64
3, 23037, Note_on_c, 9, 35, 90
3, 23039, Note_on_c, 9, 35, 0
3, 23085, Note_on_c, 9, 42, 50
3, 23133, Note_on_c, 9, 42, 72
3, 23133, Note_on_c, 9, 40, 115
3, 23157, Note_on_c, 9, 40, 0
3, 23181, Note_on_c, 9, 42, 50
3, 23185, Note_on_c, 9, 42, 0
3, 23229, Note_on_c, 9, 42, 72
3, 23229, Note_on_c, 9, 35, 100
3, 23231, Note_on_c, 9, 35, 0
3, 23233, Note_on_c, 9, 42, 0
3, 23277, Note_on_c, 9, 42, 50
3, 23281, Note_on_c, 9, 42, 0
3, 23325, Note_on_c, 9, 42, 72
3, 23325, Note_on_c, 9, 40, 115
3, 23329, Note_on_c, 9, 42, 0
3, 23349, Note_on_c, 9, 40, 0
3, 23373, Note_on_c, 9, 42, 50
3, 23377, Note_on_c, 9, 42, 0
3, 23420, Note_on_c, 9, 42, 0
3, 23421, Note_on_c, 9, 42, 72
3, 23421, Note_on_c, 9, 35, 100
3, 23423, Note_on_c, 9, 35, 0
3, 23469, Note_on_c, 9, 42, 48
3, 23473, Note_on_c, 9, 42, 0
3, 23517, Note_on_c, 9, 42, 72
3, 23517, Note_on_c, 9, 40, 115
3, 23521, Note_on_c, 9, 42, 0
3, 23541, Note_on_c, 9, 40, 0
3, 23565, Note_on_c, 9, 42, 50
3, 23569, Note_on_c, 9, 42, 0
3, 23613, Note_on_c, 9, 42, 72
3, 23613, Note_on_c, 9, 35, 84
3, 23615, Note_on_c, 9, 35, 0
3, 23617, Note_on_c, 9, 42, 0
3, 23661, Note_on_c, 9, 42, 50
3, 23663, Note_on_c, 9, 42, 0
3, 23665, Note_on_c, 9, 42, 0
3, 23709, Note_on_c, 9, 42, 72
3, 23709, Note_on_c, 9, 40, 115
3, 23711, Note_on_c, 9, 42, 0
3, 23713, Note_on_c, 9, 42, 0
3, 23733, Note_on_c, 9, 40, 0
3, 23757, Note_on_c, 9, 42, 50
3, 23759, Note_on_c, 9, 42, 0
3, 23761, Note_on_c, 9, 42, 0
3, 23804, Note_on_c, 9, 42, 0
3, 23805, Note_on_c, 9, 42, 64
3, 23805, Note_on_c, 9, 35, 90
3, 23807, Note_on_c, 9, 35, 0
3, 23853, Note_on_c, 9, 42, 50
3, 23901, Note_on_c, 9, 42, 72
3, 23901, Note_on_c, 9, 40, 115
3, 23925, Note_on_c, 9, 40, 0
3, 23949, Note_on_c, 9, 42, 50
3, 23997, Note_on_c, 9, 42, 72
3, 23997, Note_on_c, 9, 35, 100
3, 23999, Note_on_c, 9, 35, 0
3, 24001, Note_on_c, 9, 42, 0
3, 24045, Note_on_c, 9, 42, 50
3, 24049, Note_on_c, 9, 42, 0
3, 24093, Note_on_c, 9, 42, 72
3, 24093, Note_on_c, 9, 40, 115
3, 24097, Note_on_c, 9, 42, 0
3, 24117, Note_on_c, 9, 40, 0
3, 24141, Note_on_c, 9, 40, 115
3, 24141, Note_on_c, 9, 42, 50
3, 24145, Note_on_c, 9, 42, 0
3, 24165, Note_on_c, 9, 40, 0
3, 24188, Note_on_c, 9, 42, 0
3, 24189, Note_on_c, 9, 51, 50
3, 24189, Note_on_c, 9, 46, 50
3, 24189, Note_on_c, 9, 49, 64
3, 24189, Note_on_c, 9, 42, 72
3, 24189, Note_on_c, 9, 35, 100
3, 24191, Note_on_c, 9, 35, 0
3, 24191, Note_on_c, 9, 49, 0
3, 24191, Note_on_c, 9, 51, 0
3, 24191, Note_on_c, 9, 46, 0
3, 24237, Note_on_c, 9, 42, 48
3, 24241, Note_on_c, 9, 42, 0
3, 24285, Note_on_c, 9, 42, 72
3, 24285, Note_on_c, 9, 40, 115
3, 24289, Note_on_c, 9, 42, 0
3, 24309, Note_on_c, 9, 40, 0
3, 24333, Note_on_c, 9, 42, 50
3, 24337, Note_on_c, 9, 42, 0
3, 24381, Note_on_c, 9, 42, 72
3, 24381, Note_on_c, 9, 35, 84
3, 24383, Note_on_c, 9, 35, 0
3, 24385, Note_on_c, 9, 42, 0
3, 24429, Note_on_c, 9, 42, 50
3, 24431, Note_on_c, 9, 42, 0
3, 24433, Note_on_c, 9, 42, 0
3, 24477, Note_on_c, 9, 42, 72
3, 24477, Note_on_c, 9, 40, 115
3, 24479, Note_on_c, 9, 42, 0
3, 24481, Note_on_c, 9, 42, 0
3, 24501, Note_on_c, 9, 40, 0
3, 24525, Note_on_c, 9, 42, 50
3, 24529, Note_on_c, 9, 42, 0
3, 24572, Note_on_c, 9, 42, 0
3, 24573, Note_on_c, 9, 42, 64
3, 24573, Note_on_c, 9, 35, 90
3, 24575, Note_on_c, 9, 35, 0
3, 24621, Note_on_c, 9, 42, 50
3, 24669, Note_on_c, 9, 42, 72
3, 24669, Note_on_c, 9, 40, 115
3, 24693, Note_on_c, 9, 40, 0
3, 24717, Note_on_c, 9, 42, 50
3, 24721, Note_on_c, 9, 42, 0
3, 24765, Note_on_c, 9, 42, 72
3, 24765, Note_on_c, 9, 35, 100
3, 24767, Note_on_c, 9, 35, 0
3, 24769, Note_on_c, 9, 42, 0
3, 24813, Note_on_c, 9, 42, 50
3, 24817, Note_on_c, 9, 42, 0
3, 24861, Note_on_c, 9, 42, 72
3, 24861, Note_on_c, 9, 40, 115
3, 24865, Note_on_c, 9, 42, 0
3, 24885, Note_on_c, 9, 40, 0
3, 24909, Note_on_c, 9, 42, 50
3, 24913, Note_on_c, 9, 42, 0
3, 24956, Note_on_c, 9, 42, 0
3, 24957, Note_on_c, 9, 42, 72
3, 24957, Note_on_c, 9, 35, 100
3, 24959, Note_on_c, 9, 35, 0
3, 25005, Note_on_c, 9, 42, 48
3, 25009, Note_on_c, 9, 42, 0
3, 25053, Note_on_c, 9, 42, 72
3, 25053, Note_on_c, 9, 40, 115
3, 25055, Note_on_c, 9, 42, 0
3, 25057, Note_on_c, 9, 42, 0
3, 25077, Note_on_c, 9, 40, 0
3, 25101, Note_on_c, 9, 42, 50
3, 25105, Note_on_c, 9, 42, 0
3, 25149, Note_on_c, 9, 42, 72
3, 25149, Note_on_c, 9, 35, 84
3, 25151, Note_on_c, 9, 35, 0
3, 25153, Note_on_c, 9, 42, 0
3, 25197, Note_on_c, 9, 42, 50
3, 25199, Note_on_c, 9, 42, 0
3, 25201, Note_on_c, 9, 42, 0
3, 25245, Note_on_c, 9, 42, 72
3, 25245, Note_on_c, 9, 40, 115
3, 25269, Note_on_c, 9, 40, 0
3, 25293, Note_on_c, 9, 42, 50
3, 25297, Note_on_c, 9, 42, 0
3, 25340, Note_on_c, 9, 42, 0
3, 25341, Note_on_c, 9, 42, 64
3, 25341, Note_on_c, 9, 35, 90
3, 25343, Note_on_c, 9, 35, 0
3, 25389, Note_on_c, 9, 42, 50
3, 25437, Note_on_c, 9, 42, 72
3, 25437, Note_on_c, 9, 40, 115
3, 25441, Note_on_c, 9, 42, 0
3, 25461, Note_on_c, 9, 40, 0
3, 25485, Note_on_c, 9, 42, 50
3, 25487, Note_on_c, 9, 42, 0
3, 25489, Note_on_c, 9, 42, 0
3, 25533, Note_on_c, 9, 42, 72
3, 25533, Note_on_c, 9, 35, 100
3, 25535, Note_on_c, 9, 35, 0
3, 25535, Note_on_c, 9, 42, 0
3, 25537, Note_on_c, 9, 42, 0
3, 25581, Note_on_c, 9, 42, 50
3, 25583, Note_on_c, 9, 42, 0
3, 25585, Note_on_c, 9, 42, 0
3, 25629, Note_on_c, 9, 42, 72
3, 25629, Note_on_c, 9, 40, 115
3, 25631, Note_on_c, 9, 42, 0
3, 25633, Note_on_c, 9, 42, 0
3, 25653, Note_on_c, 9, 40, 0
3, 25677, Note_on_c, 9, 44, 50
3, 25677, Note_on_c, 9, 46, 88
3, 25677, Note_on_c, 9, 49, 80
3, 25677, Note_on_c, 9, 42, 50
3, 25679, Note_on_c, 9, 42, 0
3, 25679, Note_on_c, 9, 44, 0
3, 25679, Note_on_c, 9, 46, 0
3, 25679, Note_on_c, 9, 49, 0
3, 25679, End_track
4, 0, Start_track
4, 0, MIDI_port, 0
4, 0, Program_c, 1, 35
4, 0, Control_c, 1, 7, 127
4, 1536, Note_on_c, 1, 35, 112
4, 1919, Note_on_c, 1, 30, 112
4, 1925, Note_on_c, 1, 35, 0
4, 2249, Note_on_c, 1, 30, 0
4, 2253, Note_on_c, 1, 28, 100
4, 2272, Note_on_c, 1, 30, 100
4, 2277, Note_on_c, 1, 28, 0
4, 2299, Note_on_c, 1, 35, 112
4, 2300, Note_on_c, 1, 30, 0
4, 2683, Note_on_c, 1, 30, 112
4, 2689, Note_on_c, 1, 35, 0
4, 3018, Note_on_c, 1, 30, 0
4, 3019, Note_on_c, 1, 28, 88
4, 3040, Note_on_c, 1, 30, 100
4, 3046, Note_on_c, 1, 28, 0
4, 3066, Note_on_c, 1, 30, 0
4, 3066, Note_on_c, 1, 35, 100
4, 3454, Note_on_c, 1, 42, 88
4, 3459, Note_on_c, 1, 35, 0
4, 3543, Note_on_c, 1, 40, 88
4, 3546, Note_on_c, 1, 42, 0
4, 3639, Note_on_c, 1, 38, 100
4, 3643, Note_on_c, 1, 40, 0
4, 3766, Note_on_c, 1, 38, 0
4, 3790, Note_on_c, 1, 38, 125
4, 4134, Note_on_c, 1, 38, 0
4, 4171, Note_on_c, 1, 38, 112
4, 4467, Note_on_c, 1, 40, 88
4, 4470, Note_on_c, 1, 38, 0
4, 4492, Note_on_c, 1, 40, 0
4, 4493, Note_on_c, 1, 42, 88
4, 4508, Note_on_c, 1, 45, 100
4, 4516, Note_on_c, 1, 42, 0
4, 4599, Note_on_c, 1, 45, 0
4, 4605, Note_on_c, 1, 35, 100
4, 4745, Note_on_c, 1, 35, 0
4, 4752, Note_on_c, 1, 42, 100
4, 4982, Note_on_c, 1, 42, 0
4, 4990, Note_on_c, 1, 35, 112
4, 5126, Note_on_c, 1, 35, 0
4, 5132, Note_on_c, 1, 42, 100
4, 5363, Note_on_c, 1, 42, 0
4, 5370, Note_on_c, 1, 35, 112
4, 5514, Note_on_c, 1, 42, 100
4, 5516, Note_on_c, 1, 35, 0
4, 5749, Note_on_c, 1, 28, 125
4, 5750, Note_on_c, 1, 42, 0
4, 5894, Note_on_c, 1, 28, 0
4, 5903, Note_on_c, 1, 33, 112
4, 6070, Note_on_c, 1, 33, 0
4, 6143, Note_on_c, 1, 35, 112
4, 6287, Note_on_c, 1, 42, 100
4, 6289, Note_on_c, 1, 35, 0
4, 6524, Note_on_c, 1, 42, 0
4, 6524, Note_on_c, 1, 35, 112
4, 6673, Note_on_c, 1, 42, 88
4, 6676, Note_on_c, 1, 35, 0
4, 6876, Note_on_c, 1, 42, 0
4, 6907, Note_on_c, 1, 40, 100
4, 7053, Note_on_c, 1, 38, 112
4, 7059, Note_on_c, 1, 40, 0
4, 7236, Note_on_c, 1, 38, 0
4, 7237, Note_on_c, 1, 26, 112
4, 7605, Note_on_c, 1, 26, 0
4, 7677, Note_on_c, 1, 35, 112
4, 7816, Note_on_c, 1, 35, 0
4, 7817, Note_on_c, 1, 42, 77
4, 8061, Note_on_c, 1, 40, 77
4, 8062, Note_on_c, 1, 42, 0
4, 8203, Note_on_c, 1, 38, 100
4, 8208, Note_on_c, 1, 40, 0
4, 8444, Note_on_c, 1, 38, 0
4, 8447, Note_on_c, 1, 35, 112
4, 8588, Note_on_c, 1, 42, 100
4, 8591, Note_on_c, 1, 35, 0
4, 8826, Note_on_c, 1, 40, 88
4, 8832, Note_on_c, 1, 42, 0
4, 8972, Note_on_c, 1, 38, 100
4, 8976, Note_on_c, 1, 40, 0
4, 9185, Note_on_c, 1, 38, 0
4, 9213, Note_on_c, 1, 35, 112
4, 9596, Note_on_c, 1, 30, 112
4, 9602, Note_on_c, 1, 35, 0
4, 9926, Note_on_c, 1, 30, 0
4, 9930, Note_on_c, 1, 28, 100
4, 9949, Note_on_c, 1, 30, 100
4, 9954, Note_on_c, 1, 28, 0
4, 9976, Note_on_c, 1, 35, 112
4, 9977, Note_on_c, 1, 30, 0
4, 10360, Note_on_c, 1, 30, 112
4, 10366, Note_on_c, 1, 35, 0
4, 10695, Note_on_c, 1, 30, 0
4, 10696, Note_on_c, 1, 28, 88
4, 10717, Note_on_c, 1, 30, 100
4, 10723, Note_on_c, 1, 28, 0
4, 10743, Note_on_c, 1, 30, 0
4, 10743, Note_on_c, 1, 35, 100
4, 11131, Note_on_c, 1, 42, 88
4, 11136, Note_on_c, 1, 35, 0
4, 11220, Note_on_c, 1, 40, 88
4, 11223, Note_on_c, 1, 42, 0
4, 11316, Note_on_c, 1, 38, 100
4, 11320, Note_on_c, 1, 40, 0
4, 11443, Note_on_c, 1, 38, 0
4, 11467, Note_on_c, 1, 38, 125
4, 11811, Note_on_c, 1, 38, 0
4, 11848, Note_on_c, 1, 38, 112
4, 12147, Note_on_c, 1, 40, 88
4, 12150, Note_on_c, 1, 38, 0
4, 12172, Note_on_c, 1, 40, 0
4, 12173, Note_on_c, 1, 42, 88
4, 12188, Note_on_c, 1, 45, 100
4, 12196, Note_on_c, 1, 42, 0
4, 12279, Note_on_c, 1, 45, 0
4, 12285, Note_on_c, 1, 35, 100
4, 12425, Note_on_c, 1, 35, 0
4, 12432, Note_on_c, 1, 42, 100
4, 12662, Note_on_c, 1, 42, 0
4, 12670, Note_on_c, 1, 35, 112
4, 12806, Note_on_c, 1, 35, 0
4, 12812, Note_on_c, 1, 42, 100
4, 13043, Note_on_c, 1, 42, 0
4, 13050, Note_on_c, 1, 35, 112
4, 13194, Note_on_c, 1, 42, 100
4, 13196, Note_on_c, 1, 35, 0
4, 13429, Note_on_c, 1, 28, 125
4, 13430, Note_on_c, 1, 42, 0
4, 13574, Note_on_c, 1, 28, 0
4, 13583, Note_on_c, 1, 33, 112
4, 13750, Note_on_c, 1, 33, 0
4, 13823, Note_on_c, 1, 35, 112
4, 13967, Note_on_c, 1, 42, 100
4, 13969, Note_on_c, 1, 35, 0
4, 14204, Note_on_c, 1, 42, 0
4, 14204, Note_on_c, 1, 35, 112
4, 14353, Note_on_c, 1, 42, 88
4, 14356, Note_on_c, 1, 35, 0
4, 14556, Note_on_c, 1, 42, 0
4, 14587, Note_on_c, 1, 40, 100
4, 14733, Note_on_c, 1, 38, 112
4, 14739, Note_on_c, 1, 40, 0
4, 14916, Note_on_c, 1, 38, 0
4, 14917, Note_on_c, 1, 26, 112
4, 15306, Note_on_c, 1, 26, 0
4, 15357, Note_on_c, 1, 35, 112
4, 15503, Note_on_c, 1, 35, 0
4, 15503, Note_on_c, 1, 42, 112
4, 15747, Note_on_c, 1, 40, 88
4, 15751, Note_on_c, 1, 42, 0
4, 15887, Note_on_c, 1, 38, 112
4, 15895, Note_on_c, 1, 40, 0
4, 15935, Note_on_c, 1, 37, 68
4, 15941, Note_on_c, 1, 38, 0
4, 15980, Note_on_c, 1, 35, 100
4, 15983, Note_on_c, 1, 37, 0
4, 16030, Note_on_c, 1, 35, 0
4, 16031, Note_on_c, 1, 33, 100
4, 16074, Note_on_c, 1, 33, 0
4, 16075, Note_on_c, 1, 30, 88
4, 16127, Note_on_c, 1, 30, 0
4, 16127, Note_on_c, 1, 35, 100
4, 16273, Note_on_c, 1, 35, 0
4, 16273, Note_on_c, 1, 30, 100
4, 16504, Note_on_c, 1, 30, 0
4, 16512, Note_on_c, 1, 40, 100
4, 16567, Note_on_c, 1, 40, 0
4, 16593, Note_on_c, 1, 40, 88
4, 16650, Note_on_c, 1, 40, 0
4, 16655, Note_on_c, 1, 33, 112
4, 16724, Note_on_c, 1, 33, 0
4, 16746, Note_on_c, 1, 33, 112
4, 16800, Note_on_c, 1, 35, 112
4, 16804, Note_on_c, 1, 33, 0
4, 16842, Note_on_c, 1, 37, 88
4, 16844, Note_on_c, 1, 35, 0
4, 16893, Note_on_c, 1, 37, 0
4, 16893, Note_on_c, 1, 38, 112
4, 17034, Note_on_c, 1, 38, 125
4, 17085, Note_on_c, 1, 38, 0
4, 17210, Note_on_c, 1, 38, 0
4, 17211, Note_on_c, 1, 38, 112
4, 17280, Note_on_c, 1, 38, 0
4, 17282, Note_on_c, 1, 37, 88
4, 17388, Note_on_c, 1, 37, 0
4, 17423, Note_on_c, 1, 37, 112
4, 17521, Note_on_c, 1, 32, 88
4, 17524, Note_on_c, 1, 37, 0
4, 17567, Note_on_c, 1, 37, 88
4, 17575, Note_on_c, 1, 32, 0
4, 17612, Note_on_c, 1, 32, 45
4, 17616, Note_on_c, 1, 37, 0
4, 17663, Note_on_c, 1, 37, 100
4, 17665, Note_on_c, 1, 32, 0
4, 17759, Note_on_c, 1, 37, 0
4, 17805, Note_on_c, 1, 37, 100
4, 17871, Note_on_c, 1, 37, 0
4, 17946, Note_on_c, 1, 37, 100
4, 17971, Note_on_c, 1, 35, 100
4, 17979, Note_on_c, 1, 37, 0
4, 17989, Note_on_c, 1, 32, 77
4, 18042, Note_on_c, 1, 30, 88
4, 18047, Note_on_c, 1, 32, 0
4, 18048, Note_on_c, 1, 35, 0
4, 18166, Note_on_c, 1, 30, 0
4, 18185, Note_on_c, 1, 42, 100
4, 18275, Note_on_c, 1, 42, 0
4, 18283, Note_on_c, 1, 35, 112
4, 18332, Note_on_c, 1, 35, 0
4, 18333, Note_on_c, 1, 37, 100
4, 18378, Note_on_c, 1, 38, 100
4, 18381, Note_on_c, 1, 37, 0
4, 18428, Note_on_c, 1, 38, 0
4, 18429, Note_on_c, 1, 40, 100
4, 18542, Note_on_c, 1, 40, 0
4, 18572, Note_on_c, 1, 33, 112
4, 18758, Note_on_c, 1, 33, 0
4, 18763, Note_on_c, 1, 38, 112
4, 19144, Note_on_c, 1, 38, 0
4, 19145, Note_on_c, 1, 38, 112
4, 19382, Note_on_c, 1, 40, 100
4, 19404, Note_on_c, 1, 42, 100
4, 19414, Note_on_c, 1, 40, 0
4, 19431, Note_on_c, 1, 45, 112
4, 19436, Note_on_c, 1, 42, 0
4, 19482, Note_on_c, 1, 45, 0
4, 19483, Note_on_c, 1, 47, 88
4, 19508, Note_on_c, 1, 45, 100
4, 19516, Note_on_c, 1, 47, 0
4, 19524, Note_on_c, 1, 38, 0
4, 19531, Note_on_c, 1, 42, 112
4, 19533, Note_on_c, 1, 45, 0
4, 19568, Note_on_c, 1, 42, 0
4, 19581, Note_on_c, 1, 35, 100
4, 19728, Note_on_c, 1, 42, 100
4, 19773, Note_on_c, 1, 35, 0
4, 19958, Note_on_c, 1, 42, 0
4, 19966, Note_on_c, 1, 35, 112
4, 20062, Note_on_c, 1, 35, 0
4, 20108, Note_on_c, 1, 42, 100
4, 20339, Note_on_c, 1, 42, 0
4, 20346, Note_on_c, 1, 35, 112
4, 20443, Note_on_c, 1, 35, 0
4, 20490, Note_on_c, 1, 42, 100
4, 20725, Note_on_c, 1, 28, 125
4, 20726, Note_on_c, 1, 42, 0
4, 20879, Note_on_c, 1, 33, 112
4, 20925, Note_on_c, 1, 28, 0
4, 21046, Note_on_c, 1, 33, 0
4, 21119, Note_on_c, 1, 35, 112
4, 21262, Note_on_c, 1, 35, 0
4, 21263, Note_on_c, 1, 42, 100
4, 21500, Note_on_c, 1, 42, 0
4, 21500, Note_on_c, 1, 35, 112
4, 21608, Note_on_c, 1, 35, 0
4, 21649, Note_on_c, 1, 42, 88
4, 21852, Note_on_c, 1, 42, 0
4, 21883, Note_on_c, 1, 40, 100
4, 21982, Note_on_c, 1, 40, 0
4, 22029, Note_on_c, 1, 38, 112
4, 22184, Note_on_c, 1, 38, 0
4, 22213, Note_on_c, 1, 26, 112
4, 22656, Note_on_c, 1, 35, 112
4, 22756, Note_on_c, 1, 26, 0
4, 22798, Note_on_c, 1, 42, 112
4, 22802, Note_on_c, 1, 35, 0
4, 22988, Note_on_c, 1, 42, 0
4, 23039, Note_on_c, 1, 40, 77
4, 23179, Note_on_c, 1, 38, 88
4, 23226, Note_on_c, 1, 37, 77
4, 23229, Note_on_c, 1, 40, 0
4, 23271, Note_on_c, 1, 35, 100
4, 23281, Note_on_c, 1, 37, 0
4, 23283, Note_on_c, 1, 38, 0
4, 23329, Note_on_c, 1, 33, 112
4, 23341, Note_on_c, 1, 35, 0
4, 23368, Note_on_c, 1, 28, 88
4, 23370, Note_on_c, 1, 33, 0
4, 23419, Note_on_c, 1, 35, 100
4, 23516, Note_on_c, 1, 35, 0
4, 23567, Note_on_c, 1, 30, 100
4, 23603, Note_on_c, 1, 28, 0
4, 23797, Note_on_c, 1, 30, 0
4, 23801, Note_on_c, 1, 28, 100
4, 23945, Note_on_c, 1, 38, 100
4, 24137, Note_on_c, 1, 38, 0
4, 24141, Note_on_c, 1, 33, 112
4, 24191, Note_on_c, 1, 33, 0
4, 24192, Note_on_c, 1, 35, 112
4, 24244, Note_on_c, 1, 28, 0
4, 24328, Note_on_c, 1, 35, 0
4, 24333, Note_on_c, 1, 42, 77
4, 24574, Note_on_c, 1, 40, 77
4, 24589, Note_on_c, 1, 42, 0
4, 24715, Note_on_c, 1, 38, 100
4, 24756, Note_on_c, 1, 37, 40
4, 24807, Note_on_c, 1, 35, 100
4, 24814, Note_on_c, 1, 37, 0
4, 24817, Note_on_c, 1, 38, 0
4, 24828, Note_on_c, 1, 40, 0
4, 24828, Note_on_c, 1, 35, 0
4, 24859, Note_on_c, 1, 33, 112
4, 24905, Note_on_c, 1, 35, 88
4, 24916, Note_on_c, 1, 33, 0
4, 25098, Note_on_c, 1, 30, 100
4, 25116, Note_on_c, 1, 35, 0
4, 25330, Note_on_c, 1, 30, 0
4, 25332, Note_on_c, 1, 28, 100
4, 25486, Note_on_c, 1, 38, 100
4, 25588, Note_on_c, 1, 28, 0
4, 25675, Note_on_c, 1, 26, 100
4, 25692, Note_on_c, 1, 38, 0
4, 26212, Note_on_c, 1, 26, 0
4, 26212, End_track
5, 0, Start_track
5, 0, MIDI_port, 0
5, 0, Program_c, 6, 18
5, 0, Control_c, 6, 7, 127
5, 1588, Note_on_c, 6, 66, 100
5, 1616, Note_on_c, 6, 66, 0
5, 1631, Note_on_c, 6, 69, 100
5, 1642, Note_on_c, 6, 69, 0
5, 1656, Note_on_c, 6, 69, 112
5, 1673, Note_on_c, 6, 69, 0
5, 1682, Note_on_c, 6, 71, 88
5, 1774, Note_on_c, 6, 71, 0
5, 1775, Note_on_c, 6, 69, 100
5, 1818, Note_on_c, 6, 69, 0
5, 1822, Note_on_c, 6, 66, 77
5, 1870, Note_on_c, 6, 69, 100
5, 1872, Note_on_c, 6, 66, 0
5, 1917, Note_on_c, 6, 69, 0
5, 1917, Note_on_c, 6, 73, 77
5, 1941, Note_on_c, 6, 73, 0
5, 1962, Note_on_c, 6, 73, 68
5, 1988, Note_on_c, 6, 73, 0
5, 2011, Note_on_c, 6, 73, 77
5, 2066, Note_on_c, 6, 73, 0
5, 2066, Note_on_c, 6, 71, 88
5, 2157, Note_on_c, 6, 71, 0
5, 2160, Note_on_c, 6, 69, 112
5, 2260, Note_on_c, 6, 69, 0
5, 2349, Note_on_c, 6, 66, 77
5, 2393, Note_on_c, 6, 66, 0
5, 2398, Note_on_c, 6, 69, 112
5, 2411, Note_on_c, 6, 69, 0
5, 2423, Note_on_c, 6, 69, 100
5, 2439, Note_on_c, 6, 69, 0
5, 2447, Note_on_c, 6, 69, 88
5, 2493, Note_on_c, 6, 71, 88
5, 2497, Note_on_c, 6, 69, 0
5, 2542, Note_on_c, 6, 71, 0
5, 2542, Note_on_c, 6, 69, 112
5, 2595, Note_on_c, 6, 69, 0
5, 2687, Note_on_c, 6, 78, 88
5, 2689, Note_on_c, 6, 81, 100
5, 2730, Note_on_c, 6, 78, 0
5, 2732, Note_on_c, 6, 76, 88
5, 2737, Note_on_c, 6, 80, 51
5, 2744, Note_on_c, 6, 81, 0
5, 2782, Note_on_c, 6, 73, 77
5, 2784, Note_on_c, 6, 76, 0
5, 2786, Note_on_c, 6, 76, 68
5, 2788, Note_on_c, 6, 80, 0
5, 2831, Note_on_c, 6, 76, 88
5, 2831, Note_on_c, 6, 80, 77
5, 2836, Note_on_c, 6, 76, 0
5, 2839, Note_on_c, 6, 73, 0
5, 2928, Note_on_c, 6, 73, 77
5, 2929, Note_on_c, 6, 76, 0
5, 2929, Note_on_c, 6, 80, 0
5, 2930, Note_on_c, 6, 76, 77
5, 3033, Note_on_c, 6, 73, 0
5, 3046, Note_on_c, 6, 76, 0
5, 3114, Note_on_c, 6, 66, 77
5, 3166, Note_on_c, 6, 69, 100
5, 3171, Note_on_c, 6, 66, 0
5, 3210, Note_on_c, 6, 69, 0
5, 3213, Note_on_c, 6, 71, 77
5, 3312, Note_on_c, 6, 71, 0
5, 3312, Note_on_c, 6, 69, 100
5, 3361, Note_on_c, 6, 69, 0
5, 3405, Note_on_c, 6, 69, 100
5, 3454, Note_on_c, 6, 73, 77
5, 3456, Note_on_c, 6, 69, 0
5, 3501, Note_on_c, 6, 69, 112
5, 3503, Note_on_c, 6, 73, 0
5, 3548, Note_on_c, 6, 71, 77
5, 3551, Note_on_c, 6, 69, 0
5, 3599, Note_on_c, 6, 66, 100
5, 3600, Note_on_c, 6, 71, 0
5, 3811, Note_on_c, 6, 66, 0
5, 3890, Note_on_c, 6, 76, 100
5, 3915, Note_on_c, 6, 76, 0
5, 3936, Note_on_c, 6, 76, 88
5, 3960, Note_on_c, 6, 76, 0
5, 3985, Note_on_c, 6, 76, 100
5, 4033, Note_on_c, 6, 69, 112
5, 4035, Note_on_c, 6, 76, 0
5, 4060, Note_on_c, 6, 69, 0
5, 4081, Note_on_c, 6, 69, 112
5, 4111, Note_on_c, 6, 69, 0
5, 4128, Note_on_c, 6, 69, 100
5, 4153, Note_on_c, 6, 69, 0
5, 4174, Note_on_c, 6, 69, 112
5, 4223, Note_on_c, 6, 73, 88
5, 4226, Note_on_c, 6, 69, 0
5, 4266, Note_on_c, 6, 76, 100
5, 4272, Note_on_c, 6, 73, 0
5, 4294, Note_on_c, 6, 76, 0
5, 4316, Note_on_c, 6, 76, 100
5, 4367, Note_on_c, 6, 76, 0
5, 4367, Note_on_c, 6, 73, 88
5, 4413, Note_on_c, 6, 78, 100
5, 4418, Note_on_c, 6, 73, 0
5, 4477, Note_on_c, 6, 78, 0
5, 4507, Note_on_c, 6, 78, 100
5, 4563, Note_on_c, 6, 78, 0
5, 4608, Note_on_c, 6, 74, 100
5, 4611, Note_on_c, 6, 66, 100
5, 4631, Note_on_c, 6, 74, 0
5, 4653, Note_on_c, 6, 74, 100
5, 4657, Note_on_c, 6, 69, 100
5, 4659, Note_on_c, 6, 66, 0
5, 4674, Note_on_c, 6, 74, 0
5, 4680, Note_on_c, 6, 69, 0
5, 4702, Note_on_c, 6, 74, 100
5, 4704, Note_on_c, 6, 69, 100
5, 4738, Note_on_c, 6, 74, 0
5, 4749, Note_on_c, 6, 69, 0
5, 4749, Note_on_c, 6, 73, 88
5, 4774, Note_on_c, 6, 73, 0
5, 4799, Note_on_c, 6, 73, 77
5, 4875, Note_on_c, 6, 73, 0
5, 4940, Note_on_c, 6, 69, 100
5, 4987, Note_on_c, 6, 71, 88
5, 4992, Note_on_c, 6, 69, 0
5, 5033, Note_on_c, 6, 69, 100
5, 5037, Note_on_c, 6, 71, 0
5, 5062, Note_on_c, 6, 69, 0
5, 5088, Note_on_c, 6, 69, 100
5, 5133, Note_on_c, 6, 73, 88
5, 5137, Note_on_c, 6, 69, 0
5, 5245, Note_on_c, 6, 73, 0
5, 5371, Note_on_c, 6, 74, 100
5, 5372, Note_on_c, 6, 66, 88
5, 5393, Note_on_c, 6, 74, 0
5, 5416, Note_on_c, 6, 69, 112
5, 5417, Note_on_c, 6, 74, 88
5, 5421, Note_on_c, 6, 66, 0
5, 5438, Note_on_c, 6, 74, 0
5, 5448, Note_on_c, 6, 69, 0
5, 5464, Note_on_c, 6, 74, 100
5, 5468, Note_on_c, 6, 69, 112
5, 5505, Note_on_c, 6, 74, 0
5, 5514, Note_on_c, 6, 69, 0
5, 5515, Note_on_c, 6, 73, 68
5, 5543, Note_on_c, 6, 73, 0
5, 5561, Note_on_c, 6, 73, 100
5, 5634, Note_on_c, 6, 73, 0
5, 5710, Note_on_c, 6, 69, 112
5, 5751, Note_on_c, 6, 69, 0
5, 5751, Note_on_c, 6, 78, 77
5, 5803, Note_on_c, 6, 76, 88
5, 5807, Note_on_c, 6, 78, 0
5, 5850, Note_on_c, 6, 73, 88
5, 5854, Note_on_c, 6, 76, 0
5, 5898, Note_on_c, 6, 76, 100
5, 5901, Note_on_c, 6, 73, 0
5, 5996, Note_on_c, 6, 76, 0
5, 5996, Note_on_c, 6, 73, 100
5, 6079, Note_on_c, 6, 73, 0
5, 6138, Note_on_c, 6, 66, 112
5, 6143, Note_on_c, 6, 74, 100
5, 6170, Note_on_c, 6, 74, 0
5, 6188, Note_on_c, 6, 74, 77
5, 6189, Note_on_c, 6, 69, 100
5, 6195, Note_on_c, 6, 66, 0
5, 6209, Note_on_c, 6, 74, 0
5, 6216, Note_on_c, 6, 69, 0
5, 6232, Note_on_c, 6, 74, 88
5, 6236, Note_on_c, 6, 69, 100
5, 6273, Note_on_c, 6, 74, 0
5, 6279, Note_on_c, 6, 73, 88
5, 6282, Note_on_c, 6, 69, 0
5, 6283, Note_on_c, 6, 76, 77
5, 6307, Note_on_c, 6, 76, 0
5, 6310, Note_on_c, 6, 73, 0
5, 6327, Note_on_c, 6, 73, 77
5, 6331, Note_on_c, 6, 76, 68
5, 6420, Note_on_c, 6, 76, 0
5, 6430, Note_on_c, 6, 73, 0
5, 6474, Note_on_c, 6, 69, 100
5, 6523, Note_on_c, 6, 71, 88
5, 6529, Note_on_c, 6, 69, 0
5, 6569, Note_on_c, 6, 69, 100
5, 6571, Note_on_c, 6, 71, 0
5, 6597, Note_on_c, 6, 69, 0
5, 6618, Note_on_c, 6, 69, 100
5, 6666, Note_on_c, 6, 73, 88
5, 6668, Note_on_c, 6, 69, 0
5, 6779, Note_on_c, 6, 73, 0
5, 6858, Note_on_c, 6, 73, 112
5, 6905, Note_on_c, 6, 74, 88
5, 6910, Note_on_c, 6, 73, 0
5, 6953, Note_on_c, 6, 73, 68
5, 6957, Note_on_c, 6, 74, 0
5, 7002, Note_on_c, 6, 74, 100
5, 7009, Note_on_c, 6, 73, 0
5, 7049, Note_on_c, 6, 73, 88
5, 7053, Note_on_c, 6, 74, 0
5, 7100, Note_on_c, 6, 76, 100
5, 7104, Note_on_c, 6, 73, 0
5, 7147, Note_on_c, 6, 73, 100
5, 7153, Note_on_c, 6, 76, 0
5, 7190, Note_on_c, 6, 71, 77
5, 7193, Note_on_c, 6, 73, 0
5, 7240, Note_on_c, 6, 69, 112
5, 7245, Note_on_c, 6, 71, 0
5, 7392, Note_on_c, 6, 69, 0
5, 7436, Note_on_c, 6, 64, 100
5, 7479, Note_on_c, 6, 66, 77
5, 7487, Note_on_c, 6, 64, 0
5, 7534, Note_on_c, 6, 69, 100
5, 7542, Note_on_c, 6, 66, 0
5, 7580, Note_on_c, 6, 71, 68
5, 7584, Note_on_c, 6, 69, 0
5, 7605, Note_on_c, 6, 71, 0
5, 7626, Note_on_c, 6, 71, 88
5, 7724, Note_on_c, 6, 69, 88
5, 7727, Note_on_c, 6, 71, 0
5, 7851, Note_on_c, 6, 69, 0
5, 7914, Note_on_c, 6, 83, 100
5, 7963, Note_on_c, 6, 81, 112
5, 7967, Note_on_c, 6, 83, 0
5, 8024, Note_on_c, 6, 81, 0
5, 8109, Note_on_c, 6, 78, 88
5, 8151, Note_on_c, 6, 76, 88
5, 8156, Note_on_c, 6, 78, 0
5, 8205, Note_on_c, 6, 76, 0
5, 8251, Note_on_c, 6, 73, 100
5, 8296, Note_on_c, 6, 71, 88
5, 8305, Note_on_c, 6, 73, 0
5, 8349, Note_on_c, 6, 71, 0
5, 8447, Note_on_c, 6, 71, 100
5, 8468, Note_on_c, 6, 69, 100
5, 8479, Note_on_c, 6, 71, 0
5, 8496, Note_on_c, 6, 64, 68
5, 8499, Note_on_c, 6, 69, 0
5, 8517, Note_on_c, 6, 66, 77
5, 8524, Note_on_c, 6, 64, 0
5, 8583, Note_on_c, 6, 69, 88
5, 8590, Note_on_c, 6, 66, 0
5, 8722, Note_on_c, 6, 69, 0
5, 9256, Note_on_c, 6, 66, 100
5, 9314, Note_on_c, 6, 66, 0
5, 9315, Note_on_c, 6, 69, 112
5, 9351, Note_on_c, 6, 69, 0
5, 9352, Note_on_c, 6, 71, 88
5, 9447, Note_on_c, 6, 71, 0
5, 9450, Note_on_c, 6, 69, 100
5, 9497, Note_on_c, 6, 69, 0
5, 9500, Note_on_c, 6, 66, 77
5, 9550, Note_on_c, 6, 69, 112
5, 9557, Note_on_c, 6, 66, 0
5, 9596, Note_on_c, 6, 73, 77
5, 9601, Note_on_c, 6, 69, 0
5, 9622, Note_on_c, 6, 73, 0
5, 9643, Note_on_c, 6, 73, 68
5, 9671, Note_on_c, 6, 73, 0
5, 9692, Note_on_c, 6, 73, 77
5, 9742, Note_on_c, 6, 71, 88
5, 9746, Note_on_c, 6, 73, 0
5, 9829, Note_on_c, 6, 71, 0
5, 9832, Note_on_c, 6, 69, 100
5, 9907, Note_on_c, 6, 69, 0
5, 10027, Note_on_c, 6, 66, 88
5, 10074, Note_on_c, 6, 69, 100
5, 10081, Note_on_c, 6, 66, 0
5, 10127, Note_on_c, 6, 69, 0
5, 10127, Note_on_c, 6, 71, 88
5, 10214, Note_on_c, 6, 71, 0
5, 10218, Note_on_c, 6, 69, 100
5, 10266, Note_on_c, 6, 69, 0
5, 10318, Note_on_c, 6, 69, 100
5, 10361, Note_on_c, 6, 78, 88
5, 10362, Note_on_c, 6, 81, 88
5, 10364, Note_on_c, 6, 69, 0
5, 10410, Note_on_c, 6, 76, 88
5, 10413, Note_on_c, 6, 78, 0
5, 10413, Note_on_c, 6, 80, 68
5, 10420, Note_on_c, 6, 81, 0
5, 10455, Note_on_c, 6, 73, 77
5, 10457, Note_on_c, 6, 76, 0
5, 10457, Note_on_c, 6, 76, 77
5, 10460, Note_on_c, 6, 80, 0
5, 10502, Note_on_c, 6, 76, 88
5, 10507, Note_on_c, 6, 73, 0
5, 10507, Note_on_c, 6, 80, 88
5, 10511, Note_on_c, 6, 76, 0
5, 10602, Note_on_c, 6, 73, 100
5, 10602, Note_on_c, 6, 76, 60
5, 10603, Note_on_c, 6, 80, 0
5, 10604, Note_on_c, 6, 76, 0
5, 10715, Note_on_c, 6, 73, 0
5, 10733, Note_on_c, 6, 76, 0
5, 10796, Note_on_c, 6, 66, 100
5, 10842, Note_on_c, 6, 69, 112
5, 10847, Note_on_c, 6, 66, 0
5, 10890, Note_on_c, 6, 69, 0
5, 10890, Note_on_c, 6, 71, 88
5, 11017, Note_on_c, 6, 71, 0
5, 11134, Note_on_c, 6, 73, 77
5, 11162, Note_on_c, 6, 73, 0
5, 11184, Note_on_c, 6, 73, 100
5, 11207, Note_on_c, 6, 73, 0
5, 11226, Note_on_c, 6, 73, 100
5, 11273, Note_on_c, 6, 73, 0
5, 11275, Note_on_c, 6, 71, 88
5, 11374, Note_on_c, 6, 69, 100
5, 11377, Note_on_c, 6, 71, 0
5, 11521, Note_on_c, 6, 69, 0
5, 11567, Note_on_c, 6, 76, 100
5, 11589, Note_on_c, 6, 76, 0
5, 11615, Note_on_c, 6, 76, 100
5, 11638, Note_on_c, 6, 76, 0
5, 11661, Note_on_c, 6, 76, 100
5, 11706, Note_on_c, 6, 76, 0
5, 11709, Note_on_c, 6, 69, 112
5, 11736, Note_on_c, 6, 69, 0
5, 11755, Note_on_c, 6, 69, 100
5, 11779, Note_on_c, 6, 69, 0
5, 11802, Note_on_c, 6, 69, 112
5, 11822, Note_on_c, 6, 69, 0
5, 11848, Note_on_c, 6, 69, 112
5, 11897, Note_on_c, 6, 69, 0
5, 11898, Note_on_c, 6, 73, 100
5, 11945, Note_on_c, 6, 76, 100
5, 11952, Note_on_c, 6, 73, 0
5, 11971, Note_on_c, 6, 76, 0
5, 11997, Note_on_c, 6, 76, 100
5, 12044, Note_on_c, 6, 73, 100
5, 12048, Note_on_c, 6, 76, 0
5, 12077, Note_on_c, 6, 73, 0
5, 12091, Note_on_c, 6, 78, 112
5, 12091, Note_on_c, 6, 83, 100
5, 12164, Note_on_c, 6, 78, 0
5, 12189, Note_on_c, 6, 83, 0
5, 12190, Note_on_c, 6, 78, 100
5, 12191, Note_on_c, 6, 81, 100
5, 12262, Note_on_c, 6, 78, 0
5, 12282, Note_on_c, 6, 81, 0
5, 12288, Note_on_c, 6, 74, 100
5, 12291, Note_on_c, 6, 66, 100
5, 12311, Note_on_c, 6, 74, 0
5, 12333, Note_on_c, 6, 74, 100
5, 12337, Note_on_c, 6, 69, 100
5, 12339, Note_on_c, 6, 66, 0
5, 12354, Note_on_c, 6, 74, 0
5, 12360, Note_on_c, 6, 69, 0
5, 12382, Note_on_c, 6, 74, 100
5, 12384, Note_on_c, 6, 69, 100
5, 12418, Note_on_c, 6, 74, 0
5, 12429, Note_on_c, 6, 69, 0
5, 12429, Note_on_c, 6, 73, 88
5, 12454, Note_on_c, 6, 73, 0
5, 12479, Note_on_c, 6, 73, 77
5, 12555, Note_on_c, 6, 73, 0
5, 12620, Note_on_c, 6, 69, 100
5, 12667, Note_on_c, 6, 71, 88
5, 12672, Note_on_c, 6, 69, 0
5, 12713, Note_on_c, 6, 69, 100
5, 12717, Note_on_c, 6, 71, 0
5, 12742, Note_on_c, 6, 69, 0
5, 12768, Note_on_c, 6, 69, 100
5, 12813, Note_on_c, 6, 73, 88
5, 12817, Note_on_c, 6, 69, 0
5, 12925, Note_on_c, 6, 73, 0
5, 13051, Note_on_c, 6, 74, 100
5, 13052, Note_on_c, 6, 66, 88
5, 13073, Note_on_c, 6, 74, 0
5, 13096, Note_on_c, 6, 69, 112
5, 13097, Note_on_c, 6, 74, 88
5, 13101, Note_on_c, 6, 66, 0
5, 13118, Note_on_c, 6, 74, 0
5, 13128, Note_on_c, 6, 69, 0
5, 13144, Note_on_c, 6, 74, 100
5, 13148, Note_on_c, 6, 69, 112
5, 13185, Note_on_c, 6, 74, 0
5, 13194, Note_on_c, 6, 69, 0
5, 13195, Note_on_c, 6, 73, 68
5, 13223, Note_on_c, 6, 73, 0
5, 13241, Note_on_c, 6, 73, 100
5, 13314, Note_on_c, 6, 73, 0
5, 13390, Note_on_c, 6, 69, 112
5, 13431, Note_on_c, 6, 69, 0
5, 13431, Note_on_c, 6, 78, 77
5, 13483, Note_on_c, 6, 76, 88
5, 13487, Note_on_c, 6, 78, 0
5, 13530, Note_on_c, 6, 73, 88
5, 13534, Note_on_c, 6, 76, 0
5, 13578, Note_on_c, 6, 76, 100
5, 13581, Note_on_c, 6, 73, 0
5, 13676, Note_on_c, 6, 76, 0
5, 13676, Note_on_c, 6, 73, 100
5, 13759, Note_on_c, 6, 73, 0
5, 13818, Note_on_c, 6, 66, 112
5, 13823, Note_on_c, 6, 74, 100
5, 13850, Note_on_c, 6, 74, 0
5, 13868, Note_on_c, 6, 74, 77
5, 13869, Note_on_c, 6, 69, 100
5, 13875, Note_on_c, 6, 66, 0
5, 13889, Note_on_c, 6, 74, 0
5, 13896, Note_on_c, 6, 69, 0
5, 13912, Note_on_c, 6, 74, 88
5, 13916, Note_on_c, 6, 69, 100
5, 13953, Note_on_c, 6, 74, 0
5, 13959, Note_on_c, 6, 73, 88
5, 13962, Note_on_c, 6, 69, 0
5, 13963, Note_on_c, 6, 76, 77
5, 13987, Note_on_c, 6, 76, 0
5, 13990, Note_on_c, 6, 73, 0
5, 14007, Note_on_c, 6, 73, 77
5, 14011, Note_on_c, 6, 76, 68
5, 14100, Note_on_c, 6, 76, 0
5, 14110, Note_on_c, 6, 73, 0
5, 14154, Note_on_c, 6, 69, 100
5, 14203, Note_on_c, 6, 71, 88
5, 14209, Note_on_c, 6, 69, 0
5, 14249, Note_on_c, 6, 69, 100
5, 14251, Note_on_c, 6, 71, 0
5, 14277, Note_on_c, 6, 69, 0
5, 14298, Note_on_c, 6, 69, 100
5, 14346, Note_on_c, 6, 73, 88
5, 14348, Note_on_c, 6, 69, 0
5, 14459, Note_on_c, 6, 73, 0
5, 14538, Note_on_c, 6, 73, 112
5, 14585, Note_on_c, 6, 74, 88
5, 14590, Note_on_c, 6, 73, 0
5, 14633, Note_on_c, 6, 73, 68
5, 14637, Note_on_c, 6, 74, 0
5, 14682, Note_on_c, 6, 74, 100
5, 14689, Note_on_c, 6, 73, 0
5, 14729, Note_on_c, 6, 73, 88
5, 14733, Note_on_c, 6, 74, 0
5, 14780, Note_on_c, 6, 76, 100
5, 14784, Note_on_c, 6, 73, 0
5, 14827, Note_on_c, 6, 73, 100
5, 14833, Note_on_c, 6, 76, 0
5, 14870, Note_on_c, 6, 71, 77
5, 14873, Note_on_c, 6, 73, 0
5, 14920, Note_on_c, 6, 69, 112
5, 14925, Note_on_c, 6, 71, 0
5, 15066, Note_on_c, 6, 69, 0
5, 15116, Note_on_c, 6, 73, 100
5, 15159, Note_on_c, 6, 71, 77
5, 15166, Note_on_c, 6, 73, 0
5, 15214, Note_on_c, 6, 66, 100
5, 15222, Note_on_c, 6, 71, 0
5, 15260, Note_on_c, 6, 69, 68
5, 15264, Note_on_c, 6, 66, 0
5, 15285, Note_on_c, 6, 69, 0
5, 15306, Note_on_c, 6, 66, 88
5, 15359, Note_on_c, 6, 66, 0
5, 16125, Note_on_c, 6, 69, 100
5, 16135, Note_on_c, 6, 69, 0
5, 16148, Note_on_c, 6, 66, 40
5, 16171, Note_on_c, 6, 64, 68
5, 16177, Note_on_c, 6, 66, 0
5, 16200, Note_on_c, 6, 66, 88
5, 16215, Note_on_c, 6, 64, 0
5, 16261, Note_on_c, 6, 69, 100
5, 16266, Note_on_c, 6, 66, 0
5, 16325, Note_on_c, 6, 69, 0
5, 16985, Note_on_c, 6, 78, 112
5, 16999, Note_on_c, 6, 78, 0
5, 17010, Note_on_c, 6, 78, 100
5, 17035, Note_on_c, 6, 78, 0
5, 17059, Note_on_c, 6, 78, 112
5, 17128, Note_on_c, 6, 78, 0
5, 17177, Note_on_c, 6, 78, 100
5, 17193, Note_on_c, 6, 78, 0
5, 17206, Note_on_c, 6, 78, 112
5, 17237, Note_on_c, 6, 78, 0
5, 17255, Note_on_c, 6, 80, 112
5, 17305, Note_on_c, 6, 80, 100
5, 17318, Note_on_c, 6, 80, 0
5, 17323, Note_on_c, 6, 80, 0
5, 17357, Note_on_c, 6, 80, 112
5, 17419, Note_on_c, 6, 78, 77
5, 17425, Note_on_c, 6, 80, 0
5, 17435, Note_on_c, 6, 77, 68
5, 17440, Note_on_c, 6, 78, 0
5, 17645, Note_on_c, 6, 77, 0
5, 17757, Note_on_c, 6, 76, 112
5, 17781, Note_on_c, 6, 78, 100
5, 17789, Note_on_c, 6, 76, 0
5, 17807, Note_on_c, 6, 78, 0
5, 17829, Note_on_c, 6, 78, 100
5, 17904, Note_on_c, 6, 78, 0
5, 17951, Note_on_c, 6, 76, 100
5, 17976, Note_on_c, 6, 78, 112
5, 17983, Note_on_c, 6, 76, 0
5, 18020, Note_on_c, 6, 81, 112
5, 18025, Note_on_c, 6, 78, 0
5, 18080, Note_on_c, 6, 81, 0
5, 18080, Note_on_c, 6, 78, 112
5, 18100, Note_on_c, 6, 78, 0
5, 18133, Note_on_c, 6, 78, 112
5, 18185, Note_on_c, 6, 76, 88
5, 18189, Note_on_c, 6, 78, 0
5, 18235, Note_on_c, 6, 73, 112
5, 18242, Note_on_c, 6, 76, 0
5, 18331, Note_on_c, 6, 71, 112
5, 18336, Note_on_c, 6, 73, 0
5, 18522, Note_on_c, 6, 71, 0
5, 18524, Note_on_c, 6, 74, 112
5, 18538, Note_on_c, 6, 74, 0
5, 18548, Note_on_c, 6, 74, 112
5, 18566, Note_on_c, 6, 74, 0
5, 18579, Note_on_c, 6, 76, 100
5, 18681, Note_on_c, 6, 76, 0
5, 18714, Note_on_c, 6, 76, 100
5, 18763, Note_on_c, 6, 76, 0
5, 18763, Note_on_c, 6, 69, 112
5, 18857, Note_on_c, 6, 69, 0
5, 18860, Note_on_c, 6, 76, 88
5, 18886, Note_on_c, 6, 76, 0
5, 18912, Note_on_c, 6, 76, 100
5, 18936, Note_on_c, 6, 76, 0
5, 18956, Note_on_c, 6, 76, 100
5, 19000, Note_on_c, 6, 76, 0
5, 19003, Note_on_c, 6, 69, 100
5, 19031, Note_on_c, 6, 69, 0
5, 19051, Note_on_c, 6, 69, 112
5, 19075, Note_on_c, 6, 69, 0
5, 19098, Note_on_c, 6, 69, 112
5, 19124, Note_on_c, 6, 69, 0
5, 19147, Note_on_c, 6, 69, 112
5, 19195, Note_on_c, 6, 73, 112
5, 19200, Note_on_c, 6, 69, 0
5, 19245, Note_on_c, 6, 76, 100
5, 19258, Note_on_c, 6, 73, 0
5, 19269, Note_on_c, 6, 76, 0
5, 19297, Note_on_c, 6, 76, 100
5, 19346, Note_on_c, 6, 73, 100
5, 19348, Note_on_c, 6, 76, 0
5, 19387, Note_on_c, 6, 78, 100
5, 19392, Note_on_c, 6, 73, 0
5, 19454, Note_on_c, 6, 78, 0
5, 19488, Note_on_c, 6, 78, 100
5, 19568, Note_on_c, 6, 78, 0
5, 19584, Note_on_c, 6, 74, 100
5, 19587, Note_on_c, 6, 66, 100
5, 19607, Note_on_c, 6, 74, 0
5, 19629, Note_on_c, 6, 74, 100
5, 19633, Note_on_c, 6, 69, 100
5, 19635, Note_on_c, 6, 66, 0
5, 19650, Note_on_c, 6, 74, 0
5, 19656, Note_on_c, 6, 69, 0
5, 19678, Note_on_c, 6, 74, 100
5, 19680, Note_on_c, 6, 69, 100
5, 19714, Note_on_c, 6, 74, 0
5, 19725, Note_on_c, 6, 69, 0
5, 19725, Note_on_c, 6, 73, 88
5, 19750, Note_on_c, 6, 73, 0
5, 19775, Note_on_c, 6, 73, 77
5, 19851, Note_on_c, 6, 73, 0
5, 19916, Note_on_c, 6, 69, 100
5, 19963, Note_on_c, 6, 71, 88
5, 19968, Note_on_c, 6, 69, 0
5, 20009, Note_on_c, 6, 69, 100
5, 20038, Note_on_c, 6, 69, 0
5, 20058, Note_on_c, 6, 71, 0
5, 20064, Note_on_c, 6, 69, 100
5, 20109, Note_on_c, 6, 73, 88
5, 20113, Note_on_c, 6, 69, 0
5, 20221, Note_on_c, 6, 73, 0
5, 20347, Note_on_c, 6, 74, 100
5, 20348, Note_on_c, 6, 66, 88
5, 20392, Note_on_c, 6, 69, 112
5, 20393, Note_on_c, 6, 74, 88
5, 20410, Note_on_c, 6, 74, 0
5, 20414, Note_on_c, 6, 74, 0
5, 20424, Note_on_c, 6, 69, 0
5, 20440, Note_on_c, 6, 74, 100
5, 20441, Note_on_c, 6, 66, 0
5, 20444, Note_on_c, 6, 69, 112
5, 20481, Note_on_c, 6, 74, 0
5, 20490, Note_on_c, 6, 69, 0
5, 20491, Note_on_c, 6, 73, 68
5, 20519, Note_on_c, 6, 73, 0
5, 20537, Note_on_c, 6, 73, 100
5, 20610, Note_on_c, 6, 73, 0
5, 20686, Note_on_c, 6, 69, 112
5, 20727, Note_on_c, 6, 69, 0
5, 20727, Note_on_c, 6, 78, 77
5, 20779, Note_on_c, 6, 76, 88
5, 20790, Note_on_c, 6, 78, 0
5, 20826, Note_on_c, 6, 73, 88
5, 20830, Note_on_c, 6, 76, 0
5, 20874, Note_on_c, 6, 76, 100
5, 20877, Note_on_c, 6, 73, 0
5, 20972, Note_on_c, 6, 76, 0
5, 20972, Note_on_c, 6, 73, 100
5, 21055, Note_on_c, 6, 73, 0
5, 21114, Note_on_c, 6, 66, 112
5, 21119, Note_on_c, 6, 74, 100
5, 21164, Note_on_c, 6, 74, 77
5, 21165, Note_on_c, 6, 69, 100
5, 21179, Note_on_c, 6, 66, 0
5, 21185, Note_on_c, 6, 74, 0
5, 21192, Note_on_c, 6, 69, 0
5, 21208, Note_on_c, 6, 74, 0
5, 21208, Note_on_c, 6, 74, 88
5, 21212, Note_on_c, 6, 69, 100
5, 21249, Note_on_c, 6, 74, 0
5, 21255, Note_on_c, 6, 73, 88
5, 21258, Note_on_c, 6, 69, 0
5, 21259, Note_on_c, 6, 76, 77
5, 21283, Note_on_c, 6, 76, 0
5, 21286, Note_on_c, 6, 73, 0
5, 21303, Note_on_c, 6, 73, 77
5, 21307, Note_on_c, 6, 76, 68
5, 21396, Note_on_c, 6, 76, 0
5, 21406, Note_on_c, 6, 73, 0
5, 21450, Note_on_c, 6, 69, 100
5, 21499, Note_on_c, 6, 71, 88
5, 21543, Note_on_c, 6, 69, 0
5, 21545, Note_on_c, 6, 71, 0
5, 21545, Note_on_c, 6, 69, 100
5, 21573, Note_on_c, 6, 69, 0
5, 21594, Note_on_c, 6, 69, 100
5, 21642, Note_on_c, 6, 73, 88
5, 21644, Note_on_c, 6, 69, 0
5, 21755, Note_on_c, 6, 73, 0
5, 21834, Note_on_c, 6, 73, 112
5, 21881, Note_on_c, 6, 74, 88
5, 21886, Note_on_c, 6, 73, 0
5, 21929, Note_on_c, 6, 73, 68
5, 21946, Note_on_c, 6, 74, 0
5, 21978, Note_on_c, 6, 74, 100
5, 21985, Note_on_c, 6, 73, 0
5, 22025, Note_on_c, 6, 73, 88
5, 22029, Note_on_c, 6, 74, 0
5, 22076, Note_on_c, 6, 76, 100
5, 22080, Note_on_c, 6, 73, 0
5, 22123, Note_on_c, 6, 73, 100
5, 22129, Note_on_c, 6, 76, 0
5, 22166, Note_on_c, 6, 71, 77
5, 22169, Note_on_c, 6, 73, 0
5, 22216, Note_on_c, 6, 69, 112
5, 22221, Note_on_c, 6, 71, 0
5, 22279, Note_on_c, 6, 69, 0
5, 22412, Note_on_c, 6, 64, 100
5, 22415, Note_on_c, 6, 81, 100
5, 22455, Note_on_c, 6, 66, 77
5, 22463, Note_on_c, 6, 64, 0
5, 22463, Note_on_c, 6, 85, 60
5, 22468, Note_on_c, 6, 81, 0
5, 22510, Note_on_c, 6, 69, 100
5, 22518, Note_on_c, 6, 66, 0
5, 22530, Note_on_c, 6, 85, 0
5, 22556, Note_on_c, 6, 71, 68
5, 22560, Note_on_c, 6, 69, 0
5, 22560, Note_on_c, 6, 85, 88
5, 22581, Note_on_c, 6, 71, 0
5, 22602, Note_on_c, 6, 71, 88
5, 22618, Note_on_c, 6, 71, 0
5, 22623, Note_on_c, 6, 85, 0
5, 22700, Note_on_c, 6, 69, 88
5, 22827, Note_on_c, 6, 69, 0
5, 22894, Note_on_c, 6, 85, 88
5, 22896, Note_on_c, 6, 78, 88
5, 22941, Note_on_c, 6, 76, 88
5, 22944, Note_on_c, 6, 78, 0
5, 22947, Note_on_c, 6, 83, 100
5, 22953, Note_on_c, 6, 85, 0
5, 23000, Note_on_c, 6, 76, 0
5, 23027, Note_on_c, 6, 83, 0
5, 23086, Note_on_c, 6, 83, 77
5, 23088, Note_on_c, 6, 73, 100
5, 23132, Note_on_c, 6, 81, 77
5, 23133, Note_on_c, 6, 71, 88
5, 23135, Note_on_c, 6, 73, 0
5, 23138, Note_on_c, 6, 83, 0
5, 23181, Note_on_c, 6, 71, 0
5, 23193, Note_on_c, 6, 81, 0
5, 23232, Note_on_c, 6, 78, 77
5, 23233, Note_on_c, 6, 71, 77
5, 23278, Note_on_c, 6, 78, 0
5, 23278, Note_on_c, 6, 69, 88
5, 23279, Note_on_c, 6, 76, 77
5, 23282, Note_on_c, 6, 71, 0
5, 23334, Note_on_c, 6, 69, 0
5, 23375, Note_on_c, 6, 76, 0
5, 23424, Note_on_c, 6, 69, 112
5, 23449, Note_on_c, 6, 66, 88
5, 23452, Note_on_c, 6, 69, 0
5, 23469, Note_on_c, 6, 64, 77
5, 23473, Note_on_c, 6, 66, 0
5, 23492, Note_on_c, 6, 66, 88
5, 23501, Note_on_c, 6, 64, 0
5, 23564, Note_on_c, 6, 66, 0
5, 23564, Note_on_c, 6, 69, 112
5, 23661, Note_on_c, 6, 69, 0
5, 23852, Note_on_c, 6, 73, 100
5, 23875, Note_on_c, 6, 73, 0
5, 23877, Note_on_c, 6, 74, 100
5, 23899, Note_on_c, 6, 76, 100
5, 23905, Note_on_c, 6, 74, 0
5, 23952, Note_on_c, 6, 76, 0
5, 23999, Note_on_c, 6, 73, 100
5, 24021, Note_on_c, 6, 73, 0
5, 24022, Note_on_c, 6, 74, 100
5, 24046, Note_on_c, 6, 76, 100
5, 24052, Note_on_c, 6, 74, 0
5, 24134, Note_on_c, 6, 76, 0
5, 24238, Note_on_c, 6, 76, 100
5, 24258, Note_on_c, 6, 78, 68
5, 24267, Note_on_c, 6, 76, 0
5, 24285, Note_on_c, 6, 73, 77
5, 24286, Note_on_c, 6, 78, 0
5, 24331, Note_on_c, 6, 73, 0
5, 24331, Note_on_c, 6, 71, 88
5, 24487, Note_on_c, 6, 71, 0
5, 24506, Note_on_c, 6, 71, 15
5, 24522, Note_on_c, 6, 71, 0
5, 24522, End_track
6, 0, Start_track
6, 0, MIDI_port, 0
6, 0, Program_c, 3, 28
6, 0, Control_c, 3, 7, 127
6, 4605, Note_on_c, 3, 52, 88
6, 4628, Note_on_c, 3, 54, 68
6, 4634, Note_on_c, 3, 52, 0
6, 4647, Note_on_c, 3, 54, 0
6, 4679, Note_on_c, 3, 54, 88
6, 4698, Note_on_c, 3, 54, 0
6, 4748, Note_on_c, 3, 54, 100
6, 4818, Note_on_c, 3, 54, 0
6, 4843, Note_on_c, 3, 52, 88
6, 4869, Note_on_c, 3, 52, 0
6, 4890, Note_on_c, 3, 54, 88
6, 4925, Note_on_c, 3, 54, 0
6, 4984, Note_on_c, 3, 52, 88
6, 5004, Note_on_c, 3, 54, 68
6, 5012, Note_on_c, 3, 52, 0
6, 5024, Note_on_c, 3, 54, 0
6, 5062, Note_on_c, 3, 54, 100
6, 5089, Note_on_c, 3, 54, 0
6, 5131, Note_on_c, 3, 54, 100
6, 5198, Note_on_c, 3, 54, 0
6, 5227, Note_on_c, 3, 52, 88
6, 5249, Note_on_c, 3, 52, 0
6, 5273, Note_on_c, 3, 54, 88
6, 5302, Note_on_c, 3, 54, 0
6, 5369, Note_on_c, 3, 52, 100
6, 5389, Note_on_c, 3, 54, 51
6, 5396, Note_on_c, 3, 52, 0
6, 5412, Note_on_c, 3, 54, 0
6, 5445, Note_on_c, 3, 54, 100
6, 5473, Note_on_c, 3, 54, 0
6, 5512, Note_on_c, 3, 54, 88
6, 5568, Note_on_c, 3, 54, 0
6, 5603, Note_on_c, 3, 52, 88
6, 5630, Note_on_c, 3, 52, 0
6, 5655, Note_on_c, 3, 54, 88
6, 5685, Note_on_c, 3, 54, 0
6, 5756, Note_on_c, 3, 55, 100
6, 5795, Note_on_c, 3, 55, 0
6, 5837, Note_on_c, 3, 55, 100
6, 5860, Note_on_c, 3, 55, 0
6, 5903, Note_on_c, 3, 57, 100
6, 5989, Note_on_c, 3, 57, 0
6, 6141, Note_on_c, 3, 52, 100
6, 6164, Note_on_c, 3, 54, 88
6, 6168, Note_on_c, 3, 52, 0
6, 6184, Note_on_c, 3, 54, 0
6, 6219, Note_on_c, 3, 54, 100
6, 6239, Note_on_c, 3, 54, 0
6, 6283, Note_on_c, 3, 54, 100
6, 6333, Note_on_c, 3, 54, 0
6, 6378, Note_on_c, 3, 52, 88
6, 6406, Note_on_c, 3, 52, 0
6, 6426, Note_on_c, 3, 54, 88
6, 6451, Note_on_c, 3, 54, 0
6, 6525, Note_on_c, 3, 52, 88
6, 6545, Note_on_c, 3, 54, 68
6, 6549, Note_on_c, 3, 52, 0
6, 6568, Note_on_c, 3, 54, 0
6, 6605, Note_on_c, 3, 54, 88
6, 6625, Note_on_c, 3, 54, 0
6, 6667, Note_on_c, 3, 54, 88
6, 6700, Note_on_c, 3, 54, 0
6, 6765, Note_on_c, 3, 52, 77
6, 6793, Note_on_c, 3, 52, 0
6, 6812, Note_on_c, 3, 54, 100
6, 6849, Note_on_c, 3, 54, 0
6, 6903, Note_on_c, 3, 55, 112
6, 6937, Note_on_c, 3, 55, 0
6, 7005, Note_on_c, 3, 55, 100
6, 7030, Note_on_c, 3, 54, 100
6, 7031, Note_on_c, 3, 55, 0
6, 7052, Note_on_c, 3, 54, 0
6, 7053, Note_on_c, 3, 52, 77
6, 7229, Note_on_c, 3, 52, 0
6, 7240, Note_on_c, 3, 50, 100
6, 7441, Note_on_c, 3, 50, 0
6, 12285, Note_on_c, 3, 52, 88
6, 12308, Note_on_c, 3, 54, 68
6, 12314, Note_on_c, 3, 52, 0
6, 12327, Note_on_c, 3, 54, 0
6, 12359, Note_on_c, 3, 54, 88
6, 12378, Note_on_c, 3, 54, 0
6, 12428, Note_on_c, 3, 54, 100
6, 12498, Note_on_c, 3, 54, 0
6, 12523, Note_on_c, 3, 52, 88
6, 12549, Note_on_c, 3, 52, 0
6, 12570, Note_on_c, 3, 54, 88
6, 12605, Note_on_c, 3, 54, 0
6, 12664, Note_on_c, 3, 52, 88
6, 12684, Note_on_c, 3, 54, 68
6, 12692, Note_on_c, 3, 52, 0
6, 12704, Note_on_c, 3, 54, 0
6, 12742, Note_on_c, 3, 54, 100
6, 12769, Note_on_c, 3, 54, 0
6, 12811, Note_on_c, 3, 54, 100
6, 12878, Note_on_c, 3, 54, 0
6, 12907, Note_on_c, 3, 52, 88
6, 12929, Note_on_c, 3, 52, 0
6, 12953, Note_on_c, 3, 54, 88
6, 12982, Note_on_c, 3, 54, 0
6, 13049, Note_on_c, 3, 52, 100
6, 13069, Note_on_c, 3, 54, 51
6, 13076, Note_on_c, 3, 52, 0
6, 13092, Note_on_c, 3, 54, 0
6, 13125, Note_on_c, 3, 54, 100
6, 13153, Note_on_c, 3, 54, 0
6, 13192, Note_on_c, 3, 54, 88
6, 13248, Note_on_c, 3, 54, 0
6, 13283, Note_on_c, 3, 52, 88
6, 13310, Note_on_c, 3, 52, 0
6, 13335, Note_on_c, 3, 54, 88
6, 13365, Note_on_c, 3, 54, 0
6, 13436, Note_on_c, 3, 55, 100
6, 13475, Note_on_c, 3, 55, 0
6, 13517, Note_on_c, 3, 55, 100
6, 13540, Note_on_c, 3, 55, 0
6, 13583, Note_on_c, 3, 57, 100
6, 13669, Note_on_c, 3, 57, 0
6, 13821, Note_on_c, 3, 52, 100
6, 13844, Note_on_c, 3, 54, 88
6, 13848, Note_on_c, 3, 52, 0
6, 13864, Note_on_c, 3, 54, 0
6, 13899, Note_on_c, 3, 54, 100
6, 13919, Note_on_c, 3, 54, 0
6, 13963, Note_on_c, 3, 54, 100
6, 14013, Note_on_c, 3, 54, 0
6, 14058, Note_on_c, 3, 52, 88
6, 14086, Note_on_c, 3, 52, 0
6, 14106, Note_on_c, 3, 54, 88
6, 14131, Note_on_c, 3, 54, 0
6, 14205, Note_on_c, 3, 52, 88
6, 14225, Note_on_c, 3, 54, 68
6, 14229, Note_on_c, 3, 52, 0
6, 14248, Note_on_c, 3, 54, 0
6, 14285, Note_on_c, 3, 54, 88
6, 14305, Note_on_c, 3, 54, 0
6, 14347, Note_on_c, 3, 54, 88
6, 14380, Note_on_c, 3, 54, 0
6, 14445, Note_on_c, 3, 52, 77
6, 14473, Note_on_c, 3, 52, 0
6, 14492, Note_on_c, 3, 54, 100
6, 14529, Note_on_c, 3, 54, 0
6, 14583, Note_on_c, 3, 55, 112
6, 14617, Note_on_c, 3, 55, 0
6, 14685, Note_on_c, 3, 55, 100
6, 14710, Note_on_c, 3, 54, 100
6, 14711, Note_on_c, 3, 55, 0
6, 14732, Note_on_c, 3, 54, 0
6, 14733, Note_on_c, 3, 52, 77
6, 14909, Note_on_c, 3, 52, 0
6, 14920, Note_on_c, 3, 50, 100
6, 15015, Note_on_c, 3, 50, 0
6, 19581, Note_on_c, 3, 52, 88
6, 19604, Note_on_c, 3, 54, 68
6, 19623, Note_on_c, 3, 54, 0
6, 19655, Note_on_c, 3, 54, 88
6, 19674, Note_on_c, 3, 54, 0
6, 19724, Note_on_c, 3, 54, 100
6, 19794, Note_on_c, 3, 54, 0
6, 19819, Note_on_c, 3, 52, 88
6, 19845, Note_on_c, 3, 52, 0
6, 19866, Note_on_c, 3, 54, 88
6, 19901, Note_on_c, 3, 54, 0
6, 19959, Note_on_c, 3, 52, 0
6, 19960, Note_on_c, 3, 52, 88
6, 19980, Note_on_c, 3, 54, 68
6, 20000, Note_on_c, 3, 54, 0
6, 20038, Note_on_c, 3, 54, 100
6, 20065, Note_on_c, 3, 54, 0
6, 20107, Note_on_c, 3, 54, 100
6, 20174, Note_on_c, 3, 54, 0
6, 20203, Note_on_c, 3, 52, 88
6, 20225, Note_on_c, 3, 52, 0
6, 20249, Note_on_c, 3, 54, 88
6, 20278, Note_on_c, 3, 54, 0
6, 20345, Note_on_c, 3, 52, 100
6, 20365, Note_on_c, 3, 54, 51
6, 20388, Note_on_c, 3, 54, 0
6, 20421, Note_on_c, 3, 54, 100
6, 20449, Note_on_c, 3, 54, 0
6, 20488, Note_on_c, 3, 54, 88
6, 20544, Note_on_c, 3, 54, 0
6, 20579, Note_on_c, 3, 52, 88
6, 20606, Note_on_c, 3, 52, 0
6, 20614, Note_on_c, 3, 52, 0
6, 20631, Note_on_c, 3, 54, 88
6, 20661, Note_on_c, 3, 54, 0
6, 20732, Note_on_c, 3, 55, 100
6, 20813, Note_on_c, 3, 55, 100
6, 20836, Note_on_c, 3, 55, 0
6, 20879, Note_on_c, 3, 57, 100
6, 20918, Note_on_c, 3, 55, 0
6, 20965, Note_on_c, 3, 57, 0
6, 21116, Note_on_c, 3, 52, 0
6, 21117, Note_on_c, 3, 52, 100
6, 21140, Note_on_c, 3, 54, 88
6, 21160, Note_on_c, 3, 54, 0
6, 21195, Note_on_c, 3, 54, 100
6, 21215, Note_on_c, 3, 54, 0
6, 21259, Note_on_c, 3, 54, 100
6, 21308, Note_on_c, 3, 52, 0
6, 21309, Note_on_c, 3, 54, 0
6, 21354, Note_on_c, 3, 52, 88
6, 21385, Note_on_c, 3, 52, 0
6, 21402, Note_on_c, 3, 54, 88
6, 21427, Note_on_c, 3, 54, 0
6, 21501, Note_on_c, 3, 52, 88
6, 21521, Note_on_c, 3, 54, 68
6, 21533, Note_on_c, 3, 52, 0
6, 21544, Note_on_c, 3, 54, 0
6, 21581, Note_on_c, 3, 54, 88
6, 21601, Note_on_c, 3, 54, 0
6, 21643, Note_on_c, 3, 54, 88
6, 21676, Note_on_c, 3, 54, 0
6, 21741, Note_on_c, 3, 52, 77
6, 21788, Note_on_c, 3, 54, 100
6, 21791, Note_on_c, 3, 52, 0
6, 21825, Note_on_c, 3, 54, 0
6, 21879, Note_on_c, 3, 55, 112
6, 21981, Note_on_c, 3, 55, 100
6, 22006, Note_on_c, 3, 54, 100
6, 22007, Note_on_c, 3, 55, 0
6, 22028, Note_on_c, 3, 54, 0
6, 22029, Note_on_c, 3, 52, 77
6, 22041, Note_on_c, 3, 55, 0
6, 22216, Note_on_c, 3, 50, 100
6, 22221, Note_on_c, 3, 52, 0
6, 22792, Note_on_c, 3, 50, 0
6, 22792, End_track
7, 0, Start_track
7, 0, MIDI_port, 0
7, 0, Program_c, 5, 49
7, 0, Control_c, 5, 7, 95
7, 4605, Note_on_c, 5, 78, 88
7, 5749, Note_on_c, 5, 79, 88
7, 5750, Note_on_c, 5, 78, 0
7, 5895, Note_on_c, 5, 79, 0
7, 5896, Note_on_c, 5, 81, 88
7, 6137, Note_on_c, 5, 78, 100
7, 6138, Note_on_c, 5, 81, 0
7, 6905, Note_on_c, 5, 79, 100
7, 6908, Note_on_c, 5, 78, 0
7, 7054, Note_on_c, 5, 78, 88
7, 7057, Note_on_c, 5, 79, 0
7, 7267, Note_on_c, 5, 78, 0
7, 12285, Note_on_c, 5, 78, 88
7, 13429, Note_on_c, 5, 79, 88
7, 13430, Note_on_c, 5, 78, 0
7, 13575, Note_on_c, 5, 79, 0
7, 13576, Note_on_c, 5, 81, 88
7, 13817, Note_on_c, 5, 78, 100
7, 13818, Note_on_c, 5, 81, 0
7, 14585, Note_on_c, 5, 79, 100
7, 14588, Note_on_c, 5, 78, 0
7, 14734, Note_on_c, 5, 78, 88
7, 14737, Note_on_c, 5, 79, 0
7, 14947, Note_on_c, 5, 78, 0
7, 19581, Note_on_c, 5, 78, 88
7, 20725, Note_on_c, 5, 79, 88
7, 20728, Note_on_c, 5, 78, 0
7, 20821, Note_on_c, 5, 79, 0
7, 20872, Note_on_c, 5, 81, 88
7, 21113, Note_on_c, 5, 78, 100
7, 21114, Note_on_c, 5, 81, 0
7, 21859, Note_on_c, 5, 78, 0
7, 21881, Note_on_c, 5, 79, 100
7, 22030, Note_on_c, 5, 78, 88
7, 22036, Note_on_c, 5, 79, 0
7, 22620, Note_on_c, 5, 78, 0
7, 22620, End_track
8, 0, Start_track
8, 0, MIDI_port, 0
8, 0, Program_c, 7, 52
8, 0, Control_c, 7, 7, 124
8, 7677, Note_on_c, 7, 66, 77
8, 7677, Note_on_c, 7, 69, 100
8, 7820, Note_on_c, 7, 64, 77
8, 7821, Note_on_c, 7, 66, 0
8, 8051, Note_on_c, 7, 68, 77
8, 8058, Note_on_c, 7, 69, 0
8, 8195, Note_on_c, 7, 66, 60
8, 8197, Note_on_c, 7, 62, 100
8, 8198, Note_on_c, 7, 64, 0
8, 8199, Note_on_c, 7, 68, 0
8, 8406, Note_on_c, 7, 66, 0
8, 8406, Note_on_c, 7, 62, 0
8, 8444, Note_on_c, 7, 66, 88
8, 8445, Note_on_c, 7, 69, 100
8, 8583, Note_on_c, 7, 64, 88
8, 8587, Note_on_c, 7, 66, 0
8, 8822, Note_on_c, 7, 68, 88
8, 8826, Note_on_c, 7, 69, 0
8, 8968, Note_on_c, 7, 66, 68
8, 8970, Note_on_c, 7, 62, 88
8, 8972, Note_on_c, 7, 64, 0
8, 8973, Note_on_c, 7, 68, 0
8, 9190, Note_on_c, 7, 66, 0
8, 9193, Note_on_c, 7, 62, 0
8, 12333, Note_on_c, 7, 66, 88
8, 12334, Note_on_c, 7, 62, 112
8, 12377, Note_on_c, 7, 64, 100
8, 12378, Note_on_c, 7, 61, 68
8, 12379, Note_on_c, 7, 62, 0
8, 12380, Note_on_c, 7, 66, 0
8, 12407, Note_on_c, 7, 64, 0
8, 12411, Note_on_c, 7, 61, 0
8, 12473, Note_on_c, 7, 61, 100
8, 12474, Note_on_c, 7, 57, 112
8, 12520, Note_on_c, 7, 54, 88
8, 12521, Note_on_c, 7, 59, 100
8, 12523, Note_on_c, 7, 61, 0
8, 12524, Note_on_c, 7, 57, 0
8, 12562, Note_on_c, 7, 54, 0
8, 12564, Note_on_c, 7, 59, 0
8, 15360, Note_on_c, 7, 69, 100
8, 15360, Note_on_c, 7, 66, 88
8, 15500, Note_on_c, 7, 66, 0
8, 15500, Note_on_c, 7, 64, 112
8, 15737, Note_on_c, 7, 68, 77
8, 15750, Note_on_c, 7, 69, 0
8, 15884, Note_on_c, 7, 64, 0
8, 15886, Note_on_c, 7, 66, 77
8, 15889, Note_on_c, 7, 62, 88
8, 15893, Note_on_c, 7, 68, 0
8, 16079, Note_on_c, 7, 62, 0
8, 16088, Note_on_c, 7, 66, 0
8, 16122, Note_on_c, 7, 66, 100
8, 16123, Note_on_c, 7, 69, 112
8, 16264, Note_on_c, 7, 64, 88
8, 16268, Note_on_c, 7, 66, 0
8, 16503, Note_on_c, 7, 67, 100
8, 16507, Note_on_c, 7, 69, 0
8, 16653, Note_on_c, 7, 69, 112
8, 16758, Note_on_c, 7, 67, 0
8, 16886, Note_on_c, 7, 69, 0
8, 16893, Note_on_c, 7, 61, 88
8, 16895, Note_on_c, 7, 57, 100
8, 16903, Note_on_c, 7, 64, 0
8, 17273, Note_on_c, 7, 56, 91
8, 17274, Note_on_c, 7, 59, 88
8, 17277, Note_on_c, 7, 61, 0
8, 17279, Note_on_c, 7, 57, 0
8, 17657, Note_on_c, 7, 56, 0
8, 17658, Note_on_c, 7, 59, 0
8, 17659, Note_on_c, 7, 56, 89
8, 17659, Note_on_c, 7, 59, 89
8, 18038, Note_on_c, 7, 61, 89
8, 18039, Note_on_c, 7, 57, 100
8, 18043, Note_on_c, 7, 59, 0
8, 18043, Note_on_c, 7, 56, 0
8, 18422, Note_on_c, 7, 61, 0
8, 18423, Note_on_c, 7, 57, 0
8, 23421, Note_on_c, 7, 66, 89
8, 23421, Note_on_c, 7, 69, 81
8, 23564, Note_on_c, 7, 66, 0
8, 23564, Note_on_c, 7, 64, 88
8, 23795, Note_on_c, 7, 68, 83
8, 23802, Note_on_c, 7, 69, 0
8, 23927, Note_on_c, 7, 64, 0
8, 23939, Note_on_c, 7, 66, 88
8, 23941, Note_on_c, 7, 68, 0
8, 23941, Note_on_c, 7, 62, 85
8, 24150, Note_on_c, 7, 62, 0
8, 24150, Note_on_c, 7, 66, 0
8, 24189, Note_on_c, 7, 69, 93
8, 24192, Note_on_c, 7, 66, 88
8, 24338, Note_on_c, 7, 66, 0
8, 24338, Note_on_c, 7, 64, 88
8, 24566, Note_on_c, 7, 68, 88
8, 24570, Note_on_c, 7, 69, 0
8, 24707, Note_on_c, 7, 62, 88
8, 24707, Note_on_c, 7, 66, 88
8, 24716, Note_on_c, 7, 64, 0
8, 24736, Note_on_c, 7, 68, 0
8, 24929, Note_on_c, 7, 66, 0
8, 24930, Note_on_c, 7, 62, 0
8, 24930, End_track
0, 0, End_of_file
