0, 0, Header, 1, 21, 240
1, 0, Start_track
1, 0, Time_signature, 4, 2, 24, 8
1, 0, Tempo, 652174
1, 960, Marker_t, "HERE'S THAT RAINY DAY ........................................................"
1, 83520, Marker_t, "thanks for listening................"
1, 83520, End_track
2, 0, Start_track
2, 0, Title_t, " "" HERE'S THAT RAINY DAY """
2, 0, End_track
3, 0, Start_track
3, 0, End_track
4, 0, Start_track
4, 0, Title_t, "Ochestration & midi prep by"
4, 0, End_track
5, 0, Start_track
5, 0, Title_t, "              MEL WEBB"
5, 0, End_track
6, 0, Start_track
6, 0, End_track
7, 0, Start_track
7, 0, Title_t, "Bass / Acoustic bass"
7, 0, Program_c, 1, 32
7, 0, Control_c, 1, 7, 90
7, 0, Control_c, 1, 10, 64
7, 0, Control_c, 1, 123, 0
7, 0, Control_c, 1, 91, 40
7, 0, Control_c, 1, 93, 0
7, 0, Control_c, 1, 64, 0
7, 1920, Note_on_c, 1, 41, 82
7, 2400, Note_off_c, 1, 41, 64
7, 2400, Note_on_c, 1, 40, 82
7, 2880, Note_off_c, 1, 40, 64
7, 2880, Note_on_c, 1, 39, 82
7, 3360, Note_off_c, 1, 39, 64
7, 3360, Note_on_c, 1, 38, 82
7, 3840, Note_off_c, 1, 38, 64
7, 3840, Note_on_c, 1, 37, 85
7, 4240, Note_off_c, 1, 37, 64
7, 4240, Note_on_c, 1, 25, 55
7, 4278, Note_off_c, 1, 25, 64
7, 4320, Note_on_c, 1, 36, 85
7, 4720, Note_off_c, 1, 36, 64
7, 4720, Note_on_c, 1, 24, 55
7, 4758, Note_off_c, 1, 24, 64
7, 4800, Note_on_c, 1, 34, 82
7, 5280, Note_off_c, 1, 34, 64
7, 5280, Note_on_c, 1, 34, 80
7, 5668, Note_off_c, 1, 34, 64
7, 5696, Note_on_c, 1, 42, 81
7, 5760, Note_off_c, 1, 42, 64
7, 5760, Note_on_c, 1, 43, 78
7, 6230, Note_off_c, 1, 43, 64
7, 6240, Note_on_c, 1, 37, 82
7, 6656, Note_on_c, 1, 31, 60
7, 6670, Note_off_c, 1, 37, 64
7, 6678, Note_off_c, 1, 31, 64
7, 6720, Note_on_c, 1, 36, 78
7, 7190, Note_off_c, 1, 36, 64
7, 7200, Note_on_c, 1, 43, 82
7, 7616, Note_on_c, 1, 24, 60
7, 7630, Note_off_c, 1, 43, 64
7, 7638, Note_off_c, 1, 24, 64
7, 7680, Note_on_c, 1, 41, 78
7, 8150, Note_off_c, 1, 41, 64
7, 8160, Note_on_c, 1, 36, 82
7, 8576, Note_on_c, 1, 29, 60
7, 8590, Note_off_c, 1, 36, 64
7, 8598, Note_off_c, 1, 29, 64
7, 8640, Note_on_c, 1, 36, 86
7, 8960, Note_on_c, 1, 38, 80
7, 8972, Note_off_c, 1, 36, 64
7, 9040, Note_on_c, 1, 39, 90
7, 9046, Note_off_c, 1, 38, 64
7, 9120, Note_off_c, 1, 39, 64
7, 9120, Note_on_c, 1, 41, 70
7, 9600, Note_off_c, 1, 41, 64
7, 9600, Note_on_c, 1, 34, 82
7, 10080, Note_on_c, 1, 41, 85
7, 10098, Note_off_c, 1, 34, 64
7, 10496, Note_off_c, 1, 41, 64
7, 10496, Note_on_c, 1, 34, 82
7, 10540, Note_off_c, 1, 34, 64
7, 10560, Note_on_c, 1, 39, 78
7, 11030, Note_off_c, 1, 39, 64
7, 11040, Note_on_c, 1, 46, 82
7, 11456, Note_on_c, 1, 27, 60
7, 11470, Note_off_c, 1, 46, 64
7, 11478, Note_off_c, 1, 27, 64
7, 11520, Note_on_c, 1, 44, 89
7, 12014, Note_off_c, 1, 44, 64
7, 12014, Note_on_c, 1, 39, 82
7, 12436, Note_off_c, 1, 39, 64
7, 12480, Note_on_c, 1, 37, 78
7, 12720, Note_on_c, 1, 39, 80
7, 12760, Note_off_c, 1, 37, 64
7, 12960, Note_on_c, 1, 41, 75
7, 12982, Note_off_c, 1, 39, 64
7, 13200, Note_on_c, 1, 44, 76
7, 13240, Note_off_c, 1, 41, 64
7, 13440, Note_off_c, 1, 44, 64
7, 13440, Note_on_c, 1, 43, 85
7, 13920, Note_off_c, 1, 43, 64
7, 13920, Note_on_c, 1, 37, 85
7, 14292, Note_off_c, 1, 37, 64
7, 14336, Note_on_c, 1, 37, 80
7, 14400, Note_off_c, 1, 37, 64
7, 14400, Note_on_c, 1, 36, 81
7, 14526, Note_off_c, 1, 36, 64
7, 14576, Note_on_c, 1, 36, 71
7, 14640, Note_on_c, 1, 43, 73
7, 14656, Note_off_c, 1, 36, 64
7, 14880, Note_off_c, 1, 43, 64
7, 14880, Note_on_c, 1, 36, 82
7, 15360, Note_off_c, 1, 36, 64
7, 15360, Note_on_c, 1, 41, 85
7, 15840, Note_off_c, 1, 41, 64
7, 15840, Note_on_c, 1, 36, 85
7, 16212, Note_off_c, 1, 36, 64
7, 16256, Note_on_c, 1, 44, 80
7, 16320, Note_off_c, 1, 44, 64
7, 16320, Note_on_c, 1, 43, 82
7, 16800, Note_off_c, 1, 43, 64
7, 16800, Note_on_c, 1, 36, 73
7, 17216, Note_off_c, 1, 36, 64
7, 17216, Note_on_c, 1, 43, 68
7, 17280, Note_off_c, 1, 43, 64
7, 17280, Note_on_c, 1, 41, 69
7, 17428, Note_off_c, 1, 41, 64
7, 17456, Note_on_c, 1, 41, 81
7, 17508, Note_off_c, 1, 41, 64
7, 17520, Note_on_c, 1, 35, 62
7, 17760, Note_off_c, 1, 35, 64
7, 17760, Note_on_c, 1, 40, 72
7, 17936, Note_on_c, 1, 28, 65
7, 17942, Note_off_c, 1, 40, 64
7, 17998, Note_off_c, 1, 28, 64
7, 18000, Note_on_c, 1, 40, 74
7, 18238, Note_off_c, 1, 40, 64
7, 18240, Note_on_c, 1, 39, 67
7, 18480, Note_off_c, 1, 39, 64
7, 18480, Note_on_c, 1, 39, 74
7, 18720, Note_off_c, 1, 39, 64
7, 18720, Note_on_c, 1, 38, 73
7, 18948, Note_off_c, 1, 38, 64
7, 18960, Note_on_c, 1, 36, 67
7, 19200, Note_off_c, 1, 36, 64
7, 19200, Note_on_c, 1, 37, 67
7, 19440, Note_off_c, 1, 37, 64
7, 19440, Note_on_c, 1, 37, 74
7, 19680, Note_off_c, 1, 37, 64
7, 19680, Note_on_c, 1, 36, 69
7, 19828, Note_off_c, 1, 36, 64
7, 19856, Note_on_c, 1, 36, 81
7, 19908, Note_off_c, 1, 36, 64
7, 19920, Note_on_c, 1, 33, 62
7, 20160, Note_off_c, 1, 33, 64
7, 20160, Note_on_c, 1, 34, 77
7, 20288, Note_off_c, 1, 34, 64
7, 20338, Note_on_c, 1, 34, 70
7, 20400, Note_on_c, 1, 41, 63
7, 20408, Note_off_c, 1, 34, 64
7, 20640, Note_off_c, 1, 41, 64
7, 20640, Note_on_c, 1, 34, 77
7, 20768, Note_off_c, 1, 34, 64
7, 20818, Note_on_c, 1, 34, 70
7, 20880, Note_on_c, 1, 41, 63
7, 20888, Note_off_c, 1, 34, 64
7, 21120, Note_off_c, 1, 41, 64
7, 21120, Note_on_c, 1, 43, 71
7, 21360, Note_on_c, 1, 44, 73
7, 21400, Note_off_c, 1, 43, 64
7, 21600, Note_on_c, 1, 46, 68
7, 21622, Note_off_c, 1, 44, 64
7, 21840, Note_on_c, 1, 49, 69
7, 21880, Note_off_c, 1, 46, 64
7, 22080, Note_off_c, 1, 49, 64
7, 22080, Note_on_c, 1, 48, 73
7, 22320, Note_on_c, 1, 36, 67
7, 22358, Note_off_c, 1, 48, 64
7, 22560, Note_on_c, 1, 40, 71
7, 22578, Note_off_c, 1, 36, 64
7, 22800, Note_on_c, 1, 43, 69
7, 22816, Note_off_c, 1, 40, 64
7, 23040, Note_off_c, 1, 43, 64
7, 23040, Note_on_c, 1, 41, 69
7, 23280, Note_off_c, 1, 41, 64
7, 23280, Note_on_c, 1, 48, 68
7, 23522, Note_off_c, 1, 48, 64
7, 23522, Note_on_c, 1, 45, 63
7, 23764, Note_off_c, 1, 45, 64
7, 23764, Note_on_c, 1, 41, 81
7, 24000, Note_off_c, 1, 41, 64
7, 24000, Note_on_c, 1, 36, 69
7, 24148, Note_off_c, 1, 36, 64
7, 24176, Note_on_c, 1, 36, 81
7, 24228, Note_off_c, 1, 36, 64
7, 24240, Note_on_c, 1, 40, 62
7, 24480, Note_off_c, 1, 40, 64
7, 24480, Note_on_c, 1, 41, 77
7, 24608, Note_off_c, 1, 41, 64
7, 24658, Note_on_c, 1, 41, 70
7, 24720, Note_on_c, 1, 48, 63
7, 24728, Note_off_c, 1, 41, 64
7, 24960, Note_off_c, 1, 48, 64
7, 24960, Note_on_c, 1, 34, 89
7, 25138, Note_on_c, 1, 29, 40
7, 25146, Note_off_c, 1, 34, 64
7, 25200, Note_off_c, 1, 29, 64
7, 25200, Note_on_c, 1, 41, 72
7, 25410, Note_off_c, 1, 41, 64
7, 25440, Note_on_c, 1, 38, 80
7, 25680, Note_off_c, 1, 38, 64
7, 25680, Note_on_c, 1, 34, 82
7, 25782, Note_off_c, 1, 34, 64
7, 25858, Note_on_c, 1, 29, 60
7, 25920, Note_off_c, 1, 29, 64
7, 25920, Note_on_c, 1, 43, 84
7, 26096, Note_on_c, 1, 38, 60
7, 26136, Note_off_c, 1, 38, 64
7, 26150, Note_off_c, 1, 43, 64
7, 26160, Note_on_c, 1, 50, 77
7, 26336, Note_off_c, 1, 50, 64
7, 26336, Note_on_c, 1, 38, 62
7, 26370, Note_off_c, 1, 38, 64
7, 26400, Note_on_c, 1, 36, 64
7, 26602, Note_off_c, 1, 36, 64
7, 26640, Note_on_c, 1, 36, 79
7, 26880, Note_off_c, 1, 36, 64
7, 26880, Note_on_c, 1, 33, 74
7, 27018, Note_off_c, 1, 33, 64
7, 27058, Note_on_c, 1, 21, 82
7, 27104, Note_off_c, 1, 21, 64
7, 27120, Note_on_c, 1, 35, 74
7, 27338, Note_off_c, 1, 35, 64
7, 27360, Note_on_c, 1, 36, 54
7, 27584, Note_off_c, 1, 36, 64
7, 27600, Note_on_c, 1, 40, 67
7, 27766, Note_off_c, 1, 40, 64
7, 27778, Note_on_c, 1, 33, 72
7, 27840, Note_off_c, 1, 33, 64
7, 27840, Note_on_c, 1, 44, 89
7, 28018, Note_on_c, 1, 38, 40
7, 28026, Note_off_c, 1, 44, 64
7, 28080, Note_off_c, 1, 38, 64
7, 28080, Note_on_c, 1, 50, 72
7, 28290, Note_off_c, 1, 50, 64
7, 28320, Note_on_c, 1, 47, 80
7, 28560, Note_off_c, 1, 47, 64
7, 28560, Note_on_c, 1, 44, 82
7, 28662, Note_off_c, 1, 44, 64
7, 28738, Note_on_c, 1, 38, 60
7, 28800, Note_off_c, 1, 38, 64
7, 28800, Note_on_c, 1, 43, 76
7, 29040, Note_off_c, 1, 43, 64
7, 29040, Note_on_c, 1, 45, 76
7, 29266, Note_off_c, 1, 45, 64
7, 29280, Note_on_c, 1, 46, 66
7, 29520, Note_off_c, 1, 46, 64
7, 29520, Note_on_c, 1, 50, 69
7, 29690, Note_off_c, 1, 50, 64
7, 29690, Note_on_c, 1, 43, 66
7, 29760, Note_off_c, 1, 43, 64
7, 29760, Note_on_c, 1, 36, 64
7, 29962, Note_off_c, 1, 36, 64
7, 30000, Note_on_c, 1, 36, 79
7, 30240, Note_off_c, 1, 36, 64
7, 30240, Note_on_c, 1, 36, 72
7, 30416, Note_on_c, 1, 24, 65
7, 30422, Note_off_c, 1, 36, 64
7, 30478, Note_off_c, 1, 24, 64
7, 30480, Note_on_c, 1, 36, 74
7, 30718, Note_off_c, 1, 36, 64
7, 30720, Note_on_c, 1, 41, 69
7, 30960, Note_off_c, 1, 41, 64
7, 30960, Note_on_c, 1, 48, 68
7, 31202, Note_off_c, 1, 48, 64
7, 31202, Note_on_c, 1, 45, 63
7, 31444, Note_off_c, 1, 45, 64
7, 31444, Note_on_c, 1, 41, 81
7, 31680, Note_off_c, 1, 41, 64
7, 31680, Note_on_c, 1, 43, 84
7, 31856, Note_on_c, 1, 37, 60
7, 31896, Note_off_c, 1, 37, 64
7, 31910, Note_off_c, 1, 43, 64
7, 31920, Note_on_c, 1, 49, 77
7, 32096, Note_off_c, 1, 49, 64
7, 32096, Note_on_c, 1, 37, 62
7, 32130, Note_off_c, 1, 37, 64
7, 32160, Note_on_c, 1, 36, 72
7, 32400, Note_on_c, 1, 40, 69
7, 32430, Note_off_c, 1, 36, 64
7, 32618, Note_off_c, 1, 40, 64
7, 32640, Note_on_c, 1, 41, 64
7, 32842, Note_off_c, 1, 41, 64
7, 32880, Note_on_c, 1, 41, 79
7, 33120, Note_off_c, 1, 41, 64
7, 33120, Note_on_c, 1, 52, 68
7, 33196, Note_off_c, 1, 52, 64
7, 33302, Note_on_c, 1, 52, 54
7, 33370, Note_on_c, 1, 43, 75
7, 33378, Note_off_c, 1, 52, 64
7, 33600, Note_off_c, 1, 43, 64
7, 33600, Note_on_c, 1, 39, 69
7, 33748, Note_off_c, 1, 39, 64
7, 33776, Note_on_c, 1, 39, 81
7, 33828, Note_off_c, 1, 39, 64
7, 33840, Note_on_c, 1, 37, 62
7, 34080, Note_off_c, 1, 37, 64
7, 34080, Note_on_c, 1, 38, 72
7, 34256, Note_on_c, 1, 26, 65
7, 34262, Note_off_c, 1, 38, 64
7, 34318, Note_off_c, 1, 26, 64
7, 34320, Note_on_c, 1, 38, 74
7, 34558, Note_off_c, 1, 38, 64
7, 34560, Note_on_c, 1, 37, 73
7, 34788, Note_off_c, 1, 37, 64
7, 34800, Note_on_c, 1, 35, 67
7, 35040, Note_off_c, 1, 35, 64
7, 35040, Note_on_c, 1, 36, 69
7, 35188, Note_off_c, 1, 36, 64
7, 35216, Note_on_c, 1, 36, 81
7, 35268, Note_off_c, 1, 36, 64
7, 35280, Note_on_c, 1, 33, 62
7, 35520, Note_off_c, 1, 33, 64
7, 35520, Note_on_c, 1, 34, 72
7, 35696, Note_on_c, 1, 22, 65
7, 35702, Note_off_c, 1, 34, 64
7, 35758, Note_off_c, 1, 22, 64
7, 35760, Note_on_c, 1, 34, 74
7, 35998, Note_off_c, 1, 34, 64
7, 36000, Note_on_c, 1, 34, 73
7, 36228, Note_off_c, 1, 34, 64
7, 36240, Note_on_c, 1, 42, 67
7, 36480, Note_off_c, 1, 42, 64
7, 36480, Note_on_c, 1, 43, 69
7, 36720, Note_on_c, 1, 49, 67
7, 36764, Note_off_c, 1, 43, 64
7, 36960, Note_on_c, 1, 55, 73
7, 36978, Note_off_c, 1, 49, 64
7, 37200, Note_on_c, 1, 49, 84
7, 37210, Note_off_c, 1, 55, 64
7, 37368, Note_on_c, 1, 37, 60
7, 37382, Note_off_c, 1, 49, 64
7, 37440, Note_off_c, 1, 37, 64
7, 37440, Note_on_c, 1, 48, 73
7, 37680, Note_on_c, 1, 36, 67
7, 37718, Note_off_c, 1, 48, 64
7, 37920, Note_on_c, 1, 40, 71
7, 37938, Note_off_c, 1, 36, 64
7, 38160, Note_on_c, 1, 43, 69
7, 38176, Note_off_c, 1, 40, 64
7, 38400, Note_off_c, 1, 43, 64
7, 38400, Note_on_c, 1, 41, 76
7, 38640, Note_on_c, 1, 53, 59
7, 38658, Note_off_c, 1, 41, 64
7, 38880, Note_on_c, 1, 48, 71
7, 38908, Note_off_c, 1, 53, 64
7, 39120, Note_on_c, 1, 45, 77
7, 39126, Note_off_c, 1, 48, 64
7, 39360, Note_off_c, 1, 45, 64
7, 39360, Note_on_c, 1, 36, 77
7, 39488, Note_off_c, 1, 36, 64
7, 39538, Note_on_c, 1, 36, 70
7, 39600, Note_on_c, 1, 43, 63
7, 39608, Note_off_c, 1, 36, 64
7, 39840, Note_off_c, 1, 43, 64
7, 39840, Note_on_c, 1, 41, 71
7, 40080, Note_on_c, 1, 48, 70
7, 40124, Note_off_c, 1, 41, 64
7, 40320, Note_off_c, 1, 48, 64
7, 40320, Note_on_c, 1, 34, 76
7, 40560, Note_off_c, 1, 34, 64
7, 40560, Note_on_c, 1, 36, 65
7, 40800, Note_off_c, 1, 36, 64
7, 40800, Note_on_c, 1, 37, 60
7, 41040, Note_off_c, 1, 37, 64
7, 41040, Note_on_c, 1, 41, 78
7, 41208, Note_off_c, 1, 41, 64
7, 41208, Note_on_c, 1, 40, 71
7, 41280, Note_off_c, 1, 40, 64
7, 41280, Note_on_c, 1, 39, 70
7, 41414, Note_off_c, 1, 39, 64
7, 41456, Note_on_c, 1, 27, 77
7, 41508, Note_off_c, 1, 27, 64
7, 41520, Note_on_c, 1, 37, 62
7, 41756, Note_off_c, 1, 37, 64
7, 41760, Note_on_c, 1, 36, 68
7, 42000, Note_on_c, 1, 34, 64
7, 42016, Note_off_c, 1, 36, 64
7, 42176, Note_on_c, 1, 45, 79
7, 42214, Note_off_c, 1, 34, 64
7, 42240, Note_off_c, 1, 45, 64
7, 42240, Note_on_c, 1, 44, 71
7, 42480, Note_on_c, 1, 46, 73
7, 42520, Note_off_c, 1, 44, 64
7, 42720, Note_on_c, 1, 48, 68
7, 42742, Note_off_c, 1, 46, 64
7, 42960, Note_on_c, 1, 51, 69
7, 43000, Note_off_c, 1, 48, 64
7, 43200, Note_off_c, 1, 51, 64
7, 43200, Note_on_c, 1, 37, 71
7, 43440, Note_on_c, 1, 39, 73
7, 43480, Note_off_c, 1, 37, 64
7, 43680, Note_on_c, 1, 41, 68
7, 43702, Note_off_c, 1, 39, 64
7, 43920, Note_on_c, 1, 44, 69
7, 43960, Note_off_c, 1, 41, 64
7, 44160, Note_off_c, 1, 44, 64
7, 44160, Note_on_c, 1, 43, 69
7, 44400, Note_on_c, 1, 49, 67
7, 44444, Note_off_c, 1, 43, 64
7, 44640, Note_on_c, 1, 55, 73
7, 44658, Note_off_c, 1, 49, 64
7, 44880, Note_on_c, 1, 49, 84
7, 44890, Note_off_c, 1, 55, 64
7, 45048, Note_on_c, 1, 37, 60
7, 45062, Note_off_c, 1, 49, 64
7, 45120, Note_off_c, 1, 37, 64
7, 45120, Note_on_c, 1, 36, 73
7, 45348, Note_off_c, 1, 36, 64
7, 45360, Note_on_c, 1, 35, 67
7, 45600, Note_off_c, 1, 35, 64
7, 45600, Note_on_c, 1, 36, 73
7, 45828, Note_off_c, 1, 36, 64
7, 45840, Note_on_c, 1, 40, 67
7, 46080, Note_off_c, 1, 40, 64
7, 46080, Note_on_c, 1, 41, 69
7, 46320, Note_on_c, 1, 48, 67
7, 46364, Note_off_c, 1, 41, 64
7, 46560, Note_on_c, 1, 53, 73
7, 46578, Note_off_c, 1, 48, 64
7, 46800, Note_on_c, 1, 48, 84
7, 46810, Note_off_c, 1, 53, 64
7, 46968, Note_on_c, 1, 44, 60
7, 46982, Note_off_c, 1, 48, 64
7, 47040, Note_off_c, 1, 44, 64
7, 47040, Note_on_c, 1, 43, 73
7, 47268, Note_off_c, 1, 43, 64
7, 47280, Note_on_c, 1, 35, 67
7, 47520, Note_off_c, 1, 35, 64
7, 47520, Note_on_c, 1, 36, 69
7, 47668, Note_off_c, 1, 36, 64
7, 47696, Note_on_c, 1, 36, 81
7, 47748, Note_off_c, 1, 36, 64
7, 47760, Note_on_c, 1, 40, 62
7, 48000, Note_off_c, 1, 40, 64
7, 48000, Note_on_c, 1, 41, 69
7, 48148, Note_off_c, 1, 41, 64
7, 48176, Note_on_c, 1, 41, 81
7, 48228, Note_off_c, 1, 41, 64
7, 48240, Note_on_c, 1, 35, 62
7, 48480, Note_off_c, 1, 35, 64
7, 48480, Note_on_c, 1, 40, 77
7, 48608, Note_off_c, 1, 40, 64
7, 48658, Note_on_c, 1, 40, 70
7, 48720, Note_on_c, 1, 43, 63
7, 48728, Note_off_c, 1, 40, 64
7, 48960, Note_off_c, 1, 43, 64
7, 48960, Note_on_c, 1, 39, 84
7, 49136, Note_on_c, 1, 39, 60
7, 49176, Note_off_c, 1, 39, 64
7, 49190, Note_off_c, 1, 39, 64
7, 49200, Note_on_c, 1, 51, 77
7, 49376, Note_off_c, 1, 51, 64
7, 49376, Note_on_c, 1, 39, 62
7, 49410, Note_off_c, 1, 39, 64
7, 49440, Note_on_c, 1, 38, 77
7, 49568, Note_off_c, 1, 38, 64
7, 49618, Note_on_c, 1, 38, 70
7, 49680, Note_on_c, 1, 45, 63
7, 49688, Note_off_c, 1, 38, 64
7, 49920, Note_off_c, 1, 45, 64
7, 49920, Note_on_c, 1, 37, 73
7, 50148, Note_off_c, 1, 37, 64
7, 50160, Note_on_c, 1, 35, 67
7, 50400, Note_off_c, 1, 35, 64
7, 50400, Note_on_c, 1, 36, 67
7, 50640, Note_off_c, 1, 36, 64
7, 50640, Note_on_c, 1, 36, 74
7, 50880, Note_off_c, 1, 36, 64
7, 50880, Note_on_c, 1, 34, 69
7, 51028, Note_off_c, 1, 34, 64
7, 51056, Note_on_c, 1, 34, 81
7, 51108, Note_off_c, 1, 34, 64
7, 51120, Note_on_c, 1, 33, 62
7, 51360, Note_off_c, 1, 33, 64
7, 51360, Note_on_c, 1, 34, 78
7, 51528, Note_on_c, 1, 22, 55
7, 51576, Note_off_c, 1, 34, 64
7, 51592, Note_off_c, 1, 22, 64
7, 51600, Note_on_c, 1, 44, 78
7, 51840, Note_off_c, 1, 44, 64
7, 51840, Note_on_c, 1, 43, 69
7, 52080, Note_on_c, 1, 49, 67
7, 52124, Note_off_c, 1, 43, 64
7, 52320, Note_on_c, 1, 55, 73
7, 52338, Note_off_c, 1, 49, 64
7, 52560, Note_on_c, 1, 49, 84
7, 52570, Note_off_c, 1, 55, 64
7, 52728, Note_on_c, 1, 37, 60
7, 52742, Note_off_c, 1, 49, 64
7, 52800, Note_off_c, 1, 37, 64
7, 52800, Note_on_c, 1, 36, 71
7, 53040, Note_on_c, 1, 38, 68
7, 53080, Note_off_c, 1, 36, 64
7, 53280, Note_on_c, 1, 39, 75
7, 53298, Note_off_c, 1, 38, 64
7, 53520, Note_on_c, 1, 40, 68
7, 53532, Note_off_c, 1, 39, 64
7, 53716, Note_off_c, 1, 40, 64
7, 53760, Note_on_c, 1, 41, 89
7, 53938, Note_on_c, 1, 36, 40
7, 53946, Note_off_c, 1, 41, 64
7, 54000, Note_off_c, 1, 36, 64
7, 54000, Note_on_c, 1, 48, 72
7, 54210, Note_off_c, 1, 48, 64
7, 54240, Note_on_c, 1, 45, 80
7, 54480, Note_off_c, 1, 45, 64
7, 54480, Note_on_c, 1, 41, 82
7, 54582, Note_off_c, 1, 41, 64
7, 54658, Note_on_c, 1, 36, 60
7, 54720, Note_off_c, 1, 36, 64
7, 54720, Note_on_c, 1, 36, 84
7, 54896, Note_on_c, 1, 31, 60
7, 54936, Note_off_c, 1, 31, 64
7, 54950, Note_off_c, 1, 36, 64
7, 54960, Note_on_c, 1, 43, 77
7, 55136, Note_off_c, 1, 43, 64
7, 55136, Note_on_c, 1, 31, 62
7, 55170, Note_off_c, 1, 31, 64
7, 55200, Note_on_c, 1, 41, 72
7, 55376, Note_on_c, 1, 29, 65
7, 55382, Note_off_c, 1, 41, 64
7, 55438, Note_off_c, 1, 29, 64
7, 55440, Note_on_c, 1, 41, 74
7, 55678, Note_off_c, 1, 41, 64
7, 55680, Note_on_c, 1, 34, 89
7, 55858, Note_on_c, 1, 29, 40
7, 55866, Note_off_c, 1, 34, 64
7, 55920, Note_off_c, 1, 29, 64
7, 55920, Note_on_c, 1, 41, 72
7, 56130, Note_off_c, 1, 41, 64
7, 56160, Note_on_c, 1, 38, 80
7, 56400, Note_off_c, 1, 38, 64
7, 56400, Note_on_c, 1, 34, 82
7, 56502, Note_off_c, 1, 34, 64
7, 56578, Note_on_c, 1, 29, 60
7, 56640, Note_off_c, 1, 29, 64
7, 56640, Note_on_c, 1, 43, 67
7, 56880, Note_off_c, 1, 43, 64
7, 56880, Note_on_c, 1, 43, 74
7, 57120, Note_off_c, 1, 43, 64
7, 57120, Note_on_c, 1, 36, 77
7, 57248, Note_off_c, 1, 36, 64
7, 57298, Note_on_c, 1, 36, 70
7, 57360, Note_on_c, 1, 43, 63
7, 57368, Note_off_c, 1, 36, 64
7, 57600, Note_off_c, 1, 43, 64
7, 57600, Note_on_c, 1, 33, 71
7, 57840, Note_on_c, 1, 35, 73
7, 57880, Note_off_c, 1, 33, 64
7, 58080, Note_on_c, 1, 36, 68
7, 58102, Note_off_c, 1, 35, 64
7, 58320, Note_on_c, 1, 40, 69
7, 58360, Note_off_c, 1, 36, 64
7, 58560, Note_off_c, 1, 40, 64
7, 58560, Note_on_c, 1, 44, 78
7, 58736, Note_on_c, 1, 38, 57
7, 58744, Note_off_c, 1, 44, 64
7, 58774, Note_off_c, 1, 38, 64
7, 58800, Note_on_c, 1, 46, 76
7, 59038, Note_off_c, 1, 46, 64
7, 59040, Note_on_c, 1, 47, 83
7, 59196, Note_off_c, 1, 47, 64
7, 59216, Note_on_c, 1, 38, 61
7, 59252, Note_off_c, 1, 38, 64
7, 59280, Note_on_c, 1, 50, 85
7, 59440, Note_off_c, 1, 50, 64
7, 59456, Note_on_c, 1, 38, 54
7, 59476, Note_off_c, 1, 38, 64
7, 59520, Note_on_c, 1, 43, 85
7, 59608, Note_off_c, 1, 43, 64
7, 59698, Note_on_c, 1, 43, 73
7, 59760, Note_on_c, 1, 45, 64
7, 59802, Note_off_c, 1, 43, 64
7, 60000, Note_off_c, 1, 45, 64
7, 60000, Note_on_c, 1, 46, 75
7, 60238, Note_off_c, 1, 46, 64
7, 60240, Note_on_c, 1, 50, 67
7, 60480, Note_off_c, 1, 50, 64
7, 60480, Note_on_c, 1, 36, 73
7, 60708, Note_off_c, 1, 36, 64
7, 60720, Note_on_c, 1, 35, 67
7, 60960, Note_off_c, 1, 35, 64
7, 60960, Note_on_c, 1, 36, 77
7, 61088, Note_off_c, 1, 36, 64
7, 61138, Note_on_c, 1, 36, 70
7, 61200, Note_on_c, 1, 43, 63
7, 61208, Note_off_c, 1, 36, 64
7, 61440, Note_off_c, 1, 43, 64
7, 61440, Note_on_c, 1, 41, 71
7, 61680, Note_on_c, 1, 43, 73
7, 61720, Note_off_c, 1, 41, 64
7, 61920, Note_on_c, 1, 45, 68
7, 61942, Note_off_c, 1, 43, 64
7, 62160, Note_on_c, 1, 48, 69
7, 62200, Note_off_c, 1, 45, 64
7, 62400, Note_off_c, 1, 48, 64
7, 62400, Note_on_c, 1, 43, 64
7, 62602, Note_off_c, 1, 43, 64
7, 62640, Note_on_c, 1, 43, 79
7, 62880, Note_off_c, 1, 43, 64
7, 62880, Note_on_c, 1, 48, 68
7, 62956, Note_off_c, 1, 48, 64
7, 63062, Note_on_c, 1, 48, 54
7, 63130, Note_on_c, 1, 43, 75
7, 63138, Note_off_c, 1, 48, 64
7, 63360, Note_off_c, 1, 43, 64
7, 63360, Note_on_c, 1, 41, 70
7, 63840, Note_off_c, 1, 41, 64
7, 63840, Note_on_c, 1, 40, 82
7, 64320, Note_off_c, 1, 40, 64
7, 64320, Note_on_c, 1, 39, 85
7, 64720, Note_off_c, 1, 39, 64
7, 64720, Note_on_c, 1, 27, 55
7, 64758, Note_off_c, 1, 27, 64
7, 64800, Note_on_c, 1, 38, 82
7, 65280, Note_off_c, 1, 38, 64
7, 65280, Note_on_c, 1, 37, 82
7, 65760, Note_off_c, 1, 37, 64
7, 65760, Note_on_c, 1, 36, 85
7, 66160, Note_off_c, 1, 36, 64
7, 66160, Note_on_c, 1, 24, 55
7, 66198, Note_off_c, 1, 24, 64
7, 66240, Note_on_c, 1, 34, 80
7, 66628, Note_off_c, 1, 34, 64
7, 66656, Note_on_c, 1, 33, 81
7, 66720, Note_off_c, 1, 33, 64
7, 66720, Note_on_c, 1, 34, 80
7, 67108, Note_off_c, 1, 34, 64
7, 67136, Note_on_c, 1, 42, 81
7, 67200, Note_off_c, 1, 42, 64
7, 67200, Note_on_c, 1, 43, 76
7, 67546, Note_off_c, 1, 43, 64
7, 67616, Note_on_c, 1, 43, 84
7, 67680, Note_on_c, 1, 37, 68
7, 67716, Note_off_c, 1, 43, 64
7, 68016, Note_off_c, 1, 37, 64
7, 68096, Note_on_c, 1, 37, 65
7, 68150, Note_off_c, 1, 37, 64
7, 68160, Note_on_c, 1, 36, 72
7, 68562, Note_off_c, 1, 36, 64
7, 68562, Note_on_c, 1, 43, 82
7, 68640, Note_on_c, 1, 48, 74
7, 68672, Note_off_c, 1, 43, 64
7, 68752, Note_off_c, 1, 48, 64
7, 68800, Note_on_c, 1, 43, 100
7, 68880, Note_on_c, 1, 36, 89
7, 68898, Note_off_c, 1, 43, 64
7, 69106, Note_off_c, 1, 36, 64
7, 69120, Note_on_c, 1, 41, 82
7, 69600, Note_on_c, 1, 48, 85
7, 69618, Note_off_c, 1, 41, 64
7, 70016, Note_off_c, 1, 48, 64
7, 70016, Note_on_c, 1, 41, 82
7, 70060, Note_off_c, 1, 41, 64
7, 70080, Note_on_c, 1, 36, 81
7, 70206, Note_off_c, 1, 36, 64
7, 70256, Note_on_c, 1, 36, 71
7, 70320, Note_on_c, 1, 43, 73
7, 70336, Note_off_c, 1, 36, 64
7, 70560, Note_off_c, 1, 43, 64
7, 70560, Note_on_c, 1, 41, 82
7, 71040, Note_off_c, 1, 41, 64
7, 71040, Note_on_c, 1, 34, 82
7, 71520, Note_on_c, 1, 41, 85
7, 71538, Note_off_c, 1, 34, 64
7, 71936, Note_off_c, 1, 41, 64
7, 71936, Note_on_c, 1, 34, 82
7, 71980, Note_off_c, 1, 34, 64
7, 72000, Note_on_c, 1, 39, 82
7, 72480, Note_on_c, 1, 46, 85
7, 72498, Note_off_c, 1, 39, 64
7, 72896, Note_off_c, 1, 46, 64
7, 72896, Note_on_c, 1, 39, 82
7, 72940, Note_off_c, 1, 39, 64
7, 72960, Note_on_c, 1, 44, 78
7, 73430, Note_off_c, 1, 44, 64
7, 73440, Note_on_c, 1, 39, 82
7, 73856, Note_on_c, 1, 32, 60
7, 73870, Note_off_c, 1, 39, 64
7, 73878, Note_off_c, 1, 32, 64
7, 73920, Note_on_c, 1, 37, 78
7, 74160, Note_on_c, 1, 39, 80
7, 74200, Note_off_c, 1, 37, 64
7, 74400, Note_on_c, 1, 41, 75
7, 74422, Note_off_c, 1, 39, 64
7, 74640, Note_on_c, 1, 44, 76
7, 74680, Note_off_c, 1, 41, 64
7, 74880, Note_off_c, 1, 44, 64
7, 74880, Note_on_c, 1, 43, 85
7, 75360, Note_off_c, 1, 43, 64
7, 75360, Note_on_c, 1, 37, 85
7, 75732, Note_off_c, 1, 37, 64
7, 75776, Note_on_c, 1, 37, 80
7, 75840, Note_off_c, 1, 37, 64
7, 75840, Note_on_c, 1, 36, 81
7, 75966, Note_off_c, 1, 36, 64
7, 76016, Note_on_c, 1, 36, 71
7, 76080, Note_on_c, 1, 43, 73
7, 76096, Note_off_c, 1, 36, 64
7, 76320, Note_off_c, 1, 43, 64
7, 76320, Note_on_c, 1, 36, 73
7, 76736, Note_off_c, 1, 36, 64
7, 76736, Note_on_c, 1, 43, 68
7, 76800, Note_off_c, 1, 43, 64
7, 76800, Note_on_c, 1, 41, 89
7, 77294, Note_off_c, 1, 41, 64
7, 77294, Note_on_c, 1, 36, 82
7, 77716, Note_off_c, 1, 36, 64
7, 77760, Note_on_c, 1, 43, 82
7, 78240, Note_off_c, 1, 43, 64
7, 78240, Note_on_c, 1, 36, 73
7, 78656, Note_off_c, 1, 36, 64
7, 78656, Note_on_c, 1, 43, 68
7, 78720, Note_off_c, 1, 43, 64
7, 78720, Note_on_c, 1, 41, 78
7, 78888, Note_on_c, 1, 29, 55
7, 78936, Note_off_c, 1, 41, 64
7, 78952, Note_off_c, 1, 29, 64
7, 78960, Note_on_c, 1, 37, 78
7, 79200, Note_off_c, 1, 37, 64
7, 79200, Note_on_c, 1, 40, 73
7, 79428, Note_off_c, 1, 40, 64
7, 79440, Note_on_c, 1, 43, 67
7, 79680, Note_off_c, 1, 43, 64
7, 79680, Note_on_c, 1, 39, 71
7, 79920, Note_on_c, 1, 51, 70
7, 79964, Note_off_c, 1, 39, 64
7, 80160, Note_off_c, 1, 51, 64
7, 80160, Note_on_c, 1, 50, 71
7, 80400, Note_on_c, 1, 45, 70
7, 80430, Note_off_c, 1, 50, 64
7, 80640, Note_off_c, 1, 45, 64
7, 80640, Note_on_c, 1, 37, 73
7, 80868, Note_off_c, 1, 37, 64
7, 80880, Note_on_c, 1, 35, 67
7, 81120, Note_off_c, 1, 35, 64
7, 81120, Note_on_c, 1, 48, 83
7, 81200, Note_on_c, 1, 43, 60
7, 81228, Note_off_c, 1, 48, 64
7, 81280, Note_on_c, 1, 39, 62
7, 81300, Note_off_c, 1, 43, 64
7, 81360, Note_off_c, 1, 39, 64
7, 81360, Note_on_c, 1, 36, 76
7, 81600, Note_off_c, 1, 36, 64
7, 81600, Note_on_c, 1, 34, 77
7, 81728, Note_off_c, 1, 34, 64
7, 81778, Note_on_c, 1, 34, 70
7, 81840, Note_on_c, 1, 41, 63
7, 81848, Note_off_c, 1, 34, 64
7, 82080, Note_off_c, 1, 41, 64
7, 82080, Note_on_c, 1, 46, 68
7, 82156, Note_off_c, 1, 46, 64
7, 82262, Note_on_c, 1, 46, 54
7, 82330, Note_on_c, 1, 41, 75
7, 82338, Note_off_c, 1, 46, 64
7, 82560, Note_off_c, 1, 41, 64
7, 82560, Note_on_c, 1, 43, 80
7, 82688, Note_off_c, 1, 43, 64
7, 82736, Note_on_c, 1, 43, 82
7, 82800, Note_on_c, 1, 41, 83
7, 82820, Note_off_c, 1, 43, 64
7, 83040, Note_on_c, 1, 39, 79
7, 83048, Note_off_c, 1, 41, 64
7, 83280, Note_on_c, 1, 37, 74
7, 83284, Note_off_c, 1, 39, 64
7, 83520, Note_off_c, 1, 37, 64
7, 83520, Note_on_c, 1, 36, 69
7, 83760, Note_on_c, 1, 43, 67
7, 83804, Note_off_c, 1, 36, 64
7, 84000, Note_on_c, 1, 48, 73
7, 84018, Note_off_c, 1, 43, 64
7, 84240, Note_on_c, 1, 43, 84
7, 84250, Note_off_c, 1, 48, 64
7, 84408, Note_on_c, 1, 42, 60
7, 84422, Note_off_c, 1, 43, 64
7, 84480, Note_off_c, 1, 42, 64
7, 84480, Note_on_c, 1, 41, 69
7, 84720, Note_off_c, 1, 41, 64
7, 84720, Note_on_c, 1, 48, 68
7, 84962, Note_off_c, 1, 48, 64
7, 84962, Note_on_c, 1, 45, 63
7, 85204, Note_off_c, 1, 45, 64
7, 85204, Note_on_c, 1, 41, 81
7, 85440, Note_off_c, 1, 41, 64
7, 85440, Note_on_c, 1, 36, 69
7, 85588, Note_off_c, 1, 36, 64
7, 85616, Note_on_c, 1, 36, 81
7, 85668, Note_off_c, 1, 36, 64
7, 85680, Note_on_c, 1, 40, 62
7, 85920, Note_off_c, 1, 40, 64
7, 85920, Note_on_c, 1, 41, 73
7, 86148, Note_off_c, 1, 41, 64
7, 86160, Note_on_c, 1, 33, 67
7, 86400, Note_off_c, 1, 33, 64
7, 86400, Note_on_c, 1, 34, 69
7, 86640, Note_off_c, 1, 34, 64
7, 86640, Note_on_c, 1, 41, 68
7, 86882, Note_off_c, 1, 41, 64
7, 86882, Note_on_c, 1, 38, 63
7, 87124, Note_off_c, 1, 38, 64
7, 87124, Note_on_c, 1, 34, 81
7, 87360, Note_off_c, 1, 34, 64
7, 87360, Note_on_c, 1, 43, 64
7, 87562, Note_off_c, 1, 43, 64
7, 87600, Note_on_c, 1, 43, 79
7, 87840, Note_off_c, 1, 43, 64
7, 87840, Note_on_c, 1, 36, 84
7, 88016, Note_on_c, 1, 31, 60
7, 88056, Note_off_c, 1, 31, 64
7, 88070, Note_off_c, 1, 36, 64
7, 88080, Note_on_c, 1, 43, 77
7, 88256, Note_off_c, 1, 43, 64
7, 88256, Note_on_c, 1, 31, 62
7, 88290, Note_off_c, 1, 31, 64
7, 88320, Note_on_c, 1, 33, 85
7, 88408, Note_off_c, 1, 33, 64
7, 88498, Note_on_c, 1, 33, 73
7, 88560, Note_on_c, 1, 35, 64
7, 88602, Note_off_c, 1, 33, 64
7, 88800, Note_off_c, 1, 35, 64
7, 88800, Note_on_c, 1, 36, 75
7, 89038, Note_off_c, 1, 36, 64
7, 89040, Note_on_c, 1, 40, 67
7, 89280, Note_off_c, 1, 40, 64
7, 89280, Note_on_c, 1, 44, 69
7, 89520, Note_off_c, 1, 44, 64
7, 89520, Note_on_c, 1, 50, 68
7, 89762, Note_off_c, 1, 50, 64
7, 89762, Note_on_c, 1, 47, 63
7, 90004, Note_off_c, 1, 47, 64
7, 90004, Note_on_c, 1, 44, 81
7, 90240, Note_off_c, 1, 44, 64
7, 90240, Note_on_c, 1, 43, 76
7, 90480, Note_on_c, 1, 55, 59
7, 90498, Note_off_c, 1, 43, 64
7, 90720, Note_on_c, 1, 50, 71
7, 90748, Note_off_c, 1, 55, 64
7, 90960, Note_on_c, 1, 46, 77
7, 90966, Note_off_c, 1, 50, 64
7, 91200, Note_off_c, 1, 46, 64
7, 91200, Note_on_c, 1, 36, 67
7, 91440, Note_off_c, 1, 36, 64
7, 91440, Note_on_c, 1, 36, 74
7, 91680, Note_off_c, 1, 36, 64
7, 91680, Note_on_c, 1, 36, 77
7, 91808, Note_off_c, 1, 36, 64
7, 91858, Note_on_c, 1, 36, 70
7, 91920, Note_on_c, 1, 43, 63
7, 91928, Note_off_c, 1, 36, 64
7, 92160, Note_off_c, 1, 43, 64
7, 92160, Note_on_c, 1, 41, 69
7, 92400, Note_on_c, 1, 48, 67
7, 92444, Note_off_c, 1, 41, 64
7, 92640, Note_on_c, 1, 53, 73
7, 92658, Note_off_c, 1, 48, 64
7, 92880, Note_on_c, 1, 48, 84
7, 92890, Note_off_c, 1, 53, 64
7, 93048, Note_on_c, 1, 44, 60
7, 93062, Note_off_c, 1, 48, 64
7, 93120, Note_off_c, 1, 44, 64
7, 93120, Note_on_c, 1, 43, 69
7, 93268, Note_off_c, 1, 43, 64
7, 93296, Note_on_c, 1, 43, 81
7, 93348, Note_off_c, 1, 43, 64
7, 93360, Note_on_c, 1, 35, 62
7, 93600, Note_off_c, 1, 35, 64
7, 93600, Note_on_c, 1, 36, 73
7, 93828, Note_off_c, 1, 36, 64
7, 93840, Note_on_c, 1, 40, 67
7, 94080, Note_off_c, 1, 40, 64
7, 94080, Note_on_c, 1, 41, 80
7, 94166, Note_off_c, 1, 41, 64
7, 94256, Note_on_c, 1, 41, 82
7, 94320, Note_on_c, 1, 45, 74
7, 94350, Note_off_c, 1, 41, 64
7, 94560, Note_on_c, 1, 46, 68
7, 94564, Note_off_c, 1, 45, 64
7, 94800, Note_on_c, 1, 47, 72
7, 94834, Note_off_c, 1, 46, 64
7, 95040, Note_on_c, 1, 48, 74
7, 95062, Note_off_c, 1, 47, 64
7, 95204, Note_off_c, 1, 48, 64
7, 95280, Note_on_c, 1, 36, 72
7, 95402, Note_off_c, 1, 36, 64
7, 95456, Note_on_c, 1, 41, 93
7, 95996, Note_off_c, 1, 41, 64
7, 95996, End_track
8, 0, Start_track
8, 0, Title_t, "Piano / Rhodes elect."
8, 0, Program_c, 2, 4
8, 0, Control_c, 2, 7, 80
8, 0, Control_c, 2, 10, 54
8, 0, Control_c, 2, 123, 0
8, 0, Control_c, 2, 91, 40
8, 0, Control_c, 2, 93, 0
8, 0, Control_c, 2, 64, 0
8, 2900, Note_on_c, 2, 87, 62
8, 2900, Note_on_c, 2, 75, 57
8, 2900, Note_on_c, 2, 78, 41
8, 2906, Note_on_c, 2, 68, 50
8, 2934, Note_off_c, 2, 78, 64
8, 2946, Note_off_c, 2, 87, 64
8, 2948, Note_off_c, 2, 68, 64
8, 2948, Note_off_c, 2, 75, 64
8, 3380, Note_on_c, 2, 86, 62
8, 3380, Note_on_c, 2, 74, 57
8, 3380, Note_on_c, 2, 78, 41
8, 3386, Note_on_c, 2, 69, 50
8, 3414, Note_off_c, 2, 78, 64
8, 3426, Note_off_c, 2, 86, 64
8, 3428, Note_off_c, 2, 69, 64
8, 3428, Note_off_c, 2, 74, 64
8, 3852, Note_on_c, 2, 68, 52
8, 3978, Note_off_c, 2, 68, 64
8, 4036, Note_on_c, 2, 56, 56
8, 4296, Note_off_c, 2, 56, 64
8, 4326, Note_on_c, 2, 36, 38
8, 4328, Note_on_c, 2, 58, 51
8, 4330, Note_on_c, 2, 55, 48
8, 4338, Note_on_c, 2, 63, 51
8, 4360, Note_off_c, 2, 36, 64
8, 4370, Note_off_c, 2, 58, 64
8, 4372, Note_off_c, 2, 63, 64
8, 4376, Note_off_c, 2, 55, 64
8, 4806, Note_on_c, 2, 34, 38
8, 4808, Note_on_c, 2, 58, 51
8, 4810, Note_on_c, 2, 53, 48
8, 4818, Note_on_c, 2, 61, 51
8, 4840, Note_off_c, 2, 34, 64
8, 4850, Note_off_c, 2, 58, 64
8, 4852, Note_off_c, 2, 61, 64
8, 4856, Note_off_c, 2, 53, 64
8, 5282, Note_on_c, 2, 34, 56
8, 5370, Note_off_c, 2, 34, 64
8, 5464, Note_on_c, 2, 68, 75
8, 5470, Note_on_c, 2, 73, 72
8, 5470, Note_on_c, 2, 82, 64
8, 5504, Note_off_c, 2, 73, 64
8, 5514, Note_off_c, 2, 82, 64
8, 5518, Note_off_c, 2, 68, 64
8, 5772, Note_on_c, 2, 91, 45
8, 5774, Note_on_c, 2, 58, 32
8, 5774, Note_on_c, 2, 79, 35
8, 5776, Note_on_c, 2, 87, 36
8, 5778, Note_on_c, 2, 53, 52
8, 5818, Note_off_c, 2, 87, 64
8, 5834, Note_on_c, 2, 87, 46
8, 5848, Note_off_c, 2, 79, 64
8, 5890, Note_off_c, 2, 53, 64
8, 5890, Note_off_c, 2, 58, 64
8, 5898, Note_off_c, 2, 91, 64
8, 5918, Note_off_c, 2, 87, 64
8, 5948, Note_on_c, 2, 91, 55
8, 5954, Note_on_c, 2, 87, 74
8, 5956, Note_on_c, 2, 58, 59
8, 5956, Note_on_c, 2, 79, 55
8, 5960, Note_on_c, 2, 53, 60
8, 5998, Note_off_c, 2, 87, 64
8, 6008, Note_off_c, 2, 79, 64
8, 6012, Note_off_c, 2, 53, 64
8, 6012, Note_off_c, 2, 58, 64
8, 6024, Note_off_c, 2, 91, 64
8, 6736, Note_on_c, 2, 75, 69
8, 6744, Note_on_c, 2, 48, 36
8, 6746, Note_on_c, 2, 64, 37
8, 6746, Note_on_c, 2, 82, 51
8, 6800, Note_off_c, 2, 75, 64
8, 6812, Note_on_c, 2, 76, 44
8, 7598, Note_off_c, 2, 82, 64
8, 7608, Note_off_c, 2, 76, 64
8, 7630, Note_off_c, 2, 48, 64
8, 7680, Note_off_c, 2, 64, 64
8, 7868, Note_on_c, 2, 79, 82
8, 7950, Note_off_c, 2, 79, 64
8, 8086, Note_on_c, 2, 72, 49
8, 8144, Note_off_c, 2, 72, 64
8, 8160, Note_on_c, 2, 79, 68
8, 8310, Note_off_c, 2, 79, 64
8, 8590, Note_on_c, 2, 72, 47
8, 8640, Note_off_c, 2, 72, 64
8, 8642, Note_on_c, 2, 79, 52
8, 8644, Note_on_c, 2, 84, 32
8, 8682, Note_off_c, 2, 79, 64
8, 8684, Note_off_c, 2, 84, 64
8, 8880, Note_on_c, 2, 67, 39
8, 8888, Note_on_c, 2, 70, 31
8, 8888, Note_on_c, 2, 75, 36
8, 8890, Note_on_c, 2, 72, 33
8, 8894, Note_on_c, 2, 84, 38
8, 8898, Note_on_c, 2, 79, 39
8, 8934, Note_off_c, 2, 75, 64
8, 8934, Note_off_c, 2, 67, 64
8, 8942, Note_off_c, 2, 70, 64
8, 8944, Note_off_c, 2, 79, 64
8, 8944, Note_off_c, 2, 84, 64
8, 8944, Note_off_c, 2, 72, 64
8, 9318, Note_on_c, 2, 41, 43
8, 9336, Note_off_c, 2, 41, 64
8, 9380, Note_on_c, 2, 69, 55
8, 9416, Note_off_c, 2, 69, 64
8, 9422, Note_on_c, 2, 75, 52
8, 9476, Note_on_c, 2, 69, 43
8, 9530, Note_off_c, 2, 75, 64
8, 9542, Note_on_c, 2, 63, 55
8, 9550, Note_off_c, 2, 69, 64
8, 9600, Note_off_c, 2, 63, 64
8, 9602, Note_on_c, 2, 77, 52
8, 9604, Note_on_c, 2, 82, 32
8, 9642, Note_off_c, 2, 77, 64
8, 9644, Note_off_c, 2, 82, 64
8, 9840, Note_on_c, 2, 65, 39
8, 9848, Note_on_c, 2, 68, 31
8, 9848, Note_on_c, 2, 73, 36
8, 9850, Note_on_c, 2, 70, 33
8, 9854, Note_on_c, 2, 82, 38
8, 9858, Note_on_c, 2, 77, 39
8, 9894, Note_off_c, 2, 73, 64
8, 9894, Note_off_c, 2, 65, 64
8, 9902, Note_off_c, 2, 68, 64
8, 9904, Note_off_c, 2, 77, 64
8, 9904, Note_off_c, 2, 82, 64
8, 9904, Note_off_c, 2, 70, 64
8, 10090, Note_on_c, 2, 68, 23
8, 10094, Note_on_c, 2, 65, 30
8, 10096, Note_on_c, 2, 73, 19
8, 10098, Note_on_c, 2, 70, 19
8, 10102, Note_on_c, 2, 77, 40
8, 10102, Note_on_c, 2, 82, 23
8, 10202, Note_off_c, 2, 65, 64
8, 10206, Note_off_c, 2, 70, 64
8, 10206, Note_off_c, 2, 68, 64
8, 10212, Note_off_c, 2, 82, 64
8, 10212, Note_off_c, 2, 77, 64
8, 10212, Note_off_c, 2, 73, 64
8, 10268, Note_on_c, 2, 70, 51
8, 10268, Note_on_c, 2, 65, 51
8, 10268, Note_on_c, 2, 68, 41
8, 10270, Note_on_c, 2, 77, 45
8, 10270, Note_on_c, 2, 73, 47
8, 10278, Note_on_c, 2, 82, 26
8, 10304, Note_off_c, 2, 73, 64
8, 10306, Note_off_c, 2, 70, 64
8, 10308, Note_off_c, 2, 68, 64
8, 10308, Note_off_c, 2, 65, 64
8, 10316, Note_off_c, 2, 82, 64
8, 10316, Note_off_c, 2, 77, 64
8, 10562, Note_on_c, 2, 55, 40
8, 10562, Note_on_c, 2, 67, 49
8, 10572, Note_on_c, 2, 39, 45
8, 10574, Note_on_c, 2, 61, 46
8, 10576, Note_on_c, 2, 58, 50
8, 10608, Note_off_c, 2, 61, 64
8, 10618, Note_off_c, 2, 58, 64
8, 10622, Note_off_c, 2, 39, 64
8, 10622, Note_off_c, 2, 67, 64
8, 10622, Note_off_c, 2, 55, 64
8, 11048, Note_on_c, 2, 79, 72
8, 11048, Note_on_c, 2, 82, 73
8, 11056, Note_on_c, 2, 75, 73
8, 11056, Note_on_c, 2, 87, 75
8, 11058, Note_on_c, 2, 73, 54
8, 11080, Note_off_c, 2, 75, 64
8, 11080, Note_off_c, 2, 79, 64
8, 11088, Note_off_c, 2, 87, 64
8, 11092, Note_off_c, 2, 73, 64
8, 11092, Note_off_c, 2, 82, 64
8, 11706, Note_on_c, 2, 87, 76
8, 11768, Note_off_c, 2, 87, 64
8, 11778, Note_on_c, 2, 82, 26
8, 11868, Note_off_c, 2, 82, 64
8, 12016, Note_on_c, 2, 70, 56
8, 12022, Note_on_c, 2, 87, 63
8, 12022, Note_on_c, 2, 72, 58
8, 12022, Note_on_c, 2, 79, 67
8, 12060, Note_off_c, 2, 79, 64
8, 12068, Note_off_c, 2, 70, 64
8, 12074, Note_off_c, 2, 72, 64
8, 12080, Note_off_c, 2, 87, 64
8, 12666, Note_on_c, 2, 81, 104
8, 12712, Note_off_c, 2, 81, 64
8, 12748, Note_on_c, 2, 82, 73
8, 12816, Note_off_c, 2, 82, 64
8, 12914, Note_on_c, 2, 76, 70
8, 12948, Note_off_c, 2, 76, 64
8, 12984, Note_on_c, 2, 70, 49
8, 13048, Note_off_c, 2, 70, 64
8, 13152, Note_on_c, 2, 64, 89
8, 13202, Note_off_c, 2, 64, 64
8, 13216, Note_on_c, 2, 58, 52
8, 13364, Note_off_c, 2, 58, 64
8, 13446, Note_on_c, 2, 43, 59
8, 13448, Note_on_c, 2, 73, 67
8, 13448, Note_on_c, 2, 67, 68
8, 13450, Note_on_c, 2, 65, 64
8, 13500, Note_off_c, 2, 67, 64
8, 13500, Note_off_c, 2, 43, 64
8, 13508, Note_off_c, 2, 65, 64
8, 13524, Note_off_c, 2, 73, 64
8, 13940, Note_on_c, 2, 61, 49
8, 13944, Note_on_c, 2, 53, 54
8, 13944, Note_on_c, 2, 85, 75
8, 13944, Note_on_c, 2, 79, 63
8, 13948, Note_on_c, 2, 73, 67
8, 14004, Note_off_c, 2, 79, 64
8, 14252, Note_off_c, 2, 61, 64
8, 14270, Note_off_c, 2, 53, 64
8, 14308, Note_off_c, 2, 85, 64
8, 14310, Note_off_c, 2, 73, 64
8, 14368, Note_on_c, 2, 53, 30
8, 14400, Note_off_c, 2, 53, 64
8, 14406, Note_on_c, 2, 36, 38
8, 14408, Note_on_c, 2, 58, 51
8, 14410, Note_on_c, 2, 55, 48
8, 14418, Note_on_c, 2, 64, 51
8, 14440, Note_off_c, 2, 36, 64
8, 14450, Note_off_c, 2, 58, 64
8, 14452, Note_off_c, 2, 64, 64
8, 14456, Note_off_c, 2, 55, 64
8, 14902, Note_on_c, 2, 76, 67
8, 15028, Note_off_c, 2, 76, 64
8, 15056, Note_on_c, 2, 48, 50
8, 15110, Note_off_c, 2, 48, 64
8, 15132, Note_on_c, 2, 84, 67
8, 15132, Note_on_c, 2, 72, 63
8, 15216, Note_off_c, 2, 84, 64
8, 15254, Note_off_c, 2, 72, 64
8, 15380, Note_on_c, 2, 69, 42
8, 15384, Note_on_c, 2, 77, 37
8, 15510, Note_off_c, 2, 69, 64
8, 15518, Note_off_c, 2, 77, 64
8, 15610, Note_on_c, 2, 70, 59
8, 15610, Note_on_c, 2, 77, 62
8, 15752, Note_off_c, 2, 70, 64
8, 15758, Note_off_c, 2, 77, 64
8, 15780, Note_on_c, 2, 60, 60
8, 15836, Note_off_c, 2, 60, 64
8, 15846, Note_on_c, 2, 77, 50
8, 15850, Note_on_c, 2, 71, 65
8, 15978, Note_off_c, 2, 77, 64
8, 15984, Note_off_c, 2, 71, 64
8, 16024, Note_on_c, 2, 77, 51
8, 16024, Note_on_c, 2, 72, 65
8, 16078, Note_off_c, 2, 72, 64
8, 16084, Note_off_c, 2, 77, 64
8, 16518, Note_on_c, 2, 43, 43
8, 16536, Note_off_c, 2, 43, 64
8, 16580, Note_on_c, 2, 70, 55
8, 16616, Note_off_c, 2, 70, 64
8, 16622, Note_on_c, 2, 77, 52
8, 16676, Note_on_c, 2, 70, 43
8, 16730, Note_off_c, 2, 77, 64
8, 16742, Note_on_c, 2, 65, 55
8, 16750, Note_off_c, 2, 70, 64
8, 16800, Note_off_c, 2, 65, 64
8, 16816, Note_on_c, 2, 78, 69
8, 16824, Note_on_c, 2, 36, 58
8, 16826, Note_on_c, 2, 82, 51
8, 16826, Note_on_c, 2, 52, 48
8, 16880, Note_off_c, 2, 78, 64
8, 16892, Note_on_c, 2, 79, 44
8, 17280, Note_off_c, 2, 79, 64
8, 17280, Note_off_c, 2, 52, 64
8, 17280, Note_off_c, 2, 82, 64
8, 17280, Note_off_c, 2, 36, 64
8, 17286, Note_on_c, 2, 41, 38
8, 17288, Note_on_c, 2, 56, 51
8, 17290, Note_on_c, 2, 53, 48
8, 17298, Note_on_c, 2, 63, 51
8, 17320, Note_off_c, 2, 41, 64
8, 17330, Note_off_c, 2, 56, 64
8, 17332, Note_off_c, 2, 63, 64
8, 17336, Note_off_c, 2, 53, 64
8, 17776, Note_on_c, 2, 78, 69
8, 17784, Note_on_c, 2, 40, 58
8, 17786, Note_on_c, 2, 82, 51
8, 17786, Note_on_c, 2, 52, 48
8, 17840, Note_off_c, 2, 78, 64
8, 17852, Note_on_c, 2, 79, 44
8, 18240, Note_off_c, 2, 79, 64
8, 18240, Note_off_c, 2, 52, 64
8, 18240, Note_off_c, 2, 82, 64
8, 18240, Note_off_c, 2, 40, 64
8, 18256, Note_on_c, 2, 79, 69
8, 18264, Note_on_c, 2, 39, 58
8, 18266, Note_on_c, 2, 54, 48
8, 18266, Note_on_c, 2, 84, 51
8, 18320, Note_off_c, 2, 79, 64
8, 18332, Note_on_c, 2, 80, 44
8, 18720, Note_off_c, 2, 80, 64
8, 18720, Note_off_c, 2, 84, 64
8, 18720, Note_off_c, 2, 54, 64
8, 18720, Note_off_c, 2, 39, 64
8, 18728, Note_on_c, 2, 74, 87
8, 18728, Note_on_c, 2, 72, 90
8, 18732, Note_on_c, 2, 45, 74
8, 18848, Note_off_c, 2, 45, 64
8, 18862, Note_off_c, 2, 74, 64
8, 18864, Note_off_c, 2, 72, 64
8, 18910, Note_on_c, 2, 72, 43
8, 18916, Note_on_c, 2, 74, 43
8, 18916, Note_on_c, 2, 45, 42
8, 18938, Note_off_c, 2, 72, 64
8, 18948, Note_off_c, 2, 74, 64
8, 18952, Note_off_c, 2, 45, 64
8, 19212, Note_on_c, 2, 92, 45
8, 19214, Note_on_c, 2, 60, 32
8, 19214, Note_on_c, 2, 80, 35
8, 19216, Note_on_c, 2, 86, 31
8, 19218, Note_on_c, 2, 53, 52
8, 19258, Note_off_c, 2, 86, 64
8, 19274, Note_on_c, 2, 87, 55
8, 19288, Note_off_c, 2, 80, 64
8, 19330, Note_off_c, 2, 53, 64
8, 19330, Note_off_c, 2, 60, 64
8, 19338, Note_off_c, 2, 92, 64
8, 19358, Note_off_c, 2, 87, 64
8, 19388, Note_on_c, 2, 92, 55
8, 19394, Note_on_c, 2, 87, 74
8, 19396, Note_on_c, 2, 60, 59
8, 19396, Note_on_c, 2, 80, 55
8, 19400, Note_on_c, 2, 53, 60
8, 19438, Note_off_c, 2, 87, 64
8, 19448, Note_off_c, 2, 80, 64
8, 19452, Note_off_c, 2, 53, 64
8, 19452, Note_off_c, 2, 60, 64
8, 19464, Note_off_c, 2, 92, 64
8, 19696, Note_on_c, 2, 78, 69
8, 19704, Note_on_c, 2, 36, 58
8, 19706, Note_on_c, 2, 84, 51
8, 19706, Note_on_c, 2, 51, 48
8, 19760, Note_off_c, 2, 78, 64
8, 19772, Note_on_c, 2, 79, 44
8, 20160, Note_off_c, 2, 79, 64
8, 20160, Note_off_c, 2, 51, 64
8, 20160, Note_off_c, 2, 84, 64
8, 20160, Note_off_c, 2, 36, 64
8, 20182, Note_on_c, 2, 73, 67
8, 20308, Note_off_c, 2, 73, 64
8, 20336, Note_on_c, 2, 46, 50
8, 20390, Note_off_c, 2, 46, 64
8, 20412, Note_on_c, 2, 85, 67
8, 20412, Note_on_c, 2, 73, 63
8, 20496, Note_off_c, 2, 85, 64
8, 20534, Note_off_c, 2, 73, 64
8, 20660, Note_on_c, 2, 82, 62
8, 20660, Note_on_c, 2, 70, 57
8, 20660, Note_on_c, 2, 73, 41
8, 20666, Note_on_c, 2, 65, 50
8, 20694, Note_off_c, 2, 73, 64
8, 20706, Note_off_c, 2, 82, 64
8, 20708, Note_off_c, 2, 65, 64
8, 20708, Note_off_c, 2, 70, 64
8, 21126, Note_on_c, 2, 43, 38
8, 21128, Note_on_c, 2, 58, 51
8, 21130, Note_on_c, 2, 55, 48
8, 21138, Note_on_c, 2, 65, 51
8, 21160, Note_off_c, 2, 43, 64
8, 21170, Note_off_c, 2, 58, 64
8, 21172, Note_off_c, 2, 65, 64
8, 21176, Note_off_c, 2, 55, 64
8, 22096, Note_on_c, 2, 75, 69
8, 22104, Note_on_c, 2, 48, 36
8, 22106, Note_on_c, 2, 64, 37
8, 22106, Note_on_c, 2, 82, 51
8, 22160, Note_off_c, 2, 75, 64
8, 22172, Note_on_c, 2, 76, 44
8, 22958, Note_off_c, 2, 82, 64
8, 22968, Note_off_c, 2, 76, 64
8, 22990, Note_off_c, 2, 48, 64
8, 23040, Note_off_c, 2, 64, 64
8, 23046, Note_on_c, 2, 41, 59
8, 23048, Note_on_c, 2, 72, 67
8, 23048, Note_on_c, 2, 67, 68
8, 23050, Note_on_c, 2, 64, 64
8, 23100, Note_off_c, 2, 67, 64
8, 23100, Note_off_c, 2, 41, 64
8, 23108, Note_off_c, 2, 64, 64
8, 23124, Note_off_c, 2, 72, 64
8, 23540, Note_on_c, 2, 60, 49
8, 23544, Note_on_c, 2, 52, 54
8, 23544, Note_on_c, 2, 84, 75
8, 23544, Note_on_c, 2, 79, 63
8, 23548, Note_on_c, 2, 72, 67
8, 23604, Note_off_c, 2, 79, 64
8, 23852, Note_off_c, 2, 60, 64
8, 23870, Note_off_c, 2, 52, 64
8, 23908, Note_off_c, 2, 84, 64
8, 23910, Note_off_c, 2, 72, 64
8, 23968, Note_on_c, 2, 52, 30
8, 24000, Note_off_c, 2, 52, 64
8, 24008, Note_on_c, 2, 72, 87
8, 24008, Note_on_c, 2, 70, 90
8, 24012, Note_on_c, 2, 43, 74
8, 24128, Note_off_c, 2, 43, 64
8, 24142, Note_off_c, 2, 72, 64
8, 24144, Note_off_c, 2, 70, 64
8, 24190, Note_on_c, 2, 70, 43
8, 24196, Note_on_c, 2, 72, 43
8, 24196, Note_on_c, 2, 43, 42
8, 24218, Note_off_c, 2, 70, 64
8, 24228, Note_off_c, 2, 72, 64
8, 24232, Note_off_c, 2, 43, 64
8, 24482, Note_on_c, 2, 77, 52
8, 24484, Note_on_c, 2, 84, 32
8, 24522, Note_off_c, 2, 77, 64
8, 24524, Note_off_c, 2, 84, 64
8, 24720, Note_on_c, 2, 65, 39
8, 24728, Note_on_c, 2, 69, 31
8, 24728, Note_on_c, 2, 75, 36
8, 24730, Note_on_c, 2, 72, 33
8, 24734, Note_on_c, 2, 84, 38
8, 24738, Note_on_c, 2, 77, 39
8, 24774, Note_off_c, 2, 75, 64
8, 24774, Note_off_c, 2, 65, 64
8, 24782, Note_off_c, 2, 69, 64
8, 24784, Note_off_c, 2, 77, 64
8, 24784, Note_off_c, 2, 84, 64
8, 24784, Note_off_c, 2, 72, 64
8, 24978, Note_on_c, 2, 60, 45
8, 24982, Note_on_c, 2, 65, 63
8, 24982, Note_on_c, 2, 61, 68
8, 25022, Note_off_c, 2, 60, 64
8, 25022, Note_on_c, 2, 62, 54
8, 25052, Note_off_c, 2, 61, 64
8, 25112, Note_off_c, 2, 65, 64
8, 25120, Note_off_c, 2, 62, 64
8, 25150, Note_on_c, 2, 41, 53
8, 25920, Note_off_c, 2, 41, 64
8, 26118, Note_on_c, 2, 43, 43
8, 26136, Note_off_c, 2, 43, 64
8, 26180, Note_on_c, 2, 70, 55
8, 26216, Note_off_c, 2, 70, 64
8, 26222, Note_on_c, 2, 77, 52
8, 26276, Note_on_c, 2, 70, 43
8, 26330, Note_off_c, 2, 77, 64
8, 26342, Note_on_c, 2, 65, 55
8, 26350, Note_off_c, 2, 70, 64
8, 26400, Note_off_c, 2, 65, 64
8, 26422, Note_on_c, 2, 76, 67
8, 26548, Note_off_c, 2, 76, 64
8, 26576, Note_on_c, 2, 48, 50
8, 26630, Note_off_c, 2, 48, 64
8, 26652, Note_on_c, 2, 84, 67
8, 26652, Note_on_c, 2, 72, 63
8, 26736, Note_off_c, 2, 84, 64
8, 26774, Note_off_c, 2, 72, 64
8, 26898, Note_on_c, 2, 65, 45
8, 26902, Note_on_c, 2, 69, 63
8, 26902, Note_on_c, 2, 66, 68
8, 26942, Note_off_c, 2, 65, 64
8, 26942, Note_on_c, 2, 67, 54
8, 26972, Note_off_c, 2, 66, 64
8, 27032, Note_off_c, 2, 69, 64
8, 27040, Note_off_c, 2, 67, 64
8, 27070, Note_on_c, 2, 40, 53
8, 27840, Note_off_c, 2, 40, 64
8, 27856, Note_on_c, 2, 77, 69
8, 27864, Note_on_c, 2, 44, 36
8, 27866, Note_on_c, 2, 65, 37
8, 27866, Note_on_c, 2, 83, 51
8, 27920, Note_off_c, 2, 77, 64
8, 27932, Note_on_c, 2, 77, 44
8, 28718, Note_off_c, 2, 83, 64
8, 28728, Note_off_c, 2, 77, 64
8, 28750, Note_off_c, 2, 44, 64
8, 28800, Note_off_c, 2, 65, 64
8, 28986, Note_on_c, 2, 86, 76
8, 29048, Note_off_c, 2, 86, 64
8, 29058, Note_on_c, 2, 79, 26
8, 29148, Note_off_c, 2, 79, 64
8, 29296, Note_on_c, 2, 67, 56
8, 29302, Note_on_c, 2, 86, 63
8, 29302, Note_on_c, 2, 70, 58
8, 29302, Note_on_c, 2, 77, 67
8, 29340, Note_off_c, 2, 77, 64
8, 29348, Note_off_c, 2, 67, 64
8, 29354, Note_off_c, 2, 70, 64
8, 29360, Note_off_c, 2, 86, 64
8, 29768, Note_on_c, 2, 74, 87
8, 29768, Note_on_c, 2, 70, 90
8, 29772, Note_on_c, 2, 43, 74
8, 29888, Note_off_c, 2, 43, 64
8, 29902, Note_off_c, 2, 74, 64
8, 29904, Note_off_c, 2, 70, 64
8, 29950, Note_on_c, 2, 70, 43
8, 29956, Note_on_c, 2, 74, 43
8, 29956, Note_on_c, 2, 43, 42
8, 29978, Note_off_c, 2, 70, 64
8, 29988, Note_off_c, 2, 74, 64
8, 29992, Note_off_c, 2, 43, 64
8, 30256, Note_on_c, 2, 78, 69
8, 30264, Note_on_c, 2, 36, 58
8, 30266, Note_on_c, 2, 82, 51
8, 30266, Note_on_c, 2, 52, 48
8, 30320, Note_off_c, 2, 78, 64
8, 30332, Note_on_c, 2, 79, 44
8, 30720, Note_off_c, 2, 79, 64
8, 30720, Note_off_c, 2, 52, 64
8, 30720, Note_off_c, 2, 82, 64
8, 30720, Note_off_c, 2, 36, 64
8, 30726, Note_on_c, 2, 41, 38
8, 30728, Note_on_c, 2, 57, 51
8, 30730, Note_on_c, 2, 53, 48
8, 30738, Note_on_c, 2, 62, 51
8, 30760, Note_off_c, 2, 41, 64
8, 30770, Note_off_c, 2, 57, 64
8, 30772, Note_off_c, 2, 62, 64
8, 30776, Note_off_c, 2, 53, 64
8, 31878, Note_on_c, 2, 43, 43
8, 31896, Note_off_c, 2, 43, 64
8, 31940, Note_on_c, 2, 70, 55
8, 31976, Note_off_c, 2, 70, 64
8, 31982, Note_on_c, 2, 77, 52
8, 32036, Note_on_c, 2, 70, 43
8, 32090, Note_off_c, 2, 77, 64
8, 32102, Note_on_c, 2, 65, 55
8, 32110, Note_off_c, 2, 70, 64
8, 32160, Note_off_c, 2, 65, 64
8, 32162, Note_on_c, 2, 36, 56
8, 32250, Note_off_c, 2, 36, 64
8, 32344, Note_on_c, 2, 70, 75
8, 32350, Note_on_c, 2, 76, 72
8, 32350, Note_on_c, 2, 84, 64
8, 32384, Note_off_c, 2, 76, 64
8, 32394, Note_off_c, 2, 84, 64
8, 32398, Note_off_c, 2, 70, 64
8, 32648, Note_on_c, 2, 80, 87
8, 32648, Note_on_c, 2, 77, 90
8, 32652, Note_on_c, 2, 48, 74
8, 32768, Note_off_c, 2, 48, 64
8, 32782, Note_off_c, 2, 80, 64
8, 32784, Note_off_c, 2, 77, 64
8, 32830, Note_on_c, 2, 77, 43
8, 32836, Note_on_c, 2, 80, 43
8, 32836, Note_on_c, 2, 48, 42
8, 32858, Note_off_c, 2, 77, 64
8, 32868, Note_off_c, 2, 80, 64
8, 32872, Note_off_c, 2, 48, 64
8, 33142, Note_on_c, 2, 76, 67
8, 33268, Note_off_c, 2, 76, 64
8, 33296, Note_on_c, 2, 52, 50
8, 33350, Note_off_c, 2, 52, 64
8, 33372, Note_on_c, 2, 84, 67
8, 33372, Note_on_c, 2, 72, 63
8, 33456, Note_off_c, 2, 84, 64
8, 33494, Note_off_c, 2, 72, 64
8, 33616, Note_on_c, 2, 79, 69
8, 33624, Note_on_c, 2, 39, 58
8, 33626, Note_on_c, 2, 54, 48
8, 33626, Note_on_c, 2, 84, 51
8, 33680, Note_off_c, 2, 79, 64
8, 33692, Note_on_c, 2, 80, 44
8, 34080, Note_off_c, 2, 80, 64
8, 34080, Note_off_c, 2, 84, 64
8, 34080, Note_off_c, 2, 54, 64
8, 34080, Note_off_c, 2, 39, 64
8, 34092, Note_on_c, 2, 93, 45
8, 34094, Note_on_c, 2, 60, 32
8, 34094, Note_on_c, 2, 81, 35
8, 34096, Note_on_c, 2, 87, 31
8, 34098, Note_on_c, 2, 54, 52
8, 34138, Note_off_c, 2, 87, 64
8, 34154, Note_on_c, 2, 88, 55
8, 34168, Note_off_c, 2, 81, 64
8, 34210, Note_off_c, 2, 54, 64
8, 34210, Note_off_c, 2, 60, 64
8, 34218, Note_off_c, 2, 93, 64
8, 34238, Note_off_c, 2, 88, 64
8, 34268, Note_on_c, 2, 93, 55
8, 34274, Note_on_c, 2, 88, 74
8, 34276, Note_on_c, 2, 60, 59
8, 34276, Note_on_c, 2, 81, 55
8, 34280, Note_on_c, 2, 54, 60
8, 34318, Note_off_c, 2, 88, 64
8, 34328, Note_off_c, 2, 81, 64
8, 34332, Note_off_c, 2, 54, 64
8, 34332, Note_off_c, 2, 60, 64
8, 34344, Note_off_c, 2, 93, 64
8, 34572, Note_on_c, 2, 68, 52
8, 34698, Note_off_c, 2, 68, 64
8, 34756, Note_on_c, 2, 56, 56
8, 35016, Note_off_c, 2, 56, 64
8, 35052, Note_on_c, 2, 91, 45
8, 35054, Note_on_c, 2, 58, 32
8, 35054, Note_on_c, 2, 79, 35
8, 35056, Note_on_c, 2, 85, 31
8, 35058, Note_on_c, 2, 51, 52
8, 35098, Note_off_c, 2, 85, 64
8, 35114, Note_on_c, 2, 86, 55
8, 35128, Note_off_c, 2, 79, 64
8, 35170, Note_off_c, 2, 51, 64
8, 35170, Note_off_c, 2, 58, 64
8, 35178, Note_off_c, 2, 91, 64
8, 35198, Note_off_c, 2, 86, 64
8, 35228, Note_on_c, 2, 91, 55
8, 35234, Note_on_c, 2, 86, 74
8, 35236, Note_on_c, 2, 58, 59
8, 35236, Note_on_c, 2, 79, 55
8, 35240, Note_on_c, 2, 51, 60
8, 35278, Note_off_c, 2, 86, 64
8, 35288, Note_off_c, 2, 79, 64
8, 35292, Note_off_c, 2, 51, 64
8, 35292, Note_off_c, 2, 58, 64
8, 35304, Note_off_c, 2, 91, 64
8, 35532, Note_on_c, 2, 89, 45
8, 35534, Note_on_c, 2, 58, 32
8, 35534, Note_on_c, 2, 77, 35
8, 35536, Note_on_c, 2, 87, 31
8, 35538, Note_on_c, 2, 49, 52
8, 35578, Note_off_c, 2, 87, 64
8, 35594, Note_on_c, 2, 87, 55
8, 35608, Note_off_c, 2, 77, 64
8, 35650, Note_off_c, 2, 49, 64
8, 35650, Note_off_c, 2, 58, 64
8, 35658, Note_off_c, 2, 89, 64
8, 35678, Note_off_c, 2, 87, 64
8, 35708, Note_on_c, 2, 89, 55
8, 35714, Note_on_c, 2, 87, 74
8, 35716, Note_on_c, 2, 58, 59
8, 35716, Note_on_c, 2, 77, 55
8, 35720, Note_on_c, 2, 49, 60
8, 35758, Note_off_c, 2, 87, 64
8, 35768, Note_off_c, 2, 77, 64
8, 35772, Note_off_c, 2, 49, 64
8, 35772, Note_off_c, 2, 58, 64
8, 35784, Note_off_c, 2, 89, 64
8, 36022, Note_on_c, 2, 73, 67
8, 36148, Note_off_c, 2, 73, 64
8, 36176, Note_on_c, 2, 46, 50
8, 36230, Note_off_c, 2, 46, 64
8, 36252, Note_on_c, 2, 82, 67
8, 36252, Note_on_c, 2, 70, 63
8, 36336, Note_off_c, 2, 82, 64
8, 36374, Note_off_c, 2, 70, 64
8, 36498, Note_on_c, 2, 63, 45
8, 36502, Note_on_c, 2, 67, 63
8, 36502, Note_on_c, 2, 64, 68
8, 36542, Note_off_c, 2, 63, 64
8, 36542, Note_on_c, 2, 65, 54
8, 36572, Note_off_c, 2, 64, 64
8, 36632, Note_off_c, 2, 67, 64
8, 36640, Note_off_c, 2, 65, 64
8, 36670, Note_on_c, 2, 37, 53
8, 37440, Note_off_c, 2, 37, 64
8, 37458, Note_on_c, 2, 61, 45
8, 37462, Note_on_c, 2, 67, 63
8, 37462, Note_on_c, 2, 63, 68
8, 37502, Note_off_c, 2, 61, 64
8, 37502, Note_on_c, 2, 64, 54
8, 37532, Note_off_c, 2, 63, 64
8, 37592, Note_off_c, 2, 67, 64
8, 37600, Note_off_c, 2, 64, 64
8, 37630, Note_on_c, 2, 43, 53
8, 38400, Note_off_c, 2, 43, 64
8, 38588, Note_on_c, 2, 79, 82
8, 38670, Note_off_c, 2, 79, 64
8, 38806, Note_on_c, 2, 72, 49
8, 38864, Note_off_c, 2, 72, 64
8, 38880, Note_on_c, 2, 79, 68
8, 39030, Note_off_c, 2, 79, 64
8, 39310, Note_on_c, 2, 72, 47
8, 39360, Note_off_c, 2, 72, 64
8, 39376, Note_on_c, 2, 78, 69
8, 39384, Note_on_c, 2, 36, 58
8, 39386, Note_on_c, 2, 51, 48
8, 39386, Note_on_c, 2, 82, 51
8, 39440, Note_off_c, 2, 78, 64
8, 39452, Note_on_c, 2, 79, 44
8, 39840, Note_off_c, 2, 79, 64
8, 39840, Note_off_c, 2, 82, 64
8, 39840, Note_off_c, 2, 51, 64
8, 39840, Note_off_c, 2, 36, 64
8, 40038, Note_on_c, 2, 41, 43
8, 40056, Note_off_c, 2, 41, 64
8, 40100, Note_on_c, 2, 69, 55
8, 40136, Note_off_c, 2, 69, 64
8, 40142, Note_on_c, 2, 75, 52
8, 40196, Note_on_c, 2, 69, 43
8, 40250, Note_off_c, 2, 75, 64
8, 40262, Note_on_c, 2, 63, 55
8, 40270, Note_off_c, 2, 69, 64
8, 40320, Note_off_c, 2, 63, 64
8, 40322, Note_on_c, 2, 49, 40
8, 40322, Note_on_c, 2, 61, 49
8, 40332, Note_on_c, 2, 34, 45
8, 40334, Note_on_c, 2, 56, 46
8, 40336, Note_on_c, 2, 53, 50
8, 40368, Note_off_c, 2, 56, 64
8, 40378, Note_off_c, 2, 53, 64
8, 40382, Note_off_c, 2, 34, 64
8, 40382, Note_off_c, 2, 61, 64
8, 40382, Note_off_c, 2, 49, 64
8, 40808, Note_on_c, 2, 73, 72
8, 40808, Note_on_c, 2, 77, 73
8, 40816, Note_on_c, 2, 70, 73
8, 40816, Note_on_c, 2, 82, 75
8, 40818, Note_on_c, 2, 68, 54
8, 40840, Note_off_c, 2, 70, 64
8, 40840, Note_off_c, 2, 73, 64
8, 40848, Note_off_c, 2, 82, 64
8, 40852, Note_off_c, 2, 68, 64
8, 40852, Note_off_c, 2, 77, 64
8, 41292, Note_on_c, 2, 87, 45
8, 41294, Note_on_c, 2, 55, 32
8, 41294, Note_on_c, 2, 75, 35
8, 41296, Note_on_c, 2, 83, 36
8, 41298, Note_on_c, 2, 49, 52
8, 41338, Note_off_c, 2, 83, 64
8, 41354, Note_on_c, 2, 84, 46
8, 41368, Note_off_c, 2, 75, 64
8, 41410, Note_off_c, 2, 49, 64
8, 41410, Note_off_c, 2, 55, 64
8, 41418, Note_off_c, 2, 87, 64
8, 41438, Note_off_c, 2, 84, 64
8, 41468, Note_on_c, 2, 87, 55
8, 41474, Note_on_c, 2, 84, 74
8, 41476, Note_on_c, 2, 55, 59
8, 41476, Note_on_c, 2, 75, 55
8, 41480, Note_on_c, 2, 49, 60
8, 41518, Note_off_c, 2, 84, 64
8, 41528, Note_off_c, 2, 75, 64
8, 41532, Note_off_c, 2, 49, 64
8, 41532, Note_off_c, 2, 55, 64
8, 41544, Note_off_c, 2, 87, 64
8, 42246, Note_on_c, 2, 44, 38
8, 42248, Note_on_c, 2, 60, 51
8, 42250, Note_on_c, 2, 56, 48
8, 42258, Note_on_c, 2, 67, 51
8, 42280, Note_off_c, 2, 44, 64
8, 42290, Note_off_c, 2, 60, 64
8, 42292, Note_off_c, 2, 67, 64
8, 42296, Note_off_c, 2, 56, 64
8, 43220, Note_on_c, 2, 65, 42
8, 43224, Note_on_c, 2, 73, 37
8, 43350, Note_off_c, 2, 65, 64
8, 43358, Note_off_c, 2, 73, 64
8, 43450, Note_on_c, 2, 66, 59
8, 43450, Note_on_c, 2, 73, 62
8, 43592, Note_off_c, 2, 66, 64
8, 43598, Note_off_c, 2, 73, 64
8, 43620, Note_on_c, 2, 56, 60
8, 43676, Note_off_c, 2, 56, 64
8, 43686, Note_on_c, 2, 73, 50
8, 43690, Note_on_c, 2, 67, 65
8, 43818, Note_off_c, 2, 73, 64
8, 43824, Note_off_c, 2, 67, 64
8, 43864, Note_on_c, 2, 73, 51
8, 43864, Note_on_c, 2, 68, 65
8, 43918, Note_off_c, 2, 68, 64
8, 43924, Note_off_c, 2, 73, 64
8, 44162, Note_on_c, 2, 53, 40
8, 44162, Note_on_c, 2, 65, 49
8, 44172, Note_on_c, 2, 43, 45
8, 44174, Note_on_c, 2, 58, 46
8, 44176, Note_on_c, 2, 55, 50
8, 44208, Note_off_c, 2, 58, 64
8, 44218, Note_off_c, 2, 55, 64
8, 44222, Note_off_c, 2, 43, 64
8, 44222, Note_off_c, 2, 65, 64
8, 44222, Note_off_c, 2, 53, 64
8, 44648, Note_on_c, 2, 77, 72
8, 44648, Note_on_c, 2, 79, 73
8, 44656, Note_on_c, 2, 73, 73
8, 44656, Note_on_c, 2, 85, 75
8, 44658, Note_on_c, 2, 70, 54
8, 44680, Note_off_c, 2, 73, 64
8, 44680, Note_off_c, 2, 77, 64
8, 44688, Note_off_c, 2, 85, 64
8, 44692, Note_off_c, 2, 70, 64
8, 44692, Note_off_c, 2, 79, 64
8, 45122, Note_on_c, 2, 36, 56
8, 45210, Note_off_c, 2, 36, 64
8, 45304, Note_on_c, 2, 70, 75
8, 45310, Note_on_c, 2, 76, 72
8, 45310, Note_on_c, 2, 86, 64
8, 45344, Note_off_c, 2, 76, 64
8, 45354, Note_off_c, 2, 86, 64
8, 45358, Note_off_c, 2, 70, 64
8, 45798, Note_on_c, 2, 48, 43
8, 45816, Note_off_c, 2, 48, 64
8, 45860, Note_on_c, 2, 70, 55
8, 45896, Note_off_c, 2, 70, 64
8, 45902, Note_on_c, 2, 76, 52
8, 45956, Note_on_c, 2, 70, 43
8, 46010, Note_off_c, 2, 76, 64
8, 46022, Note_on_c, 2, 64, 55
8, 46030, Note_off_c, 2, 70, 64
8, 46080, Note_off_c, 2, 64, 64
8, 46266, Note_on_c, 2, 85, 104
8, 46312, Note_off_c, 2, 85, 64
8, 46348, Note_on_c, 2, 86, 73
8, 46416, Note_off_c, 2, 86, 64
8, 46514, Note_on_c, 2, 80, 70
8, 46548, Note_off_c, 2, 80, 64
8, 46584, Note_on_c, 2, 74, 49
8, 46648, Note_off_c, 2, 74, 64
8, 46752, Note_on_c, 2, 68, 89
8, 46802, Note_off_c, 2, 68, 64
8, 46816, Note_on_c, 2, 62, 52
8, 46964, Note_off_c, 2, 62, 64
8, 47238, Note_on_c, 2, 43, 43
8, 47256, Note_off_c, 2, 43, 64
8, 47300, Note_on_c, 2, 70, 55
8, 47336, Note_off_c, 2, 70, 64
8, 47342, Note_on_c, 2, 77, 52
8, 47396, Note_on_c, 2, 70, 43
8, 47450, Note_off_c, 2, 77, 64
8, 47462, Note_on_c, 2, 65, 55
8, 47470, Note_off_c, 2, 70, 64
8, 47520, Note_off_c, 2, 65, 64
8, 47718, Note_on_c, 2, 48, 43
8, 47736, Note_off_c, 2, 48, 64
8, 47780, Note_on_c, 2, 70, 55
8, 47816, Note_off_c, 2, 70, 64
8, 47822, Note_on_c, 2, 76, 52
8, 47876, Note_on_c, 2, 70, 43
8, 47930, Note_off_c, 2, 76, 64
8, 47942, Note_on_c, 2, 64, 55
8, 47950, Note_off_c, 2, 70, 64
8, 48000, Note_off_c, 2, 64, 64
8, 48006, Note_on_c, 2, 41, 38
8, 48008, Note_on_c, 2, 56, 51
8, 48010, Note_on_c, 2, 53, 48
8, 48018, Note_on_c, 2, 63, 51
8, 48040, Note_off_c, 2, 41, 64
8, 48050, Note_off_c, 2, 56, 64
8, 48052, Note_off_c, 2, 63, 64
8, 48056, Note_off_c, 2, 53, 64
8, 48482, Note_on_c, 2, 40, 56
8, 48570, Note_off_c, 2, 40, 64
8, 48664, Note_on_c, 2, 70, 75
8, 48670, Note_on_c, 2, 76, 72
8, 48670, Note_on_c, 2, 84, 64
8, 48704, Note_off_c, 2, 76, 64
8, 48714, Note_off_c, 2, 84, 64
8, 48718, Note_off_c, 2, 70, 64
8, 49158, Note_on_c, 2, 39, 43
8, 49176, Note_off_c, 2, 39, 64
8, 49220, Note_on_c, 2, 72, 55
8, 49256, Note_off_c, 2, 72, 64
8, 49262, Note_on_c, 2, 78, 52
8, 49316, Note_on_c, 2, 72, 43
8, 49370, Note_off_c, 2, 78, 64
8, 49382, Note_on_c, 2, 66, 55
8, 49390, Note_off_c, 2, 72, 64
8, 49440, Note_off_c, 2, 66, 64
8, 49456, Note_on_c, 2, 80, 69
8, 49464, Note_on_c, 2, 38, 58
8, 49466, Note_on_c, 2, 84, 51
8, 49466, Note_on_c, 2, 54, 48
8, 49520, Note_off_c, 2, 80, 64
8, 49532, Note_on_c, 2, 81, 44
8, 49920, Note_off_c, 2, 81, 64
8, 49920, Note_off_c, 2, 54, 64
8, 49920, Note_off_c, 2, 84, 64
8, 49920, Note_off_c, 2, 38, 64
8, 49932, Note_on_c, 2, 92, 45
8, 49934, Note_on_c, 2, 60, 32
8, 49934, Note_on_c, 2, 80, 35
8, 49936, Note_on_c, 2, 86, 31
8, 49938, Note_on_c, 2, 53, 52
8, 49978, Note_off_c, 2, 86, 64
8, 49994, Note_on_c, 2, 87, 55
8, 50008, Note_off_c, 2, 80, 64
8, 50050, Note_off_c, 2, 53, 64
8, 50050, Note_off_c, 2, 60, 64
8, 50058, Note_off_c, 2, 92, 64
8, 50078, Note_off_c, 2, 87, 64
8, 50108, Note_on_c, 2, 92, 55
8, 50114, Note_on_c, 2, 87, 74
8, 50116, Note_on_c, 2, 60, 59
8, 50116, Note_on_c, 2, 80, 55
8, 50120, Note_on_c, 2, 53, 60
8, 50158, Note_off_c, 2, 87, 64
8, 50168, Note_off_c, 2, 80, 64
8, 50172, Note_off_c, 2, 53, 64
8, 50172, Note_off_c, 2, 60, 64
8, 50184, Note_off_c, 2, 92, 64
8, 50408, Note_on_c, 2, 75, 87
8, 50408, Note_on_c, 2, 72, 90
8, 50412, Note_on_c, 2, 43, 74
8, 50528, Note_off_c, 2, 43, 64
8, 50542, Note_off_c, 2, 75, 64
8, 50544, Note_off_c, 2, 72, 64
8, 50590, Note_on_c, 2, 72, 43
8, 50596, Note_on_c, 2, 75, 43
8, 50596, Note_on_c, 2, 43, 42
8, 50618, Note_off_c, 2, 72, 64
8, 50628, Note_off_c, 2, 75, 64
8, 50632, Note_off_c, 2, 43, 64
8, 50886, Note_on_c, 2, 34, 38
8, 50888, Note_on_c, 2, 58, 51
8, 50890, Note_on_c, 2, 53, 48
8, 50898, Note_on_c, 2, 61, 51
8, 50920, Note_off_c, 2, 34, 64
8, 50930, Note_off_c, 2, 58, 64
8, 50932, Note_off_c, 2, 61, 64
8, 50936, Note_off_c, 2, 53, 64
8, 51362, Note_on_c, 2, 77, 52
8, 51364, Note_on_c, 2, 82, 32
8, 51402, Note_off_c, 2, 77, 64
8, 51404, Note_off_c, 2, 82, 64
8, 51600, Note_on_c, 2, 65, 39
8, 51608, Note_on_c, 2, 68, 31
8, 51608, Note_on_c, 2, 73, 36
8, 51610, Note_on_c, 2, 70, 33
8, 51614, Note_on_c, 2, 82, 38
8, 51618, Note_on_c, 2, 77, 39
8, 51654, Note_off_c, 2, 73, 64
8, 51654, Note_off_c, 2, 65, 64
8, 51662, Note_off_c, 2, 68, 64
8, 51664, Note_off_c, 2, 77, 64
8, 51664, Note_off_c, 2, 82, 64
8, 51664, Note_off_c, 2, 70, 64
8, 51846, Note_on_c, 2, 43, 59
8, 51848, Note_on_c, 2, 73, 67
8, 51848, Note_on_c, 2, 67, 68
8, 51850, Note_on_c, 2, 65, 64
8, 51900, Note_off_c, 2, 67, 64
8, 51900, Note_off_c, 2, 43, 64
8, 51908, Note_off_c, 2, 65, 64
8, 51924, Note_off_c, 2, 73, 64
8, 52340, Note_on_c, 2, 61, 49
8, 52344, Note_on_c, 2, 53, 54
8, 52344, Note_on_c, 2, 85, 75
8, 52344, Note_on_c, 2, 79, 63
8, 52348, Note_on_c, 2, 73, 67
8, 52404, Note_off_c, 2, 79, 64
8, 52652, Note_off_c, 2, 61, 64
8, 52670, Note_off_c, 2, 53, 64
8, 52708, Note_off_c, 2, 85, 64
8, 52710, Note_off_c, 2, 73, 64
8, 52768, Note_on_c, 2, 53, 30
8, 52800, Note_off_c, 2, 53, 64
8, 52812, Note_on_c, 2, 91, 45
8, 52814, Note_on_c, 2, 58, 32
8, 52814, Note_on_c, 2, 79, 35
8, 52816, Note_on_c, 2, 85, 36
8, 52818, Note_on_c, 2, 52, 52
8, 52858, Note_off_c, 2, 85, 64
8, 52874, Note_on_c, 2, 85, 46
8, 52888, Note_off_c, 2, 79, 64
8, 52930, Note_off_c, 2, 52, 64
8, 52930, Note_off_c, 2, 58, 64
8, 52938, Note_off_c, 2, 91, 64
8, 52958, Note_off_c, 2, 85, 64
8, 52988, Note_on_c, 2, 91, 55
8, 52994, Note_on_c, 2, 85, 74
8, 52996, Note_on_c, 2, 58, 59
8, 52996, Note_on_c, 2, 79, 55
8, 53000, Note_on_c, 2, 52, 60
8, 53038, Note_off_c, 2, 85, 64
8, 53048, Note_off_c, 2, 79, 64
8, 53052, Note_off_c, 2, 52, 64
8, 53052, Note_off_c, 2, 58, 64
8, 53064, Note_off_c, 2, 91, 64
8, 53762, Note_on_c, 2, 79, 52
8, 53764, Note_on_c, 2, 84, 32
8, 53802, Note_off_c, 2, 79, 64
8, 53804, Note_off_c, 2, 84, 64
8, 54000, Note_on_c, 2, 67, 39
8, 54008, Note_on_c, 2, 69, 31
8, 54008, Note_on_c, 2, 76, 36
8, 54010, Note_on_c, 2, 72, 33
8, 54014, Note_on_c, 2, 84, 38
8, 54018, Note_on_c, 2, 79, 39
8, 54054, Note_off_c, 2, 76, 64
8, 54054, Note_off_c, 2, 67, 64
8, 54062, Note_off_c, 2, 69, 64
8, 54064, Note_off_c, 2, 79, 64
8, 54064, Note_off_c, 2, 84, 64
8, 54064, Note_off_c, 2, 72, 64
8, 54250, Note_on_c, 2, 69, 23
8, 54254, Note_on_c, 2, 67, 30
8, 54256, Note_on_c, 2, 76, 19
8, 54258, Note_on_c, 2, 72, 19
8, 54262, Note_on_c, 2, 79, 40
8, 54262, Note_on_c, 2, 84, 23
8, 54362, Note_off_c, 2, 67, 64
8, 54366, Note_off_c, 2, 72, 64
8, 54366, Note_off_c, 2, 69, 64
8, 54372, Note_off_c, 2, 84, 64
8, 54372, Note_off_c, 2, 79, 64
8, 54372, Note_off_c, 2, 76, 64
8, 54428, Note_on_c, 2, 72, 51
8, 54428, Note_on_c, 2, 67, 51
8, 54428, Note_on_c, 2, 69, 41
8, 54430, Note_on_c, 2, 79, 45
8, 54430, Note_on_c, 2, 76, 47
8, 54438, Note_on_c, 2, 84, 26
8, 54464, Note_off_c, 2, 76, 64
8, 54466, Note_off_c, 2, 72, 64
8, 54468, Note_off_c, 2, 69, 64
8, 54468, Note_off_c, 2, 67, 64
8, 54476, Note_off_c, 2, 84, 64
8, 54476, Note_off_c, 2, 79, 64
8, 54728, Note_on_c, 2, 72, 87
8, 54728, Note_on_c, 2, 70, 90
8, 54732, Note_on_c, 2, 43, 74
8, 54848, Note_off_c, 2, 43, 64
8, 54862, Note_off_c, 2, 72, 64
8, 54864, Note_off_c, 2, 70, 64
8, 54910, Note_on_c, 2, 70, 43
8, 54916, Note_on_c, 2, 72, 43
8, 54916, Note_on_c, 2, 43, 42
8, 54938, Note_off_c, 2, 70, 64
8, 54948, Note_off_c, 2, 72, 64
8, 54952, Note_off_c, 2, 43, 64
8, 55212, Note_on_c, 2, 89, 45
8, 55214, Note_on_c, 2, 57, 32
8, 55214, Note_on_c, 2, 77, 35
8, 55216, Note_on_c, 2, 85, 31
8, 55218, Note_on_c, 2, 51, 52
8, 55258, Note_off_c, 2, 85, 64
8, 55274, Note_on_c, 2, 86, 55
8, 55288, Note_off_c, 2, 77, 64
8, 55330, Note_off_c, 2, 51, 64
8, 55330, Note_off_c, 2, 57, 64
8, 55338, Note_off_c, 2, 89, 64
8, 55358, Note_off_c, 2, 86, 64
8, 55388, Note_on_c, 2, 89, 55
8, 55394, Note_on_c, 2, 86, 74
8, 55396, Note_on_c, 2, 57, 59
8, 55396, Note_on_c, 2, 77, 55
8, 55400, Note_on_c, 2, 51, 60
8, 55438, Note_off_c, 2, 86, 64
8, 55448, Note_off_c, 2, 77, 64
8, 55452, Note_off_c, 2, 51, 64
8, 55452, Note_off_c, 2, 57, 64
8, 55464, Note_off_c, 2, 89, 64
8, 55866, Note_on_c, 2, 78, 104
8, 55912, Note_off_c, 2, 78, 64
8, 55948, Note_on_c, 2, 79, 73
8, 56016, Note_off_c, 2, 79, 64
8, 56114, Note_on_c, 2, 73, 70
8, 56148, Note_off_c, 2, 73, 64
8, 56184, Note_on_c, 2, 67, 49
8, 56248, Note_off_c, 2, 67, 64
8, 56352, Note_on_c, 2, 61, 89
8, 56402, Note_off_c, 2, 61, 64
8, 56416, Note_on_c, 2, 55, 52
8, 56564, Note_off_c, 2, 55, 64
8, 56838, Note_on_c, 2, 43, 43
8, 56856, Note_off_c, 2, 43, 64
8, 56900, Note_on_c, 2, 70, 55
8, 56936, Note_off_c, 2, 70, 64
8, 56942, Note_on_c, 2, 77, 52
8, 56996, Note_on_c, 2, 70, 43
8, 57050, Note_off_c, 2, 77, 64
8, 57062, Note_on_c, 2, 65, 55
8, 57070, Note_off_c, 2, 70, 64
8, 57120, Note_off_c, 2, 65, 64
8, 57122, Note_on_c, 2, 36, 56
8, 57210, Note_off_c, 2, 36, 64
8, 57304, Note_on_c, 2, 70, 75
8, 57310, Note_on_c, 2, 76, 72
8, 57310, Note_on_c, 2, 84, 64
8, 57344, Note_off_c, 2, 76, 64
8, 57354, Note_off_c, 2, 84, 64
8, 57358, Note_off_c, 2, 70, 64
8, 57612, Note_on_c, 2, 88, 45
8, 57614, Note_on_c, 2, 55, 32
8, 57614, Note_on_c, 2, 76, 35
8, 57616, Note_on_c, 2, 82, 36
8, 57618, Note_on_c, 2, 48, 52
8, 57658, Note_off_c, 2, 82, 64
8, 57674, Note_on_c, 2, 83, 46
8, 57688, Note_off_c, 2, 76, 64
8, 57730, Note_off_c, 2, 48, 64
8, 57730, Note_off_c, 2, 55, 64
8, 57738, Note_off_c, 2, 88, 64
8, 57758, Note_off_c, 2, 83, 64
8, 57788, Note_on_c, 2, 88, 55
8, 57794, Note_on_c, 2, 83, 74
8, 57796, Note_on_c, 2, 55, 59
8, 57796, Note_on_c, 2, 76, 55
8, 57800, Note_on_c, 2, 48, 60
8, 57838, Note_off_c, 2, 83, 64
8, 57848, Note_off_c, 2, 76, 64
8, 57852, Note_off_c, 2, 48, 64
8, 57852, Note_off_c, 2, 55, 64
8, 57864, Note_off_c, 2, 88, 64
8, 58566, Note_on_c, 2, 44, 38
8, 58568, Note_on_c, 2, 59, 51
8, 58570, Note_on_c, 2, 56, 48
8, 58578, Note_on_c, 2, 65, 51
8, 58600, Note_off_c, 2, 44, 64
8, 58610, Note_off_c, 2, 59, 64
8, 58612, Note_off_c, 2, 65, 64
8, 58616, Note_off_c, 2, 56, 64
8, 59538, Note_on_c, 2, 64, 45
8, 59542, Note_on_c, 2, 67, 63
8, 59582, Note_off_c, 2, 64, 64
8, 59582, Note_on_c, 2, 65, 54
8, 59672, Note_off_c, 2, 67, 64
8, 59680, Note_off_c, 2, 65, 64
8, 59710, Note_on_c, 2, 38, 53
8, 60480, Note_off_c, 2, 38, 64
8, 60488, Note_on_c, 2, 74, 87
8, 60488, Note_on_c, 2, 70, 90
8, 60492, Note_on_c, 2, 43, 74
8, 60608, Note_off_c, 2, 43, 64
8, 60622, Note_off_c, 2, 74, 64
8, 60624, Note_off_c, 2, 70, 64
8, 60670, Note_on_c, 2, 70, 43
8, 60676, Note_on_c, 2, 74, 43
8, 60676, Note_on_c, 2, 43, 42
8, 60698, Note_off_c, 2, 70, 64
8, 60708, Note_off_c, 2, 74, 64
8, 60712, Note_off_c, 2, 43, 64
8, 60982, Note_on_c, 2, 76, 67
8, 61108, Note_off_c, 2, 76, 64
8, 61136, Note_on_c, 2, 48, 50
8, 61190, Note_off_c, 2, 48, 64
8, 61212, Note_on_c, 2, 84, 67
8, 61212, Note_on_c, 2, 72, 63
8, 61296, Note_off_c, 2, 84, 64
8, 61334, Note_off_c, 2, 72, 64
8, 61456, Note_on_c, 2, 74, 69
8, 61464, Note_on_c, 2, 41, 36
8, 61466, Note_on_c, 2, 62, 37
8, 61466, Note_on_c, 2, 81, 51
8, 61520, Note_off_c, 2, 74, 64
8, 61532, Note_on_c, 2, 74, 44
8, 62318, Note_off_c, 2, 81, 64
8, 62328, Note_off_c, 2, 74, 64
8, 62350, Note_off_c, 2, 41, 64
8, 62400, Note_off_c, 2, 62, 64
8, 62408, Note_on_c, 2, 73, 87
8, 62408, Note_on_c, 2, 70, 90
8, 62412, Note_on_c, 2, 37, 74
8, 62528, Note_off_c, 2, 37, 64
8, 62542, Note_off_c, 2, 73, 64
8, 62544, Note_off_c, 2, 70, 64
8, 62590, Note_on_c, 2, 70, 43
8, 62596, Note_on_c, 2, 73, 43
8, 62596, Note_on_c, 2, 37, 42
8, 62618, Note_off_c, 2, 70, 64
8, 62628, Note_off_c, 2, 73, 64
8, 62632, Note_off_c, 2, 37, 64
8, 62896, Note_on_c, 2, 78, 69
8, 62904, Note_on_c, 2, 36, 58
8, 62906, Note_on_c, 2, 82, 51
8, 62906, Note_on_c, 2, 52, 48
8, 62960, Note_off_c, 2, 78, 64
8, 62972, Note_on_c, 2, 79, 44
8, 63360, Note_off_c, 2, 79, 64
8, 63360, Note_off_c, 2, 52, 64
8, 63360, Note_off_c, 2, 82, 64
8, 63360, Note_off_c, 2, 36, 64
8, 63382, Note_on_c, 2, 77, 67
8, 63508, Note_off_c, 2, 77, 64
8, 63536, Note_on_c, 2, 41, 50
8, 63590, Note_off_c, 2, 41, 64
8, 63612, Note_on_c, 2, 89, 67
8, 63612, Note_on_c, 2, 77, 63
8, 63696, Note_off_c, 2, 89, 64
8, 63734, Note_off_c, 2, 77, 64
8, 63842, Note_on_c, 2, 79, 52
8, 63844, Note_on_c, 2, 84, 32
8, 63882, Note_off_c, 2, 79, 64
8, 63884, Note_off_c, 2, 84, 64
8, 64080, Note_on_c, 2, 67, 39
8, 64088, Note_on_c, 2, 70, 31
8, 64088, Note_on_c, 2, 76, 36
8, 64090, Note_on_c, 2, 72, 33
8, 64094, Note_on_c, 2, 84, 38
8, 64098, Note_on_c, 2, 79, 39
8, 64134, Note_off_c, 2, 76, 64
8, 64134, Note_off_c, 2, 67, 64
8, 64142, Note_off_c, 2, 70, 64
8, 64144, Note_off_c, 2, 79, 64
8, 64144, Note_off_c, 2, 84, 64
8, 64144, Note_off_c, 2, 72, 64
8, 64340, Note_on_c, 2, 87, 62
8, 64340, Note_on_c, 2, 75, 57
8, 64340, Note_on_c, 2, 78, 41
8, 64346, Note_on_c, 2, 68, 50
8, 64374, Note_off_c, 2, 78, 64
8, 64386, Note_off_c, 2, 87, 64
8, 64388, Note_off_c, 2, 68, 64
8, 64388, Note_off_c, 2, 75, 64
8, 64802, Note_on_c, 2, 38, 56
8, 64890, Note_off_c, 2, 38, 64
8, 64984, Note_on_c, 2, 72, 75
8, 64990, Note_on_c, 2, 78, 72
8, 64990, Note_on_c, 2, 86, 64
8, 65024, Note_off_c, 2, 78, 64
8, 65034, Note_off_c, 2, 86, 64
8, 65038, Note_off_c, 2, 72, 64
8, 65286, Note_on_c, 2, 37, 38
8, 65288, Note_on_c, 2, 60, 51
8, 65290, Note_on_c, 2, 56, 48
8, 65298, Note_on_c, 2, 65, 51
8, 65320, Note_off_c, 2, 37, 64
8, 65330, Note_off_c, 2, 60, 64
8, 65332, Note_off_c, 2, 65, 64
8, 65336, Note_off_c, 2, 56, 64
8, 65772, Note_on_c, 2, 91, 45
8, 65774, Note_on_c, 2, 58, 32
8, 65774, Note_on_c, 2, 79, 35
8, 65776, Note_on_c, 2, 85, 31
8, 65778, Note_on_c, 2, 51, 52
8, 65818, Note_off_c, 2, 85, 64
8, 65834, Note_on_c, 2, 86, 55
8, 65848, Note_off_c, 2, 79, 64
8, 65890, Note_off_c, 2, 51, 64
8, 65890, Note_off_c, 2, 58, 64
8, 65898, Note_off_c, 2, 91, 64
8, 65918, Note_off_c, 2, 86, 64
8, 65948, Note_on_c, 2, 91, 55
8, 65954, Note_on_c, 2, 86, 74
8, 65956, Note_on_c, 2, 58, 59
8, 65956, Note_on_c, 2, 79, 55
8, 65960, Note_on_c, 2, 51, 60
8, 65998, Note_off_c, 2, 86, 64
8, 66008, Note_off_c, 2, 79, 64
8, 66012, Note_off_c, 2, 51, 64
8, 66012, Note_off_c, 2, 58, 64
8, 66024, Note_off_c, 2, 91, 64
8, 66262, Note_on_c, 2, 73, 67
8, 66388, Note_off_c, 2, 73, 64
8, 66416, Note_on_c, 2, 46, 50
8, 66470, Note_off_c, 2, 46, 64
8, 66492, Note_on_c, 2, 85, 67
8, 66492, Note_on_c, 2, 73, 63
8, 66576, Note_off_c, 2, 85, 64
8, 66614, Note_off_c, 2, 73, 64
8, 66722, Note_on_c, 2, 34, 56
8, 66810, Note_off_c, 2, 34, 64
8, 66904, Note_on_c, 2, 68, 75
8, 66910, Note_on_c, 2, 73, 72
8, 66910, Note_on_c, 2, 82, 64
8, 66944, Note_off_c, 2, 73, 64
8, 66954, Note_off_c, 2, 82, 64
8, 66958, Note_off_c, 2, 68, 64
8, 67202, Note_on_c, 2, 53, 40
8, 67202, Note_on_c, 2, 65, 49
8, 67212, Note_on_c, 2, 43, 45
8, 67214, Note_on_c, 2, 58, 46
8, 67216, Note_on_c, 2, 55, 50
8, 67248, Note_off_c, 2, 58, 64
8, 67258, Note_off_c, 2, 55, 64
8, 67262, Note_off_c, 2, 43, 64
8, 67262, Note_off_c, 2, 65, 64
8, 67262, Note_off_c, 2, 53, 64
8, 67688, Note_on_c, 2, 77, 72
8, 67688, Note_on_c, 2, 79, 73
8, 67696, Note_on_c, 2, 73, 73
8, 67696, Note_on_c, 2, 85, 75
8, 67698, Note_on_c, 2, 70, 54
8, 67720, Note_off_c, 2, 73, 64
8, 67720, Note_off_c, 2, 77, 64
8, 67728, Note_off_c, 2, 85, 64
8, 67732, Note_off_c, 2, 70, 64
8, 67732, Note_off_c, 2, 79, 64
8, 68166, Note_on_c, 2, 36, 38
8, 68168, Note_on_c, 2, 58, 51
8, 68170, Note_on_c, 2, 55, 48
8, 68178, Note_on_c, 2, 64, 51
8, 68200, Note_off_c, 2, 36, 64
8, 68210, Note_off_c, 2, 58, 64
8, 68212, Note_off_c, 2, 64, 64
8, 68216, Note_off_c, 2, 55, 64
8, 69126, Note_on_c, 2, 41, 38
8, 69128, Note_on_c, 2, 57, 51
8, 69130, Note_on_c, 2, 53, 48
8, 69138, Note_on_c, 2, 64, 51
8, 69160, Note_off_c, 2, 41, 64
8, 69170, Note_off_c, 2, 57, 64
8, 69172, Note_off_c, 2, 64, 64
8, 69176, Note_off_c, 2, 53, 64
8, 70082, Note_on_c, 2, 36, 56
8, 70170, Note_off_c, 2, 36, 64
8, 70264, Note_on_c, 2, 70, 75
8, 70270, Note_on_c, 2, 75, 72
8, 70270, Note_on_c, 2, 84, 64
8, 70304, Note_off_c, 2, 75, 64
8, 70314, Note_off_c, 2, 84, 64
8, 70318, Note_off_c, 2, 70, 64
8, 70758, Note_on_c, 2, 41, 43
8, 70776, Note_off_c, 2, 41, 64
8, 70820, Note_on_c, 2, 69, 55
8, 70856, Note_off_c, 2, 69, 64
8, 70862, Note_on_c, 2, 75, 52
8, 70916, Note_on_c, 2, 69, 43
8, 70970, Note_off_c, 2, 75, 64
8, 70982, Note_on_c, 2, 63, 55
8, 70990, Note_off_c, 2, 69, 64
8, 71040, Note_off_c, 2, 63, 64
8, 71052, Note_on_c, 2, 89, 45
8, 71054, Note_on_c, 2, 56, 32
8, 71054, Note_on_c, 2, 77, 35
8, 71056, Note_on_c, 2, 83, 36
8, 71058, Note_on_c, 2, 49, 52
8, 71098, Note_off_c, 2, 83, 64
8, 71114, Note_on_c, 2, 84, 46
8, 71128, Note_off_c, 2, 77, 64
8, 71170, Note_off_c, 2, 49, 64
8, 71170, Note_off_c, 2, 56, 64
8, 71178, Note_off_c, 2, 89, 64
8, 71198, Note_off_c, 2, 84, 64
8, 71228, Note_on_c, 2, 89, 55
8, 71234, Note_on_c, 2, 84, 74
8, 71236, Note_on_c, 2, 56, 59
8, 71236, Note_on_c, 2, 77, 55
8, 71240, Note_on_c, 2, 49, 60
8, 71278, Note_off_c, 2, 84, 64
8, 71288, Note_off_c, 2, 77, 64
8, 71292, Note_off_c, 2, 49, 64
8, 71292, Note_off_c, 2, 56, 64
8, 71304, Note_off_c, 2, 89, 64
8, 72002, Note_on_c, 2, 55, 40
8, 72002, Note_on_c, 2, 67, 49
8, 72012, Note_on_c, 2, 39, 45
8, 72014, Note_on_c, 2, 61, 46
8, 72016, Note_on_c, 2, 58, 50
8, 72048, Note_off_c, 2, 61, 64
8, 72058, Note_off_c, 2, 58, 64
8, 72062, Note_off_c, 2, 39, 64
8, 72062, Note_off_c, 2, 67, 64
8, 72062, Note_off_c, 2, 55, 64
8, 72488, Note_on_c, 2, 79, 72
8, 72488, Note_on_c, 2, 82, 73
8, 72496, Note_on_c, 2, 75, 73
8, 72496, Note_on_c, 2, 87, 75
8, 72498, Note_on_c, 2, 73, 54
8, 72520, Note_off_c, 2, 75, 64
8, 72520, Note_off_c, 2, 79, 64
8, 72528, Note_off_c, 2, 87, 64
8, 72532, Note_off_c, 2, 73, 64
8, 72532, Note_off_c, 2, 82, 64
8, 72978, Note_on_c, 2, 65, 45
8, 72982, Note_on_c, 2, 70, 63
8, 73022, Note_off_c, 2, 65, 64
8, 73022, Note_on_c, 2, 67, 54
8, 73112, Note_off_c, 2, 70, 64
8, 73120, Note_off_c, 2, 67, 64
8, 73150, Note_on_c, 2, 39, 53
8, 73920, Note_off_c, 2, 39, 64
8, 73940, Note_on_c, 2, 65, 42
8, 73944, Note_on_c, 2, 73, 37
8, 74070, Note_off_c, 2, 65, 64
8, 74078, Note_off_c, 2, 73, 64
8, 74170, Note_on_c, 2, 66, 59
8, 74170, Note_on_c, 2, 73, 62
8, 74312, Note_off_c, 2, 66, 64
8, 74318, Note_off_c, 2, 73, 64
8, 74340, Note_on_c, 2, 56, 60
8, 74396, Note_off_c, 2, 56, 64
8, 74406, Note_on_c, 2, 73, 50
8, 74410, Note_on_c, 2, 67, 65
8, 74538, Note_off_c, 2, 73, 64
8, 74544, Note_off_c, 2, 67, 64
8, 74584, Note_on_c, 2, 73, 51
8, 74584, Note_on_c, 2, 68, 65
8, 74638, Note_off_c, 2, 68, 64
8, 74644, Note_off_c, 2, 73, 64
8, 75068, Note_on_c, 2, 73, 82
8, 75150, Note_off_c, 2, 73, 64
8, 75286, Note_on_c, 2, 67, 49
8, 75344, Note_off_c, 2, 67, 64
8, 75360, Note_on_c, 2, 73, 68
8, 75510, Note_off_c, 2, 73, 64
8, 75790, Note_on_c, 2, 67, 47
8, 75840, Note_off_c, 2, 67, 64
8, 75848, Note_on_c, 2, 74, 87
8, 75848, Note_on_c, 2, 70, 90
8, 75852, Note_on_c, 2, 43, 74
8, 75968, Note_off_c, 2, 43, 64
8, 75982, Note_off_c, 2, 74, 64
8, 75984, Note_off_c, 2, 70, 64
8, 76030, Note_on_c, 2, 70, 43
8, 76036, Note_on_c, 2, 74, 43
8, 76036, Note_on_c, 2, 43, 42
8, 76058, Note_off_c, 2, 70, 64
8, 76068, Note_off_c, 2, 74, 64
8, 76072, Note_off_c, 2, 43, 64
8, 76328, Note_on_c, 2, 72, 87
8, 76328, Note_on_c, 2, 70, 90
8, 76332, Note_on_c, 2, 43, 74
8, 76448, Note_off_c, 2, 43, 64
8, 76462, Note_off_c, 2, 72, 64
8, 76464, Note_off_c, 2, 70, 64
8, 76510, Note_on_c, 2, 70, 43
8, 76516, Note_on_c, 2, 72, 43
8, 76516, Note_on_c, 2, 43, 42
8, 76538, Note_off_c, 2, 70, 64
8, 76548, Note_off_c, 2, 72, 64
8, 76552, Note_off_c, 2, 43, 64
8, 76986, Note_on_c, 2, 84, 76
8, 77048, Note_off_c, 2, 84, 64
8, 77058, Note_on_c, 2, 79, 26
8, 77148, Note_off_c, 2, 79, 64
8, 77296, Note_on_c, 2, 67, 56
8, 77302, Note_on_c, 2, 84, 63
8, 77302, Note_on_c, 2, 69, 58
8, 77302, Note_on_c, 2, 76, 67
8, 77340, Note_off_c, 2, 76, 64
8, 77348, Note_off_c, 2, 67, 64
8, 77354, Note_off_c, 2, 69, 64
8, 77360, Note_off_c, 2, 84, 64
8, 77762, Note_on_c, 2, 79, 52
8, 77764, Note_on_c, 2, 85, 32
8, 77802, Note_off_c, 2, 79, 64
8, 77804, Note_off_c, 2, 85, 64
8, 78000, Note_on_c, 2, 67, 39
8, 78008, Note_on_c, 2, 70, 31
8, 78008, Note_on_c, 2, 77, 36
8, 78010, Note_on_c, 2, 73, 33
8, 78014, Note_on_c, 2, 85, 38
8, 78018, Note_on_c, 2, 79, 39
8, 78054, Note_off_c, 2, 77, 64
8, 78054, Note_off_c, 2, 67, 64
8, 78062, Note_off_c, 2, 70, 64
8, 78064, Note_off_c, 2, 79, 64
8, 78064, Note_off_c, 2, 85, 64
8, 78064, Note_off_c, 2, 73, 64
8, 78256, Note_on_c, 2, 78, 69
8, 78264, Note_on_c, 2, 36, 58
8, 78266, Note_on_c, 2, 82, 51
8, 78266, Note_on_c, 2, 52, 48
8, 78320, Note_off_c, 2, 78, 64
8, 78332, Note_on_c, 2, 79, 44
8, 78720, Note_off_c, 2, 79, 64
8, 78720, Note_off_c, 2, 52, 64
8, 78720, Note_off_c, 2, 82, 64
8, 78720, Note_off_c, 2, 36, 64
8, 78728, Note_on_c, 2, 77, 87
8, 78728, Note_on_c, 2, 75, 90
8, 78732, Note_on_c, 2, 48, 74
8, 78848, Note_off_c, 2, 48, 64
8, 78862, Note_off_c, 2, 77, 64
8, 78864, Note_off_c, 2, 75, 64
8, 78910, Note_on_c, 2, 75, 43
8, 78916, Note_on_c, 2, 77, 43
8, 78916, Note_on_c, 2, 48, 42
8, 78938, Note_off_c, 2, 75, 64
8, 78948, Note_off_c, 2, 77, 64
8, 78952, Note_off_c, 2, 48, 64
8, 79220, Note_on_c, 2, 84, 62
8, 79220, Note_on_c, 2, 72, 57
8, 79220, Note_on_c, 2, 76, 41
8, 79226, Note_on_c, 2, 67, 50
8, 79254, Note_off_c, 2, 76, 64
8, 79266, Note_off_c, 2, 84, 64
8, 79268, Note_off_c, 2, 67, 64
8, 79268, Note_off_c, 2, 72, 64
8, 79686, Note_on_c, 2, 39, 38
8, 79688, Note_on_c, 2, 60, 51
8, 79690, Note_on_c, 2, 56, 48
8, 79698, Note_on_c, 2, 66, 51
8, 79720, Note_off_c, 2, 39, 64
8, 79730, Note_off_c, 2, 60, 64
8, 79732, Note_off_c, 2, 66, 64
8, 79736, Note_off_c, 2, 56, 64
8, 80358, Note_on_c, 2, 50, 43
8, 80376, Note_off_c, 2, 50, 64
8, 80420, Note_on_c, 2, 72, 55
8, 80456, Note_off_c, 2, 72, 64
8, 80462, Note_on_c, 2, 78, 52
8, 80516, Note_on_c, 2, 72, 43
8, 80570, Note_off_c, 2, 78, 64
8, 80582, Note_on_c, 2, 66, 55
8, 80590, Note_off_c, 2, 72, 64
8, 80640, Note_off_c, 2, 66, 64
8, 80838, Note_on_c, 2, 49, 43
8, 80856, Note_off_c, 2, 49, 64
8, 80900, Note_on_c, 2, 72, 55
8, 80936, Note_off_c, 2, 72, 64
8, 80942, Note_on_c, 2, 77, 52
8, 80996, Note_on_c, 2, 72, 43
8, 81050, Note_off_c, 2, 77, 64
8, 81062, Note_on_c, 2, 65, 55
8, 81070, Note_off_c, 2, 72, 64
8, 81120, Note_off_c, 2, 65, 64
8, 81128, Note_on_c, 2, 75, 87
8, 81128, Note_on_c, 2, 72, 90
8, 81132, Note_on_c, 2, 43, 74
8, 81248, Note_off_c, 2, 43, 64
8, 81262, Note_off_c, 2, 75, 64
8, 81264, Note_off_c, 2, 72, 64
8, 81310, Note_on_c, 2, 72, 43
8, 81316, Note_on_c, 2, 75, 43
8, 81316, Note_on_c, 2, 43, 42
8, 81338, Note_off_c, 2, 72, 64
8, 81348, Note_off_c, 2, 75, 64
8, 81352, Note_off_c, 2, 43, 64
8, 81616, Note_on_c, 2, 76, 69
8, 81624, Note_on_c, 2, 34, 58
8, 81626, Note_on_c, 2, 49, 48
8, 81626, Note_on_c, 2, 82, 51
8, 81680, Note_off_c, 2, 76, 64
8, 81692, Note_on_c, 2, 77, 44
8, 82080, Note_off_c, 2, 77, 64
8, 82080, Note_off_c, 2, 82, 64
8, 82080, Note_off_c, 2, 49, 64
8, 82080, Note_off_c, 2, 34, 64
8, 82278, Note_on_c, 2, 46, 43
8, 82296, Note_off_c, 2, 46, 64
8, 82340, Note_on_c, 2, 68, 55
8, 82376, Note_off_c, 2, 68, 64
8, 82382, Note_on_c, 2, 73, 52
8, 82436, Note_on_c, 2, 68, 43
8, 82490, Note_off_c, 2, 73, 64
8, 82502, Note_on_c, 2, 61, 55
8, 82510, Note_off_c, 2, 68, 64
8, 82560, Note_off_c, 2, 61, 64
8, 82576, Note_on_c, 2, 76, 69
8, 82584, Note_on_c, 2, 43, 36
8, 82586, Note_on_c, 2, 65, 37
8, 82586, Note_on_c, 2, 82, 51
8, 82640, Note_off_c, 2, 76, 64
8, 82652, Note_on_c, 2, 77, 44
8, 83438, Note_off_c, 2, 82, 64
8, 83448, Note_off_c, 2, 77, 64
8, 83470, Note_off_c, 2, 43, 64
8, 83520, Note_off_c, 2, 65, 64
8, 83708, Note_on_c, 2, 73, 82
8, 83790, Note_off_c, 2, 73, 64
8, 83926, Note_on_c, 2, 67, 49
8, 83984, Note_off_c, 2, 67, 64
8, 84000, Note_on_c, 2, 73, 68
8, 84150, Note_off_c, 2, 73, 64
8, 84430, Note_on_c, 2, 67, 47
8, 84480, Note_off_c, 2, 67, 64
8, 84486, Note_on_c, 2, 41, 38
8, 84488, Note_on_c, 2, 57, 51
8, 84490, Note_on_c, 2, 53, 48
8, 84498, Note_on_c, 2, 64, 51
8, 84520, Note_off_c, 2, 41, 64
8, 84530, Note_off_c, 2, 57, 64
8, 84532, Note_off_c, 2, 64, 64
8, 84536, Note_off_c, 2, 53, 64
8, 85446, Note_on_c, 2, 36, 38
8, 85448, Note_on_c, 2, 58, 51
8, 85450, Note_on_c, 2, 55, 48
8, 85458, Note_on_c, 2, 63, 51
8, 85480, Note_off_c, 2, 36, 64
8, 85490, Note_off_c, 2, 58, 64
8, 85492, Note_off_c, 2, 63, 64
8, 85496, Note_off_c, 2, 55, 64
8, 85922, Note_on_c, 2, 41, 56
8, 86010, Note_off_c, 2, 41, 64
8, 86104, Note_on_c, 2, 69, 75
8, 86110, Note_on_c, 2, 75, 72
8, 86110, Note_on_c, 2, 84, 64
8, 86144, Note_off_c, 2, 75, 64
8, 86154, Note_off_c, 2, 84, 64
8, 86158, Note_off_c, 2, 69, 64
8, 86588, Note_on_c, 2, 82, 82
8, 86670, Note_off_c, 2, 82, 64
8, 86806, Note_on_c, 2, 77, 49
8, 86864, Note_off_c, 2, 77, 64
8, 86880, Note_on_c, 2, 82, 68
8, 87030, Note_off_c, 2, 82, 64
8, 87310, Note_on_c, 2, 77, 47
8, 87360, Note_off_c, 2, 77, 64
8, 87362, Note_on_c, 2, 79, 52
8, 87364, Note_on_c, 2, 86, 32
8, 87402, Note_off_c, 2, 79, 64
8, 87404, Note_off_c, 2, 86, 64
8, 87600, Note_on_c, 2, 67, 39
8, 87608, Note_on_c, 2, 70, 31
8, 87608, Note_on_c, 2, 77, 36
8, 87610, Note_on_c, 2, 74, 33
8, 87614, Note_on_c, 2, 86, 38
8, 87618, Note_on_c, 2, 79, 39
8, 87654, Note_off_c, 2, 77, 64
8, 87654, Note_off_c, 2, 67, 64
8, 87662, Note_off_c, 2, 70, 64
8, 87664, Note_off_c, 2, 79, 64
8, 87664, Note_off_c, 2, 86, 64
8, 87664, Note_off_c, 2, 74, 64
8, 87848, Note_on_c, 2, 72, 87
8, 87848, Note_on_c, 2, 70, 90
8, 87852, Note_on_c, 2, 43, 74
8, 87968, Note_off_c, 2, 43, 64
8, 87982, Note_off_c, 2, 72, 64
8, 87984, Note_off_c, 2, 70, 64
8, 88030, Note_on_c, 2, 70, 43
8, 88036, Note_on_c, 2, 72, 43
8, 88036, Note_on_c, 2, 43, 42
8, 88058, Note_off_c, 2, 70, 64
8, 88068, Note_off_c, 2, 72, 64
8, 88072, Note_off_c, 2, 43, 64
8, 88506, Note_on_c, 2, 81, 76
8, 88568, Note_off_c, 2, 81, 64
8, 88578, Note_on_c, 2, 76, 26
8, 88668, Note_off_c, 2, 76, 64
8, 88816, Note_on_c, 2, 64, 56
8, 88822, Note_on_c, 2, 81, 63
8, 88822, Note_on_c, 2, 67, 58
8, 88822, Note_on_c, 2, 72, 67
8, 88860, Note_off_c, 2, 72, 64
8, 88868, Note_off_c, 2, 64, 64
8, 88874, Note_off_c, 2, 67, 64
8, 88880, Note_off_c, 2, 81, 64
8, 89282, Note_on_c, 2, 80, 52
8, 89284, Note_on_c, 2, 86, 32
8, 89322, Note_off_c, 2, 80, 64
8, 89324, Note_off_c, 2, 86, 64
8, 89520, Note_on_c, 2, 68, 39
8, 89528, Note_on_c, 2, 71, 31
8, 89528, Note_on_c, 2, 77, 36
8, 89530, Note_on_c, 2, 74, 33
8, 89534, Note_on_c, 2, 86, 38
8, 89538, Note_on_c, 2, 80, 39
8, 89574, Note_off_c, 2, 77, 64
8, 89574, Note_off_c, 2, 68, 64
8, 89582, Note_off_c, 2, 71, 64
8, 89584, Note_off_c, 2, 80, 64
8, 89584, Note_off_c, 2, 86, 64
8, 89584, Note_off_c, 2, 74, 64
8, 89770, Note_on_c, 2, 71, 23
8, 89774, Note_on_c, 2, 68, 30
8, 89776, Note_on_c, 2, 77, 19
8, 89778, Note_on_c, 2, 74, 19
8, 89782, Note_on_c, 2, 80, 40
8, 89782, Note_on_c, 2, 86, 23
8, 89882, Note_off_c, 2, 68, 64
8, 89886, Note_off_c, 2, 74, 64
8, 89886, Note_off_c, 2, 71, 64
8, 89892, Note_off_c, 2, 86, 64
8, 89892, Note_off_c, 2, 80, 64
8, 89892, Note_off_c, 2, 77, 64
8, 89948, Note_on_c, 2, 74, 51
8, 89948, Note_on_c, 2, 68, 51
8, 89948, Note_on_c, 2, 71, 41
8, 89950, Note_on_c, 2, 80, 45
8, 89950, Note_on_c, 2, 77, 47
8, 89958, Note_on_c, 2, 86, 26
8, 89984, Note_off_c, 2, 77, 64
8, 89986, Note_off_c, 2, 74, 64
8, 89988, Note_off_c, 2, 71, 64
8, 89988, Note_off_c, 2, 68, 64
8, 89996, Note_off_c, 2, 86, 64
8, 89996, Note_off_c, 2, 80, 64
8, 90242, Note_on_c, 2, 53, 40
8, 90242, Note_on_c, 2, 65, 49
8, 90252, Note_on_c, 2, 43, 45
8, 90254, Note_on_c, 2, 58, 46
8, 90256, Note_on_c, 2, 55, 50
8, 90288, Note_off_c, 2, 58, 64
8, 90298, Note_off_c, 2, 55, 64
8, 90302, Note_off_c, 2, 43, 64
8, 90302, Note_off_c, 2, 65, 64
8, 90302, Note_off_c, 2, 53, 64
8, 90728, Note_on_c, 2, 77, 72
8, 90728, Note_on_c, 2, 79, 73
8, 90736, Note_on_c, 2, 74, 73
8, 90736, Note_on_c, 2, 86, 75
8, 90738, Note_on_c, 2, 70, 54
8, 90760, Note_off_c, 2, 74, 64
8, 90760, Note_off_c, 2, 77, 64
8, 90768, Note_off_c, 2, 86, 64
8, 90772, Note_off_c, 2, 70, 64
8, 90772, Note_off_c, 2, 79, 64
8, 91202, Note_on_c, 2, 36, 56
8, 91290, Note_off_c, 2, 36, 64
8, 91384, Note_on_c, 2, 70, 75
8, 91390, Note_on_c, 2, 76, 72
8, 91390, Note_on_c, 2, 86, 64
8, 91424, Note_off_c, 2, 76, 64
8, 91434, Note_off_c, 2, 86, 64
8, 91438, Note_off_c, 2, 70, 64
8, 91682, Note_on_c, 2, 36, 56
8, 91770, Note_off_c, 2, 36, 64
8, 91864, Note_on_c, 2, 70, 75
8, 91870, Note_on_c, 2, 76, 72
8, 91870, Note_on_c, 2, 84, 64
8, 91904, Note_off_c, 2, 76, 64
8, 91914, Note_off_c, 2, 84, 64
8, 91918, Note_off_c, 2, 70, 64
8, 92348, Note_on_c, 2, 79, 82
8, 92430, Note_off_c, 2, 79, 64
8, 92566, Note_on_c, 2, 72, 49
8, 92624, Note_off_c, 2, 72, 64
8, 92640, Note_on_c, 2, 79, 68
8, 92790, Note_off_c, 2, 79, 64
8, 93070, Note_on_c, 2, 72, 47
8, 93120, Note_off_c, 2, 72, 64
8, 93126, Note_on_c, 2, 43, 38
8, 93128, Note_on_c, 2, 58, 51
8, 93130, Note_on_c, 2, 55, 48
8, 93138, Note_on_c, 2, 65, 51
8, 93160, Note_off_c, 2, 43, 64
8, 93170, Note_off_c, 2, 58, 64
8, 93172, Note_off_c, 2, 65, 64
8, 93176, Note_off_c, 2, 55, 64
8, 93602, Note_on_c, 2, 79, 52
8, 93604, Note_on_c, 2, 84, 32
8, 93642, Note_off_c, 2, 79, 64
8, 93644, Note_off_c, 2, 84, 64
8, 93840, Note_on_c, 2, 67, 39
8, 93848, Note_on_c, 2, 70, 31
8, 93848, Note_on_c, 2, 76, 36
8, 93850, Note_on_c, 2, 72, 33
8, 93854, Note_on_c, 2, 84, 38
8, 93858, Note_on_c, 2, 79, 39
8, 93894, Note_off_c, 2, 76, 64
8, 93894, Note_off_c, 2, 67, 64
8, 93902, Note_off_c, 2, 70, 64
8, 93904, Note_off_c, 2, 79, 64
8, 93904, Note_off_c, 2, 84, 64
8, 93904, Note_off_c, 2, 72, 64
8, 94086, Note_on_c, 2, 59, 76
8, 94108, Note_on_c, 2, 60, 79
8, 94130, Note_off_c, 2, 59, 64
8, 94272, Note_on_c, 2, 48, 80
8, 94298, Note_off_c, 2, 60, 64
8, 94452, Note_off_c, 2, 48, 64
8, 94588, Note_on_c, 2, 82, 76
8, 94588, Note_on_c, 2, 67, 85
8, 94592, Note_on_c, 2, 91, 76
8, 94668, Note_off_c, 2, 82, 64
8, 94672, Note_off_c, 2, 67, 64
8, 94676, Note_off_c, 2, 91, 64
8, 95050, Note_on_c, 2, 83, 92
8, 95050, Note_on_c, 2, 68, 90
8, 95056, Note_on_c, 2, 91, 76
8, 95116, Note_off_c, 2, 83, 64
8, 95130, Note_off_c, 2, 68, 64
8, 95144, Note_off_c, 2, 91, 64
8, 95452, Note_on_c, 2, 69, 84
8, 95452, Note_on_c, 2, 84, 85
8, 95454, Note_on_c, 2, 91, 76
8, 96000, Note_off_c, 2, 91, 64
8, 96000, Note_off_c, 2, 84, 64
8, 96000, Note_off_c, 2, 69, 64
8, 96000, Control_c, 2, 64, 0
8, 96000, End_track
9, 0, Start_track
9, 0, Title_t, "Melody / Rhodes/Mute trumpet"
9, 0, Program_c, 3, 4
9, 0, Control_c, 3, 7, 100
9, 0, Control_c, 3, 10, 54
9, 0, Control_c, 3, 123, 0
9, 0, Control_c, 3, 91, 40
9, 0, Control_c, 3, 93, 0
9, 1938, Note_on_c, 3, 60, 90
9, 2084, Note_off_c, 3, 60, 64
9, 2130, Note_on_c, 3, 60, 90
9, 2612, Note_off_c, 3, 60, 64
9, 2662, Note_on_c, 3, 60, 95
9, 2862, Note_off_c, 3, 60, 64
9, 2906, Note_on_c, 3, 60, 104
9, 3150, Note_on_c, 3, 63, 114
9, 3176, Note_off_c, 3, 60, 64
9, 3382, Note_on_c, 3, 68, 106
9, 3400, Note_off_c, 3, 63, 64
9, 3624, Note_on_c, 3, 72, 99
9, 3632, Note_off_c, 3, 68, 64
9, 3826, Note_off_c, 3, 72, 64
9, 3880, Note_on_c, 3, 72, 105
9, 4490, Note_off_c, 3, 72, 64
9, 4518, Note_on_c, 3, 70, 110
9, 4646, Note_on_c, 3, 69, 93
9, 4688, Note_off_c, 3, 70, 64
9, 4824, Note_on_c, 3, 70, 109
9, 4840, Note_off_c, 3, 69, 64
9, 5726, Note_off_c, 3, 70, 64
9, 5792, Note_on_c, 3, 60, 102
9, 5916, Note_off_c, 3, 60, 64
9, 5960, Note_on_c, 3, 60, 81
9, 6554, Note_off_c, 3, 60, 64
9, 6654, Note_on_c, 3, 60, 104
9, 6724, Note_off_c, 3, 60, 64
9, 6756, Note_on_c, 3, 60, 102
9, 6964, Note_off_c, 3, 60, 64
9, 6984, Note_on_c, 3, 64, 102
9, 7216, Note_on_c, 3, 67, 94
9, 7220, Note_off_c, 3, 64, 64
9, 7456, Note_on_c, 3, 70, 104
9, 7464, Note_off_c, 3, 67, 64
9, 7692, Note_off_c, 3, 70, 64
9, 7694, Note_on_c, 3, 69, 96
9, 9482, Note_off_c, 3, 69, 64
9, 9532, Note_on_c, 3, 65, 74
9, 9622, Note_on_c, 3, 73, 114
9, 9628, Note_off_c, 3, 65, 64
9, 10292, Note_off_c, 3, 73, 64
9, 10344, Note_on_c, 3, 73, 113
9, 10526, Note_off_c, 3, 73, 64
9, 10588, Note_on_c, 3, 73, 112
9, 10808, Note_on_c, 3, 65, 106
9, 10814, Note_off_c, 3, 73, 64
9, 11032, Note_off_c, 3, 65, 64
9, 11042, Note_on_c, 3, 66, 100
9, 11370, Note_on_c, 3, 67, 105
9, 11380, Note_off_c, 3, 66, 64
9, 11542, Note_off_c, 3, 67, 64
9, 11544, Note_on_c, 3, 72, 108
9, 12178, Note_off_c, 3, 72, 64
9, 12196, Note_on_c, 3, 63, 114
9, 12326, Note_on_c, 3, 64, 106
9, 12376, Note_off_c, 3, 63, 64
9, 12482, Note_off_c, 3, 64, 64
9, 12494, Note_on_c, 3, 65, 106
9, 13130, Note_off_c, 3, 65, 64
9, 13160, Note_on_c, 3, 67, 100
9, 13346, Note_on_c, 3, 68, 108
9, 13362, Note_off_c, 3, 67, 64
9, 13468, Note_off_c, 3, 68, 64
9, 13472, Note_on_c, 3, 70, 113
9, 13718, Note_off_c, 3, 70, 64
9, 13768, Note_on_c, 3, 70, 99
9, 13810, Note_off_c, 3, 70, 64
9, 13854, Note_on_c, 3, 70, 108
9, 13914, Note_off_c, 3, 70, 64
9, 13950, Note_on_c, 3, 70, 87
9, 14208, Note_off_c, 3, 70, 64
9, 14264, Note_on_c, 3, 70, 116
9, 14306, Note_off_c, 3, 70, 64
9, 14340, Note_on_c, 3, 70, 103
9, 14384, Note_off_c, 3, 70, 64
9, 14432, Note_on_c, 3, 70, 105
9, 14634, Note_off_c, 3, 70, 64
9, 14652, Note_on_c, 3, 62, 101
9, 14876, Note_off_c, 3, 62, 64
9, 14888, Note_on_c, 3, 63, 109
9, 15138, Note_on_c, 3, 64, 112
9, 15154, Note_off_c, 3, 63, 64
9, 15372, Note_off_c, 3, 64, 64
9, 15374, Note_on_c, 3, 69, 96
9, 16320, Program_c, 3, 59
9, 16320, Program_c, 3, 59
9, 16504, Note_off_c, 3, 69, 64
9, 17244, Note_on_c, 3, 62, 81
9, 17244, Note_on_c, 3, 63, 72
9, 17266, Note_on_c, 3, 61, 112
9, 17272, Note_off_c, 3, 63, 64
9, 17280, Program_c, 3, 59
9, 17280, Program_c, 3, 59
9, 17286, Note_off_c, 3, 62, 64
9, 17308, Note_on_c, 3, 60, 100
9, 17334, Note_off_c, 3, 61, 64
9, 17470, Note_off_c, 3, 60, 64
9, 17558, Note_on_c, 3, 60, 102
9, 18072, Note_off_c, 3, 60, 64
9, 18104, Note_on_c, 3, 60, 95
9, 18228, Note_off_c, 3, 60, 64
9, 18262, Note_on_c, 3, 60, 102
9, 18430, Note_on_c, 3, 63, 105
9, 18432, Note_off_c, 3, 60, 64
9, 18652, Note_on_c, 3, 68, 104
9, 18676, Note_off_c, 3, 63, 64
9, 18912, Note_on_c, 3, 72, 94
9, 18920, Note_off_c, 3, 68, 64
9, 19096, Note_off_c, 3, 72, 64
9, 19142, Note_on_c, 3, 72, 96
9, 19880, Note_on_c, 3, 70, 114
9, 19898, Note_off_c, 3, 72, 64
9, 20010, Note_on_c, 3, 69, 99
9, 20038, Note_off_c, 3, 70, 64
9, 20168, Note_off_c, 3, 69, 64
9, 20176, Note_on_c, 3, 70, 107
9, 21138, Note_off_c, 3, 70, 64
9, 21150, Note_on_c, 3, 60, 104
9, 21278, Note_off_c, 3, 60, 64
9, 21328, Note_on_c, 3, 60, 91
9, 21898, Note_off_c, 3, 60, 64
9, 22014, Note_on_c, 3, 60, 100
9, 22054, Note_off_c, 3, 60, 64
9, 22108, Note_on_c, 3, 60, 106
9, 22340, Note_off_c, 3, 60, 64
9, 22348, Note_on_c, 3, 64, 106
9, 22510, Note_off_c, 3, 64, 64
9, 22524, Note_on_c, 3, 67, 93
9, 22746, Note_on_c, 3, 70, 108
9, 22760, Note_off_c, 3, 67, 64
9, 22962, Note_on_c, 3, 69, 99
9, 22966, Note_off_c, 3, 70, 64
9, 24720, Note_off_c, 3, 69, 64
9, 24818, Note_on_c, 3, 65, 108
9, 24976, Note_on_c, 3, 73, 112
9, 24982, Note_off_c, 3, 65, 64
9, 25012, Note_off_c, 3, 73, 64
9, 25012, Note_on_c, 3, 74, 104
9, 25122, Note_off_c, 3, 74, 64
9, 25158, Note_on_c, 3, 74, 119
9, 25748, Note_off_c, 3, 74, 64
9, 25784, Note_on_c, 3, 74, 115
9, 25896, Note_off_c, 3, 74, 64
9, 25946, Note_on_c, 3, 74, 114
9, 26172, Note_off_c, 3, 74, 64
9, 26184, Note_on_c, 3, 67, 105
9, 26410, Note_off_c, 3, 67, 64
9, 26420, Note_on_c, 3, 69, 100
9, 26706, Note_off_c, 3, 69, 64
9, 26720, Note_on_c, 3, 70, 122
9, 26866, Note_off_c, 3, 70, 64
9, 26898, Note_on_c, 3, 72, 108
9, 27508, Note_off_c, 3, 72, 64
9, 27528, Note_on_c, 3, 64, 115
9, 27686, Note_off_c, 3, 64, 64
9, 27690, Note_on_c, 3, 65, 110
9, 27838, Note_off_c, 3, 65, 64
9, 27864, Note_on_c, 3, 67, 106
9, 28414, Note_off_c, 3, 67, 64
9, 28504, Note_on_c, 3, 65, 111
9, 28504, Note_on_c, 3, 64, 113
9, 28526, Note_off_c, 3, 64, 64
9, 28814, Note_off_c, 3, 65, 64
9, 28826, Note_on_c, 3, 60, 99
9, 28970, Note_off_c, 3, 60, 64
9, 29012, Note_on_c, 3, 60, 93
9, 29582, Note_off_c, 3, 60, 64
9, 29696, Note_on_c, 3, 60, 106
9, 29726, Note_off_c, 3, 60, 64
9, 29788, Note_on_c, 3, 60, 108
9, 30024, Note_on_c, 3, 64, 109
9, 30026, Note_off_c, 3, 60, 64
9, 30242, Note_off_c, 3, 64, 64
9, 30256, Note_on_c, 3, 67, 104
9, 30538, Note_off_c, 3, 67, 64
9, 30578, Note_on_c, 3, 69, 112
9, 30724, Note_off_c, 3, 69, 64
9, 30750, Note_on_c, 3, 65, 91
9, 31680, Program_c, 3, 4
9, 31680, Program_c, 3, 4
9, 32614, Note_off_c, 3, 65, 64
9, 63378, Note_on_c, 3, 60, 90
9, 63524, Note_off_c, 3, 60, 64
9, 63570, Note_on_c, 3, 60, 90
9, 64052, Note_off_c, 3, 60, 64
9, 64102, Note_on_c, 3, 60, 95
9, 64302, Note_off_c, 3, 60, 64
9, 64346, Note_on_c, 3, 60, 104
9, 64590, Note_on_c, 3, 63, 114
9, 64616, Note_off_c, 3, 60, 64
9, 64822, Note_on_c, 3, 68, 106
9, 64840, Note_off_c, 3, 63, 64
9, 65064, Note_on_c, 3, 72, 99
9, 65072, Note_off_c, 3, 68, 64
9, 65266, Note_off_c, 3, 72, 64
9, 65320, Note_on_c, 3, 72, 105
9, 65930, Note_off_c, 3, 72, 64
9, 65958, Note_on_c, 3, 70, 110
9, 66086, Note_on_c, 3, 69, 93
9, 66128, Note_off_c, 3, 70, 64
9, 66264, Note_on_c, 3, 70, 109
9, 66280, Note_off_c, 3, 69, 64
9, 67166, Note_off_c, 3, 70, 64
9, 67232, Note_on_c, 3, 60, 102
9, 67356, Note_off_c, 3, 60, 64
9, 67400, Note_on_c, 3, 60, 81
9, 67994, Note_off_c, 3, 60, 64
9, 68094, Note_on_c, 3, 60, 104
9, 68164, Note_off_c, 3, 60, 64
9, 68196, Note_on_c, 3, 60, 102
9, 68404, Note_off_c, 3, 60, 64
9, 68424, Note_on_c, 3, 64, 102
9, 68656, Note_on_c, 3, 67, 94
9, 68660, Note_off_c, 3, 64, 64
9, 68896, Note_on_c, 3, 70, 104
9, 68904, Note_off_c, 3, 67, 64
9, 69132, Note_off_c, 3, 70, 64
9, 69134, Note_on_c, 3, 69, 96
9, 70922, Note_off_c, 3, 69, 64
9, 70972, Note_on_c, 3, 65, 74
9, 71062, Note_on_c, 3, 73, 114
9, 71068, Note_off_c, 3, 65, 64
9, 71732, Note_off_c, 3, 73, 64
9, 71784, Note_on_c, 3, 73, 113
9, 71966, Note_off_c, 3, 73, 64
9, 72028, Note_on_c, 3, 73, 112
9, 72248, Note_on_c, 3, 65, 106
9, 72254, Note_off_c, 3, 73, 64
9, 72472, Note_off_c, 3, 65, 64
9, 72482, Note_on_c, 3, 66, 100
9, 72810, Note_on_c, 3, 67, 105
9, 72820, Note_off_c, 3, 66, 64
9, 72982, Note_off_c, 3, 67, 64
9, 72984, Note_on_c, 3, 72, 108
9, 73618, Note_off_c, 3, 72, 64
9, 73636, Note_on_c, 3, 63, 114
9, 73766, Note_on_c, 3, 64, 106
9, 73816, Note_off_c, 3, 63, 64
9, 73922, Note_off_c, 3, 64, 64
9, 73934, Note_on_c, 3, 65, 106
9, 74570, Note_off_c, 3, 65, 64
9, 74600, Note_on_c, 3, 67, 100
9, 74786, Note_on_c, 3, 68, 108
9, 74802, Note_off_c, 3, 67, 64
9, 74908, Note_off_c, 3, 68, 64
9, 74912, Note_on_c, 3, 70, 113
9, 75158, Note_off_c, 3, 70, 64
9, 75208, Note_on_c, 3, 70, 99
9, 75250, Note_off_c, 3, 70, 64
9, 75294, Note_on_c, 3, 70, 108
9, 75354, Note_off_c, 3, 70, 64
9, 75390, Note_on_c, 3, 70, 87
9, 75648, Note_off_c, 3, 70, 64
9, 75704, Note_on_c, 3, 70, 116
9, 75746, Note_off_c, 3, 70, 64
9, 75780, Note_on_c, 3, 70, 103
9, 75824, Note_off_c, 3, 70, 64
9, 75872, Note_on_c, 3, 70, 105
9, 76074, Note_off_c, 3, 70, 64
9, 76092, Note_on_c, 3, 62, 101
9, 76316, Note_off_c, 3, 62, 64
9, 76328, Note_on_c, 3, 63, 109
9, 76578, Note_on_c, 3, 64, 112
9, 76594, Note_off_c, 3, 63, 64
9, 76812, Note_off_c, 3, 64, 64
9, 76814, Note_on_c, 3, 69, 96
9, 77760, Program_c, 3, 59
9, 77760, Program_c, 3, 59
9, 77944, Note_off_c, 3, 69, 64
9, 78684, Note_on_c, 3, 62, 81
9, 78684, Note_on_c, 3, 63, 72
9, 78706, Note_on_c, 3, 61, 112
9, 78712, Note_off_c, 3, 63, 64
9, 78720, Program_c, 3, 59
9, 78720, Program_c, 3, 59
9, 78726, Note_off_c, 3, 62, 64
9, 78748, Note_on_c, 3, 60, 100
9, 78774, Note_off_c, 3, 61, 64
9, 78910, Note_off_c, 3, 60, 64
9, 78998, Note_on_c, 3, 60, 102
9, 79512, Note_off_c, 3, 60, 64
9, 79544, Note_on_c, 3, 60, 95
9, 79668, Note_off_c, 3, 60, 64
9, 79702, Note_on_c, 3, 60, 102
9, 79870, Note_on_c, 3, 63, 105
9, 79872, Note_off_c, 3, 60, 64
9, 80092, Note_on_c, 3, 68, 104
9, 80116, Note_off_c, 3, 63, 64
9, 80352, Note_on_c, 3, 72, 94
9, 80360, Note_off_c, 3, 68, 64
9, 80536, Note_off_c, 3, 72, 64
9, 80582, Note_on_c, 3, 72, 96
9, 81320, Note_on_c, 3, 70, 114
9, 81338, Note_off_c, 3, 72, 64
9, 81450, Note_on_c, 3, 69, 99
9, 81478, Note_off_c, 3, 70, 64
9, 81608, Note_off_c, 3, 69, 64
9, 81616, Note_on_c, 3, 70, 107
9, 82578, Note_off_c, 3, 70, 64
9, 82590, Note_on_c, 3, 60, 104
9, 82718, Note_off_c, 3, 60, 64
9, 82768, Note_on_c, 3, 60, 91
9, 83338, Note_off_c, 3, 60, 64
9, 83454, Note_on_c, 3, 60, 100
9, 83494, Note_off_c, 3, 60, 64
9, 83548, Note_on_c, 3, 60, 106
9, 83780, Note_off_c, 3, 60, 64
9, 83788, Note_on_c, 3, 64, 106
9, 83950, Note_off_c, 3, 64, 64
9, 83964, Note_on_c, 3, 67, 93
9, 84186, Note_on_c, 3, 70, 108
9, 84200, Note_off_c, 3, 67, 64
9, 84402, Note_on_c, 3, 69, 99
9, 84406, Note_off_c, 3, 70, 64
9, 86160, Note_off_c, 3, 69, 64
9, 86258, Note_on_c, 3, 65, 108
9, 86416, Note_on_c, 3, 73, 112
9, 86422, Note_off_c, 3, 65, 64
9, 86452, Note_off_c, 3, 73, 64
9, 86452, Note_on_c, 3, 74, 104
9, 86562, Note_off_c, 3, 74, 64
9, 86598, Note_on_c, 3, 74, 119
9, 87188, Note_off_c, 3, 74, 64
9, 87224, Note_on_c, 3, 74, 115
9, 87336, Note_off_c, 3, 74, 64
9, 87386, Note_on_c, 3, 74, 114
9, 87612, Note_off_c, 3, 74, 64
9, 87624, Note_on_c, 3, 67, 105
9, 87850, Note_off_c, 3, 67, 64
9, 87860, Note_on_c, 3, 69, 100
9, 88146, Note_off_c, 3, 69, 64
9, 88160, Note_on_c, 3, 70, 122
9, 88306, Note_off_c, 3, 70, 64
9, 88338, Note_on_c, 3, 72, 108
9, 88948, Note_off_c, 3, 72, 64
9, 88968, Note_on_c, 3, 64, 115
9, 89126, Note_off_c, 3, 64, 64
9, 89130, Note_on_c, 3, 65, 110
9, 89278, Note_off_c, 3, 65, 64
9, 89304, Note_on_c, 3, 67, 106
9, 89854, Note_off_c, 3, 67, 64
9, 89944, Note_on_c, 3, 65, 111
9, 89944, Note_on_c, 3, 64, 113
9, 89966, Note_off_c, 3, 64, 64
9, 90254, Note_off_c, 3, 65, 64
9, 90266, Note_on_c, 3, 60, 99
9, 90410, Note_off_c, 3, 60, 64
9, 90452, Note_on_c, 3, 60, 93
9, 91022, Note_off_c, 3, 60, 64
9, 91136, Note_on_c, 3, 60, 106
9, 91166, Note_off_c, 3, 60, 64
9, 91228, Note_on_c, 3, 60, 108
9, 91464, Note_on_c, 3, 64, 109
9, 91466, Note_off_c, 3, 60, 64
9, 91682, Note_off_c, 3, 64, 64
9, 91696, Note_on_c, 3, 67, 104
9, 91978, Note_off_c, 3, 67, 64
9, 92018, Note_on_c, 3, 69, 112
9, 92164, Note_off_c, 3, 69, 64
9, 92190, Note_on_c, 3, 65, 91
9, 93120, Program_c, 3, 4
9, 93120, Program_c, 3, 4
9, 94054, Note_off_c, 3, 65, 64
9, 94054, End_track
10, 0, Start_track
10, 0, Title_t, "Solo / Jazz guitar"
10, 0, Program_c, 4, 26
10, 0, Control_c, 4, 7, 90
10, 0, Control_c, 4, 10, 74
10, 0, Control_c, 4, 123, 0
10, 0, Control_c, 4, 91, 40
10, 0, Control_c, 4, 93, 0
10, 0, Program_c, 4, 26
10, 33088, Note_on_c, 4, 63, 109
10, 33144, Note_off_c, 4, 63, 64
10, 33146, Note_on_c, 4, 64, 89
10, 33192, Note_off_c, 4, 64, 64
10, 33286, Note_on_c, 4, 67, 113
10, 33318, Note_off_c, 4, 67, 64
10, 33384, Note_on_c, 4, 65, 119
10, 33486, Note_off_c, 4, 65, 64
10, 33524, Note_on_c, 4, 64, 110
10, 33556, Note_off_c, 4, 64, 64
10, 33626, Note_on_c, 4, 65, 113
10, 33784, Note_off_c, 4, 65, 64
10, 33804, Note_on_c, 4, 68, 120
10, 33844, Note_off_c, 4, 68, 64
10, 33872, Note_on_c, 4, 63, 68
10, 34126, Note_off_c, 4, 63, 64
10, 35598, Note_on_c, 4, 61, 106
10, 35642, Note_off_c, 4, 61, 64
10, 35722, Note_on_c, 4, 65, 110
10, 35768, Note_off_c, 4, 65, 64
10, 35776, Note_on_c, 4, 70, 99
10, 35920, Note_off_c, 4, 70, 64
10, 35966, Note_on_c, 4, 68, 114
10, 36004, Note_off_c, 4, 68, 64
10, 36024, Note_on_c, 4, 67, 60
10, 36078, Note_off_c, 4, 67, 64
10, 36088, Note_on_c, 4, 68, 95
10, 36136, Note_off_c, 4, 68, 64
10, 36140, Note_on_c, 4, 67, 74
10, 36168, Note_off_c, 4, 67, 64
10, 36198, Note_on_c, 4, 68, 83
10, 36254, Note_off_c, 4, 68, 64
10, 36258, Note_on_c, 4, 65, 81
10, 36420, Note_off_c, 4, 65, 64
10, 36438, Note_on_c, 4, 63, 91
10, 36476, Note_off_c, 4, 63, 64
10, 36494, Note_on_c, 4, 61, 88
10, 36556, Note_off_c, 4, 61, 64
10, 36558, Note_on_c, 4, 60, 69
10, 36636, Note_off_c, 4, 60, 64
10, 36678, Note_on_c, 4, 58, 80
10, 36732, Note_off_c, 4, 58, 64
10, 36746, Note_on_c, 4, 57, 64
10, 36802, Note_off_c, 4, 57, 64
10, 36810, Note_on_c, 4, 60, 78
10, 36872, Note_off_c, 4, 60, 64
10, 36920, Note_on_c, 4, 58, 54
10, 37000, Note_off_c, 4, 58, 64
10, 39040, Note_on_c, 4, 60, 108
10, 39046, Note_on_c, 4, 61, 115
10, 39058, Note_on_c, 4, 62, 105
10, 39068, Note_off_c, 4, 60, 64
10, 39076, Note_off_c, 4, 61, 64
10, 39092, Note_off_c, 4, 62, 64
10, 39146, Note_on_c, 4, 60, 115
10, 39254, Note_off_c, 4, 60, 64
10, 39276, Note_on_c, 4, 58, 99
10, 39314, Note_off_c, 4, 58, 64
10, 39390, Note_on_c, 4, 55, 75
10, 39496, Note_off_c, 4, 55, 64
10, 39518, Note_on_c, 4, 53, 59
10, 39566, Note_on_c, 4, 55, 60
10, 39570, Note_off_c, 4, 53, 64
10, 39786, Note_off_c, 4, 55, 64
10, 40824, Note_on_c, 4, 60, 127
10, 41004, Note_off_c, 4, 60, 64
10, 41004, Note_on_c, 4, 53, 100
10, 41158, Note_off_c, 4, 53, 64
10, 41198, Note_on_c, 4, 59, 114
10, 41220, Note_on_c, 4, 60, 106
10, 41236, Note_off_c, 4, 59, 64
10, 41252, Note_off_c, 4, 60, 64
10, 41310, Note_on_c, 4, 58, 124
10, 41484, Note_off_c, 4, 58, 64
10, 41484, Note_on_c, 4, 51, 91
10, 41794, Note_off_c, 4, 51, 64
10, 41950, Note_on_c, 4, 61, 126
10, 41992, Note_off_c, 4, 61, 64
10, 42082, Note_on_c, 4, 59, 118
10, 42138, Note_off_c, 4, 59, 64
10, 42150, Note_on_c, 4, 57, 55
10, 42192, Note_off_c, 4, 57, 64
10, 42200, Note_on_c, 4, 55, 61
10, 42254, Note_off_c, 4, 55, 64
10, 42266, Note_on_c, 4, 56, 104
10, 42320, Note_off_c, 4, 56, 64
10, 42332, Note_on_c, 4, 51, 50
10, 42382, Note_off_c, 4, 51, 64
10, 42384, Note_on_c, 4, 53, 51
10, 42432, Note_off_c, 4, 53, 64
10, 42454, Note_on_c, 4, 55, 71
10, 42496, Note_off_c, 4, 55, 64
10, 42796, Note_on_c, 4, 48, 63
10, 42858, Note_off_c, 4, 48, 64
10, 42858, Note_on_c, 4, 49, 65
10, 42890, Note_off_c, 4, 49, 64
10, 42928, Note_on_c, 4, 51, 76
10, 42972, Note_off_c, 4, 51, 64
10, 43048, Note_on_c, 4, 53, 65
10, 43104, Note_off_c, 4, 53, 64
10, 43104, Note_on_c, 4, 55, 58
10, 43140, Note_off_c, 4, 55, 64
10, 43168, Note_on_c, 4, 56, 101
10, 43234, Note_off_c, 4, 56, 64
10, 43284, Note_on_c, 4, 55, 66
10, 43338, Note_off_c, 4, 55, 64
10, 43340, Note_on_c, 4, 56, 66
10, 43378, Note_off_c, 4, 56, 64
10, 43400, Note_on_c, 4, 58, 98
10, 43462, Note_off_c, 4, 58, 64
10, 43518, Note_on_c, 4, 56, 85
10, 43560, Note_off_c, 4, 56, 64
10, 43574, Note_on_c, 4, 58, 79
10, 43614, Note_off_c, 4, 58, 64
10, 43640, Note_on_c, 4, 60, 103
10, 43708, Note_off_c, 4, 60, 64
10, 43764, Note_on_c, 4, 58, 76
10, 43818, Note_off_c, 4, 58, 64
10, 43818, Note_on_c, 4, 60, 74
10, 43850, Note_off_c, 4, 60, 64
10, 43882, Note_on_c, 4, 61, 114
10, 43946, Note_off_c, 4, 61, 64
10, 44008, Note_on_c, 4, 63, 90
10, 44056, Note_off_c, 4, 63, 64
10, 44064, Note_on_c, 4, 65, 79
10, 44094, Note_off_c, 4, 65, 64
10, 44126, Note_on_c, 4, 67, 90
10, 44166, Note_off_c, 4, 67, 64
10, 44180, Note_on_c, 4, 68, 73
10, 44238, Note_off_c, 4, 68, 64
10, 44360, Note_on_c, 4, 72, 100
10, 44374, Note_on_c, 4, 73, 106
10, 44380, Note_off_c, 4, 72, 64
10, 44424, Note_off_c, 4, 73, 64
10, 44424, Note_on_c, 4, 72, 99
10, 44582, Note_off_c, 4, 72, 64
10, 44598, Note_on_c, 4, 70, 105
10, 44650, Note_off_c, 4, 70, 64
10, 44664, Note_on_c, 4, 68, 88
10, 44700, Note_off_c, 4, 68, 64
10, 44710, Note_on_c, 4, 70, 64
10, 44770, Note_off_c, 4, 70, 64
10, 44778, Note_on_c, 4, 68, 75
10, 45040, Note_off_c, 4, 68, 64
10, 46168, Note_on_c, 4, 65, 96
10, 46200, Note_off_c, 4, 65, 64
10, 46286, Note_on_c, 4, 64, 98
10, 46338, Note_off_c, 4, 64, 64
10, 46340, Note_on_c, 4, 65, 76
10, 46468, Note_off_c, 4, 65, 64
10, 46486, Note_on_c, 4, 67, 90
10, 46522, Note_off_c, 4, 67, 64
10, 46586, Note_on_c, 4, 64, 90
10, 46710, Note_off_c, 4, 64, 64
10, 46732, Note_on_c, 4, 60, 48
10, 46764, Note_on_c, 4, 62, 83
10, 46772, Note_off_c, 4, 60, 64
10, 47018, Note_off_c, 4, 62, 64
10, 47198, Note_on_c, 4, 60, 98
10, 47232, Note_on_c, 4, 61, 91
10, 47236, Note_off_c, 4, 60, 64
10, 47282, Note_off_c, 4, 61, 64
10, 47290, Note_on_c, 4, 60, 66
10, 47550, Note_off_c, 4, 60, 64
10, 48448, Note_on_c, 4, 63, 109
10, 48504, Note_off_c, 4, 63, 64
10, 48506, Note_on_c, 4, 64, 89
10, 48552, Note_off_c, 4, 64, 64
10, 48646, Note_on_c, 4, 67, 113
10, 48678, Note_off_c, 4, 67, 64
10, 48744, Note_on_c, 4, 65, 119
10, 48846, Note_off_c, 4, 65, 64
10, 48884, Note_on_c, 4, 64, 110
10, 48916, Note_off_c, 4, 64, 64
10, 48986, Note_on_c, 4, 65, 113
10, 49144, Note_off_c, 4, 65, 64
10, 49164, Note_on_c, 4, 68, 120
10, 49204, Note_off_c, 4, 68, 64
10, 49232, Note_on_c, 4, 63, 68
10, 49486, Note_off_c, 4, 63, 64
10, 49636, Note_on_c, 4, 63, 127
10, 49690, Note_off_c, 4, 63, 64
10, 49702, Note_on_c, 4, 64, 68
10, 49740, Note_off_c, 4, 64, 64
10, 49760, Note_on_c, 4, 60, 93
10, 49802, Note_off_c, 4, 60, 64
10, 49820, Note_on_c, 4, 59, 84
10, 49862, Note_off_c, 4, 59, 64
10, 49884, Note_on_c, 4, 57, 53
10, 49926, Note_off_c, 4, 57, 64
10, 49940, Note_on_c, 4, 56, 65
10, 49996, Note_off_c, 4, 56, 64
10, 50124, Note_on_c, 4, 60, 126
10, 50186, Note_off_c, 4, 60, 64
10, 50188, Note_on_c, 4, 63, 85
10, 50242, Note_off_c, 4, 63, 64
10, 50256, Note_on_c, 4, 60, 43
10, 50296, Note_off_c, 4, 60, 64
10, 50302, Note_on_c, 4, 61, 113
10, 50344, Note_off_c, 4, 61, 64
10, 50376, Note_on_c, 4, 58, 49
10, 50416, Note_off_c, 4, 58, 64
10, 50422, Note_on_c, 4, 60, 71
10, 50462, Note_off_c, 4, 60, 64
10, 50490, Note_on_c, 4, 63, 99
10, 50526, Note_off_c, 4, 63, 64
10, 50604, Note_on_c, 4, 65, 105
10, 50658, Note_off_c, 4, 65, 64
10, 50664, Note_on_c, 4, 67, 75
10, 50706, Note_off_c, 4, 67, 64
10, 50728, Note_on_c, 4, 70, 123
10, 50772, Note_off_c, 4, 70, 64
10, 50840, Note_on_c, 4, 67, 119
10, 50888, Note_off_c, 4, 67, 64
10, 50904, Note_on_c, 4, 68, 88
10, 50944, Note_off_c, 4, 68, 64
10, 50968, Note_on_c, 4, 70, 104
10, 51012, Note_off_c, 4, 70, 64
10, 51028, Note_on_c, 4, 72, 119
10, 51052, Note_off_c, 4, 72, 64
10, 51084, Note_on_c, 4, 73, 127
10, 51132, Note_off_c, 4, 73, 64
10, 51204, Note_on_c, 4, 69, 100
10, 51250, Note_off_c, 4, 69, 64
10, 51266, Note_on_c, 4, 70, 74
10, 51296, Note_off_c, 4, 70, 64
10, 51324, Note_on_c, 4, 71, 105
10, 51362, Note_off_c, 4, 71, 64
10, 51384, Note_on_c, 4, 72, 127
10, 51432, Note_off_c, 4, 72, 64
10, 51450, Note_on_c, 4, 70, 113
10, 51488, Note_off_c, 4, 70, 64
10, 51506, Note_on_c, 4, 68, 109
10, 51540, Note_off_c, 4, 68, 64
10, 51568, Note_on_c, 4, 65, 74
10, 51600, Note_off_c, 4, 65, 64
10, 51628, Note_on_c, 4, 61, 79
10, 51654, Note_off_c, 4, 61, 64
10, 51686, Note_on_c, 4, 60, 105
10, 51732, Note_off_c, 4, 60, 64
10, 51746, Note_on_c, 4, 58, 53
10, 51794, Note_off_c, 4, 58, 64
10, 52268, Note_on_c, 4, 55, 73
10, 52314, Note_off_c, 4, 55, 64
10, 52338, Note_on_c, 4, 58, 109
10, 52418, Note_off_c, 4, 58, 64
10, 52484, Note_on_c, 4, 56, 94
10, 52534, Note_off_c, 4, 56, 64
10, 52534, Note_on_c, 4, 55, 68
10, 52598, Note_off_c, 4, 55, 64
10, 52644, Note_on_c, 4, 56, 95
10, 52686, Note_off_c, 4, 56, 64
10, 52764, Note_on_c, 4, 58, 89
10, 52812, Note_off_c, 4, 58, 64
10, 52830, Note_on_c, 4, 60, 105
10, 52892, Note_off_c, 4, 60, 64
10, 52954, Note_on_c, 4, 61, 104
10, 52998, Note_off_c, 4, 61, 64
10, 53006, Note_on_c, 4, 60, 79
10, 53334, Note_off_c, 4, 60, 64
10, 53362, Note_on_c, 4, 60, 65
10, 53406, Note_off_c, 4, 60, 64
10, 53430, Note_on_c, 4, 64, 121
10, 53476, Note_off_c, 4, 64, 64
10, 53494, Note_on_c, 4, 60, 53
10, 53540, Note_off_c, 4, 60, 64
10, 53552, Note_on_c, 4, 67, 99
10, 53628, Note_off_c, 4, 67, 64
10, 53686, Note_on_c, 4, 70, 116
10, 53740, Note_on_c, 4, 67, 55
10, 53744, Note_off_c, 4, 70, 64
10, 53774, Note_off_c, 4, 67, 64
10, 53786, Note_on_c, 4, 69, 99
10, 53844, Note_off_c, 4, 69, 64
10, 53922, Note_on_c, 4, 70, 85
10, 53964, Note_on_c, 4, 69, 76
10, 53970, Note_off_c, 4, 70, 64
10, 54034, Note_off_c, 4, 69, 64
10, 54080, Note_on_c, 4, 67, 65
10, 54126, Note_off_c, 4, 67, 64
10, 54208, Note_on_c, 4, 69, 84
10, 54248, Note_off_c, 4, 69, 64
10, 54324, Note_on_c, 4, 67, 65
10, 54380, Note_off_c, 4, 67, 64
10, 54388, Note_on_c, 4, 60, 66
10, 54600, Note_off_c, 4, 60, 64
10, 54804, Note_on_c, 4, 62, 48
10, 54840, Note_off_c, 4, 62, 64
10, 54862, Note_on_c, 4, 63, 44
10, 54882, Note_off_c, 4, 63, 64
10, 54920, Note_on_c, 4, 70, 80
10, 54946, Note_off_c, 4, 70, 64
10, 54980, Note_on_c, 4, 73, 124
10, 54986, Note_on_c, 4, 74, 101
10, 55006, Note_off_c, 4, 73, 64
10, 55158, Note_on_c, 4, 73, 101
10, 55160, Note_off_c, 4, 74, 64
10, 55208, Note_off_c, 4, 73, 64
10, 55216, Note_on_c, 4, 72, 89
10, 55294, Note_off_c, 4, 72, 64
10, 55394, Note_on_c, 4, 72, 104
10, 55448, Note_off_c, 4, 72, 64
10, 55462, Note_on_c, 4, 73, 75
10, 55490, Note_off_c, 4, 73, 64
10, 55520, Note_on_c, 4, 69, 66
10, 55566, Note_off_c, 4, 69, 64
10, 55588, Note_on_c, 4, 68, 50
10, 55632, Note_off_c, 4, 68, 64
10, 55648, Note_on_c, 4, 66, 91
10, 55686, Note_off_c, 4, 66, 64
10, 55700, Note_on_c, 4, 65, 71
10, 55768, Note_on_c, 4, 63, 64
10, 55770, Note_off_c, 4, 65, 64
10, 55812, Note_off_c, 4, 63, 64
10, 55828, Note_on_c, 4, 60, 48
10, 55862, Note_off_c, 4, 60, 64
10, 55882, Note_on_c, 4, 61, 86
10, 55928, Note_off_c, 4, 61, 64
10, 55936, Note_on_c, 4, 62, 81
10, 56002, Note_off_c, 4, 62, 64
10, 56118, Note_on_c, 4, 57, 71
10, 56156, Note_off_c, 4, 57, 64
10, 56168, Note_on_c, 4, 60, 71
10, 56232, Note_off_c, 4, 60, 64
10, 56234, Note_on_c, 4, 59, 53
10, 56290, Note_off_c, 4, 59, 64
10, 56292, Note_on_c, 4, 58, 59
10, 56330, Note_off_c, 4, 58, 64
10, 57082, Note_on_c, 4, 59, 123
10, 57122, Note_off_c, 4, 59, 64
10, 57140, Note_on_c, 4, 58, 85
10, 57202, Note_off_c, 4, 58, 64
10, 57312, Note_on_c, 4, 62, 90
10, 57368, Note_off_c, 4, 62, 64
10, 57376, Note_on_c, 4, 57, 79
10, 57430, Note_off_c, 4, 57, 64
10, 57562, Note_on_c, 4, 56, 105
10, 57596, Note_off_c, 4, 56, 64
10, 57618, Note_on_c, 4, 55, 69
10, 57684, Note_on_c, 4, 52, 86
10, 57688, Note_off_c, 4, 55, 64
10, 57736, Note_off_c, 4, 52, 64
10, 57802, Note_on_c, 4, 48, 80
10, 57868, Note_off_c, 4, 48, 64
10, 57924, Note_on_c, 4, 49, 98
10, 57974, Note_off_c, 4, 49, 64
10, 57988, Note_on_c, 4, 50, 68
10, 58044, Note_off_c, 4, 50, 64
10, 58236, Note_on_c, 4, 57, 106
10, 58278, Note_off_c, 4, 57, 64
10, 58282, Note_on_c, 4, 55, 63
10, 58334, Note_on_c, 4, 52, 89
10, 58340, Note_off_c, 4, 55, 64
10, 58412, Note_off_c, 4, 52, 64
10, 58648, Note_on_c, 4, 52, 106
10, 58694, Note_off_c, 4, 52, 64
10, 58704, Note_on_c, 4, 53, 71
10, 58746, Note_off_c, 4, 53, 64
10, 58820, Note_on_c, 4, 55, 99
10, 58886, Note_off_c, 4, 55, 64
10, 58898, Note_on_c, 4, 56, 91
10, 58950, Note_off_c, 4, 56, 64
10, 59006, Note_on_c, 4, 58, 95
10, 59084, Note_off_c, 4, 58, 64
10, 59130, Note_on_c, 4, 59, 109
10, 59178, Note_off_c, 4, 59, 64
10, 59186, Note_on_c, 4, 61, 89
10, 59222, Note_off_c, 4, 61, 64
10, 59248, Note_on_c, 4, 62, 88
10, 59308, Note_on_c, 4, 61, 91
10, 59312, Note_off_c, 4, 62, 64
10, 59358, Note_off_c, 4, 61, 64
10, 59378, Note_on_c, 4, 59, 98
10, 59422, Note_off_c, 4, 59, 64
10, 59432, Note_on_c, 4, 58, 75
10, 59466, Note_off_c, 4, 58, 64
10, 59492, Note_on_c, 4, 56, 90
10, 59536, Note_off_c, 4, 56, 64
10, 59538, Note_on_c, 4, 55, 63
10, 59570, Note_off_c, 4, 55, 64
10, 59598, Note_on_c, 4, 55, 56
10, 59646, Note_off_c, 4, 55, 64
10, 59654, Note_on_c, 4, 60, 90
10, 59696, Note_off_c, 4, 60, 64
10, 59722, Note_on_c, 4, 60, 80
10, 59764, Note_off_c, 4, 60, 64
10, 59780, Note_on_c, 4, 65, 119
10, 59834, Note_off_c, 4, 65, 64
10, 59954, Note_on_c, 4, 60, 94
10, 59996, Note_off_c, 4, 60, 64
10, 60020, Note_on_c, 4, 55, 29
10, 60048, Note_off_c, 4, 55, 64
10, 60080, Note_on_c, 4, 55, 30
10, 60126, Note_off_c, 4, 55, 64
10, 60138, Note_on_c, 4, 60, 111
10, 60176, Note_off_c, 4, 60, 64
10, 60200, Note_on_c, 4, 60, 94
10, 60246, Note_off_c, 4, 60, 64
10, 60256, Note_on_c, 4, 53, 69
10, 60324, Note_off_c, 4, 53, 64
10, 60490, Note_on_c, 4, 48, 59
10, 60534, Note_off_c, 4, 48, 64
10, 60650, Note_on_c, 4, 53, 71
10, 60678, Note_off_c, 4, 53, 64
10, 60688, Note_on_c, 4, 48, 33
10, 60730, Note_off_c, 4, 48, 64
10, 60750, Note_on_c, 4, 60, 116
10, 61136, Note_off_c, 4, 60, 64
10, 61158, Note_on_c, 4, 58, 96
10, 61202, Note_off_c, 4, 58, 64
10, 61216, Note_on_c, 4, 57, 60
10, 61262, Note_off_c, 4, 57, 64
10, 61274, Note_on_c, 4, 58, 80
10, 61316, Note_off_c, 4, 58, 64
10, 61338, Note_on_c, 4, 60, 103
10, 61368, Note_off_c, 4, 60, 64
10, 61458, Note_on_c, 4, 55, 80
10, 61474, Note_on_c, 4, 56, 93
10, 61500, Note_off_c, 4, 55, 64
10, 61508, Note_on_c, 4, 57, 59
10, 61522, Note_off_c, 4, 56, 64
10, 61576, Note_off_c, 4, 57, 64
10, 61582, Note_on_c, 4, 60, 78
10, 61626, Note_off_c, 4, 60, 64
10, 61642, Note_on_c, 4, 55, 83
10, 61680, Note_off_c, 4, 55, 64
10, 61760, Note_on_c, 4, 53, 64
10, 61820, Note_off_c, 4, 53, 64
10, 61826, Note_on_c, 4, 55, 75
10, 61826, Program_c, 4, 4
10, 62432, Note_off_c, 4, 55, 64
10, 62432, End_track
11, 0, Start_track
11, 0, Title_t, "Strings / Slow strings"
11, 0, Program_c, 5, 49
11, 0, Control_c, 5, 7, 90
11, 0, Control_c, 5, 10, 79
11, 0, Control_c, 5, 123, 0
11, 0, Control_c, 5, 91, 120
11, 0, Control_c, 5, 93, 50
11, 0, Control_c, 5, 64, 0
11, 1920, Note_on_c, 5, 60, 35
11, 1920, Note_on_c, 5, 53, 44
11, 1920, Note_on_c, 5, 41, 34
11, 1920, Note_on_c, 5, 65, 35
11, 1924, Note_on_c, 5, 68, 36
11, 2052, Control_c, 5, 64, 127
11, 2292, Control_c, 5, 0, 0
11, 2400, Note_off_c, 5, 68, 64
11, 2400, Note_off_c, 5, 65, 64
11, 2400, Note_off_c, 5, 41, 64
11, 2400, Note_off_c, 5, 53, 64
11, 2400, Note_off_c, 5, 60, 64
11, 2400, Note_on_c, 5, 52, 26
11, 2400, Note_on_c, 5, 57, 26
11, 2400, Note_on_c, 5, 58, 47
11, 2400, Note_on_c, 5, 64, 41
11, 2400, Control_c, 5, 0, 0
11, 2400, Control_c, 5, 64, 0
11, 2402, Note_on_c, 5, 60, 36
11, 2594, Control_c, 5, 64, 127
11, 2834, Control_c, 5, 0, 0
11, 2880, Note_off_c, 5, 60, 64
11, 2880, Note_off_c, 5, 64, 64
11, 2880, Note_off_c, 5, 58, 64
11, 2880, Note_off_c, 5, 57, 64
11, 2880, Note_off_c, 5, 52, 64
11, 2880, Control_c, 5, 0, 0
11, 2880, Control_c, 5, 64, 0
11, 2880, Note_on_c, 5, 60, 35
11, 2880, Note_on_c, 5, 56, 42
11, 2880, Note_on_c, 5, 39, 35
11, 2936, Note_on_c, 5, 66, 39
11, 3034, Control_c, 5, 64, 127
11, 3274, Control_c, 5, 0, 0
11, 3360, Note_off_c, 5, 66, 64
11, 3360, Note_off_c, 5, 39, 64
11, 3360, Note_off_c, 5, 56, 64
11, 3360, Note_off_c, 5, 60, 64
11, 3360, Note_on_c, 5, 50, 35
11, 3360, Note_on_c, 5, 57, 42
11, 3360, Note_on_c, 5, 60, 35
11, 3360, Control_c, 5, 0, 0
11, 3360, Control_c, 5, 64, 0
11, 3416, Note_on_c, 5, 66, 39
11, 3514, Control_c, 5, 64, 127
11, 3754, Control_c, 5, 0, 0
11, 3840, Note_off_c, 5, 66, 64
11, 3840, Note_off_c, 5, 60, 64
11, 3840, Note_off_c, 5, 57, 64
11, 3840, Note_off_c, 5, 50, 64
11, 3840, Control_c, 5, 0, 0
11, 3840, Control_c, 5, 64, 0
11, 3840, Note_on_c, 5, 60, 35
11, 3840, Note_on_c, 5, 53, 44
11, 3840, Note_on_c, 5, 37, 34
11, 3840, Note_on_c, 5, 65, 35
11, 3844, Note_on_c, 5, 68, 36
11, 3972, Control_c, 5, 64, 127
11, 4212, Control_c, 5, 0, 0
11, 4320, Note_off_c, 5, 68, 64
11, 4320, Note_off_c, 5, 65, 64
11, 4320, Note_off_c, 5, 37, 64
11, 4320, Note_off_c, 5, 53, 64
11, 4320, Note_off_c, 5, 60, 64
11, 4320, Note_on_c, 5, 48, 35
11, 4320, Note_on_c, 5, 55, 42
11, 4320, Note_on_c, 5, 58, 35
11, 4320, Control_c, 5, 0, 0
11, 4320, Control_c, 5, 64, 0
11, 4376, Note_on_c, 5, 63, 39
11, 4474, Control_c, 5, 64, 127
11, 4714, Control_c, 5, 0, 0
11, 4800, Note_off_c, 5, 63, 64
11, 4800, Note_off_c, 5, 58, 64
11, 4800, Note_off_c, 5, 55, 64
11, 4800, Note_off_c, 5, 48, 64
11, 4800, Control_c, 5, 0, 0
11, 4800, Control_c, 5, 64, 0
11, 4800, Note_on_c, 5, 58, 35
11, 4800, Note_on_c, 5, 53, 42
11, 4800, Note_on_c, 5, 46, 35
11, 4856, Note_on_c, 5, 61, 39
11, 4954, Control_c, 5, 64, 127
11, 5194, Control_c, 5, 0, 0
11, 5280, Note_off_c, 5, 61, 64
11, 5280, Note_off_c, 5, 46, 64
11, 5280, Note_off_c, 5, 53, 64
11, 5280, Note_off_c, 5, 58, 64
11, 5280, Note_on_c, 5, 46, 26
11, 5280, Note_on_c, 5, 53, 26
11, 5280, Note_on_c, 5, 56, 47
11, 5280, Note_on_c, 5, 61, 41
11, 5280, Control_c, 5, 0, 0
11, 5280, Control_c, 5, 64, 0
11, 5282, Note_on_c, 5, 60, 36
11, 5286, Note_on_c, 5, 49, 39
11, 5474, Control_c, 5, 64, 127
11, 5714, Control_c, 5, 0, 0
11, 5760, Note_off_c, 5, 49, 64
11, 5760, Note_off_c, 5, 60, 64
11, 5760, Note_off_c, 5, 61, 64
11, 5760, Note_off_c, 5, 56, 64
11, 5760, Note_off_c, 5, 53, 64
11, 5760, Note_off_c, 5, 46, 64
11, 5760, Note_on_c, 5, 43, 35
11, 5760, Note_on_c, 5, 55, 42
11, 5760, Note_on_c, 5, 58, 35
11, 5760, Control_c, 5, 0, 0
11, 5760, Control_c, 5, 64, 0
11, 5816, Note_on_c, 5, 65, 39
11, 5914, Control_c, 5, 64, 127
11, 6154, Control_c, 5, 0, 0
11, 6394, Control_c, 5, 0, 0
11, 6720, Note_off_c, 5, 65, 64
11, 6720, Note_off_c, 5, 58, 64
11, 6720, Note_off_c, 5, 55, 64
11, 6720, Note_off_c, 5, 43, 64
11, 6720, Note_on_c, 5, 48, 35
11, 6720, Note_on_c, 5, 55, 42
11, 6720, Note_on_c, 5, 58, 35
11, 6720, Control_c, 5, 64, 0
11, 6776, Note_on_c, 5, 64, 39
11, 6874, Control_c, 5, 64, 127
11, 7114, Control_c, 5, 0, 0
11, 7354, Control_c, 5, 0, 0
11, 7680, Note_off_c, 5, 64, 64
11, 7680, Note_off_c, 5, 58, 64
11, 7680, Note_off_c, 5, 55, 64
11, 7680, Note_off_c, 5, 48, 64
11, 7680, Note_on_c, 5, 64, 35
11, 7680, Note_on_c, 5, 41, 34
11, 7680, Note_on_c, 5, 52, 44
11, 7680, Note_on_c, 5, 57, 35
11, 7680, Control_c, 5, 64, 0
11, 7684, Note_on_c, 5, 67, 36
11, 7812, Control_c, 5, 64, 127
11, 8052, Control_c, 5, 0, 0
11, 8292, Control_c, 5, 0, 0
11, 8532, Control_c, 5, 0, 0
11, 8640, Note_off_c, 5, 67, 64
11, 8640, Note_off_c, 5, 57, 64
11, 8640, Note_off_c, 5, 52, 64
11, 8640, Note_off_c, 5, 41, 64
11, 8640, Note_off_c, 5, 64, 64
11, 8640, Control_c, 5, 0, 0
11, 8640, Control_c, 5, 64, 0
11, 8640, Note_on_c, 5, 58, 35
11, 8640, Note_on_c, 5, 51, 44
11, 8640, Note_on_c, 5, 36, 34
11, 8640, Note_on_c, 5, 63, 35
11, 8644, Note_on_c, 5, 67, 36
11, 8772, Control_c, 5, 64, 127
11, 9012, Control_c, 5, 0, 0
11, 9120, Note_off_c, 5, 67, 64
11, 9120, Note_off_c, 5, 63, 64
11, 9120, Note_off_c, 5, 36, 64
11, 9120, Note_off_c, 5, 51, 64
11, 9120, Note_off_c, 5, 58, 64
11, 9120, Note_on_c, 5, 41, 26
11, 9120, Note_on_c, 5, 53, 26
11, 9120, Note_on_c, 5, 57, 47
11, 9120, Note_on_c, 5, 63, 41
11, 9120, Control_c, 5, 0, 0
11, 9120, Control_c, 5, 64, 0
11, 9122, Note_on_c, 5, 61, 36
11, 9126, Note_on_c, 5, 51, 39
11, 9314, Control_c, 5, 64, 127
11, 9554, Control_c, 5, 0, 0
11, 9600, Note_off_c, 5, 51, 64
11, 9600, Note_off_c, 5, 61, 64
11, 9600, Note_off_c, 5, 63, 64
11, 9600, Note_off_c, 5, 57, 64
11, 9600, Note_off_c, 5, 53, 64
11, 9600, Note_off_c, 5, 41, 64
11, 9600, Note_on_c, 5, 61, 35
11, 9600, Note_on_c, 5, 34, 34
11, 9600, Note_on_c, 5, 49, 44
11, 9600, Note_on_c, 5, 56, 35
11, 9600, Control_c, 5, 0, 0
11, 9600, Control_c, 5, 64, 0
11, 9604, Note_on_c, 5, 65, 36
11, 9732, Control_c, 5, 64, 127
11, 9972, Control_c, 5, 0, 0
11, 10212, Control_c, 5, 0, 0
11, 10452, Control_c, 5, 0, 0
11, 10560, Note_off_c, 5, 65, 64
11, 10560, Note_off_c, 5, 56, 64
11, 10560, Note_off_c, 5, 49, 64
11, 10560, Note_off_c, 5, 34, 64
11, 10560, Note_off_c, 5, 61, 64
11, 10560, Note_on_c, 5, 39, 35
11, 10560, Note_on_c, 5, 51, 42
11, 10560, Note_on_c, 5, 55, 35
11, 10560, Control_c, 5, 0, 0
11, 10560, Control_c, 5, 64, 0
11, 10616, Note_on_c, 5, 61, 39
11, 10714, Control_c, 5, 64, 127
11, 10954, Control_c, 5, 0, 0
11, 11194, Control_c, 5, 0, 0
11, 11520, Note_off_c, 5, 61, 64
11, 11520, Note_off_c, 5, 55, 64
11, 11520, Note_off_c, 5, 51, 64
11, 11520, Note_off_c, 5, 39, 64
11, 11520, Note_on_c, 5, 67, 35
11, 11520, Note_on_c, 5, 44, 34
11, 11520, Note_on_c, 5, 55, 44
11, 11520, Note_on_c, 5, 60, 35
11, 11520, Control_c, 5, 64, 0
11, 11524, Note_on_c, 5, 70, 36
11, 11652, Control_c, 5, 64, 127
11, 11892, Control_c, 5, 0, 0
11, 12132, Control_c, 5, 0, 0
11, 12372, Control_c, 5, 0, 0
11, 12480, Note_off_c, 5, 70, 64
11, 12480, Note_off_c, 5, 60, 64
11, 12480, Note_off_c, 5, 55, 64
11, 12480, Note_off_c, 5, 44, 64
11, 12480, Note_off_c, 5, 67, 64
11, 12480, Note_on_c, 5, 49, 26
11, 12480, Note_on_c, 5, 56, 26
11, 12480, Note_on_c, 5, 60, 47
11, 12480, Note_on_c, 5, 65, 41
11, 12480, Control_c, 5, 0, 0
11, 12480, Control_c, 5, 64, 0
11, 12482, Note_on_c, 5, 61, 36
11, 12486, Note_on_c, 5, 53, 39
11, 12674, Control_c, 5, 64, 127
11, 12914, Control_c, 5, 0, 0
11, 13154, Control_c, 5, 0, 0
11, 13440, Note_off_c, 5, 53, 64
11, 13440, Note_off_c, 5, 61, 64
11, 13440, Note_off_c, 5, 65, 64
11, 13440, Note_off_c, 5, 60, 64
11, 13440, Note_off_c, 5, 56, 64
11, 13440, Note_off_c, 5, 49, 64
11, 13440, Note_on_c, 5, 43, 35
11, 13440, Note_on_c, 5, 55, 42
11, 13440, Note_on_c, 5, 58, 35
11, 13440, Control_c, 5, 64, 0
11, 13496, Note_on_c, 5, 65, 39
11, 13594, Control_c, 5, 64, 127
11, 13834, Control_c, 5, 0, 0
11, 14074, Control_c, 5, 0, 0
11, 14400, Note_off_c, 5, 65, 64
11, 14400, Note_off_c, 5, 58, 64
11, 14400, Note_off_c, 5, 55, 64
11, 14400, Note_off_c, 5, 43, 64
11, 14400, Control_c, 5, 64, 0
11, 14400, Note_on_c, 5, 58, 35
11, 14400, Note_on_c, 5, 52, 44
11, 14400, Note_on_c, 5, 36, 34
11, 14400, Note_on_c, 5, 64, 35
11, 14404, Note_on_c, 5, 67, 36
11, 14532, Control_c, 5, 64, 127
11, 14772, Control_c, 5, 0, 0
11, 14880, Note_off_c, 5, 67, 64
11, 14880, Note_off_c, 5, 64, 64
11, 14880, Note_off_c, 5, 36, 64
11, 14880, Note_off_c, 5, 52, 64
11, 14880, Note_off_c, 5, 58, 64
11, 14880, Note_on_c, 5, 48, 35
11, 14880, Note_on_c, 5, 55, 42
11, 14880, Note_on_c, 5, 58, 35
11, 14880, Control_c, 5, 0, 0
11, 14880, Control_c, 5, 64, 0
11, 14936, Note_on_c, 5, 64, 39
11, 15034, Control_c, 5, 64, 127
11, 15274, Control_c, 5, 0, 0
11, 15360, Note_off_c, 5, 64, 64
11, 15360, Note_off_c, 5, 58, 64
11, 15360, Note_off_c, 5, 55, 64
11, 15360, Note_off_c, 5, 48, 64
11, 15360, Note_on_c, 5, 41, 35
11, 15360, Note_on_c, 5, 53, 42
11, 15360, Note_on_c, 5, 57, 35
11, 15360, Control_c, 5, 0, 0
11, 15360, Control_c, 5, 64, 0
11, 15416, Note_on_c, 5, 64, 39
11, 15514, Control_c, 5, 64, 127
11, 15754, Control_c, 5, 0, 0
11, 15994, Control_c, 5, 0, 0
11, 16320, Note_off_c, 5, 64, 64
11, 16320, Note_off_c, 5, 57, 64
11, 16320, Note_off_c, 5, 53, 64
11, 16320, Note_off_c, 5, 41, 64
11, 16320, Control_c, 5, 64, 0
11, 16320, Note_on_c, 5, 58, 35
11, 16320, Note_on_c, 5, 55, 42
11, 16320, Note_on_c, 5, 43, 35
11, 16376, Note_on_c, 5, 65, 39
11, 16474, Control_c, 5, 64, 127
11, 16714, Control_c, 5, 0, 0
11, 16800, Note_off_c, 5, 65, 64
11, 16800, Note_off_c, 5, 43, 64
11, 16800, Note_off_c, 5, 55, 64
11, 16800, Note_off_c, 5, 58, 64
11, 16800, Note_on_c, 5, 64, 35
11, 16800, Note_on_c, 5, 36, 34
11, 16800, Note_on_c, 5, 52, 44
11, 16800, Note_on_c, 5, 58, 35
11, 16800, Control_c, 5, 0, 0
11, 16800, Control_c, 5, 64, 0
11, 16804, Note_on_c, 5, 67, 36
11, 16932, Control_c, 5, 64, 127
11, 17172, Control_c, 5, 0, 0
11, 17280, Note_off_c, 5, 67, 64
11, 17280, Note_off_c, 5, 58, 64
11, 17280, Note_off_c, 5, 52, 64
11, 17280, Note_off_c, 5, 36, 64
11, 17280, Note_off_c, 5, 64, 64
11, 17280, Control_c, 5, 0, 0
11, 17280, Control_c, 5, 64, 0
11, 17280, Note_on_c, 5, 72, 39
11, 17280, Note_on_c, 5, 67, 38
11, 17280, Note_on_c, 5, 80, 33
11, 17284, Note_on_c, 5, 41, 28
11, 17284, Note_on_c, 5, 56, 43
11, 17284, Note_on_c, 5, 75, 38
11, 17760, Note_off_c, 5, 75, 64
11, 17760, Note_off_c, 5, 56, 64
11, 17760, Note_off_c, 5, 41, 64
11, 17760, Note_off_c, 5, 80, 64
11, 17760, Note_off_c, 5, 67, 64
11, 17760, Note_off_c, 5, 72, 64
11, 17760, Note_on_c, 5, 79, 39
11, 17760, Note_on_c, 5, 69, 38
11, 17760, Note_on_c, 5, 70, 39
11, 17764, Note_on_c, 5, 76, 52
11, 17764, Note_on_c, 5, 52, 43
11, 17764, Note_on_c, 5, 40, 28
11, 18240, Note_off_c, 5, 40, 64
11, 18240, Note_off_c, 5, 52, 64
11, 18240, Note_off_c, 5, 76, 64
11, 18240, Note_off_c, 5, 70, 64
11, 18240, Note_off_c, 5, 69, 64
11, 18240, Note_off_c, 5, 79, 64
11, 18240, Note_on_c, 5, 75, 39
11, 18240, Note_on_c, 5, 68, 38
11, 18240, Note_on_c, 5, 84, 33
11, 18244, Note_on_c, 5, 39, 28
11, 18244, Note_on_c, 5, 60, 43
11, 18244, Note_on_c, 5, 78, 38
11, 18720, Note_off_c, 5, 78, 64
11, 18720, Note_off_c, 5, 60, 64
11, 18720, Note_off_c, 5, 39, 64
11, 18720, Note_off_c, 5, 84, 64
11, 18720, Note_off_c, 5, 68, 64
11, 18720, Note_off_c, 5, 75, 64
11, 18720, Note_on_c, 5, 84, 33
11, 18720, Note_on_c, 5, 71, 38
11, 18720, Note_on_c, 5, 74, 39
11, 18724, Note_on_c, 5, 78, 38
11, 18724, Note_on_c, 5, 60, 43
11, 18724, Note_on_c, 5, 50, 28
11, 19200, Note_off_c, 5, 50, 64
11, 19200, Note_off_c, 5, 60, 64
11, 19200, Note_off_c, 5, 78, 64
11, 19200, Note_off_c, 5, 74, 64
11, 19200, Note_off_c, 5, 71, 64
11, 19200, Note_off_c, 5, 84, 64
11, 19200, Note_on_c, 5, 72, 39
11, 19200, Note_on_c, 5, 68, 38
11, 19200, Note_on_c, 5, 80, 39
11, 19204, Note_on_c, 5, 37, 28
11, 19204, Note_on_c, 5, 53, 43
11, 19204, Note_on_c, 5, 77, 52
11, 19680, Note_off_c, 5, 77, 64
11, 19680, Note_off_c, 5, 53, 64
11, 19680, Note_off_c, 5, 37, 64
11, 19680, Note_off_c, 5, 80, 64
11, 19680, Note_off_c, 5, 68, 64
11, 19680, Note_off_c, 5, 72, 64
11, 19680, Note_on_c, 5, 79, 39
11, 19680, Note_on_c, 5, 67, 38
11, 19680, Note_on_c, 5, 72, 39
11, 19684, Note_on_c, 5, 75, 52
11, 19684, Note_on_c, 5, 51, 43
11, 19684, Note_on_c, 5, 36, 28
11, 20160, Note_off_c, 5, 36, 64
11, 20160, Note_off_c, 5, 51, 64
11, 20160, Note_off_c, 5, 75, 64
11, 20160, Note_off_c, 5, 72, 64
11, 20160, Note_off_c, 5, 67, 64
11, 20160, Note_off_c, 5, 79, 64
11, 20160, Note_on_c, 5, 70, 39
11, 20160, Note_on_c, 5, 65, 38
11, 20160, Note_on_c, 5, 77, 39
11, 20164, Note_on_c, 5, 34, 28
11, 20164, Note_on_c, 5, 49, 43
11, 20164, Note_on_c, 5, 73, 52
11, 20640, Note_off_c, 5, 73, 64
11, 20640, Note_off_c, 5, 49, 64
11, 20640, Note_off_c, 5, 34, 64
11, 20640, Note_off_c, 5, 77, 64
11, 20640, Note_off_c, 5, 65, 64
11, 20640, Note_off_c, 5, 70, 64
11, 20640, Note_on_c, 5, 77, 39
11, 20640, Note_on_c, 5, 65, 38
11, 20640, Note_on_c, 5, 68, 39
11, 20644, Note_on_c, 5, 73, 52
11, 20644, Note_on_c, 5, 49, 43
11, 20644, Note_on_c, 5, 34, 28
11, 21120, Note_off_c, 5, 34, 64
11, 21120, Note_off_c, 5, 49, 64
11, 21120, Note_off_c, 5, 73, 64
11, 21120, Note_off_c, 5, 68, 64
11, 21120, Note_off_c, 5, 65, 64
11, 21120, Note_off_c, 5, 77, 64
11, 21120, Note_on_c, 5, 77, 39
11, 21120, Note_on_c, 5, 67, 38
11, 21120, Note_on_c, 5, 70, 39
11, 21124, Note_on_c, 5, 73, 52
11, 21124, Note_on_c, 5, 53, 43
11, 21124, Note_on_c, 5, 37, 28
11, 22080, Note_off_c, 5, 37, 64
11, 22080, Note_off_c, 5, 53, 64
11, 22080, Note_off_c, 5, 73, 64
11, 22080, Note_off_c, 5, 70, 64
11, 22080, Note_off_c, 5, 67, 64
11, 22080, Note_off_c, 5, 77, 64
11, 22080, Note_on_c, 5, 82, 33
11, 22080, Note_on_c, 5, 67, 38
11, 22080, Note_on_c, 5, 73, 39
11, 22084, Note_on_c, 5, 76, 38
11, 22084, Note_on_c, 5, 58, 43
11, 22084, Note_on_c, 5, 48, 28
11, 23040, Note_off_c, 5, 48, 64
11, 23040, Note_off_c, 5, 58, 64
11, 23040, Note_off_c, 5, 76, 64
11, 23040, Note_off_c, 5, 73, 64
11, 23040, Note_off_c, 5, 67, 64
11, 23040, Note_off_c, 5, 82, 64
11, 23040, Note_on_c, 5, 76, 39
11, 23040, Note_on_c, 5, 67, 38
11, 23040, Note_on_c, 5, 69, 39
11, 23044, Note_on_c, 5, 72, 52
11, 23044, Note_on_c, 5, 52, 43
11, 23044, Note_on_c, 5, 36, 28
11, 24000, Note_off_c, 5, 36, 64
11, 24000, Note_off_c, 5, 52, 64
11, 24000, Note_off_c, 5, 72, 64
11, 24000, Note_off_c, 5, 69, 64
11, 24000, Note_off_c, 5, 67, 64
11, 24000, Note_off_c, 5, 76, 64
11, 24000, Note_on_c, 5, 70, 39
11, 24000, Note_on_c, 5, 67, 38
11, 24000, Note_on_c, 5, 79, 39
11, 24004, Note_on_c, 5, 36, 28
11, 24004, Note_on_c, 5, 51, 43
11, 24004, Note_on_c, 5, 75, 52
11, 24480, Note_off_c, 5, 75, 64
11, 24480, Note_off_c, 5, 51, 64
11, 24480, Note_off_c, 5, 36, 64
11, 24480, Note_off_c, 5, 79, 64
11, 24480, Note_off_c, 5, 67, 64
11, 24480, Note_off_c, 5, 70, 64
11, 24480, Note_on_c, 5, 81, 33
11, 24480, Note_on_c, 5, 66, 38
11, 24480, Note_on_c, 5, 72, 39
11, 24484, Note_on_c, 5, 75, 38
11, 24484, Note_on_c, 5, 57, 43
11, 24484, Note_on_c, 5, 41, 28
11, 24960, Note_off_c, 5, 41, 64
11, 24960, Note_off_c, 5, 57, 64
11, 24960, Note_off_c, 5, 75, 64
11, 24960, Note_off_c, 5, 72, 64
11, 24960, Note_off_c, 5, 66, 64
11, 24960, Note_off_c, 5, 81, 64
11, 24960, Note_on_c, 5, 77, 39
11, 24960, Note_on_c, 5, 65, 38
11, 24960, Note_on_c, 5, 69, 39
11, 24964, Note_on_c, 5, 74, 52
11, 24964, Note_on_c, 5, 50, 43
11, 24964, Note_on_c, 5, 34, 28
11, 25920, Note_off_c, 5, 34, 64
11, 25920, Note_off_c, 5, 50, 64
11, 25920, Note_off_c, 5, 74, 64
11, 25920, Note_off_c, 5, 69, 64
11, 25920, Note_off_c, 5, 65, 64
11, 25920, Note_off_c, 5, 77, 64
11, 25920, Note_on_c, 5, 70, 39
11, 25920, Note_on_c, 5, 69, 38
11, 25920, Note_on_c, 5, 77, 39
11, 25924, Note_on_c, 5, 38, 28
11, 25924, Note_on_c, 5, 53, 43
11, 25924, Note_on_c, 5, 74, 52
11, 26400, Note_off_c, 5, 74, 64
11, 26400, Note_off_c, 5, 53, 64
11, 26400, Note_off_c, 5, 38, 64
11, 26400, Note_off_c, 5, 77, 64
11, 26400, Note_off_c, 5, 69, 64
11, 26400, Note_off_c, 5, 70, 64
11, 26400, Note_on_c, 5, 81, 39
11, 26400, Note_on_c, 5, 67, 38
11, 26400, Note_on_c, 5, 70, 39
11, 26404, Note_on_c, 5, 76, 52
11, 26404, Note_on_c, 5, 52, 43
11, 26404, Note_on_c, 5, 36, 28
11, 26880, Note_off_c, 5, 36, 64
11, 26880, Note_off_c, 5, 52, 64
11, 26880, Note_off_c, 5, 76, 64
11, 26880, Note_off_c, 5, 70, 64
11, 26880, Note_off_c, 5, 67, 64
11, 26880, Note_off_c, 5, 81, 64
11, 26880, Note_on_c, 5, 79, 33
11, 26880, Note_on_c, 5, 64, 38
11, 26880, Note_on_c, 5, 69, 39
11, 26884, Note_on_c, 5, 72, 38
11, 26884, Note_on_c, 5, 55, 43
11, 26884, Note_on_c, 5, 45, 28
11, 27840, Note_off_c, 5, 45, 64
11, 27840, Note_off_c, 5, 55, 64
11, 27840, Note_off_c, 5, 72, 64
11, 27840, Note_off_c, 5, 69, 64
11, 27840, Note_off_c, 5, 64, 64
11, 27840, Note_off_c, 5, 79, 64
11, 27840, Note_on_c, 5, 80, 39
11, 27840, Note_on_c, 5, 68, 38
11, 27840, Note_on_c, 5, 71, 39
11, 27844, Note_on_c, 5, 77, 52
11, 27844, Note_on_c, 5, 53, 43
11, 27844, Note_on_c, 5, 44, 28
11, 28800, Note_off_c, 5, 44, 64
11, 28800, Note_off_c, 5, 53, 64
11, 28800, Note_off_c, 5, 77, 64
11, 28800, Note_off_c, 5, 71, 64
11, 28800, Note_off_c, 5, 68, 64
11, 28800, Note_off_c, 5, 80, 64
11, 28800, Note_on_c, 5, 77, 39
11, 28800, Note_on_c, 5, 67, 38
11, 28800, Note_on_c, 5, 70, 39
11, 28804, Note_on_c, 5, 74, 52
11, 28804, Note_on_c, 5, 53, 43
11, 28804, Note_on_c, 5, 38, 28
11, 29760, Note_off_c, 5, 38, 64
11, 29760, Note_off_c, 5, 53, 64
11, 29760, Note_off_c, 5, 74, 64
11, 29760, Note_off_c, 5, 70, 64
11, 29760, Note_off_c, 5, 67, 64
11, 29760, Note_off_c, 5, 77, 64
11, 29760, Note_on_c, 5, 74, 39
11, 29760, Note_on_c, 5, 67, 38
11, 29760, Note_on_c, 5, 82, 33
11, 29764, Note_on_c, 5, 48, 28
11, 29764, Note_on_c, 5, 58, 43
11, 29764, Note_on_c, 5, 76, 38
11, 30240, Note_off_c, 5, 76, 64
11, 30240, Note_off_c, 5, 58, 64
11, 30240, Note_off_c, 5, 48, 64
11, 30240, Note_off_c, 5, 82, 64
11, 30240, Note_off_c, 5, 67, 64
11, 30240, Note_off_c, 5, 74, 64
11, 30240, Note_on_c, 5, 82, 33
11, 30240, Note_on_c, 5, 67, 38
11, 30240, Note_on_c, 5, 73, 39
11, 30244, Note_on_c, 5, 76, 38
11, 30244, Note_on_c, 5, 58, 43
11, 30244, Note_on_c, 5, 48, 28
11, 30720, Note_off_c, 5, 48, 64
11, 30720, Note_off_c, 5, 58, 64
11, 30720, Note_off_c, 5, 76, 64
11, 30720, Note_off_c, 5, 73, 64
11, 30720, Note_off_c, 5, 67, 64
11, 30720, Note_off_c, 5, 82, 64
11, 31196, Note_on_c, 5, 41, 26
11, 31204, Note_on_c, 5, 74, 27
11, 31204, Note_on_c, 5, 57, 42
11, 31204, Note_on_c, 5, 62, 39
11, 31208, Note_on_c, 5, 72, 36
11, 31208, Note_on_c, 5, 69, 39
11, 31212, Note_on_c, 5, 67, 12
11, 31356, Control_c, 5, 64, 127
11, 31680, Note_off_c, 5, 67, 64
11, 31680, Note_off_c, 5, 69, 64
11, 31680, Note_off_c, 5, 72, 64
11, 31680, Note_off_c, 5, 62, 64
11, 31680, Note_off_c, 5, 57, 64
11, 31680, Note_off_c, 5, 74, 64
11, 31680, Note_off_c, 5, 41, 64
11, 31680, Control_c, 5, 64, 0
11, 31680, Note_on_c, 5, 73, 39
11, 31680, Note_on_c, 5, 67, 38
11, 31680, Note_on_c, 5, 82, 33
11, 31684, Note_on_c, 5, 43, 28
11, 31684, Note_on_c, 5, 58, 43
11, 31684, Note_on_c, 5, 77, 38
11, 32160, Note_off_c, 5, 77, 64
11, 32160, Note_off_c, 5, 58, 64
11, 32160, Note_off_c, 5, 43, 64
11, 32160, Note_off_c, 5, 82, 64
11, 32160, Note_off_c, 5, 67, 64
11, 32160, Note_off_c, 5, 73, 64
11, 32160, Note_on_c, 5, 82, 33
11, 32160, Note_on_c, 5, 68, 38
11, 32160, Note_on_c, 5, 73, 39
11, 32164, Note_on_c, 5, 76, 38
11, 32164, Note_on_c, 5, 58, 43
11, 32164, Note_on_c, 5, 48, 28
11, 32640, Note_off_c, 5, 48, 64
11, 32640, Note_off_c, 5, 58, 64
11, 32640, Note_off_c, 5, 76, 64
11, 32640, Note_off_c, 5, 73, 64
11, 32640, Note_off_c, 5, 68, 64
11, 32640, Note_off_c, 5, 82, 64
11, 32640, Note_on_c, 5, 72, 39
11, 32640, Note_on_c, 5, 68, 38
11, 32640, Note_on_c, 5, 77, 39
11, 32644, Note_on_c, 5, 36, 28
11, 32644, Note_on_c, 5, 53, 43
11, 33120, Note_off_c, 5, 53, 64
11, 33120, Note_off_c, 5, 36, 64
11, 33120, Note_off_c, 5, 77, 64
11, 33120, Note_off_c, 5, 68, 64
11, 33120, Note_off_c, 5, 72, 64
11, 33120, Note_on_c, 5, 82, 33
11, 33120, Note_on_c, 5, 69, 38
11, 33120, Note_on_c, 5, 72, 39
11, 33124, Note_on_c, 5, 76, 38
11, 33124, Note_on_c, 5, 58, 43
11, 33124, Note_on_c, 5, 52, 28
11, 33600, Note_off_c, 5, 52, 64
11, 33600, Note_off_c, 5, 58, 64
11, 33600, Note_off_c, 5, 76, 64
11, 33600, Note_off_c, 5, 72, 64
11, 33600, Note_off_c, 5, 69, 64
11, 33600, Note_off_c, 5, 82, 64
11, 33600, Note_on_c, 5, 72, 39
11, 33600, Note_on_c, 5, 68, 38
11, 33600, Note_on_c, 5, 82, 39
11, 33604, Note_on_c, 5, 39, 28
11, 33604, Note_on_c, 5, 54, 43
11, 33604, Note_on_c, 5, 78, 52
11, 34080, Note_off_c, 5, 78, 64
11, 34080, Note_off_c, 5, 54, 64
11, 34080, Note_off_c, 5, 39, 64
11, 34080, Note_off_c, 5, 82, 64
11, 34080, Note_off_c, 5, 68, 64
11, 34080, Note_off_c, 5, 72, 64
11, 34080, Note_on_c, 5, 84, 33
11, 34080, Note_on_c, 5, 69, 38
11, 34080, Note_on_c, 5, 76, 39
11, 34084, Note_on_c, 5, 78, 38
11, 34084, Note_on_c, 5, 60, 43
11, 34084, Note_on_c, 5, 50, 28
11, 34560, Note_off_c, 5, 50, 64
11, 34560, Note_off_c, 5, 60, 64
11, 34560, Note_off_c, 5, 78, 64
11, 34560, Note_off_c, 5, 76, 64
11, 34560, Note_off_c, 5, 69, 64
11, 34560, Note_off_c, 5, 84, 64
11, 34560, Note_on_c, 5, 75, 39
11, 34560, Note_on_c, 5, 68, 38
11, 34560, Note_on_c, 5, 84, 33
11, 34564, Note_on_c, 5, 49, 28
11, 34564, Note_on_c, 5, 60, 43
11, 34564, Note_on_c, 5, 77, 38
11, 35040, Note_off_c, 5, 77, 64
11, 35040, Note_off_c, 5, 60, 64
11, 35040, Note_off_c, 5, 49, 64
11, 35040, Note_off_c, 5, 84, 64
11, 35040, Note_off_c, 5, 68, 64
11, 35040, Note_off_c, 5, 75, 64
11, 35040, Note_on_c, 5, 82, 33
11, 35040, Note_on_c, 5, 67, 38
11, 35040, Note_on_c, 5, 74, 39
11, 35044, Note_on_c, 5, 75, 38
11, 35044, Note_on_c, 5, 58, 43
11, 35044, Note_on_c, 5, 48, 28
11, 35520, Note_off_c, 5, 48, 64
11, 35520, Note_off_c, 5, 58, 64
11, 35520, Note_off_c, 5, 75, 64
11, 35520, Note_off_c, 5, 74, 64
11, 35520, Note_off_c, 5, 67, 64
11, 35520, Note_off_c, 5, 82, 64
11, 35520, Note_on_c, 5, 70, 39
11, 35520, Note_on_c, 5, 65, 38
11, 35520, Note_on_c, 5, 77, 39
11, 35524, Note_on_c, 5, 34, 28
11, 35524, Note_on_c, 5, 49, 43
11, 35524, Note_on_c, 5, 73, 52
11, 36000, Note_off_c, 5, 73, 64
11, 36000, Note_off_c, 5, 49, 64
11, 36000, Note_off_c, 5, 34, 64
11, 36000, Note_off_c, 5, 77, 64
11, 36000, Note_off_c, 5, 65, 64
11, 36000, Note_off_c, 5, 70, 64
11, 36000, Note_on_c, 5, 77, 39
11, 36000, Note_on_c, 5, 65, 38
11, 36000, Note_on_c, 5, 68, 39
11, 36004, Note_on_c, 5, 73, 52
11, 36004, Note_on_c, 5, 49, 43
11, 36004, Note_on_c, 5, 34, 28
11, 36480, Note_off_c, 5, 34, 64
11, 36480, Note_off_c, 5, 49, 64
11, 36480, Note_off_c, 5, 73, 64
11, 36480, Note_off_c, 5, 68, 64
11, 36480, Note_off_c, 5, 65, 64
11, 36480, Note_off_c, 5, 77, 64
11, 36480, Note_on_c, 5, 77, 39
11, 36480, Note_on_c, 5, 67, 38
11, 36480, Note_on_c, 5, 70, 39
11, 36484, Note_on_c, 5, 73, 52
11, 36484, Note_on_c, 5, 53, 43
11, 36484, Note_on_c, 5, 37, 28
11, 37440, Note_off_c, 5, 37, 64
11, 37440, Note_off_c, 5, 53, 64
11, 37440, Note_off_c, 5, 73, 64
11, 37440, Note_off_c, 5, 70, 64
11, 37440, Note_off_c, 5, 67, 64
11, 37440, Note_off_c, 5, 77, 64
11, 37440, Note_on_c, 5, 82, 33
11, 37440, Note_on_c, 5, 68, 38
11, 37440, Note_on_c, 5, 73, 39
11, 37444, Note_on_c, 5, 76, 38
11, 37444, Note_on_c, 5, 58, 43
11, 37444, Note_on_c, 5, 48, 28
11, 38400, Note_off_c, 5, 48, 64
11, 38400, Note_off_c, 5, 58, 64
11, 38400, Note_off_c, 5, 76, 64
11, 38400, Note_off_c, 5, 73, 64
11, 38400, Note_off_c, 5, 68, 64
11, 38400, Note_off_c, 5, 82, 64
11, 38400, Note_on_c, 5, 79, 39
11, 38400, Note_on_c, 5, 67, 38
11, 38400, Note_on_c, 5, 69, 39
11, 38404, Note_on_c, 5, 76, 52
11, 38404, Note_on_c, 5, 52, 43
11, 38404, Note_on_c, 5, 41, 28
11, 39360, Note_off_c, 5, 41, 64
11, 39360, Note_off_c, 5, 52, 64
11, 39360, Note_off_c, 5, 76, 64
11, 39360, Note_off_c, 5, 69, 64
11, 39360, Note_off_c, 5, 67, 64
11, 39360, Note_off_c, 5, 79, 64
11, 39360, Note_on_c, 5, 70, 39
11, 39360, Note_on_c, 5, 67, 38
11, 39360, Note_on_c, 5, 79, 39
11, 39364, Note_on_c, 5, 36, 28
11, 39364, Note_on_c, 5, 51, 43
11, 39364, Note_on_c, 5, 75, 52
11, 39840, Note_off_c, 5, 75, 64
11, 39840, Note_off_c, 5, 51, 64
11, 39840, Note_off_c, 5, 36, 64
11, 39840, Note_off_c, 5, 79, 64
11, 39840, Note_off_c, 5, 67, 64
11, 39840, Note_off_c, 5, 70, 64
11, 39840, Note_on_c, 5, 78, 39
11, 39840, Note_on_c, 5, 65, 38
11, 39840, Note_on_c, 5, 69, 39
11, 39844, Note_on_c, 5, 75, 52
11, 39844, Note_on_c, 5, 51, 43
11, 39844, Note_on_c, 5, 41, 28
11, 40320, Note_off_c, 5, 41, 64
11, 40320, Note_off_c, 5, 51, 64
11, 40320, Note_off_c, 5, 75, 64
11, 40320, Note_off_c, 5, 69, 64
11, 40320, Note_off_c, 5, 65, 64
11, 40320, Note_off_c, 5, 78, 64
11, 40320, Note_on_c, 5, 80, 33
11, 40320, Note_on_c, 5, 65, 38
11, 40320, Note_on_c, 5, 72, 39
11, 40324, Note_on_c, 5, 73, 38
11, 40324, Note_on_c, 5, 56, 43
11, 40324, Note_on_c, 5, 46, 28
11, 41280, Note_off_c, 5, 46, 64
11, 41280, Note_off_c, 5, 56, 64
11, 41280, Note_off_c, 5, 73, 64
11, 41280, Note_off_c, 5, 72, 64
11, 41280, Note_off_c, 5, 65, 64
11, 41280, Note_off_c, 5, 80, 64
11, 41756, Note_on_c, 5, 39, 26
11, 41764, Note_on_c, 5, 73, 27
11, 41764, Note_on_c, 5, 55, 42
11, 41764, Note_on_c, 5, 61, 39
11, 41768, Note_on_c, 5, 72, 36
11, 41768, Note_on_c, 5, 67, 39
11, 41772, Note_on_c, 5, 63, 12
11, 41916, Control_c, 5, 64, 127
11, 42240, Note_off_c, 5, 63, 64
11, 42240, Note_off_c, 5, 67, 64
11, 42240, Note_off_c, 5, 72, 64
11, 42240, Note_off_c, 5, 61, 64
11, 42240, Note_off_c, 5, 55, 64
11, 42240, Note_off_c, 5, 73, 64
11, 42240, Note_off_c, 5, 39, 64
11, 42240, Note_on_c, 5, 82, 39
11, 42240, Note_on_c, 5, 70, 38
11, 42240, Note_on_c, 5, 72, 39
11, 42240, Control_c, 5, 64, 0
11, 42244, Note_on_c, 5, 79, 52
11, 42244, Note_on_c, 5, 55, 43
11, 42244, Note_on_c, 5, 44, 28
11, 43200, Note_off_c, 5, 44, 64
11, 43200, Note_off_c, 5, 55, 64
11, 43200, Note_off_c, 5, 79, 64
11, 43200, Note_off_c, 5, 72, 64
11, 43200, Note_off_c, 5, 70, 64
11, 43200, Note_off_c, 5, 82, 64
11, 43200, Note_on_c, 5, 80, 39
11, 43200, Note_on_c, 5, 68, 38
11, 43200, Note_on_c, 5, 72, 39
11, 43204, Note_on_c, 5, 77, 52
11, 43204, Note_on_c, 5, 53, 43
11, 43204, Note_on_c, 5, 37, 28
11, 44160, Note_off_c, 5, 37, 64
11, 44160, Note_off_c, 5, 53, 64
11, 44160, Note_off_c, 5, 77, 64
11, 44160, Note_off_c, 5, 72, 64
11, 44160, Note_off_c, 5, 68, 64
11, 44160, Note_off_c, 5, 80, 64
11, 44160, Note_on_c, 5, 79, 39
11, 44160, Note_on_c, 5, 67, 38
11, 44160, Note_on_c, 5, 70, 39
11, 44164, Note_on_c, 5, 77, 52
11, 44164, Note_on_c, 5, 53, 43
11, 44164, Note_on_c, 5, 43, 28
11, 45120, Note_off_c, 5, 43, 64
11, 45120, Note_off_c, 5, 53, 64
11, 45120, Note_off_c, 5, 77, 64
11, 45120, Note_off_c, 5, 70, 64
11, 45120, Note_off_c, 5, 67, 64
11, 45120, Note_off_c, 5, 79, 64
11, 45120, Note_on_c, 5, 70, 39
11, 45120, Note_on_c, 5, 69, 38
11, 45120, Note_on_c, 5, 81, 39
11, 45124, Note_on_c, 5, 36, 28
11, 45124, Note_on_c, 5, 52, 43
11, 45124, Note_on_c, 5, 76, 52
11, 45600, Note_off_c, 5, 76, 64
11, 45600, Note_off_c, 5, 52, 64
11, 45600, Note_off_c, 5, 36, 64
11, 45600, Note_off_c, 5, 81, 64
11, 45600, Note_off_c, 5, 69, 64
11, 45600, Note_off_c, 5, 70, 64
11, 45600, Note_on_c, 5, 79, 39
11, 45600, Note_on_c, 5, 67, 38
11, 45600, Note_on_c, 5, 70, 39
11, 45604, Note_on_c, 5, 76, 52
11, 45604, Note_on_c, 5, 52, 43
11, 45604, Note_on_c, 5, 36, 28
11, 46080, Note_off_c, 5, 36, 64
11, 46080, Note_off_c, 5, 52, 64
11, 46080, Note_off_c, 5, 76, 64
11, 46080, Note_off_c, 5, 70, 64
11, 46080, Note_off_c, 5, 67, 64
11, 46080, Note_off_c, 5, 79, 64
11, 46080, Note_on_c, 5, 76, 39
11, 46080, Note_on_c, 5, 67, 38
11, 46080, Note_on_c, 5, 69, 39
11, 46084, Note_on_c, 5, 72, 52
11, 46084, Note_on_c, 5, 52, 43
11, 46084, Note_on_c, 5, 36, 28
11, 47040, Note_off_c, 5, 36, 64
11, 47040, Note_off_c, 5, 52, 64
11, 47040, Note_off_c, 5, 72, 64
11, 47040, Note_off_c, 5, 69, 64
11, 47040, Note_off_c, 5, 67, 64
11, 47040, Note_off_c, 5, 76, 64
11, 47040, Note_on_c, 5, 70, 39
11, 47040, Note_on_c, 5, 67, 38
11, 47040, Note_on_c, 5, 77, 39
11, 47044, Note_on_c, 5, 37, 28
11, 47044, Note_on_c, 5, 53, 43
11, 47044, Note_on_c, 5, 73, 52
11, 47520, Note_off_c, 5, 73, 64
11, 47520, Note_off_c, 5, 53, 64
11, 47520, Note_off_c, 5, 37, 64
11, 47520, Note_off_c, 5, 77, 64
11, 47520, Note_off_c, 5, 67, 64
11, 47520, Note_off_c, 5, 70, 64
11, 47520, Note_on_c, 5, 82, 33
11, 47520, Note_on_c, 5, 68, 38
11, 47520, Note_on_c, 5, 73, 39
11, 47524, Note_on_c, 5, 76, 38
11, 47524, Note_on_c, 5, 58, 43
11, 47524, Note_on_c, 5, 48, 28
11, 48000, Note_off_c, 5, 48, 64
11, 48000, Note_off_c, 5, 58, 64
11, 48000, Note_off_c, 5, 76, 64
11, 48000, Note_off_c, 5, 73, 64
11, 48000, Note_off_c, 5, 68, 64
11, 48000, Note_off_c, 5, 82, 64
11, 48000, Note_on_c, 5, 72, 39
11, 48000, Note_on_c, 5, 65, 38
11, 48000, Note_on_c, 5, 80, 33
11, 48004, Note_on_c, 5, 41, 28
11, 48004, Note_on_c, 5, 56, 43
11, 48004, Note_on_c, 5, 75, 38
11, 48480, Note_off_c, 5, 75, 64
11, 48480, Note_off_c, 5, 56, 64
11, 48480, Note_off_c, 5, 41, 64
11, 48480, Note_off_c, 5, 80, 64
11, 48480, Note_off_c, 5, 65, 64
11, 48480, Note_off_c, 5, 72, 64
11, 48480, Note_on_c, 5, 79, 39
11, 48480, Note_on_c, 5, 67, 38
11, 48480, Note_on_c, 5, 70, 39
11, 48484, Note_on_c, 5, 76, 52
11, 48484, Note_on_c, 5, 52, 43
11, 48484, Note_on_c, 5, 40, 28
11, 48960, Note_off_c, 5, 40, 64
11, 48960, Note_off_c, 5, 52, 64
11, 48960, Note_off_c, 5, 76, 64
11, 48960, Note_off_c, 5, 70, 64
11, 48960, Note_off_c, 5, 67, 64
11, 48960, Note_off_c, 5, 79, 64
11, 48960, Note_on_c, 5, 72, 39
11, 48960, Note_on_c, 5, 70, 38
11, 48960, Note_on_c, 5, 82, 39
11, 48964, Note_on_c, 5, 39, 28
11, 48964, Note_on_c, 5, 54, 43
11, 48964, Note_on_c, 5, 78, 52
11, 49440, Note_off_c, 5, 78, 64
11, 49440, Note_off_c, 5, 54, 64
11, 49440, Note_off_c, 5, 39, 64
11, 49440, Note_off_c, 5, 82, 64
11, 49440, Note_off_c, 5, 70, 64
11, 49440, Note_off_c, 5, 72, 64
11, 49440, Note_on_c, 5, 84, 33
11, 49440, Note_on_c, 5, 69, 38
11, 49440, Note_on_c, 5, 74, 39
11, 49444, Note_on_c, 5, 78, 38
11, 49444, Note_on_c, 5, 60, 43
11, 49444, Note_on_c, 5, 50, 28
11, 49920, Note_off_c, 5, 50, 64
11, 49920, Note_off_c, 5, 60, 64
11, 49920, Note_off_c, 5, 78, 64
11, 49920, Note_off_c, 5, 74, 64
11, 49920, Note_off_c, 5, 69, 64
11, 49920, Note_off_c, 5, 84, 64
11, 49920, Note_on_c, 5, 75, 39
11, 49920, Note_on_c, 5, 68, 38
11, 49920, Note_on_c, 5, 84, 33
11, 49924, Note_on_c, 5, 49, 28
11, 49924, Note_on_c, 5, 60, 43
11, 49924, Note_on_c, 5, 77, 38
11, 50400, Note_off_c, 5, 77, 64
11, 50400, Note_off_c, 5, 60, 64
11, 50400, Note_off_c, 5, 49, 64
11, 50400, Note_off_c, 5, 84, 64
11, 50400, Note_off_c, 5, 68, 64
11, 50400, Note_off_c, 5, 75, 64
11, 50400, Note_on_c, 5, 79, 39
11, 50400, Note_on_c, 5, 67, 38
11, 50400, Note_on_c, 5, 72, 39
11, 50404, Note_on_c, 5, 75, 52
11, 50404, Note_on_c, 5, 51, 43
11, 50404, Note_on_c, 5, 36, 28
11, 50880, Note_off_c, 5, 36, 64
11, 50880, Note_off_c, 5, 51, 64
11, 50880, Note_off_c, 5, 75, 64
11, 50880, Note_off_c, 5, 72, 64
11, 50880, Note_off_c, 5, 67, 64
11, 50880, Note_off_c, 5, 79, 64
11, 50880, Note_on_c, 5, 73, 39
11, 50880, Note_on_c, 5, 65, 38
11, 50880, Note_on_c, 5, 82, 33
11, 50884, Note_on_c, 5, 46, 28
11, 50884, Note_on_c, 5, 58, 43
11, 51360, Note_off_c, 5, 58, 64
11, 51360, Note_off_c, 5, 46, 64
11, 51360, Note_off_c, 5, 82, 64
11, 51360, Note_off_c, 5, 65, 64
11, 51360, Note_off_c, 5, 73, 64
11, 51360, Note_on_c, 5, 80, 33
11, 51360, Note_on_c, 5, 65, 38
11, 51360, Note_on_c, 5, 72, 39
11, 51364, Note_on_c, 5, 73, 38
11, 51364, Note_on_c, 5, 56, 43
11, 51364, Note_on_c, 5, 46, 28
11, 51840, Note_off_c, 5, 46, 64
11, 51840, Note_off_c, 5, 56, 64
11, 51840, Note_off_c, 5, 73, 64
11, 51840, Note_off_c, 5, 72, 64
11, 51840, Note_off_c, 5, 65, 64
11, 51840, Note_off_c, 5, 80, 64
11, 51840, Note_on_c, 5, 77, 39
11, 51840, Note_on_c, 5, 67, 38
11, 51840, Note_on_c, 5, 70, 39
11, 51844, Note_on_c, 5, 73, 52
11, 51844, Note_on_c, 5, 53, 43
11, 51844, Note_on_c, 5, 37, 28
11, 52800, Note_off_c, 5, 37, 64
11, 52800, Note_off_c, 5, 53, 64
11, 52800, Note_off_c, 5, 73, 64
11, 52800, Note_off_c, 5, 70, 64
11, 52800, Note_off_c, 5, 67, 64
11, 52800, Note_off_c, 5, 77, 64
11, 52800, Note_on_c, 5, 82, 33
11, 52800, Note_on_c, 5, 68, 38
11, 52800, Note_on_c, 5, 73, 39
11, 52804, Note_on_c, 5, 76, 38
11, 52804, Note_on_c, 5, 58, 43
11, 52804, Note_on_c, 5, 48, 28
11, 53760, Note_off_c, 5, 48, 64
11, 53760, Note_off_c, 5, 58, 64
11, 53760, Note_off_c, 5, 76, 64
11, 53760, Note_off_c, 5, 73, 64
11, 53760, Note_off_c, 5, 68, 64
11, 53760, Note_off_c, 5, 82, 64
11, 53760, Note_on_c, 5, 81, 33
11, 53760, Note_on_c, 5, 67, 38
11, 53760, Note_on_c, 5, 72, 39
11, 53764, Note_on_c, 5, 76, 38
11, 53764, Note_on_c, 5, 57, 43
11, 53764, Note_on_c, 5, 41, 28
11, 54720, Note_off_c, 5, 41, 64
11, 54720, Note_off_c, 5, 57, 64
11, 54720, Note_off_c, 5, 76, 64
11, 54720, Note_off_c, 5, 72, 64
11, 54720, Note_off_c, 5, 67, 64
11, 54720, Note_off_c, 5, 81, 64
11, 54720, Note_on_c, 5, 70, 39
11, 54720, Note_on_c, 5, 67, 38
11, 54720, Note_on_c, 5, 79, 39
11, 54724, Note_on_c, 5, 36, 28
11, 54724, Note_on_c, 5, 51, 43
11, 54724, Note_on_c, 5, 75, 52
11, 55200, Note_off_c, 5, 75, 64
11, 55200, Note_off_c, 5, 51, 64
11, 55200, Note_off_c, 5, 36, 64
11, 55200, Note_off_c, 5, 79, 64
11, 55200, Note_off_c, 5, 67, 64
11, 55200, Note_off_c, 5, 70, 64
11, 55200, Note_on_c, 5, 81, 33
11, 55200, Note_on_c, 5, 66, 38
11, 55200, Note_on_c, 5, 73, 39
11, 55204, Note_on_c, 5, 75, 38
11, 55204, Note_on_c, 5, 57, 43
11, 55204, Note_on_c, 5, 41, 28
11, 55680, Note_off_c, 5, 41, 64
11, 55680, Note_off_c, 5, 57, 64
11, 55680, Note_off_c, 5, 75, 64
11, 55680, Note_off_c, 5, 73, 64
11, 55680, Note_off_c, 5, 66, 64
11, 55680, Note_off_c, 5, 81, 64
11, 55680, Note_on_c, 5, 81, 33
11, 55680, Note_on_c, 5, 65, 38
11, 55680, Note_on_c, 5, 72, 39
11, 55684, Note_on_c, 5, 74, 38
11, 55684, Note_on_c, 5, 57, 43
11, 55684, Note_on_c, 5, 46, 28
11, 56640, Note_off_c, 5, 46, 64
11, 56640, Note_off_c, 5, 57, 64
11, 56640, Note_off_c, 5, 74, 64
11, 56640, Note_off_c, 5, 72, 64
11, 56640, Note_off_c, 5, 65, 64
11, 56640, Note_off_c, 5, 81, 64
11, 56640, Note_on_c, 5, 70, 39
11, 56640, Note_on_c, 5, 67, 38
11, 56640, Note_on_c, 5, 77, 39
11, 56644, Note_on_c, 5, 38, 28
11, 56644, Note_on_c, 5, 53, 43
11, 56644, Note_on_c, 5, 74, 52
11, 57120, Note_off_c, 5, 74, 64
11, 57120, Note_off_c, 5, 53, 64
11, 57120, Note_off_c, 5, 38, 64
11, 57120, Note_off_c, 5, 77, 64
11, 57120, Note_off_c, 5, 67, 64
11, 57120, Note_off_c, 5, 70, 64
11, 57120, Note_on_c, 5, 82, 33
11, 57120, Note_on_c, 5, 67, 38
11, 57120, Note_on_c, 5, 72, 39
11, 57124, Note_on_c, 5, 76, 38
11, 57124, Note_on_c, 5, 58, 43
11, 57124, Note_on_c, 5, 48, 28
11, 57600, Note_off_c, 5, 48, 64
11, 57600, Note_off_c, 5, 58, 64
11, 57600, Note_off_c, 5, 76, 64
11, 57600, Note_off_c, 5, 72, 64
11, 57600, Note_off_c, 5, 67, 64
11, 57600, Note_off_c, 5, 82, 64
11, 57600, Note_on_c, 5, 76, 39
11, 57600, Note_on_c, 5, 64, 38
11, 57600, Note_on_c, 5, 67, 39
11, 57604, Note_on_c, 5, 72, 52
11, 57604, Note_on_c, 5, 48, 43
11, 57604, Note_on_c, 5, 45, 28
11, 58560, Note_off_c, 5, 45, 64
11, 58560, Note_off_c, 5, 48, 64
11, 58560, Note_off_c, 5, 72, 64
11, 58560, Note_off_c, 5, 67, 64
11, 58560, Note_off_c, 5, 64, 64
11, 58560, Note_off_c, 5, 76, 64
11, 58560, Note_on_c, 5, 77, 39
11, 58560, Note_on_c, 5, 68, 38
11, 58560, Note_on_c, 5, 71, 39
11, 58564, Note_on_c, 5, 74, 52
11, 58564, Note_on_c, 5, 53, 43
11, 58564, Note_on_c, 5, 38, 28
11, 59520, Note_off_c, 5, 38, 64
11, 59520, Note_off_c, 5, 53, 64
11, 59520, Note_off_c, 5, 74, 64
11, 59520, Note_off_c, 5, 71, 64
11, 59520, Note_off_c, 5, 68, 64
11, 59520, Note_off_c, 5, 77, 64
11, 59520, Note_on_c, 5, 77, 39
11, 59520, Note_on_c, 5, 69, 38
11, 59520, Note_on_c, 5, 70, 39
11, 59524, Note_on_c, 5, 74, 52
11, 59524, Note_on_c, 5, 53, 43
11, 59524, Note_on_c, 5, 38, 28
11, 60480, Note_off_c, 5, 38, 64
11, 60480, Note_off_c, 5, 53, 64
11, 60480, Note_off_c, 5, 74, 64
11, 60480, Note_off_c, 5, 70, 64
11, 60480, Note_off_c, 5, 69, 64
11, 60480, Note_off_c, 5, 77, 64
11, 60480, Note_on_c, 5, 74, 39
11, 60480, Note_on_c, 5, 69, 38
11, 60480, Note_on_c, 5, 82, 33
11, 60484, Note_on_c, 5, 48, 28
11, 60484, Note_on_c, 5, 58, 43
11, 60484, Note_on_c, 5, 76, 38
11, 60960, Note_off_c, 5, 76, 64
11, 60960, Note_off_c, 5, 58, 64
11, 60960, Note_off_c, 5, 48, 64
11, 60960, Note_off_c, 5, 82, 64
11, 60960, Note_off_c, 5, 69, 64
11, 60960, Note_off_c, 5, 74, 64
11, 60960, Note_on_c, 5, 80, 39
11, 60960, Note_on_c, 5, 68, 38
11, 60960, Note_on_c, 5, 70, 39
11, 60964, Note_on_c, 5, 76, 52
11, 60964, Note_on_c, 5, 52, 43
11, 60964, Note_on_c, 5, 36, 28
11, 61440, Note_off_c, 5, 36, 64
11, 61440, Note_off_c, 5, 52, 64
11, 61440, Note_off_c, 5, 76, 64
11, 61440, Note_off_c, 5, 70, 64
11, 61440, Note_off_c, 5, 68, 64
11, 61440, Note_off_c, 5, 80, 64
11, 61916, Note_on_c, 5, 41, 26
11, 61924, Note_on_c, 5, 74, 27
11, 61924, Note_on_c, 5, 57, 42
11, 61924, Note_on_c, 5, 62, 39
11, 61928, Note_on_c, 5, 72, 36
11, 61928, Note_on_c, 5, 69, 39
11, 61932, Note_on_c, 5, 67, 12
11, 62076, Control_c, 5, 64, 127
11, 62400, Note_off_c, 5, 67, 64
11, 62400, Note_off_c, 5, 69, 64
11, 62400, Note_off_c, 5, 72, 64
11, 62400, Note_off_c, 5, 62, 64
11, 62400, Note_off_c, 5, 57, 64
11, 62400, Note_off_c, 5, 74, 64
11, 62400, Note_off_c, 5, 41, 64
11, 62400, Control_c, 5, 64, 0
11, 62400, Note_on_c, 5, 70, 39
11, 62400, Note_on_c, 5, 67, 38
11, 62400, Note_on_c, 5, 77, 39
11, 62404, Note_on_c, 5, 37, 28
11, 62404, Note_on_c, 5, 53, 43
11, 62404, Note_on_c, 5, 73, 52
11, 62880, Note_off_c, 5, 73, 64
11, 62880, Note_off_c, 5, 53, 64
11, 62880, Note_off_c, 5, 37, 64
11, 62880, Note_off_c, 5, 77, 64
11, 62880, Note_off_c, 5, 67, 64
11, 62880, Note_off_c, 5, 70, 64
11, 62880, Note_on_c, 5, 79, 39
11, 62880, Note_on_c, 5, 68, 38
11, 62880, Note_on_c, 5, 70, 39
11, 62884, Note_on_c, 5, 76, 52
11, 62884, Note_on_c, 5, 52, 43
11, 62884, Note_on_c, 5, 36, 28
11, 63360, Note_off_c, 5, 36, 64
11, 63360, Note_off_c, 5, 52, 64
11, 63360, Note_off_c, 5, 76, 64
11, 63360, Note_off_c, 5, 70, 64
11, 63360, Note_off_c, 5, 68, 64
11, 63360, Note_off_c, 5, 79, 64
11, 63360, Note_on_c, 5, 65, 41
11, 63360, Note_on_c, 5, 60, 47
11, 63360, Note_on_c, 5, 56, 26
11, 63360, Note_on_c, 5, 41, 26
11, 63366, Note_on_c, 5, 53, 39
11, 63554, Control_c, 5, 64, 127
11, 63794, Control_c, 5, 0, 0
11, 63840, Note_off_c, 5, 53, 64
11, 63840, Note_off_c, 5, 41, 64
11, 63840, Note_off_c, 5, 56, 64
11, 63840, Note_off_c, 5, 60, 64
11, 63840, Note_off_c, 5, 65, 64
11, 63840, Note_on_c, 5, 52, 26
11, 63840, Note_on_c, 5, 57, 26
11, 63840, Note_on_c, 5, 58, 47
11, 63840, Note_on_c, 5, 64, 41
11, 63840, Control_c, 5, 0, 0
11, 63840, Control_c, 5, 64, 0
11, 63842, Note_on_c, 5, 62, 36
11, 64034, Control_c, 5, 64, 127
11, 64274, Control_c, 5, 0, 0
11, 64320, Note_off_c, 5, 62, 64
11, 64320, Note_off_c, 5, 64, 64
11, 64320, Note_off_c, 5, 58, 64
11, 64320, Note_off_c, 5, 57, 64
11, 64320, Note_off_c, 5, 52, 64
11, 64320, Control_c, 5, 0, 0
11, 64320, Control_c, 5, 64, 0
11, 64320, Note_on_c, 5, 60, 35
11, 64320, Note_on_c, 5, 54, 44
11, 64320, Note_on_c, 5, 39, 34
11, 64320, Note_on_c, 5, 66, 35
11, 64324, Note_on_c, 5, 68, 36
11, 64452, Control_c, 5, 64, 127
11, 64692, Control_c, 5, 0, 0
11, 64800, Note_off_c, 5, 68, 64
11, 64800, Note_off_c, 5, 66, 64
11, 64800, Note_off_c, 5, 39, 64
11, 64800, Note_off_c, 5, 54, 64
11, 64800, Note_off_c, 5, 60, 64
11, 64800, Note_on_c, 5, 50, 35
11, 64800, Note_on_c, 5, 57, 42
11, 64800, Note_on_c, 5, 60, 35
11, 64800, Control_c, 5, 0, 0
11, 64800, Control_c, 5, 64, 0
11, 64856, Note_on_c, 5, 66, 39
11, 64954, Control_c, 5, 64, 127
11, 65194, Control_c, 5, 0, 0
11, 65280, Note_off_c, 5, 66, 64
11, 65280, Note_off_c, 5, 60, 64
11, 65280, Note_off_c, 5, 57, 64
11, 65280, Note_off_c, 5, 50, 64
11, 65280, Control_c, 5, 0, 0
11, 65280, Control_c, 5, 64, 0
11, 65280, Note_on_c, 5, 60, 35
11, 65280, Note_on_c, 5, 53, 44
11, 65280, Note_on_c, 5, 37, 34
11, 65280, Note_on_c, 5, 65, 35
11, 65284, Note_on_c, 5, 68, 36
11, 65412, Control_c, 5, 64, 127
11, 65652, Control_c, 5, 0, 0
11, 65760, Note_off_c, 5, 68, 64
11, 65760, Note_off_c, 5, 65, 64
11, 65760, Note_off_c, 5, 37, 64
11, 65760, Note_off_c, 5, 53, 64
11, 65760, Note_off_c, 5, 60, 64
11, 65760, Note_on_c, 5, 63, 35
11, 65760, Note_on_c, 5, 36, 34
11, 65760, Note_on_c, 5, 51, 44
11, 65760, Note_on_c, 5, 58, 35
11, 65760, Control_c, 5, 0, 0
11, 65760, Control_c, 5, 64, 0
11, 65764, Note_on_c, 5, 67, 36
11, 65892, Control_c, 5, 64, 127
11, 66132, Control_c, 5, 0, 0
11, 66240, Note_off_c, 5, 67, 64
11, 66240, Note_off_c, 5, 58, 64
11, 66240, Note_off_c, 5, 51, 64
11, 66240, Note_off_c, 5, 36, 64
11, 66240, Note_off_c, 5, 63, 64
11, 66240, Control_c, 5, 0, 0
11, 66240, Control_c, 5, 64, 0
11, 66240, Note_on_c, 5, 61, 41
11, 66240, Note_on_c, 5, 58, 47
11, 66240, Note_on_c, 5, 53, 26
11, 66240, Note_on_c, 5, 46, 26
11, 66246, Note_on_c, 5, 49, 39
11, 66434, Control_c, 5, 64, 127
11, 66674, Control_c, 5, 0, 0
11, 66720, Note_off_c, 5, 49, 64
11, 66720, Note_off_c, 5, 46, 64
11, 66720, Note_off_c, 5, 53, 64
11, 66720, Note_off_c, 5, 58, 64
11, 66720, Note_off_c, 5, 61, 64
11, 66720, Note_on_c, 5, 61, 35
11, 66720, Note_on_c, 5, 34, 34
11, 66720, Note_on_c, 5, 49, 44
11, 66720, Note_on_c, 5, 56, 35
11, 66720, Control_c, 5, 0, 0
11, 66720, Control_c, 5, 64, 0
11, 66724, Note_on_c, 5, 65, 36
11, 66852, Control_c, 5, 64, 127
11, 67092, Control_c, 5, 0, 0
11, 67200, Note_off_c, 5, 65, 64
11, 67200, Note_off_c, 5, 56, 64
11, 67200, Note_off_c, 5, 49, 64
11, 67200, Note_off_c, 5, 34, 64
11, 67200, Note_off_c, 5, 61, 64
11, 67200, Note_on_c, 5, 43, 35
11, 67200, Note_on_c, 5, 55, 42
11, 67200, Note_on_c, 5, 58, 35
11, 67200, Control_c, 5, 0, 0
11, 67200, Control_c, 5, 64, 0
11, 67256, Note_on_c, 5, 65, 39
11, 67354, Control_c, 5, 64, 127
11, 67594, Control_c, 5, 0, 0
11, 67834, Control_c, 5, 0, 0
11, 68160, Note_off_c, 5, 65, 64
11, 68160, Note_off_c, 5, 58, 64
11, 68160, Note_off_c, 5, 55, 64
11, 68160, Note_off_c, 5, 43, 64
11, 68160, Note_on_c, 5, 64, 35
11, 68160, Note_on_c, 5, 36, 34
11, 68160, Note_on_c, 5, 52, 44
11, 68160, Note_on_c, 5, 58, 35
11, 68160, Control_c, 5, 64, 0
11, 68164, Note_on_c, 5, 67, 36
11, 68292, Control_c, 5, 64, 127
11, 68532, Control_c, 5, 0, 0
11, 68772, Control_c, 5, 0, 0
11, 69012, Control_c, 5, 0, 0
11, 69120, Note_off_c, 5, 67, 64
11, 69120, Note_off_c, 5, 58, 64
11, 69120, Note_off_c, 5, 52, 64
11, 69120, Note_off_c, 5, 36, 64
11, 69120, Note_off_c, 5, 64, 64
11, 69120, Note_on_c, 5, 41, 35
11, 69120, Note_on_c, 5, 53, 42
11, 69120, Note_on_c, 5, 57, 35
11, 69120, Control_c, 5, 0, 0
11, 69120, Control_c, 5, 64, 0
11, 69176, Note_on_c, 5, 64, 39
11, 69274, Control_c, 5, 64, 127
11, 69514, Control_c, 5, 0, 0
11, 69754, Control_c, 5, 0, 0
11, 70080, Note_off_c, 5, 64, 64
11, 70080, Note_off_c, 5, 57, 64
11, 70080, Note_off_c, 5, 53, 64
11, 70080, Note_off_c, 5, 41, 64
11, 70080, Control_c, 5, 64, 0
11, 70080, Note_on_c, 5, 63, 41
11, 70080, Note_on_c, 5, 58, 47
11, 70080, Note_on_c, 5, 55, 26
11, 70080, Note_on_c, 5, 48, 26
11, 70082, Note_on_c, 5, 60, 36
11, 70086, Note_on_c, 5, 51, 39
11, 70274, Control_c, 5, 64, 127
11, 70514, Control_c, 5, 0, 0
11, 70560, Note_off_c, 5, 51, 64
11, 70560, Note_off_c, 5, 60, 64
11, 70560, Note_off_c, 5, 48, 64
11, 70560, Note_off_c, 5, 55, 64
11, 70560, Note_off_c, 5, 58, 64
11, 70560, Note_off_c, 5, 63, 64
11, 70560, Note_on_c, 5, 63, 35
11, 70560, Note_on_c, 5, 41, 34
11, 70560, Note_on_c, 5, 51, 44
11, 70560, Note_on_c, 5, 57, 35
11, 70560, Control_c, 5, 0, 0
11, 70560, Control_c, 5, 64, 0
11, 70564, Note_on_c, 5, 65, 36
11, 70692, Control_c, 5, 64, 127
11, 70932, Control_c, 5, 0, 0
11, 71040, Note_off_c, 5, 65, 64
11, 71040, Note_off_c, 5, 57, 64
11, 71040, Note_off_c, 5, 51, 64
11, 71040, Note_off_c, 5, 41, 64
11, 71040, Note_off_c, 5, 63, 64
11, 71040, Note_on_c, 5, 46, 35
11, 71040, Note_on_c, 5, 53, 42
11, 71040, Note_on_c, 5, 56, 35
11, 71040, Control_c, 5, 0, 0
11, 71040, Control_c, 5, 64, 0
11, 71096, Note_on_c, 5, 61, 39
11, 71194, Control_c, 5, 64, 127
11, 71434, Control_c, 5, 0, 0
11, 71674, Control_c, 5, 0, 0
11, 72000, Note_off_c, 5, 61, 64
11, 72000, Note_off_c, 5, 56, 64
11, 72000, Note_off_c, 5, 53, 64
11, 72000, Note_off_c, 5, 46, 64
11, 72000, Note_on_c, 5, 61, 35
11, 72000, Note_on_c, 5, 39, 34
11, 72000, Note_on_c, 5, 49, 44
11, 72000, Note_on_c, 5, 55, 35
11, 72000, Control_c, 5, 64, 0
11, 72004, Note_on_c, 5, 63, 36
11, 72132, Control_c, 5, 64, 127
11, 72372, Control_c, 5, 0, 0
11, 72612, Control_c, 5, 0, 0
11, 72852, Control_c, 5, 0, 0
11, 72960, Note_off_c, 5, 63, 64
11, 72960, Note_off_c, 5, 55, 64
11, 72960, Note_off_c, 5, 49, 64
11, 72960, Note_off_c, 5, 39, 64
11, 72960, Note_off_c, 5, 61, 64
11, 72960, Note_on_c, 5, 44, 35
11, 72960, Note_on_c, 5, 56, 42
11, 72960, Note_on_c, 5, 60, 35
11, 72960, Control_c, 5, 0, 0
11, 72960, Control_c, 5, 64, 0
11, 73016, Note_on_c, 5, 67, 39
11, 73114, Control_c, 5, 64, 127
11, 73354, Control_c, 5, 0, 0
11, 73594, Control_c, 5, 0, 0
11, 73920, Note_off_c, 5, 67, 64
11, 73920, Note_off_c, 5, 60, 64
11, 73920, Note_off_c, 5, 56, 64
11, 73920, Note_off_c, 5, 44, 64
11, 73920, Note_on_c, 5, 65, 35
11, 73920, Note_on_c, 5, 37, 34
11, 73920, Note_on_c, 5, 53, 44
11, 73920, Note_on_c, 5, 60, 35
11, 73920, Control_c, 5, 64, 0
11, 73924, Note_on_c, 5, 68, 36
11, 74052, Control_c, 5, 64, 127
11, 74292, Control_c, 5, 0, 0
11, 74532, Control_c, 5, 0, 0
11, 74772, Control_c, 5, 0, 0
11, 74880, Note_off_c, 5, 68, 64
11, 74880, Note_off_c, 5, 60, 64
11, 74880, Note_off_c, 5, 53, 64
11, 74880, Note_off_c, 5, 37, 64
11, 74880, Note_off_c, 5, 65, 64
11, 74880, Note_on_c, 5, 65, 35
11, 74880, Note_on_c, 5, 43, 34
11, 74880, Note_on_c, 5, 53, 44
11, 74880, Note_on_c, 5, 58, 35
11, 74880, Control_c, 5, 0, 0
11, 74880, Control_c, 5, 64, 0
11, 74884, Note_on_c, 5, 67, 36
11, 75012, Control_c, 5, 64, 127
11, 75252, Control_c, 5, 0, 0
11, 75492, Control_c, 5, 0, 0
11, 75732, Control_c, 5, 0, 0
11, 75840, Note_off_c, 5, 67, 64
11, 75840, Note_off_c, 5, 58, 64
11, 75840, Note_off_c, 5, 53, 64
11, 75840, Note_off_c, 5, 43, 64
11, 75840, Note_off_c, 5, 65, 64
11, 75840, Control_c, 5, 0, 0
11, 75840, Control_c, 5, 64, 0
11, 75840, Note_on_c, 5, 58, 35
11, 75840, Note_on_c, 5, 55, 42
11, 75840, Note_on_c, 5, 48, 35
11, 75896, Note_on_c, 5, 64, 39
11, 75994, Control_c, 5, 64, 127
11, 76234, Control_c, 5, 0, 0
11, 76320, Note_off_c, 5, 64, 64
11, 76320, Note_off_c, 5, 48, 64
11, 76320, Note_off_c, 5, 55, 64
11, 76320, Note_off_c, 5, 58, 64
11, 76320, Note_on_c, 5, 48, 26
11, 76320, Note_on_c, 5, 56, 26
11, 76320, Note_on_c, 5, 58, 47
11, 76320, Note_on_c, 5, 64, 41
11, 76320, Control_c, 5, 0, 0
11, 76320, Control_c, 5, 64, 0
11, 76322, Note_on_c, 5, 61, 36
11, 76326, Note_on_c, 5, 52, 39
11, 76514, Control_c, 5, 64, 127
11, 76754, Control_c, 5, 0, 0
11, 76800, Note_off_c, 5, 52, 64
11, 76800, Note_off_c, 5, 61, 64
11, 76800, Note_off_c, 5, 64, 64
11, 76800, Note_off_c, 5, 58, 64
11, 76800, Note_off_c, 5, 56, 64
11, 76800, Note_off_c, 5, 48, 64
11, 76800, Note_on_c, 5, 64, 35
11, 76800, Note_on_c, 5, 41, 34
11, 76800, Note_on_c, 5, 52, 44
11, 76800, Note_on_c, 5, 57, 35
11, 76800, Control_c, 5, 0, 0
11, 76800, Control_c, 5, 64, 0
11, 76804, Note_on_c, 5, 67, 36
11, 76932, Control_c, 5, 64, 127
11, 77172, Control_c, 5, 0, 0
11, 77412, Control_c, 5, 0, 0
11, 77652, Control_c, 5, 0, 0
11, 77760, Note_off_c, 5, 67, 64
11, 77760, Note_off_c, 5, 57, 64
11, 77760, Note_off_c, 5, 52, 64
11, 77760, Note_off_c, 5, 41, 64
11, 77760, Note_off_c, 5, 64, 64
11, 77760, Control_c, 5, 0, 0
11, 77760, Control_c, 5, 64, 0
11, 77760, Note_on_c, 5, 58, 35
11, 77760, Note_on_c, 5, 53, 44
11, 77760, Note_on_c, 5, 43, 34
11, 77760, Note_on_c, 5, 65, 35
11, 77764, Note_on_c, 5, 67, 36
11, 77892, Control_c, 5, 64, 127
11, 78132, Control_c, 5, 0, 0
11, 78240, Note_off_c, 5, 67, 64
11, 78240, Note_off_c, 5, 65, 64
11, 78240, Note_off_c, 5, 43, 64
11, 78240, Note_off_c, 5, 53, 64
11, 78240, Note_off_c, 5, 58, 64
11, 78240, Note_on_c, 5, 64, 35
11, 78240, Note_on_c, 5, 36, 34
11, 78240, Note_on_c, 5, 52, 44
11, 78240, Note_on_c, 5, 58, 35
11, 78240, Control_c, 5, 0, 0
11, 78240, Control_c, 5, 64, 0
11, 78244, Note_on_c, 5, 67, 36
11, 78372, Control_c, 5, 64, 127
11, 78612, Control_c, 5, 0, 0
11, 78720, Note_off_c, 5, 67, 64
11, 78720, Note_off_c, 5, 58, 64
11, 78720, Note_off_c, 5, 52, 64
11, 78720, Note_off_c, 5, 36, 64
11, 78720, Note_off_c, 5, 64, 64
11, 78720, Control_c, 5, 0, 0
11, 78720, Control_c, 5, 64, 0
11, 78720, Note_on_c, 5, 68, 39
11, 78720, Note_on_c, 5, 65, 38
11, 78720, Note_on_c, 5, 79, 39
11, 78724, Note_on_c, 5, 41, 28
11, 78724, Note_on_c, 5, 51, 43
11, 78724, Note_on_c, 5, 75, 52
11, 79200, Note_off_c, 5, 75, 64
11, 79200, Note_off_c, 5, 51, 64
11, 79200, Note_off_c, 5, 41, 64
11, 79200, Note_off_c, 5, 79, 64
11, 79200, Note_off_c, 5, 65, 64
11, 79200, Note_off_c, 5, 68, 64
11, 79200, Note_on_c, 5, 82, 33
11, 79200, Note_on_c, 5, 69, 38
11, 79200, Note_on_c, 5, 74, 39
11, 79204, Note_on_c, 5, 76, 38
11, 79204, Note_on_c, 5, 58, 43
11, 79204, Note_on_c, 5, 52, 28
11, 79680, Note_off_c, 5, 52, 64
11, 79680, Note_off_c, 5, 58, 64
11, 79680, Note_off_c, 5, 76, 64
11, 79680, Note_off_c, 5, 74, 64
11, 79680, Note_off_c, 5, 69, 64
11, 79680, Note_off_c, 5, 82, 64
11, 79680, Note_on_c, 5, 72, 39
11, 79680, Note_on_c, 5, 70, 38
11, 79680, Note_on_c, 5, 80, 39
11, 79684, Note_on_c, 5, 39, 28
11, 79684, Note_on_c, 5, 54, 43
11, 79684, Note_on_c, 5, 78, 52
11, 80160, Note_off_c, 5, 78, 64
11, 80160, Note_off_c, 5, 54, 64
11, 80160, Note_off_c, 5, 39, 64
11, 80160, Note_off_c, 5, 80, 64
11, 80160, Note_off_c, 5, 70, 64
11, 80160, Note_off_c, 5, 72, 64
11, 80160, Note_on_c, 5, 84, 33
11, 80160, Note_on_c, 5, 71, 38
11, 80160, Note_on_c, 5, 74, 39
11, 80164, Note_on_c, 5, 78, 38
11, 80164, Note_on_c, 5, 60, 43
11, 80164, Note_on_c, 5, 50, 28
11, 80640, Note_off_c, 5, 50, 64
11, 80640, Note_off_c, 5, 60, 64
11, 80640, Note_off_c, 5, 78, 64
11, 80640, Note_off_c, 5, 74, 64
11, 80640, Note_off_c, 5, 71, 64
11, 80640, Note_off_c, 5, 84, 64
11, 80640, Note_on_c, 5, 72, 39
11, 80640, Note_on_c, 5, 68, 38
11, 80640, Note_on_c, 5, 80, 39
11, 80644, Note_on_c, 5, 37, 28
11, 80644, Note_on_c, 5, 53, 43
11, 80644, Note_on_c, 5, 77, 52
11, 81120, Note_off_c, 5, 77, 64
11, 81120, Note_off_c, 5, 53, 64
11, 81120, Note_off_c, 5, 37, 64
11, 81120, Note_off_c, 5, 80, 64
11, 81120, Note_off_c, 5, 68, 64
11, 81120, Note_off_c, 5, 72, 64
11, 81120, Note_on_c, 5, 84, 33
11, 81120, Note_on_c, 5, 67, 38
11, 81120, Note_on_c, 5, 75, 39
11, 81124, Note_on_c, 5, 60, 43
11, 81124, Note_on_c, 5, 48, 28
11, 81600, Note_off_c, 5, 48, 64
11, 81600, Note_off_c, 5, 60, 64
11, 81600, Note_off_c, 5, 75, 64
11, 81600, Note_off_c, 5, 67, 64
11, 81600, Note_off_c, 5, 84, 64
11, 81600, Note_on_c, 5, 73, 39
11, 81600, Note_on_c, 5, 65, 38
11, 81600, Note_on_c, 5, 82, 33
11, 81604, Note_on_c, 5, 46, 28
11, 81604, Note_on_c, 5, 58, 43
11, 82080, Note_off_c, 5, 58, 64
11, 82080, Note_off_c, 5, 46, 64
11, 82080, Note_off_c, 5, 82, 64
11, 82080, Note_off_c, 5, 65, 64
11, 82080, Note_off_c, 5, 73, 64
11, 82080, Note_on_c, 5, 80, 33
11, 82080, Note_on_c, 5, 65, 38
11, 82080, Note_on_c, 5, 70, 39
11, 82084, Note_on_c, 5, 73, 38
11, 82084, Note_on_c, 5, 56, 43
11, 82084, Note_on_c, 5, 46, 28
11, 82560, Note_off_c, 5, 46, 64
11, 82560, Note_off_c, 5, 56, 64
11, 82560, Note_off_c, 5, 73, 64
11, 82560, Note_off_c, 5, 70, 64
11, 82560, Note_off_c, 5, 65, 64
11, 82560, Note_off_c, 5, 80, 64
11, 82560, Note_on_c, 5, 79, 39
11, 82560, Note_on_c, 5, 67, 38
11, 82560, Note_on_c, 5, 70, 39
11, 82564, Note_on_c, 5, 77, 52
11, 82564, Note_on_c, 5, 53, 43
11, 82564, Note_on_c, 5, 43, 28
11, 83520, Note_off_c, 5, 43, 64
11, 83520, Note_off_c, 5, 53, 64
11, 83520, Note_off_c, 5, 77, 64
11, 83520, Note_off_c, 5, 70, 64
11, 83520, Note_off_c, 5, 67, 64
11, 83520, Note_off_c, 5, 79, 64
11, 83520, Note_on_c, 5, 82, 33
11, 83520, Note_on_c, 5, 68, 38
11, 83520, Note_on_c, 5, 73, 39
11, 83524, Note_on_c, 5, 76, 38
11, 83524, Note_on_c, 5, 58, 43
11, 83524, Note_on_c, 5, 48, 28
11, 84480, Note_off_c, 5, 48, 64
11, 84480, Note_off_c, 5, 58, 64
11, 84480, Note_off_c, 5, 76, 64
11, 84480, Note_off_c, 5, 73, 64
11, 84480, Note_off_c, 5, 68, 64
11, 84480, Note_off_c, 5, 82, 64
11, 84480, Note_on_c, 5, 81, 33
11, 84480, Note_on_c, 5, 67, 38
11, 84480, Note_on_c, 5, 72, 39
11, 84484, Note_on_c, 5, 76, 38
11, 84484, Note_on_c, 5, 57, 43
11, 84484, Note_on_c, 5, 41, 28
11, 85440, Note_off_c, 5, 41, 64
11, 85440, Note_off_c, 5, 57, 64
11, 85440, Note_off_c, 5, 76, 64
11, 85440, Note_off_c, 5, 72, 64
11, 85440, Note_off_c, 5, 67, 64
11, 85440, Note_off_c, 5, 81, 64
11, 85440, Note_on_c, 5, 70, 39
11, 85440, Note_on_c, 5, 67, 38
11, 85440, Note_on_c, 5, 79, 39
11, 85444, Note_on_c, 5, 36, 28
11, 85444, Note_on_c, 5, 51, 43
11, 85444, Note_on_c, 5, 75, 52
11, 85920, Note_off_c, 5, 75, 64
11, 85920, Note_off_c, 5, 51, 64
11, 85920, Note_off_c, 5, 36, 64
11, 85920, Note_off_c, 5, 79, 64
11, 85920, Note_off_c, 5, 67, 64
11, 85920, Note_off_c, 5, 70, 64
11, 85920, Note_on_c, 5, 75, 39
11, 85920, Note_on_c, 5, 66, 38
11, 85920, Note_on_c, 5, 69, 39
11, 85924, Note_on_c, 5, 73, 52
11, 85924, Note_on_c, 5, 51, 43
11, 85924, Note_on_c, 5, 36, 28
11, 86400, Note_off_c, 5, 36, 64
11, 86400, Note_off_c, 5, 51, 64
11, 86400, Note_off_c, 5, 73, 64
11, 86400, Note_off_c, 5, 69, 64
11, 86400, Note_off_c, 5, 66, 64
11, 86400, Note_off_c, 5, 75, 64
11, 86400, Note_on_c, 5, 81, 33
11, 86400, Note_on_c, 5, 65, 38
11, 86400, Note_on_c, 5, 72, 39
11, 86404, Note_on_c, 5, 74, 38
11, 86404, Note_on_c, 5, 57, 43
11, 86404, Note_on_c, 5, 46, 28
11, 87360, Note_off_c, 5, 46, 64
11, 87360, Note_off_c, 5, 57, 64
11, 87360, Note_off_c, 5, 74, 64
11, 87360, Note_off_c, 5, 72, 64
11, 87360, Note_off_c, 5, 65, 64
11, 87360, Note_off_c, 5, 81, 64
11, 87360, Note_on_c, 5, 70, 39
11, 87360, Note_on_c, 5, 67, 38
11, 87360, Note_on_c, 5, 77, 39
11, 87364, Note_on_c, 5, 38, 28
11, 87364, Note_on_c, 5, 53, 43
11, 87364, Note_on_c, 5, 74, 52
11, 87840, Note_off_c, 5, 74, 64
11, 87840, Note_off_c, 5, 53, 64
11, 87840, Note_off_c, 5, 38, 64
11, 87840, Note_off_c, 5, 77, 64
11, 87840, Note_off_c, 5, 67, 64
11, 87840, Note_off_c, 5, 70, 64
11, 87840, Note_on_c, 5, 81, 39
11, 87840, Note_on_c, 5, 69, 38
11, 87840, Note_on_c, 5, 70, 39
11, 87844, Note_on_c, 5, 76, 52
11, 87844, Note_on_c, 5, 52, 43
11, 87844, Note_on_c, 5, 36, 28
11, 88320, Note_off_c, 5, 36, 64
11, 88320, Note_off_c, 5, 52, 64
11, 88320, Note_off_c, 5, 76, 64
11, 88320, Note_off_c, 5, 70, 64
11, 88320, Note_off_c, 5, 69, 64
11, 88320, Note_off_c, 5, 81, 64
11, 88320, Note_on_c, 5, 79, 33
11, 88320, Note_on_c, 5, 64, 38
11, 88320, Note_on_c, 5, 69, 39
11, 88324, Note_on_c, 5, 72, 38
11, 88324, Note_on_c, 5, 55, 43
11, 88324, Note_on_c, 5, 45, 28
11, 89280, Note_off_c, 5, 45, 64
11, 89280, Note_off_c, 5, 55, 64
11, 89280, Note_off_c, 5, 72, 64
11, 89280, Note_off_c, 5, 69, 64
11, 89280, Note_off_c, 5, 64, 64
11, 89280, Note_off_c, 5, 79, 64
11, 89280, Note_on_c, 5, 77, 39
11, 89280, Note_on_c, 5, 68, 38
11, 89280, Note_on_c, 5, 71, 39
11, 89284, Note_on_c, 5, 74, 52
11, 89284, Note_on_c, 5, 53, 43
11, 89284, Note_on_c, 5, 38, 28
11, 90240, Note_off_c, 5, 38, 64
11, 90240, Note_off_c, 5, 53, 64
11, 90240, Note_off_c, 5, 74, 64
11, 90240, Note_off_c, 5, 71, 64
11, 90240, Note_off_c, 5, 68, 64
11, 90240, Note_off_c, 5, 77, 64
11, 90240, Note_on_c, 5, 81, 39
11, 90240, Note_on_c, 5, 67, 38
11, 90240, Note_on_c, 5, 70, 39
11, 90244, Note_on_c, 5, 77, 52
11, 90244, Note_on_c, 5, 53, 43
11, 90244, Note_on_c, 5, 43, 28
11, 91200, Note_off_c, 5, 43, 64
11, 91200, Note_off_c, 5, 53, 64
11, 91200, Note_off_c, 5, 77, 64
11, 91200, Note_off_c, 5, 70, 64
11, 91200, Note_off_c, 5, 67, 64
11, 91200, Note_off_c, 5, 81, 64
11, 91200, Note_on_c, 5, 70, 39
11, 91200, Note_on_c, 5, 69, 38
11, 91200, Note_on_c, 5, 79, 39
11, 91204, Note_on_c, 5, 36, 28
11, 91204, Note_on_c, 5, 52, 43
11, 91204, Note_on_c, 5, 76, 52
11, 91680, Note_off_c, 5, 76, 64
11, 91680, Note_off_c, 5, 52, 64
11, 91680, Note_off_c, 5, 36, 64
11, 91680, Note_off_c, 5, 79, 64
11, 91680, Note_off_c, 5, 69, 64
11, 91680, Note_off_c, 5, 70, 64
11, 91680, Note_on_c, 5, 82, 33
11, 91680, Note_on_c, 5, 67, 38
11, 91680, Note_on_c, 5, 73, 39
11, 91684, Note_on_c, 5, 76, 38
11, 91684, Note_on_c, 5, 58, 43
11, 91684, Note_on_c, 5, 48, 28
11, 92160, Note_off_c, 5, 48, 64
11, 92160, Note_off_c, 5, 58, 64
11, 92160, Note_off_c, 5, 76, 64
11, 92160, Note_off_c, 5, 73, 64
11, 92160, Note_off_c, 5, 67, 64
11, 92160, Note_off_c, 5, 82, 64
11, 92636, Note_on_c, 5, 41, 26
11, 92644, Note_on_c, 5, 74, 27
11, 92644, Note_on_c, 5, 57, 42
11, 92644, Note_on_c, 5, 62, 39
11, 92648, Note_on_c, 5, 72, 36
11, 92648, Note_on_c, 5, 69, 39
11, 92652, Note_on_c, 5, 67, 12
11, 92796, Control_c, 5, 64, 127
11, 93120, Note_off_c, 5, 67, 64
11, 93120, Note_off_c, 5, 69, 64
11, 93120, Note_off_c, 5, 72, 64
11, 93120, Note_off_c, 5, 62, 64
11, 93120, Note_off_c, 5, 57, 64
11, 93120, Note_off_c, 5, 74, 64
11, 93120, Note_off_c, 5, 41, 64
11, 93120, Control_c, 5, 64, 0
11, 93120, Note_on_c, 5, 70, 39
11, 93120, Note_on_c, 5, 67, 38
11, 93120, Note_on_c, 5, 77, 39
11, 93124, Note_on_c, 5, 37, 28
11, 93124, Note_on_c, 5, 53, 43
11, 93124, Note_on_c, 5, 73, 52
11, 93600, Note_off_c, 5, 73, 64
11, 93600, Note_off_c, 5, 53, 64
11, 93600, Note_off_c, 5, 37, 64
11, 93600, Note_off_c, 5, 77, 64
11, 93600, Note_off_c, 5, 67, 64
11, 93600, Note_off_c, 5, 70, 64
11, 93600, Note_on_c, 5, 82, 33
11, 93600, Note_on_c, 5, 68, 38
11, 93600, Note_on_c, 5, 73, 39
11, 93604, Note_on_c, 5, 76, 38
11, 93604, Note_on_c, 5, 58, 43
11, 93604, Note_on_c, 5, 48, 28
11, 94080, Note_off_c, 5, 48, 64
11, 94080, Note_off_c, 5, 58, 64
11, 94080, Note_off_c, 5, 76, 64
11, 94080, Note_off_c, 5, 73, 64
11, 94080, Note_off_c, 5, 68, 64
11, 94080, Note_off_c, 5, 82, 64
11, 94080, Note_on_c, 5, 79, 39
11, 94080, Note_on_c, 5, 67, 38
11, 94080, Note_on_c, 5, 69, 39
11, 94084, Note_on_c, 5, 74, 52
11, 94084, Note_on_c, 5, 50, 43
11, 94084, Note_on_c, 5, 41, 28
11, 96000, Note_off_c, 5, 69, 64
11, 96000, Note_off_c, 5, 67, 64
11, 96000, Note_off_c, 5, 79, 64
11, 96000, Note_off_c, 5, 41, 64
11, 96000, Note_off_c, 5, 50, 64
11, 96000, Note_off_c, 5, 74, 64
11, 96000, Control_c, 5, 64, 0
11, 96000, End_track
12, 0, Start_track
12, 0, Title_t, "Guitar / Nylon string"
12, 0, Program_c, 6, 24
12, 0, Control_c, 6, 7, 90
12, 0, Control_c, 6, 10, 64
12, 0, Control_c, 6, 123, 0
12, 0, Control_c, 6, 91, 40
12, 0, Control_c, 6, 93, 0
12, 0, Control_c, 6, 64, 0
12, 1920, Note_on_c, 6, 53, 55
12, 1920, Note_on_c, 6, 60, 64
12, 1992, Note_off_c, 6, 60, 64
12, 2042, Note_off_c, 6, 53, 64
12, 2160, Control_c, 6, 64, 127
12, 2160, Note_on_c, 6, 60, 49
12, 2160, Note_on_c, 6, 53, 41
12, 2200, Note_off_c, 6, 53, 64
12, 2216, Note_off_c, 6, 60, 64
12, 2216, Control_c, 6, 64, 0
12, 2400, Note_on_c, 6, 52, 55
12, 2400, Note_on_c, 6, 58, 64
12, 2472, Note_off_c, 6, 58, 64
12, 2522, Note_off_c, 6, 52, 64
12, 2640, Control_c, 6, 64, 127
12, 2640, Note_on_c, 6, 58, 49
12, 2640, Note_on_c, 6, 52, 41
12, 2680, Note_off_c, 6, 52, 64
12, 2696, Note_off_c, 6, 58, 64
12, 2696, Control_c, 6, 64, 0
12, 2880, Note_on_c, 6, 54, 55
12, 2880, Note_on_c, 6, 60, 64
12, 2952, Note_off_c, 6, 60, 64
12, 3002, Note_off_c, 6, 54, 64
12, 3120, Control_c, 6, 64, 127
12, 3120, Note_on_c, 6, 60, 49
12, 3120, Note_on_c, 6, 54, 41
12, 3160, Note_off_c, 6, 54, 64
12, 3176, Note_off_c, 6, 60, 64
12, 3176, Control_c, 6, 64, 0
12, 3360, Note_on_c, 6, 54, 55
12, 3360, Note_on_c, 6, 60, 64
12, 3432, Note_off_c, 6, 60, 64
12, 3482, Note_off_c, 6, 54, 64
12, 3600, Control_c, 6, 64, 127
12, 3600, Note_on_c, 6, 60, 49
12, 3600, Note_on_c, 6, 54, 41
12, 3640, Note_off_c, 6, 54, 64
12, 3656, Note_off_c, 6, 60, 64
12, 3656, Control_c, 6, 64, 0
12, 3840, Note_on_c, 6, 53, 55
12, 3840, Note_on_c, 6, 60, 64
12, 3912, Note_off_c, 6, 60, 64
12, 3962, Note_off_c, 6, 53, 64
12, 4080, Control_c, 6, 64, 127
12, 4080, Note_on_c, 6, 60, 49
12, 4080, Note_on_c, 6, 53, 41
12, 4120, Note_off_c, 6, 53, 64
12, 4136, Note_off_c, 6, 60, 64
12, 4136, Control_c, 6, 64, 0
12, 4320, Note_on_c, 6, 51, 55
12, 4320, Note_on_c, 6, 58, 64
12, 4392, Note_off_c, 6, 58, 64
12, 4442, Note_off_c, 6, 51, 64
12, 4560, Control_c, 6, 64, 127
12, 4560, Note_on_c, 6, 58, 49
12, 4560, Note_on_c, 6, 51, 41
12, 4600, Note_off_c, 6, 51, 64
12, 4616, Note_off_c, 6, 58, 64
12, 4616, Control_c, 6, 64, 0
12, 4800, Note_on_c, 6, 49, 55
12, 4800, Note_on_c, 6, 58, 64
12, 4872, Note_off_c, 6, 58, 64
12, 4922, Note_off_c, 6, 49, 64
12, 5040, Control_c, 6, 64, 127
12, 5040, Note_on_c, 6, 58, 49
12, 5040, Note_on_c, 6, 49, 41
12, 5080, Note_off_c, 6, 49, 64
12, 5096, Note_off_c, 6, 58, 64
12, 5096, Control_c, 6, 64, 0
12, 5280, Note_on_c, 6, 49, 55
12, 5280, Note_on_c, 6, 56, 64
12, 5352, Note_off_c, 6, 56, 64
12, 5402, Note_off_c, 6, 49, 64
12, 5520, Control_c, 6, 64, 127
12, 5520, Note_on_c, 6, 56, 49
12, 5520, Note_on_c, 6, 49, 41
12, 5560, Note_off_c, 6, 49, 64
12, 5576, Note_off_c, 6, 56, 64
12, 5576, Control_c, 6, 64, 0
12, 5760, Note_on_c, 6, 53, 55
12, 5760, Note_on_c, 6, 58, 64
12, 5832, Note_off_c, 6, 58, 64
12, 5882, Note_off_c, 6, 53, 64
12, 6000, Control_c, 6, 64, 127
12, 6000, Note_on_c, 6, 58, 49
12, 6000, Note_on_c, 6, 53, 41
12, 6040, Note_off_c, 6, 53, 64
12, 6056, Note_off_c, 6, 58, 64
12, 6056, Control_c, 6, 64, 0
12, 6240, Note_on_c, 6, 53, 56
12, 6240, Note_on_c, 6, 58, 56
12, 6480, Note_off_c, 6, 58, 64
12, 6480, Note_off_c, 6, 53, 64
12, 6480, Control_c, 6, 64, 127
12, 6480, Note_on_c, 6, 53, 51
12, 6480, Note_on_c, 6, 58, 60
12, 6526, Note_off_c, 6, 53, 64
12, 6532, Note_off_c, 6, 58, 64
12, 6532, Control_c, 6, 64, 0
12, 6720, Note_on_c, 6, 52, 55
12, 6720, Note_on_c, 6, 58, 64
12, 6792, Note_off_c, 6, 58, 64
12, 6842, Note_off_c, 6, 52, 64
12, 6960, Control_c, 6, 64, 127
12, 6960, Note_on_c, 6, 58, 49
12, 6960, Note_on_c, 6, 52, 41
12, 7000, Note_off_c, 6, 52, 64
12, 7016, Note_off_c, 6, 58, 64
12, 7016, Control_c, 6, 64, 0
12, 7200, Note_on_c, 6, 52, 56
12, 7200, Note_on_c, 6, 58, 56
12, 7440, Note_off_c, 6, 58, 64
12, 7440, Note_off_c, 6, 52, 64
12, 7440, Control_c, 6, 64, 127
12, 7440, Note_on_c, 6, 52, 51
12, 7440, Note_on_c, 6, 58, 60
12, 7486, Note_off_c, 6, 52, 64
12, 7492, Note_off_c, 6, 58, 64
12, 7492, Control_c, 6, 64, 0
12, 7680, Note_on_c, 6, 52, 55
12, 7680, Note_on_c, 6, 57, 64
12, 7752, Note_off_c, 6, 57, 64
12, 7802, Note_off_c, 6, 52, 64
12, 7920, Control_c, 6, 64, 127
12, 7920, Note_on_c, 6, 57, 49
12, 7920, Note_on_c, 6, 52, 41
12, 7960, Note_off_c, 6, 52, 64
12, 7976, Note_off_c, 6, 57, 64
12, 7976, Control_c, 6, 64, 0
12, 8160, Note_on_c, 6, 52, 56
12, 8160, Note_on_c, 6, 57, 56
12, 8400, Note_off_c, 6, 57, 64
12, 8400, Note_off_c, 6, 52, 64
12, 8400, Control_c, 6, 64, 127
12, 8400, Note_on_c, 6, 52, 51
12, 8400, Note_on_c, 6, 57, 60
12, 8446, Note_off_c, 6, 52, 64
12, 8452, Note_off_c, 6, 57, 64
12, 8452, Control_c, 6, 64, 0
12, 8640, Note_on_c, 6, 51, 55
12, 8640, Note_on_c, 6, 58, 64
12, 8712, Note_off_c, 6, 58, 64
12, 8762, Note_off_c, 6, 51, 64
12, 8880, Control_c, 6, 64, 127
12, 8880, Note_on_c, 6, 58, 49
12, 8880, Note_on_c, 6, 51, 41
12, 8920, Note_off_c, 6, 51, 64
12, 8936, Note_off_c, 6, 58, 64
12, 8936, Control_c, 6, 64, 0
12, 9120, Note_on_c, 6, 51, 55
12, 9120, Note_on_c, 6, 57, 64
12, 9192, Note_off_c, 6, 57, 64
12, 9242, Note_off_c, 6, 51, 64
12, 9360, Control_c, 6, 64, 127
12, 9360, Note_on_c, 6, 57, 49
12, 9360, Note_on_c, 6, 51, 41
12, 9400, Note_off_c, 6, 51, 64
12, 9416, Note_off_c, 6, 57, 64
12, 9416, Control_c, 6, 64, 0
12, 9600, Note_on_c, 6, 49, 55
12, 9600, Note_on_c, 6, 56, 64
12, 9672, Note_off_c, 6, 56, 64
12, 9722, Note_off_c, 6, 49, 64
12, 9840, Control_c, 6, 64, 127
12, 9840, Note_on_c, 6, 56, 49
12, 9840, Note_on_c, 6, 49, 41
12, 9880, Note_off_c, 6, 49, 64
12, 9896, Note_off_c, 6, 56, 64
12, 9896, Control_c, 6, 64, 0
12, 10080, Note_on_c, 6, 49, 56
12, 10080, Note_on_c, 6, 56, 56
12, 10320, Note_off_c, 6, 56, 64
12, 10320, Note_off_c, 6, 49, 64
12, 10320, Control_c, 6, 64, 127
12, 10320, Note_on_c, 6, 49, 51
12, 10320, Note_on_c, 6, 56, 60
12, 10366, Note_off_c, 6, 49, 64
12, 10372, Note_off_c, 6, 56, 64
12, 10372, Control_c, 6, 64, 0
12, 10560, Note_on_c, 6, 49, 55
12, 10560, Note_on_c, 6, 55, 64
12, 10632, Note_off_c, 6, 55, 64
12, 10682, Note_off_c, 6, 49, 64
12, 10800, Control_c, 6, 64, 127
12, 10800, Note_on_c, 6, 55, 49
12, 10800, Note_on_c, 6, 49, 41
12, 10840, Note_off_c, 6, 49, 64
12, 10856, Note_off_c, 6, 55, 64
12, 10856, Control_c, 6, 64, 0
12, 11040, Note_on_c, 6, 49, 56
12, 11040, Note_on_c, 6, 55, 56
12, 11280, Note_off_c, 6, 55, 64
12, 11280, Note_off_c, 6, 49, 64
12, 11280, Control_c, 6, 64, 127
12, 11280, Note_on_c, 6, 49, 51
12, 11280, Note_on_c, 6, 55, 60
12, 11326, Note_off_c, 6, 49, 64
12, 11332, Note_off_c, 6, 55, 64
12, 11332, Control_c, 6, 64, 0
12, 11520, Note_on_c, 6, 55, 55
12, 11520, Note_on_c, 6, 60, 64
12, 11592, Note_off_c, 6, 60, 64
12, 11642, Note_off_c, 6, 55, 64
12, 11760, Control_c, 6, 64, 127
12, 11760, Note_on_c, 6, 60, 49
12, 11760, Note_on_c, 6, 55, 41
12, 11800, Note_off_c, 6, 55, 64
12, 11816, Note_off_c, 6, 60, 64
12, 11816, Control_c, 6, 64, 0
12, 12000, Note_on_c, 6, 55, 56
12, 12000, Note_on_c, 6, 60, 56
12, 12240, Note_off_c, 6, 60, 64
12, 12240, Note_off_c, 6, 55, 64
12, 12240, Control_c, 6, 64, 127
12, 12240, Note_on_c, 6, 55, 51
12, 12240, Note_on_c, 6, 60, 60
12, 12286, Note_off_c, 6, 55, 64
12, 12292, Note_off_c, 6, 60, 64
12, 12292, Control_c, 6, 64, 0
12, 12480, Note_on_c, 6, 53, 55
12, 12480, Note_on_c, 6, 60, 64
12, 12552, Note_off_c, 6, 60, 64
12, 12602, Note_off_c, 6, 53, 64
12, 12720, Control_c, 6, 64, 127
12, 12720, Note_on_c, 6, 60, 49
12, 12720, Note_on_c, 6, 53, 41
12, 12760, Note_off_c, 6, 53, 64
12, 12776, Note_off_c, 6, 60, 64
12, 12776, Control_c, 6, 64, 0
12, 12960, Note_on_c, 6, 53, 56
12, 12960, Note_on_c, 6, 60, 56
12, 13200, Note_off_c, 6, 60, 64
12, 13200, Note_off_c, 6, 53, 64
12, 13200, Control_c, 6, 64, 127
12, 13200, Note_on_c, 6, 53, 51
12, 13200, Note_on_c, 6, 60, 60
12, 13246, Note_off_c, 6, 53, 64
12, 13252, Note_off_c, 6, 60, 64
12, 13252, Control_c, 6, 64, 0
12, 13440, Note_on_c, 6, 53, 55
12, 13440, Note_on_c, 6, 58, 64
12, 13512, Note_off_c, 6, 58, 64
12, 13562, Note_off_c, 6, 53, 64
12, 13680, Control_c, 6, 64, 127
12, 13680, Note_on_c, 6, 58, 49
12, 13680, Note_on_c, 6, 53, 41
12, 13720, Note_off_c, 6, 53, 64
12, 13736, Note_off_c, 6, 58, 64
12, 13736, Control_c, 6, 64, 0
12, 13920, Note_on_c, 6, 53, 56
12, 13920, Note_on_c, 6, 58, 56
12, 14160, Note_off_c, 6, 58, 64
12, 14160, Note_off_c, 6, 53, 64
12, 14160, Control_c, 6, 64, 127
12, 14160, Note_on_c, 6, 53, 51
12, 14160, Note_on_c, 6, 58, 60
12, 14206, Note_off_c, 6, 53, 64
12, 14212, Note_off_c, 6, 58, 64
12, 14212, Control_c, 6, 64, 0
12, 14400, Note_on_c, 6, 52, 55
12, 14400, Note_on_c, 6, 58, 64
12, 14472, Note_off_c, 6, 58, 64
12, 14522, Note_off_c, 6, 52, 64
12, 14640, Control_c, 6, 64, 127
12, 14640, Note_on_c, 6, 58, 49
12, 14640, Note_on_c, 6, 52, 41
12, 14680, Note_off_c, 6, 52, 64
12, 14696, Note_off_c, 6, 58, 64
12, 14696, Control_c, 6, 64, 0
12, 14880, Note_on_c, 6, 52, 55
12, 14880, Note_on_c, 6, 58, 64
12, 14952, Note_off_c, 6, 58, 64
12, 15002, Note_off_c, 6, 52, 64
12, 15120, Control_c, 6, 64, 127
12, 15120, Note_on_c, 6, 58, 49
12, 15120, Note_on_c, 6, 52, 41
12, 15160, Note_off_c, 6, 52, 64
12, 15176, Note_off_c, 6, 58, 64
12, 15176, Control_c, 6, 64, 0
12, 15360, Note_on_c, 6, 52, 55
12, 15360, Note_on_c, 6, 57, 64
12, 15432, Note_off_c, 6, 57, 64
12, 15482, Note_off_c, 6, 52, 64
12, 15600, Control_c, 6, 64, 127
12, 15600, Note_on_c, 6, 57, 49
12, 15600, Note_on_c, 6, 52, 41
12, 15640, Note_off_c, 6, 52, 64
12, 15656, Note_off_c, 6, 57, 64
12, 15656, Control_c, 6, 64, 0
12, 15840, Note_on_c, 6, 52, 56
12, 15840, Note_on_c, 6, 57, 56
12, 16080, Note_off_c, 6, 57, 64
12, 16080, Note_off_c, 6, 52, 64
12, 16080, Control_c, 6, 64, 127
12, 16080, Note_on_c, 6, 52, 51
12, 16080, Note_on_c, 6, 57, 60
12, 16126, Note_off_c, 6, 52, 64
12, 16132, Note_off_c, 6, 57, 64
12, 16132, Control_c, 6, 64, 0
12, 16320, Note_on_c, 6, 53, 55
12, 16320, Note_on_c, 6, 58, 64
12, 16392, Note_off_c, 6, 58, 64
12, 16442, Note_off_c, 6, 53, 64
12, 16560, Control_c, 6, 64, 127
12, 16560, Note_on_c, 6, 58, 49
12, 16560, Note_on_c, 6, 53, 41
12, 16600, Note_off_c, 6, 53, 64
12, 16616, Note_off_c, 6, 58, 64
12, 16616, Control_c, 6, 64, 0
12, 16800, Note_on_c, 6, 52, 55
12, 16800, Note_on_c, 6, 58, 64
12, 16872, Note_off_c, 6, 58, 64
12, 16922, Note_off_c, 6, 52, 64
12, 17040, Control_c, 6, 64, 127
12, 17040, Note_on_c, 6, 58, 49
12, 17040, Note_on_c, 6, 52, 41
12, 17080, Note_off_c, 6, 52, 64
12, 17096, Note_off_c, 6, 58, 64
12, 17096, Control_c, 6, 64, 0
12, 17280, Note_on_c, 6, 51, 55
12, 17280, Note_on_c, 6, 56, 64
12, 17352, Note_off_c, 6, 56, 64
12, 17402, Note_off_c, 6, 51, 64
12, 17520, Control_c, 6, 64, 127
12, 17520, Note_on_c, 6, 56, 49
12, 17520, Note_on_c, 6, 51, 41
12, 17560, Note_off_c, 6, 51, 64
12, 17576, Note_off_c, 6, 56, 64
12, 17576, Control_c, 6, 64, 0
12, 17760, Note_on_c, 6, 52, 55
12, 17760, Note_on_c, 6, 58, 64
12, 17832, Note_off_c, 6, 58, 64
12, 17882, Note_off_c, 6, 52, 64
12, 18000, Control_c, 6, 64, 127
12, 18000, Note_on_c, 6, 58, 49
12, 18000, Note_on_c, 6, 52, 41
12, 18040, Note_off_c, 6, 52, 64
12, 18056, Note_off_c, 6, 58, 64
12, 18056, Control_c, 6, 64, 0
12, 18240, Note_on_c, 6, 54, 55
12, 18240, Note_on_c, 6, 60, 64
12, 18312, Note_off_c, 6, 60, 64
12, 18362, Note_off_c, 6, 54, 64
12, 18480, Control_c, 6, 64, 127
12, 18480, Note_on_c, 6, 60, 49
12, 18480, Note_on_c, 6, 54, 41
12, 18520, Note_off_c, 6, 54, 64
12, 18536, Note_off_c, 6, 60, 64
12, 18536, Control_c, 6, 64, 0
12, 18720, Note_on_c, 6, 54, 55
12, 18720, Note_on_c, 6, 60, 64
12, 18792, Note_off_c, 6, 60, 64
12, 18842, Note_off_c, 6, 54, 64
12, 18960, Control_c, 6, 64, 127
12, 18960, Note_on_c, 6, 60, 49
12, 18960, Note_on_c, 6, 54, 41
12, 19000, Note_off_c, 6, 54, 64
12, 19016, Note_off_c, 6, 60, 64
12, 19016, Control_c, 6, 64, 0
12, 19200, Note_on_c, 6, 53, 55
12, 19200, Note_on_c, 6, 60, 64
12, 19272, Note_off_c, 6, 60, 64
12, 19322, Note_off_c, 6, 53, 64
12, 19440, Control_c, 6, 64, 127
12, 19440, Note_on_c, 6, 60, 49
12, 19440, Note_on_c, 6, 53, 41
12, 19480, Note_off_c, 6, 53, 64
12, 19496, Note_off_c, 6, 60, 64
12, 19496, Control_c, 6, 64, 0
12, 19680, Note_on_c, 6, 51, 55
12, 19680, Note_on_c, 6, 60, 64
12, 19752, Note_off_c, 6, 60, 64
12, 19802, Note_off_c, 6, 51, 64
12, 19920, Control_c, 6, 64, 127
12, 19920, Note_on_c, 6, 60, 49
12, 19920, Note_on_c, 6, 51, 41
12, 19960, Note_off_c, 6, 51, 64
12, 19976, Note_off_c, 6, 60, 64
12, 19976, Control_c, 6, 64, 0
12, 20160, Note_on_c, 6, 49, 55
12, 20160, Note_on_c, 6, 58, 64
12, 20232, Note_off_c, 6, 58, 64
12, 20282, Note_off_c, 6, 49, 64
12, 20400, Control_c, 6, 64, 127
12, 20400, Note_on_c, 6, 58, 49
12, 20400, Note_on_c, 6, 49, 41
12, 20440, Note_off_c, 6, 49, 64
12, 20456, Note_off_c, 6, 58, 64
12, 20456, Control_c, 6, 64, 0
12, 20640, Note_on_c, 6, 49, 55
12, 20640, Note_on_c, 6, 56, 64
12, 20712, Note_off_c, 6, 56, 64
12, 20762, Note_off_c, 6, 49, 64
12, 20880, Control_c, 6, 64, 127
12, 20880, Note_on_c, 6, 56, 49
12, 20880, Note_on_c, 6, 49, 41
12, 20920, Note_off_c, 6, 49, 64
12, 20936, Note_off_c, 6, 56, 64
12, 20936, Control_c, 6, 64, 0
12, 21120, Note_on_c, 6, 53, 55
12, 21120, Note_on_c, 6, 58, 64
12, 21192, Note_off_c, 6, 58, 64
12, 21242, Note_off_c, 6, 53, 64
12, 21360, Control_c, 6, 64, 127
12, 21360, Note_on_c, 6, 58, 49
12, 21360, Note_on_c, 6, 53, 41
12, 21400, Note_off_c, 6, 53, 64
12, 21416, Note_off_c, 6, 58, 64
12, 21416, Control_c, 6, 64, 0
12, 21600, Note_on_c, 6, 53, 56
12, 21600, Note_on_c, 6, 58, 56
12, 21840, Note_off_c, 6, 58, 64
12, 21840, Note_off_c, 6, 53, 64
12, 21840, Control_c, 6, 64, 127
12, 21840, Note_on_c, 6, 53, 51
12, 21840, Note_on_c, 6, 58, 60
12, 21886, Note_off_c, 6, 53, 64
12, 21892, Note_off_c, 6, 58, 64
12, 21892, Control_c, 6, 64, 0
12, 22080, Note_on_c, 6, 52, 55
12, 22080, Note_on_c, 6, 58, 64
12, 22152, Note_off_c, 6, 58, 64
12, 22202, Note_off_c, 6, 52, 64
12, 22320, Control_c, 6, 64, 127
12, 22320, Note_on_c, 6, 58, 49
12, 22320, Note_on_c, 6, 52, 41
12, 22360, Note_off_c, 6, 52, 64
12, 22376, Note_off_c, 6, 58, 64
12, 22376, Control_c, 6, 64, 0
12, 22560, Note_on_c, 6, 52, 56
12, 22560, Note_on_c, 6, 58, 56
12, 22800, Note_off_c, 6, 58, 64
12, 22800, Note_off_c, 6, 52, 64
12, 22800, Control_c, 6, 64, 127
12, 22800, Note_on_c, 6, 52, 51
12, 22800, Note_on_c, 6, 58, 60
12, 22846, Note_off_c, 6, 52, 64
12, 22852, Note_off_c, 6, 58, 64
12, 22852, Control_c, 6, 64, 0
12, 23040, Note_on_c, 6, 52, 55
12, 23040, Note_on_c, 6, 57, 64
12, 23112, Note_off_c, 6, 57, 64
12, 23162, Note_off_c, 6, 52, 64
12, 23280, Control_c, 6, 64, 127
12, 23280, Note_on_c, 6, 57, 49
12, 23280, Note_on_c, 6, 52, 41
12, 23320, Note_off_c, 6, 52, 64
12, 23336, Note_off_c, 6, 57, 64
12, 23336, Control_c, 6, 64, 0
12, 23520, Note_on_c, 6, 52, 56
12, 23520, Note_on_c, 6, 57, 56
12, 23760, Note_off_c, 6, 57, 64
12, 23760, Note_off_c, 6, 52, 64
12, 23760, Control_c, 6, 64, 127
12, 23760, Note_on_c, 6, 52, 51
12, 23760, Note_on_c, 6, 57, 60
12, 23806, Note_off_c, 6, 52, 64
12, 23812, Note_off_c, 6, 57, 64
12, 23812, Control_c, 6, 64, 0
12, 24000, Note_on_c, 6, 51, 55
12, 24000, Note_on_c, 6, 58, 64
12, 24072, Note_off_c, 6, 58, 64
12, 24122, Note_off_c, 6, 51, 64
12, 24240, Control_c, 6, 64, 127
12, 24240, Note_on_c, 6, 58, 49
12, 24240, Note_on_c, 6, 51, 41
12, 24280, Note_off_c, 6, 51, 64
12, 24296, Note_off_c, 6, 58, 64
12, 24296, Control_c, 6, 64, 0
12, 24480, Note_on_c, 6, 51, 55
12, 24480, Note_on_c, 6, 57, 64
12, 24552, Note_off_c, 6, 57, 64
12, 24602, Note_off_c, 6, 51, 64
12, 24720, Control_c, 6, 64, 127
12, 24720, Note_on_c, 6, 57, 49
12, 24720, Note_on_c, 6, 51, 41
12, 24760, Note_off_c, 6, 51, 64
12, 24776, Note_off_c, 6, 57, 64
12, 24776, Control_c, 6, 64, 0
12, 24960, Note_on_c, 6, 50, 55
12, 24960, Note_on_c, 6, 57, 64
12, 25032, Note_off_c, 6, 57, 64
12, 25082, Note_off_c, 6, 50, 64
12, 25200, Control_c, 6, 64, 127
12, 25200, Note_on_c, 6, 57, 49
12, 25200, Note_on_c, 6, 50, 41
12, 25240, Note_off_c, 6, 50, 64
12, 25256, Note_off_c, 6, 57, 64
12, 25256, Control_c, 6, 64, 0
12, 25440, Note_on_c, 6, 50, 56
12, 25440, Note_on_c, 6, 57, 56
12, 25680, Note_off_c, 6, 57, 64
12, 25680, Note_off_c, 6, 50, 64
12, 25680, Control_c, 6, 64, 127
12, 25680, Note_on_c, 6, 50, 51
12, 25680, Note_on_c, 6, 57, 60
12, 25726, Note_off_c, 6, 50, 64
12, 25732, Note_off_c, 6, 57, 64
12, 25732, Control_c, 6, 64, 0
12, 25920, Note_on_c, 6, 53, 55
12, 25920, Note_on_c, 6, 58, 64
12, 25992, Note_off_c, 6, 58, 64
12, 26042, Note_off_c, 6, 53, 64
12, 26160, Control_c, 6, 64, 127
12, 26160, Note_on_c, 6, 58, 49
12, 26160, Note_on_c, 6, 53, 41
12, 26200, Note_off_c, 6, 53, 64
12, 26216, Note_off_c, 6, 58, 64
12, 26216, Control_c, 6, 64, 0
12, 26400, Note_on_c, 6, 52, 55
12, 26400, Note_on_c, 6, 58, 64
12, 26472, Note_off_c, 6, 58, 64
12, 26522, Note_off_c, 6, 52, 64
12, 26640, Control_c, 6, 64, 127
12, 26640, Note_on_c, 6, 58, 49
12, 26640, Note_on_c, 6, 52, 41
12, 26680, Note_off_c, 6, 52, 64
12, 26696, Note_off_c, 6, 58, 64
12, 26696, Control_c, 6, 64, 0
12, 26880, Note_on_c, 6, 48, 55
12, 26880, Note_on_c, 6, 55, 64
12, 26952, Note_off_c, 6, 55, 64
12, 27002, Note_off_c, 6, 48, 64
12, 27120, Control_c, 6, 64, 127
12, 27120, Note_on_c, 6, 55, 49
12, 27120, Note_on_c, 6, 48, 41
12, 27160, Note_off_c, 6, 48, 64
12, 27176, Note_off_c, 6, 55, 64
12, 27176, Control_c, 6, 64, 0
12, 27360, Note_on_c, 6, 48, 56
12, 27360, Note_on_c, 6, 55, 56
12, 27600, Note_off_c, 6, 55, 64
12, 27600, Note_off_c, 6, 48, 64
12, 27600, Control_c, 6, 64, 127
12, 27600, Note_on_c, 6, 48, 51
12, 27600, Note_on_c, 6, 55, 60
12, 27646, Note_off_c, 6, 48, 64
12, 27652, Note_off_c, 6, 55, 64
12, 27652, Control_c, 6, 64, 0
12, 27840, Note_on_c, 6, 53, 55
12, 27840, Note_on_c, 6, 59, 64
12, 27912, Note_off_c, 6, 59, 64
12, 27962, Note_off_c, 6, 53, 64
12, 28080, Control_c, 6, 64, 127
12, 28080, Note_on_c, 6, 59, 49
12, 28080, Note_on_c, 6, 53, 41
12, 28120, Note_off_c, 6, 53, 64
12, 28136, Note_off_c, 6, 59, 64
12, 28136, Control_c, 6, 64, 0
12, 28320, Note_on_c, 6, 53, 56
12, 28320, Note_on_c, 6, 59, 56
12, 28560, Note_off_c, 6, 59, 64
12, 28560, Note_off_c, 6, 53, 64
12, 28560, Control_c, 6, 64, 127
12, 28560, Note_on_c, 6, 53, 51
12, 28560, Note_on_c, 6, 59, 60
12, 28606, Note_off_c, 6, 53, 64
12, 28612, Note_off_c, 6, 59, 64
12, 28612, Control_c, 6, 64, 0
12, 28800, Note_on_c, 6, 53, 55
12, 28800, Note_on_c, 6, 58, 64
12, 28872, Note_off_c, 6, 58, 64
12, 28922, Note_off_c, 6, 53, 64
12, 29040, Control_c, 6, 64, 127
12, 29040, Note_on_c, 6, 58, 49
12, 29040, Note_on_c, 6, 53, 41
12, 29080, Note_off_c, 6, 53, 64
12, 29096, Note_off_c, 6, 58, 64
12, 29096, Control_c, 6, 64, 0
12, 29280, Note_on_c, 6, 53, 56
12, 29280, Note_on_c, 6, 58, 56
12, 29520, Note_off_c, 6, 58, 64
12, 29520, Note_off_c, 6, 53, 64
12, 29520, Control_c, 6, 64, 127
12, 29520, Note_on_c, 6, 53, 51
12, 29520, Note_on_c, 6, 58, 60
12, 29566, Note_off_c, 6, 53, 64
12, 29572, Note_off_c, 6, 58, 64
12, 29572, Control_c, 6, 64, 0
12, 29760, Note_on_c, 6, 52, 55
12, 29760, Note_on_c, 6, 58, 64
12, 29832, Note_off_c, 6, 58, 64
12, 29882, Note_off_c, 6, 52, 64
12, 30000, Control_c, 6, 64, 127
12, 30000, Note_on_c, 6, 58, 49
12, 30000, Note_on_c, 6, 52, 41
12, 30040, Note_off_c, 6, 52, 64
12, 30056, Note_off_c, 6, 58, 64
12, 30056, Control_c, 6, 64, 0
12, 30240, Note_on_c, 6, 52, 55
12, 30240, Note_on_c, 6, 58, 64
12, 30312, Note_off_c, 6, 58, 64
12, 30362, Note_off_c, 6, 52, 64
12, 30480, Control_c, 6, 64, 127
12, 30480, Note_on_c, 6, 58, 49
12, 30480, Note_on_c, 6, 52, 41
12, 30520, Note_off_c, 6, 52, 64
12, 30536, Note_off_c, 6, 58, 64
12, 30536, Control_c, 6, 64, 0
12, 30720, Note_on_c, 6, 50, 55
12, 30720, Note_on_c, 6, 57, 64
12, 30792, Note_off_c, 6, 57, 64
12, 30842, Note_off_c, 6, 50, 64
12, 30960, Control_c, 6, 64, 127
12, 30960, Note_on_c, 6, 57, 49
12, 30960, Note_on_c, 6, 50, 41
12, 31000, Note_off_c, 6, 50, 64
12, 31016, Note_off_c, 6, 57, 64
12, 31016, Control_c, 6, 64, 0
12, 31200, Note_on_c, 6, 50, 56
12, 31200, Note_on_c, 6, 57, 56
12, 31440, Note_off_c, 6, 57, 64
12, 31440, Note_off_c, 6, 50, 64
12, 31440, Control_c, 6, 64, 127
12, 31440, Note_on_c, 6, 50, 51
12, 31440, Note_on_c, 6, 57, 60
12, 31486, Note_off_c, 6, 50, 64
12, 31492, Note_off_c, 6, 57, 64
12, 31492, Control_c, 6, 64, 0
12, 31680, Note_on_c, 6, 53, 55
12, 31680, Note_on_c, 6, 58, 64
12, 31752, Note_off_c, 6, 58, 64
12, 31802, Note_off_c, 6, 53, 64
12, 31920, Control_c, 6, 64, 127
12, 31920, Note_on_c, 6, 58, 49
12, 31920, Note_on_c, 6, 53, 41
12, 31960, Note_off_c, 6, 53, 64
12, 31976, Note_off_c, 6, 58, 64
12, 31976, Control_c, 6, 64, 0
12, 32160, Note_on_c, 6, 52, 55
12, 32160, Note_on_c, 6, 58, 64
12, 32232, Note_off_c, 6, 58, 64
12, 32282, Note_off_c, 6, 52, 64
12, 32400, Control_c, 6, 64, 127
12, 32400, Note_on_c, 6, 58, 49
12, 32400, Note_on_c, 6, 52, 41
12, 32440, Note_off_c, 6, 52, 64
12, 32456, Note_off_c, 6, 58, 64
12, 32456, Control_c, 6, 64, 0
12, 32640, Note_on_c, 6, 53, 55
12, 32640, Note_on_c, 6, 60, 64
12, 32712, Note_off_c, 6, 60, 64
12, 32762, Note_off_c, 6, 53, 64
12, 32880, Control_c, 6, 64, 127
12, 32880, Note_on_c, 6, 60, 49
12, 32880, Note_on_c, 6, 53, 41
12, 32920, Note_off_c, 6, 53, 64
12, 32936, Note_off_c, 6, 60, 64
12, 32936, Control_c, 6, 64, 0
12, 33120, Note_on_c, 6, 52, 55
12, 33120, Note_on_c, 6, 58, 64
12, 33192, Note_off_c, 6, 58, 64
12, 33242, Note_off_c, 6, 52, 64
12, 33360, Control_c, 6, 64, 127
12, 33360, Note_on_c, 6, 58, 49
12, 33360, Note_on_c, 6, 52, 41
12, 33400, Note_off_c, 6, 52, 64
12, 33416, Note_off_c, 6, 58, 64
12, 33416, Control_c, 6, 64, 0
12, 33600, Note_on_c, 6, 54, 55
12, 33600, Note_on_c, 6, 60, 64
12, 33672, Note_off_c, 6, 60, 64
12, 33722, Note_off_c, 6, 54, 64
12, 33840, Control_c, 6, 64, 127
12, 33840, Note_on_c, 6, 60, 49
12, 33840, Note_on_c, 6, 54, 41
12, 33880, Note_off_c, 6, 54, 64
12, 33896, Note_off_c, 6, 60, 64
12, 33896, Control_c, 6, 64, 0
12, 34080, Note_on_c, 6, 54, 55
12, 34080, Note_on_c, 6, 60, 64
12, 34152, Note_off_c, 6, 60, 64
12, 34202, Note_off_c, 6, 54, 64
12, 34320, Control_c, 6, 64, 127
12, 34320, Note_on_c, 6, 60, 49
12, 34320, Note_on_c, 6, 54, 41
12, 34360, Note_off_c, 6, 54, 64
12, 34376, Note_off_c, 6, 60, 64
12, 34376, Control_c, 6, 64, 0
12, 34560, Note_on_c, 6, 53, 55
12, 34560, Note_on_c, 6, 60, 64
12, 34632, Note_off_c, 6, 60, 64
12, 34682, Note_off_c, 6, 53, 64
12, 34800, Control_c, 6, 64, 127
12, 34800, Note_on_c, 6, 60, 49
12, 34800, Note_on_c, 6, 53, 41
12, 34840, Note_off_c, 6, 53, 64
12, 34856, Note_off_c, 6, 60, 64
12, 34856, Control_c, 6, 64, 0
12, 35040, Note_on_c, 6, 51, 55
12, 35040, Note_on_c, 6, 58, 64
12, 35112, Note_off_c, 6, 58, 64
12, 35162, Note_off_c, 6, 51, 64
12, 35280, Control_c, 6, 64, 127
12, 35280, Note_on_c, 6, 58, 49
12, 35280, Note_on_c, 6, 51, 41
12, 35320, Note_off_c, 6, 51, 64
12, 35336, Note_off_c, 6, 58, 64
12, 35336, Control_c, 6, 64, 0
12, 35520, Note_on_c, 6, 49, 55
12, 35520, Note_on_c, 6, 58, 64
12, 35592, Note_off_c, 6, 58, 64
12, 35642, Note_off_c, 6, 49, 64
12, 35760, Control_c, 6, 64, 127
12, 35760, Note_on_c, 6, 58, 49
12, 35760, Note_on_c, 6, 49, 41
12, 35800, Note_off_c, 6, 49, 64
12, 35816, Note_off_c, 6, 58, 64
12, 35816, Control_c, 6, 64, 0
12, 36000, Note_on_c, 6, 49, 55
12, 36000, Note_on_c, 6, 56, 64
12, 36072, Note_off_c, 6, 56, 64
12, 36122, Note_off_c, 6, 49, 64
12, 36240, Control_c, 6, 64, 127
12, 36240, Note_on_c, 6, 56, 49
12, 36240, Note_on_c, 6, 49, 41
12, 36280, Note_off_c, 6, 49, 64
12, 36296, Note_off_c, 6, 56, 64
12, 36296, Control_c, 6, 64, 0
12, 36480, Note_on_c, 6, 53, 55
12, 36480, Note_on_c, 6, 58, 64
12, 36552, Note_off_c, 6, 58, 64
12, 36602, Note_off_c, 6, 53, 64
12, 36720, Control_c, 6, 64, 127
12, 36720, Note_on_c, 6, 58, 49
12, 36720, Note_on_c, 6, 53, 41
12, 36760, Note_off_c, 6, 53, 64
12, 36776, Note_off_c, 6, 58, 64
12, 36776, Control_c, 6, 64, 0
12, 36960, Note_on_c, 6, 53, 56
12, 36960, Note_on_c, 6, 58, 56
12, 37200, Note_off_c, 6, 58, 64
12, 37200, Note_off_c, 6, 53, 64
12, 37200, Control_c, 6, 64, 127
12, 37200, Note_on_c, 6, 53, 51
12, 37200, Note_on_c, 6, 58, 60
12, 37246, Note_off_c, 6, 53, 64
12, 37252, Note_off_c, 6, 58, 64
12, 37252, Control_c, 6, 64, 0
12, 37440, Note_on_c, 6, 52, 55
12, 37440, Note_on_c, 6, 58, 64
12, 37512, Note_off_c, 6, 58, 64
12, 37562, Note_off_c, 6, 52, 64
12, 37680, Control_c, 6, 64, 127
12, 37680, Note_on_c, 6, 58, 49
12, 37680, Note_on_c, 6, 52, 41
12, 37720, Note_off_c, 6, 52, 64
12, 37736, Note_off_c, 6, 58, 64
12, 37736, Control_c, 6, 64, 0
12, 37920, Note_on_c, 6, 52, 56
12, 37920, Note_on_c, 6, 58, 56
12, 38160, Note_off_c, 6, 58, 64
12, 38160, Note_off_c, 6, 52, 64
12, 38160, Control_c, 6, 64, 127
12, 38160, Note_on_c, 6, 52, 51
12, 38160, Note_on_c, 6, 58, 60
12, 38206, Note_off_c, 6, 52, 64
12, 38212, Note_off_c, 6, 58, 64
12, 38212, Control_c, 6, 64, 0
12, 38400, Note_on_c, 6, 52, 55
12, 38400, Note_on_c, 6, 57, 64
12, 38472, Note_off_c, 6, 57, 64
12, 38522, Note_off_c, 6, 52, 64
12, 38640, Control_c, 6, 64, 127
12, 38640, Note_on_c, 6, 57, 49
12, 38640, Note_on_c, 6, 52, 41
12, 38680, Note_off_c, 6, 52, 64
12, 38696, Note_off_c, 6, 57, 64
12, 38696, Control_c, 6, 64, 0
12, 38880, Note_on_c, 6, 52, 56
12, 38880, Note_on_c, 6, 57, 56
12, 39120, Note_off_c, 6, 57, 64
12, 39120, Note_off_c, 6, 52, 64
12, 39120, Control_c, 6, 64, 127
12, 39120, Note_on_c, 6, 52, 51
12, 39120, Note_on_c, 6, 57, 60
12, 39166, Note_off_c, 6, 52, 64
12, 39172, Note_off_c, 6, 57, 64
12, 39172, Control_c, 6, 64, 0
12, 39360, Note_on_c, 6, 51, 55
12, 39360, Note_on_c, 6, 58, 64
12, 39432, Note_off_c, 6, 58, 64
12, 39482, Note_off_c, 6, 51, 64
12, 39600, Control_c, 6, 64, 127
12, 39600, Note_on_c, 6, 58, 49
12, 39600, Note_on_c, 6, 51, 41
12, 39640, Note_off_c, 6, 51, 64
12, 39656, Note_off_c, 6, 58, 64
12, 39656, Control_c, 6, 64, 0
12, 39840, Note_on_c, 6, 51, 55
12, 39840, Note_on_c, 6, 57, 64
12, 39912, Note_off_c, 6, 57, 64
12, 39962, Note_off_c, 6, 51, 64
12, 40080, Control_c, 6, 64, 127
12, 40080, Note_on_c, 6, 57, 49
12, 40080, Note_on_c, 6, 51, 41
12, 40120, Note_off_c, 6, 51, 64
12, 40136, Note_off_c, 6, 57, 64
12, 40136, Control_c, 6, 64, 0
12, 40320, Note_on_c, 6, 49, 55
12, 40320, Note_on_c, 6, 56, 64
12, 40392, Note_off_c, 6, 56, 64
12, 40442, Note_off_c, 6, 49, 64
12, 40560, Control_c, 6, 64, 127
12, 40560, Note_on_c, 6, 56, 49
12, 40560, Note_on_c, 6, 49, 41
12, 40600, Note_off_c, 6, 49, 64
12, 40616, Note_off_c, 6, 56, 64
12, 40616, Control_c, 6, 64, 0
12, 40800, Note_on_c, 6, 49, 56
12, 40800, Note_on_c, 6, 56, 56
12, 41040, Note_off_c, 6, 56, 64
12, 41040, Note_off_c, 6, 49, 64
12, 41040, Control_c, 6, 64, 127
12, 41040, Note_on_c, 6, 49, 51
12, 41040, Note_on_c, 6, 56, 60
12, 41086, Note_off_c, 6, 49, 64
12, 41092, Note_off_c, 6, 56, 64
12, 41092, Control_c, 6, 64, 0
12, 41280, Note_on_c, 6, 49, 55
12, 41280, Note_on_c, 6, 55, 64
12, 41352, Note_off_c, 6, 55, 64
12, 41402, Note_off_c, 6, 49, 64
12, 41520, Control_c, 6, 64, 127
12, 41520, Note_on_c, 6, 55, 49
12, 41520, Note_on_c, 6, 49, 41
12, 41560, Note_off_c, 6, 49, 64
12, 41576, Note_off_c, 6, 55, 64
12, 41576, Control_c, 6, 64, 0
12, 41760, Note_on_c, 6, 49, 56
12, 41760, Note_on_c, 6, 55, 56
12, 42000, Note_off_c, 6, 55, 64
12, 42000, Note_off_c, 6, 49, 64
12, 42000, Control_c, 6, 64, 127
12, 42000, Note_on_c, 6, 49, 51
12, 42000, Note_on_c, 6, 55, 60
12, 42046, Note_off_c, 6, 49, 64
12, 42052, Note_off_c, 6, 55, 64
12, 42052, Control_c, 6, 64, 0
12, 42240, Note_on_c, 6, 55, 55
12, 42240, Note_on_c, 6, 60, 64
12, 42312, Note_off_c, 6, 60, 64
12, 42362, Note_off_c, 6, 55, 64
12, 42480, Control_c, 6, 64, 127
12, 42480, Note_on_c, 6, 60, 49
12, 42480, Note_on_c, 6, 55, 41
12, 42520, Note_off_c, 6, 55, 64
12, 42536, Note_off_c, 6, 60, 64
12, 42536, Control_c, 6, 64, 0
12, 42720, Note_on_c, 6, 55, 56
12, 42720, Note_on_c, 6, 60, 56
12, 42960, Note_off_c, 6, 60, 64
12, 42960, Note_off_c, 6, 55, 64
12, 42960, Control_c, 6, 64, 127
12, 42960, Note_on_c, 6, 55, 51
12, 42960, Note_on_c, 6, 60, 60
12, 43006, Note_off_c, 6, 55, 64
12, 43012, Note_off_c, 6, 60, 64
12, 43012, Control_c, 6, 64, 0
12, 43200, Note_on_c, 6, 53, 55
12, 43200, Note_on_c, 6, 60, 64
12, 43272, Note_off_c, 6, 60, 64
12, 43322, Note_off_c, 6, 53, 64
12, 43440, Control_c, 6, 64, 127
12, 43440, Note_on_c, 6, 60, 49
12, 43440, Note_on_c, 6, 53, 41
12, 43480, Note_off_c, 6, 53, 64
12, 43496, Note_off_c, 6, 60, 64
12, 43496, Control_c, 6, 64, 0
12, 43680, Note_on_c, 6, 53, 56
12, 43680, Note_on_c, 6, 60, 56
12, 43920, Note_off_c, 6, 60, 64
12, 43920, Note_off_c, 6, 53, 64
12, 43920, Control_c, 6, 64, 127
12, 43920, Note_on_c, 6, 53, 51
12, 43920, Note_on_c, 6, 60, 60
12, 43966, Note_off_c, 6, 53, 64
12, 43972, Note_off_c, 6, 60, 64
12, 43972, Control_c, 6, 64, 0
12, 44160, Note_on_c, 6, 53, 55
12, 44160, Note_on_c, 6, 58, 64
12, 44232, Note_off_c, 6, 58, 64
12, 44282, Note_off_c, 6, 53, 64
12, 44400, Control_c, 6, 64, 127
12, 44400, Note_on_c, 6, 58, 49
12, 44400, Note_on_c, 6, 53, 41
12, 44440, Note_off_c, 6, 53, 64
12, 44456, Note_off_c, 6, 58, 64
12, 44456, Control_c, 6, 64, 0
12, 44640, Note_on_c, 6, 53, 56
12, 44640, Note_on_c, 6, 58, 56
12, 44880, Note_off_c, 6, 58, 64
12, 44880, Note_off_c, 6, 53, 64
12, 44880, Control_c, 6, 64, 127
12, 44880, Note_on_c, 6, 53, 51
12, 44880, Note_on_c, 6, 58, 60
12, 44926, Note_off_c, 6, 53, 64
12, 44932, Note_off_c, 6, 58, 64
12, 44932, Control_c, 6, 64, 0
12, 45120, Note_on_c, 6, 52, 55
12, 45120, Note_on_c, 6, 58, 64
12, 45192, Note_off_c, 6, 58, 64
12, 45242, Note_off_c, 6, 52, 64
12, 45360, Control_c, 6, 64, 127
12, 45360, Note_on_c, 6, 58, 49
12, 45360, Note_on_c, 6, 52, 41
12, 45400, Note_off_c, 6, 52, 64
12, 45416, Note_off_c, 6, 58, 64
12, 45416, Control_c, 6, 64, 0
12, 45600, Note_on_c, 6, 52, 55
12, 45600, Note_on_c, 6, 58, 64
12, 45672, Note_off_c, 6, 58, 64
12, 45722, Note_off_c, 6, 52, 64
12, 45840, Control_c, 6, 64, 127
12, 45840, Note_on_c, 6, 58, 49
12, 45840, Note_on_c, 6, 52, 41
12, 45880, Note_off_c, 6, 52, 64
12, 45896, Note_off_c, 6, 58, 64
12, 45896, Control_c, 6, 64, 0
12, 46080, Note_on_c, 6, 52, 55
12, 46080, Note_on_c, 6, 57, 64
12, 46152, Note_off_c, 6, 57, 64
12, 46202, Note_off_c, 6, 52, 64
12, 46320, Control_c, 6, 64, 127
12, 46320, Note_on_c, 6, 57, 49
12, 46320, Note_on_c, 6, 52, 41
12, 46360, Note_off_c, 6, 52, 64
12, 46376, Note_off_c, 6, 57, 64
12, 46376, Control_c, 6, 64, 0
12, 46560, Note_on_c, 6, 52, 56
12, 46560, Note_on_c, 6, 57, 56
12, 46800, Note_off_c, 6, 57, 64
12, 46800, Note_off_c, 6, 52, 64
12, 46800, Control_c, 6, 64, 127
12, 46800, Note_on_c, 6, 52, 51
12, 46800, Note_on_c, 6, 57, 60
12, 46846, Note_off_c, 6, 52, 64
12, 46852, Note_off_c, 6, 57, 64
12, 46852, Control_c, 6, 64, 0
12, 47040, Note_on_c, 6, 53, 55
12, 47040, Note_on_c, 6, 58, 64
12, 47112, Note_off_c, 6, 58, 64
12, 47162, Note_off_c, 6, 53, 64
12, 47280, Control_c, 6, 64, 127
12, 47280, Note_on_c, 6, 58, 49
12, 47280, Note_on_c, 6, 53, 41
12, 47320, Note_off_c, 6, 53, 64
12, 47336, Note_off_c, 6, 58, 64
12, 47336, Control_c, 6, 64, 0
12, 47520, Note_on_c, 6, 52, 55
12, 47520, Note_on_c, 6, 58, 64
12, 47592, Note_off_c, 6, 58, 64
12, 47642, Note_off_c, 6, 52, 64
12, 47760, Control_c, 6, 64, 127
12, 47760, Note_on_c, 6, 58, 49
12, 47760, Note_on_c, 6, 52, 41
12, 47800, Note_off_c, 6, 52, 64
12, 47816, Note_off_c, 6, 58, 64
12, 47816, Control_c, 6, 64, 0
12, 48000, Note_on_c, 6, 51, 55
12, 48000, Note_on_c, 6, 56, 64
12, 48072, Note_off_c, 6, 56, 64
12, 48122, Note_off_c, 6, 51, 64
12, 48240, Control_c, 6, 64, 127
12, 48240, Note_on_c, 6, 56, 49
12, 48240, Note_on_c, 6, 51, 41
12, 48280, Note_off_c, 6, 51, 64
12, 48296, Note_off_c, 6, 56, 64
12, 48296, Control_c, 6, 64, 0
12, 48480, Note_on_c, 6, 52, 55
12, 48480, Note_on_c, 6, 58, 64
12, 48552, Note_off_c, 6, 58, 64
12, 48602, Note_off_c, 6, 52, 64
12, 48720, Control_c, 6, 64, 127
12, 48720, Note_on_c, 6, 58, 49
12, 48720, Note_on_c, 6, 52, 41
12, 48760, Note_off_c, 6, 52, 64
12, 48776, Note_off_c, 6, 58, 64
12, 48776, Control_c, 6, 64, 0
12, 48960, Note_on_c, 6, 54, 55
12, 48960, Note_on_c, 6, 60, 64
12, 49032, Note_off_c, 6, 60, 64
12, 49082, Note_off_c, 6, 54, 64
12, 49200, Control_c, 6, 64, 127
12, 49200, Note_on_c, 6, 60, 49
12, 49200, Note_on_c, 6, 54, 41
12, 49240, Note_off_c, 6, 54, 64
12, 49256, Note_off_c, 6, 60, 64
12, 49256, Control_c, 6, 64, 0
12, 49440, Note_on_c, 6, 54, 55
12, 49440, Note_on_c, 6, 60, 64
12, 49512, Note_off_c, 6, 60, 64
12, 49562, Note_off_c, 6, 54, 64
12, 49680, Control_c, 6, 64, 127
12, 49680, Note_on_c, 6, 60, 49
12, 49680, Note_on_c, 6, 54, 41
12, 49720, Note_off_c, 6, 54, 64
12, 49736, Note_off_c, 6, 60, 64
12, 49736, Control_c, 6, 64, 0
12, 49920, Note_on_c, 6, 53, 55
12, 49920, Note_on_c, 6, 60, 64
12, 49992, Note_off_c, 6, 60, 64
12, 50042, Note_off_c, 6, 53, 64
12, 50160, Control_c, 6, 64, 127
12, 50160, Note_on_c, 6, 60, 49
12, 50160, Note_on_c, 6, 53, 41
12, 50200, Note_off_c, 6, 53, 64
12, 50216, Note_off_c, 6, 60, 64
12, 50216, Control_c, 6, 64, 0
12, 50400, Note_on_c, 6, 51, 55
12, 50400, Note_on_c, 6, 60, 64
12, 50472, Note_off_c, 6, 60, 64
12, 50522, Note_off_c, 6, 51, 64
12, 50640, Control_c, 6, 64, 127
12, 50640, Note_on_c, 6, 60, 49
12, 50640, Note_on_c, 6, 51, 41
12, 50680, Note_off_c, 6, 51, 64
12, 50696, Note_off_c, 6, 60, 64
12, 50696, Control_c, 6, 64, 0
12, 50880, Note_on_c, 6, 49, 55
12, 50880, Note_on_c, 6, 58, 64
12, 50952, Note_off_c, 6, 58, 64
12, 51002, Note_off_c, 6, 49, 64
12, 51120, Control_c, 6, 64, 127
12, 51120, Note_on_c, 6, 58, 49
12, 51120, Note_on_c, 6, 49, 41
12, 51160, Note_off_c, 6, 49, 64
12, 51176, Note_off_c, 6, 58, 64
12, 51176, Control_c, 6, 64, 0
12, 51360, Note_on_c, 6, 49, 55
12, 51360, Note_on_c, 6, 56, 64
12, 51432, Note_off_c, 6, 56, 64
12, 51482, Note_off_c, 6, 49, 64
12, 51600, Control_c, 6, 64, 127
12, 51600, Note_on_c, 6, 56, 49
12, 51600, Note_on_c, 6, 49, 41
12, 51640, Note_off_c, 6, 49, 64
12, 51656, Note_off_c, 6, 56, 64
12, 51656, Control_c, 6, 64, 0
12, 51840, Note_on_c, 6, 53, 55
12, 51840, Note_on_c, 6, 58, 64
12, 51912, Note_off_c, 6, 58, 64
12, 51962, Note_off_c, 6, 53, 64
12, 52080, Control_c, 6, 64, 127
12, 52080, Note_on_c, 6, 58, 49
12, 52080, Note_on_c, 6, 53, 41
12, 52120, Note_off_c, 6, 53, 64
12, 52136, Note_off_c, 6, 58, 64
12, 52136, Control_c, 6, 64, 0
12, 52320, Note_on_c, 6, 53, 56
12, 52320, Note_on_c, 6, 58, 56
12, 52560, Note_off_c, 6, 58, 64
12, 52560, Note_off_c, 6, 53, 64
12, 52560, Control_c, 6, 64, 127
12, 52560, Note_on_c, 6, 53, 51
12, 52560, Note_on_c, 6, 58, 60
12, 52606, Note_off_c, 6, 53, 64
12, 52612, Note_off_c, 6, 58, 64
12, 52612, Control_c, 6, 64, 0
12, 52800, Note_on_c, 6, 52, 55
12, 52800, Note_on_c, 6, 58, 64
12, 52872, Note_off_c, 6, 58, 64
12, 52922, Note_off_c, 6, 52, 64
12, 53040, Control_c, 6, 64, 127
12, 53040, Note_on_c, 6, 58, 49
12, 53040, Note_on_c, 6, 52, 41
12, 53080, Note_off_c, 6, 52, 64
12, 53096, Note_off_c, 6, 58, 64
12, 53096, Control_c, 6, 64, 0
12, 53280, Note_on_c, 6, 52, 56
12, 53280, Note_on_c, 6, 58, 56
12, 53520, Note_off_c, 6, 58, 64
12, 53520, Note_off_c, 6, 52, 64
12, 53520, Control_c, 6, 64, 127
12, 53520, Note_on_c, 6, 52, 51
12, 53520, Note_on_c, 6, 58, 60
12, 53566, Note_off_c, 6, 52, 64
12, 53572, Note_off_c, 6, 58, 64
12, 53572, Control_c, 6, 64, 0
12, 53760, Note_on_c, 6, 52, 55
12, 53760, Note_on_c, 6, 57, 64
12, 53832, Note_off_c, 6, 57, 64
12, 53882, Note_off_c, 6, 52, 64
12, 54000, Control_c, 6, 64, 127
12, 54000, Note_on_c, 6, 57, 49
12, 54000, Note_on_c, 6, 52, 41
12, 54040, Note_off_c, 6, 52, 64
12, 54056, Note_off_c, 6, 57, 64
12, 54056, Control_c, 6, 64, 0
12, 54240, Note_on_c, 6, 52, 56
12, 54240, Note_on_c, 6, 57, 56
12, 54480, Note_off_c, 6, 57, 64
12, 54480, Note_off_c, 6, 52, 64
12, 54480, Control_c, 6, 64, 127
12, 54480, Note_on_c, 6, 52, 51
12, 54480, Note_on_c, 6, 57, 60
12, 54526, Note_off_c, 6, 52, 64
12, 54532, Note_off_c, 6, 57, 64
12, 54532, Control_c, 6, 64, 0
12, 54720, Note_on_c, 6, 51, 55
12, 54720, Note_on_c, 6, 58, 64
12, 54792, Note_off_c, 6, 58, 64
12, 54842, Note_off_c, 6, 51, 64
12, 54960, Control_c, 6, 64, 127
12, 54960, Note_on_c, 6, 58, 49
12, 54960, Note_on_c, 6, 51, 41
12, 55000, Note_off_c, 6, 51, 64
12, 55016, Note_off_c, 6, 58, 64
12, 55016, Control_c, 6, 64, 0
12, 55200, Note_on_c, 6, 51, 55
12, 55200, Note_on_c, 6, 57, 64
12, 55272, Note_off_c, 6, 57, 64
12, 55322, Note_off_c, 6, 51, 64
12, 55440, Control_c, 6, 64, 127
12, 55440, Note_on_c, 6, 57, 49
12, 55440, Note_on_c, 6, 51, 41
12, 55480, Note_off_c, 6, 51, 64
12, 55496, Note_off_c, 6, 57, 64
12, 55496, Control_c, 6, 64, 0
12, 55680, Note_on_c, 6, 50, 55
12, 55680, Note_on_c, 6, 57, 64
12, 55752, Note_off_c, 6, 57, 64
12, 55802, Note_off_c, 6, 50, 64
12, 55920, Control_c, 6, 64, 127
12, 55920, Note_on_c, 6, 57, 49
12, 55920, Note_on_c, 6, 50, 41
12, 55960, Note_off_c, 6, 50, 64
12, 55976, Note_off_c, 6, 57, 64
12, 55976, Control_c, 6, 64, 0
12, 56160, Note_on_c, 6, 50, 56
12, 56160, Note_on_c, 6, 57, 56
12, 56400, Note_off_c, 6, 57, 64
12, 56400, Note_off_c, 6, 50, 64
12, 56400, Control_c, 6, 64, 127
12, 56400, Note_on_c, 6, 50, 51
12, 56400, Note_on_c, 6, 57, 60
12, 56446, Note_off_c, 6, 50, 64
12, 56452, Note_off_c, 6, 57, 64
12, 56452, Control_c, 6, 64, 0
12, 56640, Note_on_c, 6, 53, 55
12, 56640, Note_on_c, 6, 58, 64
12, 56712, Note_off_c, 6, 58, 64
12, 56762, Note_off_c, 6, 53, 64
12, 56880, Control_c, 6, 64, 127
12, 56880, Note_on_c, 6, 58, 49
12, 56880, Note_on_c, 6, 53, 41
12, 56920, Note_off_c, 6, 53, 64
12, 56936, Note_off_c, 6, 58, 64
12, 56936, Control_c, 6, 64, 0
12, 57120, Note_on_c, 6, 52, 55
12, 57120, Note_on_c, 6, 58, 64
12, 57192, Note_off_c, 6, 58, 64
12, 57242, Note_off_c, 6, 52, 64
12, 57360, Control_c, 6, 64, 127
12, 57360, Note_on_c, 6, 58, 49
12, 57360, Note_on_c, 6, 52, 41
12, 57400, Note_off_c, 6, 52, 64
12, 57416, Note_off_c, 6, 58, 64
12, 57416, Control_c, 6, 64, 0
12, 57600, Note_on_c, 6, 48, 55
12, 57600, Note_on_c, 6, 55, 64
12, 57672, Note_off_c, 6, 55, 64
12, 57722, Note_off_c, 6, 48, 64
12, 57840, Control_c, 6, 64, 127
12, 57840, Note_on_c, 6, 55, 49
12, 57840, Note_on_c, 6, 48, 41
12, 57880, Note_off_c, 6, 48, 64
12, 57896, Note_off_c, 6, 55, 64
12, 57896, Control_c, 6, 64, 0
12, 58080, Note_on_c, 6, 48, 56
12, 58080, Note_on_c, 6, 55, 56
12, 58320, Note_off_c, 6, 55, 64
12, 58320, Note_off_c, 6, 48, 64
12, 58320, Control_c, 6, 64, 127
12, 58320, Note_on_c, 6, 48, 51
12, 58320, Note_on_c, 6, 55, 60
12, 58366, Note_off_c, 6, 48, 64
12, 58372, Note_off_c, 6, 55, 64
12, 58372, Control_c, 6, 64, 0
12, 58560, Note_on_c, 6, 53, 55
12, 58560, Note_on_c, 6, 59, 64
12, 58632, Note_off_c, 6, 59, 64
12, 58682, Note_off_c, 6, 53, 64
12, 58800, Control_c, 6, 64, 127
12, 58800, Note_on_c, 6, 59, 49
12, 58800, Note_on_c, 6, 53, 41
12, 58840, Note_off_c, 6, 53, 64
12, 58856, Note_off_c, 6, 59, 64
12, 58856, Control_c, 6, 64, 0
12, 59040, Note_on_c, 6, 53, 56
12, 59040, Note_on_c, 6, 59, 56
12, 59280, Note_off_c, 6, 59, 64
12, 59280, Note_off_c, 6, 53, 64
12, 59280, Control_c, 6, 64, 127
12, 59280, Note_on_c, 6, 53, 51
12, 59280, Note_on_c, 6, 59, 60
12, 59326, Note_off_c, 6, 53, 64
12, 59332, Note_off_c, 6, 59, 64
12, 59332, Control_c, 6, 64, 0
12, 59520, Note_on_c, 6, 53, 55
12, 59520, Note_on_c, 6, 58, 64
12, 59592, Note_off_c, 6, 58, 64
12, 59642, Note_off_c, 6, 53, 64
12, 59760, Control_c, 6, 64, 127
12, 59760, Note_on_c, 6, 58, 49
12, 59760, Note_on_c, 6, 53, 41
12, 59800, Note_off_c, 6, 53, 64
12, 59816, Note_off_c, 6, 58, 64
12, 59816, Control_c, 6, 64, 0
12, 60000, Note_on_c, 6, 53, 56
12, 60000, Note_on_c, 6, 58, 56
12, 60240, Note_off_c, 6, 58, 64
12, 60240, Note_off_c, 6, 53, 64
12, 60240, Control_c, 6, 64, 127
12, 60240, Note_on_c, 6, 53, 51
12, 60240, Note_on_c, 6, 58, 60
12, 60286, Note_off_c, 6, 53, 64
12, 60292, Note_off_c, 6, 58, 64
12, 60292, Control_c, 6, 64, 0
12, 60480, Note_on_c, 6, 52, 55
12, 60480, Note_on_c, 6, 58, 64
12, 60552, Note_off_c, 6, 58, 64
12, 60602, Note_off_c, 6, 52, 64
12, 60720, Control_c, 6, 64, 127
12, 60720, Note_on_c, 6, 58, 49
12, 60720, Note_on_c, 6, 52, 41
12, 60760, Note_off_c, 6, 52, 64
12, 60776, Note_off_c, 6, 58, 64
12, 60776, Control_c, 6, 64, 0
12, 60960, Note_on_c, 6, 52, 55
12, 60960, Note_on_c, 6, 58, 64
12, 61032, Note_off_c, 6, 58, 64
12, 61082, Note_off_c, 6, 52, 64
12, 61200, Control_c, 6, 64, 127
12, 61200, Note_on_c, 6, 58, 49
12, 61200, Note_on_c, 6, 52, 41
12, 61240, Note_off_c, 6, 52, 64
12, 61256, Note_off_c, 6, 58, 64
12, 61256, Control_c, 6, 64, 0
12, 61440, Note_on_c, 6, 50, 55
12, 61440, Note_on_c, 6, 57, 64
12, 61512, Note_off_c, 6, 57, 64
12, 61562, Note_off_c, 6, 50, 64
12, 61680, Control_c, 6, 64, 127
12, 61680, Note_on_c, 6, 57, 49
12, 61680, Note_on_c, 6, 50, 41
12, 61720, Note_off_c, 6, 50, 64
12, 61736, Note_off_c, 6, 57, 64
12, 61736, Control_c, 6, 64, 0
12, 61920, Note_on_c, 6, 50, 56
12, 61920, Note_on_c, 6, 57, 56
12, 62160, Note_off_c, 6, 57, 64
12, 62160, Note_off_c, 6, 50, 64
12, 62160, Control_c, 6, 64, 127
12, 62160, Note_on_c, 6, 50, 51
12, 62160, Note_on_c, 6, 57, 60
12, 62206, Note_off_c, 6, 50, 64
12, 62212, Note_off_c, 6, 57, 64
12, 62212, Control_c, 6, 64, 0
12, 62400, Note_on_c, 6, 53, 55
12, 62400, Note_on_c, 6, 58, 64
12, 62472, Note_off_c, 6, 58, 64
12, 62522, Note_off_c, 6, 53, 64
12, 62640, Control_c, 6, 64, 127
12, 62640, Note_on_c, 6, 58, 49
12, 62640, Note_on_c, 6, 53, 41
12, 62680, Note_off_c, 6, 53, 64
12, 62696, Note_off_c, 6, 58, 64
12, 62696, Control_c, 6, 64, 0
12, 62880, Note_on_c, 6, 52, 55
12, 62880, Note_on_c, 6, 58, 64
12, 62952, Note_off_c, 6, 58, 64
12, 63002, Note_off_c, 6, 52, 64
12, 63120, Control_c, 6, 64, 127
12, 63120, Note_on_c, 6, 58, 49
12, 63120, Note_on_c, 6, 52, 41
12, 63160, Note_off_c, 6, 52, 64
12, 63176, Note_off_c, 6, 58, 64
12, 63176, Control_c, 6, 64, 0
12, 63360, Note_on_c, 6, 53, 55
12, 63360, Note_on_c, 6, 60, 64
12, 63432, Note_off_c, 6, 60, 64
12, 63482, Note_off_c, 6, 53, 64
12, 63600, Control_c, 6, 64, 127
12, 63600, Note_on_c, 6, 60, 49
12, 63600, Note_on_c, 6, 53, 41
12, 63640, Note_off_c, 6, 53, 64
12, 63656, Note_off_c, 6, 60, 64
12, 63656, Control_c, 6, 64, 0
12, 63840, Note_on_c, 6, 52, 55
12, 63840, Note_on_c, 6, 58, 64
12, 63912, Note_off_c, 6, 58, 64
12, 63962, Note_off_c, 6, 52, 64
12, 64080, Control_c, 6, 64, 127
12, 64080, Note_on_c, 6, 58, 49
12, 64080, Note_on_c, 6, 52, 41
12, 64120, Note_off_c, 6, 52, 64
12, 64136, Note_off_c, 6, 58, 64
12, 64136, Control_c, 6, 64, 0
12, 64320, Note_on_c, 6, 54, 55
12, 64320, Note_on_c, 6, 60, 64
12, 64392, Note_off_c, 6, 60, 64
12, 64442, Note_off_c, 6, 54, 64
12, 64560, Control_c, 6, 64, 127
12, 64560, Note_on_c, 6, 60, 49
12, 64560, Note_on_c, 6, 54, 41
12, 64600, Note_off_c, 6, 54, 64
12, 64616, Note_off_c, 6, 60, 64
12, 64616, Control_c, 6, 64, 0
12, 64800, Note_on_c, 6, 54, 55
12, 64800, Note_on_c, 6, 60, 64
12, 64872, Note_off_c, 6, 60, 64
12, 64922, Note_off_c, 6, 54, 64
12, 65040, Control_c, 6, 64, 127
12, 65040, Note_on_c, 6, 60, 49
12, 65040, Note_on_c, 6, 54, 41
12, 65080, Note_off_c, 6, 54, 64
12, 65096, Note_off_c, 6, 60, 64
12, 65096, Control_c, 6, 64, 0
12, 65280, Note_on_c, 6, 53, 55
12, 65280, Note_on_c, 6, 60, 64
12, 65352, Note_off_c, 6, 60, 64
12, 65402, Note_off_c, 6, 53, 64
12, 65520, Control_c, 6, 64, 127
12, 65520, Note_on_c, 6, 60, 49
12, 65520, Note_on_c, 6, 53, 41
12, 65560, Note_off_c, 6, 53, 64
12, 65576, Note_off_c, 6, 60, 64
12, 65576, Control_c, 6, 64, 0
12, 65760, Note_on_c, 6, 51, 55
12, 65760, Note_on_c, 6, 58, 64
12, 65832, Note_off_c, 6, 58, 64
12, 65882, Note_off_c, 6, 51, 64
12, 66000, Control_c, 6, 64, 127
12, 66000, Note_on_c, 6, 58, 49
12, 66000, Note_on_c, 6, 51, 41
12, 66040, Note_off_c, 6, 51, 64
12, 66056, Note_off_c, 6, 58, 64
12, 66056, Control_c, 6, 64, 0
12, 66240, Note_on_c, 6, 49, 55
12, 66240, Note_on_c, 6, 58, 64
12, 66312, Note_off_c, 6, 58, 64
12, 66362, Note_off_c, 6, 49, 64
12, 66480, Control_c, 6, 64, 127
12, 66480, Note_on_c, 6, 58, 49
12, 66480, Note_on_c, 6, 49, 41
12, 66520, Note_off_c, 6, 49, 64
12, 66536, Note_off_c, 6, 58, 64
12, 66536, Control_c, 6, 64, 0
12, 66720, Note_on_c, 6, 49, 55
12, 66720, Note_on_c, 6, 56, 64
12, 66792, Note_off_c, 6, 56, 64
12, 66842, Note_off_c, 6, 49, 64
12, 66960, Control_c, 6, 64, 127
12, 66960, Note_on_c, 6, 56, 49
12, 66960, Note_on_c, 6, 49, 41
12, 67000, Note_off_c, 6, 49, 64
12, 67016, Note_off_c, 6, 56, 64
12, 67016, Control_c, 6, 64, 0
12, 67200, Note_on_c, 6, 53, 55
12, 67200, Note_on_c, 6, 58, 64
12, 67272, Note_off_c, 6, 58, 64
12, 67322, Note_off_c, 6, 53, 64
12, 67440, Control_c, 6, 64, 127
12, 67440, Note_on_c, 6, 58, 49
12, 67440, Note_on_c, 6, 53, 41
12, 67480, Note_off_c, 6, 53, 64
12, 67496, Note_off_c, 6, 58, 64
12, 67496, Control_c, 6, 64, 0
12, 67680, Note_on_c, 6, 53, 56
12, 67680, Note_on_c, 6, 58, 56
12, 67920, Note_off_c, 6, 58, 64
12, 67920, Note_off_c, 6, 53, 64
12, 67920, Control_c, 6, 64, 127
12, 67920, Note_on_c, 6, 53, 51
12, 67920, Note_on_c, 6, 58, 60
12, 67966, Note_off_c, 6, 53, 64
12, 67972, Note_off_c, 6, 58, 64
12, 67972, Control_c, 6, 64, 0
12, 68160, Note_on_c, 6, 52, 55
12, 68160, Note_on_c, 6, 58, 64
12, 68232, Note_off_c, 6, 58, 64
12, 68282, Note_off_c, 6, 52, 64
12, 68400, Control_c, 6, 64, 127
12, 68400, Note_on_c, 6, 58, 49
12, 68400, Note_on_c, 6, 52, 41
12, 68440, Note_off_c, 6, 52, 64
12, 68456, Note_off_c, 6, 58, 64
12, 68456, Control_c, 6, 64, 0
12, 68640, Note_on_c, 6, 52, 56
12, 68640, Note_on_c, 6, 58, 56
12, 68880, Note_off_c, 6, 58, 64
12, 68880, Note_off_c, 6, 52, 64
12, 68880, Control_c, 6, 64, 127
12, 68880, Note_on_c, 6, 52, 51
12, 68880, Note_on_c, 6, 58, 60
12, 68926, Note_off_c, 6, 52, 64
12, 68932, Note_off_c, 6, 58, 64
12, 68932, Control_c, 6, 64, 0
12, 69120, Note_on_c, 6, 52, 55
12, 69120, Note_on_c, 6, 57, 64
12, 69192, Note_off_c, 6, 57, 64
12, 69242, Note_off_c, 6, 52, 64
12, 69360, Control_c, 6, 64, 127
12, 69360, Note_on_c, 6, 57, 49
12, 69360, Note_on_c, 6, 52, 41
12, 69400, Note_off_c, 6, 52, 64
12, 69416, Note_off_c, 6, 57, 64
12, 69416, Control_c, 6, 64, 0
12, 69600, Note_on_c, 6, 52, 56
12, 69600, Note_on_c, 6, 57, 56
12, 69840, Note_off_c, 6, 57, 64
12, 69840, Note_off_c, 6, 52, 64
12, 69840, Control_c, 6, 64, 127
12, 69840, Note_on_c, 6, 52, 51
12, 69840, Note_on_c, 6, 57, 60
12, 69886, Note_off_c, 6, 52, 64
12, 69892, Note_off_c, 6, 57, 64
12, 69892, Control_c, 6, 64, 0
12, 70080, Note_on_c, 6, 51, 55
12, 70080, Note_on_c, 6, 58, 64
12, 70152, Note_off_c, 6, 58, 64
12, 70202, Note_off_c, 6, 51, 64
12, 70320, Control_c, 6, 64, 127
12, 70320, Note_on_c, 6, 58, 49
12, 70320, Note_on_c, 6, 51, 41
12, 70360, Note_off_c, 6, 51, 64
12, 70376, Note_off_c, 6, 58, 64
12, 70376, Control_c, 6, 64, 0
12, 70560, Note_on_c, 6, 51, 55
12, 70560, Note_on_c, 6, 57, 64
12, 70632, Note_off_c, 6, 57, 64
12, 70682, Note_off_c, 6, 51, 64
12, 70800, Control_c, 6, 64, 127
12, 70800, Note_on_c, 6, 57, 49
12, 70800, Note_on_c, 6, 51, 41
12, 70840, Note_off_c, 6, 51, 64
12, 70856, Note_off_c, 6, 57, 64
12, 70856, Control_c, 6, 64, 0
12, 71040, Note_on_c, 6, 49, 55
12, 71040, Note_on_c, 6, 56, 64
12, 71112, Note_off_c, 6, 56, 64
12, 71162, Note_off_c, 6, 49, 64
12, 71280, Control_c, 6, 64, 127
12, 71280, Note_on_c, 6, 56, 49
12, 71280, Note_on_c, 6, 49, 41
12, 71320, Note_off_c, 6, 49, 64
12, 71336, Note_off_c, 6, 56, 64
12, 71336, Control_c, 6, 64, 0
12, 71520, Note_on_c, 6, 49, 56
12, 71520, Note_on_c, 6, 56, 56
12, 71760, Note_off_c, 6, 56, 64
12, 71760, Note_off_c, 6, 49, 64
12, 71760, Control_c, 6, 64, 127
12, 71760, Note_on_c, 6, 49, 51
12, 71760, Note_on_c, 6, 56, 60
12, 71806, Note_off_c, 6, 49, 64
12, 71812, Note_off_c, 6, 56, 64
12, 71812, Control_c, 6, 64, 0
12, 72000, Note_on_c, 6, 49, 55
12, 72000, Note_on_c, 6, 55, 64
12, 72072, Note_off_c, 6, 55, 64
12, 72122, Note_off_c, 6, 49, 64
12, 72240, Control_c, 6, 64, 127
12, 72240, Note_on_c, 6, 55, 49
12, 72240, Note_on_c, 6, 49, 41
12, 72280, Note_off_c, 6, 49, 64
12, 72296, Note_off_c, 6, 55, 64
12, 72296, Control_c, 6, 64, 0
12, 72480, Note_on_c, 6, 49, 56
12, 72480, Note_on_c, 6, 55, 56
12, 72720, Note_off_c, 6, 55, 64
12, 72720, Note_off_c, 6, 49, 64
12, 72720, Control_c, 6, 64, 127
12, 72720, Note_on_c, 6, 49, 51
12, 72720, Note_on_c, 6, 55, 60
12, 72766, Note_off_c, 6, 49, 64
12, 72772, Note_off_c, 6, 55, 64
12, 72772, Control_c, 6, 64, 0
12, 72960, Note_on_c, 6, 55, 55
12, 72960, Note_on_c, 6, 60, 64
12, 73032, Note_off_c, 6, 60, 64
12, 73082, Note_off_c, 6, 55, 64
12, 73200, Control_c, 6, 64, 127
12, 73200, Note_on_c, 6, 60, 49
12, 73200, Note_on_c, 6, 55, 41
12, 73240, Note_off_c, 6, 55, 64
12, 73256, Note_off_c, 6, 60, 64
12, 73256, Control_c, 6, 64, 0
12, 73440, Note_on_c, 6, 55, 56
12, 73440, Note_on_c, 6, 60, 56
12, 73680, Note_off_c, 6, 60, 64
12, 73680, Note_off_c, 6, 55, 64
12, 73680, Control_c, 6, 64, 127
12, 73680, Note_on_c, 6, 55, 51
12, 73680, Note_on_c, 6, 60, 60
12, 73726, Note_off_c, 6, 55, 64
12, 73732, Note_off_c, 6, 60, 64
12, 73732, Control_c, 6, 64, 0
12, 73920, Note_on_c, 6, 53, 55
12, 73920, Note_on_c, 6, 60, 64
12, 73992, Note_off_c, 6, 60, 64
12, 74042, Note_off_c, 6, 53, 64
12, 74160, Control_c, 6, 64, 127
12, 74160, Note_on_c, 6, 60, 49
12, 74160, Note_on_c, 6, 53, 41
12, 74200, Note_off_c, 6, 53, 64
12, 74216, Note_off_c, 6, 60, 64
12, 74216, Control_c, 6, 64, 0
12, 74400, Note_on_c, 6, 53, 56
12, 74400, Note_on_c, 6, 60, 56
12, 74640, Note_off_c, 6, 60, 64
12, 74640, Note_off_c, 6, 53, 64
12, 74640, Control_c, 6, 64, 127
12, 74640, Note_on_c, 6, 53, 51
12, 74640, Note_on_c, 6, 60, 60
12, 74686, Note_off_c, 6, 53, 64
12, 74692, Note_off_c, 6, 60, 64
12, 74692, Control_c, 6, 64, 0
12, 74880, Note_on_c, 6, 53, 55
12, 74880, Note_on_c, 6, 58, 64
12, 74952, Note_off_c, 6, 58, 64
12, 75002, Note_off_c, 6, 53, 64
12, 75120, Control_c, 6, 64, 127
12, 75120, Note_on_c, 6, 58, 49
12, 75120, Note_on_c, 6, 53, 41
12, 75160, Note_off_c, 6, 53, 64
12, 75176, Note_off_c, 6, 58, 64
12, 75176, Control_c, 6, 64, 0
12, 75360, Note_on_c, 6, 53, 56
12, 75360, Note_on_c, 6, 58, 56
12, 75600, Note_off_c, 6, 58, 64
12, 75600, Note_off_c, 6, 53, 64
12, 75600, Control_c, 6, 64, 127
12, 75600, Note_on_c, 6, 53, 51
12, 75600, Note_on_c, 6, 58, 60
12, 75646, Note_off_c, 6, 53, 64
12, 75652, Note_off_c, 6, 58, 64
12, 75652, Control_c, 6, 64, 0
12, 75840, Note_on_c, 6, 52, 55
12, 75840, Note_on_c, 6, 58, 64
12, 75912, Note_off_c, 6, 58, 64
12, 75962, Note_off_c, 6, 52, 64
12, 76080, Control_c, 6, 64, 127
12, 76080, Note_on_c, 6, 58, 49
12, 76080, Note_on_c, 6, 52, 41
12, 76120, Note_off_c, 6, 52, 64
12, 76136, Note_off_c, 6, 58, 64
12, 76136, Control_c, 6, 64, 0
12, 76320, Note_on_c, 6, 52, 55
12, 76320, Note_on_c, 6, 58, 64
12, 76392, Note_off_c, 6, 58, 64
12, 76442, Note_off_c, 6, 52, 64
12, 76560, Control_c, 6, 64, 127
12, 76560, Note_on_c, 6, 58, 49
12, 76560, Note_on_c, 6, 52, 41
12, 76600, Note_off_c, 6, 52, 64
12, 76616, Note_off_c, 6, 58, 64
12, 76616, Control_c, 6, 64, 0
12, 76800, Note_on_c, 6, 52, 55
12, 76800, Note_on_c, 6, 57, 64
12, 76872, Note_off_c, 6, 57, 64
12, 76922, Note_off_c, 6, 52, 64
12, 77040, Control_c, 6, 64, 127
12, 77040, Note_on_c, 6, 57, 49
12, 77040, Note_on_c, 6, 52, 41
12, 77080, Note_off_c, 6, 52, 64
12, 77096, Note_off_c, 6, 57, 64
12, 77096, Control_c, 6, 64, 0
12, 77280, Note_on_c, 6, 52, 56
12, 77280, Note_on_c, 6, 57, 56
12, 77520, Note_off_c, 6, 57, 64
12, 77520, Note_off_c, 6, 52, 64
12, 77520, Control_c, 6, 64, 127
12, 77520, Note_on_c, 6, 52, 51
12, 77520, Note_on_c, 6, 57, 60
12, 77566, Note_off_c, 6, 52, 64
12, 77572, Note_off_c, 6, 57, 64
12, 77572, Control_c, 6, 64, 0
12, 77760, Note_on_c, 6, 53, 55
12, 77760, Note_on_c, 6, 58, 64
12, 77832, Note_off_c, 6, 58, 64
12, 77882, Note_off_c, 6, 53, 64
12, 78000, Control_c, 6, 64, 127
12, 78000, Note_on_c, 6, 58, 49
12, 78000, Note_on_c, 6, 53, 41
12, 78040, Note_off_c, 6, 53, 64
12, 78056, Note_off_c, 6, 58, 64
12, 78056, Control_c, 6, 64, 0
12, 78240, Note_on_c, 6, 52, 55
12, 78240, Note_on_c, 6, 58, 64
12, 78312, Note_off_c, 6, 58, 64
12, 78362, Note_off_c, 6, 52, 64
12, 78480, Control_c, 6, 64, 127
12, 78480, Note_on_c, 6, 58, 49
12, 78480, Note_on_c, 6, 52, 41
12, 78520, Note_off_c, 6, 52, 64
12, 78536, Note_off_c, 6, 58, 64
12, 78536, Control_c, 6, 64, 0
12, 78720, Note_on_c, 6, 51, 55
12, 78720, Note_on_c, 6, 56, 64
12, 78792, Note_off_c, 6, 56, 64
12, 78842, Note_off_c, 6, 51, 64
12, 78960, Control_c, 6, 64, 127
12, 78960, Note_on_c, 6, 56, 49
12, 78960, Note_on_c, 6, 51, 41
12, 79000, Note_off_c, 6, 51, 64
12, 79016, Note_off_c, 6, 56, 64
12, 79016, Control_c, 6, 64, 0
12, 79200, Note_on_c, 6, 52, 55
12, 79200, Note_on_c, 6, 58, 64
12, 79272, Note_off_c, 6, 58, 64
12, 79322, Note_off_c, 6, 52, 64
12, 79440, Control_c, 6, 64, 127
12, 79440, Note_on_c, 6, 58, 49
12, 79440, Note_on_c, 6, 52, 41
12, 79480, Note_off_c, 6, 52, 64
12, 79496, Note_off_c, 6, 58, 64
12, 79496, Control_c, 6, 64, 0
12, 79680, Note_on_c, 6, 54, 55
12, 79680, Note_on_c, 6, 60, 64
12, 79752, Note_off_c, 6, 60, 64
12, 79802, Note_off_c, 6, 54, 64
12, 79920, Control_c, 6, 64, 127
12, 79920, Note_on_c, 6, 60, 49
12, 79920, Note_on_c, 6, 54, 41
12, 79960, Note_off_c, 6, 54, 64
12, 79976, Note_off_c, 6, 60, 64
12, 79976, Control_c, 6, 64, 0
12, 80160, Note_on_c, 6, 54, 55
12, 80160, Note_on_c, 6, 60, 64
12, 80232, Note_off_c, 6, 60, 64
12, 80282, Note_off_c, 6, 54, 64
12, 80400, Control_c, 6, 64, 127
12, 80400, Note_on_c, 6, 60, 49
12, 80400, Note_on_c, 6, 54, 41
12, 80440, Note_off_c, 6, 54, 64
12, 80456, Note_off_c, 6, 60, 64
12, 80456, Control_c, 6, 64, 0
12, 80640, Note_on_c, 6, 53, 55
12, 80640, Note_on_c, 6, 60, 64
12, 80712, Note_off_c, 6, 60, 64
12, 80762, Note_off_c, 6, 53, 64
12, 80880, Control_c, 6, 64, 127
12, 80880, Note_on_c, 6, 60, 49
12, 80880, Note_on_c, 6, 53, 41
12, 80920, Note_off_c, 6, 53, 64
12, 80936, Note_off_c, 6, 60, 64
12, 80936, Control_c, 6, 64, 0
12, 81120, Note_on_c, 6, 51, 55
12, 81120, Note_on_c, 6, 60, 64
12, 81192, Note_off_c, 6, 60, 64
12, 81242, Note_off_c, 6, 51, 64
12, 81360, Control_c, 6, 64, 127
12, 81360, Note_on_c, 6, 60, 49
12, 81360, Note_on_c, 6, 51, 41
12, 81400, Note_off_c, 6, 51, 64
12, 81416, Note_off_c, 6, 60, 64
12, 81416, Control_c, 6, 64, 0
12, 81600, Note_on_c, 6, 49, 55
12, 81600, Note_on_c, 6, 58, 64
12, 81672, Note_off_c, 6, 58, 64
12, 81722, Note_off_c, 6, 49, 64
12, 81840, Control_c, 6, 64, 127
12, 81840, Note_on_c, 6, 58, 49
12, 81840, Note_on_c, 6, 49, 41
12, 81880, Note_off_c, 6, 49, 64
12, 81896, Note_off_c, 6, 58, 64
12, 81896, Control_c, 6, 64, 0
12, 82080, Note_on_c, 6, 49, 55
12, 82080, Note_on_c, 6, 56, 64
12, 82152, Note_off_c, 6, 56, 64
12, 82202, Note_off_c, 6, 49, 64
12, 82320, Control_c, 6, 64, 127
12, 82320, Note_on_c, 6, 56, 49
12, 82320, Note_on_c, 6, 49, 41
12, 82360, Note_off_c, 6, 49, 64
12, 82376, Note_off_c, 6, 56, 64
12, 82376, Control_c, 6, 64, 0
12, 82560, Note_on_c, 6, 53, 55
12, 82560, Note_on_c, 6, 58, 64
12, 82632, Note_off_c, 6, 58, 64
12, 82682, Note_off_c, 6, 53, 64
12, 82800, Control_c, 6, 64, 127
12, 82800, Note_on_c, 6, 58, 49
12, 82800, Note_on_c, 6, 53, 41
12, 82840, Note_off_c, 6, 53, 64
12, 82856, Note_off_c, 6, 58, 64
12, 82856, Control_c, 6, 64, 0
12, 83040, Note_on_c, 6, 53, 56
12, 83040, Note_on_c, 6, 58, 56
12, 83280, Note_off_c, 6, 58, 64
12, 83280, Note_off_c, 6, 53, 64
12, 83280, Control_c, 6, 64, 127
12, 83280, Note_on_c, 6, 53, 51
12, 83280, Note_on_c, 6, 58, 60
12, 83326, Note_off_c, 6, 53, 64
12, 83332, Note_off_c, 6, 58, 64
12, 83332, Control_c, 6, 64, 0
12, 83520, Note_on_c, 6, 52, 55
12, 83520, Note_on_c, 6, 58, 64
12, 83592, Note_off_c, 6, 58, 64
12, 83642, Note_off_c, 6, 52, 64
12, 83760, Control_c, 6, 64, 127
12, 83760, Note_on_c, 6, 58, 49
12, 83760, Note_on_c, 6, 52, 41
12, 83800, Note_off_c, 6, 52, 64
12, 83816, Note_off_c, 6, 58, 64
12, 83816, Control_c, 6, 64, 0
12, 84000, Note_on_c, 6, 52, 56
12, 84000, Note_on_c, 6, 58, 56
12, 84240, Note_off_c, 6, 58, 64
12, 84240, Note_off_c, 6, 52, 64
12, 84240, Control_c, 6, 64, 127
12, 84240, Note_on_c, 6, 52, 51
12, 84240, Note_on_c, 6, 58, 60
12, 84286, Note_off_c, 6, 52, 64
12, 84292, Note_off_c, 6, 58, 64
12, 84292, Control_c, 6, 64, 0
12, 84480, Note_on_c, 6, 52, 55
12, 84480, Note_on_c, 6, 57, 64
12, 84552, Note_off_c, 6, 57, 64
12, 84602, Note_off_c, 6, 52, 64
12, 84720, Control_c, 6, 64, 127
12, 84720, Note_on_c, 6, 57, 49
12, 84720, Note_on_c, 6, 52, 41
12, 84760, Note_off_c, 6, 52, 64
12, 84776, Note_off_c, 6, 57, 64
12, 84776, Control_c, 6, 64, 0
12, 84960, Note_on_c, 6, 52, 56
12, 84960, Note_on_c, 6, 57, 56
12, 85200, Note_off_c, 6, 57, 64
12, 85200, Note_off_c, 6, 52, 64
12, 85200, Control_c, 6, 64, 127
12, 85200, Note_on_c, 6, 52, 51
12, 85200, Note_on_c, 6, 57, 60
12, 85246, Note_off_c, 6, 52, 64
12, 85252, Note_off_c, 6, 57, 64
12, 85252, Control_c, 6, 64, 0
12, 85440, Note_on_c, 6, 51, 55
12, 85440, Note_on_c, 6, 58, 64
12, 85512, Note_off_c, 6, 58, 64
12, 85562, Note_off_c, 6, 51, 64
12, 85680, Control_c, 6, 64, 127
12, 85680, Note_on_c, 6, 58, 49
12, 85680, Note_on_c, 6, 51, 41
12, 85720, Note_off_c, 6, 51, 64
12, 85736, Note_off_c, 6, 58, 64
12, 85736, Control_c, 6, 64, 0
12, 85920, Note_on_c, 6, 51, 55
12, 85920, Note_on_c, 6, 57, 64
12, 85992, Note_off_c, 6, 57, 64
12, 86042, Note_off_c, 6, 51, 64
12, 86160, Control_c, 6, 64, 127
12, 86160, Note_on_c, 6, 57, 49
12, 86160, Note_on_c, 6, 51, 41
12, 86200, Note_off_c, 6, 51, 64
12, 86216, Note_off_c, 6, 57, 64
12, 86216, Control_c, 6, 64, 0
12, 86400, Note_on_c, 6, 50, 55
12, 86400, Note_on_c, 6, 57, 64
12, 86472, Note_off_c, 6, 57, 64
12, 86522, Note_off_c, 6, 50, 64
12, 86640, Control_c, 6, 64, 127
12, 86640, Note_on_c, 6, 57, 49
12, 86640, Note_on_c, 6, 50, 41
12, 86680, Note_off_c, 6, 50, 64
12, 86696, Note_off_c, 6, 57, 64
12, 86696, Control_c, 6, 64, 0
12, 86880, Note_on_c, 6, 50, 56
12, 86880, Note_on_c, 6, 57, 56
12, 87120, Note_off_c, 6, 57, 64
12, 87120, Note_off_c, 6, 50, 64
12, 87120, Control_c, 6, 64, 127
12, 87120, Note_on_c, 6, 50, 51
12, 87120, Note_on_c, 6, 57, 60
12, 87166, Note_off_c, 6, 50, 64
12, 87172, Note_off_c, 6, 57, 64
12, 87172, Control_c, 6, 64, 0
12, 87360, Note_on_c, 6, 53, 55
12, 87360, Note_on_c, 6, 58, 64
12, 87432, Note_off_c, 6, 58, 64
12, 87482, Note_off_c, 6, 53, 64
12, 87600, Control_c, 6, 64, 127
12, 87600, Note_on_c, 6, 58, 49
12, 87600, Note_on_c, 6, 53, 41
12, 87640, Note_off_c, 6, 53, 64
12, 87656, Note_off_c, 6, 58, 64
12, 87656, Control_c, 6, 64, 0
12, 87840, Note_on_c, 6, 52, 55
12, 87840, Note_on_c, 6, 58, 64
12, 87912, Note_off_c, 6, 58, 64
12, 87962, Note_off_c, 6, 52, 64
12, 88080, Control_c, 6, 64, 127
12, 88080, Note_on_c, 6, 58, 49
12, 88080, Note_on_c, 6, 52, 41
12, 88120, Note_off_c, 6, 52, 64
12, 88136, Note_off_c, 6, 58, 64
12, 88136, Control_c, 6, 64, 0
12, 88320, Note_on_c, 6, 48, 55
12, 88320, Note_on_c, 6, 55, 64
12, 88392, Note_off_c, 6, 55, 64
12, 88442, Note_off_c, 6, 48, 64
12, 88560, Control_c, 6, 64, 127
12, 88560, Note_on_c, 6, 55, 49
12, 88560, Note_on_c, 6, 48, 41
12, 88600, Note_off_c, 6, 48, 64
12, 88616, Note_off_c, 6, 55, 64
12, 88616, Control_c, 6, 64, 0
12, 88800, Note_on_c, 6, 48, 56
12, 88800, Note_on_c, 6, 55, 56
12, 89040, Note_off_c, 6, 55, 64
12, 89040, Note_off_c, 6, 48, 64
12, 89040, Control_c, 6, 64, 127
12, 89040, Note_on_c, 6, 48, 51
12, 89040, Note_on_c, 6, 55, 60
12, 89086, Note_off_c, 6, 48, 64
12, 89092, Note_off_c, 6, 55, 64
12, 89092, Control_c, 6, 64, 0
12, 89280, Note_on_c, 6, 53, 55
12, 89280, Note_on_c, 6, 59, 64
12, 89352, Note_off_c, 6, 59, 64
12, 89402, Note_off_c, 6, 53, 64
12, 89520, Control_c, 6, 64, 127
12, 89520, Note_on_c, 6, 59, 49
12, 89520, Note_on_c, 6, 53, 41
12, 89560, Note_off_c, 6, 53, 64
12, 89576, Note_off_c, 6, 59, 64
12, 89576, Control_c, 6, 64, 0
12, 89760, Note_on_c, 6, 53, 56
12, 89760, Note_on_c, 6, 59, 56
12, 90000, Note_off_c, 6, 59, 64
12, 90000, Note_off_c, 6, 53, 64
12, 90000, Control_c, 6, 64, 127
12, 90000, Note_on_c, 6, 53, 51
12, 90000, Note_on_c, 6, 59, 60
12, 90046, Note_off_c, 6, 53, 64
12, 90052, Note_off_c, 6, 59, 64
12, 90052, Control_c, 6, 64, 0
12, 90240, Note_on_c, 6, 53, 55
12, 90240, Note_on_c, 6, 58, 64
12, 90312, Note_off_c, 6, 58, 64
12, 90362, Note_off_c, 6, 53, 64
12, 90480, Control_c, 6, 64, 127
12, 90480, Note_on_c, 6, 58, 49
12, 90480, Note_on_c, 6, 53, 41
12, 90520, Note_off_c, 6, 53, 64
12, 90536, Note_off_c, 6, 58, 64
12, 90536, Control_c, 6, 64, 0
12, 90720, Note_on_c, 6, 53, 56
12, 90720, Note_on_c, 6, 58, 56
12, 90960, Note_off_c, 6, 58, 64
12, 90960, Note_off_c, 6, 53, 64
12, 90960, Control_c, 6, 64, 127
12, 90960, Note_on_c, 6, 53, 51
12, 90960, Note_on_c, 6, 58, 60
12, 91006, Note_off_c, 6, 53, 64
12, 91012, Note_off_c, 6, 58, 64
12, 91012, Control_c, 6, 64, 0
12, 91200, Note_on_c, 6, 52, 55
12, 91200, Note_on_c, 6, 58, 64
12, 91272, Note_off_c, 6, 58, 64
12, 91322, Note_off_c, 6, 52, 64
12, 91440, Control_c, 6, 64, 127
12, 91440, Note_on_c, 6, 58, 49
12, 91440, Note_on_c, 6, 52, 41
12, 91480, Note_off_c, 6, 52, 64
12, 91496, Note_off_c, 6, 58, 64
12, 91496, Control_c, 6, 64, 0
12, 91680, Note_on_c, 6, 52, 55
12, 91680, Note_on_c, 6, 58, 64
12, 91752, Note_off_c, 6, 58, 64
12, 91802, Note_off_c, 6, 52, 64
12, 91920, Control_c, 6, 64, 127
12, 91920, Note_on_c, 6, 58, 49
12, 91920, Note_on_c, 6, 52, 41
12, 91960, Note_off_c, 6, 52, 64
12, 91976, Note_off_c, 6, 58, 64
12, 91976, Control_c, 6, 64, 0
12, 92160, Note_on_c, 6, 50, 55
12, 92160, Note_on_c, 6, 57, 64
12, 92232, Note_off_c, 6, 57, 64
12, 92282, Note_off_c, 6, 50, 64
12, 92400, Control_c, 6, 64, 127
12, 92400, Note_on_c, 6, 57, 49
12, 92400, Note_on_c, 6, 50, 41
12, 92440, Note_off_c, 6, 50, 64
12, 92456, Note_off_c, 6, 57, 64
12, 92456, Control_c, 6, 64, 0
12, 92640, Note_on_c, 6, 50, 56
12, 92640, Note_on_c, 6, 57, 56
12, 92880, Note_off_c, 6, 57, 64
12, 92880, Note_off_c, 6, 50, 64
12, 92880, Control_c, 6, 64, 127
12, 92880, Note_on_c, 6, 50, 51
12, 92880, Note_on_c, 6, 57, 60
12, 92926, Note_off_c, 6, 50, 64
12, 92932, Note_off_c, 6, 57, 64
12, 92932, Control_c, 6, 64, 0
12, 93120, Note_on_c, 6, 53, 55
12, 93120, Note_on_c, 6, 58, 64
12, 93192, Note_off_c, 6, 58, 64
12, 93242, Note_off_c, 6, 53, 64
12, 93360, Control_c, 6, 64, 127
12, 93360, Note_on_c, 6, 58, 49
12, 93360, Note_on_c, 6, 53, 41
12, 93400, Note_off_c, 6, 53, 64
12, 93416, Note_off_c, 6, 58, 64
12, 93416, Control_c, 6, 64, 0
12, 93600, Note_on_c, 6, 52, 55
12, 93600, Note_on_c, 6, 58, 64
12, 93672, Note_off_c, 6, 58, 64
12, 93722, Note_off_c, 6, 52, 64
12, 93840, Control_c, 6, 64, 127
12, 93840, Note_on_c, 6, 58, 49
12, 93840, Note_on_c, 6, 52, 41
12, 93880, Note_off_c, 6, 52, 64
12, 93896, Note_off_c, 6, 58, 64
12, 93896, Control_c, 6, 64, 0
12, 94080, Note_on_c, 6, 57, 58
12, 94080, Note_on_c, 6, 50, 51
12, 94150, Control_c, 6, 64, 127
12, 94186, Note_off_c, 6, 57, 64
12, 94194, Note_off_c, 6, 50, 64
12, 94330, Note_on_c, 6, 57, 79
12, 94340, Note_on_c, 6, 50, 50
12, 94366, Control_c, 6, 64, 0
12, 94370, Note_off_c, 6, 57, 64
12, 94380, Note_off_c, 6, 50, 64
12, 94594, Note_on_c, 6, 57, 55
12, 94600, Note_on_c, 6, 50, 33
12, 94626, Control_c, 6, 64, 127
12, 94656, Note_off_c, 6, 57, 64
12, 94670, Note_off_c, 6, 50, 64
12, 94794, Control_c, 6, 64, 0
12, 94828, Note_on_c, 6, 57, 80
12, 94838, Note_on_c, 6, 50, 35
12, 94864, Note_off_c, 6, 57, 64
12, 94876, Note_off_c, 6, 50, 64
12, 95066, Note_on_c, 6, 57, 70
12, 95070, Note_on_c, 6, 50, 48
12, 95106, Note_off_c, 6, 57, 64
12, 95120, Note_off_c, 6, 50, 64
12, 95462, Note_on_c, 6, 57, 47
12, 95462, Note_on_c, 6, 50, 45
12, 96000, Note_off_c, 6, 50, 64
12, 96000, Note_off_c, 6, 57, 64
12, 96000, Control_c, 6, 64, 0
12, 96000, End_track
13, 0, Start_track
13, 0, Title_t, "Drums / Wire brush"
13, 0, Program_c, 9, 40
13, 0, Control_c, 9, 7, 90
13, 0, Control_c, 9, 10, 64
13, 0, Control_c, 9, 123, 0
13, 0, Control_c, 9, 91, 40
13, 0, Control_c, 9, 93, 0
13, 1920, Note_on_c, 9, 35, 60
13, 1920, Note_on_c, 9, 38, 50
13, 1920, Note_on_c, 9, 42, 70
13, 1970, Note_off_c, 9, 42, 64
13, 1970, Note_off_c, 9, 38, 64
13, 1970, Note_off_c, 9, 35, 64
13, 2160, Note_on_c, 9, 42, 80
13, 2160, Note_on_c, 9, 37, 80
13, 2210, Note_off_c, 9, 37, 64
13, 2210, Note_off_c, 9, 42, 64
13, 2332, Note_on_c, 9, 42, 50
13, 2382, Note_off_c, 9, 42, 64
13, 2400, Note_on_c, 9, 35, 60
13, 2400, Note_on_c, 9, 42, 80
13, 2450, Note_off_c, 9, 42, 64
13, 2450, Note_off_c, 9, 35, 64
13, 2640, Note_on_c, 9, 42, 90
13, 2640, Note_on_c, 9, 37, 80
13, 2690, Note_off_c, 9, 37, 64
13, 2690, Note_off_c, 9, 42, 64
13, 2812, Note_on_c, 9, 42, 50
13, 2862, Note_off_c, 9, 42, 64
13, 2880, Note_on_c, 9, 35, 60
13, 2880, Note_on_c, 9, 42, 70
13, 2930, Note_off_c, 9, 42, 64
13, 2930, Note_off_c, 9, 35, 64
13, 3120, Note_on_c, 9, 42, 70
13, 3120, Note_on_c, 9, 37, 80
13, 3170, Note_off_c, 9, 37, 64
13, 3170, Note_off_c, 9, 42, 64
13, 3292, Note_on_c, 9, 42, 40
13, 3342, Note_off_c, 9, 42, 64
13, 3360, Note_on_c, 9, 35, 60
13, 3360, Note_on_c, 9, 42, 80
13, 3410, Note_off_c, 9, 42, 64
13, 3410, Note_off_c, 9, 35, 64
13, 3600, Note_on_c, 9, 35, 60
13, 3600, Note_on_c, 9, 42, 80
13, 3650, Note_off_c, 9, 42, 64
13, 3650, Note_off_c, 9, 35, 64
13, 3772, Note_on_c, 9, 42, 50
13, 3822, Note_off_c, 9, 42, 64
13, 3840, Note_on_c, 9, 35, 60
13, 3840, Note_on_c, 9, 42, 80
13, 3890, Note_off_c, 9, 42, 64
13, 3890, Note_off_c, 9, 35, 64
13, 4080, Note_on_c, 9, 42, 90
13, 4080, Note_on_c, 9, 37, 70
13, 4130, Note_off_c, 9, 37, 64
13, 4130, Note_off_c, 9, 42, 64
13, 4254, Note_on_c, 9, 42, 40
13, 4304, Note_off_c, 9, 42, 64
13, 4320, Note_on_c, 9, 35, 60
13, 4320, Note_on_c, 9, 42, 80
13, 4370, Note_off_c, 9, 42, 64
13, 4370, Note_off_c, 9, 35, 64
13, 4560, Note_on_c, 9, 42, 90
13, 4560, Note_on_c, 9, 37, 85
13, 4610, Note_off_c, 9, 37, 64
13, 4610, Note_off_c, 9, 42, 64
13, 4734, Note_on_c, 9, 42, 50
13, 4784, Note_off_c, 9, 42, 64
13, 4800, Note_on_c, 9, 35, 60
13, 4800, Note_on_c, 9, 42, 80
13, 4850, Note_off_c, 9, 42, 64
13, 4850, Note_off_c, 9, 35, 64
13, 5040, Note_on_c, 9, 42, 90
13, 5040, Note_on_c, 9, 37, 70
13, 5090, Note_off_c, 9, 37, 64
13, 5090, Note_off_c, 9, 42, 64
13, 5214, Note_on_c, 9, 42, 40
13, 5264, Note_off_c, 9, 42, 64
13, 5280, Note_on_c, 9, 35, 60
13, 5280, Note_on_c, 9, 42, 80
13, 5330, Note_off_c, 9, 42, 64
13, 5330, Note_off_c, 9, 35, 64
13, 5454, Note_on_c, 9, 37, 90
13, 5504, Note_off_c, 9, 37, 64
13, 5520, Note_on_c, 9, 42, 90
13, 5570, Note_off_c, 9, 42, 64
13, 5694, Note_on_c, 9, 42, 50
13, 5744, Note_off_c, 9, 42, 64
13, 5760, Note_on_c, 9, 35, 60
13, 5760, Note_on_c, 9, 42, 70
13, 5810, Note_off_c, 9, 42, 64
13, 5810, Note_off_c, 9, 35, 64
13, 6000, Note_on_c, 9, 42, 90
13, 6000, Note_on_c, 9, 37, 80
13, 6050, Note_off_c, 9, 37, 64
13, 6050, Note_off_c, 9, 42, 64
13, 6172, Note_on_c, 9, 42, 40
13, 6222, Note_off_c, 9, 42, 64
13, 6240, Note_on_c, 9, 35, 60
13, 6240, Note_on_c, 9, 42, 70
13, 6290, Note_off_c, 9, 42, 64
13, 6290, Note_off_c, 9, 35, 64
13, 6480, Note_on_c, 9, 42, 90
13, 6480, Note_on_c, 9, 37, 78
13, 6530, Note_off_c, 9, 37, 64
13, 6530, Note_off_c, 9, 42, 64
13, 6652, Note_on_c, 9, 42, 50
13, 6702, Note_off_c, 9, 42, 64
13, 6720, Note_on_c, 9, 42, 70
13, 6770, Note_off_c, 9, 42, 64
13, 6960, Note_on_c, 9, 42, 70
13, 6960, Note_on_c, 9, 37, 80
13, 7010, Note_off_c, 9, 37, 64
13, 7010, Note_off_c, 9, 42, 64
13, 7132, Note_on_c, 9, 42, 40
13, 7182, Note_off_c, 9, 42, 64
13, 7200, Note_on_c, 9, 35, 60
13, 7200, Note_on_c, 9, 42, 80
13, 7250, Note_off_c, 9, 42, 64
13, 7250, Note_off_c, 9, 35, 64
13, 7440, Note_on_c, 9, 35, 60
13, 7440, Note_on_c, 9, 42, 80
13, 7490, Note_off_c, 9, 42, 64
13, 7490, Note_off_c, 9, 35, 64
13, 7612, Note_on_c, 9, 42, 50
13, 7662, Note_off_c, 9, 42, 64
13, 7680, Note_on_c, 9, 35, 60
13, 7680, Note_on_c, 9, 42, 80
13, 7730, Note_off_c, 9, 42, 64
13, 7730, Note_off_c, 9, 35, 64
13, 7920, Note_on_c, 9, 42, 90
13, 7920, Note_on_c, 9, 37, 70
13, 7970, Note_off_c, 9, 37, 64
13, 7970, Note_off_c, 9, 42, 64
13, 8094, Note_on_c, 9, 42, 40
13, 8144, Note_off_c, 9, 42, 64
13, 8160, Note_on_c, 9, 35, 60
13, 8160, Note_on_c, 9, 42, 80
13, 8210, Note_off_c, 9, 42, 64
13, 8210, Note_off_c, 9, 35, 64
13, 8400, Note_on_c, 9, 42, 90
13, 8400, Note_on_c, 9, 37, 85
13, 8450, Note_off_c, 9, 37, 64
13, 8450, Note_off_c, 9, 42, 64
13, 8574, Note_on_c, 9, 42, 50
13, 8624, Note_off_c, 9, 42, 64
13, 8640, Note_on_c, 9, 35, 60
13, 8640, Note_on_c, 9, 42, 80
13, 8690, Note_off_c, 9, 42, 64
13, 8690, Note_off_c, 9, 35, 64
13, 8880, Note_on_c, 9, 42, 70
13, 8880, Note_on_c, 9, 37, 70
13, 8930, Note_off_c, 9, 37, 64
13, 8930, Note_off_c, 9, 42, 64
13, 9052, Note_on_c, 9, 42, 40
13, 9102, Note_off_c, 9, 42, 64
13, 9120, Note_on_c, 9, 35, 60
13, 9120, Note_on_c, 9, 42, 80
13, 9170, Note_off_c, 9, 42, 64
13, 9170, Note_off_c, 9, 35, 64
13, 9360, Note_on_c, 9, 42, 70
13, 9360, Note_on_c, 9, 37, 85
13, 9410, Note_off_c, 9, 37, 64
13, 9410, Note_off_c, 9, 42, 64
13, 9532, Note_on_c, 9, 42, 50
13, 9582, Note_off_c, 9, 42, 64
13, 9600, Note_on_c, 9, 35, 60
13, 9600, Note_on_c, 9, 42, 80
13, 9650, Note_off_c, 9, 42, 64
13, 9650, Note_off_c, 9, 35, 64
13, 9840, Note_on_c, 9, 42, 90
13, 9840, Note_on_c, 9, 37, 70
13, 9890, Note_off_c, 9, 37, 64
13, 9890, Note_off_c, 9, 42, 64
13, 10014, Note_on_c, 9, 42, 40
13, 10064, Note_off_c, 9, 42, 64
13, 10080, Note_on_c, 9, 35, 60
13, 10080, Note_on_c, 9, 42, 80
13, 10130, Note_off_c, 9, 42, 64
13, 10130, Note_off_c, 9, 35, 64
13, 10320, Note_on_c, 9, 42, 90
13, 10320, Note_on_c, 9, 37, 85
13, 10370, Note_off_c, 9, 37, 64
13, 10370, Note_off_c, 9, 42, 64
13, 10494, Note_on_c, 9, 42, 50
13, 10544, Note_off_c, 9, 42, 64
13, 10560, Note_on_c, 9, 35, 60
13, 10560, Note_on_c, 9, 42, 70
13, 10610, Note_off_c, 9, 42, 64
13, 10610, Note_off_c, 9, 35, 64
13, 10800, Note_on_c, 9, 42, 90
13, 10800, Note_on_c, 9, 37, 70
13, 10850, Note_off_c, 9, 37, 64
13, 10850, Note_off_c, 9, 42, 64
13, 10976, Note_on_c, 9, 42, 40
13, 11026, Note_off_c, 9, 42, 64
13, 11040, Note_on_c, 9, 35, 60
13, 11040, Note_on_c, 9, 42, 80
13, 11090, Note_off_c, 9, 42, 64
13, 11090, Note_off_c, 9, 35, 64
13, 11280, Note_on_c, 9, 42, 90
13, 11280, Note_on_c, 9, 37, 80
13, 11330, Note_off_c, 9, 37, 64
13, 11330, Note_off_c, 9, 42, 64
13, 11456, Note_on_c, 9, 42, 50
13, 11506, Note_off_c, 9, 42, 64
13, 11520, Note_on_c, 9, 35, 60
13, 11520, Note_on_c, 9, 42, 80
13, 11570, Note_off_c, 9, 42, 64
13, 11570, Note_off_c, 9, 35, 64
13, 11760, Note_on_c, 9, 42, 90
13, 11760, Note_on_c, 9, 37, 70
13, 11810, Note_off_c, 9, 37, 64
13, 11810, Note_off_c, 9, 42, 64
13, 11934, Note_on_c, 9, 42, 40
13, 11984, Note_off_c, 9, 42, 64
13, 12000, Note_on_c, 9, 35, 60
13, 12000, Note_on_c, 9, 42, 80
13, 12050, Note_off_c, 9, 42, 64
13, 12050, Note_off_c, 9, 35, 64
13, 12240, Note_on_c, 9, 42, 90
13, 12240, Note_on_c, 9, 37, 85
13, 12290, Note_off_c, 9, 37, 64
13, 12290, Note_off_c, 9, 42, 64
13, 12414, Note_on_c, 9, 42, 50
13, 12464, Note_off_c, 9, 42, 64
13, 12480, Note_on_c, 9, 35, 60
13, 12480, Note_on_c, 9, 42, 70
13, 12530, Note_off_c, 9, 42, 64
13, 12530, Note_off_c, 9, 35, 64
13, 12720, Note_on_c, 9, 42, 80
13, 12720, Note_on_c, 9, 37, 70
13, 12770, Note_off_c, 9, 37, 64
13, 12770, Note_off_c, 9, 42, 64
13, 12892, Note_on_c, 9, 42, 50
13, 12942, Note_off_c, 9, 42, 64
13, 12960, Note_on_c, 9, 35, 60
13, 12960, Note_on_c, 9, 42, 70
13, 13010, Note_off_c, 9, 42, 64
13, 13010, Note_off_c, 9, 35, 64
13, 13200, Note_on_c, 9, 42, 80
13, 13200, Note_on_c, 9, 37, 85
13, 13250, Note_off_c, 9, 37, 64
13, 13250, Note_off_c, 9, 42, 64
13, 13372, Note_on_c, 9, 46, 60
13, 13422, Note_off_c, 9, 46, 64
13, 13440, Note_on_c, 9, 35, 60
13, 13440, Note_on_c, 9, 42, 80
13, 13490, Note_off_c, 9, 42, 64
13, 13490, Note_off_c, 9, 35, 64
13, 13680, Note_on_c, 9, 42, 90
13, 13680, Note_on_c, 9, 37, 70
13, 13730, Note_off_c, 9, 37, 64
13, 13730, Note_off_c, 9, 42, 64
13, 13854, Note_on_c, 9, 42, 40
13, 13904, Note_off_c, 9, 42, 64
13, 13920, Note_on_c, 9, 35, 60
13, 13920, Note_on_c, 9, 42, 80
13, 13970, Note_off_c, 9, 42, 64
13, 13970, Note_off_c, 9, 35, 64
13, 14160, Note_on_c, 9, 42, 90
13, 14160, Note_on_c, 9, 37, 85
13, 14210, Note_off_c, 9, 37, 64
13, 14210, Note_off_c, 9, 42, 64
13, 14334, Note_on_c, 9, 42, 50
13, 14384, Note_off_c, 9, 42, 64
13, 14400, Note_on_c, 9, 35, 60
13, 14400, Note_on_c, 9, 42, 70
13, 14450, Note_off_c, 9, 42, 64
13, 14450, Note_off_c, 9, 35, 64
13, 14640, Note_on_c, 9, 42, 90
13, 14640, Note_on_c, 9, 37, 70
13, 14690, Note_off_c, 9, 37, 64
13, 14690, Note_off_c, 9, 42, 64
13, 14816, Note_on_c, 9, 42, 40
13, 14866, Note_off_c, 9, 42, 64
13, 14880, Note_on_c, 9, 35, 60
13, 14880, Note_on_c, 9, 42, 80
13, 14930, Note_off_c, 9, 42, 64
13, 14930, Note_off_c, 9, 35, 64
13, 15120, Note_on_c, 9, 42, 90
13, 15120, Note_on_c, 9, 37, 80
13, 15170, Note_off_c, 9, 37, 64
13, 15170, Note_off_c, 9, 42, 64
13, 15296, Note_on_c, 9, 42, 50
13, 15346, Note_off_c, 9, 42, 64
13, 15360, Note_on_c, 9, 35, 60
13, 15360, Note_on_c, 9, 42, 80
13, 15410, Note_off_c, 9, 42, 64
13, 15410, Note_off_c, 9, 35, 64
13, 15600, Note_on_c, 9, 42, 90
13, 15600, Note_on_c, 9, 37, 70
13, 15650, Note_off_c, 9, 37, 64
13, 15650, Note_off_c, 9, 42, 64
13, 15774, Note_on_c, 9, 42, 40
13, 15824, Note_off_c, 9, 42, 64
13, 15840, Note_on_c, 9, 35, 60
13, 15840, Note_on_c, 9, 42, 80
13, 15890, Note_off_c, 9, 42, 64
13, 15890, Note_off_c, 9, 35, 64
13, 16080, Note_on_c, 9, 42, 90
13, 16080, Note_on_c, 9, 37, 85
13, 16130, Note_off_c, 9, 37, 64
13, 16130, Note_off_c, 9, 42, 64
13, 16254, Note_on_c, 9, 42, 50
13, 16304, Note_off_c, 9, 42, 64
13, 16320, Note_on_c, 9, 38, 50
13, 16320, Note_on_c, 9, 42, 70
13, 16370, Note_off_c, 9, 42, 64
13, 16370, Note_off_c, 9, 38, 64
13, 16488, Note_on_c, 9, 35, 70
13, 16538, Note_off_c, 9, 35, 64
13, 16560, Note_on_c, 9, 42, 80
13, 16610, Note_off_c, 9, 42, 64
13, 16728, Note_on_c, 9, 38, 50
13, 16778, Note_off_c, 9, 38, 64
13, 16800, Note_on_c, 9, 35, 60
13, 16800, Note_on_c, 9, 42, 70
13, 16850, Note_off_c, 9, 42, 64
13, 16850, Note_off_c, 9, 35, 64
13, 16968, Note_on_c, 9, 38, 30
13, 17018, Note_off_c, 9, 38, 64
13, 17040, Note_on_c, 9, 38, 50
13, 17040, Note_on_c, 9, 42, 100
13, 17090, Note_off_c, 9, 42, 64
13, 17090, Note_off_c, 9, 38, 64
13, 17120, Note_on_c, 9, 38, 25
13, 17170, Note_off_c, 9, 38, 64
13, 17208, Note_on_c, 9, 38, 40
13, 17258, Note_off_c, 9, 38, 64
13, 17280, Note_on_c, 9, 51, 70
13, 17330, Note_off_c, 9, 51, 64
13, 17520, Note_on_c, 9, 42, 100
13, 17520, Note_on_c, 9, 37, 70
13, 17520, Note_on_c, 9, 51, 90
13, 17570, Note_off_c, 9, 51, 64
13, 17570, Note_off_c, 9, 37, 64
13, 17570, Note_off_c, 9, 42, 64
13, 17694, Note_on_c, 9, 38, 40
13, 17694, Note_on_c, 9, 51, 50
13, 17744, Note_off_c, 9, 51, 64
13, 17744, Note_off_c, 9, 38, 64
13, 17760, Note_on_c, 9, 51, 80
13, 17810, Note_off_c, 9, 51, 64
13, 18000, Note_on_c, 9, 42, 100
13, 18000, Note_on_c, 9, 37, 70
13, 18000, Note_on_c, 9, 51, 90
13, 18050, Note_off_c, 9, 51, 64
13, 18050, Note_off_c, 9, 37, 64
13, 18050, Note_off_c, 9, 42, 64
13, 18174, Note_on_c, 9, 38, 40
13, 18174, Note_on_c, 9, 51, 50
13, 18224, Note_off_c, 9, 51, 64
13, 18224, Note_off_c, 9, 38, 64
13, 18240, Note_on_c, 9, 51, 80
13, 18290, Note_off_c, 9, 51, 64
13, 18480, Note_on_c, 9, 42, 80
13, 18480, Note_on_c, 9, 37, 70
13, 18480, Note_on_c, 9, 51, 90
13, 18530, Note_off_c, 9, 51, 64
13, 18530, Note_off_c, 9, 37, 64
13, 18530, Note_off_c, 9, 42, 64
13, 18656, Note_on_c, 9, 51, 70
13, 18706, Note_off_c, 9, 51, 64
13, 18720, Note_on_c, 9, 38, 40
13, 18720, Note_on_c, 9, 51, 80
13, 18770, Note_off_c, 9, 51, 64
13, 18770, Note_off_c, 9, 38, 64
13, 18960, Note_on_c, 9, 42, 100
13, 18960, Note_on_c, 9, 37, 70
13, 18960, Note_on_c, 9, 51, 90
13, 19010, Note_off_c, 9, 51, 64
13, 19010, Note_off_c, 9, 37, 64
13, 19010, Note_off_c, 9, 42, 64
13, 19136, Note_on_c, 9, 51, 70
13, 19186, Note_off_c, 9, 51, 64
13, 19200, Note_on_c, 9, 51, 80
13, 19250, Note_off_c, 9, 51, 64
13, 19440, Note_on_c, 9, 42, 80
13, 19440, Note_on_c, 9, 37, 70
13, 19440, Note_on_c, 9, 51, 90
13, 19490, Note_off_c, 9, 51, 64
13, 19490, Note_off_c, 9, 37, 64
13, 19490, Note_off_c, 9, 42, 64
13, 19616, Note_on_c, 9, 51, 70
13, 19666, Note_off_c, 9, 51, 64
13, 19680, Note_on_c, 9, 38, 40
13, 19680, Note_on_c, 9, 51, 80
13, 19730, Note_off_c, 9, 51, 64
13, 19730, Note_off_c, 9, 38, 64
13, 19856, Note_on_c, 9, 38, 40
13, 19906, Note_off_c, 9, 38, 64
13, 19920, Note_on_c, 9, 42, 100
13, 19920, Note_on_c, 9, 37, 70
13, 19920, Note_on_c, 9, 51, 90
13, 19970, Note_off_c, 9, 51, 64
13, 19970, Note_off_c, 9, 37, 64
13, 19970, Note_off_c, 9, 42, 64
13, 20096, Note_on_c, 9, 51, 70
13, 20146, Note_off_c, 9, 51, 64
13, 20160, Note_on_c, 9, 51, 80
13, 20210, Note_off_c, 9, 51, 64
13, 20400, Note_on_c, 9, 42, 80
13, 20400, Note_on_c, 9, 37, 70
13, 20400, Note_on_c, 9, 51, 90
13, 20450, Note_off_c, 9, 51, 64
13, 20450, Note_off_c, 9, 37, 64
13, 20450, Note_off_c, 9, 42, 64
13, 20576, Note_on_c, 9, 51, 70
13, 20626, Note_off_c, 9, 51, 64
13, 20640, Note_on_c, 9, 38, 40
13, 20640, Note_on_c, 9, 51, 80
13, 20690, Note_off_c, 9, 51, 64
13, 20690, Note_off_c, 9, 38, 64
13, 20880, Note_on_c, 9, 42, 100
13, 20880, Note_on_c, 9, 37, 70
13, 20880, Note_on_c, 9, 51, 90
13, 20930, Note_off_c, 9, 51, 64
13, 20930, Note_off_c, 9, 37, 64
13, 20930, Note_off_c, 9, 42, 64
13, 21056, Note_on_c, 9, 51, 70
13, 21106, Note_off_c, 9, 51, 64
13, 21120, Note_on_c, 9, 51, 70
13, 21170, Note_off_c, 9, 51, 64
13, 21360, Note_on_c, 9, 42, 100
13, 21360, Note_on_c, 9, 37, 70
13, 21360, Note_on_c, 9, 51, 90
13, 21410, Note_off_c, 9, 51, 64
13, 21410, Note_off_c, 9, 37, 64
13, 21410, Note_off_c, 9, 42, 64
13, 21534, Note_on_c, 9, 38, 40
13, 21534, Note_on_c, 9, 51, 50
13, 21584, Note_off_c, 9, 51, 64
13, 21584, Note_off_c, 9, 38, 64
13, 21600, Note_on_c, 9, 51, 80
13, 21650, Note_off_c, 9, 51, 64
13, 21840, Note_on_c, 9, 42, 100
13, 21840, Note_on_c, 9, 37, 70
13, 21840, Note_on_c, 9, 51, 90
13, 21890, Note_off_c, 9, 51, 64
13, 21890, Note_off_c, 9, 37, 64
13, 21890, Note_off_c, 9, 42, 64
13, 22014, Note_on_c, 9, 38, 40
13, 22014, Note_on_c, 9, 51, 50
13, 22064, Note_off_c, 9, 51, 64
13, 22064, Note_off_c, 9, 38, 64
13, 22080, Note_on_c, 9, 51, 80
13, 22130, Note_off_c, 9, 51, 64
13, 22320, Note_on_c, 9, 42, 80
13, 22320, Note_on_c, 9, 37, 70
13, 22320, Note_on_c, 9, 51, 90
13, 22370, Note_off_c, 9, 51, 64
13, 22370, Note_off_c, 9, 37, 64
13, 22370, Note_off_c, 9, 42, 64
13, 22496, Note_on_c, 9, 38, 30
13, 22496, Note_on_c, 9, 51, 70
13, 22546, Note_off_c, 9, 51, 64
13, 22546, Note_off_c, 9, 38, 64
13, 22560, Note_on_c, 9, 38, 40
13, 22560, Note_on_c, 9, 51, 80
13, 22610, Note_off_c, 9, 51, 64
13, 22610, Note_off_c, 9, 38, 64
13, 22800, Note_on_c, 9, 42, 100
13, 22800, Note_on_c, 9, 37, 70
13, 22800, Note_on_c, 9, 51, 90
13, 22850, Note_off_c, 9, 51, 64
13, 22850, Note_off_c, 9, 37, 64
13, 22850, Note_off_c, 9, 42, 64
13, 22976, Note_on_c, 9, 51, 70
13, 23026, Note_off_c, 9, 51, 64
13, 23040, Note_on_c, 9, 51, 70
13, 23090, Note_off_c, 9, 51, 64
13, 23280, Note_on_c, 9, 42, 90
13, 23280, Note_on_c, 9, 37, 60
13, 23280, Note_on_c, 9, 51, 90
13, 23330, Note_off_c, 9, 51, 64
13, 23330, Note_off_c, 9, 37, 64
13, 23330, Note_off_c, 9, 42, 64
13, 23456, Note_on_c, 9, 38, 40
13, 23456, Note_on_c, 9, 51, 70
13, 23506, Note_off_c, 9, 51, 64
13, 23506, Note_off_c, 9, 38, 64
13, 23520, Note_on_c, 9, 51, 80
13, 23570, Note_off_c, 9, 51, 64
13, 23760, Note_on_c, 9, 42, 100
13, 23760, Note_on_c, 9, 37, 70
13, 23760, Note_on_c, 9, 51, 90
13, 23810, Note_off_c, 9, 51, 64
13, 23810, Note_off_c, 9, 37, 64
13, 23810, Note_off_c, 9, 42, 64
13, 23936, Note_on_c, 9, 51, 70
13, 23986, Note_off_c, 9, 51, 64
13, 24000, Note_on_c, 9, 51, 80
13, 24050, Note_off_c, 9, 51, 64
13, 24240, Note_on_c, 9, 42, 80
13, 24240, Note_on_c, 9, 37, 70
13, 24240, Note_on_c, 9, 51, 100
13, 24290, Note_off_c, 9, 51, 64
13, 24290, Note_off_c, 9, 37, 64
13, 24290, Note_off_c, 9, 42, 64
13, 24416, Note_on_c, 9, 38, 40
13, 24416, Note_on_c, 9, 51, 70
13, 24466, Note_off_c, 9, 51, 64
13, 24466, Note_off_c, 9, 38, 64
13, 24480, Note_on_c, 9, 51, 80
13, 24530, Note_off_c, 9, 51, 64
13, 24656, Note_on_c, 9, 38, 60
13, 24706, Note_off_c, 9, 38, 64
13, 24720, Note_on_c, 9, 42, 100
13, 24720, Note_on_c, 9, 37, 80
13, 24720, Note_on_c, 9, 51, 90
13, 24770, Note_off_c, 9, 51, 64
13, 24770, Note_off_c, 9, 37, 64
13, 24770, Note_off_c, 9, 42, 64
13, 24896, Note_on_c, 9, 38, 50
13, 24896, Note_on_c, 9, 51, 70
13, 24946, Note_off_c, 9, 51, 64
13, 24946, Note_off_c, 9, 38, 64
13, 24960, Note_on_c, 9, 51, 70
13, 25010, Note_off_c, 9, 51, 64
13, 25200, Note_on_c, 9, 42, 90
13, 25200, Note_on_c, 9, 37, 60
13, 25200, Note_on_c, 9, 51, 90
13, 25250, Note_off_c, 9, 51, 64
13, 25250, Note_off_c, 9, 37, 64
13, 25250, Note_off_c, 9, 42, 64
13, 25376, Note_on_c, 9, 38, 40
13, 25376, Note_on_c, 9, 51, 70
13, 25426, Note_off_c, 9, 51, 64
13, 25426, Note_off_c, 9, 38, 64
13, 25440, Note_on_c, 9, 51, 80
13, 25490, Note_off_c, 9, 51, 64
13, 25680, Note_on_c, 9, 42, 100
13, 25680, Note_on_c, 9, 37, 70
13, 25680, Note_on_c, 9, 51, 90
13, 25730, Note_off_c, 9, 51, 64
13, 25730, Note_off_c, 9, 37, 64
13, 25730, Note_off_c, 9, 42, 64
13, 25856, Note_on_c, 9, 51, 70
13, 25906, Note_off_c, 9, 51, 64
13, 25920, Note_on_c, 9, 51, 80
13, 25970, Note_off_c, 9, 51, 64
13, 26160, Note_on_c, 9, 42, 80
13, 26160, Note_on_c, 9, 37, 70
13, 26160, Note_on_c, 9, 51, 90
13, 26210, Note_off_c, 9, 51, 64
13, 26210, Note_off_c, 9, 37, 64
13, 26210, Note_off_c, 9, 42, 64
13, 26336, Note_on_c, 9, 51, 70
13, 26386, Note_off_c, 9, 51, 64
13, 26400, Note_on_c, 9, 38, 40
13, 26400, Note_on_c, 9, 51, 80
13, 26450, Note_off_c, 9, 51, 64
13, 26450, Note_off_c, 9, 38, 64
13, 26640, Note_on_c, 9, 42, 100
13, 26640, Note_on_c, 9, 37, 70
13, 26640, Note_on_c, 9, 51, 90
13, 26690, Note_off_c, 9, 51, 64
13, 26690, Note_off_c, 9, 37, 64
13, 26690, Note_off_c, 9, 42, 64
13, 26816, Note_on_c, 9, 51, 70
13, 26866, Note_off_c, 9, 51, 64
13, 26880, Note_on_c, 9, 51, 70
13, 26930, Note_off_c, 9, 51, 64
13, 27120, Note_on_c, 9, 42, 90
13, 27120, Note_on_c, 9, 37, 60
13, 27120, Note_on_c, 9, 51, 90
13, 27170, Note_off_c, 9, 51, 64
13, 27170, Note_off_c, 9, 37, 64
13, 27170, Note_off_c, 9, 42, 64
13, 27296, Note_on_c, 9, 38, 40
13, 27296, Note_on_c, 9, 51, 70
13, 27346, Note_off_c, 9, 51, 64
13, 27346, Note_off_c, 9, 38, 64
13, 27360, Note_on_c, 9, 51, 80
13, 27410, Note_off_c, 9, 51, 64
13, 27600, Note_on_c, 9, 42, 100
13, 27600, Note_on_c, 9, 37, 70
13, 27600, Note_on_c, 9, 51, 90
13, 27650, Note_off_c, 9, 51, 64
13, 27650, Note_off_c, 9, 37, 64
13, 27650, Note_off_c, 9, 42, 64
13, 27776, Note_on_c, 9, 51, 70
13, 27826, Note_off_c, 9, 51, 64
13, 27840, Note_on_c, 9, 51, 80
13, 27890, Note_off_c, 9, 51, 64
13, 28080, Note_on_c, 9, 42, 80
13, 28080, Note_on_c, 9, 37, 70
13, 28080, Note_on_c, 9, 51, 90
13, 28130, Note_off_c, 9, 51, 64
13, 28130, Note_off_c, 9, 37, 64
13, 28130, Note_off_c, 9, 42, 64
13, 28256, Note_on_c, 9, 51, 70
13, 28306, Note_off_c, 9, 51, 64
13, 28320, Note_on_c, 9, 38, 40
13, 28320, Note_on_c, 9, 51, 80
13, 28370, Note_off_c, 9, 51, 64
13, 28370, Note_off_c, 9, 38, 64
13, 28560, Note_on_c, 9, 42, 100
13, 28560, Note_on_c, 9, 37, 70
13, 28560, Note_on_c, 9, 51, 90
13, 28610, Note_off_c, 9, 51, 64
13, 28610, Note_off_c, 9, 37, 64
13, 28610, Note_off_c, 9, 42, 64
13, 28736, Note_on_c, 9, 51, 70
13, 28786, Note_off_c, 9, 51, 64
13, 28800, Note_on_c, 9, 51, 70
13, 28850, Note_off_c, 9, 51, 64
13, 29040, Note_on_c, 9, 42, 90
13, 29040, Note_on_c, 9, 37, 60
13, 29040, Note_on_c, 9, 51, 90
13, 29090, Note_off_c, 9, 51, 64
13, 29090, Note_off_c, 9, 37, 64
13, 29090, Note_off_c, 9, 42, 64
13, 29216, Note_on_c, 9, 38, 40
13, 29216, Note_on_c, 9, 51, 70
13, 29266, Note_off_c, 9, 51, 64
13, 29266, Note_off_c, 9, 38, 64
13, 29280, Note_on_c, 9, 51, 80
13, 29330, Note_off_c, 9, 51, 64
13, 29520, Note_on_c, 9, 42, 100
13, 29520, Note_on_c, 9, 37, 70
13, 29520, Note_on_c, 9, 51, 90
13, 29570, Note_off_c, 9, 51, 64
13, 29570, Note_off_c, 9, 37, 64
13, 29570, Note_off_c, 9, 42, 64
13, 29696, Note_on_c, 9, 51, 70
13, 29746, Note_off_c, 9, 51, 64
13, 29760, Note_on_c, 9, 51, 80
13, 29810, Note_off_c, 9, 51, 64
13, 30000, Note_on_c, 9, 42, 70
13, 30000, Note_on_c, 9, 37, 70
13, 30000, Note_on_c, 9, 51, 90
13, 30050, Note_off_c, 9, 51, 64
13, 30050, Note_off_c, 9, 37, 64
13, 30050, Note_off_c, 9, 42, 64
13, 30174, Note_on_c, 9, 51, 70
13, 30224, Note_off_c, 9, 51, 64
13, 30240, Note_on_c, 9, 51, 90
13, 30290, Note_off_c, 9, 51, 64
13, 30480, Note_on_c, 9, 42, 100
13, 30480, Note_on_c, 9, 51, 90
13, 30530, Note_off_c, 9, 51, 64
13, 30530, Note_off_c, 9, 42, 64
13, 30654, Note_on_c, 9, 51, 70
13, 30704, Note_off_c, 9, 51, 64
13, 30720, Note_on_c, 9, 51, 80
13, 30770, Note_off_c, 9, 51, 64
13, 30960, Note_on_c, 9, 42, 80
13, 30960, Note_on_c, 9, 37, 70
13, 30960, Note_on_c, 9, 51, 90
13, 31010, Note_off_c, 9, 51, 64
13, 31010, Note_off_c, 9, 37, 64
13, 31010, Note_off_c, 9, 42, 64
13, 31136, Note_on_c, 9, 51, 70
13, 31186, Note_off_c, 9, 51, 64
13, 31200, Note_on_c, 9, 38, 40
13, 31200, Note_on_c, 9, 51, 80
13, 31250, Note_off_c, 9, 51, 64
13, 31250, Note_off_c, 9, 38, 64
13, 31440, Note_on_c, 9, 42, 100
13, 31440, Note_on_c, 9, 37, 70
13, 31440, Note_on_c, 9, 51, 90
13, 31490, Note_off_c, 9, 51, 64
13, 31490, Note_off_c, 9, 37, 64
13, 31490, Note_off_c, 9, 42, 64
13, 31616, Note_on_c, 9, 51, 70
13, 31666, Note_off_c, 9, 51, 64
13, 31680, Note_on_c, 9, 35, 70
13, 31680, Note_on_c, 9, 51, 70
13, 31730, Note_off_c, 9, 51, 64
13, 31730, Note_off_c, 9, 35, 64
13, 31856, Note_on_c, 9, 38, 60
13, 31906, Note_off_c, 9, 38, 64
13, 31920, Note_on_c, 9, 42, 90
13, 31920, Note_on_c, 9, 37, 60
13, 31920, Note_on_c, 9, 51, 90
13, 31970, Note_off_c, 9, 51, 64
13, 31970, Note_off_c, 9, 37, 64
13, 31970, Note_off_c, 9, 42, 64
13, 32096, Note_on_c, 9, 38, 50
13, 32096, Note_on_c, 9, 51, 70
13, 32146, Note_off_c, 9, 51, 64
13, 32146, Note_off_c, 9, 38, 64
13, 32160, Note_on_c, 9, 51, 80
13, 32210, Note_off_c, 9, 51, 64
13, 32336, Note_on_c, 9, 38, 60
13, 32336, Note_on_c, 9, 51, 40
13, 32386, Note_off_c, 9, 51, 64
13, 32386, Note_off_c, 9, 38, 64
13, 32400, Note_on_c, 9, 42, 100
13, 32400, Note_on_c, 9, 37, 100
13, 32400, Note_on_c, 9, 51, 90
13, 32450, Note_off_c, 9, 51, 64
13, 32450, Note_off_c, 9, 37, 64
13, 32450, Note_off_c, 9, 42, 64
13, 32576, Note_on_c, 9, 38, 70
13, 32576, Note_on_c, 9, 51, 70
13, 32626, Note_off_c, 9, 51, 64
13, 32626, Note_off_c, 9, 38, 64
13, 32640, Note_on_c, 9, 51, 80
13, 32690, Note_off_c, 9, 51, 64
13, 32880, Note_on_c, 9, 42, 80
13, 32880, Note_on_c, 9, 37, 70
13, 32880, Note_on_c, 9, 51, 90
13, 32930, Note_off_c, 9, 51, 64
13, 32930, Note_off_c, 9, 37, 64
13, 32930, Note_off_c, 9, 42, 64
13, 33056, Note_on_c, 9, 51, 70
13, 33106, Note_off_c, 9, 51, 64
13, 33120, Note_on_c, 9, 38, 40
13, 33120, Note_on_c, 9, 51, 80
13, 33170, Note_off_c, 9, 51, 64
13, 33170, Note_off_c, 9, 38, 64
13, 33360, Note_on_c, 9, 42, 100
13, 33360, Note_on_c, 9, 37, 70
13, 33360, Note_on_c, 9, 51, 90
13, 33410, Note_off_c, 9, 51, 64
13, 33410, Note_off_c, 9, 37, 64
13, 33410, Note_off_c, 9, 42, 64
13, 33536, Note_on_c, 9, 51, 70
13, 33586, Note_off_c, 9, 51, 64
13, 33600, Note_on_c, 9, 51, 80
13, 33650, Note_off_c, 9, 51, 64
13, 33840, Note_on_c, 9, 42, 70
13, 33840, Note_on_c, 9, 37, 70
13, 33840, Note_on_c, 9, 51, 90
13, 33890, Note_off_c, 9, 51, 64
13, 33890, Note_off_c, 9, 37, 64
13, 33890, Note_off_c, 9, 42, 64
13, 34014, Note_on_c, 9, 51, 70
13, 34064, Note_off_c, 9, 51, 64
13, 34080, Note_on_c, 9, 51, 90
13, 34130, Note_off_c, 9, 51, 64
13, 34320, Note_on_c, 9, 42, 100
13, 34320, Note_on_c, 9, 51, 90
13, 34370, Note_off_c, 9, 51, 64
13, 34370, Note_off_c, 9, 42, 64
13, 34494, Note_on_c, 9, 51, 70
13, 34544, Note_off_c, 9, 51, 64
13, 34560, Note_on_c, 9, 51, 80
13, 34610, Note_off_c, 9, 51, 64
13, 34800, Note_on_c, 9, 42, 80
13, 34800, Note_on_c, 9, 37, 70
13, 34800, Note_on_c, 9, 51, 90
13, 34850, Note_off_c, 9, 51, 64
13, 34850, Note_off_c, 9, 37, 64
13, 34850, Note_off_c, 9, 42, 64
13, 34976, Note_on_c, 9, 51, 70
13, 35026, Note_off_c, 9, 51, 64
13, 35040, Note_on_c, 9, 38, 40
13, 35040, Note_on_c, 9, 51, 80
13, 35090, Note_off_c, 9, 51, 64
13, 35090, Note_off_c, 9, 38, 64
13, 35280, Note_on_c, 9, 42, 100
13, 35280, Note_on_c, 9, 37, 70
13, 35280, Note_on_c, 9, 51, 90
13, 35330, Note_off_c, 9, 51, 64
13, 35330, Note_off_c, 9, 37, 64
13, 35330, Note_off_c, 9, 42, 64
13, 35456, Note_on_c, 9, 51, 70
13, 35506, Note_off_c, 9, 51, 64
13, 35520, Note_on_c, 9, 51, 80
13, 35570, Note_off_c, 9, 51, 64
13, 35760, Note_on_c, 9, 42, 80
13, 35760, Note_on_c, 9, 37, 70
13, 35760, Note_on_c, 9, 51, 90
13, 35810, Note_off_c, 9, 51, 64
13, 35810, Note_off_c, 9, 37, 64
13, 35810, Note_off_c, 9, 42, 64
13, 35932, Note_on_c, 9, 51, 70
13, 35982, Note_off_c, 9, 51, 64
13, 36000, Note_on_c, 9, 51, 80
13, 36050, Note_off_c, 9, 51, 64
13, 36172, Note_on_c, 9, 38, 60
13, 36222, Note_off_c, 9, 38, 64
13, 36240, Note_on_c, 9, 42, 100
13, 36240, Note_on_c, 9, 37, 80
13, 36240, Note_on_c, 9, 51, 90
13, 36290, Note_off_c, 9, 51, 64
13, 36290, Note_off_c, 9, 37, 64
13, 36290, Note_off_c, 9, 42, 64
13, 36412, Note_on_c, 9, 38, 50
13, 36412, Note_on_c, 9, 51, 70
13, 36462, Note_off_c, 9, 51, 64
13, 36462, Note_off_c, 9, 38, 64
13, 36480, Note_on_c, 9, 51, 80
13, 36530, Note_off_c, 9, 51, 64
13, 36720, Note_on_c, 9, 42, 80
13, 36720, Note_on_c, 9, 37, 70
13, 36720, Note_on_c, 9, 51, 90
13, 36770, Note_off_c, 9, 51, 64
13, 36770, Note_off_c, 9, 37, 64
13, 36770, Note_off_c, 9, 42, 64
13, 36896, Note_on_c, 9, 51, 70
13, 36946, Note_off_c, 9, 51, 64
13, 36960, Note_on_c, 9, 38, 40
13, 36960, Note_on_c, 9, 51, 80
13, 37010, Note_off_c, 9, 51, 64
13, 37010, Note_off_c, 9, 38, 64
13, 37200, Note_on_c, 9, 42, 100
13, 37200, Note_on_c, 9, 37, 70
13, 37200, Note_on_c, 9, 51, 90
13, 37250, Note_off_c, 9, 51, 64
13, 37250, Note_off_c, 9, 37, 64
13, 37250, Note_off_c, 9, 42, 64
13, 37376, Note_on_c, 9, 51, 70
13, 37426, Note_off_c, 9, 51, 64
13, 37440, Note_on_c, 9, 51, 80
13, 37490, Note_off_c, 9, 51, 64
13, 37680, Note_on_c, 9, 42, 70
13, 37680, Note_on_c, 9, 37, 70
13, 37680, Note_on_c, 9, 51, 90
13, 37730, Note_off_c, 9, 51, 64
13, 37730, Note_off_c, 9, 37, 64
13, 37730, Note_off_c, 9, 42, 64
13, 37854, Note_on_c, 9, 51, 70
13, 37904, Note_off_c, 9, 51, 64
13, 37920, Note_on_c, 9, 51, 90
13, 37970, Note_off_c, 9, 51, 64
13, 38160, Note_on_c, 9, 42, 100
13, 38160, Note_on_c, 9, 51, 90
13, 38210, Note_off_c, 9, 51, 64
13, 38210, Note_off_c, 9, 42, 64
13, 38334, Note_on_c, 9, 51, 70
13, 38384, Note_off_c, 9, 51, 64
13, 38400, Note_on_c, 9, 51, 70
13, 38450, Note_off_c, 9, 51, 64
13, 38640, Note_on_c, 9, 42, 100
13, 38640, Note_on_c, 9, 37, 70
13, 38640, Note_on_c, 9, 51, 90
13, 38690, Note_off_c, 9, 51, 64
13, 38690, Note_off_c, 9, 37, 64
13, 38690, Note_off_c, 9, 42, 64
13, 38814, Note_on_c, 9, 38, 40
13, 38814, Note_on_c, 9, 51, 50
13, 38864, Note_off_c, 9, 51, 64
13, 38864, Note_off_c, 9, 38, 64
13, 38880, Note_on_c, 9, 51, 80
13, 38930, Note_off_c, 9, 51, 64
13, 39120, Note_on_c, 9, 42, 100
13, 39120, Note_on_c, 9, 37, 70
13, 39120, Note_on_c, 9, 51, 90
13, 39170, Note_off_c, 9, 51, 64
13, 39170, Note_off_c, 9, 37, 64
13, 39170, Note_off_c, 9, 42, 64
13, 39294, Note_on_c, 9, 38, 40
13, 39294, Note_on_c, 9, 51, 50
13, 39344, Note_off_c, 9, 51, 64
13, 39344, Note_off_c, 9, 38, 64
13, 39360, Note_on_c, 9, 51, 80
13, 39410, Note_off_c, 9, 51, 64
13, 39600, Note_on_c, 9, 42, 70
13, 39600, Note_on_c, 9, 37, 70
13, 39600, Note_on_c, 9, 51, 90
13, 39650, Note_off_c, 9, 51, 64
13, 39650, Note_off_c, 9, 37, 64
13, 39650, Note_off_c, 9, 42, 64
13, 39774, Note_on_c, 9, 51, 70
13, 39824, Note_off_c, 9, 51, 64
13, 39840, Note_on_c, 9, 51, 90
13, 39890, Note_off_c, 9, 51, 64
13, 40080, Note_on_c, 9, 42, 100
13, 40080, Note_on_c, 9, 51, 90
13, 40130, Note_off_c, 9, 51, 64
13, 40130, Note_off_c, 9, 42, 64
13, 40254, Note_on_c, 9, 51, 70
13, 40304, Note_off_c, 9, 51, 64
13, 40320, Note_on_c, 9, 51, 70
13, 40370, Note_off_c, 9, 51, 64
13, 40560, Note_on_c, 9, 42, 100
13, 40560, Note_on_c, 9, 37, 70
13, 40560, Note_on_c, 9, 51, 90
13, 40610, Note_off_c, 9, 51, 64
13, 40610, Note_off_c, 9, 37, 64
13, 40610, Note_off_c, 9, 42, 64
13, 40734, Note_on_c, 9, 38, 40
13, 40734, Note_on_c, 9, 51, 50
13, 40784, Note_off_c, 9, 51, 64
13, 40784, Note_off_c, 9, 38, 64
13, 40800, Note_on_c, 9, 51, 80
13, 40850, Note_off_c, 9, 51, 64
13, 41040, Note_on_c, 9, 42, 100
13, 41040, Note_on_c, 9, 37, 70
13, 41040, Note_on_c, 9, 51, 90
13, 41090, Note_off_c, 9, 51, 64
13, 41090, Note_off_c, 9, 37, 64
13, 41090, Note_off_c, 9, 42, 64
13, 41214, Note_on_c, 9, 38, 40
13, 41214, Note_on_c, 9, 51, 50
13, 41264, Note_off_c, 9, 51, 64
13, 41264, Note_off_c, 9, 38, 64
13, 41280, Note_on_c, 9, 51, 80
13, 41330, Note_off_c, 9, 51, 64
13, 41520, Note_on_c, 9, 42, 80
13, 41520, Note_on_c, 9, 37, 70
13, 41520, Note_on_c, 9, 51, 90
13, 41570, Note_off_c, 9, 51, 64
13, 41570, Note_off_c, 9, 37, 64
13, 41570, Note_off_c, 9, 42, 64
13, 41696, Note_on_c, 9, 51, 70
13, 41746, Note_off_c, 9, 51, 64
13, 41760, Note_on_c, 9, 38, 40
13, 41760, Note_on_c, 9, 51, 80
13, 41810, Note_off_c, 9, 51, 64
13, 41810, Note_off_c, 9, 38, 64
13, 42000, Note_on_c, 9, 42, 100
13, 42000, Note_on_c, 9, 37, 70
13, 42000, Note_on_c, 9, 51, 90
13, 42050, Note_off_c, 9, 51, 64
13, 42050, Note_off_c, 9, 37, 64
13, 42050, Note_off_c, 9, 42, 64
13, 42176, Note_on_c, 9, 51, 70
13, 42226, Note_off_c, 9, 51, 64
13, 42240, Note_on_c, 9, 51, 70
13, 42290, Note_off_c, 9, 51, 64
13, 42480, Note_on_c, 9, 42, 90
13, 42480, Note_on_c, 9, 37, 60
13, 42480, Note_on_c, 9, 51, 90
13, 42530, Note_off_c, 9, 51, 64
13, 42530, Note_off_c, 9, 37, 64
13, 42530, Note_off_c, 9, 42, 64
13, 42656, Note_on_c, 9, 38, 40
13, 42656, Note_on_c, 9, 51, 70
13, 42706, Note_off_c, 9, 51, 64
13, 42706, Note_off_c, 9, 38, 64
13, 42720, Note_on_c, 9, 51, 80
13, 42770, Note_off_c, 9, 51, 64
13, 42960, Note_on_c, 9, 42, 100
13, 42960, Note_on_c, 9, 37, 70
13, 42960, Note_on_c, 9, 51, 90
13, 43010, Note_off_c, 9, 51, 64
13, 43010, Note_off_c, 9, 37, 64
13, 43010, Note_off_c, 9, 42, 64
13, 43136, Note_on_c, 9, 51, 70
13, 43186, Note_off_c, 9, 51, 64
13, 43200, Note_on_c, 9, 51, 80
13, 43250, Note_off_c, 9, 51, 64
13, 43440, Note_on_c, 9, 42, 80
13, 43440, Note_on_c, 9, 37, 70
13, 43440, Note_on_c, 9, 51, 90
13, 43490, Note_off_c, 9, 51, 64
13, 43490, Note_off_c, 9, 37, 64
13, 43490, Note_off_c, 9, 42, 64
13, 43616, Note_on_c, 9, 38, 40
13, 43616, Note_on_c, 9, 51, 70
13, 43666, Note_off_c, 9, 51, 64
13, 43666, Note_off_c, 9, 38, 64
13, 43680, Note_on_c, 9, 51, 80
13, 43730, Note_off_c, 9, 51, 64
13, 43856, Note_on_c, 9, 38, 30
13, 43906, Note_off_c, 9, 38, 64
13, 43920, Note_on_c, 9, 42, 100
13, 43920, Note_on_c, 9, 37, 70
13, 43920, Note_on_c, 9, 51, 90
13, 43970, Note_off_c, 9, 51, 64
13, 43970, Note_off_c, 9, 37, 64
13, 43970, Note_off_c, 9, 42, 64
13, 44096, Note_on_c, 9, 38, 40
13, 44096, Note_on_c, 9, 51, 70
13, 44146, Note_off_c, 9, 51, 64
13, 44146, Note_off_c, 9, 38, 64
13, 44160, Note_on_c, 9, 51, 70
13, 44210, Note_off_c, 9, 51, 64
13, 44336, Note_on_c, 9, 38, 60
13, 44386, Note_off_c, 9, 38, 64
13, 44400, Note_on_c, 9, 42, 90
13, 44400, Note_on_c, 9, 37, 60
13, 44400, Note_on_c, 9, 51, 90
13, 44450, Note_off_c, 9, 51, 64
13, 44450, Note_off_c, 9, 37, 64
13, 44450, Note_off_c, 9, 42, 64
13, 44576, Note_on_c, 9, 38, 40
13, 44576, Note_on_c, 9, 51, 70
13, 44626, Note_off_c, 9, 51, 64
13, 44626, Note_off_c, 9, 38, 64
13, 44640, Note_on_c, 9, 51, 80
13, 44690, Note_off_c, 9, 51, 64
13, 44880, Note_on_c, 9, 42, 100
13, 44880, Note_on_c, 9, 37, 70
13, 44880, Note_on_c, 9, 51, 90
13, 44930, Note_off_c, 9, 51, 64
13, 44930, Note_off_c, 9, 37, 64
13, 44930, Note_off_c, 9, 42, 64
13, 45056, Note_on_c, 9, 51, 70
13, 45106, Note_off_c, 9, 51, 64
13, 45120, Note_on_c, 9, 51, 80
13, 45170, Note_off_c, 9, 51, 64
13, 45360, Note_on_c, 9, 42, 80
13, 45360, Note_on_c, 9, 37, 70
13, 45360, Note_on_c, 9, 51, 90
13, 45410, Note_off_c, 9, 51, 64
13, 45410, Note_off_c, 9, 37, 64
13, 45410, Note_off_c, 9, 42, 64
13, 45536, Note_on_c, 9, 38, 30
13, 45536, Note_on_c, 9, 51, 70
13, 45586, Note_off_c, 9, 51, 64
13, 45586, Note_off_c, 9, 38, 64
13, 45600, Note_on_c, 9, 38, 40
13, 45600, Note_on_c, 9, 51, 80
13, 45650, Note_off_c, 9, 51, 64
13, 45650, Note_off_c, 9, 38, 64
13, 45840, Note_on_c, 9, 42, 100
13, 45840, Note_on_c, 9, 37, 70
13, 45840, Note_on_c, 9, 51, 90
13, 45890, Note_off_c, 9, 51, 64
13, 45890, Note_off_c, 9, 37, 64
13, 45890, Note_off_c, 9, 42, 64
13, 46016, Note_on_c, 9, 51, 70
13, 46066, Note_off_c, 9, 51, 64
13, 46080, Note_on_c, 9, 51, 80
13, 46130, Note_off_c, 9, 51, 64
13, 46320, Note_on_c, 9, 42, 80
13, 46320, Note_on_c, 9, 37, 70
13, 46320, Note_on_c, 9, 51, 90
13, 46370, Note_off_c, 9, 51, 64
13, 46370, Note_off_c, 9, 37, 64
13, 46370, Note_off_c, 9, 42, 64
13, 46492, Note_on_c, 9, 38, 40
13, 46492, Note_on_c, 9, 51, 60
13, 46542, Note_off_c, 9, 51, 64
13, 46542, Note_off_c, 9, 38, 64
13, 46560, Note_on_c, 9, 51, 80
13, 46610, Note_off_c, 9, 51, 64
13, 46800, Note_on_c, 9, 42, 100
13, 46800, Note_on_c, 9, 37, 80
13, 46800, Note_on_c, 9, 51, 100
13, 46850, Note_off_c, 9, 51, 64
13, 46850, Note_off_c, 9, 37, 64
13, 46850, Note_off_c, 9, 42, 64
13, 46972, Note_on_c, 9, 38, 60
13, 46972, Note_on_c, 9, 51, 70
13, 47022, Note_off_c, 9, 51, 64
13, 47022, Note_off_c, 9, 38, 64
13, 47040, Note_on_c, 9, 35, 90
13, 47090, Note_off_c, 9, 35, 64
13, 47212, Note_on_c, 9, 38, 70
13, 47262, Note_off_c, 9, 38, 64
13, 47280, Note_on_c, 9, 42, 80
13, 47280, Note_on_c, 9, 51, 90
13, 47330, Note_off_c, 9, 51, 64
13, 47330, Note_off_c, 9, 42, 64
13, 47452, Note_on_c, 9, 38, 60
13, 47452, Note_on_c, 9, 51, 80
13, 47502, Note_off_c, 9, 51, 64
13, 47502, Note_off_c, 9, 38, 64
13, 47520, Note_on_c, 9, 38, 80
13, 47520, Note_on_c, 9, 51, 80
13, 47570, Note_off_c, 9, 51, 64
13, 47570, Note_off_c, 9, 38, 64
13, 47692, Note_on_c, 9, 35, 80
13, 47692, Note_on_c, 9, 38, 50
13, 47742, Note_off_c, 9, 38, 64
13, 47742, Note_off_c, 9, 35, 64
13, 47760, Note_on_c, 9, 42, 100
13, 47760, Note_on_c, 9, 51, 90
13, 47810, Note_off_c, 9, 51, 64
13, 47810, Note_off_c, 9, 42, 64
13, 47840, Note_on_c, 9, 38, 40
13, 47890, Note_off_c, 9, 38, 64
13, 47932, Note_on_c, 9, 38, 60
13, 47932, Note_on_c, 9, 51, 80
13, 47982, Note_off_c, 9, 51, 64
13, 47982, Note_off_c, 9, 38, 64
13, 48000, Note_on_c, 9, 38, 50
13, 48000, Note_on_c, 9, 49, 40
13, 48050, Note_off_c, 9, 49, 64
13, 48050, Note_off_c, 9, 38, 64
13, 48240, Note_on_c, 9, 42, 80
13, 48240, Note_on_c, 9, 37, 70
13, 48240, Note_on_c, 9, 51, 90
13, 48290, Note_off_c, 9, 51, 64
13, 48290, Note_off_c, 9, 37, 64
13, 48290, Note_off_c, 9, 42, 64
13, 48414, Note_on_c, 9, 51, 70
13, 48464, Note_off_c, 9, 51, 64
13, 48480, Note_on_c, 9, 38, 40
13, 48480, Note_on_c, 9, 51, 70
13, 48530, Note_off_c, 9, 51, 64
13, 48530, Note_off_c, 9, 38, 64
13, 48720, Note_on_c, 9, 42, 100
13, 48720, Note_on_c, 9, 37, 70
13, 48720, Note_on_c, 9, 51, 90
13, 48770, Note_off_c, 9, 51, 64
13, 48770, Note_off_c, 9, 37, 64
13, 48770, Note_off_c, 9, 42, 64
13, 48894, Note_on_c, 9, 51, 70
13, 48944, Note_off_c, 9, 51, 64
13, 48960, Note_on_c, 9, 51, 80
13, 49010, Note_off_c, 9, 51, 64
13, 49200, Note_on_c, 9, 42, 70
13, 49200, Note_on_c, 9, 37, 70
13, 49200, Note_on_c, 9, 51, 90
13, 49250, Note_off_c, 9, 51, 64
13, 49250, Note_off_c, 9, 37, 64
13, 49250, Note_off_c, 9, 42, 64
13, 49374, Note_on_c, 9, 51, 70
13, 49424, Note_off_c, 9, 51, 64
13, 49440, Note_on_c, 9, 51, 90
13, 49490, Note_off_c, 9, 51, 64
13, 49680, Note_on_c, 9, 42, 100
13, 49680, Note_on_c, 9, 51, 90
13, 49730, Note_off_c, 9, 51, 64
13, 49730, Note_off_c, 9, 42, 64
13, 49854, Note_on_c, 9, 51, 70
13, 49904, Note_off_c, 9, 51, 64
13, 49920, Note_on_c, 9, 51, 70
13, 49970, Note_off_c, 9, 51, 64
13, 50160, Note_on_c, 9, 42, 100
13, 50160, Note_on_c, 9, 37, 70
13, 50160, Note_on_c, 9, 51, 90
13, 50210, Note_off_c, 9, 51, 64
13, 50210, Note_off_c, 9, 37, 64
13, 50210, Note_off_c, 9, 42, 64
13, 50334, Note_on_c, 9, 38, 40
13, 50334, Note_on_c, 9, 51, 50
13, 50384, Note_off_c, 9, 51, 64
13, 50384, Note_off_c, 9, 38, 64
13, 50400, Note_on_c, 9, 51, 80
13, 50450, Note_off_c, 9, 51, 64
13, 50640, Note_on_c, 9, 42, 100
13, 50640, Note_on_c, 9, 37, 70
13, 50640, Note_on_c, 9, 51, 90
13, 50690, Note_off_c, 9, 51, 64
13, 50690, Note_off_c, 9, 37, 64
13, 50690, Note_off_c, 9, 42, 64
13, 50814, Note_on_c, 9, 38, 40
13, 50814, Note_on_c, 9, 51, 50
13, 50864, Note_off_c, 9, 51, 64
13, 50864, Note_off_c, 9, 38, 64
13, 50880, Note_on_c, 9, 51, 80
13, 50930, Note_off_c, 9, 51, 64
13, 51120, Note_on_c, 9, 42, 80
13, 51120, Note_on_c, 9, 37, 70
13, 51120, Note_on_c, 9, 51, 90
13, 51170, Note_off_c, 9, 51, 64
13, 51170, Note_off_c, 9, 37, 64
13, 51170, Note_off_c, 9, 42, 64
13, 51296, Note_on_c, 9, 38, 40
13, 51296, Note_on_c, 9, 51, 70
13, 51346, Note_off_c, 9, 51, 64
13, 51346, Note_off_c, 9, 38, 64
13, 51360, Note_on_c, 9, 51, 80
13, 51410, Note_off_c, 9, 51, 64
13, 51536, Note_on_c, 9, 38, 30
13, 51586, Note_off_c, 9, 38, 64
13, 51600, Note_on_c, 9, 42, 100
13, 51600, Note_on_c, 9, 37, 70
13, 51600, Note_on_c, 9, 51, 90
13, 51650, Note_off_c, 9, 51, 64
13, 51650, Note_off_c, 9, 37, 64
13, 51650, Note_off_c, 9, 42, 64
13, 51776, Note_on_c, 9, 38, 40
13, 51776, Note_on_c, 9, 51, 70
13, 51826, Note_off_c, 9, 51, 64
13, 51826, Note_off_c, 9, 38, 64
13, 51840, Note_on_c, 9, 51, 70
13, 51890, Note_off_c, 9, 51, 64
13, 52080, Note_on_c, 9, 42, 100
13, 52080, Note_on_c, 9, 37, 70
13, 52080, Note_on_c, 9, 51, 90
13, 52130, Note_off_c, 9, 51, 64
13, 52130, Note_off_c, 9, 37, 64
13, 52130, Note_off_c, 9, 42, 64
13, 52254, Note_on_c, 9, 38, 40
13, 52254, Note_on_c, 9, 51, 50
13, 52304, Note_off_c, 9, 51, 64
13, 52304, Note_off_c, 9, 38, 64
13, 52320, Note_on_c, 9, 51, 80
13, 52370, Note_off_c, 9, 51, 64
13, 52560, Note_on_c, 9, 42, 100
13, 52560, Note_on_c, 9, 37, 70
13, 52560, Note_on_c, 9, 51, 90
13, 52610, Note_off_c, 9, 51, 64
13, 52610, Note_off_c, 9, 37, 64
13, 52610, Note_off_c, 9, 42, 64
13, 52734, Note_on_c, 9, 38, 40
13, 52734, Note_on_c, 9, 51, 50
13, 52784, Note_off_c, 9, 51, 64
13, 52784, Note_off_c, 9, 38, 64
13, 52800, Note_on_c, 9, 51, 80
13, 52850, Note_off_c, 9, 51, 64
13, 53040, Note_on_c, 9, 42, 70
13, 53040, Note_on_c, 9, 37, 70
13, 53040, Note_on_c, 9, 51, 90
13, 53090, Note_off_c, 9, 51, 64
13, 53090, Note_off_c, 9, 37, 64
13, 53090, Note_off_c, 9, 42, 64
13, 53214, Note_on_c, 9, 51, 70
13, 53264, Note_off_c, 9, 51, 64
13, 53280, Note_on_c, 9, 51, 90
13, 53330, Note_off_c, 9, 51, 64
13, 53520, Note_on_c, 9, 42, 100
13, 53520, Note_on_c, 9, 51, 90
13, 53570, Note_off_c, 9, 51, 64
13, 53570, Note_off_c, 9, 42, 64
13, 53694, Note_on_c, 9, 51, 70
13, 53744, Note_off_c, 9, 51, 64
13, 53760, Note_on_c, 9, 51, 70
13, 53810, Note_off_c, 9, 51, 64
13, 54000, Note_on_c, 9, 42, 90
13, 54000, Note_on_c, 9, 37, 60
13, 54000, Note_on_c, 9, 51, 90
13, 54050, Note_off_c, 9, 51, 64
13, 54050, Note_off_c, 9, 37, 64
13, 54050, Note_off_c, 9, 42, 64
13, 54176, Note_on_c, 9, 38, 40
13, 54176, Note_on_c, 9, 51, 70
13, 54226, Note_off_c, 9, 51, 64
13, 54226, Note_off_c, 9, 38, 64
13, 54240, Note_on_c, 9, 51, 80
13, 54290, Note_off_c, 9, 51, 64
13, 54416, Note_on_c, 9, 38, 50
13, 54466, Note_off_c, 9, 38, 64
13, 54480, Note_on_c, 9, 42, 100
13, 54480, Note_on_c, 9, 37, 70
13, 54480, Note_on_c, 9, 51, 90
13, 54530, Note_off_c, 9, 51, 64
13, 54530, Note_off_c, 9, 37, 64
13, 54530, Note_off_c, 9, 42, 64
13, 54656, Note_on_c, 9, 51, 70
13, 54706, Note_off_c, 9, 51, 64
13, 54720, Note_on_c, 9, 51, 80
13, 54770, Note_off_c, 9, 51, 64
13, 54960, Note_on_c, 9, 42, 80
13, 54960, Note_on_c, 9, 37, 70
13, 54960, Note_on_c, 9, 51, 90
13, 55010, Note_off_c, 9, 51, 64
13, 55010, Note_off_c, 9, 37, 64
13, 55010, Note_off_c, 9, 42, 64
13, 55132, Note_on_c, 9, 35, 70
13, 55132, Note_on_c, 9, 51, 70
13, 55182, Note_off_c, 9, 51, 64
13, 55182, Note_off_c, 9, 35, 64
13, 55200, Note_on_c, 9, 51, 80
13, 55250, Note_off_c, 9, 51, 64
13, 55372, Note_on_c, 9, 38, 60
13, 55422, Note_off_c, 9, 38, 64
13, 55440, Note_on_c, 9, 42, 100
13, 55440, Note_on_c, 9, 37, 80
13, 55440, Note_on_c, 9, 51, 90
13, 55490, Note_off_c, 9, 51, 64
13, 55490, Note_off_c, 9, 37, 64
13, 55490, Note_off_c, 9, 42, 64
13, 55612, Note_on_c, 9, 38, 50
13, 55612, Note_on_c, 9, 51, 70
13, 55662, Note_off_c, 9, 51, 64
13, 55662, Note_off_c, 9, 38, 64
13, 55680, Note_on_c, 9, 51, 70
13, 55730, Note_off_c, 9, 51, 64
13, 55856, Note_on_c, 9, 38, 60
13, 55906, Note_off_c, 9, 38, 64
13, 55920, Note_on_c, 9, 42, 90
13, 55920, Note_on_c, 9, 37, 60
13, 55920, Note_on_c, 9, 51, 90
13, 55970, Note_off_c, 9, 51, 64
13, 55970, Note_off_c, 9, 37, 64
13, 55970, Note_off_c, 9, 42, 64
13, 56096, Note_on_c, 9, 38, 40
13, 56096, Note_on_c, 9, 51, 70
13, 56146, Note_off_c, 9, 51, 64
13, 56146, Note_off_c, 9, 38, 64
13, 56160, Note_on_c, 9, 51, 80
13, 56210, Note_off_c, 9, 51, 64
13, 56336, Note_on_c, 9, 38, 50
13, 56386, Note_off_c, 9, 38, 64
13, 56400, Note_on_c, 9, 42, 100
13, 56400, Note_on_c, 9, 37, 70
13, 56400, Note_on_c, 9, 51, 90
13, 56450, Note_off_c, 9, 51, 64
13, 56450, Note_off_c, 9, 37, 64
13, 56450, Note_off_c, 9, 42, 64
13, 56576, Note_on_c, 9, 51, 70
13, 56626, Note_off_c, 9, 51, 64
13, 56640, Note_on_c, 9, 51, 80
13, 56690, Note_off_c, 9, 51, 64
13, 56880, Note_on_c, 9, 42, 70
13, 56880, Note_on_c, 9, 37, 70
13, 56880, Note_on_c, 9, 51, 90
13, 56930, Note_off_c, 9, 51, 64
13, 56930, Note_off_c, 9, 37, 64
13, 56930, Note_off_c, 9, 42, 64
13, 57054, Note_on_c, 9, 38, 40
13, 57054, Note_on_c, 9, 51, 70
13, 57104, Note_off_c, 9, 51, 64
13, 57104, Note_off_c, 9, 38, 64
13, 57120, Note_on_c, 9, 51, 90
13, 57170, Note_off_c, 9, 51, 64
13, 57360, Note_on_c, 9, 42, 100
13, 57360, Note_on_c, 9, 51, 90
13, 57410, Note_off_c, 9, 51, 64
13, 57410, Note_off_c, 9, 42, 64
13, 57534, Note_on_c, 9, 51, 70
13, 57584, Note_off_c, 9, 51, 64
13, 57600, Note_on_c, 9, 51, 70
13, 57650, Note_off_c, 9, 51, 64
13, 57840, Note_on_c, 9, 42, 100
13, 57840, Note_on_c, 9, 37, 70
13, 57840, Note_on_c, 9, 51, 90
13, 57890, Note_off_c, 9, 51, 64
13, 57890, Note_off_c, 9, 37, 64
13, 57890, Note_off_c, 9, 42, 64
13, 58014, Note_on_c, 9, 38, 40
13, 58014, Note_on_c, 9, 51, 50
13, 58064, Note_off_c, 9, 51, 64
13, 58064, Note_off_c, 9, 38, 64
13, 58080, Note_on_c, 9, 51, 80
13, 58130, Note_off_c, 9, 51, 64
13, 58320, Note_on_c, 9, 42, 100
13, 58320, Note_on_c, 9, 37, 70
13, 58320, Note_on_c, 9, 51, 90
13, 58370, Note_off_c, 9, 51, 64
13, 58370, Note_off_c, 9, 37, 64
13, 58370, Note_off_c, 9, 42, 64
13, 58494, Note_on_c, 9, 38, 40
13, 58494, Note_on_c, 9, 51, 50
13, 58544, Note_off_c, 9, 51, 64
13, 58544, Note_off_c, 9, 38, 64
13, 58560, Note_on_c, 9, 51, 80
13, 58610, Note_off_c, 9, 51, 64
13, 58800, Note_on_c, 9, 42, 80
13, 58800, Note_on_c, 9, 37, 70
13, 58800, Note_on_c, 9, 51, 90
13, 58850, Note_off_c, 9, 51, 64
13, 58850, Note_off_c, 9, 37, 64
13, 58850, Note_off_c, 9, 42, 64
13, 58976, Note_on_c, 9, 38, 40
13, 58976, Note_on_c, 9, 51, 70
13, 59026, Note_off_c, 9, 51, 64
13, 59026, Note_off_c, 9, 38, 64
13, 59040, Note_on_c, 9, 51, 80
13, 59090, Note_off_c, 9, 51, 64
13, 59280, Note_on_c, 9, 42, 100
13, 59280, Note_on_c, 9, 37, 70
13, 59280, Note_on_c, 9, 51, 90
13, 59330, Note_off_c, 9, 51, 64
13, 59330, Note_off_c, 9, 37, 64
13, 59330, Note_off_c, 9, 42, 64
13, 59456, Note_on_c, 9, 38, 40
13, 59456, Note_on_c, 9, 51, 70
13, 59506, Note_off_c, 9, 51, 64
13, 59506, Note_off_c, 9, 38, 64
13, 59520, Note_on_c, 9, 51, 70
13, 59570, Note_off_c, 9, 51, 64
13, 59760, Note_on_c, 9, 42, 90
13, 59760, Note_on_c, 9, 37, 60
13, 59760, Note_on_c, 9, 51, 90
13, 59810, Note_off_c, 9, 51, 64
13, 59810, Note_off_c, 9, 37, 64
13, 59810, Note_off_c, 9, 42, 64
13, 59936, Note_on_c, 9, 38, 40
13, 59936, Note_on_c, 9, 51, 70
13, 59986, Note_off_c, 9, 51, 64
13, 59986, Note_off_c, 9, 38, 64
13, 60000, Note_on_c, 9, 51, 80
13, 60050, Note_off_c, 9, 51, 64
13, 60240, Note_on_c, 9, 42, 100
13, 60240, Note_on_c, 9, 37, 70
13, 60240, Note_on_c, 9, 51, 90
13, 60290, Note_off_c, 9, 51, 64
13, 60290, Note_off_c, 9, 37, 64
13, 60290, Note_off_c, 9, 42, 64
13, 60416, Note_on_c, 9, 51, 70
13, 60466, Note_off_c, 9, 51, 64
13, 60480, Note_on_c, 9, 51, 80
13, 60530, Note_off_c, 9, 51, 64
13, 60720, Note_on_c, 9, 42, 70
13, 60720, Note_on_c, 9, 37, 70
13, 60720, Note_on_c, 9, 51, 90
13, 60770, Note_off_c, 9, 51, 64
13, 60770, Note_off_c, 9, 37, 64
13, 60770, Note_off_c, 9, 42, 64
13, 60894, Note_on_c, 9, 38, 40
13, 60894, Note_on_c, 9, 51, 70
13, 60944, Note_off_c, 9, 51, 64
13, 60944, Note_off_c, 9, 38, 64
13, 60960, Note_on_c, 9, 51, 90
13, 61010, Note_off_c, 9, 51, 64
13, 61200, Note_on_c, 9, 42, 100
13, 61200, Note_on_c, 9, 51, 90
13, 61250, Note_off_c, 9, 51, 64
13, 61250, Note_off_c, 9, 42, 64
13, 61374, Note_on_c, 9, 51, 70
13, 61424, Note_off_c, 9, 51, 64
13, 61440, Note_on_c, 9, 51, 70
13, 61490, Note_off_c, 9, 51, 64
13, 61680, Note_on_c, 9, 42, 90
13, 61680, Note_on_c, 9, 37, 60
13, 61680, Note_on_c, 9, 51, 90
13, 61730, Note_off_c, 9, 51, 64
13, 61730, Note_off_c, 9, 37, 64
13, 61730, Note_off_c, 9, 42, 64
13, 61856, Note_on_c, 9, 38, 40
13, 61856, Note_on_c, 9, 51, 70
13, 61906, Note_off_c, 9, 51, 64
13, 61906, Note_off_c, 9, 38, 64
13, 61920, Note_on_c, 9, 51, 80
13, 61970, Note_off_c, 9, 51, 64
13, 62096, Note_on_c, 9, 38, 50
13, 62146, Note_off_c, 9, 38, 64
13, 62160, Note_on_c, 9, 42, 100
13, 62160, Note_on_c, 9, 37, 70
13, 62160, Note_on_c, 9, 51, 90
13, 62210, Note_off_c, 9, 51, 64
13, 62210, Note_off_c, 9, 37, 64
13, 62210, Note_off_c, 9, 42, 64
13, 62336, Note_on_c, 9, 51, 70
13, 62386, Note_off_c, 9, 51, 64
13, 62400, Note_on_c, 9, 35, 70
13, 62400, Note_on_c, 9, 51, 70
13, 62450, Note_off_c, 9, 51, 64
13, 62450, Note_off_c, 9, 35, 64
13, 62640, Note_on_c, 9, 42, 90
13, 62640, Note_on_c, 9, 37, 60
13, 62640, Note_on_c, 9, 51, 90
13, 62690, Note_off_c, 9, 51, 64
13, 62690, Note_off_c, 9, 37, 64
13, 62690, Note_off_c, 9, 42, 64
13, 62816, Note_on_c, 9, 38, 50
13, 62816, Note_on_c, 9, 51, 70
13, 62866, Note_off_c, 9, 51, 64
13, 62866, Note_off_c, 9, 38, 64
13, 62880, Note_on_c, 9, 51, 80
13, 62930, Note_off_c, 9, 51, 64
13, 63056, Note_on_c, 9, 38, 60
13, 63106, Note_off_c, 9, 38, 64
13, 63120, Note_on_c, 9, 42, 100
13, 63120, Note_on_c, 9, 37, 100
13, 63120, Note_on_c, 9, 51, 90
13, 63170, Note_off_c, 9, 51, 64
13, 63170, Note_off_c, 9, 37, 64
13, 63170, Note_off_c, 9, 42, 64
13, 63296, Note_on_c, 9, 35, 60
13, 63296, Note_on_c, 9, 38, 70
13, 63296, Note_on_c, 9, 51, 70
13, 63346, Note_off_c, 9, 51, 64
13, 63346, Note_off_c, 9, 38, 64
13, 63346, Note_off_c, 9, 35, 64
13, 63360, Note_on_c, 9, 35, 60
13, 63360, Note_on_c, 9, 42, 70
13, 63410, Note_off_c, 9, 42, 64
13, 63410, Note_off_c, 9, 35, 64
13, 63600, Note_on_c, 9, 42, 80
13, 63600, Note_on_c, 9, 37, 70
13, 63650, Note_off_c, 9, 37, 64
13, 63650, Note_off_c, 9, 42, 64
13, 63776, Note_on_c, 9, 42, 40
13, 63826, Note_off_c, 9, 42, 64
13, 63840, Note_on_c, 9, 35, 60
13, 63840, Note_on_c, 9, 42, 80
13, 63890, Note_off_c, 9, 42, 64
13, 63890, Note_off_c, 9, 35, 64
13, 64080, Note_on_c, 9, 42, 80
13, 64080, Note_on_c, 9, 37, 80
13, 64130, Note_off_c, 9, 37, 64
13, 64130, Note_off_c, 9, 42, 64
13, 64256, Note_on_c, 9, 42, 50
13, 64306, Note_off_c, 9, 42, 64
13, 64320, Note_on_c, 9, 35, 60
13, 64320, Note_on_c, 9, 42, 80
13, 64370, Note_off_c, 9, 42, 64
13, 64370, Note_off_c, 9, 35, 64
13, 64560, Note_on_c, 9, 42, 90
13, 64560, Note_on_c, 9, 37, 70
13, 64610, Note_off_c, 9, 37, 64
13, 64610, Note_off_c, 9, 42, 64
13, 64736, Note_on_c, 9, 42, 40
13, 64786, Note_off_c, 9, 42, 64
13, 64800, Note_on_c, 9, 35, 60
13, 64800, Note_on_c, 9, 42, 80
13, 64850, Note_off_c, 9, 42, 64
13, 64850, Note_off_c, 9, 35, 64
13, 65040, Note_on_c, 9, 42, 90
13, 65040, Note_on_c, 9, 37, 83
13, 65090, Note_off_c, 9, 37, 64
13, 65090, Note_off_c, 9, 42, 64
13, 65216, Note_on_c, 9, 42, 50
13, 65266, Note_off_c, 9, 42, 64
13, 65280, Note_on_c, 9, 35, 60
13, 65280, Note_on_c, 9, 42, 80
13, 65330, Note_off_c, 9, 42, 64
13, 65330, Note_off_c, 9, 35, 64
13, 65520, Note_on_c, 9, 42, 90
13, 65520, Note_on_c, 9, 37, 70
13, 65570, Note_off_c, 9, 37, 64
13, 65570, Note_off_c, 9, 42, 64
13, 65694, Note_on_c, 9, 42, 40
13, 65744, Note_off_c, 9, 42, 64
13, 65760, Note_on_c, 9, 35, 60
13, 65760, Note_on_c, 9, 42, 80
13, 65810, Note_off_c, 9, 42, 64
13, 65810, Note_off_c, 9, 35, 64
13, 66000, Note_on_c, 9, 42, 90
13, 66000, Note_on_c, 9, 37, 85
13, 66050, Note_off_c, 9, 37, 64
13, 66050, Note_off_c, 9, 42, 64
13, 66174, Note_on_c, 9, 42, 50
13, 66224, Note_off_c, 9, 42, 64
13, 66240, Note_on_c, 9, 35, 60
13, 66240, Note_on_c, 9, 42, 80
13, 66290, Note_off_c, 9, 42, 64
13, 66290, Note_off_c, 9, 35, 64
13, 66480, Note_on_c, 9, 42, 90
13, 66480, Note_on_c, 9, 37, 70
13, 66530, Note_off_c, 9, 37, 64
13, 66530, Note_off_c, 9, 42, 64
13, 66652, Note_on_c, 9, 42, 40
13, 66702, Note_off_c, 9, 42, 64
13, 66720, Note_on_c, 9, 35, 60
13, 66720, Note_on_c, 9, 42, 80
13, 66770, Note_off_c, 9, 42, 64
13, 66770, Note_off_c, 9, 35, 64
13, 66892, Note_on_c, 9, 38, 50
13, 66942, Note_off_c, 9, 38, 64
13, 66960, Note_on_c, 9, 35, 80
13, 66960, Note_on_c, 9, 38, 60
13, 66960, Note_on_c, 9, 42, 90
13, 66960, Note_on_c, 9, 37, 85
13, 67010, Note_off_c, 9, 37, 64
13, 67010, Note_off_c, 9, 42, 64
13, 67010, Note_off_c, 9, 38, 64
13, 67010, Note_off_c, 9, 35, 64
13, 67132, Note_on_c, 9, 42, 50
13, 67182, Note_off_c, 9, 42, 64
13, 67200, Note_on_c, 9, 35, 60
13, 67200, Note_on_c, 9, 46, 54
13, 67250, Note_off_c, 9, 46, 64
13, 67250, Note_off_c, 9, 35, 64
13, 67440, Note_on_c, 9, 42, 70
13, 67440, Note_on_c, 9, 37, 80
13, 67490, Note_off_c, 9, 37, 64
13, 67490, Note_off_c, 9, 42, 64
13, 67612, Note_on_c, 9, 42, 40
13, 67662, Note_off_c, 9, 42, 64
13, 67680, Note_on_c, 9, 35, 60
13, 67680, Note_on_c, 9, 42, 80
13, 67730, Note_off_c, 9, 42, 64
13, 67730, Note_off_c, 9, 35, 64
13, 67920, Note_on_c, 9, 35, 60
13, 67920, Note_on_c, 9, 42, 80
13, 67970, Note_off_c, 9, 42, 64
13, 67970, Note_off_c, 9, 35, 64
13, 68092, Note_on_c, 9, 42, 50
13, 68142, Note_off_c, 9, 42, 64
13, 68160, Note_on_c, 9, 35, 60
13, 68160, Note_on_c, 9, 42, 70
13, 68210, Note_off_c, 9, 42, 64
13, 68210, Note_off_c, 9, 35, 64
13, 68400, Note_on_c, 9, 42, 80
13, 68400, Note_on_c, 9, 37, 70
13, 68450, Note_off_c, 9, 37, 64
13, 68450, Note_off_c, 9, 42, 64
13, 68576, Note_on_c, 9, 42, 40
13, 68626, Note_off_c, 9, 42, 64
13, 68640, Note_on_c, 9, 35, 60
13, 68640, Note_on_c, 9, 42, 80
13, 68690, Note_off_c, 9, 42, 64
13, 68690, Note_off_c, 9, 35, 64
13, 68880, Note_on_c, 9, 42, 80
13, 68880, Note_on_c, 9, 37, 80
13, 68930, Note_off_c, 9, 37, 64
13, 68930, Note_off_c, 9, 42, 64
13, 69056, Note_on_c, 9, 42, 50
13, 69106, Note_off_c, 9, 42, 64
13, 69120, Note_on_c, 9, 35, 60
13, 69120, Note_on_c, 9, 42, 70
13, 69170, Note_off_c, 9, 42, 64
13, 69170, Note_off_c, 9, 35, 64
13, 69360, Note_on_c, 9, 42, 90
13, 69360, Note_on_c, 9, 37, 80
13, 69410, Note_off_c, 9, 37, 64
13, 69410, Note_off_c, 9, 42, 64
13, 69532, Note_on_c, 9, 42, 40
13, 69582, Note_off_c, 9, 42, 64
13, 69600, Note_on_c, 9, 35, 60
13, 69600, Note_on_c, 9, 42, 70
13, 69650, Note_off_c, 9, 42, 64
13, 69650, Note_off_c, 9, 35, 64
13, 69840, Note_on_c, 9, 42, 90
13, 69840, Note_on_c, 9, 37, 78
13, 69890, Note_off_c, 9, 37, 64
13, 69890, Note_off_c, 9, 42, 64
13, 70012, Note_on_c, 9, 42, 50
13, 70062, Note_off_c, 9, 42, 64
13, 70080, Note_on_c, 9, 35, 60
13, 70080, Note_on_c, 9, 42, 70
13, 70130, Note_off_c, 9, 42, 64
13, 70130, Note_off_c, 9, 35, 64
13, 70320, Note_on_c, 9, 42, 70
13, 70320, Note_on_c, 9, 37, 80
13, 70370, Note_off_c, 9, 37, 64
13, 70370, Note_off_c, 9, 42, 64
13, 70492, Note_on_c, 9, 42, 40
13, 70542, Note_off_c, 9, 42, 64
13, 70560, Note_on_c, 9, 35, 60
13, 70560, Note_on_c, 9, 42, 80
13, 70610, Note_off_c, 9, 42, 64
13, 70610, Note_off_c, 9, 35, 64
13, 70800, Note_on_c, 9, 35, 60
13, 70800, Note_on_c, 9, 42, 80
13, 70850, Note_off_c, 9, 42, 64
13, 70850, Note_off_c, 9, 35, 64
13, 70972, Note_on_c, 9, 42, 50
13, 71022, Note_off_c, 9, 42, 64
13, 71040, Note_on_c, 9, 46, 54
13, 71090, Note_off_c, 9, 46, 64
13, 71280, Note_on_c, 9, 42, 70
13, 71280, Note_on_c, 9, 37, 80
13, 71330, Note_off_c, 9, 37, 64
13, 71330, Note_off_c, 9, 42, 64
13, 71452, Note_on_c, 9, 42, 40
13, 71502, Note_off_c, 9, 42, 64
13, 71520, Note_on_c, 9, 35, 60
13, 71520, Note_on_c, 9, 42, 80
13, 71570, Note_off_c, 9, 42, 64
13, 71570, Note_off_c, 9, 35, 64
13, 71760, Note_on_c, 9, 35, 60
13, 71760, Note_on_c, 9, 42, 80
13, 71810, Note_off_c, 9, 42, 64
13, 71810, Note_off_c, 9, 35, 64
13, 71932, Note_on_c, 9, 42, 50
13, 71982, Note_off_c, 9, 42, 64
13, 72000, Note_on_c, 9, 35, 60
13, 72000, Note_on_c, 9, 42, 70
13, 72050, Note_off_c, 9, 42, 64
13, 72050, Note_off_c, 9, 35, 64
13, 72240, Note_on_c, 9, 42, 90
13, 72240, Note_on_c, 9, 37, 70
13, 72290, Note_off_c, 9, 37, 64
13, 72290, Note_off_c, 9, 42, 64
13, 72416, Note_on_c, 9, 42, 40
13, 72466, Note_off_c, 9, 42, 64
13, 72480, Note_on_c, 9, 35, 60
13, 72480, Note_on_c, 9, 42, 80
13, 72530, Note_off_c, 9, 42, 64
13, 72530, Note_off_c, 9, 35, 64
13, 72720, Note_on_c, 9, 42, 90
13, 72720, Note_on_c, 9, 37, 80
13, 72770, Note_off_c, 9, 37, 64
13, 72770, Note_off_c, 9, 42, 64
13, 72896, Note_on_c, 9, 42, 50
13, 72946, Note_off_c, 9, 42, 64
13, 72960, Note_on_c, 9, 35, 60
13, 72960, Note_on_c, 9, 42, 70
13, 73010, Note_off_c, 9, 42, 64
13, 73010, Note_off_c, 9, 35, 64
13, 73200, Note_on_c, 9, 42, 80
13, 73200, Note_on_c, 9, 37, 70
13, 73250, Note_off_c, 9, 37, 64
13, 73250, Note_off_c, 9, 42, 64
13, 73376, Note_on_c, 9, 42, 40
13, 73426, Note_off_c, 9, 42, 64
13, 73440, Note_on_c, 9, 35, 60
13, 73440, Note_on_c, 9, 42, 80
13, 73490, Note_off_c, 9, 42, 64
13, 73490, Note_off_c, 9, 35, 64
13, 73680, Note_on_c, 9, 42, 80
13, 73680, Note_on_c, 9, 37, 80
13, 73730, Note_off_c, 9, 37, 64
13, 73730, Note_off_c, 9, 42, 64
13, 73856, Note_on_c, 9, 42, 50
13, 73906, Note_off_c, 9, 42, 64
13, 73920, Note_on_c, 9, 35, 60
13, 73920, Note_on_c, 9, 42, 80
13, 73970, Note_off_c, 9, 42, 64
13, 73970, Note_off_c, 9, 35, 64
13, 74160, Note_on_c, 9, 42, 90
13, 74160, Note_on_c, 9, 37, 70
13, 74210, Note_off_c, 9, 37, 64
13, 74210, Note_off_c, 9, 42, 64
13, 74334, Note_on_c, 9, 42, 40
13, 74384, Note_off_c, 9, 42, 64
13, 74400, Note_on_c, 9, 35, 60
13, 74400, Note_on_c, 9, 42, 80
13, 74450, Note_off_c, 9, 42, 64
13, 74450, Note_off_c, 9, 35, 64
13, 74574, Note_on_c, 9, 37, 90
13, 74624, Note_off_c, 9, 37, 64
13, 74640, Note_on_c, 9, 42, 90
13, 74690, Note_off_c, 9, 42, 64
13, 74814, Note_on_c, 9, 35, 50
13, 74814, Note_on_c, 9, 42, 50
13, 74864, Note_off_c, 9, 42, 64
13, 74864, Note_off_c, 9, 35, 64
13, 74880, Note_on_c, 9, 35, 60
13, 74880, Note_on_c, 9, 42, 70
13, 74930, Note_off_c, 9, 42, 64
13, 74930, Note_off_c, 9, 35, 64
13, 75120, Note_on_c, 9, 42, 90
13, 75120, Note_on_c, 9, 37, 70
13, 75170, Note_off_c, 9, 37, 64
13, 75170, Note_off_c, 9, 42, 64
13, 75296, Note_on_c, 9, 42, 40
13, 75346, Note_off_c, 9, 42, 64
13, 75360, Note_on_c, 9, 35, 60
13, 75360, Note_on_c, 9, 42, 80
13, 75410, Note_off_c, 9, 42, 64
13, 75410, Note_off_c, 9, 35, 64
13, 75600, Note_on_c, 9, 42, 90
13, 75600, Note_on_c, 9, 37, 80
13, 75650, Note_off_c, 9, 37, 64
13, 75650, Note_off_c, 9, 42, 64
13, 75776, Note_on_c, 9, 42, 50
13, 75826, Note_off_c, 9, 42, 64
13, 75840, Note_on_c, 9, 35, 60
13, 75840, Note_on_c, 9, 42, 70
13, 75890, Note_off_c, 9, 42, 64
13, 75890, Note_off_c, 9, 35, 64
13, 76080, Note_on_c, 9, 42, 90
13, 76080, Note_on_c, 9, 37, 80
13, 76130, Note_off_c, 9, 37, 64
13, 76130, Note_off_c, 9, 42, 64
13, 76252, Note_on_c, 9, 42, 40
13, 76302, Note_off_c, 9, 42, 64
13, 76320, Note_on_c, 9, 35, 60
13, 76320, Note_on_c, 9, 42, 70
13, 76370, Note_off_c, 9, 42, 64
13, 76370, Note_off_c, 9, 35, 64
13, 76560, Note_on_c, 9, 42, 90
13, 76560, Note_on_c, 9, 37, 78
13, 76610, Note_off_c, 9, 37, 64
13, 76610, Note_off_c, 9, 42, 64
13, 76732, Note_on_c, 9, 42, 50
13, 76782, Note_off_c, 9, 42, 64
13, 76800, Note_on_c, 9, 35, 60
13, 76800, Note_on_c, 9, 42, 70
13, 76850, Note_off_c, 9, 42, 64
13, 76850, Note_off_c, 9, 35, 64
13, 77040, Note_on_c, 9, 42, 70
13, 77040, Note_on_c, 9, 37, 80
13, 77090, Note_off_c, 9, 37, 64
13, 77090, Note_off_c, 9, 42, 64
13, 77212, Note_on_c, 9, 42, 40
13, 77262, Note_off_c, 9, 42, 64
13, 77280, Note_on_c, 9, 35, 60
13, 77280, Note_on_c, 9, 42, 80
13, 77330, Note_off_c, 9, 42, 64
13, 77330, Note_off_c, 9, 35, 64
13, 77520, Note_on_c, 9, 35, 60
13, 77520, Note_on_c, 9, 42, 80
13, 77570, Note_off_c, 9, 42, 64
13, 77570, Note_off_c, 9, 35, 64
13, 77692, Note_on_c, 9, 42, 50
13, 77742, Note_off_c, 9, 42, 64
13, 77760, Note_on_c, 9, 35, 60
13, 77760, Note_on_c, 9, 42, 80
13, 77810, Note_off_c, 9, 42, 64
13, 77810, Note_off_c, 9, 35, 64
13, 78000, Note_on_c, 9, 42, 90
13, 78000, Note_on_c, 9, 37, 70
13, 78050, Note_off_c, 9, 37, 64
13, 78050, Note_off_c, 9, 42, 64
13, 78174, Note_on_c, 9, 42, 50
13, 78224, Note_off_c, 9, 42, 64
13, 78240, Note_on_c, 9, 42, 80
13, 78290, Note_off_c, 9, 42, 64
13, 78414, Note_on_c, 9, 38, 30
13, 78464, Note_off_c, 9, 38, 64
13, 78480, Note_on_c, 9, 38, 55
13, 78480, Note_on_c, 9, 42, 90
13, 78480, Note_on_c, 9, 37, 85
13, 78530, Note_off_c, 9, 37, 64
13, 78530, Note_off_c, 9, 42, 64
13, 78530, Note_off_c, 9, 38, 64
13, 78654, Note_on_c, 9, 42, 50
13, 78704, Note_off_c, 9, 42, 64
13, 78720, Note_on_c, 9, 38, 50
13, 78770, Note_off_c, 9, 38, 64
13, 78960, Note_on_c, 9, 42, 80
13, 78960, Note_on_c, 9, 37, 70
13, 78960, Note_on_c, 9, 51, 90
13, 79010, Note_off_c, 9, 51, 64
13, 79010, Note_off_c, 9, 37, 64
13, 79010, Note_off_c, 9, 42, 64
13, 79134, Note_on_c, 9, 51, 70
13, 79184, Note_off_c, 9, 51, 64
13, 79200, Note_on_c, 9, 38, 40
13, 79200, Note_on_c, 9, 51, 70
13, 79250, Note_off_c, 9, 51, 64
13, 79250, Note_off_c, 9, 38, 64
13, 79440, Note_on_c, 9, 42, 100
13, 79440, Note_on_c, 9, 37, 70
13, 79440, Note_on_c, 9, 51, 90
13, 79490, Note_off_c, 9, 51, 64
13, 79490, Note_off_c, 9, 37, 64
13, 79490, Note_off_c, 9, 42, 64
13, 79614, Note_on_c, 9, 51, 70
13, 79664, Note_off_c, 9, 51, 64
13, 79680, Note_on_c, 9, 51, 80
13, 79730, Note_off_c, 9, 51, 64
13, 79920, Note_on_c, 9, 42, 70
13, 79920, Note_on_c, 9, 37, 70
13, 79920, Note_on_c, 9, 51, 90
13, 79970, Note_off_c, 9, 51, 64
13, 79970, Note_off_c, 9, 37, 64
13, 79970, Note_off_c, 9, 42, 64
13, 80094, Note_on_c, 9, 51, 70
13, 80144, Note_off_c, 9, 51, 64
13, 80160, Note_on_c, 9, 51, 90
13, 80210, Note_off_c, 9, 51, 64
13, 80400, Note_on_c, 9, 42, 100
13, 80400, Note_on_c, 9, 51, 90
13, 80450, Note_off_c, 9, 51, 64
13, 80450, Note_off_c, 9, 42, 64
13, 80574, Note_on_c, 9, 51, 70
13, 80624, Note_off_c, 9, 51, 64
13, 80640, Note_on_c, 9, 51, 70
13, 80690, Note_off_c, 9, 51, 64
13, 80880, Note_on_c, 9, 42, 90
13, 80880, Note_on_c, 9, 37, 60
13, 80880, Note_on_c, 9, 51, 90
13, 80930, Note_off_c, 9, 51, 64
13, 80930, Note_off_c, 9, 37, 64
13, 80930, Note_off_c, 9, 42, 64
13, 81056, Note_on_c, 9, 38, 40
13, 81056, Note_on_c, 9, 51, 70
13, 81106, Note_off_c, 9, 51, 64
13, 81106, Note_off_c, 9, 38, 64
13, 81120, Note_on_c, 9, 51, 80
13, 81170, Note_off_c, 9, 51, 64
13, 81296, Note_on_c, 9, 38, 50
13, 81346, Note_off_c, 9, 38, 64
13, 81360, Note_on_c, 9, 42, 100
13, 81360, Note_on_c, 9, 37, 70
13, 81360, Note_on_c, 9, 51, 90
13, 81410, Note_off_c, 9, 51, 64
13, 81410, Note_off_c, 9, 37, 64
13, 81410, Note_off_c, 9, 42, 64
13, 81536, Note_on_c, 9, 51, 70
13, 81586, Note_off_c, 9, 51, 64
13, 81600, Note_on_c, 9, 51, 80
13, 81650, Note_off_c, 9, 51, 64
13, 81840, Note_on_c, 9, 42, 70
13, 81840, Note_on_c, 9, 37, 70
13, 81840, Note_on_c, 9, 51, 90
13, 81890, Note_off_c, 9, 51, 64
13, 81890, Note_off_c, 9, 37, 64
13, 81890, Note_off_c, 9, 42, 64
13, 82014, Note_on_c, 9, 51, 70
13, 82064, Note_off_c, 9, 51, 64
13, 82080, Note_on_c, 9, 51, 90
13, 82130, Note_off_c, 9, 51, 64
13, 82320, Note_on_c, 9, 42, 100
13, 82320, Note_on_c, 9, 51, 90
13, 82370, Note_off_c, 9, 51, 64
13, 82370, Note_off_c, 9, 42, 64
13, 82494, Note_on_c, 9, 51, 70
13, 82544, Note_off_c, 9, 51, 64
13, 82560, Note_on_c, 9, 51, 80
13, 82610, Note_off_c, 9, 51, 64
13, 82800, Note_on_c, 9, 42, 80
13, 82800, Note_on_c, 9, 37, 70
13, 82800, Note_on_c, 9, 51, 90
13, 82850, Note_off_c, 9, 51, 64
13, 82850, Note_off_c, 9, 37, 64
13, 82850, Note_off_c, 9, 42, 64
13, 82976, Note_on_c, 9, 38, 30
13, 82976, Note_on_c, 9, 51, 70
13, 83026, Note_off_c, 9, 51, 64
13, 83026, Note_off_c, 9, 38, 64
13, 83040, Note_on_c, 9, 38, 40
13, 83040, Note_on_c, 9, 51, 80
13, 83090, Note_off_c, 9, 51, 64
13, 83090, Note_off_c, 9, 38, 64
13, 83280, Note_on_c, 9, 42, 100
13, 83280, Note_on_c, 9, 37, 70
13, 83280, Note_on_c, 9, 51, 90
13, 83330, Note_off_c, 9, 51, 64
13, 83330, Note_off_c, 9, 37, 64
13, 83330, Note_off_c, 9, 42, 64
13, 83456, Note_on_c, 9, 51, 70
13, 83506, Note_off_c, 9, 51, 64
13, 83520, Note_on_c, 9, 51, 80
13, 83570, Note_off_c, 9, 51, 64
13, 83760, Note_on_c, 9, 42, 70
13, 83760, Note_on_c, 9, 37, 70
13, 83760, Note_on_c, 9, 51, 90
13, 83810, Note_off_c, 9, 51, 64
13, 83810, Note_off_c, 9, 37, 64
13, 83810, Note_off_c, 9, 42, 64
13, 83934, Note_on_c, 9, 51, 70
13, 83984, Note_off_c, 9, 51, 64
13, 84000, Note_on_c, 9, 51, 90
13, 84050, Note_off_c, 9, 51, 64
13, 84240, Note_on_c, 9, 42, 100
13, 84240, Note_on_c, 9, 51, 90
13, 84290, Note_off_c, 9, 51, 64
13, 84290, Note_off_c, 9, 42, 64
13, 84414, Note_on_c, 9, 51, 70
13, 84464, Note_off_c, 9, 51, 64
13, 84480, Note_on_c, 9, 51, 70
13, 84530, Note_off_c, 9, 51, 64
13, 84720, Note_on_c, 9, 42, 100
13, 84720, Note_on_c, 9, 37, 70
13, 84720, Note_on_c, 9, 51, 90
13, 84770, Note_off_c, 9, 51, 64
13, 84770, Note_off_c, 9, 37, 64
13, 84770, Note_off_c, 9, 42, 64
13, 84894, Note_on_c, 9, 38, 40
13, 84894, Note_on_c, 9, 51, 50
13, 84944, Note_off_c, 9, 51, 64
13, 84944, Note_off_c, 9, 38, 64
13, 84960, Note_on_c, 9, 51, 80
13, 85010, Note_off_c, 9, 51, 64
13, 85200, Note_on_c, 9, 42, 100
13, 85200, Note_on_c, 9, 37, 70
13, 85200, Note_on_c, 9, 51, 90
13, 85250, Note_off_c, 9, 51, 64
13, 85250, Note_off_c, 9, 37, 64
13, 85250, Note_off_c, 9, 42, 64
13, 85374, Note_on_c, 9, 38, 40
13, 85374, Note_on_c, 9, 51, 50
13, 85424, Note_off_c, 9, 51, 64
13, 85424, Note_off_c, 9, 38, 64
13, 85440, Note_on_c, 9, 51, 80
13, 85490, Note_off_c, 9, 51, 64
13, 85680, Note_on_c, 9, 42, 80
13, 85680, Note_on_c, 9, 37, 70
13, 85680, Note_on_c, 9, 51, 90
13, 85730, Note_off_c, 9, 51, 64
13, 85730, Note_off_c, 9, 37, 64
13, 85730, Note_off_c, 9, 42, 64
13, 85856, Note_on_c, 9, 51, 70
13, 85906, Note_off_c, 9, 51, 64
13, 85920, Note_on_c, 9, 38, 40
13, 85920, Note_on_c, 9, 51, 80
13, 85970, Note_off_c, 9, 51, 64
13, 85970, Note_off_c, 9, 38, 64
13, 86096, Note_on_c, 9, 38, 40
13, 86146, Note_off_c, 9, 38, 64
13, 86160, Note_on_c, 9, 42, 100
13, 86160, Note_on_c, 9, 37, 70
13, 86160, Note_on_c, 9, 51, 90
13, 86210, Note_off_c, 9, 51, 64
13, 86210, Note_off_c, 9, 37, 64
13, 86210, Note_off_c, 9, 42, 64
13, 86336, Note_on_c, 9, 51, 70
13, 86386, Note_off_c, 9, 51, 64
13, 86400, Note_on_c, 9, 51, 70
13, 86450, Note_off_c, 9, 51, 64
13, 86576, Note_on_c, 9, 38, 60
13, 86626, Note_off_c, 9, 38, 64
13, 86640, Note_on_c, 9, 42, 90
13, 86640, Note_on_c, 9, 37, 60
13, 86640, Note_on_c, 9, 51, 90
13, 86690, Note_off_c, 9, 51, 64
13, 86690, Note_off_c, 9, 37, 64
13, 86690, Note_off_c, 9, 42, 64
13, 86816, Note_on_c, 9, 38, 40
13, 86816, Note_on_c, 9, 51, 70
13, 86866, Note_off_c, 9, 51, 64
13, 86866, Note_off_c, 9, 38, 64
13, 86880, Note_on_c, 9, 51, 80
13, 86930, Note_off_c, 9, 51, 64
13, 87120, Note_on_c, 9, 42, 100
13, 87120, Note_on_c, 9, 37, 70
13, 87120, Note_on_c, 9, 51, 90
13, 87170, Note_off_c, 9, 51, 64
13, 87170, Note_off_c, 9, 37, 64
13, 87170, Note_off_c, 9, 42, 64
13, 87296, Note_on_c, 9, 51, 70
13, 87346, Note_off_c, 9, 51, 64
13, 87360, Note_on_c, 9, 51, 80
13, 87410, Note_off_c, 9, 51, 64
13, 87600, Note_on_c, 9, 42, 70
13, 87600, Note_on_c, 9, 37, 70
13, 87600, Note_on_c, 9, 51, 90
13, 87650, Note_off_c, 9, 51, 64
13, 87650, Note_off_c, 9, 37, 64
13, 87650, Note_off_c, 9, 42, 64
13, 87774, Note_on_c, 9, 51, 70
13, 87824, Note_off_c, 9, 51, 64
13, 87840, Note_on_c, 9, 51, 90
13, 87890, Note_off_c, 9, 51, 64
13, 88080, Note_on_c, 9, 42, 100
13, 88080, Note_on_c, 9, 51, 90
13, 88130, Note_off_c, 9, 51, 64
13, 88130, Note_off_c, 9, 42, 64
13, 88254, Note_on_c, 9, 51, 70
13, 88304, Note_off_c, 9, 51, 64
13, 88320, Note_on_c, 9, 51, 70
13, 88370, Note_off_c, 9, 51, 64
13, 88560, Note_on_c, 9, 42, 90
13, 88560, Note_on_c, 9, 37, 60
13, 88560, Note_on_c, 9, 51, 90
13, 88610, Note_off_c, 9, 51, 64
13, 88610, Note_off_c, 9, 37, 64
13, 88610, Note_off_c, 9, 42, 64
13, 88736, Note_on_c, 9, 38, 40
13, 88736, Note_on_c, 9, 51, 70
13, 88786, Note_off_c, 9, 51, 64
13, 88786, Note_off_c, 9, 38, 64
13, 88800, Note_on_c, 9, 51, 80
13, 88850, Note_off_c, 9, 51, 64
13, 89040, Note_on_c, 9, 42, 100
13, 89040, Note_on_c, 9, 37, 70
13, 89040, Note_on_c, 9, 51, 90
13, 89090, Note_off_c, 9, 51, 64
13, 89090, Note_off_c, 9, 37, 64
13, 89090, Note_off_c, 9, 42, 64
13, 89216, Note_on_c, 9, 51, 70
13, 89266, Note_off_c, 9, 51, 64
13, 89280, Note_on_c, 9, 51, 80
13, 89330, Note_off_c, 9, 51, 64
13, 89520, Note_on_c, 9, 42, 80
13, 89520, Note_on_c, 9, 37, 70
13, 89520, Note_on_c, 9, 51, 90
13, 89570, Note_off_c, 9, 51, 64
13, 89570, Note_off_c, 9, 37, 64
13, 89570, Note_off_c, 9, 42, 64
13, 89696, Note_on_c, 9, 38, 30
13, 89696, Note_on_c, 9, 51, 70
13, 89746, Note_off_c, 9, 51, 64
13, 89746, Note_off_c, 9, 38, 64
13, 89760, Note_on_c, 9, 38, 40
13, 89760, Note_on_c, 9, 51, 80
13, 89810, Note_off_c, 9, 51, 64
13, 89810, Note_off_c, 9, 38, 64
13, 90000, Note_on_c, 9, 42, 100
13, 90000, Note_on_c, 9, 37, 70
13, 90000, Note_on_c, 9, 51, 90
13, 90050, Note_off_c, 9, 51, 64
13, 90050, Note_off_c, 9, 37, 64
13, 90050, Note_off_c, 9, 42, 64
13, 90176, Note_on_c, 9, 51, 70
13, 90226, Note_off_c, 9, 51, 64
13, 90240, Note_on_c, 9, 51, 70
13, 90290, Note_off_c, 9, 51, 64
13, 90480, Note_on_c, 9, 42, 100
13, 90480, Note_on_c, 9, 37, 70
13, 90480, Note_on_c, 9, 51, 90
13, 90530, Note_off_c, 9, 51, 64
13, 90530, Note_off_c, 9, 37, 64
13, 90530, Note_off_c, 9, 42, 64
13, 90654, Note_on_c, 9, 38, 40
13, 90654, Note_on_c, 9, 51, 50
13, 90704, Note_off_c, 9, 51, 64
13, 90704, Note_off_c, 9, 38, 64
13, 90720, Note_on_c, 9, 51, 80
13, 90770, Note_off_c, 9, 51, 64
13, 90960, Note_on_c, 9, 42, 100
13, 90960, Note_on_c, 9, 37, 70
13, 90960, Note_on_c, 9, 51, 90
13, 91010, Note_off_c, 9, 51, 64
13, 91010, Note_off_c, 9, 37, 64
13, 91010, Note_off_c, 9, 42, 64
13, 91134, Note_on_c, 9, 38, 40
13, 91134, Note_on_c, 9, 51, 50
13, 91184, Note_off_c, 9, 51, 64
13, 91184, Note_off_c, 9, 38, 64
13, 91200, Note_on_c, 9, 51, 80
13, 91250, Note_off_c, 9, 51, 64
13, 91440, Note_on_c, 9, 42, 80
13, 91440, Note_on_c, 9, 37, 70
13, 91440, Note_on_c, 9, 51, 90
13, 91490, Note_off_c, 9, 51, 64
13, 91490, Note_off_c, 9, 37, 64
13, 91490, Note_off_c, 9, 42, 64
13, 91616, Note_on_c, 9, 51, 70
13, 91666, Note_off_c, 9, 51, 64
13, 91680, Note_on_c, 9, 38, 40
13, 91680, Note_on_c, 9, 51, 80
13, 91730, Note_off_c, 9, 51, 64
13, 91730, Note_off_c, 9, 38, 64
13, 91920, Note_on_c, 9, 42, 100
13, 91920, Note_on_c, 9, 37, 70
13, 91920, Note_on_c, 9, 51, 90
13, 91970, Note_off_c, 9, 51, 64
13, 91970, Note_off_c, 9, 37, 64
13, 91970, Note_off_c, 9, 42, 64
13, 92096, Note_on_c, 9, 51, 70
13, 92146, Note_off_c, 9, 51, 64
13, 92160, Note_on_c, 9, 51, 80
13, 92210, Note_off_c, 9, 51, 64
13, 92400, Note_on_c, 9, 42, 80
13, 92400, Note_on_c, 9, 37, 70
13, 92400, Note_on_c, 9, 51, 90
13, 92450, Note_off_c, 9, 51, 64
13, 92450, Note_off_c, 9, 37, 64
13, 92450, Note_off_c, 9, 42, 64
13, 92576, Note_on_c, 9, 51, 70
13, 92626, Note_off_c, 9, 51, 64
13, 92640, Note_on_c, 9, 38, 40
13, 92640, Note_on_c, 9, 51, 80
13, 92690, Note_off_c, 9, 51, 64
13, 92690, Note_off_c, 9, 38, 64
13, 92880, Note_on_c, 9, 42, 100
13, 92880, Note_on_c, 9, 37, 70
13, 92880, Note_on_c, 9, 51, 90
13, 92930, Note_off_c, 9, 51, 64
13, 92930, Note_off_c, 9, 37, 64
13, 92930, Note_off_c, 9, 42, 64
13, 93056, Note_on_c, 9, 51, 70
13, 93106, Note_off_c, 9, 51, 64
13, 93120, Note_on_c, 9, 35, 70
13, 93120, Note_on_c, 9, 51, 70
13, 93170, Note_off_c, 9, 51, 64
13, 93170, Note_off_c, 9, 35, 64
13, 93360, Note_on_c, 9, 42, 90
13, 93360, Note_on_c, 9, 37, 60
13, 93360, Note_on_c, 9, 51, 90
13, 93410, Note_off_c, 9, 51, 64
13, 93410, Note_off_c, 9, 37, 64
13, 93410, Note_off_c, 9, 42, 64
13, 93536, Note_on_c, 9, 38, 50
13, 93536, Note_on_c, 9, 51, 70
13, 93586, Note_off_c, 9, 51, 64
13, 93586, Note_off_c, 9, 38, 64
13, 93600, Note_on_c, 9, 51, 80
13, 93650, Note_off_c, 9, 51, 64
13, 93776, Note_on_c, 9, 38, 60
13, 93776, Note_on_c, 9, 46, 40
13, 93826, Note_off_c, 9, 46, 64
13, 93826, Note_off_c, 9, 38, 64
13, 93840, Note_on_c, 9, 42, 100
13, 93840, Note_on_c, 9, 37, 100
13, 93840, Note_on_c, 9, 51, 90
13, 93890, Note_off_c, 9, 51, 64
13, 93890, Note_off_c, 9, 37, 64
13, 93890, Note_off_c, 9, 42, 64
13, 94016, Note_on_c, 9, 38, 70
13, 94016, Note_on_c, 9, 51, 70
13, 94066, Note_off_c, 9, 51, 64
13, 94066, Note_off_c, 9, 38, 64
13, 94080, Note_on_c, 9, 35, 60
13, 94080, Note_on_c, 9, 49, 40
13, 94130, Note_off_c, 9, 49, 64
13, 94130, Note_off_c, 9, 35, 64
13, 94252, Note_on_c, 9, 38, 50
13, 94302, Note_off_c, 9, 38, 64
13, 94320, Note_on_c, 9, 42, 80
13, 94370, Note_off_c, 9, 42, 64
13, 94492, Note_on_c, 9, 38, 40
13, 94542, Note_off_c, 9, 38, 64
13, 94560, Note_on_c, 9, 42, 70
13, 94610, Note_off_c, 9, 42, 64
13, 94732, Note_on_c, 9, 38, 60
13, 94782, Note_off_c, 9, 38, 64
13, 94800, Note_on_c, 9, 46, 80
13, 94850, Note_off_c, 9, 46, 64
13, 94880, Note_on_c, 9, 38, 60
13, 94930, Note_off_c, 9, 38, 64
13, 94972, Note_on_c, 9, 38, 50
13, 95022, Note_off_c, 9, 38, 64
13, 95040, Note_on_c, 9, 35, 70
13, 95040, Note_on_c, 9, 38, 70
13, 95090, Note_off_c, 9, 38, 64
13, 95090, Note_off_c, 9, 35, 64
13, 95200, Note_on_c, 9, 38, 30
13, 95250, Note_off_c, 9, 38, 64
13, 95280, Note_on_c, 9, 38, 60
13, 95330, Note_off_c, 9, 38, 64
13, 95440, Note_on_c, 9, 35, 50
13, 95440, Note_on_c, 9, 38, 70
13, 95490, Note_off_c, 9, 38, 64
13, 95490, Note_off_c, 9, 35, 64
13, 95600, Note_on_c, 9, 38, 20
13, 95650, Note_off_c, 9, 38, 64
13, 95680, Note_on_c, 9, 38, 25
13, 95730, Note_off_c, 9, 38, 64
13, 95760, Note_on_c, 9, 35, 80
13, 95760, Note_on_c, 9, 38, 60
13, 95810, Note_off_c, 9, 38, 64
13, 95810, Note_off_c, 9, 35, 64
13, 95810, End_track
14, 0, Start_track
14, 0, End_track
15, 0, Start_track
15, 0, Title_t, "All instr/Roland Sound Canvas"
15, 0, End_track
16, 0, Start_track
16, 0, Title_t, "Freely distrib. / GMidi type 1"
16, 0, End_track
17, 0, Start_track
17, 0, Title_t, "DO NOT attempt to sell this"
17, 0, End_track
18, 0, Start_track
18, 0, Title_t, "copyright tune"
18, 0, End_track
19, 0, Start_track
19, 0, Title_t, "Contact: kmel@powernet.net"
19, 0, End_track
20, 0, Start_track
20, 0, Title_t, "Run time 4:23 / Ez listening"
20, 0, End_track
21, 0, Start_track
21, 0, Title_t, "Jan  7  /  98"
21, 0, End_track
0, 0, End_of_file
