0, 0, Header, 1, 9, 960
1, 0, Start_track
1, 0, Control_c, 0, 101, 0
1, 0, Control_c, 0, 100, 0
1, 0, Control_c, 0, 6, 12
1, 0, Control_c, 0, 38, 0
1, 0, Control_c, 1, 101, 0
1, 0, Control_c, 1, 100, 0
1, 0, Control_c, 1, 6, 12
1, 0, Control_c, 1, 38, 0
1, 0, Control_c, 2, 101, 0
1, 0, Control_c, 2, 100, 0
1, 0, Control_c, 2, 6, 12
1, 0, Control_c, 2, 38, 0
1, 0, Control_c, 3, 101, 0
1, 0, Control_c, 3, 100, 0
1, 0, Control_c, 3, 6, 12
1, 0, Control_c, 3, 38, 0
1, 0, Control_c, 4, 101, 0
1, 0, Control_c, 4, 100, 0
1, 0, Control_c, 4, 6, 12
1, 0, Control_c, 4, 38, 0
1, 0, Control_c, 5, 101, 0
1, 0, Control_c, 5, 100, 0
1, 0, Control_c, 5, 6, 12
1, 0, Control_c, 5, 38, 0
1, 0, Control_c, 6, 101, 0
1, 0, Control_c, 6, 100, 0
1, 0, Control_c, 6, 6, 12
1, 0, Control_c, 6, 38, 0
1, 0, Control_c, 7, 101, 0
1, 0, Control_c, 7, 100, 0
1, 0, Control_c, 7, 6, 12
1, 0, Control_c, 7, 38, 0
1, 0, Control_c, 8, 101, 0
1, 0, Control_c, 8, 100, 0
1, 0, Control_c, 8, 6, 12
1, 0, Control_c, 8, 38, 0
1, 0, Control_c, 9, 101, 0
1, 0, Control_c, 9, 100, 0
1, 0, Control_c, 9, 6, 12
1, 0, Control_c, 9, 38, 0
1, 0, Control_c, 10, 101, 0
1, 0, Control_c, 10, 100, 0
1, 0, Control_c, 10, 6, 12
1, 0, Control_c, 10, 38, 0
1, 0, Control_c, 11, 101, 0
1, 0, Control_c, 11, 100, 0
1, 0, Control_c, 11, 6, 12
1, 0, Control_c, 11, 38, 0
1, 0, Control_c, 12, 101, 0
1, 0, Control_c, 12, 100, 0
1, 0, Control_c, 12, 6, 12
1, 0, Control_c, 12, 38, 0
1, 0, Control_c, 13, 101, 0
1, 0, Control_c, 13, 100, 0
1, 0, Control_c, 13, 6, 12
1, 0, Control_c, 13, 38, 0
1, 0, Control_c, 14, 101, 0
1, 0, Control_c, 14, 100, 0
1, 0, Control_c, 14, 6, 12
1, 0, Control_c, 14, 38, 0
1, 0, Control_c, 15, 101, 0
1, 0, Control_c, 15, 100, 0
1, 0, Control_c, 15, 6, 12
1, 0, Control_c, 15, 38, 0
1, 0, Time_signature, 4, 2, 24, 8
1, 0, Tempo, 750000
1, 11520, Time_signature, 2, 2, 24, 8
1, 13440, Time_signature, 4, 2, 24, 8
1, 28800, Time_signature, 2, 2, 24, 8
1, 30720, Time_signature, 4, 2, 24, 8
1, 46080, Time_signature, 2, 2, 24, 8
1, 48000, Time_signature, 4, 2, 24, 8
1, 63360, Time_signature, 2, 2, 24, 8
1, 65280, Time_signature, 4, 2, 24, 8
1, 80640, Time_signature, 2, 2, 24, 8
1, 82560, Time_signature, 4, 2, 24, 8
1, 97920, Time_signature, 2, 2, 24, 8
1, 99840, Time_signature, 4, 2, 24, 8
1, 122880, Time_signature, 2, 2, 24, 8
1, 124800, Time_signature, 4, 2, 24, 8
1, 140160, Time_signature, 2, 2, 24, 8
1, 142080, Time_signature, 4, 2, 24, 8
1, 157440, Time_signature, 2, 2, 24, 8
1, 159360, Time_signature, 4, 2, 24, 8
1, 186240, Time_signature, 2, 2, 24, 8
1, 188160, Time_signature, 4, 2, 24, 8
1, 203520, Time_signature, 2, 2, 24, 8
1, 205440, Time_signature, 4, 2, 24, 8
1, 220800, Time_signature, 2, 2, 24, 8
1, 222720, Time_signature, 4, 2, 24, 8
1, 226560, Time_signature, 2, 2, 24, 8
1, 228480, Time_signature, 4, 2, 24, 8
1, 228480, End_track
2, 0, Start_track
2, 0, Pitch_bend_c, 4, 8192
2, 0, Control_c, 4, 7, 127
2, 0, Control_c, 4, 10, 79
2, 0, Control_c, 4, 93, 0
2, 0, Control_c, 4, 91, 0
2, 0, Control_c, 4, 95, 0
2, 0, Control_c, 4, 92, 0
2, 0, Control_c, 4, 11, 127
2, 0, Program_c, 4, 65
2, 0, Control_c, 5, 7, 127
2, 0, Control_c, 5, 10, 79
2, 0, Control_c, 5, 93, 0
2, 0, Control_c, 5, 91, 0
2, 0, Control_c, 5, 95, 0
2, 0, Control_c, 5, 92, 0
2, 0, Control_c, 5, 11, 127
2, 0, Program_c, 5, 65
2, 33840, Note_on_c, 4, 61, 95
2, 34080, Note_off_c, 4, 61, 95
2, 34080, Note_on_c, 4, 59, 95
2, 34320, Note_off_c, 4, 59, 95
2, 34320, Note_on_c, 4, 58, 95
2, 34800, Note_off_c, 4, 58, 95
2, 35760, Note_on_c, 4, 61, 95
2, 36000, Note_off_c, 4, 61, 95
2, 36000, Note_on_c, 4, 59, 95
2, 36240, Note_off_c, 4, 59, 95
2, 36240, Note_on_c, 4, 58, 95
2, 36720, Note_off_c, 4, 58, 95
2, 37680, Note_on_c, 4, 61, 95
2, 37920, Note_off_c, 4, 61, 95
2, 37920, Note_on_c, 4, 59, 95
2, 38160, Note_off_c, 4, 59, 95
2, 38160, Note_on_c, 4, 58, 95
2, 38640, Note_off_c, 4, 58, 95
2, 38640, Note_on_c, 4, 58, 95
2, 39120, Note_off_c, 4, 58, 95
2, 39120, Note_on_c, 4, 58, 95
2, 39600, Note_off_c, 4, 58, 95
2, 39600, Note_on_c, 4, 59, 95
2, 39840, Note_off_c, 4, 59, 95
2, 39840, Note_on_c, 4, 61, 95
2, 40080, Note_off_c, 4, 61, 95
2, 40080, Pitch_bend_c, 5, 8192
2, 40080, Note_on_c, 5, 60, 95
2, 40087, Pitch_bend_c, 5, 8320
2, 40094, Pitch_bend_c, 5, 8448
2, 40101, Pitch_bend_c, 5, 8576
2, 40108, Pitch_bend_c, 5, 8704
2, 40115, Pitch_bend_c, 5, 8832
2, 40122, Pitch_bend_c, 5, 8960
2, 40129, Pitch_bend_c, 5, 9088
2, 40136, Pitch_bend_c, 5, 9216
2, 40143, Pitch_bend_c, 5, 9344
2, 40150, Pitch_bend_c, 5, 9472
2, 40157, Pitch_bend_c, 5, 9600
2, 40160, Pitch_bend_c, 5, 9600
2, 40320, Pitch_bend_c, 5, 9600
2, 40560, Pitch_bend_c, 5, 9600
2, 40560, Pitch_bend_c, 5, 8192
2, 40560, Note_off_c, 5, 60, 95
2, 40560, Note_on_c, 4, 58, 95
2, 41040, Note_off_c, 4, 58, 95
2, 41040, Pitch_bend_c, 5, 9600
2, 41040, Note_on_c, 5, 54, 95
2, 41100, Pitch_bend_c, 5, 9600
2, 41160, Pitch_bend_c, 5, 9600
2, 41170, Pitch_bend_c, 5, 9472
2, 41180, Pitch_bend_c, 5, 9344
2, 41190, Pitch_bend_c, 5, 9216
2, 41200, Pitch_bend_c, 5, 9088
2, 41210, Pitch_bend_c, 5, 8960
2, 41220, Pitch_bend_c, 5, 8832
2, 41230, Pitch_bend_c, 5, 8704
2, 41240, Pitch_bend_c, 5, 8576
2, 41250, Pitch_bend_c, 5, 8448
2, 41260, Pitch_bend_c, 5, 8320
2, 41270, Pitch_bend_c, 5, 8192
2, 41280, Pitch_bend_c, 5, 8192
2, 41520, Pitch_bend_c, 5, 8192
2, 41760, Pitch_bend_c, 5, 8192
2, 41760, Pitch_bend_c, 5, 8192
2, 41760, Note_off_c, 5, 54, 95
2, 42240, Pitch_bend_c, 5, 8192
2, 42240, Note_on_c, 5, 56, 95
2, 42254, Pitch_bend_c, 5, 8320
2, 42268, Pitch_bend_c, 5, 8448
2, 42282, Pitch_bend_c, 5, 8576
2, 42296, Pitch_bend_c, 5, 8704
2, 42310, Pitch_bend_c, 5, 8832
2, 42324, Pitch_bend_c, 5, 8960
2, 42338, Pitch_bend_c, 5, 9088
2, 42352, Pitch_bend_c, 5, 9216
2, 42366, Pitch_bend_c, 5, 9344
2, 42380, Pitch_bend_c, 5, 9472
2, 42394, Pitch_bend_c, 5, 9600
2, 42400, Pitch_bend_c, 5, 9600
2, 42560, Pitch_bend_c, 5, 9600
2, 43200, Pitch_bend_c, 5, 9600
2, 44160, Pitch_bend_c, 5, 9600
2, 44160, Pitch_bend_c, 5, 8192
2, 44160, Note_off_c, 5, 56, 95
2, 44160, Note_on_c, 4, 56, 95
2, 45120, Note_off_c, 4, 56, 95
2, 45120, Note_on_c, 4, 56, 95
2, 46080, Note_off_c, 4, 56, 95
2, 46080, Pitch_bend_c, 5, 8192
2, 46080, Note_on_c, 5, 57, 95
2, 46089, Pitch_bend_c, 5, 8320
2, 46098, Pitch_bend_c, 5, 8448
2, 46107, Pitch_bend_c, 5, 8576
2, 46116, Pitch_bend_c, 5, 8704
2, 46125, Pitch_bend_c, 5, 8832
2, 46134, Pitch_bend_c, 5, 8960
2, 46143, Pitch_bend_c, 5, 9088
2, 46152, Pitch_bend_c, 5, 9216
2, 46161, Pitch_bend_c, 5, 9344
2, 46170, Pitch_bend_c, 5, 9472
2, 46179, Pitch_bend_c, 5, 9600
2, 46180, Pitch_bend_c, 5, 9600
2, 46280, Pitch_bend_c, 5, 9600
2, 46680, Pitch_bend_c, 5, 9600
2, 47280, Pitch_bend_c, 5, 9600
2, 47280, Pitch_bend_c, 5, 8192
2, 47280, Note_off_c, 5, 57, 95
2, 47280, Note_on_c, 4, 61, 95
2, 47520, Note_off_c, 4, 61, 95
2, 47520, Note_on_c, 4, 59, 95
2, 47760, Note_off_c, 4, 59, 95
2, 47760, Note_on_c, 4, 58, 95
2, 48480, Note_off_c, 4, 58, 95
2, 51120, Note_on_c, 4, 61, 95
2, 51360, Note_off_c, 4, 61, 95
2, 51360, Note_on_c, 4, 59, 95
2, 51600, Note_off_c, 4, 59, 95
2, 51600, Note_on_c, 4, 58, 95
2, 52080, Note_off_c, 4, 58, 95
2, 53040, Note_on_c, 4, 61, 95
2, 53280, Note_off_c, 4, 61, 95
2, 53280, Note_on_c, 4, 59, 95
2, 53520, Note_off_c, 4, 59, 95
2, 53520, Note_on_c, 4, 58, 95
2, 54000, Note_off_c, 4, 58, 95
2, 54960, Note_on_c, 4, 61, 95
2, 55200, Note_off_c, 4, 61, 95
2, 55200, Note_on_c, 4, 59, 95
2, 55440, Note_off_c, 4, 59, 95
2, 55440, Note_on_c, 4, 58, 95
2, 55920, Note_off_c, 4, 58, 95
2, 55920, Note_on_c, 4, 58, 95
2, 56400, Note_off_c, 4, 58, 95
2, 56400, Note_on_c, 4, 58, 95
2, 56880, Note_off_c, 4, 58, 95
2, 56880, Note_on_c, 4, 59, 95
2, 57120, Note_off_c, 4, 59, 95
2, 57120, Note_on_c, 4, 61, 95
2, 57360, Note_off_c, 4, 61, 95
2, 57360, Pitch_bend_c, 5, 8192
2, 57360, Note_on_c, 5, 60, 95
2, 57367, Pitch_bend_c, 5, 8320
2, 57374, Pitch_bend_c, 5, 8448
2, 57381, Pitch_bend_c, 5, 8576
2, 57388, Pitch_bend_c, 5, 8704
2, 57395, Pitch_bend_c, 5, 8832
2, 57402, Pitch_bend_c, 5, 8960
2, 57409, Pitch_bend_c, 5, 9088
2, 57416, Pitch_bend_c, 5, 9216
2, 57423, Pitch_bend_c, 5, 9344
2, 57430, Pitch_bend_c, 5, 9472
2, 57437, Pitch_bend_c, 5, 9600
2, 57440, Pitch_bend_c, 5, 9600
2, 57600, Pitch_bend_c, 5, 9600
2, 57840, Pitch_bend_c, 5, 9600
2, 57840, Pitch_bend_c, 5, 8192
2, 57840, Note_off_c, 5, 60, 95
2, 57840, Note_on_c, 4, 58, 95
2, 58320, Note_off_c, 4, 58, 95
2, 58320, Pitch_bend_c, 5, 9600
2, 58320, Note_on_c, 5, 54, 95
2, 58380, Pitch_bend_c, 5, 9600
2, 58440, Pitch_bend_c, 5, 9600
2, 58450, Pitch_bend_c, 5, 9472
2, 58460, Pitch_bend_c, 5, 9344
2, 58470, Pitch_bend_c, 5, 9216
2, 58480, Pitch_bend_c, 5, 9088
2, 58490, Pitch_bend_c, 5, 8960
2, 58500, Pitch_bend_c, 5, 8832
2, 58510, Pitch_bend_c, 5, 8704
2, 58520, Pitch_bend_c, 5, 8576
2, 58530, Pitch_bend_c, 5, 8448
2, 58540, Pitch_bend_c, 5, 8320
2, 58550, Pitch_bend_c, 5, 8192
2, 58560, Pitch_bend_c, 5, 8192
2, 58800, Pitch_bend_c, 5, 8192
2, 59040, Pitch_bend_c, 5, 8192
2, 59040, Pitch_bend_c, 5, 8192
2, 59040, Note_off_c, 5, 54, 95
2, 59520, Pitch_bend_c, 5, 8192
2, 59520, Note_on_c, 5, 56, 95
2, 59534, Pitch_bend_c, 5, 8320
2, 59548, Pitch_bend_c, 5, 8448
2, 59562, Pitch_bend_c, 5, 8576
2, 59576, Pitch_bend_c, 5, 8704
2, 59590, Pitch_bend_c, 5, 8832
2, 59604, Pitch_bend_c, 5, 8960
2, 59618, Pitch_bend_c, 5, 9088
2, 59632, Pitch_bend_c, 5, 9216
2, 59646, Pitch_bend_c, 5, 9344
2, 59660, Pitch_bend_c, 5, 9472
2, 59674, Pitch_bend_c, 5, 9600
2, 59680, Pitch_bend_c, 5, 9600
2, 59840, Pitch_bend_c, 5, 9600
2, 60480, Pitch_bend_c, 5, 9600
2, 61440, Pitch_bend_c, 5, 9600
2, 61440, Pitch_bend_c, 5, 8192
2, 61440, Note_off_c, 5, 56, 95
2, 61440, Note_on_c, 4, 56, 95
2, 62400, Note_off_c, 4, 56, 95
2, 62400, Note_on_c, 4, 56, 95
2, 63360, Note_off_c, 4, 56, 95
2, 63360, Pitch_bend_c, 5, 8192
2, 63360, Note_on_c, 5, 57, 95
2, 63369, Pitch_bend_c, 5, 8320
2, 63378, Pitch_bend_c, 5, 8448
2, 63387, Pitch_bend_c, 5, 8576
2, 63396, Pitch_bend_c, 5, 8704
2, 63405, Pitch_bend_c, 5, 8832
2, 63414, Pitch_bend_c, 5, 8960
2, 63423, Pitch_bend_c, 5, 9088
2, 63432, Pitch_bend_c, 5, 9216
2, 63441, Pitch_bend_c, 5, 9344
2, 63450, Pitch_bend_c, 5, 9472
2, 63459, Pitch_bend_c, 5, 9600
2, 63460, Pitch_bend_c, 5, 9600
2, 63560, Pitch_bend_c, 5, 9600
2, 63960, Pitch_bend_c, 5, 9600
2, 64560, Pitch_bend_c, 5, 9600
2, 64560, Pitch_bend_c, 5, 8192
2, 64560, Note_off_c, 5, 57, 95
2, 64560, Note_on_c, 4, 61, 95
2, 64800, Note_off_c, 4, 61, 95
2, 64800, Note_on_c, 4, 59, 95
2, 65040, Note_off_c, 4, 59, 95
2, 65040, Note_on_c, 4, 58, 95
2, 65760, Note_off_c, 4, 58, 95
2, 68400, Note_on_c, 4, 61, 95
2, 68640, Note_off_c, 4, 61, 95
2, 68640, Note_on_c, 4, 59, 95
2, 68880, Note_off_c, 4, 59, 95
2, 68880, Note_on_c, 4, 58, 95
2, 69360, Note_off_c, 4, 58, 95
2, 70320, Note_on_c, 4, 61, 95
2, 70560, Note_off_c, 4, 61, 95
2, 70560, Note_on_c, 4, 59, 95
2, 70800, Note_off_c, 4, 59, 95
2, 70800, Note_on_c, 4, 58, 95
2, 71280, Note_off_c, 4, 58, 95
2, 72240, Note_on_c, 4, 61, 95
2, 72480, Note_off_c, 4, 61, 95
2, 72480, Note_on_c, 4, 59, 95
2, 72720, Note_off_c, 4, 59, 95
2, 72720, Note_on_c, 4, 58, 95
2, 73200, Note_off_c, 4, 58, 95
2, 73200, Note_on_c, 4, 58, 95
2, 73680, Note_off_c, 4, 58, 95
2, 73680, Note_on_c, 4, 58, 95
2, 74160, Note_off_c, 4, 58, 95
2, 74160, Note_on_c, 4, 59, 95
2, 74400, Note_off_c, 4, 59, 95
2, 74400, Note_on_c, 4, 61, 95
2, 74640, Note_off_c, 4, 61, 95
2, 74640, Pitch_bend_c, 5, 8192
2, 74640, Note_on_c, 5, 60, 95
2, 74647, Pitch_bend_c, 5, 8320
2, 74654, Pitch_bend_c, 5, 8448
2, 74661, Pitch_bend_c, 5, 8576
2, 74668, Pitch_bend_c, 5, 8704
2, 74675, Pitch_bend_c, 5, 8832
2, 74682, Pitch_bend_c, 5, 8960
2, 74689, Pitch_bend_c, 5, 9088
2, 74696, Pitch_bend_c, 5, 9216
2, 74703, Pitch_bend_c, 5, 9344
2, 74710, Pitch_bend_c, 5, 9472
2, 74717, Pitch_bend_c, 5, 9600
2, 74720, Pitch_bend_c, 5, 9600
2, 74880, Pitch_bend_c, 5, 9600
2, 75120, Pitch_bend_c, 5, 9600
2, 75120, Pitch_bend_c, 5, 8192
2, 75120, Note_off_c, 5, 60, 95
2, 75120, Note_on_c, 4, 58, 95
2, 75600, Note_off_c, 4, 58, 95
2, 75600, Pitch_bend_c, 5, 9600
2, 75600, Note_on_c, 5, 54, 95
2, 75660, Pitch_bend_c, 5, 9600
2, 75720, Pitch_bend_c, 5, 9600
2, 75730, Pitch_bend_c, 5, 9472
2, 75740, Pitch_bend_c, 5, 9344
2, 75750, Pitch_bend_c, 5, 9216
2, 75760, Pitch_bend_c, 5, 9088
2, 75770, Pitch_bend_c, 5, 8960
2, 75780, Pitch_bend_c, 5, 8832
2, 75790, Pitch_bend_c, 5, 8704
2, 75800, Pitch_bend_c, 5, 8576
2, 75810, Pitch_bend_c, 5, 8448
2, 75820, Pitch_bend_c, 5, 8320
2, 75830, Pitch_bend_c, 5, 8192
2, 75840, Pitch_bend_c, 5, 8192
2, 76080, Pitch_bend_c, 5, 8192
2, 76320, Pitch_bend_c, 5, 8192
2, 76320, Pitch_bend_c, 5, 8192
2, 76320, Note_off_c, 5, 54, 95
2, 76800, Pitch_bend_c, 5, 8192
2, 76800, Note_on_c, 5, 56, 95
2, 76814, Pitch_bend_c, 5, 8320
2, 76828, Pitch_bend_c, 5, 8448
2, 76842, Pitch_bend_c, 5, 8576
2, 76856, Pitch_bend_c, 5, 8704
2, 76870, Pitch_bend_c, 5, 8832
2, 76884, Pitch_bend_c, 5, 8960
2, 76898, Pitch_bend_c, 5, 9088
2, 76912, Pitch_bend_c, 5, 9216
2, 76926, Pitch_bend_c, 5, 9344
2, 76940, Pitch_bend_c, 5, 9472
2, 76954, Pitch_bend_c, 5, 9600
2, 76960, Pitch_bend_c, 5, 9600
2, 77120, Pitch_bend_c, 5, 9600
2, 77760, Pitch_bend_c, 5, 9600
2, 78720, Pitch_bend_c, 5, 9600
2, 78720, Pitch_bend_c, 5, 8192
2, 78720, Note_off_c, 5, 56, 95
2, 78720, Note_on_c, 4, 56, 95
2, 79680, Note_off_c, 4, 56, 95
2, 79680, Note_on_c, 4, 56, 95
2, 80640, Note_off_c, 4, 56, 95
2, 80640, Pitch_bend_c, 5, 8192
2, 80640, Note_on_c, 5, 57, 95
2, 80649, Pitch_bend_c, 5, 8320
2, 80658, Pitch_bend_c, 5, 8448
2, 80667, Pitch_bend_c, 5, 8576
2, 80676, Pitch_bend_c, 5, 8704
2, 80685, Pitch_bend_c, 5, 8832
2, 80694, Pitch_bend_c, 5, 8960
2, 80703, Pitch_bend_c, 5, 9088
2, 80712, Pitch_bend_c, 5, 9216
2, 80721, Pitch_bend_c, 5, 9344
2, 80730, Pitch_bend_c, 5, 9472
2, 80739, Pitch_bend_c, 5, 9600
2, 80740, Pitch_bend_c, 5, 9600
2, 80840, Pitch_bend_c, 5, 9600
2, 81240, Pitch_bend_c, 5, 9600
2, 81840, Pitch_bend_c, 5, 9600
2, 81840, Pitch_bend_c, 5, 8192
2, 81840, Note_off_c, 5, 57, 95
2, 81840, Note_on_c, 4, 61, 95
2, 82080, Note_off_c, 4, 61, 95
2, 82080, Note_on_c, 4, 59, 95
2, 82320, Note_off_c, 4, 59, 95
2, 82320, Note_on_c, 4, 58, 95
2, 83040, Note_off_c, 4, 58, 95
2, 85680, Note_on_c, 4, 61, 95
2, 85920, Note_off_c, 4, 61, 95
2, 85920, Note_on_c, 4, 59, 95
2, 86160, Note_off_c, 4, 59, 95
2, 86160, Note_on_c, 4, 58, 95
2, 86640, Note_off_c, 4, 58, 95
2, 87600, Note_on_c, 4, 61, 95
2, 87840, Note_off_c, 4, 61, 95
2, 87840, Note_on_c, 4, 59, 95
2, 88080, Note_off_c, 4, 59, 95
2, 88080, Note_on_c, 4, 58, 95
2, 88560, Note_off_c, 4, 58, 95
2, 89520, Note_on_c, 4, 61, 95
2, 89760, Note_off_c, 4, 61, 95
2, 89760, Note_on_c, 4, 59, 95
2, 90000, Note_off_c, 4, 59, 95
2, 90000, Note_on_c, 4, 58, 95
2, 90480, Note_off_c, 4, 58, 95
2, 90480, Note_on_c, 4, 58, 95
2, 90960, Note_off_c, 4, 58, 95
2, 90960, Note_on_c, 4, 58, 95
2, 91440, Note_off_c, 4, 58, 95
2, 91440, Note_on_c, 4, 59, 95
2, 91680, Note_off_c, 4, 59, 95
2, 91680, Note_on_c, 4, 61, 95
2, 91920, Note_off_c, 4, 61, 95
2, 91920, Pitch_bend_c, 5, 8192
2, 91920, Note_on_c, 5, 60, 95
2, 91927, Pitch_bend_c, 5, 8320
2, 91934, Pitch_bend_c, 5, 8448
2, 91941, Pitch_bend_c, 5, 8576
2, 91948, Pitch_bend_c, 5, 8704
2, 91955, Pitch_bend_c, 5, 8832
2, 91962, Pitch_bend_c, 5, 8960
2, 91969, Pitch_bend_c, 5, 9088
2, 91976, Pitch_bend_c, 5, 9216
2, 91983, Pitch_bend_c, 5, 9344
2, 91990, Pitch_bend_c, 5, 9472
2, 91997, Pitch_bend_c, 5, 9600
2, 92000, Pitch_bend_c, 5, 9600
2, 92160, Pitch_bend_c, 5, 9600
2, 92400, Pitch_bend_c, 5, 9600
2, 92400, Pitch_bend_c, 5, 8192
2, 92400, Note_off_c, 5, 60, 95
2, 92400, Note_on_c, 4, 58, 95
2, 92880, Note_off_c, 4, 58, 95
2, 92880, Pitch_bend_c, 5, 9600
2, 92880, Note_on_c, 5, 54, 95
2, 92940, Pitch_bend_c, 5, 9600
2, 93000, Pitch_bend_c, 5, 9600
2, 93010, Pitch_bend_c, 5, 9472
2, 93020, Pitch_bend_c, 5, 9344
2, 93030, Pitch_bend_c, 5, 9216
2, 93040, Pitch_bend_c, 5, 9088
2, 93050, Pitch_bend_c, 5, 8960
2, 93060, Pitch_bend_c, 5, 8832
2, 93070, Pitch_bend_c, 5, 8704
2, 93080, Pitch_bend_c, 5, 8576
2, 93090, Pitch_bend_c, 5, 8448
2, 93100, Pitch_bend_c, 5, 8320
2, 93110, Pitch_bend_c, 5, 8192
2, 93120, Pitch_bend_c, 5, 8192
2, 93360, Pitch_bend_c, 5, 8192
2, 93600, Pitch_bend_c, 5, 8192
2, 93600, Pitch_bend_c, 5, 8192
2, 93600, Note_off_c, 5, 54, 95
2, 94080, Pitch_bend_c, 5, 8192
2, 94080, Note_on_c, 5, 56, 95
2, 94094, Pitch_bend_c, 5, 8320
2, 94108, Pitch_bend_c, 5, 8448
2, 94122, Pitch_bend_c, 5, 8576
2, 94136, Pitch_bend_c, 5, 8704
2, 94150, Pitch_bend_c, 5, 8832
2, 94164, Pitch_bend_c, 5, 8960
2, 94178, Pitch_bend_c, 5, 9088
2, 94192, Pitch_bend_c, 5, 9216
2, 94206, Pitch_bend_c, 5, 9344
2, 94220, Pitch_bend_c, 5, 9472
2, 94234, Pitch_bend_c, 5, 9600
2, 94240, Pitch_bend_c, 5, 9600
2, 94400, Pitch_bend_c, 5, 9600
2, 95040, Pitch_bend_c, 5, 9600
2, 96000, Pitch_bend_c, 5, 9600
2, 96000, Pitch_bend_c, 5, 8192
2, 96000, Note_off_c, 5, 56, 95
2, 96000, Note_on_c, 4, 56, 95
2, 96960, Note_off_c, 4, 56, 95
2, 96960, Note_on_c, 4, 56, 95
2, 97920, Note_off_c, 4, 56, 95
2, 97920, Pitch_bend_c, 5, 8192
2, 97920, Note_on_c, 5, 57, 95
2, 97929, Pitch_bend_c, 5, 8320
2, 97938, Pitch_bend_c, 5, 8448
2, 97947, Pitch_bend_c, 5, 8576
2, 97956, Pitch_bend_c, 5, 8704
2, 97965, Pitch_bend_c, 5, 8832
2, 97974, Pitch_bend_c, 5, 8960
2, 97983, Pitch_bend_c, 5, 9088
2, 97992, Pitch_bend_c, 5, 9216
2, 98001, Pitch_bend_c, 5, 9344
2, 98010, Pitch_bend_c, 5, 9472
2, 98019, Pitch_bend_c, 5, 9600
2, 98020, Pitch_bend_c, 5, 9600
2, 98120, Pitch_bend_c, 5, 9600
2, 98520, Pitch_bend_c, 5, 9600
2, 99120, Pitch_bend_c, 5, 9600
2, 99120, Pitch_bend_c, 5, 8192
2, 99120, Note_off_c, 5, 57, 95
2, 99120, Note_on_c, 4, 61, 95
2, 99360, Note_off_c, 4, 61, 95
2, 99360, Note_on_c, 4, 59, 95
2, 99600, Note_off_c, 4, 59, 95
2, 99600, Note_on_c, 4, 58, 95
2, 100320, Note_off_c, 4, 58, 95
2, 103680, Pitch_bend_c, 5, 8192
2, 103680, Note_on_c, 5, 59, 95
2, 103687, Pitch_bend_c, 5, 8320
2, 103694, Pitch_bend_c, 5, 8448
2, 103701, Pitch_bend_c, 5, 8576
2, 103708, Pitch_bend_c, 5, 8704
2, 103715, Pitch_bend_c, 5, 8832
2, 103722, Pitch_bend_c, 5, 8960
2, 103729, Pitch_bend_c, 5, 9088
2, 103736, Pitch_bend_c, 5, 9216
2, 103743, Pitch_bend_c, 5, 9344
2, 103750, Pitch_bend_c, 5, 9472
2, 103757, Pitch_bend_c, 5, 9600
2, 103760, Pitch_bend_c, 5, 9600
2, 103920, Pitch_bend_c, 5, 9600
2, 104160, Pitch_bend_c, 5, 9600
2, 104160, Pitch_bend_c, 5, 8192
2, 104160, Note_off_c, 5, 59, 95
2, 104160, Note_on_c, 4, 61, 95
2, 104400, Note_off_c, 4, 61, 95
2, 104400, Note_on_c, 4, 61, 95
2, 104880, Note_off_c, 4, 61, 95
2, 104880, Note_on_c, 4, 61, 95
2, 105120, Note_off_c, 4, 61, 95
2, 105120, Note_on_c, 4, 61, 95
2, 105600, Note_off_c, 4, 61, 95
2, 105600, Note_on_c, 4, 61, 95
2, 105840, Note_off_c, 4, 61, 95
2, 105840, Note_on_c, 4, 61, 95
2, 106320, Note_off_c, 4, 61, 95
2, 106320, Pitch_bend_c, 5, 11648
2, 106320, Note_on_c, 5, 58, 95
2, 106440, Pitch_bend_c, 5, 11648
2, 106446, Pitch_bend_c, 5, 11520
2, 106452, Pitch_bend_c, 5, 11392
2, 106458, Pitch_bend_c, 5, 11264
2, 106464, Pitch_bend_c, 5, 11136
2, 106470, Pitch_bend_c, 5, 11008
2, 106476, Pitch_bend_c, 5, 10880
2, 106482, Pitch_bend_c, 5, 10752
2, 106488, Pitch_bend_c, 5, 10624
2, 106494, Pitch_bend_c, 5, 10496
2, 106500, Pitch_bend_c, 5, 10368
2, 106506, Pitch_bend_c, 5, 10240
2, 106512, Pitch_bend_c, 5, 10112
2, 106518, Pitch_bend_c, 5, 9984
2, 106524, Pitch_bend_c, 5, 9856
2, 106530, Pitch_bend_c, 5, 9728
2, 106536, Pitch_bend_c, 5, 9600
2, 106542, Pitch_bend_c, 5, 9472
2, 106548, Pitch_bend_c, 5, 9344
2, 106554, Pitch_bend_c, 5, 9216
2, 106560, Pitch_bend_c, 5, 9088
2, 106566, Pitch_bend_c, 5, 8960
2, 106572, Pitch_bend_c, 5, 8832
2, 106578, Pitch_bend_c, 5, 8704
2, 106584, Pitch_bend_c, 5, 8576
2, 106590, Pitch_bend_c, 5, 8448
2, 106596, Pitch_bend_c, 5, 8320
2, 106602, Pitch_bend_c, 5, 8192
2, 106620, Pitch_bend_c, 5, 8192
2, 106800, Pitch_bend_c, 5, 8192
2, 107040, Pitch_bend_c, 5, 8192
2, 107040, Pitch_bend_c, 5, 8192
2, 107040, Note_off_c, 5, 58, 95
2, 107520, Pitch_bend_c, 5, 8192
2, 107520, Note_on_c, 5, 59, 95
2, 107527, Pitch_bend_c, 5, 8320
2, 107534, Pitch_bend_c, 5, 8448
2, 107541, Pitch_bend_c, 5, 8576
2, 107548, Pitch_bend_c, 5, 8704
2, 107555, Pitch_bend_c, 5, 8832
2, 107562, Pitch_bend_c, 5, 8960
2, 107569, Pitch_bend_c, 5, 9088
2, 107576, Pitch_bend_c, 5, 9216
2, 107583, Pitch_bend_c, 5, 9344
2, 107590, Pitch_bend_c, 5, 9472
2, 107597, Pitch_bend_c, 5, 9600
2, 107600, Pitch_bend_c, 5, 9600
2, 107760, Pitch_bend_c, 5, 9600
2, 108000, Pitch_bend_c, 5, 9600
2, 108000, Pitch_bend_c, 5, 8192
2, 108000, Note_off_c, 5, 59, 95
2, 108000, Note_on_c, 4, 61, 95
2, 108240, Note_off_c, 4, 61, 95
2, 108240, Note_on_c, 4, 61, 95
2, 108720, Note_off_c, 4, 61, 95
2, 108720, Note_on_c, 4, 61, 95
2, 109200, Note_off_c, 4, 61, 95
2, 109200, Note_on_c, 4, 61, 95
2, 109680, Note_off_c, 4, 61, 95
2, 109680, Note_on_c, 4, 61, 95
2, 110160, Note_off_c, 4, 61, 95
2, 110160, Pitch_bend_c, 5, 11648
2, 110160, Note_on_c, 5, 58, 95
2, 110280, Pitch_bend_c, 5, 11648
2, 110286, Pitch_bend_c, 5, 11520
2, 110292, Pitch_bend_c, 5, 11392
2, 110298, Pitch_bend_c, 5, 11264
2, 110304, Pitch_bend_c, 5, 11136
2, 110310, Pitch_bend_c, 5, 11008
2, 110316, Pitch_bend_c, 5, 10880
2, 110322, Pitch_bend_c, 5, 10752
2, 110328, Pitch_bend_c, 5, 10624
2, 110334, Pitch_bend_c, 5, 10496
2, 110340, Pitch_bend_c, 5, 10368
2, 110346, Pitch_bend_c, 5, 10240
2, 110352, Pitch_bend_c, 5, 10112
2, 110358, Pitch_bend_c, 5, 9984
2, 110364, Pitch_bend_c, 5, 9856
2, 110370, Pitch_bend_c, 5, 9728
2, 110376, Pitch_bend_c, 5, 9600
2, 110382, Pitch_bend_c, 5, 9472
2, 110388, Pitch_bend_c, 5, 9344
2, 110394, Pitch_bend_c, 5, 9216
2, 110400, Pitch_bend_c, 5, 9088
2, 110406, Pitch_bend_c, 5, 8960
2, 110412, Pitch_bend_c, 5, 8832
2, 110418, Pitch_bend_c, 5, 8704
2, 110424, Pitch_bend_c, 5, 8576
2, 110430, Pitch_bend_c, 5, 8448
2, 110436, Pitch_bend_c, 5, 8320
2, 110442, Pitch_bend_c, 5, 8192
2, 110460, Pitch_bend_c, 5, 8192
2, 110640, Pitch_bend_c, 5, 8192
2, 110880, Pitch_bend_c, 5, 8192
2, 110880, Pitch_bend_c, 5, 8192
2, 110880, Note_off_c, 5, 58, 95
2, 111360, Pitch_bend_c, 5, 8192
2, 111360, Note_on_c, 5, 59, 95
2, 111367, Pitch_bend_c, 5, 8320
2, 111374, Pitch_bend_c, 5, 8448
2, 111381, Pitch_bend_c, 5, 8576
2, 111388, Pitch_bend_c, 5, 8704
2, 111395, Pitch_bend_c, 5, 8832
2, 111402, Pitch_bend_c, 5, 8960
2, 111409, Pitch_bend_c, 5, 9088
2, 111416, Pitch_bend_c, 5, 9216
2, 111423, Pitch_bend_c, 5, 9344
2, 111430, Pitch_bend_c, 5, 9472
2, 111437, Pitch_bend_c, 5, 9600
2, 111440, Pitch_bend_c, 5, 9600
2, 111600, Pitch_bend_c, 5, 9600
2, 111840, Pitch_bend_c, 5, 9600
2, 111840, Pitch_bend_c, 5, 8192
2, 111840, Note_off_c, 5, 59, 95
2, 111840, Note_on_c, 4, 61, 95
2, 112080, Note_off_c, 4, 61, 95
2, 112080, Note_on_c, 4, 61, 95
2, 112560, Note_off_c, 4, 61, 95
2, 112560, Note_on_c, 4, 61, 95
2, 113040, Note_off_c, 4, 61, 95
2, 113040, Note_on_c, 4, 61, 95
2, 113520, Note_off_c, 4, 61, 95
2, 113520, Note_on_c, 4, 61, 95
2, 114000, Note_off_c, 4, 61, 95
2, 114000, Note_on_c, 4, 63, 95
2, 114480, Note_off_c, 4, 63, 95
2, 114480, Note_on_c, 4, 58, 95
2, 114960, Note_off_c, 4, 58, 95
2, 114960, Pitch_bend_c, 5, 8192
2, 114960, Note_on_c, 5, 59, 95
2, 114967, Pitch_bend_c, 5, 8320
2, 114974, Pitch_bend_c, 5, 8448
2, 114981, Pitch_bend_c, 5, 8576
2, 114988, Pitch_bend_c, 5, 8704
2, 114995, Pitch_bend_c, 5, 8832
2, 115002, Pitch_bend_c, 5, 8960
2, 115009, Pitch_bend_c, 5, 9088
2, 115016, Pitch_bend_c, 5, 9216
2, 115023, Pitch_bend_c, 5, 9344
2, 115030, Pitch_bend_c, 5, 9472
2, 115037, Pitch_bend_c, 5, 9600
2, 115040, Pitch_bend_c, 5, 9600
2, 115200, Pitch_bend_c, 5, 9600
2, 115440, Pitch_bend_c, 5, 9600
2, 115440, Pitch_bend_c, 5, 8192
2, 115440, Note_off_c, 5, 59, 95
2, 115440, Note_on_c, 4, 61, 95
2, 115920, Note_off_c, 4, 61, 95
2, 115920, Note_on_c, 4, 61, 95
2, 116400, Note_off_c, 4, 61, 95
2, 116400, Note_on_c, 4, 61, 95
2, 116880, Note_off_c, 4, 61, 95
2, 116880, Note_on_c, 4, 61, 95
2, 117360, Note_off_c, 4, 61, 95
2, 117360, Note_on_c, 4, 61, 95
2, 117600, Note_off_c, 4, 61, 95
2, 117600, Note_on_c, 4, 63, 95
2, 118080, Note_off_c, 4, 63, 95
2, 118080, Pitch_bend_c, 5, 8192
2, 118080, Note_on_c, 5, 56, 95
2, 118087, Pitch_bend_c, 5, 8320
2, 118094, Pitch_bend_c, 5, 8448
2, 118101, Pitch_bend_c, 5, 8576
2, 118108, Pitch_bend_c, 5, 8704
2, 118115, Pitch_bend_c, 5, 8832
2, 118122, Pitch_bend_c, 5, 8960
2, 118129, Pitch_bend_c, 5, 9088
2, 118136, Pitch_bend_c, 5, 9216
2, 118143, Pitch_bend_c, 5, 9344
2, 118150, Pitch_bend_c, 5, 9472
2, 118157, Pitch_bend_c, 5, 9600
2, 118160, Pitch_bend_c, 5, 9600
2, 118320, Pitch_bend_c, 5, 9600
2, 118560, Pitch_bend_c, 5, 9600
2, 118560, Pitch_bend_c, 5, 8192
2, 118560, Note_off_c, 5, 56, 95
2, 119040, Pitch_bend_c, 5, 8192
2, 119040, Note_on_c, 5, 59, 95
2, 119054, Pitch_bend_c, 5, 8320
2, 119068, Pitch_bend_c, 5, 8448
2, 119082, Pitch_bend_c, 5, 8576
2, 119096, Pitch_bend_c, 5, 8704
2, 119110, Pitch_bend_c, 5, 8832
2, 119124, Pitch_bend_c, 5, 8960
2, 119138, Pitch_bend_c, 5, 9088
2, 119152, Pitch_bend_c, 5, 9216
2, 119166, Pitch_bend_c, 5, 9344
2, 119180, Pitch_bend_c, 5, 9472
2, 119194, Pitch_bend_c, 5, 9600
2, 119200, Pitch_bend_c, 5, 9600
2, 119360, Pitch_bend_c, 5, 9600
2, 120000, Pitch_bend_c, 5, 9600
2, 120960, Pitch_bend_c, 5, 9600
2, 120960, Pitch_bend_c, 5, 8192
2, 120960, Note_off_c, 5, 59, 95
2, 120960, Pitch_bend_c, 5, 8192
2, 120960, Note_on_c, 5, 58, 95
2, 120967, Pitch_bend_c, 5, 8320
2, 120974, Pitch_bend_c, 5, 8448
2, 120981, Pitch_bend_c, 5, 8576
2, 120988, Pitch_bend_c, 5, 8704
2, 120995, Pitch_bend_c, 5, 8832
2, 121002, Pitch_bend_c, 5, 8960
2, 121009, Pitch_bend_c, 5, 9088
2, 121016, Pitch_bend_c, 5, 9216
2, 121023, Pitch_bend_c, 5, 9344
2, 121030, Pitch_bend_c, 5, 9472
2, 121037, Pitch_bend_c, 5, 9600
2, 121040, Pitch_bend_c, 5, 9600
2, 121120, Pitch_bend_c, 5, 9600
2, 121200, Pitch_bend_c, 5, 9600
2, 121440, Pitch_bend_c, 5, 9600
2, 121920, Pitch_bend_c, 5, 9600
2, 121920, Pitch_bend_c, 5, 8192
2, 121920, Note_off_c, 5, 58, 95
2, 121920, Pitch_bend_c, 5, 8192
2, 121920, Note_on_c, 5, 54, 95
2, 121927, Pitch_bend_c, 5, 8320
2, 121934, Pitch_bend_c, 5, 8448
2, 121941, Pitch_bend_c, 5, 8576
2, 121948, Pitch_bend_c, 5, 8704
2, 121955, Pitch_bend_c, 5, 8832
2, 121962, Pitch_bend_c, 5, 8960
2, 121969, Pitch_bend_c, 5, 9088
2, 121976, Pitch_bend_c, 5, 9216
2, 121983, Pitch_bend_c, 5, 9344
2, 121990, Pitch_bend_c, 5, 9472
2, 121997, Pitch_bend_c, 5, 9600
2, 122000, Pitch_bend_c, 5, 9600
2, 122080, Pitch_bend_c, 5, 9600
2, 122400, Pitch_bend_c, 5, 9600
2, 122880, Pitch_bend_c, 5, 9600
2, 122880, Pitch_bend_c, 5, 8192
2, 122880, Note_off_c, 5, 54, 95
2, 122880, Pitch_bend_c, 5, 8192
2, 122880, Note_on_c, 5, 57, 95
2, 122909, Pitch_bend_c, 5, 8320
2, 122938, Pitch_bend_c, 5, 8448
2, 122967, Pitch_bend_c, 5, 8576
2, 122996, Pitch_bend_c, 5, 8704
2, 123025, Pitch_bend_c, 5, 8832
2, 123054, Pitch_bend_c, 5, 8960
2, 123083, Pitch_bend_c, 5, 9088
2, 123112, Pitch_bend_c, 5, 9216
2, 123141, Pitch_bend_c, 5, 9344
2, 123170, Pitch_bend_c, 5, 9472
2, 123199, Pitch_bend_c, 5, 9600
2, 123200, Pitch_bend_c, 5, 9600
2, 123360, Pitch_bend_c, 5, 9600
2, 123840, Pitch_bend_c, 5, 9600
2, 124800, Pitch_bend_c, 5, 9600
2, 124800, Pitch_bend_c, 5, 8192
2, 124800, Note_off_c, 5, 57, 95
2, 124800, Pitch_bend_c, 5, 8192
2, 124800, Note_on_c, 5, 59, 95
2, 124807, Pitch_bend_c, 5, 8320
2, 124814, Pitch_bend_c, 5, 8448
2, 124821, Pitch_bend_c, 5, 8576
2, 124828, Pitch_bend_c, 5, 8704
2, 124835, Pitch_bend_c, 5, 8832
2, 124842, Pitch_bend_c, 5, 8960
2, 124849, Pitch_bend_c, 5, 9088
2, 124856, Pitch_bend_c, 5, 9216
2, 124863, Pitch_bend_c, 5, 9344
2, 124870, Pitch_bend_c, 5, 9472
2, 124877, Pitch_bend_c, 5, 9600
2, 124880, Pitch_bend_c, 5, 9600
2, 125280, Pitch_bend_c, 5, 9600
2, 125760, Pitch_bend_c, 5, 9600
2, 125760, Pitch_bend_c, 5, 8192
2, 125760, Note_off_c, 5, 59, 95
2, 127920, Note_on_c, 4, 61, 95
2, 128160, Note_off_c, 4, 61, 95
2, 128160, Note_on_c, 4, 59, 95
2, 128400, Note_off_c, 4, 59, 95
2, 128400, Note_on_c, 4, 58, 95
2, 129600, Note_off_c, 4, 58, 95
2, 129840, Note_on_c, 4, 61, 95
2, 130080, Note_off_c, 4, 61, 95
2, 130080, Note_on_c, 4, 59, 95
2, 130320, Note_off_c, 4, 59, 95
2, 130320, Note_on_c, 4, 58, 95
2, 130800, Note_off_c, 4, 58, 95
2, 131760, Note_on_c, 4, 61, 95
2, 132000, Note_off_c, 4, 61, 95
2, 132000, Note_on_c, 4, 59, 95
2, 132240, Note_off_c, 4, 59, 95
2, 132240, Note_on_c, 4, 58, 95
2, 132720, Note_off_c, 4, 58, 95
2, 132720, Note_on_c, 4, 58, 95
2, 132960, Note_off_c, 4, 58, 95
2, 132960, Note_on_c, 4, 58, 95
2, 133200, Note_off_c, 4, 58, 95
2, 133200, Note_on_c, 4, 58, 95
2, 133680, Note_off_c, 4, 58, 95
2, 133680, Note_on_c, 4, 59, 95
2, 133920, Note_off_c, 4, 59, 95
2, 133920, Note_on_c, 4, 61, 95
2, 134160, Note_off_c, 4, 61, 95
2, 134160, Pitch_bend_c, 5, 8192
2, 134160, Note_on_c, 5, 60, 95
2, 134167, Pitch_bend_c, 5, 8320
2, 134174, Pitch_bend_c, 5, 8448
2, 134181, Pitch_bend_c, 5, 8576
2, 134188, Pitch_bend_c, 5, 8704
2, 134195, Pitch_bend_c, 5, 8832
2, 134202, Pitch_bend_c, 5, 8960
2, 134209, Pitch_bend_c, 5, 9088
2, 134216, Pitch_bend_c, 5, 9216
2, 134223, Pitch_bend_c, 5, 9344
2, 134230, Pitch_bend_c, 5, 9472
2, 134237, Pitch_bend_c, 5, 9600
2, 134240, Pitch_bend_c, 5, 9600
2, 134400, Pitch_bend_c, 5, 9600
2, 134640, Pitch_bend_c, 5, 9600
2, 134640, Pitch_bend_c, 5, 8192
2, 134640, Note_off_c, 5, 60, 95
2, 134640, Note_on_c, 4, 58, 95
2, 135120, Note_off_c, 4, 58, 95
2, 135120, Pitch_bend_c, 5, 9600
2, 135120, Note_on_c, 5, 54, 95
2, 135180, Pitch_bend_c, 5, 9600
2, 135240, Pitch_bend_c, 5, 9600
2, 135250, Pitch_bend_c, 5, 9472
2, 135260, Pitch_bend_c, 5, 9344
2, 135270, Pitch_bend_c, 5, 9216
2, 135280, Pitch_bend_c, 5, 9088
2, 135290, Pitch_bend_c, 5, 8960
2, 135300, Pitch_bend_c, 5, 8832
2, 135310, Pitch_bend_c, 5, 8704
2, 135320, Pitch_bend_c, 5, 8576
2, 135330, Pitch_bend_c, 5, 8448
2, 135340, Pitch_bend_c, 5, 8320
2, 135350, Pitch_bend_c, 5, 8192
2, 135360, Pitch_bend_c, 5, 8192
2, 135600, Pitch_bend_c, 5, 8192
2, 135840, Pitch_bend_c, 5, 8192
2, 135840, Pitch_bend_c, 5, 8192
2, 135840, Note_off_c, 5, 54, 95
2, 136320, Pitch_bend_c, 5, 8192
2, 136320, Note_on_c, 5, 56, 95
2, 136334, Pitch_bend_c, 5, 8320
2, 136348, Pitch_bend_c, 5, 8448
2, 136362, Pitch_bend_c, 5, 8576
2, 136376, Pitch_bend_c, 5, 8704
2, 136390, Pitch_bend_c, 5, 8832
2, 136404, Pitch_bend_c, 5, 8960
2, 136418, Pitch_bend_c, 5, 9088
2, 136432, Pitch_bend_c, 5, 9216
2, 136446, Pitch_bend_c, 5, 9344
2, 136460, Pitch_bend_c, 5, 9472
2, 136474, Pitch_bend_c, 5, 9600
2, 136480, Pitch_bend_c, 5, 9600
2, 136640, Pitch_bend_c, 5, 9600
2, 137280, Pitch_bend_c, 5, 9600
2, 138240, Pitch_bend_c, 5, 9600
2, 138240, Pitch_bend_c, 5, 8192
2, 138240, Note_off_c, 5, 56, 95
2, 138240, Note_on_c, 4, 56, 95
2, 139200, Note_off_c, 4, 56, 95
2, 139200, Note_on_c, 4, 56, 95
2, 140160, Note_off_c, 4, 56, 95
2, 140160, Pitch_bend_c, 5, 8192
2, 140160, Note_on_c, 5, 57, 95
2, 140169, Pitch_bend_c, 5, 8320
2, 140178, Pitch_bend_c, 5, 8448
2, 140187, Pitch_bend_c, 5, 8576
2, 140196, Pitch_bend_c, 5, 8704
2, 140205, Pitch_bend_c, 5, 8832
2, 140214, Pitch_bend_c, 5, 8960
2, 140223, Pitch_bend_c, 5, 9088
2, 140232, Pitch_bend_c, 5, 9216
2, 140241, Pitch_bend_c, 5, 9344
2, 140250, Pitch_bend_c, 5, 9472
2, 140259, Pitch_bend_c, 5, 9600
2, 140260, Pitch_bend_c, 5, 9600
2, 140360, Pitch_bend_c, 5, 9600
2, 140760, Pitch_bend_c, 5, 9600
2, 141360, Pitch_bend_c, 5, 9600
2, 141360, Pitch_bend_c, 5, 8192
2, 141360, Note_off_c, 5, 57, 95
2, 141360, Note_on_c, 4, 61, 95
2, 141600, Note_off_c, 4, 61, 95
2, 141600, Note_on_c, 4, 59, 95
2, 141840, Note_off_c, 4, 59, 95
2, 141840, Note_on_c, 4, 58, 95
2, 142560, Note_off_c, 4, 58, 95
2, 145200, Note_on_c, 4, 61, 95
2, 145440, Note_off_c, 4, 61, 95
2, 145440, Note_on_c, 4, 59, 95
2, 145680, Note_off_c, 4, 59, 95
2, 145680, Note_on_c, 4, 58, 95
2, 146160, Note_off_c, 4, 58, 95
2, 147120, Note_on_c, 4, 61, 95
2, 147360, Note_off_c, 4, 61, 95
2, 147360, Note_on_c, 4, 59, 95
2, 147600, Note_off_c, 4, 59, 95
2, 147600, Note_on_c, 4, 58, 95
2, 148080, Note_off_c, 4, 58, 95
2, 149040, Note_on_c, 4, 61, 95
2, 149280, Note_off_c, 4, 61, 95
2, 149280, Note_on_c, 4, 59, 95
2, 149520, Note_off_c, 4, 59, 95
2, 149520, Note_on_c, 4, 58, 95
2, 150000, Note_off_c, 4, 58, 95
2, 150000, Note_on_c, 4, 58, 95
2, 150480, Note_off_c, 4, 58, 95
2, 150480, Note_on_c, 4, 58, 95
2, 150960, Note_off_c, 4, 58, 95
2, 150960, Note_on_c, 4, 59, 95
2, 151200, Note_off_c, 4, 59, 95
2, 151200, Note_on_c, 4, 61, 95
2, 151440, Note_off_c, 4, 61, 95
2, 151440, Pitch_bend_c, 5, 8192
2, 151440, Note_on_c, 5, 60, 95
2, 151450, Pitch_bend_c, 5, 8320
2, 151460, Pitch_bend_c, 5, 8448
2, 151470, Pitch_bend_c, 5, 8576
2, 151480, Pitch_bend_c, 5, 8704
2, 151490, Pitch_bend_c, 5, 8832
2, 151500, Pitch_bend_c, 5, 8960
2, 151510, Pitch_bend_c, 5, 9088
2, 151520, Pitch_bend_c, 5, 9216
2, 151530, Pitch_bend_c, 5, 9344
2, 151540, Pitch_bend_c, 5, 9472
2, 151550, Pitch_bend_c, 5, 9600
2, 151560, Pitch_bend_c, 5, 9600
2, 151800, Pitch_bend_c, 5, 9600
2, 152160, Pitch_bend_c, 5, 9600
2, 152160, Pitch_bend_c, 5, 8192
2, 152160, Note_off_c, 5, 60, 95
2, 152160, Note_on_c, 4, 58, 95
2, 152400, Note_off_c, 4, 58, 95
2, 152400, Pitch_bend_c, 5, 9600
2, 152400, Note_on_c, 5, 54, 95
2, 152460, Pitch_bend_c, 5, 9600
2, 152520, Pitch_bend_c, 5, 9600
2, 152530, Pitch_bend_c, 5, 9472
2, 152540, Pitch_bend_c, 5, 9344
2, 152550, Pitch_bend_c, 5, 9216
2, 152560, Pitch_bend_c, 5, 9088
2, 152570, Pitch_bend_c, 5, 8960
2, 152580, Pitch_bend_c, 5, 8832
2, 152590, Pitch_bend_c, 5, 8704
2, 152600, Pitch_bend_c, 5, 8576
2, 152610, Pitch_bend_c, 5, 8448
2, 152620, Pitch_bend_c, 5, 8320
2, 152630, Pitch_bend_c, 5, 8192
2, 152640, Pitch_bend_c, 5, 8192
2, 152880, Pitch_bend_c, 5, 8192
2, 153120, Pitch_bend_c, 5, 8192
2, 153120, Pitch_bend_c, 5, 8192
2, 153120, Note_off_c, 5, 54, 95
2, 153600, Pitch_bend_c, 5, 8192
2, 153600, Note_on_c, 5, 56, 95
2, 153614, Pitch_bend_c, 5, 8320
2, 153628, Pitch_bend_c, 5, 8448
2, 153642, Pitch_bend_c, 5, 8576
2, 153656, Pitch_bend_c, 5, 8704
2, 153670, Pitch_bend_c, 5, 8832
2, 153684, Pitch_bend_c, 5, 8960
2, 153698, Pitch_bend_c, 5, 9088
2, 153712, Pitch_bend_c, 5, 9216
2, 153726, Pitch_bend_c, 5, 9344
2, 153740, Pitch_bend_c, 5, 9472
2, 153754, Pitch_bend_c, 5, 9600
2, 153760, Pitch_bend_c, 5, 9600
2, 153920, Pitch_bend_c, 5, 9600
2, 154560, Pitch_bend_c, 5, 9600
2, 155520, Pitch_bend_c, 5, 9600
2, 155520, Pitch_bend_c, 5, 8192
2, 155520, Note_off_c, 5, 56, 95
2, 155520, Note_on_c, 4, 56, 95
2, 156480, Note_off_c, 4, 56, 95
2, 156480, Note_on_c, 4, 56, 95
2, 157440, Note_off_c, 4, 56, 95
2, 157440, Pitch_bend_c, 5, 8192
2, 157440, Note_on_c, 5, 57, 95
2, 157449, Pitch_bend_c, 5, 8320
2, 157458, Pitch_bend_c, 5, 8448
2, 157467, Pitch_bend_c, 5, 8576
2, 157476, Pitch_bend_c, 5, 8704
2, 157485, Pitch_bend_c, 5, 8832
2, 157494, Pitch_bend_c, 5, 8960
2, 157503, Pitch_bend_c, 5, 9088
2, 157512, Pitch_bend_c, 5, 9216
2, 157521, Pitch_bend_c, 5, 9344
2, 157530, Pitch_bend_c, 5, 9472
2, 157539, Pitch_bend_c, 5, 9600
2, 157540, Pitch_bend_c, 5, 9600
2, 157640, Pitch_bend_c, 5, 9600
2, 158040, Pitch_bend_c, 5, 9600
2, 158640, Pitch_bend_c, 5, 9600
2, 158640, Pitch_bend_c, 5, 8192
2, 158640, Note_off_c, 5, 57, 95
2, 158640, Note_on_c, 4, 61, 95
2, 158880, Note_off_c, 4, 61, 95
2, 158880, Note_on_c, 4, 59, 95
2, 159120, Note_off_c, 4, 59, 95
2, 159120, Note_on_c, 4, 58, 95
2, 159840, Note_off_c, 4, 58, 95
2, 167040, Pitch_bend_c, 5, 8192
2, 167040, Note_on_c, 5, 59, 95
2, 167047, Pitch_bend_c, 5, 8320
2, 167054, Pitch_bend_c, 5, 8448
2, 167061, Pitch_bend_c, 5, 8576
2, 167068, Pitch_bend_c, 5, 8704
2, 167075, Pitch_bend_c, 5, 8832
2, 167082, Pitch_bend_c, 5, 8960
2, 167089, Pitch_bend_c, 5, 9088
2, 167096, Pitch_bend_c, 5, 9216
2, 167103, Pitch_bend_c, 5, 9344
2, 167110, Pitch_bend_c, 5, 9472
2, 167117, Pitch_bend_c, 5, 9600
2, 167120, Pitch_bend_c, 5, 9600
2, 167280, Pitch_bend_c, 5, 9600
2, 167520, Pitch_bend_c, 5, 9600
2, 167520, Pitch_bend_c, 5, 8192
2, 167520, Note_off_c, 5, 59, 95
2, 167520, Note_on_c, 4, 61, 95
2, 167760, Note_off_c, 4, 61, 95
2, 167760, Note_on_c, 4, 61, 95
2, 168240, Note_off_c, 4, 61, 95
2, 168240, Note_on_c, 4, 61, 95
2, 168480, Note_off_c, 4, 61, 95
2, 168480, Note_on_c, 4, 61, 95
2, 168960, Note_off_c, 4, 61, 95
2, 168960, Note_on_c, 4, 61, 95
2, 169200, Note_off_c, 4, 61, 95
2, 169200, Note_on_c, 4, 61, 95
2, 169680, Note_off_c, 4, 61, 95
2, 169680, Pitch_bend_c, 5, 11648
2, 169680, Note_on_c, 5, 58, 95
2, 169760, Pitch_bend_c, 5, 11648
2, 169764, Pitch_bend_c, 5, 11520
2, 169768, Pitch_bend_c, 5, 11392
2, 169772, Pitch_bend_c, 5, 11264
2, 169776, Pitch_bend_c, 5, 11136
2, 169780, Pitch_bend_c, 5, 11008
2, 169784, Pitch_bend_c, 5, 10880
2, 169788, Pitch_bend_c, 5, 10752
2, 169792, Pitch_bend_c, 5, 10624
2, 169796, Pitch_bend_c, 5, 10496
2, 169800, Pitch_bend_c, 5, 10368
2, 169804, Pitch_bend_c, 5, 10240
2, 169808, Pitch_bend_c, 5, 10112
2, 169812, Pitch_bend_c, 5, 9984
2, 169816, Pitch_bend_c, 5, 9856
2, 169820, Pitch_bend_c, 5, 9728
2, 169824, Pitch_bend_c, 5, 9600
2, 169828, Pitch_bend_c, 5, 9472
2, 169832, Pitch_bend_c, 5, 9344
2, 169836, Pitch_bend_c, 5, 9216
2, 169840, Pitch_bend_c, 5, 9088
2, 169844, Pitch_bend_c, 5, 8960
2, 169848, Pitch_bend_c, 5, 8832
2, 169852, Pitch_bend_c, 5, 8704
2, 169856, Pitch_bend_c, 5, 8576
2, 169860, Pitch_bend_c, 5, 8448
2, 169864, Pitch_bend_c, 5, 8320
2, 169868, Pitch_bend_c, 5, 8192
2, 169880, Pitch_bend_c, 5, 8192
2, 170000, Pitch_bend_c, 5, 8192
2, 170160, Pitch_bend_c, 5, 8192
2, 170160, Pitch_bend_c, 5, 8192
2, 170160, Note_off_c, 5, 58, 95
2, 170400, Note_on_c, 4, 58, 95
2, 170880, Note_off_c, 4, 58, 95
2, 170880, Pitch_bend_c, 5, 8192
2, 170880, Note_on_c, 5, 59, 95
2, 170883, Pitch_bend_c, 5, 8320
2, 170886, Pitch_bend_c, 5, 8448
2, 170889, Pitch_bend_c, 5, 8576
2, 170892, Pitch_bend_c, 5, 8704
2, 170895, Pitch_bend_c, 5, 8832
2, 170898, Pitch_bend_c, 5, 8960
2, 170901, Pitch_bend_c, 5, 9088
2, 170904, Pitch_bend_c, 5, 9216
2, 170907, Pitch_bend_c, 5, 9344
2, 170910, Pitch_bend_c, 5, 9472
2, 170913, Pitch_bend_c, 5, 9600
2, 170920, Pitch_bend_c, 5, 9600
2, 171000, Pitch_bend_c, 5, 9600
2, 171120, Pitch_bend_c, 5, 9600
2, 171120, Pitch_bend_c, 5, 8192
2, 171120, Note_off_c, 5, 59, 95
2, 171120, Note_on_c, 4, 61, 95
2, 171360, Note_off_c, 4, 61, 95
2, 171360, Note_on_c, 4, 61, 95
2, 171600, Note_off_c, 4, 61, 95
2, 171600, Note_on_c, 4, 61, 95
2, 172080, Note_off_c, 4, 61, 95
2, 172080, Note_on_c, 4, 61, 95
2, 172560, Note_off_c, 4, 61, 95
2, 172560, Note_on_c, 4, 61, 95
2, 173040, Note_off_c, 4, 61, 95
2, 173040, Note_on_c, 4, 61, 95
2, 173520, Note_off_c, 4, 61, 95
2, 173520, Pitch_bend_c, 5, 11648
2, 173520, Note_on_c, 5, 58, 95
2, 173600, Pitch_bend_c, 5, 11648
2, 173604, Pitch_bend_c, 5, 11520
2, 173608, Pitch_bend_c, 5, 11392
2, 173612, Pitch_bend_c, 5, 11264
2, 173616, Pitch_bend_c, 5, 11136
2, 173620, Pitch_bend_c, 5, 11008
2, 173624, Pitch_bend_c, 5, 10880
2, 173628, Pitch_bend_c, 5, 10752
2, 173632, Pitch_bend_c, 5, 10624
2, 173636, Pitch_bend_c, 5, 10496
2, 173640, Pitch_bend_c, 5, 10368
2, 173644, Pitch_bend_c, 5, 10240
2, 173648, Pitch_bend_c, 5, 10112
2, 173652, Pitch_bend_c, 5, 9984
2, 173656, Pitch_bend_c, 5, 9856
2, 173660, Pitch_bend_c, 5, 9728
2, 173664, Pitch_bend_c, 5, 9600
2, 173668, Pitch_bend_c, 5, 9472
2, 173672, Pitch_bend_c, 5, 9344
2, 173676, Pitch_bend_c, 5, 9216
2, 173680, Pitch_bend_c, 5, 9088
2, 173684, Pitch_bend_c, 5, 8960
2, 173688, Pitch_bend_c, 5, 8832
2, 173692, Pitch_bend_c, 5, 8704
2, 173696, Pitch_bend_c, 5, 8576
2, 173700, Pitch_bend_c, 5, 8448
2, 173704, Pitch_bend_c, 5, 8320
2, 173708, Pitch_bend_c, 5, 8192
2, 173720, Pitch_bend_c, 5, 8192
2, 173840, Pitch_bend_c, 5, 8192
2, 174000, Pitch_bend_c, 5, 8192
2, 174000, Pitch_bend_c, 5, 8192
2, 174000, Note_off_c, 5, 58, 95
2, 174480, Note_on_c, 4, 58, 95
2, 174720, Note_off_c, 4, 58, 95
2, 174720, Pitch_bend_c, 5, 8192
2, 174720, Note_on_c, 5, 59, 95
2, 174727, Pitch_bend_c, 5, 8320
2, 174734, Pitch_bend_c, 5, 8448
2, 174741, Pitch_bend_c, 5, 8576
2, 174748, Pitch_bend_c, 5, 8704
2, 174755, Pitch_bend_c, 5, 8832
2, 174762, Pitch_bend_c, 5, 8960
2, 174769, Pitch_bend_c, 5, 9088
2, 174776, Pitch_bend_c, 5, 9216
2, 174783, Pitch_bend_c, 5, 9344
2, 174790, Pitch_bend_c, 5, 9472
2, 174797, Pitch_bend_c, 5, 9600
2, 174800, Pitch_bend_c, 5, 9600
2, 174960, Pitch_bend_c, 5, 9600
2, 175200, Pitch_bend_c, 5, 9600
2, 175200, Pitch_bend_c, 5, 8192
2, 175200, Note_off_c, 5, 59, 95
2, 175200, Note_on_c, 4, 61, 95
2, 175440, Note_off_c, 4, 61, 95
2, 175440, Note_on_c, 4, 61, 95
2, 175920, Note_off_c, 4, 61, 95
2, 175920, Note_on_c, 4, 61, 95
2, 176400, Note_off_c, 4, 61, 95
2, 176400, Note_on_c, 4, 61, 95
2, 176880, Note_off_c, 4, 61, 95
2, 176880, Note_on_c, 4, 61, 95
2, 177360, Note_off_c, 4, 61, 95
2, 177360, Note_on_c, 4, 63, 95
2, 177840, Note_off_c, 4, 63, 95
2, 177840, Note_on_c, 4, 58, 95
2, 178080, Note_off_c, 4, 58, 95
2, 178080, Note_on_c, 4, 58, 95
2, 178320, Note_off_c, 4, 58, 95
2, 178320, Pitch_bend_c, 5, 8192
2, 178320, Note_on_c, 5, 59, 95
2, 178327, Pitch_bend_c, 5, 8320
2, 178334, Pitch_bend_c, 5, 8448
2, 178341, Pitch_bend_c, 5, 8576
2, 178348, Pitch_bend_c, 5, 8704
2, 178355, Pitch_bend_c, 5, 8832
2, 178362, Pitch_bend_c, 5, 8960
2, 178369, Pitch_bend_c, 5, 9088
2, 178376, Pitch_bend_c, 5, 9216
2, 178383, Pitch_bend_c, 5, 9344
2, 178390, Pitch_bend_c, 5, 9472
2, 178397, Pitch_bend_c, 5, 9600
2, 178400, Pitch_bend_c, 5, 9600
2, 178560, Pitch_bend_c, 5, 9600
2, 178800, Pitch_bend_c, 5, 9600
2, 178800, Pitch_bend_c, 5, 8192
2, 178800, Note_off_c, 5, 59, 95
2, 178800, Note_on_c, 4, 61, 95
2, 179280, Note_off_c, 4, 61, 95
2, 179280, Note_on_c, 4, 61, 95
2, 179760, Note_off_c, 4, 61, 95
2, 179760, Note_on_c, 4, 61, 95
2, 180000, Note_off_c, 4, 61, 95
2, 180000, Note_on_c, 4, 61, 95
2, 180240, Note_off_c, 4, 61, 95
2, 180240, Note_on_c, 4, 61, 95
2, 180720, Note_off_c, 4, 61, 95
2, 180720, Note_on_c, 4, 61, 95
2, 181200, Note_off_c, 4, 61, 95
2, 181200, Pitch_bend_c, 5, 11648
2, 181200, Note_on_c, 5, 58, 95
2, 181320, Pitch_bend_c, 5, 11648
2, 181326, Pitch_bend_c, 5, 11520
2, 181332, Pitch_bend_c, 5, 11392
2, 181338, Pitch_bend_c, 5, 11264
2, 181344, Pitch_bend_c, 5, 11136
2, 181350, Pitch_bend_c, 5, 11008
2, 181356, Pitch_bend_c, 5, 10880
2, 181362, Pitch_bend_c, 5, 10752
2, 181368, Pitch_bend_c, 5, 10624
2, 181374, Pitch_bend_c, 5, 10496
2, 181380, Pitch_bend_c, 5, 10368
2, 181386, Pitch_bend_c, 5, 10240
2, 181392, Pitch_bend_c, 5, 10112
2, 181398, Pitch_bend_c, 5, 9984
2, 181404, Pitch_bend_c, 5, 9856
2, 181410, Pitch_bend_c, 5, 9728
2, 181416, Pitch_bend_c, 5, 9600
2, 181422, Pitch_bend_c, 5, 9472
2, 181428, Pitch_bend_c, 5, 9344
2, 181434, Pitch_bend_c, 5, 9216
2, 181440, Pitch_bend_c, 5, 9088
2, 181446, Pitch_bend_c, 5, 8960
2, 181452, Pitch_bend_c, 5, 8832
2, 181458, Pitch_bend_c, 5, 8704
2, 181464, Pitch_bend_c, 5, 8576
2, 181470, Pitch_bend_c, 5, 8448
2, 181476, Pitch_bend_c, 5, 8320
2, 181482, Pitch_bend_c, 5, 8192
2, 181500, Pitch_bend_c, 5, 8192
2, 181680, Pitch_bend_c, 5, 8192
2, 181920, Pitch_bend_c, 5, 8192
2, 181920, Pitch_bend_c, 5, 8192
2, 181920, Note_off_c, 5, 58, 95
2, 181920, Note_on_c, 4, 66, 95
2, 182040, Note_off_c, 4, 66, 95
2, 182040, Note_on_c, 4, 63, 95
2, 182160, Note_off_c, 4, 63, 95
2, 182160, Note_on_c, 4, 58, 95
2, 182400, Note_off_c, 4, 58, 95
2, 182400, Pitch_bend_c, 5, 8192
2, 182400, Note_on_c, 5, 59, 95
2, 182414, Pitch_bend_c, 5, 8320
2, 182428, Pitch_bend_c, 5, 8448
2, 182442, Pitch_bend_c, 5, 8576
2, 182456, Pitch_bend_c, 5, 8704
2, 182470, Pitch_bend_c, 5, 8832
2, 182484, Pitch_bend_c, 5, 8960
2, 182498, Pitch_bend_c, 5, 9088
2, 182512, Pitch_bend_c, 5, 9216
2, 182526, Pitch_bend_c, 5, 9344
2, 182540, Pitch_bend_c, 5, 9472
2, 182554, Pitch_bend_c, 5, 9600
2, 182560, Pitch_bend_c, 5, 9600
2, 182720, Pitch_bend_c, 5, 9600
2, 183360, Pitch_bend_c, 5, 9600
2, 184320, Pitch_bend_c, 5, 9600
2, 184320, Pitch_bend_c, 5, 8192
2, 184320, Note_off_c, 5, 59, 95
2, 184320, Pitch_bend_c, 5, 8192
2, 184320, Note_on_c, 5, 58, 95
2, 184327, Pitch_bend_c, 5, 8320
2, 184334, Pitch_bend_c, 5, 8448
2, 184341, Pitch_bend_c, 5, 8576
2, 184348, Pitch_bend_c, 5, 8704
2, 184355, Pitch_bend_c, 5, 8832
2, 184362, Pitch_bend_c, 5, 8960
2, 184369, Pitch_bend_c, 5, 9088
2, 184376, Pitch_bend_c, 5, 9216
2, 184383, Pitch_bend_c, 5, 9344
2, 184390, Pitch_bend_c, 5, 9472
2, 184397, Pitch_bend_c, 5, 9600
2, 184400, Pitch_bend_c, 5, 9600
2, 184480, Pitch_bend_c, 5, 9600
2, 184560, Pitch_bend_c, 5, 9600
2, 184800, Pitch_bend_c, 5, 9600
2, 185280, Pitch_bend_c, 5, 9600
2, 185280, Pitch_bend_c, 5, 8192
2, 185280, Note_off_c, 5, 58, 95
2, 185760, Pitch_bend_c, 5, 8192
2, 185760, Note_on_c, 5, 54, 95
2, 185763, Pitch_bend_c, 5, 8320
2, 185766, Pitch_bend_c, 5, 8448
2, 185769, Pitch_bend_c, 5, 8576
2, 185772, Pitch_bend_c, 5, 8704
2, 185775, Pitch_bend_c, 5, 8832
2, 185778, Pitch_bend_c, 5, 8960
2, 185781, Pitch_bend_c, 5, 9088
2, 185784, Pitch_bend_c, 5, 9216
2, 185787, Pitch_bend_c, 5, 9344
2, 185790, Pitch_bend_c, 5, 9472
2, 185793, Pitch_bend_c, 5, 9600
2, 185800, Pitch_bend_c, 5, 9600
2, 185840, Pitch_bend_c, 5, 9600
2, 186000, Pitch_bend_c, 5, 9600
2, 186240, Pitch_bend_c, 5, 9600
2, 186240, Pitch_bend_c, 5, 8192
2, 186240, Note_off_c, 5, 54, 95
2, 186240, Note_on_c, 4, 63, 95
2, 186360, Note_off_c, 4, 63, 95
2, 186360, Note_on_c, 4, 65, 95
2, 186600, Note_off_c, 4, 65, 95
2, 186600, Note_on_c, 4, 63, 95
2, 187800, Note_off_c, 4, 63, 95
2, 187800, Note_on_c, 4, 61, 95
2, 187920, Note_off_c, 4, 61, 95
2, 187920, Note_on_c, 4, 59, 95
2, 188160, Note_off_c, 4, 59, 95
2, 188160, Note_on_c, 4, 61, 95
2, 189120, Note_off_c, 4, 61, 95
2, 191280, Pitch_bend_c, 5, 8192
2, 191280, Note_on_c, 5, 68, 95
2, 191287, Pitch_bend_c, 5, 8320
2, 191294, Pitch_bend_c, 5, 8448
2, 191301, Pitch_bend_c, 5, 8576
2, 191308, Pitch_bend_c, 5, 8704
2, 191315, Pitch_bend_c, 5, 8832
2, 191322, Pitch_bend_c, 5, 8960
2, 191329, Pitch_bend_c, 5, 9088
2, 191336, Pitch_bend_c, 5, 9216
2, 191343, Pitch_bend_c, 5, 9344
2, 191350, Pitch_bend_c, 5, 9472
2, 191357, Pitch_bend_c, 5, 9600
2, 191360, Pitch_bend_c, 5, 9600
2, 191520, Pitch_bend_c, 5, 9600
2, 191760, Pitch_bend_c, 5, 9600
2, 191760, Pitch_bend_c, 5, 8192
2, 191760, Note_off_c, 5, 68, 95
2, 191760, Note_on_c, 4, 66, 95
2, 192000, Note_off_c, 4, 66, 95
2, 192000, Note_on_c, 4, 66, 95
2, 192240, Note_off_c, 4, 66, 95
2, 193200, Note_on_c, 4, 66, 95
2, 193440, Note_off_c, 4, 66, 95
2, 193440, Note_on_c, 4, 66, 95
2, 193680, Note_off_c, 4, 66, 95
2, 193680, Pitch_bend_c, 5, 10240
2, 193680, Note_on_c, 5, 63, 95
2, 193840, Pitch_bend_c, 5, 10240
2, 193850, Pitch_bend_c, 5, 10112
2, 193860, Pitch_bend_c, 5, 9984
2, 193870, Pitch_bend_c, 5, 9856
2, 193880, Pitch_bend_c, 5, 9728
2, 193890, Pitch_bend_c, 5, 9600
2, 193900, Pitch_bend_c, 5, 9472
2, 193910, Pitch_bend_c, 5, 9344
2, 193920, Pitch_bend_c, 5, 9216
2, 193930, Pitch_bend_c, 5, 9088
2, 193940, Pitch_bend_c, 5, 8960
2, 193950, Pitch_bend_c, 5, 8832
2, 193960, Pitch_bend_c, 5, 8704
2, 193970, Pitch_bend_c, 5, 8576
2, 193980, Pitch_bend_c, 5, 8448
2, 193990, Pitch_bend_c, 5, 8320
2, 194000, Pitch_bend_c, 5, 8192
2, 194000, Pitch_bend_c, 5, 8192
2, 194320, Pitch_bend_c, 5, 8192
2, 194640, Pitch_bend_c, 5, 8192
2, 194640, Pitch_bend_c, 5, 8192
2, 194640, Note_off_c, 5, 63, 95
2, 194880, Note_on_c, 4, 66, 95
2, 195120, Note_off_c, 4, 66, 95
2, 195600, Note_on_c, 4, 61, 95
2, 195840, Note_off_c, 4, 61, 95
2, 195840, Note_on_c, 4, 59, 95
2, 196080, Note_off_c, 4, 59, 95
2, 196080, Note_on_c, 4, 59, 95
2, 196560, Note_off_c, 4, 59, 95
2, 196560, Note_on_c, 4, 59, 95
2, 197040, Note_off_c, 4, 59, 95
2, 197040, Note_on_c, 4, 61, 95
2, 197280, Note_off_c, 4, 61, 95
2, 197280, Note_on_c, 4, 62, 95
2, 197520, Note_off_c, 4, 62, 95
2, 197520, Note_on_c, 4, 62, 95
2, 198000, Note_off_c, 4, 62, 95
2, 198000, Note_on_c, 4, 59, 95
2, 198120, Note_off_c, 4, 59, 95
2, 198120, Note_on_c, 4, 61, 95
2, 198240, Note_off_c, 4, 61, 95
2, 198240, Note_on_c, 4, 62, 95
2, 198360, Note_off_c, 4, 62, 95
2, 198360, Note_on_c, 4, 59, 95
2, 198480, Note_off_c, 4, 59, 95
2, 198480, Pitch_bend_c, 5, 8192
2, 198480, Note_on_c, 5, 64, 95
2, 198490, Pitch_bend_c, 5, 8320
2, 198500, Pitch_bend_c, 5, 8448
2, 198510, Pitch_bend_c, 5, 8576
2, 198520, Pitch_bend_c, 5, 8704
2, 198530, Pitch_bend_c, 5, 8832
2, 198540, Pitch_bend_c, 5, 8960
2, 198550, Pitch_bend_c, 5, 9088
2, 198560, Pitch_bend_c, 5, 9216
2, 198570, Pitch_bend_c, 5, 9344
2, 198580, Pitch_bend_c, 5, 9472
2, 198590, Pitch_bend_c, 5, 9600
2, 198600, Pitch_bend_c, 5, 9600
2, 198840, Pitch_bend_c, 5, 9600
2, 199200, Pitch_bend_c, 5, 9600
2, 199200, Pitch_bend_c, 5, 8192
2, 199200, Note_off_c, 5, 64, 95
2, 199680, Pitch_bend_c, 5, 8192
2, 199680, Note_on_c, 5, 56, 95
2, 199694, Pitch_bend_c, 5, 8320
2, 199708, Pitch_bend_c, 5, 8448
2, 199722, Pitch_bend_c, 5, 8576
2, 199736, Pitch_bend_c, 5, 8704
2, 199750, Pitch_bend_c, 5, 8832
2, 199764, Pitch_bend_c, 5, 8960
2, 199778, Pitch_bend_c, 5, 9088
2, 199792, Pitch_bend_c, 5, 9216
2, 199806, Pitch_bend_c, 5, 9344
2, 199820, Pitch_bend_c, 5, 9472
2, 199834, Pitch_bend_c, 5, 9600
2, 199840, Pitch_bend_c, 5, 9600
2, 200000, Pitch_bend_c, 5, 9600
2, 200640, Pitch_bend_c, 5, 9600
2, 201600, Pitch_bend_c, 5, 9600
2, 201600, Pitch_bend_c, 5, 8192
2, 201600, Note_off_c, 5, 56, 95
2, 201600, Note_on_c, 4, 56, 95
2, 202560, Note_off_c, 4, 56, 95
2, 202560, Note_on_c, 4, 56, 95
2, 203520, Note_off_c, 4, 56, 95
2, 203520, Pitch_bend_c, 5, 8192
2, 203520, Note_on_c, 5, 57, 95
2, 203529, Pitch_bend_c, 5, 8320
2, 203538, Pitch_bend_c, 5, 8448
2, 203547, Pitch_bend_c, 5, 8576
2, 203556, Pitch_bend_c, 5, 8704
2, 203565, Pitch_bend_c, 5, 8832
2, 203574, Pitch_bend_c, 5, 8960
2, 203583, Pitch_bend_c, 5, 9088
2, 203592, Pitch_bend_c, 5, 9216
2, 203601, Pitch_bend_c, 5, 9344
2, 203610, Pitch_bend_c, 5, 9472
2, 203619, Pitch_bend_c, 5, 9600
2, 203620, Pitch_bend_c, 5, 9600
2, 203720, Pitch_bend_c, 5, 9600
2, 204120, Pitch_bend_c, 5, 9600
2, 204720, Pitch_bend_c, 5, 9600
2, 204720, Pitch_bend_c, 5, 8192
2, 204720, Note_off_c, 5, 57, 95
2, 204720, Note_on_c, 4, 61, 95
2, 204960, Note_off_c, 4, 61, 95
2, 204960, Note_on_c, 4, 59, 95
2, 205200, Note_off_c, 4, 59, 95
2, 205200, Note_on_c, 4, 58, 95
2, 205920, Note_off_c, 4, 58, 95
2, 208560, Note_on_c, 4, 61, 95
2, 208800, Note_off_c, 4, 61, 95
2, 208800, Note_on_c, 4, 59, 95
2, 209040, Note_off_c, 4, 59, 95
2, 209040, Note_on_c, 4, 58, 95
2, 209520, Note_off_c, 4, 58, 95
2, 210480, Note_on_c, 4, 61, 95
2, 210720, Note_off_c, 4, 61, 95
2, 210720, Note_on_c, 4, 59, 95
2, 210960, Note_off_c, 4, 59, 95
2, 210960, Note_on_c, 4, 58, 95
2, 211440, Note_off_c, 4, 58, 95
2, 212400, Note_on_c, 4, 61, 95
2, 212640, Note_off_c, 4, 61, 95
2, 212640, Note_on_c, 4, 59, 95
2, 212880, Note_off_c, 4, 59, 95
2, 212880, Note_on_c, 4, 58, 95
2, 213360, Note_off_c, 4, 58, 95
2, 213360, Note_on_c, 4, 58, 95
2, 213840, Note_off_c, 4, 58, 95
2, 213840, Note_on_c, 4, 58, 95
2, 214320, Note_off_c, 4, 58, 95
2, 214320, Note_on_c, 4, 59, 95
2, 214560, Note_off_c, 4, 59, 95
2, 214560, Note_on_c, 4, 61, 95
2, 214800, Note_off_c, 4, 61, 95
2, 214800, Pitch_bend_c, 5, 8192
2, 214800, Note_on_c, 5, 60, 95
2, 214807, Pitch_bend_c, 5, 8320
2, 214814, Pitch_bend_c, 5, 8448
2, 214821, Pitch_bend_c, 5, 8576
2, 214828, Pitch_bend_c, 5, 8704
2, 214835, Pitch_bend_c, 5, 8832
2, 214842, Pitch_bend_c, 5, 8960
2, 214849, Pitch_bend_c, 5, 9088
2, 214856, Pitch_bend_c, 5, 9216
2, 214863, Pitch_bend_c, 5, 9344
2, 214870, Pitch_bend_c, 5, 9472
2, 214877, Pitch_bend_c, 5, 9600
2, 214880, Pitch_bend_c, 5, 9600
2, 215040, Pitch_bend_c, 5, 9600
2, 215280, Pitch_bend_c, 5, 9600
2, 215280, Pitch_bend_c, 5, 8192
2, 215280, Note_off_c, 5, 60, 95
2, 215280, Note_on_c, 4, 58, 95
2, 215520, Note_off_c, 4, 58, 95
2, 215520, Pitch_bend_c, 5, 9600
2, 215520, Note_on_c, 5, 54, 95
2, 215600, Pitch_bend_c, 5, 9600
2, 215680, Pitch_bend_c, 5, 9600
2, 215694, Pitch_bend_c, 5, 9472
2, 215708, Pitch_bend_c, 5, 9344
2, 215722, Pitch_bend_c, 5, 9216
2, 215736, Pitch_bend_c, 5, 9088
2, 215750, Pitch_bend_c, 5, 8960
2, 215764, Pitch_bend_c, 5, 8832
2, 215778, Pitch_bend_c, 5, 8704
2, 215792, Pitch_bend_c, 5, 8576
2, 215806, Pitch_bend_c, 5, 8448
2, 215820, Pitch_bend_c, 5, 8320
2, 215834, Pitch_bend_c, 5, 8192
2, 215840, Pitch_bend_c, 5, 8192
2, 216160, Pitch_bend_c, 5, 8192
2, 216480, Pitch_bend_c, 5, 8192
2, 216480, Pitch_bend_c, 5, 8192
2, 216480, Note_off_c, 5, 54, 95
2, 216480, Note_on_c, 4, 58, 95
2, 216720, Note_off_c, 4, 58, 95
2, 216960, Pitch_bend_c, 5, 8192
2, 216960, Note_on_c, 5, 56, 95
2, 216974, Pitch_bend_c, 5, 8320
2, 216988, Pitch_bend_c, 5, 8448
2, 217002, Pitch_bend_c, 5, 8576
2, 217016, Pitch_bend_c, 5, 8704
2, 217030, Pitch_bend_c, 5, 8832
2, 217044, Pitch_bend_c, 5, 8960
2, 217058, Pitch_bend_c, 5, 9088
2, 217072, Pitch_bend_c, 5, 9216
2, 217086, Pitch_bend_c, 5, 9344
2, 217100, Pitch_bend_c, 5, 9472
2, 217114, Pitch_bend_c, 5, 9600
2, 217120, Pitch_bend_c, 5, 9600
2, 217280, Pitch_bend_c, 5, 9600
2, 217920, Pitch_bend_c, 5, 9600
2, 218880, Pitch_bend_c, 5, 9600
2, 218880, Pitch_bend_c, 5, 8192
2, 218880, Note_off_c, 5, 56, 95
2, 218880, Note_on_c, 4, 56, 95
2, 219840, Note_off_c, 4, 56, 95
2, 219840, Note_on_c, 4, 56, 95
2, 220800, Note_off_c, 4, 56, 95
2, 220800, Pitch_bend_c, 5, 8192
2, 220800, Note_on_c, 5, 57, 95
2, 220809, Pitch_bend_c, 5, 8320
2, 220818, Pitch_bend_c, 5, 8448
2, 220827, Pitch_bend_c, 5, 8576
2, 220836, Pitch_bend_c, 5, 8704
2, 220845, Pitch_bend_c, 5, 8832
2, 220854, Pitch_bend_c, 5, 8960
2, 220863, Pitch_bend_c, 5, 9088
2, 220872, Pitch_bend_c, 5, 9216
2, 220881, Pitch_bend_c, 5, 9344
2, 220890, Pitch_bend_c, 5, 9472
2, 220899, Pitch_bend_c, 5, 9600
2, 220900, Pitch_bend_c, 5, 9600
2, 221000, Pitch_bend_c, 5, 9600
2, 221400, Pitch_bend_c, 5, 9600
2, 222000, Pitch_bend_c, 5, 9600
2, 222000, Pitch_bend_c, 5, 8192
2, 222000, Note_off_c, 5, 57, 95
2, 222000, Note_on_c, 4, 61, 95
2, 222240, Note_off_c, 4, 61, 95
2, 222240, Note_on_c, 4, 59, 95
2, 222480, Note_off_c, 4, 59, 95
2, 222480, Note_on_c, 4, 58, 95
2, 223200, Note_off_c, 4, 58, 95
2, 227040, Note_on_c, 4, 66, 95
2, 227520, Note_off_c, 4, 66, 95
2, 227520, Pitch_bend_c, 5, 8192
2, 227520, Note_on_c, 5, 68, 95
2, 227527, Pitch_bend_c, 5, 8320
2, 227534, Pitch_bend_c, 5, 8448
2, 227541, Pitch_bend_c, 5, 8576
2, 227548, Pitch_bend_c, 5, 8704
2, 227555, Pitch_bend_c, 5, 8832
2, 227562, Pitch_bend_c, 5, 8960
2, 227569, Pitch_bend_c, 5, 9088
2, 227576, Pitch_bend_c, 5, 9216
2, 227583, Pitch_bend_c, 5, 9344
2, 227590, Pitch_bend_c, 5, 9472
2, 227597, Pitch_bend_c, 5, 9600
2, 227600, Pitch_bend_c, 5, 9600
2, 227760, Pitch_bend_c, 5, 9600
2, 228000, Pitch_bend_c, 5, 9600
2, 228000, Pitch_bend_c, 5, 8192
2, 228000, Note_off_c, 5, 68, 95
2, 228000, Note_on_c, 4, 68, 95
2, 228240, Note_off_c, 4, 68, 95
2, 228240, Note_on_c, 4, 66, 95
2, 228480, Note_off_c, 4, 66, 95
2, 228480, Pitch_bend_c, 5, 8192
2, 228480, Note_on_c, 5, 64, 95
2, 228487, Pitch_bend_c, 5, 8320
2, 228494, Pitch_bend_c, 5, 8448
2, 228501, Pitch_bend_c, 5, 8576
2, 228508, Pitch_bend_c, 5, 8704
2, 228515, Pitch_bend_c, 5, 8832
2, 228522, Pitch_bend_c, 5, 8960
2, 228529, Pitch_bend_c, 5, 9088
2, 228536, Pitch_bend_c, 5, 9216
2, 228543, Pitch_bend_c, 5, 9344
2, 228550, Pitch_bend_c, 5, 9472
2, 228557, Pitch_bend_c, 5, 9600
2, 228560, Pitch_bend_c, 5, 9600
2, 228720, Pitch_bend_c, 5, 9600
2, 228960, Pitch_bend_c, 5, 9600
2, 228960, Pitch_bend_c, 5, 8192
2, 228960, Note_off_c, 5, 64, 95
2, 228960, Pitch_bend_c, 5, 8192
2, 228960, Note_on_c, 5, 61, 95
2, 228963, Pitch_bend_c, 5, 8320
2, 228966, Pitch_bend_c, 5, 8448
2, 228969, Pitch_bend_c, 5, 8576
2, 228972, Pitch_bend_c, 5, 8704
2, 228975, Pitch_bend_c, 5, 8832
2, 228978, Pitch_bend_c, 5, 8960
2, 228981, Pitch_bend_c, 5, 9088
2, 228984, Pitch_bend_c, 5, 9216
2, 228987, Pitch_bend_c, 5, 9344
2, 228990, Pitch_bend_c, 5, 9472
2, 228993, Pitch_bend_c, 5, 9600
2, 229000, Pitch_bend_c, 5, 9600
2, 229080, Pitch_bend_c, 5, 9600
2, 229200, Pitch_bend_c, 5, 9600
2, 229200, Pitch_bend_c, 5, 8192
2, 229200, Note_off_c, 5, 61, 95
2, 230880, Note_on_c, 4, 66, 95
2, 231360, Note_off_c, 4, 66, 95
2, 231360, Pitch_bend_c, 5, 8192
2, 231360, Note_on_c, 5, 68, 95
2, 231367, Pitch_bend_c, 5, 8320
2, 231374, Pitch_bend_c, 5, 8448
2, 231381, Pitch_bend_c, 5, 8576
2, 231388, Pitch_bend_c, 5, 8704
2, 231395, Pitch_bend_c, 5, 8832
2, 231402, Pitch_bend_c, 5, 8960
2, 231409, Pitch_bend_c, 5, 9088
2, 231416, Pitch_bend_c, 5, 9216
2, 231423, Pitch_bend_c, 5, 9344
2, 231430, Pitch_bend_c, 5, 9472
2, 231437, Pitch_bend_c, 5, 9600
2, 231440, Pitch_bend_c, 5, 9600
2, 231600, Pitch_bend_c, 5, 9600
2, 231840, Pitch_bend_c, 5, 9600
2, 231840, Pitch_bend_c, 5, 8192
2, 231840, Note_off_c, 5, 68, 95
2, 231840, Note_on_c, 4, 68, 95
2, 232080, Note_off_c, 4, 68, 95
2, 232080, Note_on_c, 4, 66, 95
2, 232320, Note_off_c, 4, 66, 95
2, 232320, Note_on_c, 4, 66, 95
2, 232560, Note_off_c, 4, 66, 95
2, 232560, Note_on_c, 4, 63, 95
2, 233040, Note_off_c, 4, 63, 95
2, 233040, Note_on_c, 4, 66, 95
2, 233520, Note_off_c, 4, 66, 95
2, 233520, Note_on_c, 4, 66, 95
2, 234000, Note_off_c, 4, 66, 95
2, 234000, Pitch_bend_c, 5, 8192
2, 234000, Note_on_c, 5, 66, 95
2, 234014, Pitch_bend_c, 5, 8320
2, 234028, Pitch_bend_c, 5, 8448
2, 234042, Pitch_bend_c, 5, 8576
2, 234056, Pitch_bend_c, 5, 8704
2, 234070, Pitch_bend_c, 5, 8832
2, 234084, Pitch_bend_c, 5, 8960
2, 234098, Pitch_bend_c, 5, 9088
2, 234112, Pitch_bend_c, 5, 9216
2, 234126, Pitch_bend_c, 5, 9344
2, 234140, Pitch_bend_c, 5, 9472
2, 234154, Pitch_bend_c, 5, 9600
2, 234160, Pitch_bend_c, 5, 9600
2, 234480, Pitch_bend_c, 5, 9600
2, 234960, Pitch_bend_c, 5, 9600
2, 234960, Pitch_bend_c, 5, 8192
2, 234960, Note_off_c, 5, 66, 95
2, 234960, Note_on_c, 4, 70, 95
2, 235200, Note_off_c, 4, 70, 95
2, 235200, Note_on_c, 4, 66, 95
2, 236160, Note_off_c, 4, 66, 95
2, 237600, Pitch_bend_c, 5, 8192
2, 237600, Note_on_c, 5, 64, 95
2, 237607, Pitch_bend_c, 5, 8320
2, 237614, Pitch_bend_c, 5, 8448
2, 237621, Pitch_bend_c, 5, 8576
2, 237628, Pitch_bend_c, 5, 8704
2, 237635, Pitch_bend_c, 5, 8832
2, 237642, Pitch_bend_c, 5, 8960
2, 237649, Pitch_bend_c, 5, 9088
2, 237656, Pitch_bend_c, 5, 9216
2, 237663, Pitch_bend_c, 5, 9344
2, 237670, Pitch_bend_c, 5, 9472
2, 237677, Pitch_bend_c, 5, 9600
2, 237680, Pitch_bend_c, 5, 9600
2, 237840, Pitch_bend_c, 5, 9600
2, 238080, Pitch_bend_c, 5, 9600
2, 238080, Pitch_bend_c, 5, 8192
2, 238080, Note_off_c, 5, 64, 95
2, 239280, Note_on_c, 4, 66, 95
2, 239760, Note_off_c, 4, 66, 95
2, 239760, Note_on_c, 4, 61, 95
2, 240000, Note_off_c, 4, 61, 95
2, 240000, Note_on_c, 4, 66, 95
2, 241440, Note_off_c, 4, 66, 95
2, 241440, Note_on_c, 4, 66, 95
2, 241680, Note_off_c, 4, 66, 95
2, 241680, Note_on_c, 4, 66, 95
2, 242640, Note_off_c, 4, 66, 95
2, 243360, Note_on_c, 4, 63, 95
2, 243600, Note_off_c, 4, 63, 95
2, 243600, Note_on_c, 4, 66, 95
2, 243840, Note_off_c, 4, 66, 95
2, 243840, Pitch_bend_c, 5, 8192
2, 243840, Note_on_c, 5, 68, 95
2, 243847, Pitch_bend_c, 5, 8320
2, 243854, Pitch_bend_c, 5, 8448
2, 243861, Pitch_bend_c, 5, 8576
2, 243868, Pitch_bend_c, 5, 8704
2, 243875, Pitch_bend_c, 5, 8832
2, 243882, Pitch_bend_c, 5, 8960
2, 243889, Pitch_bend_c, 5, 9088
2, 243896, Pitch_bend_c, 5, 9216
2, 243903, Pitch_bend_c, 5, 9344
2, 243910, Pitch_bend_c, 5, 9472
2, 243917, Pitch_bend_c, 5, 9600
2, 243920, Pitch_bend_c, 5, 9600
2, 244080, Pitch_bend_c, 5, 9600
2, 244320, Pitch_bend_c, 5, 9600
2, 244320, Pitch_bend_c, 5, 8192
2, 244320, Note_off_c, 5, 68, 95
2, 244320, Note_on_c, 4, 68, 95
2, 244560, Note_off_c, 4, 68, 95
2, 244560, Note_on_c, 4, 66, 95
2, 244800, Note_off_c, 4, 66, 95
2, 244800, Note_on_c, 4, 66, 95
2, 245280, Note_off_c, 4, 66, 95
2, 246240, Note_on_c, 4, 63, 95
2, 246480, Note_off_c, 4, 63, 95
2, 246480, Note_on_c, 4, 66, 95
2, 246720, Note_off_c, 4, 66, 95
2, 246720, Note_on_c, 4, 70, 95
2, 246960, Note_off_c, 4, 70, 95
2, 246960, Note_on_c, 4, 68, 95
2, 247200, Note_off_c, 4, 68, 95
2, 247440, Note_on_c, 4, 68, 95
2, 247680, Note_off_c, 4, 68, 95
2, 247920, Note_on_c, 4, 66, 95
2, 248160, Note_off_c, 4, 66, 95
2, 248400, Note_on_c, 4, 66, 95
2, 248640, Note_off_c, 4, 66, 95
2, 248880, Note_on_c, 4, 63, 95
2, 249120, Note_off_c, 4, 63, 95
2, 249360, Pitch_bend_c, 5, 8192
2, 249360, Note_on_c, 5, 66, 95
2, 249381, Pitch_bend_c, 5, 8320
2, 249402, Pitch_bend_c, 5, 8448
2, 249423, Pitch_bend_c, 5, 8576
2, 249444, Pitch_bend_c, 5, 8704
2, 249465, Pitch_bend_c, 5, 8832
2, 249486, Pitch_bend_c, 5, 8960
2, 249507, Pitch_bend_c, 5, 9088
2, 249528, Pitch_bend_c, 5, 9216
2, 249549, Pitch_bend_c, 5, 9344
2, 249570, Pitch_bend_c, 5, 9472
2, 249591, Pitch_bend_c, 5, 9600
2, 249600, Pitch_bend_c, 5, 9600
2, 249840, Pitch_bend_c, 5, 9600
2, 250320, Pitch_bend_c, 5, 9600
2, 250320, Pitch_bend_c, 5, 8192
2, 250320, Note_off_c, 5, 66, 95
2, 250320, Note_on_c, 4, 70, 95
2, 250560, Note_off_c, 4, 70, 95
2, 250560, Note_on_c, 4, 66, 95
2, 251040, Note_off_c, 4, 66, 95
2, 251520, Pitch_bend_c, 5, 8192
2, 251520, Note_on_c, 5, 56, 95
2, 251534, Pitch_bend_c, 5, 8320
2, 251548, Pitch_bend_c, 5, 8448
2, 251562, Pitch_bend_c, 5, 8576
2, 251576, Pitch_bend_c, 5, 8704
2, 251590, Pitch_bend_c, 5, 8832
2, 251604, Pitch_bend_c, 5, 8960
2, 251618, Pitch_bend_c, 5, 9088
2, 251632, Pitch_bend_c, 5, 9216
2, 251646, Pitch_bend_c, 5, 9344
2, 251660, Pitch_bend_c, 5, 9472
2, 251674, Pitch_bend_c, 5, 9600
2, 251680, Pitch_bend_c, 5, 9600
2, 251840, Pitch_bend_c, 5, 9600
2, 252480, Pitch_bend_c, 5, 9600
2, 253440, Pitch_bend_c, 5, 9600
2, 253440, Pitch_bend_c, 5, 8192
2, 253440, Note_off_c, 5, 56, 95
2, 253440, Note_on_c, 4, 56, 95
2, 254400, Note_off_c, 4, 56, 95
2, 254400, Note_on_c, 4, 56, 95
2, 255360, Note_off_c, 4, 56, 95
2, 255360, Pitch_bend_c, 5, 8192
2, 255360, Note_on_c, 5, 57, 95
2, 255369, Pitch_bend_c, 5, 8320
2, 255378, Pitch_bend_c, 5, 8448
2, 255387, Pitch_bend_c, 5, 8576
2, 255396, Pitch_bend_c, 5, 8704
2, 255405, Pitch_bend_c, 5, 8832
2, 255414, Pitch_bend_c, 5, 8960
2, 255423, Pitch_bend_c, 5, 9088
2, 255432, Pitch_bend_c, 5, 9216
2, 255441, Pitch_bend_c, 5, 9344
2, 255450, Pitch_bend_c, 5, 9472
2, 255459, Pitch_bend_c, 5, 9600
2, 255460, Pitch_bend_c, 5, 9600
2, 255560, Pitch_bend_c, 5, 9600
2, 255960, Pitch_bend_c, 5, 9600
2, 256560, Pitch_bend_c, 5, 9600
2, 256560, Pitch_bend_c, 5, 8192
2, 256560, Note_off_c, 5, 57, 95
2, 256560, Note_on_c, 4, 61, 95
2, 256800, Note_off_c, 4, 61, 95
2, 256800, Note_on_c, 4, 59, 95
2, 257040, Note_off_c, 4, 59, 95
2, 257040, Note_on_c, 4, 58, 95
2, 258240, Note_off_c, 4, 58, 95
2, 258720, Note_on_c, 4, 63, 95
2, 258960, Note_off_c, 4, 63, 95
2, 258960, Note_on_c, 4, 66, 95
2, 259200, Note_off_c, 4, 66, 95
2, 259200, Pitch_bend_c, 5, 8192
2, 259200, Note_on_c, 5, 68, 95
2, 259207, Pitch_bend_c, 5, 8320
2, 259214, Pitch_bend_c, 5, 8448
2, 259221, Pitch_bend_c, 5, 8576
2, 259228, Pitch_bend_c, 5, 8704
2, 259235, Pitch_bend_c, 5, 8832
2, 259242, Pitch_bend_c, 5, 8960
2, 259249, Pitch_bend_c, 5, 9088
2, 259256, Pitch_bend_c, 5, 9216
2, 259263, Pitch_bend_c, 5, 9344
2, 259270, Pitch_bend_c, 5, 9472
2, 259277, Pitch_bend_c, 5, 9600
2, 259280, Pitch_bend_c, 5, 9600
2, 259440, Pitch_bend_c, 5, 9600
2, 259680, Pitch_bend_c, 5, 9600
2, 259680, Pitch_bend_c, 5, 8192
2, 259680, Note_off_c, 5, 68, 95
2, 259680, Note_on_c, 4, 68, 95
2, 259920, Note_off_c, 4, 68, 95
2, 259920, Note_on_c, 4, 66, 95
2, 260160, Note_off_c, 4, 66, 95
2, 260160, Note_on_c, 4, 66, 95
2, 260640, Note_off_c, 4, 66, 95
2, 261600, Note_on_c, 4, 63, 95
2, 261840, Note_off_c, 4, 63, 95
2, 261840, Note_on_c, 4, 66, 95
2, 262080, Note_off_c, 4, 66, 95
2, 262080, Note_on_c, 4, 70, 95
2, 262560, Note_off_c, 4, 70, 95
2, 262560, Note_on_c, 4, 68, 95
2, 263040, Note_off_c, 4, 68, 95
2, 263040, Note_on_c, 4, 68, 95
2, 263280, Note_off_c, 4, 68, 95
2, 263280, Note_on_c, 4, 66, 95
2, 263760, Note_off_c, 4, 66, 95
2, 263760, Note_on_c, 4, 66, 95
2, 264240, Note_off_c, 4, 66, 95
2, 264240, Note_on_c, 4, 63, 95
2, 264480, Note_off_c, 4, 63, 95
2, 264720, Pitch_bend_c, 5, 8192
2, 264720, Note_on_c, 5, 66, 95
2, 264741, Pitch_bend_c, 5, 8320
2, 264762, Pitch_bend_c, 5, 8448
2, 264783, Pitch_bend_c, 5, 8576
2, 264804, Pitch_bend_c, 5, 8704
2, 264825, Pitch_bend_c, 5, 8832
2, 264846, Pitch_bend_c, 5, 8960
2, 264867, Pitch_bend_c, 5, 9088
2, 264888, Pitch_bend_c, 5, 9216
2, 264909, Pitch_bend_c, 5, 9344
2, 264930, Pitch_bend_c, 5, 9472
2, 264951, Pitch_bend_c, 5, 9600
2, 264960, Pitch_bend_c, 5, 9600
2, 265200, Pitch_bend_c, 5, 9600
2, 265680, Pitch_bend_c, 5, 9600
2, 265680, Pitch_bend_c, 5, 8192
2, 265680, Note_off_c, 5, 66, 95
2, 265680, Note_on_c, 4, 70, 95
2, 265920, Note_off_c, 4, 70, 95
2, 265920, Note_on_c, 4, 66, 95
2, 266400, Note_off_c, 4, 66, 95
2, 266880, Pitch_bend_c, 5, 8192
2, 266880, Note_on_c, 5, 56, 95
2, 266894, Pitch_bend_c, 5, 8320
2, 266908, Pitch_bend_c, 5, 8448
2, 266922, Pitch_bend_c, 5, 8576
2, 266936, Pitch_bend_c, 5, 8704
2, 266950, Pitch_bend_c, 5, 8832
2, 266964, Pitch_bend_c, 5, 8960
2, 266978, Pitch_bend_c, 5, 9088
2, 266992, Pitch_bend_c, 5, 9216
2, 267006, Pitch_bend_c, 5, 9344
2, 267020, Pitch_bend_c, 5, 9472
2, 267034, Pitch_bend_c, 5, 9600
2, 267040, Pitch_bend_c, 5, 9600
2, 267200, Pitch_bend_c, 5, 9600
2, 267840, Pitch_bend_c, 5, 9600
2, 268800, Pitch_bend_c, 5, 9600
2, 268800, Pitch_bend_c, 5, 8192
2, 268800, Note_off_c, 5, 56, 95
2, 268800, Note_on_c, 4, 56, 95
2, 269760, Note_off_c, 4, 56, 95
2, 269760, Note_on_c, 4, 56, 95
2, 270720, Note_off_c, 4, 56, 95
2, 270720, Pitch_bend_c, 5, 8192
2, 270720, Note_on_c, 5, 57, 95
2, 270729, Pitch_bend_c, 5, 8320
2, 270738, Pitch_bend_c, 5, 8448
2, 270747, Pitch_bend_c, 5, 8576
2, 270756, Pitch_bend_c, 5, 8704
2, 270765, Pitch_bend_c, 5, 8832
2, 270774, Pitch_bend_c, 5, 8960
2, 270783, Pitch_bend_c, 5, 9088
2, 270792, Pitch_bend_c, 5, 9216
2, 270801, Pitch_bend_c, 5, 9344
2, 270810, Pitch_bend_c, 5, 9472
2, 270819, Pitch_bend_c, 5, 9600
2, 270820, Pitch_bend_c, 5, 9600
2, 270920, Pitch_bend_c, 5, 9600
2, 271320, Pitch_bend_c, 5, 9600
2, 271920, Pitch_bend_c, 5, 9600
2, 271920, Pitch_bend_c, 5, 8192
2, 271920, Note_off_c, 5, 57, 95
2, 271920, Note_on_c, 4, 61, 95
2, 272160, Note_off_c, 4, 61, 95
2, 272160, Note_on_c, 4, 59, 95
2, 272400, Note_off_c, 4, 59, 95
2, 272400, Note_on_c, 4, 58, 95
2, 273600, Note_off_c, 4, 58, 95
2, 273600, End_track
3, 0, Start_track
3, 0, Pitch_bend_c, 0, 8192
3, 0, Control_c, 0, 7, 127
3, 0, Control_c, 0, 10, 47
3, 0, Control_c, 0, 93, 0
3, 0, Control_c, 0, 91, 0
3, 0, Control_c, 0, 95, 0
3, 0, Control_c, 0, 92, 0
3, 0, Control_c, 0, 11, 127
3, 0, Program_c, 0, 77
3, 0, Control_c, 1, 7, 127
3, 0, Control_c, 1, 10, 47
3, 0, Control_c, 1, 93, 0
3, 0, Control_c, 1, 91, 0
3, 0, Control_c, 1, 95, 0
3, 0, Control_c, 1, 92, 0
3, 0, Control_c, 1, 11, 127
3, 0, Program_c, 1, 77
3, 76800, Pitch_bend_c, 1, 8192
3, 76800, Note_on_c, 1, 59, 95
3, 76814, Pitch_bend_c, 1, 8320
3, 76828, Pitch_bend_c, 1, 8448
3, 76842, Pitch_bend_c, 1, 8576
3, 76856, Pitch_bend_c, 1, 8704
3, 76870, Pitch_bend_c, 1, 8832
3, 76884, Pitch_bend_c, 1, 8960
3, 76898, Pitch_bend_c, 1, 9088
3, 76912, Pitch_bend_c, 1, 9216
3, 76926, Pitch_bend_c, 1, 9344
3, 76940, Pitch_bend_c, 1, 9472
3, 76954, Pitch_bend_c, 1, 9600
3, 76960, Pitch_bend_c, 1, 9600
3, 77120, Pitch_bend_c, 1, 9600
3, 77760, Pitch_bend_c, 1, 9600
3, 78720, Pitch_bend_c, 1, 9600
3, 78720, Pitch_bend_c, 1, 8192
3, 78720, Note_off_c, 1, 59, 95
3, 78720, Note_on_c, 0, 61, 95
3, 79680, Note_off_c, 0, 61, 95
3, 79680, Note_on_c, 0, 61, 95
3, 80640, Note_off_c, 0, 61, 95
3, 80640, Pitch_bend_c, 1, 8192
3, 80640, Note_on_c, 1, 61, 95
3, 80649, Pitch_bend_c, 1, 8320
3, 80658, Pitch_bend_c, 1, 8448
3, 80667, Pitch_bend_c, 1, 8576
3, 80676, Pitch_bend_c, 1, 8704
3, 80685, Pitch_bend_c, 1, 8832
3, 80694, Pitch_bend_c, 1, 8960
3, 80703, Pitch_bend_c, 1, 9088
3, 80712, Pitch_bend_c, 1, 9216
3, 80721, Pitch_bend_c, 1, 9344
3, 80730, Pitch_bend_c, 1, 9472
3, 80739, Pitch_bend_c, 1, 9600
3, 80740, Pitch_bend_c, 1, 9600
3, 80840, Pitch_bend_c, 1, 9600
3, 81240, Pitch_bend_c, 1, 9600
3, 81840, Pitch_bend_c, 1, 9600
3, 81840, Pitch_bend_c, 1, 8192
3, 81840, Note_off_c, 1, 61, 95
3, 81840, Note_on_c, 0, 65, 95
3, 82080, Note_off_c, 0, 65, 95
3, 82080, Note_on_c, 0, 63, 95
3, 82320, Note_off_c, 0, 63, 95
3, 82320, Note_on_c, 0, 61, 95
3, 83040, Note_off_c, 0, 61, 95
3, 94080, Pitch_bend_c, 1, 8192
3, 94080, Note_on_c, 1, 59, 95
3, 94094, Pitch_bend_c, 1, 8320
3, 94108, Pitch_bend_c, 1, 8448
3, 94122, Pitch_bend_c, 1, 8576
3, 94136, Pitch_bend_c, 1, 8704
3, 94150, Pitch_bend_c, 1, 8832
3, 94164, Pitch_bend_c, 1, 8960
3, 94178, Pitch_bend_c, 1, 9088
3, 94192, Pitch_bend_c, 1, 9216
3, 94206, Pitch_bend_c, 1, 9344
3, 94220, Pitch_bend_c, 1, 9472
3, 94234, Pitch_bend_c, 1, 9600
3, 94240, Pitch_bend_c, 1, 9600
3, 94400, Pitch_bend_c, 1, 9600
3, 95040, Pitch_bend_c, 1, 9600
3, 96000, Pitch_bend_c, 1, 9600
3, 96000, Pitch_bend_c, 1, 8192
3, 96000, Note_off_c, 1, 59, 95
3, 96000, Note_on_c, 0, 61, 95
3, 96960, Note_off_c, 0, 61, 95
3, 96960, Note_on_c, 0, 61, 95
3, 97920, Note_off_c, 0, 61, 95
3, 97920, Pitch_bend_c, 1, 8192
3, 97920, Note_on_c, 1, 61, 95
3, 97929, Pitch_bend_c, 1, 8320
3, 97938, Pitch_bend_c, 1, 8448
3, 97947, Pitch_bend_c, 1, 8576
3, 97956, Pitch_bend_c, 1, 8704
3, 97965, Pitch_bend_c, 1, 8832
3, 97974, Pitch_bend_c, 1, 8960
3, 97983, Pitch_bend_c, 1, 9088
3, 97992, Pitch_bend_c, 1, 9216
3, 98001, Pitch_bend_c, 1, 9344
3, 98010, Pitch_bend_c, 1, 9472
3, 98019, Pitch_bend_c, 1, 9600
3, 98020, Pitch_bend_c, 1, 9600
3, 98120, Pitch_bend_c, 1, 9600
3, 98520, Pitch_bend_c, 1, 9600
3, 99120, Pitch_bend_c, 1, 9600
3, 99120, Pitch_bend_c, 1, 8192
3, 99120, Note_off_c, 1, 61, 95
3, 99120, Note_on_c, 0, 65, 95
3, 99360, Note_off_c, 0, 65, 95
3, 99360, Note_on_c, 0, 63, 95
3, 99600, Note_off_c, 0, 63, 95
3, 99600, Note_on_c, 0, 61, 95
3, 100320, Note_off_c, 0, 61, 95
3, 119040, Pitch_bend_c, 1, 8192
3, 119040, Note_on_c, 1, 68, 95
3, 119054, Pitch_bend_c, 1, 8320
3, 119068, Pitch_bend_c, 1, 8448
3, 119082, Pitch_bend_c, 1, 8576
3, 119096, Pitch_bend_c, 1, 8704
3, 119110, Pitch_bend_c, 1, 8832
3, 119124, Pitch_bend_c, 1, 8960
3, 119138, Pitch_bend_c, 1, 9088
3, 119152, Pitch_bend_c, 1, 9216
3, 119166, Pitch_bend_c, 1, 9344
3, 119180, Pitch_bend_c, 1, 9472
3, 119194, Pitch_bend_c, 1, 9600
3, 119200, Pitch_bend_c, 1, 9600
3, 119200, Pitch_bend_c, 1, 9600
3, 119360, Pitch_bend_c, 1, 9600
3, 120000, Pitch_bend_c, 1, 9600
3, 120960, Pitch_bend_c, 1, 9600
3, 120960, Pitch_bend_c, 1, 8192
3, 120960, Note_off_c, 1, 68, 95
3, 120960, Pitch_bend_c, 1, 8192
3, 120960, Note_on_c, 1, 66, 95
3, 120974, Pitch_bend_c, 1, 8320
3, 120988, Pitch_bend_c, 1, 8448
3, 121002, Pitch_bend_c, 1, 8576
3, 121016, Pitch_bend_c, 1, 8704
3, 121030, Pitch_bend_c, 1, 8832
3, 121044, Pitch_bend_c, 1, 8960
3, 121058, Pitch_bend_c, 1, 9088
3, 121072, Pitch_bend_c, 1, 9216
3, 121086, Pitch_bend_c, 1, 9344
3, 121100, Pitch_bend_c, 1, 9472
3, 121114, Pitch_bend_c, 1, 9600
3, 121120, Pitch_bend_c, 1, 9600
3, 121120, Pitch_bend_c, 1, 9600
3, 121280, Pitch_bend_c, 1, 9600
3, 121440, Pitch_bend_c, 1, 9600
3, 121920, Pitch_bend_c, 1, 9600
3, 122880, Pitch_bend_c, 1, 9600
3, 122880, Pitch_bend_c, 1, 8192
3, 122880, Note_off_c, 1, 66, 95
3, 122880, Pitch_bend_c, 1, 8192
3, 122880, Note_on_c, 1, 66, 95
3, 122901, Pitch_bend_c, 1, 8320
3, 122922, Pitch_bend_c, 1, 8448
3, 122943, Pitch_bend_c, 1, 8576
3, 122964, Pitch_bend_c, 1, 8704
3, 122985, Pitch_bend_c, 1, 8832
3, 123006, Pitch_bend_c, 1, 8960
3, 123027, Pitch_bend_c, 1, 9088
3, 123048, Pitch_bend_c, 1, 9216
3, 123069, Pitch_bend_c, 1, 9344
3, 123090, Pitch_bend_c, 1, 9472
3, 123111, Pitch_bend_c, 1, 9600
3, 123120, Pitch_bend_c, 1, 9600
3, 123360, Pitch_bend_c, 1, 9600
3, 123600, Pitch_bend_c, 1, 9600
3, 124320, Pitch_bend_c, 1, 9600
3, 125760, Pitch_bend_c, 1, 9600
3, 125760, Pitch_bend_c, 1, 8192
3, 125760, Note_off_c, 1, 66, 95
3, 136320, Pitch_bend_c, 1, 8192
3, 136320, Note_on_c, 1, 59, 95
3, 136334, Pitch_bend_c, 1, 8320
3, 136348, Pitch_bend_c, 1, 8448
3, 136362, Pitch_bend_c, 1, 8576
3, 136376, Pitch_bend_c, 1, 8704
3, 136390, Pitch_bend_c, 1, 8832
3, 136404, Pitch_bend_c, 1, 8960
3, 136418, Pitch_bend_c, 1, 9088
3, 136432, Pitch_bend_c, 1, 9216
3, 136446, Pitch_bend_c, 1, 9344
3, 136460, Pitch_bend_c, 1, 9472
3, 136474, Pitch_bend_c, 1, 9600
3, 136480, Pitch_bend_c, 1, 9600
3, 136640, Pitch_bend_c, 1, 9600
3, 137280, Pitch_bend_c, 1, 9600
3, 138240, Pitch_bend_c, 1, 9600
3, 138240, Pitch_bend_c, 1, 8192
3, 138240, Note_off_c, 1, 59, 95
3, 138240, Note_on_c, 0, 61, 95
3, 139200, Note_off_c, 0, 61, 95
3, 139200, Note_on_c, 0, 61, 95
3, 140160, Note_off_c, 0, 61, 95
3, 140160, Pitch_bend_c, 1, 8192
3, 140160, Note_on_c, 1, 61, 95
3, 140169, Pitch_bend_c, 1, 8320
3, 140178, Pitch_bend_c, 1, 8448
3, 140187, Pitch_bend_c, 1, 8576
3, 140196, Pitch_bend_c, 1, 8704
3, 140205, Pitch_bend_c, 1, 8832
3, 140214, Pitch_bend_c, 1, 8960
3, 140223, Pitch_bend_c, 1, 9088
3, 140232, Pitch_bend_c, 1, 9216
3, 140241, Pitch_bend_c, 1, 9344
3, 140250, Pitch_bend_c, 1, 9472
3, 140259, Pitch_bend_c, 1, 9600
3, 140260, Pitch_bend_c, 1, 9600
3, 140360, Pitch_bend_c, 1, 9600
3, 140760, Pitch_bend_c, 1, 9600
3, 141360, Pitch_bend_c, 1, 9600
3, 141360, Pitch_bend_c, 1, 8192
3, 141360, Note_off_c, 1, 61, 95
3, 141360, Note_on_c, 0, 65, 95
3, 141600, Note_off_c, 0, 65, 95
3, 141600, Note_on_c, 0, 63, 95
3, 141840, Note_off_c, 0, 63, 95
3, 141840, Note_on_c, 0, 61, 95
3, 142560, Note_off_c, 0, 61, 95
3, 153600, Pitch_bend_c, 1, 8192
3, 153600, Note_on_c, 1, 59, 95
3, 153614, Pitch_bend_c, 1, 8320
3, 153628, Pitch_bend_c, 1, 8448
3, 153642, Pitch_bend_c, 1, 8576
3, 153656, Pitch_bend_c, 1, 8704
3, 153670, Pitch_bend_c, 1, 8832
3, 153684, Pitch_bend_c, 1, 8960
3, 153698, Pitch_bend_c, 1, 9088
3, 153712, Pitch_bend_c, 1, 9216
3, 153726, Pitch_bend_c, 1, 9344
3, 153740, Pitch_bend_c, 1, 9472
3, 153754, Pitch_bend_c, 1, 9600
3, 153760, Pitch_bend_c, 1, 9600
3, 153920, Pitch_bend_c, 1, 9600
3, 154560, Pitch_bend_c, 1, 9600
3, 155520, Pitch_bend_c, 1, 9600
3, 155520, Pitch_bend_c, 1, 8192
3, 155520, Note_off_c, 1, 59, 95
3, 155520, Note_on_c, 0, 61, 95
3, 156480, Note_off_c, 0, 61, 95
3, 156480, Note_on_c, 0, 61, 95
3, 157440, Note_off_c, 0, 61, 95
3, 157440, Pitch_bend_c, 1, 8192
3, 157440, Note_on_c, 1, 61, 95
3, 157449, Pitch_bend_c, 1, 8320
3, 157458, Pitch_bend_c, 1, 8448
3, 157467, Pitch_bend_c, 1, 8576
3, 157476, Pitch_bend_c, 1, 8704
3, 157485, Pitch_bend_c, 1, 8832
3, 157494, Pitch_bend_c, 1, 8960
3, 157503, Pitch_bend_c, 1, 9088
3, 157512, Pitch_bend_c, 1, 9216
3, 157521, Pitch_bend_c, 1, 9344
3, 157530, Pitch_bend_c, 1, 9472
3, 157539, Pitch_bend_c, 1, 9600
3, 157540, Pitch_bend_c, 1, 9600
3, 157640, Pitch_bend_c, 1, 9600
3, 158040, Pitch_bend_c, 1, 9600
3, 158640, Pitch_bend_c, 1, 9600
3, 158640, Pitch_bend_c, 1, 8192
3, 158640, Note_off_c, 1, 61, 95
3, 158640, Note_on_c, 0, 65, 95
3, 158880, Note_off_c, 0, 65, 95
3, 158880, Note_on_c, 0, 63, 95
3, 159120, Note_off_c, 0, 63, 95
3, 159120, Note_on_c, 0, 61, 95
3, 159840, Note_off_c, 0, 61, 95
3, 169920, Pitch_bend_c, 1, 8192
3, 169920, Note_on_c, 1, 64, 111
3, 169927, Pitch_bend_c, 1, 8320
3, 169934, Pitch_bend_c, 1, 8448
3, 169941, Pitch_bend_c, 1, 8576
3, 169948, Pitch_bend_c, 1, 8704
3, 169955, Pitch_bend_c, 1, 8832
3, 169962, Pitch_bend_c, 1, 8960
3, 169969, Pitch_bend_c, 1, 9088
3, 169976, Pitch_bend_c, 1, 9216
3, 169983, Pitch_bend_c, 1, 9344
3, 169990, Pitch_bend_c, 1, 9472
3, 169997, Pitch_bend_c, 1, 9600
3, 170000, Pitch_bend_c, 1, 9600
3, 170000, Pitch_bend_c, 1, 9600
3, 170080, Pitch_bend_c, 1, 9600
3, 170400, Pitch_bend_c, 1, 9600
3, 170880, Pitch_bend_c, 1, 9600
3, 170880, Pitch_bend_c, 1, 8192
3, 170880, Note_off_c, 1, 64, 111
3, 171840, Pitch_bend_c, 1, 8192
3, 171840, Note_on_c, 1, 64, 111
3, 171847, Pitch_bend_c, 1, 8320
3, 171854, Pitch_bend_c, 1, 8448
3, 171861, Pitch_bend_c, 1, 8576
3, 171868, Pitch_bend_c, 1, 8704
3, 171875, Pitch_bend_c, 1, 8832
3, 171882, Pitch_bend_c, 1, 8960
3, 171889, Pitch_bend_c, 1, 9088
3, 171896, Pitch_bend_c, 1, 9216
3, 171903, Pitch_bend_c, 1, 9344
3, 171910, Pitch_bend_c, 1, 9472
3, 171917, Pitch_bend_c, 1, 9600
3, 171920, Pitch_bend_c, 1, 9600
3, 172320, Pitch_bend_c, 1, 9600
3, 172800, Pitch_bend_c, 1, 9600
3, 172800, Pitch_bend_c, 1, 8192
3, 172800, Note_off_c, 1, 64, 111
3, 173760, Pitch_bend_c, 1, 8192
3, 173760, Note_on_c, 1, 64, 111
3, 173767, Pitch_bend_c, 1, 8320
3, 173774, Pitch_bend_c, 1, 8448
3, 173781, Pitch_bend_c, 1, 8576
3, 173788, Pitch_bend_c, 1, 8704
3, 173795, Pitch_bend_c, 1, 8832
3, 173802, Pitch_bend_c, 1, 8960
3, 173809, Pitch_bend_c, 1, 9088
3, 173816, Pitch_bend_c, 1, 9216
3, 173823, Pitch_bend_c, 1, 9344
3, 173830, Pitch_bend_c, 1, 9472
3, 173837, Pitch_bend_c, 1, 9600
3, 173840, Pitch_bend_c, 1, 9600
3, 174240, Pitch_bend_c, 1, 9600
3, 174720, Pitch_bend_c, 1, 9600
3, 174720, Pitch_bend_c, 1, 8192
3, 174720, Note_off_c, 1, 64, 111
3, 175680, Pitch_bend_c, 1, 8192
3, 175680, Note_on_c, 1, 64, 111
3, 175687, Pitch_bend_c, 1, 8320
3, 175694, Pitch_bend_c, 1, 8448
3, 175701, Pitch_bend_c, 1, 8576
3, 175708, Pitch_bend_c, 1, 8704
3, 175715, Pitch_bend_c, 1, 8832
3, 175722, Pitch_bend_c, 1, 8960
3, 175729, Pitch_bend_c, 1, 9088
3, 175736, Pitch_bend_c, 1, 9216
3, 175743, Pitch_bend_c, 1, 9344
3, 175750, Pitch_bend_c, 1, 9472
3, 175757, Pitch_bend_c, 1, 9600
3, 175760, Pitch_bend_c, 1, 9600
3, 176160, Pitch_bend_c, 1, 9600
3, 176640, Pitch_bend_c, 1, 9600
3, 176640, Pitch_bend_c, 1, 8192
3, 176640, Note_off_c, 1, 64, 111
3, 177600, Pitch_bend_c, 1, 8192
3, 177600, Note_on_c, 1, 64, 111
3, 177607, Pitch_bend_c, 1, 8320
3, 177614, Pitch_bend_c, 1, 8448
3, 177621, Pitch_bend_c, 1, 8576
3, 177628, Pitch_bend_c, 1, 8704
3, 177635, Pitch_bend_c, 1, 8832
3, 177642, Pitch_bend_c, 1, 8960
3, 177649, Pitch_bend_c, 1, 9088
3, 177656, Pitch_bend_c, 1, 9216
3, 177663, Pitch_bend_c, 1, 9344
3, 177670, Pitch_bend_c, 1, 9472
3, 177677, Pitch_bend_c, 1, 9600
3, 177680, Pitch_bend_c, 1, 9600
3, 178080, Pitch_bend_c, 1, 9600
3, 178560, Pitch_bend_c, 1, 9600
3, 178560, Pitch_bend_c, 1, 8192
3, 178560, Note_off_c, 1, 64, 111
3, 179520, Pitch_bend_c, 1, 8192
3, 179520, Note_on_c, 1, 64, 111
3, 179527, Pitch_bend_c, 1, 8320
3, 179534, Pitch_bend_c, 1, 8448
3, 179541, Pitch_bend_c, 1, 8576
3, 179548, Pitch_bend_c, 1, 8704
3, 179555, Pitch_bend_c, 1, 8832
3, 179562, Pitch_bend_c, 1, 8960
3, 179569, Pitch_bend_c, 1, 9088
3, 179576, Pitch_bend_c, 1, 9216
3, 179583, Pitch_bend_c, 1, 9344
3, 179590, Pitch_bend_c, 1, 9472
3, 179597, Pitch_bend_c, 1, 9600
3, 179600, Pitch_bend_c, 1, 9600
3, 180000, Pitch_bend_c, 1, 9600
3, 180480, Pitch_bend_c, 1, 9600
3, 180480, Pitch_bend_c, 1, 8192
3, 180480, Note_off_c, 1, 64, 111
3, 181440, Pitch_bend_c, 1, 8192
3, 181440, Note_on_c, 1, 64, 111
3, 181447, Pitch_bend_c, 1, 8320
3, 181454, Pitch_bend_c, 1, 8448
3, 181461, Pitch_bend_c, 1, 8576
3, 181468, Pitch_bend_c, 1, 8704
3, 181475, Pitch_bend_c, 1, 8832
3, 181482, Pitch_bend_c, 1, 8960
3, 181489, Pitch_bend_c, 1, 9088
3, 181496, Pitch_bend_c, 1, 9216
3, 181503, Pitch_bend_c, 1, 9344
3, 181510, Pitch_bend_c, 1, 9472
3, 181517, Pitch_bend_c, 1, 9600
3, 181520, Pitch_bend_c, 1, 9600
3, 181920, Pitch_bend_c, 1, 9600
3, 182400, Pitch_bend_c, 1, 9600
3, 182400, Pitch_bend_c, 1, 8192
3, 182400, Note_off_c, 1, 64, 111
3, 182400, Pitch_bend_c, 1, 8192
3, 182400, Note_on_c, 1, 68, 95
3, 182400, Note_on_c, 0, 63, 95
3, 182414, Pitch_bend_c, 1, 8320
3, 182428, Pitch_bend_c, 1, 8448
3, 182442, Pitch_bend_c, 1, 8576
3, 182456, Pitch_bend_c, 1, 8704
3, 182470, Pitch_bend_c, 1, 8832
3, 182484, Pitch_bend_c, 1, 8960
3, 182498, Pitch_bend_c, 1, 9088
3, 182512, Pitch_bend_c, 1, 9216
3, 182526, Pitch_bend_c, 1, 9344
3, 182540, Pitch_bend_c, 1, 9472
3, 182554, Pitch_bend_c, 1, 9600
3, 182560, Pitch_bend_c, 1, 9600
3, 182560, Pitch_bend_c, 1, 9600
3, 182720, Pitch_bend_c, 1, 9600
3, 183360, Pitch_bend_c, 1, 9600
3, 184320, Pitch_bend_c, 1, 9600
3, 184320, Pitch_bend_c, 1, 8192
3, 184320, Note_off_c, 1, 68, 95
3, 184320, Note_off_c, 0, 63, 95
3, 184320, Pitch_bend_c, 1, 8192
3, 184320, Note_on_c, 1, 66, 95
3, 184320, Note_on_c, 0, 61, 95
3, 184334, Pitch_bend_c, 1, 8320
3, 184348, Pitch_bend_c, 1, 8448
3, 184362, Pitch_bend_c, 1, 8576
3, 184376, Pitch_bend_c, 1, 8704
3, 184390, Pitch_bend_c, 1, 8832
3, 184404, Pitch_bend_c, 1, 8960
3, 184418, Pitch_bend_c, 1, 9088
3, 184432, Pitch_bend_c, 1, 9216
3, 184446, Pitch_bend_c, 1, 9344
3, 184460, Pitch_bend_c, 1, 9472
3, 184474, Pitch_bend_c, 1, 9600
3, 184480, Pitch_bend_c, 1, 9600
3, 184480, Pitch_bend_c, 1, 9600
3, 184640, Pitch_bend_c, 1, 9600
3, 184800, Pitch_bend_c, 1, 9600
3, 185280, Pitch_bend_c, 1, 9600
3, 186240, Pitch_bend_c, 1, 9600
3, 186240, Pitch_bend_c, 1, 8192
3, 186240, Note_off_c, 1, 66, 95
3, 186240, Note_off_c, 0, 61, 95
3, 186240, Pitch_bend_c, 1, 8192
3, 186240, Note_on_c, 1, 66, 95
3, 186261, Pitch_bend_c, 1, 8320
3, 186282, Pitch_bend_c, 1, 8448
3, 186303, Pitch_bend_c, 1, 8576
3, 186324, Pitch_bend_c, 1, 8704
3, 186345, Pitch_bend_c, 1, 8832
3, 186366, Pitch_bend_c, 1, 8960
3, 186387, Pitch_bend_c, 1, 9088
3, 186408, Pitch_bend_c, 1, 9216
3, 186429, Pitch_bend_c, 1, 9344
3, 186450, Pitch_bend_c, 1, 9472
3, 186471, Pitch_bend_c, 1, 9600
3, 186480, Pitch_bend_c, 1, 9600
3, 186720, Pitch_bend_c, 1, 9600
3, 186960, Pitch_bend_c, 1, 9600
3, 187680, Pitch_bend_c, 1, 9600
3, 189120, Pitch_bend_c, 1, 9600
3, 189120, Pitch_bend_c, 1, 8192
3, 189120, Note_off_c, 1, 66, 95
3, 216960, Pitch_bend_c, 1, 8192
3, 216960, Note_on_c, 1, 59, 95
3, 216974, Pitch_bend_c, 1, 8320
3, 216988, Pitch_bend_c, 1, 8448
3, 217002, Pitch_bend_c, 1, 8576
3, 217016, Pitch_bend_c, 1, 8704
3, 217030, Pitch_bend_c, 1, 8832
3, 217044, Pitch_bend_c, 1, 8960
3, 217058, Pitch_bend_c, 1, 9088
3, 217072, Pitch_bend_c, 1, 9216
3, 217086, Pitch_bend_c, 1, 9344
3, 217100, Pitch_bend_c, 1, 9472
3, 217114, Pitch_bend_c, 1, 9600
3, 217120, Pitch_bend_c, 1, 9600
3, 217280, Pitch_bend_c, 1, 9600
3, 217920, Pitch_bend_c, 1, 9600
3, 218880, Pitch_bend_c, 1, 9600
3, 218880, Pitch_bend_c, 1, 8192
3, 218880, Note_off_c, 1, 59, 95
3, 218880, Note_on_c, 0, 61, 95
3, 219840, Note_off_c, 0, 61, 95
3, 219840, Note_on_c, 0, 61, 95
3, 220800, Note_off_c, 0, 61, 95
3, 220800, Pitch_bend_c, 1, 8192
3, 220800, Note_on_c, 1, 61, 95
3, 220809, Pitch_bend_c, 1, 8320
3, 220818, Pitch_bend_c, 1, 8448
3, 220827, Pitch_bend_c, 1, 8576
3, 220836, Pitch_bend_c, 1, 8704
3, 220845, Pitch_bend_c, 1, 8832
3, 220854, Pitch_bend_c, 1, 8960
3, 220863, Pitch_bend_c, 1, 9088
3, 220872, Pitch_bend_c, 1, 9216
3, 220881, Pitch_bend_c, 1, 9344
3, 220890, Pitch_bend_c, 1, 9472
3, 220899, Pitch_bend_c, 1, 9600
3, 220900, Pitch_bend_c, 1, 9600
3, 221000, Pitch_bend_c, 1, 9600
3, 221400, Pitch_bend_c, 1, 9600
3, 222000, Pitch_bend_c, 1, 9600
3, 222000, Pitch_bend_c, 1, 8192
3, 222000, Note_off_c, 1, 61, 95
3, 222000, Note_on_c, 0, 65, 95
3, 222240, Note_off_c, 0, 65, 95
3, 222240, Note_on_c, 0, 63, 95
3, 222480, Note_off_c, 0, 63, 95
3, 222480, Note_on_c, 0, 61, 95
3, 223200, Note_off_c, 0, 61, 95
3, 236160, Pitch_bend_c, 1, 8192
3, 236160, Note_on_c, 1, 59, 95
3, 236174, Pitch_bend_c, 1, 8320
3, 236188, Pitch_bend_c, 1, 8448
3, 236202, Pitch_bend_c, 1, 8576
3, 236216, Pitch_bend_c, 1, 8704
3, 236230, Pitch_bend_c, 1, 8832
3, 236244, Pitch_bend_c, 1, 8960
3, 236258, Pitch_bend_c, 1, 9088
3, 236272, Pitch_bend_c, 1, 9216
3, 236286, Pitch_bend_c, 1, 9344
3, 236300, Pitch_bend_c, 1, 9472
3, 236314, Pitch_bend_c, 1, 9600
3, 236320, Pitch_bend_c, 1, 9600
3, 236480, Pitch_bend_c, 1, 9600
3, 237120, Pitch_bend_c, 1, 9600
3, 238080, Pitch_bend_c, 1, 9600
3, 238080, Pitch_bend_c, 1, 8192
3, 238080, Note_off_c, 1, 59, 95
3, 238080, Note_on_c, 0, 61, 95
3, 239040, Note_off_c, 0, 61, 95
3, 239040, Note_on_c, 0, 61, 95
3, 240000, Note_off_c, 0, 61, 95
3, 240000, Pitch_bend_c, 1, 8192
3, 240000, Note_on_c, 1, 61, 95
3, 240009, Pitch_bend_c, 1, 8320
3, 240018, Pitch_bend_c, 1, 8448
3, 240027, Pitch_bend_c, 1, 8576
3, 240036, Pitch_bend_c, 1, 8704
3, 240045, Pitch_bend_c, 1, 8832
3, 240054, Pitch_bend_c, 1, 8960
3, 240063, Pitch_bend_c, 1, 9088
3, 240072, Pitch_bend_c, 1, 9216
3, 240081, Pitch_bend_c, 1, 9344
3, 240090, Pitch_bend_c, 1, 9472
3, 240099, Pitch_bend_c, 1, 9600
3, 240100, Pitch_bend_c, 1, 9600
3, 240200, Pitch_bend_c, 1, 9600
3, 240600, Pitch_bend_c, 1, 9600
3, 241200, Pitch_bend_c, 1, 9600
3, 241200, Pitch_bend_c, 1, 8192
3, 241200, Note_off_c, 1, 61, 95
3, 241200, Note_on_c, 0, 65, 95
3, 241440, Note_off_c, 0, 65, 95
3, 241440, Note_on_c, 0, 63, 95
3, 241680, Note_off_c, 0, 63, 95
3, 241680, Note_on_c, 0, 61, 95
3, 243120, Note_off_c, 0, 61, 95
3, 251520, Pitch_bend_c, 1, 8192
3, 251520, Note_on_c, 1, 59, 95
3, 251534, Pitch_bend_c, 1, 8320
3, 251548, Pitch_bend_c, 1, 8448
3, 251562, Pitch_bend_c, 1, 8576
3, 251576, Pitch_bend_c, 1, 8704
3, 251590, Pitch_bend_c, 1, 8832
3, 251604, Pitch_bend_c, 1, 8960
3, 251618, Pitch_bend_c, 1, 9088
3, 251632, Pitch_bend_c, 1, 9216
3, 251646, Pitch_bend_c, 1, 9344
3, 251660, Pitch_bend_c, 1, 9472
3, 251674, Pitch_bend_c, 1, 9600
3, 251680, Pitch_bend_c, 1, 9600
3, 251840, Pitch_bend_c, 1, 9600
3, 252480, Pitch_bend_c, 1, 9600
3, 253440, Pitch_bend_c, 1, 9600
3, 253440, Pitch_bend_c, 1, 8192
3, 253440, Note_off_c, 1, 59, 95
3, 253440, Note_on_c, 0, 61, 95
3, 254400, Note_off_c, 0, 61, 95
3, 254400, Note_on_c, 0, 61, 95
3, 255360, Note_off_c, 0, 61, 95
3, 255360, Pitch_bend_c, 1, 8192
3, 255360, Note_on_c, 1, 61, 95
3, 255369, Pitch_bend_c, 1, 8320
3, 255378, Pitch_bend_c, 1, 8448
3, 255387, Pitch_bend_c, 1, 8576
3, 255396, Pitch_bend_c, 1, 8704
3, 255405, Pitch_bend_c, 1, 8832
3, 255414, Pitch_bend_c, 1, 8960
3, 255423, Pitch_bend_c, 1, 9088
3, 255432, Pitch_bend_c, 1, 9216
3, 255441, Pitch_bend_c, 1, 9344
3, 255450, Pitch_bend_c, 1, 9472
3, 255459, Pitch_bend_c, 1, 9600
3, 255460, Pitch_bend_c, 1, 9600
3, 255560, Pitch_bend_c, 1, 9600
3, 255960, Pitch_bend_c, 1, 9600
3, 256560, Pitch_bend_c, 1, 9600
3, 256560, Pitch_bend_c, 1, 8192
3, 256560, Note_off_c, 1, 61, 95
3, 256560, Note_on_c, 0, 65, 95
3, 256800, Note_off_c, 0, 65, 95
3, 256800, Note_on_c, 0, 63, 95
3, 257040, Note_off_c, 0, 63, 95
3, 257040, Note_on_c, 0, 61, 95
3, 258480, Note_off_c, 0, 61, 95
3, 266880, Pitch_bend_c, 1, 8192
3, 266880, Note_on_c, 1, 59, 95
3, 266894, Pitch_bend_c, 1, 8320
3, 266908, Pitch_bend_c, 1, 8448
3, 266922, Pitch_bend_c, 1, 8576
3, 266936, Pitch_bend_c, 1, 8704
3, 266950, Pitch_bend_c, 1, 8832
3, 266964, Pitch_bend_c, 1, 8960
3, 266978, Pitch_bend_c, 1, 9088
3, 266992, Pitch_bend_c, 1, 9216
3, 267006, Pitch_bend_c, 1, 9344
3, 267020, Pitch_bend_c, 1, 9472
3, 267034, Pitch_bend_c, 1, 9600
3, 267040, Pitch_bend_c, 1, 9600
3, 267200, Pitch_bend_c, 1, 9600
3, 267840, Pitch_bend_c, 1, 9600
3, 268800, Pitch_bend_c, 1, 9600
3, 268800, Pitch_bend_c, 1, 8192
3, 268800, Note_off_c, 1, 59, 95
3, 268800, Note_on_c, 0, 61, 95
3, 269760, Note_off_c, 0, 61, 95
3, 269760, Note_on_c, 0, 61, 95
3, 270720, Note_off_c, 0, 61, 95
3, 270720, Pitch_bend_c, 1, 8192
3, 270720, Note_on_c, 1, 61, 95
3, 270729, Pitch_bend_c, 1, 8320
3, 270738, Pitch_bend_c, 1, 8448
3, 270747, Pitch_bend_c, 1, 8576
3, 270756, Pitch_bend_c, 1, 8704
3, 270765, Pitch_bend_c, 1, 8832
3, 270774, Pitch_bend_c, 1, 8960
3, 270783, Pitch_bend_c, 1, 9088
3, 270792, Pitch_bend_c, 1, 9216
3, 270801, Pitch_bend_c, 1, 9344
3, 270810, Pitch_bend_c, 1, 9472
3, 270819, Pitch_bend_c, 1, 9600
3, 270820, Pitch_bend_c, 1, 9600
3, 270920, Pitch_bend_c, 1, 9600
3, 271320, Pitch_bend_c, 1, 9600
3, 271920, Pitch_bend_c, 1, 9600
3, 271920, Pitch_bend_c, 1, 8192
3, 271920, Note_off_c, 1, 61, 95
3, 271920, Note_on_c, 0, 65, 95
3, 272160, Note_off_c, 0, 65, 95
3, 272160, Note_on_c, 0, 63, 95
3, 272400, Note_off_c, 0, 63, 95
3, 272400, Note_on_c, 0, 61, 95
3, 273840, Note_off_c, 0, 61, 95
3, 273840, End_track
4, 0, Start_track
4, 0, Pitch_bend_c, 11, 8192
4, 0, Control_c, 11, 7, 95
4, 0, Control_c, 11, 10, 63
4, 0, Control_c, 11, 93, 0
4, 0, Control_c, 11, 91, 0
4, 0, Control_c, 11, 95, 0
4, 0, Control_c, 11, 92, 0
4, 0, Control_c, 11, 11, 127
4, 0, Program_c, 11, 24
4, 0, Control_c, 12, 7, 95
4, 0, Control_c, 12, 10, 63
4, 0, Control_c, 12, 93, 0
4, 0, Control_c, 12, 91, 0
4, 0, Control_c, 12, 95, 0
4, 0, Control_c, 12, 92, 0
4, 0, Control_c, 12, 11, 127
4, 0, Program_c, 12, 24
4, 69120, Note_on_c, 11, 54, 95
4, 69122, Note_on_c, 11, 61, 95
4, 69124, Note_on_c, 11, 66, 95
4, 69126, Note_on_c, 11, 70, 95
4, 69360, Note_off_c, 11, 70, 95
4, 69360, Note_off_c, 11, 66, 95
4, 69360, Note_off_c, 11, 61, 95
4, 69360, Note_off_c, 11, 54, 95
4, 69360, Note_on_c, 11, 70, 63
4, 69362, Note_on_c, 11, 66, 63
4, 69364, Note_on_c, 11, 61, 63
4, 69600, Note_off_c, 11, 70, 63
4, 69600, Note_off_c, 11, 66, 63
4, 69600, Note_off_c, 11, 61, 63
4, 69600, Note_on_c, 11, 61, 63
4, 69602, Note_on_c, 11, 66, 63
4, 69604, Note_on_c, 11, 70, 63
4, 69840, Note_off_c, 11, 70, 63
4, 69840, Note_off_c, 11, 66, 63
4, 69840, Note_off_c, 11, 61, 63
4, 69840, Note_on_c, 11, 70, 63
4, 69842, Note_on_c, 11, 66, 63
4, 69844, Note_on_c, 11, 61, 63
4, 70080, Note_off_c, 11, 70, 63
4, 70080, Note_off_c, 11, 66, 63
4, 70080, Note_off_c, 11, 61, 63
4, 70080, Note_on_c, 11, 61, 63
4, 70082, Note_on_c, 11, 66, 63
4, 70084, Note_on_c, 11, 70, 63
4, 70320, Note_off_c, 11, 70, 63
4, 70320, Note_off_c, 11, 66, 63
4, 70320, Note_off_c, 11, 61, 63
4, 70320, Note_on_c, 11, 70, 63
4, 70322, Note_on_c, 11, 66, 63
4, 70324, Note_on_c, 11, 61, 63
4, 70560, Note_off_c, 11, 70, 63
4, 70560, Note_off_c, 11, 66, 63
4, 70560, Note_off_c, 11, 61, 63
4, 70560, Note_on_c, 11, 61, 63
4, 70562, Note_on_c, 11, 66, 63
4, 70564, Note_on_c, 11, 70, 63
4, 70800, Note_off_c, 11, 70, 63
4, 70800, Note_off_c, 11, 66, 63
4, 70800, Note_off_c, 11, 61, 63
4, 70800, Note_on_c, 11, 70, 95
4, 70802, Note_on_c, 11, 64, 95
4, 70804, Note_on_c, 11, 61, 95
4, 71040, Note_off_c, 11, 70, 95
4, 71040, Note_off_c, 11, 64, 95
4, 71040, Note_off_c, 11, 61, 95
4, 71280, Note_on_c, 11, 70, 95
4, 71282, Note_on_c, 11, 64, 95
4, 71284, Note_on_c, 11, 61, 95
4, 71520, Note_off_c, 11, 70, 95
4, 71520, Note_off_c, 11, 64, 95
4, 71520, Note_off_c, 11, 61, 95
4, 71760, Note_on_c, 11, 70, 95
4, 71762, Note_on_c, 11, 64, 95
4, 71764, Note_on_c, 11, 61, 95
4, 72000, Note_off_c, 11, 70, 95
4, 72000, Note_off_c, 11, 64, 95
4, 72000, Note_off_c, 11, 61, 95
4, 72000, Note_on_c, 11, 61, 95
4, 72002, Note_on_c, 11, 64, 95
4, 72004, Note_on_c, 11, 70, 95
4, 72240, Note_off_c, 11, 70, 95
4, 72240, Note_off_c, 11, 64, 95
4, 72240, Note_off_c, 11, 61, 95
4, 72240, Note_on_c, 11, 70, 63
4, 72242, Note_on_c, 11, 64, 63
4, 72244, Note_on_c, 11, 61, 63
4, 72480, Note_off_c, 11, 70, 63
4, 72480, Note_off_c, 11, 64, 63
4, 72480, Note_off_c, 11, 61, 63
4, 72480, Note_on_c, 11, 61, 63
4, 72482, Note_on_c, 11, 64, 63
4, 72484, Note_on_c, 11, 70, 63
4, 72720, Note_off_c, 11, 70, 63
4, 72720, Note_off_c, 11, 64, 63
4, 72720, Note_off_c, 11, 61, 63
4, 72720, Note_on_c, 11, 70, 63
4, 72722, Note_on_c, 11, 64, 63
4, 72724, Note_on_c, 11, 61, 63
4, 72960, Note_off_c, 11, 70, 63
4, 72960, Note_off_c, 11, 64, 63
4, 72960, Note_off_c, 11, 61, 63
4, 72960, Note_on_c, 11, 54, 95
4, 72962, Note_on_c, 11, 61, 95
4, 72964, Note_on_c, 11, 63, 95
4, 72966, Note_on_c, 11, 70, 95
4, 73200, Note_off_c, 11, 70, 95
4, 73200, Note_off_c, 11, 63, 95
4, 73200, Note_off_c, 11, 61, 95
4, 73200, Note_off_c, 11, 54, 95
4, 73200, Note_on_c, 11, 70, 63
4, 73202, Note_on_c, 11, 63, 63
4, 73204, Note_on_c, 11, 61, 63
4, 73440, Note_off_c, 11, 70, 63
4, 73440, Note_off_c, 11, 63, 63
4, 73440, Note_off_c, 11, 61, 63
4, 73440, Note_on_c, 11, 61, 63
4, 73442, Note_on_c, 11, 63, 63
4, 73444, Note_on_c, 11, 70, 63
4, 73680, Note_off_c, 11, 70, 63
4, 73680, Note_off_c, 11, 63, 63
4, 73680, Note_off_c, 11, 61, 63
4, 73680, Note_on_c, 11, 70, 63
4, 73682, Note_on_c, 11, 63, 63
4, 73684, Note_on_c, 11, 61, 63
4, 73920, Note_off_c, 11, 70, 63
4, 73920, Note_off_c, 11, 63, 63
4, 73920, Note_off_c, 11, 61, 63
4, 73920, Note_on_c, 11, 61, 63
4, 73922, Note_on_c, 11, 63, 63
4, 73924, Note_on_c, 11, 70, 63
4, 74160, Note_off_c, 11, 70, 63
4, 74160, Note_off_c, 11, 63, 63
4, 74160, Note_off_c, 11, 61, 63
4, 74160, Note_on_c, 11, 70, 63
4, 74162, Note_on_c, 11, 63, 63
4, 74164, Note_on_c, 11, 61, 63
4, 74400, Note_off_c, 11, 70, 63
4, 74400, Note_off_c, 11, 63, 63
4, 74400, Note_off_c, 11, 61, 63
4, 74400, Note_on_c, 11, 61, 63
4, 74402, Note_on_c, 11, 63, 63
4, 74404, Note_on_c, 11, 70, 63
4, 74640, Note_off_c, 11, 70, 63
4, 74640, Note_off_c, 11, 63, 63
4, 74640, Note_off_c, 11, 61, 63
4, 74640, Note_on_c, 11, 71, 95
4, 74642, Note_on_c, 11, 68, 95
4, 74644, Note_on_c, 11, 62, 95
4, 74646, Note_on_c, 11, 54, 95
4, 74880, Note_off_c, 11, 71, 95
4, 74880, Note_off_c, 11, 68, 95
4, 74880, Note_off_c, 11, 62, 95
4, 74880, Note_off_c, 11, 54, 95
4, 75120, Note_on_c, 11, 71, 95
4, 75122, Note_on_c, 11, 68, 95
4, 75124, Note_on_c, 11, 62, 95
4, 75360, Note_off_c, 11, 71, 95
4, 75360, Note_off_c, 11, 68, 95
4, 75360, Note_off_c, 11, 62, 95
4, 75600, Note_on_c, 11, 71, 95
4, 75602, Note_on_c, 11, 68, 95
4, 75604, Note_on_c, 11, 62, 95
4, 75840, Note_off_c, 11, 71, 95
4, 75840, Note_off_c, 11, 68, 95
4, 75840, Note_off_c, 11, 62, 95
4, 75840, Note_on_c, 11, 62, 95
4, 75842, Note_on_c, 11, 68, 95
4, 75844, Note_on_c, 11, 71, 95
4, 76080, Note_off_c, 11, 71, 95
4, 76080, Note_off_c, 11, 68, 95
4, 76080, Note_off_c, 11, 62, 95
4, 76080, Note_on_c, 11, 71, 63
4, 76082, Note_on_c, 11, 68, 63
4, 76084, Note_on_c, 11, 62, 63
4, 76320, Note_off_c, 11, 71, 63
4, 76320, Note_off_c, 11, 68, 63
4, 76320, Note_off_c, 11, 62, 63
4, 76320, Note_on_c, 11, 62, 63
4, 76322, Note_on_c, 11, 68, 63
4, 76324, Note_on_c, 11, 71, 63
4, 76560, Note_off_c, 11, 71, 63
4, 76560, Note_off_c, 11, 68, 63
4, 76560, Note_off_c, 11, 62, 63
4, 76560, Note_on_c, 11, 71, 63
4, 76562, Note_on_c, 11, 68, 63
4, 76564, Note_on_c, 11, 62, 63
4, 76800, Note_off_c, 11, 71, 63
4, 76800, Note_off_c, 11, 68, 63
4, 76800, Note_off_c, 11, 62, 63
4, 76800, Note_on_c, 11, 54, 95
4, 76802, Note_on_c, 11, 61, 95
4, 76804, Note_on_c, 11, 66, 95
4, 76806, Note_on_c, 11, 70, 95
4, 77040, Note_off_c, 11, 70, 95
4, 77040, Note_off_c, 11, 66, 95
4, 77040, Note_off_c, 11, 61, 95
4, 77040, Note_off_c, 11, 54, 95
4, 77040, Note_on_c, 11, 70, 63
4, 77042, Note_on_c, 11, 66, 63
4, 77044, Note_on_c, 11, 61, 63
4, 77280, Note_off_c, 11, 70, 63
4, 77280, Note_off_c, 11, 66, 63
4, 77280, Note_off_c, 11, 61, 63
4, 77280, Note_on_c, 11, 61, 63
4, 77282, Note_on_c, 11, 66, 63
4, 77284, Note_on_c, 11, 70, 63
4, 77520, Note_off_c, 11, 70, 63
4, 77520, Note_off_c, 11, 66, 63
4, 77520, Note_off_c, 11, 61, 63
4, 77520, Note_on_c, 11, 70, 63
4, 77522, Note_on_c, 11, 66, 63
4, 77524, Note_on_c, 11, 61, 63
4, 77760, Note_off_c, 11, 70, 63
4, 77760, Note_off_c, 11, 66, 63
4, 77760, Note_off_c, 11, 61, 63
4, 77760, Note_on_c, 11, 61, 63
4, 77762, Note_on_c, 11, 66, 63
4, 77764, Note_on_c, 11, 70, 63
4, 78000, Note_off_c, 11, 70, 63
4, 78000, Note_off_c, 11, 66, 63
4, 78000, Note_off_c, 11, 61, 63
4, 78000, Note_on_c, 11, 70, 63
4, 78002, Note_on_c, 11, 66, 63
4, 78004, Note_on_c, 11, 61, 63
4, 78240, Note_off_c, 11, 70, 63
4, 78240, Note_off_c, 11, 66, 63
4, 78240, Note_off_c, 11, 61, 63
4, 78240, Note_on_c, 11, 61, 63
4, 78242, Note_on_c, 11, 66, 63
4, 78244, Note_on_c, 11, 70, 63
4, 78480, Note_off_c, 11, 70, 63
4, 78480, Note_off_c, 11, 66, 63
4, 78480, Note_off_c, 11, 61, 63
4, 78480, Note_on_c, 11, 68, 95
4, 78482, Note_on_c, 11, 65, 95
4, 78484, Note_on_c, 11, 61, 95
4, 78486, Note_on_c, 11, 56, 95
4, 78488, Note_on_c, 11, 49, 95
4, 78720, Note_off_c, 11, 68, 95
4, 78720, Note_off_c, 11, 65, 95
4, 78720, Note_off_c, 11, 61, 95
4, 78720, Note_off_c, 11, 56, 95
4, 78720, Note_off_c, 11, 49, 95
4, 78960, Note_on_c, 11, 68, 95
4, 78962, Note_on_c, 11, 65, 95
4, 78964, Note_on_c, 11, 61, 95
4, 78966, Note_on_c, 11, 56, 95
4, 79200, Note_off_c, 11, 68, 95
4, 79200, Note_off_c, 11, 65, 95
4, 79200, Note_off_c, 11, 61, 95
4, 79200, Note_off_c, 11, 56, 95
4, 79440, Note_on_c, 11, 68, 95
4, 79442, Note_on_c, 11, 65, 95
4, 79444, Note_on_c, 11, 61, 95
4, 79446, Note_on_c, 11, 56, 95
4, 79680, Note_off_c, 11, 68, 95
4, 79680, Note_off_c, 11, 65, 95
4, 79680, Note_off_c, 11, 61, 95
4, 79680, Note_off_c, 11, 56, 95
4, 79680, Note_on_c, 11, 56, 95
4, 79682, Note_on_c, 11, 61, 95
4, 79684, Note_on_c, 11, 65, 95
4, 79686, Note_on_c, 11, 68, 95
4, 79920, Note_off_c, 11, 68, 95
4, 79920, Note_off_c, 11, 65, 95
4, 79920, Note_off_c, 11, 61, 95
4, 79920, Note_off_c, 11, 56, 95
4, 79920, Note_on_c, 11, 68, 63
4, 79922, Note_on_c, 11, 65, 63
4, 79924, Note_on_c, 11, 61, 63
4, 79926, Note_on_c, 11, 56, 63
4, 80160, Note_off_c, 11, 68, 63
4, 80160, Note_off_c, 11, 65, 63
4, 80160, Note_off_c, 11, 61, 63
4, 80160, Note_off_c, 11, 56, 63
4, 80160, Note_on_c, 11, 56, 63
4, 80162, Note_on_c, 11, 61, 63
4, 80164, Note_on_c, 11, 65, 63
4, 80166, Note_on_c, 11, 68, 63
4, 80400, Note_off_c, 11, 68, 63
4, 80400, Note_off_c, 11, 65, 63
4, 80400, Note_off_c, 11, 61, 63
4, 80400, Note_off_c, 11, 56, 63
4, 80400, Note_on_c, 11, 68, 63
4, 80402, Note_on_c, 11, 65, 63
4, 80404, Note_on_c, 11, 61, 63
4, 80406, Note_on_c, 11, 56, 63
4, 80640, Note_off_c, 11, 68, 63
4, 80640, Note_off_c, 11, 65, 63
4, 80640, Note_off_c, 11, 61, 63
4, 80640, Note_off_c, 11, 56, 63
4, 80640, Note_on_c, 11, 54, 95
4, 80642, Note_on_c, 11, 59, 95
4, 80644, Note_on_c, 11, 66, 95
4, 80646, Note_on_c, 11, 71, 95
4, 80880, Note_off_c, 11, 71, 95
4, 80880, Note_off_c, 11, 66, 95
4, 80880, Note_off_c, 11, 59, 95
4, 80880, Note_off_c, 11, 54, 95
4, 80880, Note_on_c, 11, 71, 63
4, 80882, Note_on_c, 11, 66, 63
4, 80884, Note_on_c, 11, 59, 63
4, 80886, Note_on_c, 11, 54, 63
4, 81120, Note_off_c, 11, 71, 63
4, 81120, Note_off_c, 11, 66, 63
4, 81120, Note_off_c, 11, 59, 63
4, 81120, Note_off_c, 11, 54, 63
4, 81120, Note_on_c, 11, 54, 63
4, 81122, Note_on_c, 11, 59, 63
4, 81124, Note_on_c, 11, 66, 63
4, 81126, Note_on_c, 11, 71, 63
4, 81360, Note_off_c, 11, 71, 63
4, 81360, Note_off_c, 11, 66, 63
4, 81360, Note_off_c, 11, 59, 63
4, 81360, Note_off_c, 11, 54, 63
4, 81360, Note_on_c, 11, 71, 63
4, 81362, Note_on_c, 11, 66, 63
4, 81364, Note_on_c, 11, 59, 63
4, 81366, Note_on_c, 11, 54, 63
4, 81600, Note_off_c, 11, 71, 63
4, 81600, Note_off_c, 11, 66, 63
4, 81600, Note_off_c, 11, 59, 63
4, 81600, Note_off_c, 11, 54, 63
4, 81600, Note_on_c, 11, 54, 63
4, 81602, Note_on_c, 11, 59, 63
4, 81604, Note_on_c, 11, 66, 63
4, 81606, Note_on_c, 11, 71, 63
4, 81840, Note_off_c, 11, 71, 63
4, 81840, Note_off_c, 11, 66, 63
4, 81840, Note_off_c, 11, 59, 63
4, 81840, Note_off_c, 11, 54, 63
4, 81840, Note_on_c, 11, 71, 63
4, 81842, Note_on_c, 11, 66, 63
4, 81844, Note_on_c, 11, 59, 63
4, 81846, Note_on_c, 11, 54, 63
4, 82080, Note_off_c, 11, 71, 63
4, 82080, Note_off_c, 11, 66, 63
4, 82080, Note_off_c, 11, 59, 63
4, 82080, Note_off_c, 11, 54, 63
4, 82080, Note_on_c, 11, 54, 63
4, 82082, Note_on_c, 11, 59, 63
4, 82084, Note_on_c, 11, 66, 63
4, 82086, Note_on_c, 11, 71, 63
4, 82320, Note_off_c, 11, 71, 63
4, 82320, Note_off_c, 11, 66, 63
4, 82320, Note_off_c, 11, 59, 63
4, 82320, Note_off_c, 11, 54, 63
4, 82320, Note_on_c, 11, 71, 63
4, 82322, Note_on_c, 11, 66, 63
4, 82324, Note_on_c, 11, 59, 63
4, 82326, Note_on_c, 11, 54, 63
4, 82560, Note_off_c, 11, 71, 63
4, 82560, Note_off_c, 11, 66, 63
4, 82560, Note_off_c, 11, 59, 63
4, 82560, Note_off_c, 11, 54, 63
4, 82800, Note_on_c, 11, 70, 95
4, 82802, Note_on_c, 11, 66, 95
4, 82804, Note_on_c, 11, 61, 95
4, 83040, Note_off_c, 11, 70, 95
4, 83040, Note_off_c, 11, 66, 95
4, 83040, Note_off_c, 11, 61, 95
4, 83280, Note_on_c, 11, 70, 63
4, 83282, Note_on_c, 11, 66, 63
4, 83284, Note_on_c, 11, 61, 63
4, 83520, Note_off_c, 11, 70, 63
4, 83520, Note_off_c, 11, 66, 63
4, 83520, Note_off_c, 11, 61, 63
4, 83520, Note_on_c, 11, 61, 63
4, 83522, Note_on_c, 11, 66, 63
4, 83524, Note_on_c, 11, 70, 63
4, 83760, Note_off_c, 11, 70, 63
4, 83760, Note_off_c, 11, 66, 63
4, 83760, Note_off_c, 11, 61, 63
4, 83760, Note_on_c, 11, 70, 63
4, 83762, Note_on_c, 11, 66, 63
4, 83764, Note_on_c, 11, 61, 63
4, 84000, Note_off_c, 11, 70, 63
4, 84000, Note_off_c, 11, 66, 63
4, 84000, Note_off_c, 11, 61, 63
4, 84000, Note_on_c, 11, 61, 63
4, 84002, Note_on_c, 11, 66, 63
4, 84004, Note_on_c, 11, 70, 63
4, 84240, Note_off_c, 11, 70, 63
4, 84240, Note_off_c, 11, 66, 63
4, 84240, Note_off_c, 11, 61, 63
4, 84240, Note_on_c, 11, 70, 63
4, 84242, Note_on_c, 11, 66, 63
4, 84244, Note_on_c, 11, 61, 63
4, 84480, Note_off_c, 11, 70, 63
4, 84480, Note_off_c, 11, 66, 63
4, 84480, Note_off_c, 11, 61, 63
4, 84480, Note_on_c, 11, 70, 95
4, 84480, Note_on_c, 11, 66, 95
4, 84480, Note_on_c, 11, 61, 95
4, 84480, Note_on_c, 11, 54, 95
4, 84720, Note_off_c, 11, 70, 95
4, 84720, Note_off_c, 11, 66, 95
4, 84720, Note_off_c, 11, 61, 95
4, 84720, Note_off_c, 11, 54, 95
4, 84720, Note_on_c, 11, 70, 63
4, 84722, Note_on_c, 11, 66, 63
4, 84724, Note_on_c, 11, 61, 63
4, 84960, Note_off_c, 11, 70, 63
4, 84960, Note_off_c, 11, 66, 63
4, 84960, Note_off_c, 11, 61, 63
4, 84960, Note_on_c, 11, 70, 63
4, 84960, Note_on_c, 11, 66, 63
4, 84960, Note_on_c, 11, 61, 63
4, 85200, Note_off_c, 11, 70, 63
4, 85200, Note_off_c, 11, 66, 63
4, 85200, Note_off_c, 11, 61, 63
4, 85200, Note_on_c, 11, 70, 63
4, 85202, Note_on_c, 11, 66, 63
4, 85204, Note_on_c, 11, 61, 63
4, 85440, Note_off_c, 11, 70, 63
4, 85440, Note_off_c, 11, 66, 63
4, 85440, Note_off_c, 11, 61, 63
4, 85440, Note_on_c, 11, 61, 63
4, 85442, Note_on_c, 11, 66, 63
4, 85444, Note_on_c, 11, 70, 63
4, 85680, Note_off_c, 11, 70, 63
4, 85680, Note_off_c, 11, 66, 63
4, 85680, Note_off_c, 11, 61, 63
4, 85680, Note_on_c, 11, 70, 63
4, 85682, Note_on_c, 11, 66, 63
4, 85684, Note_on_c, 11, 61, 63
4, 85920, Note_off_c, 11, 70, 63
4, 85920, Note_off_c, 11, 66, 63
4, 85920, Note_off_c, 11, 61, 63
4, 85920, Note_on_c, 11, 61, 63
4, 85922, Note_on_c, 11, 66, 63
4, 85924, Note_on_c, 11, 70, 63
4, 86160, Note_off_c, 11, 70, 63
4, 86160, Note_off_c, 11, 66, 63
4, 86160, Note_off_c, 11, 61, 63
4, 86160, Note_on_c, 11, 70, 63
4, 86162, Note_on_c, 11, 66, 63
4, 86164, Note_on_c, 11, 61, 63
4, 86400, Note_off_c, 11, 70, 63
4, 86400, Note_off_c, 11, 66, 63
4, 86400, Note_off_c, 11, 61, 63
4, 86400, Note_on_c, 11, 54, 95
4, 86402, Note_on_c, 11, 61, 95
4, 86404, Note_on_c, 11, 66, 95
4, 86406, Note_on_c, 11, 70, 95
4, 86640, Note_off_c, 11, 70, 95
4, 86640, Note_off_c, 11, 66, 95
4, 86640, Note_off_c, 11, 61, 95
4, 86640, Note_off_c, 11, 54, 95
4, 86640, Note_on_c, 11, 70, 63
4, 86642, Note_on_c, 11, 66, 63
4, 86644, Note_on_c, 11, 61, 63
4, 86880, Note_off_c, 11, 70, 63
4, 86880, Note_off_c, 11, 66, 63
4, 86880, Note_off_c, 11, 61, 63
4, 86880, Note_on_c, 11, 61, 63
4, 86882, Note_on_c, 11, 66, 63
4, 86884, Note_on_c, 11, 70, 63
4, 87120, Note_off_c, 11, 70, 63
4, 87120, Note_off_c, 11, 66, 63
4, 87120, Note_off_c, 11, 61, 63
4, 87120, Note_on_c, 11, 70, 63
4, 87122, Note_on_c, 11, 66, 63
4, 87124, Note_on_c, 11, 61, 63
4, 87360, Note_off_c, 11, 70, 63
4, 87360, Note_off_c, 11, 66, 63
4, 87360, Note_off_c, 11, 61, 63
4, 87360, Note_on_c, 11, 61, 63
4, 87362, Note_on_c, 11, 66, 63
4, 87364, Note_on_c, 11, 70, 63
4, 87600, Note_off_c, 11, 70, 63
4, 87600, Note_off_c, 11, 66, 63
4, 87600, Note_off_c, 11, 61, 63
4, 87600, Note_on_c, 11, 70, 63
4, 87602, Note_on_c, 11, 66, 63
4, 87604, Note_on_c, 11, 61, 63
4, 87840, Note_off_c, 11, 70, 63
4, 87840, Note_off_c, 11, 66, 63
4, 87840, Note_off_c, 11, 61, 63
4, 87840, Note_on_c, 11, 61, 63
4, 87842, Note_on_c, 11, 66, 63
4, 87844, Note_on_c, 11, 70, 63
4, 88080, Note_off_c, 11, 70, 63
4, 88080, Note_off_c, 11, 66, 63
4, 88080, Note_off_c, 11, 61, 63
4, 88080, Note_on_c, 11, 70, 95
4, 88082, Note_on_c, 11, 64, 95
4, 88084, Note_on_c, 11, 61, 95
4, 88320, Note_off_c, 11, 70, 95
4, 88320, Note_off_c, 11, 64, 95
4, 88320, Note_off_c, 11, 61, 95
4, 88560, Note_on_c, 11, 70, 95
4, 88562, Note_on_c, 11, 64, 95
4, 88564, Note_on_c, 11, 61, 95
4, 88800, Note_off_c, 11, 70, 95
4, 88800, Note_off_c, 11, 64, 95
4, 88800, Note_off_c, 11, 61, 95
4, 89040, Note_on_c, 11, 70, 95
4, 89042, Note_on_c, 11, 64, 95
4, 89044, Note_on_c, 11, 61, 95
4, 89280, Note_off_c, 11, 70, 95
4, 89280, Note_off_c, 11, 64, 95
4, 89280, Note_off_c, 11, 61, 95
4, 89280, Note_on_c, 11, 61, 95
4, 89282, Note_on_c, 11, 64, 95
4, 89284, Note_on_c, 11, 70, 95
4, 89520, Note_off_c, 11, 70, 95
4, 89520, Note_off_c, 11, 64, 95
4, 89520, Note_off_c, 11, 61, 95
4, 89520, Note_on_c, 11, 70, 63
4, 89522, Note_on_c, 11, 64, 63
4, 89524, Note_on_c, 11, 61, 63
4, 89760, Note_off_c, 11, 70, 63
4, 89760, Note_off_c, 11, 64, 63
4, 89760, Note_off_c, 11, 61, 63
4, 89760, Note_on_c, 11, 61, 63
4, 89762, Note_on_c, 11, 64, 63
4, 89764, Note_on_c, 11, 70, 63
4, 90000, Note_off_c, 11, 70, 63
4, 90000, Note_off_c, 11, 64, 63
4, 90000, Note_off_c, 11, 61, 63
4, 90000, Note_on_c, 11, 70, 63
4, 90002, Note_on_c, 11, 64, 63
4, 90004, Note_on_c, 11, 61, 63
4, 90240, Note_off_c, 11, 70, 63
4, 90240, Note_off_c, 11, 64, 63
4, 90240, Note_off_c, 11, 61, 63
4, 90240, Note_on_c, 11, 54, 95
4, 90242, Note_on_c, 11, 61, 95
4, 90244, Note_on_c, 11, 63, 95
4, 90246, Note_on_c, 11, 70, 95
4, 90480, Note_off_c, 11, 70, 95
4, 90480, Note_off_c, 11, 63, 95
4, 90480, Note_off_c, 11, 61, 95
4, 90480, Note_off_c, 11, 54, 95
4, 90480, Note_on_c, 11, 70, 63
4, 90482, Note_on_c, 11, 63, 63
4, 90484, Note_on_c, 11, 61, 63
4, 90720, Note_off_c, 11, 70, 63
4, 90720, Note_off_c, 11, 63, 63
4, 90720, Note_off_c, 11, 61, 63
4, 90720, Note_on_c, 11, 61, 63
4, 90722, Note_on_c, 11, 63, 63
4, 90724, Note_on_c, 11, 70, 63
4, 90960, Note_off_c, 11, 70, 63
4, 90960, Note_off_c, 11, 63, 63
4, 90960, Note_off_c, 11, 61, 63
4, 90960, Note_on_c, 11, 70, 63
4, 90962, Note_on_c, 11, 63, 63
4, 90964, Note_on_c, 11, 61, 63
4, 91200, Note_off_c, 11, 70, 63
4, 91200, Note_off_c, 11, 63, 63
4, 91200, Note_off_c, 11, 61, 63
4, 91200, Note_on_c, 11, 61, 63
4, 91202, Note_on_c, 11, 63, 63
4, 91204, Note_on_c, 11, 70, 63
4, 91440, Note_off_c, 11, 70, 63
4, 91440, Note_off_c, 11, 63, 63
4, 91440, Note_off_c, 11, 61, 63
4, 91440, Note_on_c, 11, 70, 63
4, 91442, Note_on_c, 11, 63, 63
4, 91444, Note_on_c, 11, 61, 63
4, 91680, Note_off_c, 11, 70, 63
4, 91680, Note_off_c, 11, 63, 63
4, 91680, Note_off_c, 11, 61, 63
4, 91680, Note_on_c, 11, 61, 63
4, 91682, Note_on_c, 11, 63, 63
4, 91684, Note_on_c, 11, 70, 63
4, 91920, Note_off_c, 11, 70, 63
4, 91920, Note_off_c, 11, 63, 63
4, 91920, Note_off_c, 11, 61, 63
4, 91920, Note_on_c, 11, 71, 95
4, 91922, Note_on_c, 11, 68, 95
4, 91924, Note_on_c, 11, 62, 95
4, 91926, Note_on_c, 11, 54, 95
4, 92160, Note_off_c, 11, 71, 95
4, 92160, Note_off_c, 11, 68, 95
4, 92160, Note_off_c, 11, 62, 95
4, 92160, Note_off_c, 11, 54, 95
4, 92400, Note_on_c, 11, 71, 95
4, 92402, Note_on_c, 11, 68, 95
4, 92404, Note_on_c, 11, 62, 95
4, 92640, Note_off_c, 11, 71, 95
4, 92640, Note_off_c, 11, 68, 95
4, 92640, Note_off_c, 11, 62, 95
4, 92880, Note_on_c, 11, 71, 95
4, 92882, Note_on_c, 11, 68, 95
4, 92884, Note_on_c, 11, 62, 95
4, 93120, Note_off_c, 11, 71, 95
4, 93120, Note_off_c, 11, 68, 95
4, 93120, Note_off_c, 11, 62, 95
4, 93120, Note_on_c, 11, 62, 95
4, 93122, Note_on_c, 11, 68, 95
4, 93124, Note_on_c, 11, 71, 95
4, 93360, Note_off_c, 11, 71, 95
4, 93360, Note_off_c, 11, 68, 95
4, 93360, Note_off_c, 11, 62, 95
4, 93360, Note_on_c, 11, 71, 63
4, 93362, Note_on_c, 11, 68, 63
4, 93364, Note_on_c, 11, 62, 63
4, 93600, Note_off_c, 11, 71, 63
4, 93600, Note_off_c, 11, 68, 63
4, 93600, Note_off_c, 11, 62, 63
4, 93600, Note_on_c, 11, 62, 63
4, 93602, Note_on_c, 11, 68, 63
4, 93604, Note_on_c, 11, 71, 63
4, 93840, Note_off_c, 11, 71, 63
4, 93840, Note_off_c, 11, 68, 63
4, 93840, Note_off_c, 11, 62, 63
4, 93840, Note_on_c, 11, 71, 63
4, 93842, Note_on_c, 11, 68, 63
4, 93844, Note_on_c, 11, 62, 63
4, 94080, Note_off_c, 11, 71, 63
4, 94080, Note_off_c, 11, 68, 63
4, 94080, Note_off_c, 11, 62, 63
4, 94080, Note_on_c, 11, 54, 95
4, 94082, Note_on_c, 11, 61, 95
4, 94084, Note_on_c, 11, 66, 95
4, 94086, Note_on_c, 11, 70, 95
4, 94320, Note_off_c, 11, 70, 95
4, 94320, Note_off_c, 11, 66, 95
4, 94320, Note_off_c, 11, 61, 95
4, 94320, Note_off_c, 11, 54, 95
4, 94320, Note_on_c, 11, 70, 63
4, 94322, Note_on_c, 11, 66, 63
4, 94324, Note_on_c, 11, 61, 63
4, 94560, Note_off_c, 11, 70, 63
4, 94560, Note_off_c, 11, 66, 63
4, 94560, Note_off_c, 11, 61, 63
4, 94560, Note_on_c, 11, 61, 63
4, 94562, Note_on_c, 11, 66, 63
4, 94564, Note_on_c, 11, 70, 63
4, 94800, Note_off_c, 11, 70, 63
4, 94800, Note_off_c, 11, 66, 63
4, 94800, Note_off_c, 11, 61, 63
4, 94800, Note_on_c, 11, 70, 63
4, 94802, Note_on_c, 11, 66, 63
4, 94804, Note_on_c, 11, 61, 63
4, 95040, Note_off_c, 11, 70, 63
4, 95040, Note_off_c, 11, 66, 63
4, 95040, Note_off_c, 11, 61, 63
4, 95040, Note_on_c, 11, 61, 63
4, 95042, Note_on_c, 11, 66, 63
4, 95044, Note_on_c, 11, 70, 63
4, 95280, Note_off_c, 11, 70, 63
4, 95280, Note_off_c, 11, 66, 63
4, 95280, Note_off_c, 11, 61, 63
4, 95280, Note_on_c, 11, 70, 63
4, 95282, Note_on_c, 11, 66, 63
4, 95284, Note_on_c, 11, 61, 63
4, 95520, Note_off_c, 11, 70, 63
4, 95520, Note_off_c, 11, 66, 63
4, 95520, Note_off_c, 11, 61, 63
4, 95520, Note_on_c, 11, 61, 63
4, 95522, Note_on_c, 11, 66, 63
4, 95524, Note_on_c, 11, 70, 63
4, 95760, Note_off_c, 11, 70, 63
4, 95760, Note_off_c, 11, 66, 63
4, 95760, Note_off_c, 11, 61, 63
4, 95760, Note_on_c, 11, 68, 95
4, 95762, Note_on_c, 11, 65, 95
4, 95764, Note_on_c, 11, 61, 95
4, 95766, Note_on_c, 11, 56, 95
4, 95768, Note_on_c, 11, 49, 95
4, 96000, Note_off_c, 11, 68, 95
4, 96000, Note_off_c, 11, 65, 95
4, 96000, Note_off_c, 11, 61, 95
4, 96000, Note_off_c, 11, 56, 95
4, 96000, Note_off_c, 11, 49, 95
4, 96240, Note_on_c, 11, 68, 95
4, 96242, Note_on_c, 11, 65, 95
4, 96244, Note_on_c, 11, 61, 95
4, 96246, Note_on_c, 11, 56, 95
4, 96480, Note_off_c, 11, 68, 95
4, 96480, Note_off_c, 11, 65, 95
4, 96480, Note_off_c, 11, 61, 95
4, 96480, Note_off_c, 11, 56, 95
4, 96720, Note_on_c, 11, 68, 95
4, 96722, Note_on_c, 11, 65, 95
4, 96724, Note_on_c, 11, 61, 95
4, 96726, Note_on_c, 11, 56, 95
4, 96960, Note_off_c, 11, 68, 95
4, 96960, Note_off_c, 11, 65, 95
4, 96960, Note_off_c, 11, 61, 95
4, 96960, Note_off_c, 11, 56, 95
4, 96960, Note_on_c, 11, 56, 95
4, 96962, Note_on_c, 11, 61, 95
4, 96964, Note_on_c, 11, 65, 95
4, 96966, Note_on_c, 11, 68, 95
4, 97200, Note_off_c, 11, 68, 95
4, 97200, Note_off_c, 11, 65, 95
4, 97200, Note_off_c, 11, 61, 95
4, 97200, Note_off_c, 11, 56, 95
4, 97200, Note_on_c, 11, 68, 63
4, 97202, Note_on_c, 11, 65, 63
4, 97204, Note_on_c, 11, 61, 63
4, 97206, Note_on_c, 11, 56, 63
4, 97440, Note_off_c, 11, 68, 63
4, 97440, Note_off_c, 11, 65, 63
4, 97440, Note_off_c, 11, 61, 63
4, 97440, Note_off_c, 11, 56, 63
4, 97440, Note_on_c, 11, 56, 63
4, 97442, Note_on_c, 11, 61, 63
4, 97444, Note_on_c, 11, 65, 63
4, 97446, Note_on_c, 11, 68, 63
4, 97680, Note_off_c, 11, 68, 63
4, 97680, Note_off_c, 11, 65, 63
4, 97680, Note_off_c, 11, 61, 63
4, 97680, Note_off_c, 11, 56, 63
4, 97680, Note_on_c, 11, 68, 63
4, 97682, Note_on_c, 11, 65, 63
4, 97684, Note_on_c, 11, 61, 63
4, 97686, Note_on_c, 11, 56, 63
4, 97920, Note_off_c, 11, 68, 63
4, 97920, Note_off_c, 11, 65, 63
4, 97920, Note_off_c, 11, 61, 63
4, 97920, Note_off_c, 11, 56, 63
4, 97920, Note_on_c, 11, 54, 95
4, 97922, Note_on_c, 11, 59, 95
4, 97924, Note_on_c, 11, 66, 95
4, 97926, Note_on_c, 11, 71, 95
4, 98160, Note_off_c, 11, 71, 95
4, 98160, Note_off_c, 11, 66, 95
4, 98160, Note_off_c, 11, 59, 95
4, 98160, Note_off_c, 11, 54, 95
4, 98160, Note_on_c, 11, 71, 63
4, 98162, Note_on_c, 11, 66, 63
4, 98164, Note_on_c, 11, 59, 63
4, 98166, Note_on_c, 11, 54, 63
4, 98400, Note_off_c, 11, 71, 63
4, 98400, Note_off_c, 11, 66, 63
4, 98400, Note_off_c, 11, 59, 63
4, 98400, Note_off_c, 11, 54, 63
4, 98400, Note_on_c, 11, 54, 63
4, 98402, Note_on_c, 11, 59, 63
4, 98404, Note_on_c, 11, 66, 63
4, 98406, Note_on_c, 11, 71, 63
4, 98640, Note_off_c, 11, 71, 63
4, 98640, Note_off_c, 11, 66, 63
4, 98640, Note_off_c, 11, 59, 63
4, 98640, Note_off_c, 11, 54, 63
4, 98640, Note_on_c, 11, 71, 63
4, 98642, Note_on_c, 11, 66, 63
4, 98644, Note_on_c, 11, 59, 63
4, 98646, Note_on_c, 11, 54, 63
4, 98880, Note_off_c, 11, 71, 63
4, 98880, Note_off_c, 11, 66, 63
4, 98880, Note_off_c, 11, 59, 63
4, 98880, Note_off_c, 11, 54, 63
4, 98880, Note_on_c, 11, 54, 63
4, 98882, Note_on_c, 11, 59, 63
4, 98884, Note_on_c, 11, 66, 63
4, 98886, Note_on_c, 11, 71, 63
4, 99120, Note_off_c, 11, 71, 63
4, 99120, Note_off_c, 11, 66, 63
4, 99120, Note_off_c, 11, 59, 63
4, 99120, Note_off_c, 11, 54, 63
4, 99120, Note_on_c, 11, 71, 63
4, 99122, Note_on_c, 11, 66, 63
4, 99124, Note_on_c, 11, 59, 63
4, 99126, Note_on_c, 11, 54, 63
4, 99360, Note_off_c, 11, 71, 63
4, 99360, Note_off_c, 11, 66, 63
4, 99360, Note_off_c, 11, 59, 63
4, 99360, Note_off_c, 11, 54, 63
4, 99360, Note_on_c, 11, 54, 63
4, 99362, Note_on_c, 11, 59, 63
4, 99364, Note_on_c, 11, 66, 63
4, 99366, Note_on_c, 11, 71, 63
4, 99600, Note_off_c, 11, 71, 63
4, 99600, Note_off_c, 11, 66, 63
4, 99600, Note_off_c, 11, 59, 63
4, 99600, Note_off_c, 11, 54, 63
4, 99600, Note_on_c, 11, 71, 63
4, 99602, Note_on_c, 11, 66, 63
4, 99604, Note_on_c, 11, 59, 63
4, 99606, Note_on_c, 11, 54, 63
4, 99840, Note_off_c, 11, 71, 63
4, 99840, Note_off_c, 11, 66, 63
4, 99840, Note_off_c, 11, 59, 63
4, 99840, Note_off_c, 11, 54, 63
4, 100080, Note_on_c, 11, 70, 95
4, 100082, Note_on_c, 11, 66, 95
4, 100084, Note_on_c, 11, 61, 95
4, 100320, Note_off_c, 11, 70, 95
4, 100320, Note_off_c, 11, 66, 95
4, 100320, Note_off_c, 11, 61, 95
4, 100560, Note_on_c, 11, 70, 63
4, 100562, Note_on_c, 11, 66, 63
4, 100564, Note_on_c, 11, 61, 63
4, 100800, Note_off_c, 11, 70, 63
4, 100800, Note_off_c, 11, 66, 63
4, 100800, Note_off_c, 11, 61, 63
4, 100800, Note_on_c, 11, 61, 63
4, 100802, Note_on_c, 11, 66, 63
4, 100804, Note_on_c, 11, 70, 63
4, 101040, Note_off_c, 11, 70, 63
4, 101040, Note_off_c, 11, 66, 63
4, 101040, Note_off_c, 11, 61, 63
4, 101040, Note_on_c, 11, 70, 63
4, 101042, Note_on_c, 11, 66, 63
4, 101044, Note_on_c, 11, 61, 63
4, 101280, Note_off_c, 11, 70, 63
4, 101280, Note_off_c, 11, 66, 63
4, 101280, Note_off_c, 11, 61, 63
4, 101280, Note_on_c, 11, 61, 63
4, 101282, Note_on_c, 11, 66, 63
4, 101284, Note_on_c, 11, 70, 63
4, 101520, Note_off_c, 11, 70, 63
4, 101520, Note_off_c, 11, 66, 63
4, 101520, Note_off_c, 11, 61, 63
4, 101520, Note_on_c, 11, 70, 63
4, 101522, Note_on_c, 11, 66, 63
4, 101524, Note_on_c, 11, 61, 63
4, 101760, Note_off_c, 11, 70, 63
4, 101760, Note_off_c, 11, 66, 63
4, 101760, Note_off_c, 11, 61, 63
4, 101760, Note_on_c, 11, 70, 95
4, 101760, Note_on_c, 11, 66, 95
4, 101760, Note_on_c, 11, 61, 95
4, 101760, Note_on_c, 11, 54, 95
4, 102000, Note_off_c, 11, 70, 95
4, 102000, Note_off_c, 11, 66, 95
4, 102000, Note_off_c, 11, 61, 95
4, 102000, Note_off_c, 11, 54, 95
4, 102000, Note_on_c, 11, 70, 63
4, 102002, Note_on_c, 11, 66, 63
4, 102004, Note_on_c, 11, 61, 63
4, 102240, Note_off_c, 11, 70, 63
4, 102240, Note_off_c, 11, 66, 63
4, 102240, Note_off_c, 11, 61, 63
4, 102240, Note_on_c, 11, 70, 63
4, 102240, Note_on_c, 11, 66, 63
4, 102240, Note_on_c, 11, 61, 63
4, 102480, Note_off_c, 11, 70, 63
4, 102480, Note_off_c, 11, 66, 63
4, 102480, Note_off_c, 11, 61, 63
4, 102480, Note_on_c, 11, 70, 63
4, 102482, Note_on_c, 11, 66, 63
4, 102484, Note_on_c, 11, 61, 63
4, 102720, Note_off_c, 11, 70, 63
4, 102720, Note_off_c, 11, 66, 63
4, 102720, Note_off_c, 11, 61, 63
4, 102720, Note_on_c, 11, 61, 63
4, 102722, Note_on_c, 11, 66, 63
4, 102724, Note_on_c, 11, 70, 63
4, 102960, Note_off_c, 11, 70, 63
4, 102960, Note_off_c, 11, 66, 63
4, 102960, Note_off_c, 11, 61, 63
4, 102960, Note_on_c, 11, 70, 63
4, 102962, Note_on_c, 11, 66, 63
4, 102964, Note_on_c, 11, 61, 63
4, 103200, Note_off_c, 11, 70, 63
4, 103200, Note_off_c, 11, 66, 63
4, 103200, Note_off_c, 11, 61, 63
4, 103200, Note_on_c, 11, 61, 63
4, 103202, Note_on_c, 11, 66, 63
4, 103204, Note_on_c, 11, 70, 63
4, 103440, Note_off_c, 11, 70, 63
4, 103440, Note_off_c, 11, 66, 63
4, 103440, Note_off_c, 11, 61, 63
4, 103440, Note_on_c, 11, 70, 63
4, 103442, Note_on_c, 11, 66, 63
4, 103444, Note_on_c, 11, 61, 63
4, 103680, Note_off_c, 11, 70, 63
4, 103680, Note_off_c, 11, 66, 63
4, 103680, Note_off_c, 11, 61, 63
4, 103680, Note_on_c, 11, 44, 95
4, 103682, Note_on_c, 11, 51, 95
4, 103684, Note_on_c, 11, 56, 95
4, 103686, Note_on_c, 11, 59, 95
4, 103688, Note_on_c, 11, 63, 95
4, 103690, Note_on_c, 11, 68, 95
4, 103920, Note_off_c, 11, 68, 95
4, 103920, Note_off_c, 11, 63, 95
4, 103920, Note_off_c, 11, 59, 95
4, 103920, Note_off_c, 11, 56, 95
4, 103920, Note_off_c, 11, 51, 95
4, 103920, Note_off_c, 11, 44, 95
4, 103920, Note_on_c, 11, 68, 63
4, 103922, Note_on_c, 11, 63, 63
4, 103924, Note_on_c, 11, 59, 63
4, 103926, Note_on_c, 11, 56, 63
4, 103928, Note_on_c, 11, 51, 63
4, 104160, Note_off_c, 11, 68, 63
4, 104160, Note_off_c, 11, 63, 63
4, 104160, Note_off_c, 11, 59, 63
4, 104160, Note_off_c, 11, 56, 63
4, 104160, Note_off_c, 11, 51, 63
4, 104160, Note_on_c, 11, 51, 63
4, 104162, Note_on_c, 11, 56, 63
4, 104164, Note_on_c, 11, 59, 63
4, 104166, Note_on_c, 11, 63, 63
4, 104168, Note_on_c, 11, 68, 63
4, 104400, Note_off_c, 11, 68, 63
4, 104400, Note_off_c, 11, 63, 63
4, 104400, Note_off_c, 11, 59, 63
4, 104400, Note_off_c, 11, 56, 63
4, 104400, Note_off_c, 11, 51, 63
4, 104400, Note_on_c, 11, 68, 63
4, 104402, Note_on_c, 11, 63, 63
4, 104404, Note_on_c, 11, 59, 63
4, 104406, Note_on_c, 11, 56, 63
4, 104408, Note_on_c, 11, 51, 63
4, 104640, Note_off_c, 11, 68, 63
4, 104640, Note_off_c, 11, 63, 63
4, 104640, Note_off_c, 11, 59, 63
4, 104640, Note_off_c, 11, 56, 63
4, 104640, Note_off_c, 11, 51, 63
4, 104640, Note_on_c, 11, 51, 63
4, 104642, Note_on_c, 11, 56, 63
4, 104644, Note_on_c, 11, 59, 63
4, 104646, Note_on_c, 11, 63, 63
4, 104648, Note_on_c, 11, 68, 63
4, 104880, Note_off_c, 11, 68, 63
4, 104880, Note_off_c, 11, 63, 63
4, 104880, Note_off_c, 11, 59, 63
4, 104880, Note_off_c, 11, 56, 63
4, 104880, Note_off_c, 11, 51, 63
4, 104880, Note_on_c, 11, 68, 63
4, 104882, Note_on_c, 11, 63, 63
4, 104884, Note_on_c, 11, 59, 63
4, 104886, Note_on_c, 11, 56, 63
4, 104888, Note_on_c, 11, 51, 63
4, 105120, Note_off_c, 11, 68, 63
4, 105120, Note_off_c, 11, 63, 63
4, 105120, Note_off_c, 11, 59, 63
4, 105120, Note_off_c, 11, 56, 63
4, 105120, Note_off_c, 11, 51, 63
4, 105120, Note_on_c, 11, 51, 63
4, 105122, Note_on_c, 11, 56, 63
4, 105124, Note_on_c, 11, 59, 63
4, 105126, Note_on_c, 11, 63, 63
4, 105128, Note_on_c, 11, 68, 63
4, 105360, Note_off_c, 11, 68, 63
4, 105360, Note_off_c, 11, 63, 63
4, 105360, Note_off_c, 11, 59, 63
4, 105360, Note_off_c, 11, 56, 63
4, 105360, Note_off_c, 11, 51, 63
4, 105360, Note_on_c, 11, 70, 95
4, 105362, Note_on_c, 11, 65, 95
4, 105364, Note_on_c, 11, 61, 95
4, 105366, Note_on_c, 11, 58, 95
4, 105368, Note_on_c, 11, 53, 95
4, 105370, Note_on_c, 11, 46, 95
4, 105600, Note_off_c, 11, 70, 95
4, 105600, Note_off_c, 11, 65, 95
4, 105600, Note_off_c, 11, 61, 95
4, 105600, Note_off_c, 11, 58, 95
4, 105600, Note_off_c, 11, 53, 95
4, 105600, Note_off_c, 11, 46, 95
4, 105840, Note_on_c, 11, 70, 95
4, 105842, Note_on_c, 11, 65, 95
4, 105844, Note_on_c, 11, 61, 95
4, 105846, Note_on_c, 11, 58, 95
4, 105848, Note_on_c, 11, 53, 95
4, 106080, Note_off_c, 11, 70, 95
4, 106080, Note_off_c, 11, 65, 95
4, 106080, Note_off_c, 11, 61, 95
4, 106080, Note_off_c, 11, 58, 95
4, 106080, Note_off_c, 11, 53, 95
4, 106320, Note_on_c, 11, 70, 95
4, 106322, Note_on_c, 11, 65, 95
4, 106324, Note_on_c, 11, 61, 95
4, 106326, Note_on_c, 11, 58, 95
4, 106328, Note_on_c, 11, 53, 95
4, 106560, Note_off_c, 11, 70, 95
4, 106560, Note_off_c, 11, 65, 95
4, 106560, Note_off_c, 11, 61, 95
4, 106560, Note_off_c, 11, 58, 95
4, 106560, Note_off_c, 11, 53, 95
4, 106560, Note_on_c, 11, 53, 95
4, 106562, Note_on_c, 11, 58, 95
4, 106564, Note_on_c, 11, 61, 95
4, 106566, Note_on_c, 11, 65, 95
4, 106568, Note_on_c, 11, 70, 95
4, 106800, Note_off_c, 11, 70, 95
4, 106800, Note_off_c, 11, 65, 95
4, 106800, Note_off_c, 11, 61, 95
4, 106800, Note_off_c, 11, 58, 95
4, 106800, Note_off_c, 11, 53, 95
4, 106800, Note_on_c, 11, 70, 63
4, 106802, Note_on_c, 11, 65, 63
4, 106804, Note_on_c, 11, 61, 63
4, 106806, Note_on_c, 11, 58, 63
4, 106808, Note_on_c, 11, 53, 63
4, 107040, Note_off_c, 11, 70, 63
4, 107040, Note_off_c, 11, 65, 63
4, 107040, Note_off_c, 11, 61, 63
4, 107040, Note_off_c, 11, 58, 63
4, 107040, Note_off_c, 11, 53, 63
4, 107040, Note_on_c, 11, 53, 63
4, 107042, Note_on_c, 11, 58, 63
4, 107044, Note_on_c, 11, 61, 63
4, 107046, Note_on_c, 11, 65, 63
4, 107048, Note_on_c, 11, 70, 63
4, 107280, Note_off_c, 11, 70, 63
4, 107280, Note_off_c, 11, 65, 63
4, 107280, Note_off_c, 11, 61, 63
4, 107280, Note_off_c, 11, 58, 63
4, 107280, Note_off_c, 11, 53, 63
4, 107280, Note_on_c, 11, 70, 63
4, 107282, Note_on_c, 11, 65, 63
4, 107284, Note_on_c, 11, 61, 63
4, 107286, Note_on_c, 11, 58, 63
4, 107288, Note_on_c, 11, 53, 63
4, 107520, Note_off_c, 11, 70, 63
4, 107520, Note_off_c, 11, 65, 63
4, 107520, Note_off_c, 11, 61, 63
4, 107520, Note_off_c, 11, 58, 63
4, 107520, Note_off_c, 11, 53, 63
4, 107520, Note_on_c, 11, 47, 95
4, 107522, Note_on_c, 11, 51, 95
4, 107524, Note_on_c, 11, 54, 95
4, 107526, Note_on_c, 11, 59, 95
4, 107528, Note_on_c, 11, 66, 95
4, 107530, Note_on_c, 11, 71, 95
4, 107760, Note_off_c, 11, 71, 95
4, 107760, Note_off_c, 11, 66, 95
4, 107760, Note_off_c, 11, 59, 95
4, 107760, Note_off_c, 11, 54, 95
4, 107760, Note_off_c, 11, 51, 95
4, 107760, Note_off_c, 11, 47, 95
4, 107760, Note_on_c, 11, 71, 63
4, 107762, Note_on_c, 11, 66, 63
4, 107764, Note_on_c, 11, 59, 63
4, 107766, Note_on_c, 11, 54, 63
4, 107768, Note_on_c, 11, 51, 63
4, 108000, Note_off_c, 11, 71, 63
4, 108000, Note_off_c, 11, 66, 63
4, 108000, Note_off_c, 11, 59, 63
4, 108000, Note_off_c, 11, 54, 63
4, 108000, Note_off_c, 11, 51, 63
4, 108000, Note_on_c, 11, 51, 63
4, 108002, Note_on_c, 11, 54, 63
4, 108004, Note_on_c, 11, 59, 63
4, 108006, Note_on_c, 11, 66, 63
4, 108008, Note_on_c, 11, 71, 63
4, 108240, Note_off_c, 11, 71, 63
4, 108240, Note_off_c, 11, 66, 63
4, 108240, Note_off_c, 11, 59, 63
4, 108240, Note_off_c, 11, 54, 63
4, 108240, Note_off_c, 11, 51, 63
4, 108240, Note_on_c, 11, 71, 63
4, 108242, Note_on_c, 11, 66, 63
4, 108244, Note_on_c, 11, 59, 63
4, 108246, Note_on_c, 11, 54, 63
4, 108248, Note_on_c, 11, 51, 63
4, 108480, Note_off_c, 11, 71, 63
4, 108480, Note_off_c, 11, 66, 63
4, 108480, Note_off_c, 11, 59, 63
4, 108480, Note_off_c, 11, 54, 63
4, 108480, Note_off_c, 11, 51, 63
4, 108480, Note_on_c, 11, 51, 63
4, 108482, Note_on_c, 11, 54, 63
4, 108484, Note_on_c, 11, 59, 63
4, 108486, Note_on_c, 11, 66, 63
4, 108488, Note_on_c, 11, 71, 63
4, 108720, Note_off_c, 11, 71, 63
4, 108720, Note_off_c, 11, 66, 63
4, 108720, Note_off_c, 11, 59, 63
4, 108720, Note_off_c, 11, 54, 63
4, 108720, Note_off_c, 11, 51, 63
4, 108720, Note_on_c, 11, 71, 63
4, 108722, Note_on_c, 11, 66, 63
4, 108724, Note_on_c, 11, 59, 63
4, 108726, Note_on_c, 11, 54, 63
4, 108728, Note_on_c, 11, 51, 63
4, 108960, Note_off_c, 11, 71, 63
4, 108960, Note_off_c, 11, 66, 63
4, 108960, Note_off_c, 11, 59, 63
4, 108960, Note_off_c, 11, 54, 63
4, 108960, Note_off_c, 11, 51, 63
4, 108960, Note_on_c, 11, 51, 63
4, 108962, Note_on_c, 11, 54, 63
4, 108964, Note_on_c, 11, 59, 63
4, 108966, Note_on_c, 11, 66, 63
4, 108968, Note_on_c, 11, 71, 63
4, 109200, Note_off_c, 11, 71, 63
4, 109200, Note_off_c, 11, 66, 63
4, 109200, Note_off_c, 11, 59, 63
4, 109200, Note_off_c, 11, 54, 63
4, 109200, Note_off_c, 11, 51, 63
4, 109200, Note_on_c, 11, 68, 95
4, 109202, Note_on_c, 11, 65, 95
4, 109204, Note_on_c, 11, 61, 95
4, 109206, Note_on_c, 11, 56, 95
4, 109208, Note_on_c, 11, 49, 95
4, 109440, Note_off_c, 11, 68, 95
4, 109440, Note_off_c, 11, 65, 95
4, 109440, Note_off_c, 11, 61, 95
4, 109440, Note_off_c, 11, 56, 95
4, 109440, Note_off_c, 11, 49, 95
4, 109680, Note_on_c, 11, 68, 95
4, 109682, Note_on_c, 11, 65, 95
4, 109684, Note_on_c, 11, 61, 95
4, 109686, Note_on_c, 11, 56, 95
4, 109920, Note_off_c, 11, 68, 95
4, 109920, Note_off_c, 11, 65, 95
4, 109920, Note_off_c, 11, 61, 95
4, 109920, Note_off_c, 11, 56, 95
4, 110160, Note_on_c, 11, 68, 95
4, 110162, Note_on_c, 11, 65, 95
4, 110164, Note_on_c, 11, 61, 95
4, 110166, Note_on_c, 11, 56, 95
4, 110400, Note_off_c, 11, 68, 95
4, 110400, Note_off_c, 11, 65, 95
4, 110400, Note_off_c, 11, 61, 95
4, 110400, Note_off_c, 11, 56, 95
4, 110400, Note_on_c, 11, 56, 95
4, 110402, Note_on_c, 11, 61, 95
4, 110404, Note_on_c, 11, 65, 95
4, 110406, Note_on_c, 11, 68, 95
4, 110640, Note_off_c, 11, 68, 95
4, 110640, Note_off_c, 11, 65, 95
4, 110640, Note_off_c, 11, 61, 95
4, 110640, Note_off_c, 11, 56, 95
4, 110640, Note_on_c, 11, 68, 63
4, 110642, Note_on_c, 11, 65, 63
4, 110644, Note_on_c, 11, 61, 63
4, 110646, Note_on_c, 11, 56, 63
4, 110880, Note_off_c, 11, 68, 63
4, 110880, Note_off_c, 11, 65, 63
4, 110880, Note_off_c, 11, 61, 63
4, 110880, Note_off_c, 11, 56, 63
4, 110880, Note_on_c, 11, 56, 63
4, 110882, Note_on_c, 11, 61, 63
4, 110884, Note_on_c, 11, 65, 63
4, 110886, Note_on_c, 11, 68, 63
4, 111120, Note_off_c, 11, 68, 63
4, 111120, Note_off_c, 11, 65, 63
4, 111120, Note_off_c, 11, 61, 63
4, 111120, Note_off_c, 11, 56, 63
4, 111120, Note_on_c, 11, 68, 63
4, 111122, Note_on_c, 11, 65, 63
4, 111124, Note_on_c, 11, 61, 63
4, 111126, Note_on_c, 11, 56, 63
4, 111360, Note_off_c, 11, 68, 63
4, 111360, Note_off_c, 11, 65, 63
4, 111360, Note_off_c, 11, 61, 63
4, 111360, Note_off_c, 11, 56, 63
4, 111360, Note_on_c, 11, 51, 95
4, 111362, Note_on_c, 11, 56, 95
4, 111364, Note_on_c, 11, 59, 95
4, 111366, Note_on_c, 11, 63, 95
4, 111368, Note_on_c, 11, 68, 95
4, 111600, Note_off_c, 11, 68, 95
4, 111600, Note_off_c, 11, 63, 95
4, 111600, Note_off_c, 11, 59, 95
4, 111600, Note_off_c, 11, 56, 95
4, 111600, Note_off_c, 11, 51, 95
4, 111600, Note_on_c, 11, 68, 63
4, 111602, Note_on_c, 11, 63, 63
4, 111604, Note_on_c, 11, 59, 63
4, 111606, Note_on_c, 11, 56, 63
4, 111608, Note_on_c, 11, 51, 63
4, 111840, Note_off_c, 11, 68, 63
4, 111840, Note_off_c, 11, 63, 63
4, 111840, Note_off_c, 11, 59, 63
4, 111840, Note_off_c, 11, 56, 63
4, 111840, Note_off_c, 11, 51, 63
4, 111840, Note_on_c, 11, 51, 63
4, 111842, Note_on_c, 11, 56, 63
4, 111844, Note_on_c, 11, 59, 63
4, 111846, Note_on_c, 11, 63, 63
4, 111848, Note_on_c, 11, 68, 63
4, 112080, Note_off_c, 11, 68, 63
4, 112080, Note_off_c, 11, 63, 63
4, 112080, Note_off_c, 11, 59, 63
4, 112080, Note_off_c, 11, 56, 63
4, 112080, Note_off_c, 11, 51, 63
4, 112080, Note_on_c, 11, 68, 63
4, 112082, Note_on_c, 11, 63, 63
4, 112084, Note_on_c, 11, 59, 63
4, 112086, Note_on_c, 11, 56, 63
4, 112088, Note_on_c, 11, 51, 63
4, 112320, Note_off_c, 11, 68, 63
4, 112320, Note_off_c, 11, 63, 63
4, 112320, Note_off_c, 11, 59, 63
4, 112320, Note_off_c, 11, 56, 63
4, 112320, Note_off_c, 11, 51, 63
4, 112320, Note_on_c, 11, 51, 63
4, 112322, Note_on_c, 11, 56, 63
4, 112324, Note_on_c, 11, 59, 63
4, 112326, Note_on_c, 11, 63, 63
4, 112328, Note_on_c, 11, 68, 63
4, 112560, Note_off_c, 11, 68, 63
4, 112560, Note_off_c, 11, 63, 63
4, 112560, Note_off_c, 11, 59, 63
4, 112560, Note_off_c, 11, 56, 63
4, 112560, Note_off_c, 11, 51, 63
4, 112560, Note_on_c, 11, 68, 63
4, 112562, Note_on_c, 11, 63, 63
4, 112564, Note_on_c, 11, 59, 63
4, 112566, Note_on_c, 11, 56, 63
4, 112568, Note_on_c, 11, 51, 63
4, 112800, Note_off_c, 11, 68, 63
4, 112800, Note_off_c, 11, 63, 63
4, 112800, Note_off_c, 11, 59, 63
4, 112800, Note_off_c, 11, 56, 63
4, 112800, Note_off_c, 11, 51, 63
4, 112800, Note_on_c, 11, 51, 63
4, 112802, Note_on_c, 11, 56, 63
4, 112804, Note_on_c, 11, 59, 63
4, 112806, Note_on_c, 11, 63, 63
4, 112808, Note_on_c, 11, 68, 63
4, 113040, Note_off_c, 11, 68, 63
4, 113040, Note_off_c, 11, 63, 63
4, 113040, Note_off_c, 11, 59, 63
4, 113040, Note_off_c, 11, 56, 63
4, 113040, Note_off_c, 11, 51, 63
4, 113040, Note_on_c, 11, 70, 95
4, 113042, Note_on_c, 11, 65, 95
4, 113044, Note_on_c, 11, 61, 95
4, 113046, Note_on_c, 11, 58, 95
4, 113048, Note_on_c, 11, 53, 95
4, 113280, Note_off_c, 11, 70, 95
4, 113280, Note_off_c, 11, 65, 95
4, 113280, Note_off_c, 11, 61, 95
4, 113280, Note_off_c, 11, 58, 95
4, 113280, Note_off_c, 11, 53, 95
4, 113520, Note_on_c, 11, 70, 95
4, 113522, Note_on_c, 11, 65, 95
4, 113524, Note_on_c, 11, 61, 95
4, 113526, Note_on_c, 11, 58, 95
4, 113528, Note_on_c, 11, 53, 95
4, 113760, Note_off_c, 11, 70, 95
4, 113760, Note_off_c, 11, 65, 95
4, 113760, Note_off_c, 11, 61, 95
4, 113760, Note_off_c, 11, 58, 95
4, 113760, Note_off_c, 11, 53, 95
4, 114000, Note_on_c, 11, 70, 95
4, 114002, Note_on_c, 11, 65, 95
4, 114004, Note_on_c, 11, 61, 95
4, 114006, Note_on_c, 11, 58, 95
4, 114008, Note_on_c, 11, 53, 95
4, 114240, Note_off_c, 11, 70, 95
4, 114240, Note_off_c, 11, 65, 95
4, 114240, Note_off_c, 11, 61, 95
4, 114240, Note_off_c, 11, 58, 95
4, 114240, Note_off_c, 11, 53, 95
4, 114240, Note_on_c, 11, 53, 95
4, 114242, Note_on_c, 11, 58, 95
4, 114244, Note_on_c, 11, 61, 95
4, 114246, Note_on_c, 11, 65, 95
4, 114248, Note_on_c, 11, 70, 95
4, 114480, Note_off_c, 11, 70, 95
4, 114480, Note_off_c, 11, 65, 95
4, 114480, Note_off_c, 11, 61, 95
4, 114480, Note_off_c, 11, 58, 95
4, 114480, Note_off_c, 11, 53, 95
4, 114480, Note_on_c, 11, 70, 63
4, 114482, Note_on_c, 11, 65, 63
4, 114484, Note_on_c, 11, 61, 63
4, 114486, Note_on_c, 11, 58, 63
4, 114488, Note_on_c, 11, 53, 63
4, 114720, Note_off_c, 11, 70, 63
4, 114720, Note_off_c, 11, 65, 63
4, 114720, Note_off_c, 11, 61, 63
4, 114720, Note_off_c, 11, 58, 63
4, 114720, Note_off_c, 11, 53, 63
4, 114720, Note_on_c, 11, 53, 63
4, 114722, Note_on_c, 11, 58, 63
4, 114724, Note_on_c, 11, 61, 63
4, 114726, Note_on_c, 11, 65, 63
4, 114728, Note_on_c, 11, 70, 63
4, 114960, Note_off_c, 11, 70, 63
4, 114960, Note_off_c, 11, 65, 63
4, 114960, Note_off_c, 11, 61, 63
4, 114960, Note_off_c, 11, 58, 63
4, 114960, Note_off_c, 11, 53, 63
4, 114960, Note_on_c, 11, 70, 63
4, 114962, Note_on_c, 11, 65, 63
4, 114964, Note_on_c, 11, 61, 63
4, 114966, Note_on_c, 11, 58, 63
4, 114968, Note_on_c, 11, 53, 63
4, 115200, Note_off_c, 11, 70, 63
4, 115200, Note_off_c, 11, 65, 63
4, 115200, Note_off_c, 11, 61, 63
4, 115200, Note_off_c, 11, 58, 63
4, 115200, Note_off_c, 11, 53, 63
4, 115200, Note_on_c, 11, 54, 95
4, 115202, Note_on_c, 11, 59, 95
4, 115204, Note_on_c, 11, 63, 95
4, 115206, Note_on_c, 11, 71, 95
4, 115440, Note_off_c, 11, 71, 95
4, 115440, Note_off_c, 11, 63, 95
4, 115440, Note_off_c, 11, 59, 95
4, 115440, Note_off_c, 11, 54, 95
4, 115440, Note_on_c, 11, 71, 63
4, 115442, Note_on_c, 11, 63, 63
4, 115444, Note_on_c, 11, 59, 63
4, 115446, Note_on_c, 11, 54, 63
4, 115680, Note_off_c, 11, 71, 63
4, 115680, Note_off_c, 11, 63, 63
4, 115680, Note_off_c, 11, 59, 63
4, 115680, Note_off_c, 11, 54, 63
4, 115680, Note_on_c, 11, 54, 63
4, 115682, Note_on_c, 11, 59, 63
4, 115684, Note_on_c, 11, 63, 63
4, 115686, Note_on_c, 11, 71, 63
4, 115920, Note_off_c, 11, 71, 63
4, 115920, Note_off_c, 11, 63, 63
4, 115920, Note_off_c, 11, 59, 63
4, 115920, Note_off_c, 11, 54, 63
4, 115920, Note_on_c, 11, 71, 63
4, 115922, Note_on_c, 11, 63, 63
4, 115924, Note_on_c, 11, 59, 63
4, 115926, Note_on_c, 11, 54, 63
4, 116160, Note_off_c, 11, 71, 63
4, 116160, Note_off_c, 11, 63, 63
4, 116160, Note_off_c, 11, 59, 63
4, 116160, Note_off_c, 11, 54, 63
4, 116160, Note_on_c, 11, 54, 63
4, 116162, Note_on_c, 11, 59, 63
4, 116164, Note_on_c, 11, 63, 63
4, 116166, Note_on_c, 11, 71, 63
4, 116400, Note_off_c, 11, 71, 63
4, 116400, Note_off_c, 11, 63, 63
4, 116400, Note_off_c, 11, 59, 63
4, 116400, Note_off_c, 11, 54, 63
4, 116400, Note_on_c, 11, 71, 63
4, 116402, Note_on_c, 11, 63, 63
4, 116404, Note_on_c, 11, 59, 63
4, 116406, Note_on_c, 11, 54, 63
4, 116640, Note_off_c, 11, 71, 63
4, 116640, Note_off_c, 11, 63, 63
4, 116640, Note_off_c, 11, 59, 63
4, 116640, Note_off_c, 11, 54, 63
4, 116640, Note_on_c, 11, 54, 63
4, 116642, Note_on_c, 11, 59, 63
4, 116644, Note_on_c, 11, 63, 63
4, 116646, Note_on_c, 11, 71, 63
4, 116880, Note_off_c, 11, 71, 63
4, 116880, Note_off_c, 11, 63, 63
4, 116880, Note_off_c, 11, 59, 63
4, 116880, Note_off_c, 11, 54, 63
4, 116880, Note_on_c, 11, 68, 95
4, 116882, Note_on_c, 11, 65, 95
4, 116884, Note_on_c, 11, 61, 95
4, 116886, Note_on_c, 11, 56, 95
4, 117120, Note_off_c, 11, 68, 95
4, 117120, Note_off_c, 11, 65, 95
4, 117120, Note_off_c, 11, 61, 95
4, 117120, Note_off_c, 11, 56, 95
4, 117360, Note_on_c, 11, 68, 95
4, 117362, Note_on_c, 11, 65, 95
4, 117364, Note_on_c, 11, 61, 95
4, 117366, Note_on_c, 11, 56, 95
4, 117600, Note_off_c, 11, 68, 95
4, 117600, Note_off_c, 11, 65, 95
4, 117600, Note_off_c, 11, 61, 95
4, 117600, Note_off_c, 11, 56, 95
4, 117840, Note_on_c, 11, 68, 95
4, 117842, Note_on_c, 11, 65, 95
4, 117844, Note_on_c, 11, 61, 95
4, 117846, Note_on_c, 11, 56, 95
4, 118080, Note_off_c, 11, 68, 95
4, 118080, Note_off_c, 11, 65, 95
4, 118080, Note_off_c, 11, 61, 95
4, 118080, Note_off_c, 11, 56, 95
4, 118080, Note_on_c, 11, 56, 95
4, 118082, Note_on_c, 11, 61, 95
4, 118084, Note_on_c, 11, 65, 95
4, 118086, Note_on_c, 11, 68, 95
4, 118320, Note_off_c, 11, 68, 95
4, 118320, Note_off_c, 11, 65, 95
4, 118320, Note_off_c, 11, 61, 95
4, 118320, Note_off_c, 11, 56, 95
4, 118320, Note_on_c, 11, 68, 63
4, 118322, Note_on_c, 11, 65, 63
4, 118324, Note_on_c, 11, 61, 63
4, 118326, Note_on_c, 11, 56, 63
4, 118560, Note_off_c, 11, 68, 63
4, 118560, Note_off_c, 11, 65, 63
4, 118560, Note_off_c, 11, 61, 63
4, 118560, Note_off_c, 11, 56, 63
4, 118560, Note_on_c, 11, 56, 63
4, 118562, Note_on_c, 11, 61, 63
4, 118564, Note_on_c, 11, 65, 63
4, 118566, Note_on_c, 11, 68, 63
4, 118800, Note_off_c, 11, 68, 63
4, 118800, Note_off_c, 11, 65, 63
4, 118800, Note_off_c, 11, 61, 63
4, 118800, Note_off_c, 11, 56, 63
4, 118800, Note_on_c, 11, 68, 63
4, 118802, Note_on_c, 11, 65, 63
4, 118804, Note_on_c, 11, 61, 63
4, 118806, Note_on_c, 11, 56, 63
4, 119040, Note_off_c, 11, 68, 63
4, 119040, Note_off_c, 11, 65, 63
4, 119040, Note_off_c, 11, 61, 63
4, 119040, Note_off_c, 11, 56, 63
4, 119040, Note_on_c, 11, 54, 95
4, 119042, Note_on_c, 11, 61, 95
4, 119044, Note_on_c, 11, 66, 95
4, 119046, Note_on_c, 11, 73, 95
4, 119280, Note_off_c, 11, 73, 95
4, 119280, Note_off_c, 11, 66, 95
4, 119280, Note_off_c, 11, 61, 95
4, 119280, Note_off_c, 11, 54, 95
4, 119280, Note_on_c, 11, 73, 63
4, 119282, Note_on_c, 11, 66, 63
4, 119284, Note_on_c, 11, 61, 63
4, 119520, Note_off_c, 11, 73, 63
4, 119520, Note_off_c, 11, 66, 63
4, 119520, Note_off_c, 11, 61, 63
4, 119520, Note_on_c, 11, 61, 63
4, 119522, Note_on_c, 11, 66, 63
4, 119524, Note_on_c, 11, 73, 63
4, 119760, Note_off_c, 11, 73, 63
4, 119760, Note_off_c, 11, 66, 63
4, 119760, Note_off_c, 11, 61, 63
4, 119760, Note_on_c, 11, 73, 63
4, 119762, Note_on_c, 11, 66, 63
4, 119764, Note_on_c, 11, 61, 63
4, 120000, Note_off_c, 11, 73, 63
4, 120000, Note_off_c, 11, 66, 63
4, 120000, Note_off_c, 11, 61, 63
4, 120000, Note_on_c, 11, 61, 63
4, 120002, Note_on_c, 11, 66, 63
4, 120004, Note_on_c, 11, 73, 63
4, 120240, Note_off_c, 11, 73, 63
4, 120240, Note_off_c, 11, 66, 63
4, 120240, Note_off_c, 11, 61, 63
4, 120240, Note_on_c, 11, 73, 63
4, 120242, Note_on_c, 11, 66, 63
4, 120244, Note_on_c, 11, 61, 63
4, 120480, Note_off_c, 11, 73, 63
4, 120480, Note_off_c, 11, 66, 63
4, 120480, Note_off_c, 11, 61, 63
4, 120480, Note_on_c, 11, 61, 63
4, 120482, Note_on_c, 11, 66, 63
4, 120484, Note_on_c, 11, 73, 63
4, 120720, Note_off_c, 11, 73, 63
4, 120720, Note_off_c, 11, 66, 63
4, 120720, Note_off_c, 11, 61, 63
4, 120720, Note_on_c, 11, 72, 95
4, 120722, Note_on_c, 11, 66, 95
4, 120724, Note_on_c, 11, 60, 95
4, 120726, Note_on_c, 11, 56, 95
4, 120728, Note_on_c, 11, 51, 95
4, 120730, Note_on_c, 11, 44, 95
4, 120960, Note_off_c, 11, 72, 95
4, 120960, Note_off_c, 11, 66, 95
4, 120960, Note_off_c, 11, 60, 95
4, 120960, Note_off_c, 11, 56, 95
4, 120960, Note_off_c, 11, 51, 95
4, 120960, Note_off_c, 11, 44, 95
4, 121200, Note_on_c, 11, 72, 95
4, 121202, Note_on_c, 11, 66, 95
4, 121204, Note_on_c, 11, 60, 95
4, 121206, Note_on_c, 11, 56, 95
4, 121208, Note_on_c, 11, 51, 95
4, 121440, Note_off_c, 11, 72, 95
4, 121440, Note_off_c, 11, 66, 95
4, 121440, Note_off_c, 11, 60, 95
4, 121440, Note_off_c, 11, 56, 95
4, 121440, Note_off_c, 11, 51, 95
4, 121680, Note_on_c, 11, 72, 95
4, 121682, Note_on_c, 11, 66, 95
4, 121684, Note_on_c, 11, 60, 95
4, 121686, Note_on_c, 11, 56, 95
4, 121688, Note_on_c, 11, 51, 95
4, 121920, Note_off_c, 11, 72, 95
4, 121920, Note_off_c, 11, 66, 95
4, 121920, Note_off_c, 11, 60, 95
4, 121920, Note_off_c, 11, 56, 95
4, 121920, Note_off_c, 11, 51, 95
4, 121920, Note_on_c, 11, 51, 95
4, 121922, Note_on_c, 11, 56, 95
4, 121924, Note_on_c, 11, 60, 95
4, 121926, Note_on_c, 11, 66, 95
4, 121928, Note_on_c, 11, 72, 95
4, 122160, Note_off_c, 11, 72, 95
4, 122160, Note_off_c, 11, 66, 95
4, 122160, Note_off_c, 11, 60, 95
4, 122160, Note_off_c, 11, 56, 95
4, 122160, Note_off_c, 11, 51, 95
4, 122160, Note_on_c, 11, 72, 63
4, 122162, Note_on_c, 11, 66, 63
4, 122164, Note_on_c, 11, 60, 63
4, 122166, Note_on_c, 11, 56, 63
4, 122168, Note_on_c, 11, 51, 63
4, 122400, Note_off_c, 11, 72, 63
4, 122400, Note_off_c, 11, 66, 63
4, 122400, Note_off_c, 11, 60, 63
4, 122400, Note_off_c, 11, 56, 63
4, 122400, Note_off_c, 11, 51, 63
4, 122400, Note_on_c, 11, 51, 63
4, 122402, Note_on_c, 11, 56, 63
4, 122404, Note_on_c, 11, 60, 63
4, 122406, Note_on_c, 11, 66, 63
4, 122408, Note_on_c, 11, 72, 63
4, 122640, Note_off_c, 11, 72, 63
4, 122640, Note_off_c, 11, 66, 63
4, 122640, Note_off_c, 11, 60, 63
4, 122640, Note_off_c, 11, 56, 63
4, 122640, Note_off_c, 11, 51, 63
4, 122640, Note_on_c, 11, 72, 63
4, 122642, Note_on_c, 11, 66, 63
4, 122644, Note_on_c, 11, 60, 63
4, 122646, Note_on_c, 11, 56, 63
4, 122648, Note_on_c, 11, 51, 63
4, 122880, Note_off_c, 11, 72, 63
4, 122880, Note_off_c, 11, 66, 63
4, 122880, Note_off_c, 11, 60, 63
4, 122880, Note_off_c, 11, 56, 63
4, 122880, Note_off_c, 11, 51, 63
4, 122880, Note_on_c, 11, 54, 95
4, 122882, Note_on_c, 11, 59, 95
4, 122884, Note_on_c, 11, 63, 95
4, 122886, Note_on_c, 11, 71, 95
4, 123120, Note_off_c, 11, 71, 95
4, 123120, Note_off_c, 11, 63, 95
4, 123120, Note_off_c, 11, 59, 95
4, 123120, Note_off_c, 11, 54, 95
4, 123120, Note_on_c, 11, 71, 63
4, 123122, Note_on_c, 11, 63, 63
4, 123124, Note_on_c, 11, 59, 63
4, 123126, Note_on_c, 11, 54, 63
4, 123360, Note_off_c, 11, 71, 63
4, 123360, Note_off_c, 11, 63, 63
4, 123360, Note_off_c, 11, 59, 63
4, 123360, Note_off_c, 11, 54, 63
4, 123360, Note_on_c, 11, 54, 63
4, 123362, Note_on_c, 11, 59, 63
4, 123364, Note_on_c, 11, 63, 63
4, 123366, Note_on_c, 11, 71, 63
4, 123600, Note_off_c, 11, 71, 63
4, 123600, Note_off_c, 11, 63, 63
4, 123600, Note_off_c, 11, 59, 63
4, 123600, Note_off_c, 11, 54, 63
4, 123600, Note_on_c, 11, 71, 63
4, 123602, Note_on_c, 11, 63, 63
4, 123604, Note_on_c, 11, 59, 63
4, 123606, Note_on_c, 11, 54, 63
4, 123840, Note_off_c, 11, 71, 63
4, 123840, Note_off_c, 11, 63, 63
4, 123840, Note_off_c, 11, 59, 63
4, 123840, Note_off_c, 11, 54, 63
4, 123840, Note_on_c, 11, 54, 63
4, 123842, Note_on_c, 11, 59, 63
4, 123844, Note_on_c, 11, 63, 63
4, 123846, Note_on_c, 11, 71, 63
4, 124080, Note_off_c, 11, 71, 63
4, 124080, Note_off_c, 11, 63, 63
4, 124080, Note_off_c, 11, 59, 63
4, 124080, Note_off_c, 11, 54, 63
4, 124080, Note_on_c, 11, 71, 63
4, 124082, Note_on_c, 11, 63, 63
4, 124084, Note_on_c, 11, 59, 63
4, 124086, Note_on_c, 11, 54, 63
4, 124320, Note_off_c, 11, 71, 63
4, 124320, Note_off_c, 11, 63, 63
4, 124320, Note_off_c, 11, 59, 63
4, 124320, Note_off_c, 11, 54, 63
4, 124320, Note_on_c, 11, 54, 63
4, 124322, Note_on_c, 11, 59, 63
4, 124324, Note_on_c, 11, 63, 63
4, 124326, Note_on_c, 11, 71, 63
4, 124560, Note_off_c, 11, 71, 63
4, 124560, Note_off_c, 11, 63, 63
4, 124560, Note_off_c, 11, 59, 63
4, 124560, Note_off_c, 11, 54, 63
4, 124560, Note_on_c, 11, 71, 63
4, 124562, Note_on_c, 11, 63, 63
4, 124564, Note_on_c, 11, 59, 63
4, 124566, Note_on_c, 11, 54, 63
4, 124800, Note_off_c, 11, 71, 63
4, 124800, Note_off_c, 11, 63, 63
4, 124800, Note_off_c, 11, 59, 63
4, 124800, Note_off_c, 11, 54, 63
4, 124800, Note_on_c, 11, 49, 95
4, 124830, Note_on_c, 11, 56, 95
4, 124860, Note_on_c, 11, 59, 95
4, 124890, Note_on_c, 11, 65, 95
4, 124920, Note_on_c, 11, 71, 95
4, 128640, Note_off_c, 11, 71, 95
4, 128640, Note_off_c, 11, 65, 95
4, 128640, Note_off_c, 11, 59, 95
4, 128640, Note_off_c, 11, 56, 95
4, 128640, Note_off_c, 11, 49, 95
4, 128640, Note_on_c, 11, 54, 95
4, 128642, Note_on_c, 11, 61, 95
4, 128644, Note_on_c, 11, 66, 95
4, 128646, Note_on_c, 11, 70, 95
4, 128880, Note_off_c, 11, 70, 95
4, 128880, Note_off_c, 11, 66, 95
4, 128880, Note_off_c, 11, 61, 95
4, 128880, Note_off_c, 11, 54, 95
4, 128880, Note_on_c, 11, 70, 63
4, 128882, Note_on_c, 11, 66, 63
4, 128884, Note_on_c, 11, 61, 63
4, 129120, Note_off_c, 11, 70, 63
4, 129120, Note_off_c, 11, 66, 63
4, 129120, Note_off_c, 11, 61, 63
4, 129120, Note_on_c, 11, 61, 63
4, 129122, Note_on_c, 11, 66, 63
4, 129124, Note_on_c, 11, 70, 63
4, 129360, Note_off_c, 11, 70, 63
4, 129360, Note_off_c, 11, 66, 63
4, 129360, Note_off_c, 11, 61, 63
4, 129360, Note_on_c, 11, 70, 63
4, 129362, Note_on_c, 11, 66, 63
4, 129364, Note_on_c, 11, 61, 63
4, 129600, Note_off_c, 11, 70, 63
4, 129600, Note_off_c, 11, 66, 63
4, 129600, Note_off_c, 11, 61, 63
4, 129600, Note_on_c, 11, 61, 63
4, 129602, Note_on_c, 11, 66, 63
4, 129604, Note_on_c, 11, 70, 63
4, 129840, Note_off_c, 11, 70, 63
4, 129840, Note_off_c, 11, 66, 63
4, 129840, Note_off_c, 11, 61, 63
4, 129840, Note_on_c, 11, 70, 63
4, 129842, Note_on_c, 11, 66, 63
4, 129844, Note_on_c, 11, 61, 63
4, 130080, Note_off_c, 11, 70, 63
4, 130080, Note_off_c, 11, 66, 63
4, 130080, Note_off_c, 11, 61, 63
4, 130080, Note_on_c, 11, 61, 63
4, 130082, Note_on_c, 11, 66, 63
4, 130084, Note_on_c, 11, 70, 63
4, 130320, Note_off_c, 11, 70, 63
4, 130320, Note_off_c, 11, 66, 63
4, 130320, Note_off_c, 11, 61, 63
4, 130320, Note_on_c, 11, 70, 95
4, 130322, Note_on_c, 11, 64, 95
4, 130324, Note_on_c, 11, 61, 95
4, 130560, Note_off_c, 11, 70, 95
4, 130560, Note_off_c, 11, 64, 95
4, 130560, Note_off_c, 11, 61, 95
4, 130800, Note_on_c, 11, 70, 95
4, 130802, Note_on_c, 11, 64, 95
4, 130804, Note_on_c, 11, 61, 95
4, 131040, Note_off_c, 11, 70, 95
4, 131040, Note_off_c, 11, 64, 95
4, 131040, Note_off_c, 11, 61, 95
4, 131280, Note_on_c, 11, 70, 95
4, 131282, Note_on_c, 11, 64, 95
4, 131284, Note_on_c, 11, 61, 95
4, 131520, Note_off_c, 11, 70, 95
4, 131520, Note_off_c, 11, 64, 95
4, 131520, Note_off_c, 11, 61, 95
4, 131520, Note_on_c, 11, 61, 95
4, 131522, Note_on_c, 11, 64, 95
4, 131524, Note_on_c, 11, 70, 95
4, 131760, Note_off_c, 11, 70, 95
4, 131760, Note_off_c, 11, 64, 95
4, 131760, Note_off_c, 11, 61, 95
4, 131760, Note_on_c, 11, 70, 63
4, 131762, Note_on_c, 11, 64, 63
4, 131764, Note_on_c, 11, 61, 63
4, 132000, Note_off_c, 11, 70, 63
4, 132000, Note_off_c, 11, 64, 63
4, 132000, Note_off_c, 11, 61, 63
4, 132000, Note_on_c, 11, 61, 63
4, 132002, Note_on_c, 11, 64, 63
4, 132004, Note_on_c, 11, 70, 63
4, 132240, Note_off_c, 11, 70, 63
4, 132240, Note_off_c, 11, 64, 63
4, 132240, Note_off_c, 11, 61, 63
4, 132240, Note_on_c, 11, 70, 63
4, 132242, Note_on_c, 11, 64, 63
4, 132244, Note_on_c, 11, 61, 63
4, 132480, Note_off_c, 11, 70, 63
4, 132480, Note_off_c, 11, 64, 63
4, 132480, Note_off_c, 11, 61, 63
4, 132480, Note_on_c, 11, 54, 95
4, 132482, Note_on_c, 11, 61, 95
4, 132484, Note_on_c, 11, 63, 95
4, 132486, Note_on_c, 11, 70, 95
4, 132720, Note_off_c, 11, 70, 95
4, 132720, Note_off_c, 11, 63, 95
4, 132720, Note_off_c, 11, 61, 95
4, 132720, Note_off_c, 11, 54, 95
4, 132720, Note_on_c, 11, 70, 63
4, 132722, Note_on_c, 11, 63, 63
4, 132724, Note_on_c, 11, 61, 63
4, 132960, Note_off_c, 11, 70, 63
4, 132960, Note_off_c, 11, 63, 63
4, 132960, Note_off_c, 11, 61, 63
4, 132960, Note_on_c, 11, 61, 63
4, 132962, Note_on_c, 11, 63, 63
4, 132964, Note_on_c, 11, 70, 63
4, 133200, Note_off_c, 11, 70, 63
4, 133200, Note_off_c, 11, 63, 63
4, 133200, Note_off_c, 11, 61, 63
4, 133200, Note_on_c, 11, 70, 63
4, 133202, Note_on_c, 11, 63, 63
4, 133204, Note_on_c, 11, 61, 63
4, 133440, Note_off_c, 11, 70, 63
4, 133440, Note_off_c, 11, 63, 63
4, 133440, Note_off_c, 11, 61, 63
4, 133440, Note_on_c, 11, 61, 63
4, 133442, Note_on_c, 11, 63, 63
4, 133444, Note_on_c, 11, 70, 63
4, 133680, Note_off_c, 11, 70, 63
4, 133680, Note_off_c, 11, 63, 63
4, 133680, Note_off_c, 11, 61, 63
4, 133680, Note_on_c, 11, 70, 63
4, 133682, Note_on_c, 11, 63, 63
4, 133684, Note_on_c, 11, 61, 63
4, 133920, Note_off_c, 11, 70, 63
4, 133920, Note_off_c, 11, 63, 63
4, 133920, Note_off_c, 11, 61, 63
4, 133920, Note_on_c, 11, 61, 63
4, 133922, Note_on_c, 11, 63, 63
4, 133924, Note_on_c, 11, 70, 63
4, 134160, Note_off_c, 11, 70, 63
4, 134160, Note_off_c, 11, 63, 63
4, 134160, Note_off_c, 11, 61, 63
4, 134160, Note_on_c, 11, 71, 95
4, 134162, Note_on_c, 11, 68, 95
4, 134164, Note_on_c, 11, 62, 95
4, 134166, Note_on_c, 11, 54, 95
4, 134400, Note_off_c, 11, 71, 95
4, 134400, Note_off_c, 11, 68, 95
4, 134400, Note_off_c, 11, 62, 95
4, 134400, Note_off_c, 11, 54, 95
4, 134640, Note_on_c, 11, 71, 95
4, 134642, Note_on_c, 11, 68, 95
4, 134644, Note_on_c, 11, 62, 95
4, 134880, Note_off_c, 11, 71, 95
4, 134880, Note_off_c, 11, 68, 95
4, 134880, Note_off_c, 11, 62, 95
4, 135120, Note_on_c, 11, 71, 95
4, 135122, Note_on_c, 11, 68, 95
4, 135124, Note_on_c, 11, 62, 95
4, 135360, Note_off_c, 11, 71, 95
4, 135360, Note_off_c, 11, 68, 95
4, 135360, Note_off_c, 11, 62, 95
4, 135360, Note_on_c, 11, 62, 95
4, 135362, Note_on_c, 11, 68, 95
4, 135364, Note_on_c, 11, 71, 95
4, 135600, Note_off_c, 11, 71, 95
4, 135600, Note_off_c, 11, 68, 95
4, 135600, Note_off_c, 11, 62, 95
4, 135600, Note_on_c, 11, 71, 63
4, 135602, Note_on_c, 11, 68, 63
4, 135604, Note_on_c, 11, 62, 63
4, 135840, Note_off_c, 11, 71, 63
4, 135840, Note_off_c, 11, 68, 63
4, 135840, Note_off_c, 11, 62, 63
4, 135840, Note_on_c, 11, 62, 63
4, 135842, Note_on_c, 11, 68, 63
4, 135844, Note_on_c, 11, 71, 63
4, 136080, Note_off_c, 11, 71, 63
4, 136080, Note_off_c, 11, 68, 63
4, 136080, Note_off_c, 11, 62, 63
4, 136080, Note_on_c, 11, 71, 63
4, 136082, Note_on_c, 11, 68, 63
4, 136084, Note_on_c, 11, 62, 63
4, 136320, Note_off_c, 11, 71, 63
4, 136320, Note_off_c, 11, 68, 63
4, 136320, Note_off_c, 11, 62, 63
4, 136320, Note_on_c, 11, 54, 95
4, 136322, Note_on_c, 11, 61, 95
4, 136324, Note_on_c, 11, 66, 95
4, 136326, Note_on_c, 11, 70, 95
4, 136560, Note_off_c, 11, 70, 95
4, 136560, Note_off_c, 11, 66, 95
4, 136560, Note_off_c, 11, 61, 95
4, 136560, Note_off_c, 11, 54, 95
4, 136560, Note_on_c, 11, 70, 63
4, 136562, Note_on_c, 11, 66, 63
4, 136564, Note_on_c, 11, 61, 63
4, 136800, Note_off_c, 11, 70, 63
4, 136800, Note_off_c, 11, 66, 63
4, 136800, Note_off_c, 11, 61, 63
4, 136800, Note_on_c, 11, 61, 63
4, 136802, Note_on_c, 11, 66, 63
4, 136804, Note_on_c, 11, 70, 63
4, 137040, Note_off_c, 11, 70, 63
4, 137040, Note_off_c, 11, 66, 63
4, 137040, Note_off_c, 11, 61, 63
4, 137040, Note_on_c, 11, 70, 63
4, 137042, Note_on_c, 11, 66, 63
4, 137044, Note_on_c, 11, 61, 63
4, 137280, Note_off_c, 11, 70, 63
4, 137280, Note_off_c, 11, 66, 63
4, 137280, Note_off_c, 11, 61, 63
4, 137280, Note_on_c, 11, 61, 63
4, 137282, Note_on_c, 11, 66, 63
4, 137284, Note_on_c, 11, 70, 63
4, 137520, Note_off_c, 11, 70, 63
4, 137520, Note_off_c, 11, 66, 63
4, 137520, Note_off_c, 11, 61, 63
4, 137520, Note_on_c, 11, 70, 63
4, 137522, Note_on_c, 11, 66, 63
4, 137524, Note_on_c, 11, 61, 63
4, 137760, Note_off_c, 11, 70, 63
4, 137760, Note_off_c, 11, 66, 63
4, 137760, Note_off_c, 11, 61, 63
4, 137760, Note_on_c, 11, 61, 63
4, 137762, Note_on_c, 11, 66, 63
4, 137764, Note_on_c, 11, 70, 63
4, 138000, Note_off_c, 11, 70, 63
4, 138000, Note_off_c, 11, 66, 63
4, 138000, Note_off_c, 11, 61, 63
4, 138000, Note_on_c, 11, 68, 95
4, 138002, Note_on_c, 11, 65, 95
4, 138004, Note_on_c, 11, 61, 95
4, 138006, Note_on_c, 11, 56, 95
4, 138008, Note_on_c, 11, 49, 95
4, 138240, Note_off_c, 11, 68, 95
4, 138240, Note_off_c, 11, 65, 95
4, 138240, Note_off_c, 11, 61, 95
4, 138240, Note_off_c, 11, 56, 95
4, 138240, Note_off_c, 11, 49, 95
4, 138480, Note_on_c, 11, 68, 95
4, 138482, Note_on_c, 11, 65, 95
4, 138484, Note_on_c, 11, 61, 95
4, 138486, Note_on_c, 11, 56, 95
4, 138720, Note_off_c, 11, 68, 95
4, 138720, Note_off_c, 11, 65, 95
4, 138720, Note_off_c, 11, 61, 95
4, 138720, Note_off_c, 11, 56, 95
4, 138960, Note_on_c, 11, 68, 95
4, 138962, Note_on_c, 11, 65, 95
4, 138964, Note_on_c, 11, 61, 95
4, 138966, Note_on_c, 11, 56, 95
4, 139200, Note_off_c, 11, 68, 95
4, 139200, Note_off_c, 11, 65, 95
4, 139200, Note_off_c, 11, 61, 95
4, 139200, Note_off_c, 11, 56, 95
4, 139200, Note_on_c, 11, 56, 95
4, 139202, Note_on_c, 11, 61, 95
4, 139204, Note_on_c, 11, 65, 95
4, 139206, Note_on_c, 11, 68, 95
4, 139440, Note_off_c, 11, 68, 95
4, 139440, Note_off_c, 11, 65, 95
4, 139440, Note_off_c, 11, 61, 95
4, 139440, Note_off_c, 11, 56, 95
4, 139440, Note_on_c, 11, 68, 63
4, 139442, Note_on_c, 11, 65, 63
4, 139444, Note_on_c, 11, 61, 63
4, 139446, Note_on_c, 11, 56, 63
4, 139680, Note_off_c, 11, 68, 63
4, 139680, Note_off_c, 11, 65, 63
4, 139680, Note_off_c, 11, 61, 63
4, 139680, Note_off_c, 11, 56, 63
4, 139680, Note_on_c, 11, 56, 63
4, 139682, Note_on_c, 11, 61, 63
4, 139684, Note_on_c, 11, 65, 63
4, 139686, Note_on_c, 11, 68, 63
4, 139920, Note_off_c, 11, 68, 63
4, 139920, Note_off_c, 11, 65, 63
4, 139920, Note_off_c, 11, 61, 63
4, 139920, Note_off_c, 11, 56, 63
4, 139920, Note_on_c, 11, 68, 63
4, 139922, Note_on_c, 11, 65, 63
4, 139924, Note_on_c, 11, 61, 63
4, 139926, Note_on_c, 11, 56, 63
4, 140160, Note_off_c, 11, 68, 63
4, 140160, Note_off_c, 11, 65, 63
4, 140160, Note_off_c, 11, 61, 63
4, 140160, Note_off_c, 11, 56, 63
4, 140160, Note_on_c, 11, 54, 95
4, 140162, Note_on_c, 11, 59, 95
4, 140164, Note_on_c, 11, 66, 95
4, 140166, Note_on_c, 11, 71, 95
4, 140400, Note_off_c, 11, 71, 95
4, 140400, Note_off_c, 11, 66, 95
4, 140400, Note_off_c, 11, 59, 95
4, 140400, Note_off_c, 11, 54, 95
4, 140400, Note_on_c, 11, 71, 63
4, 140402, Note_on_c, 11, 66, 63
4, 140404, Note_on_c, 11, 59, 63
4, 140406, Note_on_c, 11, 54, 63
4, 140640, Note_off_c, 11, 71, 63
4, 140640, Note_off_c, 11, 66, 63
4, 140640, Note_off_c, 11, 59, 63
4, 140640, Note_off_c, 11, 54, 63
4, 140640, Note_on_c, 11, 54, 63
4, 140642, Note_on_c, 11, 59, 63
4, 140644, Note_on_c, 11, 66, 63
4, 140646, Note_on_c, 11, 71, 63
4, 140880, Note_off_c, 11, 71, 63
4, 140880, Note_off_c, 11, 66, 63
4, 140880, Note_off_c, 11, 59, 63
4, 140880, Note_off_c, 11, 54, 63
4, 140880, Note_on_c, 11, 71, 63
4, 140882, Note_on_c, 11, 66, 63
4, 140884, Note_on_c, 11, 59, 63
4, 140886, Note_on_c, 11, 54, 63
4, 141120, Note_off_c, 11, 71, 63
4, 141120, Note_off_c, 11, 66, 63
4, 141120, Note_off_c, 11, 59, 63
4, 141120, Note_off_c, 11, 54, 63
4, 141120, Note_on_c, 11, 54, 63
4, 141122, Note_on_c, 11, 59, 63
4, 141124, Note_on_c, 11, 66, 63
4, 141126, Note_on_c, 11, 71, 63
4, 141360, Note_off_c, 11, 71, 63
4, 141360, Note_off_c, 11, 66, 63
4, 141360, Note_off_c, 11, 59, 63
4, 141360, Note_off_c, 11, 54, 63
4, 141360, Note_on_c, 11, 71, 63
4, 141362, Note_on_c, 11, 66, 63
4, 141364, Note_on_c, 11, 59, 63
4, 141366, Note_on_c, 11, 54, 63
4, 141600, Note_off_c, 11, 71, 63
4, 141600, Note_off_c, 11, 66, 63
4, 141600, Note_off_c, 11, 59, 63
4, 141600, Note_off_c, 11, 54, 63
4, 141600, Note_on_c, 11, 54, 63
4, 141602, Note_on_c, 11, 59, 63
4, 141604, Note_on_c, 11, 66, 63
4, 141606, Note_on_c, 11, 71, 63
4, 141840, Note_off_c, 11, 71, 63
4, 141840, Note_off_c, 11, 66, 63
4, 141840, Note_off_c, 11, 59, 63
4, 141840, Note_off_c, 11, 54, 63
4, 141840, Note_on_c, 11, 71, 63
4, 141842, Note_on_c, 11, 66, 63
4, 141844, Note_on_c, 11, 59, 63
4, 141846, Note_on_c, 11, 54, 63
4, 142080, Note_off_c, 11, 71, 63
4, 142080, Note_off_c, 11, 66, 63
4, 142080, Note_off_c, 11, 59, 63
4, 142080, Note_off_c, 11, 54, 63
4, 142320, Note_on_c, 11, 70, 95
4, 142322, Note_on_c, 11, 66, 95
4, 142324, Note_on_c, 11, 61, 95
4, 142560, Note_off_c, 11, 70, 95
4, 142560, Note_off_c, 11, 66, 95
4, 142560, Note_off_c, 11, 61, 95
4, 142800, Note_on_c, 11, 70, 63
4, 142802, Note_on_c, 11, 66, 63
4, 142804, Note_on_c, 11, 61, 63
4, 143040, Note_off_c, 11, 70, 63
4, 143040, Note_off_c, 11, 66, 63
4, 143040, Note_off_c, 11, 61, 63
4, 143040, Note_on_c, 11, 61, 63
4, 143042, Note_on_c, 11, 66, 63
4, 143044, Note_on_c, 11, 70, 63
4, 143280, Note_off_c, 11, 70, 63
4, 143280, Note_off_c, 11, 66, 63
4, 143280, Note_off_c, 11, 61, 63
4, 143280, Note_on_c, 11, 70, 63
4, 143282, Note_on_c, 11, 66, 63
4, 143284, Note_on_c, 11, 61, 63
4, 143520, Note_off_c, 11, 70, 63
4, 143520, Note_off_c, 11, 66, 63
4, 143520, Note_off_c, 11, 61, 63
4, 143520, Note_on_c, 11, 61, 63
4, 143522, Note_on_c, 11, 66, 63
4, 143524, Note_on_c, 11, 70, 63
4, 143760, Note_off_c, 11, 70, 63
4, 143760, Note_off_c, 11, 66, 63
4, 143760, Note_off_c, 11, 61, 63
4, 143760, Note_on_c, 11, 70, 63
4, 143762, Note_on_c, 11, 66, 63
4, 143764, Note_on_c, 11, 61, 63
4, 144000, Note_off_c, 11, 70, 63
4, 144000, Note_off_c, 11, 66, 63
4, 144000, Note_off_c, 11, 61, 63
4, 144000, Note_on_c, 11, 70, 95
4, 144000, Note_on_c, 11, 66, 95
4, 144000, Note_on_c, 11, 61, 95
4, 144000, Note_on_c, 11, 54, 95
4, 144240, Note_off_c, 11, 70, 95
4, 144240, Note_off_c, 11, 66, 95
4, 144240, Note_off_c, 11, 61, 95
4, 144240, Note_off_c, 11, 54, 95
4, 144240, Note_on_c, 11, 70, 63
4, 144242, Note_on_c, 11, 66, 63
4, 144244, Note_on_c, 11, 61, 63
4, 144480, Note_off_c, 11, 70, 63
4, 144480, Note_off_c, 11, 66, 63
4, 144480, Note_off_c, 11, 61, 63
4, 144480, Note_on_c, 11, 70, 63
4, 144480, Note_on_c, 11, 66, 63
4, 144480, Note_on_c, 11, 61, 63
4, 144720, Note_off_c, 11, 70, 63
4, 144720, Note_off_c, 11, 66, 63
4, 144720, Note_off_c, 11, 61, 63
4, 144720, Note_on_c, 11, 70, 63
4, 144722, Note_on_c, 11, 66, 63
4, 144724, Note_on_c, 11, 61, 63
4, 144960, Note_off_c, 11, 70, 63
4, 144960, Note_off_c, 11, 66, 63
4, 144960, Note_off_c, 11, 61, 63
4, 144960, Note_on_c, 11, 61, 63
4, 144962, Note_on_c, 11, 66, 63
4, 144964, Note_on_c, 11, 70, 63
4, 145200, Note_off_c, 11, 70, 63
4, 145200, Note_off_c, 11, 66, 63
4, 145200, Note_off_c, 11, 61, 63
4, 145200, Note_on_c, 11, 70, 63
4, 145202, Note_on_c, 11, 66, 63
4, 145204, Note_on_c, 11, 61, 63
4, 145440, Note_off_c, 11, 70, 63
4, 145440, Note_off_c, 11, 66, 63
4, 145440, Note_off_c, 11, 61, 63
4, 145440, Note_on_c, 11, 61, 63
4, 145442, Note_on_c, 11, 66, 63
4, 145444, Note_on_c, 11, 70, 63
4, 145680, Note_off_c, 11, 70, 63
4, 145680, Note_off_c, 11, 66, 63
4, 145680, Note_off_c, 11, 61, 63
4, 145680, Note_on_c, 11, 70, 63
4, 145682, Note_on_c, 11, 66, 63
4, 145684, Note_on_c, 11, 61, 63
4, 145920, Note_off_c, 11, 70, 63
4, 145920, Note_off_c, 11, 66, 63
4, 145920, Note_off_c, 11, 61, 63
4, 145920, Note_on_c, 11, 54, 95
4, 145922, Note_on_c, 11, 61, 95
4, 145924, Note_on_c, 11, 66, 95
4, 145926, Note_on_c, 11, 70, 95
4, 146160, Note_off_c, 11, 70, 95
4, 146160, Note_off_c, 11, 66, 95
4, 146160, Note_off_c, 11, 61, 95
4, 146160, Note_off_c, 11, 54, 95
4, 146160, Note_on_c, 11, 70, 63
4, 146162, Note_on_c, 11, 66, 63
4, 146164, Note_on_c, 11, 61, 63
4, 146400, Note_off_c, 11, 70, 63
4, 146400, Note_off_c, 11, 66, 63
4, 146400, Note_off_c, 11, 61, 63
4, 146400, Note_on_c, 11, 61, 63
4, 146402, Note_on_c, 11, 66, 63
4, 146404, Note_on_c, 11, 70, 63
4, 146640, Note_off_c, 11, 70, 63
4, 146640, Note_off_c, 11, 66, 63
4, 146640, Note_off_c, 11, 61, 63
4, 146640, Note_on_c, 11, 70, 63
4, 146642, Note_on_c, 11, 66, 63
4, 146644, Note_on_c, 11, 61, 63
4, 146880, Note_off_c, 11, 70, 63
4, 146880, Note_off_c, 11, 66, 63
4, 146880, Note_off_c, 11, 61, 63
4, 146880, Note_on_c, 11, 61, 63
4, 146882, Note_on_c, 11, 66, 63
4, 146884, Note_on_c, 11, 70, 63
4, 147120, Note_off_c, 11, 70, 63
4, 147120, Note_off_c, 11, 66, 63
4, 147120, Note_off_c, 11, 61, 63
4, 147120, Note_on_c, 11, 70, 63
4, 147122, Note_on_c, 11, 66, 63
4, 147124, Note_on_c, 11, 61, 63
4, 147360, Note_off_c, 11, 70, 63
4, 147360, Note_off_c, 11, 66, 63
4, 147360, Note_off_c, 11, 61, 63
4, 147360, Note_on_c, 11, 61, 63
4, 147362, Note_on_c, 11, 66, 63
4, 147364, Note_on_c, 11, 70, 63
4, 147600, Note_off_c, 11, 70, 63
4, 147600, Note_off_c, 11, 66, 63
4, 147600, Note_off_c, 11, 61, 63
4, 147600, Note_on_c, 11, 70, 95
4, 147602, Note_on_c, 11, 64, 95
4, 147604, Note_on_c, 11, 61, 95
4, 147840, Note_off_c, 11, 70, 95
4, 147840, Note_off_c, 11, 64, 95
4, 147840, Note_off_c, 11, 61, 95
4, 148080, Note_on_c, 11, 70, 95
4, 148082, Note_on_c, 11, 64, 95
4, 148084, Note_on_c, 11, 61, 95
4, 148320, Note_off_c, 11, 70, 95
4, 148320, Note_off_c, 11, 64, 95
4, 148320, Note_off_c, 11, 61, 95
4, 148560, Note_on_c, 11, 70, 95
4, 148562, Note_on_c, 11, 64, 95
4, 148564, Note_on_c, 11, 61, 95
4, 148800, Note_off_c, 11, 70, 95
4, 148800, Note_off_c, 11, 64, 95
4, 148800, Note_off_c, 11, 61, 95
4, 148800, Note_on_c, 11, 61, 95
4, 148802, Note_on_c, 11, 64, 95
4, 148804, Note_on_c, 11, 70, 95
4, 149040, Note_off_c, 11, 70, 95
4, 149040, Note_off_c, 11, 64, 95
4, 149040, Note_off_c, 11, 61, 95
4, 149040, Note_on_c, 11, 70, 63
4, 149042, Note_on_c, 11, 64, 63
4, 149044, Note_on_c, 11, 61, 63
4, 149280, Note_off_c, 11, 70, 63
4, 149280, Note_off_c, 11, 64, 63
4, 149280, Note_off_c, 11, 61, 63
4, 149280, Note_on_c, 11, 61, 63
4, 149282, Note_on_c, 11, 64, 63
4, 149284, Note_on_c, 11, 70, 63
4, 149520, Note_off_c, 11, 70, 63
4, 149520, Note_off_c, 11, 64, 63
4, 149520, Note_off_c, 11, 61, 63
4, 149520, Note_on_c, 11, 70, 63
4, 149522, Note_on_c, 11, 64, 63
4, 149524, Note_on_c, 11, 61, 63
4, 149760, Note_off_c, 11, 70, 63
4, 149760, Note_off_c, 11, 64, 63
4, 149760, Note_off_c, 11, 61, 63
4, 149760, Note_on_c, 11, 54, 95
4, 149762, Note_on_c, 11, 61, 95
4, 149764, Note_on_c, 11, 63, 95
4, 149766, Note_on_c, 11, 70, 95
4, 150000, Note_off_c, 11, 70, 95
4, 150000, Note_off_c, 11, 63, 95
4, 150000, Note_off_c, 11, 61, 95
4, 150000, Note_off_c, 11, 54, 95
4, 150000, Note_on_c, 11, 70, 63
4, 150002, Note_on_c, 11, 63, 63
4, 150004, Note_on_c, 11, 61, 63
4, 150240, Note_off_c, 11, 70, 63
4, 150240, Note_off_c, 11, 63, 63
4, 150240, Note_off_c, 11, 61, 63
4, 150240, Note_on_c, 11, 61, 63
4, 150242, Note_on_c, 11, 63, 63
4, 150244, Note_on_c, 11, 70, 63
4, 150480, Note_off_c, 11, 70, 63
4, 150480, Note_off_c, 11, 63, 63
4, 150480, Note_off_c, 11, 61, 63
4, 150480, Note_on_c, 11, 70, 63
4, 150482, Note_on_c, 11, 63, 63
4, 150484, Note_on_c, 11, 61, 63
4, 150720, Note_off_c, 11, 70, 63
4, 150720, Note_off_c, 11, 63, 63
4, 150720, Note_off_c, 11, 61, 63
4, 150720, Note_on_c, 11, 61, 63
4, 150722, Note_on_c, 11, 63, 63
4, 150724, Note_on_c, 11, 70, 63
4, 150960, Note_off_c, 11, 70, 63
4, 150960, Note_off_c, 11, 63, 63
4, 150960, Note_off_c, 11, 61, 63
4, 150960, Note_on_c, 11, 70, 63
4, 150962, Note_on_c, 11, 63, 63
4, 150964, Note_on_c, 11, 61, 63
4, 151200, Note_off_c, 11, 70, 63
4, 151200, Note_off_c, 11, 63, 63
4, 151200, Note_off_c, 11, 61, 63
4, 151200, Note_on_c, 11, 61, 63
4, 151202, Note_on_c, 11, 63, 63
4, 151204, Note_on_c, 11, 70, 63
4, 151440, Note_off_c, 11, 70, 63
4, 151440, Note_off_c, 11, 63, 63
4, 151440, Note_off_c, 11, 61, 63
4, 151440, Note_on_c, 11, 71, 95
4, 151442, Note_on_c, 11, 68, 95
4, 151444, Note_on_c, 11, 62, 95
4, 151446, Note_on_c, 11, 54, 95
4, 151680, Note_off_c, 11, 71, 95
4, 151680, Note_off_c, 11, 68, 95
4, 151680, Note_off_c, 11, 62, 95
4, 151680, Note_off_c, 11, 54, 95
4, 151920, Note_on_c, 11, 71, 95
4, 151922, Note_on_c, 11, 68, 95
4, 151924, Note_on_c, 11, 62, 95
4, 152160, Note_off_c, 11, 71, 95
4, 152160, Note_off_c, 11, 68, 95
4, 152160, Note_off_c, 11, 62, 95
4, 152400, Note_on_c, 11, 71, 95
4, 152402, Note_on_c, 11, 68, 95
4, 152404, Note_on_c, 11, 62, 95
4, 152640, Note_off_c, 11, 71, 95
4, 152640, Note_off_c, 11, 68, 95
4, 152640, Note_off_c, 11, 62, 95
4, 152640, Note_on_c, 11, 62, 95
4, 152642, Note_on_c, 11, 68, 95
4, 152644, Note_on_c, 11, 71, 95
4, 152880, Note_off_c, 11, 71, 95
4, 152880, Note_off_c, 11, 68, 95
4, 152880, Note_off_c, 11, 62, 95
4, 152880, Note_on_c, 11, 71, 63
4, 152882, Note_on_c, 11, 68, 63
4, 152884, Note_on_c, 11, 62, 63
4, 153120, Note_off_c, 11, 71, 63
4, 153120, Note_off_c, 11, 68, 63
4, 153120, Note_off_c, 11, 62, 63
4, 153120, Note_on_c, 11, 62, 63
4, 153122, Note_on_c, 11, 68, 63
4, 153124, Note_on_c, 11, 71, 63
4, 153360, Note_off_c, 11, 71, 63
4, 153360, Note_off_c, 11, 68, 63
4, 153360, Note_off_c, 11, 62, 63
4, 153360, Note_on_c, 11, 71, 63
4, 153362, Note_on_c, 11, 68, 63
4, 153364, Note_on_c, 11, 62, 63
4, 153600, Note_off_c, 11, 71, 63
4, 153600, Note_off_c, 11, 68, 63
4, 153600, Note_off_c, 11, 62, 63
4, 153600, Note_on_c, 11, 54, 95
4, 153602, Note_on_c, 11, 61, 95
4, 153604, Note_on_c, 11, 66, 95
4, 153606, Note_on_c, 11, 70, 95
4, 153840, Note_off_c, 11, 70, 95
4, 153840, Note_off_c, 11, 66, 95
4, 153840, Note_off_c, 11, 61, 95
4, 153840, Note_off_c, 11, 54, 95
4, 153840, Note_on_c, 11, 70, 63
4, 153842, Note_on_c, 11, 66, 63
4, 153844, Note_on_c, 11, 61, 63
4, 154080, Note_off_c, 11, 70, 63
4, 154080, Note_off_c, 11, 66, 63
4, 154080, Note_off_c, 11, 61, 63
4, 154080, Note_on_c, 11, 61, 63
4, 154082, Note_on_c, 11, 66, 63
4, 154084, Note_on_c, 11, 70, 63
4, 154320, Note_off_c, 11, 70, 63
4, 154320, Note_off_c, 11, 66, 63
4, 154320, Note_off_c, 11, 61, 63
4, 154320, Note_on_c, 11, 70, 63
4, 154322, Note_on_c, 11, 66, 63
4, 154324, Note_on_c, 11, 61, 63
4, 154560, Note_off_c, 11, 70, 63
4, 154560, Note_off_c, 11, 66, 63
4, 154560, Note_off_c, 11, 61, 63
4, 154560, Note_on_c, 11, 61, 63
4, 154562, Note_on_c, 11, 66, 63
4, 154564, Note_on_c, 11, 70, 63
4, 154800, Note_off_c, 11, 70, 63
4, 154800, Note_off_c, 11, 66, 63
4, 154800, Note_off_c, 11, 61, 63
4, 154800, Note_on_c, 11, 70, 63
4, 154802, Note_on_c, 11, 66, 63
4, 154804, Note_on_c, 11, 61, 63
4, 155040, Note_off_c, 11, 70, 63
4, 155040, Note_off_c, 11, 66, 63
4, 155040, Note_off_c, 11, 61, 63
4, 155040, Note_on_c, 11, 61, 63
4, 155042, Note_on_c, 11, 66, 63
4, 155044, Note_on_c, 11, 70, 63
4, 155280, Note_off_c, 11, 70, 63
4, 155280, Note_off_c, 11, 66, 63
4, 155280, Note_off_c, 11, 61, 63
4, 155280, Note_on_c, 11, 68, 95
4, 155282, Note_on_c, 11, 65, 95
4, 155284, Note_on_c, 11, 61, 95
4, 155286, Note_on_c, 11, 56, 95
4, 155288, Note_on_c, 11, 49, 95
4, 155520, Note_off_c, 11, 68, 95
4, 155520, Note_off_c, 11, 65, 95
4, 155520, Note_off_c, 11, 61, 95
4, 155520, Note_off_c, 11, 56, 95
4, 155520, Note_off_c, 11, 49, 95
4, 155760, Note_on_c, 11, 68, 95
4, 155762, Note_on_c, 11, 65, 95
4, 155764, Note_on_c, 11, 61, 95
4, 155766, Note_on_c, 11, 56, 95
4, 156000, Note_off_c, 11, 68, 95
4, 156000, Note_off_c, 11, 65, 95
4, 156000, Note_off_c, 11, 61, 95
4, 156000, Note_off_c, 11, 56, 95
4, 156240, Note_on_c, 11, 68, 95
4, 156242, Note_on_c, 11, 65, 95
4, 156244, Note_on_c, 11, 61, 95
4, 156246, Note_on_c, 11, 56, 95
4, 156480, Note_off_c, 11, 68, 95
4, 156480, Note_off_c, 11, 65, 95
4, 156480, Note_off_c, 11, 61, 95
4, 156480, Note_off_c, 11, 56, 95
4, 156480, Note_on_c, 11, 56, 95
4, 156482, Note_on_c, 11, 61, 95
4, 156484, Note_on_c, 11, 65, 95
4, 156486, Note_on_c, 11, 68, 95
4, 156720, Note_off_c, 11, 68, 95
4, 156720, Note_off_c, 11, 65, 95
4, 156720, Note_off_c, 11, 61, 95
4, 156720, Note_off_c, 11, 56, 95
4, 156720, Note_on_c, 11, 68, 63
4, 156722, Note_on_c, 11, 65, 63
4, 156724, Note_on_c, 11, 61, 63
4, 156726, Note_on_c, 11, 56, 63
4, 156960, Note_off_c, 11, 68, 63
4, 156960, Note_off_c, 11, 65, 63
4, 156960, Note_off_c, 11, 61, 63
4, 156960, Note_off_c, 11, 56, 63
4, 156960, Note_on_c, 11, 56, 63
4, 156962, Note_on_c, 11, 61, 63
4, 156964, Note_on_c, 11, 65, 63
4, 156966, Note_on_c, 11, 68, 63
4, 157200, Note_off_c, 11, 68, 63
4, 157200, Note_off_c, 11, 65, 63
4, 157200, Note_off_c, 11, 61, 63
4, 157200, Note_off_c, 11, 56, 63
4, 157200, Note_on_c, 11, 68, 63
4, 157202, Note_on_c, 11, 65, 63
4, 157204, Note_on_c, 11, 61, 63
4, 157206, Note_on_c, 11, 56, 63
4, 157440, Note_off_c, 11, 68, 63
4, 157440, Note_off_c, 11, 65, 63
4, 157440, Note_off_c, 11, 61, 63
4, 157440, Note_off_c, 11, 56, 63
4, 157440, Note_on_c, 11, 54, 95
4, 157442, Note_on_c, 11, 59, 95
4, 157444, Note_on_c, 11, 66, 95
4, 157446, Note_on_c, 11, 71, 95
4, 157680, Note_off_c, 11, 71, 95
4, 157680, Note_off_c, 11, 66, 95
4, 157680, Note_off_c, 11, 59, 95
4, 157680, Note_off_c, 11, 54, 95
4, 157680, Note_on_c, 11, 71, 63
4, 157682, Note_on_c, 11, 66, 63
4, 157684, Note_on_c, 11, 59, 63
4, 157686, Note_on_c, 11, 54, 63
4, 157920, Note_off_c, 11, 71, 63
4, 157920, Note_off_c, 11, 66, 63
4, 157920, Note_off_c, 11, 59, 63
4, 157920, Note_off_c, 11, 54, 63
4, 157920, Note_on_c, 11, 54, 63
4, 157922, Note_on_c, 11, 59, 63
4, 157924, Note_on_c, 11, 66, 63
4, 157926, Note_on_c, 11, 71, 63
4, 158160, Note_off_c, 11, 71, 63
4, 158160, Note_off_c, 11, 66, 63
4, 158160, Note_off_c, 11, 59, 63
4, 158160, Note_off_c, 11, 54, 63
4, 158160, Note_on_c, 11, 71, 63
4, 158162, Note_on_c, 11, 66, 63
4, 158164, Note_on_c, 11, 59, 63
4, 158166, Note_on_c, 11, 54, 63
4, 158400, Note_off_c, 11, 71, 63
4, 158400, Note_off_c, 11, 66, 63
4, 158400, Note_off_c, 11, 59, 63
4, 158400, Note_off_c, 11, 54, 63
4, 158400, Note_on_c, 11, 54, 63
4, 158402, Note_on_c, 11, 59, 63
4, 158404, Note_on_c, 11, 66, 63
4, 158406, Note_on_c, 11, 71, 63
4, 158640, Note_off_c, 11, 71, 63
4, 158640, Note_off_c, 11, 66, 63
4, 158640, Note_off_c, 11, 59, 63
4, 158640, Note_off_c, 11, 54, 63
4, 158640, Note_on_c, 11, 71, 63
4, 158642, Note_on_c, 11, 66, 63
4, 158644, Note_on_c, 11, 59, 63
4, 158646, Note_on_c, 11, 54, 63
4, 158880, Note_off_c, 11, 71, 63
4, 158880, Note_off_c, 11, 66, 63
4, 158880, Note_off_c, 11, 59, 63
4, 158880, Note_off_c, 11, 54, 63
4, 158880, Note_on_c, 11, 54, 63
4, 158882, Note_on_c, 11, 59, 63
4, 158884, Note_on_c, 11, 66, 63
4, 158886, Note_on_c, 11, 71, 63
4, 159120, Note_off_c, 11, 71, 63
4, 159120, Note_off_c, 11, 66, 63
4, 159120, Note_off_c, 11, 59, 63
4, 159120, Note_off_c, 11, 54, 63
4, 159120, Note_on_c, 11, 71, 63
4, 159122, Note_on_c, 11, 66, 63
4, 159124, Note_on_c, 11, 59, 63
4, 159126, Note_on_c, 11, 54, 63
4, 159360, Note_off_c, 11, 71, 63
4, 159360, Note_off_c, 11, 66, 63
4, 159360, Note_off_c, 11, 59, 63
4, 159360, Note_off_c, 11, 54, 63
4, 159600, Note_on_c, 11, 70, 95
4, 159602, Note_on_c, 11, 66, 95
4, 159604, Note_on_c, 11, 61, 95
4, 159840, Note_off_c, 11, 70, 95
4, 159840, Note_off_c, 11, 66, 95
4, 159840, Note_off_c, 11, 61, 95
4, 160080, Note_on_c, 11, 70, 63
4, 160082, Note_on_c, 11, 66, 63
4, 160084, Note_on_c, 11, 61, 63
4, 160320, Note_off_c, 11, 70, 63
4, 160320, Note_off_c, 11, 66, 63
4, 160320, Note_off_c, 11, 61, 63
4, 160320, Note_on_c, 11, 61, 63
4, 160322, Note_on_c, 11, 66, 63
4, 160324, Note_on_c, 11, 70, 63
4, 160560, Note_off_c, 11, 70, 63
4, 160560, Note_off_c, 11, 66, 63
4, 160560, Note_off_c, 11, 61, 63
4, 160560, Note_on_c, 11, 70, 63
4, 160562, Note_on_c, 11, 66, 63
4, 160564, Note_on_c, 11, 61, 63
4, 160800, Note_off_c, 11, 70, 63
4, 160800, Note_off_c, 11, 66, 63
4, 160800, Note_off_c, 11, 61, 63
4, 160800, Note_on_c, 11, 61, 63
4, 160802, Note_on_c, 11, 66, 63
4, 160804, Note_on_c, 11, 70, 63
4, 161040, Note_off_c, 11, 70, 63
4, 161040, Note_off_c, 11, 66, 63
4, 161040, Note_off_c, 11, 61, 63
4, 161040, Note_on_c, 11, 70, 63
4, 161042, Note_on_c, 11, 66, 63
4, 161044, Note_on_c, 11, 61, 63
4, 161280, Note_off_c, 11, 70, 63
4, 161280, Note_off_c, 11, 66, 63
4, 161280, Note_off_c, 11, 61, 63
4, 161280, Note_on_c, 11, 70, 95
4, 161280, Note_on_c, 11, 66, 95
4, 161280, Note_on_c, 11, 61, 95
4, 161280, Note_on_c, 11, 54, 95
4, 161520, Note_off_c, 11, 70, 95
4, 161520, Note_off_c, 11, 66, 95
4, 161520, Note_off_c, 11, 61, 95
4, 161520, Note_off_c, 11, 54, 95
4, 161520, Note_on_c, 11, 70, 63
4, 161522, Note_on_c, 11, 66, 63
4, 161524, Note_on_c, 11, 61, 63
4, 161760, Note_off_c, 11, 70, 63
4, 161760, Note_off_c, 11, 66, 63
4, 161760, Note_off_c, 11, 61, 63
4, 161760, Note_on_c, 11, 70, 63
4, 161760, Note_on_c, 11, 66, 63
4, 161760, Note_on_c, 11, 61, 63
4, 162000, Note_off_c, 11, 70, 63
4, 162000, Note_off_c, 11, 66, 63
4, 162000, Note_off_c, 11, 61, 63
4, 162000, Note_on_c, 11, 70, 63
4, 162002, Note_on_c, 11, 66, 63
4, 162004, Note_on_c, 11, 61, 63
4, 162240, Note_off_c, 11, 70, 63
4, 162240, Note_off_c, 11, 66, 63
4, 162240, Note_off_c, 11, 61, 63
4, 162240, Note_on_c, 11, 61, 63
4, 162242, Note_on_c, 11, 66, 63
4, 162244, Note_on_c, 11, 70, 63
4, 162480, Note_off_c, 11, 70, 63
4, 162480, Note_off_c, 11, 66, 63
4, 162480, Note_off_c, 11, 61, 63
4, 162480, Note_on_c, 11, 70, 63
4, 162482, Note_on_c, 11, 66, 63
4, 162484, Note_on_c, 11, 61, 63
4, 162720, Note_off_c, 11, 70, 63
4, 162720, Note_off_c, 11, 66, 63
4, 162720, Note_off_c, 11, 61, 63
4, 162720, Note_on_c, 11, 61, 63
4, 162722, Note_on_c, 11, 66, 63
4, 162724, Note_on_c, 11, 70, 63
4, 162960, Note_off_c, 11, 70, 63
4, 162960, Note_off_c, 11, 66, 63
4, 162960, Note_off_c, 11, 61, 63
4, 162960, Note_on_c, 11, 70, 63
4, 162962, Note_on_c, 11, 66, 63
4, 162964, Note_on_c, 11, 61, 63
4, 163200, Note_off_c, 11, 70, 63
4, 163200, Note_off_c, 11, 66, 63
4, 163200, Note_off_c, 11, 61, 63
4, 163440, Note_on_c, 11, 70, 95
4, 163442, Note_on_c, 11, 66, 95
4, 163444, Note_on_c, 11, 61, 95
4, 163680, Note_off_c, 11, 70, 95
4, 163680, Note_off_c, 11, 66, 95
4, 163680, Note_off_c, 11, 61, 95
4, 163920, Note_on_c, 11, 70, 63
4, 163922, Note_on_c, 11, 66, 63
4, 163924, Note_on_c, 11, 61, 63
4, 164160, Note_off_c, 11, 70, 63
4, 164160, Note_off_c, 11, 66, 63
4, 164160, Note_off_c, 11, 61, 63
4, 164160, Note_on_c, 11, 61, 63
4, 164162, Note_on_c, 11, 66, 63
4, 164164, Note_on_c, 11, 70, 63
4, 164400, Note_off_c, 11, 70, 63
4, 164400, Note_off_c, 11, 66, 63
4, 164400, Note_off_c, 11, 61, 63
4, 164400, Note_on_c, 11, 70, 63
4, 164402, Note_on_c, 11, 66, 63
4, 164404, Note_on_c, 11, 61, 63
4, 164640, Note_off_c, 11, 70, 63
4, 164640, Note_off_c, 11, 66, 63
4, 164640, Note_off_c, 11, 61, 63
4, 164640, Note_on_c, 11, 61, 63
4, 164642, Note_on_c, 11, 66, 63
4, 164644, Note_on_c, 11, 70, 63
4, 164880, Note_off_c, 11, 70, 63
4, 164880, Note_off_c, 11, 66, 63
4, 164880, Note_off_c, 11, 61, 63
4, 164880, Note_on_c, 11, 70, 63
4, 164882, Note_on_c, 11, 66, 63
4, 164884, Note_on_c, 11, 61, 63
4, 165120, Note_off_c, 11, 70, 63
4, 165120, Note_off_c, 11, 66, 63
4, 165120, Note_off_c, 11, 61, 63
4, 165120, Note_on_c, 11, 70, 95
4, 165120, Note_on_c, 11, 66, 95
4, 165120, Note_on_c, 11, 61, 95
4, 165120, Note_on_c, 11, 54, 95
4, 165360, Note_off_c, 11, 70, 95
4, 165360, Note_off_c, 11, 66, 95
4, 165360, Note_off_c, 11, 61, 95
4, 165360, Note_off_c, 11, 54, 95
4, 165360, Note_on_c, 11, 70, 63
4, 165362, Note_on_c, 11, 66, 63
4, 165364, Note_on_c, 11, 61, 63
4, 165600, Note_off_c, 11, 70, 63
4, 165600, Note_off_c, 11, 66, 63
4, 165600, Note_off_c, 11, 61, 63
4, 165600, Note_on_c, 11, 70, 63
4, 165600, Note_on_c, 11, 66, 63
4, 165600, Note_on_c, 11, 61, 63
4, 165840, Note_off_c, 11, 70, 63
4, 165840, Note_off_c, 11, 66, 63
4, 165840, Note_off_c, 11, 61, 63
4, 165840, Note_on_c, 11, 70, 63
4, 165842, Note_on_c, 11, 66, 63
4, 165844, Note_on_c, 11, 61, 63
4, 166080, Note_off_c, 11, 70, 63
4, 166080, Note_off_c, 11, 66, 63
4, 166080, Note_off_c, 11, 61, 63
4, 166080, Note_on_c, 11, 61, 63
4, 166082, Note_on_c, 11, 66, 63
4, 166084, Note_on_c, 11, 70, 63
4, 166320, Note_off_c, 11, 70, 63
4, 166320, Note_off_c, 11, 66, 63
4, 166320, Note_off_c, 11, 61, 63
4, 166320, Note_on_c, 11, 70, 63
4, 166322, Note_on_c, 11, 66, 63
4, 166324, Note_on_c, 11, 61, 63
4, 166560, Note_off_c, 11, 70, 63
4, 166560, Note_off_c, 11, 66, 63
4, 166560, Note_off_c, 11, 61, 63
4, 166560, Note_on_c, 11, 61, 63
4, 166562, Note_on_c, 11, 66, 63
4, 166564, Note_on_c, 11, 70, 63
4, 166800, Note_off_c, 11, 70, 63
4, 166800, Note_off_c, 11, 66, 63
4, 166800, Note_off_c, 11, 61, 63
4, 166800, Note_on_c, 11, 70, 63
4, 166802, Note_on_c, 11, 66, 63
4, 166804, Note_on_c, 11, 61, 63
4, 167040, Note_off_c, 11, 70, 63
4, 167040, Note_off_c, 11, 66, 63
4, 167040, Note_off_c, 11, 61, 63
4, 167040, Note_on_c, 11, 44, 95
4, 167042, Note_on_c, 11, 51, 95
4, 167044, Note_on_c, 11, 56, 95
4, 167046, Note_on_c, 11, 59, 95
4, 167048, Note_on_c, 11, 63, 95
4, 167050, Note_on_c, 11, 68, 95
4, 167280, Note_off_c, 11, 68, 95
4, 167280, Note_off_c, 11, 63, 95
4, 167280, Note_off_c, 11, 59, 95
4, 167280, Note_off_c, 11, 56, 95
4, 167280, Note_off_c, 11, 51, 95
4, 167280, Note_off_c, 11, 44, 95
4, 167280, Note_on_c, 11, 68, 63
4, 167282, Note_on_c, 11, 63, 63
4, 167284, Note_on_c, 11, 59, 63
4, 167286, Note_on_c, 11, 56, 63
4, 167288, Note_on_c, 11, 51, 63
4, 167520, Note_off_c, 11, 68, 63
4, 167520, Note_off_c, 11, 63, 63
4, 167520, Note_off_c, 11, 59, 63
4, 167520, Note_off_c, 11, 56, 63
4, 167520, Note_off_c, 11, 51, 63
4, 167520, Note_on_c, 11, 51, 63
4, 167522, Note_on_c, 11, 56, 63
4, 167524, Note_on_c, 11, 59, 63
4, 167526, Note_on_c, 11, 63, 63
4, 167528, Note_on_c, 11, 68, 63
4, 167760, Note_off_c, 11, 68, 63
4, 167760, Note_off_c, 11, 63, 63
4, 167760, Note_off_c, 11, 59, 63
4, 167760, Note_off_c, 11, 56, 63
4, 167760, Note_off_c, 11, 51, 63
4, 167760, Note_on_c, 11, 68, 63
4, 167762, Note_on_c, 11, 63, 63
4, 167764, Note_on_c, 11, 59, 63
4, 167766, Note_on_c, 11, 56, 63
4, 167768, Note_on_c, 11, 51, 63
4, 168000, Note_off_c, 11, 68, 63
4, 168000, Note_off_c, 11, 63, 63
4, 168000, Note_off_c, 11, 59, 63
4, 168000, Note_off_c, 11, 56, 63
4, 168000, Note_off_c, 11, 51, 63
4, 168000, Note_on_c, 11, 51, 63
4, 168002, Note_on_c, 11, 56, 63
4, 168004, Note_on_c, 11, 59, 63
4, 168006, Note_on_c, 11, 63, 63
4, 168008, Note_on_c, 11, 68, 63
4, 168240, Note_off_c, 11, 68, 63
4, 168240, Note_off_c, 11, 63, 63
4, 168240, Note_off_c, 11, 59, 63
4, 168240, Note_off_c, 11, 56, 63
4, 168240, Note_off_c, 11, 51, 63
4, 168240, Note_on_c, 11, 68, 63
4, 168242, Note_on_c, 11, 63, 63
4, 168244, Note_on_c, 11, 59, 63
4, 168246, Note_on_c, 11, 56, 63
4, 168248, Note_on_c, 11, 51, 63
4, 168480, Note_off_c, 11, 68, 63
4, 168480, Note_off_c, 11, 63, 63
4, 168480, Note_off_c, 11, 59, 63
4, 168480, Note_off_c, 11, 56, 63
4, 168480, Note_off_c, 11, 51, 63
4, 168480, Note_on_c, 11, 51, 63
4, 168482, Note_on_c, 11, 56, 63
4, 168484, Note_on_c, 11, 59, 63
4, 168486, Note_on_c, 11, 63, 63
4, 168488, Note_on_c, 11, 68, 63
4, 168720, Note_off_c, 11, 68, 63
4, 168720, Note_off_c, 11, 63, 63
4, 168720, Note_off_c, 11, 59, 63
4, 168720, Note_off_c, 11, 56, 63
4, 168720, Note_off_c, 11, 51, 63
4, 168720, Note_on_c, 11, 70, 95
4, 168722, Note_on_c, 11, 65, 95
4, 168724, Note_on_c, 11, 61, 95
4, 168726, Note_on_c, 11, 58, 95
4, 168728, Note_on_c, 11, 53, 95
4, 168730, Note_on_c, 11, 46, 95
4, 168960, Note_off_c, 11, 70, 95
4, 168960, Note_off_c, 11, 65, 95
4, 168960, Note_off_c, 11, 61, 95
4, 168960, Note_off_c, 11, 58, 95
4, 168960, Note_off_c, 11, 53, 95
4, 168960, Note_off_c, 11, 46, 95
4, 169200, Note_on_c, 11, 70, 95
4, 169202, Note_on_c, 11, 65, 95
4, 169204, Note_on_c, 11, 61, 95
4, 169206, Note_on_c, 11, 58, 95
4, 169208, Note_on_c, 11, 53, 95
4, 169440, Note_off_c, 11, 70, 95
4, 169440, Note_off_c, 11, 65, 95
4, 169440, Note_off_c, 11, 61, 95
4, 169440, Note_off_c, 11, 58, 95
4, 169440, Note_off_c, 11, 53, 95
4, 169680, Note_on_c, 11, 70, 95
4, 169682, Note_on_c, 11, 65, 95
4, 169684, Note_on_c, 11, 61, 95
4, 169686, Note_on_c, 11, 58, 95
4, 169688, Note_on_c, 11, 53, 95
4, 169920, Note_off_c, 11, 70, 95
4, 169920, Note_off_c, 11, 65, 95
4, 169920, Note_off_c, 11, 61, 95
4, 169920, Note_off_c, 11, 58, 95
4, 169920, Note_off_c, 11, 53, 95
4, 169920, Note_on_c, 11, 53, 95
4, 169922, Note_on_c, 11, 58, 95
4, 169924, Note_on_c, 11, 61, 95
4, 169926, Note_on_c, 11, 65, 95
4, 169928, Note_on_c, 11, 70, 95
4, 170160, Note_off_c, 11, 70, 95
4, 170160, Note_off_c, 11, 65, 95
4, 170160, Note_off_c, 11, 61, 95
4, 170160, Note_off_c, 11, 58, 95
4, 170160, Note_off_c, 11, 53, 95
4, 170160, Note_on_c, 11, 70, 63
4, 170162, Note_on_c, 11, 65, 63
4, 170164, Note_on_c, 11, 61, 63
4, 170166, Note_on_c, 11, 58, 63
4, 170168, Note_on_c, 11, 53, 63
4, 170400, Note_off_c, 11, 70, 63
4, 170400, Note_off_c, 11, 65, 63
4, 170400, Note_off_c, 11, 61, 63
4, 170400, Note_off_c, 11, 58, 63
4, 170400, Note_off_c, 11, 53, 63
4, 170400, Note_on_c, 11, 53, 63
4, 170402, Note_on_c, 11, 58, 63
4, 170404, Note_on_c, 11, 61, 63
4, 170406, Note_on_c, 11, 65, 63
4, 170408, Note_on_c, 11, 70, 63
4, 170640, Note_off_c, 11, 70, 63
4, 170640, Note_off_c, 11, 65, 63
4, 170640, Note_off_c, 11, 61, 63
4, 170640, Note_off_c, 11, 58, 63
4, 170640, Note_off_c, 11, 53, 63
4, 170640, Note_on_c, 11, 70, 63
4, 170642, Note_on_c, 11, 65, 63
4, 170644, Note_on_c, 11, 61, 63
4, 170646, Note_on_c, 11, 58, 63
4, 170648, Note_on_c, 11, 53, 63
4, 170880, Note_off_c, 11, 70, 63
4, 170880, Note_off_c, 11, 65, 63
4, 170880, Note_off_c, 11, 61, 63
4, 170880, Note_off_c, 11, 58, 63
4, 170880, Note_off_c, 11, 53, 63
4, 170880, Note_on_c, 11, 47, 95
4, 170882, Note_on_c, 11, 51, 95
4, 170884, Note_on_c, 11, 54, 95
4, 170886, Note_on_c, 11, 59, 95
4, 170888, Note_on_c, 11, 66, 95
4, 170890, Note_on_c, 11, 71, 95
4, 171120, Note_off_c, 11, 71, 95
4, 171120, Note_off_c, 11, 66, 95
4, 171120, Note_off_c, 11, 59, 95
4, 171120, Note_off_c, 11, 54, 95
4, 171120, Note_off_c, 11, 51, 95
4, 171120, Note_off_c, 11, 47, 95
4, 171120, Note_on_c, 11, 71, 63
4, 171122, Note_on_c, 11, 66, 63
4, 171124, Note_on_c, 11, 59, 63
4, 171126, Note_on_c, 11, 54, 63
4, 171128, Note_on_c, 11, 51, 63
4, 171360, Note_off_c, 11, 71, 63
4, 171360, Note_off_c, 11, 66, 63
4, 171360, Note_off_c, 11, 59, 63
4, 171360, Note_off_c, 11, 54, 63
4, 171360, Note_off_c, 11, 51, 63
4, 171360, Note_on_c, 11, 51, 63
4, 171362, Note_on_c, 11, 54, 63
4, 171364, Note_on_c, 11, 59, 63
4, 171366, Note_on_c, 11, 66, 63
4, 171368, Note_on_c, 11, 71, 63
4, 171600, Note_off_c, 11, 71, 63
4, 171600, Note_off_c, 11, 66, 63
4, 171600, Note_off_c, 11, 59, 63
4, 171600, Note_off_c, 11, 54, 63
4, 171600, Note_off_c, 11, 51, 63
4, 171600, Note_on_c, 11, 71, 63
4, 171602, Note_on_c, 11, 66, 63
4, 171604, Note_on_c, 11, 59, 63
4, 171606, Note_on_c, 11, 54, 63
4, 171608, Note_on_c, 11, 51, 63
4, 171840, Note_off_c, 11, 71, 63
4, 171840, Note_off_c, 11, 66, 63
4, 171840, Note_off_c, 11, 59, 63
4, 171840, Note_off_c, 11, 54, 63
4, 171840, Note_off_c, 11, 51, 63
4, 171840, Note_on_c, 11, 51, 63
4, 171842, Note_on_c, 11, 54, 63
4, 171844, Note_on_c, 11, 59, 63
4, 171846, Note_on_c, 11, 66, 63
4, 171848, Note_on_c, 11, 71, 63
4, 172080, Note_off_c, 11, 71, 63
4, 172080, Note_off_c, 11, 66, 63
4, 172080, Note_off_c, 11, 59, 63
4, 172080, Note_off_c, 11, 54, 63
4, 172080, Note_off_c, 11, 51, 63
4, 172080, Note_on_c, 11, 71, 63
4, 172082, Note_on_c, 11, 66, 63
4, 172084, Note_on_c, 11, 59, 63
4, 172086, Note_on_c, 11, 54, 63
4, 172088, Note_on_c, 11, 51, 63
4, 172320, Note_off_c, 11, 71, 63
4, 172320, Note_off_c, 11, 66, 63
4, 172320, Note_off_c, 11, 59, 63
4, 172320, Note_off_c, 11, 54, 63
4, 172320, Note_off_c, 11, 51, 63
4, 172320, Note_on_c, 11, 51, 63
4, 172322, Note_on_c, 11, 54, 63
4, 172324, Note_on_c, 11, 59, 63
4, 172326, Note_on_c, 11, 66, 63
4, 172328, Note_on_c, 11, 71, 63
4, 172560, Note_off_c, 11, 71, 63
4, 172560, Note_off_c, 11, 66, 63
4, 172560, Note_off_c, 11, 59, 63
4, 172560, Note_off_c, 11, 54, 63
4, 172560, Note_off_c, 11, 51, 63
4, 172560, Note_on_c, 11, 68, 95
4, 172562, Note_on_c, 11, 65, 95
4, 172564, Note_on_c, 11, 61, 95
4, 172566, Note_on_c, 11, 56, 95
4, 172568, Note_on_c, 11, 49, 95
4, 172800, Note_off_c, 11, 68, 95
4, 172800, Note_off_c, 11, 65, 95
4, 172800, Note_off_c, 11, 61, 95
4, 172800, Note_off_c, 11, 56, 95
4, 172800, Note_off_c, 11, 49, 95
4, 173040, Note_on_c, 11, 68, 95
4, 173042, Note_on_c, 11, 65, 95
4, 173044, Note_on_c, 11, 61, 95
4, 173046, Note_on_c, 11, 56, 95
4, 173280, Note_off_c, 11, 68, 95
4, 173280, Note_off_c, 11, 65, 95
4, 173280, Note_off_c, 11, 61, 95
4, 173280, Note_off_c, 11, 56, 95
4, 173520, Note_on_c, 11, 68, 95
4, 173522, Note_on_c, 11, 65, 95
4, 173524, Note_on_c, 11, 61, 95
4, 173526, Note_on_c, 11, 56, 95
4, 173760, Note_off_c, 11, 68, 95
4, 173760, Note_off_c, 11, 65, 95
4, 173760, Note_off_c, 11, 61, 95
4, 173760, Note_off_c, 11, 56, 95
4, 173760, Note_on_c, 11, 56, 95
4, 173762, Note_on_c, 11, 61, 95
4, 173764, Note_on_c, 11, 65, 95
4, 173766, Note_on_c, 11, 68, 95
4, 174000, Note_off_c, 11, 68, 95
4, 174000, Note_off_c, 11, 65, 95
4, 174000, Note_off_c, 11, 61, 95
4, 174000, Note_off_c, 11, 56, 95
4, 174000, Note_on_c, 11, 68, 63
4, 174002, Note_on_c, 11, 65, 63
4, 174004, Note_on_c, 11, 61, 63
4, 174006, Note_on_c, 11, 56, 63
4, 174240, Note_off_c, 11, 68, 63
4, 174240, Note_off_c, 11, 65, 63
4, 174240, Note_off_c, 11, 61, 63
4, 174240, Note_off_c, 11, 56, 63
4, 174240, Note_on_c, 11, 56, 63
4, 174242, Note_on_c, 11, 61, 63
4, 174244, Note_on_c, 11, 65, 63
4, 174246, Note_on_c, 11, 68, 63
4, 174480, Note_off_c, 11, 68, 63
4, 174480, Note_off_c, 11, 65, 63
4, 174480, Note_off_c, 11, 61, 63
4, 174480, Note_off_c, 11, 56, 63
4, 174480, Note_on_c, 11, 68, 63
4, 174482, Note_on_c, 11, 65, 63
4, 174484, Note_on_c, 11, 61, 63
4, 174486, Note_on_c, 11, 56, 63
4, 174720, Note_off_c, 11, 68, 63
4, 174720, Note_off_c, 11, 65, 63
4, 174720, Note_off_c, 11, 61, 63
4, 174720, Note_off_c, 11, 56, 63
4, 174720, Note_on_c, 11, 51, 95
4, 174722, Note_on_c, 11, 56, 95
4, 174724, Note_on_c, 11, 59, 95
4, 174726, Note_on_c, 11, 63, 95
4, 174728, Note_on_c, 11, 68, 95
4, 174960, Note_off_c, 11, 68, 95
4, 174960, Note_off_c, 11, 63, 95
4, 174960, Note_off_c, 11, 59, 95
4, 174960, Note_off_c, 11, 56, 95
4, 174960, Note_off_c, 11, 51, 95
4, 174960, Note_on_c, 11, 68, 63
4, 174962, Note_on_c, 11, 63, 63
4, 174964, Note_on_c, 11, 59, 63
4, 174966, Note_on_c, 11, 56, 63
4, 174968, Note_on_c, 11, 51, 63
4, 175200, Note_off_c, 11, 68, 63
4, 175200, Note_off_c, 11, 63, 63
4, 175200, Note_off_c, 11, 59, 63
4, 175200, Note_off_c, 11, 56, 63
4, 175200, Note_off_c, 11, 51, 63
4, 175200, Note_on_c, 11, 51, 63
4, 175202, Note_on_c, 11, 56, 63
4, 175204, Note_on_c, 11, 59, 63
4, 175206, Note_on_c, 11, 63, 63
4, 175208, Note_on_c, 11, 68, 63
4, 175440, Note_off_c, 11, 68, 63
4, 175440, Note_off_c, 11, 63, 63
4, 175440, Note_off_c, 11, 59, 63
4, 175440, Note_off_c, 11, 56, 63
4, 175440, Note_off_c, 11, 51, 63
4, 175440, Note_on_c, 11, 68, 63
4, 175442, Note_on_c, 11, 63, 63
4, 175444, Note_on_c, 11, 59, 63
4, 175446, Note_on_c, 11, 56, 63
4, 175448, Note_on_c, 11, 51, 63
4, 175680, Note_off_c, 11, 68, 63
4, 175680, Note_off_c, 11, 63, 63
4, 175680, Note_off_c, 11, 59, 63
4, 175680, Note_off_c, 11, 56, 63
4, 175680, Note_off_c, 11, 51, 63
4, 175680, Note_on_c, 11, 51, 63
4, 175682, Note_on_c, 11, 56, 63
4, 175684, Note_on_c, 11, 59, 63
4, 175686, Note_on_c, 11, 63, 63
4, 175688, Note_on_c, 11, 68, 63
4, 175920, Note_off_c, 11, 68, 63
4, 175920, Note_off_c, 11, 63, 63
4, 175920, Note_off_c, 11, 59, 63
4, 175920, Note_off_c, 11, 56, 63
4, 175920, Note_off_c, 11, 51, 63
4, 175920, Note_on_c, 11, 68, 63
4, 175922, Note_on_c, 11, 63, 63
4, 175924, Note_on_c, 11, 59, 63
4, 175926, Note_on_c, 11, 56, 63
4, 175928, Note_on_c, 11, 51, 63
4, 176160, Note_off_c, 11, 68, 63
4, 176160, Note_off_c, 11, 63, 63
4, 176160, Note_off_c, 11, 59, 63
4, 176160, Note_off_c, 11, 56, 63
4, 176160, Note_off_c, 11, 51, 63
4, 176160, Note_on_c, 11, 51, 63
4, 176162, Note_on_c, 11, 56, 63
4, 176164, Note_on_c, 11, 59, 63
4, 176166, Note_on_c, 11, 63, 63
4, 176168, Note_on_c, 11, 68, 63
4, 176400, Note_off_c, 11, 68, 63
4, 176400, Note_off_c, 11, 63, 63
4, 176400, Note_off_c, 11, 59, 63
4, 176400, Note_off_c, 11, 56, 63
4, 176400, Note_off_c, 11, 51, 63
4, 176400, Note_on_c, 11, 70, 95
4, 176402, Note_on_c, 11, 65, 95
4, 176404, Note_on_c, 11, 61, 95
4, 176406, Note_on_c, 11, 58, 95
4, 176408, Note_on_c, 11, 53, 95
4, 176640, Note_off_c, 11, 70, 95
4, 176640, Note_off_c, 11, 65, 95
4, 176640, Note_off_c, 11, 61, 95
4, 176640, Note_off_c, 11, 58, 95
4, 176640, Note_off_c, 11, 53, 95
4, 176880, Note_on_c, 11, 70, 95
4, 176882, Note_on_c, 11, 65, 95
4, 176884, Note_on_c, 11, 61, 95
4, 176886, Note_on_c, 11, 58, 95
4, 176888, Note_on_c, 11, 53, 95
4, 177120, Note_off_c, 11, 70, 95
4, 177120, Note_off_c, 11, 65, 95
4, 177120, Note_off_c, 11, 61, 95
4, 177120, Note_off_c, 11, 58, 95
4, 177120, Note_off_c, 11, 53, 95
4, 177360, Note_on_c, 11, 70, 95
4, 177362, Note_on_c, 11, 65, 95
4, 177364, Note_on_c, 11, 61, 95
4, 177366, Note_on_c, 11, 58, 95
4, 177368, Note_on_c, 11, 53, 95
4, 177600, Note_off_c, 11, 70, 95
4, 177600, Note_off_c, 11, 65, 95
4, 177600, Note_off_c, 11, 61, 95
4, 177600, Note_off_c, 11, 58, 95
4, 177600, Note_off_c, 11, 53, 95
4, 177600, Note_on_c, 11, 53, 95
4, 177602, Note_on_c, 11, 58, 95
4, 177604, Note_on_c, 11, 61, 95
4, 177606, Note_on_c, 11, 65, 95
4, 177608, Note_on_c, 11, 70, 95
4, 177840, Note_off_c, 11, 70, 95
4, 177840, Note_off_c, 11, 65, 95
4, 177840, Note_off_c, 11, 61, 95
4, 177840, Note_off_c, 11, 58, 95
4, 177840, Note_off_c, 11, 53, 95
4, 177840, Note_on_c, 11, 70, 63
4, 177842, Note_on_c, 11, 65, 63
4, 177844, Note_on_c, 11, 61, 63
4, 177846, Note_on_c, 11, 58, 63
4, 177848, Note_on_c, 11, 53, 63
4, 178080, Note_off_c, 11, 70, 63
4, 178080, Note_off_c, 11, 65, 63
4, 178080, Note_off_c, 11, 61, 63
4, 178080, Note_off_c, 11, 58, 63
4, 178080, Note_off_c, 11, 53, 63
4, 178080, Note_on_c, 11, 53, 63
4, 178082, Note_on_c, 11, 58, 63
4, 178084, Note_on_c, 11, 61, 63
4, 178086, Note_on_c, 11, 65, 63
4, 178088, Note_on_c, 11, 70, 63
4, 178320, Note_off_c, 11, 70, 63
4, 178320, Note_off_c, 11, 65, 63
4, 178320, Note_off_c, 11, 61, 63
4, 178320, Note_off_c, 11, 58, 63
4, 178320, Note_off_c, 11, 53, 63
4, 178320, Note_on_c, 11, 70, 63
4, 178322, Note_on_c, 11, 65, 63
4, 178324, Note_on_c, 11, 61, 63
4, 178326, Note_on_c, 11, 58, 63
4, 178328, Note_on_c, 11, 53, 63
4, 178560, Note_off_c, 11, 70, 63
4, 178560, Note_off_c, 11, 65, 63
4, 178560, Note_off_c, 11, 61, 63
4, 178560, Note_off_c, 11, 58, 63
4, 178560, Note_off_c, 11, 53, 63
4, 178560, Note_on_c, 11, 54, 95
4, 178562, Note_on_c, 11, 59, 95
4, 178564, Note_on_c, 11, 63, 95
4, 178566, Note_on_c, 11, 71, 95
4, 178800, Note_off_c, 11, 71, 95
4, 178800, Note_off_c, 11, 63, 95
4, 178800, Note_off_c, 11, 59, 95
4, 178800, Note_off_c, 11, 54, 95
4, 178800, Note_on_c, 11, 71, 63
4, 178802, Note_on_c, 11, 63, 63
4, 178804, Note_on_c, 11, 59, 63
4, 178806, Note_on_c, 11, 54, 63
4, 179040, Note_off_c, 11, 71, 63
4, 179040, Note_off_c, 11, 63, 63
4, 179040, Note_off_c, 11, 59, 63
4, 179040, Note_off_c, 11, 54, 63
4, 179040, Note_on_c, 11, 54, 63
4, 179042, Note_on_c, 11, 59, 63
4, 179044, Note_on_c, 11, 63, 63
4, 179046, Note_on_c, 11, 71, 63
4, 179280, Note_off_c, 11, 71, 63
4, 179280, Note_off_c, 11, 63, 63
4, 179280, Note_off_c, 11, 59, 63
4, 179280, Note_off_c, 11, 54, 63
4, 179280, Note_on_c, 11, 71, 63
4, 179282, Note_on_c, 11, 63, 63
4, 179284, Note_on_c, 11, 59, 63
4, 179286, Note_on_c, 11, 54, 63
4, 179520, Note_off_c, 11, 71, 63
4, 179520, Note_off_c, 11, 63, 63
4, 179520, Note_off_c, 11, 59, 63
4, 179520, Note_off_c, 11, 54, 63
4, 179520, Note_on_c, 11, 54, 63
4, 179522, Note_on_c, 11, 59, 63
4, 179524, Note_on_c, 11, 63, 63
4, 179526, Note_on_c, 11, 71, 63
4, 179760, Note_off_c, 11, 71, 63
4, 179760, Note_off_c, 11, 63, 63
4, 179760, Note_off_c, 11, 59, 63
4, 179760, Note_off_c, 11, 54, 63
4, 179760, Note_on_c, 11, 71, 63
4, 179762, Note_on_c, 11, 63, 63
4, 179764, Note_on_c, 11, 59, 63
4, 179766, Note_on_c, 11, 54, 63
4, 180000, Note_off_c, 11, 71, 63
4, 180000, Note_off_c, 11, 63, 63
4, 180000, Note_off_c, 11, 59, 63
4, 180000, Note_off_c, 11, 54, 63
4, 180000, Note_on_c, 11, 54, 63
4, 180002, Note_on_c, 11, 59, 63
4, 180004, Note_on_c, 11, 63, 63
4, 180006, Note_on_c, 11, 71, 63
4, 180240, Note_off_c, 11, 71, 63
4, 180240, Note_off_c, 11, 63, 63
4, 180240, Note_off_c, 11, 59, 63
4, 180240, Note_off_c, 11, 54, 63
4, 180240, Note_on_c, 11, 68, 95
4, 180242, Note_on_c, 11, 65, 95
4, 180244, Note_on_c, 11, 61, 95
4, 180246, Note_on_c, 11, 56, 95
4, 180480, Note_off_c, 11, 68, 95
4, 180480, Note_off_c, 11, 65, 95
4, 180480, Note_off_c, 11, 61, 95
4, 180480, Note_off_c, 11, 56, 95
4, 180720, Note_on_c, 11, 68, 95
4, 180722, Note_on_c, 11, 65, 95
4, 180724, Note_on_c, 11, 61, 95
4, 180726, Note_on_c, 11, 56, 95
4, 180960, Note_off_c, 11, 68, 95
4, 180960, Note_off_c, 11, 65, 95
4, 180960, Note_off_c, 11, 61, 95
4, 180960, Note_off_c, 11, 56, 95
4, 181200, Note_on_c, 11, 68, 95
4, 181202, Note_on_c, 11, 65, 95
4, 181204, Note_on_c, 11, 61, 95
4, 181206, Note_on_c, 11, 56, 95
4, 181440, Note_off_c, 11, 68, 95
4, 181440, Note_off_c, 11, 65, 95
4, 181440, Note_off_c, 11, 61, 95
4, 181440, Note_off_c, 11, 56, 95
4, 181440, Note_on_c, 11, 56, 95
4, 181442, Note_on_c, 11, 61, 95
4, 181444, Note_on_c, 11, 65, 95
4, 181446, Note_on_c, 11, 68, 95
4, 181680, Note_off_c, 11, 68, 95
4, 181680, Note_off_c, 11, 65, 95
4, 181680, Note_off_c, 11, 61, 95
4, 181680, Note_off_c, 11, 56, 95
4, 181680, Note_on_c, 11, 68, 63
4, 181682, Note_on_c, 11, 65, 63
4, 181684, Note_on_c, 11, 61, 63
4, 181686, Note_on_c, 11, 56, 63
4, 181920, Note_off_c, 11, 68, 63
4, 181920, Note_off_c, 11, 65, 63
4, 181920, Note_off_c, 11, 61, 63
4, 181920, Note_off_c, 11, 56, 63
4, 181920, Note_on_c, 11, 56, 63
4, 181922, Note_on_c, 11, 61, 63
4, 181924, Note_on_c, 11, 65, 63
4, 181926, Note_on_c, 11, 68, 63
4, 182160, Note_off_c, 11, 68, 63
4, 182160, Note_off_c, 11, 65, 63
4, 182160, Note_off_c, 11, 61, 63
4, 182160, Note_off_c, 11, 56, 63
4, 182160, Note_on_c, 11, 68, 63
4, 182162, Note_on_c, 11, 65, 63
4, 182164, Note_on_c, 11, 61, 63
4, 182166, Note_on_c, 11, 56, 63
4, 182400, Note_off_c, 11, 68, 63
4, 182400, Note_off_c, 11, 65, 63
4, 182400, Note_off_c, 11, 61, 63
4, 182400, Note_off_c, 11, 56, 63
4, 182400, Note_on_c, 11, 54, 95
4, 182402, Note_on_c, 11, 61, 95
4, 182404, Note_on_c, 11, 66, 95
4, 182406, Note_on_c, 11, 73, 95
4, 182640, Note_off_c, 11, 73, 95
4, 182640, Note_off_c, 11, 66, 95
4, 182640, Note_off_c, 11, 61, 95
4, 182640, Note_off_c, 11, 54, 95
4, 182640, Note_on_c, 11, 73, 63
4, 182642, Note_on_c, 11, 66, 63
4, 182644, Note_on_c, 11, 61, 63
4, 182880, Note_off_c, 11, 73, 63
4, 182880, Note_off_c, 11, 66, 63
4, 182880, Note_off_c, 11, 61, 63
4, 182880, Note_on_c, 11, 61, 63
4, 182882, Note_on_c, 11, 66, 63
4, 182884, Note_on_c, 11, 73, 63
4, 183120, Note_off_c, 11, 73, 63
4, 183120, Note_off_c, 11, 66, 63
4, 183120, Note_off_c, 11, 61, 63
4, 183120, Note_on_c, 11, 73, 63
4, 183122, Note_on_c, 11, 66, 63
4, 183124, Note_on_c, 11, 61, 63
4, 183360, Note_off_c, 11, 73, 63
4, 183360, Note_off_c, 11, 66, 63
4, 183360, Note_off_c, 11, 61, 63
4, 183360, Note_on_c, 11, 61, 63
4, 183362, Note_on_c, 11, 66, 63
4, 183364, Note_on_c, 11, 73, 63
4, 183600, Note_off_c, 11, 73, 63
4, 183600, Note_off_c, 11, 66, 63
4, 183600, Note_off_c, 11, 61, 63
4, 183600, Note_on_c, 11, 73, 63
4, 183602, Note_on_c, 11, 66, 63
4, 183604, Note_on_c, 11, 61, 63
4, 183840, Note_off_c, 11, 73, 63
4, 183840, Note_off_c, 11, 66, 63
4, 183840, Note_off_c, 11, 61, 63
4, 183840, Note_on_c, 11, 61, 63
4, 183842, Note_on_c, 11, 66, 63
4, 183844, Note_on_c, 11, 73, 63
4, 184080, Note_off_c, 11, 73, 63
4, 184080, Note_off_c, 11, 66, 63
4, 184080, Note_off_c, 11, 61, 63
4, 184080, Note_on_c, 11, 72, 95
4, 184082, Note_on_c, 11, 66, 95
4, 184084, Note_on_c, 11, 60, 95
4, 184086, Note_on_c, 11, 56, 95
4, 184088, Note_on_c, 11, 51, 95
4, 184090, Note_on_c, 11, 44, 95
4, 184320, Note_off_c, 11, 72, 95
4, 184320, Note_off_c, 11, 66, 95
4, 184320, Note_off_c, 11, 60, 95
4, 184320, Note_off_c, 11, 56, 95
4, 184320, Note_off_c, 11, 51, 95
4, 184320, Note_off_c, 11, 44, 95
4, 184560, Note_on_c, 11, 72, 95
4, 184562, Note_on_c, 11, 66, 95
4, 184564, Note_on_c, 11, 60, 95
4, 184566, Note_on_c, 11, 56, 95
4, 184568, Note_on_c, 11, 51, 95
4, 184800, Note_off_c, 11, 72, 95
4, 184800, Note_off_c, 11, 66, 95
4, 184800, Note_off_c, 11, 60, 95
4, 184800, Note_off_c, 11, 56, 95
4, 184800, Note_off_c, 11, 51, 95
4, 185040, Note_on_c, 11, 72, 95
4, 185042, Note_on_c, 11, 66, 95
4, 185044, Note_on_c, 11, 60, 95
4, 185046, Note_on_c, 11, 56, 95
4, 185048, Note_on_c, 11, 51, 95
4, 185280, Note_off_c, 11, 72, 95
4, 185280, Note_off_c, 11, 66, 95
4, 185280, Note_off_c, 11, 60, 95
4, 185280, Note_off_c, 11, 56, 95
4, 185280, Note_off_c, 11, 51, 95
4, 185280, Note_on_c, 11, 51, 95
4, 185282, Note_on_c, 11, 56, 95
4, 185284, Note_on_c, 11, 60, 95
4, 185286, Note_on_c, 11, 66, 95
4, 185288, Note_on_c, 11, 72, 95
4, 185520, Note_off_c, 11, 72, 95
4, 185520, Note_off_c, 11, 66, 95
4, 185520, Note_off_c, 11, 60, 95
4, 185520, Note_off_c, 11, 56, 95
4, 185520, Note_off_c, 11, 51, 95
4, 185520, Note_on_c, 11, 72, 63
4, 185522, Note_on_c, 11, 66, 63
4, 185524, Note_on_c, 11, 60, 63
4, 185526, Note_on_c, 11, 56, 63
4, 185528, Note_on_c, 11, 51, 63
4, 185760, Note_off_c, 11, 72, 63
4, 185760, Note_off_c, 11, 66, 63
4, 185760, Note_off_c, 11, 60, 63
4, 185760, Note_off_c, 11, 56, 63
4, 185760, Note_off_c, 11, 51, 63
4, 185760, Note_on_c, 11, 51, 63
4, 185762, Note_on_c, 11, 56, 63
4, 185764, Note_on_c, 11, 60, 63
4, 185766, Note_on_c, 11, 66, 63
4, 185768, Note_on_c, 11, 72, 63
4, 186000, Note_off_c, 11, 72, 63
4, 186000, Note_off_c, 11, 66, 63
4, 186000, Note_off_c, 11, 60, 63
4, 186000, Note_off_c, 11, 56, 63
4, 186000, Note_off_c, 11, 51, 63
4, 186000, Note_on_c, 11, 72, 63
4, 186002, Note_on_c, 11, 66, 63
4, 186004, Note_on_c, 11, 60, 63
4, 186006, Note_on_c, 11, 56, 63
4, 186008, Note_on_c, 11, 51, 63
4, 186240, Note_off_c, 11, 72, 63
4, 186240, Note_off_c, 11, 66, 63
4, 186240, Note_off_c, 11, 60, 63
4, 186240, Note_off_c, 11, 56, 63
4, 186240, Note_off_c, 11, 51, 63
4, 186240, Note_on_c, 11, 54, 95
4, 186242, Note_on_c, 11, 59, 95
4, 186244, Note_on_c, 11, 63, 95
4, 186246, Note_on_c, 11, 71, 95
4, 186480, Note_off_c, 11, 71, 95
4, 186480, Note_off_c, 11, 63, 95
4, 186480, Note_off_c, 11, 59, 95
4, 186480, Note_off_c, 11, 54, 95
4, 186480, Note_on_c, 11, 71, 63
4, 186482, Note_on_c, 11, 63, 63
4, 186484, Note_on_c, 11, 59, 63
4, 186486, Note_on_c, 11, 54, 63
4, 186720, Note_off_c, 11, 71, 63
4, 186720, Note_off_c, 11, 63, 63
4, 186720, Note_off_c, 11, 59, 63
4, 186720, Note_off_c, 11, 54, 63
4, 186720, Note_on_c, 11, 54, 63
4, 186722, Note_on_c, 11, 59, 63
4, 186724, Note_on_c, 11, 63, 63
4, 186726, Note_on_c, 11, 71, 63
4, 186960, Note_off_c, 11, 71, 63
4, 186960, Note_off_c, 11, 63, 63
4, 186960, Note_off_c, 11, 59, 63
4, 186960, Note_off_c, 11, 54, 63
4, 186960, Note_on_c, 11, 71, 63
4, 186962, Note_on_c, 11, 63, 63
4, 186964, Note_on_c, 11, 59, 63
4, 186966, Note_on_c, 11, 54, 63
4, 187200, Note_off_c, 11, 71, 63
4, 187200, Note_off_c, 11, 63, 63
4, 187200, Note_off_c, 11, 59, 63
4, 187200, Note_off_c, 11, 54, 63
4, 187200, Note_on_c, 11, 54, 63
4, 187202, Note_on_c, 11, 59, 63
4, 187204, Note_on_c, 11, 63, 63
4, 187206, Note_on_c, 11, 71, 63
4, 187440, Note_off_c, 11, 71, 63
4, 187440, Note_off_c, 11, 63, 63
4, 187440, Note_off_c, 11, 59, 63
4, 187440, Note_off_c, 11, 54, 63
4, 187440, Note_on_c, 11, 71, 63
4, 187442, Note_on_c, 11, 63, 63
4, 187444, Note_on_c, 11, 59, 63
4, 187446, Note_on_c, 11, 54, 63
4, 187680, Note_off_c, 11, 71, 63
4, 187680, Note_off_c, 11, 63, 63
4, 187680, Note_off_c, 11, 59, 63
4, 187680, Note_off_c, 11, 54, 63
4, 187680, Note_on_c, 11, 54, 63
4, 187682, Note_on_c, 11, 59, 63
4, 187684, Note_on_c, 11, 63, 63
4, 187686, Note_on_c, 11, 71, 63
4, 187920, Note_off_c, 11, 71, 63
4, 187920, Note_off_c, 11, 63, 63
4, 187920, Note_off_c, 11, 59, 63
4, 187920, Note_off_c, 11, 54, 63
4, 187920, Note_on_c, 11, 71, 63
4, 187922, Note_on_c, 11, 63, 63
4, 187924, Note_on_c, 11, 59, 63
4, 187926, Note_on_c, 11, 54, 63
4, 188160, Note_off_c, 11, 71, 63
4, 188160, Note_off_c, 11, 63, 63
4, 188160, Note_off_c, 11, 59, 63
4, 188160, Note_off_c, 11, 54, 63
4, 188160, Note_on_c, 11, 49, 95
4, 188190, Note_on_c, 11, 56, 95
4, 188220, Note_on_c, 11, 59, 95
4, 188250, Note_on_c, 11, 65, 95
4, 188280, Note_on_c, 11, 71, 95
4, 192000, Note_off_c, 11, 71, 95
4, 192000, Note_off_c, 11, 65, 95
4, 192000, Note_off_c, 11, 59, 95
4, 192000, Note_off_c, 11, 56, 95
4, 192000, Note_off_c, 11, 49, 95
4, 192000, Note_on_c, 11, 54, 95
4, 192002, Note_on_c, 11, 61, 95
4, 192004, Note_on_c, 11, 66, 95
4, 192006, Note_on_c, 11, 70, 95
4, 192240, Note_off_c, 11, 70, 95
4, 192240, Note_off_c, 11, 66, 95
4, 192240, Note_off_c, 11, 61, 95
4, 192240, Note_off_c, 11, 54, 95
4, 192240, Note_on_c, 11, 70, 63
4, 192242, Note_on_c, 11, 66, 63
4, 192244, Note_on_c, 11, 61, 63
4, 192480, Note_off_c, 11, 70, 63
4, 192480, Note_off_c, 11, 66, 63
4, 192480, Note_off_c, 11, 61, 63
4, 192480, Note_on_c, 11, 61, 63
4, 192482, Note_on_c, 11, 66, 63
4, 192484, Note_on_c, 11, 70, 63
4, 192720, Note_off_c, 11, 70, 63
4, 192720, Note_off_c, 11, 66, 63
4, 192720, Note_off_c, 11, 61, 63
4, 192720, Note_on_c, 11, 70, 63
4, 192722, Note_on_c, 11, 66, 63
4, 192724, Note_on_c, 11, 61, 63
4, 192960, Note_off_c, 11, 70, 63
4, 192960, Note_off_c, 11, 66, 63
4, 192960, Note_off_c, 11, 61, 63
4, 192960, Note_on_c, 11, 61, 63
4, 192962, Note_on_c, 11, 66, 63
4, 192964, Note_on_c, 11, 70, 63
4, 193200, Note_off_c, 11, 70, 63
4, 193200, Note_off_c, 11, 66, 63
4, 193200, Note_off_c, 11, 61, 63
4, 193200, Note_on_c, 11, 70, 63
4, 193202, Note_on_c, 11, 66, 63
4, 193204, Note_on_c, 11, 61, 63
4, 193440, Note_off_c, 11, 70, 63
4, 193440, Note_off_c, 11, 66, 63
4, 193440, Note_off_c, 11, 61, 63
4, 193440, Note_on_c, 11, 61, 63
4, 193442, Note_on_c, 11, 66, 63
4, 193444, Note_on_c, 11, 70, 63
4, 193680, Note_off_c, 11, 70, 63
4, 193680, Note_off_c, 11, 66, 63
4, 193680, Note_off_c, 11, 61, 63
4, 193680, Note_on_c, 11, 70, 95
4, 193682, Note_on_c, 11, 64, 95
4, 193684, Note_on_c, 11, 61, 95
4, 193920, Note_off_c, 11, 70, 95
4, 193920, Note_off_c, 11, 64, 95
4, 193920, Note_off_c, 11, 61, 95
4, 194160, Note_on_c, 11, 70, 95
4, 194162, Note_on_c, 11, 64, 95
4, 194164, Note_on_c, 11, 61, 95
4, 194400, Note_off_c, 11, 70, 95
4, 194400, Note_off_c, 11, 64, 95
4, 194400, Note_off_c, 11, 61, 95
4, 194640, Note_on_c, 11, 70, 95
4, 194642, Note_on_c, 11, 64, 95
4, 194644, Note_on_c, 11, 61, 95
4, 194880, Note_off_c, 11, 70, 95
4, 194880, Note_off_c, 11, 64, 95
4, 194880, Note_off_c, 11, 61, 95
4, 194880, Note_on_c, 11, 61, 95
4, 194882, Note_on_c, 11, 64, 95
4, 194884, Note_on_c, 11, 70, 95
4, 195120, Note_off_c, 11, 70, 95
4, 195120, Note_off_c, 11, 64, 95
4, 195120, Note_off_c, 11, 61, 95
4, 195120, Note_on_c, 11, 70, 63
4, 195122, Note_on_c, 11, 64, 63
4, 195124, Note_on_c, 11, 61, 63
4, 195360, Note_off_c, 11, 70, 63
4, 195360, Note_off_c, 11, 64, 63
4, 195360, Note_off_c, 11, 61, 63
4, 195360, Note_on_c, 11, 61, 63
4, 195362, Note_on_c, 11, 64, 63
4, 195364, Note_on_c, 11, 70, 63
4, 195600, Note_off_c, 11, 70, 63
4, 195600, Note_off_c, 11, 64, 63
4, 195600, Note_off_c, 11, 61, 63
4, 195600, Note_on_c, 11, 70, 63
4, 195602, Note_on_c, 11, 64, 63
4, 195604, Note_on_c, 11, 61, 63
4, 195840, Note_off_c, 11, 70, 63
4, 195840, Note_off_c, 11, 64, 63
4, 195840, Note_off_c, 11, 61, 63
4, 195840, Note_on_c, 11, 54, 95
4, 195842, Note_on_c, 11, 61, 95
4, 195844, Note_on_c, 11, 63, 95
4, 195846, Note_on_c, 11, 70, 95
4, 196080, Note_off_c, 11, 70, 95
4, 196080, Note_off_c, 11, 63, 95
4, 196080, Note_off_c, 11, 61, 95
4, 196080, Note_off_c, 11, 54, 95
4, 196080, Note_on_c, 11, 70, 63
4, 196082, Note_on_c, 11, 63, 63
4, 196084, Note_on_c, 11, 61, 63
4, 196320, Note_off_c, 11, 70, 63
4, 196320, Note_off_c, 11, 63, 63
4, 196320, Note_off_c, 11, 61, 63
4, 196320, Note_on_c, 11, 61, 63
4, 196322, Note_on_c, 11, 63, 63
4, 196324, Note_on_c, 11, 70, 63
4, 196560, Note_off_c, 11, 70, 63
4, 196560, Note_off_c, 11, 63, 63
4, 196560, Note_off_c, 11, 61, 63
4, 196560, Note_on_c, 11, 70, 63
4, 196562, Note_on_c, 11, 63, 63
4, 196564, Note_on_c, 11, 61, 63
4, 196800, Note_off_c, 11, 70, 63
4, 196800, Note_off_c, 11, 63, 63
4, 196800, Note_off_c, 11, 61, 63
4, 196800, Note_on_c, 11, 61, 63
4, 196802, Note_on_c, 11, 63, 63
4, 196804, Note_on_c, 11, 70, 63
4, 197040, Note_off_c, 11, 70, 63
4, 197040, Note_off_c, 11, 63, 63
4, 197040, Note_off_c, 11, 61, 63
4, 197040, Note_on_c, 11, 70, 63
4, 197042, Note_on_c, 11, 63, 63
4, 197044, Note_on_c, 11, 61, 63
4, 197280, Note_off_c, 11, 70, 63
4, 197280, Note_off_c, 11, 63, 63
4, 197280, Note_off_c, 11, 61, 63
4, 197280, Note_on_c, 11, 61, 63
4, 197282, Note_on_c, 11, 63, 63
4, 197284, Note_on_c, 11, 70, 63
4, 197520, Note_off_c, 11, 70, 63
4, 197520, Note_off_c, 11, 63, 63
4, 197520, Note_off_c, 11, 61, 63
4, 197520, Note_on_c, 11, 71, 95
4, 197522, Note_on_c, 11, 68, 95
4, 197524, Note_on_c, 11, 62, 95
4, 197526, Note_on_c, 11, 54, 95
4, 197760, Note_off_c, 11, 71, 95
4, 197760, Note_off_c, 11, 68, 95
4, 197760, Note_off_c, 11, 62, 95
4, 197760, Note_off_c, 11, 54, 95
4, 198000, Note_on_c, 11, 71, 95
4, 198002, Note_on_c, 11, 68, 95
4, 198004, Note_on_c, 11, 62, 95
4, 198240, Note_off_c, 11, 71, 95
4, 198240, Note_off_c, 11, 68, 95
4, 198240, Note_off_c, 11, 62, 95
4, 198480, Note_on_c, 11, 71, 95
4, 198482, Note_on_c, 11, 68, 95
4, 198484, Note_on_c, 11, 62, 95
4, 198720, Note_off_c, 11, 71, 95
4, 198720, Note_off_c, 11, 68, 95
4, 198720, Note_off_c, 11, 62, 95
4, 198720, Note_on_c, 11, 62, 95
4, 198722, Note_on_c, 11, 68, 95
4, 198724, Note_on_c, 11, 71, 95
4, 198960, Note_off_c, 11, 71, 95
4, 198960, Note_off_c, 11, 68, 95
4, 198960, Note_off_c, 11, 62, 95
4, 198960, Note_on_c, 11, 71, 63
4, 198962, Note_on_c, 11, 68, 63
4, 198964, Note_on_c, 11, 62, 63
4, 199200, Note_off_c, 11, 71, 63
4, 199200, Note_off_c, 11, 68, 63
4, 199200, Note_off_c, 11, 62, 63
4, 199200, Note_on_c, 11, 62, 63
4, 199202, Note_on_c, 11, 68, 63
4, 199204, Note_on_c, 11, 71, 63
4, 199440, Note_off_c, 11, 71, 63
4, 199440, Note_off_c, 11, 68, 63
4, 199440, Note_off_c, 11, 62, 63
4, 199440, Note_on_c, 11, 71, 63
4, 199442, Note_on_c, 11, 68, 63
4, 199444, Note_on_c, 11, 62, 63
4, 199680, Note_off_c, 11, 71, 63
4, 199680, Note_off_c, 11, 68, 63
4, 199680, Note_off_c, 11, 62, 63
4, 199680, Note_on_c, 11, 54, 95
4, 199682, Note_on_c, 11, 61, 95
4, 199684, Note_on_c, 11, 66, 95
4, 199686, Note_on_c, 11, 70, 95
4, 199920, Note_off_c, 11, 70, 95
4, 199920, Note_off_c, 11, 66, 95
4, 199920, Note_off_c, 11, 61, 95
4, 199920, Note_off_c, 11, 54, 95
4, 199920, Note_on_c, 11, 70, 63
4, 199922, Note_on_c, 11, 66, 63
4, 199924, Note_on_c, 11, 61, 63
4, 200160, Note_off_c, 11, 70, 63
4, 200160, Note_off_c, 11, 66, 63
4, 200160, Note_off_c, 11, 61, 63
4, 200160, Note_on_c, 11, 61, 63
4, 200162, Note_on_c, 11, 66, 63
4, 200164, Note_on_c, 11, 70, 63
4, 200400, Note_off_c, 11, 70, 63
4, 200400, Note_off_c, 11, 66, 63
4, 200400, Note_off_c, 11, 61, 63
4, 200400, Note_on_c, 11, 70, 63
4, 200402, Note_on_c, 11, 66, 63
4, 200404, Note_on_c, 11, 61, 63
4, 200640, Note_off_c, 11, 70, 63
4, 200640, Note_off_c, 11, 66, 63
4, 200640, Note_off_c, 11, 61, 63
4, 200640, Note_on_c, 11, 61, 63
4, 200642, Note_on_c, 11, 66, 63
4, 200644, Note_on_c, 11, 70, 63
4, 200880, Note_off_c, 11, 70, 63
4, 200880, Note_off_c, 11, 66, 63
4, 200880, Note_off_c, 11, 61, 63
4, 200880, Note_on_c, 11, 70, 63
4, 200882, Note_on_c, 11, 66, 63
4, 200884, Note_on_c, 11, 61, 63
4, 201120, Note_off_c, 11, 70, 63
4, 201120, Note_off_c, 11, 66, 63
4, 201120, Note_off_c, 11, 61, 63
4, 201120, Note_on_c, 11, 61, 63
4, 201122, Note_on_c, 11, 66, 63
4, 201124, Note_on_c, 11, 70, 63
4, 201360, Note_off_c, 11, 70, 63
4, 201360, Note_off_c, 11, 66, 63
4, 201360, Note_off_c, 11, 61, 63
4, 201360, Note_on_c, 11, 68, 95
4, 201362, Note_on_c, 11, 65, 95
4, 201364, Note_on_c, 11, 61, 95
4, 201366, Note_on_c, 11, 56, 95
4, 201368, Note_on_c, 11, 49, 95
4, 201600, Note_off_c, 11, 68, 95
4, 201600, Note_off_c, 11, 65, 95
4, 201600, Note_off_c, 11, 61, 95
4, 201600, Note_off_c, 11, 56, 95
4, 201600, Note_off_c, 11, 49, 95
4, 201840, Note_on_c, 11, 68, 95
4, 201842, Note_on_c, 11, 65, 95
4, 201844, Note_on_c, 11, 61, 95
4, 201846, Note_on_c, 11, 56, 95
4, 202080, Note_off_c, 11, 68, 95
4, 202080, Note_off_c, 11, 65, 95
4, 202080, Note_off_c, 11, 61, 95
4, 202080, Note_off_c, 11, 56, 95
4, 202320, Note_on_c, 11, 68, 95
4, 202322, Note_on_c, 11, 65, 95
4, 202324, Note_on_c, 11, 61, 95
4, 202326, Note_on_c, 11, 56, 95
4, 202560, Note_off_c, 11, 68, 95
4, 202560, Note_off_c, 11, 65, 95
4, 202560, Note_off_c, 11, 61, 95
4, 202560, Note_off_c, 11, 56, 95
4, 202560, Note_on_c, 11, 56, 95
4, 202562, Note_on_c, 11, 61, 95
4, 202564, Note_on_c, 11, 65, 95
4, 202566, Note_on_c, 11, 68, 95
4, 202800, Note_off_c, 11, 68, 95
4, 202800, Note_off_c, 11, 65, 95
4, 202800, Note_off_c, 11, 61, 95
4, 202800, Note_off_c, 11, 56, 95
4, 202800, Note_on_c, 11, 68, 63
4, 202802, Note_on_c, 11, 65, 63
4, 202804, Note_on_c, 11, 61, 63
4, 202806, Note_on_c, 11, 56, 63
4, 203040, Note_off_c, 11, 68, 63
4, 203040, Note_off_c, 11, 65, 63
4, 203040, Note_off_c, 11, 61, 63
4, 203040, Note_off_c, 11, 56, 63
4, 203040, Note_on_c, 11, 56, 63
4, 203042, Note_on_c, 11, 61, 63
4, 203044, Note_on_c, 11, 65, 63
4, 203046, Note_on_c, 11, 68, 63
4, 203280, Note_off_c, 11, 68, 63
4, 203280, Note_off_c, 11, 65, 63
4, 203280, Note_off_c, 11, 61, 63
4, 203280, Note_off_c, 11, 56, 63
4, 203280, Note_on_c, 11, 68, 63
4, 203282, Note_on_c, 11, 65, 63
4, 203284, Note_on_c, 11, 61, 63
4, 203286, Note_on_c, 11, 56, 63
4, 203520, Note_off_c, 11, 68, 63
4, 203520, Note_off_c, 11, 65, 63
4, 203520, Note_off_c, 11, 61, 63
4, 203520, Note_off_c, 11, 56, 63
4, 203520, Note_on_c, 11, 54, 95
4, 203522, Note_on_c, 11, 59, 95
4, 203524, Note_on_c, 11, 66, 95
4, 203526, Note_on_c, 11, 71, 95
4, 203760, Note_off_c, 11, 71, 95
4, 203760, Note_off_c, 11, 66, 95
4, 203760, Note_off_c, 11, 59, 95
4, 203760, Note_off_c, 11, 54, 95
4, 203760, Note_on_c, 11, 71, 63
4, 203762, Note_on_c, 11, 66, 63
4, 203764, Note_on_c, 11, 59, 63
4, 203766, Note_on_c, 11, 54, 63
4, 204000, Note_off_c, 11, 71, 63
4, 204000, Note_off_c, 11, 66, 63
4, 204000, Note_off_c, 11, 59, 63
4, 204000, Note_off_c, 11, 54, 63
4, 204000, Note_on_c, 11, 54, 63
4, 204002, Note_on_c, 11, 59, 63
4, 204004, Note_on_c, 11, 66, 63
4, 204006, Note_on_c, 11, 71, 63
4, 204240, Note_off_c, 11, 71, 63
4, 204240, Note_off_c, 11, 66, 63
4, 204240, Note_off_c, 11, 59, 63
4, 204240, Note_off_c, 11, 54, 63
4, 204240, Note_on_c, 11, 71, 63
4, 204242, Note_on_c, 11, 66, 63
4, 204244, Note_on_c, 11, 59, 63
4, 204246, Note_on_c, 11, 54, 63
4, 204480, Note_off_c, 11, 71, 63
4, 204480, Note_off_c, 11, 66, 63
4, 204480, Note_off_c, 11, 59, 63
4, 204480, Note_off_c, 11, 54, 63
4, 204480, Note_on_c, 11, 54, 63
4, 204482, Note_on_c, 11, 59, 63
4, 204484, Note_on_c, 11, 66, 63
4, 204486, Note_on_c, 11, 71, 63
4, 204720, Note_off_c, 11, 71, 63
4, 204720, Note_off_c, 11, 66, 63
4, 204720, Note_off_c, 11, 59, 63
4, 204720, Note_off_c, 11, 54, 63
4, 204720, Note_on_c, 11, 71, 63
4, 204722, Note_on_c, 11, 66, 63
4, 204724, Note_on_c, 11, 59, 63
4, 204726, Note_on_c, 11, 54, 63
4, 204960, Note_off_c, 11, 71, 63
4, 204960, Note_off_c, 11, 66, 63
4, 204960, Note_off_c, 11, 59, 63
4, 204960, Note_off_c, 11, 54, 63
4, 204960, Note_on_c, 11, 54, 63
4, 204962, Note_on_c, 11, 59, 63
4, 204964, Note_on_c, 11, 66, 63
4, 204966, Note_on_c, 11, 71, 63
4, 205200, Note_off_c, 11, 71, 63
4, 205200, Note_off_c, 11, 66, 63
4, 205200, Note_off_c, 11, 59, 63
4, 205200, Note_off_c, 11, 54, 63
4, 205200, Note_on_c, 11, 71, 63
4, 205202, Note_on_c, 11, 66, 63
4, 205204, Note_on_c, 11, 59, 63
4, 205206, Note_on_c, 11, 54, 63
4, 205440, Note_off_c, 11, 71, 63
4, 205440, Note_off_c, 11, 66, 63
4, 205440, Note_off_c, 11, 59, 63
4, 205440, Note_off_c, 11, 54, 63
4, 205680, Note_on_c, 11, 70, 95
4, 205682, Note_on_c, 11, 66, 95
4, 205684, Note_on_c, 11, 61, 95
4, 205920, Note_off_c, 11, 70, 95
4, 205920, Note_off_c, 11, 66, 95
4, 205920, Note_off_c, 11, 61, 95
4, 206160, Note_on_c, 11, 70, 63
4, 206162, Note_on_c, 11, 66, 63
4, 206164, Note_on_c, 11, 61, 63
4, 206400, Note_off_c, 11, 70, 63
4, 206400, Note_off_c, 11, 66, 63
4, 206400, Note_off_c, 11, 61, 63
4, 206400, Note_on_c, 11, 61, 63
4, 206402, Note_on_c, 11, 66, 63
4, 206404, Note_on_c, 11, 70, 63
4, 206640, Note_off_c, 11, 70, 63
4, 206640, Note_off_c, 11, 66, 63
4, 206640, Note_off_c, 11, 61, 63
4, 206640, Note_on_c, 11, 70, 63
4, 206642, Note_on_c, 11, 66, 63
4, 206644, Note_on_c, 11, 61, 63
4, 206880, Note_off_c, 11, 70, 63
4, 206880, Note_off_c, 11, 66, 63
4, 206880, Note_off_c, 11, 61, 63
4, 206880, Note_on_c, 11, 61, 63
4, 206882, Note_on_c, 11, 66, 63
4, 206884, Note_on_c, 11, 70, 63
4, 207120, Note_off_c, 11, 70, 63
4, 207120, Note_off_c, 11, 66, 63
4, 207120, Note_off_c, 11, 61, 63
4, 207120, Note_on_c, 11, 70, 63
4, 207122, Note_on_c, 11, 66, 63
4, 207124, Note_on_c, 11, 61, 63
4, 207360, Note_off_c, 11, 70, 63
4, 207360, Note_off_c, 11, 66, 63
4, 207360, Note_off_c, 11, 61, 63
4, 207360, Note_on_c, 11, 70, 95
4, 207360, Note_on_c, 11, 66, 95
4, 207360, Note_on_c, 11, 61, 95
4, 207360, Note_on_c, 11, 54, 95
4, 207600, Note_off_c, 11, 70, 95
4, 207600, Note_off_c, 11, 66, 95
4, 207600, Note_off_c, 11, 61, 95
4, 207600, Note_off_c, 11, 54, 95
4, 207600, Note_on_c, 11, 70, 63
4, 207602, Note_on_c, 11, 66, 63
4, 207604, Note_on_c, 11, 61, 63
4, 207840, Note_off_c, 11, 70, 63
4, 207840, Note_off_c, 11, 66, 63
4, 207840, Note_off_c, 11, 61, 63
4, 207840, Note_on_c, 11, 70, 63
4, 207840, Note_on_c, 11, 66, 63
4, 207840, Note_on_c, 11, 61, 63
4, 208080, Note_off_c, 11, 70, 63
4, 208080, Note_off_c, 11, 66, 63
4, 208080, Note_off_c, 11, 61, 63
4, 208080, Note_on_c, 11, 70, 63
4, 208082, Note_on_c, 11, 66, 63
4, 208084, Note_on_c, 11, 61, 63
4, 208320, Note_off_c, 11, 70, 63
4, 208320, Note_off_c, 11, 66, 63
4, 208320, Note_off_c, 11, 61, 63
4, 208320, Note_on_c, 11, 61, 63
4, 208322, Note_on_c, 11, 66, 63
4, 208324, Note_on_c, 11, 70, 63
4, 208560, Note_off_c, 11, 70, 63
4, 208560, Note_off_c, 11, 66, 63
4, 208560, Note_off_c, 11, 61, 63
4, 208560, Note_on_c, 11, 70, 63
4, 208562, Note_on_c, 11, 66, 63
4, 208564, Note_on_c, 11, 61, 63
4, 208800, Note_off_c, 11, 70, 63
4, 208800, Note_off_c, 11, 66, 63
4, 208800, Note_off_c, 11, 61, 63
4, 208800, Note_on_c, 11, 61, 63
4, 208802, Note_on_c, 11, 66, 63
4, 208804, Note_on_c, 11, 70, 63
4, 209040, Note_off_c, 11, 70, 63
4, 209040, Note_off_c, 11, 66, 63
4, 209040, Note_off_c, 11, 61, 63
4, 209040, Note_on_c, 11, 70, 63
4, 209042, Note_on_c, 11, 66, 63
4, 209044, Note_on_c, 11, 61, 63
4, 209280, Note_off_c, 11, 70, 63
4, 209280, Note_off_c, 11, 66, 63
4, 209280, Note_off_c, 11, 61, 63
4, 209280, Note_on_c, 11, 54, 95
4, 209282, Note_on_c, 11, 61, 95
4, 209284, Note_on_c, 11, 66, 95
4, 209286, Note_on_c, 11, 70, 95
4, 209520, Note_off_c, 11, 70, 95
4, 209520, Note_off_c, 11, 66, 95
4, 209520, Note_off_c, 11, 61, 95
4, 209520, Note_off_c, 11, 54, 95
4, 209520, Note_on_c, 11, 70, 63
4, 209522, Note_on_c, 11, 66, 63
4, 209524, Note_on_c, 11, 61, 63
4, 209760, Note_off_c, 11, 70, 63
4, 209760, Note_off_c, 11, 66, 63
4, 209760, Note_off_c, 11, 61, 63
4, 209760, Note_on_c, 11, 61, 63
4, 209762, Note_on_c, 11, 66, 63
4, 209764, Note_on_c, 11, 70, 63
4, 210000, Note_off_c, 11, 70, 63
4, 210000, Note_off_c, 11, 66, 63
4, 210000, Note_off_c, 11, 61, 63
4, 210000, Note_on_c, 11, 70, 63
4, 210002, Note_on_c, 11, 66, 63
4, 210004, Note_on_c, 11, 61, 63
4, 210240, Note_off_c, 11, 70, 63
4, 210240, Note_off_c, 11, 66, 63
4, 210240, Note_off_c, 11, 61, 63
4, 210240, Note_on_c, 11, 61, 63
4, 210242, Note_on_c, 11, 66, 63
4, 210244, Note_on_c, 11, 70, 63
4, 210480, Note_off_c, 11, 70, 63
4, 210480, Note_off_c, 11, 66, 63
4, 210480, Note_off_c, 11, 61, 63
4, 210480, Note_on_c, 11, 70, 63
4, 210482, Note_on_c, 11, 66, 63
4, 210484, Note_on_c, 11, 61, 63
4, 210720, Note_off_c, 11, 70, 63
4, 210720, Note_off_c, 11, 66, 63
4, 210720, Note_off_c, 11, 61, 63
4, 210720, Note_on_c, 11, 61, 63
4, 210722, Note_on_c, 11, 66, 63
4, 210724, Note_on_c, 11, 70, 63
4, 210960, Note_off_c, 11, 70, 63
4, 210960, Note_off_c, 11, 66, 63
4, 210960, Note_off_c, 11, 61, 63
4, 210960, Note_on_c, 11, 70, 95
4, 210962, Note_on_c, 11, 64, 95
4, 210964, Note_on_c, 11, 61, 95
4, 211200, Note_off_c, 11, 70, 95
4, 211200, Note_off_c, 11, 64, 95
4, 211200, Note_off_c, 11, 61, 95
4, 211440, Note_on_c, 11, 70, 95
4, 211442, Note_on_c, 11, 64, 95
4, 211444, Note_on_c, 11, 61, 95
4, 211680, Note_off_c, 11, 70, 95
4, 211680, Note_off_c, 11, 64, 95
4, 211680, Note_off_c, 11, 61, 95
4, 211920, Note_on_c, 11, 70, 95
4, 211922, Note_on_c, 11, 64, 95
4, 211924, Note_on_c, 11, 61, 95
4, 212160, Note_off_c, 11, 70, 95
4, 212160, Note_off_c, 11, 64, 95
4, 212160, Note_off_c, 11, 61, 95
4, 212160, Note_on_c, 11, 61, 95
4, 212162, Note_on_c, 11, 64, 95
4, 212164, Note_on_c, 11, 70, 95
4, 212400, Note_off_c, 11, 70, 95
4, 212400, Note_off_c, 11, 64, 95
4, 212400, Note_off_c, 11, 61, 95
4, 212400, Note_on_c, 11, 70, 63
4, 212402, Note_on_c, 11, 64, 63
4, 212404, Note_on_c, 11, 61, 63
4, 212640, Note_off_c, 11, 70, 63
4, 212640, Note_off_c, 11, 64, 63
4, 212640, Note_off_c, 11, 61, 63
4, 212640, Note_on_c, 11, 61, 63
4, 212642, Note_on_c, 11, 64, 63
4, 212644, Note_on_c, 11, 70, 63
4, 212880, Note_off_c, 11, 70, 63
4, 212880, Note_off_c, 11, 64, 63
4, 212880, Note_off_c, 11, 61, 63
4, 212880, Note_on_c, 11, 70, 63
4, 212882, Note_on_c, 11, 64, 63
4, 212884, Note_on_c, 11, 61, 63
4, 213120, Note_off_c, 11, 70, 63
4, 213120, Note_off_c, 11, 64, 63
4, 213120, Note_off_c, 11, 61, 63
4, 213120, Note_on_c, 11, 54, 95
4, 213122, Note_on_c, 11, 61, 95
4, 213124, Note_on_c, 11, 63, 95
4, 213126, Note_on_c, 11, 70, 95
4, 213360, Note_off_c, 11, 70, 95
4, 213360, Note_off_c, 11, 63, 95
4, 213360, Note_off_c, 11, 61, 95
4, 213360, Note_off_c, 11, 54, 95
4, 213360, Note_on_c, 11, 70, 63
4, 213362, Note_on_c, 11, 63, 63
4, 213364, Note_on_c, 11, 61, 63
4, 213600, Note_off_c, 11, 70, 63
4, 213600, Note_off_c, 11, 63, 63
4, 213600, Note_off_c, 11, 61, 63
4, 213600, Note_on_c, 11, 61, 63
4, 213602, Note_on_c, 11, 63, 63
4, 213604, Note_on_c, 11, 70, 63
4, 213840, Note_off_c, 11, 70, 63
4, 213840, Note_off_c, 11, 63, 63
4, 213840, Note_off_c, 11, 61, 63
4, 213840, Note_on_c, 11, 70, 63
4, 213842, Note_on_c, 11, 63, 63
4, 213844, Note_on_c, 11, 61, 63
4, 214080, Note_off_c, 11, 70, 63
4, 214080, Note_off_c, 11, 63, 63
4, 214080, Note_off_c, 11, 61, 63
4, 214080, Note_on_c, 11, 61, 63
4, 214082, Note_on_c, 11, 63, 63
4, 214084, Note_on_c, 11, 70, 63
4, 214320, Note_off_c, 11, 70, 63
4, 214320, Note_off_c, 11, 63, 63
4, 214320, Note_off_c, 11, 61, 63
4, 214320, Note_on_c, 11, 70, 63
4, 214322, Note_on_c, 11, 63, 63
4, 214324, Note_on_c, 11, 61, 63
4, 214560, Note_off_c, 11, 70, 63
4, 214560, Note_off_c, 11, 63, 63
4, 214560, Note_off_c, 11, 61, 63
4, 214560, Note_on_c, 11, 61, 63
4, 214562, Note_on_c, 11, 63, 63
4, 214564, Note_on_c, 11, 70, 63
4, 214800, Note_off_c, 11, 70, 63
4, 214800, Note_off_c, 11, 63, 63
4, 214800, Note_off_c, 11, 61, 63
4, 214800, Note_on_c, 11, 71, 95
4, 214802, Note_on_c, 11, 68, 95
4, 214804, Note_on_c, 11, 62, 95
4, 214806, Note_on_c, 11, 54, 95
4, 215040, Note_off_c, 11, 71, 95
4, 215040, Note_off_c, 11, 68, 95
4, 215040, Note_off_c, 11, 62, 95
4, 215040, Note_off_c, 11, 54, 95
4, 215280, Note_on_c, 11, 71, 95
4, 215282, Note_on_c, 11, 68, 95
4, 215284, Note_on_c, 11, 62, 95
4, 215520, Note_off_c, 11, 71, 95
4, 215520, Note_off_c, 11, 68, 95
4, 215520, Note_off_c, 11, 62, 95
4, 215760, Note_on_c, 11, 71, 95
4, 215762, Note_on_c, 11, 68, 95
4, 215764, Note_on_c, 11, 62, 95
4, 216000, Note_off_c, 11, 71, 95
4, 216000, Note_off_c, 11, 68, 95
4, 216000, Note_off_c, 11, 62, 95
4, 216000, Note_on_c, 11, 62, 95
4, 216002, Note_on_c, 11, 68, 95
4, 216004, Note_on_c, 11, 71, 95
4, 216240, Note_off_c, 11, 71, 95
4, 216240, Note_off_c, 11, 68, 95
4, 216240, Note_off_c, 11, 62, 95
4, 216240, Note_on_c, 11, 71, 63
4, 216242, Note_on_c, 11, 68, 63
4, 216244, Note_on_c, 11, 62, 63
4, 216480, Note_off_c, 11, 71, 63
4, 216480, Note_off_c, 11, 68, 63
4, 216480, Note_off_c, 11, 62, 63
4, 216480, Note_on_c, 11, 62, 63
4, 216482, Note_on_c, 11, 68, 63
4, 216484, Note_on_c, 11, 71, 63
4, 216720, Note_off_c, 11, 71, 63
4, 216720, Note_off_c, 11, 68, 63
4, 216720, Note_off_c, 11, 62, 63
4, 216720, Note_on_c, 11, 71, 63
4, 216722, Note_on_c, 11, 68, 63
4, 216724, Note_on_c, 11, 62, 63
4, 216960, Note_off_c, 11, 71, 63
4, 216960, Note_off_c, 11, 68, 63
4, 216960, Note_off_c, 11, 62, 63
4, 216960, Note_on_c, 11, 54, 95
4, 216962, Note_on_c, 11, 61, 95
4, 216964, Note_on_c, 11, 66, 95
4, 216966, Note_on_c, 11, 70, 95
4, 217200, Note_off_c, 11, 70, 95
4, 217200, Note_off_c, 11, 66, 95
4, 217200, Note_off_c, 11, 61, 95
4, 217200, Note_off_c, 11, 54, 95
4, 217200, Note_on_c, 11, 70, 63
4, 217202, Note_on_c, 11, 66, 63
4, 217204, Note_on_c, 11, 61, 63
4, 217440, Note_off_c, 11, 70, 63
4, 217440, Note_off_c, 11, 66, 63
4, 217440, Note_off_c, 11, 61, 63
4, 217440, Note_on_c, 11, 61, 63
4, 217442, Note_on_c, 11, 66, 63
4, 217444, Note_on_c, 11, 70, 63
4, 217680, Note_off_c, 11, 70, 63
4, 217680, Note_off_c, 11, 66, 63
4, 217680, Note_off_c, 11, 61, 63
4, 217680, Note_on_c, 11, 70, 63
4, 217682, Note_on_c, 11, 66, 63
4, 217684, Note_on_c, 11, 61, 63
4, 217920, Note_off_c, 11, 70, 63
4, 217920, Note_off_c, 11, 66, 63
4, 217920, Note_off_c, 11, 61, 63
4, 217920, Note_on_c, 11, 61, 63
4, 217922, Note_on_c, 11, 66, 63
4, 217924, Note_on_c, 11, 70, 63
4, 218160, Note_off_c, 11, 70, 63
4, 218160, Note_off_c, 11, 66, 63
4, 218160, Note_off_c, 11, 61, 63
4, 218160, Note_on_c, 11, 70, 63
4, 218162, Note_on_c, 11, 66, 63
4, 218164, Note_on_c, 11, 61, 63
4, 218400, Note_off_c, 11, 70, 63
4, 218400, Note_off_c, 11, 66, 63
4, 218400, Note_off_c, 11, 61, 63
4, 218400, Note_on_c, 11, 61, 63
4, 218402, Note_on_c, 11, 66, 63
4, 218404, Note_on_c, 11, 70, 63
4, 218640, Note_off_c, 11, 70, 63
4, 218640, Note_off_c, 11, 66, 63
4, 218640, Note_off_c, 11, 61, 63
4, 218640, Note_on_c, 11, 68, 95
4, 218642, Note_on_c, 11, 65, 95
4, 218644, Note_on_c, 11, 61, 95
4, 218646, Note_on_c, 11, 56, 95
4, 218648, Note_on_c, 11, 49, 95
4, 218880, Note_off_c, 11, 68, 95
4, 218880, Note_off_c, 11, 65, 95
4, 218880, Note_off_c, 11, 61, 95
4, 218880, Note_off_c, 11, 56, 95
4, 218880, Note_off_c, 11, 49, 95
4, 219120, Note_on_c, 11, 68, 95
4, 219122, Note_on_c, 11, 65, 95
4, 219124, Note_on_c, 11, 61, 95
4, 219126, Note_on_c, 11, 56, 95
4, 219360, Note_off_c, 11, 68, 95
4, 219360, Note_off_c, 11, 65, 95
4, 219360, Note_off_c, 11, 61, 95
4, 219360, Note_off_c, 11, 56, 95
4, 219600, Note_on_c, 11, 68, 95
4, 219602, Note_on_c, 11, 65, 95
4, 219604, Note_on_c, 11, 61, 95
4, 219606, Note_on_c, 11, 56, 95
4, 219840, Note_off_c, 11, 68, 95
4, 219840, Note_off_c, 11, 65, 95
4, 219840, Note_off_c, 11, 61, 95
4, 219840, Note_off_c, 11, 56, 95
4, 219840, Note_on_c, 11, 56, 95
4, 219842, Note_on_c, 11, 61, 95
4, 219844, Note_on_c, 11, 65, 95
4, 219846, Note_on_c, 11, 68, 95
4, 220080, Note_off_c, 11, 68, 95
4, 220080, Note_off_c, 11, 65, 95
4, 220080, Note_off_c, 11, 61, 95
4, 220080, Note_off_c, 11, 56, 95
4, 220080, Note_on_c, 11, 68, 63
4, 220082, Note_on_c, 11, 65, 63
4, 220084, Note_on_c, 11, 61, 63
4, 220086, Note_on_c, 11, 56, 63
4, 220320, Note_off_c, 11, 68, 63
4, 220320, Note_off_c, 11, 65, 63
4, 220320, Note_off_c, 11, 61, 63
4, 220320, Note_off_c, 11, 56, 63
4, 220320, Note_on_c, 11, 56, 63
4, 220322, Note_on_c, 11, 61, 63
4, 220324, Note_on_c, 11, 65, 63
4, 220326, Note_on_c, 11, 68, 63
4, 220560, Note_off_c, 11, 68, 63
4, 220560, Note_off_c, 11, 65, 63
4, 220560, Note_off_c, 11, 61, 63
4, 220560, Note_off_c, 11, 56, 63
4, 220560, Note_on_c, 11, 68, 63
4, 220562, Note_on_c, 11, 65, 63
4, 220564, Note_on_c, 11, 61, 63
4, 220566, Note_on_c, 11, 56, 63
4, 220800, Note_off_c, 11, 68, 63
4, 220800, Note_off_c, 11, 65, 63
4, 220800, Note_off_c, 11, 61, 63
4, 220800, Note_off_c, 11, 56, 63
4, 220800, Note_on_c, 11, 54, 95
4, 220802, Note_on_c, 11, 59, 95
4, 220804, Note_on_c, 11, 66, 95
4, 220806, Note_on_c, 11, 71, 95
4, 221040, Note_off_c, 11, 71, 95
4, 221040, Note_off_c, 11, 66, 95
4, 221040, Note_off_c, 11, 59, 95
4, 221040, Note_off_c, 11, 54, 95
4, 221040, Note_on_c, 11, 71, 63
4, 221042, Note_on_c, 11, 66, 63
4, 221044, Note_on_c, 11, 59, 63
4, 221046, Note_on_c, 11, 54, 63
4, 221280, Note_off_c, 11, 71, 63
4, 221280, Note_off_c, 11, 66, 63
4, 221280, Note_off_c, 11, 59, 63
4, 221280, Note_off_c, 11, 54, 63
4, 221280, Note_on_c, 11, 54, 63
4, 221282, Note_on_c, 11, 59, 63
4, 221284, Note_on_c, 11, 66, 63
4, 221286, Note_on_c, 11, 71, 63
4, 221520, Note_off_c, 11, 71, 63
4, 221520, Note_off_c, 11, 66, 63
4, 221520, Note_off_c, 11, 59, 63
4, 221520, Note_off_c, 11, 54, 63
4, 221520, Note_on_c, 11, 71, 63
4, 221522, Note_on_c, 11, 66, 63
4, 221524, Note_on_c, 11, 59, 63
4, 221526, Note_on_c, 11, 54, 63
4, 221760, Note_off_c, 11, 71, 63
4, 221760, Note_off_c, 11, 66, 63
4, 221760, Note_off_c, 11, 59, 63
4, 221760, Note_off_c, 11, 54, 63
4, 221760, Note_on_c, 11, 54, 63
4, 221762, Note_on_c, 11, 59, 63
4, 221764, Note_on_c, 11, 66, 63
4, 221766, Note_on_c, 11, 71, 63
4, 222000, Note_off_c, 11, 71, 63
4, 222000, Note_off_c, 11, 66, 63
4, 222000, Note_off_c, 11, 59, 63
4, 222000, Note_off_c, 11, 54, 63
4, 222000, Note_on_c, 11, 71, 63
4, 222002, Note_on_c, 11, 66, 63
4, 222004, Note_on_c, 11, 59, 63
4, 222006, Note_on_c, 11, 54, 63
4, 222240, Note_off_c, 11, 71, 63
4, 222240, Note_off_c, 11, 66, 63
4, 222240, Note_off_c, 11, 59, 63
4, 222240, Note_off_c, 11, 54, 63
4, 222240, Note_on_c, 11, 54, 63
4, 222242, Note_on_c, 11, 59, 63
4, 222244, Note_on_c, 11, 66, 63
4, 222246, Note_on_c, 11, 71, 63
4, 222480, Note_off_c, 11, 71, 63
4, 222480, Note_off_c, 11, 66, 63
4, 222480, Note_off_c, 11, 59, 63
4, 222480, Note_off_c, 11, 54, 63
4, 222480, Note_on_c, 11, 71, 63
4, 222482, Note_on_c, 11, 66, 63
4, 222484, Note_on_c, 11, 59, 63
4, 222486, Note_on_c, 11, 54, 63
4, 222720, Note_off_c, 11, 71, 63
4, 222720, Note_off_c, 11, 66, 63
4, 222720, Note_off_c, 11, 59, 63
4, 222720, Note_off_c, 11, 54, 63
4, 222960, Note_on_c, 11, 70, 95
4, 222962, Note_on_c, 11, 66, 95
4, 222964, Note_on_c, 11, 61, 95
4, 223200, Note_off_c, 11, 70, 95
4, 223200, Note_off_c, 11, 66, 95
4, 223200, Note_off_c, 11, 61, 95
4, 223440, Note_on_c, 11, 70, 63
4, 223442, Note_on_c, 11, 66, 63
4, 223444, Note_on_c, 11, 61, 63
4, 223680, Note_off_c, 11, 70, 63
4, 223680, Note_off_c, 11, 66, 63
4, 223680, Note_off_c, 11, 61, 63
4, 223680, Note_on_c, 11, 61, 63
4, 223682, Note_on_c, 11, 66, 63
4, 223684, Note_on_c, 11, 70, 63
4, 223920, Note_off_c, 11, 70, 63
4, 223920, Note_off_c, 11, 66, 63
4, 223920, Note_off_c, 11, 61, 63
4, 223920, Note_on_c, 11, 70, 63
4, 223922, Note_on_c, 11, 66, 63
4, 223924, Note_on_c, 11, 61, 63
4, 224160, Note_off_c, 11, 70, 63
4, 224160, Note_off_c, 11, 66, 63
4, 224160, Note_off_c, 11, 61, 63
4, 224160, Note_on_c, 11, 61, 63
4, 224162, Note_on_c, 11, 66, 63
4, 224164, Note_on_c, 11, 70, 63
4, 224400, Note_off_c, 11, 70, 63
4, 224400, Note_off_c, 11, 66, 63
4, 224400, Note_off_c, 11, 61, 63
4, 224400, Note_on_c, 11, 70, 63
4, 224402, Note_on_c, 11, 66, 63
4, 224404, Note_on_c, 11, 61, 63
4, 224640, Note_off_c, 11, 70, 63
4, 224640, Note_off_c, 11, 66, 63
4, 224640, Note_off_c, 11, 61, 63
4, 224640, Note_on_c, 11, 70, 95
4, 224640, Note_on_c, 11, 66, 95
4, 224640, Note_on_c, 11, 61, 95
4, 224640, Note_on_c, 11, 54, 95
4, 224880, Note_off_c, 11, 70, 95
4, 224880, Note_off_c, 11, 66, 95
4, 224880, Note_off_c, 11, 61, 95
4, 224880, Note_off_c, 11, 54, 95
4, 224880, Note_on_c, 11, 70, 63
4, 224882, Note_on_c, 11, 66, 63
4, 224884, Note_on_c, 11, 61, 63
4, 225120, Note_off_c, 11, 70, 63
4, 225120, Note_off_c, 11, 66, 63
4, 225120, Note_off_c, 11, 61, 63
4, 225120, Note_on_c, 11, 70, 63
4, 225120, Note_on_c, 11, 66, 63
4, 225120, Note_on_c, 11, 61, 63
4, 225360, Note_off_c, 11, 70, 63
4, 225360, Note_off_c, 11, 66, 63
4, 225360, Note_off_c, 11, 61, 63
4, 225360, Note_on_c, 11, 70, 63
4, 225362, Note_on_c, 11, 66, 63
4, 225364, Note_on_c, 11, 61, 63
4, 225600, Note_off_c, 11, 70, 63
4, 225600, Note_off_c, 11, 66, 63
4, 225600, Note_off_c, 11, 61, 63
4, 225600, Note_on_c, 11, 61, 63
4, 225602, Note_on_c, 11, 66, 63
4, 225604, Note_on_c, 11, 70, 63
4, 225840, Note_off_c, 11, 70, 63
4, 225840, Note_off_c, 11, 66, 63
4, 225840, Note_off_c, 11, 61, 63
4, 225840, Note_on_c, 11, 70, 63
4, 225842, Note_on_c, 11, 66, 63
4, 225844, Note_on_c, 11, 61, 63
4, 226080, Note_off_c, 11, 70, 63
4, 226080, Note_off_c, 11, 66, 63
4, 226080, Note_off_c, 11, 61, 63
4, 226080, Note_on_c, 11, 61, 63
4, 226082, Note_on_c, 11, 66, 63
4, 226084, Note_on_c, 11, 70, 63
4, 226320, Note_off_c, 11, 70, 63
4, 226320, Note_off_c, 11, 66, 63
4, 226320, Note_off_c, 11, 61, 63
4, 226320, Note_on_c, 11, 70, 63
4, 226322, Note_on_c, 11, 66, 63
4, 226324, Note_on_c, 11, 61, 63
4, 226560, Note_off_c, 11, 70, 63
4, 226560, Note_off_c, 11, 66, 63
4, 226560, Note_off_c, 11, 61, 63
4, 226560, Note_on_c, 11, 54, 95
4, 226575, Note_on_c, 11, 61, 95
4, 226590, Note_on_c, 11, 66, 95
4, 226605, Note_on_c, 11, 70, 95
4, 228480, Note_off_c, 11, 70, 95
4, 228480, Note_off_c, 11, 66, 95
4, 228480, Note_off_c, 11, 61, 95
4, 228480, Note_off_c, 11, 54, 95
4, 228480, Note_on_c, 11, 54, 95
4, 228482, Note_on_c, 11, 61, 95
4, 228484, Note_on_c, 11, 66, 95
4, 228486, Note_on_c, 11, 70, 95
4, 228720, Note_off_c, 11, 70, 95
4, 228720, Note_off_c, 11, 66, 95
4, 228720, Note_off_c, 11, 61, 95
4, 228720, Note_off_c, 11, 54, 95
4, 228720, Note_on_c, 11, 70, 63
4, 228722, Note_on_c, 11, 66, 63
4, 228724, Note_on_c, 11, 61, 63
4, 228960, Note_off_c, 11, 70, 63
4, 228960, Note_off_c, 11, 66, 63
4, 228960, Note_off_c, 11, 61, 63
4, 228960, Note_on_c, 11, 61, 63
4, 228962, Note_on_c, 11, 66, 63
4, 228964, Note_on_c, 11, 70, 63
4, 229200, Note_off_c, 11, 70, 63
4, 229200, Note_off_c, 11, 66, 63
4, 229200, Note_off_c, 11, 61, 63
4, 229200, Note_on_c, 11, 70, 63
4, 229202, Note_on_c, 11, 66, 63
4, 229204, Note_on_c, 11, 61, 63
4, 229440, Note_off_c, 11, 70, 63
4, 229440, Note_off_c, 11, 66, 63
4, 229440, Note_off_c, 11, 61, 63
4, 229440, Note_on_c, 11, 61, 63
4, 229442, Note_on_c, 11, 66, 63
4, 229444, Note_on_c, 11, 70, 63
4, 229680, Note_off_c, 11, 70, 63
4, 229680, Note_off_c, 11, 66, 63
4, 229680, Note_off_c, 11, 61, 63
4, 229680, Note_on_c, 11, 70, 63
4, 229682, Note_on_c, 11, 66, 63
4, 229684, Note_on_c, 11, 61, 63
4, 229920, Note_off_c, 11, 70, 63
4, 229920, Note_off_c, 11, 66, 63
4, 229920, Note_off_c, 11, 61, 63
4, 229920, Note_on_c, 11, 61, 63
4, 229922, Note_on_c, 11, 66, 63
4, 229924, Note_on_c, 11, 70, 63
4, 230160, Note_off_c, 11, 70, 63
4, 230160, Note_off_c, 11, 66, 63
4, 230160, Note_off_c, 11, 61, 63
4, 230160, Note_on_c, 11, 70, 95
4, 230162, Note_on_c, 11, 64, 95
4, 230164, Note_on_c, 11, 61, 95
4, 230400, Note_off_c, 11, 70, 95
4, 230400, Note_off_c, 11, 64, 95
4, 230400, Note_off_c, 11, 61, 95
4, 230640, Note_on_c, 11, 70, 95
4, 230642, Note_on_c, 11, 64, 95
4, 230644, Note_on_c, 11, 61, 95
4, 230880, Note_off_c, 11, 70, 95
4, 230880, Note_off_c, 11, 64, 95
4, 230880, Note_off_c, 11, 61, 95
4, 231120, Note_on_c, 11, 70, 95
4, 231122, Note_on_c, 11, 64, 95
4, 231124, Note_on_c, 11, 61, 95
4, 231360, Note_off_c, 11, 70, 95
4, 231360, Note_off_c, 11, 64, 95
4, 231360, Note_off_c, 11, 61, 95
4, 231360, Note_on_c, 11, 61, 95
4, 231362, Note_on_c, 11, 64, 95
4, 231364, Note_on_c, 11, 70, 95
4, 231600, Note_off_c, 11, 70, 95
4, 231600, Note_off_c, 11, 64, 95
4, 231600, Note_off_c, 11, 61, 95
4, 231600, Note_on_c, 11, 70, 63
4, 231602, Note_on_c, 11, 64, 63
4, 231604, Note_on_c, 11, 61, 63
4, 231840, Note_off_c, 11, 70, 63
4, 231840, Note_off_c, 11, 64, 63
4, 231840, Note_off_c, 11, 61, 63
4, 231840, Note_on_c, 11, 61, 63
4, 231842, Note_on_c, 11, 64, 63
4, 231844, Note_on_c, 11, 70, 63
4, 232080, Note_off_c, 11, 70, 63
4, 232080, Note_off_c, 11, 64, 63
4, 232080, Note_off_c, 11, 61, 63
4, 232080, Note_on_c, 11, 70, 63
4, 232082, Note_on_c, 11, 64, 63
4, 232084, Note_on_c, 11, 61, 63
4, 232320, Note_off_c, 11, 70, 63
4, 232320, Note_off_c, 11, 64, 63
4, 232320, Note_off_c, 11, 61, 63
4, 232320, Note_on_c, 11, 54, 95
4, 232322, Note_on_c, 11, 61, 95
4, 232324, Note_on_c, 11, 63, 95
4, 232326, Note_on_c, 11, 70, 95
4, 232560, Note_off_c, 11, 70, 95
4, 232560, Note_off_c, 11, 63, 95
4, 232560, Note_off_c, 11, 61, 95
4, 232560, Note_off_c, 11, 54, 95
4, 232560, Note_on_c, 11, 70, 63
4, 232562, Note_on_c, 11, 63, 63
4, 232564, Note_on_c, 11, 61, 63
4, 232800, Note_off_c, 11, 70, 63
4, 232800, Note_off_c, 11, 63, 63
4, 232800, Note_off_c, 11, 61, 63
4, 232800, Note_on_c, 11, 61, 63
4, 232802, Note_on_c, 11, 63, 63
4, 232804, Note_on_c, 11, 70, 63
4, 233040, Note_off_c, 11, 70, 63
4, 233040, Note_off_c, 11, 63, 63
4, 233040, Note_off_c, 11, 61, 63
4, 233040, Note_on_c, 11, 70, 63
4, 233042, Note_on_c, 11, 63, 63
4, 233044, Note_on_c, 11, 61, 63
4, 233280, Note_off_c, 11, 70, 63
4, 233280, Note_off_c, 11, 63, 63
4, 233280, Note_off_c, 11, 61, 63
4, 233280, Note_on_c, 11, 61, 63
4, 233282, Note_on_c, 11, 63, 63
4, 233284, Note_on_c, 11, 70, 63
4, 233520, Note_off_c, 11, 70, 63
4, 233520, Note_off_c, 11, 63, 63
4, 233520, Note_off_c, 11, 61, 63
4, 233520, Note_on_c, 11, 70, 63
4, 233522, Note_on_c, 11, 63, 63
4, 233524, Note_on_c, 11, 61, 63
4, 233760, Note_off_c, 11, 70, 63
4, 233760, Note_off_c, 11, 63, 63
4, 233760, Note_off_c, 11, 61, 63
4, 233760, Note_on_c, 11, 61, 63
4, 233762, Note_on_c, 11, 63, 63
4, 233764, Note_on_c, 11, 70, 63
4, 234000, Note_off_c, 11, 70, 63
4, 234000, Note_off_c, 11, 63, 63
4, 234000, Note_off_c, 11, 61, 63
4, 234000, Note_on_c, 11, 71, 95
4, 234002, Note_on_c, 11, 68, 95
4, 234004, Note_on_c, 11, 62, 95
4, 234006, Note_on_c, 11, 54, 95
4, 234240, Note_off_c, 11, 71, 95
4, 234240, Note_off_c, 11, 68, 95
4, 234240, Note_off_c, 11, 62, 95
4, 234240, Note_off_c, 11, 54, 95
4, 234480, Note_on_c, 11, 71, 95
4, 234482, Note_on_c, 11, 68, 95
4, 234484, Note_on_c, 11, 62, 95
4, 234720, Note_off_c, 11, 71, 95
4, 234720, Note_off_c, 11, 68, 95
4, 234720, Note_off_c, 11, 62, 95
4, 234960, Note_on_c, 11, 71, 95
4, 234962, Note_on_c, 11, 68, 95
4, 234964, Note_on_c, 11, 62, 95
4, 235200, Note_off_c, 11, 71, 95
4, 235200, Note_off_c, 11, 68, 95
4, 235200, Note_off_c, 11, 62, 95
4, 235200, Note_on_c, 11, 62, 95
4, 235202, Note_on_c, 11, 68, 95
4, 235204, Note_on_c, 11, 71, 95
4, 235440, Note_off_c, 11, 71, 95
4, 235440, Note_off_c, 11, 68, 95
4, 235440, Note_off_c, 11, 62, 95
4, 235440, Note_on_c, 11, 71, 63
4, 235442, Note_on_c, 11, 68, 63
4, 235444, Note_on_c, 11, 62, 63
4, 235680, Note_off_c, 11, 71, 63
4, 235680, Note_off_c, 11, 68, 63
4, 235680, Note_off_c, 11, 62, 63
4, 235680, Note_on_c, 11, 62, 63
4, 235682, Note_on_c, 11, 68, 63
4, 235684, Note_on_c, 11, 71, 63
4, 235920, Note_off_c, 11, 71, 63
4, 235920, Note_off_c, 11, 68, 63
4, 235920, Note_off_c, 11, 62, 63
4, 235920, Note_on_c, 11, 71, 63
4, 235922, Note_on_c, 11, 68, 63
4, 235924, Note_on_c, 11, 62, 63
4, 236160, Note_off_c, 11, 71, 63
4, 236160, Note_off_c, 11, 68, 63
4, 236160, Note_off_c, 11, 62, 63
4, 236160, Note_on_c, 11, 54, 95
4, 236162, Note_on_c, 11, 61, 95
4, 236164, Note_on_c, 11, 66, 95
4, 236166, Note_on_c, 11, 70, 95
4, 236400, Note_off_c, 11, 70, 95
4, 236400, Note_off_c, 11, 66, 95
4, 236400, Note_off_c, 11, 61, 95
4, 236400, Note_off_c, 11, 54, 95
4, 236400, Note_on_c, 11, 70, 63
4, 236402, Note_on_c, 11, 66, 63
4, 236404, Note_on_c, 11, 61, 63
4, 236640, Note_off_c, 11, 70, 63
4, 236640, Note_off_c, 11, 66, 63
4, 236640, Note_off_c, 11, 61, 63
4, 236640, Note_on_c, 11, 61, 63
4, 236642, Note_on_c, 11, 66, 63
4, 236644, Note_on_c, 11, 70, 63
4, 236880, Note_off_c, 11, 70, 63
4, 236880, Note_off_c, 11, 66, 63
4, 236880, Note_off_c, 11, 61, 63
4, 236880, Note_on_c, 11, 70, 63
4, 236882, Note_on_c, 11, 66, 63
4, 236884, Note_on_c, 11, 61, 63
4, 237120, Note_off_c, 11, 70, 63
4, 237120, Note_off_c, 11, 66, 63
4, 237120, Note_off_c, 11, 61, 63
4, 237120, Note_on_c, 11, 61, 63
4, 237122, Note_on_c, 11, 66, 63
4, 237124, Note_on_c, 11, 70, 63
4, 237360, Note_off_c, 11, 70, 63
4, 237360, Note_off_c, 11, 66, 63
4, 237360, Note_off_c, 11, 61, 63
4, 237360, Note_on_c, 11, 70, 63
4, 237362, Note_on_c, 11, 66, 63
4, 237364, Note_on_c, 11, 61, 63
4, 237600, Note_off_c, 11, 70, 63
4, 237600, Note_off_c, 11, 66, 63
4, 237600, Note_off_c, 11, 61, 63
4, 237600, Note_on_c, 11, 61, 63
4, 237602, Note_on_c, 11, 66, 63
4, 237604, Note_on_c, 11, 70, 63
4, 237840, Note_off_c, 11, 70, 63
4, 237840, Note_off_c, 11, 66, 63
4, 237840, Note_off_c, 11, 61, 63
4, 237840, Note_on_c, 11, 68, 95
4, 237842, Note_on_c, 11, 65, 95
4, 237844, Note_on_c, 11, 61, 95
4, 237846, Note_on_c, 11, 56, 95
4, 237848, Note_on_c, 11, 49, 95
4, 238080, Note_off_c, 11, 68, 95
4, 238080, Note_off_c, 11, 65, 95
4, 238080, Note_off_c, 11, 61, 95
4, 238080, Note_off_c, 11, 56, 95
4, 238080, Note_off_c, 11, 49, 95
4, 238320, Note_on_c, 11, 68, 95
4, 238322, Note_on_c, 11, 65, 95
4, 238324, Note_on_c, 11, 61, 95
4, 238326, Note_on_c, 11, 56, 95
4, 238560, Note_off_c, 11, 68, 95
4, 238560, Note_off_c, 11, 65, 95
4, 238560, Note_off_c, 11, 61, 95
4, 238560, Note_off_c, 11, 56, 95
4, 238800, Note_on_c, 11, 68, 95
4, 238802, Note_on_c, 11, 65, 95
4, 238804, Note_on_c, 11, 61, 95
4, 238806, Note_on_c, 11, 56, 95
4, 239040, Note_off_c, 11, 68, 95
4, 239040, Note_off_c, 11, 65, 95
4, 239040, Note_off_c, 11, 61, 95
4, 239040, Note_off_c, 11, 56, 95
4, 239040, Note_on_c, 11, 56, 95
4, 239042, Note_on_c, 11, 61, 95
4, 239044, Note_on_c, 11, 65, 95
4, 239046, Note_on_c, 11, 68, 95
4, 239280, Note_off_c, 11, 68, 95
4, 239280, Note_off_c, 11, 65, 95
4, 239280, Note_off_c, 11, 61, 95
4, 239280, Note_off_c, 11, 56, 95
4, 239280, Note_on_c, 11, 68, 63
4, 239282, Note_on_c, 11, 65, 63
4, 239284, Note_on_c, 11, 61, 63
4, 239286, Note_on_c, 11, 56, 63
4, 239520, Note_off_c, 11, 68, 63
4, 239520, Note_off_c, 11, 65, 63
4, 239520, Note_off_c, 11, 61, 63
4, 239520, Note_off_c, 11, 56, 63
4, 239520, Note_on_c, 11, 56, 63
4, 239522, Note_on_c, 11, 61, 63
4, 239524, Note_on_c, 11, 65, 63
4, 239526, Note_on_c, 11, 68, 63
4, 239760, Note_off_c, 11, 68, 63
4, 239760, Note_off_c, 11, 65, 63
4, 239760, Note_off_c, 11, 61, 63
4, 239760, Note_off_c, 11, 56, 63
4, 239760, Note_on_c, 11, 68, 63
4, 239762, Note_on_c, 11, 65, 63
4, 239764, Note_on_c, 11, 61, 63
4, 239766, Note_on_c, 11, 56, 63
4, 240000, Note_off_c, 11, 68, 63
4, 240000, Note_off_c, 11, 65, 63
4, 240000, Note_off_c, 11, 61, 63
4, 240000, Note_off_c, 11, 56, 63
4, 240000, Note_on_c, 11, 54, 95
4, 240002, Note_on_c, 11, 59, 95
4, 240004, Note_on_c, 11, 66, 95
4, 240006, Note_on_c, 11, 71, 95
4, 240240, Note_off_c, 11, 71, 95
4, 240240, Note_off_c, 11, 66, 95
4, 240240, Note_off_c, 11, 59, 95
4, 240240, Note_off_c, 11, 54, 95
4, 240240, Note_on_c, 11, 71, 63
4, 240242, Note_on_c, 11, 66, 63
4, 240244, Note_on_c, 11, 59, 63
4, 240246, Note_on_c, 11, 54, 63
4, 240480, Note_off_c, 11, 71, 63
4, 240480, Note_off_c, 11, 66, 63
4, 240480, Note_off_c, 11, 59, 63
4, 240480, Note_off_c, 11, 54, 63
4, 240480, Note_on_c, 11, 54, 63
4, 240482, Note_on_c, 11, 59, 63
4, 240484, Note_on_c, 11, 66, 63
4, 240486, Note_on_c, 11, 71, 63
4, 240720, Note_off_c, 11, 71, 63
4, 240720, Note_off_c, 11, 66, 63
4, 240720, Note_off_c, 11, 59, 63
4, 240720, Note_off_c, 11, 54, 63
4, 240720, Note_on_c, 11, 71, 63
4, 240722, Note_on_c, 11, 66, 63
4, 240724, Note_on_c, 11, 59, 63
4, 240726, Note_on_c, 11, 54, 63
4, 240960, Note_off_c, 11, 71, 63
4, 240960, Note_off_c, 11, 66, 63
4, 240960, Note_off_c, 11, 59, 63
4, 240960, Note_off_c, 11, 54, 63
4, 240960, Note_on_c, 11, 54, 63
4, 240962, Note_on_c, 11, 59, 63
4, 240964, Note_on_c, 11, 66, 63
4, 240966, Note_on_c, 11, 71, 63
4, 241200, Note_off_c, 11, 71, 63
4, 241200, Note_off_c, 11, 66, 63
4, 241200, Note_off_c, 11, 59, 63
4, 241200, Note_off_c, 11, 54, 63
4, 241200, Note_on_c, 11, 71, 63
4, 241202, Note_on_c, 11, 66, 63
4, 241204, Note_on_c, 11, 59, 63
4, 241206, Note_on_c, 11, 54, 63
4, 241440, Note_off_c, 11, 71, 63
4, 241440, Note_off_c, 11, 66, 63
4, 241440, Note_off_c, 11, 59, 63
4, 241440, Note_off_c, 11, 54, 63
4, 241440, Note_on_c, 11, 54, 63
4, 241442, Note_on_c, 11, 59, 63
4, 241444, Note_on_c, 11, 66, 63
4, 241446, Note_on_c, 11, 71, 63
4, 241680, Note_off_c, 11, 71, 63
4, 241680, Note_off_c, 11, 66, 63
4, 241680, Note_off_c, 11, 59, 63
4, 241680, Note_off_c, 11, 54, 63
4, 241680, Note_on_c, 11, 70, 95
4, 241682, Note_on_c, 11, 66, 95
4, 241684, Note_on_c, 11, 61, 95
4, 241686, Note_on_c, 11, 54, 95
4, 241920, Note_off_c, 11, 70, 95
4, 241920, Note_off_c, 11, 66, 95
4, 241920, Note_off_c, 11, 61, 95
4, 241920, Note_off_c, 11, 54, 95
4, 242160, Note_on_c, 11, 70, 95
4, 242162, Note_on_c, 11, 66, 95
4, 242164, Note_on_c, 11, 61, 95
4, 242400, Note_off_c, 11, 70, 95
4, 242400, Note_off_c, 11, 66, 95
4, 242400, Note_off_c, 11, 61, 95
4, 242640, Note_on_c, 11, 70, 95
4, 242642, Note_on_c, 11, 66, 95
4, 242644, Note_on_c, 11, 61, 95
4, 242880, Note_off_c, 11, 70, 95
4, 242880, Note_off_c, 11, 66, 95
4, 242880, Note_off_c, 11, 61, 95
4, 242880, Note_on_c, 11, 61, 95
4, 242882, Note_on_c, 11, 66, 95
4, 242884, Note_on_c, 11, 70, 95
4, 243120, Note_off_c, 11, 70, 95
4, 243120, Note_off_c, 11, 66, 95
4, 243120, Note_off_c, 11, 61, 95
4, 243120, Note_on_c, 11, 70, 63
4, 243122, Note_on_c, 11, 66, 63
4, 243124, Note_on_c, 11, 61, 63
4, 243360, Note_off_c, 11, 70, 63
4, 243360, Note_off_c, 11, 66, 63
4, 243360, Note_off_c, 11, 61, 63
4, 243360, Note_on_c, 11, 61, 63
4, 243362, Note_on_c, 11, 66, 63
4, 243364, Note_on_c, 11, 70, 63
4, 243600, Note_off_c, 11, 70, 63
4, 243600, Note_off_c, 11, 66, 63
4, 243600, Note_off_c, 11, 61, 63
4, 243600, Note_on_c, 11, 70, 63
4, 243602, Note_on_c, 11, 66, 63
4, 243604, Note_on_c, 11, 61, 63
4, 243840, Note_off_c, 11, 70, 63
4, 243840, Note_off_c, 11, 66, 63
4, 243840, Note_off_c, 11, 61, 63
4, 243840, Note_on_c, 11, 54, 95
4, 243842, Note_on_c, 11, 61, 95
4, 243844, Note_on_c, 11, 66, 95
4, 243846, Note_on_c, 11, 70, 95
4, 244080, Note_off_c, 11, 70, 95
4, 244080, Note_off_c, 11, 66, 95
4, 244080, Note_off_c, 11, 61, 95
4, 244080, Note_off_c, 11, 54, 95
4, 244080, Note_on_c, 11, 70, 63
4, 244082, Note_on_c, 11, 66, 63
4, 244084, Note_on_c, 11, 61, 63
4, 244320, Note_off_c, 11, 70, 63
4, 244320, Note_off_c, 11, 66, 63
4, 244320, Note_off_c, 11, 61, 63
4, 244320, Note_on_c, 11, 61, 63
4, 244322, Note_on_c, 11, 66, 63
4, 244324, Note_on_c, 11, 70, 63
4, 244560, Note_off_c, 11, 70, 63
4, 244560, Note_off_c, 11, 66, 63
4, 244560, Note_off_c, 11, 61, 63
4, 244560, Note_on_c, 11, 70, 63
4, 244562, Note_on_c, 11, 66, 63
4, 244564, Note_on_c, 11, 61, 63
4, 244800, Note_off_c, 11, 70, 63
4, 244800, Note_off_c, 11, 66, 63
4, 244800, Note_off_c, 11, 61, 63
4, 244800, Note_on_c, 11, 61, 63
4, 244802, Note_on_c, 11, 66, 63
4, 244804, Note_on_c, 11, 70, 63
4, 245040, Note_off_c, 11, 70, 63
4, 245040, Note_off_c, 11, 66, 63
4, 245040, Note_off_c, 11, 61, 63
4, 245040, Note_on_c, 11, 70, 63
4, 245042, Note_on_c, 11, 66, 63
4, 245044, Note_on_c, 11, 61, 63
4, 245280, Note_off_c, 11, 70, 63
4, 245280, Note_off_c, 11, 66, 63
4, 245280, Note_off_c, 11, 61, 63
4, 245280, Note_on_c, 11, 61, 63
4, 245282, Note_on_c, 11, 66, 63
4, 245284, Note_on_c, 11, 70, 63
4, 245520, Note_off_c, 11, 70, 63
4, 245520, Note_off_c, 11, 66, 63
4, 245520, Note_off_c, 11, 61, 63
4, 245520, Note_on_c, 11, 70, 95
4, 245522, Note_on_c, 11, 64, 95
4, 245524, Note_on_c, 11, 61, 95
4, 245760, Note_off_c, 11, 70, 95
4, 245760, Note_off_c, 11, 64, 95
4, 245760, Note_off_c, 11, 61, 95
4, 246000, Note_on_c, 11, 70, 95
4, 246002, Note_on_c, 11, 64, 95
4, 246004, Note_on_c, 11, 61, 95
4, 246240, Note_off_c, 11, 70, 95
4, 246240, Note_off_c, 11, 64, 95
4, 246240, Note_off_c, 11, 61, 95
4, 246480, Note_on_c, 11, 70, 95
4, 246482, Note_on_c, 11, 64, 95
4, 246484, Note_on_c, 11, 61, 95
4, 246720, Note_off_c, 11, 70, 95
4, 246720, Note_off_c, 11, 64, 95
4, 246720, Note_off_c, 11, 61, 95
4, 246720, Note_on_c, 11, 61, 95
4, 246722, Note_on_c, 11, 64, 95
4, 246724, Note_on_c, 11, 70, 95
4, 246960, Note_off_c, 11, 70, 95
4, 246960, Note_off_c, 11, 64, 95
4, 246960, Note_off_c, 11, 61, 95
4, 246960, Note_on_c, 11, 70, 63
4, 246962, Note_on_c, 11, 64, 63
4, 246964, Note_on_c, 11, 61, 63
4, 247200, Note_off_c, 11, 70, 63
4, 247200, Note_off_c, 11, 64, 63
4, 247200, Note_off_c, 11, 61, 63
4, 247200, Note_on_c, 11, 61, 63
4, 247202, Note_on_c, 11, 64, 63
4, 247204, Note_on_c, 11, 70, 63
4, 247440, Note_off_c, 11, 70, 63
4, 247440, Note_off_c, 11, 64, 63
4, 247440, Note_off_c, 11, 61, 63
4, 247440, Note_on_c, 11, 70, 63
4, 247442, Note_on_c, 11, 64, 63
4, 247444, Note_on_c, 11, 61, 63
4, 247680, Note_off_c, 11, 70, 63
4, 247680, Note_off_c, 11, 64, 63
4, 247680, Note_off_c, 11, 61, 63
4, 247680, Note_on_c, 11, 54, 95
4, 247682, Note_on_c, 11, 61, 95
4, 247684, Note_on_c, 11, 63, 95
4, 247686, Note_on_c, 11, 70, 95
4, 247920, Note_off_c, 11, 70, 95
4, 247920, Note_off_c, 11, 63, 95
4, 247920, Note_off_c, 11, 61, 95
4, 247920, Note_off_c, 11, 54, 95
4, 247920, Note_on_c, 11, 70, 63
4, 247922, Note_on_c, 11, 63, 63
4, 247924, Note_on_c, 11, 61, 63
4, 248160, Note_off_c, 11, 70, 63
4, 248160, Note_off_c, 11, 63, 63
4, 248160, Note_off_c, 11, 61, 63
4, 248160, Note_on_c, 11, 61, 63
4, 248162, Note_on_c, 11, 63, 63
4, 248164, Note_on_c, 11, 70, 63
4, 248400, Note_off_c, 11, 70, 63
4, 248400, Note_off_c, 11, 63, 63
4, 248400, Note_off_c, 11, 61, 63
4, 248400, Note_on_c, 11, 70, 63
4, 248402, Note_on_c, 11, 63, 63
4, 248404, Note_on_c, 11, 61, 63
4, 248640, Note_off_c, 11, 70, 63
4, 248640, Note_off_c, 11, 63, 63
4, 248640, Note_off_c, 11, 61, 63
4, 248640, Note_on_c, 11, 61, 63
4, 248642, Note_on_c, 11, 63, 63
4, 248644, Note_on_c, 11, 70, 63
4, 248880, Note_off_c, 11, 70, 63
4, 248880, Note_off_c, 11, 63, 63
4, 248880, Note_off_c, 11, 61, 63
4, 248880, Note_on_c, 11, 70, 63
4, 248882, Note_on_c, 11, 63, 63
4, 248884, Note_on_c, 11, 61, 63
4, 249120, Note_off_c, 11, 70, 63
4, 249120, Note_off_c, 11, 63, 63
4, 249120, Note_off_c, 11, 61, 63
4, 249120, Note_on_c, 11, 61, 63
4, 249122, Note_on_c, 11, 63, 63
4, 249124, Note_on_c, 11, 70, 63
4, 249360, Note_off_c, 11, 70, 63
4, 249360, Note_off_c, 11, 63, 63
4, 249360, Note_off_c, 11, 61, 63
4, 249360, Note_on_c, 11, 71, 95
4, 249362, Note_on_c, 11, 68, 95
4, 249364, Note_on_c, 11, 62, 95
4, 249366, Note_on_c, 11, 54, 95
4, 249600, Note_off_c, 11, 71, 95
4, 249600, Note_off_c, 11, 68, 95
4, 249600, Note_off_c, 11, 62, 95
4, 249600, Note_off_c, 11, 54, 95
4, 249840, Note_on_c, 11, 71, 95
4, 249842, Note_on_c, 11, 68, 95
4, 249844, Note_on_c, 11, 62, 95
4, 250080, Note_off_c, 11, 71, 95
4, 250080, Note_off_c, 11, 68, 95
4, 250080, Note_off_c, 11, 62, 95
4, 250320, Note_on_c, 11, 71, 95
4, 250322, Note_on_c, 11, 68, 95
4, 250324, Note_on_c, 11, 62, 95
4, 250560, Note_off_c, 11, 71, 95
4, 250560, Note_off_c, 11, 68, 95
4, 250560, Note_off_c, 11, 62, 95
4, 250560, Note_on_c, 11, 62, 95
4, 250562, Note_on_c, 11, 68, 95
4, 250564, Note_on_c, 11, 71, 95
4, 250800, Note_off_c, 11, 71, 95
4, 250800, Note_off_c, 11, 68, 95
4, 250800, Note_off_c, 11, 62, 95
4, 250800, Note_on_c, 11, 71, 63
4, 250802, Note_on_c, 11, 68, 63
4, 250804, Note_on_c, 11, 62, 63
4, 251040, Note_off_c, 11, 71, 63
4, 251040, Note_off_c, 11, 68, 63
4, 251040, Note_off_c, 11, 62, 63
4, 251040, Note_on_c, 11, 62, 63
4, 251042, Note_on_c, 11, 68, 63
4, 251044, Note_on_c, 11, 71, 63
4, 251280, Note_off_c, 11, 71, 63
4, 251280, Note_off_c, 11, 68, 63
4, 251280, Note_off_c, 11, 62, 63
4, 251280, Note_on_c, 11, 71, 63
4, 251282, Note_on_c, 11, 68, 63
4, 251284, Note_on_c, 11, 62, 63
4, 251520, Note_off_c, 11, 71, 63
4, 251520, Note_off_c, 11, 68, 63
4, 251520, Note_off_c, 11, 62, 63
4, 251520, Note_on_c, 11, 54, 95
4, 251522, Note_on_c, 11, 61, 95
4, 251524, Note_on_c, 11, 66, 95
4, 251526, Note_on_c, 11, 70, 95
4, 251760, Note_off_c, 11, 70, 95
4, 251760, Note_off_c, 11, 66, 95
4, 251760, Note_off_c, 11, 61, 95
4, 251760, Note_off_c, 11, 54, 95
4, 251760, Note_on_c, 11, 70, 63
4, 251762, Note_on_c, 11, 66, 63
4, 251764, Note_on_c, 11, 61, 63
4, 252000, Note_off_c, 11, 70, 63
4, 252000, Note_off_c, 11, 66, 63
4, 252000, Note_off_c, 11, 61, 63
4, 252000, Note_on_c, 11, 61, 63
4, 252002, Note_on_c, 11, 66, 63
4, 252004, Note_on_c, 11, 70, 63
4, 252240, Note_off_c, 11, 70, 63
4, 252240, Note_off_c, 11, 66, 63
4, 252240, Note_off_c, 11, 61, 63
4, 252240, Note_on_c, 11, 70, 63
4, 252242, Note_on_c, 11, 66, 63
4, 252244, Note_on_c, 11, 61, 63
4, 252480, Note_off_c, 11, 70, 63
4, 252480, Note_off_c, 11, 66, 63
4, 252480, Note_off_c, 11, 61, 63
4, 252480, Note_on_c, 11, 61, 63
4, 252482, Note_on_c, 11, 66, 63
4, 252484, Note_on_c, 11, 70, 63
4, 252720, Note_off_c, 11, 70, 63
4, 252720, Note_off_c, 11, 66, 63
4, 252720, Note_off_c, 11, 61, 63
4, 252720, Note_on_c, 11, 70, 63
4, 252722, Note_on_c, 11, 66, 63
4, 252724, Note_on_c, 11, 61, 63
4, 252960, Note_off_c, 11, 70, 63
4, 252960, Note_off_c, 11, 66, 63
4, 252960, Note_off_c, 11, 61, 63
4, 252960, Note_on_c, 11, 61, 63
4, 252962, Note_on_c, 11, 66, 63
4, 252964, Note_on_c, 11, 70, 63
4, 253200, Note_off_c, 11, 70, 63
4, 253200, Note_off_c, 11, 66, 63
4, 253200, Note_off_c, 11, 61, 63
4, 253200, Note_on_c, 11, 68, 95
4, 253202, Note_on_c, 11, 65, 95
4, 253204, Note_on_c, 11, 61, 95
4, 253206, Note_on_c, 11, 56, 95
4, 253208, Note_on_c, 11, 49, 95
4, 253440, Note_off_c, 11, 68, 95
4, 253440, Note_off_c, 11, 65, 95
4, 253440, Note_off_c, 11, 61, 95
4, 253440, Note_off_c, 11, 56, 95
4, 253440, Note_off_c, 11, 49, 95
4, 253680, Note_on_c, 11, 68, 95
4, 253682, Note_on_c, 11, 65, 95
4, 253684, Note_on_c, 11, 61, 95
4, 253686, Note_on_c, 11, 56, 95
4, 253920, Note_off_c, 11, 68, 95
4, 253920, Note_off_c, 11, 65, 95
4, 253920, Note_off_c, 11, 61, 95
4, 253920, Note_off_c, 11, 56, 95
4, 254160, Note_on_c, 11, 68, 95
4, 254162, Note_on_c, 11, 65, 95
4, 254164, Note_on_c, 11, 61, 95
4, 254166, Note_on_c, 11, 56, 95
4, 254400, Note_off_c, 11, 68, 95
4, 254400, Note_off_c, 11, 65, 95
4, 254400, Note_off_c, 11, 61, 95
4, 254400, Note_off_c, 11, 56, 95
4, 254400, Note_on_c, 11, 56, 95
4, 254402, Note_on_c, 11, 61, 95
4, 254404, Note_on_c, 11, 65, 95
4, 254406, Note_on_c, 11, 68, 95
4, 254640, Note_off_c, 11, 68, 95
4, 254640, Note_off_c, 11, 65, 95
4, 254640, Note_off_c, 11, 61, 95
4, 254640, Note_off_c, 11, 56, 95
4, 254640, Note_on_c, 11, 68, 63
4, 254642, Note_on_c, 11, 65, 63
4, 254644, Note_on_c, 11, 61, 63
4, 254646, Note_on_c, 11, 56, 63
4, 254880, Note_off_c, 11, 68, 63
4, 254880, Note_off_c, 11, 65, 63
4, 254880, Note_off_c, 11, 61, 63
4, 254880, Note_off_c, 11, 56, 63
4, 254880, Note_on_c, 11, 56, 63
4, 254882, Note_on_c, 11, 61, 63
4, 254884, Note_on_c, 11, 65, 63
4, 254886, Note_on_c, 11, 68, 63
4, 255120, Note_off_c, 11, 68, 63
4, 255120, Note_off_c, 11, 65, 63
4, 255120, Note_off_c, 11, 61, 63
4, 255120, Note_off_c, 11, 56, 63
4, 255120, Note_on_c, 11, 68, 63
4, 255122, Note_on_c, 11, 65, 63
4, 255124, Note_on_c, 11, 61, 63
4, 255126, Note_on_c, 11, 56, 63
4, 255360, Note_off_c, 11, 68, 63
4, 255360, Note_off_c, 11, 65, 63
4, 255360, Note_off_c, 11, 61, 63
4, 255360, Note_off_c, 11, 56, 63
4, 255360, Note_on_c, 11, 54, 95
4, 255362, Note_on_c, 11, 59, 95
4, 255364, Note_on_c, 11, 66, 95
4, 255366, Note_on_c, 11, 71, 95
4, 255600, Note_off_c, 11, 71, 95
4, 255600, Note_off_c, 11, 66, 95
4, 255600, Note_off_c, 11, 59, 95
4, 255600, Note_off_c, 11, 54, 95
4, 255600, Note_on_c, 11, 71, 63
4, 255602, Note_on_c, 11, 66, 63
4, 255604, Note_on_c, 11, 59, 63
4, 255606, Note_on_c, 11, 54, 63
4, 255840, Note_off_c, 11, 71, 63
4, 255840, Note_off_c, 11, 66, 63
4, 255840, Note_off_c, 11, 59, 63
4, 255840, Note_off_c, 11, 54, 63
4, 255840, Note_on_c, 11, 54, 63
4, 255842, Note_on_c, 11, 59, 63
4, 255844, Note_on_c, 11, 66, 63
4, 255846, Note_on_c, 11, 71, 63
4, 256080, Note_off_c, 11, 71, 63
4, 256080, Note_off_c, 11, 66, 63
4, 256080, Note_off_c, 11, 59, 63
4, 256080, Note_off_c, 11, 54, 63
4, 256080, Note_on_c, 11, 71, 63
4, 256082, Note_on_c, 11, 66, 63
4, 256084, Note_on_c, 11, 59, 63
4, 256086, Note_on_c, 11, 54, 63
4, 256320, Note_off_c, 11, 71, 63
4, 256320, Note_off_c, 11, 66, 63
4, 256320, Note_off_c, 11, 59, 63
4, 256320, Note_off_c, 11, 54, 63
4, 256320, Note_on_c, 11, 54, 63
4, 256322, Note_on_c, 11, 59, 63
4, 256324, Note_on_c, 11, 66, 63
4, 256326, Note_on_c, 11, 71, 63
4, 256560, Note_off_c, 11, 71, 63
4, 256560, Note_off_c, 11, 66, 63
4, 256560, Note_off_c, 11, 59, 63
4, 256560, Note_off_c, 11, 54, 63
4, 256560, Note_on_c, 11, 71, 63
4, 256562, Note_on_c, 11, 66, 63
4, 256564, Note_on_c, 11, 59, 63
4, 256566, Note_on_c, 11, 54, 63
4, 256800, Note_off_c, 11, 71, 63
4, 256800, Note_off_c, 11, 66, 63
4, 256800, Note_off_c, 11, 59, 63
4, 256800, Note_off_c, 11, 54, 63
4, 256800, Note_on_c, 11, 54, 63
4, 256802, Note_on_c, 11, 59, 63
4, 256804, Note_on_c, 11, 66, 63
4, 256806, Note_on_c, 11, 71, 63
4, 257040, Note_off_c, 11, 71, 63
4, 257040, Note_off_c, 11, 66, 63
4, 257040, Note_off_c, 11, 59, 63
4, 257040, Note_off_c, 11, 54, 63
4, 257040, Note_on_c, 11, 70, 95
4, 257042, Note_on_c, 11, 66, 95
4, 257044, Note_on_c, 11, 61, 95
4, 257046, Note_on_c, 11, 54, 95
4, 257280, Note_off_c, 11, 70, 95
4, 257280, Note_off_c, 11, 66, 95
4, 257280, Note_off_c, 11, 61, 95
4, 257280, Note_off_c, 11, 54, 95
4, 257520, Note_on_c, 11, 70, 95
4, 257522, Note_on_c, 11, 66, 95
4, 257524, Note_on_c, 11, 61, 95
4, 257760, Note_off_c, 11, 70, 95
4, 257760, Note_off_c, 11, 66, 95
4, 257760, Note_off_c, 11, 61, 95
4, 258000, Note_on_c, 11, 70, 95
4, 258002, Note_on_c, 11, 66, 95
4, 258004, Note_on_c, 11, 61, 95
4, 258240, Note_off_c, 11, 70, 95
4, 258240, Note_off_c, 11, 66, 95
4, 258240, Note_off_c, 11, 61, 95
4, 258240, Note_on_c, 11, 61, 95
4, 258242, Note_on_c, 11, 66, 95
4, 258244, Note_on_c, 11, 70, 95
4, 258480, Note_off_c, 11, 70, 95
4, 258480, Note_off_c, 11, 66, 95
4, 258480, Note_off_c, 11, 61, 95
4, 258480, Note_on_c, 11, 70, 63
4, 258482, Note_on_c, 11, 66, 63
4, 258484, Note_on_c, 11, 61, 63
4, 258720, Note_off_c, 11, 70, 63
4, 258720, Note_off_c, 11, 66, 63
4, 258720, Note_off_c, 11, 61, 63
4, 258720, Note_on_c, 11, 61, 63
4, 258722, Note_on_c, 11, 66, 63
4, 258724, Note_on_c, 11, 70, 63
4, 258960, Note_off_c, 11, 70, 63
4, 258960, Note_off_c, 11, 66, 63
4, 258960, Note_off_c, 11, 61, 63
4, 258960, Note_on_c, 11, 70, 63
4, 258962, Note_on_c, 11, 66, 63
4, 258964, Note_on_c, 11, 61, 63
4, 259200, Note_off_c, 11, 70, 63
4, 259200, Note_off_c, 11, 66, 63
4, 259200, Note_off_c, 11, 61, 63
4, 259200, Note_on_c, 11, 54, 95
4, 259202, Note_on_c, 11, 61, 95
4, 259204, Note_on_c, 11, 66, 95
4, 259206, Note_on_c, 11, 70, 95
4, 259440, Note_off_c, 11, 70, 95
4, 259440, Note_off_c, 11, 66, 95
4, 259440, Note_off_c, 11, 61, 95
4, 259440, Note_off_c, 11, 54, 95
4, 259440, Note_on_c, 11, 70, 63
4, 259442, Note_on_c, 11, 66, 63
4, 259444, Note_on_c, 11, 61, 63
4, 259680, Note_off_c, 11, 70, 63
4, 259680, Note_off_c, 11, 66, 63
4, 259680, Note_off_c, 11, 61, 63
4, 259680, Note_on_c, 11, 61, 63
4, 259682, Note_on_c, 11, 66, 63
4, 259684, Note_on_c, 11, 70, 63
4, 259920, Note_off_c, 11, 70, 63
4, 259920, Note_off_c, 11, 66, 63
4, 259920, Note_off_c, 11, 61, 63
4, 259920, Note_on_c, 11, 70, 63
4, 259922, Note_on_c, 11, 66, 63
4, 259924, Note_on_c, 11, 61, 63
4, 260160, Note_off_c, 11, 70, 63
4, 260160, Note_off_c, 11, 66, 63
4, 260160, Note_off_c, 11, 61, 63
4, 260160, Note_on_c, 11, 61, 63
4, 260162, Note_on_c, 11, 66, 63
4, 260164, Note_on_c, 11, 70, 63
4, 260400, Note_off_c, 11, 70, 63
4, 260400, Note_off_c, 11, 66, 63
4, 260400, Note_off_c, 11, 61, 63
4, 260400, Note_on_c, 11, 70, 63
4, 260402, Note_on_c, 11, 66, 63
4, 260404, Note_on_c, 11, 61, 63
4, 260640, Note_off_c, 11, 70, 63
4, 260640, Note_off_c, 11, 66, 63
4, 260640, Note_off_c, 11, 61, 63
4, 260640, Note_on_c, 11, 61, 63
4, 260642, Note_on_c, 11, 66, 63
4, 260644, Note_on_c, 11, 70, 63
4, 260880, Note_off_c, 11, 70, 63
4, 260880, Note_off_c, 11, 66, 63
4, 260880, Note_off_c, 11, 61, 63
4, 260880, Note_on_c, 11, 70, 95
4, 260882, Note_on_c, 11, 64, 95
4, 260884, Note_on_c, 11, 61, 95
4, 261120, Note_off_c, 11, 70, 95
4, 261120, Note_off_c, 11, 64, 95
4, 261120, Note_off_c, 11, 61, 95
4, 261360, Note_on_c, 11, 70, 95
4, 261362, Note_on_c, 11, 64, 95
4, 261364, Note_on_c, 11, 61, 95
4, 261600, Note_off_c, 11, 70, 95
4, 261600, Note_off_c, 11, 64, 95
4, 261600, Note_off_c, 11, 61, 95
4, 261840, Note_on_c, 11, 70, 95
4, 261842, Note_on_c, 11, 64, 95
4, 261844, Note_on_c, 11, 61, 95
4, 262080, Note_off_c, 11, 70, 95
4, 262080, Note_off_c, 11, 64, 95
4, 262080, Note_off_c, 11, 61, 95
4, 262080, Note_on_c, 11, 61, 95
4, 262082, Note_on_c, 11, 64, 95
4, 262084, Note_on_c, 11, 70, 95
4, 262320, Note_off_c, 11, 70, 95
4, 262320, Note_off_c, 11, 64, 95
4, 262320, Note_off_c, 11, 61, 95
4, 262320, Note_on_c, 11, 70, 63
4, 262322, Note_on_c, 11, 64, 63
4, 262324, Note_on_c, 11, 61, 63
4, 262560, Note_off_c, 11, 70, 63
4, 262560, Note_off_c, 11, 64, 63
4, 262560, Note_off_c, 11, 61, 63
4, 262560, Note_on_c, 11, 61, 63
4, 262562, Note_on_c, 11, 64, 63
4, 262564, Note_on_c, 11, 70, 63
4, 262800, Note_off_c, 11, 70, 63
4, 262800, Note_off_c, 11, 64, 63
4, 262800, Note_off_c, 11, 61, 63
4, 262800, Note_on_c, 11, 70, 63
4, 262802, Note_on_c, 11, 64, 63
4, 262804, Note_on_c, 11, 61, 63
4, 263040, Note_off_c, 11, 70, 63
4, 263040, Note_off_c, 11, 64, 63
4, 263040, Note_off_c, 11, 61, 63
4, 263040, Note_on_c, 11, 54, 95
4, 263042, Note_on_c, 11, 61, 95
4, 263044, Note_on_c, 11, 63, 95
4, 263046, Note_on_c, 11, 70, 95
4, 263280, Note_off_c, 11, 70, 95
4, 263280, Note_off_c, 11, 63, 95
4, 263280, Note_off_c, 11, 61, 95
4, 263280, Note_off_c, 11, 54, 95
4, 263280, Note_on_c, 11, 70, 63
4, 263282, Note_on_c, 11, 63, 63
4, 263284, Note_on_c, 11, 61, 63
4, 263520, Note_off_c, 11, 70, 63
4, 263520, Note_off_c, 11, 63, 63
4, 263520, Note_off_c, 11, 61, 63
4, 263520, Note_on_c, 11, 61, 63
4, 263522, Note_on_c, 11, 63, 63
4, 263524, Note_on_c, 11, 70, 63
4, 263760, Note_off_c, 11, 70, 63
4, 263760, Note_off_c, 11, 63, 63
4, 263760, Note_off_c, 11, 61, 63
4, 263760, Note_on_c, 11, 70, 63
4, 263762, Note_on_c, 11, 63, 63
4, 263764, Note_on_c, 11, 61, 63
4, 264000, Note_off_c, 11, 70, 63
4, 264000, Note_off_c, 11, 63, 63
4, 264000, Note_off_c, 11, 61, 63
4, 264000, Note_on_c, 11, 61, 63
4, 264002, Note_on_c, 11, 63, 63
4, 264004, Note_on_c, 11, 70, 63
4, 264240, Note_off_c, 11, 70, 63
4, 264240, Note_off_c, 11, 63, 63
4, 264240, Note_off_c, 11, 61, 63
4, 264240, Note_on_c, 11, 70, 63
4, 264242, Note_on_c, 11, 63, 63
4, 264244, Note_on_c, 11, 61, 63
4, 264480, Note_off_c, 11, 70, 63
4, 264480, Note_off_c, 11, 63, 63
4, 264480, Note_off_c, 11, 61, 63
4, 264480, Note_on_c, 11, 61, 63
4, 264482, Note_on_c, 11, 63, 63
4, 264484, Note_on_c, 11, 70, 63
4, 264720, Note_off_c, 11, 70, 63
4, 264720, Note_off_c, 11, 63, 63
4, 264720, Note_off_c, 11, 61, 63
4, 264720, Note_on_c, 11, 71, 95
4, 264722, Note_on_c, 11, 68, 95
4, 264724, Note_on_c, 11, 62, 95
4, 264726, Note_on_c, 11, 54, 95
4, 264960, Note_off_c, 11, 71, 95
4, 264960, Note_off_c, 11, 68, 95
4, 264960, Note_off_c, 11, 62, 95
4, 264960, Note_off_c, 11, 54, 95
4, 265200, Note_on_c, 11, 71, 95
4, 265202, Note_on_c, 11, 68, 95
4, 265204, Note_on_c, 11, 62, 95
4, 265440, Note_off_c, 11, 71, 95
4, 265440, Note_off_c, 11, 68, 95
4, 265440, Note_off_c, 11, 62, 95
4, 265680, Note_on_c, 11, 71, 95
4, 265682, Note_on_c, 11, 68, 95
4, 265684, Note_on_c, 11, 62, 95
4, 265920, Note_off_c, 11, 71, 95
4, 265920, Note_off_c, 11, 68, 95
4, 265920, Note_off_c, 11, 62, 95
4, 265920, Note_on_c, 11, 62, 95
4, 265922, Note_on_c, 11, 68, 95
4, 265924, Note_on_c, 11, 71, 95
4, 266160, Note_off_c, 11, 71, 95
4, 266160, Note_off_c, 11, 68, 95
4, 266160, Note_off_c, 11, 62, 95
4, 266160, Note_on_c, 11, 71, 63
4, 266162, Note_on_c, 11, 68, 63
4, 266164, Note_on_c, 11, 62, 63
4, 266400, Note_off_c, 11, 71, 63
4, 266400, Note_off_c, 11, 68, 63
4, 266400, Note_off_c, 11, 62, 63
4, 266400, Note_on_c, 11, 62, 63
4, 266402, Note_on_c, 11, 68, 63
4, 266404, Note_on_c, 11, 71, 63
4, 266640, Note_off_c, 11, 71, 63
4, 266640, Note_off_c, 11, 68, 63
4, 266640, Note_off_c, 11, 62, 63
4, 266640, Note_on_c, 11, 71, 63
4, 266642, Note_on_c, 11, 68, 63
4, 266644, Note_on_c, 11, 62, 63
4, 266880, Note_off_c, 11, 71, 63
4, 266880, Note_off_c, 11, 68, 63
4, 266880, Note_off_c, 11, 62, 63
4, 266880, Note_on_c, 11, 54, 95
4, 266882, Note_on_c, 11, 61, 95
4, 266884, Note_on_c, 11, 66, 95
4, 266886, Note_on_c, 11, 70, 95
4, 267120, Note_off_c, 11, 70, 95
4, 267120, Note_off_c, 11, 66, 95
4, 267120, Note_off_c, 11, 61, 95
4, 267120, Note_off_c, 11, 54, 95
4, 267120, Note_on_c, 11, 70, 63
4, 267122, Note_on_c, 11, 66, 63
4, 267124, Note_on_c, 11, 61, 63
4, 267360, Note_off_c, 11, 70, 63
4, 267360, Note_off_c, 11, 66, 63
4, 267360, Note_off_c, 11, 61, 63
4, 267360, Note_on_c, 11, 61, 63
4, 267362, Note_on_c, 11, 66, 63
4, 267364, Note_on_c, 11, 70, 63
4, 267600, Note_off_c, 11, 70, 63
4, 267600, Note_off_c, 11, 66, 63
4, 267600, Note_off_c, 11, 61, 63
4, 267600, Note_on_c, 11, 70, 63
4, 267602, Note_on_c, 11, 66, 63
4, 267604, Note_on_c, 11, 61, 63
4, 267840, Note_off_c, 11, 70, 63
4, 267840, Note_off_c, 11, 66, 63
4, 267840, Note_off_c, 11, 61, 63
4, 267840, Note_on_c, 11, 61, 63
4, 267842, Note_on_c, 11, 66, 63
4, 267844, Note_on_c, 11, 70, 63
4, 268080, Note_off_c, 11, 70, 63
4, 268080, Note_off_c, 11, 66, 63
4, 268080, Note_off_c, 11, 61, 63
4, 268080, Note_on_c, 11, 70, 63
4, 268082, Note_on_c, 11, 66, 63
4, 268084, Note_on_c, 11, 61, 63
4, 268320, Note_off_c, 11, 70, 63
4, 268320, Note_off_c, 11, 66, 63
4, 268320, Note_off_c, 11, 61, 63
4, 268320, Note_on_c, 11, 61, 63
4, 268322, Note_on_c, 11, 66, 63
4, 268324, Note_on_c, 11, 70, 63
4, 268560, Note_off_c, 11, 70, 63
4, 268560, Note_off_c, 11, 66, 63
4, 268560, Note_off_c, 11, 61, 63
4, 268560, Note_on_c, 11, 68, 95
4, 268562, Note_on_c, 11, 65, 95
4, 268564, Note_on_c, 11, 61, 95
4, 268566, Note_on_c, 11, 56, 95
4, 268568, Note_on_c, 11, 49, 95
4, 268800, Note_off_c, 11, 68, 95
4, 268800, Note_off_c, 11, 65, 95
4, 268800, Note_off_c, 11, 61, 95
4, 268800, Note_off_c, 11, 56, 95
4, 268800, Note_off_c, 11, 49, 95
4, 269040, Note_on_c, 11, 68, 95
4, 269042, Note_on_c, 11, 65, 95
4, 269044, Note_on_c, 11, 61, 95
4, 269046, Note_on_c, 11, 56, 95
4, 269280, Note_off_c, 11, 68, 95
4, 269280, Note_off_c, 11, 65, 95
4, 269280, Note_off_c, 11, 61, 95
4, 269280, Note_off_c, 11, 56, 95
4, 269520, Note_on_c, 11, 68, 95
4, 269522, Note_on_c, 11, 65, 95
4, 269524, Note_on_c, 11, 61, 95
4, 269526, Note_on_c, 11, 56, 95
4, 269760, Note_off_c, 11, 68, 95
4, 269760, Note_off_c, 11, 65, 95
4, 269760, Note_off_c, 11, 61, 95
4, 269760, Note_off_c, 11, 56, 95
4, 269760, Note_on_c, 11, 56, 95
4, 269762, Note_on_c, 11, 61, 95
4, 269764, Note_on_c, 11, 65, 95
4, 269766, Note_on_c, 11, 68, 95
4, 270000, Note_off_c, 11, 68, 95
4, 270000, Note_off_c, 11, 65, 95
4, 270000, Note_off_c, 11, 61, 95
4, 270000, Note_off_c, 11, 56, 95
4, 270000, Note_on_c, 11, 68, 63
4, 270002, Note_on_c, 11, 65, 63
4, 270004, Note_on_c, 11, 61, 63
4, 270006, Note_on_c, 11, 56, 63
4, 270240, Note_off_c, 11, 68, 63
4, 270240, Note_off_c, 11, 65, 63
4, 270240, Note_off_c, 11, 61, 63
4, 270240, Note_off_c, 11, 56, 63
4, 270240, Note_on_c, 11, 56, 63
4, 270242, Note_on_c, 11, 61, 63
4, 270244, Note_on_c, 11, 65, 63
4, 270246, Note_on_c, 11, 68, 63
4, 270480, Note_off_c, 11, 68, 63
4, 270480, Note_off_c, 11, 65, 63
4, 270480, Note_off_c, 11, 61, 63
4, 270480, Note_off_c, 11, 56, 63
4, 270480, Note_on_c, 11, 68, 63
4, 270482, Note_on_c, 11, 65, 63
4, 270484, Note_on_c, 11, 61, 63
4, 270486, Note_on_c, 11, 56, 63
4, 270720, Note_off_c, 11, 68, 63
4, 270720, Note_off_c, 11, 65, 63
4, 270720, Note_off_c, 11, 61, 63
4, 270720, Note_off_c, 11, 56, 63
4, 270720, Note_on_c, 11, 54, 95
4, 270722, Note_on_c, 11, 59, 95
4, 270724, Note_on_c, 11, 66, 95
4, 270726, Note_on_c, 11, 71, 95
4, 270960, Note_off_c, 11, 71, 95
4, 270960, Note_off_c, 11, 66, 95
4, 270960, Note_off_c, 11, 59, 95
4, 270960, Note_off_c, 11, 54, 95
4, 270960, Note_on_c, 11, 71, 63
4, 270962, Note_on_c, 11, 66, 63
4, 270964, Note_on_c, 11, 59, 63
4, 270966, Note_on_c, 11, 54, 63
4, 271200, Note_off_c, 11, 71, 63
4, 271200, Note_off_c, 11, 66, 63
4, 271200, Note_off_c, 11, 59, 63
4, 271200, Note_off_c, 11, 54, 63
4, 271200, Note_on_c, 11, 54, 63
4, 271202, Note_on_c, 11, 59, 63
4, 271204, Note_on_c, 11, 66, 63
4, 271206, Note_on_c, 11, 71, 63
4, 271440, Note_off_c, 11, 71, 63
4, 271440, Note_off_c, 11, 66, 63
4, 271440, Note_off_c, 11, 59, 63
4, 271440, Note_off_c, 11, 54, 63
4, 271440, Note_on_c, 11, 71, 63
4, 271442, Note_on_c, 11, 66, 63
4, 271444, Note_on_c, 11, 59, 63
4, 271446, Note_on_c, 11, 54, 63
4, 271680, Note_off_c, 11, 71, 63
4, 271680, Note_off_c, 11, 66, 63
4, 271680, Note_off_c, 11, 59, 63
4, 271680, Note_off_c, 11, 54, 63
4, 271680, Note_on_c, 11, 54, 63
4, 271682, Note_on_c, 11, 59, 63
4, 271684, Note_on_c, 11, 66, 63
4, 271686, Note_on_c, 11, 71, 63
4, 271920, Note_off_c, 11, 71, 63
4, 271920, Note_off_c, 11, 66, 63
4, 271920, Note_off_c, 11, 59, 63
4, 271920, Note_off_c, 11, 54, 63
4, 271920, Note_on_c, 11, 71, 63
4, 271922, Note_on_c, 11, 66, 63
4, 271924, Note_on_c, 11, 59, 63
4, 271926, Note_on_c, 11, 54, 63
4, 272160, Note_off_c, 11, 71, 63
4, 272160, Note_off_c, 11, 66, 63
4, 272160, Note_off_c, 11, 59, 63
4, 272160, Note_off_c, 11, 54, 63
4, 272160, Note_on_c, 11, 54, 63
4, 272162, Note_on_c, 11, 59, 63
4, 272164, Note_on_c, 11, 66, 63
4, 272166, Note_on_c, 11, 71, 63
4, 272400, Note_off_c, 11, 71, 63
4, 272400, Note_off_c, 11, 66, 63
4, 272400, Note_off_c, 11, 59, 63
4, 272400, Note_off_c, 11, 54, 63
4, 272400, Note_on_c, 11, 70, 95
4, 272402, Note_on_c, 11, 66, 95
4, 272404, Note_on_c, 11, 61, 95
4, 272406, Note_on_c, 11, 54, 95
4, 272640, Note_off_c, 11, 70, 95
4, 272640, Note_off_c, 11, 66, 95
4, 272640, Note_off_c, 11, 61, 95
4, 272640, Note_off_c, 11, 54, 95
4, 272880, Note_on_c, 11, 70, 95
4, 272882, Note_on_c, 11, 66, 95
4, 272884, Note_on_c, 11, 61, 95
4, 273120, Note_off_c, 11, 70, 95
4, 273120, Note_off_c, 11, 66, 95
4, 273120, Note_off_c, 11, 61, 95
4, 273360, Note_on_c, 11, 70, 95
4, 273362, Note_on_c, 11, 66, 95
4, 273364, Note_on_c, 11, 61, 95
4, 273600, Note_off_c, 11, 70, 95
4, 273600, Note_off_c, 11, 66, 95
4, 273600, Note_off_c, 11, 61, 95
4, 273600, Note_on_c, 11, 61, 95
4, 273602, Note_on_c, 11, 66, 95
4, 273604, Note_on_c, 11, 70, 95
4, 273840, Note_off_c, 11, 70, 95
4, 273840, Note_off_c, 11, 66, 95
4, 273840, Note_off_c, 11, 61, 95
4, 273840, Note_on_c, 11, 70, 63
4, 273842, Note_on_c, 11, 66, 63
4, 273844, Note_on_c, 11, 61, 63
4, 274080, Note_off_c, 11, 70, 63
4, 274080, Note_off_c, 11, 66, 63
4, 274080, Note_off_c, 11, 61, 63
4, 274080, Note_on_c, 11, 61, 63
4, 274082, Note_on_c, 11, 66, 63
4, 274084, Note_on_c, 11, 70, 63
4, 274320, Note_off_c, 11, 70, 63
4, 274320, Note_off_c, 11, 66, 63
4, 274320, Note_off_c, 11, 61, 63
4, 274320, Note_on_c, 11, 70, 63
4, 274322, Note_on_c, 11, 66, 63
4, 274324, Note_on_c, 11, 61, 63
4, 274560, Note_off_c, 11, 70, 63
4, 274560, Note_off_c, 11, 66, 63
4, 274560, Note_off_c, 11, 61, 63
4, 274560, End_track
5, 0, Start_track
5, 0, Pitch_bend_c, 2, 8192
5, 0, Control_c, 2, 7, 87
5, 0, Control_c, 2, 10, 63
5, 0, Control_c, 2, 93, 0
5, 0, Control_c, 2, 91, 0
5, 0, Control_c, 2, 95, 0
5, 0, Control_c, 2, 92, 0
5, 0, Control_c, 2, 11, 127
5, 0, Program_c, 2, 0
5, 0, Control_c, 3, 7, 87
5, 0, Control_c, 3, 10, 63
5, 0, Control_c, 3, 93, 0
5, 0, Control_c, 3, 91, 0
5, 0, Control_c, 3, 95, 0
5, 0, Control_c, 3, 92, 0
5, 0, Control_c, 3, 11, 127
5, 0, Program_c, 3, 0
5, 0, Note_on_c, 2, 58, 31
5, 0, Note_on_c, 2, 70, 95
5, 0, Note_on_c, 2, 54, 31
5, 0, Note_on_c, 2, 66, 95
5, 0, Note_on_c, 2, 49, 31
5, 0, Note_on_c, 2, 61, 95
5, 720, Note_off_c, 2, 58, 31
5, 720, Note_off_c, 2, 70, 95
5, 720, Note_off_c, 2, 54, 31
5, 720, Note_off_c, 2, 66, 95
5, 720, Note_off_c, 2, 49, 31
5, 720, Note_off_c, 2, 61, 95
5, 720, Note_on_c, 2, 58, 31
5, 720, Note_on_c, 2, 70, 95
5, 720, Note_on_c, 2, 54, 31
5, 720, Note_on_c, 2, 66, 95
5, 720, Note_on_c, 2, 49, 31
5, 720, Note_on_c, 2, 61, 95
5, 960, Note_off_c, 2, 58, 31
5, 960, Note_off_c, 2, 70, 95
5, 960, Note_off_c, 2, 54, 31
5, 960, Note_off_c, 2, 66, 95
5, 960, Note_off_c, 2, 49, 31
5, 960, Note_off_c, 2, 61, 95
5, 960, Note_on_c, 2, 58, 31
5, 960, Note_on_c, 2, 70, 95
5, 960, Note_on_c, 2, 54, 31
5, 960, Note_on_c, 2, 66, 95
5, 960, Note_on_c, 2, 49, 31
5, 960, Note_on_c, 2, 61, 95
5, 1440, Note_off_c, 2, 58, 31
5, 1440, Note_off_c, 2, 70, 95
5, 1440, Note_off_c, 2, 54, 31
5, 1440, Note_off_c, 2, 66, 95
5, 1440, Note_off_c, 2, 49, 31
5, 1440, Note_off_c, 2, 61, 95
5, 1440, Note_on_c, 2, 58, 31
5, 1440, Note_on_c, 2, 70, 95
5, 1440, Note_on_c, 2, 54, 31
5, 1440, Note_on_c, 2, 66, 95
5, 1440, Note_on_c, 2, 49, 31
5, 1440, Note_on_c, 2, 61, 95
5, 1680, Note_off_c, 2, 58, 31
5, 1680, Note_off_c, 2, 70, 95
5, 1680, Note_off_c, 2, 54, 31
5, 1680, Note_off_c, 2, 66, 95
5, 1680, Note_off_c, 2, 49, 31
5, 1680, Note_off_c, 2, 61, 95
5, 1680, Note_on_c, 2, 58, 31
5, 1680, Note_on_c, 2, 70, 95
5, 1680, Note_on_c, 2, 52, 31
5, 1680, Note_on_c, 2, 64, 95
5, 1680, Note_on_c, 2, 49, 31
5, 1680, Note_on_c, 2, 61, 95
5, 3360, Note_off_c, 2, 58, 31
5, 3360, Note_off_c, 2, 70, 95
5, 3360, Note_off_c, 2, 52, 31
5, 3360, Note_off_c, 2, 64, 95
5, 3360, Note_off_c, 2, 49, 31
5, 3360, Note_off_c, 2, 61, 95
5, 3360, Note_on_c, 2, 58, 31
5, 3360, Note_on_c, 2, 70, 95
5, 3360, Note_on_c, 2, 52, 31
5, 3360, Note_on_c, 2, 64, 95
5, 3360, Note_on_c, 2, 49, 31
5, 3360, Note_on_c, 2, 61, 95
5, 3840, Note_off_c, 2, 58, 31
5, 3840, Note_off_c, 2, 70, 95
5, 3840, Note_off_c, 2, 52, 31
5, 3840, Note_off_c, 2, 64, 95
5, 3840, Note_off_c, 2, 49, 31
5, 3840, Note_off_c, 2, 61, 95
5, 3840, Note_on_c, 2, 58, 31
5, 3840, Note_on_c, 2, 70, 95
5, 3840, Note_on_c, 2, 51, 31
5, 3840, Note_on_c, 2, 63, 95
5, 3840, Note_on_c, 2, 49, 31
5, 3840, Note_on_c, 2, 61, 95
5, 4560, Note_off_c, 2, 58, 31
5, 4560, Note_off_c, 2, 70, 95
5, 4560, Note_off_c, 2, 51, 31
5, 4560, Note_off_c, 2, 63, 95
5, 4560, Note_off_c, 2, 49, 31
5, 4560, Note_off_c, 2, 61, 95
5, 4560, Note_on_c, 2, 58, 31
5, 4560, Note_on_c, 2, 70, 95
5, 4560, Note_on_c, 2, 51, 31
5, 4560, Note_on_c, 2, 63, 95
5, 4560, Note_on_c, 2, 49, 31
5, 4560, Note_on_c, 2, 61, 95
5, 5040, Note_off_c, 2, 58, 31
5, 5040, Note_off_c, 2, 70, 95
5, 5040, Note_off_c, 2, 51, 31
5, 5040, Note_off_c, 2, 63, 95
5, 5040, Note_off_c, 2, 49, 31
5, 5040, Note_off_c, 2, 61, 95
5, 5040, Note_on_c, 2, 59, 31
5, 5040, Note_on_c, 2, 71, 95
5, 5280, Note_off_c, 2, 59, 31
5, 5280, Note_off_c, 2, 71, 95
5, 5280, Note_on_c, 2, 61, 31
5, 5280, Note_on_c, 2, 73, 95
5, 5280, Note_on_c, 2, 51, 31
5, 5280, Note_on_c, 2, 63, 95
5, 5280, Note_on_c, 2, 49, 31
5, 5280, Note_on_c, 2, 61, 95
5, 5520, Note_off_c, 2, 61, 31
5, 5520, Note_off_c, 2, 73, 95
5, 5520, Note_off_c, 2, 51, 31
5, 5520, Note_off_c, 2, 63, 95
5, 5520, Note_off_c, 2, 49, 31
5, 5520, Note_off_c, 2, 61, 95
5, 5520, Note_on_c, 2, 62, 31
5, 5520, Note_on_c, 2, 74, 95
5, 5520, Note_on_c, 2, 54, 31
5, 5520, Note_on_c, 2, 66, 95
5, 5520, Note_on_c, 2, 50, 31
5, 5520, Note_on_c, 2, 62, 95
5, 5520, Note_on_c, 2, 47, 31
5, 5520, Note_on_c, 2, 59, 95
5, 5760, Note_off_c, 2, 62, 31
5, 5760, Note_off_c, 2, 74, 95
5, 6000, Note_off_c, 2, 54, 31
5, 6000, Note_off_c, 2, 66, 95
5, 6000, Note_off_c, 2, 50, 31
5, 6000, Note_off_c, 2, 62, 95
5, 6000, Note_off_c, 2, 47, 31
5, 6000, Note_off_c, 2, 59, 95
5, 6000, Note_on_c, 2, 56, 31
5, 6000, Note_on_c, 2, 68, 95
5, 6480, Note_off_c, 2, 56, 31
5, 6480, Note_off_c, 2, 68, 95
5, 6480, Note_on_c, 2, 54, 31
5, 6480, Note_on_c, 2, 66, 95
5, 6960, Note_off_c, 2, 54, 31
5, 6960, Note_off_c, 2, 66, 95
5, 6960, Note_on_c, 2, 47, 31
5, 6960, Note_on_c, 2, 59, 95
5, 7200, Note_off_c, 2, 47, 31
5, 7200, Note_off_c, 2, 59, 95
5, 7200, Note_on_c, 2, 56, 31
5, 7200, Note_on_c, 2, 68, 95
5, 7200, Note_on_c, 2, 54, 31
5, 7200, Note_on_c, 2, 66, 95
5, 7200, Note_on_c, 2, 51, 31
5, 7200, Note_on_c, 2, 63, 95
5, 7680, Note_off_c, 2, 56, 31
5, 7680, Note_off_c, 2, 68, 95
5, 7680, Note_off_c, 2, 54, 31
5, 7680, Note_off_c, 2, 66, 95
5, 7680, Note_off_c, 2, 51, 31
5, 7680, Note_off_c, 2, 63, 95
5, 7680, Note_on_c, 2, 58, 31
5, 7680, Note_on_c, 2, 70, 95
5, 7680, Note_on_c, 2, 54, 31
5, 7680, Note_on_c, 2, 66, 95
5, 7680, Note_on_c, 2, 49, 31
5, 7680, Note_on_c, 2, 61, 95
5, 8880, Note_off_c, 2, 58, 31
5, 8880, Note_off_c, 2, 70, 95
5, 8880, Note_off_c, 2, 54, 31
5, 8880, Note_off_c, 2, 66, 95
5, 8880, Note_off_c, 2, 49, 31
5, 8880, Note_off_c, 2, 61, 95
5, 8880, Note_on_c, 2, 49, 31
5, 8880, Note_on_c, 2, 61, 95
5, 9120, Note_off_c, 2, 49, 31
5, 9120, Note_off_c, 2, 61, 95
5, 9120, Note_on_c, 2, 58, 31
5, 9120, Note_on_c, 2, 70, 95
5, 9120, Note_on_c, 2, 54, 31
5, 9120, Note_on_c, 2, 66, 95
5, 9360, Note_off_c, 2, 58, 31
5, 9360, Note_off_c, 2, 70, 95
5, 9360, Note_off_c, 2, 54, 31
5, 9360, Note_off_c, 2, 66, 95
5, 9360, Note_on_c, 2, 56, 31
5, 9360, Note_on_c, 2, 68, 95
5, 9360, Note_on_c, 2, 53, 31
5, 9360, Note_on_c, 2, 65, 95
5, 9360, Note_on_c, 2, 49, 31
5, 9360, Note_on_c, 2, 61, 95
5, 10800, Note_off_c, 2, 56, 31
5, 10800, Note_off_c, 2, 68, 95
5, 10800, Note_off_c, 2, 53, 31
5, 10800, Note_off_c, 2, 65, 95
5, 10800, Note_off_c, 2, 49, 31
5, 10800, Note_off_c, 2, 61, 95
5, 10800, Note_on_c, 2, 49, 31
5, 10800, Note_on_c, 2, 61, 95
5, 11040, Note_off_c, 2, 49, 31
5, 11040, Note_off_c, 2, 61, 95
5, 11040, Note_on_c, 2, 56, 31
5, 11040, Note_on_c, 2, 68, 95
5, 11040, Note_on_c, 2, 53, 31
5, 11040, Note_on_c, 2, 65, 95
5, 11280, Note_off_c, 2, 56, 31
5, 11280, Note_off_c, 2, 68, 95
5, 11280, Note_off_c, 2, 53, 31
5, 11280, Note_off_c, 2, 65, 95
5, 11280, Note_on_c, 2, 59, 31
5, 11280, Note_on_c, 2, 71, 95
5, 11280, Note_on_c, 2, 54, 31
5, 11280, Note_on_c, 2, 66, 95
5, 11280, Note_on_c, 2, 51, 31
5, 11280, Note_on_c, 2, 63, 95
5, 12720, Note_off_c, 2, 59, 31
5, 12720, Note_off_c, 2, 71, 95
5, 12720, Note_off_c, 2, 54, 31
5, 12720, Note_off_c, 2, 66, 95
5, 12720, Note_off_c, 2, 51, 31
5, 12720, Note_off_c, 2, 63, 95
5, 12720, Note_on_c, 2, 51, 31
5, 12720, Note_on_c, 2, 63, 95
5, 12960, Note_off_c, 2, 51, 31
5, 12960, Note_off_c, 2, 63, 95
5, 12960, Note_on_c, 2, 59, 31
5, 12960, Note_on_c, 2, 71, 95
5, 12960, Note_on_c, 2, 54, 31
5, 12960, Note_on_c, 2, 66, 95
5, 13200, Note_off_c, 2, 59, 31
5, 13200, Note_off_c, 2, 71, 95
5, 13200, Note_off_c, 2, 54, 31
5, 13200, Note_off_c, 2, 66, 95
5, 13200, Note_on_c, 2, 58, 31
5, 13200, Note_on_c, 2, 70, 95
5, 13200, Note_on_c, 2, 54, 31
5, 13200, Note_on_c, 2, 66, 95
5, 13200, Note_on_c, 2, 49, 31
5, 13200, Note_on_c, 2, 61, 95
5, 14640, Note_off_c, 2, 58, 31
5, 14640, Note_off_c, 2, 70, 95
5, 14640, Note_off_c, 2, 54, 31
5, 14640, Note_off_c, 2, 66, 95
5, 14640, Note_off_c, 2, 49, 31
5, 14640, Note_off_c, 2, 61, 95
5, 14640, Note_on_c, 2, 49, 31
5, 14640, Note_on_c, 2, 61, 95
5, 14880, Note_off_c, 2, 49, 31
5, 14880, Note_off_c, 2, 61, 95
5, 14880, Note_on_c, 2, 56, 31
5, 14880, Note_on_c, 2, 68, 95
5, 15120, Note_off_c, 2, 56, 31
5, 15120, Note_off_c, 2, 68, 95
5, 15120, Note_on_c, 2, 58, 31
5, 15120, Note_on_c, 2, 70, 95
5, 15120, Note_on_c, 2, 54, 31
5, 15120, Note_on_c, 2, 66, 95
5, 15120, Note_on_c, 2, 49, 31
5, 15120, Note_on_c, 2, 61, 95
5, 16560, Note_off_c, 2, 58, 31
5, 16560, Note_off_c, 2, 70, 95
5, 16560, Note_off_c, 2, 54, 31
5, 16560, Note_off_c, 2, 66, 95
5, 16560, Note_off_c, 2, 49, 31
5, 16560, Note_off_c, 2, 61, 95
5, 16560, Note_on_c, 2, 61, 47
5, 16560, Note_on_c, 2, 73, 111
5, 16800, Note_off_c, 2, 61, 47
5, 16800, Note_off_c, 2, 73, 111
5, 16800, Note_on_c, 2, 59, 47
5, 16800, Note_on_c, 2, 71, 111
5, 17040, Note_off_c, 2, 59, 47
5, 17040, Note_off_c, 2, 71, 111
5, 17040, Note_on_c, 2, 58, 47
5, 17040, Note_on_c, 2, 70, 111
5, 17040, Note_on_c, 2, 54, 31
5, 17040, Note_on_c, 2, 66, 95
5, 17040, Note_on_c, 2, 49, 31
5, 17040, Note_on_c, 2, 61, 95
5, 17280, Note_off_c, 2, 58, 47
5, 17280, Note_off_c, 2, 70, 111
5, 17280, Note_off_c, 2, 54, 31
5, 17280, Note_off_c, 2, 66, 95
5, 17280, Note_off_c, 2, 49, 31
5, 17280, Note_off_c, 2, 61, 95
5, 17280, Note_on_c, 2, 54, 47
5, 17280, Note_on_c, 2, 66, 111
5, 17760, Note_off_c, 2, 54, 47
5, 17760, Note_off_c, 2, 66, 111
5, 17760, Note_on_c, 2, 49, 47
5, 17760, Note_on_c, 2, 61, 111
5, 18000, Note_off_c, 2, 49, 47
5, 18000, Note_off_c, 2, 61, 111
5, 18000, Note_on_c, 2, 54, 47
5, 18000, Note_on_c, 2, 66, 111
5, 18480, Note_off_c, 2, 54, 47
5, 18480, Note_off_c, 2, 66, 111
5, 18480, Note_on_c, 2, 61, 31
5, 18480, Note_on_c, 2, 73, 95
5, 18480, Note_on_c, 2, 49, 31
5, 18480, Note_on_c, 2, 61, 95
5, 18720, Note_off_c, 2, 61, 31
5, 18720, Note_off_c, 2, 73, 95
5, 18720, Note_off_c, 2, 49, 31
5, 18720, Note_off_c, 2, 61, 95
5, 18720, Note_on_c, 2, 59, 31
5, 18720, Note_on_c, 2, 71, 95
5, 18720, Note_on_c, 2, 54, 31
5, 18720, Note_on_c, 2, 66, 95
5, 18720, Note_on_c, 2, 49, 31
5, 18720, Note_on_c, 2, 61, 95
5, 18960, Note_off_c, 2, 59, 31
5, 18960, Note_off_c, 2, 71, 95
5, 18960, Note_off_c, 2, 54, 31
5, 18960, Note_off_c, 2, 66, 95
5, 18960, Note_off_c, 2, 49, 31
5, 18960, Note_off_c, 2, 61, 95
5, 18960, Note_on_c, 2, 58, 31
5, 18960, Note_on_c, 2, 70, 95
5, 18960, Note_on_c, 2, 52, 31
5, 18960, Note_on_c, 2, 64, 95
5, 18960, Note_on_c, 2, 49, 31
5, 18960, Note_on_c, 2, 61, 95
5, 20400, Note_off_c, 2, 58, 31
5, 20400, Note_off_c, 2, 70, 95
5, 20400, Note_off_c, 2, 52, 31
5, 20400, Note_off_c, 2, 64, 95
5, 20400, Note_off_c, 2, 49, 31
5, 20400, Note_off_c, 2, 61, 95
5, 20400, Note_on_c, 2, 61, 31
5, 20400, Note_on_c, 2, 73, 95
5, 20640, Note_off_c, 2, 61, 31
5, 20640, Note_off_c, 2, 73, 95
5, 20640, Note_on_c, 2, 59, 31
5, 20640, Note_on_c, 2, 71, 95
5, 20640, Note_on_c, 2, 52, 31
5, 20640, Note_on_c, 2, 64, 95
5, 20640, Note_on_c, 2, 49, 31
5, 20640, Note_on_c, 2, 61, 95
5, 20880, Note_off_c, 2, 59, 31
5, 20880, Note_off_c, 2, 71, 95
5, 20880, Note_off_c, 2, 52, 31
5, 20880, Note_off_c, 2, 64, 95
5, 20880, Note_off_c, 2, 49, 31
5, 20880, Note_off_c, 2, 61, 95
5, 20880, Note_on_c, 2, 58, 31
5, 20880, Note_on_c, 2, 70, 95
5, 20880, Note_on_c, 2, 51, 31
5, 20880, Note_on_c, 2, 63, 95
5, 20880, Note_on_c, 2, 49, 31
5, 20880, Note_on_c, 2, 61, 95
5, 21600, Note_off_c, 2, 58, 31
5, 21600, Note_off_c, 2, 70, 95
5, 21600, Note_off_c, 2, 51, 31
5, 21600, Note_off_c, 2, 63, 95
5, 21600, Note_off_c, 2, 49, 31
5, 21600, Note_off_c, 2, 61, 95
5, 21600, Note_on_c, 2, 58, 31
5, 21600, Note_on_c, 2, 70, 95
5, 21840, Note_off_c, 2, 58, 31
5, 21840, Note_off_c, 2, 70, 95
5, 21840, Note_on_c, 2, 58, 31
5, 21840, Note_on_c, 2, 70, 95
5, 22320, Note_off_c, 2, 58, 31
5, 22320, Note_off_c, 2, 70, 95
5, 22320, Note_on_c, 2, 59, 31
5, 22320, Note_on_c, 2, 71, 95
5, 22560, Note_off_c, 2, 59, 31
5, 22560, Note_off_c, 2, 71, 95
5, 22560, Note_on_c, 2, 61, 31
5, 22560, Note_on_c, 2, 73, 95
5, 22560, Note_on_c, 2, 51, 31
5, 22560, Note_on_c, 2, 63, 95
5, 22560, Note_on_c, 2, 49, 31
5, 22560, Note_on_c, 2, 61, 95
5, 22800, Note_off_c, 2, 61, 31
5, 22800, Note_off_c, 2, 73, 95
5, 22800, Note_off_c, 2, 51, 31
5, 22800, Note_off_c, 2, 63, 95
5, 22800, Note_off_c, 2, 49, 31
5, 22800, Note_off_c, 2, 61, 95
5, 22800, Note_on_c, 2, 62, 31
5, 22800, Note_on_c, 2, 74, 95
5, 22800, Note_on_c, 2, 54, 31
5, 22800, Note_on_c, 2, 66, 95
5, 22800, Note_on_c, 2, 50, 31
5, 22800, Note_on_c, 2, 62, 95
5, 22800, Note_on_c, 2, 47, 31
5, 22800, Note_on_c, 2, 59, 95
5, 23280, Note_off_c, 2, 62, 31
5, 23280, Note_off_c, 2, 74, 95
5, 23280, Note_off_c, 2, 54, 31
5, 23280, Note_off_c, 2, 66, 95
5, 23280, Note_off_c, 2, 50, 31
5, 23280, Note_off_c, 2, 62, 95
5, 23280, Note_off_c, 2, 47, 31
5, 23280, Note_off_c, 2, 59, 95
5, 23280, Note_on_c, 2, 58, 31
5, 23280, Note_on_c, 2, 70, 95
5, 23280, Note_on_c, 2, 54, 31
5, 23280, Note_on_c, 2, 66, 95
5, 23280, Note_on_c, 2, 50, 31
5, 23280, Note_on_c, 2, 62, 95
5, 23280, Note_on_c, 2, 47, 31
5, 23280, Note_on_c, 2, 59, 95
5, 23760, Note_off_c, 2, 58, 31
5, 23760, Note_off_c, 2, 70, 95
5, 23760, Note_off_c, 2, 54, 31
5, 23760, Note_off_c, 2, 66, 95
5, 23760, Note_off_c, 2, 50, 31
5, 23760, Note_off_c, 2, 62, 95
5, 23760, Note_off_c, 2, 47, 31
5, 23760, Note_off_c, 2, 59, 95
5, 23760, Note_on_c, 2, 56, 31
5, 23760, Note_on_c, 2, 68, 95
5, 24240, Note_off_c, 2, 56, 31
5, 24240, Note_off_c, 2, 68, 95
5, 24240, Note_on_c, 2, 47, 31
5, 24240, Note_on_c, 2, 59, 95
5, 24480, Note_off_c, 2, 47, 31
5, 24480, Note_off_c, 2, 59, 95
5, 24480, Note_on_c, 2, 56, 31
5, 24480, Note_on_c, 2, 68, 95
5, 24480, Note_on_c, 2, 54, 31
5, 24480, Note_on_c, 2, 66, 95
5, 24480, Note_on_c, 2, 51, 31
5, 24480, Note_on_c, 2, 63, 95
5, 24960, Note_off_c, 2, 56, 31
5, 24960, Note_off_c, 2, 68, 95
5, 24960, Note_off_c, 2, 54, 31
5, 24960, Note_off_c, 2, 66, 95
5, 24960, Note_off_c, 2, 51, 31
5, 24960, Note_off_c, 2, 63, 95
5, 24960, Note_on_c, 2, 58, 31
5, 24960, Note_on_c, 2, 70, 95
5, 24960, Note_on_c, 2, 54, 31
5, 24960, Note_on_c, 2, 66, 95
5, 24960, Note_on_c, 2, 49, 31
5, 24960, Note_on_c, 2, 61, 95
5, 26160, Note_off_c, 2, 58, 31
5, 26160, Note_off_c, 2, 70, 95
5, 26160, Note_off_c, 2, 54, 31
5, 26160, Note_off_c, 2, 66, 95
5, 26160, Note_off_c, 2, 49, 31
5, 26160, Note_off_c, 2, 61, 95
5, 26160, Note_on_c, 2, 49, 31
5, 26160, Note_on_c, 2, 61, 95
5, 26400, Note_off_c, 2, 49, 31
5, 26400, Note_off_c, 2, 61, 95
5, 26400, Note_on_c, 2, 58, 31
5, 26400, Note_on_c, 2, 70, 95
5, 26400, Note_on_c, 2, 54, 31
5, 26400, Note_on_c, 2, 66, 95
5, 26640, Note_off_c, 2, 58, 31
5, 26640, Note_off_c, 2, 70, 95
5, 26640, Note_off_c, 2, 54, 31
5, 26640, Note_off_c, 2, 66, 95
5, 26640, Note_on_c, 2, 56, 31
5, 26640, Note_on_c, 2, 68, 95
5, 26640, Note_on_c, 2, 53, 31
5, 26640, Note_on_c, 2, 65, 95
5, 26640, Note_on_c, 2, 49, 31
5, 26640, Note_on_c, 2, 61, 95
5, 28080, Note_off_c, 2, 56, 31
5, 28080, Note_off_c, 2, 68, 95
5, 28080, Note_off_c, 2, 53, 31
5, 28080, Note_off_c, 2, 65, 95
5, 28080, Note_off_c, 2, 49, 31
5, 28080, Note_off_c, 2, 61, 95
5, 28080, Note_on_c, 2, 49, 31
5, 28080, Note_on_c, 2, 61, 95
5, 28320, Note_off_c, 2, 49, 31
5, 28320, Note_off_c, 2, 61, 95
5, 28320, Note_on_c, 2, 56, 31
5, 28320, Note_on_c, 2, 68, 95
5, 28320, Note_on_c, 2, 53, 31
5, 28320, Note_on_c, 2, 65, 95
5, 28560, Note_off_c, 2, 56, 31
5, 28560, Note_off_c, 2, 68, 95
5, 28560, Note_off_c, 2, 53, 31
5, 28560, Note_off_c, 2, 65, 95
5, 28560, Note_on_c, 2, 59, 31
5, 28560, Note_on_c, 2, 71, 95
5, 28560, Note_on_c, 2, 54, 31
5, 28560, Note_on_c, 2, 66, 95
5, 28560, Note_on_c, 2, 51, 31
5, 28560, Note_on_c, 2, 63, 95
5, 30000, Note_off_c, 2, 59, 31
5, 30000, Note_off_c, 2, 71, 95
5, 30000, Note_off_c, 2, 54, 31
5, 30000, Note_off_c, 2, 66, 95
5, 30000, Note_off_c, 2, 51, 31
5, 30000, Note_off_c, 2, 63, 95
5, 30000, Note_on_c, 2, 51, 31
5, 30000, Note_on_c, 2, 63, 95
5, 30240, Note_off_c, 2, 51, 31
5, 30240, Note_off_c, 2, 63, 95
5, 30240, Note_on_c, 2, 59, 31
5, 30240, Note_on_c, 2, 71, 95
5, 30240, Note_on_c, 2, 54, 31
5, 30240, Note_on_c, 2, 66, 95
5, 30480, Note_off_c, 2, 59, 31
5, 30480, Note_off_c, 2, 71, 95
5, 30480, Note_off_c, 2, 54, 31
5, 30480, Note_off_c, 2, 66, 95
5, 30480, Note_on_c, 2, 58, 31
5, 30480, Note_on_c, 2, 70, 95
5, 30480, Note_on_c, 2, 54, 31
5, 30480, Note_on_c, 2, 66, 95
5, 30480, Note_on_c, 2, 49, 31
5, 30480, Note_on_c, 2, 61, 95
5, 31920, Note_off_c, 2, 58, 31
5, 31920, Note_off_c, 2, 70, 95
5, 31920, Note_off_c, 2, 54, 31
5, 31920, Note_off_c, 2, 66, 95
5, 31920, Note_off_c, 2, 49, 31
5, 31920, Note_off_c, 2, 61, 95
5, 31920, Note_on_c, 2, 49, 31
5, 31920, Note_on_c, 2, 61, 95
5, 32160, Note_off_c, 2, 49, 31
5, 32160, Note_off_c, 2, 61, 95
5, 32160, Note_on_c, 2, 56, 31
5, 32160, Note_on_c, 2, 68, 95
5, 32400, Note_off_c, 2, 56, 31
5, 32400, Note_off_c, 2, 68, 95
5, 32400, Note_on_c, 2, 58, 31
5, 32400, Note_on_c, 2, 70, 95
5, 32400, Note_on_c, 2, 54, 31
5, 32400, Note_on_c, 2, 66, 95
5, 32400, Note_on_c, 2, 49, 31
5, 32400, Note_on_c, 2, 61, 95
5, 33840, Note_off_c, 2, 58, 31
5, 33840, Note_off_c, 2, 70, 95
5, 33840, Note_off_c, 2, 54, 31
5, 33840, Note_off_c, 2, 66, 95
5, 33840, Note_off_c, 2, 49, 31
5, 33840, Note_off_c, 2, 61, 95
5, 33840, Note_on_c, 2, 61, 31
5, 33840, Note_on_c, 2, 73, 95
5, 34080, Note_off_c, 2, 61, 31
5, 34080, Note_off_c, 2, 73, 95
5, 34080, Note_on_c, 2, 59, 31
5, 34080, Note_on_c, 2, 71, 95
5, 34320, Note_off_c, 2, 59, 31
5, 34320, Note_off_c, 2, 71, 95
5, 34320, Note_on_c, 2, 58, 31
5, 34320, Note_on_c, 2, 70, 95
5, 34320, Note_on_c, 2, 54, 31
5, 34320, Note_on_c, 2, 66, 95
5, 34320, Note_on_c, 2, 49, 31
5, 34320, Note_on_c, 2, 61, 95
5, 34560, Note_off_c, 2, 58, 31
5, 34560, Note_off_c, 2, 70, 95
5, 34560, Note_off_c, 2, 54, 31
5, 34560, Note_off_c, 2, 66, 95
5, 34560, Note_off_c, 2, 49, 31
5, 34560, Note_off_c, 2, 61, 95
5, 34560, Note_on_c, 2, 54, 31
5, 34560, Note_on_c, 2, 66, 95
5, 35040, Note_off_c, 2, 54, 31
5, 35040, Note_off_c, 2, 66, 95
5, 35040, Note_on_c, 2, 46, 31
5, 35040, Note_on_c, 2, 58, 95
5, 35280, Note_off_c, 2, 46, 31
5, 35280, Note_off_c, 2, 58, 95
5, 35280, Note_on_c, 2, 54, 31
5, 35280, Note_on_c, 2, 66, 95
5, 35760, Note_off_c, 2, 54, 31
5, 35760, Note_off_c, 2, 66, 95
5, 35760, Note_on_c, 2, 61, 31
5, 35760, Note_on_c, 2, 73, 95
5, 35760, Note_on_c, 2, 49, 31
5, 35760, Note_on_c, 2, 61, 95
5, 36000, Note_off_c, 2, 61, 31
5, 36000, Note_off_c, 2, 73, 95
5, 36000, Note_off_c, 2, 49, 31
5, 36000, Note_off_c, 2, 61, 95
5, 36000, Note_on_c, 2, 59, 31
5, 36000, Note_on_c, 2, 71, 95
5, 36000, Note_on_c, 2, 54, 31
5, 36000, Note_on_c, 2, 66, 95
5, 36000, Note_on_c, 2, 49, 31
5, 36000, Note_on_c, 2, 61, 95
5, 36240, Note_off_c, 2, 59, 31
5, 36240, Note_off_c, 2, 71, 95
5, 36240, Note_off_c, 2, 54, 31
5, 36240, Note_off_c, 2, 66, 95
5, 36240, Note_off_c, 2, 49, 31
5, 36240, Note_off_c, 2, 61, 95
5, 36240, Note_on_c, 2, 58, 31
5, 36240, Note_on_c, 2, 70, 95
5, 36240, Note_on_c, 2, 52, 31
5, 36240, Note_on_c, 2, 64, 95
5, 36240, Note_on_c, 2, 49, 31
5, 36240, Note_on_c, 2, 61, 95
5, 37680, Note_off_c, 2, 58, 31
5, 37680, Note_off_c, 2, 70, 95
5, 37680, Note_off_c, 2, 52, 31
5, 37680, Note_off_c, 2, 64, 95
5, 37680, Note_off_c, 2, 49, 31
5, 37680, Note_off_c, 2, 61, 95
5, 37680, Note_on_c, 2, 61, 31
5, 37680, Note_on_c, 2, 73, 95
5, 37920, Note_off_c, 2, 61, 31
5, 37920, Note_off_c, 2, 73, 95
5, 37920, Note_on_c, 2, 59, 31
5, 37920, Note_on_c, 2, 71, 95
5, 37920, Note_on_c, 2, 52, 31
5, 37920, Note_on_c, 2, 64, 95
5, 37920, Note_on_c, 2, 49, 31
5, 37920, Note_on_c, 2, 61, 95
5, 38160, Note_off_c, 2, 59, 31
5, 38160, Note_off_c, 2, 71, 95
5, 38160, Note_off_c, 2, 52, 31
5, 38160, Note_off_c, 2, 64, 95
5, 38160, Note_off_c, 2, 49, 31
5, 38160, Note_off_c, 2, 61, 95
5, 38160, Note_on_c, 2, 58, 31
5, 38160, Note_on_c, 2, 70, 95
5, 38160, Note_on_c, 2, 51, 31
5, 38160, Note_on_c, 2, 63, 95
5, 38160, Note_on_c, 2, 49, 31
5, 38160, Note_on_c, 2, 61, 95
5, 38880, Note_off_c, 2, 58, 31
5, 38880, Note_off_c, 2, 70, 95
5, 38880, Note_off_c, 2, 51, 31
5, 38880, Note_off_c, 2, 63, 95
5, 38880, Note_off_c, 2, 49, 31
5, 38880, Note_off_c, 2, 61, 95
5, 38880, Note_on_c, 2, 58, 31
5, 38880, Note_on_c, 2, 70, 95
5, 39120, Note_off_c, 2, 58, 31
5, 39120, Note_off_c, 2, 70, 95
5, 39120, Note_on_c, 2, 58, 31
5, 39120, Note_on_c, 2, 70, 95
5, 39600, Note_off_c, 2, 58, 31
5, 39600, Note_off_c, 2, 70, 95
5, 39600, Note_on_c, 2, 59, 31
5, 39600, Note_on_c, 2, 71, 95
5, 39840, Note_off_c, 2, 59, 31
5, 39840, Note_off_c, 2, 71, 95
5, 39840, Note_on_c, 2, 61, 31
5, 39840, Note_on_c, 2, 73, 95
5, 39840, Note_on_c, 2, 51, 31
5, 39840, Note_on_c, 2, 63, 95
5, 39840, Note_on_c, 2, 49, 31
5, 39840, Note_on_c, 2, 61, 95
5, 40080, Note_off_c, 2, 61, 31
5, 40080, Note_off_c, 2, 73, 95
5, 40080, Note_off_c, 2, 51, 31
5, 40080, Note_off_c, 2, 63, 95
5, 40080, Note_off_c, 2, 49, 31
5, 40080, Note_off_c, 2, 61, 95
5, 40080, Note_on_c, 2, 62, 31
5, 40080, Note_on_c, 2, 74, 95
5, 40080, Note_on_c, 2, 54, 31
5, 40080, Note_on_c, 2, 66, 95
5, 40080, Note_on_c, 2, 50, 31
5, 40080, Note_on_c, 2, 62, 95
5, 40080, Note_on_c, 2, 47, 31
5, 40080, Note_on_c, 2, 59, 95
5, 40560, Note_off_c, 2, 62, 31
5, 40560, Note_off_c, 2, 74, 95
5, 40560, Note_off_c, 2, 54, 31
5, 40560, Note_off_c, 2, 66, 95
5, 40560, Note_off_c, 2, 50, 31
5, 40560, Note_off_c, 2, 62, 95
5, 40560, Note_off_c, 2, 47, 31
5, 40560, Note_off_c, 2, 59, 95
5, 40560, Note_on_c, 2, 58, 31
5, 40560, Note_on_c, 2, 70, 95
5, 40560, Note_on_c, 2, 54, 31
5, 40560, Note_on_c, 2, 66, 95
5, 40560, Note_on_c, 2, 50, 31
5, 40560, Note_on_c, 2, 62, 95
5, 40560, Note_on_c, 2, 47, 31
5, 40560, Note_on_c, 2, 59, 95
5, 41040, Note_off_c, 2, 58, 31
5, 41040, Note_off_c, 2, 70, 95
5, 41040, Note_off_c, 2, 54, 31
5, 41040, Note_off_c, 2, 66, 95
5, 41040, Note_off_c, 2, 50, 31
5, 41040, Note_off_c, 2, 62, 95
5, 41040, Note_off_c, 2, 47, 31
5, 41040, Note_off_c, 2, 59, 95
5, 41040, Note_on_c, 2, 56, 31
5, 41040, Note_on_c, 2, 68, 95
5, 41520, Note_off_c, 2, 56, 31
5, 41520, Note_off_c, 2, 68, 95
5, 41520, Note_on_c, 2, 47, 31
5, 41520, Note_on_c, 2, 59, 95
5, 41760, Note_off_c, 2, 47, 31
5, 41760, Note_off_c, 2, 59, 95
5, 41760, Note_on_c, 2, 56, 31
5, 41760, Note_on_c, 2, 68, 95
5, 41760, Note_on_c, 2, 54, 31
5, 41760, Note_on_c, 2, 66, 95
5, 41760, Note_on_c, 2, 51, 31
5, 41760, Note_on_c, 2, 63, 95
5, 42240, Note_off_c, 2, 56, 31
5, 42240, Note_off_c, 2, 68, 95
5, 42240, Note_off_c, 2, 54, 31
5, 42240, Note_off_c, 2, 66, 95
5, 42240, Note_off_c, 2, 51, 31
5, 42240, Note_off_c, 2, 63, 95
5, 42240, Note_on_c, 2, 58, 31
5, 42240, Note_on_c, 2, 70, 95
5, 42240, Note_on_c, 2, 54, 31
5, 42240, Note_on_c, 2, 66, 95
5, 42240, Note_on_c, 2, 49, 31
5, 42240, Note_on_c, 2, 61, 95
5, 43440, Note_off_c, 2, 58, 31
5, 43440, Note_off_c, 2, 70, 95
5, 43440, Note_off_c, 2, 54, 31
5, 43440, Note_off_c, 2, 66, 95
5, 43440, Note_off_c, 2, 49, 31
5, 43440, Note_off_c, 2, 61, 95
5, 43440, Note_on_c, 2, 49, 31
5, 43440, Note_on_c, 2, 61, 95
5, 43680, Note_off_c, 2, 49, 31
5, 43680, Note_off_c, 2, 61, 95
5, 43680, Note_on_c, 2, 58, 31
5, 43680, Note_on_c, 2, 70, 95
5, 43680, Note_on_c, 2, 54, 31
5, 43680, Note_on_c, 2, 66, 95
5, 43920, Note_off_c, 2, 58, 31
5, 43920, Note_off_c, 2, 70, 95
5, 43920, Note_off_c, 2, 54, 31
5, 43920, Note_off_c, 2, 66, 95
5, 43920, Note_on_c, 2, 56, 31
5, 43920, Note_on_c, 2, 68, 95
5, 43920, Note_on_c, 2, 53, 31
5, 43920, Note_on_c, 2, 65, 95
5, 43920, Note_on_c, 2, 49, 31
5, 43920, Note_on_c, 2, 61, 95
5, 45360, Note_off_c, 2, 56, 31
5, 45360, Note_off_c, 2, 68, 95
5, 45360, Note_off_c, 2, 53, 31
5, 45360, Note_off_c, 2, 65, 95
5, 45360, Note_off_c, 2, 49, 31
5, 45360, Note_off_c, 2, 61, 95
5, 45360, Note_on_c, 2, 49, 31
5, 45360, Note_on_c, 2, 61, 95
5, 45600, Note_off_c, 2, 49, 31
5, 45600, Note_off_c, 2, 61, 95
5, 45600, Note_on_c, 2, 56, 31
5, 45600, Note_on_c, 2, 68, 95
5, 45600, Note_on_c, 2, 53, 31
5, 45600, Note_on_c, 2, 65, 95
5, 45840, Note_off_c, 2, 56, 31
5, 45840, Note_off_c, 2, 68, 95
5, 45840, Note_off_c, 2, 53, 31
5, 45840, Note_off_c, 2, 65, 95
5, 45840, Note_on_c, 2, 59, 31
5, 45840, Note_on_c, 2, 71, 95
5, 45840, Note_on_c, 2, 54, 31
5, 45840, Note_on_c, 2, 66, 95
5, 45840, Note_on_c, 2, 51, 31
5, 45840, Note_on_c, 2, 63, 95
5, 47280, Note_off_c, 2, 59, 31
5, 47280, Note_off_c, 2, 71, 95
5, 47280, Note_off_c, 2, 54, 31
5, 47280, Note_off_c, 2, 66, 95
5, 47280, Note_off_c, 2, 51, 31
5, 47280, Note_off_c, 2, 63, 95
5, 47280, Note_on_c, 2, 51, 31
5, 47280, Note_on_c, 2, 63, 95
5, 47520, Note_off_c, 2, 51, 31
5, 47520, Note_off_c, 2, 63, 95
5, 47520, Note_on_c, 2, 59, 31
5, 47520, Note_on_c, 2, 71, 95
5, 47520, Note_on_c, 2, 54, 31
5, 47520, Note_on_c, 2, 66, 95
5, 47760, Note_off_c, 2, 59, 31
5, 47760, Note_off_c, 2, 71, 95
5, 47760, Note_off_c, 2, 54, 31
5, 47760, Note_off_c, 2, 66, 95
5, 47760, Note_on_c, 2, 58, 31
5, 47760, Note_on_c, 2, 70, 95
5, 47760, Note_on_c, 2, 54, 31
5, 47760, Note_on_c, 2, 66, 95
5, 47760, Note_on_c, 2, 49, 31
5, 47760, Note_on_c, 2, 61, 95
5, 49200, Note_off_c, 2, 58, 31
5, 49200, Note_off_c, 2, 70, 95
5, 49200, Note_off_c, 2, 54, 31
5, 49200, Note_off_c, 2, 66, 95
5, 49200, Note_off_c, 2, 49, 31
5, 49200, Note_off_c, 2, 61, 95
5, 49200, Note_on_c, 2, 49, 31
5, 49200, Note_on_c, 2, 61, 95
5, 49440, Note_off_c, 2, 49, 31
5, 49440, Note_off_c, 2, 61, 95
5, 49440, Note_on_c, 2, 56, 31
5, 49440, Note_on_c, 2, 68, 95
5, 49680, Note_off_c, 2, 56, 31
5, 49680, Note_off_c, 2, 68, 95
5, 49680, Note_on_c, 2, 58, 31
5, 49680, Note_on_c, 2, 70, 95
5, 49680, Note_on_c, 2, 54, 31
5, 49680, Note_on_c, 2, 66, 95
5, 49680, Note_on_c, 2, 49, 31
5, 49680, Note_on_c, 2, 61, 95
5, 51120, Note_off_c, 2, 58, 31
5, 51120, Note_off_c, 2, 70, 95
5, 51120, Note_off_c, 2, 54, 31
5, 51120, Note_off_c, 2, 66, 95
5, 51120, Note_off_c, 2, 49, 31
5, 51120, Note_off_c, 2, 61, 95
5, 51120, Note_on_c, 2, 49, 31
5, 51120, Note_on_c, 2, 61, 95
5, 51360, Note_off_c, 2, 49, 31
5, 51360, Note_off_c, 2, 61, 95
5, 51360, Note_on_c, 2, 58, 31
5, 51360, Note_on_c, 2, 70, 95
5, 51360, Note_on_c, 2, 54, 31
5, 51360, Note_on_c, 2, 66, 95
5, 51840, Note_off_c, 2, 58, 31
5, 51840, Note_off_c, 2, 70, 95
5, 51840, Note_off_c, 2, 54, 31
5, 51840, Note_off_c, 2, 66, 95
5, 51840, Note_on_c, 2, 54, 31
5, 51840, Note_on_c, 2, 66, 95
5, 52320, Note_off_c, 2, 54, 31
5, 52320, Note_off_c, 2, 66, 95
5, 52320, Note_on_c, 2, 46, 31
5, 52320, Note_on_c, 2, 58, 95
5, 52560, Note_off_c, 2, 46, 31
5, 52560, Note_off_c, 2, 58, 95
5, 52560, Note_on_c, 2, 54, 31
5, 52560, Note_on_c, 2, 66, 95
5, 53040, Note_off_c, 2, 54, 31
5, 53040, Note_off_c, 2, 66, 95
5, 53040, Note_on_c, 2, 61, 31
5, 53040, Note_on_c, 2, 73, 95
5, 53040, Note_on_c, 2, 49, 31
5, 53040, Note_on_c, 2, 61, 95
5, 53280, Note_off_c, 2, 61, 31
5, 53280, Note_off_c, 2, 73, 95
5, 53280, Note_off_c, 2, 49, 31
5, 53280, Note_off_c, 2, 61, 95
5, 53280, Note_on_c, 2, 59, 31
5, 53280, Note_on_c, 2, 71, 95
5, 53280, Note_on_c, 2, 54, 31
5, 53280, Note_on_c, 2, 66, 95
5, 53280, Note_on_c, 2, 49, 31
5, 53280, Note_on_c, 2, 61, 95
5, 53520, Note_off_c, 2, 59, 31
5, 53520, Note_off_c, 2, 71, 95
5, 53520, Note_off_c, 2, 54, 31
5, 53520, Note_off_c, 2, 66, 95
5, 53520, Note_off_c, 2, 49, 31
5, 53520, Note_off_c, 2, 61, 95
5, 53520, Note_on_c, 2, 58, 31
5, 53520, Note_on_c, 2, 70, 95
5, 53520, Note_on_c, 2, 52, 31
5, 53520, Note_on_c, 2, 64, 95
5, 53520, Note_on_c, 2, 49, 31
5, 53520, Note_on_c, 2, 61, 95
5, 54960, Note_off_c, 2, 58, 31
5, 54960, Note_off_c, 2, 70, 95
5, 54960, Note_off_c, 2, 52, 31
5, 54960, Note_off_c, 2, 64, 95
5, 54960, Note_off_c, 2, 49, 31
5, 54960, Note_off_c, 2, 61, 95
5, 54960, Note_on_c, 2, 61, 31
5, 54960, Note_on_c, 2, 73, 95
5, 55200, Note_off_c, 2, 61, 31
5, 55200, Note_off_c, 2, 73, 95
5, 55200, Note_on_c, 2, 59, 31
5, 55200, Note_on_c, 2, 71, 95
5, 55200, Note_on_c, 2, 52, 31
5, 55200, Note_on_c, 2, 64, 95
5, 55200, Note_on_c, 2, 49, 31
5, 55200, Note_on_c, 2, 61, 95
5, 55440, Note_off_c, 2, 59, 31
5, 55440, Note_off_c, 2, 71, 95
5, 55440, Note_off_c, 2, 52, 31
5, 55440, Note_off_c, 2, 64, 95
5, 55440, Note_off_c, 2, 49, 31
5, 55440, Note_off_c, 2, 61, 95
5, 55440, Note_on_c, 2, 58, 31
5, 55440, Note_on_c, 2, 70, 95
5, 55440, Note_on_c, 2, 51, 31
5, 55440, Note_on_c, 2, 63, 95
5, 55440, Note_on_c, 2, 49, 31
5, 55440, Note_on_c, 2, 61, 95
5, 56160, Note_off_c, 2, 58, 31
5, 56160, Note_off_c, 2, 70, 95
5, 56160, Note_off_c, 2, 51, 31
5, 56160, Note_off_c, 2, 63, 95
5, 56160, Note_off_c, 2, 49, 31
5, 56160, Note_off_c, 2, 61, 95
5, 56160, Note_on_c, 2, 58, 31
5, 56160, Note_on_c, 2, 70, 95
5, 56400, Note_off_c, 2, 58, 31
5, 56400, Note_off_c, 2, 70, 95
5, 56400, Note_on_c, 2, 58, 31
5, 56400, Note_on_c, 2, 70, 95
5, 56880, Note_off_c, 2, 58, 31
5, 56880, Note_off_c, 2, 70, 95
5, 56880, Note_on_c, 2, 59, 31
5, 56880, Note_on_c, 2, 71, 95
5, 57120, Note_off_c, 2, 59, 31
5, 57120, Note_off_c, 2, 71, 95
5, 57120, Note_on_c, 2, 61, 31
5, 57120, Note_on_c, 2, 73, 95
5, 57120, Note_on_c, 2, 51, 31
5, 57120, Note_on_c, 2, 63, 95
5, 57120, Note_on_c, 2, 49, 31
5, 57120, Note_on_c, 2, 61, 95
5, 57360, Note_off_c, 2, 61, 31
5, 57360, Note_off_c, 2, 73, 95
5, 57360, Note_off_c, 2, 51, 31
5, 57360, Note_off_c, 2, 63, 95
5, 57360, Note_off_c, 2, 49, 31
5, 57360, Note_off_c, 2, 61, 95
5, 57360, Note_on_c, 2, 62, 31
5, 57360, Note_on_c, 2, 74, 95
5, 57360, Note_on_c, 2, 54, 31
5, 57360, Note_on_c, 2, 66, 95
5, 57360, Note_on_c, 2, 50, 31
5, 57360, Note_on_c, 2, 62, 95
5, 57360, Note_on_c, 2, 47, 31
5, 57360, Note_on_c, 2, 59, 95
5, 57840, Note_off_c, 2, 62, 31
5, 57840, Note_off_c, 2, 74, 95
5, 57840, Note_off_c, 2, 54, 31
5, 57840, Note_off_c, 2, 66, 95
5, 57840, Note_off_c, 2, 50, 31
5, 57840, Note_off_c, 2, 62, 95
5, 57840, Note_off_c, 2, 47, 31
5, 57840, Note_off_c, 2, 59, 95
5, 57840, Note_on_c, 2, 58, 31
5, 57840, Note_on_c, 2, 70, 95
5, 57840, Note_on_c, 2, 54, 31
5, 57840, Note_on_c, 2, 66, 95
5, 57840, Note_on_c, 2, 50, 31
5, 57840, Note_on_c, 2, 62, 95
5, 57840, Note_on_c, 2, 47, 31
5, 57840, Note_on_c, 2, 59, 95
5, 58320, Note_off_c, 2, 58, 31
5, 58320, Note_off_c, 2, 70, 95
5, 58320, Note_off_c, 2, 54, 31
5, 58320, Note_off_c, 2, 66, 95
5, 58320, Note_off_c, 2, 50, 31
5, 58320, Note_off_c, 2, 62, 95
5, 58320, Note_off_c, 2, 47, 31
5, 58320, Note_off_c, 2, 59, 95
5, 58320, Note_on_c, 2, 56, 31
5, 58320, Note_on_c, 2, 68, 95
5, 58800, Note_off_c, 2, 56, 31
5, 58800, Note_off_c, 2, 68, 95
5, 58800, Note_on_c, 2, 47, 31
5, 58800, Note_on_c, 2, 59, 95
5, 59040, Note_off_c, 2, 47, 31
5, 59040, Note_off_c, 2, 59, 95
5, 59040, Note_on_c, 2, 56, 31
5, 59040, Note_on_c, 2, 68, 95
5, 59040, Note_on_c, 2, 54, 31
5, 59040, Note_on_c, 2, 66, 95
5, 59040, Note_on_c, 2, 51, 31
5, 59040, Note_on_c, 2, 63, 95
5, 59520, Note_off_c, 2, 56, 31
5, 59520, Note_off_c, 2, 68, 95
5, 59520, Note_off_c, 2, 54, 31
5, 59520, Note_off_c, 2, 66, 95
5, 59520, Note_off_c, 2, 51, 31
5, 59520, Note_off_c, 2, 63, 95
5, 59520, Note_on_c, 2, 58, 31
5, 59520, Note_on_c, 2, 70, 95
5, 59520, Note_on_c, 2, 54, 31
5, 59520, Note_on_c, 2, 66, 95
5, 59520, Note_on_c, 2, 49, 31
5, 59520, Note_on_c, 2, 61, 95
5, 60720, Note_off_c, 2, 58, 31
5, 60720, Note_off_c, 2, 70, 95
5, 60720, Note_off_c, 2, 54, 31
5, 60720, Note_off_c, 2, 66, 95
5, 60720, Note_off_c, 2, 49, 31
5, 60720, Note_off_c, 2, 61, 95
5, 60720, Note_on_c, 2, 49, 31
5, 60720, Note_on_c, 2, 61, 95
5, 60960, Note_off_c, 2, 49, 31
5, 60960, Note_off_c, 2, 61, 95
5, 60960, Note_on_c, 2, 58, 31
5, 60960, Note_on_c, 2, 70, 95
5, 60960, Note_on_c, 2, 54, 31
5, 60960, Note_on_c, 2, 66, 95
5, 61200, Note_off_c, 2, 58, 31
5, 61200, Note_off_c, 2, 70, 95
5, 61200, Note_off_c, 2, 54, 31
5, 61200, Note_off_c, 2, 66, 95
5, 61200, Note_on_c, 2, 56, 31
5, 61200, Note_on_c, 2, 68, 95
5, 61200, Note_on_c, 2, 53, 31
5, 61200, Note_on_c, 2, 65, 95
5, 61200, Note_on_c, 2, 49, 31
5, 61200, Note_on_c, 2, 61, 95
5, 62640, Note_off_c, 2, 56, 31
5, 62640, Note_off_c, 2, 68, 95
5, 62640, Note_off_c, 2, 53, 31
5, 62640, Note_off_c, 2, 65, 95
5, 62640, Note_off_c, 2, 49, 31
5, 62640, Note_off_c, 2, 61, 95
5, 62640, Note_on_c, 2, 49, 31
5, 62640, Note_on_c, 2, 61, 95
5, 62880, Note_off_c, 2, 49, 31
5, 62880, Note_off_c, 2, 61, 95
5, 62880, Note_on_c, 2, 56, 31
5, 62880, Note_on_c, 2, 68, 95
5, 62880, Note_on_c, 2, 53, 31
5, 62880, Note_on_c, 2, 65, 95
5, 63120, Note_off_c, 2, 56, 31
5, 63120, Note_off_c, 2, 68, 95
5, 63120, Note_off_c, 2, 53, 31
5, 63120, Note_off_c, 2, 65, 95
5, 63120, Note_on_c, 2, 59, 31
5, 63120, Note_on_c, 2, 71, 95
5, 63120, Note_on_c, 2, 54, 31
5, 63120, Note_on_c, 2, 66, 95
5, 63120, Note_on_c, 2, 51, 31
5, 63120, Note_on_c, 2, 63, 95
5, 64560, Note_off_c, 2, 59, 31
5, 64560, Note_off_c, 2, 71, 95
5, 64560, Note_off_c, 2, 54, 31
5, 64560, Note_off_c, 2, 66, 95
5, 64560, Note_off_c, 2, 51, 31
5, 64560, Note_off_c, 2, 63, 95
5, 64560, Note_on_c, 2, 51, 31
5, 64560, Note_on_c, 2, 63, 95
5, 64800, Note_off_c, 2, 51, 31
5, 64800, Note_off_c, 2, 63, 95
5, 64800, Note_on_c, 2, 59, 31
5, 64800, Note_on_c, 2, 71, 95
5, 64800, Note_on_c, 2, 54, 31
5, 64800, Note_on_c, 2, 66, 95
5, 65040, Note_off_c, 2, 59, 31
5, 65040, Note_off_c, 2, 71, 95
5, 65040, Note_off_c, 2, 54, 31
5, 65040, Note_off_c, 2, 66, 95
5, 65040, Note_on_c, 2, 58, 31
5, 65040, Note_on_c, 2, 70, 95
5, 65040, Note_on_c, 2, 54, 31
5, 65040, Note_on_c, 2, 66, 95
5, 65040, Note_on_c, 2, 49, 31
5, 65040, Note_on_c, 2, 61, 95
5, 66480, Note_off_c, 2, 58, 31
5, 66480, Note_off_c, 2, 70, 95
5, 66480, Note_off_c, 2, 54, 31
5, 66480, Note_off_c, 2, 66, 95
5, 66480, Note_off_c, 2, 49, 31
5, 66480, Note_off_c, 2, 61, 95
5, 66480, Note_on_c, 2, 49, 31
5, 66480, Note_on_c, 2, 61, 95
5, 66720, Note_off_c, 2, 49, 31
5, 66720, Note_off_c, 2, 61, 95
5, 66720, Note_on_c, 2, 56, 31
5, 66720, Note_on_c, 2, 68, 95
5, 66960, Note_off_c, 2, 56, 31
5, 66960, Note_off_c, 2, 68, 95
5, 66960, Note_on_c, 2, 58, 31
5, 66960, Note_on_c, 2, 70, 95
5, 66960, Note_on_c, 2, 54, 31
5, 66960, Note_on_c, 2, 66, 95
5, 66960, Note_on_c, 2, 49, 31
5, 66960, Note_on_c, 2, 61, 95
5, 68400, Note_off_c, 2, 58, 31
5, 68400, Note_off_c, 2, 70, 95
5, 68400, Note_off_c, 2, 54, 31
5, 68400, Note_off_c, 2, 66, 95
5, 68400, Note_off_c, 2, 49, 31
5, 68400, Note_off_c, 2, 61, 95
5, 68400, Note_on_c, 2, 49, 31
5, 68400, Note_on_c, 2, 61, 95
5, 68640, Note_off_c, 2, 49, 31
5, 68640, Note_off_c, 2, 61, 95
5, 68640, Note_on_c, 2, 58, 31
5, 68640, Note_on_c, 2, 70, 95
5, 68640, Note_on_c, 2, 54, 31
5, 68640, Note_on_c, 2, 66, 95
5, 69120, Note_off_c, 2, 58, 31
5, 69120, Note_off_c, 2, 70, 95
5, 69120, Note_off_c, 2, 54, 31
5, 69120, Note_off_c, 2, 66, 95
5, 69120, Note_on_c, 2, 54, 31
5, 69120, Note_on_c, 2, 66, 95
5, 69600, Note_off_c, 2, 54, 31
5, 69600, Note_off_c, 2, 66, 95
5, 69600, Note_on_c, 2, 46, 31
5, 69600, Note_on_c, 2, 58, 95
5, 69840, Note_off_c, 2, 46, 31
5, 69840, Note_off_c, 2, 58, 95
5, 69840, Note_on_c, 2, 54, 31
5, 69840, Note_on_c, 2, 66, 95
5, 70320, Note_off_c, 2, 54, 31
5, 70320, Note_off_c, 2, 66, 95
5, 70320, Note_on_c, 2, 61, 31
5, 70320, Note_on_c, 2, 73, 95
5, 70320, Note_on_c, 2, 49, 31
5, 70320, Note_on_c, 2, 61, 95
5, 70560, Note_off_c, 2, 61, 31
5, 70560, Note_off_c, 2, 73, 95
5, 70560, Note_off_c, 2, 49, 31
5, 70560, Note_off_c, 2, 61, 95
5, 70560, Note_on_c, 2, 59, 31
5, 70560, Note_on_c, 2, 71, 95
5, 70560, Note_on_c, 2, 54, 31
5, 70560, Note_on_c, 2, 66, 95
5, 70560, Note_on_c, 2, 49, 31
5, 70560, Note_on_c, 2, 61, 95
5, 70800, Note_off_c, 2, 59, 31
5, 70800, Note_off_c, 2, 71, 95
5, 70800, Note_off_c, 2, 54, 31
5, 70800, Note_off_c, 2, 66, 95
5, 70800, Note_off_c, 2, 49, 31
5, 70800, Note_off_c, 2, 61, 95
5, 70800, Note_on_c, 2, 58, 31
5, 70800, Note_on_c, 2, 70, 95
5, 70800, Note_on_c, 2, 52, 31
5, 70800, Note_on_c, 2, 64, 95
5, 70800, Note_on_c, 2, 49, 31
5, 70800, Note_on_c, 2, 61, 95
5, 72240, Note_off_c, 2, 58, 31
5, 72240, Note_off_c, 2, 70, 95
5, 72240, Note_off_c, 2, 52, 31
5, 72240, Note_off_c, 2, 64, 95
5, 72240, Note_off_c, 2, 49, 31
5, 72240, Note_off_c, 2, 61, 95
5, 72240, Note_on_c, 2, 61, 31
5, 72240, Note_on_c, 2, 73, 95
5, 72480, Note_off_c, 2, 61, 31
5, 72480, Note_off_c, 2, 73, 95
5, 72480, Note_on_c, 2, 59, 31
5, 72480, Note_on_c, 2, 71, 95
5, 72480, Note_on_c, 2, 52, 31
5, 72480, Note_on_c, 2, 64, 95
5, 72480, Note_on_c, 2, 49, 31
5, 72480, Note_on_c, 2, 61, 95
5, 72720, Note_off_c, 2, 59, 31
5, 72720, Note_off_c, 2, 71, 95
5, 72720, Note_off_c, 2, 52, 31
5, 72720, Note_off_c, 2, 64, 95
5, 72720, Note_off_c, 2, 49, 31
5, 72720, Note_off_c, 2, 61, 95
5, 72720, Note_on_c, 2, 58, 31
5, 72720, Note_on_c, 2, 70, 95
5, 72720, Note_on_c, 2, 51, 31
5, 72720, Note_on_c, 2, 63, 95
5, 72720, Note_on_c, 2, 49, 31
5, 72720, Note_on_c, 2, 61, 95
5, 73440, Note_off_c, 2, 58, 31
5, 73440, Note_off_c, 2, 70, 95
5, 73440, Note_off_c, 2, 51, 31
5, 73440, Note_off_c, 2, 63, 95
5, 73440, Note_off_c, 2, 49, 31
5, 73440, Note_off_c, 2, 61, 95
5, 73440, Note_on_c, 2, 58, 31
5, 73440, Note_on_c, 2, 70, 95
5, 73680, Note_off_c, 2, 58, 31
5, 73680, Note_off_c, 2, 70, 95
5, 73680, Note_on_c, 2, 58, 31
5, 73680, Note_on_c, 2, 70, 95
5, 74160, Note_off_c, 2, 58, 31
5, 74160, Note_off_c, 2, 70, 95
5, 74160, Note_on_c, 2, 59, 31
5, 74160, Note_on_c, 2, 71, 95
5, 74400, Note_off_c, 2, 59, 31
5, 74400, Note_off_c, 2, 71, 95
5, 74400, Note_on_c, 2, 61, 31
5, 74400, Note_on_c, 2, 73, 95
5, 74400, Note_on_c, 2, 51, 31
5, 74400, Note_on_c, 2, 63, 95
5, 74400, Note_on_c, 2, 49, 31
5, 74400, Note_on_c, 2, 61, 95
5, 74640, Note_off_c, 2, 61, 31
5, 74640, Note_off_c, 2, 73, 95
5, 74640, Note_off_c, 2, 51, 31
5, 74640, Note_off_c, 2, 63, 95
5, 74640, Note_off_c, 2, 49, 31
5, 74640, Note_off_c, 2, 61, 95
5, 74640, Note_on_c, 2, 62, 31
5, 74640, Note_on_c, 2, 74, 95
5, 74640, Note_on_c, 2, 54, 31
5, 74640, Note_on_c, 2, 66, 95
5, 74640, Note_on_c, 2, 50, 31
5, 74640, Note_on_c, 2, 62, 95
5, 74640, Note_on_c, 2, 47, 31
5, 74640, Note_on_c, 2, 59, 95
5, 75120, Note_off_c, 2, 62, 31
5, 75120, Note_off_c, 2, 74, 95
5, 75120, Note_off_c, 2, 54, 31
5, 75120, Note_off_c, 2, 66, 95
5, 75120, Note_off_c, 2, 50, 31
5, 75120, Note_off_c, 2, 62, 95
5, 75120, Note_off_c, 2, 47, 31
5, 75120, Note_off_c, 2, 59, 95
5, 75120, Note_on_c, 2, 58, 31
5, 75120, Note_on_c, 2, 70, 95
5, 75120, Note_on_c, 2, 54, 31
5, 75120, Note_on_c, 2, 66, 95
5, 75120, Note_on_c, 2, 50, 31
5, 75120, Note_on_c, 2, 62, 95
5, 75120, Note_on_c, 2, 47, 31
5, 75120, Note_on_c, 2, 59, 95
5, 75600, Note_off_c, 2, 58, 31
5, 75600, Note_off_c, 2, 70, 95
5, 75600, Note_off_c, 2, 54, 31
5, 75600, Note_off_c, 2, 66, 95
5, 75600, Note_off_c, 2, 50, 31
5, 75600, Note_off_c, 2, 62, 95
5, 75600, Note_off_c, 2, 47, 31
5, 75600, Note_off_c, 2, 59, 95
5, 75600, Note_on_c, 2, 56, 31
5, 75600, Note_on_c, 2, 68, 95
5, 76080, Note_off_c, 2, 56, 31
5, 76080, Note_off_c, 2, 68, 95
5, 76080, Note_on_c, 2, 47, 31
5, 76080, Note_on_c, 2, 59, 95
5, 76320, Note_off_c, 2, 47, 31
5, 76320, Note_off_c, 2, 59, 95
5, 76320, Note_on_c, 2, 56, 31
5, 76320, Note_on_c, 2, 68, 95
5, 76320, Note_on_c, 2, 54, 31
5, 76320, Note_on_c, 2, 66, 95
5, 76320, Note_on_c, 2, 51, 31
5, 76320, Note_on_c, 2, 63, 95
5, 76800, Note_off_c, 2, 56, 31
5, 76800, Note_off_c, 2, 68, 95
5, 76800, Note_off_c, 2, 54, 31
5, 76800, Note_off_c, 2, 66, 95
5, 76800, Note_off_c, 2, 51, 31
5, 76800, Note_off_c, 2, 63, 95
5, 76800, Note_on_c, 2, 58, 31
5, 76800, Note_on_c, 2, 70, 95
5, 76800, Note_on_c, 2, 54, 31
5, 76800, Note_on_c, 2, 66, 95
5, 76800, Note_on_c, 2, 49, 31
5, 76800, Note_on_c, 2, 61, 95
5, 78000, Note_off_c, 2, 58, 31
5, 78000, Note_off_c, 2, 70, 95
5, 78000, Note_off_c, 2, 54, 31
5, 78000, Note_off_c, 2, 66, 95
5, 78000, Note_off_c, 2, 49, 31
5, 78000, Note_off_c, 2, 61, 95
5, 78000, Note_on_c, 2, 49, 31
5, 78000, Note_on_c, 2, 61, 95
5, 78240, Note_off_c, 2, 49, 31
5, 78240, Note_off_c, 2, 61, 95
5, 78240, Note_on_c, 2, 58, 31
5, 78240, Note_on_c, 2, 70, 95
5, 78240, Note_on_c, 2, 54, 31
5, 78240, Note_on_c, 2, 66, 95
5, 78480, Note_off_c, 2, 58, 31
5, 78480, Note_off_c, 2, 70, 95
5, 78480, Note_off_c, 2, 54, 31
5, 78480, Note_off_c, 2, 66, 95
5, 78480, Note_on_c, 2, 56, 31
5, 78480, Note_on_c, 2, 68, 95
5, 78480, Note_on_c, 2, 53, 31
5, 78480, Note_on_c, 2, 65, 95
5, 78480, Note_on_c, 2, 49, 31
5, 78480, Note_on_c, 2, 61, 95
5, 79920, Note_off_c, 2, 56, 31
5, 79920, Note_off_c, 2, 68, 95
5, 79920, Note_off_c, 2, 53, 31
5, 79920, Note_off_c, 2, 65, 95
5, 79920, Note_off_c, 2, 49, 31
5, 79920, Note_off_c, 2, 61, 95
5, 79920, Note_on_c, 2, 49, 31
5, 79920, Note_on_c, 2, 61, 95
5, 80160, Note_off_c, 2, 49, 31
5, 80160, Note_off_c, 2, 61, 95
5, 80160, Note_on_c, 2, 56, 31
5, 80160, Note_on_c, 2, 68, 95
5, 80160, Note_on_c, 2, 53, 31
5, 80160, Note_on_c, 2, 65, 95
5, 80400, Note_off_c, 2, 56, 31
5, 80400, Note_off_c, 2, 68, 95
5, 80400, Note_off_c, 2, 53, 31
5, 80400, Note_off_c, 2, 65, 95
5, 80400, Note_on_c, 2, 59, 31
5, 80400, Note_on_c, 2, 71, 95
5, 80400, Note_on_c, 2, 54, 31
5, 80400, Note_on_c, 2, 66, 95
5, 80400, Note_on_c, 2, 51, 31
5, 80400, Note_on_c, 2, 63, 95
5, 81840, Note_off_c, 2, 59, 31
5, 81840, Note_off_c, 2, 71, 95
5, 81840, Note_off_c, 2, 54, 31
5, 81840, Note_off_c, 2, 66, 95
5, 81840, Note_off_c, 2, 51, 31
5, 81840, Note_off_c, 2, 63, 95
5, 81840, Note_on_c, 2, 51, 31
5, 81840, Note_on_c, 2, 63, 95
5, 82080, Note_off_c, 2, 51, 31
5, 82080, Note_off_c, 2, 63, 95
5, 82080, Note_on_c, 2, 59, 31
5, 82080, Note_on_c, 2, 71, 95
5, 82080, Note_on_c, 2, 54, 31
5, 82080, Note_on_c, 2, 66, 95
5, 82320, Note_off_c, 2, 59, 31
5, 82320, Note_off_c, 2, 71, 95
5, 82320, Note_off_c, 2, 54, 31
5, 82320, Note_off_c, 2, 66, 95
5, 82320, Note_on_c, 2, 58, 31
5, 82320, Note_on_c, 2, 70, 95
5, 82320, Note_on_c, 2, 54, 31
5, 82320, Note_on_c, 2, 66, 95
5, 82320, Note_on_c, 2, 49, 31
5, 82320, Note_on_c, 2, 61, 95
5, 83760, Note_off_c, 2, 58, 31
5, 83760, Note_off_c, 2, 70, 95
5, 83760, Note_off_c, 2, 54, 31
5, 83760, Note_off_c, 2, 66, 95
5, 83760, Note_off_c, 2, 49, 31
5, 83760, Note_off_c, 2, 61, 95
5, 83760, Note_on_c, 2, 49, 31
5, 83760, Note_on_c, 2, 61, 95
5, 84000, Note_off_c, 2, 49, 31
5, 84000, Note_off_c, 2, 61, 95
5, 84000, Note_on_c, 2, 56, 31
5, 84000, Note_on_c, 2, 68, 95
5, 84240, Note_off_c, 2, 56, 31
5, 84240, Note_off_c, 2, 68, 95
5, 84240, Note_on_c, 2, 58, 31
5, 84240, Note_on_c, 2, 70, 95
5, 84240, Note_on_c, 2, 54, 31
5, 84240, Note_on_c, 2, 66, 95
5, 84240, Note_on_c, 2, 49, 31
5, 84240, Note_on_c, 2, 61, 95
5, 85680, Note_off_c, 2, 58, 31
5, 85680, Note_off_c, 2, 70, 95
5, 85680, Note_off_c, 2, 54, 31
5, 85680, Note_off_c, 2, 66, 95
5, 85680, Note_off_c, 2, 49, 31
5, 85680, Note_off_c, 2, 61, 95
5, 85680, Note_on_c, 2, 49, 31
5, 85680, Note_on_c, 2, 61, 95
5, 85920, Note_off_c, 2, 49, 31
5, 85920, Note_off_c, 2, 61, 95
5, 85920, Note_on_c, 2, 58, 31
5, 85920, Note_on_c, 2, 70, 95
5, 85920, Note_on_c, 2, 54, 31
5, 85920, Note_on_c, 2, 66, 95
5, 86400, Note_off_c, 2, 58, 31
5, 86400, Note_off_c, 2, 70, 95
5, 86400, Note_off_c, 2, 54, 31
5, 86400, Note_off_c, 2, 66, 95
5, 86400, Note_on_c, 2, 54, 31
5, 86400, Note_on_c, 2, 66, 95
5, 86880, Note_off_c, 2, 54, 31
5, 86880, Note_off_c, 2, 66, 95
5, 86880, Note_on_c, 2, 46, 31
5, 86880, Note_on_c, 2, 58, 95
5, 87120, Note_off_c, 2, 46, 31
5, 87120, Note_off_c, 2, 58, 95
5, 87120, Note_on_c, 2, 54, 31
5, 87120, Note_on_c, 2, 66, 95
5, 87600, Note_off_c, 2, 54, 31
5, 87600, Note_off_c, 2, 66, 95
5, 87600, Note_on_c, 2, 61, 31
5, 87600, Note_on_c, 2, 73, 95
5, 87600, Note_on_c, 2, 49, 31
5, 87600, Note_on_c, 2, 61, 95
5, 87840, Note_off_c, 2, 61, 31
5, 87840, Note_off_c, 2, 73, 95
5, 87840, Note_off_c, 2, 49, 31
5, 87840, Note_off_c, 2, 61, 95
5, 87840, Note_on_c, 2, 59, 31
5, 87840, Note_on_c, 2, 71, 95
5, 87840, Note_on_c, 2, 54, 31
5, 87840, Note_on_c, 2, 66, 95
5, 87840, Note_on_c, 2, 49, 31
5, 87840, Note_on_c, 2, 61, 95
5, 88080, Note_off_c, 2, 59, 31
5, 88080, Note_off_c, 2, 71, 95
5, 88080, Note_off_c, 2, 54, 31
5, 88080, Note_off_c, 2, 66, 95
5, 88080, Note_off_c, 2, 49, 31
5, 88080, Note_off_c, 2, 61, 95
5, 88080, Note_on_c, 2, 58, 31
5, 88080, Note_on_c, 2, 70, 95
5, 88080, Note_on_c, 2, 52, 31
5, 88080, Note_on_c, 2, 64, 95
5, 88080, Note_on_c, 2, 49, 31
5, 88080, Note_on_c, 2, 61, 95
5, 89520, Note_off_c, 2, 58, 31
5, 89520, Note_off_c, 2, 70, 95
5, 89520, Note_off_c, 2, 52, 31
5, 89520, Note_off_c, 2, 64, 95
5, 89520, Note_off_c, 2, 49, 31
5, 89520, Note_off_c, 2, 61, 95
5, 89520, Note_on_c, 2, 61, 31
5, 89520, Note_on_c, 2, 73, 95
5, 89760, Note_off_c, 2, 61, 31
5, 89760, Note_off_c, 2, 73, 95
5, 89760, Note_on_c, 2, 59, 31
5, 89760, Note_on_c, 2, 71, 95
5, 89760, Note_on_c, 2, 52, 31
5, 89760, Note_on_c, 2, 64, 95
5, 89760, Note_on_c, 2, 49, 31
5, 89760, Note_on_c, 2, 61, 95
5, 90000, Note_off_c, 2, 59, 31
5, 90000, Note_off_c, 2, 71, 95
5, 90000, Note_off_c, 2, 52, 31
5, 90000, Note_off_c, 2, 64, 95
5, 90000, Note_off_c, 2, 49, 31
5, 90000, Note_off_c, 2, 61, 95
5, 90000, Note_on_c, 2, 58, 31
5, 90000, Note_on_c, 2, 70, 95
5, 90000, Note_on_c, 2, 51, 31
5, 90000, Note_on_c, 2, 63, 95
5, 90000, Note_on_c, 2, 49, 31
5, 90000, Note_on_c, 2, 61, 95
5, 90720, Note_off_c, 2, 58, 31
5, 90720, Note_off_c, 2, 70, 95
5, 90720, Note_off_c, 2, 51, 31
5, 90720, Note_off_c, 2, 63, 95
5, 90720, Note_off_c, 2, 49, 31
5, 90720, Note_off_c, 2, 61, 95
5, 90720, Note_on_c, 2, 58, 31
5, 90720, Note_on_c, 2, 70, 95
5, 90960, Note_off_c, 2, 58, 31
5, 90960, Note_off_c, 2, 70, 95
5, 90960, Note_on_c, 2, 58, 31
5, 90960, Note_on_c, 2, 70, 95
5, 91440, Note_off_c, 2, 58, 31
5, 91440, Note_off_c, 2, 70, 95
5, 91440, Note_on_c, 2, 59, 31
5, 91440, Note_on_c, 2, 71, 95
5, 91680, Note_off_c, 2, 59, 31
5, 91680, Note_off_c, 2, 71, 95
5, 91680, Note_on_c, 2, 61, 31
5, 91680, Note_on_c, 2, 73, 95
5, 91680, Note_on_c, 2, 51, 31
5, 91680, Note_on_c, 2, 63, 95
5, 91680, Note_on_c, 2, 49, 31
5, 91680, Note_on_c, 2, 61, 95
5, 91920, Note_off_c, 2, 61, 31
5, 91920, Note_off_c, 2, 73, 95
5, 91920, Note_off_c, 2, 51, 31
5, 91920, Note_off_c, 2, 63, 95
5, 91920, Note_off_c, 2, 49, 31
5, 91920, Note_off_c, 2, 61, 95
5, 91920, Note_on_c, 2, 62, 31
5, 91920, Note_on_c, 2, 74, 95
5, 91920, Note_on_c, 2, 54, 31
5, 91920, Note_on_c, 2, 66, 95
5, 91920, Note_on_c, 2, 50, 31
5, 91920, Note_on_c, 2, 62, 95
5, 91920, Note_on_c, 2, 47, 31
5, 91920, Note_on_c, 2, 59, 95
5, 92400, Note_off_c, 2, 62, 31
5, 92400, Note_off_c, 2, 74, 95
5, 92400, Note_off_c, 2, 54, 31
5, 92400, Note_off_c, 2, 66, 95
5, 92400, Note_off_c, 2, 50, 31
5, 92400, Note_off_c, 2, 62, 95
5, 92400, Note_off_c, 2, 47, 31
5, 92400, Note_off_c, 2, 59, 95
5, 92400, Note_on_c, 2, 58, 31
5, 92400, Note_on_c, 2, 70, 95
5, 92400, Note_on_c, 2, 54, 31
5, 92400, Note_on_c, 2, 66, 95
5, 92400, Note_on_c, 2, 50, 31
5, 92400, Note_on_c, 2, 62, 95
5, 92400, Note_on_c, 2, 47, 31
5, 92400, Note_on_c, 2, 59, 95
5, 92880, Note_off_c, 2, 58, 31
5, 92880, Note_off_c, 2, 70, 95
5, 92880, Note_off_c, 2, 54, 31
5, 92880, Note_off_c, 2, 66, 95
5, 92880, Note_off_c, 2, 50, 31
5, 92880, Note_off_c, 2, 62, 95
5, 92880, Note_off_c, 2, 47, 31
5, 92880, Note_off_c, 2, 59, 95
5, 92880, Note_on_c, 2, 56, 31
5, 92880, Note_on_c, 2, 68, 95
5, 93360, Note_off_c, 2, 56, 31
5, 93360, Note_off_c, 2, 68, 95
5, 93360, Note_on_c, 2, 47, 31
5, 93360, Note_on_c, 2, 59, 95
5, 93600, Note_off_c, 2, 47, 31
5, 93600, Note_off_c, 2, 59, 95
5, 93600, Note_on_c, 2, 56, 31
5, 93600, Note_on_c, 2, 68, 95
5, 93600, Note_on_c, 2, 54, 31
5, 93600, Note_on_c, 2, 66, 95
5, 93600, Note_on_c, 2, 51, 31
5, 93600, Note_on_c, 2, 63, 95
5, 94080, Note_off_c, 2, 56, 31
5, 94080, Note_off_c, 2, 68, 95
5, 94080, Note_off_c, 2, 54, 31
5, 94080, Note_off_c, 2, 66, 95
5, 94080, Note_off_c, 2, 51, 31
5, 94080, Note_off_c, 2, 63, 95
5, 94080, Note_on_c, 2, 58, 31
5, 94080, Note_on_c, 2, 70, 95
5, 94080, Note_on_c, 2, 54, 31
5, 94080, Note_on_c, 2, 66, 95
5, 94080, Note_on_c, 2, 49, 31
5, 94080, Note_on_c, 2, 61, 95
5, 95280, Note_off_c, 2, 58, 31
5, 95280, Note_off_c, 2, 70, 95
5, 95280, Note_off_c, 2, 54, 31
5, 95280, Note_off_c, 2, 66, 95
5, 95280, Note_off_c, 2, 49, 31
5, 95280, Note_off_c, 2, 61, 95
5, 95280, Note_on_c, 2, 49, 31
5, 95280, Note_on_c, 2, 61, 95
5, 95520, Note_off_c, 2, 49, 31
5, 95520, Note_off_c, 2, 61, 95
5, 95520, Note_on_c, 2, 58, 31
5, 95520, Note_on_c, 2, 70, 95
5, 95520, Note_on_c, 2, 54, 31
5, 95520, Note_on_c, 2, 66, 95
5, 95760, Note_off_c, 2, 58, 31
5, 95760, Note_off_c, 2, 70, 95
5, 95760, Note_off_c, 2, 54, 31
5, 95760, Note_off_c, 2, 66, 95
5, 95760, Note_on_c, 2, 56, 31
5, 95760, Note_on_c, 2, 68, 95
5, 95760, Note_on_c, 2, 53, 31
5, 95760, Note_on_c, 2, 65, 95
5, 95760, Note_on_c, 2, 49, 31
5, 95760, Note_on_c, 2, 61, 95
5, 97200, Note_off_c, 2, 56, 31
5, 97200, Note_off_c, 2, 68, 95
5, 97200, Note_off_c, 2, 53, 31
5, 97200, Note_off_c, 2, 65, 95
5, 97200, Note_off_c, 2, 49, 31
5, 97200, Note_off_c, 2, 61, 95
5, 97200, Note_on_c, 2, 49, 31
5, 97200, Note_on_c, 2, 61, 95
5, 97440, Note_off_c, 2, 49, 31
5, 97440, Note_off_c, 2, 61, 95
5, 97440, Note_on_c, 2, 56, 31
5, 97440, Note_on_c, 2, 68, 95
5, 97440, Note_on_c, 2, 53, 31
5, 97440, Note_on_c, 2, 65, 95
5, 97680, Note_off_c, 2, 56, 31
5, 97680, Note_off_c, 2, 68, 95
5, 97680, Note_off_c, 2, 53, 31
5, 97680, Note_off_c, 2, 65, 95
5, 97680, Note_on_c, 2, 59, 31
5, 97680, Note_on_c, 2, 71, 95
5, 97680, Note_on_c, 2, 54, 31
5, 97680, Note_on_c, 2, 66, 95
5, 97680, Note_on_c, 2, 51, 31
5, 97680, Note_on_c, 2, 63, 95
5, 99120, Note_off_c, 2, 59, 31
5, 99120, Note_off_c, 2, 71, 95
5, 99120, Note_off_c, 2, 54, 31
5, 99120, Note_off_c, 2, 66, 95
5, 99120, Note_off_c, 2, 51, 31
5, 99120, Note_off_c, 2, 63, 95
5, 99120, Note_on_c, 2, 51, 31
5, 99120, Note_on_c, 2, 63, 95
5, 99360, Note_off_c, 2, 51, 31
5, 99360, Note_off_c, 2, 63, 95
5, 99360, Note_on_c, 2, 59, 31
5, 99360, Note_on_c, 2, 71, 95
5, 99360, Note_on_c, 2, 54, 31
5, 99360, Note_on_c, 2, 66, 95
5, 99600, Note_off_c, 2, 59, 31
5, 99600, Note_off_c, 2, 71, 95
5, 99600, Note_off_c, 2, 54, 31
5, 99600, Note_off_c, 2, 66, 95
5, 99600, Note_on_c, 2, 58, 31
5, 99600, Note_on_c, 2, 70, 95
5, 99600, Note_on_c, 2, 54, 31
5, 99600, Note_on_c, 2, 66, 95
5, 99600, Note_on_c, 2, 49, 31
5, 99600, Note_on_c, 2, 61, 95
5, 101040, Note_off_c, 2, 58, 31
5, 101040, Note_off_c, 2, 70, 95
5, 101040, Note_off_c, 2, 54, 31
5, 101040, Note_off_c, 2, 66, 95
5, 101040, Note_off_c, 2, 49, 31
5, 101040, Note_off_c, 2, 61, 95
5, 101040, Note_on_c, 2, 49, 31
5, 101040, Note_on_c, 2, 61, 95
5, 101280, Note_off_c, 2, 49, 31
5, 101280, Note_off_c, 2, 61, 95
5, 101280, Note_on_c, 2, 56, 31
5, 101280, Note_on_c, 2, 68, 95
5, 101520, Note_off_c, 2, 56, 31
5, 101520, Note_off_c, 2, 68, 95
5, 101520, Note_on_c, 2, 58, 31
5, 101520, Note_on_c, 2, 70, 95
5, 101520, Note_on_c, 2, 54, 31
5, 101520, Note_on_c, 2, 66, 95
5, 101520, Note_on_c, 2, 49, 31
5, 101520, Note_on_c, 2, 61, 95
5, 102960, Note_off_c, 2, 58, 31
5, 102960, Note_off_c, 2, 70, 95
5, 102960, Note_off_c, 2, 54, 31
5, 102960, Note_off_c, 2, 66, 95
5, 102960, Note_off_c, 2, 49, 31
5, 102960, Note_off_c, 2, 61, 95
5, 102960, Note_on_c, 2, 49, 31
5, 102960, Note_on_c, 2, 61, 95
5, 103200, Note_off_c, 2, 49, 31
5, 103200, Note_off_c, 2, 61, 95
5, 103200, Note_on_c, 2, 58, 31
5, 103200, Note_on_c, 2, 70, 95
5, 103200, Note_on_c, 2, 54, 31
5, 103200, Note_on_c, 2, 66, 95
5, 103680, Note_off_c, 2, 58, 31
5, 103680, Note_off_c, 2, 70, 95
5, 103680, Note_off_c, 2, 54, 31
5, 103680, Note_off_c, 2, 66, 95
5, 103680, Note_on_c, 2, 56, 31
5, 103680, Note_on_c, 2, 68, 95
5, 103680, Note_on_c, 2, 51, 31
5, 103680, Note_on_c, 2, 63, 95
5, 103680, Note_on_c, 2, 47, 31
5, 103680, Note_on_c, 2, 59, 95
5, 104880, Note_off_c, 2, 56, 31
5, 104880, Note_off_c, 2, 68, 95
5, 104880, Note_off_c, 2, 51, 31
5, 104880, Note_off_c, 2, 63, 95
5, 104880, Note_off_c, 2, 47, 31
5, 104880, Note_off_c, 2, 59, 95
5, 104880, Note_on_c, 2, 47, 31
5, 104880, Note_on_c, 2, 59, 95
5, 105120, Note_off_c, 2, 47, 31
5, 105120, Note_off_c, 2, 59, 95
5, 105120, Note_on_c, 2, 56, 31
5, 105120, Note_on_c, 2, 68, 95
5, 105120, Note_on_c, 2, 51, 31
5, 105120, Note_on_c, 2, 63, 95
5, 105360, Note_off_c, 2, 56, 31
5, 105360, Note_off_c, 2, 68, 95
5, 105360, Note_off_c, 2, 51, 31
5, 105360, Note_off_c, 2, 63, 95
5, 105360, Note_on_c, 2, 58, 31
5, 105360, Note_on_c, 2, 70, 95
5, 105360, Note_on_c, 2, 54, 31
5, 105360, Note_on_c, 2, 66, 95
5, 105360, Note_on_c, 2, 49, 31
5, 105360, Note_on_c, 2, 61, 95
5, 106800, Note_off_c, 2, 58, 31
5, 106800, Note_off_c, 2, 70, 95
5, 106800, Note_off_c, 2, 54, 31
5, 106800, Note_off_c, 2, 66, 95
5, 106800, Note_off_c, 2, 49, 31
5, 106800, Note_off_c, 2, 61, 95
5, 106800, Note_on_c, 2, 49, 31
5, 106800, Note_on_c, 2, 61, 95
5, 107040, Note_off_c, 2, 49, 31
5, 107040, Note_off_c, 2, 61, 95
5, 107040, Note_on_c, 2, 58, 31
5, 107040, Note_on_c, 2, 70, 95
5, 107040, Note_on_c, 2, 54, 31
5, 107040, Note_on_c, 2, 66, 95
5, 107280, Note_off_c, 2, 58, 31
5, 107280, Note_off_c, 2, 70, 95
5, 107280, Note_off_c, 2, 54, 31
5, 107280, Note_off_c, 2, 66, 95
5, 107280, Note_on_c, 2, 59, 31
5, 107280, Note_on_c, 2, 71, 95
5, 107280, Note_on_c, 2, 54, 31
5, 107280, Note_on_c, 2, 66, 95
5, 107280, Note_on_c, 2, 51, 31
5, 107280, Note_on_c, 2, 63, 95
5, 108720, Note_off_c, 2, 59, 31
5, 108720, Note_off_c, 2, 71, 95
5, 108720, Note_off_c, 2, 54, 31
5, 108720, Note_off_c, 2, 66, 95
5, 108720, Note_off_c, 2, 51, 31
5, 108720, Note_off_c, 2, 63, 95
5, 108720, Note_on_c, 2, 51, 31
5, 108720, Note_on_c, 2, 63, 95
5, 108960, Note_off_c, 2, 51, 31
5, 108960, Note_off_c, 2, 63, 95
5, 108960, Note_on_c, 2, 59, 31
5, 108960, Note_on_c, 2, 71, 95
5, 108960, Note_on_c, 2, 54, 31
5, 108960, Note_on_c, 2, 66, 95
5, 109200, Note_off_c, 2, 59, 31
5, 109200, Note_off_c, 2, 71, 95
5, 109200, Note_off_c, 2, 54, 31
5, 109200, Note_off_c, 2, 66, 95
5, 109200, Note_on_c, 2, 61, 31
5, 109200, Note_on_c, 2, 73, 95
5, 109200, Note_on_c, 2, 56, 31
5, 109200, Note_on_c, 2, 68, 95
5, 109200, Note_on_c, 2, 53, 31
5, 109200, Note_on_c, 2, 65, 95
5, 110640, Note_off_c, 2, 61, 31
5, 110640, Note_off_c, 2, 73, 95
5, 110640, Note_off_c, 2, 56, 31
5, 110640, Note_off_c, 2, 68, 95
5, 110640, Note_off_c, 2, 53, 31
5, 110640, Note_off_c, 2, 65, 95
5, 110640, Note_on_c, 2, 53, 31
5, 110640, Note_on_c, 2, 65, 95
5, 110880, Note_off_c, 2, 53, 31
5, 110880, Note_off_c, 2, 65, 95
5, 110880, Note_on_c, 2, 61, 31
5, 110880, Note_on_c, 2, 73, 95
5, 110880, Note_on_c, 2, 56, 31
5, 110880, Note_on_c, 2, 68, 95
5, 111360, Note_off_c, 2, 61, 31
5, 111360, Note_off_c, 2, 73, 95
5, 111360, Note_off_c, 2, 56, 31
5, 111360, Note_off_c, 2, 68, 95
5, 111360, Note_on_c, 2, 56, 31
5, 111360, Note_on_c, 2, 68, 95
5, 111360, Note_on_c, 2, 51, 31
5, 111360, Note_on_c, 2, 63, 95
5, 111360, Note_on_c, 2, 47, 31
5, 111360, Note_on_c, 2, 59, 95
5, 112560, Note_off_c, 2, 56, 31
5, 112560, Note_off_c, 2, 68, 95
5, 112560, Note_off_c, 2, 51, 31
5, 112560, Note_off_c, 2, 63, 95
5, 112560, Note_off_c, 2, 47, 31
5, 112560, Note_off_c, 2, 59, 95
5, 112560, Note_on_c, 2, 47, 31
5, 112560, Note_on_c, 2, 59, 95
5, 112800, Note_off_c, 2, 47, 31
5, 112800, Note_off_c, 2, 59, 95
5, 112800, Note_on_c, 2, 56, 31
5, 112800, Note_on_c, 2, 68, 95
5, 112800, Note_on_c, 2, 51, 31
5, 112800, Note_on_c, 2, 63, 95
5, 113040, Note_off_c, 2, 56, 31
5, 113040, Note_off_c, 2, 68, 95
5, 113040, Note_off_c, 2, 51, 31
5, 113040, Note_off_c, 2, 63, 95
5, 113040, Note_on_c, 2, 58, 31
5, 113040, Note_on_c, 2, 70, 95
5, 113040, Note_on_c, 2, 54, 31
5, 113040, Note_on_c, 2, 66, 95
5, 113040, Note_on_c, 2, 49, 31
5, 113040, Note_on_c, 2, 61, 95
5, 114480, Note_off_c, 2, 58, 31
5, 114480, Note_off_c, 2, 70, 95
5, 114480, Note_off_c, 2, 54, 31
5, 114480, Note_off_c, 2, 66, 95
5, 114480, Note_off_c, 2, 49, 31
5, 114480, Note_off_c, 2, 61, 95
5, 114480, Note_on_c, 2, 49, 31
5, 114480, Note_on_c, 2, 61, 95
5, 114720, Note_off_c, 2, 49, 31
5, 114720, Note_off_c, 2, 61, 95
5, 114720, Note_on_c, 2, 58, 31
5, 114720, Note_on_c, 2, 70, 95
5, 114720, Note_on_c, 2, 54, 31
5, 114720, Note_on_c, 2, 66, 95
5, 114960, Note_off_c, 2, 58, 31
5, 114960, Note_off_c, 2, 70, 95
5, 114960, Note_off_c, 2, 54, 31
5, 114960, Note_off_c, 2, 66, 95
5, 114960, Note_on_c, 2, 59, 31
5, 114960, Note_on_c, 2, 71, 95
5, 114960, Note_on_c, 2, 54, 31
5, 114960, Note_on_c, 2, 66, 95
5, 114960, Note_on_c, 2, 51, 31
5, 114960, Note_on_c, 2, 63, 95
5, 116400, Note_off_c, 2, 59, 31
5, 116400, Note_off_c, 2, 71, 95
5, 116400, Note_off_c, 2, 54, 31
5, 116400, Note_off_c, 2, 66, 95
5, 116400, Note_off_c, 2, 51, 31
5, 116400, Note_off_c, 2, 63, 95
5, 116400, Note_on_c, 2, 51, 31
5, 116400, Note_on_c, 2, 63, 95
5, 116640, Note_off_c, 2, 51, 31
5, 116640, Note_off_c, 2, 63, 95
5, 116640, Note_on_c, 2, 59, 31
5, 116640, Note_on_c, 2, 71, 95
5, 116640, Note_on_c, 2, 54, 31
5, 116640, Note_on_c, 2, 66, 95
5, 116880, Note_off_c, 2, 59, 31
5, 116880, Note_off_c, 2, 71, 95
5, 116880, Note_off_c, 2, 54, 31
5, 116880, Note_off_c, 2, 66, 95
5, 116880, Note_on_c, 2, 61, 31
5, 116880, Note_on_c, 2, 73, 95
5, 116880, Note_on_c, 2, 56, 31
5, 116880, Note_on_c, 2, 68, 95
5, 116880, Note_on_c, 2, 53, 31
5, 116880, Note_on_c, 2, 65, 95
5, 118320, Note_off_c, 2, 61, 31
5, 118320, Note_off_c, 2, 73, 95
5, 118320, Note_off_c, 2, 56, 31
5, 118320, Note_off_c, 2, 68, 95
5, 118320, Note_off_c, 2, 53, 31
5, 118320, Note_off_c, 2, 65, 95
5, 118320, Note_on_c, 2, 53, 31
5, 118320, Note_on_c, 2, 65, 95
5, 118560, Note_off_c, 2, 53, 31
5, 118560, Note_off_c, 2, 65, 95
5, 118560, Note_on_c, 2, 61, 31
5, 118560, Note_on_c, 2, 73, 95
5, 118560, Note_on_c, 2, 56, 31
5, 118560, Note_on_c, 2, 68, 95
5, 119040, Note_off_c, 2, 61, 31
5, 119040, Note_off_c, 2, 73, 95
5, 119040, Note_off_c, 2, 56, 31
5, 119040, Note_off_c, 2, 68, 95
5, 119040, Note_on_c, 2, 49, 31
5, 119040, Note_on_c, 2, 61, 95
5, 119070, Note_on_c, 2, 54, 31
5, 119070, Note_on_c, 2, 66, 95
5, 119100, Note_on_c, 2, 58, 31
5, 119100, Note_on_c, 2, 70, 95
5, 119130, Note_on_c, 2, 61, 31
5, 119130, Note_on_c, 2, 73, 95
5, 120240, Note_off_c, 2, 61, 31
5, 120240, Note_off_c, 2, 73, 95
5, 120240, Note_off_c, 2, 58, 31
5, 120240, Note_off_c, 2, 70, 95
5, 120240, Note_off_c, 2, 54, 31
5, 120240, Note_off_c, 2, 66, 95
5, 120240, Note_off_c, 2, 49, 31
5, 120240, Note_off_c, 2, 61, 95
5, 120240, Note_on_c, 2, 49, 31
5, 120240, Note_on_c, 2, 61, 95
5, 120480, Note_off_c, 2, 49, 31
5, 120480, Note_off_c, 2, 61, 95
5, 120480, Note_on_c, 2, 54, 31
5, 120480, Note_on_c, 2, 66, 95
5, 120495, Note_on_c, 2, 58, 31
5, 120495, Note_on_c, 2, 70, 95
5, 120510, Note_on_c, 2, 61, 31
5, 120510, Note_on_c, 2, 73, 95
5, 120960, Note_off_c, 2, 61, 31
5, 120960, Note_off_c, 2, 73, 95
5, 120960, Note_off_c, 2, 58, 31
5, 120960, Note_off_c, 2, 70, 95
5, 120960, Note_off_c, 2, 54, 31
5, 120960, Note_off_c, 2, 66, 95
5, 120960, Note_on_c, 2, 60, 31
5, 120960, Note_on_c, 2, 72, 95
5, 120960, Note_on_c, 2, 56, 31
5, 120960, Note_on_c, 2, 68, 95
5, 120960, Note_on_c, 2, 54, 31
5, 120960, Note_on_c, 2, 66, 95
5, 120960, Note_on_c, 2, 51, 31
5, 120960, Note_on_c, 2, 63, 95
5, 121920, Note_off_c, 2, 60, 31
5, 121920, Note_off_c, 2, 72, 95
5, 121920, Note_off_c, 2, 56, 31
5, 121920, Note_off_c, 2, 68, 95
5, 121920, Note_off_c, 2, 54, 31
5, 121920, Note_off_c, 2, 66, 95
5, 121920, Note_off_c, 2, 51, 31
5, 121920, Note_off_c, 2, 63, 95
5, 121920, Note_on_c, 2, 56, 31
5, 121920, Note_on_c, 2, 68, 95
5, 122880, Note_off_c, 2, 56, 31
5, 122880, Note_off_c, 2, 68, 95
5, 122880, Note_on_c, 2, 51, 31
5, 122880, Note_on_c, 2, 63, 95
5, 122910, Note_on_c, 2, 54, 31
5, 122910, Note_on_c, 2, 66, 95
5, 122940, Note_on_c, 2, 59, 31
5, 122940, Note_on_c, 2, 71, 95
5, 124800, Note_off_c, 2, 59, 31
5, 124800, Note_off_c, 2, 71, 95
5, 124800, Note_off_c, 2, 54, 31
5, 124800, Note_off_c, 2, 66, 95
5, 124800, Note_off_c, 2, 51, 31
5, 124800, Note_off_c, 2, 63, 95
5, 124800, Note_on_c, 2, 49, 31
5, 124800, Note_on_c, 2, 61, 95
5, 124830, Note_on_c, 2, 53, 31
5, 124830, Note_on_c, 2, 65, 95
5, 124860, Note_on_c, 2, 56, 31
5, 124860, Note_on_c, 2, 68, 95
5, 124890, Note_on_c, 2, 61, 31
5, 124890, Note_on_c, 2, 73, 95
5, 126720, Note_off_c, 2, 61, 31
5, 126720, Note_off_c, 2, 73, 95
5, 126720, Note_off_c, 2, 56, 31
5, 126720, Note_off_c, 2, 68, 95
5, 126720, Note_off_c, 2, 53, 31
5, 126720, Note_off_c, 2, 65, 95
5, 126720, Note_off_c, 2, 49, 31
5, 126720, Note_off_c, 2, 61, 95
5, 127920, Note_on_c, 2, 61, 31
5, 127920, Note_on_c, 2, 73, 95
5, 128160, Note_off_c, 2, 61, 31
5, 128160, Note_off_c, 2, 73, 95
5, 128160, Note_on_c, 2, 59, 31
5, 128160, Note_on_c, 2, 71, 95
5, 128400, Note_off_c, 2, 59, 31
5, 128400, Note_off_c, 2, 71, 95
5, 128400, Note_on_c, 2, 58, 31
5, 128400, Note_on_c, 2, 70, 95
5, 128400, Note_on_c, 2, 54, 31
5, 128400, Note_on_c, 2, 66, 95
5, 128400, Note_on_c, 2, 49, 31
5, 128400, Note_on_c, 2, 61, 95
5, 128640, Note_off_c, 2, 58, 31
5, 128640, Note_off_c, 2, 70, 95
5, 128640, Note_off_c, 2, 54, 31
5, 128640, Note_off_c, 2, 66, 95
5, 128640, Note_off_c, 2, 49, 31
5, 128640, Note_off_c, 2, 61, 95
5, 128640, Note_on_c, 2, 54, 31
5, 128640, Note_on_c, 2, 66, 95
5, 129120, Note_off_c, 2, 54, 31
5, 129120, Note_off_c, 2, 66, 95
5, 129120, Note_on_c, 2, 46, 31
5, 129120, Note_on_c, 2, 58, 95
5, 129360, Note_off_c, 2, 46, 31
5, 129360, Note_off_c, 2, 58, 95
5, 129360, Note_on_c, 2, 54, 31
5, 129360, Note_on_c, 2, 66, 95
5, 129840, Note_off_c, 2, 54, 31
5, 129840, Note_off_c, 2, 66, 95
5, 129840, Note_on_c, 2, 61, 31
5, 129840, Note_on_c, 2, 73, 95
5, 129840, Note_on_c, 2, 49, 31
5, 129840, Note_on_c, 2, 61, 95
5, 130080, Note_off_c, 2, 61, 31
5, 130080, Note_off_c, 2, 73, 95
5, 130080, Note_off_c, 2, 49, 31
5, 130080, Note_off_c, 2, 61, 95
5, 130080, Note_on_c, 2, 59, 31
5, 130080, Note_on_c, 2, 71, 95
5, 130080, Note_on_c, 2, 54, 31
5, 130080, Note_on_c, 2, 66, 95
5, 130080, Note_on_c, 2, 49, 31
5, 130080, Note_on_c, 2, 61, 95
5, 130320, Note_off_c, 2, 59, 31
5, 130320, Note_off_c, 2, 71, 95
5, 130320, Note_off_c, 2, 54, 31
5, 130320, Note_off_c, 2, 66, 95
5, 130320, Note_off_c, 2, 49, 31
5, 130320, Note_off_c, 2, 61, 95
5, 130320, Note_on_c, 2, 58, 31
5, 130320, Note_on_c, 2, 70, 95
5, 130320, Note_on_c, 2, 52, 31
5, 130320, Note_on_c, 2, 64, 95
5, 130320, Note_on_c, 2, 49, 31
5, 130320, Note_on_c, 2, 61, 95
5, 131760, Note_off_c, 2, 58, 31
5, 131760, Note_off_c, 2, 70, 95
5, 131760, Note_off_c, 2, 52, 31
5, 131760, Note_off_c, 2, 64, 95
5, 131760, Note_off_c, 2, 49, 31
5, 131760, Note_off_c, 2, 61, 95
5, 131760, Note_on_c, 2, 61, 31
5, 131760, Note_on_c, 2, 73, 95
5, 132000, Note_off_c, 2, 61, 31
5, 132000, Note_off_c, 2, 73, 95
5, 132000, Note_on_c, 2, 59, 31
5, 132000, Note_on_c, 2, 71, 95
5, 132000, Note_on_c, 2, 52, 31
5, 132000, Note_on_c, 2, 64, 95
5, 132000, Note_on_c, 2, 49, 31
5, 132000, Note_on_c, 2, 61, 95
5, 132240, Note_off_c, 2, 59, 31
5, 132240, Note_off_c, 2, 71, 95
5, 132240, Note_off_c, 2, 52, 31
5, 132240, Note_off_c, 2, 64, 95
5, 132240, Note_off_c, 2, 49, 31
5, 132240, Note_off_c, 2, 61, 95
5, 132240, Note_on_c, 2, 58, 31
5, 132240, Note_on_c, 2, 70, 95
5, 132240, Note_on_c, 2, 51, 31
5, 132240, Note_on_c, 2, 63, 95
5, 132240, Note_on_c, 2, 49, 31
5, 132240, Note_on_c, 2, 61, 95
5, 132960, Note_off_c, 2, 58, 31
5, 132960, Note_off_c, 2, 70, 95
5, 132960, Note_off_c, 2, 51, 31
5, 132960, Note_off_c, 2, 63, 95
5, 132960, Note_off_c, 2, 49, 31
5, 132960, Note_off_c, 2, 61, 95
5, 132960, Note_on_c, 2, 58, 31
5, 132960, Note_on_c, 2, 70, 95
5, 133200, Note_off_c, 2, 58, 31
5, 133200, Note_off_c, 2, 70, 95
5, 133200, Note_on_c, 2, 58, 31
5, 133200, Note_on_c, 2, 70, 95
5, 133680, Note_off_c, 2, 58, 31
5, 133680, Note_off_c, 2, 70, 95
5, 133680, Note_on_c, 2, 59, 31
5, 133680, Note_on_c, 2, 71, 95
5, 133920, Note_off_c, 2, 59, 31
5, 133920, Note_off_c, 2, 71, 95
5, 133920, Note_on_c, 2, 61, 31
5, 133920, Note_on_c, 2, 73, 95
5, 133920, Note_on_c, 2, 51, 31
5, 133920, Note_on_c, 2, 63, 95
5, 133920, Note_on_c, 2, 49, 31
5, 133920, Note_on_c, 2, 61, 95
5, 134160, Note_off_c, 2, 61, 31
5, 134160, Note_off_c, 2, 73, 95
5, 134160, Note_off_c, 2, 51, 31
5, 134160, Note_off_c, 2, 63, 95
5, 134160, Note_off_c, 2, 49, 31
5, 134160, Note_off_c, 2, 61, 95
5, 134160, Note_on_c, 2, 62, 31
5, 134160, Note_on_c, 2, 74, 95
5, 134160, Note_on_c, 2, 54, 31
5, 134160, Note_on_c, 2, 66, 95
5, 134160, Note_on_c, 2, 50, 31
5, 134160, Note_on_c, 2, 62, 95
5, 134160, Note_on_c, 2, 47, 31
5, 134160, Note_on_c, 2, 59, 95
5, 134640, Note_off_c, 2, 62, 31
5, 134640, Note_off_c, 2, 74, 95
5, 134640, Note_off_c, 2, 54, 31
5, 134640, Note_off_c, 2, 66, 95
5, 134640, Note_off_c, 2, 50, 31
5, 134640, Note_off_c, 2, 62, 95
5, 134640, Note_off_c, 2, 47, 31
5, 134640, Note_off_c, 2, 59, 95
5, 134640, Note_on_c, 2, 58, 31
5, 134640, Note_on_c, 2, 70, 95
5, 134640, Note_on_c, 2, 54, 31
5, 134640, Note_on_c, 2, 66, 95
5, 134640, Note_on_c, 2, 50, 31
5, 134640, Note_on_c, 2, 62, 95
5, 134640, Note_on_c, 2, 47, 31
5, 134640, Note_on_c, 2, 59, 95
5, 135120, Note_off_c, 2, 58, 31
5, 135120, Note_off_c, 2, 70, 95
5, 135120, Note_off_c, 2, 54, 31
5, 135120, Note_off_c, 2, 66, 95
5, 135120, Note_off_c, 2, 50, 31
5, 135120, Note_off_c, 2, 62, 95
5, 135120, Note_off_c, 2, 47, 31
5, 135120, Note_off_c, 2, 59, 95
5, 135120, Note_on_c, 2, 56, 31
5, 135120, Note_on_c, 2, 68, 95
5, 135600, Note_off_c, 2, 56, 31
5, 135600, Note_off_c, 2, 68, 95
5, 135600, Note_on_c, 2, 47, 31
5, 135600, Note_on_c, 2, 59, 95
5, 135840, Note_off_c, 2, 47, 31
5, 135840, Note_off_c, 2, 59, 95
5, 135840, Note_on_c, 2, 56, 31
5, 135840, Note_on_c, 2, 68, 95
5, 135840, Note_on_c, 2, 54, 31
5, 135840, Note_on_c, 2, 66, 95
5, 135840, Note_on_c, 2, 51, 31
5, 135840, Note_on_c, 2, 63, 95
5, 136320, Note_off_c, 2, 56, 31
5, 136320, Note_off_c, 2, 68, 95
5, 136320, Note_off_c, 2, 54, 31
5, 136320, Note_off_c, 2, 66, 95
5, 136320, Note_off_c, 2, 51, 31
5, 136320, Note_off_c, 2, 63, 95
5, 136320, Note_on_c, 2, 58, 31
5, 136320, Note_on_c, 2, 70, 95
5, 136320, Note_on_c, 2, 54, 31
5, 136320, Note_on_c, 2, 66, 95
5, 136320, Note_on_c, 2, 49, 31
5, 136320, Note_on_c, 2, 61, 95
5, 137520, Note_off_c, 2, 58, 31
5, 137520, Note_off_c, 2, 70, 95
5, 137520, Note_off_c, 2, 54, 31
5, 137520, Note_off_c, 2, 66, 95
5, 137520, Note_off_c, 2, 49, 31
5, 137520, Note_off_c, 2, 61, 95
5, 137520, Note_on_c, 2, 49, 31
5, 137520, Note_on_c, 2, 61, 95
5, 137760, Note_off_c, 2, 49, 31
5, 137760, Note_off_c, 2, 61, 95
5, 137760, Note_on_c, 2, 58, 31
5, 137760, Note_on_c, 2, 70, 95
5, 137760, Note_on_c, 2, 54, 31
5, 137760, Note_on_c, 2, 66, 95
5, 138000, Note_off_c, 2, 58, 31
5, 138000, Note_off_c, 2, 70, 95
5, 138000, Note_off_c, 2, 54, 31
5, 138000, Note_off_c, 2, 66, 95
5, 138000, Note_on_c, 2, 56, 31
5, 138000, Note_on_c, 2, 68, 95
5, 138000, Note_on_c, 2, 53, 31
5, 138000, Note_on_c, 2, 65, 95
5, 138000, Note_on_c, 2, 49, 31
5, 138000, Note_on_c, 2, 61, 95
5, 139440, Note_off_c, 2, 56, 31
5, 139440, Note_off_c, 2, 68, 95
5, 139440, Note_off_c, 2, 53, 31
5, 139440, Note_off_c, 2, 65, 95
5, 139440, Note_off_c, 2, 49, 31
5, 139440, Note_off_c, 2, 61, 95
5, 139440, Note_on_c, 2, 49, 31
5, 139440, Note_on_c, 2, 61, 95
5, 139680, Note_off_c, 2, 49, 31
5, 139680, Note_off_c, 2, 61, 95
5, 139680, Note_on_c, 2, 56, 31
5, 139680, Note_on_c, 2, 68, 95
5, 139680, Note_on_c, 2, 53, 31
5, 139680, Note_on_c, 2, 65, 95
5, 139920, Note_off_c, 2, 56, 31
5, 139920, Note_off_c, 2, 68, 95
5, 139920, Note_off_c, 2, 53, 31
5, 139920, Note_off_c, 2, 65, 95
5, 139920, Note_on_c, 2, 59, 31
5, 139920, Note_on_c, 2, 71, 95
5, 139920, Note_on_c, 2, 54, 31
5, 139920, Note_on_c, 2, 66, 95
5, 139920, Note_on_c, 2, 51, 31
5, 139920, Note_on_c, 2, 63, 95
5, 141360, Note_off_c, 2, 59, 31
5, 141360, Note_off_c, 2, 71, 95
5, 141360, Note_off_c, 2, 54, 31
5, 141360, Note_off_c, 2, 66, 95
5, 141360, Note_off_c, 2, 51, 31
5, 141360, Note_off_c, 2, 63, 95
5, 141360, Note_on_c, 2, 51, 31
5, 141360, Note_on_c, 2, 63, 95
5, 141600, Note_off_c, 2, 51, 31
5, 141600, Note_off_c, 2, 63, 95
5, 141600, Note_on_c, 2, 59, 31
5, 141600, Note_on_c, 2, 71, 95
5, 141600, Note_on_c, 2, 54, 31
5, 141600, Note_on_c, 2, 66, 95
5, 141840, Note_off_c, 2, 59, 31
5, 141840, Note_off_c, 2, 71, 95
5, 141840, Note_off_c, 2, 54, 31
5, 141840, Note_off_c, 2, 66, 95
5, 141840, Note_on_c, 2, 58, 31
5, 141840, Note_on_c, 2, 70, 95
5, 141840, Note_on_c, 2, 54, 31
5, 141840, Note_on_c, 2, 66, 95
5, 141840, Note_on_c, 2, 49, 31
5, 141840, Note_on_c, 2, 61, 95
5, 143280, Note_off_c, 2, 58, 31
5, 143280, Note_off_c, 2, 70, 95
5, 143280, Note_off_c, 2, 54, 31
5, 143280, Note_off_c, 2, 66, 95
5, 143280, Note_off_c, 2, 49, 31
5, 143280, Note_off_c, 2, 61, 95
5, 143280, Note_on_c, 2, 49, 31
5, 143280, Note_on_c, 2, 61, 95
5, 143520, Note_off_c, 2, 49, 31
5, 143520, Note_off_c, 2, 61, 95
5, 143520, Note_on_c, 2, 56, 31
5, 143520, Note_on_c, 2, 68, 95
5, 143760, Note_off_c, 2, 56, 31
5, 143760, Note_off_c, 2, 68, 95
5, 143760, Note_on_c, 2, 58, 31
5, 143760, Note_on_c, 2, 70, 95
5, 143760, Note_on_c, 2, 54, 31
5, 143760, Note_on_c, 2, 66, 95
5, 143760, Note_on_c, 2, 49, 31
5, 143760, Note_on_c, 2, 61, 95
5, 145200, Note_off_c, 2, 58, 31
5, 145200, Note_off_c, 2, 70, 95
5, 145200, Note_off_c, 2, 54, 31
5, 145200, Note_off_c, 2, 66, 95
5, 145200, Note_off_c, 2, 49, 31
5, 145200, Note_off_c, 2, 61, 95
5, 145200, Note_on_c, 2, 49, 31
5, 145200, Note_on_c, 2, 61, 95
5, 145440, Note_off_c, 2, 49, 31
5, 145440, Note_off_c, 2, 61, 95
5, 145440, Note_on_c, 2, 58, 31
5, 145440, Note_on_c, 2, 70, 95
5, 145440, Note_on_c, 2, 54, 31
5, 145440, Note_on_c, 2, 66, 95
5, 145920, Note_off_c, 2, 58, 31
5, 145920, Note_off_c, 2, 70, 95
5, 145920, Note_off_c, 2, 54, 31
5, 145920, Note_off_c, 2, 66, 95
5, 145920, Note_on_c, 2, 54, 31
5, 145920, Note_on_c, 2, 66, 95
5, 146400, Note_off_c, 2, 54, 31
5, 146400, Note_off_c, 2, 66, 95
5, 146400, Note_on_c, 2, 46, 31
5, 146400, Note_on_c, 2, 58, 95
5, 146640, Note_off_c, 2, 46, 31
5, 146640, Note_off_c, 2, 58, 95
5, 146640, Note_on_c, 2, 54, 31
5, 146640, Note_on_c, 2, 66, 95
5, 147120, Note_off_c, 2, 54, 31
5, 147120, Note_off_c, 2, 66, 95
5, 147120, Note_on_c, 2, 61, 31
5, 147120, Note_on_c, 2, 73, 95
5, 147120, Note_on_c, 2, 49, 31
5, 147120, Note_on_c, 2, 61, 95
5, 147360, Note_off_c, 2, 61, 31
5, 147360, Note_off_c, 2, 73, 95
5, 147360, Note_off_c, 2, 49, 31
5, 147360, Note_off_c, 2, 61, 95
5, 147360, Note_on_c, 2, 59, 31
5, 147360, Note_on_c, 2, 71, 95
5, 147360, Note_on_c, 2, 54, 31
5, 147360, Note_on_c, 2, 66, 95
5, 147360, Note_on_c, 2, 49, 31
5, 147360, Note_on_c, 2, 61, 95
5, 147600, Note_off_c, 2, 59, 31
5, 147600, Note_off_c, 2, 71, 95
5, 147600, Note_off_c, 2, 54, 31
5, 147600, Note_off_c, 2, 66, 95
5, 147600, Note_off_c, 2, 49, 31
5, 147600, Note_off_c, 2, 61, 95
5, 147600, Note_on_c, 2, 58, 31
5, 147600, Note_on_c, 2, 70, 95
5, 147600, Note_on_c, 2, 52, 31
5, 147600, Note_on_c, 2, 64, 95
5, 147600, Note_on_c, 2, 49, 31
5, 147600, Note_on_c, 2, 61, 95
5, 149040, Note_off_c, 2, 58, 31
5, 149040, Note_off_c, 2, 70, 95
5, 149040, Note_off_c, 2, 52, 31
5, 149040, Note_off_c, 2, 64, 95
5, 149040, Note_off_c, 2, 49, 31
5, 149040, Note_off_c, 2, 61, 95
5, 149040, Note_on_c, 2, 61, 31
5, 149040, Note_on_c, 2, 73, 95
5, 149280, Note_off_c, 2, 61, 31
5, 149280, Note_off_c, 2, 73, 95
5, 149280, Note_on_c, 2, 59, 31
5, 149280, Note_on_c, 2, 71, 95
5, 149280, Note_on_c, 2, 52, 31
5, 149280, Note_on_c, 2, 64, 95
5, 149280, Note_on_c, 2, 49, 31
5, 149280, Note_on_c, 2, 61, 95
5, 149520, Note_off_c, 2, 59, 31
5, 149520, Note_off_c, 2, 71, 95
5, 149520, Note_off_c, 2, 52, 31
5, 149520, Note_off_c, 2, 64, 95
5, 149520, Note_off_c, 2, 49, 31
5, 149520, Note_off_c, 2, 61, 95
5, 149520, Note_on_c, 2, 58, 31
5, 149520, Note_on_c, 2, 70, 95
5, 149520, Note_on_c, 2, 51, 31
5, 149520, Note_on_c, 2, 63, 95
5, 149520, Note_on_c, 2, 49, 31
5, 149520, Note_on_c, 2, 61, 95
5, 150240, Note_off_c, 2, 58, 31
5, 150240, Note_off_c, 2, 70, 95
5, 150240, Note_off_c, 2, 51, 31
5, 150240, Note_off_c, 2, 63, 95
5, 150240, Note_off_c, 2, 49, 31
5, 150240, Note_off_c, 2, 61, 95
5, 150240, Note_on_c, 2, 58, 31
5, 150240, Note_on_c, 2, 70, 95
5, 150480, Note_off_c, 2, 58, 31
5, 150480, Note_off_c, 2, 70, 95
5, 150480, Note_on_c, 2, 58, 31
5, 150480, Note_on_c, 2, 70, 95
5, 150960, Note_off_c, 2, 58, 31
5, 150960, Note_off_c, 2, 70, 95
5, 150960, Note_on_c, 2, 59, 31
5, 150960, Note_on_c, 2, 71, 95
5, 151200, Note_off_c, 2, 59, 31
5, 151200, Note_off_c, 2, 71, 95
5, 151200, Note_on_c, 2, 61, 31
5, 151200, Note_on_c, 2, 73, 95
5, 151200, Note_on_c, 2, 51, 31
5, 151200, Note_on_c, 2, 63, 95
5, 151200, Note_on_c, 2, 49, 31
5, 151200, Note_on_c, 2, 61, 95
5, 151440, Note_off_c, 2, 61, 31
5, 151440, Note_off_c, 2, 73, 95
5, 151440, Note_off_c, 2, 51, 31
5, 151440, Note_off_c, 2, 63, 95
5, 151440, Note_off_c, 2, 49, 31
5, 151440, Note_off_c, 2, 61, 95
5, 151440, Note_on_c, 2, 62, 31
5, 151440, Note_on_c, 2, 74, 95
5, 151440, Note_on_c, 2, 54, 31
5, 151440, Note_on_c, 2, 66, 95
5, 151440, Note_on_c, 2, 50, 31
5, 151440, Note_on_c, 2, 62, 95
5, 151440, Note_on_c, 2, 47, 31
5, 151440, Note_on_c, 2, 59, 95
5, 151920, Note_off_c, 2, 62, 31
5, 151920, Note_off_c, 2, 74, 95
5, 151920, Note_off_c, 2, 54, 31
5, 151920, Note_off_c, 2, 66, 95
5, 151920, Note_off_c, 2, 50, 31
5, 151920, Note_off_c, 2, 62, 95
5, 151920, Note_off_c, 2, 47, 31
5, 151920, Note_off_c, 2, 59, 95
5, 151920, Note_on_c, 2, 58, 31
5, 151920, Note_on_c, 2, 70, 95
5, 151920, Note_on_c, 2, 54, 31
5, 151920, Note_on_c, 2, 66, 95
5, 151920, Note_on_c, 2, 50, 31
5, 151920, Note_on_c, 2, 62, 95
5, 151920, Note_on_c, 2, 47, 31
5, 151920, Note_on_c, 2, 59, 95
5, 152400, Note_off_c, 2, 58, 31
5, 152400, Note_off_c, 2, 70, 95
5, 152400, Note_off_c, 2, 54, 31
5, 152400, Note_off_c, 2, 66, 95
5, 152400, Note_off_c, 2, 50, 31
5, 152400, Note_off_c, 2, 62, 95
5, 152400, Note_off_c, 2, 47, 31
5, 152400, Note_off_c, 2, 59, 95
5, 152400, Note_on_c, 2, 56, 31
5, 152400, Note_on_c, 2, 68, 95
5, 152880, Note_off_c, 2, 56, 31
5, 152880, Note_off_c, 2, 68, 95
5, 152880, Note_on_c, 2, 47, 31
5, 152880, Note_on_c, 2, 59, 95
5, 153120, Note_off_c, 2, 47, 31
5, 153120, Note_off_c, 2, 59, 95
5, 153120, Note_on_c, 2, 56, 31
5, 153120, Note_on_c, 2, 68, 95
5, 153120, Note_on_c, 2, 54, 31
5, 153120, Note_on_c, 2, 66, 95
5, 153120, Note_on_c, 2, 51, 31
5, 153120, Note_on_c, 2, 63, 95
5, 153600, Note_off_c, 2, 56, 31
5, 153600, Note_off_c, 2, 68, 95
5, 153600, Note_off_c, 2, 54, 31
5, 153600, Note_off_c, 2, 66, 95
5, 153600, Note_off_c, 2, 51, 31
5, 153600, Note_off_c, 2, 63, 95
5, 153600, Note_on_c, 2, 58, 31
5, 153600, Note_on_c, 2, 70, 95
5, 153600, Note_on_c, 2, 54, 31
5, 153600, Note_on_c, 2, 66, 95
5, 153600, Note_on_c, 2, 49, 31
5, 153600, Note_on_c, 2, 61, 95
5, 154800, Note_off_c, 2, 58, 31
5, 154800, Note_off_c, 2, 70, 95
5, 154800, Note_off_c, 2, 54, 31
5, 154800, Note_off_c, 2, 66, 95
5, 154800, Note_off_c, 2, 49, 31
5, 154800, Note_off_c, 2, 61, 95
5, 154800, Note_on_c, 2, 49, 31
5, 154800, Note_on_c, 2, 61, 95
5, 155040, Note_off_c, 2, 49, 31
5, 155040, Note_off_c, 2, 61, 95
5, 155040, Note_on_c, 2, 58, 31
5, 155040, Note_on_c, 2, 70, 95
5, 155040, Note_on_c, 2, 54, 31
5, 155040, Note_on_c, 2, 66, 95
5, 155280, Note_off_c, 2, 58, 31
5, 155280, Note_off_c, 2, 70, 95
5, 155280, Note_off_c, 2, 54, 31
5, 155280, Note_off_c, 2, 66, 95
5, 155280, Note_on_c, 2, 56, 31
5, 155280, Note_on_c, 2, 68, 95
5, 155280, Note_on_c, 2, 53, 31
5, 155280, Note_on_c, 2, 65, 95
5, 155280, Note_on_c, 2, 49, 31
5, 155280, Note_on_c, 2, 61, 95
5, 156720, Note_off_c, 2, 56, 31
5, 156720, Note_off_c, 2, 68, 95
5, 156720, Note_off_c, 2, 53, 31
5, 156720, Note_off_c, 2, 65, 95
5, 156720, Note_off_c, 2, 49, 31
5, 156720, Note_off_c, 2, 61, 95
5, 156720, Note_on_c, 2, 49, 31
5, 156720, Note_on_c, 2, 61, 95
5, 156960, Note_off_c, 2, 49, 31
5, 156960, Note_off_c, 2, 61, 95
5, 156960, Note_on_c, 2, 56, 31
5, 156960, Note_on_c, 2, 68, 95
5, 156960, Note_on_c, 2, 53, 31
5, 156960, Note_on_c, 2, 65, 95
5, 157200, Note_off_c, 2, 56, 31
5, 157200, Note_off_c, 2, 68, 95
5, 157200, Note_off_c, 2, 53, 31
5, 157200, Note_off_c, 2, 65, 95
5, 157200, Note_on_c, 2, 59, 31
5, 157200, Note_on_c, 2, 71, 95
5, 157200, Note_on_c, 2, 54, 31
5, 157200, Note_on_c, 2, 66, 95
5, 157200, Note_on_c, 2, 51, 31
5, 157200, Note_on_c, 2, 63, 95
5, 158640, Note_off_c, 2, 59, 31
5, 158640, Note_off_c, 2, 71, 95
5, 158640, Note_off_c, 2, 54, 31
5, 158640, Note_off_c, 2, 66, 95
5, 158640, Note_off_c, 2, 51, 31
5, 158640, Note_off_c, 2, 63, 95
5, 158640, Note_on_c, 2, 51, 31
5, 158640, Note_on_c, 2, 63, 95
5, 158880, Note_off_c, 2, 51, 31
5, 158880, Note_off_c, 2, 63, 95
5, 158880, Note_on_c, 2, 59, 31
5, 158880, Note_on_c, 2, 71, 95
5, 158880, Note_on_c, 2, 54, 31
5, 158880, Note_on_c, 2, 66, 95
5, 159120, Note_off_c, 2, 59, 31
5, 159120, Note_off_c, 2, 71, 95
5, 159120, Note_off_c, 2, 54, 31
5, 159120, Note_off_c, 2, 66, 95
5, 159120, Note_on_c, 2, 58, 31
5, 159120, Note_on_c, 2, 70, 95
5, 159120, Note_on_c, 2, 54, 31
5, 159120, Note_on_c, 2, 66, 95
5, 159120, Note_on_c, 2, 49, 31
5, 159120, Note_on_c, 2, 61, 95
5, 160560, Note_off_c, 2, 58, 31
5, 160560, Note_off_c, 2, 70, 95
5, 160560, Note_off_c, 2, 54, 31
5, 160560, Note_off_c, 2, 66, 95
5, 160560, Note_off_c, 2, 49, 31
5, 160560, Note_off_c, 2, 61, 95
5, 160560, Note_on_c, 2, 49, 31
5, 160560, Note_on_c, 2, 61, 95
5, 160800, Note_off_c, 2, 49, 31
5, 160800, Note_off_c, 2, 61, 95
5, 160800, Note_on_c, 2, 56, 31
5, 160800, Note_on_c, 2, 68, 95
5, 161040, Note_off_c, 2, 56, 31
5, 161040, Note_off_c, 2, 68, 95
5, 161040, Note_on_c, 2, 58, 31
5, 161040, Note_on_c, 2, 70, 95
5, 161040, Note_on_c, 2, 54, 31
5, 161040, Note_on_c, 2, 66, 95
5, 161040, Note_on_c, 2, 49, 31
5, 161040, Note_on_c, 2, 61, 95
5, 162480, Note_off_c, 2, 58, 31
5, 162480, Note_off_c, 2, 70, 95
5, 162480, Note_off_c, 2, 54, 31
5, 162480, Note_off_c, 2, 66, 95
5, 162480, Note_off_c, 2, 49, 31
5, 162480, Note_off_c, 2, 61, 95
5, 162480, Note_on_c, 2, 49, 31
5, 162480, Note_on_c, 2, 61, 95
5, 162720, Note_on_c, 2, 58, 31
5, 162720, Note_on_c, 2, 70, 95
5, 162720, Note_on_c, 2, 54, 31
5, 162720, Note_on_c, 2, 66, 95
5, 164400, Note_off_c, 2, 49, 31
5, 164400, Note_off_c, 2, 61, 95
5, 164400, Note_off_c, 2, 58, 31
5, 164400, Note_off_c, 2, 70, 95
5, 164400, Note_off_c, 2, 54, 31
5, 164400, Note_off_c, 2, 66, 95
5, 164400, Note_on_c, 2, 49, 31
5, 164400, Note_on_c, 2, 61, 95
5, 164640, Note_off_c, 2, 49, 31
5, 164640, Note_off_c, 2, 61, 95
5, 164640, Note_on_c, 2, 56, 31
5, 164640, Note_on_c, 2, 68, 95
5, 164880, Note_off_c, 2, 56, 31
5, 164880, Note_off_c, 2, 68, 95
5, 164880, Note_on_c, 2, 58, 31
5, 164880, Note_on_c, 2, 70, 95
5, 164880, Note_on_c, 2, 54, 31
5, 164880, Note_on_c, 2, 66, 95
5, 164880, Note_on_c, 2, 49, 31
5, 164880, Note_on_c, 2, 61, 95
5, 166320, Note_off_c, 2, 58, 31
5, 166320, Note_off_c, 2, 70, 95
5, 166320, Note_off_c, 2, 54, 31
5, 166320, Note_off_c, 2, 66, 95
5, 166320, Note_off_c, 2, 49, 31
5, 166320, Note_off_c, 2, 61, 95
5, 166320, Note_on_c, 2, 49, 31
5, 166320, Note_on_c, 2, 61, 95
5, 166560, Note_off_c, 2, 49, 31
5, 166560, Note_off_c, 2, 61, 95
5, 166560, Note_on_c, 2, 58, 31
5, 166560, Note_on_c, 2, 70, 95
5, 166560, Note_on_c, 2, 54, 31
5, 166560, Note_on_c, 2, 66, 95
5, 167040, Note_off_c, 2, 58, 31
5, 167040, Note_off_c, 2, 70, 95
5, 167040, Note_off_c, 2, 54, 31
5, 167040, Note_off_c, 2, 66, 95
5, 167040, Note_on_c, 2, 56, 31
5, 167040, Note_on_c, 2, 68, 95
5, 167040, Note_on_c, 2, 51, 31
5, 167040, Note_on_c, 2, 63, 95
5, 167040, Note_on_c, 2, 47, 31
5, 167040, Note_on_c, 2, 59, 95
5, 168240, Note_off_c, 2, 56, 31
5, 168240, Note_off_c, 2, 68, 95
5, 168240, Note_off_c, 2, 51, 31
5, 168240, Note_off_c, 2, 63, 95
5, 168240, Note_off_c, 2, 47, 31
5, 168240, Note_off_c, 2, 59, 95
5, 168240, Note_on_c, 2, 47, 31
5, 168240, Note_on_c, 2, 59, 95
5, 168480, Note_off_c, 2, 47, 31
5, 168480, Note_off_c, 2, 59, 95
5, 168480, Note_on_c, 2, 56, 31
5, 168480, Note_on_c, 2, 68, 95
5, 168480, Note_on_c, 2, 51, 31
5, 168480, Note_on_c, 2, 63, 95
5, 168720, Note_off_c, 2, 56, 31
5, 168720, Note_off_c, 2, 68, 95
5, 168720, Note_off_c, 2, 51, 31
5, 168720, Note_off_c, 2, 63, 95
5, 168720, Note_on_c, 2, 58, 31
5, 168720, Note_on_c, 2, 70, 95
5, 168720, Note_on_c, 2, 54, 31
5, 168720, Note_on_c, 2, 66, 95
5, 168720, Note_on_c, 2, 49, 31
5, 168720, Note_on_c, 2, 61, 95
5, 170160, Note_off_c, 2, 58, 31
5, 170160, Note_off_c, 2, 70, 95
5, 170160, Note_off_c, 2, 54, 31
5, 170160, Note_off_c, 2, 66, 95
5, 170160, Note_off_c, 2, 49, 31
5, 170160, Note_off_c, 2, 61, 95
5, 170160, Note_on_c, 2, 49, 31
5, 170160, Note_on_c, 2, 61, 95
5, 170400, Note_off_c, 2, 49, 31
5, 170400, Note_off_c, 2, 61, 95
5, 170400, Note_on_c, 2, 58, 31
5, 170400, Note_on_c, 2, 70, 95
5, 170400, Note_on_c, 2, 54, 31
5, 170400, Note_on_c, 2, 66, 95
5, 170640, Note_off_c, 2, 58, 31
5, 170640, Note_off_c, 2, 70, 95
5, 170640, Note_off_c, 2, 54, 31
5, 170640, Note_off_c, 2, 66, 95
5, 170640, Note_on_c, 2, 59, 31
5, 170640, Note_on_c, 2, 71, 95
5, 170640, Note_on_c, 2, 54, 31
5, 170640, Note_on_c, 2, 66, 95
5, 170640, Note_on_c, 2, 51, 31
5, 170640, Note_on_c, 2, 63, 95
5, 172080, Note_off_c, 2, 59, 31
5, 172080, Note_off_c, 2, 71, 95
5, 172080, Note_off_c, 2, 54, 31
5, 172080, Note_off_c, 2, 66, 95
5, 172080, Note_off_c, 2, 51, 31
5, 172080, Note_off_c, 2, 63, 95
5, 172080, Note_on_c, 2, 51, 31
5, 172080, Note_on_c, 2, 63, 95
5, 172320, Note_off_c, 2, 51, 31
5, 172320, Note_off_c, 2, 63, 95
5, 172320, Note_on_c, 2, 59, 31
5, 172320, Note_on_c, 2, 71, 95
5, 172320, Note_on_c, 2, 54, 31
5, 172320, Note_on_c, 2, 66, 95
5, 172560, Note_off_c, 2, 59, 31
5, 172560, Note_off_c, 2, 71, 95
5, 172560, Note_off_c, 2, 54, 31
5, 172560, Note_off_c, 2, 66, 95
5, 172560, Note_on_c, 2, 61, 31
5, 172560, Note_on_c, 2, 73, 95
5, 172560, Note_on_c, 2, 56, 31
5, 172560, Note_on_c, 2, 68, 95
5, 172560, Note_on_c, 2, 53, 31
5, 172560, Note_on_c, 2, 65, 95
5, 174000, Note_off_c, 2, 61, 31
5, 174000, Note_off_c, 2, 73, 95
5, 174000, Note_off_c, 2, 56, 31
5, 174000, Note_off_c, 2, 68, 95
5, 174000, Note_off_c, 2, 53, 31
5, 174000, Note_off_c, 2, 65, 95
5, 174000, Note_on_c, 2, 53, 31
5, 174000, Note_on_c, 2, 65, 95
5, 174240, Note_off_c, 2, 53, 31
5, 174240, Note_off_c, 2, 65, 95
5, 174240, Note_on_c, 2, 61, 31
5, 174240, Note_on_c, 2, 73, 95
5, 174240, Note_on_c, 2, 56, 31
5, 174240, Note_on_c, 2, 68, 95
5, 174720, Note_off_c, 2, 61, 31
5, 174720, Note_off_c, 2, 73, 95
5, 174720, Note_off_c, 2, 56, 31
5, 174720, Note_off_c, 2, 68, 95
5, 174720, Note_on_c, 2, 56, 31
5, 174720, Note_on_c, 2, 68, 95
5, 174720, Note_on_c, 2, 51, 31
5, 174720, Note_on_c, 2, 63, 95
5, 174720, Note_on_c, 2, 47, 31
5, 174720, Note_on_c, 2, 59, 95
5, 175920, Note_off_c, 2, 56, 31
5, 175920, Note_off_c, 2, 68, 95
5, 175920, Note_off_c, 2, 51, 31
5, 175920, Note_off_c, 2, 63, 95
5, 175920, Note_off_c, 2, 47, 31
5, 175920, Note_off_c, 2, 59, 95
5, 175920, Note_on_c, 2, 47, 31
5, 175920, Note_on_c, 2, 59, 95
5, 176160, Note_off_c, 2, 47, 31
5, 176160, Note_off_c, 2, 59, 95
5, 176160, Note_on_c, 2, 56, 31
5, 176160, Note_on_c, 2, 68, 95
5, 176160, Note_on_c, 2, 51, 31
5, 176160, Note_on_c, 2, 63, 95
5, 176400, Note_off_c, 2, 56, 31
5, 176400, Note_off_c, 2, 68, 95
5, 176400, Note_off_c, 2, 51, 31
5, 176400, Note_off_c, 2, 63, 95
5, 176400, Note_on_c, 2, 58, 31
5, 176400, Note_on_c, 2, 70, 95
5, 176400, Note_on_c, 2, 54, 31
5, 176400, Note_on_c, 2, 66, 95
5, 176400, Note_on_c, 2, 49, 31
5, 176400, Note_on_c, 2, 61, 95
5, 177840, Note_off_c, 2, 58, 31
5, 177840, Note_off_c, 2, 70, 95
5, 177840, Note_off_c, 2, 54, 31
5, 177840, Note_off_c, 2, 66, 95
5, 177840, Note_off_c, 2, 49, 31
5, 177840, Note_off_c, 2, 61, 95
5, 177840, Note_on_c, 2, 49, 31
5, 177840, Note_on_c, 2, 61, 95
5, 178080, Note_off_c, 2, 49, 31
5, 178080, Note_off_c, 2, 61, 95
5, 178080, Note_on_c, 2, 58, 31
5, 178080, Note_on_c, 2, 70, 95
5, 178080, Note_on_c, 2, 54, 31
5, 178080, Note_on_c, 2, 66, 95
5, 178320, Note_off_c, 2, 58, 31
5, 178320, Note_off_c, 2, 70, 95
5, 178320, Note_off_c, 2, 54, 31
5, 178320, Note_off_c, 2, 66, 95
5, 178320, Note_on_c, 2, 59, 31
5, 178320, Note_on_c, 2, 71, 95
5, 178320, Note_on_c, 2, 54, 31
5, 178320, Note_on_c, 2, 66, 95
5, 178320, Note_on_c, 2, 51, 31
5, 178320, Note_on_c, 2, 63, 95
5, 179760, Note_off_c, 2, 59, 31
5, 179760, Note_off_c, 2, 71, 95
5, 179760, Note_off_c, 2, 54, 31
5, 179760, Note_off_c, 2, 66, 95
5, 179760, Note_off_c, 2, 51, 31
5, 179760, Note_off_c, 2, 63, 95
5, 179760, Note_on_c, 2, 51, 31
5, 179760, Note_on_c, 2, 63, 95
5, 180000, Note_off_c, 2, 51, 31
5, 180000, Note_off_c, 2, 63, 95
5, 180000, Note_on_c, 2, 59, 31
5, 180000, Note_on_c, 2, 71, 95
5, 180000, Note_on_c, 2, 54, 31
5, 180000, Note_on_c, 2, 66, 95
5, 180240, Note_off_c, 2, 59, 31
5, 180240, Note_off_c, 2, 71, 95
5, 180240, Note_off_c, 2, 54, 31
5, 180240, Note_off_c, 2, 66, 95
5, 180240, Note_on_c, 2, 61, 31
5, 180240, Note_on_c, 2, 73, 95
5, 180240, Note_on_c, 2, 56, 31
5, 180240, Note_on_c, 2, 68, 95
5, 180240, Note_on_c, 2, 53, 31
5, 180240, Note_on_c, 2, 65, 95
5, 181680, Note_off_c, 2, 61, 31
5, 181680, Note_off_c, 2, 73, 95
5, 181680, Note_off_c, 2, 56, 31
5, 181680, Note_off_c, 2, 68, 95
5, 181680, Note_off_c, 2, 53, 31
5, 181680, Note_off_c, 2, 65, 95
5, 181680, Note_on_c, 2, 53, 31
5, 181680, Note_on_c, 2, 65, 95
5, 181920, Note_off_c, 2, 53, 31
5, 181920, Note_off_c, 2, 65, 95
5, 181920, Note_on_c, 2, 61, 31
5, 181920, Note_on_c, 2, 73, 95
5, 181920, Note_on_c, 2, 56, 31
5, 181920, Note_on_c, 2, 68, 95
5, 182400, Note_off_c, 2, 61, 31
5, 182400, Note_off_c, 2, 73, 95
5, 182400, Note_off_c, 2, 56, 31
5, 182400, Note_off_c, 2, 68, 95
5, 182400, Note_on_c, 2, 49, 31
5, 182400, Note_on_c, 2, 61, 95
5, 182430, Note_on_c, 2, 54, 31
5, 182430, Note_on_c, 2, 66, 95
5, 182460, Note_on_c, 2, 58, 31
5, 182460, Note_on_c, 2, 70, 95
5, 182490, Note_on_c, 2, 61, 31
5, 182490, Note_on_c, 2, 73, 95
5, 183600, Note_off_c, 2, 61, 31
5, 183600, Note_off_c, 2, 73, 95
5, 183600, Note_off_c, 2, 58, 31
5, 183600, Note_off_c, 2, 70, 95
5, 183600, Note_off_c, 2, 54, 31
5, 183600, Note_off_c, 2, 66, 95
5, 183600, Note_off_c, 2, 49, 31
5, 183600, Note_off_c, 2, 61, 95
5, 183600, Note_on_c, 2, 49, 31
5, 183600, Note_on_c, 2, 61, 95
5, 183840, Note_off_c, 2, 49, 31
5, 183840, Note_off_c, 2, 61, 95
5, 183840, Note_on_c, 2, 54, 31
5, 183840, Note_on_c, 2, 66, 95
5, 183855, Note_on_c, 2, 58, 31
5, 183855, Note_on_c, 2, 70, 95
5, 183870, Note_on_c, 2, 61, 31
5, 183870, Note_on_c, 2, 73, 95
5, 184320, Note_off_c, 2, 61, 31
5, 184320, Note_off_c, 2, 73, 95
5, 184320, Note_off_c, 2, 58, 31
5, 184320, Note_off_c, 2, 70, 95
5, 184320, Note_off_c, 2, 54, 31
5, 184320, Note_off_c, 2, 66, 95
5, 184320, Note_on_c, 2, 60, 31
5, 184320, Note_on_c, 2, 72, 95
5, 184320, Note_on_c, 2, 56, 31
5, 184320, Note_on_c, 2, 68, 95
5, 184320, Note_on_c, 2, 54, 31
5, 184320, Note_on_c, 2, 66, 95
5, 184320, Note_on_c, 2, 51, 31
5, 184320, Note_on_c, 2, 63, 95
5, 185280, Note_off_c, 2, 60, 31
5, 185280, Note_off_c, 2, 72, 95
5, 185280, Note_off_c, 2, 56, 31
5, 185280, Note_off_c, 2, 68, 95
5, 185280, Note_off_c, 2, 54, 31
5, 185280, Note_off_c, 2, 66, 95
5, 185280, Note_off_c, 2, 51, 31
5, 185280, Note_off_c, 2, 63, 95
5, 185280, Note_on_c, 2, 56, 31
5, 185280, Note_on_c, 2, 68, 95
5, 186240, Note_off_c, 2, 56, 31
5, 186240, Note_off_c, 2, 68, 95
5, 186240, Note_on_c, 2, 51, 31
5, 186240, Note_on_c, 2, 63, 95
5, 186270, Note_on_c, 2, 54, 31
5, 186270, Note_on_c, 2, 66, 95
5, 186300, Note_on_c, 2, 59, 31
5, 186300, Note_on_c, 2, 71, 95
5, 188160, Note_off_c, 2, 59, 31
5, 188160, Note_off_c, 2, 71, 95
5, 188160, Note_off_c, 2, 54, 31
5, 188160, Note_off_c, 2, 66, 95
5, 188160, Note_off_c, 2, 51, 31
5, 188160, Note_off_c, 2, 63, 95
5, 188160, Note_on_c, 2, 49, 31
5, 188160, Note_on_c, 2, 61, 95
5, 188190, Note_on_c, 2, 53, 31
5, 188190, Note_on_c, 2, 65, 95
5, 188220, Note_on_c, 2, 56, 31
5, 188220, Note_on_c, 2, 68, 95
5, 188250, Note_on_c, 2, 61, 31
5, 188250, Note_on_c, 2, 73, 95
5, 190080, Note_off_c, 2, 61, 31
5, 190080, Note_off_c, 2, 73, 95
5, 190080, Note_off_c, 2, 56, 31
5, 190080, Note_off_c, 2, 68, 95
5, 190080, Note_off_c, 2, 53, 31
5, 190080, Note_off_c, 2, 65, 95
5, 190080, Note_off_c, 2, 49, 31
5, 190080, Note_off_c, 2, 61, 95
5, 191280, Note_on_c, 2, 61, 31
5, 191280, Note_on_c, 2, 73, 95
5, 191520, Note_off_c, 2, 61, 31
5, 191520, Note_off_c, 2, 73, 95
5, 191520, Note_on_c, 2, 59, 31
5, 191520, Note_on_c, 2, 71, 95
5, 191760, Note_off_c, 2, 59, 31
5, 191760, Note_off_c, 2, 71, 95
5, 191760, Note_on_c, 2, 58, 31
5, 191760, Note_on_c, 2, 70, 95
5, 191760, Note_on_c, 2, 54, 31
5, 191760, Note_on_c, 2, 66, 95
5, 191760, Note_on_c, 2, 49, 31
5, 191760, Note_on_c, 2, 61, 95
5, 192000, Note_off_c, 2, 58, 31
5, 192000, Note_off_c, 2, 70, 95
5, 192000, Note_off_c, 2, 54, 31
5, 192000, Note_off_c, 2, 66, 95
5, 192000, Note_off_c, 2, 49, 31
5, 192000, Note_off_c, 2, 61, 95
5, 192000, Note_on_c, 2, 54, 31
5, 192000, Note_on_c, 2, 66, 95
5, 192480, Note_off_c, 2, 54, 31
5, 192480, Note_off_c, 2, 66, 95
5, 192480, Note_on_c, 2, 46, 31
5, 192480, Note_on_c, 2, 58, 95
5, 192720, Note_off_c, 2, 46, 31
5, 192720, Note_off_c, 2, 58, 95
5, 192720, Note_on_c, 2, 54, 31
5, 192720, Note_on_c, 2, 66, 95
5, 193200, Note_off_c, 2, 54, 31
5, 193200, Note_off_c, 2, 66, 95
5, 193200, Note_on_c, 2, 61, 31
5, 193200, Note_on_c, 2, 73, 95
5, 193200, Note_on_c, 2, 49, 31
5, 193200, Note_on_c, 2, 61, 95
5, 193440, Note_off_c, 2, 61, 31
5, 193440, Note_off_c, 2, 73, 95
5, 193440, Note_off_c, 2, 49, 31
5, 193440, Note_off_c, 2, 61, 95
5, 193440, Note_on_c, 2, 59, 31
5, 193440, Note_on_c, 2, 71, 95
5, 193440, Note_on_c, 2, 54, 31
5, 193440, Note_on_c, 2, 66, 95
5, 193440, Note_on_c, 2, 49, 31
5, 193440, Note_on_c, 2, 61, 95
5, 193680, Note_off_c, 2, 59, 31
5, 193680, Note_off_c, 2, 71, 95
5, 193680, Note_off_c, 2, 54, 31
5, 193680, Note_off_c, 2, 66, 95
5, 193680, Note_off_c, 2, 49, 31
5, 193680, Note_off_c, 2, 61, 95
5, 193680, Note_on_c, 2, 58, 31
5, 193680, Note_on_c, 2, 70, 95
5, 193680, Note_on_c, 2, 52, 31
5, 193680, Note_on_c, 2, 64, 95
5, 193680, Note_on_c, 2, 49, 31
5, 193680, Note_on_c, 2, 61, 95
5, 195120, Note_off_c, 2, 58, 31
5, 195120, Note_off_c, 2, 70, 95
5, 195120, Note_off_c, 2, 52, 31
5, 195120, Note_off_c, 2, 64, 95
5, 195120, Note_off_c, 2, 49, 31
5, 195120, Note_off_c, 2, 61, 95
5, 195120, Note_on_c, 2, 61, 31
5, 195120, Note_on_c, 2, 73, 95
5, 195360, Note_off_c, 2, 61, 31
5, 195360, Note_off_c, 2, 73, 95
5, 195360, Note_on_c, 2, 59, 31
5, 195360, Note_on_c, 2, 71, 95
5, 195360, Note_on_c, 2, 52, 31
5, 195360, Note_on_c, 2, 64, 95
5, 195360, Note_on_c, 2, 49, 31
5, 195360, Note_on_c, 2, 61, 95
5, 195600, Note_off_c, 2, 59, 31
5, 195600, Note_off_c, 2, 71, 95
5, 195600, Note_off_c, 2, 52, 31
5, 195600, Note_off_c, 2, 64, 95
5, 195600, Note_off_c, 2, 49, 31
5, 195600, Note_off_c, 2, 61, 95
5, 195600, Note_on_c, 2, 58, 31
5, 195600, Note_on_c, 2, 70, 95
5, 195600, Note_on_c, 2, 51, 31
5, 195600, Note_on_c, 2, 63, 95
5, 195600, Note_on_c, 2, 49, 31
5, 195600, Note_on_c, 2, 61, 95
5, 196320, Note_off_c, 2, 58, 31
5, 196320, Note_off_c, 2, 70, 95
5, 196320, Note_off_c, 2, 51, 31
5, 196320, Note_off_c, 2, 63, 95
5, 196320, Note_off_c, 2, 49, 31
5, 196320, Note_off_c, 2, 61, 95
5, 196320, Note_on_c, 2, 58, 31
5, 196320, Note_on_c, 2, 70, 95
5, 196560, Note_off_c, 2, 58, 31
5, 196560, Note_off_c, 2, 70, 95
5, 196560, Note_on_c, 2, 58, 31
5, 196560, Note_on_c, 2, 70, 95
5, 197040, Note_off_c, 2, 58, 31
5, 197040, Note_off_c, 2, 70, 95
5, 197040, Note_on_c, 2, 59, 31
5, 197040, Note_on_c, 2, 71, 95
5, 197280, Note_off_c, 2, 59, 31
5, 197280, Note_off_c, 2, 71, 95
5, 197280, Note_on_c, 2, 61, 31
5, 197280, Note_on_c, 2, 73, 95
5, 197280, Note_on_c, 2, 51, 31
5, 197280, Note_on_c, 2, 63, 95
5, 197280, Note_on_c, 2, 49, 31
5, 197280, Note_on_c, 2, 61, 95
5, 197520, Note_off_c, 2, 61, 31
5, 197520, Note_off_c, 2, 73, 95
5, 197520, Note_off_c, 2, 51, 31
5, 197520, Note_off_c, 2, 63, 95
5, 197520, Note_off_c, 2, 49, 31
5, 197520, Note_off_c, 2, 61, 95
5, 197520, Note_on_c, 2, 62, 31
5, 197520, Note_on_c, 2, 74, 95
5, 197520, Note_on_c, 2, 54, 31
5, 197520, Note_on_c, 2, 66, 95
5, 197520, Note_on_c, 2, 50, 31
5, 197520, Note_on_c, 2, 62, 95
5, 197520, Note_on_c, 2, 47, 31
5, 197520, Note_on_c, 2, 59, 95
5, 198000, Note_off_c, 2, 62, 31
5, 198000, Note_off_c, 2, 74, 95
5, 198000, Note_off_c, 2, 54, 31
5, 198000, Note_off_c, 2, 66, 95
5, 198000, Note_off_c, 2, 50, 31
5, 198000, Note_off_c, 2, 62, 95
5, 198000, Note_off_c, 2, 47, 31
5, 198000, Note_off_c, 2, 59, 95
5, 198000, Note_on_c, 2, 58, 31
5, 198000, Note_on_c, 2, 70, 95
5, 198000, Note_on_c, 2, 54, 31
5, 198000, Note_on_c, 2, 66, 95
5, 198000, Note_on_c, 2, 50, 31
5, 198000, Note_on_c, 2, 62, 95
5, 198000, Note_on_c, 2, 47, 31
5, 198000, Note_on_c, 2, 59, 95
5, 198480, Note_off_c, 2, 58, 31
5, 198480, Note_off_c, 2, 70, 95
5, 198480, Note_off_c, 2, 54, 31
5, 198480, Note_off_c, 2, 66, 95
5, 198480, Note_off_c, 2, 50, 31
5, 198480, Note_off_c, 2, 62, 95
5, 198480, Note_off_c, 2, 47, 31
5, 198480, Note_off_c, 2, 59, 95
5, 198480, Note_on_c, 2, 56, 31
5, 198480, Note_on_c, 2, 68, 95
5, 198960, Note_off_c, 2, 56, 31
5, 198960, Note_off_c, 2, 68, 95
5, 198960, Note_on_c, 2, 47, 31
5, 198960, Note_on_c, 2, 59, 95
5, 199200, Note_off_c, 2, 47, 31
5, 199200, Note_off_c, 2, 59, 95
5, 199200, Note_on_c, 2, 56, 31
5, 199200, Note_on_c, 2, 68, 95
5, 199200, Note_on_c, 2, 54, 31
5, 199200, Note_on_c, 2, 66, 95
5, 199200, Note_on_c, 2, 51, 31
5, 199200, Note_on_c, 2, 63, 95
5, 199680, Note_off_c, 2, 56, 31
5, 199680, Note_off_c, 2, 68, 95
5, 199680, Note_off_c, 2, 54, 31
5, 199680, Note_off_c, 2, 66, 95
5, 199680, Note_off_c, 2, 51, 31
5, 199680, Note_off_c, 2, 63, 95
5, 199680, Note_on_c, 2, 58, 31
5, 199680, Note_on_c, 2, 70, 95
5, 199680, Note_on_c, 2, 54, 31
5, 199680, Note_on_c, 2, 66, 95
5, 199680, Note_on_c, 2, 49, 31
5, 199680, Note_on_c, 2, 61, 95
5, 200880, Note_off_c, 2, 58, 31
5, 200880, Note_off_c, 2, 70, 95
5, 200880, Note_off_c, 2, 54, 31
5, 200880, Note_off_c, 2, 66, 95
5, 200880, Note_off_c, 2, 49, 31
5, 200880, Note_off_c, 2, 61, 95
5, 200880, Note_on_c, 2, 49, 31
5, 200880, Note_on_c, 2, 61, 95
5, 201120, Note_off_c, 2, 49, 31
5, 201120, Note_off_c, 2, 61, 95
5, 201120, Note_on_c, 2, 58, 31
5, 201120, Note_on_c, 2, 70, 95
5, 201120, Note_on_c, 2, 54, 31
5, 201120, Note_on_c, 2, 66, 95
5, 201360, Note_off_c, 2, 58, 31
5, 201360, Note_off_c, 2, 70, 95
5, 201360, Note_off_c, 2, 54, 31
5, 201360, Note_off_c, 2, 66, 95
5, 201360, Note_on_c, 2, 56, 31
5, 201360, Note_on_c, 2, 68, 95
5, 201360, Note_on_c, 2, 53, 31
5, 201360, Note_on_c, 2, 65, 95
5, 201360, Note_on_c, 2, 49, 31
5, 201360, Note_on_c, 2, 61, 95
5, 202800, Note_off_c, 2, 56, 31
5, 202800, Note_off_c, 2, 68, 95
5, 202800, Note_off_c, 2, 53, 31
5, 202800, Note_off_c, 2, 65, 95
5, 202800, Note_off_c, 2, 49, 31
5, 202800, Note_off_c, 2, 61, 95
5, 202800, Note_on_c, 2, 49, 31
5, 202800, Note_on_c, 2, 61, 95
5, 203040, Note_off_c, 2, 49, 31
5, 203040, Note_off_c, 2, 61, 95
5, 203040, Note_on_c, 2, 56, 31
5, 203040, Note_on_c, 2, 68, 95
5, 203040, Note_on_c, 2, 53, 31
5, 203040, Note_on_c, 2, 65, 95
5, 203280, Note_off_c, 2, 56, 31
5, 203280, Note_off_c, 2, 68, 95
5, 203280, Note_off_c, 2, 53, 31
5, 203280, Note_off_c, 2, 65, 95
5, 203280, Note_on_c, 2, 59, 31
5, 203280, Note_on_c, 2, 71, 95
5, 203280, Note_on_c, 2, 54, 31
5, 203280, Note_on_c, 2, 66, 95
5, 203280, Note_on_c, 2, 51, 31
5, 203280, Note_on_c, 2, 63, 95
5, 204720, Note_off_c, 2, 59, 31
5, 204720, Note_off_c, 2, 71, 95
5, 204720, Note_off_c, 2, 54, 31
5, 204720, Note_off_c, 2, 66, 95
5, 204720, Note_off_c, 2, 51, 31
5, 204720, Note_off_c, 2, 63, 95
5, 204720, Note_on_c, 2, 51, 31
5, 204720, Note_on_c, 2, 63, 95
5, 204960, Note_off_c, 2, 51, 31
5, 204960, Note_off_c, 2, 63, 95
5, 204960, Note_on_c, 2, 59, 31
5, 204960, Note_on_c, 2, 71, 95
5, 204960, Note_on_c, 2, 54, 31
5, 204960, Note_on_c, 2, 66, 95
5, 205200, Note_off_c, 2, 59, 31
5, 205200, Note_off_c, 2, 71, 95
5, 205200, Note_off_c, 2, 54, 31
5, 205200, Note_off_c, 2, 66, 95
5, 205200, Note_on_c, 2, 58, 31
5, 205200, Note_on_c, 2, 70, 95
5, 205200, Note_on_c, 2, 54, 31
5, 205200, Note_on_c, 2, 66, 95
5, 205200, Note_on_c, 2, 49, 31
5, 205200, Note_on_c, 2, 61, 95
5, 206640, Note_off_c, 2, 58, 31
5, 206640, Note_off_c, 2, 70, 95
5, 206640, Note_off_c, 2, 54, 31
5, 206640, Note_off_c, 2, 66, 95
5, 206640, Note_off_c, 2, 49, 31
5, 206640, Note_off_c, 2, 61, 95
5, 206640, Note_on_c, 2, 49, 31
5, 206640, Note_on_c, 2, 61, 95
5, 206880, Note_off_c, 2, 49, 31
5, 206880, Note_off_c, 2, 61, 95
5, 206880, Note_on_c, 2, 56, 31
5, 206880, Note_on_c, 2, 68, 95
5, 207120, Note_off_c, 2, 56, 31
5, 207120, Note_off_c, 2, 68, 95
5, 207120, Note_on_c, 2, 58, 31
5, 207120, Note_on_c, 2, 70, 95
5, 207120, Note_on_c, 2, 54, 31
5, 207120, Note_on_c, 2, 66, 95
5, 207120, Note_on_c, 2, 49, 31
5, 207120, Note_on_c, 2, 61, 95
5, 208560, Note_off_c, 2, 58, 31
5, 208560, Note_off_c, 2, 70, 95
5, 208560, Note_off_c, 2, 54, 31
5, 208560, Note_off_c, 2, 66, 95
5, 208560, Note_off_c, 2, 49, 31
5, 208560, Note_off_c, 2, 61, 95
5, 208560, Note_on_c, 2, 49, 31
5, 208560, Note_on_c, 2, 61, 95
5, 208800, Note_off_c, 2, 49, 31
5, 208800, Note_off_c, 2, 61, 95
5, 208800, Note_on_c, 2, 58, 31
5, 208800, Note_on_c, 2, 70, 95
5, 208800, Note_on_c, 2, 54, 31
5, 208800, Note_on_c, 2, 66, 95
5, 209280, Note_off_c, 2, 58, 31
5, 209280, Note_off_c, 2, 70, 95
5, 209280, Note_off_c, 2, 54, 31
5, 209280, Note_off_c, 2, 66, 95
5, 209280, Note_on_c, 2, 54, 31
5, 209280, Note_on_c, 2, 66, 95
5, 209760, Note_off_c, 2, 54, 31
5, 209760, Note_off_c, 2, 66, 95
5, 209760, Note_on_c, 2, 46, 31
5, 209760, Note_on_c, 2, 58, 95
5, 210000, Note_off_c, 2, 46, 31
5, 210000, Note_off_c, 2, 58, 95
5, 210000, Note_on_c, 2, 54, 31
5, 210000, Note_on_c, 2, 66, 95
5, 210480, Note_off_c, 2, 54, 31
5, 210480, Note_off_c, 2, 66, 95
5, 210480, Note_on_c, 2, 61, 31
5, 210480, Note_on_c, 2, 73, 95
5, 210480, Note_on_c, 2, 49, 31
5, 210480, Note_on_c, 2, 61, 95
5, 210720, Note_off_c, 2, 61, 31
5, 210720, Note_off_c, 2, 73, 95
5, 210720, Note_off_c, 2, 49, 31
5, 210720, Note_off_c, 2, 61, 95
5, 210720, Note_on_c, 2, 59, 31
5, 210720, Note_on_c, 2, 71, 95
5, 210720, Note_on_c, 2, 54, 31
5, 210720, Note_on_c, 2, 66, 95
5, 210720, Note_on_c, 2, 49, 31
5, 210720, Note_on_c, 2, 61, 95
5, 210960, Note_off_c, 2, 59, 31
5, 210960, Note_off_c, 2, 71, 95
5, 210960, Note_off_c, 2, 54, 31
5, 210960, Note_off_c, 2, 66, 95
5, 210960, Note_off_c, 2, 49, 31
5, 210960, Note_off_c, 2, 61, 95
5, 210960, Note_on_c, 2, 58, 31
5, 210960, Note_on_c, 2, 70, 95
5, 210960, Note_on_c, 2, 52, 31
5, 210960, Note_on_c, 2, 64, 95
5, 210960, Note_on_c, 2, 49, 31
5, 210960, Note_on_c, 2, 61, 95
5, 212400, Note_off_c, 2, 58, 31
5, 212400, Note_off_c, 2, 70, 95
5, 212400, Note_off_c, 2, 52, 31
5, 212400, Note_off_c, 2, 64, 95
5, 212400, Note_off_c, 2, 49, 31
5, 212400, Note_off_c, 2, 61, 95
5, 212400, Note_on_c, 2, 61, 31
5, 212400, Note_on_c, 2, 73, 95
5, 212640, Note_off_c, 2, 61, 31
5, 212640, Note_off_c, 2, 73, 95
5, 212640, Note_on_c, 2, 59, 31
5, 212640, Note_on_c, 2, 71, 95
5, 212640, Note_on_c, 2, 52, 31
5, 212640, Note_on_c, 2, 64, 95
5, 212640, Note_on_c, 2, 49, 31
5, 212640, Note_on_c, 2, 61, 95
5, 212880, Note_off_c, 2, 59, 31
5, 212880, Note_off_c, 2, 71, 95
5, 212880, Note_off_c, 2, 52, 31
5, 212880, Note_off_c, 2, 64, 95
5, 212880, Note_off_c, 2, 49, 31
5, 212880, Note_off_c, 2, 61, 95
5, 212880, Note_on_c, 2, 58, 31
5, 212880, Note_on_c, 2, 70, 95
5, 212880, Note_on_c, 2, 51, 31
5, 212880, Note_on_c, 2, 63, 95
5, 212880, Note_on_c, 2, 49, 31
5, 212880, Note_on_c, 2, 61, 95
5, 213600, Note_off_c, 2, 58, 31
5, 213600, Note_off_c, 2, 70, 95
5, 213600, Note_off_c, 2, 51, 31
5, 213600, Note_off_c, 2, 63, 95
5, 213600, Note_off_c, 2, 49, 31
5, 213600, Note_off_c, 2, 61, 95
5, 213600, Note_on_c, 2, 58, 31
5, 213600, Note_on_c, 2, 70, 95
5, 213840, Note_off_c, 2, 58, 31
5, 213840, Note_off_c, 2, 70, 95
5, 213840, Note_on_c, 2, 58, 31
5, 213840, Note_on_c, 2, 70, 95
5, 214320, Note_off_c, 2, 58, 31
5, 214320, Note_off_c, 2, 70, 95
5, 214320, Note_on_c, 2, 59, 31
5, 214320, Note_on_c, 2, 71, 95
5, 214560, Note_off_c, 2, 59, 31
5, 214560, Note_off_c, 2, 71, 95
5, 214560, Note_on_c, 2, 61, 31
5, 214560, Note_on_c, 2, 73, 95
5, 214560, Note_on_c, 2, 51, 31
5, 214560, Note_on_c, 2, 63, 95
5, 214560, Note_on_c, 2, 49, 31
5, 214560, Note_on_c, 2, 61, 95
5, 214800, Note_off_c, 2, 61, 31
5, 214800, Note_off_c, 2, 73, 95
5, 214800, Note_off_c, 2, 51, 31
5, 214800, Note_off_c, 2, 63, 95
5, 214800, Note_off_c, 2, 49, 31
5, 214800, Note_off_c, 2, 61, 95
5, 214800, Note_on_c, 2, 62, 31
5, 214800, Note_on_c, 2, 74, 95
5, 214800, Note_on_c, 2, 54, 31
5, 214800, Note_on_c, 2, 66, 95
5, 214800, Note_on_c, 2, 50, 31
5, 214800, Note_on_c, 2, 62, 95
5, 214800, Note_on_c, 2, 47, 31
5, 214800, Note_on_c, 2, 59, 95
5, 215280, Note_off_c, 2, 62, 31
5, 215280, Note_off_c, 2, 74, 95
5, 215280, Note_off_c, 2, 54, 31
5, 215280, Note_off_c, 2, 66, 95
5, 215280, Note_off_c, 2, 50, 31
5, 215280, Note_off_c, 2, 62, 95
5, 215280, Note_off_c, 2, 47, 31
5, 215280, Note_off_c, 2, 59, 95
5, 215280, Note_on_c, 2, 58, 31
5, 215280, Note_on_c, 2, 70, 95
5, 215280, Note_on_c, 2, 54, 31
5, 215280, Note_on_c, 2, 66, 95
5, 215280, Note_on_c, 2, 50, 31
5, 215280, Note_on_c, 2, 62, 95
5, 215280, Note_on_c, 2, 47, 31
5, 215280, Note_on_c, 2, 59, 95
5, 215760, Note_off_c, 2, 58, 31
5, 215760, Note_off_c, 2, 70, 95
5, 215760, Note_off_c, 2, 54, 31
5, 215760, Note_off_c, 2, 66, 95
5, 215760, Note_off_c, 2, 50, 31
5, 215760, Note_off_c, 2, 62, 95
5, 215760, Note_off_c, 2, 47, 31
5, 215760, Note_off_c, 2, 59, 95
5, 215760, Note_on_c, 2, 56, 31
5, 215760, Note_on_c, 2, 68, 95
5, 216240, Note_off_c, 2, 56, 31
5, 216240, Note_off_c, 2, 68, 95
5, 216240, Note_on_c, 2, 47, 31
5, 216240, Note_on_c, 2, 59, 95
5, 216480, Note_off_c, 2, 47, 31
5, 216480, Note_off_c, 2, 59, 95
5, 216480, Note_on_c, 2, 56, 31
5, 216480, Note_on_c, 2, 68, 95
5, 216480, Note_on_c, 2, 54, 31
5, 216480, Note_on_c, 2, 66, 95
5, 216480, Note_on_c, 2, 51, 31
5, 216480, Note_on_c, 2, 63, 95
5, 216960, Note_off_c, 2, 56, 31
5, 216960, Note_off_c, 2, 68, 95
5, 216960, Note_off_c, 2, 54, 31
5, 216960, Note_off_c, 2, 66, 95
5, 216960, Note_off_c, 2, 51, 31
5, 216960, Note_off_c, 2, 63, 95
5, 216960, Note_on_c, 2, 58, 31
5, 216960, Note_on_c, 2, 70, 95
5, 216960, Note_on_c, 2, 54, 31
5, 216960, Note_on_c, 2, 66, 95
5, 216960, Note_on_c, 2, 49, 31
5, 216960, Note_on_c, 2, 61, 95
5, 218160, Note_off_c, 2, 58, 31
5, 218160, Note_off_c, 2, 70, 95
5, 218160, Note_off_c, 2, 54, 31
5, 218160, Note_off_c, 2, 66, 95
5, 218160, Note_off_c, 2, 49, 31
5, 218160, Note_off_c, 2, 61, 95
5, 218160, Note_on_c, 2, 49, 31
5, 218160, Note_on_c, 2, 61, 95
5, 218400, Note_off_c, 2, 49, 31
5, 218400, Note_off_c, 2, 61, 95
5, 218400, Note_on_c, 2, 58, 31
5, 218400, Note_on_c, 2, 70, 95
5, 218400, Note_on_c, 2, 54, 31
5, 218400, Note_on_c, 2, 66, 95
5, 218640, Note_off_c, 2, 58, 31
5, 218640, Note_off_c, 2, 70, 95
5, 218640, Note_off_c, 2, 54, 31
5, 218640, Note_off_c, 2, 66, 95
5, 218640, Note_on_c, 2, 56, 31
5, 218640, Note_on_c, 2, 68, 95
5, 218640, Note_on_c, 2, 53, 31
5, 218640, Note_on_c, 2, 65, 95
5, 218640, Note_on_c, 2, 49, 31
5, 218640, Note_on_c, 2, 61, 95
5, 220080, Note_off_c, 2, 56, 31
5, 220080, Note_off_c, 2, 68, 95
5, 220080, Note_off_c, 2, 53, 31
5, 220080, Note_off_c, 2, 65, 95
5, 220080, Note_off_c, 2, 49, 31
5, 220080, Note_off_c, 2, 61, 95
5, 220080, Note_on_c, 2, 49, 31
5, 220080, Note_on_c, 2, 61, 95
5, 220320, Note_off_c, 2, 49, 31
5, 220320, Note_off_c, 2, 61, 95
5, 220320, Note_on_c, 2, 56, 31
5, 220320, Note_on_c, 2, 68, 95
5, 220320, Note_on_c, 2, 53, 31
5, 220320, Note_on_c, 2, 65, 95
5, 220560, Note_off_c, 2, 56, 31
5, 220560, Note_off_c, 2, 68, 95
5, 220560, Note_off_c, 2, 53, 31
5, 220560, Note_off_c, 2, 65, 95
5, 220560, Note_on_c, 2, 59, 31
5, 220560, Note_on_c, 2, 71, 95
5, 220560, Note_on_c, 2, 54, 31
5, 220560, Note_on_c, 2, 66, 95
5, 220560, Note_on_c, 2, 51, 31
5, 220560, Note_on_c, 2, 63, 95
5, 222000, Note_off_c, 2, 59, 31
5, 222000, Note_off_c, 2, 71, 95
5, 222000, Note_off_c, 2, 54, 31
5, 222000, Note_off_c, 2, 66, 95
5, 222000, Note_off_c, 2, 51, 31
5, 222000, Note_off_c, 2, 63, 95
5, 222000, Note_on_c, 2, 51, 31
5, 222000, Note_on_c, 2, 63, 95
5, 222240, Note_off_c, 2, 51, 31
5, 222240, Note_off_c, 2, 63, 95
5, 222240, Note_on_c, 2, 59, 31
5, 222240, Note_on_c, 2, 71, 95
5, 222240, Note_on_c, 2, 54, 31
5, 222240, Note_on_c, 2, 66, 95
5, 222480, Note_off_c, 2, 59, 31
5, 222480, Note_off_c, 2, 71, 95
5, 222480, Note_off_c, 2, 54, 31
5, 222480, Note_off_c, 2, 66, 95
5, 222480, Note_on_c, 2, 58, 31
5, 222480, Note_on_c, 2, 70, 95
5, 222480, Note_on_c, 2, 54, 31
5, 222480, Note_on_c, 2, 66, 95
5, 222480, Note_on_c, 2, 49, 31
5, 222480, Note_on_c, 2, 61, 95
5, 223920, Note_off_c, 2, 58, 31
5, 223920, Note_off_c, 2, 70, 95
5, 223920, Note_off_c, 2, 54, 31
5, 223920, Note_off_c, 2, 66, 95
5, 223920, Note_off_c, 2, 49, 31
5, 223920, Note_off_c, 2, 61, 95
5, 223920, Note_on_c, 2, 49, 31
5, 223920, Note_on_c, 2, 61, 95
5, 224160, Note_off_c, 2, 49, 31
5, 224160, Note_off_c, 2, 61, 95
5, 224160, Note_on_c, 2, 56, 31
5, 224160, Note_on_c, 2, 68, 95
5, 224400, Note_off_c, 2, 56, 31
5, 224400, Note_off_c, 2, 68, 95
5, 224400, Note_on_c, 2, 58, 31
5, 224400, Note_on_c, 2, 70, 95
5, 224400, Note_on_c, 2, 54, 31
5, 224400, Note_on_c, 2, 66, 95
5, 224400, Note_on_c, 2, 49, 31
5, 224400, Note_on_c, 2, 61, 95
5, 225600, Note_off_c, 2, 58, 31
5, 225600, Note_off_c, 2, 70, 95
5, 225600, Note_off_c, 2, 54, 31
5, 225600, Note_off_c, 2, 66, 95
5, 225600, Note_off_c, 2, 49, 31
5, 225600, Note_off_c, 2, 61, 95
5, 228480, Note_on_c, 2, 58, 31
5, 228480, Note_on_c, 2, 70, 95
5, 228480, Note_on_c, 2, 54, 31
5, 228480, Note_on_c, 2, 66, 95
5, 228480, Note_on_c, 2, 49, 31
5, 228480, Note_on_c, 2, 61, 95
5, 229920, Note_off_c, 2, 58, 31
5, 229920, Note_off_c, 2, 70, 95
5, 229920, Note_off_c, 2, 54, 31
5, 229920, Note_off_c, 2, 66, 95
5, 229920, Note_off_c, 2, 49, 31
5, 229920, Note_off_c, 2, 61, 95
5, 229920, Note_on_c, 2, 58, 31
5, 229920, Note_on_c, 2, 70, 95
5, 229920, Note_on_c, 2, 54, 31
5, 229920, Note_on_c, 2, 66, 95
5, 229920, Note_on_c, 2, 49, 31
5, 229920, Note_on_c, 2, 61, 95
5, 230160, Note_off_c, 2, 58, 31
5, 230160, Note_off_c, 2, 70, 95
5, 230160, Note_off_c, 2, 54, 31
5, 230160, Note_off_c, 2, 66, 95
5, 230160, Note_off_c, 2, 49, 31
5, 230160, Note_off_c, 2, 61, 95
5, 230160, Note_on_c, 2, 58, 31
5, 230160, Note_on_c, 2, 70, 95
5, 230160, Note_on_c, 2, 52, 31
5, 230160, Note_on_c, 2, 64, 95
5, 230160, Note_on_c, 2, 49, 31
5, 230160, Note_on_c, 2, 61, 95
5, 231840, Note_off_c, 2, 58, 31
5, 231840, Note_off_c, 2, 70, 95
5, 231840, Note_off_c, 2, 52, 31
5, 231840, Note_off_c, 2, 64, 95
5, 231840, Note_off_c, 2, 49, 31
5, 231840, Note_off_c, 2, 61, 95
5, 231840, Note_on_c, 2, 58, 31
5, 231840, Note_on_c, 2, 70, 95
5, 231840, Note_on_c, 2, 52, 31
5, 231840, Note_on_c, 2, 64, 95
5, 231840, Note_on_c, 2, 49, 31
5, 231840, Note_on_c, 2, 61, 95
5, 232080, Note_off_c, 2, 58, 31
5, 232080, Note_off_c, 2, 70, 95
5, 232080, Note_off_c, 2, 52, 31
5, 232080, Note_off_c, 2, 64, 95
5, 232080, Note_off_c, 2, 49, 31
5, 232080, Note_off_c, 2, 61, 95
5, 232080, Note_on_c, 2, 58, 31
5, 232080, Note_on_c, 2, 70, 95
5, 232080, Note_on_c, 2, 51, 31
5, 232080, Note_on_c, 2, 63, 95
5, 232080, Note_on_c, 2, 49, 31
5, 232080, Note_on_c, 2, 61, 95
5, 233760, Note_off_c, 2, 58, 31
5, 233760, Note_off_c, 2, 70, 95
5, 233760, Note_off_c, 2, 51, 31
5, 233760, Note_off_c, 2, 63, 95
5, 233760, Note_off_c, 2, 49, 31
5, 233760, Note_off_c, 2, 61, 95
5, 233760, Note_on_c, 2, 58, 31
5, 233760, Note_on_c, 2, 70, 95
5, 233760, Note_on_c, 2, 51, 31
5, 233760, Note_on_c, 2, 63, 95
5, 233760, Note_on_c, 2, 49, 31
5, 233760, Note_on_c, 2, 61, 95
5, 234000, Note_off_c, 2, 58, 31
5, 234000, Note_off_c, 2, 70, 95
5, 234000, Note_off_c, 2, 51, 31
5, 234000, Note_off_c, 2, 63, 95
5, 234000, Note_off_c, 2, 49, 31
5, 234000, Note_off_c, 2, 61, 95
5, 234000, Note_on_c, 2, 58, 31
5, 234000, Note_on_c, 2, 70, 95
5, 234000, Note_on_c, 2, 50, 31
5, 234000, Note_on_c, 2, 62, 95
5, 234000, Note_on_c, 2, 47, 31
5, 234000, Note_on_c, 2, 59, 95
5, 235680, Note_off_c, 2, 58, 31
5, 235680, Note_off_c, 2, 70, 95
5, 235680, Note_off_c, 2, 50, 31
5, 235680, Note_off_c, 2, 62, 95
5, 235680, Note_off_c, 2, 47, 31
5, 235680, Note_off_c, 2, 59, 95
5, 235680, Note_on_c, 2, 47, 31
5, 235680, Note_on_c, 2, 59, 95
5, 235920, Note_off_c, 2, 47, 31
5, 235920, Note_off_c, 2, 59, 95
5, 235920, Note_on_c, 2, 56, 31
5, 235920, Note_on_c, 2, 68, 95
5, 235920, Note_on_c, 2, 54, 31
5, 235920, Note_on_c, 2, 66, 95
5, 235920, Note_on_c, 2, 51, 31
5, 235920, Note_on_c, 2, 63, 95
5, 236160, Note_off_c, 2, 56, 31
5, 236160, Note_off_c, 2, 68, 95
5, 236160, Note_off_c, 2, 54, 31
5, 236160, Note_off_c, 2, 66, 95
5, 236160, Note_off_c, 2, 51, 31
5, 236160, Note_off_c, 2, 63, 95
5, 236160, Note_on_c, 2, 58, 31
5, 236160, Note_on_c, 2, 70, 95
5, 236160, Note_on_c, 2, 54, 31
5, 236160, Note_on_c, 2, 66, 95
5, 236160, Note_on_c, 2, 49, 31
5, 236160, Note_on_c, 2, 61, 95
5, 237360, Note_off_c, 2, 58, 31
5, 237360, Note_off_c, 2, 70, 95
5, 237360, Note_off_c, 2, 54, 31
5, 237360, Note_off_c, 2, 66, 95
5, 237360, Note_off_c, 2, 49, 31
5, 237360, Note_off_c, 2, 61, 95
5, 237360, Note_on_c, 2, 49, 31
5, 237360, Note_on_c, 2, 61, 95
5, 237600, Note_off_c, 2, 49, 31
5, 237600, Note_off_c, 2, 61, 95
5, 237600, Note_on_c, 2, 58, 31
5, 237600, Note_on_c, 2, 70, 95
5, 237600, Note_on_c, 2, 54, 31
5, 237600, Note_on_c, 2, 66, 95
5, 237840, Note_off_c, 2, 58, 31
5, 237840, Note_off_c, 2, 70, 95
5, 237840, Note_off_c, 2, 54, 31
5, 237840, Note_off_c, 2, 66, 95
5, 237840, Note_on_c, 2, 56, 31
5, 237840, Note_on_c, 2, 68, 95
5, 237840, Note_on_c, 2, 53, 31
5, 237840, Note_on_c, 2, 65, 95
5, 237840, Note_on_c, 2, 49, 31
5, 237840, Note_on_c, 2, 61, 95
5, 239280, Note_off_c, 2, 56, 31
5, 239280, Note_off_c, 2, 68, 95
5, 239280, Note_off_c, 2, 53, 31
5, 239280, Note_off_c, 2, 65, 95
5, 239280, Note_off_c, 2, 49, 31
5, 239280, Note_off_c, 2, 61, 95
5, 239280, Note_on_c, 2, 49, 31
5, 239280, Note_on_c, 2, 61, 95
5, 239520, Note_off_c, 2, 49, 31
5, 239520, Note_off_c, 2, 61, 95
5, 239520, Note_on_c, 2, 56, 31
5, 239520, Note_on_c, 2, 68, 95
5, 239520, Note_on_c, 2, 53, 31
5, 239520, Note_on_c, 2, 65, 95
5, 239760, Note_off_c, 2, 56, 31
5, 239760, Note_off_c, 2, 68, 95
5, 239760, Note_off_c, 2, 53, 31
5, 239760, Note_off_c, 2, 65, 95
5, 239760, Note_on_c, 2, 59, 31
5, 239760, Note_on_c, 2, 71, 95
5, 239760, Note_on_c, 2, 54, 31
5, 239760, Note_on_c, 2, 66, 95
5, 239760, Note_on_c, 2, 51, 31
5, 239760, Note_on_c, 2, 63, 95
5, 241200, Note_off_c, 2, 59, 31
5, 241200, Note_off_c, 2, 71, 95
5, 241200, Note_off_c, 2, 54, 31
5, 241200, Note_off_c, 2, 66, 95
5, 241200, Note_off_c, 2, 51, 31
5, 241200, Note_off_c, 2, 63, 95
5, 241200, Note_on_c, 2, 51, 31
5, 241200, Note_on_c, 2, 63, 95
5, 241440, Note_off_c, 2, 51, 31
5, 241440, Note_off_c, 2, 63, 95
5, 241440, Note_on_c, 2, 59, 31
5, 241440, Note_on_c, 2, 71, 95
5, 241440, Note_on_c, 2, 54, 31
5, 241440, Note_on_c, 2, 66, 95
5, 241680, Note_off_c, 2, 59, 31
5, 241680, Note_off_c, 2, 71, 95
5, 241680, Note_off_c, 2, 54, 31
5, 241680, Note_off_c, 2, 66, 95
5, 241680, Note_on_c, 2, 58, 31
5, 241680, Note_on_c, 2, 70, 95
5, 241680, Note_on_c, 2, 54, 31
5, 241680, Note_on_c, 2, 66, 95
5, 241680, Note_on_c, 2, 49, 31
5, 241680, Note_on_c, 2, 61, 95
5, 243360, Note_off_c, 2, 58, 31
5, 243360, Note_off_c, 2, 70, 95
5, 243360, Note_off_c, 2, 54, 31
5, 243360, Note_off_c, 2, 66, 95
5, 243360, Note_off_c, 2, 49, 31
5, 243360, Note_off_c, 2, 61, 95
5, 243360, Note_on_c, 2, 58, 31
5, 243360, Note_on_c, 2, 70, 95
5, 243360, Note_on_c, 2, 54, 31
5, 243360, Note_on_c, 2, 66, 95
5, 243360, Note_on_c, 2, 49, 31
5, 243360, Note_on_c, 2, 61, 95
5, 243600, Note_off_c, 2, 58, 31
5, 243600, Note_off_c, 2, 70, 95
5, 243600, Note_off_c, 2, 54, 31
5, 243600, Note_off_c, 2, 66, 95
5, 243600, Note_off_c, 2, 49, 31
5, 243600, Note_off_c, 2, 61, 95
5, 243600, Note_on_c, 2, 58, 31
5, 243600, Note_on_c, 2, 70, 95
5, 243600, Note_on_c, 2, 54, 31
5, 243600, Note_on_c, 2, 66, 95
5, 243600, Note_on_c, 2, 49, 31
5, 243600, Note_on_c, 2, 61, 95
5, 243840, Note_off_c, 2, 58, 31
5, 243840, Note_off_c, 2, 70, 95
5, 243840, Note_off_c, 2, 54, 31
5, 243840, Note_off_c, 2, 66, 95
5, 243840, Note_off_c, 2, 49, 31
5, 243840, Note_off_c, 2, 61, 95
5, 243840, Note_on_c, 2, 58, 31
5, 243840, Note_on_c, 2, 70, 95
5, 243840, Note_on_c, 2, 54, 31
5, 243840, Note_on_c, 2, 66, 95
5, 243840, Note_on_c, 2, 49, 31
5, 243840, Note_on_c, 2, 61, 95
5, 245280, Note_off_c, 2, 58, 31
5, 245280, Note_off_c, 2, 70, 95
5, 245280, Note_off_c, 2, 54, 31
5, 245280, Note_off_c, 2, 66, 95
5, 245280, Note_off_c, 2, 49, 31
5, 245280, Note_off_c, 2, 61, 95
5, 245280, Note_on_c, 2, 58, 31
5, 245280, Note_on_c, 2, 70, 95
5, 245280, Note_on_c, 2, 54, 31
5, 245280, Note_on_c, 2, 66, 95
5, 245280, Note_on_c, 2, 49, 31
5, 245280, Note_on_c, 2, 61, 95
5, 245520, Note_off_c, 2, 58, 31
5, 245520, Note_off_c, 2, 70, 95
5, 245520, Note_off_c, 2, 54, 31
5, 245520, Note_off_c, 2, 66, 95
5, 245520, Note_off_c, 2, 49, 31
5, 245520, Note_off_c, 2, 61, 95
5, 245520, Note_on_c, 2, 58, 31
5, 245520, Note_on_c, 2, 70, 95
5, 245520, Note_on_c, 2, 52, 31
5, 245520, Note_on_c, 2, 64, 95
5, 245520, Note_on_c, 2, 49, 31
5, 245520, Note_on_c, 2, 61, 95
5, 247200, Note_off_c, 2, 58, 31
5, 247200, Note_off_c, 2, 70, 95
5, 247200, Note_off_c, 2, 52, 31
5, 247200, Note_off_c, 2, 64, 95
5, 247200, Note_off_c, 2, 49, 31
5, 247200, Note_off_c, 2, 61, 95
5, 247200, Note_on_c, 2, 58, 31
5, 247200, Note_on_c, 2, 70, 95
5, 247200, Note_on_c, 2, 52, 31
5, 247200, Note_on_c, 2, 64, 95
5, 247200, Note_on_c, 2, 49, 31
5, 247200, Note_on_c, 2, 61, 95
5, 247440, Note_off_c, 2, 58, 31
5, 247440, Note_off_c, 2, 70, 95
5, 247440, Note_off_c, 2, 52, 31
5, 247440, Note_off_c, 2, 64, 95
5, 247440, Note_off_c, 2, 49, 31
5, 247440, Note_off_c, 2, 61, 95
5, 247440, Note_on_c, 2, 58, 31
5, 247440, Note_on_c, 2, 70, 95
5, 247440, Note_on_c, 2, 51, 31
5, 247440, Note_on_c, 2, 63, 95
5, 247440, Note_on_c, 2, 49, 31
5, 247440, Note_on_c, 2, 61, 95
5, 249120, Note_off_c, 2, 58, 31
5, 249120, Note_off_c, 2, 70, 95
5, 249120, Note_off_c, 2, 51, 31
5, 249120, Note_off_c, 2, 63, 95
5, 249120, Note_off_c, 2, 49, 31
5, 249120, Note_off_c, 2, 61, 95
5, 249120, Note_on_c, 2, 58, 31
5, 249120, Note_on_c, 2, 70, 95
5, 249120, Note_on_c, 2, 51, 31
5, 249120, Note_on_c, 2, 63, 95
5, 249120, Note_on_c, 2, 49, 31
5, 249120, Note_on_c, 2, 61, 95
5, 249360, Note_off_c, 2, 58, 31
5, 249360, Note_off_c, 2, 70, 95
5, 249360, Note_off_c, 2, 51, 31
5, 249360, Note_off_c, 2, 63, 95
5, 249360, Note_off_c, 2, 49, 31
5, 249360, Note_off_c, 2, 61, 95
5, 249360, Note_on_c, 2, 58, 31
5, 249360, Note_on_c, 2, 70, 95
5, 249360, Note_on_c, 2, 50, 31
5, 249360, Note_on_c, 2, 62, 95
5, 249360, Note_on_c, 2, 47, 31
5, 249360, Note_on_c, 2, 59, 95
5, 251040, Note_off_c, 2, 58, 31
5, 251040, Note_off_c, 2, 70, 95
5, 251040, Note_off_c, 2, 50, 31
5, 251040, Note_off_c, 2, 62, 95
5, 251040, Note_off_c, 2, 47, 31
5, 251040, Note_off_c, 2, 59, 95
5, 251040, Note_on_c, 2, 47, 31
5, 251040, Note_on_c, 2, 59, 95
5, 251280, Note_off_c, 2, 47, 31
5, 251280, Note_off_c, 2, 59, 95
5, 251280, Note_on_c, 2, 56, 31
5, 251280, Note_on_c, 2, 68, 95
5, 251280, Note_on_c, 2, 54, 31
5, 251280, Note_on_c, 2, 66, 95
5, 251280, Note_on_c, 2, 51, 31
5, 251280, Note_on_c, 2, 63, 95
5, 251520, Note_off_c, 2, 56, 31
5, 251520, Note_off_c, 2, 68, 95
5, 251520, Note_off_c, 2, 54, 31
5, 251520, Note_off_c, 2, 66, 95
5, 251520, Note_off_c, 2, 51, 31
5, 251520, Note_off_c, 2, 63, 95
5, 251520, Note_on_c, 2, 58, 31
5, 251520, Note_on_c, 2, 70, 95
5, 251520, Note_on_c, 2, 54, 31
5, 251520, Note_on_c, 2, 66, 95
5, 251520, Note_on_c, 2, 49, 31
5, 251520, Note_on_c, 2, 61, 95
5, 252720, Note_off_c, 2, 58, 31
5, 252720, Note_off_c, 2, 70, 95
5, 252720, Note_off_c, 2, 54, 31
5, 252720, Note_off_c, 2, 66, 95
5, 252720, Note_off_c, 2, 49, 31
5, 252720, Note_off_c, 2, 61, 95
5, 252720, Note_on_c, 2, 49, 31
5, 252720, Note_on_c, 2, 61, 95
5, 252960, Note_off_c, 2, 49, 31
5, 252960, Note_off_c, 2, 61, 95
5, 252960, Note_on_c, 2, 58, 31
5, 252960, Note_on_c, 2, 70, 95
5, 252960, Note_on_c, 2, 54, 31
5, 252960, Note_on_c, 2, 66, 95
5, 253200, Note_off_c, 2, 58, 31
5, 253200, Note_off_c, 2, 70, 95
5, 253200, Note_off_c, 2, 54, 31
5, 253200, Note_off_c, 2, 66, 95
5, 253200, Note_on_c, 2, 56, 31
5, 253200, Note_on_c, 2, 68, 95
5, 253200, Note_on_c, 2, 53, 31
5, 253200, Note_on_c, 2, 65, 95
5, 253200, Note_on_c, 2, 49, 31
5, 253200, Note_on_c, 2, 61, 95
5, 254640, Note_off_c, 2, 56, 31
5, 254640, Note_off_c, 2, 68, 95
5, 254640, Note_off_c, 2, 53, 31
5, 254640, Note_off_c, 2, 65, 95
5, 254640, Note_off_c, 2, 49, 31
5, 254640, Note_off_c, 2, 61, 95
5, 254640, Note_on_c, 2, 49, 31
5, 254640, Note_on_c, 2, 61, 95
5, 254880, Note_off_c, 2, 49, 31
5, 254880, Note_off_c, 2, 61, 95
5, 254880, Note_on_c, 2, 56, 31
5, 254880, Note_on_c, 2, 68, 95
5, 254880, Note_on_c, 2, 53, 31
5, 254880, Note_on_c, 2, 65, 95
5, 255120, Note_off_c, 2, 56, 31
5, 255120, Note_off_c, 2, 68, 95
5, 255120, Note_off_c, 2, 53, 31
5, 255120, Note_off_c, 2, 65, 95
5, 255120, Note_on_c, 2, 59, 31
5, 255120, Note_on_c, 2, 71, 95
5, 255120, Note_on_c, 2, 54, 31
5, 255120, Note_on_c, 2, 66, 95
5, 255120, Note_on_c, 2, 51, 31
5, 255120, Note_on_c, 2, 63, 95
5, 256560, Note_off_c, 2, 59, 31
5, 256560, Note_off_c, 2, 71, 95
5, 256560, Note_off_c, 2, 54, 31
5, 256560, Note_off_c, 2, 66, 95
5, 256560, Note_off_c, 2, 51, 31
5, 256560, Note_off_c, 2, 63, 95
5, 256560, Note_on_c, 2, 51, 31
5, 256560, Note_on_c, 2, 63, 95
5, 256800, Note_off_c, 2, 51, 31
5, 256800, Note_off_c, 2, 63, 95
5, 256800, Note_on_c, 2, 59, 31
5, 256800, Note_on_c, 2, 71, 95
5, 256800, Note_on_c, 2, 54, 31
5, 256800, Note_on_c, 2, 66, 95
5, 257040, Note_off_c, 2, 59, 31
5, 257040, Note_off_c, 2, 71, 95
5, 257040, Note_off_c, 2, 54, 31
5, 257040, Note_off_c, 2, 66, 95
5, 257040, Note_on_c, 2, 58, 31
5, 257040, Note_on_c, 2, 70, 95
5, 257040, Note_on_c, 2, 54, 31
5, 257040, Note_on_c, 2, 66, 95
5, 257040, Note_on_c, 2, 49, 31
5, 257040, Note_on_c, 2, 61, 95
5, 258720, Note_off_c, 2, 58, 31
5, 258720, Note_off_c, 2, 70, 95
5, 258720, Note_off_c, 2, 54, 31
5, 258720, Note_off_c, 2, 66, 95
5, 258720, Note_off_c, 2, 49, 31
5, 258720, Note_off_c, 2, 61, 95
5, 258720, Note_on_c, 2, 58, 31
5, 258720, Note_on_c, 2, 70, 95
5, 258720, Note_on_c, 2, 54, 31
5, 258720, Note_on_c, 2, 66, 95
5, 258720, Note_on_c, 2, 49, 31
5, 258720, Note_on_c, 2, 61, 95
5, 258960, Note_off_c, 2, 58, 31
5, 258960, Note_off_c, 2, 70, 95
5, 258960, Note_off_c, 2, 54, 31
5, 258960, Note_off_c, 2, 66, 95
5, 258960, Note_off_c, 2, 49, 31
5, 258960, Note_off_c, 2, 61, 95
5, 258960, Note_on_c, 2, 58, 31
5, 258960, Note_on_c, 2, 70, 95
5, 258960, Note_on_c, 2, 54, 31
5, 258960, Note_on_c, 2, 66, 95
5, 258960, Note_on_c, 2, 49, 31
5, 258960, Note_on_c, 2, 61, 95
5, 259200, Note_off_c, 2, 58, 31
5, 259200, Note_off_c, 2, 70, 95
5, 259200, Note_off_c, 2, 54, 31
5, 259200, Note_off_c, 2, 66, 95
5, 259200, Note_off_c, 2, 49, 31
5, 259200, Note_off_c, 2, 61, 95
5, 259200, Note_on_c, 2, 58, 31
5, 259200, Note_on_c, 2, 70, 95
5, 259200, Note_on_c, 2, 54, 31
5, 259200, Note_on_c, 2, 66, 95
5, 259200, Note_on_c, 2, 49, 31
5, 259200, Note_on_c, 2, 61, 95
5, 260640, Note_off_c, 2, 58, 31
5, 260640, Note_off_c, 2, 70, 95
5, 260640, Note_off_c, 2, 54, 31
5, 260640, Note_off_c, 2, 66, 95
5, 260640, Note_off_c, 2, 49, 31
5, 260640, Note_off_c, 2, 61, 95
5, 260640, Note_on_c, 2, 58, 31
5, 260640, Note_on_c, 2, 70, 95
5, 260640, Note_on_c, 2, 54, 31
5, 260640, Note_on_c, 2, 66, 95
5, 260640, Note_on_c, 2, 49, 31
5, 260640, Note_on_c, 2, 61, 95
5, 260880, Note_off_c, 2, 58, 31
5, 260880, Note_off_c, 2, 70, 95
5, 260880, Note_off_c, 2, 54, 31
5, 260880, Note_off_c, 2, 66, 95
5, 260880, Note_off_c, 2, 49, 31
5, 260880, Note_off_c, 2, 61, 95
5, 260880, Note_on_c, 2, 58, 31
5, 260880, Note_on_c, 2, 70, 95
5, 260880, Note_on_c, 2, 52, 31
5, 260880, Note_on_c, 2, 64, 95
5, 260880, Note_on_c, 2, 49, 31
5, 260880, Note_on_c, 2, 61, 95
5, 262560, Note_off_c, 2, 58, 31
5, 262560, Note_off_c, 2, 70, 95
5, 262560, Note_off_c, 2, 52, 31
5, 262560, Note_off_c, 2, 64, 95
5, 262560, Note_off_c, 2, 49, 31
5, 262560, Note_off_c, 2, 61, 95
5, 262560, Note_on_c, 2, 58, 31
5, 262560, Note_on_c, 2, 70, 95
5, 262560, Note_on_c, 2, 52, 31
5, 262560, Note_on_c, 2, 64, 95
5, 262560, Note_on_c, 2, 49, 31
5, 262560, Note_on_c, 2, 61, 95
5, 262800, Note_off_c, 2, 58, 31
5, 262800, Note_off_c, 2, 70, 95
5, 262800, Note_off_c, 2, 52, 31
5, 262800, Note_off_c, 2, 64, 95
5, 262800, Note_off_c, 2, 49, 31
5, 262800, Note_off_c, 2, 61, 95
5, 262800, Note_on_c, 2, 58, 31
5, 262800, Note_on_c, 2, 70, 95
5, 262800, Note_on_c, 2, 51, 31
5, 262800, Note_on_c, 2, 63, 95
5, 262800, Note_on_c, 2, 49, 31
5, 262800, Note_on_c, 2, 61, 95
5, 264480, Note_off_c, 2, 58, 31
5, 264480, Note_off_c, 2, 70, 95
5, 264480, Note_off_c, 2, 51, 31
5, 264480, Note_off_c, 2, 63, 95
5, 264480, Note_off_c, 2, 49, 31
5, 264480, Note_off_c, 2, 61, 95
5, 264480, Note_on_c, 2, 58, 31
5, 264480, Note_on_c, 2, 70, 95
5, 264480, Note_on_c, 2, 51, 31
5, 264480, Note_on_c, 2, 63, 95
5, 264480, Note_on_c, 2, 49, 31
5, 264480, Note_on_c, 2, 61, 95
5, 264720, Note_off_c, 2, 58, 31
5, 264720, Note_off_c, 2, 70, 95
5, 264720, Note_off_c, 2, 51, 31
5, 264720, Note_off_c, 2, 63, 95
5, 264720, Note_off_c, 2, 49, 31
5, 264720, Note_off_c, 2, 61, 95
5, 264720, Note_on_c, 2, 58, 31
5, 264720, Note_on_c, 2, 70, 95
5, 264720, Note_on_c, 2, 50, 31
5, 264720, Note_on_c, 2, 62, 95
5, 264720, Note_on_c, 2, 47, 31
5, 264720, Note_on_c, 2, 59, 95
5, 266400, Note_off_c, 2, 58, 31
5, 266400, Note_off_c, 2, 70, 95
5, 266400, Note_off_c, 2, 50, 31
5, 266400, Note_off_c, 2, 62, 95
5, 266400, Note_off_c, 2, 47, 31
5, 266400, Note_off_c, 2, 59, 95
5, 266400, Note_on_c, 2, 47, 31
5, 266400, Note_on_c, 2, 59, 95
5, 266640, Note_off_c, 2, 47, 31
5, 266640, Note_off_c, 2, 59, 95
5, 266640, Note_on_c, 2, 56, 31
5, 266640, Note_on_c, 2, 68, 95
5, 266640, Note_on_c, 2, 54, 31
5, 266640, Note_on_c, 2, 66, 95
5, 266640, Note_on_c, 2, 51, 31
5, 266640, Note_on_c, 2, 63, 95
5, 266880, Note_off_c, 2, 56, 31
5, 266880, Note_off_c, 2, 68, 95
5, 266880, Note_off_c, 2, 54, 31
5, 266880, Note_off_c, 2, 66, 95
5, 266880, Note_off_c, 2, 51, 31
5, 266880, Note_off_c, 2, 63, 95
5, 266880, Note_on_c, 2, 58, 31
5, 266880, Note_on_c, 2, 70, 95
5, 266880, Note_on_c, 2, 54, 31
5, 266880, Note_on_c, 2, 66, 95
5, 266880, Note_on_c, 2, 49, 31
5, 266880, Note_on_c, 2, 61, 95
5, 268080, Note_off_c, 2, 58, 31
5, 268080, Note_off_c, 2, 70, 95
5, 268080, Note_off_c, 2, 54, 31
5, 268080, Note_off_c, 2, 66, 95
5, 268080, Note_off_c, 2, 49, 31
5, 268080, Note_off_c, 2, 61, 95
5, 268080, Note_on_c, 2, 49, 31
5, 268080, Note_on_c, 2, 61, 95
5, 268320, Note_off_c, 2, 49, 31
5, 268320, Note_off_c, 2, 61, 95
5, 268320, Note_on_c, 2, 58, 31
5, 268320, Note_on_c, 2, 70, 95
5, 268320, Note_on_c, 2, 54, 31
5, 268320, Note_on_c, 2, 66, 95
5, 268560, Note_off_c, 2, 58, 31
5, 268560, Note_off_c, 2, 70, 95
5, 268560, Note_off_c, 2, 54, 31
5, 268560, Note_off_c, 2, 66, 95
5, 268560, Note_on_c, 2, 56, 31
5, 268560, Note_on_c, 2, 68, 95
5, 268560, Note_on_c, 2, 53, 31
5, 268560, Note_on_c, 2, 65, 95
5, 268560, Note_on_c, 2, 49, 31
5, 268560, Note_on_c, 2, 61, 95
5, 270000, Note_off_c, 2, 56, 31
5, 270000, Note_off_c, 2, 68, 95
5, 270000, Note_off_c, 2, 53, 31
5, 270000, Note_off_c, 2, 65, 95
5, 270000, Note_off_c, 2, 49, 31
5, 270000, Note_off_c, 2, 61, 95
5, 270000, Note_on_c, 2, 49, 31
5, 270000, Note_on_c, 2, 61, 95
5, 270240, Note_off_c, 2, 49, 31
5, 270240, Note_off_c, 2, 61, 95
5, 270240, Note_on_c, 2, 56, 31
5, 270240, Note_on_c, 2, 68, 95
5, 270240, Note_on_c, 2, 53, 31
5, 270240, Note_on_c, 2, 65, 95
5, 270480, Note_off_c, 2, 56, 31
5, 270480, Note_off_c, 2, 68, 95
5, 270480, Note_off_c, 2, 53, 31
5, 270480, Note_off_c, 2, 65, 95
5, 270480, Note_on_c, 2, 59, 31
5, 270480, Note_on_c, 2, 71, 95
5, 270480, Note_on_c, 2, 54, 31
5, 270480, Note_on_c, 2, 66, 95
5, 270480, Note_on_c, 2, 51, 31
5, 270480, Note_on_c, 2, 63, 95
5, 271920, Note_off_c, 2, 59, 31
5, 271920, Note_off_c, 2, 71, 95
5, 271920, Note_off_c, 2, 54, 31
5, 271920, Note_off_c, 2, 66, 95
5, 271920, Note_off_c, 2, 51, 31
5, 271920, Note_off_c, 2, 63, 95
5, 271920, Note_on_c, 2, 51, 31
5, 271920, Note_on_c, 2, 63, 95
5, 272160, Note_off_c, 2, 51, 31
5, 272160, Note_off_c, 2, 63, 95
5, 272160, Note_on_c, 2, 59, 31
5, 272160, Note_on_c, 2, 71, 95
5, 272160, Note_on_c, 2, 54, 31
5, 272160, Note_on_c, 2, 66, 95
5, 272400, Note_off_c, 2, 59, 31
5, 272400, Note_off_c, 2, 71, 95
5, 272400, Note_off_c, 2, 54, 31
5, 272400, Note_off_c, 2, 66, 95
5, 272400, Note_on_c, 2, 58, 31
5, 272400, Note_on_c, 2, 70, 95
5, 272400, Note_on_c, 2, 54, 31
5, 272400, Note_on_c, 2, 66, 95
5, 272400, Note_on_c, 2, 49, 31
5, 272400, Note_on_c, 2, 61, 95
5, 274080, Note_off_c, 2, 58, 31
5, 274080, Note_off_c, 2, 70, 95
5, 274080, Note_off_c, 2, 54, 31
5, 274080, Note_off_c, 2, 66, 95
5, 274080, Note_off_c, 2, 49, 31
5, 274080, Note_off_c, 2, 61, 95
5, 274080, Note_on_c, 2, 58, 31
5, 274080, Note_on_c, 2, 70, 95
5, 274080, Note_on_c, 2, 54, 31
5, 274080, Note_on_c, 2, 66, 95
5, 274080, Note_on_c, 2, 49, 31
5, 274080, Note_on_c, 2, 61, 95
5, 274320, Note_off_c, 2, 58, 31
5, 274320, Note_off_c, 2, 70, 95
5, 274320, Note_off_c, 2, 54, 31
5, 274320, Note_off_c, 2, 66, 95
5, 274320, Note_off_c, 2, 49, 31
5, 274320, Note_off_c, 2, 61, 95
5, 274320, Note_on_c, 2, 58, 31
5, 274320, Note_on_c, 2, 70, 95
5, 274320, Note_on_c, 2, 54, 31
5, 274320, Note_on_c, 2, 66, 95
5, 274320, Note_on_c, 2, 49, 31
5, 274320, Note_on_c, 2, 61, 95
5, 274560, Note_off_c, 2, 58, 31
5, 274560, Note_off_c, 2, 70, 95
5, 274560, Note_off_c, 2, 54, 31
5, 274560, Note_off_c, 2, 66, 95
5, 274560, Note_off_c, 2, 49, 31
5, 274560, Note_off_c, 2, 61, 95
5, 274560, End_track
6, 0, Start_track
6, 0, Pitch_bend_c, 2, 8192
6, 0, Control_c, 2, 7, 87
6, 0, Control_c, 2, 10, 63
6, 0, Control_c, 2, 93, 0
6, 0, Control_c, 2, 91, 0
6, 0, Control_c, 2, 95, 0
6, 0, Control_c, 2, 92, 0
6, 0, Control_c, 2, 11, 127
6, 0, Program_c, 2, 0
6, 0, Control_c, 3, 7, 87
6, 0, Control_c, 3, 10, 63
6, 0, Control_c, 3, 93, 0
6, 0, Control_c, 3, 91, 0
6, 0, Control_c, 3, 95, 0
6, 0, Control_c, 3, 92, 0
6, 0, Control_c, 3, 11, 127
6, 0, Program_c, 3, 0
6, 0, Note_on_c, 2, 30, 31
6, 0, Note_on_c, 2, 42, 95
6, 960, Note_off_c, 2, 30, 31
6, 960, Note_off_c, 2, 42, 95
6, 960, Note_on_c, 2, 30, 31
6, 960, Note_on_c, 2, 42, 95
6, 1920, Note_off_c, 2, 30, 31
6, 1920, Note_off_c, 2, 42, 95
6, 1920, Note_on_c, 2, 30, 31
6, 1920, Note_on_c, 2, 42, 95
6, 2880, Note_off_c, 2, 30, 31
6, 2880, Note_off_c, 2, 42, 95
6, 2880, Note_on_c, 2, 30, 31
6, 2880, Note_on_c, 2, 42, 95
6, 3840, Note_off_c, 2, 30, 31
6, 3840, Note_off_c, 2, 42, 95
6, 3840, Note_on_c, 2, 30, 31
6, 3840, Note_on_c, 2, 42, 95
6, 4800, Note_off_c, 2, 30, 31
6, 4800, Note_off_c, 2, 42, 95
6, 4800, Note_on_c, 2, 30, 31
6, 4800, Note_on_c, 2, 42, 95
6, 5760, Note_off_c, 2, 30, 31
6, 5760, Note_off_c, 2, 42, 95
6, 5760, Note_on_c, 2, 30, 31
6, 5760, Note_on_c, 2, 42, 95
6, 6720, Note_off_c, 2, 30, 31
6, 6720, Note_off_c, 2, 42, 95
6, 6720, Note_on_c, 2, 30, 31
6, 6720, Note_on_c, 2, 42, 95
6, 7680, Note_off_c, 2, 30, 31
6, 7680, Note_off_c, 2, 42, 95
6, 7680, Note_on_c, 2, 30, 31
6, 7680, Note_on_c, 2, 42, 95
6, 8640, Note_off_c, 2, 30, 31
6, 8640, Note_off_c, 2, 42, 95
6, 8640, Note_on_c, 2, 30, 31
6, 8640, Note_on_c, 2, 42, 95
6, 9600, Note_off_c, 2, 30, 31
6, 9600, Note_off_c, 2, 42, 95
6, 9600, Note_on_c, 2, 25, 31
6, 9600, Note_on_c, 2, 37, 95
6, 10560, Note_off_c, 2, 25, 31
6, 10560, Note_off_c, 2, 37, 95
6, 10560, Note_on_c, 2, 25, 31
6, 10560, Note_on_c, 2, 37, 95
6, 11520, Note_off_c, 2, 25, 31
6, 11520, Note_off_c, 2, 37, 95
6, 11520, Note_on_c, 2, 30, 31
6, 11520, Note_on_c, 2, 42, 95
6, 12480, Note_off_c, 2, 30, 31
6, 12480, Note_off_c, 2, 42, 95
6, 12480, Note_on_c, 2, 30, 31
6, 12480, Note_on_c, 2, 42, 95
6, 13440, Note_off_c, 2, 30, 31
6, 13440, Note_off_c, 2, 42, 95
6, 13440, Note_on_c, 2, 30, 31
6, 13440, Note_on_c, 2, 42, 95
6, 14400, Note_off_c, 2, 30, 31
6, 14400, Note_off_c, 2, 42, 95
6, 14400, Note_on_c, 2, 30, 31
6, 14400, Note_on_c, 2, 42, 95
6, 15360, Note_off_c, 2, 30, 31
6, 15360, Note_off_c, 2, 42, 95
6, 15360, Note_on_c, 2, 30, 31
6, 15360, Note_on_c, 2, 42, 95
6, 16320, Note_off_c, 2, 30, 31
6, 16320, Note_off_c, 2, 42, 95
6, 16320, Note_on_c, 2, 30, 31
6, 16320, Note_on_c, 2, 42, 95
6, 17280, Note_off_c, 2, 30, 31
6, 17280, Note_off_c, 2, 42, 95
6, 17280, Note_on_c, 2, 30, 31
6, 17280, Note_on_c, 2, 42, 95
6, 18000, Note_off_c, 2, 30, 31
6, 18000, Note_off_c, 2, 42, 95
6, 18000, Note_on_c, 2, 30, 31
6, 18000, Note_on_c, 2, 42, 95
6, 18240, Note_off_c, 2, 30, 31
6, 18240, Note_off_c, 2, 42, 95
6, 18240, Note_on_c, 2, 30, 31
6, 18240, Note_on_c, 2, 42, 95
6, 19200, Note_off_c, 2, 30, 31
6, 19200, Note_off_c, 2, 42, 95
6, 19200, Note_on_c, 2, 30, 31
6, 19200, Note_on_c, 2, 42, 95
6, 19920, Note_off_c, 2, 30, 31
6, 19920, Note_off_c, 2, 42, 95
6, 19920, Note_on_c, 2, 30, 31
6, 19920, Note_on_c, 2, 42, 95
6, 20160, Note_off_c, 2, 30, 31
6, 20160, Note_off_c, 2, 42, 95
6, 20160, Note_on_c, 2, 30, 31
6, 20160, Note_on_c, 2, 42, 95
6, 21120, Note_off_c, 2, 30, 31
6, 21120, Note_off_c, 2, 42, 95
6, 21120, Note_on_c, 2, 30, 31
6, 21120, Note_on_c, 2, 42, 95
6, 21840, Note_off_c, 2, 30, 31
6, 21840, Note_off_c, 2, 42, 95
6, 21840, Note_on_c, 2, 30, 31
6, 21840, Note_on_c, 2, 42, 95
6, 22080, Note_off_c, 2, 30, 31
6, 22080, Note_off_c, 2, 42, 95
6, 22080, Note_on_c, 2, 30, 31
6, 22080, Note_on_c, 2, 42, 95
6, 23040, Note_off_c, 2, 30, 31
6, 23040, Note_off_c, 2, 42, 95
6, 23040, Note_on_c, 2, 30, 31
6, 23040, Note_on_c, 2, 42, 95
6, 23760, Note_off_c, 2, 30, 31
6, 23760, Note_off_c, 2, 42, 95
6, 23760, Note_on_c, 2, 30, 31
6, 23760, Note_on_c, 2, 42, 95
6, 24000, Note_off_c, 2, 30, 31
6, 24000, Note_off_c, 2, 42, 95
6, 24000, Note_on_c, 2, 30, 31
6, 24000, Note_on_c, 2, 42, 95
6, 24960, Note_off_c, 2, 30, 31
6, 24960, Note_off_c, 2, 42, 95
6, 24960, Note_on_c, 2, 30, 31
6, 24960, Note_on_c, 2, 42, 95
6, 25680, Note_off_c, 2, 30, 31
6, 25680, Note_off_c, 2, 42, 95
6, 25680, Note_on_c, 2, 30, 31
6, 25680, Note_on_c, 2, 42, 95
6, 25920, Note_off_c, 2, 30, 31
6, 25920, Note_off_c, 2, 42, 95
6, 25920, Note_on_c, 2, 30, 31
6, 25920, Note_on_c, 2, 42, 95
6, 26880, Note_off_c, 2, 30, 31
6, 26880, Note_off_c, 2, 42, 95
6, 26880, Note_on_c, 2, 25, 31
6, 26880, Note_on_c, 2, 37, 95
6, 27600, Note_off_c, 2, 25, 31
6, 27600, Note_off_c, 2, 37, 95
6, 27600, Note_on_c, 2, 25, 31
6, 27600, Note_on_c, 2, 37, 95
6, 27840, Note_off_c, 2, 25, 31
6, 27840, Note_off_c, 2, 37, 95
6, 27840, Note_on_c, 2, 25, 31
6, 27840, Note_on_c, 2, 37, 95
6, 28800, Note_off_c, 2, 25, 31
6, 28800, Note_off_c, 2, 37, 95
6, 28800, Note_on_c, 2, 23, 31
6, 28800, Note_on_c, 2, 35, 95
6, 29520, Note_off_c, 2, 23, 31
6, 29520, Note_off_c, 2, 35, 95
6, 29520, Note_on_c, 2, 23, 31
6, 29520, Note_on_c, 2, 35, 95
6, 29760, Note_off_c, 2, 23, 31
6, 29760, Note_off_c, 2, 35, 95
6, 29760, Note_on_c, 2, 23, 31
6, 29760, Note_on_c, 2, 35, 95
6, 30720, Note_off_c, 2, 23, 31
6, 30720, Note_off_c, 2, 35, 95
6, 30720, Note_on_c, 2, 30, 31
6, 30720, Note_on_c, 2, 42, 95
6, 31440, Note_off_c, 2, 30, 31
6, 31440, Note_off_c, 2, 42, 95
6, 31440, Note_on_c, 2, 30, 31
6, 31440, Note_on_c, 2, 42, 95
6, 31680, Note_off_c, 2, 30, 31
6, 31680, Note_off_c, 2, 42, 95
6, 31680, Note_on_c, 2, 30, 31
6, 31680, Note_on_c, 2, 42, 95
6, 32640, Note_off_c, 2, 30, 31
6, 32640, Note_off_c, 2, 42, 95
6, 32640, Note_on_c, 2, 30, 31
6, 32640, Note_on_c, 2, 42, 95
6, 33360, Note_off_c, 2, 30, 31
6, 33360, Note_off_c, 2, 42, 95
6, 33360, Note_on_c, 2, 30, 31
6, 33360, Note_on_c, 2, 42, 95
6, 33600, Note_off_c, 2, 30, 31
6, 33600, Note_off_c, 2, 42, 95
6, 33600, Note_on_c, 2, 30, 31
6, 33600, Note_on_c, 2, 42, 95
6, 34560, Note_off_c, 2, 30, 31
6, 34560, Note_off_c, 2, 42, 95
6, 34560, Note_on_c, 2, 30, 31
6, 34560, Note_on_c, 2, 42, 95
6, 35280, Note_off_c, 2, 30, 31
6, 35280, Note_off_c, 2, 42, 95
6, 35280, Note_on_c, 2, 30, 31
6, 35280, Note_on_c, 2, 42, 95
6, 35520, Note_off_c, 2, 30, 31
6, 35520, Note_off_c, 2, 42, 95
6, 35520, Note_on_c, 2, 30, 31
6, 35520, Note_on_c, 2, 42, 95
6, 36480, Note_off_c, 2, 30, 31
6, 36480, Note_off_c, 2, 42, 95
6, 36480, Note_on_c, 2, 30, 31
6, 36480, Note_on_c, 2, 42, 95
6, 37200, Note_off_c, 2, 30, 31
6, 37200, Note_off_c, 2, 42, 95
6, 37200, Note_on_c, 2, 30, 31
6, 37200, Note_on_c, 2, 42, 95
6, 37440, Note_off_c, 2, 30, 31
6, 37440, Note_off_c, 2, 42, 95
6, 37440, Note_on_c, 2, 30, 31
6, 37440, Note_on_c, 2, 42, 95
6, 38400, Note_off_c, 2, 30, 31
6, 38400, Note_off_c, 2, 42, 95
6, 38400, Note_on_c, 2, 30, 31
6, 38400, Note_on_c, 2, 42, 95
6, 39120, Note_off_c, 2, 30, 31
6, 39120, Note_off_c, 2, 42, 95
6, 39120, Note_on_c, 2, 30, 31
6, 39120, Note_on_c, 2, 42, 95
6, 39360, Note_off_c, 2, 30, 31
6, 39360, Note_off_c, 2, 42, 95
6, 39360, Note_on_c, 2, 30, 31
6, 39360, Note_on_c, 2, 42, 95
6, 40320, Note_off_c, 2, 30, 31
6, 40320, Note_off_c, 2, 42, 95
6, 40320, Note_on_c, 2, 30, 31
6, 40320, Note_on_c, 2, 42, 95
6, 41040, Note_off_c, 2, 30, 31
6, 41040, Note_off_c, 2, 42, 95
6, 41040, Note_on_c, 2, 30, 31
6, 41040, Note_on_c, 2, 42, 95
6, 41280, Note_off_c, 2, 30, 31
6, 41280, Note_off_c, 2, 42, 95
6, 41280, Note_on_c, 2, 30, 31
6, 41280, Note_on_c, 2, 42, 95
6, 42240, Note_off_c, 2, 30, 31
6, 42240, Note_off_c, 2, 42, 95
6, 42240, Note_on_c, 2, 30, 31
6, 42240, Note_on_c, 2, 42, 95
6, 42960, Note_off_c, 2, 30, 31
6, 42960, Note_off_c, 2, 42, 95
6, 42960, Note_on_c, 2, 30, 31
6, 42960, Note_on_c, 2, 42, 95
6, 43200, Note_off_c, 2, 30, 31
6, 43200, Note_off_c, 2, 42, 95
6, 43200, Note_on_c, 2, 30, 31
6, 43200, Note_on_c, 2, 42, 95
6, 44160, Note_off_c, 2, 30, 31
6, 44160, Note_off_c, 2, 42, 95
6, 44160, Note_on_c, 2, 25, 31
6, 44160, Note_on_c, 2, 37, 95
6, 44880, Note_off_c, 2, 25, 31
6, 44880, Note_off_c, 2, 37, 95
6, 44880, Note_on_c, 2, 25, 31
6, 44880, Note_on_c, 2, 37, 95
6, 45120, Note_off_c, 2, 25, 31
6, 45120, Note_off_c, 2, 37, 95
6, 45120, Note_on_c, 2, 25, 31
6, 45120, Note_on_c, 2, 37, 95
6, 46080, Note_off_c, 2, 25, 31
6, 46080, Note_off_c, 2, 37, 95
6, 46080, Note_on_c, 2, 23, 31
6, 46080, Note_on_c, 2, 35, 95
6, 46800, Note_off_c, 2, 23, 31
6, 46800, Note_off_c, 2, 35, 95
6, 46800, Note_on_c, 2, 23, 31
6, 46800, Note_on_c, 2, 35, 95
6, 47040, Note_off_c, 2, 23, 31
6, 47040, Note_off_c, 2, 35, 95
6, 47040, Note_on_c, 2, 23, 31
6, 47040, Note_on_c, 2, 35, 95
6, 48000, Note_off_c, 2, 23, 31
6, 48000, Note_off_c, 2, 35, 95
6, 48000, Note_on_c, 2, 30, 31
6, 48000, Note_on_c, 2, 42, 95
6, 48720, Note_off_c, 2, 30, 31
6, 48720, Note_off_c, 2, 42, 95
6, 48720, Note_on_c, 2, 30, 31
6, 48720, Note_on_c, 2, 42, 95
6, 48960, Note_off_c, 2, 30, 31
6, 48960, Note_off_c, 2, 42, 95
6, 48960, Note_on_c, 2, 30, 31
6, 48960, Note_on_c, 2, 42, 95
6, 49920, Note_off_c, 2, 30, 31
6, 49920, Note_off_c, 2, 42, 95
6, 49920, Note_on_c, 2, 30, 31
6, 49920, Note_on_c, 2, 42, 95
6, 50640, Note_off_c, 2, 30, 31
6, 50640, Note_off_c, 2, 42, 95
6, 50640, Note_on_c, 2, 30, 31
6, 50640, Note_on_c, 2, 42, 95
6, 50880, Note_off_c, 2, 30, 31
6, 50880, Note_off_c, 2, 42, 95
6, 50880, Note_on_c, 2, 30, 31
6, 50880, Note_on_c, 2, 42, 95
6, 51840, Note_off_c, 2, 30, 31
6, 51840, Note_off_c, 2, 42, 95
6, 51840, Note_on_c, 2, 30, 31
6, 51840, Note_on_c, 2, 42, 95
6, 52560, Note_off_c, 2, 30, 31
6, 52560, Note_off_c, 2, 42, 95
6, 52560, Note_on_c, 2, 30, 31
6, 52560, Note_on_c, 2, 42, 95
6, 52800, Note_off_c, 2, 30, 31
6, 52800, Note_off_c, 2, 42, 95
6, 52800, Note_on_c, 2, 30, 31
6, 52800, Note_on_c, 2, 42, 95
6, 53760, Note_off_c, 2, 30, 31
6, 53760, Note_off_c, 2, 42, 95
6, 53760, Note_on_c, 2, 30, 31
6, 53760, Note_on_c, 2, 42, 95
6, 54480, Note_off_c, 2, 30, 31
6, 54480, Note_off_c, 2, 42, 95
6, 54480, Note_on_c, 2, 30, 31
6, 54480, Note_on_c, 2, 42, 95
6, 54720, Note_off_c, 2, 30, 31
6, 54720, Note_off_c, 2, 42, 95
6, 54720, Note_on_c, 2, 30, 31
6, 54720, Note_on_c, 2, 42, 95
6, 55680, Note_off_c, 2, 30, 31
6, 55680, Note_off_c, 2, 42, 95
6, 55680, Note_on_c, 2, 30, 31
6, 55680, Note_on_c, 2, 42, 95
6, 56400, Note_off_c, 2, 30, 31
6, 56400, Note_off_c, 2, 42, 95
6, 56400, Note_on_c, 2, 30, 31
6, 56400, Note_on_c, 2, 42, 95
6, 56640, Note_off_c, 2, 30, 31
6, 56640, Note_off_c, 2, 42, 95
6, 56640, Note_on_c, 2, 30, 31
6, 56640, Note_on_c, 2, 42, 95
6, 57600, Note_off_c, 2, 30, 31
6, 57600, Note_off_c, 2, 42, 95
6, 57600, Note_on_c, 2, 30, 31
6, 57600, Note_on_c, 2, 42, 95
6, 58320, Note_off_c, 2, 30, 31
6, 58320, Note_off_c, 2, 42, 95
6, 58320, Note_on_c, 2, 30, 31
6, 58320, Note_on_c, 2, 42, 95
6, 58560, Note_off_c, 2, 30, 31
6, 58560, Note_off_c, 2, 42, 95
6, 58560, Note_on_c, 2, 30, 31
6, 58560, Note_on_c, 2, 42, 95
6, 59520, Note_off_c, 2, 30, 31
6, 59520, Note_off_c, 2, 42, 95
6, 59520, Note_on_c, 2, 30, 31
6, 59520, Note_on_c, 2, 42, 95
6, 60240, Note_off_c, 2, 30, 31
6, 60240, Note_off_c, 2, 42, 95
6, 60240, Note_on_c, 2, 30, 31
6, 60240, Note_on_c, 2, 42, 95
6, 60480, Note_off_c, 2, 30, 31
6, 60480, Note_off_c, 2, 42, 95
6, 60480, Note_on_c, 2, 30, 31
6, 60480, Note_on_c, 2, 42, 95
6, 61440, Note_off_c, 2, 30, 31
6, 61440, Note_off_c, 2, 42, 95
6, 61440, Note_on_c, 2, 25, 31
6, 61440, Note_on_c, 2, 37, 95
6, 62160, Note_off_c, 2, 25, 31
6, 62160, Note_off_c, 2, 37, 95
6, 62160, Note_on_c, 2, 25, 31
6, 62160, Note_on_c, 2, 37, 95
6, 62400, Note_off_c, 2, 25, 31
6, 62400, Note_off_c, 2, 37, 95
6, 62400, Note_on_c, 2, 25, 31
6, 62400, Note_on_c, 2, 37, 95
6, 63360, Note_off_c, 2, 25, 31
6, 63360, Note_off_c, 2, 37, 95
6, 63360, Note_on_c, 2, 23, 31
6, 63360, Note_on_c, 2, 35, 95
6, 64080, Note_off_c, 2, 23, 31
6, 64080, Note_off_c, 2, 35, 95
6, 64080, Note_on_c, 2, 23, 31
6, 64080, Note_on_c, 2, 35, 95
6, 64320, Note_off_c, 2, 23, 31
6, 64320, Note_off_c, 2, 35, 95
6, 64320, Note_on_c, 2, 23, 31
6, 64320, Note_on_c, 2, 35, 95
6, 65280, Note_off_c, 2, 23, 31
6, 65280, Note_off_c, 2, 35, 95
6, 65280, Note_on_c, 2, 30, 31
6, 65280, Note_on_c, 2, 42, 95
6, 66000, Note_off_c, 2, 30, 31
6, 66000, Note_off_c, 2, 42, 95
6, 66000, Note_on_c, 2, 30, 31
6, 66000, Note_on_c, 2, 42, 95
6, 66240, Note_off_c, 2, 30, 31
6, 66240, Note_off_c, 2, 42, 95
6, 66240, Note_on_c, 2, 30, 31
6, 66240, Note_on_c, 2, 42, 95
6, 67200, Note_off_c, 2, 30, 31
6, 67200, Note_off_c, 2, 42, 95
6, 67200, Note_on_c, 2, 30, 31
6, 67200, Note_on_c, 2, 42, 95
6, 67920, Note_off_c, 2, 30, 31
6, 67920, Note_off_c, 2, 42, 95
6, 67920, Note_on_c, 2, 30, 31
6, 67920, Note_on_c, 2, 42, 95
6, 68160, Note_off_c, 2, 30, 31
6, 68160, Note_off_c, 2, 42, 95
6, 68160, Note_on_c, 2, 30, 31
6, 68160, Note_on_c, 2, 42, 95
6, 69120, Note_off_c, 2, 30, 31
6, 69120, Note_off_c, 2, 42, 95
6, 69120, Note_on_c, 2, 30, 31
6, 69120, Note_on_c, 2, 42, 95
6, 69840, Note_off_c, 2, 30, 31
6, 69840, Note_off_c, 2, 42, 95
6, 69840, Note_on_c, 2, 30, 31
6, 69840, Note_on_c, 2, 42, 95
6, 70080, Note_off_c, 2, 30, 31
6, 70080, Note_off_c, 2, 42, 95
6, 70080, Note_on_c, 2, 30, 31
6, 70080, Note_on_c, 2, 42, 95
6, 71040, Note_off_c, 2, 30, 31
6, 71040, Note_off_c, 2, 42, 95
6, 71040, Note_on_c, 2, 30, 31
6, 71040, Note_on_c, 2, 42, 95
6, 71760, Note_off_c, 2, 30, 31
6, 71760, Note_off_c, 2, 42, 95
6, 71760, Note_on_c, 2, 30, 31
6, 71760, Note_on_c, 2, 42, 95
6, 72000, Note_off_c, 2, 30, 31
6, 72000, Note_off_c, 2, 42, 95
6, 72000, Note_on_c, 2, 30, 31
6, 72000, Note_on_c, 2, 42, 95
6, 72960, Note_off_c, 2, 30, 31
6, 72960, Note_off_c, 2, 42, 95
6, 72960, Note_on_c, 2, 30, 31
6, 72960, Note_on_c, 2, 42, 95
6, 73680, Note_off_c, 2, 30, 31
6, 73680, Note_off_c, 2, 42, 95
6, 73680, Note_on_c, 2, 30, 31
6, 73680, Note_on_c, 2, 42, 95
6, 73920, Note_off_c, 2, 30, 31
6, 73920, Note_off_c, 2, 42, 95
6, 73920, Note_on_c, 2, 30, 31
6, 73920, Note_on_c, 2, 42, 95
6, 74880, Note_off_c, 2, 30, 31
6, 74880, Note_off_c, 2, 42, 95
6, 74880, Note_on_c, 2, 30, 31
6, 74880, Note_on_c, 2, 42, 95
6, 75600, Note_off_c, 2, 30, 31
6, 75600, Note_off_c, 2, 42, 95
6, 75600, Note_on_c, 2, 30, 31
6, 75600, Note_on_c, 2, 42, 95
6, 75840, Note_off_c, 2, 30, 31
6, 75840, Note_off_c, 2, 42, 95
6, 75840, Note_on_c, 2, 30, 31
6, 75840, Note_on_c, 2, 42, 95
6, 76800, Note_off_c, 2, 30, 31
6, 76800, Note_off_c, 2, 42, 95
6, 76800, Note_on_c, 2, 30, 31
6, 76800, Note_on_c, 2, 42, 95
6, 77520, Note_off_c, 2, 30, 31
6, 77520, Note_off_c, 2, 42, 95
6, 77520, Note_on_c, 2, 30, 31
6, 77520, Note_on_c, 2, 42, 95
6, 77760, Note_off_c, 2, 30, 31
6, 77760, Note_off_c, 2, 42, 95
6, 77760, Note_on_c, 2, 30, 31
6, 77760, Note_on_c, 2, 42, 95
6, 78720, Note_off_c, 2, 30, 31
6, 78720, Note_off_c, 2, 42, 95
6, 78720, Note_on_c, 2, 25, 31
6, 78720, Note_on_c, 2, 37, 95
6, 79440, Note_off_c, 2, 25, 31
6, 79440, Note_off_c, 2, 37, 95
6, 79440, Note_on_c, 2, 25, 31
6, 79440, Note_on_c, 2, 37, 95
6, 79680, Note_off_c, 2, 25, 31
6, 79680, Note_off_c, 2, 37, 95
6, 79680, Note_on_c, 2, 25, 31
6, 79680, Note_on_c, 2, 37, 95
6, 80640, Note_off_c, 2, 25, 31
6, 80640, Note_off_c, 2, 37, 95
6, 80640, Note_on_c, 2, 23, 31
6, 80640, Note_on_c, 2, 35, 95
6, 81360, Note_off_c, 2, 23, 31
6, 81360, Note_off_c, 2, 35, 95
6, 81360, Note_on_c, 2, 23, 31
6, 81360, Note_on_c, 2, 35, 95
6, 81600, Note_off_c, 2, 23, 31
6, 81600, Note_off_c, 2, 35, 95
6, 81600, Note_on_c, 2, 23, 31
6, 81600, Note_on_c, 2, 35, 95
6, 82560, Note_off_c, 2, 23, 31
6, 82560, Note_off_c, 2, 35, 95
6, 82560, Note_on_c, 2, 30, 31
6, 82560, Note_on_c, 2, 42, 95
6, 83280, Note_off_c, 2, 30, 31
6, 83280, Note_off_c, 2, 42, 95
6, 83280, Note_on_c, 2, 30, 31
6, 83280, Note_on_c, 2, 42, 95
6, 83520, Note_off_c, 2, 30, 31
6, 83520, Note_off_c, 2, 42, 95
6, 83520, Note_on_c, 2, 30, 31
6, 83520, Note_on_c, 2, 42, 95
6, 84480, Note_off_c, 2, 30, 31
6, 84480, Note_off_c, 2, 42, 95
6, 84480, Note_on_c, 2, 30, 31
6, 84480, Note_on_c, 2, 42, 95
6, 85200, Note_off_c, 2, 30, 31
6, 85200, Note_off_c, 2, 42, 95
6, 85200, Note_on_c, 2, 30, 31
6, 85200, Note_on_c, 2, 42, 95
6, 85440, Note_off_c, 2, 30, 31
6, 85440, Note_off_c, 2, 42, 95
6, 85440, Note_on_c, 2, 30, 31
6, 85440, Note_on_c, 2, 42, 95
6, 86400, Note_off_c, 2, 30, 31
6, 86400, Note_off_c, 2, 42, 95
6, 86400, Note_on_c, 2, 30, 31
6, 86400, Note_on_c, 2, 42, 95
6, 87120, Note_off_c, 2, 30, 31
6, 87120, Note_off_c, 2, 42, 95
6, 87120, Note_on_c, 2, 30, 31
6, 87120, Note_on_c, 2, 42, 95
6, 87360, Note_off_c, 2, 30, 31
6, 87360, Note_off_c, 2, 42, 95
6, 87360, Note_on_c, 2, 30, 31
6, 87360, Note_on_c, 2, 42, 95
6, 88320, Note_off_c, 2, 30, 31
6, 88320, Note_off_c, 2, 42, 95
6, 88320, Note_on_c, 2, 30, 31
6, 88320, Note_on_c, 2, 42, 95
6, 89040, Note_off_c, 2, 30, 31
6, 89040, Note_off_c, 2, 42, 95
6, 89040, Note_on_c, 2, 30, 31
6, 89040, Note_on_c, 2, 42, 95
6, 89280, Note_off_c, 2, 30, 31
6, 89280, Note_off_c, 2, 42, 95
6, 89280, Note_on_c, 2, 30, 31
6, 89280, Note_on_c, 2, 42, 95
6, 90240, Note_off_c, 2, 30, 31
6, 90240, Note_off_c, 2, 42, 95
6, 90240, Note_on_c, 2, 30, 31
6, 90240, Note_on_c, 2, 42, 95
6, 90960, Note_off_c, 2, 30, 31
6, 90960, Note_off_c, 2, 42, 95
6, 90960, Note_on_c, 2, 30, 31
6, 90960, Note_on_c, 2, 42, 95
6, 91200, Note_off_c, 2, 30, 31
6, 91200, Note_off_c, 2, 42, 95
6, 91200, Note_on_c, 2, 30, 31
6, 91200, Note_on_c, 2, 42, 95
6, 92160, Note_off_c, 2, 30, 31
6, 92160, Note_off_c, 2, 42, 95
6, 92160, Note_on_c, 2, 30, 31
6, 92160, Note_on_c, 2, 42, 95
6, 92880, Note_off_c, 2, 30, 31
6, 92880, Note_off_c, 2, 42, 95
6, 92880, Note_on_c, 2, 30, 31
6, 92880, Note_on_c, 2, 42, 95
6, 93120, Note_off_c, 2, 30, 31
6, 93120, Note_off_c, 2, 42, 95
6, 93120, Note_on_c, 2, 30, 31
6, 93120, Note_on_c, 2, 42, 95
6, 94080, Note_off_c, 2, 30, 31
6, 94080, Note_off_c, 2, 42, 95
6, 94080, Note_on_c, 2, 30, 31
6, 94080, Note_on_c, 2, 42, 95
6, 94800, Note_off_c, 2, 30, 31
6, 94800, Note_off_c, 2, 42, 95
6, 94800, Note_on_c, 2, 30, 31
6, 94800, Note_on_c, 2, 42, 95
6, 95040, Note_off_c, 2, 30, 31
6, 95040, Note_off_c, 2, 42, 95
6, 95040, Note_on_c, 2, 30, 31
6, 95040, Note_on_c, 2, 42, 95
6, 96000, Note_off_c, 2, 30, 31
6, 96000, Note_off_c, 2, 42, 95
6, 96000, Note_on_c, 2, 25, 31
6, 96000, Note_on_c, 2, 37, 95
6, 96720, Note_off_c, 2, 25, 31
6, 96720, Note_off_c, 2, 37, 95
6, 96720, Note_on_c, 2, 25, 31
6, 96720, Note_on_c, 2, 37, 95
6, 96960, Note_off_c, 2, 25, 31
6, 96960, Note_off_c, 2, 37, 95
6, 96960, Note_on_c, 2, 25, 31
6, 96960, Note_on_c, 2, 37, 95
6, 97920, Note_off_c, 2, 25, 31
6, 97920, Note_off_c, 2, 37, 95
6, 97920, Note_on_c, 2, 23, 31
6, 97920, Note_on_c, 2, 35, 95
6, 98640, Note_off_c, 2, 23, 31
6, 98640, Note_off_c, 2, 35, 95
6, 98640, Note_on_c, 2, 23, 31
6, 98640, Note_on_c, 2, 35, 95
6, 98880, Note_off_c, 2, 23, 31
6, 98880, Note_off_c, 2, 35, 95
6, 98880, Note_on_c, 2, 23, 31
6, 98880, Note_on_c, 2, 35, 95
6, 99840, Note_off_c, 2, 23, 31
6, 99840, Note_off_c, 2, 35, 95
6, 99840, Note_on_c, 2, 30, 31
6, 99840, Note_on_c, 2, 42, 95
6, 100560, Note_off_c, 2, 30, 31
6, 100560, Note_off_c, 2, 42, 95
6, 100560, Note_on_c, 2, 30, 31
6, 100560, Note_on_c, 2, 42, 95
6, 100800, Note_off_c, 2, 30, 31
6, 100800, Note_off_c, 2, 42, 95
6, 100800, Note_on_c, 2, 30, 31
6, 100800, Note_on_c, 2, 42, 95
6, 101760, Note_off_c, 2, 30, 31
6, 101760, Note_off_c, 2, 42, 95
6, 101760, Note_on_c, 2, 30, 31
6, 101760, Note_on_c, 2, 42, 95
6, 102480, Note_off_c, 2, 30, 31
6, 102480, Note_off_c, 2, 42, 95
6, 102480, Note_on_c, 2, 30, 31
6, 102480, Note_on_c, 2, 42, 95
6, 102720, Note_off_c, 2, 30, 31
6, 102720, Note_off_c, 2, 42, 95
6, 102720, Note_on_c, 2, 30, 31
6, 102720, Note_on_c, 2, 42, 95
6, 103680, Note_off_c, 2, 30, 31
6, 103680, Note_off_c, 2, 42, 95
6, 103680, Note_on_c, 2, 32, 31
6, 103680, Note_on_c, 2, 44, 95
6, 104400, Note_off_c, 2, 32, 31
6, 104400, Note_off_c, 2, 44, 95
6, 104400, Note_on_c, 2, 32, 31
6, 104400, Note_on_c, 2, 44, 95
6, 104640, Note_off_c, 2, 32, 31
6, 104640, Note_off_c, 2, 44, 95
6, 104640, Note_on_c, 2, 32, 31
6, 104640, Note_on_c, 2, 44, 95
6, 105600, Note_off_c, 2, 32, 31
6, 105600, Note_off_c, 2, 44, 95
6, 105600, Note_on_c, 2, 34, 31
6, 105600, Note_on_c, 2, 46, 95
6, 106320, Note_off_c, 2, 34, 31
6, 106320, Note_off_c, 2, 46, 95
6, 106320, Note_on_c, 2, 34, 31
6, 106320, Note_on_c, 2, 46, 95
6, 106560, Note_off_c, 2, 34, 31
6, 106560, Note_off_c, 2, 46, 95
6, 106560, Note_on_c, 2, 34, 31
6, 106560, Note_on_c, 2, 46, 95
6, 107520, Note_off_c, 2, 34, 31
6, 107520, Note_off_c, 2, 46, 95
6, 107520, Note_on_c, 2, 35, 31
6, 107520, Note_on_c, 2, 47, 95
6, 108240, Note_off_c, 2, 35, 31
6, 108240, Note_off_c, 2, 47, 95
6, 108240, Note_on_c, 2, 35, 31
6, 108240, Note_on_c, 2, 47, 95
6, 108480, Note_off_c, 2, 35, 31
6, 108480, Note_off_c, 2, 47, 95
6, 108480, Note_on_c, 2, 35, 31
6, 108480, Note_on_c, 2, 47, 95
6, 109440, Note_off_c, 2, 35, 31
6, 109440, Note_off_c, 2, 47, 95
6, 109440, Note_on_c, 2, 37, 31
6, 109440, Note_on_c, 2, 49, 95
6, 110160, Note_off_c, 2, 37, 31
6, 110160, Note_off_c, 2, 49, 95
6, 110160, Note_on_c, 2, 37, 31
6, 110160, Note_on_c, 2, 49, 95
6, 110400, Note_off_c, 2, 37, 31
6, 110400, Note_off_c, 2, 49, 95
6, 110400, Note_on_c, 2, 37, 31
6, 110400, Note_on_c, 2, 49, 95
6, 111360, Note_off_c, 2, 37, 31
6, 111360, Note_off_c, 2, 49, 95
6, 111360, Note_on_c, 2, 39, 31
6, 111360, Note_on_c, 2, 51, 95
6, 112080, Note_off_c, 2, 39, 31
6, 112080, Note_off_c, 2, 51, 95
6, 112080, Note_on_c, 2, 39, 31
6, 112080, Note_on_c, 2, 51, 95
6, 112320, Note_off_c, 2, 39, 31
6, 112320, Note_off_c, 2, 51, 95
6, 112320, Note_on_c, 2, 39, 31
6, 112320, Note_on_c, 2, 51, 95
6, 113280, Note_off_c, 2, 39, 31
6, 113280, Note_off_c, 2, 51, 95
6, 113280, Note_on_c, 2, 41, 31
6, 113280, Note_on_c, 2, 53, 95
6, 114000, Note_off_c, 2, 41, 31
6, 114000, Note_off_c, 2, 53, 95
6, 114000, Note_on_c, 2, 41, 31
6, 114000, Note_on_c, 2, 53, 95
6, 114240, Note_off_c, 2, 41, 31
6, 114240, Note_off_c, 2, 53, 95
6, 114240, Note_on_c, 2, 41, 31
6, 114240, Note_on_c, 2, 53, 95
6, 115200, Note_off_c, 2, 41, 31
6, 115200, Note_off_c, 2, 53, 95
6, 115200, Note_on_c, 2, 42, 31
6, 115200, Note_on_c, 2, 54, 95
6, 115920, Note_off_c, 2, 42, 31
6, 115920, Note_off_c, 2, 54, 95
6, 115920, Note_on_c, 2, 42, 31
6, 115920, Note_on_c, 2, 54, 95
6, 116160, Note_off_c, 2, 42, 31
6, 116160, Note_off_c, 2, 54, 95
6, 116160, Note_on_c, 2, 42, 31
6, 116160, Note_on_c, 2, 54, 95
6, 117120, Note_off_c, 2, 42, 31
6, 117120, Note_off_c, 2, 54, 95
6, 117120, Note_on_c, 2, 30, 31
6, 117120, Note_on_c, 2, 42, 95
6, 117840, Note_off_c, 2, 30, 31
6, 117840, Note_off_c, 2, 42, 95
6, 117840, Note_on_c, 2, 30, 31
6, 117840, Note_on_c, 2, 42, 95
6, 118080, Note_off_c, 2, 30, 31
6, 118080, Note_off_c, 2, 42, 95
6, 118080, Note_on_c, 2, 32, 31
6, 118080, Note_on_c, 2, 44, 95
6, 119040, Note_off_c, 2, 32, 31
6, 119040, Note_off_c, 2, 44, 95
6, 119040, Note_on_c, 2, 30, 31
6, 119040, Note_on_c, 2, 42, 95
6, 119760, Note_off_c, 2, 30, 31
6, 119760, Note_off_c, 2, 42, 95
6, 119760, Note_on_c, 2, 30, 31
6, 119760, Note_on_c, 2, 42, 95
6, 120000, Note_off_c, 2, 30, 31
6, 120000, Note_off_c, 2, 42, 95
6, 120000, Note_on_c, 2, 30, 31
6, 120000, Note_on_c, 2, 42, 95
6, 120960, Note_off_c, 2, 30, 31
6, 120960, Note_off_c, 2, 42, 95
6, 120960, Note_on_c, 2, 32, 31
6, 120960, Note_on_c, 2, 44, 95
6, 121680, Note_off_c, 2, 32, 31
6, 121680, Note_off_c, 2, 44, 95
6, 121680, Note_on_c, 2, 32, 31
6, 121680, Note_on_c, 2, 44, 95
6, 121920, Note_off_c, 2, 32, 31
6, 121920, Note_off_c, 2, 44, 95
6, 121920, Note_on_c, 2, 32, 31
6, 121920, Note_on_c, 2, 44, 95
6, 122880, Note_off_c, 2, 32, 31
6, 122880, Note_off_c, 2, 44, 95
6, 122880, Note_on_c, 2, 25, 31
6, 122880, Note_on_c, 2, 37, 95
6, 123600, Note_off_c, 2, 25, 31
6, 123600, Note_off_c, 2, 37, 95
6, 123600, Note_on_c, 2, 25, 31
6, 123600, Note_on_c, 2, 37, 95
6, 123840, Note_off_c, 2, 25, 31
6, 123840, Note_off_c, 2, 37, 95
6, 123840, Note_on_c, 2, 25, 31
6, 123840, Note_on_c, 2, 37, 95
6, 124800, Note_off_c, 2, 25, 31
6, 124800, Note_off_c, 2, 37, 95
6, 124800, Note_on_c, 2, 25, 31
6, 124800, Note_on_c, 2, 37, 95
6, 126720, Note_off_c, 2, 25, 31
6, 126720, Note_off_c, 2, 37, 95
6, 128640, Note_on_c, 2, 30, 31
6, 128640, Note_on_c, 2, 42, 95
6, 129360, Note_off_c, 2, 30, 31
6, 129360, Note_off_c, 2, 42, 95
6, 129360, Note_on_c, 2, 30, 31
6, 129360, Note_on_c, 2, 42, 95
6, 129600, Note_off_c, 2, 30, 31
6, 129600, Note_off_c, 2, 42, 95
6, 129600, Note_on_c, 2, 30, 31
6, 129600, Note_on_c, 2, 42, 95
6, 130560, Note_off_c, 2, 30, 31
6, 130560, Note_off_c, 2, 42, 95
6, 130560, Note_on_c, 2, 30, 31
6, 130560, Note_on_c, 2, 42, 95
6, 131280, Note_off_c, 2, 30, 31
6, 131280, Note_off_c, 2, 42, 95
6, 131280, Note_on_c, 2, 30, 31
6, 131280, Note_on_c, 2, 42, 95
6, 131520, Note_off_c, 2, 30, 31
6, 131520, Note_off_c, 2, 42, 95
6, 131520, Note_on_c, 2, 30, 31
6, 131520, Note_on_c, 2, 42, 95
6, 132480, Note_off_c, 2, 30, 31
6, 132480, Note_off_c, 2, 42, 95
6, 132480, Note_on_c, 2, 30, 31
6, 132480, Note_on_c, 2, 42, 95
6, 133200, Note_off_c, 2, 30, 31
6, 133200, Note_off_c, 2, 42, 95
6, 133200, Note_on_c, 2, 30, 31
6, 133200, Note_on_c, 2, 42, 95
6, 133440, Note_off_c, 2, 30, 31
6, 133440, Note_off_c, 2, 42, 95
6, 133440, Note_on_c, 2, 30, 31
6, 133440, Note_on_c, 2, 42, 95
6, 134400, Note_off_c, 2, 30, 31
6, 134400, Note_off_c, 2, 42, 95
6, 134400, Note_on_c, 2, 30, 31
6, 134400, Note_on_c, 2, 42, 95
6, 135120, Note_off_c, 2, 30, 31
6, 135120, Note_off_c, 2, 42, 95
6, 135120, Note_on_c, 2, 30, 31
6, 135120, Note_on_c, 2, 42, 95
6, 135360, Note_off_c, 2, 30, 31
6, 135360, Note_off_c, 2, 42, 95
6, 135360, Note_on_c, 2, 30, 31
6, 135360, Note_on_c, 2, 42, 95
6, 136320, Note_off_c, 2, 30, 31
6, 136320, Note_off_c, 2, 42, 95
6, 136320, Note_on_c, 2, 30, 31
6, 136320, Note_on_c, 2, 42, 95
6, 137040, Note_off_c, 2, 30, 31
6, 137040, Note_off_c, 2, 42, 95
6, 137040, Note_on_c, 2, 30, 31
6, 137040, Note_on_c, 2, 42, 95
6, 137280, Note_off_c, 2, 30, 31
6, 137280, Note_off_c, 2, 42, 95
6, 137280, Note_on_c, 2, 30, 31
6, 137280, Note_on_c, 2, 42, 95
6, 138240, Note_off_c, 2, 30, 31
6, 138240, Note_off_c, 2, 42, 95
6, 138240, Note_on_c, 2, 25, 31
6, 138240, Note_on_c, 2, 37, 95
6, 138960, Note_off_c, 2, 25, 31
6, 138960, Note_off_c, 2, 37, 95
6, 138960, Note_on_c, 2, 25, 31
6, 138960, Note_on_c, 2, 37, 95
6, 139200, Note_off_c, 2, 25, 31
6, 139200, Note_off_c, 2, 37, 95
6, 139200, Note_on_c, 2, 25, 31
6, 139200, Note_on_c, 2, 37, 95
6, 140160, Note_off_c, 2, 25, 31
6, 140160, Note_off_c, 2, 37, 95
6, 140160, Note_on_c, 2, 23, 31
6, 140160, Note_on_c, 2, 35, 95
6, 140880, Note_off_c, 2, 23, 31
6, 140880, Note_off_c, 2, 35, 95
6, 140880, Note_on_c, 2, 23, 31
6, 140880, Note_on_c, 2, 35, 95
6, 141120, Note_off_c, 2, 23, 31
6, 141120, Note_off_c, 2, 35, 95
6, 141120, Note_on_c, 2, 23, 31
6, 141120, Note_on_c, 2, 35, 95
6, 142080, Note_off_c, 2, 23, 31
6, 142080, Note_off_c, 2, 35, 95
6, 142080, Note_on_c, 2, 30, 31
6, 142080, Note_on_c, 2, 42, 95
6, 142800, Note_off_c, 2, 30, 31
6, 142800, Note_off_c, 2, 42, 95
6, 142800, Note_on_c, 2, 30, 31
6, 142800, Note_on_c, 2, 42, 95
6, 143040, Note_off_c, 2, 30, 31
6, 143040, Note_off_c, 2, 42, 95
6, 143040, Note_on_c, 2, 30, 31
6, 143040, Note_on_c, 2, 42, 95
6, 144000, Note_off_c, 2, 30, 31
6, 144000, Note_off_c, 2, 42, 95
6, 144000, Note_on_c, 2, 30, 31
6, 144000, Note_on_c, 2, 42, 95
6, 144720, Note_off_c, 2, 30, 31
6, 144720, Note_off_c, 2, 42, 95
6, 144720, Note_on_c, 2, 30, 31
6, 144720, Note_on_c, 2, 42, 95
6, 144960, Note_off_c, 2, 30, 31
6, 144960, Note_off_c, 2, 42, 95
6, 144960, Note_on_c, 2, 30, 31
6, 144960, Note_on_c, 2, 42, 95
6, 145920, Note_off_c, 2, 30, 31
6, 145920, Note_off_c, 2, 42, 95
6, 145920, Note_on_c, 2, 30, 31
6, 145920, Note_on_c, 2, 42, 95
6, 146640, Note_off_c, 2, 30, 31
6, 146640, Note_off_c, 2, 42, 95
6, 146640, Note_on_c, 2, 30, 31
6, 146640, Note_on_c, 2, 42, 95
6, 146880, Note_off_c, 2, 30, 31
6, 146880, Note_off_c, 2, 42, 95
6, 146880, Note_on_c, 2, 30, 31
6, 146880, Note_on_c, 2, 42, 95
6, 147840, Note_off_c, 2, 30, 31
6, 147840, Note_off_c, 2, 42, 95
6, 147840, Note_on_c, 2, 30, 31
6, 147840, Note_on_c, 2, 42, 95
6, 148560, Note_off_c, 2, 30, 31
6, 148560, Note_off_c, 2, 42, 95
6, 148560, Note_on_c, 2, 30, 31
6, 148560, Note_on_c, 2, 42, 95
6, 148800, Note_off_c, 2, 30, 31
6, 148800, Note_off_c, 2, 42, 95
6, 148800, Note_on_c, 2, 30, 31
6, 148800, Note_on_c, 2, 42, 95
6, 149760, Note_off_c, 2, 30, 31
6, 149760, Note_off_c, 2, 42, 95
6, 149760, Note_on_c, 2, 30, 31
6, 149760, Note_on_c, 2, 42, 95
6, 150480, Note_off_c, 2, 30, 31
6, 150480, Note_off_c, 2, 42, 95
6, 150480, Note_on_c, 2, 30, 31
6, 150480, Note_on_c, 2, 42, 95
6, 150720, Note_off_c, 2, 30, 31
6, 150720, Note_off_c, 2, 42, 95
6, 150720, Note_on_c, 2, 30, 31
6, 150720, Note_on_c, 2, 42, 95
6, 151680, Note_off_c, 2, 30, 31
6, 151680, Note_off_c, 2, 42, 95
6, 151680, Note_on_c, 2, 30, 31
6, 151680, Note_on_c, 2, 42, 95
6, 152400, Note_off_c, 2, 30, 31
6, 152400, Note_off_c, 2, 42, 95
6, 152400, Note_on_c, 2, 30, 31
6, 152400, Note_on_c, 2, 42, 95
6, 152640, Note_off_c, 2, 30, 31
6, 152640, Note_off_c, 2, 42, 95
6, 152640, Note_on_c, 2, 30, 31
6, 152640, Note_on_c, 2, 42, 95
6, 153600, Note_off_c, 2, 30, 31
6, 153600, Note_off_c, 2, 42, 95
6, 153600, Note_on_c, 2, 30, 31
6, 153600, Note_on_c, 2, 42, 95
6, 154320, Note_off_c, 2, 30, 31
6, 154320, Note_off_c, 2, 42, 95
6, 154320, Note_on_c, 2, 30, 31
6, 154320, Note_on_c, 2, 42, 95
6, 154560, Note_off_c, 2, 30, 31
6, 154560, Note_off_c, 2, 42, 95
6, 154560, Note_on_c, 2, 30, 31
6, 154560, Note_on_c, 2, 42, 95
6, 155520, Note_off_c, 2, 30, 31
6, 155520, Note_off_c, 2, 42, 95
6, 155520, Note_on_c, 2, 25, 31
6, 155520, Note_on_c, 2, 37, 95
6, 156240, Note_off_c, 2, 25, 31
6, 156240, Note_off_c, 2, 37, 95
6, 156240, Note_on_c, 2, 25, 31
6, 156240, Note_on_c, 2, 37, 95
6, 156480, Note_off_c, 2, 25, 31
6, 156480, Note_off_c, 2, 37, 95
6, 156480, Note_on_c, 2, 25, 31
6, 156480, Note_on_c, 2, 37, 95
6, 157440, Note_off_c, 2, 25, 31
6, 157440, Note_off_c, 2, 37, 95
6, 157440, Note_on_c, 2, 23, 31
6, 157440, Note_on_c, 2, 35, 95
6, 158160, Note_off_c, 2, 23, 31
6, 158160, Note_off_c, 2, 35, 95
6, 158160, Note_on_c, 2, 23, 31
6, 158160, Note_on_c, 2, 35, 95
6, 158400, Note_off_c, 2, 23, 31
6, 158400, Note_off_c, 2, 35, 95
6, 158400, Note_on_c, 2, 23, 31
6, 158400, Note_on_c, 2, 35, 95
6, 159360, Note_off_c, 2, 23, 31
6, 159360, Note_off_c, 2, 35, 95
6, 159360, Note_on_c, 2, 30, 31
6, 159360, Note_on_c, 2, 42, 95
6, 160080, Note_off_c, 2, 30, 31
6, 160080, Note_off_c, 2, 42, 95
6, 160080, Note_on_c, 2, 30, 31
6, 160080, Note_on_c, 2, 42, 95
6, 160320, Note_off_c, 2, 30, 31
6, 160320, Note_off_c, 2, 42, 95
6, 160320, Note_on_c, 2, 30, 31
6, 160320, Note_on_c, 2, 42, 95
6, 161280, Note_off_c, 2, 30, 31
6, 161280, Note_off_c, 2, 42, 95
6, 161280, Note_on_c, 2, 30, 31
6, 161280, Note_on_c, 2, 42, 95
6, 162000, Note_off_c, 2, 30, 31
6, 162000, Note_off_c, 2, 42, 95
6, 162000, Note_on_c, 2, 30, 31
6, 162000, Note_on_c, 2, 42, 95
6, 162240, Note_off_c, 2, 30, 31
6, 162240, Note_off_c, 2, 42, 95
6, 162240, Note_on_c, 2, 30, 31
6, 162240, Note_on_c, 2, 42, 95
6, 163200, Note_off_c, 2, 30, 31
6, 163200, Note_off_c, 2, 42, 95
6, 163200, Note_on_c, 2, 30, 31
6, 163200, Note_on_c, 2, 42, 95
6, 163920, Note_off_c, 2, 30, 31
6, 163920, Note_off_c, 2, 42, 95
6, 163920, Note_on_c, 2, 30, 31
6, 163920, Note_on_c, 2, 42, 95
6, 164160, Note_off_c, 2, 30, 31
6, 164160, Note_off_c, 2, 42, 95
6, 164160, Note_on_c, 2, 30, 31
6, 164160, Note_on_c, 2, 42, 95
6, 165120, Note_off_c, 2, 30, 31
6, 165120, Note_off_c, 2, 42, 95
6, 165120, Note_on_c, 2, 30, 31
6, 165120, Note_on_c, 2, 42, 95
6, 165840, Note_off_c, 2, 30, 31
6, 165840, Note_off_c, 2, 42, 95
6, 165840, Note_on_c, 2, 30, 31
6, 165840, Note_on_c, 2, 42, 95
6, 166080, Note_off_c, 2, 30, 31
6, 166080, Note_off_c, 2, 42, 95
6, 166080, Note_on_c, 2, 30, 31
6, 166080, Note_on_c, 2, 42, 95
6, 167040, Note_off_c, 2, 30, 31
6, 167040, Note_off_c, 2, 42, 95
6, 167040, Note_on_c, 2, 32, 31
6, 167040, Note_on_c, 2, 44, 95
6, 167760, Note_off_c, 2, 32, 31
6, 167760, Note_off_c, 2, 44, 95
6, 167760, Note_on_c, 2, 32, 31
6, 167760, Note_on_c, 2, 44, 95
6, 168000, Note_off_c, 2, 32, 31
6, 168000, Note_off_c, 2, 44, 95
6, 168000, Note_on_c, 2, 32, 31
6, 168000, Note_on_c, 2, 44, 95
6, 168960, Note_off_c, 2, 32, 31
6, 168960, Note_off_c, 2, 44, 95
6, 168960, Note_on_c, 2, 34, 31
6, 168960, Note_on_c, 2, 46, 95
6, 169680, Note_off_c, 2, 34, 31
6, 169680, Note_off_c, 2, 46, 95
6, 169680, Note_on_c, 2, 34, 31
6, 169680, Note_on_c, 2, 46, 95
6, 169920, Note_off_c, 2, 34, 31
6, 169920, Note_off_c, 2, 46, 95
6, 169920, Note_on_c, 2, 34, 31
6, 169920, Note_on_c, 2, 46, 95
6, 170880, Note_off_c, 2, 34, 31
6, 170880, Note_off_c, 2, 46, 95
6, 170880, Note_on_c, 2, 35, 31
6, 170880, Note_on_c, 2, 47, 95
6, 171600, Note_off_c, 2, 35, 31
6, 171600, Note_off_c, 2, 47, 95
6, 171600, Note_on_c, 2, 35, 31
6, 171600, Note_on_c, 2, 47, 95
6, 171840, Note_off_c, 2, 35, 31
6, 171840, Note_off_c, 2, 47, 95
6, 171840, Note_on_c, 2, 35, 31
6, 171840, Note_on_c, 2, 47, 95
6, 172800, Note_off_c, 2, 35, 31
6, 172800, Note_off_c, 2, 47, 95
6, 172800, Note_on_c, 2, 37, 31
6, 172800, Note_on_c, 2, 49, 95
6, 173520, Note_off_c, 2, 37, 31
6, 173520, Note_off_c, 2, 49, 95
6, 173520, Note_on_c, 2, 37, 31
6, 173520, Note_on_c, 2, 49, 95
6, 173760, Note_off_c, 2, 37, 31
6, 173760, Note_off_c, 2, 49, 95
6, 173760, Note_on_c, 2, 37, 31
6, 173760, Note_on_c, 2, 49, 95
6, 174720, Note_off_c, 2, 37, 31
6, 174720, Note_off_c, 2, 49, 95
6, 174720, Note_on_c, 2, 39, 31
6, 174720, Note_on_c, 2, 51, 95
6, 175440, Note_off_c, 2, 39, 31
6, 175440, Note_off_c, 2, 51, 95
6, 175440, Note_on_c, 2, 39, 31
6, 175440, Note_on_c, 2, 51, 95
6, 175680, Note_off_c, 2, 39, 31
6, 175680, Note_off_c, 2, 51, 95
6, 175680, Note_on_c, 2, 39, 31
6, 175680, Note_on_c, 2, 51, 95
6, 176640, Note_off_c, 2, 39, 31
6, 176640, Note_off_c, 2, 51, 95
6, 176640, Note_on_c, 2, 41, 31
6, 176640, Note_on_c, 2, 53, 95
6, 177360, Note_off_c, 2, 41, 31
6, 177360, Note_off_c, 2, 53, 95
6, 177360, Note_on_c, 2, 41, 31
6, 177360, Note_on_c, 2, 53, 95
6, 177600, Note_off_c, 2, 41, 31
6, 177600, Note_off_c, 2, 53, 95
6, 177600, Note_on_c, 2, 41, 31
6, 177600, Note_on_c, 2, 53, 95
6, 178560, Note_off_c, 2, 41, 31
6, 178560, Note_off_c, 2, 53, 95
6, 178560, Note_on_c, 2, 42, 31
6, 178560, Note_on_c, 2, 54, 95
6, 179280, Note_off_c, 2, 42, 31
6, 179280, Note_off_c, 2, 54, 95
6, 179280, Note_on_c, 2, 42, 31
6, 179280, Note_on_c, 2, 54, 95
6, 179520, Note_off_c, 2, 42, 31
6, 179520, Note_off_c, 2, 54, 95
6, 179520, Note_on_c, 2, 42, 31
6, 179520, Note_on_c, 2, 54, 95
6, 180480, Note_off_c, 2, 42, 31
6, 180480, Note_off_c, 2, 54, 95
6, 180480, Note_on_c, 2, 30, 31
6, 180480, Note_on_c, 2, 42, 95
6, 181200, Note_off_c, 2, 30, 31
6, 181200, Note_off_c, 2, 42, 95
6, 181200, Note_on_c, 2, 30, 31
6, 181200, Note_on_c, 2, 42, 95
6, 181440, Note_off_c, 2, 30, 31
6, 181440, Note_off_c, 2, 42, 95
6, 181440, Note_on_c, 2, 32, 31
6, 181440, Note_on_c, 2, 44, 95
6, 182400, Note_off_c, 2, 32, 31
6, 182400, Note_off_c, 2, 44, 95
6, 182400, Note_on_c, 2, 30, 31
6, 182400, Note_on_c, 2, 42, 95
6, 183120, Note_off_c, 2, 30, 31
6, 183120, Note_off_c, 2, 42, 95
6, 183120, Note_on_c, 2, 30, 31
6, 183120, Note_on_c, 2, 42, 95
6, 183360, Note_off_c, 2, 30, 31
6, 183360, Note_off_c, 2, 42, 95
6, 183360, Note_on_c, 2, 30, 31
6, 183360, Note_on_c, 2, 42, 95
6, 184320, Note_off_c, 2, 30, 31
6, 184320, Note_off_c, 2, 42, 95
6, 184320, Note_on_c, 2, 32, 31
6, 184320, Note_on_c, 2, 44, 95
6, 185040, Note_off_c, 2, 32, 31
6, 185040, Note_off_c, 2, 44, 95
6, 185040, Note_on_c, 2, 32, 31
6, 185040, Note_on_c, 2, 44, 95
6, 185280, Note_off_c, 2, 32, 31
6, 185280, Note_off_c, 2, 44, 95
6, 185280, Note_on_c, 2, 32, 31
6, 185280, Note_on_c, 2, 44, 95
6, 186240, Note_off_c, 2, 32, 31
6, 186240, Note_off_c, 2, 44, 95
6, 186240, Note_on_c, 2, 25, 31
6, 186240, Note_on_c, 2, 37, 95
6, 186960, Note_off_c, 2, 25, 31
6, 186960, Note_off_c, 2, 37, 95
6, 186960, Note_on_c, 2, 25, 31
6, 186960, Note_on_c, 2, 37, 95
6, 187200, Note_off_c, 2, 25, 31
6, 187200, Note_off_c, 2, 37, 95
6, 187200, Note_on_c, 2, 25, 31
6, 187200, Note_on_c, 2, 37, 95
6, 188160, Note_off_c, 2, 25, 31
6, 188160, Note_off_c, 2, 37, 95
6, 188160, Note_on_c, 2, 25, 31
6, 188160, Note_on_c, 2, 37, 95
6, 190080, Note_off_c, 2, 25, 31
6, 190080, Note_off_c, 2, 37, 95
6, 192000, Note_on_c, 2, 30, 31
6, 192000, Note_on_c, 2, 42, 95
6, 192720, Note_off_c, 2, 30, 31
6, 192720, Note_off_c, 2, 42, 95
6, 192720, Note_on_c, 2, 30, 31
6, 192720, Note_on_c, 2, 42, 95
6, 192960, Note_off_c, 2, 30, 31
6, 192960, Note_off_c, 2, 42, 95
6, 192960, Note_on_c, 2, 30, 31
6, 192960, Note_on_c, 2, 42, 95
6, 193920, Note_off_c, 2, 30, 31
6, 193920, Note_off_c, 2, 42, 95
6, 193920, Note_on_c, 2, 30, 31
6, 193920, Note_on_c, 2, 42, 95
6, 194640, Note_off_c, 2, 30, 31
6, 194640, Note_off_c, 2, 42, 95
6, 194640, Note_on_c, 2, 30, 31
6, 194640, Note_on_c, 2, 42, 95
6, 194880, Note_off_c, 2, 30, 31
6, 194880, Note_off_c, 2, 42, 95
6, 194880, Note_on_c, 2, 30, 31
6, 194880, Note_on_c, 2, 42, 95
6, 195840, Note_off_c, 2, 30, 31
6, 195840, Note_off_c, 2, 42, 95
6, 195840, Note_on_c, 2, 30, 31
6, 195840, Note_on_c, 2, 42, 95
6, 196560, Note_off_c, 2, 30, 31
6, 196560, Note_off_c, 2, 42, 95
6, 196560, Note_on_c, 2, 30, 31
6, 196560, Note_on_c, 2, 42, 95
6, 196800, Note_off_c, 2, 30, 31
6, 196800, Note_off_c, 2, 42, 95
6, 196800, Note_on_c, 2, 30, 31
6, 196800, Note_on_c, 2, 42, 95
6, 197760, Note_off_c, 2, 30, 31
6, 197760, Note_off_c, 2, 42, 95
6, 197760, Note_on_c, 2, 30, 31
6, 197760, Note_on_c, 2, 42, 95
6, 198480, Note_off_c, 2, 30, 31
6, 198480, Note_off_c, 2, 42, 95
6, 198480, Note_on_c, 2, 30, 31
6, 198480, Note_on_c, 2, 42, 95
6, 198720, Note_off_c, 2, 30, 31
6, 198720, Note_off_c, 2, 42, 95
6, 198720, Note_on_c, 2, 30, 31
6, 198720, Note_on_c, 2, 42, 95
6, 199680, Note_off_c, 2, 30, 31
6, 199680, Note_off_c, 2, 42, 95
6, 199680, Note_on_c, 2, 30, 31
6, 199680, Note_on_c, 2, 42, 95
6, 200400, Note_off_c, 2, 30, 31
6, 200400, Note_off_c, 2, 42, 95
6, 200400, Note_on_c, 2, 30, 31
6, 200400, Note_on_c, 2, 42, 95
6, 200640, Note_off_c, 2, 30, 31
6, 200640, Note_off_c, 2, 42, 95
6, 200640, Note_on_c, 2, 30, 31
6, 200640, Note_on_c, 2, 42, 95
6, 201600, Note_off_c, 2, 30, 31
6, 201600, Note_off_c, 2, 42, 95
6, 201600, Note_on_c, 2, 25, 31
6, 201600, Note_on_c, 2, 37, 95
6, 202320, Note_off_c, 2, 25, 31
6, 202320, Note_off_c, 2, 37, 95
6, 202320, Note_on_c, 2, 25, 31
6, 202320, Note_on_c, 2, 37, 95
6, 202560, Note_off_c, 2, 25, 31
6, 202560, Note_off_c, 2, 37, 95
6, 202560, Note_on_c, 2, 25, 31
6, 202560, Note_on_c, 2, 37, 95
6, 203520, Note_off_c, 2, 25, 31
6, 203520, Note_off_c, 2, 37, 95
6, 203520, Note_on_c, 2, 23, 31
6, 203520, Note_on_c, 2, 35, 95
6, 204240, Note_off_c, 2, 23, 31
6, 204240, Note_off_c, 2, 35, 95
6, 204240, Note_on_c, 2, 23, 31
6, 204240, Note_on_c, 2, 35, 95
6, 204480, Note_off_c, 2, 23, 31
6, 204480, Note_off_c, 2, 35, 95
6, 204480, Note_on_c, 2, 23, 31
6, 204480, Note_on_c, 2, 35, 95
6, 205440, Note_off_c, 2, 23, 31
6, 205440, Note_off_c, 2, 35, 95
6, 205440, Note_on_c, 2, 30, 31
6, 205440, Note_on_c, 2, 42, 95
6, 206160, Note_off_c, 2, 30, 31
6, 206160, Note_off_c, 2, 42, 95
6, 206160, Note_on_c, 2, 30, 31
6, 206160, Note_on_c, 2, 42, 95
6, 206400, Note_off_c, 2, 30, 31
6, 206400, Note_off_c, 2, 42, 95
6, 206400, Note_on_c, 2, 30, 31
6, 206400, Note_on_c, 2, 42, 95
6, 207360, Note_off_c, 2, 30, 31
6, 207360, Note_off_c, 2, 42, 95
6, 207360, Note_on_c, 2, 30, 31
6, 207360, Note_on_c, 2, 42, 95
6, 208080, Note_off_c, 2, 30, 31
6, 208080, Note_off_c, 2, 42, 95
6, 208080, Note_on_c, 2, 30, 31
6, 208080, Note_on_c, 2, 42, 95
6, 208320, Note_off_c, 2, 30, 31
6, 208320, Note_off_c, 2, 42, 95
6, 208320, Note_on_c, 2, 30, 31
6, 208320, Note_on_c, 2, 42, 95
6, 209280, Note_off_c, 2, 30, 31
6, 209280, Note_off_c, 2, 42, 95
6, 209280, Note_on_c, 2, 30, 31
6, 209280, Note_on_c, 2, 42, 95
6, 210000, Note_off_c, 2, 30, 31
6, 210000, Note_off_c, 2, 42, 95
6, 210000, Note_on_c, 2, 30, 31
6, 210000, Note_on_c, 2, 42, 95
6, 210240, Note_off_c, 2, 30, 31
6, 210240, Note_off_c, 2, 42, 95
6, 210240, Note_on_c, 2, 30, 31
6, 210240, Note_on_c, 2, 42, 95
6, 211200, Note_off_c, 2, 30, 31
6, 211200, Note_off_c, 2, 42, 95
6, 211200, Note_on_c, 2, 30, 31
6, 211200, Note_on_c, 2, 42, 95
6, 211920, Note_off_c, 2, 30, 31
6, 211920, Note_off_c, 2, 42, 95
6, 211920, Note_on_c, 2, 30, 31
6, 211920, Note_on_c, 2, 42, 95
6, 212160, Note_off_c, 2, 30, 31
6, 212160, Note_off_c, 2, 42, 95
6, 212160, Note_on_c, 2, 30, 31
6, 212160, Note_on_c, 2, 42, 95
6, 213120, Note_off_c, 2, 30, 31
6, 213120, Note_off_c, 2, 42, 95
6, 213120, Note_on_c, 2, 30, 31
6, 213120, Note_on_c, 2, 42, 95
6, 213840, Note_off_c, 2, 30, 31
6, 213840, Note_off_c, 2, 42, 95
6, 213840, Note_on_c, 2, 30, 31
6, 213840, Note_on_c, 2, 42, 95
6, 214080, Note_off_c, 2, 30, 31
6, 214080, Note_off_c, 2, 42, 95
6, 214080, Note_on_c, 2, 30, 31
6, 214080, Note_on_c, 2, 42, 95
6, 215040, Note_off_c, 2, 30, 31
6, 215040, Note_off_c, 2, 42, 95
6, 215040, Note_on_c, 2, 30, 31
6, 215040, Note_on_c, 2, 42, 95
6, 215760, Note_off_c, 2, 30, 31
6, 215760, Note_off_c, 2, 42, 95
6, 215760, Note_on_c, 2, 30, 31
6, 215760, Note_on_c, 2, 42, 95
6, 216000, Note_off_c, 2, 30, 31
6, 216000, Note_off_c, 2, 42, 95
6, 216000, Note_on_c, 2, 30, 31
6, 216000, Note_on_c, 2, 42, 95
6, 216960, Note_off_c, 2, 30, 31
6, 216960, Note_off_c, 2, 42, 95
6, 216960, Note_on_c, 2, 30, 31
6, 216960, Note_on_c, 2, 42, 95
6, 217680, Note_off_c, 2, 30, 31
6, 217680, Note_off_c, 2, 42, 95
6, 217680, Note_on_c, 2, 30, 31
6, 217680, Note_on_c, 2, 42, 95
6, 217920, Note_off_c, 2, 30, 31
6, 217920, Note_off_c, 2, 42, 95
6, 217920, Note_on_c, 2, 30, 31
6, 217920, Note_on_c, 2, 42, 95
6, 218880, Note_off_c, 2, 30, 31
6, 218880, Note_off_c, 2, 42, 95
6, 218880, Note_on_c, 2, 25, 31
6, 218880, Note_on_c, 2, 37, 95
6, 219600, Note_off_c, 2, 25, 31
6, 219600, Note_off_c, 2, 37, 95
6, 219600, Note_on_c, 2, 25, 31
6, 219600, Note_on_c, 2, 37, 95
6, 219840, Note_off_c, 2, 25, 31
6, 219840, Note_off_c, 2, 37, 95
6, 219840, Note_on_c, 2, 25, 31
6, 219840, Note_on_c, 2, 37, 95
6, 220800, Note_off_c, 2, 25, 31
6, 220800, Note_off_c, 2, 37, 95
6, 220800, Note_on_c, 2, 23, 31
6, 220800, Note_on_c, 2, 35, 95
6, 221520, Note_off_c, 2, 23, 31
6, 221520, Note_off_c, 2, 35, 95
6, 221520, Note_on_c, 2, 23, 31
6, 221520, Note_on_c, 2, 35, 95
6, 221760, Note_off_c, 2, 23, 31
6, 221760, Note_off_c, 2, 35, 95
6, 221760, Note_on_c, 2, 23, 31
6, 221760, Note_on_c, 2, 35, 95
6, 222720, Note_off_c, 2, 23, 31
6, 222720, Note_off_c, 2, 35, 95
6, 222720, Note_on_c, 2, 30, 31
6, 222720, Note_on_c, 2, 42, 95
6, 223440, Note_off_c, 2, 30, 31
6, 223440, Note_off_c, 2, 42, 95
6, 223440, Note_on_c, 2, 30, 31
6, 223440, Note_on_c, 2, 42, 95
6, 223680, Note_off_c, 2, 30, 31
6, 223680, Note_off_c, 2, 42, 95
6, 223680, Note_on_c, 2, 30, 31
6, 223680, Note_on_c, 2, 42, 95
6, 224640, Note_off_c, 2, 30, 31
6, 224640, Note_off_c, 2, 42, 95
6, 224640, Note_on_c, 2, 30, 31
6, 224640, Note_on_c, 2, 42, 95
6, 225360, Note_off_c, 2, 30, 31
6, 225360, Note_off_c, 2, 42, 95
6, 225360, Note_on_c, 2, 30, 31
6, 225360, Note_on_c, 2, 42, 95
6, 225600, Note_off_c, 2, 30, 31
6, 225600, Note_off_c, 2, 42, 95
6, 225600, Note_on_c, 2, 30, 31
6, 225600, Note_on_c, 2, 42, 95
6, 226560, Note_off_c, 2, 30, 31
6, 226560, Note_off_c, 2, 42, 95
6, 228480, Note_on_c, 2, 30, 31
6, 228480, Note_on_c, 2, 42, 95
6, 229440, Note_off_c, 2, 30, 31
6, 229440, Note_off_c, 2, 42, 95
6, 229440, Note_on_c, 2, 30, 31
6, 229440, Note_on_c, 2, 42, 95
6, 230400, Note_off_c, 2, 30, 31
6, 230400, Note_off_c, 2, 42, 95
6, 230400, Note_on_c, 2, 30, 31
6, 230400, Note_on_c, 2, 42, 95
6, 231360, Note_off_c, 2, 30, 31
6, 231360, Note_off_c, 2, 42, 95
6, 231360, Note_on_c, 2, 30, 31
6, 231360, Note_on_c, 2, 42, 95
6, 232320, Note_off_c, 2, 30, 31
6, 232320, Note_off_c, 2, 42, 95
6, 232320, Note_on_c, 2, 30, 31
6, 232320, Note_on_c, 2, 42, 95
6, 233280, Note_off_c, 2, 30, 31
6, 233280, Note_off_c, 2, 42, 95
6, 233280, Note_on_c, 2, 30, 31
6, 233280, Note_on_c, 2, 42, 95
6, 234240, Note_off_c, 2, 30, 31
6, 234240, Note_off_c, 2, 42, 95
6, 234240, Note_on_c, 2, 30, 31
6, 234240, Note_on_c, 2, 42, 95
6, 235200, Note_off_c, 2, 30, 31
6, 235200, Note_off_c, 2, 42, 95
6, 235200, Note_on_c, 2, 30, 31
6, 235200, Note_on_c, 2, 42, 95
6, 236160, Note_off_c, 2, 30, 31
6, 236160, Note_off_c, 2, 42, 95
6, 236160, Note_on_c, 2, 30, 31
6, 236160, Note_on_c, 2, 42, 95
6, 236880, Note_off_c, 2, 30, 31
6, 236880, Note_off_c, 2, 42, 95
6, 236880, Note_on_c, 2, 30, 31
6, 236880, Note_on_c, 2, 42, 95
6, 237120, Note_off_c, 2, 30, 31
6, 237120, Note_off_c, 2, 42, 95
6, 237120, Note_on_c, 2, 30, 31
6, 237120, Note_on_c, 2, 42, 95
6, 238080, Note_off_c, 2, 30, 31
6, 238080, Note_off_c, 2, 42, 95
6, 238080, Note_on_c, 2, 25, 31
6, 238080, Note_on_c, 2, 37, 95
6, 238800, Note_off_c, 2, 25, 31
6, 238800, Note_off_c, 2, 37, 95
6, 238800, Note_on_c, 2, 25, 31
6, 238800, Note_on_c, 2, 37, 95
6, 239040, Note_off_c, 2, 25, 31
6, 239040, Note_off_c, 2, 37, 95
6, 239040, Note_on_c, 2, 25, 31
6, 239040, Note_on_c, 2, 37, 95
6, 240000, Note_off_c, 2, 25, 31
6, 240000, Note_off_c, 2, 37, 95
6, 240000, Note_on_c, 2, 30, 31
6, 240000, Note_on_c, 2, 42, 95
6, 240720, Note_off_c, 2, 30, 31
6, 240720, Note_off_c, 2, 42, 95
6, 240720, Note_on_c, 2, 30, 31
6, 240720, Note_on_c, 2, 42, 95
6, 240960, Note_off_c, 2, 30, 31
6, 240960, Note_off_c, 2, 42, 95
6, 240960, Note_on_c, 2, 30, 31
6, 240960, Note_on_c, 2, 42, 95
6, 241920, Note_off_c, 2, 30, 31
6, 241920, Note_off_c, 2, 42, 95
6, 241920, Note_on_c, 2, 30, 31
6, 241920, Note_on_c, 2, 42, 95
6, 242640, Note_off_c, 2, 30, 31
6, 242640, Note_off_c, 2, 42, 95
6, 242640, Note_on_c, 2, 30, 31
6, 242640, Note_on_c, 2, 42, 95
6, 242880, Note_off_c, 2, 30, 31
6, 242880, Note_off_c, 2, 42, 95
6, 242880, Note_on_c, 2, 30, 31
6, 242880, Note_on_c, 2, 42, 95
6, 243120, Note_off_c, 2, 30, 31
6, 243120, Note_off_c, 2, 42, 95
6, 243120, Note_on_c, 2, 30, 31
6, 243120, Note_on_c, 2, 42, 95
6, 243600, Note_off_c, 2, 30, 31
6, 243600, Note_off_c, 2, 42, 95
6, 243600, Note_on_c, 2, 30, 31
6, 243600, Note_on_c, 2, 42, 95
6, 243840, Note_off_c, 2, 30, 31
6, 243840, Note_off_c, 2, 42, 95
6, 243840, Note_on_c, 2, 30, 31
6, 243840, Note_on_c, 2, 42, 95
6, 244800, Note_off_c, 2, 30, 31
6, 244800, Note_off_c, 2, 42, 95
6, 244800, Note_on_c, 2, 30, 31
6, 244800, Note_on_c, 2, 42, 95
6, 245760, Note_off_c, 2, 30, 31
6, 245760, Note_off_c, 2, 42, 95
6, 245760, Note_on_c, 2, 30, 31
6, 245760, Note_on_c, 2, 42, 95
6, 246720, Note_off_c, 2, 30, 31
6, 246720, Note_off_c, 2, 42, 95
6, 246720, Note_on_c, 2, 30, 31
6, 246720, Note_on_c, 2, 42, 95
6, 247680, Note_off_c, 2, 30, 31
6, 247680, Note_off_c, 2, 42, 95
6, 247680, Note_on_c, 2, 30, 31
6, 247680, Note_on_c, 2, 42, 95
6, 248640, Note_off_c, 2, 30, 31
6, 248640, Note_off_c, 2, 42, 95
6, 248640, Note_on_c, 2, 30, 31
6, 248640, Note_on_c, 2, 42, 95
6, 249600, Note_off_c, 2, 30, 31
6, 249600, Note_off_c, 2, 42, 95
6, 249600, Note_on_c, 2, 30, 31
6, 249600, Note_on_c, 2, 42, 95
6, 250560, Note_off_c, 2, 30, 31
6, 250560, Note_off_c, 2, 42, 95
6, 250560, Note_on_c, 2, 30, 31
6, 250560, Note_on_c, 2, 42, 95
6, 251520, Note_off_c, 2, 30, 31
6, 251520, Note_off_c, 2, 42, 95
6, 251520, Note_on_c, 2, 30, 31
6, 251520, Note_on_c, 2, 42, 95
6, 252240, Note_off_c, 2, 30, 31
6, 252240, Note_off_c, 2, 42, 95
6, 252240, Note_on_c, 2, 30, 31
6, 252240, Note_on_c, 2, 42, 95
6, 252480, Note_off_c, 2, 30, 31
6, 252480, Note_off_c, 2, 42, 95
6, 252480, Note_on_c, 2, 30, 31
6, 252480, Note_on_c, 2, 42, 95
6, 253440, Note_off_c, 2, 30, 31
6, 253440, Note_off_c, 2, 42, 95
6, 253440, Note_on_c, 2, 25, 31
6, 253440, Note_on_c, 2, 37, 95
6, 254160, Note_off_c, 2, 25, 31
6, 254160, Note_off_c, 2, 37, 95
6, 254160, Note_on_c, 2, 25, 31
6, 254160, Note_on_c, 2, 37, 95
6, 254400, Note_off_c, 2, 25, 31
6, 254400, Note_off_c, 2, 37, 95
6, 254400, Note_on_c, 2, 25, 31
6, 254400, Note_on_c, 2, 37, 95
6, 255360, Note_off_c, 2, 25, 31
6, 255360, Note_off_c, 2, 37, 95
6, 255360, Note_on_c, 2, 30, 31
6, 255360, Note_on_c, 2, 42, 95
6, 256080, Note_off_c, 2, 30, 31
6, 256080, Note_off_c, 2, 42, 95
6, 256080, Note_on_c, 2, 30, 31
6, 256080, Note_on_c, 2, 42, 95
6, 256320, Note_off_c, 2, 30, 31
6, 256320, Note_off_c, 2, 42, 95
6, 256320, Note_on_c, 2, 30, 31
6, 256320, Note_on_c, 2, 42, 95
6, 257280, Note_off_c, 2, 30, 31
6, 257280, Note_off_c, 2, 42, 95
6, 257280, Note_on_c, 2, 30, 31
6, 257280, Note_on_c, 2, 42, 95
6, 258000, Note_off_c, 2, 30, 31
6, 258000, Note_off_c, 2, 42, 95
6, 258000, Note_on_c, 2, 30, 31
6, 258000, Note_on_c, 2, 42, 95
6, 258240, Note_off_c, 2, 30, 31
6, 258240, Note_off_c, 2, 42, 95
6, 258240, Note_on_c, 2, 30, 31
6, 258240, Note_on_c, 2, 42, 95
6, 258480, Note_off_c, 2, 30, 31
6, 258480, Note_off_c, 2, 42, 95
6, 258480, Note_on_c, 2, 30, 31
6, 258480, Note_on_c, 2, 42, 95
6, 258960, Note_off_c, 2, 30, 31
6, 258960, Note_off_c, 2, 42, 95
6, 258960, Note_on_c, 2, 30, 31
6, 258960, Note_on_c, 2, 42, 95
6, 259200, Note_off_c, 2, 30, 31
6, 259200, Note_off_c, 2, 42, 95
6, 259200, Note_on_c, 2, 30, 31
6, 259200, Note_on_c, 2, 42, 95
6, 260160, Note_off_c, 2, 30, 31
6, 260160, Note_off_c, 2, 42, 95
6, 260160, Note_on_c, 2, 30, 31
6, 260160, Note_on_c, 2, 42, 95
6, 261120, Note_off_c, 2, 30, 31
6, 261120, Note_off_c, 2, 42, 95
6, 261120, Note_on_c, 2, 30, 31
6, 261120, Note_on_c, 2, 42, 95
6, 262080, Note_off_c, 2, 30, 31
6, 262080, Note_off_c, 2, 42, 95
6, 262080, Note_on_c, 2, 30, 31
6, 262080, Note_on_c, 2, 42, 95
6, 263040, Note_off_c, 2, 30, 31
6, 263040, Note_off_c, 2, 42, 95
6, 263040, Note_on_c, 2, 30, 31
6, 263040, Note_on_c, 2, 42, 95
6, 264000, Note_off_c, 2, 30, 31
6, 264000, Note_off_c, 2, 42, 95
6, 264000, Note_on_c, 2, 30, 31
6, 264000, Note_on_c, 2, 42, 95
6, 264960, Note_off_c, 2, 30, 31
6, 264960, Note_off_c, 2, 42, 95
6, 264960, Note_on_c, 2, 30, 31
6, 264960, Note_on_c, 2, 42, 95
6, 265920, Note_off_c, 2, 30, 31
6, 265920, Note_off_c, 2, 42, 95
6, 265920, Note_on_c, 2, 30, 31
6, 265920, Note_on_c, 2, 42, 95
6, 266880, Note_off_c, 2, 30, 31
6, 266880, Note_off_c, 2, 42, 95
6, 266880, Note_on_c, 2, 30, 31
6, 266880, Note_on_c, 2, 42, 95
6, 267600, Note_off_c, 2, 30, 31
6, 267600, Note_off_c, 2, 42, 95
6, 267600, Note_on_c, 2, 30, 31
6, 267600, Note_on_c, 2, 42, 95
6, 267840, Note_off_c, 2, 30, 31
6, 267840, Note_off_c, 2, 42, 95
6, 267840, Note_on_c, 2, 30, 31
6, 267840, Note_on_c, 2, 42, 95
6, 268800, Note_off_c, 2, 30, 31
6, 268800, Note_off_c, 2, 42, 95
6, 268800, Note_on_c, 2, 25, 31
6, 268800, Note_on_c, 2, 37, 95
6, 269520, Note_off_c, 2, 25, 31
6, 269520, Note_off_c, 2, 37, 95
6, 269520, Note_on_c, 2, 25, 31
6, 269520, Note_on_c, 2, 37, 95
6, 269760, Note_off_c, 2, 25, 31
6, 269760, Note_off_c, 2, 37, 95
6, 269760, Note_on_c, 2, 25, 31
6, 269760, Note_on_c, 2, 37, 95
6, 270720, Note_off_c, 2, 25, 31
6, 270720, Note_off_c, 2, 37, 95
6, 270720, Note_on_c, 2, 30, 31
6, 270720, Note_on_c, 2, 42, 95
6, 271440, Note_off_c, 2, 30, 31
6, 271440, Note_off_c, 2, 42, 95
6, 271440, Note_on_c, 2, 30, 31
6, 271440, Note_on_c, 2, 42, 95
6, 271680, Note_off_c, 2, 30, 31
6, 271680, Note_off_c, 2, 42, 95
6, 271680, Note_on_c, 2, 30, 31
6, 271680, Note_on_c, 2, 42, 95
6, 272640, Note_off_c, 2, 30, 31
6, 272640, Note_off_c, 2, 42, 95
6, 272640, Note_on_c, 2, 30, 31
6, 272640, Note_on_c, 2, 42, 95
6, 273360, Note_off_c, 2, 30, 31
6, 273360, Note_off_c, 2, 42, 95
6, 273360, Note_on_c, 2, 30, 31
6, 273360, Note_on_c, 2, 42, 95
6, 273600, Note_off_c, 2, 30, 31
6, 273600, Note_off_c, 2, 42, 95
6, 273600, Note_on_c, 2, 30, 31
6, 273600, Note_on_c, 2, 42, 95
6, 273840, Note_off_c, 2, 30, 31
6, 273840, Note_off_c, 2, 42, 95
6, 273840, Note_on_c, 2, 30, 31
6, 273840, Note_on_c, 2, 42, 95
6, 274320, Note_off_c, 2, 30, 31
6, 274320, Note_off_c, 2, 42, 95
6, 274320, Note_on_c, 2, 30, 31
6, 274320, Note_on_c, 2, 42, 95
6, 274560, Note_off_c, 2, 30, 31
6, 274560, Note_off_c, 2, 42, 95
6, 274560, End_track
7, 0, Start_track
7, 0, Pitch_bend_c, 9, 8192
7, 0, Control_c, 9, 7, 63
7, 0, Control_c, 9, 10, 63
7, 0, Control_c, 9, 93, 0
7, 0, Control_c, 9, 91, 0
7, 0, Control_c, 9, 95, 0
7, 0, Control_c, 9, 92, 0
7, 0, Control_c, 9, 11, 127
7, 0, Program_c, 9, 0
7, 480, Note_on_c, 9, 44, 95
7, 960, Note_off_c, 9, 44, 95
7, 960, Note_on_c, 9, 44, 95
7, 960, Note_on_c, 9, 40, 95
7, 960, Note_on_c, 9, 36, 95
7, 1440, Note_off_c, 9, 44, 95
7, 1440, Note_off_c, 9, 40, 95
7, 1440, Note_off_c, 9, 36, 95
7, 1440, Note_on_c, 9, 44, 95
7, 1680, Note_off_c, 9, 44, 95
7, 1680, Note_on_c, 9, 44, 95
7, 1680, Note_on_c, 9, 36, 95
7, 1920, Note_off_c, 9, 44, 95
7, 1920, Note_off_c, 9, 36, 95
7, 1920, Note_on_c, 9, 44, 95
7, 2160, Note_off_c, 9, 44, 95
7, 2160, Note_on_c, 9, 44, 95
7, 2160, Note_on_c, 9, 36, 95
7, 2400, Note_off_c, 9, 44, 95
7, 2400, Note_off_c, 9, 36, 95
7, 2400, Note_on_c, 9, 44, 95
7, 2640, Note_off_c, 9, 44, 95
7, 2640, Note_on_c, 9, 44, 95
7, 2640, Note_on_c, 9, 36, 95
7, 2880, Note_off_c, 9, 44, 95
7, 2880, Note_off_c, 9, 36, 95
7, 2880, Note_on_c, 9, 44, 95
7, 2880, Note_on_c, 9, 40, 95
7, 3120, Note_off_c, 9, 44, 95
7, 3120, Note_off_c, 9, 40, 95
7, 3120, Note_on_c, 9, 44, 95
7, 3360, Note_off_c, 9, 44, 95
7, 3360, Note_on_c, 9, 44, 95
7, 3600, Note_off_c, 9, 44, 95
7, 3600, Note_on_c, 9, 44, 95
7, 3600, Note_on_c, 9, 36, 95
7, 3840, Note_off_c, 9, 44, 95
7, 3840, Note_off_c, 9, 36, 95
7, 3840, Note_on_c, 9, 44, 95
7, 3840, Note_on_c, 9, 36, 95
7, 4080, Note_off_c, 9, 44, 95
7, 4080, Note_off_c, 9, 36, 95
7, 4080, Note_on_c, 9, 44, 95
7, 4320, Note_off_c, 9, 44, 95
7, 4320, Note_on_c, 9, 44, 95
7, 4560, Note_off_c, 9, 44, 95
7, 4560, Note_on_c, 9, 44, 95
7, 4800, Note_off_c, 9, 44, 95
7, 4800, Note_on_c, 9, 44, 95
7, 4800, Note_on_c, 9, 40, 95
7, 5040, Note_off_c, 9, 44, 95
7, 5040, Note_off_c, 9, 40, 95
7, 5040, Note_on_c, 9, 44, 95
7, 5280, Note_off_c, 9, 44, 95
7, 5280, Note_on_c, 9, 44, 95
7, 5520, Note_off_c, 9, 44, 95
7, 5520, Note_on_c, 9, 44, 95
7, 5520, Note_on_c, 9, 36, 95
7, 5760, Note_off_c, 9, 44, 95
7, 5760, Note_off_c, 9, 36, 95
7, 5760, Note_on_c, 9, 44, 95
7, 6000, Note_off_c, 9, 44, 95
7, 6000, Note_on_c, 9, 44, 95
7, 6000, Note_on_c, 9, 36, 95
7, 6240, Note_off_c, 9, 44, 95
7, 6240, Note_off_c, 9, 36, 95
7, 6240, Note_on_c, 9, 44, 95
7, 6480, Note_off_c, 9, 44, 95
7, 6480, Note_on_c, 9, 44, 95
7, 6480, Note_on_c, 9, 36, 95
7, 6720, Note_off_c, 9, 44, 95
7, 6720, Note_off_c, 9, 36, 95
7, 6720, Note_on_c, 9, 44, 95
7, 6720, Note_on_c, 9, 40, 95
7, 6960, Note_off_c, 9, 44, 95
7, 6960, Note_off_c, 9, 40, 95
7, 6960, Note_on_c, 9, 44, 95
7, 7200, Note_off_c, 9, 44, 95
7, 7200, Note_on_c, 9, 44, 95
7, 7440, Note_off_c, 9, 44, 95
7, 7440, Note_on_c, 9, 44, 95
7, 7440, Note_on_c, 9, 36, 95
7, 7680, Note_off_c, 9, 44, 95
7, 7680, Note_off_c, 9, 36, 95
7, 7680, Note_on_c, 9, 44, 95
7, 7680, Note_on_c, 9, 36, 95
7, 7920, Note_off_c, 9, 44, 95
7, 7920, Note_off_c, 9, 36, 95
7, 7920, Note_on_c, 9, 44, 95
7, 8160, Note_off_c, 9, 44, 95
7, 8160, Note_on_c, 9, 44, 95
7, 8400, Note_off_c, 9, 44, 95
7, 8400, Note_on_c, 9, 44, 95
7, 8640, Note_off_c, 9, 44, 95
7, 8640, Note_on_c, 9, 44, 95
7, 8640, Note_on_c, 9, 40, 95
7, 8880, Note_off_c, 9, 44, 95
7, 8880, Note_off_c, 9, 40, 95
7, 8880, Note_on_c, 9, 44, 95
7, 9120, Note_off_c, 9, 44, 95
7, 9120, Note_on_c, 9, 44, 95
7, 9360, Note_off_c, 9, 44, 95
7, 9360, Note_on_c, 9, 44, 95
7, 9360, Note_on_c, 9, 36, 95
7, 9600, Note_off_c, 9, 44, 95
7, 9600, Note_off_c, 9, 36, 95
7, 9600, Note_on_c, 9, 44, 95
7, 9840, Note_off_c, 9, 44, 95
7, 9840, Note_on_c, 9, 44, 95
7, 9840, Note_on_c, 9, 36, 95
7, 10080, Note_off_c, 9, 44, 95
7, 10080, Note_off_c, 9, 36, 95
7, 10080, Note_on_c, 9, 44, 95
7, 10320, Note_off_c, 9, 44, 95
7, 10320, Note_on_c, 9, 44, 95
7, 10320, Note_on_c, 9, 36, 95
7, 10560, Note_off_c, 9, 44, 95
7, 10560, Note_off_c, 9, 36, 95
7, 10560, Note_on_c, 9, 44, 95
7, 10560, Note_on_c, 9, 40, 95
7, 10800, Note_off_c, 9, 44, 95
7, 10800, Note_off_c, 9, 40, 95
7, 10800, Note_on_c, 9, 44, 95
7, 11040, Note_off_c, 9, 44, 95
7, 11040, Note_on_c, 9, 44, 95
7, 11280, Note_off_c, 9, 44, 95
7, 11280, Note_on_c, 9, 44, 95
7, 11280, Note_on_c, 9, 36, 95
7, 11520, Note_off_c, 9, 44, 95
7, 11520, Note_off_c, 9, 36, 95
7, 11520, Note_on_c, 9, 44, 95
7, 11520, Note_on_c, 9, 36, 95
7, 11760, Note_off_c, 9, 44, 95
7, 11760, Note_off_c, 9, 36, 95
7, 11760, Note_on_c, 9, 44, 95
7, 12000, Note_off_c, 9, 44, 95
7, 12000, Note_on_c, 9, 44, 95
7, 12240, Note_off_c, 9, 44, 95
7, 12240, Note_on_c, 9, 44, 95
7, 12480, Note_off_c, 9, 44, 95
7, 12480, Note_on_c, 9, 44, 95
7, 12480, Note_on_c, 9, 40, 95
7, 12720, Note_off_c, 9, 44, 95
7, 12720, Note_off_c, 9, 40, 95
7, 12720, Note_on_c, 9, 44, 95
7, 12960, Note_off_c, 9, 44, 95
7, 12960, Note_on_c, 9, 44, 95
7, 13200, Note_off_c, 9, 44, 95
7, 13200, Note_on_c, 9, 44, 95
7, 13200, Note_on_c, 9, 36, 95
7, 13440, Note_off_c, 9, 44, 95
7, 13440, Note_off_c, 9, 36, 95
7, 13440, Note_on_c, 9, 44, 95
7, 13440, Note_on_c, 9, 36, 95
7, 13680, Note_off_c, 9, 44, 95
7, 13680, Note_off_c, 9, 36, 95
7, 13680, Note_on_c, 9, 44, 95
7, 13920, Note_off_c, 9, 44, 95
7, 13920, Note_on_c, 9, 44, 95
7, 14160, Note_off_c, 9, 44, 95
7, 14160, Note_on_c, 9, 44, 95
7, 14400, Note_off_c, 9, 44, 95
7, 14400, Note_on_c, 9, 44, 95
7, 14400, Note_on_c, 9, 40, 95
7, 14640, Note_off_c, 9, 44, 95
7, 14640, Note_off_c, 9, 40, 95
7, 14640, Note_on_c, 9, 44, 95
7, 14880, Note_off_c, 9, 44, 95
7, 14880, Note_on_c, 9, 44, 95
7, 15120, Note_off_c, 9, 44, 95
7, 15120, Note_on_c, 9, 44, 95
7, 15120, Note_on_c, 9, 36, 95
7, 15360, Note_off_c, 9, 44, 95
7, 15360, Note_off_c, 9, 36, 95
7, 15360, Note_on_c, 9, 44, 95
7, 15600, Note_off_c, 9, 44, 95
7, 15600, Note_on_c, 9, 44, 95
7, 15600, Note_on_c, 9, 36, 95
7, 15840, Note_off_c, 9, 44, 95
7, 15840, Note_off_c, 9, 36, 95
7, 15840, Note_on_c, 9, 44, 95
7, 16080, Note_off_c, 9, 44, 95
7, 16080, Note_on_c, 9, 44, 95
7, 16080, Note_on_c, 9, 36, 95
7, 16320, Note_off_c, 9, 44, 95
7, 16320, Note_off_c, 9, 36, 95
7, 16320, Note_on_c, 9, 44, 95
7, 16320, Note_on_c, 9, 40, 95
7, 16560, Note_off_c, 9, 44, 95
7, 16560, Note_off_c, 9, 40, 95
7, 16560, Note_on_c, 9, 44, 95
7, 16800, Note_off_c, 9, 44, 95
7, 16800, Note_on_c, 9, 44, 95
7, 17040, Note_off_c, 9, 44, 95
7, 17040, Note_on_c, 9, 44, 95
7, 17040, Note_on_c, 9, 36, 95
7, 17280, Note_off_c, 9, 44, 95
7, 17280, Note_off_c, 9, 36, 95
7, 17280, Note_on_c, 9, 49, 95
7, 17280, Note_on_c, 9, 36, 95
7, 17760, Note_off_c, 9, 49, 95
7, 17760, Note_off_c, 9, 36, 95
7, 17760, Note_on_c, 9, 44, 95
7, 18000, Note_off_c, 9, 44, 95
7, 18000, Note_on_c, 9, 44, 95
7, 18240, Note_off_c, 9, 44, 95
7, 18240, Note_on_c, 9, 44, 95
7, 18240, Note_on_c, 9, 40, 95
7, 18480, Note_off_c, 9, 44, 95
7, 18480, Note_off_c, 9, 40, 95
7, 18480, Note_on_c, 9, 44, 95
7, 18720, Note_off_c, 9, 44, 95
7, 18720, Note_on_c, 9, 44, 95
7, 18960, Note_off_c, 9, 44, 95
7, 18960, Note_on_c, 9, 44, 95
7, 18960, Note_on_c, 9, 36, 95
7, 19200, Note_off_c, 9, 44, 95
7, 19200, Note_off_c, 9, 36, 95
7, 19200, Note_on_c, 9, 44, 95
7, 19440, Note_off_c, 9, 44, 95
7, 19440, Note_on_c, 9, 44, 95
7, 19440, Note_on_c, 9, 36, 95
7, 19680, Note_off_c, 9, 44, 95
7, 19680, Note_off_c, 9, 36, 95
7, 19680, Note_on_c, 9, 44, 95
7, 19920, Note_off_c, 9, 44, 95
7, 19920, Note_on_c, 9, 44, 95
7, 19920, Note_on_c, 9, 36, 95
7, 20160, Note_off_c, 9, 44, 95
7, 20160, Note_off_c, 9, 36, 95
7, 20160, Note_on_c, 9, 44, 95
7, 20160, Note_on_c, 9, 40, 95
7, 20400, Note_off_c, 9, 44, 95
7, 20400, Note_off_c, 9, 40, 95
7, 20400, Note_on_c, 9, 44, 95
7, 20640, Note_off_c, 9, 44, 95
7, 20640, Note_on_c, 9, 44, 95
7, 20880, Note_off_c, 9, 44, 95
7, 20880, Note_on_c, 9, 44, 95
7, 20880, Note_on_c, 9, 36, 95
7, 21120, Note_off_c, 9, 44, 95
7, 21120, Note_off_c, 9, 36, 95
7, 21120, Note_on_c, 9, 44, 95
7, 21120, Note_on_c, 9, 36, 95
7, 21360, Note_off_c, 9, 44, 95
7, 21360, Note_off_c, 9, 36, 95
7, 21360, Note_on_c, 9, 44, 95
7, 21600, Note_off_c, 9, 44, 95
7, 21600, Note_on_c, 9, 44, 95
7, 21840, Note_off_c, 9, 44, 95
7, 21840, Note_on_c, 9, 44, 95
7, 22080, Note_off_c, 9, 44, 95
7, 22080, Note_on_c, 9, 44, 95
7, 22080, Note_on_c, 9, 40, 95
7, 22320, Note_off_c, 9, 44, 95
7, 22320, Note_off_c, 9, 40, 95
7, 22320, Note_on_c, 9, 44, 95
7, 22560, Note_off_c, 9, 44, 95
7, 22560, Note_on_c, 9, 44, 95
7, 22800, Note_off_c, 9, 44, 95
7, 22800, Note_on_c, 9, 44, 95
7, 22800, Note_on_c, 9, 36, 95
7, 23040, Note_off_c, 9, 44, 95
7, 23040, Note_off_c, 9, 36, 95
7, 23040, Note_on_c, 9, 44, 95
7, 23280, Note_off_c, 9, 44, 95
7, 23280, Note_on_c, 9, 44, 95
7, 23280, Note_on_c, 9, 36, 95
7, 23520, Note_off_c, 9, 44, 95
7, 23520, Note_off_c, 9, 36, 95
7, 23520, Note_on_c, 9, 44, 95
7, 23760, Note_off_c, 9, 44, 95
7, 23760, Note_on_c, 9, 44, 95
7, 23760, Note_on_c, 9, 36, 95
7, 24000, Note_off_c, 9, 44, 95
7, 24000, Note_off_c, 9, 36, 95
7, 24000, Note_on_c, 9, 44, 95
7, 24000, Note_on_c, 9, 40, 95
7, 24240, Note_off_c, 9, 44, 95
7, 24240, Note_off_c, 9, 40, 95
7, 24240, Note_on_c, 9, 44, 95
7, 24480, Note_off_c, 9, 44, 95
7, 24480, Note_on_c, 9, 44, 95
7, 24720, Note_off_c, 9, 44, 95
7, 24720, Note_on_c, 9, 44, 95
7, 24720, Note_on_c, 9, 36, 95
7, 24960, Note_off_c, 9, 44, 95
7, 24960, Note_off_c, 9, 36, 95
7, 24960, Note_on_c, 9, 44, 95
7, 24960, Note_on_c, 9, 36, 95
7, 25200, Note_off_c, 9, 44, 95
7, 25200, Note_off_c, 9, 36, 95
7, 25200, Note_on_c, 9, 44, 95
7, 25440, Note_off_c, 9, 44, 95
7, 25440, Note_on_c, 9, 44, 95
7, 25680, Note_off_c, 9, 44, 95
7, 25680, Note_on_c, 9, 44, 95
7, 25920, Note_off_c, 9, 44, 95
7, 25920, Note_on_c, 9, 44, 95
7, 25920, Note_on_c, 9, 40, 95
7, 26160, Note_off_c, 9, 44, 95
7, 26160, Note_off_c, 9, 40, 95
7, 26160, Note_on_c, 9, 44, 95
7, 26400, Note_off_c, 9, 44, 95
7, 26400, Note_on_c, 9, 44, 95
7, 26640, Note_off_c, 9, 44, 95
7, 26640, Note_on_c, 9, 44, 95
7, 26640, Note_on_c, 9, 36, 95
7, 26880, Note_off_c, 9, 44, 95
7, 26880, Note_off_c, 9, 36, 95
7, 26880, Note_on_c, 9, 44, 95
7, 27120, Note_off_c, 9, 44, 95
7, 27120, Note_on_c, 9, 44, 95
7, 27120, Note_on_c, 9, 36, 95
7, 27360, Note_off_c, 9, 44, 95
7, 27360, Note_off_c, 9, 36, 95
7, 27360, Note_on_c, 9, 44, 95
7, 27600, Note_off_c, 9, 44, 95
7, 27600, Note_on_c, 9, 44, 95
7, 27600, Note_on_c, 9, 36, 95
7, 27840, Note_off_c, 9, 44, 95
7, 27840, Note_off_c, 9, 36, 95
7, 27840, Note_on_c, 9, 44, 95
7, 27840, Note_on_c, 9, 40, 95
7, 28080, Note_off_c, 9, 44, 95
7, 28080, Note_off_c, 9, 40, 95
7, 28080, Note_on_c, 9, 44, 95
7, 28320, Note_off_c, 9, 44, 95
7, 28320, Note_on_c, 9, 44, 95
7, 28560, Note_off_c, 9, 44, 95
7, 28560, Note_on_c, 9, 44, 95
7, 28560, Note_on_c, 9, 36, 95
7, 28800, Note_off_c, 9, 44, 95
7, 28800, Note_off_c, 9, 36, 95
7, 28800, Note_on_c, 9, 44, 95
7, 28800, Note_on_c, 9, 36, 95
7, 29040, Note_off_c, 9, 44, 95
7, 29040, Note_off_c, 9, 36, 95
7, 29040, Note_on_c, 9, 44, 95
7, 29280, Note_off_c, 9, 44, 95
7, 29280, Note_on_c, 9, 44, 95
7, 29520, Note_off_c, 9, 44, 95
7, 29520, Note_on_c, 9, 44, 95
7, 29760, Note_off_c, 9, 44, 95
7, 29760, Note_on_c, 9, 44, 95
7, 29760, Note_on_c, 9, 40, 95
7, 30000, Note_off_c, 9, 44, 95
7, 30000, Note_off_c, 9, 40, 95
7, 30000, Note_on_c, 9, 44, 95
7, 30240, Note_off_c, 9, 44, 95
7, 30240, Note_on_c, 9, 44, 95
7, 30480, Note_off_c, 9, 44, 95
7, 30480, Note_on_c, 9, 44, 95
7, 30480, Note_on_c, 9, 36, 95
7, 30720, Note_off_c, 9, 44, 95
7, 30720, Note_off_c, 9, 36, 95
7, 30720, Note_on_c, 9, 44, 95
7, 30720, Note_on_c, 9, 36, 95
7, 30960, Note_off_c, 9, 44, 95
7, 30960, Note_off_c, 9, 36, 95
7, 30960, Note_on_c, 9, 44, 95
7, 31200, Note_off_c, 9, 44, 95
7, 31200, Note_on_c, 9, 44, 95
7, 31440, Note_off_c, 9, 44, 95
7, 31440, Note_on_c, 9, 44, 95
7, 31680, Note_off_c, 9, 44, 95
7, 31680, Note_on_c, 9, 44, 95
7, 31680, Note_on_c, 9, 40, 95
7, 31920, Note_off_c, 9, 44, 95
7, 31920, Note_off_c, 9, 40, 95
7, 31920, Note_on_c, 9, 44, 95
7, 32160, Note_off_c, 9, 44, 95
7, 32160, Note_on_c, 9, 44, 95
7, 32400, Note_off_c, 9, 44, 95
7, 32400, Note_on_c, 9, 44, 95
7, 32400, Note_on_c, 9, 36, 95
7, 32640, Note_off_c, 9, 44, 95
7, 32640, Note_off_c, 9, 36, 95
7, 32640, Note_on_c, 9, 44, 95
7, 32880, Note_off_c, 9, 44, 95
7, 32880, Note_on_c, 9, 44, 95
7, 32880, Note_on_c, 9, 36, 95
7, 33120, Note_off_c, 9, 44, 95
7, 33120, Note_off_c, 9, 36, 95
7, 33120, Note_on_c, 9, 44, 95
7, 33360, Note_off_c, 9, 44, 95
7, 33360, Note_on_c, 9, 44, 95
7, 33360, Note_on_c, 9, 36, 95
7, 33600, Note_off_c, 9, 44, 95
7, 33600, Note_off_c, 9, 36, 95
7, 33600, Note_on_c, 9, 44, 95
7, 33600, Note_on_c, 9, 40, 95
7, 33840, Note_off_c, 9, 44, 95
7, 33840, Note_off_c, 9, 40, 95
7, 33840, Note_on_c, 9, 44, 95
7, 34080, Note_off_c, 9, 44, 95
7, 34080, Note_on_c, 9, 44, 95
7, 34320, Note_off_c, 9, 44, 95
7, 34320, Note_on_c, 9, 44, 95
7, 34320, Note_on_c, 9, 36, 95
7, 34560, Note_off_c, 9, 44, 95
7, 34560, Note_off_c, 9, 36, 95
7, 34560, Note_on_c, 9, 49, 95
7, 34560, Note_on_c, 9, 36, 95
7, 35040, Note_off_c, 9, 49, 95
7, 35040, Note_off_c, 9, 36, 95
7, 35040, Note_on_c, 9, 44, 95
7, 35280, Note_off_c, 9, 44, 95
7, 35280, Note_on_c, 9, 44, 95
7, 35520, Note_off_c, 9, 44, 95
7, 35520, Note_on_c, 9, 44, 95
7, 35520, Note_on_c, 9, 40, 95
7, 35760, Note_off_c, 9, 44, 95
7, 35760, Note_off_c, 9, 40, 95
7, 35760, Note_on_c, 9, 44, 95
7, 36000, Note_off_c, 9, 44, 95
7, 36000, Note_on_c, 9, 44, 95
7, 36240, Note_off_c, 9, 44, 95
7, 36240, Note_on_c, 9, 44, 95
7, 36240, Note_on_c, 9, 36, 95
7, 36480, Note_off_c, 9, 44, 95
7, 36480, Note_off_c, 9, 36, 95
7, 36480, Note_on_c, 9, 44, 95
7, 36720, Note_off_c, 9, 44, 95
7, 36720, Note_on_c, 9, 44, 95
7, 36720, Note_on_c, 9, 36, 95
7, 36960, Note_off_c, 9, 44, 95
7, 36960, Note_off_c, 9, 36, 95
7, 36960, Note_on_c, 9, 44, 95
7, 37200, Note_off_c, 9, 44, 95
7, 37200, Note_on_c, 9, 44, 95
7, 37200, Note_on_c, 9, 36, 95
7, 37440, Note_off_c, 9, 44, 95
7, 37440, Note_off_c, 9, 36, 95
7, 37440, Note_on_c, 9, 44, 95
7, 37440, Note_on_c, 9, 40, 95
7, 37680, Note_off_c, 9, 44, 95
7, 37680, Note_off_c, 9, 40, 95
7, 37680, Note_on_c, 9, 44, 95
7, 37920, Note_off_c, 9, 44, 95
7, 37920, Note_on_c, 9, 44, 95
7, 38160, Note_off_c, 9, 44, 95
7, 38160, Note_on_c, 9, 44, 95
7, 38160, Note_on_c, 9, 36, 95
7, 38400, Note_off_c, 9, 44, 95
7, 38400, Note_off_c, 9, 36, 95
7, 38400, Note_on_c, 9, 44, 95
7, 38400, Note_on_c, 9, 36, 95
7, 38640, Note_off_c, 9, 44, 95
7, 38640, Note_off_c, 9, 36, 95
7, 38640, Note_on_c, 9, 44, 95
7, 38880, Note_off_c, 9, 44, 95
7, 38880, Note_on_c, 9, 44, 95
7, 39120, Note_off_c, 9, 44, 95
7, 39120, Note_on_c, 9, 44, 95
7, 39360, Note_off_c, 9, 44, 95
7, 39360, Note_on_c, 9, 44, 95
7, 39360, Note_on_c, 9, 40, 95
7, 39600, Note_off_c, 9, 44, 95
7, 39600, Note_off_c, 9, 40, 95
7, 39600, Note_on_c, 9, 44, 95
7, 39840, Note_off_c, 9, 44, 95
7, 39840, Note_on_c, 9, 44, 95
7, 40080, Note_off_c, 9, 44, 95
7, 40080, Note_on_c, 9, 44, 95
7, 40080, Note_on_c, 9, 36, 95
7, 40320, Note_off_c, 9, 44, 95
7, 40320, Note_off_c, 9, 36, 95
7, 40320, Note_on_c, 9, 44, 95
7, 40560, Note_off_c, 9, 44, 95
7, 40560, Note_on_c, 9, 44, 95
7, 40560, Note_on_c, 9, 36, 95
7, 40800, Note_off_c, 9, 44, 95
7, 40800, Note_off_c, 9, 36, 95
7, 40800, Note_on_c, 9, 44, 95
7, 41040, Note_off_c, 9, 44, 95
7, 41040, Note_on_c, 9, 44, 95
7, 41040, Note_on_c, 9, 36, 95
7, 41280, Note_off_c, 9, 44, 95
7, 41280, Note_off_c, 9, 36, 95
7, 41280, Note_on_c, 9, 44, 95
7, 41280, Note_on_c, 9, 40, 95
7, 41520, Note_off_c, 9, 44, 95
7, 41520, Note_off_c, 9, 40, 95
7, 41520, Note_on_c, 9, 44, 95
7, 41760, Note_off_c, 9, 44, 95
7, 41760, Note_on_c, 9, 44, 95
7, 42000, Note_off_c, 9, 44, 95
7, 42000, Note_on_c, 9, 44, 95
7, 42000, Note_on_c, 9, 36, 95
7, 42240, Note_off_c, 9, 44, 95
7, 42240, Note_off_c, 9, 36, 95
7, 42240, Note_on_c, 9, 44, 95
7, 42240, Note_on_c, 9, 36, 95
7, 42480, Note_off_c, 9, 44, 95
7, 42480, Note_off_c, 9, 36, 95
7, 42480, Note_on_c, 9, 44, 95
7, 42720, Note_off_c, 9, 44, 95
7, 42720, Note_on_c, 9, 44, 95
7, 42960, Note_off_c, 9, 44, 95
7, 42960, Note_on_c, 9, 44, 95
7, 43200, Note_off_c, 9, 44, 95
7, 43200, Note_on_c, 9, 44, 95
7, 43200, Note_on_c, 9, 40, 95
7, 43440, Note_off_c, 9, 44, 95
7, 43440, Note_off_c, 9, 40, 95
7, 43440, Note_on_c, 9, 44, 95
7, 43680, Note_off_c, 9, 44, 95
7, 43680, Note_on_c, 9, 44, 95
7, 43920, Note_off_c, 9, 44, 95
7, 43920, Note_on_c, 9, 44, 95
7, 43920, Note_on_c, 9, 36, 95
7, 44160, Note_off_c, 9, 44, 95
7, 44160, Note_off_c, 9, 36, 95
7, 44160, Note_on_c, 9, 44, 95
7, 44400, Note_off_c, 9, 44, 95
7, 44400, Note_on_c, 9, 44, 95
7, 44400, Note_on_c, 9, 36, 95
7, 44640, Note_off_c, 9, 44, 95
7, 44640, Note_off_c, 9, 36, 95
7, 44640, Note_on_c, 9, 44, 95
7, 44880, Note_off_c, 9, 44, 95
7, 44880, Note_on_c, 9, 44, 95
7, 44880, Note_on_c, 9, 36, 95
7, 45120, Note_off_c, 9, 44, 95
7, 45120, Note_off_c, 9, 36, 95
7, 45120, Note_on_c, 9, 44, 95
7, 45120, Note_on_c, 9, 40, 95
7, 45360, Note_off_c, 9, 44, 95
7, 45360, Note_off_c, 9, 40, 95
7, 45360, Note_on_c, 9, 44, 95
7, 45600, Note_off_c, 9, 44, 95
7, 45600, Note_on_c, 9, 44, 95
7, 45840, Note_off_c, 9, 44, 95
7, 45840, Note_on_c, 9, 44, 95
7, 45840, Note_on_c, 9, 36, 95
7, 46080, Note_off_c, 9, 44, 95
7, 46080, Note_off_c, 9, 36, 95
7, 46080, Note_on_c, 9, 44, 95
7, 46080, Note_on_c, 9, 36, 95
7, 46320, Note_off_c, 9, 44, 95
7, 46320, Note_off_c, 9, 36, 95
7, 46320, Note_on_c, 9, 44, 95
7, 46560, Note_off_c, 9, 44, 95
7, 46560, Note_on_c, 9, 44, 95
7, 46800, Note_off_c, 9, 44, 95
7, 46800, Note_on_c, 9, 44, 95
7, 47040, Note_off_c, 9, 44, 95
7, 47040, Note_on_c, 9, 44, 95
7, 47040, Note_on_c, 9, 40, 95
7, 47280, Note_off_c, 9, 44, 95
7, 47280, Note_off_c, 9, 40, 95
7, 47280, Note_on_c, 9, 44, 95
7, 47520, Note_off_c, 9, 44, 95
7, 47520, Note_on_c, 9, 44, 95
7, 47760, Note_off_c, 9, 44, 95
7, 47760, Note_on_c, 9, 44, 95
7, 47760, Note_on_c, 9, 36, 95
7, 48000, Note_off_c, 9, 44, 95
7, 48000, Note_off_c, 9, 36, 95
7, 48000, Note_on_c, 9, 44, 95
7, 48000, Note_on_c, 9, 36, 95
7, 48240, Note_off_c, 9, 44, 95
7, 48240, Note_off_c, 9, 36, 95
7, 48240, Note_on_c, 9, 44, 95
7, 48480, Note_off_c, 9, 44, 95
7, 48480, Note_on_c, 9, 44, 95
7, 48720, Note_off_c, 9, 44, 95
7, 48720, Note_on_c, 9, 44, 95
7, 48960, Note_off_c, 9, 44, 95
7, 48960, Note_on_c, 9, 44, 95
7, 48960, Note_on_c, 9, 40, 95
7, 49200, Note_off_c, 9, 44, 95
7, 49200, Note_off_c, 9, 40, 95
7, 49200, Note_on_c, 9, 44, 95
7, 49440, Note_off_c, 9, 44, 95
7, 49440, Note_on_c, 9, 44, 95
7, 49680, Note_off_c, 9, 44, 95
7, 49680, Note_on_c, 9, 44, 95
7, 49680, Note_on_c, 9, 36, 95
7, 49920, Note_off_c, 9, 44, 95
7, 49920, Note_off_c, 9, 36, 95
7, 49920, Note_on_c, 9, 44, 95
7, 50160, Note_off_c, 9, 44, 95
7, 50160, Note_on_c, 9, 44, 95
7, 50160, Note_on_c, 9, 36, 95
7, 50400, Note_off_c, 9, 44, 95
7, 50400, Note_off_c, 9, 36, 95
7, 50400, Note_on_c, 9, 44, 95
7, 50640, Note_off_c, 9, 44, 95
7, 50640, Note_on_c, 9, 44, 95
7, 50640, Note_on_c, 9, 36, 95
7, 50880, Note_off_c, 9, 44, 95
7, 50880, Note_off_c, 9, 36, 95
7, 50880, Note_on_c, 9, 44, 95
7, 50880, Note_on_c, 9, 40, 95
7, 51120, Note_off_c, 9, 44, 95
7, 51120, Note_off_c, 9, 40, 95
7, 51120, Note_on_c, 9, 44, 95
7, 51360, Note_off_c, 9, 44, 95
7, 51360, Note_on_c, 9, 44, 95
7, 51600, Note_off_c, 9, 44, 95
7, 51600, Note_on_c, 9, 44, 95
7, 51600, Note_on_c, 9, 36, 95
7, 51840, Note_off_c, 9, 44, 95
7, 51840, Note_off_c, 9, 36, 95
7, 51840, Note_on_c, 9, 49, 95
7, 51840, Note_on_c, 9, 36, 95
7, 52320, Note_off_c, 9, 49, 95
7, 52320, Note_off_c, 9, 36, 95
7, 52320, Note_on_c, 9, 44, 95
7, 52560, Note_off_c, 9, 44, 95
7, 52560, Note_on_c, 9, 44, 95
7, 52800, Note_off_c, 9, 44, 95
7, 52800, Note_on_c, 9, 44, 95
7, 52800, Note_on_c, 9, 40, 95
7, 53040, Note_off_c, 9, 44, 95
7, 53040, Note_off_c, 9, 40, 95
7, 53040, Note_on_c, 9, 44, 95
7, 53280, Note_off_c, 9, 44, 95
7, 53280, Note_on_c, 9, 44, 95
7, 53520, Note_off_c, 9, 44, 95
7, 53520, Note_on_c, 9, 44, 95
7, 53520, Note_on_c, 9, 36, 95
7, 53760, Note_off_c, 9, 44, 95
7, 53760, Note_off_c, 9, 36, 95
7, 53760, Note_on_c, 9, 44, 95
7, 54000, Note_off_c, 9, 44, 95
7, 54000, Note_on_c, 9, 44, 95
7, 54000, Note_on_c, 9, 36, 95
7, 54240, Note_off_c, 9, 44, 95
7, 54240, Note_off_c, 9, 36, 95
7, 54240, Note_on_c, 9, 44, 95
7, 54480, Note_off_c, 9, 44, 95
7, 54480, Note_on_c, 9, 44, 95
7, 54480, Note_on_c, 9, 36, 95
7, 54720, Note_off_c, 9, 44, 95
7, 54720, Note_off_c, 9, 36, 95
7, 54720, Note_on_c, 9, 44, 95
7, 54720, Note_on_c, 9, 40, 95
7, 54960, Note_off_c, 9, 44, 95
7, 54960, Note_off_c, 9, 40, 95
7, 54960, Note_on_c, 9, 44, 95
7, 55200, Note_off_c, 9, 44, 95
7, 55200, Note_on_c, 9, 44, 95
7, 55440, Note_off_c, 9, 44, 95
7, 55440, Note_on_c, 9, 44, 95
7, 55440, Note_on_c, 9, 36, 95
7, 55680, Note_off_c, 9, 44, 95
7, 55680, Note_off_c, 9, 36, 95
7, 55680, Note_on_c, 9, 44, 95
7, 55680, Note_on_c, 9, 36, 95
7, 55920, Note_off_c, 9, 44, 95
7, 55920, Note_off_c, 9, 36, 95
7, 55920, Note_on_c, 9, 44, 95
7, 56160, Note_off_c, 9, 44, 95
7, 56160, Note_on_c, 9, 44, 95
7, 56400, Note_off_c, 9, 44, 95
7, 56400, Note_on_c, 9, 44, 95
7, 56640, Note_off_c, 9, 44, 95
7, 56640, Note_on_c, 9, 44, 95
7, 56640, Note_on_c, 9, 40, 95
7, 56880, Note_off_c, 9, 44, 95
7, 56880, Note_off_c, 9, 40, 95
7, 56880, Note_on_c, 9, 44, 95
7, 57120, Note_off_c, 9, 44, 95
7, 57120, Note_on_c, 9, 44, 95
7, 57360, Note_off_c, 9, 44, 95
7, 57360, Note_on_c, 9, 44, 95
7, 57360, Note_on_c, 9, 36, 95
7, 57600, Note_off_c, 9, 44, 95
7, 57600, Note_off_c, 9, 36, 95
7, 57600, Note_on_c, 9, 44, 95
7, 57840, Note_off_c, 9, 44, 95
7, 57840, Note_on_c, 9, 44, 95
7, 57840, Note_on_c, 9, 36, 95
7, 58080, Note_off_c, 9, 44, 95
7, 58080, Note_off_c, 9, 36, 95
7, 58080, Note_on_c, 9, 44, 95
7, 58320, Note_off_c, 9, 44, 95
7, 58320, Note_on_c, 9, 44, 95
7, 58320, Note_on_c, 9, 36, 95
7, 58560, Note_off_c, 9, 44, 95
7, 58560, Note_off_c, 9, 36, 95
7, 58560, Note_on_c, 9, 44, 95
7, 58560, Note_on_c, 9, 40, 95
7, 58800, Note_off_c, 9, 44, 95
7, 58800, Note_off_c, 9, 40, 95
7, 58800, Note_on_c, 9, 44, 95
7, 59040, Note_off_c, 9, 44, 95
7, 59040, Note_on_c, 9, 44, 95
7, 59280, Note_off_c, 9, 44, 95
7, 59280, Note_on_c, 9, 44, 95
7, 59280, Note_on_c, 9, 36, 95
7, 59520, Note_off_c, 9, 44, 95
7, 59520, Note_off_c, 9, 36, 95
7, 59520, Note_on_c, 9, 44, 95
7, 59520, Note_on_c, 9, 36, 95
7, 59760, Note_off_c, 9, 44, 95
7, 59760, Note_off_c, 9, 36, 95
7, 59760, Note_on_c, 9, 44, 95
7, 60000, Note_off_c, 9, 44, 95
7, 60000, Note_on_c, 9, 44, 95
7, 60240, Note_off_c, 9, 44, 95
7, 60240, Note_on_c, 9, 44, 95
7, 60480, Note_off_c, 9, 44, 95
7, 60480, Note_on_c, 9, 44, 95
7, 60480, Note_on_c, 9, 40, 95
7, 60720, Note_off_c, 9, 44, 95
7, 60720, Note_off_c, 9, 40, 95
7, 60720, Note_on_c, 9, 44, 95
7, 60960, Note_off_c, 9, 44, 95
7, 60960, Note_on_c, 9, 44, 95
7, 61200, Note_off_c, 9, 44, 95
7, 61200, Note_on_c, 9, 44, 95
7, 61200, Note_on_c, 9, 36, 95
7, 61440, Note_off_c, 9, 44, 95
7, 61440, Note_off_c, 9, 36, 95
7, 61440, Note_on_c, 9, 44, 95
7, 61680, Note_off_c, 9, 44, 95
7, 61680, Note_on_c, 9, 44, 95
7, 61680, Note_on_c, 9, 36, 95
7, 61920, Note_off_c, 9, 44, 95
7, 61920, Note_off_c, 9, 36, 95
7, 61920, Note_on_c, 9, 44, 95
7, 62160, Note_off_c, 9, 44, 95
7, 62160, Note_on_c, 9, 44, 95
7, 62160, Note_on_c, 9, 36, 95
7, 62400, Note_off_c, 9, 44, 95
7, 62400, Note_off_c, 9, 36, 95
7, 62400, Note_on_c, 9, 44, 95
7, 62400, Note_on_c, 9, 40, 95
7, 62640, Note_off_c, 9, 44, 95
7, 62640, Note_off_c, 9, 40, 95
7, 62640, Note_on_c, 9, 44, 95
7, 62880, Note_off_c, 9, 44, 95
7, 62880, Note_on_c, 9, 44, 95
7, 63120, Note_off_c, 9, 44, 95
7, 63120, Note_on_c, 9, 44, 95
7, 63120, Note_on_c, 9, 36, 95
7, 63360, Note_off_c, 9, 44, 95
7, 63360, Note_off_c, 9, 36, 95
7, 63360, Note_on_c, 9, 44, 95
7, 63360, Note_on_c, 9, 36, 95
7, 63600, Note_off_c, 9, 44, 95
7, 63600, Note_off_c, 9, 36, 95
7, 63600, Note_on_c, 9, 44, 95
7, 63840, Note_off_c, 9, 44, 95
7, 63840, Note_on_c, 9, 44, 95
7, 64080, Note_off_c, 9, 44, 95
7, 64080, Note_on_c, 9, 44, 95
7, 64320, Note_off_c, 9, 44, 95
7, 64320, Note_on_c, 9, 44, 95
7, 64320, Note_on_c, 9, 40, 95
7, 64560, Note_off_c, 9, 44, 95
7, 64560, Note_off_c, 9, 40, 95
7, 64560, Note_on_c, 9, 44, 95
7, 64800, Note_off_c, 9, 44, 95
7, 64800, Note_on_c, 9, 44, 95
7, 65040, Note_off_c, 9, 44, 95
7, 65040, Note_on_c, 9, 44, 95
7, 65040, Note_on_c, 9, 36, 95
7, 65280, Note_off_c, 9, 44, 95
7, 65280, Note_off_c, 9, 36, 95
7, 65280, Note_on_c, 9, 44, 95
7, 65280, Note_on_c, 9, 36, 95
7, 65520, Note_off_c, 9, 44, 95
7, 65520, Note_off_c, 9, 36, 95
7, 65520, Note_on_c, 9, 44, 95
7, 65760, Note_off_c, 9, 44, 95
7, 65760, Note_on_c, 9, 44, 95
7, 66000, Note_off_c, 9, 44, 95
7, 66000, Note_on_c, 9, 44, 95
7, 66240, Note_off_c, 9, 44, 95
7, 66240, Note_on_c, 9, 44, 95
7, 66240, Note_on_c, 9, 40, 95
7, 66480, Note_off_c, 9, 44, 95
7, 66480, Note_off_c, 9, 40, 95
7, 66480, Note_on_c, 9, 44, 95
7, 66720, Note_off_c, 9, 44, 95
7, 66720, Note_on_c, 9, 44, 95
7, 66960, Note_off_c, 9, 44, 95
7, 66960, Note_on_c, 9, 44, 95
7, 66960, Note_on_c, 9, 36, 95
7, 67200, Note_off_c, 9, 44, 95
7, 67200, Note_off_c, 9, 36, 95
7, 67200, Note_on_c, 9, 44, 95
7, 67440, Note_off_c, 9, 44, 95
7, 67440, Note_on_c, 9, 44, 95
7, 67440, Note_on_c, 9, 36, 95
7, 67680, Note_off_c, 9, 44, 95
7, 67680, Note_off_c, 9, 36, 95
7, 67680, Note_on_c, 9, 44, 95
7, 67920, Note_off_c, 9, 44, 95
7, 67920, Note_on_c, 9, 44, 95
7, 67920, Note_on_c, 9, 36, 95
7, 68160, Note_off_c, 9, 44, 95
7, 68160, Note_off_c, 9, 36, 95
7, 68160, Note_on_c, 9, 44, 95
7, 68160, Note_on_c, 9, 40, 95
7, 68400, Note_off_c, 9, 44, 95
7, 68400, Note_off_c, 9, 40, 95
7, 68400, Note_on_c, 9, 44, 95
7, 68640, Note_off_c, 9, 44, 95
7, 68640, Note_on_c, 9, 44, 95
7, 68880, Note_off_c, 9, 44, 95
7, 68880, Note_on_c, 9, 44, 95
7, 68880, Note_on_c, 9, 36, 95
7, 69120, Note_off_c, 9, 44, 95
7, 69120, Note_off_c, 9, 36, 95
7, 69120, Note_on_c, 9, 49, 95
7, 69120, Note_on_c, 9, 36, 95
7, 69600, Note_off_c, 9, 49, 95
7, 69600, Note_off_c, 9, 36, 95
7, 69600, Note_on_c, 9, 44, 95
7, 69840, Note_off_c, 9, 44, 95
7, 69840, Note_on_c, 9, 44, 95
7, 70080, Note_off_c, 9, 44, 95
7, 70080, Note_on_c, 9, 44, 95
7, 70080, Note_on_c, 9, 40, 95
7, 70320, Note_off_c, 9, 44, 95
7, 70320, Note_off_c, 9, 40, 95
7, 70320, Note_on_c, 9, 44, 95
7, 70560, Note_off_c, 9, 44, 95
7, 70560, Note_on_c, 9, 44, 95
7, 70800, Note_off_c, 9, 44, 95
7, 70800, Note_on_c, 9, 44, 95
7, 70800, Note_on_c, 9, 36, 95
7, 71040, Note_off_c, 9, 44, 95
7, 71040, Note_off_c, 9, 36, 95
7, 71040, Note_on_c, 9, 44, 95
7, 71280, Note_off_c, 9, 44, 95
7, 71280, Note_on_c, 9, 44, 95
7, 71280, Note_on_c, 9, 36, 95
7, 71520, Note_off_c, 9, 44, 95
7, 71520, Note_off_c, 9, 36, 95
7, 71520, Note_on_c, 9, 44, 95
7, 71760, Note_off_c, 9, 44, 95
7, 71760, Note_on_c, 9, 44, 95
7, 71760, Note_on_c, 9, 36, 95
7, 72000, Note_off_c, 9, 44, 95
7, 72000, Note_off_c, 9, 36, 95
7, 72000, Note_on_c, 9, 44, 95
7, 72000, Note_on_c, 9, 40, 95
7, 72240, Note_off_c, 9, 44, 95
7, 72240, Note_off_c, 9, 40, 95
7, 72240, Note_on_c, 9, 44, 95
7, 72480, Note_off_c, 9, 44, 95
7, 72480, Note_on_c, 9, 44, 95
7, 72720, Note_off_c, 9, 44, 95
7, 72720, Note_on_c, 9, 44, 95
7, 72720, Note_on_c, 9, 36, 95
7, 72960, Note_off_c, 9, 44, 95
7, 72960, Note_off_c, 9, 36, 95
7, 72960, Note_on_c, 9, 44, 95
7, 72960, Note_on_c, 9, 36, 95
7, 73200, Note_off_c, 9, 44, 95
7, 73200, Note_off_c, 9, 36, 95
7, 73200, Note_on_c, 9, 44, 95
7, 73440, Note_off_c, 9, 44, 95
7, 73440, Note_on_c, 9, 44, 95
7, 73680, Note_off_c, 9, 44, 95
7, 73680, Note_on_c, 9, 44, 95
7, 73920, Note_off_c, 9, 44, 95
7, 73920, Note_on_c, 9, 44, 95
7, 73920, Note_on_c, 9, 40, 95
7, 74160, Note_off_c, 9, 44, 95
7, 74160, Note_off_c, 9, 40, 95
7, 74160, Note_on_c, 9, 44, 95
7, 74400, Note_off_c, 9, 44, 95
7, 74400, Note_on_c, 9, 44, 95
7, 74640, Note_off_c, 9, 44, 95
7, 74640, Note_on_c, 9, 44, 95
7, 74640, Note_on_c, 9, 36, 95
7, 74880, Note_off_c, 9, 44, 95
7, 74880, Note_off_c, 9, 36, 95
7, 74880, Note_on_c, 9, 44, 95
7, 75120, Note_off_c, 9, 44, 95
7, 75120, Note_on_c, 9, 44, 95
7, 75120, Note_on_c, 9, 36, 95
7, 75360, Note_off_c, 9, 44, 95
7, 75360, Note_off_c, 9, 36, 95
7, 75360, Note_on_c, 9, 44, 95
7, 75600, Note_off_c, 9, 44, 95
7, 75600, Note_on_c, 9, 44, 95
7, 75600, Note_on_c, 9, 36, 95
7, 75840, Note_off_c, 9, 44, 95
7, 75840, Note_off_c, 9, 36, 95
7, 75840, Note_on_c, 9, 44, 95
7, 75840, Note_on_c, 9, 40, 95
7, 76080, Note_off_c, 9, 44, 95
7, 76080, Note_off_c, 9, 40, 95
7, 76080, Note_on_c, 9, 44, 95
7, 76320, Note_off_c, 9, 44, 95
7, 76320, Note_on_c, 9, 44, 95
7, 76560, Note_off_c, 9, 44, 95
7, 76560, Note_on_c, 9, 44, 95
7, 76560, Note_on_c, 9, 36, 95
7, 76800, Note_off_c, 9, 44, 95
7, 76800, Note_off_c, 9, 36, 95
7, 76800, Note_on_c, 9, 44, 95
7, 76800, Note_on_c, 9, 36, 95
7, 77040, Note_off_c, 9, 44, 95
7, 77040, Note_off_c, 9, 36, 95
7, 77040, Note_on_c, 9, 44, 95
7, 77280, Note_off_c, 9, 44, 95
7, 77280, Note_on_c, 9, 44, 95
7, 77520, Note_off_c, 9, 44, 95
7, 77520, Note_on_c, 9, 44, 95
7, 77760, Note_off_c, 9, 44, 95
7, 77760, Note_on_c, 9, 44, 95
7, 77760, Note_on_c, 9, 40, 95
7, 78000, Note_off_c, 9, 44, 95
7, 78000, Note_off_c, 9, 40, 95
7, 78000, Note_on_c, 9, 44, 95
7, 78240, Note_off_c, 9, 44, 95
7, 78240, Note_on_c, 9, 44, 95
7, 78480, Note_off_c, 9, 44, 95
7, 78480, Note_on_c, 9, 44, 95
7, 78480, Note_on_c, 9, 36, 95
7, 78720, Note_off_c, 9, 44, 95
7, 78720, Note_off_c, 9, 36, 95
7, 78720, Note_on_c, 9, 44, 95
7, 78960, Note_off_c, 9, 44, 95
7, 78960, Note_on_c, 9, 44, 95
7, 78960, Note_on_c, 9, 36, 95
7, 79200, Note_off_c, 9, 44, 95
7, 79200, Note_off_c, 9, 36, 95
7, 79200, Note_on_c, 9, 44, 95
7, 79440, Note_off_c, 9, 44, 95
7, 79440, Note_on_c, 9, 44, 95
7, 79440, Note_on_c, 9, 36, 95
7, 79680, Note_off_c, 9, 44, 95
7, 79680, Note_off_c, 9, 36, 95
7, 79680, Note_on_c, 9, 44, 95
7, 79680, Note_on_c, 9, 40, 95
7, 79920, Note_off_c, 9, 44, 95
7, 79920, Note_off_c, 9, 40, 95
7, 79920, Note_on_c, 9, 44, 95
7, 80160, Note_off_c, 9, 44, 95
7, 80160, Note_on_c, 9, 44, 95
7, 80400, Note_off_c, 9, 44, 95
7, 80400, Note_on_c, 9, 44, 95
7, 80400, Note_on_c, 9, 36, 95
7, 80640, Note_off_c, 9, 44, 95
7, 80640, Note_off_c, 9, 36, 95
7, 80640, Note_on_c, 9, 44, 95
7, 80640, Note_on_c, 9, 36, 95
7, 80880, Note_off_c, 9, 44, 95
7, 80880, Note_off_c, 9, 36, 95
7, 80880, Note_on_c, 9, 44, 95
7, 81120, Note_off_c, 9, 44, 95
7, 81120, Note_on_c, 9, 44, 95
7, 81360, Note_off_c, 9, 44, 95
7, 81360, Note_on_c, 9, 44, 95
7, 81600, Note_off_c, 9, 44, 95
7, 81600, Note_on_c, 9, 44, 95
7, 81600, Note_on_c, 9, 40, 95
7, 81840, Note_off_c, 9, 44, 95
7, 81840, Note_off_c, 9, 40, 95
7, 81840, Note_on_c, 9, 44, 95
7, 82080, Note_off_c, 9, 44, 95
7, 82080, Note_on_c, 9, 44, 95
7, 82320, Note_off_c, 9, 44, 95
7, 82320, Note_on_c, 9, 44, 95
7, 82320, Note_on_c, 9, 36, 95
7, 82560, Note_off_c, 9, 44, 95
7, 82560, Note_off_c, 9, 36, 95
7, 82560, Note_on_c, 9, 44, 95
7, 82560, Note_on_c, 9, 36, 95
7, 82800, Note_off_c, 9, 44, 95
7, 82800, Note_off_c, 9, 36, 95
7, 82800, Note_on_c, 9, 44, 95
7, 83040, Note_off_c, 9, 44, 95
7, 83040, Note_on_c, 9, 44, 95
7, 83280, Note_off_c, 9, 44, 95
7, 83280, Note_on_c, 9, 44, 95
7, 83520, Note_off_c, 9, 44, 95
7, 83520, Note_on_c, 9, 44, 95
7, 83520, Note_on_c, 9, 40, 95
7, 83760, Note_off_c, 9, 44, 95
7, 83760, Note_off_c, 9, 40, 95
7, 83760, Note_on_c, 9, 44, 95
7, 84000, Note_off_c, 9, 44, 95
7, 84000, Note_on_c, 9, 44, 95
7, 84240, Note_off_c, 9, 44, 95
7, 84240, Note_on_c, 9, 44, 95
7, 84240, Note_on_c, 9, 36, 95
7, 84480, Note_off_c, 9, 44, 95
7, 84480, Note_off_c, 9, 36, 95
7, 84480, Note_on_c, 9, 44, 95
7, 84720, Note_off_c, 9, 44, 95
7, 84720, Note_on_c, 9, 44, 95
7, 84720, Note_on_c, 9, 36, 95
7, 84960, Note_off_c, 9, 44, 95
7, 84960, Note_off_c, 9, 36, 95
7, 84960, Note_on_c, 9, 44, 95
7, 85200, Note_off_c, 9, 44, 95
7, 85200, Note_on_c, 9, 44, 95
7, 85200, Note_on_c, 9, 36, 95
7, 85440, Note_off_c, 9, 44, 95
7, 85440, Note_off_c, 9, 36, 95
7, 85440, Note_on_c, 9, 44, 95
7, 85440, Note_on_c, 9, 40, 95
7, 85680, Note_off_c, 9, 44, 95
7, 85680, Note_off_c, 9, 40, 95
7, 85680, Note_on_c, 9, 44, 95
7, 85920, Note_off_c, 9, 44, 95
7, 85920, Note_on_c, 9, 44, 95
7, 86160, Note_off_c, 9, 44, 95
7, 86160, Note_on_c, 9, 44, 95
7, 86160, Note_on_c, 9, 36, 95
7, 86400, Note_off_c, 9, 44, 95
7, 86400, Note_off_c, 9, 36, 95
7, 86400, Note_on_c, 9, 49, 95
7, 86400, Note_on_c, 9, 36, 95
7, 86880, Note_off_c, 9, 49, 95
7, 86880, Note_off_c, 9, 36, 95
7, 86880, Note_on_c, 9, 44, 95
7, 87120, Note_off_c, 9, 44, 95
7, 87120, Note_on_c, 9, 44, 95
7, 87360, Note_off_c, 9, 44, 95
7, 87360, Note_on_c, 9, 44, 95
7, 87360, Note_on_c, 9, 40, 95
7, 87600, Note_off_c, 9, 44, 95
7, 87600, Note_off_c, 9, 40, 95
7, 87600, Note_on_c, 9, 44, 95
7, 87840, Note_off_c, 9, 44, 95
7, 87840, Note_on_c, 9, 44, 95
7, 88080, Note_off_c, 9, 44, 95
7, 88080, Note_on_c, 9, 44, 95
7, 88080, Note_on_c, 9, 36, 95
7, 88320, Note_off_c, 9, 44, 95
7, 88320, Note_off_c, 9, 36, 95
7, 88320, Note_on_c, 9, 44, 95
7, 88560, Note_off_c, 9, 44, 95
7, 88560, Note_on_c, 9, 44, 95
7, 88560, Note_on_c, 9, 36, 95
7, 88800, Note_off_c, 9, 44, 95
7, 88800, Note_off_c, 9, 36, 95
7, 88800, Note_on_c, 9, 44, 95
7, 89040, Note_off_c, 9, 44, 95
7, 89040, Note_on_c, 9, 44, 95
7, 89040, Note_on_c, 9, 36, 95
7, 89280, Note_off_c, 9, 44, 95
7, 89280, Note_off_c, 9, 36, 95
7, 89280, Note_on_c, 9, 44, 95
7, 89280, Note_on_c, 9, 40, 95
7, 89520, Note_off_c, 9, 44, 95
7, 89520, Note_off_c, 9, 40, 95
7, 89520, Note_on_c, 9, 44, 95
7, 89760, Note_off_c, 9, 44, 95
7, 89760, Note_on_c, 9, 44, 95
7, 90000, Note_off_c, 9, 44, 95
7, 90000, Note_on_c, 9, 44, 95
7, 90000, Note_on_c, 9, 36, 95
7, 90240, Note_off_c, 9, 44, 95
7, 90240, Note_off_c, 9, 36, 95
7, 90240, Note_on_c, 9, 44, 95
7, 90240, Note_on_c, 9, 36, 95
7, 90480, Note_off_c, 9, 44, 95
7, 90480, Note_off_c, 9, 36, 95
7, 90480, Note_on_c, 9, 44, 95
7, 90720, Note_off_c, 9, 44, 95
7, 90720, Note_on_c, 9, 44, 95
7, 90960, Note_off_c, 9, 44, 95
7, 90960, Note_on_c, 9, 44, 95
7, 91200, Note_off_c, 9, 44, 95
7, 91200, Note_on_c, 9, 44, 95
7, 91200, Note_on_c, 9, 40, 95
7, 91440, Note_off_c, 9, 44, 95
7, 91440, Note_off_c, 9, 40, 95
7, 91440, Note_on_c, 9, 44, 95
7, 91680, Note_off_c, 9, 44, 95
7, 91680, Note_on_c, 9, 44, 95
7, 91920, Note_off_c, 9, 44, 95
7, 91920, Note_on_c, 9, 44, 95
7, 91920, Note_on_c, 9, 36, 95
7, 92160, Note_off_c, 9, 44, 95
7, 92160, Note_off_c, 9, 36, 95
7, 92160, Note_on_c, 9, 44, 95
7, 92400, Note_off_c, 9, 44, 95
7, 92400, Note_on_c, 9, 44, 95
7, 92400, Note_on_c, 9, 36, 95
7, 92640, Note_off_c, 9, 44, 95
7, 92640, Note_off_c, 9, 36, 95
7, 92640, Note_on_c, 9, 44, 95
7, 92880, Note_off_c, 9, 44, 95
7, 92880, Note_on_c, 9, 44, 95
7, 92880, Note_on_c, 9, 36, 95
7, 93120, Note_off_c, 9, 44, 95
7, 93120, Note_off_c, 9, 36, 95
7, 93120, Note_on_c, 9, 44, 95
7, 93120, Note_on_c, 9, 40, 95
7, 93360, Note_off_c, 9, 44, 95
7, 93360, Note_off_c, 9, 40, 95
7, 93360, Note_on_c, 9, 44, 95
7, 93600, Note_off_c, 9, 44, 95
7, 93600, Note_on_c, 9, 44, 95
7, 93840, Note_off_c, 9, 44, 95
7, 93840, Note_on_c, 9, 44, 95
7, 93840, Note_on_c, 9, 36, 95
7, 94080, Note_off_c, 9, 44, 95
7, 94080, Note_off_c, 9, 36, 95
7, 94080, Note_on_c, 9, 44, 95
7, 94080, Note_on_c, 9, 36, 95
7, 94320, Note_off_c, 9, 44, 95
7, 94320, Note_off_c, 9, 36, 95
7, 94320, Note_on_c, 9, 44, 95
7, 94560, Note_off_c, 9, 44, 95
7, 94560, Note_on_c, 9, 44, 95
7, 94800, Note_off_c, 9, 44, 95
7, 94800, Note_on_c, 9, 44, 95
7, 95040, Note_off_c, 9, 44, 95
7, 95040, Note_on_c, 9, 44, 95
7, 95040, Note_on_c, 9, 40, 95
7, 95280, Note_off_c, 9, 44, 95
7, 95280, Note_off_c, 9, 40, 95
7, 95280, Note_on_c, 9, 44, 95
7, 95520, Note_off_c, 9, 44, 95
7, 95520, Note_on_c, 9, 44, 95
7, 95760, Note_off_c, 9, 44, 95
7, 95760, Note_on_c, 9, 44, 95
7, 95760, Note_on_c, 9, 36, 95
7, 96000, Note_off_c, 9, 44, 95
7, 96000, Note_off_c, 9, 36, 95
7, 96000, Note_on_c, 9, 44, 95
7, 96240, Note_off_c, 9, 44, 95
7, 96240, Note_on_c, 9, 44, 95
7, 96240, Note_on_c, 9, 36, 95
7, 96480, Note_off_c, 9, 44, 95
7, 96480, Note_off_c, 9, 36, 95
7, 96480, Note_on_c, 9, 44, 95
7, 96720, Note_off_c, 9, 44, 95
7, 96720, Note_on_c, 9, 44, 95
7, 96720, Note_on_c, 9, 36, 95
7, 96960, Note_off_c, 9, 44, 95
7, 96960, Note_off_c, 9, 36, 95
7, 96960, Note_on_c, 9, 44, 95
7, 96960, Note_on_c, 9, 40, 95
7, 97200, Note_off_c, 9, 44, 95
7, 97200, Note_off_c, 9, 40, 95
7, 97200, Note_on_c, 9, 44, 95
7, 97440, Note_off_c, 9, 44, 95
7, 97440, Note_on_c, 9, 44, 95
7, 97680, Note_off_c, 9, 44, 95
7, 97680, Note_on_c, 9, 44, 95
7, 97680, Note_on_c, 9, 36, 95
7, 97920, Note_off_c, 9, 44, 95
7, 97920, Note_off_c, 9, 36, 95
7, 97920, Note_on_c, 9, 44, 95
7, 97920, Note_on_c, 9, 36, 95
7, 98160, Note_off_c, 9, 44, 95
7, 98160, Note_off_c, 9, 36, 95
7, 98160, Note_on_c, 9, 44, 95
7, 98400, Note_off_c, 9, 44, 95
7, 98400, Note_on_c, 9, 44, 95
7, 98640, Note_off_c, 9, 44, 95
7, 98640, Note_on_c, 9, 44, 95
7, 98880, Note_off_c, 9, 44, 95
7, 98880, Note_on_c, 9, 44, 95
7, 98880, Note_on_c, 9, 40, 95
7, 99120, Note_off_c, 9, 44, 95
7, 99120, Note_off_c, 9, 40, 95
7, 99120, Note_on_c, 9, 44, 95
7, 99360, Note_off_c, 9, 44, 95
7, 99360, Note_on_c, 9, 44, 95
7, 99600, Note_off_c, 9, 44, 95
7, 99600, Note_on_c, 9, 44, 95
7, 99600, Note_on_c, 9, 36, 95
7, 99840, Note_off_c, 9, 44, 95
7, 99840, Note_off_c, 9, 36, 95
7, 99840, Note_on_c, 9, 44, 95
7, 99840, Note_on_c, 9, 36, 95
7, 100080, Note_off_c, 9, 44, 95
7, 100080, Note_off_c, 9, 36, 95
7, 100080, Note_on_c, 9, 44, 95
7, 100320, Note_off_c, 9, 44, 95
7, 100320, Note_on_c, 9, 44, 95
7, 100560, Note_off_c, 9, 44, 95
7, 100560, Note_on_c, 9, 44, 95
7, 100800, Note_off_c, 9, 44, 95
7, 100800, Note_on_c, 9, 44, 95
7, 100800, Note_on_c, 9, 40, 95
7, 101040, Note_off_c, 9, 44, 95
7, 101040, Note_off_c, 9, 40, 95
7, 101040, Note_on_c, 9, 44, 95
7, 101280, Note_off_c, 9, 44, 95
7, 101280, Note_on_c, 9, 44, 95
7, 101520, Note_off_c, 9, 44, 95
7, 101520, Note_on_c, 9, 44, 95
7, 101520, Note_on_c, 9, 36, 95
7, 101760, Note_off_c, 9, 44, 95
7, 101760, Note_off_c, 9, 36, 95
7, 101760, Note_on_c, 9, 44, 95
7, 102000, Note_off_c, 9, 44, 95
7, 102000, Note_on_c, 9, 44, 95
7, 102000, Note_on_c, 9, 36, 95
7, 102240, Note_off_c, 9, 44, 95
7, 102240, Note_off_c, 9, 36, 95
7, 102240, Note_on_c, 9, 44, 95
7, 102480, Note_off_c, 9, 44, 95
7, 102480, Note_on_c, 9, 44, 95
7, 102480, Note_on_c, 9, 36, 95
7, 102720, Note_off_c, 9, 44, 95
7, 102720, Note_off_c, 9, 36, 95
7, 102720, Note_on_c, 9, 44, 95
7, 102720, Note_on_c, 9, 40, 95
7, 102960, Note_off_c, 9, 44, 95
7, 102960, Note_off_c, 9, 40, 95
7, 102960, Note_on_c, 9, 44, 95
7, 103200, Note_off_c, 9, 44, 95
7, 103200, Note_on_c, 9, 44, 95
7, 103440, Note_off_c, 9, 44, 95
7, 103440, Note_on_c, 9, 44, 95
7, 103440, Note_on_c, 9, 36, 95
7, 103680, Note_off_c, 9, 44, 95
7, 103680, Note_off_c, 9, 36, 95
7, 103680, Note_on_c, 9, 49, 95
7, 103680, Note_on_c, 9, 36, 95
7, 104160, Note_off_c, 9, 49, 95
7, 104160, Note_off_c, 9, 36, 95
7, 104160, Note_on_c, 9, 44, 95
7, 104400, Note_off_c, 9, 44, 95
7, 104400, Note_on_c, 9, 44, 95
7, 104640, Note_off_c, 9, 44, 95
7, 104640, Note_on_c, 9, 44, 95
7, 104640, Note_on_c, 9, 40, 95
7, 104880, Note_off_c, 9, 44, 95
7, 104880, Note_off_c, 9, 40, 95
7, 104880, Note_on_c, 9, 44, 95
7, 105120, Note_off_c, 9, 44, 95
7, 105120, Note_on_c, 9, 44, 95
7, 105360, Note_off_c, 9, 44, 95
7, 105360, Note_on_c, 9, 44, 95
7, 105360, Note_on_c, 9, 36, 95
7, 105600, Note_off_c, 9, 44, 95
7, 105600, Note_off_c, 9, 36, 95
7, 105600, Note_on_c, 9, 44, 95
7, 105840, Note_off_c, 9, 44, 95
7, 105840, Note_on_c, 9, 44, 95
7, 105840, Note_on_c, 9, 36, 95
7, 106080, Note_off_c, 9, 44, 95
7, 106080, Note_off_c, 9, 36, 95
7, 106080, Note_on_c, 9, 44, 95
7, 106320, Note_off_c, 9, 44, 95
7, 106320, Note_on_c, 9, 44, 95
7, 106320, Note_on_c, 9, 36, 95
7, 106560, Note_off_c, 9, 44, 95
7, 106560, Note_off_c, 9, 36, 95
7, 106560, Note_on_c, 9, 44, 95
7, 106560, Note_on_c, 9, 40, 95
7, 107040, Note_off_c, 9, 44, 95
7, 107040, Note_off_c, 9, 40, 95
7, 107040, Note_on_c, 9, 46, 95
7, 107040, Note_on_c, 9, 36, 95
7, 107520, Note_off_c, 9, 46, 95
7, 107520, Note_off_c, 9, 36, 95
7, 107520, Note_on_c, 9, 44, 95
7, 107520, Note_on_c, 9, 36, 95
7, 107760, Note_off_c, 9, 44, 95
7, 107760, Note_off_c, 9, 36, 95
7, 107760, Note_on_c, 9, 44, 95
7, 108000, Note_off_c, 9, 44, 95
7, 108000, Note_on_c, 9, 44, 95
7, 108240, Note_off_c, 9, 44, 95
7, 108240, Note_on_c, 9, 44, 95
7, 108480, Note_off_c, 9, 44, 95
7, 108480, Note_on_c, 9, 44, 95
7, 108480, Note_on_c, 9, 40, 95
7, 108720, Note_off_c, 9, 44, 95
7, 108720, Note_off_c, 9, 40, 95
7, 108720, Note_on_c, 9, 44, 95
7, 108960, Note_off_c, 9, 44, 95
7, 108960, Note_on_c, 9, 44, 95
7, 109200, Note_off_c, 9, 44, 95
7, 109200, Note_on_c, 9, 44, 95
7, 109200, Note_on_c, 9, 36, 95
7, 109440, Note_off_c, 9, 44, 95
7, 109440, Note_off_c, 9, 36, 95
7, 109440, Note_on_c, 9, 44, 95
7, 109680, Note_off_c, 9, 44, 95
7, 109680, Note_on_c, 9, 44, 95
7, 109680, Note_on_c, 9, 36, 95
7, 109920, Note_off_c, 9, 44, 95
7, 109920, Note_off_c, 9, 36, 95
7, 109920, Note_on_c, 9, 44, 95
7, 110160, Note_off_c, 9, 44, 95
7, 110160, Note_on_c, 9, 44, 95
7, 110160, Note_on_c, 9, 36, 95
7, 110400, Note_off_c, 9, 44, 95
7, 110400, Note_off_c, 9, 36, 95
7, 110400, Note_on_c, 9, 44, 95
7, 110400, Note_on_c, 9, 40, 95
7, 110880, Note_off_c, 9, 44, 95
7, 110880, Note_off_c, 9, 40, 95
7, 110880, Note_on_c, 9, 46, 95
7, 110880, Note_on_c, 9, 36, 95
7, 111360, Note_off_c, 9, 46, 95
7, 111360, Note_off_c, 9, 36, 95
7, 111360, Note_on_c, 9, 44, 95
7, 111360, Note_on_c, 9, 36, 95
7, 111600, Note_off_c, 9, 44, 95
7, 111600, Note_off_c, 9, 36, 95
7, 111600, Note_on_c, 9, 44, 95
7, 111840, Note_off_c, 9, 44, 95
7, 111840, Note_on_c, 9, 44, 95
7, 112080, Note_off_c, 9, 44, 95
7, 112080, Note_on_c, 9, 44, 95
7, 112320, Note_off_c, 9, 44, 95
7, 112320, Note_on_c, 9, 44, 95
7, 112320, Note_on_c, 9, 40, 95
7, 112560, Note_off_c, 9, 44, 95
7, 112560, Note_off_c, 9, 40, 95
7, 112560, Note_on_c, 9, 44, 95
7, 112800, Note_off_c, 9, 44, 95
7, 112800, Note_on_c, 9, 44, 95
7, 113040, Note_off_c, 9, 44, 95
7, 113040, Note_on_c, 9, 44, 95
7, 113040, Note_on_c, 9, 36, 95
7, 113280, Note_off_c, 9, 44, 95
7, 113280, Note_off_c, 9, 36, 95
7, 113280, Note_on_c, 9, 44, 95
7, 113520, Note_off_c, 9, 44, 95
7, 113520, Note_on_c, 9, 44, 95
7, 113520, Note_on_c, 9, 36, 95
7, 113760, Note_off_c, 9, 44, 95
7, 113760, Note_off_c, 9, 36, 95
7, 113760, Note_on_c, 9, 44, 95
7, 114000, Note_off_c, 9, 44, 95
7, 114000, Note_on_c, 9, 44, 95
7, 114000, Note_on_c, 9, 36, 95
7, 114240, Note_off_c, 9, 44, 95
7, 114240, Note_off_c, 9, 36, 95
7, 114240, Note_on_c, 9, 44, 95
7, 114240, Note_on_c, 9, 40, 95
7, 114720, Note_off_c, 9, 44, 95
7, 114720, Note_off_c, 9, 40, 95
7, 114720, Note_on_c, 9, 46, 95
7, 114720, Note_on_c, 9, 36, 95
7, 115200, Note_off_c, 9, 46, 95
7, 115200, Note_off_c, 9, 36, 95
7, 115200, Note_on_c, 9, 44, 95
7, 115200, Note_on_c, 9, 36, 95
7, 115440, Note_off_c, 9, 44, 95
7, 115440, Note_off_c, 9, 36, 95
7, 115440, Note_on_c, 9, 44, 95
7, 115680, Note_off_c, 9, 44, 95
7, 115680, Note_on_c, 9, 44, 95
7, 115920, Note_off_c, 9, 44, 95
7, 115920, Note_on_c, 9, 44, 95
7, 116160, Note_off_c, 9, 44, 95
7, 116160, Note_on_c, 9, 44, 95
7, 116160, Note_on_c, 9, 40, 95
7, 116400, Note_off_c, 9, 44, 95
7, 116400, Note_off_c, 9, 40, 95
7, 116400, Note_on_c, 9, 44, 95
7, 116640, Note_off_c, 9, 44, 95
7, 116640, Note_on_c, 9, 44, 95
7, 116880, Note_off_c, 9, 44, 95
7, 116880, Note_on_c, 9, 44, 95
7, 116880, Note_on_c, 9, 36, 95
7, 117120, Note_off_c, 9, 44, 95
7, 117120, Note_off_c, 9, 36, 95
7, 117120, Note_on_c, 9, 44, 95
7, 117360, Note_off_c, 9, 44, 95
7, 117360, Note_on_c, 9, 44, 95
7, 117360, Note_on_c, 9, 36, 95
7, 117600, Note_off_c, 9, 44, 95
7, 117600, Note_off_c, 9, 36, 95
7, 117600, Note_on_c, 9, 44, 95
7, 117840, Note_off_c, 9, 44, 95
7, 117840, Note_on_c, 9, 44, 95
7, 117840, Note_on_c, 9, 36, 95
7, 118080, Note_off_c, 9, 44, 95
7, 118080, Note_off_c, 9, 36, 95
7, 118080, Note_on_c, 9, 40, 95
7, 118320, Note_off_c, 9, 40, 95
7, 118320, Note_on_c, 9, 40, 95
7, 118440, Note_off_c, 9, 40, 95
7, 118440, Note_on_c, 9, 40, 95
7, 118559, Note_off_c, 9, 40, 95
7, 118560, Note_on_c, 9, 40, 95
7, 118800, Note_off_c, 9, 40, 95
7, 118800, Note_on_c, 9, 40, 95
7, 119040, Note_off_c, 9, 40, 95
7, 119040, Note_on_c, 9, 44, 95
7, 119040, Note_on_c, 9, 36, 95
7, 119280, Note_off_c, 9, 44, 95
7, 119280, Note_off_c, 9, 36, 95
7, 119280, Note_on_c, 9, 44, 95
7, 119520, Note_off_c, 9, 44, 95
7, 119520, Note_on_c, 9, 44, 95
7, 119760, Note_off_c, 9, 44, 95
7, 119760, Note_on_c, 9, 44, 95
7, 120000, Note_off_c, 9, 44, 95
7, 120000, Note_on_c, 9, 44, 95
7, 120000, Note_on_c, 9, 40, 95
7, 120240, Note_off_c, 9, 44, 95
7, 120240, Note_off_c, 9, 40, 95
7, 120240, Note_on_c, 9, 44, 95
7, 120480, Note_off_c, 9, 44, 95
7, 120480, Note_on_c, 9, 44, 95
7, 120720, Note_off_c, 9, 44, 95
7, 120720, Note_on_c, 9, 44, 95
7, 120720, Note_on_c, 9, 36, 95
7, 120960, Note_off_c, 9, 44, 95
7, 120960, Note_off_c, 9, 36, 95
7, 120960, Note_on_c, 9, 44, 95
7, 121200, Note_off_c, 9, 44, 95
7, 121200, Note_on_c, 9, 44, 95
7, 121200, Note_on_c, 9, 36, 95
7, 121440, Note_off_c, 9, 44, 95
7, 121440, Note_off_c, 9, 36, 95
7, 121440, Note_on_c, 9, 44, 95
7, 121680, Note_off_c, 9, 44, 95
7, 121680, Note_on_c, 9, 44, 95
7, 121680, Note_on_c, 9, 36, 95
7, 121920, Note_off_c, 9, 44, 95
7, 121920, Note_off_c, 9, 36, 95
7, 121920, Note_on_c, 9, 44, 95
7, 121920, Note_on_c, 9, 40, 95
7, 122400, Note_off_c, 9, 44, 95
7, 122400, Note_off_c, 9, 40, 95
7, 122400, Note_on_c, 9, 46, 95
7, 122400, Note_on_c, 9, 36, 95
7, 122880, Note_off_c, 9, 46, 95
7, 122880, Note_off_c, 9, 36, 95
7, 122880, Note_on_c, 9, 44, 95
7, 122880, Note_on_c, 9, 36, 95
7, 123120, Note_off_c, 9, 44, 95
7, 123120, Note_off_c, 9, 36, 95
7, 123120, Note_on_c, 9, 44, 95
7, 123360, Note_off_c, 9, 44, 95
7, 123360, Note_on_c, 9, 44, 95
7, 123600, Note_off_c, 9, 44, 95
7, 123600, Note_on_c, 9, 44, 95
7, 123840, Note_off_c, 9, 44, 95
7, 123840, Note_on_c, 9, 44, 95
7, 123840, Note_on_c, 9, 40, 95
7, 124080, Note_off_c, 9, 44, 95
7, 124080, Note_off_c, 9, 40, 95
7, 124080, Note_on_c, 9, 44, 95
7, 124320, Note_off_c, 9, 44, 95
7, 124320, Note_on_c, 9, 44, 95
7, 124560, Note_off_c, 9, 44, 95
7, 124560, Note_on_c, 9, 44, 95
7, 124560, Note_on_c, 9, 36, 95
7, 124800, Note_off_c, 9, 44, 95
7, 124800, Note_off_c, 9, 36, 95
7, 124800, Note_on_c, 9, 49, 95
7, 126720, Note_off_c, 9, 49, 95
7, 126720, Note_on_c, 9, 49, 95
7, 126960, Note_off_c, 9, 49, 95
7, 126960, Note_on_c, 9, 45, 95
7, 127440, Note_off_c, 9, 45, 95
7, 127440, Note_on_c, 9, 45, 95
7, 127920, Note_off_c, 9, 45, 95
7, 127920, Note_on_c, 9, 45, 95
7, 128160, Note_off_c, 9, 45, 95
7, 128160, Note_on_c, 9, 43, 95
7, 128400, Note_off_c, 9, 43, 95
7, 128400, Note_on_c, 9, 43, 95
7, 128640, Note_off_c, 9, 43, 95
7, 128640, Note_on_c, 9, 49, 95
7, 128640, Note_on_c, 9, 36, 95
7, 129120, Note_off_c, 9, 49, 95
7, 129120, Note_off_c, 9, 36, 95
7, 129120, Note_on_c, 9, 44, 95
7, 129360, Note_off_c, 9, 44, 95
7, 129360, Note_on_c, 9, 44, 95
7, 129600, Note_off_c, 9, 44, 95
7, 129600, Note_on_c, 9, 44, 95
7, 129600, Note_on_c, 9, 40, 95
7, 129840, Note_off_c, 9, 44, 95
7, 129840, Note_off_c, 9, 40, 95
7, 129840, Note_on_c, 9, 44, 95
7, 130080, Note_off_c, 9, 44, 95
7, 130080, Note_on_c, 9, 44, 95
7, 130320, Note_off_c, 9, 44, 95
7, 130320, Note_on_c, 9, 44, 95
7, 130320, Note_on_c, 9, 36, 95
7, 130560, Note_off_c, 9, 44, 95
7, 130560, Note_off_c, 9, 36, 95
7, 130560, Note_on_c, 9, 44, 95
7, 130800, Note_off_c, 9, 44, 95
7, 130800, Note_on_c, 9, 44, 95
7, 130800, Note_on_c, 9, 36, 95
7, 131040, Note_off_c, 9, 44, 95
7, 131040, Note_off_c, 9, 36, 95
7, 131040, Note_on_c, 9, 44, 95
7, 131280, Note_off_c, 9, 44, 95
7, 131280, Note_on_c, 9, 44, 95
7, 131280, Note_on_c, 9, 36, 95
7, 131520, Note_off_c, 9, 44, 95
7, 131520, Note_off_c, 9, 36, 95
7, 131520, Note_on_c, 9, 44, 95
7, 131520, Note_on_c, 9, 40, 95
7, 131760, Note_off_c, 9, 44, 95
7, 131760, Note_off_c, 9, 40, 95
7, 131760, Note_on_c, 9, 44, 95
7, 132000, Note_off_c, 9, 44, 95
7, 132000, Note_on_c, 9, 44, 95
7, 132240, Note_off_c, 9, 44, 95
7, 132240, Note_on_c, 9, 44, 95
7, 132240, Note_on_c, 9, 36, 95
7, 132480, Note_off_c, 9, 44, 95
7, 132480, Note_off_c, 9, 36, 95
7, 132480, Note_on_c, 9, 44, 95
7, 132480, Note_on_c, 9, 36, 95
7, 132720, Note_off_c, 9, 44, 95
7, 132720, Note_off_c, 9, 36, 95
7, 132720, Note_on_c, 9, 44, 95
7, 132960, Note_off_c, 9, 44, 95
7, 132960, Note_on_c, 9, 44, 95
7, 133200, Note_off_c, 9, 44, 95
7, 133200, Note_on_c, 9, 44, 95
7, 133440, Note_off_c, 9, 44, 95
7, 133440, Note_on_c, 9, 44, 95
7, 133440, Note_on_c, 9, 40, 95
7, 133680, Note_off_c, 9, 44, 95
7, 133680, Note_off_c, 9, 40, 95
7, 133680, Note_on_c, 9, 44, 95
7, 133920, Note_off_c, 9, 44, 95
7, 133920, Note_on_c, 9, 44, 95
7, 134160, Note_off_c, 9, 44, 95
7, 134160, Note_on_c, 9, 44, 95
7, 134160, Note_on_c, 9, 36, 95
7, 134400, Note_off_c, 9, 44, 95
7, 134400, Note_off_c, 9, 36, 95
7, 134400, Note_on_c, 9, 44, 95
7, 134640, Note_off_c, 9, 44, 95
7, 134640, Note_on_c, 9, 44, 95
7, 134640, Note_on_c, 9, 36, 95
7, 134880, Note_off_c, 9, 44, 95
7, 134880, Note_off_c, 9, 36, 95
7, 134880, Note_on_c, 9, 44, 95
7, 135120, Note_off_c, 9, 44, 95
7, 135120, Note_on_c, 9, 44, 95
7, 135120, Note_on_c, 9, 36, 95
7, 135360, Note_off_c, 9, 44, 95
7, 135360, Note_off_c, 9, 36, 95
7, 135360, Note_on_c, 9, 44, 95
7, 135360, Note_on_c, 9, 40, 95
7, 135600, Note_off_c, 9, 44, 95
7, 135600, Note_off_c, 9, 40, 95
7, 135600, Note_on_c, 9, 44, 95
7, 135840, Note_off_c, 9, 44, 95
7, 135840, Note_on_c, 9, 44, 95
7, 136080, Note_off_c, 9, 44, 95
7, 136080, Note_on_c, 9, 44, 95
7, 136080, Note_on_c, 9, 36, 95
7, 136320, Note_off_c, 9, 44, 95
7, 136320, Note_off_c, 9, 36, 95
7, 136320, Note_on_c, 9, 44, 95
7, 136320, Note_on_c, 9, 36, 95
7, 136560, Note_off_c, 9, 44, 95
7, 136560, Note_off_c, 9, 36, 95
7, 136560, Note_on_c, 9, 44, 95
7, 136800, Note_off_c, 9, 44, 95
7, 136800, Note_on_c, 9, 44, 95
7, 137040, Note_off_c, 9, 44, 95
7, 137040, Note_on_c, 9, 44, 95
7, 137280, Note_off_c, 9, 44, 95
7, 137280, Note_on_c, 9, 44, 95
7, 137280, Note_on_c, 9, 40, 95
7, 137520, Note_off_c, 9, 44, 95
7, 137520, Note_off_c, 9, 40, 95
7, 137520, Note_on_c, 9, 44, 95
7, 137760, Note_off_c, 9, 44, 95
7, 137760, Note_on_c, 9, 44, 95
7, 138000, Note_off_c, 9, 44, 95
7, 138000, Note_on_c, 9, 44, 95
7, 138000, Note_on_c, 9, 36, 95
7, 138240, Note_off_c, 9, 44, 95
7, 138240, Note_off_c, 9, 36, 95
7, 138240, Note_on_c, 9, 44, 95
7, 138480, Note_off_c, 9, 44, 95
7, 138480, Note_on_c, 9, 44, 95
7, 138480, Note_on_c, 9, 36, 95
7, 138720, Note_off_c, 9, 44, 95
7, 138720, Note_off_c, 9, 36, 95
7, 138720, Note_on_c, 9, 44, 95
7, 138960, Note_off_c, 9, 44, 95
7, 138960, Note_on_c, 9, 44, 95
7, 138960, Note_on_c, 9, 36, 95
7, 139200, Note_off_c, 9, 44, 95
7, 139200, Note_off_c, 9, 36, 95
7, 139200, Note_on_c, 9, 44, 95
7, 139200, Note_on_c, 9, 40, 95
7, 139440, Note_off_c, 9, 44, 95
7, 139440, Note_off_c, 9, 40, 95
7, 139440, Note_on_c, 9, 44, 95
7, 139680, Note_off_c, 9, 44, 95
7, 139680, Note_on_c, 9, 44, 95
7, 139920, Note_off_c, 9, 44, 95
7, 139920, Note_on_c, 9, 44, 95
7, 139920, Note_on_c, 9, 36, 95
7, 140160, Note_off_c, 9, 44, 95
7, 140160, Note_off_c, 9, 36, 95
7, 140160, Note_on_c, 9, 44, 95
7, 140160, Note_on_c, 9, 36, 95
7, 140400, Note_off_c, 9, 44, 95
7, 140400, Note_off_c, 9, 36, 95
7, 140400, Note_on_c, 9, 44, 95
7, 140640, Note_off_c, 9, 44, 95
7, 140640, Note_on_c, 9, 44, 95
7, 140880, Note_off_c, 9, 44, 95
7, 140880, Note_on_c, 9, 44, 95
7, 141120, Note_off_c, 9, 44, 95
7, 141120, Note_on_c, 9, 44, 95
7, 141120, Note_on_c, 9, 40, 95
7, 141360, Note_off_c, 9, 44, 95
7, 141360, Note_off_c, 9, 40, 95
7, 141360, Note_on_c, 9, 44, 95
7, 141600, Note_off_c, 9, 44, 95
7, 141600, Note_on_c, 9, 44, 95
7, 141840, Note_off_c, 9, 44, 95
7, 141840, Note_on_c, 9, 44, 95
7, 141840, Note_on_c, 9, 36, 95
7, 142080, Note_off_c, 9, 44, 95
7, 142080, Note_off_c, 9, 36, 95
7, 142080, Note_on_c, 9, 44, 95
7, 142080, Note_on_c, 9, 36, 95
7, 142320, Note_off_c, 9, 44, 95
7, 142320, Note_off_c, 9, 36, 95
7, 142320, Note_on_c, 9, 44, 95
7, 142560, Note_off_c, 9, 44, 95
7, 142560, Note_on_c, 9, 44, 95
7, 142800, Note_off_c, 9, 44, 95
7, 142800, Note_on_c, 9, 44, 95
7, 143040, Note_off_c, 9, 44, 95
7, 143040, Note_on_c, 9, 44, 95
7, 143040, Note_on_c, 9, 40, 95
7, 143280, Note_off_c, 9, 44, 95
7, 143280, Note_off_c, 9, 40, 95
7, 143280, Note_on_c, 9, 44, 95
7, 143520, Note_off_c, 9, 44, 95
7, 143520, Note_on_c, 9, 44, 95
7, 143760, Note_off_c, 9, 44, 95
7, 143760, Note_on_c, 9, 44, 95
7, 143760, Note_on_c, 9, 36, 95
7, 144000, Note_off_c, 9, 44, 95
7, 144000, Note_off_c, 9, 36, 95
7, 144000, Note_on_c, 9, 44, 95
7, 144240, Note_off_c, 9, 44, 95
7, 144240, Note_on_c, 9, 44, 95
7, 144240, Note_on_c, 9, 36, 95
7, 144480, Note_off_c, 9, 44, 95
7, 144480, Note_off_c, 9, 36, 95
7, 144480, Note_on_c, 9, 44, 95
7, 144720, Note_off_c, 9, 44, 95
7, 144720, Note_on_c, 9, 44, 95
7, 144720, Note_on_c, 9, 36, 95
7, 144960, Note_off_c, 9, 44, 95
7, 144960, Note_off_c, 9, 36, 95
7, 144960, Note_on_c, 9, 44, 95
7, 144960, Note_on_c, 9, 40, 95
7, 145200, Note_off_c, 9, 44, 95
7, 145200, Note_off_c, 9, 40, 95
7, 145200, Note_on_c, 9, 44, 95
7, 145440, Note_off_c, 9, 44, 95
7, 145440, Note_on_c, 9, 44, 95
7, 145680, Note_off_c, 9, 44, 95
7, 145680, Note_on_c, 9, 44, 95
7, 145680, Note_on_c, 9, 36, 95
7, 145920, Note_off_c, 9, 44, 95
7, 145920, Note_off_c, 9, 36, 95
7, 145920, Note_on_c, 9, 49, 95
7, 145920, Note_on_c, 9, 36, 95
7, 146400, Note_off_c, 9, 49, 95
7, 146400, Note_off_c, 9, 36, 95
7, 146400, Note_on_c, 9, 44, 95
7, 146640, Note_off_c, 9, 44, 95
7, 146640, Note_on_c, 9, 44, 95
7, 146880, Note_off_c, 9, 44, 95
7, 146880, Note_on_c, 9, 44, 95
7, 146880, Note_on_c, 9, 40, 95
7, 147120, Note_off_c, 9, 44, 95
7, 147120, Note_off_c, 9, 40, 95
7, 147120, Note_on_c, 9, 44, 95
7, 147360, Note_off_c, 9, 44, 95
7, 147360, Note_on_c, 9, 44, 95
7, 147600, Note_off_c, 9, 44, 95
7, 147600, Note_on_c, 9, 44, 95
7, 147600, Note_on_c, 9, 36, 95
7, 147840, Note_off_c, 9, 44, 95
7, 147840, Note_off_c, 9, 36, 95
7, 147840, Note_on_c, 9, 44, 95
7, 148080, Note_off_c, 9, 44, 95
7, 148080, Note_on_c, 9, 44, 95
7, 148080, Note_on_c, 9, 36, 95
7, 148320, Note_off_c, 9, 44, 95
7, 148320, Note_off_c, 9, 36, 95
7, 148320, Note_on_c, 9, 44, 95
7, 148560, Note_off_c, 9, 44, 95
7, 148560, Note_on_c, 9, 44, 95
7, 148560, Note_on_c, 9, 36, 95
7, 148800, Note_off_c, 9, 44, 95
7, 148800, Note_off_c, 9, 36, 95
7, 148800, Note_on_c, 9, 44, 95
7, 148800, Note_on_c, 9, 40, 95
7, 149040, Note_off_c, 9, 44, 95
7, 149040, Note_off_c, 9, 40, 95
7, 149040, Note_on_c, 9, 44, 95
7, 149280, Note_off_c, 9, 44, 95
7, 149280, Note_on_c, 9, 44, 95
7, 149520, Note_off_c, 9, 44, 95
7, 149520, Note_on_c, 9, 44, 95
7, 149520, Note_on_c, 9, 36, 95
7, 149760, Note_off_c, 9, 44, 95
7, 149760, Note_off_c, 9, 36, 95
7, 149760, Note_on_c, 9, 44, 95
7, 149760, Note_on_c, 9, 36, 95
7, 150000, Note_off_c, 9, 44, 95
7, 150000, Note_off_c, 9, 36, 95
7, 150000, Note_on_c, 9, 44, 95
7, 150240, Note_off_c, 9, 44, 95
7, 150240, Note_on_c, 9, 44, 95
7, 150480, Note_off_c, 9, 44, 95
7, 150480, Note_on_c, 9, 44, 95
7, 150720, Note_off_c, 9, 44, 95
7, 150720, Note_on_c, 9, 44, 95
7, 150720, Note_on_c, 9, 40, 95
7, 150960, Note_off_c, 9, 44, 95
7, 150960, Note_off_c, 9, 40, 95
7, 150960, Note_on_c, 9, 44, 95
7, 151200, Note_off_c, 9, 44, 95
7, 151200, Note_on_c, 9, 44, 95
7, 151440, Note_off_c, 9, 44, 95
7, 151440, Note_on_c, 9, 44, 95
7, 151440, Note_on_c, 9, 36, 95
7, 151680, Note_off_c, 9, 44, 95
7, 151680, Note_off_c, 9, 36, 95
7, 151680, Note_on_c, 9, 44, 95
7, 151920, Note_off_c, 9, 44, 95
7, 151920, Note_on_c, 9, 44, 95
7, 151920, Note_on_c, 9, 36, 95
7, 152160, Note_off_c, 9, 44, 95
7, 152160, Note_off_c, 9, 36, 95
7, 152160, Note_on_c, 9, 44, 95
7, 152400, Note_off_c, 9, 44, 95
7, 152400, Note_on_c, 9, 44, 95
7, 152400, Note_on_c, 9, 36, 95
7, 152640, Note_off_c, 9, 44, 95
7, 152640, Note_off_c, 9, 36, 95
7, 152640, Note_on_c, 9, 44, 95
7, 152640, Note_on_c, 9, 40, 95
7, 152880, Note_off_c, 9, 44, 95
7, 152880, Note_off_c, 9, 40, 95
7, 152880, Note_on_c, 9, 44, 95
7, 153120, Note_off_c, 9, 44, 95
7, 153120, Note_on_c, 9, 44, 95
7, 153360, Note_off_c, 9, 44, 95
7, 153360, Note_on_c, 9, 44, 95
7, 153360, Note_on_c, 9, 36, 95
7, 153600, Note_off_c, 9, 44, 95
7, 153600, Note_off_c, 9, 36, 95
7, 153600, Note_on_c, 9, 44, 95
7, 153600, Note_on_c, 9, 36, 95
7, 153840, Note_off_c, 9, 44, 95
7, 153840, Note_off_c, 9, 36, 95
7, 153840, Note_on_c, 9, 44, 95
7, 154080, Note_off_c, 9, 44, 95
7, 154080, Note_on_c, 9, 44, 95
7, 154320, Note_off_c, 9, 44, 95
7, 154320, Note_on_c, 9, 44, 95
7, 154560, Note_off_c, 9, 44, 95
7, 154560, Note_on_c, 9, 44, 95
7, 154560, Note_on_c, 9, 40, 95
7, 154800, Note_off_c, 9, 44, 95
7, 154800, Note_off_c, 9, 40, 95
7, 154800, Note_on_c, 9, 44, 95
7, 155040, Note_off_c, 9, 44, 95
7, 155040, Note_on_c, 9, 44, 95
7, 155280, Note_off_c, 9, 44, 95
7, 155280, Note_on_c, 9, 44, 95
7, 155280, Note_on_c, 9, 36, 95
7, 155520, Note_off_c, 9, 44, 95
7, 155520, Note_off_c, 9, 36, 95
7, 155520, Note_on_c, 9, 44, 95
7, 155760, Note_off_c, 9, 44, 95
7, 155760, Note_on_c, 9, 44, 95
7, 155760, Note_on_c, 9, 36, 95
7, 156000, Note_off_c, 9, 44, 95
7, 156000, Note_off_c, 9, 36, 95
7, 156000, Note_on_c, 9, 44, 95
7, 156240, Note_off_c, 9, 44, 95
7, 156240, Note_on_c, 9, 44, 95
7, 156240, Note_on_c, 9, 36, 95
7, 156480, Note_off_c, 9, 44, 95
7, 156480, Note_off_c, 9, 36, 95
7, 156480, Note_on_c, 9, 44, 95
7, 156480, Note_on_c, 9, 40, 95
7, 156720, Note_off_c, 9, 44, 95
7, 156720, Note_off_c, 9, 40, 95
7, 156720, Note_on_c, 9, 44, 95
7, 156960, Note_off_c, 9, 44, 95
7, 156960, Note_on_c, 9, 44, 95
7, 157200, Note_off_c, 9, 44, 95
7, 157200, Note_on_c, 9, 44, 95
7, 157200, Note_on_c, 9, 36, 95
7, 157440, Note_off_c, 9, 44, 95
7, 157440, Note_off_c, 9, 36, 95
7, 157440, Note_on_c, 9, 44, 95
7, 157440, Note_on_c, 9, 36, 95
7, 157680, Note_off_c, 9, 44, 95
7, 157680, Note_off_c, 9, 36, 95
7, 157680, Note_on_c, 9, 44, 95
7, 157920, Note_off_c, 9, 44, 95
7, 157920, Note_on_c, 9, 44, 95
7, 158160, Note_off_c, 9, 44, 95
7, 158160, Note_on_c, 9, 44, 95
7, 158400, Note_off_c, 9, 44, 95
7, 158400, Note_on_c, 9, 44, 95
7, 158400, Note_on_c, 9, 40, 95
7, 158640, Note_off_c, 9, 44, 95
7, 158640, Note_off_c, 9, 40, 95
7, 158640, Note_on_c, 9, 44, 95
7, 158880, Note_off_c, 9, 44, 95
7, 158880, Note_on_c, 9, 44, 95
7, 159120, Note_off_c, 9, 44, 95
7, 159120, Note_on_c, 9, 44, 95
7, 159120, Note_on_c, 9, 36, 95
7, 159360, Note_off_c, 9, 44, 95
7, 159360, Note_off_c, 9, 36, 95
7, 159360, Note_on_c, 9, 44, 95
7, 159360, Note_on_c, 9, 36, 95
7, 159600, Note_off_c, 9, 44, 95
7, 159600, Note_off_c, 9, 36, 95
7, 159600, Note_on_c, 9, 44, 95
7, 159840, Note_off_c, 9, 44, 95
7, 159840, Note_on_c, 9, 44, 95
7, 160080, Note_off_c, 9, 44, 95
7, 160080, Note_on_c, 9, 44, 95
7, 160320, Note_off_c, 9, 44, 95
7, 160320, Note_on_c, 9, 44, 95
7, 160320, Note_on_c, 9, 40, 95
7, 160560, Note_off_c, 9, 44, 95
7, 160560, Note_off_c, 9, 40, 95
7, 160560, Note_on_c, 9, 44, 95
7, 160800, Note_off_c, 9, 44, 95
7, 160800, Note_on_c, 9, 44, 95
7, 161040, Note_off_c, 9, 44, 95
7, 161040, Note_on_c, 9, 44, 95
7, 161040, Note_on_c, 9, 36, 95
7, 161280, Note_off_c, 9, 44, 95
7, 161280, Note_off_c, 9, 36, 95
7, 161280, Note_on_c, 9, 44, 95
7, 161520, Note_off_c, 9, 44, 95
7, 161520, Note_on_c, 9, 44, 95
7, 161520, Note_on_c, 9, 36, 95
7, 161760, Note_off_c, 9, 44, 95
7, 161760, Note_off_c, 9, 36, 95
7, 161760, Note_on_c, 9, 44, 95
7, 162000, Note_off_c, 9, 44, 95
7, 162000, Note_on_c, 9, 44, 95
7, 162000, Note_on_c, 9, 36, 95
7, 162240, Note_off_c, 9, 44, 95
7, 162240, Note_off_c, 9, 36, 95
7, 162240, Note_on_c, 9, 44, 95
7, 162240, Note_on_c, 9, 40, 95
7, 162480, Note_off_c, 9, 44, 95
7, 162480, Note_off_c, 9, 40, 95
7, 162480, Note_on_c, 9, 44, 95
7, 162720, Note_off_c, 9, 44, 95
7, 162720, Note_on_c, 9, 44, 95
7, 162960, Note_off_c, 9, 44, 95
7, 162960, Note_on_c, 9, 44, 95
7, 162960, Note_on_c, 9, 36, 95
7, 163200, Note_off_c, 9, 44, 95
7, 163200, Note_off_c, 9, 36, 95
7, 163200, Note_on_c, 9, 44, 95
7, 163200, Note_on_c, 9, 36, 95
7, 163440, Note_off_c, 9, 44, 95
7, 163440, Note_off_c, 9, 36, 95
7, 163440, Note_on_c, 9, 44, 95
7, 163680, Note_off_c, 9, 44, 95
7, 163680, Note_on_c, 9, 44, 95
7, 163920, Note_off_c, 9, 44, 95
7, 163920, Note_on_c, 9, 44, 95
7, 164160, Note_off_c, 9, 44, 95
7, 164160, Note_on_c, 9, 44, 95
7, 164160, Note_on_c, 9, 40, 95
7, 164400, Note_off_c, 9, 44, 95
7, 164400, Note_off_c, 9, 40, 95
7, 164400, Note_on_c, 9, 44, 95
7, 164640, Note_off_c, 9, 44, 95
7, 164640, Note_on_c, 9, 44, 95
7, 164880, Note_off_c, 9, 44, 95
7, 164880, Note_on_c, 9, 44, 95
7, 164880, Note_on_c, 9, 36, 95
7, 165120, Note_off_c, 9, 44, 95
7, 165120, Note_off_c, 9, 36, 95
7, 165120, Note_on_c, 9, 44, 95
7, 165360, Note_off_c, 9, 44, 95
7, 165360, Note_on_c, 9, 44, 95
7, 165360, Note_on_c, 9, 36, 95
7, 165600, Note_off_c, 9, 44, 95
7, 165600, Note_off_c, 9, 36, 95
7, 165600, Note_on_c, 9, 44, 95
7, 165840, Note_off_c, 9, 44, 95
7, 165840, Note_on_c, 9, 44, 95
7, 165840, Note_on_c, 9, 36, 95
7, 166080, Note_off_c, 9, 44, 95
7, 166080, Note_off_c, 9, 36, 95
7, 166080, Note_on_c, 9, 44, 95
7, 166080, Note_on_c, 9, 40, 95
7, 166320, Note_off_c, 9, 44, 95
7, 166320, Note_off_c, 9, 40, 95
7, 166320, Note_on_c, 9, 44, 95
7, 166560, Note_off_c, 9, 44, 95
7, 166560, Note_on_c, 9, 44, 95
7, 166800, Note_off_c, 9, 44, 95
7, 166800, Note_on_c, 9, 44, 95
7, 166800, Note_on_c, 9, 36, 95
7, 167040, Note_off_c, 9, 44, 95
7, 167040, Note_off_c, 9, 36, 95
7, 167040, Note_on_c, 9, 49, 95
7, 167040, Note_on_c, 9, 36, 95
7, 167520, Note_off_c, 9, 49, 95
7, 167520, Note_off_c, 9, 36, 95
7, 167520, Note_on_c, 9, 44, 95
7, 167760, Note_off_c, 9, 44, 95
7, 167760, Note_on_c, 9, 44, 95
7, 168000, Note_off_c, 9, 44, 95
7, 168000, Note_on_c, 9, 44, 95
7, 168000, Note_on_c, 9, 40, 95
7, 168240, Note_off_c, 9, 44, 95
7, 168240, Note_off_c, 9, 40, 95
7, 168240, Note_on_c, 9, 44, 95
7, 168480, Note_off_c, 9, 44, 95
7, 168480, Note_on_c, 9, 44, 95
7, 168720, Note_off_c, 9, 44, 95
7, 168720, Note_on_c, 9, 44, 95
7, 168720, Note_on_c, 9, 36, 95
7, 168960, Note_off_c, 9, 44, 95
7, 168960, Note_off_c, 9, 36, 95
7, 168960, Note_on_c, 9, 44, 95
7, 169200, Note_off_c, 9, 44, 95
7, 169200, Note_on_c, 9, 44, 95
7, 169200, Note_on_c, 9, 36, 95
7, 169440, Note_off_c, 9, 44, 95
7, 169440, Note_off_c, 9, 36, 95
7, 169440, Note_on_c, 9, 44, 95
7, 169680, Note_off_c, 9, 44, 95
7, 169680, Note_on_c, 9, 44, 95
7, 169680, Note_on_c, 9, 36, 95
7, 169920, Note_off_c, 9, 44, 95
7, 169920, Note_off_c, 9, 36, 95
7, 169920, Note_on_c, 9, 44, 95
7, 169920, Note_on_c, 9, 40, 95
7, 170400, Note_off_c, 9, 44, 95
7, 170400, Note_off_c, 9, 40, 95
7, 170400, Note_on_c, 9, 46, 95
7, 170400, Note_on_c, 9, 36, 95
7, 170880, Note_off_c, 9, 46, 95
7, 170880, Note_off_c, 9, 36, 95
7, 170880, Note_on_c, 9, 44, 95
7, 170880, Note_on_c, 9, 36, 95
7, 171120, Note_off_c, 9, 44, 95
7, 171120, Note_off_c, 9, 36, 95
7, 171120, Note_on_c, 9, 44, 95
7, 171360, Note_off_c, 9, 44, 95
7, 171360, Note_on_c, 9, 44, 95
7, 171600, Note_off_c, 9, 44, 95
7, 171600, Note_on_c, 9, 44, 95
7, 171840, Note_off_c, 9, 44, 95
7, 171840, Note_on_c, 9, 44, 95
7, 171840, Note_on_c, 9, 40, 95
7, 172080, Note_off_c, 9, 44, 95
7, 172080, Note_off_c, 9, 40, 95
7, 172080, Note_on_c, 9, 44, 95
7, 172320, Note_off_c, 9, 44, 95
7, 172320, Note_on_c, 9, 44, 95
7, 172560, Note_off_c, 9, 44, 95
7, 172560, Note_on_c, 9, 44, 95
7, 172560, Note_on_c, 9, 36, 95
7, 172800, Note_off_c, 9, 44, 95
7, 172800, Note_off_c, 9, 36, 95
7, 172800, Note_on_c, 9, 44, 95
7, 173040, Note_off_c, 9, 44, 95
7, 173040, Note_on_c, 9, 44, 95
7, 173040, Note_on_c, 9, 36, 95
7, 173280, Note_off_c, 9, 44, 95
7, 173280, Note_off_c, 9, 36, 95
7, 173280, Note_on_c, 9, 44, 95
7, 173520, Note_off_c, 9, 44, 95
7, 173520, Note_on_c, 9, 44, 95
7, 173520, Note_on_c, 9, 36, 95
7, 173760, Note_off_c, 9, 44, 95
7, 173760, Note_off_c, 9, 36, 95
7, 173760, Note_on_c, 9, 44, 95
7, 173760, Note_on_c, 9, 40, 95
7, 174240, Note_off_c, 9, 44, 95
7, 174240, Note_off_c, 9, 40, 95
7, 174240, Note_on_c, 9, 46, 95
7, 174240, Note_on_c, 9, 36, 95
7, 174720, Note_off_c, 9, 46, 95
7, 174720, Note_off_c, 9, 36, 95
7, 174720, Note_on_c, 9, 44, 95
7, 174720, Note_on_c, 9, 36, 95
7, 174960, Note_off_c, 9, 44, 95
7, 174960, Note_off_c, 9, 36, 95
7, 174960, Note_on_c, 9, 44, 95
7, 175200, Note_off_c, 9, 44, 95
7, 175200, Note_on_c, 9, 44, 95
7, 175440, Note_off_c, 9, 44, 95
7, 175440, Note_on_c, 9, 44, 95
7, 175680, Note_off_c, 9, 44, 95
7, 175680, Note_on_c, 9, 44, 95
7, 175680, Note_on_c, 9, 40, 95
7, 175920, Note_off_c, 9, 44, 95
7, 175920, Note_off_c, 9, 40, 95
7, 175920, Note_on_c, 9, 44, 95
7, 176160, Note_off_c, 9, 44, 95
7, 176160, Note_on_c, 9, 44, 95
7, 176400, Note_off_c, 9, 44, 95
7, 176400, Note_on_c, 9, 44, 95
7, 176400, Note_on_c, 9, 36, 95
7, 176640, Note_off_c, 9, 44, 95
7, 176640, Note_off_c, 9, 36, 95
7, 176640, Note_on_c, 9, 44, 95
7, 176880, Note_off_c, 9, 44, 95
7, 176880, Note_on_c, 9, 44, 95
7, 176880, Note_on_c, 9, 36, 95
7, 177120, Note_off_c, 9, 44, 95
7, 177120, Note_off_c, 9, 36, 95
7, 177120, Note_on_c, 9, 44, 95
7, 177360, Note_off_c, 9, 44, 95
7, 177360, Note_on_c, 9, 44, 95
7, 177360, Note_on_c, 9, 36, 95
7, 177600, Note_off_c, 9, 44, 95
7, 177600, Note_off_c, 9, 36, 95
7, 177600, Note_on_c, 9, 44, 95
7, 177600, Note_on_c, 9, 40, 95
7, 178080, Note_off_c, 9, 44, 95
7, 178080, Note_off_c, 9, 40, 95
7, 178080, Note_on_c, 9, 46, 95
7, 178080, Note_on_c, 9, 36, 95
7, 178560, Note_off_c, 9, 46, 95
7, 178560, Note_off_c, 9, 36, 95
7, 178560, Note_on_c, 9, 44, 95
7, 178560, Note_on_c, 9, 36, 95
7, 178800, Note_off_c, 9, 44, 95
7, 178800, Note_off_c, 9, 36, 95
7, 178800, Note_on_c, 9, 44, 95
7, 179040, Note_off_c, 9, 44, 95
7, 179040, Note_on_c, 9, 44, 95
7, 179280, Note_off_c, 9, 44, 95
7, 179280, Note_on_c, 9, 44, 95
7, 179520, Note_off_c, 9, 44, 95
7, 179520, Note_on_c, 9, 44, 95
7, 179520, Note_on_c, 9, 40, 95
7, 179760, Note_off_c, 9, 44, 95
7, 179760, Note_off_c, 9, 40, 95
7, 179760, Note_on_c, 9, 44, 95
7, 180000, Note_off_c, 9, 44, 95
7, 180000, Note_on_c, 9, 44, 95
7, 180240, Note_off_c, 9, 44, 95
7, 180240, Note_on_c, 9, 44, 95
7, 180240, Note_on_c, 9, 36, 95
7, 180480, Note_off_c, 9, 44, 95
7, 180480, Note_off_c, 9, 36, 95
7, 180480, Note_on_c, 9, 44, 95
7, 180720, Note_off_c, 9, 44, 95
7, 180720, Note_on_c, 9, 44, 95
7, 180720, Note_on_c, 9, 36, 95
7, 180960, Note_off_c, 9, 44, 95
7, 180960, Note_off_c, 9, 36, 95
7, 180960, Note_on_c, 9, 44, 95
7, 181200, Note_off_c, 9, 44, 95
7, 181200, Note_on_c, 9, 44, 95
7, 181200, Note_on_c, 9, 36, 95
7, 181440, Note_off_c, 9, 44, 95
7, 181440, Note_off_c, 9, 36, 95
7, 181440, Note_on_c, 9, 40, 95
7, 181680, Note_off_c, 9, 40, 95
7, 181680, Note_on_c, 9, 40, 95
7, 181800, Note_off_c, 9, 40, 95
7, 181800, Note_on_c, 9, 40, 95
7, 181919, Note_off_c, 9, 40, 95
7, 181920, Note_on_c, 9, 40, 95
7, 182160, Note_off_c, 9, 40, 95
7, 182160, Note_on_c, 9, 40, 95
7, 182400, Note_off_c, 9, 40, 95
7, 182400, Note_on_c, 9, 44, 95
7, 182400, Note_on_c, 9, 36, 95
7, 182640, Note_off_c, 9, 44, 95
7, 182640, Note_off_c, 9, 36, 95
7, 182640, Note_on_c, 9, 44, 95
7, 182880, Note_off_c, 9, 44, 95
7, 182880, Note_on_c, 9, 44, 95
7, 183120, Note_off_c, 9, 44, 95
7, 183120, Note_on_c, 9, 44, 95
7, 183360, Note_off_c, 9, 44, 95
7, 183360, Note_on_c, 9, 44, 95
7, 183360, Note_on_c, 9, 40, 95
7, 183600, Note_off_c, 9, 44, 95
7, 183600, Note_off_c, 9, 40, 95
7, 183600, Note_on_c, 9, 44, 95
7, 183840, Note_off_c, 9, 44, 95
7, 183840, Note_on_c, 9, 44, 95
7, 184080, Note_off_c, 9, 44, 95
7, 184080, Note_on_c, 9, 44, 95
7, 184080, Note_on_c, 9, 36, 95
7, 184320, Note_off_c, 9, 44, 95
7, 184320, Note_off_c, 9, 36, 95
7, 184320, Note_on_c, 9, 44, 95
7, 184560, Note_off_c, 9, 44, 95
7, 184560, Note_on_c, 9, 44, 95
7, 184560, Note_on_c, 9, 36, 95
7, 184800, Note_off_c, 9, 44, 95
7, 184800, Note_off_c, 9, 36, 95
7, 184800, Note_on_c, 9, 44, 95
7, 185040, Note_off_c, 9, 44, 95
7, 185040, Note_on_c, 9, 44, 95
7, 185040, Note_on_c, 9, 36, 95
7, 185280, Note_off_c, 9, 44, 95
7, 185280, Note_off_c, 9, 36, 95
7, 185280, Note_on_c, 9, 44, 95
7, 185280, Note_on_c, 9, 40, 95
7, 185760, Note_off_c, 9, 44, 95
7, 185760, Note_off_c, 9, 40, 95
7, 185760, Note_on_c, 9, 46, 95
7, 185760, Note_on_c, 9, 36, 95
7, 186240, Note_off_c, 9, 46, 95
7, 186240, Note_off_c, 9, 36, 95
7, 186240, Note_on_c, 9, 44, 95
7, 186240, Note_on_c, 9, 36, 95
7, 186480, Note_off_c, 9, 44, 95
7, 186480, Note_off_c, 9, 36, 95
7, 186480, Note_on_c, 9, 44, 95
7, 186720, Note_off_c, 9, 44, 95
7, 186720, Note_on_c, 9, 44, 95
7, 186960, Note_off_c, 9, 44, 95
7, 186960, Note_on_c, 9, 44, 95
7, 187200, Note_off_c, 9, 44, 95
7, 187200, Note_on_c, 9, 44, 95
7, 187200, Note_on_c, 9, 40, 95
7, 187440, Note_off_c, 9, 44, 95
7, 187440, Note_off_c, 9, 40, 95
7, 187440, Note_on_c, 9, 44, 95
7, 187680, Note_off_c, 9, 44, 95
7, 187680, Note_on_c, 9, 44, 95
7, 187920, Note_off_c, 9, 44, 95
7, 187920, Note_on_c, 9, 44, 95
7, 187920, Note_on_c, 9, 36, 95
7, 188160, Note_off_c, 9, 44, 95
7, 188160, Note_off_c, 9, 36, 95
7, 188160, Note_on_c, 9, 49, 95
7, 190080, Note_off_c, 9, 49, 95
7, 190080, Note_on_c, 9, 49, 95
7, 190320, Note_off_c, 9, 49, 95
7, 190320, Note_on_c, 9, 45, 95
7, 190800, Note_off_c, 9, 45, 95
7, 190800, Note_on_c, 9, 45, 95
7, 191280, Note_off_c, 9, 45, 95
7, 191280, Note_on_c, 9, 45, 95
7, 191520, Note_off_c, 9, 45, 95
7, 191520, Note_on_c, 9, 43, 95
7, 191760, Note_off_c, 9, 43, 95
7, 191760, Note_on_c, 9, 43, 95
7, 192000, Note_off_c, 9, 43, 95
7, 192000, Note_on_c, 9, 49, 95
7, 192000, Note_on_c, 9, 36, 95
7, 192480, Note_off_c, 9, 49, 95
7, 192480, Note_off_c, 9, 36, 95
7, 192480, Note_on_c, 9, 44, 95
7, 192720, Note_off_c, 9, 44, 95
7, 192720, Note_on_c, 9, 44, 95
7, 192960, Note_off_c, 9, 44, 95
7, 192960, Note_on_c, 9, 44, 95
7, 192960, Note_on_c, 9, 40, 95
7, 193200, Note_off_c, 9, 44, 95
7, 193200, Note_off_c, 9, 40, 95
7, 193200, Note_on_c, 9, 44, 95
7, 193440, Note_off_c, 9, 44, 95
7, 193440, Note_on_c, 9, 44, 95
7, 193680, Note_off_c, 9, 44, 95
7, 193680, Note_on_c, 9, 44, 95
7, 193680, Note_on_c, 9, 36, 95
7, 193920, Note_off_c, 9, 44, 95
7, 193920, Note_off_c, 9, 36, 95
7, 193920, Note_on_c, 9, 44, 95
7, 194160, Note_off_c, 9, 44, 95
7, 194160, Note_on_c, 9, 44, 95
7, 194160, Note_on_c, 9, 36, 95
7, 194400, Note_off_c, 9, 44, 95
7, 194400, Note_off_c, 9, 36, 95
7, 194400, Note_on_c, 9, 44, 95
7, 194640, Note_off_c, 9, 44, 95
7, 194640, Note_on_c, 9, 44, 95
7, 194640, Note_on_c, 9, 36, 95
7, 194880, Note_off_c, 9, 44, 95
7, 194880, Note_off_c, 9, 36, 95
7, 194880, Note_on_c, 9, 44, 95
7, 194880, Note_on_c, 9, 40, 95
7, 195120, Note_off_c, 9, 44, 95
7, 195120, Note_off_c, 9, 40, 95
7, 195120, Note_on_c, 9, 44, 95
7, 195360, Note_off_c, 9, 44, 95
7, 195360, Note_on_c, 9, 44, 95
7, 195600, Note_off_c, 9, 44, 95
7, 195600, Note_on_c, 9, 44, 95
7, 195600, Note_on_c, 9, 36, 95
7, 195840, Note_off_c, 9, 44, 95
7, 195840, Note_off_c, 9, 36, 95
7, 195840, Note_on_c, 9, 44, 95
7, 195840, Note_on_c, 9, 36, 95
7, 196080, Note_off_c, 9, 44, 95
7, 196080, Note_off_c, 9, 36, 95
7, 196080, Note_on_c, 9, 44, 95
7, 196320, Note_off_c, 9, 44, 95
7, 196320, Note_on_c, 9, 44, 95
7, 196560, Note_off_c, 9, 44, 95
7, 196560, Note_on_c, 9, 44, 95
7, 196800, Note_off_c, 9, 44, 95
7, 196800, Note_on_c, 9, 44, 95
7, 196800, Note_on_c, 9, 40, 95
7, 197040, Note_off_c, 9, 44, 95
7, 197040, Note_off_c, 9, 40, 95
7, 197040, Note_on_c, 9, 44, 95
7, 197280, Note_off_c, 9, 44, 95
7, 197280, Note_on_c, 9, 44, 95
7, 197520, Note_off_c, 9, 44, 95
7, 197520, Note_on_c, 9, 44, 95
7, 197520, Note_on_c, 9, 36, 95
7, 197760, Note_off_c, 9, 44, 95
7, 197760, Note_off_c, 9, 36, 95
7, 197760, Note_on_c, 9, 44, 95
7, 198000, Note_off_c, 9, 44, 95
7, 198000, Note_on_c, 9, 44, 95
7, 198000, Note_on_c, 9, 36, 95
7, 198240, Note_off_c, 9, 44, 95
7, 198240, Note_off_c, 9, 36, 95
7, 198240, Note_on_c, 9, 44, 95
7, 198480, Note_off_c, 9, 44, 95
7, 198480, Note_on_c, 9, 44, 95
7, 198480, Note_on_c, 9, 36, 95
7, 198720, Note_off_c, 9, 44, 95
7, 198720, Note_off_c, 9, 36, 95
7, 198720, Note_on_c, 9, 44, 95
7, 198720, Note_on_c, 9, 40, 95
7, 198960, Note_off_c, 9, 44, 95
7, 198960, Note_off_c, 9, 40, 95
7, 198960, Note_on_c, 9, 44, 95
7, 199200, Note_off_c, 9, 44, 95
7, 199200, Note_on_c, 9, 44, 95
7, 199440, Note_off_c, 9, 44, 95
7, 199440, Note_on_c, 9, 44, 95
7, 199440, Note_on_c, 9, 36, 95
7, 199680, Note_off_c, 9, 44, 95
7, 199680, Note_off_c, 9, 36, 95
7, 199680, Note_on_c, 9, 44, 95
7, 199680, Note_on_c, 9, 36, 95
7, 199920, Note_off_c, 9, 44, 95
7, 199920, Note_off_c, 9, 36, 95
7, 199920, Note_on_c, 9, 44, 95
7, 200160, Note_off_c, 9, 44, 95
7, 200160, Note_on_c, 9, 44, 95
7, 200400, Note_off_c, 9, 44, 95
7, 200400, Note_on_c, 9, 44, 95
7, 200640, Note_off_c, 9, 44, 95
7, 200640, Note_on_c, 9, 44, 95
7, 200640, Note_on_c, 9, 40, 95
7, 200880, Note_off_c, 9, 44, 95
7, 200880, Note_off_c, 9, 40, 95
7, 200880, Note_on_c, 9, 44, 95
7, 201120, Note_off_c, 9, 44, 95
7, 201120, Note_on_c, 9, 44, 95
7, 201360, Note_off_c, 9, 44, 95
7, 201360, Note_on_c, 9, 44, 95
7, 201360, Note_on_c, 9, 36, 95
7, 201600, Note_off_c, 9, 44, 95
7, 201600, Note_off_c, 9, 36, 95
7, 201600, Note_on_c, 9, 44, 95
7, 201840, Note_off_c, 9, 44, 95
7, 201840, Note_on_c, 9, 44, 95
7, 201840, Note_on_c, 9, 36, 95
7, 202080, Note_off_c, 9, 44, 95
7, 202080, Note_off_c, 9, 36, 95
7, 202080, Note_on_c, 9, 44, 95
7, 202320, Note_off_c, 9, 44, 95
7, 202320, Note_on_c, 9, 44, 95
7, 202320, Note_on_c, 9, 36, 95
7, 202560, Note_off_c, 9, 44, 95
7, 202560, Note_off_c, 9, 36, 95
7, 202560, Note_on_c, 9, 44, 95
7, 202560, Note_on_c, 9, 40, 95
7, 202800, Note_off_c, 9, 44, 95
7, 202800, Note_off_c, 9, 40, 95
7, 202800, Note_on_c, 9, 44, 95
7, 203040, Note_off_c, 9, 44, 95
7, 203040, Note_on_c, 9, 44, 95
7, 203280, Note_off_c, 9, 44, 95
7, 203280, Note_on_c, 9, 44, 95
7, 203280, Note_on_c, 9, 36, 95
7, 203520, Note_off_c, 9, 44, 95
7, 203520, Note_off_c, 9, 36, 95
7, 203520, Note_on_c, 9, 44, 95
7, 203520, Note_on_c, 9, 36, 95
7, 203760, Note_off_c, 9, 44, 95
7, 203760, Note_off_c, 9, 36, 95
7, 203760, Note_on_c, 9, 44, 95
7, 204000, Note_off_c, 9, 44, 95
7, 204000, Note_on_c, 9, 44, 95
7, 204240, Note_off_c, 9, 44, 95
7, 204240, Note_on_c, 9, 44, 95
7, 204480, Note_off_c, 9, 44, 95
7, 204480, Note_on_c, 9, 44, 95
7, 204480, Note_on_c, 9, 40, 95
7, 204720, Note_off_c, 9, 44, 95
7, 204720, Note_off_c, 9, 40, 95
7, 204720, Note_on_c, 9, 44, 95
7, 204960, Note_off_c, 9, 44, 95
7, 204960, Note_on_c, 9, 44, 95
7, 205200, Note_off_c, 9, 44, 95
7, 205200, Note_on_c, 9, 44, 95
7, 205200, Note_on_c, 9, 36, 95
7, 205440, Note_off_c, 9, 44, 95
7, 205440, Note_off_c, 9, 36, 95
7, 205440, Note_on_c, 9, 44, 95
7, 205440, Note_on_c, 9, 36, 95
7, 205680, Note_off_c, 9, 44, 95
7, 205680, Note_off_c, 9, 36, 95
7, 205680, Note_on_c, 9, 44, 95
7, 205920, Note_off_c, 9, 44, 95
7, 205920, Note_on_c, 9, 44, 95
7, 206160, Note_off_c, 9, 44, 95
7, 206160, Note_on_c, 9, 44, 95
7, 206400, Note_off_c, 9, 44, 95
7, 206400, Note_on_c, 9, 44, 95
7, 206400, Note_on_c, 9, 40, 95
7, 206640, Note_off_c, 9, 44, 95
7, 206640, Note_off_c, 9, 40, 95
7, 206640, Note_on_c, 9, 44, 95
7, 206880, Note_off_c, 9, 44, 95
7, 206880, Note_on_c, 9, 44, 95
7, 207120, Note_off_c, 9, 44, 95
7, 207120, Note_on_c, 9, 44, 95
7, 207120, Note_on_c, 9, 36, 95
7, 207360, Note_off_c, 9, 44, 95
7, 207360, Note_off_c, 9, 36, 95
7, 207360, Note_on_c, 9, 44, 95
7, 207600, Note_off_c, 9, 44, 95
7, 207600, Note_on_c, 9, 44, 95
7, 207600, Note_on_c, 9, 36, 95
7, 207840, Note_off_c, 9, 44, 95
7, 207840, Note_off_c, 9, 36, 95
7, 207840, Note_on_c, 9, 44, 95
7, 208080, Note_off_c, 9, 44, 95
7, 208080, Note_on_c, 9, 44, 95
7, 208080, Note_on_c, 9, 36, 95
7, 208320, Note_off_c, 9, 44, 95
7, 208320, Note_off_c, 9, 36, 95
7, 208320, Note_on_c, 9, 44, 95
7, 208320, Note_on_c, 9, 40, 95
7, 208560, Note_off_c, 9, 44, 95
7, 208560, Note_off_c, 9, 40, 95
7, 208560, Note_on_c, 9, 44, 95
7, 208800, Note_off_c, 9, 44, 95
7, 208800, Note_on_c, 9, 44, 95
7, 209040, Note_off_c, 9, 44, 95
7, 209040, Note_on_c, 9, 44, 95
7, 209040, Note_on_c, 9, 36, 95
7, 209280, Note_off_c, 9, 44, 95
7, 209280, Note_off_c, 9, 36, 95
7, 209280, Note_on_c, 9, 49, 95
7, 209280, Note_on_c, 9, 36, 95
7, 209760, Note_off_c, 9, 49, 95
7, 209760, Note_off_c, 9, 36, 95
7, 209760, Note_on_c, 9, 44, 95
7, 210000, Note_off_c, 9, 44, 95
7, 210000, Note_on_c, 9, 44, 95
7, 210240, Note_off_c, 9, 44, 95
7, 210240, Note_on_c, 9, 44, 95
7, 210240, Note_on_c, 9, 40, 95
7, 210480, Note_off_c, 9, 44, 95
7, 210480, Note_off_c, 9, 40, 95
7, 210480, Note_on_c, 9, 44, 95
7, 210720, Note_off_c, 9, 44, 95
7, 210720, Note_on_c, 9, 44, 95
7, 210960, Note_off_c, 9, 44, 95
7, 210960, Note_on_c, 9, 44, 95
7, 210960, Note_on_c, 9, 36, 95
7, 211200, Note_off_c, 9, 44, 95
7, 211200, Note_off_c, 9, 36, 95
7, 211200, Note_on_c, 9, 44, 95
7, 211440, Note_off_c, 9, 44, 95
7, 211440, Note_on_c, 9, 44, 95
7, 211440, Note_on_c, 9, 36, 95
7, 211680, Note_off_c, 9, 44, 95
7, 211680, Note_off_c, 9, 36, 95
7, 211680, Note_on_c, 9, 44, 95
7, 211920, Note_off_c, 9, 44, 95
7, 211920, Note_on_c, 9, 44, 95
7, 211920, Note_on_c, 9, 36, 95
7, 212160, Note_off_c, 9, 44, 95
7, 212160, Note_off_c, 9, 36, 95
7, 212160, Note_on_c, 9, 44, 95
7, 212160, Note_on_c, 9, 40, 95
7, 212400, Note_off_c, 9, 44, 95
7, 212400, Note_off_c, 9, 40, 95
7, 212400, Note_on_c, 9, 44, 95
7, 212640, Note_off_c, 9, 44, 95
7, 212640, Note_on_c, 9, 44, 95
7, 212880, Note_off_c, 9, 44, 95
7, 212880, Note_on_c, 9, 44, 95
7, 212880, Note_on_c, 9, 36, 95
7, 213120, Note_off_c, 9, 44, 95
7, 213120, Note_off_c, 9, 36, 95
7, 213120, Note_on_c, 9, 44, 95
7, 213120, Note_on_c, 9, 36, 95
7, 213360, Note_off_c, 9, 44, 95
7, 213360, Note_off_c, 9, 36, 95
7, 213360, Note_on_c, 9, 44, 95
7, 213600, Note_off_c, 9, 44, 95
7, 213600, Note_on_c, 9, 44, 95
7, 213840, Note_off_c, 9, 44, 95
7, 213840, Note_on_c, 9, 44, 95
7, 214080, Note_off_c, 9, 44, 95
7, 214080, Note_on_c, 9, 44, 95
7, 214080, Note_on_c, 9, 40, 95
7, 214320, Note_off_c, 9, 44, 95
7, 214320, Note_off_c, 9, 40, 95
7, 214320, Note_on_c, 9, 44, 95
7, 214560, Note_off_c, 9, 44, 95
7, 214560, Note_on_c, 9, 44, 95
7, 214800, Note_off_c, 9, 44, 95
7, 214800, Note_on_c, 9, 44, 95
7, 214800, Note_on_c, 9, 36, 95
7, 215040, Note_off_c, 9, 44, 95
7, 215040, Note_off_c, 9, 36, 95
7, 215040, Note_on_c, 9, 44, 95
7, 215280, Note_off_c, 9, 44, 95
7, 215280, Note_on_c, 9, 44, 95
7, 215280, Note_on_c, 9, 36, 95
7, 215520, Note_off_c, 9, 44, 95
7, 215520, Note_off_c, 9, 36, 95
7, 215520, Note_on_c, 9, 44, 95
7, 215760, Note_off_c, 9, 44, 95
7, 215760, Note_on_c, 9, 44, 95
7, 215760, Note_on_c, 9, 36, 95
7, 216000, Note_off_c, 9, 44, 95
7, 216000, Note_off_c, 9, 36, 95
7, 216000, Note_on_c, 9, 44, 95
7, 216000, Note_on_c, 9, 40, 95
7, 216240, Note_off_c, 9, 44, 95
7, 216240, Note_off_c, 9, 40, 95
7, 216240, Note_on_c, 9, 44, 95
7, 216480, Note_off_c, 9, 44, 95
7, 216480, Note_on_c, 9, 44, 95
7, 216720, Note_off_c, 9, 44, 95
7, 216720, Note_on_c, 9, 44, 95
7, 216720, Note_on_c, 9, 36, 95
7, 216960, Note_off_c, 9, 44, 95
7, 216960, Note_off_c, 9, 36, 95
7, 216960, Note_on_c, 9, 44, 95
7, 216960, Note_on_c, 9, 36, 95
7, 217200, Note_off_c, 9, 44, 95
7, 217200, Note_off_c, 9, 36, 95
7, 217200, Note_on_c, 9, 44, 95
7, 217440, Note_off_c, 9, 44, 95
7, 217440, Note_on_c, 9, 44, 95
7, 217680, Note_off_c, 9, 44, 95
7, 217680, Note_on_c, 9, 44, 95
7, 217920, Note_off_c, 9, 44, 95
7, 217920, Note_on_c, 9, 44, 95
7, 217920, Note_on_c, 9, 40, 95
7, 218160, Note_off_c, 9, 44, 95
7, 218160, Note_off_c, 9, 40, 95
7, 218160, Note_on_c, 9, 44, 95
7, 218400, Note_off_c, 9, 44, 95
7, 218400, Note_on_c, 9, 44, 95
7, 218640, Note_off_c, 9, 44, 95
7, 218640, Note_on_c, 9, 44, 95
7, 218640, Note_on_c, 9, 36, 95
7, 218880, Note_off_c, 9, 44, 95
7, 218880, Note_off_c, 9, 36, 95
7, 218880, Note_on_c, 9, 44, 95
7, 219120, Note_off_c, 9, 44, 95
7, 219120, Note_on_c, 9, 44, 95
7, 219120, Note_on_c, 9, 36, 95
7, 219360, Note_off_c, 9, 44, 95
7, 219360, Note_off_c, 9, 36, 95
7, 219360, Note_on_c, 9, 44, 95
7, 219600, Note_off_c, 9, 44, 95
7, 219600, Note_on_c, 9, 44, 95
7, 219600, Note_on_c, 9, 36, 95
7, 219840, Note_off_c, 9, 44, 95
7, 219840, Note_off_c, 9, 36, 95
7, 219840, Note_on_c, 9, 44, 95
7, 219840, Note_on_c, 9, 40, 95
7, 220080, Note_off_c, 9, 44, 95
7, 220080, Note_off_c, 9, 40, 95
7, 220080, Note_on_c, 9, 44, 95
7, 220320, Note_off_c, 9, 44, 95
7, 220320, Note_on_c, 9, 44, 95
7, 220560, Note_off_c, 9, 44, 95
7, 220560, Note_on_c, 9, 44, 95
7, 220560, Note_on_c, 9, 36, 95
7, 220800, Note_off_c, 9, 44, 95
7, 220800, Note_off_c, 9, 36, 95
7, 220800, Note_on_c, 9, 44, 95
7, 220800, Note_on_c, 9, 36, 95
7, 221040, Note_off_c, 9, 44, 95
7, 221040, Note_off_c, 9, 36, 95
7, 221040, Note_on_c, 9, 44, 95
7, 221280, Note_off_c, 9, 44, 95
7, 221280, Note_on_c, 9, 44, 95
7, 221520, Note_off_c, 9, 44, 95
7, 221520, Note_on_c, 9, 44, 95
7, 221760, Note_off_c, 9, 44, 95
7, 221760, Note_on_c, 9, 44, 95
7, 221760, Note_on_c, 9, 40, 95
7, 222000, Note_off_c, 9, 44, 95
7, 222000, Note_off_c, 9, 40, 95
7, 222000, Note_on_c, 9, 44, 95
7, 222240, Note_off_c, 9, 44, 95
7, 222240, Note_on_c, 9, 44, 95
7, 222480, Note_off_c, 9, 44, 95
7, 222480, Note_on_c, 9, 44, 95
7, 222480, Note_on_c, 9, 36, 95
7, 222720, Note_off_c, 9, 44, 95
7, 222720, Note_off_c, 9, 36, 95
7, 222720, Note_on_c, 9, 44, 95
7, 222720, Note_on_c, 9, 36, 95
7, 222960, Note_off_c, 9, 44, 95
7, 222960, Note_off_c, 9, 36, 95
7, 222960, Note_on_c, 9, 44, 95
7, 223200, Note_off_c, 9, 44, 95
7, 223200, Note_on_c, 9, 44, 95
7, 223440, Note_off_c, 9, 44, 95
7, 223440, Note_on_c, 9, 44, 95
7, 223680, Note_off_c, 9, 44, 95
7, 223680, Note_on_c, 9, 44, 95
7, 223680, Note_on_c, 9, 40, 95
7, 223920, Note_off_c, 9, 44, 95
7, 223920, Note_off_c, 9, 40, 95
7, 223920, Note_on_c, 9, 44, 95
7, 224160, Note_off_c, 9, 44, 95
7, 224160, Note_on_c, 9, 44, 95
7, 224400, Note_off_c, 9, 44, 95
7, 224400, Note_on_c, 9, 44, 95
7, 224400, Note_on_c, 9, 36, 95
7, 224640, Note_off_c, 9, 44, 95
7, 224640, Note_off_c, 9, 36, 95
7, 224640, Note_on_c, 9, 44, 95
7, 224880, Note_off_c, 9, 44, 95
7, 224880, Note_on_c, 9, 44, 95
7, 224880, Note_on_c, 9, 36, 95
7, 225120, Note_off_c, 9, 44, 95
7, 225120, Note_off_c, 9, 36, 95
7, 225120, Note_on_c, 9, 44, 95
7, 225360, Note_off_c, 9, 44, 95
7, 225360, Note_on_c, 9, 44, 95
7, 225360, Note_on_c, 9, 36, 95
7, 225600, Note_off_c, 9, 44, 95
7, 225600, Note_off_c, 9, 36, 95
7, 225600, Note_on_c, 9, 44, 95
7, 225600, Note_on_c, 9, 40, 95
7, 225840, Note_off_c, 9, 44, 95
7, 225840, Note_off_c, 9, 40, 95
7, 225840, Note_on_c, 9, 44, 95
7, 226080, Note_off_c, 9, 44, 95
7, 226080, Note_on_c, 9, 44, 95
7, 226320, Note_off_c, 9, 44, 95
7, 226320, Note_on_c, 9, 44, 95
7, 226320, Note_on_c, 9, 36, 95
7, 226560, Note_off_c, 9, 44, 95
7, 226560, Note_off_c, 9, 36, 95
7, 226560, Note_on_c, 9, 49, 95
7, 228480, Note_off_c, 9, 49, 95
7, 228480, Note_on_c, 9, 49, 95
7, 228480, Note_on_c, 9, 36, 95
7, 228960, Note_off_c, 9, 49, 95
7, 228960, Note_off_c, 9, 36, 95
7, 228960, Note_on_c, 9, 44, 95
7, 229200, Note_off_c, 9, 44, 95
7, 229200, Note_on_c, 9, 44, 95
7, 229440, Note_off_c, 9, 44, 95
7, 229440, Note_on_c, 9, 28, 127
7, 229440, Note_on_c, 9, 44, 95
7, 229440, Note_on_c, 9, 40, 95
7, 229680, Note_off_c, 9, 28, 127
7, 229680, Note_off_c, 9, 44, 95
7, 229680, Note_off_c, 9, 40, 95
7, 229680, Note_on_c, 9, 44, 95
7, 229920, Note_off_c, 9, 44, 95
7, 229920, Note_on_c, 9, 28, 127
7, 229920, Note_on_c, 9, 44, 95
7, 230160, Note_off_c, 9, 28, 127
7, 230160, Note_off_c, 9, 44, 95
7, 230160, Note_on_c, 9, 28, 127
7, 230160, Note_on_c, 9, 44, 95
7, 230160, Note_on_c, 9, 36, 95
7, 230400, Note_off_c, 9, 28, 127
7, 230400, Note_off_c, 9, 44, 95
7, 230400, Note_off_c, 9, 36, 95
7, 230400, Note_on_c, 9, 44, 95
7, 230640, Note_off_c, 9, 44, 95
7, 230640, Note_on_c, 9, 44, 95
7, 230640, Note_on_c, 9, 36, 95
7, 230880, Note_off_c, 9, 44, 95
7, 230880, Note_off_c, 9, 36, 95
7, 230880, Note_on_c, 9, 28, 127
7, 230880, Note_on_c, 9, 44, 95
7, 231120, Note_off_c, 9, 28, 127
7, 231120, Note_off_c, 9, 44, 95
7, 231120, Note_on_c, 9, 28, 127
7, 231120, Note_on_c, 9, 44, 95
7, 231120, Note_on_c, 9, 36, 95
7, 231360, Note_off_c, 9, 28, 127
7, 231360, Note_off_c, 9, 44, 95
7, 231360, Note_off_c, 9, 36, 95
7, 231360, Note_on_c, 9, 44, 95
7, 231360, Note_on_c, 9, 40, 95
7, 231600, Note_off_c, 9, 44, 95
7, 231600, Note_off_c, 9, 40, 95
7, 231600, Note_on_c, 9, 28, 127
7, 231600, Note_on_c, 9, 44, 95
7, 231840, Note_off_c, 9, 28, 127
7, 231840, Note_off_c, 9, 44, 95
7, 231840, Note_on_c, 9, 28, 127
7, 231840, Note_on_c, 9, 44, 95
7, 232080, Note_off_c, 9, 28, 127
7, 232080, Note_off_c, 9, 44, 95
7, 232080, Note_on_c, 9, 44, 95
7, 232080, Note_on_c, 9, 36, 95
7, 232320, Note_off_c, 9, 44, 95
7, 232320, Note_off_c, 9, 36, 95
7, 232320, Note_on_c, 9, 44, 95
7, 232320, Note_on_c, 9, 36, 95
7, 232560, Note_off_c, 9, 44, 95
7, 232560, Note_off_c, 9, 36, 95
7, 232560, Note_on_c, 9, 44, 95
7, 232800, Note_off_c, 9, 44, 95
7, 232800, Note_on_c, 9, 44, 95
7, 233040, Note_off_c, 9, 44, 95
7, 233040, Note_on_c, 9, 44, 95
7, 233280, Note_off_c, 9, 44, 95
7, 233280, Note_on_c, 9, 28, 127
7, 233280, Note_on_c, 9, 44, 95
7, 233280, Note_on_c, 9, 40, 95
7, 233520, Note_off_c, 9, 28, 127
7, 233520, Note_off_c, 9, 44, 95
7, 233520, Note_off_c, 9, 40, 95
7, 233520, Note_on_c, 9, 44, 95
7, 233760, Note_off_c, 9, 44, 95
7, 233760, Note_on_c, 9, 28, 127
7, 233760, Note_on_c, 9, 44, 95
7, 234000, Note_off_c, 9, 28, 127
7, 234000, Note_off_c, 9, 44, 95
7, 234000, Note_on_c, 9, 28, 127
7, 234000, Note_on_c, 9, 44, 95
7, 234000, Note_on_c, 9, 36, 95
7, 234240, Note_off_c, 9, 28, 127
7, 234240, Note_off_c, 9, 44, 95
7, 234240, Note_off_c, 9, 36, 95
7, 234240, Note_on_c, 9, 44, 95
7, 234480, Note_off_c, 9, 44, 95
7, 234480, Note_on_c, 9, 44, 95
7, 234480, Note_on_c, 9, 36, 95
7, 234720, Note_off_c, 9, 44, 95
7, 234720, Note_off_c, 9, 36, 95
7, 234720, Note_on_c, 9, 28, 127
7, 234720, Note_on_c, 9, 44, 95
7, 234960, Note_off_c, 9, 28, 127
7, 234960, Note_off_c, 9, 44, 95
7, 234960, Note_on_c, 9, 28, 127
7, 234960, Note_on_c, 9, 44, 95
7, 234960, Note_on_c, 9, 36, 95
7, 235200, Note_off_c, 9, 28, 127
7, 235200, Note_off_c, 9, 44, 95
7, 235200, Note_off_c, 9, 36, 95
7, 235200, Note_on_c, 9, 44, 95
7, 235200, Note_on_c, 9, 40, 95
7, 235440, Note_off_c, 9, 44, 95
7, 235440, Note_off_c, 9, 40, 95
7, 235440, Note_on_c, 9, 28, 127
7, 235440, Note_on_c, 9, 44, 95
7, 235680, Note_off_c, 9, 28, 127
7, 235680, Note_off_c, 9, 44, 95
7, 235680, Note_on_c, 9, 28, 127
7, 235680, Note_on_c, 9, 44, 95
7, 235920, Note_off_c, 9, 28, 127
7, 235920, Note_off_c, 9, 44, 95
7, 235920, Note_on_c, 9, 44, 95
7, 235920, Note_on_c, 9, 36, 95
7, 236160, Note_off_c, 9, 44, 95
7, 236160, Note_off_c, 9, 36, 95
7, 236160, Note_on_c, 9, 44, 95
7, 236160, Note_on_c, 9, 36, 95
7, 236400, Note_off_c, 9, 44, 95
7, 236400, Note_off_c, 9, 36, 95
7, 236400, Note_on_c, 9, 44, 95
7, 236640, Note_off_c, 9, 44, 95
7, 236640, Note_on_c, 9, 44, 95
7, 236880, Note_off_c, 9, 44, 95
7, 236880, Note_on_c, 9, 44, 95
7, 237120, Note_off_c, 9, 44, 95
7, 237120, Note_on_c, 9, 28, 127
7, 237120, Note_on_c, 9, 44, 95
7, 237120, Note_on_c, 9, 40, 95
7, 237360, Note_off_c, 9, 28, 127
7, 237360, Note_off_c, 9, 44, 95
7, 237360, Note_off_c, 9, 40, 95
7, 237360, Note_on_c, 9, 44, 95
7, 237600, Note_off_c, 9, 44, 95
7, 237600, Note_on_c, 9, 28, 127
7, 237600, Note_on_c, 9, 44, 95
7, 237840, Note_off_c, 9, 28, 127
7, 237840, Note_off_c, 9, 44, 95
7, 237840, Note_on_c, 9, 28, 127
7, 237840, Note_on_c, 9, 44, 95
7, 237840, Note_on_c, 9, 36, 95
7, 238080, Note_off_c, 9, 28, 127
7, 238080, Note_off_c, 9, 44, 95
7, 238080, Note_off_c, 9, 36, 95
7, 238080, Note_on_c, 9, 44, 95
7, 238320, Note_off_c, 9, 44, 95
7, 238320, Note_on_c, 9, 44, 95
7, 238320, Note_on_c, 9, 36, 95
7, 238560, Note_off_c, 9, 44, 95
7, 238560, Note_off_c, 9, 36, 95
7, 238560, Note_on_c, 9, 28, 127
7, 238560, Note_on_c, 9, 44, 95
7, 238800, Note_off_c, 9, 28, 127
7, 238800, Note_off_c, 9, 44, 95
7, 238800, Note_on_c, 9, 28, 127
7, 238800, Note_on_c, 9, 44, 95
7, 238800, Note_on_c, 9, 36, 95
7, 239040, Note_off_c, 9, 28, 127
7, 239040, Note_off_c, 9, 44, 95
7, 239040, Note_off_c, 9, 36, 95
7, 239040, Note_on_c, 9, 44, 95
7, 239040, Note_on_c, 9, 40, 95
7, 239280, Note_off_c, 9, 44, 95
7, 239280, Note_off_c, 9, 40, 95
7, 239280, Note_on_c, 9, 28, 127
7, 239280, Note_on_c, 9, 44, 95
7, 239520, Note_off_c, 9, 28, 127
7, 239520, Note_off_c, 9, 44, 95
7, 239520, Note_on_c, 9, 28, 127
7, 239520, Note_on_c, 9, 44, 95
7, 239760, Note_off_c, 9, 28, 127
7, 239760, Note_off_c, 9, 44, 95
7, 239760, Note_on_c, 9, 44, 95
7, 239760, Note_on_c, 9, 36, 95
7, 240000, Note_off_c, 9, 44, 95
7, 240000, Note_off_c, 9, 36, 95
7, 240000, Note_on_c, 9, 44, 95
7, 240000, Note_on_c, 9, 36, 95
7, 240240, Note_off_c, 9, 44, 95
7, 240240, Note_off_c, 9, 36, 95
7, 240240, Note_on_c, 9, 44, 95
7, 240480, Note_off_c, 9, 44, 95
7, 240480, Note_on_c, 9, 44, 95
7, 240720, Note_off_c, 9, 44, 95
7, 240720, Note_on_c, 9, 44, 95
7, 240960, Note_off_c, 9, 44, 95
7, 240960, Note_on_c, 9, 28, 127
7, 240960, Note_on_c, 9, 44, 95
7, 240960, Note_on_c, 9, 40, 95
7, 241200, Note_off_c, 9, 28, 127
7, 241200, Note_off_c, 9, 44, 95
7, 241200, Note_off_c, 9, 40, 95
7, 241200, Note_on_c, 9, 44, 95
7, 241440, Note_off_c, 9, 44, 95
7, 241440, Note_on_c, 9, 28, 127
7, 241440, Note_on_c, 9, 44, 95
7, 241680, Note_off_c, 9, 28, 127
7, 241680, Note_off_c, 9, 44, 95
7, 241680, Note_on_c, 9, 28, 127
7, 241680, Note_on_c, 9, 44, 95
7, 241680, Note_on_c, 9, 36, 95
7, 241920, Note_off_c, 9, 28, 127
7, 241920, Note_off_c, 9, 44, 95
7, 241920, Note_off_c, 9, 36, 95
7, 241920, Note_on_c, 9, 44, 95
7, 242160, Note_off_c, 9, 44, 95
7, 242160, Note_on_c, 9, 44, 95
7, 242160, Note_on_c, 9, 36, 95
7, 242400, Note_off_c, 9, 44, 95
7, 242400, Note_off_c, 9, 36, 95
7, 242400, Note_on_c, 9, 28, 127
7, 242400, Note_on_c, 9, 44, 95
7, 242640, Note_off_c, 9, 28, 127
7, 242640, Note_off_c, 9, 44, 95
7, 242640, Note_on_c, 9, 28, 127
7, 242640, Note_on_c, 9, 44, 95
7, 242640, Note_on_c, 9, 36, 95
7, 242880, Note_off_c, 9, 28, 127
7, 242880, Note_off_c, 9, 44, 95
7, 242880, Note_off_c, 9, 36, 95
7, 242880, Note_on_c, 9, 44, 95
7, 242880, Note_on_c, 9, 40, 95
7, 243120, Note_off_c, 9, 44, 95
7, 243120, Note_off_c, 9, 40, 95
7, 243120, Note_on_c, 9, 28, 127
7, 243120, Note_on_c, 9, 44, 95
7, 243360, Note_off_c, 9, 28, 127
7, 243360, Note_off_c, 9, 44, 95
7, 243360, Note_on_c, 9, 28, 127
7, 243360, Note_on_c, 9, 44, 95
7, 243600, Note_off_c, 9, 28, 127
7, 243600, Note_off_c, 9, 44, 95
7, 243600, Note_on_c, 9, 44, 95
7, 243600, Note_on_c, 9, 36, 95
7, 243840, Note_off_c, 9, 44, 95
7, 243840, Note_off_c, 9, 36, 95
7, 243840, Note_on_c, 9, 49, 95
7, 243840, Note_on_c, 9, 36, 95
7, 244320, Note_off_c, 9, 49, 95
7, 244320, Note_off_c, 9, 36, 95
7, 244320, Note_on_c, 9, 44, 95
7, 244560, Note_off_c, 9, 44, 95
7, 244560, Note_on_c, 9, 44, 95
7, 244800, Note_off_c, 9, 44, 95
7, 244800, Note_on_c, 9, 28, 127
7, 244800, Note_on_c, 9, 44, 95
7, 244800, Note_on_c, 9, 40, 95
7, 245040, Note_off_c, 9, 28, 127
7, 245040, Note_off_c, 9, 44, 95
7, 245040, Note_off_c, 9, 40, 95
7, 245040, Note_on_c, 9, 44, 95
7, 245280, Note_off_c, 9, 44, 95
7, 245280, Note_on_c, 9, 28, 127
7, 245280, Note_on_c, 9, 44, 95
7, 245520, Note_off_c, 9, 28, 127
7, 245520, Note_off_c, 9, 44, 95
7, 245520, Note_on_c, 9, 28, 127
7, 245520, Note_on_c, 9, 44, 95
7, 245520, Note_on_c, 9, 36, 95
7, 245760, Note_off_c, 9, 28, 127
7, 245760, Note_off_c, 9, 44, 95
7, 245760, Note_off_c, 9, 36, 95
7, 245760, Note_on_c, 9, 44, 95
7, 246000, Note_off_c, 9, 44, 95
7, 246000, Note_on_c, 9, 44, 95
7, 246000, Note_on_c, 9, 36, 95
7, 246240, Note_off_c, 9, 44, 95
7, 246240, Note_off_c, 9, 36, 95
7, 246240, Note_on_c, 9, 28, 127
7, 246240, Note_on_c, 9, 44, 95
7, 246480, Note_off_c, 9, 28, 127
7, 246480, Note_off_c, 9, 44, 95
7, 246480, Note_on_c, 9, 28, 127
7, 246480, Note_on_c, 9, 44, 95
7, 246480, Note_on_c, 9, 36, 95
7, 246720, Note_off_c, 9, 28, 127
7, 246720, Note_off_c, 9, 44, 95
7, 246720, Note_off_c, 9, 36, 95
7, 246720, Note_on_c, 9, 44, 95
7, 246720, Note_on_c, 9, 40, 95
7, 246960, Note_off_c, 9, 44, 95
7, 246960, Note_off_c, 9, 40, 95
7, 246960, Note_on_c, 9, 28, 127
7, 246960, Note_on_c, 9, 44, 95
7, 247200, Note_off_c, 9, 28, 127
7, 247200, Note_off_c, 9, 44, 95
7, 247200, Note_on_c, 9, 28, 127
7, 247200, Note_on_c, 9, 44, 95
7, 247440, Note_off_c, 9, 28, 127
7, 247440, Note_off_c, 9, 44, 95
7, 247440, Note_on_c, 9, 44, 95
7, 247440, Note_on_c, 9, 36, 95
7, 247680, Note_off_c, 9, 44, 95
7, 247680, Note_off_c, 9, 36, 95
7, 247680, Note_on_c, 9, 44, 95
7, 247680, Note_on_c, 9, 36, 95
7, 247920, Note_off_c, 9, 44, 95
7, 247920, Note_off_c, 9, 36, 95
7, 247920, Note_on_c, 9, 44, 95
7, 248160, Note_off_c, 9, 44, 95
7, 248160, Note_on_c, 9, 44, 95
7, 248400, Note_off_c, 9, 44, 95
7, 248400, Note_on_c, 9, 44, 95
7, 248640, Note_off_c, 9, 44, 95
7, 248640, Note_on_c, 9, 28, 127
7, 248640, Note_on_c, 9, 44, 95
7, 248640, Note_on_c, 9, 40, 95
7, 248880, Note_off_c, 9, 28, 127
7, 248880, Note_off_c, 9, 44, 95
7, 248880, Note_off_c, 9, 40, 95
7, 248880, Note_on_c, 9, 44, 95
7, 249120, Note_off_c, 9, 44, 95
7, 249120, Note_on_c, 9, 28, 127
7, 249120, Note_on_c, 9, 44, 95
7, 249360, Note_off_c, 9, 28, 127
7, 249360, Note_off_c, 9, 44, 95
7, 249360, Note_on_c, 9, 28, 127
7, 249360, Note_on_c, 9, 44, 95
7, 249360, Note_on_c, 9, 36, 95
7, 249600, Note_off_c, 9, 28, 127
7, 249600, Note_off_c, 9, 44, 95
7, 249600, Note_off_c, 9, 36, 95
7, 249600, Note_on_c, 9, 44, 95
7, 249840, Note_off_c, 9, 44, 95
7, 249840, Note_on_c, 9, 44, 95
7, 249840, Note_on_c, 9, 36, 95
7, 250080, Note_off_c, 9, 44, 95
7, 250080, Note_off_c, 9, 36, 95
7, 250080, Note_on_c, 9, 28, 127
7, 250080, Note_on_c, 9, 44, 95
7, 250320, Note_off_c, 9, 28, 127
7, 250320, Note_off_c, 9, 44, 95
7, 250320, Note_on_c, 9, 28, 127
7, 250320, Note_on_c, 9, 44, 95
7, 250320, Note_on_c, 9, 36, 95
7, 250560, Note_off_c, 9, 28, 127
7, 250560, Note_off_c, 9, 44, 95
7, 250560, Note_off_c, 9, 36, 95
7, 250560, Note_on_c, 9, 44, 95
7, 250560, Note_on_c, 9, 40, 95
7, 250800, Note_off_c, 9, 44, 95
7, 250800, Note_off_c, 9, 40, 95
7, 250800, Note_on_c, 9, 28, 127
7, 250800, Note_on_c, 9, 44, 95
7, 251040, Note_off_c, 9, 28, 127
7, 251040, Note_off_c, 9, 44, 95
7, 251040, Note_on_c, 9, 28, 127
7, 251040, Note_on_c, 9, 44, 95
7, 251280, Note_off_c, 9, 28, 127
7, 251280, Note_off_c, 9, 44, 95
7, 251280, Note_on_c, 9, 44, 95
7, 251280, Note_on_c, 9, 36, 95
7, 251520, Note_off_c, 9, 44, 95
7, 251520, Note_off_c, 9, 36, 95
7, 251520, Note_on_c, 9, 44, 95
7, 251520, Note_on_c, 9, 36, 95
7, 251760, Note_off_c, 9, 44, 95
7, 251760, Note_off_c, 9, 36, 95
7, 251760, Note_on_c, 9, 44, 95
7, 252000, Note_off_c, 9, 44, 95
7, 252000, Note_on_c, 9, 44, 95
7, 252240, Note_off_c, 9, 44, 95
7, 252240, Note_on_c, 9, 44, 95
7, 252480, Note_off_c, 9, 44, 95
7, 252480, Note_on_c, 9, 28, 127
7, 252480, Note_on_c, 9, 44, 95
7, 252480, Note_on_c, 9, 40, 95
7, 252720, Note_off_c, 9, 28, 127
7, 252720, Note_off_c, 9, 44, 95
7, 252720, Note_off_c, 9, 40, 95
7, 252720, Note_on_c, 9, 44, 95
7, 252960, Note_off_c, 9, 44, 95
7, 252960, Note_on_c, 9, 28, 127
7, 252960, Note_on_c, 9, 44, 95
7, 253200, Note_off_c, 9, 28, 127
7, 253200, Note_off_c, 9, 44, 95
7, 253200, Note_on_c, 9, 28, 127
7, 253200, Note_on_c, 9, 44, 95
7, 253200, Note_on_c, 9, 36, 95
7, 253440, Note_off_c, 9, 28, 127
7, 253440, Note_off_c, 9, 44, 95
7, 253440, Note_off_c, 9, 36, 95
7, 253440, Note_on_c, 9, 44, 95
7, 253680, Note_off_c, 9, 44, 95
7, 253680, Note_on_c, 9, 44, 95
7, 253680, Note_on_c, 9, 36, 95
7, 253920, Note_off_c, 9, 44, 95
7, 253920, Note_off_c, 9, 36, 95
7, 253920, Note_on_c, 9, 28, 127
7, 253920, Note_on_c, 9, 44, 95
7, 254160, Note_off_c, 9, 28, 127
7, 254160, Note_off_c, 9, 44, 95
7, 254160, Note_on_c, 9, 28, 127
7, 254160, Note_on_c, 9, 44, 95
7, 254160, Note_on_c, 9, 36, 95
7, 254400, Note_off_c, 9, 28, 127
7, 254400, Note_off_c, 9, 44, 95
7, 254400, Note_off_c, 9, 36, 95
7, 254400, Note_on_c, 9, 44, 95
7, 254400, Note_on_c, 9, 40, 95
7, 254640, Note_off_c, 9, 44, 95
7, 254640, Note_off_c, 9, 40, 95
7, 254640, Note_on_c, 9, 28, 127
7, 254640, Note_on_c, 9, 44, 95
7, 254880, Note_off_c, 9, 28, 127
7, 254880, Note_off_c, 9, 44, 95
7, 254880, Note_on_c, 9, 28, 127
7, 254880, Note_on_c, 9, 44, 95
7, 255120, Note_off_c, 9, 28, 127
7, 255120, Note_off_c, 9, 44, 95
7, 255120, Note_on_c, 9, 44, 95
7, 255120, Note_on_c, 9, 36, 95
7, 255360, Note_off_c, 9, 44, 95
7, 255360, Note_off_c, 9, 36, 95
7, 255360, Note_on_c, 9, 44, 95
7, 255360, Note_on_c, 9, 36, 95
7, 255600, Note_off_c, 9, 44, 95
7, 255600, Note_off_c, 9, 36, 95
7, 255600, Note_on_c, 9, 44, 95
7, 255840, Note_off_c, 9, 44, 95
7, 255840, Note_on_c, 9, 44, 95
7, 256080, Note_off_c, 9, 44, 95
7, 256080, Note_on_c, 9, 44, 95
7, 256320, Note_off_c, 9, 44, 95
7, 256320, Note_on_c, 9, 28, 127
7, 256320, Note_on_c, 9, 44, 95
7, 256320, Note_on_c, 9, 40, 95
7, 256560, Note_off_c, 9, 28, 127
7, 256560, Note_off_c, 9, 44, 95
7, 256560, Note_off_c, 9, 40, 95
7, 256560, Note_on_c, 9, 44, 95
7, 256800, Note_off_c, 9, 44, 95
7, 256800, Note_on_c, 9, 28, 127
7, 256800, Note_on_c, 9, 44, 95
7, 257040, Note_off_c, 9, 28, 127
7, 257040, Note_off_c, 9, 44, 95
7, 257040, Note_on_c, 9, 28, 127
7, 257040, Note_on_c, 9, 44, 95
7, 257040, Note_on_c, 9, 36, 95
7, 257280, Note_off_c, 9, 28, 127
7, 257280, Note_off_c, 9, 44, 95
7, 257280, Note_off_c, 9, 36, 95
7, 257280, Note_on_c, 9, 44, 95
7, 257520, Note_off_c, 9, 44, 95
7, 257520, Note_on_c, 9, 44, 95
7, 257520, Note_on_c, 9, 36, 95
7, 257760, Note_off_c, 9, 44, 95
7, 257760, Note_off_c, 9, 36, 95
7, 257760, Note_on_c, 9, 28, 127
7, 257760, Note_on_c, 9, 44, 95
7, 258000, Note_off_c, 9, 28, 127
7, 258000, Note_off_c, 9, 44, 95
7, 258000, Note_on_c, 9, 28, 127
7, 258000, Note_on_c, 9, 44, 95
7, 258000, Note_on_c, 9, 36, 95
7, 258240, Note_off_c, 9, 28, 127
7, 258240, Note_off_c, 9, 44, 95
7, 258240, Note_off_c, 9, 36, 95
7, 258240, Note_on_c, 9, 44, 95
7, 258240, Note_on_c, 9, 40, 95
7, 258480, Note_off_c, 9, 44, 95
7, 258480, Note_off_c, 9, 40, 95
7, 258480, Note_on_c, 9, 28, 127
7, 258480, Note_on_c, 9, 44, 95
7, 258720, Note_off_c, 9, 28, 127
7, 258720, Note_off_c, 9, 44, 95
7, 258720, Note_on_c, 9, 28, 127
7, 258720, Note_on_c, 9, 44, 95
7, 258960, Note_off_c, 9, 28, 127
7, 258960, Note_off_c, 9, 44, 95
7, 258960, Note_on_c, 9, 44, 95
7, 258960, Note_on_c, 9, 36, 95
7, 259200, Note_off_c, 9, 44, 95
7, 259200, Note_off_c, 9, 36, 95
7, 259200, Note_on_c, 9, 49, 95
7, 259200, Note_on_c, 9, 36, 95
7, 259680, Note_off_c, 9, 49, 95
7, 259680, Note_off_c, 9, 36, 95
7, 259680, Note_on_c, 9, 44, 95
7, 259920, Note_off_c, 9, 44, 95
7, 259920, Note_on_c, 9, 44, 95
7, 260160, Note_off_c, 9, 44, 95
7, 260160, Note_on_c, 9, 28, 127
7, 260160, Note_on_c, 9, 44, 95
7, 260160, Note_on_c, 9, 40, 95
7, 260400, Note_off_c, 9, 28, 127
7, 260400, Note_off_c, 9, 44, 95
7, 260400, Note_off_c, 9, 40, 95
7, 260400, Note_on_c, 9, 44, 95
7, 260640, Note_off_c, 9, 44, 95
7, 260640, Note_on_c, 9, 28, 127
7, 260640, Note_on_c, 9, 44, 95
7, 260880, Note_off_c, 9, 28, 127
7, 260880, Note_off_c, 9, 44, 95
7, 260880, Note_on_c, 9, 28, 127
7, 260880, Note_on_c, 9, 44, 95
7, 260880, Note_on_c, 9, 36, 95
7, 261120, Note_off_c, 9, 28, 127
7, 261120, Note_off_c, 9, 44, 95
7, 261120, Note_off_c, 9, 36, 95
7, 261120, Note_on_c, 9, 44, 95
7, 261360, Note_off_c, 9, 44, 95
7, 261360, Note_on_c, 9, 44, 95
7, 261360, Note_on_c, 9, 36, 95
7, 261600, Note_off_c, 9, 44, 95
7, 261600, Note_off_c, 9, 36, 95
7, 261600, Note_on_c, 9, 28, 127
7, 261600, Note_on_c, 9, 44, 95
7, 261840, Note_off_c, 9, 28, 127
7, 261840, Note_off_c, 9, 44, 95
7, 261840, Note_on_c, 9, 28, 127
7, 261840, Note_on_c, 9, 44, 95
7, 261840, Note_on_c, 9, 36, 95
7, 262080, Note_off_c, 9, 28, 127
7, 262080, Note_off_c, 9, 44, 95
7, 262080, Note_off_c, 9, 36, 95
7, 262080, Note_on_c, 9, 44, 95
7, 262080, Note_on_c, 9, 40, 95
7, 262320, Note_off_c, 9, 44, 95
7, 262320, Note_off_c, 9, 40, 95
7, 262320, Note_on_c, 9, 28, 127
7, 262320, Note_on_c, 9, 44, 95
7, 262560, Note_off_c, 9, 28, 127
7, 262560, Note_off_c, 9, 44, 95
7, 262560, Note_on_c, 9, 28, 127
7, 262560, Note_on_c, 9, 44, 95
7, 262800, Note_off_c, 9, 28, 127
7, 262800, Note_off_c, 9, 44, 95
7, 262800, Note_on_c, 9, 44, 95
7, 262800, Note_on_c, 9, 36, 95
7, 263040, Note_off_c, 9, 44, 95
7, 263040, Note_off_c, 9, 36, 95
7, 263040, Note_on_c, 9, 44, 95
7, 263040, Note_on_c, 9, 36, 95
7, 263280, Note_off_c, 9, 44, 95
7, 263280, Note_off_c, 9, 36, 95
7, 263280, Note_on_c, 9, 44, 95
7, 263520, Note_off_c, 9, 44, 95
7, 263520, Note_on_c, 9, 44, 95
7, 263760, Note_off_c, 9, 44, 95
7, 263760, Note_on_c, 9, 44, 95
7, 264000, Note_off_c, 9, 44, 95
7, 264000, Note_on_c, 9, 28, 127
7, 264000, Note_on_c, 9, 44, 95
7, 264000, Note_on_c, 9, 40, 95
7, 264240, Note_off_c, 9, 28, 127
7, 264240, Note_off_c, 9, 44, 95
7, 264240, Note_off_c, 9, 40, 95
7, 264240, Note_on_c, 9, 44, 95
7, 264480, Note_off_c, 9, 44, 95
7, 264480, Note_on_c, 9, 28, 127
7, 264480, Note_on_c, 9, 44, 95
7, 264720, Note_off_c, 9, 28, 127
7, 264720, Note_off_c, 9, 44, 95
7, 264720, Note_on_c, 9, 28, 127
7, 264720, Note_on_c, 9, 44, 95
7, 264720, Note_on_c, 9, 36, 95
7, 264960, Note_off_c, 9, 28, 127
7, 264960, Note_off_c, 9, 44, 95
7, 264960, Note_off_c, 9, 36, 95
7, 264960, Note_on_c, 9, 44, 95
7, 265200, Note_off_c, 9, 44, 95
7, 265200, Note_on_c, 9, 44, 95
7, 265200, Note_on_c, 9, 36, 95
7, 265440, Note_off_c, 9, 44, 95
7, 265440, Note_off_c, 9, 36, 95
7, 265440, Note_on_c, 9, 28, 127
7, 265440, Note_on_c, 9, 44, 95
7, 265680, Note_off_c, 9, 28, 127
7, 265680, Note_off_c, 9, 44, 95
7, 265680, Note_on_c, 9, 28, 127
7, 265680, Note_on_c, 9, 44, 95
7, 265680, Note_on_c, 9, 36, 95
7, 265920, Note_off_c, 9, 28, 127
7, 265920, Note_off_c, 9, 44, 95
7, 265920, Note_off_c, 9, 36, 95
7, 265920, Note_on_c, 9, 44, 95
7, 265920, Note_on_c, 9, 40, 95
7, 266160, Note_off_c, 9, 44, 95
7, 266160, Note_off_c, 9, 40, 95
7, 266160, Note_on_c, 9, 28, 127
7, 266160, Note_on_c, 9, 44, 95
7, 266400, Note_off_c, 9, 28, 127
7, 266400, Note_off_c, 9, 44, 95
7, 266400, Note_on_c, 9, 28, 127
7, 266400, Note_on_c, 9, 44, 95
7, 266640, Note_off_c, 9, 28, 127
7, 266640, Note_off_c, 9, 44, 95
7, 266640, Note_on_c, 9, 44, 95
7, 266640, Note_on_c, 9, 36, 95
7, 266880, Note_off_c, 9, 44, 95
7, 266880, Note_off_c, 9, 36, 95
7, 266880, Note_on_c, 9, 44, 95
7, 266880, Note_on_c, 9, 36, 95
7, 267120, Note_off_c, 9, 44, 95
7, 267120, Note_off_c, 9, 36, 95
7, 267120, Note_on_c, 9, 44, 95
7, 267360, Note_off_c, 9, 44, 95
7, 267360, Note_on_c, 9, 44, 95
7, 267600, Note_off_c, 9, 44, 95
7, 267600, Note_on_c, 9, 44, 95
7, 267840, Note_off_c, 9, 44, 95
7, 267840, Note_on_c, 9, 28, 127
7, 267840, Note_on_c, 9, 44, 95
7, 267840, Note_on_c, 9, 40, 95
7, 268080, Note_off_c, 9, 28, 127
7, 268080, Note_off_c, 9, 44, 95
7, 268080, Note_off_c, 9, 40, 95
7, 268080, Note_on_c, 9, 44, 95
7, 268320, Note_off_c, 9, 44, 95
7, 268320, Note_on_c, 9, 28, 127
7, 268320, Note_on_c, 9, 44, 95
7, 268560, Note_off_c, 9, 28, 127
7, 268560, Note_off_c, 9, 44, 95
7, 268560, Note_on_c, 9, 28, 127
7, 268560, Note_on_c, 9, 44, 95
7, 268560, Note_on_c, 9, 36, 95
7, 268800, Note_off_c, 9, 28, 127
7, 268800, Note_off_c, 9, 44, 95
7, 268800, Note_off_c, 9, 36, 95
7, 268800, Note_on_c, 9, 44, 95
7, 269040, Note_off_c, 9, 44, 95
7, 269040, Note_on_c, 9, 44, 95
7, 269040, Note_on_c, 9, 36, 95
7, 269280, Note_off_c, 9, 44, 95
7, 269280, Note_off_c, 9, 36, 95
7, 269280, Note_on_c, 9, 28, 127
7, 269280, Note_on_c, 9, 44, 95
7, 269520, Note_off_c, 9, 28, 127
7, 269520, Note_off_c, 9, 44, 95
7, 269520, Note_on_c, 9, 28, 127
7, 269520, Note_on_c, 9, 44, 95
7, 269520, Note_on_c, 9, 36, 95
7, 269760, Note_off_c, 9, 28, 127
7, 269760, Note_off_c, 9, 44, 95
7, 269760, Note_off_c, 9, 36, 95
7, 269760, Note_on_c, 9, 44, 95
7, 269760, Note_on_c, 9, 40, 95
7, 270000, Note_off_c, 9, 44, 95
7, 270000, Note_off_c, 9, 40, 95
7, 270000, Note_on_c, 9, 28, 127
7, 270000, Note_on_c, 9, 44, 95
7, 270240, Note_off_c, 9, 28, 127
7, 270240, Note_off_c, 9, 44, 95
7, 270240, Note_on_c, 9, 28, 127
7, 270240, Note_on_c, 9, 44, 95
7, 270480, Note_off_c, 9, 28, 127
7, 270480, Note_off_c, 9, 44, 95
7, 270480, Note_on_c, 9, 44, 95
7, 270480, Note_on_c, 9, 36, 95
7, 270720, Note_off_c, 9, 44, 95
7, 270720, Note_off_c, 9, 36, 95
7, 270720, Note_on_c, 9, 44, 95
7, 270720, Note_on_c, 9, 36, 95
7, 270960, Note_off_c, 9, 44, 95
7, 270960, Note_off_c, 9, 36, 95
7, 270960, Note_on_c, 9, 44, 95
7, 271200, Note_off_c, 9, 44, 95
7, 271200, Note_on_c, 9, 44, 95
7, 271440, Note_off_c, 9, 44, 95
7, 271440, Note_on_c, 9, 44, 95
7, 271680, Note_off_c, 9, 44, 95
7, 271680, Note_on_c, 9, 28, 127
7, 271680, Note_on_c, 9, 44, 95
7, 271680, Note_on_c, 9, 40, 95
7, 271920, Note_off_c, 9, 28, 127
7, 271920, Note_off_c, 9, 44, 95
7, 271920, Note_off_c, 9, 40, 95
7, 271920, Note_on_c, 9, 44, 95
7, 272160, Note_off_c, 9, 44, 95
7, 272160, Note_on_c, 9, 28, 127
7, 272160, Note_on_c, 9, 44, 95
7, 272400, Note_off_c, 9, 28, 127
7, 272400, Note_off_c, 9, 44, 95
7, 272400, Note_on_c, 9, 28, 127
7, 272400, Note_on_c, 9, 44, 95
7, 272400, Note_on_c, 9, 36, 95
7, 272640, Note_off_c, 9, 28, 127
7, 272640, Note_off_c, 9, 44, 95
7, 272640, Note_off_c, 9, 36, 95
7, 272640, Note_on_c, 9, 44, 95
7, 272880, Note_off_c, 9, 44, 95
7, 272880, Note_on_c, 9, 44, 95
7, 272880, Note_on_c, 9, 36, 95
7, 273120, Note_off_c, 9, 44, 95
7, 273120, Note_off_c, 9, 36, 95
7, 273120, Note_on_c, 9, 28, 127
7, 273120, Note_on_c, 9, 44, 95
7, 273360, Note_off_c, 9, 28, 127
7, 273360, Note_off_c, 9, 44, 95
7, 273360, Note_on_c, 9, 28, 127
7, 273360, Note_on_c, 9, 44, 95
7, 273360, Note_on_c, 9, 36, 95
7, 273600, Note_off_c, 9, 28, 127
7, 273600, Note_off_c, 9, 44, 95
7, 273600, Note_off_c, 9, 36, 95
7, 273600, Note_on_c, 9, 44, 95
7, 273600, Note_on_c, 9, 40, 95
7, 273840, Note_off_c, 9, 44, 95
7, 273840, Note_off_c, 9, 40, 95
7, 273840, Note_on_c, 9, 28, 127
7, 273840, Note_on_c, 9, 44, 95
7, 274080, Note_off_c, 9, 28, 127
7, 274080, Note_off_c, 9, 44, 95
7, 274080, Note_on_c, 9, 28, 127
7, 274080, Note_on_c, 9, 44, 95
7, 274320, Note_off_c, 9, 28, 127
7, 274320, Note_off_c, 9, 44, 95
7, 274320, Note_on_c, 9, 44, 95
7, 274320, Note_on_c, 9, 36, 95
7, 274560, Note_off_c, 9, 44, 95
7, 274560, Note_off_c, 9, 36, 95
7, 274560, End_track
8, 0, Start_track
8, 0, Pitch_bend_c, 6, 8192
8, 0, Control_c, 6, 7, 63
8, 0, Control_c, 6, 10, 87
8, 0, Control_c, 6, 93, 0
8, 0, Control_c, 6, 91, 0
8, 0, Control_c, 6, 95, 0
8, 0, Control_c, 6, 92, 0
8, 0, Control_c, 6, 11, 127
8, 0, Program_c, 6, 33
8, 0, Control_c, 7, 7, 63
8, 0, Control_c, 7, 10, 87
8, 0, Control_c, 7, 93, 0
8, 0, Control_c, 7, 91, 0
8, 0, Control_c, 7, 95, 0
8, 0, Control_c, 7, 92, 0
8, 0, Control_c, 7, 11, 127
8, 0, Program_c, 7, 33
8, 0, Note_on_c, 6, 42, 95
8, 720, Note_off_c, 6, 42, 95
8, 720, Note_on_c, 6, 42, 95
8, 960, Note_off_c, 6, 42, 95
8, 960, Note_on_c, 6, 42, 95
8, 1440, Note_off_c, 6, 42, 95
8, 1440, Note_on_c, 6, 42, 95
8, 1680, Note_off_c, 6, 42, 95
8, 1680, Note_on_c, 6, 42, 95
8, 2640, Note_off_c, 6, 42, 95
8, 2640, Note_on_c, 6, 42, 95
8, 2880, Note_off_c, 6, 42, 95
8, 2880, Note_on_c, 6, 42, 95
8, 3840, Note_off_c, 6, 42, 95
8, 3840, Note_on_c, 6, 42, 95
8, 4560, Note_off_c, 6, 42, 95
8, 4560, Note_on_c, 6, 42, 95
8, 4800, Note_off_c, 6, 42, 95
8, 4800, Note_on_c, 6, 42, 95
8, 5280, Note_off_c, 6, 42, 95
8, 5280, Note_on_c, 6, 42, 95
8, 5520, Note_off_c, 6, 42, 95
8, 5520, Note_on_c, 6, 42, 95
8, 6480, Note_off_c, 6, 42, 95
8, 6480, Note_on_c, 6, 42, 95
8, 6720, Note_off_c, 6, 42, 95
8, 6720, Note_on_c, 6, 42, 95
8, 7680, Note_off_c, 6, 42, 95
8, 7680, Note_on_c, 6, 42, 95
8, 8400, Note_off_c, 6, 42, 95
8, 8400, Note_on_c, 6, 42, 95
8, 8640, Note_off_c, 6, 42, 95
8, 8640, Note_on_c, 6, 42, 95
8, 9120, Note_off_c, 6, 42, 95
8, 9120, Note_on_c, 6, 42, 95
8, 9360, Note_off_c, 6, 42, 95
8, 9360, Note_on_c, 6, 37, 95
8, 10320, Note_off_c, 6, 37, 95
8, 10320, Note_on_c, 6, 37, 95
8, 10560, Note_off_c, 6, 37, 95
8, 10560, Note_on_c, 6, 37, 95
8, 11520, Note_off_c, 6, 37, 95
8, 11520, Note_on_c, 6, 42, 95
8, 12240, Note_off_c, 6, 42, 95
8, 12240, Note_on_c, 6, 42, 95
8, 12480, Note_off_c, 6, 42, 95
8, 12480, Note_on_c, 6, 42, 95
8, 12960, Note_off_c, 6, 42, 95
8, 12960, Note_on_c, 6, 42, 95
8, 13440, Note_off_c, 6, 42, 95
8, 13440, Note_on_c, 6, 42, 95
8, 14160, Note_off_c, 6, 42, 95
8, 14160, Note_on_c, 6, 42, 95
8, 14400, Note_off_c, 6, 42, 95
8, 14400, Note_on_c, 6, 42, 95
8, 14880, Note_off_c, 6, 42, 95
8, 14880, Note_on_c, 6, 42, 95
8, 15120, Note_off_c, 6, 42, 95
8, 15120, Note_on_c, 6, 42, 95
8, 16080, Note_off_c, 6, 42, 95
8, 16080, Note_on_c, 6, 42, 95
8, 16320, Note_off_c, 6, 42, 95
8, 16320, Note_on_c, 6, 42, 95
8, 17280, Note_off_c, 6, 42, 95
8, 17280, Note_on_c, 6, 42, 95
8, 18000, Note_off_c, 6, 42, 95
8, 18000, Note_on_c, 6, 42, 95
8, 18240, Note_off_c, 6, 42, 95
8, 18240, Note_on_c, 6, 42, 95
8, 18720, Note_off_c, 6, 42, 95
8, 18720, Note_on_c, 6, 42, 95
8, 18960, Note_off_c, 6, 42, 95
8, 18960, Note_on_c, 6, 42, 95
8, 19920, Note_off_c, 6, 42, 95
8, 19920, Note_on_c, 6, 42, 95
8, 20160, Note_off_c, 6, 42, 95
8, 20160, Note_on_c, 6, 42, 95
8, 21120, Note_off_c, 6, 42, 95
8, 21120, Note_on_c, 6, 42, 95
8, 21840, Note_off_c, 6, 42, 95
8, 21840, Note_on_c, 6, 42, 95
8, 22080, Note_off_c, 6, 42, 95
8, 22080, Note_on_c, 6, 42, 95
8, 22560, Note_off_c, 6, 42, 95
8, 22560, Note_on_c, 6, 42, 95
8, 22800, Note_off_c, 6, 42, 95
8, 22800, Note_on_c, 6, 42, 95
8, 23760, Note_off_c, 6, 42, 95
8, 23760, Note_on_c, 6, 42, 95
8, 24000, Note_off_c, 6, 42, 95
8, 24000, Note_on_c, 6, 42, 95
8, 24960, Note_off_c, 6, 42, 95
8, 24960, Note_on_c, 6, 42, 95
8, 25680, Note_off_c, 6, 42, 95
8, 25680, Note_on_c, 6, 42, 95
8, 25920, Note_off_c, 6, 42, 95
8, 25920, Note_on_c, 6, 42, 95
8, 26400, Note_off_c, 6, 42, 95
8, 26400, Note_on_c, 6, 42, 95
8, 26640, Note_off_c, 6, 42, 95
8, 26640, Note_on_c, 6, 37, 95
8, 27600, Note_off_c, 6, 37, 95
8, 27600, Note_on_c, 6, 37, 95
8, 27840, Note_off_c, 6, 37, 95
8, 27840, Note_on_c, 6, 37, 95
8, 28800, Note_off_c, 6, 37, 95
8, 28800, Note_on_c, 6, 42, 95
8, 29520, Note_off_c, 6, 42, 95
8, 29520, Note_on_c, 6, 42, 95
8, 29760, Note_off_c, 6, 42, 95
8, 29760, Note_on_c, 6, 42, 95
8, 30240, Note_off_c, 6, 42, 95
8, 30240, Note_on_c, 6, 42, 95
8, 30720, Note_off_c, 6, 42, 95
8, 30720, Note_on_c, 6, 42, 95
8, 31440, Note_off_c, 6, 42, 95
8, 31440, Note_on_c, 6, 42, 95
8, 31680, Note_off_c, 6, 42, 95
8, 31680, Note_on_c, 6, 42, 95
8, 32160, Note_off_c, 6, 42, 95
8, 32160, Note_on_c, 6, 42, 95
8, 32400, Note_off_c, 6, 42, 95
8, 32400, Note_on_c, 6, 42, 95
8, 33360, Note_off_c, 6, 42, 95
8, 33360, Note_on_c, 6, 42, 95
8, 33600, Note_off_c, 6, 42, 95
8, 33600, Note_on_c, 6, 42, 95
8, 34560, Note_off_c, 6, 42, 95
8, 34560, Note_on_c, 6, 42, 95
8, 35280, Note_off_c, 6, 42, 95
8, 35280, Note_on_c, 6, 42, 95
8, 35520, Note_off_c, 6, 42, 95
8, 35520, Note_on_c, 6, 42, 95
8, 36000, Note_off_c, 6, 42, 95
8, 36000, Note_on_c, 6, 42, 95
8, 36240, Note_off_c, 6, 42, 95
8, 36240, Note_on_c, 6, 42, 95
8, 37200, Note_off_c, 6, 42, 95
8, 37200, Note_on_c, 6, 42, 95
8, 37440, Note_off_c, 6, 42, 95
8, 37440, Note_on_c, 6, 42, 95
8, 38400, Note_off_c, 6, 42, 95
8, 38400, Note_on_c, 6, 42, 95
8, 39120, Note_off_c, 6, 42, 95
8, 39120, Note_on_c, 6, 42, 95
8, 39360, Note_off_c, 6, 42, 95
8, 39360, Note_on_c, 6, 42, 95
8, 39840, Note_off_c, 6, 42, 95
8, 39840, Note_on_c, 6, 42, 95
8, 40080, Note_off_c, 6, 42, 95
8, 40080, Note_on_c, 6, 42, 95
8, 41040, Note_off_c, 6, 42, 95
8, 41040, Note_on_c, 6, 42, 95
8, 41280, Note_off_c, 6, 42, 95
8, 41280, Note_on_c, 6, 42, 95
8, 42240, Note_off_c, 6, 42, 95
8, 42240, Note_on_c, 6, 42, 95
8, 42960, Note_off_c, 6, 42, 95
8, 42960, Note_on_c, 6, 42, 95
8, 43200, Note_off_c, 6, 42, 95
8, 43200, Note_on_c, 6, 42, 95
8, 43680, Note_off_c, 6, 42, 95
8, 43680, Note_on_c, 6, 42, 95
8, 43920, Note_off_c, 6, 42, 95
8, 43920, Note_on_c, 6, 37, 95
8, 44880, Note_off_c, 6, 37, 95
8, 44880, Note_on_c, 6, 37, 95
8, 45120, Note_off_c, 6, 37, 95
8, 45120, Note_on_c, 6, 37, 95
8, 46080, Note_off_c, 6, 37, 95
8, 46080, Note_on_c, 6, 42, 95
8, 46800, Note_off_c, 6, 42, 95
8, 46800, Note_on_c, 6, 42, 95
8, 47040, Note_off_c, 6, 42, 95
8, 47040, Note_on_c, 6, 42, 95
8, 47520, Note_off_c, 6, 42, 95
8, 47520, Note_on_c, 6, 42, 95
8, 48000, Note_off_c, 6, 42, 95
8, 48000, Note_on_c, 6, 42, 95
8, 48720, Note_off_c, 6, 42, 95
8, 48720, Note_on_c, 6, 42, 95
8, 48960, Note_off_c, 6, 42, 95
8, 48960, Note_on_c, 6, 42, 95
8, 49440, Note_off_c, 6, 42, 95
8, 49440, Note_on_c, 6, 42, 95
8, 49680, Note_off_c, 6, 42, 95
8, 49680, Note_on_c, 6, 42, 95
8, 50640, Note_off_c, 6, 42, 95
8, 50640, Note_on_c, 6, 42, 95
8, 50880, Note_off_c, 6, 42, 95
8, 50880, Note_on_c, 6, 42, 95
8, 51840, Note_off_c, 6, 42, 95
8, 51840, Note_on_c, 6, 42, 95
8, 52560, Note_off_c, 6, 42, 95
8, 52560, Note_on_c, 6, 42, 95
8, 52800, Note_off_c, 6, 42, 95
8, 52800, Note_on_c, 6, 42, 95
8, 53280, Note_off_c, 6, 42, 95
8, 53280, Note_on_c, 6, 42, 95
8, 53520, Note_off_c, 6, 42, 95
8, 53520, Note_on_c, 6, 42, 95
8, 54480, Note_off_c, 6, 42, 95
8, 54480, Note_on_c, 6, 42, 95
8, 54720, Note_off_c, 6, 42, 95
8, 54720, Note_on_c, 6, 42, 95
8, 55680, Note_off_c, 6, 42, 95
8, 55680, Note_on_c, 6, 42, 95
8, 56400, Note_off_c, 6, 42, 95
8, 56400, Note_on_c, 6, 42, 95
8, 56640, Note_off_c, 6, 42, 95
8, 56640, Note_on_c, 6, 42, 95
8, 57120, Note_off_c, 6, 42, 95
8, 57120, Note_on_c, 6, 42, 95
8, 57360, Note_off_c, 6, 42, 95
8, 57360, Note_on_c, 6, 42, 95
8, 58320, Note_off_c, 6, 42, 95
8, 58320, Note_on_c, 6, 42, 95
8, 58560, Note_off_c, 6, 42, 95
8, 58560, Note_on_c, 6, 42, 95
8, 59520, Note_off_c, 6, 42, 95
8, 59520, Note_on_c, 6, 42, 95
8, 60240, Note_off_c, 6, 42, 95
8, 60240, Note_on_c, 6, 42, 95
8, 60480, Note_off_c, 6, 42, 95
8, 60480, Note_on_c, 6, 42, 95
8, 60960, Note_off_c, 6, 42, 95
8, 60960, Note_on_c, 6, 42, 95
8, 61200, Note_off_c, 6, 42, 95
8, 61200, Note_on_c, 6, 37, 95
8, 62160, Note_off_c, 6, 37, 95
8, 62160, Note_on_c, 6, 37, 95
8, 62400, Note_off_c, 6, 37, 95
8, 62400, Note_on_c, 6, 37, 95
8, 63360, Note_off_c, 6, 37, 95
8, 63360, Note_on_c, 6, 42, 95
8, 64080, Note_off_c, 6, 42, 95
8, 64080, Note_on_c, 6, 42, 95
8, 64320, Note_off_c, 6, 42, 95
8, 64320, Note_on_c, 6, 42, 95
8, 64800, Note_off_c, 6, 42, 95
8, 64800, Note_on_c, 6, 42, 95
8, 65280, Note_off_c, 6, 42, 95
8, 65280, Note_on_c, 6, 42, 95
8, 66000, Note_off_c, 6, 42, 95
8, 66000, Note_on_c, 6, 42, 95
8, 66240, Note_off_c, 6, 42, 95
8, 66240, Note_on_c, 6, 42, 95
8, 66720, Note_off_c, 6, 42, 95
8, 66720, Note_on_c, 6, 42, 95
8, 66960, Note_off_c, 6, 42, 95
8, 66960, Note_on_c, 6, 42, 95
8, 67920, Note_off_c, 6, 42, 95
8, 67920, Note_on_c, 6, 42, 95
8, 68160, Note_off_c, 6, 42, 95
8, 68160, Note_on_c, 6, 42, 95
8, 69120, Note_off_c, 6, 42, 95
8, 69120, Note_on_c, 6, 42, 95
8, 69840, Note_off_c, 6, 42, 95
8, 69840, Note_on_c, 6, 42, 95
8, 70080, Note_off_c, 6, 42, 95
8, 70080, Note_on_c, 6, 42, 95
8, 70560, Note_off_c, 6, 42, 95
8, 70560, Note_on_c, 6, 42, 95
8, 70800, Note_off_c, 6, 42, 95
8, 70800, Note_on_c, 6, 42, 95
8, 71760, Note_off_c, 6, 42, 95
8, 71760, Note_on_c, 6, 42, 95
8, 72000, Note_off_c, 6, 42, 95
8, 72000, Note_on_c, 6, 42, 95
8, 72960, Note_off_c, 6, 42, 95
8, 72960, Note_on_c, 6, 42, 95
8, 73680, Note_off_c, 6, 42, 95
8, 73680, Note_on_c, 6, 42, 95
8, 73920, Note_off_c, 6, 42, 95
8, 73920, Note_on_c, 6, 42, 95
8, 74400, Note_off_c, 6, 42, 95
8, 74400, Note_on_c, 6, 42, 95
8, 74640, Note_off_c, 6, 42, 95
8, 74640, Note_on_c, 6, 42, 95
8, 75600, Note_off_c, 6, 42, 95
8, 75600, Note_on_c, 6, 42, 95
8, 75840, Note_off_c, 6, 42, 95
8, 75840, Note_on_c, 6, 42, 95
8, 76800, Note_off_c, 6, 42, 95
8, 76800, Note_on_c, 6, 42, 95
8, 77520, Note_off_c, 6, 42, 95
8, 77520, Note_on_c, 6, 42, 95
8, 77760, Note_off_c, 6, 42, 95
8, 77760, Note_on_c, 6, 42, 95
8, 78240, Note_off_c, 6, 42, 95
8, 78240, Note_on_c, 6, 42, 95
8, 78480, Note_off_c, 6, 42, 95
8, 78480, Note_on_c, 6, 37, 95
8, 79440, Note_off_c, 6, 37, 95
8, 79440, Note_on_c, 6, 37, 95
8, 79680, Note_off_c, 6, 37, 95
8, 79680, Note_on_c, 6, 37, 95
8, 80640, Note_off_c, 6, 37, 95
8, 80640, Note_on_c, 6, 42, 95
8, 81360, Note_off_c, 6, 42, 95
8, 81360, Note_on_c, 6, 42, 95
8, 81600, Note_off_c, 6, 42, 95
8, 81600, Note_on_c, 6, 42, 95
8, 82080, Note_off_c, 6, 42, 95
8, 82080, Note_on_c, 6, 42, 95
8, 82560, Note_off_c, 6, 42, 95
8, 82560, Note_on_c, 6, 42, 95
8, 83280, Note_off_c, 6, 42, 95
8, 83280, Note_on_c, 6, 42, 95
8, 83520, Note_off_c, 6, 42, 95
8, 83520, Note_on_c, 6, 42, 95
8, 84000, Note_off_c, 6, 42, 95
8, 84000, Note_on_c, 6, 42, 95
8, 84240, Note_off_c, 6, 42, 95
8, 84240, Note_on_c, 6, 42, 95
8, 85200, Note_off_c, 6, 42, 95
8, 85200, Note_on_c, 6, 42, 95
8, 85440, Note_off_c, 6, 42, 95
8, 85440, Note_on_c, 6, 42, 95
8, 86400, Note_off_c, 6, 42, 95
8, 86400, Note_on_c, 6, 42, 95
8, 87120, Note_off_c, 6, 42, 95
8, 87120, Note_on_c, 6, 42, 95
8, 87360, Note_off_c, 6, 42, 95
8, 87360, Note_on_c, 6, 42, 95
8, 87840, Note_off_c, 6, 42, 95
8, 87840, Note_on_c, 6, 42, 95
8, 88080, Note_off_c, 6, 42, 95
8, 88080, Note_on_c, 6, 42, 95
8, 89040, Note_off_c, 6, 42, 95
8, 89040, Note_on_c, 6, 42, 95
8, 89280, Note_off_c, 6, 42, 95
8, 89280, Note_on_c, 6, 42, 95
8, 90240, Note_off_c, 6, 42, 95
8, 90240, Note_on_c, 6, 42, 95
8, 90960, Note_off_c, 6, 42, 95
8, 90960, Note_on_c, 6, 42, 95
8, 91200, Note_off_c, 6, 42, 95
8, 91200, Note_on_c, 6, 42, 95
8, 91680, Note_off_c, 6, 42, 95
8, 91680, Note_on_c, 6, 42, 95
8, 91920, Note_off_c, 6, 42, 95
8, 91920, Note_on_c, 6, 42, 95
8, 92880, Note_off_c, 6, 42, 95
8, 92880, Note_on_c, 6, 42, 95
8, 93120, Note_off_c, 6, 42, 95
8, 93120, Note_on_c, 6, 42, 95
8, 94080, Note_off_c, 6, 42, 95
8, 94080, Note_on_c, 6, 42, 95
8, 94800, Note_off_c, 6, 42, 95
8, 94800, Note_on_c, 6, 42, 95
8, 95040, Note_off_c, 6, 42, 95
8, 95040, Note_on_c, 6, 42, 95
8, 95520, Note_off_c, 6, 42, 95
8, 95520, Note_on_c, 6, 42, 95
8, 95760, Note_off_c, 6, 42, 95
8, 95760, Note_on_c, 6, 37, 95
8, 96720, Note_off_c, 6, 37, 95
8, 96720, Note_on_c, 6, 37, 95
8, 96960, Note_off_c, 6, 37, 95
8, 96960, Note_on_c, 6, 37, 95
8, 97920, Note_off_c, 6, 37, 95
8, 97920, Note_on_c, 6, 42, 95
8, 98640, Note_off_c, 6, 42, 95
8, 98640, Note_on_c, 6, 42, 95
8, 98880, Note_off_c, 6, 42, 95
8, 98880, Note_on_c, 6, 42, 95
8, 99360, Note_off_c, 6, 42, 95
8, 99360, Note_on_c, 6, 42, 95
8, 99840, Note_off_c, 6, 42, 95
8, 99840, Note_on_c, 6, 42, 95
8, 100560, Note_off_c, 6, 42, 95
8, 100560, Note_on_c, 6, 42, 95
8, 100800, Note_off_c, 6, 42, 95
8, 100800, Note_on_c, 6, 42, 95
8, 101280, Note_off_c, 6, 42, 95
8, 101280, Note_on_c, 6, 42, 95
8, 101520, Note_off_c, 6, 42, 95
8, 101520, Note_on_c, 6, 42, 95
8, 102480, Note_off_c, 6, 42, 95
8, 102480, Note_on_c, 6, 42, 95
8, 102720, Note_off_c, 6, 42, 95
8, 102720, Note_on_c, 6, 42, 95
8, 103680, Note_off_c, 6, 42, 95
8, 103680, Note_on_c, 6, 32, 95
8, 104400, Note_off_c, 6, 32, 95
8, 104400, Note_on_c, 6, 32, 95
8, 104640, Note_off_c, 6, 32, 95
8, 104640, Note_on_c, 6, 32, 95
8, 105600, Note_off_c, 6, 32, 95
8, 105600, Note_on_c, 6, 34, 95
8, 106320, Note_off_c, 6, 34, 95
8, 106320, Note_on_c, 6, 34, 95
8, 106560, Note_off_c, 6, 34, 95
8, 106560, Note_on_c, 6, 34, 95
8, 107520, Note_off_c, 6, 34, 95
8, 107520, Note_on_c, 6, 35, 95
8, 108240, Note_off_c, 6, 35, 95
8, 108240, Note_on_c, 6, 35, 95
8, 108480, Note_off_c, 6, 35, 95
8, 108480, Note_on_c, 6, 35, 95
8, 109440, Note_off_c, 6, 35, 95
8, 109440, Note_on_c, 6, 37, 95
8, 110160, Note_off_c, 6, 37, 95
8, 110160, Note_on_c, 6, 37, 95
8, 110400, Note_off_c, 6, 37, 95
8, 110400, Note_on_c, 6, 37, 95
8, 111360, Note_off_c, 6, 37, 95
8, 111360, Note_on_c, 6, 39, 95
8, 112080, Note_off_c, 6, 39, 95
8, 112080, Note_on_c, 6, 39, 95
8, 112320, Note_off_c, 6, 39, 95
8, 112320, Note_on_c, 6, 39, 95
8, 113280, Note_off_c, 6, 39, 95
8, 113280, Note_on_c, 6, 41, 95
8, 114000, Note_off_c, 6, 41, 95
8, 114000, Note_on_c, 6, 41, 95
8, 114240, Note_off_c, 6, 41, 95
8, 114240, Note_on_c, 6, 41, 95
8, 115200, Note_off_c, 6, 41, 95
8, 115200, Note_on_c, 6, 42, 95
8, 115920, Note_off_c, 6, 42, 95
8, 115920, Note_on_c, 6, 42, 95
8, 116160, Note_off_c, 6, 42, 95
8, 116160, Note_on_c, 6, 42, 95
8, 117120, Note_off_c, 6, 42, 95
8, 117120, Note_on_c, 6, 44, 95
8, 117840, Note_off_c, 6, 44, 95
8, 117840, Note_on_c, 6, 44, 95
8, 118080, Note_off_c, 6, 44, 95
8, 118080, Note_on_c, 6, 44, 95
8, 119040, Note_off_c, 6, 44, 95
8, 119040, Note_on_c, 6, 37, 95
8, 119760, Note_off_c, 6, 37, 95
8, 119760, Note_on_c, 6, 37, 95
8, 120000, Note_off_c, 6, 37, 95
8, 120000, Note_on_c, 6, 37, 95
8, 120960, Note_off_c, 6, 37, 95
8, 120960, Note_on_c, 6, 32, 95
8, 121680, Note_off_c, 6, 32, 95
8, 121680, Note_on_c, 6, 32, 95
8, 121920, Note_off_c, 6, 32, 95
8, 121920, Note_on_c, 6, 32, 95
8, 122880, Note_off_c, 6, 32, 95
8, 122880, Note_on_c, 6, 37, 95
8, 123600, Note_off_c, 6, 37, 95
8, 123600, Note_on_c, 6, 37, 95
8, 123840, Note_off_c, 6, 37, 95
8, 123840, Note_on_c, 6, 37, 95
8, 124800, Note_off_c, 6, 37, 95
8, 124800, Note_on_c, 6, 37, 95
8, 128640, Note_off_c, 6, 37, 95
8, 128640, Note_on_c, 6, 42, 95
8, 129360, Note_off_c, 6, 42, 95
8, 129360, Note_on_c, 6, 42, 95
8, 129600, Note_off_c, 6, 42, 95
8, 129600, Note_on_c, 6, 42, 95
8, 130080, Note_off_c, 6, 42, 95
8, 130080, Note_on_c, 6, 42, 95
8, 130320, Note_off_c, 6, 42, 95
8, 130320, Note_on_c, 6, 42, 95
8, 131280, Note_off_c, 6, 42, 95
8, 131280, Note_on_c, 6, 42, 95
8, 131520, Note_off_c, 6, 42, 95
8, 131520, Note_on_c, 6, 42, 95
8, 132480, Note_off_c, 6, 42, 95
8, 132480, Note_on_c, 6, 42, 95
8, 133200, Note_off_c, 6, 42, 95
8, 133200, Note_on_c, 6, 42, 95
8, 133440, Note_off_c, 6, 42, 95
8, 133440, Note_on_c, 6, 42, 95
8, 133920, Note_off_c, 6, 42, 95
8, 133920, Note_on_c, 6, 42, 95
8, 134160, Note_off_c, 6, 42, 95
8, 134160, Note_on_c, 6, 42, 95
8, 135120, Note_off_c, 6, 42, 95
8, 135120, Note_on_c, 6, 42, 95
8, 135360, Note_off_c, 6, 42, 95
8, 135360, Note_on_c, 6, 42, 95
8, 136320, Note_off_c, 6, 42, 95
8, 136320, Note_on_c, 6, 42, 95
8, 137040, Note_off_c, 6, 42, 95
8, 137040, Note_on_c, 6, 42, 95
8, 137280, Note_off_c, 6, 42, 95
8, 137280, Note_on_c, 6, 42, 95
8, 137760, Note_off_c, 6, 42, 95
8, 137760, Note_on_c, 6, 42, 95
8, 138000, Note_off_c, 6, 42, 95
8, 138000, Note_on_c, 6, 37, 95
8, 138960, Note_off_c, 6, 37, 95
8, 138960, Note_on_c, 6, 37, 95
8, 139200, Note_off_c, 6, 37, 95
8, 139200, Note_on_c, 6, 37, 95
8, 140160, Note_off_c, 6, 37, 95
8, 140160, Note_on_c, 6, 42, 95
8, 140880, Note_off_c, 6, 42, 95
8, 140880, Note_on_c, 6, 42, 95
8, 141120, Note_off_c, 6, 42, 95
8, 141120, Note_on_c, 6, 42, 95
8, 141600, Note_off_c, 6, 42, 95
8, 141600, Note_on_c, 6, 42, 95
8, 142080, Note_off_c, 6, 42, 95
8, 142080, Note_on_c, 6, 42, 95
8, 142800, Note_off_c, 6, 42, 95
8, 142800, Note_on_c, 6, 42, 95
8, 143040, Note_off_c, 6, 42, 95
8, 143040, Note_on_c, 6, 42, 95
8, 143520, Note_off_c, 6, 42, 95
8, 143520, Note_on_c, 6, 42, 95
8, 143760, Note_off_c, 6, 42, 95
8, 143760, Note_on_c, 6, 42, 95
8, 144720, Note_off_c, 6, 42, 95
8, 144720, Note_on_c, 6, 42, 95
8, 144960, Note_off_c, 6, 42, 95
8, 144960, Note_on_c, 6, 42, 95
8, 145920, Note_off_c, 6, 42, 95
8, 145920, Note_on_c, 6, 42, 95
8, 146640, Note_off_c, 6, 42, 95
8, 146640, Note_on_c, 6, 42, 95
8, 146880, Note_off_c, 6, 42, 95
8, 146880, Note_on_c, 6, 42, 95
8, 147360, Note_off_c, 6, 42, 95
8, 147360, Note_on_c, 6, 42, 95
8, 147600, Note_off_c, 6, 42, 95
8, 147600, Note_on_c, 6, 42, 95
8, 148560, Note_off_c, 6, 42, 95
8, 148560, Note_on_c, 6, 42, 95
8, 148800, Note_off_c, 6, 42, 95
8, 148800, Note_on_c, 6, 42, 95
8, 149760, Note_off_c, 6, 42, 95
8, 149760, Note_on_c, 6, 42, 95
8, 150480, Note_off_c, 6, 42, 95
8, 150480, Note_on_c, 6, 42, 95
8, 150720, Note_off_c, 6, 42, 95
8, 150720, Note_on_c, 6, 42, 95
8, 151200, Note_off_c, 6, 42, 95
8, 151200, Note_on_c, 6, 42, 95
8, 151440, Note_off_c, 6, 42, 95
8, 151440, Note_on_c, 6, 42, 95
8, 152400, Note_off_c, 6, 42, 95
8, 152400, Note_on_c, 6, 42, 95
8, 152640, Note_off_c, 6, 42, 95
8, 152640, Note_on_c, 6, 42, 95
8, 153600, Note_off_c, 6, 42, 95
8, 153600, Note_on_c, 6, 42, 95
8, 154320, Note_off_c, 6, 42, 95
8, 154320, Note_on_c, 6, 42, 95
8, 154560, Note_off_c, 6, 42, 95
8, 154560, Note_on_c, 6, 42, 95
8, 155040, Note_off_c, 6, 42, 95
8, 155040, Note_on_c, 6, 42, 95
8, 155280, Note_off_c, 6, 42, 95
8, 155280, Note_on_c, 6, 37, 95
8, 156240, Note_off_c, 6, 37, 95
8, 156240, Note_on_c, 6, 37, 95
8, 156480, Note_off_c, 6, 37, 95
8, 156480, Note_on_c, 6, 37, 95
8, 157440, Note_off_c, 6, 37, 95
8, 157440, Note_on_c, 6, 42, 95
8, 158160, Note_off_c, 6, 42, 95
8, 158160, Note_on_c, 6, 42, 95
8, 158400, Note_off_c, 6, 42, 95
8, 158400, Note_on_c, 6, 42, 95
8, 158880, Note_off_c, 6, 42, 95
8, 158880, Note_on_c, 6, 42, 95
8, 159360, Note_off_c, 6, 42, 95
8, 159360, Note_on_c, 6, 42, 95
8, 160080, Note_off_c, 6, 42, 95
8, 160080, Note_on_c, 6, 42, 95
8, 160320, Note_off_c, 6, 42, 95
8, 160320, Note_on_c, 6, 42, 95
8, 160800, Note_off_c, 6, 42, 95
8, 160800, Note_on_c, 6, 42, 95
8, 161040, Note_off_c, 6, 42, 95
8, 161040, Note_on_c, 6, 42, 95
8, 162000, Note_off_c, 6, 42, 95
8, 162000, Note_on_c, 6, 42, 95
8, 162240, Note_off_c, 6, 42, 95
8, 162240, Note_on_c, 6, 42, 95
8, 163200, Note_off_c, 6, 42, 95
8, 163200, Note_on_c, 6, 42, 95
8, 163920, Note_off_c, 6, 42, 95
8, 163920, Note_on_c, 6, 42, 95
8, 164160, Note_off_c, 6, 42, 95
8, 164160, Note_on_c, 6, 42, 95
8, 164640, Note_off_c, 6, 42, 95
8, 164640, Note_on_c, 6, 42, 95
8, 164880, Note_off_c, 6, 42, 95
8, 164880, Note_on_c, 6, 42, 95
8, 165840, Note_off_c, 6, 42, 95
8, 165840, Note_on_c, 6, 42, 95
8, 166080, Note_off_c, 6, 42, 95
8, 166080, Note_on_c, 6, 42, 95
8, 167040, Note_off_c, 6, 42, 95
8, 167040, Note_on_c, 6, 32, 95
8, 167760, Note_off_c, 6, 32, 95
8, 167760, Note_on_c, 6, 32, 95
8, 168000, Note_off_c, 6, 32, 95
8, 168000, Note_on_c, 6, 32, 95
8, 168960, Note_off_c, 6, 32, 95
8, 168960, Note_on_c, 6, 34, 95
8, 169680, Note_off_c, 6, 34, 95
8, 169680, Note_on_c, 6, 34, 95
8, 169920, Note_off_c, 6, 34, 95
8, 169920, Note_on_c, 6, 34, 95
8, 170880, Note_off_c, 6, 34, 95
8, 170880, Note_on_c, 6, 35, 95
8, 171600, Note_off_c, 6, 35, 95
8, 171600, Note_on_c, 6, 35, 95
8, 171840, Note_off_c, 6, 35, 95
8, 171840, Note_on_c, 6, 35, 95
8, 172800, Note_off_c, 6, 35, 95
8, 172800, Note_on_c, 6, 37, 95
8, 173520, Note_off_c, 6, 37, 95
8, 173520, Note_on_c, 6, 37, 95
8, 173760, Note_off_c, 6, 37, 95
8, 173760, Note_on_c, 6, 37, 95
8, 174720, Note_off_c, 6, 37, 95
8, 174720, Note_on_c, 6, 39, 95
8, 175440, Note_off_c, 6, 39, 95
8, 175440, Note_on_c, 6, 39, 95
8, 175680, Note_off_c, 6, 39, 95
8, 175680, Note_on_c, 6, 39, 95
8, 176640, Note_off_c, 6, 39, 95
8, 176640, Note_on_c, 6, 41, 95
8, 177360, Note_off_c, 6, 41, 95
8, 177360, Note_on_c, 6, 41, 95
8, 177600, Note_off_c, 6, 41, 95
8, 177600, Note_on_c, 6, 41, 95
8, 178560, Note_off_c, 6, 41, 95
8, 178560, Note_on_c, 6, 42, 95
8, 179280, Note_off_c, 6, 42, 95
8, 179280, Note_on_c, 6, 42, 95
8, 179520, Note_off_c, 6, 42, 95
8, 179520, Note_on_c, 6, 42, 95
8, 180480, Note_off_c, 6, 42, 95
8, 180480, Note_on_c, 6, 44, 95
8, 181200, Note_off_c, 6, 44, 95
8, 181200, Note_on_c, 6, 44, 95
8, 181440, Note_off_c, 6, 44, 95
8, 181440, Note_on_c, 6, 44, 95
8, 182400, Note_off_c, 6, 44, 95
8, 182400, Note_on_c, 6, 37, 95
8, 183120, Note_off_c, 6, 37, 95
8, 183120, Note_on_c, 6, 37, 95
8, 183360, Note_off_c, 6, 37, 95
8, 183360, Note_on_c, 6, 37, 95
8, 184320, Note_off_c, 6, 37, 95
8, 184320, Note_on_c, 6, 32, 95
8, 185040, Note_off_c, 6, 32, 95
8, 185040, Note_on_c, 6, 32, 95
8, 185280, Note_off_c, 6, 32, 95
8, 185280, Note_on_c, 6, 32, 95
8, 186240, Note_off_c, 6, 32, 95
8, 186240, Note_on_c, 6, 37, 95
8, 186960, Note_off_c, 6, 37, 95
8, 186960, Note_on_c, 6, 37, 95
8, 187200, Note_off_c, 6, 37, 95
8, 187200, Note_on_c, 6, 37, 95
8, 188160, Note_off_c, 6, 37, 95
8, 188160, Note_on_c, 6, 37, 95
8, 192000, Note_off_c, 6, 37, 95
8, 192000, Note_on_c, 6, 42, 95
8, 192720, Note_off_c, 6, 42, 95
8, 192720, Note_on_c, 6, 42, 95
8, 192960, Note_off_c, 6, 42, 95
8, 192960, Note_on_c, 6, 42, 95
8, 193440, Note_off_c, 6, 42, 95
8, 193440, Note_on_c, 6, 42, 95
8, 193680, Note_off_c, 6, 42, 95
8, 193680, Note_on_c, 6, 42, 95
8, 194640, Note_off_c, 6, 42, 95
8, 194640, Note_on_c, 6, 42, 95
8, 194880, Note_off_c, 6, 42, 95
8, 194880, Note_on_c, 6, 42, 95
8, 195840, Note_off_c, 6, 42, 95
8, 195840, Note_on_c, 6, 42, 95
8, 196560, Note_off_c, 6, 42, 95
8, 196560, Note_on_c, 6, 42, 95
8, 196800, Note_off_c, 6, 42, 95
8, 196800, Note_on_c, 6, 42, 95
8, 197280, Note_off_c, 6, 42, 95
8, 197280, Note_on_c, 6, 42, 95
8, 197520, Note_off_c, 6, 42, 95
8, 197520, Note_on_c, 6, 42, 95
8, 198480, Note_off_c, 6, 42, 95
8, 198480, Note_on_c, 6, 42, 95
8, 198720, Note_off_c, 6, 42, 95
8, 198720, Note_on_c, 6, 42, 95
8, 199680, Note_off_c, 6, 42, 95
8, 199680, Note_on_c, 6, 42, 95
8, 200400, Note_off_c, 6, 42, 95
8, 200400, Note_on_c, 6, 42, 95
8, 200640, Note_off_c, 6, 42, 95
8, 200640, Note_on_c, 6, 42, 95
8, 201120, Note_off_c, 6, 42, 95
8, 201120, Note_on_c, 6, 42, 95
8, 201360, Note_off_c, 6, 42, 95
8, 201360, Note_on_c, 6, 37, 95
8, 202320, Note_off_c, 6, 37, 95
8, 202320, Note_on_c, 6, 37, 95
8, 202560, Note_off_c, 6, 37, 95
8, 202560, Note_on_c, 6, 37, 95
8, 203520, Note_off_c, 6, 37, 95
8, 203520, Note_on_c, 6, 42, 95
8, 204240, Note_off_c, 6, 42, 95
8, 204240, Note_on_c, 6, 42, 95
8, 204480, Note_off_c, 6, 42, 95
8, 204480, Note_on_c, 6, 42, 95
8, 204960, Note_off_c, 6, 42, 95
8, 204960, Note_on_c, 6, 42, 95
8, 205440, Note_off_c, 6, 42, 95
8, 205440, Note_on_c, 6, 42, 95
8, 206160, Note_off_c, 6, 42, 95
8, 206160, Note_on_c, 6, 42, 95
8, 206400, Note_off_c, 6, 42, 95
8, 206400, Note_on_c, 6, 42, 95
8, 206880, Note_off_c, 6, 42, 95
8, 206880, Note_on_c, 6, 42, 95
8, 207120, Note_off_c, 6, 42, 95
8, 207120, Note_on_c, 6, 42, 95
8, 208080, Note_off_c, 6, 42, 95
8, 208080, Note_on_c, 6, 42, 95
8, 208320, Note_off_c, 6, 42, 95
8, 208320, Note_on_c, 6, 42, 95
8, 209280, Note_off_c, 6, 42, 95
8, 209280, Note_on_c, 6, 42, 95
8, 210000, Note_off_c, 6, 42, 95
8, 210000, Note_on_c, 6, 42, 95
8, 210240, Note_off_c, 6, 42, 95
8, 210240, Note_on_c, 6, 42, 95
8, 210720, Note_off_c, 6, 42, 95
8, 210720, Note_on_c, 6, 42, 95
8, 210960, Note_off_c, 6, 42, 95
8, 210960, Note_on_c, 6, 42, 95
8, 211920, Note_off_c, 6, 42, 95
8, 211920, Note_on_c, 6, 42, 95
8, 212160, Note_off_c, 6, 42, 95
8, 212160, Note_on_c, 6, 42, 95
8, 213120, Note_off_c, 6, 42, 95
8, 213120, Note_on_c, 6, 42, 95
8, 213840, Note_off_c, 6, 42, 95
8, 213840, Note_on_c, 6, 42, 95
8, 214080, Note_off_c, 6, 42, 95
8, 214080, Note_on_c, 6, 42, 95
8, 214560, Note_off_c, 6, 42, 95
8, 214560, Note_on_c, 6, 42, 95
8, 214800, Note_off_c, 6, 42, 95
8, 214800, Note_on_c, 6, 42, 95
8, 215760, Note_off_c, 6, 42, 95
8, 215760, Note_on_c, 6, 42, 95
8, 216000, Note_off_c, 6, 42, 95
8, 216000, Note_on_c, 6, 42, 95
8, 216960, Note_off_c, 6, 42, 95
8, 216960, Note_on_c, 6, 42, 95
8, 217680, Note_off_c, 6, 42, 95
8, 217680, Note_on_c, 6, 42, 95
8, 217920, Note_off_c, 6, 42, 95
8, 217920, Note_on_c, 6, 42, 95
8, 218400, Note_off_c, 6, 42, 95
8, 218400, Note_on_c, 6, 42, 95
8, 218640, Note_off_c, 6, 42, 95
8, 218640, Note_on_c, 6, 37, 95
8, 219600, Note_off_c, 6, 37, 95
8, 219600, Note_on_c, 6, 37, 95
8, 219840, Note_off_c, 6, 37, 95
8, 219840, Note_on_c, 6, 37, 95
8, 220800, Note_off_c, 6, 37, 95
8, 220800, Note_on_c, 6, 42, 95
8, 221520, Note_off_c, 6, 42, 95
8, 221520, Note_on_c, 6, 42, 95
8, 221760, Note_off_c, 6, 42, 95
8, 221760, Note_on_c, 6, 42, 95
8, 222240, Note_off_c, 6, 42, 95
8, 222240, Note_on_c, 6, 42, 95
8, 222720, Note_off_c, 6, 42, 95
8, 222720, Note_on_c, 6, 42, 95
8, 223440, Note_off_c, 6, 42, 95
8, 223440, Note_on_c, 6, 42, 95
8, 223680, Note_off_c, 6, 42, 95
8, 223680, Note_on_c, 6, 42, 95
8, 224160, Note_off_c, 6, 42, 95
8, 224160, Note_on_c, 6, 42, 95
8, 224400, Note_off_c, 6, 42, 95
8, 224400, Note_on_c, 6, 42, 95
8, 225360, Note_off_c, 6, 42, 95
8, 225360, Note_on_c, 6, 42, 95
8, 225600, Note_off_c, 6, 42, 95
8, 225600, Note_on_c, 6, 42, 95
8, 226560, Note_off_c, 6, 42, 95
8, 226560, Note_on_c, 6, 42, 95
8, 228480, Note_off_c, 6, 42, 95
8, 228480, Note_on_c, 6, 42, 95
8, 229200, Note_off_c, 6, 42, 95
8, 229200, Note_on_c, 6, 42, 95
8, 229440, Note_off_c, 6, 42, 95
8, 229440, Note_on_c, 6, 42, 95
8, 229920, Note_off_c, 6, 42, 95
8, 229920, Note_on_c, 6, 42, 95
8, 230160, Note_off_c, 6, 42, 95
8, 230160, Note_on_c, 6, 42, 95
8, 231120, Note_off_c, 6, 42, 95
8, 231120, Note_on_c, 6, 42, 95
8, 231360, Note_off_c, 6, 42, 95
8, 231360, Note_on_c, 6, 42, 95
8, 232320, Note_off_c, 6, 42, 95
8, 232320, Note_on_c, 6, 42, 95
8, 233040, Note_off_c, 6, 42, 95
8, 233040, Note_on_c, 6, 42, 95
8, 233280, Note_off_c, 6, 42, 95
8, 233280, Note_on_c, 6, 42, 95
8, 233760, Note_off_c, 6, 42, 95
8, 233760, Note_on_c, 6, 42, 95
8, 234000, Note_off_c, 6, 42, 95
8, 234000, Note_on_c, 6, 42, 95
8, 234960, Note_off_c, 6, 42, 95
8, 234960, Note_on_c, 6, 42, 95
8, 235200, Note_off_c, 6, 42, 95
8, 235200, Note_on_c, 6, 42, 95
8, 236160, Note_off_c, 6, 42, 95
8, 236160, Note_on_c, 6, 42, 95
8, 236880, Note_off_c, 6, 42, 95
8, 236880, Note_on_c, 6, 42, 95
8, 237120, Note_off_c, 6, 42, 95
8, 237120, Note_on_c, 6, 42, 95
8, 237600, Note_off_c, 6, 42, 95
8, 237600, Note_on_c, 6, 42, 95
8, 237840, Note_off_c, 6, 42, 95
8, 237840, Note_on_c, 6, 37, 95
8, 238800, Note_off_c, 6, 37, 95
8, 238800, Note_on_c, 6, 37, 95
8, 239040, Note_off_c, 6, 37, 95
8, 239040, Note_on_c, 6, 37, 95
8, 240000, Note_off_c, 6, 37, 95
8, 240000, Note_on_c, 6, 42, 95
8, 240720, Note_off_c, 6, 42, 95
8, 240720, Note_on_c, 6, 42, 95
8, 240960, Note_off_c, 6, 42, 95
8, 240960, Note_on_c, 6, 42, 95
8, 241440, Note_off_c, 6, 42, 95
8, 241440, Note_on_c, 6, 42, 95
8, 241680, Note_off_c, 6, 42, 95
8, 241680, Note_on_c, 6, 42, 95
8, 242640, Note_off_c, 6, 42, 95
8, 242640, Note_on_c, 6, 42, 95
8, 242880, Note_off_c, 6, 42, 95
8, 242880, Note_on_c, 6, 42, 95
8, 243840, Note_off_c, 6, 42, 95
8, 243840, Note_on_c, 6, 42, 95
8, 244560, Note_off_c, 6, 42, 95
8, 244560, Note_on_c, 6, 42, 95
8, 244800, Note_off_c, 6, 42, 95
8, 244800, Note_on_c, 6, 42, 95
8, 245280, Note_off_c, 6, 42, 95
8, 245280, Note_on_c, 6, 42, 95
8, 245520, Note_off_c, 6, 42, 95
8, 245520, Note_on_c, 6, 42, 95
8, 246480, Note_off_c, 6, 42, 95
8, 246480, Note_on_c, 6, 42, 95
8, 246720, Note_off_c, 6, 42, 95
8, 246720, Note_on_c, 6, 42, 95
8, 247680, Note_off_c, 6, 42, 95
8, 247680, Note_on_c, 6, 42, 95
8, 248400, Note_off_c, 6, 42, 95
8, 248400, Note_on_c, 6, 42, 95
8, 248640, Note_off_c, 6, 42, 95
8, 248640, Note_on_c, 6, 42, 95
8, 249120, Note_off_c, 6, 42, 95
8, 249120, Note_on_c, 6, 42, 95
8, 249360, Note_off_c, 6, 42, 95
8, 249360, Note_on_c, 6, 42, 95
8, 250320, Note_off_c, 6, 42, 95
8, 250320, Note_on_c, 6, 42, 95
8, 250560, Note_off_c, 6, 42, 95
8, 250560, Note_on_c, 6, 42, 95
8, 251520, Note_off_c, 6, 42, 95
8, 251520, Note_on_c, 6, 42, 95
8, 252240, Note_off_c, 6, 42, 95
8, 252240, Note_on_c, 6, 42, 95
8, 252480, Note_off_c, 6, 42, 95
8, 252480, Note_on_c, 6, 42, 95
8, 252960, Note_off_c, 6, 42, 95
8, 252960, Note_on_c, 6, 42, 95
8, 253200, Note_off_c, 6, 42, 95
8, 253200, Note_on_c, 6, 37, 95
8, 254160, Note_off_c, 6, 37, 95
8, 254160, Note_on_c, 6, 37, 95
8, 254400, Note_off_c, 6, 37, 95
8, 254400, Note_on_c, 6, 37, 95
8, 255360, Note_off_c, 6, 37, 95
8, 255360, Note_on_c, 6, 42, 95
8, 256080, Note_off_c, 6, 42, 95
8, 256080, Note_on_c, 6, 42, 95
8, 256320, Note_off_c, 6, 42, 95
8, 256320, Note_on_c, 6, 42, 95
8, 256800, Note_off_c, 6, 42, 95
8, 256800, Note_on_c, 6, 42, 95
8, 257040, Note_off_c, 6, 42, 95
8, 257040, Note_on_c, 6, 42, 95
8, 258000, Note_off_c, 6, 42, 95
8, 258000, Note_on_c, 6, 42, 95
8, 258240, Note_off_c, 6, 42, 95
8, 258240, Note_on_c, 6, 42, 95
8, 259200, Note_off_c, 6, 42, 95
8, 259200, Note_on_c, 6, 42, 95
8, 259920, Note_off_c, 6, 42, 95
8, 259920, Note_on_c, 6, 42, 95
8, 260160, Note_off_c, 6, 42, 95
8, 260160, Note_on_c, 6, 42, 95
8, 260640, Note_off_c, 6, 42, 95
8, 260640, Note_on_c, 6, 42, 95
8, 260880, Note_off_c, 6, 42, 95
8, 260880, Note_on_c, 6, 42, 95
8, 261840, Note_off_c, 6, 42, 95
8, 261840, Note_on_c, 6, 42, 95
8, 262080, Note_off_c, 6, 42, 95
8, 262080, Note_on_c, 6, 42, 95
8, 263040, Note_off_c, 6, 42, 95
8, 263040, Note_on_c, 6, 42, 95
8, 263760, Note_off_c, 6, 42, 95
8, 263760, Note_on_c, 6, 42, 95
8, 264000, Note_off_c, 6, 42, 95
8, 264000, Note_on_c, 6, 42, 95
8, 264480, Note_off_c, 6, 42, 95
8, 264480, Note_on_c, 6, 42, 95
8, 264720, Note_off_c, 6, 42, 95
8, 264720, Note_on_c, 6, 42, 95
8, 265680, Note_off_c, 6, 42, 95
8, 265680, Note_on_c, 6, 42, 95
8, 265920, Note_off_c, 6, 42, 95
8, 265920, Note_on_c, 6, 42, 95
8, 266880, Note_off_c, 6, 42, 95
8, 266880, Note_on_c, 6, 42, 95
8, 267600, Note_off_c, 6, 42, 95
8, 267600, Note_on_c, 6, 42, 95
8, 267840, Note_off_c, 6, 42, 95
8, 267840, Note_on_c, 6, 42, 95
8, 268320, Note_off_c, 6, 42, 95
8, 268320, Note_on_c, 6, 42, 95
8, 268560, Note_off_c, 6, 42, 95
8, 268560, Note_on_c, 6, 37, 95
8, 269520, Note_off_c, 6, 37, 95
8, 269520, Note_on_c, 6, 37, 95
8, 269760, Note_off_c, 6, 37, 95
8, 269760, Note_on_c, 6, 37, 95
8, 270720, Note_off_c, 6, 37, 95
8, 270720, Note_on_c, 6, 42, 95
8, 271440, Note_off_c, 6, 42, 95
8, 271440, Note_on_c, 6, 42, 95
8, 271680, Note_off_c, 6, 42, 95
8, 271680, Note_on_c, 6, 42, 95
8, 272160, Note_off_c, 6, 42, 95
8, 272160, Note_on_c, 6, 42, 95
8, 272400, Note_off_c, 6, 42, 95
8, 272400, Note_on_c, 6, 42, 95
8, 273360, Note_off_c, 6, 42, 95
8, 273360, Note_on_c, 6, 42, 95
8, 273600, Note_off_c, 6, 42, 95
8, 273600, Note_on_c, 6, 42, 95
8, 274560, Note_off_c, 6, 42, 95
8, 274560, End_track
9, 0, Start_track
9, 0, Pitch_bend_c, 8, 8192
9, 0, Control_c, 8, 7, 55
9, 0, Control_c, 8, 10, 47
9, 0, Control_c, 8, 93, 0
9, 0, Control_c, 8, 91, 0
9, 0, Control_c, 8, 95, 0
9, 0, Control_c, 8, 92, 0
9, 0, Control_c, 8, 11, 127
9, 0, Program_c, 8, 90
9, 0, Control_c, 10, 7, 55
9, 0, Control_c, 10, 10, 47
9, 0, Control_c, 10, 93, 0
9, 0, Control_c, 10, 91, 0
9, 0, Control_c, 10, 95, 0
9, 0, Control_c, 10, 92, 0
9, 0, Control_c, 10, 11, 127
9, 0, Program_c, 10, 90
9, 13440, Note_on_c, 8, 70, 95
9, 13440, Note_on_c, 8, 66, 95
9, 17280, Note_off_c, 8, 70, 95
9, 17280, Note_off_c, 8, 66, 95
9, 17280, Note_on_c, 8, 70, 95
9, 17280, Note_on_c, 8, 66, 95
9, 19200, Note_off_c, 8, 70, 95
9, 19200, Note_off_c, 8, 66, 95
9, 19200, Note_on_c, 8, 70, 95
9, 19200, Note_on_c, 8, 66, 95
9, 21120, Note_off_c, 8, 70, 95
9, 21120, Note_off_c, 8, 66, 95
9, 21120, Note_on_c, 8, 70, 95
9, 21120, Note_on_c, 8, 66, 95
9, 21600, Note_off_c, 8, 70, 95
9, 21600, Note_off_c, 8, 66, 95
9, 21600, Note_on_c, 8, 70, 95
9, 21600, Note_on_c, 8, 66, 95
9, 21840, Note_off_c, 8, 70, 95
9, 21840, Note_off_c, 8, 66, 95
9, 21840, Note_on_c, 8, 70, 95
9, 21840, Note_on_c, 8, 66, 95
9, 22320, Note_off_c, 8, 70, 95
9, 22320, Note_off_c, 8, 66, 95
9, 22320, Note_on_c, 8, 71, 95
9, 22320, Note_on_c, 8, 68, 95
9, 22560, Note_off_c, 8, 71, 95
9, 22560, Note_off_c, 8, 68, 95
9, 22560, Note_on_c, 8, 73, 95
9, 22560, Note_on_c, 8, 68, 95
9, 22800, Note_off_c, 8, 73, 95
9, 22800, Note_off_c, 8, 68, 95
9, 22800, Note_on_c, 8, 74, 95
9, 22800, Note_on_c, 8, 71, 95
9, 23280, Note_off_c, 8, 74, 95
9, 23280, Note_off_c, 8, 71, 95
9, 23280, Note_on_c, 8, 70, 95
9, 23280, Note_on_c, 8, 66, 95
9, 23760, Note_off_c, 8, 70, 95
9, 23760, Note_off_c, 8, 66, 95
9, 23760, Note_on_c, 8, 68, 95
9, 23760, Note_on_c, 8, 66, 95
9, 24240, Note_off_c, 8, 68, 95
9, 24240, Note_off_c, 8, 66, 95
9, 24240, Note_on_c, 8, 68, 95
9, 24240, Note_on_c, 8, 66, 95
9, 24720, Note_off_c, 8, 68, 95
9, 24720, Note_off_c, 8, 66, 95
9, 24720, Note_on_c, 8, 68, 95
9, 24720, Note_on_c, 8, 66, 95
9, 24960, Note_off_c, 8, 68, 95
9, 24960, Note_off_c, 8, 66, 95
9, 24960, Note_on_c, 8, 70, 95
9, 24960, Note_on_c, 8, 66, 95
9, 26880, Note_off_c, 8, 70, 95
9, 26880, Note_off_c, 8, 66, 95
9, 26880, Note_on_c, 8, 68, 95
9, 26880, Note_on_c, 8, 61, 95
9, 27840, Note_off_c, 8, 68, 95
9, 27840, Note_off_c, 8, 61, 95
9, 27840, Note_on_c, 8, 73, 95
9, 27840, Note_on_c, 8, 61, 95
9, 28800, Note_off_c, 8, 73, 95
9, 28800, Note_off_c, 8, 61, 95
9, 28800, Note_on_c, 8, 75, 95
9, 28800, Note_on_c, 8, 71, 95
9, 30480, Note_off_c, 8, 75, 95
9, 30480, Note_off_c, 8, 71, 95
9, 30480, Note_on_c, 8, 70, 95
9, 30480, Note_on_c, 8, 66, 95
9, 34560, Note_off_c, 8, 70, 95
9, 34560, Note_off_c, 8, 66, 95
9, 34560, Note_on_c, 8, 70, 95
9, 34560, Note_on_c, 8, 66, 95
9, 36480, Note_off_c, 8, 70, 95
9, 36480, Note_off_c, 8, 66, 95
9, 36480, Note_on_c, 8, 70, 95
9, 36480, Note_on_c, 8, 66, 95
9, 38400, Note_off_c, 8, 70, 95
9, 38400, Note_off_c, 8, 66, 95
9, 38400, Note_on_c, 8, 70, 95
9, 38400, Note_on_c, 8, 66, 95
9, 38880, Note_off_c, 8, 70, 95
9, 38880, Note_off_c, 8, 66, 95
9, 38880, Note_on_c, 8, 70, 95
9, 38880, Note_on_c, 8, 66, 95
9, 39120, Note_off_c, 8, 70, 95
9, 39120, Note_off_c, 8, 66, 95
9, 39120, Note_on_c, 8, 70, 95
9, 39120, Note_on_c, 8, 66, 95
9, 39600, Note_off_c, 8, 70, 95
9, 39600, Note_off_c, 8, 66, 95
9, 39600, Note_on_c, 8, 71, 95
9, 39600, Note_on_c, 8, 68, 95
9, 39840, Note_off_c, 8, 71, 95
9, 39840, Note_off_c, 8, 68, 95
9, 39840, Note_on_c, 8, 73, 95
9, 39840, Note_on_c, 8, 68, 95
9, 40080, Note_off_c, 8, 73, 95
9, 40080, Note_off_c, 8, 68, 95
9, 40080, Note_on_c, 8, 74, 95
9, 40080, Note_on_c, 8, 71, 95
9, 40560, Note_off_c, 8, 74, 95
9, 40560, Note_off_c, 8, 71, 95
9, 40560, Note_on_c, 8, 70, 95
9, 40560, Note_on_c, 8, 66, 95
9, 41040, Note_off_c, 8, 70, 95
9, 41040, Note_off_c, 8, 66, 95
9, 41040, Note_on_c, 8, 68, 95
9, 41040, Note_on_c, 8, 66, 95
9, 41520, Note_off_c, 8, 68, 95
9, 41520, Note_off_c, 8, 66, 95
9, 41520, Note_on_c, 8, 68, 95
9, 41520, Note_on_c, 8, 66, 95
9, 42000, Note_off_c, 8, 68, 95
9, 42000, Note_off_c, 8, 66, 95
9, 42000, Note_on_c, 8, 68, 95
9, 42000, Note_on_c, 8, 66, 95
9, 42240, Note_off_c, 8, 68, 95
9, 42240, Note_off_c, 8, 66, 95
9, 42240, Note_on_c, 8, 70, 95
9, 42240, Note_on_c, 8, 66, 95
9, 44160, Note_off_c, 8, 70, 95
9, 44160, Note_off_c, 8, 66, 95
9, 44160, Note_on_c, 8, 68, 95
9, 44160, Note_on_c, 8, 61, 95
9, 45120, Note_off_c, 8, 68, 95
9, 45120, Note_off_c, 8, 61, 95
9, 45120, Note_on_c, 8, 73, 95
9, 45120, Note_on_c, 8, 61, 95
9, 46080, Note_off_c, 8, 73, 95
9, 46080, Note_off_c, 8, 61, 95
9, 46080, Note_on_c, 8, 75, 95
9, 46080, Note_on_c, 8, 71, 95
9, 47760, Note_off_c, 8, 75, 95
9, 47760, Note_off_c, 8, 71, 95
9, 47760, Note_on_c, 8, 70, 95
9, 47760, Note_on_c, 8, 66, 95
9, 51840, Note_off_c, 8, 70, 95
9, 51840, Note_off_c, 8, 66, 95
9, 51840, Note_on_c, 8, 70, 95
9, 51840, Note_on_c, 8, 66, 95
9, 53760, Note_off_c, 8, 70, 95
9, 53760, Note_off_c, 8, 66, 95
9, 53760, Note_on_c, 8, 70, 95
9, 53760, Note_on_c, 8, 66, 95
9, 55680, Note_off_c, 8, 70, 95
9, 55680, Note_off_c, 8, 66, 95
9, 55680, Note_on_c, 8, 70, 95
9, 55680, Note_on_c, 8, 66, 95
9, 56160, Note_off_c, 8, 70, 95
9, 56160, Note_off_c, 8, 66, 95
9, 56160, Note_on_c, 8, 70, 95
9, 56160, Note_on_c, 8, 66, 95
9, 56400, Note_off_c, 8, 70, 95
9, 56400, Note_off_c, 8, 66, 95
9, 56400, Note_on_c, 8, 70, 95
9, 56400, Note_on_c, 8, 66, 95
9, 56880, Note_off_c, 8, 70, 95
9, 56880, Note_off_c, 8, 66, 95
9, 56880, Note_on_c, 8, 71, 95
9, 56880, Note_on_c, 8, 68, 95
9, 57120, Note_off_c, 8, 71, 95
9, 57120, Note_off_c, 8, 68, 95
9, 57120, Note_on_c, 8, 73, 95
9, 57120, Note_on_c, 8, 68, 95
9, 57360, Note_off_c, 8, 73, 95
9, 57360, Note_off_c, 8, 68, 95
9, 57360, Note_on_c, 8, 74, 95
9, 57360, Note_on_c, 8, 71, 95
9, 57840, Note_off_c, 8, 74, 95
9, 57840, Note_off_c, 8, 71, 95
9, 57840, Note_on_c, 8, 70, 95
9, 57840, Note_on_c, 8, 66, 95
9, 58320, Note_off_c, 8, 70, 95
9, 58320, Note_off_c, 8, 66, 95
9, 58320, Note_on_c, 8, 68, 95
9, 58320, Note_on_c, 8, 66, 95
9, 58800, Note_off_c, 8, 68, 95
9, 58800, Note_off_c, 8, 66, 95
9, 58800, Note_on_c, 8, 68, 95
9, 58800, Note_on_c, 8, 66, 95
9, 59280, Note_off_c, 8, 68, 95
9, 59280, Note_off_c, 8, 66, 95
9, 59280, Note_on_c, 8, 68, 95
9, 59280, Note_on_c, 8, 66, 95
9, 59520, Note_off_c, 8, 68, 95
9, 59520, Note_off_c, 8, 66, 95
9, 59520, Note_on_c, 8, 70, 95
9, 59520, Note_on_c, 8, 66, 95
9, 61440, Note_off_c, 8, 70, 95
9, 61440, Note_off_c, 8, 66, 95
9, 61440, Note_on_c, 8, 68, 95
9, 61440, Note_on_c, 8, 61, 95
9, 62400, Note_off_c, 8, 68, 95
9, 62400, Note_off_c, 8, 61, 95
9, 62400, Note_on_c, 8, 73, 95
9, 62400, Note_on_c, 8, 61, 95
9, 63360, Note_off_c, 8, 73, 95
9, 63360, Note_off_c, 8, 61, 95
9, 63360, Note_on_c, 8, 75, 95
9, 63360, Note_on_c, 8, 71, 95
9, 65040, Note_off_c, 8, 75, 95
9, 65040, Note_off_c, 8, 71, 95
9, 65040, Note_on_c, 8, 70, 95
9, 65040, Note_on_c, 8, 66, 95
9, 69120, Note_off_c, 8, 70, 95
9, 69120, Note_off_c, 8, 66, 95
9, 69120, Note_on_c, 8, 70, 95
9, 69120, Note_on_c, 8, 66, 95
9, 71040, Note_off_c, 8, 70, 95
9, 71040, Note_off_c, 8, 66, 95
9, 71040, Note_on_c, 8, 70, 95
9, 71040, Note_on_c, 8, 66, 95
9, 72960, Note_off_c, 8, 70, 95
9, 72960, Note_off_c, 8, 66, 95
9, 72960, Note_on_c, 8, 70, 95
9, 72960, Note_on_c, 8, 66, 95
9, 73440, Note_off_c, 8, 70, 95
9, 73440, Note_off_c, 8, 66, 95
9, 73440, Note_on_c, 8, 70, 95
9, 73440, Note_on_c, 8, 66, 95
9, 73680, Note_off_c, 8, 70, 95
9, 73680, Note_off_c, 8, 66, 95
9, 73680, Note_on_c, 8, 70, 95
9, 73680, Note_on_c, 8, 66, 95
9, 74160, Note_off_c, 8, 70, 95
9, 74160, Note_off_c, 8, 66, 95
9, 74160, Note_on_c, 8, 71, 95
9, 74160, Note_on_c, 8, 68, 95
9, 74400, Note_off_c, 8, 71, 95
9, 74400, Note_off_c, 8, 68, 95
9, 74400, Note_on_c, 8, 73, 95
9, 74400, Note_on_c, 8, 68, 95
9, 74640, Note_off_c, 8, 73, 95
9, 74640, Note_off_c, 8, 68, 95
9, 74640, Note_on_c, 8, 74, 95
9, 74640, Note_on_c, 8, 71, 95
9, 75120, Note_off_c, 8, 74, 95
9, 75120, Note_off_c, 8, 71, 95
9, 75120, Note_on_c, 8, 70, 95
9, 75120, Note_on_c, 8, 66, 95
9, 75600, Note_off_c, 8, 70, 95
9, 75600, Note_off_c, 8, 66, 95
9, 75600, Note_on_c, 8, 68, 95
9, 75600, Note_on_c, 8, 66, 95
9, 76080, Note_off_c, 8, 68, 95
9, 76080, Note_off_c, 8, 66, 95
9, 76080, Note_on_c, 8, 68, 95
9, 76080, Note_on_c, 8, 66, 95
9, 76560, Note_off_c, 8, 68, 95
9, 76560, Note_off_c, 8, 66, 95
9, 76560, Note_on_c, 8, 68, 95
9, 76560, Note_on_c, 8, 66, 95
9, 76800, Note_off_c, 8, 68, 95
9, 76800, Note_off_c, 8, 66, 95
9, 76800, Note_on_c, 8, 70, 95
9, 76800, Note_on_c, 8, 66, 95
9, 78720, Note_off_c, 8, 70, 95
9, 78720, Note_off_c, 8, 66, 95
9, 78720, Note_on_c, 8, 68, 95
9, 78720, Note_on_c, 8, 61, 95
9, 79680, Note_off_c, 8, 68, 95
9, 79680, Note_off_c, 8, 61, 95
9, 79680, Note_on_c, 8, 73, 95
9, 79680, Note_on_c, 8, 61, 95
9, 80640, Note_off_c, 8, 73, 95
9, 80640, Note_off_c, 8, 61, 95
9, 80640, Note_on_c, 8, 75, 95
9, 80640, Note_on_c, 8, 71, 95
9, 82320, Note_off_c, 8, 75, 95
9, 82320, Note_off_c, 8, 71, 95
9, 82320, Note_on_c, 8, 70, 95
9, 82320, Note_on_c, 8, 66, 95
9, 86400, Note_off_c, 8, 70, 95
9, 86400, Note_off_c, 8, 66, 95
9, 86400, Note_on_c, 8, 70, 95
9, 86400, Note_on_c, 8, 66, 95
9, 88320, Note_off_c, 8, 70, 95
9, 88320, Note_off_c, 8, 66, 95
9, 88320, Note_on_c, 8, 70, 95
9, 88320, Note_on_c, 8, 66, 95
9, 90240, Note_off_c, 8, 70, 95
9, 90240, Note_off_c, 8, 66, 95
9, 90240, Note_on_c, 8, 70, 95
9, 90240, Note_on_c, 8, 66, 95
9, 90720, Note_off_c, 8, 70, 95
9, 90720, Note_off_c, 8, 66, 95
9, 90720, Note_on_c, 8, 70, 95
9, 90720, Note_on_c, 8, 66, 95
9, 90960, Note_off_c, 8, 70, 95
9, 90960, Note_off_c, 8, 66, 95
9, 90960, Note_on_c, 8, 70, 95
9, 90960, Note_on_c, 8, 66, 95
9, 91440, Note_off_c, 8, 70, 95
9, 91440, Note_off_c, 8, 66, 95
9, 91440, Note_on_c, 8, 71, 95
9, 91440, Note_on_c, 8, 68, 95
9, 91680, Note_off_c, 8, 71, 95
9, 91680, Note_off_c, 8, 68, 95
9, 91680, Note_on_c, 8, 73, 95
9, 91680, Note_on_c, 8, 68, 95
9, 91920, Note_off_c, 8, 73, 95
9, 91920, Note_off_c, 8, 68, 95
9, 91920, Note_on_c, 8, 74, 95
9, 91920, Note_on_c, 8, 71, 95
9, 92400, Note_off_c, 8, 74, 95
9, 92400, Note_off_c, 8, 71, 95
9, 92400, Note_on_c, 8, 70, 95
9, 92400, Note_on_c, 8, 66, 95
9, 92880, Note_off_c, 8, 70, 95
9, 92880, Note_off_c, 8, 66, 95
9, 92880, Note_on_c, 8, 68, 95
9, 92880, Note_on_c, 8, 66, 95
9, 93360, Note_off_c, 8, 68, 95
9, 93360, Note_off_c, 8, 66, 95
9, 93360, Note_on_c, 8, 68, 95
9, 93360, Note_on_c, 8, 66, 95
9, 93840, Note_off_c, 8, 68, 95
9, 93840, Note_off_c, 8, 66, 95
9, 93840, Note_on_c, 8, 68, 95
9, 93840, Note_on_c, 8, 66, 95
9, 94080, Note_off_c, 8, 68, 95
9, 94080, Note_off_c, 8, 66, 95
9, 94080, Note_on_c, 8, 70, 95
9, 94080, Note_on_c, 8, 66, 95
9, 96000, Note_off_c, 8, 70, 95
9, 96000, Note_off_c, 8, 66, 95
9, 96000, Note_on_c, 8, 68, 95
9, 96000, Note_on_c, 8, 61, 95
9, 96960, Note_off_c, 8, 68, 95
9, 96960, Note_off_c, 8, 61, 95
9, 96960, Note_on_c, 8, 73, 95
9, 96960, Note_on_c, 8, 61, 95
9, 97920, Note_off_c, 8, 73, 95
9, 97920, Note_off_c, 8, 61, 95
9, 97920, Note_on_c, 8, 75, 95
9, 97920, Note_on_c, 8, 71, 95
9, 99600, Note_off_c, 8, 75, 95
9, 99600, Note_off_c, 8, 71, 95
9, 99600, Note_on_c, 8, 70, 95
9, 99600, Note_on_c, 8, 66, 95
9, 103680, Note_off_c, 8, 70, 95
9, 103680, Note_off_c, 8, 66, 95
9, 103680, Pitch_bend_c, 10, 8192
9, 103680, Note_on_c, 10, 66, 95
9, 103709, Pitch_bend_c, 10, 8320
9, 103738, Pitch_bend_c, 10, 8448
9, 103767, Pitch_bend_c, 10, 8576
9, 103796, Pitch_bend_c, 10, 8704
9, 103825, Pitch_bend_c, 10, 8832
9, 103854, Pitch_bend_c, 10, 8960
9, 103883, Pitch_bend_c, 10, 9088
9, 103912, Pitch_bend_c, 10, 9216
9, 103941, Pitch_bend_c, 10, 9344
9, 103970, Pitch_bend_c, 10, 9472
9, 103999, Pitch_bend_c, 10, 9600
9, 104000, Pitch_bend_c, 10, 9600
9, 104160, Pitch_bend_c, 10, 9600
9, 104640, Pitch_bend_c, 10, 9600
9, 105600, Pitch_bend_c, 10, 9600
9, 105600, Pitch_bend_c, 10, 8192
9, 105600, Note_off_c, 10, 66, 95
9, 105600, Pitch_bend_c, 10, 8192
9, 105600, Note_on_c, 10, 68, 95
9, 105629, Pitch_bend_c, 10, 8320
9, 105658, Pitch_bend_c, 10, 8448
9, 105687, Pitch_bend_c, 10, 8576
9, 105716, Pitch_bend_c, 10, 8704
9, 105745, Pitch_bend_c, 10, 8832
9, 105774, Pitch_bend_c, 10, 8960
9, 105803, Pitch_bend_c, 10, 9088
9, 105832, Pitch_bend_c, 10, 9216
9, 105861, Pitch_bend_c, 10, 9344
9, 105890, Pitch_bend_c, 10, 9472
9, 105919, Pitch_bend_c, 10, 9600
9, 105920, Pitch_bend_c, 10, 9600
9, 106080, Pitch_bend_c, 10, 9600
9, 106560, Pitch_bend_c, 10, 9600
9, 107520, Pitch_bend_c, 10, 9600
9, 107520, Pitch_bend_c, 10, 8192
9, 107520, Note_off_c, 10, 68, 95
9, 107520, Pitch_bend_c, 10, 8192
9, 107520, Note_on_c, 10, 69, 95
9, 107549, Pitch_bend_c, 10, 8320
9, 107578, Pitch_bend_c, 10, 8448
9, 107607, Pitch_bend_c, 10, 8576
9, 107636, Pitch_bend_c, 10, 8704
9, 107665, Pitch_bend_c, 10, 8832
9, 107694, Pitch_bend_c, 10, 8960
9, 107723, Pitch_bend_c, 10, 9088
9, 107752, Pitch_bend_c, 10, 9216
9, 107781, Pitch_bend_c, 10, 9344
9, 107810, Pitch_bend_c, 10, 9472
9, 107839, Pitch_bend_c, 10, 9600
9, 107840, Pitch_bend_c, 10, 9600
9, 108480, Pitch_bend_c, 10, 9600
9, 109440, Pitch_bend_c, 10, 9600
9, 109440, Pitch_bend_c, 10, 8192
9, 109440, Note_off_c, 10, 69, 95
9, 109440, Pitch_bend_c, 10, 8192
9, 109440, Note_on_c, 10, 71, 95
9, 109469, Pitch_bend_c, 10, 8320
9, 109498, Pitch_bend_c, 10, 8448
9, 109527, Pitch_bend_c, 10, 8576
9, 109556, Pitch_bend_c, 10, 8704
9, 109585, Pitch_bend_c, 10, 8832
9, 109614, Pitch_bend_c, 10, 8960
9, 109643, Pitch_bend_c, 10, 9088
9, 109672, Pitch_bend_c, 10, 9216
9, 109701, Pitch_bend_c, 10, 9344
9, 109730, Pitch_bend_c, 10, 9472
9, 109759, Pitch_bend_c, 10, 9600
9, 109760, Pitch_bend_c, 10, 9600
9, 110400, Pitch_bend_c, 10, 9600
9, 111360, Pitch_bend_c, 10, 9600
9, 111360, Pitch_bend_c, 10, 8192
9, 111360, Note_off_c, 10, 71, 95
9, 111360, Pitch_bend_c, 10, 8192
9, 111360, Note_on_c, 10, 73, 95
9, 111389, Pitch_bend_c, 10, 8320
9, 111418, Pitch_bend_c, 10, 8448
9, 111447, Pitch_bend_c, 10, 8576
9, 111476, Pitch_bend_c, 10, 8704
9, 111505, Pitch_bend_c, 10, 8832
9, 111534, Pitch_bend_c, 10, 8960
9, 111563, Pitch_bend_c, 10, 9088
9, 111592, Pitch_bend_c, 10, 9216
9, 111621, Pitch_bend_c, 10, 9344
9, 111650, Pitch_bend_c, 10, 9472
9, 111679, Pitch_bend_c, 10, 9600
9, 111680, Pitch_bend_c, 10, 9600
9, 112320, Pitch_bend_c, 10, 9600
9, 113280, Pitch_bend_c, 10, 9600
9, 113280, Pitch_bend_c, 10, 8192
9, 113280, Note_off_c, 10, 73, 95
9, 113280, Pitch_bend_c, 10, 8192
9, 113280, Note_on_c, 10, 75, 95
9, 113309, Pitch_bend_c, 10, 8320
9, 113338, Pitch_bend_c, 10, 8448
9, 113367, Pitch_bend_c, 10, 8576
9, 113396, Pitch_bend_c, 10, 8704
9, 113425, Pitch_bend_c, 10, 8832
9, 113454, Pitch_bend_c, 10, 8960
9, 113483, Pitch_bend_c, 10, 9088
9, 113512, Pitch_bend_c, 10, 9216
9, 113541, Pitch_bend_c, 10, 9344
9, 113570, Pitch_bend_c, 10, 9472
9, 113599, Pitch_bend_c, 10, 9600
9, 113600, Pitch_bend_c, 10, 9600
9, 114240, Pitch_bend_c, 10, 9600
9, 115200, Pitch_bend_c, 10, 9600
9, 115200, Pitch_bend_c, 10, 8192
9, 115200, Note_off_c, 10, 75, 95
9, 115200, Pitch_bend_c, 10, 8192
9, 115200, Note_on_c, 10, 76, 95
9, 115229, Pitch_bend_c, 10, 8320
9, 115258, Pitch_bend_c, 10, 8448
9, 115287, Pitch_bend_c, 10, 8576
9, 115316, Pitch_bend_c, 10, 8704
9, 115345, Pitch_bend_c, 10, 8832
9, 115374, Pitch_bend_c, 10, 8960
9, 115403, Pitch_bend_c, 10, 9088
9, 115432, Pitch_bend_c, 10, 9216
9, 115461, Pitch_bend_c, 10, 9344
9, 115490, Pitch_bend_c, 10, 9472
9, 115519, Pitch_bend_c, 10, 9600
9, 115520, Pitch_bend_c, 10, 9600
9, 116160, Pitch_bend_c, 10, 9600
9, 117120, Pitch_bend_c, 10, 9600
9, 117120, Pitch_bend_c, 10, 8192
9, 117120, Note_off_c, 10, 76, 95
9, 117120, Pitch_bend_c, 10, 8192
9, 117120, Note_on_c, 10, 78, 95
9, 117149, Pitch_bend_c, 10, 8320
9, 117178, Pitch_bend_c, 10, 8448
9, 117207, Pitch_bend_c, 10, 8576
9, 117236, Pitch_bend_c, 10, 8704
9, 117265, Pitch_bend_c, 10, 8832
9, 117294, Pitch_bend_c, 10, 8960
9, 117323, Pitch_bend_c, 10, 9088
9, 117352, Pitch_bend_c, 10, 9216
9, 117381, Pitch_bend_c, 10, 9344
9, 117410, Pitch_bend_c, 10, 9472
9, 117439, Pitch_bend_c, 10, 9600
9, 117440, Pitch_bend_c, 10, 9600
9, 118080, Pitch_bend_c, 10, 9600
9, 119040, Pitch_bend_c, 10, 9600
9, 119040, Pitch_bend_c, 10, 8192
9, 119040, Note_off_c, 10, 78, 95
9, 119040, Pitch_bend_c, 10, 8192
9, 119040, Note_on_c, 10, 76, 95
9, 119069, Pitch_bend_c, 10, 8320
9, 119098, Pitch_bend_c, 10, 8448
9, 119127, Pitch_bend_c, 10, 8576
9, 119156, Pitch_bend_c, 10, 8704
9, 119185, Pitch_bend_c, 10, 8832
9, 119214, Pitch_bend_c, 10, 8960
9, 119243, Pitch_bend_c, 10, 9088
9, 119272, Pitch_bend_c, 10, 9216
9, 119301, Pitch_bend_c, 10, 9344
9, 119330, Pitch_bend_c, 10, 9472
9, 119359, Pitch_bend_c, 10, 9600
9, 119360, Pitch_bend_c, 10, 9600
9, 120000, Pitch_bend_c, 10, 9600
9, 120960, Pitch_bend_c, 10, 9600
9, 120960, Pitch_bend_c, 10, 8192
9, 120960, Note_off_c, 10, 76, 95
9, 120960, Pitch_bend_c, 10, 8192
9, 120960, Note_on_c, 10, 73, 95
9, 120989, Pitch_bend_c, 10, 8320
9, 121018, Pitch_bend_c, 10, 8448
9, 121047, Pitch_bend_c, 10, 8576
9, 121076, Pitch_bend_c, 10, 8704
9, 121105, Pitch_bend_c, 10, 8832
9, 121134, Pitch_bend_c, 10, 8960
9, 121163, Pitch_bend_c, 10, 9088
9, 121192, Pitch_bend_c, 10, 9216
9, 121221, Pitch_bend_c, 10, 9344
9, 121250, Pitch_bend_c, 10, 9472
9, 121279, Pitch_bend_c, 10, 9600
9, 121280, Pitch_bend_c, 10, 9600
9, 121920, Pitch_bend_c, 10, 9600
9, 122880, Pitch_bend_c, 10, 9600
9, 122880, Pitch_bend_c, 10, 8192
9, 122880, Note_off_c, 10, 73, 95
9, 122880, Pitch_bend_c, 10, 8192
9, 122880, Pitch_bend_c, 10, 8320
9, 122880, Pitch_bend_c, 10, 8448
9, 122880, Pitch_bend_c, 10, 8576
9, 122880, Pitch_bend_c, 10, 8704
9, 122880, Pitch_bend_c, 10, 8832
9, 122880, Pitch_bend_c, 10, 8960
9, 122880, Pitch_bend_c, 10, 9088
9, 122880, Pitch_bend_c, 10, 9216
9, 122880, Pitch_bend_c, 10, 9344
9, 122880, Pitch_bend_c, 10, 9472
9, 122880, Pitch_bend_c, 10, 9600
9, 122880, Pitch_bend_c, 10, 9600
9, 122880, Note_on_c, 10, 71, 95
9, 123360, Pitch_bend_c, 10, 9600
9, 124320, Pitch_bend_c, 10, 9600
9, 125760, Pitch_bend_c, 10, 9600
9, 125760, Pitch_bend_c, 10, 8192
9, 125760, Note_off_c, 10, 71, 95
9, 128640, Note_on_c, 8, 70, 95
9, 128640, Note_on_c, 8, 66, 95
9, 130560, Note_off_c, 8, 70, 95
9, 130560, Note_off_c, 8, 66, 95
9, 130560, Note_on_c, 8, 70, 95
9, 130560, Note_on_c, 8, 66, 95
9, 132480, Note_off_c, 8, 70, 95
9, 132480, Note_off_c, 8, 66, 95
9, 132480, Note_on_c, 8, 70, 95
9, 132480, Note_on_c, 8, 66, 95
9, 132960, Note_off_c, 8, 70, 95
9, 132960, Note_off_c, 8, 66, 95
9, 132960, Note_on_c, 8, 70, 95
9, 132960, Note_on_c, 8, 66, 95
9, 133200, Note_off_c, 8, 70, 95
9, 133200, Note_off_c, 8, 66, 95
9, 133200, Note_on_c, 8, 70, 95
9, 133200, Note_on_c, 8, 66, 95
9, 133680, Note_off_c, 8, 70, 95
9, 133680, Note_off_c, 8, 66, 95
9, 133680, Note_on_c, 8, 71, 95
9, 133680, Note_on_c, 8, 68, 95
9, 133920, Note_off_c, 8, 71, 95
9, 133920, Note_off_c, 8, 68, 95
9, 133920, Note_on_c, 8, 73, 95
9, 133920, Note_on_c, 8, 68, 95
9, 134160, Note_off_c, 8, 73, 95
9, 134160, Note_off_c, 8, 68, 95
9, 134160, Note_on_c, 8, 74, 95
9, 134160, Note_on_c, 8, 71, 95
9, 134640, Note_off_c, 8, 74, 95
9, 134640, Note_off_c, 8, 71, 95
9, 134640, Note_on_c, 8, 70, 95
9, 134640, Note_on_c, 8, 66, 95
9, 135120, Note_off_c, 8, 70, 95
9, 135120, Note_off_c, 8, 66, 95
9, 135120, Note_on_c, 8, 68, 95
9, 135120, Note_on_c, 8, 66, 95
9, 135600, Note_off_c, 8, 68, 95
9, 135600, Note_off_c, 8, 66, 95
9, 135600, Note_on_c, 8, 68, 95
9, 135600, Note_on_c, 8, 66, 95
9, 136080, Note_off_c, 8, 68, 95
9, 136080, Note_off_c, 8, 66, 95
9, 136080, Note_on_c, 8, 68, 95
9, 136080, Note_on_c, 8, 66, 95
9, 136320, Note_off_c, 8, 68, 95
9, 136320, Note_off_c, 8, 66, 95
9, 136320, Note_on_c, 8, 70, 95
9, 136320, Note_on_c, 8, 66, 95
9, 138240, Note_off_c, 8, 70, 95
9, 138240, Note_off_c, 8, 66, 95
9, 138240, Note_on_c, 8, 68, 95
9, 138240, Note_on_c, 8, 61, 95
9, 139200, Note_off_c, 8, 68, 95
9, 139200, Note_off_c, 8, 61, 95
9, 139200, Note_on_c, 8, 73, 95
9, 139200, Note_on_c, 8, 61, 95
9, 140160, Note_off_c, 8, 73, 95
9, 140160, Note_off_c, 8, 61, 95
9, 140160, Note_on_c, 8, 75, 95
9, 140160, Note_on_c, 8, 71, 95
9, 141840, Note_off_c, 8, 75, 95
9, 141840, Note_off_c, 8, 71, 95
9, 141840, Note_on_c, 8, 70, 95
9, 141840, Note_on_c, 8, 66, 95
9, 145920, Note_off_c, 8, 70, 95
9, 145920, Note_off_c, 8, 66, 95
9, 145920, Note_on_c, 8, 70, 95
9, 145920, Note_on_c, 8, 66, 95
9, 147840, Note_off_c, 8, 70, 95
9, 147840, Note_off_c, 8, 66, 95
9, 147840, Note_on_c, 8, 70, 95
9, 147840, Note_on_c, 8, 66, 95
9, 149760, Note_off_c, 8, 70, 95
9, 149760, Note_off_c, 8, 66, 95
9, 149760, Note_on_c, 8, 70, 95
9, 149760, Note_on_c, 8, 66, 95
9, 150240, Note_off_c, 8, 70, 95
9, 150240, Note_off_c, 8, 66, 95
9, 150240, Note_on_c, 8, 70, 95
9, 150240, Note_on_c, 8, 66, 95
9, 150480, Note_off_c, 8, 70, 95
9, 150480, Note_off_c, 8, 66, 95
9, 150480, Note_on_c, 8, 70, 95
9, 150480, Note_on_c, 8, 66, 95
9, 150960, Note_off_c, 8, 70, 95
9, 150960, Note_off_c, 8, 66, 95
9, 150960, Note_on_c, 8, 71, 95
9, 150960, Note_on_c, 8, 68, 95
9, 151200, Note_off_c, 8, 71, 95
9, 151200, Note_off_c, 8, 68, 95
9, 151200, Note_on_c, 8, 73, 95
9, 151200, Note_on_c, 8, 68, 95
9, 151440, Note_off_c, 8, 73, 95
9, 151440, Note_off_c, 8, 68, 95
9, 151440, Note_on_c, 8, 74, 95
9, 151440, Note_on_c, 8, 71, 95
9, 151920, Note_off_c, 8, 74, 95
9, 151920, Note_off_c, 8, 71, 95
9, 151920, Note_on_c, 8, 70, 95
9, 151920, Note_on_c, 8, 66, 95
9, 152400, Note_off_c, 8, 70, 95
9, 152400, Note_off_c, 8, 66, 95
9, 152400, Note_on_c, 8, 68, 95
9, 152400, Note_on_c, 8, 66, 95
9, 152880, Note_off_c, 8, 68, 95
9, 152880, Note_off_c, 8, 66, 95
9, 152880, Note_on_c, 8, 68, 95
9, 152880, Note_on_c, 8, 66, 95
9, 153360, Note_off_c, 8, 68, 95
9, 153360, Note_off_c, 8, 66, 95
9, 153360, Note_on_c, 8, 68, 95
9, 153360, Note_on_c, 8, 66, 95
9, 153600, Note_off_c, 8, 68, 95
9, 153600, Note_off_c, 8, 66, 95
9, 153600, Note_on_c, 8, 70, 95
9, 153600, Note_on_c, 8, 66, 95
9, 155520, Note_off_c, 8, 70, 95
9, 155520, Note_off_c, 8, 66, 95
9, 155520, Note_on_c, 8, 68, 95
9, 155520, Note_on_c, 8, 61, 95
9, 156480, Note_off_c, 8, 68, 95
9, 156480, Note_off_c, 8, 61, 95
9, 156480, Note_on_c, 8, 73, 95
9, 156480, Note_on_c, 8, 61, 95
9, 157440, Note_off_c, 8, 73, 95
9, 157440, Note_off_c, 8, 61, 95
9, 157440, Note_on_c, 8, 75, 95
9, 157440, Note_on_c, 8, 71, 95
9, 159120, Note_off_c, 8, 75, 95
9, 159120, Note_off_c, 8, 71, 95
9, 159120, Note_on_c, 8, 70, 95
9, 159120, Note_on_c, 8, 66, 95
9, 167040, Note_off_c, 8, 70, 95
9, 167040, Note_off_c, 8, 66, 95
9, 167040, Pitch_bend_c, 10, 8192
9, 167040, Note_on_c, 10, 66, 95
9, 167069, Pitch_bend_c, 10, 8320
9, 167098, Pitch_bend_c, 10, 8448
9, 167127, Pitch_bend_c, 10, 8576
9, 167156, Pitch_bend_c, 10, 8704
9, 167185, Pitch_bend_c, 10, 8832
9, 167214, Pitch_bend_c, 10, 8960
9, 167243, Pitch_bend_c, 10, 9088
9, 167272, Pitch_bend_c, 10, 9216
9, 167301, Pitch_bend_c, 10, 9344
9, 167330, Pitch_bend_c, 10, 9472
9, 167359, Pitch_bend_c, 10, 9600
9, 167360, Pitch_bend_c, 10, 9600
9, 167520, Pitch_bend_c, 10, 9600
9, 168000, Pitch_bend_c, 10, 9600
9, 168960, Pitch_bend_c, 10, 9600
9, 168960, Pitch_bend_c, 10, 8192
9, 168960, Note_off_c, 10, 66, 95
9, 168960, Pitch_bend_c, 10, 8192
9, 168960, Note_on_c, 10, 68, 95
9, 168989, Pitch_bend_c, 10, 8320
9, 169018, Pitch_bend_c, 10, 8448
9, 169047, Pitch_bend_c, 10, 8576
9, 169076, Pitch_bend_c, 10, 8704
9, 169105, Pitch_bend_c, 10, 8832
9, 169134, Pitch_bend_c, 10, 8960
9, 169163, Pitch_bend_c, 10, 9088
9, 169192, Pitch_bend_c, 10, 9216
9, 169221, Pitch_bend_c, 10, 9344
9, 169250, Pitch_bend_c, 10, 9472
9, 169279, Pitch_bend_c, 10, 9600
9, 169280, Pitch_bend_c, 10, 9600
9, 169440, Pitch_bend_c, 10, 9600
9, 169920, Pitch_bend_c, 10, 9600
9, 170880, Pitch_bend_c, 10, 9600
9, 170880, Pitch_bend_c, 10, 8192
9, 170880, Note_off_c, 10, 68, 95
9, 170880, Pitch_bend_c, 10, 8192
9, 170880, Note_on_c, 10, 69, 95
9, 170909, Pitch_bend_c, 10, 8320
9, 170938, Pitch_bend_c, 10, 8448
9, 170967, Pitch_bend_c, 10, 8576
9, 170996, Pitch_bend_c, 10, 8704
9, 171025, Pitch_bend_c, 10, 8832
9, 171054, Pitch_bend_c, 10, 8960
9, 171083, Pitch_bend_c, 10, 9088
9, 171112, Pitch_bend_c, 10, 9216
9, 171141, Pitch_bend_c, 10, 9344
9, 171170, Pitch_bend_c, 10, 9472
9, 171199, Pitch_bend_c, 10, 9600
9, 171200, Pitch_bend_c, 10, 9600
9, 171840, Pitch_bend_c, 10, 9600
9, 172800, Pitch_bend_c, 10, 9600
9, 172800, Pitch_bend_c, 10, 8192
9, 172800, Note_off_c, 10, 69, 95
9, 172800, Pitch_bend_c, 10, 8192
9, 172800, Note_on_c, 10, 71, 95
9, 172829, Pitch_bend_c, 10, 8320
9, 172858, Pitch_bend_c, 10, 8448
9, 172887, Pitch_bend_c, 10, 8576
9, 172916, Pitch_bend_c, 10, 8704
9, 172945, Pitch_bend_c, 10, 8832
9, 172974, Pitch_bend_c, 10, 8960
9, 173003, Pitch_bend_c, 10, 9088
9, 173032, Pitch_bend_c, 10, 9216
9, 173061, Pitch_bend_c, 10, 9344
9, 173090, Pitch_bend_c, 10, 9472
9, 173119, Pitch_bend_c, 10, 9600
9, 173120, Pitch_bend_c, 10, 9600
9, 173760, Pitch_bend_c, 10, 9600
9, 174720, Pitch_bend_c, 10, 9600
9, 174720, Pitch_bend_c, 10, 8192
9, 174720, Note_off_c, 10, 71, 95
9, 174720, Pitch_bend_c, 10, 8192
9, 174720, Note_on_c, 10, 73, 95
9, 174749, Pitch_bend_c, 10, 8320
9, 174778, Pitch_bend_c, 10, 8448
9, 174807, Pitch_bend_c, 10, 8576
9, 174836, Pitch_bend_c, 10, 8704
9, 174865, Pitch_bend_c, 10, 8832
9, 174894, Pitch_bend_c, 10, 8960
9, 174923, Pitch_bend_c, 10, 9088
9, 174952, Pitch_bend_c, 10, 9216
9, 174981, Pitch_bend_c, 10, 9344
9, 175010, Pitch_bend_c, 10, 9472
9, 175039, Pitch_bend_c, 10, 9600
9, 175040, Pitch_bend_c, 10, 9600
9, 175680, Pitch_bend_c, 10, 9600
9, 176640, Pitch_bend_c, 10, 9600
9, 176640, Pitch_bend_c, 10, 8192
9, 176640, Note_off_c, 10, 73, 95
9, 176640, Pitch_bend_c, 10, 8192
9, 176640, Note_on_c, 10, 75, 95
9, 176669, Pitch_bend_c, 10, 8320
9, 176698, Pitch_bend_c, 10, 8448
9, 176727, Pitch_bend_c, 10, 8576
9, 176756, Pitch_bend_c, 10, 8704
9, 176785, Pitch_bend_c, 10, 8832
9, 176814, Pitch_bend_c, 10, 8960
9, 176843, Pitch_bend_c, 10, 9088
9, 176872, Pitch_bend_c, 10, 9216
9, 176901, Pitch_bend_c, 10, 9344
9, 176930, Pitch_bend_c, 10, 9472
9, 176959, Pitch_bend_c, 10, 9600
9, 176960, Pitch_bend_c, 10, 9600
9, 177600, Pitch_bend_c, 10, 9600
9, 178560, Pitch_bend_c, 10, 9600
9, 178560, Pitch_bend_c, 10, 8192
9, 178560, Note_off_c, 10, 75, 95
9, 178560, Pitch_bend_c, 10, 8192
9, 178560, Note_on_c, 10, 76, 95
9, 178589, Pitch_bend_c, 10, 8320
9, 178618, Pitch_bend_c, 10, 8448
9, 178647, Pitch_bend_c, 10, 8576
9, 178676, Pitch_bend_c, 10, 8704
9, 178705, Pitch_bend_c, 10, 8832
9, 178734, Pitch_bend_c, 10, 8960
9, 178763, Pitch_bend_c, 10, 9088
9, 178792, Pitch_bend_c, 10, 9216
9, 178821, Pitch_bend_c, 10, 9344
9, 178850, Pitch_bend_c, 10, 9472
9, 178879, Pitch_bend_c, 10, 9600
9, 178880, Pitch_bend_c, 10, 9600
9, 179520, Pitch_bend_c, 10, 9600
9, 180480, Pitch_bend_c, 10, 9600
9, 180480, Pitch_bend_c, 10, 8192
9, 180480, Note_off_c, 10, 76, 95
9, 180480, Pitch_bend_c, 10, 8192
9, 180480, Note_on_c, 10, 78, 95
9, 180509, Pitch_bend_c, 10, 8320
9, 180538, Pitch_bend_c, 10, 8448
9, 180567, Pitch_bend_c, 10, 8576
9, 180596, Pitch_bend_c, 10, 8704
9, 180625, Pitch_bend_c, 10, 8832
9, 180654, Pitch_bend_c, 10, 8960
9, 180683, Pitch_bend_c, 10, 9088
9, 180712, Pitch_bend_c, 10, 9216
9, 180741, Pitch_bend_c, 10, 9344
9, 180770, Pitch_bend_c, 10, 9472
9, 180799, Pitch_bend_c, 10, 9600
9, 180800, Pitch_bend_c, 10, 9600
9, 181440, Pitch_bend_c, 10, 9600
9, 182400, Pitch_bend_c, 10, 9600
9, 182400, Pitch_bend_c, 10, 8192
9, 182400, Note_off_c, 10, 78, 95
9, 182400, Pitch_bend_c, 10, 8192
9, 182400, Note_on_c, 10, 76, 95
9, 182429, Pitch_bend_c, 10, 8320
9, 182458, Pitch_bend_c, 10, 8448
9, 182487, Pitch_bend_c, 10, 8576
9, 182516, Pitch_bend_c, 10, 8704
9, 182545, Pitch_bend_c, 10, 8832
9, 182574, Pitch_bend_c, 10, 8960
9, 182603, Pitch_bend_c, 10, 9088
9, 182632, Pitch_bend_c, 10, 9216
9, 182661, Pitch_bend_c, 10, 9344
9, 182690, Pitch_bend_c, 10, 9472
9, 182719, Pitch_bend_c, 10, 9600
9, 182720, Pitch_bend_c, 10, 9600
9, 183360, Pitch_bend_c, 10, 9600
9, 184320, Pitch_bend_c, 10, 9600
9, 184320, Pitch_bend_c, 10, 8192
9, 184320, Note_off_c, 10, 76, 95
9, 184320, Pitch_bend_c, 10, 8192
9, 184320, Note_on_c, 10, 73, 95
9, 184349, Pitch_bend_c, 10, 8320
9, 184378, Pitch_bend_c, 10, 8448
9, 184407, Pitch_bend_c, 10, 8576
9, 184436, Pitch_bend_c, 10, 8704
9, 184465, Pitch_bend_c, 10, 8832
9, 184494, Pitch_bend_c, 10, 8960
9, 184523, Pitch_bend_c, 10, 9088
9, 184552, Pitch_bend_c, 10, 9216
9, 184581, Pitch_bend_c, 10, 9344
9, 184610, Pitch_bend_c, 10, 9472
9, 184639, Pitch_bend_c, 10, 9600
9, 184640, Pitch_bend_c, 10, 9600
9, 185280, Pitch_bend_c, 10, 9600
9, 186240, Pitch_bend_c, 10, 9600
9, 186240, Pitch_bend_c, 10, 8192
9, 186240, Note_off_c, 10, 73, 95
9, 186240, Pitch_bend_c, 10, 8192
9, 186240, Pitch_bend_c, 10, 8320
9, 186240, Pitch_bend_c, 10, 8448
9, 186240, Pitch_bend_c, 10, 8576
9, 186240, Pitch_bend_c, 10, 8704
9, 186240, Pitch_bend_c, 10, 8832
9, 186240, Pitch_bend_c, 10, 8960
9, 186240, Pitch_bend_c, 10, 9088
9, 186240, Pitch_bend_c, 10, 9216
9, 186240, Pitch_bend_c, 10, 9344
9, 186240, Pitch_bend_c, 10, 9472
9, 186240, Pitch_bend_c, 10, 9600
9, 186240, Pitch_bend_c, 10, 9600
9, 186240, Note_on_c, 10, 71, 95
9, 186720, Pitch_bend_c, 10, 9600
9, 187680, Pitch_bend_c, 10, 9600
9, 189120, Pitch_bend_c, 10, 9600
9, 189120, Pitch_bend_c, 10, 8192
9, 189120, Note_off_c, 10, 71, 95
9, 192000, Note_on_c, 8, 70, 95
9, 192000, Note_on_c, 8, 66, 95
9, 193920, Note_off_c, 8, 70, 95
9, 193920, Note_off_c, 8, 66, 95
9, 193920, Note_on_c, 8, 70, 95
9, 193920, Note_on_c, 8, 66, 95
9, 195840, Note_off_c, 8, 70, 95
9, 195840, Note_off_c, 8, 66, 95
9, 195840, Note_on_c, 8, 70, 95
9, 195840, Note_on_c, 8, 66, 95
9, 196320, Note_off_c, 8, 70, 95
9, 196320, Note_off_c, 8, 66, 95
9, 196320, Note_on_c, 8, 70, 95
9, 196320, Note_on_c, 8, 66, 95
9, 196560, Note_off_c, 8, 70, 95
9, 196560, Note_off_c, 8, 66, 95
9, 196560, Note_on_c, 8, 70, 95
9, 196560, Note_on_c, 8, 66, 95
9, 197040, Note_off_c, 8, 70, 95
9, 197040, Note_off_c, 8, 66, 95
9, 197040, Note_on_c, 8, 71, 95
9, 197040, Note_on_c, 8, 68, 95
9, 197280, Note_off_c, 8, 71, 95
9, 197280, Note_off_c, 8, 68, 95
9, 197280, Note_on_c, 8, 73, 95
9, 197280, Note_on_c, 8, 68, 95
9, 197520, Note_off_c, 8, 73, 95
9, 197520, Note_off_c, 8, 68, 95
9, 197520, Note_on_c, 8, 74, 95
9, 197520, Note_on_c, 8, 71, 95
9, 198000, Note_off_c, 8, 74, 95
9, 198000, Note_off_c, 8, 71, 95
9, 198000, Note_on_c, 8, 70, 95
9, 198000, Note_on_c, 8, 66, 95
9, 198480, Note_off_c, 8, 70, 95
9, 198480, Note_off_c, 8, 66, 95
9, 198480, Note_on_c, 8, 68, 95
9, 198480, Note_on_c, 8, 66, 95
9, 198960, Note_off_c, 8, 68, 95
9, 198960, Note_off_c, 8, 66, 95
9, 198960, Note_on_c, 8, 68, 95
9, 198960, Note_on_c, 8, 66, 95
9, 199440, Note_off_c, 8, 68, 95
9, 199440, Note_off_c, 8, 66, 95
9, 199440, Note_on_c, 8, 68, 95
9, 199440, Note_on_c, 8, 66, 95
9, 199680, Note_off_c, 8, 68, 95
9, 199680, Note_off_c, 8, 66, 95
9, 199680, Note_on_c, 8, 70, 95
9, 199680, Note_on_c, 8, 66, 95
9, 201600, Note_off_c, 8, 70, 95
9, 201600, Note_off_c, 8, 66, 95
9, 201600, Note_on_c, 8, 68, 95
9, 201600, Note_on_c, 8, 61, 95
9, 202560, Note_off_c, 8, 68, 95
9, 202560, Note_off_c, 8, 61, 95
9, 202560, Note_on_c, 8, 73, 95
9, 202560, Note_on_c, 8, 61, 95
9, 203520, Note_off_c, 8, 73, 95
9, 203520, Note_off_c, 8, 61, 95
9, 203520, Note_on_c, 8, 75, 95
9, 203520, Note_on_c, 8, 71, 95
9, 205200, Note_off_c, 8, 75, 95
9, 205200, Note_off_c, 8, 71, 95
9, 205200, Note_on_c, 8, 70, 95
9, 205200, Note_on_c, 8, 66, 95
9, 209280, Note_off_c, 8, 70, 95
9, 209280, Note_off_c, 8, 66, 95
9, 209280, Note_on_c, 8, 70, 95
9, 209280, Note_on_c, 8, 66, 95
9, 211200, Note_off_c, 8, 70, 95
9, 211200, Note_off_c, 8, 66, 95
9, 211200, Note_on_c, 8, 70, 95
9, 211200, Note_on_c, 8, 66, 95
9, 213120, Note_off_c, 8, 70, 95
9, 213120, Note_off_c, 8, 66, 95
9, 213120, Note_on_c, 8, 70, 95
9, 213120, Note_on_c, 8, 66, 95
9, 213600, Note_off_c, 8, 70, 95
9, 213600, Note_off_c, 8, 66, 95
9, 213600, Note_on_c, 8, 70, 95
9, 213600, Note_on_c, 8, 66, 95
9, 213840, Note_off_c, 8, 70, 95
9, 213840, Note_off_c, 8, 66, 95
9, 213840, Note_on_c, 8, 70, 95
9, 213840, Note_on_c, 8, 66, 95
9, 214320, Note_off_c, 8, 70, 95
9, 214320, Note_off_c, 8, 66, 95
9, 214320, Note_on_c, 8, 71, 95
9, 214320, Note_on_c, 8, 68, 95
9, 214560, Note_off_c, 8, 71, 95
9, 214560, Note_off_c, 8, 68, 95
9, 214560, Note_on_c, 8, 73, 95
9, 214560, Note_on_c, 8, 68, 95
9, 214800, Note_off_c, 8, 73, 95
9, 214800, Note_off_c, 8, 68, 95
9, 214800, Note_on_c, 8, 74, 95
9, 214800, Note_on_c, 8, 71, 95
9, 215280, Note_off_c, 8, 74, 95
9, 215280, Note_off_c, 8, 71, 95
9, 215280, Note_on_c, 8, 70, 95
9, 215280, Note_on_c, 8, 66, 95
9, 215760, Note_off_c, 8, 70, 95
9, 215760, Note_off_c, 8, 66, 95
9, 215760, Note_on_c, 8, 68, 95
9, 215760, Note_on_c, 8, 66, 95
9, 216240, Note_off_c, 8, 68, 95
9, 216240, Note_off_c, 8, 66, 95
9, 216240, Note_on_c, 8, 68, 95
9, 216240, Note_on_c, 8, 66, 95
9, 216720, Note_off_c, 8, 68, 95
9, 216720, Note_off_c, 8, 66, 95
9, 216720, Note_on_c, 8, 68, 95
9, 216720, Note_on_c, 8, 66, 95
9, 216960, Note_off_c, 8, 68, 95
9, 216960, Note_off_c, 8, 66, 95
9, 216960, Note_on_c, 8, 70, 95
9, 216960, Note_on_c, 8, 66, 95
9, 218880, Note_off_c, 8, 70, 95
9, 218880, Note_off_c, 8, 66, 95
9, 218880, Note_on_c, 8, 68, 95
9, 218880, Note_on_c, 8, 61, 95
9, 219840, Note_off_c, 8, 68, 95
9, 219840, Note_off_c, 8, 61, 95
9, 219840, Note_on_c, 8, 73, 95
9, 219840, Note_on_c, 8, 61, 95
9, 220800, Note_off_c, 8, 73, 95
9, 220800, Note_off_c, 8, 61, 95
9, 220800, Note_on_c, 8, 75, 95
9, 220800, Note_on_c, 8, 71, 95
9, 222480, Note_off_c, 8, 75, 95
9, 222480, Note_off_c, 8, 71, 95
9, 222480, Note_on_c, 8, 70, 95
9, 222480, Note_on_c, 8, 66, 95
9, 226560, Note_off_c, 8, 70, 95
9, 226560, Note_off_c, 8, 66, 95
9, 226560, End_track
0, 0, End_of_file
