0, 0, Header, 1, 15, 480
1, 0, Start_track
1, 0, Title_t, "His Latest Flame"
1, 0, SMPTE_offset, 0, 0, 0, 0, 0
1, 0, Tempo, 342857
1, 0, Time_signature, 4, 2, 24, 8
1, 0, Key_signature, -1, "minor"
1, 0, End_track
2, 0, Start_track
2, 0, Title_t, "Soft karaoke"
2, 0, Text_t, "@KMIDI KARAOKE FILE"
2, 0, End_track
3, 0, Start_track
3, 0, Title_t, "Words"
3, 0, Text_t, "@LENGL"
3, 0, Text_t, "@T(Marie's The Name of) His Latest Flame"
3, 0, Text_t, "@TElvis Presley"
3, 0, Text_t, "@Tseq by Gary Rogers - kar by Mike M"
3, 8160, Text_t, "\\A"
3, 8640, Text_t, " ve"
3, 8880, Text_t, "ry"
3, 9120, Text_t, " old"
3, 9600, Text_t, " friend"
3, 12000, Text_t, " came"
3, 12480, Text_t, " by"
3, 12960, Text_t, " to"
3, 13440, Text_t, "day"
3, 15840, Text_t, "/'Cos"
3, 16320, Text_t, " he"
3, 16800, Text_t, " was"
3, 17280, Text_t, " tell"
3, 18000, Text_t, "ing"
3, 18240, Text_t, " ev"
3, 18720, Text_t, "ery"
3, 19200, Text_t, "one"
3, 19680, Text_t, " in"
3, 19920, Text_t, " town"
3, 21120, Text_t, "/of"
3, 21600, Text_t, " the"
3, 22080, Text_t, " love"
3, 22560, Text_t, " that"
3, 23040, Text_t, " he"
3, 23520, Text_t, " just"
3, 23760, Text_t, " found"
3, 25440, Text_t, "/And"
3, 25680, Text_t, " Ma"
3, 25920, Text_t, "rie's"
3, 26400, Text_t, " the"
3, 26880, Text_t, " name"
3, 29280, Text_t, " of"
3, 29520, Text_t, " his"
3, 29760, Text_t, " lat"
3, 30240, Text_t, "est"
3, 30720, Text_t, " flame"
3, 36960, Text_t, "\\He"
3, 37440, Text_t, " talked"
3, 37920, Text_t, " and"
3, 38400, Text_t, " talked"
3, 40800, Text_t, " and"
3, 41040, Text_t, " I"
3, 41280, Text_t, " heard"
3, 41760, Text_t, " him"
3, 42240, Text_t, " say"
3, 45120, Text_t, "/That"
3, 45600, Text_t, " she"
3, 46080, Text_t, " had"
3, 46800, Text_t, " the"
3, 47040, Text_t, " long"
3, 47520, Text_t, "est"
3, 48000, Text_t, " black"
3, 48480, Text_t, "est"
3, 48720, Text_t, " hair"
3, 49676, Text_t, "/The"
3, 49680, Text_t, " pret"
3, 49920, Text_t, "ti"
3, 50160, Text_t, "est"
3, 50400, Text_t, " green"
3, 50880, Text_t, " eyes"
3, 51840, Text_t, " an"
3, 52320, Text_t, "y"
3, 52560, Text_t, "where"
3, 54240, Text_t, "/And"
3, 54480, Text_t, " Ma"
3, 54720, Text_t, "rie's"
3, 55200, Text_t, " the"
3, 55680, Text_t, " name"
3, 58080, Text_t, " of"
3, 58320, Text_t, " his"
3, 58560, Text_t, " lat"
3, 59040, Text_t, "est"
3, 59520, Text_t, " flame"
3, 67200, Text_t, "\\Though"
3, 67680, Text_t, " I"
3, 68160, Text_t, " smiled"
3, 68640, Text_t, "/the"
3, 69120, Text_t, " tears"
3, 69600, Text_t, " in"
3, 69840, Text_t, "side"
3, 70560, Text_t, " were"
3, 70800, Text_t, " a-"
3, 71040, Text_t, "burn"
3, 71280, Text_t, "ing"
3, 74400, Text_t, "/I"
3, 74880, Text_t, " wished"
3, 75360, Text_t, " him"
3, 75840, Text_t, " luck"
3, 76320, Text_t, " and"
3, 76800, Text_t, " then"
3, 77280, Text_t, " he"
3, 77520, Text_t, " said"
3, 78240, Text_t, " good"
3, 78720, Text_t, "bye"
3, 82560, Text_t, "/He"
3, 83040, Text_t, " was"
3, 83520, Text_t, " gone"
3, 84000, Text_t, " but"
3, 84480, Text_t, " still"
3, 84960, Text_t, " his"
3, 85200, Text_t, " words"
3, 85920, Text_t, " kept"
3, 86160, Text_t, " re"
3, 86400, Text_t, "turn"
3, 86640, Text_t, "ing"
3, 89760, Text_t, "/What"
3, 90240, Text_t, " else"
3, 90720, Text_t, " was"
3, 91200, Text_t, " there"
3, 91680, Text_t, " for"
3, 92160, Text_t, " me"
3, 92640, Text_t, " to"
3, 92880, Text_t, " do"
3, 93600, Text_t, " but"
3, 94080, Text_t, " cry"
3, 100320, Text_t, "\\Would"
3, 100800, Text_t, " you"
3, 101280, Text_t, " be"
3, 101760, Text_t, "lieve"
3, 104160, Text_t, " that"
3, 104640, Text_t, " yes"
3, 105120, Text_t, "ter"
3, 105600, Text_t, "day"
3, 108000, Text_t, "/This"
3, 108480, Text_t, " girl"
3, 108960, Text_t, " was"
3, 109440, Text_t, " in"
3, 110160, Text_t, " my"
3, 110400, Text_t, " arms"
3, 110880, Text_t, " and"
3, 111360, Text_t, " swore"
3, 111840, Text_t, " to"
3, 112080, Text_t, " me"
3, 113280, Text_t, "/She'd"
3, 114000, Text_t, " be"
3, 114240, Text_t, " mine"
3, 114720, Text_t, " e"
3, 115200, Text_t, "ter"
3, 115680, Text_t, "nal"
3, 115920, Text_t, "ly"
3, 117600, Text_t, "/And"
3, 117840, Text_t, " Ma"
3, 118080, Text_t, "rie's"
3, 118560, Text_t, " the"
3, 119040, Text_t, " name"
3, 121440, Text_t, " of"
3, 121680, Text_t, " his"
3, 121920, Text_t, " lat"
3, 122400, Text_t, "est"
3, 122880, Text_t, " flame"
3, 129120, Text_t, "\\A"
3, 129600, Text_t, " ve"
3, 129840, Text_t, "ry"
3, 130080, Text_t, " old"
3, 130560, Text_t, " friend"
3, 132960, Text_t, " came"
3, 133440, Text_t, " by"
3, 133920, Text_t, " to"
3, 134400, Text_t, "day"
3, 136800, Text_t, "/'Cos"
3, 137280, Text_t, " he"
3, 137760, Text_t, " was"
3, 138240, Text_t, " tell"
3, 138960, Text_t, "ing"
3, 139200, Text_t, " ev"
3, 139680, Text_t, "ery"
3, 140160, Text_t, "one"
3, 140640, Text_t, " in"
3, 140880, Text_t, " town"
3, 142080, Text_t, "/of"
3, 142560, Text_t, " the"
3, 143040, Text_t, " love"
3, 143520, Text_t, " that"
3, 144000, Text_t, " he"
3, 144480, Text_t, " just"
3, 144720, Text_t, " found"
3, 146400, Text_t, "/And"
3, 146640, Text_t, " Ma"
3, 146880, Text_t, "rie's"
3, 147360, Text_t, " the"
3, 147840, Text_t, " name"
3, 150240, Text_t, " of"
3, 150480, Text_t, " his"
3, 150720, Text_t, " lat"
3, 151200, Text_t, "est"
3, 151680, Text_t, " flame"
3, 157920, Text_t, "\\He"
3, 158400, Text_t, " talked"
3, 158880, Text_t, " and"
3, 159360, Text_t, " talked"
3, 161760, Text_t, " and"
3, 162000, Text_t, " I"
3, 162240, Text_t, " heard"
3, 162720, Text_t, " him"
3, 163200, Text_t, " say"
3, 166080, Text_t, "/That"
3, 166560, Text_t, " she"
3, 167040, Text_t, " had"
3, 167760, Text_t, " the"
3, 168000, Text_t, " long"
3, 168480, Text_t, "est"
3, 168960, Text_t, " black"
3, 169440, Text_t, "est"
3, 169680, Text_t, " hair"
3, 170636, Text_t, "/The"
3, 170640, Text_t, " pret"
3, 170880, Text_t, "ti"
3, 171120, Text_t, "est"
3, 171360, Text_t, " green"
3, 171840, Text_t, " eyes"
3, 172800, Text_t, " an"
3, 173280, Text_t, "y"
3, 173520, Text_t, "where"
3, 175200, Text_t, "/And"
3, 175440, Text_t, " Ma"
3, 175680, Text_t, "rie's"
3, 176160, Text_t, " the"
3, 176640, Text_t, " name"
3, 179040, Text_t, " of"
3, 179280, Text_t, " his"
3, 179520, Text_t, " lat"
3, 180000, Text_t, "est"
3, 180480, Text_t, " flame"
3, 188160, Text_t, "\\Though"
3, 188640, Text_t, " I"
3, 189120, Text_t, " smiled"
3, 189600, Text_t, "/the"
3, 190080, Text_t, " tears"
3, 190560, Text_t, " in"
3, 190800, Text_t, "side"
3, 191520, Text_t, " were"
3, 191760, Text_t, " a-"
3, 192000, Text_t, "burn"
3, 192240, Text_t, "ing"
3, 195360, Text_t, "/I"
3, 195840, Text_t, " wished"
3, 196320, Text_t, " him"
3, 196800, Text_t, " luck"
3, 197280, Text_t, " and"
3, 197760, Text_t, " then"
3, 198240, Text_t, " he"
3, 198480, Text_t, " said"
3, 199200, Text_t, " good"
3, 199680, Text_t, "bye"
3, 203520, Text_t, "/He"
3, 204000, Text_t, " was"
3, 204480, Text_t, " gone"
3, 204960, Text_t, " but"
3, 205440, Text_t, " still"
3, 205920, Text_t, " his"
3, 206160, Text_t, " words"
3, 206880, Text_t, " kept"
3, 207120, Text_t, " re"
3, 207360, Text_t, "turn"
3, 207600, Text_t, "ing"
3, 210720, Text_t, "/What"
3, 211200, Text_t, " else"
3, 211680, Text_t, " was"
3, 212160, Text_t, " there"
3, 212640, Text_t, " for"
3, 213120, Text_t, " me"
3, 213600, Text_t, " to"
3, 213840, Text_t, " do"
3, 214560, Text_t, " but"
3, 215040, Text_t, " cry"
3, 221280, Text_t, "\\Would"
3, 221760, Text_t, " you"
3, 222240, Text_t, " be"
3, 222720, Text_t, "lieve"
3, 225120, Text_t, " that"
3, 225600, Text_t, " yes"
3, 226080, Text_t, "ter"
3, 226560, Text_t, "day"
3, 228960, Text_t, "/This"
3, 229440, Text_t, " girl"
3, 229920, Text_t, " was"
3, 230400, Text_t, " in"
3, 231120, Text_t, " my"
3, 231360, Text_t, " arms"
3, 231840, Text_t, " and"
3, 232320, Text_t, " swore"
3, 232800, Text_t, " to"
3, 233040, Text_t, " me"
3, 234240, Text_t, "/She'd"
3, 234960, Text_t, " be"
3, 235200, Text_t, " mine"
3, 235680, Text_t, " e"
3, 236160, Text_t, "ter"
3, 236640, Text_t, "nal"
3, 236880, Text_t, "ly"
3, 238560, Text_t, "/And"
3, 238800, Text_t, " Ma"
3, 239040, Text_t, "rie's"
3, 239520, Text_t, " the"
3, 240000, Text_t, " name"
3, 242400, Text_t, " of"
3, 242640, Text_t, " his"
3, 242880, Text_t, " lat"
3, 243360, Text_t, "est"
3, 243840, Text_t, " flame"
3, 243840, End_track
4, 0, Start_track
4, 0, Title_t, "Trombone (Melody)"
4, 0, MIDI_port, 0
4, 0, Channel_prefix, 0
4, 0, Control_c, 0, 7, 127
4, 0, Control_c, 0, 10, 88
4, 0, Program_c, 0, 57
4, 0, Control_c, 0, 121, 0
4, 40, Control_c, 0, 123, 0
4, 80, Control_c, 0, 93, 65
4, 120, Control_c, 0, 91, 45
4, 160, Control_c, 0, 64, 0
4, 8160, Note_on_c, 0, 62, 108
4, 8601, Note_off_c, 0, 62, 64
4, 8640, Note_on_c, 0, 62, 108
4, 8834, Note_off_c, 0, 62, 64
4, 8880, Note_on_c, 0, 65, 108
4, 9081, Note_off_c, 0, 65, 64
4, 9120, Note_on_c, 0, 65, 108
4, 9561, Note_off_c, 0, 65, 64
4, 9600, Note_on_c, 0, 65, 114
4, 11500, Note_off_c, 0, 65, 64
4, 12000, Note_on_c, 0, 62, 105
4, 12384, Note_off_c, 0, 62, 64
4, 12480, Note_on_c, 0, 65, 114
4, 12864, Note_off_c, 0, 65, 64
4, 12960, Note_on_c, 0, 67, 115
4, 13344, Note_off_c, 0, 67, 64
4, 13440, Note_on_c, 0, 69, 110
4, 14380, Note_off_c, 0, 69, 64
4, 15840, Note_on_c, 0, 65, 114
4, 16224, Note_off_c, 0, 65, 64
4, 16320, Note_on_c, 0, 69, 112
4, 16704, Note_off_c, 0, 69, 64
4, 16800, Note_on_c, 0, 70, 99
4, 17184, Note_off_c, 0, 70, 64
4, 17280, Note_on_c, 0, 72, 112
4, 17856, Note_off_c, 0, 72, 64
4, 18000, Note_on_c, 0, 74, 111
4, 18192, Note_off_c, 0, 74, 64
4, 18240, Note_on_c, 0, 72, 105
4, 18624, Note_off_c, 0, 72, 64
4, 18720, Note_on_c, 0, 69, 115
4, 19104, Note_off_c, 0, 69, 64
4, 19200, Note_on_c, 0, 67, 113
4, 19584, Note_off_c, 0, 67, 64
4, 19680, Note_on_c, 0, 65, 110
4, 19872, Note_off_c, 0, 65, 64
4, 19920, Note_on_c, 0, 65, 118
4, 20880, Note_off_c, 0, 65, 64
4, 21120, Note_on_c, 0, 72, 109
4, 21504, Note_off_c, 0, 72, 64
4, 21600, Note_on_c, 0, 74, 114
4, 21984, Note_off_c, 0, 74, 64
4, 22080, Note_on_c, 0, 72, 112
4, 22464, Note_off_c, 0, 72, 64
4, 22560, Note_on_c, 0, 69, 106
4, 22944, Note_off_c, 0, 69, 64
4, 23040, Note_on_c, 0, 67, 123
4, 23424, Note_off_c, 0, 67, 64
4, 23520, Note_on_c, 0, 65, 115
4, 23712, Note_off_c, 0, 65, 64
4, 23760, Note_on_c, 0, 65, 113
4, 24940, Note_off_c, 0, 65, 64
4, 25440, Note_on_c, 0, 65, 110
4, 25632, Note_off_c, 0, 65, 64
4, 25680, Note_on_c, 0, 67, 111
4, 25872, Note_off_c, 0, 67, 64
4, 25920, Note_on_c, 0, 65, 112
4, 26304, Note_off_c, 0, 65, 64
4, 26400, Note_on_c, 0, 62, 109
4, 26784, Note_off_c, 0, 62, 64
4, 26880, Note_on_c, 0, 65, 108
4, 27820, Note_off_c, 0, 65, 64
4, 29280, Note_on_c, 0, 60, 111
4, 29472, Note_off_c, 0, 60, 64
4, 29520, Note_on_c, 0, 60, 109
4, 29712, Note_off_c, 0, 60, 64
4, 29760, Note_on_c, 0, 64, 111
4, 30144, Note_off_c, 0, 64, 64
4, 30240, Note_on_c, 0, 67, 119
4, 30624, Note_off_c, 0, 67, 64
4, 30720, Note_on_c, 0, 65, 107
4, 32620, Note_off_c, 0, 65, 64
4, 36960, Note_on_c, 0, 62, 109
4, 37344, Note_off_c, 0, 62, 64
4, 37440, Note_on_c, 0, 62, 107
4, 37824, Note_off_c, 0, 62, 64
4, 37920, Note_on_c, 0, 65, 109
4, 38304, Note_off_c, 0, 65, 64
4, 38400, Note_on_c, 0, 65, 99
4, 39340, Note_off_c, 0, 65, 64
4, 40800, Note_on_c, 0, 62, 99
4, 40992, Note_off_c, 0, 62, 64
4, 41040, Note_on_c, 0, 62, 109
4, 41232, Note_off_c, 0, 62, 64
4, 41280, Note_on_c, 0, 65, 115
4, 41664, Note_off_c, 0, 65, 64
4, 41760, Note_on_c, 0, 67, 104
4, 42144, Note_off_c, 0, 67, 64
4, 42240, Note_on_c, 0, 69, 112
4, 43180, Note_off_c, 0, 69, 64
4, 45120, Note_on_c, 0, 69, 114
4, 45504, Note_off_c, 0, 69, 64
4, 45600, Note_on_c, 0, 70, 99
4, 45984, Note_off_c, 0, 70, 64
4, 46080, Note_on_c, 0, 72, 109
4, 46656, Note_off_c, 0, 72, 64
4, 46800, Note_on_c, 0, 74, 112
4, 46992, Note_off_c, 0, 74, 64
4, 47040, Note_on_c, 0, 72, 108
4, 47424, Note_off_c, 0, 72, 64
4, 47520, Note_on_c, 0, 69, 110
4, 47904, Note_off_c, 0, 69, 64
4, 48000, Note_on_c, 0, 67, 111
4, 48384, Note_off_c, 0, 67, 64
4, 48480, Note_on_c, 0, 65, 110
4, 48672, Note_off_c, 0, 65, 64
4, 48720, Note_on_c, 0, 65, 112
4, 49488, Note_off_c, 0, 65, 64
4, 49680, Note_on_c, 0, 72, 122
4, 49872, Note_off_c, 0, 72, 64
4, 49920, Note_on_c, 0, 72, 98
4, 50112, Note_off_c, 0, 72, 64
4, 50160, Note_on_c, 0, 72, 101
4, 50352, Note_off_c, 0, 72, 64
4, 50400, Note_on_c, 0, 74, 98
4, 50784, Note_off_c, 0, 74, 64
4, 50880, Note_on_c, 0, 72, 114
4, 51264, Note_off_c, 0, 72, 64
4, 51360, Note_on_c, 0, 69, 110
4, 51744, Note_off_c, 0, 69, 64
4, 51840, Note_on_c, 0, 67, 120
4, 52224, Note_off_c, 0, 67, 64
4, 52320, Note_on_c, 0, 65, 115
4, 52512, Note_off_c, 0, 65, 64
4, 52560, Note_on_c, 0, 65, 112
4, 53740, Note_off_c, 0, 65, 64
4, 54240, Note_on_c, 0, 65, 109
4, 54432, Note_off_c, 0, 65, 64
4, 54480, Note_on_c, 0, 67, 118
4, 54672, Note_off_c, 0, 67, 64
4, 54720, Note_on_c, 0, 65, 100
4, 55104, Note_off_c, 0, 65, 64
4, 55200, Note_on_c, 0, 62, 122
4, 55584, Note_off_c, 0, 62, 64
4, 55680, Note_on_c, 0, 65, 113
4, 56620, Note_off_c, 0, 65, 64
4, 58080, Note_on_c, 0, 60, 109
4, 58272, Note_off_c, 0, 60, 64
4, 58320, Note_on_c, 0, 60, 119
4, 58512, Note_off_c, 0, 60, 64
4, 58560, Note_on_c, 0, 64, 111
4, 58944, Note_off_c, 0, 64, 64
4, 59040, Note_on_c, 0, 67, 121
4, 59424, Note_off_c, 0, 67, 64
4, 59520, Note_on_c, 0, 65, 95
4, 61420, Note_off_c, 0, 65, 64
4, 67200, Note_on_c, 0, 64, 109
4, 67584, Note_off_c, 0, 64, 64
4, 67680, Note_on_c, 0, 65, 111
4, 68064, Note_off_c, 0, 65, 64
4, 68160, Note_on_c, 0, 67, 98
4, 68544, Note_off_c, 0, 67, 64
4, 68640, Note_on_c, 0, 69, 108
4, 69024, Note_off_c, 0, 69, 64
4, 69120, Note_on_c, 0, 70, 107
4, 69504, Note_off_c, 0, 70, 64
4, 69600, Note_on_c, 0, 69, 108
4, 69792, Note_off_c, 0, 69, 64
4, 69840, Note_on_c, 0, 67, 105
4, 70416, Note_off_c, 0, 67, 64
4, 70560, Note_on_c, 0, 69, 102
4, 70752, Note_off_c, 0, 69, 64
4, 70800, Note_on_c, 0, 67, 125
4, 70992, Note_off_c, 0, 67, 64
4, 71040, Note_on_c, 0, 70, 121
4, 71232, Note_off_c, 0, 70, 64
4, 71280, Note_on_c, 0, 67, 101
4, 72940, Note_off_c, 0, 67, 64
4, 74400, Note_on_c, 0, 65, 112
4, 74784, Note_off_c, 0, 65, 64
4, 74880, Note_on_c, 0, 64, 104
4, 75264, Note_off_c, 0, 64, 64
4, 75360, Note_on_c, 0, 65, 103
4, 75744, Note_off_c, 0, 65, 64
4, 75840, Note_on_c, 0, 67, 110
4, 76224, Note_off_c, 0, 67, 64
4, 76320, Note_on_c, 0, 69, 110
4, 76704, Note_off_c, 0, 69, 64
4, 76800, Note_on_c, 0, 70, 100
4, 77184, Note_off_c, 0, 70, 64
4, 77280, Note_on_c, 0, 69, 120
4, 77472, Note_off_c, 0, 69, 64
4, 77520, Note_on_c, 0, 67, 118
4, 78096, Note_off_c, 0, 67, 64
4, 78240, Note_on_c, 0, 69, 108
4, 78624, Note_off_c, 0, 69, 64
4, 78720, Note_on_c, 0, 67, 111
4, 80620, Note_off_c, 0, 67, 64
4, 82560, Note_on_c, 0, 64, 109
4, 82944, Note_off_c, 0, 64, 64
4, 83040, Note_on_c, 0, 65, 101
4, 83424, Note_off_c, 0, 65, 64
4, 83520, Note_on_c, 0, 67, 102
4, 83904, Note_off_c, 0, 67, 64
4, 84000, Note_on_c, 0, 69, 115
4, 84384, Note_off_c, 0, 69, 64
4, 84480, Note_on_c, 0, 70, 112
4, 84864, Note_off_c, 0, 70, 64
4, 84960, Note_on_c, 0, 69, 107
4, 85152, Note_off_c, 0, 69, 64
4, 85200, Note_on_c, 0, 67, 106
4, 85776, Note_off_c, 0, 67, 64
4, 85920, Note_on_c, 0, 69, 120
4, 86112, Note_off_c, 0, 69, 64
4, 86160, Note_on_c, 0, 67, 113
4, 86352, Note_off_c, 0, 67, 64
4, 86400, Note_on_c, 0, 70, 113
4, 86592, Note_off_c, 0, 70, 64
4, 86640, Note_on_c, 0, 67, 110
4, 88300, Note_off_c, 0, 67, 64
4, 89760, Note_on_c, 0, 65, 104
4, 90144, Note_off_c, 0, 65, 64
4, 90240, Note_on_c, 0, 64, 101
4, 90624, Note_off_c, 0, 64, 64
4, 90720, Note_on_c, 0, 65, 108
4, 91104, Note_off_c, 0, 65, 64
4, 91200, Note_on_c, 0, 67, 123
4, 91584, Note_off_c, 0, 67, 64
4, 91680, Note_on_c, 0, 69, 117
4, 92064, Note_off_c, 0, 69, 64
4, 92160, Note_on_c, 0, 70, 120
4, 92544, Note_off_c, 0, 70, 64
4, 92640, Note_on_c, 0, 69, 103
4, 92832, Note_off_c, 0, 69, 64
4, 92880, Note_on_c, 0, 67, 108
4, 93456, Note_off_c, 0, 67, 64
4, 93600, Note_on_c, 0, 65, 114
4, 93984, Note_off_c, 0, 65, 64
4, 94080, Note_on_c, 0, 65, 110
4, 95980, Note_off_c, 0, 65, 64
4, 100320, Note_on_c, 0, 62, 115
4, 100704, Note_off_c, 0, 62, 64
4, 100800, Note_on_c, 0, 62, 104
4, 101184, Note_off_c, 0, 62, 64
4, 101280, Note_on_c, 0, 65, 110
4, 101664, Note_off_c, 0, 65, 64
4, 101760, Note_on_c, 0, 65, 110
4, 102700, Note_off_c, 0, 65, 64
4, 104160, Note_on_c, 0, 62, 111
4, 104544, Note_off_c, 0, 62, 64
4, 104640, Note_on_c, 0, 65, 104
4, 105024, Note_off_c, 0, 65, 64
4, 105120, Note_on_c, 0, 67, 110
4, 105504, Note_off_c, 0, 67, 64
4, 105600, Note_on_c, 0, 69, 119
4, 106540, Note_off_c, 0, 69, 64
4, 108000, Note_on_c, 0, 65, 110
4, 108384, Note_off_c, 0, 65, 64
4, 108480, Note_on_c, 0, 69, 108
4, 108864, Note_off_c, 0, 69, 64
4, 108960, Note_on_c, 0, 70, 108
4, 109344, Note_off_c, 0, 70, 64
4, 109440, Note_on_c, 0, 72, 100
4, 110016, Note_off_c, 0, 72, 64
4, 110160, Note_on_c, 0, 74, 120
4, 110352, Note_off_c, 0, 74, 64
4, 110400, Note_on_c, 0, 72, 108
4, 110784, Note_off_c, 0, 72, 64
4, 110880, Note_on_c, 0, 69, 110
4, 111264, Note_off_c, 0, 69, 64
4, 111360, Note_on_c, 0, 67, 116
4, 111744, Note_off_c, 0, 67, 64
4, 111840, Note_on_c, 0, 65, 118
4, 112032, Note_off_c, 0, 65, 64
4, 112080, Note_on_c, 0, 65, 110
4, 113040, Note_off_c, 0, 65, 64
4, 113280, Note_on_c, 0, 72, 120
4, 113856, Note_off_c, 0, 72, 64
4, 114000, Note_on_c, 0, 74, 110
4, 114192, Note_off_c, 0, 74, 64
4, 114240, Note_on_c, 0, 72, 103
4, 114624, Note_off_c, 0, 72, 64
4, 114720, Note_on_c, 0, 69, 121
4, 115104, Note_off_c, 0, 69, 64
4, 115200, Note_on_c, 0, 67, 111
4, 115584, Note_off_c, 0, 67, 64
4, 115680, Note_on_c, 0, 65, 110
4, 115872, Note_off_c, 0, 65, 64
4, 115920, Note_on_c, 0, 65, 110
4, 117100, Note_off_c, 0, 65, 64
4, 117600, Note_on_c, 0, 65, 123
4, 117792, Note_off_c, 0, 65, 64
4, 117840, Note_on_c, 0, 67, 116
4, 118032, Note_off_c, 0, 67, 64
4, 118080, Note_on_c, 0, 65, 110
4, 118464, Note_off_c, 0, 65, 64
4, 118560, Note_on_c, 0, 62, 110
4, 118944, Note_off_c, 0, 62, 64
4, 119040, Note_on_c, 0, 65, 103
4, 119980, Note_off_c, 0, 65, 64
4, 121440, Note_on_c, 0, 60, 124
4, 121632, Note_off_c, 0, 60, 64
4, 121680, Note_on_c, 0, 60, 108
4, 121872, Note_off_c, 0, 60, 64
4, 121920, Note_on_c, 0, 64, 110
4, 122304, Note_off_c, 0, 64, 64
4, 122400, Note_on_c, 0, 67, 125
4, 122784, Note_off_c, 0, 67, 64
4, 122880, Note_on_c, 0, 65, 107
4, 124780, Note_off_c, 0, 65, 64
4, 129120, Note_on_c, 0, 62, 124
4, 129504, Note_off_c, 0, 62, 64
4, 129600, Note_on_c, 0, 62, 111
4, 129792, Note_off_c, 0, 62, 64
4, 129840, Note_on_c, 0, 65, 99
4, 130032, Note_off_c, 0, 65, 64
4, 130080, Note_on_c, 0, 65, 124
4, 130464, Note_off_c, 0, 65, 64
4, 130560, Note_on_c, 0, 65, 100
4, 132460, Note_off_c, 0, 65, 64
4, 132960, Note_on_c, 0, 62, 113
4, 133344, Note_off_c, 0, 62, 64
4, 133440, Note_on_c, 0, 65, 106
4, 133824, Note_off_c, 0, 65, 64
4, 133920, Note_on_c, 0, 67, 101
4, 134304, Note_off_c, 0, 67, 64
4, 134400, Note_on_c, 0, 69, 110
4, 135340, Note_off_c, 0, 69, 64
4, 136800, Note_on_c, 0, 65, 103
4, 137184, Note_off_c, 0, 65, 64
4, 137280, Note_on_c, 0, 69, 121
4, 137664, Note_off_c, 0, 69, 64
4, 137760, Note_on_c, 0, 70, 105
4, 138144, Note_off_c, 0, 70, 64
4, 138240, Note_on_c, 0, 72, 110
4, 138816, Note_off_c, 0, 72, 64
4, 138960, Note_on_c, 0, 74, 108
4, 139152, Note_off_c, 0, 74, 64
4, 139200, Note_on_c, 0, 72, 110
4, 139584, Note_off_c, 0, 72, 64
4, 139680, Note_on_c, 0, 69, 99
4, 140064, Note_off_c, 0, 69, 64
4, 140160, Note_on_c, 0, 67, 112
4, 140544, Note_off_c, 0, 67, 64
4, 140640, Note_on_c, 0, 65, 110
4, 140832, Note_off_c, 0, 65, 64
4, 140880, Note_on_c, 0, 65, 111
4, 141840, Note_off_c, 0, 65, 64
4, 142080, Note_on_c, 0, 72, 110
4, 142464, Note_off_c, 0, 72, 64
4, 142560, Note_on_c, 0, 74, 106
4, 142944, Note_off_c, 0, 74, 64
4, 143040, Note_on_c, 0, 72, 101
4, 143424, Note_off_c, 0, 72, 64
4, 143520, Note_on_c, 0, 69, 113
4, 143904, Note_off_c, 0, 69, 64
4, 144000, Note_on_c, 0, 67, 103
4, 144384, Note_off_c, 0, 67, 64
4, 144480, Note_on_c, 0, 65, 112
4, 144672, Note_off_c, 0, 65, 64
4, 144720, Note_on_c, 0, 65, 113
4, 145900, Note_off_c, 0, 65, 64
4, 146400, Note_on_c, 0, 65, 123
4, 146592, Note_off_c, 0, 65, 64
4, 146640, Note_on_c, 0, 67, 106
4, 146832, Note_off_c, 0, 67, 64
4, 146880, Note_on_c, 0, 65, 107
4, 147264, Note_off_c, 0, 65, 64
4, 147360, Note_on_c, 0, 62, 103
4, 147744, Note_off_c, 0, 62, 64
4, 147840, Note_on_c, 0, 65, 104
4, 148780, Note_off_c, 0, 65, 64
4, 150240, Note_on_c, 0, 60, 107
4, 150432, Note_off_c, 0, 60, 64
4, 150480, Note_on_c, 0, 60, 120
4, 150672, Note_off_c, 0, 60, 64
4, 150720, Note_on_c, 0, 64, 110
4, 151104, Note_off_c, 0, 64, 64
4, 151200, Note_on_c, 0, 67, 110
4, 151584, Note_off_c, 0, 67, 64
4, 151680, Note_on_c, 0, 65, 110
4, 153580, Note_off_c, 0, 65, 64
4, 157920, Note_on_c, 0, 62, 102
4, 158304, Note_off_c, 0, 62, 64
4, 158400, Note_on_c, 0, 62, 103
4, 158784, Note_off_c, 0, 62, 64
4, 158880, Note_on_c, 0, 65, 110
4, 159264, Note_off_c, 0, 65, 64
4, 159360, Note_on_c, 0, 65, 114
4, 160300, Note_off_c, 0, 65, 64
4, 161760, Note_on_c, 0, 62, 98
4, 161952, Note_off_c, 0, 62, 64
4, 162000, Note_on_c, 0, 62, 115
4, 162192, Note_off_c, 0, 62, 64
4, 162240, Note_on_c, 0, 65, 105
4, 162624, Note_off_c, 0, 65, 64
4, 162720, Note_on_c, 0, 67, 97
4, 163104, Note_off_c, 0, 67, 64
4, 163200, Note_on_c, 0, 69, 117
4, 164140, Note_off_c, 0, 69, 64
4, 166080, Note_on_c, 0, 69, 109
4, 166464, Note_off_c, 0, 69, 64
4, 166560, Note_on_c, 0, 70, 119
4, 166944, Note_off_c, 0, 70, 64
4, 167040, Note_on_c, 0, 72, 107
4, 167616, Note_off_c, 0, 72, 64
4, 167760, Note_on_c, 0, 74, 112
4, 167952, Note_off_c, 0, 74, 64
4, 168000, Note_on_c, 0, 72, 105
4, 168384, Note_off_c, 0, 72, 64
4, 168480, Note_on_c, 0, 69, 102
4, 168864, Note_off_c, 0, 69, 64
4, 168960, Note_on_c, 0, 67, 120
4, 169344, Note_off_c, 0, 67, 64
4, 169440, Note_on_c, 0, 65, 101
4, 169632, Note_off_c, 0, 65, 64
4, 169680, Note_on_c, 0, 65, 110
4, 170448, Note_off_c, 0, 65, 64
4, 170640, Note_on_c, 0, 72, 112
4, 170832, Note_off_c, 0, 72, 64
4, 170880, Note_on_c, 0, 72, 110
4, 171072, Note_off_c, 0, 72, 64
4, 171120, Note_on_c, 0, 72, 112
4, 171312, Note_off_c, 0, 72, 64
4, 171360, Note_on_c, 0, 74, 97
4, 171744, Note_off_c, 0, 74, 64
4, 171840, Note_on_c, 0, 72, 112
4, 172224, Note_off_c, 0, 72, 64
4, 172320, Note_on_c, 0, 69, 106
4, 172704, Note_off_c, 0, 69, 64
4, 172800, Note_on_c, 0, 67, 108
4, 173184, Note_off_c, 0, 67, 64
4, 173280, Note_on_c, 0, 65, 109
4, 173472, Note_off_c, 0, 65, 64
4, 173520, Note_on_c, 0, 65, 116
4, 174700, Note_off_c, 0, 65, 64
4, 175200, Note_on_c, 0, 65, 111
4, 175392, Note_off_c, 0, 65, 64
4, 175440, Note_on_c, 0, 67, 99
4, 175632, Note_off_c, 0, 67, 64
4, 175680, Note_on_c, 0, 65, 109
4, 176064, Note_off_c, 0, 65, 64
4, 176160, Note_on_c, 0, 62, 110
4, 176544, Note_off_c, 0, 62, 64
4, 176640, Note_on_c, 0, 65, 109
4, 177580, Note_off_c, 0, 65, 64
4, 179040, Note_on_c, 0, 60, 121
4, 179232, Note_off_c, 0, 60, 64
4, 179280, Note_on_c, 0, 60, 112
4, 179472, Note_off_c, 0, 60, 64
4, 179520, Note_on_c, 0, 64, 111
4, 179904, Note_off_c, 0, 64, 64
4, 180000, Note_on_c, 0, 67, 114
4, 180384, Note_off_c, 0, 67, 64
4, 180480, Note_on_c, 0, 65, 116
4, 182380, Note_off_c, 0, 65, 64
4, 188160, Note_on_c, 0, 64, 124
4, 188544, Note_off_c, 0, 64, 64
4, 188640, Note_on_c, 0, 65, 114
4, 189024, Note_off_c, 0, 65, 64
4, 189120, Note_on_c, 0, 67, 105
4, 189504, Note_off_c, 0, 67, 64
4, 189600, Note_on_c, 0, 69, 111
4, 189984, Note_off_c, 0, 69, 64
4, 190080, Note_on_c, 0, 70, 112
4, 190464, Note_off_c, 0, 70, 64
4, 190560, Note_on_c, 0, 69, 108
4, 190752, Note_off_c, 0, 69, 64
4, 190800, Note_on_c, 0, 67, 125
4, 191376, Note_off_c, 0, 67, 64
4, 191520, Note_on_c, 0, 69, 112
4, 191712, Note_off_c, 0, 69, 64
4, 191760, Note_on_c, 0, 67, 109
4, 191952, Note_off_c, 0, 67, 64
4, 192000, Note_on_c, 0, 70, 112
4, 192192, Note_off_c, 0, 70, 64
4, 192240, Note_on_c, 0, 67, 125
4, 193900, Note_off_c, 0, 67, 64
4, 195360, Note_on_c, 0, 65, 103
4, 195744, Note_off_c, 0, 65, 64
4, 195840, Note_on_c, 0, 64, 112
4, 196224, Note_off_c, 0, 64, 64
4, 196320, Note_on_c, 0, 65, 109
4, 196704, Note_off_c, 0, 65, 64
4, 196800, Note_on_c, 0, 67, 106
4, 197184, Note_off_c, 0, 67, 64
4, 197280, Note_on_c, 0, 69, 110
4, 197664, Note_off_c, 0, 69, 64
4, 197760, Note_on_c, 0, 70, 117
4, 198144, Note_off_c, 0, 70, 64
4, 198240, Note_on_c, 0, 69, 112
4, 198432, Note_off_c, 0, 69, 64
4, 198480, Note_on_c, 0, 67, 115
4, 199056, Note_off_c, 0, 67, 64
4, 199200, Note_on_c, 0, 69, 112
4, 199584, Note_off_c, 0, 69, 64
4, 199680, Note_on_c, 0, 67, 114
4, 201580, Note_off_c, 0, 67, 64
4, 203520, Note_on_c, 0, 64, 125
4, 203904, Note_off_c, 0, 64, 64
4, 204000, Note_on_c, 0, 65, 100
4, 204384, Note_off_c, 0, 65, 64
4, 204480, Note_on_c, 0, 67, 98
4, 204864, Note_off_c, 0, 67, 64
4, 204960, Note_on_c, 0, 69, 102
4, 205344, Note_off_c, 0, 69, 64
4, 205440, Note_on_c, 0, 70, 109
4, 205824, Note_off_c, 0, 70, 64
4, 205920, Note_on_c, 0, 69, 111
4, 206112, Note_off_c, 0, 69, 64
4, 206160, Note_on_c, 0, 67, 111
4, 206736, Note_off_c, 0, 67, 64
4, 206880, Note_on_c, 0, 69, 97
4, 207072, Note_off_c, 0, 69, 64
4, 207120, Note_on_c, 0, 67, 125
4, 207312, Note_off_c, 0, 67, 64
4, 207360, Note_on_c, 0, 70, 106
4, 207552, Note_off_c, 0, 70, 64
4, 207600, Note_on_c, 0, 67, 113
4, 209260, Note_off_c, 0, 67, 64
4, 210720, Note_on_c, 0, 65, 110
4, 211104, Note_off_c, 0, 65, 64
4, 211200, Note_on_c, 0, 64, 116
4, 211584, Note_off_c, 0, 64, 64
4, 211680, Note_on_c, 0, 65, 105
4, 212064, Note_off_c, 0, 65, 64
4, 212160, Note_on_c, 0, 67, 113
4, 212544, Note_off_c, 0, 67, 64
4, 212640, Note_on_c, 0, 69, 116
4, 213024, Note_off_c, 0, 69, 64
4, 213120, Note_on_c, 0, 70, 108
4, 213504, Note_off_c, 0, 70, 64
4, 213600, Note_on_c, 0, 69, 110
4, 213792, Note_off_c, 0, 69, 64
4, 213840, Note_on_c, 0, 67, 116
4, 214416, Note_off_c, 0, 67, 64
4, 214560, Note_on_c, 0, 65, 107
4, 214944, Note_off_c, 0, 65, 64
4, 215040, Note_on_c, 0, 65, 122
4, 216940, Note_off_c, 0, 65, 64
4, 221280, Note_on_c, 0, 62, 101
4, 221664, Note_off_c, 0, 62, 64
4, 221760, Note_on_c, 0, 62, 113
4, 222144, Note_off_c, 0, 62, 64
4, 222240, Note_on_c, 0, 65, 100
4, 222624, Note_off_c, 0, 65, 64
4, 222720, Note_on_c, 0, 65, 103
4, 223660, Note_off_c, 0, 65, 64
4, 225120, Note_on_c, 0, 62, 106
4, 225504, Note_off_c, 0, 62, 64
4, 225600, Note_on_c, 0, 65, 96
4, 225984, Note_off_c, 0, 65, 64
4, 226080, Note_on_c, 0, 67, 96
4, 226464, Note_off_c, 0, 67, 64
4, 226560, Note_on_c, 0, 69, 97
4, 227500, Note_off_c, 0, 69, 64
4, 228960, Note_on_c, 0, 65, 121
4, 229344, Note_off_c, 0, 65, 64
4, 229440, Note_on_c, 0, 69, 117
4, 229824, Note_off_c, 0, 69, 64
4, 229920, Note_on_c, 0, 70, 116
4, 230304, Note_off_c, 0, 70, 64
4, 230400, Note_on_c, 0, 72, 117
4, 230976, Note_off_c, 0, 72, 64
4, 231120, Note_on_c, 0, 74, 106
4, 231312, Note_off_c, 0, 74, 64
4, 231360, Note_on_c, 0, 72, 107
4, 231744, Note_off_c, 0, 72, 64
4, 231840, Note_on_c, 0, 69, 115
4, 232224, Note_off_c, 0, 69, 64
4, 232320, Note_on_c, 0, 67, 102
4, 232704, Note_off_c, 0, 67, 64
4, 232800, Note_on_c, 0, 65, 116
4, 232992, Note_off_c, 0, 65, 64
4, 233040, Note_on_c, 0, 65, 115
4, 234000, Note_off_c, 0, 65, 64
4, 234240, Note_on_c, 0, 72, 116
4, 234816, Note_off_c, 0, 72, 64
4, 234960, Note_on_c, 0, 74, 104
4, 235152, Note_off_c, 0, 74, 64
4, 235200, Note_on_c, 0, 72, 123
4, 235584, Note_off_c, 0, 72, 64
4, 235680, Note_on_c, 0, 69, 110
4, 236064, Note_off_c, 0, 69, 64
4, 236160, Note_on_c, 0, 67, 105
4, 236544, Note_off_c, 0, 67, 64
4, 236640, Note_on_c, 0, 65, 102
4, 236832, Note_off_c, 0, 65, 64
4, 236880, Note_on_c, 0, 65, 111
4, 238060, Note_off_c, 0, 65, 64
4, 238560, Note_on_c, 0, 65, 106
4, 238752, Note_off_c, 0, 65, 64
4, 238800, Note_on_c, 0, 67, 106
4, 238992, Note_off_c, 0, 67, 64
4, 239040, Note_on_c, 0, 65, 111
4, 239424, Note_off_c, 0, 65, 64
4, 239520, Note_on_c, 0, 62, 109
4, 239904, Note_off_c, 0, 62, 64
4, 240000, Note_on_c, 0, 65, 115
4, 240940, Note_off_c, 0, 65, 64
4, 242400, Note_on_c, 0, 60, 116
4, 242592, Note_off_c, 0, 60, 64
4, 242640, Note_on_c, 0, 60, 104
4, 242832, Note_off_c, 0, 60, 64
4, 242880, Note_on_c, 0, 64, 114
4, 243264, Note_off_c, 0, 64, 64
4, 243360, Note_on_c, 0, 67, 110
4, 243744, Note_off_c, 0, 67, 64
4, 243840, Note_on_c, 0, 65, 112
4, 250944, Note_off_c, 0, 65, 64
4, 250944, End_track
5, 0, Start_track
5, 0, Title_t, "Sax (Tenor)"
5, 0, MIDI_port, 0
5, 0, Channel_prefix, 1
5, 0, Control_c, 1, 7, 94
5, 0, Control_c, 1, 10, 40
5, 0, Program_c, 1, 66
5, 0, Control_c, 1, 121, 0
5, 40, Control_c, 1, 123, 0
5, 80, Control_c, 1, 93, 65
5, 120, Control_c, 1, 91, 45
5, 160, Control_c, 1, 64, 0
5, 8160, Note_on_c, 1, 50, 108
5, 8601, Note_off_c, 1, 50, 64
5, 8640, Note_on_c, 1, 50, 108
5, 8834, Note_off_c, 1, 50, 64
5, 8880, Note_on_c, 1, 53, 108
5, 9081, Note_off_c, 1, 53, 64
5, 9120, Note_on_c, 1, 53, 108
5, 9561, Note_off_c, 1, 53, 64
5, 9600, Note_on_c, 1, 53, 111
5, 11500, Note_off_c, 1, 53, 64
5, 12000, Note_on_c, 1, 50, 102
5, 12384, Note_off_c, 1, 50, 64
5, 12480, Note_on_c, 1, 53, 117
5, 12864, Note_off_c, 1, 53, 64
5, 12960, Note_on_c, 1, 55, 117
5, 13344, Note_off_c, 1, 55, 64
5, 13440, Note_on_c, 1, 57, 104
5, 14380, Note_off_c, 1, 57, 64
5, 15840, Note_on_c, 1, 53, 116
5, 16224, Note_off_c, 1, 53, 64
5, 16320, Note_on_c, 1, 57, 111
5, 16704, Note_off_c, 1, 57, 64
5, 16800, Note_on_c, 1, 58, 124
5, 17184, Note_off_c, 1, 58, 64
5, 17280, Note_on_c, 1, 60, 110
5, 17856, Note_off_c, 1, 60, 64
5, 18000, Note_on_c, 1, 62, 104
5, 18192, Note_off_c, 1, 62, 64
5, 18240, Note_on_c, 1, 60, 122
5, 18624, Note_off_c, 1, 60, 64
5, 18720, Note_on_c, 1, 57, 116
5, 19104, Note_off_c, 1, 57, 64
5, 19200, Note_on_c, 1, 55, 108
5, 19584, Note_off_c, 1, 55, 64
5, 19680, Note_on_c, 1, 53, 110
5, 19872, Note_off_c, 1, 53, 64
5, 19920, Note_on_c, 1, 53, 99
5, 20880, Note_off_c, 1, 53, 64
5, 21120, Note_on_c, 1, 60, 110
5, 21504, Note_off_c, 1, 60, 64
5, 21600, Note_on_c, 1, 62, 112
5, 21984, Note_off_c, 1, 62, 64
5, 22080, Note_on_c, 1, 60, 109
5, 22464, Note_off_c, 1, 60, 64
5, 22560, Note_on_c, 1, 57, 116
5, 22944, Note_off_c, 1, 57, 64
5, 23040, Note_on_c, 1, 55, 115
5, 23424, Note_off_c, 1, 55, 64
5, 23520, Note_on_c, 1, 53, 121
5, 23712, Note_off_c, 1, 53, 64
5, 23760, Note_on_c, 1, 53, 101
5, 24940, Note_off_c, 1, 53, 64
5, 25440, Note_on_c, 1, 53, 112
5, 25632, Note_off_c, 1, 53, 64
5, 25680, Note_on_c, 1, 55, 107
5, 25872, Note_off_c, 1, 55, 64
5, 25920, Note_on_c, 1, 53, 115
5, 26304, Note_off_c, 1, 53, 64
5, 26400, Note_on_c, 1, 50, 109
5, 26784, Note_off_c, 1, 50, 64
5, 26880, Note_on_c, 1, 53, 104
5, 27820, Note_off_c, 1, 53, 64
5, 29280, Note_on_c, 1, 48, 103
5, 29472, Note_off_c, 1, 48, 64
5, 29520, Note_on_c, 1, 48, 104
5, 29712, Note_off_c, 1, 48, 64
5, 29760, Note_on_c, 1, 52, 111
5, 30144, Note_off_c, 1, 52, 64
5, 30240, Note_on_c, 1, 55, 102
5, 30624, Note_off_c, 1, 55, 64
5, 30720, Note_on_c, 1, 53, 110
5, 32620, Note_off_c, 1, 53, 64
5, 36960, Note_on_c, 1, 50, 109
5, 37344, Note_off_c, 1, 50, 64
5, 37440, Note_on_c, 1, 50, 104
5, 37824, Note_off_c, 1, 50, 64
5, 37920, Note_on_c, 1, 53, 109
5, 38304, Note_off_c, 1, 53, 64
5, 38400, Note_on_c, 1, 53, 123
5, 39340, Note_off_c, 1, 53, 64
5, 40800, Note_on_c, 1, 50, 103
5, 40992, Note_off_c, 1, 50, 64
5, 41040, Note_on_c, 1, 50, 114
5, 41232, Note_off_c, 1, 50, 64
5, 41280, Note_on_c, 1, 53, 104
5, 41664, Note_off_c, 1, 53, 64
5, 41760, Note_on_c, 1, 55, 110
5, 42144, Note_off_c, 1, 55, 64
5, 42240, Note_on_c, 1, 57, 105
5, 43180, Note_off_c, 1, 57, 64
5, 45120, Note_on_c, 1, 57, 114
5, 45504, Note_off_c, 1, 57, 64
5, 45600, Note_on_c, 1, 58, 96
5, 45984, Note_off_c, 1, 58, 64
5, 46080, Note_on_c, 1, 60, 102
5, 46656, Note_off_c, 1, 60, 64
5, 46800, Note_on_c, 1, 62, 95
5, 46992, Note_off_c, 1, 62, 64
5, 47040, Note_on_c, 1, 60, 106
5, 47424, Note_off_c, 1, 60, 64
5, 47520, Note_on_c, 1, 57, 110
5, 47904, Note_off_c, 1, 57, 64
5, 48000, Note_on_c, 1, 55, 111
5, 48384, Note_off_c, 1, 55, 64
5, 48480, Note_on_c, 1, 53, 102
5, 48672, Note_off_c, 1, 53, 64
5, 48720, Note_on_c, 1, 53, 111
5, 49488, Note_off_c, 1, 53, 64
5, 49680, Note_on_c, 1, 60, 114
5, 49872, Note_off_c, 1, 60, 64
5, 49920, Note_on_c, 1, 60, 98
5, 50112, Note_off_c, 1, 60, 64
5, 50160, Note_on_c, 1, 60, 98
5, 50352, Note_off_c, 1, 60, 64
5, 50400, Note_on_c, 1, 62, 112
5, 50784, Note_off_c, 1, 62, 64
5, 50880, Note_on_c, 1, 60, 112
5, 51264, Note_off_c, 1, 60, 64
5, 51360, Note_on_c, 1, 57, 107
5, 51744, Note_off_c, 1, 57, 64
5, 51840, Note_on_c, 1, 55, 111
5, 52224, Note_off_c, 1, 55, 64
5, 52320, Note_on_c, 1, 53, 110
5, 52512, Note_off_c, 1, 53, 64
5, 52560, Note_on_c, 1, 53, 109
5, 53740, Note_off_c, 1, 53, 64
5, 54240, Note_on_c, 1, 53, 118
5, 54432, Note_off_c, 1, 53, 64
5, 54480, Note_on_c, 1, 55, 105
5, 54672, Note_off_c, 1, 55, 64
5, 54720, Note_on_c, 1, 53, 110
5, 55104, Note_off_c, 1, 53, 64
5, 55200, Note_on_c, 1, 50, 98
5, 55584, Note_off_c, 1, 50, 64
5, 55680, Note_on_c, 1, 53, 106
5, 56620, Note_off_c, 1, 53, 64
5, 58080, Note_on_c, 1, 48, 124
5, 58272, Note_off_c, 1, 48, 64
5, 58320, Note_on_c, 1, 48, 108
5, 58512, Note_off_c, 1, 48, 64
5, 58560, Note_on_c, 1, 52, 116
5, 58944, Note_off_c, 1, 52, 64
5, 59040, Note_on_c, 1, 55, 110
5, 59424, Note_off_c, 1, 55, 64
5, 59520, Note_on_c, 1, 53, 110
5, 61420, Note_off_c, 1, 53, 64
5, 67200, Note_on_c, 1, 52, 106
5, 67584, Note_off_c, 1, 52, 64
5, 67680, Note_on_c, 1, 53, 115
5, 68064, Note_off_c, 1, 53, 64
5, 68160, Note_on_c, 1, 55, 115
5, 68544, Note_off_c, 1, 55, 64
5, 68640, Note_on_c, 1, 57, 103
5, 69024, Note_off_c, 1, 57, 64
5, 69120, Note_on_c, 1, 58, 110
5, 69504, Note_off_c, 1, 58, 64
5, 69600, Note_on_c, 1, 57, 105
5, 69792, Note_off_c, 1, 57, 64
5, 69840, Note_on_c, 1, 55, 99
5, 70416, Note_off_c, 1, 55, 64
5, 70560, Note_on_c, 1, 57, 112
5, 70752, Note_off_c, 1, 57, 64
5, 70800, Note_on_c, 1, 55, 103
5, 70992, Note_off_c, 1, 55, 64
5, 71040, Note_on_c, 1, 58, 110
5, 71232, Note_off_c, 1, 58, 64
5, 71280, Note_on_c, 1, 55, 109
5, 72940, Note_off_c, 1, 55, 64
5, 74400, Note_on_c, 1, 53, 100
5, 74784, Note_off_c, 1, 53, 64
5, 74880, Note_on_c, 1, 52, 109
5, 75264, Note_off_c, 1, 52, 64
5, 75360, Note_on_c, 1, 53, 110
5, 75744, Note_off_c, 1, 53, 64
5, 75840, Note_on_c, 1, 55, 107
5, 76224, Note_off_c, 1, 55, 64
5, 76320, Note_on_c, 1, 57, 115
5, 76704, Note_off_c, 1, 57, 64
5, 76800, Note_on_c, 1, 58, 108
5, 77184, Note_off_c, 1, 58, 64
5, 77280, Note_on_c, 1, 57, 109
5, 77472, Note_off_c, 1, 57, 64
5, 77520, Note_on_c, 1, 55, 109
5, 78096, Note_off_c, 1, 55, 64
5, 78240, Note_on_c, 1, 57, 115
5, 78624, Note_off_c, 1, 57, 64
5, 78720, Note_on_c, 1, 55, 110
5, 80620, Note_off_c, 1, 55, 64
5, 82560, Note_on_c, 1, 52, 110
5, 82944, Note_off_c, 1, 52, 64
5, 83040, Note_on_c, 1, 53, 96
5, 83424, Note_off_c, 1, 53, 64
5, 83520, Note_on_c, 1, 55, 103
5, 83904, Note_off_c, 1, 55, 64
5, 84000, Note_on_c, 1, 57, 106
5, 84384, Note_off_c, 1, 57, 64
5, 84480, Note_on_c, 1, 58, 111
5, 84864, Note_off_c, 1, 58, 64
5, 84960, Note_on_c, 1, 57, 117
5, 85152, Note_off_c, 1, 57, 64
5, 85200, Note_on_c, 1, 55, 98
5, 85776, Note_off_c, 1, 55, 64
5, 85920, Note_on_c, 1, 57, 103
5, 86112, Note_off_c, 1, 57, 64
5, 86160, Note_on_c, 1, 55, 100
5, 86352, Note_off_c, 1, 55, 64
5, 86400, Note_on_c, 1, 58, 120
5, 86592, Note_off_c, 1, 58, 64
5, 86640, Note_on_c, 1, 55, 110
5, 88300, Note_off_c, 1, 55, 64
5, 89760, Note_on_c, 1, 53, 120
5, 90144, Note_off_c, 1, 53, 64
5, 90240, Note_on_c, 1, 52, 103
5, 90624, Note_off_c, 1, 52, 64
5, 90720, Note_on_c, 1, 53, 116
5, 91104, Note_off_c, 1, 53, 64
5, 91200, Note_on_c, 1, 55, 110
5, 91584, Note_off_c, 1, 55, 64
5, 91680, Note_on_c, 1, 57, 107
5, 92064, Note_off_c, 1, 57, 64
5, 92160, Note_on_c, 1, 58, 101
5, 92544, Note_off_c, 1, 58, 64
5, 92640, Note_on_c, 1, 57, 108
5, 92832, Note_off_c, 1, 57, 64
5, 92880, Note_on_c, 1, 55, 110
5, 93456, Note_off_c, 1, 55, 64
5, 93600, Note_on_c, 1, 53, 105
5, 93984, Note_off_c, 1, 53, 64
5, 94080, Note_on_c, 1, 53, 112
5, 95980, Note_off_c, 1, 53, 64
5, 100320, Note_on_c, 1, 50, 99
5, 100704, Note_off_c, 1, 50, 64
5, 100800, Note_on_c, 1, 50, 105
5, 101184, Note_off_c, 1, 50, 64
5, 101280, Note_on_c, 1, 53, 102
5, 101664, Note_off_c, 1, 53, 64
5, 101760, Note_on_c, 1, 53, 116
5, 102700, Note_off_c, 1, 53, 64
5, 104160, Note_on_c, 1, 50, 103
5, 104544, Note_off_c, 1, 50, 64
5, 104640, Note_on_c, 1, 53, 96
5, 105024, Note_off_c, 1, 53, 64
5, 105120, Note_on_c, 1, 55, 106
5, 105504, Note_off_c, 1, 55, 64
5, 105600, Note_on_c, 1, 57, 123
5, 106540, Note_off_c, 1, 57, 64
5, 108000, Note_on_c, 1, 53, 111
5, 108384, Note_off_c, 1, 53, 64
5, 108480, Note_on_c, 1, 57, 101
5, 108864, Note_off_c, 1, 57, 64
5, 108960, Note_on_c, 1, 58, 121
5, 109344, Note_off_c, 1, 58, 64
5, 109440, Note_on_c, 1, 60, 110
5, 110016, Note_off_c, 1, 60, 64
5, 110160, Note_on_c, 1, 62, 124
5, 110352, Note_off_c, 1, 62, 64
5, 110400, Note_on_c, 1, 60, 109
5, 110784, Note_off_c, 1, 60, 64
5, 110880, Note_on_c, 1, 57, 102
5, 111264, Note_off_c, 1, 57, 64
5, 111360, Note_on_c, 1, 55, 110
5, 111744, Note_off_c, 1, 55, 64
5, 111840, Note_on_c, 1, 53, 123
5, 112032, Note_off_c, 1, 53, 64
5, 112080, Note_on_c, 1, 53, 105
5, 113040, Note_off_c, 1, 53, 64
5, 113280, Note_on_c, 1, 60, 119
5, 113856, Note_off_c, 1, 60, 64
5, 114000, Note_on_c, 1, 62, 123
5, 114192, Note_off_c, 1, 62, 64
5, 114240, Note_on_c, 1, 60, 100
5, 114624, Note_off_c, 1, 60, 64
5, 114720, Note_on_c, 1, 57, 110
5, 115104, Note_off_c, 1, 57, 64
5, 115200, Note_on_c, 1, 55, 110
5, 115584, Note_off_c, 1, 55, 64
5, 115680, Note_on_c, 1, 53, 104
5, 115872, Note_off_c, 1, 53, 64
5, 115920, Note_on_c, 1, 53, 112
5, 117100, Note_off_c, 1, 53, 64
5, 117600, Note_on_c, 1, 53, 116
5, 117792, Note_off_c, 1, 53, 64
5, 117840, Note_on_c, 1, 55, 101
5, 118032, Note_off_c, 1, 55, 64
5, 118080, Note_on_c, 1, 53, 124
5, 118464, Note_off_c, 1, 53, 64
5, 118560, Note_on_c, 1, 50, 97
5, 118944, Note_off_c, 1, 50, 64
5, 119040, Note_on_c, 1, 53, 101
5, 119980, Note_off_c, 1, 53, 64
5, 121440, Note_on_c, 1, 48, 110
5, 121632, Note_off_c, 1, 48, 64
5, 121680, Note_on_c, 1, 48, 114
5, 121872, Note_off_c, 1, 48, 64
5, 121920, Note_on_c, 1, 52, 117
5, 122304, Note_off_c, 1, 52, 64
5, 122400, Note_on_c, 1, 55, 104
5, 122784, Note_off_c, 1, 55, 64
5, 122880, Note_on_c, 1, 53, 119
5, 124780, Note_off_c, 1, 53, 64
5, 129120, Note_on_c, 1, 50, 109
5, 129504, Note_off_c, 1, 50, 64
5, 129600, Note_on_c, 1, 50, 115
5, 129792, Note_off_c, 1, 50, 64
5, 129840, Note_on_c, 1, 53, 102
5, 130032, Note_off_c, 1, 53, 64
5, 130080, Note_on_c, 1, 53, 117
5, 130464, Note_off_c, 1, 53, 64
5, 130560, Note_on_c, 1, 53, 98
5, 132460, Note_off_c, 1, 53, 64
5, 132960, Note_on_c, 1, 50, 100
5, 133344, Note_off_c, 1, 50, 64
5, 133440, Note_on_c, 1, 53, 109
5, 133824, Note_off_c, 1, 53, 64
5, 133920, Note_on_c, 1, 55, 117
5, 134304, Note_off_c, 1, 55, 64
5, 134400, Note_on_c, 1, 57, 103
5, 135340, Note_off_c, 1, 57, 64
5, 136800, Note_on_c, 1, 53, 111
5, 137184, Note_off_c, 1, 53, 64
5, 137280, Note_on_c, 1, 57, 112
5, 137664, Note_off_c, 1, 57, 64
5, 137760, Note_on_c, 1, 58, 110
5, 138144, Note_off_c, 1, 58, 64
5, 138240, Note_on_c, 1, 60, 119
5, 138816, Note_off_c, 1, 60, 64
5, 138960, Note_on_c, 1, 62, 105
5, 139152, Note_off_c, 1, 62, 64
5, 139200, Note_on_c, 1, 60, 105
5, 139584, Note_off_c, 1, 60, 64
5, 139680, Note_on_c, 1, 57, 110
5, 140064, Note_off_c, 1, 57, 64
5, 140160, Note_on_c, 1, 55, 121
5, 140544, Note_off_c, 1, 55, 64
5, 140640, Note_on_c, 1, 53, 109
5, 140832, Note_off_c, 1, 53, 64
5, 140880, Note_on_c, 1, 53, 112
5, 141840, Note_off_c, 1, 53, 64
5, 142080, Note_on_c, 1, 60, 97
5, 142464, Note_off_c, 1, 60, 64
5, 142560, Note_on_c, 1, 62, 101
5, 142944, Note_off_c, 1, 62, 64
5, 143040, Note_on_c, 1, 60, 107
5, 143424, Note_off_c, 1, 60, 64
5, 143520, Note_on_c, 1, 57, 103
5, 143904, Note_off_c, 1, 57, 64
5, 144000, Note_on_c, 1, 55, 109
5, 144384, Note_off_c, 1, 55, 64
5, 144480, Note_on_c, 1, 53, 122
5, 144672, Note_off_c, 1, 53, 64
5, 144720, Note_on_c, 1, 53, 113
5, 145900, Note_off_c, 1, 53, 64
5, 146400, Note_on_c, 1, 53, 111
5, 146592, Note_off_c, 1, 53, 64
5, 146640, Note_on_c, 1, 55, 112
5, 146832, Note_off_c, 1, 55, 64
5, 146880, Note_on_c, 1, 53, 124
5, 147264, Note_off_c, 1, 53, 64
5, 147360, Note_on_c, 1, 50, 113
5, 147744, Note_off_c, 1, 50, 64
5, 147840, Note_on_c, 1, 53, 112
5, 148780, Note_off_c, 1, 53, 64
5, 150240, Note_on_c, 1, 48, 110
5, 150432, Note_off_c, 1, 48, 64
5, 150480, Note_on_c, 1, 48, 111
5, 150672, Note_off_c, 1, 48, 64
5, 150720, Note_on_c, 1, 52, 113
5, 151104, Note_off_c, 1, 52, 64
5, 151200, Note_on_c, 1, 55, 97
5, 151584, Note_off_c, 1, 55, 64
5, 151680, Note_on_c, 1, 53, 111
5, 153580, Note_off_c, 1, 53, 64
5, 157920, Note_on_c, 1, 50, 110
5, 158304, Note_off_c, 1, 50, 64
5, 158400, Note_on_c, 1, 50, 111
5, 158784, Note_off_c, 1, 50, 64
5, 158880, Note_on_c, 1, 53, 110
5, 159264, Note_off_c, 1, 53, 64
5, 159360, Note_on_c, 1, 53, 96
5, 160300, Note_off_c, 1, 53, 64
5, 161760, Note_on_c, 1, 50, 114
5, 161952, Note_off_c, 1, 50, 64
5, 162000, Note_on_c, 1, 50, 102
5, 162192, Note_off_c, 1, 50, 64
5, 162240, Note_on_c, 1, 53, 111
5, 162624, Note_off_c, 1, 53, 64
5, 162720, Note_on_c, 1, 55, 110
5, 163104, Note_off_c, 1, 55, 64
5, 163200, Note_on_c, 1, 57, 121
5, 164140, Note_off_c, 1, 57, 64
5, 166080, Note_on_c, 1, 57, 98
5, 166464, Note_off_c, 1, 57, 64
5, 166560, Note_on_c, 1, 58, 112
5, 166944, Note_off_c, 1, 58, 64
5, 167040, Note_on_c, 1, 60, 108
5, 167616, Note_off_c, 1, 60, 64
5, 167760, Note_on_c, 1, 62, 108
5, 167952, Note_off_c, 1, 62, 64
5, 168000, Note_on_c, 1, 60, 110
5, 168384, Note_off_c, 1, 60, 64
5, 168480, Note_on_c, 1, 57, 121
5, 168864, Note_off_c, 1, 57, 64
5, 168960, Note_on_c, 1, 55, 110
5, 169344, Note_off_c, 1, 55, 64
5, 169440, Note_on_c, 1, 53, 110
5, 169632, Note_off_c, 1, 53, 64
5, 169680, Note_on_c, 1, 53, 110
5, 170448, Note_off_c, 1, 53, 64
5, 170640, Note_on_c, 1, 60, 121
5, 170832, Note_off_c, 1, 60, 64
5, 170880, Note_on_c, 1, 60, 101
5, 171072, Note_off_c, 1, 60, 64
5, 171120, Note_on_c, 1, 60, 118
5, 171312, Note_off_c, 1, 60, 64
5, 171360, Note_on_c, 1, 62, 108
5, 171744, Note_off_c, 1, 62, 64
5, 171840, Note_on_c, 1, 60, 115
5, 172224, Note_off_c, 1, 60, 64
5, 172320, Note_on_c, 1, 57, 123
5, 172704, Note_off_c, 1, 57, 64
5, 172800, Note_on_c, 1, 55, 116
5, 173184, Note_off_c, 1, 55, 64
5, 173280, Note_on_c, 1, 53, 112
5, 173472, Note_off_c, 1, 53, 64
5, 173520, Note_on_c, 1, 53, 110
5, 174700, Note_off_c, 1, 53, 64
5, 175200, Note_on_c, 1, 53, 98
5, 175392, Note_off_c, 1, 53, 64
5, 175440, Note_on_c, 1, 55, 114
5, 175632, Note_off_c, 1, 55, 64
5, 175680, Note_on_c, 1, 53, 115
5, 176064, Note_off_c, 1, 53, 64
5, 176160, Note_on_c, 1, 50, 105
5, 176544, Note_off_c, 1, 50, 64
5, 176640, Note_on_c, 1, 53, 107
5, 177580, Note_off_c, 1, 53, 64
5, 179040, Note_on_c, 1, 48, 110
5, 179232, Note_off_c, 1, 48, 64
5, 179280, Note_on_c, 1, 48, 100
5, 179472, Note_off_c, 1, 48, 64
5, 179520, Note_on_c, 1, 52, 101
5, 179904, Note_off_c, 1, 52, 64
5, 180000, Note_on_c, 1, 55, 117
5, 180384, Note_off_c, 1, 55, 64
5, 180480, Note_on_c, 1, 53, 112
5, 182380, Note_off_c, 1, 53, 64
5, 188160, Note_on_c, 1, 52, 104
5, 188544, Note_off_c, 1, 52, 64
5, 188640, Note_on_c, 1, 53, 101
5, 189024, Note_off_c, 1, 53, 64
5, 189120, Note_on_c, 1, 55, 124
5, 189504, Note_off_c, 1, 55, 64
5, 189600, Note_on_c, 1, 57, 107
5, 189984, Note_off_c, 1, 57, 64
5, 190080, Note_on_c, 1, 58, 120
5, 190464, Note_off_c, 1, 58, 64
5, 190560, Note_on_c, 1, 57, 110
5, 190752, Note_off_c, 1, 57, 64
5, 190800, Note_on_c, 1, 55, 115
5, 191376, Note_off_c, 1, 55, 64
5, 191520, Note_on_c, 1, 57, 105
5, 191712, Note_off_c, 1, 57, 64
5, 191760, Note_on_c, 1, 55, 110
5, 191952, Note_off_c, 1, 55, 64
5, 192000, Note_on_c, 1, 58, 109
5, 192192, Note_off_c, 1, 58, 64
5, 192240, Note_on_c, 1, 55, 109
5, 193900, Note_off_c, 1, 55, 64
5, 195360, Note_on_c, 1, 53, 120
5, 195744, Note_off_c, 1, 53, 64
5, 195840, Note_on_c, 1, 52, 103
5, 196224, Note_off_c, 1, 52, 64
5, 196320, Note_on_c, 1, 53, 110
5, 196704, Note_off_c, 1, 53, 64
5, 196800, Note_on_c, 1, 55, 101
5, 197184, Note_off_c, 1, 55, 64
5, 197280, Note_on_c, 1, 57, 109
5, 197664, Note_off_c, 1, 57, 64
5, 197760, Note_on_c, 1, 58, 102
5, 198144, Note_off_c, 1, 58, 64
5, 198240, Note_on_c, 1, 57, 115
5, 198432, Note_off_c, 1, 57, 64
5, 198480, Note_on_c, 1, 55, 102
5, 199056, Note_off_c, 1, 55, 64
5, 199200, Note_on_c, 1, 57, 121
5, 199584, Note_off_c, 1, 57, 64
5, 199680, Note_on_c, 1, 55, 110
5, 201580, Note_off_c, 1, 55, 64
5, 203520, Note_on_c, 1, 52, 105
5, 203904, Note_off_c, 1, 52, 64
5, 204000, Note_on_c, 1, 53, 118
5, 204384, Note_off_c, 1, 53, 64
5, 204480, Note_on_c, 1, 55, 112
5, 204864, Note_off_c, 1, 55, 64
5, 204960, Note_on_c, 1, 57, 109
5, 205344, Note_off_c, 1, 57, 64
5, 205440, Note_on_c, 1, 58, 111
5, 205824, Note_off_c, 1, 58, 64
5, 205920, Note_on_c, 1, 57, 111
5, 206112, Note_off_c, 1, 57, 64
5, 206160, Note_on_c, 1, 55, 107
5, 206736, Note_off_c, 1, 55, 64
5, 206880, Note_on_c, 1, 57, 102
5, 207072, Note_off_c, 1, 57, 64
5, 207120, Note_on_c, 1, 55, 108
5, 207312, Note_off_c, 1, 55, 64
5, 207360, Note_on_c, 1, 58, 110
5, 207552, Note_off_c, 1, 58, 64
5, 207600, Note_on_c, 1, 55, 124
5, 209260, Note_off_c, 1, 55, 64
5, 210720, Note_on_c, 1, 53, 116
5, 211104, Note_off_c, 1, 53, 64
5, 211200, Note_on_c, 1, 52, 111
5, 211584, Note_off_c, 1, 52, 64
5, 211680, Note_on_c, 1, 53, 111
5, 212064, Note_off_c, 1, 53, 64
5, 212160, Note_on_c, 1, 55, 113
5, 212544, Note_off_c, 1, 55, 64
5, 212640, Note_on_c, 1, 57, 100
5, 213024, Note_off_c, 1, 57, 64
5, 213120, Note_on_c, 1, 58, 107
5, 213504, Note_off_c, 1, 58, 64
5, 213600, Note_on_c, 1, 57, 112
5, 213792, Note_off_c, 1, 57, 64
5, 213840, Note_on_c, 1, 55, 110
5, 214416, Note_off_c, 1, 55, 64
5, 214560, Note_on_c, 1, 53, 116
5, 214944, Note_off_c, 1, 53, 64
5, 215040, Note_on_c, 1, 53, 112
5, 216940, Note_off_c, 1, 53, 64
5, 221280, Note_on_c, 1, 50, 117
5, 221664, Note_off_c, 1, 50, 64
5, 221760, Note_on_c, 1, 50, 110
5, 222144, Note_off_c, 1, 50, 64
5, 222240, Note_on_c, 1, 53, 117
5, 222624, Note_off_c, 1, 53, 64
5, 222720, Note_on_c, 1, 53, 109
5, 223660, Note_off_c, 1, 53, 64
5, 225120, Note_on_c, 1, 50, 114
5, 225504, Note_off_c, 1, 50, 64
5, 225600, Note_on_c, 1, 53, 122
5, 225984, Note_off_c, 1, 53, 64
5, 226080, Note_on_c, 1, 55, 123
5, 226464, Note_off_c, 1, 55, 64
5, 226560, Note_on_c, 1, 57, 110
5, 227500, Note_off_c, 1, 57, 64
5, 228960, Note_on_c, 1, 53, 97
5, 229344, Note_off_c, 1, 53, 64
5, 229440, Note_on_c, 1, 57, 109
5, 229824, Note_off_c, 1, 57, 64
5, 229920, Note_on_c, 1, 58, 104
5, 230304, Note_off_c, 1, 58, 64
5, 230400, Note_on_c, 1, 60, 115
5, 230976, Note_off_c, 1, 60, 64
5, 231120, Note_on_c, 1, 62, 110
5, 231312, Note_off_c, 1, 62, 64
5, 231360, Note_on_c, 1, 60, 105
5, 231744, Note_off_c, 1, 60, 64
5, 231840, Note_on_c, 1, 57, 103
5, 232224, Note_off_c, 1, 57, 64
5, 232320, Note_on_c, 1, 55, 116
5, 232704, Note_off_c, 1, 55, 64
5, 232800, Note_on_c, 1, 53, 112
5, 232992, Note_off_c, 1, 53, 64
5, 233040, Note_on_c, 1, 53, 113
5, 234000, Note_off_c, 1, 53, 64
5, 234240, Note_on_c, 1, 60, 109
5, 234816, Note_off_c, 1, 60, 64
5, 234960, Note_on_c, 1, 62, 125
5, 235152, Note_off_c, 1, 62, 64
5, 235200, Note_on_c, 1, 60, 110
5, 235584, Note_off_c, 1, 60, 64
5, 235680, Note_on_c, 1, 57, 110
5, 236064, Note_off_c, 1, 57, 64
5, 236160, Note_on_c, 1, 55, 110
5, 236544, Note_off_c, 1, 55, 64
5, 236640, Note_on_c, 1, 53, 106
5, 236832, Note_off_c, 1, 53, 64
5, 236880, Note_on_c, 1, 53, 108
5, 238060, Note_off_c, 1, 53, 64
5, 238560, Note_on_c, 1, 53, 110
5, 238752, Note_off_c, 1, 53, 64
5, 238800, Note_on_c, 1, 55, 117
5, 238992, Note_off_c, 1, 55, 64
5, 239040, Note_on_c, 1, 53, 121
5, 239424, Note_off_c, 1, 53, 64
5, 239520, Note_on_c, 1, 50, 110
5, 239904, Note_off_c, 1, 50, 64
5, 240000, Note_on_c, 1, 53, 113
5, 240940, Note_off_c, 1, 53, 64
5, 242400, Note_on_c, 1, 48, 111
5, 242592, Note_off_c, 1, 48, 64
5, 242640, Note_on_c, 1, 48, 107
5, 242832, Note_off_c, 1, 48, 64
5, 242880, Note_on_c, 1, 52, 110
5, 243264, Note_off_c, 1, 52, 64
5, 243360, Note_on_c, 1, 55, 117
5, 243744, Note_off_c, 1, 55, 64
5, 243840, Note_on_c, 1, 53, 102
5, 250944, Note_off_c, 1, 53, 64
5, 250944, End_track
6, 0, Start_track
6, 0, Title_t, "Guitar (Clean)"
6, 0, MIDI_port, 0
6, 0, Channel_prefix, 2
6, 0, Control_c, 2, 7, 109
6, 0, Control_c, 2, 10, 16
6, 0, Program_c, 2, 27
6, 0, Control_c, 2, 121, 0
6, 40, Control_c, 2, 123, 0
6, 80, Control_c, 2, 93, 65
6, 120, Control_c, 2, 91, 45
6, 160, Control_c, 2, 64, 0
6, 1920, Note_on_c, 2, 60, 92
6, 1920, Note_on_c, 2, 57, 101
6, 1920, Note_on_c, 2, 65, 84
6, 2304, Note_off_c, 2, 65, 64
6, 2304, Note_off_c, 2, 57, 64
6, 2304, Note_off_c, 2, 60, 64
6, 2400, Note_on_c, 2, 57, 90
6, 2400, Note_on_c, 2, 60, 102
6, 2400, Note_on_c, 2, 65, 88
6, 2592, Note_off_c, 2, 65, 64
6, 2592, Note_off_c, 2, 60, 64
6, 2592, Note_off_c, 2, 57, 64
6, 2640, Note_on_c, 2, 57, 90
6, 2640, Note_on_c, 2, 60, 89
6, 2640, Note_on_c, 2, 65, 92
6, 3024, Note_off_c, 2, 65, 64
6, 3024, Note_off_c, 2, 60, 64
6, 3024, Note_off_c, 2, 57, 64
6, 3120, Note_on_c, 2, 57, 100
6, 3120, Note_on_c, 2, 60, 82
6, 3120, Note_on_c, 2, 65, 89
6, 3312, Note_off_c, 2, 65, 64
6, 3312, Note_off_c, 2, 60, 64
6, 3312, Note_off_c, 2, 57, 64
6, 3360, Note_on_c, 2, 57, 92
6, 3360, Note_on_c, 2, 60, 90
6, 3360, Note_on_c, 2, 65, 85
6, 3820, Note_off_c, 2, 65, 64
6, 3820, Note_off_c, 2, 60, 64
6, 3820, Note_off_c, 2, 57, 64
6, 3840, Control_c, 2, 86, 37
6, 4320, Note_on_c, 2, 53, 87
6, 4320, Note_on_c, 2, 57, 86
6, 4320, Note_on_c, 2, 62, 84
6, 4704, Note_off_c, 2, 62, 64
6, 4704, Note_off_c, 2, 57, 64
6, 4704, Note_off_c, 2, 53, 64
6, 4800, Note_on_c, 2, 53, 98
6, 4800, Note_on_c, 2, 57, 102
6, 4800, Note_on_c, 2, 62, 100
6, 5260, Note_off_c, 2, 62, 64
6, 5260, Note_off_c, 2, 57, 64
6, 5260, Note_off_c, 2, 53, 64
6, 5280, Control_c, 2, 86, 37
6, 5760, Note_on_c, 2, 57, 77
6, 5760, Note_on_c, 2, 60, 90
6, 5760, Note_on_c, 2, 65, 102
6, 6144, Note_off_c, 2, 65, 64
6, 6144, Note_off_c, 2, 60, 64
6, 6144, Note_off_c, 2, 57, 64
6, 6240, Note_on_c, 2, 57, 98
6, 6240, Note_on_c, 2, 60, 89
6, 6240, Note_on_c, 2, 65, 87
6, 6432, Note_off_c, 2, 65, 64
6, 6432, Note_off_c, 2, 60, 64
6, 6432, Note_off_c, 2, 57, 64
6, 6480, Note_on_c, 2, 57, 89
6, 6480, Note_on_c, 2, 60, 88
6, 6480, Note_on_c, 2, 65, 94
6, 6864, Note_off_c, 2, 65, 64
6, 6864, Note_off_c, 2, 60, 64
6, 6864, Note_off_c, 2, 57, 64
6, 6960, Note_on_c, 2, 57, 90
6, 6960, Note_on_c, 2, 60, 103
6, 6960, Note_on_c, 2, 65, 87
6, 7152, Note_off_c, 2, 65, 64
6, 7152, Note_off_c, 2, 60, 64
6, 7152, Note_off_c, 2, 57, 64
6, 7200, Note_on_c, 2, 57, 87
6, 7200, Note_on_c, 2, 60, 86
6, 7200, Note_on_c, 2, 65, 104
6, 7584, Note_off_c, 2, 65, 64
6, 7584, Note_off_c, 2, 60, 64
6, 7584, Note_off_c, 2, 57, 64
6, 7680, Note_on_c, 2, 53, 103
6, 7680, Note_on_c, 2, 57, 80
6, 7680, Note_on_c, 2, 62, 90
6, 8064, Note_off_c, 2, 62, 64
6, 8064, Note_off_c, 2, 57, 64
6, 8064, Note_off_c, 2, 53, 64
6, 8160, Note_on_c, 2, 62, 84
6, 8544, Note_off_c, 2, 62, 64
6, 8640, Note_on_c, 2, 62, 101
6, 8832, Note_off_c, 2, 62, 64
6, 8880, Note_on_c, 2, 65, 90
6, 9072, Note_off_c, 2, 65, 64
6, 9120, Note_on_c, 2, 65, 75
6, 9504, Note_off_c, 2, 65, 64
6, 10080, Note_on_c, 2, 57, 98
6, 10080, Note_on_c, 2, 60, 91
6, 10272, Note_off_c, 2, 60, 64
6, 10272, Note_off_c, 2, 57, 64
6, 10320, Note_on_c, 2, 57, 90
6, 10320, Note_on_c, 2, 60, 91
6, 10704, Note_off_c, 2, 60, 64
6, 10704, Note_off_c, 2, 57, 64
6, 10800, Note_on_c, 2, 57, 86
6, 10800, Note_on_c, 2, 60, 90
6, 10992, Note_off_c, 2, 60, 64
6, 10992, Note_off_c, 2, 57, 64
6, 11040, Note_on_c, 2, 57, 105
6, 11040, Note_on_c, 2, 60, 90
6, 11500, Note_off_c, 2, 60, 64
6, 11500, Note_off_c, 2, 57, 64
6, 13920, Note_on_c, 2, 57, 80
6, 13920, Note_on_c, 2, 60, 77
6, 13920, Note_on_c, 2, 65, 104
6, 14112, Note_off_c, 2, 65, 64
6, 14112, Note_off_c, 2, 60, 64
6, 14112, Note_off_c, 2, 57, 64
6, 14160, Note_on_c, 2, 57, 79
6, 14160, Note_on_c, 2, 60, 100
6, 14160, Note_on_c, 2, 65, 104
6, 14544, Note_off_c, 2, 65, 64
6, 14544, Note_off_c, 2, 60, 64
6, 14544, Note_off_c, 2, 57, 64
6, 14640, Note_on_c, 2, 57, 84
6, 14640, Note_on_c, 2, 60, 92
6, 14640, Note_on_c, 2, 65, 89
6, 14832, Note_off_c, 2, 65, 64
6, 14832, Note_off_c, 2, 60, 64
6, 14832, Note_off_c, 2, 57, 64
6, 14880, Note_on_c, 2, 57, 93
6, 14880, Note_on_c, 2, 60, 90
6, 14880, Note_on_c, 2, 65, 90
6, 15340, Note_off_c, 2, 65, 64
6, 15340, Note_off_c, 2, 60, 64
6, 15340, Note_off_c, 2, 57, 64
6, 17760, Note_on_c, 2, 65, 96
6, 17760, Note_on_c, 2, 69, 97
6, 18144, Note_off_c, 2, 69, 64
6, 18144, Note_off_c, 2, 65, 64
6, 18240, Note_on_c, 2, 72, 89
6, 18624, Note_off_c, 2, 72, 64
6, 18720, Note_on_c, 2, 60, 90
6, 18720, Note_on_c, 2, 65, 94
6, 18720, Note_on_c, 2, 69, 89
6, 19104, Note_off_c, 2, 69, 64
6, 19104, Note_off_c, 2, 65, 64
6, 19104, Note_off_c, 2, 60, 64
6, 19200, Note_on_c, 2, 57, 85
6, 19200, Note_on_c, 2, 64, 104
6, 19200, Note_on_c, 2, 67, 80
6, 19584, Note_off_c, 2, 67, 64
6, 19584, Note_off_c, 2, 64, 64
6, 19584, Note_off_c, 2, 57, 64
6, 19680, Note_on_c, 2, 57, 90
6, 19680, Note_on_c, 2, 62, 87
6, 19680, Note_on_c, 2, 65, 90
6, 19872, Note_off_c, 2, 65, 64
6, 19872, Note_off_c, 2, 62, 64
6, 19872, Note_off_c, 2, 57, 64
6, 19920, Note_on_c, 2, 57, 87
6, 19920, Note_on_c, 2, 62, 94
6, 19920, Note_on_c, 2, 65, 87
6, 20880, Note_off_c, 2, 65, 64
6, 20880, Note_off_c, 2, 62, 64
6, 20880, Note_off_c, 2, 57, 64
6, 21120, Note_on_c, 2, 72, 81
6, 21504, Note_off_c, 2, 72, 64
6, 21600, Note_on_c, 2, 65, 86
6, 21600, Note_on_c, 2, 69, 91
6, 21600, Note_on_c, 2, 74, 78
6, 21984, Note_off_c, 2, 74, 64
6, 21984, Note_off_c, 2, 69, 64
6, 21984, Note_off_c, 2, 65, 64
6, 22080, Note_on_c, 2, 72, 86
6, 22464, Note_off_c, 2, 72, 64
6, 22560, Note_on_c, 2, 60, 101
6, 22560, Note_on_c, 2, 65, 90
6, 22560, Note_on_c, 2, 69, 93
6, 22944, Note_off_c, 2, 69, 64
6, 22944, Note_off_c, 2, 65, 64
6, 22944, Note_off_c, 2, 60, 64
6, 23040, Note_on_c, 2, 57, 80
6, 23040, Note_on_c, 2, 64, 84
6, 23040, Note_on_c, 2, 67, 90
6, 23424, Note_off_c, 2, 67, 64
6, 23424, Note_off_c, 2, 64, 64
6, 23424, Note_off_c, 2, 57, 64
6, 23520, Note_on_c, 2, 57, 90
6, 23520, Note_on_c, 2, 62, 84
6, 23520, Note_on_c, 2, 65, 97
6, 23712, Note_off_c, 2, 65, 64
6, 23712, Note_off_c, 2, 62, 64
6, 23712, Note_off_c, 2, 57, 64
6, 23760, Note_on_c, 2, 57, 90
6, 23760, Note_on_c, 2, 62, 81
6, 23760, Note_on_c, 2, 65, 90
6, 24940, Note_off_c, 2, 65, 64
6, 25104, Note_off_c, 2, 62, 64
6, 25104, Note_off_c, 2, 57, 64
6, 25440, Note_on_c, 2, 57, 88
6, 25440, Note_on_c, 2, 62, 81
6, 25824, Note_off_c, 2, 62, 64
6, 25824, Note_off_c, 2, 57, 64
6, 25920, Note_on_c, 2, 65, 90
6, 26304, Note_off_c, 2, 65, 64
6, 26400, Note_on_c, 2, 53, 105
6, 26400, Note_on_c, 2, 57, 88
6, 26400, Note_on_c, 2, 62, 88
6, 26860, Note_off_c, 2, 62, 64
6, 26860, Note_off_c, 2, 57, 64
6, 26860, Note_off_c, 2, 53, 64
6, 26880, Control_c, 2, 86, 37
6, 27360, Note_on_c, 2, 58, 87
6, 27360, Note_on_c, 2, 62, 92
6, 27552, Note_off_c, 2, 62, 64
6, 27552, Note_off_c, 2, 58, 64
6, 27600, Note_on_c, 2, 58, 91
6, 27600, Note_on_c, 2, 62, 90
6, 27984, Note_off_c, 2, 62, 64
6, 27984, Note_off_c, 2, 58, 64
6, 28080, Note_on_c, 2, 58, 79
6, 28080, Note_on_c, 2, 62, 87
6, 28272, Note_off_c, 2, 62, 64
6, 28272, Note_off_c, 2, 58, 64
6, 28320, Note_on_c, 2, 58, 80
6, 28320, Note_on_c, 2, 62, 87
6, 28704, Note_off_c, 2, 62, 64
6, 28704, Note_off_c, 2, 58, 64
6, 28800, Note_on_c, 2, 58, 89
6, 28800, Note_on_c, 2, 64, 99
6, 29184, Note_off_c, 2, 64, 64
6, 29184, Note_off_c, 2, 58, 64
6, 29280, Note_on_c, 2, 60, 89
6, 29472, Note_off_c, 2, 60, 64
6, 29520, Note_on_c, 2, 60, 85
6, 29712, Note_off_c, 2, 60, 64
6, 29760, Note_on_c, 2, 64, 98
6, 29760, Note_on_c, 2, 58, 92
6, 30144, Note_off_c, 2, 58, 64
6, 30144, Note_off_c, 2, 64, 64
6, 30240, Note_on_c, 2, 58, 97
6, 30240, Note_on_c, 2, 64, 90
6, 30240, Note_on_c, 2, 67, 95
6, 30624, Note_off_c, 2, 67, 64
6, 30624, Note_off_c, 2, 64, 64
6, 30624, Note_off_c, 2, 58, 64
6, 30720, Note_on_c, 2, 57, 87
6, 30720, Note_on_c, 2, 60, 83
6, 31104, Note_off_c, 2, 60, 64
6, 31104, Note_off_c, 2, 57, 64
6, 31200, Note_on_c, 2, 57, 94
6, 31200, Note_on_c, 2, 60, 84
6, 31392, Note_off_c, 2, 60, 64
6, 31392, Note_off_c, 2, 57, 64
6, 31440, Note_on_c, 2, 57, 91
6, 31440, Note_on_c, 2, 60, 94
6, 31824, Note_off_c, 2, 60, 64
6, 31824, Note_off_c, 2, 57, 64
6, 31920, Note_on_c, 2, 57, 79
6, 31920, Note_on_c, 2, 60, 91
6, 32112, Note_off_c, 2, 60, 64
6, 32112, Note_off_c, 2, 57, 64
6, 32160, Note_on_c, 2, 57, 78
6, 32160, Note_on_c, 2, 60, 96
6, 32620, Note_off_c, 2, 60, 64
6, 32620, Note_off_c, 2, 57, 64
6, 32640, Control_c, 2, 86, 37
6, 33120, Note_on_c, 2, 53, 80
6, 33120, Note_on_c, 2, 57, 90
6, 33120, Note_on_c, 2, 62, 90
6, 33504, Note_off_c, 2, 62, 64
6, 33504, Note_off_c, 2, 57, 64
6, 33504, Note_off_c, 2, 53, 64
6, 33600, Note_on_c, 2, 53, 77
6, 33600, Note_on_c, 2, 57, 90
6, 33600, Note_on_c, 2, 62, 92
6, 34060, Note_off_c, 2, 62, 64
6, 34060, Note_off_c, 2, 57, 64
6, 34060, Note_off_c, 2, 53, 64
6, 34080, Control_c, 2, 86, 37
6, 34560, Note_on_c, 2, 57, 90
6, 34560, Note_on_c, 2, 60, 77
6, 34560, Note_on_c, 2, 65, 103
6, 34944, Note_off_c, 2, 65, 64
6, 34944, Note_off_c, 2, 60, 64
6, 34944, Note_off_c, 2, 57, 64
6, 35040, Note_on_c, 2, 57, 87
6, 35040, Note_on_c, 2, 60, 87
6, 35040, Note_on_c, 2, 65, 99
6, 35232, Note_off_c, 2, 65, 64
6, 35232, Note_off_c, 2, 60, 64
6, 35232, Note_off_c, 2, 57, 64
6, 35280, Note_on_c, 2, 57, 79
6, 35280, Note_on_c, 2, 60, 86
6, 35280, Note_on_c, 2, 65, 90
6, 35664, Note_off_c, 2, 65, 64
6, 35664, Note_off_c, 2, 60, 64
6, 35664, Note_off_c, 2, 57, 64
6, 35760, Note_on_c, 2, 57, 87
6, 35760, Note_on_c, 2, 60, 89
6, 35760, Note_on_c, 2, 65, 84
6, 35952, Note_off_c, 2, 65, 64
6, 35952, Note_off_c, 2, 60, 64
6, 35952, Note_off_c, 2, 57, 64
6, 36000, Note_on_c, 2, 57, 83
6, 36000, Note_on_c, 2, 60, 87
6, 36000, Note_on_c, 2, 65, 87
6, 36384, Note_off_c, 2, 65, 64
6, 36384, Note_off_c, 2, 60, 64
6, 36384, Note_off_c, 2, 57, 64
6, 36480, Note_on_c, 2, 53, 89
6, 36480, Note_on_c, 2, 57, 92
6, 36480, Note_on_c, 2, 62, 93
6, 36864, Note_off_c, 2, 62, 64
6, 36864, Note_off_c, 2, 57, 64
6, 36864, Note_off_c, 2, 53, 64
6, 36960, Note_on_c, 2, 62, 92
6, 37344, Note_off_c, 2, 62, 64
6, 37440, Note_on_c, 2, 62, 104
6, 37824, Note_off_c, 2, 62, 64
6, 37920, Note_on_c, 2, 65, 91
6, 38304, Note_off_c, 2, 65, 64
6, 38880, Note_on_c, 2, 57, 83
6, 38880, Note_on_c, 2, 60, 93
6, 39072, Note_off_c, 2, 60, 64
6, 39072, Note_off_c, 2, 57, 64
6, 39120, Note_on_c, 2, 57, 95
6, 39120, Note_on_c, 2, 60, 92
6, 39504, Note_off_c, 2, 60, 64
6, 39504, Note_off_c, 2, 57, 64
6, 39600, Note_on_c, 2, 57, 86
6, 39600, Note_on_c, 2, 60, 99
6, 39792, Note_off_c, 2, 60, 64
6, 39792, Note_off_c, 2, 57, 64
6, 39840, Note_on_c, 2, 57, 77
6, 39840, Note_on_c, 2, 60, 78
6, 40300, Note_off_c, 2, 60, 64
6, 40300, Note_off_c, 2, 57, 64
6, 42720, Note_on_c, 2, 57, 89
6, 42720, Note_on_c, 2, 60, 92
6, 42720, Note_on_c, 2, 65, 90
6, 42912, Note_off_c, 2, 65, 64
6, 42912, Note_off_c, 2, 60, 64
6, 42912, Note_off_c, 2, 57, 64
6, 42960, Note_on_c, 2, 57, 89
6, 42960, Note_on_c, 2, 60, 101
6, 42960, Note_on_c, 2, 65, 81
6, 43344, Note_off_c, 2, 65, 64
6, 43344, Note_off_c, 2, 60, 64
6, 43344, Note_off_c, 2, 57, 64
6, 43440, Note_on_c, 2, 57, 90
6, 43440, Note_on_c, 2, 60, 79
6, 43440, Note_on_c, 2, 65, 86
6, 43632, Note_off_c, 2, 65, 64
6, 43632, Note_off_c, 2, 60, 64
6, 43632, Note_off_c, 2, 57, 64
6, 43680, Note_on_c, 2, 57, 91
6, 43680, Note_on_c, 2, 60, 85
6, 43680, Note_on_c, 2, 65, 100
6, 44140, Note_off_c, 2, 65, 64
6, 44140, Note_off_c, 2, 60, 64
6, 44140, Note_off_c, 2, 57, 64
6, 46560, Note_on_c, 2, 65, 84
6, 46560, Note_on_c, 2, 69, 89
6, 46944, Note_off_c, 2, 69, 64
6, 46944, Note_off_c, 2, 65, 64
6, 47040, Note_on_c, 2, 72, 78
6, 47424, Note_off_c, 2, 72, 64
6, 47520, Note_on_c, 2, 60, 99
6, 47520, Note_on_c, 2, 65, 93
6, 47520, Note_on_c, 2, 69, 90
6, 47904, Note_off_c, 2, 69, 64
6, 47904, Note_off_c, 2, 65, 64
6, 47904, Note_off_c, 2, 60, 64
6, 48000, Note_on_c, 2, 57, 91
6, 48000, Note_on_c, 2, 64, 93
6, 48000, Note_on_c, 2, 67, 87
6, 48384, Note_off_c, 2, 67, 64
6, 48384, Note_off_c, 2, 64, 64
6, 48384, Note_off_c, 2, 57, 64
6, 48480, Note_on_c, 2, 57, 75
6, 48480, Note_on_c, 2, 62, 85
6, 48480, Note_on_c, 2, 65, 99
6, 48672, Note_off_c, 2, 65, 64
6, 48672, Note_off_c, 2, 62, 64
6, 48672, Note_off_c, 2, 57, 64
6, 48720, Note_on_c, 2, 57, 83
6, 48720, Note_on_c, 2, 62, 87
6, 48720, Note_on_c, 2, 65, 88
6, 49680, Note_off_c, 2, 65, 64
6, 49680, Note_off_c, 2, 62, 64
6, 49680, Note_off_c, 2, 57, 64
6, 49920, Note_on_c, 2, 72, 78
6, 50304, Note_off_c, 2, 72, 64
6, 50400, Note_on_c, 2, 65, 78
6, 50400, Note_on_c, 2, 69, 93
6, 50400, Note_on_c, 2, 74, 90
6, 50784, Note_off_c, 2, 74, 64
6, 50784, Note_off_c, 2, 69, 64
6, 50784, Note_off_c, 2, 65, 64
6, 50880, Note_on_c, 2, 72, 81
6, 51264, Note_off_c, 2, 72, 64
6, 51360, Note_on_c, 2, 60, 97
6, 51360, Note_on_c, 2, 65, 93
6, 51360, Note_on_c, 2, 69, 100
6, 51744, Note_off_c, 2, 69, 64
6, 51744, Note_off_c, 2, 65, 64
6, 51744, Note_off_c, 2, 60, 64
6, 51840, Note_on_c, 2, 57, 87
6, 51840, Note_on_c, 2, 64, 90
6, 51840, Note_on_c, 2, 67, 90
6, 52224, Note_off_c, 2, 67, 64
6, 52224, Note_off_c, 2, 64, 64
6, 52224, Note_off_c, 2, 57, 64
6, 52320, Note_on_c, 2, 57, 92
6, 52320, Note_on_c, 2, 62, 85
6, 52320, Note_on_c, 2, 65, 94
6, 52512, Note_off_c, 2, 65, 64
6, 52512, Note_off_c, 2, 62, 64
6, 52512, Note_off_c, 2, 57, 64
6, 52560, Note_on_c, 2, 57, 80
6, 52560, Note_on_c, 2, 62, 86
6, 52560, Note_on_c, 2, 65, 90
6, 53740, Note_off_c, 2, 65, 64
6, 53740, Note_off_c, 2, 62, 64
6, 53740, Note_off_c, 2, 57, 64
6, 53760, Control_c, 2, 86, 37
6, 54240, Note_on_c, 2, 57, 93
6, 54240, Note_on_c, 2, 62, 90
6, 54624, Note_off_c, 2, 62, 64
6, 54624, Note_off_c, 2, 57, 64
6, 54720, Note_on_c, 2, 65, 97
6, 55104, Note_off_c, 2, 65, 64
6, 55200, Note_on_c, 2, 53, 76
6, 55200, Note_on_c, 2, 57, 91
6, 55200, Note_on_c, 2, 62, 99
6, 55660, Note_off_c, 2, 62, 64
6, 55968, Note_off_c, 2, 57, 64
6, 55968, Note_off_c, 2, 53, 64
6, 56160, Note_on_c, 2, 58, 87
6, 56160, Note_on_c, 2, 62, 87
6, 56352, Note_off_c, 2, 62, 64
6, 56352, Note_off_c, 2, 58, 64
6, 56400, Note_on_c, 2, 58, 98
6, 56400, Note_on_c, 2, 62, 94
6, 56784, Note_off_c, 2, 62, 64
6, 56784, Note_off_c, 2, 58, 64
6, 56880, Note_on_c, 2, 58, 90
6, 56880, Note_on_c, 2, 62, 98
6, 57072, Note_off_c, 2, 62, 64
6, 57072, Note_off_c, 2, 58, 64
6, 57120, Note_on_c, 2, 58, 101
6, 57120, Note_on_c, 2, 62, 85
6, 57504, Note_off_c, 2, 62, 64
6, 57504, Note_off_c, 2, 58, 64
6, 57600, Note_on_c, 2, 58, 91
6, 57600, Note_on_c, 2, 64, 86
6, 57984, Note_off_c, 2, 64, 64
6, 57984, Note_off_c, 2, 58, 64
6, 58080, Note_on_c, 2, 60, 86
6, 58272, Note_off_c, 2, 60, 64
6, 58320, Note_on_c, 2, 60, 78
6, 58512, Note_off_c, 2, 60, 64
6, 58560, Note_on_c, 2, 64, 79
6, 58560, Note_on_c, 2, 58, 89
6, 58944, Note_off_c, 2, 58, 64
6, 58944, Note_off_c, 2, 64, 64
6, 59040, Note_on_c, 2, 58, 100
6, 59040, Note_on_c, 2, 64, 90
6, 59040, Note_on_c, 2, 67, 89
6, 59424, Note_off_c, 2, 67, 64
6, 59424, Note_off_c, 2, 64, 64
6, 59424, Note_off_c, 2, 58, 64
6, 59520, Note_on_c, 2, 57, 84
6, 59520, Note_on_c, 2, 60, 90
6, 59904, Note_off_c, 2, 60, 64
6, 59904, Note_off_c, 2, 57, 64
6, 60000, Note_on_c, 2, 57, 90
6, 60000, Note_on_c, 2, 60, 101
6, 60192, Note_off_c, 2, 60, 64
6, 60192, Note_off_c, 2, 57, 64
6, 60240, Note_on_c, 2, 57, 84
6, 60240, Note_on_c, 2, 60, 80
6, 60624, Note_off_c, 2, 60, 64
6, 60624, Note_off_c, 2, 57, 64
6, 60720, Note_on_c, 2, 57, 88
6, 60720, Note_on_c, 2, 60, 83
6, 60912, Note_off_c, 2, 60, 64
6, 60912, Note_off_c, 2, 57, 64
6, 60960, Note_on_c, 2, 57, 85
6, 60960, Note_on_c, 2, 60, 85
6, 61420, Note_off_c, 2, 60, 64
6, 61420, Note_off_c, 2, 57, 64
6, 61440, Control_c, 2, 86, 37
6, 61920, Note_on_c, 2, 53, 87
6, 61920, Note_on_c, 2, 57, 82
6, 61920, Note_on_c, 2, 62, 91
6, 62304, Note_off_c, 2, 62, 64
6, 62304, Note_off_c, 2, 57, 64
6, 62304, Note_off_c, 2, 53, 64
6, 62400, Note_on_c, 2, 53, 90
6, 62400, Note_on_c, 2, 57, 85
6, 62400, Note_on_c, 2, 62, 77
6, 62860, Note_off_c, 2, 62, 64
6, 62860, Note_off_c, 2, 57, 64
6, 62860, Note_off_c, 2, 53, 64
6, 62880, Control_c, 2, 86, 37
6, 63360, Note_on_c, 2, 57, 92
6, 63360, Note_on_c, 2, 60, 102
6, 63360, Note_on_c, 2, 65, 81
6, 63744, Note_off_c, 2, 65, 64
6, 63744, Note_off_c, 2, 60, 64
6, 63744, Note_off_c, 2, 57, 64
6, 63840, Note_on_c, 2, 57, 89
6, 63840, Note_on_c, 2, 60, 103
6, 63840, Note_on_c, 2, 65, 90
6, 64032, Note_off_c, 2, 65, 64
6, 64032, Note_off_c, 2, 60, 64
6, 64032, Note_off_c, 2, 57, 64
6, 64080, Note_on_c, 2, 57, 92
6, 64080, Note_on_c, 2, 60, 98
6, 64080, Note_on_c, 2, 65, 93
6, 64464, Note_off_c, 2, 65, 64
6, 64464, Note_off_c, 2, 60, 64
6, 64464, Note_off_c, 2, 57, 64
6, 64560, Note_on_c, 2, 57, 87
6, 64560, Note_on_c, 2, 60, 90
6, 64560, Note_on_c, 2, 65, 94
6, 64752, Note_off_c, 2, 65, 64
6, 64752, Note_off_c, 2, 60, 64
6, 64752, Note_off_c, 2, 57, 64
6, 64800, Note_on_c, 2, 57, 90
6, 64800, Note_on_c, 2, 60, 83
6, 64800, Note_on_c, 2, 65, 90
6, 65184, Note_off_c, 2, 65, 64
6, 65260, Note_off_c, 2, 60, 64
6, 65260, Note_off_c, 2, 57, 64
6, 65280, Control_c, 2, 86, 37
6, 65760, Note_on_c, 2, 53, 90
6, 65760, Note_on_c, 2, 57, 90
6, 65760, Note_on_c, 2, 62, 86
6, 66144, Note_off_c, 2, 62, 64
6, 66144, Note_off_c, 2, 57, 64
6, 66144, Note_off_c, 2, 53, 64
6, 66240, Note_on_c, 2, 53, 77
6, 66240, Note_on_c, 2, 57, 92
6, 66240, Note_on_c, 2, 62, 88
6, 66700, Note_off_c, 2, 62, 64
6, 66700, Note_off_c, 2, 57, 64
6, 66700, Note_off_c, 2, 53, 64
6, 66720, Control_c, 2, 86, 37
6, 67200, Note_on_c, 2, 55, 101
6, 67200, Note_on_c, 2, 58, 95
6, 67200, Note_on_c, 2, 64, 90
6, 67584, Note_off_c, 2, 64, 64
6, 67584, Note_off_c, 2, 58, 64
6, 67584, Note_off_c, 2, 55, 64
6, 67680, Note_on_c, 2, 58, 78
6, 67680, Note_on_c, 2, 62, 89
6, 67680, Note_on_c, 2, 65, 88
6, 68064, Note_off_c, 2, 65, 64
6, 68064, Note_off_c, 2, 62, 64
6, 68064, Note_off_c, 2, 58, 64
6, 68160, Note_on_c, 2, 58, 96
6, 68160, Note_on_c, 2, 64, 93
6, 68160, Note_on_c, 2, 67, 79
6, 68544, Note_off_c, 2, 67, 64
6, 68544, Note_off_c, 2, 64, 64
6, 68544, Note_off_c, 2, 58, 64
6, 68640, Note_on_c, 2, 60, 92
6, 68640, Note_on_c, 2, 64, 86
6, 68640, Note_on_c, 2, 69, 90
6, 69024, Note_off_c, 2, 69, 64
6, 69024, Note_off_c, 2, 64, 64
6, 69024, Note_off_c, 2, 60, 64
6, 69120, Note_on_c, 2, 62, 90
6, 69120, Note_on_c, 2, 65, 89
6, 69120, Note_on_c, 2, 70, 84
6, 69504, Note_off_c, 2, 70, 64
6, 69504, Note_off_c, 2, 65, 64
6, 69504, Note_off_c, 2, 62, 64
6, 69600, Note_on_c, 2, 58, 90
6, 69600, Note_on_c, 2, 62, 88
6, 69600, Note_on_c, 2, 69, 90
6, 69792, Note_off_c, 2, 69, 64
6, 69792, Note_off_c, 2, 62, 64
6, 69792, Note_off_c, 2, 58, 64
6, 69840, Note_on_c, 2, 58, 76
6, 69840, Note_on_c, 2, 62, 89
6, 69840, Note_on_c, 2, 67, 85
6, 70512, Note_off_c, 2, 67, 64
6, 70512, Note_off_c, 2, 62, 64
6, 70512, Note_off_c, 2, 58, 64
6, 70560, Note_on_c, 2, 58, 92
6, 70560, Note_on_c, 2, 62, 90
6, 70944, Note_off_c, 2, 62, 64
6, 70944, Note_off_c, 2, 58, 64
6, 71040, Note_on_c, 2, 60, 90
6, 71040, Note_on_c, 2, 65, 82
6, 71040, Note_on_c, 2, 70, 93
6, 71232, Note_off_c, 2, 70, 64
6, 71232, Note_off_c, 2, 65, 64
6, 71232, Note_off_c, 2, 60, 64
6, 71280, Note_on_c, 2, 58, 92
6, 71280, Note_on_c, 2, 64, 85
6, 71280, Note_on_c, 2, 67, 90
6, 72624, Note_off_c, 2, 67, 64
6, 72624, Note_off_c, 2, 64, 64
6, 72624, Note_off_c, 2, 58, 64
6, 72960, Note_on_c, 2, 58, 103
6, 72960, Note_on_c, 2, 62, 93
6, 73344, Note_off_c, 2, 62, 64
6, 73344, Note_off_c, 2, 58, 64
6, 73440, Note_on_c, 2, 58, 102
6, 73440, Note_on_c, 2, 62, 103
6, 73632, Note_off_c, 2, 62, 64
6, 73632, Note_off_c, 2, 58, 64
6, 73680, Note_on_c, 2, 58, 91
6, 73680, Note_on_c, 2, 62, 92
6, 74256, Note_off_c, 2, 62, 64
6, 74256, Note_off_c, 2, 58, 64
6, 74400, Note_on_c, 2, 58, 93
6, 74400, Note_on_c, 2, 62, 90
6, 74400, Note_on_c, 2, 65, 90
6, 74784, Note_off_c, 2, 65, 64
6, 74784, Note_off_c, 2, 62, 64
6, 74784, Note_off_c, 2, 58, 64
6, 74880, Note_on_c, 2, 55, 79
6, 74880, Note_on_c, 2, 58, 81
6, 74880, Note_on_c, 2, 64, 94
6, 75264, Note_off_c, 2, 64, 64
6, 75264, Note_off_c, 2, 58, 64
6, 75264, Note_off_c, 2, 55, 64
6, 75360, Note_on_c, 2, 58, 84
6, 75360, Note_on_c, 2, 62, 81
6, 75360, Note_on_c, 2, 65, 101
6, 75744, Note_off_c, 2, 65, 64
6, 75744, Note_off_c, 2, 62, 64
6, 75744, Note_off_c, 2, 58, 64
6, 75840, Note_on_c, 2, 58, 87
6, 75840, Note_on_c, 2, 64, 78
6, 75840, Note_on_c, 2, 67, 85
6, 76224, Note_off_c, 2, 67, 64
6, 76224, Note_off_c, 2, 64, 64
6, 76224, Note_off_c, 2, 58, 64
6, 76320, Note_on_c, 2, 60, 95
6, 76320, Note_on_c, 2, 64, 89
6, 76320, Note_on_c, 2, 69, 80
6, 76704, Note_off_c, 2, 69, 64
6, 76704, Note_off_c, 2, 64, 64
6, 76704, Note_off_c, 2, 60, 64
6, 76800, Note_on_c, 2, 62, 96
6, 76800, Note_on_c, 2, 65, 91
6, 76800, Note_on_c, 2, 70, 91
6, 77184, Note_off_c, 2, 70, 64
6, 77184, Note_off_c, 2, 65, 64
6, 77184, Note_off_c, 2, 62, 64
6, 77280, Note_on_c, 2, 58, 90
6, 77280, Note_on_c, 2, 62, 93
6, 77280, Note_on_c, 2, 69, 86
6, 77472, Note_off_c, 2, 69, 64
6, 77472, Note_off_c, 2, 62, 64
6, 77472, Note_off_c, 2, 58, 64
6, 77520, Note_on_c, 2, 58, 90
6, 77520, Note_on_c, 2, 62, 104
6, 77520, Note_on_c, 2, 67, 97
6, 78096, Note_off_c, 2, 67, 64
6, 78096, Note_off_c, 2, 62, 64
6, 78096, Note_off_c, 2, 58, 64
6, 78240, Note_on_c, 2, 58, 90
6, 78240, Note_on_c, 2, 62, 90
6, 78240, Note_on_c, 2, 69, 88
6, 78700, Note_off_c, 2, 69, 64
6, 78720, Control_c, 2, 86, 37
6, 79008, Note_off_c, 2, 62, 64
6, 79008, Note_off_c, 2, 58, 64
6, 79200, Note_on_c, 2, 58, 75
6, 79200, Note_on_c, 2, 64, 84
6, 80620, Note_off_c, 2, 64, 64
6, 80640, Control_c, 2, 86, 37
6, 80736, Note_off_c, 2, 58, 64
6, 81120, Note_on_c, 2, 58, 101
6, 81120, Note_on_c, 2, 62, 91
6, 82272, Note_off_c, 2, 62, 64
6, 82272, Note_off_c, 2, 58, 64
6, 82560, Note_on_c, 2, 55, 96
6, 82560, Note_on_c, 2, 58, 85
6, 82560, Note_on_c, 2, 64, 90
6, 82944, Note_off_c, 2, 64, 64
6, 82944, Note_off_c, 2, 58, 64
6, 82944, Note_off_c, 2, 55, 64
6, 83040, Note_on_c, 2, 58, 92
6, 83040, Note_on_c, 2, 62, 89
6, 83040, Note_on_c, 2, 65, 91
6, 83424, Note_off_c, 2, 65, 64
6, 83424, Note_off_c, 2, 62, 64
6, 83424, Note_off_c, 2, 58, 64
6, 83520, Note_on_c, 2, 58, 85
6, 83520, Note_on_c, 2, 64, 89
6, 83520, Note_on_c, 2, 67, 90
6, 83904, Note_off_c, 2, 67, 64
6, 83904, Note_off_c, 2, 64, 64
6, 83904, Note_off_c, 2, 58, 64
6, 84000, Note_on_c, 2, 60, 89
6, 84000, Note_on_c, 2, 64, 83
6, 84000, Note_on_c, 2, 69, 93
6, 84384, Note_off_c, 2, 69, 64
6, 84384, Note_off_c, 2, 64, 64
6, 84384, Note_off_c, 2, 60, 64
6, 84480, Note_on_c, 2, 62, 82
6, 84480, Note_on_c, 2, 65, 99
6, 84480, Note_on_c, 2, 70, 77
6, 84864, Note_off_c, 2, 70, 64
6, 84864, Note_off_c, 2, 65, 64
6, 84864, Note_off_c, 2, 62, 64
6, 84960, Note_on_c, 2, 58, 91
6, 84960, Note_on_c, 2, 62, 95
6, 84960, Note_on_c, 2, 69, 78
6, 85152, Note_off_c, 2, 69, 64
6, 85152, Note_off_c, 2, 62, 64
6, 85152, Note_off_c, 2, 58, 64
6, 85200, Note_on_c, 2, 58, 91
6, 85200, Note_on_c, 2, 62, 84
6, 85200, Note_on_c, 2, 67, 99
6, 85776, Note_off_c, 2, 67, 64
6, 85776, Note_off_c, 2, 62, 64
6, 85776, Note_off_c, 2, 58, 64
6, 85920, Note_on_c, 2, 58, 91
6, 85920, Note_on_c, 2, 62, 94
6, 86304, Note_off_c, 2, 62, 64
6, 86304, Note_off_c, 2, 58, 64
6, 86400, Note_on_c, 2, 60, 92
6, 86400, Note_on_c, 2, 64, 98
6, 86400, Note_on_c, 2, 70, 83
6, 86592, Note_off_c, 2, 70, 64
6, 86592, Note_off_c, 2, 64, 64
6, 86592, Note_off_c, 2, 60, 64
6, 86640, Note_on_c, 2, 58, 85
6, 86640, Note_on_c, 2, 64, 89
6, 86640, Note_on_c, 2, 67, 97
6, 87984, Note_off_c, 2, 67, 64
6, 87984, Note_off_c, 2, 64, 64
6, 87984, Note_off_c, 2, 58, 64
6, 88320, Note_on_c, 2, 58, 84
6, 88320, Note_on_c, 2, 62, 91
6, 88704, Note_off_c, 2, 62, 64
6, 88704, Note_off_c, 2, 58, 64
6, 88800, Note_on_c, 2, 58, 85
6, 88800, Note_on_c, 2, 62, 96
6, 89184, Note_off_c, 2, 62, 64
6, 89184, Note_off_c, 2, 58, 64
6, 89280, Note_on_c, 2, 58, 102
6, 89280, Note_on_c, 2, 62, 93
6, 89664, Note_off_c, 2, 62, 64
6, 89664, Note_off_c, 2, 58, 64
6, 89760, Note_on_c, 2, 58, 79
6, 89760, Note_on_c, 2, 62, 90
6, 90144, Note_off_c, 2, 62, 64
6, 90144, Note_off_c, 2, 58, 64
6, 90240, Note_on_c, 2, 64, 102
6, 90240, Note_on_c, 2, 55, 80
6, 90240, Note_on_c, 2, 58, 90
6, 90624, Note_off_c, 2, 58, 64
6, 90624, Note_off_c, 2, 55, 64
6, 90624, Note_off_c, 2, 64, 64
6, 90720, Note_on_c, 2, 58, 89
6, 90720, Note_on_c, 2, 62, 95
6, 90720, Note_on_c, 2, 65, 98
6, 91104, Note_off_c, 2, 65, 64
6, 91104, Note_off_c, 2, 62, 64
6, 91104, Note_off_c, 2, 58, 64
6, 91200, Note_on_c, 2, 58, 86
6, 91200, Note_on_c, 2, 64, 98
6, 91200, Note_on_c, 2, 67, 97
6, 91584, Note_off_c, 2, 67, 64
6, 91584, Note_off_c, 2, 64, 64
6, 91584, Note_off_c, 2, 58, 64
6, 91680, Note_on_c, 2, 60, 90
6, 91680, Note_on_c, 2, 64, 99
6, 91680, Note_on_c, 2, 69, 87
6, 92064, Note_off_c, 2, 69, 64
6, 92064, Note_off_c, 2, 64, 64
6, 92064, Note_off_c, 2, 60, 64
6, 92160, Note_on_c, 2, 58, 98
6, 92160, Note_on_c, 2, 65, 96
6, 92160, Note_on_c, 2, 70, 94
6, 92544, Note_off_c, 2, 70, 64
6, 92544, Note_off_c, 2, 65, 64
6, 92544, Note_off_c, 2, 58, 64
6, 92640, Note_on_c, 2, 58, 100
6, 92640, Note_on_c, 2, 62, 96
6, 92640, Note_on_c, 2, 69, 93
6, 92832, Note_off_c, 2, 69, 64
6, 92832, Note_off_c, 2, 62, 64
6, 92832, Note_off_c, 2, 58, 64
6, 92880, Note_on_c, 2, 58, 100
6, 92880, Note_on_c, 2, 62, 89
6, 92880, Note_on_c, 2, 67, 86
6, 93456, Note_off_c, 2, 67, 64
6, 93456, Note_off_c, 2, 62, 64
6, 93456, Note_off_c, 2, 58, 64
6, 93600, Note_on_c, 2, 58, 76
6, 93600, Note_on_c, 2, 62, 89
6, 93600, Note_on_c, 2, 65, 96
6, 93984, Note_off_c, 2, 65, 64
6, 93984, Note_off_c, 2, 62, 64
6, 93984, Note_off_c, 2, 58, 64
6, 94080, Note_on_c, 2, 57, 99
6, 94080, Note_on_c, 2, 60, 96
6, 94464, Note_off_c, 2, 60, 64
6, 94464, Note_off_c, 2, 57, 64
6, 94560, Note_on_c, 2, 57, 90
6, 94560, Note_on_c, 2, 60, 89
6, 94752, Note_off_c, 2, 60, 64
6, 94752, Note_off_c, 2, 57, 64
6, 94800, Note_on_c, 2, 57, 94
6, 94800, Note_on_c, 2, 60, 77
6, 95184, Note_off_c, 2, 60, 64
6, 95184, Note_off_c, 2, 57, 64
6, 95280, Note_on_c, 2, 57, 103
6, 95280, Note_on_c, 2, 60, 87
6, 95472, Note_off_c, 2, 60, 64
6, 95472, Note_off_c, 2, 57, 64
6, 95520, Note_on_c, 2, 57, 91
6, 95520, Note_on_c, 2, 60, 81
6, 95980, Note_off_c, 2, 60, 64
6, 95980, Note_off_c, 2, 57, 64
6, 96000, Control_c, 2, 86, 37
6, 96480, Note_on_c, 2, 53, 87
6, 96480, Note_on_c, 2, 57, 78
6, 96480, Note_on_c, 2, 62, 90
6, 96864, Note_off_c, 2, 62, 64
6, 96864, Note_off_c, 2, 57, 64
6, 96864, Note_off_c, 2, 53, 64
6, 96960, Note_on_c, 2, 53, 90
6, 96960, Note_on_c, 2, 57, 90
6, 96960, Note_on_c, 2, 62, 91
6, 97420, Note_off_c, 2, 62, 64
6, 97420, Note_off_c, 2, 57, 64
6, 97420, Note_off_c, 2, 53, 64
6, 97440, Control_c, 2, 86, 37
6, 97920, Note_on_c, 2, 57, 91
6, 97920, Note_on_c, 2, 60, 84
6, 97920, Note_on_c, 2, 65, 87
6, 98304, Note_off_c, 2, 65, 64
6, 98304, Note_off_c, 2, 60, 64
6, 98304, Note_off_c, 2, 57, 64
6, 98400, Note_on_c, 2, 57, 88
6, 98400, Note_on_c, 2, 60, 90
6, 98400, Note_on_c, 2, 65, 89
6, 98592, Note_off_c, 2, 65, 64
6, 98592, Note_off_c, 2, 60, 64
6, 98592, Note_off_c, 2, 57, 64
6, 98640, Note_on_c, 2, 57, 91
6, 98640, Note_on_c, 2, 60, 103
6, 98640, Note_on_c, 2, 65, 103
6, 99024, Note_off_c, 2, 65, 64
6, 99024, Note_off_c, 2, 60, 64
6, 99024, Note_off_c, 2, 57, 64
6, 99120, Note_on_c, 2, 57, 77
6, 99120, Note_on_c, 2, 60, 88
6, 99120, Note_on_c, 2, 65, 97
6, 99312, Note_off_c, 2, 65, 64
6, 99312, Note_off_c, 2, 60, 64
6, 99312, Note_off_c, 2, 57, 64
6, 99360, Note_on_c, 2, 57, 85
6, 99360, Note_on_c, 2, 60, 96
6, 99360, Note_on_c, 2, 65, 102
6, 99744, Note_off_c, 2, 65, 64
6, 99744, Note_off_c, 2, 60, 64
6, 99744, Note_off_c, 2, 57, 64
6, 99840, Note_on_c, 2, 53, 95
6, 99840, Note_on_c, 2, 57, 86
6, 99840, Note_on_c, 2, 62, 89
6, 100224, Note_off_c, 2, 62, 64
6, 100224, Note_off_c, 2, 57, 64
6, 100224, Note_off_c, 2, 53, 64
6, 100320, Note_on_c, 2, 62, 88
6, 100704, Note_off_c, 2, 62, 64
6, 100800, Note_on_c, 2, 62, 103
6, 101184, Note_off_c, 2, 62, 64
6, 101280, Note_on_c, 2, 65, 98
6, 101740, Note_off_c, 2, 65, 64
6, 101760, Control_c, 2, 86, 37
6, 102240, Note_on_c, 2, 57, 99
6, 102240, Note_on_c, 2, 60, 94
6, 102432, Note_off_c, 2, 60, 64
6, 102432, Note_off_c, 2, 57, 64
6, 102480, Note_on_c, 2, 57, 85
6, 102480, Note_on_c, 2, 60, 87
6, 102864, Note_off_c, 2, 60, 64
6, 102864, Note_off_c, 2, 57, 64
6, 102960, Note_on_c, 2, 57, 103
6, 102960, Note_on_c, 2, 60, 90
6, 103152, Note_off_c, 2, 60, 64
6, 103152, Note_off_c, 2, 57, 64
6, 103200, Note_on_c, 2, 57, 100
6, 103200, Note_on_c, 2, 60, 78
6, 103660, Note_off_c, 2, 60, 64
6, 103660, Note_off_c, 2, 57, 64
6, 103680, Control_c, 2, 86, 37
6, 104160, Note_on_c, 2, 53, 99
6, 104160, Note_on_c, 2, 57, 91
6, 104160, Note_on_c, 2, 62, 99
6, 104544, Note_off_c, 2, 62, 64
6, 104544, Note_off_c, 2, 57, 64
6, 104544, Note_off_c, 2, 53, 64
6, 104640, Note_on_c, 2, 57, 76
6, 104640, Note_on_c, 2, 62, 89
6, 104640, Note_on_c, 2, 65, 100
6, 105024, Note_off_c, 2, 65, 64
6, 105024, Note_off_c, 2, 62, 64
6, 105024, Note_off_c, 2, 57, 64
6, 105120, Note_on_c, 2, 57, 98
6, 105120, Note_on_c, 2, 64, 78
6, 105120, Note_on_c, 2, 67, 77
6, 105580, Note_off_c, 2, 67, 64
6, 105580, Note_off_c, 2, 64, 64
6, 105580, Note_off_c, 2, 57, 64
6, 105600, Control_c, 2, 86, 37
6, 106080, Note_on_c, 2, 57, 88
6, 106080, Note_on_c, 2, 60, 90
6, 106080, Note_on_c, 2, 65, 102
6, 106272, Note_off_c, 2, 65, 64
6, 106272, Note_off_c, 2, 60, 64
6, 106272, Note_off_c, 2, 57, 64
6, 106320, Note_on_c, 2, 57, 90
6, 106320, Note_on_c, 2, 60, 89
6, 106320, Note_on_c, 2, 65, 90
6, 106704, Note_off_c, 2, 65, 64
6, 106704, Note_off_c, 2, 60, 64
6, 106704, Note_off_c, 2, 57, 64
6, 106800, Note_on_c, 2, 57, 78
6, 106800, Note_on_c, 2, 60, 79
6, 106800, Note_on_c, 2, 65, 93
6, 106992, Note_off_c, 2, 65, 64
6, 106992, Note_off_c, 2, 60, 64
6, 106992, Note_off_c, 2, 57, 64
6, 107040, Note_on_c, 2, 57, 98
6, 107040, Note_on_c, 2, 60, 105
6, 107040, Note_on_c, 2, 65, 80
6, 107500, Note_off_c, 2, 65, 64
6, 107500, Note_off_c, 2, 60, 64
6, 107500, Note_off_c, 2, 57, 64
6, 107520, Control_c, 2, 86, 37
6, 108000, Note_on_c, 2, 57, 77
6, 108000, Note_on_c, 2, 62, 99
6, 108000, Note_on_c, 2, 65, 101
6, 108384, Note_off_c, 2, 65, 64
6, 108384, Note_off_c, 2, 62, 64
6, 108384, Note_off_c, 2, 57, 64
6, 108480, Note_on_c, 2, 62, 85
6, 108480, Note_on_c, 2, 65, 78
6, 108480, Note_on_c, 2, 69, 96
6, 108864, Note_off_c, 2, 69, 64
6, 108864, Note_off_c, 2, 65, 64
6, 108864, Note_off_c, 2, 62, 64
6, 108960, Note_on_c, 2, 62, 84
6, 108960, Note_on_c, 2, 65, 89
6, 108960, Note_on_c, 2, 70, 83
6, 109420, Note_off_c, 2, 70, 64
6, 109440, Control_c, 2, 86, 37
6, 109728, Note_off_c, 2, 65, 64
6, 109728, Note_off_c, 2, 62, 64
6, 109920, Note_on_c, 2, 65, 75
6, 109920, Note_on_c, 2, 69, 94
6, 110304, Note_off_c, 2, 69, 64
6, 110304, Note_off_c, 2, 65, 64
6, 110400, Note_on_c, 2, 72, 81
6, 110784, Note_off_c, 2, 72, 64
6, 110880, Note_on_c, 2, 60, 97
6, 110880, Note_on_c, 2, 65, 90
6, 110880, Note_on_c, 2, 69, 98
6, 111264, Note_off_c, 2, 69, 64
6, 111264, Note_off_c, 2, 65, 64
6, 111264, Note_off_c, 2, 60, 64
6, 111360, Note_on_c, 2, 57, 90
6, 111360, Note_on_c, 2, 64, 90
6, 111360, Note_on_c, 2, 67, 90
6, 111744, Note_off_c, 2, 67, 64
6, 111744, Note_off_c, 2, 64, 64
6, 111744, Note_off_c, 2, 57, 64
6, 111840, Note_on_c, 2, 57, 93
6, 111840, Note_on_c, 2, 62, 104
6, 111840, Note_on_c, 2, 65, 90
6, 112032, Note_off_c, 2, 65, 64
6, 112032, Note_off_c, 2, 62, 64
6, 112032, Note_off_c, 2, 57, 64
6, 112080, Note_on_c, 2, 57, 85
6, 112080, Note_on_c, 2, 62, 92
6, 112080, Note_on_c, 2, 65, 92
6, 113260, Note_off_c, 2, 65, 64
6, 113260, Note_off_c, 2, 62, 64
6, 113260, Note_off_c, 2, 57, 64
6, 113280, Control_c, 2, 86, 37
6, 113760, Note_on_c, 2, 65, 78
6, 113760, Note_on_c, 2, 69, 79
6, 114144, Note_off_c, 2, 69, 64
6, 114144, Note_off_c, 2, 65, 64
6, 114240, Note_on_c, 2, 72, 77
6, 114624, Note_off_c, 2, 72, 64
6, 114720, Note_on_c, 2, 60, 94
6, 114720, Note_on_c, 2, 65, 90
6, 114720, Note_on_c, 2, 69, 90
6, 115104, Note_off_c, 2, 69, 64
6, 115104, Note_off_c, 2, 65, 64
6, 115104, Note_off_c, 2, 60, 64
6, 115200, Note_on_c, 2, 57, 100
6, 115200, Note_on_c, 2, 64, 102
6, 115200, Note_on_c, 2, 67, 92
6, 115584, Note_off_c, 2, 67, 64
6, 115584, Note_off_c, 2, 64, 64
6, 115584, Note_off_c, 2, 57, 64
6, 115680, Note_on_c, 2, 57, 84
6, 115680, Note_on_c, 2, 62, 104
6, 115680, Note_on_c, 2, 65, 90
6, 115872, Note_off_c, 2, 65, 64
6, 115872, Note_off_c, 2, 62, 64
6, 115872, Note_off_c, 2, 57, 64
6, 115920, Note_on_c, 2, 57, 91
6, 115920, Note_on_c, 2, 62, 102
6, 115920, Note_on_c, 2, 65, 93
6, 117100, Note_off_c, 2, 65, 64
6, 117100, Note_off_c, 2, 62, 64
6, 117100, Note_off_c, 2, 57, 64
6, 117120, Control_c, 2, 86, 37
6, 117600, Note_on_c, 2, 57, 85
6, 117600, Note_on_c, 2, 62, 87
6, 117600, Note_on_c, 2, 65, 86
6, 117792, Note_off_c, 2, 65, 64
6, 117792, Note_off_c, 2, 62, 64
6, 117792, Note_off_c, 2, 57, 64
6, 117840, Note_on_c, 2, 67, 77
6, 118032, Note_off_c, 2, 67, 64
6, 118080, Note_on_c, 2, 65, 103
6, 118464, Note_off_c, 2, 65, 64
6, 118560, Note_on_c, 2, 53, 91
6, 118560, Note_on_c, 2, 57, 89
6, 118560, Note_on_c, 2, 62, 96
6, 119020, Note_off_c, 2, 62, 64
6, 119020, Note_off_c, 2, 57, 64
6, 119020, Note_off_c, 2, 53, 64
6, 119040, Control_c, 2, 86, 37
6, 119520, Note_on_c, 2, 62, 98
6, 119520, Note_on_c, 2, 58, 90
6, 119712, Note_off_c, 2, 58, 64
6, 119712, Note_off_c, 2, 62, 64
6, 119760, Note_on_c, 2, 58, 93
6, 119760, Note_on_c, 2, 62, 88
6, 120144, Note_off_c, 2, 62, 64
6, 120144, Note_off_c, 2, 58, 64
6, 120240, Note_on_c, 2, 58, 104
6, 120240, Note_on_c, 2, 62, 103
6, 120432, Note_off_c, 2, 62, 64
6, 120432, Note_off_c, 2, 58, 64
6, 120480, Note_on_c, 2, 58, 81
6, 120480, Note_on_c, 2, 62, 99
6, 120864, Note_off_c, 2, 62, 64
6, 120864, Note_off_c, 2, 58, 64
6, 120960, Note_on_c, 2, 58, 90
6, 120960, Note_on_c, 2, 64, 79
6, 121344, Note_off_c, 2, 64, 64
6, 121344, Note_off_c, 2, 58, 64
6, 121440, Note_on_c, 2, 60, 90
6, 121632, Note_off_c, 2, 60, 64
6, 121680, Note_on_c, 2, 60, 100
6, 121872, Note_off_c, 2, 60, 64
6, 121920, Note_on_c, 2, 58, 89
6, 121920, Note_on_c, 2, 64, 90
6, 122304, Note_off_c, 2, 64, 64
6, 122304, Note_off_c, 2, 58, 64
6, 122400, Note_on_c, 2, 58, 88
6, 122400, Note_on_c, 2, 64, 90
6, 122400, Note_on_c, 2, 67, 96
6, 122784, Note_off_c, 2, 67, 64
6, 122784, Note_off_c, 2, 64, 64
6, 122784, Note_off_c, 2, 58, 64
6, 122880, Note_on_c, 2, 57, 79
6, 122880, Note_on_c, 2, 60, 92
6, 123264, Note_off_c, 2, 60, 64
6, 123264, Note_off_c, 2, 57, 64
6, 123360, Note_on_c, 2, 57, 90
6, 123360, Note_on_c, 2, 60, 98
6, 123552, Note_off_c, 2, 60, 64
6, 123552, Note_off_c, 2, 57, 64
6, 123600, Note_on_c, 2, 57, 88
6, 123600, Note_on_c, 2, 60, 94
6, 123984, Note_off_c, 2, 60, 64
6, 123984, Note_off_c, 2, 57, 64
6, 124080, Note_on_c, 2, 57, 80
6, 124080, Note_on_c, 2, 60, 84
6, 124272, Note_off_c, 2, 60, 64
6, 124272, Note_off_c, 2, 57, 64
6, 124320, Note_on_c, 2, 57, 89
6, 124320, Note_on_c, 2, 60, 85
6, 124780, Note_off_c, 2, 60, 64
6, 124780, Note_off_c, 2, 57, 64
6, 124800, Control_c, 2, 86, 37
6, 125280, Note_on_c, 2, 53, 97
6, 125280, Note_on_c, 2, 57, 93
6, 125280, Note_on_c, 2, 62, 90
6, 125664, Note_off_c, 2, 62, 64
6, 125664, Note_off_c, 2, 57, 64
6, 125664, Note_off_c, 2, 53, 64
6, 125760, Note_on_c, 2, 53, 102
6, 125760, Note_on_c, 2, 57, 90
6, 125760, Note_on_c, 2, 62, 76
6, 126220, Note_off_c, 2, 62, 64
6, 126220, Note_off_c, 2, 57, 64
6, 126220, Note_off_c, 2, 53, 64
6, 126240, Control_c, 2, 86, 37
6, 126720, Note_on_c, 2, 57, 99
6, 126720, Note_on_c, 2, 60, 92
6, 126720, Note_on_c, 2, 65, 105
6, 127104, Note_off_c, 2, 65, 64
6, 127104, Note_off_c, 2, 60, 64
6, 127104, Note_off_c, 2, 57, 64
6, 127200, Note_on_c, 2, 57, 88
6, 127200, Note_on_c, 2, 60, 94
6, 127200, Note_on_c, 2, 65, 90
6, 127392, Note_off_c, 2, 65, 64
6, 127392, Note_off_c, 2, 60, 64
6, 127392, Note_off_c, 2, 57, 64
6, 127440, Note_on_c, 2, 57, 87
6, 127440, Note_on_c, 2, 60, 99
6, 127440, Note_on_c, 2, 65, 94
6, 127824, Note_off_c, 2, 65, 64
6, 127824, Note_off_c, 2, 60, 64
6, 127824, Note_off_c, 2, 57, 64
6, 127920, Note_on_c, 2, 57, 90
6, 127920, Note_on_c, 2, 60, 95
6, 127920, Note_on_c, 2, 65, 78
6, 128112, Note_off_c, 2, 65, 64
6, 128112, Note_off_c, 2, 60, 64
6, 128112, Note_off_c, 2, 57, 64
6, 128160, Note_on_c, 2, 57, 90
6, 128160, Note_on_c, 2, 60, 89
6, 128160, Note_on_c, 2, 65, 90
6, 128544, Note_off_c, 2, 65, 64
6, 128544, Note_off_c, 2, 60, 64
6, 128544, Note_off_c, 2, 57, 64
6, 128640, Note_on_c, 2, 53, 92
6, 128640, Note_on_c, 2, 57, 90
6, 128640, Note_on_c, 2, 62, 102
6, 129100, Note_off_c, 2, 62, 64
6, 129100, Note_off_c, 2, 57, 64
6, 129100, Note_off_c, 2, 53, 64
6, 129120, Control_c, 2, 86, 37
6, 129600, Note_on_c, 2, 62, 86
6, 129792, Note_off_c, 2, 62, 64
6, 129840, Note_on_c, 2, 65, 94
6, 130032, Note_off_c, 2, 65, 64
6, 130080, Note_on_c, 2, 65, 87
6, 130464, Note_off_c, 2, 65, 64
6, 131040, Note_on_c, 2, 57, 91
6, 131040, Note_on_c, 2, 60, 90
6, 131232, Note_off_c, 2, 60, 64
6, 131232, Note_off_c, 2, 57, 64
6, 131280, Note_on_c, 2, 57, 83
6, 131280, Note_on_c, 2, 60, 90
6, 131664, Note_off_c, 2, 60, 64
6, 131664, Note_off_c, 2, 57, 64
6, 131760, Note_on_c, 2, 57, 89
6, 131760, Note_on_c, 2, 60, 90
6, 131952, Note_off_c, 2, 60, 64
6, 131952, Note_off_c, 2, 57, 64
6, 132000, Note_on_c, 2, 57, 86
6, 132000, Note_on_c, 2, 60, 82
6, 132460, Note_off_c, 2, 60, 64
6, 132460, Note_off_c, 2, 57, 64
6, 134400, Control_c, 2, 86, 37
6, 134880, Note_on_c, 2, 57, 97
6, 134880, Note_on_c, 2, 60, 83
6, 134880, Note_on_c, 2, 65, 89
6, 135072, Note_off_c, 2, 65, 64
6, 135072, Note_off_c, 2, 60, 64
6, 135072, Note_off_c, 2, 57, 64
6, 135120, Note_on_c, 2, 57, 90
6, 135120, Note_on_c, 2, 60, 90
6, 135120, Note_on_c, 2, 65, 87
6, 135504, Note_off_c, 2, 65, 64
6, 135504, Note_off_c, 2, 60, 64
6, 135504, Note_off_c, 2, 57, 64
6, 135600, Note_on_c, 2, 57, 98
6, 135600, Note_on_c, 2, 60, 104
6, 135600, Note_on_c, 2, 65, 99
6, 135792, Note_off_c, 2, 65, 64
6, 135792, Note_off_c, 2, 60, 64
6, 135792, Note_off_c, 2, 57, 64
6, 135840, Note_on_c, 2, 57, 89
6, 135840, Note_on_c, 2, 60, 90
6, 135840, Note_on_c, 2, 65, 82
6, 136300, Note_off_c, 2, 65, 64
6, 136300, Note_off_c, 2, 60, 64
6, 136300, Note_off_c, 2, 57, 64
6, 138240, Control_c, 2, 86, 37
6, 138720, Note_on_c, 2, 65, 79
6, 138720, Note_on_c, 2, 69, 86
6, 139104, Note_off_c, 2, 69, 64
6, 139104, Note_off_c, 2, 65, 64
6, 139200, Note_on_c, 2, 72, 87
6, 139584, Note_off_c, 2, 72, 64
6, 139680, Note_on_c, 2, 60, 81
6, 139680, Note_on_c, 2, 65, 101
6, 139680, Note_on_c, 2, 69, 86
6, 140064, Note_off_c, 2, 69, 64
6, 140064, Note_off_c, 2, 65, 64
6, 140064, Note_off_c, 2, 60, 64
6, 140160, Note_on_c, 2, 57, 90
6, 140160, Note_on_c, 2, 64, 81
6, 140160, Note_on_c, 2, 67, 89
6, 140544, Note_off_c, 2, 67, 64
6, 140544, Note_off_c, 2, 64, 64
6, 140544, Note_off_c, 2, 57, 64
6, 140640, Note_on_c, 2, 57, 91
6, 140640, Note_on_c, 2, 62, 88
6, 140640, Note_on_c, 2, 65, 92
6, 140832, Note_off_c, 2, 65, 64
6, 140832, Note_off_c, 2, 62, 64
6, 140832, Note_off_c, 2, 57, 64
6, 140880, Note_on_c, 2, 57, 89
6, 140880, Note_on_c, 2, 62, 94
6, 140880, Note_on_c, 2, 65, 77
6, 141840, Note_off_c, 2, 65, 64
6, 141840, Note_off_c, 2, 62, 64
6, 141840, Note_off_c, 2, 57, 64
6, 142080, Note_on_c, 2, 72, 90
6, 142464, Note_off_c, 2, 72, 64
6, 142560, Note_on_c, 2, 65, 75
6, 142560, Note_on_c, 2, 69, 94
6, 142560, Note_on_c, 2, 74, 95
6, 142944, Note_off_c, 2, 74, 64
6, 142944, Note_off_c, 2, 69, 64
6, 142944, Note_off_c, 2, 65, 64
6, 143040, Note_on_c, 2, 72, 90
6, 143424, Note_off_c, 2, 72, 64
6, 143520, Note_on_c, 2, 60, 103
6, 143520, Note_on_c, 2, 65, 90
6, 143520, Note_on_c, 2, 69, 90
6, 143904, Note_off_c, 2, 69, 64
6, 143904, Note_off_c, 2, 65, 64
6, 143904, Note_off_c, 2, 60, 64
6, 144000, Note_on_c, 2, 57, 90
6, 144000, Note_on_c, 2, 64, 93
6, 144000, Note_on_c, 2, 67, 83
6, 144384, Note_off_c, 2, 67, 64
6, 144384, Note_off_c, 2, 64, 64
6, 144384, Note_off_c, 2, 57, 64
6, 144480, Note_on_c, 2, 57, 100
6, 144480, Note_on_c, 2, 62, 101
6, 144480, Note_on_c, 2, 65, 84
6, 144672, Note_off_c, 2, 65, 64
6, 144672, Note_off_c, 2, 62, 64
6, 144672, Note_off_c, 2, 57, 64
6, 144720, Note_on_c, 2, 57, 94
6, 144720, Note_on_c, 2, 62, 90
6, 144720, Note_on_c, 2, 65, 97
6, 145900, Note_off_c, 2, 65, 64
6, 145900, Note_off_c, 2, 62, 64
6, 145900, Note_off_c, 2, 57, 64
6, 145920, Control_c, 2, 86, 37
6, 146400, Note_on_c, 2, 57, 90
6, 146400, Note_on_c, 2, 62, 83
6, 146784, Note_off_c, 2, 62, 64
6, 146784, Note_off_c, 2, 57, 64
6, 146880, Note_on_c, 2, 65, 85
6, 147264, Note_off_c, 2, 65, 64
6, 147360, Note_on_c, 2, 53, 91
6, 147360, Note_on_c, 2, 57, 90
6, 147360, Note_on_c, 2, 62, 103
6, 147820, Note_off_c, 2, 62, 64
6, 147820, Note_off_c, 2, 57, 64
6, 147820, Note_off_c, 2, 53, 64
6, 147840, Control_c, 2, 86, 37
6, 148320, Note_on_c, 2, 58, 89
6, 148320, Note_on_c, 2, 62, 90
6, 148512, Note_off_c, 2, 62, 64
6, 148512, Note_off_c, 2, 58, 64
6, 148560, Note_on_c, 2, 58, 85
6, 148560, Note_on_c, 2, 62, 84
6, 148944, Note_off_c, 2, 62, 64
6, 148944, Note_off_c, 2, 58, 64
6, 149040, Note_on_c, 2, 58, 81
6, 149040, Note_on_c, 2, 62, 99
6, 149232, Note_off_c, 2, 62, 64
6, 149232, Note_off_c, 2, 58, 64
6, 149280, Note_on_c, 2, 58, 97
6, 149280, Note_on_c, 2, 62, 78
6, 149664, Note_off_c, 2, 62, 64
6, 149664, Note_off_c, 2, 58, 64
6, 149760, Note_on_c, 2, 58, 92
6, 149760, Note_on_c, 2, 64, 78
6, 150144, Note_off_c, 2, 64, 64
6, 150144, Note_off_c, 2, 58, 64
6, 150240, Note_on_c, 2, 60, 105
6, 150432, Note_off_c, 2, 60, 64
6, 150480, Note_on_c, 2, 60, 94
6, 150672, Note_off_c, 2, 60, 64
6, 150720, Note_on_c, 2, 64, 88
6, 150720, Note_on_c, 2, 58, 92
6, 151104, Note_off_c, 2, 58, 64
6, 151104, Note_off_c, 2, 64, 64
6, 151200, Note_on_c, 2, 58, 90
6, 151200, Note_on_c, 2, 64, 90
6, 151200, Note_on_c, 2, 67, 100
6, 151584, Note_off_c, 2, 67, 64
6, 151584, Note_off_c, 2, 64, 64
6, 151584, Note_off_c, 2, 58, 64
6, 151680, Note_on_c, 2, 57, 84
6, 151680, Note_on_c, 2, 60, 81
6, 152064, Note_off_c, 2, 60, 64
6, 152064, Note_off_c, 2, 57, 64
6, 152160, Note_on_c, 2, 57, 75
6, 152160, Note_on_c, 2, 60, 89
6, 152352, Note_off_c, 2, 60, 64
6, 152352, Note_off_c, 2, 57, 64
6, 152400, Note_on_c, 2, 57, 80
6, 152400, Note_on_c, 2, 60, 90
6, 152784, Note_off_c, 2, 60, 64
6, 152784, Note_off_c, 2, 57, 64
6, 152880, Note_on_c, 2, 57, 93
6, 152880, Note_on_c, 2, 60, 90
6, 153072, Note_off_c, 2, 60, 64
6, 153072, Note_off_c, 2, 57, 64
6, 153120, Note_on_c, 2, 57, 85
6, 153120, Note_on_c, 2, 60, 90
6, 153580, Note_off_c, 2, 60, 64
6, 153580, Note_off_c, 2, 57, 64
6, 153600, Control_c, 2, 86, 37
6, 154080, Note_on_c, 2, 53, 101
6, 154080, Note_on_c, 2, 57, 90
6, 154080, Note_on_c, 2, 62, 94
6, 154464, Note_off_c, 2, 62, 64
6, 154464, Note_off_c, 2, 57, 64
6, 154464, Note_off_c, 2, 53, 64
6, 154560, Note_on_c, 2, 53, 99
6, 154560, Note_on_c, 2, 57, 75
6, 154560, Note_on_c, 2, 62, 86
6, 155020, Note_off_c, 2, 62, 64
6, 155020, Note_off_c, 2, 57, 64
6, 155020, Note_off_c, 2, 53, 64
6, 155040, Control_c, 2, 86, 37
6, 155520, Note_on_c, 2, 57, 81
6, 155520, Note_on_c, 2, 60, 89
6, 155520, Note_on_c, 2, 65, 78
6, 155904, Note_off_c, 2, 65, 64
6, 155904, Note_off_c, 2, 60, 64
6, 155904, Note_off_c, 2, 57, 64
6, 156000, Note_on_c, 2, 57, 89
6, 156000, Note_on_c, 2, 60, 90
6, 156000, Note_on_c, 2, 65, 89
6, 156192, Note_off_c, 2, 65, 64
6, 156192, Note_off_c, 2, 60, 64
6, 156192, Note_off_c, 2, 57, 64
6, 156240, Note_on_c, 2, 57, 81
6, 156240, Note_on_c, 2, 60, 79
6, 156240, Note_on_c, 2, 65, 81
6, 156624, Note_off_c, 2, 65, 64
6, 156624, Note_off_c, 2, 60, 64
6, 156624, Note_off_c, 2, 57, 64
6, 156720, Note_on_c, 2, 57, 83
6, 156720, Note_on_c, 2, 60, 77
6, 156720, Note_on_c, 2, 65, 83
6, 156912, Note_off_c, 2, 65, 64
6, 156912, Note_off_c, 2, 60, 64
6, 156912, Note_off_c, 2, 57, 64
6, 156960, Note_on_c, 2, 57, 94
6, 156960, Note_on_c, 2, 60, 97
6, 156960, Note_on_c, 2, 65, 91
6, 157344, Note_off_c, 2, 65, 64
6, 157344, Note_off_c, 2, 60, 64
6, 157344, Note_off_c, 2, 57, 64
6, 157440, Note_on_c, 2, 53, 82
6, 157440, Note_on_c, 2, 57, 78
6, 157440, Note_on_c, 2, 62, 104
6, 157824, Note_off_c, 2, 62, 64
6, 157824, Note_off_c, 2, 57, 64
6, 157824, Note_off_c, 2, 53, 64
6, 157920, Note_on_c, 2, 62, 91
6, 158304, Note_off_c, 2, 62, 64
6, 158400, Note_on_c, 2, 62, 91
6, 158784, Note_off_c, 2, 62, 64
6, 158880, Note_on_c, 2, 65, 77
6, 159264, Note_off_c, 2, 65, 64
6, 159360, Control_c, 2, 86, 37
6, 159840, Note_on_c, 2, 57, 86
6, 159840, Note_on_c, 2, 60, 91
6, 160032, Note_off_c, 2, 60, 64
6, 160032, Note_off_c, 2, 57, 64
6, 160080, Note_on_c, 2, 57, 90
6, 160080, Note_on_c, 2, 60, 85
6, 160464, Note_off_c, 2, 60, 64
6, 160464, Note_off_c, 2, 57, 64
6, 160560, Note_on_c, 2, 57, 75
6, 160560, Note_on_c, 2, 60, 87
6, 160752, Note_off_c, 2, 60, 64
6, 160752, Note_off_c, 2, 57, 64
6, 160800, Note_on_c, 2, 57, 86
6, 160800, Note_on_c, 2, 60, 86
6, 161260, Note_off_c, 2, 60, 64
6, 161260, Note_off_c, 2, 57, 64
6, 163200, Control_c, 2, 86, 37
6, 163680, Note_on_c, 2, 57, 85
6, 163680, Note_on_c, 2, 60, 90
6, 163680, Note_on_c, 2, 65, 87
6, 163872, Note_off_c, 2, 65, 64
6, 163872, Note_off_c, 2, 60, 64
6, 163872, Note_off_c, 2, 57, 64
6, 163920, Note_on_c, 2, 57, 100
6, 163920, Note_on_c, 2, 60, 90
6, 163920, Note_on_c, 2, 65, 93
6, 164304, Note_off_c, 2, 65, 64
6, 164304, Note_off_c, 2, 60, 64
6, 164304, Note_off_c, 2, 57, 64
6, 164400, Note_on_c, 2, 57, 92
6, 164400, Note_on_c, 2, 60, 76
6, 164400, Note_on_c, 2, 65, 90
6, 164592, Note_off_c, 2, 65, 64
6, 164592, Note_off_c, 2, 60, 64
6, 164592, Note_off_c, 2, 57, 64
6, 164640, Note_on_c, 2, 57, 93
6, 164640, Note_on_c, 2, 60, 82
6, 164640, Note_on_c, 2, 65, 90
6, 165100, Note_off_c, 2, 65, 64
6, 165100, Note_off_c, 2, 60, 64
6, 165100, Note_off_c, 2, 57, 64
6, 167040, Control_c, 2, 86, 37
6, 167520, Note_on_c, 2, 65, 77
6, 167520, Note_on_c, 2, 69, 90
6, 167904, Note_off_c, 2, 69, 64
6, 167904, Note_off_c, 2, 65, 64
6, 168000, Note_on_c, 2, 72, 88
6, 168384, Note_off_c, 2, 72, 64
6, 168480, Note_on_c, 2, 60, 83
6, 168480, Note_on_c, 2, 65, 96
6, 168480, Note_on_c, 2, 69, 96
6, 168864, Note_off_c, 2, 69, 64
6, 168864, Note_off_c, 2, 65, 64
6, 168864, Note_off_c, 2, 60, 64
6, 168960, Note_on_c, 2, 57, 95
6, 168960, Note_on_c, 2, 64, 90
6, 168960, Note_on_c, 2, 67, 90
6, 169344, Note_off_c, 2, 67, 64
6, 169344, Note_off_c, 2, 64, 64
6, 169344, Note_off_c, 2, 57, 64
6, 169440, Note_on_c, 2, 57, 82
6, 169440, Note_on_c, 2, 62, 91
6, 169440, Note_on_c, 2, 65, 90
6, 169632, Note_off_c, 2, 65, 64
6, 169632, Note_off_c, 2, 62, 64
6, 169632, Note_off_c, 2, 57, 64
6, 169680, Note_on_c, 2, 57, 80
6, 169680, Note_on_c, 2, 62, 92
6, 169680, Note_on_c, 2, 65, 91
6, 170640, Note_off_c, 2, 65, 64
6, 170640, Note_off_c, 2, 62, 64
6, 170640, Note_off_c, 2, 57, 64
6, 170880, Note_on_c, 2, 72, 90
6, 171264, Note_off_c, 2, 72, 64
6, 171360, Note_on_c, 2, 65, 86
6, 171360, Note_on_c, 2, 69, 89
6, 171360, Note_on_c, 2, 74, 85
6, 171744, Note_off_c, 2, 74, 64
6, 171744, Note_off_c, 2, 69, 64
6, 171744, Note_off_c, 2, 65, 64
6, 171840, Note_on_c, 2, 72, 103
6, 172224, Note_off_c, 2, 72, 64
6, 172320, Note_on_c, 2, 60, 99
6, 172320, Note_on_c, 2, 65, 90
6, 172320, Note_on_c, 2, 69, 90
6, 172704, Note_off_c, 2, 69, 64
6, 172704, Note_off_c, 2, 65, 64
6, 172704, Note_off_c, 2, 60, 64
6, 172800, Note_on_c, 2, 57, 90
6, 172800, Note_on_c, 2, 64, 87
6, 172800, Note_on_c, 2, 67, 78
6, 173184, Note_off_c, 2, 67, 64
6, 173184, Note_off_c, 2, 64, 64
6, 173184, Note_off_c, 2, 57, 64
6, 173280, Note_on_c, 2, 57, 89
6, 173280, Note_on_c, 2, 62, 90
6, 173280, Note_on_c, 2, 65, 83
6, 173472, Note_off_c, 2, 65, 64
6, 173472, Note_off_c, 2, 62, 64
6, 173472, Note_off_c, 2, 57, 64
6, 173520, Note_on_c, 2, 57, 90
6, 173520, Note_on_c, 2, 62, 99
6, 173520, Note_on_c, 2, 65, 95
6, 174700, Note_off_c, 2, 65, 64
6, 174700, Note_off_c, 2, 62, 64
6, 174700, Note_off_c, 2, 57, 64
6, 174720, Control_c, 2, 86, 37
6, 175200, Note_on_c, 2, 57, 104
6, 175200, Note_on_c, 2, 62, 93
6, 175584, Note_off_c, 2, 62, 64
6, 175584, Note_off_c, 2, 57, 64
6, 175680, Note_on_c, 2, 65, 86
6, 176064, Note_off_c, 2, 65, 64
6, 176160, Note_on_c, 2, 53, 88
6, 176160, Note_on_c, 2, 57, 90
6, 176160, Note_on_c, 2, 62, 83
6, 176620, Note_off_c, 2, 62, 64
6, 176620, Note_off_c, 2, 57, 64
6, 176620, Note_off_c, 2, 53, 64
6, 176640, Control_c, 2, 86, 37
6, 177120, Note_on_c, 2, 58, 90
6, 177120, Note_on_c, 2, 62, 90
6, 177312, Note_off_c, 2, 62, 64
6, 177312, Note_off_c, 2, 58, 64
6, 177360, Note_on_c, 2, 58, 88
6, 177360, Note_on_c, 2, 62, 83
6, 177744, Note_off_c, 2, 62, 64
6, 177744, Note_off_c, 2, 58, 64
6, 177840, Note_on_c, 2, 58, 101
6, 177840, Note_on_c, 2, 62, 90
6, 178032, Note_off_c, 2, 62, 64
6, 178032, Note_off_c, 2, 58, 64
6, 178080, Note_on_c, 2, 58, 77
6, 178080, Note_on_c, 2, 62, 101
6, 178464, Note_off_c, 2, 62, 64
6, 178464, Note_off_c, 2, 58, 64
6, 178560, Note_on_c, 2, 58, 96
6, 178560, Note_on_c, 2, 64, 87
6, 178944, Note_off_c, 2, 64, 64
6, 178944, Note_off_c, 2, 58, 64
6, 179040, Note_on_c, 2, 60, 90
6, 179232, Note_off_c, 2, 60, 64
6, 179280, Note_on_c, 2, 60, 98
6, 179472, Note_off_c, 2, 60, 64
6, 179520, Note_on_c, 2, 64, 91
6, 179520, Note_on_c, 2, 58, 79
6, 179904, Note_off_c, 2, 58, 64
6, 179904, Note_off_c, 2, 64, 64
6, 180000, Note_on_c, 2, 58, 90
6, 180000, Note_on_c, 2, 64, 103
6, 180000, Note_on_c, 2, 67, 84
6, 180384, Note_off_c, 2, 67, 64
6, 180384, Note_off_c, 2, 64, 64
6, 180384, Note_off_c, 2, 58, 64
6, 180480, Note_on_c, 2, 57, 89
6, 180480, Note_on_c, 2, 60, 97
6, 180864, Note_off_c, 2, 60, 64
6, 180864, Note_off_c, 2, 57, 64
6, 180960, Note_on_c, 2, 57, 89
6, 180960, Note_on_c, 2, 60, 78
6, 181152, Note_off_c, 2, 60, 64
6, 181152, Note_off_c, 2, 57, 64
6, 181200, Note_on_c, 2, 57, 97
6, 181200, Note_on_c, 2, 60, 88
6, 181584, Note_off_c, 2, 60, 64
6, 181584, Note_off_c, 2, 57, 64
6, 181680, Note_on_c, 2, 57, 79
6, 181680, Note_on_c, 2, 60, 89
6, 181872, Note_off_c, 2, 60, 64
6, 181872, Note_off_c, 2, 57, 64
6, 181920, Note_on_c, 2, 57, 102
6, 181920, Note_on_c, 2, 60, 81
6, 182380, Note_off_c, 2, 60, 64
6, 182380, Note_off_c, 2, 57, 64
6, 182400, Control_c, 2, 86, 37
6, 182880, Note_on_c, 2, 53, 87
6, 182880, Note_on_c, 2, 57, 100
6, 182880, Note_on_c, 2, 62, 104
6, 183264, Note_off_c, 2, 62, 64
6, 183264, Note_off_c, 2, 57, 64
6, 183264, Note_off_c, 2, 53, 64
6, 183360, Note_on_c, 2, 53, 102
6, 183360, Note_on_c, 2, 57, 90
6, 183360, Note_on_c, 2, 62, 102
6, 183820, Note_off_c, 2, 62, 64
6, 183820, Note_off_c, 2, 57, 64
6, 183820, Note_off_c, 2, 53, 64
6, 183840, Control_c, 2, 86, 37
6, 184320, Note_on_c, 2, 57, 93
6, 184320, Note_on_c, 2, 60, 90
6, 184320, Note_on_c, 2, 65, 93
6, 184704, Note_off_c, 2, 65, 64
6, 184704, Note_off_c, 2, 60, 64
6, 184704, Note_off_c, 2, 57, 64
6, 184800, Note_on_c, 2, 57, 90
6, 184800, Note_on_c, 2, 60, 80
6, 184800, Note_on_c, 2, 65, 88
6, 184992, Note_off_c, 2, 65, 64
6, 184992, Note_off_c, 2, 60, 64
6, 184992, Note_off_c, 2, 57, 64
6, 185040, Note_on_c, 2, 57, 90
6, 185040, Note_on_c, 2, 60, 81
6, 185040, Note_on_c, 2, 65, 90
6, 185424, Note_off_c, 2, 65, 64
6, 185424, Note_off_c, 2, 60, 64
6, 185424, Note_off_c, 2, 57, 64
6, 185520, Note_on_c, 2, 57, 94
6, 185520, Note_on_c, 2, 60, 91
6, 185520, Note_on_c, 2, 65, 86
6, 185712, Note_off_c, 2, 65, 64
6, 185712, Note_off_c, 2, 60, 64
6, 185712, Note_off_c, 2, 57, 64
6, 185760, Note_on_c, 2, 57, 95
6, 185760, Note_on_c, 2, 60, 83
6, 185760, Note_on_c, 2, 65, 94
6, 186144, Note_off_c, 2, 65, 64
6, 186144, Note_off_c, 2, 60, 64
6, 186144, Note_off_c, 2, 57, 64
6, 186240, Control_c, 2, 86, 37
6, 186720, Note_on_c, 2, 53, 89
6, 186720, Note_on_c, 2, 57, 89
6, 186720, Note_on_c, 2, 62, 89
6, 187104, Note_off_c, 2, 62, 64
6, 187104, Note_off_c, 2, 57, 64
6, 187104, Note_off_c, 2, 53, 64
6, 187200, Note_on_c, 2, 53, 89
6, 187200, Note_on_c, 2, 57, 80
6, 187200, Note_on_c, 2, 62, 85
6, 187660, Note_off_c, 2, 62, 64
6, 187660, Note_off_c, 2, 57, 64
6, 187660, Note_off_c, 2, 53, 64
6, 187680, Control_c, 2, 86, 37
6, 188160, Note_on_c, 2, 55, 89
6, 188160, Note_on_c, 2, 58, 98
6, 188160, Note_on_c, 2, 64, 91
6, 188544, Note_off_c, 2, 64, 64
6, 188544, Note_off_c, 2, 58, 64
6, 188544, Note_off_c, 2, 55, 64
6, 188640, Note_on_c, 2, 58, 96
6, 188640, Note_on_c, 2, 62, 87
6, 188640, Note_on_c, 2, 65, 89
6, 189024, Note_off_c, 2, 65, 64
6, 189024, Note_off_c, 2, 62, 64
6, 189024, Note_off_c, 2, 58, 64
6, 189120, Note_on_c, 2, 58, 98
6, 189120, Note_on_c, 2, 64, 101
6, 189120, Note_on_c, 2, 67, 75
6, 189504, Note_off_c, 2, 67, 64
6, 189504, Note_off_c, 2, 64, 64
6, 189504, Note_off_c, 2, 58, 64
6, 189600, Note_on_c, 2, 60, 95
6, 189600, Note_on_c, 2, 64, 96
6, 189600, Note_on_c, 2, 69, 90
6, 189984, Note_off_c, 2, 69, 64
6, 189984, Note_off_c, 2, 64, 64
6, 189984, Note_off_c, 2, 60, 64
6, 190080, Note_on_c, 2, 62, 82
6, 190080, Note_on_c, 2, 65, 86
6, 190080, Note_on_c, 2, 70, 94
6, 190464, Note_off_c, 2, 70, 64
6, 190464, Note_off_c, 2, 65, 64
6, 190464, Note_off_c, 2, 62, 64
6, 190560, Note_on_c, 2, 58, 90
6, 190560, Note_on_c, 2, 62, 90
6, 190560, Note_on_c, 2, 69, 83
6, 190752, Note_off_c, 2, 69, 64
6, 190752, Note_off_c, 2, 62, 64
6, 190752, Note_off_c, 2, 58, 64
6, 190800, Note_on_c, 2, 58, 91
6, 190800, Note_on_c, 2, 62, 103
6, 190800, Note_on_c, 2, 67, 97
6, 191472, Note_off_c, 2, 67, 64
6, 191472, Note_off_c, 2, 62, 64
6, 191472, Note_off_c, 2, 58, 64
6, 191520, Note_on_c, 2, 58, 78
6, 191520, Note_on_c, 2, 62, 89
6, 191904, Note_off_c, 2, 62, 64
6, 191904, Note_off_c, 2, 58, 64
6, 192000, Note_on_c, 2, 60, 90
6, 192000, Note_on_c, 2, 65, 102
6, 192000, Note_on_c, 2, 70, 92
6, 192192, Note_off_c, 2, 70, 64
6, 192192, Note_off_c, 2, 65, 64
6, 192192, Note_off_c, 2, 60, 64
6, 192240, Note_on_c, 2, 58, 89
6, 192240, Note_on_c, 2, 64, 85
6, 192240, Note_on_c, 2, 67, 92
6, 193584, Note_off_c, 2, 67, 64
6, 193584, Note_off_c, 2, 64, 64
6, 193584, Note_off_c, 2, 58, 64
6, 193920, Note_on_c, 2, 58, 81
6, 193920, Note_on_c, 2, 62, 87
6, 194304, Note_off_c, 2, 62, 64
6, 194304, Note_off_c, 2, 58, 64
6, 194400, Note_on_c, 2, 58, 102
6, 194400, Note_on_c, 2, 62, 81
6, 194592, Note_off_c, 2, 62, 64
6, 194592, Note_off_c, 2, 58, 64
6, 194640, Note_on_c, 2, 58, 86
6, 194640, Note_on_c, 2, 62, 92
6, 195216, Note_off_c, 2, 62, 64
6, 195216, Note_off_c, 2, 58, 64
6, 195360, Note_on_c, 2, 58, 97
6, 195360, Note_on_c, 2, 62, 86
6, 195360, Note_on_c, 2, 65, 92
6, 195744, Note_off_c, 2, 65, 64
6, 195744, Note_off_c, 2, 62, 64
6, 195744, Note_off_c, 2, 58, 64
6, 195840, Note_on_c, 2, 55, 85
6, 195840, Note_on_c, 2, 58, 82
6, 195840, Note_on_c, 2, 64, 90
6, 196224, Note_off_c, 2, 64, 64
6, 196224, Note_off_c, 2, 58, 64
6, 196224, Note_off_c, 2, 55, 64
6, 196320, Note_on_c, 2, 58, 91
6, 196320, Note_on_c, 2, 62, 96
6, 196320, Note_on_c, 2, 65, 94
6, 196704, Note_off_c, 2, 65, 64
6, 196704, Note_off_c, 2, 62, 64
6, 196704, Note_off_c, 2, 58, 64
6, 196800, Note_on_c, 2, 58, 94
6, 196800, Note_on_c, 2, 64, 90
6, 196800, Note_on_c, 2, 67, 101
6, 197184, Note_off_c, 2, 67, 64
6, 197184, Note_off_c, 2, 64, 64
6, 197184, Note_off_c, 2, 58, 64
6, 197280, Note_on_c, 2, 60, 103
6, 197280, Note_on_c, 2, 64, 87
6, 197280, Note_on_c, 2, 69, 98
6, 197664, Note_off_c, 2, 69, 64
6, 197664, Note_off_c, 2, 64, 64
6, 197664, Note_off_c, 2, 60, 64
6, 197760, Note_on_c, 2, 62, 90
6, 197760, Note_on_c, 2, 65, 92
6, 197760, Note_on_c, 2, 70, 88
6, 198144, Note_off_c, 2, 70, 64
6, 198144, Note_off_c, 2, 65, 64
6, 198144, Note_off_c, 2, 62, 64
6, 198240, Note_on_c, 2, 58, 102
6, 198240, Note_on_c, 2, 62, 98
6, 198240, Note_on_c, 2, 69, 95
6, 198432, Note_off_c, 2, 69, 64
6, 198432, Note_off_c, 2, 62, 64
6, 198432, Note_off_c, 2, 58, 64
6, 198480, Note_on_c, 2, 58, 90
6, 198480, Note_on_c, 2, 62, 90
6, 198480, Note_on_c, 2, 67, 90
6, 199056, Note_off_c, 2, 67, 64
6, 199056, Note_off_c, 2, 62, 64
6, 199056, Note_off_c, 2, 58, 64
6, 199200, Note_on_c, 2, 58, 82
6, 199200, Note_on_c, 2, 62, 89
6, 199200, Note_on_c, 2, 69, 84
6, 199660, Note_off_c, 2, 69, 64
6, 199660, Note_off_c, 2, 62, 64
6, 199660, Note_off_c, 2, 58, 64
6, 199680, Control_c, 2, 86, 37
6, 200160, Note_on_c, 2, 58, 100
6, 200160, Note_on_c, 2, 64, 90
6, 201580, Note_off_c, 2, 64, 64
6, 201580, Note_off_c, 2, 58, 64
6, 201600, Control_c, 2, 86, 37
6, 202080, Note_on_c, 2, 58, 89
6, 202080, Note_on_c, 2, 62, 90
6, 203232, Note_off_c, 2, 62, 64
6, 203232, Note_off_c, 2, 58, 64
6, 203520, Note_on_c, 2, 55, 95
6, 203520, Note_on_c, 2, 58, 78
6, 203520, Note_on_c, 2, 64, 89
6, 203904, Note_off_c, 2, 64, 64
6, 203904, Note_off_c, 2, 58, 64
6, 203904, Note_off_c, 2, 55, 64
6, 204000, Note_on_c, 2, 58, 79
6, 204000, Note_on_c, 2, 62, 90
6, 204000, Note_on_c, 2, 65, 93
6, 204384, Note_off_c, 2, 65, 64
6, 204384, Note_off_c, 2, 62, 64
6, 204384, Note_off_c, 2, 58, 64
6, 204480, Note_on_c, 2, 58, 90
6, 204480, Note_on_c, 2, 64, 92
6, 204480, Note_on_c, 2, 67, 93
6, 204864, Note_off_c, 2, 67, 64
6, 204864, Note_off_c, 2, 64, 64
6, 204864, Note_off_c, 2, 58, 64
6, 204960, Note_on_c, 2, 60, 81
6, 204960, Note_on_c, 2, 64, 87
6, 204960, Note_on_c, 2, 69, 91
6, 205344, Note_off_c, 2, 69, 64
6, 205344, Note_off_c, 2, 64, 64
6, 205344, Note_off_c, 2, 60, 64
6, 205440, Note_on_c, 2, 62, 90
6, 205440, Note_on_c, 2, 65, 86
6, 205440, Note_on_c, 2, 70, 99
6, 205824, Note_off_c, 2, 70, 64
6, 205824, Note_off_c, 2, 65, 64
6, 205824, Note_off_c, 2, 62, 64
6, 205920, Note_on_c, 2, 58, 88
6, 205920, Note_on_c, 2, 62, 91
6, 205920, Note_on_c, 2, 69, 91
6, 206112, Note_off_c, 2, 69, 64
6, 206112, Note_off_c, 2, 62, 64
6, 206112, Note_off_c, 2, 58, 64
6, 206160, Note_on_c, 2, 58, 90
6, 206160, Note_on_c, 2, 62, 90
6, 206160, Note_on_c, 2, 67, 77
6, 206736, Note_off_c, 2, 67, 64
6, 206736, Note_off_c, 2, 62, 64
6, 206736, Note_off_c, 2, 58, 64
6, 206880, Note_on_c, 2, 58, 88
6, 206880, Note_on_c, 2, 62, 89
6, 207264, Note_off_c, 2, 62, 64
6, 207264, Note_off_c, 2, 58, 64
6, 207360, Note_on_c, 2, 60, 90
6, 207360, Note_on_c, 2, 64, 93
6, 207360, Note_on_c, 2, 70, 79
6, 207552, Note_off_c, 2, 70, 64
6, 207552, Note_off_c, 2, 64, 64
6, 207552, Note_off_c, 2, 60, 64
6, 207600, Note_on_c, 2, 58, 104
6, 207600, Note_on_c, 2, 64, 90
6, 207600, Note_on_c, 2, 67, 99
6, 208944, Note_off_c, 2, 67, 64
6, 208944, Note_off_c, 2, 64, 64
6, 208944, Note_off_c, 2, 58, 64
6, 209280, Note_on_c, 2, 58, 90
6, 209280, Note_on_c, 2, 62, 90
6, 209664, Note_off_c, 2, 62, 64
6, 209664, Note_off_c, 2, 58, 64
6, 209760, Note_on_c, 2, 58, 99
6, 209760, Note_on_c, 2, 62, 76
6, 210144, Note_off_c, 2, 62, 64
6, 210144, Note_off_c, 2, 58, 64
6, 210240, Note_on_c, 2, 58, 85
6, 210240, Note_on_c, 2, 62, 104
6, 210624, Note_off_c, 2, 62, 64
6, 210624, Note_off_c, 2, 58, 64
6, 210720, Note_on_c, 2, 58, 76
6, 210720, Note_on_c, 2, 62, 97
6, 211104, Note_off_c, 2, 62, 64
6, 211104, Note_off_c, 2, 58, 64
6, 211200, Note_on_c, 2, 64, 105
6, 211200, Note_on_c, 2, 55, 90
6, 211200, Note_on_c, 2, 58, 90
6, 211584, Note_off_c, 2, 58, 64
6, 211584, Note_off_c, 2, 55, 64
6, 211584, Note_off_c, 2, 64, 64
6, 211680, Note_on_c, 2, 58, 87
6, 211680, Note_on_c, 2, 62, 98
6, 211680, Note_on_c, 2, 65, 90
6, 212064, Note_off_c, 2, 65, 64
6, 212064, Note_off_c, 2, 62, 64
6, 212064, Note_off_c, 2, 58, 64
6, 212160, Note_on_c, 2, 58, 89
6, 212160, Note_on_c, 2, 64, 96
6, 212160, Note_on_c, 2, 67, 102
6, 212544, Note_off_c, 2, 67, 64
6, 212544, Note_off_c, 2, 64, 64
6, 212544, Note_off_c, 2, 58, 64
6, 212640, Note_on_c, 2, 60, 91
6, 212640, Note_on_c, 2, 64, 83
6, 212640, Note_on_c, 2, 69, 90
6, 213024, Note_off_c, 2, 69, 64
6, 213024, Note_off_c, 2, 64, 64
6, 213024, Note_off_c, 2, 60, 64
6, 213120, Note_on_c, 2, 58, 90
6, 213120, Note_on_c, 2, 65, 90
6, 213120, Note_on_c, 2, 70, 89
6, 213504, Note_off_c, 2, 70, 64
6, 213504, Note_off_c, 2, 65, 64
6, 213504, Note_off_c, 2, 58, 64
6, 213600, Note_on_c, 2, 58, 95
6, 213600, Note_on_c, 2, 62, 76
6, 213600, Note_on_c, 2, 69, 97
6, 213792, Note_off_c, 2, 69, 64
6, 213792, Note_off_c, 2, 62, 64
6, 213792, Note_off_c, 2, 58, 64
6, 213840, Note_on_c, 2, 58, 90
6, 213840, Note_on_c, 2, 62, 90
6, 213840, Note_on_c, 2, 67, 92
6, 214416, Note_off_c, 2, 67, 64
6, 214416, Note_off_c, 2, 62, 64
6, 214416, Note_off_c, 2, 58, 64
6, 214560, Note_on_c, 2, 58, 91
6, 214560, Note_on_c, 2, 62, 86
6, 214560, Note_on_c, 2, 65, 91
6, 214944, Note_off_c, 2, 65, 64
6, 214944, Note_off_c, 2, 62, 64
6, 214944, Note_off_c, 2, 58, 64
6, 215040, Note_on_c, 2, 57, 92
6, 215040, Note_on_c, 2, 60, 100
6, 215424, Note_off_c, 2, 60, 64
6, 215424, Note_off_c, 2, 57, 64
6, 215520, Note_on_c, 2, 57, 90
6, 215520, Note_on_c, 2, 60, 90
6, 215712, Note_off_c, 2, 60, 64
6, 215712, Note_off_c, 2, 57, 64
6, 215760, Note_on_c, 2, 57, 93
6, 215760, Note_on_c, 2, 60, 78
6, 216144, Note_off_c, 2, 60, 64
6, 216144, Note_off_c, 2, 57, 64
6, 216240, Note_on_c, 2, 57, 88
6, 216240, Note_on_c, 2, 60, 100
6, 216432, Note_off_c, 2, 60, 64
6, 216432, Note_off_c, 2, 57, 64
6, 216480, Note_on_c, 2, 57, 89
6, 216480, Note_on_c, 2, 60, 80
6, 216940, Note_off_c, 2, 60, 64
6, 216940, Note_off_c, 2, 57, 64
6, 216960, Control_c, 2, 86, 37
6, 217440, Note_on_c, 2, 53, 90
6, 217440, Note_on_c, 2, 57, 89
6, 217440, Note_on_c, 2, 62, 102
6, 217824, Note_off_c, 2, 62, 64
6, 217824, Note_off_c, 2, 57, 64
6, 217824, Note_off_c, 2, 53, 64
6, 217920, Note_on_c, 2, 53, 80
6, 217920, Note_on_c, 2, 57, 93
6, 217920, Note_on_c, 2, 62, 88
6, 218380, Note_off_c, 2, 62, 64
6, 218380, Note_off_c, 2, 57, 64
6, 218380, Note_off_c, 2, 53, 64
6, 218400, Control_c, 2, 86, 37
6, 218880, Note_on_c, 2, 57, 103
6, 218880, Note_on_c, 2, 60, 86
6, 218880, Note_on_c, 2, 65, 102
6, 219264, Note_off_c, 2, 65, 64
6, 219264, Note_off_c, 2, 60, 64
6, 219264, Note_off_c, 2, 57, 64
6, 219360, Note_on_c, 2, 57, 81
6, 219360, Note_on_c, 2, 60, 85
6, 219360, Note_on_c, 2, 65, 90
6, 219552, Note_off_c, 2, 65, 64
6, 219552, Note_off_c, 2, 60, 64
6, 219552, Note_off_c, 2, 57, 64
6, 219600, Note_on_c, 2, 57, 90
6, 219600, Note_on_c, 2, 60, 90
6, 219600, Note_on_c, 2, 65, 97
6, 219984, Note_off_c, 2, 65, 64
6, 219984, Note_off_c, 2, 60, 64
6, 219984, Note_off_c, 2, 57, 64
6, 220080, Note_on_c, 2, 57, 86
6, 220080, Note_on_c, 2, 60, 94
6, 220080, Note_on_c, 2, 65, 89
6, 220272, Note_off_c, 2, 65, 64
6, 220272, Note_off_c, 2, 60, 64
6, 220272, Note_off_c, 2, 57, 64
6, 220320, Note_on_c, 2, 57, 85
6, 220320, Note_on_c, 2, 60, 87
6, 220320, Note_on_c, 2, 65, 88
6, 220704, Note_off_c, 2, 65, 64
6, 220704, Note_off_c, 2, 60, 64
6, 220704, Note_off_c, 2, 57, 64
6, 220800, Note_on_c, 2, 53, 75
6, 220800, Note_on_c, 2, 57, 79
6, 220800, Note_on_c, 2, 62, 90
6, 221184, Note_off_c, 2, 62, 64
6, 221184, Note_off_c, 2, 57, 64
6, 221184, Note_off_c, 2, 53, 64
6, 221280, Note_on_c, 2, 62, 81
6, 221664, Note_off_c, 2, 62, 64
6, 221760, Note_on_c, 2, 62, 91
6, 222144, Note_off_c, 2, 62, 64
6, 222240, Note_on_c, 2, 65, 91
6, 222700, Note_off_c, 2, 65, 64
6, 222720, Control_c, 2, 86, 37
6, 223200, Note_on_c, 2, 57, 89
6, 223200, Note_on_c, 2, 60, 82
6, 223392, Note_off_c, 2, 60, 64
6, 223392, Note_off_c, 2, 57, 64
6, 223440, Note_on_c, 2, 57, 101
6, 223440, Note_on_c, 2, 60, 90
6, 223824, Note_off_c, 2, 60, 64
6, 223824, Note_off_c, 2, 57, 64
6, 223920, Note_on_c, 2, 57, 90
6, 223920, Note_on_c, 2, 60, 82
6, 224112, Note_off_c, 2, 60, 64
6, 224112, Note_off_c, 2, 57, 64
6, 224160, Note_on_c, 2, 57, 95
6, 224160, Note_on_c, 2, 60, 102
6, 224620, Note_off_c, 2, 60, 64
6, 224620, Note_off_c, 2, 57, 64
6, 224640, Control_c, 2, 86, 37
6, 225120, Note_on_c, 2, 53, 89
6, 225120, Note_on_c, 2, 57, 82
6, 225120, Note_on_c, 2, 62, 87
6, 225504, Note_off_c, 2, 62, 64
6, 225504, Note_off_c, 2, 57, 64
6, 225504, Note_off_c, 2, 53, 64
6, 225600, Note_on_c, 2, 57, 87
6, 225600, Note_on_c, 2, 62, 90
6, 225600, Note_on_c, 2, 65, 81
6, 225984, Note_off_c, 2, 65, 64
6, 225984, Note_off_c, 2, 62, 64
6, 225984, Note_off_c, 2, 57, 64
6, 226080, Note_on_c, 2, 57, 94
6, 226080, Note_on_c, 2, 64, 102
6, 226080, Note_on_c, 2, 67, 93
6, 226540, Note_off_c, 2, 67, 64
6, 226540, Note_off_c, 2, 64, 64
6, 226540, Note_off_c, 2, 57, 64
6, 226560, Control_c, 2, 86, 37
6, 227040, Note_on_c, 2, 57, 86
6, 227040, Note_on_c, 2, 60, 88
6, 227040, Note_on_c, 2, 65, 77
6, 227232, Note_off_c, 2, 65, 64
6, 227232, Note_off_c, 2, 60, 64
6, 227232, Note_off_c, 2, 57, 64
6, 227280, Note_on_c, 2, 57, 83
6, 227280, Note_on_c, 2, 60, 90
6, 227280, Note_on_c, 2, 65, 90
6, 227664, Note_off_c, 2, 65, 64
6, 227664, Note_off_c, 2, 60, 64
6, 227664, Note_off_c, 2, 57, 64
6, 227760, Note_on_c, 2, 57, 90
6, 227760, Note_on_c, 2, 60, 93
6, 227760, Note_on_c, 2, 65, 96
6, 227952, Note_off_c, 2, 65, 64
6, 227952, Note_off_c, 2, 60, 64
6, 227952, Note_off_c, 2, 57, 64
6, 228000, Note_on_c, 2, 57, 90
6, 228000, Note_on_c, 2, 60, 92
6, 228000, Note_on_c, 2, 65, 85
6, 228460, Note_off_c, 2, 65, 64
6, 228460, Note_off_c, 2, 60, 64
6, 228460, Note_off_c, 2, 57, 64
6, 228480, Control_c, 2, 86, 37
6, 228960, Note_on_c, 2, 57, 100
6, 228960, Note_on_c, 2, 62, 90
6, 228960, Note_on_c, 2, 65, 91
6, 229344, Note_off_c, 2, 65, 64
6, 229344, Note_off_c, 2, 62, 64
6, 229344, Note_off_c, 2, 57, 64
6, 229440, Note_on_c, 2, 62, 91
6, 229440, Note_on_c, 2, 65, 81
6, 229440, Note_on_c, 2, 69, 90
6, 229824, Note_off_c, 2, 69, 64
6, 229824, Note_off_c, 2, 65, 64
6, 229824, Note_off_c, 2, 62, 64
6, 229920, Note_on_c, 2, 62, 83
6, 229920, Note_on_c, 2, 65, 93
6, 229920, Note_on_c, 2, 70, 90
6, 230380, Note_off_c, 2, 70, 64
6, 230380, Note_off_c, 2, 65, 64
6, 230380, Note_off_c, 2, 62, 64
6, 230400, Control_c, 2, 86, 37
6, 230880, Note_on_c, 2, 65, 90
6, 230880, Note_on_c, 2, 69, 80
6, 231264, Note_off_c, 2, 69, 64
6, 231264, Note_off_c, 2, 65, 64
6, 231360, Note_on_c, 2, 72, 90
6, 231744, Note_off_c, 2, 72, 64
6, 231840, Note_on_c, 2, 60, 89
6, 231840, Note_on_c, 2, 65, 90
6, 231840, Note_on_c, 2, 69, 79
6, 232224, Note_off_c, 2, 69, 64
6, 232224, Note_off_c, 2, 65, 64
6, 232224, Note_off_c, 2, 60, 64
6, 232320, Note_on_c, 2, 57, 100
6, 232320, Note_on_c, 2, 64, 78
6, 232320, Note_on_c, 2, 67, 93
6, 232704, Note_off_c, 2, 67, 64
6, 232704, Note_off_c, 2, 64, 64
6, 232704, Note_off_c, 2, 57, 64
6, 232800, Note_on_c, 2, 57, 81
6, 232800, Note_on_c, 2, 62, 104
6, 232800, Note_on_c, 2, 65, 90
6, 232992, Note_off_c, 2, 65, 64
6, 232992, Note_off_c, 2, 62, 64
6, 232992, Note_off_c, 2, 57, 64
6, 233040, Note_on_c, 2, 57, 90
6, 233040, Note_on_c, 2, 62, 99
6, 233040, Note_on_c, 2, 65, 90
6, 234220, Note_off_c, 2, 65, 64
6, 234220, Note_off_c, 2, 62, 64
6, 234220, Note_off_c, 2, 57, 64
6, 234240, Control_c, 2, 86, 37
6, 234720, Note_on_c, 2, 65, 85
6, 234720, Note_on_c, 2, 69, 85
6, 235104, Note_off_c, 2, 69, 64
6, 235104, Note_off_c, 2, 65, 64
6, 235200, Note_on_c, 2, 72, 87
6, 235584, Note_off_c, 2, 72, 64
6, 235680, Note_on_c, 2, 60, 90
6, 235680, Note_on_c, 2, 65, 86
6, 235680, Note_on_c, 2, 69, 83
6, 236064, Note_off_c, 2, 69, 64
6, 236064, Note_off_c, 2, 65, 64
6, 236064, Note_off_c, 2, 60, 64
6, 236160, Note_on_c, 2, 57, 96
6, 236160, Note_on_c, 2, 64, 90
6, 236160, Note_on_c, 2, 67, 91
6, 236544, Note_off_c, 2, 67, 64
6, 236544, Note_off_c, 2, 64, 64
6, 236544, Note_off_c, 2, 57, 64
6, 236640, Note_on_c, 2, 57, 90
6, 236640, Note_on_c, 2, 62, 78
6, 236640, Note_on_c, 2, 65, 77
6, 236832, Note_off_c, 2, 65, 64
6, 236832, Note_off_c, 2, 62, 64
6, 236832, Note_off_c, 2, 57, 64
6, 236880, Note_on_c, 2, 57, 88
6, 236880, Note_on_c, 2, 62, 81
6, 236880, Note_on_c, 2, 65, 84
6, 238060, Note_off_c, 2, 65, 64
6, 238060, Note_off_c, 2, 62, 64
6, 238060, Note_off_c, 2, 57, 64
6, 238080, Control_c, 2, 86, 37
6, 238560, Note_on_c, 2, 57, 90
6, 238560, Note_on_c, 2, 62, 75
6, 238560, Note_on_c, 2, 65, 85
6, 238752, Note_off_c, 2, 65, 64
6, 238752, Note_off_c, 2, 62, 64
6, 238752, Note_off_c, 2, 57, 64
6, 238800, Note_on_c, 2, 67, 88
6, 238992, Note_off_c, 2, 67, 64
6, 239040, Note_on_c, 2, 65, 89
6, 239424, Note_off_c, 2, 65, 64
6, 239520, Note_on_c, 2, 53, 95
6, 239520, Note_on_c, 2, 57, 75
6, 239520, Note_on_c, 2, 62, 92
6, 239980, Note_off_c, 2, 62, 64
6, 239980, Note_off_c, 2, 57, 64
6, 239980, Note_off_c, 2, 53, 64
6, 240000, Control_c, 2, 86, 37
6, 240480, Note_on_c, 2, 62, 93
6, 240480, Note_on_c, 2, 58, 104
6, 240672, Note_off_c, 2, 58, 64
6, 240672, Note_off_c, 2, 62, 64
6, 240720, Note_on_c, 2, 58, 87
6, 240720, Note_on_c, 2, 62, 100
6, 241104, Note_off_c, 2, 62, 64
6, 241104, Note_off_c, 2, 58, 64
6, 241200, Note_on_c, 2, 58, 90
6, 241200, Note_on_c, 2, 62, 90
6, 241392, Note_off_c, 2, 62, 64
6, 241392, Note_off_c, 2, 58, 64
6, 241440, Note_on_c, 2, 58, 83
6, 241440, Note_on_c, 2, 62, 100
6, 241824, Note_off_c, 2, 62, 64
6, 241824, Note_off_c, 2, 58, 64
6, 241920, Note_on_c, 2, 58, 91
6, 241920, Note_on_c, 2, 64, 94
6, 242304, Note_off_c, 2, 64, 64
6, 242304, Note_off_c, 2, 58, 64
6, 242400, Note_on_c, 2, 60, 79
6, 242592, Note_off_c, 2, 60, 64
6, 242640, Note_on_c, 2, 60, 92
6, 242832, Note_off_c, 2, 60, 64
6, 242880, Note_on_c, 2, 58, 75
6, 242880, Note_on_c, 2, 64, 90
6, 243264, Note_off_c, 2, 64, 64
6, 243264, Note_off_c, 2, 58, 64
6, 243360, Note_on_c, 2, 58, 90
6, 243360, Note_on_c, 2, 64, 97
6, 243360, Note_on_c, 2, 67, 81
6, 243744, Note_off_c, 2, 67, 64
6, 243744, Note_off_c, 2, 64, 64
6, 243744, Note_off_c, 2, 58, 64
6, 243840, Note_on_c, 2, 57, 100
6, 243840, Note_on_c, 2, 60, 94
6, 244224, Note_off_c, 2, 60, 64
6, 244224, Note_off_c, 2, 57, 64
6, 244320, Note_on_c, 2, 57, 104
6, 244320, Note_on_c, 2, 60, 97
6, 244512, Note_off_c, 2, 60, 64
6, 244512, Note_off_c, 2, 57, 64
6, 244560, Note_on_c, 2, 57, 80
6, 244560, Note_on_c, 2, 60, 88
6, 244944, Note_off_c, 2, 60, 64
6, 244944, Note_off_c, 2, 57, 64
6, 245040, Note_on_c, 2, 57, 92
6, 245040, Note_on_c, 2, 60, 94
6, 245232, Note_off_c, 2, 60, 64
6, 245232, Note_off_c, 2, 57, 64
6, 245280, Note_on_c, 2, 57, 90
6, 245280, Note_on_c, 2, 60, 79
6, 245740, Note_off_c, 2, 60, 64
6, 245740, Note_off_c, 2, 57, 64
6, 245760, Control_c, 2, 86, 37
6, 246240, Note_on_c, 2, 53, 82
6, 246240, Note_on_c, 2, 56, 93
6, 246240, Note_on_c, 2, 62, 104
6, 246624, Note_off_c, 2, 62, 64
6, 246624, Note_off_c, 2, 56, 64
6, 246624, Note_off_c, 2, 53, 64
6, 246720, Note_on_c, 2, 53, 96
6, 246720, Note_on_c, 2, 56, 90
6, 246720, Note_on_c, 2, 62, 96
6, 247488, Note_off_c, 2, 62, 64
6, 247488, Note_off_c, 2, 56, 64
6, 247488, Note_off_c, 2, 53, 64
6, 247680, Note_on_c, 2, 57, 81
6, 247680, Note_on_c, 2, 60, 93
6, 247680, Note_on_c, 2, 65, 85
6, 248448, Note_off_c, 2, 65, 64
6, 248448, Note_off_c, 2, 60, 64
6, 248448, Note_off_c, 2, 57, 64
6, 248640, Note_on_c, 2, 65, 83
6, 248640, Note_on_c, 2, 68, 97
6, 248640, Note_on_c, 2, 74, 96
6, 249024, Note_off_c, 2, 74, 64
6, 249024, Note_off_c, 2, 68, 64
6, 249024, Note_off_c, 2, 65, 64
6, 249120, Note_on_c, 2, 65, 94
6, 249120, Note_on_c, 2, 68, 94
6, 249120, Note_on_c, 2, 74, 87
6, 249504, Note_off_c, 2, 74, 64
6, 249504, Note_off_c, 2, 68, 64
6, 249504, Note_off_c, 2, 65, 64
6, 249600, Note_on_c, 2, 65, 90
6, 249600, Note_on_c, 2, 69, 90
6, 249600, Note_on_c, 2, 72, 86
6, 249600, Note_on_c, 2, 77, 84
6, 250368, Note_off_c, 2, 77, 64
6, 250368, Note_off_c, 2, 72, 64
6, 250368, Note_off_c, 2, 69, 64
6, 250368, Note_off_c, 2, 65, 64
6, 250560, Note_on_c, 2, 65, 90
6, 250560, Note_on_c, 2, 69, 88
6, 250560, Note_on_c, 2, 72, 95
6, 250560, Note_on_c, 2, 77, 90
6, 251020, Note_off_c, 2, 77, 64
6, 251020, Note_off_c, 2, 72, 64
6, 251020, Note_off_c, 2, 69, 64
6, 251020, Note_off_c, 2, 65, 64
6, 251040, Control_c, 2, 86, 37
6, 251040, End_track
7, 0, Start_track
7, 0, Title_t, "Piano   "
7, 0, MIDI_port, 0
7, 0, Channel_prefix, 3
7, 0, Control_c, 3, 7, 109
7, 0, Control_c, 3, 10, 112
7, 0, Program_c, 3, 1
7, 0, Control_c, 3, 121, 0
7, 40, Control_c, 3, 123, 0
7, 80, Control_c, 3, 93, 85
7, 120, Control_c, 3, 91, 45
7, 160, Control_c, 3, 64, 0
7, 1920, Note_on_c, 3, 65, 107
7, 1920, Note_on_c, 3, 60, 107
7, 1920, Note_on_c, 3, 57, 107
7, 2088, Note_off_c, 3, 57, 64
7, 2088, Note_off_c, 3, 60, 64
7, 2088, Note_off_c, 3, 65, 64
7, 2160, Note_on_c, 3, 65, 102
7, 2160, Note_on_c, 3, 60, 102
7, 2160, Note_on_c, 3, 57, 102
7, 2296, Note_off_c, 3, 57, 64
7, 2296, Note_off_c, 3, 60, 64
7, 2296, Note_off_c, 3, 65, 64
7, 2640, Note_on_c, 3, 65, 102
7, 2640, Note_on_c, 3, 60, 102
7, 2640, Note_on_c, 3, 57, 102
7, 3396, Note_off_c, 3, 57, 64
7, 3396, Note_off_c, 3, 60, 64
7, 3396, Note_off_c, 3, 65, 64
7, 3840, Note_on_c, 3, 65, 107
7, 3840, Note_on_c, 3, 62, 107
7, 3840, Note_on_c, 3, 57, 107
7, 4560, Note_on_c, 3, 50, 100
7, 4592, Note_off_c, 3, 57, 64
7, 4592, Note_off_c, 3, 62, 64
7, 4592, Note_off_c, 3, 65, 64
7, 4800, Note_on_c, 3, 65, 105
7, 4800, Note_on_c, 3, 62, 105
7, 4800, Note_on_c, 3, 57, 105
7, 4828, Note_off_c, 3, 50, 64
7, 5124, Note_off_c, 3, 65, 64
7, 5124, Note_off_c, 3, 62, 64
7, 5124, Note_off_c, 3, 57, 64
7, 5280, Note_on_c, 3, 65, 120
7, 5280, Note_on_c, 3, 62, 120
7, 5280, Note_on_c, 3, 57, 120
7, 5444, Note_off_c, 3, 57, 64
7, 5444, Note_off_c, 3, 62, 64
7, 5444, Note_off_c, 3, 65, 64
7, 5760, Note_on_c, 3, 65, 107
7, 5760, Note_on_c, 3, 60, 107
7, 5760, Note_on_c, 3, 57, 107
7, 5928, Note_off_c, 3, 57, 64
7, 5928, Note_off_c, 3, 60, 64
7, 5928, Note_off_c, 3, 65, 64
7, 6000, Note_on_c, 3, 65, 102
7, 6000, Note_on_c, 3, 60, 102
7, 6000, Note_on_c, 3, 57, 102
7, 6136, Note_off_c, 3, 57, 64
7, 6136, Note_off_c, 3, 60, 64
7, 6136, Note_off_c, 3, 65, 64
7, 6480, Note_on_c, 3, 65, 102
7, 6480, Note_on_c, 3, 60, 102
7, 6480, Note_on_c, 3, 57, 102
7, 7236, Note_off_c, 3, 57, 64
7, 7236, Note_off_c, 3, 60, 64
7, 7236, Note_off_c, 3, 65, 64
7, 7680, Note_on_c, 3, 65, 105
7, 7680, Note_on_c, 3, 62, 105
7, 7680, Note_on_c, 3, 57, 105
7, 8640, Note_on_c, 3, 62, 94
7, 8880, Note_off_c, 3, 62, 64
7, 8880, Note_on_c, 3, 65, 90
7, 8908, Note_off_c, 3, 65, 64
7, 8908, Note_off_c, 3, 57, 64
7, 8908, Note_off_c, 3, 62, 64
7, 9120, Note_on_c, 3, 69, 100
7, 9128, Note_off_c, 3, 65, 64
7, 9356, Note_off_c, 3, 69, 64
7, 9360, Note_on_c, 3, 74, 120
7, 9444, Note_off_c, 3, 74, 64
7, 9600, Note_on_c, 3, 65, 109
7, 9600, Note_on_c, 3, 60, 109
7, 9600, Note_on_c, 3, 57, 109
7, 11436, Note_off_c, 3, 57, 64
7, 11436, Note_off_c, 3, 60, 64
7, 11436, Note_off_c, 3, 65, 64
7, 11520, Note_on_c, 3, 65, 107
7, 11520, Note_on_c, 3, 62, 107
7, 11520, Note_on_c, 3, 57, 107
7, 11688, Note_off_c, 3, 57, 64
7, 11688, Note_off_c, 3, 62, 64
7, 11688, Note_off_c, 3, 65, 64
7, 11760, Note_on_c, 3, 65, 102
7, 11760, Note_on_c, 3, 62, 102
7, 11760, Note_on_c, 3, 57, 102
7, 11896, Note_off_c, 3, 57, 64
7, 11896, Note_off_c, 3, 62, 64
7, 11896, Note_off_c, 3, 65, 64
7, 12240, Note_on_c, 3, 65, 102
7, 12240, Note_on_c, 3, 62, 102
7, 12240, Note_on_c, 3, 57, 102
7, 12996, Note_off_c, 3, 57, 64
7, 12996, Note_off_c, 3, 62, 64
7, 12996, Note_off_c, 3, 65, 64
7, 13440, Note_on_c, 3, 65, 107
7, 13440, Note_on_c, 3, 60, 107
7, 13440, Note_on_c, 3, 57, 107
7, 13608, Note_off_c, 3, 57, 64
7, 13608, Note_off_c, 3, 60, 64
7, 13608, Note_off_c, 3, 65, 64
7, 13680, Note_on_c, 3, 65, 102
7, 13680, Note_on_c, 3, 60, 102
7, 13680, Note_on_c, 3, 57, 102
7, 13816, Note_off_c, 3, 57, 64
7, 13816, Note_off_c, 3, 60, 64
7, 13816, Note_off_c, 3, 65, 64
7, 14160, Note_on_c, 3, 65, 102
7, 14160, Note_on_c, 3, 60, 102
7, 14160, Note_on_c, 3, 57, 102
7, 14916, Note_off_c, 3, 57, 64
7, 14916, Note_off_c, 3, 60, 64
7, 14916, Note_off_c, 3, 65, 64
7, 15360, Note_on_c, 3, 65, 109
7, 15360, Note_on_c, 3, 62, 109
7, 15360, Note_on_c, 3, 57, 109
7, 17196, Note_off_c, 3, 57, 64
7, 17196, Note_off_c, 3, 62, 64
7, 17196, Note_off_c, 3, 65, 64
7, 17520, Note_on_c, 3, 65, 102
7, 17520, Note_on_c, 3, 60, 102
7, 17520, Note_on_c, 3, 57, 102
7, 17704, Note_off_c, 3, 57, 64
7, 17704, Note_off_c, 3, 60, 64
7, 17704, Note_off_c, 3, 65, 64
7, 18000, Note_on_c, 3, 53, 88
7, 18240, Note_on_c, 3, 65, 100
7, 18240, Note_on_c, 3, 60, 100
7, 18240, Note_on_c, 3, 57, 100
7, 18280, Note_off_c, 3, 53, 64
7, 18520, Note_off_c, 3, 65, 64
7, 18520, Note_off_c, 3, 60, 64
7, 18520, Note_off_c, 3, 57, 64
7, 18720, Note_on_c, 3, 65, 102
7, 18720, Note_on_c, 3, 60, 102
7, 18720, Note_on_c, 3, 57, 102
7, 18872, Note_off_c, 3, 57, 64
7, 18872, Note_off_c, 3, 60, 64
7, 18872, Note_off_c, 3, 65, 64
7, 19200, Note_on_c, 3, 65, 107
7, 19200, Note_on_c, 3, 62, 107
7, 19200, Note_on_c, 3, 57, 107
7, 19368, Note_off_c, 3, 57, 64
7, 19368, Note_off_c, 3, 62, 64
7, 19368, Note_off_c, 3, 65, 64
7, 19440, Note_on_c, 3, 65, 102
7, 19440, Note_on_c, 3, 62, 102
7, 19440, Note_on_c, 3, 57, 102
7, 19576, Note_off_c, 3, 57, 64
7, 19576, Note_off_c, 3, 62, 64
7, 19576, Note_off_c, 3, 65, 64
7, 19920, Note_on_c, 3, 65, 102
7, 19920, Note_on_c, 3, 62, 102
7, 19920, Note_on_c, 3, 57, 102
7, 20676, Note_off_c, 3, 57, 64
7, 20676, Note_off_c, 3, 62, 64
7, 20676, Note_off_c, 3, 65, 64
7, 21120, Note_on_c, 3, 65, 107
7, 21120, Note_on_c, 3, 60, 107
7, 21120, Note_on_c, 3, 57, 107
7, 21288, Note_off_c, 3, 57, 64
7, 21288, Note_off_c, 3, 60, 64
7, 21288, Note_off_c, 3, 65, 64
7, 21360, Note_on_c, 3, 65, 102
7, 21360, Note_on_c, 3, 60, 102
7, 21360, Note_on_c, 3, 57, 102
7, 21496, Note_off_c, 3, 57, 64
7, 21496, Note_off_c, 3, 60, 64
7, 21496, Note_off_c, 3, 65, 64
7, 21840, Note_on_c, 3, 65, 102
7, 21840, Note_on_c, 3, 60, 102
7, 21840, Note_on_c, 3, 57, 102
7, 22596, Note_off_c, 3, 57, 64
7, 22596, Note_off_c, 3, 60, 64
7, 22596, Note_off_c, 3, 65, 64
7, 23040, Note_on_c, 3, 65, 107
7, 23040, Note_on_c, 3, 62, 107
7, 23040, Note_on_c, 3, 57, 107
7, 23760, Note_on_c, 3, 50, 100
7, 23792, Note_off_c, 3, 57, 64
7, 23792, Note_off_c, 3, 62, 64
7, 23792, Note_off_c, 3, 65, 64
7, 24000, Note_on_c, 3, 65, 105
7, 24000, Note_on_c, 3, 62, 105
7, 24000, Note_on_c, 3, 57, 105
7, 24028, Note_off_c, 3, 50, 64
7, 24324, Note_off_c, 3, 65, 64
7, 24324, Note_off_c, 3, 62, 64
7, 24324, Note_off_c, 3, 57, 64
7, 24480, Note_on_c, 3, 65, 120
7, 24480, Note_on_c, 3, 62, 120
7, 24480, Note_on_c, 3, 57, 120
7, 24644, Note_off_c, 3, 57, 64
7, 24644, Note_off_c, 3, 62, 64
7, 24644, Note_off_c, 3, 65, 64
7, 24960, Note_on_c, 3, 65, 107
7, 24960, Note_on_c, 3, 62, 107
7, 24960, Note_on_c, 3, 57, 107
7, 25680, Note_on_c, 3, 50, 100
7, 25712, Note_off_c, 3, 57, 64
7, 25712, Note_off_c, 3, 62, 64
7, 25712, Note_off_c, 3, 65, 64
7, 25920, Note_on_c, 3, 65, 105
7, 25920, Note_on_c, 3, 62, 105
7, 25920, Note_on_c, 3, 57, 105
7, 25948, Note_off_c, 3, 50, 64
7, 26244, Note_off_c, 3, 65, 64
7, 26244, Note_off_c, 3, 62, 64
7, 26244, Note_off_c, 3, 57, 64
7, 26400, Note_on_c, 3, 65, 120
7, 26400, Note_on_c, 3, 62, 120
7, 26400, Note_on_c, 3, 57, 120
7, 26564, Note_off_c, 3, 57, 64
7, 26564, Note_off_c, 3, 62, 64
7, 26564, Note_off_c, 3, 65, 64
7, 26880, Note_on_c, 3, 62, 107
7, 26880, Note_on_c, 3, 58, 107
7, 26880, Note_on_c, 3, 53, 107
7, 27048, Note_off_c, 3, 53, 64
7, 27048, Note_off_c, 3, 58, 64
7, 27048, Note_off_c, 3, 62, 64
7, 27120, Note_on_c, 3, 62, 102
7, 27120, Note_on_c, 3, 58, 102
7, 27120, Note_on_c, 3, 53, 102
7, 27256, Note_off_c, 3, 53, 64
7, 27256, Note_off_c, 3, 58, 64
7, 27256, Note_off_c, 3, 62, 64
7, 27600, Note_on_c, 3, 62, 102
7, 27600, Note_on_c, 3, 58, 102
7, 27600, Note_on_c, 3, 53, 102
7, 28356, Note_off_c, 3, 53, 64
7, 28356, Note_off_c, 3, 58, 64
7, 28356, Note_off_c, 3, 62, 64
7, 28800, Note_on_c, 3, 64, 105
7, 28800, Note_on_c, 3, 60, 105
7, 28800, Note_on_c, 3, 58, 105
7, 28800, Note_on_c, 3, 67, 105
7, 29760, Note_on_c, 3, 60, 94
7, 30000, Note_off_c, 3, 60, 64
7, 30000, Note_on_c, 3, 64, 90
7, 30028, Note_off_c, 3, 64, 64
7, 30028, Note_off_c, 3, 58, 64
7, 30028, Note_off_c, 3, 67, 64
7, 30028, Note_off_c, 3, 60, 64
7, 30240, Note_on_c, 3, 67, 100
7, 30248, Note_off_c, 3, 64, 64
7, 30476, Note_off_c, 3, 67, 64
7, 30480, Note_on_c, 3, 72, 120
7, 30564, Note_off_c, 3, 72, 64
7, 30720, Note_on_c, 3, 65, 107
7, 30720, Note_on_c, 3, 60, 107
7, 30720, Note_on_c, 3, 57, 107
7, 31440, Note_on_c, 3, 53, 100
7, 31472, Note_off_c, 3, 57, 64
7, 31472, Note_off_c, 3, 60, 64
7, 31472, Note_off_c, 3, 65, 64
7, 31680, Note_on_c, 3, 65, 105
7, 31680, Note_on_c, 3, 60, 105
7, 31680, Note_on_c, 3, 57, 105
7, 31708, Note_off_c, 3, 53, 64
7, 32004, Note_off_c, 3, 65, 64
7, 32004, Note_off_c, 3, 60, 64
7, 32004, Note_off_c, 3, 57, 64
7, 32160, Note_on_c, 3, 65, 120
7, 32160, Note_on_c, 3, 60, 120
7, 32160, Note_on_c, 3, 57, 120
7, 32324, Note_off_c, 3, 57, 64
7, 32324, Note_off_c, 3, 60, 64
7, 32324, Note_off_c, 3, 65, 64
7, 32640, Note_on_c, 3, 65, 107
7, 32640, Note_on_c, 3, 62, 107
7, 32640, Note_on_c, 3, 57, 107
7, 33360, Note_on_c, 3, 50, 100
7, 33392, Note_off_c, 3, 57, 64
7, 33392, Note_off_c, 3, 62, 64
7, 33392, Note_off_c, 3, 65, 64
7, 33600, Note_on_c, 3, 65, 105
7, 33600, Note_on_c, 3, 62, 105
7, 33600, Note_on_c, 3, 57, 105
7, 33628, Note_off_c, 3, 50, 64
7, 33924, Note_off_c, 3, 65, 64
7, 33924, Note_off_c, 3, 62, 64
7, 33924, Note_off_c, 3, 57, 64
7, 34080, Note_on_c, 3, 65, 120
7, 34080, Note_on_c, 3, 62, 120
7, 34080, Note_on_c, 3, 57, 120
7, 34244, Note_off_c, 3, 57, 64
7, 34244, Note_off_c, 3, 62, 64
7, 34244, Note_off_c, 3, 65, 64
7, 34560, Note_on_c, 3, 65, 107
7, 34560, Note_on_c, 3, 60, 107
7, 34560, Note_on_c, 3, 57, 107
7, 34728, Note_off_c, 3, 57, 64
7, 34728, Note_off_c, 3, 60, 64
7, 34728, Note_off_c, 3, 65, 64
7, 34800, Note_on_c, 3, 65, 102
7, 34800, Note_on_c, 3, 60, 102
7, 34800, Note_on_c, 3, 57, 102
7, 34936, Note_off_c, 3, 57, 64
7, 34936, Note_off_c, 3, 60, 64
7, 34936, Note_off_c, 3, 65, 64
7, 35280, Note_on_c, 3, 65, 102
7, 35280, Note_on_c, 3, 60, 102
7, 35280, Note_on_c, 3, 57, 102
7, 36036, Note_off_c, 3, 57, 64
7, 36036, Note_off_c, 3, 60, 64
7, 36036, Note_off_c, 3, 65, 64
7, 36480, Note_on_c, 3, 65, 107
7, 36480, Note_on_c, 3, 62, 107
7, 36480, Note_on_c, 3, 57, 107
7, 36648, Note_off_c, 3, 57, 64
7, 36648, Note_off_c, 3, 62, 64
7, 36648, Note_off_c, 3, 65, 64
7, 36720, Note_on_c, 3, 65, 102
7, 36720, Note_on_c, 3, 62, 102
7, 36720, Note_on_c, 3, 57, 102
7, 36856, Note_off_c, 3, 57, 64
7, 36856, Note_off_c, 3, 62, 64
7, 36856, Note_off_c, 3, 65, 64
7, 37200, Note_on_c, 3, 65, 102
7, 37200, Note_on_c, 3, 62, 102
7, 37200, Note_on_c, 3, 57, 102
7, 37956, Note_off_c, 3, 57, 64
7, 37956, Note_off_c, 3, 62, 64
7, 37956, Note_off_c, 3, 65, 64
7, 38400, Note_on_c, 3, 65, 107
7, 38400, Note_on_c, 3, 60, 107
7, 38400, Note_on_c, 3, 57, 107
7, 38568, Note_off_c, 3, 57, 64
7, 38568, Note_off_c, 3, 60, 64
7, 38568, Note_off_c, 3, 65, 64
7, 38640, Note_on_c, 3, 65, 102
7, 38640, Note_on_c, 3, 60, 102
7, 38640, Note_on_c, 3, 57, 102
7, 38776, Note_off_c, 3, 57, 64
7, 38776, Note_off_c, 3, 60, 64
7, 38776, Note_off_c, 3, 65, 64
7, 39120, Note_on_c, 3, 65, 102
7, 39120, Note_on_c, 3, 60, 102
7, 39120, Note_on_c, 3, 57, 102
7, 39876, Note_off_c, 3, 57, 64
7, 39876, Note_off_c, 3, 60, 64
7, 39876, Note_off_c, 3, 65, 64
7, 40320, Note_on_c, 3, 65, 105
7, 40320, Note_on_c, 3, 62, 105
7, 40320, Note_on_c, 3, 57, 105
7, 41280, Note_on_c, 3, 62, 94
7, 41520, Note_off_c, 3, 62, 64
7, 41520, Note_on_c, 3, 65, 90
7, 41548, Note_off_c, 3, 65, 64
7, 41548, Note_off_c, 3, 57, 64
7, 41548, Note_off_c, 3, 62, 64
7, 41760, Note_on_c, 3, 69, 100
7, 41768, Note_off_c, 3, 65, 64
7, 41996, Note_off_c, 3, 69, 64
7, 42000, Note_on_c, 3, 74, 120
7, 42084, Note_off_c, 3, 74, 64
7, 42240, Note_on_c, 3, 65, 105
7, 42240, Note_on_c, 3, 60, 105
7, 42240, Note_on_c, 3, 57, 105
7, 43200, Note_on_c, 3, 65, 94
7, 43440, Note_off_c, 3, 65, 64
7, 43440, Note_on_c, 3, 69, 90
7, 43468, Note_off_c, 3, 60, 64
7, 43468, Note_off_c, 3, 57, 64
7, 43468, Note_off_c, 3, 65, 64
7, 43680, Note_on_c, 3, 72, 100
7, 43688, Note_off_c, 3, 69, 64
7, 43916, Note_off_c, 3, 72, 64
7, 43920, Note_on_c, 3, 77, 120
7, 44004, Note_off_c, 3, 77, 64
7, 44160, Note_on_c, 3, 65, 105
7, 44160, Note_on_c, 3, 62, 105
7, 44160, Note_on_c, 3, 57, 105
7, 45120, Note_on_c, 3, 62, 94
7, 45360, Note_off_c, 3, 62, 64
7, 45360, Note_on_c, 3, 65, 90
7, 45388, Note_off_c, 3, 65, 64
7, 45388, Note_off_c, 3, 57, 64
7, 45388, Note_off_c, 3, 62, 64
7, 45600, Note_on_c, 3, 69, 100
7, 45608, Note_off_c, 3, 65, 64
7, 45836, Note_off_c, 3, 69, 64
7, 45840, Note_on_c, 3, 74, 120
7, 45924, Note_off_c, 3, 74, 64
7, 46080, Note_on_c, 3, 65, 107
7, 46080, Note_on_c, 3, 60, 107
7, 46080, Note_on_c, 3, 57, 107
7, 46800, Note_on_c, 3, 53, 100
7, 46832, Note_off_c, 3, 57, 64
7, 46832, Note_off_c, 3, 60, 64
7, 46832, Note_off_c, 3, 65, 64
7, 47040, Note_on_c, 3, 65, 105
7, 47040, Note_on_c, 3, 60, 105
7, 47040, Note_on_c, 3, 57, 105
7, 47068, Note_off_c, 3, 53, 64
7, 47364, Note_off_c, 3, 65, 64
7, 47364, Note_off_c, 3, 60, 64
7, 47364, Note_off_c, 3, 57, 64
7, 47520, Note_on_c, 3, 65, 120
7, 47520, Note_on_c, 3, 60, 120
7, 47520, Note_on_c, 3, 57, 120
7, 47684, Note_off_c, 3, 57, 64
7, 47684, Note_off_c, 3, 60, 64
7, 47684, Note_off_c, 3, 65, 64
7, 48240, Note_on_c, 3, 65, 102
7, 48240, Note_on_c, 3, 62, 102
7, 48240, Note_on_c, 3, 57, 102
7, 48424, Note_off_c, 3, 57, 64
7, 48424, Note_off_c, 3, 62, 64
7, 48424, Note_off_c, 3, 65, 64
7, 48720, Note_on_c, 3, 50, 88
7, 48960, Note_on_c, 3, 65, 100
7, 48960, Note_on_c, 3, 62, 100
7, 48960, Note_on_c, 3, 57, 100
7, 49000, Note_off_c, 3, 50, 64
7, 49240, Note_off_c, 3, 65, 64
7, 49240, Note_off_c, 3, 62, 64
7, 49240, Note_off_c, 3, 57, 64
7, 49440, Note_on_c, 3, 65, 102
7, 49440, Note_on_c, 3, 62, 102
7, 49440, Note_on_c, 3, 57, 102
7, 49592, Note_off_c, 3, 57, 64
7, 49592, Note_off_c, 3, 62, 64
7, 49592, Note_off_c, 3, 65, 64
7, 49920, Note_on_c, 3, 65, 105
7, 49920, Note_on_c, 3, 60, 105
7, 49920, Note_on_c, 3, 57, 105
7, 50880, Note_on_c, 3, 65, 94
7, 51120, Note_off_c, 3, 65, 64
7, 51120, Note_on_c, 3, 69, 90
7, 51148, Note_off_c, 3, 60, 64
7, 51148, Note_off_c, 3, 57, 64
7, 51148, Note_off_c, 3, 65, 64
7, 51360, Note_on_c, 3, 72, 100
7, 51368, Note_off_c, 3, 69, 64
7, 51596, Note_off_c, 3, 72, 64
7, 51600, Note_on_c, 3, 77, 120
7, 51684, Note_off_c, 3, 77, 64
7, 51840, Note_on_c, 3, 65, 105
7, 51840, Note_on_c, 3, 62, 105
7, 51840, Note_on_c, 3, 57, 105
7, 52800, Note_on_c, 3, 62, 94
7, 53040, Note_off_c, 3, 62, 64
7, 53040, Note_on_c, 3, 65, 90
7, 53068, Note_off_c, 3, 65, 64
7, 53068, Note_off_c, 3, 57, 64
7, 53068, Note_off_c, 3, 62, 64
7, 53280, Note_on_c, 3, 69, 100
7, 53288, Note_off_c, 3, 65, 64
7, 53516, Note_off_c, 3, 69, 64
7, 53520, Note_on_c, 3, 74, 120
7, 53604, Note_off_c, 3, 74, 64
7, 53760, Note_on_c, 3, 65, 109
7, 53760, Note_on_c, 3, 62, 109
7, 53760, Note_on_c, 3, 57, 109
7, 55596, Note_off_c, 3, 57, 64
7, 55596, Note_off_c, 3, 62, 64
7, 55596, Note_off_c, 3, 65, 64
7, 55680, Note_on_c, 3, 65, 107
7, 55680, Note_on_c, 3, 62, 107
7, 55680, Note_on_c, 3, 58, 107
7, 56400, Note_on_c, 3, 46, 100
7, 56432, Note_off_c, 3, 58, 64
7, 56432, Note_off_c, 3, 62, 64
7, 56432, Note_off_c, 3, 65, 64
7, 56640, Note_on_c, 3, 65, 105
7, 56640, Note_on_c, 3, 62, 105
7, 56640, Note_on_c, 3, 58, 105
7, 56668, Note_off_c, 3, 46, 64
7, 56964, Note_off_c, 3, 65, 64
7, 56964, Note_off_c, 3, 62, 64
7, 56964, Note_off_c, 3, 58, 64
7, 57120, Note_on_c, 3, 65, 120
7, 57120, Note_on_c, 3, 62, 120
7, 57120, Note_on_c, 3, 58, 120
7, 57284, Note_off_c, 3, 58, 64
7, 57284, Note_off_c, 3, 62, 64
7, 57284, Note_off_c, 3, 65, 64
7, 57600, Note_on_c, 3, 64, 107
7, 57600, Note_on_c, 3, 60, 107
7, 57600, Note_on_c, 3, 58, 107
7, 57600, Note_on_c, 3, 67, 107
7, 57768, Note_off_c, 3, 67, 64
7, 57768, Note_off_c, 3, 58, 64
7, 57768, Note_off_c, 3, 60, 64
7, 57768, Note_off_c, 3, 64, 64
7, 57840, Note_on_c, 3, 64, 102
7, 57840, Note_on_c, 3, 60, 102
7, 57840, Note_on_c, 3, 58, 102
7, 57840, Note_on_c, 3, 67, 102
7, 57976, Note_off_c, 3, 67, 64
7, 57976, Note_off_c, 3, 58, 64
7, 57976, Note_off_c, 3, 60, 64
7, 57976, Note_off_c, 3, 64, 64
7, 58320, Note_on_c, 3, 64, 102
7, 58320, Note_on_c, 3, 60, 102
7, 58320, Note_on_c, 3, 58, 102
7, 58320, Note_on_c, 3, 67, 102
7, 59076, Note_off_c, 3, 67, 64
7, 59076, Note_off_c, 3, 58, 64
7, 59076, Note_off_c, 3, 60, 64
7, 59076, Note_off_c, 3, 64, 64
7, 59520, Note_on_c, 3, 65, 107
7, 59520, Note_on_c, 3, 60, 107
7, 59520, Note_on_c, 3, 57, 107
7, 60240, Note_on_c, 3, 53, 100
7, 60272, Note_off_c, 3, 57, 64
7, 60272, Note_off_c, 3, 60, 64
7, 60272, Note_off_c, 3, 65, 64
7, 60480, Note_on_c, 3, 65, 105
7, 60480, Note_on_c, 3, 60, 105
7, 60480, Note_on_c, 3, 57, 105
7, 60508, Note_off_c, 3, 53, 64
7, 60804, Note_off_c, 3, 65, 64
7, 60804, Note_off_c, 3, 60, 64
7, 60804, Note_off_c, 3, 57, 64
7, 60960, Note_on_c, 3, 65, 120
7, 60960, Note_on_c, 3, 60, 120
7, 60960, Note_on_c, 3, 57, 120
7, 61124, Note_off_c, 3, 57, 64
7, 61124, Note_off_c, 3, 60, 64
7, 61124, Note_off_c, 3, 65, 64
7, 61440, Note_on_c, 3, 65, 109
7, 61440, Note_on_c, 3, 62, 109
7, 61440, Note_on_c, 3, 57, 109
7, 63276, Note_off_c, 3, 57, 64
7, 63276, Note_off_c, 3, 62, 64
7, 63276, Note_off_c, 3, 65, 64
7, 63360, Note_on_c, 3, 65, 109
7, 63360, Note_on_c, 3, 60, 109
7, 63360, Note_on_c, 3, 57, 109
7, 65196, Note_off_c, 3, 57, 64
7, 65196, Note_off_c, 3, 60, 64
7, 65196, Note_off_c, 3, 65, 64
7, 65280, Note_on_c, 3, 65, 107
7, 65280, Note_on_c, 3, 62, 107
7, 65280, Note_on_c, 3, 57, 107
7, 66000, Note_on_c, 3, 50, 100
7, 66032, Note_off_c, 3, 57, 64
7, 66032, Note_off_c, 3, 62, 64
7, 66032, Note_off_c, 3, 65, 64
7, 66240, Note_on_c, 3, 65, 105
7, 66240, Note_on_c, 3, 62, 105
7, 66240, Note_on_c, 3, 57, 105
7, 66268, Note_off_c, 3, 50, 64
7, 66564, Note_off_c, 3, 65, 64
7, 66564, Note_off_c, 3, 62, 64
7, 66564, Note_off_c, 3, 57, 64
7, 66720, Note_on_c, 3, 65, 120
7, 66720, Note_on_c, 3, 62, 120
7, 66720, Note_on_c, 3, 57, 120
7, 66884, Note_off_c, 3, 57, 64
7, 66884, Note_off_c, 3, 62, 64
7, 66884, Note_off_c, 3, 65, 64
7, 67200, Note_on_c, 3, 64, 105
7, 67200, Note_on_c, 3, 60, 105
7, 67200, Note_on_c, 3, 58, 105
7, 67200, Note_on_c, 3, 67, 105
7, 68160, Note_on_c, 3, 60, 94
7, 68400, Note_off_c, 3, 60, 64
7, 68400, Note_on_c, 3, 64, 90
7, 68428, Note_off_c, 3, 64, 64
7, 68428, Note_off_c, 3, 58, 64
7, 68428, Note_off_c, 3, 67, 64
7, 68428, Note_off_c, 3, 60, 64
7, 68640, Note_on_c, 3, 67, 100
7, 68648, Note_off_c, 3, 64, 64
7, 68876, Note_off_c, 3, 67, 64
7, 68880, Note_on_c, 3, 72, 120
7, 68964, Note_off_c, 3, 72, 64
7, 69120, Note_on_c, 3, 65, 107
7, 69120, Note_on_c, 3, 62, 107
7, 69120, Note_on_c, 3, 58, 107
7, 69288, Note_off_c, 3, 58, 64
7, 69288, Note_off_c, 3, 62, 64
7, 69288, Note_off_c, 3, 65, 64
7, 69360, Note_on_c, 3, 65, 102
7, 69360, Note_on_c, 3, 62, 102
7, 69360, Note_on_c, 3, 58, 102
7, 69496, Note_off_c, 3, 58, 64
7, 69496, Note_off_c, 3, 62, 64
7, 69496, Note_off_c, 3, 65, 64
7, 69840, Note_on_c, 3, 65, 102
7, 69840, Note_on_c, 3, 62, 102
7, 69840, Note_on_c, 3, 58, 102
7, 70596, Note_off_c, 3, 58, 64
7, 70596, Note_off_c, 3, 62, 64
7, 70596, Note_off_c, 3, 65, 64
7, 71040, Note_on_c, 3, 64, 107
7, 71040, Note_on_c, 3, 60, 107
7, 71040, Note_on_c, 3, 58, 107
7, 71040, Note_on_c, 3, 67, 107
7, 71208, Note_off_c, 3, 67, 64
7, 71208, Note_off_c, 3, 58, 64
7, 71208, Note_off_c, 3, 60, 64
7, 71208, Note_off_c, 3, 64, 64
7, 71280, Note_on_c, 3, 64, 102
7, 71280, Note_on_c, 3, 60, 102
7, 71280, Note_on_c, 3, 58, 102
7, 71280, Note_on_c, 3, 67, 102
7, 71416, Note_off_c, 3, 67, 64
7, 71416, Note_off_c, 3, 58, 64
7, 71416, Note_off_c, 3, 60, 64
7, 71416, Note_off_c, 3, 64, 64
7, 71760, Note_on_c, 3, 64, 102
7, 71760, Note_on_c, 3, 60, 102
7, 71760, Note_on_c, 3, 58, 102
7, 71760, Note_on_c, 3, 67, 102
7, 72516, Note_off_c, 3, 67, 64
7, 72516, Note_off_c, 3, 58, 64
7, 72516, Note_off_c, 3, 60, 64
7, 72516, Note_off_c, 3, 64, 64
7, 73200, Note_on_c, 3, 65, 102
7, 73200, Note_on_c, 3, 62, 102
7, 73200, Note_on_c, 3, 58, 102
7, 73384, Note_off_c, 3, 58, 64
7, 73384, Note_off_c, 3, 62, 64
7, 73384, Note_off_c, 3, 65, 64
7, 73680, Note_on_c, 3, 46, 88
7, 73920, Note_on_c, 3, 65, 100
7, 73920, Note_on_c, 3, 62, 100
7, 73920, Note_on_c, 3, 58, 100
7, 73960, Note_off_c, 3, 46, 64
7, 74200, Note_off_c, 3, 65, 64
7, 74200, Note_off_c, 3, 62, 64
7, 74200, Note_off_c, 3, 58, 64
7, 74400, Note_on_c, 3, 65, 102
7, 74400, Note_on_c, 3, 62, 102
7, 74400, Note_on_c, 3, 58, 102
7, 74552, Note_off_c, 3, 58, 64
7, 74552, Note_off_c, 3, 62, 64
7, 74552, Note_off_c, 3, 65, 64
7, 74880, Note_on_c, 3, 64, 107
7, 74880, Note_on_c, 3, 60, 107
7, 74880, Note_on_c, 3, 58, 107
7, 74880, Note_on_c, 3, 67, 107
7, 75048, Note_off_c, 3, 67, 64
7, 75048, Note_off_c, 3, 58, 64
7, 75048, Note_off_c, 3, 60, 64
7, 75048, Note_off_c, 3, 64, 64
7, 75120, Note_on_c, 3, 64, 102
7, 75120, Note_on_c, 3, 60, 102
7, 75120, Note_on_c, 3, 58, 102
7, 75120, Note_on_c, 3, 67, 102
7, 75256, Note_off_c, 3, 67, 64
7, 75256, Note_off_c, 3, 58, 64
7, 75256, Note_off_c, 3, 60, 64
7, 75256, Note_off_c, 3, 64, 64
7, 75600, Note_on_c, 3, 64, 102
7, 75600, Note_on_c, 3, 60, 102
7, 75600, Note_on_c, 3, 58, 102
7, 75600, Note_on_c, 3, 67, 102
7, 76356, Note_off_c, 3, 67, 64
7, 76356, Note_off_c, 3, 58, 64
7, 76356, Note_off_c, 3, 60, 64
7, 76356, Note_off_c, 3, 64, 64
7, 77040, Note_on_c, 3, 65, 102
7, 77040, Note_on_c, 3, 62, 102
7, 77040, Note_on_c, 3, 58, 102
7, 77224, Note_off_c, 3, 58, 64
7, 77224, Note_off_c, 3, 62, 64
7, 77224, Note_off_c, 3, 65, 64
7, 77520, Note_on_c, 3, 46, 88
7, 77760, Note_on_c, 3, 65, 100
7, 77760, Note_on_c, 3, 62, 100
7, 77760, Note_on_c, 3, 58, 100
7, 77800, Note_off_c, 3, 46, 64
7, 78040, Note_off_c, 3, 65, 64
7, 78040, Note_off_c, 3, 62, 64
7, 78040, Note_off_c, 3, 58, 64
7, 78240, Note_on_c, 3, 65, 102
7, 78240, Note_on_c, 3, 62, 102
7, 78240, Note_on_c, 3, 58, 102
7, 78392, Note_off_c, 3, 58, 64
7, 78392, Note_off_c, 3, 62, 64
7, 78392, Note_off_c, 3, 65, 64
7, 78720, Note_on_c, 3, 64, 105
7, 78720, Note_on_c, 3, 60, 105
7, 78720, Note_on_c, 3, 58, 105
7, 78720, Note_on_c, 3, 67, 105
7, 79680, Note_on_c, 3, 60, 94
7, 79920, Note_off_c, 3, 60, 64
7, 79920, Note_on_c, 3, 64, 90
7, 79948, Note_off_c, 3, 64, 64
7, 79948, Note_off_c, 3, 58, 64
7, 79948, Note_off_c, 3, 67, 64
7, 79948, Note_off_c, 3, 60, 64
7, 80160, Note_on_c, 3, 67, 100
7, 80168, Note_off_c, 3, 64, 64
7, 80396, Note_off_c, 3, 67, 64
7, 80400, Note_on_c, 3, 72, 120
7, 80484, Note_off_c, 3, 72, 64
7, 80880, Note_on_c, 3, 65, 102
7, 80880, Note_on_c, 3, 62, 102
7, 80880, Note_on_c, 3, 58, 102
7, 81064, Note_off_c, 3, 58, 64
7, 81064, Note_off_c, 3, 62, 64
7, 81064, Note_off_c, 3, 65, 64
7, 81360, Note_on_c, 3, 46, 88
7, 81600, Note_on_c, 3, 65, 100
7, 81600, Note_on_c, 3, 62, 100
7, 81600, Note_on_c, 3, 58, 100
7, 81640, Note_off_c, 3, 46, 64
7, 81880, Note_off_c, 3, 65, 64
7, 81880, Note_off_c, 3, 62, 64
7, 81880, Note_off_c, 3, 58, 64
7, 82080, Note_on_c, 3, 65, 102
7, 82080, Note_on_c, 3, 62, 102
7, 82080, Note_on_c, 3, 58, 102
7, 82232, Note_off_c, 3, 58, 64
7, 82232, Note_off_c, 3, 62, 64
7, 82232, Note_off_c, 3, 65, 64
7, 82560, Note_on_c, 3, 64, 109
7, 82560, Note_on_c, 3, 60, 109
7, 82560, Note_on_c, 3, 58, 109
7, 82560, Note_on_c, 3, 67, 109
7, 84396, Note_off_c, 3, 67, 64
7, 84396, Note_off_c, 3, 58, 64
7, 84396, Note_off_c, 3, 60, 64
7, 84396, Note_off_c, 3, 64, 64
7, 84480, Note_on_c, 3, 65, 107
7, 84480, Note_on_c, 3, 62, 107
7, 84480, Note_on_c, 3, 58, 107
7, 84648, Note_off_c, 3, 58, 64
7, 84648, Note_off_c, 3, 62, 64
7, 84648, Note_off_c, 3, 65, 64
7, 84720, Note_on_c, 3, 65, 102
7, 84720, Note_on_c, 3, 62, 102
7, 84720, Note_on_c, 3, 58, 102
7, 84856, Note_off_c, 3, 58, 64
7, 84856, Note_off_c, 3, 62, 64
7, 84856, Note_off_c, 3, 65, 64
7, 85200, Note_on_c, 3, 65, 102
7, 85200, Note_on_c, 3, 62, 102
7, 85200, Note_on_c, 3, 58, 102
7, 85956, Note_off_c, 3, 58, 64
7, 85956, Note_off_c, 3, 62, 64
7, 85956, Note_off_c, 3, 65, 64
7, 86400, Note_on_c, 3, 64, 105
7, 86400, Note_on_c, 3, 60, 105
7, 86400, Note_on_c, 3, 58, 105
7, 86400, Note_on_c, 3, 67, 105
7, 87360, Note_on_c, 3, 60, 94
7, 87600, Note_off_c, 3, 60, 64
7, 87600, Note_on_c, 3, 64, 90
7, 87628, Note_off_c, 3, 64, 64
7, 87628, Note_off_c, 3, 58, 64
7, 87628, Note_off_c, 3, 67, 64
7, 87628, Note_off_c, 3, 60, 64
7, 87840, Note_on_c, 3, 67, 100
7, 87848, Note_off_c, 3, 64, 64
7, 88076, Note_off_c, 3, 67, 64
7, 88080, Note_on_c, 3, 72, 120
7, 88164, Note_off_c, 3, 72, 64
7, 88320, Note_on_c, 3, 65, 107
7, 88320, Note_on_c, 3, 62, 107
7, 88320, Note_on_c, 3, 58, 107
7, 89040, Note_on_c, 3, 46, 100
7, 89072, Note_off_c, 3, 58, 64
7, 89072, Note_off_c, 3, 62, 64
7, 89072, Note_off_c, 3, 65, 64
7, 89280, Note_on_c, 3, 65, 105
7, 89280, Note_on_c, 3, 62, 105
7, 89280, Note_on_c, 3, 58, 105
7, 89308, Note_off_c, 3, 46, 64
7, 89604, Note_off_c, 3, 65, 64
7, 89604, Note_off_c, 3, 62, 64
7, 89604, Note_off_c, 3, 58, 64
7, 89760, Note_on_c, 3, 65, 120
7, 89760, Note_on_c, 3, 62, 120
7, 89760, Note_on_c, 3, 58, 120
7, 89924, Note_off_c, 3, 58, 64
7, 89924, Note_off_c, 3, 62, 64
7, 89924, Note_off_c, 3, 65, 64
7, 90240, Note_on_c, 3, 64, 107
7, 90240, Note_on_c, 3, 60, 107
7, 90240, Note_on_c, 3, 58, 107
7, 90240, Note_on_c, 3, 67, 107
7, 90408, Note_off_c, 3, 67, 64
7, 90408, Note_off_c, 3, 58, 64
7, 90408, Note_off_c, 3, 60, 64
7, 90408, Note_off_c, 3, 64, 64
7, 90480, Note_on_c, 3, 64, 102
7, 90480, Note_on_c, 3, 60, 102
7, 90480, Note_on_c, 3, 58, 102
7, 90480, Note_on_c, 3, 67, 102
7, 90616, Note_off_c, 3, 67, 64
7, 90616, Note_off_c, 3, 58, 64
7, 90616, Note_off_c, 3, 60, 64
7, 90616, Note_off_c, 3, 64, 64
7, 90960, Note_on_c, 3, 64, 102
7, 90960, Note_on_c, 3, 60, 102
7, 90960, Note_on_c, 3, 58, 102
7, 90960, Note_on_c, 3, 67, 102
7, 91716, Note_off_c, 3, 67, 64
7, 91716, Note_off_c, 3, 58, 64
7, 91716, Note_off_c, 3, 60, 64
7, 91716, Note_off_c, 3, 64, 64
7, 92400, Note_on_c, 3, 65, 102
7, 92400, Note_on_c, 3, 62, 102
7, 92400, Note_on_c, 3, 58, 102
7, 92584, Note_off_c, 3, 58, 64
7, 92584, Note_off_c, 3, 62, 64
7, 92584, Note_off_c, 3, 65, 64
7, 92880, Note_on_c, 3, 46, 88
7, 93120, Note_on_c, 3, 65, 100
7, 93120, Note_on_c, 3, 62, 100
7, 93120, Note_on_c, 3, 58, 100
7, 93160, Note_off_c, 3, 46, 64
7, 93400, Note_off_c, 3, 65, 64
7, 93400, Note_off_c, 3, 62, 64
7, 93400, Note_off_c, 3, 58, 64
7, 93600, Note_on_c, 3, 65, 102
7, 93600, Note_on_c, 3, 62, 102
7, 93600, Note_on_c, 3, 58, 102
7, 93752, Note_off_c, 3, 58, 64
7, 93752, Note_off_c, 3, 62, 64
7, 93752, Note_off_c, 3, 65, 64
7, 94320, Note_on_c, 3, 65, 102
7, 94320, Note_on_c, 3, 60, 102
7, 94320, Note_on_c, 3, 57, 102
7, 94504, Note_off_c, 3, 57, 64
7, 94504, Note_off_c, 3, 60, 64
7, 94504, Note_off_c, 3, 65, 64
7, 94800, Note_on_c, 3, 53, 88
7, 95040, Note_on_c, 3, 65, 100
7, 95040, Note_on_c, 3, 60, 100
7, 95040, Note_on_c, 3, 57, 100
7, 95080, Note_off_c, 3, 53, 64
7, 95320, Note_off_c, 3, 65, 64
7, 95320, Note_off_c, 3, 60, 64
7, 95320, Note_off_c, 3, 57, 64
7, 95520, Note_on_c, 3, 65, 102
7, 95520, Note_on_c, 3, 60, 102
7, 95520, Note_on_c, 3, 57, 102
7, 95672, Note_off_c, 3, 57, 64
7, 95672, Note_off_c, 3, 60, 64
7, 95672, Note_off_c, 3, 65, 64
7, 96000, Note_on_c, 3, 65, 107
7, 96000, Note_on_c, 3, 62, 107
7, 96000, Note_on_c, 3, 57, 107
7, 96720, Note_on_c, 3, 50, 100
7, 96752, Note_off_c, 3, 57, 64
7, 96752, Note_off_c, 3, 62, 64
7, 96752, Note_off_c, 3, 65, 64
7, 96960, Note_on_c, 3, 65, 105
7, 96960, Note_on_c, 3, 62, 105
7, 96960, Note_on_c, 3, 57, 105
7, 96988, Note_off_c, 3, 50, 64
7, 97284, Note_off_c, 3, 65, 64
7, 97284, Note_off_c, 3, 62, 64
7, 97284, Note_off_c, 3, 57, 64
7, 97440, Note_on_c, 3, 65, 120
7, 97440, Note_on_c, 3, 62, 120
7, 97440, Note_on_c, 3, 57, 120
7, 97604, Note_off_c, 3, 57, 64
7, 97604, Note_off_c, 3, 62, 64
7, 97604, Note_off_c, 3, 65, 64
7, 97920, Note_on_c, 3, 65, 107
7, 97920, Note_on_c, 3, 60, 107
7, 97920, Note_on_c, 3, 57, 107
7, 98088, Note_off_c, 3, 57, 64
7, 98088, Note_off_c, 3, 60, 64
7, 98088, Note_off_c, 3, 65, 64
7, 98160, Note_on_c, 3, 65, 102
7, 98160, Note_on_c, 3, 60, 102
7, 98160, Note_on_c, 3, 57, 102
7, 98296, Note_off_c, 3, 57, 64
7, 98296, Note_off_c, 3, 60, 64
7, 98296, Note_off_c, 3, 65, 64
7, 98640, Note_on_c, 3, 65, 102
7, 98640, Note_on_c, 3, 60, 102
7, 98640, Note_on_c, 3, 57, 102
7, 99396, Note_off_c, 3, 57, 64
7, 99396, Note_off_c, 3, 60, 64
7, 99396, Note_off_c, 3, 65, 64
7, 99840, Note_on_c, 3, 65, 105
7, 99840, Note_on_c, 3, 62, 105
7, 99840, Note_on_c, 3, 57, 105
7, 100800, Note_on_c, 3, 62, 94
7, 101040, Note_off_c, 3, 62, 64
7, 101040, Note_on_c, 3, 65, 90
7, 101068, Note_off_c, 3, 65, 64
7, 101068, Note_off_c, 3, 57, 64
7, 101068, Note_off_c, 3, 62, 64
7, 101280, Note_on_c, 3, 69, 100
7, 101288, Note_off_c, 3, 65, 64
7, 101516, Note_off_c, 3, 69, 64
7, 101520, Note_on_c, 3, 74, 120
7, 101604, Note_off_c, 3, 74, 64
7, 101760, Note_on_c, 3, 65, 109
7, 101760, Note_on_c, 3, 60, 109
7, 101760, Note_on_c, 3, 57, 109
7, 103596, Note_off_c, 3, 57, 64
7, 103596, Note_off_c, 3, 60, 64
7, 103596, Note_off_c, 3, 65, 64
7, 103920, Note_on_c, 3, 65, 102
7, 103920, Note_on_c, 3, 62, 102
7, 103920, Note_on_c, 3, 57, 102
7, 104104, Note_off_c, 3, 57, 64
7, 104104, Note_off_c, 3, 62, 64
7, 104104, Note_off_c, 3, 65, 64
7, 104400, Note_on_c, 3, 50, 88
7, 104640, Note_on_c, 3, 65, 100
7, 104640, Note_on_c, 3, 62, 100
7, 104640, Note_on_c, 3, 57, 100
7, 104680, Note_off_c, 3, 50, 64
7, 104920, Note_off_c, 3, 65, 64
7, 104920, Note_off_c, 3, 62, 64
7, 104920, Note_off_c, 3, 57, 64
7, 105120, Note_on_c, 3, 65, 102
7, 105120, Note_on_c, 3, 62, 102
7, 105120, Note_on_c, 3, 57, 102
7, 105272, Note_off_c, 3, 57, 64
7, 105272, Note_off_c, 3, 62, 64
7, 105272, Note_off_c, 3, 65, 64
7, 105600, Note_on_c, 3, 65, 105
7, 105600, Note_on_c, 3, 60, 105
7, 105600, Note_on_c, 3, 57, 105
7, 106560, Note_on_c, 3, 65, 94
7, 106800, Note_off_c, 3, 65, 64
7, 106800, Note_on_c, 3, 69, 90
7, 106828, Note_off_c, 3, 60, 64
7, 106828, Note_off_c, 3, 57, 64
7, 106828, Note_off_c, 3, 65, 64
7, 107040, Note_on_c, 3, 72, 100
7, 107048, Note_off_c, 3, 69, 64
7, 107276, Note_off_c, 3, 72, 64
7, 107280, Note_on_c, 3, 77, 120
7, 107364, Note_off_c, 3, 77, 64
7, 107760, Note_on_c, 3, 65, 102
7, 107760, Note_on_c, 3, 62, 102
7, 107760, Note_on_c, 3, 57, 102
7, 107944, Note_off_c, 3, 57, 64
7, 107944, Note_off_c, 3, 62, 64
7, 107944, Note_off_c, 3, 65, 64
7, 108240, Note_on_c, 3, 50, 88
7, 108480, Note_on_c, 3, 65, 100
7, 108480, Note_on_c, 3, 62, 100
7, 108480, Note_on_c, 3, 57, 100
7, 108520, Note_off_c, 3, 50, 64
7, 108760, Note_off_c, 3, 65, 64
7, 108760, Note_off_c, 3, 62, 64
7, 108760, Note_off_c, 3, 57, 64
7, 108960, Note_on_c, 3, 65, 102
7, 108960, Note_on_c, 3, 62, 102
7, 108960, Note_on_c, 3, 57, 102
7, 109112, Note_off_c, 3, 57, 64
7, 109112, Note_off_c, 3, 62, 64
7, 109112, Note_off_c, 3, 65, 64
7, 109440, Note_on_c, 3, 65, 109
7, 109440, Note_on_c, 3, 60, 109
7, 109440, Note_on_c, 3, 57, 109
7, 111276, Note_off_c, 3, 57, 64
7, 111276, Note_off_c, 3, 60, 64
7, 111276, Note_off_c, 3, 65, 64
7, 111360, Note_on_c, 3, 65, 109
7, 111360, Note_on_c, 3, 62, 109
7, 111360, Note_on_c, 3, 57, 109
7, 113196, Note_off_c, 3, 57, 64
7, 113196, Note_off_c, 3, 62, 64
7, 113196, Note_off_c, 3, 65, 64
7, 113280, Note_on_c, 3, 65, 107
7, 113280, Note_on_c, 3, 60, 107
7, 113280, Note_on_c, 3, 57, 107
7, 113448, Note_off_c, 3, 57, 64
7, 113448, Note_off_c, 3, 60, 64
7, 113448, Note_off_c, 3, 65, 64
7, 113520, Note_on_c, 3, 65, 102
7, 113520, Note_on_c, 3, 60, 102
7, 113520, Note_on_c, 3, 57, 102
7, 113656, Note_off_c, 3, 57, 64
7, 113656, Note_off_c, 3, 60, 64
7, 113656, Note_off_c, 3, 65, 64
7, 114000, Note_on_c, 3, 65, 102
7, 114000, Note_on_c, 3, 60, 102
7, 114000, Note_on_c, 3, 57, 102
7, 114756, Note_off_c, 3, 57, 64
7, 114756, Note_off_c, 3, 60, 64
7, 114756, Note_off_c, 3, 65, 64
7, 115200, Note_on_c, 3, 65, 107
7, 115200, Note_on_c, 3, 62, 107
7, 115200, Note_on_c, 3, 57, 107
7, 115920, Note_on_c, 3, 50, 100
7, 115952, Note_off_c, 3, 57, 64
7, 115952, Note_off_c, 3, 62, 64
7, 115952, Note_off_c, 3, 65, 64
7, 116160, Note_on_c, 3, 65, 105
7, 116160, Note_on_c, 3, 62, 105
7, 116160, Note_on_c, 3, 57, 105
7, 116188, Note_off_c, 3, 50, 64
7, 116484, Note_off_c, 3, 65, 64
7, 116484, Note_off_c, 3, 62, 64
7, 116484, Note_off_c, 3, 57, 64
7, 116640, Note_on_c, 3, 65, 120
7, 116640, Note_on_c, 3, 62, 120
7, 116640, Note_on_c, 3, 57, 120
7, 116804, Note_off_c, 3, 57, 64
7, 116804, Note_off_c, 3, 62, 64
7, 116804, Note_off_c, 3, 65, 64
7, 117360, Note_on_c, 3, 65, 102
7, 117360, Note_on_c, 3, 62, 102
7, 117360, Note_on_c, 3, 57, 102
7, 117544, Note_off_c, 3, 57, 64
7, 117544, Note_off_c, 3, 62, 64
7, 117544, Note_off_c, 3, 65, 64
7, 117840, Note_on_c, 3, 50, 88
7, 118080, Note_on_c, 3, 65, 100
7, 118080, Note_on_c, 3, 62, 100
7, 118080, Note_on_c, 3, 57, 100
7, 118120, Note_off_c, 3, 50, 64
7, 118360, Note_off_c, 3, 65, 64
7, 118360, Note_off_c, 3, 62, 64
7, 118360, Note_off_c, 3, 57, 64
7, 118560, Note_on_c, 3, 65, 102
7, 118560, Note_on_c, 3, 62, 102
7, 118560, Note_on_c, 3, 57, 102
7, 118712, Note_off_c, 3, 57, 64
7, 118712, Note_off_c, 3, 62, 64
7, 118712, Note_off_c, 3, 65, 64
7, 119040, Note_on_c, 3, 65, 105
7, 119040, Note_on_c, 3, 62, 105
7, 119040, Note_on_c, 3, 58, 105
7, 120000, Note_on_c, 3, 58, 94
7, 120240, Note_off_c, 3, 58, 64
7, 120240, Note_on_c, 3, 62, 90
7, 120268, Note_off_c, 3, 62, 64
7, 120268, Note_off_c, 3, 65, 64
7, 120268, Note_off_c, 3, 58, 64
7, 120480, Note_on_c, 3, 65, 100
7, 120488, Note_off_c, 3, 62, 64
7, 120716, Note_off_c, 3, 65, 64
7, 120720, Note_on_c, 3, 70, 120
7, 120804, Note_off_c, 3, 70, 64
7, 120960, Note_on_c, 3, 64, 105
7, 120960, Note_on_c, 3, 60, 105
7, 120960, Note_on_c, 3, 58, 105
7, 120960, Note_on_c, 3, 67, 105
7, 121920, Note_on_c, 3, 60, 94
7, 122160, Note_off_c, 3, 60, 64
7, 122160, Note_on_c, 3, 64, 90
7, 122188, Note_off_c, 3, 64, 64
7, 122188, Note_off_c, 3, 58, 64
7, 122188, Note_off_c, 3, 67, 64
7, 122188, Note_off_c, 3, 60, 64
7, 122400, Note_on_c, 3, 67, 100
7, 122408, Note_off_c, 3, 64, 64
7, 122636, Note_off_c, 3, 67, 64
7, 122640, Note_on_c, 3, 72, 120
7, 122724, Note_off_c, 3, 72, 64
7, 122880, Note_on_c, 3, 65, 107
7, 122880, Note_on_c, 3, 60, 107
7, 122880, Note_on_c, 3, 57, 107
7, 123048, Note_off_c, 3, 57, 64
7, 123048, Note_off_c, 3, 60, 64
7, 123048, Note_off_c, 3, 65, 64
7, 123120, Note_on_c, 3, 65, 102
7, 123120, Note_on_c, 3, 60, 102
7, 123120, Note_on_c, 3, 57, 102
7, 123256, Note_off_c, 3, 57, 64
7, 123256, Note_off_c, 3, 60, 64
7, 123256, Note_off_c, 3, 65, 64
7, 123600, Note_on_c, 3, 65, 102
7, 123600, Note_on_c, 3, 60, 102
7, 123600, Note_on_c, 3, 57, 102
7, 124356, Note_off_c, 3, 57, 64
7, 124356, Note_off_c, 3, 60, 64
7, 124356, Note_off_c, 3, 65, 64
7, 125040, Note_on_c, 3, 65, 102
7, 125040, Note_on_c, 3, 62, 102
7, 125040, Note_on_c, 3, 57, 102
7, 125224, Note_off_c, 3, 57, 64
7, 125224, Note_off_c, 3, 62, 64
7, 125224, Note_off_c, 3, 65, 64
7, 125520, Note_on_c, 3, 50, 88
7, 125760, Note_on_c, 3, 65, 100
7, 125760, Note_on_c, 3, 62, 100
7, 125760, Note_on_c, 3, 57, 100
7, 125800, Note_off_c, 3, 50, 64
7, 126040, Note_off_c, 3, 65, 64
7, 126040, Note_off_c, 3, 62, 64
7, 126040, Note_off_c, 3, 57, 64
7, 126240, Note_on_c, 3, 65, 102
7, 126240, Note_on_c, 3, 62, 102
7, 126240, Note_on_c, 3, 57, 102
7, 126392, Note_off_c, 3, 57, 64
7, 126392, Note_off_c, 3, 62, 64
7, 126392, Note_off_c, 3, 65, 64
7, 126720, Note_on_c, 3, 65, 107
7, 126720, Note_on_c, 3, 60, 107
7, 126720, Note_on_c, 3, 57, 107
7, 126888, Note_off_c, 3, 57, 64
7, 126888, Note_off_c, 3, 60, 64
7, 126888, Note_off_c, 3, 65, 64
7, 126960, Note_on_c, 3, 65, 102
7, 126960, Note_on_c, 3, 60, 102
7, 126960, Note_on_c, 3, 57, 102
7, 127096, Note_off_c, 3, 57, 64
7, 127096, Note_off_c, 3, 60, 64
7, 127096, Note_off_c, 3, 65, 64
7, 127440, Note_on_c, 3, 65, 102
7, 127440, Note_on_c, 3, 60, 102
7, 127440, Note_on_c, 3, 57, 102
7, 128196, Note_off_c, 3, 57, 64
7, 128196, Note_off_c, 3, 60, 64
7, 128196, Note_off_c, 3, 65, 64
7, 128640, Note_on_c, 3, 65, 107
7, 128640, Note_on_c, 3, 62, 107
7, 128640, Note_on_c, 3, 57, 107
7, 129360, Note_on_c, 3, 50, 100
7, 129392, Note_off_c, 3, 57, 64
7, 129392, Note_off_c, 3, 62, 64
7, 129392, Note_off_c, 3, 65, 64
7, 129600, Note_on_c, 3, 65, 105
7, 129600, Note_on_c, 3, 62, 105
7, 129600, Note_on_c, 3, 57, 105
7, 129628, Note_off_c, 3, 50, 64
7, 129924, Note_off_c, 3, 65, 64
7, 129924, Note_off_c, 3, 62, 64
7, 129924, Note_off_c, 3, 57, 64
7, 130080, Note_on_c, 3, 65, 120
7, 130080, Note_on_c, 3, 62, 120
7, 130080, Note_on_c, 3, 57, 120
7, 130244, Note_off_c, 3, 57, 64
7, 130244, Note_off_c, 3, 62, 64
7, 130244, Note_off_c, 3, 65, 64
7, 130560, Note_on_c, 3, 65, 105
7, 130560, Note_on_c, 3, 60, 105
7, 130560, Note_on_c, 3, 57, 105
7, 131520, Note_on_c, 3, 65, 94
7, 131760, Note_off_c, 3, 65, 64
7, 131760, Note_on_c, 3, 69, 90
7, 131788, Note_off_c, 3, 60, 64
7, 131788, Note_off_c, 3, 57, 64
7, 131788, Note_off_c, 3, 65, 64
7, 132000, Note_on_c, 3, 72, 100
7, 132008, Note_off_c, 3, 69, 64
7, 132236, Note_off_c, 3, 72, 64
7, 132240, Note_on_c, 3, 77, 120
7, 132324, Note_off_c, 3, 77, 64
7, 132720, Note_on_c, 3, 65, 102
7, 132720, Note_on_c, 3, 62, 102
7, 132720, Note_on_c, 3, 57, 102
7, 132904, Note_off_c, 3, 57, 64
7, 132904, Note_off_c, 3, 62, 64
7, 132904, Note_off_c, 3, 65, 64
7, 133200, Note_on_c, 3, 50, 88
7, 133440, Note_on_c, 3, 65, 100
7, 133440, Note_on_c, 3, 62, 100
7, 133440, Note_on_c, 3, 57, 100
7, 133480, Note_off_c, 3, 50, 64
7, 133720, Note_off_c, 3, 65, 64
7, 133720, Note_off_c, 3, 62, 64
7, 133720, Note_off_c, 3, 57, 64
7, 133920, Note_on_c, 3, 65, 102
7, 133920, Note_on_c, 3, 62, 102
7, 133920, Note_on_c, 3, 57, 102
7, 134072, Note_off_c, 3, 57, 64
7, 134072, Note_off_c, 3, 62, 64
7, 134072, Note_off_c, 3, 65, 64
7, 134400, Note_on_c, 3, 65, 105
7, 134400, Note_on_c, 3, 60, 105
7, 134400, Note_on_c, 3, 57, 105
7, 135360, Note_on_c, 3, 65, 94
7, 135600, Note_off_c, 3, 65, 64
7, 135600, Note_on_c, 3, 69, 90
7, 135628, Note_off_c, 3, 60, 64
7, 135628, Note_off_c, 3, 57, 64
7, 135628, Note_off_c, 3, 65, 64
7, 135840, Note_on_c, 3, 72, 100
7, 135848, Note_off_c, 3, 69, 64
7, 136076, Note_off_c, 3, 72, 64
7, 136080, Note_on_c, 3, 77, 120
7, 136164, Note_off_c, 3, 77, 64
7, 136320, Note_on_c, 3, 65, 107
7, 136320, Note_on_c, 3, 62, 107
7, 136320, Note_on_c, 3, 57, 107
7, 136488, Note_off_c, 3, 57, 64
7, 136488, Note_off_c, 3, 62, 64
7, 136488, Note_off_c, 3, 65, 64
7, 136560, Note_on_c, 3, 65, 102
7, 136560, Note_on_c, 3, 62, 102
7, 136560, Note_on_c, 3, 57, 102
7, 136696, Note_off_c, 3, 57, 64
7, 136696, Note_off_c, 3, 62, 64
7, 136696, Note_off_c, 3, 65, 64
7, 137040, Note_on_c, 3, 65, 102
7, 137040, Note_on_c, 3, 62, 102
7, 137040, Note_on_c, 3, 57, 102
7, 137796, Note_off_c, 3, 57, 64
7, 137796, Note_off_c, 3, 62, 64
7, 137796, Note_off_c, 3, 65, 64
7, 138240, Note_on_c, 3, 65, 107
7, 138240, Note_on_c, 3, 60, 107
7, 138240, Note_on_c, 3, 57, 107
7, 138408, Note_off_c, 3, 57, 64
7, 138408, Note_off_c, 3, 60, 64
7, 138408, Note_off_c, 3, 65, 64
7, 138480, Note_on_c, 3, 65, 102
7, 138480, Note_on_c, 3, 60, 102
7, 138480, Note_on_c, 3, 57, 102
7, 138616, Note_off_c, 3, 57, 64
7, 138616, Note_off_c, 3, 60, 64
7, 138616, Note_off_c, 3, 65, 64
7, 138960, Note_on_c, 3, 65, 102
7, 138960, Note_on_c, 3, 60, 102
7, 138960, Note_on_c, 3, 57, 102
7, 139716, Note_off_c, 3, 57, 64
7, 139716, Note_off_c, 3, 60, 64
7, 139716, Note_off_c, 3, 65, 64
7, 140160, Note_on_c, 3, 65, 107
7, 140160, Note_on_c, 3, 62, 107
7, 140160, Note_on_c, 3, 57, 107
7, 140880, Note_on_c, 3, 50, 100
7, 140912, Note_off_c, 3, 57, 64
7, 140912, Note_off_c, 3, 62, 64
7, 140912, Note_off_c, 3, 65, 64
7, 141120, Note_on_c, 3, 65, 105
7, 141120, Note_on_c, 3, 62, 105
7, 141120, Note_on_c, 3, 57, 105
7, 141148, Note_off_c, 3, 50, 64
7, 141444, Note_off_c, 3, 65, 64
7, 141444, Note_off_c, 3, 62, 64
7, 141444, Note_off_c, 3, 57, 64
7, 141600, Note_on_c, 3, 65, 120
7, 141600, Note_on_c, 3, 62, 120
7, 141600, Note_on_c, 3, 57, 120
7, 141764, Note_off_c, 3, 57, 64
7, 141764, Note_off_c, 3, 62, 64
7, 141764, Note_off_c, 3, 65, 64
7, 142080, Note_on_c, 3, 65, 107
7, 142080, Note_on_c, 3, 60, 107
7, 142080, Note_on_c, 3, 57, 107
7, 142800, Note_on_c, 3, 53, 100
7, 142832, Note_off_c, 3, 57, 64
7, 142832, Note_off_c, 3, 60, 64
7, 142832, Note_off_c, 3, 65, 64
7, 143040, Note_on_c, 3, 65, 105
7, 143040, Note_on_c, 3, 60, 105
7, 143040, Note_on_c, 3, 57, 105
7, 143068, Note_off_c, 3, 53, 64
7, 143364, Note_off_c, 3, 65, 64
7, 143364, Note_off_c, 3, 60, 64
7, 143364, Note_off_c, 3, 57, 64
7, 143520, Note_on_c, 3, 65, 120
7, 143520, Note_on_c, 3, 60, 120
7, 143520, Note_on_c, 3, 57, 120
7, 143684, Note_off_c, 3, 57, 64
7, 143684, Note_off_c, 3, 60, 64
7, 143684, Note_off_c, 3, 65, 64
7, 144000, Note_on_c, 3, 65, 109
7, 144000, Note_on_c, 3, 62, 109
7, 144000, Note_on_c, 3, 57, 109
7, 145836, Note_off_c, 3, 57, 64
7, 145836, Note_off_c, 3, 62, 64
7, 145836, Note_off_c, 3, 65, 64
7, 145920, Note_on_c, 3, 65, 107
7, 145920, Note_on_c, 3, 62, 107
7, 145920, Note_on_c, 3, 57, 107
7, 146088, Note_off_c, 3, 57, 64
7, 146088, Note_off_c, 3, 62, 64
7, 146088, Note_off_c, 3, 65, 64
7, 146160, Note_on_c, 3, 65, 102
7, 146160, Note_on_c, 3, 62, 102
7, 146160, Note_on_c, 3, 57, 102
7, 146296, Note_off_c, 3, 57, 64
7, 146296, Note_off_c, 3, 62, 64
7, 146296, Note_off_c, 3, 65, 64
7, 146640, Note_on_c, 3, 65, 102
7, 146640, Note_on_c, 3, 62, 102
7, 146640, Note_on_c, 3, 57, 102
7, 147396, Note_off_c, 3, 57, 64
7, 147396, Note_off_c, 3, 62, 64
7, 147396, Note_off_c, 3, 65, 64
7, 147840, Note_on_c, 3, 65, 107
7, 147840, Note_on_c, 3, 62, 107
7, 147840, Note_on_c, 3, 58, 107
7, 148008, Note_off_c, 3, 58, 64
7, 148008, Note_off_c, 3, 62, 64
7, 148008, Note_off_c, 3, 65, 64
7, 148080, Note_on_c, 3, 65, 102
7, 148080, Note_on_c, 3, 62, 102
7, 148080, Note_on_c, 3, 58, 102
7, 148216, Note_off_c, 3, 58, 64
7, 148216, Note_off_c, 3, 62, 64
7, 148216, Note_off_c, 3, 65, 64
7, 148560, Note_on_c, 3, 65, 102
7, 148560, Note_on_c, 3, 62, 102
7, 148560, Note_on_c, 3, 58, 102
7, 149316, Note_off_c, 3, 58, 64
7, 149316, Note_off_c, 3, 62, 64
7, 149316, Note_off_c, 3, 65, 64
7, 150000, Note_on_c, 3, 64, 102
7, 150000, Note_on_c, 3, 60, 102
7, 150000, Note_on_c, 3, 58, 102
7, 150000, Note_on_c, 3, 67, 102
7, 150184, Note_off_c, 3, 67, 64
7, 150184, Note_off_c, 3, 58, 64
7, 150184, Note_off_c, 3, 60, 64
7, 150184, Note_off_c, 3, 64, 64
7, 150480, Note_on_c, 3, 48, 88
7, 150720, Note_on_c, 3, 64, 100
7, 150720, Note_on_c, 3, 60, 100
7, 150720, Note_on_c, 3, 58, 100
7, 150720, Note_on_c, 3, 67, 100
7, 150760, Note_off_c, 3, 48, 64
7, 151000, Note_off_c, 3, 64, 64
7, 151000, Note_off_c, 3, 60, 64
7, 151000, Note_off_c, 3, 58, 64
7, 151000, Note_off_c, 3, 67, 64
7, 151200, Note_on_c, 3, 64, 102
7, 151200, Note_on_c, 3, 60, 102
7, 151200, Note_on_c, 3, 58, 102
7, 151200, Note_on_c, 3, 67, 102
7, 151352, Note_off_c, 3, 67, 64
7, 151352, Note_off_c, 3, 58, 64
7, 151352, Note_off_c, 3, 60, 64
7, 151352, Note_off_c, 3, 64, 64
7, 151680, Note_on_c, 3, 65, 109
7, 151680, Note_on_c, 3, 60, 109
7, 151680, Note_on_c, 3, 57, 109
7, 153516, Note_off_c, 3, 57, 64
7, 153516, Note_off_c, 3, 60, 64
7, 153516, Note_off_c, 3, 65, 64
7, 153840, Note_on_c, 3, 65, 102
7, 153840, Note_on_c, 3, 62, 102
7, 153840, Note_on_c, 3, 57, 102
7, 154024, Note_off_c, 3, 57, 64
7, 154024, Note_off_c, 3, 62, 64
7, 154024, Note_off_c, 3, 65, 64
7, 154320, Note_on_c, 3, 50, 88
7, 154560, Note_on_c, 3, 65, 100
7, 154560, Note_on_c, 3, 62, 100
7, 154560, Note_on_c, 3, 57, 100
7, 154600, Note_off_c, 3, 50, 64
7, 154840, Note_off_c, 3, 65, 64
7, 154840, Note_off_c, 3, 62, 64
7, 154840, Note_off_c, 3, 57, 64
7, 155040, Note_on_c, 3, 65, 102
7, 155040, Note_on_c, 3, 62, 102
7, 155040, Note_on_c, 3, 57, 102
7, 155192, Note_off_c, 3, 57, 64
7, 155192, Note_off_c, 3, 62, 64
7, 155192, Note_off_c, 3, 65, 64
7, 155520, Note_on_c, 3, 65, 107
7, 155520, Note_on_c, 3, 60, 107
7, 155520, Note_on_c, 3, 57, 107
7, 156240, Note_on_c, 3, 53, 100
7, 156272, Note_off_c, 3, 57, 64
7, 156272, Note_off_c, 3, 60, 64
7, 156272, Note_off_c, 3, 65, 64
7, 156480, Note_on_c, 3, 65, 105
7, 156480, Note_on_c, 3, 60, 105
7, 156480, Note_on_c, 3, 57, 105
7, 156508, Note_off_c, 3, 53, 64
7, 156804, Note_off_c, 3, 65, 64
7, 156804, Note_off_c, 3, 60, 64
7, 156804, Note_off_c, 3, 57, 64
7, 156960, Note_on_c, 3, 65, 120
7, 156960, Note_on_c, 3, 60, 120
7, 156960, Note_on_c, 3, 57, 120
7, 157124, Note_off_c, 3, 57, 64
7, 157124, Note_off_c, 3, 60, 64
7, 157124, Note_off_c, 3, 65, 64
7, 157440, Note_on_c, 3, 65, 107
7, 157440, Note_on_c, 3, 62, 107
7, 157440, Note_on_c, 3, 57, 107
7, 157608, Note_off_c, 3, 57, 64
7, 157608, Note_off_c, 3, 62, 64
7, 157608, Note_off_c, 3, 65, 64
7, 157680, Note_on_c, 3, 65, 102
7, 157680, Note_on_c, 3, 62, 102
7, 157680, Note_on_c, 3, 57, 102
7, 157816, Note_off_c, 3, 57, 64
7, 157816, Note_off_c, 3, 62, 64
7, 157816, Note_off_c, 3, 65, 64
7, 158160, Note_on_c, 3, 65, 102
7, 158160, Note_on_c, 3, 62, 102
7, 158160, Note_on_c, 3, 57, 102
7, 158916, Note_off_c, 3, 57, 64
7, 158916, Note_off_c, 3, 62, 64
7, 158916, Note_off_c, 3, 65, 64
7, 159360, Note_on_c, 3, 65, 105
7, 159360, Note_on_c, 3, 60, 105
7, 159360, Note_on_c, 3, 57, 105
7, 160320, Note_on_c, 3, 65, 94
7, 160560, Note_off_c, 3, 65, 64
7, 160560, Note_on_c, 3, 69, 90
7, 160588, Note_off_c, 3, 60, 64
7, 160588, Note_off_c, 3, 57, 64
7, 160588, Note_off_c, 3, 65, 64
7, 160800, Note_on_c, 3, 72, 100
7, 160808, Note_off_c, 3, 69, 64
7, 161036, Note_off_c, 3, 72, 64
7, 161040, Note_on_c, 3, 77, 120
7, 161124, Note_off_c, 3, 77, 64
7, 161280, Note_on_c, 3, 65, 105
7, 161280, Note_on_c, 3, 62, 105
7, 161280, Note_on_c, 3, 57, 105
7, 162240, Note_on_c, 3, 62, 94
7, 162480, Note_off_c, 3, 62, 64
7, 162480, Note_on_c, 3, 65, 90
7, 162508, Note_off_c, 3, 65, 64
7, 162508, Note_off_c, 3, 57, 64
7, 162508, Note_off_c, 3, 62, 64
7, 162720, Note_on_c, 3, 69, 100
7, 162728, Note_off_c, 3, 65, 64
7, 162956, Note_off_c, 3, 69, 64
7, 162960, Note_on_c, 3, 74, 120
7, 163044, Note_off_c, 3, 74, 64
7, 163200, Note_on_c, 3, 65, 107
7, 163200, Note_on_c, 3, 60, 107
7, 163200, Note_on_c, 3, 57, 107
7, 163368, Note_off_c, 3, 57, 64
7, 163368, Note_off_c, 3, 60, 64
7, 163368, Note_off_c, 3, 65, 64
7, 163440, Note_on_c, 3, 65, 102
7, 163440, Note_on_c, 3, 60, 102
7, 163440, Note_on_c, 3, 57, 102
7, 163576, Note_off_c, 3, 57, 64
7, 163576, Note_off_c, 3, 60, 64
7, 163576, Note_off_c, 3, 65, 64
7, 163920, Note_on_c, 3, 65, 102
7, 163920, Note_on_c, 3, 60, 102
7, 163920, Note_on_c, 3, 57, 102
7, 164676, Note_off_c, 3, 57, 64
7, 164676, Note_off_c, 3, 60, 64
7, 164676, Note_off_c, 3, 65, 64
7, 165120, Note_on_c, 3, 65, 107
7, 165120, Note_on_c, 3, 62, 107
7, 165120, Note_on_c, 3, 57, 107
7, 165288, Note_off_c, 3, 57, 64
7, 165288, Note_off_c, 3, 62, 64
7, 165288, Note_off_c, 3, 65, 64
7, 165360, Note_on_c, 3, 65, 102
7, 165360, Note_on_c, 3, 62, 102
7, 165360, Note_on_c, 3, 57, 102
7, 165496, Note_off_c, 3, 57, 64
7, 165496, Note_off_c, 3, 62, 64
7, 165496, Note_off_c, 3, 65, 64
7, 165840, Note_on_c, 3, 65, 102
7, 165840, Note_on_c, 3, 62, 102
7, 165840, Note_on_c, 3, 57, 102
7, 166596, Note_off_c, 3, 57, 64
7, 166596, Note_off_c, 3, 62, 64
7, 166596, Note_off_c, 3, 65, 64
7, 167040, Note_on_c, 3, 65, 109
7, 167040, Note_on_c, 3, 60, 109
7, 167040, Note_on_c, 3, 57, 109
7, 168876, Note_off_c, 3, 57, 64
7, 168876, Note_off_c, 3, 60, 64
7, 168876, Note_off_c, 3, 65, 64
7, 168960, Note_on_c, 3, 65, 107
7, 168960, Note_on_c, 3, 62, 107
7, 168960, Note_on_c, 3, 57, 107
7, 169680, Note_on_c, 3, 50, 100
7, 169712, Note_off_c, 3, 57, 64
7, 169712, Note_off_c, 3, 62, 64
7, 169712, Note_off_c, 3, 65, 64
7, 169920, Note_on_c, 3, 65, 105
7, 169920, Note_on_c, 3, 62, 105
7, 169920, Note_on_c, 3, 57, 105
7, 169948, Note_off_c, 3, 50, 64
7, 170244, Note_off_c, 3, 65, 64
7, 170244, Note_off_c, 3, 62, 64
7, 170244, Note_off_c, 3, 57, 64
7, 170400, Note_on_c, 3, 65, 120
7, 170400, Note_on_c, 3, 62, 120
7, 170400, Note_on_c, 3, 57, 120
7, 170564, Note_off_c, 3, 57, 64
7, 170564, Note_off_c, 3, 62, 64
7, 170564, Note_off_c, 3, 65, 64
7, 170880, Note_on_c, 3, 65, 107
7, 170880, Note_on_c, 3, 60, 107
7, 170880, Note_on_c, 3, 57, 107
7, 171048, Note_off_c, 3, 57, 64
7, 171048, Note_off_c, 3, 60, 64
7, 171048, Note_off_c, 3, 65, 64
7, 171120, Note_on_c, 3, 65, 102
7, 171120, Note_on_c, 3, 60, 102
7, 171120, Note_on_c, 3, 57, 102
7, 171256, Note_off_c, 3, 57, 64
7, 171256, Note_off_c, 3, 60, 64
7, 171256, Note_off_c, 3, 65, 64
7, 171600, Note_on_c, 3, 65, 102
7, 171600, Note_on_c, 3, 60, 102
7, 171600, Note_on_c, 3, 57, 102
7, 172356, Note_off_c, 3, 57, 64
7, 172356, Note_off_c, 3, 60, 64
7, 172356, Note_off_c, 3, 65, 64
7, 172800, Note_on_c, 3, 65, 105
7, 172800, Note_on_c, 3, 62, 105
7, 172800, Note_on_c, 3, 57, 105
7, 173760, Note_on_c, 3, 62, 94
7, 174000, Note_off_c, 3, 62, 64
7, 174000, Note_on_c, 3, 65, 90
7, 174028, Note_off_c, 3, 65, 64
7, 174028, Note_off_c, 3, 57, 64
7, 174028, Note_off_c, 3, 62, 64
7, 174240, Note_on_c, 3, 69, 100
7, 174248, Note_off_c, 3, 65, 64
7, 174476, Note_off_c, 3, 69, 64
7, 174480, Note_on_c, 3, 74, 120
7, 174564, Note_off_c, 3, 74, 64
7, 174720, Note_on_c, 3, 65, 107
7, 174720, Note_on_c, 3, 62, 107
7, 174720, Note_on_c, 3, 57, 107
7, 174888, Note_off_c, 3, 57, 64
7, 174888, Note_off_c, 3, 62, 64
7, 174888, Note_off_c, 3, 65, 64
7, 174960, Note_on_c, 3, 65, 102
7, 174960, Note_on_c, 3, 62, 102
7, 174960, Note_on_c, 3, 57, 102
7, 175096, Note_off_c, 3, 57, 64
7, 175096, Note_off_c, 3, 62, 64
7, 175096, Note_off_c, 3, 65, 64
7, 175440, Note_on_c, 3, 65, 102
7, 175440, Note_on_c, 3, 62, 102
7, 175440, Note_on_c, 3, 57, 102
7, 176196, Note_off_c, 3, 57, 64
7, 176196, Note_off_c, 3, 62, 64
7, 176196, Note_off_c, 3, 65, 64
7, 176640, Note_on_c, 3, 65, 105
7, 176640, Note_on_c, 3, 62, 105
7, 176640, Note_on_c, 3, 58, 105
7, 177600, Note_on_c, 3, 58, 94
7, 177840, Note_off_c, 3, 58, 64
7, 177840, Note_on_c, 3, 62, 90
7, 177868, Note_off_c, 3, 62, 64
7, 177868, Note_off_c, 3, 65, 64
7, 177868, Note_off_c, 3, 58, 64
7, 178080, Note_on_c, 3, 65, 100
7, 178088, Note_off_c, 3, 62, 64
7, 178316, Note_off_c, 3, 65, 64
7, 178320, Note_on_c, 3, 70, 120
7, 178404, Note_off_c, 3, 70, 64
7, 178560, Note_on_c, 3, 64, 109
7, 178560, Note_on_c, 3, 60, 109
7, 178560, Note_on_c, 3, 58, 109
7, 178560, Note_on_c, 3, 67, 109
7, 180396, Note_off_c, 3, 67, 64
7, 180396, Note_off_c, 3, 58, 64
7, 180396, Note_off_c, 3, 60, 64
7, 180396, Note_off_c, 3, 64, 64
7, 180480, Note_on_c, 3, 65, 105
7, 180480, Note_on_c, 3, 60, 105
7, 180480, Note_on_c, 3, 57, 105
7, 181440, Note_on_c, 3, 65, 94
7, 181680, Note_off_c, 3, 65, 64
7, 181680, Note_on_c, 3, 69, 90
7, 181708, Note_off_c, 3, 60, 64
7, 181708, Note_off_c, 3, 57, 64
7, 181708, Note_off_c, 3, 65, 64
7, 181920, Note_on_c, 3, 72, 100
7, 181928, Note_off_c, 3, 69, 64
7, 182156, Note_off_c, 3, 72, 64
7, 182160, Note_on_c, 3, 77, 120
7, 182244, Note_off_c, 3, 77, 64
7, 182400, Note_on_c, 3, 65, 107
7, 182400, Note_on_c, 3, 62, 107
7, 182400, Note_on_c, 3, 57, 107
7, 182568, Note_off_c, 3, 57, 64
7, 182568, Note_off_c, 3, 62, 64
7, 182568, Note_off_c, 3, 65, 64
7, 182640, Note_on_c, 3, 65, 102
7, 182640, Note_on_c, 3, 62, 102
7, 182640, Note_on_c, 3, 57, 102
7, 182776, Note_off_c, 3, 57, 64
7, 182776, Note_off_c, 3, 62, 64
7, 182776, Note_off_c, 3, 65, 64
7, 183120, Note_on_c, 3, 65, 102
7, 183120, Note_on_c, 3, 62, 102
7, 183120, Note_on_c, 3, 57, 102
7, 183876, Note_off_c, 3, 57, 64
7, 183876, Note_off_c, 3, 62, 64
7, 183876, Note_off_c, 3, 65, 64
7, 184320, Note_on_c, 3, 65, 109
7, 184320, Note_on_c, 3, 60, 109
7, 184320, Note_on_c, 3, 57, 109
7, 186156, Note_off_c, 3, 57, 64
7, 186156, Note_off_c, 3, 60, 64
7, 186156, Note_off_c, 3, 65, 64
7, 186240, Note_on_c, 3, 65, 107
7, 186240, Note_on_c, 3, 62, 107
7, 186240, Note_on_c, 3, 57, 107
7, 186408, Note_off_c, 3, 57, 64
7, 186408, Note_off_c, 3, 62, 64
7, 186408, Note_off_c, 3, 65, 64
7, 186480, Note_on_c, 3, 65, 102
7, 186480, Note_on_c, 3, 62, 102
7, 186480, Note_on_c, 3, 57, 102
7, 186616, Note_off_c, 3, 57, 64
7, 186616, Note_off_c, 3, 62, 64
7, 186616, Note_off_c, 3, 65, 64
7, 186960, Note_on_c, 3, 65, 102
7, 186960, Note_on_c, 3, 62, 102
7, 186960, Note_on_c, 3, 57, 102
7, 187716, Note_off_c, 3, 57, 64
7, 187716, Note_off_c, 3, 62, 64
7, 187716, Note_off_c, 3, 65, 64
7, 188400, Note_on_c, 3, 64, 102
7, 188400, Note_on_c, 3, 60, 102
7, 188400, Note_on_c, 3, 58, 102
7, 188400, Note_on_c, 3, 67, 102
7, 188584, Note_off_c, 3, 67, 64
7, 188584, Note_off_c, 3, 58, 64
7, 188584, Note_off_c, 3, 60, 64
7, 188584, Note_off_c, 3, 64, 64
7, 188880, Note_on_c, 3, 48, 88
7, 189120, Note_on_c, 3, 64, 100
7, 189120, Note_on_c, 3, 60, 100
7, 189120, Note_on_c, 3, 58, 100
7, 189120, Note_on_c, 3, 67, 100
7, 189160, Note_off_c, 3, 48, 64
7, 189400, Note_off_c, 3, 64, 64
7, 189400, Note_off_c, 3, 60, 64
7, 189400, Note_off_c, 3, 58, 64
7, 189400, Note_off_c, 3, 67, 64
7, 189600, Note_on_c, 3, 64, 102
7, 189600, Note_on_c, 3, 60, 102
7, 189600, Note_on_c, 3, 58, 102
7, 189600, Note_on_c, 3, 67, 102
7, 189752, Note_off_c, 3, 67, 64
7, 189752, Note_off_c, 3, 58, 64
7, 189752, Note_off_c, 3, 60, 64
7, 189752, Note_off_c, 3, 64, 64
7, 190080, Note_on_c, 3, 62, 107
7, 190080, Note_on_c, 3, 58, 107
7, 190080, Note_on_c, 3, 53, 107
7, 190800, Note_on_c, 3, 46, 100
7, 190832, Note_off_c, 3, 53, 64
7, 190832, Note_off_c, 3, 58, 64
7, 190832, Note_off_c, 3, 62, 64
7, 191040, Note_on_c, 3, 62, 105
7, 191040, Note_on_c, 3, 58, 105
7, 191040, Note_on_c, 3, 53, 105
7, 191068, Note_off_c, 3, 46, 64
7, 191364, Note_off_c, 3, 62, 64
7, 191364, Note_off_c, 3, 58, 64
7, 191364, Note_off_c, 3, 53, 64
7, 191520, Note_on_c, 3, 62, 120
7, 191520, Note_on_c, 3, 58, 120
7, 191520, Note_on_c, 3, 53, 120
7, 191684, Note_off_c, 3, 53, 64
7, 191684, Note_off_c, 3, 58, 64
7, 191684, Note_off_c, 3, 62, 64
7, 192000, Note_on_c, 3, 64, 107
7, 192000, Note_on_c, 3, 60, 107
7, 192000, Note_on_c, 3, 58, 107
7, 192000, Note_on_c, 3, 67, 107
7, 192168, Note_off_c, 3, 67, 64
7, 192168, Note_off_c, 3, 58, 64
7, 192168, Note_off_c, 3, 60, 64
7, 192168, Note_off_c, 3, 64, 64
7, 192240, Note_on_c, 3, 64, 102
7, 192240, Note_on_c, 3, 60, 102
7, 192240, Note_on_c, 3, 58, 102
7, 192240, Note_on_c, 3, 67, 102
7, 192376, Note_off_c, 3, 67, 64
7, 192376, Note_off_c, 3, 58, 64
7, 192376, Note_off_c, 3, 60, 64
7, 192376, Note_off_c, 3, 64, 64
7, 192720, Note_on_c, 3, 64, 102
7, 192720, Note_on_c, 3, 60, 102
7, 192720, Note_on_c, 3, 58, 102
7, 192720, Note_on_c, 3, 67, 102
7, 193476, Note_off_c, 3, 67, 64
7, 193476, Note_off_c, 3, 58, 64
7, 193476, Note_off_c, 3, 60, 64
7, 193476, Note_off_c, 3, 64, 64
7, 193920, Note_on_c, 3, 62, 107
7, 193920, Note_on_c, 3, 58, 107
7, 193920, Note_on_c, 3, 53, 107
7, 194088, Note_off_c, 3, 53, 64
7, 194088, Note_off_c, 3, 58, 64
7, 194088, Note_off_c, 3, 62, 64
7, 194160, Note_on_c, 3, 62, 102
7, 194160, Note_on_c, 3, 58, 102
7, 194160, Note_on_c, 3, 53, 102
7, 194296, Note_off_c, 3, 53, 64
7, 194296, Note_off_c, 3, 58, 64
7, 194296, Note_off_c, 3, 62, 64
7, 194640, Note_on_c, 3, 62, 102
7, 194640, Note_on_c, 3, 58, 102
7, 194640, Note_on_c, 3, 53, 102
7, 195396, Note_off_c, 3, 53, 64
7, 195396, Note_off_c, 3, 58, 64
7, 195396, Note_off_c, 3, 62, 64
7, 195840, Note_on_c, 3, 64, 107
7, 195840, Note_on_c, 3, 60, 107
7, 195840, Note_on_c, 3, 58, 107
7, 195840, Note_on_c, 3, 67, 107
7, 196560, Note_on_c, 3, 48, 100
7, 196592, Note_off_c, 3, 67, 64
7, 196592, Note_off_c, 3, 58, 64
7, 196592, Note_off_c, 3, 60, 64
7, 196592, Note_off_c, 3, 64, 64
7, 196800, Note_on_c, 3, 64, 105
7, 196800, Note_on_c, 3, 60, 105
7, 196800, Note_on_c, 3, 58, 105
7, 196800, Note_on_c, 3, 67, 105
7, 196828, Note_off_c, 3, 48, 64
7, 197124, Note_off_c, 3, 64, 64
7, 197124, Note_off_c, 3, 60, 64
7, 197124, Note_off_c, 3, 58, 64
7, 197124, Note_off_c, 3, 67, 64
7, 197280, Note_on_c, 3, 64, 120
7, 197280, Note_on_c, 3, 60, 120
7, 197280, Note_on_c, 3, 58, 120
7, 197280, Note_on_c, 3, 67, 120
7, 197444, Note_off_c, 3, 67, 64
7, 197444, Note_off_c, 3, 58, 64
7, 197444, Note_off_c, 3, 60, 64
7, 197444, Note_off_c, 3, 64, 64
7, 197760, Note_on_c, 3, 65, 105
7, 197760, Note_on_c, 3, 62, 105
7, 197760, Note_on_c, 3, 58, 105
7, 198720, Note_on_c, 3, 58, 94
7, 198960, Note_off_c, 3, 58, 64
7, 198960, Note_on_c, 3, 62, 90
7, 198988, Note_off_c, 3, 62, 64
7, 198988, Note_off_c, 3, 65, 64
7, 198988, Note_off_c, 3, 58, 64
7, 199200, Note_on_c, 3, 65, 100
7, 199208, Note_off_c, 3, 62, 64
7, 199436, Note_off_c, 3, 65, 64
7, 199440, Note_on_c, 3, 70, 120
7, 199524, Note_off_c, 3, 70, 64
7, 199680, Note_on_c, 3, 64, 109
7, 199680, Note_on_c, 3, 60, 109
7, 199680, Note_on_c, 3, 58, 109
7, 199680, Note_on_c, 3, 67, 109
7, 201516, Note_off_c, 3, 67, 64
7, 201516, Note_off_c, 3, 58, 64
7, 201516, Note_off_c, 3, 60, 64
7, 201516, Note_off_c, 3, 64, 64
7, 201600, Note_on_c, 3, 65, 107
7, 201600, Note_on_c, 3, 62, 107
7, 201600, Note_on_c, 3, 58, 107
7, 201768, Note_off_c, 3, 58, 64
7, 201768, Note_off_c, 3, 62, 64
7, 201768, Note_off_c, 3, 65, 64
7, 201840, Note_on_c, 3, 65, 102
7, 201840, Note_on_c, 3, 62, 102
7, 201840, Note_on_c, 3, 58, 102
7, 201976, Note_off_c, 3, 58, 64
7, 201976, Note_off_c, 3, 62, 64
7, 201976, Note_off_c, 3, 65, 64
7, 202320, Note_on_c, 3, 65, 102
7, 202320, Note_on_c, 3, 62, 102
7, 202320, Note_on_c, 3, 58, 102
7, 203076, Note_off_c, 3, 58, 64
7, 203076, Note_off_c, 3, 62, 64
7, 203076, Note_off_c, 3, 65, 64
7, 203520, Note_on_c, 3, 64, 105
7, 203520, Note_on_c, 3, 60, 105
7, 203520, Note_on_c, 3, 58, 105
7, 203520, Note_on_c, 3, 67, 105
7, 204480, Note_on_c, 3, 60, 94
7, 204720, Note_off_c, 3, 60, 64
7, 204720, Note_on_c, 3, 64, 90
7, 204748, Note_off_c, 3, 64, 64
7, 204748, Note_off_c, 3, 58, 64
7, 204748, Note_off_c, 3, 67, 64
7, 204748, Note_off_c, 3, 60, 64
7, 204960, Note_on_c, 3, 67, 100
7, 204968, Note_off_c, 3, 64, 64
7, 205196, Note_off_c, 3, 67, 64
7, 205200, Note_on_c, 3, 72, 120
7, 205284, Note_off_c, 3, 72, 64
7, 205440, Note_on_c, 3, 65, 105
7, 205440, Note_on_c, 3, 62, 105
7, 205440, Note_on_c, 3, 58, 105
7, 206400, Note_on_c, 3, 58, 94
7, 206640, Note_off_c, 3, 58, 64
7, 206640, Note_on_c, 3, 62, 90
7, 206668, Note_off_c, 3, 62, 64
7, 206668, Note_off_c, 3, 65, 64
7, 206668, Note_off_c, 3, 58, 64
7, 206880, Note_on_c, 3, 65, 100
7, 206888, Note_off_c, 3, 62, 64
7, 207116, Note_off_c, 3, 65, 64
7, 207120, Note_on_c, 3, 70, 120
7, 207204, Note_off_c, 3, 70, 64
7, 207360, Note_on_c, 3, 64, 107
7, 207360, Note_on_c, 3, 60, 107
7, 207360, Note_on_c, 3, 58, 107
7, 207360, Note_on_c, 3, 67, 107
7, 207528, Note_off_c, 3, 67, 64
7, 207528, Note_off_c, 3, 58, 64
7, 207528, Note_off_c, 3, 60, 64
7, 207528, Note_off_c, 3, 64, 64
7, 207600, Note_on_c, 3, 64, 102
7, 207600, Note_on_c, 3, 60, 102
7, 207600, Note_on_c, 3, 58, 102
7, 207600, Note_on_c, 3, 67, 102
7, 207736, Note_off_c, 3, 67, 64
7, 207736, Note_off_c, 3, 58, 64
7, 207736, Note_off_c, 3, 60, 64
7, 207736, Note_off_c, 3, 64, 64
7, 208080, Note_on_c, 3, 64, 102
7, 208080, Note_on_c, 3, 60, 102
7, 208080, Note_on_c, 3, 58, 102
7, 208080, Note_on_c, 3, 67, 102
7, 208836, Note_off_c, 3, 67, 64
7, 208836, Note_off_c, 3, 58, 64
7, 208836, Note_off_c, 3, 60, 64
7, 208836, Note_off_c, 3, 64, 64
7, 209280, Note_on_c, 3, 65, 109
7, 209280, Note_on_c, 3, 62, 109
7, 209280, Note_on_c, 3, 58, 109
7, 211116, Note_off_c, 3, 58, 64
7, 211116, Note_off_c, 3, 62, 64
7, 211116, Note_off_c, 3, 65, 64
7, 211200, Note_on_c, 3, 64, 105
7, 211200, Note_on_c, 3, 60, 105
7, 211200, Note_on_c, 3, 58, 105
7, 211200, Note_on_c, 3, 67, 105
7, 212160, Note_on_c, 3, 60, 94
7, 212400, Note_off_c, 3, 60, 64
7, 212400, Note_on_c, 3, 64, 90
7, 212428, Note_off_c, 3, 64, 64
7, 212428, Note_off_c, 3, 58, 64
7, 212428, Note_off_c, 3, 67, 64
7, 212428, Note_off_c, 3, 60, 64
7, 212640, Note_on_c, 3, 67, 100
7, 212648, Note_off_c, 3, 64, 64
7, 212876, Note_off_c, 3, 67, 64
7, 212880, Note_on_c, 3, 72, 120
7, 212964, Note_off_c, 3, 72, 64
7, 213120, Note_on_c, 3, 65, 107
7, 213120, Note_on_c, 3, 62, 107
7, 213120, Note_on_c, 3, 58, 107
7, 213840, Note_on_c, 3, 46, 100
7, 213872, Note_off_c, 3, 58, 64
7, 213872, Note_off_c, 3, 62, 64
7, 213872, Note_off_c, 3, 65, 64
7, 214080, Note_on_c, 3, 65, 105
7, 214080, Note_on_c, 3, 62, 105
7, 214080, Note_on_c, 3, 58, 105
7, 214108, Note_off_c, 3, 46, 64
7, 214404, Note_off_c, 3, 65, 64
7, 214404, Note_off_c, 3, 62, 64
7, 214404, Note_off_c, 3, 58, 64
7, 214560, Note_on_c, 3, 65, 120
7, 214560, Note_on_c, 3, 62, 120
7, 214560, Note_on_c, 3, 58, 120
7, 214724, Note_off_c, 3, 58, 64
7, 214724, Note_off_c, 3, 62, 64
7, 214724, Note_off_c, 3, 65, 64
7, 215040, Note_on_c, 3, 65, 107
7, 215040, Note_on_c, 3, 60, 107
7, 215040, Note_on_c, 3, 57, 107
7, 215208, Note_off_c, 3, 57, 64
7, 215208, Note_off_c, 3, 60, 64
7, 215208, Note_off_c, 3, 65, 64
7, 215280, Note_on_c, 3, 65, 102
7, 215280, Note_on_c, 3, 60, 102
7, 215280, Note_on_c, 3, 57, 102
7, 215416, Note_off_c, 3, 57, 64
7, 215416, Note_off_c, 3, 60, 64
7, 215416, Note_off_c, 3, 65, 64
7, 215760, Note_on_c, 3, 65, 102
7, 215760, Note_on_c, 3, 60, 102
7, 215760, Note_on_c, 3, 57, 102
7, 216516, Note_off_c, 3, 57, 64
7, 216516, Note_off_c, 3, 60, 64
7, 216516, Note_off_c, 3, 65, 64
7, 216960, Note_on_c, 3, 65, 105
7, 216960, Note_on_c, 3, 62, 105
7, 216960, Note_on_c, 3, 57, 105
7, 217920, Note_on_c, 3, 62, 94
7, 218160, Note_off_c, 3, 62, 64
7, 218160, Note_on_c, 3, 65, 90
7, 218188, Note_off_c, 3, 65, 64
7, 218188, Note_off_c, 3, 57, 64
7, 218188, Note_off_c, 3, 62, 64
7, 218400, Note_on_c, 3, 69, 100
7, 218408, Note_off_c, 3, 65, 64
7, 218636, Note_off_c, 3, 69, 64
7, 218640, Note_on_c, 3, 74, 120
7, 218724, Note_off_c, 3, 74, 64
7, 218880, Note_on_c, 3, 65, 107
7, 218880, Note_on_c, 3, 60, 107
7, 218880, Note_on_c, 3, 57, 107
7, 219600, Note_on_c, 3, 53, 100
7, 219632, Note_off_c, 3, 57, 64
7, 219632, Note_off_c, 3, 60, 64
7, 219632, Note_off_c, 3, 65, 64
7, 219840, Note_on_c, 3, 65, 105
7, 219840, Note_on_c, 3, 60, 105
7, 219840, Note_on_c, 3, 57, 105
7, 219868, Note_off_c, 3, 53, 64
7, 220164, Note_off_c, 3, 65, 64
7, 220164, Note_off_c, 3, 60, 64
7, 220164, Note_off_c, 3, 57, 64
7, 220320, Note_on_c, 3, 65, 120
7, 220320, Note_on_c, 3, 60, 120
7, 220320, Note_on_c, 3, 57, 120
7, 220484, Note_off_c, 3, 57, 64
7, 220484, Note_off_c, 3, 60, 64
7, 220484, Note_off_c, 3, 65, 64
7, 220800, Note_on_c, 3, 65, 107
7, 220800, Note_on_c, 3, 62, 107
7, 220800, Note_on_c, 3, 57, 107
7, 220968, Note_off_c, 3, 57, 64
7, 220968, Note_off_c, 3, 62, 64
7, 220968, Note_off_c, 3, 65, 64
7, 221040, Note_on_c, 3, 65, 102
7, 221040, Note_on_c, 3, 62, 102
7, 221040, Note_on_c, 3, 57, 102
7, 221176, Note_off_c, 3, 57, 64
7, 221176, Note_off_c, 3, 62, 64
7, 221176, Note_off_c, 3, 65, 64
7, 221520, Note_on_c, 3, 65, 102
7, 221520, Note_on_c, 3, 62, 102
7, 221520, Note_on_c, 3, 57, 102
7, 222276, Note_off_c, 3, 57, 64
7, 222276, Note_off_c, 3, 62, 64
7, 222276, Note_off_c, 3, 65, 64
7, 222720, Note_on_c, 3, 65, 105
7, 222720, Note_on_c, 3, 60, 105
7, 222720, Note_on_c, 3, 57, 105
7, 223680, Note_on_c, 3, 65, 94
7, 223920, Note_off_c, 3, 65, 64
7, 223920, Note_on_c, 3, 69, 90
7, 223948, Note_off_c, 3, 60, 64
7, 223948, Note_off_c, 3, 57, 64
7, 223948, Note_off_c, 3, 65, 64
7, 224160, Note_on_c, 3, 72, 100
7, 224168, Note_off_c, 3, 69, 64
7, 224396, Note_off_c, 3, 72, 64
7, 224400, Note_on_c, 3, 77, 120
7, 224484, Note_off_c, 3, 77, 64
7, 224640, Note_on_c, 3, 65, 107
7, 224640, Note_on_c, 3, 62, 107
7, 224640, Note_on_c, 3, 57, 107
7, 224808, Note_off_c, 3, 57, 64
7, 224808, Note_off_c, 3, 62, 64
7, 224808, Note_off_c, 3, 65, 64
7, 224880, Note_on_c, 3, 65, 102
7, 224880, Note_on_c, 3, 62, 102
7, 224880, Note_on_c, 3, 57, 102
7, 225016, Note_off_c, 3, 57, 64
7, 225016, Note_off_c, 3, 62, 64
7, 225016, Note_off_c, 3, 65, 64
7, 225360, Note_on_c, 3, 65, 102
7, 225360, Note_on_c, 3, 62, 102
7, 225360, Note_on_c, 3, 57, 102
7, 226116, Note_off_c, 3, 57, 64
7, 226116, Note_off_c, 3, 62, 64
7, 226116, Note_off_c, 3, 65, 64
7, 226560, Note_on_c, 3, 65, 107
7, 226560, Note_on_c, 3, 60, 107
7, 226560, Note_on_c, 3, 57, 107
7, 226728, Note_off_c, 3, 57, 64
7, 226728, Note_off_c, 3, 60, 64
7, 226728, Note_off_c, 3, 65, 64
7, 226800, Note_on_c, 3, 65, 102
7, 226800, Note_on_c, 3, 60, 102
7, 226800, Note_on_c, 3, 57, 102
7, 226936, Note_off_c, 3, 57, 64
7, 226936, Note_off_c, 3, 60, 64
7, 226936, Note_off_c, 3, 65, 64
7, 227280, Note_on_c, 3, 65, 102
7, 227280, Note_on_c, 3, 60, 102
7, 227280, Note_on_c, 3, 57, 102
7, 228036, Note_off_c, 3, 57, 64
7, 228036, Note_off_c, 3, 60, 64
7, 228036, Note_off_c, 3, 65, 64
7, 228480, Note_on_c, 3, 65, 105
7, 228480, Note_on_c, 3, 62, 105
7, 228480, Note_on_c, 3, 57, 105
7, 229440, Note_on_c, 3, 62, 94
7, 229680, Note_off_c, 3, 62, 64
7, 229680, Note_on_c, 3, 65, 90
7, 229708, Note_off_c, 3, 65, 64
7, 229708, Note_off_c, 3, 57, 64
7, 229708, Note_off_c, 3, 62, 64
7, 229920, Note_on_c, 3, 69, 100
7, 229928, Note_off_c, 3, 65, 64
7, 230156, Note_off_c, 3, 69, 64
7, 230160, Note_on_c, 3, 74, 120
7, 230244, Note_off_c, 3, 74, 64
7, 230400, Note_on_c, 3, 65, 105
7, 230400, Note_on_c, 3, 60, 105
7, 230400, Note_on_c, 3, 57, 105
7, 231360, Note_on_c, 3, 65, 94
7, 231600, Note_off_c, 3, 65, 64
7, 231600, Note_on_c, 3, 69, 90
7, 231628, Note_off_c, 3, 60, 64
7, 231628, Note_off_c, 3, 57, 64
7, 231628, Note_off_c, 3, 65, 64
7, 231840, Note_on_c, 3, 72, 100
7, 231848, Note_off_c, 3, 69, 64
7, 232076, Note_off_c, 3, 72, 64
7, 232080, Note_on_c, 3, 77, 120
7, 232164, Note_off_c, 3, 77, 64
7, 232320, Note_on_c, 3, 65, 107
7, 232320, Note_on_c, 3, 62, 107
7, 232320, Note_on_c, 3, 57, 107
7, 232488, Note_off_c, 3, 57, 64
7, 232488, Note_off_c, 3, 62, 64
7, 232488, Note_off_c, 3, 65, 64
7, 232560, Note_on_c, 3, 65, 102
7, 232560, Note_on_c, 3, 62, 102
7, 232560, Note_on_c, 3, 57, 102
7, 232696, Note_off_c, 3, 57, 64
7, 232696, Note_off_c, 3, 62, 64
7, 232696, Note_off_c, 3, 65, 64
7, 233040, Note_on_c, 3, 65, 102
7, 233040, Note_on_c, 3, 62, 102
7, 233040, Note_on_c, 3, 57, 102
7, 233796, Note_off_c, 3, 57, 64
7, 233796, Note_off_c, 3, 62, 64
7, 233796, Note_off_c, 3, 65, 64
7, 234240, Note_on_c, 3, 65, 105
7, 234240, Note_on_c, 3, 60, 105
7, 234240, Note_on_c, 3, 57, 105
7, 235200, Note_on_c, 3, 65, 94
7, 235440, Note_off_c, 3, 65, 64
7, 235440, Note_on_c, 3, 69, 90
7, 235468, Note_off_c, 3, 60, 64
7, 235468, Note_off_c, 3, 57, 64
7, 235468, Note_off_c, 3, 65, 64
7, 235680, Note_on_c, 3, 72, 100
7, 235688, Note_off_c, 3, 69, 64
7, 235916, Note_off_c, 3, 72, 64
7, 235920, Note_on_c, 3, 77, 120
7, 236004, Note_off_c, 3, 77, 64
7, 236160, Note_on_c, 3, 65, 109
7, 236160, Note_on_c, 3, 62, 109
7, 236160, Note_on_c, 3, 57, 109
7, 237996, Note_off_c, 3, 57, 64
7, 237996, Note_off_c, 3, 62, 64
7, 237996, Note_off_c, 3, 65, 64
7, 238080, Note_on_c, 3, 65, 107
7, 238080, Note_on_c, 3, 62, 107
7, 238080, Note_on_c, 3, 57, 107
7, 238248, Note_off_c, 3, 57, 64
7, 238248, Note_off_c, 3, 62, 64
7, 238248, Note_off_c, 3, 65, 64
7, 238320, Note_on_c, 3, 65, 102
7, 238320, Note_on_c, 3, 62, 102
7, 238320, Note_on_c, 3, 57, 102
7, 238456, Note_off_c, 3, 57, 64
7, 238456, Note_off_c, 3, 62, 64
7, 238456, Note_off_c, 3, 65, 64
7, 238800, Note_on_c, 3, 65, 102
7, 238800, Note_on_c, 3, 62, 102
7, 238800, Note_on_c, 3, 57, 102
7, 239556, Note_off_c, 3, 57, 64
7, 239556, Note_off_c, 3, 62, 64
7, 239556, Note_off_c, 3, 65, 64
7, 240000, Note_on_c, 3, 65, 107
7, 240000, Note_on_c, 3, 62, 107
7, 240000, Note_on_c, 3, 58, 107
7, 240168, Note_off_c, 3, 58, 64
7, 240168, Note_off_c, 3, 62, 64
7, 240168, Note_off_c, 3, 65, 64
7, 240240, Note_on_c, 3, 65, 102
7, 240240, Note_on_c, 3, 62, 102
7, 240240, Note_on_c, 3, 58, 102
7, 240376, Note_off_c, 3, 58, 64
7, 240376, Note_off_c, 3, 62, 64
7, 240376, Note_off_c, 3, 65, 64
7, 240720, Note_on_c, 3, 65, 102
7, 240720, Note_on_c, 3, 62, 102
7, 240720, Note_on_c, 3, 58, 102
7, 241476, Note_off_c, 3, 58, 64
7, 241476, Note_off_c, 3, 62, 64
7, 241476, Note_off_c, 3, 65, 64
7, 242160, Note_on_c, 3, 64, 102
7, 242160, Note_on_c, 3, 60, 102
7, 242160, Note_on_c, 3, 58, 102
7, 242160, Note_on_c, 3, 67, 102
7, 242344, Note_off_c, 3, 67, 64
7, 242344, Note_off_c, 3, 58, 64
7, 242344, Note_off_c, 3, 60, 64
7, 242344, Note_off_c, 3, 64, 64
7, 242640, Note_on_c, 3, 48, 88
7, 242880, Note_on_c, 3, 64, 100
7, 242880, Note_on_c, 3, 60, 100
7, 242880, Note_on_c, 3, 58, 100
7, 242880, Note_on_c, 3, 67, 100
7, 242920, Note_off_c, 3, 48, 64
7, 243160, Note_off_c, 3, 64, 64
7, 243160, Note_off_c, 3, 60, 64
7, 243160, Note_off_c, 3, 58, 64
7, 243160, Note_off_c, 3, 67, 64
7, 243360, Note_on_c, 3, 64, 102
7, 243360, Note_on_c, 3, 60, 102
7, 243360, Note_on_c, 3, 58, 102
7, 243360, Note_on_c, 3, 67, 102
7, 243512, Note_off_c, 3, 67, 64
7, 243512, Note_off_c, 3, 58, 64
7, 243512, Note_off_c, 3, 60, 64
7, 243512, Note_off_c, 3, 64, 64
7, 243840, Note_on_c, 3, 65, 107
7, 243840, Note_on_c, 3, 60, 107
7, 243840, Note_on_c, 3, 57, 107
7, 244008, Note_off_c, 3, 57, 64
7, 244008, Note_off_c, 3, 60, 64
7, 244008, Note_off_c, 3, 65, 64
7, 244080, Note_on_c, 3, 65, 102
7, 244080, Note_on_c, 3, 60, 102
7, 244080, Note_on_c, 3, 57, 102
7, 244216, Note_off_c, 3, 57, 64
7, 244216, Note_off_c, 3, 60, 64
7, 244216, Note_off_c, 3, 65, 64
7, 244560, Note_on_c, 3, 65, 102
7, 244560, Note_on_c, 3, 60, 102
7, 244560, Note_on_c, 3, 57, 102
7, 245316, Note_off_c, 3, 57, 64
7, 245316, Note_off_c, 3, 60, 64
7, 245316, Note_off_c, 3, 65, 64
7, 246000, Note_on_c, 3, 68, 102
7, 246000, Note_on_c, 3, 65, 102
7, 246000, Note_on_c, 3, 62, 102
7, 246000, Note_on_c, 3, 70, 102
7, 246184, Note_off_c, 3, 70, 64
7, 246184, Note_off_c, 3, 62, 64
7, 246184, Note_off_c, 3, 65, 64
7, 246184, Note_off_c, 3, 68, 64
7, 246480, Note_on_c, 3, 46, 88
7, 246720, Note_on_c, 3, 68, 100
7, 246720, Note_on_c, 3, 65, 100
7, 246720, Note_on_c, 3, 62, 100
7, 246720, Note_on_c, 3, 70, 100
7, 246760, Note_off_c, 3, 46, 64
7, 247000, Note_off_c, 3, 68, 64
7, 247000, Note_off_c, 3, 65, 64
7, 247000, Note_off_c, 3, 62, 64
7, 247000, Note_off_c, 3, 70, 64
7, 247200, Note_on_c, 3, 68, 102
7, 247200, Note_on_c, 3, 65, 102
7, 247200, Note_on_c, 3, 62, 102
7, 247200, Note_on_c, 3, 70, 102
7, 247352, Note_off_c, 3, 70, 64
7, 247352, Note_off_c, 3, 62, 64
7, 247352, Note_off_c, 3, 65, 64
7, 247352, Note_off_c, 3, 68, 64
7, 247696, Note_on_c, 3, 65, 115
7, 247696, Note_on_c, 3, 60, 115
7, 247696, Note_on_c, 3, 57, 115
7, 249368, Note_on_c, 3, 53, 96
7, 249408, Note_off_c, 3, 57, 64
7, 249408, Note_off_c, 3, 60, 64
7, 249408, Note_off_c, 3, 65, 64
7, 249544, Note_off_c, 3, 53, 64
7, 249588, Note_on_c, 3, 65, 105
7, 249588, Note_on_c, 3, 60, 105
7, 249588, Note_on_c, 3, 57, 105
7, 249772, Note_off_c, 3, 57, 64
7, 249772, Note_off_c, 3, 60, 64
7, 249772, Note_off_c, 3, 65, 64
7, 249816, Note_on_c, 3, 53, 100
7, 249992, Note_off_c, 3, 53, 64
7, 250060, Note_on_c, 3, 65, 105
7, 250060, Note_on_c, 3, 58, 105
7, 250060, Note_on_c, 3, 62, 105
7, 250192, Note_off_c, 3, 62, 64
7, 250192, Note_off_c, 3, 58, 64
7, 250192, Note_off_c, 3, 65, 64
7, 250568, Note_on_c, 3, 65, 118
7, 250568, Note_on_c, 3, 60, 118
7, 250568, Note_on_c, 3, 57, 118
7, 251520, Note_off_c, 3, 57, 64
7, 251520, Note_off_c, 3, 60, 64
7, 251520, Note_off_c, 3, 65, 64
7, 251520, End_track
8, 0, Start_track
8, 0, Title_t, "Bass"
8, 0, MIDI_port, 0
8, 0, Channel_prefix, 4
8, 0, Control_c, 4, 7, 124
8, 0, Control_c, 4, 10, 0
8, 0, Program_c, 4, 33
8, 0, Control_c, 4, 123, 0
8, 1920, Note_on_c, 4, 41, 100
8, 2380, Note_off_c, 4, 41, 64
8, 2400, Control_c, 4, 85, 37
8, 2880, Note_on_c, 4, 48, 108
8, 3264, Note_off_c, 4, 48, 64
8, 3360, Note_on_c, 4, 36, 95
8, 3820, Note_off_c, 4, 36, 64
8, 3840, Control_c, 4, 85, 37
8, 4320, Note_on_c, 4, 38, 93
8, 4704, Note_off_c, 4, 38, 64
8, 4800, Note_on_c, 4, 38, 99
8, 5260, Note_off_c, 4, 38, 64
8, 5280, Control_c, 4, 85, 37
8, 5760, Note_on_c, 4, 41, 100
8, 6220, Note_off_c, 4, 41, 64
8, 6240, Control_c, 4, 85, 37
8, 6720, Note_on_c, 4, 48, 89
8, 7180, Note_off_c, 4, 48, 64
8, 7200, Control_c, 4, 86, 37
8, 7680, Note_on_c, 4, 38, 107
8, 8140, Note_off_c, 4, 38, 64
8, 8160, Control_c, 4, 85, 37
8, 9600, Note_on_c, 4, 41, 100
8, 10060, Note_off_c, 4, 41, 64
8, 10080, Control_c, 4, 85, 37
8, 10560, Note_on_c, 4, 48, 101
8, 11020, Note_off_c, 4, 48, 64
8, 11040, Control_c, 4, 86, 37
8, 11520, Note_on_c, 4, 38, 100
8, 11980, Note_off_c, 4, 38, 64
8, 12000, Control_c, 4, 85, 37
8, 12480, Note_on_c, 4, 45, 100
8, 12864, Note_off_c, 4, 45, 64
8, 12960, Note_on_c, 4, 38, 96
8, 13344, Note_off_c, 4, 38, 64
8, 13440, Note_on_c, 4, 41, 100
8, 13900, Note_off_c, 4, 41, 64
8, 13920, Control_c, 4, 85, 37
8, 14400, Note_on_c, 4, 48, 98
8, 14784, Note_off_c, 4, 48, 64
8, 14880, Note_on_c, 4, 36, 98
8, 15264, Note_off_c, 4, 36, 64
8, 15360, Note_on_c, 4, 38, 97
8, 15820, Note_off_c, 4, 38, 64
8, 15840, Control_c, 4, 85, 37
8, 16320, Note_on_c, 4, 45, 99
8, 16704, Note_off_c, 4, 45, 64
8, 16800, Note_on_c, 4, 38, 101
8, 17184, Note_off_c, 4, 38, 64
8, 17280, Note_on_c, 4, 41, 113
8, 17740, Note_off_c, 4, 41, 64
8, 17760, Control_c, 4, 85, 37
8, 18240, Note_on_c, 4, 36, 93
8, 18700, Note_off_c, 4, 36, 64
8, 18720, Control_c, 4, 85, 37
8, 19200, Note_on_c, 4, 38, 110
8, 19660, Note_off_c, 4, 38, 64
8, 19680, Control_c, 4, 85, 37
8, 20160, Note_on_c, 4, 45, 100
8, 20544, Note_off_c, 4, 45, 64
8, 20640, Note_on_c, 4, 38, 86
8, 21024, Note_off_c, 4, 38, 64
8, 21120, Note_on_c, 4, 41, 90
8, 21580, Note_off_c, 4, 41, 64
8, 21600, Control_c, 4, 85, 37
8, 22080, Note_on_c, 4, 36, 109
8, 22540, Note_off_c, 4, 36, 64
8, 22560, Control_c, 4, 85, 37
8, 23040, Note_on_c, 4, 38, 92
8, 23500, Note_off_c, 4, 38, 64
8, 23520, Control_c, 4, 85, 37
8, 24000, Note_on_c, 4, 41, 93
8, 24384, Note_off_c, 4, 41, 64
8, 24480, Note_on_c, 4, 45, 100
8, 24864, Note_off_c, 4, 45, 64
8, 24960, Note_on_c, 4, 38, 101
8, 25420, Note_off_c, 4, 38, 64
8, 25440, Control_c, 4, 85, 37
8, 25920, Note_on_c, 4, 45, 99
8, 26304, Note_off_c, 4, 45, 64
8, 26400, Note_on_c, 4, 38, 110
8, 26784, Note_off_c, 4, 38, 64
8, 26880, Note_on_c, 4, 34, 101
8, 27340, Note_off_c, 4, 34, 64
8, 27360, Control_c, 4, 85, 37
8, 27840, Note_on_c, 4, 41, 90
8, 28224, Note_off_c, 4, 41, 64
8, 28320, Note_on_c, 4, 34, 95
8, 28704, Note_off_c, 4, 34, 64
8, 28800, Note_on_c, 4, 36, 95
8, 29260, Note_off_c, 4, 36, 64
8, 29280, Control_c, 4, 85, 37
8, 29760, Note_on_c, 4, 48, 103
8, 30144, Note_off_c, 4, 48, 64
8, 30240, Note_on_c, 4, 36, 100
8, 30624, Note_off_c, 4, 36, 64
8, 30720, Note_on_c, 4, 41, 90
8, 31180, Note_off_c, 4, 41, 64
8, 31200, Control_c, 4, 85, 37
8, 31680, Note_on_c, 4, 48, 92
8, 32064, Note_off_c, 4, 48, 64
8, 32160, Note_on_c, 4, 36, 93
8, 32620, Note_off_c, 4, 36, 64
8, 32640, Control_c, 4, 85, 37
8, 33120, Note_on_c, 4, 38, 102
8, 33504, Note_off_c, 4, 38, 64
8, 33600, Note_on_c, 4, 38, 105
8, 34060, Note_off_c, 4, 38, 64
8, 34080, Control_c, 4, 85, 37
8, 34560, Note_on_c, 4, 41, 111
8, 35020, Note_off_c, 4, 41, 64
8, 35040, Control_c, 4, 85, 37
8, 35520, Note_on_c, 4, 48, 106
8, 35904, Note_off_c, 4, 48, 64
8, 36000, Note_on_c, 4, 36, 100
8, 36384, Note_off_c, 4, 36, 64
8, 36480, Note_on_c, 4, 38, 99
8, 36940, Note_off_c, 4, 38, 64
8, 36960, Control_c, 4, 85, 37
8, 38400, Note_on_c, 4, 41, 98
8, 38860, Note_off_c, 4, 41, 64
8, 38880, Control_c, 4, 85, 37
8, 39360, Note_on_c, 4, 48, 106
8, 39820, Note_off_c, 4, 48, 64
8, 39840, Control_c, 4, 86, 37
8, 40320, Note_on_c, 4, 38, 100
8, 40780, Note_off_c, 4, 38, 64
8, 40800, Control_c, 4, 85, 37
8, 41280, Note_on_c, 4, 45, 94
8, 41664, Note_off_c, 4, 45, 64
8, 41760, Note_on_c, 4, 38, 97
8, 42144, Note_off_c, 4, 38, 64
8, 42240, Note_on_c, 4, 41, 92
8, 42700, Note_off_c, 4, 41, 64
8, 42720, Control_c, 4, 85, 37
8, 43200, Note_on_c, 4, 48, 99
8, 43584, Note_off_c, 4, 48, 64
8, 43680, Note_on_c, 4, 36, 105
8, 44064, Note_off_c, 4, 36, 64
8, 44160, Note_on_c, 4, 38, 96
8, 44620, Note_off_c, 4, 38, 64
8, 44640, Control_c, 4, 85, 37
8, 45120, Note_on_c, 4, 45, 96
8, 45504, Note_off_c, 4, 45, 64
8, 45600, Note_on_c, 4, 38, 92
8, 45984, Note_off_c, 4, 38, 64
8, 46080, Note_on_c, 4, 41, 104
8, 46540, Note_off_c, 4, 41, 64
8, 46560, Control_c, 4, 85, 37
8, 47040, Note_on_c, 4, 36, 114
8, 47500, Note_off_c, 4, 36, 64
8, 47520, Control_c, 4, 85, 37
8, 48000, Note_on_c, 4, 38, 99
8, 48460, Note_off_c, 4, 38, 64
8, 48480, Control_c, 4, 85, 37
8, 48960, Note_on_c, 4, 45, 115
8, 49344, Note_off_c, 4, 45, 64
8, 49440, Note_on_c, 4, 38, 87
8, 49824, Note_off_c, 4, 38, 64
8, 49920, Note_on_c, 4, 41, 98
8, 50380, Note_off_c, 4, 41, 64
8, 50400, Control_c, 4, 85, 37
8, 50880, Note_on_c, 4, 36, 92
8, 51340, Note_off_c, 4, 36, 64
8, 51360, Control_c, 4, 85, 37
8, 51840, Note_on_c, 4, 38, 97
8, 52300, Note_off_c, 4, 38, 64
8, 52320, Control_c, 4, 85, 37
8, 52800, Note_on_c, 4, 41, 86
8, 53184, Note_off_c, 4, 41, 64
8, 53280, Note_on_c, 4, 45, 96
8, 53664, Note_off_c, 4, 45, 64
8, 53760, Note_on_c, 4, 38, 98
8, 54220, Note_off_c, 4, 38, 64
8, 54240, Control_c, 4, 85, 37
8, 54720, Note_on_c, 4, 45, 94
8, 55104, Note_off_c, 4, 45, 64
8, 55200, Note_on_c, 4, 38, 93
8, 55584, Note_off_c, 4, 38, 64
8, 55680, Note_on_c, 4, 34, 100
8, 56140, Note_off_c, 4, 34, 64
8, 56160, Control_c, 4, 85, 37
8, 56640, Note_on_c, 4, 41, 93
8, 57024, Note_off_c, 4, 41, 64
8, 57120, Note_on_c, 4, 34, 91
8, 57504, Note_off_c, 4, 34, 64
8, 57600, Note_on_c, 4, 36, 100
8, 58060, Note_off_c, 4, 36, 64
8, 58080, Control_c, 4, 85, 37
8, 58560, Note_on_c, 4, 48, 102
8, 58944, Note_off_c, 4, 48, 64
8, 59040, Note_on_c, 4, 36, 114
8, 59424, Note_off_c, 4, 36, 64
8, 59520, Note_on_c, 4, 41, 100
8, 59980, Note_off_c, 4, 41, 64
8, 60000, Control_c, 4, 85, 37
8, 60480, Note_on_c, 4, 48, 90
8, 60864, Note_off_c, 4, 48, 64
8, 60960, Note_on_c, 4, 36, 100
8, 61420, Note_off_c, 4, 36, 64
8, 61440, Control_c, 4, 85, 37
8, 61920, Note_on_c, 4, 38, 102
8, 62304, Note_off_c, 4, 38, 64
8, 62400, Note_on_c, 4, 38, 100
8, 62860, Note_off_c, 4, 38, 64
8, 62880, Control_c, 4, 85, 37
8, 63360, Note_on_c, 4, 41, 90
8, 63820, Note_off_c, 4, 41, 64
8, 63840, Control_c, 4, 85, 37
8, 64320, Note_on_c, 4, 48, 95
8, 64704, Note_off_c, 4, 48, 64
8, 64800, Note_on_c, 4, 36, 109
8, 65184, Note_off_c, 4, 36, 64
8, 65280, Control_c, 4, 85, 37
8, 65760, Note_on_c, 4, 38, 98
8, 66144, Note_off_c, 4, 38, 64
8, 66240, Note_on_c, 4, 38, 109
8, 66700, Note_off_c, 4, 38, 64
8, 66720, Control_c, 4, 85, 37
8, 67200, Note_on_c, 4, 36, 113
8, 67660, Note_off_c, 4, 36, 64
8, 67680, Control_c, 4, 85, 37
8, 68160, Note_on_c, 4, 43, 113
8, 68544, Note_off_c, 4, 43, 64
8, 68640, Note_on_c, 4, 36, 100
8, 69024, Note_off_c, 4, 36, 64
8, 69120, Note_on_c, 4, 34, 97
8, 69580, Note_off_c, 4, 34, 64
8, 69600, Control_c, 4, 85, 37
8, 70080, Note_on_c, 4, 41, 95
8, 70464, Note_off_c, 4, 41, 64
8, 70560, Note_on_c, 4, 34, 100
8, 70944, Note_off_c, 4, 34, 64
8, 71040, Note_on_c, 4, 36, 93
8, 71616, Note_off_c, 4, 36, 64
8, 71760, Note_on_c, 4, 45, 100
8, 71952, Note_off_c, 4, 45, 64
8, 72000, Note_on_c, 4, 43, 104
8, 72384, Note_off_c, 4, 43, 64
8, 72480, Note_on_c, 4, 36, 94
8, 72864, Note_off_c, 4, 36, 64
8, 72960, Note_on_c, 4, 34, 98
8, 73420, Note_off_c, 4, 34, 64
8, 73440, Control_c, 4, 85, 37
8, 73920, Note_on_c, 4, 41, 101
8, 74304, Note_off_c, 4, 41, 64
8, 74400, Note_on_c, 4, 34, 103
8, 74784, Note_off_c, 4, 34, 64
8, 74880, Note_on_c, 4, 36, 94
8, 75340, Note_off_c, 4, 36, 64
8, 75360, Control_c, 4, 85, 37
8, 75840, Note_on_c, 4, 43, 87
8, 76224, Note_off_c, 4, 43, 64
8, 76320, Note_on_c, 4, 36, 102
8, 76704, Note_off_c, 4, 36, 64
8, 76800, Note_on_c, 4, 34, 99
8, 77260, Note_off_c, 4, 34, 64
8, 77280, Control_c, 4, 85, 37
8, 77760, Note_on_c, 4, 41, 106
8, 78144, Note_off_c, 4, 41, 64
8, 78240, Note_on_c, 4, 34, 110
8, 78624, Note_off_c, 4, 34, 64
8, 78720, Note_on_c, 4, 36, 97
8, 79180, Note_off_c, 4, 36, 64
8, 79200, Control_c, 4, 85, 37
8, 79680, Note_on_c, 4, 43, 104
8, 80064, Note_off_c, 4, 43, 64
8, 80160, Note_on_c, 4, 36, 102
8, 80544, Note_off_c, 4, 36, 64
8, 80640, Note_on_c, 4, 34, 113
8, 81100, Note_off_c, 4, 34, 64
8, 81120, Control_c, 4, 85, 37
8, 81600, Note_on_c, 4, 41, 99
8, 81984, Note_off_c, 4, 41, 64
8, 82080, Note_on_c, 4, 34, 108
8, 82464, Note_off_c, 4, 34, 64
8, 82560, Note_on_c, 4, 36, 111
8, 83020, Note_off_c, 4, 36, 64
8, 83040, Control_c, 4, 85, 37
8, 83520, Note_on_c, 4, 43, 100
8, 83904, Note_off_c, 4, 43, 64
8, 84000, Note_on_c, 4, 36, 101
8, 84384, Note_off_c, 4, 36, 64
8, 84480, Note_on_c, 4, 34, 114
8, 84940, Note_off_c, 4, 34, 64
8, 84960, Control_c, 4, 85, 37
8, 85440, Note_on_c, 4, 41, 114
8, 85824, Note_off_c, 4, 41, 64
8, 85920, Note_on_c, 4, 34, 101
8, 86304, Note_off_c, 4, 34, 64
8, 86400, Note_on_c, 4, 36, 96
8, 86976, Note_off_c, 4, 36, 64
8, 87120, Note_on_c, 4, 45, 89
8, 87312, Note_off_c, 4, 45, 64
8, 87360, Note_on_c, 4, 43, 107
8, 87744, Note_off_c, 4, 43, 64
8, 87840, Note_on_c, 4, 36, 100
8, 88224, Note_off_c, 4, 36, 64
8, 88320, Note_on_c, 4, 34, 93
8, 88780, Note_off_c, 4, 34, 64
8, 88800, Control_c, 4, 85, 37
8, 89280, Note_on_c, 4, 41, 88
8, 89664, Note_off_c, 4, 41, 64
8, 89760, Note_on_c, 4, 34, 101
8, 90144, Note_off_c, 4, 34, 64
8, 90240, Note_on_c, 4, 36, 88
8, 90700, Note_off_c, 4, 36, 64
8, 90720, Control_c, 4, 85, 37
8, 91200, Note_on_c, 4, 43, 100
8, 91584, Note_off_c, 4, 43, 64
8, 91680, Note_on_c, 4, 36, 100
8, 92064, Note_off_c, 4, 36, 64
8, 92160, Note_on_c, 4, 34, 101
8, 92620, Note_off_c, 4, 34, 64
8, 92640, Control_c, 4, 85, 37
8, 93120, Note_on_c, 4, 41, 110
8, 93504, Note_off_c, 4, 41, 64
8, 93600, Note_on_c, 4, 34, 100
8, 93984, Note_off_c, 4, 34, 64
8, 94080, Note_on_c, 4, 41, 100
8, 94540, Note_off_c, 4, 41, 64
8, 94560, Control_c, 4, 85, 37
8, 95040, Note_on_c, 4, 48, 100
8, 95424, Note_off_c, 4, 48, 64
8, 95520, Note_on_c, 4, 36, 101
8, 95980, Note_off_c, 4, 36, 64
8, 96000, Control_c, 4, 85, 37
8, 96480, Note_on_c, 4, 38, 114
8, 96864, Note_off_c, 4, 38, 64
8, 96960, Note_on_c, 4, 38, 88
8, 97420, Note_off_c, 4, 38, 64
8, 97440, Control_c, 4, 85, 37
8, 97920, Note_on_c, 4, 41, 87
8, 98380, Note_off_c, 4, 41, 64
8, 98400, Control_c, 4, 85, 37
8, 98880, Note_on_c, 4, 48, 107
8, 99264, Note_off_c, 4, 48, 64
8, 99360, Note_on_c, 4, 36, 97
8, 99744, Note_off_c, 4, 36, 64
8, 99840, Note_on_c, 4, 38, 101
8, 100300, Note_off_c, 4, 38, 64
8, 100320, Control_c, 4, 85, 37
8, 101760, Note_on_c, 4, 41, 85
8, 102220, Note_off_c, 4, 41, 64
8, 102240, Control_c, 4, 85, 37
8, 102720, Note_on_c, 4, 48, 91
8, 103104, Note_off_c, 4, 48, 64
8, 103200, Note_on_c, 4, 36, 95
8, 103584, Note_off_c, 4, 36, 64
8, 103680, Note_on_c, 4, 38, 107
8, 104140, Note_off_c, 4, 38, 64
8, 104160, Control_c, 4, 85, 37
8, 104640, Note_on_c, 4, 45, 97
8, 105024, Note_off_c, 4, 45, 64
8, 105120, Note_on_c, 4, 38, 110
8, 105504, Note_off_c, 4, 38, 64
8, 105600, Note_on_c, 4, 41, 99
8, 106060, Note_off_c, 4, 41, 64
8, 106080, Control_c, 4, 85, 37
8, 106560, Note_on_c, 4, 48, 97
8, 106944, Note_off_c, 4, 48, 64
8, 107040, Note_on_c, 4, 36, 94
8, 107424, Note_off_c, 4, 36, 64
8, 107520, Note_on_c, 4, 38, 100
8, 107980, Note_off_c, 4, 38, 64
8, 108000, Control_c, 4, 85, 37
8, 108480, Note_on_c, 4, 45, 90
8, 108864, Note_off_c, 4, 45, 64
8, 108960, Note_on_c, 4, 38, 100
8, 109344, Note_off_c, 4, 38, 64
8, 109440, Note_on_c, 4, 41, 92
8, 109900, Note_off_c, 4, 41, 64
8, 109920, Control_c, 4, 85, 37
8, 110400, Note_on_c, 4, 36, 91
8, 110860, Note_off_c, 4, 36, 64
8, 110880, Control_c, 4, 85, 37
8, 111360, Note_on_c, 4, 38, 96
8, 111720, Control_c, 4, 85, 37
8, 111820, Note_off_c, 4, 38, 64
8, 111840, Control_c, 4, 85, 37
8, 112320, Note_on_c, 4, 45, 96
8, 112704, Note_off_c, 4, 45, 64
8, 112800, Note_on_c, 4, 38, 94
8, 113184, Note_off_c, 4, 38, 64
8, 113280, Note_on_c, 4, 41, 108
8, 113740, Note_off_c, 4, 41, 64
8, 113760, Control_c, 4, 85, 37
8, 114240, Note_on_c, 4, 36, 113
8, 114700, Note_off_c, 4, 36, 64
8, 114720, Control_c, 4, 85, 37
8, 115200, Note_on_c, 4, 38, 107
8, 115660, Note_off_c, 4, 38, 64
8, 115680, Control_c, 4, 85, 37
8, 116160, Note_on_c, 4, 41, 86
8, 116544, Note_off_c, 4, 41, 64
8, 116640, Note_on_c, 4, 45, 100
8, 117024, Note_off_c, 4, 45, 64
8, 117120, Note_on_c, 4, 38, 100
8, 117580, Note_off_c, 4, 38, 64
8, 117600, Control_c, 4, 85, 37
8, 118080, Note_on_c, 4, 45, 94
8, 118464, Note_off_c, 4, 45, 64
8, 118560, Note_on_c, 4, 38, 101
8, 118944, Note_off_c, 4, 38, 64
8, 119040, Note_on_c, 4, 34, 111
8, 119500, Note_off_c, 4, 34, 64
8, 119520, Control_c, 4, 85, 37
8, 120000, Note_on_c, 4, 41, 96
8, 120384, Note_off_c, 4, 41, 64
8, 120480, Note_on_c, 4, 34, 109
8, 120864, Note_off_c, 4, 34, 64
8, 120960, Note_on_c, 4, 36, 100
8, 121420, Note_off_c, 4, 36, 64
8, 121440, Control_c, 4, 85, 37
8, 121920, Note_on_c, 4, 48, 100
8, 122304, Note_off_c, 4, 48, 64
8, 122400, Note_on_c, 4, 36, 86
8, 122784, Note_off_c, 4, 36, 64
8, 122880, Note_on_c, 4, 41, 96
8, 123340, Note_off_c, 4, 41, 64
8, 123360, Control_c, 4, 85, 37
8, 123840, Note_on_c, 4, 48, 94
8, 124224, Note_off_c, 4, 48, 64
8, 124320, Note_on_c, 4, 36, 98
8, 124780, Note_off_c, 4, 36, 64
8, 124800, Control_c, 4, 85, 37
8, 125280, Note_on_c, 4, 38, 99
8, 125664, Note_off_c, 4, 38, 64
8, 125760, Note_on_c, 4, 38, 102
8, 126220, Note_off_c, 4, 38, 64
8, 126240, Control_c, 4, 85, 37
8, 126720, Note_on_c, 4, 41, 88
8, 127180, Note_off_c, 4, 41, 64
8, 127200, Control_c, 4, 85, 37
8, 127680, Note_on_c, 4, 48, 92
8, 128064, Note_off_c, 4, 48, 64
8, 128160, Note_on_c, 4, 36, 98
8, 128544, Note_off_c, 4, 36, 64
8, 128640, Note_on_c, 4, 38, 99
8, 129100, Note_off_c, 4, 38, 64
8, 129120, Control_c, 4, 85, 37
8, 130560, Note_on_c, 4, 41, 99
8, 131020, Note_off_c, 4, 41, 64
8, 131040, Control_c, 4, 85, 37
8, 131520, Note_on_c, 4, 48, 105
8, 131980, Note_off_c, 4, 48, 64
8, 132000, Control_c, 4, 86, 37
8, 132480, Note_on_c, 4, 38, 101
8, 132940, Note_off_c, 4, 38, 64
8, 132960, Control_c, 4, 85, 37
8, 133440, Note_on_c, 4, 45, 112
8, 133824, Note_off_c, 4, 45, 64
8, 133920, Note_on_c, 4, 38, 103
8, 134304, Note_off_c, 4, 38, 64
8, 134400, Note_on_c, 4, 41, 99
8, 134860, Note_off_c, 4, 41, 64
8, 134880, Control_c, 4, 85, 37
8, 135360, Note_on_c, 4, 48, 103
8, 135744, Note_off_c, 4, 48, 64
8, 135840, Note_on_c, 4, 36, 85
8, 136224, Note_off_c, 4, 36, 64
8, 136320, Note_on_c, 4, 38, 100
8, 136780, Note_off_c, 4, 38, 64
8, 136800, Control_c, 4, 85, 37
8, 137280, Note_on_c, 4, 45, 93
8, 137664, Note_off_c, 4, 45, 64
8, 137760, Note_on_c, 4, 38, 100
8, 138144, Note_off_c, 4, 38, 64
8, 138240, Note_on_c, 4, 41, 87
8, 138700, Note_off_c, 4, 41, 64
8, 138720, Control_c, 4, 85, 37
8, 139200, Note_on_c, 4, 36, 100
8, 139660, Note_off_c, 4, 36, 64
8, 139680, Control_c, 4, 85, 37
8, 140160, Note_on_c, 4, 38, 100
8, 140620, Note_off_c, 4, 38, 64
8, 140640, Control_c, 4, 85, 37
8, 141120, Note_on_c, 4, 45, 101
8, 141504, Note_off_c, 4, 45, 64
8, 141600, Note_on_c, 4, 38, 103
8, 141984, Note_off_c, 4, 38, 64
8, 142080, Note_on_c, 4, 41, 85
8, 142540, Note_off_c, 4, 41, 64
8, 142560, Control_c, 4, 85, 37
8, 143040, Note_on_c, 4, 36, 90
8, 143500, Note_off_c, 4, 36, 64
8, 143520, Control_c, 4, 85, 37
8, 144000, Note_on_c, 4, 38, 101
8, 144460, Note_off_c, 4, 38, 64
8, 144480, Control_c, 4, 85, 37
8, 144960, Note_on_c, 4, 41, 99
8, 145344, Note_off_c, 4, 41, 64
8, 145440, Note_on_c, 4, 45, 93
8, 145824, Note_off_c, 4, 45, 64
8, 145920, Note_on_c, 4, 38, 88
8, 146380, Note_off_c, 4, 38, 64
8, 146400, Control_c, 4, 85, 37
8, 146880, Note_on_c, 4, 45, 100
8, 147264, Note_off_c, 4, 45, 64
8, 147360, Note_on_c, 4, 38, 94
8, 147744, Note_off_c, 4, 38, 64
8, 147840, Note_on_c, 4, 34, 101
8, 148300, Note_off_c, 4, 34, 64
8, 148320, Control_c, 4, 85, 37
8, 148800, Note_on_c, 4, 41, 94
8, 149184, Note_off_c, 4, 41, 64
8, 149280, Note_on_c, 4, 34, 100
8, 149664, Note_off_c, 4, 34, 64
8, 149760, Note_on_c, 4, 36, 101
8, 150220, Note_off_c, 4, 36, 64
8, 150240, Control_c, 4, 85, 37
8, 150720, Note_on_c, 4, 48, 98
8, 151104, Note_off_c, 4, 48, 64
8, 151200, Note_on_c, 4, 36, 98
8, 151584, Note_off_c, 4, 36, 64
8, 151680, Note_on_c, 4, 41, 114
8, 152140, Note_off_c, 4, 41, 64
8, 152160, Control_c, 4, 85, 37
8, 152640, Note_on_c, 4, 48, 88
8, 153024, Note_off_c, 4, 48, 64
8, 153120, Note_on_c, 4, 36, 102
8, 153580, Note_off_c, 4, 36, 64
8, 153600, Control_c, 4, 85, 37
8, 154080, Note_on_c, 4, 38, 88
8, 154464, Note_off_c, 4, 38, 64
8, 154560, Note_on_c, 4, 38, 109
8, 155020, Note_off_c, 4, 38, 64
8, 155040, Control_c, 4, 85, 37
8, 155520, Note_on_c, 4, 41, 100
8, 155980, Note_off_c, 4, 41, 64
8, 156000, Control_c, 4, 85, 37
8, 156480, Note_on_c, 4, 48, 93
8, 156864, Note_off_c, 4, 48, 64
8, 156960, Note_on_c, 4, 36, 111
8, 157344, Note_off_c, 4, 36, 64
8, 157440, Note_on_c, 4, 38, 98
8, 157900, Note_off_c, 4, 38, 64
8, 157920, Control_c, 4, 85, 37
8, 159360, Note_on_c, 4, 41, 93
8, 159820, Note_off_c, 4, 41, 64
8, 159840, Control_c, 4, 85, 37
8, 160320, Note_on_c, 4, 48, 106
8, 160780, Note_off_c, 4, 48, 64
8, 160800, Control_c, 4, 86, 37
8, 161280, Note_on_c, 4, 38, 101
8, 161740, Note_off_c, 4, 38, 64
8, 161760, Control_c, 4, 85, 37
8, 162240, Note_on_c, 4, 45, 89
8, 162624, Note_off_c, 4, 45, 64
8, 162720, Note_on_c, 4, 38, 99
8, 163104, Note_off_c, 4, 38, 64
8, 163200, Note_on_c, 4, 41, 87
8, 163660, Note_off_c, 4, 41, 64
8, 163680, Control_c, 4, 85, 37
8, 164160, Note_on_c, 4, 48, 103
8, 164544, Note_off_c, 4, 48, 64
8, 164640, Note_on_c, 4, 36, 104
8, 165024, Note_off_c, 4, 36, 64
8, 165120, Note_on_c, 4, 38, 102
8, 165580, Note_off_c, 4, 38, 64
8, 165600, Control_c, 4, 85, 37
8, 166080, Note_on_c, 4, 45, 98
8, 166464, Note_off_c, 4, 45, 64
8, 166560, Note_on_c, 4, 38, 100
8, 166944, Note_off_c, 4, 38, 64
8, 167040, Note_on_c, 4, 41, 90
8, 167500, Note_off_c, 4, 41, 64
8, 167520, Control_c, 4, 85, 37
8, 168000, Note_on_c, 4, 36, 112
8, 168460, Note_off_c, 4, 36, 64
8, 168480, Control_c, 4, 85, 37
8, 168960, Note_on_c, 4, 38, 93
8, 169420, Note_off_c, 4, 38, 64
8, 169440, Control_c, 4, 85, 37
8, 169920, Note_on_c, 4, 45, 105
8, 170304, Note_off_c, 4, 45, 64
8, 170400, Note_on_c, 4, 38, 86
8, 170784, Note_off_c, 4, 38, 64
8, 170880, Note_on_c, 4, 41, 100
8, 171340, Note_off_c, 4, 41, 64
8, 171360, Control_c, 4, 85, 37
8, 171840, Note_on_c, 4, 36, 112
8, 172300, Note_off_c, 4, 36, 64
8, 172320, Control_c, 4, 85, 37
8, 172800, Note_on_c, 4, 38, 101
8, 173260, Note_off_c, 4, 38, 64
8, 173280, Control_c, 4, 85, 37
8, 173760, Note_on_c, 4, 41, 100
8, 174144, Note_off_c, 4, 41, 64
8, 174240, Note_on_c, 4, 45, 89
8, 174624, Note_off_c, 4, 45, 64
8, 174720, Note_on_c, 4, 38, 104
8, 175180, Note_off_c, 4, 38, 64
8, 175200, Control_c, 4, 85, 37
8, 175680, Note_on_c, 4, 45, 99
8, 176064, Note_off_c, 4, 45, 64
8, 176160, Note_on_c, 4, 38, 92
8, 176544, Note_off_c, 4, 38, 64
8, 176640, Note_on_c, 4, 34, 101
8, 177100, Note_off_c, 4, 34, 64
8, 177120, Control_c, 4, 85, 37
8, 177600, Note_on_c, 4, 41, 98
8, 177984, Note_off_c, 4, 41, 64
8, 178080, Note_on_c, 4, 34, 100
8, 178464, Note_off_c, 4, 34, 64
8, 178560, Note_on_c, 4, 36, 108
8, 179020, Note_off_c, 4, 36, 64
8, 179040, Control_c, 4, 85, 37
8, 179520, Note_on_c, 4, 48, 97
8, 179904, Note_off_c, 4, 48, 64
8, 180000, Note_on_c, 4, 36, 102
8, 180384, Note_off_c, 4, 36, 64
8, 180480, Note_on_c, 4, 41, 98
8, 180940, Note_off_c, 4, 41, 64
8, 180960, Control_c, 4, 85, 37
8, 181440, Note_on_c, 4, 48, 87
8, 181824, Note_off_c, 4, 48, 64
8, 181920, Note_on_c, 4, 36, 86
8, 182380, Note_off_c, 4, 36, 64
8, 182400, Control_c, 4, 85, 37
8, 182880, Note_on_c, 4, 38, 86
8, 183264, Note_off_c, 4, 38, 64
8, 183360, Note_on_c, 4, 38, 100
8, 183820, Note_off_c, 4, 38, 64
8, 183840, Control_c, 4, 85, 37
8, 184320, Note_on_c, 4, 41, 109
8, 184780, Note_off_c, 4, 41, 64
8, 184800, Control_c, 4, 85, 37
8, 185280, Note_on_c, 4, 48, 98
8, 185664, Note_off_c, 4, 48, 64
8, 185760, Note_on_c, 4, 36, 86
8, 186144, Note_off_c, 4, 36, 64
8, 186240, Control_c, 4, 85, 37
8, 186720, Note_on_c, 4, 38, 91
8, 187104, Note_off_c, 4, 38, 64
8, 187200, Note_on_c, 4, 38, 106
8, 187660, Note_off_c, 4, 38, 64
8, 187680, Control_c, 4, 85, 37
8, 188160, Note_on_c, 4, 36, 90
8, 188620, Note_off_c, 4, 36, 64
8, 188640, Control_c, 4, 85, 37
8, 189120, Note_on_c, 4, 43, 99
8, 189504, Note_off_c, 4, 43, 64
8, 189600, Note_on_c, 4, 36, 93
8, 189984, Note_off_c, 4, 36, 64
8, 190080, Note_on_c, 4, 34, 101
8, 190540, Note_off_c, 4, 34, 64
8, 190560, Control_c, 4, 85, 37
8, 191040, Note_on_c, 4, 41, 90
8, 191424, Note_off_c, 4, 41, 64
8, 191520, Note_on_c, 4, 34, 114
8, 191904, Note_off_c, 4, 34, 64
8, 192000, Note_on_c, 4, 36, 100
8, 192576, Note_off_c, 4, 36, 64
8, 192720, Note_on_c, 4, 45, 99
8, 192912, Note_off_c, 4, 45, 64
8, 192960, Note_on_c, 4, 43, 102
8, 193344, Note_off_c, 4, 43, 64
8, 193440, Note_on_c, 4, 36, 106
8, 193824, Note_off_c, 4, 36, 64
8, 193920, Note_on_c, 4, 34, 110
8, 194380, Note_off_c, 4, 34, 64
8, 194400, Control_c, 4, 85, 37
8, 194880, Note_on_c, 4, 41, 100
8, 195264, Note_off_c, 4, 41, 64
8, 195360, Note_on_c, 4, 34, 99
8, 195744, Note_off_c, 4, 34, 64
8, 195840, Note_on_c, 4, 36, 101
8, 196300, Note_off_c, 4, 36, 64
8, 196320, Control_c, 4, 85, 37
8, 196800, Note_on_c, 4, 43, 89
8, 197184, Note_off_c, 4, 43, 64
8, 197280, Note_on_c, 4, 36, 85
8, 197664, Note_off_c, 4, 36, 64
8, 197760, Note_on_c, 4, 34, 109
8, 198220, Note_off_c, 4, 34, 64
8, 198240, Control_c, 4, 85, 37
8, 198720, Note_on_c, 4, 41, 101
8, 199104, Note_off_c, 4, 41, 64
8, 199200, Note_on_c, 4, 34, 100
8, 199584, Note_off_c, 4, 34, 64
8, 199680, Note_on_c, 4, 36, 100
8, 200140, Note_off_c, 4, 36, 64
8, 200160, Control_c, 4, 85, 37
8, 200640, Note_on_c, 4, 43, 88
8, 201024, Note_off_c, 4, 43, 64
8, 201120, Note_on_c, 4, 36, 92
8, 201504, Note_off_c, 4, 36, 64
8, 201600, Note_on_c, 4, 34, 108
8, 202060, Note_off_c, 4, 34, 64
8, 202080, Control_c, 4, 85, 37
8, 202560, Note_on_c, 4, 41, 99
8, 202944, Note_off_c, 4, 41, 64
8, 203040, Note_on_c, 4, 34, 100
8, 203424, Note_off_c, 4, 34, 64
8, 203520, Note_on_c, 4, 36, 106
8, 203980, Note_off_c, 4, 36, 64
8, 204000, Control_c, 4, 85, 37
8, 204480, Note_on_c, 4, 43, 108
8, 204864, Note_off_c, 4, 43, 64
8, 204960, Note_on_c, 4, 36, 109
8, 205344, Note_off_c, 4, 36, 64
8, 205440, Note_on_c, 4, 34, 94
8, 205900, Note_off_c, 4, 34, 64
8, 205920, Control_c, 4, 85, 37
8, 206400, Note_on_c, 4, 41, 101
8, 206784, Note_off_c, 4, 41, 64
8, 206880, Note_on_c, 4, 34, 97
8, 207264, Note_off_c, 4, 34, 64
8, 207360, Note_on_c, 4, 36, 96
8, 207936, Note_off_c, 4, 36, 64
8, 208080, Note_on_c, 4, 45, 101
8, 208272, Note_off_c, 4, 45, 64
8, 208320, Note_on_c, 4, 43, 93
8, 208704, Note_off_c, 4, 43, 64
8, 208800, Note_on_c, 4, 36, 110
8, 209184, Note_off_c, 4, 36, 64
8, 209280, Note_on_c, 4, 34, 88
8, 209740, Note_off_c, 4, 34, 64
8, 209760, Control_c, 4, 85, 37
8, 210240, Note_on_c, 4, 41, 98
8, 210624, Note_off_c, 4, 41, 64
8, 210720, Note_on_c, 4, 34, 106
8, 211104, Note_off_c, 4, 34, 64
8, 211200, Note_on_c, 4, 36, 111
8, 211660, Note_off_c, 4, 36, 64
8, 211680, Control_c, 4, 85, 37
8, 212160, Note_on_c, 4, 43, 103
8, 212544, Note_off_c, 4, 43, 64
8, 212640, Note_on_c, 4, 36, 111
8, 213024, Note_off_c, 4, 36, 64
8, 213120, Note_on_c, 4, 34, 90
8, 213580, Note_off_c, 4, 34, 64
8, 213600, Control_c, 4, 85, 37
8, 214080, Note_on_c, 4, 41, 100
8, 214464, Note_off_c, 4, 41, 64
8, 214560, Note_on_c, 4, 34, 95
8, 214944, Note_off_c, 4, 34, 64
8, 215040, Note_on_c, 4, 41, 111
8, 215500, Note_off_c, 4, 41, 64
8, 215520, Control_c, 4, 85, 37
8, 216000, Note_on_c, 4, 48, 86
8, 216384, Note_off_c, 4, 48, 64
8, 216480, Note_on_c, 4, 36, 107
8, 216940, Note_off_c, 4, 36, 64
8, 216960, Control_c, 4, 85, 37
8, 217440, Note_on_c, 4, 38, 97
8, 217824, Note_off_c, 4, 38, 64
8, 217920, Note_on_c, 4, 38, 97
8, 218380, Note_off_c, 4, 38, 64
8, 218400, Control_c, 4, 85, 37
8, 218880, Note_on_c, 4, 41, 94
8, 219340, Note_off_c, 4, 41, 64
8, 219360, Control_c, 4, 85, 37
8, 219840, Note_on_c, 4, 48, 109
8, 220224, Note_off_c, 4, 48, 64
8, 220320, Note_on_c, 4, 36, 100
8, 220704, Note_off_c, 4, 36, 64
8, 220800, Note_on_c, 4, 38, 112
8, 221260, Note_off_c, 4, 38, 64
8, 221280, Control_c, 4, 85, 37
8, 222720, Note_on_c, 4, 41, 90
8, 223180, Note_off_c, 4, 41, 64
8, 223200, Control_c, 4, 85, 37
8, 223680, Note_on_c, 4, 48, 100
8, 224064, Note_off_c, 4, 48, 64
8, 224160, Note_on_c, 4, 36, 95
8, 224544, Note_off_c, 4, 36, 64
8, 224640, Note_on_c, 4, 38, 105
8, 225100, Note_off_c, 4, 38, 64
8, 225120, Control_c, 4, 85, 37
8, 225600, Note_on_c, 4, 45, 93
8, 225984, Note_off_c, 4, 45, 64
8, 226080, Note_on_c, 4, 38, 100
8, 226464, Note_off_c, 4, 38, 64
8, 226560, Note_on_c, 4, 41, 114
8, 227020, Note_off_c, 4, 41, 64
8, 227040, Control_c, 4, 85, 37
8, 227520, Note_on_c, 4, 48, 99
8, 227904, Note_off_c, 4, 48, 64
8, 228000, Note_on_c, 4, 36, 103
8, 228384, Note_off_c, 4, 36, 64
8, 228480, Note_on_c, 4, 38, 100
8, 228940, Note_off_c, 4, 38, 64
8, 228960, Control_c, 4, 85, 37
8, 229440, Note_on_c, 4, 45, 111
8, 229824, Note_off_c, 4, 45, 64
8, 229920, Note_on_c, 4, 38, 100
8, 230304, Note_off_c, 4, 38, 64
8, 230400, Note_on_c, 4, 41, 103
8, 230860, Note_off_c, 4, 41, 64
8, 230880, Control_c, 4, 85, 37
8, 231360, Note_on_c, 4, 36, 91
8, 231820, Note_off_c, 4, 36, 64
8, 231840, Control_c, 4, 85, 37
8, 232320, Note_on_c, 4, 38, 91
8, 232680, Control_c, 4, 85, 37
8, 232780, Note_off_c, 4, 38, 64
8, 232800, Control_c, 4, 85, 37
8, 233280, Note_on_c, 4, 45, 95
8, 233664, Note_off_c, 4, 45, 64
8, 233760, Note_on_c, 4, 38, 100
8, 234144, Note_off_c, 4, 38, 64
8, 234240, Note_on_c, 4, 41, 100
8, 234700, Note_off_c, 4, 41, 64
8, 234720, Control_c, 4, 85, 37
8, 235200, Note_on_c, 4, 36, 102
8, 235660, Note_off_c, 4, 36, 64
8, 235680, Control_c, 4, 85, 37
8, 236160, Note_on_c, 4, 38, 110
8, 236620, Note_off_c, 4, 38, 64
8, 236640, Control_c, 4, 85, 37
8, 237120, Note_on_c, 4, 41, 107
8, 237504, Note_off_c, 4, 41, 64
8, 237600, Note_on_c, 4, 45, 91
8, 237984, Note_off_c, 4, 45, 64
8, 238080, Note_on_c, 4, 38, 111
8, 238540, Note_off_c, 4, 38, 64
8, 238560, Control_c, 4, 85, 37
8, 239040, Note_on_c, 4, 45, 94
8, 239424, Note_off_c, 4, 45, 64
8, 239520, Note_on_c, 4, 38, 100
8, 239904, Note_off_c, 4, 38, 64
8, 240000, Note_on_c, 4, 34, 113
8, 240460, Note_off_c, 4, 34, 64
8, 240480, Control_c, 4, 85, 37
8, 240960, Note_on_c, 4, 41, 114
8, 241344, Note_off_c, 4, 41, 64
8, 241440, Note_on_c, 4, 34, 102
8, 241824, Note_off_c, 4, 34, 64
8, 241920, Note_on_c, 4, 36, 102
8, 242380, Note_off_c, 4, 36, 64
8, 242400, Control_c, 4, 85, 37
8, 242880, Note_on_c, 4, 48, 100
8, 243264, Note_off_c, 4, 48, 64
8, 243360, Note_on_c, 4, 36, 100
8, 243744, Note_off_c, 4, 36, 64
8, 243840, Note_on_c, 4, 41, 86
8, 244300, Note_off_c, 4, 41, 64
8, 244320, Control_c, 4, 85, 37
8, 244800, Note_on_c, 4, 48, 102
8, 245184, Note_off_c, 4, 48, 64
8, 245280, Note_on_c, 4, 41, 98
8, 245740, Note_off_c, 4, 41, 64
8, 245760, Control_c, 4, 85, 37
8, 246240, Note_on_c, 4, 34, 106
8, 246240, Note_on_c, 4, 46, 114
8, 246624, Note_off_c, 4, 46, 64
8, 246624, Note_off_c, 4, 34, 64
8, 246720, Note_on_c, 4, 46, 100
8, 246720, Note_on_c, 4, 34, 93
8, 247180, Note_off_c, 4, 46, 64
8, 247200, Note_off_c, 4, 34, 64
8, 247200, Control_c, 4, 85, 37
8, 247680, Note_on_c, 4, 41, 112
8, 248064, Note_off_c, 4, 41, 64
8, 248160, Note_on_c, 4, 36, 99
8, 248544, Note_off_c, 4, 36, 64
8, 248640, Note_on_c, 4, 34, 103
8, 249024, Note_off_c, 4, 34, 64
8, 249120, Note_on_c, 4, 34, 90
8, 249504, Note_off_c, 4, 34, 64
8, 249600, Note_on_c, 4, 41, 90
8, 249984, Note_off_c, 4, 41, 64
8, 250080, Note_on_c, 4, 36, 91
8, 250464, Note_off_c, 4, 36, 64
8, 250560, Note_on_c, 4, 29, 99
8, 250560, Note_on_c, 4, 41, 99
8, 251020, Note_off_c, 4, 41, 64
8, 251020, Note_off_c, 4, 29, 64
8, 251040, Control_c, 4, 85, 37
8, 251040, End_track
9, 0, Start_track
9, 0, Title_t, "Drums   "
9, 0, MIDI_port, 0
9, 0, Channel_prefix, 9
9, 0, Control_c, 9, 7, 127
9, 0, Control_c, 9, 10, 64
9, 0, Program_c, 9, 32
9, 0, Control_c, 9, 123, 0
9, 1920, Note_on_c, 9, 35, 90
9, 1920, Note_on_c, 9, 42, 90
9, 1920, Note_on_c, 9, 49, 90
9, 2020, Note_off_c, 9, 49, 64
9, 2020, Note_off_c, 9, 42, 64
9, 2020, Note_off_c, 9, 35, 64
9, 2160, Note_on_c, 9, 42, 70
9, 2260, Note_off_c, 9, 42, 64
9, 2400, Note_on_c, 9, 38, 100
9, 2400, Note_on_c, 9, 42, 115
9, 2500, Note_off_c, 9, 42, 64
9, 2500, Note_off_c, 9, 38, 64
9, 2640, Note_on_c, 9, 35, 80
9, 2640, Note_on_c, 9, 42, 70
9, 2740, Note_off_c, 9, 42, 64
9, 2740, Note_off_c, 9, 35, 64
9, 2880, Note_on_c, 9, 35, 100
9, 2880, Note_on_c, 9, 42, 90
9, 2980, Note_off_c, 9, 42, 64
9, 2980, Note_off_c, 9, 35, 64
9, 3120, Note_on_c, 9, 42, 70
9, 3220, Note_off_c, 9, 42, 64
9, 3360, Note_on_c, 9, 38, 100
9, 3360, Note_on_c, 9, 42, 100
9, 3460, Note_off_c, 9, 42, 64
9, 3460, Note_off_c, 9, 38, 64
9, 3600, Note_on_c, 9, 42, 70
9, 3700, Note_off_c, 9, 42, 64
9, 3840, Note_on_c, 9, 35, 90
9, 3840, Note_on_c, 9, 42, 90
9, 3940, Note_off_c, 9, 42, 64
9, 3940, Note_off_c, 9, 35, 64
9, 4080, Note_on_c, 9, 42, 70
9, 4180, Note_off_c, 9, 42, 64
9, 4320, Note_on_c, 9, 38, 100
9, 4320, Note_on_c, 9, 42, 115
9, 4420, Note_off_c, 9, 42, 64
9, 4420, Note_off_c, 9, 38, 64
9, 4560, Note_on_c, 9, 35, 80
9, 4560, Note_on_c, 9, 42, 75
9, 4660, Note_off_c, 9, 42, 64
9, 4660, Note_off_c, 9, 35, 64
9, 4800, Note_on_c, 9, 35, 100
9, 4800, Note_on_c, 9, 42, 90
9, 4900, Note_off_c, 9, 42, 64
9, 4900, Note_off_c, 9, 35, 64
9, 5040, Note_on_c, 9, 42, 70
9, 5140, Note_off_c, 9, 42, 64
9, 5280, Note_on_c, 9, 38, 100
9, 5280, Note_on_c, 9, 42, 100
9, 5280, Note_on_c, 9, 54, 115
9, 5380, Note_off_c, 9, 54, 64
9, 5380, Note_off_c, 9, 42, 64
9, 5380, Note_off_c, 9, 38, 64
9, 5520, Note_on_c, 9, 35, 70
9, 5520, Note_on_c, 9, 46, 80
9, 5620, Note_off_c, 9, 46, 64
9, 5620, Note_off_c, 9, 35, 64
9, 5760, Note_on_c, 9, 35, 90
9, 5760, Note_on_c, 9, 42, 90
9, 5860, Note_off_c, 9, 42, 64
9, 5860, Note_off_c, 9, 35, 64
9, 5880, Note_on_c, 9, 42, 60
9, 5980, Note_off_c, 9, 42, 64
9, 6000, Note_on_c, 9, 42, 70
9, 6100, Note_off_c, 9, 42, 64
9, 6240, Note_on_c, 9, 38, 100
9, 6240, Note_on_c, 9, 42, 115
9, 6340, Note_off_c, 9, 42, 64
9, 6340, Note_off_c, 9, 38, 64
9, 6480, Note_on_c, 9, 35, 80
9, 6480, Note_on_c, 9, 42, 70
9, 6580, Note_off_c, 9, 42, 64
9, 6580, Note_off_c, 9, 35, 64
9, 6720, Note_on_c, 9, 35, 100
9, 6720, Note_on_c, 9, 42, 90
9, 6820, Note_off_c, 9, 42, 64
9, 6820, Note_off_c, 9, 35, 64
9, 6960, Note_on_c, 9, 42, 70
9, 7060, Note_off_c, 9, 42, 64
9, 7200, Note_on_c, 9, 38, 100
9, 7200, Note_on_c, 9, 42, 100
9, 7300, Note_off_c, 9, 42, 64
9, 7300, Note_off_c, 9, 38, 64
9, 7440, Note_on_c, 9, 42, 70
9, 7540, Note_off_c, 9, 42, 64
9, 7680, Note_on_c, 9, 35, 90
9, 7680, Note_on_c, 9, 42, 90
9, 7780, Note_off_c, 9, 42, 64
9, 7780, Note_off_c, 9, 35, 64
9, 7920, Note_on_c, 9, 42, 70
9, 8020, Note_off_c, 9, 42, 64
9, 8160, Note_on_c, 9, 38, 100
9, 8160, Note_on_c, 9, 42, 115
9, 8260, Note_off_c, 9, 42, 64
9, 8260, Note_off_c, 9, 38, 64
9, 8400, Note_on_c, 9, 35, 80
9, 8400, Note_on_c, 9, 42, 70
9, 8500, Note_off_c, 9, 42, 64
9, 8500, Note_off_c, 9, 35, 64
9, 8640, Note_on_c, 9, 35, 100
9, 8640, Note_on_c, 9, 42, 90
9, 8740, Note_off_c, 9, 42, 64
9, 8740, Note_off_c, 9, 35, 64
9, 8880, Note_on_c, 9, 38, 90
9, 8980, Note_off_c, 9, 38, 64
9, 9000, Note_on_c, 9, 38, 70
9, 9100, Note_off_c, 9, 38, 64
9, 9120, Note_on_c, 9, 38, 100
9, 9220, Note_off_c, 9, 38, 64
9, 9360, Note_on_c, 9, 38, 100
9, 9360, Note_on_c, 9, 46, 90
9, 9460, Note_off_c, 9, 46, 64
9, 9460, Note_off_c, 9, 38, 64
9, 9600, Note_on_c, 9, 35, 90
9, 9600, Note_on_c, 9, 42, 90
9, 9600, Note_on_c, 9, 49, 90
9, 9700, Note_off_c, 9, 49, 64
9, 9700, Note_off_c, 9, 42, 64
9, 9700, Note_off_c, 9, 35, 64
9, 9840, Note_on_c, 9, 42, 70
9, 9940, Note_off_c, 9, 42, 64
9, 10080, Note_on_c, 9, 38, 100
9, 10080, Note_on_c, 9, 42, 115
9, 10180, Note_off_c, 9, 42, 64
9, 10180, Note_off_c, 9, 38, 64
9, 10320, Note_on_c, 9, 35, 80
9, 10320, Note_on_c, 9, 42, 70
9, 10420, Note_off_c, 9, 42, 64
9, 10420, Note_off_c, 9, 35, 64
9, 10560, Note_on_c, 9, 35, 100
9, 10560, Note_on_c, 9, 42, 90
9, 10660, Note_off_c, 9, 42, 64
9, 10660, Note_off_c, 9, 35, 64
9, 10800, Note_on_c, 9, 42, 70
9, 10900, Note_off_c, 9, 42, 64
9, 11040, Note_on_c, 9, 38, 100
9, 11040, Note_on_c, 9, 42, 100
9, 11140, Note_off_c, 9, 42, 64
9, 11140, Note_off_c, 9, 38, 64
9, 11280, Note_on_c, 9, 42, 70
9, 11380, Note_off_c, 9, 42, 64
9, 11520, Note_on_c, 9, 35, 90
9, 11520, Note_on_c, 9, 42, 90
9, 11620, Note_off_c, 9, 42, 64
9, 11620, Note_off_c, 9, 35, 64
9, 11760, Note_on_c, 9, 42, 70
9, 11860, Note_off_c, 9, 42, 64
9, 12000, Note_on_c, 9, 38, 100
9, 12000, Note_on_c, 9, 42, 115
9, 12100, Note_off_c, 9, 42, 64
9, 12100, Note_off_c, 9, 38, 64
9, 12240, Note_on_c, 9, 35, 80
9, 12240, Note_on_c, 9, 42, 80
9, 12340, Note_off_c, 9, 42, 64
9, 12340, Note_off_c, 9, 35, 64
9, 12480, Note_on_c, 9, 35, 100
9, 12480, Note_on_c, 9, 42, 90
9, 12580, Note_off_c, 9, 42, 64
9, 12580, Note_off_c, 9, 35, 64
9, 12720, Note_on_c, 9, 42, 70
9, 12820, Note_off_c, 9, 42, 64
9, 12960, Note_on_c, 9, 38, 100
9, 12960, Note_on_c, 9, 42, 100
9, 12960, Note_on_c, 9, 54, 115
9, 13060, Note_off_c, 9, 54, 64
9, 13060, Note_off_c, 9, 42, 64
9, 13060, Note_off_c, 9, 38, 64
9, 13200, Note_on_c, 9, 35, 70
9, 13200, Note_on_c, 9, 42, 70
9, 13300, Note_off_c, 9, 42, 64
9, 13300, Note_off_c, 9, 35, 64
9, 13440, Note_on_c, 9, 35, 90
9, 13440, Note_on_c, 9, 42, 100
9, 13540, Note_off_c, 9, 42, 64
9, 13540, Note_off_c, 9, 35, 64
9, 13680, Note_on_c, 9, 42, 70
9, 13780, Note_off_c, 9, 42, 64
9, 13920, Note_on_c, 9, 38, 100
9, 13920, Note_on_c, 9, 42, 115
9, 14020, Note_off_c, 9, 42, 64
9, 14020, Note_off_c, 9, 38, 64
9, 14160, Note_on_c, 9, 35, 80
9, 14160, Note_on_c, 9, 42, 70
9, 14260, Note_off_c, 9, 42, 64
9, 14260, Note_off_c, 9, 35, 64
9, 14400, Note_on_c, 9, 35, 100
9, 14400, Note_on_c, 9, 42, 90
9, 14500, Note_off_c, 9, 42, 64
9, 14500, Note_off_c, 9, 35, 64
9, 14640, Note_on_c, 9, 42, 70
9, 14740, Note_off_c, 9, 42, 64
9, 14880, Note_on_c, 9, 38, 100
9, 14880, Note_on_c, 9, 42, 100
9, 14980, Note_off_c, 9, 42, 64
9, 14980, Note_off_c, 9, 38, 64
9, 15120, Note_on_c, 9, 42, 70
9, 15220, Note_off_c, 9, 42, 64
9, 15360, Note_on_c, 9, 35, 90
9, 15360, Note_on_c, 9, 42, 90
9, 15460, Note_off_c, 9, 42, 64
9, 15460, Note_off_c, 9, 35, 64
9, 15600, Note_on_c, 9, 42, 70
9, 15700, Note_off_c, 9, 42, 64
9, 15840, Note_on_c, 9, 38, 100
9, 15840, Note_on_c, 9, 42, 115
9, 15940, Note_off_c, 9, 42, 64
9, 15940, Note_off_c, 9, 38, 64
9, 16080, Note_on_c, 9, 35, 80
9, 16080, Note_on_c, 9, 42, 75
9, 16180, Note_off_c, 9, 42, 64
9, 16180, Note_off_c, 9, 35, 64
9, 16320, Note_on_c, 9, 35, 100
9, 16320, Note_on_c, 9, 42, 90
9, 16420, Note_off_c, 9, 42, 64
9, 16420, Note_off_c, 9, 35, 64
9, 16560, Note_on_c, 9, 42, 70
9, 16660, Note_off_c, 9, 42, 64
9, 16800, Note_on_c, 9, 38, 100
9, 16800, Note_on_c, 9, 42, 100
9, 16800, Note_on_c, 9, 54, 115
9, 16900, Note_off_c, 9, 54, 64
9, 16900, Note_off_c, 9, 42, 64
9, 16900, Note_off_c, 9, 38, 64
9, 17040, Note_on_c, 9, 35, 70
9, 17040, Note_on_c, 9, 46, 80
9, 17140, Note_off_c, 9, 46, 64
9, 17140, Note_off_c, 9, 35, 64
9, 17280, Note_on_c, 9, 35, 90
9, 17280, Note_on_c, 9, 42, 90
9, 17380, Note_off_c, 9, 42, 64
9, 17380, Note_off_c, 9, 35, 64
9, 17520, Note_on_c, 9, 42, 70
9, 17620, Note_off_c, 9, 42, 64
9, 17760, Note_on_c, 9, 38, 100
9, 17760, Note_on_c, 9, 42, 115
9, 17860, Note_off_c, 9, 42, 64
9, 17860, Note_off_c, 9, 38, 64
9, 18000, Note_on_c, 9, 35, 80
9, 18000, Note_on_c, 9, 42, 70
9, 18100, Note_off_c, 9, 42, 64
9, 18100, Note_off_c, 9, 35, 64
9, 18240, Note_on_c, 9, 35, 100
9, 18240, Note_on_c, 9, 42, 90
9, 18340, Note_off_c, 9, 42, 64
9, 18340, Note_off_c, 9, 35, 64
9, 18480, Note_on_c, 9, 42, 70
9, 18580, Note_off_c, 9, 42, 64
9, 18720, Note_on_c, 9, 38, 100
9, 18720, Note_on_c, 9, 42, 100
9, 18820, Note_off_c, 9, 42, 64
9, 18820, Note_off_c, 9, 38, 64
9, 18960, Note_on_c, 9, 42, 70
9, 19060, Note_off_c, 9, 42, 64
9, 19200, Note_on_c, 9, 35, 90
9, 19200, Note_on_c, 9, 42, 90
9, 19300, Note_off_c, 9, 42, 64
9, 19300, Note_off_c, 9, 35, 64
9, 19440, Note_on_c, 9, 42, 70
9, 19540, Note_off_c, 9, 42, 64
9, 19680, Note_on_c, 9, 38, 100
9, 19680, Note_on_c, 9, 42, 115
9, 19780, Note_off_c, 9, 42, 64
9, 19780, Note_off_c, 9, 38, 64
9, 19920, Note_on_c, 9, 35, 80
9, 19920, Note_on_c, 9, 42, 75
9, 20020, Note_off_c, 9, 42, 64
9, 20020, Note_off_c, 9, 35, 64
9, 20160, Note_on_c, 9, 35, 100
9, 20160, Note_on_c, 9, 42, 90
9, 20260, Note_off_c, 9, 42, 64
9, 20260, Note_off_c, 9, 35, 64
9, 20400, Note_on_c, 9, 42, 70
9, 20500, Note_off_c, 9, 42, 64
9, 20640, Note_on_c, 9, 38, 100
9, 20640, Note_on_c, 9, 42, 100
9, 20640, Note_on_c, 9, 54, 115
9, 20740, Note_off_c, 9, 54, 64
9, 20740, Note_off_c, 9, 42, 64
9, 20740, Note_off_c, 9, 38, 64
9, 20880, Note_on_c, 9, 35, 70
9, 20880, Note_on_c, 9, 46, 80
9, 20980, Note_off_c, 9, 46, 64
9, 20980, Note_off_c, 9, 35, 64
9, 21120, Note_on_c, 9, 35, 90
9, 21120, Note_on_c, 9, 42, 90
9, 21220, Note_off_c, 9, 42, 64
9, 21220, Note_off_c, 9, 35, 64
9, 21240, Note_on_c, 9, 42, 60
9, 21340, Note_off_c, 9, 42, 64
9, 21360, Note_on_c, 9, 42, 70
9, 21460, Note_off_c, 9, 42, 64
9, 21600, Note_on_c, 9, 38, 100
9, 21600, Note_on_c, 9, 42, 115
9, 21700, Note_off_c, 9, 42, 64
9, 21700, Note_off_c, 9, 38, 64
9, 21840, Note_on_c, 9, 35, 80
9, 21840, Note_on_c, 9, 42, 70
9, 21940, Note_off_c, 9, 42, 64
9, 21940, Note_off_c, 9, 35, 64
9, 22080, Note_on_c, 9, 35, 100
9, 22080, Note_on_c, 9, 42, 90
9, 22180, Note_off_c, 9, 42, 64
9, 22180, Note_off_c, 9, 35, 64
9, 22320, Note_on_c, 9, 46, 72
9, 22420, Note_off_c, 9, 46, 64
9, 22560, Note_on_c, 9, 38, 100
9, 22560, Note_on_c, 9, 42, 100
9, 22660, Note_off_c, 9, 42, 64
9, 22660, Note_off_c, 9, 38, 64
9, 22800, Note_on_c, 9, 42, 70
9, 22900, Note_off_c, 9, 42, 64
9, 23040, Note_on_c, 9, 35, 90
9, 23040, Note_on_c, 9, 42, 90
9, 23140, Note_off_c, 9, 42, 64
9, 23140, Note_off_c, 9, 35, 64
9, 23280, Note_on_c, 9, 42, 70
9, 23380, Note_off_c, 9, 42, 64
9, 23520, Note_on_c, 9, 38, 100
9, 23520, Note_on_c, 9, 42, 115
9, 23620, Note_off_c, 9, 42, 64
9, 23620, Note_off_c, 9, 38, 64
9, 23760, Note_on_c, 9, 35, 80
9, 23760, Note_on_c, 9, 42, 80
9, 23860, Note_off_c, 9, 42, 64
9, 23860, Note_off_c, 9, 35, 64
9, 24000, Note_on_c, 9, 35, 100
9, 24000, Note_on_c, 9, 42, 90
9, 24100, Note_off_c, 9, 42, 64
9, 24100, Note_off_c, 9, 35, 64
9, 24240, Note_on_c, 9, 42, 70
9, 24340, Note_off_c, 9, 42, 64
9, 24480, Note_on_c, 9, 38, 100
9, 24480, Note_on_c, 9, 42, 100
9, 24480, Note_on_c, 9, 54, 115
9, 24580, Note_off_c, 9, 54, 64
9, 24580, Note_off_c, 9, 42, 64
9, 24580, Note_off_c, 9, 38, 64
9, 24720, Note_on_c, 9, 35, 70
9, 24720, Note_on_c, 9, 42, 70
9, 24820, Note_off_c, 9, 42, 64
9, 24820, Note_off_c, 9, 35, 64
9, 24960, Note_on_c, 9, 38, 100
9, 25060, Note_off_c, 9, 38, 64
9, 25080, Note_on_c, 9, 38, 100
9, 25180, Note_off_c, 9, 38, 64
9, 25200, Note_on_c, 9, 38, 115
9, 25300, Note_off_c, 9, 38, 64
9, 25440, Note_on_c, 9, 38, 115
9, 25540, Note_off_c, 9, 38, 64
9, 25680, Note_on_c, 9, 38, 100
9, 25780, Note_off_c, 9, 38, 64
9, 25920, Note_on_c, 9, 35, 100
9, 26020, Note_off_c, 9, 35, 64
9, 26160, Note_on_c, 9, 35, 100
9, 26260, Note_off_c, 9, 35, 64
9, 26400, Note_on_c, 9, 38, 115
9, 26500, Note_off_c, 9, 38, 64
9, 26880, Note_on_c, 9, 35, 90
9, 26880, Note_on_c, 9, 42, 90
9, 26880, Note_on_c, 9, 49, 90
9, 26980, Note_off_c, 9, 49, 64
9, 26980, Note_off_c, 9, 42, 64
9, 26980, Note_off_c, 9, 35, 64
9, 27120, Note_on_c, 9, 42, 70
9, 27220, Note_off_c, 9, 42, 64
9, 27360, Note_on_c, 9, 38, 100
9, 27360, Note_on_c, 9, 42, 115
9, 27460, Note_off_c, 9, 42, 64
9, 27460, Note_off_c, 9, 38, 64
9, 27600, Note_on_c, 9, 35, 80
9, 27600, Note_on_c, 9, 42, 70
9, 27700, Note_off_c, 9, 42, 64
9, 27700, Note_off_c, 9, 35, 64
9, 27840, Note_on_c, 9, 35, 100
9, 27840, Note_on_c, 9, 42, 90
9, 27940, Note_off_c, 9, 42, 64
9, 27940, Note_off_c, 9, 35, 64
9, 28080, Note_on_c, 9, 42, 70
9, 28180, Note_off_c, 9, 42, 64
9, 28320, Note_on_c, 9, 38, 100
9, 28320, Note_on_c, 9, 42, 100
9, 28420, Note_off_c, 9, 42, 64
9, 28420, Note_off_c, 9, 38, 64
9, 28560, Note_on_c, 9, 42, 70
9, 28660, Note_off_c, 9, 42, 64
9, 28800, Note_on_c, 9, 35, 90
9, 28800, Note_on_c, 9, 42, 90
9, 28900, Note_off_c, 9, 42, 64
9, 28900, Note_off_c, 9, 35, 64
9, 29040, Note_on_c, 9, 42, 70
9, 29140, Note_off_c, 9, 42, 64
9, 29280, Note_on_c, 9, 38, 100
9, 29280, Note_on_c, 9, 42, 115
9, 29380, Note_off_c, 9, 42, 64
9, 29380, Note_off_c, 9, 38, 64
9, 29520, Note_on_c, 9, 35, 80
9, 29520, Note_on_c, 9, 42, 80
9, 29620, Note_off_c, 9, 42, 64
9, 29620, Note_off_c, 9, 35, 64
9, 29760, Note_on_c, 9, 35, 100
9, 29760, Note_on_c, 9, 42, 90
9, 29860, Note_off_c, 9, 42, 64
9, 29860, Note_off_c, 9, 35, 64
9, 30000, Note_on_c, 9, 42, 70
9, 30100, Note_off_c, 9, 42, 64
9, 30240, Note_on_c, 9, 38, 100
9, 30240, Note_on_c, 9, 42, 100
9, 30240, Note_on_c, 9, 54, 115
9, 30340, Note_off_c, 9, 54, 64
9, 30340, Note_off_c, 9, 42, 64
9, 30340, Note_off_c, 9, 38, 64
9, 30480, Note_on_c, 9, 35, 70
9, 30480, Note_on_c, 9, 42, 70
9, 30580, Note_off_c, 9, 42, 64
9, 30580, Note_off_c, 9, 35, 64
9, 30720, Note_on_c, 9, 35, 90
9, 30720, Note_on_c, 9, 42, 100
9, 30820, Note_off_c, 9, 42, 64
9, 30820, Note_off_c, 9, 35, 64
9, 30960, Note_on_c, 9, 42, 70
9, 31060, Note_off_c, 9, 42, 64
9, 31200, Note_on_c, 9, 38, 100
9, 31200, Note_on_c, 9, 42, 115
9, 31300, Note_off_c, 9, 42, 64
9, 31300, Note_off_c, 9, 38, 64
9, 31440, Note_on_c, 9, 35, 80
9, 31440, Note_on_c, 9, 42, 70
9, 31540, Note_off_c, 9, 42, 64
9, 31540, Note_off_c, 9, 35, 64
9, 31680, Note_on_c, 9, 35, 100
9, 31680, Note_on_c, 9, 42, 90
9, 31780, Note_off_c, 9, 42, 64
9, 31780, Note_off_c, 9, 35, 64
9, 31920, Note_on_c, 9, 42, 70
9, 32020, Note_off_c, 9, 42, 64
9, 32160, Note_on_c, 9, 38, 100
9, 32160, Note_on_c, 9, 42, 100
9, 32260, Note_off_c, 9, 42, 64
9, 32260, Note_off_c, 9, 38, 64
9, 32400, Note_on_c, 9, 42, 70
9, 32500, Note_off_c, 9, 42, 64
9, 32640, Note_on_c, 9, 35, 90
9, 32640, Note_on_c, 9, 42, 90
9, 32740, Note_off_c, 9, 42, 64
9, 32740, Note_off_c, 9, 35, 64
9, 32880, Note_on_c, 9, 42, 70
9, 32980, Note_off_c, 9, 42, 64
9, 33120, Note_on_c, 9, 38, 100
9, 33120, Note_on_c, 9, 42, 115
9, 33220, Note_off_c, 9, 42, 64
9, 33220, Note_off_c, 9, 38, 64
9, 33360, Note_on_c, 9, 35, 80
9, 33360, Note_on_c, 9, 42, 75
9, 33460, Note_off_c, 9, 42, 64
9, 33460, Note_off_c, 9, 35, 64
9, 33600, Note_on_c, 9, 35, 100
9, 33600, Note_on_c, 9, 42, 90
9, 33700, Note_off_c, 9, 42, 64
9, 33700, Note_off_c, 9, 35, 64
9, 33840, Note_on_c, 9, 42, 70
9, 33940, Note_off_c, 9, 42, 64
9, 34080, Note_on_c, 9, 38, 100
9, 34080, Note_on_c, 9, 42, 100
9, 34080, Note_on_c, 9, 54, 115
9, 34180, Note_off_c, 9, 54, 64
9, 34180, Note_off_c, 9, 42, 64
9, 34180, Note_off_c, 9, 38, 64
9, 34320, Note_on_c, 9, 35, 70
9, 34320, Note_on_c, 9, 46, 80
9, 34420, Note_off_c, 9, 46, 64
9, 34420, Note_off_c, 9, 35, 64
9, 34560, Note_on_c, 9, 35, 90
9, 34560, Note_on_c, 9, 42, 90
9, 34660, Note_off_c, 9, 42, 64
9, 34660, Note_off_c, 9, 35, 64
9, 34680, Note_on_c, 9, 42, 60
9, 34780, Note_off_c, 9, 42, 64
9, 34800, Note_on_c, 9, 42, 70
9, 34900, Note_off_c, 9, 42, 64
9, 35040, Note_on_c, 9, 38, 100
9, 35040, Note_on_c, 9, 42, 115
9, 35140, Note_off_c, 9, 42, 64
9, 35140, Note_off_c, 9, 38, 64
9, 35280, Note_on_c, 9, 35, 80
9, 35280, Note_on_c, 9, 42, 70
9, 35380, Note_off_c, 9, 42, 64
9, 35380, Note_off_c, 9, 35, 64
9, 35520, Note_on_c, 9, 35, 100
9, 35520, Note_on_c, 9, 42, 90
9, 35620, Note_off_c, 9, 42, 64
9, 35620, Note_off_c, 9, 35, 64
9, 35760, Note_on_c, 9, 42, 70
9, 35860, Note_off_c, 9, 42, 64
9, 36000, Note_on_c, 9, 38, 100
9, 36000, Note_on_c, 9, 42, 100
9, 36100, Note_off_c, 9, 42, 64
9, 36100, Note_off_c, 9, 38, 64
9, 36240, Note_on_c, 9, 42, 70
9, 36340, Note_off_c, 9, 42, 64
9, 36480, Note_on_c, 9, 35, 90
9, 36480, Note_on_c, 9, 42, 90
9, 36580, Note_off_c, 9, 42, 64
9, 36580, Note_off_c, 9, 35, 64
9, 36720, Note_on_c, 9, 42, 70
9, 36820, Note_off_c, 9, 42, 64
9, 36960, Note_on_c, 9, 38, 100
9, 36960, Note_on_c, 9, 42, 115
9, 37060, Note_off_c, 9, 42, 64
9, 37060, Note_off_c, 9, 38, 64
9, 37200, Note_on_c, 9, 35, 80
9, 37200, Note_on_c, 9, 42, 70
9, 37300, Note_off_c, 9, 42, 64
9, 37300, Note_off_c, 9, 35, 64
9, 37440, Note_on_c, 9, 35, 100
9, 37440, Note_on_c, 9, 42, 90
9, 37540, Note_off_c, 9, 42, 64
9, 37540, Note_off_c, 9, 35, 64
9, 37680, Note_on_c, 9, 38, 90
9, 37780, Note_off_c, 9, 38, 64
9, 37800, Note_on_c, 9, 38, 70
9, 37900, Note_off_c, 9, 38, 64
9, 37920, Note_on_c, 9, 38, 100
9, 38020, Note_off_c, 9, 38, 64
9, 38160, Note_on_c, 9, 38, 100
9, 38160, Note_on_c, 9, 46, 90
9, 38260, Note_off_c, 9, 46, 64
9, 38260, Note_off_c, 9, 38, 64
9, 38400, Note_on_c, 9, 35, 90
9, 38400, Note_on_c, 9, 42, 90
9, 38400, Note_on_c, 9, 49, 90
9, 38500, Note_off_c, 9, 49, 64
9, 38500, Note_off_c, 9, 42, 64
9, 38500, Note_off_c, 9, 35, 64
9, 38640, Note_on_c, 9, 42, 70
9, 38740, Note_off_c, 9, 42, 64
9, 38880, Note_on_c, 9, 38, 100
9, 38880, Note_on_c, 9, 42, 115
9, 38980, Note_off_c, 9, 42, 64
9, 38980, Note_off_c, 9, 38, 64
9, 39120, Note_on_c, 9, 35, 80
9, 39120, Note_on_c, 9, 42, 70
9, 39220, Note_off_c, 9, 42, 64
9, 39220, Note_off_c, 9, 35, 64
9, 39360, Note_on_c, 9, 35, 100
9, 39360, Note_on_c, 9, 42, 90
9, 39460, Note_off_c, 9, 42, 64
9, 39460, Note_off_c, 9, 35, 64
9, 39600, Note_on_c, 9, 42, 70
9, 39700, Note_off_c, 9, 42, 64
9, 39840, Note_on_c, 9, 38, 100
9, 39840, Note_on_c, 9, 42, 100
9, 39940, Note_off_c, 9, 42, 64
9, 39940, Note_off_c, 9, 38, 64
9, 40080, Note_on_c, 9, 42, 70
9, 40180, Note_off_c, 9, 42, 64
9, 40320, Note_on_c, 9, 35, 90
9, 40320, Note_on_c, 9, 42, 90
9, 40420, Note_off_c, 9, 42, 64
9, 40420, Note_off_c, 9, 35, 64
9, 40560, Note_on_c, 9, 42, 70
9, 40660, Note_off_c, 9, 42, 64
9, 40800, Note_on_c, 9, 38, 100
9, 40800, Note_on_c, 9, 42, 115
9, 40900, Note_off_c, 9, 42, 64
9, 40900, Note_off_c, 9, 38, 64
9, 41040, Note_on_c, 9, 35, 80
9, 41040, Note_on_c, 9, 42, 80
9, 41140, Note_off_c, 9, 42, 64
9, 41140, Note_off_c, 9, 35, 64
9, 41280, Note_on_c, 9, 35, 100
9, 41280, Note_on_c, 9, 42, 90
9, 41380, Note_off_c, 9, 42, 64
9, 41380, Note_off_c, 9, 35, 64
9, 41520, Note_on_c, 9, 42, 70
9, 41620, Note_off_c, 9, 42, 64
9, 41760, Note_on_c, 9, 38, 100
9, 41760, Note_on_c, 9, 42, 100
9, 41760, Note_on_c, 9, 54, 115
9, 41860, Note_off_c, 9, 54, 64
9, 41860, Note_off_c, 9, 42, 64
9, 41860, Note_off_c, 9, 38, 64
9, 42000, Note_on_c, 9, 35, 70
9, 42000, Note_on_c, 9, 42, 70
9, 42100, Note_off_c, 9, 42, 64
9, 42100, Note_off_c, 9, 35, 64
9, 42240, Note_on_c, 9, 35, 90
9, 42240, Note_on_c, 9, 42, 90
9, 42340, Note_off_c, 9, 42, 64
9, 42340, Note_off_c, 9, 35, 64
9, 42480, Note_on_c, 9, 42, 70
9, 42580, Note_off_c, 9, 42, 64
9, 42720, Note_on_c, 9, 38, 100
9, 42720, Note_on_c, 9, 42, 115
9, 42820, Note_off_c, 9, 42, 64
9, 42820, Note_off_c, 9, 38, 64
9, 42960, Note_on_c, 9, 35, 80
9, 42960, Note_on_c, 9, 42, 70
9, 43060, Note_off_c, 9, 42, 64
9, 43060, Note_off_c, 9, 35, 64
9, 43200, Note_on_c, 9, 35, 100
9, 43200, Note_on_c, 9, 42, 90
9, 43300, Note_off_c, 9, 42, 64
9, 43300, Note_off_c, 9, 35, 64
9, 43440, Note_on_c, 9, 42, 70
9, 43540, Note_off_c, 9, 42, 64
9, 43680, Note_on_c, 9, 38, 100
9, 43680, Note_on_c, 9, 42, 100
9, 43780, Note_off_c, 9, 42, 64
9, 43780, Note_off_c, 9, 38, 64
9, 43920, Note_on_c, 9, 42, 70
9, 44020, Note_off_c, 9, 42, 64
9, 44160, Note_on_c, 9, 35, 90
9, 44160, Note_on_c, 9, 42, 90
9, 44260, Note_off_c, 9, 42, 64
9, 44260, Note_off_c, 9, 35, 64
9, 44400, Note_on_c, 9, 42, 70
9, 44500, Note_off_c, 9, 42, 64
9, 44640, Note_on_c, 9, 38, 100
9, 44640, Note_on_c, 9, 42, 115
9, 44740, Note_off_c, 9, 42, 64
9, 44740, Note_off_c, 9, 38, 64
9, 44880, Note_on_c, 9, 35, 80
9, 44880, Note_on_c, 9, 42, 80
9, 44980, Note_off_c, 9, 42, 64
9, 44980, Note_off_c, 9, 35, 64
9, 45120, Note_on_c, 9, 35, 100
9, 45120, Note_on_c, 9, 42, 90
9, 45220, Note_off_c, 9, 42, 64
9, 45220, Note_off_c, 9, 35, 64
9, 45360, Note_on_c, 9, 42, 70
9, 45460, Note_off_c, 9, 42, 64
9, 45600, Note_on_c, 9, 38, 100
9, 45600, Note_on_c, 9, 42, 100
9, 45600, Note_on_c, 9, 54, 115
9, 45700, Note_off_c, 9, 54, 64
9, 45700, Note_off_c, 9, 42, 64
9, 45700, Note_off_c, 9, 38, 64
9, 45840, Note_on_c, 9, 35, 70
9, 45840, Note_on_c, 9, 42, 70
9, 45940, Note_off_c, 9, 42, 64
9, 45940, Note_off_c, 9, 35, 64
9, 46080, Note_on_c, 9, 35, 90
9, 46080, Note_on_c, 9, 42, 90
9, 46180, Note_off_c, 9, 42, 64
9, 46180, Note_off_c, 9, 35, 64
9, 46200, Note_on_c, 9, 42, 60
9, 46300, Note_off_c, 9, 42, 64
9, 46320, Note_on_c, 9, 42, 70
9, 46420, Note_off_c, 9, 42, 64
9, 46560, Note_on_c, 9, 38, 100
9, 46560, Note_on_c, 9, 42, 115
9, 46660, Note_off_c, 9, 42, 64
9, 46660, Note_off_c, 9, 38, 64
9, 46800, Note_on_c, 9, 35, 80
9, 46800, Note_on_c, 9, 42, 70
9, 46900, Note_off_c, 9, 42, 64
9, 46900, Note_off_c, 9, 35, 64
9, 47040, Note_on_c, 9, 35, 100
9, 47040, Note_on_c, 9, 42, 90
9, 47140, Note_off_c, 9, 42, 64
9, 47140, Note_off_c, 9, 35, 64
9, 47280, Note_on_c, 9, 42, 70
9, 47380, Note_off_c, 9, 42, 64
9, 47520, Note_on_c, 9, 38, 100
9, 47520, Note_on_c, 9, 42, 100
9, 47620, Note_off_c, 9, 42, 64
9, 47620, Note_off_c, 9, 38, 64
9, 47760, Note_on_c, 9, 42, 70
9, 47860, Note_off_c, 9, 42, 64
9, 48000, Note_on_c, 9, 35, 90
9, 48000, Note_on_c, 9, 42, 90
9, 48100, Note_off_c, 9, 42, 64
9, 48100, Note_off_c, 9, 35, 64
9, 48240, Note_on_c, 9, 42, 70
9, 48340, Note_off_c, 9, 42, 64
9, 48480, Note_on_c, 9, 38, 100
9, 48480, Note_on_c, 9, 42, 115
9, 48580, Note_off_c, 9, 42, 64
9, 48580, Note_off_c, 9, 38, 64
9, 48720, Note_on_c, 9, 35, 80
9, 48720, Note_on_c, 9, 42, 75
9, 48820, Note_off_c, 9, 42, 64
9, 48820, Note_off_c, 9, 35, 64
9, 48960, Note_on_c, 9, 35, 100
9, 48960, Note_on_c, 9, 42, 90
9, 49060, Note_off_c, 9, 42, 64
9, 49060, Note_off_c, 9, 35, 64
9, 49200, Note_on_c, 9, 42, 70
9, 49300, Note_off_c, 9, 42, 64
9, 49440, Note_on_c, 9, 38, 100
9, 49440, Note_on_c, 9, 42, 100
9, 49440, Note_on_c, 9, 54, 115
9, 49540, Note_off_c, 9, 54, 64
9, 49540, Note_off_c, 9, 42, 64
9, 49540, Note_off_c, 9, 38, 64
9, 49680, Note_on_c, 9, 35, 70
9, 49680, Note_on_c, 9, 46, 80
9, 49780, Note_off_c, 9, 46, 64
9, 49780, Note_off_c, 9, 35, 64
9, 49920, Note_on_c, 9, 35, 90
9, 49920, Note_on_c, 9, 42, 100
9, 50020, Note_off_c, 9, 42, 64
9, 50020, Note_off_c, 9, 35, 64
9, 50160, Note_on_c, 9, 42, 70
9, 50260, Note_off_c, 9, 42, 64
9, 50400, Note_on_c, 9, 38, 100
9, 50400, Note_on_c, 9, 42, 115
9, 50500, Note_off_c, 9, 42, 64
9, 50500, Note_off_c, 9, 38, 64
9, 50640, Note_on_c, 9, 35, 80
9, 50640, Note_on_c, 9, 42, 70
9, 50740, Note_off_c, 9, 42, 64
9, 50740, Note_off_c, 9, 35, 64
9, 50880, Note_on_c, 9, 35, 100
9, 50880, Note_on_c, 9, 42, 90
9, 50980, Note_off_c, 9, 42, 64
9, 50980, Note_off_c, 9, 35, 64
9, 51120, Note_on_c, 9, 42, 70
9, 51220, Note_off_c, 9, 42, 64
9, 51360, Note_on_c, 9, 38, 100
9, 51360, Note_on_c, 9, 42, 100
9, 51460, Note_off_c, 9, 42, 64
9, 51460, Note_off_c, 9, 38, 64
9, 51600, Note_on_c, 9, 42, 70
9, 51700, Note_off_c, 9, 42, 64
9, 51840, Note_on_c, 9, 35, 90
9, 51840, Note_on_c, 9, 42, 90
9, 51940, Note_off_c, 9, 42, 64
9, 51940, Note_off_c, 9, 35, 64
9, 52080, Note_on_c, 9, 42, 70
9, 52180, Note_off_c, 9, 42, 64
9, 52320, Note_on_c, 9, 38, 100
9, 52320, Note_on_c, 9, 42, 115
9, 52420, Note_off_c, 9, 42, 64
9, 52420, Note_off_c, 9, 38, 64
9, 52560, Note_on_c, 9, 35, 80
9, 52560, Note_on_c, 9, 42, 80
9, 52660, Note_off_c, 9, 42, 64
9, 52660, Note_off_c, 9, 35, 64
9, 52800, Note_on_c, 9, 35, 100
9, 52800, Note_on_c, 9, 42, 90
9, 52900, Note_off_c, 9, 42, 64
9, 52900, Note_off_c, 9, 35, 64
9, 53040, Note_on_c, 9, 42, 70
9, 53140, Note_off_c, 9, 42, 64
9, 53280, Note_on_c, 9, 38, 100
9, 53280, Note_on_c, 9, 42, 100
9, 53280, Note_on_c, 9, 54, 115
9, 53380, Note_off_c, 9, 54, 64
9, 53380, Note_off_c, 9, 42, 64
9, 53380, Note_off_c, 9, 38, 64
9, 53520, Note_on_c, 9, 35, 70
9, 53520, Note_on_c, 9, 42, 70
9, 53620, Note_off_c, 9, 42, 64
9, 53620, Note_off_c, 9, 35, 64
9, 53760, Note_on_c, 9, 35, 100
9, 53760, Note_on_c, 9, 42, 90
9, 53860, Note_off_c, 9, 42, 64
9, 53860, Note_off_c, 9, 35, 64
9, 54000, Note_on_c, 9, 42, 70
9, 54100, Note_off_c, 9, 42, 64
9, 54240, Note_on_c, 9, 38, 100
9, 54240, Note_on_c, 9, 46, 100
9, 54340, Note_off_c, 9, 46, 64
9, 54340, Note_off_c, 9, 38, 64
9, 54480, Note_on_c, 9, 35, 100
9, 54580, Note_off_c, 9, 35, 64
9, 54720, Note_on_c, 9, 48, 115
9, 54820, Note_off_c, 9, 48, 64
9, 55080, Note_on_c, 9, 45, 90
9, 55180, Note_off_c, 9, 45, 64
9, 55200, Note_on_c, 9, 45, 115
9, 55300, Note_off_c, 9, 45, 64
9, 55320, Note_on_c, 9, 41, 100
9, 55420, Note_off_c, 9, 41, 64
9, 55440, Note_on_c, 9, 41, 115
9, 55540, Note_off_c, 9, 41, 64
9, 55680, Note_on_c, 9, 35, 90
9, 55680, Note_on_c, 9, 42, 90
9, 55680, Note_on_c, 9, 49, 90
9, 55780, Note_off_c, 9, 49, 64
9, 55780, Note_off_c, 9, 42, 64
9, 55780, Note_off_c, 9, 35, 64
9, 55920, Note_on_c, 9, 42, 70
9, 56020, Note_off_c, 9, 42, 64
9, 56160, Note_on_c, 9, 38, 100
9, 56160, Note_on_c, 9, 42, 115
9, 56260, Note_off_c, 9, 42, 64
9, 56260, Note_off_c, 9, 38, 64
9, 56400, Note_on_c, 9, 35, 80
9, 56400, Note_on_c, 9, 42, 70
9, 56500, Note_off_c, 9, 42, 64
9, 56500, Note_off_c, 9, 35, 64
9, 56640, Note_on_c, 9, 35, 100
9, 56640, Note_on_c, 9, 42, 90
9, 56740, Note_off_c, 9, 42, 64
9, 56740, Note_off_c, 9, 35, 64
9, 56880, Note_on_c, 9, 42, 70
9, 56980, Note_off_c, 9, 42, 64
9, 57120, Note_on_c, 9, 38, 100
9, 57120, Note_on_c, 9, 42, 100
9, 57220, Note_off_c, 9, 42, 64
9, 57220, Note_off_c, 9, 38, 64
9, 57360, Note_on_c, 9, 42, 70
9, 57460, Note_off_c, 9, 42, 64
9, 57600, Note_on_c, 9, 35, 90
9, 57600, Note_on_c, 9, 42, 90
9, 57700, Note_off_c, 9, 42, 64
9, 57700, Note_off_c, 9, 35, 64
9, 57840, Note_on_c, 9, 42, 70
9, 57940, Note_off_c, 9, 42, 64
9, 58080, Note_on_c, 9, 38, 100
9, 58080, Note_on_c, 9, 42, 115
9, 58180, Note_off_c, 9, 42, 64
9, 58180, Note_off_c, 9, 38, 64
9, 58320, Note_on_c, 9, 35, 80
9, 58320, Note_on_c, 9, 42, 80
9, 58420, Note_off_c, 9, 42, 64
9, 58420, Note_off_c, 9, 35, 64
9, 58560, Note_on_c, 9, 35, 100
9, 58560, Note_on_c, 9, 42, 90
9, 58660, Note_off_c, 9, 42, 64
9, 58660, Note_off_c, 9, 35, 64
9, 58800, Note_on_c, 9, 42, 70
9, 58900, Note_off_c, 9, 42, 64
9, 59040, Note_on_c, 9, 38, 100
9, 59040, Note_on_c, 9, 42, 100
9, 59040, Note_on_c, 9, 54, 115
9, 59140, Note_off_c, 9, 54, 64
9, 59140, Note_off_c, 9, 42, 64
9, 59140, Note_off_c, 9, 38, 64
9, 59280, Note_on_c, 9, 35, 70
9, 59280, Note_on_c, 9, 42, 70
9, 59380, Note_off_c, 9, 42, 64
9, 59380, Note_off_c, 9, 35, 64
9, 59520, Note_on_c, 9, 35, 90
9, 59520, Note_on_c, 9, 42, 90
9, 59620, Note_off_c, 9, 42, 64
9, 59620, Note_off_c, 9, 35, 64
9, 59640, Note_on_c, 9, 42, 60
9, 59740, Note_off_c, 9, 42, 64
9, 59760, Note_on_c, 9, 42, 70
9, 59860, Note_off_c, 9, 42, 64
9, 60000, Note_on_c, 9, 38, 100
9, 60000, Note_on_c, 9, 42, 115
9, 60100, Note_off_c, 9, 42, 64
9, 60100, Note_off_c, 9, 38, 64
9, 60240, Note_on_c, 9, 35, 80
9, 60240, Note_on_c, 9, 42, 70
9, 60340, Note_off_c, 9, 42, 64
9, 60340, Note_off_c, 9, 35, 64
9, 60480, Note_on_c, 9, 35, 100
9, 60480, Note_on_c, 9, 42, 90
9, 60580, Note_off_c, 9, 42, 64
9, 60580, Note_off_c, 9, 35, 64
9, 60720, Note_on_c, 9, 46, 72
9, 60820, Note_off_c, 9, 46, 64
9, 60960, Note_on_c, 9, 38, 100
9, 60960, Note_on_c, 9, 42, 100
9, 61060, Note_off_c, 9, 42, 64
9, 61060, Note_off_c, 9, 38, 64
9, 61200, Note_on_c, 9, 42, 70
9, 61300, Note_off_c, 9, 42, 64
9, 61440, Note_on_c, 9, 35, 90
9, 61440, Note_on_c, 9, 42, 90
9, 61540, Note_off_c, 9, 42, 64
9, 61540, Note_off_c, 9, 35, 64
9, 61680, Note_on_c, 9, 42, 70
9, 61780, Note_off_c, 9, 42, 64
9, 61920, Note_on_c, 9, 38, 100
9, 61920, Note_on_c, 9, 42, 115
9, 62020, Note_off_c, 9, 42, 64
9, 62020, Note_off_c, 9, 38, 64
9, 62160, Note_on_c, 9, 35, 80
9, 62160, Note_on_c, 9, 42, 75
9, 62260, Note_off_c, 9, 42, 64
9, 62260, Note_off_c, 9, 35, 64
9, 62400, Note_on_c, 9, 35, 100
9, 62400, Note_on_c, 9, 42, 90
9, 62500, Note_off_c, 9, 42, 64
9, 62500, Note_off_c, 9, 35, 64
9, 62640, Note_on_c, 9, 42, 70
9, 62740, Note_off_c, 9, 42, 64
9, 62880, Note_on_c, 9, 38, 100
9, 62880, Note_on_c, 9, 42, 100
9, 62880, Note_on_c, 9, 54, 115
9, 62980, Note_off_c, 9, 54, 64
9, 62980, Note_off_c, 9, 42, 64
9, 62980, Note_off_c, 9, 38, 64
9, 63120, Note_on_c, 9, 35, 70
9, 63120, Note_on_c, 9, 46, 80
9, 63220, Note_off_c, 9, 46, 64
9, 63220, Note_off_c, 9, 35, 64
9, 63360, Note_on_c, 9, 35, 90
9, 63360, Note_on_c, 9, 42, 100
9, 63460, Note_off_c, 9, 42, 64
9, 63460, Note_off_c, 9, 35, 64
9, 63600, Note_on_c, 9, 42, 70
9, 63700, Note_off_c, 9, 42, 64
9, 63840, Note_on_c, 9, 38, 100
9, 63840, Note_on_c, 9, 42, 115
9, 63940, Note_off_c, 9, 42, 64
9, 63940, Note_off_c, 9, 38, 64
9, 64080, Note_on_c, 9, 35, 80
9, 64080, Note_on_c, 9, 42, 70
9, 64180, Note_off_c, 9, 42, 64
9, 64180, Note_off_c, 9, 35, 64
9, 64320, Note_on_c, 9, 35, 100
9, 64320, Note_on_c, 9, 42, 90
9, 64420, Note_off_c, 9, 42, 64
9, 64420, Note_off_c, 9, 35, 64
9, 64560, Note_on_c, 9, 42, 70
9, 64660, Note_off_c, 9, 42, 64
9, 64800, Note_on_c, 9, 38, 100
9, 64800, Note_on_c, 9, 42, 100
9, 64900, Note_off_c, 9, 42, 64
9, 64900, Note_off_c, 9, 38, 64
9, 65040, Note_on_c, 9, 42, 70
9, 65140, Note_off_c, 9, 42, 64
9, 65280, Note_on_c, 9, 38, 115
9, 65280, Note_on_c, 9, 49, 100
9, 65380, Note_off_c, 9, 49, 64
9, 65380, Note_off_c, 9, 38, 64
9, 65520, Note_on_c, 9, 38, 90
9, 65520, Note_on_c, 9, 41, 90
9, 65620, Note_off_c, 9, 41, 64
9, 65620, Note_off_c, 9, 38, 64
9, 65760, Note_on_c, 9, 38, 60
9, 65760, Note_on_c, 9, 41, 60
9, 65860, Note_off_c, 9, 41, 64
9, 65860, Note_off_c, 9, 38, 64
9, 66000, Note_on_c, 9, 38, 80
9, 66000, Note_on_c, 9, 41, 70
9, 66100, Note_off_c, 9, 41, 64
9, 66100, Note_off_c, 9, 38, 64
9, 66240, Note_on_c, 9, 38, 100
9, 66240, Note_on_c, 9, 41, 100
9, 66340, Note_off_c, 9, 41, 64
9, 66340, Note_off_c, 9, 38, 64
9, 66480, Note_on_c, 9, 35, 100
9, 66580, Note_off_c, 9, 35, 64
9, 66720, Note_on_c, 9, 38, 115
9, 66720, Note_on_c, 9, 41, 115
9, 66820, Note_off_c, 9, 41, 64
9, 66820, Note_off_c, 9, 38, 64
9, 66960, Note_on_c, 9, 35, 100
9, 67060, Note_off_c, 9, 35, 64
9, 67200, Note_on_c, 9, 35, 90
9, 67200, Note_on_c, 9, 42, 90
9, 67200, Note_on_c, 9, 49, 90
9, 67300, Note_off_c, 9, 49, 64
9, 67300, Note_off_c, 9, 42, 64
9, 67300, Note_off_c, 9, 35, 64
9, 67440, Note_on_c, 9, 42, 70
9, 67540, Note_off_c, 9, 42, 64
9, 67680, Note_on_c, 9, 38, 100
9, 67680, Note_on_c, 9, 42, 100
9, 67780, Note_off_c, 9, 42, 64
9, 67780, Note_off_c, 9, 38, 64
9, 67920, Note_on_c, 9, 35, 80
9, 67920, Note_on_c, 9, 42, 70
9, 68020, Note_off_c, 9, 42, 64
9, 68020, Note_off_c, 9, 35, 64
9, 68160, Note_on_c, 9, 35, 100
9, 68160, Note_on_c, 9, 42, 90
9, 68260, Note_off_c, 9, 42, 64
9, 68260, Note_off_c, 9, 35, 64
9, 68400, Note_on_c, 9, 42, 70
9, 68500, Note_off_c, 9, 42, 64
9, 68640, Note_on_c, 9, 38, 100
9, 68640, Note_on_c, 9, 42, 100
9, 68740, Note_off_c, 9, 42, 64
9, 68740, Note_off_c, 9, 38, 64
9, 68880, Note_on_c, 9, 35, 70
9, 68880, Note_on_c, 9, 42, 70
9, 68980, Note_off_c, 9, 42, 64
9, 68980, Note_off_c, 9, 35, 64
9, 69120, Note_on_c, 9, 35, 90
9, 69120, Note_on_c, 9, 42, 90
9, 69220, Note_off_c, 9, 42, 64
9, 69220, Note_off_c, 9, 35, 64
9, 69360, Note_on_c, 9, 42, 70
9, 69460, Note_off_c, 9, 42, 64
9, 69600, Note_on_c, 9, 38, 100
9, 69600, Note_on_c, 9, 42, 100
9, 69700, Note_off_c, 9, 42, 64
9, 69700, Note_off_c, 9, 38, 64
9, 69840, Note_on_c, 9, 35, 80
9, 69840, Note_on_c, 9, 42, 100
9, 69940, Note_off_c, 9, 42, 64
9, 69940, Note_off_c, 9, 35, 64
9, 70080, Note_on_c, 9, 35, 100
9, 70080, Note_on_c, 9, 42, 90
9, 70180, Note_off_c, 9, 42, 64
9, 70180, Note_off_c, 9, 35, 64
9, 70320, Note_on_c, 9, 35, 90
9, 70320, Note_on_c, 9, 42, 70
9, 70420, Note_off_c, 9, 42, 64
9, 70420, Note_off_c, 9, 35, 64
9, 70560, Note_on_c, 9, 38, 100
9, 70560, Note_on_c, 9, 42, 100
9, 70660, Note_off_c, 9, 42, 64
9, 70660, Note_off_c, 9, 38, 64
9, 70800, Note_on_c, 9, 35, 70
9, 70800, Note_on_c, 9, 42, 70
9, 70900, Note_off_c, 9, 42, 64
9, 70900, Note_off_c, 9, 35, 64
9, 71040, Note_on_c, 9, 35, 90
9, 71040, Note_on_c, 9, 42, 90
9, 71140, Note_off_c, 9, 42, 64
9, 71140, Note_off_c, 9, 35, 64
9, 71280, Note_on_c, 9, 42, 70
9, 71380, Note_off_c, 9, 42, 64
9, 71520, Note_on_c, 9, 38, 100
9, 71520, Note_on_c, 9, 42, 100
9, 71620, Note_off_c, 9, 42, 64
9, 71620, Note_off_c, 9, 38, 64
9, 71760, Note_on_c, 9, 35, 80
9, 71760, Note_on_c, 9, 42, 70
9, 71860, Note_off_c, 9, 42, 64
9, 71860, Note_off_c, 9, 35, 64
9, 72000, Note_on_c, 9, 35, 100
9, 72000, Note_on_c, 9, 42, 90
9, 72100, Note_off_c, 9, 42, 64
9, 72100, Note_off_c, 9, 35, 64
9, 72240, Note_on_c, 9, 42, 70
9, 72340, Note_off_c, 9, 42, 64
9, 72480, Note_on_c, 9, 38, 100
9, 72480, Note_on_c, 9, 42, 100
9, 72580, Note_off_c, 9, 42, 64
9, 72580, Note_off_c, 9, 38, 64
9, 72720, Note_on_c, 9, 35, 70
9, 72720, Note_on_c, 9, 42, 70
9, 72820, Note_off_c, 9, 42, 64
9, 72820, Note_off_c, 9, 35, 64
9, 72960, Note_on_c, 9, 35, 90
9, 72960, Note_on_c, 9, 42, 90
9, 73060, Note_off_c, 9, 42, 64
9, 73060, Note_off_c, 9, 35, 64
9, 73200, Note_on_c, 9, 42, 70
9, 73300, Note_off_c, 9, 42, 64
9, 73440, Note_on_c, 9, 38, 100
9, 73440, Note_on_c, 9, 42, 100
9, 73540, Note_off_c, 9, 42, 64
9, 73540, Note_off_c, 9, 38, 64
9, 73680, Note_on_c, 9, 35, 80
9, 73680, Note_on_c, 9, 42, 100
9, 73780, Note_off_c, 9, 42, 64
9, 73780, Note_off_c, 9, 35, 64
9, 73920, Note_on_c, 9, 35, 100
9, 73920, Note_on_c, 9, 42, 90
9, 74020, Note_off_c, 9, 42, 64
9, 74020, Note_off_c, 9, 35, 64
9, 74160, Note_on_c, 9, 35, 90
9, 74160, Note_on_c, 9, 42, 70
9, 74260, Note_off_c, 9, 42, 64
9, 74260, Note_off_c, 9, 35, 64
9, 74400, Note_on_c, 9, 38, 100
9, 74400, Note_on_c, 9, 42, 100
9, 74500, Note_off_c, 9, 42, 64
9, 74500, Note_off_c, 9, 38, 64
9, 74640, Note_on_c, 9, 35, 70
9, 74640, Note_on_c, 9, 42, 70
9, 74740, Note_off_c, 9, 42, 64
9, 74740, Note_off_c, 9, 35, 64
9, 74880, Note_on_c, 9, 35, 90
9, 74880, Note_on_c, 9, 42, 115
9, 74980, Note_off_c, 9, 42, 64
9, 74980, Note_off_c, 9, 35, 64
9, 75120, Note_on_c, 9, 42, 70
9, 75220, Note_off_c, 9, 42, 64
9, 75360, Note_on_c, 9, 38, 100
9, 75360, Note_on_c, 9, 42, 100
9, 75460, Note_off_c, 9, 42, 64
9, 75460, Note_off_c, 9, 38, 64
9, 75600, Note_on_c, 9, 35, 80
9, 75600, Note_on_c, 9, 42, 70
9, 75700, Note_off_c, 9, 42, 64
9, 75700, Note_off_c, 9, 35, 64
9, 75840, Note_on_c, 9, 35, 100
9, 75840, Note_on_c, 9, 42, 90
9, 75940, Note_off_c, 9, 42, 64
9, 75940, Note_off_c, 9, 35, 64
9, 76080, Note_on_c, 9, 42, 70
9, 76180, Note_off_c, 9, 42, 64
9, 76320, Note_on_c, 9, 38, 100
9, 76320, Note_on_c, 9, 42, 100
9, 76420, Note_off_c, 9, 42, 64
9, 76420, Note_off_c, 9, 38, 64
9, 76560, Note_on_c, 9, 35, 70
9, 76560, Note_on_c, 9, 42, 70
9, 76660, Note_off_c, 9, 42, 64
9, 76660, Note_off_c, 9, 35, 64
9, 76800, Note_on_c, 9, 35, 90
9, 76800, Note_on_c, 9, 42, 90
9, 76900, Note_off_c, 9, 42, 64
9, 76900, Note_off_c, 9, 35, 64
9, 77040, Note_on_c, 9, 42, 70
9, 77140, Note_off_c, 9, 42, 64
9, 77280, Note_on_c, 9, 38, 100
9, 77280, Note_on_c, 9, 42, 100
9, 77380, Note_off_c, 9, 42, 64
9, 77380, Note_off_c, 9, 38, 64
9, 77520, Note_on_c, 9, 35, 80
9, 77520, Note_on_c, 9, 42, 100
9, 77620, Note_off_c, 9, 42, 64
9, 77620, Note_off_c, 9, 35, 64
9, 77760, Note_on_c, 9, 35, 100
9, 77760, Note_on_c, 9, 42, 90
9, 77860, Note_off_c, 9, 42, 64
9, 77860, Note_off_c, 9, 35, 64
9, 78000, Note_on_c, 9, 35, 90
9, 78000, Note_on_c, 9, 42, 70
9, 78100, Note_off_c, 9, 42, 64
9, 78100, Note_off_c, 9, 35, 64
9, 78240, Note_on_c, 9, 38, 100
9, 78240, Note_on_c, 9, 42, 100
9, 78340, Note_off_c, 9, 42, 64
9, 78340, Note_off_c, 9, 38, 64
9, 78480, Note_on_c, 9, 35, 70
9, 78480, Note_on_c, 9, 42, 70
9, 78580, Note_off_c, 9, 42, 64
9, 78580, Note_off_c, 9, 35, 64
9, 78720, Note_on_c, 9, 35, 90
9, 78720, Note_on_c, 9, 42, 90
9, 78820, Note_off_c, 9, 42, 64
9, 78820, Note_off_c, 9, 35, 64
9, 78960, Note_on_c, 9, 42, 70
9, 79060, Note_off_c, 9, 42, 64
9, 79200, Note_on_c, 9, 38, 100
9, 79200, Note_on_c, 9, 42, 100
9, 79300, Note_off_c, 9, 42, 64
9, 79300, Note_off_c, 9, 38, 64
9, 79440, Note_on_c, 9, 35, 80
9, 79440, Note_on_c, 9, 42, 70
9, 79540, Note_off_c, 9, 42, 64
9, 79540, Note_off_c, 9, 35, 64
9, 79680, Note_on_c, 9, 35, 100
9, 79680, Note_on_c, 9, 42, 90
9, 79780, Note_off_c, 9, 42, 64
9, 79780, Note_off_c, 9, 35, 64
9, 79920, Note_on_c, 9, 42, 70
9, 80020, Note_off_c, 9, 42, 64
9, 80160, Note_on_c, 9, 38, 100
9, 80160, Note_on_c, 9, 42, 100
9, 80260, Note_off_c, 9, 42, 64
9, 80260, Note_off_c, 9, 38, 64
9, 80400, Note_on_c, 9, 35, 70
9, 80400, Note_on_c, 9, 42, 70
9, 80500, Note_off_c, 9, 42, 64
9, 80500, Note_off_c, 9, 35, 64
9, 80640, Note_on_c, 9, 35, 90
9, 80640, Note_on_c, 9, 42, 90
9, 80740, Note_off_c, 9, 42, 64
9, 80740, Note_off_c, 9, 35, 64
9, 80880, Note_on_c, 9, 42, 70
9, 80980, Note_off_c, 9, 42, 64
9, 81120, Note_on_c, 9, 38, 100
9, 81120, Note_on_c, 9, 42, 115
9, 81220, Note_off_c, 9, 42, 64
9, 81220, Note_off_c, 9, 38, 64
9, 81360, Note_on_c, 9, 35, 80
9, 81360, Note_on_c, 9, 42, 70
9, 81460, Note_off_c, 9, 42, 64
9, 81460, Note_off_c, 9, 35, 64
9, 81600, Note_on_c, 9, 35, 100
9, 81600, Note_on_c, 9, 38, 100
9, 81600, Note_on_c, 9, 42, 90
9, 81700, Note_off_c, 9, 42, 64
9, 81700, Note_off_c, 9, 38, 64
9, 81700, Note_off_c, 9, 35, 64
9, 81720, Note_on_c, 9, 38, 70
9, 81820, Note_off_c, 9, 38, 64
9, 81840, Note_on_c, 9, 38, 90
9, 81940, Note_off_c, 9, 38, 64
9, 81960, Note_on_c, 9, 38, 70
9, 82060, Note_off_c, 9, 38, 64
9, 82080, Note_on_c, 9, 45, 90
9, 82180, Note_off_c, 9, 45, 64
9, 82200, Note_on_c, 9, 45, 80
9, 82300, Note_off_c, 9, 45, 64
9, 82320, Note_on_c, 9, 45, 100
9, 82420, Note_off_c, 9, 45, 64
9, 82440, Note_on_c, 9, 45, 80
9, 82540, Note_off_c, 9, 45, 64
9, 82560, Note_on_c, 9, 35, 90
9, 82560, Note_on_c, 9, 42, 90
9, 82560, Note_on_c, 9, 49, 90
9, 82660, Note_off_c, 9, 49, 64
9, 82660, Note_off_c, 9, 42, 64
9, 82660, Note_off_c, 9, 35, 64
9, 82800, Note_on_c, 9, 42, 70
9, 82900, Note_off_c, 9, 42, 64
9, 83040, Note_on_c, 9, 38, 100
9, 83040, Note_on_c, 9, 42, 100
9, 83140, Note_off_c, 9, 42, 64
9, 83140, Note_off_c, 9, 38, 64
9, 83280, Note_on_c, 9, 35, 80
9, 83280, Note_on_c, 9, 42, 70
9, 83380, Note_off_c, 9, 42, 64
9, 83380, Note_off_c, 9, 35, 64
9, 83520, Note_on_c, 9, 35, 100
9, 83520, Note_on_c, 9, 42, 90
9, 83620, Note_off_c, 9, 42, 64
9, 83620, Note_off_c, 9, 35, 64
9, 83760, Note_on_c, 9, 42, 70
9, 83860, Note_off_c, 9, 42, 64
9, 84000, Note_on_c, 9, 38, 100
9, 84000, Note_on_c, 9, 42, 100
9, 84100, Note_off_c, 9, 42, 64
9, 84100, Note_off_c, 9, 38, 64
9, 84240, Note_on_c, 9, 35, 70
9, 84240, Note_on_c, 9, 42, 70
9, 84340, Note_off_c, 9, 42, 64
9, 84340, Note_off_c, 9, 35, 64
9, 84480, Note_on_c, 9, 35, 90
9, 84480, Note_on_c, 9, 42, 90
9, 84580, Note_off_c, 9, 42, 64
9, 84580, Note_off_c, 9, 35, 64
9, 84720, Note_on_c, 9, 42, 70
9, 84820, Note_off_c, 9, 42, 64
9, 84960, Note_on_c, 9, 38, 100
9, 84960, Note_on_c, 9, 42, 100
9, 85060, Note_off_c, 9, 42, 64
9, 85060, Note_off_c, 9, 38, 64
9, 85200, Note_on_c, 9, 35, 80
9, 85200, Note_on_c, 9, 42, 100
9, 85300, Note_off_c, 9, 42, 64
9, 85300, Note_off_c, 9, 35, 64
9, 85440, Note_on_c, 9, 35, 100
9, 85440, Note_on_c, 9, 42, 90
9, 85540, Note_off_c, 9, 42, 64
9, 85540, Note_off_c, 9, 35, 64
9, 85680, Note_on_c, 9, 35, 90
9, 85680, Note_on_c, 9, 42, 70
9, 85780, Note_off_c, 9, 42, 64
9, 85780, Note_off_c, 9, 35, 64
9, 85920, Note_on_c, 9, 38, 100
9, 85920, Note_on_c, 9, 42, 100
9, 86020, Note_off_c, 9, 42, 64
9, 86020, Note_off_c, 9, 38, 64
9, 86160, Note_on_c, 9, 35, 70
9, 86160, Note_on_c, 9, 42, 70
9, 86260, Note_off_c, 9, 42, 64
9, 86260, Note_off_c, 9, 35, 64
9, 86400, Note_on_c, 9, 35, 90
9, 86400, Note_on_c, 9, 42, 90
9, 86500, Note_off_c, 9, 42, 64
9, 86500, Note_off_c, 9, 35, 64
9, 86520, Note_on_c, 9, 46, 72
9, 86620, Note_off_c, 9, 46, 64
9, 86640, Note_on_c, 9, 42, 70
9, 86740, Note_off_c, 9, 42, 64
9, 86880, Note_on_c, 9, 38, 100
9, 86880, Note_on_c, 9, 42, 100
9, 86980, Note_off_c, 9, 42, 64
9, 86980, Note_off_c, 9, 38, 64
9, 87120, Note_on_c, 9, 35, 80
9, 87120, Note_on_c, 9, 42, 70
9, 87220, Note_off_c, 9, 42, 64
9, 87220, Note_off_c, 9, 35, 64
9, 87360, Note_on_c, 9, 35, 100
9, 87360, Note_on_c, 9, 42, 90
9, 87460, Note_off_c, 9, 42, 64
9, 87460, Note_off_c, 9, 35, 64
9, 87600, Note_on_c, 9, 42, 70
9, 87700, Note_off_c, 9, 42, 64
9, 87840, Note_on_c, 9, 38, 100
9, 87840, Note_on_c, 9, 42, 100
9, 87940, Note_off_c, 9, 42, 64
9, 87940, Note_off_c, 9, 38, 64
9, 88080, Note_on_c, 9, 35, 70
9, 88080, Note_on_c, 9, 42, 70
9, 88180, Note_off_c, 9, 42, 64
9, 88180, Note_off_c, 9, 35, 64
9, 88200, Note_on_c, 9, 46, 70
9, 88300, Note_off_c, 9, 46, 64
9, 88320, Note_on_c, 9, 35, 90
9, 88320, Note_on_c, 9, 42, 90
9, 88420, Note_off_c, 9, 42, 64
9, 88420, Note_off_c, 9, 35, 64
9, 88560, Note_on_c, 9, 42, 70
9, 88660, Note_off_c, 9, 42, 64
9, 88800, Note_on_c, 9, 38, 100
9, 88800, Note_on_c, 9, 42, 100
9, 88900, Note_off_c, 9, 42, 64
9, 88900, Note_off_c, 9, 38, 64
9, 89040, Note_on_c, 9, 35, 80
9, 89040, Note_on_c, 9, 42, 100
9, 89140, Note_off_c, 9, 42, 64
9, 89140, Note_off_c, 9, 35, 64
9, 89280, Note_on_c, 9, 35, 100
9, 89280, Note_on_c, 9, 42, 90
9, 89380, Note_off_c, 9, 42, 64
9, 89380, Note_off_c, 9, 35, 64
9, 89520, Note_on_c, 9, 35, 90
9, 89520, Note_on_c, 9, 42, 70
9, 89620, Note_off_c, 9, 42, 64
9, 89620, Note_off_c, 9, 35, 64
9, 89760, Note_on_c, 9, 38, 100
9, 89760, Note_on_c, 9, 42, 100
9, 89860, Note_off_c, 9, 42, 64
9, 89860, Note_off_c, 9, 38, 64
9, 90000, Note_on_c, 9, 35, 70
9, 90000, Note_on_c, 9, 42, 70
9, 90100, Note_off_c, 9, 42, 64
9, 90100, Note_off_c, 9, 35, 64
9, 90240, Note_on_c, 9, 35, 90
9, 90240, Note_on_c, 9, 42, 90
9, 90340, Note_off_c, 9, 42, 64
9, 90340, Note_off_c, 9, 35, 64
9, 90360, Note_on_c, 9, 42, 40
9, 90460, Note_off_c, 9, 42, 64
9, 90480, Note_on_c, 9, 42, 70
9, 90580, Note_off_c, 9, 42, 64
9, 90720, Note_on_c, 9, 38, 100
9, 90720, Note_on_c, 9, 42, 100
9, 90820, Note_off_c, 9, 42, 64
9, 90820, Note_off_c, 9, 38, 64
9, 90960, Note_on_c, 9, 35, 80
9, 90960, Note_on_c, 9, 42, 70
9, 91060, Note_off_c, 9, 42, 64
9, 91060, Note_off_c, 9, 35, 64
9, 91200, Note_on_c, 9, 35, 100
9, 91200, Note_on_c, 9, 42, 90
9, 91300, Note_off_c, 9, 42, 64
9, 91300, Note_off_c, 9, 35, 64
9, 91440, Note_on_c, 9, 41, 72
9, 91540, Note_off_c, 9, 41, 64
9, 91680, Note_on_c, 9, 38, 100
9, 91680, Note_on_c, 9, 42, 100
9, 91780, Note_off_c, 9, 42, 64
9, 91780, Note_off_c, 9, 38, 64
9, 91920, Note_on_c, 9, 35, 70
9, 91920, Note_on_c, 9, 42, 70
9, 92020, Note_off_c, 9, 42, 64
9, 92020, Note_off_c, 9, 35, 64
9, 92160, Note_on_c, 9, 35, 90
9, 92160, Note_on_c, 9, 42, 90
9, 92260, Note_off_c, 9, 42, 64
9, 92260, Note_off_c, 9, 35, 64
9, 92400, Note_on_c, 9, 42, 70
9, 92500, Note_off_c, 9, 42, 64
9, 92640, Note_on_c, 9, 38, 100
9, 92640, Note_on_c, 9, 42, 100
9, 92740, Note_off_c, 9, 42, 64
9, 92740, Note_off_c, 9, 38, 64
9, 92880, Note_on_c, 9, 35, 80
9, 92880, Note_on_c, 9, 42, 100
9, 92980, Note_off_c, 9, 42, 64
9, 92980, Note_off_c, 9, 35, 64
9, 93120, Note_on_c, 9, 35, 100
9, 93120, Note_on_c, 9, 42, 90
9, 93220, Note_off_c, 9, 42, 64
9, 93220, Note_off_c, 9, 35, 64
9, 93360, Note_on_c, 9, 35, 90
9, 93360, Note_on_c, 9, 42, 70
9, 93460, Note_off_c, 9, 42, 64
9, 93460, Note_off_c, 9, 35, 64
9, 93600, Note_on_c, 9, 38, 100
9, 93600, Note_on_c, 9, 42, 100
9, 93700, Note_off_c, 9, 42, 64
9, 93700, Note_off_c, 9, 38, 64
9, 93840, Note_on_c, 9, 35, 70
9, 93840, Note_on_c, 9, 42, 70
9, 93940, Note_off_c, 9, 42, 64
9, 93940, Note_off_c, 9, 35, 64
9, 94080, Note_on_c, 9, 35, 90
9, 94080, Note_on_c, 9, 42, 90
9, 94180, Note_off_c, 9, 42, 64
9, 94180, Note_off_c, 9, 35, 64
9, 94320, Note_on_c, 9, 42, 70
9, 94420, Note_off_c, 9, 42, 64
9, 94560, Note_on_c, 9, 38, 100
9, 94560, Note_on_c, 9, 42, 100
9, 94660, Note_off_c, 9, 42, 64
9, 94660, Note_off_c, 9, 38, 64
9, 94800, Note_on_c, 9, 35, 80
9, 94800, Note_on_c, 9, 42, 70
9, 94900, Note_off_c, 9, 42, 64
9, 94900, Note_off_c, 9, 35, 64
9, 95040, Note_on_c, 9, 35, 100
9, 95040, Note_on_c, 9, 42, 90
9, 95140, Note_off_c, 9, 42, 64
9, 95140, Note_off_c, 9, 35, 64
9, 95280, Note_on_c, 9, 42, 70
9, 95380, Note_off_c, 9, 42, 64
9, 95520, Note_on_c, 9, 38, 100
9, 95520, Note_on_c, 9, 42, 100
9, 95620, Note_off_c, 9, 42, 64
9, 95620, Note_off_c, 9, 38, 64
9, 95760, Note_on_c, 9, 35, 70
9, 95760, Note_on_c, 9, 42, 70
9, 95860, Note_off_c, 9, 42, 64
9, 95860, Note_off_c, 9, 35, 64
9, 96000, Note_on_c, 9, 35, 90
9, 96000, Note_on_c, 9, 42, 90
9, 96100, Note_off_c, 9, 42, 64
9, 96100, Note_off_c, 9, 35, 64
9, 96240, Note_on_c, 9, 42, 70
9, 96340, Note_off_c, 9, 42, 64
9, 96480, Note_on_c, 9, 38, 100
9, 96480, Note_on_c, 9, 42, 100
9, 96580, Note_off_c, 9, 42, 64
9, 96580, Note_off_c, 9, 38, 64
9, 96720, Note_on_c, 9, 35, 80
9, 96720, Note_on_c, 9, 42, 100
9, 96820, Note_off_c, 9, 42, 64
9, 96820, Note_off_c, 9, 35, 64
9, 96960, Note_on_c, 9, 35, 100
9, 96960, Note_on_c, 9, 42, 90
9, 97060, Note_off_c, 9, 42, 64
9, 97060, Note_off_c, 9, 35, 64
9, 97200, Note_on_c, 9, 35, 90
9, 97200, Note_on_c, 9, 42, 70
9, 97300, Note_off_c, 9, 42, 64
9, 97300, Note_off_c, 9, 35, 64
9, 97440, Note_on_c, 9, 38, 100
9, 97440, Note_on_c, 9, 42, 100
9, 97540, Note_off_c, 9, 42, 64
9, 97540, Note_off_c, 9, 38, 64
9, 97680, Note_on_c, 9, 35, 70
9, 97680, Note_on_c, 9, 46, 80
9, 97780, Note_off_c, 9, 46, 64
9, 97780, Note_off_c, 9, 35, 64
9, 97920, Note_on_c, 9, 35, 90
9, 97920, Note_on_c, 9, 42, 90
9, 98020, Note_off_c, 9, 42, 64
9, 98020, Note_off_c, 9, 35, 64
9, 98160, Note_on_c, 9, 42, 70
9, 98260, Note_off_c, 9, 42, 64
9, 98400, Note_on_c, 9, 38, 100
9, 98400, Note_on_c, 9, 42, 100
9, 98500, Note_off_c, 9, 42, 64
9, 98500, Note_off_c, 9, 38, 64
9, 98640, Note_on_c, 9, 35, 80
9, 98640, Note_on_c, 9, 42, 70
9, 98740, Note_off_c, 9, 42, 64
9, 98740, Note_off_c, 9, 35, 64
9, 98880, Note_on_c, 9, 35, 100
9, 98880, Note_on_c, 9, 42, 90
9, 98980, Note_off_c, 9, 42, 64
9, 98980, Note_off_c, 9, 35, 64
9, 99120, Note_on_c, 9, 42, 70
9, 99220, Note_off_c, 9, 42, 64
9, 99360, Note_on_c, 9, 38, 100
9, 99360, Note_on_c, 9, 42, 100
9, 99460, Note_off_c, 9, 42, 64
9, 99460, Note_off_c, 9, 38, 64
9, 99600, Note_on_c, 9, 35, 70
9, 99600, Note_on_c, 9, 42, 70
9, 99700, Note_off_c, 9, 42, 64
9, 99700, Note_off_c, 9, 35, 64
9, 99840, Note_on_c, 9, 38, 115
9, 99840, Note_on_c, 9, 49, 100
9, 99940, Note_off_c, 9, 49, 64
9, 99940, Note_off_c, 9, 38, 64
9, 100080, Note_on_c, 9, 38, 90
9, 100080, Note_on_c, 9, 41, 90
9, 100180, Note_off_c, 9, 41, 64
9, 100180, Note_off_c, 9, 38, 64
9, 100320, Note_on_c, 9, 38, 60
9, 100320, Note_on_c, 9, 41, 60
9, 100420, Note_off_c, 9, 41, 64
9, 100420, Note_off_c, 9, 38, 64
9, 100560, Note_on_c, 9, 38, 80
9, 100560, Note_on_c, 9, 41, 70
9, 100660, Note_off_c, 9, 41, 64
9, 100660, Note_off_c, 9, 38, 64
9, 100800, Note_on_c, 9, 38, 100
9, 100800, Note_on_c, 9, 41, 100
9, 100900, Note_off_c, 9, 41, 64
9, 100900, Note_off_c, 9, 38, 64
9, 101040, Note_on_c, 9, 35, 100
9, 101140, Note_off_c, 9, 35, 64
9, 101280, Note_on_c, 9, 38, 115
9, 101280, Note_on_c, 9, 41, 115
9, 101380, Note_off_c, 9, 41, 64
9, 101380, Note_off_c, 9, 38, 64
9, 101520, Note_on_c, 9, 35, 100
9, 101620, Note_off_c, 9, 35, 64
9, 101760, Note_on_c, 9, 35, 90
9, 101760, Note_on_c, 9, 42, 90
9, 101760, Note_on_c, 9, 49, 90
9, 101860, Note_off_c, 9, 49, 64
9, 101860, Note_off_c, 9, 42, 64
9, 101860, Note_off_c, 9, 35, 64
9, 102000, Note_on_c, 9, 42, 70
9, 102100, Note_off_c, 9, 42, 64
9, 102240, Note_on_c, 9, 38, 100
9, 102240, Note_on_c, 9, 42, 115
9, 102340, Note_off_c, 9, 42, 64
9, 102340, Note_off_c, 9, 38, 64
9, 102480, Note_on_c, 9, 35, 80
9, 102480, Note_on_c, 9, 42, 70
9, 102580, Note_off_c, 9, 42, 64
9, 102580, Note_off_c, 9, 35, 64
9, 102720, Note_on_c, 9, 35, 100
9, 102720, Note_on_c, 9, 42, 90
9, 102820, Note_off_c, 9, 42, 64
9, 102820, Note_off_c, 9, 35, 64
9, 102960, Note_on_c, 9, 42, 70
9, 103060, Note_off_c, 9, 42, 64
9, 103200, Note_on_c, 9, 38, 100
9, 103200, Note_on_c, 9, 42, 100
9, 103300, Note_off_c, 9, 42, 64
9, 103300, Note_off_c, 9, 38, 64
9, 103440, Note_on_c, 9, 42, 70
9, 103540, Note_off_c, 9, 42, 64
9, 103680, Note_on_c, 9, 35, 90
9, 103680, Note_on_c, 9, 42, 90
9, 103780, Note_off_c, 9, 42, 64
9, 103780, Note_off_c, 9, 35, 64
9, 103920, Note_on_c, 9, 42, 70
9, 104020, Note_off_c, 9, 42, 64
9, 104160, Note_on_c, 9, 38, 100
9, 104160, Note_on_c, 9, 42, 115
9, 104260, Note_off_c, 9, 42, 64
9, 104260, Note_off_c, 9, 38, 64
9, 104400, Note_on_c, 9, 35, 80
9, 104400, Note_on_c, 9, 42, 75
9, 104500, Note_off_c, 9, 42, 64
9, 104500, Note_off_c, 9, 35, 64
9, 104640, Note_on_c, 9, 35, 100
9, 104640, Note_on_c, 9, 42, 90
9, 104740, Note_off_c, 9, 42, 64
9, 104740, Note_off_c, 9, 35, 64
9, 104880, Note_on_c, 9, 42, 70
9, 104980, Note_off_c, 9, 42, 64
9, 105120, Note_on_c, 9, 38, 100
9, 105120, Note_on_c, 9, 42, 100
9, 105120, Note_on_c, 9, 54, 115
9, 105220, Note_off_c, 9, 54, 64
9, 105220, Note_off_c, 9, 42, 64
9, 105220, Note_off_c, 9, 38, 64
9, 105360, Note_on_c, 9, 35, 70
9, 105360, Note_on_c, 9, 46, 80
9, 105460, Note_off_c, 9, 46, 64
9, 105460, Note_off_c, 9, 35, 64
9, 105600, Note_on_c, 9, 35, 90
9, 105600, Note_on_c, 9, 42, 90
9, 105700, Note_off_c, 9, 42, 64
9, 105700, Note_off_c, 9, 35, 64
9, 105720, Note_on_c, 9, 42, 60
9, 105820, Note_off_c, 9, 42, 64
9, 105840, Note_on_c, 9, 42, 70
9, 105940, Note_off_c, 9, 42, 64
9, 106080, Note_on_c, 9, 38, 100
9, 106080, Note_on_c, 9, 42, 115
9, 106180, Note_off_c, 9, 42, 64
9, 106180, Note_off_c, 9, 38, 64
9, 106320, Note_on_c, 9, 35, 80
9, 106320, Note_on_c, 9, 42, 70
9, 106420, Note_off_c, 9, 42, 64
9, 106420, Note_off_c, 9, 35, 64
9, 106560, Note_on_c, 9, 35, 100
9, 106560, Note_on_c, 9, 42, 90
9, 106660, Note_off_c, 9, 42, 64
9, 106660, Note_off_c, 9, 35, 64
9, 106800, Note_on_c, 9, 46, 72
9, 106900, Note_off_c, 9, 46, 64
9, 107040, Note_on_c, 9, 38, 100
9, 107040, Note_on_c, 9, 42, 100
9, 107140, Note_off_c, 9, 42, 64
9, 107140, Note_off_c, 9, 38, 64
9, 107280, Note_on_c, 9, 42, 70
9, 107380, Note_off_c, 9, 42, 64
9, 107520, Note_on_c, 9, 35, 90
9, 107520, Note_on_c, 9, 42, 90
9, 107620, Note_off_c, 9, 42, 64
9, 107620, Note_off_c, 9, 35, 64
9, 107760, Note_on_c, 9, 42, 70
9, 107860, Note_off_c, 9, 42, 64
9, 108000, Note_on_c, 9, 38, 100
9, 108000, Note_on_c, 9, 42, 115
9, 108100, Note_off_c, 9, 42, 64
9, 108100, Note_off_c, 9, 38, 64
9, 108240, Note_on_c, 9, 35, 80
9, 108240, Note_on_c, 9, 42, 75
9, 108340, Note_off_c, 9, 42, 64
9, 108340, Note_off_c, 9, 35, 64
9, 108480, Note_on_c, 9, 35, 100
9, 108480, Note_on_c, 9, 42, 90
9, 108580, Note_off_c, 9, 42, 64
9, 108580, Note_off_c, 9, 35, 64
9, 108720, Note_on_c, 9, 42, 70
9, 108820, Note_off_c, 9, 42, 64
9, 108960, Note_on_c, 9, 38, 100
9, 108960, Note_on_c, 9, 42, 100
9, 108960, Note_on_c, 9, 54, 115
9, 109060, Note_off_c, 9, 54, 64
9, 109060, Note_off_c, 9, 42, 64
9, 109060, Note_off_c, 9, 38, 64
9, 109200, Note_on_c, 9, 35, 70
9, 109200, Note_on_c, 9, 46, 80
9, 109300, Note_off_c, 9, 46, 64
9, 109300, Note_off_c, 9, 35, 64
9, 109440, Note_on_c, 9, 35, 90
9, 109440, Note_on_c, 9, 42, 90
9, 109540, Note_off_c, 9, 42, 64
9, 109540, Note_off_c, 9, 35, 64
9, 109560, Note_on_c, 9, 42, 60
9, 109660, Note_off_c, 9, 42, 64
9, 109680, Note_on_c, 9, 42, 70
9, 109780, Note_off_c, 9, 42, 64
9, 109920, Note_on_c, 9, 38, 100
9, 109920, Note_on_c, 9, 42, 115
9, 110020, Note_off_c, 9, 42, 64
9, 110020, Note_off_c, 9, 38, 64
9, 110160, Note_on_c, 9, 35, 80
9, 110160, Note_on_c, 9, 42, 70
9, 110260, Note_off_c, 9, 42, 64
9, 110260, Note_off_c, 9, 35, 64
9, 110400, Note_on_c, 9, 35, 100
9, 110400, Note_on_c, 9, 42, 90
9, 110500, Note_off_c, 9, 42, 64
9, 110500, Note_off_c, 9, 35, 64
9, 110640, Note_on_c, 9, 42, 70
9, 110740, Note_off_c, 9, 42, 64
9, 110880, Note_on_c, 9, 38, 100
9, 110880, Note_on_c, 9, 42, 100
9, 110980, Note_off_c, 9, 42, 64
9, 110980, Note_off_c, 9, 38, 64
9, 111120, Note_on_c, 9, 42, 70
9, 111220, Note_off_c, 9, 42, 64
9, 111360, Note_on_c, 9, 35, 90
9, 111360, Note_on_c, 9, 42, 90
9, 111460, Note_off_c, 9, 42, 64
9, 111460, Note_off_c, 9, 35, 64
9, 111600, Note_on_c, 9, 42, 70
9, 111700, Note_off_c, 9, 42, 64
9, 111840, Note_on_c, 9, 38, 100
9, 111840, Note_on_c, 9, 42, 115
9, 111940, Note_off_c, 9, 42, 64
9, 111940, Note_off_c, 9, 38, 64
9, 112080, Note_on_c, 9, 35, 80
9, 112080, Note_on_c, 9, 42, 75
9, 112180, Note_off_c, 9, 42, 64
9, 112180, Note_off_c, 9, 35, 64
9, 112320, Note_on_c, 9, 35, 100
9, 112320, Note_on_c, 9, 42, 90
9, 112420, Note_off_c, 9, 42, 64
9, 112420, Note_off_c, 9, 35, 64
9, 112560, Note_on_c, 9, 42, 70
9, 112660, Note_off_c, 9, 42, 64
9, 112800, Note_on_c, 9, 38, 100
9, 112800, Note_on_c, 9, 42, 100
9, 112800, Note_on_c, 9, 54, 115
9, 112900, Note_off_c, 9, 54, 64
9, 112900, Note_off_c, 9, 42, 64
9, 112900, Note_off_c, 9, 38, 64
9, 113040, Note_on_c, 9, 35, 70
9, 113040, Note_on_c, 9, 46, 80
9, 113140, Note_off_c, 9, 46, 64
9, 113140, Note_off_c, 9, 35, 64
9, 113280, Note_on_c, 9, 35, 90
9, 113280, Note_on_c, 9, 42, 90
9, 113380, Note_off_c, 9, 42, 64
9, 113380, Note_off_c, 9, 35, 64
9, 113520, Note_on_c, 9, 42, 70
9, 113620, Note_off_c, 9, 42, 64
9, 113760, Note_on_c, 9, 38, 100
9, 113760, Note_on_c, 9, 42, 115
9, 113860, Note_off_c, 9, 42, 64
9, 113860, Note_off_c, 9, 38, 64
9, 114000, Note_on_c, 9, 35, 80
9, 114000, Note_on_c, 9, 42, 70
9, 114100, Note_off_c, 9, 42, 64
9, 114100, Note_off_c, 9, 35, 64
9, 114240, Note_on_c, 9, 35, 100
9, 114240, Note_on_c, 9, 42, 90
9, 114340, Note_off_c, 9, 42, 64
9, 114340, Note_off_c, 9, 35, 64
9, 114480, Note_on_c, 9, 42, 70
9, 114580, Note_off_c, 9, 42, 64
9, 114720, Note_on_c, 9, 38, 100
9, 114720, Note_on_c, 9, 42, 100
9, 114820, Note_off_c, 9, 42, 64
9, 114820, Note_off_c, 9, 38, 64
9, 114960, Note_on_c, 9, 42, 70
9, 115060, Note_off_c, 9, 42, 64
9, 115200, Note_on_c, 9, 35, 90
9, 115200, Note_on_c, 9, 42, 90
9, 115300, Note_off_c, 9, 42, 64
9, 115300, Note_off_c, 9, 35, 64
9, 115440, Note_on_c, 9, 42, 70
9, 115540, Note_off_c, 9, 42, 64
9, 115680, Note_on_c, 9, 38, 100
9, 115680, Note_on_c, 9, 42, 115
9, 115680, Note_on_c, 9, 39, 100
9, 115780, Note_off_c, 9, 39, 64
9, 115780, Note_off_c, 9, 42, 64
9, 115780, Note_off_c, 9, 38, 64
9, 115920, Note_on_c, 9, 35, 80
9, 115920, Note_on_c, 9, 42, 70
9, 115920, Note_on_c, 9, 39, 40
9, 116020, Note_off_c, 9, 39, 64
9, 116020, Note_off_c, 9, 42, 64
9, 116020, Note_off_c, 9, 35, 64
9, 116160, Note_on_c, 9, 35, 100
9, 116160, Note_on_c, 9, 42, 90
9, 116260, Note_off_c, 9, 42, 64
9, 116260, Note_off_c, 9, 35, 64
9, 116400, Note_on_c, 9, 42, 70
9, 116400, Note_on_c, 9, 54, 40
9, 116500, Note_off_c, 9, 54, 64
9, 116500, Note_off_c, 9, 42, 64
9, 116520, Note_on_c, 9, 54, 20
9, 116620, Note_off_c, 9, 54, 64
9, 116640, Note_on_c, 9, 38, 100
9, 116640, Note_on_c, 9, 42, 100
9, 116640, Note_on_c, 9, 41, 100
9, 116640, Note_on_c, 9, 54, 115
9, 116740, Note_off_c, 9, 54, 64
9, 116740, Note_off_c, 9, 41, 64
9, 116740, Note_off_c, 9, 42, 64
9, 116740, Note_off_c, 9, 38, 64
9, 116880, Note_on_c, 9, 35, 80
9, 116880, Note_on_c, 9, 42, 70
9, 116980, Note_off_c, 9, 42, 64
9, 116980, Note_off_c, 9, 35, 64
9, 117120, Note_on_c, 9, 35, 90
9, 117120, Note_on_c, 9, 42, 90
9, 117220, Note_off_c, 9, 42, 64
9, 117220, Note_off_c, 9, 35, 64
9, 117360, Note_on_c, 9, 42, 70
9, 117460, Note_off_c, 9, 42, 64
9, 117600, Note_on_c, 9, 38, 100
9, 117600, Note_on_c, 9, 42, 115
9, 117700, Note_off_c, 9, 42, 64
9, 117700, Note_off_c, 9, 38, 64
9, 117840, Note_on_c, 9, 35, 80
9, 117840, Note_on_c, 9, 42, 70
9, 117940, Note_off_c, 9, 42, 64
9, 117940, Note_off_c, 9, 35, 64
9, 118080, Note_on_c, 9, 35, 100
9, 118080, Note_on_c, 9, 42, 90
9, 118180, Note_off_c, 9, 42, 64
9, 118180, Note_off_c, 9, 35, 64
9, 118320, Note_on_c, 9, 38, 90
9, 118420, Note_off_c, 9, 38, 64
9, 118440, Note_on_c, 9, 38, 70
9, 118540, Note_off_c, 9, 38, 64
9, 118560, Note_on_c, 9, 38, 100
9, 118660, Note_off_c, 9, 38, 64
9, 118800, Note_on_c, 9, 38, 100
9, 118800, Note_on_c, 9, 46, 90
9, 118900, Note_off_c, 9, 46, 64
9, 118900, Note_off_c, 9, 38, 64
9, 119040, Note_on_c, 9, 35, 90
9, 119040, Note_on_c, 9, 42, 90
9, 119040, Note_on_c, 9, 49, 90
9, 119140, Note_off_c, 9, 49, 64
9, 119140, Note_off_c, 9, 42, 64
9, 119140, Note_off_c, 9, 35, 64
9, 119280, Note_on_c, 9, 42, 70
9, 119380, Note_off_c, 9, 42, 64
9, 119520, Note_on_c, 9, 38, 100
9, 119520, Note_on_c, 9, 42, 115
9, 119620, Note_off_c, 9, 42, 64
9, 119620, Note_off_c, 9, 38, 64
9, 119760, Note_on_c, 9, 35, 80
9, 119760, Note_on_c, 9, 42, 70
9, 119860, Note_off_c, 9, 42, 64
9, 119860, Note_off_c, 9, 35, 64
9, 120000, Note_on_c, 9, 35, 100
9, 120000, Note_on_c, 9, 42, 90
9, 120100, Note_off_c, 9, 42, 64
9, 120100, Note_off_c, 9, 35, 64
9, 120240, Note_on_c, 9, 42, 70
9, 120340, Note_off_c, 9, 42, 64
9, 120480, Note_on_c, 9, 38, 100
9, 120480, Note_on_c, 9, 42, 100
9, 120580, Note_off_c, 9, 42, 64
9, 120580, Note_off_c, 9, 38, 64
9, 120720, Note_on_c, 9, 42, 70
9, 120820, Note_off_c, 9, 42, 64
9, 120960, Note_on_c, 9, 35, 90
9, 120960, Note_on_c, 9, 42, 90
9, 121060, Note_off_c, 9, 42, 64
9, 121060, Note_off_c, 9, 35, 64
9, 121200, Note_on_c, 9, 42, 70
9, 121300, Note_off_c, 9, 42, 64
9, 121440, Note_on_c, 9, 38, 100
9, 121440, Note_on_c, 9, 42, 115
9, 121540, Note_off_c, 9, 42, 64
9, 121540, Note_off_c, 9, 38, 64
9, 121680, Note_on_c, 9, 35, 80
9, 121680, Note_on_c, 9, 42, 75
9, 121780, Note_off_c, 9, 42, 64
9, 121780, Note_off_c, 9, 35, 64
9, 121920, Note_on_c, 9, 35, 100
9, 121920, Note_on_c, 9, 42, 90
9, 122020, Note_off_c, 9, 42, 64
9, 122020, Note_off_c, 9, 35, 64
9, 122160, Note_on_c, 9, 42, 70
9, 122260, Note_off_c, 9, 42, 64
9, 122400, Note_on_c, 9, 38, 100
9, 122400, Note_on_c, 9, 42, 100
9, 122400, Note_on_c, 9, 54, 115
9, 122500, Note_off_c, 9, 54, 64
9, 122500, Note_off_c, 9, 42, 64
9, 122500, Note_off_c, 9, 38, 64
9, 122640, Note_on_c, 9, 35, 70
9, 122640, Note_on_c, 9, 46, 80
9, 122740, Note_off_c, 9, 46, 64
9, 122740, Note_off_c, 9, 35, 64
9, 122880, Note_on_c, 9, 35, 90
9, 122880, Note_on_c, 9, 42, 100
9, 122980, Note_off_c, 9, 42, 64
9, 122980, Note_off_c, 9, 35, 64
9, 123120, Note_on_c, 9, 42, 70
9, 123220, Note_off_c, 9, 42, 64
9, 123360, Note_on_c, 9, 38, 100
9, 123360, Note_on_c, 9, 42, 115
9, 123460, Note_off_c, 9, 42, 64
9, 123460, Note_off_c, 9, 38, 64
9, 123600, Note_on_c, 9, 35, 80
9, 123600, Note_on_c, 9, 42, 70
9, 123700, Note_off_c, 9, 42, 64
9, 123700, Note_off_c, 9, 35, 64
9, 123840, Note_on_c, 9, 35, 100
9, 123840, Note_on_c, 9, 42, 90
9, 123940, Note_off_c, 9, 42, 64
9, 123940, Note_off_c, 9, 35, 64
9, 124080, Note_on_c, 9, 42, 70
9, 124180, Note_off_c, 9, 42, 64
9, 124320, Note_on_c, 9, 38, 100
9, 124320, Note_on_c, 9, 42, 100
9, 124420, Note_off_c, 9, 42, 64
9, 124420, Note_off_c, 9, 38, 64
9, 124560, Note_on_c, 9, 42, 70
9, 124660, Note_off_c, 9, 42, 64
9, 124800, Note_on_c, 9, 35, 90
9, 124800, Note_on_c, 9, 42, 90
9, 124900, Note_off_c, 9, 42, 64
9, 124900, Note_off_c, 9, 35, 64
9, 125040, Note_on_c, 9, 42, 70
9, 125140, Note_off_c, 9, 42, 64
9, 125280, Note_on_c, 9, 38, 100
9, 125280, Note_on_c, 9, 42, 115
9, 125380, Note_off_c, 9, 42, 64
9, 125380, Note_off_c, 9, 38, 64
9, 125520, Note_on_c, 9, 35, 80
9, 125520, Note_on_c, 9, 42, 80
9, 125620, Note_off_c, 9, 42, 64
9, 125620, Note_off_c, 9, 35, 64
9, 125760, Note_on_c, 9, 35, 100
9, 125760, Note_on_c, 9, 42, 90
9, 125860, Note_off_c, 9, 42, 64
9, 125860, Note_off_c, 9, 35, 64
9, 126000, Note_on_c, 9, 42, 70
9, 126100, Note_off_c, 9, 42, 64
9, 126240, Note_on_c, 9, 38, 100
9, 126240, Note_on_c, 9, 42, 100
9, 126240, Note_on_c, 9, 54, 115
9, 126340, Note_off_c, 9, 54, 64
9, 126340, Note_off_c, 9, 42, 64
9, 126340, Note_off_c, 9, 38, 64
9, 126480, Note_on_c, 9, 35, 70
9, 126480, Note_on_c, 9, 42, 70
9, 126580, Note_off_c, 9, 42, 64
9, 126580, Note_off_c, 9, 35, 64
9, 126720, Note_on_c, 9, 35, 90
9, 126720, Note_on_c, 9, 42, 100
9, 126820, Note_off_c, 9, 42, 64
9, 126820, Note_off_c, 9, 35, 64
9, 126960, Note_on_c, 9, 42, 70
9, 127060, Note_off_c, 9, 42, 64
9, 127200, Note_on_c, 9, 38, 100
9, 127200, Note_on_c, 9, 42, 115
9, 127300, Note_off_c, 9, 42, 64
9, 127300, Note_off_c, 9, 38, 64
9, 127440, Note_on_c, 9, 35, 80
9, 127440, Note_on_c, 9, 42, 70
9, 127540, Note_off_c, 9, 42, 64
9, 127540, Note_off_c, 9, 35, 64
9, 127680, Note_on_c, 9, 35, 100
9, 127680, Note_on_c, 9, 42, 90
9, 127780, Note_off_c, 9, 42, 64
9, 127780, Note_off_c, 9, 35, 64
9, 127920, Note_on_c, 9, 42, 70
9, 128020, Note_off_c, 9, 42, 64
9, 128160, Note_on_c, 9, 38, 100
9, 128160, Note_on_c, 9, 42, 100
9, 128260, Note_off_c, 9, 42, 64
9, 128260, Note_off_c, 9, 38, 64
9, 128400, Note_on_c, 9, 42, 70
9, 128500, Note_off_c, 9, 42, 64
9, 128640, Note_on_c, 9, 35, 90
9, 128640, Note_on_c, 9, 42, 90
9, 128740, Note_off_c, 9, 42, 64
9, 128740, Note_off_c, 9, 35, 64
9, 128880, Note_on_c, 9, 42, 70
9, 128980, Note_off_c, 9, 42, 64
9, 129120, Note_on_c, 9, 38, 100
9, 129120, Note_on_c, 9, 42, 115
9, 129220, Note_off_c, 9, 42, 64
9, 129220, Note_off_c, 9, 38, 64
9, 129360, Note_on_c, 9, 35, 80
9, 129360, Note_on_c, 9, 42, 70
9, 129460, Note_off_c, 9, 42, 64
9, 129460, Note_off_c, 9, 35, 64
9, 129600, Note_on_c, 9, 35, 100
9, 129600, Note_on_c, 9, 42, 90
9, 129700, Note_off_c, 9, 42, 64
9, 129700, Note_off_c, 9, 35, 64
9, 129840, Note_on_c, 9, 38, 90
9, 129940, Note_off_c, 9, 38, 64
9, 129960, Note_on_c, 9, 38, 60
9, 130060, Note_off_c, 9, 38, 64
9, 130080, Note_on_c, 9, 38, 100
9, 130180, Note_off_c, 9, 38, 64
9, 130200, Note_on_c, 9, 38, 70
9, 130300, Note_off_c, 9, 38, 64
9, 130320, Note_on_c, 9, 38, 100
9, 130420, Note_off_c, 9, 38, 64
9, 130440, Note_on_c, 9, 38, 115
9, 130540, Note_off_c, 9, 38, 64
9, 130560, Note_on_c, 9, 35, 90
9, 130560, Note_on_c, 9, 42, 90
9, 130560, Note_on_c, 9, 49, 90
9, 130660, Note_off_c, 9, 49, 64
9, 130660, Note_off_c, 9, 42, 64
9, 130660, Note_off_c, 9, 35, 64
9, 130800, Note_on_c, 9, 42, 70
9, 130900, Note_off_c, 9, 42, 64
9, 131040, Note_on_c, 9, 38, 100
9, 131040, Note_on_c, 9, 42, 115
9, 131140, Note_off_c, 9, 42, 64
9, 131140, Note_off_c, 9, 38, 64
9, 131280, Note_on_c, 9, 35, 80
9, 131280, Note_on_c, 9, 42, 70
9, 131380, Note_off_c, 9, 42, 64
9, 131380, Note_off_c, 9, 35, 64
9, 131520, Note_on_c, 9, 35, 100
9, 131520, Note_on_c, 9, 42, 90
9, 131620, Note_off_c, 9, 42, 64
9, 131620, Note_off_c, 9, 35, 64
9, 131760, Note_on_c, 9, 42, 70
9, 131860, Note_off_c, 9, 42, 64
9, 132000, Note_on_c, 9, 38, 100
9, 132000, Note_on_c, 9, 42, 100
9, 132100, Note_off_c, 9, 42, 64
9, 132100, Note_off_c, 9, 38, 64
9, 132240, Note_on_c, 9, 42, 70
9, 132340, Note_off_c, 9, 42, 64
9, 132480, Note_on_c, 9, 35, 90
9, 132480, Note_on_c, 9, 42, 90
9, 132580, Note_off_c, 9, 42, 64
9, 132580, Note_off_c, 9, 35, 64
9, 132720, Note_on_c, 9, 42, 70
9, 132820, Note_off_c, 9, 42, 64
9, 132960, Note_on_c, 9, 38, 100
9, 132960, Note_on_c, 9, 42, 115
9, 133060, Note_off_c, 9, 42, 64
9, 133060, Note_off_c, 9, 38, 64
9, 133200, Note_on_c, 9, 35, 80
9, 133200, Note_on_c, 9, 42, 80
9, 133300, Note_off_c, 9, 42, 64
9, 133300, Note_off_c, 9, 35, 64
9, 133440, Note_on_c, 9, 35, 100
9, 133440, Note_on_c, 9, 42, 90
9, 133540, Note_off_c, 9, 42, 64
9, 133540, Note_off_c, 9, 35, 64
9, 133680, Note_on_c, 9, 42, 70
9, 133780, Note_off_c, 9, 42, 64
9, 133920, Note_on_c, 9, 38, 100
9, 133920, Note_on_c, 9, 42, 100
9, 133920, Note_on_c, 9, 54, 115
9, 134020, Note_off_c, 9, 54, 64
9, 134020, Note_off_c, 9, 42, 64
9, 134020, Note_off_c, 9, 38, 64
9, 134160, Note_on_c, 9, 35, 70
9, 134160, Note_on_c, 9, 42, 70
9, 134260, Note_off_c, 9, 42, 64
9, 134260, Note_off_c, 9, 35, 64
9, 134400, Note_on_c, 9, 35, 90
9, 134400, Note_on_c, 9, 42, 90
9, 134500, Note_off_c, 9, 42, 64
9, 134500, Note_off_c, 9, 35, 64
9, 134520, Note_on_c, 9, 42, 60
9, 134620, Note_off_c, 9, 42, 64
9, 134640, Note_on_c, 9, 42, 70
9, 134740, Note_off_c, 9, 42, 64
9, 134880, Note_on_c, 9, 38, 100
9, 134880, Note_on_c, 9, 42, 115
9, 134980, Note_off_c, 9, 42, 64
9, 134980, Note_off_c, 9, 38, 64
9, 135120, Note_on_c, 9, 35, 80
9, 135120, Note_on_c, 9, 42, 70
9, 135220, Note_off_c, 9, 42, 64
9, 135220, Note_off_c, 9, 35, 64
9, 135360, Note_on_c, 9, 35, 100
9, 135360, Note_on_c, 9, 42, 90
9, 135460, Note_off_c, 9, 42, 64
9, 135460, Note_off_c, 9, 35, 64
9, 135600, Note_on_c, 9, 46, 72
9, 135700, Note_off_c, 9, 46, 64
9, 135840, Note_on_c, 9, 38, 100
9, 135840, Note_on_c, 9, 42, 100
9, 135940, Note_off_c, 9, 42, 64
9, 135940, Note_off_c, 9, 38, 64
9, 136080, Note_on_c, 9, 42, 70
9, 136180, Note_off_c, 9, 42, 64
9, 136320, Note_on_c, 9, 35, 90
9, 136320, Note_on_c, 9, 42, 90
9, 136420, Note_off_c, 9, 42, 64
9, 136420, Note_off_c, 9, 35, 64
9, 136560, Note_on_c, 9, 42, 70
9, 136660, Note_off_c, 9, 42, 64
9, 136800, Note_on_c, 9, 38, 100
9, 136800, Note_on_c, 9, 42, 115
9, 136900, Note_off_c, 9, 42, 64
9, 136900, Note_off_c, 9, 38, 64
9, 137040, Note_on_c, 9, 35, 80
9, 137040, Note_on_c, 9, 42, 80
9, 137140, Note_off_c, 9, 42, 64
9, 137140, Note_off_c, 9, 35, 64
9, 137280, Note_on_c, 9, 35, 100
9, 137280, Note_on_c, 9, 42, 90
9, 137380, Note_off_c, 9, 42, 64
9, 137380, Note_off_c, 9, 35, 64
9, 137520, Note_on_c, 9, 42, 70
9, 137620, Note_off_c, 9, 42, 64
9, 137760, Note_on_c, 9, 38, 100
9, 137760, Note_on_c, 9, 42, 100
9, 137760, Note_on_c, 9, 54, 115
9, 137860, Note_off_c, 9, 54, 64
9, 137860, Note_off_c, 9, 42, 64
9, 137860, Note_off_c, 9, 38, 64
9, 138000, Note_on_c, 9, 35, 70
9, 138000, Note_on_c, 9, 42, 70
9, 138100, Note_off_c, 9, 42, 64
9, 138100, Note_off_c, 9, 35, 64
9, 138240, Note_on_c, 9, 35, 90
9, 138240, Note_on_c, 9, 42, 90
9, 138340, Note_off_c, 9, 42, 64
9, 138340, Note_off_c, 9, 35, 64
9, 138480, Note_on_c, 9, 42, 70
9, 138580, Note_off_c, 9, 42, 64
9, 138720, Note_on_c, 9, 38, 100
9, 138720, Note_on_c, 9, 42, 115
9, 138820, Note_off_c, 9, 42, 64
9, 138820, Note_off_c, 9, 38, 64
9, 138960, Note_on_c, 9, 35, 80
9, 138960, Note_on_c, 9, 42, 70
9, 139060, Note_off_c, 9, 42, 64
9, 139060, Note_off_c, 9, 35, 64
9, 139200, Note_on_c, 9, 35, 100
9, 139200, Note_on_c, 9, 42, 90
9, 139300, Note_off_c, 9, 42, 64
9, 139300, Note_off_c, 9, 35, 64
9, 139440, Note_on_c, 9, 42, 70
9, 139540, Note_off_c, 9, 42, 64
9, 139680, Note_on_c, 9, 38, 100
9, 139680, Note_on_c, 9, 42, 100
9, 139780, Note_off_c, 9, 42, 64
9, 139780, Note_off_c, 9, 38, 64
9, 139920, Note_on_c, 9, 42, 70
9, 140020, Note_off_c, 9, 42, 64
9, 140160, Note_on_c, 9, 35, 90
9, 140160, Note_on_c, 9, 42, 90
9, 140260, Note_off_c, 9, 42, 64
9, 140260, Note_off_c, 9, 35, 64
9, 140400, Note_on_c, 9, 42, 70
9, 140500, Note_off_c, 9, 42, 64
9, 140640, Note_on_c, 9, 38, 100
9, 140640, Note_on_c, 9, 42, 115
9, 140740, Note_off_c, 9, 42, 64
9, 140740, Note_off_c, 9, 38, 64
9, 140880, Note_on_c, 9, 35, 80
9, 140880, Note_on_c, 9, 42, 80
9, 140980, Note_off_c, 9, 42, 64
9, 140980, Note_off_c, 9, 35, 64
9, 141120, Note_on_c, 9, 35, 100
9, 141120, Note_on_c, 9, 42, 90
9, 141220, Note_off_c, 9, 42, 64
9, 141220, Note_off_c, 9, 35, 64
9, 141360, Note_on_c, 9, 42, 70
9, 141460, Note_off_c, 9, 42, 64
9, 141600, Note_on_c, 9, 38, 100
9, 141600, Note_on_c, 9, 42, 100
9, 141600, Note_on_c, 9, 54, 115
9, 141700, Note_off_c, 9, 54, 64
9, 141700, Note_off_c, 9, 42, 64
9, 141700, Note_off_c, 9, 38, 64
9, 141840, Note_on_c, 9, 35, 70
9, 141840, Note_on_c, 9, 42, 70
9, 141940, Note_off_c, 9, 42, 64
9, 141940, Note_off_c, 9, 35, 64
9, 142080, Note_on_c, 9, 35, 90
9, 142080, Note_on_c, 9, 42, 90
9, 142180, Note_off_c, 9, 42, 64
9, 142180, Note_off_c, 9, 35, 64
9, 142320, Note_on_c, 9, 42, 70
9, 142420, Note_off_c, 9, 42, 64
9, 142560, Note_on_c, 9, 38, 100
9, 142560, Note_on_c, 9, 42, 115
9, 142660, Note_off_c, 9, 42, 64
9, 142660, Note_off_c, 9, 38, 64
9, 142800, Note_on_c, 9, 35, 80
9, 142800, Note_on_c, 9, 42, 70
9, 142900, Note_off_c, 9, 42, 64
9, 142900, Note_off_c, 9, 35, 64
9, 143040, Note_on_c, 9, 35, 100
9, 143040, Note_on_c, 9, 42, 90
9, 143140, Note_off_c, 9, 42, 64
9, 143140, Note_off_c, 9, 35, 64
9, 143280, Note_on_c, 9, 42, 70
9, 143380, Note_off_c, 9, 42, 64
9, 143520, Note_on_c, 9, 38, 100
9, 143520, Note_on_c, 9, 42, 100
9, 143620, Note_off_c, 9, 42, 64
9, 143620, Note_off_c, 9, 38, 64
9, 143760, Note_on_c, 9, 42, 70
9, 143860, Note_off_c, 9, 42, 64
9, 144000, Note_on_c, 9, 35, 90
9, 144000, Note_on_c, 9, 42, 90
9, 144100, Note_off_c, 9, 42, 64
9, 144100, Note_off_c, 9, 35, 64
9, 144240, Note_on_c, 9, 42, 70
9, 144340, Note_off_c, 9, 42, 64
9, 144480, Note_on_c, 9, 38, 100
9, 144480, Note_on_c, 9, 42, 115
9, 144580, Note_off_c, 9, 42, 64
9, 144580, Note_off_c, 9, 38, 64
9, 144720, Note_on_c, 9, 35, 80
9, 144720, Note_on_c, 9, 42, 75
9, 144820, Note_off_c, 9, 42, 64
9, 144820, Note_off_c, 9, 35, 64
9, 144960, Note_on_c, 9, 35, 100
9, 144960, Note_on_c, 9, 42, 90
9, 145060, Note_off_c, 9, 42, 64
9, 145060, Note_off_c, 9, 35, 64
9, 145200, Note_on_c, 9, 42, 70
9, 145300, Note_off_c, 9, 42, 64
9, 145440, Note_on_c, 9, 38, 100
9, 145440, Note_on_c, 9, 42, 100
9, 145440, Note_on_c, 9, 54, 115
9, 145540, Note_off_c, 9, 54, 64
9, 145540, Note_off_c, 9, 42, 64
9, 145540, Note_off_c, 9, 38, 64
9, 145680, Note_on_c, 9, 35, 70
9, 145680, Note_on_c, 9, 46, 80
9, 145780, Note_off_c, 9, 46, 64
9, 145780, Note_off_c, 9, 35, 64
9, 145920, Note_on_c, 9, 35, 100
9, 145920, Note_on_c, 9, 42, 90
9, 146020, Note_off_c, 9, 42, 64
9, 146020, Note_off_c, 9, 35, 64
9, 146160, Note_on_c, 9, 42, 70
9, 146260, Note_off_c, 9, 42, 64
9, 146400, Note_on_c, 9, 38, 100
9, 146400, Note_on_c, 9, 46, 100
9, 146500, Note_off_c, 9, 46, 64
9, 146500, Note_off_c, 9, 38, 64
9, 146640, Note_on_c, 9, 35, 100
9, 146740, Note_off_c, 9, 35, 64
9, 146880, Note_on_c, 9, 48, 115
9, 146980, Note_off_c, 9, 48, 64
9, 147240, Note_on_c, 9, 45, 90
9, 147340, Note_off_c, 9, 45, 64
9, 147360, Note_on_c, 9, 45, 115
9, 147460, Note_off_c, 9, 45, 64
9, 147480, Note_on_c, 9, 41, 100
9, 147580, Note_off_c, 9, 41, 64
9, 147600, Note_on_c, 9, 41, 115
9, 147700, Note_off_c, 9, 41, 64
9, 147840, Note_on_c, 9, 35, 90
9, 147840, Note_on_c, 9, 42, 90
9, 147840, Note_on_c, 9, 49, 90
9, 147940, Note_off_c, 9, 49, 64
9, 147940, Note_off_c, 9, 42, 64
9, 147940, Note_off_c, 9, 35, 64
9, 148080, Note_on_c, 9, 42, 70
9, 148180, Note_off_c, 9, 42, 64
9, 148320, Note_on_c, 9, 38, 100
9, 148320, Note_on_c, 9, 42, 115
9, 148420, Note_off_c, 9, 42, 64
9, 148420, Note_off_c, 9, 38, 64
9, 148560, Note_on_c, 9, 35, 80
9, 148560, Note_on_c, 9, 42, 70
9, 148660, Note_off_c, 9, 42, 64
9, 148660, Note_off_c, 9, 35, 64
9, 148800, Note_on_c, 9, 35, 100
9, 148800, Note_on_c, 9, 42, 90
9, 148900, Note_off_c, 9, 42, 64
9, 148900, Note_off_c, 9, 35, 64
9, 149040, Note_on_c, 9, 42, 70
9, 149140, Note_off_c, 9, 42, 64
9, 149280, Note_on_c, 9, 38, 100
9, 149280, Note_on_c, 9, 42, 100
9, 149380, Note_off_c, 9, 42, 64
9, 149380, Note_off_c, 9, 38, 64
9, 149520, Note_on_c, 9, 42, 70
9, 149620, Note_off_c, 9, 42, 64
9, 149760, Note_on_c, 9, 35, 90
9, 149760, Note_on_c, 9, 42, 90
9, 149860, Note_off_c, 9, 42, 64
9, 149860, Note_off_c, 9, 35, 64
9, 150000, Note_on_c, 9, 42, 70
9, 150100, Note_off_c, 9, 42, 64
9, 150240, Note_on_c, 9, 38, 100
9, 150240, Note_on_c, 9, 42, 115
9, 150340, Note_off_c, 9, 42, 64
9, 150340, Note_off_c, 9, 38, 64
9, 150480, Note_on_c, 9, 35, 80
9, 150480, Note_on_c, 9, 42, 80
9, 150580, Note_off_c, 9, 42, 64
9, 150580, Note_off_c, 9, 35, 64
9, 150720, Note_on_c, 9, 35, 100
9, 150720, Note_on_c, 9, 42, 90
9, 150820, Note_off_c, 9, 42, 64
9, 150820, Note_off_c, 9, 35, 64
9, 150960, Note_on_c, 9, 42, 70
9, 151060, Note_off_c, 9, 42, 64
9, 151200, Note_on_c, 9, 38, 100
9, 151200, Note_on_c, 9, 42, 100
9, 151200, Note_on_c, 9, 54, 115
9, 151300, Note_off_c, 9, 54, 64
9, 151300, Note_off_c, 9, 42, 64
9, 151300, Note_off_c, 9, 38, 64
9, 151440, Note_on_c, 9, 35, 70
9, 151440, Note_on_c, 9, 42, 70
9, 151540, Note_off_c, 9, 42, 64
9, 151540, Note_off_c, 9, 35, 64
9, 151680, Note_on_c, 9, 35, 90
9, 151680, Note_on_c, 9, 42, 90
9, 151780, Note_off_c, 9, 42, 64
9, 151780, Note_off_c, 9, 35, 64
9, 151920, Note_on_c, 9, 42, 70
9, 152020, Note_off_c, 9, 42, 64
9, 152160, Note_on_c, 9, 38, 100
9, 152160, Note_on_c, 9, 42, 115
9, 152260, Note_off_c, 9, 42, 64
9, 152260, Note_off_c, 9, 38, 64
9, 152400, Note_on_c, 9, 35, 80
9, 152400, Note_on_c, 9, 42, 70
9, 152500, Note_off_c, 9, 42, 64
9, 152500, Note_off_c, 9, 35, 64
9, 152640, Note_on_c, 9, 35, 100
9, 152640, Note_on_c, 9, 42, 90
9, 152740, Note_off_c, 9, 42, 64
9, 152740, Note_off_c, 9, 35, 64
9, 152880, Note_on_c, 9, 42, 70
9, 152980, Note_off_c, 9, 42, 64
9, 153120, Note_on_c, 9, 38, 100
9, 153120, Note_on_c, 9, 42, 100
9, 153220, Note_off_c, 9, 42, 64
9, 153220, Note_off_c, 9, 38, 64
9, 153360, Note_on_c, 9, 42, 70
9, 153460, Note_off_c, 9, 42, 64
9, 153600, Note_on_c, 9, 35, 90
9, 153600, Note_on_c, 9, 42, 90
9, 153700, Note_off_c, 9, 42, 64
9, 153700, Note_off_c, 9, 35, 64
9, 153840, Note_on_c, 9, 42, 70
9, 153940, Note_off_c, 9, 42, 64
9, 154080, Note_on_c, 9, 38, 100
9, 154080, Note_on_c, 9, 42, 115
9, 154180, Note_off_c, 9, 42, 64
9, 154180, Note_off_c, 9, 38, 64
9, 154320, Note_on_c, 9, 35, 80
9, 154320, Note_on_c, 9, 42, 80
9, 154420, Note_off_c, 9, 42, 64
9, 154420, Note_off_c, 9, 35, 64
9, 154560, Note_on_c, 9, 35, 100
9, 154560, Note_on_c, 9, 42, 90
9, 154660, Note_off_c, 9, 42, 64
9, 154660, Note_off_c, 9, 35, 64
9, 154800, Note_on_c, 9, 42, 70
9, 154900, Note_off_c, 9, 42, 64
9, 155040, Note_on_c, 9, 38, 100
9, 155040, Note_on_c, 9, 42, 100
9, 155040, Note_on_c, 9, 54, 115
9, 155140, Note_off_c, 9, 54, 64
9, 155140, Note_off_c, 9, 42, 64
9, 155140, Note_off_c, 9, 38, 64
9, 155280, Note_on_c, 9, 35, 70
9, 155280, Note_on_c, 9, 42, 70
9, 155380, Note_off_c, 9, 42, 64
9, 155380, Note_off_c, 9, 35, 64
9, 155520, Note_on_c, 9, 35, 90
9, 155520, Note_on_c, 9, 42, 100
9, 155620, Note_off_c, 9, 42, 64
9, 155620, Note_off_c, 9, 35, 64
9, 155760, Note_on_c, 9, 42, 70
9, 155860, Note_off_c, 9, 42, 64
9, 156000, Note_on_c, 9, 38, 100
9, 156000, Note_on_c, 9, 42, 115
9, 156100, Note_off_c, 9, 42, 64
9, 156100, Note_off_c, 9, 38, 64
9, 156240, Note_on_c, 9, 35, 80
9, 156240, Note_on_c, 9, 42, 70
9, 156340, Note_off_c, 9, 42, 64
9, 156340, Note_off_c, 9, 35, 64
9, 156480, Note_on_c, 9, 35, 100
9, 156480, Note_on_c, 9, 42, 90
9, 156580, Note_off_c, 9, 42, 64
9, 156580, Note_off_c, 9, 35, 64
9, 156720, Note_on_c, 9, 42, 70
9, 156820, Note_off_c, 9, 42, 64
9, 156960, Note_on_c, 9, 38, 100
9, 156960, Note_on_c, 9, 42, 100
9, 157060, Note_off_c, 9, 42, 64
9, 157060, Note_off_c, 9, 38, 64
9, 157200, Note_on_c, 9, 42, 70
9, 157300, Note_off_c, 9, 42, 64
9, 157440, Note_on_c, 9, 35, 100
9, 157440, Note_on_c, 9, 42, 90
9, 157540, Note_off_c, 9, 42, 64
9, 157540, Note_off_c, 9, 35, 64
9, 157680, Note_on_c, 9, 42, 70
9, 157780, Note_off_c, 9, 42, 64
9, 157920, Note_on_c, 9, 38, 100
9, 157920, Note_on_c, 9, 46, 100
9, 158020, Note_off_c, 9, 46, 64
9, 158020, Note_off_c, 9, 38, 64
9, 158160, Note_on_c, 9, 35, 100
9, 158260, Note_off_c, 9, 35, 64
9, 158400, Note_on_c, 9, 48, 115
9, 158500, Note_off_c, 9, 48, 64
9, 158760, Note_on_c, 9, 45, 90
9, 158860, Note_off_c, 9, 45, 64
9, 158880, Note_on_c, 9, 45, 115
9, 158980, Note_off_c, 9, 45, 64
9, 159000, Note_on_c, 9, 41, 100
9, 159100, Note_off_c, 9, 41, 64
9, 159120, Note_on_c, 9, 41, 115
9, 159220, Note_off_c, 9, 41, 64
9, 159360, Note_on_c, 9, 35, 90
9, 159360, Note_on_c, 9, 42, 90
9, 159360, Note_on_c, 9, 49, 90
9, 159460, Note_off_c, 9, 49, 64
9, 159460, Note_off_c, 9, 42, 64
9, 159460, Note_off_c, 9, 35, 64
9, 159600, Note_on_c, 9, 42, 70
9, 159700, Note_off_c, 9, 42, 64
9, 159840, Note_on_c, 9, 38, 100
9, 159840, Note_on_c, 9, 42, 115
9, 159940, Note_off_c, 9, 42, 64
9, 159940, Note_off_c, 9, 38, 64
9, 160080, Note_on_c, 9, 35, 80
9, 160080, Note_on_c, 9, 42, 70
9, 160180, Note_off_c, 9, 42, 64
9, 160180, Note_off_c, 9, 35, 64
9, 160320, Note_on_c, 9, 35, 100
9, 160320, Note_on_c, 9, 42, 90
9, 160420, Note_off_c, 9, 42, 64
9, 160420, Note_off_c, 9, 35, 64
9, 160560, Note_on_c, 9, 42, 70
9, 160660, Note_off_c, 9, 42, 64
9, 160800, Note_on_c, 9, 38, 100
9, 160800, Note_on_c, 9, 42, 100
9, 160900, Note_off_c, 9, 42, 64
9, 160900, Note_off_c, 9, 38, 64
9, 161040, Note_on_c, 9, 42, 70
9, 161140, Note_off_c, 9, 42, 64
9, 161280, Note_on_c, 9, 35, 90
9, 161280, Note_on_c, 9, 42, 90
9, 161380, Note_off_c, 9, 42, 64
9, 161380, Note_off_c, 9, 35, 64
9, 161520, Note_on_c, 9, 42, 70
9, 161620, Note_off_c, 9, 42, 64
9, 161760, Note_on_c, 9, 38, 100
9, 161760, Note_on_c, 9, 42, 115
9, 161860, Note_off_c, 9, 42, 64
9, 161860, Note_off_c, 9, 38, 64
9, 162000, Note_on_c, 9, 35, 80
9, 162000, Note_on_c, 9, 42, 75
9, 162100, Note_off_c, 9, 42, 64
9, 162100, Note_off_c, 9, 35, 64
9, 162240, Note_on_c, 9, 35, 100
9, 162240, Note_on_c, 9, 42, 90
9, 162340, Note_off_c, 9, 42, 64
9, 162340, Note_off_c, 9, 35, 64
9, 162480, Note_on_c, 9, 42, 70
9, 162580, Note_off_c, 9, 42, 64
9, 162720, Note_on_c, 9, 38, 100
9, 162720, Note_on_c, 9, 42, 100
9, 162720, Note_on_c, 9, 54, 115
9, 162820, Note_off_c, 9, 54, 64
9, 162820, Note_off_c, 9, 42, 64
9, 162820, Note_off_c, 9, 38, 64
9, 162960, Note_on_c, 9, 35, 70
9, 162960, Note_on_c, 9, 46, 80
9, 163060, Note_off_c, 9, 46, 64
9, 163060, Note_off_c, 9, 35, 64
9, 163200, Note_on_c, 9, 35, 90
9, 163200, Note_on_c, 9, 42, 90
9, 163300, Note_off_c, 9, 42, 64
9, 163300, Note_off_c, 9, 35, 64
9, 163440, Note_on_c, 9, 42, 70
9, 163540, Note_off_c, 9, 42, 64
9, 163680, Note_on_c, 9, 38, 100
9, 163680, Note_on_c, 9, 42, 115
9, 163780, Note_off_c, 9, 42, 64
9, 163780, Note_off_c, 9, 38, 64
9, 163920, Note_on_c, 9, 35, 80
9, 163920, Note_on_c, 9, 42, 70
9, 164020, Note_off_c, 9, 42, 64
9, 164020, Note_off_c, 9, 35, 64
9, 164160, Note_on_c, 9, 35, 100
9, 164160, Note_on_c, 9, 42, 90
9, 164260, Note_off_c, 9, 42, 64
9, 164260, Note_off_c, 9, 35, 64
9, 164400, Note_on_c, 9, 42, 70
9, 164500, Note_off_c, 9, 42, 64
9, 164640, Note_on_c, 9, 38, 100
9, 164640, Note_on_c, 9, 42, 100
9, 164740, Note_off_c, 9, 42, 64
9, 164740, Note_off_c, 9, 38, 64
9, 164880, Note_on_c, 9, 42, 70
9, 164980, Note_off_c, 9, 42, 64
9, 165120, Note_on_c, 9, 35, 90
9, 165120, Note_on_c, 9, 42, 90
9, 165220, Note_off_c, 9, 42, 64
9, 165220, Note_off_c, 9, 35, 64
9, 165360, Note_on_c, 9, 42, 70
9, 165460, Note_off_c, 9, 42, 64
9, 165600, Note_on_c, 9, 38, 100
9, 165600, Note_on_c, 9, 42, 115
9, 165700, Note_off_c, 9, 42, 64
9, 165700, Note_off_c, 9, 38, 64
9, 165840, Note_on_c, 9, 35, 80
9, 165840, Note_on_c, 9, 42, 80
9, 165940, Note_off_c, 9, 42, 64
9, 165940, Note_off_c, 9, 35, 64
9, 166080, Note_on_c, 9, 35, 100
9, 166080, Note_on_c, 9, 42, 90
9, 166180, Note_off_c, 9, 42, 64
9, 166180, Note_off_c, 9, 35, 64
9, 166320, Note_on_c, 9, 42, 70
9, 166420, Note_off_c, 9, 42, 64
9, 166560, Note_on_c, 9, 38, 100
9, 166560, Note_on_c, 9, 42, 100
9, 166560, Note_on_c, 9, 54, 115
9, 166660, Note_off_c, 9, 54, 64
9, 166660, Note_off_c, 9, 42, 64
9, 166660, Note_off_c, 9, 38, 64
9, 166800, Note_on_c, 9, 35, 70
9, 166800, Note_on_c, 9, 42, 70
9, 166900, Note_off_c, 9, 42, 64
9, 166900, Note_off_c, 9, 35, 64
9, 167040, Note_on_c, 9, 35, 90
9, 167040, Note_on_c, 9, 42, 90
9, 167140, Note_off_c, 9, 42, 64
9, 167140, Note_off_c, 9, 35, 64
9, 167280, Note_on_c, 9, 42, 70
9, 167380, Note_off_c, 9, 42, 64
9, 167520, Note_on_c, 9, 38, 100
9, 167520, Note_on_c, 9, 42, 115
9, 167620, Note_off_c, 9, 42, 64
9, 167620, Note_off_c, 9, 38, 64
9, 167760, Note_on_c, 9, 35, 80
9, 167760, Note_on_c, 9, 42, 70
9, 167860, Note_off_c, 9, 42, 64
9, 167860, Note_off_c, 9, 35, 64
9, 168000, Note_on_c, 9, 35, 100
9, 168000, Note_on_c, 9, 42, 90
9, 168100, Note_off_c, 9, 42, 64
9, 168100, Note_off_c, 9, 35, 64
9, 168240, Note_on_c, 9, 42, 70
9, 168340, Note_off_c, 9, 42, 64
9, 168480, Note_on_c, 9, 38, 100
9, 168480, Note_on_c, 9, 42, 100
9, 168580, Note_off_c, 9, 42, 64
9, 168580, Note_off_c, 9, 38, 64
9, 168720, Note_on_c, 9, 42, 70
9, 168820, Note_off_c, 9, 42, 64
9, 168960, Note_on_c, 9, 35, 90
9, 168960, Note_on_c, 9, 42, 90
9, 169060, Note_off_c, 9, 42, 64
9, 169060, Note_off_c, 9, 35, 64
9, 169200, Note_on_c, 9, 42, 70
9, 169300, Note_off_c, 9, 42, 64
9, 169440, Note_on_c, 9, 38, 100
9, 169440, Note_on_c, 9, 42, 115
9, 169540, Note_off_c, 9, 42, 64
9, 169540, Note_off_c, 9, 38, 64
9, 169680, Note_on_c, 9, 35, 80
9, 169680, Note_on_c, 9, 42, 75
9, 169780, Note_off_c, 9, 42, 64
9, 169780, Note_off_c, 9, 35, 64
9, 169920, Note_on_c, 9, 35, 100
9, 169920, Note_on_c, 9, 42, 90
9, 170020, Note_off_c, 9, 42, 64
9, 170020, Note_off_c, 9, 35, 64
9, 170160, Note_on_c, 9, 42, 70
9, 170260, Note_off_c, 9, 42, 64
9, 170400, Note_on_c, 9, 38, 100
9, 170400, Note_on_c, 9, 42, 100
9, 170400, Note_on_c, 9, 54, 115
9, 170500, Note_off_c, 9, 54, 64
9, 170500, Note_off_c, 9, 42, 64
9, 170500, Note_off_c, 9, 38, 64
9, 170640, Note_on_c, 9, 35, 70
9, 170640, Note_on_c, 9, 46, 80
9, 170740, Note_off_c, 9, 46, 64
9, 170740, Note_off_c, 9, 35, 64
9, 170880, Note_on_c, 9, 35, 90
9, 170880, Note_on_c, 9, 42, 90
9, 170980, Note_off_c, 9, 42, 64
9, 170980, Note_off_c, 9, 35, 64
9, 171000, Note_on_c, 9, 42, 60
9, 171100, Note_off_c, 9, 42, 64
9, 171120, Note_on_c, 9, 42, 70
9, 171220, Note_off_c, 9, 42, 64
9, 171360, Note_on_c, 9, 38, 100
9, 171360, Note_on_c, 9, 42, 115
9, 171460, Note_off_c, 9, 42, 64
9, 171460, Note_off_c, 9, 38, 64
9, 171600, Note_on_c, 9, 35, 80
9, 171600, Note_on_c, 9, 42, 70
9, 171700, Note_off_c, 9, 42, 64
9, 171700, Note_off_c, 9, 35, 64
9, 171840, Note_on_c, 9, 35, 100
9, 171840, Note_on_c, 9, 42, 90
9, 171940, Note_off_c, 9, 42, 64
9, 171940, Note_off_c, 9, 35, 64
9, 172080, Note_on_c, 9, 46, 72
9, 172180, Note_off_c, 9, 46, 64
9, 172320, Note_on_c, 9, 38, 100
9, 172320, Note_on_c, 9, 42, 100
9, 172420, Note_off_c, 9, 42, 64
9, 172420, Note_off_c, 9, 38, 64
9, 172560, Note_on_c, 9, 42, 70
9, 172660, Note_off_c, 9, 42, 64
9, 172800, Note_on_c, 9, 35, 90
9, 172800, Note_on_c, 9, 42, 90
9, 172900, Note_off_c, 9, 42, 64
9, 172900, Note_off_c, 9, 35, 64
9, 173040, Note_on_c, 9, 42, 70
9, 173140, Note_off_c, 9, 42, 64
9, 173280, Note_on_c, 9, 38, 100
9, 173280, Note_on_c, 9, 42, 115
9, 173380, Note_off_c, 9, 42, 64
9, 173380, Note_off_c, 9, 38, 64
9, 173520, Note_on_c, 9, 35, 80
9, 173520, Note_on_c, 9, 42, 80
9, 173620, Note_off_c, 9, 42, 64
9, 173620, Note_off_c, 9, 35, 64
9, 173760, Note_on_c, 9, 35, 100
9, 173760, Note_on_c, 9, 42, 90
9, 173860, Note_off_c, 9, 42, 64
9, 173860, Note_off_c, 9, 35, 64
9, 174000, Note_on_c, 9, 42, 70
9, 174100, Note_off_c, 9, 42, 64
9, 174240, Note_on_c, 9, 38, 100
9, 174240, Note_on_c, 9, 42, 100
9, 174240, Note_on_c, 9, 54, 115
9, 174340, Note_off_c, 9, 54, 64
9, 174340, Note_off_c, 9, 42, 64
9, 174340, Note_off_c, 9, 38, 64
9, 174480, Note_on_c, 9, 35, 70
9, 174480, Note_on_c, 9, 42, 70
9, 174580, Note_off_c, 9, 42, 64
9, 174580, Note_off_c, 9, 35, 64
9, 174720, Note_on_c, 9, 35, 90
9, 174720, Note_on_c, 9, 42, 90
9, 174820, Note_off_c, 9, 42, 64
9, 174820, Note_off_c, 9, 35, 64
9, 174960, Note_on_c, 9, 42, 70
9, 175060, Note_off_c, 9, 42, 64
9, 175200, Note_on_c, 9, 38, 100
9, 175200, Note_on_c, 9, 42, 115
9, 175300, Note_off_c, 9, 42, 64
9, 175300, Note_off_c, 9, 38, 64
9, 175440, Note_on_c, 9, 35, 80
9, 175440, Note_on_c, 9, 42, 70
9, 175540, Note_off_c, 9, 42, 64
9, 175540, Note_off_c, 9, 35, 64
9, 175680, Note_on_c, 9, 35, 100
9, 175680, Note_on_c, 9, 42, 90
9, 175780, Note_off_c, 9, 42, 64
9, 175780, Note_off_c, 9, 35, 64
9, 175920, Note_on_c, 9, 38, 90
9, 176020, Note_off_c, 9, 38, 64
9, 176040, Note_on_c, 9, 38, 60
9, 176140, Note_off_c, 9, 38, 64
9, 176160, Note_on_c, 9, 38, 100
9, 176260, Note_off_c, 9, 38, 64
9, 176280, Note_on_c, 9, 38, 70
9, 176380, Note_off_c, 9, 38, 64
9, 176400, Note_on_c, 9, 38, 100
9, 176500, Note_off_c, 9, 38, 64
9, 176520, Note_on_c, 9, 38, 115
9, 176620, Note_off_c, 9, 38, 64
9, 176640, Note_on_c, 9, 35, 90
9, 176640, Note_on_c, 9, 42, 90
9, 176640, Note_on_c, 9, 49, 90
9, 176740, Note_off_c, 9, 49, 64
9, 176740, Note_off_c, 9, 42, 64
9, 176740, Note_off_c, 9, 35, 64
9, 176880, Note_on_c, 9, 42, 70
9, 176980, Note_off_c, 9, 42, 64
9, 177120, Note_on_c, 9, 38, 100
9, 177120, Note_on_c, 9, 42, 115
9, 177220, Note_off_c, 9, 42, 64
9, 177220, Note_off_c, 9, 38, 64
9, 177360, Note_on_c, 9, 35, 80
9, 177360, Note_on_c, 9, 42, 70
9, 177460, Note_off_c, 9, 42, 64
9, 177460, Note_off_c, 9, 35, 64
9, 177600, Note_on_c, 9, 35, 100
9, 177600, Note_on_c, 9, 42, 90
9, 177700, Note_off_c, 9, 42, 64
9, 177700, Note_off_c, 9, 35, 64
9, 177840, Note_on_c, 9, 42, 70
9, 177940, Note_off_c, 9, 42, 64
9, 178080, Note_on_c, 9, 38, 100
9, 178080, Note_on_c, 9, 42, 100
9, 178180, Note_off_c, 9, 42, 64
9, 178180, Note_off_c, 9, 38, 64
9, 178320, Note_on_c, 9, 42, 70
9, 178420, Note_off_c, 9, 42, 64
9, 178560, Note_on_c, 9, 35, 90
9, 178560, Note_on_c, 9, 42, 90
9, 178660, Note_off_c, 9, 42, 64
9, 178660, Note_off_c, 9, 35, 64
9, 178800, Note_on_c, 9, 42, 70
9, 178900, Note_off_c, 9, 42, 64
9, 179040, Note_on_c, 9, 38, 100
9, 179040, Note_on_c, 9, 42, 115
9, 179140, Note_off_c, 9, 42, 64
9, 179140, Note_off_c, 9, 38, 64
9, 179280, Note_on_c, 9, 35, 80
9, 179280, Note_on_c, 9, 42, 75
9, 179380, Note_off_c, 9, 42, 64
9, 179380, Note_off_c, 9, 35, 64
9, 179520, Note_on_c, 9, 35, 100
9, 179520, Note_on_c, 9, 42, 90
9, 179620, Note_off_c, 9, 42, 64
9, 179620, Note_off_c, 9, 35, 64
9, 179760, Note_on_c, 9, 42, 70
9, 179860, Note_off_c, 9, 42, 64
9, 180000, Note_on_c, 9, 38, 100
9, 180000, Note_on_c, 9, 42, 100
9, 180000, Note_on_c, 9, 54, 115
9, 180100, Note_off_c, 9, 54, 64
9, 180100, Note_off_c, 9, 42, 64
9, 180100, Note_off_c, 9, 38, 64
9, 180240, Note_on_c, 9, 35, 70
9, 180240, Note_on_c, 9, 46, 80
9, 180340, Note_off_c, 9, 46, 64
9, 180340, Note_off_c, 9, 35, 64
9, 180480, Note_on_c, 9, 35, 90
9, 180480, Note_on_c, 9, 42, 90
9, 180580, Note_off_c, 9, 42, 64
9, 180580, Note_off_c, 9, 35, 64
9, 180600, Note_on_c, 9, 42, 60
9, 180700, Note_off_c, 9, 42, 64
9, 180720, Note_on_c, 9, 42, 70
9, 180820, Note_off_c, 9, 42, 64
9, 180960, Note_on_c, 9, 38, 100
9, 180960, Note_on_c, 9, 42, 115
9, 181060, Note_off_c, 9, 42, 64
9, 181060, Note_off_c, 9, 38, 64
9, 181200, Note_on_c, 9, 35, 80
9, 181200, Note_on_c, 9, 42, 70
9, 181300, Note_off_c, 9, 42, 64
9, 181300, Note_off_c, 9, 35, 64
9, 181440, Note_on_c, 9, 35, 100
9, 181440, Note_on_c, 9, 42, 90
9, 181540, Note_off_c, 9, 42, 64
9, 181540, Note_off_c, 9, 35, 64
9, 181680, Note_on_c, 9, 42, 70
9, 181780, Note_off_c, 9, 42, 64
9, 181920, Note_on_c, 9, 38, 100
9, 181920, Note_on_c, 9, 42, 100
9, 182020, Note_off_c, 9, 42, 64
9, 182020, Note_off_c, 9, 38, 64
9, 182160, Note_on_c, 9, 42, 70
9, 182260, Note_off_c, 9, 42, 64
9, 182400, Note_on_c, 9, 35, 90
9, 182400, Note_on_c, 9, 42, 90
9, 182500, Note_off_c, 9, 42, 64
9, 182500, Note_off_c, 9, 35, 64
9, 182640, Note_on_c, 9, 42, 70
9, 182740, Note_off_c, 9, 42, 64
9, 182880, Note_on_c, 9, 38, 100
9, 182880, Note_on_c, 9, 42, 115
9, 182980, Note_off_c, 9, 42, 64
9, 182980, Note_off_c, 9, 38, 64
9, 183120, Note_on_c, 9, 35, 80
9, 183120, Note_on_c, 9, 42, 80
9, 183220, Note_off_c, 9, 42, 64
9, 183220, Note_off_c, 9, 35, 64
9, 183360, Note_on_c, 9, 35, 100
9, 183360, Note_on_c, 9, 42, 90
9, 183460, Note_off_c, 9, 42, 64
9, 183460, Note_off_c, 9, 35, 64
9, 183600, Note_on_c, 9, 42, 70
9, 183700, Note_off_c, 9, 42, 64
9, 183840, Note_on_c, 9, 38, 100
9, 183840, Note_on_c, 9, 42, 100
9, 183840, Note_on_c, 9, 54, 115
9, 183940, Note_off_c, 9, 54, 64
9, 183940, Note_off_c, 9, 42, 64
9, 183940, Note_off_c, 9, 38, 64
9, 184080, Note_on_c, 9, 35, 70
9, 184080, Note_on_c, 9, 42, 70
9, 184180, Note_off_c, 9, 42, 64
9, 184180, Note_off_c, 9, 35, 64
9, 184320, Note_on_c, 9, 35, 90
9, 184320, Note_on_c, 9, 42, 100
9, 184420, Note_off_c, 9, 42, 64
9, 184420, Note_off_c, 9, 35, 64
9, 184560, Note_on_c, 9, 42, 70
9, 184660, Note_off_c, 9, 42, 64
9, 184800, Note_on_c, 9, 38, 100
9, 184800, Note_on_c, 9, 42, 115
9, 184900, Note_off_c, 9, 42, 64
9, 184900, Note_off_c, 9, 38, 64
9, 185040, Note_on_c, 9, 35, 80
9, 185040, Note_on_c, 9, 42, 70
9, 185140, Note_off_c, 9, 42, 64
9, 185140, Note_off_c, 9, 35, 64
9, 185280, Note_on_c, 9, 35, 100
9, 185280, Note_on_c, 9, 42, 90
9, 185380, Note_off_c, 9, 42, 64
9, 185380, Note_off_c, 9, 35, 64
9, 185520, Note_on_c, 9, 42, 70
9, 185620, Note_off_c, 9, 42, 64
9, 185760, Note_on_c, 9, 38, 100
9, 185760, Note_on_c, 9, 42, 100
9, 185860, Note_off_c, 9, 42, 64
9, 185860, Note_off_c, 9, 38, 64
9, 186000, Note_on_c, 9, 42, 70
9, 186100, Note_off_c, 9, 42, 64
9, 186240, Note_on_c, 9, 35, 90
9, 186240, Note_on_c, 9, 42, 90
9, 186340, Note_off_c, 9, 42, 64
9, 186340, Note_off_c, 9, 35, 64
9, 186480, Note_on_c, 9, 42, 70
9, 186580, Note_off_c, 9, 42, 64
9, 186720, Note_on_c, 9, 38, 100
9, 186720, Note_on_c, 9, 42, 115
9, 186820, Note_off_c, 9, 42, 64
9, 186820, Note_off_c, 9, 38, 64
9, 186960, Note_on_c, 9, 35, 80
9, 186960, Note_on_c, 9, 42, 70
9, 187060, Note_off_c, 9, 42, 64
9, 187060, Note_off_c, 9, 35, 64
9, 187200, Note_on_c, 9, 35, 100
9, 187200, Note_on_c, 9, 42, 90
9, 187300, Note_off_c, 9, 42, 64
9, 187300, Note_off_c, 9, 35, 64
9, 187440, Note_on_c, 9, 38, 90
9, 187540, Note_off_c, 9, 38, 64
9, 187560, Note_on_c, 9, 38, 60
9, 187660, Note_off_c, 9, 38, 64
9, 187680, Note_on_c, 9, 38, 100
9, 187780, Note_off_c, 9, 38, 64
9, 187800, Note_on_c, 9, 38, 70
9, 187900, Note_off_c, 9, 38, 64
9, 187920, Note_on_c, 9, 38, 100
9, 188020, Note_off_c, 9, 38, 64
9, 188040, Note_on_c, 9, 38, 115
9, 188140, Note_off_c, 9, 38, 64
9, 188160, Note_on_c, 9, 35, 90
9, 188160, Note_on_c, 9, 42, 90
9, 188160, Note_on_c, 9, 49, 90
9, 188260, Note_off_c, 9, 49, 64
9, 188260, Note_off_c, 9, 42, 64
9, 188260, Note_off_c, 9, 35, 64
9, 188400, Note_on_c, 9, 42, 70
9, 188500, Note_off_c, 9, 42, 64
9, 188640, Note_on_c, 9, 38, 100
9, 188640, Note_on_c, 9, 42, 100
9, 188740, Note_off_c, 9, 42, 64
9, 188740, Note_off_c, 9, 38, 64
9, 188880, Note_on_c, 9, 35, 80
9, 188880, Note_on_c, 9, 42, 70
9, 188980, Note_off_c, 9, 42, 64
9, 188980, Note_off_c, 9, 35, 64
9, 189120, Note_on_c, 9, 35, 100
9, 189120, Note_on_c, 9, 42, 90
9, 189220, Note_off_c, 9, 42, 64
9, 189220, Note_off_c, 9, 35, 64
9, 189360, Note_on_c, 9, 42, 70
9, 189460, Note_off_c, 9, 42, 64
9, 189600, Note_on_c, 9, 38, 100
9, 189600, Note_on_c, 9, 42, 100
9, 189700, Note_off_c, 9, 42, 64
9, 189700, Note_off_c, 9, 38, 64
9, 189840, Note_on_c, 9, 35, 70
9, 189840, Note_on_c, 9, 42, 70
9, 189940, Note_off_c, 9, 42, 64
9, 189940, Note_off_c, 9, 35, 64
9, 190080, Note_on_c, 9, 35, 90
9, 190080, Note_on_c, 9, 42, 90
9, 190180, Note_off_c, 9, 42, 64
9, 190180, Note_off_c, 9, 35, 64
9, 190320, Note_on_c, 9, 42, 70
9, 190420, Note_off_c, 9, 42, 64
9, 190560, Note_on_c, 9, 38, 100
9, 190560, Note_on_c, 9, 42, 100
9, 190660, Note_off_c, 9, 42, 64
9, 190660, Note_off_c, 9, 38, 64
9, 190800, Note_on_c, 9, 35, 80
9, 190800, Note_on_c, 9, 42, 100
9, 190900, Note_off_c, 9, 42, 64
9, 190900, Note_off_c, 9, 35, 64
9, 191040, Note_on_c, 9, 35, 100
9, 191040, Note_on_c, 9, 42, 90
9, 191140, Note_off_c, 9, 42, 64
9, 191140, Note_off_c, 9, 35, 64
9, 191280, Note_on_c, 9, 35, 90
9, 191280, Note_on_c, 9, 42, 70
9, 191380, Note_off_c, 9, 42, 64
9, 191380, Note_off_c, 9, 35, 64
9, 191520, Note_on_c, 9, 38, 100
9, 191520, Note_on_c, 9, 42, 100
9, 191620, Note_off_c, 9, 42, 64
9, 191620, Note_off_c, 9, 38, 64
9, 191760, Note_on_c, 9, 35, 70
9, 191760, Note_on_c, 9, 42, 70
9, 191860, Note_off_c, 9, 42, 64
9, 191860, Note_off_c, 9, 35, 64
9, 192000, Note_on_c, 9, 35, 90
9, 192000, Note_on_c, 9, 42, 90
9, 192100, Note_off_c, 9, 42, 64
9, 192100, Note_off_c, 9, 35, 64
9, 192240, Note_on_c, 9, 42, 70
9, 192340, Note_off_c, 9, 42, 64
9, 192480, Note_on_c, 9, 38, 100
9, 192480, Note_on_c, 9, 42, 100
9, 192580, Note_off_c, 9, 42, 64
9, 192580, Note_off_c, 9, 38, 64
9, 192720, Note_on_c, 9, 35, 80
9, 192720, Note_on_c, 9, 42, 70
9, 192820, Note_off_c, 9, 42, 64
9, 192820, Note_off_c, 9, 35, 64
9, 192960, Note_on_c, 9, 35, 100
9, 192960, Note_on_c, 9, 42, 90
9, 193060, Note_off_c, 9, 42, 64
9, 193060, Note_off_c, 9, 35, 64
9, 193200, Note_on_c, 9, 42, 70
9, 193300, Note_off_c, 9, 42, 64
9, 193440, Note_on_c, 9, 38, 100
9, 193440, Note_on_c, 9, 42, 100
9, 193540, Note_off_c, 9, 42, 64
9, 193540, Note_off_c, 9, 38, 64
9, 193680, Note_on_c, 9, 35, 70
9, 193680, Note_on_c, 9, 42, 70
9, 193780, Note_off_c, 9, 42, 64
9, 193780, Note_off_c, 9, 35, 64
9, 193920, Note_on_c, 9, 35, 90
9, 193920, Note_on_c, 9, 42, 90
9, 194020, Note_off_c, 9, 42, 64
9, 194020, Note_off_c, 9, 35, 64
9, 194160, Note_on_c, 9, 42, 70
9, 194260, Note_off_c, 9, 42, 64
9, 194400, Note_on_c, 9, 38, 100
9, 194400, Note_on_c, 9, 42, 100
9, 194500, Note_off_c, 9, 42, 64
9, 194500, Note_off_c, 9, 38, 64
9, 194640, Note_on_c, 9, 35, 80
9, 194640, Note_on_c, 9, 42, 100
9, 194740, Note_off_c, 9, 42, 64
9, 194740, Note_off_c, 9, 35, 64
9, 194880, Note_on_c, 9, 35, 100
9, 194880, Note_on_c, 9, 42, 90
9, 194980, Note_off_c, 9, 42, 64
9, 194980, Note_off_c, 9, 35, 64
9, 195120, Note_on_c, 9, 35, 90
9, 195120, Note_on_c, 9, 42, 70
9, 195220, Note_off_c, 9, 42, 64
9, 195220, Note_off_c, 9, 35, 64
9, 195360, Note_on_c, 9, 38, 100
9, 195360, Note_on_c, 9, 42, 100
9, 195460, Note_off_c, 9, 42, 64
9, 195460, Note_off_c, 9, 38, 64
9, 195600, Note_on_c, 9, 35, 70
9, 195600, Note_on_c, 9, 46, 80
9, 195700, Note_off_c, 9, 46, 64
9, 195700, Note_off_c, 9, 35, 64
9, 195840, Note_on_c, 9, 35, 90
9, 195840, Note_on_c, 9, 42, 90
9, 195940, Note_off_c, 9, 42, 64
9, 195940, Note_off_c, 9, 35, 64
9, 195960, Note_on_c, 9, 42, 40
9, 196060, Note_off_c, 9, 42, 64
9, 196080, Note_on_c, 9, 42, 70
9, 196180, Note_off_c, 9, 42, 64
9, 196320, Note_on_c, 9, 38, 100
9, 196320, Note_on_c, 9, 42, 100
9, 196420, Note_off_c, 9, 42, 64
9, 196420, Note_off_c, 9, 38, 64
9, 196560, Note_on_c, 9, 35, 80
9, 196560, Note_on_c, 9, 42, 70
9, 196660, Note_off_c, 9, 42, 64
9, 196660, Note_off_c, 9, 35, 64
9, 196800, Note_on_c, 9, 35, 100
9, 196800, Note_on_c, 9, 42, 90
9, 196900, Note_off_c, 9, 42, 64
9, 196900, Note_off_c, 9, 35, 64
9, 197040, Note_on_c, 9, 42, 70
9, 197140, Note_off_c, 9, 42, 64
9, 197280, Note_on_c, 9, 38, 100
9, 197280, Note_on_c, 9, 42, 100
9, 197380, Note_off_c, 9, 42, 64
9, 197380, Note_off_c, 9, 38, 64
9, 197520, Note_on_c, 9, 35, 70
9, 197520, Note_on_c, 9, 42, 70
9, 197620, Note_off_c, 9, 42, 64
9, 197620, Note_off_c, 9, 35, 64
9, 197760, Note_on_c, 9, 35, 90
9, 197760, Note_on_c, 9, 42, 90
9, 197860, Note_off_c, 9, 42, 64
9, 197860, Note_off_c, 9, 35, 64
9, 198000, Note_on_c, 9, 42, 70
9, 198100, Note_off_c, 9, 42, 64
9, 198240, Note_on_c, 9, 38, 100
9, 198240, Note_on_c, 9, 42, 100
9, 198340, Note_off_c, 9, 42, 64
9, 198340, Note_off_c, 9, 38, 64
9, 198480, Note_on_c, 9, 35, 80
9, 198480, Note_on_c, 9, 42, 100
9, 198580, Note_off_c, 9, 42, 64
9, 198580, Note_off_c, 9, 35, 64
9, 198720, Note_on_c, 9, 35, 100
9, 198720, Note_on_c, 9, 42, 90
9, 198820, Note_off_c, 9, 42, 64
9, 198820, Note_off_c, 9, 35, 64
9, 198960, Note_on_c, 9, 35, 90
9, 198960, Note_on_c, 9, 42, 70
9, 199060, Note_off_c, 9, 42, 64
9, 199060, Note_off_c, 9, 35, 64
9, 199200, Note_on_c, 9, 38, 100
9, 199200, Note_on_c, 9, 42, 100
9, 199300, Note_off_c, 9, 42, 64
9, 199300, Note_off_c, 9, 38, 64
9, 199440, Note_on_c, 9, 35, 70
9, 199440, Note_on_c, 9, 42, 70
9, 199540, Note_off_c, 9, 42, 64
9, 199540, Note_off_c, 9, 35, 64
9, 199680, Note_on_c, 9, 35, 90
9, 199680, Note_on_c, 9, 42, 90
9, 199780, Note_off_c, 9, 42, 64
9, 199780, Note_off_c, 9, 35, 64
9, 199920, Note_on_c, 9, 42, 70
9, 200020, Note_off_c, 9, 42, 64
9, 200160, Note_on_c, 9, 38, 100
9, 200160, Note_on_c, 9, 42, 100
9, 200260, Note_off_c, 9, 42, 64
9, 200260, Note_off_c, 9, 38, 64
9, 200400, Note_on_c, 9, 35, 80
9, 200400, Note_on_c, 9, 42, 70
9, 200500, Note_off_c, 9, 42, 64
9, 200500, Note_off_c, 9, 35, 64
9, 200640, Note_on_c, 9, 35, 100
9, 200640, Note_on_c, 9, 42, 90
9, 200740, Note_off_c, 9, 42, 64
9, 200740, Note_off_c, 9, 35, 64
9, 200880, Note_on_c, 9, 42, 70
9, 200980, Note_off_c, 9, 42, 64
9, 201120, Note_on_c, 9, 38, 100
9, 201120, Note_on_c, 9, 42, 100
9, 201220, Note_off_c, 9, 42, 64
9, 201220, Note_off_c, 9, 38, 64
9, 201360, Note_on_c, 9, 35, 70
9, 201360, Note_on_c, 9, 42, 70
9, 201460, Note_off_c, 9, 42, 64
9, 201460, Note_off_c, 9, 35, 64
9, 201600, Note_on_c, 9, 35, 100
9, 201600, Note_on_c, 9, 42, 90
9, 201700, Note_off_c, 9, 42, 64
9, 201700, Note_off_c, 9, 35, 64
9, 201840, Note_on_c, 9, 42, 70
9, 201940, Note_off_c, 9, 42, 64
9, 202080, Note_on_c, 9, 38, 100
9, 202080, Note_on_c, 9, 46, 100
9, 202180, Note_off_c, 9, 46, 64
9, 202180, Note_off_c, 9, 38, 64
9, 202320, Note_on_c, 9, 35, 100
9, 202420, Note_off_c, 9, 35, 64
9, 202560, Note_on_c, 9, 48, 115
9, 202660, Note_off_c, 9, 48, 64
9, 202920, Note_on_c, 9, 45, 90
9, 203020, Note_off_c, 9, 45, 64
9, 203040, Note_on_c, 9, 45, 115
9, 203140, Note_off_c, 9, 45, 64
9, 203160, Note_on_c, 9, 41, 100
9, 203260, Note_off_c, 9, 41, 64
9, 203280, Note_on_c, 9, 41, 115
9, 203380, Note_off_c, 9, 41, 64
9, 203520, Note_on_c, 9, 35, 90
9, 203520, Note_on_c, 9, 42, 90
9, 203520, Note_on_c, 9, 49, 90
9, 203620, Note_off_c, 9, 49, 64
9, 203620, Note_off_c, 9, 42, 64
9, 203620, Note_off_c, 9, 35, 64
9, 203760, Note_on_c, 9, 42, 70
9, 203860, Note_off_c, 9, 42, 64
9, 204000, Note_on_c, 9, 38, 100
9, 204000, Note_on_c, 9, 42, 100
9, 204100, Note_off_c, 9, 42, 64
9, 204100, Note_off_c, 9, 38, 64
9, 204240, Note_on_c, 9, 35, 80
9, 204240, Note_on_c, 9, 42, 70
9, 204340, Note_off_c, 9, 42, 64
9, 204340, Note_off_c, 9, 35, 64
9, 204480, Note_on_c, 9, 35, 100
9, 204480, Note_on_c, 9, 42, 90
9, 204580, Note_off_c, 9, 42, 64
9, 204580, Note_off_c, 9, 35, 64
9, 204720, Note_on_c, 9, 42, 70
9, 204820, Note_off_c, 9, 42, 64
9, 204960, Note_on_c, 9, 38, 100
9, 204960, Note_on_c, 9, 42, 100
9, 205060, Note_off_c, 9, 42, 64
9, 205060, Note_off_c, 9, 38, 64
9, 205200, Note_on_c, 9, 35, 70
9, 205200, Note_on_c, 9, 42, 70
9, 205300, Note_off_c, 9, 42, 64
9, 205300, Note_off_c, 9, 35, 64
9, 205440, Note_on_c, 9, 35, 90
9, 205440, Note_on_c, 9, 42, 90
9, 205540, Note_off_c, 9, 42, 64
9, 205540, Note_off_c, 9, 35, 64
9, 205680, Note_on_c, 9, 42, 70
9, 205780, Note_off_c, 9, 42, 64
9, 205920, Note_on_c, 9, 38, 100
9, 205920, Note_on_c, 9, 42, 100
9, 206020, Note_off_c, 9, 42, 64
9, 206020, Note_off_c, 9, 38, 64
9, 206160, Note_on_c, 9, 35, 80
9, 206160, Note_on_c, 9, 42, 100
9, 206260, Note_off_c, 9, 42, 64
9, 206260, Note_off_c, 9, 35, 64
9, 206400, Note_on_c, 9, 35, 100
9, 206400, Note_on_c, 9, 42, 90
9, 206500, Note_off_c, 9, 42, 64
9, 206500, Note_off_c, 9, 35, 64
9, 206640, Note_on_c, 9, 35, 90
9, 206640, Note_on_c, 9, 42, 70
9, 206740, Note_off_c, 9, 42, 64
9, 206740, Note_off_c, 9, 35, 64
9, 206880, Note_on_c, 9, 38, 100
9, 206880, Note_on_c, 9, 42, 100
9, 206980, Note_off_c, 9, 42, 64
9, 206980, Note_off_c, 9, 38, 64
9, 207120, Note_on_c, 9, 35, 70
9, 207120, Note_on_c, 9, 42, 70
9, 207220, Note_off_c, 9, 42, 64
9, 207220, Note_off_c, 9, 35, 64
9, 207360, Note_on_c, 9, 35, 90
9, 207360, Note_on_c, 9, 42, 90
9, 207460, Note_off_c, 9, 42, 64
9, 207460, Note_off_c, 9, 35, 64
9, 207600, Note_on_c, 9, 42, 70
9, 207700, Note_off_c, 9, 42, 64
9, 207840, Note_on_c, 9, 38, 100
9, 207840, Note_on_c, 9, 42, 100
9, 207940, Note_off_c, 9, 42, 64
9, 207940, Note_off_c, 9, 38, 64
9, 208080, Note_on_c, 9, 35, 80
9, 208080, Note_on_c, 9, 42, 70
9, 208180, Note_off_c, 9, 42, 64
9, 208180, Note_off_c, 9, 35, 64
9, 208320, Note_on_c, 9, 35, 100
9, 208320, Note_on_c, 9, 42, 90
9, 208420, Note_off_c, 9, 42, 64
9, 208420, Note_off_c, 9, 35, 64
9, 208560, Note_on_c, 9, 42, 70
9, 208660, Note_off_c, 9, 42, 64
9, 208800, Note_on_c, 9, 38, 100
9, 208800, Note_on_c, 9, 42, 100
9, 208900, Note_off_c, 9, 42, 64
9, 208900, Note_off_c, 9, 38, 64
9, 209040, Note_on_c, 9, 35, 70
9, 209040, Note_on_c, 9, 42, 70
9, 209140, Note_off_c, 9, 42, 64
9, 209140, Note_off_c, 9, 35, 64
9, 209280, Note_on_c, 9, 35, 90
9, 209280, Note_on_c, 9, 42, 90
9, 209380, Note_off_c, 9, 42, 64
9, 209380, Note_off_c, 9, 35, 64
9, 209520, Note_on_c, 9, 42, 70
9, 209620, Note_off_c, 9, 42, 64
9, 209760, Note_on_c, 9, 38, 100
9, 209760, Note_on_c, 9, 42, 100
9, 209860, Note_off_c, 9, 42, 64
9, 209860, Note_off_c, 9, 38, 64
9, 210000, Note_on_c, 9, 35, 80
9, 210000, Note_on_c, 9, 42, 100
9, 210100, Note_off_c, 9, 42, 64
9, 210100, Note_off_c, 9, 35, 64
9, 210240, Note_on_c, 9, 35, 100
9, 210240, Note_on_c, 9, 42, 90
9, 210340, Note_off_c, 9, 42, 64
9, 210340, Note_off_c, 9, 35, 64
9, 210480, Note_on_c, 9, 35, 90
9, 210480, Note_on_c, 9, 42, 70
9, 210580, Note_off_c, 9, 42, 64
9, 210580, Note_off_c, 9, 35, 64
9, 210720, Note_on_c, 9, 38, 100
9, 210720, Note_on_c, 9, 42, 100
9, 210820, Note_off_c, 9, 42, 64
9, 210820, Note_off_c, 9, 38, 64
9, 210960, Note_on_c, 9, 35, 70
9, 210960, Note_on_c, 9, 42, 70
9, 211060, Note_off_c, 9, 42, 64
9, 211060, Note_off_c, 9, 35, 64
9, 211200, Note_on_c, 9, 35, 90
9, 211200, Note_on_c, 9, 42, 90
9, 211300, Note_off_c, 9, 42, 64
9, 211300, Note_off_c, 9, 35, 64
9, 211320, Note_on_c, 9, 42, 70
9, 211420, Note_off_c, 9, 42, 64
9, 211440, Note_on_c, 9, 42, 70
9, 211540, Note_off_c, 9, 42, 64
9, 211680, Note_on_c, 9, 38, 100
9, 211680, Note_on_c, 9, 42, 100
9, 211780, Note_off_c, 9, 42, 64
9, 211780, Note_off_c, 9, 38, 64
9, 211920, Note_on_c, 9, 35, 80
9, 211920, Note_on_c, 9, 42, 70
9, 212020, Note_off_c, 9, 42, 64
9, 212020, Note_off_c, 9, 35, 64
9, 212160, Note_on_c, 9, 35, 100
9, 212160, Note_on_c, 9, 42, 90
9, 212260, Note_off_c, 9, 42, 64
9, 212260, Note_off_c, 9, 35, 64
9, 212400, Note_on_c, 9, 42, 70
9, 212500, Note_off_c, 9, 42, 64
9, 212640, Note_on_c, 9, 38, 100
9, 212640, Note_on_c, 9, 42, 100
9, 212740, Note_off_c, 9, 42, 64
9, 212740, Note_off_c, 9, 38, 64
9, 212880, Note_on_c, 9, 35, 70
9, 212880, Note_on_c, 9, 42, 70
9, 212980, Note_off_c, 9, 42, 64
9, 212980, Note_off_c, 9, 35, 64
9, 213000, Note_on_c, 9, 46, 70
9, 213100, Note_off_c, 9, 46, 64
9, 213120, Note_on_c, 9, 35, 90
9, 213120, Note_on_c, 9, 42, 90
9, 213220, Note_off_c, 9, 42, 64
9, 213220, Note_off_c, 9, 35, 64
9, 213360, Note_on_c, 9, 42, 70
9, 213460, Note_off_c, 9, 42, 64
9, 213600, Note_on_c, 9, 38, 100
9, 213600, Note_on_c, 9, 42, 100
9, 213700, Note_off_c, 9, 42, 64
9, 213700, Note_off_c, 9, 38, 64
9, 213840, Note_on_c, 9, 35, 80
9, 213840, Note_on_c, 9, 42, 100
9, 213940, Note_off_c, 9, 42, 64
9, 213940, Note_off_c, 9, 35, 64
9, 214080, Note_on_c, 9, 35, 100
9, 214080, Note_on_c, 9, 42, 90
9, 214180, Note_off_c, 9, 42, 64
9, 214180, Note_off_c, 9, 35, 64
9, 214320, Note_on_c, 9, 35, 90
9, 214320, Note_on_c, 9, 42, 70
9, 214420, Note_off_c, 9, 42, 64
9, 214420, Note_off_c, 9, 35, 64
9, 214560, Note_on_c, 9, 38, 100
9, 214560, Note_on_c, 9, 42, 100
9, 214660, Note_off_c, 9, 42, 64
9, 214660, Note_off_c, 9, 38, 64
9, 214800, Note_on_c, 9, 35, 70
9, 214800, Note_on_c, 9, 42, 70
9, 214900, Note_off_c, 9, 42, 64
9, 214900, Note_off_c, 9, 35, 64
9, 215040, Note_on_c, 9, 35, 90
9, 215040, Note_on_c, 9, 42, 115
9, 215140, Note_off_c, 9, 42, 64
9, 215140, Note_off_c, 9, 35, 64
9, 215280, Note_on_c, 9, 42, 70
9, 215380, Note_off_c, 9, 42, 64
9, 215520, Note_on_c, 9, 38, 100
9, 215520, Note_on_c, 9, 42, 100
9, 215620, Note_off_c, 9, 42, 64
9, 215620, Note_off_c, 9, 38, 64
9, 215760, Note_on_c, 9, 35, 80
9, 215760, Note_on_c, 9, 42, 70
9, 215860, Note_off_c, 9, 42, 64
9, 215860, Note_off_c, 9, 35, 64
9, 216000, Note_on_c, 9, 35, 100
9, 216000, Note_on_c, 9, 42, 90
9, 216100, Note_off_c, 9, 42, 64
9, 216100, Note_off_c, 9, 35, 64
9, 216240, Note_on_c, 9, 42, 70
9, 216340, Note_off_c, 9, 42, 64
9, 216480, Note_on_c, 9, 38, 100
9, 216480, Note_on_c, 9, 42, 100
9, 216580, Note_off_c, 9, 42, 64
9, 216580, Note_off_c, 9, 38, 64
9, 216720, Note_on_c, 9, 35, 70
9, 216720, Note_on_c, 9, 42, 70
9, 216820, Note_off_c, 9, 42, 64
9, 216820, Note_off_c, 9, 35, 64
9, 216960, Note_on_c, 9, 35, 90
9, 216960, Note_on_c, 9, 42, 90
9, 217060, Note_off_c, 9, 42, 64
9, 217060, Note_off_c, 9, 35, 64
9, 217200, Note_on_c, 9, 42, 70
9, 217300, Note_off_c, 9, 42, 64
9, 217440, Note_on_c, 9, 38, 100
9, 217440, Note_on_c, 9, 42, 100
9, 217540, Note_off_c, 9, 42, 64
9, 217540, Note_off_c, 9, 38, 64
9, 217680, Note_on_c, 9, 35, 80
9, 217680, Note_on_c, 9, 42, 100
9, 217780, Note_off_c, 9, 42, 64
9, 217780, Note_off_c, 9, 35, 64
9, 217920, Note_on_c, 9, 35, 100
9, 217920, Note_on_c, 9, 42, 90
9, 218020, Note_off_c, 9, 42, 64
9, 218020, Note_off_c, 9, 35, 64
9, 218160, Note_on_c, 9, 35, 90
9, 218160, Note_on_c, 9, 42, 70
9, 218260, Note_off_c, 9, 42, 64
9, 218260, Note_off_c, 9, 35, 64
9, 218400, Note_on_c, 9, 38, 100
9, 218400, Note_on_c, 9, 42, 100
9, 218500, Note_off_c, 9, 42, 64
9, 218500, Note_off_c, 9, 38, 64
9, 218640, Note_on_c, 9, 35, 70
9, 218640, Note_on_c, 9, 42, 70
9, 218740, Note_off_c, 9, 42, 64
9, 218740, Note_off_c, 9, 35, 64
9, 218880, Note_on_c, 9, 35, 90
9, 218880, Note_on_c, 9, 42, 90
9, 218980, Note_off_c, 9, 42, 64
9, 218980, Note_off_c, 9, 35, 64
9, 219120, Note_on_c, 9, 42, 70
9, 219220, Note_off_c, 9, 42, 64
9, 219360, Note_on_c, 9, 38, 100
9, 219360, Note_on_c, 9, 42, 100
9, 219460, Note_off_c, 9, 42, 64
9, 219460, Note_off_c, 9, 38, 64
9, 219600, Note_on_c, 9, 35, 80
9, 219600, Note_on_c, 9, 42, 70
9, 219700, Note_off_c, 9, 42, 64
9, 219700, Note_off_c, 9, 35, 64
9, 219840, Note_on_c, 9, 35, 100
9, 219840, Note_on_c, 9, 42, 90
9, 219940, Note_off_c, 9, 42, 64
9, 219940, Note_off_c, 9, 35, 64
9, 220080, Note_on_c, 9, 42, 70
9, 220180, Note_off_c, 9, 42, 64
9, 220320, Note_on_c, 9, 38, 100
9, 220320, Note_on_c, 9, 42, 100
9, 220420, Note_off_c, 9, 42, 64
9, 220420, Note_off_c, 9, 38, 64
9, 220560, Note_on_c, 9, 35, 70
9, 220560, Note_on_c, 9, 42, 70
9, 220660, Note_off_c, 9, 42, 64
9, 220660, Note_off_c, 9, 35, 64
9, 220800, Note_on_c, 9, 35, 90
9, 220800, Note_on_c, 9, 42, 90
9, 220900, Note_off_c, 9, 42, 64
9, 220900, Note_off_c, 9, 35, 64
9, 221040, Note_on_c, 9, 42, 70
9, 221140, Note_off_c, 9, 42, 64
9, 221280, Note_on_c, 9, 38, 100
9, 221280, Note_on_c, 9, 42, 115
9, 221380, Note_off_c, 9, 42, 64
9, 221380, Note_off_c, 9, 38, 64
9, 221520, Note_on_c, 9, 35, 80
9, 221520, Note_on_c, 9, 42, 70
9, 221620, Note_off_c, 9, 42, 64
9, 221620, Note_off_c, 9, 35, 64
9, 221760, Note_on_c, 9, 35, 100
9, 221760, Note_on_c, 9, 38, 100
9, 221760, Note_on_c, 9, 42, 90
9, 221860, Note_off_c, 9, 42, 64
9, 221860, Note_off_c, 9, 38, 64
9, 221860, Note_off_c, 9, 35, 64
9, 221880, Note_on_c, 9, 38, 70
9, 221980, Note_off_c, 9, 38, 64
9, 222000, Note_on_c, 9, 38, 90
9, 222100, Note_off_c, 9, 38, 64
9, 222120, Note_on_c, 9, 38, 70
9, 222220, Note_off_c, 9, 38, 64
9, 222240, Note_on_c, 9, 45, 90
9, 222340, Note_off_c, 9, 45, 64
9, 222360, Note_on_c, 9, 45, 80
9, 222460, Note_off_c, 9, 45, 64
9, 222480, Note_on_c, 9, 45, 100
9, 222580, Note_off_c, 9, 45, 64
9, 222600, Note_on_c, 9, 45, 80
9, 222700, Note_off_c, 9, 45, 64
9, 222720, Note_on_c, 9, 35, 90
9, 222720, Note_on_c, 9, 42, 90
9, 222720, Note_on_c, 9, 49, 90
9, 222820, Note_off_c, 9, 49, 64
9, 222820, Note_off_c, 9, 42, 64
9, 222820, Note_off_c, 9, 35, 64
9, 222960, Note_on_c, 9, 42, 70
9, 223060, Note_off_c, 9, 42, 64
9, 223200, Note_on_c, 9, 38, 100
9, 223200, Note_on_c, 9, 42, 115
9, 223300, Note_off_c, 9, 42, 64
9, 223300, Note_off_c, 9, 38, 64
9, 223440, Note_on_c, 9, 35, 80
9, 223440, Note_on_c, 9, 42, 70
9, 223540, Note_off_c, 9, 42, 64
9, 223540, Note_off_c, 9, 35, 64
9, 223680, Note_on_c, 9, 35, 100
9, 223680, Note_on_c, 9, 42, 90
9, 223780, Note_off_c, 9, 42, 64
9, 223780, Note_off_c, 9, 35, 64
9, 223920, Note_on_c, 9, 42, 70
9, 224020, Note_off_c, 9, 42, 64
9, 224160, Note_on_c, 9, 38, 100
9, 224160, Note_on_c, 9, 42, 100
9, 224260, Note_off_c, 9, 42, 64
9, 224260, Note_off_c, 9, 38, 64
9, 224400, Note_on_c, 9, 42, 70
9, 224500, Note_off_c, 9, 42, 64
9, 224640, Note_on_c, 9, 35, 90
9, 224640, Note_on_c, 9, 42, 90
9, 224740, Note_off_c, 9, 42, 64
9, 224740, Note_off_c, 9, 35, 64
9, 224880, Note_on_c, 9, 42, 70
9, 224980, Note_off_c, 9, 42, 64
9, 225120, Note_on_c, 9, 38, 100
9, 225120, Note_on_c, 9, 42, 115
9, 225220, Note_off_c, 9, 42, 64
9, 225220, Note_off_c, 9, 38, 64
9, 225360, Note_on_c, 9, 35, 80
9, 225360, Note_on_c, 9, 42, 80
9, 225460, Note_off_c, 9, 42, 64
9, 225460, Note_off_c, 9, 35, 64
9, 225600, Note_on_c, 9, 35, 100
9, 225600, Note_on_c, 9, 42, 90
9, 225700, Note_off_c, 9, 42, 64
9, 225700, Note_off_c, 9, 35, 64
9, 225840, Note_on_c, 9, 42, 70
9, 225940, Note_off_c, 9, 42, 64
9, 226080, Note_on_c, 9, 38, 100
9, 226080, Note_on_c, 9, 42, 100
9, 226080, Note_on_c, 9, 54, 115
9, 226180, Note_off_c, 9, 54, 64
9, 226180, Note_off_c, 9, 42, 64
9, 226180, Note_off_c, 9, 38, 64
9, 226320, Note_on_c, 9, 35, 70
9, 226320, Note_on_c, 9, 42, 70
9, 226420, Note_off_c, 9, 42, 64
9, 226420, Note_off_c, 9, 35, 64
9, 226560, Note_on_c, 9, 35, 90
9, 226560, Note_on_c, 9, 42, 90
9, 226660, Note_off_c, 9, 42, 64
9, 226660, Note_off_c, 9, 35, 64
9, 226800, Note_on_c, 9, 42, 70
9, 226900, Note_off_c, 9, 42, 64
9, 227040, Note_on_c, 9, 38, 100
9, 227040, Note_on_c, 9, 42, 115
9, 227140, Note_off_c, 9, 42, 64
9, 227140, Note_off_c, 9, 38, 64
9, 227280, Note_on_c, 9, 35, 80
9, 227280, Note_on_c, 9, 42, 70
9, 227380, Note_off_c, 9, 42, 64
9, 227380, Note_off_c, 9, 35, 64
9, 227520, Note_on_c, 9, 35, 100
9, 227520, Note_on_c, 9, 42, 90
9, 227620, Note_off_c, 9, 42, 64
9, 227620, Note_off_c, 9, 35, 64
9, 227760, Note_on_c, 9, 42, 70
9, 227860, Note_off_c, 9, 42, 64
9, 228000, Note_on_c, 9, 38, 100
9, 228000, Note_on_c, 9, 42, 100
9, 228100, Note_off_c, 9, 42, 64
9, 228100, Note_off_c, 9, 38, 64
9, 228240, Note_on_c, 9, 42, 70
9, 228340, Note_off_c, 9, 42, 64
9, 228480, Note_on_c, 9, 35, 90
9, 228480, Note_on_c, 9, 42, 90
9, 228580, Note_off_c, 9, 42, 64
9, 228580, Note_off_c, 9, 35, 64
9, 228720, Note_on_c, 9, 42, 70
9, 228820, Note_off_c, 9, 42, 64
9, 228960, Note_on_c, 9, 38, 100
9, 228960, Note_on_c, 9, 42, 115
9, 229060, Note_off_c, 9, 42, 64
9, 229060, Note_off_c, 9, 38, 64
9, 229200, Note_on_c, 9, 35, 80
9, 229200, Note_on_c, 9, 42, 75
9, 229300, Note_off_c, 9, 42, 64
9, 229300, Note_off_c, 9, 35, 64
9, 229440, Note_on_c, 9, 35, 100
9, 229440, Note_on_c, 9, 42, 90
9, 229540, Note_off_c, 9, 42, 64
9, 229540, Note_off_c, 9, 35, 64
9, 229680, Note_on_c, 9, 42, 70
9, 229780, Note_off_c, 9, 42, 64
9, 229920, Note_on_c, 9, 38, 100
9, 229920, Note_on_c, 9, 42, 100
9, 229920, Note_on_c, 9, 54, 115
9, 230020, Note_off_c, 9, 54, 64
9, 230020, Note_off_c, 9, 42, 64
9, 230020, Note_off_c, 9, 38, 64
9, 230160, Note_on_c, 9, 35, 70
9, 230160, Note_on_c, 9, 46, 80
9, 230260, Note_off_c, 9, 46, 64
9, 230260, Note_off_c, 9, 35, 64
9, 230400, Note_on_c, 9, 35, 90
9, 230400, Note_on_c, 9, 42, 90
9, 230500, Note_off_c, 9, 42, 64
9, 230500, Note_off_c, 9, 35, 64
9, 230640, Note_on_c, 9, 42, 70
9, 230740, Note_off_c, 9, 42, 64
9, 230880, Note_on_c, 9, 38, 100
9, 230880, Note_on_c, 9, 42, 115
9, 230980, Note_off_c, 9, 42, 64
9, 230980, Note_off_c, 9, 38, 64
9, 231120, Note_on_c, 9, 35, 80
9, 231120, Note_on_c, 9, 42, 70
9, 231220, Note_off_c, 9, 42, 64
9, 231220, Note_off_c, 9, 35, 64
9, 231360, Note_on_c, 9, 35, 100
9, 231360, Note_on_c, 9, 42, 90
9, 231460, Note_off_c, 9, 42, 64
9, 231460, Note_off_c, 9, 35, 64
9, 231600, Note_on_c, 9, 42, 70
9, 231700, Note_off_c, 9, 42, 64
9, 231840, Note_on_c, 9, 38, 100
9, 231840, Note_on_c, 9, 42, 100
9, 231940, Note_off_c, 9, 42, 64
9, 231940, Note_off_c, 9, 38, 64
9, 232080, Note_on_c, 9, 42, 70
9, 232180, Note_off_c, 9, 42, 64
9, 232320, Note_on_c, 9, 35, 90
9, 232320, Note_on_c, 9, 42, 90
9, 232420, Note_off_c, 9, 42, 64
9, 232420, Note_off_c, 9, 35, 64
9, 232560, Note_on_c, 9, 42, 70
9, 232660, Note_off_c, 9, 42, 64
9, 232800, Note_on_c, 9, 38, 100
9, 232800, Note_on_c, 9, 42, 115
9, 232900, Note_off_c, 9, 42, 64
9, 232900, Note_off_c, 9, 38, 64
9, 233040, Note_on_c, 9, 35, 80
9, 233040, Note_on_c, 9, 42, 75
9, 233140, Note_off_c, 9, 42, 64
9, 233140, Note_off_c, 9, 35, 64
9, 233280, Note_on_c, 9, 35, 100
9, 233280, Note_on_c, 9, 42, 90
9, 233380, Note_off_c, 9, 42, 64
9, 233380, Note_off_c, 9, 35, 64
9, 233520, Note_on_c, 9, 42, 70
9, 233620, Note_off_c, 9, 42, 64
9, 233760, Note_on_c, 9, 38, 100
9, 233760, Note_on_c, 9, 42, 100
9, 233760, Note_on_c, 9, 54, 115
9, 233860, Note_off_c, 9, 54, 64
9, 233860, Note_off_c, 9, 42, 64
9, 233860, Note_off_c, 9, 38, 64
9, 234000, Note_on_c, 9, 35, 70
9, 234000, Note_on_c, 9, 46, 80
9, 234100, Note_off_c, 9, 46, 64
9, 234100, Note_off_c, 9, 35, 64
9, 234240, Note_on_c, 9, 35, 90
9, 234240, Note_on_c, 9, 42, 90
9, 234340, Note_off_c, 9, 42, 64
9, 234340, Note_off_c, 9, 35, 64
9, 234360, Note_on_c, 9, 42, 60
9, 234460, Note_off_c, 9, 42, 64
9, 234480, Note_on_c, 9, 42, 70
9, 234580, Note_off_c, 9, 42, 64
9, 234720, Note_on_c, 9, 38, 100
9, 234720, Note_on_c, 9, 42, 115
9, 234820, Note_off_c, 9, 42, 64
9, 234820, Note_off_c, 9, 38, 64
9, 234960, Note_on_c, 9, 35, 80
9, 234960, Note_on_c, 9, 42, 70
9, 235060, Note_off_c, 9, 42, 64
9, 235060, Note_off_c, 9, 35, 64
9, 235200, Note_on_c, 9, 35, 100
9, 235200, Note_on_c, 9, 42, 90
9, 235300, Note_off_c, 9, 42, 64
9, 235300, Note_off_c, 9, 35, 64
9, 235440, Note_on_c, 9, 42, 70
9, 235540, Note_off_c, 9, 42, 64
9, 235680, Note_on_c, 9, 38, 100
9, 235680, Note_on_c, 9, 42, 100
9, 235780, Note_off_c, 9, 42, 64
9, 235780, Note_off_c, 9, 38, 64
9, 235920, Note_on_c, 9, 42, 70
9, 236020, Note_off_c, 9, 42, 64
9, 236040, Note_on_c, 9, 46, 60
9, 236140, Note_off_c, 9, 46, 64
9, 236160, Note_on_c, 9, 35, 90
9, 236160, Note_on_c, 9, 42, 90
9, 236260, Note_off_c, 9, 42, 64
9, 236260, Note_off_c, 9, 35, 64
9, 236400, Note_on_c, 9, 42, 70
9, 236500, Note_off_c, 9, 42, 64
9, 236640, Note_on_c, 9, 38, 100
9, 236640, Note_on_c, 9, 42, 115
9, 236640, Note_on_c, 9, 39, 100
9, 236740, Note_off_c, 9, 39, 64
9, 236740, Note_off_c, 9, 42, 64
9, 236740, Note_off_c, 9, 38, 64
9, 236880, Note_on_c, 9, 35, 80
9, 236880, Note_on_c, 9, 42, 70
9, 236880, Note_on_c, 9, 39, 40
9, 236980, Note_off_c, 9, 39, 64
9, 236980, Note_off_c, 9, 42, 64
9, 236980, Note_off_c, 9, 35, 64
9, 237120, Note_on_c, 9, 35, 100
9, 237120, Note_on_c, 9, 42, 90
9, 237220, Note_off_c, 9, 42, 64
9, 237220, Note_off_c, 9, 35, 64
9, 237360, Note_on_c, 9, 42, 70
9, 237360, Note_on_c, 9, 54, 40
9, 237460, Note_off_c, 9, 54, 64
9, 237460, Note_off_c, 9, 42, 64
9, 237480, Note_on_c, 9, 54, 20
9, 237580, Note_off_c, 9, 54, 64
9, 237600, Note_on_c, 9, 38, 100
9, 237600, Note_on_c, 9, 42, 100
9, 237600, Note_on_c, 9, 41, 100
9, 237600, Note_on_c, 9, 54, 115
9, 237700, Note_off_c, 9, 54, 64
9, 237700, Note_off_c, 9, 41, 64
9, 237700, Note_off_c, 9, 42, 64
9, 237700, Note_off_c, 9, 38, 64
9, 237840, Note_on_c, 9, 35, 80
9, 237840, Note_on_c, 9, 42, 70
9, 237940, Note_off_c, 9, 42, 64
9, 237940, Note_off_c, 9, 35, 64
9, 238080, Note_on_c, 9, 35, 100
9, 238080, Note_on_c, 9, 42, 90
9, 238180, Note_off_c, 9, 42, 64
9, 238180, Note_off_c, 9, 35, 64
9, 238320, Note_on_c, 9, 42, 70
9, 238420, Note_off_c, 9, 42, 64
9, 238560, Note_on_c, 9, 38, 100
9, 238560, Note_on_c, 9, 46, 100
9, 238660, Note_off_c, 9, 46, 64
9, 238660, Note_off_c, 9, 38, 64
9, 238800, Note_on_c, 9, 35, 100
9, 238900, Note_off_c, 9, 35, 64
9, 239040, Note_on_c, 9, 48, 115
9, 239140, Note_off_c, 9, 48, 64
9, 239400, Note_on_c, 9, 45, 90
9, 239500, Note_off_c, 9, 45, 64
9, 239520, Note_on_c, 9, 45, 115
9, 239620, Note_off_c, 9, 45, 64
9, 239640, Note_on_c, 9, 41, 100
9, 239740, Note_off_c, 9, 41, 64
9, 239760, Note_on_c, 9, 41, 115
9, 239860, Note_off_c, 9, 41, 64
9, 240000, Note_on_c, 9, 35, 90
9, 240000, Note_on_c, 9, 42, 90
9, 240000, Note_on_c, 9, 49, 90
9, 240100, Note_off_c, 9, 49, 64
9, 240100, Note_off_c, 9, 42, 64
9, 240100, Note_off_c, 9, 35, 64
9, 240240, Note_on_c, 9, 42, 70
9, 240340, Note_off_c, 9, 42, 64
9, 240480, Note_on_c, 9, 38, 100
9, 240480, Note_on_c, 9, 42, 115
9, 240580, Note_off_c, 9, 42, 64
9, 240580, Note_off_c, 9, 38, 64
9, 240720, Note_on_c, 9, 35, 80
9, 240720, Note_on_c, 9, 42, 70
9, 240820, Note_off_c, 9, 42, 64
9, 240820, Note_off_c, 9, 35, 64
9, 240960, Note_on_c, 9, 35, 100
9, 240960, Note_on_c, 9, 42, 90
9, 241060, Note_off_c, 9, 42, 64
9, 241060, Note_off_c, 9, 35, 64
9, 241200, Note_on_c, 9, 42, 70
9, 241300, Note_off_c, 9, 42, 64
9, 241440, Note_on_c, 9, 38, 100
9, 241440, Note_on_c, 9, 42, 100
9, 241540, Note_off_c, 9, 42, 64
9, 241540, Note_off_c, 9, 38, 64
9, 241680, Note_on_c, 9, 42, 70
9, 241780, Note_off_c, 9, 42, 64
9, 241920, Note_on_c, 9, 35, 90
9, 241920, Note_on_c, 9, 42, 90
9, 242020, Note_off_c, 9, 42, 64
9, 242020, Note_off_c, 9, 35, 64
9, 242160, Note_on_c, 9, 42, 70
9, 242260, Note_off_c, 9, 42, 64
9, 242400, Note_on_c, 9, 38, 100
9, 242400, Note_on_c, 9, 42, 115
9, 242500, Note_off_c, 9, 42, 64
9, 242500, Note_off_c, 9, 38, 64
9, 242640, Note_on_c, 9, 35, 80
9, 242640, Note_on_c, 9, 42, 70
9, 242740, Note_off_c, 9, 42, 64
9, 242740, Note_off_c, 9, 35, 64
9, 242880, Note_on_c, 9, 35, 100
9, 242880, Note_on_c, 9, 42, 90
9, 242980, Note_off_c, 9, 42, 64
9, 242980, Note_off_c, 9, 35, 64
9, 243120, Note_on_c, 9, 38, 90
9, 243220, Note_off_c, 9, 38, 64
9, 243240, Note_on_c, 9, 38, 70
9, 243340, Note_off_c, 9, 38, 64
9, 243360, Note_on_c, 9, 38, 100
9, 243460, Note_off_c, 9, 38, 64
9, 243600, Note_on_c, 9, 38, 100
9, 243600, Note_on_c, 9, 46, 90
9, 243700, Note_off_c, 9, 46, 64
9, 243700, Note_off_c, 9, 38, 64
9, 243840, Note_on_c, 9, 35, 90
9, 243840, Note_on_c, 9, 42, 90
9, 243840, Note_on_c, 9, 49, 90
9, 243940, Note_off_c, 9, 49, 64
9, 243940, Note_off_c, 9, 42, 64
9, 243940, Note_off_c, 9, 35, 64
9, 244080, Note_on_c, 9, 42, 70
9, 244180, Note_off_c, 9, 42, 64
9, 244320, Note_on_c, 9, 38, 100
9, 244320, Note_on_c, 9, 42, 115
9, 244420, Note_off_c, 9, 42, 64
9, 244420, Note_off_c, 9, 38, 64
9, 244560, Note_on_c, 9, 35, 80
9, 244560, Note_on_c, 9, 42, 70
9, 244660, Note_off_c, 9, 42, 64
9, 244660, Note_off_c, 9, 35, 64
9, 244800, Note_on_c, 9, 35, 100
9, 244800, Note_on_c, 9, 42, 90
9, 244900, Note_off_c, 9, 42, 64
9, 244900, Note_off_c, 9, 35, 64
9, 245040, Note_on_c, 9, 42, 70
9, 245140, Note_off_c, 9, 42, 64
9, 245280, Note_on_c, 9, 38, 100
9, 245280, Note_on_c, 9, 42, 100
9, 245380, Note_off_c, 9, 42, 64
9, 245380, Note_off_c, 9, 38, 64
9, 245520, Note_on_c, 9, 42, 70
9, 245620, Note_off_c, 9, 42, 64
9, 245760, Note_on_c, 9, 35, 90
9, 245760, Note_on_c, 9, 42, 90
9, 245860, Note_off_c, 9, 42, 64
9, 245860, Note_off_c, 9, 35, 64
9, 246000, Note_on_c, 9, 42, 70
9, 246100, Note_off_c, 9, 42, 64
9, 246240, Note_on_c, 9, 38, 100
9, 246240, Note_on_c, 9, 42, 115
9, 246340, Note_off_c, 9, 42, 64
9, 246340, Note_off_c, 9, 38, 64
9, 246480, Note_on_c, 9, 35, 80
9, 246480, Note_on_c, 9, 42, 75
9, 246580, Note_off_c, 9, 42, 64
9, 246580, Note_off_c, 9, 35, 64
9, 246720, Note_on_c, 9, 35, 100
9, 246720, Note_on_c, 9, 42, 90
9, 246820, Note_off_c, 9, 42, 64
9, 246820, Note_off_c, 9, 35, 64
9, 246960, Note_on_c, 9, 42, 70
9, 247060, Note_off_c, 9, 42, 64
9, 247200, Note_on_c, 9, 38, 100
9, 247200, Note_on_c, 9, 42, 100
9, 247200, Note_on_c, 9, 54, 115
9, 247300, Note_off_c, 9, 54, 64
9, 247300, Note_off_c, 9, 42, 64
9, 247300, Note_off_c, 9, 38, 64
9, 247440, Note_on_c, 9, 35, 70
9, 247440, Note_on_c, 9, 46, 80
9, 247540, Note_off_c, 9, 46, 64
9, 247540, Note_off_c, 9, 35, 64
9, 247680, Note_on_c, 9, 35, 90
9, 247680, Note_on_c, 9, 42, 90
9, 247680, Note_on_c, 9, 49, 90
9, 247780, Note_off_c, 9, 49, 64
9, 247780, Note_off_c, 9, 42, 64
9, 247780, Note_off_c, 9, 35, 64
9, 247920, Note_on_c, 9, 42, 70
9, 248020, Note_off_c, 9, 42, 64
9, 248160, Note_on_c, 9, 38, 100
9, 248160, Note_on_c, 9, 42, 100
9, 248260, Note_off_c, 9, 42, 64
9, 248260, Note_off_c, 9, 38, 64
9, 248400, Note_on_c, 9, 35, 80
9, 248400, Note_on_c, 9, 42, 70
9, 248500, Note_off_c, 9, 42, 64
9, 248500, Note_off_c, 9, 35, 64
9, 248640, Note_on_c, 9, 35, 100
9, 248640, Note_on_c, 9, 42, 90
9, 248740, Note_off_c, 9, 42, 64
9, 248740, Note_off_c, 9, 35, 64
9, 248880, Note_on_c, 9, 35, 90
9, 248880, Note_on_c, 9, 42, 70
9, 248980, Note_off_c, 9, 42, 64
9, 248980, Note_off_c, 9, 35, 64
9, 249120, Note_on_c, 9, 38, 100
9, 249120, Note_on_c, 9, 42, 100
9, 249220, Note_off_c, 9, 42, 64
9, 249220, Note_off_c, 9, 38, 64
9, 249360, Note_on_c, 9, 35, 70
9, 249360, Note_on_c, 9, 42, 70
9, 249460, Note_off_c, 9, 42, 64
9, 249460, Note_off_c, 9, 35, 64
9, 249600, Note_on_c, 9, 38, 100
9, 249700, Note_off_c, 9, 38, 64
9, 249840, Note_on_c, 9, 35, 100
9, 249940, Note_off_c, 9, 35, 64
9, 250080, Note_on_c, 9, 35, 100
9, 250080, Note_on_c, 9, 49, 90
9, 250180, Note_off_c, 9, 49, 64
9, 250180, Note_off_c, 9, 35, 64
9, 250560, Note_on_c, 9, 35, 115
9, 250560, Note_on_c, 9, 49, 115
9, 250660, Note_off_c, 9, 49, 64
9, 250660, Note_off_c, 9, 35, 64
9, 250660, End_track
10, 0, Start_track
10, 0, Title_t, "His Latest Flame"
10, 0, MIDI_port, 0
10, 0, End_track
11, 0, Start_track
11, 0, Title_t, "Words and Music by:"
11, 0, MIDI_port, 0
11, 0, End_track
12, 0, Start_track
12, 0, Title_t, "Doc Pomus and"
12, 0, MIDI_port, 0
12, 0, End_track
13, 0, Start_track
13, 0, Title_t, "Mort Shuman"
13, 0, MIDI_port, 0
13, 0, End_track
14, 0, Start_track
14, 0, Title_t, "Sequenced by:"
14, 0, MIDI_port, 0
14, 0, End_track
15, 0, Start_track
15, 0, Title_t, "Gary Rogers"
15, 0, MIDI_port, 0
15, 0, End_track
0, 0, End_of_file
