0, 0, Header, 0, 1, 480
1, 0, Start_track
1, 0, Title_t, "Hold On"
1, 0, Copyright_t, "www.songgalaxy.com"
1, 0, Tempo, 937500
1, 0, Time_signature, 4, 2, 24, 8
1, 0, MIDI_port, 0
1, 0, MIDI_port, 0
1, 0, MIDI_port, 0
1, 0, MIDI_port, 0
1, 0, MIDI_port, 0
1, 0, MIDI_port, 0
1, 0, MIDI_port, 0
1, 0, MIDI_port, 0
1, 0, MIDI_port, 0
1, 0, MIDI_port, 0
1, 0, MIDI_port, 0
1, 0, MIDI_port, 0
1, 0, MIDI_port, 0
1, 0, MIDI_port, 0
1, 0, MIDI_port, 0
1, 0, System_exclusive, 10, 65, 16, 66, 18, 64, 0, 127, 0, 65, 247
1, 0, Lyric_t, "www.songgalaxy.com"
1, 0, Lyric_t, "\015"
1, 240, System_exclusive, 12, 127, 127, 4, 5, 1, 1, 1, 1, 2, 2, 1, 247
1, 250, System_exclusive, 12, 127, 127, 4, 5, 1, 1, 1, 1, 2, 3, 64, 247
1, 260, System_exclusive, 12, 127, 127, 4, 5, 1, 1, 1, 1, 2, 4, 64, 247
1, 270, System_exclusive, 12, 127, 127, 4, 5, 1, 1, 1, 1, 2, 1, 33, 247
1, 480, Control_c, 0, 32, 0
1, 480, Control_c, 0, 0, 0
1, 480, Control_c, 15, 121, 0
1, 490, Program_c, 0, 0
1, 495, Control_c, 0, 11, 127
1, 495, Control_c, 0, 10, 64
1, 495, Control_c, 0, 7, 113
1, 500, Control_c, 0, 93, 0
1, 500, Control_c, 0, 91, 84
1, 505, Control_c, 1, 32, 0
1, 505, Control_c, 1, 0, 0
1, 515, Program_c, 1, 33
1, 520, Control_c, 1, 11, 127
1, 520, Control_c, 1, 10, 64
1, 520, Control_c, 1, 7, 107
1, 525, Control_c, 1, 93, 0
1, 525, Control_c, 1, 91, 0
1, 530, Control_c, 2, 32, 0
1, 530, Control_c, 2, 0, 0
1, 540, Program_c, 2, 25
1, 545, Control_c, 2, 11, 127
1, 545, Control_c, 2, 10, 34
1, 545, Control_c, 2, 7, 92
1, 550, Control_c, 2, 93, 0
1, 550, Control_c, 2, 91, 84
1, 555, Control_c, 3, 32, 0
1, 555, Control_c, 3, 0, 0
1, 565, Program_c, 3, 69
1, 570, Control_c, 3, 11, 127
1, 570, Control_c, 3, 10, 69
1, 570, Control_c, 3, 7, 115
1, 575, Control_c, 3, 93, 0
1, 575, Control_c, 3, 91, 84
1, 580, Control_c, 4, 32, 0
1, 580, Control_c, 4, 0, 0
1, 590, Program_c, 4, 53
1, 595, Control_c, 4, 11, 127
1, 595, Control_c, 4, 10, 61
1, 595, Control_c, 4, 7, 105
1, 600, Control_c, 4, 93, 0
1, 600, Control_c, 4, 91, 84
1, 605, Control_c, 5, 32, 0
1, 605, Control_c, 5, 0, 8
1, 607, Pitch_bend_c, 15, 8192
1, 615, Program_c, 5, 25
1, 620, Control_c, 5, 11, 127
1, 620, Control_c, 5, 10, 94
1, 620, Control_c, 5, 7, 92
1, 625, Control_c, 5, 93, 0
1, 625, Control_c, 5, 91, 84
1, 630, Control_c, 6, 32, 0
1, 630, Control_c, 6, 0, 8
1, 640, Program_c, 6, 27
1, 645, Control_c, 6, 11, 127
1, 645, Control_c, 6, 10, 24
1, 645, Control_c, 6, 7, 94
1, 650, Control_c, 6, 93, 94
1, 650, Control_c, 6, 91, 84
1, 655, Control_c, 7, 32, 0
1, 655, Control_c, 7, 0, 0
1, 657, Control_c, 15, 11, 127
1, 665, Program_c, 7, 27
1, 670, Control_c, 7, 11, 127
1, 670, Control_c, 7, 10, 84
1, 670, Control_c, 7, 7, 94
1, 673, Control_c, 15, 7, 113
1, 675, Control_c, 7, 93, 0
1, 675, Control_c, 7, 91, 84
1, 680, Control_c, 8, 32, 0
1, 680, Control_c, 8, 0, 0
1, 683, Control_c, 15, 10, 64
1, 690, Program_c, 8, 28
1, 695, Control_c, 8, 11, 127
1, 695, Control_c, 8, 10, 94
1, 695, Control_c, 8, 7, 97
1, 696, Control_c, 15, 91, 0
1, 700, Control_c, 8, 93, 84
1, 700, Control_c, 8, 91, 84
1, 705, Control_c, 9, 32, 0
1, 705, Control_c, 9, 0, 0
1, 712, Control_c, 15, 93, 0
1, 715, Program_c, 9, 0
1, 720, Control_c, 9, 11, 127
1, 720, Control_c, 9, 10, 64
1, 720, Control_c, 9, 7, 113
1, 725, Control_c, 9, 93, 0
1, 725, Control_c, 9, 91, 74
1, 730, Control_c, 10, 32, 0
1, 730, Control_c, 10, 0, 0
1, 740, Program_c, 10, 47
1, 745, Control_c, 10, 11, 127
1, 745, Control_c, 10, 10, 64
1, 745, Control_c, 10, 7, 105
1, 750, Control_c, 10, 93, 0
1, 750, Control_c, 10, 91, 84
1, 755, Control_c, 11, 32, 0
1, 755, Control_c, 11, 0, 0
1, 765, Program_c, 11, 29
1, 770, Control_c, 11, 11, 127
1, 770, Control_c, 11, 10, 54
1, 770, Control_c, 11, 7, 105
1, 775, Control_c, 11, 93, 0
1, 775, Control_c, 11, 91, 84
1, 805, Control_c, 13, 32, 0
1, 805, Control_c, 13, 0, 0
1, 815, Program_c, 13, 48
1, 820, Control_c, 13, 11, 70
1, 820, Control_c, 13, 10, 64
1, 820, Control_c, 13, 7, 108
1, 825, Control_c, 13, 93, 0
1, 825, Control_c, 13, 91, 84
1, 830, Control_c, 14, 32, 0
1, 830, Control_c, 14, 0, 0
1, 840, Program_c, 14, 60
1, 845, Control_c, 14, 11, 127
1, 845, Control_c, 14, 10, 44
1, 845, Control_c, 14, 7, 102
1, 850, Control_c, 14, 93, 0
1, 850, Control_c, 14, 91, 84
1, 855, Control_c, 12, 32, 0
1, 855, Control_c, 12, 0, 0
1, 865, Program_c, 12, 89
1, 870, Control_c, 12, 11, 127
1, 870, Control_c, 12, 10, 64
1, 870, Control_c, 12, 7, 86
1, 875, Control_c, 12, 93, 0
1, 875, Control_c, 12, 91, 84
1, 970, Control_c, 2, 6, 66
1, 975, Control_c, 2, 101, 127
1, 980, Control_c, 2, 100, 127
1, 995, Control_c, 5, 6, 62
1, 1000, Control_c, 5, 101, 127
1, 1005, Control_c, 5, 100, 127
1, 1010, Control_c, 9, 99, 28
1, 1015, Control_c, 9, 98, 82
1, 1020, Control_c, 9, 6, 54
1, 1025, Control_c, 9, 101, 127
1, 1030, Control_c, 9, 100, 127
1, 1920, Note_on_c, 9, 42, 75
1, 1933, Note_on_c, 9, 42, 0
1, 2400, Note_on_c, 9, 42, 75
1, 2413, Note_on_c, 9, 42, 0
1, 2880, Note_on_c, 9, 42, 75
1, 2893, Note_on_c, 9, 42, 0
1, 3360, Note_on_c, 9, 42, 75
1, 3373, Note_on_c, 9, 42, 0
1, 3834, Note_on_c, 13, 41, 61
1, 3838, Note_on_c, 0, 65, 66
1, 3839, Note_on_c, 0, 57, 64
1, 3839, Note_on_c, 13, 57, 58
1, 3840, Note_on_c, 0, 41, 67
1, 3842, Note_on_c, 0, 60, 64
1, 3845, Note_on_c, 13, 65, 58
1, 3847, Note_on_c, 13, 60, 61
1, 3890, Control_c, 13, 11, 74
1, 3955, Control_c, 13, 11, 78
1, 4025, Control_c, 13, 11, 82
1, 4095, Control_c, 13, 11, 86
1, 4160, Control_c, 13, 11, 90
1, 4230, Control_c, 13, 11, 94
1, 4300, Control_c, 13, 11, 98
1, 4305, Note_on_c, 0, 60, 0
1, 4305, Note_on_c, 0, 57, 0
1, 4305, Note_on_c, 0, 65, 0
1, 4318, Note_on_c, 0, 60, 61
1, 4319, Note_on_c, 0, 57, 63
1, 4320, Note_on_c, 0, 65, 65
1, 4365, Control_c, 13, 11, 102
1, 4435, Control_c, 13, 11, 106
1, 4505, Control_c, 13, 11, 110
1, 4570, Control_c, 13, 11, 114
1, 4640, Control_c, 13, 11, 118
1, 4705, Control_c, 13, 11, 122
1, 4775, Control_c, 13, 11, 126
1, 4785, Note_on_c, 0, 65, 0
1, 4785, Note_on_c, 0, 57, 0
1, 4785, Note_on_c, 0, 60, 0
1, 4785, Note_on_c, 13, 60, 0
1, 4785, Note_on_c, 13, 65, 0
1, 4785, Note_on_c, 0, 41, 0
1, 4785, Note_on_c, 13, 57, 0
1, 4785, Note_on_c, 13, 41, 0
1, 4793, Note_on_c, 13, 60, 61
1, 4794, Note_on_c, 13, 57, 59
1, 4795, Control_c, 13, 11, 127
1, 4797, Note_on_c, 0, 45, 62
1, 4797, Note_on_c, 0, 65, 64
1, 4797, Note_on_c, 0, 63, 63
1, 4797, Note_on_c, 13, 45, 60
1, 4799, Note_on_c, 0, 60, 61
1, 4799, Note_on_c, 13, 65, 62
1, 5265, Note_on_c, 0, 60, 0
1, 5265, Note_on_c, 0, 63, 0
1, 5265, Note_on_c, 0, 65, 0
1, 5279, Note_on_c, 0, 63, 61
1, 5282, Note_on_c, 0, 60, 64
1, 5282, Note_on_c, 0, 65, 62
1, 5745, Note_on_c, 0, 65, 0
1, 5745, Note_on_c, 0, 60, 0
1, 5745, Note_on_c, 0, 63, 0
1, 5745, Note_on_c, 13, 65, 0
1, 5745, Note_on_c, 13, 45, 0
1, 5745, Note_on_c, 0, 45, 0
1, 5745, Note_on_c, 13, 57, 0
1, 5745, Note_on_c, 13, 60, 0
1, 5754, Note_on_c, 14, 53, 61
1, 5758, Note_on_c, 13, 58, 60
1, 5758, Note_on_c, 13, 62, 61
1, 5759, Note_on_c, 13, 65, 61
1, 5761, Note_on_c, 0, 58, 65
1, 5761, Note_on_c, 0, 62, 66
1, 5761, Note_on_c, 0, 65, 67
1, 5763, Note_on_c, 0, 46, 68
1, 5763, Note_on_c, 13, 46, 60
1, 6225, Note_on_c, 0, 65, 0
1, 6225, Note_on_c, 0, 62, 0
1, 6225, Note_on_c, 0, 58, 0
1, 6239, Note_on_c, 0, 62, 63
1, 6240, Tempo, 923076
1, 6240, Note_on_c, 0, 58, 67
1, 6242, Note_on_c, 0, 65, 67
1, 6700, Note_on_c, 14, 53, 0
1, 6705, Note_on_c, 0, 65, 0
1, 6705, Note_on_c, 0, 58, 0
1, 6705, Note_on_c, 0, 62, 0
1, 6705, Note_on_c, 13, 46, 0
1, 6705, Note_on_c, 0, 46, 0
1, 6705, Note_on_c, 13, 65, 0
1, 6705, Note_on_c, 13, 58, 0
1, 6717, Note_on_c, 0, 62, 61
1, 6717, Note_on_c, 0, 58, 65
1, 6717, Note_on_c, 13, 48, 62
1, 6720, Note_on_c, 0, 65, 65
1, 6723, Note_on_c, 0, 48, 64
1, 6723, Note_on_c, 13, 65, 58
1, 6723, Note_on_c, 13, 58, 58
1, 6728, Note_on_c, 14, 48, 58
1, 7185, Note_on_c, 0, 58, 0
1, 7185, Note_on_c, 0, 62, 0
1, 7185, Note_on_c, 13, 62, 0
1, 7199, Note_on_c, 0, 62, 65
1, 7200, Note_on_c, 13, 60, 61
1, 7201, Note_on_c, 0, 58, 66
1, 7660, Note_on_c, 14, 48, 0
1, 7665, Note_on_c, 0, 58, 0
1, 7665, Note_on_c, 13, 60, 0
1, 7665, Note_on_c, 0, 62, 0
1, 7665, Note_on_c, 13, 58, 0
1, 7665, Note_on_c, 13, 65, 0
1, 7665, Note_on_c, 0, 48, 0
1, 7665, Note_on_c, 0, 65, 0
1, 7665, Note_on_c, 13, 48, 0
1, 7677, Note_on_c, 0, 65, 68
1, 7678, Note_on_c, 0, 57, 69
1, 7678, Note_on_c, 0, 60, 70
1, 7678, Note_on_c, 13, 65, 60
1, 7679, Note_on_c, 13, 41, 62
1, 7679, Note_on_c, 14, 53, 62
1, 7680, Note_on_c, 13, 69, 58
1, 7681, Note_on_c, 0, 41, 69
1, 7687, Note_on_c, 13, 60, 59
1, 8025, Pitch_bend_c, 8, 0
1, 8042, Note_on_c, 8, 50, 72
1, 8100, Pitch_bend_c, 8, 8192
1, 8140, Note_on_c, 8, 50, 0
1, 8145, Note_on_c, 0, 60, 0
1, 8145, Note_on_c, 0, 57, 0
1, 8145, Note_on_c, 0, 65, 0
1, 8159, Note_on_c, 0, 65, 67
1, 8160, Note_on_c, 8, 53, 83
1, 8162, Note_on_c, 0, 57, 67
1, 8162, Note_on_c, 0, 60, 65
1, 8260, Note_on_c, 8, 53, 0
1, 8273, Note_on_c, 8, 50, 69
1, 8330, Note_on_c, 8, 50, 0
1, 8401, Note_on_c, 8, 48, 72
1, 8450, Note_on_c, 8, 48, 0
1, 8512, Note_on_c, 8, 53, 83
1, 8570, Note_on_c, 8, 53, 0
1, 8620, Note_on_c, 14, 53, 0
1, 8625, Note_on_c, 0, 60, 0
1, 8625, Note_on_c, 0, 57, 0
1, 8625, Note_on_c, 0, 65, 0
1, 8625, Note_on_c, 13, 60, 0
1, 8625, Note_on_c, 0, 41, 0
1, 8625, Note_on_c, 13, 69, 0
1, 8625, Note_on_c, 13, 41, 0
1, 8625, Note_on_c, 13, 65, 0
1, 8632, Note_on_c, 13, 67, 58
1, 8637, Note_on_c, 0, 65, 67
1, 8638, Note_on_c, 0, 63, 64
1, 8638, Note_on_c, 0, 60, 64
1, 8638, Note_on_c, 13, 63, 62
1, 8641, Note_on_c, 0, 45, 66
1, 8641, Note_on_c, 14, 53, 59
1, 8642, Note_on_c, 13, 45, 58
1, 8646, Note_on_c, 13, 60, 58
1, 8985, Pitch_bend_c, 8, 0
1, 9007, Note_on_c, 8, 50, 76
1, 9060, Pitch_bend_c, 8, 8192
1, 9100, Note_on_c, 8, 50, 0
1, 9105, Note_on_c, 0, 60, 0
1, 9105, Note_on_c, 0, 63, 0
1, 9105, Note_on_c, 0, 65, 0
1, 9115, Note_on_c, 8, 53, 83
1, 9119, Note_on_c, 0, 63, 66
1, 9120, Note_on_c, 0, 60, 66
1, 9120, Note_on_c, 0, 65, 62
1, 9220, Note_on_c, 8, 53, 0
1, 9241, Note_on_c, 8, 50, 71
1, 9290, Note_on_c, 8, 50, 0
1, 9358, Note_on_c, 8, 48, 73
1, 9410, Note_on_c, 8, 48, 0
1, 9484, Note_on_c, 8, 53, 73
1, 9530, Note_on_c, 8, 53, 0
1, 9580, Note_on_c, 14, 53, 0
1, 9585, Note_on_c, 0, 65, 0
1, 9585, Note_on_c, 0, 60, 0
1, 9585, Note_on_c, 0, 63, 0
1, 9585, Note_on_c, 13, 60, 0
1, 9585, Note_on_c, 13, 45, 0
1, 9585, Note_on_c, 0, 45, 0
1, 9585, Note_on_c, 13, 63, 0
1, 9585, Note_on_c, 13, 67, 0
1, 9595, Note_on_c, 13, 65, 58
1, 9597, Note_on_c, 14, 53, 58
1, 9598, Note_on_c, 0, 46, 69
1, 9598, Note_on_c, 0, 62, 68
1, 9598, Note_on_c, 0, 58, 68
1, 9598, Note_on_c, 0, 65, 67
1, 9601, Note_on_c, 13, 58, 62
1, 9604, Note_on_c, 13, 62, 61
1, 9608, Note_on_c, 13, 46, 58
1, 9945, Pitch_bend_c, 8, 0
1, 9962, Note_on_c, 8, 50, 71
1, 10020, Pitch_bend_c, 8, 8192
1, 10060, Note_on_c, 8, 50, 0
1, 10065, Note_on_c, 0, 65, 0
1, 10065, Note_on_c, 0, 58, 0
1, 10065, Note_on_c, 0, 62, 0
1, 10081, Note_on_c, 0, 62, 67
1, 10082, Note_on_c, 0, 58, 68
1, 10082, Note_on_c, 0, 65, 70
1, 10083, Note_on_c, 8, 53, 86
1, 10180, Note_on_c, 8, 53, 0
1, 10208, Note_on_c, 8, 50, 70
1, 10250, Note_on_c, 8, 50, 0
1, 10312, Note_on_c, 8, 48, 75
1, 10370, Note_on_c, 8, 48, 0
1, 10438, Note_on_c, 8, 53, 79
1, 10490, Note_on_c, 8, 53, 0
1, 10540, Note_on_c, 14, 53, 0
1, 10545, Note_on_c, 0, 65, 0
1, 10545, Note_on_c, 0, 58, 0
1, 10545, Note_on_c, 0, 62, 0
1, 10545, Note_on_c, 13, 46, 0
1, 10545, Note_on_c, 13, 62, 0
1, 10545, Note_on_c, 13, 58, 0
1, 10545, Note_on_c, 0, 46, 0
1, 10545, Note_on_c, 13, 65, 0
1, 10555, Note_on_c, 13, 48, 59
1, 10557, Note_on_c, 0, 62, 67
1, 10558, Note_on_c, 13, 58, 59
1, 10559, Note_on_c, 14, 48, 58
1, 10560, Note_on_c, 0, 58, 64
1, 10560, Note_on_c, 0, 65, 66
1, 10560, Note_on_c, 13, 60, 61
1, 10562, Note_on_c, 0, 48, 64
1, 10563, Note_on_c, 13, 65, 58
1, 10686, Note_on_c, 8, 50, 71
1, 10730, Note_on_c, 8, 50, 0
1, 10796, Note_on_c, 8, 53, 75
1, 10850, Note_on_c, 8, 53, 0
1, 10922, Note_on_c, 8, 55, 77
1, 10970, Note_on_c, 8, 55, 0
1, 11025, Pitch_bend_c, 8, 0
1, 11040, Note_on_c, 8, 57, 86
1, 11040, Note_on_c, 9, 57, 5
1, 11053, Note_on_c, 9, 57, 0
1, 11080, Pitch_bend_c, 8, 4096
1, 11080, Note_on_c, 9, 57, 6
1, 11093, Note_on_c, 9, 57, 0
1, 11120, Pitch_bend_c, 8, 8192
1, 11120, Note_on_c, 9, 57, 8
1, 11133, Note_on_c, 9, 57, 0
1, 11160, Note_on_c, 9, 57, 10
1, 11173, Note_on_c, 9, 57, 0
1, 11200, Note_on_c, 9, 57, 11
1, 11213, Note_on_c, 9, 57, 0
1, 11240, Note_on_c, 9, 57, 13
1, 11253, Note_on_c, 9, 57, 0
1, 11280, Note_on_c, 9, 57, 15
1, 11293, Note_on_c, 9, 57, 0
1, 11320, Note_on_c, 9, 57, 16
1, 11333, Note_on_c, 9, 57, 0
1, 11360, Note_on_c, 9, 57, 18
1, 11373, Note_on_c, 9, 57, 0
1, 11400, Note_on_c, 9, 57, 20
1, 11413, Note_on_c, 9, 57, 0
1, 11440, Note_on_c, 9, 57, 21
1, 11453, Note_on_c, 9, 57, 0
1, 11480, Note_on_c, 9, 57, 23
1, 11493, Note_on_c, 9, 57, 0
1, 11500, Note_on_c, 8, 57, 0
1, 11500, Note_on_c, 14, 48, 0
1, 11505, Note_on_c, 13, 65, 0
1, 11505, Note_on_c, 0, 48, 0
1, 11505, Note_on_c, 13, 60, 0
1, 11505, Note_on_c, 0, 65, 0
1, 11505, Note_on_c, 0, 58, 0
1, 11505, Note_on_c, 13, 58, 0
1, 11505, Note_on_c, 0, 62, 0
1, 11505, Note_on_c, 13, 48, 0
1, 11512, Note_on_c, 12, 57, 49
1, 11513, Note_on_c, 12, 65, 49
1, 11515, Note_on_c, 14, 53, 62
1, 11516, Note_on_c, 12, 60, 49
1, 11517, Note_on_c, 0, 65, 74
1, 11518, Note_on_c, 13, 60, 60
1, 11519, Note_on_c, 0, 57, 70
1, 11519, Note_on_c, 0, 60, 74
1, 11520, Note_on_c, 9, 57, 25
1, 11520, Note_on_c, 13, 53, 59
1, 11521, Note_on_c, 0, 41, 70
1, 11524, Note_on_c, 13, 65, 61
1, 11527, Note_on_c, 13, 57, 62
1, 11533, Note_on_c, 9, 57, 0
1, 11665, Control_c, 14, 11, 123
1, 11705, Control_c, 14, 11, 119
1, 11745, Control_c, 14, 11, 115
1, 11785, Control_c, 14, 11, 111
1, 11790, Control_c, 13, 11, 123
1, 11820, Control_c, 14, 11, 107
1, 11835, Control_c, 13, 11, 119
1, 11860, Control_c, 14, 11, 103
1, 11875, Control_c, 13, 11, 115
1, 11900, Control_c, 14, 11, 99
1, 11920, Control_c, 13, 11, 111
1, 11940, Control_c, 14, 11, 95
1, 11965, Control_c, 13, 11, 107
1, 11975, Control_c, 14, 11, 91
1, 11985, Note_on_c, 0, 60, 0
1, 11985, Note_on_c, 0, 57, 0
1, 11985, Note_on_c, 0, 65, 0
1, 11997, Note_on_c, 0, 65, 69
1, 11998, Note_on_c, 0, 60, 69
1, 11999, Lyric_t, "Didn't "
1, 11999, Note_on_c, 3, 81, 87
1, 12001, Note_on_c, 0, 57, 70
1, 12005, Control_c, 13, 11, 103
1, 12015, Control_c, 14, 11, 87
1, 12050, Control_c, 13, 11, 99
1, 12055, Control_c, 14, 11, 83
1, 12095, Control_c, 13, 11, 95
1, 12095, Control_c, 14, 11, 79
1, 12105, Note_on_c, 3, 81, 0
1, 12135, Control_c, 13, 11, 91
1, 12135, Control_c, 14, 11, 75
1, 12164, Lyric_t, "they "
1, 12164, Note_on_c, 3, 84, 70
1, 12170, Control_c, 14, 11, 71
1, 12180, Control_c, 13, 11, 87
1, 12210, Control_c, 14, 11, 67
1, 12225, Control_c, 13, 11, 83
1, 12240, Control_c, 14, 11, 64
1, 12265, Control_c, 13, 11, 79
1, 12270, Control_c, 14, 11, 61
1, 12285, Note_on_c, 3, 84, 0
1, 12305, Control_c, 14, 11, 57
1, 12310, Control_c, 13, 11, 75
1, 12324, Lyric_t, "al"
1, 12324, Note_on_c, 3, 84, 86
1, 12345, Control_c, 14, 11, 53
1, 12355, Control_c, 13, 11, 71
1, 12385, Control_c, 14, 11, 49
1, 12390, Note_on_c, 3, 84, 0
1, 12395, Control_c, 13, 11, 67
1, 12398, Lyric_t, "ways "
1, 12398, Note_on_c, 3, 81, 83
1, 12425, Control_c, 14, 11, 45
1, 12430, Control_c, 13, 11, 64
1, 12460, Note_on_c, 12, 60, 0
1, 12460, Note_on_c, 14, 53, 0
1, 12460, Note_on_c, 12, 65, 0
1, 12460, Note_on_c, 12, 57, 0
1, 12460, Control_c, 13, 11, 61
1, 12465, Note_on_c, 0, 57, 0
1, 12465, Note_on_c, 0, 60, 0
1, 12465, Note_on_c, 0, 65, 0
1, 12465, Note_on_c, 13, 57, 0
1, 12465, Note_on_c, 13, 65, 0
1, 12465, Note_on_c, 0, 41, 0
1, 12465, Note_on_c, 13, 53, 0
1, 12465, Note_on_c, 13, 60, 0
1, 12465, Control_c, 14, 11, 41
1, 12478, Note_on_c, 12, 61, 48
1, 12480, Note_on_c, 0, 45, 68
1, 12480, Note_on_c, 0, 64, 70
1, 12480, Note_on_c, 0, 57, 71
1, 12481, Note_on_c, 0, 61, 70
1, 12481, Note_on_c, 12, 64, 48
1, 12482, Note_on_c, 12, 55, 52
1, 12500, Note_on_c, 3, 81, 0
1, 12525, Pitch_bend_c, 3, 4971
1, 12542, Lyric_t, "say "
1, 12542, Lyric_t, "\015"
1, 12542, Note_on_c, 3, 81, 75
1, 12560, Pitch_bend_c, 3, 5241
1, 12570, Pitch_bend_c, 3, 5777
1, 12580, Pitch_bend_c, 3, 6314
1, 12585, Control_c, 14, 11, 127
1, 12590, Pitch_bend_c, 3, 6851
1, 12600, Pitch_bend_c, 3, 7387
1, 12610, Pitch_bend_c, 3, 7924
1, 12615, Pitch_bend_c, 3, 8192
1, 12845, Control_c, 13, 11, 127
1, 12945, Note_on_c, 0, 61, 0
1, 12945, Note_on_c, 0, 57, 0
1, 12945, Note_on_c, 0, 64, 0
1, 12959, Note_on_c, 0, 57, 70
1, 12961, Note_on_c, 0, 61, 66
1, 12962, Note_on_c, 0, 64, 67
1, 13105, Note_on_c, 3, 81, 0
1, 13128, Lyric_t, "We "
1, 13128, Note_on_c, 3, 79, 75
1, 13265, Note_on_c, 3, 79, 0
1, 13272, Lyric_t, "were "
1, 13272, Note_on_c, 3, 79, 78
1, 13420, Note_on_c, 12, 55, 0
1, 13420, Note_on_c, 12, 64, 0
1, 13420, Note_on_c, 12, 61, 0
1, 13425, Note_on_c, 3, 79, 0
1, 13425, Note_on_c, 0, 64, 0
1, 13425, Note_on_c, 0, 61, 0
1, 13425, Note_on_c, 0, 57, 0
1, 13425, Note_on_c, 0, 45, 0
1, 13438, Note_on_c, 0, 50, 74
1, 13438, Note_on_c, 12, 57, 48
1, 13440, Note_on_c, 0, 57, 74
1, 13442, Note_on_c, 0, 62, 72
1, 13442, Note_on_c, 0, 65, 70
1, 13443, Note_on_c, 12, 53, 50
1, 13446, Lyric_t, "the "
1, 13446, Note_on_c, 3, 77, 93
1, 13448, Note_on_c, 12, 62, 50
1, 13585, Note_on_c, 3, 77, 0
1, 13604, Lyric_t, "luck"
1, 13604, Note_on_c, 3, 79, 70
1, 13670, Note_on_c, 3, 79, 0
1, 13688, Lyric_t, "y "
1, 13688, Note_on_c, 3, 77, 75
1, 13730, Note_on_c, 3, 77, 0
1, 13752, Lyric_t, "ones? "
1, 13752, Lyric_t, "\015"
1, 13752, Note_on_c, 3, 77, 74
1, 13905, Note_on_c, 0, 65, 0
1, 13905, Note_on_c, 0, 62, 0
1, 13905, Note_on_c, 0, 57, 0
1, 13919, Note_on_c, 0, 57, 71
1, 13921, Note_on_c, 0, 62, 71
1, 13923, Note_on_c, 0, 65, 69
1, 14065, Note_on_c, 3, 77, 0
1, 14078, Note_on_c, 3, 74, 70
1, 14150, Note_on_c, 3, 74, 0
1, 14385, Note_on_c, 0, 65, 0
1, 14385, Note_on_c, 0, 62, 0
1, 14385, Note_on_c, 0, 57, 0
1, 14397, Note_on_c, 0, 65, 67
1, 14398, Note_on_c, 0, 62, 66
1, 14400, Note_on_c, 0, 57, 69
1, 14759, Lyric_t, "I "
1, 14759, Note_on_c, 3, 74, 79
1, 14830, Note_on_c, 3, 74, 0
1, 14865, Note_on_c, 0, 57, 0
1, 14865, Note_on_c, 0, 62, 0
1, 14865, Note_on_c, 0, 65, 0
1, 14878, Note_on_c, 0, 62, 71
1, 14878, Lyric_t, "guess "
1, 14878, Note_on_c, 3, 77, 90
1, 14881, Note_on_c, 0, 65, 75
1, 14882, Note_on_c, 0, 57, 72
1, 15105, Note_on_c, 3, 77, 0
1, 15114, Lyric_t, "that "
1, 15114, Note_on_c, 3, 74, 76
1, 15225, Note_on_c, 3, 74, 0
1, 15274, Lyric_t, "we "
1, 15274, Note_on_c, 3, 79, 76
1, 15340, Note_on_c, 12, 62, 0
1, 15340, Note_on_c, 12, 53, 0
1, 15340, Note_on_c, 12, 57, 0
1, 15345, Note_on_c, 0, 57, 0
1, 15345, Note_on_c, 0, 65, 0
1, 15345, Note_on_c, 0, 62, 0
1, 15345, Note_on_c, 0, 50, 0
1, 15355, Note_on_c, 12, 62, 49
1, 15358, Note_on_c, 0, 62, 72
1, 15359, Note_on_c, 0, 58, 74
1, 15360, Note_on_c, 0, 43, 73
1, 15362, Note_on_c, 0, 65, 74
1, 15364, Note_on_c, 12, 53, 49
1, 15364, Note_on_c, 12, 58, 52
1, 15385, Note_on_c, 3, 79, 0
1, 15407, Lyric_t, "were "
1, 15407, Note_on_c, 3, 81, 90
1, 15470, Note_on_c, 3, 81, 0
1, 15505, Pitch_bend_c, 3, 4971
1, 15514, Lyric_t, "once. "
1, 15514, Lyric_t, "\015"
1, 15514, Note_on_c, 3, 79, 74
1, 15540, Pitch_bend_c, 3, 5241
1, 15550, Pitch_bend_c, 3, 5777
1, 15560, Pitch_bend_c, 3, 6314
1, 15570, Pitch_bend_c, 3, 6851
1, 15580, Pitch_bend_c, 3, 7387
1, 15590, Pitch_bend_c, 3, 7924
1, 15595, Pitch_bend_c, 3, 8192
1, 15825, Note_on_c, 0, 65, 0
1, 15825, Note_on_c, 0, 58, 0
1, 15825, Note_on_c, 0, 62, 0
1, 15839, Note_on_c, 0, 58, 70
1, 15839, Note_on_c, 0, 65, 71
1, 15842, Note_on_c, 0, 62, 70
1, 15865, Note_on_c, 3, 79, 0
1, 16300, Note_on_c, 12, 58, 0
1, 16300, Note_on_c, 12, 53, 0
1, 16300, Note_on_c, 12, 62, 0
1, 16305, Note_on_c, 0, 62, 0
1, 16305, Note_on_c, 0, 65, 0
1, 16305, Note_on_c, 0, 58, 0
1, 16305, Note_on_c, 0, 43, 0
1, 16316, Note_on_c, 12, 60, 48
1, 16317, Note_on_c, 12, 55, 52
1, 16319, Note_on_c, 0, 55, 70
1, 16319, Note_on_c, 0, 48, 72
1, 16320, Note_on_c, 0, 60, 71
1, 16320, Note_on_c, 0, 64, 73
1, 16323, Note_on_c, 12, 64, 49
1, 16545, Pitch_bend_c, 3, 4971
1, 16568, Lyric_t, "Babe "
1, 16568, Note_on_c, 3, 79, 80
1, 16580, Pitch_bend_c, 3, 5241
1, 16590, Pitch_bend_c, 3, 5777
1, 16600, Pitch_bend_c, 3, 6314
1, 16610, Pitch_bend_c, 3, 6851
1, 16620, Pitch_bend_c, 3, 7387
1, 16630, Pitch_bend_c, 3, 7924
1, 16635, Pitch_bend_c, 3, 8192
1, 16785, Note_on_c, 3, 79, 0
1, 16785, Note_on_c, 0, 64, 0
1, 16785, Note_on_c, 0, 60, 0
1, 16785, Note_on_c, 0, 55, 0
1, 16798, Note_on_c, 0, 55, 70
1, 16798, Note_on_c, 0, 60, 73
1, 16800, Note_on_c, 0, 64, 70
1, 17196, Lyric_t, "we "
1, 17196, Note_on_c, 3, 79, 78
1, 17260, Note_on_c, 12, 64, 0
1, 17260, Note_on_c, 12, 55, 0
1, 17260, Note_on_c, 12, 60, 0
1, 17265, Note_on_c, 0, 64, 0
1, 17265, Note_on_c, 0, 60, 0
1, 17265, Note_on_c, 0, 55, 0
1, 17265, Note_on_c, 0, 48, 0
1, 17277, Note_on_c, 12, 53, 51
1, 17279, Note_on_c, 12, 62, 52
1, 17280, Note_on_c, 0, 65, 74
1, 17281, Note_on_c, 0, 58, 75
1, 17281, Note_on_c, 0, 62, 77
1, 17282, Note_on_c, 0, 43, 74
1, 17282, Note_on_c, 12, 58, 48
1, 17305, Note_on_c, 3, 79, 0
1, 17322, Lyric_t, "were "
1, 17322, Note_on_c, 3, 77, 92
1, 17390, Note_on_c, 3, 77, 0
1, 17425, Pitch_bend_c, 3, 4971
1, 17440, Lyric_t, "once "
1, 17440, Lyric_t, "\015"
1, 17440, Note_on_c, 3, 79, 71
1, 17460, Pitch_bend_c, 3, 5241
1, 17470, Pitch_bend_c, 3, 5777
1, 17480, Pitch_bend_c, 3, 6314
1, 17490, Pitch_bend_c, 3, 6851
1, 17500, Pitch_bend_c, 3, 7387
1, 17510, Pitch_bend_c, 3, 7924
1, 17515, Pitch_bend_c, 3, 8192
1, 17745, Note_on_c, 3, 79, 0
1, 17745, Note_on_c, 0, 62, 0
1, 17745, Note_on_c, 0, 58, 0
1, 17745, Note_on_c, 0, 65, 0
1, 17759, Note_on_c, 0, 58, 72
1, 17760, Note_on_c, 0, 62, 71
1, 17760, Note_on_c, 0, 65, 71
1, 18220, Note_on_c, 12, 58, 0
1, 18220, Note_on_c, 12, 62, 0
1, 18220, Note_on_c, 12, 53, 0
1, 18225, Note_on_c, 0, 65, 0
1, 18225, Note_on_c, 0, 62, 0
1, 18225, Note_on_c, 0, 58, 0
1, 18225, Note_on_c, 0, 43, 0
1, 18238, Note_on_c, 6, 64, 47
1, 18239, Note_on_c, 0, 55, 71
1, 18239, Note_on_c, 12, 64, 50
1, 18240, Note_on_c, 0, 48, 70
1, 18240, Note_on_c, 0, 64, 73
1, 18241, Note_on_c, 12, 60, 49
1, 18242, Note_on_c, 0, 60, 74
1, 18243, Note_on_c, 6, 60, 49
1, 18243, Note_on_c, 6, 67, 47
1, 18247, Note_on_c, 12, 55, 48
1, 18485, Note_on_c, 6, 55, 44
1, 18705, Note_on_c, 0, 60, 0
1, 18705, Note_on_c, 0, 64, 0
1, 18705, Note_on_c, 0, 55, 0
1, 18721, Note_on_c, 0, 64, 77
1, 18723, Note_on_c, 0, 60, 76
1, 18723, Note_on_c, 0, 55, 77
1, 19085, Control_c, 14, 10, 94
1, 19095, Control_c, 14, 32, 0
1, 19095, Control_c, 14, 0, 0
1, 19105, Program_c, 14, 42
1, 19180, Note_on_c, 12, 55, 0
1, 19180, Note_on_c, 12, 60, 0
1, 19180, Note_on_c, 12, 64, 0
1, 19185, Note_on_c, 0, 55, 0
1, 19185, Note_on_c, 0, 60, 0
1, 19185, Note_on_c, 0, 64, 0
1, 19185, Note_on_c, 6, 55, 0
1, 19185, Note_on_c, 6, 67, 0
1, 19185, Note_on_c, 6, 60, 0
1, 19185, Note_on_c, 0, 48, 0
1, 19185, Note_on_c, 6, 64, 0
1, 19195, Note_on_c, 12, 57, 51
1, 19196, Note_on_c, 6, 53, 52
1, 19196, Note_on_c, 12, 60, 48
1, 19197, Note_on_c, 12, 65, 52
1, 19198, Note_on_c, 0, 65, 76
1, 19199, Note_on_c, 0, 60, 78
1, 19199, Note_on_c, 14, 57, 80
1, 19201, Note_on_c, 1, 41, 76
1, 19202, Note_on_c, 0, 57, 77
1, 19203, Note_on_c, 0, 41, 79
1, 19203, Note_on_c, 6, 60, 54
1, 19203, Note_on_c, 6, 65, 55
1, 19207, Note_on_c, 6, 57, 51
1, 19528, Lyric_t, "But "
1, 19528, Note_on_c, 3, 77, 75
1, 19590, Note_on_c, 3, 77, 0
1, 19665, Note_on_c, 0, 57, 0
1, 19665, Note_on_c, 0, 60, 0
1, 19665, Note_on_c, 0, 65, 0
1, 19674, Lyric_t, "luck "
1, 19674, Note_on_c, 3, 81, 88
1, 19679, Note_on_c, 0, 57, 72
1, 19680, Note_on_c, 0, 60, 73
1, 19680, Note_on_c, 0, 65, 72
1, 19785, Note_on_c, 3, 81, 0
1, 19800, Lyric_t, "will "
1, 19800, Note_on_c, 3, 84, 74
1, 19870, Note_on_c, 3, 84, 0
1, 19919, Lyric_t, "leave "
1, 19919, Note_on_c, 3, 84, 76
1, 20025, Note_on_c, 3, 84, 0
1, 20048, Lyric_t, "you "
1, 20048, Note_on_c, 3, 81, 87
1, 20135, Note_on_c, 1, 41, 0
1, 20140, Note_on_c, 12, 65, 0
1, 20140, Note_on_c, 12, 60, 0
1, 20140, Note_on_c, 12, 57, 0
1, 20145, Note_on_c, 3, 81, 0
1, 20145, Note_on_c, 0, 65, 0
1, 20145, Note_on_c, 0, 60, 0
1, 20145, Note_on_c, 0, 57, 0
1, 20145, Note_on_c, 6, 57, 0
1, 20145, Note_on_c, 6, 65, 0
1, 20145, Note_on_c, 6, 60, 0
1, 20145, Note_on_c, 0, 41, 0
1, 20145, Note_on_c, 6, 53, 0
1, 20155, Note_on_c, 14, 57, 0
1, 20157, Note_on_c, 0, 45, 75
1, 20157, Note_on_c, 0, 61, 76
1, 20158, Note_on_c, 0, 64, 75
1, 20159, Note_on_c, 12, 64, 48
1, 20161, Note_on_c, 14, 55, 80
1, 20162, Note_on_c, 0, 57, 76
1, 20163, Note_on_c, 1, 33, 75
1, 20163, Note_on_c, 12, 61, 51
1, 20167, Note_on_c, 12, 55, 52
1, 20225, Pitch_bend_c, 3, 4971
1, 20241, Lyric_t, "'cause "
1, 20241, Lyric_t, "\015"
1, 20241, Note_on_c, 3, 84, 74
1, 20260, Pitch_bend_c, 3, 5241
1, 20270, Pitch_bend_c, 3, 5777
1, 20280, Pitch_bend_c, 3, 6314
1, 20290, Pitch_bend_c, 3, 6851
1, 20300, Pitch_bend_c, 3, 7387
1, 20310, Pitch_bend_c, 3, 7924
1, 20315, Pitch_bend_c, 3, 8192
1, 20625, Note_on_c, 3, 84, 0
1, 20625, Note_on_c, 0, 57, 0
1, 20625, Note_on_c, 0, 64, 0
1, 20625, Note_on_c, 0, 61, 0
1, 20637, Note_on_c, 0, 61, 72
1, 20638, Note_on_c, 0, 64, 71
1, 20642, Note_on_c, 0, 57, 75
1, 20883, Lyric_t, "It "
1, 20883, Note_on_c, 3, 81, 80
1, 20985, Note_on_c, 3, 81, 0
1, 21046, Lyric_t, "is "
1, 21046, Note_on_c, 3, 79, 79
1, 21095, Note_on_c, 1, 33, 0
1, 21100, Note_on_c, 12, 55, 0
1, 21100, Note_on_c, 12, 61, 0
1, 21100, Note_on_c, 12, 64, 0
1, 21105, Note_on_c, 0, 57, 0
1, 21105, Note_on_c, 0, 64, 0
1, 21105, Note_on_c, 0, 61, 0
1, 21105, Note_on_c, 0, 45, 0
1, 21115, Note_on_c, 14, 55, 0
1, 21117, Note_on_c, 12, 57, 52
1, 21117, Note_on_c, 12, 53, 52
1, 21118, Note_on_c, 1, 38, 79
1, 21119, Note_on_c, 0, 50, 79
1, 21119, Note_on_c, 0, 57, 81
1, 21120, Note_on_c, 0, 62, 79
1, 21120, Note_on_c, 0, 65, 78
1, 21122, Note_on_c, 12, 62, 49
1, 21123, Note_on_c, 14, 57, 80
1, 21145, Note_on_c, 3, 79, 0
1, 21193, Lyric_t, "a "
1, 21193, Note_on_c, 3, 77, 73
1, 21345, Note_on_c, 3, 77, 0
1, 21357, Lyric_t, "faith"
1, 21357, Note_on_c, 3, 79, 77
1, 21465, Note_on_c, 3, 79, 0
1, 21519, Lyric_t, "less "
1, 21519, Note_on_c, 3, 77, 75
1, 21585, Note_on_c, 0, 65, 0
1, 21585, Note_on_c, 0, 62, 0
1, 21585, Note_on_c, 0, 57, 0
1, 21598, Note_on_c, 0, 62, 78
1, 21600, Note_on_c, 0, 57, 79
1, 21600, Note_on_c, 0, 65, 78
1, 21625, Note_on_c, 3, 77, 0
1, 21677, Lyric_t, "friend "
1, 21677, Lyric_t, "\015"
1, 21677, Note_on_c, 3, 77, 73
1, 21985, Note_on_c, 3, 77, 0
1, 22008, Note_on_c, 3, 74, 87
1, 22065, Note_on_c, 0, 65, 0
1, 22065, Note_on_c, 0, 57, 0
1, 22065, Note_on_c, 0, 62, 0
1, 22065, Note_on_c, 0, 50, 0
1, 22070, Note_on_c, 3, 74, 0
1, 22075, Note_on_c, 14, 57, 0
1, 22079, Note_on_c, 0, 57, 76
1, 22079, Note_on_c, 14, 62, 80
1, 22080, Note_on_c, 0, 62, 74
1, 22083, Note_on_c, 0, 65, 75
1, 22545, Note_on_c, 0, 65, 0
1, 22545, Note_on_c, 0, 62, 0
1, 22545, Note_on_c, 0, 57, 0
1, 22557, Note_on_c, 0, 65, 79
1, 22557, Note_on_c, 0, 57, 78
1, 22559, Note_on_c, 0, 62, 78
1, 22799, Lyric_t, "And "
1, 22799, Note_on_c, 3, 74, 77
1, 22905, Note_on_c, 3, 74, 0
1, 22961, Lyric_t, "in "
1, 22961, Note_on_c, 3, 79, 76
1, 23015, Note_on_c, 1, 38, 0
1, 23020, Note_on_c, 12, 62, 0
1, 23020, Note_on_c, 12, 53, 0
1, 23020, Note_on_c, 12, 57, 0
1, 23025, Note_on_c, 0, 62, 0
1, 23025, Note_on_c, 0, 57, 0
1, 23025, Note_on_c, 0, 65, 0
1, 23033, Note_on_c, 12, 58, 48
1, 23037, Note_on_c, 12, 53, 49
1, 23037, Note_on_c, 12, 62, 49
1, 23040, Note_on_c, 0, 65, 79
1, 23041, Note_on_c, 0, 43, 78
1, 23043, Note_on_c, 0, 58, 81
1, 23043, Note_on_c, 0, 62, 78
1, 23048, Note_on_c, 1, 43, 81
1, 23105, Note_on_c, 3, 79, 0
1, 23117, Lyric_t, "the "
1, 23117, Note_on_c, 3, 81, 73
1, 23225, Note_on_c, 3, 81, 0
1, 23265, Pitch_bend_c, 3, 4971
1, 23279, Lyric_t, "end "
1, 23279, Lyric_t, "\015"
1, 23279, Note_on_c, 3, 79, 80
1, 23300, Pitch_bend_c, 3, 5241
1, 23310, Pitch_bend_c, 3, 5777
1, 23320, Pitch_bend_c, 3, 6314
1, 23330, Pitch_bend_c, 3, 6851
1, 23340, Pitch_bend_c, 3, 7387
1, 23350, Pitch_bend_c, 3, 7924
1, 23355, Pitch_bend_c, 3, 8192
1, 23505, Note_on_c, 0, 62, 0
1, 23505, Note_on_c, 0, 58, 0
1, 23505, Note_on_c, 0, 65, 0
1, 23518, Note_on_c, 0, 58, 79
1, 23519, Note_on_c, 0, 62, 78
1, 23520, Note_on_c, 0, 65, 77
1, 23585, Note_on_c, 3, 79, 0
1, 23975, Note_on_c, 1, 43, 0
1, 23980, Note_on_c, 12, 62, 0
1, 23980, Note_on_c, 12, 53, 0
1, 23980, Note_on_c, 12, 58, 0
1, 23985, Note_on_c, 0, 65, 0
1, 23985, Note_on_c, 0, 62, 0
1, 23985, Note_on_c, 0, 58, 0
1, 23985, Note_on_c, 0, 43, 0
1, 23995, Note_on_c, 14, 62, 0
1, 23996, Note_on_c, 12, 61, 51
1, 23997, Note_on_c, 0, 61, 78
1, 24001, Note_on_c, 0, 45, 77
1, 24002, Note_on_c, 0, 55, 78
1, 24002, Note_on_c, 1, 45, 83
1, 24002, Note_on_c, 14, 65, 80
1, 24003, Note_on_c, 0, 64, 78
1, 24006, Note_on_c, 12, 64, 51
1, 24006, Note_on_c, 12, 55, 52
1, 24115, Note_on_c, 14, 65, 0
1, 24115, Lyric_t, "When "
1, 24115, Note_on_c, 3, 77, 76
1, 24123, Note_on_c, 14, 64, 80
1, 24190, Note_on_c, 3, 77, 0
1, 24225, Pitch_bend_c, 3, 4971
1, 24235, Lyric_t, "life "
1, 24235, Note_on_c, 3, 81, 76
1, 24260, Pitch_bend_c, 3, 5241
1, 24270, Pitch_bend_c, 3, 5777
1, 24280, Pitch_bend_c, 3, 6314
1, 24290, Pitch_bend_c, 3, 6851
1, 24300, Pitch_bend_c, 3, 7387
1, 24310, Pitch_bend_c, 3, 7924
1, 24315, Pitch_bend_c, 3, 8192
1, 24455, Note_on_c, 1, 45, 0
1, 24465, Note_on_c, 0, 64, 0
1, 24465, Note_on_c, 0, 55, 0
1, 24465, Note_on_c, 0, 61, 0
1, 24478, Note_on_c, 0, 55, 76
1, 24481, Note_on_c, 0, 61, 77
1, 24483, Note_on_c, 0, 64, 78
1, 24487, Note_on_c, 1, 37, 78
1, 24545, Note_on_c, 3, 81, 0
1, 24798, Lyric_t, "has "
1, 24798, Note_on_c, 3, 79, 78
1, 24895, Note_on_c, 3, 79, 0
1, 24908, Lyric_t, "got "
1, 24908, Note_on_c, 3, 77, 90
1, 24935, Note_on_c, 1, 37, 0
1, 24940, Note_on_c, 12, 55, 0
1, 24940, Note_on_c, 12, 64, 0
1, 24940, Note_on_c, 12, 61, 0
1, 24945, Note_on_c, 0, 64, 0
1, 24945, Note_on_c, 0, 61, 0
1, 24945, Note_on_c, 0, 55, 0
1, 24945, Note_on_c, 0, 45, 0
1, 24954, Note_on_c, 12, 53, 52
1, 24955, Note_on_c, 14, 64, 0
1, 24955, Note_on_c, 12, 62, 48
1, 24957, Note_on_c, 12, 57, 52
1, 24958, Note_on_c, 0, 50, 81
1, 24958, Note_on_c, 1, 38, 85
1, 24959, Note_on_c, 0, 65, 79
1, 24961, Note_on_c, 0, 62, 81
1, 24961, Note_on_c, 13, 53, 58
1, 24962, Note_on_c, 0, 57, 79
1, 24963, Note_on_c, 14, 65, 80
1, 25000, Note_on_c, 3, 77, 0
1, 25007, Lyric_t, "you "
1, 25007, Note_on_c, 3, 79, 92
1, 25080, Note_on_c, 3, 79, 0
1, 25105, Pitch_bend_c, 3, 4971
1, 25120, Lyric_t, "down "
1, 25120, Lyric_t, "\015"
1, 25120, Note_on_c, 3, 81, 70
1, 25140, Pitch_bend_c, 3, 5241
1, 25150, Pitch_bend_c, 3, 5777
1, 25160, Pitch_bend_c, 3, 6314
1, 25170, Pitch_bend_c, 3, 6851
1, 25180, Pitch_bend_c, 3, 7387
1, 25190, Pitch_bend_c, 3, 7924
1, 25195, Pitch_bend_c, 3, 8192
1, 25425, Note_on_c, 3, 81, 0
1, 25425, Note_on_c, 0, 57, 0
1, 25440, Note_on_c, 0, 57, 82
1, 25443, Note_on_c, 0, 53, 78
1, 25665, Note_on_c, 0, 62, 0
1, 25677, Note_on_c, 0, 62, 73
1, 25785, Note_on_c, 0, 65, 0
1, 25803, Note_on_c, 0, 65, 76
1, 25895, Note_on_c, 1, 38, 0
1, 25900, Note_on_c, 12, 57, 0
1, 25900, Note_on_c, 12, 62, 0
1, 25900, Note_on_c, 12, 53, 0
1, 25905, Note_on_c, 0, 65, 0
1, 25905, Note_on_c, 0, 62, 0
1, 25905, Note_on_c, 0, 53, 0
1, 25905, Note_on_c, 0, 57, 0
1, 25905, Note_on_c, 0, 50, 0
1, 25914, Note_on_c, 1, 43, 80
1, 25918, Note_on_c, 12, 59, 52
1, 25919, Note_on_c, 0, 55, 78
1, 25919, Note_on_c, 0, 59, 78
1, 25921, Note_on_c, 0, 65, 79
1, 25921, Note_on_c, 12, 62, 52
1, 25922, Note_on_c, 0, 62, 77
1, 25928, Note_on_c, 12, 55, 49
1, 26385, Note_on_c, 0, 62, 0
1, 26385, Note_on_c, 0, 59, 0
1, 26385, Note_on_c, 0, 55, 0
1, 26385, Note_on_c, 13, 53, 0
1, 26395, Note_on_c, 14, 65, 0
1, 26395, Note_on_c, 13, 50, 60
1, 26397, Note_on_c, 14, 62, 80
1, 26398, Note_on_c, 0, 62, 80
1, 26400, Note_on_c, 0, 55, 84
1, 26401, Note_on_c, 0, 59, 82
1, 26647, Lyric_t, "You've "
1, 26647, Note_on_c, 3, 77, 79
1, 26745, Note_on_c, 3, 77, 0
1, 26755, Control_c, 13, 11, 123
1, 26755, Control_c, 14, 11, 123
1, 26767, Lyric_t, "got "
1, 26767, Note_on_c, 3, 79, 75
1, 26855, Note_on_c, 1, 43, 0
1, 26860, Note_on_c, 12, 55, 0
1, 26860, Note_on_c, 12, 62, 0
1, 26860, Note_on_c, 12, 59, 0
1, 26865, Note_on_c, 3, 79, 0
1, 26865, Note_on_c, 0, 59, 0
1, 26865, Note_on_c, 0, 55, 0
1, 26865, Note_on_c, 0, 62, 0
1, 26865, Note_on_c, 13, 50, 0
1, 26865, Note_on_c, 0, 65, 0
1, 26875, Note_on_c, 14, 62, 0
1, 26877, Note_on_c, 12, 55, 52
1, 26878, Note_on_c, 0, 62, 82
1, 26878, Note_on_c, 12, 62, 49
1, 26879, Note_on_c, 0, 55, 86
1, 26880, Note_on_c, 1, 43, 85
1, 26880, Note_on_c, 14, 62, 80
1, 26881, Note_on_c, 0, 43, 83
1, 26881, Note_on_c, 0, 58, 84
1, 26882, Note_on_c, 2, 43, 66
1, 26882, Note_on_c, 12, 58, 50
1, 26882, Note_on_c, 13, 50, 58
1, 26887, Note_on_c, 2, 50, 66
1, 26899, Note_on_c, 2, 55, 69
1, 26902, Note_on_c, 2, 58, 66
1, 26915, Control_c, 13, 11, 119
1, 26915, Control_c, 14, 11, 119
1, 26919, Note_on_c, 2, 62, 66
1, 26955, Lyric_t, "some"
1, 26955, Note_on_c, 3, 81, 73
1, 27075, Control_c, 13, 11, 115
1, 27075, Control_c, 14, 11, 115
1, 27085, Note_on_c, 3, 81, 0
1, 27094, Lyric_t, "one "
1, 27094, Note_on_c, 3, 79, 81
1, 27225, Note_on_c, 3, 79, 0
1, 27235, Control_c, 13, 11, 111
1, 27235, Control_c, 14, 11, 111
1, 27241, Lyric_t, "here "
1, 27241, Lyric_t, "\015"
1, 27241, Note_on_c, 3, 77, 77
1, 27345, Note_on_c, 0, 58, 0
1, 27345, Note_on_c, 0, 55, 0
1, 27358, Note_on_c, 0, 58, 82
1, 27363, Note_on_c, 0, 55, 80
1, 27395, Control_c, 13, 11, 107
1, 27395, Control_c, 14, 11, 107
1, 27465, Note_on_c, 3, 77, 0
1, 27477, Lyric_t, "That "
1, 27477, Note_on_c, 3, 74, 71
1, 27550, Note_on_c, 3, 74, 0
1, 27555, Control_c, 13, 11, 103
1, 27555, Control_c, 14, 11, 103
1, 27605, Lyric_t, "you "
1, 27605, Note_on_c, 3, 77, 77
1, 27705, Note_on_c, 3, 77, 0
1, 27714, Lyric_t, "can "
1, 27714, Note_on_c, 3, 79, 85
1, 27715, Control_c, 13, 11, 99
1, 27715, Control_c, 14, 11, 99
1, 27790, Note_on_c, 3, 79, 0
1, 27815, Note_on_c, 1, 43, 0
1, 27820, Note_on_c, 12, 58, 0
1, 27820, Note_on_c, 12, 62, 0
1, 27820, Note_on_c, 12, 55, 0
1, 27825, Note_on_c, 0, 55, 0
1, 27825, Note_on_c, 0, 58, 0
1, 27825, Note_on_c, 2, 62, 0
1, 27825, Note_on_c, 2, 58, 0
1, 27825, Note_on_c, 2, 55, 0
1, 27825, Note_on_c, 2, 50, 0
1, 27825, Note_on_c, 13, 50, 0
1, 27825, Note_on_c, 2, 43, 0
1, 27825, Note_on_c, 0, 43, 0
1, 27825, Note_on_c, 0, 62, 0
1, 27825, Pitch_bend_c, 3, 4971
1, 27835, Note_on_c, 14, 62, 0
1, 27837, Lyric_t, "wrap "
1, 27837, Note_on_c, 2, 48, 66
1, 27837, Note_on_c, 3, 81, 86
1, 27838, Note_on_c, 0, 48, 80
1, 27838, Note_on_c, 1, 36, 83
1, 27840, Note_on_c, 0, 60, 80
1, 27841, Note_on_c, 0, 55, 82
1, 27841, Note_on_c, 14, 60, 75
1, 27842, Note_on_c, 0, 64, 82
1, 27842, Note_on_c, 13, 48, 58
1, 27847, Note_on_c, 12, 55, 50
1, 27847, Note_on_c, 12, 60, 51
1, 27848, Note_on_c, 2, 55, 66
1, 27848, Note_on_c, 12, 64, 50
1, 27860, Pitch_bend_c, 3, 5241
1, 27861, Note_on_c, 2, 60, 69
1, 27866, Note_on_c, 2, 64, 66
1, 27870, Pitch_bend_c, 3, 5777
1, 27875, Control_c, 13, 11, 95
1, 27875, Control_c, 14, 11, 95
1, 27880, Pitch_bend_c, 3, 6314
1, 27890, Pitch_bend_c, 3, 6851
1, 27900, Pitch_bend_c, 3, 7387
1, 27910, Pitch_bend_c, 3, 7924
1, 27915, Pitch_bend_c, 3, 8192
1, 28035, Control_c, 13, 11, 91
1, 28035, Control_c, 14, 11, 91
1, 28065, Note_on_c, 3, 81, 0
1, 28080, Lyric_t, "your "
1, 28080, Note_on_c, 3, 79, 80
1, 28150, Note_on_c, 3, 79, 0
1, 28195, Control_c, 13, 11, 87
1, 28195, Control_c, 14, 11, 87
1, 28199, Lyric_t, "arms "
1, 28199, Note_on_c, 3, 79, 78
1, 28305, Note_on_c, 0, 64, 0
1, 28305, Note_on_c, 0, 55, 0
1, 28305, Note_on_c, 0, 60, 0
1, 28317, Note_on_c, 0, 55, 56
1, 28322, Note_on_c, 0, 64, 52
1, 28323, Note_on_c, 0, 60, 52
1, 28355, Control_c, 13, 11, 83
1, 28355, Control_c, 14, 11, 83
1, 28425, Note_on_c, 3, 79, 0
1, 28433, Lyric_t, "a"
1, 28433, Note_on_c, 3, 77, 76
1, 28510, Note_on_c, 3, 77, 0
1, 28515, Control_c, 13, 11, 79
1, 28515, Control_c, 14, 11, 79
1, 28563, Lyric_t, "round "
1, 28563, Lyric_t, "\015"
1, 28563, Note_on_c, 3, 77, 77
1, 28675, Control_c, 13, 11, 75
1, 28675, Control_c, 14, 11, 75
1, 28765, Control_c, 3, 11, 123
1, 28775, Note_on_c, 1, 36, 0
1, 28780, Note_on_c, 12, 64, 0
1, 28780, Note_on_c, 12, 60, 0
1, 28780, Note_on_c, 12, 55, 0
1, 28785, Note_on_c, 0, 60, 0
1, 28785, Note_on_c, 0, 64, 0
1, 28785, Note_on_c, 0, 55, 0
1, 28785, Note_on_c, 2, 64, 0
1, 28785, Note_on_c, 2, 60, 0
1, 28785, Note_on_c, 2, 55, 0
1, 28785, Note_on_c, 13, 48, 0
1, 28785, Note_on_c, 0, 48, 0
1, 28785, Note_on_c, 2, 48, 0
1, 28792, Note_on_c, 12, 57, 50
1, 28793, Note_on_c, 13, 53, 60
1, 28795, Note_on_c, 14, 60, 0
1, 28798, Note_on_c, 12, 60, 49
1, 28799, Note_on_c, 0, 41, 86
1, 28800, Note_on_c, 1, 41, 90
1, 28800, Note_on_c, 14, 53, 70
1, 28802, Note_on_c, 0, 60, 85
1, 28802, Note_on_c, 0, 65, 84
1, 28803, Note_on_c, 0, 57, 83
1, 28803, Note_on_c, 2, 53, 66
1, 28803, Note_on_c, 12, 65, 52
1, 28805, Note_on_c, 2, 57, 66
1, 28805, Control_c, 3, 11, 119
1, 28820, Note_on_c, 2, 60, 69
1, 28825, Note_on_c, 2, 65, 66
1, 28835, Control_c, 13, 11, 71
1, 28835, Control_c, 14, 11, 71
1, 28845, Control_c, 3, 11, 115
1, 28880, Control_c, 3, 11, 111
1, 28920, Control_c, 3, 11, 107
1, 28955, Control_c, 3, 11, 103
1, 28995, Control_c, 3, 11, 99
1, 28995, Control_c, 13, 11, 67
1, 28995, Control_c, 14, 11, 67
1, 29035, Control_c, 3, 11, 95
1, 29070, Control_c, 3, 11, 91
1, 29110, Control_c, 3, 11, 87
1, 29115, Control_c, 13, 11, 64
1, 29115, Control_c, 14, 11, 64
1, 29150, Control_c, 3, 11, 83
1, 29185, Control_c, 3, 11, 79
1, 29225, Control_c, 3, 11, 75
1, 29235, Control_c, 13, 11, 61
1, 29235, Control_c, 14, 11, 61
1, 29265, Note_on_c, 0, 57, 0
1, 29265, Note_on_c, 0, 65, 0
1, 29265, Note_on_c, 0, 60, 0
1, 29265, Note_on_c, 13, 53, 0
1, 29265, Note_on_c, 3, 77, 0
1, 29265, Control_c, 3, 11, 71
1, 29275, Note_on_c, 14, 53, 0
1, 29281, Note_on_c, 0, 65, 84
1, 29281, Note_on_c, 0, 60, 82
1, 29282, Note_on_c, 0, 57, 85
1, 29460, Control_c, 3, 11, 127
1, 29470, Note_on_c, 1, 41, 0
1, 29505, Pitch_bend_c, 1, 4096
1, 29512, Note_on_c, 1, 34, 81
1, 29625, Control_c, 14, 11, 127
1, 29640, Pitch_bend_c, 1, 8192
1, 29735, Note_on_c, 1, 34, 0
1, 29740, Note_on_c, 12, 65, 0
1, 29740, Note_on_c, 12, 60, 0
1, 29740, Note_on_c, 12, 57, 0
1, 29745, Note_on_c, 0, 57, 0
1, 29745, Note_on_c, 0, 60, 0
1, 29745, Note_on_c, 0, 65, 0
1, 29745, Note_on_c, 2, 65, 0
1, 29745, Note_on_c, 2, 60, 0
1, 29745, Note_on_c, 2, 57, 0
1, 29745, Note_on_c, 2, 53, 0
1, 29745, Note_on_c, 0, 41, 0
1, 29754, Note_on_c, 12, 65, 49
1, 29757, Note_on_c, 12, 62, 49
1, 29759, Note_on_c, 1, 36, 84
1, 29759, Note_on_c, 2, 53, 66
1, 29760, Note_on_c, 0, 65, 82
1, 29760, Note_on_c, 9, 57, 5
1, 29761, Note_on_c, 0, 62, 80
1, 29762, Note_on_c, 0, 58, 81
1, 29762, Note_on_c, 0, 48, 80
1, 29763, Note_on_c, 2, 58, 66
1, 29763, Note_on_c, 12, 58, 48
1, 29773, Note_on_c, 9, 57, 0
1, 29783, Note_on_c, 2, 62, 69
1, 29787, Note_on_c, 2, 65, 66
1, 29800, Note_on_c, 9, 57, 6
1, 29813, Note_on_c, 9, 57, 0
1, 29840, Note_on_c, 9, 57, 7
1, 29853, Note_on_c, 9, 57, 0
1, 29880, Note_on_c, 9, 57, 8
1, 29893, Note_on_c, 9, 57, 0
1, 29920, Note_on_c, 9, 57, 10
1, 29933, Note_on_c, 9, 57, 0
1, 29960, Note_on_c, 9, 57, 11
1, 29973, Note_on_c, 9, 57, 0
1, 30000, Note_on_c, 9, 57, 12
1, 30013, Note_on_c, 9, 57, 0
1, 30040, Note_on_c, 9, 57, 13
1, 30053, Note_on_c, 9, 57, 0
1, 30080, Note_on_c, 9, 57, 15
1, 30093, Note_on_c, 9, 57, 0
1, 30115, Lyric_t, "So "
1, 30115, Note_on_c, 3, 77, 78
1, 30120, Note_on_c, 9, 57, 16
1, 30133, Note_on_c, 9, 57, 0
1, 30160, Note_on_c, 9, 57, 17
1, 30173, Note_on_c, 9, 57, 0
1, 30200, Note_on_c, 9, 57, 18
1, 30210, Note_on_c, 3, 77, 0
1, 30213, Note_on_c, 9, 57, 0
1, 30225, Note_on_c, 0, 58, 0
1, 30225, Note_on_c, 0, 62, 0
1, 30233, Lyric_t, "hold "
1, 30233, Note_on_c, 3, 81, 92
1, 30240, Note_on_c, 0, 58, 88
1, 30240, Note_on_c, 9, 57, 20
1, 30243, Note_on_c, 0, 62, 88
1, 30253, Note_on_c, 9, 57, 0
1, 30280, Note_on_c, 9, 57, 21
1, 30293, Note_on_c, 9, 57, 0
1, 30320, Note_on_c, 9, 57, 22
1, 30333, Note_on_c, 9, 57, 0
1, 30360, Note_on_c, 9, 57, 23
1, 30373, Note_on_c, 9, 57, 0
1, 30400, Note_on_c, 9, 57, 25
1, 30413, Note_on_c, 9, 57, 0
1, 30425, Note_on_c, 3, 81, 0
1, 30440, Note_on_c, 9, 57, 26
1, 30453, Note_on_c, 9, 57, 0
1, 30465, Pitch_bend_c, 3, 4971
1, 30480, Note_on_c, 9, 57, 27
1, 30481, Lyric_t, "on "
1, 30481, Note_on_c, 3, 84, 76
1, 30493, Note_on_c, 9, 57, 0
1, 30500, Pitch_bend_c, 3, 5241
1, 30510, Pitch_bend_c, 3, 5777
1, 30520, Pitch_bend_c, 3, 6314
1, 30520, Note_on_c, 9, 57, 28
1, 30530, Pitch_bend_c, 3, 6851
1, 30533, Note_on_c, 9, 57, 0
1, 30540, Pitch_bend_c, 3, 7387
1, 30550, Pitch_bend_c, 3, 7924
1, 30555, Pitch_bend_c, 3, 8192
1, 30560, Note_on_c, 9, 57, 30
1, 30573, Note_on_c, 9, 57, 0
1, 30575, Note_on_c, 1, 36, 0
1, 30600, Note_on_c, 9, 57, 31
1, 30613, Note_on_c, 9, 57, 0
1, 30640, Note_on_c, 9, 57, 32
1, 30653, Note_on_c, 9, 57, 0
1, 30680, Note_on_c, 9, 57, 33
1, 30693, Note_on_c, 9, 57, 0
1, 30695, Control_c, 13, 11, 70
1, 30700, Note_on_c, 12, 58, 0
1, 30700, Note_on_c, 12, 62, 0
1, 30700, Note_on_c, 12, 65, 0
1, 30705, Note_on_c, 0, 62, 0
1, 30705, Note_on_c, 0, 58, 0
1, 30705, Note_on_c, 2, 65, 0
1, 30705, Note_on_c, 2, 62, 0
1, 30705, Note_on_c, 2, 58, 0
1, 30705, Note_on_c, 0, 48, 0
1, 30705, Note_on_c, 0, 65, 0
1, 30705, Note_on_c, 2, 53, 0
1, 30714, Note_on_c, 13, 41, 62
1, 30716, Note_on_c, 13, 65, 59
1, 30717, Note_on_c, 13, 60, 60
1, 30718, Note_on_c, 2, 53, 82
1, 30720, Note_on_c, 0, 65, 88
1, 30720, Note_on_c, 9, 57, 35
1, 30721, Note_on_c, 0, 60, 88
1, 30722, Note_on_c, 0, 57, 90
1, 30722, Note_on_c, 13, 57, 59
1, 30723, Note_on_c, 0, 41, 88
1, 30723, Note_on_c, 1, 29, 91
1, 30723, Note_on_c, 2, 60, 84
1, 30723, Note_on_c, 2, 57, 82
1, 30723, Note_on_c, 5, 60, 85
1, 30723, Note_on_c, 6, 41, 80
1, 30724, Note_on_c, 5, 53, 83
1, 30725, Note_on_c, 2, 65, 83
1, 30725, Note_on_c, 5, 57, 82
1, 30725, Note_on_c, 5, 65, 85
1, 30733, Note_on_c, 9, 57, 0
1, 30770, Control_c, 13, 11, 74
1, 30835, Control_c, 13, 11, 78
1, 30905, Control_c, 13, 11, 82
1, 30952, Note_on_c, 6, 48, 73
1, 30975, Control_c, 13, 11, 86
1, 31040, Control_c, 13, 11, 90
1, 31110, Control_c, 13, 11, 94
1, 31180, Control_c, 13, 11, 98
1, 31185, Note_on_c, 5, 65, 0
1, 31185, Note_on_c, 5, 57, 0
1, 31185, Note_on_c, 2, 65, 0
1, 31185, Note_on_c, 5, 53, 0
1, 31185, Note_on_c, 5, 60, 0
1, 31185, Note_on_c, 2, 57, 0
1, 31185, Note_on_c, 2, 60, 0
1, 31185, Note_on_c, 0, 57, 0
1, 31185, Note_on_c, 0, 60, 0
1, 31185, Note_on_c, 0, 65, 0
1, 31185, Note_on_c, 2, 53, 0
1, 31193, Note_on_c, 2, 65, 79
1, 31195, Note_on_c, 5, 53, 81
1, 31198, Note_on_c, 5, 60, 81
1, 31198, Note_on_c, 9, 54, 75
1, 31199, Note_on_c, 6, 57, 82
1, 31200, Note_on_c, 2, 60, 81
1, 31201, Note_on_c, 0, 60, 82
1, 31201, Note_on_c, 0, 65, 83
1, 31201, Note_on_c, 5, 57, 78
1, 31202, Note_on_c, 0, 57, 84
1, 31203, Note_on_c, 2, 53, 82
1, 31205, Note_on_c, 2, 57, 78
1, 31206, Note_on_c, 5, 65, 79
1, 31211, Note_on_c, 9, 54, 0
1, 31245, Control_c, 13, 11, 102
1, 31315, Control_c, 13, 11, 106
1, 31385, Control_c, 13, 11, 110
1, 31450, Control_c, 13, 11, 114
1, 31520, Control_c, 13, 11, 118
1, 31535, Note_on_c, 1, 29, 0
1, 31562, Note_on_c, 1, 31, 88
1, 31585, Control_c, 13, 11, 122
1, 31655, Note_on_c, 1, 31, 0
1, 31655, Control_c, 13, 11, 126
1, 31665, Note_on_c, 5, 65, 0
1, 31665, Note_on_c, 2, 57, 0
1, 31665, Note_on_c, 2, 53, 0
1, 31665, Note_on_c, 0, 57, 0
1, 31665, Note_on_c, 5, 57, 0
1, 31665, Note_on_c, 0, 65, 0
1, 31665, Note_on_c, 0, 60, 0
1, 31665, Note_on_c, 2, 60, 0
1, 31665, Note_on_c, 6, 57, 0
1, 31665, Note_on_c, 5, 60, 0
1, 31665, Note_on_c, 5, 53, 0
1, 31665, Note_on_c, 2, 65, 0
1, 31665, Note_on_c, 6, 48, 0
1, 31665, Note_on_c, 6, 41, 0
1, 31665, Note_on_c, 0, 41, 0
1, 31665, Note_on_c, 13, 57, 0
1, 31665, Note_on_c, 13, 60, 0
1, 31665, Note_on_c, 13, 65, 0
1, 31665, Note_on_c, 13, 41, 0
1, 31672, Note_on_c, 6, 48, 78
1, 31675, Control_c, 13, 11, 127
1, 31678, Note_on_c, 0, 65, 85
1, 31678, Note_on_c, 5, 53, 79
1, 31679, Note_on_c, 0, 63, 83
1, 31680, Note_on_c, 0, 45, 84
1, 31680, Note_on_c, 2, 53, 78
1, 31680, Note_on_c, 13, 65, 61
1, 31682, Note_on_c, 0, 60, 86
1, 31682, Note_on_c, 1, 33, 87
1, 31684, Note_on_c, 13, 57, 62
1, 31684, Note_on_c, 13, 60, 59
1, 31685, Note_on_c, 13, 45, 59
1, 31687, Note_on_c, 2, 57, 78
1, 31697, Note_on_c, 5, 57, 80
1, 31703, Note_on_c, 2, 63, 82
1, 31704, Note_on_c, 2, 65, 78
1, 31705, Note_on_c, 5, 63, 82
1, 31707, Note_on_c, 5, 65, 82
1, 31922, Note_on_c, 6, 51, 73
1, 32025, Note_on_c, 3, 84, 0
1, 32145, Note_on_c, 0, 60, 0
1, 32145, Note_on_c, 0, 63, 0
1, 32145, Note_on_c, 0, 65, 0
1, 32145, Pitch_bend_c, 3, 4971
1, 32157, Note_on_c, 0, 65, 80
1, 32157, Note_on_c, 9, 54, 76
1, 32158, Note_on_c, 0, 60, 83
1, 32160, Note_on_c, 0, 63, 81
1, 32161, Lyric_t, "to "
1, 32161, Note_on_c, 3, 81, 88
1, 32163, Note_on_c, 6, 60, 79
1, 32170, Note_on_c, 9, 54, 0
1, 32180, Pitch_bend_c, 3, 5241
1, 32190, Pitch_bend_c, 3, 5777
1, 32200, Pitch_bend_c, 3, 6314
1, 32210, Pitch_bend_c, 3, 6851
1, 32220, Pitch_bend_c, 3, 7387
1, 32230, Pitch_bend_c, 3, 7924
1, 32235, Pitch_bend_c, 3, 8192
1, 32265, Note_on_c, 3, 81, 0
1, 32284, Note_on_c, 3, 79, 73
1, 32385, Note_on_c, 3, 79, 0
1, 32397, Lyric_t, "me "
1, 32397, Note_on_c, 3, 79, 78
1, 32470, Note_on_c, 3, 79, 0
1, 32528, Lyric_t, "tight. "
1, 32528, Lyric_t, "\015"
1, 32528, Note_on_c, 3, 77, 80
1, 32615, Note_on_c, 1, 33, 0
1, 32625, Note_on_c, 6, 60, 0
1, 32625, Note_on_c, 0, 63, 0
1, 32625, Note_on_c, 0, 60, 0
1, 32625, Note_on_c, 0, 65, 0
1, 32625, Note_on_c, 6, 51, 0
1, 32625, Note_on_c, 5, 65, 0
1, 32625, Note_on_c, 5, 63, 0
1, 32625, Note_on_c, 2, 65, 0
1, 32625, Note_on_c, 2, 63, 0
1, 32625, Note_on_c, 5, 57, 0
1, 32625, Note_on_c, 2, 57, 0
1, 32625, Note_on_c, 13, 45, 0
1, 32625, Note_on_c, 13, 60, 0
1, 32625, Note_on_c, 13, 57, 0
1, 32625, Note_on_c, 13, 65, 0
1, 32625, Note_on_c, 2, 53, 0
1, 32625, Note_on_c, 0, 45, 0
1, 32625, Note_on_c, 5, 53, 0
1, 32625, Note_on_c, 6, 48, 0
1, 32633, Note_on_c, 13, 62, 58
1, 32636, Note_on_c, 13, 46, 59
1, 32637, Note_on_c, 2, 58, 83
1, 32638, Note_on_c, 0, 46, 86
1, 32638, Note_on_c, 2, 53, 81
1, 32638, Note_on_c, 5, 65, 84
1, 32639, Note_on_c, 0, 65, 87
1, 32639, Note_on_c, 6, 46, 83
1, 32639, Note_on_c, 13, 65, 60
1, 32640, Note_on_c, 0, 58, 86
1, 32642, Note_on_c, 0, 62, 89
1, 32642, Note_on_c, 2, 62, 84
1, 32643, Note_on_c, 1, 34, 90
1, 32643, Note_on_c, 2, 65, 81
1, 32643, Note_on_c, 5, 53, 85
1, 32644, Note_on_c, 5, 58, 82
1, 32645, Note_on_c, 5, 62, 83
1, 32647, Note_on_c, 13, 58, 60
1, 32881, Note_on_c, 6, 50, 72
1, 32985, Note_on_c, 3, 77, 0
1, 33003, Note_on_c, 3, 74, 74
1, 33105, Note_on_c, 3, 74, 0
1, 33105, Note_on_c, 5, 62, 0
1, 33105, Note_on_c, 5, 58, 0
1, 33105, Note_on_c, 5, 53, 0
1, 33105, Note_on_c, 2, 65, 0
1, 33105, Note_on_c, 2, 62, 0
1, 33105, Note_on_c, 0, 62, 0
1, 33105, Note_on_c, 0, 58, 0
1, 33105, Note_on_c, 0, 65, 0
1, 33105, Note_on_c, 5, 65, 0
1, 33105, Note_on_c, 2, 53, 0
1, 33105, Note_on_c, 2, 58, 0
1, 33113, Note_on_c, 2, 65, 81
1, 33114, Note_on_c, 5, 58, 79
1, 33117, Note_on_c, 0, 62, 84
1, 33117, Note_on_c, 5, 65, 79
1, 33118, Note_on_c, 0, 65, 83
1, 33118, Note_on_c, 2, 53, 81
1, 33118, Note_on_c, 2, 58, 79
1, 33118, Note_on_c, 5, 62, 81
1, 33119, Note_on_c, 6, 53, 81
1, 33121, Note_on_c, 0, 58, 86
1, 33122, Note_on_c, 9, 54, 76
1, 33124, Note_on_c, 2, 62, 82
1, 33126, Note_on_c, 5, 53, 79
1, 33135, Note_on_c, 9, 54, 0
1, 33575, Note_on_c, 1, 34, 0
1, 33585, Note_on_c, 5, 53, 0
1, 33585, Note_on_c, 2, 62, 0
1, 33585, Note_on_c, 0, 58, 0
1, 33585, Note_on_c, 6, 53, 0
1, 33585, Note_on_c, 5, 62, 0
1, 33585, Note_on_c, 2, 58, 0
1, 33585, Note_on_c, 2, 53, 0
1, 33585, Note_on_c, 0, 65, 0
1, 33585, Note_on_c, 5, 65, 0
1, 33585, Note_on_c, 0, 62, 0
1, 33585, Note_on_c, 5, 58, 0
1, 33585, Note_on_c, 2, 65, 0
1, 33585, Note_on_c, 6, 50, 0
1, 33585, Note_on_c, 13, 58, 0
1, 33585, Note_on_c, 13, 65, 0
1, 33585, Note_on_c, 6, 46, 0
1, 33585, Note_on_c, 0, 46, 0
1, 33585, Note_on_c, 13, 46, 0
1, 33592, Note_on_c, 13, 58, 58
1, 33593, Note_on_c, 2, 58, 78
1, 33593, Note_on_c, 5, 62, 76
1, 33593, Note_on_c, 13, 48, 58
1, 33594, Note_on_c, 5, 58, 77
1, 33596, Note_on_c, 5, 48, 78
1, 33597, Note_on_c, 0, 48, 80
1, 33597, Note_on_c, 0, 58, 82
1, 33597, Note_on_c, 5, 65, 78
1, 33598, Note_on_c, 2, 62, 78
1, 33598, Note_on_c, 2, 65, 80
1, 33598, Note_on_c, 13, 65, 62
1, 33599, Note_on_c, 6, 48, 77
1, 33600, Note_on_c, 0, 65, 82
1, 33602, Note_on_c, 0, 62, 83
1, 33603, Note_on_c, 1, 36, 85
1, 33603, Note_on_c, 5, 55, 80
1, 33608, Note_on_c, 2, 55, 80
1, 33608, Note_on_c, 2, 48, 80
1, 34065, Note_on_c, 2, 48, 0
1, 34065, Note_on_c, 2, 55, 0
1, 34065, Note_on_c, 5, 55, 0
1, 34065, Note_on_c, 0, 62, 0
1, 34065, Note_on_c, 6, 48, 0
1, 34065, Note_on_c, 13, 65, 0
1, 34065, Note_on_c, 2, 65, 0
1, 34065, Note_on_c, 2, 62, 0
1, 34065, Note_on_c, 5, 65, 0
1, 34065, Note_on_c, 0, 58, 0
1, 34065, Note_on_c, 5, 48, 0
1, 34065, Note_on_c, 5, 58, 0
1, 34065, Note_on_c, 5, 62, 0
1, 34065, Note_on_c, 2, 58, 0
1, 34065, Note_on_c, 13, 62, 0
1, 34072, Lyric_t, "Hold "
1, 34072, Note_on_c, 3, 81, 89
1, 34074, Note_on_c, 2, 65, 85
1, 34077, Note_on_c, 5, 48, 84
1, 34078, Note_on_c, 2, 62, 82
1, 34078, Note_on_c, 13, 62, 77
1, 34080, Note_on_c, 0, 58, 85
1, 34080, Note_on_c, 2, 58, 84
1, 34082, Note_on_c, 0, 62, 85
1, 34082, Note_on_c, 2, 55, 85
1, 34082, Note_on_c, 5, 58, 82
1, 34083, Note_on_c, 2, 48, 84
1, 34083, Note_on_c, 5, 55, 85
1, 34083, Note_on_c, 5, 62, 83
1, 34084, Note_on_c, 6, 48, 83
1, 34087, Note_on_c, 5, 65, 85
1, 34087, Note_on_c, 9, 54, 73
1, 34100, Note_on_c, 9, 54, 0
1, 34265, Note_on_c, 3, 81, 0
1, 34305, Note_on_c, 13, 62, 0
1, 34305, Pitch_bend_c, 3, 4971
1, 34312, Lyric_t, "on "
1, 34312, Note_on_c, 3, 84, 75
1, 34313, Note_on_c, 13, 67, 73
1, 34340, Pitch_bend_c, 3, 5241
1, 34350, Pitch_bend_c, 3, 5777
1, 34360, Pitch_bend_c, 3, 6314
1, 34370, Pitch_bend_c, 3, 6851
1, 34380, Pitch_bend_c, 3, 7387
1, 34390, Pitch_bend_c, 3, 7924
1, 34395, Pitch_bend_c, 3, 8192
1, 34535, Note_on_c, 1, 36, 0
1, 34545, Note_on_c, 13, 67, 0
1, 34545, Note_on_c, 5, 65, 0
1, 34545, Note_on_c, 6, 48, 0
1, 34545, Note_on_c, 5, 62, 0
1, 34545, Note_on_c, 5, 55, 0
1, 34545, Note_on_c, 2, 48, 0
1, 34545, Note_on_c, 5, 58, 0
1, 34545, Note_on_c, 2, 55, 0
1, 34545, Note_on_c, 0, 62, 0
1, 34545, Note_on_c, 2, 58, 0
1, 34545, Note_on_c, 0, 58, 0
1, 34545, Note_on_c, 2, 62, 0
1, 34545, Note_on_c, 5, 48, 0
1, 34545, Note_on_c, 2, 65, 0
1, 34545, Note_on_c, 0, 65, 0
1, 34545, Note_on_c, 0, 48, 0
1, 34545, Note_on_c, 13, 48, 0
1, 34545, Note_on_c, 13, 58, 0
1, 34552, Note_on_c, 6, 41, 82
1, 34553, Note_on_c, 2, 53, 83
1, 34554, Note_on_c, 2, 57, 85
1, 34555, Note_on_c, 2, 65, 83
1, 34558, Note_on_c, 0, 57, 88
1, 34558, Note_on_c, 5, 57, 83
1, 34560, Note_on_c, 0, 60, 90
1, 34560, Note_on_c, 5, 53, 84
1, 34562, Note_on_c, 0, 41, 90
1, 34562, Note_on_c, 0, 65, 88
1, 34562, Note_on_c, 1, 29, 92
1, 34562, Note_on_c, 5, 60, 85
1, 34563, Note_on_c, 5, 65, 86
1, 34563, Note_on_c, 13, 65, 59
1, 34563, Note_on_c, 13, 69, 60
1, 34564, Note_on_c, 2, 60, 82
1, 34567, Note_on_c, 13, 60, 59
1, 34567, Note_on_c, 13, 41, 62
1, 34803, Note_on_c, 6, 48, 77
1, 35025, Note_on_c, 2, 60, 0
1, 35025, Note_on_c, 5, 65, 0
1, 35025, Note_on_c, 5, 60, 0
1, 35025, Note_on_c, 0, 65, 0
1, 35025, Note_on_c, 5, 53, 0
1, 35025, Note_on_c, 0, 60, 0
1, 35025, Note_on_c, 5, 57, 0
1, 35025, Note_on_c, 0, 57, 0
1, 35025, Note_on_c, 2, 65, 0
1, 35025, Note_on_c, 2, 57, 0
1, 35025, Note_on_c, 2, 53, 0
1, 35035, Note_on_c, 2, 60, 80
1, 35035, Note_on_c, 5, 65, 82
1, 35037, Note_on_c, 0, 57, 82
1, 35038, Note_on_c, 2, 65, 81
1, 35041, Note_on_c, 0, 60, 82
1, 35041, Note_on_c, 0, 65, 82
1, 35041, Note_on_c, 5, 53, 78
1, 35042, Note_on_c, 2, 57, 82
1, 35042, Note_on_c, 5, 57, 82
1, 35043, Note_on_c, 9, 54, 73
1, 35045, Note_on_c, 6, 57, 82
1, 35048, Note_on_c, 2, 53, 80
1, 35048, Note_on_c, 5, 60, 81
1, 35056, Note_on_c, 9, 54, 0
1, 35145, Note_on_c, 3, 84, 0
1, 35255, Note_on_c, 1, 29, 0
1, 35272, Note_on_c, 1, 29, 83
1, 35375, Note_on_c, 1, 29, 0
1, 35405, Note_on_c, 1, 31, 89
1, 35495, Note_on_c, 1, 31, 0
1, 35505, Note_on_c, 5, 60, 0
1, 35505, Note_on_c, 2, 53, 0
1, 35505, Note_on_c, 6, 57, 0
1, 35505, Note_on_c, 5, 57, 0
1, 35505, Note_on_c, 2, 57, 0
1, 35505, Note_on_c, 5, 53, 0
1, 35505, Note_on_c, 0, 65, 0
1, 35505, Note_on_c, 0, 60, 0
1, 35505, Note_on_c, 2, 65, 0
1, 35505, Note_on_c, 0, 57, 0
1, 35505, Note_on_c, 5, 65, 0
1, 35505, Note_on_c, 2, 60, 0
1, 35505, Note_on_c, 6, 48, 0
1, 35505, Note_on_c, 13, 41, 0
1, 35505, Note_on_c, 13, 60, 0
1, 35505, Note_on_c, 13, 69, 0
1, 35505, Note_on_c, 13, 65, 0
1, 35505, Note_on_c, 0, 41, 0
1, 35505, Note_on_c, 6, 41, 0
1, 35512, Note_on_c, 13, 45, 59
1, 35517, Note_on_c, 5, 53, 78
1, 35518, Note_on_c, 0, 65, 86
1, 35518, Note_on_c, 6, 48, 80
1, 35518, Note_on_c, 13, 63, 59
1, 35519, Note_on_c, 0, 60, 84
1, 35519, Note_on_c, 0, 63, 86
1, 35522, Note_on_c, 13, 60, 61
1, 35523, Note_on_c, 0, 45, 83
1, 35523, Note_on_c, 13, 67, 60
1, 35528, Note_on_c, 1, 33, 91
1, 35528, Note_on_c, 2, 53, 80
1, 35529, Note_on_c, 2, 57, 81
1, 35532, Note_on_c, 5, 57, 82
1, 35553, Note_on_c, 2, 63, 80
1, 35553, Note_on_c, 5, 63, 79
1, 35560, Note_on_c, 5, 65, 78
1, 35564, Note_on_c, 2, 65, 81
1, 35758, Note_on_c, 6, 51, 75
1, 35762, Note_on_c, 0, 51, 60
1, 35764, Lyric_t, "to "
1, 35764, Note_on_c, 3, 81, 79
1, 35830, Note_on_c, 3, 81, 0
1, 35883, Lyric_t, "me "
1, 35883, Note_on_c, 3, 79, 79
1, 35950, Note_on_c, 3, 79, 0
1, 35957, Note_on_c, 3, 77, 87
1, 35985, Note_on_c, 2, 65, 0
1, 35985, Note_on_c, 5, 65, 0
1, 35985, Note_on_c, 5, 63, 0
1, 35985, Note_on_c, 2, 63, 0
1, 35985, Note_on_c, 5, 57, 0
1, 35985, Note_on_c, 2, 57, 0
1, 35985, Note_on_c, 2, 53, 0
1, 35985, Note_on_c, 0, 63, 0
1, 35985, Note_on_c, 0, 60, 0
1, 35985, Note_on_c, 0, 65, 0
1, 35985, Note_on_c, 5, 53, 0
1, 35992, Note_on_c, 2, 57, 77
1, 35992, Note_on_c, 5, 57, 81
1, 35994, Note_on_c, 5, 65, 79
1, 35994, Note_on_c, 6, 60, 81
1, 35997, Note_on_c, 5, 63, 80
1, 35997, Note_on_c, 9, 54, 77
1, 35998, Note_on_c, 5, 53, 80
1, 36000, Note_on_c, 0, 65, 84
1, 36000, Note_on_c, 0, 60, 80
1, 36001, Note_on_c, 2, 53, 79
1, 36003, Note_on_c, 0, 63, 80
1, 36004, Note_on_c, 2, 63, 79
1, 36004, Note_on_c, 2, 65, 79
1, 36010, Note_on_c, 9, 54, 0
1, 36030, Note_on_c, 3, 77, 0
1, 36036, Note_on_c, 3, 79, 87
1, 36455, Note_on_c, 1, 33, 0
1, 36465, Note_on_c, 2, 65, 0
1, 36465, Note_on_c, 2, 63, 0
1, 36465, Note_on_c, 0, 63, 0
1, 36465, Note_on_c, 2, 53, 0
1, 36465, Note_on_c, 0, 60, 0
1, 36465, Note_on_c, 0, 65, 0
1, 36465, Note_on_c, 5, 53, 0
1, 36465, Note_on_c, 5, 63, 0
1, 36465, Note_on_c, 6, 60, 0
1, 36465, Note_on_c, 5, 65, 0
1, 36465, Note_on_c, 5, 57, 0
1, 36465, Note_on_c, 2, 57, 0
1, 36465, Note_on_c, 0, 51, 0
1, 36465, Note_on_c, 6, 51, 0
1, 36465, Note_on_c, 13, 67, 0
1, 36465, Note_on_c, 0, 45, 0
1, 36465, Note_on_c, 13, 60, 0
1, 36465, Note_on_c, 13, 63, 0
1, 36465, Note_on_c, 6, 48, 0
1, 36465, Note_on_c, 13, 45, 0
1, 36472, Note_on_c, 2, 58, 83
1, 36472, Note_on_c, 13, 46, 60
1, 36476, Note_on_c, 1, 34, 90
1, 36477, Note_on_c, 0, 46, 86
1, 36477, Note_on_c, 2, 65, 84
1, 36478, Note_on_c, 0, 65, 89
1, 36478, Note_on_c, 5, 65, 83
1, 36479, Note_on_c, 0, 58, 85
1, 36479, Note_on_c, 2, 62, 81
1, 36481, Note_on_c, 5, 58, 84
1, 36482, Note_on_c, 6, 46, 83
1, 36483, Note_on_c, 0, 62, 85
1, 36483, Note_on_c, 2, 53, 84
1, 36483, Note_on_c, 13, 62, 60
1, 36485, Note_on_c, 13, 58, 61
1, 36486, Note_on_c, 5, 53, 82
1, 36486, Note_on_c, 13, 65, 58
1, 36488, Note_on_c, 5, 62, 84
1, 36545, Note_on_c, 3, 79, 0
1, 36559, Lyric_t, "to"
1, 36559, Note_on_c, 3, 81, 74
1, 36665, Note_on_c, 3, 81, 0
1, 36717, Lyric_t, "night. "
1, 36717, Lyric_t, "\015"
1, 36717, Note_on_c, 3, 77, 79
1, 36726, Note_on_c, 6, 50, 76
1, 36945, Note_on_c, 5, 62, 0
1, 36945, Note_on_c, 5, 53, 0
1, 36945, Note_on_c, 2, 53, 0
1, 36945, Note_on_c, 0, 62, 0
1, 36945, Note_on_c, 5, 58, 0
1, 36945, Note_on_c, 2, 62, 0
1, 36945, Note_on_c, 0, 58, 0
1, 36945, Note_on_c, 5, 65, 0
1, 36945, Note_on_c, 0, 65, 0
1, 36945, Note_on_c, 2, 65, 0
1, 36945, Note_on_c, 2, 58, 0
1, 36952, Note_on_c, 5, 62, 82
1, 36953, Note_on_c, 5, 53, 79
1, 36955, Note_on_c, 2, 62, 82
1, 36956, Note_on_c, 5, 58, 79
1, 36957, Note_on_c, 0, 62, 87
1, 36957, Note_on_c, 0, 58, 86
1, 36958, Note_on_c, 2, 65, 81
1, 36962, Note_on_c, 5, 65, 83
1, 36962, Note_on_c, 6, 53, 82
1, 36963, Note_on_c, 0, 65, 87
1, 36963, Note_on_c, 9, 54, 76
1, 36965, Note_on_c, 2, 53, 79
1, 36966, Note_on_c, 2, 58, 79
1, 36976, Note_on_c, 9, 54, 0
1, 37065, Note_on_c, 3, 77, 0
1, 37081, Note_on_c, 3, 74, 74
1, 37185, Note_on_c, 3, 74, 0
1, 37415, Note_on_c, 1, 34, 0
1, 37425, Note_on_c, 2, 58, 0
1, 37425, Note_on_c, 2, 53, 0
1, 37425, Note_on_c, 0, 65, 0
1, 37425, Note_on_c, 6, 53, 0
1, 37425, Note_on_c, 5, 65, 0
1, 37425, Note_on_c, 2, 65, 0
1, 37425, Note_on_c, 0, 58, 0
1, 37425, Note_on_c, 0, 62, 0
1, 37425, Note_on_c, 5, 58, 0
1, 37425, Note_on_c, 2, 62, 0
1, 37425, Note_on_c, 5, 53, 0
1, 37425, Note_on_c, 5, 62, 0
1, 37425, Note_on_c, 6, 50, 0
1, 37425, Note_on_c, 13, 65, 0
1, 37425, Note_on_c, 13, 58, 0
1, 37425, Note_on_c, 13, 62, 0
1, 37425, Note_on_c, 6, 46, 0
1, 37425, Note_on_c, 0, 46, 0
1, 37425, Note_on_c, 13, 46, 0
1, 37434, Note_on_c, 1, 36, 87
1, 37434, Note_on_c, 5, 58, 78
1, 37436, Note_on_c, 5, 60, 77
1, 37436, Note_on_c, 6, 60, 78
1, 37436, Note_on_c, 13, 58, 60
1, 37437, Note_on_c, 0, 48, 80
1, 37437, Note_on_c, 5, 55, 76
1, 37438, Note_on_c, 2, 60, 76
1, 37439, Note_on_c, 5, 48, 80
1, 37441, Note_on_c, 0, 58, 81
1, 37441, Note_on_c, 0, 62, 83
1, 37441, Note_on_c, 13, 65, 59
1, 37442, Note_on_c, 0, 65, 82
1, 37442, Note_on_c, 13, 48, 58
1, 37443, Note_on_c, 2, 58, 80
1, 37444, Note_on_c, 2, 48, 80
1, 37446, Note_on_c, 2, 55, 76
1, 37448, Note_on_c, 13, 60, 61
1, 37905, Note_on_c, 2, 55, 0
1, 37905, Note_on_c, 2, 48, 0
1, 37905, Note_on_c, 2, 58, 0
1, 37905, Note_on_c, 0, 62, 0
1, 37905, Note_on_c, 0, 58, 0
1, 37905, Note_on_c, 5, 48, 0
1, 37905, Note_on_c, 2, 60, 0
1, 37905, Note_on_c, 5, 55, 0
1, 37905, Note_on_c, 6, 60, 0
1, 37905, Note_on_c, 5, 60, 0
1, 37905, Note_on_c, 5, 58, 0
1, 37912, Note_on_c, 6, 60, 84
1, 37913, Note_on_c, 5, 55, 82
1, 37916, Note_on_c, 5, 48, 81
1, 37919, Note_on_c, 0, 62, 88
1, 37919, Note_on_c, 2, 60, 82
1, 37920, Note_on_c, 0, 58, 86
1, 37921, Note_on_c, 5, 60, 82
1, 37922, Note_on_c, 2, 58, 84
1, 37922, Note_on_c, 5, 58, 83
1, 37923, Note_on_c, 2, 55, 85
1, 37923, Note_on_c, 2, 48, 81
1, 37928, Note_on_c, 9, 54, 74
1, 37941, Note_on_c, 9, 54, 0
1, 38040, Pitch_bend_c, 6, 16383
1, 38082, Lyric_t, "We "
1, 38082, Note_on_c, 3, 79, 74
1, 38135, Note_on_c, 1, 36, 0
1, 38155, Note_on_c, 1, 36, 85
1, 38225, Note_on_c, 3, 79, 0
1, 38245, Lyric_t, "are "
1, 38245, Note_on_c, 3, 79, 75
1, 38280, Pitch_bend_c, 6, 12288
1, 38340, Pitch_bend_c, 6, 8192
1, 38345, Note_on_c, 3, 79, 0
1, 38375, Note_on_c, 1, 36, 0
1, 38385, Note_on_c, 2, 48, 0
1, 38385, Note_on_c, 2, 55, 0
1, 38385, Note_on_c, 5, 58, 0
1, 38385, Note_on_c, 2, 58, 0
1, 38385, Note_on_c, 5, 60, 0
1, 38385, Note_on_c, 0, 58, 0
1, 38385, Note_on_c, 2, 60, 0
1, 38385, Note_on_c, 0, 62, 0
1, 38385, Note_on_c, 5, 48, 0
1, 38385, Note_on_c, 5, 55, 0
1, 38385, Note_on_c, 6, 60, 0
1, 38385, Note_on_c, 13, 60, 0
1, 38385, Note_on_c, 13, 48, 0
1, 38385, Note_on_c, 0, 65, 0
1, 38385, Note_on_c, 13, 65, 0
1, 38385, Note_on_c, 0, 48, 0
1, 38385, Note_on_c, 13, 58, 0
1, 38385, Pitch_bend_c, 3, 4971
1, 38392, Note_on_c, 13, 57, 62
1, 38395, Note_on_c, 2, 65, 86
1, 38396, Note_on_c, 5, 62, 85
1, 38396, Note_on_c, 6, 57, 81
1, 38397, Note_on_c, 0, 50, 89
1, 38397, Lyric_t, "strong"
1, 38397, Note_on_c, 2, 57, 85
1, 38397, Note_on_c, 3, 84, 93
1, 38398, Note_on_c, 2, 62, 82
1, 38399, Note_on_c, 13, 62, 62
1, 38400, Note_on_c, 9, 57, 32
1, 38400, Note_on_c, 13, 50, 58
1, 38402, Note_on_c, 0, 65, 88
1, 38402, Note_on_c, 0, 57, 87
1, 38402, Note_on_c, 5, 65, 82
1, 38403, Note_on_c, 0, 62, 88
1, 38403, Note_on_c, 1, 38, 92
1, 38403, Note_on_c, 13, 65, 61
1, 38405, Note_on_c, 5, 57, 82
1, 38406, Note_on_c, 2, 50, 85
1, 38407, Note_on_c, 5, 50, 86
1, 38413, Note_on_c, 9, 57, 0
1, 38420, Pitch_bend_c, 3, 5241
1, 38430, Pitch_bend_c, 3, 5777
1, 38440, Pitch_bend_c, 3, 6314
1, 38450, Pitch_bend_c, 3, 6851
1, 38460, Pitch_bend_c, 3, 7387
1, 38470, Pitch_bend_c, 3, 7924
1, 38475, Pitch_bend_c, 3, 8192
1, 38625, Note_on_c, 6, 57, 0
1, 38638, Note_on_c, 6, 55, 76
1, 38705, Note_on_c, 3, 84, 0
1, 38719, Lyric_t, "er "
1, 38719, Note_on_c, 3, 81, 76
1, 38845, Note_on_c, 3, 81, 0
1, 38865, Note_on_c, 6, 55, 0
1, 38865, Note_on_c, 5, 50, 0
1, 38865, Note_on_c, 2, 50, 0
1, 38865, Note_on_c, 5, 57, 0
1, 38865, Note_on_c, 0, 62, 0
1, 38865, Note_on_c, 5, 65, 0
1, 38865, Note_on_c, 0, 57, 0
1, 38865, Note_on_c, 0, 65, 0
1, 38865, Note_on_c, 2, 62, 0
1, 38865, Note_on_c, 2, 57, 0
1, 38865, Note_on_c, 5, 62, 0
1, 38865, Note_on_c, 2, 65, 0
1, 38873, Note_on_c, 2, 57, 80
1, 38877, Note_on_c, 9, 54, 75
1, 38878, Note_on_c, 0, 57, 84
1, 38881, Note_on_c, 0, 65, 85
1, 38881, Note_on_c, 2, 65, 80
1, 38881, Note_on_c, 5, 50, 80
1, 38881, Note_on_c, 5, 65, 78
1, 38881, Note_on_c, 5, 62, 82
1, 38883, Note_on_c, 0, 62, 84
1, 38883, Note_on_c, 2, 50, 80
1, 38884, Lyric_t, "here "
1, 38884, Note_on_c, 3, 79, 87
1, 38884, Note_on_c, 5, 57, 78
1, 38885, Note_on_c, 2, 62, 82
1, 38886, Note_on_c, 6, 57, 78
1, 38890, Note_on_c, 9, 54, 0
1, 38985, Note_on_c, 3, 79, 0
1, 38992, Lyric_t, "to"
1, 38992, Note_on_c, 3, 77, 73
1, 39070, Note_on_c, 3, 77, 0
1, 39095, Note_on_c, 1, 38, 0
1, 39105, Pitch_bend_c, 3, 4971
1, 39118, Lyric_t, "ge"
1, 39118, Note_on_c, 3, 79, 78
1, 39124, Note_on_c, 1, 38, 85
1, 39140, Pitch_bend_c, 3, 5241
1, 39150, Pitch_bend_c, 3, 5777
1, 39160, Pitch_bend_c, 3, 6314
1, 39170, Pitch_bend_c, 3, 6851
1, 39180, Pitch_bend_c, 3, 7387
1, 39190, Pitch_bend_c, 3, 7924
1, 39195, Pitch_bend_c, 3, 8192
1, 39335, Note_on_c, 1, 38, 0
1, 39345, Note_on_c, 6, 57, 0
1, 39345, Note_on_c, 2, 62, 0
1, 39345, Note_on_c, 5, 57, 0
1, 39345, Note_on_c, 2, 50, 0
1, 39345, Note_on_c, 0, 62, 0
1, 39345, Note_on_c, 5, 62, 0
1, 39345, Note_on_c, 5, 65, 0
1, 39345, Note_on_c, 5, 50, 0
1, 39345, Note_on_c, 2, 65, 0
1, 39345, Note_on_c, 0, 65, 0
1, 39345, Note_on_c, 0, 57, 0
1, 39345, Note_on_c, 2, 57, 0
1, 39345, Note_on_c, 13, 65, 0
1, 39345, Note_on_c, 13, 50, 0
1, 39345, Note_on_c, 13, 62, 0
1, 39345, Note_on_c, 0, 50, 0
1, 39345, Note_on_c, 13, 57, 0
1, 39352, Note_on_c, 5, 53, 82
1, 39353, Note_on_c, 6, 53, 79
1, 39354, Note_on_c, 2, 63, 80
1, 39354, Note_on_c, 2, 57, 82
1, 39354, Note_on_c, 5, 63, 81
1, 39356, Note_on_c, 2, 65, 82
1, 39357, Note_on_c, 1, 36, 90
1, 39357, Note_on_c, 5, 65, 81
1, 39359, Note_on_c, 0, 57, 84
1, 39361, Note_on_c, 0, 48, 82
1, 39362, Note_on_c, 0, 63, 85
1, 39362, Note_on_c, 2, 53, 80
1, 39362, Note_on_c, 5, 57, 82
1, 39363, Note_on_c, 0, 65, 86
1, 39366, Note_on_c, 6, 56, 80
1, 39366, Note_on_c, 13, 48, 58
1, 39367, Note_on_c, 13, 63, 58
1, 39367, Note_on_c, 13, 57, 61
1, 39367, Note_on_c, 13, 65, 60
1, 39368, Note_on_c, 6, 60, 82
1, 39425, Note_on_c, 3, 79, 0
1, 39445, Lyric_t, "ther "
1, 39445, Lyric_t, "\015"
1, 39445, Note_on_c, 3, 81, 72
1, 39510, Note_on_c, 3, 81, 0
1, 39825, Note_on_c, 6, 60, 0
1, 39825, Note_on_c, 13, 65, 0
1, 39825, Note_on_c, 6, 56, 0
1, 39825, Note_on_c, 0, 65, 0
1, 39825, Note_on_c, 5, 57, 0
1, 39825, Note_on_c, 2, 53, 0
1, 39825, Note_on_c, 0, 63, 0
1, 39825, Note_on_c, 0, 57, 0
1, 39825, Note_on_c, 5, 65, 0
1, 39825, Note_on_c, 2, 65, 0
1, 39825, Note_on_c, 5, 63, 0
1, 39825, Note_on_c, 2, 57, 0
1, 39825, Note_on_c, 2, 63, 0
1, 39825, Note_on_c, 6, 53, 0
1, 39825, Note_on_c, 5, 53, 0
1, 39834, Note_on_c, 6, 53, 79
1, 39837, Note_on_c, 6, 56, 80
1, 39838, Note_on_c, 2, 53, 80
1, 39838, Note_on_c, 5, 53, 78
1, 39839, Note_on_c, 0, 63, 83
1, 39839, Note_on_c, 2, 63, 81
1, 39839, Note_on_c, 5, 65, 80
1, 39840, Note_on_c, 9, 54, 77
1, 39841, Note_on_c, 5, 63, 81
1, 39842, Note_on_c, 0, 57, 82
1, 39842, Note_on_c, 0, 65, 81
1, 39842, Note_on_c, 13, 67, 61
1, 39843, Note_on_c, 2, 65, 79
1, 39843, Note_on_c, 5, 57, 80
1, 39845, Note_on_c, 2, 57, 77
1, 39848, Note_on_c, 6, 60, 79
1, 39853, Note_on_c, 9, 54, 0
1, 39995, Lyric_t, "Than "
1, 39995, Note_on_c, 3, 77, 74
1, 40065, Note_on_c, 13, 67, 0
1, 40083, Note_on_c, 13, 69, 58
1, 40145, Note_on_c, 3, 77, 0
1, 40160, Lyric_t, "we "
1, 40160, Note_on_c, 3, 79, 78
1, 40295, Note_on_c, 1, 36, 0
1, 40305, Note_on_c, 3, 79, 0
1, 40305, Note_on_c, 13, 69, 0
1, 40305, Note_on_c, 6, 60, 0
1, 40305, Note_on_c, 2, 57, 0
1, 40305, Note_on_c, 5, 57, 0
1, 40305, Note_on_c, 2, 65, 0
1, 40305, Note_on_c, 0, 65, 0
1, 40305, Note_on_c, 0, 57, 0
1, 40305, Note_on_c, 5, 63, 0
1, 40305, Note_on_c, 5, 65, 0
1, 40305, Note_on_c, 2, 63, 0
1, 40305, Note_on_c, 0, 63, 0
1, 40305, Note_on_c, 5, 53, 0
1, 40305, Note_on_c, 2, 53, 0
1, 40305, Note_on_c, 6, 56, 0
1, 40305, Note_on_c, 6, 53, 0
1, 40305, Note_on_c, 13, 57, 0
1, 40305, Note_on_c, 13, 63, 0
1, 40305, Note_on_c, 13, 48, 0
1, 40305, Note_on_c, 0, 48, 0
1, 40312, Note_on_c, 5, 53, 85
1, 40313, Note_on_c, 13, 58, 59
1, 40315, Lyric_t, "could "
1, 40315, Note_on_c, 3, 81, 90
1, 40315, Note_on_c, 5, 65, 85
1, 40316, Note_on_c, 1, 34, 89
1, 40316, Note_on_c, 2, 58, 83
1, 40316, Note_on_c, 2, 62, 83
1, 40316, Note_on_c, 6, 46, 83
1, 40317, Note_on_c, 0, 46, 85
1, 40317, Note_on_c, 5, 62, 81
1, 40317, Note_on_c, 13, 62, 62
1, 40317, Note_on_c, 13, 46, 62
1, 40319, Note_on_c, 0, 58, 86
1, 40320, Note_on_c, 2, 65, 85
1, 40321, Note_on_c, 0, 62, 86
1, 40321, Note_on_c, 0, 65, 89
1, 40323, Note_on_c, 5, 58, 82
1, 40325, Note_on_c, 2, 53, 81
1, 40325, Note_on_c, 13, 65, 59
1, 40390, Note_on_c, 3, 81, 0
1, 40465, Pitch_bend_c, 3, 4971
1, 40479, Lyric_t, "e"
1, 40479, Note_on_c, 3, 84, 71
1, 40500, Pitch_bend_c, 3, 5241
1, 40510, Pitch_bend_c, 3, 5777
1, 40520, Pitch_bend_c, 3, 6314
1, 40530, Pitch_bend_c, 3, 6851
1, 40540, Pitch_bend_c, 3, 7387
1, 40550, Pitch_bend_c, 3, 7924
1, 40555, Pitch_bend_c, 3, 8192
1, 40563, Note_on_c, 6, 53, 74
1, 40585, Note_on_c, 3, 84, 0
1, 40624, Lyric_t, "ver "
1, 40624, Note_on_c, 3, 81, 78
1, 40725, Note_on_c, 3, 81, 0
1, 40757, Lyric_t, "be "
1, 40757, Note_on_c, 3, 79, 89
1, 40785, Note_on_c, 2, 53, 0
1, 40785, Note_on_c, 5, 58, 0
1, 40785, Note_on_c, 0, 65, 0
1, 40785, Note_on_c, 0, 62, 0
1, 40785, Note_on_c, 2, 65, 0
1, 40785, Note_on_c, 0, 58, 0
1, 40785, Note_on_c, 5, 62, 0
1, 40785, Note_on_c, 2, 62, 0
1, 40785, Note_on_c, 2, 58, 0
1, 40785, Note_on_c, 5, 65, 0
1, 40785, Note_on_c, 5, 53, 0
1, 40793, Note_on_c, 2, 62, 83
1, 40797, Note_on_c, 0, 58, 87
1, 40797, Note_on_c, 5, 65, 81
1, 40798, Note_on_c, 2, 53, 82
1, 40799, Note_on_c, 0, 62, 85
1, 40800, Note_on_c, 5, 53, 83
1, 40802, Note_on_c, 5, 62, 81
1, 40802, Note_on_c, 9, 54, 73
1, 40803, Note_on_c, 0, 65, 86
1, 40803, Note_on_c, 6, 58, 82
1, 40806, Note_on_c, 2, 58, 79
1, 40806, Note_on_c, 2, 65, 80
1, 40807, Note_on_c, 5, 58, 79
1, 40815, Note_on_c, 9, 54, 0
1, 40865, Note_on_c, 3, 79, 0
1, 40895, Note_on_c, 1, 34, 0
1, 40904, Lyric_t, "a"
1, 40904, Note_on_c, 3, 77, 71
1, 40918, Note_on_c, 1, 38, 82
1, 40970, Note_on_c, 1, 38, 0
1, 41025, Note_on_c, 3, 77, 0
1, 41025, Note_on_c, 6, 53, 0
1, 41025, Note_on_c, 13, 65, 0
1, 41025, Note_on_c, 13, 62, 0
1, 41033, Note_on_c, 1, 41, 83
1, 41034, Lyric_t, "lone "
1, 41034, Lyric_t, "\015"
1, 41034, Note_on_c, 3, 77, 79
1, 41043, Note_on_c, 6, 53, 75
1, 41048, Note_on_c, 13, 62, 59
1, 41090, Note_on_c, 1, 41, 0
1, 41158, Note_on_c, 1, 43, 88
1, 41185, Note_on_c, 3, 77, 0
1, 41201, Note_on_c, 3, 74, 83
1, 41210, Note_on_c, 1, 43, 0
1, 41265, Note_on_c, 13, 62, 0
1, 41265, Note_on_c, 6, 53, 0
1, 41265, Note_on_c, 5, 58, 0
1, 41265, Note_on_c, 2, 65, 0
1, 41265, Note_on_c, 2, 58, 0
1, 41265, Note_on_c, 6, 58, 0
1, 41265, Note_on_c, 0, 65, 0
1, 41265, Note_on_c, 5, 62, 0
1, 41265, Note_on_c, 5, 53, 0
1, 41265, Note_on_c, 0, 62, 0
1, 41265, Note_on_c, 2, 53, 0
1, 41265, Note_on_c, 5, 65, 0
1, 41265, Note_on_c, 0, 58, 0
1, 41265, Note_on_c, 2, 62, 0
1, 41265, Note_on_c, 13, 46, 0
1, 41265, Note_on_c, 0, 46, 0
1, 41265, Note_on_c, 6, 46, 0
1, 41265, Note_on_c, 13, 58, 0
1, 41270, Note_on_c, 3, 74, 0
1, 41274, Note_on_c, 5, 57, 76
1, 41274, Note_on_c, 13, 45, 59
1, 41276, Note_on_c, 6, 57, 77
1, 41276, Note_on_c, 13, 60, 62
1, 41277, Note_on_c, 0, 45, 83
1, 41277, Note_on_c, 0, 65, 81
1, 41278, Note_on_c, 0, 60, 84
1, 41278, Note_on_c, 2, 53, 77
1, 41278, Note_on_c, 5, 53, 78
1, 41281, Note_on_c, 0, 57, 81
1, 41282, Note_on_c, 3, 72, 85
1, 41283, Note_on_c, 2, 65, 79
1, 41283, Note_on_c, 2, 57, 80
1, 41283, Note_on_c, 5, 65, 79
1, 41283, Note_on_c, 13, 57, 59
1, 41285, Note_on_c, 2, 60, 76
1, 41285, Note_on_c, 5, 60, 76
1, 41285, Note_on_c, 6, 60, 79
1, 41286, Note_on_c, 1, 45, 85
1, 41288, Note_on_c, 6, 53, 79
1, 41350, Note_on_c, 3, 72, 0
1, 41505, Note_on_c, 6, 53, 0
1, 41520, Note_on_c, 6, 53, 76
1, 41745, Note_on_c, 6, 60, 0
1, 41745, Note_on_c, 5, 60, 0
1, 41745, Note_on_c, 2, 60, 0
1, 41745, Note_on_c, 5, 65, 0
1, 41745, Note_on_c, 2, 57, 0
1, 41745, Note_on_c, 2, 65, 0
1, 41745, Note_on_c, 0, 57, 0
1, 41745, Note_on_c, 5, 53, 0
1, 41745, Note_on_c, 2, 53, 0
1, 41745, Note_on_c, 0, 60, 0
1, 41745, Note_on_c, 0, 65, 0
1, 41745, Note_on_c, 5, 57, 0
1, 41752, Note_on_c, 2, 53, 82
1, 41755, Note_on_c, 2, 57, 81
1, 41755, Note_on_c, 5, 53, 82
1, 41756, Note_on_c, 2, 65, 82
1, 41756, Note_on_c, 5, 65, 81
1, 41758, Note_on_c, 0, 60, 86
1, 41758, Note_on_c, 6, 60, 80
1, 41761, Note_on_c, 0, 65, 87
1, 41762, Note_on_c, 5, 60, 82
1, 41763, Note_on_c, 0, 57, 87
1, 41764, Note_on_c, 5, 57, 85
1, 41767, Note_on_c, 2, 60, 85
1, 41767, Note_on_c, 9, 54, 73
1, 41780, Note_on_c, 9, 54, 0
1, 41874, Lyric_t, "So "
1, 41874, Note_on_c, 3, 74, 72
1, 41985, Note_on_c, 3, 74, 0
1, 42002, Lyric_t, "hold "
1, 42002, Note_on_c, 3, 77, 78
1, 42070, Note_on_c, 3, 77, 0
1, 42105, Pitch_bend_c, 3, 4971
1, 42114, Lyric_t, "on "
1, 42114, Note_on_c, 3, 81, 76
1, 42140, Pitch_bend_c, 3, 5241
1, 42150, Pitch_bend_c, 3, 5777
1, 42160, Pitch_bend_c, 3, 6314
1, 42170, Pitch_bend_c, 3, 6851
1, 42180, Pitch_bend_c, 3, 7387
1, 42190, Pitch_bend_c, 3, 7924
1, 42195, Pitch_bend_c, 3, 8192
1, 42215, Note_on_c, 1, 45, 0
1, 42225, Note_on_c, 2, 60, 0
1, 42225, Note_on_c, 5, 57, 0
1, 42225, Note_on_c, 0, 57, 0
1, 42225, Note_on_c, 5, 60, 0
1, 42225, Note_on_c, 0, 65, 0
1, 42225, Note_on_c, 6, 60, 0
1, 42225, Note_on_c, 0, 60, 0
1, 42225, Note_on_c, 5, 65, 0
1, 42225, Note_on_c, 2, 65, 0
1, 42225, Note_on_c, 5, 53, 0
1, 42225, Note_on_c, 2, 57, 0
1, 42225, Note_on_c, 2, 53, 0
1, 42225, Note_on_c, 6, 53, 0
1, 42225, Note_on_c, 13, 57, 0
1, 42225, Note_on_c, 0, 45, 0
1, 42225, Note_on_c, 13, 60, 0
1, 42225, Note_on_c, 6, 57, 0
1, 42225, Note_on_c, 13, 45, 0
1, 42233, Note_on_c, 5, 50, 82
1, 42234, Note_on_c, 2, 62, 84
1, 42236, Note_on_c, 6, 58, 82
1, 42237, Note_on_c, 1, 43, 90
1, 42237, Note_on_c, 2, 55, 84
1, 42238, Note_on_c, 5, 55, 83
1, 42239, Note_on_c, 2, 50, 82
1, 42240, Note_on_c, 0, 43, 87
1, 42240, Note_on_c, 0, 62, 90
1, 42241, Note_on_c, 6, 62, 83
1, 42242, Note_on_c, 0, 58, 86
1, 42242, Note_on_c, 0, 55, 88
1, 42242, Note_on_c, 5, 58, 84
1, 42242, Note_on_c, 13, 55, 62
1, 42243, Note_on_c, 5, 62, 84
1, 42243, Note_on_c, 13, 50, 58
1, 42243, Note_on_c, 13, 58, 61
1, 42247, Note_on_c, 13, 43, 58
1, 42248, Note_on_c, 2, 58, 85
1, 42345, Note_on_c, 3, 81, 0
1, 42361, Lyric_t, "to "
1, 42361, Note_on_c, 3, 79, 75
1, 42440, Note_on_c, 3, 79, 0
1, 42474, Lyric_t, "me. "
1, 42474, Lyric_t, "\015"
1, 42474, Note_on_c, 3, 79, 81
1, 42477, Note_on_c, 0, 50, 56
1, 42482, Note_on_c, 6, 50, 73
1, 42705, Note_on_c, 2, 58, 0
1, 42705, Note_on_c, 13, 50, 0
1, 42705, Note_on_c, 5, 62, 0
1, 42705, Note_on_c, 13, 55, 0
1, 42705, Note_on_c, 5, 58, 0
1, 42705, Note_on_c, 0, 55, 0
1, 42705, Note_on_c, 0, 58, 0
1, 42705, Note_on_c, 0, 62, 0
1, 42705, Note_on_c, 2, 50, 0
1, 42705, Note_on_c, 5, 55, 0
1, 42705, Note_on_c, 2, 55, 0
1, 42705, Note_on_c, 2, 62, 0
1, 42705, Note_on_c, 5, 50, 0
1, 42712, Note_on_c, 2, 55, 81
1, 42716, Note_on_c, 2, 50, 80
1, 42716, Note_on_c, 2, 58, 80
1, 42719, Note_on_c, 0, 62, 84
1, 42719, Note_on_c, 2, 62, 80
1, 42719, Note_on_c, 5, 58, 79
1, 42719, Note_on_c, 5, 62, 78
1, 42721, Note_on_c, 0, 58, 84
1, 42721, Note_on_c, 0, 55, 84
1, 42721, Note_on_c, 5, 50, 78
1, 42721, Note_on_c, 13, 62, 59
1, 42723, Note_on_c, 9, 54, 77
1, 42725, Note_on_c, 13, 55, 58
1, 42727, Note_on_c, 6, 55, 78
1, 42728, Note_on_c, 5, 55, 78
1, 42736, Note_on_c, 9, 54, 0
1, 42935, Note_on_c, 1, 43, 0
1, 42945, Note_on_c, 0, 50, 0
1, 42945, Note_on_c, 3, 79, 0
1, 42958, Note_on_c, 0, 50, 53
1, 42966, Note_on_c, 1, 43, 83
1, 43010, Note_on_c, 1, 43, 0
1, 43087, Note_on_c, 1, 38, 89
1, 43130, Note_on_c, 1, 38, 0
1, 43185, Note_on_c, 0, 50, 0
1, 43185, Note_on_c, 5, 55, 0
1, 43185, Note_on_c, 6, 55, 0
1, 43185, Note_on_c, 13, 55, 0
1, 43185, Note_on_c, 13, 62, 0
1, 43185, Note_on_c, 5, 50, 0
1, 43185, Note_on_c, 0, 55, 0
1, 43185, Note_on_c, 0, 58, 0
1, 43185, Note_on_c, 5, 62, 0
1, 43185, Note_on_c, 5, 58, 0
1, 43185, Note_on_c, 2, 62, 0
1, 43185, Note_on_c, 0, 62, 0
1, 43185, Note_on_c, 2, 58, 0
1, 43185, Note_on_c, 2, 50, 0
1, 43185, Note_on_c, 2, 55, 0
1, 43185, Note_on_c, 6, 50, 0
1, 43185, Note_on_c, 13, 43, 0
1, 43185, Note_on_c, 13, 58, 0
1, 43185, Note_on_c, 6, 62, 0
1, 43185, Note_on_c, 0, 43, 0
1, 43185, Note_on_c, 6, 58, 0
1, 43193, Note_on_c, 6, 60, 81
1, 43193, Note_on_c, 13, 48, 58
1, 43194, Note_on_c, 5, 48, 80
1, 43196, Note_on_c, 1, 36, 89
1, 43196, Note_on_c, 13, 53, 58
1, 43197, Note_on_c, 0, 48, 83
1, 43197, Note_on_c, 2, 48, 81
1, 43198, Note_on_c, 0, 55, 82
1, 43201, Note_on_c, 0, 58, 85
1, 43202, Note_on_c, 0, 62, 85
1, 43202, Note_on_c, 13, 58, 58
1, 43203, Note_on_c, 13, 60, 59
1, 43223, Note_on_c, 5, 55, 79
1, 43226, Note_on_c, 2, 55, 80
1, 43240, Note_on_c, 5, 58, 81
1, 43245, Note_on_c, 2, 58, 81
1, 43255, Note_on_c, 5, 62, 65
1, 43257, Note_on_c, 2, 62, 64
1, 43320, Lyric_t, "Don't "
1, 43320, Note_on_c, 3, 77, 75
1, 43425, Note_on_c, 3, 77, 0
1, 43448, Lyric_t, "you "
1, 43448, Note_on_c, 3, 79, 76
1, 43475, Control_c, 13, 11, 123
1, 43510, Note_on_c, 3, 79, 0
1, 43520, Control_c, 13, 11, 119
1, 43557, Lyric_t, "e"
1, 43557, Note_on_c, 3, 81, 78
1, 43570, Control_c, 13, 11, 115
1, 43620, Control_c, 13, 11, 111
1, 43665, Note_on_c, 3, 81, 0
1, 43665, Control_c, 13, 11, 107
1, 43682, Lyric_t, "ver "
1, 43682, Note_on_c, 3, 82, 88
1, 43715, Control_c, 13, 11, 103
1, 43750, Note_on_c, 3, 82, 0
1, 43765, Control_c, 13, 11, 99
1, 43797, Lyric_t, "let "
1, 43797, Note_on_c, 3, 79, 74
1, 43810, Control_c, 13, 11, 95
1, 43860, Control_c, 13, 11, 91
1, 43905, Note_on_c, 3, 79, 0
1, 43910, Control_c, 13, 11, 87
1, 43920, Note_on_c, 9, 57, 15
1, 43922, Lyric_t, "me "
1, 43922, Note_on_c, 3, 81, 79
1, 43933, Note_on_c, 9, 57, 0
1, 43955, Control_c, 13, 11, 83
1, 43960, Note_on_c, 9, 57, 18
1, 43973, Note_on_c, 9, 57, 0
1, 43990, Note_on_c, 3, 81, 0
1, 44000, Note_on_c, 9, 57, 21
1, 44005, Control_c, 13, 11, 79
1, 44013, Note_on_c, 9, 57, 0
1, 44040, Note_on_c, 9, 57, 25
1, 44042, Lyric_t, "go "
1, 44042, Note_on_c, 3, 77, 79
1, 44050, Control_c, 13, 11, 75
1, 44053, Note_on_c, 9, 57, 0
1, 44080, Note_on_c, 9, 57, 28
1, 44093, Note_on_c, 9, 57, 0
1, 44100, Control_c, 13, 11, 71
1, 44105, Note_on_c, 13, 60, 0
1, 44105, Note_on_c, 13, 58, 0
1, 44105, Note_on_c, 13, 53, 0
1, 44105, Note_on_c, 13, 48, 0
1, 44120, Note_on_c, 9, 57, 31
1, 44133, Note_on_c, 9, 57, 0
1, 44135, Note_on_c, 1, 36, 0
1, 44145, Note_on_c, 2, 62, 0
1, 44145, Note_on_c, 5, 62, 0
1, 44145, Note_on_c, 2, 58, 0
1, 44145, Note_on_c, 5, 58, 0
1, 44145, Note_on_c, 2, 55, 0
1, 44145, Note_on_c, 5, 55, 0
1, 44145, Note_on_c, 0, 62, 0
1, 44145, Note_on_c, 0, 58, 0
1, 44145, Note_on_c, 0, 55, 0
1, 44145, Note_on_c, 2, 48, 0
1, 44145, Note_on_c, 0, 48, 0
1, 44145, Note_on_c, 5, 48, 0
1, 44145, Note_on_c, 6, 60, 0
1, 44157, Note_on_c, 0, 41, 89
1, 44157, Note_on_c, 2, 60, 81
1, 44157, Note_on_c, 5, 57, 82
1, 44158, Note_on_c, 0, 57, 89
1, 44158, Note_on_c, 2, 65, 81
1, 44158, Note_on_c, 5, 53, 85
1, 44158, Note_on_c, 7, 53, 85
1, 44159, Note_on_c, 1, 41, 91
1, 44160, Note_on_c, 9, 57, 35
1, 44161, Note_on_c, 0, 60, 88
1, 44161, Note_on_c, 13, 60, 58
1, 44162, Note_on_c, 2, 57, 83
1, 44163, Note_on_c, 0, 65, 85
1, 44163, Note_on_c, 2, 53, 81
1, 44163, Note_on_c, 13, 57, 61
1, 44165, Note_on_c, 5, 65, 85
1, 44166, Note_on_c, 13, 41, 58
1, 44167, Note_on_c, 5, 60, 82
1, 44167, Note_on_c, 13, 65, 62
1, 44173, Note_on_c, 9, 57, 0
1, 44210, Control_c, 13, 11, 74
1, 44275, Control_c, 13, 11, 78
1, 44345, Control_c, 13, 11, 82
1, 44394, Note_on_c, 7, 57, 67
1, 44415, Control_c, 13, 11, 86
1, 44480, Control_c, 13, 11, 90
1, 44505, Pitch_bend_c, 8, 0
1, 44519, Note_on_c, 8, 50, 75
1, 44550, Control_c, 13, 11, 94
1, 44580, Pitch_bend_c, 8, 8192
1, 44620, Note_on_c, 8, 50, 0
1, 44620, Control_c, 13, 11, 98
1, 44625, Note_on_c, 5, 60, 0
1, 44625, Note_on_c, 5, 65, 0
1, 44625, Note_on_c, 2, 53, 0
1, 44625, Note_on_c, 0, 65, 0
1, 44625, Note_on_c, 2, 57, 0
1, 44625, Note_on_c, 0, 60, 0
1, 44625, Note_on_c, 5, 53, 0
1, 44625, Note_on_c, 2, 65, 0
1, 44625, Note_on_c, 0, 57, 0
1, 44625, Note_on_c, 5, 57, 0
1, 44625, Note_on_c, 2, 60, 0
1, 44632, Note_on_c, 2, 60, 83
1, 44635, Note_on_c, 8, 53, 87
1, 44637, Note_on_c, 2, 65, 81
1, 44637, Note_on_c, 5, 65, 80
1, 44638, Note_on_c, 2, 53, 83
1, 44638, Note_on_c, 9, 54, 73
1, 44639, Note_on_c, 5, 53, 80
1, 44639, Note_on_c, 5, 57, 79
1, 44641, Note_on_c, 0, 57, 87
1, 44642, Note_on_c, 0, 65, 83
1, 44642, Note_on_c, 5, 60, 81
1, 44642, Note_on_c, 7, 60, 79
1, 44643, Note_on_c, 0, 60, 84
1, 44646, Note_on_c, 2, 57, 80
1, 44651, Note_on_c, 9, 54, 0
1, 44685, Control_c, 13, 11, 102
1, 44740, Note_on_c, 8, 53, 0
1, 44755, Control_c, 13, 11, 106
1, 44759, Note_on_c, 8, 50, 69
1, 44810, Note_on_c, 8, 50, 0
1, 44825, Control_c, 13, 11, 110
1, 44865, Note_on_c, 7, 57, 0
1, 44881, Note_on_c, 7, 57, 70
1, 44885, Note_on_c, 8, 48, 73
1, 44890, Control_c, 13, 11, 114
1, 44930, Note_on_c, 8, 48, 0
1, 44950, Control_c, 3, 11, 123
1, 44960, Control_c, 13, 11, 118
1, 44985, Note_on_c, 7, 53, 0
1, 44998, Note_on_c, 7, 53, 79
1, 44998, Note_on_c, 8, 53, 81
1, 45025, Control_c, 13, 11, 122
1, 45040, Control_c, 3, 11, 119
1, 45050, Note_on_c, 8, 53, 0
1, 45095, Note_on_c, 1, 41, 0
1, 45095, Control_c, 13, 11, 126
1, 45105, Note_on_c, 7, 53, 0
1, 45105, Note_on_c, 7, 57, 0
1, 45105, Note_on_c, 2, 57, 0
1, 45105, Note_on_c, 0, 60, 0
1, 45105, Note_on_c, 7, 60, 0
1, 45105, Note_on_c, 5, 60, 0
1, 45105, Note_on_c, 0, 65, 0
1, 45105, Note_on_c, 0, 57, 0
1, 45105, Note_on_c, 5, 57, 0
1, 45105, Note_on_c, 5, 53, 0
1, 45105, Note_on_c, 2, 53, 0
1, 45105, Note_on_c, 5, 65, 0
1, 45105, Note_on_c, 2, 65, 0
1, 45105, Note_on_c, 2, 60, 0
1, 45105, Note_on_c, 13, 65, 0
1, 45105, Note_on_c, 13, 41, 0
1, 45105, Note_on_c, 13, 57, 0
1, 45105, Note_on_c, 13, 60, 0
1, 45105, Note_on_c, 0, 41, 0
1, 45115, Control_c, 13, 11, 127
1, 45116, Note_on_c, 7, 51, 80
1, 45119, Note_on_c, 0, 63, 84
1, 45119, Note_on_c, 0, 60, 82
1, 45120, Note_on_c, 0, 45, 80
1, 45120, Note_on_c, 0, 65, 81
1, 45120, Note_on_c, 13, 77, 62
1, 45121, Note_on_c, 5, 53, 76
1, 45121, Note_on_c, 13, 45, 62
1, 45123, Note_on_c, 1, 45, 87
1, 45123, Note_on_c, 2, 53, 79
1, 45123, Note_on_c, 5, 57, 77
1, 45123, Note_on_c, 13, 65, 58
1, 45123, Note_on_c, 13, 60, 60
1, 45123, Note_on_c, 13, 57, 62
1, 45129, Note_on_c, 2, 57, 78
1, 45135, Control_c, 3, 11, 115
1, 45137, Note_on_c, 5, 63, 76
1, 45139, Note_on_c, 2, 63, 78
1, 45152, Note_on_c, 5, 65, 80
1, 45156, Note_on_c, 2, 65, 80
1, 45225, Note_on_c, 3, 77, 0
1, 45230, Control_c, 3, 11, 111
1, 45236, Lyric_t, "mmh. "
1, 45236, Lyric_t, "\015"
1, 45236, Note_on_c, 3, 79, 75
1, 45325, Control_c, 3, 11, 107
1, 45345, Note_on_c, 3, 79, 0
1, 45356, Note_on_c, 7, 57, 73
1, 45357, Note_on_c, 3, 81, 77
1, 45420, Control_c, 3, 11, 103
1, 45465, Note_on_c, 3, 81, 0
1, 45465, Pitch_bend_c, 8, 0
1, 45478, Note_on_c, 3, 79, 80
1, 45483, Note_on_c, 8, 50, 73
1, 45510, Control_c, 3, 11, 99
1, 45540, Pitch_bend_c, 8, 8192
1, 45580, Note_on_c, 8, 50, 0
1, 45585, Note_on_c, 2, 65, 0
1, 45585, Note_on_c, 5, 65, 0
1, 45585, Note_on_c, 2, 63, 0
1, 45585, Note_on_c, 5, 63, 0
1, 45585, Note_on_c, 2, 57, 0
1, 45585, Note_on_c, 5, 57, 0
1, 45585, Note_on_c, 2, 53, 0
1, 45585, Note_on_c, 5, 53, 0
1, 45585, Note_on_c, 0, 65, 0
1, 45585, Note_on_c, 0, 60, 0
1, 45585, Note_on_c, 0, 63, 0
1, 45592, Note_on_c, 8, 53, 88
1, 45594, Note_on_c, 7, 60, 82
1, 45598, Note_on_c, 9, 54, 73
1, 45601, Note_on_c, 0, 60, 86
1, 45601, Note_on_c, 0, 63, 86
1, 45602, Note_on_c, 2, 63, 83
1, 45602, Note_on_c, 2, 53, 81
1, 45602, Note_on_c, 5, 57, 84
1, 45603, Note_on_c, 0, 65, 88
1, 45603, Note_on_c, 5, 65, 84
1, 45603, Note_on_c, 5, 53, 83
1, 45604, Note_on_c, 2, 57, 84
1, 45605, Control_c, 3, 11, 95
1, 45607, Note_on_c, 2, 65, 83
1, 45608, Note_on_c, 5, 63, 84
1, 45611, Note_on_c, 9, 54, 0
1, 45700, Note_on_c, 8, 53, 0
1, 45700, Control_c, 3, 11, 91
1, 45705, Note_on_c, 3, 79, 0
1, 45718, Note_on_c, 8, 50, 70
1, 45728, Note_on_c, 3, 77, 74
1, 45770, Note_on_c, 8, 50, 0
1, 45795, Control_c, 3, 11, 87
1, 45825, Note_on_c, 7, 57, 0
1, 45844, Note_on_c, 8, 48, 73
1, 45848, Note_on_c, 7, 57, 69
1, 45885, Control_c, 3, 11, 83
1, 45890, Note_on_c, 8, 48, 0
1, 45945, Note_on_c, 7, 51, 0
1, 45963, Note_on_c, 7, 51, 70
1, 45966, Note_on_c, 8, 53, 74
1, 45980, Control_c, 3, 11, 79
1, 46010, Note_on_c, 8, 53, 0
1, 46055, Note_on_c, 1, 45, 0
1, 46065, Note_on_c, 7, 51, 0
1, 46065, Note_on_c, 7, 57, 0
1, 46065, Note_on_c, 5, 63, 0
1, 46065, Note_on_c, 2, 65, 0
1, 46065, Note_on_c, 2, 57, 0
1, 46065, Note_on_c, 5, 53, 0
1, 46065, Note_on_c, 5, 65, 0
1, 46065, Note_on_c, 0, 65, 0
1, 46065, Note_on_c, 5, 57, 0
1, 46065, Note_on_c, 2, 53, 0
1, 46065, Note_on_c, 2, 63, 0
1, 46065, Note_on_c, 0, 63, 0
1, 46065, Note_on_c, 0, 60, 0
1, 46065, Note_on_c, 7, 60, 0
1, 46065, Note_on_c, 13, 57, 0
1, 46065, Note_on_c, 13, 60, 0
1, 46065, Note_on_c, 13, 65, 0
1, 46065, Note_on_c, 13, 45, 0
1, 46065, Note_on_c, 0, 45, 0
1, 46072, Note_on_c, 2, 65, 84
1, 46073, Note_on_c, 1, 46, 92
1, 46074, Note_on_c, 5, 65, 82
1, 46074, Note_on_c, 13, 65, 61
1, 46075, Note_on_c, 2, 53, 83
1, 46075, Control_c, 3, 11, 75
1, 46077, Note_on_c, 13, 62, 59
1, 46078, Note_on_c, 2, 62, 84
1, 46079, Note_on_c, 5, 58, 84
1, 46080, Note_on_c, 0, 46, 88
1, 46081, Note_on_c, 0, 65, 90
1, 46081, Note_on_c, 0, 62, 86
1, 46081, Note_on_c, 13, 58, 59
1, 46082, Note_on_c, 5, 62, 83
1, 46082, Note_on_c, 7, 50, 86
1, 46082, Note_on_c, 13, 46, 60
1, 46083, Note_on_c, 0, 58, 90
1, 46086, Note_on_c, 2, 58, 85
1, 46087, Note_on_c, 5, 53, 85
1, 46170, Control_c, 3, 11, 71
1, 46185, Note_on_c, 3, 77, 0
1, 46315, Note_on_c, 7, 58, 70
1, 46425, Pitch_bend_c, 8, 0
1, 46438, Note_on_c, 8, 50, 73
1, 46440, Control_c, 3, 11, 127
1, 46500, Pitch_bend_c, 8, 8192
1, 46540, Note_on_c, 8, 50, 0
1, 46545, Note_on_c, 5, 53, 0
1, 46545, Note_on_c, 2, 58, 0
1, 46545, Note_on_c, 0, 58, 0
1, 46545, Note_on_c, 5, 62, 0
1, 46545, Note_on_c, 0, 62, 0
1, 46545, Note_on_c, 0, 65, 0
1, 46545, Note_on_c, 5, 58, 0
1, 46545, Note_on_c, 2, 62, 0
1, 46545, Note_on_c, 2, 53, 0
1, 46545, Note_on_c, 5, 65, 0
1, 46545, Note_on_c, 2, 65, 0
1, 46556, Note_on_c, 5, 62, 80
1, 46557, Note_on_c, 0, 58, 83
1, 46557, Note_on_c, 0, 65, 86
1, 46557, Note_on_c, 2, 58, 82
1, 46557, Note_on_c, 2, 65, 81
1, 46558, Note_on_c, 7, 62, 78
1, 46559, Note_on_c, 5, 58, 78
1, 46560, Note_on_c, 0, 62, 82
1, 46560, Note_on_c, 5, 65, 78
1, 46561, Note_on_c, 5, 53, 79
1, 46564, Note_on_c, 2, 62, 80
1, 46566, Note_on_c, 8, 53, 86
1, 46567, Note_on_c, 2, 53, 81
1, 46568, Note_on_c, 9, 54, 73
1, 46581, Note_on_c, 9, 54, 0
1, 46660, Note_on_c, 8, 53, 0
1, 46682, Note_on_c, 8, 50, 69
1, 46730, Note_on_c, 8, 50, 0
1, 46775, Note_on_c, 1, 46, 0
1, 46785, Note_on_c, 7, 58, 0
1, 46794, Note_on_c, 7, 58, 70
1, 46795, Note_on_c, 8, 48, 75
1, 46802, Note_on_c, 1, 46, 83
1, 46850, Note_on_c, 8, 48, 0
1, 46914, Note_on_c, 8, 53, 83
1, 46920, Note_on_c, 7, 53, 80
1, 46970, Note_on_c, 8, 53, 0
1, 47015, Note_on_c, 1, 46, 0
1, 47025, Note_on_c, 7, 53, 0
1, 47025, Note_on_c, 7, 58, 0
1, 47025, Note_on_c, 2, 53, 0
1, 47025, Note_on_c, 2, 62, 0
1, 47025, Note_on_c, 5, 53, 0
1, 47025, Note_on_c, 5, 65, 0
1, 47025, Note_on_c, 0, 62, 0
1, 47025, Note_on_c, 5, 58, 0
1, 47025, Note_on_c, 7, 62, 0
1, 47025, Note_on_c, 2, 65, 0
1, 47025, Note_on_c, 2, 58, 0
1, 47025, Note_on_c, 0, 65, 0
1, 47025, Note_on_c, 0, 58, 0
1, 47025, Note_on_c, 5, 62, 0
1, 47025, Note_on_c, 13, 46, 0
1, 47025, Note_on_c, 7, 50, 0
1, 47025, Note_on_c, 13, 58, 0
1, 47025, Note_on_c, 0, 46, 0
1, 47025, Note_on_c, 13, 62, 0
1, 47025, Note_on_c, 13, 65, 0
1, 47034, Note_on_c, 5, 58, 80
1, 47037, Note_on_c, 0, 48, 85
1, 47037, Note_on_c, 1, 48, 90
1, 47037, Note_on_c, 5, 48, 81
1, 47037, Note_on_c, 13, 58, 60
1, 47037, Note_on_c, 13, 65, 58
1, 47038, Note_on_c, 0, 62, 86
1, 47038, Note_on_c, 2, 55, 81
1, 47038, Note_on_c, 2, 48, 82
1, 47038, Note_on_c, 13, 60, 58
1, 47038, Note_on_c, 13, 48, 61
1, 47040, Note_on_c, 0, 58, 83
1, 47042, Note_on_c, 0, 65, 84
1, 47042, Note_on_c, 2, 62, 79
1, 47043, Note_on_c, 5, 55, 81
1, 47045, Note_on_c, 5, 62, 82
1, 47046, Note_on_c, 2, 58, 81
1, 47047, Note_on_c, 7, 60, 80
1, 47157, Note_on_c, 8, 50, 70
1, 47210, Note_on_c, 8, 50, 0
1, 47279, Note_on_c, 9, 42, 38
1, 47283, Note_on_c, 7, 53, 70
1, 47285, Note_on_c, 8, 53, 75
1, 47292, Note_on_c, 9, 42, 0
1, 47330, Note_on_c, 8, 53, 0
1, 47375, Note_on_c, 1, 48, 0
1, 47393, Note_on_c, 8, 55, 77
1, 47400, Note_on_c, 1, 43, 88
1, 47450, Note_on_c, 8, 55, 0
1, 47460, Control_c, 1, 101, 0
1, 47465, Control_c, 1, 100, 0
1, 47470, Control_c, 1, 6, 5
1, 47485, Note_on_c, 1, 43, 0
1, 47505, Note_on_c, 7, 53, 0
1, 47505, Note_on_c, 2, 58, 0
1, 47505, Note_on_c, 5, 62, 0
1, 47505, Note_on_c, 5, 55, 0
1, 47505, Note_on_c, 2, 62, 0
1, 47505, Note_on_c, 0, 58, 0
1, 47505, Note_on_c, 2, 48, 0
1, 47505, Note_on_c, 2, 55, 0
1, 47505, Note_on_c, 0, 62, 0
1, 47505, Note_on_c, 5, 48, 0
1, 47505, Note_on_c, 5, 58, 0
1, 47505, Pitch_bend_c, 1, 16383
1, 47505, Pitch_bend_c, 8, 0
1, 47514, Note_on_c, 2, 55, 77
1, 47514, Note_on_c, 5, 58, 78
1, 47515, Note_on_c, 1, 31, 92
1, 47516, Note_on_c, 2, 58, 78
1, 47517, Note_on_c, 0, 58, 83
1, 47517, Note_on_c, 5, 62, 77
1, 47518, Note_on_c, 8, 57, 81
1, 47520, Note_on_c, 0, 62, 81
1, 47521, Note_on_c, 5, 48, 79
1, 47521, Note_on_c, 5, 55, 79
1, 47523, Note_on_c, 7, 53, 81
1, 47528, Note_on_c, 2, 48, 81
1, 47528, Note_on_c, 2, 62, 77
1, 47528, Note_on_c, 9, 46, 62
1, 47541, Note_on_c, 9, 46, 0
1, 47560, Pitch_bend_c, 8, 4096
1, 47600, Pitch_bend_c, 8, 8192
1, 47775, Pitch_bend_c, 1, 15767
1, 47795, Pitch_bend_c, 1, 14948
1, 47815, Pitch_bend_c, 1, 14129
1, 47835, Pitch_bend_c, 1, 13310
1, 47855, Pitch_bend_c, 1, 12491
1, 47875, Pitch_bend_c, 1, 11672
1, 47895, Pitch_bend_c, 1, 10853
1, 47915, Pitch_bend_c, 1, 10034
1, 47935, Pitch_bend_c, 1, 9215
1, 47955, Pitch_bend_c, 1, 8396
1, 47960, Pitch_bend_c, 1, 8192
1, 47970, Control_c, 1, 6, 2
1, 47975, Note_on_c, 1, 31, 0
1, 47975, Control_c, 1, 101, 127
1, 47980, Note_on_c, 8, 57, 0
1, 47980, Control_c, 1, 100, 127
1, 47985, Note_on_c, 2, 62, 0
1, 47985, Note_on_c, 2, 48, 0
1, 47985, Note_on_c, 7, 53, 0
1, 47985, Note_on_c, 5, 55, 0
1, 47985, Note_on_c, 5, 48, 0
1, 47985, Note_on_c, 0, 62, 0
1, 47985, Note_on_c, 5, 62, 0
1, 47985, Note_on_c, 0, 58, 0
1, 47985, Note_on_c, 2, 58, 0
1, 47985, Note_on_c, 5, 58, 0
1, 47985, Note_on_c, 2, 55, 0
1, 47985, Note_on_c, 7, 60, 0
1, 47985, Note_on_c, 0, 65, 0
1, 47985, Note_on_c, 13, 48, 0
1, 47985, Note_on_c, 13, 60, 0
1, 47985, Note_on_c, 13, 65, 0
1, 47985, Note_on_c, 13, 58, 0
1, 47985, Note_on_c, 0, 48, 0
1, 47985, Note_on_c, 13, 77, 0
1, 47992, Note_on_c, 6, 53, 69
1, 47994, Note_on_c, 5, 65, 84
1, 47997, Note_on_c, 0, 57, 87
1, 47997, Note_on_c, 2, 53, 81
1, 47998, Note_on_c, 2, 65, 83
1, 47998, Note_on_c, 6, 65, 71
1, 47999, Note_on_c, 5, 60, 85
1, 48000, Note_on_c, 0, 60, 85
1, 48000, Note_on_c, 9, 36, 90
1, 48000, Note_on_c, 9, 57, 75
1, 48001, Note_on_c, 0, 41, 85
1, 48002, Note_on_c, 2, 60, 83
1, 48003, Note_on_c, 0, 65, 89
1, 48003, Note_on_c, 5, 53, 85
1, 48003, Note_on_c, 5, 57, 82
1, 48004, Note_on_c, 6, 57, 71
1, 48005, Note_on_c, 1, 29, 103
1, 48006, Note_on_c, 6, 60, 67
1, 48007, Note_on_c, 2, 57, 84
1, 48007, Note_on_c, 7, 53, 85
1, 48013, Note_on_c, 9, 57, 0
1, 48013, Note_on_c, 9, 36, 0
1, 48225, Note_on_c, 5, 53, 0
1, 48225, Note_on_c, 2, 53, 0
1, 48237, Note_on_c, 2, 53, 69
1, 48239, Note_on_c, 7, 57, 67
1, 48241, Note_on_c, 9, 42, 64
1, 48243, Note_on_c, 5, 53, 70
1, 48254, Note_on_c, 9, 42, 0
1, 48465, Note_on_c, 5, 53, 0
1, 48465, Note_on_c, 2, 53, 0
1, 48465, Note_on_c, 2, 57, 0
1, 48465, Note_on_c, 5, 57, 0
1, 48465, Note_on_c, 0, 65, 0
1, 48465, Note_on_c, 2, 60, 0
1, 48465, Note_on_c, 0, 60, 0
1, 48465, Note_on_c, 5, 60, 0
1, 48465, Note_on_c, 2, 65, 0
1, 48465, Note_on_c, 0, 57, 0
1, 48465, Note_on_c, 5, 65, 0
1, 48472, Note_on_c, 5, 53, 83
1, 48474, Note_on_c, 5, 65, 79
1, 48475, Note_on_c, 7, 60, 80
1, 48476, Note_on_c, 2, 53, 79
1, 48476, Note_on_c, 2, 57, 82
1, 48477, Lyric_t, "There's "
1, 48477, Note_on_c, 3, 81, 89
1, 48479, Note_on_c, 0, 57, 85
1, 48479, Note_on_c, 0, 60, 87
1, 48480, Note_on_c, 9, 37, 110
1, 48481, Note_on_c, 0, 65, 83
1, 48483, Note_on_c, 5, 57, 81
1, 48484, Note_on_c, 2, 60, 83
1, 48486, Note_on_c, 2, 65, 83
1, 48486, Note_on_c, 9, 42, 99
1, 48487, Note_on_c, 5, 60, 82
1, 48493, Note_on_c, 9, 37, 0
1, 48499, Note_on_c, 9, 42, 0
1, 48585, Note_on_c, 3, 81, 0
1, 48600, Lyric_t, "a "
1, 48600, Note_on_c, 3, 84, 72
1, 48670, Note_on_c, 3, 84, 0
1, 48705, Note_on_c, 2, 53, 0
1, 48705, Note_on_c, 5, 53, 0
1, 48705, Note_on_c, 7, 57, 0
1, 48716, Note_on_c, 5, 53, 69
1, 48720, Lyric_t, "thou"
1, 48720, Note_on_c, 3, 84, 78
1, 48722, Note_on_c, 2, 53, 70
1, 48725, Note_on_c, 9, 42, 66
1, 48727, Note_on_c, 7, 57, 73
1, 48738, Note_on_c, 9, 42, 0
1, 48825, Note_on_c, 3, 84, 0
1, 48825, Note_on_c, 7, 53, 0
1, 48838, Note_on_c, 7, 53, 78
1, 48848, Lyric_t, "sand "
1, 48848, Note_on_c, 3, 84, 83
1, 48910, Note_on_c, 3, 84, 0
1, 48935, Note_on_c, 1, 29, 0
1, 48945, Note_on_c, 7, 53, 0
1, 48945, Note_on_c, 7, 57, 0
1, 48945, Note_on_c, 2, 53, 0
1, 48945, Note_on_c, 5, 53, 0
1, 48945, Note_on_c, 5, 60, 0
1, 48945, Note_on_c, 2, 65, 0
1, 48945, Note_on_c, 2, 60, 0
1, 48945, Note_on_c, 5, 57, 0
1, 48945, Note_on_c, 0, 65, 0
1, 48945, Note_on_c, 0, 60, 0
1, 48945, Note_on_c, 0, 57, 0
1, 48945, Note_on_c, 2, 57, 0
1, 48945, Note_on_c, 7, 60, 0
1, 48945, Note_on_c, 5, 65, 0
1, 48945, Note_on_c, 6, 60, 0
1, 48945, Note_on_c, 6, 57, 0
1, 48945, Note_on_c, 0, 41, 0
1, 48945, Note_on_c, 6, 65, 0
1, 48945, Note_on_c, 6, 53, 0
1, 48945, Pitch_bend_c, 3, 4971
1, 48954, Note_on_c, 2, 52, 76
1, 48955, Note_on_c, 5, 52, 77
1, 48956, Note_on_c, 6, 52, 64
1, 48958, Note_on_c, 0, 64, 81
1, 48958, Note_on_c, 6, 61, 64
1, 48960, Note_on_c, 9, 36, 90
1, 48961, Note_on_c, 2, 55, 79
1, 48961, Note_on_c, 6, 64, 67
1, 48962, Note_on_c, 0, 45, 83
1, 48962, Note_on_c, 0, 55, 81
1, 48962, Note_on_c, 5, 55, 76
1, 48962, Note_on_c, 5, 61, 76
1, 48962, Note_on_c, 6, 57, 68
1, 48962, Note_on_c, 9, 42, 98
1, 48963, Note_on_c, 0, 61, 81
1, 48963, Note_on_c, 2, 61, 79
1, 48965, Note_on_c, 2, 64, 76
1, 48966, Note_on_c, 1, 33, 100
1, 48967, Lyric_t, "ways "
1, 48967, Lyric_t, "\015"
1, 48967, Note_on_c, 3, 85, 84
1, 48968, Note_on_c, 5, 64, 79
1, 48968, Note_on_c, 7, 55, 79
1, 48973, Note_on_c, 9, 36, 0
1, 48975, Note_on_c, 9, 42, 0
1, 48980, Pitch_bend_c, 3, 5241
1, 48990, Pitch_bend_c, 3, 5777
1, 49000, Pitch_bend_c, 3, 6314
1, 49010, Pitch_bend_c, 3, 6851
1, 49020, Pitch_bend_c, 3, 7387
1, 49030, Pitch_bend_c, 3, 7924
1, 49035, Pitch_bend_c, 3, 8192
1, 49185, Note_on_c, 5, 52, 0
1, 49185, Note_on_c, 2, 52, 0
1, 49194, Note_on_c, 2, 52, 72
1, 49198, Note_on_c, 5, 52, 70
1, 49200, Note_on_c, 9, 42, 65
1, 49202, Note_on_c, 7, 52, 72
1, 49213, Note_on_c, 9, 42, 0
1, 49345, Note_on_c, 3, 85, 0
1, 49425, Note_on_c, 5, 52, 0
1, 49425, Note_on_c, 2, 52, 0
1, 49425, Note_on_c, 5, 64, 0
1, 49425, Note_on_c, 2, 64, 0
1, 49425, Note_on_c, 2, 61, 0
1, 49425, Note_on_c, 0, 61, 0
1, 49425, Note_on_c, 5, 61, 0
1, 49425, Note_on_c, 5, 55, 0
1, 49425, Note_on_c, 0, 55, 0
1, 49425, Note_on_c, 2, 55, 0
1, 49425, Note_on_c, 0, 64, 0
1, 49432, Note_on_c, 2, 52, 82
1, 49433, Note_on_c, 5, 52, 84
1, 49433, Note_on_c, 9, 42, 99
1, 49437, Note_on_c, 5, 61, 82
1, 49438, Note_on_c, 0, 64, 87
1, 49438, Note_on_c, 0, 61, 87
1, 49438, Note_on_c, 2, 64, 84
1, 49439, Note_on_c, 5, 55, 83
1, 49440, Note_on_c, 0, 55, 86
1, 49440, Note_on_c, 9, 37, 110
1, 49442, Note_on_c, 2, 61, 85
1, 49442, Note_on_c, 9, 82, 65
1, 49442, Note_on_c, 9, 54, 77
1, 49443, Note_on_c, 2, 55, 81
1, 49445, Note_on_c, 5, 64, 82
1, 49446, Note_on_c, 9, 42, 0
1, 49448, Note_on_c, 7, 61, 81
1, 49453, Note_on_c, 9, 37, 0
1, 49455, Note_on_c, 9, 54, 0
1, 49455, Note_on_c, 9, 82, 0
1, 49558, Note_on_c, 9, 82, 56
1, 49563, Lyric_t, "For "
1, 49563, Note_on_c, 3, 79, 74
1, 49571, Note_on_c, 9, 82, 0
1, 49630, Note_on_c, 3, 79, 0
1, 49665, Note_on_c, 2, 55, 0
1, 49665, Note_on_c, 5, 55, 0
1, 49665, Note_on_c, 7, 52, 0
1, 49679, Note_on_c, 2, 55, 70
1, 49680, Note_on_c, 7, 52, 69
1, 49681, Note_on_c, 9, 82, 42
1, 49683, Note_on_c, 9, 42, 62
1, 49685, Lyric_t, "things "
1, 49685, Note_on_c, 3, 79, 79
1, 49687, Note_on_c, 5, 55, 70
1, 49694, Note_on_c, 9, 82, 0
1, 49696, Note_on_c, 9, 42, 0
1, 49785, Note_on_c, 3, 79, 0
1, 49794, Lyric_t, "to "
1, 49794, Note_on_c, 3, 77, 76
1, 49795, Note_on_c, 9, 82, 34
1, 49808, Note_on_c, 9, 82, 0
1, 49870, Note_on_c, 3, 77, 0
1, 49895, Note_on_c, 1, 33, 0
1, 49905, Note_on_c, 5, 55, 0
1, 49905, Note_on_c, 7, 52, 0
1, 49905, Note_on_c, 2, 55, 0
1, 49905, Note_on_c, 7, 61, 0
1, 49905, Note_on_c, 5, 64, 0
1, 49905, Note_on_c, 2, 61, 0
1, 49905, Note_on_c, 0, 55, 0
1, 49905, Note_on_c, 2, 64, 0
1, 49905, Note_on_c, 0, 61, 0
1, 49905, Note_on_c, 0, 64, 0
1, 49905, Note_on_c, 5, 61, 0
1, 49905, Note_on_c, 5, 52, 0
1, 49905, Note_on_c, 2, 52, 0
1, 49905, Note_on_c, 7, 55, 0
1, 49905, Note_on_c, 6, 57, 0
1, 49905, Note_on_c, 0, 45, 0
1, 49905, Note_on_c, 6, 64, 0
1, 49905, Note_on_c, 6, 61, 0
1, 49905, Note_on_c, 6, 52, 0
1, 49913, Note_on_c, 5, 65, 83
1, 49915, Note_on_c, 9, 42, 98
1, 49916, Lyric_t, "fall "
1, 49916, Note_on_c, 3, 79, 89
1, 49916, Note_on_c, 9, 82, 62
1, 49917, Note_on_c, 6, 50, 69
1, 49918, Note_on_c, 5, 50, 84
1, 49919, Note_on_c, 0, 62, 87
1, 49919, Note_on_c, 1, 38, 105
1, 49919, Note_on_c, 5, 62, 84
1, 49920, Note_on_c, 0, 50, 90
1, 49920, Note_on_c, 2, 65, 85
1, 49920, Note_on_c, 9, 36, 90
1, 49921, Note_on_c, 6, 65, 68
1, 49922, Note_on_c, 0, 65, 87
1, 49922, Note_on_c, 2, 62, 85
1, 49922, Note_on_c, 7, 50, 86
1, 49923, Note_on_c, 0, 57, 86
1, 49923, Note_on_c, 2, 57, 84
1, 49923, Note_on_c, 6, 62, 71
1, 49923, Note_on_c, 6, 57, 71
1, 49924, Note_on_c, 5, 57, 84
1, 49925, Note_on_c, 2, 50, 84
1, 49928, Note_on_c, 9, 42, 0
1, 49929, Note_on_c, 9, 82, 0
1, 49933, Note_on_c, 9, 36, 0
1, 50042, Note_on_c, 9, 82, 46
1, 50055, Note_on_c, 9, 82, 0
1, 50065, Note_on_c, 3, 79, 0
1, 50086, Lyric_t, "a"
1, 50086, Note_on_c, 3, 77, 75
1, 50145, Note_on_c, 2, 50, 0
1, 50145, Note_on_c, 5, 50, 0
1, 50159, Note_on_c, 9, 42, 66
1, 50161, Note_on_c, 9, 82, 31
1, 50163, Note_on_c, 7, 53, 70
1, 50164, Note_on_c, 2, 50, 70
1, 50167, Note_on_c, 5, 50, 73
1, 50172, Note_on_c, 9, 42, 0
1, 50174, Note_on_c, 9, 82, 0
1, 50185, Note_on_c, 3, 77, 0
1, 50225, Pitch_bend_c, 3, 4971
1, 50235, Lyric_t, "part "
1, 50235, Lyric_t, "\015"
1, 50235, Note_on_c, 3, 81, 75
1, 50260, Pitch_bend_c, 3, 5241
1, 50270, Pitch_bend_c, 3, 5777
1, 50277, Note_on_c, 9, 82, 50
1, 50280, Pitch_bend_c, 3, 6314
1, 50290, Note_on_c, 9, 82, 0
1, 50290, Pitch_bend_c, 3, 6851
1, 50300, Pitch_bend_c, 3, 7387
1, 50310, Pitch_bend_c, 3, 7924
1, 50315, Pitch_bend_c, 3, 8192
1, 50375, Note_on_c, 1, 38, 0
1, 50385, Note_on_c, 5, 50, 0
1, 50385, Note_on_c, 2, 50, 0
1, 50385, Note_on_c, 5, 57, 0
1, 50385, Note_on_c, 2, 57, 0
1, 50385, Note_on_c, 0, 57, 0
1, 50385, Note_on_c, 2, 62, 0
1, 50385, Note_on_c, 0, 65, 0
1, 50385, Note_on_c, 2, 65, 0
1, 50385, Note_on_c, 5, 62, 0
1, 50385, Note_on_c, 0, 62, 0
1, 50385, Note_on_c, 5, 65, 0
1, 50392, Note_on_c, 5, 65, 78
1, 50395, Note_on_c, 5, 50, 80
1, 50397, Note_on_c, 1, 38, 99
1, 50397, Note_on_c, 7, 57, 80
1, 50397, Note_on_c, 9, 82, 66
1, 50397, Note_on_c, 9, 42, 98
1, 50398, Note_on_c, 2, 62, 82
1, 50399, Note_on_c, 2, 57, 81
1, 50399, Note_on_c, 5, 57, 80
1, 50400, Note_on_c, 9, 37, 110
1, 50402, Note_on_c, 0, 57, 86
1, 50402, Note_on_c, 2, 50, 78
1, 50403, Note_on_c, 0, 62, 85
1, 50403, Note_on_c, 0, 65, 84
1, 50403, Note_on_c, 2, 65, 79
1, 50406, Note_on_c, 5, 62, 78
1, 50410, Note_on_c, 9, 42, 0
1, 50410, Note_on_c, 9, 82, 0
1, 50413, Note_on_c, 9, 37, 0
1, 50516, Note_on_c, 9, 82, 50
1, 50529, Note_on_c, 9, 82, 0
1, 50625, Note_on_c, 3, 81, 0
1, 50625, Note_on_c, 7, 53, 0
1, 50635, Note_on_c, 9, 82, 31
1, 50637, Note_on_c, 2, 53, 70
1, 50642, Note_on_c, 7, 53, 69
1, 50642, Note_on_c, 9, 42, 62
1, 50646, Note_on_c, 13, 50, 61
1, 50647, Note_on_c, 5, 53, 68
1, 50648, Note_on_c, 9, 82, 0
1, 50655, Note_on_c, 9, 42, 0
1, 50745, Note_on_c, 13, 50, 0
1, 50760, Note_on_c, 9, 36, 75
1, 50768, Note_on_c, 9, 82, 47
1, 50768, Note_on_c, 13, 52, 60
1, 50773, Note_on_c, 9, 36, 0
1, 50781, Note_on_c, 9, 82, 0
1, 50855, Note_on_c, 1, 38, 0
1, 50865, Note_on_c, 13, 52, 0
1, 50865, Note_on_c, 5, 53, 0
1, 50865, Note_on_c, 7, 53, 0
1, 50865, Note_on_c, 2, 53, 0
1, 50865, Note_on_c, 5, 62, 0
1, 50865, Note_on_c, 2, 65, 0
1, 50865, Note_on_c, 0, 65, 0
1, 50865, Note_on_c, 0, 62, 0
1, 50865, Note_on_c, 2, 50, 0
1, 50865, Note_on_c, 0, 57, 0
1, 50865, Note_on_c, 5, 57, 0
1, 50865, Note_on_c, 2, 57, 0
1, 50865, Note_on_c, 2, 62, 0
1, 50865, Note_on_c, 7, 57, 0
1, 50865, Note_on_c, 5, 50, 0
1, 50865, Note_on_c, 5, 65, 0
1, 50865, Note_on_c, 7, 50, 0
1, 50876, Note_on_c, 5, 57, 82
1, 50878, Note_on_c, 0, 62, 85
1, 50878, Note_on_c, 0, 57, 86
1, 50878, Note_on_c, 2, 50, 82
1, 50878, Note_on_c, 2, 65, 82
1, 50880, Note_on_c, 9, 36, 90
1, 50881, Note_on_c, 9, 42, 100
1, 50882, Note_on_c, 0, 65, 84
1, 50883, Note_on_c, 2, 57, 78
1, 50883, Note_on_c, 5, 50, 82
1, 50883, Note_on_c, 5, 65, 81
1, 50883, Note_on_c, 5, 62, 80
1, 50883, Note_on_c, 7, 50, 78
1, 50887, Note_on_c, 2, 62, 78
1, 50888, Note_on_c, 9, 82, 66
1, 50888, Note_on_c, 13, 53, 59
1, 50893, Note_on_c, 9, 36, 0
1, 50894, Note_on_c, 9, 42, 0
1, 50901, Note_on_c, 9, 82, 0
1, 50993, Note_on_c, 1, 38, 94
1, 51000, Note_on_c, 9, 36, 75
1, 51003, Note_on_c, 9, 82, 50
1, 51013, Note_on_c, 9, 36, 0
1, 51016, Note_on_c, 9, 82, 0
1, 51030, Note_on_c, 1, 38, 0
1, 51105, Note_on_c, 13, 53, 0
1, 51112, Note_on_c, 7, 53, 70
1, 51112, Note_on_c, 13, 55, 60
1, 51114, Note_on_c, 9, 82, 30
1, 51118, Note_on_c, 9, 42, 65
1, 51122, Note_on_c, 1, 38, 97
1, 51127, Note_on_c, 9, 82, 0
1, 51131, Note_on_c, 9, 42, 0
1, 51242, Note_on_c, 9, 82, 46
1, 51255, Note_on_c, 9, 82, 0
1, 51345, Note_on_c, 13, 55, 0
1, 51345, Note_on_c, 2, 62, 0
1, 51345, Note_on_c, 5, 62, 0
1, 51345, Note_on_c, 5, 65, 0
1, 51345, Note_on_c, 5, 50, 0
1, 51345, Note_on_c, 2, 57, 0
1, 51345, Note_on_c, 0, 65, 0
1, 51345, Note_on_c, 2, 65, 0
1, 51345, Note_on_c, 2, 50, 0
1, 51345, Note_on_c, 0, 57, 0
1, 51345, Note_on_c, 0, 62, 0
1, 51345, Note_on_c, 5, 57, 0
1, 51354, Note_on_c, 9, 82, 64
1, 51356, Note_on_c, 5, 62, 80
1, 51357, Note_on_c, 0, 57, 84
1, 51357, Note_on_c, 2, 65, 81
1, 51357, Note_on_c, 9, 42, 98
1, 51358, Note_on_c, 2, 62, 77
1, 51358, Note_on_c, 2, 50, 77
1, 51358, Note_on_c, 5, 57, 81
1, 51360, Note_on_c, 9, 37, 110
1, 51361, Note_on_c, 0, 65, 83
1, 51361, Note_on_c, 0, 62, 84
1, 51362, Note_on_c, 7, 57, 80
1, 51362, Note_on_c, 13, 57, 62
1, 51363, Note_on_c, 5, 65, 79
1, 51366, Note_on_c, 2, 57, 77
1, 51366, Note_on_c, 9, 54, 76
1, 51367, Note_on_c, 9, 82, 0
1, 51368, Note_on_c, 5, 50, 79
1, 51370, Note_on_c, 9, 42, 0
1, 51373, Note_on_c, 9, 37, 0
1, 51379, Note_on_c, 9, 54, 0
1, 51480, Lyric_t, "But "
1, 51480, Note_on_c, 3, 84, 76
1, 51480, Note_on_c, 9, 82, 56
1, 51493, Note_on_c, 9, 82, 0
1, 51575, Note_on_c, 1, 38, 0
1, 51585, Note_on_c, 3, 84, 0
1, 51585, Note_on_c, 5, 50, 0
1, 51585, Note_on_c, 13, 57, 0
1, 51585, Note_on_c, 2, 50, 0
1, 51585, Note_on_c, 7, 50, 0
1, 51592, Note_on_c, 7, 50, 69
1, 51597, Note_on_c, 5, 50, 72
1, 51598, Note_on_c, 9, 42, 64
1, 51602, Lyric_t, "it's "
1, 51602, Note_on_c, 3, 81, 77
1, 51603, Note_on_c, 13, 60, 59
1, 51604, Note_on_c, 1, 33, 94
1, 51604, Note_on_c, 9, 82, 43
1, 51605, Note_on_c, 2, 50, 71
1, 51611, Note_on_c, 9, 42, 0
1, 51617, Note_on_c, 9, 82, 0
1, 51670, Note_on_c, 3, 81, 0
1, 51719, Lyric_t, "no "
1, 51719, Note_on_c, 3, 84, 82
1, 51723, Note_on_c, 9, 82, 32
1, 51736, Note_on_c, 9, 82, 0
1, 51815, Note_on_c, 1, 33, 0
1, 51825, Note_on_c, 3, 84, 0
1, 51825, Note_on_c, 2, 50, 0
1, 51825, Note_on_c, 13, 60, 0
1, 51825, Note_on_c, 5, 50, 0
1, 51825, Note_on_c, 7, 50, 0
1, 51825, Note_on_c, 2, 57, 0
1, 51825, Note_on_c, 5, 65, 0
1, 51825, Note_on_c, 7, 57, 0
1, 51825, Note_on_c, 0, 62, 0
1, 51825, Note_on_c, 0, 65, 0
1, 51825, Note_on_c, 5, 57, 0
1, 51825, Note_on_c, 2, 62, 0
1, 51825, Note_on_c, 2, 65, 0
1, 51825, Note_on_c, 0, 57, 0
1, 51825, Note_on_c, 5, 62, 0
1, 51825, Note_on_c, 7, 53, 0
1, 51825, Note_on_c, 6, 57, 0
1, 51825, Note_on_c, 6, 62, 0
1, 51825, Note_on_c, 6, 65, 0
1, 51825, Note_on_c, 0, 50, 0
1, 51825, Note_on_c, 6, 50, 0
1, 51832, Note_on_c, 2, 55, 81
1, 51833, Note_on_c, 6, 50, 71
1, 51834, Note_on_c, 7, 55, 84
1, 51835, Lyric_t, "one's "
1, 51835, Note_on_c, 3, 81, 93
1, 51836, Note_on_c, 2, 58, 82
1, 51836, Note_on_c, 5, 55, 81
1, 51836, Note_on_c, 6, 58, 69
1, 51837, Note_on_c, 0, 65, 85
1, 51837, Note_on_c, 2, 62, 81
1, 51839, Note_on_c, 0, 58, 87
1, 51839, Note_on_c, 2, 50, 84
1, 51839, Note_on_c, 5, 62, 83
1, 51840, Note_on_c, 0, 43, 87
1, 51840, Note_on_c, 9, 36, 90
1, 51840, Note_on_c, 9, 42, 98
1, 51841, Note_on_c, 0, 62, 86
1, 51842, Note_on_c, 6, 62, 71
1, 51843, Note_on_c, 5, 58, 85
1, 51843, Note_on_c, 5, 50, 82
1, 51843, Note_on_c, 6, 55, 69
1, 51845, Note_on_c, 9, 82, 66
1, 51847, Note_on_c, 13, 62, 58
1, 51848, Note_on_c, 1, 31, 101
1, 51853, Note_on_c, 9, 42, 0
1, 51853, Note_on_c, 9, 36, 0
1, 51858, Note_on_c, 9, 82, 0
1, 51962, Note_on_c, 9, 82, 50
1, 51965, Note_on_c, 3, 81, 0
1, 51975, Note_on_c, 9, 82, 0
1, 52065, Note_on_c, 5, 55, 0
1, 52065, Note_on_c, 2, 55, 0
1, 52077, Note_on_c, 2, 55, 68
1, 52077, Note_on_c, 5, 55, 67
1, 52079, Note_on_c, 9, 82, 30
1, 52080, Lyric_t, "fault. "
1, 52080, Lyric_t, "\015"
1, 52080, Note_on_c, 3, 79, 78
1, 52085, Note_on_c, 9, 42, 65
1, 52087, Note_on_c, 7, 58, 69
1, 52092, Note_on_c, 9, 82, 0
1, 52098, Note_on_c, 9, 42, 0
1, 52150, Note_on_c, 3, 79, 0
1, 52162, Note_on_c, 3, 77, 74
1, 52194, Note_on_c, 9, 82, 47
1, 52207, Note_on_c, 9, 82, 0
1, 52230, Note_on_c, 3, 77, 0
1, 52242, Note_on_c, 3, 74, 76
1, 52295, Note_on_c, 1, 31, 0
1, 52305, Note_on_c, 5, 55, 0
1, 52305, Note_on_c, 2, 55, 0
1, 52305, Note_on_c, 5, 50, 0
1, 52305, Note_on_c, 5, 58, 0
1, 52305, Note_on_c, 0, 62, 0
1, 52305, Note_on_c, 5, 62, 0
1, 52305, Note_on_c, 2, 50, 0
1, 52305, Note_on_c, 0, 58, 0
1, 52305, Note_on_c, 2, 62, 0
1, 52305, Note_on_c, 0, 65, 0
1, 52305, Note_on_c, 2, 58, 0
1, 52313, Note_on_c, 5, 55, 83
1, 52313, Note_on_c, 7, 62, 83
1, 52315, Note_on_c, 1, 31, 103
1, 52315, Note_on_c, 5, 58, 80
1, 52315, Note_on_c, 9, 42, 100
1, 52317, Note_on_c, 0, 62, 83
1, 52317, Note_on_c, 2, 62, 81
1, 52318, Note_on_c, 0, 58, 86
1, 52318, Note_on_c, 0, 65, 84
1, 52319, Note_on_c, 2, 50, 80
1, 52320, Note_on_c, 9, 37, 110
1, 52323, Note_on_c, 2, 55, 83
1, 52323, Note_on_c, 2, 58, 82
1, 52323, Note_on_c, 5, 62, 82
1, 52325, Note_on_c, 5, 50, 81
1, 52325, Note_on_c, 9, 82, 66
1, 52328, Note_on_c, 9, 42, 0
1, 52333, Note_on_c, 9, 37, 0
1, 52338, Note_on_c, 9, 82, 0
1, 52385, Note_on_c, 3, 74, 0
1, 52436, Note_on_c, 9, 82, 49
1, 52449, Note_on_c, 9, 82, 0
1, 52545, Note_on_c, 5, 50, 0
1, 52545, Note_on_c, 5, 62, 0
1, 52545, Note_on_c, 2, 58, 0
1, 52545, Note_on_c, 2, 55, 0
1, 52545, Note_on_c, 2, 50, 0
1, 52545, Note_on_c, 2, 62, 0
1, 52545, Note_on_c, 5, 58, 0
1, 52545, Note_on_c, 5, 55, 0
1, 52545, Note_on_c, 7, 58, 0
1, 52554, Note_on_c, 2, 50, 71
1, 52557, Note_on_c, 5, 55, 70
1, 52558, Note_on_c, 5, 58, 73
1, 52559, Note_on_c, 2, 58, 69
1, 52560, Note_on_c, 2, 55, 69
1, 52563, Note_on_c, 7, 58, 71
1, 52564, Note_on_c, 2, 62, 69
1, 52567, Note_on_c, 9, 82, 33
1, 52568, Note_on_c, 5, 62, 69
1, 52568, Note_on_c, 5, 50, 72
1, 52568, Note_on_c, 9, 42, 66
1, 52580, Note_on_c, 9, 82, 0
1, 52581, Note_on_c, 9, 42, 0
1, 52655, Note_on_c, 1, 31, 0
1, 52665, Note_on_c, 5, 50, 0
1, 52665, Note_on_c, 5, 62, 0
1, 52665, Note_on_c, 2, 62, 0
1, 52665, Note_on_c, 2, 55, 0
1, 52665, Note_on_c, 2, 58, 0
1, 52665, Note_on_c, 5, 58, 0
1, 52665, Note_on_c, 5, 55, 0
1, 52665, Note_on_c, 2, 50, 0
1, 52672, Note_on_c, 2, 50, 77
1, 52673, Note_on_c, 1, 31, 100
1, 52674, Note_on_c, 2, 55, 77
1, 52676, Note_on_c, 2, 62, 79
1, 52677, Note_on_c, 2, 58, 76
1, 52682, Note_on_c, 5, 58, 77
1, 52683, Note_on_c, 5, 50, 78
1, 52684, Note_on_c, 5, 55, 75
1, 52684, Note_on_c, 5, 62, 75
1, 52684, Note_on_c, 9, 82, 49
1, 52697, Note_on_c, 9, 82, 0
1, 52775, Note_on_c, 1, 31, 0
1, 52785, Note_on_c, 5, 62, 0
1, 52785, Note_on_c, 5, 55, 0
1, 52785, Note_on_c, 5, 50, 0
1, 52785, Note_on_c, 5, 58, 0
1, 52785, Note_on_c, 2, 58, 0
1, 52785, Note_on_c, 2, 62, 0
1, 52785, Note_on_c, 2, 55, 0
1, 52785, Note_on_c, 2, 50, 0
1, 52785, Note_on_c, 7, 58, 0
1, 52785, Note_on_c, 0, 65, 0
1, 52785, Note_on_c, 0, 58, 0
1, 52785, Note_on_c, 0, 62, 0
1, 52785, Note_on_c, 7, 62, 0
1, 52785, Note_on_c, 13, 62, 0
1, 52785, Note_on_c, 6, 55, 0
1, 52785, Note_on_c, 6, 62, 0
1, 52785, Note_on_c, 0, 43, 0
1, 52785, Note_on_c, 6, 58, 0
1, 52785, Note_on_c, 7, 55, 0
1, 52785, Note_on_c, 6, 50, 0
1, 52797, Note_on_c, 0, 60, 82
1, 52798, Note_on_c, 2, 60, 79
1, 52798, Note_on_c, 13, 60, 60
1, 52800, Note_on_c, 5, 60, 77
1, 52800, Note_on_c, 6, 79, 66
1, 52800, Note_on_c, 9, 36, 90
1, 52802, Note_on_c, 0, 48, 81
1, 52802, Note_on_c, 0, 64, 81
1, 52802, Note_on_c, 2, 55, 77
1, 52802, Note_on_c, 5, 64, 79
1, 52802, Note_on_c, 5, 55, 77
1, 52803, Note_on_c, 0, 55, 80
1, 52803, Note_on_c, 7, 60, 80
1, 52803, Note_on_c, 9, 82, 62
1, 52804, Note_on_c, 1, 36, 102
1, 52805, Note_on_c, 2, 64, 77
1, 52806, Note_on_c, 5, 48, 80
1, 52808, Note_on_c, 2, 48, 80
1, 52808, Note_on_c, 9, 42, 102
1, 52813, Note_on_c, 9, 36, 0
1, 52816, Note_on_c, 9, 82, 0
1, 52821, Note_on_c, 9, 42, 0
1, 52919, Lyric_t, "No "
1, 52919, Note_on_c, 3, 81, 72
1, 52922, Note_on_c, 9, 82, 47
1, 52935, Note_on_c, 9, 82, 0
1, 52990, Note_on_c, 3, 81, 0
1, 53025, Note_on_c, 5, 55, 0
1, 53025, Note_on_c, 2, 55, 0
1, 53025, Pitch_bend_c, 3, 4971
1, 53033, Note_on_c, 9, 42, 64
1, 53035, Note_on_c, 3, 84, 80
1, 53040, Note_on_c, 5, 55, 72
1, 53044, Note_on_c, 2, 55, 70
1, 53045, Note_on_c, 7, 55, 70
1, 53046, Note_on_c, 9, 42, 0
1, 53048, Note_on_c, 9, 82, 34
1, 53060, Pitch_bend_c, 3, 5241
1, 53061, Note_on_c, 9, 82, 0
1, 53070, Pitch_bend_c, 3, 5777
1, 53080, Pitch_bend_c, 3, 6314
1, 53090, Pitch_bend_c, 3, 6851
1, 53100, Pitch_bend_c, 3, 7387
1, 53110, Pitch_bend_c, 3, 7924
1, 53115, Pitch_bend_c, 3, 8192
1, 53162, Note_on_c, 9, 82, 46
1, 53175, Note_on_c, 9, 82, 0
1, 53265, Note_on_c, 2, 55, 0
1, 53265, Note_on_c, 5, 55, 0
1, 53265, Note_on_c, 3, 84, 0
1, 53265, Note_on_c, 2, 48, 0
1, 53265, Note_on_c, 5, 48, 0
1, 53265, Note_on_c, 2, 64, 0
1, 53265, Note_on_c, 7, 60, 0
1, 53265, Note_on_c, 0, 55, 0
1, 53265, Note_on_c, 5, 64, 0
1, 53265, Note_on_c, 0, 64, 0
1, 53265, Note_on_c, 5, 60, 0
1, 53265, Note_on_c, 2, 60, 0
1, 53265, Note_on_c, 0, 60, 0
1, 53272, Note_on_c, 9, 82, 64
1, 53275, Note_on_c, 2, 60, 81
1, 53275, Note_on_c, 9, 42, 100
1, 53276, Note_on_c, 9, 54, 73
1, 53277, Note_on_c, 0, 55, 89
1, 53277, Note_on_c, 0, 64, 85
1, 53277, Note_on_c, 2, 64, 83
1, 53277, Note_on_c, 6, 72, 69
1, 53278, Note_on_c, 2, 55, 82
1, 53280, Note_on_c, 9, 37, 110
1, 53281, Note_on_c, 0, 60, 88
1, 53281, Note_on_c, 5, 60, 82
1, 53281, Note_on_c, 7, 60, 82
1, 53282, Note_on_c, 2, 48, 83
1, 53282, Note_on_c, 5, 48, 83
1, 53283, Note_on_c, 5, 64, 85
1, 53284, Note_on_c, 5, 55, 82
1, 53285, Note_on_c, 9, 82, 0
1, 53288, Note_on_c, 9, 42, 0
1, 53289, Note_on_c, 9, 54, 0
1, 53293, Note_on_c, 9, 37, 0
1, 53396, Lyric_t, "it's "
1, 53396, Note_on_c, 3, 79, 74
1, 53397, Note_on_c, 9, 82, 53
1, 53410, Note_on_c, 9, 82, 0
1, 53495, Note_on_c, 1, 36, 0
1, 53505, Note_on_c, 5, 55, 0
1, 53505, Note_on_c, 2, 55, 0
1, 53505, Note_on_c, 13, 60, 0
1, 53514, Note_on_c, 2, 55, 68
1, 53517, Note_on_c, 9, 42, 66
1, 53520, Note_on_c, 7, 58, 68
1, 53523, Note_on_c, 9, 82, 41
1, 53526, Note_on_c, 5, 55, 72
1, 53526, Note_on_c, 13, 58, 61
1, 53527, Note_on_c, 1, 34, 94
1, 53530, Note_on_c, 9, 42, 0
1, 53536, Note_on_c, 9, 82, 0
1, 53615, Note_on_c, 1, 34, 0
1, 53625, Note_on_c, 13, 58, 0
1, 53625, Note_on_c, 5, 55, 0
1, 53625, Note_on_c, 2, 55, 0
1, 53625, Note_on_c, 3, 79, 0
1, 53634, Note_on_c, 13, 60, 58
1, 53637, Note_on_c, 9, 82, 32
1, 53638, Note_on_c, 1, 38, 97
1, 53638, Note_on_c, 2, 55, 70
1, 53644, Lyric_t, "not "
1, 53644, Note_on_c, 3, 79, 75
1, 53647, Note_on_c, 5, 55, 68
1, 53650, Note_on_c, 9, 82, 0
1, 53735, Note_on_c, 1, 38, 0
1, 53745, Note_on_c, 5, 55, 0
1, 53745, Note_on_c, 3, 79, 0
1, 53745, Note_on_c, 2, 55, 0
1, 53745, Note_on_c, 13, 60, 0
1, 53745, Note_on_c, 7, 58, 0
1, 53745, Note_on_c, 5, 64, 0
1, 53745, Note_on_c, 5, 48, 0
1, 53745, Note_on_c, 2, 48, 0
1, 53745, Note_on_c, 7, 60, 0
1, 53745, Note_on_c, 5, 60, 0
1, 53745, Note_on_c, 0, 60, 0
1, 53745, Note_on_c, 6, 72, 0
1, 53745, Note_on_c, 2, 64, 0
1, 53745, Note_on_c, 0, 64, 0
1, 53745, Note_on_c, 0, 55, 0
1, 53745, Note_on_c, 2, 60, 0
1, 53745, Note_on_c, 7, 55, 0
1, 53745, Note_on_c, 0, 48, 0
1, 53745, Note_on_c, 6, 79, 0
1, 53752, Note_on_c, 6, 58, 72
1, 53753, Note_on_c, 2, 62, 86
1, 53753, Note_on_c, 6, 50, 70
1, 53753, Note_on_c, 6, 55, 72
1, 53754, Note_on_c, 2, 58, 82
1, 53756, Note_on_c, 1, 31, 102
1, 53756, Note_on_c, 2, 55, 82
1, 53758, Note_on_c, 7, 65, 83
1, 53760, Tempo, 895522
1, 53760, Note_on_c, 0, 62, 87
1, 53760, Note_on_c, 9, 36, 90
1, 53761, Note_on_c, 0, 65, 86
1, 53761, Note_on_c, 5, 65, 82
1, 53762, Note_on_c, 0, 58, 89
1, 53762, Note_on_c, 2, 65, 83
1, 53762, Note_on_c, 5, 58, 84
1, 53763, Note_on_c, 0, 43, 90
1, 53763, Note_on_c, 13, 62, 59
1, 53766, Note_on_c, 5, 55, 84
1, 53766, Note_on_c, 9, 82, 65
1, 53766, Note_on_c, 9, 42, 101
1, 53767, Note_on_c, 5, 62, 86
1, 53768, Lyric_t, "my "
1, 53768, Note_on_c, 3, 77, 93
1, 53773, Note_on_c, 9, 36, 0
1, 53779, Note_on_c, 9, 42, 0
1, 53779, Note_on_c, 9, 82, 0
1, 53830, Note_on_c, 3, 77, 0
1, 53865, Pitch_bend_c, 3, 4971
1, 53875, Note_on_c, 9, 82, 47
1, 53880, Lyric_t, "fault "
1, 53880, Note_on_c, 3, 79, 76
1, 53888, Note_on_c, 9, 82, 0
1, 53900, Pitch_bend_c, 3, 5241
1, 53910, Pitch_bend_c, 3, 5777
1, 53920, Pitch_bend_c, 3, 6314
1, 53930, Pitch_bend_c, 3, 6851
1, 53940, Pitch_bend_c, 3, 7387
1, 53950, Pitch_bend_c, 3, 7924
1, 53955, Pitch_bend_c, 3, 8192
1, 53975, Note_on_c, 1, 31, 0
1, 53985, Note_on_c, 5, 55, 0
1, 53985, Note_on_c, 2, 55, 0
1, 53992, Note_on_c, 9, 82, 33
1, 53997, Note_on_c, 2, 55, 71
1, 54002, Note_on_c, 1, 31, 99
1, 54002, Note_on_c, 7, 58, 71
1, 54004, Note_on_c, 9, 42, 66
1, 54005, Note_on_c, 9, 82, 0
1, 54005, Note_on_c, 5, 55, 72
1, 54017, Note_on_c, 9, 42, 0
1, 54126, Note_on_c, 9, 82, 48
1, 54139, Note_on_c, 9, 82, 0
1, 54215, Note_on_c, 1, 31, 0
1, 54225, Note_on_c, 5, 55, 0
1, 54225, Note_on_c, 2, 55, 0
1, 54225, Note_on_c, 3, 79, 0
1, 54225, Note_on_c, 5, 62, 0
1, 54225, Note_on_c, 5, 58, 0
1, 54225, Note_on_c, 2, 65, 0
1, 54225, Note_on_c, 0, 58, 0
1, 54225, Note_on_c, 5, 65, 0
1, 54225, Note_on_c, 0, 65, 0
1, 54225, Note_on_c, 0, 62, 0
1, 54225, Note_on_c, 2, 58, 0
1, 54225, Note_on_c, 6, 55, 0
1, 54225, Note_on_c, 6, 50, 0
1, 54225, Note_on_c, 2, 62, 0
1, 54225, Note_on_c, 6, 58, 0
1, 54236, Note_on_c, 2, 65, 79
1, 54236, Note_on_c, 9, 82, 66
1, 54238, Note_on_c, 1, 31, 99
1, 54238, Note_on_c, 6, 50, 69
1, 54239, Note_on_c, 0, 62, 84
1, 54239, Note_on_c, 5, 65, 79
1, 54240, Note_on_c, 0, 65, 82
1, 54240, Note_on_c, 9, 37, 110
1, 54241, Note_on_c, 5, 62, 80
1, 54241, Note_on_c, 9, 42, 101
1, 54242, Note_on_c, 0, 58, 83
1, 54242, Note_on_c, 2, 62, 80
1, 54242, Note_on_c, 5, 55, 79
1, 54243, Note_on_c, 2, 58, 81
1, 54243, Note_on_c, 6, 58, 68
1, 54244, Note_on_c, 6, 62, 65
1, 54246, Note_on_c, 7, 62, 79
1, 54247, Note_on_c, 2, 55, 82
1, 54247, Note_on_c, 5, 58, 82
1, 54248, Note_on_c, 6, 55, 67
1, 54249, Note_on_c, 9, 82, 0
1, 54253, Note_on_c, 9, 37, 0
1, 54254, Note_on_c, 9, 42, 0
1, 54335, Note_on_c, 1, 31, 0
1, 54357, Note_on_c, 1, 43, 94
1, 54365, Note_on_c, 9, 82, 48
1, 54378, Note_on_c, 9, 82, 0
1, 54410, Note_on_c, 1, 43, 0
1, 54465, Note_on_c, 2, 55, 0
1, 54465, Note_on_c, 5, 55, 0
1, 54465, Note_on_c, 7, 58, 0
1, 54474, Note_on_c, 5, 55, 71
1, 54474, Note_on_c, 9, 42, 63
1, 54479, Note_on_c, 9, 82, 34
1, 54487, Note_on_c, 9, 42, 0
1, 54488, Note_on_c, 2, 55, 70
1, 54488, Note_on_c, 7, 58, 68
1, 54492, Note_on_c, 9, 82, 0
1, 54585, Note_on_c, 2, 55, 0
1, 54585, Note_on_c, 5, 55, 0
1, 54592, Note_on_c, 2, 55, 77
1, 54595, Note_on_c, 5, 55, 79
1, 54600, Note_on_c, 9, 36, 75
1, 54602, Note_on_c, 1, 38, 99
1, 54603, Note_on_c, 9, 82, 47
1, 54613, Note_on_c, 9, 36, 0
1, 54616, Note_on_c, 9, 82, 0
1, 54644, Lyric_t, "no. "
1, 54644, Lyric_t, "\015"
1, 54644, Note_on_c, 3, 81, 87
1, 54695, Note_on_c, 1, 38, 0
1, 54705, Note_on_c, 5, 55, 0
1, 54705, Note_on_c, 2, 55, 0
1, 54705, Note_on_c, 7, 58, 0
1, 54705, Note_on_c, 6, 55, 0
1, 54705, Note_on_c, 5, 58, 0
1, 54705, Note_on_c, 7, 62, 0
1, 54705, Note_on_c, 6, 62, 0
1, 54705, Note_on_c, 6, 58, 0
1, 54705, Note_on_c, 2, 58, 0
1, 54705, Note_on_c, 2, 62, 0
1, 54705, Note_on_c, 0, 58, 0
1, 54705, Note_on_c, 5, 62, 0
1, 54705, Note_on_c, 0, 65, 0
1, 54705, Note_on_c, 5, 65, 0
1, 54705, Note_on_c, 0, 62, 0
1, 54705, Note_on_c, 6, 50, 0
1, 54705, Note_on_c, 2, 65, 0
1, 54705, Note_on_c, 13, 62, 0
1, 54705, Note_on_c, 0, 43, 0
1, 54705, Note_on_c, 7, 65, 0
1, 54710, Note_on_c, 3, 81, 0
1, 54715, Note_on_c, 2, 55, 80
1, 54715, Note_on_c, 5, 48, 78
1, 54715, Note_on_c, 6, 55, 67
1, 54717, Note_on_c, 5, 60, 79
1, 54717, Note_on_c, 5, 55, 79
1, 54717, Note_on_c, 6, 67, 69
1, 54718, Note_on_c, 0, 48, 86
1, 54718, Note_on_c, 5, 64, 79
1, 54718, Note_on_c, 6, 60, 67
1, 54718, Note_on_c, 9, 42, 102
1, 54720, Tempo, 923076
1, 54720, Note_on_c, 7, 60, 82
1, 54720, Note_on_c, 9, 36, 90
1, 54721, Note_on_c, 0, 60, 84
1, 54721, Note_on_c, 0, 64, 83
1, 54722, Note_on_c, 0, 55, 85
1, 54722, Note_on_c, 6, 64, 65
1, 54722, Note_on_c, 9, 82, 63
1, 54722, Note_on_c, 13, 60, 62
1, 54724, Note_on_c, 2, 48, 81
1, 54724, Note_on_c, 2, 64, 78
1, 54726, Note_on_c, 1, 36, 102
1, 54727, Note_on_c, 2, 60, 80
1, 54727, Note_on_c, 3, 79, 89
1, 54731, Note_on_c, 9, 42, 0
1, 54733, Note_on_c, 9, 36, 0
1, 54735, Note_on_c, 9, 82, 0
1, 54790, Note_on_c, 3, 79, 0
1, 54797, Note_on_c, 3, 77, 75
1, 54840, Note_on_c, 9, 82, 46
1, 54853, Note_on_c, 9, 82, 0
1, 54870, Note_on_c, 3, 77, 0
1, 54876, Note_on_c, 3, 79, 75
1, 54945, Note_on_c, 6, 67, 0
1, 54945, Note_on_c, 5, 55, 0
1, 54945, Note_on_c, 2, 55, 0
1, 54952, Note_on_c, 9, 42, 63
1, 54956, Note_on_c, 9, 82, 31
1, 54957, Note_on_c, 6, 67, 76
1, 54960, Note_on_c, 7, 55, 69
1, 54960, Note_on_c, 9, 36, 90
1, 54963, Note_on_c, 2, 55, 71
1, 54965, Note_on_c, 9, 42, 0
1, 54966, Note_on_c, 5, 55, 72
1, 54969, Note_on_c, 9, 82, 0
1, 54973, Note_on_c, 9, 36, 0
1, 55082, Note_on_c, 9, 82, 47
1, 55095, Note_on_c, 9, 82, 0
1, 55105, Note_on_c, 3, 79, 0
1, 55118, Note_on_c, 3, 81, 79
1, 55175, Note_on_c, 1, 36, 0
1, 55185, Note_on_c, 5, 55, 0
1, 55185, Note_on_c, 2, 55, 0
1, 55185, Note_on_c, 2, 60, 0
1, 55185, Note_on_c, 2, 64, 0
1, 55185, Note_on_c, 2, 48, 0
1, 55185, Note_on_c, 0, 55, 0
1, 55185, Note_on_c, 0, 64, 0
1, 55185, Note_on_c, 0, 60, 0
1, 55185, Note_on_c, 7, 60, 0
1, 55185, Note_on_c, 5, 64, 0
1, 55185, Note_on_c, 5, 60, 0
1, 55185, Note_on_c, 5, 48, 0
1, 55190, Note_on_c, 3, 81, 0
1, 55193, Note_on_c, 5, 64, 77
1, 55194, Note_on_c, 2, 55, 79
1, 55196, Note_on_c, 6, 72, 81
1, 55196, Note_on_c, 9, 42, 101
1, 55197, Note_on_c, 0, 64, 83
1, 55197, Note_on_c, 1, 36, 101
1, 55197, Note_on_c, 2, 64, 77
1, 55197, Note_on_c, 5, 60, 78
1, 55197, Note_on_c, 5, 55, 79
1, 55198, Note_on_c, 2, 60, 77
1, 55199, Note_on_c, 9, 54, 76
1, 55200, Note_on_c, 9, 37, 110
1, 55201, Note_on_c, 5, 48, 80
1, 55202, Note_on_c, 0, 55, 84
1, 55202, Note_on_c, 7, 60, 79
1, 55203, Note_on_c, 0, 60, 84
1, 55203, Note_on_c, 2, 48, 78
1, 55207, Note_on_c, 9, 82, 63
1, 55209, Note_on_c, 9, 42, 0
1, 55212, Note_on_c, 9, 54, 0
1, 55213, Note_on_c, 9, 37, 0
1, 55220, Note_on_c, 9, 82, 0
1, 55225, Control_c, 13, 11, 123
1, 55255, Control_c, 13, 11, 119
1, 55290, Control_c, 13, 11, 115
1, 55325, Note_on_c, 9, 82, 52
1, 55325, Control_c, 13, 11, 111
1, 55338, Note_on_c, 9, 82, 0
1, 55360, Control_c, 13, 11, 107
1, 55395, Control_c, 13, 11, 103
1, 55425, Note_on_c, 2, 48, 0
1, 55425, Note_on_c, 5, 48, 0
1, 55425, Note_on_c, 2, 60, 0
1, 55425, Note_on_c, 5, 55, 0
1, 55425, Note_on_c, 5, 60, 0
1, 55425, Note_on_c, 2, 64, 0
1, 55425, Note_on_c, 2, 55, 0
1, 55425, Note_on_c, 5, 64, 0
1, 55425, Note_on_c, 7, 55, 0
1, 55425, Note_on_c, 6, 67, 0
1, 55425, Control_c, 13, 11, 99
1, 55432, Note_on_c, 5, 55, 68
1, 55433, Note_on_c, 5, 48, 70
1, 55434, Note_on_c, 7, 55, 70
1, 55438, Note_on_c, 2, 55, 72
1, 55440, Note_on_c, 5, 64, 70
1, 55440, Note_on_c, 9, 82, 45
1, 55443, Note_on_c, 2, 48, 72
1, 55443, Note_on_c, 2, 64, 70
1, 55443, Note_on_c, 5, 60, 71
1, 55443, Note_on_c, 9, 42, 62
1, 55447, Note_on_c, 6, 67, 73
1, 55448, Note_on_c, 2, 60, 71
1, 55453, Note_on_c, 9, 82, 0
1, 55456, Note_on_c, 9, 42, 0
1, 55460, Control_c, 13, 11, 95
1, 55495, Control_c, 13, 11, 91
1, 55530, Control_c, 13, 11, 87
1, 55535, Note_on_c, 1, 36, 0
1, 55545, Note_on_c, 2, 60, 0
1, 55545, Note_on_c, 5, 60, 0
1, 55545, Note_on_c, 2, 64, 0
1, 55545, Note_on_c, 2, 48, 0
1, 55545, Note_on_c, 5, 64, 0
1, 55545, Note_on_c, 2, 55, 0
1, 55545, Note_on_c, 5, 48, 0
1, 55545, Note_on_c, 5, 55, 0
1, 55559, Note_on_c, 1, 31, 95
1, 55559, Note_on_c, 9, 82, 31
1, 55560, Note_on_c, 5, 48, 69
1, 55560, Control_c, 13, 11, 83
1, 55562, Note_on_c, 5, 64, 73
1, 55563, Note_on_c, 2, 48, 72
1, 55565, Note_on_c, 2, 60, 69
1, 55565, Note_on_c, 2, 64, 72
1, 55565, Note_on_c, 5, 60, 73
1, 55566, Note_on_c, 2, 55, 69
1, 55568, Note_on_c, 5, 55, 69
1, 55572, Note_on_c, 9, 82, 0
1, 55595, Control_c, 13, 11, 79
1, 55630, Control_c, 13, 11, 75
1, 55655, Note_on_c, 1, 31, 0
1, 55665, Note_on_c, 5, 55, 0
1, 55665, Note_on_c, 2, 55, 0
1, 55665, Note_on_c, 5, 60, 0
1, 55665, Note_on_c, 2, 64, 0
1, 55665, Note_on_c, 2, 60, 0
1, 55665, Note_on_c, 2, 48, 0
1, 55665, Note_on_c, 5, 64, 0
1, 55665, Note_on_c, 5, 48, 0
1, 55665, Note_on_c, 6, 67, 0
1, 55665, Note_on_c, 7, 55, 0
1, 55665, Note_on_c, 0, 60, 0
1, 55665, Note_on_c, 7, 60, 0
1, 55665, Note_on_c, 0, 55, 0
1, 55665, Note_on_c, 0, 64, 0
1, 55665, Note_on_c, 6, 72, 0
1, 55665, Note_on_c, 13, 60, 0
1, 55665, Note_on_c, 6, 64, 0
1, 55665, Note_on_c, 6, 60, 0
1, 55665, Note_on_c, 0, 48, 0
1, 55665, Note_on_c, 6, 55, 0
1, 55665, Control_c, 13, 11, 71
1, 55673, Note_on_c, 2, 60, 82
1, 55673, Note_on_c, 5, 53, 83
1, 55674, Note_on_c, 7, 60, 85
1, 55675, Note_on_c, 13, 65, 62
1, 55676, Note_on_c, 2, 57, 85
1, 55676, Note_on_c, 5, 65, 81
1, 55677, Note_on_c, 1, 29, 105
1, 55677, Note_on_c, 2, 65, 85
1, 55677, Note_on_c, 6, 57, 68
1, 55677, Note_on_c, 9, 82, 64
1, 55678, Note_on_c, 5, 60, 81
1, 55678, Note_on_c, 9, 42, 99
1, 55678, Note_on_c, 13, 60, 59
1, 55679, Note_on_c, 0, 57, 87
1, 55680, Note_on_c, 0, 65, 85
1, 55680, Note_on_c, 9, 36, 90
1, 55681, Note_on_c, 13, 57, 59
1, 55682, Note_on_c, 0, 41, 87
1, 55682, Note_on_c, 0, 60, 86
1, 55682, Note_on_c, 2, 53, 81
1, 55682, Note_on_c, 5, 57, 83
1, 55682, Note_on_c, 6, 60, 67
1, 55684, Note_on_c, 6, 53, 68
1, 55686, Note_on_c, 6, 65, 71
1, 55687, Note_on_c, 13, 53, 61
1, 55690, Note_on_c, 9, 82, 0
1, 55691, Note_on_c, 9, 42, 0
1, 55693, Note_on_c, 9, 36, 0
1, 55705, Control_c, 13, 11, 73
1, 55755, Control_c, 13, 11, 77
1, 55792, Note_on_c, 9, 82, 48
1, 55805, Note_on_c, 9, 82, 0
1, 55805, Control_c, 13, 11, 81
1, 55855, Control_c, 13, 11, 85
1, 55905, Note_on_c, 2, 53, 0
1, 55905, Note_on_c, 5, 53, 0
1, 55905, Control_c, 13, 11, 89
1, 55913, Note_on_c, 9, 82, 34
1, 55915, Note_on_c, 7, 53, 68
1, 55922, Note_on_c, 6, 53, 61
1, 55923, Note_on_c, 2, 53, 68
1, 55925, Note_on_c, 9, 42, 64
1, 55926, Note_on_c, 9, 82, 0
1, 55926, Note_on_c, 5, 53, 67
1, 55938, Note_on_c, 9, 42, 0
1, 55960, Control_c, 13, 11, 93
1, 56010, Control_c, 13, 11, 97
1, 56038, Note_on_c, 9, 82, 47
1, 56042, Lyric_t, "May"
1, 56042, Note_on_c, 3, 77, 77
1, 56051, Note_on_c, 9, 82, 0
1, 56060, Control_c, 13, 11, 101
1, 56110, Note_on_c, 3, 77, 0
1, 56110, Control_c, 13, 11, 105
1, 56145, Note_on_c, 5, 53, 0
1, 56145, Note_on_c, 2, 53, 0
1, 56145, Note_on_c, 6, 53, 0
1, 56145, Note_on_c, 5, 57, 0
1, 56145, Note_on_c, 0, 60, 0
1, 56145, Note_on_c, 0, 65, 0
1, 56145, Note_on_c, 0, 57, 0
1, 56145, Note_on_c, 5, 60, 0
1, 56145, Note_on_c, 2, 65, 0
1, 56145, Note_on_c, 5, 65, 0
1, 56145, Note_on_c, 2, 57, 0
1, 56145, Note_on_c, 2, 60, 0
1, 56145, Pitch_bend_c, 3, 4971
1, 56153, Note_on_c, 3, 81, 90
1, 56153, Note_on_c, 6, 60, 67
1, 56154, Note_on_c, 2, 65, 83
1, 56155, Note_on_c, 5, 65, 83
1, 56158, Note_on_c, 2, 57, 80
1, 56158, Note_on_c, 2, 60, 80
1, 56159, Note_on_c, 0, 60, 87
1, 56159, Note_on_c, 7, 57, 82
1, 56160, Note_on_c, 0, 57, 85
1, 56160, Note_on_c, 9, 82, 65
1, 56160, Note_on_c, 9, 37, 110
1, 56161, Note_on_c, 5, 60, 81
1, 56162, Note_on_c, 0, 65, 84
1, 56162, Note_on_c, 2, 53, 80
1, 56162, Note_on_c, 5, 53, 80
1, 56163, Note_on_c, 5, 57, 83
1, 56165, Control_c, 13, 11, 109
1, 56166, Note_on_c, 9, 42, 102
1, 56173, Note_on_c, 9, 37, 0
1, 56173, Note_on_c, 9, 82, 0
1, 56179, Note_on_c, 9, 42, 0
1, 56180, Pitch_bend_c, 3, 5241
1, 56190, Pitch_bend_c, 3, 5777
1, 56200, Pitch_bend_c, 3, 6314
1, 56210, Pitch_bend_c, 3, 6851
1, 56215, Control_c, 13, 11, 113
1, 56220, Pitch_bend_c, 3, 7387
1, 56230, Pitch_bend_c, 3, 7924
1, 56235, Pitch_bend_c, 3, 8192
1, 56265, Note_on_c, 3, 81, 0
1, 56265, Control_c, 13, 11, 117
1, 56277, Note_on_c, 9, 82, 50
1, 56280, Lyric_t, "be "
1, 56280, Note_on_c, 3, 84, 71
1, 56290, Note_on_c, 9, 82, 0
1, 56315, Control_c, 13, 11, 121
1, 56350, Note_on_c, 3, 84, 0
1, 56365, Control_c, 13, 11, 125
1, 56375, Note_on_c, 1, 29, 0
1, 56385, Note_on_c, 5, 53, 0
1, 56385, Note_on_c, 2, 53, 0
1, 56385, Note_on_c, 7, 53, 0
1, 56385, Note_on_c, 6, 60, 0
1, 56394, Note_on_c, 9, 42, 64
1, 56395, Control_c, 13, 11, 127
1, 56398, Note_on_c, 7, 53, 73
1, 56401, Note_on_c, 9, 82, 33
1, 56403, Lyric_t, "all "
1, 56403, Note_on_c, 1, 31, 97
1, 56403, Note_on_c, 2, 53, 73
1, 56403, Note_on_c, 3, 84, 80
1, 56406, Note_on_c, 5, 53, 69
1, 56407, Note_on_c, 9, 42, 0
1, 56414, Note_on_c, 9, 82, 0
1, 56495, Note_on_c, 1, 31, 0
1, 56505, Note_on_c, 5, 53, 0
1, 56505, Note_on_c, 3, 84, 0
1, 56505, Note_on_c, 2, 53, 0
1, 56514, Note_on_c, 1, 32, 100
1, 56520, Note_on_c, 9, 36, 75
1, 56522, Lyric_t, "the "
1, 56522, Note_on_c, 3, 84, 86
1, 56522, Note_on_c, 5, 53, 75
1, 56524, Note_on_c, 2, 53, 75
1, 56526, Note_on_c, 9, 82, 50
1, 56533, Note_on_c, 9, 36, 0
1, 56539, Note_on_c, 9, 82, 0
1, 56590, Note_on_c, 3, 84, 0
1, 56615, Note_on_c, 1, 32, 0
1, 56625, Note_on_c, 2, 53, 0
1, 56625, Note_on_c, 5, 53, 0
1, 56625, Note_on_c, 7, 53, 0
1, 56625, Note_on_c, 5, 57, 0
1, 56625, Note_on_c, 0, 65, 0
1, 56625, Note_on_c, 5, 60, 0
1, 56625, Note_on_c, 0, 57, 0
1, 56625, Note_on_c, 7, 57, 0
1, 56625, Note_on_c, 0, 60, 0
1, 56625, Note_on_c, 2, 60, 0
1, 56625, Note_on_c, 2, 57, 0
1, 56625, Note_on_c, 5, 65, 0
1, 56625, Note_on_c, 2, 65, 0
1, 56625, Note_on_c, 6, 60, 0
1, 56625, Note_on_c, 6, 53, 0
1, 56625, Note_on_c, 13, 53, 0
1, 56625, Note_on_c, 6, 65, 0
1, 56625, Note_on_c, 0, 41, 0
1, 56625, Note_on_c, 13, 57, 0
1, 56625, Note_on_c, 13, 60, 0
1, 56625, Note_on_c, 6, 57, 0
1, 56625, Note_on_c, 13, 65, 0
1, 56625, Note_on_c, 7, 60, 0
1, 56625, Pitch_bend_c, 3, 4971
1, 56633, Note_on_c, 13, 64, 59
1, 56635, Note_on_c, 6, 64, 66
1, 56636, Note_on_c, 6, 52, 64
1, 56636, Note_on_c, 6, 61, 65
1, 56637, Note_on_c, 5, 52, 76
1, 56638, Note_on_c, 0, 57, 84
1, 56638, Lyric_t, "plans "
1, 56638, Note_on_c, 3, 85, 85
1, 56638, Note_on_c, 5, 61, 77
1, 56638, Note_on_c, 13, 61, 61
1, 56639, Note_on_c, 0, 64, 81
1, 56639, Note_on_c, 0, 45, 81
1, 56639, Note_on_c, 5, 64, 76
1, 56639, Note_on_c, 9, 82, 62
1, 56640, Note_on_c, 2, 61, 77
1, 56640, Note_on_c, 5, 55, 80
1, 56640, Note_on_c, 9, 36, 90
1, 56642, Note_on_c, 7, 55, 79
1, 56642, Note_on_c, 9, 42, 101
1, 56643, Note_on_c, 0, 61, 82
1, 56643, Note_on_c, 2, 55, 79
1, 56645, Note_on_c, 2, 64, 76
1, 56645, Note_on_c, 6, 55, 68
1, 56646, Note_on_c, 2, 52, 76
1, 56646, Note_on_c, 13, 45, 59
1, 56647, Note_on_c, 1, 33, 102
1, 56648, Note_on_c, 13, 55, 61
1, 56652, Note_on_c, 9, 82, 0
1, 56653, Note_on_c, 9, 36, 0
1, 56655, Note_on_c, 9, 42, 0
1, 56660, Pitch_bend_c, 3, 5241
1, 56670, Pitch_bend_c, 3, 5777
1, 56680, Pitch_bend_c, 3, 6314
1, 56690, Pitch_bend_c, 3, 6851
1, 56700, Pitch_bend_c, 3, 7387
1, 56710, Pitch_bend_c, 3, 7924
1, 56715, Pitch_bend_c, 3, 8192
1, 56756, Note_on_c, 9, 82, 46
1, 56769, Note_on_c, 9, 82, 0
1, 56865, Note_on_c, 2, 52, 0
1, 56865, Note_on_c, 3, 85, 0
1, 56865, Note_on_c, 5, 52, 0
1, 56877, Note_on_c, 2, 52, 69
1, 56879, Note_on_c, 6, 52, 60
1, 56879, Note_on_c, 9, 82, 33
1, 56883, Note_on_c, 5, 52, 69
1, 56883, Note_on_c, 9, 42, 64
1, 56888, Lyric_t, "we "
1, 56888, Note_on_c, 3, 81, 78
1, 56888, Note_on_c, 7, 52, 73
1, 56892, Note_on_c, 9, 82, 0
1, 56896, Note_on_c, 9, 42, 0
1, 56950, Note_on_c, 3, 81, 0
1, 56993, Lyric_t, "made "
1, 56993, Lyric_t, "\015"
1, 56993, Note_on_c, 3, 79, 77
1, 56998, Note_on_c, 9, 82, 50
1, 57011, Note_on_c, 9, 82, 0
1, 57105, Note_on_c, 5, 52, 0
1, 57105, Note_on_c, 2, 52, 0
1, 57105, Note_on_c, 2, 64, 0
1, 57105, Note_on_c, 2, 55, 0
1, 57105, Note_on_c, 0, 61, 0
1, 57105, Note_on_c, 5, 55, 0
1, 57105, Note_on_c, 2, 61, 0
1, 57105, Note_on_c, 5, 64, 0
1, 57105, Note_on_c, 0, 64, 0
1, 57105, Note_on_c, 5, 61, 0
1, 57105, Note_on_c, 0, 57, 0
1, 57105, Note_on_c, 6, 52, 0
1, 57112, Note_on_c, 5, 61, 84
1, 57113, Note_on_c, 2, 52, 81
1, 57114, Note_on_c, 9, 82, 65
1, 57115, Note_on_c, 5, 55, 85
1, 57116, Note_on_c, 2, 61, 81
1, 57116, Note_on_c, 5, 52, 85
1, 57116, Note_on_c, 9, 42, 101
1, 57117, Note_on_c, 0, 57, 89
1, 57118, Note_on_c, 0, 61, 89
1, 57118, Note_on_c, 9, 54, 74
1, 57120, Note_on_c, 0, 64, 89
1, 57120, Note_on_c, 9, 37, 110
1, 57121, Note_on_c, 2, 64, 81
1, 57123, Note_on_c, 7, 61, 81
1, 57124, Note_on_c, 5, 64, 85
1, 57127, Note_on_c, 9, 82, 0
1, 57127, Note_on_c, 2, 55, 82
1, 57128, Note_on_c, 6, 55, 70
1, 57129, Note_on_c, 9, 42, 0
1, 57131, Note_on_c, 9, 54, 0
1, 57133, Note_on_c, 9, 37, 0
1, 57225, Note_on_c, 3, 79, 0
1, 57237, Note_on_c, 9, 82, 55
1, 57250, Note_on_c, 9, 82, 0
1, 57335, Note_on_c, 1, 33, 0
1, 57345, Note_on_c, 2, 55, 0
1, 57345, Note_on_c, 5, 52, 0
1, 57345, Note_on_c, 2, 61, 0
1, 57345, Note_on_c, 5, 55, 0
1, 57345, Note_on_c, 2, 52, 0
1, 57345, Note_on_c, 5, 61, 0
1, 57345, Note_on_c, 7, 52, 0
1, 57345, Note_on_c, 6, 55, 0
1, 57353, Lyric_t, "Might "
1, 57353, Note_on_c, 3, 77, 79
1, 57355, Note_on_c, 5, 55, 68
1, 57357, Note_on_c, 7, 52, 68
1, 57358, Note_on_c, 2, 61, 71
1, 57358, Note_on_c, 6, 52, 61
1, 57359, Note_on_c, 1, 33, 96
1, 57359, Note_on_c, 9, 42, 64
1, 57360, Note_on_c, 5, 52, 69
1, 57362, Note_on_c, 2, 52, 68
1, 57363, Note_on_c, 9, 82, 44
1, 57365, Note_on_c, 5, 61, 71
1, 57368, Note_on_c, 2, 55, 72
1, 57372, Note_on_c, 9, 42, 0
1, 57376, Note_on_c, 9, 82, 0
1, 57440, Note_on_c, 3, 77, 0
1, 57484, Lyric_t, "not "
1, 57484, Note_on_c, 3, 79, 75
1, 57485, Note_on_c, 9, 82, 32
1, 57498, Note_on_c, 9, 82, 0
1, 57575, Note_on_c, 1, 33, 0
1, 57585, Note_on_c, 2, 55, 0
1, 57585, Note_on_c, 5, 61, 0
1, 57585, Note_on_c, 2, 52, 0
1, 57585, Note_on_c, 5, 52, 0
1, 57585, Note_on_c, 6, 52, 0
1, 57585, Note_on_c, 2, 61, 0
1, 57585, Note_on_c, 7, 52, 0
1, 57585, Note_on_c, 5, 55, 0
1, 57585, Note_on_c, 6, 55, 0
1, 57585, Note_on_c, 5, 64, 0
1, 57585, Note_on_c, 7, 61, 0
1, 57585, Note_on_c, 2, 64, 0
1, 57585, Note_on_c, 0, 64, 0
1, 57585, Note_on_c, 0, 61, 0
1, 57585, Note_on_c, 0, 57, 0
1, 57585, Note_on_c, 6, 52, 0
1, 57585, Note_on_c, 13, 55, 0
1, 57585, Note_on_c, 13, 45, 0
1, 57585, Note_on_c, 7, 55, 0
1, 57585, Note_on_c, 0, 45, 0
1, 57585, Note_on_c, 13, 61, 0
1, 57585, Note_on_c, 6, 61, 0
1, 57585, Note_on_c, 6, 64, 0
1, 57585, Note_on_c, 13, 64, 0
1, 57592, Note_on_c, 6, 57, 71
1, 57593, Note_on_c, 6, 62, 70
1, 57594, Note_on_c, 5, 65, 85
1, 57595, Note_on_c, 6, 50, 70
1, 57597, Note_on_c, 13, 65, 59
1, 57598, Note_on_c, 13, 50, 59
1, 57599, Note_on_c, 0, 65, 89
1, 57599, Note_on_c, 5, 57, 85
1, 57599, Note_on_c, 7, 62, 85
1, 57600, Note_on_c, 0, 57, 86
1, 57600, Note_on_c, 5, 62, 83
1, 57600, Note_on_c, 6, 65, 70
1, 57600, Note_on_c, 9, 36, 90
1, 57601, Note_on_c, 2, 57, 86
1, 57602, Note_on_c, 0, 62, 88
1, 57602, Note_on_c, 1, 38, 104
1, 57603, Note_on_c, 0, 50, 87
1, 57603, Note_on_c, 2, 50, 86
1, 57603, Note_on_c, 2, 62, 82
1, 57603, Note_on_c, 2, 65, 84
1, 57603, Note_on_c, 9, 42, 101
1, 57603, Note_on_c, 13, 62, 58
1, 57605, Note_on_c, 3, 79, 0
1, 57605, Note_on_c, 13, 57, 61
1, 57606, Note_on_c, 5, 50, 84
1, 57607, Note_on_c, 9, 82, 63
1, 57613, Note_on_c, 9, 36, 0
1, 57616, Note_on_c, 9, 42, 0
1, 57619, Lyric_t, "work "
1, 57619, Note_on_c, 3, 81, 91
1, 57620, Note_on_c, 9, 82, 0
1, 57723, Note_on_c, 9, 82, 49
1, 57735, Note_on_c, 3, 81, 0
1, 57736, Note_on_c, 9, 82, 0
1, 57825, Note_on_c, 5, 50, 0
1, 57825, Note_on_c, 2, 50, 0
1, 57825, Pitch_bend_c, 3, 4971
1, 57837, Note_on_c, 7, 50, 74
1, 57837, Note_on_c, 9, 42, 64
1, 57839, Lyric_t, "out "
1, 57839, Lyric_t, "\015"
1, 57839, Note_on_c, 3, 79, 79
1, 57840, Note_on_c, 2, 50, 74
1, 57844, Note_on_c, 5, 50, 72
1, 57845, Note_on_c, 9, 82, 31
1, 57850, Note_on_c, 9, 42, 0
1, 57858, Note_on_c, 9, 82, 0
1, 57860, Pitch_bend_c, 3, 5241
1, 57870, Pitch_bend_c, 3, 5777
1, 57880, Pitch_bend_c, 3, 6314
1, 57890, Pitch_bend_c, 3, 6851
1, 57900, Pitch_bend_c, 3, 7387
1, 57910, Pitch_bend_c, 3, 7924
1, 57915, Pitch_bend_c, 3, 8192
1, 57962, Note_on_c, 9, 82, 48
1, 57975, Note_on_c, 9, 82, 0
1, 58065, Note_on_c, 5, 50, 0
1, 58065, Note_on_c, 2, 50, 0
1, 58065, Note_on_c, 3, 79, 0
1, 58065, Note_on_c, 2, 65, 0
1, 58065, Note_on_c, 2, 62, 0
1, 58065, Note_on_c, 0, 62, 0
1, 58065, Note_on_c, 2, 57, 0
1, 58065, Note_on_c, 5, 62, 0
1, 58065, Note_on_c, 0, 57, 0
1, 58065, Note_on_c, 5, 57, 0
1, 58065, Note_on_c, 0, 65, 0
1, 58065, Note_on_c, 5, 65, 0
1, 58072, Note_on_c, 5, 62, 80
1, 58073, Note_on_c, 2, 62, 79
1, 58075, Note_on_c, 2, 65, 81
1, 58076, Note_on_c, 9, 82, 63
1, 58077, Note_on_c, 9, 42, 98
1, 58078, Note_on_c, 0, 57, 85
1, 58078, Note_on_c, 7, 57, 81
1, 58080, Note_on_c, 0, 62, 82
1, 58080, Note_on_c, 2, 50, 80
1, 58080, Note_on_c, 9, 37, 110
1, 58082, Note_on_c, 2, 57, 79
1, 58083, Note_on_c, 0, 65, 82
1, 58087, Note_on_c, 5, 57, 80
1, 58087, Note_on_c, 5, 50, 79
1, 58087, Note_on_c, 5, 65, 80
1, 58089, Note_on_c, 9, 82, 0
1, 58090, Note_on_c, 9, 42, 0
1, 58093, Note_on_c, 9, 37, 0
1, 58202, Note_on_c, 9, 82, 48
1, 58215, Note_on_c, 9, 82, 0
1, 58295, Note_on_c, 1, 38, 0
1, 58305, Note_on_c, 5, 50, 0
1, 58305, Note_on_c, 2, 50, 0
1, 58305, Note_on_c, 7, 50, 0
1, 58305, Note_on_c, 13, 57, 0
1, 58305, Note_on_c, 13, 62, 0
1, 58305, Note_on_c, 13, 50, 0
1, 58305, Note_on_c, 13, 65, 0
1, 58312, Note_on_c, 1, 45, 98
1, 58312, Note_on_c, 7, 50, 71
1, 58313, Note_on_c, 13, 52, 61
1, 58313, Note_on_c, 13, 64, 58
1, 58319, Note_on_c, 13, 67, 58
1, 58321, Note_on_c, 2, 50, 68
1, 58322, Note_on_c, 13, 57, 61
1, 58323, Note_on_c, 9, 82, 32
1, 58325, Note_on_c, 5, 50, 71
1, 58325, Note_on_c, 9, 42, 64
1, 58336, Note_on_c, 9, 82, 0
1, 58338, Note_on_c, 9, 42, 0
1, 58415, Note_on_c, 1, 45, 0
1, 58425, Note_on_c, 5, 50, 0
1, 58425, Note_on_c, 2, 50, 0
1, 58425, Note_on_c, 5, 57, 0
1, 58425, Note_on_c, 2, 57, 0
1, 58433, Note_on_c, 1, 45, 100
1, 58434, Note_on_c, 2, 57, 76
1, 58434, Note_on_c, 9, 82, 46
1, 58437, Note_on_c, 2, 50, 78
1, 58440, Note_on_c, 5, 50, 76
1, 58442, Note_on_c, 5, 57, 78
1, 58447, Note_on_c, 9, 82, 0
1, 58535, Note_on_c, 1, 45, 0
1, 58545, Note_on_c, 5, 57, 0
1, 58545, Note_on_c, 5, 50, 0
1, 58545, Note_on_c, 2, 50, 0
1, 58545, Note_on_c, 2, 57, 0
1, 58545, Note_on_c, 13, 57, 0
1, 58545, Note_on_c, 13, 67, 0
1, 58545, Note_on_c, 13, 64, 0
1, 58545, Note_on_c, 13, 52, 0
1, 58545, Note_on_c, 7, 50, 0
1, 58545, Note_on_c, 5, 65, 0
1, 58545, Note_on_c, 0, 65, 0
1, 58545, Note_on_c, 0, 62, 0
1, 58545, Note_on_c, 7, 57, 0
1, 58545, Note_on_c, 0, 57, 0
1, 58545, Note_on_c, 2, 65, 0
1, 58545, Note_on_c, 2, 62, 0
1, 58545, Note_on_c, 5, 62, 0
1, 58545, Note_on_c, 0, 50, 0
1, 58545, Note_on_c, 7, 62, 0
1, 58553, Note_on_c, 1, 50, 103
1, 58556, Note_on_c, 13, 69, 61
1, 58558, Note_on_c, 5, 65, 81
1, 58559, Note_on_c, 0, 65, 86
1, 58560, Note_on_c, 9, 36, 90
1, 58561, Note_on_c, 0, 62, 82
1, 58562, Note_on_c, 0, 57, 86
1, 58562, Note_on_c, 2, 50, 81
1, 58562, Note_on_c, 5, 50, 81
1, 58562, Note_on_c, 7, 57, 81
1, 58562, Note_on_c, 13, 65, 58
1, 58563, Note_on_c, 2, 62, 81
1, 58563, Note_on_c, 5, 57, 80
1, 58563, Note_on_c, 9, 42, 100
1, 58563, Note_on_c, 13, 53, 58
1, 58564, Note_on_c, 2, 57, 80
1, 58564, Note_on_c, 13, 57, 59
1, 58566, Note_on_c, 9, 82, 64
1, 58567, Note_on_c, 2, 65, 79
1, 58567, Note_on_c, 5, 62, 82
1, 58573, Note_on_c, 9, 36, 0
1, 58576, Note_on_c, 9, 42, 0
1, 58579, Note_on_c, 9, 82, 0
1, 58682, Note_on_c, 9, 82, 48
1, 58695, Note_on_c, 9, 82, 0
1, 58785, Note_on_c, 5, 62, 0
1, 58785, Note_on_c, 2, 65, 0
1, 58785, Note_on_c, 2, 57, 0
1, 58785, Note_on_c, 5, 57, 0
1, 58785, Note_on_c, 2, 62, 0
1, 58785, Note_on_c, 5, 50, 0
1, 58785, Note_on_c, 2, 50, 0
1, 58785, Note_on_c, 5, 65, 0
1, 58792, Note_on_c, 2, 50, 70
1, 58792, Note_on_c, 5, 62, 69
1, 58794, Note_on_c, 5, 57, 68
1, 58802, Note_on_c, 9, 42, 65
1, 58803, Note_on_c, 9, 82, 31
1, 58804, Note_on_c, 2, 65, 68
1, 58804, Note_on_c, 5, 50, 69
1, 58805, Note_on_c, 2, 57, 72
1, 58808, Note_on_c, 2, 62, 69
1, 58808, Note_on_c, 5, 65, 69
1, 58815, Note_on_c, 9, 42, 0
1, 58816, Note_on_c, 9, 82, 0
1, 58928, Note_on_c, 9, 82, 46
1, 58941, Note_on_c, 9, 82, 0
1, 59015, Note_on_c, 1, 50, 0
1, 59025, Note_on_c, 5, 65, 0
1, 59025, Note_on_c, 2, 62, 0
1, 59025, Note_on_c, 2, 57, 0
1, 59025, Note_on_c, 5, 50, 0
1, 59025, Note_on_c, 2, 65, 0
1, 59025, Note_on_c, 5, 57, 0
1, 59025, Note_on_c, 5, 62, 0
1, 59025, Note_on_c, 2, 50, 0
1, 59025, Note_on_c, 13, 57, 0
1, 59025, Note_on_c, 13, 53, 0
1, 59025, Note_on_c, 13, 65, 0
1, 59025, Note_on_c, 7, 57, 0
1, 59025, Note_on_c, 0, 57, 0
1, 59025, Note_on_c, 0, 62, 0
1, 59025, Note_on_c, 0, 65, 0
1, 59025, Note_on_c, 13, 69, 0
1, 59032, Note_on_c, 2, 57, 77
1, 59037, Note_on_c, 0, 62, 84
1, 59037, Note_on_c, 5, 57, 81
1, 59037, Note_on_c, 9, 82, 66
1, 59038, Note_on_c, 0, 57, 81
1, 59038, Note_on_c, 5, 62, 79
1, 59038, Note_on_c, 9, 54, 73
1, 59038, Note_on_c, 9, 42, 98
1, 59039, Note_on_c, 0, 65, 83
1, 59039, Note_on_c, 2, 50, 79
1, 59039, Note_on_c, 13, 57, 61
1, 59040, Note_on_c, 9, 37, 110
1, 59041, Note_on_c, 1, 45, 101
1, 59041, Note_on_c, 13, 65, 61
1, 59042, Note_on_c, 2, 65, 78
1, 59042, Note_on_c, 2, 62, 80
1, 59042, Note_on_c, 5, 50, 81
1, 59042, Note_on_c, 13, 50, 58
1, 59043, Note_on_c, 13, 72, 58
1, 59045, Note_on_c, 5, 65, 80
1, 59047, Note_on_c, 7, 57, 79
1, 59050, Note_on_c, 9, 82, 0
1, 59051, Note_on_c, 9, 42, 0
1, 59051, Note_on_c, 9, 54, 0
1, 59053, Note_on_c, 9, 37, 0
1, 59153, Lyric_t, "But "
1, 59153, Note_on_c, 3, 84, 73
1, 59157, Note_on_c, 9, 82, 55
1, 59170, Note_on_c, 9, 82, 0
1, 59255, Note_on_c, 1, 45, 0
1, 59265, Note_on_c, 3, 84, 0
1, 59265, Note_on_c, 5, 65, 0
1, 59265, Note_on_c, 5, 50, 0
1, 59265, Note_on_c, 2, 62, 0
1, 59265, Note_on_c, 2, 65, 0
1, 59265, Note_on_c, 2, 50, 0
1, 59265, Note_on_c, 5, 62, 0
1, 59265, Note_on_c, 5, 57, 0
1, 59265, Note_on_c, 2, 57, 0
1, 59273, Note_on_c, 2, 65, 72
1, 59275, Note_on_c, 5, 50, 71
1, 59275, Note_on_c, 9, 42, 64
1, 59276, Note_on_c, 5, 57, 72
1, 59278, Note_on_c, 5, 65, 69
1, 59282, Note_on_c, 9, 82, 44
1, 59283, Lyric_t, "I "
1, 59283, Note_on_c, 2, 57, 69
1, 59283, Note_on_c, 3, 84, 79
1, 59285, Note_on_c, 1, 45, 94
1, 59285, Note_on_c, 2, 50, 72
1, 59286, Note_on_c, 2, 62, 71
1, 59287, Note_on_c, 5, 62, 69
1, 59288, Note_on_c, 9, 42, 0
1, 59288, Note_on_c, 7, 50, 69
1, 59295, Note_on_c, 9, 82, 0
1, 59350, Note_on_c, 3, 84, 0
1, 59385, Note_on_c, 5, 62, 0
1, 59385, Note_on_c, 2, 62, 0
1, 59385, Note_on_c, 2, 50, 0
1, 59385, Note_on_c, 2, 57, 0
1, 59385, Note_on_c, 5, 65, 0
1, 59385, Note_on_c, 5, 57, 0
1, 59385, Note_on_c, 5, 50, 0
1, 59385, Note_on_c, 2, 65, 0
1, 59385, Pitch_bend_c, 3, 4971
1, 59393, Note_on_c, 9, 82, 32
1, 59397, Note_on_c, 5, 50, 70
1, 59398, Note_on_c, 2, 65, 72
1, 59398, Note_on_c, 5, 65, 70
1, 59402, Note_on_c, 2, 50, 70
1, 59403, Lyric_t, "have "
1, 59403, Note_on_c, 2, 57, 72
1, 59403, Note_on_c, 3, 86, 82
1, 59403, Note_on_c, 5, 62, 71
1, 59405, Note_on_c, 5, 57, 71
1, 59406, Note_on_c, 9, 82, 0
1, 59406, Note_on_c, 2, 62, 70
1, 59420, Pitch_bend_c, 3, 5241
1, 59430, Pitch_bend_c, 3, 5777
1, 59440, Pitch_bend_c, 3, 6314
1, 59450, Pitch_bend_c, 3, 6851
1, 59460, Pitch_bend_c, 3, 7387
1, 59470, Pitch_bend_c, 3, 7924
1, 59475, Pitch_bend_c, 3, 8192
1, 59495, Note_on_c, 1, 45, 0
1, 59505, Note_on_c, 2, 62, 0
1, 59505, Note_on_c, 5, 57, 0
1, 59505, Note_on_c, 5, 62, 0
1, 59505, Note_on_c, 2, 57, 0
1, 59505, Note_on_c, 2, 50, 0
1, 59505, Note_on_c, 5, 65, 0
1, 59505, Note_on_c, 2, 65, 0
1, 59505, Note_on_c, 5, 50, 0
1, 59505, Note_on_c, 7, 50, 0
1, 59505, Note_on_c, 7, 57, 0
1, 59505, Note_on_c, 13, 72, 0
1, 59505, Note_on_c, 13, 50, 0
1, 59505, Note_on_c, 13, 65, 0
1, 59505, Note_on_c, 13, 57, 0
1, 59505, Note_on_c, 0, 65, 0
1, 59505, Note_on_c, 0, 57, 0
1, 59505, Note_on_c, 0, 62, 0
1, 59505, Note_on_c, 6, 65, 0
1, 59505, Note_on_c, 6, 50, 0
1, 59505, Note_on_c, 6, 62, 0
1, 59505, Note_on_c, 6, 57, 0
1, 59514, Note_on_c, 5, 65, 82
1, 59514, Note_on_c, 7, 65, 82
1, 59514, Note_on_c, 9, 82, 63
1, 59516, Note_on_c, 6, 58, 70
1, 59517, Note_on_c, 9, 42, 101
1, 59517, Note_on_c, 13, 65, 61
1, 59518, Note_on_c, 1, 43, 105
1, 59518, Note_on_c, 2, 55, 82
1, 59518, Note_on_c, 6, 55, 67
1, 59520, Note_on_c, 0, 43, 89
1, 59520, Note_on_c, 0, 62, 88
1, 59520, Note_on_c, 2, 62, 82
1, 59520, Note_on_c, 9, 36, 90
1, 59521, Note_on_c, 0, 58, 88
1, 59521, Note_on_c, 5, 62, 85
1, 59522, Note_on_c, 13, 55, 59
1, 59523, Note_on_c, 0, 65, 86
1, 59523, Note_on_c, 7, 55, 84
1, 59523, Note_on_c, 7, 58, 82
1, 59524, Note_on_c, 13, 62, 61
1, 59525, Note_on_c, 2, 58, 84
1, 59525, Note_on_c, 5, 55, 83
1, 59525, Note_on_c, 6, 62, 69
1, 59526, Note_on_c, 7, 62, 83
1, 59527, Note_on_c, 9, 82, 0
1, 59527, Note_on_c, 13, 58, 60
1, 59528, Note_on_c, 2, 65, 81
1, 59528, Note_on_c, 5, 58, 81
1, 59528, Note_on_c, 6, 50, 70
1, 59528, Note_on_c, 13, 74, 58
1, 59530, Note_on_c, 9, 42, 0
1, 59533, Note_on_c, 9, 36, 0
1, 59625, Note_on_c, 3, 86, 0
1, 59638, Lyric_t, "no "
1, 59638, Note_on_c, 3, 84, 72
1, 59644, Note_on_c, 9, 82, 50
1, 59657, Note_on_c, 9, 82, 0
1, 59710, Note_on_c, 3, 84, 0
1, 59745, Note_on_c, 7, 55, 0
1, 59757, Note_on_c, 2, 50, 68
1, 59760, Note_on_c, 9, 82, 34
1, 59761, Note_on_c, 7, 55, 69
1, 59762, Note_on_c, 9, 42, 62
1, 59763, Note_on_c, 5, 50, 69
1, 59767, Lyric_t, "doubt "
1, 59767, Lyric_t, "\015"
1, 59767, Note_on_c, 3, 84, 79
1, 59773, Note_on_c, 9, 82, 0
1, 59775, Note_on_c, 9, 42, 0
1, 59865, Note_on_c, 3, 84, 0
1, 59875, Note_on_c, 9, 82, 48
1, 59887, Note_on_c, 3, 81, 75
1, 59888, Note_on_c, 9, 82, 0
1, 59975, Note_on_c, 1, 43, 0
1, 59985, Note_on_c, 5, 58, 0
1, 59985, Note_on_c, 2, 65, 0
1, 59985, Note_on_c, 5, 55, 0
1, 59985, Note_on_c, 2, 58, 0
1, 59985, Note_on_c, 7, 58, 0
1, 59985, Note_on_c, 0, 65, 0
1, 59985, Note_on_c, 5, 62, 0
1, 59985, Note_on_c, 0, 58, 0
1, 59985, Note_on_c, 2, 62, 0
1, 59985, Note_on_c, 0, 62, 0
1, 59985, Note_on_c, 2, 55, 0
1, 59985, Note_on_c, 5, 65, 0
1, 59993, Note_on_c, 5, 58, 80
1, 59996, Note_on_c, 2, 58, 79
1, 59996, Note_on_c, 2, 62, 82
1, 59996, Note_on_c, 5, 65, 79
1, 59997, Note_on_c, 0, 62, 87
1, 59997, Note_on_c, 5, 62, 81
1, 59997, Note_on_c, 9, 82, 64
1, 59998, Note_on_c, 0, 58, 87
1, 59998, Note_on_c, 0, 65, 85
1, 59998, Note_on_c, 2, 55, 82
1, 60000, Note_on_c, 9, 37, 110
1, 60001, Note_on_c, 7, 58, 81
1, 60003, Note_on_c, 2, 65, 79
1, 60003, Note_on_c, 9, 42, 98
1, 60004, Note_on_c, 1, 43, 102
1, 60008, Note_on_c, 5, 55, 81
1, 60010, Note_on_c, 9, 82, 0
1, 60013, Note_on_c, 9, 37, 0
1, 60016, Note_on_c, 9, 42, 0
1, 60025, Note_on_c, 3, 81, 0
1, 60112, Note_on_c, 9, 82, 48
1, 60125, Note_on_c, 9, 82, 0
1, 60215, Note_on_c, 1, 43, 0
1, 60225, Note_on_c, 5, 50, 0
1, 60225, Note_on_c, 2, 50, 0
1, 60225, Note_on_c, 7, 62, 0
1, 60232, Note_on_c, 9, 82, 34
1, 60233, Note_on_c, 9, 42, 65
1, 60234, Note_on_c, 7, 62, 69
1, 60235, Note_on_c, 5, 50, 70
1, 60245, Note_on_c, 9, 82, 0
1, 60245, Note_on_c, 2, 50, 70
1, 60246, Note_on_c, 9, 42, 0
1, 60246, Note_on_c, 1, 38, 95
1, 60360, Note_on_c, 9, 36, 75
1, 60363, Note_on_c, 9, 82, 49
1, 60373, Note_on_c, 9, 36, 0
1, 60376, Note_on_c, 9, 82, 0
1, 60400, Lyric_t, "E"
1, 60400, Note_on_c, 3, 84, 86
1, 60455, Note_on_c, 1, 38, 0
1, 60465, Note_on_c, 2, 50, 0
1, 60465, Note_on_c, 5, 50, 0
1, 60465, Note_on_c, 7, 62, 0
1, 60465, Note_on_c, 5, 55, 0
1, 60465, Note_on_c, 2, 65, 0
1, 60465, Note_on_c, 7, 58, 0
1, 60465, Note_on_c, 2, 55, 0
1, 60465, Note_on_c, 0, 65, 0
1, 60465, Note_on_c, 0, 58, 0
1, 60465, Note_on_c, 5, 62, 0
1, 60465, Note_on_c, 0, 62, 0
1, 60465, Note_on_c, 5, 65, 0
1, 60465, Note_on_c, 2, 62, 0
1, 60465, Note_on_c, 2, 58, 0
1, 60465, Note_on_c, 5, 58, 0
1, 60465, Note_on_c, 7, 55, 0
1, 60465, Note_on_c, 13, 74, 0
1, 60465, Note_on_c, 6, 50, 0
1, 60465, Note_on_c, 13, 58, 0
1, 60465, Note_on_c, 6, 62, 0
1, 60465, Note_on_c, 13, 62, 0
1, 60465, Note_on_c, 13, 55, 0
1, 60465, Note_on_c, 0, 43, 0
1, 60465, Note_on_c, 6, 55, 0
1, 60465, Note_on_c, 13, 65, 0
1, 60465, Note_on_c, 6, 58, 0
1, 60465, Note_on_c, 7, 65, 0
1, 60472, Note_on_c, 9, 42, 100
1, 60473, Note_on_c, 1, 33, 100
1, 60473, Note_on_c, 5, 61, 80
1, 60475, Note_on_c, 9, 82, 64
1, 60476, Note_on_c, 2, 61, 79
1, 60476, Note_on_c, 13, 67, 58
1, 60476, Note_on_c, 13, 76, 60
1, 60477, Note_on_c, 2, 55, 76
1, 60477, Note_on_c, 5, 52, 79
1, 60477, Note_on_c, 13, 57, 60
1, 60478, Note_on_c, 2, 64, 79
1, 60478, Note_on_c, 5, 64, 79
1, 60478, Note_on_c, 13, 64, 59
1, 60480, Note_on_c, 9, 36, 90
1, 60481, Note_on_c, 0, 45, 83
1, 60481, Note_on_c, 0, 61, 84
1, 60482, Note_on_c, 0, 55, 83
1, 60482, Note_on_c, 5, 55, 79
1, 60482, Note_on_c, 6, 55, 64
1, 60482, Note_on_c, 6, 61, 66
1, 60483, Note_on_c, 0, 64, 84
1, 60483, Note_on_c, 2, 52, 76
1, 60484, Note_on_c, 7, 61, 78
1, 60484, Note_on_c, 7, 57, 78
1, 60485, Note_on_c, 9, 42, 0
1, 60486, Note_on_c, 6, 65, 77
1, 60487, Note_on_c, 13, 61, 59
1, 60488, Note_on_c, 9, 82, 0
1, 60493, Note_on_c, 9, 36, 0
1, 60495, Note_on_c, 3, 84, 0
1, 60513, Lyric_t, "ven "
1, 60513, Note_on_c, 3, 82, 88
1, 60600, Note_on_c, 3, 82, 0
1, 60602, Lyric_t, "though "
1, 60602, Note_on_c, 3, 81, 73
1, 60602, Note_on_c, 9, 82, 47
1, 60615, Note_on_c, 9, 82, 0
1, 60705, Note_on_c, 5, 55, 0
1, 60705, Note_on_c, 2, 55, 0
1, 60712, Note_on_c, 5, 55, 73
1, 60713, Note_on_c, 9, 82, 34
1, 60719, Note_on_c, 7, 55, 70
1, 60722, Note_on_c, 9, 42, 66
1, 60723, Note_on_c, 2, 55, 72
1, 60726, Note_on_c, 9, 82, 0
1, 60735, Note_on_c, 9, 42, 0
1, 60825, Note_on_c, 3, 81, 0
1, 60843, Lyric_t, "it's "
1, 60843, Note_on_c, 3, 81, 79
1, 60848, Note_on_c, 9, 82, 47
1, 60861, Note_on_c, 9, 82, 0
1, 60910, Note_on_c, 3, 81, 0
1, 60945, Note_on_c, 2, 55, 0
1, 60945, Note_on_c, 5, 55, 0
1, 60945, Note_on_c, 6, 65, 0
1, 60945, Note_on_c, 7, 57, 0
1, 60945, Note_on_c, 2, 52, 0
1, 60945, Note_on_c, 0, 64, 0
1, 60945, Note_on_c, 0, 55, 0
1, 60945, Note_on_c, 0, 61, 0
1, 60945, Note_on_c, 5, 64, 0
1, 60945, Note_on_c, 2, 64, 0
1, 60945, Note_on_c, 5, 52, 0
1, 60945, Note_on_c, 2, 61, 0
1, 60945, Note_on_c, 5, 61, 0
1, 60953, Note_on_c, 9, 54, 74
1, 60955, Note_on_c, 9, 82, 66
1, 60957, Note_on_c, 0, 61, 89
1, 60957, Lyric_t, "hard "
1, 60957, Note_on_c, 2, 64, 84
1, 60957, Note_on_c, 3, 79, 91
1, 60957, Note_on_c, 6, 64, 80
1, 60958, Note_on_c, 2, 55, 81
1, 60958, Note_on_c, 5, 52, 85
1, 60960, Note_on_c, 9, 37, 110
1, 60961, Note_on_c, 0, 64, 89
1, 60963, Note_on_c, 0, 55, 85
1, 60963, Note_on_c, 5, 64, 81
1, 60965, Note_on_c, 2, 61, 83
1, 60965, Note_on_c, 5, 55, 81
1, 60965, Note_on_c, 7, 57, 81
1, 60966, Note_on_c, 9, 54, 0
1, 60967, Note_on_c, 9, 42, 98
1, 60968, Note_on_c, 9, 82, 0
1, 60968, Note_on_c, 2, 52, 81
1, 60968, Note_on_c, 5, 61, 82
1, 60973, Note_on_c, 9, 37, 0
1, 60980, Note_on_c, 9, 42, 0
1, 61077, Note_on_c, 9, 82, 52
1, 61090, Note_on_c, 9, 82, 0
1, 61175, Note_on_c, 1, 33, 0
1, 61185, Note_on_c, 5, 61, 0
1, 61185, Note_on_c, 2, 52, 0
1, 61185, Note_on_c, 5, 55, 0
1, 61185, Note_on_c, 2, 61, 0
1, 61185, Note_on_c, 5, 64, 0
1, 61185, Note_on_c, 5, 52, 0
1, 61185, Note_on_c, 2, 55, 0
1, 61185, Note_on_c, 2, 64, 0
1, 61194, Note_on_c, 2, 64, 68
1, 61197, Note_on_c, 2, 52, 69
1, 61198, Note_on_c, 1, 33, 96
1, 61199, Note_on_c, 5, 52, 70
1, 61199, Note_on_c, 5, 64, 69
1, 61200, Note_on_c, 9, 82, 45
1, 61201, Note_on_c, 5, 61, 72
1, 61202, Note_on_c, 5, 55, 68
1, 61202, Note_on_c, 9, 42, 66
1, 61203, Note_on_c, 2, 55, 71
1, 61208, Note_on_c, 2, 61, 68
1, 61213, Note_on_c, 9, 82, 0
1, 61215, Note_on_c, 9, 42, 0
1, 61305, Note_on_c, 2, 61, 0
1, 61305, Note_on_c, 2, 55, 0
1, 61305, Note_on_c, 5, 55, 0
1, 61305, Note_on_c, 5, 61, 0
1, 61305, Note_on_c, 5, 64, 0
1, 61305, Note_on_c, 5, 52, 0
1, 61305, Note_on_c, 2, 52, 0
1, 61305, Note_on_c, 2, 64, 0
1, 61305, Note_on_c, 3, 79, 0
1, 61315, Note_on_c, 2, 52, 67
1, 61317, Note_on_c, 2, 55, 68
1, 61321, Note_on_c, 2, 64, 68
1, 61321, Note_on_c, 5, 64, 68
1, 61321, Note_on_c, 5, 52, 67
1, 61323, Note_on_c, 5, 61, 67
1, 61323, Note_on_c, 5, 55, 69
1, 61323, Note_on_c, 9, 82, 30
1, 61328, Note_on_c, 2, 61, 67
1, 61336, Note_on_c, 9, 82, 0
1, 61415, Note_on_c, 1, 33, 0
1, 61425, Note_on_c, 2, 61, 0
1, 61425, Note_on_c, 5, 55, 0
1, 61425, Note_on_c, 5, 61, 0
1, 61425, Note_on_c, 5, 52, 0
1, 61425, Note_on_c, 5, 64, 0
1, 61425, Note_on_c, 2, 64, 0
1, 61425, Note_on_c, 2, 55, 0
1, 61425, Note_on_c, 2, 52, 0
1, 61425, Note_on_c, 7, 57, 0
1, 61425, Note_on_c, 0, 55, 0
1, 61425, Note_on_c, 0, 64, 0
1, 61425, Note_on_c, 6, 64, 0
1, 61425, Note_on_c, 0, 61, 0
1, 61425, Note_on_c, 7, 55, 0
1, 61425, Note_on_c, 13, 61, 0
1, 61425, Note_on_c, 7, 61, 0
1, 61425, Note_on_c, 6, 61, 0
1, 61425, Note_on_c, 6, 55, 0
1, 61425, Note_on_c, 0, 45, 0
1, 61425, Note_on_c, 13, 64, 0
1, 61425, Note_on_c, 13, 57, 0
1, 61425, Note_on_c, 13, 76, 0
1, 61425, Note_on_c, 13, 67, 0
1, 61433, Note_on_c, 5, 65, 83
1, 61435, Note_on_c, 6, 65, 70
1, 61435, Note_on_c, 9, 42, 98
1, 61437, Note_on_c, 2, 57, 84
1, 61437, Note_on_c, 6, 57, 72
1, 61437, Note_on_c, 6, 50, 72
1, 61437, Note_on_c, 13, 77, 58
1, 61438, Note_on_c, 0, 57, 88
1, 61438, Lyric_t, "to "
1, 61438, Note_on_c, 3, 77, 91
1, 61440, Note_on_c, 0, 50, 89
1, 61440, Note_on_c, 1, 38, 106
1, 61440, Note_on_c, 7, 65, 86
1, 61440, Note_on_c, 9, 36, 90
1, 61440, Note_on_c, 13, 62, 60
1, 61441, Note_on_c, 5, 57, 82
1, 61442, Note_on_c, 0, 65, 87
1, 61442, Note_on_c, 6, 62, 69
1, 61442, Note_on_c, 13, 57, 61
1, 61443, Note_on_c, 0, 62, 89
1, 61443, Note_on_c, 2, 65, 85
1, 61443, Note_on_c, 9, 82, 62
1, 61444, Note_on_c, 2, 62, 86
1, 61445, Note_on_c, 2, 50, 85
1, 61445, Note_on_c, 13, 65, 62
1, 61446, Note_on_c, 5, 62, 86
1, 61447, Note_on_c, 5, 50, 86
1, 61448, Note_on_c, 9, 42, 0
1, 61448, Note_on_c, 13, 50, 61
1, 61453, Note_on_c, 9, 36, 0
1, 61456, Note_on_c, 9, 82, 0
1, 61510, Note_on_c, 3, 77, 0
1, 61545, Pitch_bend_c, 3, 4971
1, 61558, Note_on_c, 9, 82, 47
1, 61563, Lyric_t, "see "
1, 61563, Lyric_t, "\015"
1, 61563, Note_on_c, 3, 81, 76
1, 61571, Note_on_c, 9, 82, 0
1, 61580, Pitch_bend_c, 3, 5241
1, 61590, Pitch_bend_c, 3, 5777
1, 61600, Pitch_bend_c, 3, 6314
1, 61610, Pitch_bend_c, 3, 6851
1, 61620, Pitch_bend_c, 3, 7387
1, 61630, Pitch_bend_c, 3, 7924
1, 61635, Pitch_bend_c, 3, 8192
1, 61665, Note_on_c, 5, 57, 0
1, 61665, Note_on_c, 7, 65, 0
1, 61665, Note_on_c, 6, 57, 0
1, 61665, Note_on_c, 2, 57, 0
1, 61677, Note_on_c, 2, 57, 70
1, 61677, Note_on_c, 7, 64, 73
1, 61678, Note_on_c, 6, 57, 63
1, 61678, Note_on_c, 9, 82, 30
1, 61678, Note_on_c, 9, 42, 66
1, 61681, Note_on_c, 5, 57, 70
1, 61691, Note_on_c, 9, 42, 0
1, 61691, Note_on_c, 9, 82, 0
1, 61802, Note_on_c, 9, 82, 48
1, 61815, Note_on_c, 9, 82, 0
1, 61895, Note_on_c, 1, 38, 0
1, 61905, Note_on_c, 5, 57, 0
1, 61905, Note_on_c, 6, 57, 0
1, 61905, Note_on_c, 2, 57, 0
1, 61905, Note_on_c, 5, 50, 0
1, 61905, Note_on_c, 5, 62, 0
1, 61905, Note_on_c, 2, 50, 0
1, 61905, Note_on_c, 2, 62, 0
1, 61905, Note_on_c, 2, 65, 0
1, 61905, Note_on_c, 0, 62, 0
1, 61905, Note_on_c, 6, 62, 0
1, 61905, Note_on_c, 0, 65, 0
1, 61905, Note_on_c, 0, 57, 0
1, 61905, Note_on_c, 13, 77, 0
1, 61905, Note_on_c, 6, 50, 0
1, 61905, Note_on_c, 6, 65, 0
1, 61905, Note_on_c, 5, 65, 0
1, 61912, Note_on_c, 2, 65, 79
1, 61912, Note_on_c, 5, 50, 82
1, 61913, Note_on_c, 5, 62, 81
1, 61916, Note_on_c, 9, 82, 62
1, 61917, Note_on_c, 5, 65, 79
1, 61918, Note_on_c, 2, 57, 79
1, 61918, Note_on_c, 2, 50, 82
1, 61919, Note_on_c, 0, 65, 86
1, 61919, Note_on_c, 6, 50, 67
1, 61920, Note_on_c, 9, 37, 110
1, 61920, Note_on_c, 13, 81, 62
1, 61921, Note_on_c, 6, 57, 67
1, 61921, Note_on_c, 9, 42, 98
1, 61922, Note_on_c, 0, 62, 84
1, 61922, Note_on_c, 0, 57, 86
1, 61923, Note_on_c, 2, 62, 78
1, 61923, Note_on_c, 7, 62, 81
1, 61925, Note_on_c, 6, 62, 69
1, 61928, Note_on_c, 5, 57, 80
1, 61928, Note_on_c, 6, 65, 68
1, 61929, Note_on_c, 9, 82, 0
1, 61933, Note_on_c, 9, 37, 0
1, 61934, Note_on_c, 9, 42, 0
1, 61985, Note_on_c, 3, 81, 0
1, 61998, Note_on_c, 3, 79, 73
1, 62034, Note_on_c, 9, 82, 47
1, 62036, Note_on_c, 1, 38, 94
1, 62047, Note_on_c, 9, 82, 0
1, 62070, Note_on_c, 1, 38, 0
1, 62070, Note_on_c, 3, 79, 0
1, 62072, Note_on_c, 3, 77, 70
1, 62145, Note_on_c, 5, 57, 0
1, 62145, Note_on_c, 6, 62, 0
1, 62145, Note_on_c, 7, 62, 0
1, 62145, Note_on_c, 2, 62, 0
1, 62145, Note_on_c, 2, 50, 0
1, 62145, Note_on_c, 2, 57, 0
1, 62145, Note_on_c, 5, 65, 0
1, 62145, Note_on_c, 5, 62, 0
1, 62145, Note_on_c, 5, 50, 0
1, 62145, Note_on_c, 2, 65, 0
1, 62150, Note_on_c, 3, 77, 0
1, 62154, Note_on_c, 1, 33, 98
1, 62155, Note_on_c, 7, 60, 70
1, 62157, Note_on_c, 5, 50, 72
1, 62157, Note_on_c, 5, 60, 71
1, 62157, Note_on_c, 6, 60, 61
1, 62159, Note_on_c, 5, 57, 69
1, 62159, Note_on_c, 5, 65, 68
1, 62160, Note_on_c, 2, 50, 68
1, 62162, Note_on_c, 2, 60, 72
1, 62162, Note_on_c, 9, 82, 32
1, 62162, Note_on_c, 9, 42, 65
1, 62165, Note_on_c, 2, 57, 70
1, 62165, Note_on_c, 2, 65, 71
1, 62175, Note_on_c, 9, 42, 0
1, 62175, Note_on_c, 9, 82, 0
1, 62255, Note_on_c, 1, 33, 0
1, 62265, Note_on_c, 2, 65, 0
1, 62265, Note_on_c, 2, 57, 0
1, 62265, Note_on_c, 2, 60, 0
1, 62265, Note_on_c, 2, 50, 0
1, 62265, Note_on_c, 5, 65, 0
1, 62265, Note_on_c, 5, 57, 0
1, 62265, Note_on_c, 5, 60, 0
1, 62265, Note_on_c, 5, 50, 0
1, 62273, Note_on_c, 5, 60, 78
1, 62278, Note_on_c, 2, 60, 78
1, 62278, Note_on_c, 2, 57, 79
1, 62278, Note_on_c, 5, 65, 78
1, 62279, Note_on_c, 2, 65, 78
1, 62280, Note_on_c, 5, 50, 76
1, 62280, Note_on_c, 9, 36, 75
1, 62281, Note_on_c, 2, 50, 80
1, 62282, Note_on_c, 5, 57, 80
1, 62282, Note_on_c, 9, 82, 48
1, 62284, Note_on_c, 1, 33, 98
1, 62293, Note_on_c, 9, 36, 0
1, 62295, Note_on_c, 9, 82, 0
1, 62375, Note_on_c, 1, 33, 0
1, 62385, Note_on_c, 5, 57, 0
1, 62385, Note_on_c, 2, 50, 0
1, 62385, Note_on_c, 5, 50, 0
1, 62385, Note_on_c, 2, 65, 0
1, 62385, Note_on_c, 5, 65, 0
1, 62385, Note_on_c, 2, 57, 0
1, 62385, Note_on_c, 2, 60, 0
1, 62385, Note_on_c, 5, 60, 0
1, 62385, Note_on_c, 6, 60, 0
1, 62385, Note_on_c, 7, 60, 0
1, 62385, Note_on_c, 6, 65, 0
1, 62385, Note_on_c, 0, 57, 0
1, 62385, Note_on_c, 0, 62, 0
1, 62385, Note_on_c, 6, 57, 0
1, 62385, Note_on_c, 13, 81, 0
1, 62385, Note_on_c, 6, 50, 0
1, 62385, Note_on_c, 0, 65, 0
1, 62385, Note_on_c, 7, 64, 0
1, 62385, Note_on_c, 13, 50, 0
1, 62385, Note_on_c, 13, 65, 0
1, 62385, Note_on_c, 13, 57, 0
1, 62385, Note_on_c, 13, 62, 0
1, 62385, Note_on_c, 0, 50, 0
1, 62393, Note_on_c, 2, 59, 78
1, 62393, Note_on_c, 2, 65, 79
1, 62394, Note_on_c, 7, 59, 79
1, 62396, Note_on_c, 13, 65, 59
1, 62397, Note_on_c, 0, 62, 86
1, 62397, Note_on_c, 0, 55, 82
1, 62397, Note_on_c, 0, 59, 82
1, 62397, Note_on_c, 9, 42, 99
1, 62398, Note_on_c, 6, 65, 66
1, 62398, Note_on_c, 9, 82, 65
1, 62398, Note_on_c, 13, 59, 59
1, 62399, Note_on_c, 0, 65, 86
1, 62400, Note_on_c, 9, 36, 90
1, 62400, Note_on_c, 9, 57, 5
1, 62401, Note_on_c, 5, 55, 82
1, 62402, Note_on_c, 5, 62, 78
1, 62402, Note_on_c, 5, 65, 79
1, 62402, Note_on_c, 13, 55, 58
1, 62403, Note_on_c, 2, 62, 81
1, 62403, Note_on_c, 5, 59, 81
1, 62403, Note_on_c, 13, 62, 58
1, 62405, Note_on_c, 2, 55, 80
1, 62406, Note_on_c, 1, 31, 100
1, 62407, Note_on_c, 6, 62, 67
1, 62407, Note_on_c, 13, 81, 62
1, 62408, Note_on_c, 6, 59, 65
1, 62410, Note_on_c, 9, 42, 0
1, 62411, Note_on_c, 9, 82, 0
1, 62413, Note_on_c, 9, 57, 0
1, 62413, Note_on_c, 9, 36, 0
1, 62440, Note_on_c, 9, 57, 6
1, 62453, Note_on_c, 9, 57, 0
1, 62480, Note_on_c, 9, 57, 7
1, 62493, Note_on_c, 9, 57, 0
1, 62518, Note_on_c, 9, 82, 48
1, 62520, Note_on_c, 9, 57, 8
1, 62531, Note_on_c, 9, 82, 0
1, 62533, Note_on_c, 9, 57, 0
1, 62560, Note_on_c, 9, 57, 10
1, 62573, Note_on_c, 9, 57, 0
1, 62600, Note_on_c, 9, 57, 11
1, 62613, Note_on_c, 9, 57, 0
1, 62625, Note_on_c, 2, 55, 0
1, 62625, Note_on_c, 5, 55, 0
1, 62637, Note_on_c, 2, 55, 71
1, 62640, Note_on_c, 9, 57, 12
1, 62642, Note_on_c, 7, 55, 72
1, 62642, Note_on_c, 9, 82, 34
1, 62646, Note_on_c, 6, 55, 62
1, 62648, Note_on_c, 5, 55, 69
1, 62648, Note_on_c, 9, 42, 65
1, 62653, Note_on_c, 9, 57, 0
1, 62655, Note_on_c, 9, 82, 0
1, 62661, Note_on_c, 9, 42, 0
1, 62680, Note_on_c, 9, 57, 13
1, 62693, Note_on_c, 9, 57, 0
1, 62720, Note_on_c, 9, 57, 15
1, 62733, Note_on_c, 9, 57, 0
1, 62760, Note_on_c, 9, 57, 16
1, 62763, Note_on_c, 9, 82, 50
1, 62773, Note_on_c, 9, 57, 0
1, 62776, Note_on_c, 9, 82, 0
1, 62800, Note_on_c, 9, 57, 17
1, 62813, Note_on_c, 9, 57, 0
1, 62840, Note_on_c, 9, 57, 18
1, 62853, Note_on_c, 9, 57, 0
1, 62865, Note_on_c, 5, 55, 0
1, 62865, Note_on_c, 2, 55, 0
1, 62865, Note_on_c, 6, 59, 0
1, 62865, Note_on_c, 6, 62, 0
1, 62865, Note_on_c, 5, 59, 0
1, 62865, Note_on_c, 2, 62, 0
1, 62865, Note_on_c, 5, 65, 0
1, 62865, Note_on_c, 5, 62, 0
1, 62865, Note_on_c, 6, 65, 0
1, 62865, Note_on_c, 0, 59, 0
1, 62865, Note_on_c, 0, 55, 0
1, 62865, Note_on_c, 0, 62, 0
1, 62865, Note_on_c, 7, 59, 0
1, 62865, Note_on_c, 2, 65, 0
1, 62865, Note_on_c, 2, 59, 0
1, 62876, Note_on_c, 2, 62, 81
1, 62876, Note_on_c, 5, 59, 78
1, 62877, Note_on_c, 2, 59, 81
1, 62877, Note_on_c, 5, 65, 79
1, 62877, Note_on_c, 9, 82, 66
1, 62878, Note_on_c, 0, 62, 80
1, 62878, Note_on_c, 5, 62, 79
1, 62878, Note_on_c, 6, 59, 66
1, 62878, Note_on_c, 7, 59, 81
1, 62880, Note_on_c, 0, 55, 83
1, 62880, Note_on_c, 5, 55, 78
1, 62880, Note_on_c, 9, 54, 74
1, 62880, Note_on_c, 9, 37, 110
1, 62880, Note_on_c, 9, 57, 20
1, 62881, Note_on_c, 2, 55, 80
1, 62881, Note_on_c, 6, 65, 66
1, 62881, Note_on_c, 6, 62, 67
1, 62883, Note_on_c, 0, 59, 83
1, 62883, Note_on_c, 9, 42, 101
1, 62887, Note_on_c, 2, 65, 79
1, 62890, Note_on_c, 9, 82, 0
1, 62893, Note_on_c, 9, 57, 0
1, 62893, Note_on_c, 9, 37, 0
1, 62893, Note_on_c, 9, 54, 0
1, 62896, Note_on_c, 9, 42, 0
1, 62920, Note_on_c, 9, 57, 21
1, 62933, Note_on_c, 9, 57, 0
1, 62960, Note_on_c, 9, 57, 22
1, 62973, Note_on_c, 9, 57, 0
1, 62993, Note_on_c, 9, 82, 56
1, 63000, Note_on_c, 9, 57, 23
1, 63006, Note_on_c, 9, 82, 0
1, 63013, Note_on_c, 9, 57, 0
1, 63040, Note_on_c, 9, 57, 25
1, 63053, Note_on_c, 9, 57, 0
1, 63080, Note_on_c, 9, 57, 26
1, 63093, Note_on_c, 9, 57, 0
1, 63105, Note_on_c, 2, 55, 0
1, 63105, Note_on_c, 5, 55, 0
1, 63115, Note_on_c, 9, 82, 45
1, 63117, Note_on_c, 9, 42, 62
1, 63120, Lyric_t, "I've "
1, 63120, Note_on_c, 3, 77, 78
1, 63120, Note_on_c, 9, 57, 27
1, 63123, Note_on_c, 5, 55, 72
1, 63126, Note_on_c, 2, 55, 71
1, 63128, Note_on_c, 9, 82, 0
1, 63130, Note_on_c, 9, 42, 0
1, 63133, Note_on_c, 9, 57, 0
1, 63160, Note_on_c, 9, 57, 28
1, 63173, Note_on_c, 9, 57, 0
1, 63200, Note_on_c, 9, 57, 30
1, 63213, Note_on_c, 9, 57, 0
1, 63215, Note_on_c, 1, 31, 0
1, 63225, Note_on_c, 3, 77, 0
1, 63237, Note_on_c, 1, 38, 96
1, 63240, Note_on_c, 9, 57, 31
1, 63242, Lyric_t, "got "
1, 63242, Note_on_c, 3, 79, 78
1, 63246, Note_on_c, 9, 82, 34
1, 63253, Note_on_c, 9, 57, 0
1, 63259, Note_on_c, 9, 82, 0
1, 63280, Note_on_c, 9, 57, 32
1, 63293, Note_on_c, 9, 57, 0
1, 63320, Note_on_c, 9, 57, 33
1, 63333, Note_on_c, 9, 57, 0
1, 63335, Note_on_c, 1, 38, 0
1, 63345, Note_on_c, 3, 79, 0
1, 63345, Note_on_c, 2, 55, 0
1, 63345, Note_on_c, 5, 55, 0
1, 63345, Note_on_c, 2, 65, 0
1, 63345, Note_on_c, 0, 59, 0
1, 63345, Note_on_c, 6, 62, 0
1, 63345, Note_on_c, 6, 65, 0
1, 63345, Note_on_c, 0, 55, 0
1, 63345, Note_on_c, 7, 59, 0
1, 63345, Note_on_c, 6, 59, 0
1, 63345, Note_on_c, 5, 62, 0
1, 63345, Note_on_c, 0, 62, 0
1, 63345, Note_on_c, 5, 65, 0
1, 63345, Note_on_c, 2, 59, 0
1, 63345, Note_on_c, 5, 59, 0
1, 63345, Note_on_c, 2, 62, 0
1, 63345, Note_on_c, 6, 55, 0
1, 63345, Note_on_c, 7, 55, 0
1, 63345, Note_on_c, 13, 81, 0
1, 63345, Note_on_c, 13, 62, 0
1, 63345, Note_on_c, 13, 55, 0
1, 63345, Note_on_c, 0, 65, 0
1, 63345, Note_on_c, 13, 59, 0
1, 63345, Note_on_c, 13, 65, 0
1, 63352, Note_on_c, 2, 65, 84
1, 63353, Note_on_c, 5, 58, 82
1, 63353, Note_on_c, 13, 55, 60
1, 63355, Note_on_c, 9, 42, 102
1, 63356, Note_on_c, 7, 58, 83
1, 63357, Note_on_c, 6, 58, 71
1, 63358, Note_on_c, 0, 55, 86
1, 63360, Note_on_c, 0, 62, 87
1, 63360, Note_on_c, 9, 36, 90
1, 63361, Note_on_c, 0, 58, 88
1, 63362, Note_on_c, 0, 43, 86
1, 63362, Note_on_c, 5, 65, 85
1, 63362, Note_on_c, 13, 81, 61
1, 63363, Note_on_c, 6, 55, 70
1, 63363, Note_on_c, 13, 58, 62
1, 63364, Note_on_c, 13, 62, 61
1, 63366, Note_on_c, 1, 43, 101
1, 63366, Note_on_c, 2, 58, 84
1, 63366, Note_on_c, 2, 62, 85
1, 63366, Note_on_c, 5, 62, 82
1, 63366, Note_on_c, 13, 65, 60
1, 63367, Note_on_c, 6, 62, 69
1, 63367, Note_on_c, 9, 82, 62
1, 63368, Note_on_c, 9, 42, 0
1, 63368, Note_on_c, 2, 55, 81
1, 63368, Note_on_c, 5, 55, 81
1, 63373, Note_on_c, 9, 36, 0
1, 63380, Note_on_c, 9, 82, 0
1, 63477, Note_on_c, 9, 82, 48
1, 63483, Lyric_t, "faith "
1, 63483, Note_on_c, 3, 81, 70
1, 63490, Note_on_c, 9, 82, 0
1, 63585, Note_on_c, 3, 81, 0
1, 63585, Note_on_c, 5, 55, 0
1, 63585, Note_on_c, 2, 55, 0
1, 63592, Lyric_t, "in "
1, 63592, Note_on_c, 3, 79, 78
1, 63592, Note_on_c, 7, 55, 69
1, 63595, Note_on_c, 2, 55, 70
1, 63596, Note_on_c, 9, 82, 30
1, 63601, Note_on_c, 9, 42, 64
1, 63603, Note_on_c, 6, 50, 62
1, 63607, Note_on_c, 5, 55, 70
1, 63609, Note_on_c, 9, 82, 0
1, 63614, Note_on_c, 9, 42, 0
1, 63670, Note_on_c, 3, 79, 0
1, 63725, Lyric_t, "us "
1, 63725, Lyric_t, "\015"
1, 63725, Note_on_c, 3, 77, 74
1, 63725, Note_on_c, 9, 82, 48
1, 63738, Note_on_c, 9, 82, 0
1, 63815, Note_on_c, 1, 43, 0
1, 63825, Note_on_c, 5, 55, 0
1, 63825, Note_on_c, 6, 50, 0
1, 63825, Note_on_c, 2, 55, 0
1, 63825, Note_on_c, 7, 55, 0
1, 63825, Note_on_c, 6, 62, 0
1, 63825, Note_on_c, 5, 62, 0
1, 63825, Note_on_c, 2, 62, 0
1, 63825, Note_on_c, 2, 58, 0
1, 63825, Note_on_c, 6, 55, 0
1, 63825, Note_on_c, 5, 65, 0
1, 63825, Note_on_c, 0, 58, 0
1, 63825, Note_on_c, 0, 55, 0
1, 63825, Note_on_c, 6, 58, 0
1, 63825, Note_on_c, 7, 58, 0
1, 63825, Note_on_c, 5, 58, 0
1, 63825, Note_on_c, 2, 65, 0
1, 63834, Note_on_c, 2, 58, 82
1, 63834, Note_on_c, 6, 62, 67
1, 63835, Note_on_c, 6, 58, 69
1, 63836, Note_on_c, 5, 58, 82
1, 63836, Note_on_c, 7, 62, 81
1, 63837, Note_on_c, 7, 55, 83
1, 63837, Note_on_c, 9, 42, 100
1, 63838, Note_on_c, 5, 62, 83
1, 63838, Note_on_c, 9, 82, 62
1, 63840, Note_on_c, 0, 55, 84
1, 63840, Note_on_c, 9, 40, 100
1, 63842, Note_on_c, 0, 58, 83
1, 63842, Note_on_c, 2, 55, 80
1, 63842, Note_on_c, 6, 55, 67
1, 63843, Note_on_c, 1, 43, 104
1, 63843, Note_on_c, 2, 62, 82
1, 63843, Note_on_c, 6, 50, 69
1, 63844, Note_on_c, 5, 55, 81
1, 63844, Note_on_c, 5, 65, 81
1, 63845, Note_on_c, 2, 65, 79
1, 63845, Note_on_c, 7, 58, 82
1, 63850, Note_on_c, 9, 42, 0
1, 63851, Note_on_c, 9, 82, 0
1, 63853, Note_on_c, 9, 40, 0
1, 63865, Note_on_c, 3, 77, 0
1, 63865, Control_c, 13, 11, 123
1, 63895, Control_c, 13, 11, 119
1, 63930, Control_c, 13, 11, 115
1, 63965, Note_on_c, 9, 82, 47
1, 63965, Control_c, 13, 11, 111
1, 63967, Lyric_t, "And "
1, 63967, Note_on_c, 3, 74, 74
1, 63978, Note_on_c, 9, 82, 0
1, 64000, Control_c, 13, 11, 107
1, 64030, Note_on_c, 3, 74, 0
1, 64035, Control_c, 13, 11, 103
1, 64055, Note_on_c, 1, 43, 0
1, 64065, Note_on_c, 5, 55, 0
1, 64065, Note_on_c, 2, 55, 0
1, 64065, Control_c, 13, 11, 99
1, 64072, Lyric_t, "I "
1, 64072, Note_on_c, 3, 77, 81
1, 64075, Note_on_c, 2, 55, 73
1, 64081, Note_on_c, 5, 55, 72
1, 64082, Note_on_c, 9, 82, 33
1, 64086, Note_on_c, 9, 42, 66
1, 64088, Note_on_c, 1, 45, 98
1, 64095, Note_on_c, 9, 82, 0
1, 64099, Note_on_c, 9, 42, 0
1, 64100, Control_c, 13, 11, 95
1, 64135, Control_c, 13, 11, 91
1, 64170, Control_c, 13, 11, 87
1, 64175, Note_on_c, 1, 45, 0
1, 64185, Note_on_c, 3, 77, 0
1, 64198, Note_on_c, 1, 46, 99
1, 64198, Note_on_c, 9, 82, 49
1, 64200, Note_on_c, 9, 36, 75
1, 64200, Control_c, 13, 11, 83
1, 64203, Lyric_t, "be"
1, 64203, Note_on_c, 3, 79, 86
1, 64211, Note_on_c, 9, 82, 0
1, 64213, Note_on_c, 9, 36, 0
1, 64235, Control_c, 13, 11, 79
1, 64270, Note_on_c, 3, 79, 0
1, 64270, Control_c, 13, 11, 75
1, 64295, Note_on_c, 1, 46, 0
1, 64305, Note_on_c, 5, 55, 0
1, 64305, Note_on_c, 2, 55, 0
1, 64305, Note_on_c, 7, 58, 0
1, 64305, Note_on_c, 2, 65, 0
1, 64305, Note_on_c, 5, 65, 0
1, 64305, Note_on_c, 6, 50, 0
1, 64305, Note_on_c, 2, 62, 0
1, 64305, Note_on_c, 6, 55, 0
1, 64305, Note_on_c, 0, 58, 0
1, 64305, Note_on_c, 0, 55, 0
1, 64305, Note_on_c, 5, 62, 0
1, 64305, Note_on_c, 7, 55, 0
1, 64305, Note_on_c, 7, 62, 0
1, 64305, Note_on_c, 5, 58, 0
1, 64305, Note_on_c, 6, 58, 0
1, 64305, Note_on_c, 6, 62, 0
1, 64305, Note_on_c, 2, 58, 0
1, 64305, Note_on_c, 13, 65, 0
1, 64305, Note_on_c, 13, 62, 0
1, 64305, Note_on_c, 13, 58, 0
1, 64305, Note_on_c, 13, 81, 0
1, 64305, Note_on_c, 0, 43, 0
1, 64305, Note_on_c, 0, 62, 0
1, 64305, Note_on_c, 13, 55, 0
1, 64305, Pitch_bend_c, 3, 4971
1, 64305, Control_c, 13, 11, 71
1, 64312, Note_on_c, 1, 48, 98
1, 64312, Note_on_c, 2, 64, 80
1, 64313, Note_on_c, 6, 55, 64
1, 64313, Note_on_c, 7, 60, 78
1, 64316, Note_on_c, 5, 55, 80
1, 64317, Note_on_c, 2, 55, 77
1, 64317, Note_on_c, 5, 58, 78
1, 64318, Note_on_c, 0, 64, 81
1, 64318, Note_on_c, 0, 60, 83
1, 64318, Note_on_c, 0, 55, 83
1, 64318, Note_on_c, 6, 64, 64
1, 64320, Note_on_c, 5, 48, 80
1, 64320, Note_on_c, 5, 64, 77
1, 64320, Note_on_c, 9, 42, 100
1, 64320, Note_on_c, 9, 36, 90
1, 64322, Note_on_c, 0, 48, 84
1, 64325, Note_on_c, 2, 58, 76
1, 64325, Note_on_c, 9, 82, 65
1, 64326, Note_on_c, 2, 48, 78
1, 64326, Note_on_c, 6, 48, 68
1, 64327, Note_on_c, 6, 62, 64
1, 64328, Lyric_t, "lieve "
1, 64328, Note_on_c, 3, 81, 87
1, 64333, Note_on_c, 9, 36, 0
1, 64333, Note_on_c, 9, 42, 0
1, 64338, Note_on_c, 9, 82, 0
1, 64340, Pitch_bend_c, 3, 5241
1, 64350, Pitch_bend_c, 3, 5777
1, 64360, Pitch_bend_c, 3, 6314
1, 64370, Pitch_bend_c, 3, 6851
1, 64380, Pitch_bend_c, 3, 7387
1, 64390, Pitch_bend_c, 3, 7924
1, 64395, Pitch_bend_c, 3, 8192
1, 64436, Note_on_c, 9, 82, 50
1, 64449, Note_on_c, 9, 82, 0
1, 64545, Note_on_c, 3, 81, 0
1, 64545, Note_on_c, 2, 55, 0
1, 64545, Note_on_c, 5, 55, 0
1, 64553, Note_on_c, 9, 82, 32
1, 64558, Note_on_c, 5, 55, 71
1, 64560, Note_on_c, 9, 42, 64
1, 64562, Lyric_t, "in "
1, 64562, Note_on_c, 3, 82, 77
1, 64566, Note_on_c, 9, 82, 0
1, 64566, Note_on_c, 2, 55, 72
1, 64573, Note_on_c, 9, 42, 0
1, 64655, Note_on_c, 1, 48, 0
1, 64665, Note_on_c, 3, 82, 0
1, 64676, Note_on_c, 9, 82, 46
1, 64683, Lyric_t, "you "
1, 64683, Note_on_c, 3, 79, 81
1, 64685, Note_on_c, 1, 43, 98
1, 64689, Note_on_c, 9, 82, 0
1, 64775, Note_on_c, 1, 43, 0
1, 64785, Note_on_c, 3, 79, 0
1, 64785, Note_on_c, 2, 55, 0
1, 64785, Note_on_c, 5, 55, 0
1, 64785, Note_on_c, 6, 62, 0
1, 64785, Note_on_c, 6, 48, 0
1, 64785, Note_on_c, 2, 48, 0
1, 64785, Note_on_c, 2, 58, 0
1, 64785, Note_on_c, 5, 64, 0
1, 64785, Note_on_c, 5, 48, 0
1, 64785, Note_on_c, 6, 64, 0
1, 64785, Note_on_c, 0, 55, 0
1, 64785, Note_on_c, 0, 60, 0
1, 64785, Note_on_c, 0, 64, 0
1, 64785, Note_on_c, 5, 58, 0
1, 64785, Note_on_c, 7, 60, 0
1, 64785, Note_on_c, 6, 55, 0
1, 64785, Note_on_c, 2, 64, 0
1, 64792, Note_on_c, 2, 64, 81
1, 64792, Note_on_c, 7, 55, 85
1, 64793, Note_on_c, 6, 48, 69
1, 64795, Note_on_c, 5, 48, 84
1, 64795, Note_on_c, 9, 42, 102
1, 64796, Note_on_c, 5, 64, 81
1, 64796, Note_on_c, 5, 55, 81
1, 64797, Note_on_c, 6, 60, 69
1, 64798, Note_on_c, 1, 36, 102
1, 64798, Note_on_c, 5, 58, 82
1, 64799, Lyric_t, "and "
1, 64799, Note_on_c, 3, 77, 93
1, 64800, Note_on_c, 0, 64, 59
1, 64800, Note_on_c, 2, 55, 85
1, 64800, Note_on_c, 6, 55, 69
1, 64800, Note_on_c, 9, 40, 100
1, 64801, Note_on_c, 0, 55, 60
1, 64802, Note_on_c, 7, 58, 82
1, 64803, Note_on_c, 0, 60, 60
1, 64804, Note_on_c, 2, 48, 82
1, 64804, Note_on_c, 6, 64, 70
1, 64805, Note_on_c, 7, 60, 82
1, 64806, Note_on_c, 9, 54, 77
1, 64807, Note_on_c, 2, 58, 82
1, 64807, Note_on_c, 9, 82, 63
1, 64808, Note_on_c, 9, 42, 0
1, 64813, Note_on_c, 9, 40, 0
1, 64819, Note_on_c, 9, 54, 0
1, 64820, Note_on_c, 9, 82, 0
1, 64870, Note_on_c, 3, 77, 0
1, 64913, Note_on_c, 9, 82, 54
1, 64925, Lyric_t, "me "
1, 64925, Lyric_t, "\015"
1, 64925, Note_on_c, 3, 77, 71
1, 64926, Note_on_c, 9, 82, 0
1, 65025, Note_on_c, 2, 48, 0
1, 65025, Note_on_c, 5, 48, 0
1, 65036, Note_on_c, 9, 42, 64
1, 65037, Note_on_c, 9, 82, 42
1, 65038, Note_on_c, 2, 48, 69
1, 65048, Note_on_c, 5, 48, 68
1, 65049, Note_on_c, 9, 42, 0
1, 65050, Note_on_c, 9, 82, 0
1, 65135, Note_on_c, 1, 36, 0
1, 65155, Note_on_c, 9, 82, 33
1, 65156, Note_on_c, 1, 28, 95
1, 65168, Note_on_c, 9, 82, 0
1, 65175, Control_c, 3, 11, 123
1, 65200, Control_c, 3, 11, 119
1, 65225, Control_c, 3, 11, 115
1, 65255, Note_on_c, 1, 28, 0
1, 65255, Control_c, 3, 11, 111
1, 65265, Note_on_c, 5, 48, 0
1, 65265, Note_on_c, 2, 48, 0
1, 65265, Note_on_c, 2, 58, 0
1, 65265, Note_on_c, 7, 60, 0
1, 65265, Note_on_c, 6, 64, 0
1, 65265, Note_on_c, 0, 60, 0
1, 65265, Note_on_c, 7, 58, 0
1, 65265, Note_on_c, 0, 55, 0
1, 65265, Note_on_c, 6, 55, 0
1, 65265, Note_on_c, 2, 55, 0
1, 65265, Note_on_c, 0, 64, 0
1, 65265, Note_on_c, 5, 58, 0
1, 65265, Note_on_c, 6, 60, 0
1, 65265, Note_on_c, 5, 55, 0
1, 65265, Note_on_c, 5, 64, 0
1, 65265, Note_on_c, 6, 48, 0
1, 65265, Note_on_c, 7, 55, 0
1, 65265, Note_on_c, 2, 64, 0
1, 65265, Note_on_c, 0, 48, 0
1, 65272, Note_on_c, 6, 57, 68
1, 65273, Note_on_c, 13, 65, 73
1, 65274, Note_on_c, 6, 60, 71
1, 65274, Note_on_c, 7, 53, 86
1, 65274, Note_on_c, 9, 42, 102
1, 65275, Note_on_c, 2, 53, 83
1, 65275, Note_on_c, 5, 65, 86
1, 65276, Note_on_c, 2, 65, 82
1, 65276, Note_on_c, 5, 57, 84
1, 65277, Note_on_c, 2, 57, 86
1, 65279, Note_on_c, 0, 65, 89
1, 65279, Note_on_c, 0, 60, 90
1, 65279, Note_on_c, 9, 82, 62
1, 65279, Note_on_c, 13, 53, 75
1, 65280, Note_on_c, 1, 29, 102
1, 65280, Control_c, 3, 11, 107
1, 65280, Note_on_c, 9, 36, 90
1, 65281, Note_on_c, 0, 57, 86
1, 65282, Note_on_c, 0, 41, 90
1, 65283, Note_on_c, 5, 53, 83
1, 65283, Note_on_c, 13, 60, 76
1, 65285, Note_on_c, 6, 65, 72
1, 65285, Note_on_c, 13, 57, 75
1, 65287, Note_on_c, 9, 42, 0
1, 65287, Note_on_c, 2, 60, 82
1, 65288, Note_on_c, 5, 60, 83
1, 65292, Note_on_c, 9, 82, 0
1, 65293, Note_on_c, 9, 36, 0
1, 65305, Control_c, 3, 11, 103
1, 65330, Control_c, 3, 11, 99
1, 65355, Control_c, 3, 11, 95
1, 65370, Control_c, 13, 11, 75
1, 65380, Control_c, 3, 11, 91
1, 65405, Control_c, 3, 11, 87
1, 65407, Note_on_c, 9, 82, 47
1, 65420, Note_on_c, 9, 82, 0
1, 65430, Control_c, 3, 11, 83
1, 65455, Control_c, 3, 11, 79
1, 65480, Control_c, 3, 11, 75
1, 65490, Control_c, 13, 11, 79
1, 65505, Note_on_c, 5, 53, 0
1, 65505, Note_on_c, 2, 53, 0
1, 65505, Note_on_c, 7, 53, 0
1, 65505, Note_on_c, 3, 77, 0
1, 65505, Control_c, 3, 11, 71
1, 65517, Note_on_c, 7, 53, 70
1, 65519, Note_on_c, 9, 42, 65
1, 65522, Note_on_c, 2, 53, 70
1, 65522, Note_on_c, 9, 82, 30
1, 65525, Note_on_c, 5, 53, 73
1, 65525, Note_on_c, 6, 53, 64
1, 65532, Note_on_c, 9, 42, 0
1, 65535, Note_on_c, 9, 82, 0
1, 65615, Control_c, 13, 11, 83
1, 65638, Note_on_c, 9, 82, 46
1, 65651, Note_on_c, 9, 82, 0
1, 65680, Control_c, 3, 11, 127
1, 65735, Control_c, 13, 11, 87
1, 65745, Note_on_c, 6, 53, 0
1, 65745, Note_on_c, 5, 53, 0
1, 65745, Note_on_c, 2, 53, 0
1, 65745, Note_on_c, 5, 60, 0
1, 65745, Note_on_c, 2, 60, 0
1, 65745, Note_on_c, 6, 65, 0
1, 65745, Note_on_c, 0, 57, 0
1, 65745, Note_on_c, 0, 60, 0
1, 65745, Note_on_c, 0, 65, 0
1, 65745, Note_on_c, 2, 57, 0
1, 65745, Note_on_c, 5, 57, 0
1, 65745, Note_on_c, 2, 65, 0
1, 65745, Note_on_c, 5, 65, 0
1, 65745, Note_on_c, 6, 60, 0
1, 65745, Note_on_c, 13, 65, 0
1, 65745, Note_on_c, 6, 57, 0
1, 65756, Note_on_c, 5, 53, 78
1, 65756, Note_on_c, 6, 60, 65
1, 65757, Note_on_c, 0, 65, 85
1, 65757, Note_on_c, 13, 67, 74
1, 65758, Note_on_c, 2, 65, 81
1, 65760, Note_on_c, 9, 40, 100
1, 65761, Note_on_c, 6, 53, 68
1, 65761, Note_on_c, 7, 55, 82
1, 65762, Note_on_c, 0, 60, 85
1, 65762, Note_on_c, 2, 57, 78
1, 65762, Note_on_c, 5, 57, 79
1, 65762, Note_on_c, 9, 42, 98
1, 65762, Note_on_c, 9, 82, 62
1, 65763, Note_on_c, 0, 57, 83
1, 65763, Note_on_c, 2, 53, 81
1, 65763, Note_on_c, 2, 60, 80
1, 65764, Note_on_c, 5, 65, 81
1, 65765, Note_on_c, 6, 57, 66
1, 65765, Note_on_c, 6, 65, 68
1, 65766, Note_on_c, 5, 60, 82
1, 65773, Note_on_c, 9, 40, 0
1, 65775, Note_on_c, 9, 82, 0
1, 65775, Note_on_c, 9, 42, 0
1, 65855, Note_on_c, 1, 29, 0
1, 65855, Control_c, 13, 11, 91
1, 65878, Note_on_c, 9, 82, 47
1, 65886, Note_on_c, 1, 34, 94
1, 65891, Note_on_c, 9, 82, 0
1, 65910, Note_on_c, 1, 34, 0
1, 65980, Control_c, 13, 11, 95
1, 65985, Note_on_c, 5, 60, 0
1, 65985, Note_on_c, 5, 65, 0
1, 65985, Note_on_c, 2, 60, 0
1, 65985, Note_on_c, 2, 53, 0
1, 65985, Note_on_c, 5, 57, 0
1, 65985, Note_on_c, 2, 57, 0
1, 65985, Note_on_c, 2, 65, 0
1, 65985, Note_on_c, 5, 53, 0
1, 65994, Note_on_c, 1, 36, 96
1, 65997, Note_on_c, 9, 42, 66
1, 65998, Note_on_c, 5, 60, 70
1, 66001, Note_on_c, 2, 57, 68
1, 66001, Note_on_c, 2, 60, 70
1, 66002, Note_on_c, 5, 65, 68
1, 66002, Note_on_c, 9, 82, 31
1, 66003, Note_on_c, 2, 65, 69
1, 66003, Note_on_c, 5, 53, 68
1, 66004, Note_on_c, 5, 57, 69
1, 66004, Note_on_c, 7, 60, 68
1, 66008, Note_on_c, 2, 53, 71
1, 66010, Note_on_c, 9, 42, 0
1, 66015, Note_on_c, 9, 82, 0
1, 66095, Note_on_c, 1, 36, 0
1, 66100, Control_c, 13, 11, 99
1, 66105, Note_on_c, 2, 53, 0
1, 66105, Note_on_c, 5, 57, 0
1, 66105, Note_on_c, 5, 53, 0
1, 66105, Note_on_c, 2, 65, 0
1, 66105, Note_on_c, 5, 65, 0
1, 66105, Note_on_c, 2, 60, 0
1, 66105, Note_on_c, 2, 57, 0
1, 66105, Note_on_c, 5, 60, 0
1, 66118, Note_on_c, 1, 36, 100
1, 66118, Note_on_c, 2, 57, 80
1, 66118, Note_on_c, 5, 60, 80
1, 66120, Note_on_c, 5, 53, 78
1, 66120, Note_on_c, 9, 36, 75
1, 66122, Note_on_c, 5, 65, 77
1, 66123, Note_on_c, 2, 60, 76
1, 66124, Note_on_c, 2, 65, 80
1, 66124, Note_on_c, 5, 57, 79
1, 66124, Note_on_c, 9, 82, 49
1, 66126, Note_on_c, 2, 53, 79
1, 66133, Note_on_c, 9, 36, 0
1, 66137, Note_on_c, 9, 82, 0
1, 66215, Note_on_c, 1, 36, 0
1, 66220, Control_c, 13, 11, 103
1, 66225, Note_on_c, 2, 53, 0
1, 66225, Note_on_c, 5, 57, 0
1, 66225, Note_on_c, 2, 65, 0
1, 66225, Note_on_c, 2, 60, 0
1, 66225, Note_on_c, 5, 65, 0
1, 66225, Note_on_c, 5, 53, 0
1, 66225, Note_on_c, 5, 60, 0
1, 66225, Note_on_c, 2, 57, 0
1, 66225, Note_on_c, 7, 60, 0
1, 66225, Note_on_c, 6, 65, 0
1, 66225, Note_on_c, 6, 57, 0
1, 66225, Note_on_c, 0, 57, 0
1, 66225, Note_on_c, 0, 60, 0
1, 66225, Note_on_c, 7, 55, 0
1, 66225, Note_on_c, 6, 53, 0
1, 66225, Note_on_c, 13, 67, 0
1, 66225, Note_on_c, 0, 65, 0
1, 66225, Note_on_c, 6, 60, 0
1, 66225, Note_on_c, 7, 53, 0
1, 66225, Note_on_c, 13, 57, 0
1, 66225, Note_on_c, 13, 60, 0
1, 66225, Note_on_c, 0, 41, 0
1, 66225, Note_on_c, 13, 53, 0
1, 66232, Note_on_c, 13, 62, 77
1, 66233, Note_on_c, 1, 36, 102
1, 66233, Note_on_c, 6, 58, 66
1, 66236, Note_on_c, 6, 53, 68
1, 66237, Note_on_c, 0, 58, 84
1, 66237, Note_on_c, 13, 58, 76
1, 66238, Note_on_c, 5, 62, 81
1, 66238, Note_on_c, 7, 55, 78
1, 66238, Note_on_c, 13, 48, 77
1, 66240, Note_on_c, 0, 65, 83
1, 66240, Note_on_c, 0, 48, 86
1, 66240, Note_on_c, 9, 57, 5
1, 66240, Note_on_c, 9, 36, 115
1, 66241, Note_on_c, 0, 62, 82
1, 66241, Note_on_c, 6, 62, 65
1, 66241, Note_on_c, 13, 65, 76
1, 66242, Note_on_c, 9, 46, 64
1, 66243, Note_on_c, 9, 82, 66
1, 66244, Note_on_c, 2, 62, 82
1, 66244, Note_on_c, 5, 65, 80
1, 66246, Note_on_c, 5, 55, 82
1, 66246, Note_on_c, 6, 65, 65
1, 66246, Note_on_c, 13, 77, 75
1, 66247, Note_on_c, 2, 58, 81
1, 66247, Note_on_c, 2, 65, 82
1, 66247, Note_on_c, 5, 58, 82
1, 66248, Note_on_c, 2, 55, 79
1, 66253, Note_on_c, 9, 36, 0
1, 66253, Note_on_c, 9, 57, 0
1, 66255, Note_on_c, 9, 46, 0
1, 66256, Note_on_c, 9, 82, 0
1, 66280, Note_on_c, 9, 57, 6
1, 66293, Note_on_c, 9, 57, 0
1, 66320, Note_on_c, 9, 57, 8
1, 66333, Note_on_c, 9, 57, 0
1, 66345, Control_c, 13, 11, 107
1, 66356, Note_on_c, 9, 82, 46
1, 66360, Note_on_c, 9, 57, 10
1, 66369, Note_on_c, 9, 82, 0
1, 66373, Note_on_c, 9, 57, 0
1, 66400, Note_on_c, 9, 57, 12
1, 66413, Note_on_c, 9, 57, 0
1, 66440, Note_on_c, 9, 57, 14
1, 66453, Note_on_c, 9, 57, 0
1, 66465, Note_on_c, 2, 55, 0
1, 66465, Note_on_c, 5, 58, 0
1, 66465, Note_on_c, 2, 65, 0
1, 66465, Note_on_c, 2, 58, 0
1, 66465, Note_on_c, 5, 55, 0
1, 66465, Note_on_c, 5, 65, 0
1, 66465, Note_on_c, 2, 62, 0
1, 66465, Note_on_c, 5, 62, 0
1, 66465, Control_c, 13, 11, 111
1, 66472, Note_on_c, 2, 58, 70
1, 66476, Note_on_c, 2, 65, 70
1, 66477, Note_on_c, 7, 60, 69
1, 66480, Note_on_c, 9, 40, 115
1, 66480, Note_on_c, 9, 57, 16
1, 66481, Note_on_c, 5, 65, 70
1, 66481, Note_on_c, 5, 58, 70
1, 66482, Note_on_c, 2, 55, 72
1, 66483, Note_on_c, 5, 62, 68
1, 66484, Note_on_c, 5, 55, 69
1, 66486, Note_on_c, 9, 82, 32
1, 66487, Note_on_c, 2, 62, 69
1, 66493, Note_on_c, 9, 57, 0
1, 66493, Note_on_c, 9, 40, 0
1, 66499, Note_on_c, 9, 82, 0
1, 66520, Note_on_c, 9, 57, 18
1, 66533, Note_on_c, 9, 57, 0
1, 66560, Note_on_c, 9, 57, 19
1, 66573, Note_on_c, 9, 57, 0
1, 66585, Control_c, 13, 11, 115
1, 66595, Lyric_t, "So "
1, 66595, Note_on_c, 3, 77, 79
1, 66595, Note_on_c, 9, 82, 50
1, 66600, Note_on_c, 9, 40, 100
1, 66600, Note_on_c, 9, 57, 21
1, 66601, Note_on_c, 4, 60, 84
1, 66601, Note_on_c, 15, 60, 1
1, 66608, Note_on_c, 9, 82, 0
1, 66613, Note_on_c, 9, 57, 0
1, 66613, Note_on_c, 9, 40, 0
1, 66640, Note_on_c, 9, 57, 23
1, 66653, Note_on_c, 9, 57, 0
1, 66680, Note_on_c, 9, 57, 25
1, 66690, Note_on_c, 4, 60, 0
1, 66690, Note_on_c, 3, 77, 0
1, 66693, Note_on_c, 9, 57, 0
1, 66695, Note_on_c, 1, 36, 0
1, 66705, Note_on_c, 2, 62, 0
1, 66705, Note_on_c, 5, 55, 0
1, 66705, Note_on_c, 5, 62, 0
1, 66705, Note_on_c, 2, 55, 0
1, 66705, Note_on_c, 5, 58, 0
1, 66705, Note_on_c, 5, 65, 0
1, 66705, Note_on_c, 7, 60, 0
1, 66705, Note_on_c, 2, 65, 0
1, 66705, Note_on_c, 2, 58, 0
1, 66705, Note_on_c, 13, 77, 0
1, 66705, Note_on_c, 6, 65, 0
1, 66705, Note_on_c, 6, 62, 0
1, 66705, Note_on_c, 0, 62, 0
1, 66705, Note_on_c, 0, 58, 0
1, 66705, Note_on_c, 6, 53, 0
1, 66705, Note_on_c, 6, 58, 0
1, 66710, Control_c, 13, 11, 119
1, 66712, Note_on_c, 7, 60, 77
1, 66713, Note_on_c, 1, 36, 100
1, 66713, Note_on_c, 5, 55, 81
1, 66714, Note_on_c, 5, 62, 78
1, 66715, Note_on_c, 15, 60, 0
1, 66717, Note_on_c, 0, 58, 81
1, 66717, Note_on_c, 0, 62, 80
1, 66717, Note_on_c, 2, 58, 80
1, 66717, Note_on_c, 2, 62, 77
1, 66717, Note_on_c, 4, 62, 90
1, 66717, Note_on_c, 15, 62, 1
1, 66718, Note_on_c, 2, 55, 77
1, 66718, Note_on_c, 6, 62, 67
1, 66718, Note_on_c, 6, 58, 68
1, 66719, Note_on_c, 9, 54, 75
1, 66720, Lyric_t, "hold "
1, 66720, Note_on_c, 3, 81, 84
1, 66720, Note_on_c, 9, 36, 115
1, 66720, Note_on_c, 9, 57, 27
1, 66721, Note_on_c, 6, 53, 66
1, 66724, Note_on_c, 5, 58, 78
1, 66724, Note_on_c, 13, 79, 76
1, 66725, Note_on_c, 2, 65, 80
1, 66725, Note_on_c, 9, 82, 66
1, 66726, Note_on_c, 5, 65, 79
1, 66732, Note_on_c, 9, 54, 0
1, 66733, Note_on_c, 9, 57, 0
1, 66733, Note_on_c, 9, 36, 0
1, 66738, Note_on_c, 9, 82, 0
1, 66760, Note_on_c, 9, 57, 29
1, 66773, Note_on_c, 9, 57, 0
1, 66800, Note_on_c, 9, 57, 31
1, 66813, Note_on_c, 9, 57, 0
1, 66830, Control_c, 13, 11, 123
1, 66840, Note_on_c, 9, 57, 33
1, 66840, Note_on_c, 9, 82, 53
1, 66844, Note_on_c, 9, 47, 113
1, 66848, Note_on_c, 9, 54, 65
1, 66853, Note_on_c, 9, 82, 0
1, 66853, Note_on_c, 9, 57, 0
1, 66857, Note_on_c, 9, 47, 0
1, 66861, Note_on_c, 9, 54, 0
1, 66880, Note_on_c, 9, 57, 34
1, 66893, Note_on_c, 9, 57, 0
1, 66900, Note_on_c, 4, 62, 0
1, 66905, Note_on_c, 3, 81, 0
1, 66920, Note_on_c, 9, 57, 36
1, 66933, Note_on_c, 9, 57, 0
1, 66945, Note_on_c, 5, 65, 0
1, 66945, Note_on_c, 2, 65, 0
1, 66945, Note_on_c, 5, 58, 0
1, 66945, Note_on_c, 2, 55, 0
1, 66945, Note_on_c, 2, 62, 0
1, 66945, Note_on_c, 2, 58, 0
1, 66945, Note_on_c, 5, 62, 0
1, 66945, Note_on_c, 5, 55, 0
1, 66945, Pitch_bend_c, 3, 4971
1, 66953, Note_on_c, 5, 55, 72
1, 66953, Note_on_c, 9, 43, 115
1, 66954, Note_on_c, 2, 65, 68
1, 66954, Note_on_c, 2, 55, 71
1, 66955, Note_on_c, 5, 58, 69
1, 66955, Control_c, 13, 11, 127
1, 66957, Note_on_c, 5, 65, 72
1, 66958, Note_on_c, 5, 62, 72
1, 66959, Note_on_c, 15, 62, 0
1, 66959, Note_on_c, 2, 58, 68
1, 66960, Note_on_c, 9, 54, 73
1, 66960, Note_on_c, 9, 82, 44
1, 66960, Note_on_c, 9, 57, 38
1, 66961, Note_on_c, 4, 65, 84
1, 66961, Note_on_c, 15, 65, 1
1, 66963, Lyric_t, "on "
1, 66963, Note_on_c, 3, 84, 80
1, 66966, Note_on_c, 9, 43, 0
1, 66967, Note_on_c, 2, 62, 68
1, 66973, Note_on_c, 9, 57, 0
1, 66973, Note_on_c, 9, 82, 0
1, 66973, Note_on_c, 9, 54, 0
1, 66980, Pitch_bend_c, 3, 5241
1, 66990, Pitch_bend_c, 3, 5777
1, 67000, Pitch_bend_c, 3, 6314
1, 67000, Note_on_c, 9, 57, 40
1, 67010, Pitch_bend_c, 3, 6851
1, 67013, Note_on_c, 9, 57, 0
1, 67020, Pitch_bend_c, 3, 7387
1, 67030, Pitch_bend_c, 3, 7924
1, 67035, Pitch_bend_c, 3, 8192
1, 67040, Note_on_c, 9, 57, 42
1, 67053, Note_on_c, 9, 57, 0
1, 67080, Note_on_c, 9, 57, 44
1, 67087, Note_on_c, 9, 82, 31
1, 67093, Note_on_c, 9, 57, 0
1, 67100, Note_on_c, 9, 82, 0
1, 67120, Note_on_c, 9, 57, 46
1, 67133, Note_on_c, 9, 57, 0
1, 67160, Note_on_c, 9, 57, 48
1, 67173, Note_on_c, 9, 57, 0
1, 67175, Note_on_c, 1, 36, 0
1, 67185, Note_on_c, 2, 62, 0
1, 67185, Note_on_c, 2, 58, 0
1, 67185, Note_on_c, 5, 62, 0
1, 67185, Note_on_c, 5, 65, 0
1, 67185, Note_on_c, 5, 58, 0
1, 67185, Note_on_c, 2, 55, 0
1, 67185, Note_on_c, 2, 65, 0
1, 67185, Note_on_c, 5, 55, 0
1, 67185, Note_on_c, 13, 79, 0
1, 67185, Note_on_c, 6, 53, 0
1, 67185, Note_on_c, 6, 58, 0
1, 67185, Note_on_c, 6, 62, 0
1, 67185, Note_on_c, 0, 62, 0
1, 67185, Note_on_c, 0, 58, 0
1, 67185, Note_on_c, 7, 60, 0
1, 67185, Note_on_c, 13, 65, 0
1, 67185, Note_on_c, 0, 48, 0
1, 67185, Note_on_c, 0, 65, 0
1, 67185, Note_on_c, 13, 48, 0
1, 67185, Note_on_c, 7, 55, 0
1, 67185, Note_on_c, 13, 58, 0
1, 67185, Note_on_c, 13, 62, 0
1, 67193, Note_on_c, 2, 60, 83
1, 67194, Note_on_c, 13, 53, 76
1, 67195, Note_on_c, 13, 81, 76
1, 67197, Note_on_c, 0, 65, 87
1, 67197, Note_on_c, 2, 57, 82
1, 67197, Note_on_c, 5, 53, 85
1, 67200, Note_on_c, 0, 60, 88
1, 67200, Note_on_c, 9, 36, 115
1, 67200, Note_on_c, 9, 49, 90
1, 67201, Note_on_c, 0, 57, 85
1, 67202, Note_on_c, 0, 41, 85
1, 67203, Note_on_c, 1, 41, 103
1, 67203, Note_on_c, 2, 53, 85
1, 67203, Note_on_c, 5, 65, 81
1, 67203, Note_on_c, 5, 57, 83
1, 67207, Note_on_c, 5, 60, 82
1, 67207, Note_on_c, 6, 41, 82
1, 67207, Note_on_c, 9, 82, 66
1, 67207, Note_on_c, 13, 60, 76
1, 67208, Note_on_c, 2, 65, 84
1, 67208, Note_on_c, 7, 53, 83
1, 67208, Note_on_c, 13, 69, 77
1, 67208, Note_on_c, 13, 65, 73
1, 67213, Note_on_c, 9, 49, 0
1, 67213, Note_on_c, 9, 36, 0
1, 67220, Note_on_c, 9, 82, 0
1, 67314, Note_on_c, 9, 82, 48
1, 67327, Note_on_c, 9, 82, 0
1, 67425, Note_on_c, 2, 65, 0
1, 67425, Note_on_c, 5, 60, 0
1, 67425, Note_on_c, 5, 57, 0
1, 67425, Note_on_c, 5, 65, 0
1, 67425, Note_on_c, 2, 53, 0
1, 67425, Note_on_c, 5, 53, 0
1, 67425, Note_on_c, 2, 57, 0
1, 67425, Note_on_c, 2, 60, 0
1, 67432, Note_on_c, 5, 60, 62
1, 67432, Note_on_c, 7, 57, 67
1, 67432, Note_on_c, 9, 42, 64
1, 67432, Note_on_c, 9, 82, 30
1, 67433, Note_on_c, 5, 53, 62
1, 67434, Note_on_c, 2, 65, 61
1, 67437, Note_on_c, 2, 60, 59
1, 67437, Note_on_c, 6, 48, 74
1, 67441, Note_on_c, 5, 57, 59
1, 67444, Note_on_c, 5, 65, 59
1, 67445, Note_on_c, 9, 82, 0
1, 67445, Note_on_c, 9, 42, 0
1, 67445, Note_on_c, 2, 57, 61
1, 67446, Note_on_c, 2, 53, 59
1, 67559, Note_on_c, 9, 82, 49
1, 67572, Note_on_c, 9, 82, 0
1, 67665, Note_on_c, 2, 53, 0
1, 67665, Note_on_c, 2, 57, 0
1, 67665, Note_on_c, 5, 65, 0
1, 67665, Note_on_c, 5, 57, 0
1, 67665, Note_on_c, 2, 60, 0
1, 67665, Note_on_c, 2, 65, 0
1, 67665, Note_on_c, 5, 53, 0
1, 67665, Note_on_c, 5, 60, 0
1, 67665, Note_on_c, 0, 57, 0
1, 67665, Note_on_c, 0, 60, 0
1, 67665, Note_on_c, 0, 65, 0
1, 67672, Note_on_c, 5, 65, 83
1, 67672, Note_on_c, 9, 82, 63
1, 67674, Note_on_c, 2, 57, 82
1, 67676, Note_on_c, 7, 60, 80
1, 67677, Note_on_c, 0, 65, 83
1, 67677, Note_on_c, 9, 54, 75
1, 67678, Note_on_c, 2, 60, 80
1, 67679, Note_on_c, 6, 57, 82
1, 67679, Note_on_c, 9, 42, 102
1, 67680, Note_on_c, 9, 40, 115
1, 67682, Note_on_c, 5, 57, 83
1, 67682, Note_on_c, 5, 60, 79
1, 67683, Note_on_c, 0, 60, 87
1, 67683, Note_on_c, 0, 57, 84
1, 67683, Note_on_c, 2, 65, 83
1, 67684, Note_on_c, 2, 53, 80
1, 67685, Note_on_c, 9, 82, 0
1, 67685, Note_on_c, 5, 53, 83
1, 67690, Note_on_c, 9, 54, 0
1, 67692, Note_on_c, 9, 42, 0
1, 67693, Note_on_c, 9, 40, 0
1, 67802, Note_on_c, 9, 82, 48
1, 67815, Note_on_c, 9, 82, 0
1, 67895, Note_on_c, 1, 41, 0
1, 67905, Note_on_c, 5, 53, 0
1, 67905, Note_on_c, 2, 53, 0
1, 67905, Note_on_c, 2, 65, 0
1, 67905, Note_on_c, 5, 60, 0
1, 67905, Note_on_c, 5, 57, 0
1, 67905, Note_on_c, 2, 60, 0
1, 67905, Note_on_c, 2, 57, 0
1, 67905, Note_on_c, 5, 65, 0
1, 67905, Note_on_c, 7, 57, 0
1, 67916, Note_on_c, 5, 53, 63
1, 67917, Note_on_c, 2, 53, 62
1, 67917, Note_on_c, 9, 42, 65
1, 67918, Note_on_c, 1, 41, 98
1, 67918, Note_on_c, 5, 60, 66
1, 67918, Note_on_c, 7, 57, 71
1, 67921, Note_on_c, 2, 60, 65
1, 67921, Note_on_c, 5, 57, 65
1, 67922, Note_on_c, 5, 65, 65
1, 67923, Note_on_c, 2, 57, 65
1, 67926, Note_on_c, 2, 65, 65
1, 67928, Note_on_c, 9, 82, 34
1, 67930, Note_on_c, 9, 42, 0
1, 67941, Note_on_c, 9, 82, 0
1, 68015, Note_on_c, 1, 41, 0
1, 68034, Note_on_c, 9, 82, 50
1, 68040, Note_on_c, 9, 36, 90
1, 68044, Note_on_c, 1, 41, 100
1, 68047, Note_on_c, 9, 82, 0
1, 68053, Note_on_c, 9, 36, 0
1, 68135, Note_on_c, 1, 41, 0
1, 68145, Note_on_c, 2, 65, 0
1, 68145, Note_on_c, 2, 57, 0
1, 68145, Note_on_c, 5, 65, 0
1, 68145, Note_on_c, 5, 57, 0
1, 68145, Note_on_c, 2, 60, 0
1, 68145, Note_on_c, 7, 57, 0
1, 68145, Note_on_c, 5, 60, 0
1, 68145, Note_on_c, 2, 53, 0
1, 68145, Note_on_c, 5, 53, 0
1, 68145, Note_on_c, 0, 57, 0
1, 68145, Note_on_c, 0, 60, 0
1, 68145, Note_on_c, 6, 57, 0
1, 68145, Note_on_c, 0, 65, 0
1, 68145, Note_on_c, 7, 60, 0
1, 68145, Note_on_c, 6, 48, 0
1, 68145, Note_on_c, 13, 65, 0
1, 68145, Note_on_c, 13, 69, 0
1, 68145, Note_on_c, 7, 53, 0
1, 68145, Note_on_c, 13, 60, 0
1, 68145, Note_on_c, 6, 41, 0
1, 68145, Note_on_c, 0, 41, 0
1, 68145, Note_on_c, 13, 81, 0
1, 68145, Note_on_c, 13, 53, 0
1, 68152, Note_on_c, 2, 53, 79
1, 68152, Note_on_c, 9, 42, 102
1, 68154, Note_on_c, 13, 79, 77
1, 68156, Note_on_c, 9, 82, 64
1, 68157, Note_on_c, 13, 57, 76
1, 68158, Note_on_c, 0, 65, 83
1, 68158, Note_on_c, 6, 48, 80
1, 68159, Note_on_c, 0, 60, 81
1, 68160, Note_on_c, 0, 45, 84
1, 68160, Note_on_c, 9, 36, 115
1, 68160, Note_on_c, 13, 60, 76
1, 68162, Note_on_c, 7, 51, 78
1, 68163, Note_on_c, 0, 63, 80
1, 68163, Note_on_c, 5, 53, 79
1, 68163, Note_on_c, 13, 63, 73
1, 68164, Note_on_c, 13, 69, 74
1, 68165, Note_on_c, 9, 42, 0
1, 68167, Note_on_c, 1, 33, 101
1, 68168, Note_on_c, 2, 57, 78
1, 68169, Note_on_c, 9, 82, 0
1, 68173, Note_on_c, 9, 36, 0
1, 68174, Note_on_c, 5, 63, 80
1, 68177, Note_on_c, 5, 57, 77
1, 68182, Note_on_c, 2, 63, 78
1, 68187, Note_on_c, 5, 65, 80
1, 68191, Note_on_c, 2, 65, 77
1, 68282, Note_on_c, 9, 82, 50
1, 68295, Note_on_c, 9, 82, 0
1, 68385, Note_on_c, 2, 65, 0
1, 68385, Note_on_c, 5, 65, 0
1, 68385, Note_on_c, 2, 63, 0
1, 68385, Note_on_c, 5, 57, 0
1, 68385, Note_on_c, 5, 63, 0
1, 68385, Note_on_c, 2, 57, 0
1, 68385, Note_on_c, 5, 53, 0
1, 68385, Note_on_c, 2, 53, 0
1, 68397, Note_on_c, 5, 53, 64
1, 68397, Note_on_c, 5, 57, 65
1, 68398, Note_on_c, 2, 63, 65
1, 68398, Note_on_c, 7, 57, 72
1, 68398, Note_on_c, 9, 82, 31
1, 68401, Note_on_c, 5, 65, 66
1, 68402, Note_on_c, 2, 53, 64
1, 68402, Note_on_c, 6, 51, 73
1, 68405, Note_on_c, 2, 57, 65
1, 68405, Note_on_c, 5, 63, 65
1, 68406, Note_on_c, 2, 65, 65
1, 68407, Note_on_c, 9, 42, 62
1, 68411, Note_on_c, 9, 82, 0
1, 68420, Note_on_c, 9, 42, 0
1, 68500, Note_on_c, 4, 65, 0
1, 68505, Note_on_c, 3, 84, 0
1, 68520, Note_on_c, 9, 82, 48
1, 68533, Note_on_c, 9, 82, 0
1, 68625, Note_on_c, 2, 65, 0
1, 68625, Note_on_c, 5, 63, 0
1, 68625, Note_on_c, 2, 57, 0
1, 68625, Note_on_c, 2, 53, 0
1, 68625, Note_on_c, 5, 65, 0
1, 68625, Note_on_c, 2, 63, 0
1, 68625, Note_on_c, 5, 57, 0
1, 68625, Note_on_c, 5, 53, 0
1, 68625, Note_on_c, 0, 63, 0
1, 68625, Note_on_c, 0, 60, 0
1, 68625, Note_on_c, 0, 65, 0
1, 68625, Pitch_bend_c, 3, 4971
1, 68632, Note_on_c, 2, 53, 85
1, 68632, Note_on_c, 9, 82, 63
1, 68637, Lyric_t, "to "
1, 68637, Note_on_c, 3, 81, 93
1, 68637, Note_on_c, 5, 57, 85
1, 68640, Note_on_c, 0, 65, 87
1, 68640, Note_on_c, 9, 40, 115
1, 68641, Note_on_c, 0, 60, 86
1, 68641, Note_on_c, 7, 60, 83
1, 68642, Note_on_c, 15, 65, 0
1, 68642, Note_on_c, 0, 63, 88
1, 68642, Note_on_c, 2, 65, 83
1, 68642, Note_on_c, 5, 65, 85
1, 68643, Note_on_c, 6, 60, 80
1, 68644, Note_on_c, 2, 63, 83
1, 68644, Note_on_c, 4, 62, 94
1, 68644, Note_on_c, 9, 42, 99
1, 68644, Note_on_c, 9, 54, 73
1, 68644, Note_on_c, 15, 62, 1
1, 68645, Note_on_c, 9, 82, 0
1, 68645, Note_on_c, 5, 53, 85
1, 68646, Note_on_c, 5, 63, 81
1, 68647, Note_on_c, 2, 57, 84
1, 68653, Note_on_c, 9, 40, 0
1, 68657, Note_on_c, 9, 54, 0
1, 68657, Note_on_c, 9, 42, 0
1, 68660, Pitch_bend_c, 3, 5241
1, 68670, Pitch_bend_c, 3, 5777
1, 68680, Pitch_bend_c, 3, 6314
1, 68690, Pitch_bend_c, 3, 6851
1, 68700, Pitch_bend_c, 3, 7387
1, 68710, Pitch_bend_c, 3, 7924
1, 68715, Pitch_bend_c, 3, 8192
1, 68745, Note_on_c, 3, 81, 0
1, 68756, Note_on_c, 9, 82, 53
1, 68759, Note_on_c, 3, 79, 75
1, 68769, Note_on_c, 9, 82, 0
1, 68860, Note_on_c, 4, 62, 0
1, 68865, Note_on_c, 3, 79, 0
1, 68865, Note_on_c, 2, 57, 0
1, 68865, Note_on_c, 5, 63, 0
1, 68865, Note_on_c, 5, 53, 0
1, 68865, Note_on_c, 2, 63, 0
1, 68865, Note_on_c, 5, 65, 0
1, 68865, Note_on_c, 2, 65, 0
1, 68865, Note_on_c, 5, 57, 0
1, 68865, Note_on_c, 2, 53, 0
1, 68865, Note_on_c, 7, 51, 0
1, 68872, Note_on_c, 2, 57, 64
1, 68873, Note_on_c, 2, 63, 61
1, 68873, Note_on_c, 5, 57, 62
1, 68875, Lyric_t, "me "
1, 68875, Note_on_c, 3, 79, 78
1, 68878, Note_on_c, 5, 53, 63
1, 68879, Note_on_c, 15, 62, 0
1, 68879, Note_on_c, 7, 51, 72
1, 68879, Note_on_c, 9, 42, 63
1, 68881, Note_on_c, 4, 60, 81
1, 68881, Note_on_c, 15, 60, 1
1, 68883, Note_on_c, 2, 65, 63
1, 68883, Note_on_c, 9, 82, 45
1, 68884, Note_on_c, 5, 63, 63
1, 68887, Note_on_c, 2, 53, 62
1, 68888, Note_on_c, 5, 65, 61
1, 68892, Note_on_c, 9, 42, 0
1, 68896, Note_on_c, 9, 82, 0
1, 68950, Note_on_c, 4, 60, 0
1, 68950, Note_on_c, 3, 79, 0
1, 68999, Note_on_c, 9, 82, 34
1, 69001, Note_on_c, 15, 60, 0
1, 69003, Note_on_c, 4, 62, 82
1, 69003, Note_on_c, 15, 62, 1
1, 69007, Lyric_t, "tight. "
1, 69007, Lyric_t, "\015"
1, 69007, Note_on_c, 3, 77, 78
1, 69012, Note_on_c, 9, 82, 0
1, 69050, Note_on_c, 4, 62, 0
1, 69052, Note_on_c, 15, 62, 0
1, 69054, Note_on_c, 4, 60, 94
1, 69054, Note_on_c, 15, 60, 1
1, 69095, Note_on_c, 1, 33, 0
1, 69105, Note_on_c, 5, 65, 0
1, 69105, Note_on_c, 2, 53, 0
1, 69105, Note_on_c, 5, 63, 0
1, 69105, Note_on_c, 2, 65, 0
1, 69105, Note_on_c, 7, 51, 0
1, 69105, Note_on_c, 5, 53, 0
1, 69105, Note_on_c, 5, 57, 0
1, 69105, Note_on_c, 2, 63, 0
1, 69105, Note_on_c, 2, 57, 0
1, 69105, Note_on_c, 6, 60, 0
1, 69105, Note_on_c, 0, 63, 0
1, 69105, Note_on_c, 7, 60, 0
1, 69105, Note_on_c, 0, 60, 0
1, 69105, Note_on_c, 0, 65, 0
1, 69105, Note_on_c, 6, 51, 0
1, 69105, Note_on_c, 7, 57, 0
1, 69105, Note_on_c, 13, 69, 0
1, 69105, Note_on_c, 13, 63, 0
1, 69105, Note_on_c, 13, 60, 0
1, 69105, Note_on_c, 0, 45, 0
1, 69105, Note_on_c, 6, 48, 0
1, 69105, Note_on_c, 13, 57, 0
1, 69105, Note_on_c, 13, 79, 0
1, 69110, Note_on_c, 4, 60, 0
1, 69112, Note_on_c, 2, 65, 84
1, 69113, Note_on_c, 2, 62, 85
1, 69114, Note_on_c, 2, 53, 85
1, 69116, Note_on_c, 9, 82, 65
1, 69116, Note_on_c, 13, 58, 77
1, 69117, Note_on_c, 5, 65, 86
1, 69118, Note_on_c, 6, 46, 84
1, 69119, Note_on_c, 0, 46, 87
1, 69119, Note_on_c, 0, 58, 86
1, 69119, Note_on_c, 0, 62, 86
1, 69119, Note_on_c, 1, 34, 102
1, 69120, Note_on_c, 15, 60, 0
1, 69120, Note_on_c, 0, 65, 88
1, 69120, Note_on_c, 9, 36, 115
1, 69121, Note_on_c, 5, 53, 86
1, 69122, Note_on_c, 2, 58, 84
1, 69122, Note_on_c, 4, 58, 94
1, 69122, Note_on_c, 15, 58, 1
1, 69123, Note_on_c, 5, 62, 84
1, 69123, Note_on_c, 13, 70, 74
1, 69123, Note_on_c, 13, 77, 76
1, 69124, Note_on_c, 5, 58, 86
1, 69124, Note_on_c, 9, 42, 98
1, 69124, Note_on_c, 13, 65, 75
1, 69126, Note_on_c, 7, 50, 86
1, 69128, Note_on_c, 13, 62, 73
1, 69129, Note_on_c, 9, 82, 0
1, 69133, Note_on_c, 9, 36, 0
1, 69137, Note_on_c, 9, 42, 0
1, 69237, Note_on_c, 9, 82, 49
1, 69250, Note_on_c, 9, 82, 0
1, 69345, Note_on_c, 3, 77, 0
1, 69357, Note_on_c, 6, 50, 76
1, 69362, Note_on_c, 7, 53, 74
1, 69363, Note_on_c, 9, 82, 33
1, 69365, Note_on_c, 3, 79, 82
1, 69368, Note_on_c, 9, 42, 66
1, 69376, Note_on_c, 9, 82, 0
1, 69381, Note_on_c, 9, 42, 0
1, 69465, Note_on_c, 3, 79, 0
1, 69473, Note_on_c, 9, 82, 47
1, 69486, Note_on_c, 9, 82, 0
1, 69500, Note_on_c, 4, 58, 0
1, 69575, Note_on_c, 1, 34, 0
1, 69585, Note_on_c, 5, 58, 0
1, 69585, Note_on_c, 5, 62, 0
1, 69585, Note_on_c, 2, 58, 0
1, 69585, Note_on_c, 5, 53, 0
1, 69585, Note_on_c, 0, 65, 0
1, 69585, Note_on_c, 0, 62, 0
1, 69585, Note_on_c, 0, 58, 0
1, 69585, Note_on_c, 5, 65, 0
1, 69585, Note_on_c, 2, 53, 0
1, 69585, Note_on_c, 2, 62, 0
1, 69585, Note_on_c, 2, 65, 0
1, 69593, Note_on_c, 2, 62, 81
1, 69593, Note_on_c, 7, 58, 82
1, 69596, Note_on_c, 5, 53, 78
1, 69597, Note_on_c, 0, 58, 83
1, 69597, Note_on_c, 2, 53, 82
1, 69597, Note_on_c, 9, 82, 64
1, 69598, Note_on_c, 2, 65, 79
1, 69598, Note_on_c, 5, 62, 78
1, 69600, Note_on_c, 9, 40, 115
1, 69602, Note_on_c, 0, 62, 82
1, 69602, Note_on_c, 0, 65, 82
1, 69602, Note_on_c, 2, 58, 78
1, 69602, Note_on_c, 5, 58, 82
1, 69602, Note_on_c, 5, 65, 81
1, 69603, Note_on_c, 9, 54, 73
1, 69607, Note_on_c, 6, 53, 79
1, 69608, Note_on_c, 9, 42, 101
1, 69610, Note_on_c, 9, 82, 0
1, 69613, Note_on_c, 9, 40, 0
1, 69616, Note_on_c, 9, 54, 0
1, 69621, Note_on_c, 9, 42, 0
1, 69715, Note_on_c, 7, 62, 67
1, 69718, Note_on_c, 9, 82, 50
1, 69727, Note_on_c, 1, 31, 91
1, 69731, Note_on_c, 9, 82, 0
1, 69815, Note_on_c, 1, 31, 0
1, 69825, Note_on_c, 5, 65, 0
1, 69825, Note_on_c, 5, 58, 0
1, 69825, Note_on_c, 2, 58, 0
1, 69825, Note_on_c, 5, 62, 0
1, 69825, Note_on_c, 2, 65, 0
1, 69825, Note_on_c, 2, 53, 0
1, 69825, Note_on_c, 5, 53, 0
1, 69825, Note_on_c, 7, 58, 0
1, 69825, Note_on_c, 2, 62, 0
1, 69832, Note_on_c, 2, 58, 63
1, 69834, Note_on_c, 2, 62, 62
1, 69837, Note_on_c, 5, 53, 60
1, 69837, Note_on_c, 9, 42, 63
1, 69838, Note_on_c, 2, 53, 63
1, 69838, Note_on_c, 2, 65, 62
1, 69838, Note_on_c, 9, 82, 32
1, 69840, Note_on_c, 5, 58, 62
1, 69844, Note_on_c, 7, 58, 72
1, 69845, Note_on_c, 5, 62, 63
1, 69847, Note_on_c, 1, 34, 96
1, 69847, Note_on_c, 5, 65, 61
1, 69850, Note_on_c, 9, 42, 0
1, 69851, Note_on_c, 9, 82, 0
1, 69935, Note_on_c, 1, 34, 0
1, 69945, Note_on_c, 5, 65, 0
1, 69945, Note_on_c, 5, 62, 0
1, 69945, Note_on_c, 5, 58, 0
1, 69945, Note_on_c, 2, 65, 0
1, 69945, Note_on_c, 2, 53, 0
1, 69945, Note_on_c, 5, 53, 0
1, 69945, Note_on_c, 2, 62, 0
1, 69945, Note_on_c, 2, 58, 0
1, 69945, Note_on_c, 7, 53, 0
1, 69952, Note_on_c, 2, 58, 62
1, 69958, Note_on_c, 2, 62, 61
1, 69958, Note_on_c, 5, 53, 62
1, 69959, Note_on_c, 2, 53, 65
1, 69960, Note_on_c, 9, 36, 90
1, 69962, Note_on_c, 5, 65, 62
1, 69962, Note_on_c, 7, 53, 76
1, 69963, Note_on_c, 1, 34, 98
1, 69963, Note_on_c, 9, 82, 48
1, 69965, Note_on_c, 2, 65, 65
1, 69965, Note_on_c, 5, 62, 64
1, 69966, Note_on_c, 5, 58, 61
1, 69973, Note_on_c, 9, 36, 0
1, 69976, Note_on_c, 9, 82, 0
1, 70055, Note_on_c, 1, 34, 0
1, 70065, Note_on_c, 5, 58, 0
1, 70065, Note_on_c, 5, 62, 0
1, 70065, Note_on_c, 2, 65, 0
1, 70065, Note_on_c, 7, 53, 0
1, 70065, Note_on_c, 5, 65, 0
1, 70065, Note_on_c, 2, 53, 0
1, 70065, Note_on_c, 5, 53, 0
1, 70065, Note_on_c, 2, 62, 0
1, 70065, Note_on_c, 2, 58, 0
1, 70065, Note_on_c, 7, 58, 0
1, 70065, Note_on_c, 7, 62, 0
1, 70065, Note_on_c, 6, 53, 0
1, 70065, Note_on_c, 0, 65, 0
1, 70065, Note_on_c, 0, 62, 0
1, 70065, Note_on_c, 0, 58, 0
1, 70065, Note_on_c, 6, 50, 0
1, 70065, Note_on_c, 13, 62, 0
1, 70065, Note_on_c, 7, 50, 0
1, 70065, Note_on_c, 13, 65, 0
1, 70065, Note_on_c, 13, 77, 0
1, 70065, Note_on_c, 13, 70, 0
1, 70065, Note_on_c, 0, 46, 0
1, 70065, Note_on_c, 6, 46, 0
1, 70065, Note_on_c, 13, 58, 0
1, 70072, Note_on_c, 2, 65, 79
1, 70072, Note_on_c, 5, 58, 81
1, 70072, Note_on_c, 9, 42, 98
1, 70076, Note_on_c, 5, 55, 81
1, 70076, Note_on_c, 5, 48, 79
1, 70076, Note_on_c, 7, 60, 80
1, 70077, Note_on_c, 0, 58, 86
1, 70077, Note_on_c, 2, 58, 82
1, 70077, Note_on_c, 5, 65, 79
1, 70077, Note_on_c, 13, 62, 77
1, 70078, Note_on_c, 13, 70, 73
1, 70078, Note_on_c, 13, 77, 74
1, 70079, Note_on_c, 1, 36, 99
1, 70080, Note_on_c, 6, 60, 80
1, 70080, Note_on_c, 9, 36, 115
1, 70081, Note_on_c, 0, 62, 85
1, 70081, Note_on_c, 2, 48, 82
1, 70081, Note_on_c, 2, 55, 81
1, 70082, Note_on_c, 0, 48, 86
1, 70082, Note_on_c, 0, 65, 86
1, 70082, Note_on_c, 5, 62, 82
1, 70082, Note_on_c, 13, 65, 74
1, 70083, Note_on_c, 13, 48, 74
1, 70084, Note_on_c, 9, 82, 65
1, 70085, Note_on_c, 9, 42, 0
1, 70087, Note_on_c, 2, 62, 81
1, 70093, Note_on_c, 9, 36, 0
1, 70097, Note_on_c, 9, 82, 0
1, 70205, Note_on_c, 9, 82, 49
1, 70218, Note_on_c, 9, 82, 0
1, 70295, Note_on_c, 1, 36, 0
1, 70305, Note_on_c, 2, 62, 0
1, 70305, Note_on_c, 5, 62, 0
1, 70305, Note_on_c, 2, 55, 0
1, 70305, Note_on_c, 2, 48, 0
1, 70305, Note_on_c, 5, 65, 0
1, 70305, Note_on_c, 2, 58, 0
1, 70305, Note_on_c, 5, 48, 0
1, 70305, Note_on_c, 5, 55, 0
1, 70305, Note_on_c, 5, 58, 0
1, 70305, Note_on_c, 2, 65, 0
1, 70313, Note_on_c, 1, 36, 98
1, 70315, Note_on_c, 2, 65, 64
1, 70315, Note_on_c, 2, 48, 62
1, 70317, Note_on_c, 5, 62, 63
1, 70317, Note_on_c, 7, 58, 68
1, 70320, Note_on_c, 9, 36, 115
1, 70321, Note_on_c, 2, 62, 60
1, 70321, Note_on_c, 9, 82, 30
1, 70322, Note_on_c, 2, 58, 64
1, 70322, Note_on_c, 2, 55, 64
1, 70322, Note_on_c, 5, 58, 64
1, 70323, Note_on_c, 5, 55, 60
1, 70323, Note_on_c, 9, 42, 66
1, 70327, Note_on_c, 5, 48, 61
1, 70327, Note_on_c, 5, 65, 60
1, 70333, Note_on_c, 9, 36, 0
1, 70334, Note_on_c, 9, 82, 0
1, 70336, Note_on_c, 9, 42, 0
1, 70437, Note_on_c, 9, 82, 49
1, 70450, Note_on_c, 9, 82, 0
1, 70535, Note_on_c, 1, 36, 0
1, 70545, Note_on_c, 5, 65, 0
1, 70545, Note_on_c, 5, 48, 0
1, 70545, Note_on_c, 5, 55, 0
1, 70545, Note_on_c, 5, 58, 0
1, 70545, Note_on_c, 2, 55, 0
1, 70545, Note_on_c, 2, 58, 0
1, 70545, Note_on_c, 2, 62, 0
1, 70545, Note_on_c, 5, 62, 0
1, 70545, Note_on_c, 2, 48, 0
1, 70545, Note_on_c, 2, 65, 0
1, 70545, Note_on_c, 13, 48, 0
1, 70545, Note_on_c, 13, 65, 0
1, 70545, Note_on_c, 0, 62, 0
1, 70545, Note_on_c, 13, 77, 0
1, 70545, Note_on_c, 13, 70, 0
1, 70545, Note_on_c, 13, 62, 0
1, 70545, Note_on_c, 0, 58, 0
1, 70545, Note_on_c, 7, 60, 0
1, 70552, Note_on_c, 2, 55, 77
1, 70552, Note_on_c, 5, 65, 79
1, 70552, Note_on_c, 13, 48, 73
1, 70554, Note_on_c, 9, 82, 64
1, 70555, Note_on_c, 9, 42, 99
1, 70555, Note_on_c, 9, 54, 75
1, 70556, Note_on_c, 5, 58, 80
1, 70557, Note_on_c, 15, 58, 0
1, 70557, Note_on_c, 0, 62, 81
1, 70557, Lyric_t, "Hold "
1, 70557, Note_on_c, 3, 81, 85
1, 70557, Note_on_c, 5, 55, 81
1, 70557, Note_on_c, 13, 64, 77
1, 70558, Note_on_c, 1, 36, 102
1, 70558, Note_on_c, 13, 67, 74
1, 70559, Note_on_c, 4, 62, 91
1, 70559, Note_on_c, 15, 62, 1
1, 70560, Note_on_c, 2, 62, 77
1, 70560, Note_on_c, 9, 40, 115
1, 70561, Note_on_c, 0, 58, 80
1, 70561, Note_on_c, 2, 48, 77
1, 70562, Note_on_c, 6, 48, 81
1, 70563, Note_on_c, 2, 58, 79
1, 70563, Note_on_c, 13, 79, 73
1, 70563, Note_on_c, 13, 60, 73
1, 70564, Note_on_c, 7, 60, 79
1, 70567, Note_on_c, 9, 82, 0
1, 70567, Note_on_c, 2, 65, 80
1, 70567, Note_on_c, 5, 48, 80
1, 70567, Note_on_c, 5, 62, 78
1, 70568, Note_on_c, 9, 54, 0
1, 70568, Note_on_c, 9, 42, 0
1, 70573, Note_on_c, 9, 40, 0
1, 70673, Note_on_c, 9, 82, 54
1, 70686, Note_on_c, 9, 82, 0
1, 70740, Note_on_c, 4, 62, 0
1, 70745, Note_on_c, 3, 81, 0
1, 70785, Note_on_c, 5, 62, 0
1, 70785, Note_on_c, 5, 48, 0
1, 70785, Note_on_c, 2, 65, 0
1, 70785, Note_on_c, 2, 58, 0
1, 70785, Note_on_c, 2, 48, 0
1, 70785, Note_on_c, 2, 62, 0
1, 70785, Note_on_c, 5, 55, 0
1, 70785, Note_on_c, 5, 58, 0
1, 70785, Note_on_c, 5, 65, 0
1, 70785, Note_on_c, 2, 55, 0
1, 70785, Pitch_bend_c, 3, 4971
1, 70792, Lyric_t, "on "
1, 70792, Note_on_c, 2, 55, 64
1, 70792, Note_on_c, 2, 62, 62
1, 70792, Note_on_c, 3, 84, 77
1, 70792, Note_on_c, 5, 65, 61
1, 70794, Note_on_c, 7, 53, 68
1, 70795, Note_on_c, 15, 62, 0
1, 70795, Note_on_c, 5, 62, 62
1, 70795, Note_on_c, 9, 82, 41
1, 70797, Note_on_c, 2, 65, 62
1, 70797, Note_on_c, 4, 65, 83
1, 70797, Note_on_c, 5, 48, 65
1, 70797, Note_on_c, 15, 65, 1
1, 70798, Note_on_c, 5, 55, 62
1, 70798, Note_on_c, 9, 42, 64
1, 70800, Note_on_c, 2, 48, 65
1, 70804, Note_on_c, 5, 58, 61
1, 70807, Note_on_c, 2, 58, 65
1, 70808, Note_on_c, 9, 82, 0
1, 70811, Note_on_c, 9, 42, 0
1, 70820, Pitch_bend_c, 3, 5241
1, 70830, Pitch_bend_c, 3, 5777
1, 70840, Pitch_bend_c, 3, 6314
1, 70850, Pitch_bend_c, 3, 6851
1, 70860, Pitch_bend_c, 3, 7387
1, 70870, Pitch_bend_c, 3, 7924
1, 70875, Pitch_bend_c, 3, 8192
1, 70920, Note_on_c, 9, 82, 34
1, 70933, Note_on_c, 9, 82, 0
1, 71015, Note_on_c, 1, 36, 0
1, 71025, Note_on_c, 2, 58, 0
1, 71025, Note_on_c, 5, 58, 0
1, 71025, Note_on_c, 2, 48, 0
1, 71025, Note_on_c, 5, 55, 0
1, 71025, Note_on_c, 5, 48, 0
1, 71025, Note_on_c, 2, 65, 0
1, 71025, Note_on_c, 5, 62, 0
1, 71025, Note_on_c, 7, 53, 0
1, 71025, Note_on_c, 5, 65, 0
1, 71025, Note_on_c, 2, 62, 0
1, 71025, Note_on_c, 2, 55, 0
1, 71025, Note_on_c, 7, 60, 0
1, 71025, Note_on_c, 13, 60, 0
1, 71025, Note_on_c, 13, 79, 0
1, 71025, Note_on_c, 6, 48, 0
1, 71025, Note_on_c, 0, 58, 0
1, 71025, Note_on_c, 13, 67, 0
1, 71025, Note_on_c, 13, 64, 0
1, 71025, Note_on_c, 0, 62, 0
1, 71025, Note_on_c, 13, 48, 0
1, 71025, Note_on_c, 7, 58, 0
1, 71025, Note_on_c, 0, 65, 0
1, 71025, Note_on_c, 0, 48, 0
1, 71025, Note_on_c, 6, 60, 0
1, 71032, Note_on_c, 2, 60, 85
1, 71033, Note_on_c, 2, 57, 82
1, 71035, Note_on_c, 5, 57, 83
1, 71036, Note_on_c, 9, 82, 65
1, 71037, Note_on_c, 2, 53, 83
1, 71037, Note_on_c, 13, 60, 75
1, 71038, Note_on_c, 2, 65, 81
1, 71038, Note_on_c, 6, 41, 80
1, 71038, Note_on_c, 9, 42, 98
1, 71039, Note_on_c, 0, 41, 89
1, 71039, Note_on_c, 5, 53, 84
1, 71039, Note_on_c, 13, 65, 76
1, 71039, Note_on_c, 13, 69, 73
1, 71040, Note_on_c, 9, 36, 115
1, 71040, Note_on_c, 13, 53, 76
1, 71041, Note_on_c, 0, 57, 85
1, 71042, Note_on_c, 0, 65, 89
1, 71042, Note_on_c, 7, 53, 82
1, 71043, Note_on_c, 0, 60, 88
1, 71043, Note_on_c, 13, 81, 76
1, 71044, Note_on_c, 1, 41, 102
1, 71044, Note_on_c, 5, 65, 81
1, 71045, Note_on_c, 5, 60, 81
1, 71049, Note_on_c, 9, 82, 0
1, 71051, Note_on_c, 9, 42, 0
1, 71053, Note_on_c, 9, 36, 0
1, 71167, Note_on_c, 9, 82, 47
1, 71180, Note_on_c, 9, 82, 0
1, 71260, Note_on_c, 4, 65, 0
1, 71265, Note_on_c, 5, 60, 0
1, 71265, Note_on_c, 5, 65, 0
1, 71265, Note_on_c, 5, 53, 0
1, 71265, Note_on_c, 2, 65, 0
1, 71265, Note_on_c, 2, 53, 0
1, 71265, Note_on_c, 5, 57, 0
1, 71265, Note_on_c, 2, 57, 0
1, 71265, Note_on_c, 2, 60, 0
1, 71265, Note_on_c, 3, 84, 0
1, 71273, Note_on_c, 5, 57, 59
1, 71276, Note_on_c, 15, 65, 0
1, 71276, Note_on_c, 5, 65, 62
1, 71278, Note_on_c, 4, 67, 80
1, 71278, Note_on_c, 15, 67, 1
1, 71280, Note_on_c, 2, 57, 59
1, 71282, Note_on_c, 2, 53, 59
1, 71282, Note_on_c, 6, 48, 72
1, 71282, Note_on_c, 9, 82, 34
1, 71284, Note_on_c, 2, 65, 61
1, 71284, Note_on_c, 9, 42, 65
1, 71285, Note_on_c, 5, 53, 60
1, 71286, Note_on_c, 2, 60, 62
1, 71286, Note_on_c, 3, 86, 79
1, 71288, Note_on_c, 5, 60, 63
1, 71288, Note_on_c, 7, 48, 70
1, 71295, Note_on_c, 9, 82, 0
1, 71297, Note_on_c, 9, 42, 0
1, 71380, Note_on_c, 4, 67, 0
1, 71385, Note_on_c, 3, 86, 0
1, 71395, Note_on_c, 9, 82, 47
1, 71408, Note_on_c, 9, 82, 0
1, 71495, Note_on_c, 1, 41, 0
1, 71505, Note_on_c, 5, 60, 0
1, 71505, Note_on_c, 2, 60, 0
1, 71505, Note_on_c, 5, 53, 0
1, 71505, Note_on_c, 2, 65, 0
1, 71505, Note_on_c, 2, 53, 0
1, 71505, Note_on_c, 2, 57, 0
1, 71505, Note_on_c, 5, 65, 0
1, 71505, Note_on_c, 5, 57, 0
1, 71505, Note_on_c, 0, 60, 0
1, 71505, Note_on_c, 0, 65, 0
1, 71505, Note_on_c, 0, 57, 0
1, 71512, Note_on_c, 2, 57, 82
1, 71512, Note_on_c, 9, 42, 100
1, 71513, Note_on_c, 2, 60, 81
1, 71515, Note_on_c, 5, 60, 80
1, 71516, Note_on_c, 9, 54, 75
1, 71517, Note_on_c, 0, 60, 83
1, 71518, Note_on_c, 6, 57, 83
1, 71518, Note_on_c, 7, 57, 82
1, 71520, Note_on_c, 2, 53, 81
1, 71520, Note_on_c, 9, 40, 115
1, 71521, Note_on_c, 0, 57, 83
1, 71521, Note_on_c, 5, 57, 83
1, 71522, Note_on_c, 0, 65, 84
1, 71522, Note_on_c, 5, 65, 82
1, 71523, Note_on_c, 2, 65, 83
1, 71523, Note_on_c, 5, 53, 79
1, 71525, Note_on_c, 9, 42, 0
1, 71527, Note_on_c, 9, 82, 62
1, 71529, Note_on_c, 9, 54, 0
1, 71533, Note_on_c, 9, 40, 0
1, 71540, Note_on_c, 9, 82, 0
1, 71632, Note_on_c, 1, 41, 93
1, 71633, Note_on_c, 9, 82, 46
1, 71640, Note_on_c, 9, 36, 90
1, 71646, Note_on_c, 9, 82, 0
1, 71653, Note_on_c, 9, 36, 0
1, 71670, Note_on_c, 1, 41, 0
1, 71745, Note_on_c, 5, 53, 0
1, 71745, Note_on_c, 2, 65, 0
1, 71745, Note_on_c, 5, 65, 0
1, 71745, Note_on_c, 5, 57, 0
1, 71745, Note_on_c, 2, 53, 0
1, 71745, Note_on_c, 5, 60, 0
1, 71745, Note_on_c, 2, 60, 0
1, 71745, Note_on_c, 2, 57, 0
1, 71752, Note_on_c, 5, 60, 63
1, 71752, Note_on_c, 9, 82, 31
1, 71754, Note_on_c, 9, 42, 64
1, 71756, Note_on_c, 2, 53, 66
1, 71758, Note_on_c, 2, 57, 64
1, 71759, Note_on_c, 1, 33, 98
1, 71760, Note_on_c, 5, 53, 63
1, 71761, Note_on_c, 5, 65, 64
1, 71763, Note_on_c, 2, 60, 65
1, 71763, Note_on_c, 5, 57, 64
1, 71764, Note_on_c, 7, 60, 72
1, 71765, Note_on_c, 9, 82, 0
1, 71765, Note_on_c, 2, 65, 63
1, 71767, Note_on_c, 9, 42, 0
1, 71855, Note_on_c, 1, 33, 0
1, 71875, Lyric_t, "I "
1, 71875, Note_on_c, 3, 81, 84
1, 71877, Note_on_c, 1, 33, 100
1, 71879, Note_on_c, 15, 67, 0
1, 71880, Note_on_c, 9, 36, 90
1, 71880, Note_on_c, 9, 82, 49
1, 71881, Note_on_c, 4, 62, 88
1, 71881, Note_on_c, 15, 62, 1
1, 71893, Note_on_c, 9, 82, 0
1, 71893, Note_on_c, 9, 36, 0
1, 71950, Note_on_c, 4, 62, 0
1, 71950, Note_on_c, 3, 81, 0
1, 71975, Note_on_c, 1, 33, 0
1, 71985, Note_on_c, 2, 65, 0
1, 71985, Note_on_c, 7, 60, 0
1, 71985, Note_on_c, 5, 57, 0
1, 71985, Note_on_c, 2, 60, 0
1, 71985, Note_on_c, 5, 65, 0
1, 71985, Note_on_c, 5, 53, 0
1, 71985, Note_on_c, 2, 57, 0
1, 71985, Note_on_c, 2, 53, 0
1, 71985, Note_on_c, 5, 60, 0
1, 71985, Note_on_c, 0, 65, 0
1, 71985, Note_on_c, 0, 57, 0
1, 71985, Note_on_c, 7, 57, 0
1, 71985, Note_on_c, 6, 57, 0
1, 71985, Note_on_c, 0, 60, 0
1, 71985, Note_on_c, 7, 48, 0
1, 71985, Note_on_c, 6, 48, 0
1, 71985, Note_on_c, 13, 81, 0
1, 71985, Note_on_c, 7, 53, 0
1, 71985, Note_on_c, 13, 53, 0
1, 71985, Note_on_c, 13, 69, 0
1, 71985, Note_on_c, 13, 65, 0
1, 71985, Note_on_c, 0, 41, 0
1, 71985, Note_on_c, 6, 41, 0
1, 71985, Note_on_c, 13, 60, 0
1, 71994, Note_on_c, 9, 42, 101
1, 71995, Note_on_c, 6, 48, 77
1, 71997, Note_on_c, 0, 60, 81
1, 71997, Note_on_c, 9, 82, 62
1, 71997, Note_on_c, 13, 79, 73
1, 71998, Note_on_c, 2, 53, 79
1, 71998, Note_on_c, 7, 51, 80
1, 71999, Note_on_c, 13, 63, 77
1, 72000, Note_on_c, 0, 45, 81
1, 72000, Note_on_c, 5, 53, 76
1, 72000, Note_on_c, 9, 36, 115
1, 72000, Note_on_c, 13, 69, 75
1, 72000, Note_on_c, 13, 57, 73
1, 72003, Note_on_c, 15, 62, 0
1, 72003, Note_on_c, 0, 65, 80
1, 72003, Note_on_c, 0, 63, 81
1, 72003, Lyric_t, "pro"
1, 72003, Note_on_c, 1, 33, 100
1, 72003, Note_on_c, 3, 84, 88
1, 72003, Note_on_c, 13, 60, 74
1, 72005, Note_on_c, 4, 65, 91
1, 72005, Note_on_c, 15, 65, 1
1, 72007, Note_on_c, 9, 42, 0
1, 72010, Note_on_c, 9, 82, 0
1, 72013, Note_on_c, 9, 36, 0
1, 72013, Note_on_c, 2, 57, 78
1, 72017, Note_on_c, 5, 57, 76
1, 72034, Note_on_c, 2, 63, 78
1, 72037, Note_on_c, 5, 65, 77
1, 72038, Note_on_c, 5, 63, 76
1, 72040, Note_on_c, 2, 65, 79
1, 72100, Note_on_c, 4, 65, 0
1, 72105, Note_on_c, 3, 84, 0
1, 72110, Note_on_c, 15, 65, 0
1, 72112, Note_on_c, 4, 62, 75
1, 72112, Note_on_c, 15, 62, 1
1, 72116, Note_on_c, 9, 82, 46
1, 72123, Lyric_t, "mise "
1, 72123, Note_on_c, 3, 81, 73
1, 72129, Note_on_c, 9, 82, 0
1, 72190, Note_on_c, 3, 81, 0
1, 72190, Note_on_c, 4, 62, 0
1, 72225, Note_on_c, 2, 65, 0
1, 72225, Note_on_c, 5, 63, 0
1, 72225, Note_on_c, 5, 65, 0
1, 72225, Note_on_c, 2, 63, 0
1, 72225, Note_on_c, 5, 57, 0
1, 72225, Note_on_c, 2, 57, 0
1, 72225, Note_on_c, 5, 53, 0
1, 72225, Note_on_c, 2, 53, 0
1, 72232, Note_on_c, 2, 57, 65
1, 72232, Note_on_c, 9, 82, 32
1, 72233, Note_on_c, 5, 65, 66
1, 72234, Note_on_c, 7, 48, 71
1, 72237, Note_on_c, 4, 62, 81
1, 72237, Note_on_c, 9, 42, 64
1, 72238, Note_on_c, 6, 51, 73
1, 72239, Note_on_c, 0, 51, 62
1, 72241, Note_on_c, 2, 65, 63
1, 72242, Note_on_c, 5, 63, 65
1, 72243, Lyric_t, "it'"
1, 72243, Note_on_c, 2, 53, 65
1, 72243, Note_on_c, 3, 81, 80
1, 72244, Note_on_c, 2, 63, 66
1, 72244, Note_on_c, 5, 53, 62
1, 72245, Note_on_c, 9, 82, 0
1, 72245, Note_on_c, 5, 57, 66
1, 72250, Note_on_c, 9, 42, 0
1, 72340, Note_on_c, 4, 62, 0
1, 72345, Note_on_c, 3, 81, 0
1, 72352, Note_on_c, 9, 82, 49
1, 72362, Note_on_c, 4, 62, 81
1, 72363, Lyric_t, "ll "
1, 72363, Note_on_c, 3, 81, 78
1, 72365, Note_on_c, 9, 82, 0
1, 72430, Note_on_c, 3, 81, 0
1, 72430, Note_on_c, 4, 62, 0
1, 72465, Note_on_c, 5, 57, 0
1, 72465, Note_on_c, 5, 53, 0
1, 72465, Note_on_c, 2, 63, 0
1, 72465, Note_on_c, 2, 53, 0
1, 72465, Note_on_c, 5, 63, 0
1, 72465, Note_on_c, 2, 65, 0
1, 72465, Note_on_c, 5, 65, 0
1, 72465, Note_on_c, 2, 57, 0
1, 72465, Note_on_c, 0, 63, 0
1, 72465, Note_on_c, 0, 65, 0
1, 72465, Note_on_c, 0, 60, 0
1, 72473, Note_on_c, 5, 57, 82
1, 72474, Note_on_c, 9, 54, 74
1, 72476, Note_on_c, 2, 63, 84
1, 72476, Note_on_c, 7, 57, 81
1, 72477, Note_on_c, 2, 65, 81
1, 72479, Note_on_c, 4, 62, 97
1, 72479, Note_on_c, 9, 42, 100
1, 72480, Note_on_c, 0, 60, 89
1, 72480, Note_on_c, 2, 53, 81
1, 72480, Note_on_c, 9, 40, 115
1, 72481, Note_on_c, 0, 65, 86
1, 72482, Note_on_c, 5, 65, 84
1, 72483, Note_on_c, 0, 63, 88
1, 72483, Lyric_t, "be "
1, 72483, Note_on_c, 3, 81, 92
1, 72483, Note_on_c, 5, 53, 85
1, 72485, Note_on_c, 2, 57, 81
1, 72485, Note_on_c, 5, 63, 81
1, 72486, Note_on_c, 9, 82, 64
1, 72487, Note_on_c, 9, 54, 0
1, 72487, Note_on_c, 6, 60, 80
1, 72492, Note_on_c, 9, 42, 0
1, 72493, Note_on_c, 9, 40, 0
1, 72499, Note_on_c, 9, 82, 0
1, 72580, Note_on_c, 4, 62, 0
1, 72585, Note_on_c, 3, 81, 0
1, 72596, Note_on_c, 15, 62, 0
1, 72596, Note_on_c, 9, 82, 53
1, 72598, Note_on_c, 4, 60, 77
1, 72598, Note_on_c, 15, 60, 1
1, 72608, Lyric_t, "al"
1, 72608, Note_on_c, 3, 79, 74
1, 72609, Note_on_c, 9, 82, 0
1, 72705, Note_on_c, 3, 79, 0
1, 72705, Note_on_c, 5, 63, 0
1, 72705, Note_on_c, 2, 57, 0
1, 72705, Note_on_c, 5, 53, 0
1, 72705, Note_on_c, 5, 65, 0
1, 72705, Note_on_c, 2, 53, 0
1, 72705, Note_on_c, 2, 65, 0
1, 72705, Note_on_c, 2, 63, 0
1, 72705, Note_on_c, 5, 57, 0
1, 72714, Note_on_c, 9, 42, 65
1, 72716, Note_on_c, 2, 65, 63
1, 72716, Note_on_c, 5, 65, 64
1, 72718, Note_on_c, 2, 53, 64
1, 72719, Note_on_c, 3, 77, 61
1, 72719, Note_on_c, 5, 53, 60
1, 72720, Note_on_c, 2, 63, 63
1, 72721, Note_on_c, 5, 63, 60
1, 72722, Note_on_c, 9, 82, 42
1, 72725, Note_on_c, 7, 60, 69
1, 72726, Note_on_c, 2, 57, 61
1, 72727, Note_on_c, 9, 42, 0
1, 72728, Note_on_c, 5, 57, 64
1, 72735, Note_on_c, 9, 82, 0
1, 72790, Note_on_c, 3, 77, 0
1, 72820, Note_on_c, 4, 60, 0
1, 72839, Lyric_t, "right "
1, 72839, Lyric_t, "\015"
1, 72839, Note_on_c, 3, 79, 78
1, 72841, Note_on_c, 15, 60, 0
1, 72841, Note_on_c, 9, 82, 34
1, 72843, Note_on_c, 4, 62, 82
1, 72843, Note_on_c, 15, 62, 1
1, 72854, Note_on_c, 9, 82, 0
1, 72890, Note_on_c, 4, 62, 0
1, 72903, Note_on_c, 15, 62, 0
1, 72905, Note_on_c, 4, 60, 93
1, 72905, Note_on_c, 15, 60, 1
1, 72935, Note_on_c, 1, 33, 0
1, 72945, Note_on_c, 3, 79, 0
1, 72945, Note_on_c, 5, 57, 0
1, 72945, Note_on_c, 2, 57, 0
1, 72945, Note_on_c, 7, 60, 0
1, 72945, Note_on_c, 5, 63, 0
1, 72945, Note_on_c, 2, 63, 0
1, 72945, Note_on_c, 5, 53, 0
1, 72945, Note_on_c, 2, 53, 0
1, 72945, Note_on_c, 5, 65, 0
1, 72945, Note_on_c, 2, 65, 0
1, 72945, Note_on_c, 6, 60, 0
1, 72945, Note_on_c, 0, 63, 0
1, 72945, Note_on_c, 0, 65, 0
1, 72945, Note_on_c, 0, 60, 0
1, 72945, Note_on_c, 7, 57, 0
1, 72945, Note_on_c, 0, 51, 0
1, 72945, Note_on_c, 6, 51, 0
1, 72945, Note_on_c, 7, 48, 0
1, 72945, Note_on_c, 13, 60, 0
1, 72945, Note_on_c, 13, 57, 0
1, 72945, Note_on_c, 13, 69, 0
1, 72945, Note_on_c, 0, 45, 0
1, 72945, Note_on_c, 13, 63, 0
1, 72945, Note_on_c, 7, 51, 0
1, 72945, Note_on_c, 13, 79, 0
1, 72945, Note_on_c, 6, 48, 0
1, 72950, Note_on_c, 4, 60, 0
1, 72952, Note_on_c, 9, 82, 66
1, 72954, Note_on_c, 2, 58, 82
1, 72955, Note_on_c, 7, 53, 84
1, 72957, Note_on_c, 2, 62, 86
1, 72958, Note_on_c, 0, 58, 88
1, 72958, Note_on_c, 3, 77, 90
1, 72958, Note_on_c, 5, 53, 82
1, 72958, Note_on_c, 5, 65, 83
1, 72959, Note_on_c, 0, 62, 89
1, 72959, Note_on_c, 6, 46, 84
1, 72960, Note_on_c, 15, 60, 0
1, 72960, Note_on_c, 2, 53, 83
1, 72960, Note_on_c, 9, 36, 115
1, 72961, Note_on_c, 0, 65, 88
1, 72962, Note_on_c, 0, 46, 86
1, 72962, Note_on_c, 4, 58, 95
1, 72962, Note_on_c, 13, 70, 70
1, 72962, Note_on_c, 15, 58, 1
1, 72963, Note_on_c, 2, 65, 82
1, 72963, Note_on_c, 13, 65, 71
1, 72963, Note_on_c, 13, 58, 70
1, 72964, Note_on_c, 13, 62, 68
1, 72965, Note_on_c, 9, 82, 0
1, 72965, Note_on_c, 1, 34, 106
1, 72966, Note_on_c, 5, 58, 82
1, 72967, Note_on_c, 5, 62, 83
1, 72967, Note_on_c, 9, 42, 100
1, 72968, Note_on_c, 13, 77, 71
1, 72973, Note_on_c, 9, 36, 0
1, 72980, Note_on_c, 9, 42, 0
1, 73065, Note_on_c, 3, 77, 0
1, 73085, Note_on_c, 9, 82, 49
1, 73088, Note_on_c, 3, 74, 75
1, 73098, Note_on_c, 9, 82, 0
1, 73185, Note_on_c, 3, 74, 0
1, 73185, Note_on_c, 5, 62, 0
1, 73185, Note_on_c, 5, 58, 0
1, 73185, Note_on_c, 2, 65, 0
1, 73185, Note_on_c, 2, 53, 0
1, 73185, Note_on_c, 5, 65, 0
1, 73185, Note_on_c, 5, 53, 0
1, 73185, Note_on_c, 2, 62, 0
1, 73185, Note_on_c, 2, 58, 0
1, 73195, Note_on_c, 2, 58, 66
1, 73196, Note_on_c, 2, 65, 66
1, 73197, Note_on_c, 7, 58, 71
1, 73198, Note_on_c, 2, 62, 66
1, 73198, Note_on_c, 2, 53, 63
1, 73199, Note_on_c, 5, 62, 62
1, 73201, Note_on_c, 5, 53, 63
1, 73202, Note_on_c, 5, 65, 63
1, 73203, Note_on_c, 9, 82, 33
1, 73204, Note_on_c, 5, 58, 63
1, 73207, Note_on_c, 6, 50, 76
1, 73207, Note_on_c, 9, 42, 65
1, 73216, Note_on_c, 9, 82, 0
1, 73220, Note_on_c, 9, 42, 0
1, 73300, Note_on_c, 15, 58, 0
1, 73300, Note_on_c, 4, 58, 0
1, 73320, Note_on_c, 9, 82, 48
1, 73333, Note_on_c, 9, 82, 0
1, 73415, Note_on_c, 1, 34, 0
1, 73425, Note_on_c, 5, 58, 0
1, 73425, Note_on_c, 5, 65, 0
1, 73425, Note_on_c, 5, 53, 0
1, 73425, Note_on_c, 5, 62, 0
1, 73425, Note_on_c, 2, 53, 0
1, 73425, Note_on_c, 2, 62, 0
1, 73425, Note_on_c, 2, 65, 0
1, 73425, Note_on_c, 2, 58, 0
1, 73425, Note_on_c, 0, 65, 0
1, 73425, Note_on_c, 0, 62, 0
1, 73425, Note_on_c, 0, 58, 0
1, 73432, Note_on_c, 9, 54, 77
1, 73435, Note_on_c, 7, 62, 81
1, 73436, Note_on_c, 5, 65, 80
1, 73437, Note_on_c, 2, 53, 79
1, 73437, Note_on_c, 9, 42, 98
1, 73438, Note_on_c, 0, 58, 83
1, 73438, Note_on_c, 5, 58, 82
1, 73438, Note_on_c, 6, 53, 78
1, 73440, Note_on_c, 9, 40, 115
1, 73441, Note_on_c, 0, 65, 83
1, 73442, Note_on_c, 5, 62, 80
1, 73442, Note_on_c, 9, 82, 62
1, 73443, Note_on_c, 0, 62, 82
1, 73443, Note_on_c, 2, 65, 82
1, 73443, Note_on_c, 2, 62, 82
1, 73445, Note_on_c, 9, 54, 0
1, 73446, Note_on_c, 5, 53, 81
1, 73448, Note_on_c, 2, 58, 79
1, 73450, Note_on_c, 9, 42, 0
1, 73453, Note_on_c, 9, 40, 0
1, 73455, Note_on_c, 9, 82, 0
1, 73553, Note_on_c, 9, 82, 47
1, 73566, Note_on_c, 9, 82, 0
1, 73568, Note_on_c, 1, 34, 94
1, 73655, Note_on_c, 1, 34, 0
1, 73665, Note_on_c, 2, 58, 0
1, 73665, Note_on_c, 5, 53, 0
1, 73665, Note_on_c, 2, 62, 0
1, 73665, Note_on_c, 2, 65, 0
1, 73665, Note_on_c, 5, 62, 0
1, 73665, Note_on_c, 5, 58, 0
1, 73665, Note_on_c, 2, 53, 0
1, 73665, Note_on_c, 5, 65, 0
1, 73665, Note_on_c, 7, 58, 0
1, 73674, Note_on_c, 2, 53, 60
1, 73675, Note_on_c, 2, 62, 62
1, 73675, Note_on_c, 9, 82, 31
1, 73677, Note_on_c, 2, 65, 64
1, 73677, Note_on_c, 5, 58, 63
1, 73682, Note_on_c, 2, 58, 60
1, 73683, Note_on_c, 5, 65, 61
1, 73683, Note_on_c, 7, 58, 68
1, 73686, Note_on_c, 5, 62, 60
1, 73688, Note_on_c, 9, 82, 0
1, 73688, Note_on_c, 5, 53, 60
1, 73688, Note_on_c, 9, 42, 62
1, 73701, Note_on_c, 9, 42, 0
1, 73785, Note_on_c, 5, 53, 0
1, 73785, Note_on_c, 5, 62, 0
1, 73785, Note_on_c, 5, 65, 0
1, 73785, Note_on_c, 2, 58, 0
1, 73785, Note_on_c, 5, 58, 0
1, 73785, Note_on_c, 2, 65, 0
1, 73785, Note_on_c, 2, 62, 0
1, 73785, Note_on_c, 2, 53, 0
1, 73792, Note_on_c, 5, 58, 63
1, 73794, Note_on_c, 5, 53, 62
1, 73798, Note_on_c, 5, 62, 62
1, 73799, Note_on_c, 1, 34, 100
1, 73800, Note_on_c, 9, 36, 90
1, 73804, Note_on_c, 2, 62, 65
1, 73804, Note_on_c, 9, 82, 48
1, 73805, Note_on_c, 2, 58, 63
1, 73806, Note_on_c, 2, 53, 63
1, 73806, Note_on_c, 2, 65, 65
1, 73806, Note_on_c, 5, 65, 63
1, 73813, Note_on_c, 9, 36, 0
1, 73817, Note_on_c, 9, 82, 0
1, 73895, Note_on_c, 1, 34, 0
1, 73905, Note_on_c, 5, 65, 0
1, 73905, Note_on_c, 2, 65, 0
1, 73905, Note_on_c, 2, 53, 0
1, 73905, Note_on_c, 2, 58, 0
1, 73905, Note_on_c, 2, 62, 0
1, 73905, Note_on_c, 5, 62, 0
1, 73905, Note_on_c, 5, 53, 0
1, 73905, Note_on_c, 5, 58, 0
1, 73905, Note_on_c, 7, 58, 0
1, 73905, Note_on_c, 0, 62, 0
1, 73905, Note_on_c, 0, 65, 0
1, 73905, Note_on_c, 6, 53, 0
1, 73905, Note_on_c, 0, 58, 0
1, 73905, Note_on_c, 7, 62, 0
1, 73905, Note_on_c, 6, 50, 0
1, 73905, Note_on_c, 13, 77, 0
1, 73905, Note_on_c, 13, 62, 0
1, 73905, Note_on_c, 13, 58, 0
1, 73905, Note_on_c, 13, 65, 0
1, 73905, Note_on_c, 13, 70, 0
1, 73905, Note_on_c, 0, 46, 0
1, 73905, Note_on_c, 6, 46, 0
1, 73905, Note_on_c, 7, 53, 0
1, 73912, Note_on_c, 13, 62, 63
1, 73913, Note_on_c, 5, 55, 80
1, 73914, Note_on_c, 6, 57, 66
1, 73915, Note_on_c, 5, 48, 80
1, 73915, Note_on_c, 13, 74, 63
1, 73916, Note_on_c, 2, 48, 79
1, 73916, Note_on_c, 5, 60, 79
1, 73917, Note_on_c, 0, 58, 84
1, 73917, Note_on_c, 0, 65, 84
1, 73918, Note_on_c, 0, 48, 83
1, 73918, Note_on_c, 2, 60, 81
1, 73919, Note_on_c, 6, 53, 68
1, 73919, Note_on_c, 13, 65, 65
1, 73920, Note_on_c, 9, 36, 115
1, 73921, Note_on_c, 2, 55, 78
1, 73921, Note_on_c, 6, 60, 78
1, 73922, Note_on_c, 0, 62, 84
1, 73923, Note_on_c, 7, 60, 79
1, 73923, Note_on_c, 9, 42, 100
1, 73925, Note_on_c, 13, 48, 62
1, 73926, Note_on_c, 1, 36, 99
1, 73927, Note_on_c, 9, 82, 63
1, 73927, Note_on_c, 13, 58, 65
1, 73928, Note_on_c, 2, 58, 82
1, 73928, Note_on_c, 5, 58, 79
1, 73933, Note_on_c, 9, 36, 0
1, 73936, Note_on_c, 9, 42, 0
1, 73940, Note_on_c, 9, 82, 0
1, 74045, Note_on_c, 9, 82, 47
1, 74058, Note_on_c, 9, 82, 0
1, 74145, Note_on_c, 5, 58, 0
1, 74145, Note_on_c, 2, 58, 0
1, 74145, Note_on_c, 2, 55, 0
1, 74145, Note_on_c, 2, 60, 0
1, 74145, Note_on_c, 5, 60, 0
1, 74145, Note_on_c, 2, 48, 0
1, 74145, Note_on_c, 5, 48, 0
1, 74145, Note_on_c, 5, 55, 0
1, 74157, Note_on_c, 2, 55, 61
1, 74158, Note_on_c, 5, 60, 60
1, 74158, Note_on_c, 9, 82, 31
1, 74160, Note_on_c, 9, 36, 115
1, 74160, Note_on_c, 9, 42, 62
1, 74162, Note_on_c, 5, 48, 61
1, 74164, Note_on_c, 2, 48, 60
1, 74166, Note_on_c, 2, 60, 63
1, 74166, Note_on_c, 7, 58, 68
1, 74167, Note_on_c, 2, 58, 63
1, 74167, Note_on_c, 5, 58, 61
1, 74167, Note_on_c, 5, 55, 60
1, 74171, Note_on_c, 9, 82, 0
1, 74173, Note_on_c, 9, 42, 0
1, 74173, Note_on_c, 9, 36, 0
1, 74281, Note_on_c, 9, 82, 49
1, 74294, Note_on_c, 9, 82, 0
1, 74375, Note_on_c, 1, 36, 0
1, 74385, Note_on_c, 5, 55, 0
1, 74385, Note_on_c, 5, 58, 0
1, 74385, Note_on_c, 2, 58, 0
1, 74385, Note_on_c, 7, 58, 0
1, 74385, Note_on_c, 2, 60, 0
1, 74385, Note_on_c, 2, 48, 0
1, 74385, Note_on_c, 5, 48, 0
1, 74385, Note_on_c, 5, 60, 0
1, 74385, Note_on_c, 2, 55, 0
1, 74385, Note_on_c, 13, 58, 0
1, 74385, Note_on_c, 13, 48, 0
1, 74385, Note_on_c, 7, 60, 0
1, 74385, Note_on_c, 0, 62, 0
1, 74385, Note_on_c, 6, 60, 0
1, 74385, Note_on_c, 13, 65, 0
1, 74385, Note_on_c, 6, 53, 0
1, 74385, Note_on_c, 0, 48, 0
1, 74385, Note_on_c, 0, 65, 0
1, 74385, Note_on_c, 0, 58, 0
1, 74385, Note_on_c, 13, 74, 0
1, 74385, Note_on_c, 6, 57, 0
1, 74385, Note_on_c, 13, 62, 0
1, 74392, Note_on_c, 13, 76, 58
1, 74393, Note_on_c, 5, 64, 79
1, 74395, Note_on_c, 6, 52, 65
1, 74397, Note_on_c, 2, 61, 79
1, 74397, Note_on_c, 7, 61, 77
1, 74397, Note_on_c, 13, 64, 61
1, 74398, Note_on_c, 0, 57, 81
1, 74399, Note_on_c, 0, 64, 82
1, 74399, Note_on_c, 5, 61, 78
1, 74399, Note_on_c, 6, 57, 65
1, 74399, Note_on_c, 9, 42, 98
1, 74400, Note_on_c, 2, 64, 78
1, 74400, Note_on_c, 9, 40, 115
1, 74401, Note_on_c, 13, 57, 58
1, 74402, Note_on_c, 5, 55, 81
1, 74403, Note_on_c, 0, 49, 81
1, 74403, Note_on_c, 0, 61, 81
1, 74403, Note_on_c, 1, 37, 100
1, 74403, Note_on_c, 13, 67, 58
1, 74405, Note_on_c, 9, 82, 63
1, 74406, Note_on_c, 2, 55, 77
1, 74406, Note_on_c, 9, 54, 74
1, 74406, Note_on_c, 13, 49, 61
1, 74407, Note_on_c, 5, 52, 79
1, 74408, Note_on_c, 2, 52, 81
1, 74408, Note_on_c, 6, 61, 81
1, 74412, Note_on_c, 9, 42, 0
1, 74413, Note_on_c, 9, 40, 0
1, 74418, Note_on_c, 9, 82, 0
1, 74419, Note_on_c, 9, 54, 0
1, 74517, Note_on_c, 9, 82, 56
1, 74530, Note_on_c, 9, 82, 0
1, 74564, Lyric_t, "'Cause "
1, 74564, Note_on_c, 3, 79, 74
1, 74625, Note_on_c, 2, 52, 0
1, 74625, Note_on_c, 5, 52, 0
1, 74625, Note_on_c, 2, 55, 0
1, 74625, Note_on_c, 5, 55, 0
1, 74625, Note_on_c, 2, 64, 0
1, 74625, Note_on_c, 5, 61, 0
1, 74625, Note_on_c, 2, 61, 0
1, 74625, Note_on_c, 5, 64, 0
1, 74636, Note_on_c, 2, 55, 62
1, 74638, Note_on_c, 2, 61, 63
1, 74638, Note_on_c, 5, 61, 64
1, 74638, Note_on_c, 9, 42, 66
1, 74639, Note_on_c, 9, 82, 45
1, 74640, Note_on_c, 5, 52, 62
1, 74644, Note_on_c, 5, 55, 65
1, 74645, Note_on_c, 2, 64, 61
1, 74645, Note_on_c, 5, 64, 64
1, 74645, Note_on_c, 7, 52, 68
1, 74646, Note_on_c, 2, 52, 64
1, 74651, Note_on_c, 9, 42, 0
1, 74652, Note_on_c, 9, 82, 0
1, 74705, Note_on_c, 3, 79, 0
1, 74714, Lyric_t, "it's "
1, 74714, Note_on_c, 3, 81, 79
1, 74760, Note_on_c, 9, 82, 34
1, 74773, Note_on_c, 9, 82, 0
1, 74825, Note_on_c, 3, 81, 0
1, 74855, Note_on_c, 1, 37, 0
1, 74865, Note_on_c, 2, 52, 0
1, 74865, Note_on_c, 7, 52, 0
1, 74865, Note_on_c, 5, 64, 0
1, 74865, Note_on_c, 2, 64, 0
1, 74865, Note_on_c, 5, 55, 0
1, 74865, Note_on_c, 5, 52, 0
1, 74865, Note_on_c, 5, 61, 0
1, 74865, Note_on_c, 2, 61, 0
1, 74865, Note_on_c, 2, 55, 0
1, 74865, Note_on_c, 6, 61, 0
1, 74865, Note_on_c, 13, 49, 0
1, 74865, Note_on_c, 13, 67, 0
1, 74865, Note_on_c, 0, 61, 0
1, 74865, Note_on_c, 0, 49, 0
1, 74865, Note_on_c, 13, 57, 0
1, 74865, Note_on_c, 6, 57, 0
1, 74865, Note_on_c, 0, 64, 0
1, 74865, Note_on_c, 0, 57, 0
1, 74865, Note_on_c, 13, 64, 0
1, 74865, Note_on_c, 7, 61, 0
1, 74865, Note_on_c, 6, 52, 0
1, 74865, Note_on_c, 13, 76, 0
1, 74865, Pitch_bend_c, 3, 4971
1, 74873, Note_on_c, 5, 50, 81
1, 74873, Note_on_c, 9, 82, 63
1, 74874, Note_on_c, 1, 38, 102
1, 74875, Note_on_c, 2, 62, 85
1, 74875, Note_on_c, 13, 77, 60
1, 74877, Lyric_t, "you "
1, 74877, Note_on_c, 3, 84, 89
1, 74877, Note_on_c, 5, 57, 82
1, 74877, Note_on_c, 5, 65, 82
1, 74878, Note_on_c, 2, 50, 84
1, 74878, Note_on_c, 5, 62, 83
1, 74878, Note_on_c, 13, 62, 61
1, 74879, Note_on_c, 0, 50, 85
1, 74879, Note_on_c, 0, 57, 86
1, 74879, Note_on_c, 7, 53, 82
1, 74879, Note_on_c, 13, 50, 58
1, 74880, Note_on_c, 9, 36, 115
1, 74880, Note_on_c, 9, 57, 64
1, 74881, Note_on_c, 13, 65, 62
1, 74882, Note_on_c, 0, 62, 85
1, 74882, Note_on_c, 0, 65, 87
1, 74882, Note_on_c, 6, 57, 82
1, 74884, Note_on_c, 13, 57, 58
1, 74886, Note_on_c, 9, 82, 0
1, 74886, Note_on_c, 2, 57, 83
1, 74886, Note_on_c, 2, 65, 83
1, 74893, Note_on_c, 9, 57, 0
1, 74893, Note_on_c, 9, 36, 0
1, 74900, Pitch_bend_c, 3, 5241
1, 74910, Pitch_bend_c, 3, 5777
1, 74920, Pitch_bend_c, 3, 6314
1, 74930, Pitch_bend_c, 3, 6851
1, 74940, Pitch_bend_c, 3, 7387
1, 74950, Pitch_bend_c, 3, 7924
1, 74955, Pitch_bend_c, 3, 8192
1, 75002, Note_on_c, 9, 82, 47
1, 75015, Note_on_c, 9, 82, 0
1, 75105, Note_on_c, 2, 65, 0
1, 75105, Note_on_c, 2, 57, 0
1, 75105, Note_on_c, 6, 57, 0
1, 75105, Note_on_c, 7, 53, 0
1, 75105, Note_on_c, 5, 62, 0
1, 75105, Note_on_c, 2, 50, 0
1, 75105, Note_on_c, 5, 65, 0
1, 75105, Note_on_c, 5, 57, 0
1, 75105, Note_on_c, 2, 62, 0
1, 75105, Note_on_c, 5, 50, 0
1, 75115, Note_on_c, 5, 50, 60
1, 75117, Note_on_c, 5, 57, 63
1, 75117, Note_on_c, 9, 42, 66
1, 75118, Note_on_c, 7, 55, 68
1, 75118, Note_on_c, 9, 82, 31
1, 75120, Note_on_c, 2, 57, 60
1, 75121, Note_on_c, 2, 65, 59
1, 75122, Note_on_c, 0, 55, 75
1, 75122, Note_on_c, 2, 50, 63
1, 75122, Note_on_c, 2, 62, 60
1, 75124, Note_on_c, 5, 62, 61
1, 75125, Note_on_c, 6, 55, 75
1, 75128, Note_on_c, 5, 65, 63
1, 75130, Note_on_c, 9, 42, 0
1, 75131, Note_on_c, 9, 82, 0
1, 75185, Note_on_c, 3, 84, 0
1, 75235, Note_on_c, 9, 82, 46
1, 75236, Lyric_t, "and "
1, 75236, Note_on_c, 3, 81, 76
1, 75248, Note_on_c, 9, 82, 0
1, 75335, Note_on_c, 1, 38, 0
1, 75345, Note_on_c, 3, 81, 0
1, 75345, Note_on_c, 5, 65, 0
1, 75345, Note_on_c, 6, 55, 0
1, 75345, Note_on_c, 5, 62, 0
1, 75345, Note_on_c, 2, 62, 0
1, 75345, Note_on_c, 2, 50, 0
1, 75345, Note_on_c, 0, 55, 0
1, 75345, Note_on_c, 2, 65, 0
1, 75345, Note_on_c, 2, 57, 0
1, 75345, Note_on_c, 7, 55, 0
1, 75345, Note_on_c, 5, 57, 0
1, 75345, Note_on_c, 5, 50, 0
1, 75345, Note_on_c, 0, 65, 0
1, 75345, Note_on_c, 0, 62, 0
1, 75345, Note_on_c, 0, 57, 0
1, 75356, Note_on_c, 2, 50, 80
1, 75358, Note_on_c, 0, 64, 85
1, 75358, Note_on_c, 5, 65, 81
1, 75358, Note_on_c, 6, 57, 79
1, 75359, Note_on_c, 0, 57, 84
1, 75360, Note_on_c, 5, 57, 82
1, 75360, Note_on_c, 9, 40, 115
1, 75362, Note_on_c, 0, 65, 86
1, 75363, Note_on_c, 2, 65, 79
1, 75363, Note_on_c, 5, 62, 80
1, 75364, Lyric_t, "me "
1, 75364, Note_on_c, 2, 57, 80
1, 75364, Note_on_c, 3, 79, 89
1, 75364, Note_on_c, 9, 82, 65
1, 75365, Note_on_c, 9, 54, 77
1, 75366, Note_on_c, 2, 62, 80
1, 75366, Note_on_c, 9, 42, 99
1, 75367, Note_on_c, 5, 50, 80
1, 75368, Note_on_c, 7, 57, 82
1, 75373, Note_on_c, 9, 40, 0
1, 75377, Note_on_c, 9, 82, 0
1, 75378, Note_on_c, 9, 54, 0
1, 75379, Note_on_c, 9, 42, 0
1, 75465, Note_on_c, 3, 79, 0
1, 75484, Note_on_c, 9, 82, 49
1, 75485, Lyric_t, "to"
1, 75485, Note_on_c, 1, 33, 94
1, 75485, Note_on_c, 3, 77, 71
1, 75497, Note_on_c, 9, 82, 0
1, 75550, Note_on_c, 3, 77, 0
1, 75575, Note_on_c, 1, 33, 0
1, 75585, Note_on_c, 5, 50, 0
1, 75585, Note_on_c, 2, 62, 0
1, 75585, Note_on_c, 2, 57, 0
1, 75585, Note_on_c, 5, 62, 0
1, 75585, Note_on_c, 2, 65, 0
1, 75585, Note_on_c, 5, 57, 0
1, 75585, Note_on_c, 5, 65, 0
1, 75585, Note_on_c, 0, 64, 0
1, 75585, Note_on_c, 2, 50, 0
1, 75585, Pitch_bend_c, 3, 4971
1, 75594, Note_on_c, 2, 65, 64
1, 75594, Note_on_c, 9, 42, 64
1, 75595, Note_on_c, 5, 50, 64
1, 75598, Note_on_c, 0, 60, 76
1, 75598, Note_on_c, 2, 62, 64
1, 75601, Note_on_c, 9, 82, 30
1, 75602, Note_on_c, 2, 50, 66
1, 75603, Note_on_c, 1, 38, 97
1, 75603, Note_on_c, 2, 57, 63
1, 75604, Note_on_c, 5, 62, 62
1, 75605, Note_on_c, 5, 57, 63
1, 75605, Note_on_c, 5, 65, 65
1, 75606, Note_on_c, 7, 60, 73
1, 75607, Note_on_c, 9, 42, 0
1, 75608, Lyric_t, "ge"
1, 75608, Note_on_c, 3, 79, 81
1, 75614, Note_on_c, 9, 82, 0
1, 75620, Pitch_bend_c, 3, 5241
1, 75630, Pitch_bend_c, 3, 5777
1, 75640, Pitch_bend_c, 3, 6314
1, 75650, Pitch_bend_c, 3, 6851
1, 75660, Pitch_bend_c, 3, 7387
1, 75670, Pitch_bend_c, 3, 7924
1, 75675, Pitch_bend_c, 3, 8192
1, 75726, Note_on_c, 9, 82, 49
1, 75739, Note_on_c, 9, 82, 0
1, 75815, Note_on_c, 1, 38, 0
1, 75825, Note_on_c, 7, 60, 0
1, 75825, Note_on_c, 5, 65, 0
1, 75825, Note_on_c, 5, 57, 0
1, 75825, Note_on_c, 5, 62, 0
1, 75825, Note_on_c, 2, 57, 0
1, 75825, Note_on_c, 2, 50, 0
1, 75825, Note_on_c, 2, 62, 0
1, 75825, Note_on_c, 0, 60, 0
1, 75825, Note_on_c, 5, 50, 0
1, 75825, Note_on_c, 2, 65, 0
1, 75825, Note_on_c, 7, 57, 0
1, 75825, Note_on_c, 0, 65, 0
1, 75825, Note_on_c, 0, 57, 0
1, 75825, Note_on_c, 6, 57, 0
1, 75825, Note_on_c, 13, 57, 0
1, 75825, Note_on_c, 13, 65, 0
1, 75825, Note_on_c, 13, 50, 0
1, 75825, Note_on_c, 0, 50, 0
1, 75825, Note_on_c, 13, 62, 0
1, 75825, Note_on_c, 13, 77, 0
1, 75832, Note_on_c, 7, 60, 76
1, 75833, Note_on_c, 1, 36, 100
1, 75833, Note_on_c, 6, 53, 79
1, 75834, Note_on_c, 2, 57, 77
1, 75837, Note_on_c, 0, 48, 80
1, 75837, Note_on_c, 13, 48, 58
1, 75838, Note_on_c, 2, 53, 80
1, 75838, Note_on_c, 2, 63, 79
1, 75838, Note_on_c, 2, 65, 80
1, 75839, Note_on_c, 5, 57, 78
1, 75839, Note_on_c, 9, 82, 63
1, 75840, Note_on_c, 0, 67, 81
1, 75840, Note_on_c, 0, 57, 81
1, 75840, Note_on_c, 9, 36, 115
1, 75841, Note_on_c, 6, 60, 77
1, 75841, Note_on_c, 13, 65, 59
1, 75842, Note_on_c, 0, 63, 84
1, 75842, Note_on_c, 5, 53, 76
1, 75842, Note_on_c, 9, 42, 101
1, 75842, Note_on_c, 13, 79, 66
1, 75845, Note_on_c, 13, 57, 58
1, 75846, Note_on_c, 5, 65, 76
1, 75846, Note_on_c, 13, 63, 61
1, 75847, Note_on_c, 5, 63, 77
1, 75848, Note_on_c, 6, 56, 77
1, 75852, Note_on_c, 9, 82, 0
1, 75853, Note_on_c, 9, 36, 0
1, 75855, Note_on_c, 9, 42, 0
1, 75905, Note_on_c, 3, 79, 0
1, 75916, Lyric_t, "ther "
1, 75916, Lyric_t, "\015"
1, 75916, Note_on_c, 3, 81, 72
1, 75935, Note_on_c, 1, 36, 0
1, 75964, Note_on_c, 9, 82, 49
1, 75977, Note_on_c, 9, 82, 0
1, 75990, Note_on_c, 3, 81, 0
1, 76065, Note_on_c, 5, 63, 0
1, 76065, Note_on_c, 5, 65, 0
1, 76065, Note_on_c, 5, 53, 0
1, 76065, Note_on_c, 5, 57, 0
1, 76065, Note_on_c, 2, 65, 0
1, 76065, Note_on_c, 2, 63, 0
1, 76065, Note_on_c, 2, 53, 0
1, 76065, Note_on_c, 2, 57, 0
1, 76073, Note_on_c, 2, 65, 62
1, 76078, Note_on_c, 5, 57, 62
1, 76078, Note_on_c, 9, 42, 64
1, 76079, Note_on_c, 0, 55, 75
1, 76079, Note_on_c, 1, 36, 98
1, 76079, Note_on_c, 5, 63, 64
1, 76082, Note_on_c, 5, 53, 63
1, 76083, Note_on_c, 2, 53, 65
1, 76083, Note_on_c, 2, 57, 62
1, 76083, Note_on_c, 5, 65, 63
1, 76085, Note_on_c, 9, 82, 34
1, 76086, Note_on_c, 7, 51, 71
1, 76088, Note_on_c, 2, 63, 66
1, 76091, Note_on_c, 9, 42, 0
1, 76098, Note_on_c, 9, 82, 0
1, 76197, Note_on_c, 9, 82, 49
1, 76210, Note_on_c, 9, 82, 0
1, 76305, Note_on_c, 2, 63, 0
1, 76305, Note_on_c, 5, 65, 0
1, 76305, Note_on_c, 2, 57, 0
1, 76305, Note_on_c, 2, 53, 0
1, 76305, Note_on_c, 5, 53, 0
1, 76305, Note_on_c, 5, 63, 0
1, 76305, Note_on_c, 0, 55, 0
1, 76305, Note_on_c, 5, 57, 0
1, 76305, Note_on_c, 2, 65, 0
1, 76305, Note_on_c, 6, 56, 0
1, 76305, Note_on_c, 0, 63, 0
1, 76305, Note_on_c, 6, 60, 0
1, 76305, Note_on_c, 0, 57, 0
1, 76305, Note_on_c, 0, 67, 0
1, 76305, Note_on_c, 6, 53, 0
1, 76305, Note_on_c, 7, 60, 0
1, 76312, Note_on_c, 6, 53, 82
1, 76315, Note_on_c, 6, 60, 81
1, 76316, Note_on_c, 2, 65, 84
1, 76316, Note_on_c, 6, 56, 82
1, 76317, Note_on_c, 2, 63, 84
1, 76317, Note_on_c, 7, 60, 85
1, 76317, Note_on_c, 9, 82, 65
1, 76319, Note_on_c, 0, 57, 86
1, 76320, Note_on_c, 2, 53, 84
1, 76320, Note_on_c, 5, 63, 85
1, 76320, Note_on_c, 9, 40, 115
1, 76321, Note_on_c, 0, 67, 86
1, 76321, Note_on_c, 2, 57, 85
1, 76323, Note_on_c, 0, 63, 87
1, 76323, Note_on_c, 5, 57, 84
1, 76323, Note_on_c, 5, 53, 84
1, 76323, Note_on_c, 9, 54, 76
1, 76323, Note_on_c, 9, 42, 100
1, 76328, Note_on_c, 5, 65, 84
1, 76330, Note_on_c, 9, 82, 0
1, 76333, Note_on_c, 9, 40, 0
1, 76336, Note_on_c, 9, 42, 0
1, 76336, Note_on_c, 9, 54, 0
1, 76445, Note_on_c, 9, 82, 54
1, 76448, Lyric_t, "And "
1, 76448, Note_on_c, 3, 77, 73
1, 76458, Note_on_c, 9, 82, 0
1, 76510, Note_on_c, 3, 77, 0
1, 76535, Note_on_c, 1, 36, 0
1, 76545, Note_on_c, 5, 65, 0
1, 76545, Note_on_c, 5, 53, 0
1, 76545, Note_on_c, 5, 57, 0
1, 76545, Note_on_c, 2, 57, 0
1, 76545, Note_on_c, 5, 63, 0
1, 76545, Note_on_c, 2, 53, 0
1, 76545, Note_on_c, 2, 63, 0
1, 76545, Note_on_c, 2, 65, 0
1, 76556, Lyric_t, "ba"
1, 76556, Note_on_c, 3, 79, 78
1, 76556, Note_on_c, 5, 65, 60
1, 76557, Note_on_c, 2, 65, 63
1, 76557, Note_on_c, 5, 63, 61
1, 76557, Note_on_c, 5, 57, 62
1, 76560, Note_on_c, 0, 53, 76
1, 76562, Note_on_c, 9, 42, 66
1, 76563, Note_on_c, 9, 82, 42
1, 76564, Note_on_c, 5, 53, 62
1, 76565, Note_on_c, 2, 53, 62
1, 76565, Note_on_c, 2, 57, 61
1, 76566, Note_on_c, 1, 36, 97
1, 76567, Note_on_c, 2, 63, 63
1, 76575, Note_on_c, 9, 42, 0
1, 76576, Note_on_c, 9, 82, 0
1, 76665, Note_on_c, 3, 79, 0
1, 76679, Lyric_t, "by "
1, 76679, Note_on_c, 3, 81, 75
1, 76681, Note_on_c, 9, 82, 30
1, 76694, Note_on_c, 9, 82, 0
1, 76750, Note_on_c, 3, 81, 0
1, 76775, Note_on_c, 1, 36, 0
1, 76785, Note_on_c, 2, 63, 0
1, 76785, Note_on_c, 2, 57, 0
1, 76785, Note_on_c, 2, 53, 0
1, 76785, Note_on_c, 5, 53, 0
1, 76785, Note_on_c, 0, 53, 0
1, 76785, Note_on_c, 5, 57, 0
1, 76785, Note_on_c, 5, 63, 0
1, 76785, Note_on_c, 2, 65, 0
1, 76785, Note_on_c, 5, 65, 0
1, 76785, Note_on_c, 0, 63, 0
1, 76785, Note_on_c, 0, 67, 0
1, 76785, Note_on_c, 0, 57, 0
1, 76785, Note_on_c, 7, 60, 0
1, 76785, Note_on_c, 6, 56, 0
1, 76785, Note_on_c, 6, 60, 0
1, 76785, Note_on_c, 6, 53, 0
1, 76785, Note_on_c, 7, 51, 0
1, 76785, Note_on_c, 13, 63, 0
1, 76785, Note_on_c, 13, 57, 0
1, 76785, Note_on_c, 13, 79, 0
1, 76785, Note_on_c, 13, 65, 0
1, 76785, Note_on_c, 13, 48, 0
1, 76785, Note_on_c, 0, 48, 0
1, 76785, Pitch_bend_c, 3, 4971
1, 76792, Note_on_c, 5, 53, 86
1, 76792, Note_on_c, 5, 58, 83
1, 76792, Note_on_c, 6, 46, 84
1, 76793, Note_on_c, 2, 58, 83
1, 76795, Note_on_c, 13, 58, 60
1, 76797, Note_on_c, 1, 34, 106
1, 76797, Note_on_c, 2, 65, 84
1, 76797, Note_on_c, 13, 46, 61
1, 76798, Lyric_t, "all "
1, 76798, Note_on_c, 3, 84, 93
1, 76799, Note_on_c, 0, 46, 89
1, 76799, Note_on_c, 5, 65, 85
1, 76800, Note_on_c, 9, 36, 115
1, 76800, Note_on_c, 13, 65, 59
1, 76801, Note_on_c, 0, 58, 87
1, 76802, Note_on_c, 0, 65, 90
1, 76802, Note_on_c, 0, 62, 87
1, 76803, Note_on_c, 9, 42, 101
1, 76803, Note_on_c, 13, 62, 59
1, 76806, Note_on_c, 2, 62, 84
1, 76806, Note_on_c, 5, 62, 84
1, 76806, Note_on_c, 7, 50, 86
1, 76806, Note_on_c, 9, 82, 62
1, 76807, Note_on_c, 13, 77, 74
1, 76808, Note_on_c, 2, 53, 83
1, 76813, Note_on_c, 9, 36, 0
1, 76816, Note_on_c, 9, 42, 0
1, 76819, Note_on_c, 9, 82, 0
1, 76820, Pitch_bend_c, 3, 5241
1, 76830, Pitch_bend_c, 3, 5777
1, 76840, Pitch_bend_c, 3, 6314
1, 76850, Pitch_bend_c, 3, 6851
1, 76860, Pitch_bend_c, 3, 7387
1, 76870, Pitch_bend_c, 3, 7924
1, 76875, Pitch_bend_c, 3, 8192
1, 76916, Note_on_c, 9, 82, 47
1, 76929, Note_on_c, 9, 82, 0
1, 77032, Note_on_c, 9, 82, 31
1, 77039, Note_on_c, 9, 42, 64
1, 77040, Note_on_c, 7, 53, 71
1, 77045, Note_on_c, 9, 82, 0
1, 77046, Note_on_c, 6, 53, 74
1, 77052, Note_on_c, 9, 42, 0
1, 77085, Note_on_c, 3, 84, 0
1, 77097, Lyric_t, "we've "
1, 77097, Note_on_c, 3, 81, 80
1, 77165, Note_on_c, 9, 82, 50
1, 77178, Note_on_c, 9, 82, 0
1, 77205, Note_on_c, 3, 81, 0
1, 77237, Lyric_t, "got "
1, 77237, Note_on_c, 3, 79, 88
1, 77255, Note_on_c, 1, 34, 0
1, 77265, Note_on_c, 2, 53, 0
1, 77265, Note_on_c, 13, 77, 0
1, 77265, Note_on_c, 5, 62, 0
1, 77265, Note_on_c, 2, 62, 0
1, 77265, Note_on_c, 0, 62, 0
1, 77265, Note_on_c, 0, 65, 0
1, 77265, Note_on_c, 0, 58, 0
1, 77265, Note_on_c, 5, 65, 0
1, 77265, Note_on_c, 2, 65, 0
1, 77265, Note_on_c, 2, 58, 0
1, 77265, Note_on_c, 5, 58, 0
1, 77265, Note_on_c, 5, 53, 0
1, 77274, Note_on_c, 2, 62, 78
1, 77277, Note_on_c, 9, 82, 62
1, 77277, Note_on_c, 13, 86, 73
1, 77278, Note_on_c, 0, 62, 84
1, 77279, Note_on_c, 0, 65, 84
1, 77279, Note_on_c, 5, 62, 81
1, 77280, Note_on_c, 5, 58, 80
1, 77280, Note_on_c, 9, 40, 115
1, 77282, Note_on_c, 2, 53, 80
1, 77282, Note_on_c, 9, 54, 74
1, 77283, Note_on_c, 0, 58, 83
1, 77283, Note_on_c, 5, 65, 81
1, 77283, Note_on_c, 6, 58, 82
1, 77283, Note_on_c, 7, 58, 81
1, 77284, Note_on_c, 9, 42, 98
1, 77287, Note_on_c, 2, 58, 80
1, 77288, Note_on_c, 2, 65, 80
1, 77288, Note_on_c, 5, 53, 80
1, 77290, Note_on_c, 9, 82, 0
1, 77293, Note_on_c, 9, 40, 0
1, 77295, Note_on_c, 9, 54, 0
1, 77297, Note_on_c, 9, 42, 0
1, 77345, Note_on_c, 3, 79, 0
1, 77388, Lyric_t, "is "
1, 77388, Note_on_c, 3, 77, 73
1, 77403, Note_on_c, 1, 36, 93
1, 77406, Note_on_c, 9, 82, 46
1, 77419, Note_on_c, 9, 82, 0
1, 77495, Note_on_c, 1, 36, 0
1, 77505, Note_on_c, 3, 77, 0
1, 77505, Note_on_c, 6, 53, 0
1, 77517, Note_on_c, 6, 53, 76
1, 77519, Lyric_t, "time "
1, 77519, Lyric_t, "\015"
1, 77519, Note_on_c, 3, 77, 79
1, 77521, Note_on_c, 9, 82, 30
1, 77522, Note_on_c, 9, 42, 64
1, 77523, Note_on_c, 1, 38, 98
1, 77534, Note_on_c, 9, 82, 0
1, 77535, Note_on_c, 9, 42, 0
1, 77615, Note_on_c, 1, 38, 0
1, 77634, Note_on_c, 1, 38, 101
1, 77640, Note_on_c, 9, 36, 90
1, 77641, Note_on_c, 9, 82, 50
1, 77653, Note_on_c, 9, 36, 0
1, 77654, Note_on_c, 9, 82, 0
1, 77665, Note_on_c, 3, 77, 0
1, 77674, Note_on_c, 3, 74, 83
1, 77735, Note_on_c, 1, 38, 0
1, 77745, Note_on_c, 6, 53, 0
1, 77745, Note_on_c, 5, 53, 0
1, 77745, Note_on_c, 2, 65, 0
1, 77745, Note_on_c, 2, 58, 0
1, 77745, Note_on_c, 7, 58, 0
1, 77745, Note_on_c, 6, 58, 0
1, 77745, Note_on_c, 5, 65, 0
1, 77745, Note_on_c, 0, 58, 0
1, 77745, Note_on_c, 2, 53, 0
1, 77745, Note_on_c, 5, 58, 0
1, 77745, Note_on_c, 5, 62, 0
1, 77745, Note_on_c, 0, 65, 0
1, 77745, Note_on_c, 0, 62, 0
1, 77745, Note_on_c, 13, 86, 0
1, 77745, Note_on_c, 2, 62, 0
1, 77745, Note_on_c, 7, 53, 0
1, 77745, Note_on_c, 7, 50, 0
1, 77745, Note_on_c, 13, 62, 0
1, 77745, Note_on_c, 13, 65, 0
1, 77745, Note_on_c, 0, 46, 0
1, 77745, Note_on_c, 13, 46, 0
1, 77745, Note_on_c, 13, 58, 0
1, 77745, Note_on_c, 6, 46, 0
1, 77750, Note_on_c, 3, 74, 0
1, 77753, Note_on_c, 6, 53, 79
1, 77756, Note_on_c, 5, 60, 81
1, 77756, Note_on_c, 9, 42, 99
1, 77756, Note_on_c, 13, 84, 70
1, 77757, Note_on_c, 2, 65, 81
1, 77757, Note_on_c, 2, 60, 82
1, 77757, Note_on_c, 5, 53, 80
1, 77758, Note_on_c, 2, 53, 79
1, 77758, Note_on_c, 9, 82, 66
1, 77758, Note_on_c, 13, 45, 61
1, 77759, Note_on_c, 5, 65, 81
1, 77760, Note_on_c, 0, 60, 82
1, 77760, Note_on_c, 0, 65, 84
1, 77760, Note_on_c, 3, 72, 90
1, 77760, Note_on_c, 9, 36, 115
1, 77762, Note_on_c, 2, 57, 78
1, 77762, Note_on_c, 7, 48, 79
1, 77762, Note_on_c, 13, 60, 61
1, 77762, Note_on_c, 13, 65, 61
1, 77763, Note_on_c, 0, 57, 82
1, 77763, Note_on_c, 0, 45, 85
1, 77764, Note_on_c, 1, 33, 102
1, 77764, Note_on_c, 13, 53, 61
1, 77765, Note_on_c, 6, 57, 79
1, 77766, Note_on_c, 5, 57, 78
1, 77767, Note_on_c, 6, 60, 79
1, 77769, Note_on_c, 9, 42, 0
1, 77771, Note_on_c, 9, 82, 0
1, 77773, Note_on_c, 9, 36, 0
1, 77830, Note_on_c, 3, 72, 0
1, 77881, Note_on_c, 9, 82, 48
1, 77894, Note_on_c, 9, 82, 0
1, 77985, Note_on_c, 6, 53, 0
1, 78002, Note_on_c, 6, 53, 75
1, 78005, Note_on_c, 9, 42, 65
1, 78006, Note_on_c, 7, 53, 72
1, 78008, Note_on_c, 9, 82, 33
1, 78018, Note_on_c, 9, 42, 0
1, 78021, Note_on_c, 9, 82, 0
1, 78112, Note_on_c, 9, 82, 50
1, 78125, Note_on_c, 9, 82, 0
1, 78225, Note_on_c, 7, 53, 0
1, 78225, Note_on_c, 6, 53, 0
1, 78225, Note_on_c, 5, 57, 0
1, 78225, Note_on_c, 0, 57, 0
1, 78225, Note_on_c, 2, 57, 0
1, 78225, Note_on_c, 0, 65, 0
1, 78225, Note_on_c, 0, 60, 0
1, 78225, Note_on_c, 5, 65, 0
1, 78225, Note_on_c, 2, 53, 0
1, 78225, Note_on_c, 5, 53, 0
1, 78225, Note_on_c, 2, 60, 0
1, 78225, Note_on_c, 2, 65, 0
1, 78225, Note_on_c, 13, 84, 0
1, 78225, Note_on_c, 5, 60, 0
1, 78232, Note_on_c, 2, 60, 79
1, 78233, Note_on_c, 2, 57, 78
1, 78236, Note_on_c, 7, 53, 79
1, 78236, Note_on_c, 7, 57, 77
1, 78237, Note_on_c, 2, 53, 80
1, 78237, Note_on_c, 9, 82, 62
1, 78238, Note_on_c, 5, 65, 80
1, 78238, Note_on_c, 6, 53, 77
1, 78240, Note_on_c, 5, 53, 79
1, 78240, Note_on_c, 9, 42, 100
1, 78240, Note_on_c, 9, 40, 115
1, 78242, Note_on_c, 0, 57, 81
1, 78242, Note_on_c, 0, 60, 81
1, 78242, Note_on_c, 5, 57, 81
1, 78242, Note_on_c, 5, 60, 78
1, 78242, Note_on_c, 9, 54, 74
1, 78243, Note_on_c, 0, 65, 80
1, 78247, Note_on_c, 2, 65, 81
1, 78248, Note_on_c, 13, 81, 65
1, 78250, Note_on_c, 9, 82, 0
1, 78253, Note_on_c, 9, 40, 0
1, 78253, Note_on_c, 9, 42, 0
1, 78255, Note_on_c, 9, 54, 0
1, 78361, Note_on_c, 9, 82, 52
1, 78366, Lyric_t, "So "
1, 78366, Note_on_c, 3, 74, 75
1, 78374, Note_on_c, 9, 82, 0
1, 78465, Note_on_c, 3, 74, 0
1, 78465, Note_on_c, 2, 65, 0
1, 78465, Note_on_c, 5, 60, 0
1, 78465, Note_on_c, 5, 57, 0
1, 78465, Note_on_c, 5, 53, 0
1, 78465, Note_on_c, 5, 65, 0
1, 78465, Note_on_c, 2, 53, 0
1, 78465, Note_on_c, 2, 57, 0
1, 78465, Note_on_c, 2, 60, 0
1, 78473, Note_on_c, 2, 60, 63
1, 78474, Note_on_c, 9, 42, 64
1, 78475, Note_on_c, 2, 57, 63
1, 78475, Note_on_c, 5, 53, 65
1, 78476, Note_on_c, 2, 65, 63
1, 78477, Note_on_c, 2, 53, 65
1, 78482, Lyric_t, "hold "
1, 78482, Note_on_c, 3, 77, 80
1, 78482, Note_on_c, 9, 82, 43
1, 78485, Note_on_c, 5, 65, 61
1, 78487, Note_on_c, 9, 42, 0
1, 78487, Note_on_c, 5, 60, 62
1, 78487, Note_on_c, 5, 57, 65
1, 78495, Note_on_c, 9, 82, 0
1, 78550, Note_on_c, 3, 77, 0
1, 78575, Note_on_c, 1, 33, 0
1, 78585, Pitch_bend_c, 3, 4971
1, 78598, Lyric_t, "on "
1, 78598, Note_on_c, 3, 81, 82
1, 78598, Note_on_c, 9, 82, 33
1, 78599, Note_on_c, 1, 29, 96
1, 78611, Note_on_c, 9, 82, 0
1, 78620, Pitch_bend_c, 3, 5241
1, 78630, Pitch_bend_c, 3, 5777
1, 78640, Pitch_bend_c, 3, 6314
1, 78650, Pitch_bend_c, 3, 6851
1, 78660, Pitch_bend_c, 3, 7387
1, 78670, Pitch_bend_c, 3, 7924
1, 78675, Pitch_bend_c, 3, 8192
1, 78695, Note_on_c, 1, 29, 0
1, 78705, Note_on_c, 5, 57, 0
1, 78705, Note_on_c, 5, 60, 0
1, 78705, Note_on_c, 5, 65, 0
1, 78705, Note_on_c, 2, 53, 0
1, 78705, Note_on_c, 2, 65, 0
1, 78705, Note_on_c, 5, 53, 0
1, 78705, Note_on_c, 2, 57, 0
1, 78705, Note_on_c, 2, 60, 0
1, 78705, Note_on_c, 13, 81, 0
1, 78705, Note_on_c, 0, 65, 0
1, 78705, Note_on_c, 0, 60, 0
1, 78705, Note_on_c, 0, 57, 0
1, 78705, Note_on_c, 6, 53, 0
1, 78705, Note_on_c, 7, 57, 0
1, 78705, Note_on_c, 7, 53, 0
1, 78705, Note_on_c, 6, 60, 0
1, 78705, Note_on_c, 6, 57, 0
1, 78705, Note_on_c, 13, 53, 0
1, 78705, Note_on_c, 0, 45, 0
1, 78705, Note_on_c, 13, 65, 0
1, 78705, Note_on_c, 13, 60, 0
1, 78705, Note_on_c, 7, 48, 0
1, 78705, Note_on_c, 13, 45, 0
1, 78712, Note_on_c, 5, 55, 82
1, 78713, Note_on_c, 5, 62, 82
1, 78713, Note_on_c, 6, 55, 80
1, 78714, Note_on_c, 1, 31, 102
1, 78714, Note_on_c, 2, 62, 83
1, 78717, Note_on_c, 2, 58, 82
1, 78718, Note_on_c, 2, 50, 85
1, 78718, Note_on_c, 5, 50, 81
1, 78718, Note_on_c, 7, 50, 84
1, 78718, Note_on_c, 13, 55, 59
1, 78719, Note_on_c, 0, 62, 87
1, 78719, Note_on_c, 0, 43, 85
1, 78719, Note_on_c, 0, 58, 88
1, 78720, MIDI_port, 0
1, 78720, Note_on_c, 9, 36, 115
1, 78720, Note_on_c, 13, 43, 61
1, 78721, Note_on_c, 9, 42, 101
1, 78722, Note_on_c, 0, 55, 86
1, 78723, Note_on_c, 6, 58, 82
1, 78723, Note_on_c, 9, 82, 64
1, 78723, Note_on_c, 13, 62, 60
1, 78725, Note_on_c, 13, 58, 61
1, 78725, Note_on_c, 13, 82, 61
1, 78726, Note_on_c, 2, 55, 84
1, 78727, Note_on_c, 5, 58, 82
1, 78733, Note_on_c, 9, 36, 0
1, 78734, Note_on_c, 9, 42, 0
1, 78736, Note_on_c, 9, 82, 0
1, 78825, Note_on_c, 3, 81, 0
1, 78844, Lyric_t, "to "
1, 78844, Note_on_c, 3, 79, 72
1, 78848, Note_on_c, 9, 82, 49
1, 78861, Note_on_c, 9, 82, 0
1, 78920, Note_on_c, 3, 79, 0
1, 78952, Note_on_c, 9, 82, 30
1, 78953, Note_on_c, 7, 55, 68
1, 78957, Note_on_c, 6, 50, 76
1, 78960, Note_on_c, 0, 50, 54
1, 78961, Lyric_t, "me. "
1, 78961, Lyric_t, "\015"
1, 78961, Note_on_c, 3, 79, 78
1, 78964, Note_on_c, 9, 42, 65
1, 78965, Note_on_c, 9, 82, 0
1, 78977, Note_on_c, 9, 42, 0
1, 79074, Note_on_c, 9, 82, 47
1, 79087, Note_on_c, 9, 82, 0
1, 79160, Note_on_c, 6, 50, 0
1, 79160, Note_on_c, 6, 58, 0
1, 79160, Note_on_c, 6, 55, 0
1, 79185, Note_on_c, 7, 55, 0
1, 79185, Note_on_c, 5, 58, 0
1, 79185, Note_on_c, 2, 55, 0
1, 79185, Note_on_c, 0, 55, 0
1, 79185, Note_on_c, 0, 58, 0
1, 79185, Note_on_c, 0, 62, 0
1, 79185, Note_on_c, 7, 50, 0
1, 79185, Note_on_c, 5, 50, 0
1, 79185, Note_on_c, 2, 50, 0
1, 79185, Note_on_c, 2, 58, 0
1, 79185, Note_on_c, 2, 62, 0
1, 79185, Note_on_c, 5, 62, 0
1, 79185, Note_on_c, 5, 55, 0
1, 79185, Pitch_bend_c, 6, 100
1, 79192, Note_on_c, 2, 62, 83
1, 79193, Note_on_c, 6, 50, 87
1, 79193, Note_on_c, 7, 55, 83
1, 79195, Note_on_c, 5, 58, 81
1, 79195, Note_on_c, 9, 42, 102
1, 79197, Note_on_c, 0, 58, 84
1, 79197, Note_on_c, 2, 58, 79
1, 79197, Note_on_c, 5, 55, 81
1, 79197, Note_on_c, 9, 54, 74
1, 79198, Note_on_c, 2, 50, 83
1, 79198, Note_on_c, 5, 62, 81
1, 79199, Note_on_c, 0, 55, 87
1, 79200, Note_on_c, 9, 40, 115
1, 79202, Note_on_c, 0, 62, 86
1, 79202, Note_on_c, 7, 50, 83
1, 79204, Note_on_c, 5, 50, 83
1, 79205, Note_on_c, 9, 82, 63
1, 79208, Note_on_c, 9, 42, 0
1, 79208, Note_on_c, 2, 55, 80
1, 79208, Note_on_c, 7, 58, 81
1, 79210, Note_on_c, 9, 54, 0
1, 79213, Note_on_c, 9, 40, 0
1, 79218, Note_on_c, 9, 82, 0
1, 79240, Pitch_bend_c, 6, 8192
1, 79318, Note_on_c, 9, 82, 50
1, 79331, Note_on_c, 9, 82, 0
1, 79415, Note_on_c, 1, 31, 0
1, 79425, Note_on_c, 2, 55, 0
1, 79425, Note_on_c, 5, 50, 0
1, 79425, Note_on_c, 5, 62, 0
1, 79425, Note_on_c, 2, 50, 0
1, 79425, Note_on_c, 5, 55, 0
1, 79425, Note_on_c, 2, 58, 0
1, 79425, Note_on_c, 5, 58, 0
1, 79425, Note_on_c, 2, 62, 0
1, 79425, Note_on_c, 3, 79, 0
1, 79425, Note_on_c, 0, 50, 0
1, 79432, Note_on_c, 2, 62, 63
1, 79436, Note_on_c, 5, 58, 63
1, 79439, Note_on_c, 5, 55, 65
1, 79440, Note_on_c, 2, 58, 62
1, 79440, Note_on_c, 9, 82, 30
1, 79442, Note_on_c, 0, 50, 56
1, 79442, Note_on_c, 2, 50, 66
1, 79443, Note_on_c, 1, 33, 95
1, 79445, Note_on_c, 5, 62, 65
1, 79445, Note_on_c, 9, 42, 64
1, 79446, Note_on_c, 5, 50, 64
1, 79448, Note_on_c, 2, 55, 62
1, 79453, Note_on_c, 9, 82, 0
1, 79458, Note_on_c, 9, 42, 0
1, 79500, Control_c, 12, 32, 0
1, 79500, Control_c, 12, 0, 0
1, 79510, Program_c, 12, 30
1, 79515, Control_c, 12, 11, 127
1, 79515, Control_c, 12, 10, 74
1, 79515, Control_c, 12, 7, 105
1, 79520, Control_c, 12, 93, 0
1, 79520, Control_c, 12, 91, 84
1, 79535, Note_on_c, 1, 33, 0
1, 79555, Lyric_t, "Hold "
1, 79555, Note_on_c, 3, 77, 86
1, 79565, Note_on_c, 1, 34, 102
1, 79568, Note_on_c, 9, 82, 48
1, 79581, Note_on_c, 9, 82, 0
1, 79630, Note_on_c, 3, 77, 0
1, 79655, Note_on_c, 1, 34, 0
1, 79665, Note_on_c, 2, 55, 0
1, 79665, Note_on_c, 5, 50, 0
1, 79665, Note_on_c, 5, 62, 0
1, 79665, Note_on_c, 2, 50, 0
1, 79665, Note_on_c, 0, 50, 0
1, 79665, Note_on_c, 2, 58, 0
1, 79665, Note_on_c, 5, 55, 0
1, 79665, Note_on_c, 5, 58, 0
1, 79665, Note_on_c, 2, 62, 0
1, 79665, Note_on_c, 7, 58, 0
1, 79665, Note_on_c, 7, 50, 0
1, 79665, Note_on_c, 0, 62, 0
1, 79665, Note_on_c, 0, 55, 0
1, 79665, Note_on_c, 0, 58, 0
1, 79665, Note_on_c, 7, 55, 0
1, 79665, Note_on_c, 6, 50, 0
1, 79665, Note_on_c, 13, 58, 0
1, 79665, Note_on_c, 13, 62, 0
1, 79665, Note_on_c, 13, 43, 0
1, 79665, Note_on_c, 0, 43, 0
1, 79665, Note_on_c, 13, 55, 0
1, 79665, Pitch_bend_c, 3, 4971
1, 79672, Note_on_c, 7, 53, 78
1, 79673, Note_on_c, 13, 65, 62
1, 79674, Note_on_c, 2, 58, 77
1, 79675, Note_on_c, 2, 55, 76
1, 79677, Note_on_c, 0, 55, 84
1, 79677, Note_on_c, 6, 55, 64
1, 79678, Note_on_c, 0, 62, 81
1, 79678, Lyric_t, "on "
1, 79678, Note_on_c, 1, 36, 98
1, 79678, Note_on_c, 2, 62, 76
1, 79678, Note_on_c, 3, 81, 85
1, 79678, Note_on_c, 5, 48, 77
1, 79678, Note_on_c, 6, 48, 68
1, 79678, Note_on_c, 7, 60, 77
1, 79678, Note_on_c, 9, 82, 64
1, 79678, Note_on_c, 13, 48, 60
1, 79679, Note_on_c, 0, 58, 80
1, 79679, Note_on_c, 0, 65, 82
1, 79679, Note_on_c, 7, 55, 80
1, 79680, Note_on_c, 9, 36, 115
1, 79681, Note_on_c, 0, 48, 82
1, 79681, Note_on_c, 9, 42, 102
1, 79684, Note_on_c, 2, 48, 78
1, 79684, Note_on_c, 5, 58, 80
1, 79685, Note_on_c, 5, 62, 80
1, 79685, Note_on_c, 13, 62, 61
1, 79687, Note_on_c, 6, 60, 78
1, 79687, Note_on_c, 13, 58, 60
1, 79688, Note_on_c, 5, 55, 76
1, 79691, Note_on_c, 9, 82, 0
1, 79693, Note_on_c, 9, 36, 0
1, 79694, Note_on_c, 9, 42, 0
1, 79700, Pitch_bend_c, 3, 5241
1, 79710, Pitch_bend_c, 3, 5777
1, 79720, Pitch_bend_c, 3, 6314
1, 79730, Pitch_bend_c, 3, 6851
1, 79740, Pitch_bend_c, 3, 7387
1, 79750, Pitch_bend_c, 3, 7924
1, 79755, Pitch_bend_c, 3, 8192
1, 79799, Note_on_c, 9, 82, 48
1, 79812, Note_on_c, 9, 82, 0
1, 79905, Note_on_c, 3, 81, 0
1, 79912, Note_on_c, 9, 42, 65
1, 79925, Note_on_c, 9, 42, 0
1, 79926, Lyric_t, "to "
1, 79926, Note_on_c, 3, 82, 81
1, 79928, Note_on_c, 9, 82, 32
1, 79941, Note_on_c, 9, 82, 0
1, 80025, Note_on_c, 3, 82, 0
1, 80034, Lyric_t, "me "
1, 80034, Note_on_c, 3, 79, 79
1, 80041, Note_on_c, 9, 82, 47
1, 80054, Note_on_c, 9, 82, 0
1, 80145, Note_on_c, 5, 55, 0
1, 80145, Note_on_c, 5, 62, 0
1, 80145, Note_on_c, 5, 58, 0
1, 80145, Note_on_c, 2, 48, 0
1, 80145, Note_on_c, 7, 55, 0
1, 80145, Note_on_c, 0, 65, 0
1, 80145, Note_on_c, 0, 58, 0
1, 80145, Note_on_c, 7, 60, 0
1, 80145, Note_on_c, 5, 48, 0
1, 80145, Note_on_c, 2, 62, 0
1, 80145, Note_on_c, 0, 62, 0
1, 80145, Note_on_c, 0, 55, 0
1, 80145, Note_on_c, 2, 55, 0
1, 80145, Note_on_c, 2, 58, 0
1, 80145, Note_on_c, 7, 53, 0
1, 80153, Note_on_c, 2, 48, 84
1, 80156, Note_on_c, 7, 53, 82
1, 80157, Note_on_c, 5, 62, 82
1, 80157, Note_on_c, 5, 55, 81
1, 80158, Note_on_c, 7, 60, 82
1, 80159, Note_on_c, 5, 58, 85
1, 80159, Note_on_c, 5, 48, 83
1, 80160, Note_on_c, 0, 65, 88
1, 80160, Note_on_c, 0, 62, 87
1, 80160, Note_on_c, 0, 55, 88
1, 80160, Note_on_c, 2, 58, 83
1, 80160, Note_on_c, 9, 40, 115
1, 80161, Note_on_c, 2, 55, 83
1, 80161, Note_on_c, 9, 82, 66
1, 80162, Note_on_c, 0, 58, 87
1, 80163, Note_on_c, 7, 55, 83
1, 80164, Note_on_c, 9, 54, 75
1, 80166, Note_on_c, 2, 62, 83
1, 80168, Note_on_c, 9, 42, 101
1, 80173, Note_on_c, 9, 40, 0
1, 80174, Note_on_c, 9, 82, 0
1, 80177, Note_on_c, 9, 54, 0
1, 80181, Note_on_c, 9, 42, 0
1, 80225, Note_on_c, 3, 79, 0
1, 80277, Lyric_t, "to"
1, 80277, Note_on_c, 3, 77, 71
1, 80277, Note_on_c, 9, 82, 54
1, 80290, Note_on_c, 9, 82, 0
1, 80385, Note_on_c, 3, 77, 0
1, 80396, Note_on_c, 9, 82, 44
1, 80403, Note_on_c, 9, 42, 63
1, 80404, Lyric_t, "night. "
1, 80404, Lyric_t, "\015"
1, 80404, Note_on_c, 3, 77, 78
1, 80409, Note_on_c, 9, 82, 0
1, 80416, Note_on_c, 9, 42, 0
1, 80515, Note_on_c, 9, 82, 30
1, 80528, Note_on_c, 9, 82, 0
1, 80615, Note_on_c, 1, 36, 0
1, 80625, Note_on_c, 2, 62, 0
1, 80625, Note_on_c, 7, 55, 0
1, 80625, Note_on_c, 0, 58, 0
1, 80625, Note_on_c, 2, 55, 0
1, 80625, Note_on_c, 2, 58, 0
1, 80625, Note_on_c, 0, 55, 0
1, 80625, Note_on_c, 0, 62, 0
1, 80625, Note_on_c, 0, 65, 0
1, 80625, Note_on_c, 5, 48, 0
1, 80625, Note_on_c, 5, 58, 0
1, 80625, Note_on_c, 7, 60, 0
1, 80625, Note_on_c, 5, 55, 0
1, 80625, Note_on_c, 5, 62, 0
1, 80625, Note_on_c, 7, 53, 0
1, 80625, Note_on_c, 2, 48, 0
1, 80625, Note_on_c, 13, 58, 0
1, 80625, Note_on_c, 6, 60, 0
1, 80625, Note_on_c, 13, 62, 0
1, 80625, Note_on_c, 0, 48, 0
1, 80625, Note_on_c, 13, 48, 0
1, 80625, Note_on_c, 6, 48, 0
1, 80625, Note_on_c, 6, 55, 0
1, 80625, Note_on_c, 13, 65, 0
1, 80625, Note_on_c, 13, 82, 0
1, 80632, Note_on_c, 2, 65, 86
1, 80632, Note_on_c, 7, 60, 85
1, 80633, Note_on_c, 9, 82, 62
1, 80634, Note_on_c, 5, 53, 82
1, 80634, Note_on_c, 5, 57, 82
1, 80634, Note_on_c, 13, 57, 62
1, 80636, Note_on_c, 1, 29, 102
1, 80636, Note_on_c, 7, 53, 85
1, 80636, Note_on_c, 13, 60, 59
1, 80637, Note_on_c, 9, 42, 99
1, 80638, Note_on_c, 0, 60, 88
1, 80638, Note_on_c, 0, 41, 89
1, 80639, Note_on_c, 6, 60, 83
1, 80640, Note_on_c, 0, 57, 89
1, 80640, Note_on_c, 6, 65, 81
1, 80640, Note_on_c, 7, 57, 86
1, 80640, Note_on_c, 9, 36, 115
1, 80641, Note_on_c, 2, 53, 86
1, 80642, Note_on_c, 0, 65, 86
1, 80642, Note_on_c, 2, 57, 86
1, 80642, Note_on_c, 5, 60, 85
1, 80643, Note_on_c, 2, 60, 86
1, 80643, Note_on_c, 5, 65, 86
1, 80643, Note_on_c, 7, 65, 86
1, 80643, Note_on_c, 13, 53, 60
1, 80645, Note_on_c, 6, 57, 84
1, 80646, Note_on_c, 9, 82, 0
1, 80646, Note_on_c, 6, 53, 82
1, 80647, Note_on_c, 13, 65, 61
1, 80650, Note_on_c, 9, 42, 0
1, 80653, Note_on_c, 9, 36, 0
1, 80705, Note_on_c, 3, 77, 0
1, 80716, Note_on_c, 3, 74, 73
1, 80761, Note_on_c, 9, 82, 48
1, 80774, Note_on_c, 9, 82, 0
1, 80790, Note_on_c, 3, 74, 0
1, 80806, Note_on_c, 3, 72, 74
1, 80865, Note_on_c, 6, 53, 0
1, 80865, Note_on_c, 2, 53, 0
1, 80865, Note_on_c, 7, 53, 0
1, 80865, Note_on_c, 5, 53, 0
1, 80875, Note_on_c, 2, 53, 66
1, 80875, Note_on_c, 5, 53, 66
1, 80877, Note_on_c, 9, 82, 31
1, 80878, Note_on_c, 6, 53, 74
1, 80880, Note_on_c, 0, 48, 58
1, 80883, Note_on_c, 7, 53, 73
1, 80887, Note_on_c, 9, 46, 62
1, 80890, Note_on_c, 9, 82, 0
1, 80900, Note_on_c, 9, 46, 0
1, 80905, Note_on_c, 3, 72, 0
1, 80993, Note_on_c, 9, 82, 49
1, 81006, Note_on_c, 9, 82, 0
1, 81095, Note_on_c, 1, 29, 0
1, 81105, Note_on_c, 5, 53, 0
1, 81105, Note_on_c, 2, 53, 0
1, 81105, Note_on_c, 5, 65, 0
1, 81105, Note_on_c, 2, 60, 0
1, 81105, Note_on_c, 5, 60, 0
1, 81105, Note_on_c, 2, 57, 0
1, 81105, Note_on_c, 0, 65, 0
1, 81105, Note_on_c, 0, 57, 0
1, 81105, Note_on_c, 6, 60, 0
1, 81105, Note_on_c, 0, 60, 0
1, 81105, Note_on_c, 5, 57, 0
1, 81105, Note_on_c, 7, 60, 0
1, 81105, Note_on_c, 2, 65, 0
1, 81114, Note_on_c, 5, 53, 81
1, 81115, Note_on_c, 9, 54, 73
1, 81116, Note_on_c, 2, 60, 80
1, 81116, Note_on_c, 2, 65, 78
1, 81116, Note_on_c, 7, 60, 79
1, 81120, Note_on_c, 0, 53, 84
1, 81120, Note_on_c, 0, 65, 85
1, 81120, Note_on_c, 5, 57, 80
1, 81120, Note_on_c, 9, 40, 115
1, 81121, Note_on_c, 0, 60, 86
1, 81123, Note_on_c, 0, 57, 83
1, 81123, Note_on_c, 2, 53, 82
1, 81123, Note_on_c, 6, 60, 80
1, 81123, Note_on_c, 9, 82, 63
1, 81124, Note_on_c, 2, 57, 78
1, 81126, Note_on_c, 5, 65, 82
1, 81128, Note_on_c, 9, 54, 0
1, 81128, Note_on_c, 5, 60, 82
1, 81128, Note_on_c, 9, 44, 52
1, 81133, Note_on_c, 9, 40, 0
1, 81136, Note_on_c, 9, 82, 0
1, 81141, Note_on_c, 9, 44, 0
1, 81244, Note_on_c, 9, 82, 48
1, 81247, Note_on_c, 1, 29, 94
1, 81257, Note_on_c, 9, 82, 0
1, 81335, Note_on_c, 1, 29, 0
1, 81345, Note_on_c, 2, 53, 0
1, 81345, Note_on_c, 5, 53, 0
1, 81345, Note_on_c, 7, 53, 0
1, 81345, Note_on_c, 0, 48, 0
1, 81345, Note_on_c, 6, 53, 0
1, 81345, Note_on_c, 13, 65, 0
1, 81353, Note_on_c, 9, 82, 31
1, 81353, Note_on_c, 13, 65, 76
1, 81354, Note_on_c, 7, 53, 70
1, 81357, Note_on_c, 13, 77, 76
1, 81358, Note_on_c, 6, 53, 74
1, 81358, Note_on_c, 9, 46, 62
1, 81360, Note_on_c, 1, 36, 96
1, 81363, Note_on_c, 5, 53, 60
1, 81365, Note_on_c, 2, 53, 62
1, 81366, Note_on_c, 9, 82, 0
1, 81371, Note_on_c, 9, 46, 0
1, 81455, Note_on_c, 1, 36, 0
1, 81472, Note_on_c, 9, 82, 48
1, 81474, Note_on_c, 1, 38, 100
1, 81480, Note_on_c, 9, 36, 90
1, 81485, Note_on_c, 9, 82, 0
1, 81493, Note_on_c, 9, 36, 0
1, 81540, Control_c, 11, 101, 0
1, 81545, Control_c, 11, 100, 0
1, 81550, Control_c, 11, 6, 5
1, 81575, Note_on_c, 1, 38, 0
1, 81585, Note_on_c, 2, 53, 0
1, 81585, Note_on_c, 5, 53, 0
1, 81585, Note_on_c, 6, 53, 0
1, 81585, Note_on_c, 13, 77, 0
1, 81585, Note_on_c, 7, 53, 0
1, 81585, Note_on_c, 13, 65, 0
1, 81585, Note_on_c, 5, 60, 0
1, 81585, Note_on_c, 5, 65, 0
1, 81585, Note_on_c, 2, 57, 0
1, 81585, Note_on_c, 6, 60, 0
1, 81585, Note_on_c, 0, 57, 0
1, 81585, Note_on_c, 0, 60, 0
1, 81585, Note_on_c, 5, 57, 0
1, 81585, Note_on_c, 0, 65, 0
1, 81585, Note_on_c, 0, 53, 0
1, 81585, Note_on_c, 7, 60, 0
1, 81585, Note_on_c, 2, 65, 0
1, 81585, Note_on_c, 2, 60, 0
1, 81585, Note_on_c, 6, 57, 0
1, 81585, Note_on_c, 7, 65, 0
1, 81585, Note_on_c, 7, 57, 0
1, 81585, Note_on_c, 6, 65, 0
1, 81585, Note_on_c, 0, 41, 0
1, 81585, Pitch_bend_c, 11, 0
1, 81592, Note_on_c, 2, 53, 78
1, 81593, Note_on_c, 2, 65, 81
1, 81594, Note_on_c, 6, 72, 93
1, 81597, Note_on_c, 0, 53, 86
1, 81597, Note_on_c, 1, 41, 101
1, 81597, Note_on_c, 9, 46, 67
1, 81597, Note_on_c, 13, 84, 75
1, 81598, Note_on_c, 7, 65, 82
1, 81599, Note_on_c, 9, 82, 62
1, 81600, Note_on_c, 9, 36, 115
1, 81600, Note_on_c, 9, 57, 15
1, 81600, Note_on_c, 11, 65, 98
1, 81602, Note_on_c, 0, 72, 97
1, 81602, Note_on_c, 0, 41, 82
1, 81602, Note_on_c, 13, 72, 75
1, 81603, Note_on_c, 0, 84, 94
1, 81603, Note_on_c, 5, 53, 78
1, 81605, Note_on_c, 2, 57, 81
1, 81606, Note_on_c, 2, 60, 79
1, 81606, Note_on_c, 5, 60, 78
1, 81606, Note_on_c, 5, 57, 81
1, 81608, Note_on_c, 5, 65, 82
1, 81608, Note_on_c, 10, 41, 48
1, 81610, Note_on_c, 9, 46, 0
1, 81612, Note_on_c, 9, 82, 0
1, 81613, Note_on_c, 9, 57, 0
1, 81613, Note_on_c, 9, 36, 0
1, 81625, Note_on_c, 10, 41, 0
1, 81640, Note_on_c, 9, 57, 17
1, 81645, Note_on_c, 10, 41, 47
1, 81645, Pitch_bend_c, 11, 358
1, 81653, Note_on_c, 9, 57, 0
1, 81655, Pitch_bend_c, 11, 1070
1, 81665, Note_on_c, 10, 41, 0
1, 81665, Pitch_bend_c, 11, 1782
1, 81675, Pitch_bend_c, 11, 2494
1, 81678, Note_on_c, 10, 41, 52
1, 81680, Note_on_c, 9, 57, 20
1, 81685, Pitch_bend_c, 11, 3207
1, 81693, Note_on_c, 9, 57, 0
1, 81695, Pitch_bend_c, 11, 3919
1, 81700, Note_on_c, 10, 41, 0
1, 81705, Pitch_bend_c, 11, 4631
1, 81712, Note_on_c, 9, 82, 49
1, 81715, Pitch_bend_c, 11, 5343
1, 81720, Note_on_c, 9, 57, 22
1, 81723, Note_on_c, 10, 41, 54
1, 81725, Note_on_c, 9, 82, 0
1, 81725, Pitch_bend_c, 11, 6056
1, 81733, Note_on_c, 9, 57, 0
1, 81735, Pitch_bend_c, 11, 6768
1, 81740, Note_on_c, 10, 41, 0
1, 81745, Pitch_bend_c, 11, 7480
1, 81755, Pitch_bend_c, 11, 8192
1, 81760, Note_on_c, 9, 57, 25
1, 81767, Note_on_c, 10, 41, 53
1, 81773, Note_on_c, 9, 57, 0
1, 81785, Note_on_c, 10, 41, 0
1, 81796, Note_on_c, 10, 41, 56
1, 81800, Note_on_c, 9, 57, 28
1, 81813, Note_on_c, 9, 57, 0
1, 81815, Note_on_c, 10, 41, 0
1, 81815, Note_on_c, 1, 41, 0
1, 81825, Note_on_c, 5, 53, 0
1, 81825, Note_on_c, 0, 84, 0
1, 81825, Note_on_c, 13, 72, 0
1, 81825, Note_on_c, 0, 72, 0
1, 81825, Note_on_c, 13, 84, 0
1, 81825, Note_on_c, 6, 72, 0
1, 81825, Note_on_c, 2, 53, 0
1, 81833, Note_on_c, 13, 82, 76
1, 81835, Note_on_c, 13, 70, 77
1, 81837, Note_on_c, 0, 82, 85
1, 81837, Note_on_c, 1, 41, 94
1, 81839, Note_on_c, 0, 70, 84
1, 81840, Note_on_c, 5, 53, 62
1, 81840, Note_on_c, 9, 40, 115
1, 81840, Note_on_c, 9, 57, 30
1, 81840, Note_on_c, 10, 41, 57
1, 81841, Note_on_c, 9, 82, 34
1, 81842, Note_on_c, 9, 46, 76
1, 81843, Note_on_c, 6, 70, 89
1, 81843, Note_on_c, 7, 69, 70
1, 81843, Note_on_c, 11, 69, 98
1, 81844, Note_on_c, 2, 53, 63
1, 81853, Note_on_c, 9, 57, 0
1, 81853, Note_on_c, 9, 40, 0
1, 81854, Note_on_c, 9, 82, 0
1, 81855, Note_on_c, 9, 46, 0
1, 81860, Note_on_c, 10, 41, 0
1, 81880, Note_on_c, 9, 57, 33
1, 81888, Note_on_c, 10, 41, 62
1, 81893, Note_on_c, 9, 57, 0
1, 81905, Note_on_c, 10, 41, 0
1, 81920, Note_on_c, 9, 57, 35
1, 81920, Note_on_c, 10, 41, 64
1, 81933, Note_on_c, 9, 57, 0
1, 81940, Note_on_c, 10, 41, 0
1, 81960, Note_on_c, 9, 57, 38
1, 81960, Note_on_c, 9, 82, 50
1, 81962, Note_on_c, 10, 41, 66
1, 81973, Note_on_c, 9, 82, 0
1, 81973, Note_on_c, 9, 57, 0
1, 81980, Note_on_c, 10, 41, 0
1, 81995, Note_on_c, 10, 41, 68
1, 82000, Note_on_c, 9, 57, 41
1, 82013, Note_on_c, 9, 57, 0
1, 82015, Note_on_c, 10, 41, 0
1, 82040, Note_on_c, 9, 57, 43
1, 82044, Note_on_c, 10, 41, 70
1, 82053, Note_on_c, 9, 57, 0
1, 82055, Note_on_c, 1, 41, 0
1, 82065, Note_on_c, 10, 41, 0
1, 82065, Note_on_c, 2, 53, 0
1, 82065, Note_on_c, 11, 69, 0
1, 82065, Note_on_c, 6, 70, 0
1, 82065, Note_on_c, 5, 53, 0
1, 82065, Note_on_c, 0, 70, 0
1, 82065, Note_on_c, 0, 82, 0
1, 82065, Note_on_c, 13, 70, 0
1, 82065, Note_on_c, 13, 82, 0
1, 82065, Note_on_c, 5, 65, 0
1, 82065, Note_on_c, 5, 57, 0
1, 82065, Note_on_c, 5, 60, 0
1, 82065, Note_on_c, 2, 60, 0
1, 82065, Note_on_c, 2, 57, 0
1, 82065, Note_on_c, 11, 65, 0
1, 82065, Note_on_c, 7, 65, 0
1, 82065, Note_on_c, 2, 65, 0
1, 82073, Note_on_c, 2, 53, 81
1, 82073, Note_on_c, 2, 60, 79
1, 82073, Note_on_c, 5, 60, 79
1, 82075, Note_on_c, 1, 41, 101
1, 82075, Note_on_c, 2, 57, 77
1, 82075, Note_on_c, 13, 81, 74
1, 82077, Note_on_c, 9, 82, 63
1, 82077, Note_on_c, 11, 60, 100
1, 82079, Note_on_c, 0, 69, 93
1, 82080, Note_on_c, 9, 40, 115
1, 82080, Note_on_c, 9, 36, 115
1, 82080, Note_on_c, 9, 57, 46
1, 82081, Note_on_c, 5, 53, 80
1, 82081, Note_on_c, 13, 69, 73
1, 82082, Note_on_c, 2, 65, 78
1, 82082, Note_on_c, 7, 65, 79
1, 82083, Note_on_c, 0, 81, 93
1, 82083, Note_on_c, 5, 57, 77
1, 82083, Note_on_c, 9, 54, 75
1, 82085, Note_on_c, 6, 69, 92
1, 82086, Note_on_c, 5, 65, 81
1, 82087, Note_on_c, 10, 41, 73
1, 82090, Note_on_c, 9, 82, 0
1, 82093, Note_on_c, 9, 57, 0
1, 82093, Note_on_c, 9, 36, 0
1, 82093, Note_on_c, 9, 40, 0
1, 82096, Note_on_c, 9, 54, 0
1, 82105, Note_on_c, 10, 41, 0
1, 82117, Note_on_c, 10, 41, 72
1, 82120, Note_on_c, 9, 57, 48
1, 82133, Note_on_c, 9, 57, 0
1, 82135, Note_on_c, 10, 41, 0
1, 82158, Note_on_c, 10, 41, 74
1, 82160, Note_on_c, 9, 57, 51
1, 82173, Note_on_c, 9, 57, 0
1, 82175, Note_on_c, 10, 41, 0
1, 82175, Note_on_c, 1, 41, 0
1, 82185, Note_on_c, 5, 65, 0
1, 82185, Note_on_c, 5, 57, 0
1, 82185, Note_on_c, 2, 65, 0
1, 82185, Note_on_c, 5, 53, 0
1, 82185, Note_on_c, 2, 57, 0
1, 82185, Note_on_c, 5, 60, 0
1, 82185, Note_on_c, 2, 60, 0
1, 82185, Note_on_c, 2, 53, 0
1, 82193, Note_on_c, 2, 57, 68
1, 82193, Note_on_c, 5, 53, 66
1, 82193, Note_on_c, 5, 65, 65
1, 82195, Note_on_c, 2, 60, 66
1, 82195, Note_on_c, 2, 53, 67
1, 82195, Note_on_c, 5, 60, 69
1, 82196, Note_on_c, 9, 50, 113
1, 82198, Note_on_c, 2, 65, 65
1, 82198, Note_on_c, 9, 82, 54
1, 82200, Note_on_c, 9, 57, 54
1, 82201, Note_on_c, 5, 57, 65
1, 82207, Note_on_c, 1, 36, 96
1, 82208, Note_on_c, 10, 41, 79
1, 82209, Note_on_c, 9, 50, 0
1, 82211, Note_on_c, 9, 82, 0
1, 82213, Note_on_c, 9, 57, 0
1, 82225, Note_on_c, 10, 41, 0
1, 82232, Note_on_c, 10, 41, 79
1, 82240, Note_on_c, 9, 57, 56
1, 82253, Note_on_c, 9, 57, 0
1, 82255, Note_on_c, 10, 41, 0
1, 82280, Note_on_c, 9, 57, 59
1, 82283, Note_on_c, 10, 41, 83
1, 82293, Note_on_c, 9, 57, 0
1, 82295, Note_on_c, 1, 36, 0
1, 82300, Note_on_c, 10, 41, 0
1, 82305, Note_on_c, 5, 57, 0
1, 82305, Note_on_c, 2, 65, 0
1, 82305, Note_on_c, 5, 60, 0
1, 82305, Note_on_c, 2, 53, 0
1, 82305, Note_on_c, 2, 60, 0
1, 82305, Note_on_c, 5, 65, 0
1, 82305, Note_on_c, 5, 53, 0
1, 82305, Note_on_c, 2, 57, 0
1, 82305, Note_on_c, 6, 69, 0
1, 82305, Note_on_c, 0, 81, 0
1, 82305, Note_on_c, 13, 69, 0
1, 82305, Note_on_c, 0, 69, 0
1, 82305, Note_on_c, 13, 81, 0
1, 82313, Note_on_c, 2, 60, 61
1, 82315, Note_on_c, 13, 82, 75
1, 82316, Note_on_c, 5, 65, 63
1, 82317, Note_on_c, 5, 60, 63
1, 82318, Note_on_c, 13, 70, 76
1, 82319, Note_on_c, 0, 82, 86
1, 82320, Note_on_c, 9, 36, 115
1, 82320, Note_on_c, 9, 57, 61
1, 82322, Note_on_c, 2, 65, 62
1, 82322, Note_on_c, 5, 53, 63
1, 82322, Note_on_c, 7, 60, 71
1, 82322, Note_on_c, 9, 82, 43
1, 82323, Note_on_c, 0, 70, 88
1, 82323, Note_on_c, 9, 47, 115
1, 82324, Note_on_c, 2, 57, 61
1, 82325, Note_on_c, 5, 57, 65
1, 82326, Note_on_c, 1, 41, 98
1, 82326, Note_on_c, 2, 53, 61
1, 82328, Note_on_c, 6, 70, 86
1, 82328, Note_on_c, 10, 41, 83
1, 82333, Note_on_c, 9, 57, 0
1, 82333, Note_on_c, 9, 36, 0
1, 82335, Note_on_c, 9, 82, 0
1, 82336, Note_on_c, 9, 47, 0
1, 82345, Note_on_c, 10, 41, 0
1, 82357, Note_on_c, 10, 41, 87
1, 82360, Note_on_c, 9, 57, 64
1, 82373, Note_on_c, 9, 57, 0
1, 82380, Note_on_c, 10, 41, 0
1, 82397, Note_on_c, 10, 41, 88
1, 82400, Note_on_c, 9, 57, 67
1, 82405, Pitch_bend_c, 11, 7834
1, 82413, Note_on_c, 9, 57, 0
1, 82415, Note_on_c, 1, 41, 0
1, 82415, Pitch_bend_c, 11, 7122
1, 82420, Note_on_c, 10, 41, 0
1, 82425, Pitch_bend_c, 11, 6410
1, 82435, Pitch_bend_c, 11, 5698
1, 82438, Note_on_c, 9, 43, 115
1, 82440, Note_on_c, 9, 57, 69
1, 82442, Note_on_c, 9, 82, 34
1, 82442, Note_on_c, 10, 41, 92
1, 82444, Note_on_c, 1, 41, 96
1, 82445, Pitch_bend_c, 11, 4985
1, 82451, Note_on_c, 9, 43, 0
1, 82453, Note_on_c, 9, 57, 0
1, 82455, Note_on_c, 9, 82, 0
1, 82455, Pitch_bend_c, 11, 4273
1, 82465, Note_on_c, 10, 41, 0
1, 82465, Pitch_bend_c, 11, 3561
1, 82475, Pitch_bend_c, 11, 2849
1, 82480, Note_on_c, 9, 57, 72
1, 82484, Note_on_c, 10, 41, 96
1, 82485, Pitch_bend_c, 11, 2136
1, 82493, Note_on_c, 9, 57, 0
1, 82495, Pitch_bend_c, 11, 1424
1, 82505, Note_on_c, 10, 41, 0
1, 82505, Pitch_bend_c, 11, 712
1, 82515, Pitch_bend_c, 11, 0
1, 82520, Note_on_c, 9, 57, 75
1, 82521, Note_on_c, 10, 41, 95
1, 82533, Note_on_c, 9, 57, 0
1, 82535, Note_on_c, 1, 41, 0
1, 82540, Note_on_c, 10, 41, 0
1, 82545, Note_on_c, 6, 70, 0
1, 82545, Note_on_c, 2, 53, 0
1, 82545, Note_on_c, 5, 57, 0
1, 82545, Note_on_c, 2, 57, 0
1, 82545, Note_on_c, 0, 70, 0
1, 82545, Note_on_c, 7, 60, 0
1, 82545, Note_on_c, 5, 53, 0
1, 82545, Note_on_c, 2, 65, 0
1, 82545, Note_on_c, 0, 82, 0
1, 82545, Note_on_c, 13, 70, 0
1, 82545, Note_on_c, 5, 60, 0
1, 82545, Note_on_c, 5, 65, 0
1, 82545, Note_on_c, 13, 82, 0
1, 82545, Note_on_c, 2, 60, 0
1, 82545, Note_on_c, 7, 65, 0
1, 82545, Note_on_c, 11, 60, 0
1, 82545, Note_on_c, 7, 69, 0
1, 82545, Note_on_c, 0, 41, 0
1, 82545, Note_on_c, 0, 53, 0
1, 82545, Note_on_c, 13, 53, 0
1, 82545, Note_on_c, 13, 60, 0
1, 82545, Note_on_c, 13, 57, 0
1, 82552, Note_on_c, 1, 31, 101
1, 82552, Note_on_c, 5, 58, 81
1, 82552, Note_on_c, 6, 62, 82
1, 82552, Note_on_c, 13, 62, 76
1, 82553, Note_on_c, 9, 54, 50
1, 82556, Note_on_c, 5, 62, 81
1, 82557, Note_on_c, 0, 62, 86
1, 82557, Note_on_c, 2, 55, 82
1, 82557, Note_on_c, 13, 82, 74
1, 82558, Note_on_c, 0, 70, 98
1, 82558, Note_on_c, 12, 50, 82
1, 82559, Note_on_c, 0, 58, 88
1, 82559, Note_on_c, 2, 62, 82
1, 82560, Note_on_c, 0, 82, 98
1, 82560, Note_on_c, 9, 36, 115
1, 82560, Note_on_c, 9, 49, 90
1, 82560, Note_on_c, 10, 43, 102
1, 82560, Note_on_c, 12, 43, 80
1, 82560, Note_on_c, 13, 55, 77
1, 82560, Note_on_c, 13, 58, 75
1, 82561, Note_on_c, 13, 70, 73
1, 82563, Note_on_c, 0, 55, 87
1, 82563, Note_on_c, 9, 82, 64
1, 82564, Note_on_c, 2, 58, 84
1, 82564, Note_on_c, 6, 58, 83
1, 82566, Note_on_c, 9, 54, 0
1, 82566, Note_on_c, 2, 50, 85
1, 82566, Note_on_c, 5, 55, 85
1, 82567, Note_on_c, 5, 50, 85
1, 82567, Note_on_c, 7, 50, 84
1, 82573, Note_on_c, 9, 49, 0
1, 82573, Note_on_c, 9, 36, 0
1, 82576, Note_on_c, 9, 82, 0
1, 82580, Note_on_c, 10, 43, 0
1, 82674, Note_on_c, 9, 54, 34
1, 82677, Note_on_c, 9, 82, 49
1, 82687, Note_on_c, 9, 54, 0
1, 82690, Note_on_c, 9, 82, 0
1, 82755, Pitch_bend_c, 11, 8192
1, 82765, Control_c, 11, 6, 2
1, 82770, Control_c, 11, 101, 127
1, 82775, Control_c, 11, 100, 127
1, 82785, Note_on_c, 5, 50, 0
1, 82785, Note_on_c, 5, 55, 0
1, 82785, Note_on_c, 2, 50, 0
1, 82785, Note_on_c, 2, 58, 0
1, 82785, Note_on_c, 2, 62, 0
1, 82785, Note_on_c, 2, 55, 0
1, 82785, Note_on_c, 5, 62, 0
1, 82785, Note_on_c, 5, 58, 0
1, 82795, Note_on_c, 2, 58, 63
1, 82795, Note_on_c, 9, 54, 50
1, 82797, Note_on_c, 2, 55, 59
1, 82797, Note_on_c, 5, 50, 62
1, 82798, Note_on_c, 7, 55, 67
1, 82800, Note_on_c, 5, 55, 59
1, 82800, Note_on_c, 6, 55, 73
1, 82802, Note_on_c, 5, 62, 62
1, 82803, Note_on_c, 0, 50, 54
1, 82803, Note_on_c, 2, 50, 63
1, 82803, Note_on_c, 9, 59, 52
1, 82803, Note_on_c, 9, 82, 30
1, 82804, Note_on_c, 2, 62, 61
1, 82806, Note_on_c, 5, 58, 60
1, 82808, Note_on_c, 9, 54, 0
1, 82816, Note_on_c, 9, 82, 0
1, 82816, Note_on_c, 9, 59, 0
1, 82905, Note_on_c, 5, 58, 0
1, 82905, Note_on_c, 2, 62, 0
1, 82905, Note_on_c, 2, 50, 0
1, 82905, Note_on_c, 5, 62, 0
1, 82905, Note_on_c, 5, 55, 0
1, 82905, Note_on_c, 5, 50, 0
1, 82905, Note_on_c, 2, 55, 0
1, 82905, Note_on_c, 2, 58, 0
1, 82916, Note_on_c, 9, 54, 34
1, 82918, Lyric_t, "There's "
1, 82918, Note_on_c, 3, 77, 91
1, 82920, Note_on_c, 9, 82, 47
1, 82921, Note_on_c, 5, 50, 53
1, 82923, Note_on_c, 2, 62, 52
1, 82923, Note_on_c, 2, 55, 54
1, 82923, Note_on_c, 2, 50, 52
1, 82923, Note_on_c, 5, 62, 53
1, 82923, Note_on_c, 5, 58, 54
1, 82925, Note_on_c, 2, 58, 55
1, 82926, Note_on_c, 5, 55, 55
1, 82929, Note_on_c, 9, 54, 0
1, 82933, Note_on_c, 9, 82, 0
1, 82990, Note_on_c, 3, 77, 0
1, 83015, Note_on_c, 1, 31, 0
1, 83025, Note_on_c, 5, 55, 0
1, 83025, Note_on_c, 2, 58, 0
1, 83025, Note_on_c, 5, 58, 0
1, 83025, Note_on_c, 5, 62, 0
1, 83025, Note_on_c, 2, 50, 0
1, 83025, Note_on_c, 2, 55, 0
1, 83025, Note_on_c, 2, 62, 0
1, 83025, Note_on_c, 5, 50, 0
1, 83025, Note_on_c, 6, 55, 0
1, 83025, Note_on_c, 6, 58, 0
1, 83025, Note_on_c, 0, 55, 0
1, 83025, Note_on_c, 0, 58, 0
1, 83025, Note_on_c, 0, 62, 0
1, 83025, Note_on_c, 6, 62, 0
1, 83032, Note_on_c, 7, 58, 81
1, 83033, Note_on_c, 5, 50, 80
1, 83033, Note_on_c, 6, 55, 83
1, 83035, Note_on_c, 2, 62, 79
1, 83036, Note_on_c, 2, 50, 80
1, 83036, Note_on_c, 7, 62, 82
1, 83038, Note_on_c, 2, 55, 81
1, 83038, Note_on_c, 5, 58, 82
1, 83038, Note_on_c, 6, 58, 83
1, 83038, Note_on_c, 9, 59, 68
1, 83039, Note_on_c, 0, 58, 84
1, 83040, Note_on_c, 6, 50, 79
1, 83040, Note_on_c, 9, 82, 62
1, 83040, Note_on_c, 9, 40, 115
1, 83041, Note_on_c, 1, 43, 103
1, 83042, Note_on_c, 0, 67, 83
1, 83042, Note_on_c, 9, 54, 74
1, 83043, Note_on_c, 0, 62, 87
1, 83043, Note_on_c, 0, 55, 87
1, 83043, Note_on_c, 2, 58, 82
1, 83043, Note_on_c, 6, 62, 79
1, 83046, Note_on_c, 3, 82, 104
1, 83047, Note_on_c, 5, 62, 82
1, 83048, Note_on_c, 5, 55, 81
1, 83051, Note_on_c, 9, 59, 0
1, 83053, Note_on_c, 9, 40, 0
1, 83053, Note_on_c, 9, 82, 0
1, 83055, Note_on_c, 9, 54, 0
1, 83135, Note_on_c, 1, 43, 0
1, 83156, Note_on_c, 9, 82, 50
1, 83159, Note_on_c, 9, 54, 35
1, 83165, Note_on_c, 1, 34, 94
1, 83169, Note_on_c, 9, 82, 0
1, 83172, Note_on_c, 9, 54, 0
1, 83225, Note_on_c, 3, 82, 0
1, 83255, Note_on_c, 1, 34, 0
1, 83265, Note_on_c, 5, 55, 0
1, 83265, Note_on_c, 5, 62, 0
1, 83265, Note_on_c, 2, 58, 0
1, 83265, Note_on_c, 5, 58, 0
1, 83265, Note_on_c, 2, 55, 0
1, 83265, Note_on_c, 2, 50, 0
1, 83265, Note_on_c, 2, 62, 0
1, 83265, Note_on_c, 5, 50, 0
1, 83265, Note_on_c, 0, 50, 0
1, 83265, Note_on_c, 7, 50, 0
1, 83265, Note_on_c, 13, 70, 0
1, 83265, Note_on_c, 13, 82, 0
1, 83265, Pitch_bend_c, 3, 4971
1, 83272, Note_on_c, 2, 50, 64
1, 83272, Note_on_c, 5, 58, 65
1, 83272, Note_on_c, 9, 59, 49
1, 83275, Note_on_c, 9, 82, 31
1, 83276, Note_on_c, 5, 50, 62
1, 83276, Note_on_c, 7, 50, 71
1, 83277, Lyric_t, "so "
1, 83277, Note_on_c, 2, 55, 66
1, 83277, Note_on_c, 3, 84, 95
1, 83277, Note_on_c, 5, 62, 62
1, 83278, Note_on_c, 13, 84, 77
1, 83281, Note_on_c, 0, 50, 58
1, 83283, Note_on_c, 2, 58, 66
1, 83283, Note_on_c, 13, 72, 77
1, 83284, Note_on_c, 1, 36, 95
1, 83284, Note_on_c, 2, 62, 64
1, 83285, Note_on_c, 9, 59, 0
1, 83286, Note_on_c, 5, 55, 66
1, 83288, Note_on_c, 9, 82, 0
1, 83288, Note_on_c, 9, 54, 50
1, 83300, Pitch_bend_c, 3, 5241
1, 83301, Note_on_c, 9, 54, 0
1, 83310, Pitch_bend_c, 3, 5777
1, 83320, Pitch_bend_c, 3, 6314
1, 83330, Pitch_bend_c, 3, 6851
1, 83340, Pitch_bend_c, 3, 7387
1, 83350, Pitch_bend_c, 3, 7924
1, 83355, Pitch_bend_c, 3, 8192
1, 83375, Note_on_c, 1, 36, 0
1, 83395, Note_on_c, 9, 82, 47
1, 83396, Note_on_c, 1, 41, 101
1, 83400, Note_on_c, 9, 36, 90
1, 83406, Note_on_c, 9, 54, 36
1, 83408, Note_on_c, 9, 82, 0
1, 83413, Note_on_c, 9, 36, 0
1, 83419, Note_on_c, 9, 54, 0
1, 83495, Note_on_c, 1, 41, 0
1, 83505, Note_on_c, 5, 55, 0
1, 83505, Note_on_c, 2, 62, 0
1, 83505, Note_on_c, 13, 72, 0
1, 83505, Note_on_c, 2, 58, 0
1, 83505, Note_on_c, 0, 50, 0
1, 83505, Note_on_c, 13, 84, 0
1, 83505, Note_on_c, 5, 62, 0
1, 83505, Note_on_c, 3, 84, 0
1, 83505, Note_on_c, 2, 55, 0
1, 83505, Note_on_c, 7, 50, 0
1, 83505, Note_on_c, 5, 50, 0
1, 83505, Note_on_c, 5, 58, 0
1, 83505, Note_on_c, 2, 50, 0
1, 83505, Note_on_c, 6, 62, 0
1, 83505, Note_on_c, 0, 55, 0
1, 83505, Note_on_c, 0, 62, 0
1, 83505, Note_on_c, 0, 67, 0
1, 83505, Note_on_c, 6, 50, 0
1, 83505, Note_on_c, 0, 58, 0
1, 83505, Note_on_c, 6, 58, 0
1, 83505, Note_on_c, 7, 62, 0
1, 83505, Note_on_c, 6, 55, 0
1, 83505, Note_on_c, 7, 58, 0
1, 83505, Note_on_c, 7, 55, 0
1, 83505, Note_on_c, 13, 58, 0
1, 83505, Note_on_c, 13, 55, 0
1, 83505, Note_on_c, 12, 43, 0
1, 83505, Note_on_c, 0, 82, 0
1, 83505, Note_on_c, 12, 50, 0
1, 83505, Note_on_c, 0, 70, 0
1, 83505, Note_on_c, 13, 62, 0
1, 83512, Note_on_c, 2, 65, 77
1, 83512, Note_on_c, 7, 53, 76
1, 83513, Note_on_c, 5, 65, 78
1, 83513, Note_on_c, 7, 57, 79
1, 83516, Note_on_c, 12, 48, 80
1, 83516, Note_on_c, 13, 69, 74
1, 83518, Note_on_c, 1, 29, 98
1, 83518, Note_on_c, 7, 60, 80
1, 83518, Note_on_c, 9, 59, 68
1, 83519, Note_on_c, 0, 41, 81
1, 83519, Note_on_c, 0, 57, 82
1, 83519, Note_on_c, 0, 65, 80
1, 83519, Note_on_c, 9, 82, 62
1, 83519, Note_on_c, 13, 60, 76
1, 83520, Note_on_c, 0, 60, 80
1, 83520, Lyric_t, "ma"
1, 83520, Note_on_c, 2, 57, 77
1, 83520, Note_on_c, 3, 81, 103
1, 83520, Note_on_c, 9, 36, 115
1, 83520, Note_on_c, 13, 53, 77
1, 83521, Note_on_c, 9, 54, 49
1, 83522, Note_on_c, 5, 60, 78
1, 83522, Note_on_c, 6, 57, 79
1, 83523, Note_on_c, 2, 60, 78
1, 83523, Note_on_c, 2, 53, 80
1, 83524, Note_on_c, 5, 53, 76
1, 83524, Note_on_c, 5, 57, 77
1, 83524, Note_on_c, 6, 65, 80
1, 83525, Note_on_c, 6, 60, 77
1, 83526, Note_on_c, 12, 41, 82
1, 83526, Note_on_c, 13, 81, 77
1, 83527, Note_on_c, 6, 53, 80
1, 83528, Note_on_c, 13, 57, 76
1, 83531, Note_on_c, 9, 59, 0
1, 83532, Note_on_c, 9, 82, 0
1, 83533, Note_on_c, 9, 36, 0
1, 83534, Note_on_c, 9, 54, 0
1, 83615, Note_on_c, 1, 29, 0
1, 83625, Note_on_c, 3, 81, 0
1, 83635, Note_on_c, 9, 54, 35
1, 83640, Lyric_t, "ny "
1, 83640, Note_on_c, 3, 79, 90
1, 83646, Note_on_c, 9, 82, 50
1, 83648, Note_on_c, 9, 54, 0
1, 83659, Note_on_c, 9, 82, 0
1, 83745, Note_on_c, 13, 81, 0
1, 83745, Note_on_c, 5, 57, 0
1, 83745, Note_on_c, 5, 53, 0
1, 83745, Note_on_c, 2, 53, 0
1, 83745, Note_on_c, 2, 60, 0
1, 83745, Note_on_c, 5, 60, 0
1, 83745, Note_on_c, 2, 57, 0
1, 83745, Note_on_c, 13, 69, 0
1, 83745, Note_on_c, 5, 65, 0
1, 83745, Note_on_c, 2, 65, 0
1, 83752, Note_on_c, 13, 70, 75
1, 83754, Note_on_c, 1, 29, 96
1, 83754, Note_on_c, 2, 60, 65
1, 83755, Note_on_c, 5, 57, 65
1, 83756, Note_on_c, 2, 65, 63
1, 83756, Note_on_c, 5, 60, 64
1, 83759, Note_on_c, 2, 53, 66
1, 83759, Note_on_c, 5, 65, 66
1, 83760, Note_on_c, 0, 48, 57
1, 83760, Note_on_c, 9, 36, 115
1, 83760, Note_on_c, 9, 59, 48
1, 83762, Note_on_c, 2, 57, 66
1, 83763, Note_on_c, 13, 82, 77
1, 83764, Note_on_c, 7, 48, 70
1, 83764, Note_on_c, 9, 54, 48
1, 83765, Note_on_c, 6, 48, 73
1, 83766, Note_on_c, 5, 53, 63
1, 83767, Note_on_c, 9, 82, 32
1, 83773, Note_on_c, 9, 59, 0
1, 83773, Note_on_c, 9, 36, 0
1, 83777, Note_on_c, 9, 54, 0
1, 83780, Note_on_c, 9, 82, 0
1, 83785, Note_on_c, 3, 79, 0
1, 83874, Note_on_c, 9, 54, 35
1, 83882, Note_on_c, 9, 82, 48
1, 83885, Lyric_t, "dreams "
1, 83885, Lyric_t, "\015"
1, 83885, Note_on_c, 3, 77, 96
1, 83887, Note_on_c, 9, 54, 0
1, 83895, Note_on_c, 9, 82, 0
1, 83985, Note_on_c, 5, 53, 0
1, 83985, Note_on_c, 13, 82, 0
1, 83985, Note_on_c, 2, 57, 0
1, 83985, Note_on_c, 5, 65, 0
1, 83985, Note_on_c, 2, 53, 0
1, 83985, Note_on_c, 5, 60, 0
1, 83985, Note_on_c, 2, 65, 0
1, 83985, Note_on_c, 5, 57, 0
1, 83985, Note_on_c, 2, 60, 0
1, 83985, Note_on_c, 13, 70, 0
1, 83985, Note_on_c, 6, 53, 0
1, 83985, Note_on_c, 6, 60, 0
1, 83985, Note_on_c, 6, 65, 0
1, 83985, Note_on_c, 6, 57, 0
1, 83985, Note_on_c, 0, 60, 0
1, 83985, Note_on_c, 0, 65, 0
1, 83985, Note_on_c, 0, 57, 0
1, 83985, Note_on_c, 7, 60, 0
1, 83985, Note_on_c, 7, 57, 0
1, 83985, Note_on_c, 7, 53, 0
1, 83992, Note_on_c, 2, 65, 82
1, 83992, Note_on_c, 2, 60, 83
1, 83992, Note_on_c, 6, 60, 84
1, 83993, Note_on_c, 6, 53, 81
1, 83993, Note_on_c, 9, 82, 63
1, 83993, Note_on_c, 13, 81, 77
1, 83994, Note_on_c, 7, 60, 82
1, 83995, Note_on_c, 9, 54, 75
1, 83996, Note_on_c, 2, 57, 84
1, 83997, Note_on_c, 0, 60, 89
1, 83997, Note_on_c, 0, 53, 88
1, 83997, Note_on_c, 13, 69, 73
1, 83998, Note_on_c, 5, 57, 83
1, 83998, Note_on_c, 7, 57, 85
1, 83999, Note_on_c, 0, 65, 85
1, 84000, Note_on_c, 9, 40, 115
1, 84001, Note_on_c, 0, 57, 89
1, 84002, Note_on_c, 6, 57, 80
1, 84003, Note_on_c, 5, 53, 81
1, 84003, Note_on_c, 6, 65, 83
1, 84005, Note_on_c, 5, 60, 84
1, 84005, Note_on_c, 9, 59, 69
1, 84006, Note_on_c, 9, 82, 0
1, 84006, Note_on_c, 2, 53, 84
1, 84006, Note_on_c, 5, 65, 83
1, 84007, Note_on_c, 7, 53, 81
1, 84008, Note_on_c, 9, 54, 0
1, 84013, Note_on_c, 9, 40, 0
1, 84018, Note_on_c, 9, 59, 0
1, 84065, Note_on_c, 3, 77, 0
1, 84105, Pitch_bend_c, 3, 4971
1, 84122, Lyric_t, "That "
1, 84122, Note_on_c, 3, 79, 90
1, 84126, Note_on_c, 9, 82, 56
1, 84126, Note_on_c, 9, 54, 37
1, 84139, Note_on_c, 9, 54, 0
1, 84139, Note_on_c, 9, 82, 0
1, 84140, Pitch_bend_c, 3, 5241
1, 84150, Pitch_bend_c, 3, 5777
1, 84160, Pitch_bend_c, 3, 6314
1, 84170, Pitch_bend_c, 3, 6851
1, 84180, Pitch_bend_c, 3, 7387
1, 84190, Pitch_bend_c, 3, 7924
1, 84195, Pitch_bend_c, 3, 8192
1, 84215, Note_on_c, 1, 29, 0
1, 84225, Note_on_c, 7, 53, 0
1, 84225, Note_on_c, 5, 65, 0
1, 84225, Note_on_c, 2, 53, 0
1, 84225, Note_on_c, 5, 60, 0
1, 84225, Note_on_c, 5, 53, 0
1, 84225, Note_on_c, 5, 57, 0
1, 84225, Note_on_c, 13, 69, 0
1, 84225, Note_on_c, 2, 57, 0
1, 84225, Note_on_c, 13, 81, 0
1, 84225, Note_on_c, 2, 60, 0
1, 84225, Note_on_c, 2, 65, 0
1, 84225, Note_on_c, 0, 48, 0
1, 84232, Note_on_c, 5, 60, 60
1, 84234, Note_on_c, 9, 59, 48
1, 84237, Note_on_c, 13, 65, 73
1, 84238, Note_on_c, 5, 65, 60
1, 84238, Note_on_c, 7, 53, 68
1, 84239, Note_on_c, 2, 53, 62
1, 84239, Note_on_c, 5, 57, 60
1, 84240, Note_on_c, 0, 48, 54
1, 84240, Note_on_c, 13, 77, 73
1, 84241, Note_on_c, 1, 34, 98
1, 84242, Note_on_c, 2, 60, 64
1, 84245, Note_on_c, 9, 82, 44
1, 84246, Note_on_c, 2, 57, 62
1, 84246, Note_on_c, 5, 53, 61
1, 84247, Note_on_c, 9, 59, 0
1, 84247, Note_on_c, 9, 54, 48
1, 84248, Note_on_c, 2, 65, 63
1, 84258, Note_on_c, 9, 82, 0
1, 84260, Note_on_c, 9, 54, 0
1, 84305, Note_on_c, 3, 79, 0
1, 84335, Note_on_c, 1, 34, 0
1, 84345, Note_on_c, 2, 65, 0
1, 84345, Note_on_c, 5, 53, 0
1, 84345, Note_on_c, 2, 57, 0
1, 84345, Note_on_c, 2, 60, 0
1, 84345, Note_on_c, 5, 57, 0
1, 84345, Note_on_c, 2, 53, 0
1, 84345, Note_on_c, 5, 65, 0
1, 84345, Note_on_c, 5, 60, 0
1, 84352, Note_on_c, 1, 36, 96
1, 84353, Note_on_c, 2, 60, 53
1, 84355, Note_on_c, 5, 65, 52
1, 84357, Lyric_t, "we "
1, 84357, Note_on_c, 2, 65, 54
1, 84357, Note_on_c, 3, 79, 89
1, 84358, Note_on_c, 5, 57, 53
1, 84361, Note_on_c, 2, 57, 51
1, 84362, Note_on_c, 5, 53, 54
1, 84362, Note_on_c, 9, 82, 31
1, 84363, Note_on_c, 5, 60, 52
1, 84364, Note_on_c, 2, 53, 54
1, 84368, Note_on_c, 9, 54, 34
1, 84375, Note_on_c, 9, 82, 0
1, 84381, Note_on_c, 9, 54, 0
1, 84455, Note_on_c, 1, 36, 0
1, 84465, Note_on_c, 2, 53, 0
1, 84465, Note_on_c, 5, 60, 0
1, 84465, Note_on_c, 5, 53, 0
1, 84465, Note_on_c, 2, 57, 0
1, 84465, Note_on_c, 5, 57, 0
1, 84465, Note_on_c, 2, 65, 0
1, 84465, Note_on_c, 5, 65, 0
1, 84465, Note_on_c, 2, 60, 0
1, 84465, Note_on_c, 13, 77, 0
1, 84465, Note_on_c, 0, 48, 0
1, 84465, Note_on_c, 7, 53, 0
1, 84465, Note_on_c, 13, 65, 0
1, 84465, Note_on_c, 6, 65, 0
1, 84465, Note_on_c, 6, 57, 0
1, 84465, Note_on_c, 0, 57, 0
1, 84465, Note_on_c, 0, 65, 0
1, 84465, Note_on_c, 7, 57, 0
1, 84465, Note_on_c, 0, 53, 0
1, 84465, Note_on_c, 0, 60, 0
1, 84465, Note_on_c, 7, 60, 0
1, 84465, Note_on_c, 6, 53, 0
1, 84465, Note_on_c, 6, 60, 0
1, 84465, Note_on_c, 6, 48, 0
1, 84465, Note_on_c, 7, 48, 0
1, 84465, Note_on_c, 13, 57, 0
1, 84465, Note_on_c, 12, 41, 0
1, 84465, Note_on_c, 13, 53, 0
1, 84465, Note_on_c, 13, 60, 0
1, 84465, Note_on_c, 0, 41, 0
1, 84465, Note_on_c, 12, 48, 0
1, 84472, Note_on_c, 5, 51, 85
1, 84473, Note_on_c, 7, 67, 82
1, 84474, Note_on_c, 9, 59, 71
1, 84475, Note_on_c, 13, 67, 76
1, 84476, Note_on_c, 2, 67, 85
1, 84476, Note_on_c, 6, 67, 81
1, 84476, Note_on_c, 7, 63, 82
1, 84477, Note_on_c, 2, 51, 84
1, 84477, Note_on_c, 5, 58, 84
1, 84477, Note_on_c, 12, 58, 80
1, 84477, Note_on_c, 13, 58, 73
1, 84478, Note_on_c, 2, 63, 82
1, 84478, Note_on_c, 7, 51, 83
1, 84480, Note_on_c, 9, 36, 115
1, 84481, Note_on_c, 0, 63, 86
1, 84481, Note_on_c, 1, 39, 104
1, 84481, Note_on_c, 6, 51, 84
1, 84482, Note_on_c, 0, 51, 90
1, 84482, Note_on_c, 0, 55, 90
1, 84482, Note_on_c, 7, 58, 85
1, 84483, Note_on_c, 0, 58, 86
1, 84483, Note_on_c, 2, 58, 86
1, 84483, Note_on_c, 9, 82, 66
1, 84483, Note_on_c, 12, 51, 80
1, 84483, Note_on_c, 13, 79, 77
1, 84484, Note_on_c, 5, 67, 84
1, 84485, Note_on_c, 13, 63, 75
1, 84486, Note_on_c, 6, 63, 81
1, 84487, Note_on_c, 9, 59, 0
1, 84487, Note_on_c, 5, 63, 82
1, 84487, Note_on_c, 13, 51, 76
1, 84488, Note_on_c, 6, 58, 81
1, 84488, Note_on_c, 9, 54, 49
1, 84493, Note_on_c, 9, 36, 0
1, 84496, Note_on_c, 9, 82, 0
1, 84501, Note_on_c, 9, 54, 0
1, 84597, Note_on_c, 9, 54, 36
1, 84603, Note_on_c, 9, 82, 50
1, 84610, Note_on_c, 9, 54, 0
1, 84616, Note_on_c, 9, 82, 0
1, 84705, Note_on_c, 5, 63, 0
1, 84705, Note_on_c, 5, 67, 0
1, 84705, Note_on_c, 2, 58, 0
1, 84705, Note_on_c, 6, 51, 0
1, 84705, Note_on_c, 2, 63, 0
1, 84705, Note_on_c, 5, 58, 0
1, 84705, Note_on_c, 2, 51, 0
1, 84705, Note_on_c, 2, 67, 0
1, 84705, Note_on_c, 5, 51, 0
1, 84712, Note_on_c, 5, 67, 62
1, 84713, Note_on_c, 9, 82, 30
1, 84716, Note_on_c, 2, 58, 63
1, 84718, Note_on_c, 6, 51, 74
1, 84719, Note_on_c, 9, 54, 47
1, 84721, Note_on_c, 2, 63, 66
1, 84722, Note_on_c, 0, 46, 55
1, 84722, Note_on_c, 5, 63, 66
1, 84723, Note_on_c, 9, 59, 48
1, 84724, Note_on_c, 2, 51, 63
1, 84725, Note_on_c, 5, 58, 63
1, 84726, Note_on_c, 9, 82, 0
1, 84726, Note_on_c, 5, 51, 63
1, 84727, Note_on_c, 2, 67, 62
1, 84732, Note_on_c, 9, 54, 0
1, 84736, Note_on_c, 9, 59, 0
1, 84825, Note_on_c, 3, 79, 0
1, 84838, Note_on_c, 9, 54, 34
1, 84843, Note_on_c, 9, 82, 47
1, 84846, Lyric_t, "have "
1, 84846, Note_on_c, 3, 77, 92
1, 84851, Note_on_c, 9, 54, 0
1, 84856, Note_on_c, 9, 82, 0
1, 84935, Note_on_c, 1, 39, 0
1, 84945, Note_on_c, 3, 77, 0
1, 84945, Note_on_c, 2, 67, 0
1, 84945, Note_on_c, 5, 51, 0
1, 84945, Note_on_c, 5, 58, 0
1, 84945, Note_on_c, 2, 51, 0
1, 84945, Note_on_c, 5, 63, 0
1, 84945, Note_on_c, 2, 63, 0
1, 84945, Note_on_c, 6, 51, 0
1, 84945, Note_on_c, 2, 58, 0
1, 84945, Note_on_c, 5, 67, 0
1, 84945, Note_on_c, 6, 58, 0
1, 84945, Note_on_c, 6, 63, 0
1, 84945, Note_on_c, 13, 79, 0
1, 84945, Note_on_c, 12, 51, 0
1, 84945, Note_on_c, 0, 58, 0
1, 84945, Note_on_c, 7, 58, 0
1, 84945, Note_on_c, 0, 55, 0
1, 84945, Note_on_c, 0, 51, 0
1, 84945, Note_on_c, 0, 63, 0
1, 84945, Note_on_c, 7, 51, 0
1, 84945, Note_on_c, 12, 58, 0
1, 84945, Note_on_c, 7, 63, 0
1, 84945, Note_on_c, 6, 67, 0
1, 84945, Note_on_c, 13, 67, 0
1, 84945, Note_on_c, 7, 67, 0
1, 84952, Note_on_c, 13, 79, 74
1, 84953, Note_on_c, 7, 51, 79
1, 84954, Note_on_c, 2, 51, 78
1, 84954, Note_on_c, 2, 63, 79
1, 84954, Note_on_c, 5, 58, 79
1, 84954, Note_on_c, 6, 67, 82
1, 84956, Note_on_c, 2, 67, 78
1, 84956, Note_on_c, 7, 67, 80
1, 84956, Note_on_c, 12, 58, 80
1, 84957, Note_on_c, 7, 58, 81
1, 84957, Note_on_c, 9, 82, 64
1, 84957, Note_on_c, 12, 51, 82
1, 84958, Note_on_c, 5, 63, 79
1, 84959, Note_on_c, 0, 51, 84
1, 84960, Note_on_c, 2, 58, 81
1, 84960, Note_on_c, 9, 54, 73
1, 84960, Note_on_c, 9, 40, 115
1, 84961, Note_on_c, 0, 55, 85
1, 84962, Note_on_c, 0, 58, 85
1, 84962, Note_on_c, 0, 63, 86
1, 84962, Note_on_c, 1, 39, 101
1, 84962, Note_on_c, 9, 59, 68
1, 84963, Note_on_c, 6, 58, 82
1, 84963, Note_on_c, 7, 63, 80
1, 84964, Note_on_c, 13, 67, 77
1, 84966, Note_on_c, 5, 51, 79
1, 84966, Note_on_c, 5, 67, 80
1, 84968, Note_on_c, 6, 63, 78
1, 84968, Note_on_c, 6, 51, 78
1, 84970, Note_on_c, 9, 82, 0
1, 84973, Note_on_c, 9, 40, 0
1, 84973, Note_on_c, 9, 54, 0
1, 84975, Note_on_c, 9, 59, 0
1, 85075, Note_on_c, 9, 82, 46
1, 85076, Note_on_c, 9, 54, 38
1, 85088, Note_on_c, 9, 82, 0
1, 85089, Note_on_c, 9, 54, 0
1, 85116, Lyric_t, "gi"
1, 85116, Note_on_c, 3, 79, 87
1, 85185, Note_on_c, 5, 67, 0
1, 85185, Note_on_c, 5, 51, 0
1, 85185, Note_on_c, 13, 67, 0
1, 85185, Note_on_c, 2, 58, 0
1, 85185, Note_on_c, 5, 63, 0
1, 85185, Note_on_c, 2, 67, 0
1, 85185, Note_on_c, 5, 58, 0
1, 85185, Note_on_c, 2, 63, 0
1, 85185, Note_on_c, 2, 51, 0
1, 85185, Note_on_c, 13, 79, 0
1, 85185, Note_on_c, 0, 46, 0
1, 85185, Note_on_c, 13, 63, 0
1, 85185, Note_on_c, 13, 58, 0
1, 85192, Note_on_c, 2, 58, 62
1, 85192, Note_on_c, 13, 63, 75
1, 85193, Note_on_c, 5, 51, 61
1, 85194, Note_on_c, 2, 51, 60
1, 85195, Note_on_c, 13, 75, 74
1, 85197, Note_on_c, 0, 46, 54
1, 85197, Note_on_c, 2, 63, 63
1, 85198, Note_on_c, 5, 58, 60
1, 85198, Note_on_c, 9, 82, 33
1, 85201, Note_on_c, 9, 59, 52
1, 85202, Note_on_c, 9, 54, 50
1, 85208, Note_on_c, 2, 67, 62
1, 85208, Note_on_c, 5, 63, 62
1, 85208, Note_on_c, 5, 67, 61
1, 85210, Note_on_c, 3, 79, 0
1, 85211, Note_on_c, 9, 82, 0
1, 85212, Lyric_t, "ven "
1, 85212, Note_on_c, 3, 77, 93
1, 85214, Note_on_c, 9, 59, 0
1, 85215, Note_on_c, 9, 54, 0
1, 85310, Note_on_c, 3, 77, 0
1, 85318, Lyric_t, "up. "
1, 85318, Lyric_t, "\015"
1, 85318, Note_on_c, 3, 77, 102
1, 85320, Note_on_c, 9, 36, 90
1, 85320, Note_on_c, 9, 82, 46
1, 85326, Note_on_c, 9, 54, 37
1, 85333, Note_on_c, 9, 82, 0
1, 85333, Note_on_c, 9, 36, 0
1, 85339, Note_on_c, 9, 54, 0
1, 85410, Note_on_c, 3, 77, 0
1, 85415, Note_on_c, 1, 39, 0
1, 85425, Note_on_c, 5, 67, 0
1, 85425, Note_on_c, 5, 63, 0
1, 85425, Note_on_c, 2, 67, 0
1, 85425, Note_on_c, 5, 58, 0
1, 85425, Note_on_c, 2, 63, 0
1, 85425, Note_on_c, 0, 46, 0
1, 85425, Note_on_c, 13, 75, 0
1, 85425, Note_on_c, 2, 51, 0
1, 85425, Note_on_c, 5, 51, 0
1, 85425, Note_on_c, 13, 63, 0
1, 85425, Note_on_c, 2, 58, 0
1, 85425, Note_on_c, 6, 51, 0
1, 85425, Note_on_c, 6, 63, 0
1, 85425, Note_on_c, 7, 63, 0
1, 85425, Note_on_c, 6, 58, 0
1, 85425, Note_on_c, 0, 63, 0
1, 85425, Note_on_c, 0, 58, 0
1, 85425, Note_on_c, 0, 55, 0
1, 85425, Note_on_c, 0, 51, 0
1, 85425, Note_on_c, 12, 51, 0
1, 85425, Note_on_c, 7, 58, 0
1, 85425, Note_on_c, 12, 58, 0
1, 85425, Note_on_c, 7, 67, 0
1, 85425, Note_on_c, 6, 67, 0
1, 85425, Note_on_c, 7, 51, 0
1, 85425, Note_on_c, 13, 51, 0
1, 85427, Note_on_c, 3, 72, 105
1, 85432, Note_on_c, 13, 58, 74
1, 85433, Note_on_c, 5, 58, 78
1, 85434, Note_on_c, 13, 65, 77
1, 85435, Note_on_c, 2, 53, 79
1, 85435, Note_on_c, 5, 62, 82
1, 85435, Note_on_c, 13, 50, 73
1, 85436, Note_on_c, 12, 58, 82
1, 85437, Note_on_c, 0, 65, 86
1, 85437, Note_on_c, 5, 53, 80
1, 85437, Note_on_c, 5, 65, 81
1, 85437, Note_on_c, 12, 50, 81
1, 85438, Note_on_c, 0, 62, 83
1, 85438, Note_on_c, 2, 65, 82
1, 85438, Note_on_c, 7, 62, 82
1, 85439, Note_on_c, 2, 62, 82
1, 85439, Note_on_c, 6, 58, 79
1, 85439, Note_on_c, 7, 53, 82
1, 85440, Note_on_c, 9, 36, 115
1, 85441, Note_on_c, 0, 58, 82
1, 85441, Note_on_c, 6, 65, 78
1, 85442, Note_on_c, 1, 34, 101
1, 85442, Note_on_c, 9, 54, 48
1, 85443, Note_on_c, 0, 46, 86
1, 85443, Note_on_c, 9, 59, 71
1, 85444, Note_on_c, 7, 65, 81
1, 85445, Note_on_c, 6, 62, 78
1, 85445, Note_on_c, 13, 77, 73
1, 85447, Note_on_c, 2, 58, 79
1, 85447, Note_on_c, 6, 53, 81
1, 85448, Note_on_c, 7, 58, 79
1, 85448, Note_on_c, 9, 82, 66
1, 85453, Note_on_c, 9, 36, 0
1, 85455, Note_on_c, 9, 54, 0
1, 85456, Note_on_c, 9, 59, 0
1, 85461, Note_on_c, 9, 82, 0
1, 85510, Note_on_c, 3, 72, 0
1, 85516, Note_on_c, 3, 74, 89
1, 85559, Note_on_c, 9, 82, 47
1, 85563, Note_on_c, 9, 54, 34
1, 85572, Note_on_c, 9, 82, 0
1, 85576, Note_on_c, 9, 54, 0
1, 85655, Note_on_c, 1, 34, 0
1, 85665, Note_on_c, 3, 74, 0
1, 85665, Note_on_c, 2, 58, 0
1, 85665, Note_on_c, 2, 62, 0
1, 85665, Note_on_c, 2, 65, 0
1, 85665, Note_on_c, 5, 65, 0
1, 85665, Note_on_c, 5, 53, 0
1, 85665, Note_on_c, 5, 62, 0
1, 85665, Note_on_c, 2, 53, 0
1, 85665, Note_on_c, 5, 58, 0
1, 85672, Note_on_c, 9, 82, 34
1, 85675, Note_on_c, 5, 65, 60
1, 85678, Note_on_c, 1, 34, 97
1, 85678, Note_on_c, 2, 58, 63
1, 85678, Note_on_c, 5, 62, 63
1, 85679, Note_on_c, 3, 72, 92
1, 85680, Note_on_c, 2, 62, 62
1, 85680, Note_on_c, 9, 36, 115
1, 85681, Note_on_c, 0, 53, 53
1, 85681, Note_on_c, 9, 59, 52
1, 85682, Note_on_c, 5, 58, 62
1, 85683, Note_on_c, 9, 54, 49
1, 85685, Note_on_c, 9, 82, 0
1, 85685, Note_on_c, 5, 53, 62
1, 85686, Note_on_c, 2, 65, 60
1, 85687, Note_on_c, 2, 53, 63
1, 85693, Note_on_c, 9, 36, 0
1, 85694, Note_on_c, 9, 59, 0
1, 85696, Note_on_c, 9, 54, 0
1, 85750, Note_on_c, 3, 72, 0
1, 85762, Note_on_c, 3, 70, 96
1, 85795, Note_on_c, 9, 82, 47
1, 85806, Note_on_c, 9, 54, 34
1, 85808, Note_on_c, 9, 82, 0
1, 85819, Note_on_c, 9, 54, 0
1, 85830, Note_on_c, 3, 70, 0
1, 85880, Note_on_c, 6, 53, 0
1, 85880, Note_on_c, 6, 62, 0
1, 85880, Note_on_c, 6, 65, 0
1, 85880, Note_on_c, 6, 58, 0
1, 85895, Note_on_c, 1, 34, 0
1, 85905, Note_on_c, 2, 53, 0
1, 85905, Note_on_c, 2, 65, 0
1, 85905, Note_on_c, 5, 53, 0
1, 85905, Note_on_c, 5, 58, 0
1, 85905, Note_on_c, 0, 53, 0
1, 85905, Note_on_c, 2, 62, 0
1, 85905, Note_on_c, 5, 62, 0
1, 85905, Note_on_c, 2, 58, 0
1, 85905, Note_on_c, 5, 65, 0
1, 85905, Note_on_c, 7, 58, 0
1, 85905, Note_on_c, 13, 77, 0
1, 85905, Note_on_c, 7, 65, 0
1, 85905, Note_on_c, 0, 46, 0
1, 85905, Note_on_c, 0, 58, 0
1, 85905, Note_on_c, 7, 53, 0
1, 85905, Note_on_c, 7, 62, 0
1, 85905, Note_on_c, 0, 62, 0
1, 85905, Note_on_c, 12, 50, 0
1, 85905, Note_on_c, 0, 65, 0
1, 85905, Note_on_c, 12, 58, 0
1, 85905, Note_on_c, 13, 50, 0
1, 85905, Note_on_c, 13, 65, 0
1, 85905, Note_on_c, 13, 58, 0
1, 85905, Pitch_bend_c, 6, 4096
1, 85912, Note_on_c, 2, 53, 78
1, 85912, Note_on_c, 5, 57, 79
1, 85913, Note_on_c, 9, 82, 62
1, 85915, Note_on_c, 5, 53, 80
1, 85917, Note_on_c, 0, 65, 80
1, 85918, Note_on_c, 0, 57, 82
1, 85918, Note_on_c, 2, 57, 78
1, 85918, Note_on_c, 7, 53, 78
1, 85918, Note_on_c, 9, 59, 69
1, 85920, Note_on_c, 0, 53, 82
1, 85920, Note_on_c, 1, 33, 101
1, 85920, Note_on_c, 5, 62, 81
1, 85920, Note_on_c, 7, 57, 79
1, 85920, Note_on_c, 9, 40, 115
1, 85920, Note_on_c, 12, 50, 82
1, 85922, Note_on_c, 0, 62, 84
1, 85922, Note_on_c, 6, 50, 113
1, 85922, Note_on_c, 7, 65, 80
1, 85922, Note_on_c, 7, 62, 77
1, 85922, Note_on_c, 13, 74, 75
1, 85923, Note_on_c, 0, 45, 82
1, 85923, Note_on_c, 13, 57, 73
1, 85924, Note_on_c, 2, 62, 79
1, 85924, Note_on_c, 2, 65, 78
1, 85924, Note_on_c, 9, 54, 76
1, 85925, Note_on_c, 5, 65, 80
1, 85925, Note_on_c, 13, 65, 76
1, 85926, Note_on_c, 9, 82, 0
1, 85926, Note_on_c, 12, 57, 78
1, 85928, Note_on_c, 13, 50, 75
1, 85931, Note_on_c, 9, 59, 0
1, 85933, Note_on_c, 9, 40, 0
1, 85937, Note_on_c, 9, 54, 0
1, 85960, Pitch_bend_c, 6, 8192
1, 86037, Note_on_c, 9, 82, 56
1, 86041, Note_on_c, 9, 54, 34
1, 86050, Note_on_c, 9, 82, 0
1, 86054, Note_on_c, 9, 54, 0
1, 86145, Note_on_c, 5, 65, 0
1, 86145, Note_on_c, 2, 65, 0
1, 86145, Note_on_c, 2, 62, 0
1, 86145, Note_on_c, 6, 50, 0
1, 86145, Note_on_c, 5, 62, 0
1, 86145, Note_on_c, 2, 57, 0
1, 86145, Note_on_c, 5, 53, 0
1, 86145, Note_on_c, 5, 57, 0
1, 86145, Note_on_c, 2, 53, 0
1, 86155, Note_on_c, 9, 82, 44
1, 86156, Note_on_c, 6, 53, 94
1, 86157, Note_on_c, 2, 53, 64
1, 86158, Note_on_c, 2, 65, 62
1, 86158, Note_on_c, 9, 54, 50
1, 86161, Note_on_c, 5, 57, 65
1, 86162, Note_on_c, 5, 65, 63
1, 86162, Note_on_c, 5, 53, 63
1, 86163, Note_on_c, 5, 62, 64
1, 86164, Note_on_c, 2, 57, 62
1, 86167, Note_on_c, 2, 62, 62
1, 86168, Note_on_c, 9, 82, 0
1, 86168, Note_on_c, 9, 59, 51
1, 86171, Note_on_c, 9, 54, 0
1, 86181, Note_on_c, 9, 59, 0
1, 86265, Note_on_c, 6, 53, 0
1, 86274, Note_on_c, 9, 54, 35
1, 86275, Note_on_c, 6, 50, 95
1, 86284, Note_on_c, 9, 82, 34
1, 86287, Note_on_c, 9, 54, 0
1, 86297, Note_on_c, 9, 82, 0
1, 86375, Note_on_c, 1, 33, 0
1, 86385, Note_on_c, 6, 50, 0
1, 86385, Note_on_c, 2, 62, 0
1, 86385, Note_on_c, 2, 57, 0
1, 86385, Note_on_c, 5, 62, 0
1, 86385, Note_on_c, 5, 53, 0
1, 86385, Note_on_c, 5, 65, 0
1, 86385, Note_on_c, 5, 57, 0
1, 86385, Note_on_c, 2, 65, 0
1, 86385, Note_on_c, 2, 53, 0
1, 86385, Note_on_c, 13, 50, 0
1, 86385, Note_on_c, 12, 57, 0
1, 86385, Note_on_c, 13, 65, 0
1, 86385, Note_on_c, 13, 57, 0
1, 86385, Note_on_c, 0, 45, 0
1, 86385, Note_on_c, 13, 74, 0
1, 86385, Note_on_c, 7, 62, 0
1, 86385, Note_on_c, 7, 65, 0
1, 86385, Note_on_c, 0, 62, 0
1, 86385, Note_on_c, 12, 50, 0
1, 86385, Note_on_c, 7, 57, 0
1, 86385, Note_on_c, 0, 53, 0
1, 86385, Note_on_c, 7, 53, 0
1, 86385, Note_on_c, 0, 57, 0
1, 86385, Note_on_c, 0, 65, 0
1, 86392, Note_on_c, 2, 55, 85
1, 86392, Note_on_c, 9, 82, 66
1, 86394, Note_on_c, 7, 50, 82
1, 86395, Note_on_c, 13, 62, 76
1, 86396, Note_on_c, 13, 58, 75
1, 86397, Note_on_c, 2, 50, 82
1, 86397, Note_on_c, 9, 54, 50
1, 86397, Note_on_c, 13, 70, 77
1, 86397, Note_on_c, 13, 82, 75
1, 86398, Note_on_c, 0, 67, 85
1, 86399, Note_on_c, 0, 62, 85
1, 86399, Note_on_c, 0, 55, 85
1, 86399, Note_on_c, 2, 58, 85
1, 86399, Note_on_c, 6, 55, 101
1, 86400, Note_on_c, 2, 62, 85
1, 86400, Note_on_c, 9, 36, 115
1, 86400, Note_on_c, 9, 49, 75
1, 86402, Note_on_c, 0, 58, 89
1, 86403, Note_on_c, 0, 43, 89
1, 86403, Note_on_c, 5, 58, 83
1, 86404, Note_on_c, 5, 62, 84
1, 86404, Note_on_c, 12, 50, 80
1, 86405, Note_on_c, 9, 82, 0
1, 86405, Note_on_c, 1, 31, 101
1, 86405, Note_on_c, 5, 55, 81
1, 86405, Note_on_c, 5, 50, 81
1, 86405, Note_on_c, 12, 43, 78
1, 86406, Note_on_c, 13, 55, 77
1, 86410, Note_on_c, 9, 54, 0
1, 86413, Note_on_c, 9, 49, 0
1, 86413, Note_on_c, 9, 36, 0
1, 86515, Note_on_c, 9, 82, 46
1, 86527, Note_on_c, 9, 54, 35
1, 86528, Note_on_c, 9, 82, 0
1, 86540, Note_on_c, 9, 54, 0
1, 86615, Note_on_c, 1, 31, 0
1, 86625, Note_on_c, 5, 50, 0
1, 86625, Note_on_c, 5, 55, 0
1, 86625, Note_on_c, 5, 62, 0
1, 86625, Note_on_c, 5, 58, 0
1, 86625, Note_on_c, 2, 62, 0
1, 86625, Note_on_c, 2, 58, 0
1, 86625, Note_on_c, 2, 50, 0
1, 86625, Note_on_c, 2, 55, 0
1, 86632, Note_on_c, 2, 58, 59
1, 86632, Note_on_c, 5, 58, 62
1, 86633, Note_on_c, 9, 82, 34
1, 86634, Note_on_c, 2, 62, 60
1, 86636, Note_on_c, 5, 62, 59
1, 86637, Note_on_c, 1, 31, 93
1, 86642, Note_on_c, 2, 55, 60
1, 86642, Note_on_c, 5, 50, 61
1, 86642, Note_on_c, 9, 59, 52
1, 86642, Note_on_c, 9, 54, 47
1, 86643, Note_on_c, 0, 50, 54
1, 86643, Note_on_c, 2, 50, 62
1, 86646, Note_on_c, 9, 82, 0
1, 86646, Note_on_c, 5, 55, 62
1, 86646, Note_on_c, 7, 55, 69
1, 86655, Note_on_c, 9, 54, 0
1, 86655, Note_on_c, 9, 59, 0
1, 86735, Note_on_c, 1, 31, 0
1, 86757, Note_on_c, 1, 31, 97
1, 86757, Note_on_c, 9, 82, 50
1, 86758, Note_on_c, 9, 54, 35
1, 86770, Note_on_c, 9, 82, 0
1, 86771, Note_on_c, 9, 54, 0
1, 86855, Note_on_c, 1, 31, 0
1, 86865, Note_on_c, 5, 55, 0
1, 86865, Note_on_c, 2, 50, 0
1, 86865, Note_on_c, 5, 50, 0
1, 86865, Note_on_c, 2, 55, 0
1, 86865, Note_on_c, 5, 62, 0
1, 86865, Note_on_c, 2, 62, 0
1, 86865, Note_on_c, 5, 58, 0
1, 86865, Note_on_c, 2, 58, 0
1, 86865, Note_on_c, 0, 58, 0
1, 86865, Note_on_c, 6, 55, 0
1, 86865, Note_on_c, 0, 55, 0
1, 86865, Note_on_c, 0, 62, 0
1, 86865, Note_on_c, 0, 67, 0
1, 86873, Note_on_c, 5, 62, 81
1, 86877, Note_on_c, 2, 50, 80
1, 86877, Note_on_c, 5, 58, 79
1, 86878, Note_on_c, 5, 50, 83
1, 86878, Note_on_c, 5, 55, 80
1, 86878, Note_on_c, 9, 59, 72
1, 86880, Note_on_c, 0, 62, 85
1, 86880, Note_on_c, 0, 58, 86
1, 86880, Note_on_c, 2, 62, 79
1, 86880, Note_on_c, 6, 62, 82
1, 86880, Note_on_c, 9, 40, 115
1, 86881, Note_on_c, 0, 55, 87
1, 86882, Note_on_c, 0, 67, 84
1, 86882, Note_on_c, 1, 31, 103
1, 86882, Note_on_c, 6, 55, 83
1, 86882, Note_on_c, 9, 54, 74
1, 86884, Note_on_c, 6, 58, 79
1, 86884, Note_on_c, 7, 58, 80
1, 86885, Note_on_c, 7, 62, 80
1, 86887, Note_on_c, 2, 55, 82
1, 86887, Note_on_c, 2, 58, 82
1, 86887, Note_on_c, 9, 82, 63
1, 86888, Lyric_t, "Take "
1, 86888, Note_on_c, 3, 82, 102
1, 86891, Note_on_c, 9, 59, 0
1, 86893, Note_on_c, 9, 40, 0
1, 86895, Note_on_c, 9, 54, 0
1, 86900, Note_on_c, 9, 82, 0
1, 86950, Note_on_c, 3, 82, 0
1, 86975, Note_on_c, 1, 31, 0
1, 86985, Pitch_bend_c, 3, 4971
1, 86998, Note_on_c, 9, 54, 38
1, 87005, Note_on_c, 9, 82, 48
1, 87007, Note_on_c, 1, 38, 92
1, 87008, Lyric_t, "a "
1, 87008, Note_on_c, 3, 84, 87
1, 87011, Note_on_c, 9, 54, 0
1, 87018, Note_on_c, 9, 82, 0
1, 87020, Pitch_bend_c, 3, 5241
1, 87030, Pitch_bend_c, 3, 5777
1, 87040, Pitch_bend_c, 3, 6314
1, 87050, Pitch_bend_c, 3, 6851
1, 87060, Pitch_bend_c, 3, 7387
1, 87070, Pitch_bend_c, 3, 7924
1, 87075, Pitch_bend_c, 3, 8192
1, 87095, Note_on_c, 1, 38, 0
1, 87105, Note_on_c, 2, 58, 0
1, 87105, Note_on_c, 2, 55, 0
1, 87105, Note_on_c, 2, 62, 0
1, 87105, Note_on_c, 5, 55, 0
1, 87105, Note_on_c, 5, 50, 0
1, 87105, Note_on_c, 5, 58, 0
1, 87105, Note_on_c, 2, 50, 0
1, 87105, Note_on_c, 5, 62, 0
1, 87105, Note_on_c, 0, 50, 0
1, 87105, Note_on_c, 13, 82, 0
1, 87105, Note_on_c, 13, 70, 0
1, 87105, Note_on_c, 7, 50, 0
1, 87114, Note_on_c, 2, 50, 65
1, 87116, Note_on_c, 5, 55, 62
1, 87117, Note_on_c, 7, 50, 70
1, 87118, Note_on_c, 2, 55, 65
1, 87118, Note_on_c, 5, 58, 66
1, 87118, Note_on_c, 9, 59, 49
1, 87119, Note_on_c, 9, 54, 50
1, 87120, Note_on_c, 0, 50, 56
1, 87120, Note_on_c, 1, 43, 97
1, 87121, Note_on_c, 5, 50, 64
1, 87124, Note_on_c, 5, 62, 62
1, 87124, Note_on_c, 13, 72, 76
1, 87125, Note_on_c, 2, 62, 65
1, 87125, Note_on_c, 13, 84, 74
1, 87127, Note_on_c, 2, 58, 66
1, 87127, Note_on_c, 9, 82, 32
1, 87131, Note_on_c, 9, 59, 0
1, 87132, Note_on_c, 9, 54, 0
1, 87140, Note_on_c, 9, 82, 0
1, 87215, Note_on_c, 1, 43, 0
1, 87240, Note_on_c, 9, 36, 90
1, 87242, Note_on_c, 9, 82, 49
1, 87243, Note_on_c, 1, 31, 102
1, 87246, Note_on_c, 9, 54, 34
1, 87253, Note_on_c, 9, 36, 0
1, 87255, Note_on_c, 9, 82, 0
1, 87259, Note_on_c, 9, 54, 0
1, 87335, Note_on_c, 1, 31, 0
1, 87345, Note_on_c, 2, 58, 0
1, 87345, Note_on_c, 13, 84, 0
1, 87345, Note_on_c, 2, 62, 0
1, 87345, Note_on_c, 13, 72, 0
1, 87345, Note_on_c, 5, 62, 0
1, 87345, Note_on_c, 5, 50, 0
1, 87345, Note_on_c, 0, 50, 0
1, 87345, Note_on_c, 5, 58, 0
1, 87345, Note_on_c, 2, 55, 0
1, 87345, Note_on_c, 7, 50, 0
1, 87345, Note_on_c, 5, 55, 0
1, 87345, Note_on_c, 2, 50, 0
1, 87345, Note_on_c, 3, 84, 0
1, 87345, Note_on_c, 7, 62, 0
1, 87345, Note_on_c, 7, 58, 0
1, 87345, Note_on_c, 6, 58, 0
1, 87345, Note_on_c, 6, 55, 0
1, 87345, Note_on_c, 0, 67, 0
1, 87345, Note_on_c, 0, 55, 0
1, 87345, Note_on_c, 6, 62, 0
1, 87345, Note_on_c, 0, 58, 0
1, 87345, Note_on_c, 0, 62, 0
1, 87345, Note_on_c, 7, 55, 0
1, 87345, Note_on_c, 13, 55, 0
1, 87345, Note_on_c, 12, 43, 0
1, 87345, Note_on_c, 12, 50, 0
1, 87345, Note_on_c, 0, 43, 0
1, 87345, Note_on_c, 13, 58, 0
1, 87345, Note_on_c, 13, 62, 0
1, 87352, Note_on_c, 13, 57, 75
1, 87354, Note_on_c, 12, 41, 80
1, 87355, Note_on_c, 7, 57, 80
1, 87355, Note_on_c, 12, 48, 80
1, 87356, Note_on_c, 9, 82, 64
1, 87357, Note_on_c, 6, 57, 81
1, 87357, Note_on_c, 6, 60, 81
1, 87357, Note_on_c, 13, 60, 76
1, 87358, Note_on_c, 0, 65, 83
1, 87358, Note_on_c, 5, 60, 76
1, 87358, Note_on_c, 13, 69, 76
1, 87359, Lyric_t, "look "
1, 87359, Note_on_c, 2, 60, 76
1, 87359, Note_on_c, 6, 65, 77
1, 87360, Note_on_c, 9, 36, 115
1, 87361, Note_on_c, 13, 81, 76
1, 87362, Note_on_c, 0, 41, 83
1, 87362, Note_on_c, 0, 60, 83
1, 87362, Note_on_c, 0, 57, 82
1, 87362, Note_on_c, 1, 29, 98
1, 87362, Note_on_c, 2, 53, 78
1, 87362, Note_on_c, 5, 65, 79
1, 87363, Note_on_c, 2, 57, 77
1, 87363, Note_on_c, 5, 57, 76
1, 87363, Note_on_c, 7, 53, 79
1, 87363, Note_on_c, 9, 59, 70
1, 87364, Note_on_c, 2, 65, 76
1, 87366, Note_on_c, 9, 54, 46
1, 87367, Note_on_c, 5, 53, 80
1, 87367, Note_on_c, 7, 60, 77
1, 87367, Note_on_c, 13, 53, 75
1, 87369, Note_on_c, 9, 82, 0
1, 87373, Note_on_c, 9, 36, 0
1, 87376, Note_on_c, 9, 59, 0
1, 87379, Note_on_c, 9, 54, 0
1, 87473, Note_on_c, 9, 82, 47
1, 87485, Note_on_c, 9, 54, 37
1, 87486, Note_on_c, 9, 82, 0
1, 87498, Note_on_c, 9, 54, 0
1, 87575, Note_on_c, 1, 29, 0
1, 87585, Note_on_c, 5, 53, 0
1, 87585, Note_on_c, 2, 65, 0
1, 87585, Note_on_c, 5, 57, 0
1, 87585, Note_on_c, 2, 57, 0
1, 87585, Note_on_c, 5, 65, 0
1, 87585, Note_on_c, 2, 53, 0
1, 87585, Note_on_c, 13, 81, 0
1, 87585, Note_on_c, 2, 60, 0
1, 87585, Note_on_c, 13, 69, 0
1, 87585, Note_on_c, 5, 60, 0
1, 87592, Note_on_c, 2, 65, 63
1, 87592, Note_on_c, 9, 82, 31
1, 87596, Note_on_c, 5, 53, 66
1, 87596, Note_on_c, 13, 82, 76
1, 87597, Note_on_c, 2, 57, 63
1, 87598, Note_on_c, 0, 48, 55
1, 87598, Note_on_c, 6, 53, 75
1, 87598, Note_on_c, 7, 48, 73
1, 87598, Note_on_c, 9, 54, 47
1, 87600, Note_on_c, 9, 36, 115
1, 87601, Note_on_c, 2, 60, 62
1, 87602, Note_on_c, 2, 53, 66
1, 87602, Note_on_c, 5, 57, 62
1, 87603, Note_on_c, 13, 70, 77
1, 87605, Note_on_c, 9, 82, 0
1, 87606, Note_on_c, 1, 29, 95
1, 87607, Note_on_c, 9, 59, 52
1, 87608, Note_on_c, 5, 65, 63
1, 87608, Note_on_c, 5, 60, 66
1, 87611, Note_on_c, 9, 54, 0
1, 87613, Note_on_c, 9, 36, 0
1, 87620, Note_on_c, 9, 59, 0
1, 87695, Note_on_c, 1, 29, 0
1, 87713, Note_on_c, 9, 82, 47
1, 87721, Note_on_c, 1, 31, 98
1, 87726, Note_on_c, 9, 82, 0
1, 87728, Note_on_c, 9, 54, 34
1, 87741, Note_on_c, 9, 54, 0
1, 87757, Lyric_t, "at "
1, 87757, Note_on_c, 3, 82, 96
1, 87815, Note_on_c, 1, 31, 0
1, 87825, Note_on_c, 5, 60, 0
1, 87825, Note_on_c, 5, 65, 0
1, 87825, Note_on_c, 13, 70, 0
1, 87825, Note_on_c, 5, 57, 0
1, 87825, Note_on_c, 2, 53, 0
1, 87825, Note_on_c, 2, 60, 0
1, 87825, Note_on_c, 2, 57, 0
1, 87825, Note_on_c, 13, 82, 0
1, 87825, Note_on_c, 5, 53, 0
1, 87825, Note_on_c, 2, 65, 0
1, 87825, Note_on_c, 7, 60, 0
1, 87825, Note_on_c, 7, 53, 0
1, 87825, Note_on_c, 0, 57, 0
1, 87825, Note_on_c, 0, 60, 0
1, 87825, Note_on_c, 6, 65, 0
1, 87825, Note_on_c, 0, 65, 0
1, 87825, Note_on_c, 6, 60, 0
1, 87825, Note_on_c, 6, 57, 0
1, 87825, Note_on_c, 12, 48, 0
1, 87825, Note_on_c, 7, 57, 0
1, 87825, Note_on_c, 12, 41, 0
1, 87832, Note_on_c, 12, 41, 81
1, 87833, Note_on_c, 7, 60, 82
1, 87834, Note_on_c, 1, 33, 101
1, 87834, Note_on_c, 5, 65, 84
1, 87836, Note_on_c, 5, 53, 81
1, 87837, Note_on_c, 0, 65, 85
1, 87837, Note_on_c, 0, 57, 88
1, 87837, Note_on_c, 13, 81, 73
1, 87838, Note_on_c, 0, 53, 85
1, 87838, Note_on_c, 6, 57, 84
1, 87838, Note_on_c, 6, 65, 81
1, 87838, Note_on_c, 12, 48, 82
1, 87839, Note_on_c, 2, 53, 81
1, 87840, Note_on_c, 9, 40, 115
1, 87840, Note_on_c, 13, 69, 74
1, 87841, Note_on_c, 0, 60, 89
1, 87841, Note_on_c, 2, 65, 85
1, 87841, Note_on_c, 7, 57, 85
1, 87841, Note_on_c, 9, 82, 63
1, 87842, Note_on_c, 5, 57, 84
1, 87842, Note_on_c, 5, 60, 83
1, 87842, Note_on_c, 6, 60, 82
1, 87842, Note_on_c, 9, 59, 68
1, 87843, Note_on_c, 2, 60, 85
1, 87843, Note_on_c, 7, 53, 82
1, 87843, Note_on_c, 9, 54, 73
1, 87848, Note_on_c, 2, 57, 81
1, 87853, Note_on_c, 9, 40, 0
1, 87854, Note_on_c, 9, 82, 0
1, 87855, Note_on_c, 9, 59, 0
1, 87856, Note_on_c, 9, 54, 0
1, 87865, Note_on_c, 3, 82, 0
1, 87915, Lyric_t, "all "
1, 87915, Note_on_c, 3, 82, 86
1, 87962, Note_on_c, 9, 82, 52
1, 87963, Note_on_c, 9, 54, 35
1, 87975, Note_on_c, 9, 82, 0
1, 87976, Note_on_c, 9, 54, 0
1, 88025, Note_on_c, 3, 82, 0
1, 88065, Note_on_c, 2, 57, 0
1, 88065, Note_on_c, 7, 53, 0
1, 88065, Note_on_c, 2, 60, 0
1, 88065, Note_on_c, 5, 60, 0
1, 88065, Note_on_c, 5, 57, 0
1, 88065, Note_on_c, 2, 65, 0
1, 88065, Note_on_c, 13, 69, 0
1, 88065, Note_on_c, 2, 53, 0
1, 88065, Note_on_c, 13, 81, 0
1, 88065, Note_on_c, 5, 53, 0
1, 88065, Note_on_c, 5, 65, 0
1, 88065, Note_on_c, 0, 48, 0
1, 88065, Pitch_bend_c, 3, 4971
1, 88073, Note_on_c, 9, 54, 46
1, 88075, Note_on_c, 13, 77, 76
1, 88076, Note_on_c, 2, 57, 64
1, 88077, Note_on_c, 2, 65, 60
1, 88078, Note_on_c, 7, 53, 69
1, 88081, Note_on_c, 2, 60, 62
1, 88082, Lyric_t, "we've "
1, 88082, Note_on_c, 2, 53, 63
1, 88082, Note_on_c, 3, 86, 91
1, 88083, Note_on_c, 0, 48, 52
1, 88083, Note_on_c, 5, 60, 62
1, 88083, Note_on_c, 5, 53, 64
1, 88083, Note_on_c, 9, 59, 48
1, 88083, Note_on_c, 13, 65, 73
1, 88084, Note_on_c, 9, 82, 44
1, 88085, Note_on_c, 5, 57, 62
1, 88086, Note_on_c, 9, 54, 0
1, 88086, Note_on_c, 5, 65, 61
1, 88096, Note_on_c, 9, 59, 0
1, 88097, Note_on_c, 9, 82, 0
1, 88100, Pitch_bend_c, 3, 5241
1, 88110, Pitch_bend_c, 3, 5777
1, 88120, Pitch_bend_c, 3, 6314
1, 88130, Pitch_bend_c, 3, 6851
1, 88140, Pitch_bend_c, 3, 7387
1, 88150, Pitch_bend_c, 3, 7924
1, 88155, Pitch_bend_c, 3, 8192
1, 88185, Note_on_c, 5, 65, 0
1, 88185, Note_on_c, 5, 57, 0
1, 88185, Note_on_c, 5, 53, 0
1, 88185, Note_on_c, 5, 60, 0
1, 88185, Note_on_c, 2, 53, 0
1, 88185, Note_on_c, 2, 60, 0
1, 88185, Note_on_c, 2, 65, 0
1, 88185, Note_on_c, 2, 57, 0
1, 88193, Note_on_c, 5, 60, 53
1, 88193, Note_on_c, 9, 54, 34
1, 88194, Note_on_c, 5, 57, 55
1, 88196, Note_on_c, 2, 65, 54
1, 88197, Note_on_c, 5, 53, 55
1, 88200, Note_on_c, 2, 53, 51
1, 88200, Note_on_c, 9, 82, 33
1, 88201, Note_on_c, 2, 60, 53
1, 88201, Note_on_c, 5, 65, 55
1, 88206, Note_on_c, 9, 54, 0
1, 88208, Note_on_c, 2, 57, 53
1, 88213, Note_on_c, 9, 82, 0
1, 88295, Note_on_c, 1, 33, 0
1, 88305, Note_on_c, 2, 57, 0
1, 88305, Note_on_c, 5, 65, 0
1, 88305, Note_on_c, 2, 60, 0
1, 88305, Note_on_c, 2, 53, 0
1, 88305, Note_on_c, 5, 53, 0
1, 88305, Note_on_c, 2, 65, 0
1, 88305, Note_on_c, 5, 57, 0
1, 88305, Note_on_c, 5, 60, 0
1, 88305, Note_on_c, 13, 65, 0
1, 88305, Note_on_c, 0, 48, 0
1, 88305, Note_on_c, 3, 86, 0
1, 88305, Note_on_c, 7, 53, 0
1, 88305, Note_on_c, 13, 77, 0
1, 88305, Note_on_c, 6, 60, 0
1, 88305, Note_on_c, 7, 57, 0
1, 88305, Note_on_c, 0, 60, 0
1, 88305, Note_on_c, 12, 48, 0
1, 88305, Note_on_c, 6, 65, 0
1, 88305, Note_on_c, 6, 57, 0
1, 88305, Note_on_c, 0, 53, 0
1, 88305, Note_on_c, 0, 57, 0
1, 88305, Note_on_c, 0, 65, 0
1, 88305, Note_on_c, 7, 60, 0
1, 88305, Note_on_c, 12, 41, 0
1, 88305, Note_on_c, 7, 48, 0
1, 88305, Note_on_c, 6, 53, 0
1, 88305, Note_on_c, 13, 53, 0
1, 88305, Note_on_c, 0, 41, 0
1, 88305, Note_on_c, 13, 60, 0
1, 88305, Note_on_c, 13, 57, 0
1, 88312, Note_on_c, 13, 53, 73
1, 88313, Note_on_c, 2, 58, 83
1, 88313, Note_on_c, 5, 65, 85
1, 88315, Note_on_c, 2, 53, 82
1, 88315, Note_on_c, 6, 62, 83
1, 88315, Note_on_c, 13, 58, 76
1, 88316, Note_on_c, 5, 62, 84
1, 88316, Note_on_c, 6, 58, 81
1, 88318, Note_on_c, 7, 58, 82
1, 88318, Note_on_c, 12, 53, 82
1, 88318, Note_on_c, 13, 74, 77
1, 88319, Note_on_c, 0, 62, 88
1, 88320, Note_on_c, 0, 65, 90
1, 88320, Note_on_c, 6, 65, 80
1, 88320, Note_on_c, 9, 36, 115
1, 88320, Note_on_c, 9, 57, 70
1, 88320, Note_on_c, 13, 62, 76
1, 88321, Note_on_c, 0, 46, 87
1, 88321, Note_on_c, 9, 54, 46
1, 88322, Note_on_c, 0, 58, 88
1, 88322, Note_on_c, 1, 34, 102
1, 88322, Note_on_c, 5, 53, 82
1, 88323, Note_on_c, 9, 82, 65
1, 88324, Note_on_c, 7, 62, 85
1, 88324, Note_on_c, 13, 46, 74
1, 88326, Note_on_c, 12, 46, 78
1, 88327, Note_on_c, 7, 65, 85
1, 88328, Note_on_c, 2, 65, 85
1, 88328, Note_on_c, 2, 62, 83
1, 88328, Note_on_c, 5, 58, 86
1, 88333, Note_on_c, 9, 57, 0
1, 88333, Note_on_c, 9, 36, 0
1, 88334, Note_on_c, 9, 54, 0
1, 88336, Note_on_c, 9, 82, 0
1, 88435, Note_on_c, 9, 82, 46
1, 88443, Note_on_c, 9, 54, 38
1, 88448, Note_on_c, 9, 82, 0
1, 88456, Note_on_c, 9, 54, 0
1, 88474, Lyric_t, "got "
1, 88474, Lyric_t, "\015"
1, 88474, Note_on_c, 3, 86, 88
1, 88545, Note_on_c, 5, 58, 0
1, 88545, Note_on_c, 2, 62, 0
1, 88545, Note_on_c, 2, 65, 0
1, 88545, Note_on_c, 5, 53, 0
1, 88545, Note_on_c, 5, 62, 0
1, 88545, Note_on_c, 2, 53, 0
1, 88545, Note_on_c, 5, 65, 0
1, 88545, Note_on_c, 2, 58, 0
1, 88550, Note_on_c, 3, 86, 0
1, 88556, Note_on_c, 2, 58, 66
1, 88557, Note_on_c, 5, 53, 63
1, 88558, Note_on_c, 6, 53, 75
1, 88559, Note_on_c, 0, 53, 58
1, 88559, Note_on_c, 2, 53, 62
1, 88559, Note_on_c, 2, 65, 64
1, 88559, Note_on_c, 5, 65, 66
1, 88559, Note_on_c, 7, 53, 70
1, 88562, Note_on_c, 3, 84, 94
1, 88562, Note_on_c, 5, 62, 63
1, 88563, Note_on_c, 9, 54, 46
1, 88564, Note_on_c, 2, 62, 64
1, 88565, Note_on_c, 9, 59, 52
1, 88565, Note_on_c, 9, 82, 30
1, 88567, Note_on_c, 5, 58, 63
1, 88576, Note_on_c, 9, 54, 0
1, 88578, Note_on_c, 9, 82, 0
1, 88578, Note_on_c, 9, 59, 0
1, 88630, Note_on_c, 3, 84, 0
1, 88633, Note_on_c, 3, 82, 92
1, 88655, Note_on_c, 1, 34, 0
1, 88665, Note_on_c, 5, 58, 0
1, 88665, Note_on_c, 2, 62, 0
1, 88665, Note_on_c, 5, 62, 0
1, 88665, Note_on_c, 5, 65, 0
1, 88665, Note_on_c, 2, 65, 0
1, 88665, Note_on_c, 2, 53, 0
1, 88665, Note_on_c, 5, 53, 0
1, 88665, Note_on_c, 2, 58, 0
1, 88672, Note_on_c, 5, 53, 49
1, 88678, Note_on_c, 5, 65, 51
1, 88679, Note_on_c, 9, 54, 37
1, 88680, Note_on_c, 9, 36, 90
1, 88682, Note_on_c, 2, 58, 51
1, 88682, Note_on_c, 2, 65, 53
1, 88682, Note_on_c, 2, 62, 50
1, 88682, Note_on_c, 2, 53, 51
1, 88683, Note_on_c, 5, 62, 49
1, 88685, Note_on_c, 1, 34, 92
1, 88686, Note_on_c, 5, 58, 50
1, 88686, Note_on_c, 9, 82, 46
1, 88692, Note_on_c, 9, 54, 0
1, 88693, Note_on_c, 9, 36, 0
1, 88699, Note_on_c, 9, 82, 0
1, 88775, Note_on_c, 1, 34, 0
1, 88785, Note_on_c, 5, 58, 0
1, 88785, Note_on_c, 5, 62, 0
1, 88785, Note_on_c, 2, 53, 0
1, 88785, Note_on_c, 2, 62, 0
1, 88785, Note_on_c, 2, 65, 0
1, 88785, Note_on_c, 2, 58, 0
1, 88785, Note_on_c, 5, 65, 0
1, 88785, Note_on_c, 5, 53, 0
1, 88785, Note_on_c, 7, 65, 0
1, 88785, Note_on_c, 12, 46, 0
1, 88785, Note_on_c, 7, 62, 0
1, 88785, Note_on_c, 0, 58, 0
1, 88785, Note_on_c, 0, 46, 0
1, 88785, Note_on_c, 13, 62, 0
1, 88785, Note_on_c, 6, 65, 0
1, 88785, Note_on_c, 0, 65, 0
1, 88785, Note_on_c, 0, 62, 0
1, 88785, Note_on_c, 13, 74, 0
1, 88785, Note_on_c, 12, 53, 0
1, 88785, Note_on_c, 7, 58, 0
1, 88785, Note_on_c, 6, 58, 0
1, 88785, Note_on_c, 6, 62, 0
1, 88792, Note_on_c, 2, 65, 78
1, 88792, Note_on_c, 2, 53, 81
1, 88792, Note_on_c, 6, 58, 78
1, 88794, Note_on_c, 2, 58, 78
1, 88796, Note_on_c, 5, 62, 81
1, 88796, Note_on_c, 5, 58, 78
1, 88797, Note_on_c, 0, 58, 84
1, 88797, Note_on_c, 9, 82, 62
1, 88797, Note_on_c, 9, 59, 68
1, 88797, Note_on_c, 12, 46, 79
1, 88797, Note_on_c, 13, 74, 77
1, 88798, Note_on_c, 1, 34, 103
1, 88799, Note_on_c, 0, 62, 84
1, 88799, Note_on_c, 6, 62, 81
1, 88799, Note_on_c, 9, 54, 77
1, 88800, Note_on_c, 7, 58, 79
1, 88800, Note_on_c, 9, 40, 115
1, 88801, Note_on_c, 5, 65, 80
1, 88802, Note_on_c, 0, 46, 83
1, 88802, Note_on_c, 2, 62, 80
1, 88802, Note_on_c, 5, 53, 81
1, 88802, Note_on_c, 6, 65, 81
1, 88802, Note_on_c, 13, 62, 74
1, 88803, Note_on_c, 0, 65, 82
1, 88803, Note_on_c, 11, 65, 99
1, 88804, Note_on_c, 7, 62, 81
1, 88806, Note_on_c, 12, 53, 79
1, 88807, Note_on_c, 7, 65, 81
1, 88810, Note_on_c, 9, 59, 0
1, 88810, Note_on_c, 9, 82, 0
1, 88812, Note_on_c, 9, 54, 0
1, 88813, Note_on_c, 9, 40, 0
1, 88895, Note_on_c, 1, 34, 0
1, 88922, Note_on_c, 1, 41, 94
1, 88922, Note_on_c, 9, 82, 48
1, 88922, Note_on_c, 9, 54, 38
1, 88935, Note_on_c, 9, 54, 0
1, 88935, Note_on_c, 9, 82, 0
1, 89015, Note_on_c, 1, 41, 0
1, 89025, Note_on_c, 13, 62, 0
1, 89025, Note_on_c, 6, 65, 0
1, 89025, Note_on_c, 5, 53, 0
1, 89025, Note_on_c, 2, 62, 0
1, 89025, Note_on_c, 5, 65, 0
1, 89025, Note_on_c, 13, 74, 0
1, 89025, Note_on_c, 5, 58, 0
1, 89025, Note_on_c, 5, 62, 0
1, 89025, Note_on_c, 2, 58, 0
1, 89025, Note_on_c, 2, 53, 0
1, 89025, Note_on_c, 2, 65, 0
1, 89025, Note_on_c, 3, 82, 0
1, 89025, Note_on_c, 7, 53, 0
1, 89025, Note_on_c, 0, 53, 0
1, 89032, Note_on_c, 3, 79, 92
1, 89033, Note_on_c, 9, 59, 49
1, 89034, Note_on_c, 5, 53, 64
1, 89034, Note_on_c, 9, 82, 31
1, 89035, Note_on_c, 5, 58, 64
1, 89036, Note_on_c, 2, 62, 63
1, 89037, Note_on_c, 9, 54, 46
1, 89038, Note_on_c, 1, 46, 94
1, 89038, Note_on_c, 2, 58, 61
1, 89038, Note_on_c, 13, 77, 73
1, 89039, Note_on_c, 2, 53, 62
1, 89040, Note_on_c, 9, 40, 115
1, 89042, Note_on_c, 2, 65, 61
1, 89042, Note_on_c, 5, 62, 61
1, 89043, Note_on_c, 0, 53, 54
1, 89043, Note_on_c, 5, 65, 62
1, 89046, Note_on_c, 9, 59, 0
1, 89046, Note_on_c, 13, 65, 73
1, 89047, Note_on_c, 9, 82, 0
1, 89047, Note_on_c, 6, 65, 75
1, 89047, Note_on_c, 7, 53, 72
1, 89050, Note_on_c, 9, 54, 0
1, 89053, Note_on_c, 9, 40, 0
1, 89110, Note_on_c, 3, 79, 0
1, 89116, Note_on_c, 3, 77, 102
1, 89135, Note_on_c, 1, 46, 0
1, 89145, Note_on_c, 5, 65, 0
1, 89145, Note_on_c, 5, 62, 0
1, 89145, Note_on_c, 2, 65, 0
1, 89145, Note_on_c, 2, 53, 0
1, 89145, Note_on_c, 2, 58, 0
1, 89145, Note_on_c, 2, 62, 0
1, 89145, Note_on_c, 5, 58, 0
1, 89145, Note_on_c, 5, 53, 0
1, 89145, Note_on_c, 7, 65, 0
1, 89152, Note_on_c, 2, 65, 63
1, 89153, Note_on_c, 9, 82, 48
1, 89154, Note_on_c, 2, 53, 62
1, 89155, Note_on_c, 5, 58, 61
1, 89155, Note_on_c, 7, 65, 79
1, 89157, Note_on_c, 5, 62, 65
1, 89158, Note_on_c, 5, 65, 65
1, 89159, Note_on_c, 2, 62, 61
1, 89160, Note_on_c, 5, 53, 61
1, 89160, Note_on_c, 9, 36, 90
1, 89161, Note_on_c, 1, 48, 101
1, 89162, Note_on_c, 9, 54, 36
1, 89165, Note_on_c, 2, 58, 63
1, 89166, Note_on_c, 9, 82, 0
1, 89173, Note_on_c, 9, 36, 0
1, 89175, Note_on_c, 9, 54, 0
1, 89190, Note_on_c, 3, 77, 0
1, 89255, Note_on_c, 1, 48, 0
1, 89265, Note_on_c, 2, 58, 0
1, 89265, Note_on_c, 5, 53, 0
1, 89265, Note_on_c, 2, 62, 0
1, 89265, Note_on_c, 5, 65, 0
1, 89265, Note_on_c, 5, 62, 0
1, 89265, Note_on_c, 7, 65, 0
1, 89265, Note_on_c, 5, 58, 0
1, 89265, Note_on_c, 2, 53, 0
1, 89265, Note_on_c, 2, 65, 0
1, 89265, Note_on_c, 7, 53, 0
1, 89265, Note_on_c, 13, 65, 0
1, 89265, Note_on_c, 13, 77, 0
1, 89265, Note_on_c, 12, 53, 0
1, 89265, Note_on_c, 7, 62, 0
1, 89265, Note_on_c, 11, 65, 0
1, 89265, Note_on_c, 0, 65, 0
1, 89265, Note_on_c, 0, 46, 0
1, 89265, Note_on_c, 7, 58, 0
1, 89265, Note_on_c, 0, 62, 0
1, 89265, Note_on_c, 12, 46, 0
1, 89265, Note_on_c, 0, 58, 0
1, 89265, Note_on_c, 6, 53, 0
1, 89265, Note_on_c, 13, 46, 0
1, 89265, Note_on_c, 13, 58, 0
1, 89265, Note_on_c, 13, 53, 0
1, 89275, Note_on_c, 5, 65, 80
1, 89275, Note_on_c, 9, 82, 64
1, 89276, Note_on_c, 2, 58, 81
1, 89276, Note_on_c, 13, 46, 77
1, 89277, Note_on_c, 1, 50, 100
1, 89277, Note_on_c, 2, 65, 79
1, 89277, Note_on_c, 13, 58, 77
1, 89277, Note_on_c, 13, 62, 77
1, 89277, Note_on_c, 13, 70, 74
1, 89278, Note_on_c, 2, 62, 82
1, 89278, Note_on_c, 7, 70, 81
1, 89279, Note_on_c, 0, 58, 82
1, 89279, Note_on_c, 13, 65, 74
1, 89280, Note_on_c, 0, 65, 82
1, 89280, Note_on_c, 9, 36, 115
1, 89282, Note_on_c, 0, 46, 85
1, 89282, Note_on_c, 0, 62, 83
1, 89282, Note_on_c, 9, 54, 50
1, 89283, Note_on_c, 2, 53, 82
1, 89283, Note_on_c, 5, 58, 80
1, 89283, Note_on_c, 7, 65, 79
1, 89283, Note_on_c, 12, 46, 82
1, 89284, Note_on_c, 5, 62, 79
1, 89284, Note_on_c, 6, 70, 79
1, 89284, Note_on_c, 11, 70, 102
1, 89284, Note_on_c, 12, 53, 78
1, 89285, Note_on_c, 7, 62, 80
1, 89285, Note_on_c, 9, 59, 69
1, 89285, Note_on_c, 13, 82, 74
1, 89286, Note_on_c, 5, 53, 78
1, 89288, Note_on_c, 9, 82, 0
1, 89293, Note_on_c, 9, 36, 0
1, 89295, Note_on_c, 9, 54, 0
1, 89298, Note_on_c, 9, 59, 0
1, 89320, Note_on_c, 9, 57, 17
1, 89333, Note_on_c, 9, 57, 0
1, 89360, Note_on_c, 9, 57, 20
1, 89373, Note_on_c, 9, 57, 0
1, 89375, Note_on_c, 1, 50, 0
1, 89400, Note_on_c, 9, 40, 115
1, 89400, Note_on_c, 9, 57, 22
1, 89401, Note_on_c, 9, 54, 36
1, 89403, Note_on_c, 1, 48, 92
1, 89408, Note_on_c, 9, 82, 50
1, 89413, Note_on_c, 9, 57, 0
1, 89413, Note_on_c, 9, 40, 0
1, 89414, Note_on_c, 9, 54, 0
1, 89421, Note_on_c, 9, 82, 0
1, 89440, Note_on_c, 9, 57, 25
1, 89453, Note_on_c, 9, 57, 0
1, 89480, Note_on_c, 9, 57, 28
1, 89493, Note_on_c, 9, 57, 0
1, 89495, Note_on_c, 1, 48, 0
1, 89505, Note_on_c, 5, 53, 0
1, 89505, Note_on_c, 5, 62, 0
1, 89505, Note_on_c, 5, 58, 0
1, 89505, Note_on_c, 2, 53, 0
1, 89505, Note_on_c, 2, 62, 0
1, 89505, Note_on_c, 2, 65, 0
1, 89505, Note_on_c, 2, 58, 0
1, 89505, Note_on_c, 5, 65, 0
1, 89505, Note_on_c, 6, 65, 0
1, 89505, Note_on_c, 0, 53, 0
1, 89512, Note_on_c, 5, 58, 62
1, 89515, Note_on_c, 2, 62, 62
1, 89515, Note_on_c, 6, 65, 75
1, 89516, Note_on_c, 1, 46, 95
1, 89516, Note_on_c, 5, 53, 62
1, 89517, Note_on_c, 2, 53, 64
1, 89517, Note_on_c, 9, 82, 30
1, 89519, Note_on_c, 0, 53, 53
1, 89520, Note_on_c, 9, 54, 47
1, 89520, Note_on_c, 9, 57, 30
1, 89522, Note_on_c, 2, 58, 62
1, 89522, Note_on_c, 5, 62, 61
1, 89522, Note_on_c, 5, 65, 60
1, 89523, Note_on_c, 7, 58, 68
1, 89524, Note_on_c, 2, 65, 62
1, 89530, Note_on_c, 9, 82, 0
1, 89533, Note_on_c, 9, 57, 0
1, 89533, Note_on_c, 9, 54, 0
1, 89560, Note_on_c, 9, 57, 33
1, 89573, Note_on_c, 9, 57, 0
1, 89600, Note_on_c, 9, 57, 35
1, 89613, Note_on_c, 9, 57, 0
1, 89615, Note_on_c, 1, 46, 0
1, 89632, Note_on_c, 9, 54, 35
1, 89638, Note_on_c, 9, 82, 49
1, 89640, Note_on_c, 1, 43, 96
1, 89640, Note_on_c, 9, 36, 90
1, 89640, Note_on_c, 9, 57, 38
1, 89645, Note_on_c, 9, 54, 0
1, 89651, Note_on_c, 9, 82, 0
1, 89653, Note_on_c, 9, 57, 0
1, 89653, Note_on_c, 9, 36, 0
1, 89680, Note_on_c, 9, 57, 41
1, 89693, Note_on_c, 9, 57, 0
1, 89720, Note_on_c, 9, 57, 43
1, 89733, Note_on_c, 9, 57, 0
1, 89735, Note_on_c, 1, 43, 0
1, 89745, Note_on_c, 2, 65, 0
1, 89745, Note_on_c, 5, 65, 0
1, 89745, Note_on_c, 5, 62, 0
1, 89745, Note_on_c, 2, 58, 0
1, 89745, Note_on_c, 0, 53, 0
1, 89745, Note_on_c, 2, 53, 0
1, 89745, Note_on_c, 5, 53, 0
1, 89745, Note_on_c, 6, 65, 0
1, 89745, Note_on_c, 2, 62, 0
1, 89745, Note_on_c, 5, 58, 0
1, 89745, Note_on_c, 13, 82, 0
1, 89745, Note_on_c, 7, 62, 0
1, 89745, Note_on_c, 12, 53, 0
1, 89745, Note_on_c, 11, 70, 0
1, 89745, Note_on_c, 6, 70, 0
1, 89745, Note_on_c, 12, 46, 0
1, 89745, Note_on_c, 7, 65, 0
1, 89745, Note_on_c, 0, 62, 0
1, 89745, Note_on_c, 0, 46, 0
1, 89745, Note_on_c, 0, 65, 0
1, 89745, Note_on_c, 0, 58, 0
1, 89745, Note_on_c, 13, 70, 0
1, 89745, Note_on_c, 6, 62, 0
1, 89745, Note_on_c, 6, 58, 0
1, 89754, Note_on_c, 12, 46, 79
1, 89757, Note_on_c, 0, 58, 82
1, 89757, Note_on_c, 2, 62, 81
1, 89757, Note_on_c, 5, 62, 79
1, 89757, Note_on_c, 7, 62, 78
1, 89758, Note_on_c, 0, 46, 83
1, 89758, Note_on_c, 2, 58, 80
1, 89758, Note_on_c, 9, 54, 76
1, 89759, Note_on_c, 0, 62, 81
1, 89759, Note_on_c, 5, 53, 79
1, 89759, Note_on_c, 5, 58, 79
1, 89760, Note_on_c, 9, 40, 115
1, 89760, Note_on_c, 9, 57, 46
1, 89760, Note_on_c, 9, 82, 63
1, 89761, Note_on_c, 0, 70, 81
1, 89761, Note_on_c, 0, 65, 83
1, 89761, Note_on_c, 2, 65, 78
1, 89762, Note_on_c, 13, 74, 77
1, 89763, Note_on_c, 2, 53, 77
1, 89763, Note_on_c, 6, 62, 79
1, 89763, Note_on_c, 7, 65, 77
1, 89764, Note_on_c, 11, 74, 98
1, 89764, Note_on_c, 12, 53, 81
1, 89765, Note_on_c, 6, 70, 78
1, 89765, Note_on_c, 13, 86, 77
1, 89766, Note_on_c, 1, 41, 102
1, 89766, Note_on_c, 6, 58, 77
1, 89766, Note_on_c, 6, 65, 81
1, 89768, Note_on_c, 5, 65, 78
1, 89771, Note_on_c, 9, 54, 0
1, 89773, Note_on_c, 9, 82, 0
1, 89773, Note_on_c, 9, 57, 0
1, 89773, Note_on_c, 9, 40, 0
1, 89800, Note_on_c, 9, 57, 48
1, 89813, Note_on_c, 9, 57, 0
1, 89825, Control_c, 11, 1, 32
1, 89840, Note_on_c, 9, 57, 51
1, 89853, Note_on_c, 9, 57, 0
1, 89855, Note_on_c, 1, 41, 0
1, 89865, Note_on_c, 5, 65, 0
1, 89865, Note_on_c, 2, 53, 0
1, 89865, Note_on_c, 2, 65, 0
1, 89865, Note_on_c, 5, 58, 0
1, 89865, Note_on_c, 5, 53, 0
1, 89865, Note_on_c, 2, 58, 0
1, 89865, Note_on_c, 5, 62, 0
1, 89865, Note_on_c, 2, 62, 0
1, 89873, Note_on_c, 2, 58, 53
1, 89873, Note_on_c, 5, 62, 51
1, 89874, Note_on_c, 2, 62, 50
1, 89877, Note_on_c, 9, 54, 34
1, 89878, Note_on_c, 2, 53, 49
1, 89878, Note_on_c, 2, 65, 49
1, 89878, Note_on_c, 5, 65, 50
1, 89878, Note_on_c, 5, 53, 49
1, 89880, Note_on_c, 9, 57, 54
1, 89880, Note_on_c, 9, 36, 115
1, 89881, Note_on_c, 1, 38, 94
1, 89886, Note_on_c, 5, 58, 49
1, 89888, Note_on_c, 9, 82, 54
1, 89890, Note_on_c, 9, 54, 0
1, 89893, Note_on_c, 9, 36, 0
1, 89893, Note_on_c, 9, 57, 0
1, 89901, Note_on_c, 9, 82, 0
1, 89920, Note_on_c, 9, 57, 56
1, 89933, Note_on_c, 9, 57, 0
1, 89960, Note_on_c, 9, 57, 59
1, 89973, Note_on_c, 9, 57, 0
1, 89975, Note_on_c, 1, 38, 0
1, 89985, Note_on_c, 5, 58, 0
1, 89985, Note_on_c, 5, 53, 0
1, 89985, Note_on_c, 5, 65, 0
1, 89985, Note_on_c, 2, 65, 0
1, 89985, Note_on_c, 2, 53, 0
1, 89985, Note_on_c, 2, 62, 0
1, 89985, Note_on_c, 5, 62, 0
1, 89985, Note_on_c, 2, 58, 0
1, 89985, Note_on_c, 7, 58, 0
1, 89992, Note_on_c, 5, 65, 61
1, 89992, Note_on_c, 7, 58, 69
1, 89992, Note_on_c, 9, 54, 48
1, 89995, Note_on_c, 9, 82, 43
1, 89998, Note_on_c, 2, 53, 62
1, 89998, Note_on_c, 2, 58, 62
1, 89998, Note_on_c, 5, 53, 64
1, 89999, Note_on_c, 2, 65, 61
1, 90000, Note_on_c, 9, 47, 115
1, 90000, Note_on_c, 9, 57, 61
1, 90000, Note_on_c, 9, 36, 115
1, 90002, Note_on_c, 1, 34, 97
1, 90002, Note_on_c, 5, 62, 63
1, 90003, Note_on_c, 2, 62, 61
1, 90004, Note_on_c, 5, 58, 64
1, 90005, Note_on_c, 9, 54, 0
1, 90008, Note_on_c, 9, 82, 0
1, 90013, Note_on_c, 9, 36, 0
1, 90013, Note_on_c, 9, 57, 0
1, 90013, Note_on_c, 9, 47, 0
1, 90040, Note_on_c, 9, 57, 64
1, 90053, Note_on_c, 9, 57, 0
1, 90053, Note_on_c, 9, 47, 113
1, 90066, Note_on_c, 9, 47, 0
1, 90080, Note_on_c, 9, 57, 67
1, 90093, Note_on_c, 9, 57, 0
1, 90095, Note_on_c, 1, 34, 0
1, 90105, Note_on_c, 5, 58, 0
1, 90105, Note_on_c, 2, 62, 0
1, 90105, Note_on_c, 5, 62, 0
1, 90105, Note_on_c, 2, 65, 0
1, 90105, Note_on_c, 5, 53, 0
1, 90105, Note_on_c, 2, 58, 0
1, 90105, Note_on_c, 2, 53, 0
1, 90105, Note_on_c, 5, 65, 0
1, 90114, Note_on_c, 9, 43, 116
1, 90115, Note_on_c, 9, 54, 34
1, 90116, Note_on_c, 5, 53, 55
1, 90117, Note_on_c, 2, 62, 54
1, 90118, Note_on_c, 5, 62, 58
1, 90120, Note_on_c, 1, 29, 95
1, 90120, Note_on_c, 9, 36, 115
1, 90120, Note_on_c, 9, 82, 34
1, 90120, Note_on_c, 9, 57, 69
1, 90122, Note_on_c, 2, 65, 56
1, 90122, Note_on_c, 5, 65, 58
1, 90123, Note_on_c, 5, 58, 54
1, 90124, Note_on_c, 2, 58, 56
1, 90127, Note_on_c, 9, 43, 0
1, 90128, Note_on_c, 9, 54, 0
1, 90128, Note_on_c, 2, 53, 58
1, 90133, Note_on_c, 9, 57, 0
1, 90133, Note_on_c, 9, 82, 0
1, 90133, Note_on_c, 9, 36, 0
1, 90160, Note_on_c, 9, 57, 72
1, 90173, Note_on_c, 9, 57, 0
1, 90187, Note_on_c, 9, 43, 117
1, 90200, Note_on_c, 9, 43, 0
1, 90200, Note_on_c, 11, 74, 0
1, 90200, Note_on_c, 9, 57, 75
1, 90210, Control_c, 11, 1, 0
1, 90213, Note_on_c, 9, 57, 0
1, 90215, Note_on_c, 1, 29, 0
1, 90225, Note_on_c, 2, 53, 0
1, 90225, Note_on_c, 2, 58, 0
1, 90225, Note_on_c, 5, 58, 0
1, 90225, Note_on_c, 5, 65, 0
1, 90225, Note_on_c, 2, 65, 0
1, 90225, Note_on_c, 5, 62, 0
1, 90225, Note_on_c, 2, 62, 0
1, 90225, Note_on_c, 5, 53, 0
1, 90225, Note_on_c, 7, 58, 0
1, 90225, Note_on_c, 6, 65, 0
1, 90225, Note_on_c, 6, 58, 0
1, 90225, Note_on_c, 13, 86, 0
1, 90225, Note_on_c, 6, 70, 0
1, 90225, Note_on_c, 12, 53, 0
1, 90225, Note_on_c, 7, 65, 0
1, 90225, Note_on_c, 6, 62, 0
1, 90225, Note_on_c, 13, 74, 0
1, 90225, Note_on_c, 0, 65, 0
1, 90225, Note_on_c, 0, 70, 0
1, 90225, Note_on_c, 0, 62, 0
1, 90225, Note_on_c, 0, 46, 0
1, 90225, Note_on_c, 7, 62, 0
1, 90225, Note_on_c, 0, 58, 0
1, 90225, Note_on_c, 12, 46, 0
1, 90225, Note_on_c, 13, 65, 0
1, 90225, Note_on_c, 7, 70, 0
1, 90225, Note_on_c, 13, 62, 0
1, 90225, Note_on_c, 13, 58, 0
1, 90225, Note_on_c, 13, 46, 0
1, 90225, Pitch_bend_c, 11, 4096
1, 90232, Note_on_c, 12, 55, 78
1, 90234, Note_on_c, 5, 63, 84
1, 90236, Note_on_c, 6, 63, 80
1, 90236, Note_on_c, 13, 67, 75
1, 90237, Note_on_c, 2, 63, 82
1, 90237, Note_on_c, 5, 58, 84
1, 90237, Note_on_c, 11, 75, 101
1, 90238, Note_on_c, 1, 36, 103
1, 90238, Note_on_c, 13, 63, 73
1, 90239, Note_on_c, 0, 60, 87
1, 90239, Note_on_c, 6, 67, 81
1, 90239, Note_on_c, 13, 48, 77
1, 90240, Note_on_c, 9, 49, 90
1, 90240, Note_on_c, 9, 36, 115
1, 90240, Note_on_c, 13, 58, 73
1, 90241, Note_on_c, 0, 55, 85
1, 90242, Note_on_c, 0, 63, 87
1, 90242, Note_on_c, 9, 54, 49
1, 90243, Note_on_c, 5, 55, 81
1, 90243, Note_on_c, 5, 48, 81
1, 90243, Note_on_c, 6, 60, 83
1, 90243, Note_on_c, 9, 82, 62
1, 90243, Note_on_c, 13, 87, 75
1, 90245, Note_on_c, 12, 48, 82
1, 90247, Note_on_c, 2, 48, 84
1, 90247, Note_on_c, 7, 55, 85
1, 90248, Note_on_c, 2, 58, 85
1, 90248, Note_on_c, 2, 55, 82
1, 90248, Note_on_c, 13, 75, 75
1, 90253, Note_on_c, 9, 36, 0
1, 90253, Note_on_c, 9, 49, 0
1, 90255, Note_on_c, 9, 54, 0
1, 90256, Note_on_c, 9, 82, 0
1, 90260, Pitch_bend_c, 11, 4412
1, 90270, Pitch_bend_c, 11, 5042
1, 90280, Pitch_bend_c, 11, 5672
1, 90290, Pitch_bend_c, 11, 6302
1, 90300, Pitch_bend_c, 11, 6932
1, 90310, Pitch_bend_c, 11, 7562
1, 90320, Pitch_bend_c, 11, 8192
1, 90363, Note_on_c, 9, 54, 37
1, 90368, Note_on_c, 9, 82, 50
1, 90376, Note_on_c, 9, 54, 0
1, 90381, Note_on_c, 9, 82, 0
1, 90465, Note_on_c, 2, 55, 0
1, 90465, Note_on_c, 2, 58, 0
1, 90465, Note_on_c, 2, 48, 0
1, 90465, Note_on_c, 5, 48, 0
1, 90465, Note_on_c, 5, 55, 0
1, 90465, Note_on_c, 5, 58, 0
1, 90465, Note_on_c, 2, 63, 0
1, 90465, Note_on_c, 5, 63, 0
1, 90472, Note_on_c, 2, 48, 62
1, 90472, Note_on_c, 5, 63, 63
1, 90476, Note_on_c, 2, 55, 59
1, 90477, Note_on_c, 5, 48, 61
1, 90477, Note_on_c, 9, 82, 32
1, 90482, Note_on_c, 2, 58, 63
1, 90482, Note_on_c, 5, 58, 62
1, 90482, Note_on_c, 7, 58, 67
1, 90483, Note_on_c, 0, 58, 52
1, 90483, Note_on_c, 5, 55, 62
1, 90483, Note_on_c, 9, 59, 52
1, 90486, Note_on_c, 9, 54, 48
1, 90487, Note_on_c, 6, 55, 76
1, 90488, Note_on_c, 2, 63, 60
1, 90490, Note_on_c, 9, 82, 0
1, 90496, Note_on_c, 9, 59, 0
1, 90499, Note_on_c, 9, 54, 0
1, 90515, Control_c, 11, 11, 123
1, 90565, Control_c, 11, 11, 119
1, 90585, Note_on_c, 2, 63, 0
1, 90585, Note_on_c, 5, 55, 0
1, 90585, Note_on_c, 5, 58, 0
1, 90585, Note_on_c, 2, 58, 0
1, 90585, Note_on_c, 5, 48, 0
1, 90585, Note_on_c, 2, 55, 0
1, 90585, Note_on_c, 5, 63, 0
1, 90585, Note_on_c, 2, 48, 0
1, 90594, Note_on_c, 2, 48, 51
1, 90595, Note_on_c, 5, 48, 53
1, 90595, Note_on_c, 5, 55, 52
1, 90597, Note_on_c, 2, 63, 55
1, 90598, Note_on_c, 5, 58, 52
1, 90602, Lyric_t, "And "
1, 90602, Note_on_c, 3, 82, 93
1, 90603, Note_on_c, 2, 58, 52
1, 90606, Note_on_c, 9, 82, 47
1, 90606, Note_on_c, 9, 54, 35
1, 90608, Note_on_c, 2, 55, 51
1, 90608, Note_on_c, 5, 63, 53
1, 90619, Note_on_c, 9, 54, 0
1, 90619, Note_on_c, 9, 82, 0
1, 90620, Control_c, 11, 11, 115
1, 90670, Note_on_c, 3, 82, 0
1, 90670, Control_c, 11, 11, 111
1, 90705, Note_on_c, 5, 63, 0
1, 90705, Note_on_c, 2, 55, 0
1, 90705, Note_on_c, 2, 58, 0
1, 90705, Note_on_c, 5, 58, 0
1, 90705, Note_on_c, 2, 63, 0
1, 90705, Note_on_c, 5, 55, 0
1, 90705, Note_on_c, 5, 48, 0
1, 90705, Note_on_c, 2, 48, 0
1, 90705, Note_on_c, 6, 55, 0
1, 90705, Note_on_c, 6, 60, 0
1, 90705, Note_on_c, 0, 63, 0
1, 90705, Note_on_c, 0, 55, 0
1, 90705, Note_on_c, 6, 67, 0
1, 90705, Note_on_c, 0, 60, 0
1, 90705, Note_on_c, 6, 63, 0
1, 90705, Pitch_bend_c, 3, 4971
1, 90712, Note_on_c, 5, 55, 82
1, 90712, Note_on_c, 9, 54, 75
1, 90715, Note_on_c, 6, 60, 83
1, 90716, Note_on_c, 2, 58, 79
1, 90717, Note_on_c, 0, 55, 83
1, 90718, Note_on_c, 5, 58, 80
1, 90718, Note_on_c, 9, 82, 65
1, 90718, Note_on_c, 9, 59, 70
1, 90719, Note_on_c, 0, 75, 98
1, 90719, Note_on_c, 6, 67, 80
1, 90720, Note_on_c, 2, 48, 83
1, 90720, Note_on_c, 6, 63, 80
1, 90720, Note_on_c, 9, 40, 115
1, 90720, Control_c, 11, 11, 107
1, 90721, Lyric_t, "with "
1, 90721, Note_on_c, 2, 55, 81
1, 90721, Note_on_c, 3, 87, 101
1, 90723, Note_on_c, 0, 63, 95
1, 90723, Note_on_c, 0, 60, 84
1, 90724, Note_on_c, 7, 63, 79
1, 90725, Note_on_c, 9, 54, 0
1, 90725, Note_on_c, 5, 48, 83
1, 90727, Note_on_c, 6, 55, 82
1, 90728, Note_on_c, 2, 63, 79
1, 90728, Note_on_c, 5, 63, 83
1, 90731, Note_on_c, 9, 59, 0
1, 90731, Note_on_c, 9, 82, 0
1, 90733, Note_on_c, 9, 40, 0
1, 90740, Pitch_bend_c, 3, 5241
1, 90750, Pitch_bend_c, 3, 5777
1, 90760, Pitch_bend_c, 3, 6314
1, 90770, Pitch_bend_c, 3, 6851
1, 90770, Control_c, 11, 11, 103
1, 90780, Pitch_bend_c, 3, 7387
1, 90790, Pitch_bend_c, 3, 7924
1, 90795, Pitch_bend_c, 3, 8192
1, 90815, Note_on_c, 1, 36, 0
1, 90820, Control_c, 11, 11, 99
1, 90843, Note_on_c, 9, 82, 47
1, 90843, Note_on_c, 9, 54, 38
1, 90845, Note_on_c, 1, 39, 91
1, 90856, Note_on_c, 9, 54, 0
1, 90856, Note_on_c, 9, 82, 0
1, 90875, Control_c, 11, 11, 95
1, 90925, Control_c, 11, 11, 91
1, 90935, Note_on_c, 1, 39, 0
1, 90945, Note_on_c, 5, 63, 0
1, 90945, Note_on_c, 2, 63, 0
1, 90945, Note_on_c, 6, 55, 0
1, 90945, Note_on_c, 5, 48, 0
1, 90945, Note_on_c, 2, 55, 0
1, 90945, Note_on_c, 6, 63, 0
1, 90945, Note_on_c, 2, 48, 0
1, 90945, Note_on_c, 6, 67, 0
1, 90945, Note_on_c, 5, 58, 0
1, 90945, Note_on_c, 0, 55, 0
1, 90945, Note_on_c, 2, 58, 0
1, 90945, Note_on_c, 6, 60, 0
1, 90945, Note_on_c, 5, 55, 0
1, 90945, Note_on_c, 7, 58, 0
1, 90952, Note_on_c, 2, 63, 65
1, 90955, Note_on_c, 6, 67, 74
1, 90956, Note_on_c, 6, 63, 76
1, 90957, Note_on_c, 5, 55, 64
1, 90958, Note_on_c, 2, 58, 62
1, 90958, Note_on_c, 2, 55, 65
1, 90958, Note_on_c, 5, 58, 65
1, 90958, Note_on_c, 5, 48, 66
1, 90958, Note_on_c, 7, 58, 69
1, 90959, Note_on_c, 9, 59, 51
1, 90960, Note_on_c, 1, 41, 95
1, 90961, Note_on_c, 0, 55, 55
1, 90963, Note_on_c, 5, 63, 62
1, 90965, Note_on_c, 9, 54, 47
1, 90966, Note_on_c, 9, 82, 34
1, 90967, Note_on_c, 6, 55, 74
1, 90967, Note_on_c, 6, 60, 76
1, 90968, Note_on_c, 2, 48, 66
1, 90972, Note_on_c, 9, 59, 0
1, 90975, Control_c, 11, 11, 87
1, 90978, Note_on_c, 9, 54, 0
1, 90979, Note_on_c, 9, 82, 0
1, 91025, Note_on_c, 3, 87, 0
1, 91025, Control_c, 11, 11, 83
1, 91055, Note_on_c, 1, 41, 0
1, 91075, Note_on_c, 1, 43, 100
1, 91077, Lyric_t, "this "
1, 91077, Note_on_c, 3, 87, 99
1, 91079, Note_on_c, 9, 82, 48
1, 91080, Note_on_c, 9, 36, 90
1, 91080, Control_c, 11, 11, 79
1, 91087, Note_on_c, 9, 54, 34
1, 91092, Note_on_c, 9, 82, 0
1, 91093, Note_on_c, 9, 36, 0
1, 91100, Note_on_c, 9, 54, 0
1, 91130, Control_c, 11, 11, 75
1, 91175, Note_on_c, 1, 43, 0
1, 91180, Control_c, 11, 11, 71
1, 91185, Note_on_c, 3, 87, 0
1, 91185, Note_on_c, 2, 48, 0
1, 91185, Note_on_c, 6, 60, 0
1, 91185, Note_on_c, 6, 55, 0
1, 91185, Note_on_c, 5, 63, 0
1, 91185, Note_on_c, 0, 55, 0
1, 91185, Note_on_c, 7, 58, 0
1, 91185, Note_on_c, 5, 48, 0
1, 91185, Note_on_c, 5, 58, 0
1, 91185, Note_on_c, 2, 55, 0
1, 91185, Note_on_c, 2, 58, 0
1, 91185, Note_on_c, 5, 55, 0
1, 91185, Note_on_c, 6, 63, 0
1, 91185, Note_on_c, 6, 67, 0
1, 91185, Note_on_c, 2, 63, 0
1, 91185, Note_on_c, 7, 63, 0
1, 91185, Note_on_c, 0, 60, 0
1, 91185, Note_on_c, 0, 63, 0
1, 91185, Note_on_c, 0, 75, 0
1, 91185, Note_on_c, 0, 58, 0
1, 91185, Note_on_c, 13, 75, 0
1, 91185, Note_on_c, 7, 55, 0
1, 91185, Note_on_c, 12, 48, 0
1, 91185, Note_on_c, 13, 87, 0
1, 91185, Note_on_c, 13, 58, 0
1, 91185, Note_on_c, 13, 48, 0
1, 91185, Note_on_c, 13, 63, 0
1, 91185, Note_on_c, 11, 75, 0
1, 91185, Note_on_c, 13, 67, 0
1, 91185, Note_on_c, 12, 55, 0
1, 91192, Note_on_c, 2, 58, 80
1, 91192, Note_on_c, 2, 50, 77
1, 91192, Note_on_c, 12, 50, 79
1, 91192, Note_on_c, 13, 55, 74
1, 91193, Note_on_c, 5, 62, 79
1, 91195, Note_on_c, 5, 50, 78
1, 91195, Note_on_c, 12, 43, 80
1, 91197, Note_on_c, 0, 74, 92
1, 91197, Note_on_c, 1, 43, 100
1, 91198, Note_on_c, 0, 58, 80
1, 91198, Note_on_c, 6, 62, 78
1, 91198, Note_on_c, 9, 82, 63
1, 91198, Note_on_c, 13, 86, 76
1, 91199, Note_on_c, 0, 62, 92
1, 91199, Note_on_c, 7, 62, 80
1, 91200, Note_on_c, 2, 55, 77
1, 91200, Note_on_c, 9, 54, 48
1, 91200, Note_on_c, 9, 59, 70
1, 91200, Note_on_c, 9, 36, 115
1, 91200, Note_on_c, 13, 58, 73
1, 91201, Note_on_c, 6, 67, 78
1, 91202, Lyric_t, "kind "
1, 91202, Note_on_c, 2, 62, 80
1, 91202, Note_on_c, 3, 86, 99
1, 91202, Note_on_c, 5, 58, 80
1, 91202, Note_on_c, 6, 55, 80
1, 91203, Note_on_c, 0, 55, 82
1, 91203, Note_on_c, 6, 58, 77
1, 91203, Note_on_c, 13, 62, 77
1, 91203, Note_on_c, 13, 74, 77
1, 91205, Note_on_c, 5, 55, 78
1, 91207, Note_on_c, 13, 67, 77
1, 91211, Note_on_c, 9, 82, 0
1, 91213, Note_on_c, 9, 36, 0
1, 91213, Note_on_c, 9, 59, 0
1, 91213, Note_on_c, 9, 54, 0
1, 91318, Note_on_c, 9, 82, 48
1, 91327, Note_on_c, 9, 54, 37
1, 91331, Note_on_c, 9, 82, 0
1, 91340, Note_on_c, 9, 54, 0
1, 91415, Note_on_c, 1, 43, 0
1, 91425, Note_on_c, 5, 55, 0
1, 91425, Note_on_c, 0, 55, 0
1, 91425, Note_on_c, 6, 55, 0
1, 91425, Note_on_c, 5, 58, 0
1, 91425, Note_on_c, 2, 62, 0
1, 91425, Note_on_c, 2, 55, 0
1, 91425, Note_on_c, 0, 62, 0
1, 91425, Note_on_c, 0, 74, 0
1, 91425, Note_on_c, 5, 50, 0
1, 91425, Note_on_c, 5, 62, 0
1, 91425, Note_on_c, 2, 50, 0
1, 91425, Note_on_c, 2, 58, 0
1, 91432, Note_on_c, 9, 82, 30
1, 91433, Note_on_c, 1, 31, 96
1, 91433, Note_on_c, 2, 62, 65
1, 91433, Note_on_c, 5, 62, 66
1, 91434, Note_on_c, 9, 54, 46
1, 91435, Note_on_c, 2, 58, 62
1, 91435, Note_on_c, 2, 50, 63
1, 91437, Note_on_c, 2, 55, 66
1, 91437, Note_on_c, 9, 59, 52
1, 91438, Note_on_c, 0, 55, 75
1, 91438, Note_on_c, 5, 58, 63
1, 91441, Note_on_c, 6, 55, 76
1, 91442, Note_on_c, 0, 72, 87
1, 91442, Note_on_c, 7, 58, 73
1, 91443, Note_on_c, 0, 60, 86
1, 91443, Note_on_c, 5, 55, 62
1, 91443, Note_on_c, 5, 50, 66
1, 91445, Note_on_c, 9, 82, 0
1, 91447, Note_on_c, 9, 54, 0
1, 91450, Note_on_c, 9, 59, 0
1, 91480, Control_c, 11, 11, 127
1, 91545, Note_on_c, 3, 86, 0
1, 91552, Lyric_t, "of "
1, 91552, Note_on_c, 3, 84, 96
1, 91556, Note_on_c, 9, 82, 46
1, 91560, Note_on_c, 9, 36, 90
1, 91562, Note_on_c, 9, 54, 35
1, 91569, Note_on_c, 9, 82, 0
1, 91573, Note_on_c, 9, 36, 0
1, 91575, Note_on_c, 9, 54, 0
1, 91630, Note_on_c, 3, 84, 0
1, 91655, Note_on_c, 1, 31, 0
1, 91665, Note_on_c, 5, 50, 0
1, 91665, Note_on_c, 5, 55, 0
1, 91665, Note_on_c, 0, 60, 0
1, 91665, Note_on_c, 7, 58, 0
1, 91665, Note_on_c, 0, 72, 0
1, 91665, Note_on_c, 6, 55, 0
1, 91665, Note_on_c, 5, 58, 0
1, 91665, Note_on_c, 0, 55, 0
1, 91665, Note_on_c, 2, 55, 0
1, 91665, Note_on_c, 2, 50, 0
1, 91665, Note_on_c, 2, 58, 0
1, 91665, Note_on_c, 5, 62, 0
1, 91665, Note_on_c, 2, 62, 0
1, 91665, Note_on_c, 6, 58, 0
1, 91665, Note_on_c, 6, 67, 0
1, 91665, Note_on_c, 7, 62, 0
1, 91665, Note_on_c, 6, 62, 0
1, 91665, Note_on_c, 0, 58, 0
1, 91672, Note_on_c, 2, 62, 81
1, 91672, Note_on_c, 5, 55, 82
1, 91674, Note_on_c, 6, 55, 83
1, 91675, Note_on_c, 2, 50, 85
1, 91677, Note_on_c, 7, 62, 85
1, 91678, Note_on_c, 0, 70, 96
1, 91678, Note_on_c, 0, 58, 100
1, 91678, Note_on_c, 1, 31, 105
1, 91678, Note_on_c, 6, 58, 80
1, 91679, Note_on_c, 0, 62, 88
1, 91679, Note_on_c, 6, 62, 80
1, 91679, Note_on_c, 9, 59, 69
1, 91680, Note_on_c, 9, 40, 115
1, 91681, Note_on_c, 7, 55, 83
1, 91681, Note_on_c, 9, 82, 65
1, 91682, Note_on_c, 2, 55, 85
1, 91683, Note_on_c, 0, 55, 87
1, 91684, Note_on_c, 7, 58, 84
1, 91686, Note_on_c, 2, 58, 84
1, 91686, Note_on_c, 5, 62, 81
1, 91687, Lyric_t, "love "
1, 91687, Lyric_t, "\015"
1, 91687, Note_on_c, 3, 82, 104
1, 91687, Note_on_c, 5, 50, 85
1, 91687, Note_on_c, 5, 58, 83
1, 91687, Note_on_c, 6, 67, 81
1, 91688, Note_on_c, 9, 54, 77
1, 91692, Note_on_c, 9, 59, 0
1, 91693, Note_on_c, 9, 40, 0
1, 91694, Note_on_c, 9, 82, 0
1, 91701, Note_on_c, 9, 54, 0
1, 91802, Note_on_c, 9, 82, 52
1, 91806, Note_on_c, 9, 54, 37
1, 91815, Note_on_c, 9, 82, 0
1, 91819, Note_on_c, 9, 54, 0
1, 91895, Note_on_c, 1, 31, 0
1, 91905, Note_on_c, 5, 58, 0
1, 91905, Note_on_c, 5, 50, 0
1, 91905, Note_on_c, 5, 62, 0
1, 91905, Note_on_c, 2, 58, 0
1, 91905, Note_on_c, 2, 55, 0
1, 91905, Note_on_c, 2, 50, 0
1, 91905, Note_on_c, 5, 55, 0
1, 91905, Note_on_c, 2, 62, 0
1, 91905, Note_on_c, 13, 74, 0
1, 91905, Note_on_c, 13, 86, 0
1, 91912, Note_on_c, 5, 58, 62
1, 91915, Note_on_c, 5, 55, 61
1, 91918, Note_on_c, 2, 62, 64
1, 91918, Note_on_c, 9, 54, 47
1, 91920, Note_on_c, 9, 36, 115
1, 91921, Note_on_c, 2, 55, 64
1, 91922, Note_on_c, 2, 58, 64
1, 91923, Note_on_c, 2, 50, 61
1, 91923, Note_on_c, 9, 59, 49
1, 91924, Note_on_c, 13, 82, 76
1, 91926, Note_on_c, 1, 31, 95
1, 91927, Note_on_c, 13, 70, 76
1, 91928, Note_on_c, 5, 62, 64
1, 91928, Note_on_c, 5, 50, 61
1, 91928, Note_on_c, 9, 82, 45
1, 91931, Note_on_c, 9, 54, 0
1, 91933, Note_on_c, 9, 36, 0
1, 91936, Note_on_c, 9, 59, 0
1, 91941, Note_on_c, 9, 82, 0
1, 92025, Note_on_c, 5, 50, 0
1, 92025, Note_on_c, 5, 62, 0
1, 92025, Note_on_c, 2, 50, 0
1, 92025, Note_on_c, 2, 58, 0
1, 92025, Note_on_c, 2, 55, 0
1, 92025, Note_on_c, 2, 62, 0
1, 92025, Note_on_c, 5, 55, 0
1, 92025, Note_on_c, 5, 58, 0
1, 92025, Note_on_c, 3, 82, 0
1, 92033, Note_on_c, 9, 54, 38
1, 92037, Note_on_c, 9, 82, 31
1, 92041, Note_on_c, 3, 84, 77
1, 92041, Note_on_c, 5, 58, 54
1, 92042, Note_on_c, 2, 55, 55
1, 92042, Note_on_c, 2, 58, 53
1, 92043, Note_on_c, 2, 50, 52
1, 92043, Note_on_c, 5, 50, 55
1, 92044, Note_on_c, 2, 62, 53
1, 92046, Note_on_c, 9, 54, 0
1, 92046, Note_on_c, 5, 55, 51
1, 92048, Note_on_c, 5, 62, 52
1, 92050, Note_on_c, 9, 82, 0
1, 92135, Note_on_c, 1, 31, 0
1, 92145, Note_on_c, 5, 62, 0
1, 92145, Note_on_c, 5, 55, 0
1, 92145, Note_on_c, 2, 62, 0
1, 92145, Note_on_c, 5, 50, 0
1, 92145, Note_on_c, 2, 50, 0
1, 92145, Note_on_c, 2, 58, 0
1, 92145, Note_on_c, 2, 55, 0
1, 92145, Note_on_c, 5, 58, 0
1, 92145, Note_on_c, 3, 84, 0
1, 92145, Note_on_c, 13, 70, 0
1, 92145, Note_on_c, 13, 82, 0
1, 92145, Note_on_c, 6, 67, 0
1, 92145, Note_on_c, 7, 58, 0
1, 92145, Note_on_c, 0, 55, 0
1, 92145, Note_on_c, 7, 55, 0
1, 92145, Note_on_c, 6, 62, 0
1, 92145, Note_on_c, 0, 62, 0
1, 92145, Note_on_c, 6, 58, 0
1, 92145, Note_on_c, 0, 58, 0
1, 92145, Note_on_c, 0, 70, 0
1, 92145, Note_on_c, 7, 62, 0
1, 92145, Note_on_c, 6, 55, 0
1, 92145, Note_on_c, 13, 67, 0
1, 92145, Note_on_c, 13, 62, 0
1, 92145, Note_on_c, 13, 58, 0
1, 92145, Note_on_c, 12, 43, 0
1, 92145, Note_on_c, 13, 55, 0
1, 92145, Note_on_c, 12, 50, 0
1, 92145, Pitch_bend_c, 11, 0
1, 92152, Note_on_c, 5, 63, 83
1, 92153, Note_on_c, 2, 48, 83
1, 92153, Note_on_c, 5, 48, 86
1, 92154, Note_on_c, 2, 58, 84
1, 92154, Note_on_c, 6, 67, 83
1, 92154, Note_on_c, 13, 75, 75
1, 92157, Note_on_c, 9, 82, 65
1, 92158, Note_on_c, 0, 63, 97
1, 92158, Note_on_c, 0, 75, 100
1, 92158, Note_on_c, 11, 77, 99
1, 92158, Note_on_c, 12, 55, 78
1, 92159, Note_on_c, 5, 55, 85
1, 92159, Note_on_c, 6, 60, 80
1, 92159, Note_on_c, 13, 58, 74
1, 92160, Note_on_c, 0, 60, 89
1, 92160, Note_on_c, 9, 36, 115
1, 92160, Note_on_c, 9, 57, 64
1, 92161, Note_on_c, 7, 55, 82
1, 92161, Note_on_c, 9, 54, 47
1, 92162, Note_on_c, 6, 63, 80
1, 92162, Note_on_c, 13, 87, 74
1, 92162, Note_on_c, 13, 67, 77
1, 92163, Note_on_c, 0, 55, 88
1, 92163, Note_on_c, 5, 58, 82
1, 92163, Note_on_c, 12, 48, 81
1, 92164, Note_on_c, 1, 36, 106
1, 92164, Note_on_c, 13, 48, 73
1, 92165, Note_on_c, 13, 63, 73
1, 92167, Note_on_c, 2, 55, 85
1, 92168, Note_on_c, 2, 63, 84
1, 92170, Note_on_c, 9, 82, 0
1, 92173, Note_on_c, 9, 57, 0
1, 92173, Note_on_c, 9, 36, 0
1, 92174, Note_on_c, 9, 54, 0
1, 92277, Note_on_c, 9, 82, 50
1, 92280, Control_c, 11, 1, 32
1, 92285, Note_on_c, 9, 54, 35
1, 92290, Note_on_c, 9, 82, 0
1, 92298, Note_on_c, 9, 54, 0
1, 92385, Note_on_c, 2, 63, 0
1, 92385, Note_on_c, 2, 55, 0
1, 92385, Note_on_c, 5, 58, 0
1, 92385, Note_on_c, 0, 55, 0
1, 92385, Note_on_c, 0, 60, 0
1, 92385, Note_on_c, 5, 55, 0
1, 92385, Note_on_c, 2, 58, 0
1, 92385, Note_on_c, 5, 48, 0
1, 92385, Note_on_c, 2, 48, 0
1, 92385, Note_on_c, 5, 63, 0
1, 92394, Note_on_c, 5, 55, 63
1, 92395, Note_on_c, 2, 58, 63
1, 92395, Note_on_c, 2, 63, 63
1, 92395, Note_on_c, 5, 63, 62
1, 92396, Note_on_c, 5, 48, 62
1, 92397, Note_on_c, 0, 48, 76
1, 92397, Note_on_c, 5, 58, 66
1, 92397, Note_on_c, 9, 59, 49
1, 92400, Note_on_c, 7, 58, 70
1, 92401, Note_on_c, 0, 55, 78
1, 92401, Note_on_c, 0, 60, 58
1, 92403, Note_on_c, 6, 55, 76
1, 92405, Note_on_c, 9, 54, 49
1, 92406, Note_on_c, 9, 82, 31
1, 92408, Note_on_c, 2, 55, 66
1, 92408, Note_on_c, 2, 48, 62
1, 92410, Note_on_c, 9, 59, 0
1, 92418, Note_on_c, 9, 54, 0
1, 92419, Note_on_c, 9, 82, 0
1, 92505, Note_on_c, 2, 48, 0
1, 92505, Note_on_c, 2, 55, 0
1, 92505, Note_on_c, 5, 58, 0
1, 92505, Note_on_c, 5, 48, 0
1, 92505, Note_on_c, 5, 63, 0
1, 92505, Note_on_c, 2, 63, 0
1, 92505, Note_on_c, 2, 58, 0
1, 92505, Note_on_c, 5, 55, 0
1, 92513, Note_on_c, 9, 82, 48
1, 92514, Note_on_c, 5, 48, 50
1, 92514, Note_on_c, 5, 55, 52
1, 92516, Note_on_c, 9, 54, 37
1, 92518, Note_on_c, 5, 63, 52
1, 92521, Lyric_t, "What "
1, 92521, Note_on_c, 2, 63, 50
1, 92521, Note_on_c, 2, 58, 49
1, 92521, Note_on_c, 3, 82, 90
1, 92522, Note_on_c, 2, 48, 52
1, 92525, Note_on_c, 5, 58, 50
1, 92526, Note_on_c, 9, 82, 0
1, 92526, Note_on_c, 2, 55, 49
1, 92529, Note_on_c, 9, 54, 0
1, 92590, Note_on_c, 3, 82, 0
1, 92615, Note_on_c, 1, 36, 0
1, 92625, Note_on_c, 2, 55, 0
1, 92625, Note_on_c, 5, 58, 0
1, 92625, Note_on_c, 2, 48, 0
1, 92625, Note_on_c, 2, 58, 0
1, 92625, Note_on_c, 2, 63, 0
1, 92625, Note_on_c, 5, 63, 0
1, 92625, Note_on_c, 5, 55, 0
1, 92625, Note_on_c, 5, 48, 0
1, 92625, Note_on_c, 6, 55, 0
1, 92625, Note_on_c, 0, 60, 0
1, 92625, Note_on_c, 0, 55, 0
1, 92625, Note_on_c, 13, 87, 0
1, 92625, Note_on_c, 6, 63, 0
1, 92625, Note_on_c, 6, 60, 0
1, 92625, Note_on_c, 0, 75, 0
1, 92625, Note_on_c, 0, 63, 0
1, 92625, Note_on_c, 13, 75, 0
1, 92625, Note_on_c, 6, 67, 0
1, 92625, Pitch_bend_c, 3, 4971
1, 92632, Note_on_c, 13, 75, 75
1, 92634, Note_on_c, 5, 55, 82
1, 92635, Note_on_c, 2, 58, 78
1, 92635, Note_on_c, 9, 54, 74
1, 92638, Note_on_c, 3, 87, 101
1, 92638, Note_on_c, 6, 55, 81
1, 92638, Note_on_c, 9, 82, 62
1, 92639, Note_on_c, 0, 55, 84
1, 92639, Note_on_c, 1, 48, 102
1, 92640, Note_on_c, 0, 63, 95
1, 92640, Note_on_c, 0, 60, 86
1, 92640, Note_on_c, 2, 55, 81
1, 92640, Note_on_c, 9, 40, 115
1, 92641, Note_on_c, 9, 59, 72
1, 92642, Note_on_c, 5, 48, 81
1, 92642, Note_on_c, 6, 63, 78
1, 92643, Note_on_c, 0, 75, 96
1, 92643, Note_on_c, 5, 63, 81
1, 92643, Note_on_c, 6, 60, 78
1, 92644, Note_on_c, 2, 48, 82
1, 92644, Note_on_c, 6, 67, 80
1, 92645, Note_on_c, 13, 87, 73
1, 92646, Note_on_c, 2, 63, 81
1, 92646, Note_on_c, 5, 58, 78
1, 92648, Note_on_c, 9, 54, 0
1, 92648, Note_on_c, 7, 63, 80
1, 92651, Note_on_c, 9, 82, 0
1, 92653, Note_on_c, 9, 40, 0
1, 92654, Note_on_c, 9, 59, 0
1, 92660, Pitch_bend_c, 3, 5241
1, 92670, Pitch_bend_c, 3, 5777
1, 92680, Pitch_bend_c, 3, 6314
1, 92690, Pitch_bend_c, 3, 6851
1, 92700, Pitch_bend_c, 3, 7387
1, 92710, Pitch_bend_c, 3, 7924
1, 92715, Pitch_bend_c, 3, 8192
1, 92757, Note_on_c, 9, 82, 47
1, 92760, Control_c, 11, 1, 0
1, 92763, Note_on_c, 9, 54, 37
1, 92770, Note_on_c, 9, 82, 0
1, 92776, Note_on_c, 9, 54, 0
1, 92855, Note_on_c, 1, 48, 0
1, 92865, Note_on_c, 5, 58, 0
1, 92865, Note_on_c, 2, 63, 0
1, 92865, Note_on_c, 13, 87, 0
1, 92865, Note_on_c, 6, 67, 0
1, 92865, Note_on_c, 2, 48, 0
1, 92865, Note_on_c, 6, 60, 0
1, 92865, Note_on_c, 5, 63, 0
1, 92865, Note_on_c, 6, 63, 0
1, 92865, Note_on_c, 5, 48, 0
1, 92865, Note_on_c, 2, 55, 0
1, 92865, Note_on_c, 0, 55, 0
1, 92865, Note_on_c, 6, 55, 0
1, 92865, Note_on_c, 3, 87, 0
1, 92865, Note_on_c, 2, 58, 0
1, 92865, Note_on_c, 5, 55, 0
1, 92865, Note_on_c, 13, 75, 0
1, 92865, Note_on_c, 7, 58, 0
1, 92873, Note_on_c, 13, 77, 74
1, 92874, Note_on_c, 2, 55, 60
1, 92875, Lyric_t, "we've "
1, 92875, Note_on_c, 3, 87, 94
1, 92876, Note_on_c, 5, 48, 63
1, 92876, Note_on_c, 7, 58, 71
1, 92877, Note_on_c, 2, 48, 60
1, 92877, Note_on_c, 9, 59, 52
1, 92878, Note_on_c, 5, 55, 60
1, 92878, Note_on_c, 6, 60, 76
1, 92878, Note_on_c, 6, 55, 74
1, 92878, Note_on_c, 9, 54, 47
1, 92879, Note_on_c, 5, 63, 64
1, 92879, Note_on_c, 5, 58, 64
1, 92880, Pitch_bend_c, 11, 8192
1, 92881, Note_on_c, 0, 55, 54
1, 92882, Note_on_c, 0, 65, 86
1, 92882, Note_on_c, 2, 58, 60
1, 92883, Note_on_c, 0, 77, 83
1, 92883, Note_on_c, 1, 46, 95
1, 92883, Note_on_c, 9, 82, 31
1, 92883, Note_on_c, 13, 89, 76
1, 92885, Note_on_c, 2, 63, 60
1, 92886, Note_on_c, 6, 63, 76
1, 92886, Note_on_c, 6, 67, 73
1, 92890, Note_on_c, 9, 59, 0
1, 92891, Note_on_c, 9, 54, 0
1, 92896, Note_on_c, 9, 82, 0
1, 92975, Note_on_c, 1, 46, 0
1, 92985, Note_on_c, 3, 87, 0
1, 92996, Lyric_t, "got "
1, 92996, Note_on_c, 3, 86, 99
1, 92996, Note_on_c, 9, 82, 47
1, 93000, Note_on_c, 9, 36, 90
1, 93006, Note_on_c, 9, 54, 34
1, 93007, Note_on_c, 1, 45, 99
1, 93009, Note_on_c, 9, 82, 0
1, 93013, Note_on_c, 9, 36, 0
1, 93019, Note_on_c, 9, 54, 0
1, 93025, Note_on_c, 11, 77, 0
1, 93095, Note_on_c, 1, 45, 0
1, 93105, Note_on_c, 3, 86, 0
1, 93105, Note_on_c, 6, 67, 0
1, 93105, Note_on_c, 6, 63, 0
1, 93105, Note_on_c, 2, 63, 0
1, 93105, Note_on_c, 13, 89, 0
1, 93105, Note_on_c, 0, 77, 0
1, 93105, Note_on_c, 2, 58, 0
1, 93105, Note_on_c, 0, 65, 0
1, 93105, Note_on_c, 0, 55, 0
1, 93105, Note_on_c, 5, 58, 0
1, 93105, Note_on_c, 5, 63, 0
1, 93105, Note_on_c, 6, 55, 0
1, 93105, Note_on_c, 6, 60, 0
1, 93105, Note_on_c, 5, 55, 0
1, 93105, Note_on_c, 2, 48, 0
1, 93105, Note_on_c, 7, 58, 0
1, 93105, Note_on_c, 5, 48, 0
1, 93105, Note_on_c, 2, 55, 0
1, 93105, Note_on_c, 13, 77, 0
1, 93105, Note_on_c, 7, 63, 0
1, 93105, Note_on_c, 0, 75, 0
1, 93105, Note_on_c, 0, 60, 0
1, 93105, Note_on_c, 0, 63, 0
1, 93105, Note_on_c, 0, 48, 0
1, 93105, Note_on_c, 13, 63, 0
1, 93105, Note_on_c, 13, 48, 0
1, 93105, Note_on_c, 12, 48, 0
1, 93105, Note_on_c, 13, 67, 0
1, 93105, Note_on_c, 7, 55, 0
1, 93105, Note_on_c, 13, 58, 0
1, 93105, Note_on_c, 12, 55, 0
1, 93112, Note_on_c, 6, 58, 79
1, 93113, Note_on_c, 6, 67, 80
1, 93113, Note_on_c, 9, 59, 71
1, 93113, Note_on_c, 12, 43, 80
1, 93114, Note_on_c, 2, 62, 79
1, 93115, Note_on_c, 2, 50, 80
1, 93116, Note_on_c, 2, 58, 79
1, 93116, Note_on_c, 13, 67, 77
1, 93117, Note_on_c, 0, 58, 82
1, 93117, Note_on_c, 0, 62, 96
1, 93117, Note_on_c, 1, 43, 100
1, 93117, Note_on_c, 6, 55, 78
1, 93117, Note_on_c, 7, 62, 80
1, 93117, Note_on_c, 9, 54, 47
1, 93118, Note_on_c, 5, 55, 81
1, 93118, Note_on_c, 12, 50, 80
1, 93118, Note_on_c, 13, 74, 76
1, 93118, Note_on_c, 13, 58, 77
1, 93120, Note_on_c, 5, 62, 80
1, 93120, Note_on_c, 9, 36, 115
1, 93120, Note_on_c, 9, 82, 63
1, 93121, Note_on_c, 2, 55, 80
1, 93122, Note_on_c, 11, 72, 98
1, 93122, Note_on_c, 13, 86, 75
1, 93123, Note_on_c, 0, 74, 93
1, 93123, Note_on_c, 0, 55, 85
1, 93125, Note_on_c, 5, 50, 82
1, 93126, Note_on_c, 9, 59, 0
1, 93127, Note_on_c, 5, 58, 81
1, 93127, Note_on_c, 13, 62, 75
1, 93127, Note_on_c, 13, 55, 74
1, 93128, Note_on_c, 6, 62, 79
1, 93130, Note_on_c, 9, 54, 0
1, 93133, Note_on_c, 9, 82, 0
1, 93133, Note_on_c, 9, 36, 0
1, 93140, Pitch_bend_c, 11, 8876
1, 93150, Pitch_bend_c, 11, 10241
1, 93160, Pitch_bend_c, 11, 11606
1, 93170, Pitch_bend_c, 11, 12971
1, 93180, Pitch_bend_c, 11, 14336
1, 93190, Pitch_bend_c, 11, 15701
1, 93195, Pitch_bend_c, 11, 16383
1, 93239, Note_on_c, 9, 54, 37
1, 93241, Lyric_t, "here "
1, 93241, Note_on_c, 3, 84, 87
1, 93243, Note_on_c, 9, 82, 50
1, 93252, Note_on_c, 9, 54, 0
1, 93256, Note_on_c, 9, 82, 0
1, 93335, Pitch_bend_c, 11, 16382
1, 93345, Note_on_c, 3, 84, 0
1, 93345, Note_on_c, 5, 58, 0
1, 93345, Note_on_c, 5, 50, 0
1, 93345, Note_on_c, 0, 74, 0
1, 93345, Note_on_c, 13, 86, 0
1, 93345, Note_on_c, 2, 55, 0
1, 93345, Note_on_c, 5, 62, 0
1, 93345, Note_on_c, 13, 74, 0
1, 93345, Note_on_c, 5, 55, 0
1, 93345, Note_on_c, 6, 55, 0
1, 93345, Note_on_c, 0, 62, 0
1, 93345, Note_on_c, 2, 58, 0
1, 93345, Note_on_c, 2, 50, 0
1, 93345, Note_on_c, 2, 62, 0
1, 93345, Pitch_bend_c, 11, 15017
1, 93352, Note_on_c, 2, 62, 60
1, 93354, Note_on_c, 9, 54, 49
1, 93355, Note_on_c, 2, 58, 62
1, 93355, Note_on_c, 5, 50, 60
1, 93355, Pitch_bend_c, 11, 13652
1, 93356, Note_on_c, 5, 55, 62
1, 93357, Note_on_c, 6, 55, 75
1, 93358, Note_on_c, 0, 50, 74
1, 93358, Note_on_c, 9, 82, 32
1, 93360, Note_on_c, 0, 60, 85
1, 93360, Note_on_c, 13, 84, 73
1, 93361, Note_on_c, 0, 72, 86
1, 93362, Note_on_c, 5, 58, 62
1, 93362, Note_on_c, 5, 62, 63
1, 93362, Note_on_c, 13, 72, 74
1, 93365, Note_on_c, 3, 82, 92
1, 93365, Note_on_c, 9, 59, 49
1, 93365, Pitch_bend_c, 11, 12287
1, 93366, Note_on_c, 2, 50, 61
1, 93367, Note_on_c, 9, 54, 0
1, 93367, Note_on_c, 2, 55, 64
1, 93368, Note_on_c, 7, 58, 71
1, 93371, Note_on_c, 9, 82, 0
1, 93375, Pitch_bend_c, 11, 10922
1, 93378, Note_on_c, 9, 59, 0
1, 93385, Pitch_bend_c, 11, 9557
1, 93395, Pitch_bend_c, 11, 8192
1, 93455, Note_on_c, 1, 43, 0
1, 93465, Note_on_c, 3, 82, 0
1, 93477, Note_on_c, 9, 54, 34
1, 93478, Lyric_t, "is "
1, 93478, Note_on_c, 3, 82, 94
1, 93480, Note_on_c, 9, 36, 90
1, 93486, Note_on_c, 9, 82, 48
1, 93488, Note_on_c, 1, 38, 97
1, 93490, Note_on_c, 9, 54, 0
1, 93493, Note_on_c, 9, 36, 0
1, 93499, Note_on_c, 9, 82, 0
1, 93575, Note_on_c, 1, 38, 0
1, 93585, Note_on_c, 7, 58, 0
1, 93585, Note_on_c, 2, 55, 0
1, 93585, Note_on_c, 2, 50, 0
1, 93585, Note_on_c, 13, 72, 0
1, 93585, Note_on_c, 5, 62, 0
1, 93585, Note_on_c, 5, 58, 0
1, 93585, Note_on_c, 0, 72, 0
1, 93585, Note_on_c, 13, 84, 0
1, 93585, Note_on_c, 0, 60, 0
1, 93585, Note_on_c, 6, 55, 0
1, 93585, Note_on_c, 5, 55, 0
1, 93585, Note_on_c, 5, 50, 0
1, 93585, Note_on_c, 2, 58, 0
1, 93585, Note_on_c, 2, 62, 0
1, 93585, Note_on_c, 6, 62, 0
1, 93585, Note_on_c, 0, 55, 0
1, 93585, Note_on_c, 11, 72, 0
1, 93585, Note_on_c, 7, 62, 0
1, 93585, Note_on_c, 0, 58, 0
1, 93585, Note_on_c, 6, 67, 0
1, 93585, Note_on_c, 6, 58, 0
1, 93592, Note_on_c, 9, 82, 62
1, 93592, Note_on_c, 11, 70, 98
1, 93593, Note_on_c, 5, 50, 77
1, 93593, Note_on_c, 13, 70, 74
1, 93594, Note_on_c, 7, 55, 77
1, 93595, Note_on_c, 1, 31, 98
1, 93596, Note_on_c, 2, 62, 79
1, 93596, Note_on_c, 7, 58, 78
1, 93597, Note_on_c, 0, 70, 92
1, 93599, Note_on_c, 0, 58, 96
1, 93599, Note_on_c, 5, 62, 78
1, 93599, Note_on_c, 5, 58, 77
1, 93600, Note_on_c, 0, 55, 84
1, 93600, Note_on_c, 9, 40, 115
1, 93600, Note_on_c, 9, 54, 73
1, 93601, Note_on_c, 6, 58, 79
1, 93602, Note_on_c, 0, 62, 80
1, 93602, Note_on_c, 2, 58, 80
1, 93602, Note_on_c, 2, 55, 78
1, 93603, Note_on_c, 2, 50, 79
1, 93603, Note_on_c, 7, 62, 78
1, 93603, Note_on_c, 9, 59, 68
1, 93604, Note_on_c, 6, 55, 80
1, 93604, Note_on_c, 6, 62, 81
1, 93605, Note_on_c, 9, 82, 0
1, 93606, Note_on_c, 13, 82, 74
1, 93607, Note_on_c, 5, 55, 79
1, 93608, Note_on_c, 6, 67, 80
1, 93613, Note_on_c, 9, 54, 0
1, 93613, Note_on_c, 9, 40, 0
1, 93616, Note_on_c, 9, 59, 0
1, 93625, Note_on_c, 3, 82, 0
1, 93640, Control_c, 11, 1, 32
1, 93715, Note_on_c, 9, 82, 52
1, 93726, Note_on_c, 9, 54, 35
1, 93728, Note_on_c, 9, 82, 0
1, 93739, Note_on_c, 9, 54, 0
1, 93825, Note_on_c, 5, 55, 0
1, 93825, Note_on_c, 2, 50, 0
1, 93825, Note_on_c, 2, 55, 0
1, 93825, Note_on_c, 2, 58, 0
1, 93825, Note_on_c, 5, 58, 0
1, 93825, Note_on_c, 5, 62, 0
1, 93825, Note_on_c, 7, 58, 0
1, 93825, Note_on_c, 2, 62, 0
1, 93825, Note_on_c, 5, 50, 0
1, 93833, Note_on_c, 7, 58, 72
1, 93837, Note_on_c, 2, 62, 65
1, 93837, Note_on_c, 2, 55, 61
1, 93837, Note_on_c, 5, 50, 65
1, 93837, Note_on_c, 9, 54, 46
1, 93839, Note_on_c, 9, 59, 50
1, 93840, Note_on_c, 2, 50, 63
1, 93840, Note_on_c, 9, 36, 90
1, 93842, Note_on_c, 2, 58, 65
1, 93843, Note_on_c, 5, 62, 64
1, 93845, Note_on_c, 5, 58, 64
1, 93846, Note_on_c, 5, 55, 64
1, 93848, Note_on_c, 9, 82, 44
1, 93850, Note_on_c, 9, 54, 0
1, 93852, Note_on_c, 9, 59, 0
1, 93853, Note_on_c, 9, 36, 0
1, 93861, Note_on_c, 9, 82, 0
1, 93895, Control_c, 11, 1, 0
1, 93900, Control_c, 11, 101, 0
1, 93905, Control_c, 11, 100, 0
1, 93910, Control_c, 11, 6, 5
1, 93945, Note_on_c, 5, 55, 0
1, 93945, Note_on_c, 5, 58, 0
1, 93945, Note_on_c, 5, 62, 0
1, 93945, Note_on_c, 2, 58, 0
1, 93945, Note_on_c, 2, 50, 0
1, 93945, Note_on_c, 5, 50, 0
1, 93945, Note_on_c, 2, 55, 0
1, 93945, Note_on_c, 2, 62, 0
1, 93955, Note_on_c, 2, 62, 56
1, 93956, Note_on_c, 2, 50, 57
1, 93956, Note_on_c, 5, 55, 56
1, 93958, Note_on_c, 5, 58, 56
1, 93959, Note_on_c, 5, 50, 58
1, 93959, Note_on_c, 5, 62, 55
1, 93961, Note_on_c, 2, 55, 58
1, 93962, Note_on_c, 9, 82, 33
1, 93962, Note_on_c, 9, 54, 34
1, 93963, Lyric_t, "e"
1, 93963, Note_on_c, 3, 84, 97
1, 93965, Control_c, 11, 11, 122
1, 93965, Pitch_bend_c, 11, 7679
1, 93968, Note_on_c, 2, 58, 55
1, 93975, Note_on_c, 9, 54, 0
1, 93975, Note_on_c, 9, 82, 0
1, 93975, Control_c, 11, 11, 115
1, 93975, Pitch_bend_c, 11, 6655
1, 93985, Control_c, 11, 11, 108
1, 93985, Pitch_bend_c, 11, 5631
1, 93995, Control_c, 11, 11, 101
1, 93995, Pitch_bend_c, 11, 4607
1, 94005, Control_c, 11, 11, 94
1, 94005, Pitch_bend_c, 11, 3583
1, 94015, Control_c, 11, 11, 87
1, 94015, Pitch_bend_c, 11, 2559
1, 94025, Note_on_c, 11, 70, 0
1, 94025, Control_c, 11, 11, 80
1, 94025, Pitch_bend_c, 11, 1535
1, 94035, Control_c, 11, 11, 73
1, 94035, Pitch_bend_c, 11, 511
1, 94040, Pitch_bend_c, 11, 0
1, 94050, Pitch_bend_c, 11, 8192
1, 94055, Note_on_c, 1, 31, 0
1, 94060, Control_c, 11, 6, 2
1, 94065, Note_on_c, 2, 58, 0
1, 94065, Note_on_c, 2, 55, 0
1, 94065, Note_on_c, 5, 62, 0
1, 94065, Note_on_c, 5, 50, 0
1, 94065, Note_on_c, 5, 58, 0
1, 94065, Note_on_c, 5, 55, 0
1, 94065, Note_on_c, 2, 50, 0
1, 94065, Note_on_c, 2, 62, 0
1, 94065, Note_on_c, 7, 58, 0
1, 94065, Note_on_c, 6, 67, 0
1, 94065, Note_on_c, 13, 82, 0
1, 94065, Note_on_c, 6, 62, 0
1, 94065, Note_on_c, 6, 55, 0
1, 94065, Note_on_c, 7, 62, 0
1, 94065, Note_on_c, 0, 62, 0
1, 94065, Note_on_c, 6, 58, 0
1, 94065, Note_on_c, 0, 55, 0
1, 94065, Note_on_c, 0, 58, 0
1, 94065, Note_on_c, 0, 70, 0
1, 94065, Note_on_c, 7, 55, 0
1, 94065, Note_on_c, 13, 70, 0
1, 94065, Note_on_c, 0, 50, 0
1, 94065, Note_on_c, 13, 55, 0
1, 94065, Note_on_c, 13, 62, 0
1, 94065, Note_on_c, 13, 58, 0
1, 94065, Note_on_c, 12, 50, 0
1, 94065, Note_on_c, 13, 67, 0
1, 94065, Note_on_c, 12, 43, 0
1, 94065, Control_c, 11, 101, 127
1, 94070, Control_c, 11, 100, 127
1, 94072, Note_on_c, 9, 82, 65
1, 94073, Note_on_c, 12, 48, 81
1, 94074, Note_on_c, 6, 60, 81
1, 94075, Control_c, 11, 11, 127
1, 94077, Note_on_c, 5, 57, 85
1, 94077, Note_on_c, 6, 53, 80
1, 94077, Note_on_c, 7, 57, 81
1, 94077, Note_on_c, 9, 54, 49
1, 94077, Note_on_c, 12, 41, 80
1, 94078, Note_on_c, 0, 41, 85
1, 94078, Note_on_c, 11, 41, 82
1, 94080, Note_on_c, 2, 57, 84
1, 94080, Note_on_c, 9, 36, 115
1, 94080, Note_on_c, 9, 49, 90
1, 94081, Note_on_c, 0, 60, 87
1, 94081, Note_on_c, 0, 69, 89
1, 94081, Note_on_c, 1, 41, 103
1, 94081, Note_on_c, 2, 65, 82
1, 94081, Note_on_c, 5, 65, 83
1, 94081, Note_on_c, 6, 57, 84
1, 94081, Note_on_c, 6, 65, 80
1, 94081, Note_on_c, 7, 65, 83
1, 94082, Note_on_c, 0, 65, 85
1, 94082, Note_on_c, 13, 65, 77
1, 94083, Note_on_c, 2, 60, 83
1, 94083, Note_on_c, 13, 69, 74
1, 94083, Note_on_c, 13, 53, 75
1, 94084, Note_on_c, 13, 81, 74
1, 94085, Note_on_c, 9, 82, 0
1, 94085, Note_on_c, 2, 53, 85
1, 94085, Note_on_c, 7, 60, 83
1, 94086, Note_on_c, 13, 60, 73
1, 94087, Note_on_c, 5, 60, 83
1, 94088, Note_on_c, 5, 53, 81
1, 94090, Note_on_c, 9, 54, 0
1, 94093, Note_on_c, 9, 49, 0
1, 94093, Note_on_c, 9, 36, 0
1, 94145, Note_on_c, 3, 84, 0
1, 94162, Lyric_t, "nough "
1, 94162, Lyric_t, "\015"
1, 94162, Note_on_c, 3, 84, 88
1, 94199, Note_on_c, 9, 82, 50
1, 94201, Note_on_c, 9, 54, 37
1, 94212, Note_on_c, 9, 82, 0
1, 94214, Note_on_c, 9, 54, 0
1, 94215, Note_on_c, 1, 41, 0
1, 94305, Note_on_c, 5, 53, 0
1, 94305, Note_on_c, 5, 60, 0
1, 94305, Note_on_c, 2, 53, 0
1, 94305, Note_on_c, 13, 53, 0
1, 94305, Note_on_c, 2, 60, 0
1, 94305, Note_on_c, 5, 65, 0
1, 94305, Note_on_c, 2, 65, 0
1, 94305, Note_on_c, 2, 57, 0
1, 94305, Note_on_c, 11, 41, 0
1, 94305, Note_on_c, 12, 41, 0
1, 94305, Note_on_c, 6, 53, 0
1, 94305, Note_on_c, 5, 57, 0
1, 94305, Note_on_c, 12, 48, 0
1, 94312, Note_on_c, 11, 41, 78
1, 94312, Note_on_c, 13, 41, 75
1, 94313, Note_on_c, 12, 41, 81
1, 94314, Note_on_c, 1, 41, 93
1, 94314, Note_on_c, 2, 60, 63
1, 94314, Note_on_c, 5, 53, 60
1, 94315, Note_on_c, 6, 53, 73
1, 94317, Note_on_c, 0, 48, 71
1, 94318, Note_on_c, 2, 53, 61
1, 94318, Note_on_c, 5, 57, 63
1, 94318, Note_on_c, 5, 60, 59
1, 94318, Note_on_c, 9, 82, 34
1, 94319, Note_on_c, 2, 65, 61
1, 94320, Note_on_c, 7, 53, 69
1, 94320, Note_on_c, 9, 36, 115
1, 94320, Note_on_c, 9, 57, 50
1, 94321, Note_on_c, 9, 54, 49
1, 94321, Note_on_c, 12, 48, 80
1, 94323, Note_on_c, 2, 57, 60
1, 94325, Note_on_c, 5, 65, 62
1, 94331, Note_on_c, 9, 82, 0
1, 94333, Note_on_c, 9, 57, 0
1, 94333, Note_on_c, 9, 36, 0
1, 94334, Note_on_c, 9, 54, 0
1, 94415, Note_on_c, 1, 41, 0
1, 94425, Note_on_c, 5, 65, 0
1, 94425, Note_on_c, 2, 57, 0
1, 94425, Note_on_c, 2, 65, 0
1, 94425, Note_on_c, 5, 60, 0
1, 94425, Note_on_c, 5, 57, 0
1, 94425, Note_on_c, 2, 53, 0
1, 94425, Note_on_c, 5, 53, 0
1, 94425, Note_on_c, 2, 60, 0
1, 94425, Note_on_c, 13, 41, 0
1, 94425, Note_on_c, 11, 41, 0
1, 94432, Note_on_c, 2, 65, 51
1, 94432, Note_on_c, 5, 53, 55
1, 94434, Note_on_c, 13, 41, 77
1, 94437, Note_on_c, 2, 57, 51
1, 94437, Note_on_c, 2, 53, 54
1, 94438, Note_on_c, 1, 41, 97
1, 94440, Note_on_c, 2, 60, 52
1, 94441, Note_on_c, 5, 60, 55
1, 94441, Note_on_c, 9, 54, 34
1, 94443, Note_on_c, 9, 82, 50
1, 94443, Note_on_c, 11, 41, 78
1, 94445, Note_on_c, 5, 65, 51
1, 94448, Note_on_c, 5, 57, 55
1, 94454, Note_on_c, 9, 54, 0
1, 94456, Note_on_c, 9, 82, 0
1, 94535, Note_on_c, 1, 41, 0
1, 94545, Note_on_c, 5, 57, 0
1, 94545, Note_on_c, 5, 65, 0
1, 94545, Note_on_c, 11, 41, 0
1, 94545, Note_on_c, 5, 60, 0
1, 94545, Note_on_c, 2, 60, 0
1, 94545, Note_on_c, 2, 53, 0
1, 94545, Note_on_c, 2, 57, 0
1, 94545, Note_on_c, 13, 41, 0
1, 94545, Note_on_c, 5, 53, 0
1, 94545, Note_on_c, 2, 65, 0
1, 94545, Note_on_c, 12, 48, 0
1, 94545, Note_on_c, 6, 53, 0
1, 94545, Note_on_c, 12, 41, 0
1, 94545, Note_on_c, 7, 60, 0
1, 94545, Note_on_c, 0, 65, 0
1, 94545, Note_on_c, 7, 65, 0
1, 94545, Note_on_c, 6, 65, 0
1, 94545, Note_on_c, 6, 57, 0
1, 94545, Note_on_c, 0, 69, 0
1, 94545, Note_on_c, 0, 60, 0
1, 94545, Note_on_c, 7, 57, 0
1, 94545, Note_on_c, 6, 60, 0
1, 94552, Note_on_c, 5, 53, 81
1, 94554, Note_on_c, 1, 41, 100
1, 94556, Note_on_c, 2, 53, 80
1, 94558, Note_on_c, 0, 69, 88
1, 94558, Note_on_c, 5, 60, 80
1, 94558, Note_on_c, 5, 65, 82
1, 94558, Note_on_c, 7, 57, 80
1, 94558, Note_on_c, 13, 53, 74
1, 94559, Note_on_c, 6, 60, 79
1, 94559, Note_on_c, 9, 82, 65
1, 94560, Note_on_c, 7, 65, 83
1, 94560, Note_on_c, 9, 57, 70
1, 94560, Note_on_c, 9, 40, 115
1, 94562, Note_on_c, 0, 60, 87
1, 94562, Note_on_c, 0, 65, 84
1, 94562, Note_on_c, 2, 60, 79
1, 94562, Note_on_c, 2, 57, 80
1, 94562, Note_on_c, 2, 65, 83
1, 94562, Note_on_c, 5, 57, 81
1, 94562, Note_on_c, 11, 41, 80
1, 94562, Note_on_c, 12, 48, 80
1, 94563, Note_on_c, 0, 53, 84
1, 94563, Note_on_c, 9, 54, 73
1, 94563, Note_on_c, 12, 41, 81
1, 94565, Note_on_c, 6, 57, 81
1, 94566, Note_on_c, 6, 53, 83
1, 94566, Note_on_c, 6, 65, 82
1, 94566, Note_on_c, 7, 60, 81
1, 94572, Note_on_c, 9, 82, 0
1, 94573, Note_on_c, 9, 40, 0
1, 94573, Note_on_c, 9, 57, 0
1, 94576, Note_on_c, 9, 54, 0
1, 94655, Note_on_c, 1, 41, 0
1, 94665, Note_on_c, 11, 41, 0
1, 94665, Note_on_c, 13, 53, 0
1, 94672, Note_on_c, 1, 41, 95
1, 94677, Note_on_c, 11, 41, 81
1, 94682, Note_on_c, 13, 53, 76
1, 94686, Note_on_c, 9, 54, 36
1, 94688, Note_on_c, 9, 82, 47
1, 94699, Note_on_c, 9, 54, 0
1, 94701, Note_on_c, 9, 82, 0
1, 94775, Note_on_c, 1, 41, 0
1, 94785, Note_on_c, 13, 53, 0
1, 94785, Note_on_c, 11, 41, 0
1, 94785, Note_on_c, 6, 53, 0
1, 94785, Note_on_c, 12, 41, 0
1, 94785, Note_on_c, 12, 48, 0
1, 94785, Note_on_c, 5, 57, 0
1, 94785, Note_on_c, 2, 65, 0
1, 94785, Note_on_c, 2, 57, 0
1, 94785, Note_on_c, 2, 60, 0
1, 94785, Note_on_c, 5, 65, 0
1, 94785, Note_on_c, 5, 60, 0
1, 94785, Note_on_c, 2, 53, 0
1, 94785, Note_on_c, 5, 53, 0
1, 94785, Note_on_c, 7, 53, 0
1, 94785, Note_on_c, 0, 48, 0
1, 94794, Note_on_c, 1, 41, 95
1, 94797, Note_on_c, 2, 57, 65
1, 94797, Note_on_c, 2, 65, 63
1, 94797, Note_on_c, 5, 60, 64
1, 94797, Note_on_c, 6, 53, 77
1, 94797, Note_on_c, 11, 41, 78
1, 94798, Note_on_c, 2, 53, 66
1, 94798, Note_on_c, 7, 53, 71
1, 94798, Note_on_c, 9, 82, 34
1, 94798, Note_on_c, 13, 41, 77
1, 94799, Note_on_c, 9, 54, 49
1, 94799, Note_on_c, 12, 48, 78
1, 94800, Note_on_c, 9, 57, 50
1, 94802, Note_on_c, 0, 48, 77
1, 94803, Note_on_c, 2, 60, 63
1, 94803, Note_on_c, 5, 53, 65
1, 94807, Note_on_c, 12, 41, 78
1, 94808, Note_on_c, 5, 57, 64
1, 94808, Note_on_c, 5, 65, 66
1, 94811, Note_on_c, 9, 82, 0
1, 94812, Note_on_c, 9, 54, 0
1, 94813, Note_on_c, 9, 57, 0
1, 94895, Note_on_c, 1, 41, 0
1, 94905, Note_on_c, 5, 65, 0
1, 94905, Note_on_c, 5, 57, 0
1, 94905, Note_on_c, 5, 53, 0
1, 94905, Note_on_c, 2, 60, 0
1, 94905, Note_on_c, 13, 41, 0
1, 94905, Note_on_c, 2, 53, 0
1, 94905, Note_on_c, 11, 41, 0
1, 94905, Note_on_c, 5, 60, 0
1, 94905, Note_on_c, 2, 65, 0
1, 94905, Note_on_c, 2, 57, 0
1, 94916, Note_on_c, 5, 57, 62
1, 94917, Note_on_c, 2, 60, 62
1, 94918, Note_on_c, 2, 57, 64
1, 94918, Note_on_c, 5, 65, 64
1, 94918, Note_on_c, 13, 41, 76
1, 94920, Note_on_c, 9, 36, 90
1, 94922, Note_on_c, 5, 53, 63
1, 94922, Note_on_c, 11, 41, 80
1, 94923, Note_on_c, 2, 65, 60
1, 94923, Note_on_c, 2, 53, 61
1, 94923, Note_on_c, 9, 82, 49
1, 94925, Note_on_c, 1, 41, 99
1, 94926, Note_on_c, 9, 54, 37
1, 94928, Note_on_c, 5, 60, 60
1, 94933, Note_on_c, 9, 36, 0
1, 94936, Note_on_c, 9, 82, 0
1, 94939, Note_on_c, 9, 54, 0
1, 95015, Note_on_c, 1, 41, 0
1, 95025, Note_on_c, 5, 60, 0
1, 95025, Note_on_c, 2, 53, 0
1, 95025, Note_on_c, 2, 65, 0
1, 95025, Note_on_c, 11, 41, 0
1, 95025, Note_on_c, 5, 53, 0
1, 95025, Note_on_c, 13, 41, 0
1, 95025, Note_on_c, 5, 65, 0
1, 95025, Note_on_c, 2, 57, 0
1, 95025, Note_on_c, 2, 60, 0
1, 95025, Note_on_c, 5, 57, 0
1, 95025, Note_on_c, 12, 41, 0
1, 95025, Note_on_c, 0, 48, 0
1, 95025, Note_on_c, 12, 48, 0
1, 95025, Note_on_c, 7, 53, 0
1, 95025, Note_on_c, 6, 53, 0
1, 95025, Note_on_c, 7, 60, 0
1, 95025, Note_on_c, 6, 65, 0
1, 95025, Note_on_c, 6, 57, 0
1, 95025, Note_on_c, 0, 53, 0
1, 95025, Note_on_c, 0, 65, 0
1, 95025, Note_on_c, 0, 60, 0
1, 95025, Note_on_c, 7, 65, 0
1, 95025, Note_on_c, 6, 60, 0
1, 95025, Note_on_c, 7, 57, 0
1, 95025, Note_on_c, 0, 69, 0
1, 95025, Note_on_c, 3, 84, 0
1, 95025, Note_on_c, 13, 60, 0
1, 95025, Note_on_c, 13, 81, 0
1, 95025, Note_on_c, 13, 69, 0
1, 95025, Note_on_c, 13, 65, 0
1, 95025, Note_on_c, 0, 41, 0
1, 95033, Note_on_c, 7, 58, 79
1, 95034, Note_on_c, 2, 62, 80
1, 95034, Note_on_c, 7, 62, 76
1, 95035, Note_on_c, 5, 62, 80
1, 95035, Note_on_c, 6, 53, 79
1, 95036, Note_on_c, 2, 65, 79
1, 95036, Note_on_c, 2, 53, 77
1, 95036, Note_on_c, 3, 86, 99
1, 95037, Note_on_c, 0, 65, 86
1, 95037, Note_on_c, 0, 62, 83
1, 95037, Note_on_c, 13, 70, 76
1, 95037, Note_on_c, 13, 62, 73
1, 95038, Note_on_c, 5, 53, 80
1, 95038, Note_on_c, 7, 65, 76
1, 95038, Note_on_c, 13, 65, 73
1, 95039, Note_on_c, 2, 58, 77
1, 95039, Note_on_c, 11, 41, 78
1, 95040, Note_on_c, 0, 41, 83
1, 95040, Note_on_c, 6, 58, 80
1, 95040, Note_on_c, 9, 57, 70
1, 95040, Note_on_c, 9, 36, 115
1, 95040, Note_on_c, 12, 41, 78
1, 95040, Note_on_c, 13, 53, 77
1, 95041, Note_on_c, 0, 70, 85
1, 95041, Note_on_c, 6, 62, 79
1, 95042, Note_on_c, 1, 41, 99
1, 95043, Note_on_c, 5, 65, 78
1, 95043, Note_on_c, 9, 54, 47
1, 95044, Note_on_c, 9, 82, 63
1, 95045, Note_on_c, 5, 58, 78
1, 95046, Note_on_c, 13, 82, 77
1, 95047, Note_on_c, 12, 48, 80
1, 95048, Note_on_c, 6, 65, 79
1, 95053, Note_on_c, 9, 36, 0
1, 95053, Note_on_c, 9, 57, 0
1, 95056, Note_on_c, 9, 54, 0
1, 95057, Note_on_c, 9, 82, 0
1, 95135, Note_on_c, 1, 41, 0
1, 95145, Note_on_c, 13, 53, 0
1, 95145, Note_on_c, 11, 41, 0
1, 95155, Note_on_c, 9, 82, 49
1, 95156, Note_on_c, 13, 53, 76
1, 95163, Note_on_c, 1, 41, 95
1, 95164, Note_on_c, 11, 41, 81
1, 95167, Note_on_c, 9, 54, 34
1, 95168, Note_on_c, 9, 82, 0
1, 95180, Note_on_c, 9, 54, 0
1, 95210, Note_on_c, 1, 41, 0
1, 95265, Note_on_c, 11, 41, 0
1, 95265, Note_on_c, 13, 53, 0
1, 95265, Note_on_c, 12, 48, 0
1, 95265, Note_on_c, 5, 58, 0
1, 95265, Note_on_c, 5, 65, 0
1, 95265, Note_on_c, 12, 41, 0
1, 95265, Note_on_c, 2, 58, 0
1, 95265, Note_on_c, 5, 53, 0
1, 95265, Note_on_c, 2, 53, 0
1, 95265, Note_on_c, 2, 65, 0
1, 95265, Note_on_c, 6, 53, 0
1, 95265, Note_on_c, 5, 62, 0
1, 95265, Note_on_c, 2, 62, 0
1, 95272, Note_on_c, 9, 54, 46
1, 95274, Note_on_c, 13, 41, 76
1, 95275, Note_on_c, 11, 41, 80
1, 95276, Note_on_c, 12, 41, 82
1, 95277, Note_on_c, 5, 53, 66
1, 95277, Note_on_c, 7, 53, 71
1, 95278, Note_on_c, 9, 82, 32
1, 95279, Note_on_c, 0, 48, 75
1, 95279, Note_on_c, 5, 65, 65
1, 95280, Note_on_c, 2, 62, 66
1, 95280, Note_on_c, 9, 36, 115
1, 95280, Note_on_c, 9, 57, 50
1, 95281, Note_on_c, 5, 62, 62
1, 95282, Note_on_c, 2, 53, 63
1, 95282, Note_on_c, 12, 48, 78
1, 95283, Note_on_c, 2, 58, 64
1, 95283, Note_on_c, 6, 53, 76
1, 95284, Note_on_c, 1, 29, 97
1, 95284, Note_on_c, 5, 58, 65
1, 95285, Note_on_c, 9, 54, 0
1, 95288, Note_on_c, 2, 65, 63
1, 95291, Note_on_c, 9, 82, 0
1, 95293, Note_on_c, 9, 57, 0
1, 95293, Note_on_c, 9, 36, 0
1, 95375, Note_on_c, 1, 29, 0
1, 95385, Note_on_c, 11, 41, 0
1, 95385, Note_on_c, 13, 41, 0
1, 95401, Note_on_c, 1, 41, 97
1, 95403, Note_on_c, 9, 82, 46
1, 95403, Note_on_c, 11, 41, 82
1, 95406, Note_on_c, 9, 54, 35
1, 95406, Note_on_c, 13, 41, 76
1, 95416, Note_on_c, 9, 82, 0
1, 95419, Note_on_c, 9, 54, 0
1, 95495, Note_on_c, 1, 41, 0
1, 95505, Note_on_c, 13, 41, 0
1, 95505, Note_on_c, 11, 41, 0
1, 95505, Note_on_c, 2, 65, 0
1, 95505, Note_on_c, 5, 58, 0
1, 95505, Note_on_c, 6, 53, 0
1, 95505, Note_on_c, 2, 58, 0
1, 95505, Note_on_c, 12, 48, 0
1, 95505, Note_on_c, 2, 53, 0
1, 95505, Note_on_c, 5, 62, 0
1, 95505, Note_on_c, 2, 62, 0
1, 95505, Note_on_c, 5, 65, 0
1, 95505, Note_on_c, 5, 53, 0
1, 95505, Note_on_c, 12, 41, 0
1, 95505, Note_on_c, 6, 65, 0
1, 95505, Note_on_c, 6, 62, 0
1, 95505, Note_on_c, 0, 70, 0
1, 95505, Note_on_c, 6, 58, 0
1, 95505, Note_on_c, 7, 65, 0
1, 95505, Note_on_c, 0, 62, 0
1, 95505, Note_on_c, 0, 65, 0
1, 95505, Note_on_c, 7, 62, 0
1, 95505, Note_on_c, 7, 58, 0
1, 95512, Note_on_c, 2, 65, 81
1, 95512, Note_on_c, 5, 62, 83
1, 95513, Note_on_c, 7, 58, 82
1, 95513, Note_on_c, 12, 48, 82
1, 95514, Note_on_c, 6, 65, 84
1, 95514, Note_on_c, 9, 54, 74
1, 95515, Note_on_c, 1, 41, 102
1, 95516, Note_on_c, 6, 62, 81
1, 95517, Note_on_c, 2, 58, 81
1, 95518, Note_on_c, 6, 58, 80
1, 95518, Note_on_c, 7, 62, 84
1, 95518, Note_on_c, 9, 82, 64
1, 95519, Note_on_c, 5, 53, 85
1, 95520, Note_on_c, 0, 70, 94
1, 95520, Note_on_c, 2, 53, 81
1, 95520, Note_on_c, 6, 53, 83
1, 95520, Note_on_c, 9, 57, 70
1, 95520, Note_on_c, 9, 40, 115
1, 95521, Note_on_c, 0, 65, 94
1, 95522, Note_on_c, 0, 53, 86
1, 95522, Note_on_c, 0, 62, 92
1, 95522, Note_on_c, 5, 58, 83
1, 95523, Note_on_c, 11, 41, 82
1, 95524, Note_on_c, 2, 62, 83
1, 95524, Note_on_c, 12, 41, 79
1, 95527, Note_on_c, 9, 54, 0
1, 95527, Note_on_c, 13, 53, 75
1, 95528, Note_on_c, 5, 65, 83
1, 95528, Note_on_c, 7, 65, 82
1, 95531, Note_on_c, 9, 82, 0
1, 95533, Note_on_c, 9, 40, 0
1, 95533, Note_on_c, 9, 57, 0
1, 95615, Note_on_c, 1, 41, 0
1, 95625, Note_on_c, 13, 53, 0
1, 95625, Note_on_c, 11, 41, 0
1, 95635, Note_on_c, 11, 41, 80
1, 95637, Note_on_c, 9, 54, 36
1, 95641, Note_on_c, 9, 82, 52
1, 95645, Note_on_c, 1, 41, 93
1, 95648, Note_on_c, 13, 53, 74
1, 95650, Note_on_c, 9, 54, 0
1, 95654, Note_on_c, 9, 82, 0
1, 95735, Note_on_c, 1, 41, 0
1, 95745, Note_on_c, 13, 53, 0
1, 95745, Note_on_c, 11, 41, 0
1, 95745, Note_on_c, 5, 65, 0
1, 95745, Note_on_c, 12, 41, 0
1, 95745, Note_on_c, 2, 62, 0
1, 95745, Note_on_c, 5, 58, 0
1, 95745, Note_on_c, 6, 53, 0
1, 95745, Note_on_c, 2, 53, 0
1, 95745, Note_on_c, 5, 53, 0
1, 95745, Note_on_c, 2, 58, 0
1, 95745, Note_on_c, 12, 48, 0
1, 95745, Note_on_c, 5, 62, 0
1, 95745, Note_on_c, 2, 65, 0
1, 95745, Note_on_c, 0, 48, 0
1, 95745, Note_on_c, 7, 53, 0
1, 95752, Note_on_c, 2, 53, 63
1, 95753, Note_on_c, 9, 82, 42
1, 95755, Note_on_c, 11, 41, 80
1, 95756, Note_on_c, 12, 48, 80
1, 95757, Note_on_c, 5, 62, 63
1, 95758, Note_on_c, 0, 48, 76
1, 95758, Note_on_c, 1, 36, 95
1, 95758, Note_on_c, 6, 53, 75
1, 95758, Note_on_c, 13, 41, 76
1, 95759, Note_on_c, 5, 65, 61
1, 95759, Note_on_c, 12, 41, 81
1, 95760, Note_on_c, 2, 62, 63
1, 95760, Note_on_c, 2, 58, 62
1, 95760, Note_on_c, 9, 36, 90
1, 95760, Note_on_c, 9, 57, 50
1, 95762, Note_on_c, 5, 53, 62
1, 95762, Note_on_c, 9, 54, 48
1, 95766, Note_on_c, 9, 82, 0
1, 95766, Note_on_c, 5, 58, 61
1, 95766, Note_on_c, 7, 53, 70
1, 95767, Note_on_c, 2, 65, 63
1, 95773, Note_on_c, 9, 57, 0
1, 95773, Note_on_c, 9, 36, 0
1, 95775, Note_on_c, 9, 54, 0
1, 95855, Note_on_c, 1, 36, 0
1, 95865, Note_on_c, 2, 65, 0
1, 95865, Note_on_c, 5, 58, 0
1, 95865, Note_on_c, 5, 53, 0
1, 95865, Note_on_c, 2, 58, 0
1, 95865, Note_on_c, 2, 62, 0
1, 95865, Note_on_c, 5, 65, 0
1, 95865, Note_on_c, 13, 41, 0
1, 95865, Note_on_c, 5, 62, 0
1, 95865, Note_on_c, 11, 41, 0
1, 95865, Note_on_c, 2, 53, 0
1, 95873, Note_on_c, 11, 41, 82
1, 95877, Note_on_c, 2, 62, 55
1, 95877, Note_on_c, 5, 53, 53
1, 95878, Note_on_c, 1, 38, 95
1, 95878, Note_on_c, 5, 65, 55
1, 95878, Note_on_c, 5, 62, 53
1, 95879, Note_on_c, 2, 53, 55
1, 95879, Note_on_c, 2, 58, 54
1, 95880, Note_on_c, 9, 36, 115
1, 95881, Note_on_c, 2, 65, 55
1, 95881, Note_on_c, 9, 82, 31
1, 95882, Note_on_c, 9, 54, 37
1, 95884, Note_on_c, 13, 41, 74
1, 95885, Note_on_c, 5, 58, 54
1, 95893, Note_on_c, 9, 36, 0
1, 95894, Note_on_c, 9, 82, 0
1, 95895, Note_on_c, 9, 54, 0
1, 95975, Note_on_c, 1, 38, 0
1, 95985, Note_on_c, 5, 58, 0
1, 95985, Note_on_c, 13, 41, 0
1, 95985, Note_on_c, 2, 65, 0
1, 95985, Note_on_c, 2, 58, 0
1, 95985, Note_on_c, 2, 53, 0
1, 95985, Note_on_c, 5, 62, 0
1, 95985, Note_on_c, 5, 65, 0
1, 95985, Note_on_c, 5, 53, 0
1, 95985, Note_on_c, 2, 62, 0
1, 95985, Note_on_c, 11, 41, 0
1, 95985, Note_on_c, 7, 53, 0
1, 95985, Note_on_c, 12, 41, 0
1, 95985, Note_on_c, 6, 53, 0
1, 95985, Note_on_c, 0, 48, 0
1, 95985, Note_on_c, 12, 48, 0
1, 95985, Note_on_c, 7, 65, 0
1, 95985, Note_on_c, 0, 62, 0
1, 95985, Note_on_c, 0, 53, 0
1, 95985, Note_on_c, 0, 65, 0
1, 95985, Note_on_c, 0, 70, 0
1, 95985, Note_on_c, 7, 62, 0
1, 95985, Note_on_c, 6, 58, 0
1, 95985, Note_on_c, 6, 62, 0
1, 95985, Note_on_c, 6, 65, 0
1, 95985, Note_on_c, 7, 58, 0
1, 95985, Note_on_c, 13, 82, 0
1, 95985, Note_on_c, 0, 41, 0
1, 95985, Note_on_c, 13, 65, 0
1, 95985, Note_on_c, 13, 62, 0
1, 95985, Note_on_c, 13, 70, 0
1, 95985, Note_on_c, 3, 86, 0
1, 95992, Note_on_c, 2, 57, 86
1, 95994, Note_on_c, 7, 57, 83
1, 95995, Note_on_c, 5, 57, 82
1, 95995, Note_on_c, 13, 53, 73
1, 95997, Note_on_c, 0, 69, 95
1, 95997, Note_on_c, 5, 53, 84
1, 95997, Note_on_c, 5, 63, 84
1, 95997, Note_on_c, 7, 63, 84
1, 95997, Note_on_c, 7, 65, 82
1, 95997, Note_on_c, 12, 41, 80
1, 95998, Note_on_c, 0, 41, 88
1, 95998, Note_on_c, 6, 53, 84
1, 95998, Note_on_c, 12, 48, 80
1, 95998, Note_on_c, 13, 69, 74
1, 95998, Note_on_c, 13, 72, 75
1, 96000, Note_on_c, 0, 65, 92
1, 96000, Note_on_c, 9, 40, 115
1, 96000, Note_on_c, 9, 49, 90
1, 96000, Note_on_c, 13, 63, 75
1, 96001, Note_on_c, 0, 60, 96
1, 96001, Note_on_c, 0, 72, 96
1, 96001, Note_on_c, 9, 54, 48
1, 96002, Note_on_c, 2, 53, 85
1, 96002, Note_on_c, 11, 41, 81
1, 96004, Note_on_c, 9, 82, 65
1, 96005, Note_on_c, 6, 57, 82
1, 96006, Note_on_c, 1, 41, 105
1, 96006, Note_on_c, 2, 63, 83
1, 96006, Note_on_c, 3, 87, 104
1, 96006, Note_on_c, 6, 63, 83
1, 96006, Note_on_c, 13, 84, 75
1, 96007, Note_on_c, 5, 65, 82
1, 96007, Note_on_c, 6, 65, 80
1, 96008, Note_on_c, 2, 65, 83
1, 96013, Note_on_c, 9, 49, 0
1, 96013, Note_on_c, 9, 40, 0
1, 96014, Note_on_c, 9, 54, 0
1, 96017, Note_on_c, 9, 82, 0
1, 96118, Note_on_c, 9, 82, 49
1, 96125, Note_on_c, 9, 54, 38
1, 96131, Note_on_c, 9, 82, 0
1, 96138, Note_on_c, 9, 54, 0
1, 96215, Note_on_c, 1, 41, 0
1, 96225, Note_on_c, 2, 65, 0
1, 96225, Note_on_c, 5, 65, 0
1, 96225, Note_on_c, 2, 63, 0
1, 96225, Note_on_c, 11, 41, 0
1, 96225, Note_on_c, 2, 53, 0
1, 96225, Note_on_c, 6, 53, 0
1, 96225, Note_on_c, 5, 63, 0
1, 96225, Note_on_c, 5, 53, 0
1, 96225, Note_on_c, 13, 53, 0
1, 96225, Note_on_c, 5, 57, 0
1, 96225, Note_on_c, 2, 57, 0
1, 96233, Note_on_c, 7, 53, 73
1, 96235, Note_on_c, 2, 57, 64
1, 96236, Note_on_c, 2, 65, 65
1, 96236, Note_on_c, 5, 53, 63
1, 96237, Note_on_c, 0, 48, 76
1, 96238, Note_on_c, 2, 63, 64
1, 96239, Note_on_c, 5, 57, 62
1, 96240, Note_on_c, 5, 65, 66
1, 96240, Note_on_c, 9, 40, 75
1, 96240, Note_on_c, 9, 36, 90
1, 96242, Note_on_c, 9, 54, 46
1, 96243, Note_on_c, 6, 53, 76
1, 96244, Note_on_c, 5, 63, 63
1, 96245, Note_on_c, 9, 50, 76
1, 96246, Note_on_c, 1, 41, 97
1, 96247, Note_on_c, 9, 82, 31
1, 96247, Note_on_c, 11, 41, 82
1, 96248, Note_on_c, 2, 53, 62
1, 96248, Note_on_c, 13, 41, 78
1, 96253, Note_on_c, 9, 36, 0
1, 96253, Note_on_c, 9, 40, 0
1, 96255, Note_on_c, 9, 54, 0
1, 96258, Note_on_c, 9, 50, 0
1, 96260, Note_on_c, 9, 82, 0
1, 96345, Note_on_c, 13, 41, 0
1, 96345, Note_on_c, 2, 53, 0
1, 96345, Note_on_c, 11, 41, 0
1, 96345, Note_on_c, 5, 63, 0
1, 96345, Note_on_c, 5, 65, 0
1, 96345, Note_on_c, 5, 57, 0
1, 96345, Note_on_c, 2, 63, 0
1, 96345, Note_on_c, 5, 53, 0
1, 96345, Note_on_c, 2, 65, 0
1, 96345, Note_on_c, 2, 57, 0
1, 96353, Note_on_c, 9, 82, 47
1, 96356, Note_on_c, 2, 57, 50
1, 96358, Note_on_c, 2, 65, 49
1, 96358, Note_on_c, 9, 54, 38
1, 96359, Note_on_c, 2, 63, 50
1, 96359, Note_on_c, 5, 65, 49
1, 96360, Note_on_c, 5, 57, 52
1, 96360, Note_on_c, 11, 41, 81
1, 96362, Note_on_c, 2, 53, 52
1, 96364, Note_on_c, 13, 41, 80
1, 96365, Note_on_c, 5, 53, 52
1, 96366, Note_on_c, 9, 82, 0
1, 96368, Note_on_c, 5, 63, 51
1, 96371, Note_on_c, 9, 54, 0
1, 96455, Note_on_c, 1, 41, 0
1, 96465, Note_on_c, 5, 63, 0
1, 96465, Note_on_c, 5, 53, 0
1, 96465, Note_on_c, 13, 41, 0
1, 96465, Note_on_c, 2, 53, 0
1, 96465, Note_on_c, 11, 41, 0
1, 96465, Note_on_c, 5, 57, 0
1, 96465, Note_on_c, 5, 65, 0
1, 96465, Note_on_c, 2, 63, 0
1, 96465, Note_on_c, 2, 65, 0
1, 96465, Note_on_c, 2, 57, 0
1, 96465, Note_on_c, 6, 53, 0
1, 96465, Note_on_c, 6, 65, 0
1, 96465, Note_on_c, 6, 63, 0
1, 96465, Note_on_c, 3, 87, 0
1, 96465, Note_on_c, 6, 57, 0
1, 96465, Note_on_c, 0, 72, 0
1, 96465, Note_on_c, 0, 60, 0
1, 96465, Note_on_c, 0, 65, 0
1, 96465, Note_on_c, 12, 48, 0
1, 96465, Note_on_c, 12, 41, 0
1, 96465, Note_on_c, 7, 65, 0
1, 96465, Note_on_c, 7, 63, 0
1, 96465, Note_on_c, 0, 69, 0
1, 96465, Note_on_c, 7, 57, 0
1, 96472, Note_on_c, 5, 65, 81
1, 96472, Note_on_c, 6, 57, 81
1, 96472, Note_on_c, 11, 41, 79
1, 96473, Note_on_c, 5, 57, 80
1, 96475, Note_on_c, 2, 57, 79
1, 96475, Note_on_c, 6, 63, 81
1, 96475, Note_on_c, 9, 54, 74
1, 96477, Note_on_c, 2, 63, 81
1, 96477, Note_on_c, 7, 65, 82
1, 96477, Note_on_c, 13, 41, 81
1, 96478, Note_on_c, 7, 63, 79
1, 96479, Note_on_c, 2, 53, 78
1, 96479, Note_on_c, 7, 57, 82
1, 96479, Note_on_c, 9, 82, 62
1, 96480, Note_on_c, 0, 72, 91
1, 96480, Note_on_c, 0, 69, 94
1, 96480, Note_on_c, 9, 40, 88
1, 96480, Note_on_c, 9, 36, 98
1, 96482, Note_on_c, 0, 60, 91
1, 96482, Note_on_c, 0, 53, 83
1, 96482, Note_on_c, 5, 63, 78
1, 96483, Note_on_c, 0, 65, 91
1, 96485, Note_on_c, 6, 65, 82
1, 96485, Note_on_c, 6, 53, 79
1, 96485, Note_on_c, 12, 48, 82
1, 96486, Note_on_c, 5, 53, 79
1, 96486, Note_on_c, 9, 47, 90
1, 96486, Note_on_c, 12, 41, 81
1, 96487, Note_on_c, 1, 41, 99
1, 96487, Note_on_c, 2, 65, 79
1, 96488, Note_on_c, 9, 54, 0
1, 96492, Note_on_c, 9, 82, 0
1, 96493, Note_on_c, 9, 36, 0
1, 96493, Note_on_c, 9, 40, 0
1, 96499, Note_on_c, 9, 47, 0
1, 96603, Note_on_c, 9, 54, 34
1, 96607, Note_on_c, 9, 82, 47
1, 96616, Note_on_c, 9, 54, 0
1, 96620, Note_on_c, 9, 82, 0
1, 96680, Note_on_c, 6, 53, 0
1, 96680, Note_on_c, 6, 65, 0
1, 96680, Note_on_c, 6, 63, 0
1, 96680, Note_on_c, 6, 57, 0
1, 96695, Note_on_c, 1, 41, 0
1, 96705, Note_on_c, 2, 65, 0
1, 96705, Note_on_c, 12, 41, 0
1, 96705, Note_on_c, 5, 53, 0
1, 96705, Note_on_c, 12, 48, 0
1, 96705, Note_on_c, 5, 63, 0
1, 96705, Note_on_c, 0, 53, 0
1, 96705, Note_on_c, 7, 57, 0
1, 96705, Note_on_c, 2, 53, 0
1, 96705, Note_on_c, 7, 63, 0
1, 96705, Note_on_c, 13, 41, 0
1, 96705, Note_on_c, 7, 65, 0
1, 96705, Note_on_c, 2, 63, 0
1, 96705, Note_on_c, 2, 57, 0
1, 96705, Note_on_c, 5, 57, 0
1, 96705, Note_on_c, 11, 41, 0
1, 96705, Note_on_c, 5, 65, 0
1, 96705, Note_on_c, 13, 84, 0
1, 96705, Pitch_bend_c, 6, 4096
1, 96713, Note_on_c, 2, 63, 62
1, 96713, Note_on_c, 9, 54, 47
1, 96714, Note_on_c, 11, 43, 82
1, 96715, Note_on_c, 5, 57, 61
1, 96715, Note_on_c, 5, 63, 62
1, 96716, Note_on_c, 6, 56, 88
1, 96716, Note_on_c, 9, 82, 31
1, 96717, Note_on_c, 0, 55, 72
1, 96717, Note_on_c, 2, 53, 61
1, 96717, Note_on_c, 5, 53, 63
1, 96718, Note_on_c, 7, 55, 70
1, 96720, Note_on_c, 9, 40, 101
1, 96720, Note_on_c, 9, 36, 106
1, 96722, Note_on_c, 12, 43, 80
1, 96723, Note_on_c, 0, 43, 72
1, 96723, Note_on_c, 2, 65, 63
1, 96723, Note_on_c, 13, 43, 88
1, 96725, Note_on_c, 5, 65, 64
1, 96726, Note_on_c, 9, 54, 0
1, 96726, Note_on_c, 2, 57, 61
1, 96727, Note_on_c, 13, 86, 73
1, 96728, Note_on_c, 1, 43, 97
1, 96728, Note_on_c, 9, 43, 100
1, 96729, Note_on_c, 9, 82, 0
1, 96733, Note_on_c, 9, 36, 0
1, 96733, Note_on_c, 9, 40, 0
1, 96741, Note_on_c, 9, 43, 0
1, 96815, Note_on_c, 1, 43, 0
1, 96825, Note_on_c, 2, 57, 0
1, 96825, Note_on_c, 5, 65, 0
1, 96825, Note_on_c, 13, 43, 0
1, 96825, Note_on_c, 2, 65, 0
1, 96825, Note_on_c, 0, 43, 0
1, 96825, Note_on_c, 12, 43, 0
1, 96825, Note_on_c, 7, 55, 0
1, 96825, Note_on_c, 5, 53, 0
1, 96825, Note_on_c, 2, 53, 0
1, 96825, Note_on_c, 0, 55, 0
1, 96825, Note_on_c, 5, 63, 0
1, 96825, Note_on_c, 5, 57, 0
1, 96825, Note_on_c, 11, 43, 0
1, 96825, Note_on_c, 2, 63, 0
1, 96832, Note_on_c, 11, 44, 79
1, 96833, Note_on_c, 13, 44, 89
1, 96836, Note_on_c, 1, 44, 100
1, 96837, Note_on_c, 2, 65, 64
1, 96837, Note_on_c, 5, 57, 62
1, 96838, Note_on_c, 0, 44, 83
1, 96838, Note_on_c, 5, 53, 64
1, 96839, Note_on_c, 5, 65, 64
1, 96840, Note_on_c, 0, 56, 82
1, 96840, Note_on_c, 2, 57, 64
1, 96840, Pitch_bend_c, 6, 8192
1, 96841, Note_on_c, 2, 63, 64
1, 96842, Note_on_c, 7, 56, 78
1, 96842, Note_on_c, 9, 54, 34
1, 96842, Note_on_c, 9, 82, 49
1, 96843, Note_on_c, 5, 63, 65
1, 96845, Note_on_c, 12, 44, 78
1, 96848, Note_on_c, 2, 53, 61
1, 96855, Note_on_c, 9, 82, 0
1, 96855, Note_on_c, 9, 54, 0
1, 96935, Note_on_c, 1, 44, 0
1, 96945, Note_on_c, 2, 53, 0
1, 96945, Note_on_c, 12, 44, 0
1, 96945, Note_on_c, 5, 63, 0
1, 96945, Note_on_c, 7, 56, 0
1, 96945, Note_on_c, 2, 63, 0
1, 96945, Note_on_c, 2, 57, 0
1, 96945, Note_on_c, 0, 56, 0
1, 96945, Note_on_c, 5, 65, 0
1, 96945, Note_on_c, 5, 53, 0
1, 96945, Note_on_c, 0, 44, 0
1, 96945, Note_on_c, 5, 57, 0
1, 96945, Note_on_c, 2, 65, 0
1, 96945, Note_on_c, 13, 44, 0
1, 96945, Note_on_c, 11, 44, 0
1, 96945, Note_on_c, 13, 86, 0
1, 96945, Note_on_c, 6, 56, 0
1, 96945, Note_on_c, 0, 65, 0
1, 96945, Note_on_c, 0, 60, 0
1, 96945, Note_on_c, 0, 69, 0
1, 96945, Note_on_c, 0, 72, 0
1, 96945, Note_on_c, 0, 48, 0
1, 96945, Note_on_c, 7, 53, 0
1, 96945, Note_on_c, 13, 63, 0
1, 96945, Note_on_c, 13, 72, 0
1, 96945, Note_on_c, 13, 69, 0
1, 96945, Note_on_c, 0, 41, 0
1, 96945, Pitch_bend_c, 3, 4971
1, 96952, Note_on_c, 5, 57, 82
1, 96953, Note_on_c, 5, 53, 78
1, 96953, Note_on_c, 9, 82, 64
1, 96956, Note_on_c, 2, 53, 80
1, 96957, Note_on_c, 0, 60, 82
1, 96957, Note_on_c, 0, 69, 86
1, 96957, Note_on_c, 9, 41, 113
1, 96957, Note_on_c, 11, 45, 81
1, 96957, Note_on_c, 13, 45, 90
1, 96958, Note_on_c, 0, 65, 86
1, 96958, Note_on_c, 2, 63, 81
1, 96959, Note_on_c, 13, 87, 76
1, 96960, Note_on_c, 0, 57, 84
1, 96960, Note_on_c, 2, 65, 79
1, 96960, Note_on_c, 2, 57, 82
1, 96960, Note_on_c, 6, 57, 81
1, 96960, Note_on_c, 7, 57, 82
1, 96960, Note_on_c, 9, 36, 115
1, 96960, Note_on_c, 9, 49, 90
1, 96961, Note_on_c, 0, 45, 85
1, 96962, Lyric_t, "So "
1, 96962, Note_on_c, 1, 45, 100
1, 96962, Note_on_c, 3, 89, 105
1, 96963, Note_on_c, 0, 72, 83
1, 96963, Note_on_c, 9, 54, 50
1, 96965, Note_on_c, 5, 65, 79
1, 96965, Note_on_c, 12, 45, 80
1, 96966, Note_on_c, 9, 82, 0
1, 96968, Note_on_c, 5, 63, 81
1, 96970, Note_on_c, 9, 41, 0
1, 96973, Note_on_c, 9, 49, 0
1, 96973, Note_on_c, 9, 36, 0
1, 96976, Note_on_c, 9, 54, 0
1, 96980, Pitch_bend_c, 3, 5241
1, 96990, Pitch_bend_c, 3, 5777
1, 97000, Pitch_bend_c, 3, 6314
1, 97010, Pitch_bend_c, 3, 6851
1, 97020, Pitch_bend_c, 3, 7387
1, 97030, Pitch_bend_c, 3, 7924
1, 97035, Pitch_bend_c, 3, 8192
1, 97055, Note_on_c, 1, 45, 0
1, 97065, Note_on_c, 12, 45, 0
1, 97065, Note_on_c, 7, 57, 0
1, 97065, Note_on_c, 13, 87, 0
1, 97065, Note_on_c, 13, 45, 0
1, 97065, Note_on_c, 11, 45, 0
1, 97105, Note_on_c, 0, 72, 0
1, 97105, Note_on_c, 0, 65, 0
1, 97105, Note_on_c, 0, 69, 0
1, 97105, Note_on_c, 0, 60, 0
1, 97185, Note_on_c, 5, 63, 0
1, 97185, Note_on_c, 5, 65, 0
1, 97185, Note_on_c, 0, 45, 0
1, 97185, Note_on_c, 6, 57, 0
1, 97185, Note_on_c, 2, 57, 0
1, 97185, Note_on_c, 2, 65, 0
1, 97185, Note_on_c, 0, 57, 0
1, 97185, Note_on_c, 2, 63, 0
1, 97185, Note_on_c, 2, 53, 0
1, 97185, Note_on_c, 5, 53, 0
1, 97185, Note_on_c, 5, 57, 0
1, 97425, Note_on_c, 3, 89, 0
1, 97443, Lyric_t, "hold "
1, 97443, Note_on_c, 3, 86, 100
1, 97545, Note_on_c, 3, 86, 0
1, 97665, Pitch_bend_c, 4, 4096
1, 97665, Pitch_bend_c, 15, 4096
1, 97674, Note_on_c, 4, 70, 84
1, 97674, Note_on_c, 15, 70, 1
1, 97677, Lyric_t, "on "
1, 97677, Note_on_c, 3, 89, 91
1, 97700, Pitch_bend_c, 4, 4439
1, 97700, Pitch_bend_c, 15, 4439
1, 97710, Pitch_bend_c, 4, 5121
1, 97710, Pitch_bend_c, 15, 5121
1, 97720, Pitch_bend_c, 4, 5804
1, 97720, Pitch_bend_c, 15, 5804
1, 97730, Pitch_bend_c, 4, 6486
1, 97730, Pitch_bend_c, 15, 6486
1, 97740, Pitch_bend_c, 4, 7169
1, 97740, Pitch_bend_c, 15, 7169
1, 97750, Pitch_bend_c, 4, 7851
1, 97750, Pitch_bend_c, 15, 7851
1, 97755, Pitch_bend_c, 4, 8192
1, 97755, Pitch_bend_c, 15, 8192
1, 97913, Note_on_c, 2, 58, 84
1, 97913, Note_on_c, 12, 46, 99
1, 97914, Note_on_c, 7, 58, 84
1, 97914, Note_on_c, 13, 46, 80
1, 97915, Note_on_c, 13, 53, 79
1, 97916, Note_on_c, 13, 82, 80
1, 97917, Note_on_c, 0, 65, 85
1, 97917, Note_on_c, 2, 65, 84
1, 97917, Note_on_c, 9, 82, 65
1, 97917, Note_on_c, 13, 70, 82
1, 97918, Note_on_c, 0, 70, 89
1, 97918, Note_on_c, 5, 53, 83
1, 97919, Note_on_c, 0, 62, 85
1, 97920, Note_on_c, 1, 46, 101
1, 97920, Note_on_c, 2, 53, 82
1, 97920, Note_on_c, 9, 49, 90
1, 97920, Note_on_c, 9, 36, 115
1, 97921, Note_on_c, 2, 62, 81
1, 97922, Note_on_c, 9, 54, 48
1, 97923, Note_on_c, 0, 46, 87
1, 97923, Note_on_c, 7, 65, 85
1, 97925, Note_on_c, 5, 58, 82
1, 97925, Note_on_c, 7, 62, 81
1, 97925, Note_on_c, 11, 46, 98
1, 97926, Note_on_c, 7, 53, 83
1, 97927, Note_on_c, 13, 62, 82
1, 97928, Note_on_c, 5, 62, 84
1, 97928, Note_on_c, 5, 65, 85
1, 97928, Note_on_c, 6, 46, 80
1, 97930, Note_on_c, 9, 82, 0
1, 97933, Note_on_c, 9, 36, 0
1, 97933, Note_on_c, 9, 49, 0
1, 97935, Note_on_c, 9, 54, 0
1, 98035, Note_on_c, 9, 82, 49
1, 98040, Control_c, 11, 1, 48
1, 98043, Note_on_c, 9, 54, 37
1, 98048, Note_on_c, 9, 82, 0
1, 98056, Note_on_c, 9, 54, 0
1, 98158, Note_on_c, 9, 54, 50
1, 98158, Note_on_c, 9, 82, 33
1, 98166, Note_on_c, 9, 59, 48
1, 98171, Note_on_c, 9, 82, 0
1, 98171, Note_on_c, 9, 54, 0
1, 98179, Note_on_c, 9, 59, 0
1, 98278, Note_on_c, 9, 54, 36
1, 98280, Note_on_c, 9, 36, 115
1, 98282, Note_on_c, 9, 82, 47
1, 98291, Note_on_c, 9, 54, 0
1, 98293, Note_on_c, 9, 36, 0
1, 98295, Note_on_c, 9, 82, 0
1, 98385, Note_on_c, 5, 65, 0
1, 98385, Note_on_c, 5, 62, 0
1, 98385, Note_on_c, 7, 53, 0
1, 98385, Note_on_c, 7, 62, 0
1, 98385, Note_on_c, 5, 58, 0
1, 98385, Note_on_c, 7, 65, 0
1, 98385, Note_on_c, 2, 62, 0
1, 98385, Note_on_c, 2, 53, 0
1, 98385, Note_on_c, 0, 62, 0
1, 98385, Note_on_c, 5, 53, 0
1, 98385, Note_on_c, 0, 70, 0
1, 98385, Note_on_c, 2, 65, 0
1, 98385, Note_on_c, 0, 65, 0
1, 98385, Note_on_c, 7, 58, 0
1, 98385, Note_on_c, 2, 58, 0
1, 98394, Note_on_c, 5, 53, 82
1, 98396, Note_on_c, 7, 65, 83
1, 98397, Note_on_c, 2, 62, 82
1, 98399, Note_on_c, 2, 58, 81
1, 98399, Note_on_c, 9, 54, 76
1, 98400, Note_on_c, 2, 65, 79
1, 98400, Note_on_c, 7, 62, 79
1, 98400, Note_on_c, 7, 53, 80
1, 98400, Note_on_c, 9, 40, 115
1, 98400, Note_on_c, 9, 49, 90
1, 98401, Note_on_c, 0, 65, 87
1, 98402, Note_on_c, 0, 70, 84
1, 98402, Note_on_c, 9, 82, 66
1, 98403, Note_on_c, 0, 62, 85
1, 98403, Note_on_c, 7, 58, 79
1, 98405, Note_on_c, 5, 58, 81
1, 98407, Note_on_c, 2, 53, 82
1, 98408, Note_on_c, 5, 62, 80
1, 98408, Note_on_c, 5, 65, 81
1, 98412, Note_on_c, 9, 54, 0
1, 98413, Note_on_c, 9, 49, 0
1, 98413, Note_on_c, 9, 40, 0
1, 98415, Note_on_c, 9, 82, 0
1, 98514, Note_on_c, 9, 82, 48
1, 98520, Note_on_c, 9, 54, 36
1, 98520, Control_c, 11, 1, 0
1, 98527, Note_on_c, 9, 82, 0
1, 98533, Note_on_c, 9, 54, 0
1, 98600, Note_on_c, 12, 46, 0
1, 98615, Note_on_c, 1, 46, 0
1, 98625, Note_on_c, 6, 46, 0
1, 98625, Note_on_c, 11, 46, 0
1, 98625, Note_on_c, 13, 46, 0
1, 98625, Pitch_bend_c, 12, 4096
1, 98632, Note_on_c, 13, 36, 82
1, 98634, Note_on_c, 6, 48, 77
1, 98634, Note_on_c, 13, 48, 80
1, 98638, Note_on_c, 11, 48, 99
1, 98640, Note_on_c, 9, 36, 115
1, 98640, Note_on_c, 9, 57, 90
1, 98640, Note_on_c, 9, 82, 33
1, 98641, Note_on_c, 1, 36, 95
1, 98642, Note_on_c, 12, 49, 101
1, 98645, Note_on_c, 9, 54, 48
1, 98653, Note_on_c, 9, 82, 0
1, 98653, Note_on_c, 9, 57, 0
1, 98653, Note_on_c, 9, 36, 0
1, 98658, Note_on_c, 9, 54, 0
1, 98735, Note_on_c, 1, 36, 0
1, 98745, Note_on_c, 11, 48, 0
1, 98745, Note_on_c, 13, 48, 0
1, 98745, Note_on_c, 13, 36, 0
1, 98753, Note_on_c, 13, 49, 80
1, 98757, Note_on_c, 9, 82, 47
1, 98758, Note_on_c, 1, 37, 102
1, 98760, Note_on_c, 9, 54, 37
1, 98760, Pitch_bend_c, 12, 8192
1, 98763, Note_on_c, 11, 49, 100
1, 98763, Note_on_c, 13, 37, 81
1, 98770, Note_on_c, 9, 82, 0
1, 98773, Note_on_c, 9, 54, 0
1, 98855, Note_on_c, 1, 37, 0
1, 98865, Note_on_c, 13, 37, 0
1, 98865, Note_on_c, 11, 49, 0
1, 98865, Note_on_c, 13, 49, 0
1, 98865, Note_on_c, 12, 49, 0
1, 98865, Note_on_c, 6, 48, 0
1, 98865, Note_on_c, 5, 65, 0
1, 98865, Note_on_c, 5, 62, 0
1, 98865, Note_on_c, 2, 53, 0
1, 98865, Note_on_c, 5, 58, 0
1, 98865, Note_on_c, 7, 58, 0
1, 98865, Note_on_c, 0, 62, 0
1, 98865, Note_on_c, 0, 70, 0
1, 98865, Note_on_c, 0, 65, 0
1, 98865, Note_on_c, 7, 53, 0
1, 98865, Note_on_c, 7, 62, 0
1, 98865, Note_on_c, 2, 65, 0
1, 98865, Note_on_c, 2, 58, 0
1, 98865, Note_on_c, 2, 62, 0
1, 98865, Note_on_c, 7, 65, 0
1, 98865, Note_on_c, 5, 53, 0
1, 98865, Note_on_c, 13, 62, 0
1, 98865, Note_on_c, 0, 46, 0
1, 98865, Note_on_c, 13, 70, 0
1, 98865, Note_on_c, 13, 82, 0
1, 98865, Note_on_c, 13, 53, 0
1, 98872, Note_on_c, 7, 53, 77
1, 98875, Note_on_c, 13, 50, 82
1, 98875, Note_on_c, 13, 65, 82
1, 98876, Note_on_c, 5, 65, 79
1, 98876, Note_on_c, 7, 56, 77
1, 98877, Note_on_c, 7, 62, 77
1, 98877, Note_on_c, 9, 82, 65
1, 98877, Note_on_c, 9, 54, 46
1, 98878, Note_on_c, 0, 65, 82
1, 98879, Note_on_c, 0, 68, 81
1, 98879, Note_on_c, 7, 65, 76
1, 98879, Note_on_c, 13, 89, 82
1, 98880, Note_on_c, 5, 53, 79
1, 98880, Note_on_c, 9, 49, 90
1, 98880, Note_on_c, 9, 36, 115
1, 98880, Note_on_c, 13, 38, 78
1, 98882, Note_on_c, 1, 38, 102
1, 98882, Note_on_c, 5, 56, 76
1, 98882, Note_on_c, 6, 50, 78
1, 98882, Note_on_c, 12, 50, 100
1, 98882, Note_on_c, 13, 70, 79
1, 98883, Note_on_c, 0, 50, 80
1, 98883, Note_on_c, 0, 70, 80
1, 98883, Note_on_c, 13, 56, 79
1, 98884, Note_on_c, 2, 53, 76
1, 98886, Note_on_c, 5, 62, 77
1, 98888, Note_on_c, 2, 56, 76
1, 98888, Note_on_c, 2, 62, 79
1, 98888, Note_on_c, 2, 65, 80
1, 98888, Note_on_c, 11, 50, 102
1, 98890, Note_on_c, 9, 54, 0
1, 98890, Note_on_c, 9, 82, 0
1, 98893, Note_on_c, 9, 36, 0
1, 98893, Note_on_c, 9, 49, 0
1, 98997, Note_on_c, 9, 54, 35
1, 99000, Note_on_c, 9, 82, 46
1, 99000, Control_c, 11, 1, 32
1, 99010, Note_on_c, 9, 54, 0
1, 99013, Note_on_c, 9, 82, 0
1, 99100, Note_on_c, 4, 70, 0
1, 99105, Note_on_c, 3, 89, 0
1, 99117, Note_on_c, 9, 59, 51
1, 99117, Note_on_c, 9, 54, 49
1, 99123, Note_on_c, 9, 82, 33
1, 99126, Note_on_c, 6, 56, 75
1, 99130, Note_on_c, 9, 54, 0
1, 99130, Note_on_c, 9, 59, 0
1, 99136, Note_on_c, 9, 82, 0
1, 99232, Note_on_c, 9, 54, 38
1, 99232, Note_on_c, 9, 82, 49
1, 99240, Control_c, 12, 1, 32
1, 99245, Note_on_c, 9, 82, 0
1, 99245, Note_on_c, 9, 54, 0
1, 99345, Note_on_c, 2, 65, 0
1, 99345, Note_on_c, 2, 62, 0
1, 99345, Note_on_c, 2, 56, 0
1, 99345, Note_on_c, 5, 62, 0
1, 99345, Note_on_c, 2, 53, 0
1, 99345, Note_on_c, 0, 70, 0
1, 99345, Note_on_c, 5, 56, 0
1, 99345, Note_on_c, 5, 53, 0
1, 99345, Note_on_c, 7, 65, 0
1, 99345, Note_on_c, 0, 68, 0
1, 99345, Note_on_c, 0, 65, 0
1, 99345, Note_on_c, 7, 62, 0
1, 99345, Note_on_c, 7, 56, 0
1, 99345, Note_on_c, 5, 65, 0
1, 99345, Note_on_c, 7, 53, 0
1, 99345, Pitch_bend_c, 3, 4971
1, 99353, Note_on_c, 2, 65, 83
1, 99355, Note_on_c, 2, 53, 83
1, 99356, Note_on_c, 2, 56, 81
1, 99357, Note_on_c, 0, 65, 87
1, 99357, Note_on_c, 7, 53, 81
1, 99357, Note_on_c, 9, 54, 76
1, 99357, Note_on_c, 9, 82, 62
1, 99358, Note_on_c, 15, 70, 0
1, 99358, Note_on_c, 0, 68, 87
1, 99359, Note_on_c, 5, 56, 82
1, 99360, Note_on_c, 0, 70, 87
1, 99360, Note_on_c, 4, 67, 93
1, 99360, Note_on_c, 9, 40, 115
1, 99360, Note_on_c, 15, 67, 1
1, 99361, Note_on_c, 5, 62, 82
1, 99362, Note_on_c, 6, 65, 80
1, 99362, Note_on_c, 7, 65, 81
1, 99362, Note_on_c, 9, 59, 70
1, 99363, Lyric_t, "to "
1, 99363, Note_on_c, 2, 62, 84
1, 99363, Note_on_c, 3, 86, 104
1, 99363, Note_on_c, 5, 53, 83
1, 99363, Note_on_c, 5, 65, 81
1, 99364, Note_on_c, 7, 62, 85
1, 99365, Note_on_c, 7, 56, 83
1, 99370, Note_on_c, 9, 82, 0
1, 99370, Note_on_c, 9, 54, 0
1, 99373, Note_on_c, 9, 40, 0
1, 99375, Note_on_c, 9, 59, 0
1, 99380, Pitch_bend_c, 3, 5241
1, 99390, Pitch_bend_c, 3, 5777
1, 99400, Pitch_bend_c, 3, 6314
1, 99410, Pitch_bend_c, 3, 6851
1, 99420, Pitch_bend_c, 3, 7387
1, 99430, Pitch_bend_c, 3, 7924
1, 99435, Pitch_bend_c, 3, 8192
1, 99472, Note_on_c, 9, 54, 38
1, 99484, Note_on_c, 9, 82, 52
1, 99485, Note_on_c, 9, 54, 0
1, 99497, Note_on_c, 9, 82, 0
1, 99580, Note_on_c, 4, 67, 0
1, 99585, Note_on_c, 5, 65, 0
1, 99585, Note_on_c, 5, 53, 0
1, 99585, Note_on_c, 3, 86, 0
1, 99585, Note_on_c, 2, 62, 0
1, 99585, Note_on_c, 5, 62, 0
1, 99585, Note_on_c, 5, 56, 0
1, 99585, Note_on_c, 2, 56, 0
1, 99585, Note_on_c, 2, 53, 0
1, 99585, Note_on_c, 2, 65, 0
1, 99592, Note_on_c, 2, 65, 72
1, 99593, Note_on_c, 5, 62, 68
1, 99594, Note_on_c, 5, 65, 71
1, 99596, Note_on_c, 15, 67, 0
1, 99598, Note_on_c, 4, 65, 79
1, 99598, Note_on_c, 5, 56, 71
1, 99598, Note_on_c, 15, 65, 1
1, 99600, Note_on_c, 2, 62, 69
1, 99600, Note_on_c, 2, 56, 72
1, 99602, Note_on_c, 2, 53, 72
1, 99602, Note_on_c, 5, 53, 70
1, 99603, Lyric_t, "me "
1, 99603, Note_on_c, 3, 84, 91
1, 99603, Note_on_c, 9, 59, 51
1, 99608, Note_on_c, 9, 82, 41
1, 99608, Note_on_c, 9, 54, 48
1, 99616, Note_on_c, 9, 59, 0
1, 99621, Note_on_c, 9, 54, 0
1, 99621, Note_on_c, 9, 82, 0
1, 99705, Note_on_c, 3, 84, 0
1, 99720, Control_c, 11, 1, 0
1, 99720, Control_c, 12, 1, 0
1, 99724, Note_on_c, 9, 82, 34
1, 99725, Note_on_c, 9, 54, 37
1, 99737, Note_on_c, 9, 82, 0
1, 99738, Note_on_c, 9, 54, 0
1, 99740, Note_on_c, 4, 65, 0
1, 99815, Note_on_c, 1, 38, 0
1, 99825, Note_on_c, 5, 53, 0
1, 99825, Note_on_c, 2, 53, 0
1, 99825, Note_on_c, 2, 56, 0
1, 99825, Note_on_c, 2, 62, 0
1, 99825, Note_on_c, 5, 56, 0
1, 99825, Note_on_c, 5, 65, 0
1, 99825, Note_on_c, 5, 62, 0
1, 99825, Note_on_c, 2, 65, 0
1, 99825, Note_on_c, 7, 56, 0
1, 99825, Note_on_c, 7, 62, 0
1, 99825, Note_on_c, 7, 65, 0
1, 99825, Note_on_c, 6, 65, 0
1, 99825, Note_on_c, 0, 70, 0
1, 99825, Note_on_c, 0, 68, 0
1, 99825, Note_on_c, 7, 53, 0
1, 99825, Note_on_c, 0, 65, 0
1, 99825, Note_on_c, 6, 56, 0
1, 99825, Note_on_c, 11, 50, 0
1, 99825, Note_on_c, 13, 56, 0
1, 99825, Note_on_c, 0, 50, 0
1, 99825, Note_on_c, 13, 70, 0
1, 99825, Note_on_c, 12, 50, 0
1, 99825, Note_on_c, 6, 50, 0
1, 99825, Note_on_c, 13, 38, 0
1, 99825, Note_on_c, 13, 89, 0
1, 99825, Note_on_c, 13, 65, 0
1, 99825, Note_on_c, 13, 50, 0
1, 99832, Note_on_c, 7, 67, 83
1, 99832, Note_on_c, 12, 51, 100
1, 99833, Note_on_c, 13, 87, 78
1, 99834, Note_on_c, 5, 63, 85
1, 99836, Note_on_c, 9, 82, 64
1, 99836, Note_on_c, 13, 39, 78
1, 99837, Note_on_c, 2, 51, 85
1, 99837, Note_on_c, 2, 67, 82
1, 99837, Note_on_c, 6, 51, 84
1, 99837, Note_on_c, 11, 51, 100
1, 99838, Note_on_c, 0, 63, 88
1, 99838, Note_on_c, 9, 59, 68
1, 99838, Note_on_c, 13, 70, 79
1, 99839, Note_on_c, 0, 51, 88
1, 99839, Note_on_c, 0, 70, 86
1, 99839, Note_on_c, 5, 51, 83
1, 99840, Note_on_c, 9, 36, 115
1, 99841, Note_on_c, 2, 63, 84
1, 99841, Note_on_c, 13, 51, 78
1, 99842, Lyric_t, "tight. "
1, 99842, Lyric_t, "\015"
1, 99842, Note_on_c, 3, 84, 107
1, 99843, Note_on_c, 0, 67, 87
1, 99843, Note_on_c, 7, 63, 84
1, 99844, Note_on_c, 5, 67, 83
1, 99844, Note_on_c, 7, 58, 83
1, 99844, Note_on_c, 9, 54, 46
1, 99845, Note_on_c, 1, 39, 105
1, 99846, Note_on_c, 15, 65, 0
1, 99847, Note_on_c, 5, 58, 86
1, 99847, Note_on_c, 13, 55, 80
1, 99848, Note_on_c, 2, 58, 82
1, 99848, Note_on_c, 4, 63, 94
1, 99848, Note_on_c, 13, 63, 78
1, 99848, Note_on_c, 15, 63, 1
1, 99849, Note_on_c, 9, 82, 0
1, 99851, Note_on_c, 9, 59, 0
1, 99853, Note_on_c, 9, 36, 0
1, 99857, Note_on_c, 9, 54, 0
1, 99910, Note_on_c, 3, 84, 0
1, 99918, Note_on_c, 3, 82, 90
1, 99966, Note_on_c, 9, 82, 49
1, 99967, Note_on_c, 9, 54, 37
1, 99979, Note_on_c, 9, 82, 0
1, 99980, Note_on_c, 9, 54, 0
1, 100073, Note_on_c, 9, 59, 50
1, 100078, Note_on_c, 9, 82, 34
1, 100083, Note_on_c, 6, 55, 76
1, 100083, Note_on_c, 7, 51, 74
1, 100083, Note_on_c, 9, 54, 50
1, 100086, Note_on_c, 9, 59, 0
1, 100091, Note_on_c, 9, 82, 0
1, 100096, Note_on_c, 9, 54, 0
1, 100185, Note_on_c, 3, 82, 0
1, 100198, Note_on_c, 9, 54, 37
1, 100200, Control_c, 11, 1, 32
1, 100200, Control_c, 12, 1, 32
1, 100203, Note_on_c, 9, 82, 47
1, 100207, Note_on_c, 3, 84, 88
1, 100211, Note_on_c, 9, 54, 0
1, 100216, Note_on_c, 9, 82, 0
1, 100295, Note_on_c, 1, 39, 0
1, 100300, Note_on_c, 4, 63, 0
1, 100305, Note_on_c, 3, 84, 0
1, 100305, Note_on_c, 2, 58, 0
1, 100305, Note_on_c, 5, 58, 0
1, 100305, Note_on_c, 5, 67, 0
1, 100305, Note_on_c, 7, 63, 0
1, 100305, Note_on_c, 0, 67, 0
1, 100305, Note_on_c, 2, 63, 0
1, 100305, Note_on_c, 5, 51, 0
1, 100305, Note_on_c, 0, 70, 0
1, 100305, Note_on_c, 0, 63, 0
1, 100305, Note_on_c, 2, 67, 0
1, 100305, Note_on_c, 2, 51, 0
1, 100305, Note_on_c, 5, 63, 0
1, 100312, Note_on_c, 2, 51, 81
1, 100312, Note_on_c, 5, 51, 82
1, 100313, Note_on_c, 2, 58, 81
1, 100313, Note_on_c, 9, 59, 72
1, 100314, Note_on_c, 6, 58, 78
1, 100315, Note_on_c, 5, 58, 80
1, 100316, Note_on_c, 9, 54, 76
1, 100317, Note_on_c, 0, 75, 83
1, 100317, Note_on_c, 0, 67, 84
1, 100317, Note_on_c, 9, 82, 66
1, 100319, Note_on_c, 0, 70, 85
1, 100319, Note_on_c, 5, 67, 81
1, 100320, Note_on_c, 5, 63, 78
1, 100320, Note_on_c, 9, 40, 115
1, 100322, Note_on_c, 0, 63, 82
1, 100322, Note_on_c, 2, 63, 79
1, 100322, Note_on_c, 2, 67, 82
1, 100323, Note_on_c, 1, 39, 101
1, 100324, Note_on_c, 7, 63, 81
1, 100326, Note_on_c, 9, 59, 0
1, 100329, Note_on_c, 9, 54, 0
1, 100330, Note_on_c, 9, 82, 0
1, 100333, Note_on_c, 9, 40, 0
1, 100415, Note_on_c, 1, 39, 0
1, 100439, Note_on_c, 9, 82, 49
1, 100443, Note_on_c, 1, 34, 91
1, 100445, Note_on_c, 9, 54, 35
1, 100452, Note_on_c, 9, 82, 0
1, 100458, Note_on_c, 9, 54, 0
1, 100535, Note_on_c, 1, 34, 0
1, 100545, Note_on_c, 5, 58, 0
1, 100545, Note_on_c, 2, 58, 0
1, 100545, Note_on_c, 5, 51, 0
1, 100545, Note_on_c, 2, 51, 0
1, 100545, Note_on_c, 7, 67, 0
1, 100552, Note_on_c, 9, 54, 49
1, 100553, Note_on_c, 7, 67, 68
1, 100558, Note_on_c, 5, 51, 71
1, 100560, Control_c, 12, 1, 0
1, 100561, Note_on_c, 2, 51, 72
1, 100561, Note_on_c, 9, 82, 32
1, 100563, Note_on_c, 2, 58, 72
1, 100564, Note_on_c, 5, 58, 71
1, 100564, Note_on_c, 9, 59, 48
1, 100565, Note_on_c, 9, 54, 0
1, 100567, Note_on_c, 1, 39, 97
1, 100574, Note_on_c, 9, 82, 0
1, 100577, Note_on_c, 9, 59, 0
1, 100655, Note_on_c, 1, 39, 0
1, 100680, Note_on_c, 9, 36, 90
1, 100680, Control_c, 11, 1, 0
1, 100682, Note_on_c, 9, 82, 46
1, 100682, Note_on_c, 9, 54, 37
1, 100688, Note_on_c, 1, 39, 98
1, 100693, Note_on_c, 9, 36, 0
1, 100695, Note_on_c, 9, 54, 0
1, 100695, Note_on_c, 9, 82, 0
1, 100775, Note_on_c, 1, 39, 0
1, 100785, Note_on_c, 5, 58, 0
1, 100785, Note_on_c, 2, 58, 0
1, 100785, Note_on_c, 2, 51, 0
1, 100785, Note_on_c, 5, 51, 0
1, 100785, Note_on_c, 7, 67, 0
1, 100785, Note_on_c, 7, 63, 0
1, 100785, Note_on_c, 2, 67, 0
1, 100785, Note_on_c, 2, 63, 0
1, 100785, Note_on_c, 0, 63, 0
1, 100785, Note_on_c, 5, 63, 0
1, 100785, Note_on_c, 5, 67, 0
1, 100785, Note_on_c, 0, 70, 0
1, 100785, Note_on_c, 0, 67, 0
1, 100785, Note_on_c, 0, 75, 0
1, 100785, Note_on_c, 6, 58, 0
1, 100785, Note_on_c, 7, 51, 0
1, 100785, Note_on_c, 6, 55, 0
1, 100785, Note_on_c, 13, 63, 0
1, 100785, Note_on_c, 13, 55, 0
1, 100785, Note_on_c, 7, 58, 0
1, 100785, Note_on_c, 13, 51, 0
1, 100785, Note_on_c, 0, 51, 0
1, 100785, Note_on_c, 13, 70, 0
1, 100785, Note_on_c, 11, 51, 0
1, 100785, Note_on_c, 6, 51, 0
1, 100785, Note_on_c, 13, 39, 0
1, 100785, Note_on_c, 13, 87, 0
1, 100785, Note_on_c, 12, 51, 0
1, 100792, Note_on_c, 2, 63, 81
1, 100792, Note_on_c, 9, 59, 71
1, 100793, Note_on_c, 2, 60, 81
1, 100796, Note_on_c, 13, 53, 81
1, 100797, Note_on_c, 2, 58, 80
1, 100797, Note_on_c, 13, 82, 82
1, 100798, Note_on_c, 0, 67, 83
1, 100798, Note_on_c, 5, 63, 80
1, 100798, Note_on_c, 5, 60, 81
1, 100798, Note_on_c, 6, 65, 79
1, 100798, Note_on_c, 7, 63, 81
1, 100798, Note_on_c, 7, 58, 82
1, 100798, Note_on_c, 9, 82, 65
1, 100798, Note_on_c, 13, 63, 79
1, 100799, Note_on_c, 0, 63, 82
1, 100800, Note_on_c, 9, 36, 115
1, 100800, Note_on_c, 13, 67, 80
1, 100801, Note_on_c, 0, 70, 82
1, 100801, Note_on_c, 0, 53, 84
1, 100801, Note_on_c, 11, 41, 101
1, 100801, Note_on_c, 13, 41, 80
1, 100802, Note_on_c, 5, 58, 82
1, 100802, Note_on_c, 6, 58, 82
1, 100802, Note_on_c, 6, 53, 79
1, 100802, Note_on_c, 6, 63, 79
1, 100802, Note_on_c, 7, 67, 82
1, 100802, Note_on_c, 12, 41, 101
1, 100803, Note_on_c, 0, 58, 85
1, 100803, Note_on_c, 5, 53, 81
1, 100804, Note_on_c, 2, 53, 81
1, 100805, Note_on_c, 9, 59, 0
1, 100805, Note_on_c, 13, 70, 80
1, 100806, Note_on_c, 7, 53, 79
1, 100807, Note_on_c, 1, 29, 102
1, 100807, Note_on_c, 9, 54, 46
1, 100811, Note_on_c, 9, 82, 0
1, 100813, Note_on_c, 9, 36, 0
1, 100820, Note_on_c, 9, 54, 0
1, 100895, Note_on_c, 1, 29, 0
1, 100912, Note_on_c, 9, 54, 38
1, 100925, Note_on_c, 9, 54, 0
1, 100927, Note_on_c, 9, 82, 47
1, 100940, Note_on_c, 9, 82, 0
1, 101025, Note_on_c, 7, 53, 0
1, 101025, Note_on_c, 2, 53, 0
1, 101025, Note_on_c, 5, 53, 0
1, 101025, Note_on_c, 5, 58, 0
1, 101025, Note_on_c, 5, 60, 0
1, 101025, Note_on_c, 5, 63, 0
1, 101025, Note_on_c, 2, 58, 0
1, 101025, Note_on_c, 2, 60, 0
1, 101025, Note_on_c, 2, 63, 0
1, 101036, Note_on_c, 2, 60, 72
1, 101037, Note_on_c, 9, 54, 47
1, 101038, Note_on_c, 1, 29, 94
1, 101038, Note_on_c, 9, 82, 34
1, 101040, Note_on_c, 9, 36, 115
1, 101041, Note_on_c, 5, 60, 68
1, 101042, Note_on_c, 2, 63, 69
1, 101042, Note_on_c, 2, 58, 70
1, 101042, Note_on_c, 5, 53, 70
1, 101043, Note_on_c, 5, 58, 68
1, 101045, Note_on_c, 2, 53, 71
1, 101045, Note_on_c, 5, 63, 70
1, 101046, Note_on_c, 7, 53, 68
1, 101046, Note_on_c, 9, 59, 52
1, 101050, Note_on_c, 9, 54, 0
1, 101051, Note_on_c, 9, 82, 0
1, 101053, Note_on_c, 9, 36, 0
1, 101059, Note_on_c, 9, 59, 0
1, 101160, Control_c, 12, 1, 32
1, 101163, Note_on_c, 9, 82, 50
1, 101167, Note_on_c, 9, 54, 36
1, 101176, Note_on_c, 9, 82, 0
1, 101180, Note_on_c, 9, 54, 0
1, 101255, Note_on_c, 1, 29, 0
1, 101265, Note_on_c, 5, 63, 0
1, 101265, Note_on_c, 2, 53, 0
1, 101265, Note_on_c, 5, 58, 0
1, 101265, Note_on_c, 5, 53, 0
1, 101265, Note_on_c, 2, 58, 0
1, 101265, Note_on_c, 2, 63, 0
1, 101265, Note_on_c, 5, 60, 0
1, 101265, Note_on_c, 2, 60, 0
1, 101265, Note_on_c, 13, 70, 0
1, 101265, Note_on_c, 0, 58, 0
1, 101265, Note_on_c, 7, 67, 0
1, 101265, Note_on_c, 6, 63, 0
1, 101265, Note_on_c, 6, 53, 0
1, 101265, Note_on_c, 6, 58, 0
1, 101265, Note_on_c, 0, 70, 0
1, 101265, Note_on_c, 13, 67, 0
1, 101265, Note_on_c, 0, 63, 0
1, 101265, Note_on_c, 13, 63, 0
1, 101265, Note_on_c, 7, 58, 0
1, 101265, Note_on_c, 7, 63, 0
1, 101265, Note_on_c, 6, 65, 0
1, 101265, Note_on_c, 0, 67, 0
1, 101265, Note_on_c, 13, 82, 0
1, 101265, Pitch_bend_c, 3, 4971
1, 101272, Note_on_c, 6, 65, 78
1, 101272, Note_on_c, 13, 69, 82
1, 101273, Note_on_c, 6, 53, 77
1, 101274, Note_on_c, 9, 82, 65
1, 101275, Note_on_c, 1, 29, 102
1, 101276, Lyric_t, "Hold "
1, 101276, Note_on_c, 3, 86, 102
1, 101276, Note_on_c, 5, 60, 77
1, 101276, Note_on_c, 6, 60, 81
1, 101276, Note_on_c, 13, 84, 82
1, 101277, Note_on_c, 2, 63, 77
1, 101277, Note_on_c, 7, 57, 77
1, 101277, Note_on_c, 13, 63, 82
1, 101278, Note_on_c, 0, 57, 84
1, 101278, Note_on_c, 0, 63, 83
1, 101279, Note_on_c, 2, 53, 80
1, 101280, Note_on_c, 0, 67, 80
1, 101280, Note_on_c, 0, 72, 84
1, 101280, Note_on_c, 9, 40, 115
1, 101281, Note_on_c, 2, 57, 78
1, 101281, Note_on_c, 5, 63, 79
1, 101282, Note_on_c, 7, 65, 79
1, 101282, Note_on_c, 9, 54, 73
1, 101283, Note_on_c, 5, 53, 80
1, 101283, Note_on_c, 7, 63, 78
1, 101284, Note_on_c, 15, 63, 0
1, 101285, Note_on_c, 2, 60, 78
1, 101286, Note_on_c, 4, 67, 88
1, 101286, Note_on_c, 13, 60, 82
1, 101286, Note_on_c, 15, 67, 1
1, 101287, Note_on_c, 9, 82, 0
1, 101287, Note_on_c, 5, 57, 81
1, 101287, Note_on_c, 9, 59, 71
1, 101288, Note_on_c, 6, 57, 77
1, 101293, Note_on_c, 9, 40, 0
1, 101295, Note_on_c, 9, 54, 0
1, 101300, Note_on_c, 9, 59, 0
1, 101300, Pitch_bend_c, 3, 5241
1, 101310, Pitch_bend_c, 3, 5777
1, 101320, Pitch_bend_c, 3, 6314
1, 101330, Pitch_bend_c, 3, 6851
1, 101340, Pitch_bend_c, 3, 7387
1, 101350, Pitch_bend_c, 3, 7924
1, 101355, Pitch_bend_c, 3, 8192
1, 101392, Note_on_c, 9, 54, 38
1, 101396, Note_on_c, 9, 82, 55
1, 101405, Note_on_c, 9, 54, 0
1, 101409, Note_on_c, 9, 82, 0
1, 101420, Note_on_c, 4, 67, 0
1, 101425, Note_on_c, 3, 86, 0
1, 101495, Note_on_c, 1, 29, 0
1, 101505, Note_on_c, 5, 57, 0
1, 101505, Note_on_c, 2, 60, 0
1, 101505, Note_on_c, 5, 53, 0
1, 101505, Note_on_c, 5, 63, 0
1, 101505, Note_on_c, 2, 57, 0
1, 101505, Note_on_c, 2, 53, 0
1, 101505, Note_on_c, 2, 63, 0
1, 101505, Note_on_c, 5, 60, 0
1, 101505, Note_on_c, 7, 53, 0
1, 101505, Pitch_bend_c, 3, 4971
1, 101513, Note_on_c, 2, 53, 72
1, 101513, Note_on_c, 2, 57, 69
1, 101517, Note_on_c, 2, 63, 70
1, 101518, Note_on_c, 1, 29, 95
1, 101518, Note_on_c, 5, 57, 72
1, 101520, Note_on_c, 5, 53, 70
1, 101520, Note_on_c, 5, 60, 71
1, 101522, Note_on_c, 15, 67, 0
1, 101522, Lyric_t, "on "
1, 101522, Note_on_c, 2, 60, 69
1, 101522, Note_on_c, 3, 89, 92
1, 101523, Note_on_c, 9, 82, 43
1, 101524, Note_on_c, 4, 70, 83
1, 101524, Note_on_c, 15, 70, 1
1, 101526, Note_on_c, 7, 53, 68
1, 101526, Note_on_c, 9, 59, 51
1, 101526, Note_on_c, 9, 54, 49
1, 101528, Note_on_c, 5, 63, 69
1, 101536, Note_on_c, 9, 82, 0
1, 101539, Note_on_c, 9, 54, 0
1, 101539, Note_on_c, 9, 59, 0
1, 101540, Pitch_bend_c, 3, 5241
1, 101550, Pitch_bend_c, 3, 5777
1, 101560, Pitch_bend_c, 3, 6314
1, 101570, Pitch_bend_c, 3, 6851
1, 101580, Pitch_bend_c, 3, 7387
1, 101590, Pitch_bend_c, 3, 7924
1, 101595, Pitch_bend_c, 3, 8192
1, 101633, Note_on_c, 9, 54, 34
1, 101634, Note_on_c, 9, 82, 34
1, 101640, Control_c, 12, 1, 0
1, 101646, Note_on_c, 9, 54, 0
1, 101647, Note_on_c, 9, 82, 0
1, 101735, Note_on_c, 1, 29, 0
1, 101745, Note_on_c, 5, 63, 0
1, 101745, Note_on_c, 7, 53, 0
1, 101745, Note_on_c, 2, 60, 0
1, 101745, Note_on_c, 5, 60, 0
1, 101745, Note_on_c, 5, 53, 0
1, 101745, Note_on_c, 5, 57, 0
1, 101745, Note_on_c, 2, 63, 0
1, 101745, Note_on_c, 2, 57, 0
1, 101745, Note_on_c, 2, 53, 0
1, 101745, Note_on_c, 6, 57, 0
1, 101745, Note_on_c, 13, 60, 0
1, 101745, Note_on_c, 7, 63, 0
1, 101745, Note_on_c, 7, 65, 0
1, 101745, Note_on_c, 0, 72, 0
1, 101745, Note_on_c, 0, 67, 0
1, 101745, Note_on_c, 0, 63, 0
1, 101745, Note_on_c, 0, 57, 0
1, 101745, Note_on_c, 13, 63, 0
1, 101745, Note_on_c, 7, 57, 0
1, 101745, Note_on_c, 13, 84, 0
1, 101745, Note_on_c, 6, 60, 0
1, 101745, Note_on_c, 6, 53, 0
1, 101745, Note_on_c, 13, 69, 0
1, 101745, Note_on_c, 6, 65, 0
1, 101745, Note_on_c, 12, 41, 0
1, 101745, Note_on_c, 13, 41, 0
1, 101745, Note_on_c, 11, 41, 0
1, 101745, Note_on_c, 0, 53, 0
1, 101745, Note_on_c, 13, 53, 0
1, 101752, Note_on_c, 5, 53, 84
1, 101755, Note_on_c, 5, 65, 85
1, 101755, Note_on_c, 7, 53, 81
1, 101756, Note_on_c, 2, 53, 82
1, 101756, Note_on_c, 13, 70, 80
1, 101757, Note_on_c, 2, 65, 83
1, 101757, Note_on_c, 7, 62, 84
1, 101757, Note_on_c, 13, 46, 78
1, 101758, Note_on_c, 7, 58, 85
1, 101759, Note_on_c, 0, 62, 89
1, 101760, Note_on_c, 0, 74, 88
1, 101760, Note_on_c, 0, 46, 85
1, 101760, Note_on_c, 9, 49, 90
1, 101760, Note_on_c, 9, 36, 115
1, 101761, Note_on_c, 0, 70, 88
1, 101761, Note_on_c, 9, 82, 63
1, 101762, Note_on_c, 0, 65, 88
1, 101762, Note_on_c, 1, 34, 105
1, 101762, Note_on_c, 2, 58, 85
1, 101762, Note_on_c, 6, 46, 80
1, 101763, Note_on_c, 5, 58, 84
1, 101763, Note_on_c, 7, 65, 81
1, 101765, Note_on_c, 5, 62, 82
1, 101765, Note_on_c, 11, 46, 100
1, 101766, Note_on_c, 2, 62, 84
1, 101766, Note_on_c, 9, 54, 47
1, 101768, Note_on_c, 12, 46, 101
1, 101768, Note_on_c, 13, 65, 78
1, 101768, Note_on_c, 13, 62, 82
1, 101768, Note_on_c, 13, 86, 80
1, 101773, Note_on_c, 9, 36, 0
1, 101773, Note_on_c, 9, 49, 0
1, 101774, Note_on_c, 9, 82, 0
1, 101779, Note_on_c, 9, 54, 0
1, 101877, Note_on_c, 9, 82, 48
1, 101880, Control_c, 11, 1, 48
1, 101881, Note_on_c, 9, 54, 38
1, 101890, Note_on_c, 9, 82, 0
1, 101894, Note_on_c, 9, 54, 0
1, 101980, Note_on_c, 4, 70, 0
1, 101985, Note_on_c, 3, 89, 0
1, 101998, Note_on_c, 6, 53, 75
1, 101998, Note_on_c, 9, 82, 33
1, 101999, Note_on_c, 9, 59, 49
1, 102003, Note_on_c, 15, 70, 0
1, 102005, Note_on_c, 4, 72, 81
1, 102005, Note_on_c, 15, 72, 1
1, 102008, Note_on_c, 3, 91, 90
1, 102008, Note_on_c, 9, 54, 47
1, 102011, Note_on_c, 9, 82, 0
1, 102012, Note_on_c, 9, 59, 0
1, 102021, Note_on_c, 9, 54, 0
1, 102100, Note_on_c, 4, 72, 0
1, 102105, Note_on_c, 3, 91, 0
1, 102121, Note_on_c, 9, 54, 35
1, 102125, Note_on_c, 9, 82, 47
1, 102134, Note_on_c, 9, 54, 0
1, 102138, Note_on_c, 9, 82, 0
1, 102225, Note_on_c, 2, 62, 0
1, 102225, Note_on_c, 5, 62, 0
1, 102225, Note_on_c, 7, 65, 0
1, 102225, Note_on_c, 5, 58, 0
1, 102225, Note_on_c, 2, 58, 0
1, 102225, Note_on_c, 0, 65, 0
1, 102225, Note_on_c, 0, 70, 0
1, 102225, Note_on_c, 0, 74, 0
1, 102225, Note_on_c, 0, 62, 0
1, 102225, Note_on_c, 7, 58, 0
1, 102225, Note_on_c, 7, 62, 0
1, 102225, Note_on_c, 2, 65, 0
1, 102225, Note_on_c, 2, 53, 0
1, 102225, Note_on_c, 7, 53, 0
1, 102225, Note_on_c, 5, 65, 0
1, 102225, Note_on_c, 5, 53, 0
1, 102232, Note_on_c, 9, 82, 62
1, 102233, Note_on_c, 7, 65, 83
1, 102236, Note_on_c, 9, 59, 72
1, 102236, Note_on_c, 9, 54, 74
1, 102239, Note_on_c, 0, 62, 84
1, 102239, Note_on_c, 0, 70, 85
1, 102239, Note_on_c, 7, 53, 82
1, 102240, Note_on_c, 9, 40, 115
1, 102241, Note_on_c, 0, 74, 85
1, 102241, Note_on_c, 0, 65, 85
1, 102242, Note_on_c, 5, 58, 79
1, 102242, Note_on_c, 5, 65, 82
1, 102242, Note_on_c, 6, 62, 81
1, 102242, Note_on_c, 7, 58, 80
1, 102243, Note_on_c, 2, 58, 82
1, 102243, Note_on_c, 2, 62, 80
1, 102243, Note_on_c, 5, 53, 82
1, 102244, Note_on_c, 5, 62, 79
1, 102244, Note_on_c, 7, 62, 83
1, 102245, Note_on_c, 9, 82, 0
1, 102246, Note_on_c, 2, 53, 83
1, 102246, Note_on_c, 2, 65, 83
1, 102249, Note_on_c, 9, 54, 0
1, 102249, Note_on_c, 9, 59, 0
1, 102253, Note_on_c, 9, 40, 0
1, 102353, Note_on_c, 9, 82, 47
1, 102354, Note_on_c, 9, 54, 38
1, 102360, Control_c, 11, 1, 0
1, 102366, Note_on_c, 9, 82, 0
1, 102367, Note_on_c, 9, 54, 0
1, 102440, Note_on_c, 12, 46, 0
1, 102455, Note_on_c, 1, 34, 0
1, 102465, Note_on_c, 11, 46, 0
1, 102465, Note_on_c, 13, 46, 0
1, 102465, Pitch_bend_c, 12, 4096
1, 102473, Note_on_c, 11, 48, 101
1, 102473, Note_on_c, 12, 49, 102
1, 102473, Note_on_c, 13, 48, 78
1, 102477, Note_on_c, 9, 59, 50
1, 102482, Note_on_c, 9, 82, 31
1, 102486, Note_on_c, 1, 36, 96
1, 102486, Note_on_c, 9, 54, 46
1, 102486, Note_on_c, 13, 36, 79
1, 102490, Note_on_c, 9, 59, 0
1, 102495, Note_on_c, 9, 82, 0
1, 102499, Note_on_c, 9, 54, 0
1, 102575, Note_on_c, 1, 36, 0
1, 102585, Note_on_c, 13, 36, 0
1, 102585, Note_on_c, 13, 48, 0
1, 102585, Note_on_c, 11, 48, 0
1, 102592, Note_on_c, 13, 49, 81
1, 102593, Note_on_c, 15, 72, 0
1, 102593, Note_on_c, 9, 82, 47
1, 102595, Note_on_c, 4, 67, 89
1, 102595, Note_on_c, 9, 54, 34
1, 102595, Note_on_c, 15, 67, 1
1, 102597, Note_on_c, 11, 49, 100
1, 102600, Note_on_c, 9, 36, 90
1, 102600, Pitch_bend_c, 12, 8192
1, 102604, Lyric_t, "I "
1, 102604, Note_on_c, 3, 86, 100
1, 102606, Note_on_c, 9, 82, 0
1, 102606, Note_on_c, 13, 37, 81
1, 102608, Note_on_c, 9, 54, 0
1, 102608, Note_on_c, 1, 37, 99
1, 102613, Note_on_c, 9, 36, 0
1, 102670, Note_on_c, 3, 86, 0
1, 102670, Note_on_c, 4, 67, 0
1, 102695, Note_on_c, 1, 37, 0
1, 102705, Note_on_c, 13, 37, 0
1, 102705, Note_on_c, 11, 49, 0
1, 102705, Note_on_c, 13, 49, 0
1, 102705, Note_on_c, 12, 49, 0
1, 102705, Note_on_c, 2, 65, 0
1, 102705, Note_on_c, 2, 53, 0
1, 102705, Note_on_c, 7, 62, 0
1, 102705, Note_on_c, 5, 62, 0
1, 102705, Note_on_c, 5, 53, 0
1, 102705, Note_on_c, 2, 62, 0
1, 102705, Note_on_c, 2, 58, 0
1, 102705, Note_on_c, 7, 58, 0
1, 102705, Note_on_c, 6, 62, 0
1, 102705, Note_on_c, 5, 65, 0
1, 102705, Note_on_c, 5, 58, 0
1, 102705, Note_on_c, 0, 65, 0
1, 102705, Note_on_c, 0, 74, 0
1, 102705, Note_on_c, 7, 53, 0
1, 102705, Note_on_c, 0, 70, 0
1, 102705, Note_on_c, 0, 62, 0
1, 102705, Note_on_c, 7, 65, 0
1, 102705, Note_on_c, 6, 53, 0
1, 102705, Note_on_c, 13, 86, 0
1, 102705, Note_on_c, 13, 62, 0
1, 102705, Note_on_c, 13, 65, 0
1, 102705, Note_on_c, 6, 46, 0
1, 102705, Note_on_c, 0, 46, 0
1, 102705, Note_on_c, 13, 70, 0
1, 102712, Note_on_c, 1, 38, 99
1, 102712, Note_on_c, 5, 65, 79
1, 102712, Note_on_c, 7, 62, 77
1, 102713, Note_on_c, 7, 65, 76
1, 102713, Note_on_c, 13, 86, 80
1, 102714, Note_on_c, 7, 56, 77
1, 102715, Note_on_c, 15, 67, 0
1, 102715, Note_on_c, 2, 56, 77
1, 102717, Note_on_c, 0, 50, 83
1, 102717, Note_on_c, 4, 70, 87
1, 102717, Note_on_c, 13, 56, 80
1, 102717, Note_on_c, 15, 70, 1
1, 102718, Note_on_c, 11, 50, 101
1, 102718, Note_on_c, 13, 65, 82
1, 102718, Note_on_c, 13, 50, 78
1, 102720, Note_on_c, 0, 62, 81
1, 102720, Note_on_c, 0, 65, 81
1, 102720, Note_on_c, 9, 36, 115
1, 102721, Note_on_c, 7, 53, 80
1, 102721, Note_on_c, 9, 82, 66
1, 102721, Note_on_c, 9, 54, 46
1, 102722, Lyric_t, "pro"
1, 102722, Note_on_c, 3, 89, 102
1, 102723, Note_on_c, 0, 68, 84
1, 102723, Note_on_c, 0, 72, 84
1, 102723, Note_on_c, 6, 53, 77
1, 102723, Note_on_c, 9, 59, 71
1, 102723, Note_on_c, 13, 70, 81
1, 102724, Note_on_c, 5, 56, 79
1, 102726, Note_on_c, 2, 65, 78
1, 102727, Note_on_c, 12, 50, 100
1, 102728, Note_on_c, 13, 38, 79
1, 102733, Note_on_c, 9, 36, 0
1, 102733, Note_on_c, 2, 62, 78
1, 102734, Note_on_c, 9, 54, 0
1, 102734, Note_on_c, 9, 82, 0
1, 102736, Note_on_c, 9, 59, 0
1, 102737, Note_on_c, 5, 62, 78
1, 102763, Note_on_c, 5, 53, 76
1, 102764, Note_on_c, 2, 53, 78
1, 102820, Note_on_c, 4, 70, 0
1, 102825, Note_on_c, 3, 89, 0
1, 102832, Note_on_c, 15, 70, 0
1, 102833, Note_on_c, 9, 82, 48
1, 102834, Note_on_c, 4, 67, 78
1, 102834, Note_on_c, 15, 67, 1
1, 102840, Control_c, 11, 1, 32
1, 102842, Note_on_c, 9, 54, 37
1, 102846, Note_on_c, 9, 82, 0
1, 102846, Lyric_t, "mise "
1, 102846, Note_on_c, 3, 86, 90
1, 102855, Note_on_c, 9, 54, 0
1, 102910, Note_on_c, 3, 86, 0
1, 102910, Note_on_c, 4, 67, 0
1, 102945, Note_on_c, 2, 65, 0
1, 102945, Note_on_c, 5, 56, 0
1, 102945, Note_on_c, 2, 56, 0
1, 102945, Note_on_c, 5, 65, 0
1, 102955, Note_on_c, 2, 65, 72
1, 102957, Note_on_c, 5, 56, 73
1, 102959, Note_on_c, 0, 58, 62
1, 102959, Note_on_c, 5, 65, 73
1, 102959, Note_on_c, 6, 56, 76
1, 102960, Note_on_c, 5, 62, 0
1, 102960, Note_on_c, 2, 62, 0
1, 102963, Note_on_c, 4, 67, 82
1, 102963, Note_on_c, 9, 54, 48
1, 102966, Lyric_t, "it'"
1, 102966, Note_on_c, 3, 86, 93
1, 102966, Note_on_c, 9, 59, 52
1, 102968, Note_on_c, 2, 56, 73
1, 102968, Note_on_c, 9, 82, 31
1, 102972, Note_on_c, 2, 62, 69
1, 102976, Note_on_c, 9, 54, 0
1, 102978, Note_on_c, 5, 62, 71
1, 102979, Note_on_c, 9, 59, 0
1, 102981, Note_on_c, 9, 82, 0
1, 102990, Note_on_c, 2, 53, 0
1, 102990, Note_on_c, 5, 53, 0
1, 103006, Note_on_c, 2, 53, 71
1, 103010, Note_on_c, 5, 53, 72
1, 103060, Note_on_c, 4, 67, 0
1, 103065, Note_on_c, 3, 86, 0
1, 103077, Lyric_t, "ll "
1, 103077, Note_on_c, 3, 86, 96
1, 103080, Note_on_c, 9, 54, 34
1, 103080, Control_c, 12, 1, 32
1, 103081, Note_on_c, 15, 67, 0
1, 103083, Note_on_c, 4, 65, 81
1, 103083, Note_on_c, 9, 82, 49
1, 103083, Note_on_c, 15, 65, 1
1, 103093, Note_on_c, 9, 54, 0
1, 103096, Note_on_c, 9, 82, 0
1, 103150, Note_on_c, 4, 65, 0
1, 103150, Note_on_c, 3, 86, 0
1, 103175, Note_on_c, 1, 38, 0
1, 103185, Note_on_c, 5, 53, 0
1, 103185, Note_on_c, 2, 53, 0
1, 103185, Note_on_c, 5, 62, 0
1, 103185, Note_on_c, 2, 62, 0
1, 103185, Note_on_c, 2, 56, 0
1, 103185, Note_on_c, 5, 65, 0
1, 103185, Note_on_c, 5, 56, 0
1, 103185, Note_on_c, 2, 65, 0
1, 103185, Note_on_c, 0, 72, 0
1, 103185, Note_on_c, 0, 68, 0
1, 103185, Note_on_c, 7, 53, 0
1, 103185, Note_on_c, 0, 65, 0
1, 103185, Note_on_c, 0, 62, 0
1, 103185, Note_on_c, 7, 56, 0
1, 103185, Note_on_c, 7, 65, 0
1, 103185, Note_on_c, 7, 62, 0
1, 103194, Note_on_c, 7, 56, 84
1, 103195, Lyric_t, "be "
1, 103195, Note_on_c, 3, 86, 104
1, 103195, Note_on_c, 9, 82, 63
1, 103196, Note_on_c, 2, 62, 84
1, 103197, Note_on_c, 0, 62, 88
1, 103197, Note_on_c, 2, 53, 81
1, 103197, Note_on_c, 5, 56, 81
1, 103198, Note_on_c, 5, 53, 83
1, 103199, Note_on_c, 0, 65, 89
1, 103199, Note_on_c, 5, 62, 84
1, 103200, Note_on_c, 1, 26, 102
1, 103200, Note_on_c, 9, 40, 115
1, 103201, Note_on_c, 0, 68, 87
1, 103202, Note_on_c, 2, 65, 81
1, 103202, Note_on_c, 6, 65, 83
1, 103202, Note_on_c, 7, 62, 84
1, 103203, Note_on_c, 15, 65, 0
1, 103203, Note_on_c, 0, 70, 87
1, 103203, Note_on_c, 5, 65, 82
1, 103203, Note_on_c, 7, 65, 85
1, 103203, Note_on_c, 9, 54, 76
1, 103204, Note_on_c, 7, 53, 85
1, 103205, Note_on_c, 4, 67, 95
1, 103205, Note_on_c, 15, 67, 1
1, 103206, Note_on_c, 2, 56, 81
1, 103206, Note_on_c, 9, 59, 72
1, 103208, Note_on_c, 9, 82, 0
1, 103213, Note_on_c, 9, 40, 0
1, 103216, Note_on_c, 9, 54, 0
1, 103219, Note_on_c, 9, 59, 0
1, 103300, Note_on_c, 4, 67, 0
1, 103305, Note_on_c, 3, 86, 0
1, 103323, Note_on_c, 9, 54, 37
1, 103324, Note_on_c, 15, 67, 0
1, 103326, Note_on_c, 4, 65, 79
1, 103326, Note_on_c, 15, 65, 1
1, 103328, Lyric_t, "al"
1, 103328, Note_on_c, 3, 84, 90
1, 103328, Note_on_c, 9, 82, 54
1, 103336, Note_on_c, 9, 54, 0
1, 103341, Note_on_c, 9, 82, 0
1, 103425, Note_on_c, 2, 56, 0
1, 103425, Note_on_c, 5, 65, 0
1, 103425, Note_on_c, 2, 65, 0
1, 103425, Note_on_c, 5, 62, 0
1, 103425, Note_on_c, 5, 53, 0
1, 103425, Note_on_c, 5, 56, 0
1, 103425, Note_on_c, 2, 53, 0
1, 103425, Note_on_c, 2, 62, 0
1, 103433, Note_on_c, 2, 62, 71
1, 103434, Note_on_c, 5, 65, 72
1, 103435, Note_on_c, 5, 62, 69
1, 103437, Note_on_c, 9, 82, 43
1, 103438, Note_on_c, 9, 59, 50
1, 103439, Note_on_c, 5, 53, 71
1, 103442, Note_on_c, 2, 56, 71
1, 103442, Note_on_c, 2, 53, 72
1, 103442, Note_on_c, 9, 54, 48
1, 103445, Note_on_c, 2, 65, 71
1, 103446, Note_on_c, 5, 56, 68
1, 103450, Note_on_c, 9, 82, 0
1, 103451, Note_on_c, 9, 59, 0
1, 103455, Note_on_c, 9, 54, 0
1, 103540, Note_on_c, 4, 65, 0
1, 103545, Note_on_c, 3, 84, 0
1, 103558, Lyric_t, "right "
1, 103558, Lyric_t, "\015"
1, 103558, Note_on_c, 3, 86, 91
1, 103560, Note_on_c, 15, 65, 0
1, 103560, Control_c, 11, 1, 0
1, 103560, Control_c, 12, 1, 0
1, 103561, Note_on_c, 9, 54, 34
1, 103562, Note_on_c, 4, 67, 82
1, 103562, Note_on_c, 15, 67, 1
1, 103565, Note_on_c, 9, 82, 34
1, 103574, Note_on_c, 9, 54, 0
1, 103578, Note_on_c, 9, 82, 0
1, 103610, Note_on_c, 4, 67, 0
1, 103610, Note_on_c, 3, 86, 0
1, 103613, Note_on_c, 3, 84, 104
1, 103621, Note_on_c, 15, 67, 0
1, 103623, Note_on_c, 4, 65, 97
1, 103623, Note_on_c, 15, 65, 1
1, 103655, Note_on_c, 1, 26, 0
1, 103665, Note_on_c, 5, 56, 0
1, 103665, Note_on_c, 2, 65, 0
1, 103665, Note_on_c, 2, 53, 0
1, 103665, Note_on_c, 2, 56, 0
1, 103665, Note_on_c, 5, 53, 0
1, 103665, Note_on_c, 5, 62, 0
1, 103665, Note_on_c, 5, 65, 0
1, 103665, Note_on_c, 2, 62, 0
1, 103665, Note_on_c, 7, 53, 0
1, 103665, Note_on_c, 7, 65, 0
1, 103665, Note_on_c, 0, 70, 0
1, 103665, Note_on_c, 7, 62, 0
1, 103665, Note_on_c, 6, 65, 0
1, 103665, Note_on_c, 0, 68, 0
1, 103665, Note_on_c, 0, 65, 0
1, 103665, Note_on_c, 0, 62, 0
1, 103665, Note_on_c, 7, 56, 0
1, 103665, Note_on_c, 6, 56, 0
1, 103665, Note_on_c, 0, 58, 0
1, 103665, Note_on_c, 13, 38, 0
1, 103665, Note_on_c, 12, 50, 0
1, 103665, Note_on_c, 13, 70, 0
1, 103665, Note_on_c, 6, 53, 0
1, 103665, Note_on_c, 13, 50, 0
1, 103665, Note_on_c, 13, 65, 0
1, 103665, Note_on_c, 11, 50, 0
1, 103665, Note_on_c, 13, 56, 0
1, 103665, Note_on_c, 0, 50, 0
1, 103665, Note_on_c, 13, 86, 0
1, 103670, Note_on_c, 4, 65, 0
1, 103670, Note_on_c, 3, 84, 0
1, 103672, Note_on_c, 9, 82, 65
1, 103673, Note_on_c, 5, 51, 85
1, 103673, Note_on_c, 5, 63, 82
1, 103673, Note_on_c, 7, 58, 86
1, 103673, Note_on_c, 7, 63, 82
1, 103673, Note_on_c, 13, 51, 81
1, 103675, Note_on_c, 1, 27, 106
1, 103676, Note_on_c, 13, 63, 79
1, 103677, Note_on_c, 0, 51, 89
1, 103677, Note_on_c, 5, 67, 82
1, 103677, Note_on_c, 7, 67, 86
1, 103678, Note_on_c, 0, 63, 88
1, 103678, Note_on_c, 13, 87, 78
1, 103678, Note_on_c, 13, 70, 78
1, 103679, Note_on_c, 0, 70, 87
1, 103679, Note_on_c, 3, 82, 105
1, 103680, Note_on_c, 0, 58, 90
1, 103680, Note_on_c, 9, 36, 115
1, 103680, Note_on_c, 9, 57, 70
1, 103682, Note_on_c, 2, 58, 86
1, 103682, Note_on_c, 5, 58, 83
1, 103682, Note_on_c, 6, 51, 82
1, 103682, Note_on_c, 9, 54, 47
1, 103683, Note_on_c, 0, 67, 90
1, 103683, Note_on_c, 2, 63, 86
1, 103683, Note_on_c, 11, 51, 100
1, 103683, Note_on_c, 12, 51, 102
1, 103685, Note_on_c, 9, 82, 0
1, 103685, Note_on_c, 15, 65, 0
1, 103686, Note_on_c, 2, 67, 82
1, 103686, Note_on_c, 13, 55, 78
1, 103687, Note_on_c, 4, 63, 94
1, 103687, Note_on_c, 13, 39, 79
1, 103687, Note_on_c, 15, 63, 1
1, 103688, Note_on_c, 2, 51, 82
1, 103693, Note_on_c, 9, 57, 0
1, 103693, Note_on_c, 9, 36, 0
1, 103695, Note_on_c, 9, 54, 0
1, 103794, Note_on_c, 9, 82, 46
1, 103800, Note_on_c, 9, 54, 38
1, 103807, Note_on_c, 9, 82, 0
1, 103813, Note_on_c, 9, 54, 0
1, 103905, Note_on_c, 2, 51, 0
1, 103905, Note_on_c, 2, 67, 0
1, 103905, Note_on_c, 2, 63, 0
1, 103905, Note_on_c, 5, 58, 0
1, 103905, Note_on_c, 2, 58, 0
1, 103905, Note_on_c, 5, 67, 0
1, 103905, Note_on_c, 5, 63, 0
1, 103905, Note_on_c, 5, 51, 0
1, 103917, Note_on_c, 2, 51, 72
1, 103919, Note_on_c, 5, 63, 74
1, 103919, Note_on_c, 9, 82, 30
1, 103920, Note_on_c, 9, 59, 50
1, 103921, Note_on_c, 6, 55, 73
1, 103921, Note_on_c, 7, 51, 74
1, 103921, Note_on_c, 9, 54, 46
1, 103922, Note_on_c, 2, 67, 74
1, 103922, Note_on_c, 5, 58, 71
1, 103923, Note_on_c, 2, 58, 70
1, 103923, Note_on_c, 5, 51, 71
1, 103925, Note_on_c, 2, 63, 74
1, 103927, Note_on_c, 5, 67, 72
1, 103932, Note_on_c, 9, 82, 0
1, 103933, Note_on_c, 9, 59, 0
1, 103934, Note_on_c, 9, 54, 0
1, 104020, Note_on_c, 4, 63, 0
1, 104025, Note_on_c, 3, 82, 0
1, 104040, Control_c, 11, 1, 32
1, 104040, Control_c, 12, 1, 32
1, 104044, Note_on_c, 15, 63, 0
1, 104046, Note_on_c, 4, 65, 78
1, 104046, Note_on_c, 9, 54, 37
1, 104046, Note_on_c, 15, 65, 1
1, 104047, Note_on_c, 3, 79, 91
1, 104047, Note_on_c, 9, 82, 46
1, 104059, Note_on_c, 9, 54, 0
1, 104060, Note_on_c, 9, 82, 0
1, 104135, Note_on_c, 1, 27, 0
1, 104140, Note_on_c, 15, 65, 0
1, 104140, Note_on_c, 4, 65, 0
1, 104145, Note_on_c, 3, 79, 0
1, 104145, Note_on_c, 5, 67, 0
1, 104145, Note_on_c, 2, 63, 0
1, 104145, Note_on_c, 5, 51, 0
1, 104145, Note_on_c, 2, 58, 0
1, 104145, Note_on_c, 5, 58, 0
1, 104145, Note_on_c, 2, 67, 0
1, 104145, Note_on_c, 5, 63, 0
1, 104145, Note_on_c, 2, 51, 0
1, 104145, Note_on_c, 0, 67, 0
1, 104145, Note_on_c, 0, 58, 0
1, 104145, Note_on_c, 0, 70, 0
1, 104145, Note_on_c, 0, 63, 0
1, 104145, Note_on_c, 7, 63, 0
1, 104153, Note_on_c, 5, 63, 79
1, 104155, Note_on_c, 9, 59, 71
1, 104156, Note_on_c, 5, 51, 80
1, 104157, Note_on_c, 5, 67, 78
1, 104157, Note_on_c, 6, 58, 79
1, 104158, Note_on_c, 0, 67, 86
1, 104158, Note_on_c, 2, 63, 81
1, 104158, Note_on_c, 5, 58, 80
1, 104159, Note_on_c, 0, 75, 82
1, 104159, Note_on_c, 0, 70, 83
1, 104159, Note_on_c, 1, 39, 103
1, 104159, Note_on_c, 2, 51, 82
1, 104160, Note_on_c, 9, 40, 115
1, 104161, Note_on_c, 0, 63, 84
1, 104161, Note_on_c, 7, 63, 82
1, 104166, Note_on_c, 9, 82, 62
1, 104166, Note_on_c, 9, 54, 77
1, 104167, Note_on_c, 2, 58, 82
1, 104167, Note_on_c, 2, 67, 82
1, 104168, Note_on_c, 9, 59, 0
1, 104173, Note_on_c, 9, 40, 0
1, 104179, Note_on_c, 9, 54, 0
1, 104179, Note_on_c, 9, 82, 0
1, 104255, Note_on_c, 1, 39, 0
1, 104285, Note_on_c, 9, 54, 35
1, 104286, Note_on_c, 9, 82, 50
1, 104287, Note_on_c, 1, 34, 91
1, 104298, Note_on_c, 9, 54, 0
1, 104299, Note_on_c, 9, 82, 0
1, 104375, Note_on_c, 1, 34, 0
1, 104385, Note_on_c, 2, 67, 0
1, 104385, Note_on_c, 2, 58, 0
1, 104385, Note_on_c, 2, 51, 0
1, 104385, Note_on_c, 5, 58, 0
1, 104385, Note_on_c, 2, 63, 0
1, 104385, Note_on_c, 5, 67, 0
1, 104385, Note_on_c, 5, 51, 0
1, 104385, Note_on_c, 5, 63, 0
1, 104385, Note_on_c, 7, 67, 0
1, 104392, Note_on_c, 2, 67, 69
1, 104394, Note_on_c, 2, 63, 69
1, 104396, Note_on_c, 9, 59, 51
1, 104397, Note_on_c, 2, 51, 69
1, 104397, Note_on_c, 5, 51, 72
1, 104397, Note_on_c, 9, 82, 33
1, 104400, Control_c, 12, 1, 0
1, 104403, Note_on_c, 5, 63, 71
1, 104404, Note_on_c, 2, 58, 72
1, 104404, Note_on_c, 7, 67, 69
1, 104405, Note_on_c, 9, 54, 49
1, 104407, Note_on_c, 5, 67, 68
1, 104408, Note_on_c, 1, 39, 94
1, 104408, Note_on_c, 5, 58, 68
1, 104409, Note_on_c, 9, 59, 0
1, 104410, Note_on_c, 9, 82, 0
1, 104418, Note_on_c, 9, 54, 0
1, 104495, Note_on_c, 1, 39, 0
1, 104505, Note_on_c, 5, 58, 0
1, 104505, Note_on_c, 5, 67, 0
1, 104505, Note_on_c, 2, 58, 0
1, 104505, Note_on_c, 5, 63, 0
1, 104505, Note_on_c, 5, 51, 0
1, 104505, Note_on_c, 2, 51, 0
1, 104505, Note_on_c, 2, 63, 0
1, 104505, Note_on_c, 2, 67, 0
1, 104514, Note_on_c, 5, 67, 77
1, 104519, Note_on_c, 2, 51, 80
1, 104520, Note_on_c, 2, 58, 79
1, 104520, Note_on_c, 5, 63, 78
1, 104520, Note_on_c, 9, 36, 90
1, 104520, Control_c, 11, 1, 0
1, 104523, Note_on_c, 2, 67, 77
1, 104523, Note_on_c, 5, 51, 78
1, 104523, Note_on_c, 5, 58, 80
1, 104523, Note_on_c, 9, 82, 49
1, 104524, Note_on_c, 9, 54, 38
1, 104525, Note_on_c, 1, 39, 101
1, 104528, Note_on_c, 2, 63, 77
1, 104533, Note_on_c, 9, 36, 0
1, 104536, Note_on_c, 9, 82, 0
1, 104537, Note_on_c, 9, 54, 0
1, 104615, Note_on_c, 1, 39, 0
1, 104625, Note_on_c, 2, 63, 0
1, 104625, Note_on_c, 5, 58, 0
1, 104625, Note_on_c, 5, 51, 0
1, 104625, Note_on_c, 2, 67, 0
1, 104625, Note_on_c, 5, 63, 0
1, 104625, Note_on_c, 2, 58, 0
1, 104625, Note_on_c, 2, 51, 0
1, 104625, Note_on_c, 5, 67, 0
1, 104625, Note_on_c, 7, 67, 0
1, 104625, Note_on_c, 7, 63, 0
1, 104625, Note_on_c, 0, 63, 0
1, 104625, Note_on_c, 0, 70, 0
1, 104625, Note_on_c, 0, 75, 0
1, 104625, Note_on_c, 0, 67, 0
1, 104625, Note_on_c, 6, 58, 0
1, 104625, Note_on_c, 7, 51, 0
1, 104625, Note_on_c, 6, 55, 0
1, 104625, Note_on_c, 13, 39, 0
1, 104625, Note_on_c, 13, 55, 0
1, 104625, Note_on_c, 12, 51, 0
1, 104625, Note_on_c, 11, 51, 0
1, 104625, Note_on_c, 6, 51, 0
1, 104625, Note_on_c, 13, 70, 0
1, 104625, Note_on_c, 13, 87, 0
1, 104625, Note_on_c, 0, 51, 0
1, 104625, Note_on_c, 13, 63, 0
1, 104625, Note_on_c, 13, 51, 0
1, 104625, Note_on_c, 7, 58, 0
1, 104633, Note_on_c, 13, 82, 78
1, 104635, Note_on_c, 12, 41, 101
1, 104636, Note_on_c, 5, 63, 81
1, 104637, Note_on_c, 0, 70, 84
1, 104637, Note_on_c, 11, 41, 98
1, 104638, Note_on_c, 0, 67, 83
1, 104640, Note_on_c, 7, 65, 82
1, 104640, Note_on_c, 7, 63, 79
1, 104640, Note_on_c, 9, 36, 115
1, 104640, Note_on_c, 9, 82, 66
1, 104641, Note_on_c, 2, 63, 79
1, 104641, Note_on_c, 13, 67, 79
1, 104642, Note_on_c, 0, 63, 86
1, 104642, Note_on_c, 2, 65, 82
1, 104642, Note_on_c, 5, 60, 78
1, 104642, Note_on_c, 6, 62, 65
1, 104642, Note_on_c, 9, 54, 50
1, 104642, Note_on_c, 13, 58, 79
1, 104643, Note_on_c, 0, 53, 82
1, 104643, Note_on_c, 0, 60, 86
1, 104643, Note_on_c, 1, 29, 100
1, 104643, Note_on_c, 5, 53, 80
1, 104643, Note_on_c, 5, 65, 81
1, 104643, Note_on_c, 6, 58, 69
1, 104643, Note_on_c, 7, 58, 80
1, 104644, Note_on_c, 13, 65, 78
1, 104644, Note_on_c, 13, 41, 82
1, 104645, Note_on_c, 9, 59, 68
1, 104645, Note_on_c, 13, 53, 81
1, 104646, Note_on_c, 2, 60, 81
1, 104646, Note_on_c, 6, 65, 81
1, 104646, Note_on_c, 7, 53, 80
1, 104648, Note_on_c, 2, 53, 81
1, 104653, Note_on_c, 9, 82, 0
1, 104653, Note_on_c, 9, 36, 0
1, 104655, Note_on_c, 9, 54, 0
1, 104658, Note_on_c, 9, 59, 0
1, 104758, Note_on_c, 9, 82, 50
1, 104761, Note_on_c, 9, 54, 38
1, 104771, Note_on_c, 9, 82, 0
1, 104774, Note_on_c, 9, 54, 0
1, 104855, Note_on_c, 1, 29, 0
1, 104865, Note_on_c, 2, 53, 0
1, 104865, Note_on_c, 7, 53, 0
1, 104865, Note_on_c, 2, 60, 0
1, 104865, Note_on_c, 5, 65, 0
1, 104865, Note_on_c, 5, 53, 0
1, 104865, Note_on_c, 5, 60, 0
1, 104865, Note_on_c, 2, 65, 0
1, 104865, Note_on_c, 2, 63, 0
1, 104865, Note_on_c, 5, 63, 0
1, 104874, Note_on_c, 5, 53, 68
1, 104876, Note_on_c, 2, 60, 69
1, 104876, Note_on_c, 9, 82, 32
1, 104876, Note_on_c, 9, 54, 48
1, 104878, Note_on_c, 2, 65, 69
1, 104878, Note_on_c, 5, 63, 69
1, 104880, Note_on_c, 5, 65, 72
1, 104880, Note_on_c, 9, 36, 115
1, 104882, Note_on_c, 1, 29, 94
1, 104882, Note_on_c, 5, 60, 68
1, 104883, Note_on_c, 7, 53, 71
1, 104884, Note_on_c, 2, 53, 70
1, 104887, Note_on_c, 2, 63, 71
1, 104888, Note_on_c, 9, 59, 48
1, 104889, Note_on_c, 9, 54, 0
1, 104889, Note_on_c, 9, 82, 0
1, 104893, Note_on_c, 9, 36, 0
1, 104901, Note_on_c, 9, 59, 0
1, 105003, Note_on_c, 9, 82, 46
1, 105007, Note_on_c, 9, 54, 35
1, 105016, Note_on_c, 9, 82, 0
1, 105020, Note_on_c, 9, 54, 0
1, 105095, Note_on_c, 1, 29, 0
1, 105105, Note_on_c, 2, 63, 0
1, 105105, Note_on_c, 2, 53, 0
1, 105105, Note_on_c, 7, 53, 0
1, 105105, Note_on_c, 5, 60, 0
1, 105105, Note_on_c, 5, 65, 0
1, 105105, Note_on_c, 5, 63, 0
1, 105105, Note_on_c, 2, 65, 0
1, 105105, Note_on_c, 2, 60, 0
1, 105105, Note_on_c, 5, 53, 0
1, 105105, Note_on_c, 6, 65, 0
1, 105105, Note_on_c, 13, 53, 0
1, 105105, Note_on_c, 13, 41, 0
1, 105105, Note_on_c, 13, 65, 0
1, 105105, Note_on_c, 7, 58, 0
1, 105105, Note_on_c, 6, 58, 0
1, 105105, Note_on_c, 0, 60, 0
1, 105105, Note_on_c, 0, 53, 0
1, 105105, Note_on_c, 13, 58, 0
1, 105105, Note_on_c, 6, 62, 0
1, 105105, Note_on_c, 0, 63, 0
1, 105105, Note_on_c, 13, 67, 0
1, 105105, Note_on_c, 7, 63, 0
1, 105105, Note_on_c, 7, 65, 0
1, 105105, Note_on_c, 0, 67, 0
1, 105105, Note_on_c, 11, 41, 0
1, 105105, Note_on_c, 0, 70, 0
1, 105105, Note_on_c, 12, 41, 0
1, 105105, Note_on_c, 13, 82, 0
1, 105116, Note_on_c, 7, 57, 79
1, 105116, Note_on_c, 9, 54, 75
1, 105116, Note_on_c, 13, 42, 82
1, 105117, Note_on_c, 2, 66, 77
1, 105117, Note_on_c, 2, 57, 79
1, 105117, Note_on_c, 7, 62, 78
1, 105118, Note_on_c, 13, 84, 81
1, 105119, Note_on_c, 0, 54, 83
1, 105119, Note_on_c, 5, 66, 81
1, 105119, Note_on_c, 13, 66, 79
1, 105120, Note_on_c, 1, 30, 98
1, 105120, Note_on_c, 9, 40, 115
1, 105122, Note_on_c, 0, 72, 80
1, 105122, Note_on_c, 0, 69, 84
1, 105122, Note_on_c, 5, 57, 81
1, 105122, Note_on_c, 5, 50, 79
1, 105122, Note_on_c, 6, 66, 80
1, 105122, Note_on_c, 6, 62, 65
1, 105122, Note_on_c, 11, 42, 95
1, 105122, Note_on_c, 13, 62, 82
1, 105123, Note_on_c, 0, 62, 81
1, 105123, Note_on_c, 0, 66, 81
1, 105123, Note_on_c, 9, 59, 72
1, 105124, Note_on_c, 2, 50, 78
1, 105125, Note_on_c, 2, 60, 80
1, 105125, Note_on_c, 5, 60, 78
1, 105126, Note_on_c, 6, 57, 68
1, 105127, Note_on_c, 9, 82, 66
1, 105128, Note_on_c, 7, 66, 79
1, 105128, Note_on_c, 12, 42, 91
1, 105128, Note_on_c, 13, 57, 80
1, 105129, Note_on_c, 9, 54, 0
1, 105133, Note_on_c, 9, 40, 0
1, 105136, Note_on_c, 9, 59, 0
1, 105140, Note_on_c, 9, 82, 0
1, 105238, Note_on_c, 9, 54, 34
1, 105239, Note_on_c, 9, 82, 56
1, 105240, Note_on_c, 9, 36, 90
1, 105242, Lyric_t, "'Cause "
1, 105242, Note_on_c, 3, 82, 89
1, 105251, Note_on_c, 9, 54, 0
1, 105252, Note_on_c, 9, 82, 0
1, 105253, Note_on_c, 9, 36, 0
1, 105335, Note_on_c, 1, 30, 0
1, 105345, Note_on_c, 3, 82, 0
1, 105353, Note_on_c, 9, 54, 49
1, 105354, Note_on_c, 9, 82, 44
1, 105360, Note_on_c, 9, 47, 116
1, 105360, Note_on_c, 9, 36, 90
1, 105363, Note_on_c, 1, 30, 95
1, 105364, Lyric_t, "we "
1, 105364, Note_on_c, 3, 84, 93
1, 105365, Note_on_c, 7, 50, 72
1, 105365, Note_on_c, 9, 59, 52
1, 105366, Note_on_c, 9, 54, 0
1, 105367, Note_on_c, 9, 82, 0
1, 105373, Note_on_c, 9, 36, 0
1, 105373, Note_on_c, 9, 47, 0
1, 105378, Note_on_c, 9, 59, 0
1, 105465, Note_on_c, 3, 84, 0
1, 105473, Lyric_t, "are "
1, 105473, Note_on_c, 3, 86, 94
1, 105480, Note_on_c, 9, 54, 34
1, 105480, Note_on_c, 9, 36, 90
1, 105485, Note_on_c, 9, 43, 116
1, 105487, Note_on_c, 9, 82, 34
1, 105493, Note_on_c, 9, 36, 0
1, 105493, Note_on_c, 9, 54, 0
1, 105498, Note_on_c, 9, 43, 0
1, 105500, Note_on_c, 9, 82, 0
1, 105575, Note_on_c, 1, 30, 0
1, 105585, Note_on_c, 3, 86, 0
1, 105585, Note_on_c, 7, 50, 0
1, 105585, Note_on_c, 13, 57, 0
1, 105585, Note_on_c, 12, 42, 0
1, 105585, Note_on_c, 7, 66, 0
1, 105585, Note_on_c, 6, 57, 0
1, 105585, Note_on_c, 5, 60, 0
1, 105585, Note_on_c, 2, 60, 0
1, 105585, Note_on_c, 2, 50, 0
1, 105585, Note_on_c, 0, 66, 0
1, 105585, Note_on_c, 0, 62, 0
1, 105585, Note_on_c, 13, 62, 0
1, 105585, Note_on_c, 11, 42, 0
1, 105585, Note_on_c, 6, 62, 0
1, 105585, Note_on_c, 6, 66, 0
1, 105585, Note_on_c, 5, 50, 0
1, 105585, Note_on_c, 5, 57, 0
1, 105585, Note_on_c, 0, 69, 0
1, 105585, Note_on_c, 0, 72, 0
1, 105585, Note_on_c, 13, 66, 0
1, 105585, Note_on_c, 5, 66, 0
1, 105585, Note_on_c, 0, 54, 0
1, 105585, Note_on_c, 13, 84, 0
1, 105585, Note_on_c, 7, 62, 0
1, 105585, Note_on_c, 2, 57, 0
1, 105585, Note_on_c, 2, 66, 0
1, 105585, Note_on_c, 13, 42, 0
1, 105585, Note_on_c, 7, 57, 0
1, 105592, Note_on_c, 2, 62, 81
1, 105592, Note_on_c, 7, 55, 82
1, 105593, Note_on_c, 1, 31, 101
1, 105593, Note_on_c, 13, 67, 78
1, 105595, Note_on_c, 5, 67, 84
1, 105595, Note_on_c, 9, 82, 63
1, 105596, Note_on_c, 2, 67, 84
1, 105596, Note_on_c, 13, 43, 80
1, 105597, Note_on_c, 0, 55, 86
1, 105597, Note_on_c, 0, 58, 86
1, 105597, Note_on_c, 5, 58, 81
1, 105598, Note_on_c, 0, 70, 100
1, 105598, Note_on_c, 5, 62, 84
1, 105598, Note_on_c, 7, 58, 82
1, 105599, Note_on_c, 0, 62, 88
1, 105599, Note_on_c, 13, 82, 81
1, 105600, Note_on_c, 0, 82, 96
1, 105600, Note_on_c, 9, 49, 90
1, 105600, Note_on_c, 9, 36, 115
1, 105601, Note_on_c, 12, 43, 79
1, 105602, Note_on_c, 5, 55, 81
1, 105602, Note_on_c, 13, 62, 79
1, 105603, Note_on_c, 2, 55, 84
1, 105603, Note_on_c, 6, 62, 84
1, 105603, Note_on_c, 6, 55, 84
1, 105604, Note_on_c, 7, 62, 81
1, 105606, Note_on_c, 6, 58, 84
1, 105606, Note_on_c, 9, 54, 49
1, 105607, Note_on_c, 2, 58, 83
1, 105607, Note_on_c, 11, 43, 90
1, 105607, Note_on_c, 13, 58, 82
1, 105608, Note_on_c, 9, 82, 0
1, 105613, Note_on_c, 9, 36, 0
1, 105613, Note_on_c, 9, 49, 0
1, 105619, Note_on_c, 9, 54, 0
1, 105705, Pitch_bend_c, 3, 4971
1, 105712, Note_on_c, 9, 82, 47
1, 105716, Note_on_c, 9, 54, 34
1, 105717, Lyric_t, "strong"
1, 105717, Note_on_c, 3, 89, 85
1, 105725, Note_on_c, 9, 82, 0
1, 105729, Note_on_c, 9, 54, 0
1, 105740, Pitch_bend_c, 3, 5241
1, 105750, Pitch_bend_c, 3, 5777
1, 105760, Pitch_bend_c, 3, 6314
1, 105770, Pitch_bend_c, 3, 6851
1, 105780, Pitch_bend_c, 3, 7387
1, 105790, Pitch_bend_c, 3, 7924
1, 105795, Pitch_bend_c, 3, 8192
1, 105825, Note_on_c, 2, 58, 0
1, 105825, Note_on_c, 6, 58, 0
1, 105825, Note_on_c, 6, 55, 0
1, 105825, Note_on_c, 6, 62, 0
1, 105825, Note_on_c, 2, 55, 0
1, 105825, Note_on_c, 5, 55, 0
1, 105825, Note_on_c, 0, 82, 0
1, 105825, Note_on_c, 13, 82, 0
1, 105825, Note_on_c, 5, 62, 0
1, 105825, Note_on_c, 0, 70, 0
1, 105825, Note_on_c, 5, 58, 0
1, 105825, Note_on_c, 2, 67, 0
1, 105825, Note_on_c, 5, 67, 0
1, 105825, Note_on_c, 2, 62, 0
1, 105832, Note_on_c, 6, 58, 74
1, 105832, Note_on_c, 6, 62, 74
1, 105833, Note_on_c, 2, 67, 69
1, 105834, Note_on_c, 2, 62, 71
1, 105834, Note_on_c, 13, 84, 79
1, 105837, Note_on_c, 0, 72, 82
1, 105837, Note_on_c, 2, 55, 68
1, 105838, Note_on_c, 2, 58, 69
1, 105838, Note_on_c, 9, 59, 49
1, 105838, Note_on_c, 9, 54, 46
1, 105839, Note_on_c, 5, 58, 67
1, 105840, Note_on_c, 0, 84, 86
1, 105840, Note_on_c, 7, 50, 68
1, 105846, Note_on_c, 5, 67, 69
1, 105846, Note_on_c, 5, 55, 68
1, 105846, Note_on_c, 6, 55, 73
1, 105846, Note_on_c, 9, 82, 34
1, 105847, Note_on_c, 5, 62, 67
1, 105851, Note_on_c, 9, 54, 0
1, 105851, Note_on_c, 9, 59, 0
1, 105859, Note_on_c, 9, 82, 0
1, 105945, Note_on_c, 3, 89, 0
1, 105953, Lyric_t, "er "
1, 105953, Note_on_c, 3, 86, 90
1, 105963, Note_on_c, 9, 82, 50
1, 105968, Note_on_c, 9, 54, 34
1, 105976, Note_on_c, 9, 82, 0
1, 105981, Note_on_c, 9, 54, 0
1, 106055, Note_on_c, 1, 31, 0
1, 106065, Note_on_c, 3, 86, 0
1, 106065, Note_on_c, 5, 62, 0
1, 106065, Note_on_c, 6, 55, 0
1, 106065, Note_on_c, 5, 55, 0
1, 106065, Note_on_c, 5, 67, 0
1, 106065, Note_on_c, 0, 84, 0
1, 106065, Note_on_c, 5, 58, 0
1, 106065, Note_on_c, 2, 58, 0
1, 106065, Note_on_c, 2, 55, 0
1, 106065, Note_on_c, 0, 72, 0
1, 106065, Note_on_c, 13, 84, 0
1, 106065, Note_on_c, 2, 62, 0
1, 106065, Note_on_c, 2, 67, 0
1, 106065, Note_on_c, 6, 62, 0
1, 106065, Note_on_c, 6, 58, 0
1, 106065, Note_on_c, 7, 62, 0
1, 106065, Note_on_c, 0, 62, 0
1, 106065, Note_on_c, 7, 58, 0
1, 106065, Note_on_c, 0, 58, 0
1, 106065, Note_on_c, 0, 55, 0
1, 106073, Note_on_c, 6, 58, 82
1, 106073, Note_on_c, 9, 54, 76
1, 106074, Note_on_c, 2, 62, 79
1, 106074, Note_on_c, 5, 55, 81
1, 106075, Note_on_c, 1, 43, 100
1, 106077, Note_on_c, 0, 55, 83
1, 106077, Note_on_c, 0, 81, 95
1, 106079, Note_on_c, 0, 62, 86
1, 106080, Note_on_c, 2, 58, 82
1, 106080, Note_on_c, 6, 62, 79
1, 106080, Note_on_c, 9, 40, 115
1, 106081, Note_on_c, 0, 58, 86
1, 106081, Note_on_c, 6, 55, 79
1, 106081, Note_on_c, 9, 59, 71
1, 106083, Note_on_c, 0, 69, 95
1, 106083, Note_on_c, 2, 67, 83
1, 106085, Note_on_c, 2, 55, 82
1, 106086, Note_on_c, 9, 54, 0
1, 106086, Note_on_c, 7, 62, 79
1, 106086, Note_on_c, 13, 81, 80
1, 106087, Note_on_c, 5, 58, 80
1, 106087, Note_on_c, 9, 82, 63
1, 106088, Note_on_c, 5, 62, 82
1, 106088, Note_on_c, 5, 67, 83
1, 106088, Note_on_c, 7, 58, 82
1, 106093, Note_on_c, 9, 40, 0
1, 106094, Note_on_c, 9, 59, 0
1, 106100, Note_on_c, 9, 82, 0
1, 106162, Lyric_t, "here "
1, 106162, Note_on_c, 3, 84, 89
1, 106197, Note_on_c, 9, 54, 38
1, 106199, Note_on_c, 9, 82, 47
1, 106210, Note_on_c, 9, 54, 0
1, 106212, Note_on_c, 9, 82, 0
1, 106230, Note_on_c, 3, 84, 0
1, 106238, Lyric_t, "to"
1, 106238, Note_on_c, 3, 82, 89
1, 106295, Note_on_c, 1, 43, 0
1, 106305, Note_on_c, 5, 67, 0
1, 106305, Note_on_c, 5, 62, 0
1, 106305, Note_on_c, 5, 58, 0
1, 106305, Note_on_c, 13, 81, 0
1, 106305, Note_on_c, 2, 55, 0
1, 106305, Note_on_c, 2, 67, 0
1, 106305, Note_on_c, 0, 69, 0
1, 106305, Note_on_c, 2, 58, 0
1, 106305, Note_on_c, 0, 81, 0
1, 106305, Note_on_c, 5, 55, 0
1, 106305, Note_on_c, 2, 62, 0
1, 106305, Note_on_c, 7, 55, 0
1, 106310, Note_on_c, 3, 82, 0
1, 106314, Note_on_c, 5, 55, 69
1, 106316, Note_on_c, 5, 67, 71
1, 106318, Note_on_c, 0, 82, 89
1, 106318, Note_on_c, 7, 55, 69
1, 106318, Note_on_c, 9, 54, 48
1, 106319, Note_on_c, 1, 43, 95
1, 106320, Note_on_c, 0, 70, 88
1, 106322, Note_on_c, 2, 58, 73
1, 106322, Note_on_c, 5, 58, 72
1, 106324, Note_on_c, 2, 67, 71
1, 106324, Note_on_c, 2, 55, 72
1, 106325, Note_on_c, 5, 62, 71
1, 106326, Lyric_t, "ge"
1, 106326, Note_on_c, 2, 62, 73
1, 106326, Note_on_c, 3, 84, 95
1, 106326, Note_on_c, 9, 59, 51
1, 106326, Note_on_c, 13, 82, 82
1, 106327, Note_on_c, 9, 82, 33
1, 106331, Note_on_c, 9, 54, 0
1, 106339, Note_on_c, 9, 59, 0
1, 106340, Note_on_c, 9, 82, 0
1, 106439, Note_on_c, 9, 54, 35
1, 106440, Note_on_c, 9, 36, 90
1, 106441, Note_on_c, 9, 82, 47
1, 106452, Note_on_c, 9, 54, 0
1, 106453, Note_on_c, 9, 36, 0
1, 106454, Note_on_c, 9, 82, 0
1, 106535, Note_on_c, 1, 43, 0
1, 106545, Note_on_c, 13, 82, 0
1, 106545, Note_on_c, 2, 62, 0
1, 106545, Note_on_c, 5, 62, 0
1, 106545, Note_on_c, 2, 55, 0
1, 106545, Note_on_c, 2, 67, 0
1, 106545, Note_on_c, 5, 58, 0
1, 106545, Note_on_c, 2, 58, 0
1, 106545, Note_on_c, 0, 70, 0
1, 106545, Note_on_c, 7, 55, 0
1, 106545, Note_on_c, 0, 82, 0
1, 106545, Note_on_c, 5, 67, 0
1, 106545, Note_on_c, 5, 55, 0
1, 106545, Note_on_c, 7, 58, 0
1, 106545, Note_on_c, 7, 62, 0
1, 106545, Note_on_c, 6, 55, 0
1, 106545, Note_on_c, 0, 58, 0
1, 106545, Note_on_c, 6, 62, 0
1, 106545, Note_on_c, 0, 62, 0
1, 106545, Note_on_c, 0, 55, 0
1, 106545, Note_on_c, 6, 58, 0
1, 106545, Note_on_c, 7, 50, 0
1, 106545, Note_on_c, 13, 58, 0
1, 106545, Note_on_c, 11, 43, 0
1, 106545, Note_on_c, 13, 62, 0
1, 106545, Note_on_c, 12, 43, 0
1, 106545, Note_on_c, 13, 43, 0
1, 106545, Note_on_c, 13, 67, 0
1, 106553, Note_on_c, 2, 62, 77
1, 106553, Note_on_c, 5, 53, 77
1, 106553, Note_on_c, 6, 62, 77
1, 106555, Note_on_c, 13, 62, 82
1, 106556, Note_on_c, 2, 56, 79
1, 106556, Note_on_c, 7, 62, 76
1, 106556, Note_on_c, 13, 58, 80
1, 106557, Note_on_c, 12, 41, 79
1, 106559, Note_on_c, 9, 59, 72
1, 106559, Note_on_c, 13, 53, 79
1, 106560, Note_on_c, 0, 70, 95
1, 106560, Note_on_c, 9, 36, 115
1, 106560, Note_on_c, 11, 41, 81
1, 106561, Note_on_c, 0, 82, 91
1, 106561, Note_on_c, 0, 53, 84
1, 106562, Note_on_c, 0, 62, 83
1, 106562, Note_on_c, 0, 58, 80
1, 106562, Note_on_c, 5, 56, 79
1, 106562, Note_on_c, 7, 53, 79
1, 106562, Note_on_c, 13, 56, 82
1, 106562, Note_on_c, 13, 82, 80
1, 106563, Note_on_c, 2, 53, 79
1, 106563, Note_on_c, 6, 65, 77
1, 106563, Note_on_c, 9, 82, 63
1, 106563, Note_on_c, 9, 54, 49
1, 106564, Note_on_c, 1, 41, 102
1, 106565, Note_on_c, 6, 58, 80
1, 106565, Note_on_c, 7, 56, 79
1, 106566, Note_on_c, 5, 62, 77
1, 106567, Note_on_c, 5, 65, 79
1, 106568, Note_on_c, 2, 65, 80
1, 106568, Note_on_c, 7, 65, 80
1, 106572, Note_on_c, 9, 59, 0
1, 106573, Note_on_c, 9, 36, 0
1, 106576, Note_on_c, 9, 54, 0
1, 106576, Note_on_c, 9, 82, 0
1, 106655, Note_on_c, 1, 41, 0
1, 106665, Note_on_c, 3, 84, 0
1, 106683, Note_on_c, 9, 54, 34
1, 106687, Lyric_t, "ther "
1, 106687, Lyric_t, "\015"
1, 106687, Note_on_c, 3, 86, 87
1, 106687, Note_on_c, 9, 82, 49
1, 106696, Note_on_c, 9, 54, 0
1, 106700, Note_on_c, 9, 82, 0
1, 106785, Note_on_c, 3, 86, 0
1, 106785, Note_on_c, 2, 65, 0
1, 106785, Note_on_c, 5, 65, 0
1, 106785, Note_on_c, 5, 62, 0
1, 106785, Note_on_c, 2, 53, 0
1, 106785, Note_on_c, 13, 82, 0
1, 106785, Note_on_c, 5, 56, 0
1, 106785, Note_on_c, 0, 82, 0
1, 106785, Note_on_c, 0, 70, 0
1, 106785, Note_on_c, 2, 56, 0
1, 106785, Note_on_c, 5, 53, 0
1, 106785, Note_on_c, 2, 62, 0
1, 106792, Note_on_c, 5, 65, 73
1, 106792, Note_on_c, 9, 82, 31
1, 106794, Note_on_c, 2, 53, 71
1, 106794, Note_on_c, 5, 62, 70
1, 106795, Note_on_c, 13, 84, 79
1, 106797, Note_on_c, 0, 84, 88
1, 106797, Note_on_c, 2, 56, 69
1, 106797, Note_on_c, 9, 54, 46
1, 106798, Note_on_c, 2, 65, 70
1, 106798, Note_on_c, 5, 56, 72
1, 106799, Note_on_c, 0, 72, 88
1, 106802, Note_on_c, 2, 62, 72
1, 106802, Note_on_c, 5, 53, 72
1, 106802, Note_on_c, 9, 59, 50
1, 106805, Note_on_c, 9, 82, 0
1, 106807, Note_on_c, 1, 41, 95
1, 106810, Note_on_c, 9, 54, 0
1, 106815, Note_on_c, 9, 59, 0
1, 106913, Note_on_c, 9, 82, 46
1, 106922, Note_on_c, 9, 54, 36
1, 106926, Note_on_c, 9, 82, 0
1, 106935, Note_on_c, 9, 54, 0
1, 107025, Note_on_c, 5, 53, 0
1, 107025, Note_on_c, 2, 62, 0
1, 107025, Note_on_c, 0, 72, 0
1, 107025, Note_on_c, 5, 56, 0
1, 107025, Note_on_c, 2, 65, 0
1, 107025, Note_on_c, 2, 56, 0
1, 107025, Note_on_c, 0, 84, 0
1, 107025, Note_on_c, 13, 84, 0
1, 107025, Note_on_c, 5, 62, 0
1, 107025, Note_on_c, 2, 53, 0
1, 107025, Note_on_c, 5, 65, 0
1, 107025, Note_on_c, 7, 65, 0
1, 107025, Note_on_c, 7, 56, 0
1, 107025, Note_on_c, 6, 58, 0
1, 107025, Note_on_c, 6, 65, 0
1, 107025, Note_on_c, 7, 53, 0
1, 107025, Note_on_c, 0, 58, 0
1, 107025, Note_on_c, 0, 62, 0
1, 107025, Note_on_c, 0, 53, 0
1, 107025, Note_on_c, 7, 62, 0
1, 107025, Note_on_c, 6, 62, 0
1, 107032, Note_on_c, 5, 62, 82
1, 107033, Note_on_c, 2, 65, 83
1, 107033, Note_on_c, 6, 62, 83
1, 107033, Note_on_c, 7, 62, 81
1, 107034, Note_on_c, 13, 81, 79
1, 107035, Note_on_c, 9, 54, 75
1, 107037, Note_on_c, 0, 81, 96
1, 107037, Note_on_c, 5, 53, 83
1, 107037, Note_on_c, 7, 65, 81
1, 107037, Note_on_c, 9, 59, 70
1, 107038, Note_on_c, 2, 56, 83
1, 107039, Note_on_c, 6, 65, 84
1, 107040, Note_on_c, 0, 69, 98
1, 107040, Note_on_c, 9, 40, 115
1, 107041, Note_on_c, 0, 58, 87
1, 107042, Note_on_c, 0, 62, 89
1, 107042, Note_on_c, 0, 53, 88
1, 107042, Note_on_c, 2, 53, 83
1, 107042, Note_on_c, 5, 65, 81
1, 107042, Note_on_c, 9, 82, 65
1, 107043, Note_on_c, 7, 53, 81
1, 107045, Note_on_c, 2, 62, 84
1, 107046, Note_on_c, 6, 58, 80
1, 107047, Note_on_c, 5, 56, 83
1, 107048, Note_on_c, 9, 54, 0
1, 107048, Note_on_c, 7, 56, 81
1, 107050, Note_on_c, 9, 59, 0
1, 107053, Note_on_c, 9, 40, 0
1, 107055, Note_on_c, 9, 82, 0
1, 107161, Lyric_t, "Than "
1, 107161, Note_on_c, 3, 82, 87
1, 107163, Note_on_c, 9, 82, 53
1, 107166, Note_on_c, 9, 54, 35
1, 107176, Note_on_c, 9, 82, 0
1, 107179, Note_on_c, 9, 54, 0
1, 107255, Note_on_c, 1, 41, 0
1, 107265, Note_on_c, 5, 56, 0
1, 107265, Note_on_c, 2, 62, 0
1, 107265, Note_on_c, 5, 65, 0
1, 107265, Note_on_c, 2, 53, 0
1, 107265, Note_on_c, 0, 69, 0
1, 107265, Note_on_c, 2, 56, 0
1, 107265, Note_on_c, 5, 53, 0
1, 107265, Note_on_c, 0, 81, 0
1, 107265, Note_on_c, 13, 81, 0
1, 107265, Note_on_c, 2, 65, 0
1, 107265, Note_on_c, 5, 62, 0
1, 107276, Note_on_c, 5, 53, 70
1, 107277, Note_on_c, 0, 70, 85
1, 107277, Note_on_c, 9, 59, 48
1, 107277, Note_on_c, 9, 54, 47
1, 107278, Note_on_c, 2, 53, 71
1, 107280, Note_on_c, 2, 65, 72
1, 107280, Note_on_c, 9, 36, 90
1, 107281, Note_on_c, 1, 34, 97
1, 107282, Note_on_c, 2, 56, 72
1, 107282, Note_on_c, 5, 62, 69
1, 107283, Note_on_c, 0, 82, 86
1, 107283, Note_on_c, 13, 82, 82
1, 107284, Note_on_c, 5, 65, 68
1, 107285, Note_on_c, 2, 62, 72
1, 107286, Note_on_c, 5, 56, 69
1, 107287, Note_on_c, 9, 82, 44
1, 107290, Note_on_c, 9, 54, 0
1, 107290, Note_on_c, 9, 59, 0
1, 107293, Note_on_c, 9, 36, 0
1, 107300, Note_on_c, 9, 82, 0
1, 107305, Note_on_c, 3, 82, 0
1, 107328, Lyric_t, "we "
1, 107328, Note_on_c, 3, 84, 91
1, 107375, Note_on_c, 1, 34, 0
1, 107393, Note_on_c, 9, 54, 37
1, 107398, Note_on_c, 1, 36, 97
1, 107406, Note_on_c, 9, 54, 0
1, 107408, Note_on_c, 9, 82, 32
1, 107421, Note_on_c, 9, 82, 0
1, 107465, Note_on_c, 3, 84, 0
1, 107477, Lyric_t, "could "
1, 107477, Note_on_c, 3, 86, 105
1, 107495, Note_on_c, 1, 36, 0
1, 107505, Note_on_c, 5, 56, 0
1, 107505, Note_on_c, 2, 62, 0
1, 107505, Note_on_c, 5, 65, 0
1, 107505, Note_on_c, 13, 82, 0
1, 107505, Note_on_c, 0, 82, 0
1, 107505, Note_on_c, 5, 62, 0
1, 107505, Note_on_c, 2, 56, 0
1, 107505, Note_on_c, 2, 65, 0
1, 107505, Note_on_c, 2, 53, 0
1, 107505, Note_on_c, 0, 70, 0
1, 107505, Note_on_c, 5, 53, 0
1, 107505, Note_on_c, 7, 56, 0
1, 107505, Note_on_c, 6, 58, 0
1, 107505, Note_on_c, 7, 53, 0
1, 107505, Note_on_c, 0, 53, 0
1, 107505, Note_on_c, 0, 62, 0
1, 107505, Note_on_c, 0, 58, 0
1, 107505, Note_on_c, 6, 65, 0
1, 107505, Note_on_c, 7, 65, 0
1, 107505, Note_on_c, 7, 62, 0
1, 107505, Note_on_c, 6, 62, 0
1, 107505, Note_on_c, 13, 56, 0
1, 107505, Note_on_c, 11, 41, 0
1, 107505, Note_on_c, 13, 53, 0
1, 107505, Note_on_c, 12, 41, 0
1, 107505, Note_on_c, 13, 58, 0
1, 107505, Note_on_c, 13, 62, 0
1, 107513, Note_on_c, 2, 67, 84
1, 107513, Note_on_c, 13, 82, 79
1, 107514, Note_on_c, 2, 63, 84
1, 107514, Note_on_c, 7, 58, 83
1, 107515, Note_on_c, 7, 67, 84
1, 107515, Note_on_c, 9, 82, 65
1, 107516, Note_on_c, 5, 51, 85
1, 107516, Note_on_c, 5, 63, 85
1, 107516, Note_on_c, 13, 58, 81
1, 107517, Note_on_c, 0, 58, 86
1, 107517, Note_on_c, 1, 39, 106
1, 107517, Note_on_c, 9, 59, 69
1, 107517, Note_on_c, 13, 63, 81
1, 107518, Note_on_c, 6, 51, 82
1, 107518, Note_on_c, 7, 63, 83
1, 107518, Note_on_c, 7, 51, 84
1, 107519, Note_on_c, 0, 70, 100
1, 107520, Note_on_c, 9, 36, 115
1, 107520, Note_on_c, 11, 51, 78
1, 107520, Note_on_c, 13, 55, 82
1, 107521, Note_on_c, 0, 55, 87
1, 107521, Note_on_c, 0, 51, 86
1, 107522, Note_on_c, 0, 82, 99
1, 107522, Note_on_c, 13, 51, 81
1, 107523, Note_on_c, 2, 51, 82
1, 107523, Note_on_c, 5, 67, 83
1, 107526, Note_on_c, 9, 54, 50
1, 107528, Note_on_c, 9, 82, 0
1, 107528, Note_on_c, 2, 58, 86
1, 107528, Note_on_c, 5, 58, 82
1, 107528, Note_on_c, 12, 51, 78
1, 107530, Note_on_c, 9, 59, 0
1, 107533, Note_on_c, 9, 36, 0
1, 107539, Note_on_c, 9, 54, 0
1, 107585, Note_on_c, 3, 86, 0
1, 107625, Pitch_bend_c, 3, 4971
1, 107632, Note_on_c, 9, 82, 50
1, 107637, Note_on_c, 9, 54, 34
1, 107642, Lyric_t, "e"
1, 107642, Note_on_c, 3, 89, 91
1, 107645, Note_on_c, 9, 82, 0
1, 107650, Note_on_c, 9, 54, 0
1, 107660, Pitch_bend_c, 3, 5241
1, 107670, Pitch_bend_c, 3, 5777
1, 107680, Pitch_bend_c, 3, 6314
1, 107690, Pitch_bend_c, 3, 6851
1, 107700, Pitch_bend_c, 3, 7387
1, 107710, Pitch_bend_c, 3, 7924
1, 107715, Pitch_bend_c, 3, 8192
1, 107745, Note_on_c, 5, 58, 0
1, 107745, Note_on_c, 2, 58, 0
1, 107745, Note_on_c, 5, 67, 0
1, 107745, Note_on_c, 2, 51, 0
1, 107745, Note_on_c, 7, 51, 0
1, 107745, Note_on_c, 5, 63, 0
1, 107745, Note_on_c, 5, 51, 0
1, 107745, Note_on_c, 2, 63, 0
1, 107745, Note_on_c, 2, 67, 0
1, 107753, Note_on_c, 2, 51, 74
1, 107754, Note_on_c, 5, 51, 74
1, 107754, Note_on_c, 5, 58, 74
1, 107755, Note_on_c, 5, 67, 70
1, 107756, Note_on_c, 9, 82, 32
1, 107757, Note_on_c, 9, 59, 50
1, 107758, Note_on_c, 2, 58, 72
1, 107759, Note_on_c, 5, 63, 73
1, 107762, Note_on_c, 6, 58, 74
1, 107762, Note_on_c, 7, 51, 71
1, 107763, Note_on_c, 2, 67, 71
1, 107764, Note_on_c, 9, 54, 49
1, 107765, Note_on_c, 2, 63, 74
1, 107769, Note_on_c, 9, 82, 0
1, 107770, Note_on_c, 9, 59, 0
1, 107777, Note_on_c, 9, 54, 0
1, 107865, Note_on_c, 3, 89, 0
1, 107879, Note_on_c, 9, 54, 37
1, 107887, Lyric_t, "ver "
1, 107887, Note_on_c, 3, 86, 92
1, 107887, Note_on_c, 9, 82, 49
1, 107892, Note_on_c, 9, 54, 0
1, 107900, Note_on_c, 9, 82, 0
1, 107975, Note_on_c, 1, 39, 0
1, 107985, Note_on_c, 3, 86, 0
1, 107985, Note_on_c, 2, 63, 0
1, 107985, Note_on_c, 2, 67, 0
1, 107985, Note_on_c, 7, 51, 0
1, 107985, Note_on_c, 5, 63, 0
1, 107985, Note_on_c, 2, 58, 0
1, 107985, Note_on_c, 5, 67, 0
1, 107985, Note_on_c, 5, 58, 0
1, 107985, Note_on_c, 5, 51, 0
1, 107985, Note_on_c, 2, 51, 0
1, 107985, Note_on_c, 0, 82, 0
1, 107985, Note_on_c, 0, 51, 0
1, 107985, Note_on_c, 0, 55, 0
1, 107985, Note_on_c, 0, 70, 0
1, 107985, Note_on_c, 7, 63, 0
1, 107985, Note_on_c, 0, 58, 0
1, 107985, Note_on_c, 7, 67, 0
1, 107985, Note_on_c, 7, 58, 0
1, 107985, Note_on_c, 13, 82, 0
1, 107995, Note_on_c, 7, 67, 80
1, 107995, Note_on_c, 9, 82, 62
1, 107997, Note_on_c, 0, 67, 95
1, 107997, Note_on_c, 5, 63, 80
1, 107997, Note_on_c, 5, 58, 79
1, 107997, Note_on_c, 13, 79, 80
1, 107998, Note_on_c, 5, 51, 81
1, 107998, Note_on_c, 7, 58, 78
1, 107998, Note_on_c, 9, 59, 71
1, 107999, Note_on_c, 7, 63, 81
1, 108000, Note_on_c, 0, 79, 97
1, 108000, Note_on_c, 9, 40, 115
1, 108001, Note_on_c, 0, 55, 84
1, 108002, Note_on_c, 5, 67, 82
1, 108002, Note_on_c, 6, 63, 81
1, 108003, Note_on_c, 0, 58, 85
1, 108003, Note_on_c, 0, 51, 85
1, 108003, Note_on_c, 2, 67, 82
1, 108004, Note_on_c, 2, 51, 82
1, 108004, Note_on_c, 2, 58, 79
1, 108004, Note_on_c, 7, 51, 82
1, 108005, Note_on_c, 9, 54, 76
1, 108008, Note_on_c, 9, 82, 0
1, 108008, Note_on_c, 2, 63, 80
1, 108011, Note_on_c, 9, 59, 0
1, 108013, Note_on_c, 9, 40, 0
1, 108018, Note_on_c, 9, 54, 0
1, 108072, Lyric_t, "be "
1, 108072, Note_on_c, 3, 84, 87
1, 108113, Note_on_c, 9, 54, 37
1, 108122, Note_on_c, 1, 36, 91
1, 108122, Note_on_c, 9, 82, 50
1, 108126, Note_on_c, 9, 54, 0
1, 108135, Note_on_c, 9, 82, 0
1, 108150, Note_on_c, 3, 84, 0
1, 108208, Lyric_t, "a"
1, 108208, Note_on_c, 3, 82, 93
1, 108215, Note_on_c, 1, 36, 0
1, 108225, Note_on_c, 2, 63, 0
1, 108225, Note_on_c, 7, 51, 0
1, 108225, Note_on_c, 2, 58, 0
1, 108225, Note_on_c, 2, 51, 0
1, 108225, Note_on_c, 2, 67, 0
1, 108225, Note_on_c, 5, 67, 0
1, 108225, Note_on_c, 5, 51, 0
1, 108225, Note_on_c, 5, 58, 0
1, 108225, Note_on_c, 5, 63, 0
1, 108225, Note_on_c, 6, 58, 0
1, 108235, Note_on_c, 2, 51, 68
1, 108237, Note_on_c, 1, 39, 96
1, 108238, Note_on_c, 2, 63, 69
1, 108238, Note_on_c, 9, 54, 48
1, 108240, Note_on_c, 5, 51, 70
1, 108240, Note_on_c, 7, 51, 69
1, 108241, Note_on_c, 5, 63, 68
1, 108242, Note_on_c, 2, 58, 69
1, 108243, Note_on_c, 2, 67, 69
1, 108243, Note_on_c, 9, 59, 51
1, 108244, Note_on_c, 5, 58, 69
1, 108246, Note_on_c, 5, 67, 69
1, 108247, Note_on_c, 6, 58, 73
1, 108247, Note_on_c, 9, 82, 34
1, 108251, Note_on_c, 9, 54, 0
1, 108256, Note_on_c, 9, 59, 0
1, 108260, Note_on_c, 9, 82, 0
1, 108270, Note_on_c, 3, 82, 0
1, 108326, Lyric_t, "lone. "
1, 108326, Lyric_t, "\015"
1, 108326, Note_on_c, 3, 82, 102
1, 108335, Note_on_c, 1, 39, 0
1, 108357, Note_on_c, 9, 82, 50
1, 108362, Note_on_c, 1, 36, 102
1, 108363, Note_on_c, 9, 54, 36
1, 108370, Note_on_c, 9, 82, 0
1, 108376, Note_on_c, 9, 54, 0
1, 108455, Note_on_c, 1, 36, 0
1, 108465, Note_on_c, 3, 82, 0
1, 108465, Note_on_c, 6, 58, 0
1, 108465, Note_on_c, 5, 67, 0
1, 108465, Note_on_c, 5, 58, 0
1, 108465, Note_on_c, 2, 67, 0
1, 108465, Note_on_c, 2, 58, 0
1, 108465, Note_on_c, 5, 63, 0
1, 108465, Note_on_c, 7, 51, 0
1, 108465, Note_on_c, 5, 51, 0
1, 108465, Note_on_c, 2, 63, 0
1, 108465, Note_on_c, 2, 51, 0
1, 108465, Note_on_c, 0, 51, 0
1, 108465, Note_on_c, 0, 58, 0
1, 108465, Note_on_c, 6, 63, 0
1, 108465, Note_on_c, 0, 55, 0
1, 108465, Note_on_c, 0, 79, 0
1, 108465, Note_on_c, 7, 63, 0
1, 108465, Note_on_c, 7, 58, 0
1, 108465, Note_on_c, 13, 79, 0
1, 108465, Note_on_c, 0, 67, 0
1, 108465, Note_on_c, 7, 67, 0
1, 108465, Note_on_c, 12, 51, 0
1, 108465, Note_on_c, 13, 51, 0
1, 108465, Note_on_c, 13, 55, 0
1, 108465, Note_on_c, 11, 51, 0
1, 108465, Note_on_c, 6, 51, 0
1, 108465, Note_on_c, 13, 63, 0
1, 108465, Note_on_c, 13, 58, 0
1, 108473, Note_on_c, 2, 53, 82
1, 108473, Note_on_c, 6, 58, 80
1, 108473, Note_on_c, 7, 58, 80
1, 108474, Note_on_c, 11, 50, 80
1, 108475, Note_on_c, 2, 58, 82
1, 108476, Note_on_c, 2, 62, 79
1, 108477, Note_on_c, 9, 82, 65
1, 108478, Note_on_c, 5, 53, 82
1, 108478, Note_on_c, 5, 65, 81
1, 108478, Note_on_c, 7, 65, 78
1, 108479, Note_on_c, 7, 62, 82
1, 108480, Note_on_c, 0, 58, 83
1, 108480, Note_on_c, 0, 65, 97
1, 108480, Note_on_c, 5, 58, 81
1, 108480, Note_on_c, 9, 36, 115
1, 108480, Note_on_c, 13, 58, 80
1, 108481, Note_on_c, 0, 50, 86
1, 108481, Note_on_c, 0, 77, 95
1, 108481, Note_on_c, 9, 54, 47
1, 108482, Note_on_c, 0, 53, 82
1, 108482, Note_on_c, 1, 38, 101
1, 108482, Note_on_c, 3, 79, 105
1, 108482, Note_on_c, 12, 50, 82
1, 108483, Note_on_c, 6, 62, 78
1, 108483, Note_on_c, 9, 59, 70
1, 108483, Note_on_c, 13, 65, 82
1, 108484, Note_on_c, 7, 53, 80
1, 108484, Note_on_c, 13, 50, 81
1, 108485, Note_on_c, 6, 65, 80
1, 108486, Note_on_c, 2, 65, 82
1, 108486, Note_on_c, 13, 53, 80
1, 108487, Note_on_c, 5, 62, 80
1, 108488, Note_on_c, 13, 77, 81
1, 108490, Note_on_c, 9, 82, 0
1, 108493, Note_on_c, 9, 36, 0
1, 108494, Note_on_c, 9, 54, 0
1, 108496, Note_on_c, 9, 59, 0
1, 108550, Note_on_c, 3, 79, 0
1, 108557, Note_on_c, 3, 77, 87
1, 108597, Note_on_c, 9, 82, 49
1, 108602, Note_on_c, 9, 54, 36
1, 108610, Note_on_c, 9, 82, 0
1, 108615, Note_on_c, 9, 54, 0
1, 108705, Note_on_c, 3, 77, 0
1, 108705, Note_on_c, 5, 62, 0
1, 108705, Note_on_c, 2, 65, 0
1, 108705, Note_on_c, 5, 58, 0
1, 108705, Note_on_c, 5, 65, 0
1, 108705, Note_on_c, 5, 53, 0
1, 108705, Note_on_c, 2, 62, 0
1, 108705, Note_on_c, 2, 58, 0
1, 108705, Note_on_c, 6, 58, 0
1, 108705, Note_on_c, 2, 53, 0
1, 108716, Note_on_c, 9, 82, 31
1, 108717, Note_on_c, 2, 65, 72
1, 108717, Note_on_c, 5, 65, 72
1, 108718, Note_on_c, 5, 53, 72
1, 108719, Note_on_c, 5, 62, 72
1, 108720, Note_on_c, 2, 58, 69
1, 108720, Note_on_c, 9, 36, 115
1, 108722, Note_on_c, 2, 53, 68
1, 108722, Note_on_c, 9, 54, 49
1, 108725, Note_on_c, 2, 62, 68
1, 108725, Note_on_c, 5, 58, 68
1, 108725, Note_on_c, 9, 59, 52
1, 108726, Note_on_c, 6, 58, 74
1, 108726, Note_on_c, 7, 50, 72
1, 108729, Note_on_c, 9, 82, 0
1, 108733, Note_on_c, 9, 36, 0
1, 108735, Note_on_c, 9, 54, 0
1, 108738, Note_on_c, 9, 59, 0
1, 108837, Note_on_c, 9, 82, 48
1, 108837, Note_on_c, 9, 54, 37
1, 108850, Note_on_c, 9, 54, 0
1, 108850, Note_on_c, 9, 82, 0
1, 108945, Note_on_c, 6, 58, 0
1, 108945, Note_on_c, 5, 58, 0
1, 108945, Note_on_c, 2, 62, 0
1, 108945, Note_on_c, 2, 53, 0
1, 108945, Note_on_c, 2, 58, 0
1, 108945, Note_on_c, 5, 62, 0
1, 108945, Note_on_c, 5, 53, 0
1, 108945, Note_on_c, 5, 65, 0
1, 108945, Note_on_c, 2, 65, 0
1, 108945, Note_on_c, 13, 77, 0
1, 108945, Note_on_c, 7, 53, 0
1, 108945, Note_on_c, 12, 50, 0
1, 108945, Note_on_c, 0, 53, 0
1, 108945, Note_on_c, 0, 77, 0
1, 108945, Note_on_c, 0, 50, 0
1, 108945, Note_on_c, 0, 65, 0
1, 108945, Note_on_c, 0, 58, 0
1, 108945, Note_on_c, 7, 62, 0
1, 108945, Note_on_c, 7, 65, 0
1, 108945, Note_on_c, 7, 58, 0
1, 108952, Note_on_c, 12, 50, 78
1, 108953, Note_on_c, 2, 65, 77
1, 108954, Note_on_c, 7, 58, 80
1, 108955, Note_on_c, 5, 65, 78
1, 108955, Note_on_c, 9, 59, 68
1, 108957, Note_on_c, 5, 62, 81
1, 108958, Note_on_c, 0, 74, 93
1, 108959, Note_on_c, 6, 58, 78
1, 108960, Note_on_c, 9, 40, 115
1, 108961, Note_on_c, 0, 62, 92
1, 108961, Note_on_c, 0, 58, 84
1, 108961, Note_on_c, 2, 58, 79
1, 108961, Note_on_c, 7, 62, 81
1, 108962, Note_on_c, 0, 50, 83
1, 108962, Note_on_c, 0, 53, 82
1, 108962, Note_on_c, 7, 53, 78
1, 108963, Note_on_c, 2, 62, 80
1, 108963, Note_on_c, 7, 65, 79
1, 108963, Note_on_c, 9, 54, 76
1, 108963, Note_on_c, 13, 74, 78
1, 108964, Note_on_c, 5, 53, 81
1, 108967, Note_on_c, 5, 58, 78
1, 108967, Note_on_c, 9, 82, 65
1, 108968, Note_on_c, 9, 59, 0
1, 108968, Note_on_c, 2, 53, 77
1, 108973, Note_on_c, 9, 40, 0
1, 108976, Note_on_c, 9, 54, 0
1, 108980, Note_on_c, 9, 82, 0
1, 109072, Note_on_c, 9, 54, 38
1, 109076, Note_on_c, 9, 82, 53
1, 109084, Lyric_t, "Just "
1, 109084, Note_on_c, 3, 79, 89
1, 109085, Note_on_c, 9, 54, 0
1, 109089, Note_on_c, 9, 82, 0
1, 109175, Note_on_c, 1, 38, 0
1, 109185, Note_on_c, 3, 79, 0
1, 109185, Note_on_c, 2, 53, 0
1, 109185, Note_on_c, 5, 58, 0
1, 109185, Note_on_c, 5, 53, 0
1, 109185, Note_on_c, 2, 62, 0
1, 109185, Note_on_c, 2, 58, 0
1, 109185, Note_on_c, 5, 62, 0
1, 109185, Note_on_c, 5, 65, 0
1, 109185, Note_on_c, 2, 65, 0
1, 109185, Note_on_c, 7, 50, 0
1, 109193, Note_on_c, 2, 65, 71
1, 109193, Note_on_c, 5, 65, 69
1, 109193, Note_on_c, 7, 50, 70
1, 109194, Note_on_c, 2, 53, 69
1, 109197, Note_on_c, 5, 62, 71
1, 109197, Note_on_c, 9, 59, 50
1, 109199, Note_on_c, 1, 38, 95
1, 109199, Note_on_c, 5, 58, 72
1, 109200, Lyric_t, "hold "
1, 109200, Note_on_c, 3, 82, 93
1, 109201, Note_on_c, 5, 53, 72
1, 109202, Note_on_c, 2, 58, 68
1, 109203, Note_on_c, 2, 62, 69
1, 109204, Note_on_c, 9, 54, 49
1, 109204, Note_on_c, 9, 82, 43
1, 109210, Note_on_c, 9, 59, 0
1, 109217, Note_on_c, 9, 82, 0
1, 109217, Note_on_c, 9, 54, 0
1, 109270, Note_on_c, 3, 82, 0
1, 109295, Note_on_c, 1, 38, 0
1, 109305, Pitch_bend_c, 3, 4971
1, 109317, Lyric_t, "on "
1, 109317, Note_on_c, 1, 34, 96
1, 109317, Note_on_c, 3, 86, 95
1, 109325, Note_on_c, 9, 82, 33
1, 109327, Note_on_c, 9, 54, 36
1, 109338, Note_on_c, 9, 82, 0
1, 109340, Note_on_c, 9, 54, 0
1, 109340, Pitch_bend_c, 3, 5241
1, 109350, Pitch_bend_c, 3, 5777
1, 109360, Pitch_bend_c, 3, 6314
1, 109370, Pitch_bend_c, 3, 6851
1, 109380, Pitch_bend_c, 3, 7387
1, 109390, Pitch_bend_c, 3, 7924
1, 109395, Pitch_bend_c, 3, 8192
1, 109415, Note_on_c, 1, 34, 0
1, 109425, Note_on_c, 2, 62, 0
1, 109425, Note_on_c, 2, 58, 0
1, 109425, Note_on_c, 5, 53, 0
1, 109425, Note_on_c, 5, 58, 0
1, 109425, Note_on_c, 5, 62, 0
1, 109425, Note_on_c, 2, 53, 0
1, 109425, Note_on_c, 7, 50, 0
1, 109425, Note_on_c, 5, 65, 0
1, 109425, Note_on_c, 2, 65, 0
1, 109425, Note_on_c, 13, 74, 0
1, 109425, Note_on_c, 7, 65, 0
1, 109425, Note_on_c, 7, 53, 0
1, 109425, Note_on_c, 0, 53, 0
1, 109425, Note_on_c, 0, 50, 0
1, 109425, Note_on_c, 7, 62, 0
1, 109425, Note_on_c, 0, 58, 0
1, 109425, Note_on_c, 0, 62, 0
1, 109425, Note_on_c, 6, 58, 0
1, 109425, Note_on_c, 0, 74, 0
1, 109425, Note_on_c, 7, 58, 0
1, 109425, Note_on_c, 12, 50, 0
1, 109425, Note_on_c, 13, 53, 0
1, 109425, Note_on_c, 6, 65, 0
1, 109425, Note_on_c, 13, 50, 0
1, 109425, Note_on_c, 13, 65, 0
1, 109425, Note_on_c, 6, 62, 0
1, 109425, Note_on_c, 13, 58, 0
1, 109425, Note_on_c, 11, 50, 0
1, 109432, Note_on_c, 5, 60, 85
1, 109433, Note_on_c, 5, 67, 85
1, 109433, Note_on_c, 13, 63, 81
1, 109434, Note_on_c, 6, 60, 83
1, 109434, Note_on_c, 12, 48, 78
1, 109434, Note_on_c, 13, 60, 80
1, 109435, Note_on_c, 1, 36, 104
1, 109435, Note_on_c, 9, 82, 64
1, 109436, Note_on_c, 2, 67, 81
1, 109436, Note_on_c, 13, 55, 80
1, 109437, Note_on_c, 0, 48, 89
1, 109437, Note_on_c, 13, 75, 78
1, 109438, Note_on_c, 2, 60, 85
1, 109438, Note_on_c, 7, 55, 84
1, 109439, Note_on_c, 0, 67, 89
1, 109439, Note_on_c, 9, 54, 48
1, 109439, Note_on_c, 13, 48, 82
1, 109440, Note_on_c, 2, 55, 83
1, 109440, Note_on_c, 5, 55, 82
1, 109440, Note_on_c, 9, 36, 115
1, 109440, Note_on_c, 9, 57, 75
1, 109441, Note_on_c, 7, 63, 83
1, 109442, Note_on_c, 0, 60, 85
1, 109442, Note_on_c, 0, 63, 89
1, 109442, Note_on_c, 2, 63, 84
1, 109442, Note_on_c, 7, 58, 85
1, 109443, Note_on_c, 5, 63, 82
1, 109443, Note_on_c, 7, 48, 82
1, 109443, Note_on_c, 11, 48, 81
1, 109445, Note_on_c, 6, 63, 84
1, 109448, Note_on_c, 9, 82, 0
1, 109452, Note_on_c, 9, 54, 0
1, 109453, Note_on_c, 9, 57, 0
1, 109453, Note_on_c, 9, 36, 0
1, 109505, Note_on_c, 3, 86, 0
1, 109558, Lyric_t, "to "
1, 109558, Note_on_c, 3, 84, 88
1, 109559, Note_on_c, 9, 82, 50
1, 109562, Note_on_c, 9, 54, 36
1, 109572, Note_on_c, 9, 82, 0
1, 109575, Note_on_c, 9, 54, 0
1, 109665, Note_on_c, 3, 84, 0
1, 109674, Lyric_t, "me. "
1, 109674, Lyric_t, "\015"
1, 109674, Note_on_c, 3, 84, 94
1, 109677, Note_on_c, 9, 54, 50
1, 109678, Note_on_c, 0, 55, 52
1, 109682, Note_on_c, 6, 55, 72
1, 109682, Note_on_c, 9, 82, 33
1, 109685, Note_on_c, 9, 59, 52
1, 109690, Note_on_c, 9, 54, 0
1, 109695, Note_on_c, 9, 82, 0
1, 109698, Note_on_c, 9, 59, 0
1, 109796, Note_on_c, 9, 54, 35
1, 109801, Note_on_c, 9, 82, 50
1, 109809, Note_on_c, 9, 54, 0
1, 109814, Note_on_c, 9, 82, 0
1, 109895, Note_on_c, 1, 36, 0
1, 109905, Note_on_c, 6, 55, 0
1, 109905, Note_on_c, 7, 48, 0
1, 109905, Note_on_c, 5, 63, 0
1, 109905, Note_on_c, 7, 58, 0
1, 109905, Note_on_c, 2, 63, 0
1, 109905, Note_on_c, 0, 63, 0
1, 109905, Note_on_c, 0, 60, 0
1, 109905, Note_on_c, 7, 63, 0
1, 109905, Note_on_c, 5, 55, 0
1, 109905, Note_on_c, 2, 55, 0
1, 109905, Note_on_c, 0, 67, 0
1, 109905, Note_on_c, 7, 55, 0
1, 109905, Note_on_c, 2, 60, 0
1, 109905, Note_on_c, 2, 67, 0
1, 109905, Note_on_c, 5, 67, 0
1, 109905, Note_on_c, 5, 60, 0
1, 109916, Note_on_c, 5, 63, 80
1, 109916, Note_on_c, 7, 55, 83
1, 109917, Note_on_c, 7, 48, 81
1, 109918, Note_on_c, 7, 63, 80
1, 109919, Note_on_c, 0, 63, 97
1, 109919, Note_on_c, 1, 36, 100
1, 109919, Note_on_c, 2, 60, 83
1, 109920, Note_on_c, 2, 63, 80
1, 109920, Note_on_c, 2, 67, 79
1, 109920, Note_on_c, 5, 55, 83
1, 109920, Note_on_c, 9, 59, 68
1, 109920, Note_on_c, 9, 40, 115
1, 109921, Note_on_c, 0, 75, 96
1, 109921, Note_on_c, 5, 60, 80
1, 109922, Note_on_c, 9, 54, 76
1, 109923, Note_on_c, 5, 67, 81
1, 109923, Note_on_c, 7, 58, 81
1, 109925, Note_on_c, 6, 55, 90
1, 109925, Note_on_c, 9, 82, 66
1, 109926, Note_on_c, 2, 55, 79
1, 109933, Note_on_c, 9, 40, 0
1, 109933, Note_on_c, 9, 59, 0
1, 109935, Note_on_c, 9, 54, 0
1, 109938, Note_on_c, 9, 82, 0
1, 110025, Note_on_c, 3, 84, 0
1, 110032, Note_on_c, 9, 54, 37
1, 110036, Note_on_c, 9, 82, 48
1, 110045, Note_on_c, 9, 54, 0
1, 110049, Note_on_c, 9, 82, 0
1, 110135, Note_on_c, 1, 36, 0
1, 110145, Note_on_c, 2, 55, 0
1, 110145, Note_on_c, 5, 67, 0
1, 110145, Note_on_c, 5, 60, 0
1, 110145, Note_on_c, 0, 75, 0
1, 110145, Note_on_c, 5, 55, 0
1, 110145, Note_on_c, 2, 67, 0
1, 110145, Note_on_c, 2, 63, 0
1, 110145, Note_on_c, 2, 60, 0
1, 110145, Note_on_c, 0, 63, 0
1, 110145, Note_on_c, 5, 63, 0
1, 110145, Note_on_c, 0, 55, 0
1, 110153, Note_on_c, 9, 54, 49
1, 110154, Note_on_c, 9, 59, 50
1, 110157, Note_on_c, 0, 62, 87
1, 110157, Note_on_c, 5, 60, 71
1, 110158, Note_on_c, 1, 38, 97
1, 110158, Note_on_c, 9, 82, 34
1, 110160, Note_on_c, 0, 55, 57
1, 110160, Note_on_c, 2, 67, 72
1, 110161, Note_on_c, 2, 55, 69
1, 110163, Note_on_c, 0, 74, 87
1, 110163, Note_on_c, 2, 60, 70
1, 110163, Note_on_c, 2, 63, 72
1, 110163, Note_on_c, 5, 55, 72
1, 110164, Note_on_c, 5, 67, 71
1, 110166, Note_on_c, 9, 54, 0
1, 110167, Note_on_c, 9, 59, 0
1, 110168, Note_on_c, 5, 63, 69
1, 110171, Note_on_c, 9, 82, 0
1, 110276, Lyric_t, "Don't "
1, 110276, Note_on_c, 3, 82, 102
1, 110280, Note_on_c, 9, 36, 90
1, 110283, Note_on_c, 9, 54, 36
1, 110284, Note_on_c, 9, 82, 50
1, 110293, Note_on_c, 9, 36, 0
1, 110296, Note_on_c, 9, 54, 0
1, 110297, Note_on_c, 9, 82, 0
1, 110375, Note_on_c, 1, 38, 0
1, 110385, Note_on_c, 3, 82, 0
1, 110385, Note_on_c, 5, 63, 0
1, 110385, Note_on_c, 5, 67, 0
1, 110385, Note_on_c, 5, 55, 0
1, 110385, Note_on_c, 2, 63, 0
1, 110385, Note_on_c, 2, 60, 0
1, 110385, Note_on_c, 0, 74, 0
1, 110385, Note_on_c, 2, 55, 0
1, 110385, Note_on_c, 2, 67, 0
1, 110385, Note_on_c, 0, 55, 0
1, 110385, Note_on_c, 5, 60, 0
1, 110385, Note_on_c, 0, 62, 0
1, 110385, Note_on_c, 6, 55, 0
1, 110385, Note_on_c, 7, 58, 0
1, 110385, Note_on_c, 7, 63, 0
1, 110385, Note_on_c, 7, 48, 0
1, 110385, Note_on_c, 7, 55, 0
1, 110385, Note_on_c, 6, 63, 0
1, 110385, Note_on_c, 11, 48, 0
1, 110385, Note_on_c, 13, 48, 0
1, 110385, Note_on_c, 13, 75, 0
1, 110385, Note_on_c, 0, 48, 0
1, 110385, Note_on_c, 13, 55, 0
1, 110385, Note_on_c, 13, 60, 0
1, 110385, Note_on_c, 12, 48, 0
1, 110385, Note_on_c, 6, 60, 0
1, 110385, Note_on_c, 13, 63, 0
1, 110393, Note_on_c, 2, 63, 79
1, 110393, Note_on_c, 9, 59, 70
1, 110395, Note_on_c, 13, 58, 81
1, 110396, Note_on_c, 1, 41, 98
1, 110396, Note_on_c, 6, 65, 80
1, 110396, Note_on_c, 13, 53, 79
1, 110397, Note_on_c, 0, 70, 82
1, 110397, Note_on_c, 0, 63, 82
1, 110397, Note_on_c, 0, 53, 84
1, 110397, Note_on_c, 5, 60, 79
1, 110397, Note_on_c, 5, 53, 78
1, 110397, Note_on_c, 7, 53, 76
1, 110397, Note_on_c, 7, 58, 76
1, 110397, Note_on_c, 9, 54, 48
1, 110397, Note_on_c, 9, 82, 63
1, 110398, Note_on_c, 2, 53, 77
1, 110398, Note_on_c, 5, 58, 79
1, 110400, Note_on_c, 7, 60, 77
1, 110400, Note_on_c, 9, 36, 115
1, 110401, Note_on_c, 0, 67, 80
1, 110402, Note_on_c, 6, 53, 67
1, 110402, Note_on_c, 13, 60, 79
1, 110403, Note_on_c, 0, 60, 84
1, 110403, Lyric_t, "you "
1, 110403, Note_on_c, 3, 84, 101
1, 110403, Note_on_c, 6, 60, 67
1, 110403, Note_on_c, 7, 65, 79
1, 110403, Note_on_c, 11, 41, 78
1, 110403, Note_on_c, 13, 65, 82
1, 110403, Note_on_c, 13, 75, 78
1, 110405, Note_on_c, 2, 58, 76
1, 110406, Note_on_c, 9, 59, 0
1, 110406, Note_on_c, 5, 63, 76
1, 110406, Note_on_c, 12, 41, 81
1, 110407, Note_on_c, 2, 60, 76
1, 110410, Note_on_c, 9, 82, 0
1, 110410, Note_on_c, 9, 54, 0
1, 110413, Note_on_c, 9, 36, 0
1, 110470, Note_on_c, 3, 84, 0
1, 110505, Pitch_bend_c, 3, 4971
1, 110514, Lyric_t, "e"
1, 110514, Note_on_c, 3, 86, 88
1, 110516, Note_on_c, 9, 54, 38
1, 110528, Note_on_c, 9, 82, 50
1, 110529, Note_on_c, 9, 54, 0
1, 110540, Pitch_bend_c, 3, 5241
1, 110541, Note_on_c, 9, 82, 0
1, 110550, Pitch_bend_c, 3, 5777
1, 110560, Pitch_bend_c, 3, 6314
1, 110570, Pitch_bend_c, 3, 6851
1, 110580, Pitch_bend_c, 3, 7387
1, 110590, Pitch_bend_c, 3, 7924
1, 110595, Pitch_bend_c, 3, 8192
1, 110615, Note_on_c, 1, 41, 0
1, 110625, Note_on_c, 13, 75, 0
1, 110632, Note_on_c, 9, 54, 49
1, 110637, Note_on_c, 13, 77, 78
1, 110640, Note_on_c, 9, 36, 115
1, 110642, Note_on_c, 1, 29, 98
1, 110643, Note_on_c, 9, 59, 49
1, 110645, Note_on_c, 9, 54, 0
1, 110645, Note_on_c, 9, 82, 32
1, 110653, Note_on_c, 9, 36, 0
1, 110656, Note_on_c, 9, 59, 0
1, 110658, Note_on_c, 9, 82, 0
1, 110745, Note_on_c, 3, 86, 0
1, 110756, Lyric_t, "ver "
1, 110756, Note_on_c, 3, 87, 93
1, 110763, Note_on_c, 9, 82, 50
1, 110763, Note_on_c, 9, 54, 34
1, 110776, Note_on_c, 9, 54, 0
1, 110776, Note_on_c, 9, 82, 0
1, 110845, Note_on_c, 3, 87, 0
1, 110855, Note_on_c, 1, 29, 0
1, 110865, Note_on_c, 13, 77, 0
1, 110865, Note_on_c, 2, 60, 0
1, 110865, Note_on_c, 12, 41, 0
1, 110865, Note_on_c, 5, 63, 0
1, 110865, Note_on_c, 2, 58, 0
1, 110865, Note_on_c, 13, 65, 0
1, 110865, Note_on_c, 11, 41, 0
1, 110865, Note_on_c, 7, 65, 0
1, 110865, Note_on_c, 6, 60, 0
1, 110865, Note_on_c, 0, 60, 0
1, 110865, Note_on_c, 13, 60, 0
1, 110865, Note_on_c, 6, 53, 0
1, 110865, Note_on_c, 0, 67, 0
1, 110865, Note_on_c, 7, 60, 0
1, 110865, Note_on_c, 5, 58, 0
1, 110865, Note_on_c, 2, 53, 0
1, 110865, Note_on_c, 7, 58, 0
1, 110865, Note_on_c, 7, 53, 0
1, 110865, Note_on_c, 5, 53, 0
1, 110865, Note_on_c, 5, 60, 0
1, 110865, Note_on_c, 0, 53, 0
1, 110865, Note_on_c, 0, 63, 0
1, 110865, Note_on_c, 0, 70, 0
1, 110865, Note_on_c, 13, 53, 0
1, 110865, Note_on_c, 6, 65, 0
1, 110865, Note_on_c, 13, 58, 0
1, 110865, Note_on_c, 2, 63, 0
1, 110865, Pitch_bend_c, 3, 4971
1, 110872, Note_on_c, 13, 54, 78
1, 110872, Note_on_c, 13, 79, 80
1, 110873, Note_on_c, 9, 59, 68
1, 110874, Note_on_c, 6, 57, 82
1, 110876, Note_on_c, 9, 54, 74
1, 110876, Note_on_c, 13, 69, 79
1, 110877, Note_on_c, 7, 66, 82
1, 110877, Note_on_c, 13, 57, 78
1, 110878, Note_on_c, 0, 69, 89
1, 110878, Note_on_c, 5, 50, 82
1, 110879, Note_on_c, 0, 62, 89
1, 110879, Note_on_c, 7, 50, 81
1, 110880, Note_on_c, 5, 66, 83
1, 110880, Note_on_c, 9, 40, 115
1, 110881, Note_on_c, 0, 72, 87
1, 110882, Note_on_c, 2, 57, 84
1, 110882, Note_on_c, 2, 50, 82
1, 110882, Note_on_c, 5, 60, 81
1, 110882, Note_on_c, 5, 57, 81
1, 110882, Note_on_c, 6, 60, 81
1, 110882, Note_on_c, 12, 42, 80
1, 110883, Note_on_c, 0, 66, 87
1, 110883, Note_on_c, 0, 54, 88
1, 110883, Lyric_t, "let "
1, 110883, Note_on_c, 1, 30, 104
1, 110883, Note_on_c, 2, 60, 84
1, 110883, Note_on_c, 3, 89, 107
1, 110883, Note_on_c, 11, 42, 78
1, 110883, Note_on_c, 13, 60, 81
1, 110884, Note_on_c, 9, 82, 63
1, 110885, Note_on_c, 6, 66, 82
1, 110886, Note_on_c, 9, 59, 0
1, 110887, Note_on_c, 2, 66, 83
1, 110887, Note_on_c, 7, 57, 85
1, 110888, Note_on_c, 7, 60, 82
1, 110889, Note_on_c, 9, 54, 0
1, 110893, Note_on_c, 9, 40, 0
1, 110897, Note_on_c, 9, 82, 0
1, 110900, Pitch_bend_c, 3, 5241
1, 110910, Pitch_bend_c, 3, 5777
1, 110920, Pitch_bend_c, 3, 6314
1, 110930, Pitch_bend_c, 3, 6851
1, 110940, Pitch_bend_c, 3, 7387
1, 110950, Pitch_bend_c, 3, 7924
1, 110955, Pitch_bend_c, 3, 8192
1, 110995, Note_on_c, 9, 82, 53
1, 111001, Note_on_c, 9, 54, 37
1, 111008, Note_on_c, 9, 82, 0
1, 111014, Note_on_c, 9, 54, 0
1, 111067, Note_on_c, 9, 47, 113
1, 111080, Note_on_c, 9, 47, 0
1, 111105, Note_on_c, 13, 79, 0
1, 111116, Note_on_c, 9, 54, 48
1, 111117, Note_on_c, 13, 81, 81
1, 111118, Note_on_c, 9, 59, 52
1, 111120, Note_on_c, 9, 40, 115
1, 111127, Note_on_c, 9, 82, 42
1, 111129, Note_on_c, 9, 54, 0
1, 111131, Note_on_c, 9, 59, 0
1, 111133, Note_on_c, 9, 40, 0
1, 111140, Note_on_c, 9, 82, 0
1, 111225, Note_on_c, 3, 89, 0
1, 111232, Note_on_c, 9, 82, 31
1, 111233, Note_on_c, 9, 47, 116
1, 111235, Note_on_c, 9, 54, 37
1, 111245, Note_on_c, 9, 82, 0
1, 111246, Note_on_c, 9, 47, 0
1, 111246, Lyric_t, "me "
1, 111246, Note_on_c, 3, 86, 89
1, 111248, Note_on_c, 9, 54, 0
1, 111298, Note_on_c, 9, 43, 113
1, 111311, Note_on_c, 9, 43, 0
1, 111335, Note_on_c, 1, 30, 0
1, 111345, Note_on_c, 3, 86, 0
1, 111345, Note_on_c, 13, 81, 0
1, 111345, Note_on_c, 7, 60, 0
1, 111345, Note_on_c, 7, 57, 0
1, 111345, Note_on_c, 2, 66, 0
1, 111345, Note_on_c, 6, 66, 0
1, 111345, Note_on_c, 13, 60, 0
1, 111345, Note_on_c, 11, 42, 0
1, 111345, Note_on_c, 2, 60, 0
1, 111345, Note_on_c, 0, 54, 0
1, 111345, Note_on_c, 0, 66, 0
1, 111345, Note_on_c, 12, 42, 0
1, 111345, Note_on_c, 6, 60, 0
1, 111345, Note_on_c, 5, 57, 0
1, 111345, Note_on_c, 5, 60, 0
1, 111345, Note_on_c, 2, 50, 0
1, 111345, Note_on_c, 2, 57, 0
1, 111345, Note_on_c, 0, 72, 0
1, 111345, Note_on_c, 5, 66, 0
1, 111345, Note_on_c, 7, 50, 0
1, 111345, Note_on_c, 0, 62, 0
1, 111345, Note_on_c, 5, 50, 0
1, 111345, Note_on_c, 0, 69, 0
1, 111345, Note_on_c, 13, 57, 0
1, 111345, Note_on_c, 7, 66, 0
1, 111345, Note_on_c, 13, 69, 0
1, 111345, Note_on_c, 6, 57, 0
1, 111345, Note_on_c, 13, 54, 0
1, 111352, Note_on_c, 9, 82, 66
1, 111352, Note_on_c, 13, 58, 79
1, 111353, Note_on_c, 5, 55, 84
1, 111353, Note_on_c, 11, 43, 81
1, 111354, Note_on_c, 2, 67, 84
1, 111354, Note_on_c, 12, 43, 80
1, 111356, Note_on_c, 2, 58, 82
1, 111357, Note_on_c, 7, 58, 85
1, 111357, Note_on_c, 7, 67, 83
1, 111357, Note_on_c, 13, 82, 82
1, 111357, Note_on_c, 13, 67, 82
1, 111358, Note_on_c, 0, 55, 88
1, 111359, Note_on_c, 0, 58, 86
1, 111359, Note_on_c, 7, 62, 86
1, 111359, Note_on_c, 9, 54, 48
1, 111360, Note_on_c, 5, 62, 85
1, 111360, Note_on_c, 6, 58, 83
1, 111360, Note_on_c, 9, 36, 115
1, 111360, Note_on_c, 9, 49, 90
1, 111361, Note_on_c, 0, 82, 100
1, 111361, Note_on_c, 0, 62, 90
1, 111361, Lyric_t, "go. "
1, 111361, Lyric_t, "\015"
1, 111361, Note_on_c, 2, 55, 86
1, 111361, Note_on_c, 3, 86, 105
1, 111362, Note_on_c, 0, 70, 100
1, 111362, Note_on_c, 6, 62, 83
1, 111362, Note_on_c, 13, 62, 80
1, 111363, Note_on_c, 5, 67, 86
1, 111363, Note_on_c, 13, 43, 79
1, 111364, Note_on_c, 5, 58, 82
1, 111365, Note_on_c, 9, 82, 0
1, 111365, Note_on_c, 6, 55, 82
1, 111366, Note_on_c, 1, 31, 104
1, 111366, Note_on_c, 2, 62, 86
1, 111372, Note_on_c, 9, 54, 0
1, 111373, Note_on_c, 9, 49, 0
1, 111373, Note_on_c, 9, 36, 0
1, 111430, Note_on_c, 3, 86, 0
1, 111446, Note_on_c, 3, 84, 89
1, 111480, Note_on_c, 9, 54, 38
1, 111484, Note_on_c, 9, 82, 50
1, 111493, Note_on_c, 9, 54, 0
1, 111497, Note_on_c, 9, 82, 0
1, 111510, Note_on_c, 3, 84, 0
1, 111521, Note_on_c, 3, 82, 89
1, 111585, Note_on_c, 2, 62, 0
1, 111585, Note_on_c, 5, 58, 0
1, 111585, Note_on_c, 5, 67, 0
1, 111585, Note_on_c, 0, 70, 0
1, 111585, Note_on_c, 2, 55, 0
1, 111585, Note_on_c, 0, 82, 0
1, 111585, Note_on_c, 5, 62, 0
1, 111585, Note_on_c, 13, 82, 0
1, 111585, Note_on_c, 2, 58, 0
1, 111585, Note_on_c, 2, 67, 0
1, 111585, Note_on_c, 5, 55, 0
1, 111594, Note_on_c, 5, 58, 72
1, 111595, Note_on_c, 2, 55, 70
1, 111597, Note_on_c, 5, 55, 73
1, 111598, Note_on_c, 9, 54, 46
1, 111598, Note_on_c, 9, 82, 30
1, 111599, Note_on_c, 0, 72, 90
1, 111600, Note_on_c, 9, 59, 49
1, 111601, Note_on_c, 2, 62, 71
1, 111602, Note_on_c, 6, 50, 76
1, 111603, Note_on_c, 0, 84, 88
1, 111603, Note_on_c, 5, 62, 72
1, 111604, Note_on_c, 2, 58, 73
1, 111605, Note_on_c, 5, 67, 70
1, 111606, Note_on_c, 13, 84, 81
1, 111607, Note_on_c, 2, 67, 72
1, 111607, Note_on_c, 7, 55, 71
1, 111611, Note_on_c, 9, 82, 0
1, 111611, Note_on_c, 9, 54, 0
1, 111613, Note_on_c, 9, 59, 0
1, 111716, Note_on_c, 9, 54, 35
1, 111720, Note_on_c, 9, 36, 90
1, 111723, Note_on_c, 9, 82, 46
1, 111729, Note_on_c, 9, 54, 0
1, 111733, Note_on_c, 9, 36, 0
1, 111736, Note_on_c, 9, 82, 0
1, 111815, Note_on_c, 1, 31, 0
1, 111825, Note_on_c, 2, 67, 0
1, 111825, Note_on_c, 13, 84, 0
1, 111825, Note_on_c, 5, 67, 0
1, 111825, Note_on_c, 2, 58, 0
1, 111825, Note_on_c, 5, 62, 0
1, 111825, Note_on_c, 0, 84, 0
1, 111825, Note_on_c, 2, 62, 0
1, 111825, Note_on_c, 0, 72, 0
1, 111825, Note_on_c, 5, 55, 0
1, 111825, Note_on_c, 2, 55, 0
1, 111825, Note_on_c, 5, 58, 0
1, 111825, Note_on_c, 6, 55, 0
1, 111825, Note_on_c, 6, 62, 0
1, 111825, Note_on_c, 0, 62, 0
1, 111825, Note_on_c, 6, 58, 0
1, 111825, Note_on_c, 7, 62, 0
1, 111825, Note_on_c, 0, 58, 0
1, 111825, Note_on_c, 0, 55, 0
1, 111825, Note_on_c, 7, 67, 0
1, 111825, Note_on_c, 7, 58, 0
1, 111833, Note_on_c, 7, 58, 80
1, 111834, Note_on_c, 2, 62, 79
1, 111835, Note_on_c, 5, 67, 81
1, 111836, Note_on_c, 6, 58, 82
1, 111837, Note_on_c, 7, 67, 82
1, 111837, Note_on_c, 9, 82, 66
1, 111837, Note_on_c, 13, 81, 81
1, 111838, Note_on_c, 2, 67, 79
1, 111838, Note_on_c, 7, 62, 78
1, 111839, Note_on_c, 0, 58, 83
1, 111840, Note_on_c, 0, 55, 84
1, 111840, Note_on_c, 0, 81, 96
1, 111840, Note_on_c, 5, 62, 82
1, 111840, Note_on_c, 9, 57, 90
1, 111840, Note_on_c, 9, 40, 115
1, 111841, Note_on_c, 0, 62, 83
1, 111841, Note_on_c, 0, 69, 95
1, 111842, Note_on_c, 1, 43, 100
1, 111842, Note_on_c, 2, 58, 78
1, 111843, Note_on_c, 5, 58, 80
1, 111845, Note_on_c, 6, 62, 81
1, 111845, Note_on_c, 6, 55, 80
1, 111845, Note_on_c, 9, 54, 77
1, 111847, Note_on_c, 5, 55, 81
1, 111848, Note_on_c, 2, 55, 80
1, 111850, Note_on_c, 9, 82, 0
1, 111853, Note_on_c, 9, 40, 0
1, 111853, Note_on_c, 9, 57, 0
1, 111858, Note_on_c, 9, 54, 0
1, 111945, Note_on_c, 3, 82, 0
1, 111956, Note_on_c, 3, 84, 88
1, 111960, Note_on_c, 9, 54, 38
1, 111965, Note_on_c, 9, 82, 46
1, 111973, Note_on_c, 9, 54, 0
1, 111978, Note_on_c, 9, 82, 0
1, 112020, Control_c, 11, 101, 0
1, 112025, Note_on_c, 11, 43, 0
1, 112025, Control_c, 11, 100, 0
1, 112030, Control_c, 11, 6, 7
1, 112055, Note_on_c, 1, 43, 0
1, 112065, Note_on_c, 3, 84, 0
1, 112065, Note_on_c, 2, 55, 0
1, 112065, Note_on_c, 5, 55, 0
1, 112065, Note_on_c, 5, 58, 0
1, 112065, Note_on_c, 2, 58, 0
1, 112065, Note_on_c, 0, 69, 0
1, 112065, Note_on_c, 5, 62, 0
1, 112065, Note_on_c, 0, 81, 0
1, 112065, Note_on_c, 2, 67, 0
1, 112065, Note_on_c, 13, 81, 0
1, 112065, Note_on_c, 5, 67, 0
1, 112065, Note_on_c, 2, 62, 0
1, 112065, Note_on_c, 7, 55, 0
1, 112065, Pitch_bend_c, 11, 0
1, 112072, Note_on_c, 1, 36, 96
1, 112077, Note_on_c, 0, 70, 85
1, 112077, Note_on_c, 2, 58, 72
1, 112077, Note_on_c, 11, 60, 100
1, 112078, Note_on_c, 5, 58, 70
1, 112078, Note_on_c, 9, 82, 32
1, 112079, Note_on_c, 9, 54, 49
1, 112079, Note_on_c, 13, 82, 80
1, 112080, Note_on_c, 0, 82, 85
1, 112080, Note_on_c, 7, 55, 69
1, 112083, Note_on_c, 3, 86, 92
1, 112083, Note_on_c, 9, 59, 51
1, 112084, Note_on_c, 2, 55, 72
1, 112084, Note_on_c, 5, 55, 70
1, 112085, Note_on_c, 2, 62, 70
1, 112087, Note_on_c, 2, 67, 68
1, 112087, Note_on_c, 5, 62, 70
1, 112087, Note_on_c, 5, 67, 69
1, 112091, Note_on_c, 9, 82, 0
1, 112092, Note_on_c, 9, 54, 0
1, 112096, Note_on_c, 9, 59, 0
1, 112125, Pitch_bend_c, 11, 358
1, 112135, Pitch_bend_c, 11, 1070
1, 112145, Pitch_bend_c, 11, 1782
1, 112155, Pitch_bend_c, 11, 2494
1, 112165, Pitch_bend_c, 11, 3207
1, 112175, Note_on_c, 1, 36, 0
1, 112175, Pitch_bend_c, 11, 3919
1, 112185, Note_on_c, 3, 86, 0
1, 112185, Pitch_bend_c, 11, 4631
1, 112192, Note_on_c, 9, 82, 46
1, 112195, Pitch_bend_c, 11, 5343
1, 112200, Note_on_c, 9, 36, 90
1, 112205, Note_on_c, 9, 82, 0
1, 112205, Note_on_c, 1, 38, 102
1, 112205, Pitch_bend_c, 11, 6056
1, 112207, Note_on_c, 9, 54, 37
1, 112213, Note_on_c, 9, 36, 0
1, 112215, Pitch_bend_c, 11, 6768
1, 112220, Note_on_c, 9, 54, 0
1, 112225, Pitch_bend_c, 11, 7480
1, 112235, Pitch_bend_c, 11, 8192
1, 112295, Note_on_c, 1, 38, 0
1, 112305, Note_on_c, 5, 67, 0
1, 112305, Note_on_c, 5, 62, 0
1, 112305, Note_on_c, 2, 67, 0
1, 112305, Note_on_c, 2, 62, 0
1, 112305, Note_on_c, 5, 55, 0
1, 112305, Note_on_c, 2, 55, 0
1, 112305, Note_on_c, 7, 55, 0
1, 112305, Note_on_c, 0, 82, 0
1, 112305, Note_on_c, 13, 82, 0
1, 112305, Note_on_c, 5, 58, 0
1, 112305, Note_on_c, 11, 60, 0
1, 112305, Note_on_c, 2, 58, 0
1, 112305, Note_on_c, 0, 70, 0
1, 112305, Note_on_c, 6, 55, 0
1, 112305, Note_on_c, 6, 62, 0
1, 112305, Note_on_c, 0, 62, 0
1, 112305, Note_on_c, 0, 55, 0
1, 112305, Note_on_c, 0, 58, 0
1, 112305, Note_on_c, 7, 62, 0
1, 112305, Note_on_c, 7, 67, 0
1, 112305, Note_on_c, 6, 58, 0
1, 112305, Note_on_c, 7, 58, 0
1, 112305, Note_on_c, 6, 50, 0
1, 112305, Note_on_c, 13, 43, 0
1, 112305, Note_on_c, 13, 62, 0
1, 112305, Note_on_c, 13, 67, 0
1, 112305, Note_on_c, 12, 43, 0
1, 112305, Note_on_c, 13, 58, 0
1, 112312, Note_on_c, 7, 60, 82
1, 112312, Note_on_c, 7, 67, 79
1, 112312, Note_on_c, 13, 55, 79
1, 112313, Note_on_c, 13, 60, 79
1, 112316, Note_on_c, 6, 64, 82
1, 112317, Note_on_c, 0, 60, 86
1, 112317, Note_on_c, 5, 55, 79
1, 112317, Note_on_c, 9, 59, 71
1, 112317, Note_on_c, 9, 54, 50
1, 112318, Note_on_c, 0, 82, 95
1, 112318, Note_on_c, 2, 60, 79
1, 112318, Note_on_c, 9, 82, 63
1, 112319, Note_on_c, 0, 70, 93
1, 112319, Note_on_c, 12, 48, 80
1, 112320, Note_on_c, 2, 64, 82
1, 112320, Note_on_c, 5, 64, 82
1, 112320, Note_on_c, 9, 36, 115
1, 112321, Note_on_c, 7, 64, 79
1, 112322, Note_on_c, 0, 55, 82
1, 112322, Note_on_c, 2, 48, 79
1, 112322, Note_on_c, 2, 55, 79
1, 112322, Note_on_c, 5, 48, 81
1, 112322, Note_on_c, 13, 64, 78
1, 112323, Note_on_c, 0, 64, 85
1, 112323, Note_on_c, 6, 55, 80
1, 112323, Note_on_c, 6, 60, 80
1, 112323, Note_on_c, 13, 82, 79
1, 112324, Note_on_c, 5, 60, 81
1, 112324, Note_on_c, 11, 64, 102
1, 112326, Note_on_c, 1, 36, 100
1, 112326, Note_on_c, 13, 48, 80
1, 112330, Note_on_c, 9, 54, 0
1, 112330, Note_on_c, 9, 59, 0
1, 112331, Note_on_c, 9, 82, 0
1, 112333, Note_on_c, 9, 36, 0
1, 112436, Note_on_c, 9, 54, 35
1, 112440, Note_on_c, 9, 40, 115
1, 112442, Note_on_c, 9, 82, 46
1, 112449, Note_on_c, 9, 54, 0
1, 112453, Note_on_c, 9, 40, 0
1, 112455, Note_on_c, 9, 82, 0
1, 112545, Note_on_c, 5, 60, 0
1, 112545, Note_on_c, 13, 82, 0
1, 112545, Note_on_c, 5, 48, 0
1, 112545, Note_on_c, 2, 55, 0
1, 112545, Note_on_c, 2, 48, 0
1, 112545, Note_on_c, 5, 64, 0
1, 112545, Note_on_c, 2, 64, 0
1, 112545, Note_on_c, 0, 70, 0
1, 112545, Note_on_c, 2, 60, 0
1, 112545, Note_on_c, 0, 82, 0
1, 112545, Note_on_c, 5, 55, 0
1, 112553, Note_on_c, 5, 60, 68
1, 112555, Note_on_c, 6, 52, 74
1, 112556, Note_on_c, 7, 55, 71
1, 112557, Note_on_c, 5, 48, 72
1, 112558, Note_on_c, 2, 48, 70
1, 112560, Control_c, 11, 1, 64
1, 112561, Note_on_c, 0, 84, 86
1, 112561, Note_on_c, 0, 72, 88
1, 112561, Note_on_c, 9, 82, 32
1, 112562, Note_on_c, 9, 59, 49
1, 112563, Note_on_c, 5, 55, 70
1, 112564, Note_on_c, 2, 55, 72
1, 112566, Note_on_c, 2, 64, 72
1, 112566, Note_on_c, 9, 54, 50
1, 112567, Note_on_c, 2, 60, 70
1, 112567, Note_on_c, 5, 64, 70
1, 112567, Note_on_c, 13, 84, 79
1, 112574, Note_on_c, 9, 82, 0
1, 112575, Note_on_c, 9, 59, 0
1, 112579, Note_on_c, 9, 54, 0
1, 112677, Note_on_c, 9, 54, 36
1, 112678, Note_on_c, 9, 82, 50
1, 112680, Note_on_c, 9, 36, 90
1, 112690, Note_on_c, 9, 54, 0
1, 112691, Note_on_c, 9, 82, 0
1, 112693, Note_on_c, 9, 36, 0
1, 112775, Note_on_c, 1, 36, 0
1, 112785, Note_on_c, 13, 84, 0
1, 112785, Note_on_c, 5, 64, 0
1, 112785, Note_on_c, 2, 60, 0
1, 112785, Note_on_c, 2, 64, 0
1, 112785, Note_on_c, 2, 55, 0
1, 112785, Note_on_c, 5, 55, 0
1, 112785, Note_on_c, 0, 72, 0
1, 112785, Note_on_c, 0, 84, 0
1, 112785, Note_on_c, 2, 48, 0
1, 112785, Note_on_c, 5, 48, 0
1, 112785, Note_on_c, 5, 60, 0
1, 112785, Note_on_c, 6, 60, 0
1, 112785, Note_on_c, 6, 55, 0
1, 112785, Note_on_c, 0, 64, 0
1, 112785, Note_on_c, 0, 55, 0
1, 112785, Note_on_c, 7, 64, 0
1, 112785, Note_on_c, 0, 60, 0
1, 112785, Note_on_c, 6, 64, 0
1, 112785, Note_on_c, 7, 67, 0
1, 112785, Note_on_c, 7, 60, 0
1, 112792, Note_on_c, 2, 55, 77
1, 112793, Note_on_c, 6, 55, 80
1, 112793, Note_on_c, 6, 60, 80
1, 112794, Note_on_c, 9, 82, 62
1, 112797, Note_on_c, 0, 60, 81
1, 112797, Note_on_c, 5, 48, 77
1, 112797, Note_on_c, 5, 55, 80
1, 112798, Note_on_c, 2, 64, 79
1, 112798, Note_on_c, 7, 67, 81
1, 112798, Note_on_c, 13, 86, 79
1, 112799, Note_on_c, 0, 55, 80
1, 112800, Note_on_c, 0, 74, 95
1, 112800, Note_on_c, 0, 86, 92
1, 112800, Note_on_c, 9, 40, 115
1, 112801, Note_on_c, 9, 59, 71
1, 112802, Note_on_c, 2, 48, 81
1, 112802, Note_on_c, 2, 60, 79
1, 112802, Note_on_c, 7, 64, 78
1, 112802, Note_on_c, 9, 54, 77
1, 112803, Note_on_c, 0, 64, 81
1, 112803, Note_on_c, 5, 64, 81
1, 112804, Note_on_c, 7, 60, 78
1, 112805, Note_on_c, 5, 60, 79
1, 112807, Note_on_c, 9, 82, 0
1, 112808, Note_on_c, 1, 36, 98
1, 112808, Note_on_c, 6, 64, 80
1, 112813, Note_on_c, 9, 40, 0
1, 112814, Note_on_c, 9, 59, 0
1, 112815, Note_on_c, 9, 54, 0
1, 112913, Note_on_c, 9, 43, 89
1, 112918, Note_on_c, 9, 54, 34
1, 112920, Note_on_c, 9, 36, 90
1, 112926, Note_on_c, 9, 43, 0
1, 112927, Note_on_c, 9, 82, 52
1, 112931, Note_on_c, 9, 54, 0
1, 112933, Note_on_c, 9, 36, 0
1, 112940, Note_on_c, 9, 82, 0
1, 113015, Note_on_c, 1, 36, 0
1, 113025, Note_on_c, 5, 60, 0
1, 113025, Note_on_c, 5, 64, 0
1, 113025, Note_on_c, 2, 60, 0
1, 113025, Note_on_c, 2, 48, 0
1, 113025, Note_on_c, 2, 64, 0
1, 113025, Note_on_c, 5, 55, 0
1, 113025, Note_on_c, 5, 48, 0
1, 113025, Note_on_c, 2, 55, 0
1, 113025, Note_on_c, 7, 55, 0
1, 113032, Note_on_c, 2, 64, 72
1, 113033, Note_on_c, 9, 43, 116
1, 113034, Note_on_c, 2, 55, 70
1, 113034, Note_on_c, 9, 54, 50
1, 113036, Note_on_c, 2, 60, 72
1, 113037, Note_on_c, 1, 38, 96
1, 113039, Note_on_c, 2, 48, 71
1, 113039, Note_on_c, 5, 48, 72
1, 113040, Control_c, 11, 1, 0
1, 113041, Note_on_c, 7, 55, 70
1, 113041, Note_on_c, 9, 47, 117
1, 113043, Note_on_c, 5, 60, 72
1, 113043, Note_on_c, 9, 82, 45
1, 113046, Note_on_c, 9, 43, 0
1, 113046, Note_on_c, 5, 55, 71
1, 113047, Note_on_c, 9, 54, 0
1, 113047, Note_on_c, 5, 64, 71
1, 113054, Note_on_c, 9, 47, 0
1, 113056, Note_on_c, 9, 82, 0
1, 113130, Pitch_bend_c, 11, 7834
1, 113140, Pitch_bend_c, 11, 7122
1, 113150, Pitch_bend_c, 11, 6410
1, 113152, Note_on_c, 9, 54, 34
1, 113157, Lyric_t, "Hold "
1, 113157, Note_on_c, 3, 89, 97
1, 113160, Note_on_c, 9, 36, 90
1, 113160, Pitch_bend_c, 11, 5698
1, 113162, Note_on_c, 9, 82, 31
1, 113165, Note_on_c, 9, 54, 0
1, 113170, Pitch_bend_c, 11, 4985
1, 113173, Note_on_c, 9, 36, 0
1, 113175, Note_on_c, 9, 82, 0
1, 113180, Pitch_bend_c, 11, 4273
1, 113190, Pitch_bend_c, 11, 3561
1, 113200, Pitch_bend_c, 11, 2849
1, 113210, Pitch_bend_c, 11, 2136
1, 113220, Pitch_bend_c, 11, 1424
1, 113225, Note_on_c, 11, 64, 0
1, 113230, Note_on_c, 3, 89, 0
1, 113230, Pitch_bend_c, 11, 712
1, 113240, Pitch_bend_c, 11, 0
1, 113250, Pitch_bend_c, 11, 8192
1, 113255, Note_on_c, 1, 38, 0
1, 113260, Control_c, 11, 6, 2
1, 113265, Note_on_c, 5, 64, 0
1, 113265, Note_on_c, 5, 55, 0
1, 113265, Note_on_c, 5, 60, 0
1, 113265, Note_on_c, 7, 55, 0
1, 113265, Note_on_c, 5, 48, 0
1, 113265, Note_on_c, 2, 48, 0
1, 113265, Note_on_c, 2, 60, 0
1, 113265, Note_on_c, 2, 55, 0
1, 113265, Note_on_c, 2, 64, 0
1, 113265, Note_on_c, 6, 64, 0
1, 113265, Note_on_c, 7, 60, 0
1, 113265, Note_on_c, 0, 64, 0
1, 113265, Note_on_c, 7, 64, 0
1, 113265, Note_on_c, 0, 86, 0
1, 113265, Note_on_c, 0, 74, 0
1, 113265, Note_on_c, 0, 55, 0
1, 113265, Note_on_c, 13, 86, 0
1, 113265, Note_on_c, 7, 67, 0
1, 113265, Note_on_c, 0, 60, 0
1, 113265, Note_on_c, 6, 60, 0
1, 113265, Note_on_c, 6, 55, 0
1, 113265, Note_on_c, 6, 52, 0
1, 113265, Note_on_c, 13, 48, 0
1, 113265, Note_on_c, 13, 64, 0
1, 113265, Note_on_c, 12, 48, 0
1, 113265, Note_on_c, 13, 60, 0
1, 113265, Note_on_c, 13, 55, 0
1, 113265, Pitch_bend_c, 3, 4971
1, 113265, Control_c, 11, 101, 127
1, 113270, Control_c, 11, 100, 127
1, 113272, Note_on_c, 7, 58, 81
1, 113274, Note_on_c, 2, 58, 82
1, 113274, Note_on_c, 5, 58, 82
1, 113275, Note_on_c, 2, 63, 82
1, 113276, Note_on_c, 12, 51, 78
1, 113277, Note_on_c, 0, 74, 98
1, 113277, Note_on_c, 0, 86, 99
1, 113277, Note_on_c, 5, 51, 84
1, 113277, Note_on_c, 7, 62, 81
1, 113278, Note_on_c, 2, 51, 83
1, 113278, Note_on_c, 5, 67, 84
1, 113278, Note_on_c, 6, 62, 82
1, 113278, Note_on_c, 9, 54, 46
1, 113278, Note_on_c, 13, 58, 82
1, 113278, Note_on_c, 13, 79, 82
1, 113280, Note_on_c, 0, 58, 85
1, 113280, Note_on_c, 6, 58, 82
1, 113280, Note_on_c, 9, 36, 115
1, 113280, Note_on_c, 9, 82, 62
1, 113280, Note_on_c, 9, 49, 90
1, 113281, Note_on_c, 0, 55, 86
1, 113281, Note_on_c, 13, 67, 81
1, 113282, Lyric_t, "on "
1, 113282, Note_on_c, 3, 86, 108
1, 113282, Note_on_c, 13, 62, 79
1, 113283, Note_on_c, 0, 51, 87
1, 113283, Note_on_c, 0, 62, 88
1, 113283, Note_on_c, 2, 67, 84
1, 113283, Note_on_c, 7, 55, 81
1, 113283, Note_on_c, 13, 51, 82
1, 113288, Note_on_c, 1, 39, 104
1, 113288, Note_on_c, 5, 63, 84
1, 113288, Note_on_c, 7, 51, 83
1, 113288, Note_on_c, 11, 51, 78
1, 113291, Note_on_c, 9, 54, 0
1, 113293, Note_on_c, 9, 49, 0
1, 113293, Note_on_c, 9, 82, 0
1, 113293, Note_on_c, 9, 36, 0
1, 113300, Pitch_bend_c, 3, 5241
1, 113310, Pitch_bend_c, 3, 5777
1, 113320, Pitch_bend_c, 3, 6314
1, 113330, Pitch_bend_c, 3, 6851
1, 113340, Pitch_bend_c, 3, 7387
1, 113350, Pitch_bend_c, 3, 7924
1, 113355, Pitch_bend_c, 3, 8192
1, 113397, Note_on_c, 9, 54, 34
1, 113403, Note_on_c, 9, 82, 46
1, 113410, Note_on_c, 9, 54, 0
1, 113416, Note_on_c, 9, 82, 0
1, 113515, Note_on_c, 6, 51, 76
1, 113518, Note_on_c, 9, 82, 31
1, 113525, Note_on_c, 9, 54, 48
1, 113526, Note_on_c, 9, 59, 51
1, 113531, Note_on_c, 9, 82, 0
1, 113538, Note_on_c, 9, 54, 0
1, 113539, Note_on_c, 9, 59, 0
1, 113625, Note_on_c, 3, 86, 0
1, 113638, Note_on_c, 9, 82, 49
1, 113643, Note_on_c, 9, 54, 37
1, 113646, Lyric_t, "to "
1, 113646, Note_on_c, 3, 84, 93
1, 113651, Note_on_c, 9, 82, 0
1, 113656, Note_on_c, 9, 54, 0
1, 113735, Note_on_c, 1, 39, 0
1, 113745, Note_on_c, 3, 84, 0
1, 113745, Note_on_c, 7, 51, 0
1, 113745, Note_on_c, 5, 63, 0
1, 113745, Note_on_c, 7, 55, 0
1, 113745, Note_on_c, 2, 67, 0
1, 113745, Note_on_c, 0, 62, 0
1, 113745, Note_on_c, 0, 51, 0
1, 113745, Note_on_c, 0, 55, 0
1, 113745, Note_on_c, 0, 58, 0
1, 113745, Note_on_c, 5, 67, 0
1, 113745, Note_on_c, 2, 51, 0
1, 113745, Note_on_c, 7, 62, 0
1, 113745, Note_on_c, 5, 51, 0
1, 113745, Note_on_c, 2, 63, 0
1, 113745, Note_on_c, 5, 58, 0
1, 113745, Note_on_c, 2, 58, 0
1, 113745, Note_on_c, 7, 58, 0
1, 113753, Note_on_c, 6, 55, 90
1, 113755, Note_on_c, 7, 55, 82
1, 113756, Note_on_c, 9, 54, 76
1, 113757, Note_on_c, 0, 62, 85
1, 113757, Note_on_c, 9, 59, 71
1, 113758, Note_on_c, 0, 51, 84
1, 113758, Note_on_c, 5, 63, 83
1, 113758, Note_on_c, 5, 58, 83
1, 113760, Note_on_c, 0, 55, 86
1, 113760, Note_on_c, 2, 58, 80
1, 113760, Note_on_c, 9, 40, 115
1, 113761, Lyric_t, "me. "
1, 113761, Lyric_t, "\015"
1, 113761, Note_on_c, 3, 82, 101
1, 113761, Note_on_c, 7, 62, 81
1, 113761, Note_on_c, 7, 51, 82
1, 113762, Note_on_c, 0, 58, 87
1, 113762, Note_on_c, 5, 67, 81
1, 113762, Note_on_c, 9, 82, 62
1, 113763, Note_on_c, 2, 67, 81
1, 113765, Note_on_c, 2, 51, 79
1, 113766, Note_on_c, 2, 63, 81
1, 113766, Note_on_c, 5, 51, 81
1, 113768, Note_on_c, 7, 58, 82
1, 113769, Note_on_c, 9, 54, 0
1, 113770, Note_on_c, 9, 59, 0
1, 113773, Note_on_c, 9, 40, 0
1, 113775, Note_on_c, 9, 82, 0
1, 113873, Note_on_c, 1, 34, 91
1, 113878, Note_on_c, 9, 54, 38
1, 113880, Note_on_c, 9, 82, 47
1, 113891, Note_on_c, 9, 54, 0
1, 113893, Note_on_c, 9, 82, 0
1, 113975, Note_on_c, 1, 34, 0
1, 113985, Note_on_c, 5, 51, 0
1, 113985, Note_on_c, 2, 63, 0
1, 113985, Note_on_c, 2, 51, 0
1, 113985, Note_on_c, 2, 67, 0
1, 113985, Note_on_c, 5, 67, 0
1, 113985, Note_on_c, 2, 58, 0
1, 113985, Note_on_c, 5, 58, 0
1, 113985, Note_on_c, 5, 63, 0
1, 113992, Note_on_c, 5, 58, 73
1, 113996, Note_on_c, 2, 51, 72
1, 113997, Note_on_c, 1, 39, 96
1, 113997, Note_on_c, 5, 67, 71
1, 113998, Note_on_c, 5, 63, 73
1, 114001, Note_on_c, 2, 58, 73
1, 114002, Note_on_c, 5, 51, 70
1, 114004, Note_on_c, 9, 54, 50
1, 114005, Note_on_c, 2, 63, 70
1, 114006, Note_on_c, 9, 59, 48
1, 114006, Note_on_c, 9, 82, 32
1, 114008, Note_on_c, 2, 67, 73
1, 114017, Note_on_c, 9, 54, 0
1, 114019, Note_on_c, 9, 82, 0
1, 114019, Note_on_c, 9, 59, 0
1, 114095, Note_on_c, 1, 39, 0
1, 114115, Note_on_c, 9, 54, 35
1, 114120, Note_on_c, 9, 36, 90
1, 114125, Note_on_c, 9, 82, 49
1, 114127, Note_on_c, 1, 34, 102
1, 114128, Note_on_c, 9, 54, 0
1, 114133, Note_on_c, 9, 36, 0
1, 114138, Note_on_c, 9, 82, 0
1, 114150, Note_on_c, 1, 34, 0
1, 114225, Note_on_c, 2, 67, 0
1, 114225, Note_on_c, 2, 63, 0
1, 114225, Note_on_c, 5, 51, 0
1, 114225, Note_on_c, 2, 58, 0
1, 114225, Note_on_c, 5, 63, 0
1, 114225, Note_on_c, 5, 67, 0
1, 114225, Note_on_c, 2, 51, 0
1, 114225, Note_on_c, 5, 58, 0
1, 114225, Note_on_c, 7, 58, 0
1, 114225, Note_on_c, 0, 58, 0
1, 114225, Note_on_c, 7, 51, 0
1, 114225, Note_on_c, 7, 62, 0
1, 114225, Note_on_c, 3, 82, 0
1, 114225, Note_on_c, 0, 55, 0
1, 114225, Note_on_c, 0, 51, 0
1, 114225, Note_on_c, 0, 62, 0
1, 114225, Note_on_c, 7, 55, 0
1, 114225, Note_on_c, 6, 55, 0
1, 114225, Note_on_c, 6, 51, 0
1, 114225, Note_on_c, 11, 51, 0
1, 114225, Note_on_c, 13, 51, 0
1, 114225, Note_on_c, 13, 62, 0
1, 114225, Note_on_c, 13, 67, 0
1, 114225, Note_on_c, 6, 58, 0
1, 114225, Note_on_c, 13, 79, 0
1, 114225, Note_on_c, 13, 58, 0
1, 114225, Note_on_c, 6, 62, 0
1, 114225, Note_on_c, 12, 51, 0
1, 114233, Note_on_c, 6, 60, 65
1, 114234, Note_on_c, 12, 41, 81
1, 114234, Note_on_c, 13, 58, 79
1, 114235, Note_on_c, 13, 53, 78
1, 114236, Note_on_c, 5, 60, 77
1, 114236, Note_on_c, 9, 54, 47
1, 114237, Note_on_c, 6, 53, 64
1, 114237, Note_on_c, 13, 65, 79
1, 114238, Note_on_c, 0, 53, 83
1, 114238, Note_on_c, 11, 53, 82
1, 114238, Note_on_c, 13, 60, 79
1, 114239, Note_on_c, 0, 63, 81
1, 114239, Note_on_c, 0, 58, 83
1, 114239, Note_on_c, 2, 63, 76
1, 114239, Note_on_c, 7, 60, 80
1, 114240, Note_on_c, 5, 58, 76
1, 114240, Note_on_c, 5, 63, 78
1, 114240, Note_on_c, 7, 65, 79
1, 114240, Note_on_c, 9, 36, 115
1, 114241, Note_on_c, 7, 58, 80
1, 114242, Note_on_c, 0, 60, 84
1, 114242, Note_on_c, 6, 65, 80
1, 114243, Note_on_c, 7, 53, 80
1, 114244, Note_on_c, 5, 53, 79
1, 114245, Note_on_c, 9, 59, 71
1, 114246, Note_on_c, 1, 41, 101
1, 114246, Note_on_c, 2, 60, 80
1, 114246, Note_on_c, 9, 82, 63
1, 114247, Note_on_c, 2, 58, 80
1, 114248, Note_on_c, 2, 53, 78
1, 114249, Note_on_c, 9, 54, 0
1, 114253, Note_on_c, 9, 36, 0
1, 114258, Note_on_c, 9, 59, 0
1, 114259, Note_on_c, 9, 82, 0
1, 114335, Note_on_c, 1, 41, 0
1, 114356, Note_on_c, 9, 54, 36
1, 114360, Note_on_c, 9, 36, 90
1, 114362, Note_on_c, 1, 36, 92
1, 114363, Lyric_t, "It's "
1, 114363, Note_on_c, 3, 86, 89
1, 114363, Note_on_c, 9, 82, 50
1, 114369, Note_on_c, 9, 54, 0
1, 114373, Note_on_c, 9, 36, 0
1, 114376, Note_on_c, 9, 82, 0
1, 114455, Note_on_c, 1, 36, 0
1, 114465, Note_on_c, 3, 86, 0
1, 114465, Note_on_c, 0, 60, 0
1, 114472, Note_on_c, 9, 59, 48
1, 114478, Note_on_c, 1, 29, 99
1, 114478, Note_on_c, 9, 54, 50
1, 114480, Note_on_c, 9, 36, 90
1, 114482, Note_on_c, 9, 82, 34
1, 114483, Note_on_c, 0, 60, 74
1, 114485, Note_on_c, 9, 59, 0
1, 114491, Note_on_c, 9, 54, 0
1, 114493, Note_on_c, 9, 36, 0
1, 114495, Note_on_c, 9, 82, 0
1, 114565, Lyric_t, "gon"
1, 114565, Note_on_c, 3, 86, 96
1, 114593, Note_on_c, 9, 82, 48
1, 114597, Note_on_c, 9, 54, 35
1, 114600, Note_on_c, 9, 36, 90
1, 114606, Note_on_c, 9, 82, 0
1, 114610, Note_on_c, 9, 54, 0
1, 114613, Note_on_c, 9, 36, 0
1, 114630, Note_on_c, 3, 86, 0
1, 114641, Lyric_t, "na "
1, 114641, Note_on_c, 3, 87, 95
1, 114690, Note_on_c, 3, 87, 0
1, 114695, Note_on_c, 1, 29, 0
1, 114705, Note_on_c, 0, 60, 0
1, 114705, Note_on_c, 2, 53, 0
1, 114705, Note_on_c, 2, 58, 0
1, 114705, Note_on_c, 2, 60, 0
1, 114705, Note_on_c, 5, 53, 0
1, 114705, Note_on_c, 7, 53, 0
1, 114705, Note_on_c, 6, 65, 0
1, 114705, Note_on_c, 7, 58, 0
1, 114705, Note_on_c, 7, 65, 0
1, 114705, Note_on_c, 5, 63, 0
1, 114705, Note_on_c, 5, 58, 0
1, 114705, Note_on_c, 7, 60, 0
1, 114705, Note_on_c, 2, 63, 0
1, 114705, Note_on_c, 0, 58, 0
1, 114705, Note_on_c, 0, 63, 0
1, 114705, Note_on_c, 13, 60, 0
1, 114705, Note_on_c, 11, 53, 0
1, 114705, Note_on_c, 0, 53, 0
1, 114705, Note_on_c, 13, 65, 0
1, 114705, Note_on_c, 6, 53, 0
1, 114705, Note_on_c, 5, 60, 0
1, 114705, Note_on_c, 13, 53, 0
1, 114705, Note_on_c, 13, 58, 0
1, 114705, Note_on_c, 12, 41, 0
1, 114705, Note_on_c, 6, 60, 0
1, 114705, Note_on_c, 0, 86, 0
1, 114705, Note_on_c, 0, 74, 0
1, 114705, Pitch_bend_c, 3, 4971
1, 114712, Note_on_c, 5, 66, 84
1, 114712, Note_on_c, 7, 57, 85
1, 114713, Note_on_c, 5, 50, 83
1, 114713, Note_on_c, 6, 66, 83
1, 114716, Note_on_c, 6, 57, 82
1, 114716, Note_on_c, 9, 59, 68
1, 114717, Note_on_c, 0, 72, 89
1, 114717, Note_on_c, 0, 69, 85
1, 114717, Note_on_c, 1, 30, 102
1, 114717, Note_on_c, 2, 60, 85
1, 114717, Note_on_c, 2, 50, 82
1, 114717, Note_on_c, 9, 54, 73
1, 114717, Note_on_c, 13, 54, 79
1, 114718, Note_on_c, 7, 60, 84
1, 114718, Note_on_c, 11, 54, 78
1, 114718, Note_on_c, 13, 60, 78
1, 114719, Note_on_c, 0, 54, 87
1, 114719, Note_on_c, 9, 82, 63
1, 114720, Note_on_c, 6, 60, 82
1, 114720, Note_on_c, 9, 40, 115
1, 114721, Note_on_c, 0, 62, 86
1, 114722, Note_on_c, 5, 57, 85
1, 114723, Note_on_c, 0, 66, 88
1, 114723, Note_on_c, 2, 66, 84
1, 114723, Note_on_c, 7, 66, 82
1, 114723, Note_on_c, 12, 42, 82
1, 114724, Note_on_c, 13, 69, 81
1, 114725, Note_on_c, 7, 50, 82
1, 114726, Lyric_t, "be "
1, 114726, Note_on_c, 3, 89, 105
1, 114726, Note_on_c, 13, 57, 81
1, 114728, Note_on_c, 2, 57, 82
1, 114728, Note_on_c, 5, 60, 82
1, 114728, Note_on_c, 13, 84, 81
1, 114729, Note_on_c, 9, 59, 0
1, 114730, Note_on_c, 9, 54, 0
1, 114732, Note_on_c, 9, 82, 0
1, 114733, Note_on_c, 9, 40, 0
1, 114740, Pitch_bend_c, 3, 5241
1, 114750, Pitch_bend_c, 3, 5777
1, 114760, Pitch_bend_c, 3, 6314
1, 114770, Pitch_bend_c, 3, 6851
1, 114780, Pitch_bend_c, 3, 7387
1, 114790, Pitch_bend_c, 3, 7924
1, 114795, Pitch_bend_c, 3, 8192
1, 114845, Note_on_c, 9, 54, 34
1, 114848, Note_on_c, 9, 82, 55
1, 114858, Note_on_c, 9, 54, 0
1, 114861, Note_on_c, 9, 82, 0
1, 114960, Note_on_c, 9, 36, 115
1, 114965, Note_on_c, 9, 82, 43
1, 114966, Note_on_c, 9, 54, 49
1, 114968, Note_on_c, 9, 59, 50
1, 114973, Note_on_c, 9, 36, 0
1, 114978, Note_on_c, 9, 82, 0
1, 114979, Note_on_c, 9, 54, 0
1, 114981, Note_on_c, 9, 59, 0
1, 115077, Note_on_c, 9, 82, 31
1, 115080, Note_on_c, 9, 40, 115
1, 115083, Note_on_c, 9, 54, 34
1, 115090, Note_on_c, 9, 82, 0
1, 115093, Note_on_c, 9, 40, 0
1, 115096, Note_on_c, 9, 54, 0
1, 115140, Note_on_c, 9, 40, 100
1, 115153, Note_on_c, 9, 40, 0
1, 115175, Note_on_c, 1, 30, 0
1, 115185, Note_on_c, 13, 84, 0
1, 115185, Note_on_c, 5, 60, 0
1, 115185, Note_on_c, 2, 57, 0
1, 115185, Note_on_c, 13, 57, 0
1, 115185, Note_on_c, 3, 89, 0
1, 115185, Note_on_c, 7, 50, 0
1, 115185, Note_on_c, 13, 69, 0
1, 115185, Note_on_c, 12, 42, 0
1, 115185, Note_on_c, 7, 66, 0
1, 115185, Note_on_c, 2, 66, 0
1, 115185, Note_on_c, 0, 66, 0
1, 115185, Note_on_c, 5, 57, 0
1, 115185, Note_on_c, 0, 62, 0
1, 115185, Note_on_c, 6, 60, 0
1, 115185, Note_on_c, 0, 54, 0
1, 115185, Note_on_c, 13, 60, 0
1, 115185, Note_on_c, 11, 54, 0
1, 115185, Note_on_c, 7, 60, 0
1, 115185, Note_on_c, 13, 54, 0
1, 115185, Note_on_c, 2, 50, 0
1, 115185, Note_on_c, 2, 60, 0
1, 115185, Note_on_c, 0, 69, 0
1, 115185, Note_on_c, 0, 72, 0
1, 115185, Note_on_c, 6, 57, 0
1, 115185, Note_on_c, 6, 66, 0
1, 115185, Note_on_c, 5, 50, 0
1, 115185, Note_on_c, 7, 57, 0
1, 115185, Note_on_c, 5, 66, 0
1, 115192, Note_on_c, 5, 58, 85
1, 115193, Note_on_c, 5, 62, 85
1, 115193, Note_on_c, 6, 58, 81
1, 115193, Note_on_c, 7, 58, 85
1, 115193, Note_on_c, 7, 62, 84
1, 115197, Note_on_c, 0, 86, 100
1, 115197, Note_on_c, 2, 55, 85
1, 115197, Note_on_c, 13, 67, 81
1, 115198, Note_on_c, 6, 55, 84
1, 115198, Note_on_c, 11, 62, 102
1, 115198, Note_on_c, 13, 43, 81
1, 115200, Note_on_c, 2, 58, 83
1, 115200, Note_on_c, 9, 36, 115
1, 115200, Note_on_c, 9, 82, 62
1, 115200, Note_on_c, 9, 57, 75
1, 115201, Note_on_c, 5, 67, 82
1, 115202, Note_on_c, 0, 58, 90
1, 115202, Note_on_c, 0, 55, 88
1, 115202, Note_on_c, 2, 62, 86
1, 115202, Note_on_c, 6, 62, 80
1, 115203, Note_on_c, 0, 74, 98
1, 115203, Note_on_c, 0, 62, 89
1, 115203, Note_on_c, 2, 67, 83
1, 115203, Note_on_c, 9, 54, 48
1, 115204, Note_on_c, 12, 43, 82
1, 115205, Note_on_c, 5, 55, 86
1, 115205, Note_on_c, 13, 62, 81
1, 115205, Note_on_c, 13, 86, 80
1, 115207, Note_on_c, 13, 58, 82
1, 115208, Note_on_c, 1, 31, 103
1, 115208, Note_on_c, 7, 67, 82
1, 115213, Note_on_c, 9, 57, 0
1, 115213, Note_on_c, 9, 82, 0
1, 115213, Note_on_c, 9, 36, 0
1, 115216, Note_on_c, 9, 54, 0
1, 115315, Note_on_c, 9, 82, 47
1, 115317, Lyric_t, "al"
1, 115317, Note_on_c, 3, 86, 91
1, 115317, Note_on_c, 9, 54, 36
1, 115328, Note_on_c, 9, 82, 0
1, 115330, Note_on_c, 9, 54, 0
1, 115425, Note_on_c, 3, 86, 0
1, 115425, Note_on_c, 13, 86, 0
1, 115425, Note_on_c, 5, 55, 0
1, 115425, Note_on_c, 2, 67, 0
1, 115425, Note_on_c, 0, 74, 0
1, 115425, Note_on_c, 2, 62, 0
1, 115425, Note_on_c, 5, 67, 0
1, 115425, Note_on_c, 2, 58, 0
1, 115425, Note_on_c, 11, 62, 0
1, 115425, Note_on_c, 2, 55, 0
1, 115425, Note_on_c, 0, 86, 0
1, 115425, Note_on_c, 5, 62, 0
1, 115425, Note_on_c, 5, 58, 0
1, 115433, Note_on_c, 9, 54, 49
1, 115437, Note_on_c, 2, 55, 70
1, 115437, Note_on_c, 2, 58, 72
1, 115437, Note_on_c, 5, 58, 70
1, 115438, Note_on_c, 7, 55, 72
1, 115439, Note_on_c, 9, 82, 34
1, 115440, Lyric_t, "right. "
1, 115440, Lyric_t, "\015"
1, 115440, Note_on_c, 3, 86, 94
1, 115441, Note_on_c, 0, 87, 89
1, 115441, Note_on_c, 5, 67, 73
1, 115442, Note_on_c, 2, 67, 74
1, 115442, Note_on_c, 5, 62, 70
1, 115443, Note_on_c, 0, 75, 88
1, 115443, Note_on_c, 2, 62, 73
1, 115443, Note_on_c, 11, 63, 98
1, 115444, Note_on_c, 5, 55, 73
1, 115444, Note_on_c, 9, 59, 52
1, 115446, Note_on_c, 9, 54, 0
1, 115447, Note_on_c, 13, 87, 79
1, 115448, Note_on_c, 6, 50, 77
1, 115452, Note_on_c, 9, 82, 0
1, 115457, Note_on_c, 9, 59, 0
1, 115510, Note_on_c, 3, 86, 0
1, 115521, Note_on_c, 3, 84, 91
1, 115555, Note_on_c, 9, 54, 36
1, 115560, Note_on_c, 9, 36, 90
1, 115568, Note_on_c, 9, 54, 0
1, 115568, Note_on_c, 9, 82, 48
1, 115573, Note_on_c, 9, 36, 0
1, 115581, Note_on_c, 9, 82, 0
1, 115590, Note_on_c, 3, 84, 0
1, 115598, Note_on_c, 3, 82, 92
1, 115655, Note_on_c, 1, 31, 0
1, 115665, Note_on_c, 13, 87, 0
1, 115665, Note_on_c, 5, 55, 0
1, 115665, Note_on_c, 11, 63, 0
1, 115665, Note_on_c, 2, 62, 0
1, 115665, Note_on_c, 0, 75, 0
1, 115665, Note_on_c, 5, 62, 0
1, 115665, Note_on_c, 2, 67, 0
1, 115665, Note_on_c, 5, 67, 0
1, 115665, Note_on_c, 0, 87, 0
1, 115665, Note_on_c, 5, 58, 0
1, 115665, Note_on_c, 2, 58, 0
1, 115665, Note_on_c, 2, 55, 0
1, 115665, Note_on_c, 7, 67, 0
1, 115665, Note_on_c, 0, 62, 0
1, 115665, Note_on_c, 6, 62, 0
1, 115665, Note_on_c, 0, 55, 0
1, 115665, Note_on_c, 0, 58, 0
1, 115665, Note_on_c, 6, 55, 0
1, 115665, Note_on_c, 7, 62, 0
1, 115665, Note_on_c, 7, 58, 0
1, 115665, Note_on_c, 6, 58, 0
1, 115673, Note_on_c, 2, 58, 80
1, 115673, Note_on_c, 2, 67, 80
1, 115675, Note_on_c, 5, 62, 82
1, 115677, Note_on_c, 0, 62, 85
1, 115677, Note_on_c, 7, 62, 79
1, 115677, Note_on_c, 13, 84, 78
1, 115679, Note_on_c, 7, 67, 79
1, 115680, Note_on_c, 0, 84, 95
1, 115680, Note_on_c, 6, 62, 81
1, 115680, Note_on_c, 9, 49, 90
1, 115680, Note_on_c, 9, 40, 115
1, 115681, Note_on_c, 0, 55, 82
1, 115681, Note_on_c, 0, 72, 94
1, 115681, Note_on_c, 7, 58, 78
1, 115682, Note_on_c, 0, 58, 83
1, 115682, Note_on_c, 2, 55, 80
1, 115682, Note_on_c, 2, 62, 82
1, 115682, Note_on_c, 5, 58, 78
1, 115682, Note_on_c, 6, 58, 82
1, 115682, Note_on_c, 9, 54, 77
1, 115682, Note_on_c, 11, 60, 101
1, 115684, Note_on_c, 5, 67, 82
1, 115684, Note_on_c, 6, 55, 81
1, 115685, Note_on_c, 9, 82, 62
1, 115687, Note_on_c, 5, 55, 81
1, 115688, Note_on_c, 1, 43, 102
1, 115693, Note_on_c, 9, 40, 0
1, 115693, Note_on_c, 9, 49, 0
1, 115695, Note_on_c, 9, 54, 0
1, 115698, Note_on_c, 9, 82, 0
1, 115796, Note_on_c, 9, 54, 38
1, 115801, Note_on_c, 9, 82, 47
1, 115809, Note_on_c, 9, 54, 0
1, 115814, Note_on_c, 9, 82, 0
1, 115905, Note_on_c, 5, 55, 0
1, 115905, Note_on_c, 5, 67, 0
1, 115905, Note_on_c, 11, 60, 0
1, 115905, Note_on_c, 5, 58, 0
1, 115905, Note_on_c, 2, 62, 0
1, 115905, Note_on_c, 2, 55, 0
1, 115905, Note_on_c, 0, 72, 0
1, 115905, Note_on_c, 0, 84, 0
1, 115905, Note_on_c, 13, 84, 0
1, 115905, Note_on_c, 5, 62, 0
1, 115905, Note_on_c, 2, 67, 0
1, 115905, Note_on_c, 2, 58, 0
1, 115905, Note_on_c, 3, 82, 0
1, 115905, Note_on_c, 7, 55, 0
1, 115913, Note_on_c, 5, 55, 70
1, 115916, Note_on_c, 2, 58, 72
1, 115917, Note_on_c, 5, 58, 72
1, 115917, Note_on_c, 9, 82, 31
1, 115919, Note_on_c, 9, 54, 48
1, 115920, Note_on_c, 0, 86, 84
1, 115920, Note_on_c, 9, 40, 115
1, 115920, Note_on_c, 11, 62, 99
1, 115921, Note_on_c, 5, 67, 72
1, 115922, Note_on_c, 3, 84, 92
1, 115922, Note_on_c, 9, 59, 49
1, 115923, Note_on_c, 0, 74, 83
1, 115923, Note_on_c, 2, 62, 68
1, 115923, Note_on_c, 7, 55, 71
1, 115924, Note_on_c, 13, 86, 78
1, 115927, Note_on_c, 2, 67, 68
1, 115927, Note_on_c, 5, 62, 71
1, 115928, Note_on_c, 2, 55, 69
1, 115930, Note_on_c, 9, 82, 0
1, 115932, Note_on_c, 9, 54, 0
1, 115933, Note_on_c, 9, 40, 0
1, 115935, Note_on_c, 9, 59, 0
1, 116025, Note_on_c, 3, 84, 0
1, 116037, Note_on_c, 9, 82, 50
1, 116040, Note_on_c, 9, 36, 90
1, 116043, Note_on_c, 9, 54, 37
1, 116046, Note_on_c, 3, 86, 99
1, 116050, Note_on_c, 9, 82, 0
1, 116053, Note_on_c, 9, 36, 0
1, 116056, Note_on_c, 9, 54, 0
1, 116135, Note_on_c, 1, 43, 0
1, 116145, Note_on_c, 3, 86, 0
1, 116145, Note_on_c, 2, 55, 0
1, 116145, Note_on_c, 5, 62, 0
1, 116145, Note_on_c, 2, 67, 0
1, 116145, Note_on_c, 13, 86, 0
1, 116145, Note_on_c, 7, 55, 0
1, 116145, Note_on_c, 2, 62, 0
1, 116145, Note_on_c, 0, 74, 0
1, 116145, Note_on_c, 5, 67, 0
1, 116145, Note_on_c, 11, 62, 0
1, 116145, Note_on_c, 0, 86, 0
1, 116145, Note_on_c, 5, 58, 0
1, 116145, Note_on_c, 2, 58, 0
1, 116145, Note_on_c, 5, 55, 0
1, 116145, Note_on_c, 6, 55, 0
1, 116145, Note_on_c, 6, 58, 0
1, 116145, Note_on_c, 0, 58, 0
1, 116145, Note_on_c, 7, 58, 0
1, 116145, Note_on_c, 0, 55, 0
1, 116145, Note_on_c, 6, 62, 0
1, 116145, Note_on_c, 7, 67, 0
1, 116145, Note_on_c, 7, 62, 0
1, 116145, Note_on_c, 0, 62, 0
1, 116145, Note_on_c, 6, 50, 0
1, 116145, Note_on_c, 13, 58, 0
1, 116145, Note_on_c, 13, 62, 0
1, 116145, Note_on_c, 12, 43, 0
1, 116145, Note_on_c, 13, 43, 0
1, 116145, Note_on_c, 13, 67, 0
1, 116152, Note_on_c, 2, 55, 78
1, 116152, Note_on_c, 6, 60, 79
1, 116153, Note_on_c, 2, 60, 79
1, 116153, Note_on_c, 5, 48, 78
1, 116153, Note_on_c, 5, 55, 82
1, 116154, Note_on_c, 1, 36, 102
1, 116155, Note_on_c, 2, 48, 78
1, 116155, Note_on_c, 9, 82, 64
1, 116157, Note_on_c, 0, 64, 82
1, 116157, Note_on_c, 0, 74, 96
1, 116157, Note_on_c, 5, 64, 79
1, 116157, Note_on_c, 7, 60, 81
1, 116157, Note_on_c, 13, 60, 69
1, 116158, Note_on_c, 7, 67, 79
1, 116158, Note_on_c, 13, 64, 69
1, 116159, Note_on_c, 0, 86, 94
1, 116160, Note_on_c, 0, 55, 85
1, 116160, Note_on_c, 9, 36, 115
1, 116161, Note_on_c, 0, 60, 84
1, 116162, Note_on_c, 6, 55, 82
1, 116162, Note_on_c, 6, 64, 82
1, 116162, Note_on_c, 9, 54, 47
1, 116163, Note_on_c, 2, 64, 79
1, 116163, Note_on_c, 13, 48, 68
1, 116164, Note_on_c, 12, 48, 79
1, 116164, Note_on_c, 13, 86, 78
1, 116165, Note_on_c, 13, 55, 72
1, 116166, Note_on_c, 11, 62, 101
1, 116167, Note_on_c, 5, 60, 79
1, 116167, Note_on_c, 7, 64, 79
1, 116168, Note_on_c, 9, 82, 0
1, 116168, Note_on_c, 9, 59, 72
1, 116173, Note_on_c, 9, 36, 0
1, 116175, Note_on_c, 9, 54, 0
1, 116181, Note_on_c, 9, 59, 0
1, 116278, Note_on_c, 9, 54, 37
1, 116280, Note_on_c, 9, 40, 115
1, 116285, Note_on_c, 9, 82, 48
1, 116291, Note_on_c, 9, 54, 0
1, 116293, Note_on_c, 9, 40, 0
1, 116298, Note_on_c, 9, 82, 0
1, 116385, Note_on_c, 5, 60, 0
1, 116385, Note_on_c, 11, 62, 0
1, 116385, Note_on_c, 13, 86, 0
1, 116385, Note_on_c, 2, 64, 0
1, 116385, Note_on_c, 0, 60, 0
1, 116385, Note_on_c, 0, 55, 0
1, 116385, Note_on_c, 0, 86, 0
1, 116385, Note_on_c, 5, 64, 0
1, 116385, Note_on_c, 0, 74, 0
1, 116385, Note_on_c, 0, 64, 0
1, 116385, Note_on_c, 2, 48, 0
1, 116385, Note_on_c, 5, 55, 0
1, 116385, Note_on_c, 5, 48, 0
1, 116385, Note_on_c, 2, 60, 0
1, 116385, Note_on_c, 2, 55, 0
1, 116394, Note_on_c, 6, 52, 75
1, 116395, Note_on_c, 5, 55, 68
1, 116396, Note_on_c, 5, 64, 72
1, 116397, Note_on_c, 0, 77, 87
1, 116397, Note_on_c, 2, 48, 70
1, 116397, Note_on_c, 5, 48, 72
1, 116397, Note_on_c, 9, 54, 48
1, 116398, Note_on_c, 0, 64, 74
1, 116398, Note_on_c, 0, 60, 76
1, 116399, Note_on_c, 13, 89, 78
1, 116400, Note_on_c, 2, 55, 71
1, 116400, Note_on_c, 2, 60, 72
1, 116400, Note_on_c, 9, 36, 115
1, 116401, Note_on_c, 9, 82, 34
1, 116402, Note_on_c, 2, 64, 69
1, 116402, Note_on_c, 5, 60, 70
1, 116403, Note_on_c, 0, 55, 73
1, 116403, Note_on_c, 0, 89, 88
1, 116403, Note_on_c, 7, 55, 68
1, 116403, Note_on_c, 11, 65, 101
1, 116407, Note_on_c, 9, 59, 52
1, 116410, Note_on_c, 9, 54, 0
1, 116413, Note_on_c, 9, 36, 0
1, 116414, Note_on_c, 9, 82, 0
1, 116420, Note_on_c, 9, 59, 0
1, 116513, Note_on_c, 9, 82, 46
1, 116515, Note_on_c, 9, 54, 37
1, 116526, Note_on_c, 9, 82, 0
1, 116528, Note_on_c, 9, 54, 0
1, 116528, Note_on_c, 9, 50, 115
1, 116541, Note_on_c, 9, 50, 0
1, 116615, Note_on_c, 1, 36, 0
1, 116625, Note_on_c, 11, 65, 0
1, 116625, Note_on_c, 0, 89, 0
1, 116625, Note_on_c, 0, 55, 0
1, 116625, Note_on_c, 5, 60, 0
1, 116625, Note_on_c, 2, 64, 0
1, 116625, Note_on_c, 2, 60, 0
1, 116625, Note_on_c, 2, 55, 0
1, 116625, Note_on_c, 13, 89, 0
1, 116625, Note_on_c, 0, 60, 0
1, 116625, Note_on_c, 0, 64, 0
1, 116625, Note_on_c, 5, 48, 0
1, 116625, Note_on_c, 2, 48, 0
1, 116625, Note_on_c, 0, 77, 0
1, 116625, Note_on_c, 5, 64, 0
1, 116625, Note_on_c, 5, 55, 0
1, 116625, Note_on_c, 7, 64, 0
1, 116625, Note_on_c, 6, 64, 0
1, 116625, Note_on_c, 6, 55, 0
1, 116625, Note_on_c, 7, 67, 0
1, 116625, Note_on_c, 7, 60, 0
1, 116625, Note_on_c, 6, 60, 0
1, 116632, Note_on_c, 2, 60, 78
1, 116632, Note_on_c, 6, 55, 81
1, 116633, Note_on_c, 7, 67, 78
1, 116634, Note_on_c, 5, 64, 81
1, 116635, Note_on_c, 5, 48, 77
1, 116638, Note_on_c, 1, 36, 99
1, 116638, Note_on_c, 2, 48, 81
1, 116638, Note_on_c, 6, 60, 77
1, 116638, Note_on_c, 9, 82, 64
1, 116640, Note_on_c, 0, 79, 95
1, 116640, Note_on_c, 2, 64, 78
1, 116640, Note_on_c, 9, 36, 115
1, 116641, Note_on_c, 0, 60, 80
1, 116641, Note_on_c, 0, 64, 83
1, 116641, Note_on_c, 0, 91, 95
1, 116642, Note_on_c, 0, 55, 83
1, 116642, Note_on_c, 13, 91, 82
1, 116643, Note_on_c, 2, 55, 79
1, 116643, Note_on_c, 7, 64, 78
1, 116643, Note_on_c, 9, 54, 76
1, 116643, Note_on_c, 11, 67, 98
1, 116644, Note_on_c, 7, 60, 80
1, 116645, Note_on_c, 5, 60, 77
1, 116645, Note_on_c, 6, 64, 81
1, 116647, Note_on_c, 5, 55, 80
1, 116648, Note_on_c, 9, 59, 70
1, 116651, Note_on_c, 9, 82, 0
1, 116653, Note_on_c, 9, 36, 0
1, 116656, Note_on_c, 9, 54, 0
1, 116661, Note_on_c, 9, 59, 0
1, 116735, Note_on_c, 1, 36, 0
1, 116758, Note_on_c, 9, 82, 54
1, 116760, Note_on_c, 9, 36, 115
1, 116760, Control_c, 11, 1, 64
1, 116768, Note_on_c, 1, 43, 95
1, 116768, Note_on_c, 9, 54, 38
1, 116771, Note_on_c, 9, 82, 0
1, 116773, Note_on_c, 9, 36, 0
1, 116781, Note_on_c, 9, 54, 0
1, 116855, Note_on_c, 1, 43, 0
1, 116865, Note_on_c, 5, 55, 0
1, 116865, Note_on_c, 5, 60, 0
1, 116865, Note_on_c, 2, 55, 0
1, 116865, Note_on_c, 2, 64, 0
1, 116865, Note_on_c, 2, 48, 0
1, 116865, Note_on_c, 5, 48, 0
1, 116865, Note_on_c, 5, 64, 0
1, 116865, Note_on_c, 2, 60, 0
1, 116865, Note_on_c, 7, 55, 0
1, 116872, Note_on_c, 5, 48, 68
1, 116874, Note_on_c, 2, 48, 70
1, 116874, Note_on_c, 5, 60, 70
1, 116876, Note_on_c, 9, 54, 49
1, 116878, Note_on_c, 7, 55, 70
1, 116878, Note_on_c, 9, 82, 44
1, 116879, Note_on_c, 2, 60, 71
1, 116880, Note_on_c, 2, 64, 71
1, 116880, Note_on_c, 2, 55, 70
1, 116880, Note_on_c, 9, 40, 115
1, 116880, Note_on_c, 9, 49, 90
1, 116881, Note_on_c, 5, 64, 70
1, 116882, Note_on_c, 1, 46, 95
1, 116888, Note_on_c, 5, 55, 70
1, 116889, Note_on_c, 9, 54, 0
1, 116891, Note_on_c, 9, 82, 0
1, 116893, Note_on_c, 9, 49, 0
1, 116893, Note_on_c, 9, 40, 0
1, 116975, Note_on_c, 1, 46, 0
1, 116985, Control_c, 12, 11, 123
1, 116993, Note_on_c, 9, 82, 34
1, 116997, Lyric_t, "Hold "
1, 116997, Note_on_c, 3, 84, 93
1, 117001, Note_on_c, 9, 54, 35
1, 117005, Note_on_c, 1, 48, 95
1, 117006, Note_on_c, 9, 82, 0
1, 117010, Control_c, 11, 11, 125
1, 117014, Note_on_c, 9, 54, 0
1, 117030, Control_c, 11, 11, 123
1, 117050, Control_c, 11, 11, 121
1, 117070, Note_on_c, 3, 84, 0
1, 117070, Control_c, 11, 11, 119
1, 117095, Note_on_c, 1, 48, 0
1, 117095, Control_c, 11, 11, 117
1, 117105, Note_on_c, 5, 55, 0
1, 117105, Note_on_c, 5, 64, 0
1, 117105, Note_on_c, 2, 55, 0
1, 117105, Note_on_c, 2, 64, 0
1, 117105, Note_on_c, 2, 60, 0
1, 117105, Note_on_c, 7, 55, 0
1, 117105, Note_on_c, 5, 60, 0
1, 117105, Note_on_c, 2, 48, 0
1, 117105, Note_on_c, 5, 48, 0
1, 117105, Note_on_c, 6, 64, 0
1, 117105, Note_on_c, 7, 60, 0
1, 117105, Note_on_c, 7, 64, 0
1, 117105, Note_on_c, 13, 91, 0
1, 117105, Note_on_c, 0, 55, 0
1, 117105, Note_on_c, 0, 91, 0
1, 117105, Note_on_c, 0, 64, 0
1, 117105, Note_on_c, 0, 60, 0
1, 117105, Note_on_c, 0, 79, 0
1, 117105, Note_on_c, 6, 60, 0
1, 117105, Note_on_c, 7, 67, 0
1, 117105, Note_on_c, 6, 55, 0
1, 117105, Note_on_c, 6, 52, 0
1, 117105, Note_on_c, 13, 55, 0
1, 117105, Note_on_c, 12, 48, 0
1, 117105, Note_on_c, 13, 48, 0
1, 117105, Note_on_c, 13, 64, 0
1, 117105, Note_on_c, 13, 60, 0
1, 117105, Pitch_bend_c, 3, 4971
1, 117112, Note_on_c, 6, 51, 76
1, 117115, Note_on_c, 2, 63, 81
1, 117115, Control_c, 11, 11, 115
1, 117115, Note_on_c, 12, 48, 78
1, 117116, Note_on_c, 9, 82, 66
1, 117117, Note_on_c, 0, 55, 73
1, 117117, Note_on_c, 13, 48, 62
1, 117118, Note_on_c, 0, 48, 74
1, 117118, Note_on_c, 2, 55, 81
1, 117118, Note_on_c, 6, 55, 76
1, 117118, Note_on_c, 7, 55, 84
1, 117118, Note_on_c, 7, 51, 84
1, 117118, Note_on_c, 7, 58, 84
1, 117119, Note_on_c, 0, 60, 73
1, 117119, Note_on_c, 6, 58, 76
1, 117119, Note_on_c, 13, 55, 62
1, 117119, Note_on_c, 13, 79, 73
1, 117120, Note_on_c, 0, 63, 71
1, 117120, Note_on_c, 9, 36, 115
1, 117120, Note_on_c, 9, 57, 70
1, 117122, Note_on_c, 0, 58, 75
1, 117122, Note_on_c, 1, 48, 101
1, 117122, Note_on_c, 5, 63, 81
1, 117122, Note_on_c, 9, 54, 46
1, 117122, Note_on_c, 13, 60, 60
1, 117123, Note_on_c, 5, 67, 85
1, 117123, Note_on_c, 7, 60, 81
1, 117123, Note_on_c, 13, 63, 61
1, 117124, Note_on_c, 2, 60, 82
1, 117124, Note_on_c, 5, 55, 84
1, 117126, Note_on_c, 2, 67, 85
1, 117126, Note_on_c, 5, 60, 81
1, 117127, Note_on_c, 6, 60, 78
1, 117128, Lyric_t, "on "
1, 117128, Note_on_c, 3, 86, 104
1, 117129, Note_on_c, 9, 82, 0
1, 117130, Control_c, 12, 11, 119
1, 117133, Note_on_c, 9, 57, 0
1, 117133, Note_on_c, 9, 36, 0
1, 117135, Note_on_c, 9, 54, 0
1, 117135, Control_c, 11, 11, 113
1, 117140, Pitch_bend_c, 3, 5241
1, 117150, Pitch_bend_c, 3, 5777
1, 117155, Control_c, 11, 11, 111
1, 117160, Pitch_bend_c, 3, 6314
1, 117170, Pitch_bend_c, 3, 6851
1, 117180, Pitch_bend_c, 3, 7387
1, 117180, Control_c, 11, 11, 109
1, 117190, Pitch_bend_c, 3, 7924
1, 117195, Pitch_bend_c, 3, 8192
1, 117200, Control_c, 11, 11, 107
1, 117220, Control_c, 11, 11, 105
1, 117240, Control_c, 11, 11, 103
1, 117265, Control_c, 11, 11, 101
1, 117275, Control_c, 12, 11, 115
1, 117285, Control_c, 11, 11, 99
1, 117305, Control_c, 11, 11, 97
1, 117325, Control_c, 11, 11, 95
1, 117350, Control_c, 11, 11, 93
1, 117356, Note_on_c, 9, 59, 49
1, 117363, Note_on_c, 9, 82, 32
1, 117368, Note_on_c, 9, 54, 46
1, 117369, Note_on_c, 9, 59, 0
1, 117370, Control_c, 11, 11, 91
1, 117376, Note_on_c, 9, 82, 0
1, 117381, Note_on_c, 9, 54, 0
1, 117390, Control_c, 11, 11, 89
1, 117410, Control_c, 11, 11, 87
1, 117425, Control_c, 12, 11, 111
1, 117435, Control_c, 11, 11, 85
1, 117455, Control_c, 11, 11, 83
1, 117465, Note_on_c, 3, 86, 0
1, 117475, Control_c, 11, 11, 81
1, 117478, Lyric_t, "to "
1, 117478, Note_on_c, 3, 84, 79
1, 117480, Control_c, 11, 1, 0
1, 117495, Control_c, 11, 11, 79
1, 117520, Control_c, 11, 11, 77
1, 117540, Control_c, 11, 11, 75
1, 117560, Control_c, 11, 11, 73
1, 117570, Control_c, 12, 11, 107
1, 117580, Control_c, 11, 11, 71
1, 117585, Note_on_c, 3, 84, 0
1, 117585, Note_on_c, 13, 79, 0
1, 117585, Note_on_c, 11, 67, 0
1, 117592, Note_on_c, 9, 54, 76
1, 117595, Note_on_c, 9, 82, 63
1, 117600, Note_on_c, 9, 40, 115
1, 117601, Note_on_c, 13, 82, 68
1, 117603, Note_on_c, 9, 59, 71
1, 117605, Note_on_c, 9, 54, 0
1, 117605, Lyric_t, "me "
1, 117605, Note_on_c, 3, 82, 90
1, 117608, Note_on_c, 9, 82, 0
1, 117613, Note_on_c, 9, 40, 0
1, 117616, Note_on_c, 9, 59, 0
1, 117715, Control_c, 12, 11, 103
1, 117765, Control_c, 11, 11, 127
1, 117825, Note_on_c, 0, 58, 0
1, 117837, Note_on_c, 9, 47, 90
1, 117838, Note_on_c, 9, 54, 46
1, 117839, Note_on_c, 0, 58, 61
1, 117841, Note_on_c, 9, 82, 31
1, 117842, Note_on_c, 0, 70, 63
1, 117846, Note_on_c, 9, 59, 48
1, 117850, Note_on_c, 9, 47, 0
1, 117851, Note_on_c, 9, 54, 0
1, 117854, Note_on_c, 9, 82, 0
1, 117859, Note_on_c, 9, 59, 0
1, 117860, Control_c, 12, 11, 99
1, 117967, Note_on_c, 9, 47, 90
1, 117968, Note_on_c, 9, 82, 48
1, 117980, Note_on_c, 9, 47, 0
1, 117981, Note_on_c, 9, 82, 0
1, 118005, Control_c, 12, 11, 95
1, 118055, Note_on_c, 1, 48, 0
1, 118065, Note_on_c, 0, 70, 0
1, 118065, Note_on_c, 0, 58, 0
1, 118065, Note_on_c, 13, 82, 0
1, 118065, Note_on_c, 6, 60, 0
1, 118065, Note_on_c, 5, 60, 0
1, 118065, Note_on_c, 2, 67, 0
1, 118065, Note_on_c, 5, 55, 0
1, 118065, Note_on_c, 2, 60, 0
1, 118065, Note_on_c, 13, 63, 0
1, 118065, Note_on_c, 7, 60, 0
1, 118065, Note_on_c, 5, 67, 0
1, 118065, Note_on_c, 13, 60, 0
1, 118065, Note_on_c, 5, 63, 0
1, 118065, Note_on_c, 0, 63, 0
1, 118065, Note_on_c, 13, 55, 0
1, 118065, Note_on_c, 6, 58, 0
1, 118065, Note_on_c, 0, 60, 0
1, 118065, Note_on_c, 7, 58, 0
1, 118065, Note_on_c, 7, 51, 0
1, 118065, Note_on_c, 7, 55, 0
1, 118065, Note_on_c, 6, 55, 0
1, 118065, Note_on_c, 2, 55, 0
1, 118065, Note_on_c, 0, 48, 0
1, 118065, Note_on_c, 13, 48, 0
1, 118065, Note_on_c, 0, 55, 0
1, 118065, Note_on_c, 12, 48, 0
1, 118065, Note_on_c, 2, 63, 0
1, 118065, Note_on_c, 6, 51, 0
1, 118072, Note_on_c, 6, 51, 67
1, 118072, Note_on_c, 9, 54, 49
1, 118075, Note_on_c, 5, 60, 80
1, 118075, Note_on_c, 13, 63, 51
1, 118077, Note_on_c, 0, 60, 67
1, 118077, Note_on_c, 12, 53, 71
1, 118078, Note_on_c, 6, 55, 68
1, 118078, Note_on_c, 7, 53, 78
1, 118078, Note_on_c, 9, 82, 64
1, 118078, Note_on_c, 13, 79, 63
1, 118078, Note_on_c, 13, 58, 50
1, 118079, Note_on_c, 0, 63, 69
1, 118079, Note_on_c, 1, 41, 88
1, 118079, Note_on_c, 2, 65, 80
1, 118079, Note_on_c, 7, 57, 80
1, 118080, Note_on_c, 0, 67, 70
1, 118080, Note_on_c, 2, 58, 78
1, 118080, Note_on_c, 5, 58, 76
1, 118080, Note_on_c, 7, 60, 77
1, 118080, Note_on_c, 9, 49, 70
1, 118080, Note_on_c, 9, 36, 115
1, 118081, Note_on_c, 0, 58, 71
1, 118081, Note_on_c, 0, 41, 69
1, 118081, Note_on_c, 2, 60, 80
1, 118082, Note_on_c, 5, 53, 76
1, 118083, Note_on_c, 5, 65, 80
1, 118083, Note_on_c, 13, 65, 50
1, 118084, Note_on_c, 13, 53, 51
1, 118085, Note_on_c, 9, 54, 0
1, 118086, Note_on_c, 6, 41, 67
1, 118086, Note_on_c, 6, 58, 68
1, 118087, Note_on_c, 2, 53, 76
1, 118091, Note_on_c, 9, 82, 0
1, 118093, Note_on_c, 9, 36, 0
1, 118093, Note_on_c, 9, 49, 0
1, 118150, Control_c, 12, 11, 91
1, 118295, Control_c, 12, 11, 87
1, 118305, Note_on_c, 3, 82, 0
1, 118440, Control_c, 12, 11, 83
1, 118545, Note_on_c, 13, 79, 0
1, 118555, Note_on_c, 13, 77, 59
1, 118585, Control_c, 12, 11, 79
1, 118730, Control_c, 12, 11, 75
1, 118875, Control_c, 12, 11, 71
1, 119015, Note_on_c, 1, 41, 0
1, 119025, Note_on_c, 13, 77, 0
1, 119025, Note_on_c, 2, 53, 0
1, 119025, Note_on_c, 6, 58, 0
1, 119025, Note_on_c, 6, 41, 0
1, 119025, Note_on_c, 13, 53, 0
1, 119025, Note_on_c, 13, 65, 0
1, 119025, Note_on_c, 5, 65, 0
1, 119025, Note_on_c, 5, 53, 0
1, 119025, Note_on_c, 2, 60, 0
1, 119025, Note_on_c, 0, 41, 0
1, 119025, Note_on_c, 0, 58, 0
1, 119025, Note_on_c, 7, 60, 0
1, 119025, Note_on_c, 5, 58, 0
1, 119025, Note_on_c, 2, 58, 0
1, 119025, Note_on_c, 0, 67, 0
1, 119025, Note_on_c, 7, 57, 0
1, 119025, Note_on_c, 2, 65, 0
1, 119025, Note_on_c, 0, 63, 0
1, 119025, Note_on_c, 13, 58, 0
1, 119025, Note_on_c, 7, 53, 0
1, 119025, Note_on_c, 6, 55, 0
1, 119025, Note_on_c, 12, 53, 0
1, 119025, Note_on_c, 0, 60, 0
1, 119025, Note_on_c, 13, 63, 0
1, 119025, Note_on_c, 5, 60, 0
1, 119025, Note_on_c, 6, 51, 0
1, 119035, Note_on_c, 6, 58, 60
1, 119037, Note_on_c, 0, 70, 58
1, 119037, Note_on_c, 1, 34, 79
1, 119037, Note_on_c, 9, 59, 41
1, 119037, Note_on_c, 13, 46, 48
1, 119038, Note_on_c, 13, 58, 52
1, 119039, Note_on_c, 0, 46, 52
1, 119040, Note_on_c, 0, 62, 58
1, 119043, Note_on_c, 0, 65, 56
1, 119043, Note_on_c, 2, 53, 84
1, 119044, Note_on_c, 5, 53, 84
1, 119045, Note_on_c, 13, 62, 49
1, 119046, Note_on_c, 13, 70, 50
1, 119050, Note_on_c, 9, 59, 0
1, 119052, Note_on_c, 2, 58, 86
1, 119060, Note_on_c, 5, 58, 86
1, 119068, Note_on_c, 2, 62, 82
1, 119077, Note_on_c, 5, 62, 85
1, 119084, Note_on_c, 2, 65, 82
1, 119084, Note_on_c, 5, 65, 84
1, 119273, Note_on_c, 6, 70, 53
1, 119279, Lyric_t, "to"
1, 119279, Note_on_c, 3, 81, 80
1, 119425, Note_on_c, 3, 81, 0
1, 119434, Lyric_t, "night. "
1, 119434, Lyric_t, "\015"
1, 119434, Note_on_c, 3, 82, 75
1, 119505, Note_on_c, 0, 65, 0
1, 119505, Note_on_c, 0, 62, 0
1, 119505, Note_on_c, 0, 70, 0
1, 119505, Note_on_c, 6, 58, 0
1, 119516, Note_on_c, 6, 58, 59
1, 119518, Note_on_c, 0, 70, 56
1, 119521, Note_on_c, 8, 58, 75
1, 119523, Note_on_c, 0, 62, 55
1, 119523, Note_on_c, 0, 65, 53
1, 119620, Note_on_c, 8, 58, 0
1, 119640, Note_on_c, 8, 55, 62
1, 119690, Note_on_c, 8, 55, 0
1, 119745, Note_on_c, 6, 70, 0
1, 119758, Note_on_c, 6, 70, 54
1, 119762, Note_on_c, 8, 53, 64
1, 119810, Note_on_c, 8, 53, 0
1, 119887, Note_on_c, 8, 58, 71
1, 119930, Note_on_c, 8, 58, 0
1, 119975, Note_on_c, 1, 34, 0
1, 119985, Note_on_c, 0, 65, 0
1, 119985, Note_on_c, 0, 62, 0
1, 119985, Note_on_c, 0, 70, 0
1, 119985, Note_on_c, 6, 58, 0
1, 119985, Note_on_c, 13, 62, 0
1, 119985, Note_on_c, 0, 46, 0
1, 119985, Note_on_c, 13, 46, 0
1, 119994, Note_on_c, 6, 58, 58
1, 119996, Note_on_c, 1, 38, 74
1, 120001, Note_on_c, 0, 50, 48
1, 120001, Note_on_c, 0, 70, 55
1, 120001, Note_on_c, 13, 65, 50
1, 120002, Note_on_c, 0, 68, 52
1, 120002, Note_on_c, 9, 59, 39
1, 120003, Note_on_c, 0, 65, 52
1, 120003, Note_on_c, 13, 50, 50
1, 120015, Note_on_c, 9, 59, 0
1, 120130, Control_c, 12, 11, 127
1, 120225, Note_on_c, 6, 70, 0
1, 120233, Note_on_c, 6, 70, 51
1, 120345, Pitch_bend_c, 8, 0
1, 120356, Note_on_c, 8, 55, 62
1, 120420, Pitch_bend_c, 8, 8192
1, 120460, Note_on_c, 8, 55, 0
1, 120465, Note_on_c, 0, 65, 0
1, 120465, Note_on_c, 0, 68, 0
1, 120465, Note_on_c, 0, 70, 0
1, 120465, Note_on_c, 6, 58, 0
1, 120473, Note_on_c, 8, 58, 72
1, 120478, Note_on_c, 0, 68, 53
1, 120482, Note_on_c, 0, 65, 53
1, 120483, Note_on_c, 0, 70, 52
1, 120483, Note_on_c, 6, 58, 56
1, 120580, Note_on_c, 8, 58, 0
1, 120598, Note_on_c, 8, 55, 59
1, 120650, Note_on_c, 8, 55, 0
1, 120705, Note_on_c, 6, 70, 0
1, 120719, Note_on_c, 8, 53, 63
1, 120722, Note_on_c, 6, 70, 54
1, 120770, Note_on_c, 8, 53, 0
1, 120843, Note_on_c, 8, 58, 62
1, 120890, Note_on_c, 8, 58, 0
1, 120935, Note_on_c, 1, 38, 0
1, 120945, Note_on_c, 6, 58, 0
1, 120945, Note_on_c, 0, 70, 0
1, 120945, Note_on_c, 0, 65, 0
1, 120945, Note_on_c, 0, 68, 0
1, 120945, Note_on_c, 13, 50, 0
1, 120945, Note_on_c, 13, 65, 0
1, 120945, Note_on_c, 0, 50, 0
1, 120945, Note_on_c, 5, 65, 0
1, 120945, Note_on_c, 2, 65, 0
1, 120945, Note_on_c, 5, 62, 0
1, 120945, Note_on_c, 2, 62, 0
1, 120945, Note_on_c, 5, 58, 0
1, 120945, Note_on_c, 2, 58, 0
1, 120945, Note_on_c, 5, 53, 0
1, 120945, Note_on_c, 2, 53, 0
1, 120958, Note_on_c, 0, 51, 46
1, 120960, Note_on_c, 0, 70, 55
1, 120960, Note_on_c, 0, 63, 57
1, 120960, Note_on_c, 13, 51, 49
1, 120961, Note_on_c, 0, 67, 57
1, 120961, Note_on_c, 1, 39, 76
1, 120962, Note_on_c, 6, 58, 59
1, 120962, Note_on_c, 9, 59, 42
1, 120964, Note_on_c, 13, 67, 50
1, 120975, Note_on_c, 9, 59, 0
1, 121075, Control_c, 3, 11, 123
1, 121185, Note_on_c, 6, 70, 0
1, 121204, Note_on_c, 6, 70, 52
1, 121225, Control_c, 3, 11, 119
1, 121305, Pitch_bend_c, 8, 0
1, 121316, Note_on_c, 8, 55, 58
1, 121380, Control_c, 3, 11, 115
1, 121380, Pitch_bend_c, 8, 8192
1, 121420, Note_on_c, 8, 55, 0
1, 121425, Note_on_c, 6, 58, 0
1, 121425, Note_on_c, 0, 67, 0
1, 121425, Note_on_c, 0, 63, 0
1, 121425, Note_on_c, 0, 70, 0
1, 121438, Note_on_c, 0, 67, 52
1, 121440, Note_on_c, 0, 70, 50
1, 121440, Note_on_c, 6, 58, 59
1, 121443, Note_on_c, 0, 63, 53
1, 121443, Note_on_c, 8, 58, 69
1, 121535, Control_c, 3, 11, 111
1, 121540, Note_on_c, 8, 58, 0
1, 121561, Note_on_c, 8, 55, 56
1, 121610, Note_on_c, 8, 55, 0
1, 121665, Note_on_c, 6, 70, 0
1, 121672, Note_on_c, 8, 53, 60
1, 121677, Note_on_c, 6, 70, 55
1, 121690, Control_c, 3, 11, 107
1, 121730, Note_on_c, 8, 53, 0
1, 121808, Note_on_c, 8, 58, 65
1, 121845, Control_c, 3, 11, 103
1, 121850, Note_on_c, 8, 58, 0
1, 121895, Note_on_c, 1, 39, 0
1, 121905, Note_on_c, 0, 63, 0
1, 121905, Note_on_c, 6, 58, 0
1, 121905, Note_on_c, 0, 70, 0
1, 121905, Note_on_c, 0, 67, 0
1, 121905, Note_on_c, 13, 67, 0
1, 121905, Note_on_c, 13, 51, 0
1, 121905, Note_on_c, 0, 51, 0
1, 121915, Note_on_c, 6, 58, 58
1, 121918, Note_on_c, 0, 70, 50
1, 121919, Note_on_c, 0, 67, 52
1, 121920, Note_on_c, 0, 53, 45
1, 121921, Note_on_c, 13, 65, 52
1, 121922, Note_on_c, 0, 63, 50
1, 121922, Note_on_c, 1, 41, 74
1, 121922, Note_on_c, 9, 59, 42
1, 121922, Note_on_c, 13, 41, 50
1, 121935, Note_on_c, 9, 59, 0
1, 121995, Control_c, 3, 11, 99
1, 122045, Note_on_c, 8, 55, 53
1, 122090, Note_on_c, 8, 55, 0
1, 122145, Note_on_c, 6, 70, 0
1, 122150, Control_c, 3, 11, 95
1, 122163, Note_on_c, 8, 58, 59
1, 122164, Note_on_c, 6, 70, 55
1, 122210, Note_on_c, 8, 58, 0
1, 122283, Note_on_c, 8, 60, 59
1, 122305, Control_c, 3, 11, 91
1, 122330, Note_on_c, 8, 60, 0
1, 122385, Note_on_c, 0, 63, 0
1, 122385, Note_on_c, 0, 67, 0
1, 122385, Note_on_c, 0, 70, 0
1, 122385, Note_on_c, 6, 58, 0
1, 122392, Note_on_c, 8, 60, 65
1, 122395, Note_on_c, 6, 58, 63
1, 122397, Note_on_c, 0, 67, 54
1, 122397, Note_on_c, 0, 63, 55
1, 122402, Note_on_c, 0, 70, 51
1, 122440, Pitch_bend_c, 8, 12288
1, 122460, Control_c, 3, 11, 87
1, 122480, Pitch_bend_c, 8, 16383
1, 122520, Pitch_bend_c, 8, 8192
1, 122610, Control_c, 3, 11, 83
1, 122615, Note_on_c, 1, 41, 0
1, 122625, Note_on_c, 6, 70, 0
1, 122637, Note_on_c, 1, 46, 68
1, 122639, Note_on_c, 6, 70, 52
1, 122648, Note_on_c, 9, 59, 42
1, 122661, Note_on_c, 9, 59, 0
1, 122735, Note_on_c, 1, 46, 0
1, 122763, Note_on_c, 1, 48, 67
1, 122765, Control_c, 3, 11, 79
1, 122767, Note_on_c, 9, 51, 39
1, 122780, Note_on_c, 9, 51, 0
1, 122845, Note_on_c, 1, 48, 0
1, 122860, Note_on_c, 8, 60, 0
1, 122865, Note_on_c, 0, 70, 0
1, 122865, Note_on_c, 0, 63, 0
1, 122865, Note_on_c, 0, 67, 0
1, 122865, Note_on_c, 6, 58, 0
1, 122865, Note_on_c, 13, 41, 0
1, 122865, Note_on_c, 13, 65, 0
1, 122865, Note_on_c, 0, 53, 0
1, 122865, Note_on_c, 13, 70, 0
1, 122865, Note_on_c, 13, 58, 0
1, 122865, Pitch_bend_c, 1, 4096
1, 122872, Note_on_c, 13, 46, 48
1, 122876, Note_on_c, 13, 58, 48
1, 122877, Note_on_c, 0, 46, 45
1, 122877, Note_on_c, 13, 62, 51
1, 122878, Note_on_c, 0, 62, 51
1, 122878, Note_on_c, 1, 50, 79
1, 122878, Note_on_c, 13, 70, 50
1, 122880, Note_on_c, 9, 59, 38
1, 122881, Note_on_c, 0, 65, 52
1, 122882, Note_on_c, 0, 70, 52
1, 122888, Note_on_c, 6, 58, 62
1, 122893, Note_on_c, 9, 59, 0
1, 122910, Pitch_bend_c, 1, 8192
1, 122920, Control_c, 3, 11, 75
1, 123075, Control_c, 3, 11, 71
1, 123105, Note_on_c, 6, 70, 0
1, 123105, Note_on_c, 3, 82, 0
1, 123125, Note_on_c, 6, 70, 53
1, 123285, Control_c, 3, 11, 127
1, 123345, Note_on_c, 6, 58, 0
1, 123345, Note_on_c, 0, 70, 0
1, 123345, Note_on_c, 0, 65, 0
1, 123345, Note_on_c, 0, 62, 0
1, 123358, Note_on_c, 6, 58, 60
1, 123359, Note_on_c, 0, 62, 53
1, 123363, Note_on_c, 0, 65, 50
1, 123363, Note_on_c, 0, 70, 51
1, 123364, Note_on_c, 8, 58, 60
1, 123460, Note_on_c, 8, 58, 0
1, 123472, Note_on_c, 8, 55, 48
1, 123530, Note_on_c, 8, 55, 0
1, 123585, Note_on_c, 6, 70, 0
1, 123593, Note_on_c, 6, 70, 52
1, 123603, Note_on_c, 8, 53, 51
1, 123608, Lyric_t, "They "
1, 123608, Note_on_c, 3, 84, 80
1, 123650, Note_on_c, 8, 53, 0
1, 123670, Note_on_c, 1, 50, 0
1, 123705, Note_on_c, 3, 84, 0
1, 123705, Pitch_bend_c, 1, 0
1, 123717, Note_on_c, 1, 55, 75
1, 123728, Note_on_c, 8, 58, 59
1, 123754, Lyric_t, "al"
1, 123754, Note_on_c, 3, 86, 85
1, 123770, Note_on_c, 8, 58, 0
1, 123780, Pitch_bend_c, 1, 8192
1, 123815, Note_on_c, 1, 55, 0
1, 123825, Note_on_c, 0, 70, 0
1, 123825, Note_on_c, 0, 65, 0
1, 123825, Note_on_c, 0, 62, 0
1, 123825, Note_on_c, 6, 58, 0
1, 123825, Note_on_c, 13, 62, 0
1, 123825, Note_on_c, 0, 46, 0
1, 123825, Note_on_c, 13, 46, 0
1, 123830, Note_on_c, 3, 86, 0
1, 123832, Note_on_c, 13, 65, 49
1, 123835, Note_on_c, 13, 50, 51
1, 123837, Note_on_c, 0, 70, 48
1, 123838, Note_on_c, 0, 50, 44
1, 123838, Note_on_c, 0, 68, 50
1, 123838, Note_on_c, 1, 50, 77
1, 123839, Note_on_c, 0, 65, 49
1, 123840, Tempo, 937500
1, 123844, Note_on_c, 9, 59, 40
1, 123845, Note_on_c, 6, 58, 59
1, 123848, Lyric_t, "ways "
1, 123848, Note_on_c, 3, 84, 86
1, 123857, Note_on_c, 9, 59, 0
1, 123945, Note_on_c, 3, 84, 0
1, 123985, Pitch_bend_c, 3, 4971
1, 123994, Lyric_t, "say "
1, 123994, Lyric_t, "\015"
1, 123994, Note_on_c, 3, 84, 76
1, 124020, Pitch_bend_c, 3, 5241
1, 124030, Pitch_bend_c, 3, 5777
1, 124040, Pitch_bend_c, 3, 6314
1, 124050, Pitch_bend_c, 3, 6851
1, 124060, Pitch_bend_c, 3, 7387
1, 124065, Note_on_c, 6, 70, 0
1, 124070, Pitch_bend_c, 3, 7924
1, 124075, Pitch_bend_c, 3, 8192
1, 124075, Note_on_c, 6, 70, 54
1, 124185, Pitch_bend_c, 8, 0
1, 124192, Note_on_c, 8, 55, 52
1, 124260, Pitch_bend_c, 8, 8192
1, 124300, Note_on_c, 8, 55, 0
1, 124305, Note_on_c, 3, 84, 0
1, 124305, Note_on_c, 6, 58, 0
1, 124305, Note_on_c, 0, 65, 0
1, 124305, Note_on_c, 0, 68, 0
1, 124305, Note_on_c, 0, 70, 0
1, 124316, Note_on_c, 8, 58, 52
1, 124320, Tempo, 983606
1, 124320, Note_on_c, 0, 68, 50
1, 124320, Note_on_c, 0, 65, 49
1, 124321, Note_on_c, 6, 58, 59
1, 124323, Note_on_c, 0, 70, 46
1, 124420, Note_on_c, 8, 58, 0
1, 124441, Note_on_c, 8, 55, 46
1, 124490, Note_on_c, 8, 55, 0
1, 124545, Note_on_c, 6, 70, 0
1, 124561, Note_on_c, 8, 53, 47
1, 124568, Note_on_c, 6, 70, 55
1, 124610, Note_on_c, 8, 53, 0
1, 124645, Lyric_t, "We "
1, 124645, Note_on_c, 3, 79, 78
1, 124684, Note_on_c, 8, 58, 46
1, 124730, Note_on_c, 8, 58, 0
1, 124730, Note_on_c, 3, 79, 0
1, 124745, Lyric_t, "were "
1, 124745, Note_on_c, 3, 82, 79
1, 124775, Note_on_c, 1, 50, 0
1, 124785, Note_on_c, 0, 70, 0
1, 124785, Note_on_c, 6, 58, 0
1, 124785, Note_on_c, 0, 65, 0
1, 124785, Note_on_c, 0, 68, 0
1, 124785, Note_on_c, 0, 50, 0
1, 124785, Note_on_c, 13, 50, 0
1, 124785, Note_on_c, 13, 65, 0
1, 124796, Note_on_c, 6, 58, 62
1, 124800, Note_on_c, 0, 63, 51
1, 124801, Note_on_c, 0, 67, 51
1, 124801, Note_on_c, 0, 70, 53
1, 124802, Note_on_c, 0, 51, 43
1, 124802, Note_on_c, 9, 59, 42
1, 124803, Note_on_c, 1, 39, 76
1, 124803, Note_on_c, 13, 67, 49
1, 124804, Note_on_c, 13, 51, 50
1, 124815, Note_on_c, 9, 59, 0
1, 124830, Note_on_c, 3, 82, 0
1, 124836, Lyric_t, "the "
1, 124836, Note_on_c, 3, 84, 89
1, 124910, Note_on_c, 3, 84, 0
1, 124936, Lyric_t, "luck"
1, 124936, Note_on_c, 3, 86, 70
1, 125025, Note_on_c, 6, 70, 0
1, 125030, Note_on_c, 3, 86, 0
1, 125032, Lyric_t, "y "
1, 125032, Note_on_c, 3, 84, 76
1, 125037, Note_on_c, 6, 70, 51
1, 125110, Note_on_c, 3, 84, 0
1, 125145, Pitch_bend_c, 3, 4971
1, 125145, Pitch_bend_c, 8, 0
1, 125158, Note_on_c, 8, 55, 46
1, 125159, Lyric_t, "ones."
1, 125159, Note_on_c, 3, 84, 75
1, 125180, Pitch_bend_c, 3, 5241
1, 125190, Pitch_bend_c, 3, 5777
1, 125200, Pitch_bend_c, 3, 6314
1, 125210, Pitch_bend_c, 3, 6851
1, 125220, Pitch_bend_c, 3, 7387
1, 125220, Pitch_bend_c, 8, 8192
1, 125230, Pitch_bend_c, 3, 7924
1, 125235, Pitch_bend_c, 3, 8192
1, 125260, Note_on_c, 8, 55, 0
1, 125265, Note_on_c, 0, 70, 0
1, 125265, Note_on_c, 0, 67, 0
1, 125265, Note_on_c, 0, 63, 0
1, 125265, Note_on_c, 6, 58, 0
1, 125279, Note_on_c, 0, 63, 47
1, 125279, Note_on_c, 6, 58, 57
1, 125280, Tempo, 1071428
1, 125282, Note_on_c, 0, 67, 48
1, 125282, Note_on_c, 0, 70, 46
1, 125287, Note_on_c, 8, 58, 50
1, 125380, Note_on_c, 8, 58, 0
1, 125385, Note_on_c, 3, 84, 0
1, 125405, Note_on_c, 8, 55, 44
1, 125450, Note_on_c, 8, 55, 0
1, 125505, Note_on_c, 6, 70, 0
1, 125517, Note_on_c, 8, 53, 46
1, 125527, Note_on_c, 6, 70, 52
1, 125570, Note_on_c, 8, 53, 0
1, 125643, Note_on_c, 8, 58, 49
1, 125690, Note_on_c, 8, 58, 0
1, 125700, Control_c, 1, 101, 0
1, 125705, Control_c, 1, 100, 0
1, 125710, Note_on_c, 1, 39, 0
1, 125710, Control_c, 1, 6, 10
1, 125745, Note_on_c, 0, 70, 0
1, 125745, Note_on_c, 0, 67, 0
1, 125745, Note_on_c, 6, 58, 0
1, 125745, Note_on_c, 0, 63, 0
1, 125745, Note_on_c, 13, 51, 0
1, 125745, Note_on_c, 13, 67, 0
1, 125745, Note_on_c, 0, 51, 0
1, 125745, Note_on_c, 13, 70, 0
1, 125745, Note_on_c, 13, 58, 0
1, 125745, Pitch_bend_c, 1, 16383
1, 125753, Note_on_c, 13, 55, 49
1, 125755, Note_on_c, 13, 53, 50
1, 125757, Note_on_c, 0, 53, 42
1, 125758, Note_on_c, 6, 58, 59
1, 125759, Note_on_c, 0, 63, 49
1, 125760, Tempo, 1250000
1, 125760, Note_on_c, 0, 67, 48
1, 125760, Note_on_c, 9, 59, 41
1, 125760, Note_on_c, 13, 58, 48
1, 125761, Note_on_c, 0, 70, 46
1, 125763, Note_on_c, 1, 31, 73
1, 125773, Note_on_c, 9, 59, 0
1, 125985, Note_on_c, 6, 70, 0
1, 125992, Note_on_c, 6, 70, 51
1, 126015, Pitch_bend_c, 1, 15767
1, 126035, Pitch_bend_c, 1, 14948
1, 126055, Pitch_bend_c, 1, 14129
1, 126075, Pitch_bend_c, 1, 13310
1, 126095, Pitch_bend_c, 1, 12491
1, 126115, Pitch_bend_c, 1, 11672
1, 126135, Pitch_bend_c, 1, 10853
1, 126155, Pitch_bend_c, 1, 10034
1, 126175, Pitch_bend_c, 1, 9215
1, 126195, Pitch_bend_c, 1, 8396
1, 126200, Pitch_bend_c, 1, 8192
1, 126210, Control_c, 1, 6, 2
1, 126215, Note_on_c, 1, 31, 0
1, 126215, Control_c, 1, 101, 127
1, 126220, Control_c, 1, 100, 127
1, 126225, Note_on_c, 0, 70, 0
1, 126225, Note_on_c, 13, 58, 0
1, 126225, Note_on_c, 0, 67, 0
1, 126225, Note_on_c, 0, 63, 0
1, 126225, Note_on_c, 6, 58, 0
1, 126225, Note_on_c, 0, 53, 0
1, 126225, Note_on_c, 13, 53, 0
1, 126225, Note_on_c, 13, 55, 0
1, 126232, Note_on_c, 13, 41, 51
1, 126233, Note_on_c, 6, 58, 62
1, 126238, Note_on_c, 0, 51, 48
1, 126238, Note_on_c, 13, 60, 49
1, 126239, Note_on_c, 13, 58, 52
1, 126240, Tempo, 1875000
1, 126241, Note_on_c, 0, 55, 48
1, 126241, Note_on_c, 0, 58, 52
1, 126242, Note_on_c, 0, 41, 46
1, 126242, Note_on_c, 1, 29, 78
1, 126243, Note_on_c, 13, 55, 52
1, 126485, Control_c, 13, 11, 124
1, 126495, Control_c, 13, 11, 122
1, 126505, Control_c, 13, 11, 120
1, 126515, Control_c, 13, 11, 117
1, 126525, Control_c, 13, 11, 115
1, 126535, Control_c, 13, 11, 112
1, 126545, Control_c, 13, 11, 110
1, 126555, Control_c, 13, 11, 108
1, 126565, Control_c, 13, 11, 105
1, 126575, Control_c, 13, 11, 103
1, 126585, Control_c, 13, 11, 100
1, 126595, Control_c, 13, 11, 98
1, 126605, Control_c, 13, 11, 96
1, 126615, Control_c, 13, 11, 93
1, 126625, Control_c, 13, 11, 91
1, 126635, Control_c, 13, 11, 89
1, 126645, Control_c, 13, 11, 86
1, 126655, Control_c, 13, 11, 84
1, 126659, Note_on_c, 9, 59, 15
1, 126665, Note_on_c, 0, 41, 0
1, 126665, Note_on_c, 0, 58, 0
1, 126665, Note_on_c, 0, 55, 0
1, 126665, Note_on_c, 0, 51, 0
1, 126665, Control_c, 13, 11, 81
1, 126672, Note_on_c, 9, 59, 0
1, 126675, Control_c, 13, 11, 79
1, 126682, Note_on_c, 0, 34, 49
1, 126685, Control_c, 13, 11, 77
1, 126687, Note_on_c, 9, 51, 17
1, 126695, Note_on_c, 1, 29, 0
1, 126695, Control_c, 13, 11, 74
1, 126700, Note_on_c, 9, 51, 0
1, 126703, Note_on_c, 0, 46, 50
1, 126705, Note_on_c, 13, 55, 0
1, 126705, Note_on_c, 13, 58, 0
1, 126705, Note_on_c, 13, 60, 0
1, 126705, Note_on_c, 6, 58, 0
1, 126705, Note_on_c, 13, 41, 0
1, 126705, Note_on_c, 6, 70, 0
1, 126705, Control_c, 13, 11, 72
1, 126715, Control_c, 13, 11, 70
1, 126716, Note_on_c, 13, 58, 50
1, 126717, Note_on_c, 1, 34, 79
1, 126717, Note_on_c, 13, 53, 52
1, 126718, Note_on_c, 9, 59, 20
1, 126720, Tempo, 923076
1, 126720, Note_on_c, 0, 50, 48
1, 126725, Note_on_c, 6, 46, 60
1, 126727, Note_on_c, 13, 50, 50
1, 126727, Note_on_c, 13, 46, 50
1, 126731, Note_on_c, 9, 59, 0
1, 126737, Note_on_c, 0, 53, 51
1, 126743, Note_on_c, 6, 53, 62
1, 126757, Note_on_c, 9, 51, 24
1, 126758, Note_on_c, 6, 58, 63
1, 126760, Note_on_c, 0, 58, 47
1, 126770, Note_on_c, 9, 51, 0
1, 126783, Note_on_c, 6, 62, 60
1, 126795, Control_c, 13, 11, 74
1, 126802, Note_on_c, 9, 59, 27
1, 126815, Note_on_c, 9, 59, 0
1, 126839, Note_on_c, 9, 51, 31
1, 126852, Note_on_c, 9, 51, 0
1, 126877, Note_on_c, 9, 59, 34
1, 126890, Note_on_c, 9, 59, 0
1, 126895, Control_c, 13, 11, 78
1, 126923, Note_on_c, 9, 51, 38
1, 126936, Note_on_c, 9, 51, 0
1, 126958, Note_on_c, 9, 59, 42
1, 126971, Note_on_c, 9, 59, 0
1, 127000, Control_c, 13, 11, 82
1, 127003, Note_on_c, 9, 51, 45
1, 127016, Note_on_c, 9, 51, 0
1, 127038, Note_on_c, 9, 59, 49
1, 127051, Note_on_c, 9, 59, 0
1, 127082, Note_on_c, 9, 51, 53
1, 127095, Note_on_c, 9, 51, 0
1, 127100, Control_c, 13, 11, 86
1, 127121, Note_on_c, 9, 59, 56
1, 127134, Note_on_c, 9, 59, 0
1, 127157, Note_on_c, 9, 51, 60
1, 127170, Note_on_c, 9, 51, 0
1, 127197, Note_on_c, 9, 59, 64
1, 127205, Control_c, 13, 11, 90
1, 127210, Note_on_c, 9, 59, 0
1, 127240, Note_on_c, 9, 51, 62
1, 127253, Note_on_c, 9, 51, 0
1, 127280, Note_on_c, 9, 59, 59
1, 127293, Note_on_c, 9, 59, 0
1, 127305, Control_c, 1, 11, 123
1, 127305, Control_c, 13, 11, 94
1, 127323, Note_on_c, 9, 51, 56
1, 127336, Note_on_c, 9, 51, 0
1, 127362, Note_on_c, 9, 59, 53
1, 127375, Note_on_c, 9, 59, 0
1, 127401, Note_on_c, 9, 51, 50
1, 127410, Control_c, 13, 11, 98
1, 127414, Note_on_c, 9, 51, 0
1, 127437, Note_on_c, 9, 59, 47
1, 127450, Note_on_c, 9, 59, 0
1, 127450, Control_c, 1, 11, 119
1, 127480, Note_on_c, 9, 51, 44
1, 127493, Note_on_c, 9, 51, 0
1, 127510, Control_c, 13, 11, 102
1, 127522, Note_on_c, 9, 59, 41
1, 127535, Note_on_c, 9, 59, 0
1, 127563, Note_on_c, 9, 51, 38
1, 127576, Note_on_c, 9, 51, 0
1, 127595, Control_c, 1, 11, 115
1, 127603, Note_on_c, 9, 59, 35
1, 127615, Control_c, 13, 11, 106
1, 127616, Note_on_c, 9, 59, 0
1, 127643, Note_on_c, 9, 51, 32
1, 127656, Note_on_c, 9, 51, 0
1, 127715, Control_c, 13, 11, 110
1, 127740, Control_c, 1, 11, 111
1, 127820, Control_c, 13, 11, 114
1, 127885, Control_c, 1, 11, 107
1, 127920, Control_c, 13, 11, 118
1, 128025, Control_c, 13, 11, 122
1, 128030, Control_c, 1, 11, 103
1, 128125, Control_c, 13, 11, 126
1, 128155, Control_c, 13, 11, 127
1, 128175, Control_c, 1, 11, 99
1, 128245, Control_c, 13, 11, 123
1, 128320, Control_c, 1, 11, 95
1, 128355, Control_c, 13, 11, 119
1, 128465, Control_c, 1, 11, 91
1, 128470, Control_c, 13, 11, 115
1, 128585, Control_c, 13, 11, 111
1, 128605, Control_c, 1, 11, 87
1, 128700, Control_c, 13, 11, 107
1, 128750, Control_c, 1, 11, 83
1, 128815, Control_c, 13, 11, 103
1, 128895, Control_c, 1, 11, 79
1, 128930, Control_c, 13, 11, 99
1, 129040, Control_c, 1, 11, 75
1, 129040, Control_c, 13, 11, 95
1, 129155, Control_c, 13, 11, 91
1, 129185, Control_c, 1, 11, 71
1, 129270, Control_c, 13, 11, 87
1, 129330, Control_c, 1, 11, 67
1, 129385, Control_c, 13, 11, 83
1, 129440, Control_c, 1, 11, 64
1, 129500, Control_c, 13, 11, 79
1, 129545, Control_c, 1, 11, 61
1, 129615, Control_c, 13, 11, 75
1, 129690, Control_c, 1, 11, 57
1, 129725, Control_c, 13, 11, 71
1, 129835, Control_c, 1, 11, 53
1, 129840, Control_c, 13, 11, 67
1, 129925, Control_c, 13, 11, 64
1, 129980, Control_c, 1, 11, 49
1, 130010, Control_c, 13, 11, 61
1, 130125, Control_c, 1, 11, 45
1, 130125, Control_c, 13, 11, 57
1, 130240, Control_c, 13, 11, 53
1, 130270, Control_c, 1, 11, 41
1, 130355, Control_c, 13, 11, 49
1, 130415, Control_c, 1, 11, 37
1, 130470, Control_c, 13, 11, 45
1, 130560, Control_c, 1, 11, 33
1, 130585, Control_c, 13, 11, 41
1, 130695, Control_c, 13, 11, 37
1, 130705, Control_c, 1, 11, 29
1, 130810, Control_c, 13, 11, 33
1, 130850, Control_c, 1, 11, 25
1, 130925, Control_c, 13, 11, 29
1, 130995, Control_c, 1, 11, 21
1, 131040, Control_c, 13, 11, 25
1, 131140, Control_c, 1, 11, 17
1, 131155, Control_c, 13, 11, 21
1, 131265, Control_c, 13, 11, 17
1, 131285, Control_c, 1, 11, 13
1, 131380, Control_c, 13, 11, 13
1, 131425, Control_c, 1, 11, 9
1, 131495, Control_c, 13, 11, 9
1, 131570, Control_c, 1, 11, 5
1, 131610, Control_c, 13, 11, 5
1, 131715, Control_c, 1, 11, 1
1, 131725, Control_c, 13, 11, 1
1, 131735, Note_on_c, 1, 34, 0
1, 131745, Note_on_c, 6, 62, 0
1, 131745, Note_on_c, 0, 58, 0
1, 131745, Note_on_c, 6, 58, 0
1, 131745, Note_on_c, 6, 53, 0
1, 131745, Note_on_c, 0, 53, 0
1, 131745, Note_on_c, 13, 46, 0
1, 131745, Note_on_c, 13, 50, 0
1, 131745, Note_on_c, 6, 46, 0
1, 131745, Note_on_c, 0, 50, 0
1, 131745, Note_on_c, 13, 53, 0
1, 131745, Note_on_c, 13, 58, 0
1, 131745, Note_on_c, 0, 46, 0
1, 131745, Note_on_c, 0, 34, 0
1, 131755, Control_c, 1, 11, 0
1, 131755, Control_c, 13, 11, 0
1, 131905, Control_c, 1, 11, 127
1, 132505, Control_c, 13, 11, 127
1, 132505, End_track
0, 0, End_of_file
